<REAPER_PROJECT 0.1 "5.20rc3/OSX64" 1463358879
  RIPPLE 0
  GROUPOVERRIDE 0 0 0
  AUTOXFADE 0
  ENVATTACH 1
  MIXERUIFLAGS 11 52
  PEAKGAIN 1
  FEEDBACK 0
  PANLAW 1
  PROJOFFS 0 0
  MAXPROJLEN 0 600
  GRID 174206 8 1 8 1 0 0
  TIMEMODE 6 0 -1 24 2
  PANMODE 3
  CURSOR 16
  ZOOM 5.78956975004574 0 0
  VZOOMEX 0
  USE_REC_CFG 0
  RECMODE 1
  SMPTESYNC 0 23.976024 100 40 1000 300 0 0 1
  MIDIEDITOR -116919545
  LOOP 1
  LOOPGRAN 0 4
  RECORD_PATH "" ""
  <RECORD_CFG
    ZXZhdxAA
  >
  <APPLYFX_CFG
  >
  RENDER_FILE "/Users/samenglander/_dev/colorflags/anthems/SriLanka.mp3"
  RENDER_FMT 0 2 44100
  RENDER_1X 0
  RENDER_RANGE 2 0 0 18 1000
  RENDER_RESAMPLE 3 0 1
  RENDER_ADDTOPROJ 0
  RENDER_STEMS 0
  RENDER_DITHER 0
  TIMELOCKMODE 1
  TEMPOENVLOCKMODE 1
  ITEMMIX 1
  DEFPITCHMODE 589824
  TAKELANE 3
  SAMPLERATE 44100 0 0
  <RENDER_CFG
    bDNwbSAAAAABAAAABQAAAAAAAAAAAAAAQAEAAAAAAAA=
  >
  LOCK 1
  <METRONOME 6 2
    VOL 0.25 0.125
    FREQ 800 1600 1
    BEATLEN 4
    SAMPLES "" ""
    PATTERN 2863311530 2863311529
  >
  GLOBAL_AUTO -1
  TEMPO 120 4 4
  PLAYRATE 1 0 0.25 4
  SELECTION 48 16
  SELECTION2 48 16
  MASTERAUTOMODE 0
  MASTERTRACKHEIGHT 0
  MASTERPEAKCOL 16576
  MASTERMUTESOLO 0
  MASTERTRACKVIEW 0 0.6667 0.5 0.5 0 0 0
  MASTERHWOUT 0 0 1 0 0 0 0 -1
  MASTER_NCH 2 2
  MASTER_VOLUME 1 0 -1 -1 1
  MASTER_FX 1
  MASTER_SEL 0
  <MASTERPLAYSPEEDENV
    ACT 0
    VIS 0 1 1
    LANEHEIGHT 0 0
    ARM 0
    DEFSHAPE 0 -1 -1
  >
  <TEMPOENVEX
    ACT 0
    VIS 1 0 1
    LANEHEIGHT 0 0
    ARM 0
    DEFSHAPE 1 -1 -1
  >
  <PROJBAY
  >
  <TRACK {ED31D3B0-AFD9-1744-8C4A-46CD6422C3C3}
    NAME ""
    PEAKCOL 16576
    BEAT -1
    AUTOMODE 0
    VOLPAN 1 0 -1 -1 1
    MUTESOLO 1 0 0
    IPHASE 0
    ISBUS 0 0
    BUSCOMP 0 0
    SHOWINMIX 1 0.6667 0.5 1 0.5 0 0 0
    FREEMODE 0
    SEL 0
    REC 0 0 0 0 0 0 0
    VU 2
    TRACKHEIGHT 25 0
    INQ 0 0 0 0.5 100 0 0 100
    NCHAN 2
    FX 1
    TRACKID {ED31D3B0-AFD9-1744-8C4A-46CD6422C3C3}
    PERF 0
    MIDIOUT -1
    MAINSEND 1 0
    <ITEM
      POSITION 0
      SNAPOFFS 0
      LENGTH 66
      LOOP 1
      ALLTAKES 0
      FADEIN 1 0 0 1 0 0
      FADEOUT 1 0 0 1 0 0
      MUTE 0
      SEL 0
      YPOS 0 0.142857
      IGUID {11392BBE-27CC-7D49-8CD5-0956825EBB8B}
      IID 3
      NAME "RH                   - National_Anthems_-_Sri_Lanka.mid"
      VOLPAN 1 0 1 -1
      SOFFS 0 0
      PLAYRATE 1 1 0 -1 0 0.0025
      CHANMODE 0
      GUID {1F219984-080A-A54A-9FDB-8ADFA3AF802C}
      <SOURCE MIDI
        HASDATA 1 192 QN
        POOLEDEVTS {22087EA9-D6F6-574A-8F74-F4FE2A0CB469}
        <X 0 0
          /wNSSCAgICAgICAgICAgICAgICAgIA==
        >
        E 0 91 3a 6e
        E 0 91 3f 6e
        E 0 91 37 6e
        E 0 91 43 6e
        E 80 81 3a 40
        E 0 81 3f 40
        E 0 81 37 40
        E 0 81 43 40
        E 16 91 43 6e
        E 80 81 43 40
        E 16 91 43 6e
        E 0 91 37 6e
        E 0 91 3f 6e
        E 80 81 43 40
        E 0 81 37 40
        E 0 81 3f 40
        E 16 91 43 6e
        E 80 81 43 40
        E 16 91 3c 6e
        E 0 91 41 6e
        E 0 91 38 6e
        E 176 81 3c 40
        E 0 81 41 40
        E 0 81 38 40
        E 16 91 3e 6e
        E 0 91 38 6e
        E 16 81 38 40
        E 64 81 3e 40
        E 16 91 41 6e
        E 80 81 41 40
        E 16 91 3f 6e
        E 0 91 37 6e
        E 0 91 3a 6e
        E 560 81 3f 40
        E 0 81 37 40
        E 0 81 3a 40
        E 208 91 3f 6e
        E 0 91 43 6e
        E 0 91 37 6e
        E 0 91 3a 6e
        E 176 81 3f 40
        E 0 81 43 40
        E 0 81 37 40
        E 0 81 3a 40
        E 16 91 3c 6e
        E 0 91 3f 6e
        E 0 91 43 6e
        E 0 91 37 6e
        E 176 81 3c 40
        E 0 81 3f 40
        E 0 81 43 40
        E 0 81 37 40
        E 16 91 41 6e
        E 0 91 3c 6e
        E 0 91 38 6e
        E 176 81 41 40
        E 0 81 3c 40
        E 0 81 38 40
        E 16 91 3e 6e
        E 0 91 38 6e
        E 80 81 3e 40
        E 16 91 41 6e
        E 80 81 38 40
        E 0 81 41 40
        E 16 91 3f 6e
        E 0 91 37 6e
        E 176 81 37 40
        E 16 91 38 6e
        E 176 81 38 40
        E 16 91 37 6e
        E 176 81 3f 40
        E 0 81 37 40
        E 16 91 3f 6e
        E 80 81 3f 40
        E 16 91 3e 6e
        E 80 81 3e 40
        E 16 91 3f 6e
        E 0 91 37 6e
        E 0 91 3a 6e
        E 176 81 3f 40
        E 0 81 37 40
        E 0 81 3a 40
        E 16 91 3c 6e
        E 0 91 43 6e
        E 0 91 3f 6e
        E 0 91 37 6e
        E 176 81 3c 40
        E 0 81 43 40
        E 0 81 3f 40
        E 0 81 37 40
        E 16 91 43 6e
        E 0 91 3f 6e
        E 0 91 3a 6e
        E 176 81 43 40
        E 0 81 3f 40
        E 0 81 3a 40
        E 16 91 3f 6e
        E 0 91 3a 6e
        E 0 91 46 6e
        E 80 81 3f 40
        E 0 81 3a 40
        E 0 81 46 40
        E 16 91 48 6e
        E 0 91 3f 6e
        E 0 91 3c 6e
        E 80 81 48 40
        E 0 81 3f 40
        E 0 81 3c 40
        E 16 91 41 6e
        E 0 91 3a 6e
        E 0 91 46 6e
        E 176 81 41 40
        E 16 91 3f 6e
        E 80 81 3a 40
        E 0 81 46 40
        E 16 91 4b 6e
        E 0 91 43 6e
        E 80 81 3f 40
        E 0 81 4b 40
        E 0 81 43 40
        E 16 91 4a 6e
        E 0 91 43 6e
        E 0 91 3e 6e
        E 176 81 3e 40
        E 16 91 3e 6e
        E 80 81 4a 40
        E 0 81 43 40
        E 16 91 48 6e
        E 0 91 41 6e
        E 80 81 3e 40
        E 0 81 48 40
        E 0 81 41 40
        E 16 91 41 6e
        E 0 91 3a 6e
        E 0 91 46 6e
        E 176 81 41 40
        E 16 91 3f 6e
        E 80 81 3a 40
        E 0 81 46 40
        E 0 81 3f 40
        E 16 91 41 6e
        E 0 91 3c 6e
        E 0 91 44 6e
        E 80 81 41 40
        E 0 81 3c 40
        E 0 81 44 40
        E 16 91 43 6e
        E 0 91 3a 6e
        E 0 91 3f 6e
        E 272 81 43 40
        E 0 81 3a 40
        E 0 81 3f 40
        E 16 91 3f 6e
        E 0 91 43 6e
        E 0 91 3a 6e
        E 80 81 3f 40
        E 0 81 43 40
        E 0 81 3a 40
        E 16 91 41 6e
        E 0 91 3c 6e
        E 0 91 38 6e
        E 176 81 41 40
        E 0 81 3c 40
        E 0 81 38 40
        E 16 91 3e 6e
        E 0 91 38 6e
        E 80 81 3e 40
        E 16 91 41 6e
        E 80 81 38 40
        E 0 81 41 40
        E 16 91 3f 6e
        E 0 91 37 6e
        E 0 91 3a 6e
        E 176 81 3f 40
        E 0 81 37 40
        E 0 81 3a 40
        E 208 91 27 6e
        E 80 81 27 40
        E 16 91 2e 6e
        E 80 81 2e 40
        E 16 91 37 6e
        E 80 81 37 40
        E 16 91 3a 6e
        E 80 81 3a 40
        E 16 91 46 6e
        E 0 91 3f 6e
        E 80 81 46 40
        E 0 81 3f 40
        E 16 91 3a 6e
        E 80 81 3a 40
        E 16 91 37 6e
        E 80 81 37 40
        E 16 91 2e 6e
        E 80 81 2e 40
        E 16 91 2e 6e
        E 80 81 2e 40
        E 16 91 35 6e
        E 80 81 35 40
        E 16 91 3a 6e
        E 80 81 3a 40
        E 16 91 3e 6e
        E 80 81 3e 40
        E 16 91 41 6e
        E 0 91 44 6e
        E 80 81 41 40
        E 0 81 44 40
        E 16 91 3e 6e
        E 80 81 3e 40
        E 16 91 3a 6e
        E 80 81 3a 40
        E 16 91 35 6e
        E 80 81 35 40
        E 16 91 2e 6e
        E 80 81 2e 40
        E 16 91 35 6e
        E 80 81 35 40
        E 16 91 3a 6e
        E 80 81 3a 40
        E 16 91 3e 6e
        E 80 81 3e 40
        E 16 91 41 6e
        E 0 91 44 6e
        E 80 81 41 40
        E 0 81 44 40
        E 16 91 3e 6e
        E 80 81 3e 40
        E 16 91 3a 6e
        E 80 81 3a 40
        E 16 91 35 6e
        E 80 81 35 40
        E 16 91 27 6e
        E 80 81 27 40
        E 16 91 2e 6e
        E 80 81 2e 40
        E 16 91 37 6e
        E 80 81 37 40
        E 16 91 3a 6e
        E 80 81 3a 40
        E 16 91 3f 6e
        E 0 91 46 6e
        E 80 81 3f 40
        E 0 81 46 40
        E 16 91 3a 6e
        E 80 81 3a 40
        E 16 91 37 6e
        E 80 81 37 40
        E 16 91 2e 6e
        E 80 81 2e 40
        E 112 91 4b 6e
        E 0 91 3f 6e
        E 0 91 44 6e
        E 80 81 4b 40
        E 0 81 3f 40
        E 0 81 44 40
        E 112 91 4b 6e
        E 0 91 3f 6e
        E 0 91 46 6e
        E 80 81 4b 40
        E 0 81 3f 40
        E 0 81 46 40
        E 112 91 48 6e
        E 0 91 3f 6e
        E 0 91 44 6e
        E 80 81 48 40
        E 0 81 3f 40
        E 0 81 44 40
        E 112 91 41 6e
        E 0 91 44 6e
        E 0 91 3c 6e
        E 80 81 41 40
        E 0 81 44 40
        E 0 81 3c 40
        E 112 91 46 6e
        E 0 91 3a 6e
        E 0 91 3f 6e
        E 80 81 46 40
        E 0 81 3a 40
        E 0 81 3f 40
        E 112 91 43 6e
        E 0 91 3a 6e
        E 0 91 3f 6e
        E 80 81 43 40
        E 0 81 3a 40
        E 0 81 3f 40
        E 112 91 44 6e
        E 0 91 3f 6e
        E 0 91 38 6e
        E 80 81 44 40
        E 0 81 3f 40
        E 0 81 38 40
        E 112 91 3e 6e
        E 0 91 38 6e
        E 80 81 3e 40
        E 0 81 38 40
        E 112 91 3e 6e
        E 0 91 3a 6e
        E 0 91 44 6e
        E 80 81 3e 40
        E 0 81 3a 40
        E 0 81 44 40
        E 112 91 43 6e
        E 0 91 3f 6e
        E 0 91 3a 6e
        E 80 81 43 40
        E 0 81 3f 40
        E 0 81 3a 40
        E 112 91 3c 6e
        E 0 91 41 6e
        E 80 81 3c 40
        E 0 81 41 40
        E 16 91 38 6e
        E 0 91 3e 6e
        E 80 81 3e 40
        E 16 91 41 6e
        E 80 81 38 40
        E 0 81 41 40
        E 16 91 3f 6e
        E 0 91 37 6e
        E 176 81 37 40
        E 16 91 38 6e
        E 176 81 38 40
        E 16 91 37 6e
        E 176 81 3f 40
        E 0 81 37 40
        E 304 91 43 6e
        E 0 91 3a 6e
        E 0 91 3f 6e
        E 80 81 43 40
        E 0 81 3a 40
        E 0 81 3f 40
        E 112 91 41 6e
        E 0 91 3a 6e
        E 80 81 41 40
        E 0 81 3a 40
        E 112 91 43 6e
        E 0 91 3f 6e
        E 0 91 3a 6e
        E 80 81 43 40
        E 0 81 3f 40
        E 0 81 3a 40
        E 112 91 44 6e
        E 0 91 3f 6e
        E 0 91 38 6e
        E 80 81 44 40
        E 0 81 3f 40
        E 0 81 38 40
        E 112 91 46 6e
        E 0 91 3a 6e
        E 0 91 41 6e
        E 80 81 46 40
        E 0 81 3a 40
        E 0 81 41 40
        E 112 91 45 6e
        E 0 91 3f 6e
        E 0 91 3c 6e
        E 80 81 45 40
        E 0 81 3f 40
        E 0 81 3c 40
        E 112 91 46 6e
        E 0 91 41 6e
        E 0 91 3e 6e
        E 80 81 46 40
        E 0 81 41 40
        E 0 81 3e 40
        E 112 91 46 6e
        E 0 91 41 6e
        E 0 91 3e 6e
        E 80 81 46 40
        E 0 81 41 40
        E 0 81 3e 40
        E 112 91 46 6e
        E 0 91 41 6e
        E 0 91 3a 6e
        E 80 81 46 40
        E 0 81 41 40
        E 0 81 3a 40
        E 112 91 43 6e
        E 0 91 3a 6e
        E 0 91 3f 6e
        E 80 81 43 40
        E 0 81 3a 40
        E 0 81 3f 40
        E 112 91 44 6e
        E 0 91 3e 6e
        E 0 91 3a 6e
        E 80 81 44 40
        E 0 81 3e 40
        E 0 81 3a 40
        E 112 91 48 6e
        E 0 91 3f 6e
        E 0 91 45 6e
        E 80 81 48 40
        E 0 81 3f 40
        E 0 81 45 40
        E 16 91 46 6e
        E 0 91 3f 6e
        E 176 81 46 40
        E 0 81 3f 40
        E 16 91 41 6e
        E 80 81 41 40
        E 16 91 3f 6e
        E 80 81 3f 40
        E 16 91 3e 6e
        E 0 91 3a 6e
        E 368 81 3e 40
        E 0 81 3a 40
        E 16 91 48 6e
        E 0 91 44 6e
        E 0 91 3f 6e
        E 176 81 44 40
        E 0 81 3f 40
        E 16 91 44 6e
        E 0 91 41 6e
        E 16 81 41 40
        E 64 81 48 40
        E 16 91 4a 6e
        E 80 81 44 40
        E 0 81 4a 40
        E 16 91 4b 6e
        E 0 91 3f 6e
        E 0 91 46 6e
        E 176 81 4b 40
        E 0 81 3f 40
        E 0 81 46 40
        E 16 91 4d 6e
        E 0 91 48 6e
        E 0 91 41 6e
        E 176 81 4d 40
        E 0 81 48 40
        E 0 81 41 40
        E 16 91 41 6e
        E 0 91 46 6e
        E 0 91 4a 6e
        E 176 81 41 40
        E 0 81 4a 40
        E 16 91 4b 6e
        E 0 91 3f 6e
        E 176 81 46 40
        E 0 81 4b 40
        E 0 81 3f 40
        E 16 91 48 6e
        E 0 91 3f 6e
        E 176 81 48 40
        E 16 91 46 6e
        E 176 81 3f 40
        E 0 81 46 40
        E 16 91 41 6e
        E 0 91 46 6e
        E 80 81 46 40
        E 16 91 46 6e
        E 80 81 41 40
        E 16 91 41 6e
        E 80 81 46 40
        E 16 91 44 6e
        E 80 81 41 40
        E 0 81 44 40
        E 16 91 41 6e
        E 0 91 3c 6e
        E 176 81 41 40
        E 0 81 3c 40
        E 16 91 3e 6e
        E 0 91 38 6e
        E 80 81 3e 40
        E 16 91 41 6e
        E 80 81 38 40
        E 0 81 41 40
        E 16 91 3f 6e
        E 0 91 37 6e
        E 176 81 37 40
        E 16 91 38 6e
        E 176 81 38 40
        E 16 91 37 6e
        E 176 81 3f 40
        E 0 81 37 40
        E 16 91 3f 6e
        E 80 81 3f 40
        E 16 91 3e 6e
        E 80 81 3e 40
        E 16 91 37 6e
        E 0 91 3f 6e
        E 0 91 3a 6e
        E 176 81 37 40
        E 0 81 3f 40
        E 0 81 3a 40
        E 16 91 43 6e
        E 0 91 3c 6e
        E 0 91 3f 6e
        E 0 91 37 6e
        E 176 81 43 40
        E 0 81 3c 40
        E 0 81 3f 40
        E 0 81 37 40
        E 16 91 43 6e
        E 0 91 3a 6e
        E 0 91 3f 6e
        E 176 81 43 40
        E 0 81 3a 40
        E 0 81 3f 40
        E 16 91 3f 6e
        E 0 91 3a 6e
        E 0 91 46 6e
        E 80 81 3f 40
        E 0 81 3a 40
        E 0 81 46 40
        E 16 91 3f 6e
        E 0 91 48 6e
        E 0 91 3c 6e
        E 80 81 3f 40
        E 0 81 48 40
        E 0 81 3c 40
        E 16 91 41 6e
        E 0 91 46 6e
        E 0 91 3a 6e
        E 176 81 41 40
        E 16 91 3f 6e
        E 80 81 46 40
        E 0 81 3a 40
        E 16 91 4b 6e
        E 0 91 43 6e
        E 80 81 3f 40
        E 0 81 4b 40
        E 0 81 43 40
        E 16 91 3e 6e
        E 0 91 4a 6e
        E 0 91 43 6e
        E 176 81 3e 40
        E 16 91 3e 6e
        E 80 81 4a 40
        E 0 81 43 40
        E 16 91 48 6e
        E 0 91 41 6e
        E 80 81 3e 40
        E 0 81 48 40
        E 0 81 41 40
        E 16 91 46 6e
        E 0 91 3a 6e
        E 0 91 41 6e
        E 176 81 41 40
        E 16 91 3f 6e
        E 80 81 46 40
        E 0 81 3a 40
        E 0 81 3f 40
        E 16 91 41 6e
        E 0 91 44 6e
        E 0 91 3c 6e
        E 80 81 41 40
        E 0 81 44 40
        E 0 81 3c 40
        E 16 91 43 6e
        E 0 91 3f 6e
        E 0 91 3a 6e
        E 272 81 43 40
        E 0 81 3f 40
        E 0 81 3a 40
        E 16 91 43 6e
        E 0 91 3f 6e
        E 0 91 3a 6e
        E 80 81 43 40
        E 0 81 3f 40
        E 0 81 3a 40
        E 16 91 41 6e
        E 0 91 38 6e
        E 0 91 3c 6e
        E 176 81 41 40
        E 0 81 38 40
        E 0 81 3c 40
        E 16 91 3e 6e
        E 0 91 38 6e
        E 80 81 3e 40
        E 16 91 41 6e
        E 80 81 38 40
        E 0 81 41 40
        E 16 91 3f 6e
        E 0 91 37 6e
        E 0 91 3a 6e
        E 176 81 3f 40
        E 0 81 37 40
        E 0 81 3a 40
        E 16 91 3f 6e
        E 80 81 3f 40
        E 16 91 3e 6e
        E 80 81 3e 40
        E 16 91 3f 6e
        E 0 91 37 6e
        E 0 91 3a 6e
        E 176 81 3f 40
        E 0 81 37 40
        E 0 81 3a 40
        E 16 91 3c 6e
        E 0 91 43 6e
        E 0 91 3f 6e
        E 0 91 37 6e
        E 176 81 3c 40
        E 0 81 43 40
        E 0 81 3f 40
        E 0 81 37 40
        E 16 91 43 6e
        E 0 91 3f 6e
        E 0 91 3a 6e
        E 176 81 43 40
        E 0 81 3f 40
        E 0 81 3a 40
        E 16 91 3f 6e
        E 0 91 3a 6e
        E 0 91 46 6e
        E 80 81 3f 40
        E 0 81 3a 40
        E 0 81 46 40
        E 16 91 48 6e
        E 0 91 3f 6e
        E 0 91 3c 6e
        E 80 81 48 40
        E 0 81 3f 40
        E 0 81 3c 40
        E 16 91 41 6e
        E 0 91 46 6e
        E 0 91 3a 6e
        E 176 81 41 40
        E 16 91 3f 6e
        E 80 81 46 40
        E 0 81 3a 40
        E 16 91 4b 6e
        E 0 91 43 6e
        E 80 81 3f 40
        E 0 81 4b 40
        E 0 81 43 40
        E 16 91 4a 6e
        E 0 91 3e 6e
        E 0 91 43 6e
        E 176 81 3e 40
        E 16 91 3e 6e
        E 80 81 4a 40
        E 0 81 43 40
        E 16 91 48 6e
        E 0 91 41 6e
        E 80 81 3e 40
        E 0 81 48 40
        E 0 81 41 40
        E 16 91 46 6e
        E 0 91 41 6e
        E 0 91 3a 6e
        E 176 81 41 40
        E 16 91 3f 6e
        E 80 81 46 40
        E 0 81 3a 40
        E 0 81 3f 40
        E 16 91 41 6e
        E 0 91 44 6e
        E 0 91 3c 6e
        E 80 81 41 40
        E 0 81 44 40
        E 0 81 3c 40
        E 16 91 3f 6e
        E 0 91 43 6e
        E 0 91 3a 6e
        E 272 81 3f 40
        E 0 81 43 40
        E 0 81 3a 40
        E 16 91 3f 6e
        E 0 91 3a 6e
        E 0 91 43 6e
        E 80 81 3f 40
        E 0 81 3a 40
        E 0 81 43 40
        E 16 91 41 6e
        E 0 91 3c 6e
        E 0 91 38 6e
        E 176 81 41 40
        E 0 81 3c 40
        E 0 81 38 40
        E 16 91 3e 6e
        E 0 91 38 6e
        E 80 81 3e 40
        E 16 91 41 6e
        E 80 81 38 40
        E 0 81 41 40
        E 16 91 3f 6e
        E 0 91 37 6e
        E 0 91 3a 6e
        E 368 81 3f 40
        E 0 81 37 40
        E 0 81 3a 40
        E 16 91 4b 6e
        E 0 91 43 6e
        E 0 91 46 6e
        E 752 81 4b 40
        E 0 81 43 40
        E 0 81 46 40
        E 16 b0 7b 00
        GUID {880CF3B3-2430-D142-9D74-BF134772B570}
        IGNTEMPO 0 120 4 4
        SRCCOLOR 107
        VELLANE -1 86 6
        CFGEDITVIEW 12423.387435 440.886304 49 7 0 0 0 0 0 0.5
        KEYSNAP 0
        TRACKSEL 252 0 0 ""
        EVTFILTER 0 -1 -1 -1 -1 0 0 0 0 -1 -1 -1 -1 0 -1 0 -1 -1
        CFGEDIT 1 0 0 0 0 0 1 0 1 1 1 0.25 349 84 1280 633 0 0 2 3 0 0 0 0 0 0.5 0 0 1 64
      >
    >
    <ITEM
      POSITION 0
      SNAPOFFS 0
      LENGTH 66
      LOOP 1
      ALLTAKES 0
      FADEIN 1 0 0 1 0 0
      FADEOUT 1 0 0 1 0 0
      MUTE 0
      SEL 0
      YPOS 0.142857 0.142857
      IGUID {9D5A1885-EB54-444F-B7C2-87112FF394A7}
      IID 4
      NAME "LH                   - National_Anthems_-_Sri_Lanka.mid"
      VOLPAN 1 0 1 -1
      SOFFS 0 0
      PLAYRATE 1 1 0 -1 0 0.0025
      CHANMODE 0
      GUID {9D6E94C3-CB8D-2E43-A218-0C234EBEC14E}
      <SOURCE MIDI
        HASDATA 1 192 QN
        POOLEDEVTS {1193A81B-C79D-BB4C-BA6D-103ECB17B98C}
        <X 0 0
          /wNMSCAgICAgICAgICAgICAgICAgIA==
        >
        E 0 92 27 64
        E 0 92 2e 64
        E 176 82 27 40
        E 0 82 2e 40
        E 16 92 30 64
        E 0 92 24 64
        E 176 82 30 40
        E 0 82 24 40
        E 16 92 38 64
        E 0 92 2c 64
        E 176 82 38 40
        E 0 82 2c 40
        E 16 92 2e 64
        E 0 92 3a 64
        E 176 82 2e 40
        E 0 82 3a 40
        E 16 92 27 64
        E 0 92 2e 64
        E 0 92 33 64
        E 176 82 27 40
        E 0 82 2e 40
        E 0 82 33 40
        E 16 92 3a 64
        E 0 92 2e 64
        E 176 82 3a 40
        E 0 82 2e 40
        E 16 92 27 64
        E 0 92 33 64
        E 176 82 27 40
        E 0 82 33 40
        E 208 92 27 64
        E 0 92 33 64
        E 176 82 27 40
        E 0 82 33 40
        E 16 92 24 64
        E 0 92 30 64
        E 176 82 24 40
        E 0 82 30 40
        E 16 92 2c 64
        E 0 92 38 64
        E 176 82 2c 40
        E 0 82 38 40
        E 16 92 2e 64
        E 0 92 3a 64
        E 176 82 2e 40
        E 0 82 3a 40
        E 16 92 27 64
        E 0 92 2e 64
        E 176 82 27 40
        E 0 82 2e 40
        E 16 92 30 64
        E 176 82 30 40
        E 16 92 2e 64
        E 176 82 2e 40
        E 208 92 27 64
        E 0 92 33 64
        E 176 82 33 40
        E 16 92 24 64
        E 0 92 30 64
        E 176 82 24 40
        E 0 82 30 40
        E 2 82 27 40
        E 14 92 27 64
        E 0 92 33 64
        E 176 82 27 40
        E 0 82 33 40
        E 16 92 2b 64
        E 0 92 37 64
        E 80 82 2b 40
        E 0 82 37 40
        E 16 92 38 64
        E 0 92 2c 64
        E 80 82 38 40
        E 0 82 2c 40
        E 16 92 2b 64
        E 0 92 37 64
        E 272 82 2b 40
        E 0 82 37 40
        E 16 92 3c 64
        E 0 92 30 64
        E 80 82 3c 40
        E 0 82 30 40
        E 16 92 3a 64
        E 0 92 2e 64
        E 272 82 3a 40
        E 0 82 2e 40
        E 16 92 38 64
        E 0 92 2c 64
        E 80 82 38 40
        E 0 82 2c 40
        E 16 92 2b 64
        E 0 92 37 64
        E 272 82 2b 40
        E 0 82 37 40
        E 16 92 2c 64
        E 80 82 2c 40
        E 16 92 2e 64
        E 272 82 2e 40
        E 16 92 2e 64
        E 80 82 2e 40
        E 16 92 2e 64
        E 368 82 2e 40
        E 16 92 27 64
        E 0 92 2e 64
        E 176 82 27 40
        E 0 82 2e 40
        E 3280 92 33 64
        E 0 92 3c 64
        E 0 92 2c 64
        E 176 82 33 40
        E 0 82 3c 40
        E 0 82 2c 40
        E 16 92 37 64
        E 176 82 37 40
        E 16 92 38 64
        E 176 82 38 40
        E 16 92 35 64
        E 176 82 35 40
        E 16 92 37 64
        E 176 82 37 40
        E 16 92 33 64
        E 176 82 33 40
        E 16 92 30 64
        E 176 82 30 40
        E 16 92 32 64
        E 176 82 32 40
        E 16 92 35 64
        E 0 92 2e 64
        E 176 82 35 40
        E 16 92 37 64
        E 176 82 37 40
        E 16 92 38 64
        E 176 82 2e 40
        E 0 82 38 40
        E 16 92 2e 64
        E 0 92 3a 64
        E 176 82 2e 40
        E 0 82 3a 40
        E 16 92 27 64
        E 0 92 2e 64
        E 176 82 2e 40
        E 16 92 30 64
        E 176 82 30 40
        E 16 92 2e 64
        E 176 82 27 40
        E 0 82 2e 40
        E 208 92 33 64
        E 176 82 33 40
        E 16 92 32 64
        E 176 82 32 40
        E 16 92 33 64
        E 176 82 33 40
        E 16 92 30 64
        E 176 82 30 40
        E 16 92 32 64
        E 176 82 32 40
        E 16 92 35 64
        E 176 82 35 40
        E 16 92 35 64
        E 0 92 2e 64
        E 368 82 35 40
        E 0 82 2e 40
        E 16 92 32 64
        E 176 82 32 40
        E 16 92 33 64
        E 176 82 33 40
        E 16 92 35 64
        E 176 82 35 40
        E 16 92 36 64
        E 176 82 36 40
        E 16 92 37 64
        E 368 82 37 40
        E 16 92 35 64
        E 176 82 35 40
        E 16 92 2e 64
        E 176 82 2e 40
        E 16 92 2c 64
        E 0 92 38 64
        E 176 82 2c 40
        E 0 82 38 40
        E 16 92 35 64
        E 0 92 29 64
        E 176 82 35 40
        E 0 82 29 40
        E 16 92 37 64
        E 0 92 2b 64
        E 176 82 37 40
        E 0 82 2b 40
        E 16 92 38 64
        E 0 92 2c 64
        E 176 82 38 40
        E 0 82 2c 40
        E 16 92 3a 64
        E 0 92 2e 64
        E 176 82 3a 40
        E 0 82 2e 40
        E 16 92 37 64
        E 80 82 37 40
        E 16 92 37 64
        E 80 82 37 40
        E 16 92 38 64
        E 176 82 38 40
        E 16 92 37 64
        E 176 82 37 40
        E 16 92 3c 64
        E 176 82 3c 40
        E 16 92 35 64
        E 176 82 35 40
        E 16 92 38 64
        E 176 82 38 40
        E 16 92 2e 64
        E 176 82 2e 40
        E 16 92 2e 64
        E 0 92 27 64
        E 176 82 2e 40
        E 16 92 30 64
        E 176 82 30 40
        E 16 92 2e 64
        E 176 82 27 40
        E 0 82 2e 40
        E 208 92 27 64
        E 0 92 33 64
        E 176 82 27 40
        E 0 82 33 40
        E 16 92 24 64
        E 0 92 30 64
        E 176 82 24 40
        E 0 82 30 40
        E 16 92 33 64
        E 0 92 27 64
        E 176 82 33 40
        E 0 82 27 40
        E 16 92 2b 64
        E 0 92 37 64
        E 80 82 2b 40
        E 0 82 37 40
        E 16 92 38 64
        E 0 92 2c 64
        E 80 82 38 40
        E 0 82 2c 40
        E 16 92 2b 64
        E 0 92 37 64
        E 272 82 2b 40
        E 0 82 37 40
        E 16 92 3c 64
        E 0 92 30 64
        E 80 82 3c 40
        E 0 82 30 40
        E 16 92 3a 64
        E 0 92 2e 64
        E 272 82 3a 40
        E 0 82 2e 40
        E 16 92 38 64
        E 0 92 2c 64
        E 80 82 38 40
        E 0 82 2c 40
        E 16 92 37 64
        E 0 92 2b 64
        E 272 82 37 40
        E 0 82 2b 40
        E 16 92 2c 64
        E 80 82 2c 40
        E 16 92 2e 64
        E 272 82 2e 40
        E 16 92 2e 64
        E 80 82 2e 40
        E 16 92 2e 64
        E 368 82 2e 40
        E 16 92 27 64
        E 0 92 2e 64
        E 176 82 27 40
        E 0 82 2e 40
        E 208 92 33 64
        E 0 92 27 64
        E 176 82 33 40
        E 0 82 27 40
        E 16 92 30 64
        E 0 92 24 64
        E 176 82 30 40
        E 0 82 24 40
        E 16 92 33 64
        E 0 92 27 64
        E 176 82 33 40
        E 0 82 27 40
        E 16 92 37 64
        E 0 92 2b 64
        E 80 82 37 40
        E 0 82 2b 40
        E 16 92 38 64
        E 0 92 2c 64
        E 80 82 38 40
        E 0 82 2c 40
        E 16 92 2b 64
        E 0 92 37 64
        E 272 82 2b 40
        E 0 82 37 40
        E 16 92 3c 64
        E 0 92 30 64
        E 80 82 3c 40
        E 0 82 30 40
        E 16 92 3a 64
        E 0 92 2e 64
        E 272 82 3a 40
        E 0 82 2e 40
        E 16 92 2c 64
        E 0 92 38 64
        E 80 82 2c 40
        E 0 82 38 40
        E 16 92 2b 64
        E 0 92 37 64
        E 272 82 2b 40
        E 0 82 37 40
        E 16 92 2c 64
        E 80 82 2c 40
        E 16 92 2e 64
        E 272 82 2e 40
        E 16 92 2e 64
        E 80 82 2e 40
        E 16 92 2e 64
        E 368 82 2e 40
        E 16 92 2e 64
        E 0 92 27 64
        E 368 82 2e 40
        E 0 82 27 40
        E 16 92 3f 64
        E 0 92 3a 64
        E 0 92 33 64
        E 752 82 3f 40
        E 0 82 3a 40
        E 0 82 33 40
        E 16 b0 7b 00
        GUID {79673094-F102-DD4C-BD5B-B5CAB56D734E}
        IGNTEMPO 0 120 4 4
        SRCCOLOR 108
        VELLANE -1 86 6
        CFGEDITVIEW 11488.168557 84.341164 63 10 0 0 0 0 0 0.5
        KEYSNAP 0
        TRACKSEL 252 0 0 ""
        EVTFILTER 0 -1 -1 -1 -1 0 0 0 0 -1 -1 -1 -1 0 -1 0 -1 -1
        CFGEDIT 1 0 0 0 0 0 1 0 1 1 1 0.25 349 84 1280 633 0 0 2 3 0 0 0 0 0 0.5 0 0 1 64
      >
    >
    <ITEM
      POSITION 0
      SNAPOFFS 0
      LENGTH 66
      LOOP 1
      ALLTAKES 0
      FADEIN 1 0 0 1 0 0
      FADEOUT 1 0 0 1 0 0
      MUTE 0
      SEL 0
      YPOS 0.571429 0.142857
      IGUID {5D02C3BF-FE64-AC4D-8D33-256CED3DC427}
      IID 7
      NAME "New Track            - National_Anthems_-_Sri_Lanka.mid"
      VOLPAN 1 0 1 -1
      SOFFS 0 0
      PLAYRATE 1 1 0 -1 0 0.0025
      CHANMODE 0
      GUID {49708B4D-8F00-5A43-8418-4C2D7A7E1803}
      <SOURCE MIDI
        HASDATA 1 192 QN
        POOLEDEVTS {B4DBA1FB-2646-5D41-9B59-AB8999698D87}
        <X 0 0
          /wNOZXcgVHJhY2sgICAgICAgICAgIA==
        >
        E 0 9d 27 6e
        E 0 9d 2e 6e
        E 176 8d 27 40
        E 0 8d 2e 40
        E 16 9d 30 6e
        E 0 9d 24 6e
        E 176 8d 30 40
        E 0 8d 24 40
        E 16 9d 38 6e
        E 0 9d 2c 6e
        E 176 8d 38 40
        E 0 8d 2c 40
        E 16 9d 2e 6e
        E 0 9d 3a 6e
        E 176 8d 2e 40
        E 0 8d 3a 40
        E 16 9d 27 6e
        E 0 9d 2e 6e
        E 0 9d 33 6e
        E 176 8d 27 40
        E 0 8d 2e 40
        E 0 8d 33 40
        E 16 9d 3a 6e
        E 0 9d 2e 6e
        E 176 8d 3a 40
        E 0 8d 2e 40
        E 16 9d 27 6e
        E 0 9d 33 6e
        E 176 8d 27 40
        E 0 8d 33 40
        E 208 9d 27 6e
        E 0 9d 33 6e
        E 176 8d 27 40
        E 0 8d 33 40
        E 16 9d 24 6e
        E 0 9d 30 6e
        E 176 8d 24 40
        E 0 8d 30 40
        E 16 9d 2c 6e
        E 0 9d 38 6e
        E 176 8d 2c 40
        E 0 8d 38 40
        E 16 9d 2e 6e
        E 0 9d 3a 6e
        E 176 8d 2e 40
        E 0 8d 3a 40
        E 16 9d 27 6e
        E 0 9d 2e 6e
        E 176 8d 27 40
        E 0 8d 2e 40
        E 16 9d 30 6e
        E 176 8d 30 40
        E 16 9d 2e 6e
        E 176 8d 2e 40
        E 208 9d 27 6e
        E 0 9d 33 6e
        E 176 8d 33 40
        E 16 9d 24 6e
        E 0 9d 30 6e
        E 176 8d 24 40
        E 0 8d 30 40
        E 2 8d 27 40
        E 14 9d 27 6e
        E 0 9d 33 6e
        E 176 8d 27 40
        E 0 8d 33 40
        E 16 9d 2b 6e
        E 0 9d 37 6e
        E 80 8d 2b 40
        E 0 8d 37 40
        E 16 9d 38 6e
        E 0 9d 2c 6e
        E 80 8d 38 40
        E 0 8d 2c 40
        E 16 9d 2b 6e
        E 0 9d 37 6e
        E 272 8d 2b 40
        E 0 8d 37 40
        E 16 9d 3c 6e
        E 0 9d 30 6e
        E 80 8d 3c 40
        E 0 8d 30 40
        E 16 9d 3a 6e
        E 0 9d 2e 6e
        E 272 8d 3a 40
        E 0 8d 2e 40
        E 16 9d 38 6e
        E 0 9d 2c 6e
        E 80 8d 38 40
        E 0 8d 2c 40
        E 16 9d 2b 6e
        E 0 9d 37 6e
        E 272 8d 2b 40
        E 0 8d 37 40
        E 16 9d 2c 6e
        E 80 8d 2c 40
        E 16 9d 2e 6e
        E 272 8d 2e 40
        E 16 9d 2e 6e
        E 80 8d 2e 40
        E 16 9d 2e 6e
        E 368 8d 2e 40
        E 16 9d 27 6e
        E 0 9d 2e 6e
        E 176 8d 27 40
        E 0 8d 2e 40
        E 3280 9d 33 6e
        E 0 9d 3c 6e
        E 0 9d 2c 6e
        E 176 8d 33 40
        E 0 8d 3c 40
        E 0 8d 2c 40
        E 16 9d 37 6e
        E 176 8d 37 40
        E 16 9d 38 6e
        E 176 8d 38 40
        E 16 9d 35 6e
        E 176 8d 35 40
        E 16 9d 37 6e
        E 176 8d 37 40
        E 16 9d 33 6e
        E 176 8d 33 40
        E 16 9d 30 6e
        E 176 8d 30 40
        E 16 9d 32 6e
        E 176 8d 32 40
        E 16 9d 35 6e
        E 0 9d 2e 6e
        E 176 8d 35 40
        E 16 9d 37 6e
        E 176 8d 37 40
        E 16 9d 38 6e
        E 176 8d 2e 40
        E 0 8d 38 40
        E 16 9d 2e 6e
        E 0 9d 3a 6e
        E 176 8d 2e 40
        E 0 8d 3a 40
        E 16 9d 27 6e
        E 0 9d 2e 6e
        E 176 8d 2e 40
        E 16 9d 30 6e
        E 176 8d 30 40
        E 16 9d 2e 6e
        E 176 8d 27 40
        E 0 8d 2e 40
        E 208 9d 33 6e
        E 176 8d 33 40
        E 16 9d 32 6e
        E 176 8d 32 40
        E 16 9d 33 6e
        E 176 8d 33 40
        E 16 9d 30 6e
        E 176 8d 30 40
        E 16 9d 32 6e
        E 176 8d 32 40
        E 16 9d 35 6e
        E 176 8d 35 40
        E 16 9d 35 6e
        E 0 9d 2e 6e
        E 368 8d 35 40
        E 0 8d 2e 40
        E 16 9d 32 6e
        E 176 8d 32 40
        E 16 9d 33 6e
        E 176 8d 33 40
        E 16 9d 35 6e
        E 176 8d 35 40
        E 16 9d 36 6e
        E 176 8d 36 40
        E 16 9d 37 6e
        E 368 8d 37 40
        E 16 9d 35 6e
        E 176 8d 35 40
        E 16 9d 2e 6e
        E 176 8d 2e 40
        E 16 9d 2c 6e
        E 0 9d 38 6e
        E 176 8d 2c 40
        E 0 8d 38 40
        E 16 9d 35 6e
        E 0 9d 29 6e
        E 176 8d 35 40
        E 0 8d 29 40
        E 16 9d 37 6e
        E 0 9d 2b 6e
        E 176 8d 37 40
        E 0 8d 2b 40
        E 16 9d 38 6e
        E 0 9d 2c 6e
        E 176 8d 38 40
        E 0 8d 2c 40
        E 16 9d 3a 6e
        E 0 9d 2e 6e
        E 176 8d 3a 40
        E 0 8d 2e 40
        E 16 9d 37 6e
        E 80 8d 37 40
        E 16 9d 37 6e
        E 80 8d 37 40
        E 16 9d 38 6e
        E 176 8d 38 40
        E 16 9d 37 6e
        E 176 8d 37 40
        E 16 9d 3c 6e
        E 176 8d 3c 40
        E 16 9d 35 6e
        E 176 8d 35 40
        E 16 9d 38 6e
        E 176 8d 38 40
        E 16 9d 2e 6e
        E 176 8d 2e 40
        E 16 9d 2e 6e
        E 0 9d 27 6e
        E 176 8d 2e 40
        E 16 9d 30 6e
        E 176 8d 30 40
        E 16 9d 2e 6e
        E 176 8d 27 40
        E 0 8d 2e 40
        E 208 9d 27 6e
        E 0 9d 33 6e
        E 176 8d 27 40
        E 0 8d 33 40
        E 16 9d 24 6e
        E 0 9d 30 6e
        E 176 8d 24 40
        E 0 8d 30 40
        E 16 9d 33 6e
        E 0 9d 27 6e
        E 176 8d 33 40
        E 0 8d 27 40
        E 16 9d 2b 6e
        E 0 9d 37 6e
        E 80 8d 2b 40
        E 0 8d 37 40
        E 16 9d 38 6e
        E 0 9d 2c 6e
        E 80 8d 38 40
        E 0 8d 2c 40
        E 16 9d 2b 6e
        E 0 9d 37 6e
        E 272 8d 2b 40
        E 0 8d 37 40
        E 16 9d 3c 6e
        E 0 9d 30 6e
        E 80 8d 3c 40
        E 0 8d 30 40
        E 16 9d 3a 6e
        E 0 9d 2e 6e
        E 272 8d 3a 40
        E 0 8d 2e 40
        E 16 9d 38 6e
        E 0 9d 2c 6e
        E 80 8d 38 40
        E 0 8d 2c 40
        E 16 9d 37 6e
        E 0 9d 2b 6e
        E 272 8d 37 40
        E 0 8d 2b 40
        E 16 9d 2c 6e
        E 80 8d 2c 40
        E 16 9d 2e 6e
        E 272 8d 2e 40
        E 16 9d 2e 6e
        E 80 8d 2e 40
        E 16 9d 2e 6e
        E 368 8d 2e 40
        E 16 9d 27 6e
        E 0 9d 2e 6e
        E 176 8d 27 40
        E 0 8d 2e 40
        E 208 9d 33 6e
        E 0 9d 27 6e
        E 176 8d 33 40
        E 0 8d 27 40
        E 16 9d 30 6e
        E 0 9d 24 6e
        E 176 8d 30 40
        E 0 8d 24 40
        E 16 9d 33 6e
        E 0 9d 27 6e
        E 176 8d 33 40
        E 0 8d 27 40
        E 16 9d 37 6e
        E 0 9d 2b 6e
        E 80 8d 37 40
        E 0 8d 2b 40
        E 16 9d 38 6e
        E 0 9d 2c 6e
        E 80 8d 38 40
        E 0 8d 2c 40
        E 16 9d 2b 6e
        E 0 9d 37 6e
        E 272 8d 2b 40
        E 0 8d 37 40
        E 16 9d 3c 6e
        E 0 9d 30 6e
        E 80 8d 3c 40
        E 0 8d 30 40
        E 16 9d 3a 6e
        E 0 9d 2e 6e
        E 272 8d 3a 40
        E 0 8d 2e 40
        E 16 9d 2c 6e
        E 0 9d 38 6e
        E 80 8d 2c 40
        E 0 8d 38 40
        E 16 9d 2b 6e
        E 0 9d 37 6e
        E 272 8d 2b 40
        E 0 8d 37 40
        E 16 9d 2c 6e
        E 80 8d 2c 40
        E 16 9d 2e 6e
        E 272 8d 2e 40
        E 16 9d 2e 6e
        E 80 8d 2e 40
        E 16 9d 2e 6e
        E 368 8d 2e 40
        E 16 9d 2e 6e
        E 0 9d 27 6e
        E 368 8d 2e 40
        E 0 8d 27 40
        E 16 9d 3f 6e
        E 0 9d 3a 6e
        E 0 9d 33 6e
        E 752 8d 3f 40
        E 0 8d 3a 40
        E 0 8d 33 40
        E 16 b0 7b 00
        GUID {A8F938FA-E052-6F45-8A7D-BBB961DC20C4}
        IGNTEMPO 0 120 4 4
        SRCCOLOR 111
        VELLANE -1 86 6
      >
    >
    <ITEM
      POSITION 0
      SNAPOFFS 0
      LENGTH 66
      LOOP 1
      ALLTAKES 0
      FADEIN 1 0 0 1 0 0
      FADEOUT 1 0 0 1 0 0
      MUTE 0
      SEL 0
      YPOS 0.285714 0.142857
      IGUID {11D68443-9F5B-A944-9906-F9B45C0A84AE}
      IID 5
      NAME "Bass                 - National_Anthems_-_Sri_Lanka.mid"
      VOLPAN 1 0 1 -1
      SOFFS 0 0
      PLAYRATE 1 1 0 -1 0 0.0025
      CHANMODE 0
      GUID {C6E36776-74F1-A748-864D-CB371F27CE74}
      <SOURCE MIDI
        HASDATA 1 192 QN
        POOLEDEVTS {C5005C6F-1324-6545-84EF-BB9A29E094DA}
        <X 0 0
          /wNCYXNzICAgICAgICAgICAgICAgIA==
        >
        E 0 93 27 7f
        E 176 83 27 40
        E 16 93 24 7f
        E 176 83 24 40
        E 16 93 2c 7f
        E 176 83 2c 40
        E 16 93 2e 7f
        E 176 83 2e 40
        E 16 93 27 7f
        E 176 83 27 40
        E 16 93 2e 7f
        E 176 83 2e 40
        E 16 93 27 7f
        E 176 83 27 40
        E 208 93 27 7f
        E 176 83 27 40
        E 16 93 24 7f
        E 176 83 24 40
        E 16 93 2c 7f
        E 176 83 2c 40
        E 16 93 2e 7f
        E 176 83 2e 40
        E 16 93 27 7f
        E 560 83 27 40
        E 208 93 27 7f
        E 176 83 27 40
        E 16 93 24 7f
        E 176 83 24 40
        E 16 93 27 7f
        E 176 83 27 40
        E 16 93 2b 7f
        E 80 83 2b 40
        E 16 93 2c 7f
        E 80 83 2c 40
        E 16 93 2b 7f
        E 272 83 2b 40
        E 16 93 30 7f
        E 80 83 30 40
        E 16 93 2e 7f
        E 272 83 2e 40
        E 16 93 2c 7f
        E 80 83 2c 40
        E 16 93 2b 7f
        E 272 83 2b 40
        E 16 93 2c 7f
        E 80 83 2c 40
        E 16 93 2e 7f
        E 272 83 2e 40
        E 16 93 2e 7f
        E 80 83 2e 40
        E 16 93 2e 7f
        E 368 83 2e 40
        E 16 93 27 7f
        E 176 83 27 40
        E 3280 93 2c 7f
        E 176 83 2c 40
        E 16 93 2b 7f
        E 176 83 2b 40
        E 16 93 2c 7f
        E 176 83 2c 40
        E 16 93 29 7f
        E 176 83 29 40
        E 16 93 2b 7f
        E 176 83 2b 40
        E 16 93 27 7f
        E 176 83 27 40
        E 16 93 24 7f
        E 176 83 24 40
        E 16 93 26 7f
        E 176 83 26 40
        E 16 93 2e 7f
        E 560 83 2e 40
        E 16 93 2e 7f
        E 176 83 2e 40
        E 16 93 27 7f
        E 560 83 27 40
        E 208 93 27 7f
        E 176 83 27 40
        E 16 93 26 7f
        E 176 83 26 40
        E 16 93 27 7f
        E 176 83 27 40
        E 16 93 24 7f
        E 176 83 24 40
        E 16 93 26 7f
        E 176 83 26 40
        E 16 93 29 7f
        E 176 83 29 40
        E 16 93 2e 7f
        E 368 83 2e 40
        E 16 93 26 7f
        E 176 83 26 40
        E 16 93 27 7f
        E 176 83 27 40
        E 16 93 29 7f
        E 176 83 29 40
        E 16 93 2a 7f
        E 176 83 2a 40
        E 16 93 2b 7f
        E 368 83 2b 40
        E 16 93 29 7f
        E 176 83 29 40
        E 16 93 2e 7f
        E 176 83 2e 40
        E 16 93 2c 7f
        E 176 83 2c 40
        E 16 93 29 7f
        E 176 83 29 40
        E 16 93 2b 7f
        E 176 83 2b 40
        E 16 93 2c 7f
        E 176 83 2c 40
        E 16 93 2e 7f
        E 176 83 2e 40
        E 16 93 2b 7f
        E 80 83 2b 40
        E 16 93 2b 7f
        E 80 83 2b 40
        E 16 93 2c 7f
        E 176 83 2c 40
        E 16 93 2b 7f
        E 176 83 2b 40
        E 16 93 24 7f
        E 176 83 24 40
        E 16 93 29 7f
        E 176 83 29 40
        E 16 93 2c 7f
        E 176 83 2c 40
        E 16 93 2e 7f
        E 176 83 2e 40
        E 16 93 27 7f
        E 560 83 27 40
        E 208 93 27 7f
        E 176 83 27 40
        E 16 93 24 7f
        E 176 83 24 40
        E 16 93 27 7f
        E 176 83 27 40
        E 16 93 2b 7f
        E 80 83 2b 40
        E 16 93 2c 7f
        E 80 83 2c 40
        E 16 93 2b 7f
        E 272 83 2b 40
        E 16 93 30 7f
        E 80 83 30 40
        E 16 93 2e 7f
        E 272 83 2e 40
        E 16 93 2c 7f
        E 80 83 2c 40
        E 16 93 2b 7f
        E 272 83 2b 40
        E 16 93 2c 7f
        E 80 83 2c 40
        E 16 93 2e 7f
        E 272 83 2e 40
        E 16 93 2e 7f
        E 80 83 2e 40
        E 16 93 2e 7f
        E 368 83 2e 40
        E 16 93 27 7f
        E 176 83 27 40
        E 208 93 27 7f
        E 176 83 27 40
        E 16 93 24 7f
        E 176 83 24 40
        E 16 93 27 7f
        E 176 83 27 40
        E 16 93 2b 7f
        E 80 83 2b 40
        E 16 93 2c 7f
        E 80 83 2c 40
        E 16 93 2b 7f
        E 272 83 2b 40
        E 16 93 30 7f
        E 80 83 30 40
        E 16 93 2e 7f
        E 272 83 2e 40
        E 16 93 2c 7f
        E 80 83 2c 40
        E 16 93 2b 7f
        E 272 83 2b 40
        E 16 93 2c 7f
        E 80 83 2c 40
        E 16 93 2e 7f
        E 272 83 2e 40
        E 16 93 2e 7f
        E 80 83 2e 40
        E 16 93 2e 7f
        E 368 83 2e 40
        E 16 93 27 7f
        E 368 83 27 40
        E 16 93 27 7f
        E 752 83 27 40
        E 16 b0 7b 00
        GUID {402815A5-F97C-A644-A148-F5E581650265}
        IGNTEMPO 0 120 4 4
        SRCCOLOR 109
        VELLANE -1 86 6
        CFGEDITVIEW 10748.429055 53.034757 78 20 0 0 0 0 0 0.5
        KEYSNAP 0
        TRACKSEL 252 0 0 ""
        EVTFILTER 0 -1 -1 -1 -1 0 0 0 0 -1 -1 -1 -1 0 -1 0 -1 -1
        CFGEDIT 1 0 0 0 0 0 1 0 1 1 1 0.25 333 68 1280 633 0 0 2 3 0 0 0 0 0 0.5 0 0 1 64
      >
    >
    <ITEM
      POSITION 0
      SNAPOFFS 0
      LENGTH 66
      LOOP 1
      ALLTAKES 0
      FADEIN 1 0 0 1 0 0
      FADEOUT 1 0 0 1 0 0
      MUTE 0
      SEL 0
      YPOS 0.428571 0.142857
      IGUID {0AEA848C-8F35-B04A-91D1-E30C1B1D9776}
      IID 6
      NAME "New Track            - National_Anthems_-_Sri_Lanka.mid"
      VOLPAN 1 0 1 -1
      SOFFS 0 0
      PLAYRATE 1 1 0 -1 0 0.0025
      CHANMODE 0
      GUID {E02A90F4-CE57-4A4A-B876-F4907D6982F8}
      <SOURCE MIDI
        HASDATA 1 192 QN
        POOLEDEVTS {79782B66-9276-1648-8615-EE4D154C68CC}
        <X 0 0
          /wNOZXcgVHJhY2sgICAgICAgICAgIA==
        >
        E 0 9c 3a 6e
        E 0 9c 3f 6e
        E 0 9c 37 6e
        E 0 9c 43 6e
        E 80 8c 3a 40
        E 0 8c 3f 40
        E 0 8c 37 40
        E 0 8c 43 40
        E 16 9c 43 6e
        E 80 8c 43 40
        E 16 9c 43 6e
        E 0 9c 37 6e
        E 0 9c 3f 6e
        E 80 8c 43 40
        E 0 8c 37 40
        E 0 8c 3f 40
        E 16 9c 43 6e
        E 80 8c 43 40
        E 16 9c 3c 6e
        E 0 9c 41 6e
        E 0 9c 38 6e
        E 176 8c 3c 40
        E 0 8c 41 40
        E 0 8c 38 40
        E 16 9c 3e 6e
        E 0 9c 38 6e
        E 16 8c 38 40
        E 64 8c 3e 40
        E 16 9c 41 6e
        E 80 8c 41 40
        E 16 9c 3f 6e
        E 0 9c 37 6e
        E 0 9c 3a 6e
        E 560 8c 3f 40
        E 0 8c 37 40
        E 0 8c 3a 40
        E 208 9c 3f 6e
        E 0 9c 37 6e
        E 0 9c 3a 6e
        E 0 9c 43 7f
        E 176 8c 3f 40
        E 0 8c 37 40
        E 0 8c 3a 40
        E 0 8c 43 40
        E 16 9c 3c 6e
        E 0 9c 3f 6e
        E 0 9c 37 6e
        E 0 9c 43 7f
        E 176 8c 3c 40
        E 0 8c 3f 40
        E 0 8c 37 40
        E 0 8c 43 40
        E 16 9c 3c 6e
        E 0 9c 38 6e
        E 0 9c 41 7f
        E 176 8c 3c 40
        E 0 8c 38 40
        E 0 8c 41 40
        E 16 9c 38 6e
        E 0 9c 3e 7f
        E 80 8c 3e 40
        E 16 9c 41 7f
        E 80 8c 38 40
        E 0 8c 41 40
        E 16 9c 37 6e
        E 0 9c 3f 7f
        E 176 8c 37 40
        E 16 9c 38 6e
        E 176 8c 38 40
        E 16 9c 37 6e
        E 176 8c 3f 40
        E 0 8c 37 40
        E 16 9c 3f 7f
        E 80 8c 3f 40
        E 16 9c 3e 7f
        E 80 8c 3e 40
        E 16 9c 37 6e
        E 0 9c 3a 6e
        E 0 9c 3f 7f
        E 80 8c 3f 40
        E 16 9c 41 7f
        E 80 8c 37 40
        E 0 8c 3a 40
        E 0 8c 41 40
        E 16 9c 3c 6e
        E 0 9c 3f 6e
        E 0 9c 37 6e
        E 0 9c 43 7f
        E 80 8c 43 40
        E 16 9c 41 7f
        E 80 8c 3c 40
        E 0 8c 3f 40
        E 0 8c 37 40
        E 0 8c 41 40
        E 16 9c 3f 6e
        E 0 9c 3a 6e
        E 0 9c 43 7f
        E 80 8c 43 40
        E 16 9c 44 7f
        E 80 8c 3f 40
        E 0 8c 3a 40
        E 0 8c 44 40
        E 16 9c 3f 6e
        E 0 9c 3a 6e
        E 0 9c 46 7f
        E 80 8c 3f 40
        E 0 8c 3a 40
        E 0 8c 46 40
        E 16 9c 3f 6e
        E 0 9c 3c 6e
        E 0 9c 48 7f
        E 80 8c 3f 40
        E 0 8c 3c 40
        E 0 8c 48 40
        E 16 9c 41 6e
        E 0 9c 3a 6e
        E 0 9c 46 7f
        E 176 8c 41 40
        E 16 9c 3f 6e
        E 80 8c 3a 40
        E 0 8c 46 40
        E 16 9c 43 6e
        E 0 9c 4b 7f
        E 80 8c 3f 40
        E 0 8c 43 40
        E 0 8c 4b 40
        E 16 9c 43 6e
        E 0 9c 3e 6e
        E 0 9c 4a 7f
        E 176 8c 3e 40
        E 16 9c 3e 6e
        E 80 8c 43 40
        E 0 8c 4a 40
        E 16 9c 41 6e
        E 0 9c 48 7f
        E 80 8c 3e 40
        E 0 8c 41 40
        E 0 8c 48 40
        E 16 9c 41 6e
        E 0 9c 3a 6e
        E 0 9c 46 7f
        E 176 8c 41 40
        E 16 9c 3f 6e
        E 80 8c 3a 40
        E 0 8c 46 40
        E 0 8c 3f 40
        E 16 9c 41 6e
        E 0 9c 3c 6e
        E 0 9c 44 7f
        E 80 8c 41 40
        E 0 8c 3c 40
        E 0 8c 44 40
        E 16 9c 3a 6e
        E 0 9c 3f 6e
        E 0 9c 43 7f
        E 272 8c 3a 40
        E 0 8c 3f 40
        E 0 8c 43 40
        E 16 9c 3f 6e
        E 0 9c 3a 6e
        E 0 9c 43 7f
        E 80 8c 3f 40
        E 0 8c 3a 40
        E 0 8c 43 40
        E 16 9c 3c 6e
        E 0 9c 38 6e
        E 0 9c 41 7f
        E 176 8c 3c 40
        E 0 8c 38 40
        E 0 8c 41 40
        E 16 9c 38 6e
        E 0 9c 3e 7f
        E 80 8c 3e 40
        E 16 9c 41 7f
        E 80 8c 38 40
        E 0 8c 41 40
        E 16 9c 37 6e
        E 0 9c 3a 6e
        E 0 9c 3f 7f
        E 176 8c 37 40
        E 0 8c 3a 40
        E 0 8c 3f 40
        E 208 9c 27 6e
        E 0 9c 3a 7f
        E 80 8c 27 40
        E 0 8c 3a 40
        E 16 9c 2e 6e
        E 0 9c 3f 7f
        E 80 8c 2e 40
        E 0 8c 3f 40
        E 16 9c 37 6e
        E 0 9c 3f 7f
        E 80 8c 37 40
        E 0 8c 3f 40
        E 16 9c 3a 6e
        E 0 9c 3f 7f
        E 80 8c 3a 40
        E 0 8c 3f 40
        E 16 9c 46 6e
        E 0 9c 3f 7f
        E 80 8c 46 40
        E 0 8c 3f 40
        E 16 9c 3a 6e
        E 0 9c 3f 7f
        E 80 8c 3a 40
        E 0 8c 3f 40
        E 16 9c 37 6e
        E 0 9c 3e 7f
        E 80 8c 37 40
        E 0 8c 3e 40
        E 16 9c 2e 6e
        E 0 9c 3f 7f
        E 80 8c 2e 40
        E 0 8c 3f 40
        E 16 9c 2e 6e
        E 0 9c 41 7f
        E 80 8c 2e 40
        E 16 9c 35 6e
        E 80 8c 35 40
        E 16 9c 3a 6e
        E 80 8c 41 40
        E 0 8c 3a 40
        E 16 9c 3e 6e
        E 0 9c 41 7f
        E 80 8c 3e 40
        E 0 8c 41 40
        E 16 9c 44 6e
        E 0 9c 41 7f
        E 80 8c 44 40
        E 0 8c 41 40
        E 16 9c 3e 6e
        E 0 9c 43 7f
        E 80 8c 3e 40
        E 0 8c 43 40
        E 16 9c 3a 6e
        E 0 9c 41 7f
        E 80 8c 3a 40
        E 0 8c 41 40
        E 16 9c 35 6e
        E 0 9c 43 7f
        E 80 8c 35 40
        E 0 8c 43 40
        E 16 9c 2e 6e
        E 0 9c 44 7f
        E 80 8c 2e 40
        E 0 8c 44 40
        E 16 9c 35 6e
        E 0 9c 46 7f
        E 80 8c 35 40
        E 0 8c 46 40
        E 16 9c 3a 6e
        E 0 9c 46 7f
        E 80 8c 3a 40
        E 0 8c 46 40
        E 16 9c 3e 6e
        E 0 9c 46 7f
        E 80 8c 3e 40
        E 0 8c 46 40
        E 16 9c 41 6e
        E 0 9c 44 6e
        E 0 9c 46 7f
        E 80 8c 41 40
        E 0 8c 44 40
        E 0 8c 46 40
        E 16 9c 3e 6e
        E 0 9c 46 7f
        E 80 8c 3e 40
        E 0 8c 46 40
        E 16 9c 3a 6e
        E 0 9c 45 7f
        E 80 8c 3a 40
        E 0 8c 45 40
        E 16 9c 35 6e
        E 0 9c 48 7f
        E 80 8c 35 40
        E 0 8c 48 40
        E 16 9c 27 6e
        E 0 9c 46 7f
        E 80 8c 27 40
        E 16 9c 2e 6e
        E 80 8c 2e 40
        E 16 9c 37 6e
        E 80 8c 37 40
        E 16 9c 3a 6e
        E 80 8c 3a 40
        E 16 9c 3f 6e
        E 80 8c 3f 40
        E 16 9c 3a 6e
        E 80 8c 3a 40
        E 16 9c 37 6e
        E 80 8c 46 40
        E 0 8c 37 40
        E 16 9c 2e 6e
        E 80 8c 2e 40
        E 16 9c 48 7f
        E 80 8c 48 40
        E 16 9c 3f 6e
        E 0 9c 44 6e
        E 0 9c 4b 7f
        E 80 8c 3f 40
        E 0 8c 44 40
        E 0 8c 4b 40
        E 16 9c 4b 7f
        E 80 8c 4b 40
        E 16 9c 4b 6e
        E 0 9c 3f 6e
        E 0 9c 46 7f
        E 80 8c 4b 40
        E 0 8c 3f 40
        E 0 8c 46 40
        E 16 9c 48 7f
        E 80 8c 48 40
        E 16 9c 3f 6e
        E 0 9c 44 6e
        E 0 9c 48 7f
        E 80 8c 3f 40
        E 0 8c 44 40
        E 0 8c 48 40
        E 16 9c 44 7f
        E 80 8c 44 40
        E 16 9c 41 6e
        E 0 9c 3c 6e
        E 0 9c 44 7f
        E 80 8c 41 40
        E 0 8c 3c 40
        E 0 8c 44 40
        E 16 9c 46 7f
        E 96 9c 3a 6e
        E 0 9c 3f 6e
        E 80 8c 46 40
        E 0 8c 3a 40
        E 0 8c 3f 40
        E 16 9c 43 7f
        E 80 8c 43 40
        E 16 9c 3a 6e
        E 0 9c 3f 6e
        E 0 9c 43 7f
        E 80 8c 3a 40
        E 0 8c 3f 40
        E 0 8c 43 40
        E 16 9c 44 7f
        E 80 8c 44 40
        E 16 9c 3f 6e
        E 0 9c 38 6e
        E 0 9c 44 7f
        E 80 8c 3f 40
        E 0 8c 38 40
        E 0 8c 44 40
        E 16 9c 41 7f
        E 80 8c 41 40
        E 16 9c 3e 6e
        E 0 9c 38 6e
        E 0 9c 41 7f
        E 80 8c 3e 40
        E 0 8c 38 40
        E 0 8c 41 40
        E 16 9c 44 7f
        E 80 8c 44 40
        E 16 9c 3e 6e
        E 0 9c 3a 6e
        E 0 9c 44 7f
        E 80 8c 3e 40
        E 0 8c 3a 40
        E 0 8c 44 40
        E 16 9c 43 7f
        E 96 9c 3f 6e
        E 0 9c 3a 6e
        E 80 8c 43 40
        E 0 8c 3f 40
        E 0 8c 3a 40
        E 16 9c 41 7f
        E 80 8c 41 40
        E 16 9c 3c 6e
        E 0 9c 41 7f
        E 80 8c 3c 40
        E 0 8c 41 40
        E 16 9c 38 6e
        E 0 9c 3e 7f
        E 80 8c 3e 40
        E 16 9c 41 7f
        E 80 8c 38 40
        E 0 8c 41 40
        E 16 9c 37 6e
        E 0 9c 3f 7f
        E 176 8c 37 40
        E 16 9c 38 6e
        E 176 8c 38 40
        E 16 9c 37 6e
        E 176 8c 3f 40
        E 0 8c 37 40
        E 208 9c 3f 7f
        E 80 8c 3f 40
        E 16 9c 43 6e
        E 0 9c 3a 6e
        E 0 9c 3f 7f
        E 80 8c 43 40
        E 0 8c 3a 40
        E 0 8c 3f 40
        E 16 9c 41 7f
        E 80 8c 41 40
        E 16 9c 3a 6e
        E 0 9c 41 7f
        E 80 8c 3a 40
        E 0 8c 41 40
        E 16 9c 43 7f
        E 80 8c 43 40
        E 16 9c 3f 6e
        E 0 9c 3a 6e
        E 0 9c 43 7f
        E 80 8c 3f 40
        E 0 8c 3a 40
        E 0 8c 43 40
        E 16 9c 44 7f
        E 80 8c 44 40
        E 16 9c 3f 6e
        E 0 9c 38 6e
        E 0 9c 44 7f
        E 80 8c 3f 40
        E 0 8c 38 40
        E 0 8c 44 40
        E 16 9c 46 7f
        E 80 8c 46 40
        E 16 9c 3a 6e
        E 0 9c 41 6e
        E 0 9c 46 7f
        E 80 8c 3a 40
        E 0 8c 41 40
        E 0 8c 46 40
        E 16 9c 45 7f
        E 80 8c 45 40
        E 16 9c 45 6e
        E 0 9c 3f 6e
        E 0 9c 3c 6e
        E 0 9c 48 7f
        E 80 8c 45 40
        E 0 8c 3f 40
        E 0 8c 3c 40
        E 0 8c 48 40
        E 16 9c 46 7f
        E 96 9c 41 6e
        E 0 9c 3e 6e
        E 80 8c 41 40
        E 0 8c 3e 40
        E 112 9c 41 6e
        E 0 9c 3e 6e
        E 80 8c 46 40
        E 0 8c 41 40
        E 0 8c 3e 40
        E 16 9c 41 7f
        E 80 8c 41 40
        E 16 9c 46 6e
        E 0 9c 3a 6e
        E 0 9c 41 7f
        E 80 8c 46 40
        E 0 8c 3a 40
        E 0 8c 41 40
        E 16 9c 43 7f
        E 80 8c 43 40
        E 16 9c 3a 6e
        E 0 9c 3f 6e
        E 0 9c 43 7f
        E 80 8c 3a 40
        E 0 8c 3f 40
        E 0 8c 43 40
        E 16 9c 44 7f
        E 96 9c 3e 6e
        E 0 9c 3a 6e
        E 80 8c 44 40
        E 0 8c 3e 40
        E 0 8c 3a 40
        E 16 9c 46 7f
        E 80 8c 46 40
        E 16 9c 48 6e
        E 0 9c 3f 6e
        E 0 9c 45 7f
        E 80 8c 48 40
        E 0 8c 3f 40
        E 0 8c 45 40
        E 16 9c 3f 6e
        E 0 9c 46 7f
        E 176 8c 3f 40
        E 16 9c 41 6e
        E 80 8c 41 40
        E 16 9c 3f 6e
        E 80 8c 3f 40
        E 16 9c 3e 6e
        E 0 9c 3a 6e
        E 272 8c 46 40
        E 96 8c 3e 40
        E 0 8c 3a 40
        E 16 9c 44 6e
        E 0 9c 3f 6e
        E 0 9c 48 7f
        E 80 8c 48 40
        E 16 9c 48 7f
        E 80 8c 44 40
        E 0 8c 3f 40
        E 0 8c 48 40
        E 16 9c 44 6e
        E 0 9c 41 6e
        E 0 9c 4a 7f
        E 16 8c 41 40
        E 64 8c 4a 40
        E 16 9c 4a 7f
        E 80 8c 44 40
        E 0 8c 4a 40
        E 16 9c 3f 6e
        E 0 9c 46 6e
        E 0 9c 4b 7f
        E 80 8c 4b 40
        E 16 9c 4b 7f
        E 80 8c 3f 40
        E 0 8c 46 40
        E 0 8c 4b 40
        E 16 9c 48 6e
        E 0 9c 41 6e
        E 0 9c 4d 7f
        E 80 8c 4d 40
        E 16 9c 4d 7f
        E 80 8c 48 40
        E 0 8c 41 40
        E 0 8c 4d 40
        E 16 9c 41 6e
        E 0 9c 46 6e
        E 0 9c 4a 7f
        E 176 8c 41 40
        E 0 8c 4a 40
        E 16 9c 3f 6e
        E 0 9c 4b 7f
        E 176 8c 46 40
        E 0 8c 3f 40
        E 0 8c 4b 40
        E 16 9c 3f 6e
        E 0 9c 48 7f
        E 176 8c 48 40
        E 16 9c 46 7f
        E 176 8c 3f 40
        E 0 8c 46 40
        E 16 9c 41 6e
        E 0 9c 46 7f
        E 80 8c 46 40
        E 16 9c 46 7f
        E 80 8c 41 40
        E 16 9c 41 6e
        E 80 8c 46 40
        E 16 9c 44 7f
        E 80 8c 41 40
        E 0 8c 44 40
        E 16 9c 3c 6e
        E 0 9c 41 7f
        E 176 8c 3c 40
        E 0 8c 41 40
        E 16 9c 38 6e
        E 0 9c 3e 7f
        E 80 8c 3e 40
        E 16 9c 41 7f
        E 80 8c 38 40
        E 0 8c 41 40
        E 16 9c 37 6e
        E 0 9c 3f 7f
        E 176 8c 37 40
        E 16 9c 38 6e
        E 176 8c 38 40
        E 16 9c 37 6e
        E 176 8c 3f 40
        E 0 8c 37 40
        E 16 9c 3f 7f
        E 80 8c 3f 40
        E 16 9c 3e 7f
        E 80 8c 3e 40
        E 16 9c 37 6e
        E 0 9c 3a 6e
        E 0 9c 3f 7f
        E 80 8c 3f 40
        E 16 9c 41 7f
        E 80 8c 37 40
        E 0 8c 3a 40
        E 0 8c 41 40
        E 16 9c 3c 6e
        E 0 9c 3f 6e
        E 0 9c 37 6e
        E 0 9c 43 7f
        E 80 8c 43 40
        E 16 9c 41 7f
        E 80 8c 3c 40
        E 0 8c 3f 40
        E 0 8c 37 40
        E 0 8c 41 40
        E 16 9c 3a 6e
        E 0 9c 3f 6e
        E 0 9c 43 7f
        E 80 8c 43 40
        E 16 9c 44 7f
        E 80 8c 3a 40
        E 0 8c 3f 40
        E 0 8c 44 40
        E 16 9c 3f 6e
        E 0 9c 3a 6e
        E 0 9c 46 7f
        E 80 8c 3f 40
        E 0 8c 3a 40
        E 0 8c 46 40
        E 16 9c 3f 6e
        E 0 9c 3c 6e
        E 0 9c 48 7f
        E 80 8c 3f 40
        E 0 8c 3c 40
        E 0 8c 48 40
        E 16 9c 41 6e
        E 0 9c 3a 6e
        E 0 9c 46 7f
        E 176 8c 41 40
        E 16 9c 3f 6e
        E 80 8c 3a 40
        E 0 8c 46 40
        E 16 9c 43 6e
        E 0 9c 4b 7f
        E 80 8c 3f 40
        E 0 8c 43 40
        E 0 8c 4b 40
        E 16 9c 3e 6e
        E 0 9c 43 6e
        E 0 9c 4a 7f
        E 176 8c 3e 40
        E 16 9c 3e 6e
        E 80 8c 43 40
        E 0 8c 4a 40
        E 16 9c 41 6e
        E 0 9c 48 7f
        E 80 8c 3e 40
        E 0 8c 41 40
        E 0 8c 48 40
        E 16 9c 3a 6e
        E 0 9c 41 6e
        E 0 9c 46 7f
        E 176 8c 41 40
        E 16 9c 3f 6e
        E 80 8c 3a 40
        E 0 8c 46 40
        E 0 8c 3f 40
        E 16 9c 41 6e
        E 0 9c 3c 6e
        E 0 9c 44 7f
        E 80 8c 41 40
        E 0 8c 3c 40
        E 0 8c 44 40
        E 16 9c 3f 6e
        E 0 9c 3a 6e
        E 0 9c 43 7f
        E 272 8c 3f 40
        E 0 8c 3a 40
        E 0 8c 43 40
        E 16 9c 3f 6e
        E 0 9c 3a 6e
        E 0 9c 43 7f
        E 80 8c 3f 40
        E 0 8c 3a 40
        E 0 8c 43 40
        E 16 9c 38 6e
        E 0 9c 3c 6e
        E 0 9c 41 7f
        E 176 8c 38 40
        E 0 8c 3c 40
        E 0 8c 41 40
        E 16 9c 38 6e
        E 0 9c 3e 7f
        E 80 8c 3e 40
        E 16 9c 41 7f
        E 80 8c 38 40
        E 0 8c 41 40
        E 16 9c 37 6e
        E 0 9c 3a 6e
        E 0 9c 3f 7f
        E 176 8c 37 40
        E 0 8c 3a 40
        E 0 8c 3f 40
        E 16 9c 3f 7f
        E 80 8c 3f 40
        E 16 9c 3e 7f
        E 80 8c 3e 40
        E 16 9c 37 6e
        E 0 9c 3a 6e
        E 0 9c 3f 7f
        E 80 8c 3f 40
        E 16 9c 41 7f
        E 80 8c 37 40
        E 0 8c 3a 40
        E 0 8c 41 40
        E 16 9c 3c 6e
        E 0 9c 3f 6e
        E 0 9c 37 6e
        E 0 9c 43 7f
        E 80 8c 43 40
        E 16 9c 41 7f
        E 80 8c 3c 40
        E 0 8c 3f 40
        E 0 8c 37 40
        E 0 8c 41 40
        E 16 9c 3f 6e
        E 0 9c 3a 6e
        E 0 9c 43 7f
        E 80 8c 43 40
        E 16 9c 44 7f
        E 80 8c 3f 40
        E 0 8c 3a 40
        E 0 8c 44 40
        E 16 9c 3f 6e
        E 0 9c 3a 6e
        E 0 9c 46 7f
        E 80 8c 3f 40
        E 0 8c 3a 40
        E 0 8c 46 40
        E 16 9c 3f 6e
        E 0 9c 3c 6e
        E 0 9c 48 7f
        E 80 8c 3f 40
        E 0 8c 3c 40
        E 0 8c 48 40
        E 16 9c 41 6e
        E 0 9c 3a 6e
        E 0 9c 46 7f
        E 176 8c 41 40
        E 16 9c 3f 6e
        E 80 8c 3a 40
        E 0 8c 46 40
        E 16 9c 43 6e
        E 0 9c 4b 7f
        E 80 8c 3f 40
        E 0 8c 43 40
        E 0 8c 4b 40
        E 16 9c 3e 6e
        E 0 9c 43 6e
        E 0 9c 4a 7f
        E 176 8c 3e 40
        E 16 9c 3e 6e
        E 80 8c 43 40
        E 0 8c 4a 40
        E 16 9c 41 6e
        E 0 9c 48 7f
        E 80 8c 3e 40
        E 0 8c 41 40
        E 0 8c 48 40
        E 16 9c 41 6e
        E 0 9c 3a 6e
        E 0 9c 46 7f
        E 176 8c 41 40
        E 16 9c 3f 6e
        E 80 8c 3a 40
        E 0 8c 46 40
        E 0 8c 3f 40
        E 16 9c 41 6e
        E 0 9c 3c 6e
        E 0 9c 44 7f
        E 80 8c 41 40
        E 0 8c 3c 40
        E 0 8c 44 40
        E 16 9c 3f 6e
        E 0 9c 3a 6e
        E 0 9c 43 7f
        E 272 8c 3f 40
        E 0 8c 3a 40
        E 0 8c 43 40
        E 16 9c 3f 6e
        E 0 9c 3a 6e
        E 0 9c 43 7f
        E 80 8c 3f 40
        E 0 8c 3a 40
        E 0 8c 43 40
        E 16 9c 3c 6e
        E 0 9c 38 6e
        E 0 9c 41 7f
        E 176 8c 3c 40
        E 0 8c 38 40
        E 0 8c 41 40
        E 16 9c 38 6e
        E 0 9c 3e 7f
        E 80 8c 3e 40
        E 16 9c 41 7f
        E 80 8c 38 40
        E 0 8c 41 40
        E 16 9c 37 6e
        E 0 9c 3a 6e
        E 0 9c 3f 7f
        E 368 8c 37 40
        E 0 8c 3a 40
        E 16 9c 4b 6e
        E 0 9c 43 6e
        E 0 9c 46 6e
        E 176 8c 3f 40
        E 576 8c 4b 40
        E 0 8c 43 40
        E 0 8c 46 40
        E 16 b0 7b 00
        GUID {E0001F50-8F98-994A-865D-7506EDCAA30B}
        IGNTEMPO 0 120 4 4
        SRCCOLOR 110
        VELLANE -1 86 6
        CFGEDITVIEW 12408.502924 413.092767 49 7 0 0 0 0 0 0.5
        KEYSNAP 0
        TRACKSEL 252 0 0 ""
        EVTFILTER 0 -1 -1 -1 -1 0 0 0 0 -1 -1 -1 -1 0 -1 0 -1 -1
        CFGEDIT 1 0 0 0 0 0 1 0 1 1 1 0.25 349 84 1280 633 0 0 2 3 0 0 0 0 0 0.5 0 0 1 64
      >
    >
    <ITEM
      POSITION 0
      SNAPOFFS 0
      LENGTH 64.5
      LOOP 1
      ALLTAKES 0
      FADEIN 1 0 0 1 0 0
      FADEOUT 1 0 0 1 0 0
      MUTE 0
      SEL 0
      YPOS 0.857143 0.142857
      IGUID {6B3D4592-8504-864A-B363-46355E549502}
      IID 2
      NAME "Melody Layer         - National_Anthems_-_Sri_Lanka.mid"
      VOLPAN 1 0 1 -1
      SOFFS 0 0
      PLAYRATE 1 1 0 -1 0 0.0025
      CHANMODE 0
      GUID {7E8E31AB-7277-2244-A69C-D37FE4C67F52}
      <SOURCE MIDI
        HASDATA 1 192 QN
        POOLEDEVTS {A0E8417B-9444-1F4C-AA49-87828B48A056}
        <X 0 0
          /wNNZWxvZHkgTGF5ZXIgICAgICAgIA==
        >
        E 1536 94 43 6e
        E 176 84 43 40
        E 16 94 43 6e
        E 176 84 43 40
        E 16 94 41 6e
        E 176 84 41 40
        E 16 94 3e 6e
        E 80 84 3e 40
        E 16 94 41 6e
        E 80 84 41 40
        E 16 94 3f 6e
        E 560 84 3f 40
        E 16 94 3f 6e
        E 80 84 3f 40
        E 16 94 3e 6e
        E 80 84 3e 40
        E 16 94 3f 6e
        E 80 84 3f 40
        E 16 94 41 6e
        E 80 84 41 40
        E 16 94 43 6e
        E 80 84 43 40
        E 16 94 41 6e
        E 80 84 41 40
        E 16 94 43 6e
        E 80 84 43 40
        E 16 94 44 6e
        E 80 84 44 40
        E 16 94 46 6e
        E 80 84 46 40
        E 16 94 48 6e
        E 80 84 48 40
        E 16 94 46 6e
        E 272 84 46 40
        E 16 94 4b 6e
        E 80 84 4b 40
        E 16 94 4a 6e
        E 272 84 4a 40
        E 16 94 48 6e
        E 80 84 48 40
        E 16 94 46 6e
        E 272 84 46 40
        E 16 94 44 6e
        E 80 84 44 40
        E 16 94 43 6e
        E 272 84 43 40
        E 16 94 43 6e
        E 80 84 43 40
        E 16 94 41 6e
        E 176 84 41 40
        E 16 94 3e 6e
        E 80 84 3e 40
        E 16 94 41 6e
        E 80 84 41 40
        E 16 94 3f 6e
        E 176 84 3f 40
        E 208 94 3a 6e
        E 80 84 3a 40
        E 16 94 3f 6e
        E 80 84 3f 40
        E 16 94 3f 6e
        E 80 84 3f 40
        E 16 94 3f 6e
        E 80 84 3f 40
        E 16 94 3f 6e
        E 80 84 3f 40
        E 16 94 3f 6e
        E 80 84 3f 40
        E 16 94 3e 6e
        E 80 84 3e 40
        E 16 94 3f 6e
        E 80 84 3f 40
        E 16 94 41 6e
        E 272 84 41 40
        E 16 94 41 6e
        E 80 84 41 40
        E 16 94 41 6e
        E 80 84 41 40
        E 16 94 43 6e
        E 80 84 43 40
        E 16 94 41 6e
        E 80 84 41 40
        E 16 94 43 6e
        E 80 84 43 40
        E 16 94 44 6e
        E 80 84 44 40
        E 16 94 46 6e
        E 80 84 46 40
        E 16 94 46 6e
        E 80 84 46 40
        E 16 94 46 6e
        E 80 84 46 40
        E 16 94 46 6e
        E 80 84 46 40
        E 16 94 46 6e
        E 80 84 46 40
        E 16 94 45 6e
        E 80 84 45 40
        E 16 94 48 6e
        E 80 84 48 40
        E 16 94 46 6e
        E 656 84 46 40
        E 112 94 48 6e
        E 80 84 48 40
        E 16 94 4b 6e
        E 80 84 4b 40
        E 16 94 4b 6e
        E 80 84 4b 40
        E 16 94 46 6e
        E 80 84 46 40
        E 16 94 48 6e
        E 80 84 48 40
        E 16 94 48 6e
        E 80 84 48 40
        E 16 94 44 6e
        E 80 84 44 40
        E 16 94 44 6e
        E 80 84 44 40
        E 16 94 46 6e
        E 176 84 46 40
        E 16 94 43 6e
        E 80 84 43 40
        E 16 94 43 6e
        E 80 84 43 40
        E 16 94 44 6e
        E 80 84 44 40
        E 16 94 44 6e
        E 80 84 44 40
        E 16 94 41 6e
        E 80 84 41 40
        E 16 94 41 6e
        E 80 84 41 40
        E 16 94 44 6e
        E 80 84 44 40
        E 16 94 44 6e
        E 80 84 44 40
        E 16 94 43 6e
        E 176 84 43 40
        E 16 94 41 6e
        E 80 84 41 40
        E 16 94 41 6e
        E 80 84 41 40
        E 16 94 3e 6e
        E 80 84 3e 40
        E 16 94 41 6e
        E 80 84 41 40
        E 16 94 3f 6e
        E 560 84 3f 40
        E 208 94 3f 6e
        E 80 84 3f 40
        E 16 94 3f 6e
        E 80 84 3f 40
        E 16 94 41 6e
        E 80 84 41 40
        E 16 94 41 6e
        E 80 84 41 40
        E 16 94 43 6e
        E 80 84 43 40
        E 16 94 43 6e
        E 80 84 43 40
        E 16 94 44 6e
        E 80 84 44 40
        E 16 94 44 6e
        E 80 84 44 40
        E 16 94 46 6e
        E 80 84 46 40
        E 16 94 46 6e
        E 80 84 46 40
        E 16 94 45 6e
        E 80 84 45 40
        E 16 94 48 6e
        E 80 84 48 40
        E 16 94 46 6e
        E 368 84 46 40
        E 16 94 41 6e
        E 80 84 41 40
        E 16 94 41 6e
        E 80 84 41 40
        E 16 94 43 6e
        E 80 84 43 40
        E 16 94 43 6e
        E 80 84 43 40
        E 16 94 44 6e
        E 176 84 44 40
        E 16 94 46 6e
        E 80 84 46 40
        E 16 94 45 6e
        E 80 84 45 40
        E 16 94 46 6e
        E 656 84 46 40
        E 112 94 48 6e
        E 80 84 48 40
        E 16 94 48 6e
        E 80 84 48 40
        E 16 94 4a 6e
        E 80 84 4a 40
        E 16 94 4a 6e
        E 80 84 4a 40
        E 16 94 4b 6e
        E 80 84 4b 40
        E 16 94 4b 6e
        E 80 84 4b 40
        E 16 94 4d 6e
        E 80 84 4d 40
        E 16 94 4d 6e
        E 80 84 4d 40
        E 16 94 4a 6e
        E 176 84 4a 40
        E 16 94 4b 6e
        E 176 84 4b 40
        E 16 94 48 6e
        E 176 84 48 40
        E 16 94 46 6e
        E 176 84 46 40
        E 16 94 46 6e
        E 80 84 46 40
        E 16 94 46 6e
        E 176 84 46 40
        E 16 94 44 6e
        E 80 84 44 40
        E 16 94 41 6e
        E 176 84 41 40
        E 16 94 3e 6e
        E 80 84 3e 40
        E 16 94 41 6e
        E 80 84 41 40
        E 16 94 3f 6e
        E 560 84 3f 40
        E 16 94 3f 6e
        E 80 84 3f 40
        E 16 94 3e 6e
        E 80 84 3e 40
        E 16 94 3f 6e
        E 80 84 3f 40
        E 16 94 41 6e
        E 80 84 41 40
        E 16 94 43 6e
        E 80 84 43 40
        E 16 94 41 6e
        E 80 84 41 40
        E 16 94 43 6e
        E 80 84 43 40
        E 16 94 44 6e
        E 80 84 44 40
        E 16 94 46 6e
        E 80 84 46 40
        E 16 94 48 6e
        E 80 84 48 40
        E 16 94 46 6e
        E 272 84 46 40
        E 16 94 4b 6e
        E 80 84 4b 40
        E 16 94 4a 6e
        E 272 84 4a 40
        E 16 94 48 6e
        E 80 84 48 40
        E 16 94 46 6e
        E 272 84 46 40
        E 16 94 44 6e
        E 80 84 44 40
        E 16 94 43 6e
        E 272 84 43 40
        E 16 94 43 6e
        E 80 84 43 40
        E 16 94 41 6e
        E 176 84 41 40
        E 16 94 3e 6e
        E 80 84 3e 40
        E 16 94 41 6e
        E 80 84 41 40
        E 16 94 3f 6e
        E 176 84 3f 40
        E 16 94 3f 6e
        E 80 84 3f 40
        E 16 94 3e 6e
        E 80 84 3e 40
        E 16 94 3f 6e
        E 80 84 3f 40
        E 16 94 41 6e
        E 80 84 41 40
        E 16 94 43 6e
        E 80 84 43 40
        E 16 94 41 6e
        E 80 84 41 40
        E 16 94 43 6e
        E 80 84 43 40
        E 16 94 44 6e
        E 80 84 44 40
        E 16 94 46 6e
        E 80 84 46 40
        E 16 94 48 6e
        E 80 84 48 40
        E 16 94 46 6e
        E 272 84 46 40
        E 16 94 4b 6e
        E 80 84 4b 40
        E 16 94 4a 6e
        E 272 84 4a 40
        E 16 94 48 6e
        E 80 84 48 40
        E 16 94 46 6e
        E 272 84 46 40
        E 16 94 44 6e
        E 80 84 44 40
        E 16 94 43 6e
        E 272 84 43 40
        E 16 94 43 6e
        E 80 84 43 40
        E 16 94 41 6e
        E 176 84 41 40
        E 16 94 3e 6e
        E 80 84 3e 40
        E 16 94 41 6e
        E 80 84 41 40
        E 16 94 3f 6e
        E 560 84 3f 40
        E 16 b0 7b 00
        GUID {84C0C49F-DA1A-3F4C-823F-E9835669B265}
        IGNTEMPO 0 120 4 4
        SRCCOLOR 106
        VELLANE -1 86 6
      >
    >
    <ITEM
      POSITION 0
      SNAPOFFS 0
      LENGTH 64.5
      LOOP 1
      ALLTAKES 0
      FADEIN 1 0 0 1 0 0
      FADEOUT 1 0 0 1 0 0
      MUTE 0
      SEL 0
      YPOS 0.714286 0.142857
      IGUID {42F05724-0DAB-BD4B-B310-F6959AC3480A}
      IID 1
      NAME "Melody               - National_Anthems_-_Sri_Lanka.mid"
      VOLPAN 1 0 1 -1
      SOFFS 0 0
      PLAYRATE 1 1 0 -1 0 0.0025
      CHANMODE 0
      GUID {31246ECA-7931-724F-A489-316C0BFEC507}
      <SOURCE MIDI
        HASDATA 1 192 QN
        POOLEDEVTS {1823F6C7-0ED3-4042-B819-381FD0A9EBE7}
        <X 0 0
          /wNNZWxvZHkgICAgICAgICAgICAgIA==
        >
        <X 0 0
          /wFUSEUgU09GVFdBUkUgVE9PTFdPUktT
        >
        <X 0 0
          /wFXT1JMRCBBVExBUw==
        >
        <X 0 0
          /wFNdWx0aU1lZGlhIFdpbmRvd3MgVmVyc2lvbg==
        >
        <X 0 0
          /wFDb3VudHJ5OiBTUkkgTEFOS0E=
        >
        <X 0 0
          /wFBbnRoZW0gTmFtZTo=
        >
        <X 0 0
          /wEocCkgKGMpIFRoZSBTb2Z0d2FyZSBUb29sd29ya3MgMTk5MQ==
        >
        <X 0 0
          /wFub3Rlczo=
        >
        <X 0 0
          /wFkYXRlOg==
        >
        <X 0 0
          /wFlZGl0IGRhdGU6IDktNy05MQ==
        >
        <X 0 0
          /wFSRVZJU0VEOiAxMS0xNC05MQ==
        >
        <X 0 0
          /wFNTVdJTiBFRElUIERBVEU6IDktMTMtOTE=
        >
        <X 0 0
          /wE/PSBubyBtYXJraW5nICE9IGJwbSBwcm92aWRlZA==
        >
        <X 0 0
          /wFUaGlzIGZpbGUgcHJvdmlkZWQgYnk6
        >
        <X 0 0
          /wFSb2IgV2FsbGFjZSBNdXNpYw==
        >
        <X 0 0
          /wEoNjAyKSA5NzgtMDgzNQ==
        >
        E 1536 90 43 7f
        E 176 80 43 40
        E 16 90 43 7f
        E 176 80 43 40
        E 16 90 41 7f
        E 176 80 41 40
        E 16 90 3e 7f
        E 80 80 3e 40
        E 16 90 41 7f
        E 80 80 41 40
        E 16 90 3f 7f
        E 560 80 3f 40
        E 16 90 3f 7f
        E 80 80 3f 40
        E 16 90 3e 7f
        E 80 80 3e 40
        E 16 90 3f 7f
        E 80 80 3f 40
        E 16 90 41 7f
        E 80 80 41 40
        E 16 90 43 7f
        E 80 80 43 40
        E 16 90 41 7f
        E 80 80 41 40
        E 16 90 43 7f
        E 80 80 43 40
        E 16 90 44 7f
        E 80 80 44 40
        E 16 90 46 7f
        E 80 80 46 40
        E 16 90 48 7f
        E 80 80 48 40
        E 16 90 46 7f
        E 272 80 46 40
        E 16 90 4b 7f
        E 80 80 4b 40
        E 16 90 4a 7f
        E 272 80 4a 40
        E 16 90 48 7f
        E 80 80 48 40
        E 16 90 46 7f
        E 272 80 46 40
        E 16 90 44 7f
        E 80 80 44 40
        E 16 90 43 7f
        E 272 80 43 40
        E 16 90 43 7f
        E 80 80 43 40
        E 16 90 41 7f
        E 176 80 41 40
        E 16 90 3e 7f
        E 80 80 3e 40
        E 16 90 41 7f
        E 80 80 41 40
        E 16 90 3f 7f
        E 176 80 3f 40
        E 208 90 3a 7f
        E 80 80 3a 40
        E 16 90 3f 7f
        E 80 80 3f 40
        E 16 90 3f 7f
        E 80 80 3f 40
        E 16 90 3f 7f
        E 80 80 3f 40
        E 16 90 3f 7f
        E 80 80 3f 40
        E 16 90 3f 7f
        E 80 80 3f 40
        E 16 90 3e 7f
        E 80 80 3e 40
        E 16 90 3f 7f
        E 80 80 3f 40
        E 16 90 41 7f
        E 272 80 41 40
        E 16 90 41 7f
        E 80 80 41 40
        E 16 90 41 7f
        E 80 80 41 40
        E 16 90 43 7f
        E 80 80 43 40
        E 16 90 41 7f
        E 80 80 41 40
        E 16 90 43 7f
        E 80 80 43 40
        E 16 90 44 7f
        E 80 80 44 40
        E 16 90 46 7f
        E 80 80 46 40
        E 16 90 46 7f
        E 80 80 46 40
        E 16 90 46 7f
        E 80 80 46 40
        E 16 90 46 7f
        E 80 80 46 40
        E 16 90 46 7f
        E 80 80 46 40
        E 16 90 45 7f
        E 80 80 45 40
        E 16 90 48 7f
        E 80 80 48 40
        E 16 90 46 7f
        E 656 80 46 40
        E 112 90 48 7f
        E 80 80 48 40
        E 16 90 4b 7f
        E 80 80 4b 40
        E 16 90 4b 7f
        E 80 80 4b 40
        E 16 90 46 7f
        E 80 80 46 40
        E 16 90 48 7f
        E 80 80 48 40
        E 16 90 48 7f
        E 80 80 48 40
        E 16 90 44 7f
        E 80 80 44 40
        E 16 90 44 7f
        E 80 80 44 40
        E 16 90 46 7f
        E 176 80 46 40
        E 16 90 43 7f
        E 80 80 43 40
        E 16 90 43 7f
        E 80 80 43 40
        E 16 90 44 7f
        E 80 80 44 40
        E 16 90 44 7f
        E 80 80 44 40
        E 16 90 41 7f
        E 80 80 41 40
        E 16 90 41 7f
        E 80 80 41 40
        E 16 90 44 7f
        E 80 80 44 40
        E 16 90 44 7f
        E 80 80 44 40
        E 16 90 43 7f
        E 176 80 43 40
        E 16 90 41 7f
        E 80 80 41 40
        E 16 90 41 7f
        E 80 80 41 40
        E 16 90 3e 7f
        E 80 80 3e 40
        E 16 90 41 7f
        E 80 80 41 40
        E 16 90 3f 7f
        E 560 80 3f 40
        E 208 90 3f 7f
        E 80 80 3f 40
        E 16 90 3f 7f
        E 80 80 3f 40
        E 16 90 41 7f
        E 80 80 41 40
        E 16 90 41 7f
        E 80 80 41 40
        E 16 90 43 7f
        E 80 80 43 40
        E 16 90 43 7f
        E 80 80 43 40
        E 16 90 44 7f
        E 80 80 44 40
        E 16 90 44 7f
        E 80 80 44 40
        E 16 90 46 7f
        E 80 80 46 40
        E 16 90 46 7f
        E 80 80 46 40
        E 16 90 45 7f
        E 80 80 45 40
        E 16 90 48 7f
        E 80 80 48 40
        E 16 90 46 7f
        E 368 80 46 40
        E 16 90 41 7f
        E 80 80 41 40
        E 16 90 41 7f
        E 80 80 41 40
        E 16 90 43 7f
        E 80 80 43 40
        E 16 90 43 7f
        E 80 80 43 40
        E 16 90 44 7f
        E 176 80 44 40
        E 16 90 46 7f
        E 80 80 46 40
        E 16 90 45 7f
        E 80 80 45 40
        E 16 90 46 7f
        E 656 80 46 40
        E 112 90 48 7f
        E 80 80 48 40
        E 16 90 48 7f
        E 80 80 48 40
        E 16 90 4a 7f
        E 80 80 4a 40
        E 16 90 4a 7f
        E 80 80 4a 40
        E 16 90 4b 7f
        E 80 80 4b 40
        E 16 90 4b 7f
        E 80 80 4b 40
        E 16 90 4d 7f
        E 80 80 4d 40
        E 16 90 4d 7f
        E 80 80 4d 40
        E 16 90 4a 7f
        E 176 80 4a 40
        E 16 90 4b 7f
        E 176 80 4b 40
        E 16 90 48 7f
        E 176 80 48 40
        E 16 90 46 7f
        E 176 80 46 40
        E 16 90 46 7f
        E 80 80 46 40
        E 16 90 46 7f
        E 176 80 46 40
        E 16 90 44 7f
        E 80 80 44 40
        E 16 90 41 7f
        E 176 80 41 40
        E 16 90 3e 7f
        E 80 80 3e 40
        E 16 90 41 7f
        E 80 80 41 40
        E 16 90 3f 7f
        E 560 80 3f 40
        E 16 90 3f 7f
        E 80 80 3f 40
        E 16 90 3e 7f
        E 80 80 3e 40
        E 16 90 3f 7f
        E 80 80 3f 40
        E 16 90 41 7f
        E 80 80 41 40
        E 16 90 43 7f
        E 80 80 43 40
        E 16 90 41 7f
        E 80 80 41 40
        E 16 90 43 7f
        E 80 80 43 40
        E 16 90 44 7f
        E 80 80 44 40
        E 16 90 46 7f
        E 80 80 46 40
        E 16 90 48 7f
        E 80 80 48 40
        E 16 90 46 7f
        E 272 80 46 40
        E 16 90 4b 7f
        E 80 80 4b 40
        E 16 90 4a 7f
        E 272 80 4a 40
        E 16 90 48 7f
        E 80 80 48 40
        E 16 90 46 7f
        E 272 80 46 40
        E 16 90 44 7f
        E 80 80 44 40
        E 16 90 43 7f
        E 272 80 43 40
        E 16 90 43 7f
        E 80 80 43 40
        E 16 90 41 7f
        E 176 80 41 40
        E 16 90 3e 7f
        E 80 80 3e 40
        E 16 90 41 7f
        E 80 80 41 40
        E 16 90 3f 7f
        E 176 80 3f 40
        E 16 90 3f 7f
        E 80 80 3f 40
        E 16 90 3e 7f
        E 80 80 3e 40
        E 16 90 3f 7f
        E 80 80 3f 40
        E 16 90 41 7f
        E 80 80 41 40
        E 16 90 43 7f
        E 80 80 43 40
        E 16 90 41 7f
        E 80 80 41 40
        E 16 90 43 7f
        E 80 80 43 40
        E 16 90 44 7f
        E 80 80 44 40
        E 16 90 46 7f
        E 80 80 46 40
        E 16 90 48 7f
        E 80 80 48 40
        E 16 90 46 7f
        E 272 80 46 40
        E 16 90 4b 7f
        E 80 80 4b 40
        E 16 90 4a 7f
        E 272 80 4a 40
        E 16 90 48 7f
        E 80 80 48 40
        E 16 90 46 7f
        E 272 80 46 40
        E 16 90 44 7f
        E 80 80 44 40
        E 16 90 43 7f
        E 272 80 43 40
        E 16 90 43 7f
        E 80 80 43 40
        E 16 90 41 7f
        E 176 80 41 40
        E 16 90 3e 7f
        E 80 80 3e 40
        E 16 90 41 7f
        E 80 80 41 40
        E 16 90 3f 7f
        E 560 80 3f 40
        E 16 b0 7b 00
        GUID {1C87EDA1-1F61-8D4E-BDAD-6694C0601798}
        IGNTEMPO 0 120 4 4
        SRCCOLOR 105
        VELLANE -1 86 6
        CFGEDITVIEW 23479.302878 144.121925 49 14 0 0 0 0 0 0.5
        KEYSNAP 0
        TRACKSEL 252 0 0 ""
        EVTFILTER 0 -1 -1 -1 -1 0 0 0 0 -1 -1 -1 -1 0 -1 0 -1 -1
        CFGEDIT 1 0 0 0 0 0 1 0 1 1 1 0.25 333 68 1280 633 0 0 2 3 0 0 0 0 0 0.5 0 0 1 64
      >
    >
  >
  <TRACK {2E103EAF-0FA2-9942-87A1-30E1663A9F4B}
    NAME "--- 0 --- 0 --- 0 "
    PEAKCOL 16576
    BEAT -1
    AUTOMODE 0
    VOLPAN 1 0 -1 -1 1
    MUTESOLO 0 0 0
    IPHASE 0
    ISBUS 0 0
    BUSCOMP 0 0
    SHOWINMIX 1 0.6667 0.565574 0 0.5 0 0 0
    FREEMODE 0
    SEL 0
    REC 0 0 0 0 0 0 0
    VU 2
    TRACKHEIGHT 0 0
    INQ 0 0 0 0.5 100 0 0 100
    NCHAN 2
    FX 1
    TRACKID {2E103EAF-0FA2-9942-87A1-30E1663A9F4B}
    PERF 0
    LAYOUTS "" Separator
    MIDIOUT -1
    MAINSEND 1 0
  >
  <TRACK {4A6CD977-ADCC-3A4D-927C-BB2CEF4B0809}
    NAME "vst Gladiator"
    PEAKCOL 27222112
    BEAT -1
    AUTOMODE 0
    VOLPAN 0.42118287246328 0 -1 -1 1
    MUTESOLO 0 0 0
    IPHASE 0
    ISBUS 0 0
    BUSCOMP 2 0
    SHOWINMIX 1 0.6667 0.5 1 0.5 0 0 0
    FREEMODE 0
    SEL 1
    REC 0 0 0 0 0 0 0
    VU 2
    TRACKHEIGHT 0 0
    INQ 0 0 0 0.5 100 0 0 100
    NCHAN 2
    FX 1
    TRACKID {4A6CD977-ADCC-3A4D-927C-BB2CEF4B0809}
    PERF 0
    MIDIOUT -1
    MAINSEND 1 0
    <FXCHAIN
      SHOW 0
      LASTSEL 0
      DOCKED 0
      BYPASS 0 0 0
      <VST "VSTi: Gladiator (Tone2.com)" Gladiator.vst 0 "" 1412581196
        TEcyVO5e7f4AAAAAAgAAAAEAAAAAAAAAAgAAAAAAAABaBAAAAQAAAAAAEAA=
        Q2NuSwAAAGBGeENrAAAAAVQyR0wAAAABAAABB0luaXQAAAAAAAAAAAAAAAAAAAAAAAAAAAAAAAA9zMzNPMzMzTw0OVg9uFH0PXnbIz+AAAA7xJumPb52yT+AAAA7xJum
        AAAAAD6mZmY+PXCkP4AAAD7FHrk/AAAAPwAAAAAAAAA9ffO2PdDlYDy8an8/RR64AAAAAD+AAAA8NDlYPZFocz71wo87RJumPbhR6D69cKQ+PXCkP4AAAD8AAAA/A9cL
        PwAAAAAAAAAAAAAAPwAAAD8AAAA/AAAAPtmZmj8AAAAAAAAAO+VgQj24UesAAAAAPk21xDtEm6Y/S4UeAAAAAAAAAAA+64UgPpR64T1hR7A+z1woPx64Uj49cKY/AAAA
        PwAAAAAAAAAAAAAAPwAAAAAAAAAAAAAAP4AAAD+AAAAAAAAAPxHrhT8AAAA/AAAAPwAAAD8AAAAAAAAAPwAAAD8AAAA/AAAAAAAAAD8AAAA/AAAAPwAAAAAAAAA6gxJv
        P1Cj1wAAAAA/gAAAAAAAADqDEm8/AAAAAAAAAAAAAAAAAAAAPwAAAAAAAAA/gAAAAAAAAD+AAAAAAAAAPwAAAD8AAAA/AAAAPwAAAD8AAAA/AAAAPwAAAD8AAAA/AAAA
        PwAAAD8AAAA/EeuGPKPXCjqDEm88RJumAAAAAAAAAAAAAAAAPLxqfwAAAAAAAAAAAAAAAAAAAAAAAAAAAAAAAAAAAAAAAAAAAAAAAAAAAAAAAAAAAAAAAAAAAAAAAAAA
        AAAAAAAAAAA8E3S8AAAAADw0OVgAAAAAPBN0vAAAAAA8NDlYAAAAADwTdLwAAAAAPDQ5WAAAAAA8E3S8AAAAADw0OVgAAAAAPGVgQj2HKwI8ZWBCOwMSbz2JN0w7AxJv
        PLQ5WDyLQ5Y8k3S8PVT99D0XjVA8zMzNPoAAAD9ywjU/AAAAP1GnuT8wjT4/HLCNAAAAADsDEm86gxJvAAAAAAAAAAAAAAAAPwAAADqDEm87RJumP4AAAAAAAAA/gAAA
        AAAAAD+AAAAAAAAAAAAAAAAAAAAAAAAAP4AAAAAAAAA/AAAAAAAAAD8AAAA/BR64PwAAAD+AAAA/AAAAPwAAAD8AAAA/gAAAP4AAAAAAAAAAAAAAAAAAAD8AAAA/gAAA
        PwAAAAAAAAA+vXCkAAAAAAAAAAA/gAAAP4AAAD8j1wo/gAAAAAAAAAAAAAA/gAAAPwAAAAAAAAAAAAAAAAAAAAAAAAAAAAAAAAAAAAAAAAAAAAAAAAAAAAAAAAAAAAAA
        AAAAAD8AAAA/AAAAPwAAAD8AAAA/AAAAPwAAAAAAAAAAAAAAP4AAAAAAAAAAAAAAAAAAAAAAAAAAAAAAAAAAAAAAAAAAAAAAAAAAAAAAAAAAAAAAAAAAAAAAAAAAAAAA
        AAAAAAAAAAAAAAAAAAAAAAAAAAAAAAAAAAAAAAAAAAAAAAAAAAAAAAAAAAAAAAAAAAAAAAAAqqusrQ==
        AAAQAAAA
      >
      FLOATPOS 500 379 987 799
      FXID {532372E3-5B0D-9345-A9C8-98A8EBAF9A7E}
      WAK 0
    >
    <ITEM
      POSITION 0
      SNAPOFFS 0
      LENGTH 66
      LOOP 1
      ALLTAKES 0
      FADEIN 1 0 0 1 0 0
      FADEOUT 1 0 0 1 0 0
      MUTE 0
      SEL 0
      YPOS 0 0.142857
      IGUID {CCB7086D-3596-394B-ABF0-B9E1E5747019}
      IID 3
      NAME "RH                   - National_Anthems_-_Sri_Lanka.mid"
      VOLPAN 1 0 1 -1
      SOFFS 0 0
      PLAYRATE 1 1 0 -1 0 0.0025
      CHANMODE 0
      GUID {E6776DAC-E94B-DD40-A3F1-EC51F3BC831C}
      <SOURCE MIDI
        HASDATA 1 192 QN
        POOLEDEVTS {1F6EFDCB-B67C-AA4F-A92D-2354063B89C6}
        <X 0 0
          /wNSSCAgICAgICAgICAgICAgICAgIA==
        >
        E 0 91 37 6e
        E 0 91 3a 6e
        E 0 91 3f 6e
        E 0 91 43 6e
        E 80 81 37 40
        E 0 81 3a 40
        E 0 81 3f 40
        E 0 81 43 40
        E 16 91 43 6e
        E 80 81 43 40
        E 16 91 37 6e
        E 0 91 3f 6e
        E 0 91 43 6e
        E 80 81 37 40
        E 0 81 3f 40
        E 0 81 43 40
        E 16 91 43 6e
        E 80 81 43 40
        E 16 91 38 6e
        E 0 91 3c 6e
        E 0 91 41 6e
        E 176 81 38 40
        E 0 81 3c 40
        E 0 81 41 40
        E 16 91 3e 6e
        E 80 81 3e 40
        E 16 91 41 6e
        E 80 81 41 40
        E 16 91 37 6e
        E 0 91 3a 6e
        E 0 91 3f 6e
        E 560 81 37 40
        E 0 81 3a 40
        E 0 81 3f 40
        E 208 91 37 6e
        E 0 91 3a 6e
        E 0 91 3f 6e
        E 0 91 43 6e
        E 176 81 37 40
        E 0 81 3a 40
        E 0 81 3f 40
        E 0 81 43 40
        E 16 91 37 6e
        E 0 91 3c 6e
        E 0 91 3f 6e
        E 0 91 43 6e
        E 176 81 37 40
        E 0 81 3c 40
        E 0 81 3f 40
        E 0 81 43 40
        E 16 91 38 6e
        E 0 91 3c 6e
        E 0 91 41 6e
        E 176 81 38 40
        E 0 81 3c 40
        E 0 81 41 40
        E 16 91 38 6e
        E 0 91 3e 6e
        E 80 81 3e 40
        E 16 91 41 6e
        E 80 81 38 40
        E 0 81 41 40
        E 16 91 37 6e
        E 0 91 3f 6e
        E 176 81 37 40
        E 16 91 38 6e
        E 176 81 38 40
        E 16 91 37 6e
        E 176 81 3f 40
        E 0 81 37 40
        E 16 91 3f 6e
        E 80 81 3f 40
        E 16 91 3e 6e
        E 80 81 3e 40
        E 16 91 37 6e
        E 0 91 3a 6e
        E 0 91 3f 6e
        E 176 81 37 40
        E 0 81 3a 40
        E 0 81 3f 40
        E 16 91 37 6e
        E 0 91 3c 6e
        E 0 91 3f 6e
        E 0 91 43 6e
        E 176 81 37 40
        E 0 81 3c 40
        E 0 81 3f 40
        E 0 81 43 40
        E 16 91 3a 6e
        E 0 91 3f 6e
        E 0 91 43 6e
        E 176 81 3a 40
        E 0 81 3f 40
        E 0 81 43 40
        E 16 91 3a 6e
        E 0 91 3f 6e
        E 0 91 46 6e
        E 80 81 3a 40
        E 0 81 3f 40
        E 0 81 46 40
        E 16 91 3c 6e
        E 0 91 3f 6e
        E 0 91 48 6e
        E 80 81 3c 40
        E 0 81 3f 40
        E 0 81 48 40
        E 16 91 3a 6e
        E 0 91 41 6e
        E 0 91 46 6e
        E 176 81 41 40
        E 16 91 3f 6e
        E 80 81 3a 40
        E 0 81 46 40
        E 16 91 43 6e
        E 0 91 4b 6e
        E 80 81 3f 40
        E 0 81 43 40
        E 0 81 4b 40
        E 16 91 3e 6e
        E 0 91 43 6e
        E 0 91 4a 6e
        E 176 81 3e 40
        E 16 91 3e 6e
        E 80 81 43 40
        E 0 81 4a 40
        E 16 91 41 6e
        E 0 91 48 6e
        E 80 81 3e 40
        E 0 81 41 40
        E 0 81 48 40
        E 16 91 3a 6e
        E 0 91 41 6e
        E 0 91 46 6e
        E 176 81 41 40
        E 16 91 3f 6e
        E 80 81 3a 40
        E 0 81 46 40
        E 0 81 3f 40
        E 16 91 3c 6e
        E 0 91 41 6e
        E 0 91 44 6e
        E 80 81 3c 40
        E 0 81 41 40
        E 0 81 44 40
        E 16 91 3a 6e
        E 0 91 3f 6e
        E 0 91 43 6e
        E 272 81 3a 40
        E 0 81 3f 40
        E 0 81 43 40
        E 16 91 3a 6e
        E 0 91 3f 6e
        E 0 91 43 6e
        E 80 81 3a 40
        E 0 81 3f 40
        E 0 81 43 40
        E 16 91 38 6e
        E 0 91 3c 6e
        E 0 91 41 6e
        E 176 81 38 40
        E 0 81 3c 40
        E 0 81 41 40
        E 16 91 38 6e
        E 0 91 3e 6e
        E 80 81 3e 40
        E 16 91 41 6e
        E 80 81 38 40
        E 0 81 41 40
        E 16 91 37 6e
        E 0 91 3a 6e
        E 0 91 3f 6e
        E 176 81 37 40
        E 0 81 3a 40
        E 0 81 3f 40
        E 208 91 27 6e
        E 80 81 27 40
        E 16 91 2e 6e
        E 80 81 2e 40
        E 16 91 37 6e
        E 80 81 37 40
        E 16 91 3a 6e
        E 80 81 3a 40
        E 16 91 3f 6e
        E 0 91 46 6e
        E 80 81 3f 40
        E 0 81 46 40
        E 16 91 3a 6e
        E 80 81 3a 40
        E 16 91 37 6e
        E 80 81 37 40
        E 16 91 2e 6e
        E 80 81 2e 40
        E 16 91 2e 6e
        E 80 81 2e 40
        E 16 91 35 6e
        E 80 81 35 40
        E 16 91 3a 6e
        E 80 81 3a 40
        E 16 91 3e 6e
        E 80 81 3e 40
        E 16 91 41 6e
        E 0 91 44 6e
        E 80 81 41 40
        E 0 81 44 40
        E 16 91 3e 6e
        E 80 81 3e 40
        E 16 91 3a 6e
        E 80 81 3a 40
        E 16 91 35 6e
        E 80 81 35 40
        E 16 91 2e 6e
        E 80 81 2e 40
        E 16 91 35 6e
        E 80 81 35 40
        E 16 91 3a 6e
        E 80 81 3a 40
        E 16 91 3e 6e
        E 80 81 3e 40
        E 16 91 41 6e
        E 0 91 44 6e
        E 80 81 41 40
        E 0 81 44 40
        E 16 91 3e 6e
        E 80 81 3e 40
        E 16 91 3a 6e
        E 80 81 3a 40
        E 16 91 35 6e
        E 80 81 35 40
        E 16 91 27 6e
        E 80 81 27 40
        E 16 91 2e 6e
        E 80 81 2e 40
        E 16 91 37 6e
        E 80 81 37 40
        E 16 91 3a 6e
        E 80 81 3a 40
        E 16 91 3f 6e
        E 0 91 46 6e
        E 80 81 3f 40
        E 0 81 46 40
        E 16 91 3a 6e
        E 80 81 3a 40
        E 16 91 37 6e
        E 80 81 37 40
        E 16 91 2e 6e
        E 80 81 2e 40
        E 112 91 3f 6e
        E 0 91 44 6e
        E 0 91 4b 6e
        E 80 81 3f 40
        E 0 81 44 40
        E 0 81 4b 40
        E 112 91 3f 6e
        E 0 91 46 6e
        E 0 91 4b 6e
        E 80 81 3f 40
        E 0 81 46 40
        E 0 81 4b 40
        E 112 91 3f 6e
        E 0 91 44 6e
        E 0 91 48 6e
        E 80 81 3f 40
        E 0 81 44 40
        E 0 81 48 40
        E 112 91 3c 6e
        E 0 91 41 6e
        E 0 91 44 6e
        E 80 81 3c 40
        E 0 81 41 40
        E 0 81 44 40
        E 112 91 3a 6e
        E 0 91 3f 6e
        E 0 91 46 6e
        E 80 81 3a 40
        E 0 81 3f 40
        E 0 81 46 40
        E 112 91 3a 6e
        E 0 91 3f 6e
        E 0 91 43 6e
        E 80 81 3a 40
        E 0 81 3f 40
        E 0 81 43 40
        E 112 91 38 6e
        E 0 91 3f 6e
        E 0 91 44 6e
        E 80 81 38 40
        E 0 81 3f 40
        E 0 81 44 40
        E 112 91 38 6e
        E 0 91 3e 6e
        E 80 81 38 40
        E 0 81 3e 40
        E 112 91 3a 6e
        E 0 91 3e 6e
        E 0 91 44 6e
        E 80 81 3a 40
        E 0 81 3e 40
        E 0 81 44 40
        E 112 91 3a 6e
        E 0 91 3f 6e
        E 0 91 43 6e
        E 80 81 3a 40
        E 0 81 3f 40
        E 0 81 43 40
        E 112 91 3c 6e
        E 0 91 41 6e
        E 80 81 3c 40
        E 0 81 41 40
        E 16 91 38 6e
        E 0 91 3e 6e
        E 80 81 3e 40
        E 16 91 41 6e
        E 80 81 38 40
        E 0 81 41 40
        E 16 91 37 6e
        E 0 91 3f 6e
        E 176 81 37 40
        E 16 91 38 6e
        E 176 81 38 40
        E 16 91 37 6e
        E 176 81 3f 40
        E 0 81 37 40
        E 304 91 3a 6e
        E 0 91 3f 6e
        E 0 91 43 6e
        E 80 81 3a 40
        E 0 81 3f 40
        E 0 81 43 40
        E 112 91 3a 6e
        E 0 91 41 6e
        E 80 81 3a 40
        E 0 81 41 40
        E 112 91 3a 6e
        E 0 91 3f 6e
        E 0 91 43 6e
        E 80 81 3a 40
        E 0 81 3f 40
        E 0 81 43 40
        E 112 91 38 6e
        E 0 91 3f 6e
        E 0 91 44 6e
        E 80 81 38 40
        E 0 81 3f 40
        E 0 81 44 40
        E 112 91 3a 6e
        E 0 91 41 6e
        E 0 91 46 6e
        E 80 81 3a 40
        E 0 81 41 40
        E 0 81 46 40
        E 112 91 3c 6e
        E 0 91 3f 6e
        E 0 91 45 6e
        E 80 81 3c 40
        E 0 81 3f 40
        E 0 81 45 40
        E 112 91 3e 6e
        E 0 91 41 6e
        E 0 91 46 6e
        E 80 81 3e 40
        E 0 81 41 40
        E 0 81 46 40
        E 112 91 3e 6e
        E 0 91 41 6e
        E 0 91 46 6e
        E 80 81 3e 40
        E 0 81 41 40
        E 0 81 46 40
        E 112 91 3a 6e
        E 0 91 41 6e
        E 0 91 46 6e
        E 80 81 3a 40
        E 0 81 41 40
        E 0 81 46 40
        E 112 91 3a 6e
        E 0 91 3f 6e
        E 0 91 43 6e
        E 80 81 3a 40
        E 0 81 3f 40
        E 0 81 43 40
        E 112 91 3a 6e
        E 0 91 3e 6e
        E 0 91 44 6e
        E 80 81 3a 40
        E 0 81 3e 40
        E 0 81 44 40
        E 112 91 3f 6e
        E 0 91 45 6e
        E 0 91 48 6e
        E 80 81 3f 40
        E 0 81 45 40
        E 0 81 48 40
        E 16 91 3f 6e
        E 0 91 46 6e
        E 176 81 3f 40
        E 0 81 46 40
        E 16 91 41 6e
        E 80 81 41 40
        E 16 91 3f 6e
        E 80 81 3f 40
        E 16 91 3a 6e
        E 0 91 3e 6e
        E 368 81 3a 40
        E 0 81 3e 40
        E 16 91 3f 6e
        E 0 91 44 6e
        E 0 91 48 6e
        E 176 81 3f 40
        E 0 81 44 40
        E 16 91 41 6e
        E 0 91 44 6e
        E 16 81 41 40
        E 64 81 48 40
        E 16 91 4a 6e
        E 80 81 44 40
        E 0 81 4a 40
        E 16 91 3f 6e
        E 0 91 46 6e
        E 0 91 4b 6e
        E 176 81 3f 40
        E 0 81 46 40
        E 0 81 4b 40
        E 16 91 41 6e
        E 0 91 48 6e
        E 0 91 4d 6e
        E 176 81 41 40
        E 0 81 48 40
        E 0 81 4d 40
        E 16 91 41 6e
        E 0 91 46 6e
        E 0 91 4a 6e
        E 176 81 41 40
        E 0 81 4a 40
        E 16 91 3f 6e
        E 0 91 4b 6e
        E 176 81 46 40
        E 0 81 3f 40
        E 0 81 4b 40
        E 16 91 3f 6e
        E 0 91 48 6e
        E 176 81 48 40
        E 16 91 46 6e
        E 176 81 3f 40
        E 0 81 46 40
        E 16 91 41 6e
        E 0 91 46 6e
        E 80 81 46 40
        E 16 91 46 6e
        E 80 81 41 40
        E 16 91 41 6e
        E 80 81 46 40
        E 16 91 44 6e
        E 80 81 41 40
        E 0 81 44 40
        E 16 91 3c 6e
        E 0 91 41 6e
        E 176 81 3c 40
        E 0 81 41 40
        E 16 91 38 6e
        E 0 91 3e 6e
        E 80 81 3e 40
        E 16 91 41 6e
        E 80 81 38 40
        E 0 81 41 40
        E 16 91 37 6e
        E 0 91 3f 6e
        E 176 81 37 40
        E 16 91 38 6e
        E 176 81 38 40
        E 16 91 37 6e
        E 176 81 3f 40
        E 0 81 37 40
        E 16 91 3f 6e
        E 80 81 3f 40
        E 16 91 3e 6e
        E 80 81 3e 40
        E 16 91 37 6e
        E 0 91 3a 6e
        E 0 91 3f 6e
        E 176 81 37 40
        E 0 81 3a 40
        E 0 81 3f 40
        E 16 91 37 6e
        E 0 91 3c 6e
        E 0 91 3f 6e
        E 0 91 43 6e
        E 176 81 37 40
        E 0 81 3c 40
        E 0 81 3f 40
        E 0 81 43 40
        E 16 91 3a 6e
        E 0 91 3f 6e
        E 0 91 43 6e
        E 176 81 3a 40
        E 0 81 3f 40
        E 0 81 43 40
        E 16 91 3a 6e
        E 0 91 3f 6e
        E 0 91 46 6e
        E 80 81 3a 40
        E 0 81 3f 40
        E 0 81 46 40
        E 16 91 3c 6e
        E 0 91 3f 6e
        E 0 91 48 6e
        E 80 81 3c 40
        E 0 81 3f 40
        E 0 81 48 40
        E 16 91 3a 6e
        E 0 91 41 6e
        E 0 91 46 6e
        E 176 81 41 40
        E 16 91 3f 6e
        E 80 81 3a 40
        E 0 81 46 40
        E 16 91 43 6e
        E 0 91 4b 6e
        E 80 81 3f 40
        E 0 81 43 40
        E 0 81 4b 40
        E 16 91 3e 6e
        E 0 91 43 6e
        E 0 91 4a 6e
        E 176 81 3e 40
        E 16 91 3e 6e
        E 80 81 43 40
        E 0 81 4a 40
        E 16 91 41 6e
        E 0 91 48 6e
        E 80 81 3e 40
        E 0 81 41 40
        E 0 81 48 40
        E 16 91 3a 6e
        E 0 91 41 6e
        E 0 91 46 6e
        E 176 81 41 40
        E 16 91 3f 6e
        E 80 81 3a 40
        E 0 81 46 40
        E 0 81 3f 40
        E 16 91 3c 6e
        E 0 91 41 6e
        E 0 91 44 6e
        E 80 81 3c 40
        E 0 81 41 40
        E 0 81 44 40
        E 16 91 3a 6e
        E 0 91 3f 6e
        E 0 91 43 6e
        E 272 81 3a 40
        E 0 81 3f 40
        E 0 81 43 40
        E 16 91 3a 6e
        E 0 91 3f 6e
        E 0 91 43 6e
        E 80 81 3a 40
        E 0 81 3f 40
        E 0 81 43 40
        E 16 91 38 6e
        E 0 91 3c 6e
        E 0 91 41 6e
        E 176 81 38 40
        E 0 81 3c 40
        E 0 81 41 40
        E 16 91 38 6e
        E 0 91 3e 6e
        E 80 81 3e 40
        E 16 91 41 6e
        E 80 81 38 40
        E 0 81 41 40
        E 16 91 37 6e
        E 0 91 3a 6e
        E 0 91 3f 6e
        E 176 81 37 40
        E 0 81 3a 40
        E 0 81 3f 40
        E 16 91 3f 6e
        E 80 81 3f 40
        E 16 91 3e 6e
        E 80 81 3e 40
        E 16 91 37 6e
        E 0 91 3a 6e
        E 0 91 3f 6e
        E 176 81 37 40
        E 0 81 3a 40
        E 0 81 3f 40
        E 16 91 37 6e
        E 0 91 3c 6e
        E 0 91 3f 6e
        E 0 91 43 6e
        E 176 81 37 40
        E 0 81 3c 40
        E 0 81 3f 40
        E 0 81 43 40
        E 16 91 3a 6e
        E 0 91 3f 6e
        E 0 91 43 6e
        E 176 81 3a 40
        E 0 81 3f 40
        E 0 81 43 40
        E 16 91 3a 6e
        E 0 91 3f 6e
        E 0 91 46 6e
        E 80 81 3a 40
        E 0 81 3f 40
        E 0 81 46 40
        E 16 91 3c 6e
        E 0 91 3f 6e
        E 0 91 48 6e
        E 80 81 3c 40
        E 0 81 3f 40
        E 0 81 48 40
        E 16 91 3a 6e
        E 0 91 41 6e
        E 0 91 46 6e
        E 176 81 41 40
        E 16 91 3f 6e
        E 80 81 3a 40
        E 0 81 46 40
        E 16 91 43 6e
        E 0 91 4b 6e
        E 80 81 3f 40
        E 0 81 43 40
        E 0 81 4b 40
        E 16 91 3e 6e
        E 0 91 43 6e
        E 0 91 4a 6e
        E 176 81 3e 40
        E 16 91 3e 6e
        E 80 81 43 40
        E 0 81 4a 40
        E 16 91 41 6e
        E 0 91 48 6e
        E 80 81 3e 40
        E 0 81 41 40
        E 0 81 48 40
        E 16 91 3a 6e
        E 0 91 41 6e
        E 0 91 46 6e
        E 176 81 41 40
        E 16 91 3f 6e
        E 80 81 3a 40
        E 0 81 46 40
        E 0 81 3f 40
        E 16 91 3c 6e
        E 0 91 41 6e
        E 0 91 44 6e
        E 80 81 3c 40
        E 0 81 41 40
        E 0 81 44 40
        E 16 91 3a 6e
        E 0 91 3f 6e
        E 0 91 43 6e
        E 272 81 3a 40
        E 0 81 3f 40
        E 0 81 43 40
        E 16 91 3a 6e
        E 0 91 3f 6e
        E 0 91 43 6e
        E 80 81 3a 40
        E 0 81 3f 40
        E 0 81 43 40
        E 16 91 38 6e
        E 0 91 3c 6e
        E 0 91 41 6e
        E 176 81 38 40
        E 0 81 3c 40
        E 0 81 41 40
        E 16 91 38 6e
        E 0 91 3e 6e
        E 80 81 3e 40
        E 16 91 41 6e
        E 80 81 38 40
        E 0 81 41 40
        E 16 91 37 6e
        E 0 91 3a 6e
        E 0 91 3f 6e
        E 368 81 37 40
        E 0 81 3a 40
        E 0 81 3f 40
        E 16 91 43 6e
        E 0 91 46 6e
        E 0 91 4b 6e
        E 752 81 43 40
        E 0 81 46 40
        E 0 81 4b 40
        E 16 b0 7b 00
        GUID {880CF3B3-2430-D142-9D74-BF134772B570}
        IGNTEMPO 0 120 4 4
        SRCCOLOR 107
        VELLANE -1 86 6
        CFGEDITVIEW -141.896258 106.621319 49 7 0 0 0 0 0 0.5
        KEYSNAP 0
        TRACKSEL 252 0 0 ""
        EVTFILTER 0 -1 -1 -1 -1 0 0 0 0 -1 -1 -1 -1 0 -1 0 -1 -1
        CFGEDIT 1 0 0 0 0 0 1 0 1 1 1 0.25 349 84 1280 633 0 0 2 3 0 0 0 0 0 0.5 0 0 1 64
      >
    >
    <ITEM
      POSITION 0
      SNAPOFFS 0
      LENGTH 64.5
      LOOP 1
      ALLTAKES 0
      FADEIN 1 0 0 1 0 0
      FADEOUT 1 0 0 1 0 0
      MUTE 0
      SEL 0
      YPOS 0.714286 0.142857
      IGUID {85D86D19-8831-DF4E-8E72-7308020B88FF}
      IID 1
      NAME "Melody               - National_Anthems_-_Sri_Lanka.mid"
      VOLPAN 1 0 1 -1
      SOFFS 0 0
      PLAYRATE 1 1 0 -1 0 0.0025
      CHANMODE 0
      GUID {A79673BE-2545-0F4C-9FAD-AAD06D5C965F}
      <SOURCE MIDI
        HASDATA 1 192 QN
        POOLEDEVTS {CA9CFF38-7078-A24D-8CCE-99744AD3651A}
        <X 0 0
          /wNNZWxvZHkgICAgICAgICAgICAgIA==
        >
        <X 0 0
          /wFUSEUgU09GVFdBUkUgVE9PTFdPUktT
        >
        <X 0 0
          /wFXT1JMRCBBVExBUw==
        >
        <X 0 0
          /wFNdWx0aU1lZGlhIFdpbmRvd3MgVmVyc2lvbg==
        >
        <X 0 0
          /wFDb3VudHJ5OiBTUkkgTEFOS0E=
        >
        <X 0 0
          /wFBbnRoZW0gTmFtZTo=
        >
        <X 0 0
          /wEocCkgKGMpIFRoZSBTb2Z0d2FyZSBUb29sd29ya3MgMTk5MQ==
        >
        <X 0 0
          /wFub3Rlczo=
        >
        <X 0 0
          /wFkYXRlOg==
        >
        <X 0 0
          /wFlZGl0IGRhdGU6IDktNy05MQ==
        >
        <X 0 0
          /wFSRVZJU0VEOiAxMS0xNC05MQ==
        >
        <X 0 0
          /wFNTVdJTiBFRElUIERBVEU6IDktMTMtOTE=
        >
        <X 0 0
          /wE/PSBubyBtYXJraW5nICE9IGJwbSBwcm92aWRlZA==
        >
        <X 0 0
          /wFUaGlzIGZpbGUgcHJvdmlkZWQgYnk6
        >
        <X 0 0
          /wFSb2IgV2FsbGFjZSBNdXNpYw==
        >
        <X 0 0
          /wEoNjAyKSA5NzgtMDgzNQ==
        >
        E 1536 90 43 7f
        E 176 80 43 40
        E 16 90 43 7f
        E 176 80 43 40
        E 16 90 41 7f
        E 176 80 41 40
        E 16 90 3e 7f
        E 80 80 3e 40
        E 16 90 41 7f
        E 80 80 41 40
        E 16 90 3f 7f
        E 560 80 3f 40
        E 16 90 3f 7f
        E 80 80 3f 40
        E 16 90 3e 7f
        E 80 80 3e 40
        E 16 90 3f 7f
        E 80 80 3f 40
        E 16 90 41 7f
        E 80 80 41 40
        E 16 90 43 7f
        E 80 80 43 40
        E 16 90 41 7f
        E 80 80 41 40
        E 16 90 43 7f
        E 80 80 43 40
        E 16 90 44 7f
        E 80 80 44 40
        E 16 90 46 7f
        E 80 80 46 40
        E 16 90 48 7f
        E 80 80 48 40
        E 16 90 46 7f
        E 272 80 46 40
        E 16 90 4b 7f
        E 80 80 4b 40
        E 16 90 4a 7f
        E 272 80 4a 40
        E 16 90 48 7f
        E 80 80 48 40
        E 16 90 46 7f
        E 272 80 46 40
        E 16 90 44 7f
        E 80 80 44 40
        E 16 90 43 7f
        E 272 80 43 40
        E 16 90 43 7f
        E 80 80 43 40
        E 16 90 41 7f
        E 176 80 41 40
        E 16 90 3e 7f
        E 80 80 3e 40
        E 16 90 41 7f
        E 80 80 41 40
        E 16 90 3f 7f
        E 176 80 3f 40
        E 208 90 3a 7f
        E 80 80 3a 40
        E 16 90 3f 7f
        E 80 80 3f 40
        E 16 90 3f 7f
        E 80 80 3f 40
        E 16 90 3f 7f
        E 80 80 3f 40
        E 16 90 3f 7f
        E 80 80 3f 40
        E 16 90 3f 7f
        E 80 80 3f 40
        E 16 90 3e 7f
        E 80 80 3e 40
        E 16 90 3f 7f
        E 80 80 3f 40
        E 16 90 41 7f
        E 272 80 41 40
        E 16 90 41 7f
        E 80 80 41 40
        E 16 90 41 7f
        E 80 80 41 40
        E 16 90 43 7f
        E 80 80 43 40
        E 16 90 41 7f
        E 80 80 41 40
        E 16 90 43 7f
        E 80 80 43 40
        E 16 90 44 7f
        E 80 80 44 40
        E 16 90 46 7f
        E 80 80 46 40
        E 16 90 46 7f
        E 80 80 46 40
        E 16 90 46 7f
        E 80 80 46 40
        E 16 90 46 7f
        E 80 80 46 40
        E 16 90 46 7f
        E 80 80 46 40
        E 16 90 45 7f
        E 80 80 45 40
        E 16 90 48 7f
        E 80 80 48 40
        E 16 90 46 7f
        E 656 80 46 40
        E 112 90 48 7f
        E 80 80 48 40
        E 16 90 4b 7f
        E 80 80 4b 40
        E 16 90 4b 7f
        E 80 80 4b 40
        E 16 90 46 7f
        E 80 80 46 40
        E 16 90 48 7f
        E 80 80 48 40
        E 16 90 48 7f
        E 80 80 48 40
        E 16 90 44 7f
        E 80 80 44 40
        E 16 90 44 7f
        E 80 80 44 40
        E 16 90 46 7f
        E 176 80 46 40
        E 16 90 43 7f
        E 80 80 43 40
        E 16 90 43 7f
        E 80 80 43 40
        E 16 90 44 7f
        E 80 80 44 40
        E 16 90 44 7f
        E 80 80 44 40
        E 16 90 41 7f
        E 80 80 41 40
        E 16 90 41 7f
        E 80 80 41 40
        E 16 90 44 7f
        E 80 80 44 40
        E 16 90 44 7f
        E 80 80 44 40
        E 16 90 43 7f
        E 176 80 43 40
        E 16 90 41 7f
        E 80 80 41 40
        E 16 90 41 7f
        E 80 80 41 40
        E 16 90 3e 7f
        E 80 80 3e 40
        E 16 90 41 7f
        E 80 80 41 40
        E 16 90 3f 7f
        E 560 80 3f 40
        E 208 90 3f 7f
        E 80 80 3f 40
        E 16 90 3f 7f
        E 80 80 3f 40
        E 16 90 41 7f
        E 80 80 41 40
        E 16 90 41 7f
        E 80 80 41 40
        E 16 90 43 7f
        E 80 80 43 40
        E 16 90 43 7f
        E 80 80 43 40
        E 16 90 44 7f
        E 80 80 44 40
        E 16 90 44 7f
        E 80 80 44 40
        E 16 90 46 7f
        E 80 80 46 40
        E 16 90 46 7f
        E 80 80 46 40
        E 16 90 45 7f
        E 80 80 45 40
        E 16 90 48 7f
        E 80 80 48 40
        E 16 90 46 7f
        E 368 80 46 40
        E 16 90 41 7f
        E 80 80 41 40
        E 16 90 41 7f
        E 80 80 41 40
        E 16 90 43 7f
        E 80 80 43 40
        E 16 90 43 7f
        E 80 80 43 40
        E 16 90 44 7f
        E 176 80 44 40
        E 16 90 46 7f
        E 80 80 46 40
        E 16 90 45 7f
        E 80 80 45 40
        E 16 90 46 7f
        E 656 80 46 40
        E 112 90 48 7f
        E 80 80 48 40
        E 16 90 48 7f
        E 80 80 48 40
        E 16 90 4a 7f
        E 80 80 4a 40
        E 16 90 4a 7f
        E 80 80 4a 40
        E 16 90 4b 7f
        E 80 80 4b 40
        E 16 90 4b 7f
        E 80 80 4b 40
        E 16 90 4d 7f
        E 80 80 4d 40
        E 16 90 4d 7f
        E 80 80 4d 40
        E 16 90 4a 7f
        E 176 80 4a 40
        E 16 90 4b 7f
        E 176 80 4b 40
        E 16 90 48 7f
        E 176 80 48 40
        E 16 90 46 7f
        E 176 80 46 40
        E 16 90 46 7f
        E 80 80 46 40
        E 16 90 46 7f
        E 176 80 46 40
        E 16 90 44 7f
        E 80 80 44 40
        E 16 90 41 7f
        E 176 80 41 40
        E 16 90 3e 7f
        E 80 80 3e 40
        E 16 90 41 7f
        E 80 80 41 40
        E 16 90 3f 7f
        E 560 80 3f 40
        E 16 90 3f 7f
        E 80 80 3f 40
        E 16 90 3e 7f
        E 80 80 3e 40
        E 16 90 3f 7f
        E 80 80 3f 40
        E 16 90 41 7f
        E 80 80 41 40
        E 16 90 43 7f
        E 80 80 43 40
        E 16 90 41 7f
        E 80 80 41 40
        E 16 90 43 7f
        E 80 80 43 40
        E 16 90 44 7f
        E 80 80 44 40
        E 16 90 46 7f
        E 80 80 46 40
        E 16 90 48 7f
        E 80 80 48 40
        E 16 90 46 7f
        E 272 80 46 40
        E 16 90 4b 7f
        E 80 80 4b 40
        E 16 90 4a 7f
        E 272 80 4a 40
        E 16 90 48 7f
        E 80 80 48 40
        E 16 90 46 7f
        E 272 80 46 40
        E 16 90 44 7f
        E 80 80 44 40
        E 16 90 43 7f
        E 272 80 43 40
        E 16 90 43 7f
        E 80 80 43 40
        E 16 90 41 7f
        E 176 80 41 40
        E 16 90 3e 7f
        E 80 80 3e 40
        E 16 90 41 7f
        E 80 80 41 40
        E 16 90 3f 7f
        E 176 80 3f 40
        E 16 90 3f 7f
        E 80 80 3f 40
        E 16 90 3e 7f
        E 80 80 3e 40
        E 16 90 3f 7f
        E 80 80 3f 40
        E 16 90 41 7f
        E 80 80 41 40
        E 16 90 43 7f
        E 80 80 43 40
        E 16 90 41 7f
        E 80 80 41 40
        E 16 90 43 7f
        E 80 80 43 40
        E 16 90 44 7f
        E 80 80 44 40
        E 16 90 46 7f
        E 80 80 46 40
        E 16 90 48 7f
        E 80 80 48 40
        E 16 90 46 7f
        E 272 80 46 40
        E 16 90 4b 7f
        E 80 80 4b 40
        E 16 90 4a 7f
        E 272 80 4a 40
        E 16 90 48 7f
        E 80 80 48 40
        E 16 90 46 7f
        E 272 80 46 40
        E 16 90 44 7f
        E 80 80 44 40
        E 16 90 43 7f
        E 272 80 43 40
        E 16 90 43 7f
        E 80 80 43 40
        E 16 90 41 7f
        E 176 80 41 40
        E 16 90 3e 7f
        E 80 80 3e 40
        E 16 90 41 7f
        E 80 80 41 40
        E 16 90 3f 7f
        E 560 80 3f 40
        E 16 b0 7b 00
        GUID {1C87EDA1-1F61-8D4E-BDAD-6694C0601798}
        IGNTEMPO 0 120 4 4
        SRCCOLOR 105
        VELLANE -1 86 6
        CFGEDITVIEW 23479.302878 144.121925 49 14 0 0 0 0 0 0.5
        KEYSNAP 0
        TRACKSEL 252 0 0 ""
        EVTFILTER 0 -1 -1 -1 -1 0 0 0 0 -1 -1 -1 -1 0 -1 0 -1 -1
        CFGEDIT 1 0 0 0 0 0 1 0 1 1 1 0.25 333 68 1280 633 0 0 2 3 0 0 0 0 0 0.5 0 0 1 64
      >
    >
  >
  <TRACK {9E2CAE92-CCC1-1F4A-BCF6-93DCFE473BDF}
    NAME "16th pulse (mix w/ send?)"
    PEAKCOL 16576
    BEAT -1
    AUTOMODE 0
    VOLPAN 0.35481338923358 0 -1 -1 1
    MUTESOLO 0 0 0
    IPHASE 0
    ISBUS 0 0
    BUSCOMP 0 0
    SHOWINMIX 1 0.6667 0.5 1 0.5 0 0 0
    FREEMODE 0
    SEL 0
    REC 0 0 0 0 0 0 0
    VU 2
    MIDICTL -1 1
    TRACKHEIGHT 104 0
    INQ 0 0 0 0.5 100 0 0 100
    NCHAN 2
    FX 1
    TRACKID {9E2CAE92-CCC1-1F4A-BCF6-93DCFE473BDF}
    PERF 0
    MIDIOUT -1
    MAINSEND 1 0
    <FXCHAIN
      WNDRECT 36 359 724 387
      SHOW 0
      LASTSEL 0
      DOCKED 0
      BYPASS 1 0 0
      <VST "VSTi: BlueARP.x64 (graywolf2004)" BlueARP.x64.vst 0 "" 929322872
        eFdkN+5e7f4AAAAAAgAAAAEAAAAAAAAAAgAAAAAAAACMkwAAAQAAAAAAEAA=
        dGZmcAAAAQAOAAEAAQAAAAACCP8FAAAAAAAAAAD///8QDw8PAAAAAAAAAAAAAAAA////FwAAAAAAAAAAAAAAAAAAAP///xMAAAAAAAAAAAAAAAAAAAD///8JCQoKAAAA
        AAAAAAAAAAAA////NgAAAAAAAAAAAAAAAAAAAP///z4/AAAAAAAAAAAAAAAAAAD///8hISEiAAAAAAAAAAAAAAAA////GxsAAAAAAAAAAAAAAAAAAP///wAAAAAAAAAA
        AAAAAAAAAAD///8AAAAAAAAAAAAAAAAAAAAA////AAAAAAAAAAAAAAAAAAAAAP///wAAAAAAAAAAAAAAAAAAAAD///8AAAAAAAAAAAAAAAAAAAAA////AAAAAAAAAAAA
        AAAAAAAAAP///wAAAAAAAAAAAAAAAAAAAAD///8AAAAAAAAAAAAAAAAAAAAOBGQFAQEAfwB/AEAAAQABAAAAAAAAAAAAfwAAAAAAAAAAAAAAAAAAAAAAAAAAAAAAAAAA
        AAAAAAAAAAAAAAAAAAAAAAAAAAAAAAAAAAAAAAAAAAAAAAAAAAAFAAwAAAAAAAAAAAAAAAAAAAAAAAAAAAAAAAAAAAAAAAAAAAAAAAAAAAAAAAAAAAAAAAAAAAAAAAAA
        AAAAAAAICAgICAgICAgICAgICAgICAgICAgICAgICAgICAgICAgICAgICAgICAgICAgICAgICAgICAgICAgICAgICAgIAQEBAQEBAQEBAQEBAQEBAQEBAQEBAQEBAQEB
        AQEBAQEBAQEBAQEBAQEBAQEBAQEBAQEBAQEBAQEBAQEBAQEBAQQQBAgEBAQEBAQEBAQEBAQEBAQEBAQEBAQEBAQEBAQEBAQEBAQEBAQEBAQEBAQEBAQEBAQEBAQEBAQE
        BAQEBARgYGBgYGBgYGBgYGBgYGBgYGBgYGBgYGBgYGBgYGBgYGBgYGBgYGBgYGBgYGBgYGBgYGBgYGBgYGBgYGBgYGBgAAAAAAAAAAAAAAAAAAAAAAAAAAAAAAAAAAAA
        AAAAAAAAAAAAAAAAAAAAAAAAAAAAAAAAAAAAAAAAAAAAAAAAAAAAAAAAAAAAAAAAAAAAAAAAAAAAAAAAAAAAAAAAAAAAAAAAAAAAAAAAAAAAAAAAAAAAAAAAAAAAAAAA
        AAAAAAAtIEluaXRpYWwgcHJvZ3JhbSAtAP9/AAAE7A8RAQAAAfQwDxYBAAAAAAABADABAAAOEDIDAQcAfwB/AEAAAQABAAAAAAAAAAAAfwAAAAAAAAAAAAAAAAAAAAAA
        AAAAAAAAAAAAAAAAAAAAAAAAAAAAAAAAAAAAAAAAAAAAAAAAAAAAAAAAAAAAAAAAAAAAAAAAAAAAAAAAAAAAAAAAAAAAAAAAAAAAAAAAAAAAAAAAAAAAAAAAAAAAAAAA
        AAAAAAAAAAAAAAAAAAAICAgICAgICAgICAgICAgICAgICAgICAgICAgICAgICAgICAgICAgICAgICAgICAgICAgICAgICAgICAgICAgIAQEBAQEBAQEBAQEBAQEBAQEB
        AQEBAQEBAQEBAQEBAQEBAQEBAQEBAQEBAQEBAQEBAQEBAQEBAQEBAQEBAQEBAQQIECAECBAgBAgQIAQIECAEBAQEBAQEBAQEBAQEBAQEBAQEBAQEBAQEBAQEBAQEBAQE
        BAQEBAQEBAQEBAQEBARgYGBgYGBgYGBgYGBgYGBgYGBgYGBgYGBgYGBgYGBgYGBgYGBgYGBgYGBgYGBgYGBgYGBgYGBgYGBgYGBgYGBgAAAAAAAAAAAAAAAAAAAAAAAA
        AAAAAAAAAAAAAAAAAAAAAAAAAAAAAAAAAAAAAAAAAAAAAAAAAAAAAAAAAAAAAAAAAAAAAAAAAAAAAAAAAAAAAAAAAAAAAAAAAAAAAAAAAAAAAAAAAAAAAAAAAAAAAAAA
        AAAAAAAAAAAAAAAAAABTaW1wbGUgNGsgVXAAAAAAUDm+X/9/AACwmA8RAQAAAMQ5vl//fwAA9DAPFgEAAAAOEDIDAQcAfwB/AEAAAQABAAAAAAAAAAAAfwAAAAAAAAAA
        AAAAAAAAAAAAAAAAAAAAAAAAAAAAAAAAAAAAAAAAAAAAAAAAAAAAAAAAAAAAAAAAAAAAAAAAAAAAAAAAAAAAAAAAAAAAAAAAAAAAAAAAAAAAAAAAAAAAAAAAAAAAAAAA
        AAAAAAAAAAAAAAAAAAAAAAAAAAAAAAAICAgICAgICAgICAgICAgICAgICAgICAgICAgICAgICAgICAgICAgICAgICAgICAgICAgICAgICAgICAgICAgIAQEBAQEBAQEB
        AQEBAQEBAQEBAQEBAQEBAQEBAQEBAQEBAQEBAQEBAQEBAQEBAQEBAQEBAQEBAQEBAQEBAQEBASAQCAQgEAgEIBAIBCAQCAQEBAQEBAQEBAQEBAQEBAQEBAQEBAQEBAQE
        BAQEBAQEBAQEBAQEBAQEBAQEBAQEBARgYGBgYGBgYGBgYGBgYGBgYGBgYGBgYGBgYGBgYGBgYGBgYGBgYGBgYGBgYGBgYGBgYGBgYGBgYGBgYGBgYGBgAAAAAAAAAAAA
        AAAAAAAAAAAAAAAAAAAAAAAAAAAAAAAAAAAAAAAAAAAAAAAAAAAAAAAAAAAAAAAAAAAAAAAAAAAAAAAAAAAAAAAAAAAAAAAAAAAAAAAAAAAAAAAAAAAAAAAAAAAAAAAA
        AAAAAAAAAAAAAAAAAAAAAAAAAAAAAABTaW1wbGUgNGsgRG93bgAAUDm+X/9/AACwmA8RAQAAAMQ5vl//fwAA9DAPFgEAAAAOEDIDAQcAfwB/AEAAAQABAAAAAAAAAAAA
        fwAAAAAAAAAAAAAAAAAAAAAAAAAAAAAAAAAAAAAAAAAAAAAAAAAAAAAAAAAAAAAAAAAAAAAAAAAAAAAAAAAAAAAAAAAAAAAAAAAAAAAAAAAAAAAAAAAAAAAAAAAAAAAA
        AAAAAAAAAAAAAAAAAAAAAAAAAAAAAAAAAAAAAAAAAAAICAgICAgICAgICAgICAgICAgICAgICAgICAgICAgICAgICAgICAgICAgICAgICAgICAgICAgICAgICAgICAgI
        AQEBAQEBAQEBAQEBAQEBAQEBAQEBAQEBAQEBAQEBAQEBAQEBAQEBAQEBAQEBAQEBAQEBAQEBAQEBAQEBAQEBAQQIEAQIEAQIEAQIEAQIEAgEBAQEBAQEBAQEBAQEBAQE
        BAQEBAQEBAQEBAQEBAQEBAQEBAQEBAQEBAQEBAQEBARgYGBgYGBgYGBgYGBgYGBgYGBgYGBgYGBgYGBgYGBgYGBgYGBgYGBgYGBgYGBgYGBgYGBgYGBgYGBgYGBgYGBg
        AAAAAAAAAAAAAAAAAAAAAAAAAAAAAAAAAAAAAAAAAAAAAAAAAAAAAAAAAAAAAAAAAAAAAAAAAAAAAAAAAAAAAAAAAAAAAAAAAAAAAAAAAAAAAAAAAAAAAAAAAAAAAAAA
        AAAAAAAAAAAAAAAAAAAAAAAAAAAAAAAAAAAAAAAAAABTaW1wbGUgM2sgVXAAAAAAUDm+X/9/AACwmA8RAQAAAMQ5vl//fwAA9DAPFgEAAAAOEDIDAQcAfwB/AEAAAQAB
        AAAAAAAAAAAAfwAAAAAAAAAAAAAAAAAAAAAAAAAAAAAAAAAAAAAAAAAAAAAAAAAAAAAAAAAAAAAAAAAAAAAAAAAAAAAAAAAAAAAAAAAAAAAAAAAAAAAAAAAAAAAAAAAA
        AAAAAAAAAAAAAAAAAAAAAAAAAAAAAAAAAAAAAAAAAAAAAAAAAAAAAAAICAgICAgICAgICAgICAgICAgICAgICAgICAgICAgICAgICAgICAgICAgICAgICAgICAgICAgI
        CAgICAgICAgIAQEBAQEBAQEBAQEBAQEBAQEBAQEBAQEBAQEBAQEBAQEBAQEBAQEBAQEBAQEBAQEBAQEBAQEBAQEBAQEBAQEBARAIBBAIBBAIBBAIBBAIBAgEBAQEBAQE
        BAQEBAQEBAQEBAQEBAQEBAQEBAQEBAQEBAQEBAQEBAQEBAQEBAQEBARgYGBgYGBgYGBgYGBgYGBgYGBgYGBgYGBgYGBgYGBgYGBgYGBgYGBgYGBgYGBgYGBgYGBgYGBg
        YGBgYGBgYGBgAAAAAAAAAAAAAAAAAAAAAAAAAAAAAAAAAAAAAAAAAAAAAAAAAAAAAAAAAAAAAAAAAAAAAAAAAAAAAAAAAAAAAAAAAAAAAAAAAAAAAAAAAAAAAAAAAAAA
        AAAAAAAAAAAAAAAAAAAAAAAAAAAAAAAAAAAAAAAAAAAAAAAAAAAAAABTaW1wbGUgM2sgRG93bgAAUDm+X/9/AACwmA8RAQAAAMQ5vl//fwAA9DAPFgEAAAAOCFoDAQAA
        fwB/AEAAAQABAAAAAAAAAAAAfwAAAAAAAAAAAAAAAAAAAAAAAAAAAAAAAAAAAAAAAAAAAAAAAAAAAAAAAAAAAAAAAAAAAAAAAAAAAAAAAAAAAAAAAAAAAAAAAAAAAAAA
        AAAAAAAAAAAAAAAAAAAAAAAAAAAAAAAAAAAAAAAAAAAAAAAAAAAAAAAAAAAAAAAAAAAICAQICAgECAgICAgICAgICAgICAgICAgICAgICAgICAgICAgICAgICAgICAgI
        CAgICAgICAgICAgICAgICAgIBAAEAAQABAABAQEBAQEBAQEBAQEBAQEBAQEBAQEBAQEBAQEBAQEBAQEBAQEBAQEBAQEBAQEBAQEBAQEBAQEBAQQEBAQEBAQEBAQEBAQE
        BAQEBAQEBAQEBAQEBAQEBAQEBAQEBAQEBAQEBAQEBAQEBAQEBAQEBAQEBAQEBAQEBAQwYGBgMGBgYGBgYGBgYGBgYGBgYGBgYGBgYGBgYGBgYGBgYGBgYGBgYGBgYGBg
        YGBgYGBgYGBgYGBgYGBgYGBgAAAAAAAAAAAAAAAAAAAAAAAAAAAAAAAAAAAAAAAAAAAAAAAAAAAAAAAAAAAAAAAAAAAAAAAAAAAAAAAAAAAAAAAAAAAAAAAAAAAAAAAA
        AAAAAAAAAAAAAAAAAAAAAAAAAAAAAAAAAAAAAAAAAAAAAAAAAAAAAAAAAAAAAAAAAABDaG9yZCBEZWFkbWF1NSBwbHVja3MgdmFyMQARAQAAAMQ5vl//fwAA9DAPFgEA
        AAAOCFoDAQAAfwB/AEAAAQABAAAAAAAAAAAAfwEAAAAAAAAAAAAAAAAAAAAAAAAAAAAAAAAAAAAAAAAAAAAAAAAAAAAAAAAAAAAAAAAAAAAAAAAAAAAAAAAAAAAAAAAA
        AAAAAAAAAAAAAAAAAAAAAAAAAAAAAAAAAAAAAAAAAAAAAAAAAAAAAAAAAAAAAAAAAAAAAAAAAAAAAAAMCA4IDAgOCAgICAgICAgICAgICAgICAgICAgICAgICAgICAgI
        CAgICAgICAgICAgICAgICAgICAgICAgICAgIBAAEAAQABAABAQEBAQEBAQEBAQEBAQEBAQEBAQEBAQEBAQEBAQEBAQEBAQEBAQEBAQEBAQEBAQEBAQEBAQEBAQQEBAQE
        BAQEBAQEBAQEBAQEBAQEBAQEBAQEBAQEBAQEBAQEBAQEBAQEBAQEBAQEBAQEBAQEBAQEBAQEBAQEBAQwYGBgMGBgYGBgYGBgYGBgYGBgYGBgYGBgYGBgYGBgYGBgYGBg
        YGBgYGBgYGBgYGBgYGBgYGBgYGBgYGBgYGBgAAAAAAAAAAAAAAAAAAAAAAAAAAAAAAAAAAAAAAAAAAAAAAAAAAAAAAAAAAAAAAAAAAAAAAAAAAAAAAAAAAAAAAAAAAAA
        AAAAAAAAAAAAAAAAAAAAAAAAAAAAAAAAAAAAAAAAAAAAAAAAAAAAAAAAAAAAAAAAAAAAAAAAAAAAAABDaG9yZCBEZWFkbWF1NSBwbHVja3MgdmFyMgARAQAAAMQ5vl//
        fwAA9DAPFgEAAAAOEEoDAQAAfwB/AEAAAQABAAAAAAAAAAAAfwEAAAAAAAAAAAAAAAAAAAAAAAAAAAAAAAAAAAAAAAAAAAAAAAAAAAAAAAAAAAAAAAAAAAAAAAAAAAAA
        AAAAAAAAAAAAAAAAAAAAAAAAAAAAAAAAAAAAAAAAAAAAAAAAAAAAAAAAAAAAAAAAAAAAAAAAAAAAAAAAAAAAAAAAAAAICAgMCAgICAgMCAgICAwICAgICAgICAgICAgI
        CAgICAgICAgICAgICAgICAgICAgICAgICAgICAgICAgICAgIBAAABAAABAAABAAABAAEAAEBAQEBAQEBAQEBAQEBAQEBAQEBAQEBAQEBAQEBAQEBAQEBAQEBAQEBAQEB
        AQEBAQQEBAQEBAQEBAQEBAQEBAQEBAQEBAQEBAQEBAQEBAQEBAQEBAQEBAQEBAQEBAQEBAQEBAQEBAQEBAQEBAQEBARgYGBgYGBgYGBgYGBgYGBgYGBgYGBgYGBgYGBg
        YGBgYGBgYGBgYGBgYGBgYGBgYGBgYGBgYGBgYGBgYGBgYGBgAAAAAAAAAAAAAAAAAAAAAAAAAAAAAAAAAAAAAAAAAAAAAAAAAAAAAAAAAAAAAAAAAAAAAAAAAAAAAAAA
        AAAAAAAAAAAAAAAAAAAAAAAAAAAAAAAAAAAAAAAAAAAAAAAAAAAAAAAAAAAAAAAAAAAAAAAAAAAAAAAAAAAAAAAAAABQb2x5cGhvbmljIG9jdC4gUGx1Y2tzIHZhcjEA
        AQAAAMQ5vl//fwAA9DAPFgEAAAAOEEoDAQAAfwB/AEAAAQABAAAAAAAAAAAAfwEAAAAAAAAAAAAAAAAAAAAAAAAAAAAAAAAAAAAAAAAAAAAAAAAAAAAAAAAAAAAAAAAA
        AAAAAAAAAAAAAAAAAAAAAAAAAAAAAAAAAAAAAAAAAAAAAAAAAAAAAAAAAAAAAAAAAAAAAAAAAAAAAAAAAAAAAAAAAAAAAAAAAAAAAAAMCAgOCAgMCAgOCAgMCA4ICAgI
        CAgICAgICAgICAgICAgICAgICAgICAgICAgICAgICAgICAgICAgICAgICAgIBAAABAAABAAABAAABAAEAAEBAQEBAQEBAQEBAQEBAQEBAQEBAQEBAQEBAQEBAQEBAQEB
        AQEBAQEBAQEBAQEBAQQEBAQEBAQEBAQEBAQEBAQEBAQEBAQEBAQEBAQEBAQEBAQEBAQEBAQEBAQEBAQEBAQEBAQEBAQEBAQEBAQEBARgYGBgYGBgYGBgYGBgYGBgYGBg
        YGBgYGBgYGBgYGBgYGBgYGBgYGBgYGBgYGBgYGBgYGBgYGBgYGBgYGBgYGBgAAAAAAAAAAAAAAAAAAAAAAAAAAAAAAAAAAAAAAAAAAAAAAAAAAAAAAAAAAAAAAAAAAAA
        AAAAAAAAAAAAAAAAAAAAAAAAAAAAAAAAAAAAAAAAAAAAAAAAAAAAAAAAAAAAAAAAAAAAAAAAAAAAAAAAAAAAAAAAAAAAAAAAAAAAAABQb2x5cGhvbmljIG9jdC4gUGx1
        Y2tzIHZhcjIAAQAAAMQ5vl//fwAA9DAPFgEAAAAOEDQDAQAAfwB/AEAAAQABAAAAAAAAAAAAfwEAAAAAAAAAAAAAAAAAAAAAAAAAAAAAAAAAAAAAAAAAAAAAAAAAAAAA
        AAAAAAAAAAAAAAAAAAAAAAAAAAAAAAAAAAAAAAAAAAAAAAAAAAAAAAAAAAAAAAAAAAAAAAAAAAAAAAAAAAAAAAAAAAAAAAAAAAAAAAAAAAAAAAAAAAAMCAgOCAgMCAgO
        CAgMCA4ICAgICAgICAgICAgICAgICAgICAgICAgICAgICAgICAgICAgICAgICAgICAgICAgIBAICBAICBAICBAICBAIEAgEBAQEBAQEBAQEBAQEBAQEBAQEBAQEBAQEB
        AQEBAQEBAQEBAQEBAQEBAQEBAQEBAQQEBAQEBAQEBAQEBAQEBAQEBAQEBAQEBAQEBAQEBAQEBAQEBAQEBAQEBAQEBAQEBAQEBAQEBAQEBAQEBAQEBARgYGBgYGBgYGBg
        YGBgYGBgYGBgYGBgYGBgYGBgYGBgYGBgYGBgYGBgYGBgYGBgYGBgYGBgYGBgYGBgYGBgYGBgAAAAAAAAAAAAAAAAAAAAAAAAAAAAAAAAAAAAAAAAAAAAAAAAAAAAAAAA
        AAAAAAAAAAAAAAAAAAAAAAAAAAAAAAAAAAAAAAAAAAAAAAAAAAAAAAAAAAAAAAAAAAAAAAAAAAAAAAAAAAAAAAAAAAAAAAAAAAAAAAAAAAAAAAAAAABQb2x5cGhvbmlj
        IG9jdC4gUGx1Y2tzIHZhcjMAAQAAAMQ5vl//fwAA9DAPFgEAAAAOEDIDAQAAfwB/AEAAAQABAAAAAAAAAAAAfwAAAAAAAAAAAAAAAAAAAAAAAAAAAAAAAAAAAAAAAAAA
        AAAAAAAAAAAAAAAAAAAAAAAAAAAAAAAAAAAAAAAAAAAAAAAAAAAAAAAAAAAAAAAAAAAAAAAAAAAAAAAAAAAAAAAAAAAAAAAAAAAAAAAAAAAAAAAAAAAAAAAAAAAAAAAI
        CAgICAgICAgICAgICAgICAgICAgICAgICAgICAgICAgICAgICAgICAgICAgICAgICAgICAgICAgICAgICAgIBAQABAQABAQABAQABAAEAAEBAQEBAQEBAQEBAQEBAQEB
        AQEBAQEBAQEBAQEBAQEBAQEBAQEBAQEBAQEBAQEBAQQEBAQEBAQEBAQEBAQEBAQEBAQEBAQEBAQEBAQEBAQEBAQEBAQEBAQEBAQEBAQEBAQEBAQEBAQEBAQEBAQEBARg
        YGBgYGBgYGBgYGBgYGBgYGBgYGBgYGBgYGBgYGBgYGBgYGBgYGBgYGBgYGBgYGBgYGBgYGBgYGBgYGBgYGBgAAAAAAAAAAAAAAAAAAAAAAAAAAAAAAAAAAAAAAAAAAAA
        AAAAAAAAAAAAAAAAAAAAAAAAAAAAAAAAAAAAAAAAAAAAAAAAAAAAAAAAAAAAAAAAAAAAAAAAAAAAAAAAAAAAAAAAAAAAAAAAAAAAAAAAAAAAAAAAAAAAAAAAAAAAAABB
        cnAgQ2hvcmQgR2F0ZWQgMDEAX/9/AACwmA8RAQAAAMQ5vl//fwAA9DAPFgEAAAAOEDIDAQAAfwB/AEAAAQABAAAAAAAAAAAAfwAAAAAAAAAAAAAAAAAAAAAAAAAAAAAA
        AAAAAAAAAAAAAAAAAAAAAAAAAAAAAAAAAAAAAAAAAAAAAAAAAAAAAAAAAAAAAAAAAAAAAAAAAAAAAAAAAAAAAAAAAAAAAAAAAAAAAAAAAAAAAAAAAAAAAAAAAAAAAAAA
        AAAAAAAAAAAICAgICAgICAgICAgICAgICAgICAgICAgICAgICAgICAgICAgICAgICAgICAgICAgICAgICAgICAgICAgICAgIBAAEAAQABAAEAAQAAAQABAEBAQEBAQEB
        AQEBAQEBAQEBAQEBAQEBAQEBAQEBAQEBAQEBAQEBAQEBAQEBAQEBAQQEBAQEBAQEBAQEBAQEBAQEBAQEBAQEBAQEBAQEBAQEBAQEBAQEBAQEBAQEBAQEBAQEBAQEBAQE
        BAQEBAQEBARgYGBgYGBgYGBgYGBgYGBgYGBgYGBgYGBgYGBgYGBgYGBgYGBgYGBgYGBgYGBgYGBgYGBgYGBgYGBgYGBgYGBgAAAAAAAAAAAAAAAAAAAAAAAAAAAAAAAA
        AAAAAAAAAAAAAAAAAAAAAAAAAAAAAAAAAAAAAAAAAAAAAAAAAAAAAAAAAAAAAAAAAAAAAAAAAAAAAAAAAAAAAAAAAAAAAAAAAAAAAAAAAAAAAAAAAAAAAAAAAAAAAAAA
        AAAAAAAAAABBcnAgQ2hvcmQgR2F0ZWQgMDIAX/9/AACwmA8RAQAAAMQ5vl//fwAA9DAPFgEAAAAOEDIDAQAAfwB/AEAAAQABAAAAAAAAAAAAfwAAAAAAAAAAAAAAAAAA
        AAAAAAAAAAAAAAAAAAAAAAAAAAAAAAAAAAAAAAAAAAAAAAAAAAAAAAAAAAAAAAAAAAAAAAAAAAAAAAAAAAAAAAAAAAAAAAAAAAAAAAAAAAAAAAAAAAAAAAAAAAAAAAAA
        AAAAAAAAAAAAAAAAAAAAAAAICAgICAgICAgICAgICAgICAgICAgICAgICAgICAgICAgICAgICAgICAgICAgICAgICAgICAgICAgICAgICAgIBAQABAQABAQABAQABAAE
        AAEBAQEBAQEBAQEBAQEBAQEBAQEBAQEBAQEBAQEBAQEBAQEBAQEBAQEBAQEBAQEBAQQEBAQEBAQEBAQEBAQEBAQEBAQEBAQEBAQEBAQEBAQEBAQEBAQEBAQEBAQEBAQE
        BAQEBAQEBAQEBAQEBAQEBARgYGBgYGBgYGBgYGBgYGBgYGBgYGBgYGBgYGBgYGBgYGBgYGBgYGBgYGBgYGBgYGBgYGBgYGBgYGBgYGBgYGBgAAAAAAAAAAAAAAAAAAAA
        AAAAAAAAAAAAAAAAAAAAAAAAAAAAAAAAAAAAAAAAAAAAAAAAAAAAAAAAAAAAAAAAAAAAAAAAAAAAAAAAAAAAAAAAAAAAAAAAAAAAAAAAAAAAAAAAAAAAAAAAAAAAAAAA
        AAAAAAAAAAAAAAAAAAAAAABBcnAgQ2hvcmQgR2F0ZWQgMDMAX/9/AACwmA8RAQAAAMQ5vl//fwAA9DAPFgEAAAAOEDIDAQkAfwB/AUAAAQABAAAAAAAAAAAAfwAAAAAA
        AAAAAAAAAAAAAAAAAAAAAAAAAAAAAAAAAAAAAAAAAAAAAAAAAAAAAAAAAAAAAAAAAAAAAAAAAAAAAAAAAAAAAAAAAAAAAAAAAAAAAAAAAAAAAAAAAAAAAAAAAAAAAAAA
        AAAAAAAAAAAAAAAAAAAAAAAAAAAAAAAAAAAICAgICAgICAgICAgICAgICAgICAgICAgICAgICAgICAgICAgICAgICAgICAgICAgICAgICAgICAgICAgICAgIAQEBAQEB
        AQEBAQEBAQEBAQEBAQEBAQEBAQEBAQEBAQEBAQEBAQEBAQEBAQEBAQEBAQEBAQEBAQEBAQEBAQEBARAIBBAIBBAIBBAEEAgEEAgEBAQEBAQEBAQEBAQEBAQEBAQEBAQE
        BAQEBAQEBAQEBAQEBAQEBAQEBAQEBAQEBARgYGBgYGBgYGBgYGBgYGBgYGBgYGBgYGBgYGBgYGBgYGBgYGBgYGBgYGBgYGBgYGBgYGBgYGBgYGBgYGBgYGBgAAAAAAAA
        AAAAAAAAAAAAAAAAAAAAAAAAAAAAAAAAAAAAAAAAAAAAAAAAAAAAAAAAAAAAAAAAAAAAAAAAAAAAAAAAAAAAAAAAAAAAAAAAAAAAAAAAAAAAAAAAAAAAAAAAAAAAAAAA
        AAAAAAAAAAAAAAAAAAAAAAAAAAAAAAAAAABBcnAgM2sgU1NhdyAwMSAoUmFtbXN0ZWluKQARAQAAAMQ5vl//fwAA9DAPFgEAAAAOCDoDAQQAfwB/AEAAAQABAAAAAAAA
        AAAAfwAAAAAAAAAAAAAAAAAAAAAAAAAAAAAAAAAAAAAAAAAAAAAAAAAAAAAAAAAAAAAAAAAAAAAAAAAAAAAAAAAAAAAAAAAAAAAAAAAAAAAAAAAAAAAAAAAAAAAAAAAA
        AAAAAAAAAAAAAAAAAAAAAAAAAAAAAAAAAAAAAAAAAAAAAAAECAgECAgECAgICAgICAgICAgICAgICAgICAgICAgICAgICAgICAgICAgICAgICAgICAgICAgICAgICAgI
        CAgIAQABAQEBAQEAAAAAAAAAAAEBAQEBAQEBAQEBAQEBAQEBAQEBAQEBAQEBAQEBAQEBAQEBAQEBAQEBAQEBAQEBAQQEEAQECAQQBAQEBAQEBAQEBAQEBAQEBAQEBAQE
        BAQEBAQEBAQEBAQEBAQEBAQEBAQEBAQEBAQEBAQEBAQEBARgYGBgYGBgYGBgYGBgYGBgYGBgYGBgYGBgYGBgYGBgYGBgYGBgYGBgYGBgYGBgYGBgYGBgYGBgYGBgYGBg
        YGBgAAAAAAAAAAAAAAAAAAAAAAAAAAAAAAAAAAAAAAAAAAAAAAAAAAAAAAAAAAAAAAAAAAAAAAAAAAAAAAAAAAAAAAAAAAAAAAAAAAAAAAAAAAAAAAAAAAAAAAAAAAAA
        AAAAAAAAAAAAAAAAAAAAAAAAAAAAAAAAAAAAAAAAAAAAAABBcnAgM2sgU3VwZXJTYXcgMDIAX/9/AACwmA8RAQAAAMQ5vl//fwAA9DAPFgEAAAAOCDoDAQQAfwB/AEAA
        AQABAAAAAAAAAAAAfwAAAAAAAAAAAAAAAAAAAAAAAAAAAAAAAAAAAAAAAAAAAAAAAAAAAAAAAAAAAAAAAAAAAAAAAAAAAAAAAAAAAAAAAAAAAAAAAAAAAAAAAAAAAAAA
        AAAAAAAAAAAAAAAAAAAAAAAAAAAAAAAAAAAAAAAAAAAAAAAAAAAAAAAAAAAECAgECAQICAgICAgICAgICAgICAgICAgICAgICAgICAgICAgICAgICAgICAgICAgICAgI
        CAgICAgICAgICAgIAQEBAQEBAQEAAAAAAAAAAAEBAQEBAQEBAQEBAQEBAQEBAQEBAQEBAQEBAQEBAQEBAQEBAQEBAQEBAQEBAQEBAQQQCAQEBAgQBAQEBAQEBAQEBAQE
        BAQEBAQEBAQEBAQEBAQEBAQEBAQEBAQEBAQEBAQEBAQEBAQEBAQEBAQEBARgYGBgYGBgYGBgYGBgYGBgYGBgYGBgYGBgYGBgYGBgYGBgYGBgYGBgYGBgYGBgYGBgYGBg
        YGBgYGBgYGBgYGBgAAAAAAAAAAAAAAAAAAAAAAAAAAAAAAAAAAAAAAAAAAAAAAAAAAAAAAAAAAAAAAAAAAAAAAAAAAAAAAAAAAAAAAAAAAAAAAAAAAAAAAAAAAAAAAAA
        AAAAAAAAAAAAAAAAAAAAAAAAAAAAAAAAAAAAAAAAAAAAAAAAAAAAAAAAAABBcnAgM2sgU3VwZXJTYXcgMDMAX/9/AACwmA8RAQAAAMQ5vl//fwAA9DAPFgEAAAAOEDoD
        AQgAfwB/AEAAAQABAAAAAAAAAAAAfwAAAAAAAAAAAAAAAAAAAAAAAAAAAAAAAAAAAAAAAAAAAAAAAAAAAAAAAAAAAAAAAAAAAAAAAAAAAAAAAAAAAAAAAAAAAAAAAAAA
        AAAAAAEAAAAAAAAAAAAAAAAAAAAAAAAAAAAAAAAAAAAAAAAAAAAAAAAAAAAAAAAAAAAAAAAICAQIBAgICAgIBAgICAQICAgICAgICAgICAgICAgICAgICAgICAgICAgI
        CAgICAgICAgICAgICAgICAgICAgIAQIBAAEAAQIBAgEAAQIBAQEBAQEBAQEBAQEBAQEBAQEBAQEBAQEBAQEBAQEBAQEBAQEBAQEBAQEBAQEBAQEBAQQEBAQEBAQECAQE
        BAQEBAQEBAQEBAQEBAQEBAQEBAQEBAQEBAQEBAQEBAQEBAQEBAQEBAQEBAQEBAQEBAQEBARgYGBgYGBgYGBgYGBgYGBgYGBgYGBgYGBgYGBgYGBgYGBgYGBgYGBgYGBg
        YGBgYGBgYGBgYGBgYGBgYGBgYGBgAAAAAAAAAAAAAAAAAAAAAAAAAAAAAAAAAAAAAAAAAAAAAAAAAAAAAAAAAAAAAAAAAAAAAAAAAAAAAAAAAAAAAAAAAAAAAAAAAAAA
        AAAAAAAAAAAAAAAAAAAAAAAAAAAAAAAAAAAAAAAAAAAAAAAAAAAAAAAAAAAAAAAAAAAAAABBcnAgMmsgU3VwZXJTYXcgMDQAX/9/AACwmA8RAQAAAMQ5vl//fwAA9DAP
        FgEAAAAOEDoDAQUAfwB/AEAAAQABAAAAAAAAAAAAfwAAAAAAAAAAAAAAAAAAAAAAAAAAAAAAAAAAAAAAAAAAAAAAAAAAAAAAAAAAAAAAAAAAAAAAAAAAAAAAAAAAAAAA
        AAAAAAAAAAAAAAAAAAAAAAAAAAAAAAAAAAAAAAAAAAAAAAAAAAAAAAAAAAAAAAAAAAAAAAAAAAAAAAAAAAAIBAgIBAgICAgECAgECAgECAgICAgICAgICAgICAgICAgI
        CAgICAgICAgICAgICAgICAgICAgICAgICAgICAgIAQEBAQEBAQEBAQEBAQEBAQEBAQEBAQEBAQEBAQEBAQEBAQEBAQEBAQEBAQEBAQEBAQEBAQEBAQEBAQEBAQEBAQgE
        BBAEBBAECAQEEAQEEAQEBAQEBAQEBAQEBAQEBAQEBAQEBAQEBAQEBAQEBAQEBAQEBAQEBAQEBAQEBAQEBARgYGBgYGBgYGBgYGBgYGBgYGBgYGBgYGBgYGBgYGBgYGBg
        YGBgYGBgYGBgYGBgYGBgYGBgYGBgYGBgYGBgYGBgAAAAAAAAAAAAAAAAAAAAAAAAAAAAAAAAAAAAAAAAAAAAAAAAAAAAAAAAAAAAAAAAAAAAAAAAAAAAAAAAAAAAAAAA
        AAAAAAAAAAAAAAAAAAAAAAAAAAAAAAAAAAAAAAAAAAAAAAAAAAAAAAAAAAAAAAAAAAAAAAAAAAAAAAAAAABBcnAgMmsgU3VwZXJTYXcgMDUAX/9/AACwmA8RAQAAAMQ5
        vl//fwAA9DAPFgEAAAAOBDgDAQAAfwB/AEAAAQABAAAAAAAAAAAAfwAAAAAAAAAAAAAAAAAAAAAAAAAAAAAAAAAAAAAAAAAAAAAAAAAAAAAAAAAAAAAAAAAAAAAAAAAA
        AAAAAAAAAAAAAAAAAAAAAAAAAAAAAAAAAAAAAAAAAAAAAAAAAAAAAAAAAAAAAAAAAAAAAAAAAAAAAAAAAAAAAAAAAAAAAAAICAgICAgICAgICAgICAgICAgICAgICAgI
        CAgICAgICAgICAgICAgICAgICAgICAgICAgICAgICAgICAgICAgIAQEEAQEBAQEBAQEBAQEBAQEBAQEBAQEBAQEBAQEBAQEBAQEBAQEBAQEBAQEBAQEBAQEBAQEBAQEB
        AQEBAQEBAQQIBAgEBAQEBAQEBAQEBAQEBAQEBAQEBAQEBAQEBAQEBAQEBAQEBAQEBAQEBAQEBAQEBAQEBAQEBAQEBAQEBARgYGBgYGBgYGBgYGBgYGBgYGBgYGBgYGBg
        YGBgYGBgYGBgYGBgYGBgYGBgYGBgYGBgYGBgYGBgYGBgYGBgYGBgAAAAAAAAAAAAAAAAAAAAAAAAAAAAAAAAAAAAAAAAAAAAAAAAAAAAAAAAAAAAAAAAAAAAAAAAAAAA
        AAAAAAAAAAAAAAAAAAAAAAAAAAAAAAAAAAAAAAAAAAAAAAAAAAAAAAAAAAAAAAAAAAAAAAAAAAAAAAAAAAAAAAAAAAAAAABBcnAgM2sgQmVuYXNzaSBJbGx1c2lvbgCw
        mA8RAQAAAMQ5vl//fwAA9DAPFgEAAAAOEDIDAQcAfwB/AEAAAQABAAAAAAAAAAAAfwAAAAAAAAAAAAAAAAAAAAAAAAAAAAAAAAAAAAAAAAAAAAAAAAAAAAAAAAAAAAAA
        AAAAAAAAAAAAAAAAAAAAAAAAAAAAAAAAAAAAAAAAAAAAAAAAAAAAAAAAAAAAAAAAAAAAAAAAAAAAAAAAAAAAAAAAAAAAAAAAAAAAAAAAAAAECAgECAgICAQICAQICAQI
        CAgICAgICAgICAgICAgICAgICAgICAgICAgICAgICAgICAgICAgICAgICAgICAgIAQEBAQEBAQEBAQEBAQEBAQEBAQEBAQEBAQEBAQEBAQEBAQEBAQEBAQEBAQEBAQEB
        AQEBAQEBAQEBAQEBAQEBAQQIEAQQCBAgBCAQBAQIBBAEBAQEBAQEBAQEBAQEBAQEBAQEBAQEBAQEBAQEBAQEBAQEBAQEBAQEBAQEBAQEBARgYGBgYGBgYGBgYGBgYGBg
        YGBgYGBgYGBgYGBgYGBgYGBgYGBgYGBgYGBgYGBgYGBgYGBgYGBgYGBgYGBgYGBgAAAAAAAAAAAAAAAAAAAAAAAAAAAAAAAAAAAAAAAAAAAAAAAAAAAAAAAAAAAAAAAA
        AAAAAAAAAAAAAAAAAAAAAAAAAAAAAAAAAAAAAAAAAAAAAAAAAAAAAAAAAAAAAAAAAAAAAAAAAAAAAAAAAAAAAAAAAAAAAAAAAAAAAAAAAABBcnAgNGsgU1NhdyAwNyAo
        WVQgSW50cm8pAA8RAQAAAMQ5vl//fwAA9DAPFgEAAAAOID0DAQcAfwB/AEAAAQABAAAAAAAAAAAAfwAAAAAAAAAAAAAAAAAAAAAAAAAAAAAAAAAAAAAAAAAAAAAAAAAA
        AAAAAAAAAAAAAAAAAAAAAAAAAAAAAAAAAAAAAAAAAAAAAAAAAAAAAAAAAAAAAAAAAAAAAAAAAAAAAAAAAAAAAAAAAAAAAAAAAAAAAAAAAAAAAAAAAAAAAAAIBAgECAQI
        BAgECAQIBAgECAQIBAgECAQIBAgECAQICAgICAgICAgICAgICAgICAgICAgICAgICAgICAgICAgIAQEBAQEBAQEBAQEBAQEBAQEBAQEBAQEBAQEBAQEBAQEBAQEBAQEB
        AQEBAQEBAQEBAQEBAQEBAQEBAQEBAQEBAQQECAQQBAQECAQQBAQECAQQBAQECAQQBAQECAQQBBAIBAQEBAQEBAQEBAQEBAQEBAQEBAQEBAQEBAQEBAQEBARgYGBgYGBg
        YGBgYGBgYGBgYGBgYGBgYGBgYGBgYGBgYGBgYGBgYGBgYGBgYGBgYGBgYGBgYGBgYGBgYGBgYGBgAAAAAAAAAAAAAAAAAAAAAAAAAAAAAAAAAAAAAAAAAAAAAAAAAAAA
        AAAAAAAAAAAAAAAAAAAAAAAAAAAAAAAAAAAAAAAAAAAAAAAAAAAAAAAAAAAAAAAAAAAAAAAAAAAAAAAAAAAAAAAAAAAAAAAAAAAAAAAAAAAAAAAAAAAAAABBcnAgM2sg
        U1NhdyAwOCAoMzIgc3RlcHMpAA8RAQAAAMQ5vl//fwAA9DAPFgEAAAAOEEUDAQQAfwB/AEAAAQABAAAAAAAAAAAAfwAAAAAAAAAAAAAAAAAAAAAAAAAAAAAAAAAAAAAA
        AAAAAAAAAAAAAAAAAAAAAAAAAAAAAAAAAAAAAAAAAAAAAAAAAAAAAAAAAAAAAAAAAAAAAAAAAAAAAAAAAAAAAAAAAAAAAAAAAAAAAAAAAAAAAAAAAAAAAAAAAAAAAAAA
        AAAEBAgEBAgEBAgEBAgEBAgECAgICAgICAgICAgICAgICAgICAgICAgICAgICAgICAgICAgICAgICAgICAgICAgIAQABAAEBAAEBAAEBAAEBAAEBAQEBAQEBAQEBAQEB
        AQEBAQEBAQEBAQEBAQEBAQEBAQEBAQEBAQEBAQEBAQEBAQQECAQECAQECAQECAQECAQEBAQEBAQEBAQEBAQEBAQEBAQEBAQEBAQEBAQEBAQEBAQEBAQEBAQEBAQEBAQE
        BARgYGBgYGBgYGBgYGBgYGBgYGBgYGBgYGBgYGBgYGBgYGBgYGBgYGBgYGBgYGBgYGBgYGBgYGBgYGBgYGBgYGBgAAAAAAAAAAAAAAAAAAAAAAAAAAAAAAAAAAAAAAAA
        AAAAAAAAAAAAAAAAAAAAAAAAAAAAAAAAAAAAAAAAAAAAAAAAAAAAAAAAAAAAAAAAAAAAAAAAAAAAAAAAAAAAAAAAAAAAAAAAAAAAAAAAAAAAAAAAAAAAAAAAAAAAAAAA
        AABBcnAgMmsgQ29tbXVuaWNhdGlvbiB2MQCwmA8RAQAAAMQ5vl//fwAA9DAPFgEAAAAOEDwDAQQAfwB/AEAAAQABAAAAAAAAAAAAfwAAAAAAAAAAAAAAAAAAAAAAAAAA
        AAAAAAAAAAAAAAAAAAAAAAAAAAAAAAAAAAAAAAAAAAAAAAAAAAAAAAAAAAAAAAAAAAAAAAAAAAAAAAAAAAAAAAAAAAAAAAAAAAAAAAAAAAAAAAAAAAAAAAAAAAAAAAAA
        AAAAAAAAAAAAAAACBAgCBAgCBAgCBAgCBAgECAgICAgICAgICAgICAgICAgICAgICAgICAgICAgICAgICAgICAgICAgICAgICAgIAQEBAQEBAQEBAQEBAQEBAQEBAQEB
        AQEBAQEBAQEBAQEBAQEBAQEBAQEBAQEBAQEBAQEBAQEBAQEBAQEBAQEBAQQECAQECAQECAQECAQECAQEBAQEBAQEBAQEBAQEBAQEBAQEBAQEBAQEBAQEBAQEBAQEBAQE
        BAQEBAQEBAQEBARgYGBgYGBgYGBgYGBgYGBgYGBgYGBgYGBgYGBgYGBgYGBgYGBgYGBgYGBgYGBgYGBgYGBgYGBgYGBgYGBgYGBgAAAAAAAAAAAAAAAAAAAAAAAAAAAA
        AAAAAAAAAAAAAAAAAAAAAAAAAAAAAAAAAAAAAAAAAAAAAAAAAAAAAAAAAAAAAAAAAAAAAAAAAAAAAAAAAAAAAAAAAAAAAAAAAAAAAAAAAAAAAAAAAAAAAAAAAAAAAAAA
        AAAAAAAAAAAAAABBcnAgMmsgQ29tbXVuaWNhdGlvbiB2MgCwmA8RAQAAAMQ5vl//fwAA9DAPFgEAAAAOED0DAQAAfwB/AEAAAQABAAAAAAAAAAAAfwAAAAAAAAAAAAAA
        AAAAAAAAAAAAAAAAAAAAAAAAAAAAAAAAAAAAAAAAAAAAAAAAAAAAAAAAAAAAAAAAAAAAAAAAAAAAAAAAAAAAAAAAAAAAAAAAAAAAAAAAAAAAAAAAAAAAAAAAAAAAAAAA
        AAAAAAAAAAAAAAAAAAAAAAAAAAAIAgQIAgQIBAgCBAgEAggECAIIAggCBAgCBAgCCAIEAggICAgICAgICAgICAgICAgICAgICAgICAgICAgICAgIAQEBAQEBAQEBAQEB
        AQEBAQEBAQEBAQEBAQEBAQEBAQEBAQEBAQEBAQEBAQEBAQEBAQEBAQEBAQEBAQEBAQEBAQgEBBAEBBAECAQEEAQEEAQIBAQQBAQQBAQEEAQEEAQEBAQEBAQEBAQEBAQE
        BAQEBAQEBAQEBAQEBAQEBAQEBARgYGBgYGBgYGBgYGBgYGBgYGBgYGBgYGBgYGBgYGBgYGBgYGBgYGBgYGBgYGBgYGBgYGBgYGBgYGBgYGBgYGBgAAAAAAAAAAAAAAAA
        AAAAAAAAAAAAAAAAAAAAAAAAAAAAAAAAAAAAAAAAAAAAAAAAAAAAAAAAAAAAAAAAAAAAAAAAAAAAAAAAAAAAAAAAAAAAAAAAAAAAAAAAAAAAAAAAAAAAAAAAAAAAAAAA
        AAAAAAAAAAAAAAAAAAAAAAAAAABBcnAgMmsgU3VwZXJTYXcgMTEgKEJlbmFzc2kpAAAAAMQ5vl//fwAA9DAPFgEAAAAOEDUDAQcAfwB/AEAAAQABAAAAAAAAAAAAfwAA
        AAAAAAAAAAAAAAAAAAAAAAAAAAAAAAAAAAAAAAAAAAAAAAAAAAAAAAAAAAAAAAAAAAAAAAAAAAAAAAAAAAAAAAAAAAAAAAAAAAAAAAAAAAAAAAAAAAAAAAAAAAAAAAAA
        AAAAAAAAAAAAAAAAAAAAAAAAAAAAAAAAAAAAAAAIAggCCAIECAIECAIIAgQCCAgICAgICAgICAgICAgICAgICAgICAgICAgICAgICAgICAgICAgICAgICAgICAgIAQEB
        AQEBAQEBAQEBAQEBAQEBAQEBAQEBAQEBAQEBAQEBAQEBAQEBAQEBAQEBAQEBAQEBAQEBAQEBAQEBAQEBARAECAQIBAQQBAQIBAgEBAQEBAQEBAQEBAQEBAQEBAQEBAQE
        BAQEBAQEBAQEBAQEBAQEBAQEBAQEBAQEBAQEBARgYGBgYGBgYGBgYGBgYGBgYGBgYGBgYGBgYGBgYGBgYGBgYGBgYGBgYGBgYGBgYGBgYGBgYGBgYGBgYGBgYGBgAAAA
        AAAAAAAAAAAAAAAAAAAAAAAAAAAAAAAAAAAAAAAAAAAAAAAAAAAAAAAAAAAAAAAAAAAAAAAAAAAAAAAAAAAAAAAAAAAAAAAAAAAAAAAAAAAAAAAAAAAAAAAAAAAAAAAA
        AAAAAAAAAAAAAAAAAAAAAAAAAAAAAAAAAAAAAABBcnAgMmsgU3VwZXJTYXcgMTIAX/9/AACwmA8RAQAAAMQ5vl//fwAA9DAPFgEAAAAOEGQDAQQAfwB/AE0AAQABCQAA
        AAAAAAAAfwAAAAAAAAAAAAAAAAAAAAAAAAAAAAAAAAAAAAAAAAAAAAAAAAAAAAAAAAAAAAAAAAAAAAAAAAAAAAAAAAAAAAAAAAAAAAAAAAAAAAAAAAAAAAAAAAAAAAAA
        AAAAAAAAAAAAAAAAAAAAAAAAAAAAAAAAAAAAAAAAAAAAAAAAAAAECAQECAQEBAQIBAQIBAgECAgICAgICAgICAgICAgICAgICAgICAgICAgICAgICAgICAgICAgICAgI
        CAgICAgIAQEBAQEAAQEAAQEAAQEBAQEBAQEBAQEBAQEBAQEBAQEBAQEBAQEBAQEBAQEBAQEBAQEBAQEBAQEBAQEBAQEBAQQIBCAIBBAEBAgEBAgEEAQEBAQEBAQEBAQE
        BAQEBAQEBAQEBAQEBAQEBAQEBAQEBAQEBAQEBAQEBAQEBAQEBARwUEBgUFB/YEBQYGBwYFBwYGBgYGBgYGBgYGBgYGBgYGBgYGBgYGBgYGBgYGBgYGBgYGBgYGBgYGBg
        YGBgYGBgAAAAAAAAAAAAAAAAAAAAAAAAAAAAAAAAAAAAAAAAAAAAAAAAAAAAAAAAAAAAAAAAAAAAAAAAAAAAAAAAAAAAAAAAAAAAAAAAAAAAAAAAAAAAAAAAAAAAAAAA
        AAAAAAAAAAAAAAAAAAAAAAAAAAAAAAAAAAAAAAAAAAAAAAAAAABBcnAgMmsgU3VwZXJTYXcgMTMgKHBocmVhcXVlKQAAAMQ5vl//fwAA9DAPFgEAAAAOCB8FAQEAfwB/
        AEAAAQABAAAAAAAAAAAAfwAAAAAAAAAAAAAAAAAAAAAAAAAAAAAAAAAAAAAAAAAAAAAAAAAAAAAAAAAAAAAAAAAAAAAAAAAAAAAAAAAAAAAAAAAAAAAAAAAAAAAAAAAA
        AAAAAAAAAAAAAAAAAAAAAAAAAAAAAAAAAAAAAAAAAAAAAAAAAAAAAAAAAAAAAAAICAgICAgICAgICAgICAgICAgICAgICAgICAgICAgICAgICAgICAgICAgICAgICAgI
        CAgICAgICAgICAgICAgIAQEBAQEBAQEBAQEBAQEBAQEBAQEBAQEBAQEBAQEBAQEBAQEBAQEBAQEBAQEBAQEBAQEBAQEBAQEBAQEBAQEBARAECAQQBAgEBAQEBAQEBAQE
        BAQEBAQEBAQEBAQEBAQEBAQEBAQEBAQEBAQEBAQEBAQEBAQEBAQEBAQEBAQEBARgYGBQYGBgUGBgYGBgYGBgYGBgYGBgYGBgYGBgYGBgYGBgYGBgYGBgYGBgYGBgYGBg
        YGBgYGBgYGBgYGBgYGBgAAAAAAAAAAAAAAAAAAAAAAAAAAAAAAAAAAAAAAAAAAAAAAAAAAAAAAAAAAAAAAAAAAAAAAAAAAAAAAAAAAAAAAAAAAAAAAAAAAAAAAAAAAAA
        AAAAAAAAAAAAAAAAAAAAAAAAAAAAAAAAAAAAAAAAAAAAAAAAAAAAAAAAAAAAAABBcnAgM2sgQmVsbHMgMDEAUDm+X/9/AACwmA8RAQAAAMQ5vl//fwAA9DAPFgEAAAAO
        CB8FAQAAfwB/AEAAAQABAAAAAAAAAAAAfwAAAAAAAAAAAAAAAAAAAAAAAAAAAAAAAAAAAAAAAAAAAAAAAAAAAAAAAAAAAAAAAAAAAAAAAAAAAAAAAAAAAAAAAAAAAAAA
        AAAAAAAAAAAAAAAAAAAAAAAAAAAAAAAAAAAAAAAAAAAAAAAAAAAAAAAAAAAAAAAAAAAAAAAAAAAICAgICAgICAgICAgICAgICAgICAgICAgICAgICAgICAgICAgICAgI
        CAgICAgICAgICAgICAgICAgICAgICAgIAQEBAQEBAQEBAQEBAQEBAQEBAQEBAQEBAQEBAQEBAQEBAQEBAQEBAQEBAQEBAQEBAQEBAQEBAQEBAQEBAQEBARAIBBAIBBAI
        BAQEBAQEBAQEBAQEBAQEBAQEBAQEBAQEBAQEBAQEBAQEBAQEBAQEBAQEBAQEBAQEBAQEBAQEBARgYGBgYGBgYGBgYGBgYGBgYGBgYGBgYGBgYGBgYGBgYGBgYGBgYGBg
        YGBgYGBgYGBgYGBgYGBgYGBgYGBgYGBgAAAAAAAAAAAAAAAAAAAAAAAAAAAAAAAAAAAAAAAAAAAAAAAAAAAAAAAAAAAAAAAAAAAAAAAAAAAAAAAAAAAAAAAAAAAAAAAA
        AAAAAAAAAAAAAAAAAAAAAAAAAAAAAAAAAAAAAAAAAAAAAAAAAAAAAAAAAAAAAAAAAAAAAAAAAABBcnAgM2sgQmVsbHMgMDIAUDm+X/9/AACwmA8RAQAAAMQ5vl//fwAA
        9DAPFgEAAAAOCE0FAQgAfwB/AE0AAQABAAAAAAAAAAAAfwAAAAAAAAAAAAAAAAAAAAAAAAAAAAAAAAAAAAAAAAAAAAAAAAAAAAAAAAAAAAAAAAAAAAAAAAAAAAAAAAAA
        AAAAAAAAAAAAAAAAAAAAAAAAAAAAAAAAAAAAAAAAAAAAAAAAAAAAAAAAAAAAAAAAAAAAAAAAAAAAAAAAAAAAAAAECAgIBAgIEAgICAgICAgICAgICAgICAgICAgICAgI
        CAgICAgICAgICAgICAgICAgICAgICAgICAgICAgICAgIAQEBAQEBAQEBAQEBAQEBAQEBAQEBAQEBAQEBAQEBAQEBAQEBAQEBAQEBAQEBAQEBAQEBAQEBAQEBAQEBAQEB
        AQQECBAEBAgEBAQEBAQEBAQEBAQEBAQEBAQEBAQEBAQEBAQEBAQEBAQEBAQEBAQEBAQEBAQEBAQEBAQEBAQEBARgYGBgYGBgYGBgYGBgYGBgYGBgYGBgYGBgYGBgYGBg
        YGBgYGBgYGBgYGBgYGBgYGBgYGBgYGBgYGBgYGBgYGBgAAAAAAAAAAAAAAAAAAAAAAAAAAAAAAAAAAAAAAAAAAAAAAAAAAAAAAAAAAAAAAAAAAAAAAAAAAAAAAAAAAAA
        AAAAAAAAAAAAAAAAAAAAAAAAAAAAAAAAAAAAAAAAAAAAAAAAAAAAAAAAAAAAAAAAAAAAAAAAAAAAAAAAAAAAAABBcnAgMmsgU29mdEJlbGxzIDAxAP9/AACwmA8RAQAA
        AMQ5vl//fwAA9DAPFgEAAAAOCEIFAQgAfwB/AEAAAQABAAAAAAAAAAAAfwAAAAAAAAAAAAAAAAAAAAAAAAAAAAAAAAAAAAAAAAAAAAAAAAAAAAAAAAAAAAAAAAAAAAAA
        AAAAAAAAAAAAAAAAAAAAAAAAAAAAAAAAAAAAAAAAAAAAAAAAAAAAAAAAAAAAAAAAAAAAAAAAAAAAAAAAAAAAAAAAAAAAAAAAAAAEEAgIBBAICAgICAgICAgICAgICAgI
        CAgICAgICAgICAgICAgICAgICAgICAgICAgICAgICAgICAgICAgICAgIAQEBAQEBAQEBAQEBAQEBAQEBAQEBAQEBAQEBAQEBAQEBAQEBAQEBAQEBAQEBAQEBAQEBAQEB
        AQEBAQEBAQEBAQQEBAgEBAQQBAQEBAQEBAQEBAQEBAQEBAQEBAQEBAQEBAQEBAQEBAQEBAQEBAQEBAQEBAQEBAQEBAQEBAQEBARgYGBgYGBgYGBgYGBgYGBgYGBgYGBg
        YGBgYGBgYGBgYGBgYGBgYGBgYGBgYGBgYGBgYGBgYGBgYGBgYGBgYGBgAAAAAAAAAAAAAAAAAAAAAAAAAAAAAAAAAAAAAAAAAAAAAAAAAAAAAAAAAAAAAAAAAAAAAAAA
        AAAAAAAAAAAAAAAAAAAAAAAAAAAAAAAAAAAAAAAAAAAAAAAAAAAAAAAAAAAAAAAAAAAAAAAAAAAAAAAAAAAAAAAAAAAAAAAAAABBcnAgMmsgU29mdEJlbGxzIDAyAP9/
        AACwmA8RAQAAAMQ5vl//fwAA9DAPFgEAAAAOEEgDAQAAfwB/AEAAAQABAAAAAAAAAAAAfwAAAAAAAAAAAAAAAAAAAAAAAAAAAAAAAAAAAAAAAAAAAAAAAAAAAAAAAAAA
        AAAAAAAAAAAAAAAAAAAAAAAAAAAAAAAAAAAAAAAAAAAAAQAAAAAAAAAAAAAAAAAAAAAAAAAAAAAAAAAAAAAAAAAAAAAAAAAAAAAAAAAAAAAAAAAECAQECAQICAgECAgI
        BAgICAgICAgICAgICAgICAgICAgICAgICAgICAgICAgICAgICAgICAgICAgICAgICAgIAQABAAABAwABAQABAAEDAAEBAQEBAQEBAQEBAQEBAQEBAQEBAQEBAQEBAQEB
        AQEBAQEBAQEBAQEBAQEBAQEBAQQEBAQEBAQEBAQEBAQEBAQEBAQEBAQEBAQEBAQEBAQEBAQEBAQEBAQEBAQEBAQEBAQEBAQEBAQEBAQEBAQEBARgYGBgYGBgYGBgYGBg
        YGBgYGBgYGBgYGBgYGBgYGBgYGBgYGBgYGBgYGBgYGBgYGBgYGBgYGBgYGBgYGBgYGBgAAAAAAAAAAAAAAAAAAAAAAAAAAAAAAAAAAAAAAAAAAAAAAAAAAAAAAAAAAAA
        AAAAAAAAAAAAAAAAAAAAAAAAAAAAAAAAAAAAAAAAAAAAAAAAAAAAAAAAAAAAAAAAAAAAAAAAAAAAAAAAAAAAAAAAAAAAAAAAAAAAAAAAAAAAAABTZXEgMmsgQWNpZE1v
        bm8gMDEAX/9/AACwmA8RAQAAAMQ5vl//fwAA9DAPFgEAAAAOEEIDAQUAfwB/AEAAAQABAAAAAAAAAAAAfwAAAAAAAAAAAAAAAAAAAAAAAAAAAAAAAAAAAAAAAAAAAAAA
        AAAAAAAAAAAAAAAAAAAAAAAAAAAAAAAAAAAAAAAAAAAAAAAHAAAAAAAAAAAAAAAAAAAAAAAAAAAAAAAAAAAAAAAAAAAAAAAAAAAAAAAAAAAAAAAAAAAAAAAAAAAECAgE
        CAgIBAgEBAgECAgECAgICAgICAgICAgICAgICAgICAgICAgICAgICAgICAgICAgICAgICAgICAgICAgIAQAAAQAAAQMAAQMAAQIBAwEBAQEBAQEBAQEBAQEBAQEBAQEB
        AQEBAQEBAQEBAQEBAQEBAQEBAQEBAQEBAQEBAQQEBAQEBAQEBAQIBAQEBAgEBAQEBAQEBAQEBAQEBAQEBAQEBAQEBAQEBAQEBAQEBAQEBAQEBAQEBAQEBAQEBARgYGBg
        YGBgYGBgYGBgYGBgYGBgYGBgYGBgYGBgYGBgYGBgYGBgYGBgYGBgYGBgYGBgYGBgYGBgYGBgYGBgYGBgAAAAAAAAAAAAAAAAAAAAAAAAAAAAAAAAAAAAAAAAAAAAAAAA
        AAAAAAAAAAAAAAAAAAAAAAAAAAAAAAAAAAAAAAAAAAAAAAAAAAAAAAAAAAAAAAAAAAAAAAAAAAAAAAAAAAAAAAAAAAAAAAAAAAAAAAAAAAAAAAAAAAAAAAAAAABTZXEg
        MmsgQWNpZE1vbm8gMDIAX/9/AACwmA8RAQAAAMQ5vl//fwAA9DAPFgEAAAAOEDoDAQAAfwB/AEAAAQABAAAAAAAAAAAAfwAAAAAAAAAAAAAAAAAAAAAAAAAAAAAAAAAA
        AAAAAAAAAAAAAAAAAAAAAAAAAAAAAAAAAAAAAAAAAAAAAAAAAAAAAAAAAAAAAAAAAAAAAAAAAAAAAAAAAAAAAAAAAAAAAAAAAAAAAAAAAAAAAAAAAAAAAAAAAAAAAAAA
        AAAAAAAIBAgQBAgICAQICAgECAQICAgICAgICAgICAgICAgICAgICAgICAgICAgICAgICAgICAgICAgICAgICAgICAgIAQEBAwEBAwMBAwEDAQIBAQEBAQEBAQEBAQEB
        AQEBAQEBAQEBAQEBAQEBAQEBAQEBAQEBAQEBAQEBAQEBAQEBAQQEBAQEBAgEBAQECAQEBAgEBAQEBAQEBAQEBAQEBAQEBAQEBAQEBAQEBAQEBAQEBAQEBAQEBAQEBAQE
        BAQEBARgYGBgYGBgYGBgYGBgYGBgYGBgYGBgYGBgYGBgYGBgYGBgYGBgYGBgYGBgYGBgYGBgYGBgYGBgYGBgYGBgYGBgAAAAAAAAAAAAAAAAAAAAAAAAAAAAAAAAAAAA
        AAAAAAAAAAAAAAAAAAAAAAAAAAAAAAAAAAAAAAAAAAAAAAAAAAAAAAAAAAAAAAAAAAAAAAAAAAAAAAAAAAAAAAAAAAAAAAAAAAAAAAAAAAAAAAAAAAAAAAAAAAAAAAAA
        AAAAAABTZXEgMmsgQWNpZE1vbm8gMDMAX/9/AACwmA8RAQAAAMQ5vl//fwAA9DAPFgEAAAAOEDoDAQAAfwB/AEAAAQABAAAAAAAAAAAAfwAAAAAAAAAAAAAAAAAAAAAA
        AAAAAAAAAAAAAAAAAAAAAAAAAAAAAAAAAAAAAAAAAAAAAAAAAAAAAAAAAAAAAAAAAAAAAAAAAAAAAAAAAQAAAAAAAAAAAAAAAAAAAAAAAAAAAAAAAAAAAAAAAAAAAAAA
        AAAAAAAAAAAAAAAAAAAIEAgECAgECAgIBAgECAgECAgICAgICAgICAgICAgICAgICAgICAgICAgICAgICAgICAgICAgICAgICAgICAgIAQEDAQEDAQMBAwEBAQEBAQEB
        AQEBAQEBAQEBAQEBAQEBAQEBAQEBAQEBAQEBAQEBAQEBAQEBAQEBAQEBAQEBAQQEBAQIBAQEBAgEBAQIBAQEBAQEBAQEBAQEBAQEBAQEBAQEBAQEBAQEBAQEBAQEBAQE
        BAQEBAQEBAQEBAQEBARgYGBgYGBgYGBgYGBgYGBgYGBgYGBgYGBgYGBgYGBgYGBgYGBgYGBgYGBgYGBgYGBgYGBgYGBgYGBgYGBgYGBgAAAAAAAAAAAAAAAAAAAAAAAA
        AAAAAAAAAAAAAAAAAAAAAAAAAAAAAAAAAAAAAAAAAAAAAAAAAAAAAAAAAAAAAAAAAAAAAAAAAAAAAAAAAAAAAAAAAAAAAAAAAAAAAAAAAAAAAAAAAAAAAAAAAAAAAAAA
        AAAAAAAAAAAAAAAAAABTZXEgMmsgQWNpZE1vbm8gMDQAX/9/AACwmA8RAQAAAMQ5vl//fwAA9DAPFgEAAAAOBEgDAQAAfwB/AEAAAQABAAAAAAAAAAAAfwAAAAAAAAAA
        AAAAAAAAAAAAAAAAAAAAAAAAAAAAAAAAAAAAAAAAAAAAAAAAAAAAAAAAAAAAAAAAAAAAAAAAAAAAAAAAAAAAAAAAAAAAAAAAAAAAAAAAAAAAAAAAAAAAAAAAAAAAAAAA
        AAAAAAAAAAAAAAAAAAAAAAAAAAAAAAAEBAgICAgICAgICAgICAgICAgICAgICAgICAgICAgICAgICAgICAgICAgICAgICAgICAgICAgICAgICAgICAgIAQIBAQEBAQEB
        AQEBAQEBAQEBAQEBAQEBAQEBAQEBAQEBAQEBAQEBAQEBAQEBAQEBAQEBAQEBAQEBAQEBAQEBAQQEBAQEBAQEBAQEBAQEBAQEBAQEBAQEBAQEBAQEBAQEBAQEBAQEBAQE
        BAQEBAQEBAQEBAQEBAQEBAQEBAQEBARgYGBgYGBgYGBgYGBgYGBgYGBgYGBgYGBgYGBgYGBgYGBgYGBgYGBgYGBgYGBgYGBgYGBgYGBgYGBgYGBgYGBgAAAAAAAAAAAA
        AAAAAAAAAAAAAAAAAAAAAAAAAAAAAAAAAAAAAAAAAAAAAAAAAAAAAAAAAAAAAAAAAAAAAAAAAAAAAAAAAAAAAAAAAAAAAAAAAAAAAAAAAAAAAAAAAAAAAAAAAAAAAAAA
        AAAAAAAAAAAAAAAAAAAAAAAAAAAAAABCYXNzIDFrIFNpbXBsZSAwMQC+X/9/AACwmA8RAQAAAMQ5vl//fwAA9DAPFgEAAAAOBEgDAQAAfwB/AEAAAQABAAAAAAAAAAAA
        fwAAAAAAAAAAAAAAAAAAAAAAAAAAAAAAAAAAAAAAAAAAAAAAAAAAAAAAAAAAAAAAAAAAAAAAAAAAAAAAAAAAAAAAAAAAAAAAAAAAAAAAAAAAAAAAAAAAAAAAAAAAAAAA
        AAAAAAAAAAAAAAAAAAAAAAAAAAAAAAAAAAAAAAAAAAAEBAgICAgICAgICAgICAgICAgICAgICAgICAgICAgICAgICAgICAgICAgICAgICAgICAgICAgICAgICAgICAgI
        AQEBAQEBAQEBAQEBAQEBAQEBAQEBAQEBAQEBAQEBAQEBAQEBAQEBAQEBAQEBAQEBAQEBAQEBAQEBAQEBAQEBAQQEBAQEBAQEBAQEBAQEBAQEBAQEBAQEBAQEBAQEBAQE
        BAQEBAQEBAQEBAQEBAQEBAQEBAQEBAQEBAQEBAQEBARgYGBgYGBgYGBgYGBgYGBgYGBgYGBgYGBgYGBgYGBgYGBgYGBgYGBgYGBgYGBgYGBgYGBgYGBgYGBgYGBgYGBg
        AAAAAAAAAAAAAAAAAAAAAAAAAAAAAAAAAAAAAAAAAAAAAAAAAAAAAAAAAAAAAAAAAAAAAAAAAAAAAAAAAAAAAAAAAAAAAAAAAAAAAAAAAAAAAAAAAAAAAAAAAAAAAAAA
        AAAAAAAAAAAAAAAAAAAAAAAAAAAAAAAAAAAAAAAAAABCYXNzIDFrIFNpbXBsZSAwMgC+X/9/AACwmA8RAQAAAMQ5vl//fwAA9DAPFgEAAAAOBEgDAQAAfwB/AEAAAQAB
        AAAAAAAAAAAAfwAAAAAAAAAAAAAAAAAAAAAAAAAAAAAAAAAAAAAAAAAAAAAAAAAAAAAAAAAAAAAAAAAAAAAAAAAAAAAAAAAAAAAAAAAAAAAAAAAAAAAAAAAAAAAAAAAA
        AAAAAAAAAAAAAAAAAAAAAAAAAAAAAAAAAAAAAAAAAAAAAAAAAAAAAAAEBAgICAgICAgICAgICAgICAgICAgICAgICAgICAgICAgICAgICAgICAgICAgICAgICAgICAgI
        CAgICAgICAgIAQIBAgEBAQEBAQEBAQEBAQEBAQEBAQEBAQEBAQEBAQEBAQEBAQEBAQEBAQEBAQEBAQEBAQEBAQEBAQEBAQEBAQQEBAQEBAQEBAQEBAQEBAQEBAQEBAQE
        BAQEBAQEBAQEBAQEBAQEBAQEBAQEBAQEBAQEBAQEBAQEBAQEBAQEBARgYGBgYGBgYGBgYGBgYGBgYGBgYGBgYGBgYGBgYGBgYGBgYGBgYGBgYGBgYGBgYGBgYGBgYGBg
        YGBgYGBgYGBgAAAAAAAAAAAAAAAAAAAAAAAAAAAAAAAAAAAAAAAAAAAAAAAAAAAAAAAAAAAAAAAAAAAAAAAAAAAAAAAAAAAAAAAAAAAAAAAAAAAAAAAAAAAAAAAAAAAA
        AAAAAAAAAAAAAAAAAAAAAAAAAAAAAAAAAAAAAAAAAAAAAAAAAAAAAABCYXNzIDFrIFNpbXBsZSAwMwC+X/9/AACwmA8RAQAAAMQ5vl//fwAA9DAPFgEAAAAOBEgDAQAA
        fwB/AEAAAQABAAAAAAAAAAAAfwAAAAAAAAAAAAAAAAAAAAAAAAAAAAAAAAAAAAAAAAAAAAAAAAAAAAAAAAAAAAAAAAAAAAAAAAAAAAAAAAAAAAAAAAAAAAAAAAAAAAAA
        AAAAAAAAAAAAAAAAAAAAAAAAAAAAAAAAAAAAAAAAAAAAAAAAAAAAAAAAAAAAAAAAAAAICAgICAgICAgICAgICAgICAgICAgICAgICAgICAgICAgICAgICAgICAgICAgI
        CAgICAgICAgICAgICAgICAgIAAABAAEBAQEBAQEBAQEBAQEBAQEBAQEBAQEBAQEBAQEBAQEBAQEBAQEBAQEBAQEBAQEBAQEBAQEBAQEBAQEBAQQEBAQEBAQEBAQEBAQE
        BAQEBAQEBAQEBAQEBAQEBAQEBAQEBAQEBAQEBAQEBAQEBAQEBAQEBAQEBAQEBAQEBARgYGBgYGBgYGBgYGBgYGBgYGBgYGBgYGBgYGBgYGBgYGBgYGBgYGBgYGBgYGBg
        YGBgYGBgYGBgYGBgYGBgYGBgAAAAAAAAAAAAAAAAAAAAAAAAAAAAAAAAAAAAAAAAAAAAAAAAAAAAAAAAAAAAAAAAAAAAAAAAAAAAAAAAAAAAAAAAAAAAAAAAAAAAAAAA
        AAAAAAAAAAAAAAAAAAAAAAAAAAAAAAAAAAAAAAAAAAAAAAAAAAAAAAAAAAAAAAAAAABCYXNzIDFrIFNpbXBsZSAwNAC+X/9/AACwmA8RAQAAAMQ5vl//fwAA9DAPFgEA
        AAAOCGQDAQAAfwB/AEAAAQABAAAAAAAAAAAAfwAAAAAAAAAAAAAAAAAAAAAAAAAAAAAAAAAAAAAAAAAAAAAAAAAAAAAAAAAAAAAAAAAAAAAAAAAAAAAAAAAAAAAAAAAA
        AAAAAAAAAAAAAAAAAAAAAAAAAAAAAAAAAAAAAAAAAAAAAAAAAAAAAAAAAAAAAAAAAAAAAAAAAAAAAAAICAgICAgICAgICAgICAgICAgICAgICAgICAgICAgICAgICAgI
        CAgICAgICAgICAgICAgICAgICAgICAgICAgIAAAAAQAAAQIAAAABAAABAgEBAQEBAQEBAQEBAQEBAQEBAQEBAQEBAQEBAQEBAQEBAQEBAQEBAQEBAQEBAQEBAQQEBAQE
        BAQEBAQEBAQEBAQEBAQEBAQEBAQEBAQEBAQEBAQEBAQEBAQEBAQEBAQEBAQEBAQEBAQEBAQEBAQEBARgYGBgYGBgYGBgYGBgYGBgYGBgYGBgYGBgYGBgYGBgYGBgYGBg
        YGBgYGBgYGBgYGBgYGBgYGBgYGBgYGBgYGBgAAAAAAAAAAAAAAAAAAAAAAAAAAAAAAAAAAAAAAAAAAAAAAAAAAAAAAAAAAAAAAAAAAAAAAAAAAAAAAAAAAAAAAAAAAAA
        AAAAAAAAAAAAAAAAAAAAAAAAAAAAAAAAAAAAAAAAAAAAAAAAAAAAAAAAAAAAAAAAAAAAAAAAAAAAAABCYXNzIDFrIERyaWZ0IG9mZmJlYXQAAACwmA8RAQAAAMQ5vl//
        fwAA9DAPFgEAAAAOCF8DAQAAfwB/AEAAAQABAAAAAAAAAAAAfwAAAAAAAAAAAAAAAAAAAAAAAAAAAAAAAAAAAAAAAAAAAAAAAAAAAAAAAAAAAAAAAAAAAAAAAAAAAAAA
        AAAAAAAAAAAAAAAAAAAAAAAAAAAAAAAAAAAAAAAAAAAAAAAAAAAAAAAAAAAAAAAAAAAAAAAAAAAAAAAAAAAAAAAAAAAICAgICAgICAgICAgICAgICAgICAgICAgICAgI
        CAgICAgICAgICAgICAgICAgICAgICAgICAgICAgICAgICAgIAAEAAQAAAQIBAQEBAQEBAQEBAQEBAQEBAQEBAQEBAQEBAQEBAQEBAQEBAQEBAQEBAQEBAQEBAQEBAQEB
        AQEBAQQEBAQEBAQEBAQEBAQEBAQEBAQEBAQEBAQEBAQEBAQEBAQEBAQEBAQEBAQEBAQEBAQEBAQEBAQEBAQEBAQEBARgYGBgYGBgYGBgYGBgYGBgQEBAQEBAQEBAQEBA
        QEBAQEBAQEBAQEBAQEBAQEBAQEBAQEBAQEBAQEBAQEBAQEBAAAAAAAAAAAAAAAAAAAAAAAAAAAAAAAAAAAAAAAAAAAAAAAAAAAAAAAAAAAAAAAAAAAAAAAAAAAAAAAAA
        AAAAAAAAAAAAAAAAAAAAAAAAAAAAAAAAAAAAAAAAAAAAAAAAAAAAAAAAAAAAAAAAAAAAAAAAAAAAAAAAAAAAAAAAAABCYXNzIDFrIFRyaXBsZSBkcmlmdCBvZmZiZWF0
        AAAAAMQ5vl//fwAA9DAPFgEAAAAOEEgDAQAAfwB/AEAAAQABAAAAAAAAAAAAfwAAAAAAAAAAAAAAAAAAAAAAAAAAAAAAAAAAAAAAAAAAAAAAAAAAAAAAAAAAAAAAAAAA
        AAAAAAAAAAAAAAAAAAAAAAAAAAAAAAAAAAAAAAAAAAAAAAAAAAAAAAAAAAAAAAAAAAAAAAAAAAAAAAAAAAAAAAAAAAAAAAAAAAAAAAAICAgICAgICAgICAgICAgICAgI
        CAgICAgICAgICAgICAgICAgICAgICAgICAgICAgICAgICAgICAgICAgICAgIAQEAAQEAAQEAAQEAAQABAAEBAQEBAQEBAQEBAQEBAQEBAQEBAQEBAQEBAQEBAQEBAQEB
        AQEBAQEBAQEBAQEBAQQEBAQEBAQEBAQEBAQEBAQEBAQEBAQEBAQEBAQEBAQEBAQEBAQEBAQEBAQEBAQEBAQEBAQEBAQEBAQEBAQEBARgYGBgYGBgYGBgYGBgYGBgYGBg
        YGBgYGBgYGBgYGBgYGBgYGBgYGBgYGBgYGBgYGBgYGBgYGBgYGBgYGBgYGBgAAAAAAAAAAAAAAAAAAAAAAAAAAAAAAAAAAAAAAAAAAAAAAAAAAAAAAAAAAAAAAAAAAAA
        AAAAAAAAAAAAAAAAAAAAAAAAAAAAAAAAAAAAAAAAAAAAAAAAAAAAAAAAAAAAAAAAAAAAAAAAAAAAAAAAAAAAAAAAAAAAAAAAAAAAAABCYXNzIDFrIFRlY2hubyAwMQC+
        X/9/AACwmA8RAQAAAMQ5vl//fwAA9DAPFgEAAAAOIEgDAQAAfwB/AEAAAQABAAAAAAAAAAAAfwAAAAAAAAAAAAAAAAAAAAAAAAAAAAAAAAAAAAAAAAAAAAAAAAAAAAAA
        AAAAAAAAAAAAAAAAAAAAAAAAAAAAAAAAAAAAAAAAAAAAAAAAAAAAAAAAAAAAAAAAAAAAAAAAAAAAAAAAAAAAAAAAAAAAAAAAAAAAAAAAAAAAAAAAAAAICAgICAgICAgI
        CAgICAgICAgICAgICAgICAgICAgICAgICAgICAgICAgICAgICAgICAgICAgICAgICAgICAgIAAABAAAAAQAAAAEAAAABAAAAAQAAAAEAAAABAAABAAEBAQEBAQEBAQEB
        AQEBAQEBAQEBAQEBAQEBAQEBAQEBAQQEBAQEBAQEBAQEBAQEBAQEBAQEBAQEBAQEBAQEBAQEBAQEBAQEBAQEBAQEBAQEBAQEBAQEBAQEBAQEBAQEBARgYGBgYGBgYGBg
        YGBgYGBgYGBgYGBgYGBgYGBgYGBgYGBgYGBgYGBgYGBgYGBgYGBgYGBgYGBgYGBgYGBgYGBgAAAAAAAAAAAAAAAAAAAAAAAAAAAAAAAAAAAAAAAAAAAAAAAAAAAAAAAA
        AAAAAAAAAAAAAAAAAAAAAAAAAAAAAAAAAAAAAAAAAAAAAAAAAAAAAAAAAAAAAAAAAAAAAAAAAAAAAAAAAAAAAAAAAAAAAAAAAAAAAAAAAAAAAAAAAABCYXNzIDFrIFRl
        Y2hubyAwMiAoMzIgc3RlcHMpAAAAAMQ5vl//fwAA9DAPFgEAAAAOEE8DAQQAfwB/AEAAAQABAAAAAAAAAAAAfwAAAAAAAAAAAAAAAAAAAAAAAAAAAAAAAAAAAAAAAAAA
        AAAAAAAAAAAAAAAAAAAAAAAAAAAAAAAAAAAAAAAAAAAAAAAAAAAAAAAAAAAAAAAAAAAAAAAAAAAAAAAAAAAAAAAAAAAAAAAAAAAAAAAAAAAAAAAAAAAAAAAAAAAAAAAI
        CAgICAgICAgICAgICAgICAgICAgICAgICAgICAgICAgICAgICAgICAgICAgICAgICAgICAgICAgICAgICAgIAQEBAQEAAQABAAEAAQABAAEBAQEBAQEBAQEBAQEBAQEB
        AQEBAQEBAQEBAQEBAQEBAQEBAQEBAQEBAQEBAQEBAQQEBAQEBAQEBAQEBAQECAQEBAQEBAQEBAQEBAQEBAQEBAQEBAQEBAQEBAQEBAQEBAQEBAQEBAQEBAQEBAQEBARg
        YGBgYGBgYGBgYGBgYGBgYGBgYGBgYGBgYGBgYGBgYGBgYGBgYGBgYGBgYGBgYGBgYGBgYGBgYGBgYGBgYGBgAAAAAAAAAAAAAAAAAAAAAAAAAAAAAAAAAAAAAAAAAAAA
        AAAAAAAAAAAAAAAAAAAAAAAAAAAAAAAAAAAAAAAAAAAAAAAAAAAAAAAAAAAAAAAAAAAAAAAAAAAAAAAAAAAAAAAAAAAAAAAAAAAAAAAAAAAAAAAAAAAAAAAAAAAAAABC
        YXNzIDJrIFRlY2hubyAwMwC+X/9/AACwmA8RAQAAAMQ5vl//fwAA9DAPFgEAAAAOEEQDAQQAfwB/AEAAAQABAAAAAAAAAAAAfwAAAAAAAAAAAAAAAAAAAAAAAAAAAAAA
        AAAAAAAAAAAAAAAAAAAAAAAAAAAAAAAAAAAAAAAAAAAAAAAAAAAAAAAAAAAAAAAAAAAAAAAAAAAAAAAAAAAAAAAAAAAAAAAAAAAAAAAAAAAAAAAAAAAAAAAAAAAAAAAA
        AAAAAAAAAAAICAgICAgICAgICBAICAgICAgICAgICAgICAgICAgICAgICAgICAgICAgICAgICAgICAgICAgICAgICAgICAgIAQABAAAAAQAAAQIBAQIAAAEBAQEBAQEB
        AQEBAQEBAQEBAQEBAQEBAQEBAQEBAQEBAQEBAQEBAQEBAQEBAQEBAQQEBAQEBAQEBAQEBAQEBAQEBAQEBAQEBAQEBAQEBAQEBAQEBAQEBAQEBAQEBAQEBAQEBAQEBAQE
        BAQEBAQEBARgYGBgYGBgYGBgYGBgYGBgYGBgYGBgYGBgYGBgYGBgYGBgYGBgYGBgYGBgYGBgYGBgYGBgYGBgYGBgYGBgYGBgAAAAAAAAAAAAAAAAAAAAAAAAAAAAAAAA
        AAAAAAAAAAAAAAAAAAAAAAAAAAAAAAAAAAAAAAAAAAAAAAAAAAAAAAAAAAAAAAAAAAAAAAAAAAAAAAAAAAAAAAAAAAAAAAAAAAAAAAAAAAAAAAAAAAAAAAAAAAAAAAAA
        AAAAAAAAAABCYXNzIDNrIENvbXBsZXggMS0xAP9/AACwmA8RAQAAAMQ5vl//fwAA9DAPFgEAAAAODEUEAQQAfwB/AEAAAQABAAAAAAAAAAAAfwAAAAAAAAAAAAAAAAAA
        AAAAAAAAAAAAAAAAAAAAAAAAAAAAAAAAAAAAAAAAAAAAAAAAAAAAAAAAAAAAAAAAAAAAAAAAAAAAAAAAAAAAAAAAAAAAAAAAAAAAAAAAAAAAAAAAAAAAAAAAAAAAAAAA
        AAAAAAAAAAAAAAAAAAAAAAAICAgICAgICAgICAgICAgICAgICAgICAgICAgICAgICAgICAgICAgICAgICAgICAgICAgICAgICAgICAgICAgIAQIBAgECAQIBAgECAQEB
        AQEBAQEBAQEBAQEBAQEBAQEBAQEBAQEBAQEBAQEBAQEBAQEBAQEBAQEBAQEBAQEBAQgICAgICBAQEBAQEAQEBAQEBAQEBAQEBAQEBAQEBAQEBAQEBAQEBAQEBAQEBAQE
        BAQEBAQEBAQEBAQEBAQEBARgYGBgYGBgYGBgYGBgYGBgYGBgYGBgYGBgYGBgYGBgYGBgYGBgYGBgYGBgYGBgYGBgYGBgYGBgYGBgYGBgYGBgAAAAAAAAAAAAAAAAAAAA
        AAAAAAAAAAAAAAAAAAAAAAAAAAAAAAAAAAAAAAAAAAAAAAAAAAAAAAAAAAAAAAAAAAAAAAAAAAAAAAAAAAAAAAAAAAAAAAAAAAAAAAAAAAAAAAAAAAAAAAAAAAAAAAAA
        AAAAAAAAAAAAAAAAAAAAAABCYXNzIDNrIENvbXBsZXggMS0yAP9/AACwmA8RAQAAAMQ5vl//fwAA9DAPFgEAAAAODE0EAQQAfwB/AEAAAQABAAAAAAAAAAAAfwAAAAAA
        AAAAAAAAAAAAAAAAAAAAAAAAAAAAAAAAAAAAAAAAAAAAAAAAAAAAAAAAAAAAAAAAAAAAAAAAAAAAAAAAAAAAAAAAAAAAAAAAAAAAAAAAAAAAAAAAAAAAAAAAAAAAAAAA
        AAAAAAAAAAAAAAAAAAAAAAAAAAAAAAAAAAAICAgICAgICAgICAgICAgICAgICAgICAgICAgICAgICAgICAgICAgICAgICAgICAgICAgICAgICAgICAgICAgIAQEBAQEB
        AQEBAQEBAQEBAQEBAQEBAQEBAQEBAQEBAQEBAQEBAQEBAQEBAQEBAQEBAQEBAQEBAQEBAQEBAQEBAQgICAgICBAQEBAQEAQEBAQEBAQEBAQEBAQEBAQEBAQEBAQEBAQE
        BAQEBAQEBAQEBAQEBAQEBAQEBAQEBAQEBARgYGBgYGBgYGBgYGBgYGBgYGBgYGBgYGBgYGBgYGBgYGBgYGBgYGBgYGBgYGBgYGBgYGBgYGBgYGBgYGBgYGBgAAAAAAAA
        AAAAAAAAAAAAAAAAAAAAAAAAAAAAAAAAAAAAAAAAAAAAAAAAAAAAAAAAAAAAAAAAAAAAAAAAAAAAAAAAAAAAAAAAAAAAAAAAAAAAAAAAAAAAAAAAAAAAAAAAAAAAAAAA
        AAAAAAAAAAAAAAAAAAAAAAAAAAAAAAAAAABCYXNzIDNrIENvbXBsZXggMS0zAP9/AACwmA8RAQAAAMQ5vl//fwAA9DAPFgEAAAAOCE0DAQAAfwB/AEAAAQABAAAAAAAA
        AAAAfwAAAAAAAAAAAAAAAAAAAAAAAAAAAAAAAAAAAAAAAAAAAAAAAAAAAAAAAAAAAAAAAAAAAAAAAAAAAAAAAAAAAAAAAAAAAAAAAAAAAAAAAAAAAAAAAAAAAAAAAAAA
        AAAAAAAAAAAAAAAAAAAAAAAAAAAAAAAAAAAAAAAAAAAAAAAICAgICAgICAgICAgICAgICAgICAgICAgICAgICAgICAgICAgICAgICAgICAgICAgICAgICAgICAgICAgI
        CAgIAAABAQAAAQABAQEBAQEBAQEBAQEBAQEBAQEBAQEBAQEBAQEBAQEBAQEBAQEBAQEBAQEBAQEBAQEBAQEBAQEBAQQEBAQEBAQEBAQEBAQEBAQEBAQEBAQEBAQEBAQE
        BAQEBAQEBAQEBAQEBAQEBAQEBAQEBAQEBAQEBAQEBAQEBARgYGBgYGBgYGBgYGBgYGBgYGBgYGBgYGBgYGBgYGBgYGBgYGBgYGBgYGBgYGBgYGBgYGBgYGBgYGBgYGBg
        YGBgAAAAAAAAAAAAAAAAAAAAAAAAAAAAAAAAAAAAAAAAAAAAAAAAAAAAAAAAAAAAAAAAAAAAAAAAAAAAAAAAAAAAAAAAAAAAAAAAAAAAAAAAAAAAAAAAAAAAAAAAAAAA
        AAAAAAAAAAAAAAAAAAAAAAAAAAAAAAAAAAAAAAAAAAAAAABCYXNzIDFrIFRyYW5jZSAwMQC+X/9/AACwmA8RAQAAAMQ5vl//fwAA9DAPFgEAAAAOCEMDAQAAfwB/AEAA
        AQABAAAAAAAAAAAAfwAAAAAAAAAAAAAAAAAAAAAAAAAAAAAAAAAAAAAAAAAAAAAAAAAAAAAAAAAAAAAAAAAAAAAAAAAAAAAAAAAAAAAAAAAAAAAAAAAAAAAAAAAAAAAA
        AAAAAAAAAAAAAAAAAAAAAAAAAAAAAAAAAAAAAAAAAAAAAAAAAAAAAAAAAAAIEAgQCAgQCAgICAgICAgICAgICAgICAgICAgICAgICAgICAgICAgICAgICAgICAgICAgI
        CAgICAgICAgICAgIAAEBAQABAQEBAQEBAQEBAQEBAQEBAQEBAQEBAQEBAQEBAQEBAQEBAQEBAQEBAQEBAQEBAQEBAQEBAQEBAQEBAQQEBAQEBAQEBAQEBAQEBAQEBAQE
        BAQEBAQEBAQEBAQEBAQEBAQEBAQEBAQEBAQEBAQEBAQEBAQEBAQEBAQEBARgYGBgYGBgYGBgYGBgYGBgYGBgYGBgYGBgYGBgYGBgYGBgYGBgYGBgYGBgYGBgYGBgYGBg
        YGBgYGBgYGBgYGBgAAAAAAAAAAAAAAAAAAAAAAAAAAAAAAAAAAAAAAAAAAAAAAAAAAAAAAAAAAAAAAAAAAAAAAAAAAAAAAAAAAAAAAAAAAAAAAAAAAAAAAAAAAAAAAAA
        AAAAAAAAAAAAAAAAAAAAAAAAAAAAAAAAAAAAAAAAAAAAAAAAAAAAAAAAAABCYXNzIDFrIFRyYW5jZSAwMgC+X/9/AACwmA8RAQAAAMQ5vl//fwAA9DAPFgEAAAAOEDID
        AQEAfwB/AkAAAQABAAAAAAAAAAAAfwAAAAAAAAAAAAAAAAAAAAAAAAAAAAAAAAAAAAAAAAAAAAAAAAAAAAAAAAAAAAAAAAAAAAAAAAAAAAAAAAAAAAAAAAAAAAAAAAAA
        AAAAAAAAAAAAAAAAAAAAAAAAAAAAAAAAAAAAAAAAAAAAAAAAAAAAAAAAAAAAAAAAAAAAAAAQCBAQCAgQCBAIEBAICBAICAgICAgICAgICAgICAgICAgICAgICAgICAgI
        CAgICAgICAgICAgICAgICAgICAgIAQIBAQECAQEBAgEBAQIBAQEBAQEBAQEBAQEBAQEBAQEBAQEBAQEBAQEBAQEBAQEBAQEBAQEBAQEBAQEBAQEBAQgEBAQEBAQEBAQE
        BAQEBAQEBAQEBAQEBAQEBAQEBAQEBAQEBAQEBAQEBAQEBAQEBAQEBAQEBAQEBAQEBAQEBARgYGBgYGBgYGBgYGBgYGBgYGBgYGBgYGBgYGBgYGBgYGBgYGBgYGBgYGBg
        YGBgYGBgYGBgYGBgYGBgYGBgYGBgAAAAAAAAAAAAAAAAAAAAAAAAAAAAAAAAAAAAAAAAAAAAAAAAAAAAAAAAAAAAAAAAAAAAAAAAAAAAAAAAAAAAAAAAAAAAAAAAAAAA
        AAAAAAAAAAAAAAAAAAAAAAAAAAAAAAAAAAAAAAAAAAAAAAAAAAAAAAAAAAAAAAAAAAAAAABCYXNzIDJrIFRyYW5jZSAwMwC+X/9/AACwmA8RAQAAAMQ5vl//fwAA9DAP
        FgEAAAAOEF0DAQQAfwB/AkAAAQABAAAAAAAAAAAAfwAAAAAAAAAAAAAAAAAAAAAAAAAAAAAAAAAAAAAAAAAAAAAAAAAAAAAAAAAAAAAAAAAAAAAAAAAAAAAAAAAAAAAA
        AAAAAAAAAAAAAAAAAAAAAAAAAAAAAAAAAAAAAAAAAAAAAAAAAAAAAAAAAAAAAAAAAAAAAAAAAAAAAAAAAAAICAgICAgICAgICAgICAgICAgICAgICAgICAgICAgICAgI
        CAgICAgICAgICAgICAgICAgICAgICAgICAgICAgIAQABAAEAAQABAAEAAQABAAEBAQEBAQEBAQEBAQEBAQEBAQEBAQEBAQEBAQEBAQEBAQEBAQEBAQEBAQEBAQEBAQQE
        BAQEBAQEBAQEBAgEBAQEBAQEBAQEBAQEBAQEBAQEBAQEBAQEBAQEBAQEBAQEBAQEBAQEBAQEBAQEBAQEBARgYGBgYGBgYGBgYGBgYGBgYGBgYGBgYGBgYGBgYGBgYGBg
        YGBgYGBgYGBgYGBgYGBgYGBgYGBgYGBgYGBgYGBgAAAAAAAAAAAAAAAAAAAAAAAAAAAAAAAAAAAAAAAAAAAAAAAAAAAAAAAAAAAAAAAAAAAAAAAAAAAAAAAAAAAAAAAA
        AAAAAAAAAAAAAAAAAAAAAAAAAAAAAAAAAAAAAAAAAAAAAAAAAAAAAAAAAAAAAAAAAAAAAAAAAAAAAAAAAABCYXNzIDJrIERNIFF1ZXN0aW9uIG9mIHRpbWUAAQAAAMQ5
        vl//fwAA9DAPFgEAAAAOEFEDAQAAfwB/AEAAAQABAAAAAAAAAAAAfwAAAAAAAAAAAAAAAAAAAAAAAAAAAAAAAAAAAAAAAAAAAAAAAAAAAAAAAAAAAAAAAAAAAAAAAAAA
        AAAAAAAAAAAAAAAAAAAAAAAAAAAAAAAAAAAAAAAAAAAAAAAAAAAAAAAAAAAAAAAAAAAAAAAAAAAAAAAAAAAAAAAAAAAAAAAIEAgQEBAQCBAQCBAQEAgQCAgICAgICAgI
        CAgICAgICAgICAgICAgICAgICAgICAgICAgICAgICAgICAgICAgIAQABAAECAAEAAAEAAQIBAAEBAQEBAQEBAQEBAQEBAQEBAQEBAQEBAQEBAQEBAQEBAQEBAQEBAQEB
        AQEBAQEBAQQEBAQEBAQEBAQEBAQEBAQEBAQEBAQEBAQEBAQEBAQEBAQEBAQEBAQEBAQEBAQEBAQEBAQEBAQEBAQEBAQEBARgYGBgYGBgYGBgYGBgYGBgYGBgYGBgYGBg
        YGBgYGBgYGBgYGBgYGBgYGBgYGBgYGBgYGBgYGBgYGBgYGBgYGBgAAAAAAAAAAAAAAAAAAAAAAAAAAAAAAAAAAAAAAAAAAAAAAAAAAAAAAAAAAAAAAAAAAAAAAAAAAAA
        AAAAAAAAAAAAAAAAAAAAAAAAAAAAAAAAAAAAAAAAAAAAAAAAAAAAAAAAAAAAAAAAAAAAAAAAAAAAAAAAAAAAAAAAAAAAAABCYXNzIDFrIEJlbmFzc2kgLSBJbGx1c2lv
        bgARAQAAAMQ5vl//fwAA9DAPFgEAAAAOEFQDAQAAfwB/AEAAAQABAAAAAAAAAAAAfwAAAAAAAAAAAAAAAAAAAAAAAAAAAAAAAAAAAAAAAAAAAAAAAAAAAAAAAAAAAAAA
        AAAAAAAAAAAAAAAAAAAAAAAAAAAAAAAAAAAAAAAAAAAAAAAAAAAAAAAAAAAAAAAAAAAAAAAAAAAAAAAAAAAAAAAAAAAAAAAAAAAAAAAAAAAIEAgIEBAIEBAQCBAQEAgQ
        CAgICAgICAgICAgICAgICAgICAgICAgICAgICAgICAgICAgICAgICAgICAgICAgIAQABAQEAAQABAAEAAQABAAEBAQEBAQEBAQEBAQEBAQEBAQEBAQEBAQEBAQEBAQEB
        AQEBAQEBAQEBAQEBAQEBAQQEBAQEBAQEBAQEBAQEBAQEBAQEBAQEBAQEBAQEBAQEBAQEBAQEBAQEBAQEBAQEBAQEBAQEBAQEBAQEBAQEBARgYGBgYGBgYGBgYGBgYGBg
        YGBgYGBgYGBgYGBgYGBgYGBgYGBgYGBgYGBgYGBgYGBgYGBgYGBgYGBgYGBgYGBgAAAAAAAAAAAAAAAAAAAAAAAAAAAAAAAAAAAAAAAAAAAAAAAAAAAAAAAAAAAAAAAA
        AAAAAAAAAAAAAAAAAAAAAAAAAAAAAAAAAAAAAAAAAAAAAAAAAAAAAAAAAAAAAAAAAAAAAAAAAAAAAAAAAAAAAAAAAAAAAAAAAAAAAAAAAABCYXNzIDFrIFF1ZWVuIC0g
        QnJlYWsgZnJlZQARAQAAAMQ5vl//fwAA9DAPFgEAAAAOIEwDAQAAfwB/AEAAAQABAAAAAAAAAAAAfwAAAAAAAAAAAAAAAAAAAAAAAAAAAAAAAAAAAAAAAAAAAAAAAAAA
        AAAAAAAAAAAAAAAAAAAAAAAAAAAAAAAAAAAAAAAAAAAAAAAAAAAAAAAAAAAAAAAAAAAAAAAAAAAAAAAAAAAAAAAAAAAAAAAAAAAAAAAAAAAAAAAAAAAAAAAICBAICBAI
        CBAICBAICBAICBAgCBAgCBAgCBAgCBAgEAgICAgICAgICAgICAgICAgICAgICAgICAgICAgICAgIAQABAAEBAAEBAAEBAAEBAAEBAQEBAQEBAQEBAQEBAQEBAQEBAQEB
        AQEBAQEBAQEBAQEBAQEBAQEBAQEBAQEBAQQEBAQEBAQEBAQEBAQEBAQEBAQEBAQEBAQEBAQEBAQEBAQEBAQEBAQEBAQEBAQEBAQEBAQEBAQEBAQEBAQEBARgYGBgYGBg
        YGBgYGBgYGBgYGBgYGBgYGBgYGBgYGBgYGBgYGBgYGBgYGBgYGBgYGBgYGBgYGBgYGBgYGBgYGBgAAAAAAAAAAAAAAAAAAAAAAAAAAAAAAAAAAAAAAAAAAAAAAAAAAAA
        AAAAAAAAAAAAAAAAAAAAAAAAAAAAAAAAAAAAAAAAAAAAAAAAAAAAAAAAAAAAAAAAAAAAAAAAAAAAAAAAAAAAAAAAAAAAAAAAAAAAAAAAAAAAAAAAAAAAAABCYXNzIDFr
        IFF1ZWVuIC0gTGl2aW5nIG9uIG15IG93bgA5vl//fwAA9DAPFgEAAAAOEC4DAQAAfwB/AEAAAQABAAAGBAAAAAAAfwAAAAAAAAAAAAAAAAAAAAAAAAAAAAAAAAAAAAAA
        AAAAAAAAAAAAAAAAAAAAAAAAAAAAAAAAAAAAAAAAAAAAAAAAAgAEAAMAAAIDAAMAAwQAAAAAAAAAAAAAAAAAAAAAAAAAAAAAAAAAAAAAAAAAAAAAAAAAAAAAAAAAAAAA
        AAAEAggECAQICAIICAQIBAgICAgICAgICAgICAgICAgICAgICAgICAgICAgICAgICAgICAgICAgICAgICAgICAgIAQABAAEAAQEAAQABAQAAAQEBAQEBAQEBAQEBAQEB
        AQEBAQEBAQEBAQEBAQEBAQEBAQEBAQEBAQEBAQEBAQEBAQQEBAQEBAQEBAQEBAQEBAQEBAQEBAQEBAQEBAQEBAQEBAQEBAQEBAQEBAQEBAQEBAQEBAQEBAQEBAQEBAQE
        BARgYGBgYGBgYGBgYGBgYGBgYGBgYGBgYGBgYGBgYGBgYGBgYGBgYGBgYGBgYGBgYGBgYGBgYGBgYGBgYGBgYGBgAAAAAAAAAAAAAAAAAAAAAAAAAAAAAAAAAAAAAAAA
        AAAAAAAAAAAAAAAAAAAAAAAAAAAAAAAAAAAAAAAAAAAAAAAAAAAAAAAAAAAAAAAAAAAAAAAAAAAAAAAAAAAAAAAAAAAAAAAAAAAAAAAAAAAAAAAAAAAAAAAAAAAAAAAA
        AABTZXEgMWsgRm9yY2VTY2FsZSBFbSAwMQCwmA8RAQAAAMQ5vl//fwAA9DAPFgEAAAAOCEIDAQAAfwB/AEAAAQABAAAGBAAAAAAAfwAAAAAAAAAAAAAAAAAAAAAAAAAA
        AAAAAAAAAAAAAAAAAAAAAAAAAAAAAAAAAAAAAAAAAAAAAAAAAAAAAAAAAAAAAAIAAAQAAAAAAAAAAAAAAAAAAAAAAAAAAAAAAAAAAAAAAAAAAAAAAAAAAAAAAAAAAAAA
        AAAAAAAAAAAAAAAICAQIBAQICAgICAgICAgICAgICAgICAgICAgICAgICAgICAgICAgICAgICAgICAgICAgICAgICAgICAgICAgIAQIBAQEBAQIBAQEBAQEBAQEBAQEB
        AQEBAQEBAQEBAQEBAQEBAQEBAQEBAQEBAQEBAQEBAQEBAQEBAQEBAQEBAQQEBAQEBAQEBAQEBAQEBAQEBAQEBAQEBAQEBAQEBAQEBAQEBAQEBAQEBAQEBAQEBAQEBAQE
        BAQEBAQEBAQEBARgYGBgYGBgYGBgYGBgYGBgYGBgYGBgYGBgYGBgYGBgYGBgYGBgYGBgYGBgYGBgYGBgYGBgYGBgYGBgYGBgYGBgAAAAAAAAAAAAAAAAAAAAAAAAAAAA
        AAAAAAAAAAAAAAAAAAAAAAAAAAAAAAAAAAAAAAAAAAAAAAAAAAAAAAAAAAAAAAAAAAAAAAAAAAAAAAAAAAAAAAAAAAAAAAAAAAAAAAAAAAAAAAAAAAAAAAAAAAAAAAAA
        AAAAAAAAAAAAAABTZXEgMWsgRm9yY2VTY2FsZSBFbSAwMgCwmA8RAQAAAMQ5vl//fwAA9DAPFgEAAAAOEEcDAQAAfwB/AEUAAQABAAAGBAAAAAAAfwAAAAAAAAAAAAAA
        AAAAAAAAAAAAAAAAAAAAAAAAAAAAAAAAAAAAAAAAAAAAAAAAAAAAAAAAAAAAAAAAAAAAAAAAAAIABAAAAAIAAAACAAMAAAAAAAAAAAAAAAAAAAAAAAAAAAAAAAAAAAAA
        AAAAAAAAAAAAAAAAAAAAAAAAAAAICAgICAgICAgICAgICAgICAgICAgICAgICAgICAgICAgICAgICAgICAgICAgICAgICAgICAgICAgICAgICAgIAAEAAQABAAABAQAA
        AQEAAQEBAQEBAQEBAQEBAQEBAQEBAQEBAQEBAQEBAQEBAQEBAQEBAQEBAQEBAQEBAQEBAQQEBAQEBAQEBAQEBAQEBAQEBAQEBAQEBAQEBAQEBAQEBAQEBAQEBAQEBAQE
        BAQEBAQEBAQEBAQEBAQEBAQEBARgYGBgYGBgYGBgYGBgYGBgYGBgYGBgYGBgYGBgYGBgYGBgYGBgYGBgYGBgYGBgYGBgYGBgYGBgYGBgYGBgYGBgAAAAAAAAAAAAAAAA
        AAAAAAAAAAAAAAAAAAAAAAAAAAAAAAAAAAAAAAAAAAAAAAAAAAAAAAAAAAAAAAAAAAAAAAAAAAAAAAAAAAAAAAAAAAAAAAAAAAAAAAAAAAAAAAAAAAAAAAAAAAAAAAAA
        AAAAAAAAAAAAAAAAAAAAAAAAAABTZXEgMWsgRm9yY2VTY2FsZSBFbSAwMwCwmA8RAQAAAMQ5vl//fwAA9DAPFgEAAAAOEGQDAQQAfwB/AEAAAQABAAAGBAAAAAAAfwAA
        AAAAAAAAAAAAAAAAAAAAAAAAAAAAAAAAAAAAAAAAAAAAAAAAAAAAAAAAAAAAAAAAAAAAAAAAAAAAAAAAAAAAAAAGAAAAAAAFAAAEAAAAAAAAAAAAAAAAAAAAAAAAAAAA
        AAAAAAAAAAAAAAAAAAAAAAAAAAAAAAAAAAAAAAAECAQECAQECAQECAQECAQICAgICAgICAgICAgICAgICAgICAgICAgICAgICAgICAgICAgICAgICAgICAgICAgIAQEA
        AQEAAQEAAQEAAQEAAQEBAQEBAQEBAQEBAQEBAQEBAQEBAQEBAQEBAQEBAQEBAQEBAQEBAQEBAQEBAQEBAQQIBAQEBAQIBAQIBAQIBAQEBAQEBAQEBAQEBAQEBAQEBAQE
        BAQEBAQEBAQEBAQEBAQEBAQEBAQEBAQEBAQEBARgYGBgYGBgYGBgYGBgYGBgYGBgYGBgYGBgYGBgYGBgYGBgYGBgYGBgYGBgYGBgYGBgYGBgYGBgYGBgYGBgYGBgAAAA
        AAAAAAAAAAAAAAAAAAAAAAAAAAAAAAAAAAAAAAAAAAAAAAAAAAAAAAAAAAAAAAAAAAAAAAAAAAAAAAAAAAAAAAAAAAAAAAAAAAAAAAAAAAAAAAAAAAAAAAAAAAAAAAAA
        AAAAAAAAAAAAAAAAAAAAAAAAAAAAAAAAAAAAAABTZXEgMmsgRm9yY2VTY2FsZSBFbSAwNCAoRStHKQAAAMQ5vl//fwAA9DAPFgEAAAAOCEMDAQQAfwB/AEAAAQABAAAA
        AAAAAAAAfwAAAAAAAAAAAAAAAAAAAAAAAAAAAAAAAAAAAAAAAAAAAAAAAAAAAAAAAAAAAAAAAAAAAAAAAAAAAAAAAAAAAAAAAAAAAAcAAAAAAAAAAAAAAAAAAAAAAAAA
        AAAAAAAAAAAAAAAAAAAAAAAAAAAAAAAAAAAAAAAAAAAAAAAAAAAICAgIBAQICAgICAgICAgICAgICAgICAgICAgICAgICAgICAgICAgICAgICAgICAgICAgICAgICAgI
        CAgICAgIAQIBAQEBAQIBAQEBAQEBAQEBAQEBAQEBAQEBAQEBAQEBAQEBAQEBAQEBAQEBAQEBAQEBAQEBAQEBAQEBAQEBAQQEBAgEBAQEBAQEBAQEBAQEBAQEBAQEBAQE
        BAQEBAQEBAQEBAQEBAQEBAQEBAQEBAQEBAQEBAQEBAQEBAQEBARgYGBgYGBgYGBgYGBgYGBgYGBgYGBgYGBgYGBgYGBgYGBgYGBgYGBgYGBgYGBgYGBgYGBgYGBgYGBg
        YGBgYGBgAAAAAAAAAAAAAAAAAAAAAAAAAAAAAAAAAAAAAAAAAAAAAAAAAAAAAAAAAAAAAAAAAAAAAAAAAAAAAAAAAAAAAAAAAAAAAAAAAAAAAAAAAAAAAAAAAAAAAAAA
        AAAAAAAAAAAAAAAAAAAAAAAAAAAAAAAAAAAAAAAAAAAAAAAAAABTZXEgMmsgSGFybW9uaWMxIChBK0MvQyMpAA8RAQAAAMQ5vl//fwAA9DAPFgEAAAAOCEMDAQEAfwB/
        AEAAAQABAAAAAAAAAAAAfwAAAAAAAAAAAAAAAAAAAAAAAAAAAAAAAAAAAAAAAAAAAAAAAAAAAAAAAAAAAAAAAAAAAAAAAAAAAAAAAAAAAAAABwUABwUAAAAAAAAAAAAA
        AAAAAAAAAAAAAAAAAAAAAAAAAAAAAAAAAAAAAAAAAAAAAAAAAAAAAAAAAAAAAAAECAgIBAgICAgICAgICAgICAgICAgICAgICAgICAgICAgICAgICAgICAgICAgICAgI
        CAgICAgICAgICAgICAgIAQEBAQEBAQEBAQEBAQEBAQEBAQEBAQEBAQEBAQEBAQEBAQEBAQEBAQEBAQEBAQEBAQEBAQEBAQEBAQEBAQEBAQQIBAgEBAgEBAQEBAQEBAQE
        BAQEBAQEBAQEBAQEBAQEBAQEBAQEBAQEBAQEBAQEBAQEBAQEBAQEBAQEBAQEBARgYGBgYGBgYGBgYGBgYGBgYGBgYGBgYGBgYGBgYGBgYGBgYGBgYGBgYGBgYGBgYGBg
        YGBgYGBgYGBgYGBgYGBgAAAAAAAAAAAAAAAAAAAAAAAAAAAAAAAAAAAAAAAAAAAAAAAAAAAAAAAAAAAAAAAAAAAAAAAAAAAAAAAAAAAAAAAAAAAAAAAAAAAAAAAAAAAA
        AAAAAAAAAAAAAAAAAAAAAAAAAAAAAAAAAAAAAAAAAAAAAAAAAAAAAAAAAAAAAABTZXEgMmsgSGFybW9uaWMyIChBK0MvQyMpAA8RAQAAAMQ5vl//fwAA9DAPFgEAAAAO
        CEcDAQEAfwB/AEAAAQABAAAAAAAAAAAAfwAAAAAAAAAAAAAAAAAAAAAAAAAAAAAAAAAAAAAAAAAAAAAAAAAAAAAAAAAAAAAAAAAAAAAAAAAAAAAAAAAAAAAABwcAAAAH
        AAAAAAAAAAAAAAAAAAAAAAAAAAAAAAAAAAAAAAAAAAAAAAAAAAAAAAAAAAAAAAAAAAAAAAAAAAAECAgICAQICAgICAgICAgICAgICAgICAgICAgICAgICAgICAgICAgI
        CAgICAgICAgICAgICAgICAgICAgICAgIAQEBAQEBAQEBAQEBAQEBAQEBAQEBAQEBAQEBAQEBAQEBAQEBAQEBAQEBAQEBAQEBAQEBAQEBAQEBAQEBAQEBAQQIBAgEBAgE
        BAQEBAQEBAQEBAQEBAQEBAQEBAQEBAQEBAQEBAQEBAQEBAQEBAQEBAQEBAQEBAQEBAQEBAQEBARgYGBgYGBgYGBgYGBgYGBgYGBgYGBgYGBgYGBgYGBgYGBgYGBgYGBg
        YGBgYGBgYGBgYGBgYGBgYGBgYGBgYGBgAAAAAAAAAAAAAAAAAAAAAAAAAAAAAAAAAAAAAAAAAAAAAAAAAAAAAAAAAAAAAAAAAAAAAAAAAAAAAAAAAAAAAAAAAAAAAAAA
        AAAAAAAAAAAAAAAAAAAAAAAAAAAAAAAAAAAAAAAAAAAAAAAAAAAAAAAAAAAAAAAAAAAAAAAAAABTZXEgMmsgSGFybW9uaWMzIChBK0MvQyMpAA8RAQAAAMQ5vl//fwAA
        9DAPFgEAAAAOCEIDAQEAfwB/AEAAAQABAAAAAAAAAAAAfwAAAAAAAAAAAAAAAAAAAAAAAAAAAAAAAAAAAAAAAAAAAAAAAAAAAAAAAAAAAAAAAAAAAAAAAAAAAAAAAAAA
        AAAAAAcAAAAAAAAAAAAAAAAAAAAAAAAAAAAAAAAAAAAAAAAAAAAAAAAAAAAAAAAAAAAAAAAAAAAAAAAAAAAAAAAIBAgIBAgEBAgICAgICAgICAgICAgICAgICAgICAgI
        CAgICAgICAgICAgICAgICAgICAgICAgICAgICAgICAgIAQEBAQEBAQEBAQEBAQEBAQEBAQEBAQEBAQEBAQEBAQEBAQEBAQEBAQEBAQEBAQEBAQEBAQEBAQEBAQEBAQEB
        AQQECAQECAQEBAQEBAQEBAQEBAQEBAQEBAQEBAQEBAQEBAQEBAQEBAQEBAQEBAQEBAQEBAQEBAQEBAQEBAQEBARgYGBgYGBgYGBgYGBgYGBgYGBgYGBgYGBgYGBgYGBg
        YGBgYGBgYGBgYGBgYGBgYGBgYGBgYGBgYGBgYGBgYGBgAAAAAAAAAAAAAAAAAAAAAAAAAAAAAAAAAAAAAAAAAAAAAAAAAAAAAAAAAAAAAAAAAAAAAAAAAAAAAAAAAAAA
        AAAAAAAAAAAAAAAAAAAAAAAAAAAAAAAAAAAAAAAAAAAAAAAAAAAAAAAAAAAAAAAAAAAAAAAAAAAAAAAAAAAAAABTZXEgMmsgSGFybW9uaWM0IChBK0MvQyMpAA8RAQAA
        AMQ5vl//fwAA9DAPFgEAAAAOID0DAQAAfwB/AEAAAQABAAAAAAAAAAAAfwAAAAAAAAAAAAAAAAAAAAAAAAAAAAAAAAAAAAAAAAAAAAAAAAAAAAAAAAAAAAAAAAAAAAAA
        AAAAAAAAAAAAAAAA/v4AAP7+AAAAAAAAAAAAAP7+AAD+/gAAAAAAAAAAAAAAAAAAAAAAAAAAAAAAAAAAAAAAAAAAAAAAAAAAAAAICAgICAgICAgICAgICAgICAgICAgI
        CAgICAQEBAgEBAgICAgICAgICAgICAgICAgICAgICAgICAgICAgICAgIAQEBAQEBAQEBAQAAAQEAAAEBAQEBAQEBAQEBAQEBAAABAQEBAQEBAQEBAQEBAQEBAQEBAQEB
        AQEBAQEBAQEBAQQEBAQEBAQEBAQEBAgIBAQEBAQEBAQEBAQEBAQEBAQEBAQEBAQEBAQEBAQEBAQEBAQEBAQEBAQEBAQEBAQEBARgYGBgYGBgYGBgYGBgYGBgYGBgYGBg
        YGBgYGBgYGBgYGBgYGBgYGBgYGBgYGBgYGBgYGBgYGBgYGBgYGBgYGBgAAAAAAAAAAAAAAAAAAAAAAAAAAAAAAAAAAAAAAAAAAAAAAAAAAAAAAAAAAAAAAAAAAAAAAAA
        AAAAAAAAAAAAAAAAAAAAAAAAAAAAAAAAAAAAAAAAAAAAAAAAAAAAAAAAAAAAAAAAAAAAAAAAAAAAAAAAAAAAAAAAAAAAAAAAAABTZXEgMmsgS3JhZnR3ZXJrMSAoRCtG
        KQCwmA8RAQAAAMQ5vl//fwAA9DAPFgEAAAAOIGQDAQAAfwB/AD4AAQABAAAAAAAAAAAAfwAAAAAAAAAAAAAAAAAAAAAAAAAAAAAAAAAAAAAAAAAAAAAAAAAAAAAAAAAA
        AAAAAAAAAAAAAAAAAAAAAAAAAAAAAAAAAAAAAwAAAAAAAAADAAAABQAKAAcAAAAAAAAAAAAAAAAAAAAAAAAAAAAAAAAAAAAAAAAAAAAAAAAAAAAICAgICAgICAgICAgI
        CAgICAgICAgICAgICAgICAgICAgICAgICAgICAgICAgICAgICAgICAgICAgICAgICAgIAQAAAAEAAQABAAEAAAAAAAEAAAABAAEAAQAAAAAAAAABAQEBAQEBAQEBAQEB
        AQEBAQEBAQEBAQEBAQEBAQEBAQQEBAQEBAQEBAQEBAQEBAQEBAQEBAQEBAQEBAQEBAQEBAQEBAQEBAQEBAQEBAQEBAQEBAQEBAQEBAQEBAQEBARgYGBgYGBgYGBgYGBg
        YGBgYGBgYGBgYGBgYGBgYGBgYGBgYGBgYGBgYGBgYGBgYGBgYGBgYGBgYGBgYGBgYGBgAAAAAAAAAAAAAAAAAAAAAAAAAAAAAAAAAAAAAAAAAAAAAAAAAAAAAAAAAAAA
        AAAAAAAAAAAAAAAAAAAAAAAAAAAAAAAAAAAAAAAAAAAAAAAAAAAAAAAAAAAAAAAAAAAAAAAAAAAAAAAAAAAAAAAAAAAAAAAAAAAAAAAAAAAAAABTZXEgMmsgS3JhZnR3
        ZXJrMiAoQSwgQykAmA8RAQAAAMQ5vl//fwAA9DAPFgEAAAAOIGQDAQAAfwB/AEAAAQABAAAAAAAAAAAAfwAAAAAAAAAAAAAAAAAAAAAAAAAAAAAAAAAAAAAAAAAAAAAA
        AAAAAAAAAAAAAAAAAAAAAAAAAAAAAAAAAAAAAAAAAAAAAPsAAAD7AAAAAAAAAAAAAgAAAAAAAAAAAPsAAAAAAAAAAAAAAAAAAAAAAAAAAAAAAAAAAAAAAAAAAAAICAgI
        CAgICAgICAgICAgICAgICAgICAgICAgICAgICAgICAgICAgICAgICAgICAgICAgICAgICAgICAgICAgIAQAAAAEAAQABAAEAAAABAAEAAAABAAEAAAAAAAAAAQABAQEB
        AQEBAQEBAQEBAQEBAQEBAQEBAQEBAQEBAQEBAQQEBAQEBAQEBAQEBAQEBAQIBAQEBAQEBAQEBAQEBAQEBAQEBAQEBAQEBAQEBAQEBAQEBAQEBAQEBAQEBAQEBARgYGBg
        YGBgYGBgYGBgYGBgYGBgYGBgYGBgYGBgYGBgYGBgYGBgYGBgYGBgYGBgYGBgYGBgYGBgYGBgYGBgYGBgAAAAAAAAAAAAAAAAAAAAAAAAAAAAAAAAAAAAAAAAAAAAAAAA
        AAAAAAAAAAAAAAAAAAAAAAAAAAAAAAAAAAAAAAAAAAAAAAAAAAAAAAAAAAAAAAAAAAAAAAAAAAAAAAAAAAAAAAAAAAAAAAAAAAAAAAAAAAAAAAAAAAAAAAAAAABTZXEg
        MmsgS3JhZnR3ZXJrMyAoQStDLCBGK0EpAAAAAMQ5vl//fwAA9DAPFgEAAAA=
        AC0gSW5pdGlhbCBwcm9ncmFtIC0AEAAAAA==
      >
      PRESETNAME "- Initial program -"
      FLOATPOS 388 163 810 615
      FXID {7AA67CE5-3524-2D41-BFC7-60F6E1FF89E5}
      WAK 0
      BYPASS 0 0 0
      <VST "VSTi: chipsounds (Plogue Art et Technologie, Inc)" chipsounds.vst 0 "" 1347176271
        T0dMUO5e7f4AAAAABAAAAAEAAAAAAAAAAgAAAAAAAAAEAAAAAAAAAAgAAAAAAAAABwQAAAEAAAAAABAA
        Q0VHUGAaAAB4nO1Zy27bOBTd5ysIrWYWlUg9LcBOYTtxYaCeBmPPuqBlVhGqV0UqTfv1Q0pWJNkORcctpoOGG4vU4eU9vKR4Lj1++5jE4IEUNMrSiYZ0qIG311fjaRHh
        NX4gnVcuNLXrK8DLeE0Yi9KQgi8ljiP2jb/VQBhnWxzfZTGvWqYGKCsITjisrib4cV21TOM4C1azieYg3rxa3iw/lGyV7UhlBZcsSzDjQ67jjE007g8NJpqJ3JF4wjHm
        bQi8AUSMrdMg3jfPScpIMdFc2LiyKdNqdKjDqmjAaPznpkG0q6ynOCHCpA7uyoKA+X2UG+vljeE6IwT++Guznv+pgS1OPy85HkHoayC4x2lK4qp7XvHljrOj0fLtxwKn
        Ibf+Bj01Mt5E84ySqndSsvqBfv0YY8r52vs5rvxc4Sht/HzAcUmqCPXJ9IHoCXjEug80VYGWKtBWBTqqQFcV6KkCR6pAXxWIoDJSOTZIOThIOTpIOTxoKD53uMCJ0iJq
        kUOjt0hvYKm3yN7U274jg1rqVruumrYUeoav3QWFLOkEDK2oDrS7pGwkhXZXCnKk0O4MuNIZ8BzlGfC6uxmNZNHy+ttUBh11rVpSB0a+MtTvhgD58uXSbgJkDgXMh61l
        dxDbRtccxJrKgfCh+mb0oXuG3dEZWP+MbX4GOR6Coa2+wUVI2P7cD7JEv4uzsCS6kDz6+8UHvaSkgJ1juOo1LykXJjeYYcC+5SIkpuXyANHoO6/YgnqjlPh4JN1FuH7c
        8S78oSmL+seEP7b0KRo1x3NJo9+J9N/cXVJwybYmVFDQKSP57xL2TRGFISnWXESTNCDFIG3kmeIIq2l7foe2eYo22rPeF1h9br0FNPkzvB156JCINfcWvgJhBG1l7Asm
        bWyI1OAwS0CXZQmoyRLMNktAF6YJ5mua8Jom/F/ShD4j5LqeSkLhQ6e6IRhOKEzPdoVQ+aEJhSOFvlSkO7ZU+PbiJM1oeiLd8qQOdCNlmlLo0F56kfJ+uUa2z9DIw5rz
        52vkYZ3+n2nkX0v2HgmAg3I78B6eovgqe6WkLxN9SHy1z1N9M1ETqg85cOYtZkdMnldyjUJ0+SHgOFPHEnM5/2VbT/t7UObwVOtzRVWl3n76RAJ2fKM9TbaRCPOhLG3u
        wN/9s2w64IBFD2T5dOFe12/bC3gS8yHIboO34jDvfoEKQglbkbQEEW3grHJVvvQAI48cMsOUcgWM2f1EM6Z5HkdBdfdPjbojF9FRTrMy3fGWaixqSMwa9RIGvD34TA1h
        Xcd8q+cH380jr9FJr6dFTsIwwixrHY6j/AKHOxYNYeoS756bU+5BQgr8E6Z1733GwfUYB+6PDb6orq/GRvPv0fXVvz8xgTI=
        AAAQAAAA
      >
      FLOATPOS 338 -156 871 509
      FXID {DC79668B-30D1-964C-A162-F245DBE294B0}
      WAK 0
      BYPASS 0 0 0
      <VST "VST: 8-Bit Shaper (Xfer Records)" 8BitShaper.vst 0 "" 1148539762
        clN1RO5e7f4CAAAAAQAAAAAAAAACAAAAAAAAAAQAAAABAAAAAAAAAAIAAAAAAAAABAAAAAAAAAAIAAAAAAAAADQCAAABAAAAAAAQAA==
        ZmaGP+U8Xz/dQQw/KJAZPyQAAAAAAIA/EAAAAAAAAAAXAAAAMAAAABkAAAAaAAAAGgAAABoAAAAbAAAAGwAAABwAAAAcAAAAHAAAAB0AAAAdAAAAHgAAAB4AAAAfAAAA
        HwAAACAAAAAgAAAAIAAAACEAAAAhAAAAIQAAACIAAAAiAAAAIgAAACMAAAAjAAAAIwAAACQAAAAkAAAAJAAAACUAAAAlAAAAKAAAACgAAAApAAAAKQAAACoAAAA1AAAA
        KgAAACoAAAA2AAAAKgAAACoAAAAqAAAAKgAAACoAAAAqAAAAKgAAACsAAAArAAAAOQAAAC0AAAA0AAAAOgAAAC0AAAAtAAAAPAAAAC4AAAAuAAAALwAAADAAAAAwAAAA
        MQAAADEAAAAxAAAAMgAAADMAAAAzAAAAMwAAADcAAAA3AAAANwAAADgAAAA4AAAAOAAAADkAAAA5AAAAOQAAADoAAAA6AAAAOgAAADoAAAA6AAAAOwAAADsAAAA7AAAA
        PAAAADsAAAA7AAAAOwAAADwAAAA8AAAAPAAAADwAAAA9AAAAPQAAAD0AAAA9AAAAPQAAAD4AAAA+AAAAPwAAAEkAAABAAAAAQAAAAEgAAABAAAAAQQAAAEIAAABCAAAA
        QgAAAEMAAABDAAAAQwAAAEQAAABEAAAARQAAAE0AAABGAAAARwAAAEYAAABHAAAASAAAAEgAAABJAAAATwAAAAAAgD+rqqo+q6qqPsrMVD63vmA/
        AEluaXQgMQAQAAAA
      >
      PRESETNAME "Init 1"
      FLOATPOS 326 36 278 389
      FXID {A3516DD0-007E-B945-A08D-25DD0A7C5242}
      WAK 0
    >
    <ITEM
      POSITION 0
      SNAPOFFS 0
      LENGTH 66
      LOOP 1
      ALLTAKES 0
      FADEIN 1 0 0 1 0 0
      FADEOUT 1 0 0 1 0 0
      MUTE 0
      SEL 0
      YPOS 0.285714 0.142857
      IGUID {49C82CFF-DCDC-C64F-BF8B-5C269A1D25FD}
      IID 5
      NAME "Bass                 - National_Anthems_-_Sri_Lanka.mid"
      VOLPAN 1 0 1 -1
      SOFFS 0 0
      PLAYRATE 1 1 0 -1 0 0.0025
      CHANMODE 0
      GUID {60288206-ED90-7A4B-A1E5-5B3F62238C87}
      <SOURCE MIDI
        HASDATA 1 192 QN
        POOLEDEVTS {1AC51369-DD34-0346-BEBD-6C52CAD5A37B}
        <X 0 0
          /wNCYXNzICAgICAgICAgICAgICAgIA==
        >
        e 0 90 27 7f
        e 176 80 27 40
        e 16 90 24 7f
        e 176 80 24 40
        e 16 90 2c 7f
        e 176 80 2c 40
        e 16 90 2e 7f
        e 176 80 2e 40
        e 16 90 27 7f
        e 176 80 27 40
        e 16 90 2e 7f
        e 176 80 2e 40
        e 16 90 27 7f
        e 176 80 27 40
        e 208 90 27 7f
        e 176 80 27 40
        e 16 90 24 7f
        e 176 80 24 40
        e 16 90 2c 7f
        e 176 80 2c 40
        e 16 90 2e 7f
        e 176 80 2e 40
        e 16 90 27 7f
        e 560 80 27 40
        e 208 90 27 7f
        e 176 80 27 40
        e 16 90 24 7f
        e 176 80 24 40
        e 16 90 27 7f
        e 176 80 27 40
        e 16 90 2b 7f
        e 80 80 2b 40
        e 16 90 2c 7f
        e 80 80 2c 40
        e 16 90 2b 7f
        e 272 80 2b 40
        e 16 90 30 7f
        e 80 80 30 40
        e 16 90 2e 7f
        e 272 80 2e 40
        e 16 90 2c 7f
        e 80 80 2c 40
        e 16 90 2b 7f
        e 272 80 2b 40
        e 16 90 2c 7f
        e 80 80 2c 40
        e 16 90 2e 7f
        e 272 80 2e 40
        e 16 90 2e 7f
        e 80 80 2e 40
        e 16 90 2e 7f
        e 368 80 2e 40
        e 16 90 27 7f
        e 176 80 27 40
        e 3280 90 2c 7f
        e 176 80 2c 40
        e 16 90 2b 7f
        e 176 80 2b 40
        e 16 90 2c 7f
        e 176 80 2c 40
        e 16 90 29 7f
        e 176 80 29 40
        e 16 90 2b 7f
        e 176 80 2b 40
        e 16 90 27 7f
        e 176 80 27 40
        e 16 90 24 7f
        e 176 80 24 40
        e 16 90 26 7f
        e 176 80 26 40
        e 16 90 2e 7f
        e 560 80 2e 40
        e 16 90 2e 7f
        e 176 80 2e 40
        e 16 90 27 7f
        e 560 80 27 40
        e 208 90 27 7f
        e 176 80 27 40
        e 16 90 26 7f
        e 176 80 26 40
        e 16 90 27 7f
        e 176 80 27 40
        e 16 90 24 7f
        e 176 80 24 40
        e 16 90 26 7f
        e 176 80 26 40
        e 16 90 29 7f
        e 176 80 29 40
        e 16 90 2e 7f
        e 368 80 2e 40
        e 16 90 26 7f
        e 176 80 26 40
        e 16 90 27 7f
        e 176 80 27 40
        e 16 90 29 7f
        e 176 80 29 40
        e 16 90 2a 7f
        e 176 80 2a 40
        e 16 90 2b 7f
        e 368 80 2b 40
        e 16 90 29 7f
        e 176 80 29 40
        e 16 90 2e 7f
        e 176 80 2e 40
        e 16 90 2c 7f
        e 176 80 2c 40
        e 16 90 29 7f
        e 176 80 29 40
        e 16 90 2b 7f
        e 176 80 2b 40
        e 16 90 2c 7f
        e 176 80 2c 40
        e 16 90 2e 7f
        e 176 80 2e 40
        e 16 90 2b 7f
        e 80 80 2b 40
        e 16 90 2b 7f
        e 80 80 2b 40
        e 16 90 2c 7f
        e 176 80 2c 40
        e 16 90 2b 7f
        e 176 80 2b 40
        e 16 90 24 7f
        e 176 80 24 40
        e 16 90 29 7f
        e 176 80 29 40
        e 16 90 2c 7f
        e 176 80 2c 40
        e 16 90 2e 7f
        e 176 80 2e 40
        e 16 90 27 7f
        e 560 80 27 40
        e 208 90 27 7f
        e 176 80 27 40
        e 16 90 24 7f
        e 176 80 24 40
        e 16 90 27 7f
        e 176 80 27 40
        e 16 90 2b 7f
        e 80 80 2b 40
        e 16 90 2c 7f
        e 80 80 2c 40
        e 16 90 2b 7f
        e 272 80 2b 40
        e 16 90 30 7f
        e 80 80 30 40
        e 16 90 2e 7f
        e 272 80 2e 40
        e 16 90 2c 7f
        e 80 80 2c 40
        e 16 90 2b 7f
        e 272 80 2b 40
        e 16 90 2c 7f
        e 80 80 2c 40
        e 16 90 2e 7f
        e 272 80 2e 40
        e 16 90 2e 7f
        e 80 80 2e 40
        e 16 90 2e 7f
        e 368 80 2e 40
        e 16 90 27 7f
        e 176 80 27 40
        e 208 90 27 7f
        e 176 80 27 40
        e 16 90 24 7f
        e 176 80 24 40
        e 16 90 27 7f
        e 176 80 27 40
        e 16 90 2b 7f
        e 80 80 2b 40
        e 16 90 2c 7f
        e 80 80 2c 40
        e 16 90 2b 7f
        e 272 80 2b 40
        e 16 90 30 7f
        e 80 80 30 40
        e 16 90 2e 7f
        e 272 80 2e 40
        e 16 90 2c 7f
        e 80 80 2c 40
        e 16 90 2b 7f
        e 272 80 2b 40
        e 16 90 2c 7f
        e 80 80 2c 40
        e 16 90 2e 7f
        e 272 80 2e 40
        e 16 90 2e 7f
        e 80 80 2e 40
        e 16 90 2e 7f
        e 368 80 2e 40
        e 16 90 27 7f
        e 368 80 27 40
        e 16 90 27 7f
        e 752 80 27 40
        E 16 b0 7b 00
        GUID {402815A5-F97C-A644-A148-F5E581650265}
        IGNTEMPO 0 120 4 4
        SRCCOLOR 109
        VELLANE -1 86 6
        CFGEDITVIEW -1267.2 7.011019 49 7 0 0 0 0 0 0.5
        KEYSNAP 0
        TRACKSEL 252 0 0 ""
        EVTFILTER 0 -1 -1 -1 -1 0 0 0 0 -1 -1 -1 -1 0 -1 0 -1 -1
        CFGEDIT 1 0 0 0 0 0 1 0 1 1 1 0.25 349 84 1280 633 0 0 2 3 0 0 0 0 0 0.5 0 0 1 64
      >
    >
    <ITEM
      POSITION 0
      SNAPOFFS 0
      LENGTH 64.5
      LOOP 1
      ALLTAKES 0
      FADEIN 1 0 0 1 0 0
      FADEOUT 1 0 0 1 0 0
      MUTE 1
      SEL 0
      YPOS 0.714286 0.142857
      IGUID {5B340F7D-A0A8-DC4E-B1AC-1C51113242D3}
      IID 1
      NAME "Melody               - National_Anthems_-_Sri_Lanka.mid"
      VOLPAN 1 0 1 -1
      SOFFS 0 0
      PLAYRATE 1 1 0 -1 0 0.0025
      CHANMODE 0
      GUID {109C5CA9-5556-1F4D-B46C-97D5580F77DE}
      <SOURCE MIDI
        HASDATA 1 192 QN
        POOLEDEVTS {139F0796-4187-A749-8C31-0BFCC29825F0}
        <X 0 0
          /wNNZWxvZHkgICAgICAgICAgICAgIA==
        >
        <X 0 0
          /wFUSEUgU09GVFdBUkUgVE9PTFdPUktT
        >
        <X 0 0
          /wFXT1JMRCBBVExBUw==
        >
        <X 0 0
          /wFNdWx0aU1lZGlhIFdpbmRvd3MgVmVyc2lvbg==
        >
        <X 0 0
          /wFDb3VudHJ5OiBTUkkgTEFOS0E=
        >
        <X 0 0
          /wFBbnRoZW0gTmFtZTo=
        >
        <X 0 0
          /wEocCkgKGMpIFRoZSBTb2Z0d2FyZSBUb29sd29ya3MgMTk5MQ==
        >
        <X 0 0
          /wFub3Rlczo=
        >
        <X 0 0
          /wFkYXRlOg==
        >
        <X 0 0
          /wFlZGl0IGRhdGU6IDktNy05MQ==
        >
        <X 0 0
          /wFSRVZJU0VEOiAxMS0xNC05MQ==
        >
        <X 0 0
          /wFNTVdJTiBFRElUIERBVEU6IDktMTMtOTE=
        >
        <X 0 0
          /wE/PSBubyBtYXJraW5nICE9IGJwbSBwcm92aWRlZA==
        >
        <X 0 0
          /wFUaGlzIGZpbGUgcHJvdmlkZWQgYnk6
        >
        <X 0 0
          /wFSb2IgV2FsbGFjZSBNdXNpYw==
        >
        <X 0 0
          /wEoNjAyKSA5NzgtMDgzNQ==
        >
        e 1536 90 43 7f
        e 176 80 43 40
        e 16 90 43 7f
        e 176 80 43 40
        e 16 90 41 7f
        e 176 80 41 40
        e 16 90 3e 7f
        e 80 80 3e 40
        e 16 90 41 7f
        e 80 80 41 40
        e 16 90 3f 7f
        e 560 80 3f 40
        e 16 90 3f 7f
        e 80 80 3f 40
        e 16 90 3e 7f
        e 80 80 3e 40
        e 16 90 3f 7f
        e 80 80 3f 40
        e 16 90 41 7f
        e 80 80 41 40
        e 16 90 43 7f
        e 80 80 43 40
        e 16 90 41 7f
        e 80 80 41 40
        e 16 90 43 7f
        e 80 80 43 40
        e 16 90 44 7f
        e 80 80 44 40
        e 16 90 46 7f
        e 80 80 46 40
        e 16 90 48 7f
        e 80 80 48 40
        e 16 90 46 7f
        e 272 80 46 40
        e 16 90 4b 7f
        e 80 80 4b 40
        e 16 90 4a 7f
        e 272 80 4a 40
        e 16 90 48 7f
        e 80 80 48 40
        e 16 90 46 7f
        e 272 80 46 40
        e 16 90 44 7f
        e 80 80 44 40
        e 16 90 43 7f
        e 272 80 43 40
        e 16 90 43 7f
        e 80 80 43 40
        e 16 90 41 7f
        e 176 80 41 40
        e 16 90 3e 7f
        e 80 80 3e 40
        e 16 90 41 7f
        e 80 80 41 40
        e 16 90 3f 7f
        e 176 80 3f 40
        e 208 90 3a 7f
        e 80 80 3a 40
        e 16 90 3f 7f
        e 80 80 3f 40
        e 16 90 3f 7f
        e 80 80 3f 40
        e 16 90 3f 7f
        e 80 80 3f 40
        e 16 90 3f 7f
        e 80 80 3f 40
        e 16 90 3f 7f
        e 80 80 3f 40
        e 16 90 3e 7f
        e 80 80 3e 40
        e 16 90 3f 7f
        e 80 80 3f 40
        e 16 90 41 7f
        e 272 80 41 40
        e 16 90 41 7f
        e 80 80 41 40
        e 16 90 41 7f
        e 80 80 41 40
        e 16 90 43 7f
        e 80 80 43 40
        e 16 90 41 7f
        e 80 80 41 40
        e 16 90 43 7f
        e 80 80 43 40
        e 16 90 44 7f
        e 80 80 44 40
        e 16 90 46 7f
        e 80 80 46 40
        e 16 90 46 7f
        e 80 80 46 40
        e 16 90 46 7f
        e 80 80 46 40
        e 16 90 46 7f
        e 80 80 46 40
        e 16 90 46 7f
        e 80 80 46 40
        e 16 90 45 7f
        e 80 80 45 40
        e 16 90 48 7f
        e 80 80 48 40
        e 16 90 46 7f
        e 656 80 46 40
        e 112 90 48 7f
        e 80 80 48 40
        e 16 90 4b 7f
        e 80 80 4b 40
        e 16 90 4b 7f
        e 80 80 4b 40
        e 16 90 46 7f
        e 80 80 46 40
        e 16 90 48 7f
        e 80 80 48 40
        e 16 90 48 7f
        e 80 80 48 40
        e 16 90 44 7f
        e 80 80 44 40
        e 16 90 44 7f
        e 80 80 44 40
        e 16 90 46 7f
        e 176 80 46 40
        e 16 90 43 7f
        e 80 80 43 40
        e 16 90 43 7f
        e 80 80 43 40
        e 16 90 44 7f
        e 80 80 44 40
        e 16 90 44 7f
        e 80 80 44 40
        e 16 90 41 7f
        e 80 80 41 40
        e 16 90 41 7f
        e 80 80 41 40
        e 16 90 44 7f
        e 80 80 44 40
        e 16 90 44 7f
        e 80 80 44 40
        e 16 90 43 7f
        e 176 80 43 40
        e 16 90 41 7f
        e 80 80 41 40
        e 16 90 41 7f
        e 80 80 41 40
        e 16 90 3e 7f
        e 80 80 3e 40
        e 16 90 41 7f
        e 80 80 41 40
        e 16 90 3f 7f
        e 560 80 3f 40
        e 208 90 3f 7f
        e 80 80 3f 40
        e 16 90 3f 7f
        e 80 80 3f 40
        e 16 90 41 7f
        e 80 80 41 40
        e 16 90 41 7f
        e 80 80 41 40
        e 16 90 43 7f
        e 80 80 43 40
        e 16 90 43 7f
        e 80 80 43 40
        e 16 90 44 7f
        e 80 80 44 40
        e 16 90 44 7f
        e 80 80 44 40
        e 16 90 46 7f
        e 80 80 46 40
        e 16 90 46 7f
        e 80 80 46 40
        e 16 90 45 7f
        e 80 80 45 40
        e 16 90 48 7f
        e 80 80 48 40
        e 16 90 46 7f
        e 368 80 46 40
        e 16 90 41 7f
        e 80 80 41 40
        e 16 90 41 7f
        e 80 80 41 40
        e 16 90 43 7f
        e 80 80 43 40
        e 16 90 43 7f
        e 80 80 43 40
        e 16 90 44 7f
        e 176 80 44 40
        e 16 90 46 7f
        e 80 80 46 40
        e 16 90 45 7f
        e 80 80 45 40
        e 16 90 46 7f
        e 656 80 46 40
        e 112 90 48 7f
        e 80 80 48 40
        e 16 90 48 7f
        e 80 80 48 40
        e 16 90 4a 7f
        e 80 80 4a 40
        e 16 90 4a 7f
        e 80 80 4a 40
        e 16 90 4b 7f
        e 80 80 4b 40
        e 16 90 4b 7f
        e 80 80 4b 40
        e 16 90 4d 7f
        e 80 80 4d 40
        e 16 90 4d 7f
        e 80 80 4d 40
        e 16 90 4a 7f
        e 176 80 4a 40
        e 16 90 4b 7f
        e 176 80 4b 40
        e 16 90 48 7f
        e 176 80 48 40
        e 16 90 46 7f
        e 176 80 46 40
        e 16 90 46 7f
        e 80 80 46 40
        e 16 90 46 7f
        e 176 80 46 40
        e 16 90 44 7f
        e 80 80 44 40
        e 16 90 41 7f
        e 176 80 41 40
        e 16 90 3e 7f
        e 80 80 3e 40
        e 16 90 41 7f
        e 80 80 41 40
        e 16 90 3f 7f
        e 560 80 3f 40
        e 16 90 3f 7f
        e 80 80 3f 40
        e 16 90 3e 7f
        e 80 80 3e 40
        e 16 90 3f 7f
        e 80 80 3f 40
        e 16 90 41 7f
        e 80 80 41 40
        e 16 90 43 7f
        e 80 80 43 40
        e 16 90 41 7f
        e 80 80 41 40
        e 16 90 43 7f
        e 80 80 43 40
        e 16 90 44 7f
        e 80 80 44 40
        e 16 90 46 7f
        e 80 80 46 40
        e 16 90 48 7f
        e 80 80 48 40
        e 16 90 46 7f
        e 272 80 46 40
        e 16 90 4b 7f
        e 80 80 4b 40
        e 16 90 4a 7f
        e 272 80 4a 40
        e 16 90 48 7f
        e 80 80 48 40
        e 16 90 46 7f
        e 272 80 46 40
        e 16 90 44 7f
        e 80 80 44 40
        e 16 90 43 7f
        e 272 80 43 40
        e 16 90 43 7f
        e 80 80 43 40
        e 16 90 41 7f
        e 176 80 41 40
        e 16 90 3e 7f
        e 80 80 3e 40
        e 16 90 41 7f
        e 80 80 41 40
        e 16 90 3f 7f
        e 176 80 3f 40
        e 16 90 3f 7f
        e 80 80 3f 40
        e 16 90 3e 7f
        e 80 80 3e 40
        e 16 90 3f 7f
        e 80 80 3f 40
        e 16 90 41 7f
        e 80 80 41 40
        e 16 90 43 7f
        e 80 80 43 40
        e 16 90 41 7f
        e 80 80 41 40
        e 16 90 43 7f
        e 80 80 43 40
        e 16 90 44 7f
        e 80 80 44 40
        e 16 90 46 7f
        e 80 80 46 40
        e 16 90 48 7f
        e 80 80 48 40
        e 16 90 46 7f
        e 272 80 46 40
        e 16 90 4b 7f
        e 80 80 4b 40
        e 16 90 4a 7f
        e 272 80 4a 40
        e 16 90 48 7f
        e 80 80 48 40
        e 16 90 46 7f
        e 272 80 46 40
        e 16 90 44 7f
        e 80 80 44 40
        e 16 90 43 7f
        e 272 80 43 40
        e 16 90 43 7f
        e 80 80 43 40
        e 16 90 41 7f
        e 176 80 41 40
        e 16 90 3e 7f
        e 80 80 3e 40
        e 16 90 41 7f
        e 80 80 41 40
        e 16 90 3f 7f
        e 560 80 3f 40
        E 16 b0 7b 00
        GUID {1C87EDA1-1F61-8D4E-BDAD-6694C0601798}
        IGNTEMPO 0 120 4 4
        SRCCOLOR 105
        VELLANE -1 86 6
        CFGEDITVIEW -1267.2 7.011019 49 7 0 0 0 0 0 0.5
        KEYSNAP 0
        TRACKSEL 252 0 0 ""
        EVTFILTER 0 -1 -1 -1 -1 0 0 0 0 -1 -1 -1 -1 0 -1 0 -1 -1
        CFGEDIT 1 0 0 0 0 0 1 0 1 1 1 0.25 349 84 1280 633 0 0 2 3 0 0 0 0 0 0.5 0 0 1 64
      >
    >
  >
  <TRACK {3CF13A00-0AFC-8542-AD98-73B6D91102DB}
    NAME "vst Plogue"
    PEAKCOL 26779488
    BEAT -1
    AUTOMODE 0
    VOLPAN 1 0 -1 -1 1
    MUTESOLO 0 0 0
    IPHASE 0
    ISBUS 0 0
    BUSCOMP 0 0
    SHOWINMIX 1 0.6667 0.5 1 0.5 0 0 0
    FREEMODE 0
    SEL 0
    REC 0 0 0 1 0 0 0
    VU 2
    TRACKHEIGHT 0 0
    INQ 0 0 0 0.5 100 0 0 100
    NCHAN 4
    FX 1
    TRACKID {3CF13A00-0AFC-8542-AD98-73B6D91102DB}
    PERF 0
    AUXRECV 6 0 1 0 0 0 0 0 0 -1:U 32 -1 ''
    AUXRECV 6 0 1 0 0 0 0 0 0 -1:U 96 -1 ''
    AUXRECV 7 0 1 0 0 0 0 0 0 -1:U 64 -1 ''
    AUXRECV 7 0 1 0 0 0 0 0 0 -1:U 128 -1 ''
    MIDIOUT -1
    MAINSEND 0 0
    <FXCHAIN
      SHOW 0
      LASTSEL 0
      DOCKED 0
      BYPASS 0 0 0
      <VST "VSTi: chipsounds (Multi) (Plogue Art et Technologie, Inc) (32 out)" "chipsounds Multi.vst" 0 "" 1347241807
        T0dNUO5e7f4AAAAAIAAAAAEAAAAAAAAAAgAAAAAAAAAEAAAAAAAAAAgAAAAAAAAAEAAAAAAAAAAgAAAAAAAAAEAAAAAAAAAAgAAAAAAAAAAAAQAAAAAAAAACAAAAAAAA
        AAQAAAAAAAAACAAAAAAAAAAQAAAAAAAAACAAAAAAAAAAQAAAAAAAAACAAAAAAAAAAAABAAAAAAAAAAIAAAAAAAAABAAAAAAAAAAIAAAAAAAAABAAAAAAAAAAIAAAAAAA
        AABAAAAAAAAAAIAAAAAAAAAAAAEAAAAAAAAAAgAAAAAAAAAEAAAAAAAAAAgAAAAAAAAAEAAAAAAAAAAgAAAAAAAAAEAAAAAAAAAAgAAAAADxBQAAAQAAAAAAEAA=
        Q0VHUDE/AAB4nO2bW3OjNhTH3/MpGJ7ahzWSuJkZJzu+xN3MNN1M7Z0+ZhRbcWi5uEikST99BRgbxViIkLSzDTwkIP850tER4icde/T5KQy0R5JQP47OdTgAuvb54mw0
        Tny8wI+k8pEDkH5xpvFjtCCM+dGGan+mOPDZM/9U1zZBfIeDmzjglybSNcoSgkMuKy5D/LTIS8ZBEK+uJ+e6DXnx9dXs6mvKruM1ya3glMUhZrzKRRCzc523h6641hpm
        JzjAvAhqnzSSVT2gq2BXPCURI8m57oCyJcs0yisHA5AfumaUzeeWNX+dG49wSDKTA+0mTYg2ffC3xuJqZjj2EGo//LJcTH/UtTsc/XHF9RAAT9dWDziKSJDfvs3dtXSN
        HdW2vbtNcLTh1j/BfSHjRXQbU5LfHaasOKF/3QaYssxS0ca8ndfYj8p2PuIgJXmARGdEIdwLj7wWhUhVaKoKLVWhrSp0VIWuqnCoKvRUhRAoK5VjA5WDA5WjA5XDA5vi
        c4MTHCoNooOyqfaDshrLoW1LlELXW55M6lb7HprS+i1BKrVaHaBwKJWKI08mHVatmtK+GnrKUq/aWdCTSaF1iCtE9fFa4mRD2G7yXMXh4CaINykZZK+Nwc/zr4OUkgRU
        5rL8rmlK+eQ+wwxr7HnL70TIdHhoqP83v8hm+P3bhtdHorWPi9M1v4WflMe8+IfA2x6ii0bhY1un4Qdxepn4mw1JFvw9TKIVSRrdhi6CXum27VbcRnVuw53Xu6O4dvNz
        c+rOPcGJKTDn/1VH5NH/lTtAEg4AC0IzpwaUke3/aPyPjIyZXuIT7IZPsAafhj0+9fj0QfBJ9Ag6jqsCWh6w84VTM2gh13KA88agZUtdEkDLtqRIVG2q6UqtNg3lV9GT
        CudUAerQC6gpsHxubphyeoDqAaoLQEEA2xJU/uS6vBfml8cEVXSNa06Egjnnqkw7PJLy0lmdBYBEC+9MZvVcgrpxiVVyCTxwidWNS0ADlzS9VNpzSQPp9Fwi7/CeS9py
        iYssK3uM6pVVj6B0/6PqkSslCMEjKPPIbXgsTm0qSfd0hChx32VSS70BwqZSRjDwpLSFW9WRb0lpz632gCndKarQXlMDXGFISztLAENH3tbqEHCg8madjWRSYa/MQ9J+
        NauPgA1Mzzz5sLyeN81GbdO8X9Wq78V6wGlhV300esBr8UC2cA5CwTtTGmYeg+pMl2tl4qZ+65G+R/pOSI/Mtkifr5oLpAcITSZHnhyD/ixHegBqkb52UWBPRbuTAuld
        F1ZL50XpVCzdHVMV7fzEUqE1/pvd8B/9+1ldZfxvoPp+W1Iq7PH/O8vqNhjts7rVzuqzurVHTzB9VveV0f+YWV2rGz6ZNfhk9/jU49MHwafvMKvbuHnXZ3X7rO6usT1A
        SZ3us7qqR2sucfdcggZa0Y/ab/iR3MdJSI0vOFlri+dodRJM7H1a1+m4sfNGNPL23zFr4JueRj42jUhTWYJH0m/TC93EWQR5J9O+gve2PJ0qoIs86yYMEilkCIlP+R4R
        UgcipJ6ScptG3+vSqUK0HCmRCQPQkVq11RsgpqmleU8hR+pI8fH96K2aI236FuP75UiHLbTqOVIPqgeO96r6iOTippfLyRSpKV99IND07uhhuofpLjCNbLslTBfvh2I7
        EkzcuUo+tTzKXKbDF/K2PbbFDGeldOLax3bbWXBqMr0tLcCuFmy3qwVr1tFCfSlC49p8NXiZmVZdgFze35MVO/7N8Di887Nh+XLBsbM6+unbVXkDXjH/kVwVv2iG5fXl
        4RfOJOBVkPUS32UjtTpjJoQSdk2iVPNpeTvLmyp/VDRGnrhkyf+mCVlrX3xG+SIHs4dz3Rhvt4G/yn9lTY3CAl8n+Vsap9Gal+SVUkNi39gtwMbJlmw2fkwNoaYB5vPV
        9sXkf+QKauVKiH932cPeh298IqQG5aGINgHONuqN21VCMCPGAofbgFDjsvxEm/vZdVHB9OBoWQfNbrHZw8t2jwwexIuzkVH+HP7i7B+zYRcf
        AAAQAAAA
      >
      FLOATPOS 275 269 871 509
      FXID {C804D762-B992-A540-81BF-3D6C0F7FF19B}
      WAK 0
    >
  >
  <TRACK {361291E9-E6AB-604E-AA43-746A4AF7FC9C}
    NAME "midi "
    PEAKCOL 16576
    BEAT -1
    AUTOMODE 0
    VOLPAN 1 0 -1 -1 1
    MUTESOLO 0 0 0
    IPHASE 0
    ISBUS 1 1
    BUSCOMP 1 0
    SHOWINMIX 1 0.6667 0.5 1 0.5 0 0 0
    FREEMODE 0
    SEL 0
    REC 0 0 0 0 0 0 0
    VU 2
    TRACKHEIGHT 0 0
    INQ 0 0 0 0.5 100 0 0 100
    NCHAN 2
    FX 1
    TRACKID {361291E9-E6AB-604E-AA43-746A4AF7FC9C}
    PERF 0
    MIDIOUT -1
    MAINSEND 1 0
  >
  <TRACK {2BB5EACD-C1BC-284E-92F6-33B7023B768F}
    NAME "ch1,3 (send)"
    PEAKCOL 16576
    BEAT -1
    AUTOMODE 0
    VOLPAN 1 0 -1 -1 1
    MUTESOLO 0 0 0
    IPHASE 0
    ISBUS 0 0
    BUSCOMP 0 0
    SHOWINMIX 1 0.6667 0.5 1 0.5 0 0 0
    FREEMODE 0
    SEL 0
    REC 0 0 0 0 0 0 0
    VU 2
    MIDICTL -1 1
    TRACKHEIGHT 0 0
    INQ 0 0 0 0.5 100 0 0 100
    NCHAN 2
    FX 1
    TRACKID {2BB5EACD-C1BC-284E-92F6-33B7023B768F}
    PERF 0
    MIDIOUT -1
    MAINSEND 1 0
    <FXCHAIN
      SHOW 0
      LASTSEL 0
      DOCKED 0
    >
    <ITEM
      POSITION 0
      SNAPOFFS 0
      LENGTH 66
      LOOP 1
      ALLTAKES 0
      FADEIN 1 0 0 1 0 0
      FADEOUT 1 0 0 1 0 0
      MUTE 0
      SEL 0
      YPOS 0.285714 0.142857
      IGUID {27F05C92-62B9-BC4F-8327-8659693AC04C}
      IID 5
      NAME "Bass                 - National_Anthems_-_Sri_Lanka.mid"
      VOLPAN 1 0 1 -1
      SOFFS 0 0
      PLAYRATE 1 1 0 -1 0 0.0025
      CHANMODE 0
      GUID {CC115DE3-3FF6-CA40-BD9B-509D5B36B0C4}
      <SOURCE MIDI
        HASDATA 1 192 QN
        POOLEDEVTS {526C3DFD-299A-6A4A-93E4-177CD4533846}
        <X 0 0
          /wNCYXNzICAgICAgICAgICAgICAgIA==
        >
        E 0 93 27 7f
        E 176 83 27 40
        E 16 93 24 7f
        E 176 83 24 40
        E 16 93 2c 7f
        E 176 83 2c 40
        E 16 93 2e 7f
        E 176 83 2e 40
        E 16 93 27 7f
        E 176 83 27 40
        E 16 93 2e 7f
        E 176 83 2e 40
        E 16 93 27 7f
        E 176 83 27 40
        E 208 93 27 7f
        E 176 83 27 40
        E 16 93 24 7f
        E 176 83 24 40
        E 16 93 2c 7f
        E 176 83 2c 40
        E 16 93 2e 7f
        E 176 83 2e 40
        E 16 93 27 7f
        E 560 83 27 40
        E 208 93 27 7f
        E 176 83 27 40
        E 16 93 24 7f
        E 176 83 24 40
        E 16 93 27 7f
        E 176 83 27 40
        E 16 93 2b 7f
        E 80 83 2b 40
        E 16 93 2c 7f
        E 80 83 2c 40
        E 16 93 2b 7f
        E 272 83 2b 40
        E 16 93 30 7f
        E 80 83 30 40
        E 16 93 2e 7f
        E 272 83 2e 40
        E 16 93 2c 7f
        E 80 83 2c 40
        E 16 93 2b 7f
        E 272 83 2b 40
        E 16 93 2c 7f
        E 80 83 2c 40
        E 16 93 2e 7f
        E 272 83 2e 40
        E 16 93 2e 7f
        E 80 83 2e 40
        E 16 93 2e 7f
        E 368 83 2e 40
        E 16 93 27 7f
        E 176 83 27 40
        E 3280 93 2c 7f
        E 176 83 2c 40
        E 16 93 2b 7f
        E 176 83 2b 40
        E 16 93 2c 7f
        E 176 83 2c 40
        E 16 93 29 7f
        E 176 83 29 40
        E 16 93 2b 7f
        E 176 83 2b 40
        E 16 93 27 7f
        E 176 83 27 40
        E 16 93 24 7f
        E 176 83 24 40
        E 16 93 26 7f
        E 176 83 26 40
        E 16 93 2e 7f
        E 560 83 2e 40
        E 16 93 2e 7f
        E 176 83 2e 40
        E 16 93 27 7f
        E 560 83 27 40
        E 208 93 27 7f
        E 176 83 27 40
        E 16 93 26 7f
        E 176 83 26 40
        E 16 93 27 7f
        E 176 83 27 40
        E 16 93 24 7f
        E 176 83 24 40
        E 16 93 26 7f
        E 176 83 26 40
        E 16 93 29 7f
        E 176 83 29 40
        E 16 93 2e 7f
        E 368 83 2e 40
        E 16 93 26 7f
        E 176 83 26 40
        E 16 93 27 7f
        E 176 83 27 40
        E 16 93 29 7f
        E 176 83 29 40
        E 16 93 2a 7f
        E 176 83 2a 40
        E 16 93 2b 7f
        E 368 83 2b 40
        E 16 93 29 7f
        E 176 83 29 40
        E 16 93 2e 7f
        E 176 83 2e 40
        E 16 93 2c 7f
        E 176 83 2c 40
        E 16 93 29 7f
        E 176 83 29 40
        E 16 93 2b 7f
        E 176 83 2b 40
        E 16 93 2c 7f
        E 176 83 2c 40
        E 16 93 2e 7f
        E 176 83 2e 40
        E 16 93 2b 7f
        E 80 83 2b 40
        E 16 93 2b 7f
        E 80 83 2b 40
        E 16 93 2c 7f
        E 176 83 2c 40
        E 16 93 2b 7f
        E 176 83 2b 40
        E 16 93 24 7f
        E 176 83 24 40
        E 16 93 29 7f
        E 176 83 29 40
        E 16 93 2c 7f
        E 176 83 2c 40
        E 16 93 2e 7f
        E 176 83 2e 40
        E 16 93 27 7f
        E 560 83 27 40
        E 208 93 27 7f
        E 176 83 27 40
        E 16 93 24 7f
        E 176 83 24 40
        E 16 93 27 7f
        E 176 83 27 40
        E 16 93 2b 7f
        E 80 83 2b 40
        E 16 93 2c 7f
        E 80 83 2c 40
        E 16 93 2b 7f
        E 272 83 2b 40
        E 16 93 30 7f
        E 80 83 30 40
        E 16 93 2e 7f
        E 272 83 2e 40
        E 16 93 2c 7f
        E 80 83 2c 40
        E 16 93 2b 7f
        E 272 83 2b 40
        E 16 93 2c 7f
        E 80 83 2c 40
        E 16 93 2e 7f
        E 272 83 2e 40
        E 16 93 2e 7f
        E 80 83 2e 40
        E 16 93 2e 7f
        E 368 83 2e 40
        E 16 93 27 7f
        E 176 83 27 40
        E 208 93 27 7f
        E 176 83 27 40
        E 16 93 24 7f
        E 176 83 24 40
        E 16 93 27 7f
        E 176 83 27 40
        E 16 93 2b 7f
        E 80 83 2b 40
        E 16 93 2c 7f
        E 80 83 2c 40
        E 16 93 2b 7f
        E 272 83 2b 40
        E 16 93 30 7f
        E 80 83 30 40
        E 16 93 2e 7f
        E 272 83 2e 40
        E 16 93 2c 7f
        E 80 83 2c 40
        E 16 93 2b 7f
        E 272 83 2b 40
        E 16 93 2c 7f
        E 80 83 2c 40
        E 16 93 2e 7f
        E 272 83 2e 40
        E 16 93 2e 7f
        E 80 83 2e 40
        E 16 93 2e 7f
        E 368 83 2e 40
        E 16 93 27 7f
        E 368 83 27 40
        E 16 93 27 7f
        E 752 83 27 40
        E 16 b0 7b 00
        GUID {402815A5-F97C-A644-A148-F5E581650265}
        IGNTEMPO 0 120 4 4
        SRCCOLOR 109
        VELLANE -1 86 6
        CFGEDITVIEW 10748.429055 53.034757 49 7 0 0 0 0 0 0.5
        KEYSNAP 0
        TRACKSEL 252 0 0 ""
        EVTFILTER 0 -1 -1 -1 -1 0 0 0 0 -1 -1 -1 -1 0 -1 0 -1 -1
        CFGEDIT 1 0 0 0 0 0 1 0 1 1 1 0.25 349 84 1280 633 0 0 2 3 0 0 0 0 0 0.5 0 0 1 64
      >
    >
    <ITEM
      POSITION 0
      SNAPOFFS 0
      LENGTH 64.5
      LOOP 1
      ALLTAKES 0
      FADEIN 1 0 0 1 0 0
      FADEOUT 1 0 0 1 0 0
      MUTE 0
      SEL 0
      YPOS 0.714286 0.142857
      IGUID {518FDAD2-172D-E14B-B78C-2B3A48ADF404}
      IID 1
      NAME "Melody               - National_Anthems_-_Sri_Lanka.mid"
      VOLPAN 1 0 1 -1
      SOFFS 0 0
      PLAYRATE 1 1 0 -1 0 0.0025
      CHANMODE 0
      GUID {7EDB6150-2884-5D4D-A976-6DB04D4E949E}
      <SOURCE MIDI
        HASDATA 1 192 QN
        POOLEDEVTS {46E41EF2-A2E8-9F45-9A6C-5006745B26A2}
        <X 0 0
          /wNNZWxvZHkgICAgICAgICAgICAgIA==
        >
        <X 0 0
          /wFUSEUgU09GVFdBUkUgVE9PTFdPUktT
        >
        <X 0 0
          /wFXT1JMRCBBVExBUw==
        >
        <X 0 0
          /wFNdWx0aU1lZGlhIFdpbmRvd3MgVmVyc2lvbg==
        >
        <X 0 0
          /wFDb3VudHJ5OiBTUkkgTEFOS0E=
        >
        <X 0 0
          /wFBbnRoZW0gTmFtZTo=
        >
        <X 0 0
          /wEocCkgKGMpIFRoZSBTb2Z0d2FyZSBUb29sd29ya3MgMTk5MQ==
        >
        <X 0 0
          /wFub3Rlczo=
        >
        <X 0 0
          /wFkYXRlOg==
        >
        <X 0 0
          /wFlZGl0IGRhdGU6IDktNy05MQ==
        >
        <X 0 0
          /wFSRVZJU0VEOiAxMS0xNC05MQ==
        >
        <X 0 0
          /wFNTVdJTiBFRElUIERBVEU6IDktMTMtOTE=
        >
        <X 0 0
          /wE/PSBubyBtYXJraW5nICE9IGJwbSBwcm92aWRlZA==
        >
        <X 0 0
          /wFUaGlzIGZpbGUgcHJvdmlkZWQgYnk6
        >
        <X 0 0
          /wFSb2IgV2FsbGFjZSBNdXNpYw==
        >
        <X 0 0
          /wEoNjAyKSA5NzgtMDgzNQ==
        >
        E 1536 90 43 7f
        E 176 80 43 40
        E 16 90 43 7f
        E 176 80 43 40
        E 16 90 41 7f
        E 176 80 41 40
        E 16 90 3e 7f
        E 80 80 3e 40
        E 16 90 41 7f
        E 80 80 41 40
        E 16 90 3f 7f
        E 560 80 3f 40
        E 16 90 3f 7f
        E 80 80 3f 40
        E 16 90 3e 7f
        E 80 80 3e 40
        E 16 90 3f 7f
        E 80 80 3f 40
        E 16 90 41 7f
        E 80 80 41 40
        E 16 90 43 7f
        E 80 80 43 40
        E 16 90 41 7f
        E 80 80 41 40
        E 16 90 43 7f
        E 80 80 43 40
        E 16 90 44 7f
        E 80 80 44 40
        E 16 90 46 7f
        E 80 80 46 40
        E 16 90 48 7f
        E 80 80 48 40
        E 16 90 46 7f
        E 272 80 46 40
        E 16 90 4b 7f
        E 80 80 4b 40
        E 16 90 4a 7f
        E 272 80 4a 40
        E 16 90 48 7f
        E 80 80 48 40
        E 16 90 46 7f
        E 272 80 46 40
        E 16 90 44 7f
        E 80 80 44 40
        E 16 90 43 7f
        E 272 80 43 40
        E 16 90 43 7f
        E 80 80 43 40
        E 16 90 41 7f
        E 176 80 41 40
        E 16 90 3e 7f
        E 80 80 3e 40
        E 16 90 41 7f
        E 80 80 41 40
        E 16 90 3f 7f
        E 176 80 3f 40
        E 208 90 3a 7f
        E 80 80 3a 40
        E 16 90 3f 7f
        E 80 80 3f 40
        E 16 90 3f 7f
        E 80 80 3f 40
        E 16 90 3f 7f
        E 80 80 3f 40
        E 16 90 3f 7f
        E 80 80 3f 40
        E 16 90 3f 7f
        E 80 80 3f 40
        E 16 90 3e 7f
        E 80 80 3e 40
        E 16 90 3f 7f
        E 80 80 3f 40
        E 16 90 41 7f
        E 272 80 41 40
        E 16 90 41 7f
        E 80 80 41 40
        E 16 90 41 7f
        E 80 80 41 40
        E 16 90 43 7f
        E 80 80 43 40
        E 16 90 41 7f
        E 80 80 41 40
        E 16 90 43 7f
        E 80 80 43 40
        E 16 90 44 7f
        E 80 80 44 40
        E 16 90 46 7f
        E 80 80 46 40
        E 16 90 46 7f
        E 80 80 46 40
        E 16 90 46 7f
        E 80 80 46 40
        E 16 90 46 7f
        E 80 80 46 40
        E 16 90 46 7f
        E 80 80 46 40
        E 16 90 45 7f
        E 80 80 45 40
        E 16 90 48 7f
        E 80 80 48 40
        E 16 90 46 7f
        E 656 80 46 40
        E 112 90 48 7f
        E 80 80 48 40
        E 16 90 4b 7f
        E 80 80 4b 40
        E 16 90 4b 7f
        E 80 80 4b 40
        E 16 90 46 7f
        E 80 80 46 40
        E 16 90 48 7f
        E 80 80 48 40
        E 16 90 48 7f
        E 80 80 48 40
        E 16 90 44 7f
        E 80 80 44 40
        E 16 90 44 7f
        E 80 80 44 40
        E 16 90 46 7f
        E 176 80 46 40
        E 16 90 43 7f
        E 80 80 43 40
        E 16 90 43 7f
        E 80 80 43 40
        E 16 90 44 7f
        E 80 80 44 40
        E 16 90 44 7f
        E 80 80 44 40
        E 16 90 41 7f
        E 80 80 41 40
        E 16 90 41 7f
        E 80 80 41 40
        E 16 90 44 7f
        E 80 80 44 40
        E 16 90 44 7f
        E 80 80 44 40
        E 16 90 43 7f
        E 176 80 43 40
        E 16 90 41 7f
        E 80 80 41 40
        E 16 90 41 7f
        E 80 80 41 40
        E 16 90 3e 7f
        E 80 80 3e 40
        E 16 90 41 7f
        E 80 80 41 40
        E 16 90 3f 7f
        E 560 80 3f 40
        E 208 90 3f 7f
        E 80 80 3f 40
        E 16 90 3f 7f
        E 80 80 3f 40
        E 16 90 41 7f
        E 80 80 41 40
        E 16 90 41 7f
        E 80 80 41 40
        E 16 90 43 7f
        E 80 80 43 40
        E 16 90 43 7f
        E 80 80 43 40
        E 16 90 44 7f
        E 80 80 44 40
        E 16 90 44 7f
        E 80 80 44 40
        E 16 90 46 7f
        E 80 80 46 40
        E 16 90 46 7f
        E 80 80 46 40
        E 16 90 45 7f
        E 80 80 45 40
        E 16 90 48 7f
        E 80 80 48 40
        E 16 90 46 7f
        E 368 80 46 40
        E 16 90 41 7f
        E 80 80 41 40
        E 16 90 41 7f
        E 80 80 41 40
        E 16 90 43 7f
        E 80 80 43 40
        E 16 90 43 7f
        E 80 80 43 40
        E 16 90 44 7f
        E 176 80 44 40
        E 16 90 46 7f
        E 80 80 46 40
        E 16 90 45 7f
        E 80 80 45 40
        E 16 90 46 7f
        E 656 80 46 40
        E 112 90 48 7f
        E 80 80 48 40
        E 16 90 48 7f
        E 80 80 48 40
        E 16 90 4a 7f
        E 80 80 4a 40
        E 16 90 4a 7f
        E 80 80 4a 40
        E 16 90 4b 7f
        E 80 80 4b 40
        E 16 90 4b 7f
        E 80 80 4b 40
        E 16 90 4d 7f
        E 80 80 4d 40
        E 16 90 4d 7f
        E 80 80 4d 40
        E 16 90 4a 7f
        E 176 80 4a 40
        E 16 90 4b 7f
        E 176 80 4b 40
        E 16 90 48 7f
        E 176 80 48 40
        E 16 90 46 7f
        E 176 80 46 40
        E 16 90 46 7f
        E 80 80 46 40
        E 16 90 46 7f
        E 176 80 46 40
        E 16 90 44 7f
        E 80 80 44 40
        E 16 90 41 7f
        E 176 80 41 40
        E 16 90 3e 7f
        E 80 80 3e 40
        E 16 90 41 7f
        E 80 80 41 40
        E 16 90 3f 7f
        E 560 80 3f 40
        E 16 90 3f 7f
        E 80 80 3f 40
        E 16 90 3e 7f
        E 80 80 3e 40
        E 16 90 3f 7f
        E 80 80 3f 40
        E 16 90 41 7f
        E 80 80 41 40
        E 16 90 43 7f
        E 80 80 43 40
        E 16 90 41 7f
        E 80 80 41 40
        E 16 90 43 7f
        E 80 80 43 40
        E 16 90 44 7f
        E 80 80 44 40
        E 16 90 46 7f
        E 80 80 46 40
        E 16 90 48 7f
        E 80 80 48 40
        E 16 90 46 7f
        E 272 80 46 40
        E 16 90 4b 7f
        E 80 80 4b 40
        E 16 90 4a 7f
        E 272 80 4a 40
        E 16 90 48 7f
        E 80 80 48 40
        E 16 90 46 7f
        E 272 80 46 40
        E 16 90 44 7f
        E 80 80 44 40
        E 16 90 43 7f
        E 272 80 43 40
        E 16 90 43 7f
        E 80 80 43 40
        E 16 90 41 7f
        E 176 80 41 40
        E 16 90 3e 7f
        E 80 80 3e 40
        E 16 90 41 7f
        E 80 80 41 40
        E 16 90 3f 7f
        E 176 80 3f 40
        E 16 90 3f 7f
        E 80 80 3f 40
        E 16 90 3e 7f
        E 80 80 3e 40
        E 16 90 3f 7f
        E 80 80 3f 40
        E 16 90 41 7f
        E 80 80 41 40
        E 16 90 43 7f
        E 80 80 43 40
        E 16 90 41 7f
        E 80 80 41 40
        E 16 90 43 7f
        E 80 80 43 40
        E 16 90 44 7f
        E 80 80 44 40
        E 16 90 46 7f
        E 80 80 46 40
        E 16 90 48 7f
        E 80 80 48 40
        E 16 90 46 7f
        E 272 80 46 40
        E 16 90 4b 7f
        E 80 80 4b 40
        E 16 90 4a 7f
        E 272 80 4a 40
        E 16 90 48 7f
        E 80 80 48 40
        E 16 90 46 7f
        E 272 80 46 40
        E 16 90 44 7f
        E 80 80 44 40
        E 16 90 43 7f
        E 272 80 43 40
        E 16 90 43 7f
        E 80 80 43 40
        E 16 90 41 7f
        E 176 80 41 40
        E 16 90 3e 7f
        E 80 80 3e 40
        E 16 90 41 7f
        E 80 80 41 40
        E 16 90 3f 7f
        E 560 80 3f 40
        E 16 b0 7b 00
        GUID {1C87EDA1-1F61-8D4E-BDAD-6694C0601798}
        IGNTEMPO 0 120 4 4
        SRCCOLOR 105
        VELLANE -1 86 6
        CFGEDITVIEW -1267.2 7.011019 49 7 0 0 0 0 0 0.5
        KEYSNAP 0
        TRACKSEL 252 0 0 ""
        EVTFILTER 0 -1 -1 -1 -1 0 0 0 0 -1 -1 -1 -1 0 -1 0 -1 -1
        CFGEDIT 1 0 0 0 0 0 1 0 1 1 1 0.25 349 84 1280 633 0 0 2 3 0 0 0 0 0 0.5 0 0 1 64
      >
    >
  >
  <TRACK {3C494A2B-9670-9740-AD22-E42CC5065FE1}
    NAME "ch2,4 (send)"
    PEAKCOL 16576
    BEAT -1
    AUTOMODE 0
    VOLPAN 1 0 -1 -1 1
    MUTESOLO 0 0 0
    IPHASE 0
    ISBUS 2 -1
    BUSCOMP 0 0
    SHOWINMIX 1 0.6667 0.5 1 0.5 0 0 0
    FREEMODE 0
    SEL 0
    REC 0 0 0 0 0 0 0
    VU 2
    MIDICTL -1 1
    TRACKHEIGHT 0 0
    INQ 0 0 0 0.5 100 0 0 100
    NCHAN 2
    FX 1
    TRACKID {3C494A2B-9670-9740-AD22-E42CC5065FE1}
    PERF 0
    MIDIOUT -1
    MAINSEND 1 0
    <FXCHAIN
      WNDRECT 32 359 724 387
      SHOW 0
      LASTSEL 0
      DOCKED 0
    >
    <ITEM
      POSITION 0
      SNAPOFFS 0
      LENGTH 66
      LOOP 1
      ALLTAKES 0
      FADEIN 1 0 0 1 0 0
      FADEOUT 1 0 0 1 0 0
      MUTE 0
      SEL 0
      YPOS 0 0.142857
      IGUID {5FFE8DE1-3230-B946-97F2-7A664F7E10F4}
      IID 3
      NAME "RH                   - National_Anthems_-_Sri_Lanka.mid"
      VOLPAN 1 0 1 -1
      SOFFS 0 0
      PLAYRATE 1 1 0 -1 0 0.0025
      CHANMODE 0
      GUID {9748F403-BF6F-4C46-B6FA-45F793B3D729}
      <SOURCE MIDI
        HASDATA 1 192 QN
        POOLEDEVTS {BCFF8EA5-B41C-8544-BADD-482D3ECA1AD6}
        <X 0 0
          /wNSSCAgICAgICAgICAgICAgICAgIA==
        >
        E 0 91 37 6e
        E 0 91 3a 6e
        E 0 91 3f 6e
        E 0 91 43 6e
        E 80 81 37 40
        E 0 81 3a 40
        E 0 81 3f 40
        E 0 81 43 40
        E 16 91 43 6e
        E 80 81 43 40
        E 16 91 37 6e
        E 0 91 3f 6e
        E 0 91 43 6e
        E 80 81 37 40
        E 0 81 3f 40
        E 0 81 43 40
        E 16 91 43 6e
        E 80 81 43 40
        E 16 91 38 6e
        E 0 91 3c 6e
        E 0 91 41 6e
        E 176 81 38 40
        E 0 81 3c 40
        E 0 81 41 40
        E 16 91 3e 6e
        E 80 81 3e 40
        E 16 91 41 6e
        E 80 81 41 40
        E 16 91 37 6e
        E 0 91 3a 6e
        E 0 91 3f 6e
        E 560 81 37 40
        E 0 81 3a 40
        E 0 81 3f 40
        E 208 91 37 6e
        E 0 91 3a 6e
        E 0 91 3f 6e
        E 0 91 43 6e
        E 176 81 37 40
        E 0 81 3a 40
        E 0 81 3f 40
        E 0 81 43 40
        E 16 91 37 6e
        E 0 91 3c 6e
        E 0 91 3f 6e
        E 0 91 43 6e
        E 176 81 37 40
        E 0 81 3c 40
        E 0 81 3f 40
        E 0 81 43 40
        E 16 91 38 6e
        E 0 91 3c 6e
        E 0 91 41 6e
        E 176 81 38 40
        E 0 81 3c 40
        E 0 81 41 40
        E 16 91 38 6e
        E 0 91 3e 6e
        E 80 81 3e 40
        E 16 91 41 6e
        E 80 81 38 40
        E 0 81 41 40
        E 16 91 37 6e
        E 0 91 3f 6e
        E 176 81 37 40
        E 16 91 38 6e
        E 176 81 38 40
        E 16 91 37 6e
        E 176 81 3f 40
        E 0 81 37 40
        E 16 91 3f 6e
        E 80 81 3f 40
        E 16 91 3e 6e
        E 80 81 3e 40
        E 16 91 37 6e
        E 0 91 3a 6e
        E 0 91 3f 6e
        E 176 81 37 40
        E 0 81 3a 40
        E 0 81 3f 40
        E 16 91 37 6e
        E 0 91 3c 6e
        E 0 91 3f 6e
        E 0 91 43 6e
        E 176 81 37 40
        E 0 81 3c 40
        E 0 81 3f 40
        E 0 81 43 40
        E 16 91 3a 6e
        E 0 91 3f 6e
        E 0 91 43 6e
        E 176 81 3a 40
        E 0 81 3f 40
        E 0 81 43 40
        E 16 91 3a 6e
        E 0 91 3f 6e
        E 0 91 46 6e
        E 80 81 3a 40
        E 0 81 3f 40
        E 0 81 46 40
        E 16 91 3c 6e
        E 0 91 3f 6e
        E 0 91 48 6e
        E 80 81 3c 40
        E 0 81 3f 40
        E 0 81 48 40
        E 16 91 3a 6e
        E 0 91 41 6e
        E 0 91 46 6e
        E 176 81 41 40
        E 16 91 3f 6e
        E 80 81 3a 40
        E 0 81 46 40
        E 16 91 43 6e
        E 0 91 4b 6e
        E 80 81 3f 40
        E 0 81 43 40
        E 0 81 4b 40
        E 16 91 3e 6e
        E 0 91 43 6e
        E 0 91 4a 6e
        E 176 81 3e 40
        E 16 91 3e 6e
        E 80 81 43 40
        E 0 81 4a 40
        E 16 91 41 6e
        E 0 91 48 6e
        E 80 81 3e 40
        E 0 81 41 40
        E 0 81 48 40
        E 16 91 3a 6e
        E 0 91 41 6e
        E 0 91 46 6e
        E 176 81 41 40
        E 16 91 3f 6e
        E 80 81 3a 40
        E 0 81 46 40
        E 0 81 3f 40
        E 16 91 3c 6e
        E 0 91 41 6e
        E 0 91 44 6e
        E 80 81 3c 40
        E 0 81 41 40
        E 0 81 44 40
        E 16 91 3a 6e
        E 0 91 3f 6e
        E 0 91 43 6e
        E 272 81 3a 40
        E 0 81 3f 40
        E 0 81 43 40
        E 16 91 3a 6e
        E 0 91 3f 6e
        E 0 91 43 6e
        E 80 81 3a 40
        E 0 81 3f 40
        E 0 81 43 40
        E 16 91 38 6e
        E 0 91 3c 6e
        E 0 91 41 6e
        E 176 81 38 40
        E 0 81 3c 40
        E 0 81 41 40
        E 16 91 38 6e
        E 0 91 3e 6e
        E 80 81 3e 40
        E 16 91 41 6e
        E 80 81 38 40
        E 0 81 41 40
        E 16 91 37 6e
        E 0 91 3a 6e
        E 0 91 3f 6e
        E 176 81 37 40
        E 0 81 3a 40
        E 0 81 3f 40
        E 208 91 27 6e
        E 80 81 27 40
        E 16 91 2e 6e
        E 80 81 2e 40
        E 16 91 37 6e
        E 80 81 37 40
        E 16 91 3a 6e
        E 80 81 3a 40
        E 16 91 3f 6e
        E 0 91 46 6e
        E 80 81 3f 40
        E 0 81 46 40
        E 16 91 3a 6e
        E 80 81 3a 40
        E 16 91 37 6e
        E 80 81 37 40
        E 16 91 2e 6e
        E 80 81 2e 40
        E 16 91 2e 6e
        E 80 81 2e 40
        E 16 91 35 6e
        E 80 81 35 40
        E 16 91 3a 6e
        E 80 81 3a 40
        E 16 91 3e 6e
        E 80 81 3e 40
        E 16 91 41 6e
        E 0 91 44 6e
        E 80 81 41 40
        E 0 81 44 40
        E 16 91 3e 6e
        E 80 81 3e 40
        E 16 91 3a 6e
        E 80 81 3a 40
        E 16 91 35 6e
        E 80 81 35 40
        E 16 91 2e 6e
        E 80 81 2e 40
        E 16 91 35 6e
        E 80 81 35 40
        E 16 91 3a 6e
        E 80 81 3a 40
        E 16 91 3e 6e
        E 80 81 3e 40
        E 16 91 41 6e
        E 0 91 44 6e
        E 80 81 41 40
        E 0 81 44 40
        E 16 91 3e 6e
        E 80 81 3e 40
        E 16 91 3a 6e
        E 80 81 3a 40
        E 16 91 35 6e
        E 80 81 35 40
        E 16 91 27 6e
        E 80 81 27 40
        E 16 91 2e 6e
        E 80 81 2e 40
        E 16 91 37 6e
        E 80 81 37 40
        E 16 91 3a 6e
        E 80 81 3a 40
        E 16 91 3f 6e
        E 0 91 46 6e
        E 80 81 3f 40
        E 0 81 46 40
        E 16 91 3a 6e
        E 80 81 3a 40
        E 16 91 37 6e
        E 80 81 37 40
        E 16 91 2e 6e
        E 80 81 2e 40
        E 112 91 3f 6e
        E 0 91 44 6e
        E 0 91 4b 6e
        E 80 81 3f 40
        E 0 81 44 40
        E 0 81 4b 40
        E 112 91 3f 6e
        E 0 91 46 6e
        E 0 91 4b 6e
        E 80 81 3f 40
        E 0 81 46 40
        E 0 81 4b 40
        E 112 91 3f 6e
        E 0 91 44 6e
        E 0 91 48 6e
        E 80 81 3f 40
        E 0 81 44 40
        E 0 81 48 40
        E 112 91 3c 6e
        E 0 91 41 6e
        E 0 91 44 6e
        E 80 81 3c 40
        E 0 81 41 40
        E 0 81 44 40
        E 112 91 3a 6e
        E 0 91 3f 6e
        E 0 91 46 6e
        E 80 81 3a 40
        E 0 81 3f 40
        E 0 81 46 40
        E 112 91 3a 6e
        E 0 91 3f 6e
        E 0 91 43 6e
        E 80 81 3a 40
        E 0 81 3f 40
        E 0 81 43 40
        E 112 91 38 6e
        E 0 91 3f 6e
        E 0 91 44 6e
        E 80 81 38 40
        E 0 81 3f 40
        E 0 81 44 40
        E 112 91 38 6e
        E 0 91 3e 6e
        E 80 81 38 40
        E 0 81 3e 40
        E 112 91 3a 6e
        E 0 91 3e 6e
        E 0 91 44 6e
        E 80 81 3a 40
        E 0 81 3e 40
        E 0 81 44 40
        E 112 91 3a 6e
        E 0 91 3f 6e
        E 0 91 43 6e
        E 80 81 3a 40
        E 0 81 3f 40
        E 0 81 43 40
        E 112 91 3c 6e
        E 0 91 41 6e
        E 80 81 3c 40
        E 0 81 41 40
        E 16 91 38 6e
        E 0 91 3e 6e
        E 80 81 3e 40
        E 16 91 41 6e
        E 80 81 38 40
        E 0 81 41 40
        E 16 91 37 6e
        E 0 91 3f 6e
        E 176 81 37 40
        E 16 91 38 6e
        E 176 81 38 40
        E 16 91 37 6e
        E 176 81 3f 40
        E 0 81 37 40
        E 304 91 3a 6e
        E 0 91 3f 6e
        E 0 91 43 6e
        E 80 81 3a 40
        E 0 81 3f 40
        E 0 81 43 40
        E 112 91 3a 6e
        E 0 91 41 6e
        E 80 81 3a 40
        E 0 81 41 40
        E 112 91 3a 6e
        E 0 91 3f 6e
        E 0 91 43 6e
        E 80 81 3a 40
        E 0 81 3f 40
        E 0 81 43 40
        E 112 91 38 6e
        E 0 91 3f 6e
        E 0 91 44 6e
        E 80 81 38 40
        E 0 81 3f 40
        E 0 81 44 40
        E 112 91 3a 6e
        E 0 91 41 6e
        E 0 91 46 6e
        E 80 81 3a 40
        E 0 81 41 40
        E 0 81 46 40
        E 112 91 3c 6e
        E 0 91 3f 6e
        E 0 91 45 6e
        E 80 81 3c 40
        E 0 81 3f 40
        E 0 81 45 40
        E 112 91 3e 6e
        E 0 91 41 6e
        E 0 91 46 6e
        E 80 81 3e 40
        E 0 81 41 40
        E 0 81 46 40
        E 112 91 3e 6e
        E 0 91 41 6e
        E 0 91 46 6e
        E 80 81 3e 40
        E 0 81 41 40
        E 0 81 46 40
        E 112 91 3a 6e
        E 0 91 41 6e
        E 0 91 46 6e
        E 80 81 3a 40
        E 0 81 41 40
        E 0 81 46 40
        E 112 91 3a 6e
        E 0 91 3f 6e
        E 0 91 43 6e
        E 80 81 3a 40
        E 0 81 3f 40
        E 0 81 43 40
        E 112 91 3a 6e
        E 0 91 3e 6e
        E 0 91 44 6e
        E 80 81 3a 40
        E 0 81 3e 40
        E 0 81 44 40
        E 112 91 3f 6e
        E 0 91 45 6e
        E 0 91 48 6e
        E 80 81 3f 40
        E 0 81 45 40
        E 0 81 48 40
        E 16 91 3f 6e
        E 0 91 46 6e
        E 176 81 3f 40
        E 0 81 46 40
        E 16 91 41 6e
        E 80 81 41 40
        E 16 91 3f 6e
        E 80 81 3f 40
        E 16 91 3a 6e
        E 0 91 3e 6e
        E 368 81 3a 40
        E 0 81 3e 40
        E 16 91 3f 6e
        E 0 91 44 6e
        E 0 91 48 6e
        E 176 81 3f 40
        E 0 81 44 40
        E 16 91 41 6e
        E 0 91 44 6e
        E 16 81 41 40
        E 64 81 48 40
        E 16 91 4a 6e
        E 80 81 44 40
        E 0 81 4a 40
        E 16 91 3f 6e
        E 0 91 46 6e
        E 0 91 4b 6e
        E 176 81 3f 40
        E 0 81 46 40
        E 0 81 4b 40
        E 16 91 41 6e
        E 0 91 48 6e
        E 0 91 4d 6e
        E 176 81 41 40
        E 0 81 48 40
        E 0 81 4d 40
        E 16 91 41 6e
        E 0 91 46 6e
        E 0 91 4a 6e
        E 176 81 41 40
        E 0 81 4a 40
        E 16 91 3f 6e
        E 0 91 4b 6e
        E 176 81 46 40
        E 0 81 3f 40
        E 0 81 4b 40
        E 16 91 3f 6e
        E 0 91 48 6e
        E 176 81 48 40
        E 16 91 46 6e
        E 176 81 3f 40
        E 0 81 46 40
        E 16 91 41 6e
        E 0 91 46 6e
        E 80 81 46 40
        E 16 91 46 6e
        E 80 81 41 40
        E 16 91 41 6e
        E 80 81 46 40
        E 16 91 44 6e
        E 80 81 41 40
        E 0 81 44 40
        E 16 91 3c 6e
        E 0 91 41 6e
        E 176 81 3c 40
        E 0 81 41 40
        E 16 91 38 6e
        E 0 91 3e 6e
        E 80 81 3e 40
        E 16 91 41 6e
        E 80 81 38 40
        E 0 81 41 40
        E 16 91 37 6e
        E 0 91 3f 6e
        E 176 81 37 40
        E 16 91 38 6e
        E 176 81 38 40
        E 16 91 37 6e
        E 176 81 3f 40
        E 0 81 37 40
        E 16 91 3f 6e
        E 80 81 3f 40
        E 16 91 3e 6e
        E 80 81 3e 40
        E 16 91 37 6e
        E 0 91 3a 6e
        E 0 91 3f 6e
        E 176 81 37 40
        E 0 81 3a 40
        E 0 81 3f 40
        E 16 91 37 6e
        E 0 91 3c 6e
        E 0 91 3f 6e
        E 0 91 43 6e
        E 176 81 37 40
        E 0 81 3c 40
        E 0 81 3f 40
        E 0 81 43 40
        E 16 91 3a 6e
        E 0 91 3f 6e
        E 0 91 43 6e
        E 176 81 3a 40
        E 0 81 3f 40
        E 0 81 43 40
        E 16 91 3a 6e
        E 0 91 3f 6e
        E 0 91 46 6e
        E 80 81 3a 40
        E 0 81 3f 40
        E 0 81 46 40
        E 16 91 3c 6e
        E 0 91 3f 6e
        E 0 91 48 6e
        E 80 81 3c 40
        E 0 81 3f 40
        E 0 81 48 40
        E 16 91 3a 6e
        E 0 91 41 6e
        E 0 91 46 6e
        E 176 81 41 40
        E 16 91 3f 6e
        E 80 81 3a 40
        E 0 81 46 40
        E 16 91 43 6e
        E 0 91 4b 6e
        E 80 81 3f 40
        E 0 81 43 40
        E 0 81 4b 40
        E 16 91 3e 6e
        E 0 91 43 6e
        E 0 91 4a 6e
        E 176 81 3e 40
        E 16 91 3e 6e
        E 80 81 43 40
        E 0 81 4a 40
        E 16 91 41 6e
        E 0 91 48 6e
        E 80 81 3e 40
        E 0 81 41 40
        E 0 81 48 40
        E 16 91 3a 6e
        E 0 91 41 6e
        E 0 91 46 6e
        E 176 81 41 40
        E 16 91 3f 6e
        E 80 81 3a 40
        E 0 81 46 40
        E 0 81 3f 40
        E 16 91 3c 6e
        E 0 91 41 6e
        E 0 91 44 6e
        E 80 81 3c 40
        E 0 81 41 40
        E 0 81 44 40
        E 16 91 3a 6e
        E 0 91 3f 6e
        E 0 91 43 6e
        E 272 81 3a 40
        E 0 81 3f 40
        E 0 81 43 40
        E 16 91 3a 6e
        E 0 91 3f 6e
        E 0 91 43 6e
        E 80 81 3a 40
        E 0 81 3f 40
        E 0 81 43 40
        E 16 91 38 6e
        E 0 91 3c 6e
        E 0 91 41 6e
        E 176 81 38 40
        E 0 81 3c 40
        E 0 81 41 40
        E 16 91 38 6e
        E 0 91 3e 6e
        E 80 81 3e 40
        E 16 91 41 6e
        E 80 81 38 40
        E 0 81 41 40
        E 16 91 37 6e
        E 0 91 3a 6e
        E 0 91 3f 6e
        E 176 81 37 40
        E 0 81 3a 40
        E 0 81 3f 40
        E 16 91 3f 6e
        E 80 81 3f 40
        E 16 91 3e 6e
        E 80 81 3e 40
        E 16 91 37 6e
        E 0 91 3a 6e
        E 0 91 3f 6e
        E 176 81 37 40
        E 0 81 3a 40
        E 0 81 3f 40
        E 16 91 37 6e
        E 0 91 3c 6e
        E 0 91 3f 6e
        E 0 91 43 6e
        E 176 81 37 40
        E 0 81 3c 40
        E 0 81 3f 40
        E 0 81 43 40
        E 16 91 3a 6e
        E 0 91 3f 6e
        E 0 91 43 6e
        E 176 81 3a 40
        E 0 81 3f 40
        E 0 81 43 40
        E 16 91 3a 6e
        E 0 91 3f 6e
        E 0 91 46 6e
        E 80 81 3a 40
        E 0 81 3f 40
        E 0 81 46 40
        E 16 91 3c 6e
        E 0 91 3f 6e
        E 0 91 48 6e
        E 80 81 3c 40
        E 0 81 3f 40
        E 0 81 48 40
        E 16 91 3a 6e
        E 0 91 41 6e
        E 0 91 46 6e
        E 176 81 41 40
        E 16 91 3f 6e
        E 80 81 3a 40
        E 0 81 46 40
        E 16 91 43 6e
        E 0 91 4b 6e
        E 80 81 3f 40
        E 0 81 43 40
        E 0 81 4b 40
        E 16 91 3e 6e
        E 0 91 43 6e
        E 0 91 4a 6e
        E 176 81 3e 40
        E 16 91 3e 6e
        E 80 81 43 40
        E 0 81 4a 40
        E 16 91 41 6e
        E 0 91 48 6e
        E 80 81 3e 40
        E 0 81 41 40
        E 0 81 48 40
        E 16 91 3a 6e
        E 0 91 41 6e
        E 0 91 46 6e
        E 176 81 41 40
        E 16 91 3f 6e
        E 80 81 3a 40
        E 0 81 46 40
        E 0 81 3f 40
        E 16 91 3c 6e
        E 0 91 41 6e
        E 0 91 44 6e
        E 80 81 3c 40
        E 0 81 41 40
        E 0 81 44 40
        E 16 91 3a 6e
        E 0 91 3f 6e
        E 0 91 43 6e
        E 272 81 3a 40
        E 0 81 3f 40
        E 0 81 43 40
        E 16 91 3a 6e
        E 0 91 3f 6e
        E 0 91 43 6e
        E 80 81 3a 40
        E 0 81 3f 40
        E 0 81 43 40
        E 16 91 38 6e
        E 0 91 3c 6e
        E 0 91 41 6e
        E 176 81 38 40
        E 0 81 3c 40
        E 0 81 41 40
        E 16 91 38 6e
        E 0 91 3e 6e
        E 80 81 3e 40
        E 16 91 41 6e
        E 80 81 38 40
        E 0 81 41 40
        E 16 91 37 6e
        E 0 91 3a 6e
        E 0 91 3f 6e
        E 368 81 37 40
        E 0 81 3a 40
        E 0 81 3f 40
        E 16 91 43 6e
        E 0 91 46 6e
        E 0 91 4b 6e
        E 752 81 43 40
        E 0 81 46 40
        E 0 81 4b 40
        E 16 b0 7b 00
        GUID {880CF3B3-2430-D142-9D74-BF134772B570}
        IGNTEMPO 0 120 4 4
        SRCCOLOR 107
        VELLANE -1 86 6
        CFGEDITVIEW -141.896258 106.621319 49 7 0 0 0 0 0 0.5
        KEYSNAP 0
        TRACKSEL 252 0 0 ""
        EVTFILTER 0 -1 -1 -1 -1 0 0 0 0 -1 -1 -1 -1 0 -1 0 -1 -1
        CFGEDIT 1 0 0 0 0 0 1 0 1 1 1 0.25 349 84 1280 633 0 0 2 3 0 0 0 0 0 0.5 0 0 1 64
      >
    >
    <ITEM
      POSITION 0
      SNAPOFFS 0
      LENGTH 66
      LOOP 1
      ALLTAKES 0
      FADEIN 1 0 0 1 0 0
      FADEOUT 1 0 0 1 0 0
      MUTE 0
      SEL 0
      YPOS 0.142857 0.142857
      IGUID {3EB53955-31DC-5644-9E3B-2B3CC975104D}
      IID 4
      NAME "LH                   - National_Anthems_-_Sri_Lanka.mid"
      VOLPAN 1 0 1 -1
      SOFFS 0 0
      PLAYRATE 1 1 0 -1 0 0.0025
      CHANMODE 0
      GUID {F578C7E2-ABE0-BE44-87F0-3B4B7F800CBD}
      <SOURCE MIDI
        HASDATA 1 192 QN
        POOLEDEVTS {DF766992-166B-E842-852C-98E526A1B3BE}
        <X 0 0
          /wNMSCAgICAgICAgICAgICAgICAgIA==
        >
        E 0 92 27 64
        E 0 92 2e 64
        E 176 82 27 40
        E 0 82 2e 40
        E 16 92 30 64
        E 0 92 24 64
        E 176 82 30 40
        E 0 82 24 40
        E 16 92 38 64
        E 0 92 2c 64
        E 176 82 38 40
        E 0 82 2c 40
        E 16 92 2e 64
        E 0 92 3a 64
        E 176 82 2e 40
        E 0 82 3a 40
        E 16 92 27 64
        E 0 92 2e 64
        E 0 92 33 64
        E 176 82 27 40
        E 0 82 2e 40
        E 0 82 33 40
        E 16 92 3a 64
        E 0 92 2e 64
        E 176 82 3a 40
        E 0 82 2e 40
        E 16 92 27 64
        E 0 92 33 64
        E 176 82 27 40
        E 0 82 33 40
        E 208 92 27 64
        E 0 92 33 64
        E 176 82 27 40
        E 0 82 33 40
        E 16 92 24 64
        E 0 92 30 64
        E 176 82 24 40
        E 0 82 30 40
        E 16 92 2c 64
        E 0 92 38 64
        E 176 82 2c 40
        E 0 82 38 40
        E 16 92 2e 64
        E 0 92 3a 64
        E 176 82 2e 40
        E 0 82 3a 40
        E 16 92 27 64
        E 0 92 2e 64
        E 176 82 27 40
        E 0 82 2e 40
        E 16 92 30 64
        E 176 82 30 40
        E 16 92 2e 64
        E 176 82 2e 40
        E 208 92 27 64
        E 0 92 33 64
        E 176 82 33 40
        E 16 92 24 64
        E 0 92 30 64
        E 176 82 24 40
        E 0 82 30 40
        E 2 82 27 40
        E 14 92 27 64
        E 0 92 33 64
        E 176 82 27 40
        E 0 82 33 40
        E 16 92 2b 64
        E 0 92 37 64
        E 80 82 2b 40
        E 0 82 37 40
        E 16 92 38 64
        E 0 92 2c 64
        E 80 82 38 40
        E 0 82 2c 40
        E 16 92 2b 64
        E 0 92 37 64
        E 272 82 2b 40
        E 0 82 37 40
        E 16 92 3c 64
        E 0 92 30 64
        E 80 82 3c 40
        E 0 82 30 40
        E 16 92 3a 64
        E 0 92 2e 64
        E 272 82 3a 40
        E 0 82 2e 40
        E 16 92 38 64
        E 0 92 2c 64
        E 80 82 38 40
        E 0 82 2c 40
        E 16 92 2b 64
        E 0 92 37 64
        E 272 82 2b 40
        E 0 82 37 40
        E 16 92 2c 64
        E 80 82 2c 40
        E 16 92 2e 64
        E 272 82 2e 40
        E 16 92 2e 64
        E 80 82 2e 40
        E 16 92 2e 64
        E 368 82 2e 40
        E 16 92 27 64
        E 0 92 2e 64
        E 176 82 27 40
        E 0 82 2e 40
        E 3280 92 33 64
        E 0 92 3c 64
        E 0 92 2c 64
        E 176 82 33 40
        E 0 82 3c 40
        E 0 82 2c 40
        E 16 92 37 64
        E 176 82 37 40
        E 16 92 38 64
        E 176 82 38 40
        E 16 92 35 64
        E 176 82 35 40
        E 16 92 37 64
        E 176 82 37 40
        E 16 92 33 64
        E 176 82 33 40
        E 16 92 30 64
        E 176 82 30 40
        E 16 92 32 64
        E 176 82 32 40
        E 16 92 35 64
        E 0 92 2e 64
        E 176 82 35 40
        E 16 92 37 64
        E 176 82 37 40
        E 16 92 38 64
        E 176 82 2e 40
        E 0 82 38 40
        E 16 92 2e 64
        E 0 92 3a 64
        E 176 82 2e 40
        E 0 82 3a 40
        E 16 92 27 64
        E 0 92 2e 64
        E 176 82 2e 40
        E 16 92 30 64
        E 176 82 30 40
        E 16 92 2e 64
        E 176 82 27 40
        E 0 82 2e 40
        E 208 92 33 64
        E 176 82 33 40
        E 16 92 32 64
        E 176 82 32 40
        E 16 92 33 64
        E 176 82 33 40
        E 16 92 30 64
        E 176 82 30 40
        E 16 92 32 64
        E 176 82 32 40
        E 16 92 35 64
        E 176 82 35 40
        E 16 92 35 64
        E 0 92 2e 64
        E 368 82 35 40
        E 0 82 2e 40
        E 16 92 32 64
        E 176 82 32 40
        E 16 92 33 64
        E 176 82 33 40
        E 16 92 35 64
        E 176 82 35 40
        E 16 92 36 64
        E 176 82 36 40
        E 16 92 37 64
        E 368 82 37 40
        E 16 92 35 64
        E 176 82 35 40
        E 16 92 2e 64
        E 176 82 2e 40
        E 16 92 2c 64
        E 0 92 38 64
        E 176 82 2c 40
        E 0 82 38 40
        E 16 92 35 64
        E 0 92 29 64
        E 176 82 35 40
        E 0 82 29 40
        E 16 92 37 64
        E 0 92 2b 64
        E 176 82 37 40
        E 0 82 2b 40
        E 16 92 38 64
        E 0 92 2c 64
        E 176 82 38 40
        E 0 82 2c 40
        E 16 92 3a 64
        E 0 92 2e 64
        E 176 82 3a 40
        E 0 82 2e 40
        E 16 92 37 64
        E 80 82 37 40
        E 16 92 37 64
        E 80 82 37 40
        E 16 92 38 64
        E 176 82 38 40
        E 16 92 37 64
        E 176 82 37 40
        E 16 92 3c 64
        E 176 82 3c 40
        E 16 92 35 64
        E 176 82 35 40
        E 16 92 38 64
        E 176 82 38 40
        E 16 92 2e 64
        E 176 82 2e 40
        E 16 92 2e 64
        E 0 92 27 64
        E 176 82 2e 40
        E 16 92 30 64
        E 176 82 30 40
        E 16 92 2e 64
        E 176 82 27 40
        E 0 82 2e 40
        E 208 92 27 64
        E 0 92 33 64
        E 176 82 27 40
        E 0 82 33 40
        E 16 92 24 64
        E 0 92 30 64
        E 176 82 24 40
        E 0 82 30 40
        E 16 92 33 64
        E 0 92 27 64
        E 176 82 33 40
        E 0 82 27 40
        E 16 92 2b 64
        E 0 92 37 64
        E 80 82 2b 40
        E 0 82 37 40
        E 16 92 38 64
        E 0 92 2c 64
        E 80 82 38 40
        E 0 82 2c 40
        E 16 92 2b 64
        E 0 92 37 64
        E 272 82 2b 40
        E 0 82 37 40
        E 16 92 3c 64
        E 0 92 30 64
        E 80 82 3c 40
        E 0 82 30 40
        E 16 92 3a 64
        E 0 92 2e 64
        E 272 82 3a 40
        E 0 82 2e 40
        E 16 92 38 64
        E 0 92 2c 64
        E 80 82 38 40
        E 0 82 2c 40
        E 16 92 37 64
        E 0 92 2b 64
        E 272 82 37 40
        E 0 82 2b 40
        E 16 92 2c 64
        E 80 82 2c 40
        E 16 92 2e 64
        E 272 82 2e 40
        E 16 92 2e 64
        E 80 82 2e 40
        E 16 92 2e 64
        E 368 82 2e 40
        E 16 92 27 64
        E 0 92 2e 64
        E 176 82 27 40
        E 0 82 2e 40
        E 208 92 33 64
        E 0 92 27 64
        E 176 82 33 40
        E 0 82 27 40
        E 16 92 30 64
        E 0 92 24 64
        E 176 82 30 40
        E 0 82 24 40
        E 16 92 33 64
        E 0 92 27 64
        E 176 82 33 40
        E 0 82 27 40
        E 16 92 37 64
        E 0 92 2b 64
        E 80 82 37 40
        E 0 82 2b 40
        E 16 92 38 64
        E 0 92 2c 64
        E 80 82 38 40
        E 0 82 2c 40
        E 16 92 2b 64
        E 0 92 37 64
        E 272 82 2b 40
        E 0 82 37 40
        E 16 92 3c 64
        E 0 92 30 64
        E 80 82 3c 40
        E 0 82 30 40
        E 16 92 3a 64
        E 0 92 2e 64
        E 272 82 3a 40
        E 0 82 2e 40
        E 16 92 2c 64
        E 0 92 38 64
        E 80 82 2c 40
        E 0 82 38 40
        E 16 92 2b 64
        E 0 92 37 64
        E 272 82 2b 40
        E 0 82 37 40
        E 16 92 2c 64
        E 80 82 2c 40
        E 16 92 2e 64
        E 272 82 2e 40
        E 16 92 2e 64
        E 80 82 2e 40
        E 16 92 2e 64
        E 368 82 2e 40
        E 16 92 2e 64
        E 0 92 27 64
        E 368 82 2e 40
        E 0 82 27 40
        E 16 92 3f 64
        E 0 92 3a 64
        E 0 92 33 64
        E 752 82 3f 40
        E 0 82 3a 40
        E 0 82 33 40
        E 16 b0 7b 00
        GUID {79673094-F102-DD4C-BD5B-B5CAB56D734E}
        IGNTEMPO 0 120 4 4
        SRCCOLOR 108
        VELLANE -1 86 6
        CFGEDITVIEW 11488.168557 84.341164 49 7 0 0 0 0 0 0.5
        KEYSNAP 0
        TRACKSEL 252 0 0 ""
        EVTFILTER 0 -1 -1 -1 -1 0 0 0 0 -1 -1 -1 -1 0 -1 0 -1 -1
        CFGEDIT 1 0 0 0 0 0 1 0 1 1 1 0.25 349 84 1280 633 0 0 2 3 0 0 0 0 0 0.5 0 0 1 64
      >
    >
  >
  <TRACK {97C14EE2-C273-C940-9D68-54C062C3CBCA}
    NAME ChipFront
    PEAKCOL 16576
    BEAT -1
    AUTOMODE 0
    VOLPAN 0.34926034256578 0 -1 -1 1
    MUTESOLO 0 0 0
    IPHASE 0
    ISBUS 0 0
    BUSCOMP 0 0
    SHOWINMIX 1 0.6667 0.5 1 0.5 0 0 0
    FREEMODE 0
    SEL 0
    REC 0 0 0 0 0 0 0
    VU 2
    TRACKHEIGHT 0 0
    INQ 0 0 0 0.5 100 0 0 100
    NCHAN 2
    FX 1
    TRACKID {97C14EE2-C273-C940-9D68-54C062C3CBCA}
    PERF 0
    AUXRECV 4 0 1 0 0 0 0 0 0 -1:U 0 -1 ''
    MIDIOUT -1
    MAINSEND 1 0
    <FXCHAIN
      SHOW 0
      LASTSEL 0
      DOCKED 0
      BYPASS 0 0 0
      <VST "VST: FabFilter Volcano 2 (SC) (FabFilter)" "FabFilter Volcano 2 (SC).vst" 0 "" 1180054068
        NDJWRu9e7f4EAAAAAQAAAAAAAAACAAAAAAAAAAQAAAAAAAAACAAAAAAAAAAEAAAAAQAAAAAAAAACAAAAAAAAAAQAAAAAAAAACAAAAAAAAADcCwAAAAAAAAAAEAA=
        776t3g3wrd4AAAA/AAAAPwAAAD8AAAA/AACAPwAAAAAAAAA/q6qqPq2+aD8AAAA/ig0yPM3MzD0AAAAAAAAAAAAAAAAAAIA/AACAP0Isdj8AAAA/bbDgPZqZGT8AAAAA
        AAAAAOev3zwAAIA/AAAAAAAAgD8AAAA/AAAAAJqZGT8AAAAAAAAAAAAAAAAAAIA/AAAAAAAAgD8AAAA/AAAAAJqZGT8AAAAAAAAAAAAAAAAAAIA/AAAAAKuqqj4ATrI+
        AAAAPwAAAADBykk/XXRRPwAAAACJiIg9AACAP6oXiD4AAAAAAAAAAAAAAAAAAAAAAACAPwAAAAAAAAA/AAAAAAAAAAAAAAAAAAAAPwAAAAAAAAAAAAAAAAAAAD8AAAAA
        AAAAAAAAAAAAAAA/AAAAAAAAAAAAAAAAAAAAPwAAAAAAAAAAAAAAAAAAAD8AAAAAAAAAAAAAAAAAAAA/AAAAAAAAAAAAAAAAAAAAPwAAAAAAAAAAAAAAAAAAAD8AAAAA
        AAAAAAAAAAAAAAA/AAAAAAAAAAAAAAAAAAAAPwAAAAAAAAAAAAAAAAAAAD8AAAAAAAAAAAAAAAAAAAA/AAAAAAAAAAAAAAAAAAAAPwAAAAAAAAAAAAAAAHwZED4AAAA/
        KKO3PQAAgD8AAAAAAAAAAImIiD3y0iU/AAAAAAAAgD8AAAAAdGjRPQAAAAAAAIA/AAAAAAAAAD8AAAAAAAAAAAAAAAAAAAA/AAAAAAAAAAAAAAAAAAAAPwAAAAAAAAAA
        AAAAAAAAAD8AAAAAAAAAAAAAAAAAAAA/AAAAAAAAAAAAAAAAAAAAPwAAAAAAAAAAAAAAAAAAAD8AAAAAAAAAAAAAAAAAAAA/AAAAAAAAAAAAAAAAAAAAPwAAAAAAAAAA
        AAAAAAAAAD8AAAAAAAAAAAAAAAAAAAA/AAAAAAAAAAAAAAAAAAAAPwAAAAAAAAAAAAAAAAAAAD8AAAAAAAAAAAAAAAAAAAA/AAAAAAAAAAAAAAAAvvR9PgAAAD8AAAA/
        AAAAPwAAAAAAAAAAiYiIPQAAAD8AAAAAAAAAAAAAAAAAAAA/AAAAAAAAAAAAAAAAAAAAPwAAAAAAAAAAAAAAAAAAAD8AAAAAAAAAAAAAAAAAAAA/AAAAAAAAAAAAAAAA
        AAAAPwAAAAAAAAAAAAAAAAAAAD8AAAAAAAAAAAAAAAAAAAA/AAAAAAAAAAAAAAAAAAAAPwAAAAAAAAAAAAAAAAAAAD8AAAAAAAAAAAAAAAAAAAA/AAAAAAAAAAAAAAAA
        AAAAPwAAAAAAAAAAAAAAAAAAAD8AAAAAAAAAAAAAAAAAAAA/AAAAAAAAAAAAAAAAAAAAPwAAAAAAAAAAAAAAAAAAAD8AAAAAAAAAAAAAAAC+9H0+AAAAPwAAAD8AAAA/
        AAAAAAAAAACJiIg9AAAAPwAAAAAAAAAAAAAAAAAAAD8AAAAAAAAAAAAAAAAAAAA/AAAAAAAAAAAAAAAAAAAAPwAAAAAAAAAAAAAAAAAAAD8AAAAAAAAAAAAAAAAAAAA/
        AAAAAAAAAAAAAAAAAAAAPwAAAAAAAAAAAAAAAAAAAD8AAAAAAAAAAAAAAAAAAAA/AAAAAAAAAAAAAAAAAAAAPwAAAAAAAAAAAAAAAAAAAD8AAAAAAAAAAAAAAAAAAAA/
        AAAAAAAAAAAAAAAAAAAAPwAAAAAAAAAAAAAAAAAAAD8AAAAAAAAAAAAAAAAAAAA/AAAAAAAAAAAAAAAAAAAAPwAAAAAAAAAAAAAAAL70fT4AAAA/AAAAPwAAAD8AAAAA
        AAAAAImIiD0AAAA/AAAAAAAAAAAAAAAAAAAAPwAAAAAAAAAAAAAAAAAAAD8AAAAAAAAAAAAAAAAAAAA/AAAAAAAAAAAAAAAAAAAAPwAAAAAAAAAAAAAAAAAAAD8AAAAA
        AAAAAAAAAAAAAAA/AAAAAAAAAAAAAAAAAAAAPwAAAAAAAAAAAAAAAAAAAD8AAAAAAAAAAAAAAAAAAAA/AAAAAAAAAAAAAAAAAAAAPwAAAAAAAAAAAAAAAAAAAD8AAAAA
        AAAAAAAAAAAAAAA/AAAAAAAAAAAAAAAAAAAAPwAAAAAAAAAAAAAAAAAAAD8AAAAAAAAAAAAAAAAAAAA/AAAAAAAAAAAAAAAAvvR9PgAAAD8AAAA/AAAAPwAAAAAAAAAA
        iYiIPQAAAD8AAAAAAAAAAAAAAAAAAAA/AAAAAAAAAAAAAAAAAAAAPwAAAAAAAAAAAAAAAAAAAD8AAAAAAAAAAAAAAAAAAAA/AAAAAAAAAAAAAAAAAAAAPwAAAAAAAAAA
        AAAAAAAAAD8AAAAAAAAAAAAAAAAAAAA/AAAAAAAAAAAAAAAAAAAAPwAAAAAAAAAAAAAAAAAAAD8AAAAAAAAAAAAAAAAAAAA/AAAAAAAAAAAAAAAAAAAAPwAAAAAAAAAA
        AAAAAAAAAD8AAAAAAAAAAAAAAAAAAAA/AAAAAAAAAAAAAAAAAAAAPwAAAAAAAAAAAAAAAAAAAD8AAAAAAAAAAAAAAAAAAAAAmpmZPgAAAAAAAAAAAAAAAAAAgD8AAAAA
        mpmZPgAAAAAAAAAAAAAAAAAAgD8AAAAAmpmZPgAAAAAAAAAAAAAAAAAAgD8AAAAAmpmZPgAAAAAAAAAAAAAAAAAAgD8AAAAAmpmZPgAAAAAAAAAAAAAAAAAAgD8AAAAA
        mpmZPgAAAAAAAAAAAAAAAAAAgD8AAAAAAAAAAAAAAAAAAAAAAAAAAAAAAAAAAAAAAAAAAAAAAAAAAAAAAAAAAAAAAAAAAAAAAAAAAAAAAAAAAAAAAAAAAAAAAAAAAAAA
        AAAAAAAAAAAAAAAAAAAAAAAAAAAAAAAAAAAAAAAAAAAAAAAAAAAAAAAAAAAAAAAAAAAAAAAAAAAAAAAAAAAAAAAAAAAAAAAAAAAAAKuqKj3ZiZ09gShWPgAAAAAAAAAA
        v+eWPQAAAAAAAAA/AAAAAAAAAAAAAAAAAAAAAAAAAD8AAAAAAAAAAAAAAAAAAAAAAAAAPwAAAAAAAAAAAAAAAAAAAAAAAAAAAAAAAAAAAAAAAAAAAAAAAAAAAAAAAAAA
        AAAAAAAAAAAAAAAAAAAAAAAAAAAAAAAAAAAAAAAAAAAAAAAAAAAAAAAAAAAAAAAAAAAAAAAAAAAAAAAAAAAAAAAAAAAAAAAAAAAAAAAAAAAAAAAAAAAAAAAAAAAAAAAA
        AAAAAAAAAAAAAAAAAAAAAAAAAAAAAAAAAAAAAAAAAAAAAAAAAAAAAAAAAAAAAAAAAAAAAAAAAAAAAAAAAAAAAAAAAAAAAAAAAAAAAAAAAAAAAAAAAAAAAAAAAAAAAAAA
        AAAAAAAAAAAAAAAAAAAAAAAAAAAAAAAAAAAAAAAAAAAAAAAAAAAAAAAAAAAAAAAAAAAAAAAAAAAAAAAAAAAAAAAAAAAAAAAAAAAAAAAAAAAAAAAAAAAAAAAAAAAAAAAA
        AAAAAAAAAAAAAAAAAAAAAAAAAAAAAAAAAAAAAAAAAAAAAAAAAAAAAAAAAAAAAAAAAAAAAAAAAAAAAAAAAAAAAAAAAAAAAAAAAAAAAAAAAAAAAAAAAAAAPwAAAD8AAAA/
        AAAAPwAAAD8AAAA/AAAAPwAAAD8AAAAAAAAAAAAAAAAAAAAAAAAAAAAAAAAAAAAAAAAAAAAAAAAAAAAAAAAAAAAAAAAAAAAAAAAAAAAAAAAAAAAAAAAAAAAAAAAAAAAA
        AAAAAAAAAAAAAAAAAAAAAAAAAAAAAAAAAAAAAAAAAAAAAAAAAAAAAAAAAAAAAAAAAAAAAAAAAAAAAAAAAAAAAAAAAAAAAAAAAAAAAAAAAAAAAAAAAAAAAAAAAAAAAAAA
        AAAAAAAAAAAAAAAAAAAAAAAAAAAAAAAAAAAAAAAAAAAAAAAAAAAAAAAAAAAAAAAAAAAAAAAAAAAAAAAAAAAAAAAAAAAAAAAAAAAAAAAAAAAAAAAAAAAAAAAAAAAAAAAA
        AAAAAAAAAAAAAAAAAAAAAAAAAAAAAAAAAAAAAAAAAAAAAAAAAAAAAAAAAAAAAAAAAAAAAAAAAAAAAAAA
        Q2hpcEZyb250AENoaXBGcm9udAAQAAAA
      >
      PRESETNAME ChipFront
      FLOATPOS 36 32 641 529
      FXID {4C5A6810-F3ED-0645-A06D-6758F70CB097}
      WAK 0
    >
  >
  <TRACK {1B564899-9ACC-8C4B-8FBF-925A5A247A13}
    NAME ChipSide
    PEAKCOL 16576
    BEAT -1
    AUTOMODE 0
    VOLPAN 0.44668359215096 0 -1 -1 1
    MUTESOLO 0 0 0
    IPHASE 0
    ISBUS 0 0
    BUSCOMP 0 0
    SHOWINMIX 1 0.6667 0.5 1 0.5 0 0 0
    FREEMODE 0
    SEL 0
    REC 0 0 0 0 0 0 0
    VU 2
    TRACKHEIGHT 0 0
    INQ 0 0 0 0.5 100 0 0 100
    NCHAN 2
    FX 1
    TRACKID {1B564899-9ACC-8C4B-8FBF-925A5A247A13}
    PERF 0
    AUXRECV 4 0 1.03113579563571 0 0 0 0 2 0 -1:U 0 -1 ''
    MIDIOUT -1
    MAINSEND 1 0
    <FXCHAIN
      SHOW 0
      LASTSEL 0
      DOCKED 0
      BYPASS 0 0 0
      <VST "VST: FabFilter Volcano 2 (SC) (FabFilter)" "FabFilter Volcano 2 (SC).vst" 0 "" 1180054068
        NDJWRu9e7f4EAAAAAQAAAAAAAAACAAAAAAAAAAQAAAAAAAAACAAAAAAAAAAIAAAAAQAAAAAAAAACAAAAAAAAAAQAAAAAAAAACAAAAAAAAAAQAAAAAAAAACAAAAAAAAAA
        QAAAAAAAAACAAAAAAAAAANwLAAAAAAAAAAAQAA==
        776t3g3wrd4AAAA/AAAAPwAAAD8AAAA/AACAPwAAAAAAAIA/q6qqPsplFD8AAAA/TxqgPc3MzD0AAAAAAAAAAEKGIj8AAIA/AACAP0Isdj8AAAA/bbDgPZqZGT8AAAAA
        AAAAAOev3zwAAIA/AAAAAAAAgD8AAAA/AAAAAJqZGT8AAAAAAAAAAAAAAAAAAIA/AAAAAAAAgD8AAAA/AAAAAJqZGT8AAAAAAAAAAAAAAAAAAIA/AAAAAKuqqj6CdAA9
        EObJPZgn+j4AAIA/AAAAAAAAAACJiAg+AACAP7PDtD4AAIA/AAAAAAAAAAAAAAAAq6qqPgAAAACeFR0/AAAAAAAAgD8AAAAAAAAAPwAAAAAAAAAAAAAAAAAAAD8AAAAA
        AAAAAAAAAAAAAAA/AAAAAAAAAAAAAAAAAAAAPwAAAAAAAAAAAAAAAAAAAD8AAAAAAAAAAAAAAAAAAAA/AAAAAAAAAAAAAAAAAAAAPwAAAAAAAAAAAAAAAAAAAD8AAAAA
        AAAAAAAAAAAAAAA/AAAAAAAAAAAAAAAAAAAAPwAAAAAAAAAAAAAAAAAAAD8AAAAAAAAAAAAAAAAAAAA/AAAAAAAAAAAAAAAAAAAAPwAAAAAAAAAAAAAAAHwZED4AAAA/
        KKO3PQAAgD8AAAAAAAAAAImIiD3y0iU/AAAAAAAAgD8AAAAAdGjRPQAAAAAAAIA/AAAAAAAAAD8AAAAAAAAAAAAAAAAAAAA/AAAAAAAAAAAAAAAAAAAAPwAAAAAAAAAA
        AAAAAAAAAD8AAAAAAAAAAAAAAAAAAAA/AAAAAAAAAAAAAAAAAAAAPwAAAAAAAAAAAAAAAAAAAD8AAAAAAAAAAAAAAAAAAAA/AAAAAAAAAAAAAAAAAAAAPwAAAAAAAAAA
        AAAAAAAAAD8AAAAAAAAAAAAAAAAAAAA/AAAAAAAAAAAAAAAAAAAAPwAAAAAAAAAAAAAAAAAAAD8AAAAAAAAAAAAAAAAAAAA/AAAAAAAAAAAAAAAAvvR9PgAAAD8AAAA/
        AAAAPwAAAAAAAAAAiYiIPQAAAD8AAAAAAAAAAAAAAAAAAAA/AAAAAAAAAAAAAAAAAAAAPwAAAAAAAAAAAAAAAAAAAD8AAAAAAAAAAAAAAAAAAAA/AAAAAAAAAAAAAAAA
        AAAAPwAAAAAAAAAAAAAAAAAAAD8AAAAAAAAAAAAAAAAAAAA/AAAAAAAAAAAAAAAAAAAAPwAAAAAAAAAAAAAAAAAAAD8AAAAAAAAAAAAAAAAAAAA/AAAAAAAAAAAAAAAA
        AAAAPwAAAAAAAAAAAAAAAAAAAD8AAAAAAAAAAAAAAAAAAAA/AAAAAAAAAAAAAAAAAAAAPwAAAAAAAAAAAAAAAAAAAD8AAAAAAAAAAAAAAAC+9H0+AAAAPwAAAD8AAAA/
        AAAAAAAAAACJiIg9AAAAPwAAAAAAAAAAAAAAAAAAAD8AAAAAAAAAAAAAAAAAAAA/AAAAAAAAAAAAAAAAAAAAPwAAAAAAAAAAAAAAAAAAAD8AAAAAAAAAAAAAAAAAAAA/
        AAAAAAAAAAAAAAAAAAAAPwAAAAAAAAAAAAAAAAAAAD8AAAAAAAAAAAAAAAAAAAA/AAAAAAAAAAAAAAAAAAAAPwAAAAAAAAAAAAAAAAAAAD8AAAAAAAAAAAAAAAAAAAA/
        AAAAAAAAAAAAAAAAAAAAPwAAAAAAAAAAAAAAAAAAAD8AAAAAAAAAAAAAAAAAAAA/AAAAAAAAAAAAAAAAAAAAPwAAAAAAAAAAAAAAAL70fT4AAAA/AAAAPwAAAD8AAAAA
        AAAAAImIiD0AAAA/AAAAAAAAAAAAAAAAAAAAPwAAAAAAAAAAAAAAAAAAAD8AAAAAAAAAAAAAAAAAAAA/AAAAAAAAAAAAAAAAAAAAPwAAAAAAAAAAAAAAAAAAAD8AAAAA
        AAAAAAAAAAAAAAA/AAAAAAAAAAAAAAAAAAAAPwAAAAAAAAAAAAAAAAAAAD8AAAAAAAAAAAAAAAAAAAA/AAAAAAAAAAAAAAAAAAAAPwAAAAAAAAAAAAAAAAAAAD8AAAAA
        AAAAAAAAAAAAAAA/AAAAAAAAAAAAAAAAAAAAPwAAAAAAAAAAAAAAAAAAAD8AAAAAAAAAAAAAAAAAAAA/AAAAAAAAAAAAAAAAvvR9PgAAAD8AAAA/AAAAPwAAAAAAAAAA
        iYiIPQAAAD8AAAAAAAAAAAAAAAAAAAA/AAAAAAAAAAAAAAAAAAAAPwAAAAAAAAAAAAAAAAAAAD8AAAAAAAAAAAAAAAAAAAA/AAAAAAAAAAAAAAAAAAAAPwAAAAAAAAAA
        AAAAAAAAAD8AAAAAAAAAAAAAAAAAAAA/AAAAAAAAAAAAAAAAAAAAPwAAAAAAAAAAAAAAAAAAAD8AAAAAAAAAAAAAAAAAAAA/AAAAAAAAAAAAAAAAAAAAPwAAAAAAAAAA
        AAAAAAAAAD8AAAAAAAAAAAAAAAAAAAA/AAAAAAAAAAAAAAAAAAAAPwAAAAAAAAAAAAAAAAAAAD8AAAAAAAAAAAAAAAAAAAAAmpmZPgAAAAAAAAAAAAAAAAAAgD8AAAAA
        mpmZPgAAAAAAAAAAAAAAAAAAgD8AAAAAmpmZPgAAAAAAAAAAAAAAAAAAgD8AAAAAmpmZPgAAAAAAAAAAAAAAAAAAgD8AAAAAmpmZPgAAAAAAAAAAAAAAAAAAgD8AAAAA
        mpmZPgAAAAAAAAAAAAAAAAAAgD8AAAAAAAAAAAAAAAAAAAAAAAAAAAAAAAAAAAAAAAAAAAAAAAAAAAAAAAAAAAAAAAAAAAAAAAAAAAAAAAAAAAAAAAAAAAAAAAAAAAAA
        AAAAAAAAAAAAAAAAAAAAAAAAAAAAAAAAAAAAAAAAAAAAAAAAAAAAAAAAAAAAAAAAAAAAAAAAAAAAAAAAAAAAAAAAAAAAAAAAAAAAAKuqqj3ZiZ09gShWPgAAgD8AAAAA
        v+eWPdmJHT0WszE/AAAAAAAAAACSdiw8AAAAAAAAAD8AAAAAAAAAAAAAAAAAAAAAAAAAPwAAAAAAAAAAAAAAAAAAAAAAAAAAAAAAAAAAAAAAAAAAAAAAAAAAAAAAAAAA
        AAAAAAAAAAAAAAAAAAAAAAAAAAAAAAAAAAAAAAAAAAAAAAAAAAAAAAAAAAAAAAAAAAAAAAAAAAAAAAAAAAAAAAAAAAAAAAAAAAAAAAAAAAAAAAAAAAAAAAAAAAAAAAAA
        AAAAAAAAAAAAAAAAAAAAAAAAAAAAAAAAAAAAAAAAAAAAAAAAAAAAAAAAAAAAAAAAAAAAAAAAAAAAAAAAAAAAAAAAAAAAAAAAAAAAAAAAAAAAAAAAAAAAAAAAAAAAAAAA
        AAAAAAAAAAAAAAAAAAAAAAAAAAAAAAAAAAAAAAAAAAAAAAAAAAAAAAAAAAAAAAAAAAAAAAAAAAAAAAAAAAAAAAAAAAAAAAAAAAAAAAAAAAAAAAAAAAAAAAAAAAAAAAAA
        AAAAAAAAAAAAAAAAAAAAAAAAAAAAAAAAAAAAAAAAAAAAAAAAAAAAAAAAAAAAAAAAAAAAAAAAAAAAAAAAAAAAAAAAAAAAAAAAAAAAAAAAAAAAAAAAAAAAPwAAAD8AAAA/
        AAAAPwAAAD8AAAA/AAAAPwAAAD8AAAAAAAAAAAAAAAAAAAAAAAAAAAAAAAAAAAAAAAAAAAAAAAAAAAAAAAAAAAAAAAAAAAAAAAAAAAAAAAAAAAAAAAAAAAAAAAAAAAAA
        AAAAAAAAAAAAAAAAAAAAAAAAAAAAAAAAAAAAAAAAAAAAAAAAAAAAAAAAAAAAAAAAAAAAAAAAAAAAAAAAAAAAAAAAAAAAAAAAAAAAAAAAAAAAAAAAAAAAAAAAAAAAAAAA
        AAAAAAAAAAAAAAAAAAAAAAAAAAAAAAAAAAAAAAAAAAAAAAAAAAAAAAAAAAAAAAAAAAAAAAAAAAAAAAAAAAAAAAAAAAAAAAAAAAAAAAAAAAAAAAAAAAAAAAAAAAAAAAAA
        AAAAAAAAAAAAAAAAAAAAAAAAAAAAAAAAAAAAAAAAAAAAAAAAAAAAAAAAAAAAAAAAAAAAAAAAAAAAAAAA
        Q2hpcFNpZGUAQ2hpcFNpZGUAEAAAAA==
      >
      PRESETNAME ChipSide
      FLOATPOS 36 32 641 529
      FXID {20356A84-5CFD-6E4A-AA26-2A8A49CE7A76}
      WAK 0
    >
  >
  <TRACK {1738698C-B5FE-0F46-B22E-E11821A8D37B}
    NAME "23 Sri Lanka"
    PEAKCOL 16576
    BEAT -1
    AUTOMODE 0
    VOLPAN 1 0 -1 -1 1
    MUTESOLO 1 0 0
    IPHASE 0
    ISBUS 0 0
    BUSCOMP 0 0
    SHOWINMIX 1 0.6667 0.5 1 0.5 0 0 0
    FREEMODE 0
    SEL 0
    REC 0 0 0 0 0 0 0
    VU 2
    TRACKHEIGHT 0 0
    INQ 0 0 0 0.5 100 0 0 100
    NCHAN 2
    FX 1
    TRACKID {1738698C-B5FE-0F46-B22E-E11821A8D37B}
    PERF 0
    MIDIOUT -1
    MAINSEND 1 0
    <ITEM
      POSITION 4
      SNAPOFFS 0
      LENGTH 121.70498486040847
      LOOP 1
      ALLTAKES 0
      FADEIN 1 0 0 1 0 0
      FADEOUT 1 0 0 1 0 0
      MUTE 0
      SEL 0
      IGUID {25EC21E7-BB7B-994B-A4EA-4AA22355C56C}
      IID 11
      NAME "23 Sri Lanka.mp3"
      VOLPAN 1 0 1 -1
      SOFFS 0.85345920045714
      PLAYRATE 1.26942237860233 1 -2 -1 0 0.0025
      CHANMODE 0
      GUID {DAABEE4E-3A93-B142-9C43-B07969D47895}
      <SOURCE MP3
        FILE "23 Sri Lanka.mp3" 1
      >
    >
  >
  <EXTENSIONS
    <SWSAUTOCOLOR
      {00000000-0000-0000-0000-000000000000} 0 "" "" ""
    >
    <BR_CURSOR_POS 04
      0.00000000000000
    >
  >
>
