<REAPER_PROJECT 0.1 "5.50rc21/OSX64" 1511882029
  RIPPLE 0
  GROUPOVERRIDE 0 0 0
  AUTOXFADE 0
  ENVATTACH 1
  POOLEDENVATTACH 0
  MIXERUIFLAGS 11 52
  PEAKGAIN 1
  FEEDBACK 0
  PANLAW 1
  PROJOFFS 0 0
  MAXPROJLEN 0 600
  GRID 174206 8 1 8 1 0 0 0
  TIMEMODE 6 0 -1 24 2
  PANMODE 3
  CURSOR 0
  ZOOM 10.86681455393258 0 0
  VZOOMEX 0
  USE_REC_CFG 0
  RECMODE 1
  SMPTESYNC 0 23.976024 100 40 1000 300 0 0 1 0 0
  MIDIEDITOR -116919545 0 0
  LOOP 1
  LOOPGRAN 0 4
  RECORD_PATH "" ""
  <RECORD_CFG
    ZXZhdxAA
  >
  <APPLYFX_CFG
  >
  RENDER_FILE "/Users/samenglander/_dev/colorflags/anthems/chile_1.wav"
  RENDER_FMT 0 2 44100
  RENDER_1X 0
  RENDER_RANGE 1 0 0 18 1000
  RENDER_RESAMPLE 3 0 1
  RENDER_ADDTOPROJ 0
  RENDER_STEMS 0
  RENDER_DITHER 0
  TIMELOCKMODE 1
  TEMPOENVLOCKMODE 1
  ITEMMIX 1
  DEFPITCHMODE 589824
  TAKELANE 3
  SAMPLERATE 44100 0 0
  <RENDER_CFG
    ZXZhdxAAAA==
  >
  LOCK 1
  <METRONOME 6 2
    VOL 0.25 0.125
    FREQ 800 1600 1
    BEATLEN 4
    SAMPLES "" ""
    PATTERN 2863311530 2863311529
  >
  GLOBAL_AUTO -1
  TEMPO 120 4 4
  PLAYRATE 1 0 0.25 4
  SELECTION 28 0
  SELECTION2 28 0
  MASTERAUTOMODE 0
  MASTERTRACKHEIGHT 0
  MASTERPEAKCOL 16576
  MASTERMUTESOLO 0
  MASTERTRACKVIEW 0 0.6667 0.623188 0.5 0 0 0
  MASTERHWOUT 0 0 1 0 0 0 0 -1
  MASTER_NCH 2 2
  MASTER_VOLUME 1 0 -1 -1 1
  MASTER_FX 1
  MASTER_SEL 0
  <MASTERPLAYSPEEDENV
    ACT 0
    VIS 0 1 1
    LANEHEIGHT 0 0
    ARM 0
    DEFSHAPE 0 -1 -1
  >
  <TEMPOENVEX
    ACT 0
    VIS 1 0 1
    LANEHEIGHT 0 0
    ARM 0
    DEFSHAPE 1 -1 -1
  >
  <PROJBAY
  >
  <TRACK {A28B720B-3D78-4C4A-8EE1-EDB1E3A7D771}
    NAME Midi
    PEAKCOL 16576
    BEAT -1
    AUTOMODE 0
    VOLPAN 1 0 -1 -1 1
    MUTESOLO 0 0 0
    IPHASE 0
    ISBUS 0 0
    BUSCOMP 0 0
    SHOWINMIX 1 0.6667 0.623188 1 0.5 0 0 0
    FREEMODE 0
    SEL 0
    REC 0 0 0 0 0 0 0
    VU 2
    TRACKHEIGHT 25 0
    INQ 0 0 0 0.5 100 0 0 100
    NCHAN 2
    FX 1
    TRACKID {A28B720B-3D78-4C4A-8EE1-EDB1E3A7D771}
    PERF 0
    MIDIOUT -1
    MAINSEND 1 0
    <ITEM
      POSITION 0
      SNAPOFFS 0
      LENGTH 96
      LOOP 1
      ALLTAKES 0
      FADEIN 1 0 0 1 0 0
      FADEOUT 1 0 0 1 0 0
      MUTE 0
      SEL 0
      YPOS 0.105725 0.05
      IGUID {1326796E-ED93-2541-969E-6D832F273527}
      IID 12
      NAME "Accompany.RH         - National_Anthems_-_Chile.mid"
      VOLPAN 1 0 1 -1
      SOFFS 21.5 43
      PLAYRATE 1 1 0 -1 0 0.0025
      CHANMODE 0
      TAKECOLOR 26173599 B
      GUID {FE09D437-DA9F-A34C-8DAD-4AEE1A3F02FC}
      <SOURCE MIDI
        HASDATA 1 192 QN
        POOLEDEVTS {DE0AA042-D287-2749-A8D6-5291A87621E7}
        <X 0 0 0 0 3 "Accompany.RH        "
          /wNBY2NvbXBhbnkuUkggICAgICAgIA==
        >
        e 720 90 4f 6e
        e 16 90 51 6e
        e 6 80 4f 40
        e 2 90 53 6e
        e 14 80 51 40
        e 8 80 53 40
        e 2 90 48 6e
        e 0 90 54 6e
        e 334 80 48 40
        e 0 80 54 40
        e 2 90 47 6e
        e 0 90 53 6e
        e 46 80 47 40
        e 0 80 53 40
        e 2 90 48 6e
        e 0 90 54 6e
        e 142 80 48 40
        e 0 80 54 40
        e 2 90 44 6e
        e 0 90 50 6e
        e 46 80 44 40
        e 0 80 50 40
        e 2 90 45 6e
        e 0 90 51 6e
        e 142 80 45 40
        e 0 80 51 40
        e 2 90 40 6e
        e 0 90 4c 6e
        e 46 80 40 40
        e 0 80 4c 40
        e 2 90 41 6e
        e 0 90 4d 6e
        e 142 80 41 40
        e 0 80 4d 40
        e 2 90 3d 6e
        e 0 90 49 6e
        e 46 80 3d 40
        e 0 80 49 40
        e 2 90 3e 6e
        e 0 90 4a 6e
        e 142 80 3e 40
        e 0 80 4a 40
        e 2 90 3a 6e
        e 0 90 46 6e
        e 46 80 3a 40
        e 0 80 46 40
        e 2 90 3b 6e
        e 0 90 47 6e
        e 190 80 3b 40
        e 0 80 47 40
        e 50 90 43 6e
        e 22 80 43 40
        e 2 90 45 6e
        e 22 80 45 40
        e 2 90 47 6e
        e 22 80 47 40
        e 2 90 48 6e
        e 22 80 48 40
        e 2 90 4a 6e
        e 22 80 4a 40
        e 2 90 4c 6e
        e 22 80 4c 40
        e 98 90 47 6e
        e 0 90 4a 6e
        e 0 90 4d 6e
        e 46 80 47 40
        e 0 80 4a 40
        e 0 80 4d 40
        e 2 90 47 6e
        e 0 90 4a 6e
        e 0 90 4d 6e
        e 46 80 47 40
        e 0 80 4a 40
        e 0 80 4d 40
        e 2 90 47 6e
        e 0 90 4a 6e
        e 0 90 4d 6e
        e 94 80 47 40
        e 0 80 4a 40
        e 0 80 4d 40
        e 2 90 47 6e
        e 0 90 4a 6e
        e 0 90 4d 6e
        e 94 80 47 40
        e 0 80 4a 40
        e 0 80 4d 40
        e 2 90 47 6e
        e 0 90 4a 6e
        e 0 90 4d 6e
        e 94 80 47 40
        e 0 80 4a 40
        e 0 80 4d 40
        e 2 90 47 6e
        e 0 90 4a 6e
        e 0 90 4d 6e
        e 94 80 47 40
        e 0 80 4a 40
        e 0 80 4d 40
        e 2 90 48 6e
        e 0 90 4d 6e
        e 94 80 48 40
        e 0 80 4d 40
        e 2 90 4a 6e
        e 0 90 4d 6e
        e 94 80 4a 40
        e 0 80 4d 40
        e 2 90 43 6e
        e 0 90 48 6e
        e 0 90 4c 6e
        e 94 80 43 40
        e 0 80 48 40
        e 0 80 4c 40
        e 2 90 4c 6e
        e 46 80 4c 40
        e 2 90 4d 6e
        e 46 80 4d 40
        e 2 90 41 6e
        e 0 90 47 6e
        e 0 90 4a 6e
        e 94 80 41 40
        e 0 80 47 40
        e 0 80 4a 40
        e 2 90 4a 6e
        e 46 80 4a 40
        e 2 90 4c 6e
        e 46 80 4c 40
        e 2 90 40 6e
        e 0 90 48 6e
        e 190 80 40 40
        e 0 80 48 40
        e 26 90 48 6e
        e 22 80 48 40
        e 2 90 4a 6e
        e 22 80 4a 40
        e 2 90 4c 6e
        e 22 80 4c 40
        e 2 90 4d 6e
        e 22 80 4d 40
        e 2 90 4f 6e
        e 22 80 4f 40
        e 2 90 51 6e
        e 22 80 51 40
        e 2 90 53 6e
        e 22 80 53 40
        e 2 90 54 6e
        e 94 80 54 40
        e 2 90 51 6e
        e 0 90 54 6e
        e 46 80 51 40
        e 0 80 54 40
        e 2 90 51 6e
        e 0 90 54 6e
        e 46 80 51 40
        e 0 80 54 40
        e 2 90 51 6e
        e 0 90 54 6e
        e 94 80 51 40
        e 0 80 54 40
        e 2 90 51 6e
        e 0 90 54 6e
        e 94 80 51 40
        e 0 80 54 40
        e 2 90 51 6e
        e 0 90 54 6e
        e 94 80 51 40
        e 0 80 54 40
        e 2 90 50 6e
        e 0 90 53 6e
        e 46 80 50 40
        e 0 80 53 40
        e 2 90 51 6e
        e 0 90 54 6e
        e 46 80 51 40
        e 0 80 54 40
        e 2 90 53 6e
        e 0 90 56 6e
        e 46 80 53 40
        e 0 80 56 40
        e 2 90 51 6e
        e 0 90 54 6e
        e 46 80 51 40
        e 0 80 54 40
        e 2 90 4f 6e
        e 0 90 53 6e
        e 46 80 4f 40
        e 0 80 53 40
        e 2 90 4d 6e
        e 0 90 51 6e
        e 46 80 4d 40
        e 0 80 51 40
        e 2 90 4c 6e
        e 0 90 4f 6e
        e 94 80 4c 40
        e 0 80 4f 40
        e 2 90 4f 6e
        e 46 80 4f 40
        e 2 90 51 6e
        e 46 80 51 40
        e 2 90 4a 6e
        e 0 90 4d 6e
        e 94 80 4a 40
        e 0 80 4d 40
        e 2 90 4d 6e
        e 46 80 4d 40
        e 2 90 4f 6e
        e 46 80 4f 40
        e 2 90 48 6e
        e 0 90 4c 6e
        e 190 80 48 40
        e 0 80 4c 40
        e 26 90 3c 6e
        e 22 80 3c 40
        e 2 90 3e 6e
        e 22 80 3e 40
        e 2 90 40 6e
        e 22 80 40 40
        e 2 90 41 6e
        e 22 80 41 40
        e 2 90 43 6e
        e 22 80 43 40
        e 2 90 45 6e
        e 22 80 45 40
        e 2 90 47 6e
        e 22 80 47 40
        e 2 90 48 6e
        e 80 80 48 40
        e 16 90 3c 6e
        e 0 90 3f 6e
        e 0 90 44 6e
        e 0 90 48 6e
        e 32 80 3c 40
        e 0 80 3f 40
        e 0 80 44 40
        e 0 80 48 40
        e 16 90 3c 6e
        e 0 90 3f 6e
        e 0 90 44 6e
        e 0 90 48 6e
        e 32 80 3c 40
        e 0 80 3f 40
        e 0 80 44 40
        e 0 80 48 40
        e 16 90 3c 6e
        e 0 90 3f 6e
        e 0 90 44 6e
        e 0 90 48 6e
        e 80 80 3c 40
        e 0 80 3f 40
        e 0 80 44 40
        e 0 80 48 40
        e 16 90 3c 6e
        e 0 90 3f 6e
        e 0 90 44 6e
        e 0 90 48 6e
        e 80 80 3c 40
        e 0 80 3f 40
        e 0 80 44 40
        e 0 80 48 40
        e 16 90 3c 6e
        e 0 90 3f 6e
        e 0 90 44 6e
        e 0 90 48 6e
        e 80 80 3c 40
        e 0 80 3f 40
        e 0 80 44 40
        e 0 80 48 40
        e 16 90 3e 6e
        e 0 90 48 6e
        e 0 90 4a 6e
        e 80 80 3e 40
        e 0 80 48 40
        e 0 80 4a 40
        e 16 90 3f 6e
        e 0 90 48 6e
        e 0 90 4b 6e
        e 80 80 3f 40
        e 0 80 48 40
        e 0 80 4b 40
        e 16 90 42 6e
        e 0 90 48 6e
        e 0 90 4b 6e
        e 0 90 4e 6e
        e 80 80 42 40
        e 0 80 48 40
        e 0 80 4b 40
        e 0 80 4e 40
        e 16 90 43 6e
        e 0 90 48 6e
        e 0 90 4c 6e
        e 0 90 4f 6e
        e 80 80 43 40
        e 0 80 48 40
        e 0 80 4c 40
        e 0 80 4f 40
        e 16 90 43 6e
        e 0 90 48 6e
        e 0 90 4c 6e
        e 0 90 4f 6e
        e 32 80 43 40
        e 0 80 48 40
        e 0 80 4c 40
        e 0 80 4f 40
        e 16 90 43 6e
        e 0 90 48 6e
        e 0 90 4c 6e
        e 0 90 4f 6e
        e 32 80 43 40
        e 0 80 48 40
        e 0 80 4c 40
        e 0 80 4f 40
        e 16 90 43 6e
        e 0 90 48 6e
        e 0 90 4c 6e
        e 80 80 43 40
        e 0 80 48 40
        e 0 80 4c 40
        e 16 90 43 6e
        e 0 90 48 6e
        e 0 90 4c 6e
        e 80 80 43 40
        e 0 80 48 40
        e 0 80 4c 40
        e 16 90 43 6e
        e 0 90 47 6e
        e 0 90 4a 6e
        e 0 90 4f 6e
        e 80 80 43 40
        e 0 80 47 40
        e 0 80 4a 40
        e 0 80 4f 40
        e 16 90 43 6e
        e 0 90 47 6e
        e 0 90 4a 6e
        e 0 90 4f 6e
        e 32 80 43 40
        e 0 80 47 40
        e 0 80 4a 40
        e 0 80 4f 40
        e 16 90 43 6e
        e 0 90 47 6e
        e 0 90 4a 6e
        e 0 90 4f 6e
        e 32 80 43 40
        e 0 80 47 40
        e 0 80 4a 40
        e 0 80 4f 40
        e 16 90 43 6e
        e 0 90 47 6e
        e 0 90 4a 6e
        e 80 80 43 40
        e 0 80 47 40
        e 0 80 4a 40
        e 16 90 43 6e
        e 0 90 47 6e
        e 0 90 4a 6e
        e 32 80 43 40
        e 0 80 47 40
        e 0 80 4a 40
        e 64 90 40 6e
        e 0 90 43 6e
        e 0 90 48 6e
        e 176 80 40 40
        e 0 80 43 40
        e 0 80 48 40
        e 112 90 43 6e
        e 16 80 43 40
        e 16 90 45 6e
        e 16 80 45 40
        e 16 90 47 6e
        e 16 80 47 40
        e 16 90 48 6e
        e 80 80 48 40
        e 16 90 43 6e
        e 16 80 43 40
        e 16 90 45 6e
        e 16 80 45 40
        e 16 90 47 6e
        e 16 80 47 40
        e 16 90 48 6e
        e 80 80 48 40
        e 16 90 43 6e
        e 16 80 43 40
        e 16 90 45 6e
        e 16 80 45 40
        e 16 90 47 6e
        e 16 80 47 40
        e 16 90 48 6e
        e 176 80 48 40
        e 16 90 40 6e
        e 0 90 43 6e
        e 0 90 48 6e
        e 128 80 40 40
        e 0 80 43 40
        e 0 80 48 40
        e 16 90 40 6e
        e 0 90 43 6e
        e 0 90 48 6e
        e 32 80 40 40
        e 0 80 43 40
        e 0 80 48 40
        e 16 90 40 6e
        e 0 90 43 6e
        e 0 90 48 6e
        e 176 80 40 40
        e 0 80 43 40
        e 0 80 48 40
        e 16 90 43 6e
        e 128 80 43 40
        e 16 90 48 6e
        e 32 80 48 40
        e 16 90 40 6e
        e 0 90 48 6e
        e 128 80 40 40
        e 0 80 48 40
        e 16 90 43 6e
        e 0 90 47 6e
        e 32 80 43 40
        e 0 80 47 40
        e 16 90 43 6e
        e 0 90 47 6e
        e 128 80 43 40
        e 0 80 47 40
        e 16 90 41 6e
        e 0 90 45 6e
        e 32 80 41 40
        e 0 80 45 40
        e 16 90 41 6e
        e 0 90 45 6e
        e 128 80 41 40
        e 0 80 45 40
        e 16 90 40 6e
        e 0 90 43 6e
        e 32 80 40 40
        e 0 80 43 40
        e 16 90 40 6e
        e 0 90 43 6e
        e 128 80 40 40
        e 0 80 43 40
        e 16 90 3f 6e
        e 0 90 42 6e
        e 32 80 3f 40
        e 0 80 42 40
        e 16 90 40 6e
        e 0 90 43 6e
        e 272 80 40 40
        e 0 80 43 40
        e 16 90 3e 6e
        e 0 90 41 6e
        e 80 80 3e 40
        e 0 80 41 40
        e 16 90 3c 6e
        e 0 90 40 6e
        e 176 80 3c 40
        e 0 80 40 40
        e 16 90 3b 6e
        e 0 90 3e 6e
        e 128 80 3b 40
        e 0 80 3e 40
        e 16 90 3c 6e
        e 0 90 40 6e
        e 32 80 3c 40
        e 0 80 40 40
        e 16 90 3e 6e
        e 0 90 41 6e
        e 80 80 3e 40
        e 0 80 41 40
        e 112 90 3e 6e
        e 0 90 41 6e
        e 80 80 3e 40
        e 0 80 41 40
        e 112 90 3c 6e
        e 0 90 40 6e
        e 80 80 3c 40
        e 0 80 40 40
        e 112 90 3c 6e
        e 0 90 40 6e
        e 80 80 3c 40
        e 0 80 40 40
        e 112 90 3b 6e
        e 0 90 3e 6e
        e 0 90 43 6e
        e 80 80 3b 40
        e 0 80 3e 40
        e 0 80 43 40
        e 16 90 3b 6e
        e 0 90 3e 6e
        e 0 90 43 6e
        e 32 80 3b 40
        e 0 80 3e 40
        e 0 80 43 40
        e 16 90 3b 6e
        e 0 90 3e 6e
        e 0 90 43 6e
        e 32 80 3b 40
        e 0 80 3e 40
        e 0 80 43 40
        e 16 90 3b 6e
        e 0 90 3e 6e
        e 0 90 43 6e
        e 80 80 3b 40
        e 0 80 3e 40
        e 0 80 43 40
        e 16 90 3b 6e
        e 0 90 3e 6e
        e 0 90 43 6e
        e 80 80 3b 40
        e 0 80 3e 40
        e 0 80 43 40
        e 16 90 3b 6e
        e 0 90 3e 6e
        e 0 90 43 6e
        e 80 80 3b 40
        e 0 80 3e 40
        e 0 80 43 40
        e 304 90 40 6e
        e 0 90 48 6e
        e 128 80 40 40
        e 0 80 48 40
        e 16 90 43 6e
        e 0 90 47 6e
        e 32 80 43 40
        e 0 80 47 40
        e 16 90 43 6e
        e 0 90 47 6e
        e 128 80 43 40
        e 0 80 47 40
        e 16 90 41 6e
        e 0 90 45 6e
        e 32 80 41 40
        e 0 80 45 40
        e 16 90 41 6e
        e 0 90 45 6e
        e 128 80 41 40
        e 0 80 45 40
        e 16 90 40 6e
        e 0 90 43 6e
        e 32 80 40 40
        e 0 80 43 40
        e 16 90 40 6e
        e 0 90 43 6e
        e 128 80 40 40
        e 0 80 43 40
        e 16 90 3f 6e
        e 0 90 42 6e
        e 32 80 3f 40
        e 0 80 42 40
        e 16 90 40 6e
        e 0 90 43 6e
        e 272 80 40 40
        e 0 80 43 40
        e 16 90 3e 6e
        e 0 90 41 6e
        e 80 80 3e 40
        e 0 80 41 40
        e 16 90 3c 6e
        e 0 90 40 6e
        e 176 80 3c 40
        e 0 80 40 40
        e 16 90 3c 6e
        e 0 90 40 6e
        e 128 80 3c 40
        e 0 80 40 40
        e 16 90 3c 6e
        e 0 90 40 6e
        e 32 80 3c 40
        e 0 80 40 40
        e 16 90 3b 6e
        e 0 90 3e 6e
        e 0 90 43 6e
        e 80 80 3b 40
        e 0 80 3e 40
        e 0 80 43 40
        e 112 90 3b 6e
        e 0 90 3e 6e
        e 0 90 43 6e
        e 80 80 3b 40
        e 0 80 3e 40
        e 0 80 43 40
        e 112 90 39 6e
        e 0 90 3e 6e
        e 0 90 42 6e
        e 80 80 39 40
        e 0 80 3e 40
        e 0 80 42 40
        e 112 90 39 6e
        e 0 90 3e 6e
        e 0 90 42 6e
        e 80 80 39 40
        e 0 80 3e 40
        e 0 80 42 40
        e 112 90 3b 6e
        e 0 90 3e 6e
        e 0 90 43 6e
        e 176 80 3b 40
        e 0 80 3e 40
        e 0 80 43 40
        e 16 90 3b 6e
        e 0 90 3e 6e
        e 0 90 43 6e
        e 128 80 3b 40
        e 0 80 3e 40
        e 0 80 43 40
        e 16 90 3b 6e
        e 0 90 3e 6e
        e 0 90 43 6e
        e 32 80 3b 40
        e 0 80 3e 40
        e 0 80 43 40
        e 16 90 3b 6e
        e 0 90 3e 6e
        e 0 90 43 6e
        e 176 80 3b 40
        e 0 80 3e 40
        e 0 80 43 40
        e 208 90 3f 6e
        e 0 90 43 6e
        e 80 80 3f 40
        e 0 80 43 40
        e 16 90 3a 6e
        e 80 80 3a 40
        e 16 90 3f 6e
        e 0 90 43 6e
        e 80 80 3f 40
        e 0 80 43 40
        e 16 90 3a 6e
        e 80 80 3a 40
        e 16 90 41 6e
        e 0 90 44 6e
        e 80 80 41 40
        e 0 80 44 40
        e 16 90 3f 6e
        e 0 90 43 6e
        e 80 80 3f 40
        e 0 80 43 40
        e 16 90 3e 6e
        e 0 90 41 6e
        e 80 80 3e 40
        e 0 80 41 40
        e 16 90 3f 6e
        e 0 90 43 6e
        e 80 80 3f 40
        e 0 80 43 40
        e 16 90 41 6e
        e 0 90 44 6e
        e 80 80 41 40
        e 0 80 44 40
        e 16 90 3a 6e
        e 80 80 3a 40
        e 16 90 41 6e
        e 0 90 44 6e
        e 80 80 41 40
        e 0 80 44 40
        e 16 90 3a 6e
        e 80 80 3a 40
        e 16 90 3e 6e
        e 0 90 41 6e
        e 80 80 3e 40
        e 0 80 41 40
        e 16 90 3a 6e
        e 80 80 3a 40
        e 16 90 3e 6e
        e 0 90 41 6e
        e 80 80 3e 40
        e 0 80 41 40
        e 16 90 3a 6e
        e 80 80 3a 40
        e 16 90 41 6e
        e 0 90 44 6e
        e 80 80 41 40
        e 0 80 44 40
        e 16 90 3a 6e
        e 80 80 3a 40
        e 16 90 41 6e
        e 0 90 44 6e
        e 80 80 41 40
        e 0 80 44 40
        e 16 90 3a 6e
        e 80 80 3a 40
        e 16 90 43 6e
        e 0 90 46 6e
        e 80 80 43 40
        e 0 80 46 40
        e 16 90 41 6e
        e 0 90 44 6e
        e 80 80 41 40
        e 0 80 44 40
        e 16 90 3f 6e
        e 0 90 43 6e
        e 80 80 3f 40
        e 0 80 43 40
        e 16 90 41 6e
        e 0 90 44 6e
        e 80 80 41 40
        e 0 80 44 40
        e 16 90 43 6e
        e 0 90 46 6e
        e 80 80 43 40
        e 0 80 46 40
        e 16 90 3a 6e
        e 80 80 3a 40
        e 16 90 43 6e
        e 0 90 46 6e
        e 80 80 43 40
        e 0 80 46 40
        e 16 90 41 6e
        e 0 90 44 6e
        e 80 80 41 40
        e 0 80 44 40
        e 16 90 3f 6e
        e 0 90 43 6e
        e 80 80 3f 40
        e 0 80 43 40
        e 16 90 3a 6e
        e 80 80 3a 40
        e 16 90 3f 6e
        e 0 90 43 6e
        e 80 80 3f 40
        e 0 80 43 40
        e 16 90 3a 6e
        e 80 80 3a 40
        e 16 90 3c 6e
        e 0 90 3f 6e
        e 176 80 3c 40
        e 0 80 3f 40
        e 16 90 3c 6e
        e 0 90 3f 6e
        e 128 80 3c 40
        e 0 80 3f 40
        e 16 90 3c 6e
        e 0 90 3f 6e
        e 32 80 3c 40
        e 0 80 3f 40
        e 16 90 3c 6e
        e 0 90 3f 6e
        e 176 80 3c 40
        e 0 80 3f 40
        e 16 90 3c 6e
        e 0 90 3f 6e
        e 0 90 42 6e
        e 176 80 3c 40
        e 0 80 3f 40
        e 0 80 42 40
        e 16 90 3b 6e
        e 0 90 3e 6e
        e 0 90 43 6e
        e 176 80 3b 40
        e 0 80 3e 40
        e 0 80 43 40
        e 16 90 3b 6e
        e 0 90 3e 6e
        e 0 90 43 6e
        e 128 80 3b 40
        e 0 80 3e 40
        e 0 80 43 40
        e 16 90 3b 6e
        e 0 90 3e 6e
        e 0 90 43 6e
        e 32 80 3b 40
        e 0 80 3e 40
        e 0 80 43 40
        e 16 90 3b 6e
        e 0 90 3e 6e
        e 0 90 43 6e
        e 176 80 3b 40
        e 0 80 3e 40
        e 0 80 43 40
        e 16 90 3c 6e
        e 0 90 40 6e
        e 128 80 3c 40
        e 0 80 40 40
        e 16 90 3c 6e
        e 0 90 40 6e
        e 32 80 3c 40
        e 0 80 40 40
        e 16 90 3c 6e
        e 0 90 40 6e
        e 128 80 3c 40
        e 0 80 40 40
        e 16 90 3b 6e
        e 0 90 3e 6e
        e 32 80 3b 40
        e 0 80 3e 40
        e 16 90 3c 6e
        e 0 90 40 6e
        e 128 80 3c 40
        e 0 80 40 40
        e 16 90 3b 6e
        e 0 90 3e 6e
        e 32 80 3b 40
        e 0 80 3e 40
        e 16 90 3c 6e
        e 0 90 40 6e
        e 128 80 3c 40
        e 0 80 40 40
        e 16 90 3b 6e
        e 0 90 3e 6e
        e 32 80 3b 40
        e 0 80 3e 40
        e 16 90 3c 6e
        e 0 90 40 6e
        e 128 80 3c 40
        e 0 80 40 40
        e 16 90 3e 6e
        e 0 90 41 6e
        e 32 80 3e 40
        e 0 80 41 40
        e 16 90 40 6e
        e 0 90 43 6e
        e 176 80 40 40
        e 0 80 43 40
        e 16 90 41 6e
        e 0 90 45 6e
        e 368 80 41 40
        e 0 80 45 40
        e 16 90 3b 6e
        e 0 90 3e 6e
        e 128 80 3b 40
        e 0 80 3e 40
        e 16 90 3b 6e
        e 0 90 3e 6e
        e 32 80 3b 40
        e 0 80 3e 40
        e 16 90 3b 6e
        e 0 90 3e 6e
        e 128 80 3b 40
        e 0 80 3e 40
        e 16 90 39 6e
        e 0 90 3c 6e
        e 32 80 39 40
        e 0 80 3c 40
        e 16 90 3b 6e
        e 0 90 3e 6e
        e 128 80 3b 40
        e 0 80 3e 40
        e 16 90 39 6e
        e 0 90 3c 6e
        e 32 80 39 40
        e 0 80 3c 40
        e 16 90 3b 6e
        e 0 90 3e 6e
        e 128 80 3b 40
        e 0 80 3e 40
        e 16 90 3c 6e
        e 0 90 40 6e
        e 32 80 3c 40
        e 0 80 40 40
        e 16 90 3e 6e
        e 0 90 41 6e
        e 128 80 3e 40
        e 0 80 41 40
        e 16 90 3f 6e
        e 0 90 42 6e
        e 32 80 3f 40
        e 0 80 42 40
        e 16 90 41 6e
        e 0 90 45 6e
        e 176 80 41 40
        e 0 80 45 40
        e 16 90 40 6e
        e 0 90 43 6e
        e 80 80 40 40
        e 0 80 43 40
        e 304 90 3c 6e
        e 0 90 41 6e
        e 0 90 45 6e
        e 176 80 3c 40
        e 0 80 41 40
        e 0 80 45 40
        e 208 90 3c 6e
        e 0 90 40 6e
        e 0 90 43 6e
        e 176 80 3c 40
        e 0 80 40 40
        e 0 80 43 40
        e 208 90 3b 6e
        e 0 90 3e 6e
        e 0 90 41 6e
        e 176 80 3b 40
        e 0 80 3e 40
        e 0 80 41 40
        e 208 90 3c 6e
        e 0 90 40 6e
        e 176 80 3c 40
        e 0 80 40 40
        e 16 90 41 6e
        e 0 90 45 6e
        e 128 80 41 40
        e 0 80 45 40
        e 16 90 43 6e
        e 0 90 47 6e
        e 32 80 43 40
        e 0 80 47 40
        e 16 90 45 6e
        e 0 90 48 6e
        e 48 80 45 40
        e 0 80 48 40
        e 16 90 43 6e
        e 0 90 47 6e
        e 48 80 43 40
        e 0 80 47 40
        e 16 90 41 6e
        e 0 90 45 6e
        e 48 80 41 40
        e 0 80 45 40
        e 16 90 40 6e
        e 0 90 43 6e
        e 128 80 40 40
        e 0 80 43 40
        e 16 90 45 6e
        e 0 90 48 6e
        e 32 80 45 40
        e 0 80 48 40
        e 16 90 45 6e
        e 0 90 48 6e
        e 48 80 45 40
        e 0 80 48 40
        e 16 90 43 6e
        e 0 90 47 6e
        e 48 80 43 40
        e 0 80 47 40
        e 16 90 41 6e
        e 0 90 45 6e
        e 48 80 41 40
        e 0 80 45 40
        e 16 90 41 6e
        e 0 90 45 6e
        e 48 80 41 40
        e 0 80 45 40
        e 16 90 40 6e
        e 0 90 43 6e
        e 48 80 40 40
        e 0 80 43 40
        e 16 90 3e 6e
        e 0 90 41 6e
        e 48 80 3e 40
        e 0 80 41 40
        e 16 90 3e 6e
        e 0 90 41 6e
        e 48 80 3e 40
        e 0 80 41 40
        e 16 90 3c 6e
        e 0 90 40 6e
        e 48 80 3c 40
        e 0 80 40 40
        e 16 90 37 6e
        e 0 90 3b 6e
        e 48 80 37 40
        e 0 80 3b 40
        e 16 90 34 6e
        e 0 90 3c 6e
        e 80 80 34 40
        e 0 80 3c 40
        e 16 90 40 6e
        e 32 80 40 40
        e 16 90 40 6e
        e 32 80 40 40
        e 16 90 40 6e
        e 80 80 40 40
        e 16 90 40 6e
        e 32 80 40 40
        e 64 90 40 6e
        e 80 80 40 40
        e 16 90 40 6e
        e 32 80 40 40
        e 64 90 40 6e
        e 80 80 40 40
        e 16 90 40 6e
        e 32 80 40 40
        e 64 90 47 6e
        e 0 90 4c 6e
        e 32 80 47 40
        e 0 80 4c 40
        e 16 90 50 6e
        e 32 80 50 40
        e 16 90 47 6e
        e 0 90 4c 6e
        e 32 80 47 40
        e 0 80 4c 40
        e 16 90 50 6e
        e 32 80 50 40
        e 16 90 47 6e
        e 0 90 4c 6e
        e 32 80 47 40
        e 0 80 4c 40
        e 16 90 50 6e
        e 32 80 50 40
        e 16 90 47 6e
        e 0 90 4c 6e
        e 32 80 47 40
        e 0 80 4c 40
        e 16 90 50 6e
        e 32 80 50 40
        e 16 90 47 6e
        e 0 90 4c 6e
        e 32 80 47 40
        e 0 80 4c 40
        e 16 90 50 6e
        e 32 80 50 40
        e 16 90 47 6e
        e 0 90 4c 6e
        e 32 80 47 40
        e 0 80 4c 40
        e 16 90 50 6e
        e 32 80 50 40
        e 16 90 48 6e
        e 0 90 4c 6e
        e 32 80 48 40
        e 0 80 4c 40
        e 16 90 51 6e
        e 32 80 51 40
        e 16 90 48 6e
        e 0 90 4c 6e
        e 32 80 48 40
        e 0 80 4c 40
        e 16 90 51 6e
        e 32 80 51 40
        e 16 90 4a 6e
        e 0 90 4c 6e
        e 32 80 4a 40
        e 0 80 4c 40
        e 16 90 53 6e
        e 32 80 53 40
        e 16 90 4a 6e
        e 0 90 4c 6e
        e 32 80 4a 40
        e 0 80 4c 40
        e 16 90 53 6e
        e 32 80 53 40
        e 16 90 4a 6e
        e 0 90 4c 6e
        e 32 80 4a 40
        e 0 80 4c 40
        e 16 90 53 6e
        e 32 80 53 40
        e 16 90 4a 6e
        e 0 90 4c 6e
        e 32 80 4a 40
        e 0 80 4c 40
        e 16 90 53 6e
        e 32 80 53 40
        e 16 90 4a 6e
        e 0 90 4c 6e
        e 32 80 4a 40
        e 0 80 4c 40
        e 16 90 53 6e
        e 32 80 53 40
        e 16 90 4a 6e
        e 0 90 4c 6e
        e 32 80 4a 40
        e 0 80 4c 40
        e 16 90 53 6e
        e 32 80 53 40
        e 16 90 47 6e
        e 0 90 4c 6e
        e 32 80 47 40
        e 0 80 4c 40
        e 16 90 50 6e
        e 32 80 50 40
        e 16 90 47 6e
        e 0 90 4c 6e
        e 32 80 47 40
        e 0 80 4c 40
        e 16 90 50 6e
        e 32 80 50 40
        e 16 90 48 6e
        e 0 90 4c 6e
        e 32 80 48 40
        e 0 80 4c 40
        e 16 90 51 6e
        e 32 80 51 40
        e 16 90 48 6e
        e 0 90 4c 6e
        e 32 80 48 40
        e 0 80 4c 40
        e 16 90 51 6e
        e 32 80 51 40
        e 16 90 48 6e
        e 0 90 4c 6e
        e 32 80 48 40
        e 0 80 4c 40
        e 16 90 51 6e
        e 32 80 51 40
        e 16 90 48 6e
        e 0 90 4c 6e
        e 32 80 48 40
        e 0 80 4c 40
        e 16 90 51 6e
        e 32 80 51 40
        e 16 90 48 6e
        e 0 90 51 6e
        e 128 80 48 40
        e 0 80 51 40
        e 16 90 47 6e
        e 0 90 50 6e
        e 32 80 47 40
        e 0 80 50 40
        e 16 90 48 6e
        e 0 90 51 6e
        e 128 80 48 40
        e 0 80 51 40
        e 16 90 4a 6e
        e 0 90 53 6e
        e 32 80 4a 40
        e 0 80 53 40
        e 16 90 47 6e
        e 0 90 50 6e
        e 96 90 40 6e
        e 0 90 4c 6e
        e 32 80 47 40
        e 0 80 50 40
        e 0 80 40 40
        e 0 80 4c 40
        e 16 90 40 6e
        e 0 90 4c 6e
        e 32 80 40 40
        e 0 80 4c 40
        e 16 90 40 6e
        e 0 90 4c 6e
        e 80 80 40 40
        e 0 80 4c 40
        e 16 90 40 6e
        e 0 90 4c 6e
        e 80 80 40 40
        e 0 80 4c 40
        e 16 90 40 6e
        e 0 90 4c 6e
        e 80 80 40 40
        e 0 80 4c 40
        e 16 90 40 6e
        e 0 90 4c 6e
        e 32 80 40 40
        e 0 80 4c 40
        e 16 90 40 6e
        e 0 90 4c 6e
        e 32 80 40 40
        e 0 80 4c 40
        e 16 90 40 6e
        e 0 90 4c 6e
        e 80 80 40 40
        e 0 80 4c 40
        e 16 90 40 6e
        e 0 90 4c 6e
        e 80 80 40 40
        e 0 80 4c 40
        e 16 90 47 6e
        e 32 80 47 40
        e 16 90 4c 6e
        e 32 80 4c 40
        e 16 90 50 6e
        e 32 80 50 40
        e 16 90 4c 6e
        e 32 80 4c 40
        e 16 90 47 6e
        e 32 80 47 40
        e 16 90 4c 6e
        e 32 80 4c 40
        e 16 90 50 6e
        e 32 80 50 40
        e 16 90 4c 6e
        e 32 80 4c 40
        e 16 90 47 6e
        e 32 80 47 40
        e 16 90 4c 6e
        e 32 80 4c 40
        e 16 90 50 6e
        e 32 80 50 40
        e 16 90 4c 6e
        e 32 80 4c 40
        e 16 90 48 6e
        e 32 80 48 40
        e 16 90 4c 6e
        e 32 80 4c 40
        e 16 90 51 6e
        e 32 80 51 40
        e 16 90 4c 6e
        e 32 80 4c 40
        e 16 90 4a 6e
        e 32 80 4a 40
        e 16 90 4c 6e
        e 32 80 4c 40
        e 16 90 53 6e
        e 32 80 53 40
        e 16 90 4c 6e
        e 32 80 4c 40
        e 16 90 4a 6e
        e 32 80 4a 40
        e 16 90 4c 6e
        e 32 80 4c 40
        e 16 90 53 6e
        e 32 80 53 40
        e 16 90 4c 6e
        e 32 80 4c 40
        e 16 90 4a 6e
        e 32 80 4a 40
        e 16 90 4c 6e
        e 32 80 4c 40
        e 16 90 53 6e
        e 32 80 53 40
        e 16 90 4c 6e
        e 32 80 4c 40
        e 16 90 47 6e
        e 32 80 47 40
        e 16 90 4c 6e
        e 32 80 4c 40
        e 16 90 50 6e
        e 32 80 50 40
        e 16 90 4c 6e
        e 32 80 4c 40
        e 16 90 48 6e
        e 32 80 48 40
        e 16 90 4c 6e
        e 32 80 4c 40
        e 16 90 51 6e
        e 32 80 51 40
        e 16 90 4c 6e
        e 32 80 4c 40
        e 16 90 48 6e
        e 32 80 48 40
        e 16 90 4c 6e
        e 32 80 4c 40
        e 16 90 51 6e
        e 32 80 51 40
        e 16 90 4c 6e
        e 32 80 4c 40
        e 16 90 48 6e
        e 32 80 48 40
        e 16 90 4b 6e
        e 32 80 4b 40
        e 16 90 51 6e
        e 32 80 51 40
        e 16 90 4b 6e
        e 32 80 4b 40
        e 16 90 48 6e
        e 32 80 48 40
        e 16 90 4b 6e
        e 32 80 4b 40
        e 16 90 51 6e
        e 32 80 51 40
        e 16 90 4b 6e
        e 32 80 4b 40
        e 16 90 47 6e
        e 0 90 4c 6e
        e 0 90 50 6e
        e 80 80 47 40
        e 0 80 4c 40
        e 0 80 50 40
        e 16 90 40 6e
        e 0 90 44 6e
        e 0 90 47 6e
        e 0 90 4c 6e
        e 32 80 40 40
        e 0 80 44 40
        e 0 80 47 40
        e 0 80 4c 40
        e 16 90 40 6e
        e 0 90 44 6e
        e 0 90 47 6e
        e 0 90 4c 6e
        e 32 80 40 40
        e 0 80 44 40
        e 0 80 47 40
        e 0 80 4c 40
        e 16 90 40 6e
        e 0 90 44 6e
        e 0 90 47 6e
        e 0 90 4c 6e
        e 80 80 40 40
        e 0 80 44 40
        e 0 80 47 40
        e 0 80 4c 40
        e 16 90 40 6e
        e 0 90 44 6e
        e 0 90 47 6e
        e 0 90 4c 6e
        e 80 80 40 40
        e 0 80 44 40
        e 0 80 47 40
        e 0 80 4c 40
        e 16 90 40 6e
        e 0 90 44 6e
        e 0 90 47 6e
        e 0 90 4c 6e
        e 176 80 40 40
        e 0 80 44 40
        e 0 80 47 40
        e 0 80 4c 40
        e 16 90 3c 6e
        e 0 90 40 6e
        e 128 80 3c 40
        e 0 80 40 40
        e 16 90 3e 6e
        e 0 90 41 6e
        e 32 80 3e 40
        e 0 80 41 40
        e 16 90 40 6e
        e 0 90 43 6e
        e 80 80 40 40
        e 0 80 43 40
        e 16 90 40 6e
        e 0 90 43 6e
        e 32 80 40 40
        e 0 80 43 40
        e 16 90 40 6e
        e 0 90 43 6e
        e 32 80 40 40
        e 0 80 43 40
        e 16 90 40 6e
        e 0 90 43 6e
        e 128 80 40 40
        e 0 80 43 40
        e 16 90 41 6e
        e 0 90 45 6e
        e 32 80 41 40
        e 0 80 45 40
        e 16 90 43 6e
        e 0 90 46 6e
        e 80 80 43 40
        e 0 80 46 40
        e 16 90 43 6e
        e 0 90 46 6e
        e 32 80 43 40
        e 0 80 46 40
        e 16 90 43 6e
        e 0 90 46 6e
        e 32 80 43 40
        e 0 80 46 40
        e 16 90 43 6e
        e 0 90 46 6e
        e 128 80 43 40
        e 0 80 46 40
        e 16 90 43 6e
        e 0 90 46 6e
        e 32 80 43 40
        e 0 80 46 40
        e 16 90 43 6e
        e 0 90 46 6e
        e 80 80 43 40
        e 0 80 46 40
        e 16 90 43 6e
        e 0 90 46 6e
        e 32 80 43 40
        e 0 80 46 40
        e 16 90 43 6e
        e 0 90 46 6e
        e 32 80 43 40
        e 0 80 46 40
        e 16 90 41 6e
        e 0 90 45 6e
        e 80 80 41 40
        e 0 80 45 40
        e 16 90 41 6e
        e 0 90 45 6e
        e 80 80 41 40
        e 0 80 45 40
        e 16 90 41 6e
        e 0 90 45 6e
        e 176 80 41 40
        e 0 80 45 40
        e 16 90 3e 6e
        e 0 90 42 6e
        e 128 80 3e 40
        e 0 80 42 40
        e 16 90 40 6e
        e 0 90 43 6e
        e 32 80 40 40
        e 0 80 43 40
        e 16 90 42 6e
        e 0 90 45 6e
        e 80 80 42 40
        e 0 80 45 40
        e 16 90 42 6e
        e 0 90 45 6e
        e 32 80 42 40
        e 0 80 45 40
        e 16 90 42 6e
        e 0 90 45 6e
        e 32 80 42 40
        e 0 80 45 40
        e 16 90 42 6e
        e 0 90 45 6e
        e 128 80 42 40
        e 0 80 45 40
        e 16 90 43 6e
        e 0 90 47 6e
        e 32 80 43 40
        e 0 80 47 40
        e 16 90 45 6e
        e 0 90 48 6e
        e 80 80 45 40
        e 0 80 48 40
        e 16 90 45 6e
        e 0 90 48 6e
        e 32 80 45 40
        e 0 80 48 40
        e 16 90 45 6e
        e 0 90 48 6e
        e 32 80 45 40
        e 0 80 48 40
        e 16 90 45 6e
        e 0 90 48 6e
        e 128 80 45 40
        e 0 80 48 40
        e 16 90 45 6e
        e 0 90 48 6e
        e 32 80 45 40
        e 0 80 48 40
        e 16 90 43 6e
        e 0 90 47 6e
        e 80 80 43 40
        e 0 80 47 40
        e 16 90 43 6e
        e 0 90 47 6e
        e 32 80 43 40
        e 0 80 47 40
        e 16 90 43 6e
        e 0 90 47 6e
        e 32 80 43 40
        e 0 80 47 40
        e 16 90 43 6e
        e 0 90 47 6e
        e 80 80 43 40
        e 0 80 47 40
        e 16 90 43 6e
        e 0 90 47 6e
        e 80 80 43 40
        e 0 80 47 40
        e 16 90 43 6e
        e 0 90 47 6e
        e 176 80 43 40
        e 0 80 47 40
        e 16 90 47 6e
        e 0 90 4f 6e
        e 0 90 53 6e
        e 128 80 47 40
        e 0 80 4f 40
        e 0 80 53 40
        e 16 90 47 6e
        e 0 90 4f 6e
        e 0 90 53 6e
        e 32 80 47 40
        e 0 80 4f 40
        e 0 80 53 40
        e 16 90 47 6e
        e 0 90 4f 6e
        e 0 90 53 6e
        e 128 80 47 40
        e 0 80 4f 40
        e 0 80 53 40
        e 16 90 45 6e
        e 0 90 4d 6e
        e 0 90 51 6e
        e 32 80 45 40
        e 0 80 4d 40
        e 0 80 51 40
        e 16 90 47 6e
        e 0 90 4f 6e
        e 0 90 53 6e
        e 128 80 47 40
        e 0 80 4f 40
        e 0 80 53 40
        e 16 90 45 6e
        e 0 90 4d 6e
        e 0 90 51 6e
        e 32 80 45 40
        e 0 80 4d 40
        e 0 80 51 40
        e 16 90 45 6e
        e 0 90 4d 6e
        e 0 90 51 6e
        e 128 80 45 40
        e 0 80 4d 40
        e 0 80 51 40
        e 16 90 43 6e
        e 0 90 4c 6e
        e 0 90 4f 6e
        e 32 80 43 40
        e 0 80 4c 40
        e 0 80 4f 40
        e 16 90 45 6e
        e 0 90 4d 6e
        e 0 90 51 6e
        e 128 80 45 40
        e 0 80 4d 40
        e 0 80 51 40
        e 16 90 43 6e
        e 0 90 4c 6e
        e 0 90 4f 6e
        e 32 80 43 40
        e 0 80 4c 40
        e 0 80 4f 40
        e 16 90 45 6e
        e 0 90 4d 6e
        e 0 90 51 6e
        e 272 80 45 40
        e 0 80 4d 40
        e 0 80 51 40
        e 16 90 43 6e
        e 0 90 4c 6e
        e 0 90 4f 6e
        e 80 80 43 40
        e 0 80 4c 40
        e 0 80 4f 40
        e 16 90 40 6e
        e 0 90 48 6e
        e 0 90 4c 6e
        e 176 80 40 40
        e 0 80 48 40
        e 0 80 4c 40
        e 16 90 48 6e
        e 0 90 54 6e
        e 128 80 48 40
        e 0 80 54 40
        e 16 90 47 6e
        e 0 90 4f 6e
        e 0 90 53 6e
        e 32 80 47 40
        e 0 80 4f 40
        e 0 80 53 40
        e 16 90 47 6e
        e 0 90 4f 6e
        e 0 90 53 6e
        e 128 80 47 40
        e 0 80 4f 40
        e 0 80 53 40
        e 16 90 45 6e
        e 0 90 4d 6e
        e 0 90 51 6e
        e 32 80 45 40
        e 0 80 4d 40
        e 0 80 51 40
        e 16 90 47 6e
        e 0 90 4f 6e
        e 0 90 53 6e
        e 128 80 47 40
        e 0 80 4f 40
        e 0 80 53 40
        e 16 90 45 6e
        e 0 90 4d 6e
        e 0 90 51 6e
        e 32 80 45 40
        e 0 80 4d 40
        e 0 80 51 40
        e 16 90 45 6e
        e 0 90 4d 6e
        e 0 90 51 6e
        e 128 80 45 40
        e 0 80 4d 40
        e 0 80 51 40
        e 16 90 43 6e
        e 0 90 4c 6e
        e 0 90 4f 6e
        e 32 80 43 40
        e 0 80 4c 40
        e 0 80 4f 40
        e 16 90 45 6e
        e 0 90 4d 6e
        e 0 90 51 6e
        e 128 80 45 40
        e 0 80 4d 40
        e 0 80 51 40
        e 16 90 43 6e
        e 0 90 4c 6e
        e 0 90 4f 6e
        e 32 80 43 40
        e 0 80 4c 40
        e 0 80 4f 40
        e 16 90 40 6e
        e 0 90 48 6e
        e 0 90 4c 6e
        e 80 80 40 40
        e 0 80 48 40
        e 0 80 4c 40
        e 16 90 3c 6e
        e 0 90 48 6e
        e 32 80 3c 40
        e 0 80 48 40
        e 16 90 3c 6e
        e 0 90 48 6e
        e 32 80 3c 40
        e 0 80 48 40
        e 16 90 3c 6e
        e 0 90 48 6e
        e 80 80 3c 40
        e 0 80 48 40
        e 16 90 3e 6e
        e 0 90 4a 6e
        e 80 80 3e 40
        e 0 80 4a 40
        e 16 90 40 6e
        e 0 90 4c 6e
        e 80 80 40 40
        e 0 80 4c 40
        e 16 90 41 6e
        e 0 90 4d 6e
        e 80 80 41 40
        e 0 80 4d 40
        e 16 90 43 6e
        e 0 90 4f 6e
        e 80 80 43 40
        e 0 80 4f 40
        e 16 90 45 6e
        e 0 90 51 6e
        e 80 80 45 40
        e 0 80 51 40
        e 16 90 46 6e
        e 0 90 52 6e
        e 80 80 46 40
        e 0 80 52 40
        e 16 90 40 6e
        e 0 90 43 6e
        e 0 90 49 6e
        e 32 80 40 40
        e 0 80 43 40
        e 0 80 49 40
        e 16 90 40 6e
        e 0 90 43 6e
        e 0 90 49 6e
        e 32 80 40 40
        e 0 80 43 40
        e 0 80 49 40
        e 16 90 40 6e
        e 0 90 43 6e
        e 0 90 49 6e
        e 128 80 40 40
        e 0 80 43 40
        e 0 80 49 40
        e 16 90 40 6e
        e 0 90 43 6e
        e 0 90 49 6e
        e 32 80 40 40
        e 0 80 43 40
        e 0 80 49 40
        e 16 90 41 6e
        e 0 90 45 6e
        e 0 90 4a 6e
        e 176 80 41 40
        e 0 80 45 40
        e 0 80 4a 40
        e 16 90 40 6e
        e 0 90 43 6e
        e 0 90 45 6e
        e 0 90 49 6e
        e 176 80 40 40
        e 0 80 43 40
        e 0 80 45 40
        e 0 80 49 40
        e 16 90 3e 6e
        e 0 90 45 6e
        e 0 90 4a 6e
        e 176 80 3e 40
        e 0 80 45 40
        e 0 80 4a 40
        e 16 90 3e 6e
        e 0 90 45 6e
        e 0 90 4a 6e
        e 176 80 3e 40
        e 0 80 45 40
        e 0 80 4a 40
        e 208 90 48 6e
        e 0 90 4b 6e
        e 0 90 51 6e
        e 128 80 48 40
        e 0 80 4b 40
        e 0 80 51 40
        e 16 90 48 6e
        e 0 90 4b 6e
        e 0 90 51 6e
        e 32 80 48 40
        e 0 80 4b 40
        e 0 80 51 40
        e 16 90 48 6e
        e 0 90 4c 6e
        e 0 90 4f 6e
        e 176 80 48 40
        e 0 80 4c 40
        e 0 80 4f 40
        e 16 90 43 6e
        e 0 90 48 6e
        e 0 90 4c 6e
        e 128 80 43 40
        e 0 80 48 40
        e 0 80 4c 40
        e 16 90 43 6e
        e 0 90 48 6e
        e 0 90 4c 6e
        e 32 80 43 40
        e 0 80 48 40
        e 0 80 4c 40
        e 16 90 43 6e
        e 0 90 4a 6e
        e 0 90 4d 6e
        e 176 80 43 40
        e 0 80 4a 40
        e 0 80 4d 40
        e 16 90 43 6e
        e 0 90 47 6e
        e 0 90 4a 6e
        e 128 80 43 40
        e 0 80 47 40
        e 0 80 4a 40
        e 16 90 43 6e
        e 0 90 47 6e
        e 0 90 4a 6e
        e 32 80 43 40
        e 0 80 47 40
        e 0 80 4a 40
        e 16 90 43 6e
        e 0 90 48 6e
        e 0 90 4c 6e
        e 176 80 43 40
        e 0 80 48 40
        e 0 80 4c 40
        e 16 90 34 6e
        e 48 80 34 40
        e 16 90 35 6e
        e 48 80 35 40
        e 16 90 37 6e
        e 48 80 37 40
        e 16 90 39 6e
        e 48 80 39 40
        e 16 90 3b 6e
        e 48 80 3b 40
        e 16 90 3c 6e
        e 48 80 3c 40
        e 16 90 3e 6e
        e 48 80 3e 40
        e 16 90 40 6e
        e 48 80 40 40
        e 16 90 41 6e
        e 48 80 41 40
        e 16 90 43 6e
        e 80 80 43 40
        e 16 90 48 6e
        e 0 90 4c 6e
        e 0 90 4d 6e
        e 0 90 4f 6e
        e 0 90 54 6e
        e 32 80 48 40
        e 0 80 4c 40
        e 0 80 4d 40
        e 0 80 4f 40
        e 0 80 54 40
        e 16 90 48 6e
        e 0 90 4c 6e
        e 0 90 4f 6e
        e 0 90 54 6e
        e 32 80 48 40
        e 0 80 4c 40
        e 0 80 4f 40
        e 0 80 54 40
        e 16 90 48 6e
        e 0 90 4c 6e
        e 0 90 4f 6e
        e 0 90 54 6e
        e 80 80 48 40
        e 0 80 4c 40
        e 0 80 4f 40
        e 0 80 54 40
        e 16 90 48 6e
        e 0 90 4c 6e
        e 0 90 4f 6e
        e 0 90 54 6e
        e 80 80 48 40
        e 0 80 4c 40
        e 0 80 4f 40
        e 0 80 54 40
        e 16 90 4a 6e
        e 0 90 4d 6e
        e 0 90 4f 6e
        e 0 90 53 6e
        e 80 80 4a 40
        e 0 80 4d 40
        e 0 80 4f 40
        e 0 80 53 40
        e 16 90 4a 6e
        e 0 90 4d 6e
        e 0 90 4f 6e
        e 0 90 53 6e
        e 32 80 4a 40
        e 0 80 4d 40
        e 0 80 4f 40
        e 0 80 53 40
        e 16 90 4a 6e
        e 0 90 4d 6e
        e 0 90 4f 6e
        e 0 90 53 6e
        e 32 80 4a 40
        e 0 80 4d 40
        e 0 80 4f 40
        e 0 80 53 40
        e 16 90 4a 6e
        e 0 90 4d 6e
        e 0 90 4f 6e
        e 0 90 53 6e
        e 80 80 4a 40
        e 0 80 4d 40
        e 0 80 4f 40
        e 0 80 53 40
        e 16 90 4a 6e
        e 0 90 4d 6e
        e 0 90 4f 6e
        e 0 90 53 6e
        e 80 80 4a 40
        e 0 80 4d 40
        e 0 80 4f 40
        e 0 80 53 40
        e 16 90 48 6e
        e 0 90 4c 6e
        e 0 90 54 6e
        e 176 80 48 40
        e 0 80 4c 40
        e 0 80 54 40
        e 16 90 34 6e
        e 48 80 34 40
        e 16 90 35 6e
        e 48 80 35 40
        e 16 90 37 6e
        e 48 80 37 40
        e 16 90 39 6e
        e 48 80 39 40
        e 16 90 3b 6e
        e 48 80 3b 40
        e 16 90 3c 6e
        e 48 80 3c 40
        e 16 90 3e 6e
        e 48 80 3e 40
        e 16 90 40 6e
        e 48 80 40 40
        e 16 90 41 6e
        e 48 80 41 40
        e 16 90 43 6e
        e 80 80 43 40
        e 16 90 48 6e
        e 0 90 4c 6e
        e 0 90 54 6e
        e 32 80 48 40
        e 0 80 4c 40
        e 0 80 54 40
        e 16 90 48 6e
        e 0 90 4c 6e
        e 0 90 4f 6e
        e 0 90 54 6e
        e 32 80 48 40
        e 0 80 4c 40
        e 0 80 4f 40
        e 0 80 54 40
        e 16 90 48 6e
        e 0 90 4c 6e
        e 0 90 4f 6e
        e 0 90 54 6e
        e 80 80 48 40
        e 0 80 4c 40
        e 0 80 4f 40
        e 0 80 54 40
        e 16 90 48 6e
        e 0 90 4c 6e
        e 0 90 4f 6e
        e 0 90 54 6e
        e 80 80 48 40
        e 0 80 4c 40
        e 0 80 4f 40
        e 0 80 54 40
        e 16 90 4a 6e
        e 0 90 4d 6e
        e 0 90 4f 6e
        e 0 90 53 6e
        e 80 80 4a 40
        e 0 80 4d 40
        e 0 80 4f 40
        e 0 80 53 40
        e 16 90 4a 6e
        e 0 90 4d 6e
        e 0 90 4f 6e
        e 0 90 53 6e
        e 32 80 4a 40
        e 0 80 4d 40
        e 0 80 4f 40
        e 0 80 53 40
        e 16 90 4a 6e
        e 0 90 4d 6e
        e 0 90 4f 6e
        e 0 90 53 6e
        e 32 80 4a 40
        e 0 80 4d 40
        e 0 80 4f 40
        e 0 80 53 40
        e 16 90 4a 6e
        e 0 90 4d 6e
        e 0 90 4f 6e
        e 0 90 53 6e
        e 80 80 4a 40
        e 0 80 4d 40
        e 0 80 4f 40
        e 0 80 53 40
        e 16 90 4a 6e
        e 0 90 4d 6e
        e 0 90 4f 6e
        e 0 90 53 6e
        e 80 80 4a 40
        e 0 80 4d 40
        e 0 80 4f 40
        e 0 80 53 40
        e 16 90 48 6e
        e 0 90 4c 6e
        e 0 90 4f 6e
        e 0 90 54 6e
        e 176 80 48 40
        e 0 80 4c 40
        e 0 80 4f 40
        e 0 80 54 40
        e 16 90 48 6e
        e 48 80 48 40
        e 16 90 43 6e
        e 48 80 43 40
        e 16 90 4c 6e
        e 48 80 4c 40
        e 16 90 48 6e
        e 48 80 48 40
        e 16 90 43 6e
        e 48 80 43 40
        e 16 90 4c 6e
        e 48 80 4c 40
        e 16 90 48 6e
        e 48 80 48 40
        e 16 90 43 6e
        e 48 80 43 40
        e 16 90 4c 6e
        e 48 80 4c 40
        e 16 90 48 6e
        e 48 80 48 40
        e 16 90 54 6e
        e 48 80 54 40
        e 16 90 53 6e
        e 48 80 53 40
        e 16 90 54 6e
        e 48 80 54 40
        e 16 90 4f 6e
        e 48 80 4f 40
        e 16 90 4c 6e
        e 48 80 4c 40
        e 16 90 48 6e
        e 48 80 48 40
        e 16 90 48 6e
        e 48 80 48 40
        e 16 90 47 6e
        e 48 80 47 40
        e 16 90 48 6e
        e 48 80 48 40
        e 16 90 43 6e
        e 48 80 43 40
        e 16 90 40 6e
        e 48 80 40 40
        e 16 90 3c 6e
        e 176 80 3c 40
        e 16 90 40 6e
        e 0 90 43 6e
        e 0 90 48 6e
        e 128 80 40 40
        e 0 80 43 40
        e 0 80 48 40
        e 16 90 40 6e
        e 0 90 43 6e
        e 0 90 48 6e
        e 32 80 40 40
        e 0 80 43 40
        e 0 80 48 40
        e 16 90 40 6e
        e 0 90 43 6e
        e 0 90 48 6e
        e 176 80 40 40
        e 0 80 43 40
        e 0 80 48 40
        E 16 b0 7b 00
        GUID {D751D57D-4D20-8D47-B451-B1AC63A444F1}
        IGNTEMPO 0 120 4 4
        SRCCOLOR 721
        VELLANE -1 86 6
        CFGEDITVIEW 6412.8 8.219697 50 24 0 0 0 0 0 0.5
        KEYSNAP 0
        TRACKSEL 226
        EVTFILTER 0 -1 -1 -1 -1 0 1 0 0 -1 -1 -1 -1 0 -1 0 -1 -1
        CFGEDIT 1 0 0 0 0 0 1 0 1 1 1 0.25 16 63 1280 778 0 0 2 3 0 0 0 0 0 0.5 0 0 1 64
      >
      TAKE
      NAME "Accompany.RH         - National_Anthems_-_Chile.mid"
      TAKEVOLPAN 0 1 -1
      SOFFS 21.5 43
      PLAYRATE 1 1 0 -1 0 0.0025
      CHANMODE 0
      GUID {E7DCF060-4890-6B49-9E26-0A0AAAFAEACC}
      <SOURCE MIDI
        HASDATA 1 192 QN
        POOLEDEVTS {6DE3E8E8-C4F9-FB48-B7AC-84BF84943933}
        <X 0 0 0 0 3 "Accompany.RH        "
          /wNBY2NvbXBhbnkuUkggICAgICAgIA==
        >
        e 720 90 4f 6e
        e 16 90 51 6e
        e 6 80 4f 40
        e 2 90 53 6e
        e 14 80 51 40
        e 8 80 53 40
        e 2 90 48 6e
        e 0 90 54 6e
        e 334 80 48 40
        e 0 80 54 40
        e 2 90 47 6e
        e 0 90 53 6e
        e 46 80 47 40
        e 0 80 53 40
        e 2 90 48 6e
        e 0 90 54 6e
        e 142 80 48 40
        e 0 80 54 40
        e 2 90 44 6e
        e 0 90 50 6e
        e 46 80 44 40
        e 0 80 50 40
        e 2 90 45 6e
        e 0 90 51 6e
        e 142 80 45 40
        e 0 80 51 40
        e 2 90 40 6e
        e 0 90 4c 6e
        e 46 80 40 40
        e 0 80 4c 40
        e 2 90 41 6e
        e 0 90 4d 6e
        e 142 80 41 40
        e 0 80 4d 40
        e 2 90 3d 6e
        e 0 90 49 6e
        e 46 80 3d 40
        e 0 80 49 40
        e 2 90 3e 6e
        e 0 90 4a 6e
        e 142 80 3e 40
        e 0 80 4a 40
        e 2 90 3a 6e
        e 0 90 46 6e
        e 46 80 3a 40
        e 0 80 46 40
        e 2 90 3b 6e
        e 0 90 47 6e
        e 190 80 3b 40
        e 0 80 47 40
        e 50 90 43 6e
        e 22 80 43 40
        e 2 90 45 6e
        e 22 80 45 40
        e 2 90 47 6e
        e 22 80 47 40
        e 2 90 48 6e
        e 22 80 48 40
        e 2 90 4a 6e
        e 22 80 4a 40
        e 2 90 4c 6e
        e 22 80 4c 40
        e 98 90 47 6e
        e 0 90 4a 6e
        e 0 90 4d 6e
        e 46 80 47 40
        e 0 80 4a 40
        e 0 80 4d 40
        e 2 90 47 6e
        e 0 90 4a 6e
        e 0 90 4d 6e
        e 46 80 47 40
        e 0 80 4a 40
        e 0 80 4d 40
        e 2 90 47 6e
        e 0 90 4a 6e
        e 0 90 4d 6e
        e 94 80 47 40
        e 0 80 4a 40
        e 0 80 4d 40
        e 2 90 47 6e
        e 0 90 4a 6e
        e 0 90 4d 6e
        e 94 80 47 40
        e 0 80 4a 40
        e 0 80 4d 40
        e 2 90 47 6e
        e 0 90 4a 6e
        e 0 90 4d 6e
        e 94 80 47 40
        e 0 80 4a 40
        e 0 80 4d 40
        e 2 90 47 6e
        e 0 90 4a 6e
        e 0 90 4d 6e
        e 94 80 47 40
        e 0 80 4a 40
        e 0 80 4d 40
        e 2 90 48 6e
        e 0 90 4d 6e
        e 94 80 48 40
        e 0 80 4d 40
        e 2 90 4a 6e
        e 0 90 4d 6e
        e 94 80 4a 40
        e 0 80 4d 40
        e 2 90 43 6e
        e 0 90 48 6e
        e 0 90 4c 6e
        e 94 80 43 40
        e 0 80 48 40
        e 0 80 4c 40
        e 2 90 4c 6e
        e 46 80 4c 40
        e 2 90 4d 6e
        e 46 80 4d 40
        e 2 90 41 6e
        e 0 90 47 6e
        e 0 90 4a 6e
        e 94 80 41 40
        e 0 80 47 40
        e 0 80 4a 40
        e 2 90 4a 6e
        e 46 80 4a 40
        e 2 90 4c 6e
        e 46 80 4c 40
        e 2 90 40 6e
        e 0 90 48 6e
        e 190 80 40 40
        e 0 80 48 40
        e 26 90 48 6e
        e 22 80 48 40
        e 2 90 4a 6e
        e 22 80 4a 40
        e 2 90 4c 6e
        e 22 80 4c 40
        e 2 90 4d 6e
        e 22 80 4d 40
        e 2 90 4f 6e
        e 22 80 4f 40
        e 2 90 51 6e
        e 22 80 51 40
        e 2 90 53 6e
        e 22 80 53 40
        e 2 90 54 6e
        e 94 80 54 40
        e 2 90 51 6e
        e 0 90 54 6e
        e 46 80 51 40
        e 0 80 54 40
        e 2 90 51 6e
        e 0 90 54 6e
        e 46 80 51 40
        e 0 80 54 40
        e 2 90 51 6e
        e 0 90 54 6e
        e 94 80 51 40
        e 0 80 54 40
        e 2 90 51 6e
        e 0 90 54 6e
        e 94 80 51 40
        e 0 80 54 40
        e 2 90 51 6e
        e 0 90 54 6e
        e 94 80 51 40
        e 0 80 54 40
        e 2 90 50 6e
        e 0 90 53 6e
        e 46 80 50 40
        e 0 80 53 40
        e 2 90 51 6e
        e 0 90 54 6e
        e 46 80 51 40
        e 0 80 54 40
        e 2 90 53 6e
        e 0 90 56 6e
        e 46 80 53 40
        e 0 80 56 40
        e 2 90 51 6e
        e 0 90 54 6e
        e 46 80 51 40
        e 0 80 54 40
        e 2 90 4f 6e
        e 0 90 53 6e
        e 46 80 4f 40
        e 0 80 53 40
        e 2 90 4d 6e
        e 0 90 51 6e
        e 46 80 4d 40
        e 0 80 51 40
        e 2 90 4c 6e
        e 0 90 4f 6e
        e 94 80 4c 40
        e 0 80 4f 40
        e 2 90 4f 6e
        e 46 80 4f 40
        e 2 90 51 6e
        e 46 80 51 40
        e 2 90 4a 6e
        e 0 90 4d 6e
        e 94 80 4a 40
        e 0 80 4d 40
        e 2 90 4d 6e
        e 46 80 4d 40
        e 2 90 4f 6e
        e 46 80 4f 40
        e 2 90 48 6e
        e 0 90 4c 6e
        e 190 80 48 40
        e 0 80 4c 40
        e 26 90 3c 6e
        e 22 80 3c 40
        e 2 90 3e 6e
        e 22 80 3e 40
        e 2 90 40 6e
        e 22 80 40 40
        e 2 90 41 6e
        e 22 80 41 40
        e 2 90 43 6e
        e 22 80 43 40
        e 2 90 45 6e
        e 22 80 45 40
        e 2 90 47 6e
        e 22 80 47 40
        e 2 90 48 6e
        e 80 80 48 40
        e 16 90 3c 6e
        e 0 90 3f 6e
        e 0 90 44 6e
        e 0 90 48 6e
        e 32 80 3c 40
        e 0 80 3f 40
        e 0 80 44 40
        e 0 80 48 40
        e 16 90 3c 6e
        e 0 90 3f 6e
        e 0 90 44 6e
        e 0 90 48 6e
        e 32 80 3c 40
        e 0 80 3f 40
        e 0 80 44 40
        e 0 80 48 40
        e 16 90 3c 6e
        e 0 90 3f 6e
        e 0 90 44 6e
        e 0 90 48 6e
        e 80 80 3c 40
        e 0 80 3f 40
        e 0 80 44 40
        e 0 80 48 40
        e 16 90 3c 6e
        e 0 90 3f 6e
        e 0 90 44 6e
        e 0 90 48 6e
        e 80 80 3c 40
        e 0 80 3f 40
        e 0 80 44 40
        e 0 80 48 40
        e 16 90 3c 6e
        e 0 90 3f 6e
        e 0 90 44 6e
        e 0 90 48 6e
        e 80 80 3c 40
        e 0 80 3f 40
        e 0 80 44 40
        e 0 80 48 40
        e 16 90 3e 6e
        e 0 90 48 6e
        e 0 90 4a 6e
        e 80 80 3e 40
        e 0 80 48 40
        e 0 80 4a 40
        e 16 90 3f 6e
        e 0 90 48 6e
        e 0 90 4b 6e
        e 80 80 3f 40
        e 0 80 48 40
        e 0 80 4b 40
        e 16 90 42 6e
        e 0 90 48 6e
        e 0 90 4b 6e
        e 0 90 4e 6e
        e 80 80 42 40
        e 0 80 48 40
        e 0 80 4b 40
        e 0 80 4e 40
        e 16 90 43 6e
        e 0 90 48 6e
        e 0 90 4c 6e
        e 0 90 4f 6e
        e 80 80 43 40
        e 0 80 48 40
        e 0 80 4c 40
        e 0 80 4f 40
        e 16 90 43 6e
        e 0 90 48 6e
        e 0 90 4c 6e
        e 0 90 4f 6e
        e 32 80 43 40
        e 0 80 48 40
        e 0 80 4c 40
        e 0 80 4f 40
        e 16 90 43 6e
        e 0 90 48 6e
        e 0 90 4c 6e
        e 0 90 4f 6e
        e 32 80 43 40
        e 0 80 48 40
        e 0 80 4c 40
        e 0 80 4f 40
        e 16 90 43 6e
        e 0 90 48 6e
        e 0 90 4c 6e
        e 80 80 43 40
        e 0 80 48 40
        e 0 80 4c 40
        e 16 90 43 6e
        e 0 90 48 6e
        e 0 90 4c 6e
        e 80 80 43 40
        e 0 80 48 40
        e 0 80 4c 40
        e 16 90 43 6e
        e 0 90 47 6e
        e 0 90 4a 6e
        e 0 90 4f 6e
        e 80 80 43 40
        e 0 80 47 40
        e 0 80 4a 40
        e 0 80 4f 40
        e 16 90 43 6e
        e 0 90 47 6e
        e 0 90 4a 6e
        e 0 90 4f 6e
        e 32 80 43 40
        e 0 80 47 40
        e 0 80 4a 40
        e 0 80 4f 40
        e 16 90 43 6e
        e 0 90 47 6e
        e 0 90 4a 6e
        e 0 90 4f 6e
        e 32 80 43 40
        e 0 80 47 40
        e 0 80 4a 40
        e 0 80 4f 40
        e 16 90 43 6e
        e 0 90 47 6e
        e 0 90 4a 6e
        e 80 80 43 40
        e 0 80 47 40
        e 0 80 4a 40
        e 16 90 43 6e
        e 0 90 47 6e
        e 0 90 4a 6e
        e 32 80 43 40
        e 0 80 47 40
        e 0 80 4a 40
        e 64 90 40 6e
        e 0 90 43 6e
        e 0 90 48 6e
        e 176 80 40 40
        e 0 80 43 40
        e 0 80 48 40
        e 112 90 43 6e
        e 16 80 43 40
        e 16 90 45 6e
        e 16 80 45 40
        e 16 90 47 6e
        e 16 80 47 40
        e 16 90 48 6e
        e 80 80 48 40
        e 16 90 43 6e
        e 16 80 43 40
        e 16 90 45 6e
        e 16 80 45 40
        e 16 90 47 6e
        e 16 80 47 40
        e 16 90 48 6e
        e 80 80 48 40
        e 16 90 43 6e
        e 16 80 43 40
        e 16 90 45 6e
        e 16 80 45 40
        e 16 90 47 6e
        e 16 80 47 40
        e 16 90 48 6e
        e 176 80 48 40
        e 16 90 40 6e
        e 0 90 43 6e
        e 0 90 48 6e
        e 128 80 40 40
        e 0 80 43 40
        e 0 80 48 40
        e 16 90 40 6e
        e 0 90 43 6e
        e 0 90 48 6e
        e 32 80 40 40
        e 0 80 43 40
        e 0 80 48 40
        e 16 90 40 6e
        e 0 90 43 6e
        e 0 90 48 6e
        e 176 80 40 40
        e 0 80 43 40
        e 0 80 48 40
        e 16 90 43 6e
        e 128 80 43 40
        e 16 90 48 6e
        e 32 80 48 40
        e 16 90 40 6e
        e 0 90 48 6e
        e 128 80 40 40
        e 0 80 48 40
        e 16 90 43 6e
        e 0 90 47 6e
        e 32 80 43 40
        e 0 80 47 40
        e 16 90 43 6e
        e 0 90 47 6e
        e 128 80 43 40
        e 0 80 47 40
        e 16 90 41 6e
        e 0 90 45 6e
        e 32 80 41 40
        e 0 80 45 40
        e 16 90 41 6e
        e 0 90 45 6e
        e 128 80 41 40
        e 0 80 45 40
        e 16 90 40 6e
        e 0 90 43 6e
        e 32 80 40 40
        e 0 80 43 40
        e 16 90 40 6e
        e 0 90 43 6e
        e 128 80 40 40
        e 0 80 43 40
        e 16 90 3f 6e
        e 0 90 42 6e
        e 32 80 3f 40
        e 0 80 42 40
        e 16 90 40 6e
        e 0 90 43 6e
        e 272 80 40 40
        e 0 80 43 40
        e 16 90 3e 6e
        e 0 90 41 6e
        e 80 80 3e 40
        e 0 80 41 40
        e 16 90 3c 6e
        e 0 90 40 6e
        e 176 80 3c 40
        e 0 80 40 40
        e 16 90 3b 6e
        e 0 90 3e 6e
        e 128 80 3b 40
        e 0 80 3e 40
        e 16 90 3c 6e
        e 0 90 40 6e
        e 32 80 3c 40
        e 0 80 40 40
        e 16 90 3e 6e
        e 0 90 41 6e
        e 80 80 3e 40
        e 0 80 41 40
        e 112 90 3e 6e
        e 0 90 41 6e
        e 80 80 3e 40
        e 0 80 41 40
        e 112 90 3c 6e
        e 0 90 40 6e
        e 80 80 3c 40
        e 0 80 40 40
        e 112 90 3c 6e
        e 0 90 40 6e
        e 80 80 3c 40
        e 0 80 40 40
        e 112 90 3b 6e
        e 0 90 3e 6e
        e 0 90 43 6e
        e 80 80 3b 40
        e 0 80 3e 40
        e 0 80 43 40
        e 16 90 3b 6e
        e 0 90 3e 6e
        e 0 90 43 6e
        e 32 80 3b 40
        e 0 80 3e 40
        e 0 80 43 40
        e 16 90 3b 6e
        e 0 90 3e 6e
        e 0 90 43 6e
        e 32 80 3b 40
        e 0 80 3e 40
        e 0 80 43 40
        e 16 90 3b 6e
        e 0 90 3e 6e
        e 0 90 43 6e
        e 80 80 3b 40
        e 0 80 3e 40
        e 0 80 43 40
        e 16 90 3b 6e
        e 0 90 3e 6e
        e 0 90 43 6e
        e 80 80 3b 40
        e 0 80 3e 40
        e 0 80 43 40
        e 16 90 3b 6e
        e 0 90 3e 6e
        e 0 90 43 6e
        e 80 80 3b 40
        e 0 80 3e 40
        e 0 80 43 40
        e 304 90 40 6e
        e 0 90 48 6e
        e 128 80 40 40
        e 0 80 48 40
        e 16 90 43 6e
        e 0 90 47 6e
        e 32 80 43 40
        e 0 80 47 40
        e 16 90 43 6e
        e 0 90 47 6e
        e 128 80 43 40
        e 0 80 47 40
        e 16 90 41 6e
        e 0 90 45 6e
        e 32 80 41 40
        e 0 80 45 40
        e 16 90 41 6e
        e 0 90 45 6e
        e 128 80 41 40
        e 0 80 45 40
        e 16 90 40 6e
        e 0 90 43 6e
        e 32 80 40 40
        e 0 80 43 40
        e 16 90 40 6e
        e 0 90 43 6e
        e 128 80 40 40
        e 0 80 43 40
        e 16 90 3f 6e
        e 0 90 42 6e
        e 32 80 3f 40
        e 0 80 42 40
        e 16 90 40 6e
        e 0 90 43 6e
        e 272 80 40 40
        e 0 80 43 40
        e 16 90 3e 6e
        e 0 90 41 6e
        e 80 80 3e 40
        e 0 80 41 40
        e 16 90 3c 6e
        e 0 90 40 6e
        e 176 80 3c 40
        e 0 80 40 40
        e 16 90 3c 6e
        e 0 90 40 6e
        e 128 80 3c 40
        e 0 80 40 40
        e 16 90 3c 6e
        e 0 90 40 6e
        e 32 80 3c 40
        e 0 80 40 40
        e 16 90 3b 6e
        e 0 90 3e 6e
        e 0 90 43 6e
        e 80 80 3b 40
        e 0 80 3e 40
        e 0 80 43 40
        e 112 90 3b 6e
        e 0 90 3e 6e
        e 0 90 43 6e
        e 80 80 3b 40
        e 0 80 3e 40
        e 0 80 43 40
        e 112 90 39 6e
        e 0 90 3e 6e
        e 0 90 42 6e
        e 80 80 39 40
        e 0 80 3e 40
        e 0 80 42 40
        e 112 90 39 6e
        e 0 90 3e 6e
        e 0 90 42 6e
        e 80 80 39 40
        e 0 80 3e 40
        e 0 80 42 40
        e 112 90 3b 6e
        e 0 90 3e 6e
        e 0 90 43 6e
        e 176 80 3b 40
        e 0 80 3e 40
        e 0 80 43 40
        e 16 90 3b 6e
        e 0 90 3e 6e
        e 0 90 43 6e
        e 128 80 3b 40
        e 0 80 3e 40
        e 0 80 43 40
        e 16 90 3b 6e
        e 0 90 3e 6e
        e 0 90 43 6e
        e 32 80 3b 40
        e 0 80 3e 40
        e 0 80 43 40
        e 16 90 3b 6e
        e 0 90 3e 6e
        e 0 90 43 6e
        e 176 80 3b 40
        e 0 80 3e 40
        e 0 80 43 40
        e 208 90 3f 6e
        e 0 90 43 6e
        e 80 80 3f 40
        e 0 80 43 40
        e 16 90 3a 6e
        e 80 80 3a 40
        e 16 90 3f 6e
        e 0 90 43 6e
        e 80 80 3f 40
        e 0 80 43 40
        e 16 90 3a 6e
        e 80 80 3a 40
        e 16 90 41 6e
        e 0 90 44 6e
        e 80 80 41 40
        e 0 80 44 40
        e 16 90 3f 6e
        e 0 90 43 6e
        e 80 80 3f 40
        e 0 80 43 40
        e 16 90 3e 6e
        e 0 90 41 6e
        e 80 80 3e 40
        e 0 80 41 40
        e 16 90 3f 6e
        e 0 90 43 6e
        e 80 80 3f 40
        e 0 80 43 40
        e 16 90 41 6e
        e 0 90 44 6e
        e 80 80 41 40
        e 0 80 44 40
        e 16 90 3a 6e
        e 80 80 3a 40
        e 16 90 41 6e
        e 0 90 44 6e
        e 80 80 41 40
        e 0 80 44 40
        e 16 90 3a 6e
        e 80 80 3a 40
        e 16 90 3e 6e
        e 0 90 41 6e
        e 80 80 3e 40
        e 0 80 41 40
        e 16 90 3a 6e
        e 80 80 3a 40
        e 16 90 3e 6e
        e 0 90 41 6e
        e 80 80 3e 40
        e 0 80 41 40
        e 16 90 3a 6e
        e 80 80 3a 40
        e 16 90 41 6e
        e 0 90 44 6e
        e 80 80 41 40
        e 0 80 44 40
        e 16 90 3a 6e
        e 80 80 3a 40
        e 16 90 41 6e
        e 0 90 44 6e
        e 80 80 41 40
        e 0 80 44 40
        e 16 90 3a 6e
        e 80 80 3a 40
        e 16 90 43 6e
        e 0 90 46 6e
        e 80 80 43 40
        e 0 80 46 40
        e 16 90 41 6e
        e 0 90 44 6e
        e 80 80 41 40
        e 0 80 44 40
        e 16 90 3f 6e
        e 0 90 43 6e
        e 80 80 3f 40
        e 0 80 43 40
        e 16 90 41 6e
        e 0 90 44 6e
        e 80 80 41 40
        e 0 80 44 40
        e 16 90 43 6e
        e 0 90 46 6e
        e 80 80 43 40
        e 0 80 46 40
        e 16 90 3a 6e
        e 80 80 3a 40
        e 16 90 43 6e
        e 0 90 46 6e
        e 80 80 43 40
        e 0 80 46 40
        e 16 90 41 6e
        e 0 90 44 6e
        e 80 80 41 40
        e 0 80 44 40
        e 16 90 3f 6e
        e 0 90 43 6e
        e 80 80 3f 40
        e 0 80 43 40
        e 16 90 3a 6e
        e 80 80 3a 40
        e 16 90 3f 6e
        e 0 90 43 6e
        e 80 80 3f 40
        e 0 80 43 40
        e 16 90 3a 6e
        e 80 80 3a 40
        e 16 90 3c 6e
        e 0 90 3f 6e
        e 176 80 3c 40
        e 0 80 3f 40
        e 16 90 3c 6e
        e 0 90 3f 6e
        e 128 80 3c 40
        e 0 80 3f 40
        e 16 90 3c 6e
        e 0 90 3f 6e
        e 32 80 3c 40
        e 0 80 3f 40
        e 16 90 3c 6e
        e 0 90 3f 6e
        e 176 80 3c 40
        e 0 80 3f 40
        e 16 90 3c 6e
        e 0 90 3f 6e
        e 0 90 42 6e
        e 176 80 3c 40
        e 0 80 3f 40
        e 0 80 42 40
        e 16 90 3b 6e
        e 0 90 3e 6e
        e 0 90 43 6e
        e 176 80 3b 40
        e 0 80 3e 40
        e 0 80 43 40
        e 16 90 3b 6e
        e 0 90 3e 6e
        e 0 90 43 6e
        e 128 80 3b 40
        e 0 80 3e 40
        e 0 80 43 40
        e 16 90 3b 6e
        e 0 90 3e 6e
        e 0 90 43 6e
        e 32 80 3b 40
        e 0 80 3e 40
        e 0 80 43 40
        e 16 90 3b 6e
        e 0 90 3e 6e
        e 0 90 43 6e
        e 176 80 3b 40
        e 0 80 3e 40
        e 0 80 43 40
        e 16 90 3c 6e
        e 0 90 40 6e
        e 128 80 3c 40
        e 0 80 40 40
        e 16 90 3c 6e
        e 0 90 40 6e
        e 32 80 3c 40
        e 0 80 40 40
        e 16 90 3c 6e
        e 0 90 40 6e
        e 128 80 3c 40
        e 0 80 40 40
        e 16 90 3b 6e
        e 0 90 3e 6e
        e 32 80 3b 40
        e 0 80 3e 40
        e 16 90 3c 6e
        e 0 90 40 6e
        e 128 80 3c 40
        e 0 80 40 40
        e 16 90 3b 6e
        e 0 90 3e 6e
        e 32 80 3b 40
        e 0 80 3e 40
        e 16 90 3c 6e
        e 0 90 40 6e
        e 128 80 3c 40
        e 0 80 40 40
        e 16 90 3b 6e
        e 0 90 3e 6e
        e 32 80 3b 40
        e 0 80 3e 40
        e 16 90 3c 6e
        e 0 90 40 6e
        e 128 80 3c 40
        e 0 80 40 40
        e 16 90 3e 6e
        e 0 90 41 6e
        e 32 80 3e 40
        e 0 80 41 40
        e 16 90 40 6e
        e 0 90 43 6e
        e 176 80 40 40
        e 0 80 43 40
        e 16 90 41 6e
        e 0 90 45 6e
        e 368 80 41 40
        e 0 80 45 40
        e 16 90 3b 6e
        e 0 90 3e 6e
        e 128 80 3b 40
        e 0 80 3e 40
        e 16 90 3b 6e
        e 0 90 3e 6e
        e 32 80 3b 40
        e 0 80 3e 40
        e 16 90 3b 6e
        e 0 90 3e 6e
        e 128 80 3b 40
        e 0 80 3e 40
        e 16 90 39 6e
        e 0 90 3c 6e
        e 32 80 39 40
        e 0 80 3c 40
        e 16 90 3b 6e
        e 0 90 3e 6e
        e 128 80 3b 40
        e 0 80 3e 40
        e 16 90 39 6e
        e 0 90 3c 6e
        e 32 80 39 40
        e 0 80 3c 40
        e 16 90 3b 6e
        e 0 90 3e 6e
        e 128 80 3b 40
        e 0 80 3e 40
        e 16 90 3c 6e
        e 0 90 40 6e
        e 32 80 3c 40
        e 0 80 40 40
        e 16 90 3e 6e
        e 0 90 41 6e
        e 128 80 3e 40
        e 0 80 41 40
        e 16 90 3f 6e
        e 0 90 42 6e
        e 32 80 3f 40
        e 0 80 42 40
        e 16 90 41 6e
        e 0 90 45 6e
        e 176 80 41 40
        e 0 80 45 40
        e 16 90 40 6e
        e 0 90 43 6e
        e 80 80 40 40
        e 0 80 43 40
        e 304 90 3c 6e
        e 0 90 41 6e
        e 0 90 45 6e
        e 176 80 3c 40
        e 0 80 41 40
        e 0 80 45 40
        e 208 90 3c 6e
        e 0 90 40 6e
        e 0 90 43 6e
        e 176 80 3c 40
        e 0 80 40 40
        e 0 80 43 40
        e 208 90 3b 6e
        e 0 90 3e 6e
        e 0 90 41 6e
        e 176 80 3b 40
        e 0 80 3e 40
        e 0 80 41 40
        e 208 90 3c 6e
        e 0 90 40 6e
        e 176 80 3c 40
        e 0 80 40 40
        e 16 90 41 6e
        e 0 90 45 6e
        e 128 80 41 40
        e 0 80 45 40
        e 16 90 43 6e
        e 0 90 47 6e
        e 32 80 43 40
        e 0 80 47 40
        e 16 90 45 6e
        e 0 90 48 6e
        e 48 80 45 40
        e 0 80 48 40
        e 16 90 43 6e
        e 0 90 47 6e
        e 48 80 43 40
        e 0 80 47 40
        e 16 90 41 6e
        e 0 90 45 6e
        e 48 80 41 40
        e 0 80 45 40
        e 16 90 40 6e
        e 0 90 43 6e
        e 128 80 40 40
        e 0 80 43 40
        e 16 90 45 6e
        e 0 90 48 6e
        e 32 80 45 40
        e 0 80 48 40
        e 16 90 45 6e
        e 0 90 48 6e
        e 48 80 45 40
        e 0 80 48 40
        e 16 90 43 6e
        e 0 90 47 6e
        e 48 80 43 40
        e 0 80 47 40
        e 16 90 41 6e
        e 0 90 45 6e
        e 48 80 41 40
        e 0 80 45 40
        e 16 90 41 6e
        e 0 90 45 6e
        e 48 80 41 40
        e 0 80 45 40
        e 16 90 40 6e
        e 0 90 43 6e
        e 48 80 40 40
        e 0 80 43 40
        e 16 90 3e 6e
        e 0 90 41 6e
        e 48 80 3e 40
        e 0 80 41 40
        e 16 90 3e 6e
        e 0 90 41 6e
        e 48 80 3e 40
        e 0 80 41 40
        e 16 90 3c 6e
        e 0 90 40 6e
        e 48 80 3c 40
        e 0 80 40 40
        e 16 90 37 6e
        e 0 90 3b 6e
        e 48 80 37 40
        e 0 80 3b 40
        e 16 90 34 6e
        e 0 90 3c 6e
        e 80 80 34 40
        e 0 80 3c 40
        e 16 90 40 6e
        e 32 80 40 40
        e 16 90 40 6e
        e 32 80 40 40
        e 16 90 40 6e
        e 80 80 40 40
        e 16 90 40 6e
        e 32 80 40 40
        e 64 90 40 6e
        e 80 80 40 40
        e 16 90 40 6e
        e 32 80 40 40
        e 64 90 40 6e
        e 80 80 40 40
        e 16 90 40 6e
        e 32 80 40 40
        e 64 90 47 6e
        e 0 90 4c 6e
        e 32 80 47 40
        e 0 80 4c 40
        e 16 90 50 6e
        e 32 80 50 40
        e 16 90 47 6e
        e 0 90 4c 6e
        e 32 80 47 40
        e 0 80 4c 40
        e 16 90 50 6e
        e 32 80 50 40
        e 16 90 47 6e
        e 0 90 4c 6e
        e 32 80 47 40
        e 0 80 4c 40
        e 16 90 50 6e
        e 32 80 50 40
        e 16 90 47 6e
        e 0 90 4c 6e
        e 32 80 47 40
        e 0 80 4c 40
        e 16 90 50 6e
        e 32 80 50 40
        e 16 90 47 6e
        e 0 90 4c 6e
        e 32 80 47 40
        e 0 80 4c 40
        e 16 90 50 6e
        e 32 80 50 40
        e 16 90 47 6e
        e 0 90 4c 6e
        e 32 80 47 40
        e 0 80 4c 40
        e 16 90 50 6e
        e 32 80 50 40
        e 16 90 48 6e
        e 0 90 4c 6e
        e 32 80 48 40
        e 0 80 4c 40
        e 16 90 51 6e
        e 32 80 51 40
        e 16 90 48 6e
        e 0 90 4c 6e
        e 32 80 48 40
        e 0 80 4c 40
        e 16 90 51 6e
        e 32 80 51 40
        e 16 90 4a 6e
        e 0 90 4c 6e
        e 32 80 4a 40
        e 0 80 4c 40
        e 16 90 53 6e
        e 32 80 53 40
        e 16 90 4a 6e
        e 0 90 4c 6e
        e 32 80 4a 40
        e 0 80 4c 40
        e 16 90 53 6e
        e 32 80 53 40
        e 16 90 4a 6e
        e 0 90 4c 6e
        e 32 80 4a 40
        e 0 80 4c 40
        e 16 90 53 6e
        e 32 80 53 40
        e 16 90 4a 6e
        e 0 90 4c 6e
        e 32 80 4a 40
        e 0 80 4c 40
        e 16 90 53 6e
        e 32 80 53 40
        e 16 90 4a 6e
        e 0 90 4c 6e
        e 32 80 4a 40
        e 0 80 4c 40
        e 16 90 53 6e
        e 32 80 53 40
        e 16 90 4a 6e
        e 0 90 4c 6e
        e 32 80 4a 40
        e 0 80 4c 40
        e 16 90 53 6e
        e 32 80 53 40
        e 16 90 47 6e
        e 0 90 4c 6e
        e 32 80 47 40
        e 0 80 4c 40
        e 16 90 50 6e
        e 32 80 50 40
        e 16 90 47 6e
        e 0 90 4c 6e
        e 32 80 47 40
        e 0 80 4c 40
        e 16 90 50 6e
        e 32 80 50 40
        e 16 90 48 6e
        e 0 90 4c 6e
        e 32 80 48 40
        e 0 80 4c 40
        e 16 90 51 6e
        e 32 80 51 40
        e 16 90 48 6e
        e 0 90 4c 6e
        e 32 80 48 40
        e 0 80 4c 40
        e 16 90 51 6e
        e 32 80 51 40
        e 16 90 48 6e
        e 0 90 4c 6e
        e 32 80 48 40
        e 0 80 4c 40
        e 16 90 51 6e
        e 32 80 51 40
        e 16 90 48 6e
        e 0 90 4c 6e
        e 32 80 48 40
        e 0 80 4c 40
        e 16 90 51 6e
        e 32 80 51 40
        e 16 90 48 6e
        e 0 90 51 6e
        e 128 80 48 40
        e 0 80 51 40
        e 16 90 47 6e
        e 0 90 50 6e
        e 32 80 47 40
        e 0 80 50 40
        e 16 90 48 6e
        e 0 90 51 6e
        e 128 80 48 40
        e 0 80 51 40
        e 16 90 4a 6e
        e 0 90 53 6e
        e 32 80 4a 40
        e 0 80 53 40
        e 16 90 47 6e
        e 0 90 50 6e
        e 96 90 40 6e
        e 0 90 4c 6e
        e 32 80 47 40
        e 0 80 50 40
        e 0 80 40 40
        e 0 80 4c 40
        e 16 90 40 6e
        e 0 90 4c 6e
        e 32 80 40 40
        e 0 80 4c 40
        e 16 90 40 6e
        e 0 90 4c 6e
        e 80 80 40 40
        e 0 80 4c 40
        e 16 90 40 6e
        e 0 90 4c 6e
        e 80 80 40 40
        e 0 80 4c 40
        e 16 90 40 6e
        e 0 90 4c 6e
        e 80 80 40 40
        e 0 80 4c 40
        e 16 90 40 6e
        e 0 90 4c 6e
        e 32 80 40 40
        e 0 80 4c 40
        e 16 90 40 6e
        e 0 90 4c 6e
        e 32 80 40 40
        e 0 80 4c 40
        e 16 90 40 6e
        e 0 90 4c 6e
        e 80 80 40 40
        e 0 80 4c 40
        e 16 90 40 6e
        e 0 90 4c 6e
        e 80 80 40 40
        e 0 80 4c 40
        e 16 90 47 6e
        e 32 80 47 40
        e 16 90 4c 6e
        e 32 80 4c 40
        e 16 90 50 6e
        e 32 80 50 40
        e 16 90 4c 6e
        e 32 80 4c 40
        e 16 90 47 6e
        e 32 80 47 40
        e 16 90 4c 6e
        e 32 80 4c 40
        e 16 90 50 6e
        e 32 80 50 40
        e 16 90 4c 6e
        e 32 80 4c 40
        e 16 90 47 6e
        e 32 80 47 40
        e 16 90 4c 6e
        e 32 80 4c 40
        e 16 90 50 6e
        e 32 80 50 40
        e 16 90 4c 6e
        e 32 80 4c 40
        e 16 90 48 6e
        e 32 80 48 40
        e 16 90 4c 6e
        e 32 80 4c 40
        e 16 90 51 6e
        e 32 80 51 40
        e 16 90 4c 6e
        e 32 80 4c 40
        e 16 90 4a 6e
        e 32 80 4a 40
        e 16 90 4c 6e
        e 32 80 4c 40
        e 16 90 53 6e
        e 32 80 53 40
        e 16 90 4c 6e
        e 32 80 4c 40
        e 16 90 4a 6e
        e 32 80 4a 40
        e 16 90 4c 6e
        e 32 80 4c 40
        e 16 90 53 6e
        e 32 80 53 40
        e 16 90 4c 6e
        e 32 80 4c 40
        e 16 90 4a 6e
        e 32 80 4a 40
        e 16 90 4c 6e
        e 32 80 4c 40
        e 16 90 53 6e
        e 32 80 53 40
        e 16 90 4c 6e
        e 32 80 4c 40
        e 16 90 47 6e
        e 32 80 47 40
        e 16 90 4c 6e
        e 32 80 4c 40
        e 16 90 50 6e
        e 32 80 50 40
        e 16 90 4c 6e
        e 32 80 4c 40
        e 16 90 48 6e
        e 32 80 48 40
        e 16 90 4c 6e
        e 32 80 4c 40
        e 16 90 51 6e
        e 32 80 51 40
        e 16 90 4c 6e
        e 32 80 4c 40
        e 16 90 48 6e
        e 32 80 48 40
        e 16 90 4c 6e
        e 32 80 4c 40
        e 16 90 51 6e
        e 32 80 51 40
        e 16 90 4c 6e
        e 32 80 4c 40
        e 16 90 48 6e
        e 32 80 48 40
        e 16 90 4b 6e
        e 32 80 4b 40
        e 16 90 51 6e
        e 32 80 51 40
        e 16 90 4b 6e
        e 32 80 4b 40
        e 16 90 48 6e
        e 32 80 48 40
        e 16 90 4b 6e
        e 32 80 4b 40
        e 16 90 51 6e
        e 32 80 51 40
        e 16 90 4b 6e
        e 32 80 4b 40
        e 16 90 47 6e
        e 0 90 4c 6e
        e 0 90 50 6e
        e 80 80 47 40
        e 0 80 4c 40
        e 0 80 50 40
        e 16 90 40 6e
        e 0 90 44 6e
        e 0 90 47 6e
        e 0 90 4c 6e
        e 32 80 40 40
        e 0 80 44 40
        e 0 80 47 40
        e 0 80 4c 40
        e 16 90 40 6e
        e 0 90 44 6e
        e 0 90 47 6e
        e 0 90 4c 6e
        e 32 80 40 40
        e 0 80 44 40
        e 0 80 47 40
        e 0 80 4c 40
        e 16 90 40 6e
        e 0 90 44 6e
        e 0 90 47 6e
        e 0 90 4c 6e
        e 80 80 40 40
        e 0 80 44 40
        e 0 80 47 40
        e 0 80 4c 40
        e 16 90 40 6e
        e 0 90 44 6e
        e 0 90 47 6e
        e 0 90 4c 6e
        e 80 80 40 40
        e 0 80 44 40
        e 0 80 47 40
        e 0 80 4c 40
        e 16 90 40 6e
        e 0 90 44 6e
        e 0 90 47 6e
        e 0 90 4c 6e
        e 176 80 40 40
        e 0 80 44 40
        e 0 80 47 40
        e 0 80 4c 40
        e 16 90 3c 6e
        e 0 90 40 6e
        e 128 80 3c 40
        e 0 80 40 40
        e 16 90 3e 6e
        e 0 90 41 6e
        e 32 80 3e 40
        e 0 80 41 40
        e 16 90 40 6e
        e 0 90 43 6e
        e 80 80 40 40
        e 0 80 43 40
        e 16 90 40 6e
        e 0 90 43 6e
        e 32 80 40 40
        e 0 80 43 40
        e 16 90 40 6e
        e 0 90 43 6e
        e 32 80 40 40
        e 0 80 43 40
        e 16 90 40 6e
        e 0 90 43 6e
        e 128 80 40 40
        e 0 80 43 40
        e 16 90 41 6e
        e 0 90 45 6e
        e 32 80 41 40
        e 0 80 45 40
        e 16 90 43 6e
        e 0 90 46 6e
        e 80 80 43 40
        e 0 80 46 40
        e 16 90 43 6e
        e 0 90 46 6e
        e 32 80 43 40
        e 0 80 46 40
        e 16 90 43 6e
        e 0 90 46 6e
        e 32 80 43 40
        e 0 80 46 40
        e 16 90 43 6e
        e 0 90 46 6e
        e 128 80 43 40
        e 0 80 46 40
        e 16 90 43 6e
        e 0 90 46 6e
        e 32 80 43 40
        e 0 80 46 40
        e 16 90 43 6e
        e 0 90 46 6e
        e 80 80 43 40
        e 0 80 46 40
        e 16 90 43 6e
        e 0 90 46 6e
        e 32 80 43 40
        e 0 80 46 40
        e 16 90 43 6e
        e 0 90 46 6e
        e 32 80 43 40
        e 0 80 46 40
        e 16 90 41 6e
        e 0 90 45 6e
        e 80 80 41 40
        e 0 80 45 40
        e 16 90 41 6e
        e 0 90 45 6e
        e 80 80 41 40
        e 0 80 45 40
        e 16 90 41 6e
        e 0 90 45 6e
        e 176 80 41 40
        e 0 80 45 40
        e 16 90 3e 6e
        e 0 90 42 6e
        e 128 80 3e 40
        e 0 80 42 40
        e 16 90 40 6e
        e 0 90 43 6e
        e 32 80 40 40
        e 0 80 43 40
        e 16 90 42 6e
        e 0 90 45 6e
        e 80 80 42 40
        e 0 80 45 40
        e 16 90 42 6e
        e 0 90 45 6e
        e 32 80 42 40
        e 0 80 45 40
        e 16 90 42 6e
        e 0 90 45 6e
        e 32 80 42 40
        e 0 80 45 40
        e 16 90 42 6e
        e 0 90 45 6e
        e 128 80 42 40
        e 0 80 45 40
        e 16 90 43 6e
        e 0 90 47 6e
        e 32 80 43 40
        e 0 80 47 40
        e 16 90 45 6e
        e 0 90 48 6e
        e 80 80 45 40
        e 0 80 48 40
        e 16 90 45 6e
        e 0 90 48 6e
        e 32 80 45 40
        e 0 80 48 40
        e 16 90 45 6e
        e 0 90 48 6e
        e 32 80 45 40
        e 0 80 48 40
        e 16 90 45 6e
        e 0 90 48 6e
        e 128 80 45 40
        e 0 80 48 40
        e 16 90 45 6e
        e 0 90 48 6e
        e 32 80 45 40
        e 0 80 48 40
        e 16 90 43 6e
        e 0 90 47 6e
        e 80 80 43 40
        e 0 80 47 40
        e 16 90 43 6e
        e 0 90 47 6e
        e 32 80 43 40
        e 0 80 47 40
        e 16 90 43 6e
        e 0 90 47 6e
        e 32 80 43 40
        e 0 80 47 40
        e 16 90 43 6e
        e 0 90 47 6e
        e 80 80 43 40
        e 0 80 47 40
        e 16 90 43 6e
        e 0 90 47 6e
        e 80 80 43 40
        e 0 80 47 40
        e 16 90 43 6e
        e 0 90 47 6e
        e 176 80 43 40
        e 0 80 47 40
        e 16 90 47 6e
        e 0 90 4f 6e
        e 0 90 53 6e
        e 128 80 47 40
        e 0 80 4f 40
        e 0 80 53 40
        e 16 90 47 6e
        e 0 90 4f 6e
        e 0 90 53 6e
        e 32 80 47 40
        e 0 80 4f 40
        e 0 80 53 40
        e 16 90 47 6e
        e 0 90 4f 6e
        e 0 90 53 6e
        e 128 80 47 40
        e 0 80 4f 40
        e 0 80 53 40
        e 16 90 45 6e
        e 0 90 4d 6e
        e 0 90 51 6e
        e 32 80 45 40
        e 0 80 4d 40
        e 0 80 51 40
        e 16 90 47 6e
        e 0 90 4f 6e
        e 0 90 53 6e
        e 128 80 47 40
        e 0 80 4f 40
        e 0 80 53 40
        e 16 90 45 6e
        e 0 90 4d 6e
        e 0 90 51 6e
        e 32 80 45 40
        e 0 80 4d 40
        e 0 80 51 40
        e 16 90 45 6e
        e 0 90 4d 6e
        e 0 90 51 6e
        e 128 80 45 40
        e 0 80 4d 40
        e 0 80 51 40
        e 16 90 43 6e
        e 0 90 4c 6e
        e 0 90 4f 6e
        e 32 80 43 40
        e 0 80 4c 40
        e 0 80 4f 40
        e 16 90 45 6e
        e 0 90 4d 6e
        e 0 90 51 6e
        e 128 80 45 40
        e 0 80 4d 40
        e 0 80 51 40
        e 16 90 43 6e
        e 0 90 4c 6e
        e 0 90 4f 6e
        e 32 80 43 40
        e 0 80 4c 40
        e 0 80 4f 40
        e 16 90 45 6e
        e 0 90 4d 6e
        e 0 90 51 6e
        e 272 80 45 40
        e 0 80 4d 40
        e 0 80 51 40
        e 16 90 43 6e
        e 0 90 4c 6e
        e 0 90 4f 6e
        e 80 80 43 40
        e 0 80 4c 40
        e 0 80 4f 40
        e 16 90 40 6e
        e 0 90 48 6e
        e 0 90 4c 6e
        e 176 80 40 40
        e 0 80 48 40
        e 0 80 4c 40
        e 16 90 48 6e
        e 0 90 54 6e
        e 128 80 48 40
        e 0 80 54 40
        e 16 90 47 6e
        e 0 90 4f 6e
        e 0 90 53 6e
        e 32 80 47 40
        e 0 80 4f 40
        e 0 80 53 40
        e 16 90 47 6e
        e 0 90 4f 6e
        e 0 90 53 6e
        e 128 80 47 40
        e 0 80 4f 40
        e 0 80 53 40
        e 16 90 45 6e
        e 0 90 4d 6e
        e 0 90 51 6e
        e 32 80 45 40
        e 0 80 4d 40
        e 0 80 51 40
        e 16 90 47 6e
        e 0 90 4f 6e
        e 0 90 53 6e
        e 128 80 47 40
        e 0 80 4f 40
        e 0 80 53 40
        e 16 90 45 6e
        e 0 90 4d 6e
        e 0 90 51 6e
        e 32 80 45 40
        e 0 80 4d 40
        e 0 80 51 40
        e 16 90 45 6e
        e 0 90 4d 6e
        e 0 90 51 6e
        e 128 80 45 40
        e 0 80 4d 40
        e 0 80 51 40
        e 16 90 43 6e
        e 0 90 4c 6e
        e 0 90 4f 6e
        e 32 80 43 40
        e 0 80 4c 40
        e 0 80 4f 40
        e 16 90 45 6e
        e 0 90 4d 6e
        e 0 90 51 6e
        e 128 80 45 40
        e 0 80 4d 40
        e 0 80 51 40
        e 16 90 43 6e
        e 0 90 4c 6e
        e 0 90 4f 6e
        e 32 80 43 40
        e 0 80 4c 40
        e 0 80 4f 40
        e 16 90 40 6e
        e 0 90 48 6e
        e 0 90 4c 6e
        e 80 80 40 40
        e 0 80 48 40
        e 0 80 4c 40
        e 16 90 3c 6e
        e 0 90 48 6e
        e 32 80 3c 40
        e 0 80 48 40
        e 16 90 3c 6e
        e 0 90 48 6e
        e 32 80 3c 40
        e 0 80 48 40
        e 16 90 3c 6e
        e 0 90 48 6e
        e 80 80 3c 40
        e 0 80 48 40
        e 16 90 3e 6e
        e 0 90 4a 6e
        e 80 80 3e 40
        e 0 80 4a 40
        e 16 90 40 6e
        e 0 90 4c 6e
        e 80 80 40 40
        e 0 80 4c 40
        e 16 90 41 6e
        e 0 90 4d 6e
        e 80 80 41 40
        e 0 80 4d 40
        e 16 90 43 6e
        e 0 90 4f 6e
        e 80 80 43 40
        e 0 80 4f 40
        e 16 90 45 6e
        e 0 90 51 6e
        e 80 80 45 40
        e 0 80 51 40
        e 16 90 46 6e
        e 0 90 52 6e
        e 80 80 46 40
        e 0 80 52 40
        e 16 90 40 6e
        e 0 90 43 6e
        e 0 90 49 6e
        e 32 80 40 40
        e 0 80 43 40
        e 0 80 49 40
        e 16 90 40 6e
        e 0 90 43 6e
        e 0 90 49 6e
        e 32 80 40 40
        e 0 80 43 40
        e 0 80 49 40
        e 16 90 40 6e
        e 0 90 43 6e
        e 0 90 49 6e
        e 128 80 40 40
        e 0 80 43 40
        e 0 80 49 40
        e 16 90 40 6e
        e 0 90 43 6e
        e 0 90 49 6e
        e 32 80 40 40
        e 0 80 43 40
        e 0 80 49 40
        e 16 90 41 6e
        e 0 90 45 6e
        e 0 90 4a 6e
        e 176 80 41 40
        e 0 80 45 40
        e 0 80 4a 40
        e 16 90 40 6e
        e 0 90 43 6e
        e 0 90 45 6e
        e 0 90 49 6e
        e 176 80 40 40
        e 0 80 43 40
        e 0 80 45 40
        e 0 80 49 40
        e 16 90 3e 6e
        e 0 90 45 6e
        e 0 90 4a 6e
        e 176 80 3e 40
        e 0 80 45 40
        e 0 80 4a 40
        e 16 90 3e 6e
        e 0 90 45 6e
        e 0 90 4a 6e
        e 176 80 3e 40
        e 0 80 45 40
        e 0 80 4a 40
        e 208 90 48 6e
        e 0 90 4b 6e
        e 0 90 51 6e
        e 128 80 48 40
        e 0 80 4b 40
        e 0 80 51 40
        e 16 90 48 6e
        e 0 90 4b 6e
        e 0 90 51 6e
        e 32 80 48 40
        e 0 80 4b 40
        e 0 80 51 40
        e 16 90 48 6e
        e 0 90 4c 6e
        e 0 90 4f 6e
        e 176 80 48 40
        e 0 80 4c 40
        e 0 80 4f 40
        e 16 90 43 6e
        e 0 90 48 6e
        e 0 90 4c 6e
        e 128 80 43 40
        e 0 80 48 40
        e 0 80 4c 40
        e 16 90 43 6e
        e 0 90 48 6e
        e 0 90 4c 6e
        e 32 80 43 40
        e 0 80 48 40
        e 0 80 4c 40
        e 16 90 43 6e
        e 0 90 4a 6e
        e 0 90 4d 6e
        e 176 80 43 40
        e 0 80 4a 40
        e 0 80 4d 40
        e 16 90 43 6e
        e 0 90 47 6e
        e 0 90 4a 6e
        e 128 80 43 40
        e 0 80 47 40
        e 0 80 4a 40
        e 16 90 43 6e
        e 0 90 47 6e
        e 0 90 4a 6e
        e 32 80 43 40
        e 0 80 47 40
        e 0 80 4a 40
        e 16 90 43 6e
        e 0 90 48 6e
        e 0 90 4c 6e
        e 176 80 43 40
        e 0 80 48 40
        e 0 80 4c 40
        e 16 90 34 6e
        e 48 80 34 40
        e 16 90 35 6e
        e 48 80 35 40
        e 16 90 37 6e
        e 48 80 37 40
        e 16 90 39 6e
        e 48 80 39 40
        e 16 90 3b 6e
        e 48 80 3b 40
        e 16 90 3c 6e
        e 48 80 3c 40
        e 16 90 3e 6e
        e 48 80 3e 40
        e 16 90 40 6e
        e 48 80 40 40
        e 16 90 41 6e
        e 48 80 41 40
        e 16 90 43 6e
        e 80 80 43 40
        e 16 90 48 6e
        e 0 90 4c 6e
        e 0 90 4d 6e
        e 0 90 4f 6e
        e 0 90 54 6e
        e 32 80 48 40
        e 0 80 4c 40
        e 0 80 4d 40
        e 0 80 4f 40
        e 0 80 54 40
        e 16 90 48 6e
        e 0 90 4c 6e
        e 0 90 4f 6e
        e 0 90 54 6e
        e 32 80 48 40
        e 0 80 4c 40
        e 0 80 4f 40
        e 0 80 54 40
        e 16 90 48 6e
        e 0 90 4c 6e
        e 0 90 4f 6e
        e 0 90 54 6e
        e 80 80 48 40
        e 0 80 4c 40
        e 0 80 4f 40
        e 0 80 54 40
        e 16 90 48 6e
        e 0 90 4c 6e
        e 0 90 4f 6e
        e 0 90 54 6e
        e 80 80 48 40
        e 0 80 4c 40
        e 0 80 4f 40
        e 0 80 54 40
        e 16 90 4a 6e
        e 0 90 4d 6e
        e 0 90 4f 6e
        e 0 90 53 6e
        e 80 80 4a 40
        e 0 80 4d 40
        e 0 80 4f 40
        e 0 80 53 40
        e 16 90 4a 6e
        e 0 90 4d 6e
        e 0 90 4f 6e
        e 0 90 53 6e
        e 32 80 4a 40
        e 0 80 4d 40
        e 0 80 4f 40
        e 0 80 53 40
        e 16 90 4a 6e
        e 0 90 4d 6e
        e 0 90 4f 6e
        e 0 90 53 6e
        e 32 80 4a 40
        e 0 80 4d 40
        e 0 80 4f 40
        e 0 80 53 40
        e 16 90 4a 6e
        e 0 90 4d 6e
        e 0 90 4f 6e
        e 0 90 53 6e
        e 80 80 4a 40
        e 0 80 4d 40
        e 0 80 4f 40
        e 0 80 53 40
        e 16 90 4a 6e
        e 0 90 4d 6e
        e 0 90 4f 6e
        e 0 90 53 6e
        e 80 80 4a 40
        e 0 80 4d 40
        e 0 80 4f 40
        e 0 80 53 40
        e 16 90 48 6e
        e 0 90 4c 6e
        e 0 90 54 6e
        e 176 80 48 40
        e 0 80 4c 40
        e 0 80 54 40
        e 16 90 34 6e
        e 48 80 34 40
        e 16 90 35 6e
        e 48 80 35 40
        e 16 90 37 6e
        e 48 80 37 40
        e 16 90 39 6e
        e 48 80 39 40
        e 16 90 3b 6e
        e 48 80 3b 40
        e 16 90 3c 6e
        e 48 80 3c 40
        e 16 90 3e 6e
        e 48 80 3e 40
        e 16 90 40 6e
        e 48 80 40 40
        e 16 90 41 6e
        e 48 80 41 40
        e 16 90 43 6e
        e 80 80 43 40
        e 16 90 48 6e
        e 0 90 4c 6e
        e 0 90 54 6e
        e 32 80 48 40
        e 0 80 4c 40
        e 0 80 54 40
        e 16 90 48 6e
        e 0 90 4c 6e
        e 0 90 4f 6e
        e 0 90 54 6e
        e 32 80 48 40
        e 0 80 4c 40
        e 0 80 4f 40
        e 0 80 54 40
        e 16 90 48 6e
        e 0 90 4c 6e
        e 0 90 4f 6e
        e 0 90 54 6e
        e 80 80 48 40
        e 0 80 4c 40
        e 0 80 4f 40
        e 0 80 54 40
        e 16 90 48 6e
        e 0 90 4c 6e
        e 0 90 4f 6e
        e 0 90 54 6e
        e 80 80 48 40
        e 0 80 4c 40
        e 0 80 4f 40
        e 0 80 54 40
        e 16 90 4a 6e
        e 0 90 4d 6e
        e 0 90 4f 6e
        e 0 90 53 6e
        e 80 80 4a 40
        e 0 80 4d 40
        e 0 80 4f 40
        e 0 80 53 40
        e 16 90 4a 6e
        e 0 90 4d 6e
        e 0 90 4f 6e
        e 0 90 53 6e
        e 32 80 4a 40
        e 0 80 4d 40
        e 0 80 4f 40
        e 0 80 53 40
        e 16 90 4a 6e
        e 0 90 4d 6e
        e 0 90 4f 6e
        e 0 90 53 6e
        e 32 80 4a 40
        e 0 80 4d 40
        e 0 80 4f 40
        e 0 80 53 40
        e 16 90 4a 6e
        e 0 90 4d 6e
        e 0 90 4f 6e
        e 0 90 53 6e
        e 80 80 4a 40
        e 0 80 4d 40
        e 0 80 4f 40
        e 0 80 53 40
        e 16 90 4a 6e
        e 0 90 4d 6e
        e 0 90 4f 6e
        e 0 90 53 6e
        e 80 80 4a 40
        e 0 80 4d 40
        e 0 80 4f 40
        e 0 80 53 40
        e 16 90 48 6e
        e 0 90 4c 6e
        e 0 90 4f 6e
        e 0 90 54 6e
        e 176 80 48 40
        e 0 80 4c 40
        e 0 80 4f 40
        e 0 80 54 40
        e 16 90 48 6e
        e 48 80 48 40
        e 16 90 43 6e
        e 48 80 43 40
        e 16 90 4c 6e
        e 48 80 4c 40
        e 16 90 48 6e
        e 48 80 48 40
        e 16 90 43 6e
        e 48 80 43 40
        e 16 90 4c 6e
        e 48 80 4c 40
        e 16 90 48 6e
        e 48 80 48 40
        e 16 90 43 6e
        e 48 80 43 40
        e 16 90 4c 6e
        e 48 80 4c 40
        e 16 90 48 6e
        e 48 80 48 40
        e 16 90 54 6e
        e 48 80 54 40
        e 16 90 53 6e
        e 48 80 53 40
        e 16 90 54 6e
        e 48 80 54 40
        e 16 90 4f 6e
        e 48 80 4f 40
        e 16 90 4c 6e
        e 48 80 4c 40
        e 16 90 48 6e
        e 48 80 48 40
        e 16 90 48 6e
        e 48 80 48 40
        e 16 90 47 6e
        e 48 80 47 40
        e 16 90 48 6e
        e 48 80 48 40
        e 16 90 43 6e
        e 48 80 43 40
        e 16 90 40 6e
        e 48 80 40 40
        e 16 90 3c 6e
        e 176 80 3c 40
        e 16 90 40 6e
        e 0 90 43 6e
        e 0 90 48 6e
        e 128 80 40 40
        e 0 80 43 40
        e 0 80 48 40
        e 16 90 40 6e
        e 0 90 43 6e
        e 0 90 48 6e
        e 32 80 40 40
        e 0 80 43 40
        e 0 80 48 40
        e 16 90 40 6e
        e 0 90 43 6e
        e 0 90 48 6e
        e 176 80 40 40
        e 0 80 43 40
        e 0 80 48 40
        E 16 b0 7b 00
        GUID {4AF28801-66B9-ED48-A373-73558CFBFB37}
        IGNTEMPO 0 120 4 4
        SRCCOLOR 912
        VELLANE -1 86 6
        CFGEDITVIEW 0 0 50 24 0 0 0 0 0 0.5
        KEYSNAP 0
        TRACKSEL 226
        EVTFILTER 0 -1 -1 -1 -1 0 1 0 0 -1 -1 -1 -1 0 -1 0 -1 -1
        CFGEDIT 1 0 0 0 0 0 1 0 1 1 1 0.25 16 63 1280 778 0 0 2 3 0 0 0 0 0 0.5 0 0 1 64
      >
    >
    <ITEM
      POSITION 0
      SNAPOFFS 0
      LENGTH 96
      LOOP 1
      ALLTAKES 0
      FADEIN 1 0 0 1 0 0
      FADEOUT 1 0 0 1 0 0
      MUTE 0
      SEL 0
      YPOS 0.317176 0.05
      IGUID {7EE855FE-E6C6-1242-8A8D-12559A47CDEC}
      IID 14
      NAME "Bass                 - National_Anthems_-_Chile.mid"
      VOLPAN 1 0 1 -1
      SOFFS 21.5 43
      PLAYRATE 1 1 0 -1 0 0.0025
      CHANMODE 0
      TAKECOLOR 26173599 B
      GUID {EAAE59A9-EBF5-6543-9C61-2041D18BFCE5}
      <SOURCE MIDI
        HASDATA 1 192 QN
        POOLEDEVTS {5A824F9B-7A30-FE40-9F58-EAB969537F27}
        <X 0 0 0 0 3 "Bass                "
          /wNCYXNzICAgICAgICAgICAgICAgIA==
        >
        e 2299 90 2b 7f
        e 142 80 2b 40
        e 48 90 2b 7f
        e 143 80 2b 40
        e 56 90 2b 7f
        e 91 90 2c 7f
        e 3 80 2b 40
        e 43 80 2c 40
        e 56 90 2d 7f
        e 95 80 2d 40
        e 0 90 2f 7f
        e 46 80 2f 40
        e 53 90 30 7f
        e 94 80 30 40
        e 103 90 2b 7f
        e 94 80 2b 40
        e 90 90 24 7f
        e 94 80 24 40
        e 1829 90 2c 7f
        e 128 80 2c 40
        e 61 90 2c 7f
        e 128 80 2c 40
        e 67 90 2c 7f
        e 128 80 2c 40
        e 61 90 2c 7f
        e 128 80 2c 40
        e 62 90 2b 7f
        e 128 80 2b 40
        e 67 90 2b 7f
        e 129 80 2b 40
        e 81 90 2b 7f
        e 128 80 2b 40
        e 46 90 2b 7f
        e 129 80 2b 40
        e 68 90 24 7f
        e 128 80 24 40
        e 632 90 24 7f
        e 128 80 24 40
        e 67 90 24 7f
        e 81 80 24 40
        e 66 90 24 7f
        e 33 80 24 40
        e 14 90 24 7f
        e 80 80 24 40
        e 301 90 24 7f
        e 128 80 24 40
        e 252 90 24 7f
        e 129 80 24 40
        e 259 90 24 7f
        e 80 80 24 40
        e 305 90 24 7f
        e 129 80 24 40
        e 257 90 2b 7f
        e 128 80 2b 40
        e 245 90 2b 7f
        e 128 80 2b 40
        e 262 90 2b 7f
        e 128 80 2b 40
        e 262 90 2b 7f
        e 81 80 2b 40
        e 299 90 24 7f
        e 128 80 24 40
        e 257 90 24 7f
        e 129 80 24 40
        e 257 90 24 7f
        e 128 80 24 40
        e 256 90 24 7f
        e 128 80 24 40
        e 259 90 26 7f
        e 128 80 26 40
        e 253 90 26 7f
        e 128 80 26 40
        e 259 90 2b 7f
        e 128 80 2b 40
        e 50 90 2b 7f
        e 80 80 2b 40
        e 76 90 2b 7f
        e 33 80 2b 40
        e 14 90 2b 7f
        e 80 80 2b 40
        e 297 90 27 7f
        e 273 80 27 40
        e 111 90 2b 7f
        e 177 80 2b 40
        e 212 90 2e 7f
        e 177 80 2e 40
        e 207 90 2e 7f
        e 129 80 2e 40
        e 252 90 2e 7f
        e 128 80 2e 40
        e 254 90 2e 7f
        e 129 80 2e 40
        e 260 90 27 7f
        e 129 80 27 40
        e 250 90 27 7f
        e 129 80 27 40
        e 255 90 2c 7f
        e 129 80 2c 40
        e 252 90 2c 7f
        e 177 80 2c 40
        e 210 90 2b 7f
        e 129 80 2b 40
        e 60 90 2b 7f
        e 129 80 2b 40
        e 25 90 2b 7f
        e 27 80 2b 40
        e 14 90 2b 7f
        e 81 80 2b 40
        e 302 90 24 7f
        e 80 80 24 40
        e 125 90 24 7f
        e 80 80 24 40
        e 102 90 24 7f
        e 80 80 24 40
        e 114 90 24 7f
        e 80 80 24 40
        e 110 90 24 7f
        e 80 80 24 40
        e 112 90 29 7f
        e 128 80 29 40
        e 446 90 2b 7f
        e 81 80 2b 40
        e 116 90 2b 7f
        e 81 80 2b 40
        e 110 90 2b 7f
        e 80 80 2b 40
        e 112 90 2b 7f
        e 128 80 2b 40
        e 59 90 24 7f
        e 80 80 24 40
        e 115 90 24 7f
        e 80 80 24 40
        e 112 90 29 7f
        e 128 80 29 40
        e 254 90 2b 7f
        e 129 80 2b 40
        e 265 90 2b 7f
        e 128 80 2b 40
        e 242 90 24 7f
        e 128 80 24 40
        e 262 90 29 7f
        e 128 80 29 40
        e 1024 90 24 7f
        e 128 80 24 40
        e 651 90 28 7f
        e 177 80 28 40
        e 199 90 28 7f
        e 177 80 28 40
        e 206 90 28 7f
        e 128 80 28 40
        e 254 90 28 7f
        e 176 80 28 40
        e 210 90 28 7f
        e 306 80 28 40
        e 78 90 28 7f
        e 294 80 28 40
        e 859 90 28 7f
        e 177 80 28 40
        e 199 90 28 7f
        e 129 80 28 40
        e 257 90 28 7f
        e 128 80 28 40
        e 257 90 28 7f
        e 129 80 28 40
        e 259 90 28 7f
        e 278 80 28 40
        e 106 90 28 7f
        e 307 80 28 40
        e 78 90 28 7f
        e 177 80 28 40
        e 114 90 28 7f
        e 33 80 28 40
        e 57 90 28 7f
        e 128 80 28 40
        e 254 90 24 7f
        e 129 80 24 40
        e 255 90 24 7f
        e 129 80 24 40
        e 257 90 29 7f
        e 128 80 29 40
        e 259 90 29 7f
        e 81 80 29 40
        e 297 90 26 7f
        e 128 80 26 40
        e 251 90 26 7f
        e 128 80 26 40
        e 262 90 2b 7f
        e 129 80 2b 40
        e 260 90 2b 7f
        e 81 80 2b 40
        e 303 90 2b 7f
        e 129 80 2b 40
        e 249 90 2b 7f
        e 128 80 2b 40
        e 253 90 24 7f
        e 128 80 24 40
        e 264 90 24 7f
        e 128 80 24 40
        e 252 90 2b 7f
        e 129 80 2b 40
        e 257 90 2b 7f
        e 128 80 2b 40
        e 251 90 24 7f
        e 129 80 24 40
        e 647 90 2e 7f
        e 129 80 2e 40
        e 247 90 2d 7f
        e 177 80 2d 40
        e 22 90 2b 7f
        e 176 80 2b 40
        e 14 90 29 7f
        e 128 80 29 40
        e 72 90 29 7f
        e 80 80 29 40
        e 493 90 2b 7f
        e 128 80 2b 40
        e 61 90 2b 7f
        e 80 80 2b 40
        e 57 90 2b 7f
        e 33 80 2b 40
        e 17 90 2b 7f
        e 80 80 2b 40
        e 125 90 2b 7f
        e 80 80 2b 40
        e 52 90 2b 7f
        e 33 80 2b 40
        e 14 90 24 7f
        e 128 80 24 40
        e 640 90 2b 7f
        e 128 80 2b 40
        e 256 90 2b 7f
        e 128 80 2b 40
        e 256 90 24 7f
        e 80 80 24 40
        e 685 90 2b 7f
        e 128 80 2b 40
        e 259 90 2b 7f
        e 128 80 2b 40
        e 259 90 24 7f
        e 128 80 24 40
        e 1413 90 24 7f
        e 80 80 24 40
        e 107 90 24 7f
        e 80 80 24 40
        e 69 90 24 7f
        e 32 80 24 40
        e 16 90 24 7f
        e 80 80 24 40
        E 109 b0 7b 00
        GUID {8E80C119-80C9-3141-9CCC-3016900289DB}
        IGNTEMPO 0 120 4 4
        SRCCOLOR 723
        VELLANE -1 86 6
        CFGEDITVIEW 9405.117109 291.437819 50 24 0 0 0 0 0 0.5
        KEYSNAP 0
        TRACKSEL 226
        EVTFILTER 0 -1 -1 -1 -1 0 1 0 0 -1 -1 -1 -1 0 -1 0 -1 -1
        CFGEDIT 1 0 0 0 0 0 1 0 1 1 1 0.25 16 63 1280 778 0 0 2 3 0 0 0 0 0 0.5 0 0 1 64
      >
      TAKE
      NAME "Bass                 - National_Anthems_-_Chile.mid"
      TAKEVOLPAN 0 1 -1
      SOFFS 21.5 43
      PLAYRATE 1 1 0 -1 0 0.0025
      CHANMODE 0
      GUID {D713130E-2D5A-C54F-B66F-27081B47F5D9}
      <SOURCE MIDI
        HASDATA 1 192 QN
        POOLEDEVTS {1661AE65-0C15-4844-8852-17A121C898D4}
        <X 0 0 0 0 3 "Bass                "
          /wNCYXNzICAgICAgICAgICAgICAgIA==
        >
        e 2299 90 2b 7f
        e 142 80 2b 40
        e 48 90 2b 7f
        e 143 80 2b 40
        e 56 90 2b 7f
        e 91 90 2c 7f
        e 3 80 2b 40
        e 43 80 2c 40
        e 56 90 2d 7f
        e 95 80 2d 40
        e 0 90 2f 7f
        e 46 80 2f 40
        e 53 90 30 7f
        e 94 80 30 40
        e 103 90 2b 7f
        e 94 80 2b 40
        e 90 90 24 7f
        e 94 80 24 40
        e 1829 90 2c 7f
        e 128 80 2c 40
        e 61 90 2c 7f
        e 128 80 2c 40
        e 67 90 2c 7f
        e 128 80 2c 40
        e 61 90 2c 7f
        e 128 80 2c 40
        e 62 90 2b 7f
        e 128 80 2b 40
        e 67 90 2b 7f
        e 129 80 2b 40
        e 81 90 2b 7f
        e 128 80 2b 40
        e 46 90 2b 7f
        e 129 80 2b 40
        e 68 90 24 7f
        e 128 80 24 40
        e 632 90 24 7f
        e 128 80 24 40
        e 67 90 24 7f
        e 81 80 24 40
        e 66 90 24 7f
        e 33 80 24 40
        e 14 90 24 7f
        e 80 80 24 40
        e 301 90 24 7f
        e 128 80 24 40
        e 252 90 24 7f
        e 129 80 24 40
        e 259 90 24 7f
        e 80 80 24 40
        e 305 90 24 7f
        e 129 80 24 40
        e 257 90 2b 7f
        e 128 80 2b 40
        e 245 90 2b 7f
        e 128 80 2b 40
        e 262 90 2b 7f
        e 128 80 2b 40
        e 262 90 2b 7f
        e 81 80 2b 40
        e 299 90 24 7f
        e 128 80 24 40
        e 257 90 24 7f
        e 129 80 24 40
        e 257 90 24 7f
        e 128 80 24 40
        e 256 90 24 7f
        e 128 80 24 40
        e 259 90 26 7f
        e 128 80 26 40
        e 253 90 26 7f
        e 128 80 26 40
        e 259 90 2b 7f
        e 128 80 2b 40
        e 50 90 2b 7f
        e 80 80 2b 40
        e 76 90 2b 7f
        e 33 80 2b 40
        e 14 90 2b 7f
        e 80 80 2b 40
        e 297 90 27 7f
        e 273 80 27 40
        e 111 90 2b 7f
        e 177 80 2b 40
        e 212 90 2e 7f
        e 177 80 2e 40
        e 207 90 2e 7f
        e 129 80 2e 40
        e 252 90 2e 7f
        e 128 80 2e 40
        e 254 90 2e 7f
        e 129 80 2e 40
        e 260 90 27 7f
        e 129 80 27 40
        e 250 90 27 7f
        e 129 80 27 40
        e 255 90 2c 7f
        e 129 80 2c 40
        e 252 90 2c 7f
        e 177 80 2c 40
        e 210 90 2b 7f
        e 129 80 2b 40
        e 60 90 2b 7f
        e 129 80 2b 40
        e 25 90 2b 7f
        e 27 80 2b 40
        e 14 90 2b 7f
        e 81 80 2b 40
        e 302 90 24 7f
        e 80 80 24 40
        e 125 90 24 7f
        e 80 80 24 40
        e 102 90 24 7f
        e 80 80 24 40
        e 114 90 24 7f
        e 80 80 24 40
        e 110 90 24 7f
        e 80 80 24 40
        e 112 90 29 7f
        e 128 80 29 40
        e 446 90 2b 7f
        e 81 80 2b 40
        e 116 90 2b 7f
        e 81 80 2b 40
        e 110 90 2b 7f
        e 80 80 2b 40
        e 112 90 2b 7f
        e 128 80 2b 40
        e 59 90 24 7f
        e 80 80 24 40
        e 115 90 24 7f
        e 80 80 24 40
        e 112 90 29 7f
        e 128 80 29 40
        e 254 90 2b 7f
        e 129 80 2b 40
        e 265 90 2b 7f
        e 128 80 2b 40
        e 242 90 24 7f
        e 128 80 24 40
        e 262 90 29 7f
        e 128 80 29 40
        e 1024 90 24 7f
        e 128 80 24 40
        e 651 90 28 7f
        e 177 80 28 40
        e 199 90 28 7f
        e 177 80 28 40
        e 206 90 28 7f
        e 128 80 28 40
        e 254 90 28 7f
        e 176 80 28 40
        e 210 90 28 7f
        e 306 80 28 40
        e 78 90 28 7f
        e 294 80 28 40
        e 859 90 28 7f
        e 177 80 28 40
        e 199 90 28 7f
        e 129 80 28 40
        e 257 90 28 7f
        e 128 80 28 40
        e 257 90 28 7f
        e 129 80 28 40
        e 259 90 28 7f
        e 278 80 28 40
        e 106 90 28 7f
        e 307 80 28 40
        e 78 90 28 7f
        e 177 80 28 40
        e 114 90 28 7f
        e 33 80 28 40
        e 57 90 28 7f
        e 128 80 28 40
        e 254 90 24 7f
        e 129 80 24 40
        e 255 90 24 7f
        e 129 80 24 40
        e 257 90 29 7f
        e 128 80 29 40
        e 259 90 29 7f
        e 81 80 29 40
        e 297 90 26 7f
        e 128 80 26 40
        e 251 90 26 7f
        e 128 80 26 40
        e 262 90 2b 7f
        e 129 80 2b 40
        e 260 90 2b 7f
        e 81 80 2b 40
        e 303 90 2b 7f
        e 129 80 2b 40
        e 249 90 2b 7f
        e 128 80 2b 40
        e 253 90 24 7f
        e 128 80 24 40
        e 264 90 24 7f
        e 128 80 24 40
        e 252 90 2b 7f
        e 129 80 2b 40
        e 257 90 2b 7f
        e 128 80 2b 40
        e 251 90 24 7f
        e 129 80 24 40
        e 647 90 2e 7f
        e 129 80 2e 40
        e 247 90 2d 7f
        e 177 80 2d 40
        e 22 90 2b 7f
        e 176 80 2b 40
        e 14 90 29 7f
        e 128 80 29 40
        e 72 90 29 7f
        e 80 80 29 40
        e 493 90 2b 7f
        e 128 80 2b 40
        e 61 90 2b 7f
        e 80 80 2b 40
        e 57 90 2b 7f
        e 33 80 2b 40
        e 17 90 2b 7f
        e 80 80 2b 40
        e 125 90 2b 7f
        e 80 80 2b 40
        e 52 90 2b 7f
        e 33 80 2b 40
        e 14 90 24 7f
        e 128 80 24 40
        e 640 90 2b 7f
        e 128 80 2b 40
        e 256 90 2b 7f
        e 128 80 2b 40
        e 256 90 24 7f
        e 80 80 24 40
        e 685 90 2b 7f
        e 128 80 2b 40
        e 259 90 2b 7f
        e 128 80 2b 40
        e 259 90 24 7f
        e 128 80 24 40
        e 1413 90 24 7f
        e 80 80 24 40
        e 107 90 24 7f
        e 80 80 24 40
        e 69 90 24 7f
        e 32 80 24 40
        e 16 90 24 7f
        e 80 80 24 40
        E 109 b0 7b 00
        GUID {9CC91F69-1621-5F49-A72C-C3439CAA67AB}
        IGNTEMPO 0 120 4 4
        SRCCOLOR 913
        VELLANE -1 86 6
        CFGEDITVIEW 0 0 50 24 0 0 0 0 0 0.5
        KEYSNAP 0
        TRACKSEL 226
        EVTFILTER 0 -1 -1 -1 -1 0 1 0 0 -1 -1 -1 -1 0 -1 0 -1 -1
        CFGEDIT 1 0 0 0 0 0 1 0 1 1 1 0.25 16 63 1280 778 0 0 2 3 0 0 0 0 0 0.5 0 0 1 64
      >
    >
    <ITEM
      POSITION 0
      SNAPOFFS 0
      LENGTH 96
      LOOP 1
      ALLTAKES 0
      FADEIN 1 0 0 1 0 0
      FADEOUT 1 0 0 1 0 0
      MUTE 0
      SEL 0
      YPOS 0.528626 0.05
      IGUID {0F057F7F-3691-AC43-ACDB-E8EDDDF862AE}
      IID 19
      NAME "rh                   - National_Anthems_-_Chile.mid"
      VOLPAN 1 0 1 -1
      SOFFS 21.5 43
      PLAYRATE 1 1 0 -1 0 0.0025
      CHANMODE 0
      TAKECOLOR 26173599 B
      GUID {FCBDB25E-8A88-6F46-9F2B-9D22FE0B5B9A}
      <SOURCE MIDI
        HASDATA 1 192 QN
        POOLEDEVTS {2C4D8E9F-8B1E-9446-8B93-F51194AE785B}
        <X 0 0 0 0 3 "rh                  "
          /wNyaCAgICAgICAgICAgICAgICAgIA==
        >
        e 720 9c 4f 6c
        e 16 9c 51 6c
        e 6 8c 4f 40
        e 2 9c 53 6c
        e 14 8c 51 40
        e 8 8c 53 40
        e 2 9c 48 6c
        e 0 9c 54 6c
        e 334 8c 48 40
        e 0 8c 54 40
        e 2 9c 47 6c
        e 0 9c 53 6c
        e 46 8c 47 40
        e 0 8c 53 40
        e 2 9c 48 6c
        e 0 9c 54 6c
        e 142 8c 48 40
        e 0 8c 54 40
        e 2 9c 44 6c
        e 0 9c 50 6c
        e 46 8c 44 40
        e 0 8c 50 40
        e 2 9c 45 6c
        e 0 9c 51 6c
        e 142 8c 45 40
        e 0 8c 51 40
        e 2 9c 40 6c
        e 0 9c 4c 6c
        e 46 8c 40 40
        e 0 8c 4c 40
        e 2 9c 41 6c
        e 0 9c 4d 6c
        e 142 8c 41 40
        e 0 8c 4d 40
        e 2 9c 3d 6c
        e 0 9c 49 6c
        e 46 8c 3d 40
        e 0 8c 49 40
        e 2 9c 3e 6c
        e 0 9c 4a 6c
        e 142 8c 3e 40
        e 0 8c 4a 40
        e 2 9c 3a 6c
        e 0 9c 46 6c
        e 46 8c 3a 40
        e 0 8c 46 40
        e 2 9c 3b 6c
        e 0 9c 47 6c
        e 190 8c 3b 40
        e 0 8c 47 40
        e 50 9c 43 6c
        e 22 8c 43 40
        e 2 9c 45 6c
        e 22 8c 45 40
        e 2 9c 47 6c
        e 22 8c 47 40
        e 2 9c 48 6c
        e 22 8c 48 40
        e 2 9c 4a 6c
        e 22 8c 4a 40
        e 2 9c 4c 6c
        e 22 8c 4c 40
        e 98 9c 47 6c
        e 0 9c 4a 6c
        e 0 9c 4d 6c
        e 46 8c 47 40
        e 0 8c 4a 40
        e 0 8c 4d 40
        e 2 9c 47 6c
        e 0 9c 4a 6c
        e 0 9c 4d 6c
        e 46 8c 47 40
        e 0 8c 4a 40
        e 0 8c 4d 40
        e 2 9c 47 6c
        e 0 9c 4a 6c
        e 0 9c 4d 6c
        e 94 8c 47 40
        e 0 8c 4a 40
        e 0 8c 4d 40
        e 2 9c 47 6c
        e 0 9c 4a 6c
        e 0 9c 4d 6c
        e 94 8c 47 40
        e 0 8c 4a 40
        e 0 8c 4d 40
        e 2 9c 47 6c
        e 0 9c 4a 6c
        e 0 9c 4d 6c
        e 94 8c 47 40
        e 0 8c 4a 40
        e 0 8c 4d 40
        e 2 9c 47 6c
        e 0 9c 4a 6c
        e 0 9c 4d 6c
        e 94 8c 47 40
        e 0 8c 4a 40
        e 0 8c 4d 40
        e 2 9c 48 6c
        e 0 9c 4d 6c
        e 94 8c 48 40
        e 0 8c 4d 40
        e 2 9c 4a 6c
        e 0 9c 4d 6c
        e 94 8c 4a 40
        e 0 8c 4d 40
        e 2 9c 43 6c
        e 0 9c 48 6c
        e 0 9c 4c 6c
        e 94 8c 43 40
        e 0 8c 48 40
        e 0 8c 4c 40
        e 2 9c 4c 6c
        e 46 8c 4c 40
        e 2 9c 4d 6c
        e 46 8c 4d 40
        e 2 9c 41 6c
        e 0 9c 47 6c
        e 0 9c 4a 6c
        e 94 8c 41 40
        e 0 8c 47 40
        e 0 8c 4a 40
        e 2 9c 4a 6c
        e 46 8c 4a 40
        e 2 9c 4c 6c
        e 46 8c 4c 40
        e 2 9c 40 6c
        e 0 9c 48 6c
        e 190 8c 40 40
        e 0 8c 48 40
        e 26 9c 48 6c
        e 22 8c 48 40
        e 2 9c 4a 6c
        e 22 8c 4a 40
        e 2 9c 4c 6c
        e 22 8c 4c 40
        e 2 9c 4d 6c
        e 22 8c 4d 40
        e 2 9c 4f 6c
        e 22 8c 4f 40
        e 2 9c 51 6c
        e 22 8c 51 40
        e 2 9c 53 6c
        e 22 8c 53 40
        e 2 9c 54 6c
        e 94 8c 54 40
        e 2 9c 51 6c
        e 0 9c 54 6c
        e 46 8c 51 40
        e 0 8c 54 40
        e 2 9c 51 6c
        e 0 9c 54 6c
        e 46 8c 51 40
        e 0 8c 54 40
        e 2 9c 51 6c
        e 0 9c 54 6c
        e 94 8c 51 40
        e 0 8c 54 40
        e 2 9c 51 6c
        e 0 9c 54 6c
        e 94 8c 51 40
        e 0 8c 54 40
        e 2 9c 51 6c
        e 0 9c 54 6c
        e 94 8c 51 40
        e 0 8c 54 40
        e 2 9c 50 6c
        e 0 9c 53 6c
        e 46 8c 50 40
        e 0 8c 53 40
        e 2 9c 51 6c
        e 0 9c 54 6c
        e 46 8c 51 40
        e 0 8c 54 40
        e 2 9c 53 6c
        e 0 9c 56 6c
        e 46 8c 53 40
        e 0 8c 56 40
        e 2 9c 51 6c
        e 0 9c 54 6c
        e 46 8c 51 40
        e 0 8c 54 40
        e 2 9c 4f 6c
        e 0 9c 53 6c
        e 46 8c 4f 40
        e 0 8c 53 40
        e 2 9c 4d 6c
        e 0 9c 51 6c
        e 46 8c 4d 40
        e 0 8c 51 40
        e 2 9c 4c 6c
        e 0 9c 4f 6c
        e 94 8c 4c 40
        e 0 8c 4f 40
        e 2 9c 4f 6c
        e 46 8c 4f 40
        e 2 9c 51 6c
        e 46 8c 51 40
        e 2 9c 4a 6c
        e 0 9c 4d 6c
        e 94 8c 4a 40
        e 0 8c 4d 40
        e 2 9c 4d 6c
        e 46 8c 4d 40
        e 2 9c 4f 6c
        e 46 8c 4f 40
        e 2 9c 48 6c
        e 0 9c 4c 6c
        e 190 8c 48 40
        e 0 8c 4c 40
        e 26 9c 3c 6c
        e 22 8c 3c 40
        e 2 9c 3e 6c
        e 22 8c 3e 40
        e 2 9c 40 6c
        e 22 8c 40 40
        e 2 9c 41 6c
        e 22 8c 41 40
        e 2 9c 43 6c
        e 22 8c 43 40
        e 2 9c 45 6c
        e 22 8c 45 40
        e 2 9c 47 6c
        e 22 8c 47 40
        e 2 9c 48 6c
        e 80 8c 48 40
        e 16 9c 3c 6c
        e 0 9c 3f 6c
        e 0 9c 44 6c
        e 0 9c 48 6c
        e 32 8c 3c 40
        e 0 8c 3f 40
        e 0 8c 44 40
        e 0 8c 48 40
        e 16 9c 3c 6c
        e 0 9c 3f 6c
        e 0 9c 44 6c
        e 0 9c 48 6c
        e 32 8c 3c 40
        e 0 8c 3f 40
        e 0 8c 44 40
        e 0 8c 48 40
        e 16 9c 3c 6c
        e 0 9c 3f 6c
        e 0 9c 44 6c
        e 0 9c 48 6c
        e 80 8c 3c 40
        e 0 8c 3f 40
        e 0 8c 44 40
        e 0 8c 48 40
        e 16 9c 3c 6c
        e 0 9c 3f 6c
        e 0 9c 44 6c
        e 0 9c 48 6c
        e 80 8c 3c 40
        e 0 8c 3f 40
        e 0 8c 44 40
        e 0 8c 48 40
        e 16 9c 3c 6c
        e 0 9c 3f 6c
        e 0 9c 44 6c
        e 0 9c 48 6c
        e 80 8c 3c 40
        e 0 8c 3f 40
        e 0 8c 44 40
        e 0 8c 48 40
        e 16 9c 3e 6c
        e 0 9c 48 6c
        e 0 9c 4a 6c
        e 80 8c 3e 40
        e 0 8c 48 40
        e 0 8c 4a 40
        e 16 9c 3f 6c
        e 0 9c 48 6c
        e 0 9c 4b 6c
        e 80 8c 3f 40
        e 0 8c 48 40
        e 0 8c 4b 40
        e 16 9c 42 6c
        e 0 9c 48 6c
        e 0 9c 4b 6c
        e 0 9c 4e 6c
        e 80 8c 42 40
        e 0 8c 48 40
        e 0 8c 4b 40
        e 0 8c 4e 40
        e 16 9c 43 6c
        e 0 9c 48 6c
        e 0 9c 4c 6c
        e 0 9c 4f 6c
        e 80 8c 43 40
        e 0 8c 48 40
        e 0 8c 4c 40
        e 0 8c 4f 40
        e 16 9c 43 6c
        e 0 9c 48 6c
        e 0 9c 4c 6c
        e 0 9c 4f 6c
        e 32 8c 43 40
        e 0 8c 48 40
        e 0 8c 4c 40
        e 0 8c 4f 40
        e 16 9c 43 6c
        e 0 9c 48 6c
        e 0 9c 4c 6c
        e 0 9c 4f 6c
        e 32 8c 43 40
        e 0 8c 48 40
        e 0 8c 4c 40
        e 0 8c 4f 40
        e 16 9c 43 6c
        e 0 9c 48 6c
        e 0 9c 4c 6c
        e 80 8c 43 40
        e 0 8c 48 40
        e 0 8c 4c 40
        e 16 9c 43 6c
        e 0 9c 48 6c
        e 0 9c 4c 6c
        e 80 8c 43 40
        e 0 8c 48 40
        e 0 8c 4c 40
        e 16 9c 43 6c
        e 0 9c 47 6c
        e 0 9c 4a 6c
        e 0 9c 4f 6c
        e 80 8c 43 40
        e 0 8c 47 40
        e 0 8c 4a 40
        e 0 8c 4f 40
        e 16 9c 43 6c
        e 0 9c 47 6c
        e 0 9c 4a 6c
        e 0 9c 4f 6c
        e 32 8c 43 40
        e 0 8c 47 40
        e 0 8c 4a 40
        e 0 8c 4f 40
        e 16 9c 43 6c
        e 0 9c 47 6c
        e 0 9c 4a 6c
        e 0 9c 4f 6c
        e 32 8c 43 40
        e 0 8c 47 40
        e 0 8c 4a 40
        e 0 8c 4f 40
        e 16 9c 43 6c
        e 0 9c 47 6c
        e 0 9c 4a 6c
        e 80 8c 43 40
        e 0 8c 47 40
        e 0 8c 4a 40
        e 16 9c 43 6c
        e 0 9c 47 6c
        e 0 9c 4a 6c
        e 32 8c 43 40
        e 0 8c 47 40
        e 0 8c 4a 40
        e 64 9c 40 6c
        e 0 9c 43 6c
        e 0 9c 48 6c
        e 176 8c 40 40
        e 0 8c 43 40
        e 0 8c 48 40
        e 112 9c 43 6c
        e 16 8c 43 40
        e 16 9c 45 6c
        e 16 8c 45 40
        e 16 9c 47 6c
        e 16 8c 47 40
        e 16 9c 48 6c
        e 80 8c 48 40
        e 16 9c 43 6c
        e 16 8c 43 40
        e 16 9c 45 6c
        e 16 8c 45 40
        e 16 9c 47 6c
        e 16 8c 47 40
        e 16 9c 48 6c
        e 80 8c 48 40
        e 16 9c 43 6c
        e 16 8c 43 40
        e 16 9c 45 6c
        e 16 8c 45 40
        e 16 9c 47 6c
        e 16 8c 47 40
        e 16 9c 48 6c
        e 176 8c 48 40
        e 16 9c 40 6c
        e 0 9c 43 6c
        e 0 9c 48 6c
        e 128 8c 40 40
        e 0 8c 43 40
        e 0 8c 48 40
        e 16 9c 40 6c
        e 0 9c 43 6c
        e 0 9c 48 6c
        e 32 8c 40 40
        e 0 8c 43 40
        e 0 8c 48 40
        e 16 9c 40 6c
        e 0 9c 43 6c
        e 0 9c 48 6c
        e 176 8c 40 40
        e 0 8c 43 40
        e 0 8c 48 40
        e 16 9c 43 7f
        e 128 8c 43 40
        e 16 9c 48 7f
        e 32 8c 48 40
        e 16 9c 40 6c
        e 0 9c 48 7f
        e 128 8c 40 40
        e 0 8c 48 40
        e 16 9c 43 6c
        e 0 9c 47 7f
        e 32 8c 43 40
        e 0 8c 47 40
        e 16 9c 43 6c
        e 0 9c 47 7f
        e 128 8c 43 40
        e 0 8c 47 40
        e 16 9c 41 6c
        e 0 9c 45 7f
        e 32 8c 41 40
        e 0 8c 45 40
        e 16 9c 41 6c
        e 0 9c 45 7f
        e 128 8c 41 40
        e 0 8c 45 40
        e 16 9c 40 6c
        e 0 9c 43 7f
        e 32 8c 40 40
        e 0 8c 43 40
        e 16 9c 40 6c
        e 0 9c 43 7f
        e 128 8c 40 40
        e 0 8c 43 40
        e 16 9c 3f 6c
        e 0 9c 42 7f
        e 32 8c 3f 40
        e 0 8c 42 40
        e 16 9c 40 6c
        e 0 9c 43 7f
        e 272 8c 40 40
        e 0 8c 43 40
        e 16 9c 3e 6c
        e 0 9c 41 7f
        e 80 8c 3e 40
        e 0 8c 41 40
        e 16 9c 3c 6c
        e 0 9c 40 7f
        e 176 8c 3c 40
        e 0 8c 40 40
        e 16 9c 3b 6c
        e 0 9c 3e 7f
        e 128 8c 3b 40
        e 0 8c 3e 40
        e 16 9c 3c 6c
        e 0 9c 40 7f
        e 32 8c 3c 40
        e 0 8c 40 40
        e 16 9c 3e 6c
        e 0 9c 41 7f
        e 80 8c 3e 40
        e 48 8c 41 40
        e 16 9c 43 7f
        e 32 8c 43 40
        e 16 9c 3e 6c
        e 0 9c 41 6c
        e 0 9c 45 7f
        e 48 8c 45 40
        e 16 9c 43 7f
        e 16 8c 3e 40
        e 0 8c 41 40
        e 32 8c 43 40
        e 16 9c 41 7f
        e 48 8c 41 40
        e 16 9c 3c 6c
        e 0 9c 40 7f
        e 80 8c 3c 40
        e 48 8c 40 40
        e 16 9c 41 7f
        e 32 8c 41 40
        e 16 9c 3c 6c
        e 0 9c 40 6c
        e 0 9c 43 7f
        e 48 8c 43 40
        e 16 9c 41 7f
        e 16 8c 3c 40
        e 0 8c 40 40
        e 32 8c 41 40
        e 16 9c 40 7f
        e 48 8c 40 40
        e 16 9c 3b 6c
        e 0 9c 3e 7f
        e 0 9c 43 6c
        e 80 8c 3b 40
        e 0 8c 43 40
        e 16 9c 3b 6c
        e 0 9c 43 6c
        e 32 8c 3b 40
        e 0 8c 43 40
        e 16 9c 3b 6c
        e 0 9c 43 6c
        e 32 8c 3e 40
        e 0 8c 3b 40
        e 0 8c 43 40
        e 16 9c 3b 6c
        e 0 9c 3e 6c
        e 0 9c 43 6c
        e 80 8c 3b 40
        e 0 8c 3e 40
        e 0 8c 43 40
        e 16 9c 3b 6c
        e 0 9c 3e 6c
        e 0 9c 43 6c
        e 80 8c 3b 40
        e 0 8c 3e 40
        e 0 8c 43 40
        e 16 9c 3b 6c
        e 0 9c 3e 6c
        e 0 9c 43 6c
        e 80 8c 3b 40
        e 0 8c 3e 40
        e 0 8c 43 40
        e 112 9c 43 7f
        e 128 8c 43 40
        e 16 9c 48 7f
        e 32 8c 48 40
        e 16 9c 40 6c
        e 0 9c 48 7f
        e 128 8c 40 40
        e 0 8c 48 40
        e 16 9c 43 6c
        e 0 9c 47 7f
        e 32 8c 43 40
        e 0 8c 47 40
        e 16 9c 43 6c
        e 0 9c 47 7f
        e 128 8c 43 40
        e 0 8c 47 40
        e 16 9c 41 6c
        e 0 9c 45 7f
        e 32 8c 41 40
        e 0 8c 45 40
        e 16 9c 41 6c
        e 0 9c 45 7f
        e 128 8c 41 40
        e 0 8c 45 40
        e 16 9c 40 6c
        e 0 9c 43 7f
        e 32 8c 40 40
        e 0 8c 43 40
        e 16 9c 40 6c
        e 0 9c 43 7f
        e 128 8c 40 40
        e 0 8c 43 40
        e 16 9c 3f 6c
        e 0 9c 42 7f
        e 32 8c 3f 40
        e 0 8c 42 40
        e 16 9c 40 6c
        e 0 9c 43 7f
        e 272 8c 40 40
        e 0 8c 43 40
        e 16 9c 3e 6c
        e 0 9c 41 7f
        e 80 8c 3e 40
        e 0 8c 41 40
        e 16 9c 3c 6c
        e 0 9c 40 7f
        e 176 8c 3c 40
        e 0 8c 40 40
        e 16 9c 3c 6c
        e 0 9c 40 6c
        e 0 9c 43 7f
        e 128 8c 3c 40
        e 0 8c 40 40
        e 0 8c 43 40
        e 16 9c 3c 6c
        e 0 9c 40 6c
        e 0 9c 48 7f
        e 32 8c 3c 40
        e 0 8c 40 40
        e 0 8c 48 40
        e 16 9c 3b 6c
        e 0 9c 3e 6c
        e 0 9c 43 6c
        e 0 9c 47 7f
        e 80 8c 3b 40
        e 0 8c 3e 40
        e 0 8c 43 40
        e 48 8c 47 40
        e 16 9c 46 7f
        e 32 8c 46 40
        e 16 9c 3b 6c
        e 0 9c 3e 6c
        e 0 9c 43 6c
        e 0 9c 47 7f
        e 80 8c 3b 40
        e 0 8c 3e 40
        e 0 8c 43 40
        e 48 8c 47 40
        e 16 9c 48 7f
        e 32 8c 48 40
        e 16 9c 39 6c
        e 0 9c 3e 6c
        e 0 9c 42 6c
        e 0 9c 45 7f
        e 80 8c 39 40
        e 0 8c 3e 40
        e 0 8c 42 40
        e 48 8c 45 40
        e 16 9c 44 7f
        e 32 8c 44 40
        e 16 9c 39 6c
        e 0 9c 3e 6c
        e 0 9c 42 6c
        e 0 9c 45 7f
        e 80 8c 39 40
        e 0 8c 3e 40
        e 0 8c 42 40
        e 48 8c 45 40
        e 16 9c 47 7f
        e 32 8c 47 40
        e 16 9c 3b 6c
        e 0 9c 3e 6c
        e 0 9c 43 7f
        e 176 8c 3b 40
        e 0 8c 3e 40
        e 16 9c 3b 6c
        e 0 9c 3e 6c
        e 128 8c 3b 40
        e 0 8c 3e 40
        e 16 9c 3b 6c
        e 0 9c 3e 6c
        e 32 8c 43 40
        e 0 8c 3b 40
        e 0 8c 3e 40
        e 16 9c 3b 6c
        e 0 9c 3e 6c
        e 0 9c 43 6c
        e 176 8c 3b 40
        e 0 8c 3e 40
        e 0 8c 43 40
        e 16 9c 43 7f
        e 128 8c 43 40
        e 16 9c 43 7f
        e 32 8c 43 40
        e 16 9c 3f 6c
        e 0 9c 43 7f
        e 80 8c 3f 40
        e 16 9c 3a 6c
        e 80 8c 43 40
        e 0 8c 3a 40
        e 16 9c 3f 6c
        e 0 9c 43 7f
        e 80 8c 3f 40
        e 16 9c 3a 6c
        e 32 8c 43 40
        e 16 9c 43 7f
        e 32 8c 3a 40
        e 0 8c 43 40
        e 16 9c 41 6c
        e 0 9c 44 7f
        e 80 8c 41 40
        e 0 8c 44 40
        e 16 9c 3f 6c
        e 0 9c 43 7f
        e 80 8c 3f 40
        e 0 8c 43 40
        e 16 9c 3e 6c
        e 0 9c 41 7f
        e 80 8c 3e 40
        e 0 8c 41 40
        e 16 9c 3f 6c
        e 0 9c 43 7f
        e 80 8c 3f 40
        e 0 8c 43 40
        e 16 9c 41 6c
        e 0 9c 44 7f
        e 80 8c 41 40
        e 16 9c 3a 6c
        e 80 8c 3a 40
        e 16 9c 41 6c
        e 80 8c 44 40
        e 0 8c 41 40
        e 16 9c 3a 6c
        e 0 9c 43 7f
        e 80 8c 3a 40
        e 0 8c 43 40
        e 16 9c 3e 6c
        e 0 9c 41 7f
        e 80 8c 3e 40
        e 16 9c 3a 6c
        e 80 8c 41 40
        e 0 8c 3a 40
        e 16 9c 3e 6c
        e 0 9c 41 6c
        e 0 9c 44 7f
        e 80 8c 3e 40
        e 0 8c 41 40
        e 16 9c 3a 6c
        e 32 8c 44 40
        e 16 9c 44 7f
        e 32 8c 3a 40
        e 0 8c 44 40
        e 16 9c 41 6c
        e 0 9c 44 7f
        e 80 8c 41 40
        e 16 9c 3a 6c
        e 80 8c 44 40
        e 0 8c 3a 40
        e 16 9c 41 6c
        e 0 9c 44 7f
        e 80 8c 41 40
        e 16 9c 3a 6c
        e 32 8c 44 40
        e 16 9c 44 7f
        e 32 8c 3a 40
        e 0 8c 44 40
        e 16 9c 43 6c
        e 0 9c 46 7f
        e 80 8c 43 40
        e 0 8c 46 40
        e 16 9c 41 6c
        e 0 9c 44 7f
        e 80 8c 41 40
        e 0 8c 44 40
        e 16 9c 3f 6c
        e 0 9c 43 7f
        e 80 8c 3f 40
        e 0 8c 43 40
        e 16 9c 41 6c
        e 0 9c 44 7f
        e 80 8c 41 40
        e 0 8c 44 40
        e 16 9c 43 6c
        e 0 9c 46 7f
        e 80 8c 43 40
        e 16 9c 3a 6c
        e 80 8c 3a 40
        e 16 9c 43 6c
        e 80 8c 43 40
        e 16 9c 41 6c
        e 0 9c 44 6c
        e 80 8c 46 40
        e 0 8c 41 40
        e 0 8c 44 40
        e 16 9c 3f 6c
        e 0 9c 43 6c
        e 80 8c 3f 40
        e 0 8c 43 40
        e 16 9c 3a 6c
        e 80 8c 3a 40
        e 16 9c 3f 6c
        e 0 9c 43 7f
        e 80 8c 3f 40
        e 16 9c 3a 6c
        e 32 8c 43 40
        e 16 9c 43 7f
        e 32 8c 3a 40
        e 0 8c 43 40
        e 16 9c 3c 6c
        e 0 9c 3f 6c
        e 0 9c 48 7f
        e 176 8c 3c 40
        e 0 8c 3f 40
        e 0 8c 48 40
        e 16 9c 3c 6c
        e 0 9c 3f 6c
        e 0 9c 48 7f
        e 128 8c 3c 40
        e 0 8c 3f 40
        e 0 8c 48 40
        e 16 9c 3c 6c
        e 0 9c 3f 6c
        e 0 9c 48 7f
        e 32 8c 3c 40
        e 0 8c 3f 40
        e 0 8c 48 40
        e 16 9c 3c 6c
        e 0 9c 3f 6c
        e 0 9c 48 7f
        e 48 8c 48 40
        e 16 9c 46 7f
        e 48 8c 46 40
        e 16 9c 44 7f
        e 48 8c 3c 40
        e 0 8c 3f 40
        e 0 8c 44 40
        e 16 9c 3c 6c
        e 0 9c 3f 6c
        e 0 9c 42 6c
        e 0 9c 44 7f
        e 48 8c 44 40
        e 16 9c 43 7f
        e 48 8c 43 40
        e 16 8c 42 40
        e 0 9c 42 7f
        e 48 8c 3c 40
        e 0 8c 3f 40
        e 0 8c 42 40
        e 16 9c 3b 6c
        e 0 9c 3e 6c
        e 0 9c 43 7f
        e 176 8c 3b 40
        e 0 8c 3e 40
        e 16 9c 3b 6c
        e 0 9c 3e 6c
        e 128 8c 3b 40
        e 0 8c 3e 40
        e 16 9c 3b 6c
        e 0 9c 3e 6c
        e 32 8c 43 40
        e 0 8c 3b 40
        e 0 8c 3e 40
        e 16 9c 3b 6c
        e 0 9c 3e 6c
        e 0 9c 43 6c
        e 176 8c 3b 40
        e 0 8c 3e 40
        e 0 8c 43 40
        e 16 9c 3c 6c
        e 0 9c 40 7f
        e 128 8c 3c 40
        e 0 8c 40 40
        e 16 9c 3c 6c
        e 0 9c 40 7f
        e 32 8c 3c 40
        e 0 8c 40 40
        e 16 9c 3c 6c
        e 0 9c 40 7f
        e 128 8c 3c 40
        e 0 8c 40 40
        e 16 9c 3b 6c
        e 0 9c 3e 7f
        e 32 8c 3b 40
        e 0 8c 3e 40
        e 16 9c 3c 6c
        e 0 9c 40 7f
        e 128 8c 3c 40
        e 0 8c 40 40
        e 16 9c 3b 6c
        e 0 9c 3e 7f
        e 32 8c 3b 40
        e 0 8c 3e 40
        e 16 9c 3c 6c
        e 0 9c 40 7f
        e 128 8c 3c 40
        e 0 8c 40 40
        e 16 9c 3b 6c
        e 0 9c 3e 7f
        e 32 8c 3b 40
        e 0 8c 3e 40
        e 16 9c 3c 6c
        e 0 9c 40 7f
        e 128 8c 3c 40
        e 0 8c 40 40
        e 16 9c 3e 6c
        e 0 9c 41 7f
        e 32 8c 3e 40
        e 0 8c 41 40
        e 16 9c 40 6c
        e 0 9c 43 7f
        e 176 8c 40 40
        e 0 8c 43 40
        e 16 9c 41 6c
        e 0 9c 45 7f
        e 368 8c 41 40
        e 0 8c 45 40
        e 16 9c 3b 6c
        e 0 9c 3e 7f
        e 128 8c 3b 40
        e 0 8c 3e 40
        e 16 9c 3b 6c
        e 0 9c 3e 7f
        e 32 8c 3b 40
        e 0 8c 3e 40
        e 16 9c 3b 6c
        e 0 9c 3e 7f
        e 128 8c 3b 40
        e 0 8c 3e 40
        e 16 9c 39 6c
        e 0 9c 3c 7f
        e 32 8c 39 40
        e 0 8c 3c 40
        e 16 9c 3b 6c
        e 0 9c 3e 7f
        e 128 8c 3b 40
        e 0 8c 3e 40
        e 16 9c 39 6c
        e 0 9c 3c 7f
        e 32 8c 39 40
        e 0 8c 3c 40
        e 16 9c 3b 6c
        e 0 9c 3e 7f
        e 128 8c 3b 40
        e 0 8c 3e 40
        e 16 9c 3c 6c
        e 0 9c 40 7f
        e 32 8c 3c 40
        e 0 8c 40 40
        e 16 9c 3e 6c
        e 0 9c 41 7f
        e 128 8c 3e 40
        e 0 8c 41 40
        e 16 9c 3f 6c
        e 0 9c 42 7f
        e 32 8c 3f 40
        e 0 8c 42 40
        e 16 9c 41 6c
        e 0 9c 45 7f
        e 176 8c 41 40
        e 0 8c 45 40
        e 16 9c 40 6c
        e 0 9c 43 7f
        e 80 8c 40 40
        e 0 8c 43 40
        e 112 9c 45 7f
        e 80 8c 45 40
        e 64 9c 47 7f
        e 32 8c 47 40
        e 16 9c 3c 6c
        e 0 9c 41 6c
        e 0 9c 45 6c
        e 0 9c 48 7f
        e 48 8c 48 40
        e 16 9c 47 7f
        e 48 8c 47 40
        e 16 8c 45 40
        e 0 9c 45 7f
        e 48 8c 3c 40
        e 0 8c 41 40
        e 0 8c 45 40
        e 16 9c 47 7f
        e 128 8c 47 40
        e 16 9c 45 7f
        e 32 8c 45 40
        e 16 9c 3c 6c
        e 0 9c 40 6c
        e 0 9c 43 7f
        e 128 8c 43 40
        e 16 9c 43 7f
        e 32 8c 3c 40
        e 0 8c 40 40
        e 0 8c 43 40
        e 16 9c 41 7f
        e 128 8c 41 40
        e 16 9c 43 7f
        e 32 8c 43 40
        e 16 9c 3b 6c
        e 0 9c 3e 6c
        e 0 9c 41 6c
        e 0 9c 45 7f
        e 48 8c 45 40
        e 16 9c 43 7f
        e 48 8c 43 40
        e 16 8c 41 40
        e 0 9c 41 7f
        e 48 8c 3b 40
        e 0 8c 3e 40
        e 0 8c 41 40
        e 16 9c 43 7f
        e 176 8c 43 40
        e 16 9c 3c 6c
        e 0 9c 40 7f
        e 176 8c 3c 40
        e 0 8c 40 40
        e 16 9c 41 6c
        e 0 9c 45 7f
        e 128 8c 41 40
        e 0 8c 45 40
        e 16 9c 43 6c
        e 0 9c 47 7f
        e 32 8c 43 40
        e 0 8c 47 40
        e 16 9c 45 6c
        e 0 9c 48 7f
        e 48 8c 45 40
        e 0 8c 48 40
        e 16 9c 43 6c
        e 0 9c 47 7f
        e 48 8c 43 40
        e 0 8c 47 40
        e 16 9c 41 6c
        e 0 9c 45 7f
        e 48 8c 41 40
        e 0 8c 45 40
        e 16 9c 40 6c
        e 0 9c 43 7f
        e 128 8c 40 40
        e 0 8c 43 40
        e 16 9c 45 6c
        e 0 9c 48 7f
        e 32 8c 45 40
        e 0 8c 48 40
        e 16 9c 45 6c
        e 0 9c 48 7f
        e 48 8c 45 40
        e 0 8c 48 40
        e 16 9c 43 6c
        e 0 9c 47 7f
        e 48 8c 43 40
        e 0 8c 47 40
        e 16 9c 41 6c
        e 0 9c 45 7f
        e 48 8c 41 40
        e 0 8c 45 40
        e 16 9c 41 6c
        e 0 9c 45 7f
        e 48 8c 41 40
        e 0 8c 45 40
        e 16 9c 40 6c
        e 0 9c 43 7f
        e 48 8c 40 40
        e 0 8c 43 40
        e 14 9c 41 7f
        e 2 9c 3e 6c
        e 46 8c 41 40
        e 2 8c 3e 40
        e 16 9c 3e 6c
        e 0 9c 41 7f
        e 48 8c 3e 40
        e 0 8c 41 40
        e 16 9c 3c 6c
        e 0 9c 40 7f
        e 48 8c 3c 40
        e 0 8c 40 40
        e 16 9c 37 6c
        e 0 9c 3b 6c
        e 0 9c 3e 7f
        e 48 8c 37 40
        e 0 8c 3b 40
        e 0 8c 3e 40
        e 16 9c 34 6c
        e 0 9c 3c 7f
        e 80 8c 34 40
        e 16 9c 40 6c
        e 32 8c 40 40
        e 16 9c 40 6c
        e 32 8c 3c 40
        e 0 8c 40 40
        e 16 9c 40 6c
        e 80 8c 40 40
        e 16 9c 40 6c
        e 32 8c 40 40
        e 64 9c 40 6c
        e 80 8c 40 40
        e 16 9c 40 6c
        e 32 8c 40 40
        e 64 9c 40 6c
        e 80 8c 40 40
        e 16 9c 40 6c
        e 32 8c 40 40
        e 64 9c 47 7f
        e 0 9c 4c 6c
        e 32 8c 4c 40
        e 16 9c 50 6c
        e 32 8c 50 40
        e 16 9c 4c 6c
        e 32 8c 4c 40
        e 16 9c 50 6c
        e 32 8c 50 40
        e 16 9c 4c 6c
        e 32 8c 4c 40
        e 16 9c 50 6c
        e 32 8c 50 40
        e 16 9c 4c 6c
        e 32 8c 4c 40
        e 16 9c 50 6c
        e 32 8c 50 40
        e 16 9c 4c 6c
        e 32 8c 4c 40
        e 16 9c 50 6c
        e 32 8c 50 40
        e 16 9c 4c 6c
        e 32 8c 4c 40
        e 16 9c 50 6c
        e 32 8c 47 40
        e 0 8c 50 40
        e 16 9c 48 7f
        e 0 9c 4c 6c
        e 32 8c 4c 40
        e 16 9c 51 6c
        e 32 8c 51 40
        e 16 9c 4c 6c
        e 32 8c 4c 40
        e 16 9c 51 6c
        e 32 8c 48 40
        e 0 8c 51 40
        e 16 9c 4a 7f
        e 0 9c 4c 6c
        e 32 8c 4c 40
        e 16 9c 53 6c
        e 32 8c 53 40
        e 16 9c 4c 6c
        e 32 8c 4c 40
        e 16 9c 53 6c
        e 32 8c 53 40
        e 16 9c 4c 6c
        e 32 8c 4c 40
        e 16 9c 53 6c
        e 32 8c 53 40
        e 16 9c 4c 6c
        e 32 8c 4c 40
        e 16 9c 53 6c
        e 32 8c 4a 40
        e 0 8c 53 40
        e 16 9c 4a 7f
        e 0 9c 4c 6c
        e 32 8c 4c 40
        e 16 9c 53 6c
        e 32 8c 53 40
        e 16 9c 4c 6c
        e 32 8c 4c 40
        e 16 9c 53 6c
        e 32 8c 4a 40
        e 0 8c 53 40
        e 16 9c 47 7f
        e 0 9c 4c 6c
        e 32 8c 4c 40
        e 16 9c 50 6c
        e 32 8c 50 40
        e 16 9c 4c 6c
        e 32 8c 4c 40
        e 16 9c 50 6c
        e 32 8c 47 40
        e 0 8c 50 40
        e 16 9c 48 7f
        e 0 9c 4c 6c
        e 32 8c 4c 40
        e 16 9c 51 6c
        e 32 8c 51 40
        e 16 9c 4c 6c
        e 32 8c 4c 40
        e 16 9c 51 6c
        e 32 8c 51 40
        e 16 9c 4c 6c
        e 32 8c 4c 40
        e 16 9c 51 6c
        e 32 8c 51 40
        e 16 9c 4c 6c
        e 32 8c 4c 40
        e 16 9c 51 6c
        e 32 8c 48 40
        e 0 8c 51 40
        e 16 9c 48 7f
        e 0 9c 51 6c
        e 128 8c 48 40
        e 0 8c 51 40
        e 16 9c 47 7f
        e 0 9c 50 6c
        e 32 8c 47 40
        e 0 8c 50 40
        e 16 9c 48 7f
        e 0 9c 51 6c
        e 128 8c 48 40
        e 0 8c 51 40
        e 16 9c 4a 7f
        e 0 9c 53 6c
        e 32 8c 4a 40
        e 0 8c 53 40
        e 16 9c 47 7f
        e 0 9c 50 6c
        e 96 9c 40 6c
        e 0 9c 4c 6c
        e 32 8c 50 40
        e 0 8c 40 40
        e 0 8c 4c 40
        e 16 9c 40 6c
        e 0 9c 4c 6c
        e 32 8c 47 40
        e 0 8c 40 40
        e 0 8c 4c 40
        e 16 9c 40 6c
        e 0 9c 47 7f
        e 0 9c 4c 6c
        e 80 8c 40 40
        e 0 8c 4c 40
        e 16 9c 40 6c
        e 0 9c 4c 6c
        e 80 8c 47 40
        e 0 8c 40 40
        e 0 8c 4c 40
        e 16 9c 40 6c
        e 0 9c 4c 6c
        e 80 8c 40 40
        e 0 8c 4c 40
        e 16 9c 40 6c
        e 0 9c 4c 6c
        e 32 8c 40 40
        e 0 8c 4c 40
        e 16 9c 40 6c
        e 0 9c 4c 6c
        e 32 8c 40 40
        e 0 8c 4c 40
        e 16 9c 40 6c
        e 0 9c 4c 6c
        e 80 8c 40 40
        e 0 8c 4c 40
        e 16 9c 40 6c
        e 0 9c 4c 6c
        e 80 8c 40 40
        e 0 8c 4c 40
        e 16 9c 47 7f
        e 48 9c 4c 6c
        e 32 8c 4c 40
        e 16 9c 50 6c
        e 32 8c 50 40
        e 16 9c 4c 6c
        e 32 8c 4c 40
        e 64 9c 4c 6c
        e 32 8c 4c 40
        e 16 9c 50 6c
        e 32 8c 50 40
        e 16 9c 4c 6c
        e 32 8c 4c 40
        e 64 9c 4c 6c
        e 32 8c 4c 40
        e 16 9c 50 6c
        e 32 8c 50 40
        e 16 9c 4c 6c
        e 32 8c 47 40
        e 0 8c 4c 40
        e 16 9c 48 7f
        e 48 9c 4c 6c
        e 32 8c 4c 40
        e 16 9c 51 6c
        e 32 8c 51 40
        e 16 9c 4c 6c
        e 32 8c 48 40
        e 0 8c 4c 40
        e 16 9c 4a 7f
        e 48 9c 4c 6c
        e 32 8c 4c 40
        e 16 9c 53 6c
        e 32 8c 53 40
        e 16 9c 4c 6c
        e 32 8c 4c 40
        e 64 9c 4c 6c
        e 32 8c 4c 40
        e 16 9c 53 6c
        e 32 8c 53 40
        e 16 9c 4c 6c
        e 32 8c 4a 40
        e 0 8c 4c 40
        e 16 9c 4a 7f
        e 48 9c 4c 6c
        e 32 8c 4c 40
        e 16 9c 53 6c
        e 32 8c 53 40
        e 16 9c 4c 6c
        e 32 8c 4a 40
        e 0 8c 4c 40
        e 16 9c 47 7f
        e 48 9c 4c 6c
        e 32 8c 4c 40
        e 16 9c 50 6c
        e 32 8c 50 40
        e 16 9c 4c 6c
        e 32 8c 47 40
        e 0 8c 4c 40
        e 16 9c 48 7f
        e 48 9c 4c 6c
        e 32 8c 4c 40
        e 16 9c 51 6c
        e 32 8c 51 40
        e 16 9c 4c 6c
        e 32 8c 4c 40
        e 64 9c 4c 6c
        e 32 8c 4c 40
        e 16 9c 51 6c
        e 32 8c 51 40
        e 16 9c 4c 6c
        e 32 8c 48 40
        e 0 8c 4c 40
        e 16 9c 48 7f
        e 48 9c 4b 6c
        e 32 8c 4b 40
        e 16 9c 51 6c
        e 32 8c 48 40
        e 0 8c 51 40
        e 16 9c 47 7f
        e 0 9c 4b 6c
        e 32 8c 47 40
        e 0 8c 4b 40
        e 16 9c 48 7f
        e 48 9c 4b 6c
        e 32 8c 4b 40
        e 16 9c 51 6c
        e 32 8c 48 40
        e 0 8c 51 40
        e 16 9c 4a 7f
        e 0 9c 4b 6c
        e 32 8c 4a 40
        e 0 8c 4b 40
        e 16 9c 47 7f
        e 0 9c 4c 6c
        e 0 9c 50 6c
        e 80 8c 4c 40
        e 0 8c 50 40
        e 16 9c 40 6c
        e 0 9c 44 6c
        e 0 9c 4c 6c
        e 32 8c 40 40
        e 0 8c 44 40
        e 0 8c 4c 40
        e 16 9c 40 6c
        e 0 9c 44 6c
        e 0 9c 4c 6c
        e 32 8c 47 40
        e 0 8c 40 40
        e 0 8c 44 40
        e 0 8c 4c 40
        e 16 9c 40 6c
        e 0 9c 44 6c
        e 0 9c 47 6c
        e 0 9c 4c 6c
        e 80 8c 40 40
        e 0 8c 44 40
        e 0 8c 47 40
        e 0 8c 4c 40
        e 16 9c 40 6c
        e 0 9c 44 6c
        e 0 9c 47 6c
        e 0 9c 4c 6c
        e 80 8c 40 40
        e 0 8c 44 40
        e 0 8c 47 40
        e 0 8c 4c 40
        e 16 9c 40 6c
        e 0 9c 44 6c
        e 0 9c 47 6c
        e 0 9c 4c 6c
        e 176 8c 40 40
        e 0 8c 44 40
        e 0 8c 47 40
        e 0 8c 4c 40
        e 16 9c 3c 6c
        e 0 9c 40 7f
        e 128 8c 3c 40
        e 0 8c 40 40
        e 16 9c 3e 6c
        e 0 9c 41 7f
        e 32 8c 3e 40
        e 0 8c 41 40
        e 16 9c 40 6c
        e 0 9c 43 7f
        e 80 8c 40 40
        e 16 9c 40 6c
        e 32 8c 40 40
        e 16 9c 40 6c
        e 32 8c 43 40
        e 0 8c 40 40
        e 16 9c 40 6c
        e 0 9c 43 7f
        e 128 8c 40 40
        e 0 8c 43 40
        e 16 9c 41 6c
        e 0 9c 45 7f
        e 32 8c 41 40
        e 0 8c 45 40
        e 16 9c 43 6c
        e 0 9c 46 7f
        e 80 8c 43 40
        e 16 9c 43 6c
        e 32 8c 43 40
        e 16 9c 43 6c
        e 32 8c 46 40
        e 0 8c 43 40
        e 16 9c 43 6c
        e 0 9c 46 7f
        e 128 8c 43 40
        e 0 8c 46 40
        e 16 9c 43 6c
        e 0 9c 46 7f
        e 32 8c 43 40
        e 0 8c 46 40
        e 16 9c 43 6c
        e 0 9c 46 7f
        e 80 8c 43 40
        e 16 9c 43 6c
        e 32 8c 43 40
        e 16 9c 43 6c
        e 32 8c 46 40
        e 0 8c 43 40
        e 16 9c 41 6c
        e 0 9c 45 7f
        e 80 8c 41 40
        e 16 9c 41 6c
        e 80 8c 45 40
        e 0 8c 41 40
        e 16 9c 41 6c
        e 0 9c 45 6c
        e 176 8c 41 40
        e 0 8c 45 40
        e 16 9c 3e 6c
        e 0 9c 42 7f
        e 128 8c 3e 40
        e 0 8c 42 40
        e 16 9c 40 6c
        e 0 9c 43 7f
        e 32 8c 40 40
        e 0 8c 43 40
        e 16 9c 42 6c
        e 0 9c 45 7f
        e 80 8c 42 40
        e 16 9c 42 6c
        e 32 8c 42 40
        e 16 9c 42 6c
        e 32 8c 45 40
        e 0 8c 42 40
        e 16 9c 42 6c
        e 0 9c 45 7f
        e 128 8c 42 40
        e 0 8c 45 40
        e 16 9c 43 6c
        e 0 9c 47 7f
        e 32 8c 43 40
        e 0 8c 47 40
        e 16 9c 45 6c
        e 0 9c 48 7f
        e 80 8c 45 40
        e 16 9c 45 6c
        e 32 8c 45 40
        e 16 9c 45 6c
        e 32 8c 48 40
        e 0 8c 45 40
        e 16 9c 45 6c
        e 0 9c 48 7f
        e 128 8c 45 40
        e 0 8c 48 40
        e 16 9c 45 6c
        e 0 9c 48 7f
        e 32 8c 45 40
        e 0 8c 48 40
        e 16 9c 43 6c
        e 0 9c 47 7f
        e 80 8c 43 40
        e 16 9c 43 6c
        e 32 8c 43 40
        e 16 9c 43 6c
        e 32 8c 43 40
        e 16 9c 43 6c
        e 80 8c 43 40
        e 16 9c 43 6c
        e 80 8c 47 40
        e 0 8c 43 40
        e 16 9c 43 6c
        e 0 9c 47 6c
        e 176 8c 43 40
        e 0 8c 47 40
        e 16 9c 47 7f
        e 0 9c 4f 6c
        e 0 9c 53 6c
        e 128 8c 47 40
        e 0 8c 4f 40
        e 0 8c 53 40
        e 16 9c 47 7f
        e 0 9c 4f 6c
        e 0 9c 53 6c
        e 32 8c 47 40
        e 0 8c 4f 40
        e 0 8c 53 40
        e 16 9c 47 7f
        e 0 9c 4f 6c
        e 0 9c 53 6c
        e 128 8c 47 40
        e 0 8c 4f 40
        e 0 8c 53 40
        e 16 9c 45 7f
        e 0 9c 4d 6c
        e 0 9c 51 6c
        e 32 8c 45 40
        e 0 8c 4d 40
        e 0 8c 51 40
        e 16 9c 47 7f
        e 0 9c 4f 6c
        e 0 9c 53 6c
        e 128 8c 47 40
        e 0 8c 4f 40
        e 0 8c 53 40
        e 16 9c 45 7f
        e 0 9c 4d 6c
        e 0 9c 51 6c
        e 32 8c 45 40
        e 0 8c 4d 40
        e 0 8c 51 40
        e 16 9c 45 7f
        e 0 9c 4d 6c
        e 0 9c 51 6c
        e 128 8c 45 40
        e 0 8c 4d 40
        e 0 8c 51 40
        e 16 9c 43 7f
        e 0 9c 4c 6c
        e 0 9c 4f 6c
        e 32 8c 43 40
        e 0 8c 4c 40
        e 0 8c 4f 40
        e 16 9c 45 7f
        e 0 9c 4d 6c
        e 0 9c 51 6c
        e 128 8c 45 40
        e 0 8c 4d 40
        e 0 8c 51 40
        e 16 9c 43 7f
        e 0 9c 4c 6c
        e 0 9c 4f 6c
        e 32 8c 43 40
        e 0 8c 4c 40
        e 0 8c 4f 40
        e 16 9c 45 7f
        e 0 9c 4d 6c
        e 0 9c 51 6c
        e 272 8c 45 40
        e 0 8c 4d 40
        e 0 8c 51 40
        e 16 9c 43 7f
        e 0 9c 4c 6c
        e 0 9c 4f 6c
        e 80 8c 43 40
        e 0 8c 4c 40
        e 0 8c 4f 40
        e 16 9c 40 7f
        e 0 9c 48 6c
        e 0 9c 4c 6c
        e 176 8c 40 40
        e 0 8c 48 40
        e 0 8c 4c 40
        e 16 9c 48 7f
        e 0 9c 54 6c
        e 128 8c 48 40
        e 0 8c 54 40
        e 16 9c 47 7f
        e 0 9c 4f 6c
        e 0 9c 53 6c
        e 32 8c 47 40
        e 0 8c 4f 40
        e 0 8c 53 40
        e 16 9c 47 7f
        e 0 9c 4f 6c
        e 0 9c 53 6c
        e 128 8c 47 40
        e 0 8c 4f 40
        e 0 8c 53 40
        e 16 9c 45 7f
        e 0 9c 4d 6c
        e 0 9c 51 6c
        e 32 8c 45 40
        e 0 8c 4d 40
        e 0 8c 51 40
        e 16 9c 47 7f
        e 0 9c 4f 6c
        e 0 9c 53 6c
        e 128 8c 47 40
        e 0 8c 4f 40
        e 0 8c 53 40
        e 16 9c 45 7f
        e 0 9c 4d 6c
        e 0 9c 51 6c
        e 32 8c 45 40
        e 0 8c 4d 40
        e 0 8c 51 40
        e 16 9c 45 7f
        e 0 9c 4d 6c
        e 0 9c 51 6c
        e 128 8c 45 40
        e 0 8c 4d 40
        e 0 8c 51 40
        e 16 9c 43 7f
        e 0 9c 4c 6c
        e 0 9c 4f 6c
        e 32 8c 43 40
        e 0 8c 4c 40
        e 0 8c 4f 40
        e 16 9c 45 7f
        e 0 9c 4d 6c
        e 0 9c 51 6c
        e 128 8c 45 40
        e 0 8c 4d 40
        e 0 8c 51 40
        e 16 9c 43 7f
        e 0 9c 4c 6c
        e 0 9c 4f 6c
        e 32 8c 43 40
        e 0 8c 4c 40
        e 0 8c 4f 40
        e 16 9c 40 7f
        e 0 9c 48 6c
        e 0 9c 4c 6c
        e 80 8c 48 40
        e 0 8c 4c 40
        e 16 9c 3c 6c
        e 0 9c 48 6c
        e 32 8c 3c 40
        e 0 8c 48 40
        e 16 9c 3c 6c
        e 0 9c 48 6c
        e 32 8c 40 40
        e 0 8c 3c 40
        e 0 8c 48 40
        e 16 9c 3c 7f
        e 0 9c 48 6c
        e 80 8c 3c 40
        e 0 8c 48 40
        e 16 9c 3e 7f
        e 0 9c 4a 6c
        e 80 8c 3e 40
        e 0 8c 4a 40
        e 16 9c 40 7f
        e 0 9c 4c 6c
        e 80 8c 40 40
        e 0 8c 4c 40
        e 16 9c 41 7f
        e 0 9c 4d 6c
        e 80 8c 41 40
        e 0 8c 4d 40
        e 16 9c 43 7f
        e 0 9c 4f 6c
        e 80 8c 43 40
        e 0 8c 4f 40
        e 16 9c 45 7f
        e 0 9c 51 6c
        e 80 8c 45 40
        e 0 8c 51 40
        e 16 9c 46 7f
        e 0 9c 52 6c
        e 80 8c 52 40
        e 16 9c 40 6c
        e 0 9c 43 6c
        e 0 9c 49 6c
        e 32 8c 40 40
        e 0 8c 43 40
        e 0 8c 49 40
        e 16 9c 40 6c
        e 0 9c 43 6c
        e 0 9c 49 6c
        e 32 8c 40 40
        e 0 8c 43 40
        e 0 8c 49 40
        e 16 9c 40 6c
        e 0 9c 43 6c
        e 0 9c 49 6c
        e 128 8c 40 40
        e 0 8c 43 40
        e 0 8c 49 40
        e 16 9c 40 6c
        e 0 9c 43 6c
        e 0 9c 49 6c
        e 32 8c 46 40
        e 0 8c 40 40
        e 0 8c 43 40
        e 0 8c 49 40
        e 16 9c 41 6c
        e 0 9c 45 6c
        e 0 9c 4a 7f
        e 176 8c 41 40
        e 0 8c 45 40
        e 0 8c 4a 40
        e 16 9c 40 6c
        e 0 9c 43 6c
        e 0 9c 45 6c
        e 0 9c 49 7f
        e 176 8c 40 40
        e 0 8c 43 40
        e 0 8c 45 40
        e 0 8c 49 40
        e 16 9c 3e 6c
        e 0 9c 45 6c
        e 0 9c 4a 7f
        e 176 8c 3e 40
        e 0 8c 45 40
        e 0 8c 4a 40
        e 16 9c 3e 6c
        e 0 9c 45 6c
        e 0 9c 4a 7f
        e 176 8c 3e 40
        e 0 8c 45 40
        e 0 8c 4a 40
        e 208 9c 48 7f
        e 0 9c 4b 6c
        e 0 9c 51 6c
        e 128 8c 48 40
        e 0 8c 4b 40
        e 0 8c 51 40
        e 16 9c 48 7f
        e 0 9c 4b 6c
        e 0 9c 51 6c
        e 32 8c 48 40
        e 0 8c 4b 40
        e 0 8c 51 40
        e 16 9c 48 6c
        e 0 9c 4c 7f
        e 0 9c 4f 6c
        e 176 8c 48 40
        e 0 8c 4c 40
        e 0 8c 4f 40
        e 16 9c 43 6c
        e 0 9c 48 7f
        e 0 9c 4c 6c
        e 128 8c 43 40
        e 0 8c 48 40
        e 0 8c 4c 40
        e 16 9c 43 6c
        e 0 9c 48 7f
        e 0 9c 4c 6c
        e 32 8c 43 40
        e 0 8c 48 40
        e 0 8c 4c 40
        e 16 9c 43 6c
        e 0 9c 4a 7f
        e 0 9c 4d 6c
        e 176 8c 43 40
        e 0 8c 4a 40
        e 0 8c 4d 40
        e 16 9c 43 6c
        e 0 9c 47 7f
        e 0 9c 4a 6c
        e 128 8c 43 40
        e 0 8c 47 40
        e 0 8c 4a 40
        e 16 9c 43 6c
        e 0 9c 47 7f
        e 0 9c 4a 6c
        e 32 8c 43 40
        e 0 8c 47 40
        e 0 8c 4a 40
        e 16 9c 43 6c
        e 0 9c 48 7f
        e 0 9c 4c 6c
        e 176 8c 43 40
        e 0 8c 48 40
        e 0 8c 4c 40
        e 16 9c 34 6c
        e 48 8c 34 40
        e 16 9c 35 6c
        e 48 8c 35 40
        e 16 9c 37 6c
        e 48 8c 37 40
        e 16 9c 39 6c
        e 48 8c 39 40
        e 16 9c 3b 6c
        e 48 8c 3b 40
        e 16 9c 3c 6c
        e 48 8c 3c 40
        e 16 9c 3e 6c
        e 0 9c 48 7f
        e 48 8c 3e 40
        e 16 9c 40 6c
        e 48 8c 40 40
        e 16 8c 48 40
        e 0 9c 41 6c
        e 16 9c 48 7f
        e 30 8c 48 40
        e 2 8c 41 40
        e 16 9c 43 6c
        e 0 9c 48 7f
        e 80 8c 43 40
        e 16 9c 4c 6c
        e 0 9c 4d 6c
        e 0 9c 4f 6c
        e 0 9c 54 6c
        e 32 8c 4c 40
        e 0 8c 4d 40
        e 0 8c 4f 40
        e 0 8c 54 40
        e 16 9c 4c 6c
        e 0 9c 4f 6c
        e 0 9c 54 6c
        e 32 8c 48 40
        e 0 8c 4c 40
        e 0 8c 4f 40
        e 0 8c 54 40
        e 16 9c 48 7f
        e 0 9c 4c 6c
        e 0 9c 4f 6c
        e 0 9c 54 6c
        e 80 8c 4c 40
        e 0 8c 4f 40
        e 0 8c 54 40
        e 16 9c 4c 6c
        e 0 9c 4f 6c
        e 0 9c 54 6c
        e 32 8c 48 40
        e 16 9c 48 7f
        e 32 8c 4c 40
        e 0 8c 4f 40
        e 0 8c 54 40
        e 0 8c 48 40
        e 16 9c 4a 7f
        e 0 9c 4d 6c
        e 0 9c 4f 6c
        e 0 9c 53 6c
        e 80 8c 4d 40
        e 0 8c 4f 40
        e 0 8c 53 40
        e 16 9c 4d 6c
        e 0 9c 4f 6c
        e 0 9c 53 6c
        e 32 8c 4d 40
        e 0 8c 4f 40
        e 0 8c 53 40
        e 16 9c 4d 6c
        e 0 9c 4f 6c
        e 0 9c 53 6c
        e 32 8c 4a 40
        e 0 8c 4d 40
        e 0 8c 4f 40
        e 0 8c 53 40
        e 16 9c 47 7f
        e 0 9c 4a 6c
        e 0 9c 4d 6c
        e 0 9c 4f 6c
        e 0 9c 53 6c
        e 80 8c 4a 40
        e 0 8c 4d 40
        e 0 8c 4f 40
        e 0 8c 53 40
        e 16 9c 4a 6c
        e 0 9c 4d 6c
        e 0 9c 4f 6c
        e 0 9c 53 6c
        e 32 8c 47 40
        e 16 9c 47 7f
        e 30 8c 47 40
        e 2 8c 4a 40
        e 0 8c 4d 40
        e 0 8c 4f 40
        e 0 8c 53 40
        e 16 9c 48 7f
        e 0 9c 4c 6c
        e 0 9c 54 6c
        e 176 8c 48 40
        e 0 8c 4c 40
        e 0 8c 54 40
        e 16 9c 34 6c
        e 48 8c 34 40
        e 16 9c 35 6c
        e 48 8c 35 40
        e 16 9c 37 6c
        e 48 8c 37 40
        e 16 9c 39 6c
        e 48 8c 39 40
        e 16 9c 3b 6c
        e 48 8c 3b 40
        e 16 9c 3c 6c
        e 48 8c 3c 40
        e 16 9c 3e 6c
        e 0 9c 48 7f
        e 48 8c 3e 40
        e 16 9c 40 6c
        e 48 8c 40 40
        e 16 8c 48 40
        e 0 9c 41 6c
        e 16 9c 48 7f
        e 32 8c 41 40
        e 0 8c 48 40
        e 16 9c 43 6c
        e 0 9c 4c 7f
        e 80 8c 43 40
        e 16 9c 48 6c
        e 0 9c 54 6c
        e 32 8c 48 40
        e 0 8c 54 40
        e 16 9c 48 6c
        e 0 9c 4f 6c
        e 0 9c 54 6c
        e 30 8c 4c 40
        e 2 8c 48 40
        e 0 8c 4f 40
        e 0 8c 54 40
        e 16 9c 48 7f
        e 0 9c 4c 6c
        e 0 9c 4f 6c
        e 0 9c 54 6c
        e 80 8c 4c 40
        e 0 8c 4f 40
        e 0 8c 54 40
        e 16 9c 4c 6c
        e 0 9c 4f 6c
        e 0 9c 54 6c
        e 27 8c 48 40
        e 21 9c 48 7f
        e 32 8c 4c 40
        e 0 8c 4f 40
        e 0 8c 54 40
        e 0 8c 48 40
        e 16 9c 4a 7f
        e 0 9c 4d 6c
        e 0 9c 4f 6c
        e 0 9c 53 6c
        e 80 8c 4d 40
        e 0 8c 4f 40
        e 0 8c 53 40
        e 16 9c 4d 6c
        e 0 9c 4f 6c
        e 0 9c 53 6c
        e 32 8c 4d 40
        e 0 8c 4f 40
        e 0 8c 53 40
        e 16 9c 4d 6c
        e 0 9c 4f 6c
        e 0 9c 53 6c
        e 32 8c 4a 40
        e 0 8c 4d 40
        e 0 8c 4f 40
        e 0 8c 53 40
        e 16 9c 47 7f
        e 0 9c 4a 6c
        e 0 9c 4d 6c
        e 0 9c 4f 6c
        e 0 9c 53 6c
        e 80 8c 4a 40
        e 0 8c 4d 40
        e 0 8c 4f 40
        e 0 8c 53 40
        e 16 9c 4a 6c
        e 0 9c 4d 6c
        e 0 9c 4f 6c
        e 0 9c 53 6c
        e 32 8c 47 40
        e 16 9c 47 7f
        e 32 8c 4a 40
        e 0 8c 4d 40
        e 0 8c 4f 40
        e 0 8c 53 40
        e 0 8c 47 40
        e 16 9c 48 7f
        e 0 9c 4c 6c
        e 0 9c 4f 6c
        e 0 9c 54 6c
        e 176 8c 48 40
        e 0 8c 4c 40
        e 0 8c 4f 40
        e 0 8c 54 40
        e 16 9c 48 6c
        e 48 8c 48 40
        e 16 9c 43 6c
        e 48 8c 43 40
        e 16 9c 4c 6c
        e 48 8c 4c 40
        e 16 9c 48 6c
        e 48 8c 48 40
        e 16 9c 43 6c
        e 48 8c 43 40
        e 16 9c 4c 6c
        e 48 8c 4c 40
        e 16 9c 48 6c
        e 48 8c 48 40
        e 16 9c 43 6c
        e 48 8c 43 40
        e 16 9c 4c 6c
        e 48 8c 4c 40
        e 16 9c 48 6c
        e 48 8c 48 40
        e 16 9c 54 6c
        e 48 8c 54 40
        e 16 9c 53 6c
        e 48 8c 53 40
        e 16 9c 54 6c
        e 48 8c 54 40
        e 16 9c 4f 6c
        e 48 8c 4f 40
        e 16 9c 4c 6c
        e 48 8c 4c 40
        e 16 9c 48 6c
        e 48 8c 48 40
        e 16 9c 48 6c
        e 48 8c 48 40
        e 16 9c 47 6c
        e 48 8c 47 40
        e 16 9c 48 6c
        e 48 8c 48 40
        e 16 9c 43 6c
        e 48 8c 43 40
        e 16 9c 40 6c
        e 48 8c 40 40
        e 16 9c 3c 6c
        e 176 8c 3c 40
        e 16 9c 40 6c
        e 0 9c 43 6c
        e 0 9c 48 6c
        e 128 8c 40 40
        e 0 8c 43 40
        e 0 8c 48 40
        e 16 9c 40 6c
        e 0 9c 43 6c
        e 0 9c 48 6c
        e 32 8c 40 40
        e 0 8c 43 40
        e 0 8c 48 40
        e 16 9c 40 6c
        e 0 9c 43 6c
        e 0 9c 48 6c
        e 176 8c 40 40
        e 0 8c 43 40
        e 0 8c 48 40
        E 16 b0 7b 00
        GUID {044DFE4A-348A-1648-87B3-9ECE2324C939}
        IGNTEMPO 0 120 4 4
        SRCCOLOR 728
        VELLANE -1 86 6
        CFGEDITVIEW 28619.354567 52.566141 50 24 0 0 0 0 0 0.5
        KEYSNAP 0
        TRACKSEL 226
        EVTFILTER 0 -1 -1 -1 -1 0 1 0 0 -1 -1 -1 -1 0 -1 0 -1 -1
        CFGEDIT 1 0 0 0 0 0 1 0 1 1 1 0.25 16 63 1280 778 0 0 2 3 0 0 0 0 0 0.5 0 0 1 64
      >
      TAKE
      NAME "rh                   - National_Anthems_-_Chile.mid"
      TAKEVOLPAN 0 1 -1
      SOFFS 21.5 43
      PLAYRATE 1 1 0 -1 0 0.0025
      CHANMODE 0
      GUID {9BD73124-F93D-0843-9F15-4636EA8E1299}
      <SOURCE MIDI
        HASDATA 1 192 QN
        POOLEDEVTS {EF9F5A8E-E557-7C43-90C0-C5806DC8C839}
        <X 0 0 0 0 3 "rh                  "
          /wNyaCAgICAgICAgICAgICAgICAgIA==
        >
        e 720 9c 4f 6c
        e 16 9c 51 6c
        e 6 8c 4f 40
        e 2 9c 53 6c
        e 14 8c 51 40
        e 8 8c 53 40
        e 2 9c 48 6c
        e 0 9c 54 6c
        e 334 8c 48 40
        e 0 8c 54 40
        e 2 9c 47 6c
        e 0 9c 53 6c
        e 46 8c 47 40
        e 0 8c 53 40
        e 2 9c 48 6c
        e 0 9c 54 6c
        e 142 8c 48 40
        e 0 8c 54 40
        e 2 9c 44 6c
        e 0 9c 50 6c
        e 46 8c 44 40
        e 0 8c 50 40
        e 2 9c 45 6c
        e 0 9c 51 6c
        e 142 8c 45 40
        e 0 8c 51 40
        e 2 9c 40 6c
        e 0 9c 4c 6c
        e 46 8c 40 40
        e 0 8c 4c 40
        e 2 9c 41 6c
        e 0 9c 4d 6c
        e 142 8c 41 40
        e 0 8c 4d 40
        e 2 9c 3d 6c
        e 0 9c 49 6c
        e 46 8c 3d 40
        e 0 8c 49 40
        e 2 9c 3e 6c
        e 0 9c 4a 6c
        e 142 8c 3e 40
        e 0 8c 4a 40
        e 2 9c 3a 6c
        e 0 9c 46 6c
        e 46 8c 3a 40
        e 0 8c 46 40
        e 2 9c 3b 6c
        e 0 9c 47 6c
        e 190 8c 3b 40
        e 0 8c 47 40
        e 50 9c 43 6c
        e 22 8c 43 40
        e 2 9c 45 6c
        e 22 8c 45 40
        e 2 9c 47 6c
        e 22 8c 47 40
        e 2 9c 48 6c
        e 22 8c 48 40
        e 2 9c 4a 6c
        e 22 8c 4a 40
        e 2 9c 4c 6c
        e 22 8c 4c 40
        e 98 9c 47 6c
        e 0 9c 4a 6c
        e 0 9c 4d 6c
        e 46 8c 47 40
        e 0 8c 4a 40
        e 0 8c 4d 40
        e 2 9c 47 6c
        e 0 9c 4a 6c
        e 0 9c 4d 6c
        e 46 8c 47 40
        e 0 8c 4a 40
        e 0 8c 4d 40
        e 2 9c 47 6c
        e 0 9c 4a 6c
        e 0 9c 4d 6c
        e 94 8c 47 40
        e 0 8c 4a 40
        e 0 8c 4d 40
        e 2 9c 47 6c
        e 0 9c 4a 6c
        e 0 9c 4d 6c
        e 94 8c 47 40
        e 0 8c 4a 40
        e 0 8c 4d 40
        e 2 9c 47 6c
        e 0 9c 4a 6c
        e 0 9c 4d 6c
        e 94 8c 47 40
        e 0 8c 4a 40
        e 0 8c 4d 40
        e 2 9c 47 6c
        e 0 9c 4a 6c
        e 0 9c 4d 6c
        e 94 8c 47 40
        e 0 8c 4a 40
        e 0 8c 4d 40
        e 2 9c 48 6c
        e 0 9c 4d 6c
        e 94 8c 48 40
        e 0 8c 4d 40
        e 2 9c 4a 6c
        e 0 9c 4d 6c
        e 94 8c 4a 40
        e 0 8c 4d 40
        e 2 9c 43 6c
        e 0 9c 48 6c
        e 0 9c 4c 6c
        e 94 8c 43 40
        e 0 8c 48 40
        e 0 8c 4c 40
        e 2 9c 4c 6c
        e 46 8c 4c 40
        e 2 9c 4d 6c
        e 46 8c 4d 40
        e 2 9c 41 6c
        e 0 9c 47 6c
        e 0 9c 4a 6c
        e 94 8c 41 40
        e 0 8c 47 40
        e 0 8c 4a 40
        e 2 9c 4a 6c
        e 46 8c 4a 40
        e 2 9c 4c 6c
        e 46 8c 4c 40
        e 2 9c 40 6c
        e 0 9c 48 6c
        e 190 8c 40 40
        e 0 8c 48 40
        e 26 9c 48 6c
        e 22 8c 48 40
        e 2 9c 4a 6c
        e 22 8c 4a 40
        e 2 9c 4c 6c
        e 22 8c 4c 40
        e 2 9c 4d 6c
        e 22 8c 4d 40
        e 2 9c 4f 6c
        e 22 8c 4f 40
        e 2 9c 51 6c
        e 22 8c 51 40
        e 2 9c 53 6c
        e 22 8c 53 40
        e 2 9c 54 6c
        e 94 8c 54 40
        e 2 9c 51 6c
        e 0 9c 54 6c
        e 46 8c 51 40
        e 0 8c 54 40
        e 2 9c 51 6c
        e 0 9c 54 6c
        e 46 8c 51 40
        e 0 8c 54 40
        e 2 9c 51 6c
        e 0 9c 54 6c
        e 94 8c 51 40
        e 0 8c 54 40
        e 2 9c 51 6c
        e 0 9c 54 6c
        e 94 8c 51 40
        e 0 8c 54 40
        e 2 9c 51 6c
        e 0 9c 54 6c
        e 94 8c 51 40
        e 0 8c 54 40
        e 2 9c 50 6c
        e 0 9c 53 6c
        e 46 8c 50 40
        e 0 8c 53 40
        e 2 9c 51 6c
        e 0 9c 54 6c
        e 46 8c 51 40
        e 0 8c 54 40
        e 2 9c 53 6c
        e 0 9c 56 6c
        e 46 8c 53 40
        e 0 8c 56 40
        e 2 9c 51 6c
        e 0 9c 54 6c
        e 46 8c 51 40
        e 0 8c 54 40
        e 2 9c 4f 6c
        e 0 9c 53 6c
        e 46 8c 4f 40
        e 0 8c 53 40
        e 2 9c 4d 6c
        e 0 9c 51 6c
        e 46 8c 4d 40
        e 0 8c 51 40
        e 2 9c 4c 6c
        e 0 9c 4f 6c
        e 94 8c 4c 40
        e 0 8c 4f 40
        e 2 9c 4f 6c
        e 46 8c 4f 40
        e 2 9c 51 6c
        e 46 8c 51 40
        e 2 9c 4a 6c
        e 0 9c 4d 6c
        e 94 8c 4a 40
        e 0 8c 4d 40
        e 2 9c 4d 6c
        e 46 8c 4d 40
        e 2 9c 4f 6c
        e 46 8c 4f 40
        e 2 9c 48 6c
        e 0 9c 4c 6c
        e 190 8c 48 40
        e 0 8c 4c 40
        e 26 9c 3c 6c
        e 22 8c 3c 40
        e 2 9c 3e 6c
        e 22 8c 3e 40
        e 2 9c 40 6c
        e 22 8c 40 40
        e 2 9c 41 6c
        e 22 8c 41 40
        e 2 9c 43 6c
        e 22 8c 43 40
        e 2 9c 45 6c
        e 22 8c 45 40
        e 2 9c 47 6c
        e 22 8c 47 40
        e 2 9c 48 6c
        e 80 8c 48 40
        e 16 9c 3c 6c
        e 0 9c 3f 6c
        e 0 9c 44 6c
        e 0 9c 48 6c
        e 32 8c 3c 40
        e 0 8c 3f 40
        e 0 8c 44 40
        e 0 8c 48 40
        e 16 9c 3c 6c
        e 0 9c 3f 6c
        e 0 9c 44 6c
        e 0 9c 48 6c
        e 32 8c 3c 40
        e 0 8c 3f 40
        e 0 8c 44 40
        e 0 8c 48 40
        e 16 9c 3c 6c
        e 0 9c 3f 6c
        e 0 9c 44 6c
        e 0 9c 48 6c
        e 80 8c 3c 40
        e 0 8c 3f 40
        e 0 8c 44 40
        e 0 8c 48 40
        e 16 9c 3c 6c
        e 0 9c 3f 6c
        e 0 9c 44 6c
        e 0 9c 48 6c
        e 80 8c 3c 40
        e 0 8c 3f 40
        e 0 8c 44 40
        e 0 8c 48 40
        e 16 9c 3c 6c
        e 0 9c 3f 6c
        e 0 9c 44 6c
        e 0 9c 48 6c
        e 80 8c 3c 40
        e 0 8c 3f 40
        e 0 8c 44 40
        e 0 8c 48 40
        e 16 9c 3e 6c
        e 0 9c 48 6c
        e 0 9c 4a 6c
        e 80 8c 3e 40
        e 0 8c 48 40
        e 0 8c 4a 40
        e 16 9c 3f 6c
        e 0 9c 48 6c
        e 0 9c 4b 6c
        e 80 8c 3f 40
        e 0 8c 48 40
        e 0 8c 4b 40
        e 16 9c 42 6c
        e 0 9c 48 6c
        e 0 9c 4b 6c
        e 0 9c 4e 6c
        e 80 8c 42 40
        e 0 8c 48 40
        e 0 8c 4b 40
        e 0 8c 4e 40
        e 16 9c 43 6c
        e 0 9c 48 6c
        e 0 9c 4c 6c
        e 0 9c 4f 6c
        e 80 8c 43 40
        e 0 8c 48 40
        e 0 8c 4c 40
        e 0 8c 4f 40
        e 16 9c 43 6c
        e 0 9c 48 6c
        e 0 9c 4c 6c
        e 0 9c 4f 6c
        e 32 8c 43 40
        e 0 8c 48 40
        e 0 8c 4c 40
        e 0 8c 4f 40
        e 16 9c 43 6c
        e 0 9c 48 6c
        e 0 9c 4c 6c
        e 0 9c 4f 6c
        e 32 8c 43 40
        e 0 8c 48 40
        e 0 8c 4c 40
        e 0 8c 4f 40
        e 16 9c 43 6c
        e 0 9c 48 6c
        e 0 9c 4c 6c
        e 80 8c 43 40
        e 0 8c 48 40
        e 0 8c 4c 40
        e 16 9c 43 6c
        e 0 9c 48 6c
        e 0 9c 4c 6c
        e 80 8c 43 40
        e 0 8c 48 40
        e 0 8c 4c 40
        e 16 9c 43 6c
        e 0 9c 47 6c
        e 0 9c 4a 6c
        e 0 9c 4f 6c
        e 80 8c 43 40
        e 0 8c 47 40
        e 0 8c 4a 40
        e 0 8c 4f 40
        e 16 9c 43 6c
        e 0 9c 47 6c
        e 0 9c 4a 6c
        e 0 9c 4f 6c
        e 32 8c 43 40
        e 0 8c 47 40
        e 0 8c 4a 40
        e 0 8c 4f 40
        e 16 9c 43 6c
        e 0 9c 47 6c
        e 0 9c 4a 6c
        e 0 9c 4f 6c
        e 32 8c 43 40
        e 0 8c 47 40
        e 0 8c 4a 40
        e 0 8c 4f 40
        e 16 9c 43 6c
        e 0 9c 47 6c
        e 0 9c 4a 6c
        e 80 8c 43 40
        e 0 8c 47 40
        e 0 8c 4a 40
        e 16 9c 43 6c
        e 0 9c 47 6c
        e 0 9c 4a 6c
        e 32 8c 43 40
        e 0 8c 47 40
        e 0 8c 4a 40
        e 64 9c 40 6c
        e 0 9c 43 6c
        e 0 9c 48 6c
        e 176 8c 40 40
        e 0 8c 43 40
        e 0 8c 48 40
        e 112 9c 43 6c
        e 16 8c 43 40
        e 16 9c 45 6c
        e 16 8c 45 40
        e 16 9c 47 6c
        e 16 8c 47 40
        e 16 9c 48 6c
        e 80 8c 48 40
        e 16 9c 43 6c
        e 16 8c 43 40
        e 16 9c 45 6c
        e 16 8c 45 40
        e 16 9c 47 6c
        e 16 8c 47 40
        e 16 9c 48 6c
        e 80 8c 48 40
        e 16 9c 43 6c
        e 16 8c 43 40
        e 16 9c 45 6c
        e 16 8c 45 40
        e 16 9c 47 6c
        e 16 8c 47 40
        e 16 9c 48 6c
        e 176 8c 48 40
        e 16 9c 40 6c
        e 0 9c 43 6c
        e 0 9c 48 6c
        e 128 8c 40 40
        e 0 8c 43 40
        e 0 8c 48 40
        e 16 9c 40 6c
        e 0 9c 43 6c
        e 0 9c 48 6c
        e 32 8c 40 40
        e 0 8c 43 40
        e 0 8c 48 40
        e 16 9c 40 6c
        e 0 9c 43 6c
        e 0 9c 48 6c
        e 176 8c 40 40
        e 0 8c 43 40
        e 0 8c 48 40
        e 16 9c 43 7f
        e 128 8c 43 40
        e 16 9c 48 7f
        e 32 8c 48 40
        e 16 9c 40 6c
        e 0 9c 48 7f
        e 128 8c 40 40
        e 0 8c 48 40
        e 16 9c 43 6c
        e 0 9c 47 7f
        e 32 8c 43 40
        e 0 8c 47 40
        e 16 9c 43 6c
        e 0 9c 47 7f
        e 128 8c 43 40
        e 0 8c 47 40
        e 16 9c 41 6c
        e 0 9c 45 7f
        e 32 8c 41 40
        e 0 8c 45 40
        e 16 9c 41 6c
        e 0 9c 45 7f
        e 128 8c 41 40
        e 0 8c 45 40
        e 16 9c 40 6c
        e 0 9c 43 7f
        e 32 8c 40 40
        e 0 8c 43 40
        e 16 9c 40 6c
        e 0 9c 43 7f
        e 128 8c 40 40
        e 0 8c 43 40
        e 16 9c 3f 6c
        e 0 9c 42 7f
        e 32 8c 3f 40
        e 0 8c 42 40
        e 16 9c 40 6c
        e 0 9c 43 7f
        e 272 8c 40 40
        e 0 8c 43 40
        e 16 9c 3e 6c
        e 0 9c 41 7f
        e 80 8c 3e 40
        e 0 8c 41 40
        e 16 9c 3c 6c
        e 0 9c 40 7f
        e 176 8c 3c 40
        e 0 8c 40 40
        e 16 9c 3b 6c
        e 0 9c 3e 7f
        e 128 8c 3b 40
        e 0 8c 3e 40
        e 16 9c 3c 6c
        e 0 9c 40 7f
        e 32 8c 3c 40
        e 0 8c 40 40
        e 16 9c 3e 6c
        e 0 9c 41 7f
        e 80 8c 3e 40
        e 48 8c 41 40
        e 16 9c 43 7f
        e 32 8c 43 40
        e 16 9c 3e 6c
        e 0 9c 41 6c
        e 0 9c 45 7f
        e 48 8c 45 40
        e 16 9c 43 7f
        e 16 8c 3e 40
        e 0 8c 41 40
        e 32 8c 43 40
        e 16 9c 41 7f
        e 48 8c 41 40
        e 16 9c 3c 6c
        e 0 9c 40 7f
        e 80 8c 3c 40
        e 48 8c 40 40
        e 16 9c 41 7f
        e 32 8c 41 40
        e 16 9c 3c 6c
        e 0 9c 40 6c
        e 0 9c 43 7f
        e 48 8c 43 40
        e 16 9c 41 7f
        e 16 8c 3c 40
        e 0 8c 40 40
        e 32 8c 41 40
        e 16 9c 40 7f
        e 48 8c 40 40
        e 16 9c 3b 6c
        e 0 9c 3e 7f
        e 0 9c 43 6c
        e 80 8c 3b 40
        e 0 8c 43 40
        e 16 9c 3b 6c
        e 0 9c 43 6c
        e 32 8c 3b 40
        e 0 8c 43 40
        e 16 9c 3b 6c
        e 0 9c 43 6c
        e 32 8c 3e 40
        e 0 8c 3b 40
        e 0 8c 43 40
        e 16 9c 3b 6c
        e 0 9c 3e 6c
        e 0 9c 43 6c
        e 80 8c 3b 40
        e 0 8c 3e 40
        e 0 8c 43 40
        e 16 9c 3b 6c
        e 0 9c 3e 6c
        e 0 9c 43 6c
        e 80 8c 3b 40
        e 0 8c 3e 40
        e 0 8c 43 40
        e 16 9c 3b 6c
        e 0 9c 3e 6c
        e 0 9c 43 6c
        e 80 8c 3b 40
        e 0 8c 3e 40
        e 0 8c 43 40
        e 112 9c 43 7f
        e 128 8c 43 40
        e 16 9c 48 7f
        e 32 8c 48 40
        e 16 9c 40 6c
        e 0 9c 48 7f
        e 128 8c 40 40
        e 0 8c 48 40
        e 16 9c 43 6c
        e 0 9c 47 7f
        e 32 8c 43 40
        e 0 8c 47 40
        e 16 9c 43 6c
        e 0 9c 47 7f
        e 128 8c 43 40
        e 0 8c 47 40
        e 16 9c 41 6c
        e 0 9c 45 7f
        e 32 8c 41 40
        e 0 8c 45 40
        e 16 9c 41 6c
        e 0 9c 45 7f
        e 128 8c 41 40
        e 0 8c 45 40
        e 16 9c 40 6c
        e 0 9c 43 7f
        e 32 8c 40 40
        e 0 8c 43 40
        e 16 9c 40 6c
        e 0 9c 43 7f
        e 128 8c 40 40
        e 0 8c 43 40
        e 16 9c 3f 6c
        e 0 9c 42 7f
        e 32 8c 3f 40
        e 0 8c 42 40
        e 16 9c 40 6c
        e 0 9c 43 7f
        e 272 8c 40 40
        e 0 8c 43 40
        e 16 9c 3e 6c
        e 0 9c 41 7f
        e 80 8c 3e 40
        e 0 8c 41 40
        e 16 9c 3c 6c
        e 0 9c 40 7f
        e 176 8c 3c 40
        e 0 8c 40 40
        e 16 9c 3c 6c
        e 0 9c 40 6c
        e 0 9c 43 7f
        e 128 8c 3c 40
        e 0 8c 40 40
        e 0 8c 43 40
        e 16 9c 3c 6c
        e 0 9c 40 6c
        e 0 9c 48 7f
        e 32 8c 3c 40
        e 0 8c 40 40
        e 0 8c 48 40
        e 16 9c 3b 6c
        e 0 9c 3e 6c
        e 0 9c 43 6c
        e 0 9c 47 7f
        e 80 8c 3b 40
        e 0 8c 3e 40
        e 0 8c 43 40
        e 48 8c 47 40
        e 16 9c 46 7f
        e 32 8c 46 40
        e 16 9c 3b 6c
        e 0 9c 3e 6c
        e 0 9c 43 6c
        e 0 9c 47 7f
        e 80 8c 3b 40
        e 0 8c 3e 40
        e 0 8c 43 40
        e 48 8c 47 40
        e 16 9c 48 7f
        e 32 8c 48 40
        e 16 9c 39 6c
        e 0 9c 3e 6c
        e 0 9c 42 6c
        e 0 9c 45 7f
        e 80 8c 39 40
        e 0 8c 3e 40
        e 0 8c 42 40
        e 48 8c 45 40
        e 16 9c 44 7f
        e 32 8c 44 40
        e 16 9c 39 6c
        e 0 9c 3e 6c
        e 0 9c 42 6c
        e 0 9c 45 7f
        e 80 8c 39 40
        e 0 8c 3e 40
        e 0 8c 42 40
        e 48 8c 45 40
        e 16 9c 47 7f
        e 32 8c 47 40
        e 16 9c 3b 6c
        e 0 9c 3e 6c
        e 0 9c 43 7f
        e 176 8c 3b 40
        e 0 8c 3e 40
        e 16 9c 3b 6c
        e 0 9c 3e 6c
        e 128 8c 3b 40
        e 0 8c 3e 40
        e 16 9c 3b 6c
        e 0 9c 3e 6c
        e 32 8c 43 40
        e 0 8c 3b 40
        e 0 8c 3e 40
        e 16 9c 3b 6c
        e 0 9c 3e 6c
        e 0 9c 43 6c
        e 176 8c 3b 40
        e 0 8c 3e 40
        e 0 8c 43 40
        e 16 9c 43 7f
        e 128 8c 43 40
        e 16 9c 43 7f
        e 32 8c 43 40
        e 16 9c 3f 6c
        e 0 9c 43 7f
        e 80 8c 3f 40
        e 16 9c 3a 6c
        e 80 8c 43 40
        e 0 8c 3a 40
        e 16 9c 3f 6c
        e 0 9c 43 7f
        e 80 8c 3f 40
        e 16 9c 3a 6c
        e 32 8c 43 40
        e 16 9c 43 7f
        e 32 8c 3a 40
        e 0 8c 43 40
        e 16 9c 41 6c
        e 0 9c 44 7f
        e 80 8c 41 40
        e 0 8c 44 40
        e 16 9c 3f 6c
        e 0 9c 43 7f
        e 80 8c 3f 40
        e 0 8c 43 40
        e 16 9c 3e 6c
        e 0 9c 41 7f
        e 80 8c 3e 40
        e 0 8c 41 40
        e 16 9c 3f 6c
        e 0 9c 43 7f
        e 80 8c 3f 40
        e 0 8c 43 40
        e 16 9c 41 6c
        e 0 9c 44 7f
        e 80 8c 41 40
        e 16 9c 3a 6c
        e 80 8c 3a 40
        e 16 9c 41 6c
        e 80 8c 44 40
        e 0 8c 41 40
        e 16 9c 3a 6c
        e 0 9c 43 7f
        e 80 8c 3a 40
        e 0 8c 43 40
        e 16 9c 3e 6c
        e 0 9c 41 7f
        e 80 8c 3e 40
        e 16 9c 3a 6c
        e 80 8c 41 40
        e 0 8c 3a 40
        e 16 9c 3e 6c
        e 0 9c 41 6c
        e 0 9c 44 7f
        e 80 8c 3e 40
        e 0 8c 41 40
        e 16 9c 3a 6c
        e 32 8c 44 40
        e 16 9c 44 7f
        e 32 8c 3a 40
        e 0 8c 44 40
        e 16 9c 41 6c
        e 0 9c 44 7f
        e 80 8c 41 40
        e 16 9c 3a 6c
        e 80 8c 44 40
        e 0 8c 3a 40
        e 16 9c 41 6c
        e 0 9c 44 7f
        e 80 8c 41 40
        e 16 9c 3a 6c
        e 32 8c 44 40
        e 16 9c 44 7f
        e 32 8c 3a 40
        e 0 8c 44 40
        e 16 9c 43 6c
        e 0 9c 46 7f
        e 80 8c 43 40
        e 0 8c 46 40
        e 16 9c 41 6c
        e 0 9c 44 7f
        e 80 8c 41 40
        e 0 8c 44 40
        e 16 9c 3f 6c
        e 0 9c 43 7f
        e 80 8c 3f 40
        e 0 8c 43 40
        e 16 9c 41 6c
        e 0 9c 44 7f
        e 80 8c 41 40
        e 0 8c 44 40
        e 16 9c 43 6c
        e 0 9c 46 7f
        e 80 8c 43 40
        e 16 9c 3a 6c
        e 80 8c 3a 40
        e 16 9c 43 6c
        e 80 8c 43 40
        e 16 9c 41 6c
        e 0 9c 44 6c
        e 80 8c 46 40
        e 0 8c 41 40
        e 0 8c 44 40
        e 16 9c 3f 6c
        e 0 9c 43 6c
        e 80 8c 3f 40
        e 0 8c 43 40
        e 16 9c 3a 6c
        e 80 8c 3a 40
        e 16 9c 3f 6c
        e 0 9c 43 7f
        e 80 8c 3f 40
        e 16 9c 3a 6c
        e 32 8c 43 40
        e 16 9c 43 7f
        e 32 8c 3a 40
        e 0 8c 43 40
        e 16 9c 3c 6c
        e 0 9c 3f 6c
        e 0 9c 48 7f
        e 176 8c 3c 40
        e 0 8c 3f 40
        e 0 8c 48 40
        e 16 9c 3c 6c
        e 0 9c 3f 6c
        e 0 9c 48 7f
        e 128 8c 3c 40
        e 0 8c 3f 40
        e 0 8c 48 40
        e 16 9c 3c 6c
        e 0 9c 3f 6c
        e 0 9c 48 7f
        e 32 8c 3c 40
        e 0 8c 3f 40
        e 0 8c 48 40
        e 16 9c 3c 6c
        e 0 9c 3f 6c
        e 0 9c 48 7f
        e 48 8c 48 40
        e 16 9c 46 7f
        e 48 8c 46 40
        e 16 9c 44 7f
        e 48 8c 3c 40
        e 0 8c 3f 40
        e 0 8c 44 40
        e 16 9c 3c 6c
        e 0 9c 3f 6c
        e 0 9c 42 6c
        e 0 9c 44 7f
        e 48 8c 44 40
        e 16 9c 43 7f
        e 48 8c 43 40
        e 16 8c 42 40
        e 0 9c 42 7f
        e 48 8c 3c 40
        e 0 8c 3f 40
        e 0 8c 42 40
        e 16 9c 3b 6c
        e 0 9c 3e 6c
        e 0 9c 43 7f
        e 176 8c 3b 40
        e 0 8c 3e 40
        e 16 9c 3b 6c
        e 0 9c 3e 6c
        e 128 8c 3b 40
        e 0 8c 3e 40
        e 16 9c 3b 6c
        e 0 9c 3e 6c
        e 32 8c 43 40
        e 0 8c 3b 40
        e 0 8c 3e 40
        e 16 9c 3b 6c
        e 0 9c 3e 6c
        e 0 9c 43 6c
        e 176 8c 3b 40
        e 0 8c 3e 40
        e 0 8c 43 40
        e 16 9c 3c 6c
        e 0 9c 40 7f
        e 128 8c 3c 40
        e 0 8c 40 40
        e 16 9c 3c 6c
        e 0 9c 40 7f
        e 32 8c 3c 40
        e 0 8c 40 40
        e 16 9c 3c 6c
        e 0 9c 40 7f
        e 128 8c 3c 40
        e 0 8c 40 40
        e 16 9c 3b 6c
        e 0 9c 3e 7f
        e 32 8c 3b 40
        e 0 8c 3e 40
        e 16 9c 3c 6c
        e 0 9c 40 7f
        e 128 8c 3c 40
        e 0 8c 40 40
        e 16 9c 3b 6c
        e 0 9c 3e 7f
        e 32 8c 3b 40
        e 0 8c 3e 40
        e 16 9c 3c 6c
        e 0 9c 40 7f
        e 128 8c 3c 40
        e 0 8c 40 40
        e 16 9c 3b 6c
        e 0 9c 3e 7f
        e 32 8c 3b 40
        e 0 8c 3e 40
        e 16 9c 3c 6c
        e 0 9c 40 7f
        e 128 8c 3c 40
        e 0 8c 40 40
        e 16 9c 3e 6c
        e 0 9c 41 7f
        e 32 8c 3e 40
        e 0 8c 41 40
        e 16 9c 40 6c
        e 0 9c 43 7f
        e 176 8c 40 40
        e 0 8c 43 40
        e 16 9c 41 6c
        e 0 9c 45 7f
        e 368 8c 41 40
        e 0 8c 45 40
        e 16 9c 3b 6c
        e 0 9c 3e 7f
        e 128 8c 3b 40
        e 0 8c 3e 40
        e 16 9c 3b 6c
        e 0 9c 3e 7f
        e 32 8c 3b 40
        e 0 8c 3e 40
        e 16 9c 3b 6c
        e 0 9c 3e 7f
        e 128 8c 3b 40
        e 0 8c 3e 40
        e 16 9c 39 6c
        e 0 9c 3c 7f
        e 32 8c 39 40
        e 0 8c 3c 40
        e 16 9c 3b 6c
        e 0 9c 3e 7f
        e 128 8c 3b 40
        e 0 8c 3e 40
        e 16 9c 39 6c
        e 0 9c 3c 7f
        e 32 8c 39 40
        e 0 8c 3c 40
        e 16 9c 3b 6c
        e 0 9c 3e 7f
        e 128 8c 3b 40
        e 0 8c 3e 40
        e 16 9c 3c 6c
        e 0 9c 40 7f
        e 32 8c 3c 40
        e 0 8c 40 40
        e 16 9c 3e 6c
        e 0 9c 41 7f
        e 128 8c 3e 40
        e 0 8c 41 40
        e 16 9c 3f 6c
        e 0 9c 42 7f
        e 32 8c 3f 40
        e 0 8c 42 40
        e 16 9c 41 6c
        e 0 9c 45 7f
        e 176 8c 41 40
        e 0 8c 45 40
        e 16 9c 40 6c
        e 0 9c 43 7f
        e 80 8c 40 40
        e 0 8c 43 40
        e 112 9c 45 7f
        e 80 8c 45 40
        e 64 9c 47 7f
        e 32 8c 47 40
        e 16 9c 3c 6c
        e 0 9c 41 6c
        e 0 9c 45 6c
        e 0 9c 48 7f
        e 48 8c 48 40
        e 16 9c 47 7f
        e 48 8c 47 40
        e 16 8c 45 40
        e 0 9c 45 7f
        e 48 8c 3c 40
        e 0 8c 41 40
        e 0 8c 45 40
        e 16 9c 47 7f
        e 128 8c 47 40
        e 16 9c 45 7f
        e 32 8c 45 40
        e 16 9c 3c 6c
        e 0 9c 40 6c
        e 0 9c 43 7f
        e 128 8c 43 40
        e 16 9c 43 7f
        e 32 8c 3c 40
        e 0 8c 40 40
        e 0 8c 43 40
        e 16 9c 41 7f
        e 128 8c 41 40
        e 16 9c 43 7f
        e 32 8c 43 40
        e 16 9c 3b 6c
        e 0 9c 3e 6c
        e 0 9c 41 6c
        e 0 9c 45 7f
        e 48 8c 45 40
        e 16 9c 43 7f
        e 48 8c 43 40
        e 16 8c 41 40
        e 0 9c 41 7f
        e 48 8c 3b 40
        e 0 8c 3e 40
        e 0 8c 41 40
        e 16 9c 43 7f
        e 176 8c 43 40
        e 16 9c 3c 6c
        e 0 9c 40 7f
        e 176 8c 3c 40
        e 0 8c 40 40
        e 16 9c 41 6c
        e 0 9c 45 7f
        e 128 8c 41 40
        e 0 8c 45 40
        e 16 9c 43 6c
        e 0 9c 47 7f
        e 32 8c 43 40
        e 0 8c 47 40
        e 16 9c 45 6c
        e 0 9c 48 7f
        e 48 8c 45 40
        e 0 8c 48 40
        e 16 9c 43 6c
        e 0 9c 47 7f
        e 48 8c 43 40
        e 0 8c 47 40
        e 16 9c 41 6c
        e 0 9c 45 7f
        e 48 8c 41 40
        e 0 8c 45 40
        e 16 9c 40 6c
        e 0 9c 43 7f
        e 128 8c 40 40
        e 0 8c 43 40
        e 16 9c 45 6c
        e 0 9c 48 7f
        e 32 8c 45 40
        e 0 8c 48 40
        e 16 9c 45 6c
        e 0 9c 48 7f
        e 48 8c 45 40
        e 0 8c 48 40
        e 16 9c 43 6c
        e 0 9c 47 7f
        e 48 8c 43 40
        e 0 8c 47 40
        e 16 9c 41 6c
        e 0 9c 45 7f
        e 48 8c 41 40
        e 0 8c 45 40
        e 16 9c 41 6c
        e 0 9c 45 7f
        e 48 8c 41 40
        e 0 8c 45 40
        e 16 9c 40 6c
        e 0 9c 43 7f
        e 48 8c 40 40
        e 0 8c 43 40
        e 14 9c 41 7f
        e 2 9c 3e 6c
        e 46 8c 41 40
        e 2 8c 3e 40
        e 16 9c 3e 6c
        e 0 9c 41 7f
        e 48 8c 3e 40
        e 0 8c 41 40
        e 16 9c 3c 6c
        e 0 9c 40 7f
        e 48 8c 3c 40
        e 0 8c 40 40
        e 16 9c 37 6c
        e 0 9c 3b 6c
        e 0 9c 3e 7f
        e 48 8c 37 40
        e 0 8c 3b 40
        e 0 8c 3e 40
        e 16 9c 34 6c
        e 0 9c 3c 7f
        e 80 8c 34 40
        e 16 9c 40 6c
        e 32 8c 40 40
        e 16 9c 40 6c
        e 32 8c 3c 40
        e 0 8c 40 40
        e 16 9c 40 6c
        e 80 8c 40 40
        e 16 9c 40 6c
        e 32 8c 40 40
        e 64 9c 40 6c
        e 80 8c 40 40
        e 16 9c 40 6c
        e 32 8c 40 40
        e 64 9c 40 6c
        e 80 8c 40 40
        e 16 9c 40 6c
        e 32 8c 40 40
        e 64 9c 47 7f
        e 0 9c 4c 6c
        e 32 8c 4c 40
        e 16 9c 50 6c
        e 32 8c 50 40
        e 16 9c 4c 6c
        e 32 8c 4c 40
        e 16 9c 50 6c
        e 32 8c 50 40
        e 16 9c 4c 6c
        e 32 8c 4c 40
        e 16 9c 50 6c
        e 32 8c 50 40
        e 16 9c 4c 6c
        e 32 8c 4c 40
        e 16 9c 50 6c
        e 32 8c 50 40
        e 16 9c 4c 6c
        e 32 8c 4c 40
        e 16 9c 50 6c
        e 32 8c 50 40
        e 16 9c 4c 6c
        e 32 8c 4c 40
        e 16 9c 50 6c
        e 32 8c 47 40
        e 0 8c 50 40
        e 16 9c 48 7f
        e 0 9c 4c 6c
        e 32 8c 4c 40
        e 16 9c 51 6c
        e 32 8c 51 40
        e 16 9c 4c 6c
        e 32 8c 4c 40
        e 16 9c 51 6c
        e 32 8c 48 40
        e 0 8c 51 40
        e 16 9c 4a 7f
        e 0 9c 4c 6c
        e 32 8c 4c 40
        e 16 9c 53 6c
        e 32 8c 53 40
        e 16 9c 4c 6c
        e 32 8c 4c 40
        e 16 9c 53 6c
        e 32 8c 53 40
        e 16 9c 4c 6c
        e 32 8c 4c 40
        e 16 9c 53 6c
        e 32 8c 53 40
        e 16 9c 4c 6c
        e 32 8c 4c 40
        e 16 9c 53 6c
        e 32 8c 4a 40
        e 0 8c 53 40
        e 16 9c 4a 7f
        e 0 9c 4c 6c
        e 32 8c 4c 40
        e 16 9c 53 6c
        e 32 8c 53 40
        e 16 9c 4c 6c
        e 32 8c 4c 40
        e 16 9c 53 6c
        e 32 8c 4a 40
        e 0 8c 53 40
        e 16 9c 47 7f
        e 0 9c 4c 6c
        e 32 8c 4c 40
        e 16 9c 50 6c
        e 32 8c 50 40
        e 16 9c 4c 6c
        e 32 8c 4c 40
        e 16 9c 50 6c
        e 32 8c 47 40
        e 0 8c 50 40
        e 16 9c 48 7f
        e 0 9c 4c 6c
        e 32 8c 4c 40
        e 16 9c 51 6c
        e 32 8c 51 40
        e 16 9c 4c 6c
        e 32 8c 4c 40
        e 16 9c 51 6c
        e 32 8c 51 40
        e 16 9c 4c 6c
        e 32 8c 4c 40
        e 16 9c 51 6c
        e 32 8c 51 40
        e 16 9c 4c 6c
        e 32 8c 4c 40
        e 16 9c 51 6c
        e 32 8c 48 40
        e 0 8c 51 40
        e 16 9c 48 7f
        e 0 9c 51 6c
        e 128 8c 48 40
        e 0 8c 51 40
        e 16 9c 47 7f
        e 0 9c 50 6c
        e 32 8c 47 40
        e 0 8c 50 40
        e 16 9c 48 7f
        e 0 9c 51 6c
        e 128 8c 48 40
        e 0 8c 51 40
        e 16 9c 4a 7f
        e 0 9c 53 6c
        e 32 8c 4a 40
        e 0 8c 53 40
        e 16 9c 47 7f
        e 0 9c 50 6c
        e 96 9c 40 6c
        e 0 9c 4c 6c
        e 32 8c 50 40
        e 0 8c 40 40
        e 0 8c 4c 40
        e 16 9c 40 6c
        e 0 9c 4c 6c
        e 32 8c 47 40
        e 0 8c 40 40
        e 0 8c 4c 40
        e 16 9c 40 6c
        e 0 9c 47 7f
        e 0 9c 4c 6c
        e 80 8c 40 40
        e 0 8c 4c 40
        e 16 9c 40 6c
        e 0 9c 4c 6c
        e 80 8c 47 40
        e 0 8c 40 40
        e 0 8c 4c 40
        e 16 9c 40 6c
        e 0 9c 4c 6c
        e 80 8c 40 40
        e 0 8c 4c 40
        e 16 9c 40 6c
        e 0 9c 4c 6c
        e 32 8c 40 40
        e 0 8c 4c 40
        e 16 9c 40 6c
        e 0 9c 4c 6c
        e 32 8c 40 40
        e 0 8c 4c 40
        e 16 9c 40 6c
        e 0 9c 4c 6c
        e 80 8c 40 40
        e 0 8c 4c 40
        e 16 9c 40 6c
        e 0 9c 4c 6c
        e 80 8c 40 40
        e 0 8c 4c 40
        e 16 9c 47 7f
        e 48 9c 4c 6c
        e 32 8c 4c 40
        e 16 9c 50 6c
        e 32 8c 50 40
        e 16 9c 4c 6c
        e 32 8c 4c 40
        e 64 9c 4c 6c
        e 32 8c 4c 40
        e 16 9c 50 6c
        e 32 8c 50 40
        e 16 9c 4c 6c
        e 32 8c 4c 40
        e 64 9c 4c 6c
        e 32 8c 4c 40
        e 16 9c 50 6c
        e 32 8c 50 40
        e 16 9c 4c 6c
        e 32 8c 47 40
        e 0 8c 4c 40
        e 16 9c 48 7f
        e 48 9c 4c 6c
        e 32 8c 4c 40
        e 16 9c 51 6c
        e 32 8c 51 40
        e 16 9c 4c 6c
        e 32 8c 48 40
        e 0 8c 4c 40
        e 16 9c 4a 7f
        e 48 9c 4c 6c
        e 32 8c 4c 40
        e 16 9c 53 6c
        e 32 8c 53 40
        e 16 9c 4c 6c
        e 32 8c 4c 40
        e 64 9c 4c 6c
        e 32 8c 4c 40
        e 16 9c 53 6c
        e 32 8c 53 40
        e 16 9c 4c 6c
        e 32 8c 4a 40
        e 0 8c 4c 40
        e 16 9c 4a 7f
        e 48 9c 4c 6c
        e 32 8c 4c 40
        e 16 9c 53 6c
        e 32 8c 53 40
        e 16 9c 4c 6c
        e 32 8c 4a 40
        e 0 8c 4c 40
        e 16 9c 47 7f
        e 48 9c 4c 6c
        e 32 8c 4c 40
        e 16 9c 50 6c
        e 32 8c 50 40
        e 16 9c 4c 6c
        e 32 8c 47 40
        e 0 8c 4c 40
        e 16 9c 48 7f
        e 48 9c 4c 6c
        e 32 8c 4c 40
        e 16 9c 51 6c
        e 32 8c 51 40
        e 16 9c 4c 6c
        e 32 8c 4c 40
        e 64 9c 4c 6c
        e 32 8c 4c 40
        e 16 9c 51 6c
        e 32 8c 51 40
        e 16 9c 4c 6c
        e 32 8c 48 40
        e 0 8c 4c 40
        e 16 9c 48 7f
        e 48 9c 4b 6c
        e 32 8c 4b 40
        e 16 9c 51 6c
        e 32 8c 48 40
        e 0 8c 51 40
        e 16 9c 47 7f
        e 0 9c 4b 6c
        e 32 8c 47 40
        e 0 8c 4b 40
        e 16 9c 48 7f
        e 48 9c 4b 6c
        e 32 8c 4b 40
        e 16 9c 51 6c
        e 32 8c 48 40
        e 0 8c 51 40
        e 16 9c 4a 7f
        e 0 9c 4b 6c
        e 32 8c 4a 40
        e 0 8c 4b 40
        e 16 9c 47 7f
        e 0 9c 4c 6c
        e 0 9c 50 6c
        e 80 8c 4c 40
        e 0 8c 50 40
        e 16 9c 40 6c
        e 0 9c 44 6c
        e 0 9c 4c 6c
        e 32 8c 40 40
        e 0 8c 44 40
        e 0 8c 4c 40
        e 16 9c 40 6c
        e 0 9c 44 6c
        e 0 9c 4c 6c
        e 32 8c 47 40
        e 0 8c 40 40
        e 0 8c 44 40
        e 0 8c 4c 40
        e 16 9c 40 6c
        e 0 9c 44 6c
        e 0 9c 47 6c
        e 0 9c 4c 6c
        e 80 8c 40 40
        e 0 8c 44 40
        e 0 8c 47 40
        e 0 8c 4c 40
        e 16 9c 40 6c
        e 0 9c 44 6c
        e 0 9c 47 6c
        e 0 9c 4c 6c
        e 80 8c 40 40
        e 0 8c 44 40
        e 0 8c 47 40
        e 0 8c 4c 40
        e 16 9c 40 6c
        e 0 9c 44 6c
        e 0 9c 47 6c
        e 0 9c 4c 6c
        e 176 8c 40 40
        e 0 8c 44 40
        e 0 8c 47 40
        e 0 8c 4c 40
        e 16 9c 3c 6c
        e 0 9c 40 7f
        e 128 8c 3c 40
        e 0 8c 40 40
        e 16 9c 3e 6c
        e 0 9c 41 7f
        e 32 8c 3e 40
        e 0 8c 41 40
        e 16 9c 40 6c
        e 0 9c 43 7f
        e 80 8c 40 40
        e 16 9c 40 6c
        e 32 8c 40 40
        e 16 9c 40 6c
        e 32 8c 43 40
        e 0 8c 40 40
        e 16 9c 40 6c
        e 0 9c 43 7f
        e 128 8c 40 40
        e 0 8c 43 40
        e 16 9c 41 6c
        e 0 9c 45 7f
        e 32 8c 41 40
        e 0 8c 45 40
        e 16 9c 43 6c
        e 0 9c 46 7f
        e 80 8c 43 40
        e 16 9c 43 6c
        e 32 8c 43 40
        e 16 9c 43 6c
        e 32 8c 46 40
        e 0 8c 43 40
        e 16 9c 43 6c
        e 0 9c 46 7f
        e 128 8c 43 40
        e 0 8c 46 40
        e 16 9c 43 6c
        e 0 9c 46 7f
        e 32 8c 43 40
        e 0 8c 46 40
        e 16 9c 43 6c
        e 0 9c 46 7f
        e 80 8c 43 40
        e 16 9c 43 6c
        e 32 8c 43 40
        e 16 9c 43 6c
        e 32 8c 46 40
        e 0 8c 43 40
        e 16 9c 41 6c
        e 0 9c 45 7f
        e 80 8c 41 40
        e 16 9c 41 6c
        e 80 8c 45 40
        e 0 8c 41 40
        e 16 9c 41 6c
        e 0 9c 45 6c
        e 176 8c 41 40
        e 0 8c 45 40
        e 16 9c 3e 6c
        e 0 9c 42 7f
        e 128 8c 3e 40
        e 0 8c 42 40
        e 16 9c 40 6c
        e 0 9c 43 7f
        e 32 8c 40 40
        e 0 8c 43 40
        e 16 9c 42 6c
        e 0 9c 45 7f
        e 80 8c 42 40
        e 16 9c 42 6c
        e 32 8c 42 40
        e 16 9c 42 6c
        e 32 8c 45 40
        e 0 8c 42 40
        e 16 9c 42 6c
        e 0 9c 45 7f
        e 128 8c 42 40
        e 0 8c 45 40
        e 16 9c 43 6c
        e 0 9c 47 7f
        e 32 8c 43 40
        e 0 8c 47 40
        e 16 9c 45 6c
        e 0 9c 48 7f
        e 80 8c 45 40
        e 16 9c 45 6c
        e 32 8c 45 40
        e 16 9c 45 6c
        e 32 8c 48 40
        e 0 8c 45 40
        e 16 9c 45 6c
        e 0 9c 48 7f
        e 128 8c 45 40
        e 0 8c 48 40
        e 16 9c 45 6c
        e 0 9c 48 7f
        e 32 8c 45 40
        e 0 8c 48 40
        e 16 9c 43 6c
        e 0 9c 47 7f
        e 80 8c 43 40
        e 16 9c 43 6c
        e 32 8c 43 40
        e 16 9c 43 6c
        e 32 8c 43 40
        e 16 9c 43 6c
        e 80 8c 43 40
        e 16 9c 43 6c
        e 80 8c 47 40
        e 0 8c 43 40
        e 16 9c 43 6c
        e 0 9c 47 6c
        e 176 8c 43 40
        e 0 8c 47 40
        e 16 9c 47 7f
        e 0 9c 4f 6c
        e 0 9c 53 6c
        e 128 8c 47 40
        e 0 8c 4f 40
        e 0 8c 53 40
        e 16 9c 47 7f
        e 0 9c 4f 6c
        e 0 9c 53 6c
        e 32 8c 47 40
        e 0 8c 4f 40
        e 0 8c 53 40
        e 16 9c 47 7f
        e 0 9c 4f 6c
        e 0 9c 53 6c
        e 128 8c 47 40
        e 0 8c 4f 40
        e 0 8c 53 40
        e 16 9c 45 7f
        e 0 9c 4d 6c
        e 0 9c 51 6c
        e 32 8c 45 40
        e 0 8c 4d 40
        e 0 8c 51 40
        e 16 9c 47 7f
        e 0 9c 4f 6c
        e 0 9c 53 6c
        e 128 8c 47 40
        e 0 8c 4f 40
        e 0 8c 53 40
        e 16 9c 45 7f
        e 0 9c 4d 6c
        e 0 9c 51 6c
        e 32 8c 45 40
        e 0 8c 4d 40
        e 0 8c 51 40
        e 16 9c 45 7f
        e 0 9c 4d 6c
        e 0 9c 51 6c
        e 128 8c 45 40
        e 0 8c 4d 40
        e 0 8c 51 40
        e 16 9c 43 7f
        e 0 9c 4c 6c
        e 0 9c 4f 6c
        e 32 8c 43 40
        e 0 8c 4c 40
        e 0 8c 4f 40
        e 16 9c 45 7f
        e 0 9c 4d 6c
        e 0 9c 51 6c
        e 128 8c 45 40
        e 0 8c 4d 40
        e 0 8c 51 40
        e 16 9c 43 7f
        e 0 9c 4c 6c
        e 0 9c 4f 6c
        e 32 8c 43 40
        e 0 8c 4c 40
        e 0 8c 4f 40
        e 16 9c 45 7f
        e 0 9c 4d 6c
        e 0 9c 51 6c
        e 272 8c 45 40
        e 0 8c 4d 40
        e 0 8c 51 40
        e 16 9c 43 7f
        e 0 9c 4c 6c
        e 0 9c 4f 6c
        e 80 8c 43 40
        e 0 8c 4c 40
        e 0 8c 4f 40
        e 16 9c 40 7f
        e 0 9c 48 6c
        e 0 9c 4c 6c
        e 176 8c 40 40
        e 0 8c 48 40
        e 0 8c 4c 40
        e 16 9c 48 7f
        e 0 9c 54 6c
        e 128 8c 48 40
        e 0 8c 54 40
        e 16 9c 47 7f
        e 0 9c 4f 6c
        e 0 9c 53 6c
        e 32 8c 47 40
        e 0 8c 4f 40
        e 0 8c 53 40
        e 16 9c 47 7f
        e 0 9c 4f 6c
        e 0 9c 53 6c
        e 128 8c 47 40
        e 0 8c 4f 40
        e 0 8c 53 40
        e 16 9c 45 7f
        e 0 9c 4d 6c
        e 0 9c 51 6c
        e 32 8c 45 40
        e 0 8c 4d 40
        e 0 8c 51 40
        e 16 9c 47 7f
        e 0 9c 4f 6c
        e 0 9c 53 6c
        e 128 8c 47 40
        e 0 8c 4f 40
        e 0 8c 53 40
        e 16 9c 45 7f
        e 0 9c 4d 6c
        e 0 9c 51 6c
        e 32 8c 45 40
        e 0 8c 4d 40
        e 0 8c 51 40
        e 16 9c 45 7f
        e 0 9c 4d 6c
        e 0 9c 51 6c
        e 128 8c 45 40
        e 0 8c 4d 40
        e 0 8c 51 40
        e 16 9c 43 7f
        e 0 9c 4c 6c
        e 0 9c 4f 6c
        e 32 8c 43 40
        e 0 8c 4c 40
        e 0 8c 4f 40
        e 16 9c 45 7f
        e 0 9c 4d 6c
        e 0 9c 51 6c
        e 128 8c 45 40
        e 0 8c 4d 40
        e 0 8c 51 40
        e 16 9c 43 7f
        e 0 9c 4c 6c
        e 0 9c 4f 6c
        e 32 8c 43 40
        e 0 8c 4c 40
        e 0 8c 4f 40
        e 16 9c 40 7f
        e 0 9c 48 6c
        e 0 9c 4c 6c
        e 80 8c 48 40
        e 0 8c 4c 40
        e 16 9c 3c 6c
        e 0 9c 48 6c
        e 32 8c 3c 40
        e 0 8c 48 40
        e 16 9c 3c 6c
        e 0 9c 48 6c
        e 32 8c 40 40
        e 0 8c 3c 40
        e 0 8c 48 40
        e 16 9c 3c 7f
        e 0 9c 48 6c
        e 80 8c 3c 40
        e 0 8c 48 40
        e 16 9c 3e 7f
        e 0 9c 4a 6c
        e 80 8c 3e 40
        e 0 8c 4a 40
        e 16 9c 40 7f
        e 0 9c 4c 6c
        e 80 8c 40 40
        e 0 8c 4c 40
        e 16 9c 41 7f
        e 0 9c 4d 6c
        e 80 8c 41 40
        e 0 8c 4d 40
        e 16 9c 43 7f
        e 0 9c 4f 6c
        e 80 8c 43 40
        e 0 8c 4f 40
        e 16 9c 45 7f
        e 0 9c 51 6c
        e 80 8c 45 40
        e 0 8c 51 40
        e 16 9c 46 7f
        e 0 9c 52 6c
        e 80 8c 52 40
        e 16 9c 40 6c
        e 0 9c 43 6c
        e 0 9c 49 6c
        e 32 8c 40 40
        e 0 8c 43 40
        e 0 8c 49 40
        e 16 9c 40 6c
        e 0 9c 43 6c
        e 0 9c 49 6c
        e 32 8c 40 40
        e 0 8c 43 40
        e 0 8c 49 40
        e 16 9c 40 6c
        e 0 9c 43 6c
        e 0 9c 49 6c
        e 128 8c 40 40
        e 0 8c 43 40
        e 0 8c 49 40
        e 16 9c 40 6c
        e 0 9c 43 6c
        e 0 9c 49 6c
        e 32 8c 46 40
        e 0 8c 40 40
        e 0 8c 43 40
        e 0 8c 49 40
        e 16 9c 41 6c
        e 0 9c 45 6c
        e 0 9c 4a 7f
        e 176 8c 41 40
        e 0 8c 45 40
        e 0 8c 4a 40
        e 16 9c 40 6c
        e 0 9c 43 6c
        e 0 9c 45 6c
        e 0 9c 49 7f
        e 176 8c 40 40
        e 0 8c 43 40
        e 0 8c 45 40
        e 0 8c 49 40
        e 16 9c 3e 6c
        e 0 9c 45 6c
        e 0 9c 4a 7f
        e 176 8c 3e 40
        e 0 8c 45 40
        e 0 8c 4a 40
        e 16 9c 3e 6c
        e 0 9c 45 6c
        e 0 9c 4a 7f
        e 176 8c 3e 40
        e 0 8c 45 40
        e 0 8c 4a 40
        e 208 9c 48 7f
        e 0 9c 4b 6c
        e 0 9c 51 6c
        e 128 8c 48 40
        e 0 8c 4b 40
        e 0 8c 51 40
        e 16 9c 48 7f
        e 0 9c 4b 6c
        e 0 9c 51 6c
        e 32 8c 48 40
        e 0 8c 4b 40
        e 0 8c 51 40
        e 16 9c 48 6c
        e 0 9c 4c 7f
        e 0 9c 4f 6c
        e 176 8c 48 40
        e 0 8c 4c 40
        e 0 8c 4f 40
        e 16 9c 43 6c
        e 0 9c 48 7f
        e 0 9c 4c 6c
        e 128 8c 43 40
        e 0 8c 48 40
        e 0 8c 4c 40
        e 16 9c 43 6c
        e 0 9c 48 7f
        e 0 9c 4c 6c
        e 32 8c 43 40
        e 0 8c 48 40
        e 0 8c 4c 40
        e 16 9c 43 6c
        e 0 9c 4a 7f
        e 0 9c 4d 6c
        e 176 8c 43 40
        e 0 8c 4a 40
        e 0 8c 4d 40
        e 16 9c 43 6c
        e 0 9c 47 7f
        e 0 9c 4a 6c
        e 128 8c 43 40
        e 0 8c 47 40
        e 0 8c 4a 40
        e 16 9c 43 6c
        e 0 9c 47 7f
        e 0 9c 4a 6c
        e 32 8c 43 40
        e 0 8c 47 40
        e 0 8c 4a 40
        e 16 9c 43 6c
        e 0 9c 48 7f
        e 0 9c 4c 6c
        e 176 8c 43 40
        e 0 8c 48 40
        e 0 8c 4c 40
        e 16 9c 34 6c
        e 48 8c 34 40
        e 16 9c 35 6c
        e 48 8c 35 40
        e 16 9c 37 6c
        e 48 8c 37 40
        e 16 9c 39 6c
        e 48 8c 39 40
        e 16 9c 3b 6c
        e 48 8c 3b 40
        e 16 9c 3c 6c
        e 48 8c 3c 40
        e 16 9c 3e 6c
        e 0 9c 48 7f
        e 48 8c 3e 40
        e 16 9c 40 6c
        e 48 8c 40 40
        e 16 8c 48 40
        e 0 9c 41 6c
        e 16 9c 48 7f
        e 30 8c 48 40
        e 2 8c 41 40
        e 16 9c 43 6c
        e 0 9c 48 7f
        e 80 8c 43 40
        e 16 9c 4c 6c
        e 0 9c 4d 6c
        e 0 9c 4f 6c
        e 0 9c 54 6c
        e 32 8c 4c 40
        e 0 8c 4d 40
        e 0 8c 4f 40
        e 0 8c 54 40
        e 16 9c 4c 6c
        e 0 9c 4f 6c
        e 0 9c 54 6c
        e 32 8c 48 40
        e 0 8c 4c 40
        e 0 8c 4f 40
        e 0 8c 54 40
        e 16 9c 48 7f
        e 0 9c 4c 6c
        e 0 9c 4f 6c
        e 0 9c 54 6c
        e 80 8c 4c 40
        e 0 8c 4f 40
        e 0 8c 54 40
        e 16 9c 4c 6c
        e 0 9c 4f 6c
        e 0 9c 54 6c
        e 32 8c 48 40
        e 16 9c 48 7f
        e 32 8c 4c 40
        e 0 8c 4f 40
        e 0 8c 54 40
        e 0 8c 48 40
        e 16 9c 4a 7f
        e 0 9c 4d 6c
        e 0 9c 4f 6c
        e 0 9c 53 6c
        e 80 8c 4d 40
        e 0 8c 4f 40
        e 0 8c 53 40
        e 16 9c 4d 6c
        e 0 9c 4f 6c
        e 0 9c 53 6c
        e 32 8c 4d 40
        e 0 8c 4f 40
        e 0 8c 53 40
        e 16 9c 4d 6c
        e 0 9c 4f 6c
        e 0 9c 53 6c
        e 32 8c 4a 40
        e 0 8c 4d 40
        e 0 8c 4f 40
        e 0 8c 53 40
        e 16 9c 47 7f
        e 0 9c 4a 6c
        e 0 9c 4d 6c
        e 0 9c 4f 6c
        e 0 9c 53 6c
        e 80 8c 4a 40
        e 0 8c 4d 40
        e 0 8c 4f 40
        e 0 8c 53 40
        e 16 9c 4a 6c
        e 0 9c 4d 6c
        e 0 9c 4f 6c
        e 0 9c 53 6c
        e 32 8c 47 40
        e 16 9c 47 7f
        e 30 8c 47 40
        e 2 8c 4a 40
        e 0 8c 4d 40
        e 0 8c 4f 40
        e 0 8c 53 40
        e 16 9c 48 7f
        e 0 9c 4c 6c
        e 0 9c 54 6c
        e 176 8c 48 40
        e 0 8c 4c 40
        e 0 8c 54 40
        e 16 9c 34 6c
        e 48 8c 34 40
        e 16 9c 35 6c
        e 48 8c 35 40
        e 16 9c 37 6c
        e 48 8c 37 40
        e 16 9c 39 6c
        e 48 8c 39 40
        e 16 9c 3b 6c
        e 48 8c 3b 40
        e 16 9c 3c 6c
        e 48 8c 3c 40
        e 16 9c 3e 6c
        e 0 9c 48 7f
        e 48 8c 3e 40
        e 16 9c 40 6c
        e 48 8c 40 40
        e 16 8c 48 40
        e 0 9c 41 6c
        e 16 9c 48 7f
        e 32 8c 41 40
        e 0 8c 48 40
        e 16 9c 43 6c
        e 0 9c 4c 7f
        e 80 8c 43 40
        e 16 9c 48 6c
        e 0 9c 54 6c
        e 32 8c 48 40
        e 0 8c 54 40
        e 16 9c 48 6c
        e 0 9c 4f 6c
        e 0 9c 54 6c
        e 30 8c 4c 40
        e 2 8c 48 40
        e 0 8c 4f 40
        e 0 8c 54 40
        e 16 9c 48 7f
        e 0 9c 4c 6c
        e 0 9c 4f 6c
        e 0 9c 54 6c
        e 80 8c 4c 40
        e 0 8c 4f 40
        e 0 8c 54 40
        e 16 9c 4c 6c
        e 0 9c 4f 6c
        e 0 9c 54 6c
        e 27 8c 48 40
        e 21 9c 48 7f
        e 32 8c 4c 40
        e 0 8c 4f 40
        e 0 8c 54 40
        e 0 8c 48 40
        e 16 9c 4a 7f
        e 0 9c 4d 6c
        e 0 9c 4f 6c
        e 0 9c 53 6c
        e 80 8c 4d 40
        e 0 8c 4f 40
        e 0 8c 53 40
        e 16 9c 4d 6c
        e 0 9c 4f 6c
        e 0 9c 53 6c
        e 32 8c 4d 40
        e 0 8c 4f 40
        e 0 8c 53 40
        e 16 9c 4d 6c
        e 0 9c 4f 6c
        e 0 9c 53 6c
        e 32 8c 4a 40
        e 0 8c 4d 40
        e 0 8c 4f 40
        e 0 8c 53 40
        e 16 9c 47 7f
        e 0 9c 4a 6c
        e 0 9c 4d 6c
        e 0 9c 4f 6c
        e 0 9c 53 6c
        e 80 8c 4a 40
        e 0 8c 4d 40
        e 0 8c 4f 40
        e 0 8c 53 40
        e 16 9c 4a 6c
        e 0 9c 4d 6c
        e 0 9c 4f 6c
        e 0 9c 53 6c
        e 32 8c 47 40
        e 16 9c 47 7f
        e 32 8c 4a 40
        e 0 8c 4d 40
        e 0 8c 4f 40
        e 0 8c 53 40
        e 0 8c 47 40
        e 16 9c 48 7f
        e 0 9c 4c 6c
        e 0 9c 4f 6c
        e 0 9c 54 6c
        e 176 8c 48 40
        e 0 8c 4c 40
        e 0 8c 4f 40
        e 0 8c 54 40
        e 16 9c 48 6c
        e 48 8c 48 40
        e 16 9c 43 6c
        e 48 8c 43 40
        e 16 9c 4c 6c
        e 48 8c 4c 40
        e 16 9c 48 6c
        e 48 8c 48 40
        e 16 9c 43 6c
        e 48 8c 43 40
        e 16 9c 4c 6c
        e 48 8c 4c 40
        e 16 9c 48 6c
        e 48 8c 48 40
        e 16 9c 43 6c
        e 48 8c 43 40
        e 16 9c 4c 6c
        e 48 8c 4c 40
        e 16 9c 48 6c
        e 48 8c 48 40
        e 16 9c 54 6c
        e 48 8c 54 40
        e 16 9c 53 6c
        e 48 8c 53 40
        e 16 9c 54 6c
        e 48 8c 54 40
        e 16 9c 4f 6c
        e 48 8c 4f 40
        e 16 9c 4c 6c
        e 48 8c 4c 40
        e 16 9c 48 6c
        e 48 8c 48 40
        e 16 9c 48 6c
        e 48 8c 48 40
        e 16 9c 47 6c
        e 48 8c 47 40
        e 16 9c 48 6c
        e 48 8c 48 40
        e 16 9c 43 6c
        e 48 8c 43 40
        e 16 9c 40 6c
        e 48 8c 40 40
        e 16 9c 3c 6c
        e 176 8c 3c 40
        e 16 9c 40 6c
        e 0 9c 43 6c
        e 0 9c 48 6c
        e 128 8c 40 40
        e 0 8c 43 40
        e 0 8c 48 40
        e 16 9c 40 6c
        e 0 9c 43 6c
        e 0 9c 48 6c
        e 32 8c 40 40
        e 0 8c 43 40
        e 0 8c 48 40
        e 16 9c 40 6c
        e 0 9c 43 6c
        e 0 9c 48 6c
        e 176 8c 40 40
        e 0 8c 43 40
        e 0 8c 48 40
        E 16 b0 7b 00
        GUID {74957ACD-C419-3E42-BA2A-3C4C31510BA7}
        IGNTEMPO 0 120 4 4
        SRCCOLOR 914
        VELLANE -1 86 6
        CFGEDITVIEW 0 0 50 24 0 0 0 0 0 0.5
        KEYSNAP 0
        TRACKSEL 226
        EVTFILTER 0 -1 -1 -1 -1 0 1 0 0 -1 -1 -1 -1 0 -1 0 -1 -1
        CFGEDIT 1 0 0 0 0 0 1 0 1 1 1 0.25 16 63 1280 778 0 0 2 3 0 0 0 0 0 0.5 0 0 1 64
      >
    >
    <ITEM
      POSITION 0
      SNAPOFFS 0
      LENGTH 96
      LOOP 1
      ALLTAKES 0
      FADEIN 1 0 0 1 0 0
      FADEOUT 1 0 0 1 0 0
      MUTE 0
      SEL 0
      YPOS 0.634351 0.05
      IGUID {3C4E544A-F778-AA40-937C-01A3EFB65437}
      IID 20
      NAME "lh                   - National_Anthems_-_Chile.mid"
      VOLPAN 1 0 1 -1
      SOFFS 21.5 43
      PLAYRATE 1 1 0 -1 0 0.0025
      CHANMODE 0
      TAKECOLOR 26173599 B
      GUID {711801E8-34CF-4347-A066-AEE24D1C0DBF}
      <SOURCE MIDI
        HASDATA 1 192 QN
        POOLEDEVTS {D5783551-E05D-044A-A960-8BFDB1582C67}
        <X 0 0 0 0 3 "lh                  "
          /wNsaCAgICAgICAgICAgICAgICAgIA==
        >
        e 720 90 37 64
        e 16 90 39 64
        e 6 80 37 40
        e 2 90 3b 64
        e 14 80 39 40
        e 8 80 3b 40
        e 2 90 30 64
        e 0 90 3c 64
        e 334 80 30 40
        e 0 80 3c 40
        e 2 90 2f 64
        e 0 90 3b 64
        e 46 80 2f 40
        e 0 80 3b 40
        e 2 90 30 64
        e 0 90 3c 64
        e 142 80 30 40
        e 0 80 3c 40
        e 2 90 2c 64
        e 0 90 38 64
        e 46 80 2c 40
        e 0 80 38 40
        e 2 90 2d 64
        e 0 90 39 64
        e 142 80 2d 40
        e 0 80 39 40
        e 2 90 28 64
        e 0 90 34 64
        e 46 80 28 40
        e 0 80 34 40
        e 2 90 29 64
        e 0 90 35 64
        e 142 80 29 40
        e 0 80 35 40
        e 2 90 25 64
        e 0 90 31 64
        e 46 80 25 40
        e 0 80 31 40
        e 2 90 26 64
        e 0 90 32 64
        e 142 80 26 40
        e 0 80 32 40
        e 2 90 2e 64
        e 46 80 2e 40
        e 2 90 2f 64
        e 190 80 2f 40
        e 194 90 2b 64
        e 0 90 37 64
        e 94 80 2b 40
        e 0 80 37 40
        e 2 90 2b 64
        e 0 90 37 64
        e 46 80 2b 40
        e 0 80 37 40
        e 2 90 2b 64
        e 0 90 37 64
        e 46 80 2b 40
        e 0 80 37 40
        e 2 90 2b 64
        e 0 90 37 64
        e 94 80 2b 40
        e 0 80 37 40
        e 2 90 2b 64
        e 0 90 37 64
        e 94 80 2b 40
        e 0 80 37 40
        e 2 90 2b 64
        e 0 90 37 64
        e 94 80 2b 40
        e 0 80 37 40
        e 2 90 2c 64
        e 0 90 38 64
        e 94 80 2c 40
        e 0 80 38 40
        e 2 90 2d 64
        e 0 90 39 64
        e 94 80 2d 40
        e 0 80 39 40
        e 2 90 2f 64
        e 0 90 3b 64
        e 94 80 2f 40
        e 0 80 3b 40
        e 2 90 30 64
        e 0 90 3c 64
        e 190 80 30 40
        e 0 80 3c 40
        e 2 90 2b 64
        e 0 90 37 64
        e 190 80 2b 40
        e 0 80 37 40
        e 2 90 30 64
        e 0 90 37 64
        e 190 80 30 40
        e 0 80 37 40
        e 194 90 30 64
        e 0 90 35 64
        e 0 90 39 64
        e 94 80 30 40
        e 0 80 35 40
        e 0 80 39 40
        e 2 90 30 64
        e 0 90 35 64
        e 0 90 39 64
        e 94 80 30 40
        e 0 80 35 40
        e 0 80 39 40
        e 2 90 30 64
        e 0 90 35 64
        e 0 90 39 64
        e 94 80 30 40
        e 0 80 35 40
        e 0 80 39 40
        e 2 90 30 64
        e 0 90 35 64
        e 0 90 39 64
        e 94 80 30 40
        e 0 80 35 40
        e 0 80 39 40
        e 2 90 30 64
        e 0 90 35 64
        e 0 90 39 64
        e 94 80 30 40
        e 0 80 35 40
        e 0 80 39 40
        e 2 90 30 64
        e 0 90 35 64
        e 0 90 39 64
        e 94 80 30 40
        e 0 80 35 40
        e 0 80 39 40
        e 2 90 30 64
        e 0 90 35 64
        e 0 90 39 64
        e 94 80 30 40
        e 0 80 35 40
        e 0 80 39 40
        e 2 90 30 64
        e 0 90 35 64
        e 0 90 39 64
        e 94 80 30 40
        e 0 80 35 40
        e 0 80 39 40
        e 2 90 30 64
        e 0 90 37 64
        e 190 80 30 40
        e 0 80 37 40
        e 2 90 2b 64
        e 0 90 37 64
        e 190 80 2b 40
        e 0 80 37 40
        e 2 90 30 64
        e 0 90 37 64
        e 190 80 30 40
        e 0 80 37 40
        e 194 90 2c 64
        e 0 90 38 64
        e 80 80 2c 40
        e 0 80 38 40
        e 16 90 2c 64
        e 0 90 38 64
        e 32 80 2c 40
        e 0 80 38 40
        e 16 90 2c 64
        e 0 90 38 64
        e 32 80 2c 40
        e 0 80 38 40
        e 16 90 2c 64
        e 0 90 38 64
        e 80 80 2c 40
        e 0 80 38 40
        e 16 90 2c 64
        e 0 90 38 64
        e 80 80 2c 40
        e 0 80 38 40
        e 16 90 2c 64
        e 0 90 38 64
        e 80 80 2c 40
        e 0 80 38 40
        e 16 90 2c 64
        e 0 90 38 64
        e 80 80 2c 40
        e 0 80 38 40
        e 16 90 2c 64
        e 0 90 38 64
        e 80 80 2c 40
        e 0 80 38 40
        e 16 90 2c 64
        e 0 90 38 64
        e 80 80 2c 40
        e 0 80 38 40
        e 16 90 2b 64
        e 0 90 37 64
        e 80 80 2b 40
        e 0 80 37 40
        e 16 90 2b 64
        e 0 90 37 64
        e 80 80 2b 40
        e 0 80 37 40
        e 16 90 2b 64
        e 0 90 37 64
        e 80 80 2b 40
        e 0 80 37 40
        e 16 90 2b 64
        e 0 90 37 64
        e 80 80 2b 40
        e 0 80 37 40
        e 16 90 2b 64
        e 0 90 37 64
        e 80 80 2b 40
        e 0 80 37 40
        e 16 90 2b 64
        e 0 90 37 64
        e 80 80 2b 40
        e 0 80 37 40
        e 16 90 2b 64
        e 0 90 37 64
        e 80 80 2b 40
        e 0 80 37 40
        e 16 90 2b 64
        e 0 90 37 64
        e 80 80 2b 40
        e 0 80 37 40
        e 16 90 30 64
        e 0 90 37 64
        e 176 80 30 40
        e 0 80 37 40
        e 112 90 2b 64
        e 16 80 2b 40
        e 16 90 2d 64
        e 16 80 2d 40
        e 16 90 2f 64
        e 16 80 2f 40
        e 16 90 30 64
        e 80 80 30 40
        e 16 90 2b 64
        e 16 80 2b 40
        e 16 90 2d 64
        e 16 80 2d 40
        e 16 90 2f 64
        e 16 80 2f 40
        e 16 90 30 64
        e 80 80 30 40
        e 16 90 2b 64
        e 16 80 2b 40
        e 16 90 2d 64
        e 16 80 2d 40
        e 16 90 2f 64
        e 16 80 2f 40
        e 16 90 30 64
        e 176 80 30 40
        e 16 90 24 64
        e 0 90 30 64
        e 128 80 24 40
        e 0 80 30 40
        e 16 90 24 64
        e 0 90 30 64
        e 32 80 24 40
        e 0 80 30 40
        e 16 90 24 64
        e 0 90 30 64
        e 176 80 24 40
        e 0 80 30 40
        e 208 90 30 64
        e 80 80 30 40
        e 16 90 3c 64
        e 80 80 3c 40
        e 16 90 3c 64
        e 80 80 3c 40
        e 16 90 3c 64
        e 80 80 3c 40
        e 16 90 30 64
        e 80 80 30 40
        e 16 90 3c 64
        e 80 80 3c 40
        e 16 90 3c 64
        e 80 80 3c 40
        e 16 90 3c 64
        e 80 80 3c 40
        e 16 90 30 64
        e 80 80 30 40
        e 16 90 3c 64
        e 80 80 3c 40
        e 16 90 3c 64
        e 80 80 3c 40
        e 16 90 3c 64
        e 80 80 3c 40
        e 16 90 30 64
        e 176 80 30 40
        e 208 90 2f 64
        e 80 80 2f 40
        e 16 90 37 64
        e 80 80 37 40
        e 16 90 2f 64
        e 80 80 2f 40
        e 16 90 37 64
        e 80 80 37 40
        e 16 90 30 64
        e 80 80 30 40
        e 16 90 37 64
        e 80 80 37 40
        e 16 90 30 64
        e 80 80 30 40
        e 16 90 37 64
        e 80 80 37 40
        e 16 90 2b 64
        e 80 80 2b 40
        e 16 90 2b 64
        e 0 90 37 64
        e 32 80 2b 40
        e 0 80 37 40
        e 16 90 2b 64
        e 0 90 37 64
        e 32 80 2b 40
        e 0 80 37 40
        e 16 90 2b 64
        e 0 90 37 64
        e 80 80 2b 40
        e 0 80 37 40
        e 16 90 2b 64
        e 0 90 37 64
        e 80 80 2b 40
        e 0 80 37 40
        e 16 90 2b 64
        e 0 90 37 64
        e 80 80 2b 40
        e 0 80 37 40
        e 304 90 30 64
        e 80 80 30 40
        e 16 90 3c 64
        e 80 80 3c 40
        e 16 90 3c 64
        e 80 80 3c 40
        e 16 90 3c 64
        e 80 80 3c 40
        e 16 90 30 64
        e 80 80 30 40
        e 16 90 3c 64
        e 80 80 3c 40
        e 16 90 3c 64
        e 80 80 3c 40
        e 16 90 3c 64
        e 80 80 3c 40
        e 16 90 30 64
        e 80 80 30 40
        e 16 90 3c 64
        e 80 80 3c 40
        e 16 90 3c 64
        e 80 80 3c 40
        e 16 90 3c 64
        e 80 80 3c 40
        e 16 90 30 64
        e 176 80 30 40
        e 208 90 32 64
        e 80 80 32 40
        e 112 90 32 64
        e 80 80 32 40
        e 112 90 26 64
        e 80 80 26 40
        e 112 90 26 64
        e 80 80 26 40
        e 112 90 2b 64
        e 176 80 2b 40
        e 16 90 2b 64
        e 0 90 37 64
        e 128 80 2b 40
        e 0 80 37 40
        e 16 90 2b 64
        e 0 90 37 64
        e 32 80 2b 40
        e 0 80 37 40
        e 16 90 2b 64
        e 0 90 37 64
        e 176 80 2b 40
        e 0 80 37 40
        e 208 90 27 64
        e 0 90 33 64
        e 368 80 27 40
        e 0 80 33 40
        e 16 90 2b 64
        e 0 90 33 64
        e 368 80 2b 40
        e 0 80 33 40
        e 16 90 2e 64
        e 0 90 35 64
        e 368 80 2e 40
        e 0 80 35 40
        e 16 90 2e 64
        e 0 90 35 64
        e 176 80 2e 40
        e 0 80 35 40
        e 208 90 2e 64
        e 0 90 35 64
        e 368 80 2e 40
        e 0 80 35 40
        e 16 90 2e 64
        e 0 90 35 64
        e 368 80 2e 40
        e 0 80 35 40
        e 16 90 33 64
        e 0 90 37 64
        e 368 80 33 40
        e 0 80 37 40
        e 16 90 27 64
        e 0 90 33 64
        e 176 80 27 40
        e 0 80 33 40
        e 208 90 2c 64
        e 0 90 38 64
        e 176 80 2c 40
        e 0 80 38 40
        e 208 90 2c 64
        e 0 90 38 64
        e 176 80 2c 40
        e 0 80 38 40
        e 16 90 2c 64
        e 0 90 38 64
        e 176 80 2c 40
        e 0 80 38 40
        e 16 90 2b 64
        e 0 90 37 64
        e 176 80 2b 40
        e 0 80 37 40
        e 16 90 2b 64
        e 0 90 37 64
        e 128 80 2b 40
        e 0 80 37 40
        e 16 90 2b 64
        e 0 90 37 64
        e 32 80 2b 40
        e 0 80 37 40
        e 16 90 2b 64
        e 0 90 37 64
        e 176 80 2b 40
        e 0 80 37 40
        e 208 90 30 64
        e 0 90 37 64
        e 80 80 30 40
        e 0 80 37 40
        e 112 90 30 64
        e 0 90 37 64
        e 80 80 30 40
        e 0 80 37 40
        e 112 90 30 64
        e 0 90 37 64
        e 80 80 30 40
        e 0 80 37 40
        e 112 90 30 64
        e 0 90 37 64
        e 80 80 30 40
        e 0 80 37 40
        e 112 90 30 64
        e 0 90 37 64
        e 176 80 30 40
        e 0 80 37 40
        e 16 90 29 64
        e 0 90 35 64
        e 368 80 29 40
        e 0 80 35 40
        e 208 90 2b 64
        e 0 90 35 64
        e 80 80 2b 40
        e 0 80 35 40
        e 112 90 2b 64
        e 0 90 35 64
        e 80 80 2b 40
        e 0 80 35 40
        e 112 90 2b 64
        e 0 90 35 64
        e 80 80 2b 40
        e 0 80 35 40
        e 112 90 2b 64
        e 0 90 35 64
        e 80 80 2b 40
        e 0 80 35 40
        e 112 90 30 64
        e 176 80 30 40
        e 16 90 24 64
        e 80 80 24 40
        e 112 90 29 64
        e 0 90 35 64
        e 176 80 29 40
        e 0 80 35 40
        e 208 90 2b 64
        e 0 90 37 64
        e 176 80 2b 40
        e 0 80 37 40
        e 208 90 2b 64
        e 0 90 37 64
        e 176 80 2b 40
        e 0 80 37 40
        e 208 90 24 64
        e 0 90 30 64
        e 176 80 24 40
        e 0 80 30 40
        e 208 90 29 64
        e 0 90 35 64
        e 176 80 29 40
        e 0 80 35 40
        e 16 90 29 64
        e 0 90 35 64
        e 176 80 29 40
        e 0 80 35 40
        e 16 90 30 64
        e 0 90 34 64
        e 80 80 30 40
        e 0 80 34 40
        e 112 90 29 64
        e 0 90 35 64
        e 80 80 29 40
        e 0 80 35 40
        e 112 90 2b 64
        e 80 80 2b 40
        e 112 90 2b 64
        e 0 90 35 64
        e 80 80 2b 40
        e 0 80 35 40
        e 112 90 24 64
        e 0 90 30 64
        e 80 80 24 40
        e 0 80 30 40
        e 16 90 28 64
        e 0 90 34 64
        e 32 80 28 40
        e 0 80 34 40
        e 16 90 28 64
        e 0 90 34 64
        e 32 80 28 40
        e 0 80 34 40
        e 16 90 28 64
        e 0 90 34 64
        e 80 80 28 40
        e 0 80 34 40
        e 16 90 28 64
        e 0 90 34 64
        e 80 80 28 40
        e 0 80 34 40
        e 16 90 28 64
        e 0 90 34 64
        e 80 80 28 40
        e 0 80 34 40
        e 16 90 28 64
        e 0 90 34 64
        e 80 80 28 40
        e 0 80 34 40
        e 16 90 28 64
        e 0 90 34 64
        e 80 80 28 40
        e 0 80 34 40
        e 16 90 28 64
        e 0 90 34 64
        e 80 80 28 40
        e 0 80 34 40
        e 16 90 28 64
        e 96 90 34 64
        e 80 80 34 40
        e 16 90 34 64
        e 80 80 34 40
        e 16 90 34 64
        e 80 80 28 40
        e 0 80 34 40
        e 16 90 28 64
        e 96 90 34 64
        e 80 80 34 40
        e 16 90 34 64
        e 80 80 34 40
        e 16 90 34 64
        e 80 80 28 40
        e 0 80 34 40
        e 16 90 28 64
        e 96 90 34 64
        e 80 80 34 40
        e 16 90 34 64
        e 80 80 34 40
        e 16 90 34 64
        e 80 80 28 40
        e 0 80 34 40
        e 16 90 28 64
        e 96 90 34 64
        e 80 80 34 40
        e 16 90 34 64
        e 80 80 34 40
        e 16 90 34 64
        e 80 80 28 40
        e 0 80 34 40
        e 16 90 34 64
        e 80 80 34 40
        e 16 90 39 64
        e 0 90 3c 64
        e 80 80 39 40
        e 0 80 3c 40
        e 16 90 34 64
        e 80 80 34 40
        e 16 90 39 64
        e 0 90 3c 64
        e 80 80 39 40
        e 0 80 3c 40
        e 16 90 34 64
        e 80 80 34 40
        e 16 90 39 64
        e 0 90 3c 64
        e 80 80 39 40
        e 0 80 3c 40
        e 16 90 34 64
        e 80 80 34 40
        e 16 90 39 64
        e 0 90 3c 64
        e 0 90 3f 64
        e 80 80 39 40
        e 0 80 3c 40
        e 0 80 3f 40
        e 16 90 34 64
        e 0 90 40 64
        e 80 80 34 40
        e 0 80 40 40
        e 16 90 28 64
        e 0 90 34 64
        e 32 80 28 40
        e 0 80 34 40
        e 16 90 28 64
        e 0 90 34 64
        e 32 80 28 40
        e 0 80 34 40
        e 16 90 28 64
        e 0 90 34 64
        e 80 80 28 40
        e 0 80 34 40
        e 16 90 28 64
        e 0 90 34 64
        e 80 80 28 40
        e 0 80 34 40
        e 16 90 28 64
        e 0 90 34 64
        e 80 80 28 40
        e 0 80 34 40
        e 16 90 28 64
        e 0 90 34 64
        e 32 80 28 40
        e 0 80 34 40
        e 16 90 28 64
        e 0 90 34 64
        e 32 80 28 40
        e 0 80 34 40
        e 16 90 28 64
        e 0 90 34 64
        e 80 80 28 40
        e 0 80 34 40
        e 16 90 28 64
        e 0 90 34 64
        e 80 80 28 40
        e 0 80 34 40
        e 16 90 28 64
        e 96 90 34 64
        e 80 80 34 40
        e 16 90 34 64
        e 80 80 34 40
        e 16 90 34 64
        e 80 80 28 40
        e 0 80 34 40
        e 16 90 28 64
        e 96 90 34 64
        e 80 80 34 40
        e 16 90 34 64
        e 80 80 34 40
        e 16 90 34 64
        e 80 80 28 40
        e 0 80 34 40
        e 16 90 28 64
        e 96 90 34 64
        e 80 80 34 40
        e 16 90 34 64
        e 80 80 34 40
        e 16 90 34 64
        e 80 80 28 40
        e 0 80 34 40
        e 16 90 28 64
        e 96 90 34 64
        e 80 80 34 40
        e 16 90 34 64
        e 80 80 34 40
        e 16 90 34 64
        e 80 80 28 40
        e 0 80 34 40
        e 16 90 34 64
        e 80 80 34 40
        e 16 90 39 64
        e 0 90 3c 64
        e 80 80 39 40
        e 0 80 3c 40
        e 16 90 34 64
        e 80 80 34 40
        e 16 90 39 64
        e 0 90 3c 64
        e 80 80 39 40
        e 0 80 3c 40
        e 16 90 34 64
        e 80 80 34 40
        e 16 90 39 64
        e 0 90 3c 64
        e 80 80 39 40
        e 0 80 3c 40
        e 16 90 34 64
        e 80 80 34 40
        e 16 90 39 64
        e 0 90 3c 64
        e 0 90 3f 64
        e 80 80 39 40
        e 0 80 3c 40
        e 0 80 3f 40
        e 16 90 34 64
        e 0 90 40 64
        e 80 80 34 40
        e 0 80 40 40
        e 16 90 40 64
        e 80 80 40 40
        e 16 90 3b 64
        e 80 80 3b 40
        e 16 90 38 64
        e 80 80 38 40
        e 16 90 34 64
        e 176 80 34 40
        e 208 90 24 64
        e 0 90 30 64
        e 80 80 24 40
        e 0 80 30 40
        e 16 90 30 64
        e 80 80 30 40
        e 16 90 30 64
        e 0 90 3a 64
        e 80 80 30 40
        e 0 80 3a 40
        e 16 90 30 64
        e 80 80 30 40
        e 16 90 24 64
        e 0 90 30 64
        e 80 80 24 40
        e 0 80 30 40
        e 16 90 30 64
        e 80 80 30 40
        e 16 90 30 64
        e 0 90 3a 64
        e 80 80 30 40
        e 0 80 3a 40
        e 16 90 30 64
        e 80 80 30 40
        e 16 90 29 64
        e 80 80 29 40
        e 16 90 35 64
        e 80 80 35 40
        e 16 90 30 64
        e 80 80 30 40
        e 16 90 2d 64
        e 80 80 2d 40
        e 16 90 29 64
        e 176 80 29 40
        e 208 90 26 64
        e 0 90 32 64
        e 80 80 26 40
        e 0 80 32 40
        e 16 90 32 64
        e 80 80 32 40
        e 16 90 36 64
        e 0 90 3c 64
        e 80 80 36 40
        e 0 80 3c 40
        e 16 90 32 64
        e 80 80 32 40
        e 16 90 26 64
        e 0 90 32 64
        e 80 80 26 40
        e 0 80 32 40
        e 16 90 32 64
        e 80 80 32 40
        e 16 90 36 64
        e 0 90 3c 64
        e 80 80 36 40
        e 0 80 3c 40
        e 16 90 32 64
        e 80 80 32 40
        e 16 90 2b 64
        e 80 80 2b 40
        e 16 90 37 64
        e 80 80 37 40
        e 16 90 32 64
        e 80 80 32 40
        e 16 90 2f 64
        e 80 80 2f 40
        e 16 90 2b 64
        e 176 80 2b 40
        e 208 90 2b 64
        e 80 80 2b 40
        e 16 90 32 64
        e 80 80 32 40
        e 16 90 35 64
        e 0 90 37 64
        e 80 80 35 40
        e 0 80 37 40
        e 16 90 32 64
        e 80 80 32 40
        e 16 90 35 64
        e 0 90 37 64
        e 0 90 3b 64
        e 80 80 35 40
        e 0 80 37 40
        e 0 80 3b 40
        e 16 90 32 64
        e 80 80 32 40
        e 16 90 35 64
        e 0 90 37 64
        e 0 90 3b 64
        e 80 80 35 40
        e 0 80 37 40
        e 0 80 3b 40
        e 16 90 32 64
        e 80 80 32 40
        e 16 90 30 64
        e 80 80 30 40
        e 16 90 34 64
        e 80 80 34 40
        e 16 90 37 64
        e 0 90 3c 64
        e 80 80 37 40
        e 0 80 3c 40
        e 16 90 34 64
        e 80 80 34 40
        e 16 90 37 64
        e 0 90 3c 64
        e 80 80 37 40
        e 0 80 3c 40
        e 16 90 34 64
        e 80 80 34 40
        e 16 90 37 64
        e 0 90 3c 64
        e 0 90 40 64
        e 176 80 37 40
        e 0 80 3c 40
        e 0 80 40 40
        e 16 90 2b 64
        e 80 80 2b 40
        e 16 90 32 64
        e 80 80 32 40
        e 16 90 35 64
        e 0 90 37 64
        e 80 80 35 40
        e 0 80 37 40
        e 16 90 32 64
        e 80 80 32 40
        e 16 90 35 64
        e 0 90 37 64
        e 0 90 3b 64
        e 80 80 35 40
        e 0 80 37 40
        e 0 80 3b 40
        e 16 90 32 64
        e 80 80 32 40
        e 16 90 35 64
        e 0 90 37 64
        e 0 90 3b 64
        e 80 80 35 40
        e 0 80 37 40
        e 0 80 3b 40
        e 16 90 32 64
        e 80 80 32 40
        e 16 90 30 64
        e 80 80 30 40
        e 16 90 24 64
        e 0 90 30 64
        e 32 80 24 40
        e 0 80 30 40
        e 16 90 24 64
        e 0 90 30 64
        e 32 80 24 40
        e 0 80 30 40
        e 16 90 24 64
        e 0 90 30 64
        e 80 80 24 40
        e 0 80 30 40
        e 16 90 26 64
        e 0 90 32 64
        e 80 80 26 40
        e 0 80 32 40
        e 16 90 28 64
        e 0 90 34 64
        e 80 80 28 40
        e 0 80 34 40
        e 16 90 29 64
        e 0 90 35 64
        e 80 80 29 40
        e 0 80 35 40
        e 16 90 2b 64
        e 0 90 37 64
        e 80 80 2b 40
        e 0 80 37 40
        e 16 90 2d 64
        e 0 90 39 64
        e 80 80 2d 40
        e 0 80 39 40
        e 16 90 2e 64
        e 0 90 3a 64
        e 176 80 2e 40
        e 0 80 3a 40
        e 16 90 2e 64
        e 0 90 3a 64
        e 128 80 2e 40
        e 0 80 3a 40
        e 16 90 2e 64
        e 0 90 3a 64
        e 32 80 2e 40
        e 0 80 3a 40
        e 16 90 2d 64
        e 0 90 39 64
        e 176 80 2d 40
        e 0 80 39 40
        e 16 90 2b 64
        e 0 90 37 64
        e 176 80 2b 40
        e 0 80 37 40
        e 16 90 29 64
        e 0 90 35 64
        e 176 80 29 40
        e 0 80 35 40
        e 16 90 29 64
        e 0 90 35 64
        e 176 80 29 40
        e 0 80 35 40
        e 208 90 2a 64
        e 0 90 36 64
        e 128 80 2a 40
        e 0 80 36 40
        e 16 90 2a 64
        e 0 90 36 64
        e 32 80 2a 40
        e 0 80 36 40
        e 16 90 2b 64
        e 0 90 37 64
        e 176 80 2b 40
        e 0 80 37 40
        e 16 90 2b 64
        e 0 90 37 64
        e 128 80 2b 40
        e 0 80 37 40
        e 16 90 2b 64
        e 0 90 37 64
        e 32 80 2b 40
        e 0 80 37 40
        e 16 90 2b 64
        e 0 90 37 64
        e 176 80 2b 40
        e 0 80 37 40
        e 16 90 2b 64
        e 0 90 37 64
        e 128 80 2b 40
        e 0 80 37 40
        e 16 90 2b 64
        e 0 90 37 64
        e 32 80 2b 40
        e 0 80 37 40
        e 16 90 24 64
        e 0 90 30 64
        e 176 80 24 40
        e 0 80 30 40
        e 16 90 28 64
        e 48 80 28 40
        e 16 90 29 64
        e 48 80 29 40
        e 16 90 2b 64
        e 48 80 2b 40
        e 16 90 2d 64
        e 48 80 2d 40
        e 16 90 2f 64
        e 48 80 2f 40
        e 16 90 30 64
        e 48 80 30 40
        e 16 90 32 64
        e 48 80 32 40
        e 16 90 34 64
        e 48 80 34 40
        e 16 90 35 64
        e 48 80 35 40
        e 16 90 37 64
        e 80 80 37 40
        e 16 90 2b 64
        e 0 90 37 64
        e 32 80 2b 40
        e 0 80 37 40
        e 16 90 2b 64
        e 0 90 37 64
        e 32 80 2b 40
        e 0 80 37 40
        e 16 90 2b 64
        e 0 90 37 64
        e 80 80 2b 40
        e 0 80 37 40
        e 16 90 2b 64
        e 0 90 37 64
        e 80 80 2b 40
        e 0 80 37 40
        e 16 90 2b 64
        e 0 90 37 64
        e 80 80 2b 40
        e 0 80 37 40
        e 16 90 2b 64
        e 0 90 37 64
        e 32 80 2b 40
        e 0 80 37 40
        e 16 90 2b 64
        e 0 90 37 64
        e 32 80 2b 40
        e 0 80 37 40
        e 16 90 2b 64
        e 0 90 37 64
        e 80 80 2b 40
        e 0 80 37 40
        e 16 90 2b 64
        e 0 90 37 64
        e 80 80 2b 40
        e 0 80 37 40
        e 16 90 24 64
        e 0 90 30 64
        e 176 80 24 40
        e 0 80 30 40
        e 16 90 28 64
        e 48 80 28 40
        e 16 90 29 64
        e 48 80 29 40
        e 16 90 2b 64
        e 48 80 2b 40
        e 16 90 2d 64
        e 48 80 2d 40
        e 16 90 2f 64
        e 48 80 2f 40
        e 16 90 30 64
        e 48 80 30 40
        e 16 90 32 64
        e 48 80 32 40
        e 16 90 34 64
        e 48 80 34 40
        e 16 90 35 64
        e 48 80 35 40
        e 16 90 37 64
        e 80 80 37 40
        e 16 90 2b 64
        e 0 90 37 64
        e 32 80 2b 40
        e 0 80 37 40
        e 16 90 2b 64
        e 0 90 37 64
        e 32 80 2b 40
        e 0 80 37 40
        e 16 90 2b 64
        e 0 90 37 64
        e 80 80 2b 40
        e 0 80 37 40
        e 16 90 2b 64
        e 0 90 37 64
        e 80 80 2b 40
        e 0 80 37 40
        e 16 90 2b 64
        e 0 90 37 64
        e 80 80 2b 40
        e 0 80 37 40
        e 16 90 2b 64
        e 0 90 37 64
        e 32 80 2b 40
        e 0 80 37 40
        e 16 90 2b 64
        e 0 90 37 64
        e 32 80 2b 40
        e 0 80 37 40
        e 16 90 2b 64
        e 0 90 37 64
        e 80 80 2b 40
        e 0 80 37 40
        e 16 90 2b 64
        e 0 90 37 64
        e 80 80 2b 40
        e 0 80 37 40
        e 16 90 24 64
        e 0 90 30 64
        e 176 80 24 40
        e 0 80 30 40
        e 16 90 30 64
        e 48 80 30 40
        e 16 90 2b 64
        e 48 80 2b 40
        e 16 90 34 64
        e 48 80 34 40
        e 16 90 30 64
        e 48 80 30 40
        e 16 90 2b 64
        e 48 80 2b 40
        e 16 90 34 64
        e 48 80 34 40
        e 16 90 30 64
        e 48 80 30 40
        e 16 90 2b 64
        e 48 80 2b 40
        e 16 90 34 64
        e 48 80 34 40
        e 16 90 30 64
        e 48 80 30 40
        e 16 90 3c 64
        e 48 80 3c 40
        e 16 90 3b 64
        e 48 80 3b 40
        e 16 90 3c 64
        e 48 80 3c 40
        e 16 90 37 64
        e 48 80 37 40
        e 16 90 34 64
        e 48 80 34 40
        e 16 90 30 64
        e 48 80 30 40
        e 16 90 30 64
        e 48 80 30 40
        e 16 90 2f 64
        e 48 80 2f 40
        e 16 90 30 64
        e 48 80 30 40
        e 16 90 2b 64
        e 48 80 2b 40
        e 16 90 28 64
        e 48 80 28 40
        e 16 90 24 64
        e 176 80 24 40
        e 16 90 24 64
        e 0 90 30 64
        e 128 80 24 40
        e 0 80 30 40
        e 16 90 24 64
        e 0 90 30 64
        e 32 80 24 40
        e 0 80 30 40
        e 16 90 24 64
        e 0 90 30 64
        e 176 80 24 40
        e 0 80 30 40
        E 16 b0 7b 00
        GUID {98DA040A-F8A3-B44B-A0F5-8C0BBDB63EE5}
        IGNTEMPO 0 120 4 4
        SRCCOLOR 729
        VELLANE -1 86 6
        CFGEDITVIEW -12766.996273 1.203714 50 24 0 0 0 0 0 0.5
        KEYSNAP 0
        TRACKSEL 226
        EVTFILTER 0 -1 -1 -1 -1 0 1 0 0 -1 -1 -1 -1 0 -1 0 -1 -1
        CFGEDIT 1 0 0 0 0 0 1 0 1 1 1 0.25 16 63 1280 778 0 0 2 3 0 0 0 0 0 0.5 0 0 1 64
      >
      TAKE
      NAME "lh                   - National_Anthems_-_Chile.mid"
      TAKEVOLPAN 0 1 -1
      SOFFS 21.5 43
      PLAYRATE 1 1 0 -1 0 0.0025
      CHANMODE 0
      GUID {AD0C9D12-BF01-F143-A7A1-9FF23322485C}
      <SOURCE MIDI
        HASDATA 1 192 QN
        POOLEDEVTS {41B24C54-132E-8B4B-A73E-5EB94CB677F7}
        <X 0 0 0 0 3 "lh                  "
          /wNsaCAgICAgICAgICAgICAgICAgIA==
        >
        e 720 90 37 64
        e 16 90 39 64
        e 6 80 37 40
        e 2 90 3b 64
        e 14 80 39 40
        e 8 80 3b 40
        e 2 90 30 64
        e 0 90 3c 64
        e 334 80 30 40
        e 0 80 3c 40
        e 2 90 2f 64
        e 0 90 3b 64
        e 46 80 2f 40
        e 0 80 3b 40
        e 2 90 30 64
        e 0 90 3c 64
        e 142 80 30 40
        e 0 80 3c 40
        e 2 90 2c 64
        e 0 90 38 64
        e 46 80 2c 40
        e 0 80 38 40
        e 2 90 2d 64
        e 0 90 39 64
        e 142 80 2d 40
        e 0 80 39 40
        e 2 90 28 64
        e 0 90 34 64
        e 46 80 28 40
        e 0 80 34 40
        e 2 90 29 64
        e 0 90 35 64
        e 142 80 29 40
        e 0 80 35 40
        e 2 90 25 64
        e 0 90 31 64
        e 46 80 25 40
        e 0 80 31 40
        e 2 90 26 64
        e 0 90 32 64
        e 142 80 26 40
        e 0 80 32 40
        e 2 90 2e 64
        e 46 80 2e 40
        e 2 90 2f 64
        e 190 80 2f 40
        e 194 90 2b 64
        e 0 90 37 64
        e 94 80 2b 40
        e 0 80 37 40
        e 2 90 2b 64
        e 0 90 37 64
        e 46 80 2b 40
        e 0 80 37 40
        e 2 90 2b 64
        e 0 90 37 64
        e 46 80 2b 40
        e 0 80 37 40
        e 2 90 2b 64
        e 0 90 37 64
        e 94 80 2b 40
        e 0 80 37 40
        e 2 90 2b 64
        e 0 90 37 64
        e 94 80 2b 40
        e 0 80 37 40
        e 2 90 2b 64
        e 0 90 37 64
        e 94 80 2b 40
        e 0 80 37 40
        e 2 90 2c 64
        e 0 90 38 64
        e 94 80 2c 40
        e 0 80 38 40
        e 2 90 2d 64
        e 0 90 39 64
        e 94 80 2d 40
        e 0 80 39 40
        e 2 90 2f 64
        e 0 90 3b 64
        e 94 80 2f 40
        e 0 80 3b 40
        e 2 90 30 64
        e 0 90 3c 64
        e 190 80 30 40
        e 0 80 3c 40
        e 2 90 2b 64
        e 0 90 37 64
        e 190 80 2b 40
        e 0 80 37 40
        e 2 90 30 64
        e 0 90 37 64
        e 190 80 30 40
        e 0 80 37 40
        e 194 90 30 64
        e 0 90 35 64
        e 0 90 39 64
        e 94 80 30 40
        e 0 80 35 40
        e 0 80 39 40
        e 2 90 30 64
        e 0 90 35 64
        e 0 90 39 64
        e 94 80 30 40
        e 0 80 35 40
        e 0 80 39 40
        e 2 90 30 64
        e 0 90 35 64
        e 0 90 39 64
        e 94 80 30 40
        e 0 80 35 40
        e 0 80 39 40
        e 2 90 30 64
        e 0 90 35 64
        e 0 90 39 64
        e 94 80 30 40
        e 0 80 35 40
        e 0 80 39 40
        e 2 90 30 64
        e 0 90 35 64
        e 0 90 39 64
        e 94 80 30 40
        e 0 80 35 40
        e 0 80 39 40
        e 2 90 30 64
        e 0 90 35 64
        e 0 90 39 64
        e 94 80 30 40
        e 0 80 35 40
        e 0 80 39 40
        e 2 90 30 64
        e 0 90 35 64
        e 0 90 39 64
        e 94 80 30 40
        e 0 80 35 40
        e 0 80 39 40
        e 2 90 30 64
        e 0 90 35 64
        e 0 90 39 64
        e 94 80 30 40
        e 0 80 35 40
        e 0 80 39 40
        e 2 90 30 64
        e 0 90 37 64
        e 190 80 30 40
        e 0 80 37 40
        e 2 90 2b 64
        e 0 90 37 64
        e 190 80 2b 40
        e 0 80 37 40
        e 2 90 30 64
        e 0 90 37 64
        e 190 80 30 40
        e 0 80 37 40
        e 194 90 2c 64
        e 0 90 38 64
        e 80 80 2c 40
        e 0 80 38 40
        e 16 90 2c 64
        e 0 90 38 64
        e 32 80 2c 40
        e 0 80 38 40
        e 16 90 2c 64
        e 0 90 38 64
        e 32 80 2c 40
        e 0 80 38 40
        e 16 90 2c 64
        e 0 90 38 64
        e 80 80 2c 40
        e 0 80 38 40
        e 16 90 2c 64
        e 0 90 38 64
        e 80 80 2c 40
        e 0 80 38 40
        e 16 90 2c 64
        e 0 90 38 64
        e 80 80 2c 40
        e 0 80 38 40
        e 16 90 2c 64
        e 0 90 38 64
        e 80 80 2c 40
        e 0 80 38 40
        e 16 90 2c 64
        e 0 90 38 64
        e 80 80 2c 40
        e 0 80 38 40
        e 16 90 2c 64
        e 0 90 38 64
        e 80 80 2c 40
        e 0 80 38 40
        e 16 90 2b 64
        e 0 90 37 64
        e 80 80 2b 40
        e 0 80 37 40
        e 16 90 2b 64
        e 0 90 37 64
        e 80 80 2b 40
        e 0 80 37 40
        e 16 90 2b 64
        e 0 90 37 64
        e 80 80 2b 40
        e 0 80 37 40
        e 16 90 2b 64
        e 0 90 37 64
        e 80 80 2b 40
        e 0 80 37 40
        e 16 90 2b 64
        e 0 90 37 64
        e 80 80 2b 40
        e 0 80 37 40
        e 16 90 2b 64
        e 0 90 37 64
        e 80 80 2b 40
        e 0 80 37 40
        e 16 90 2b 64
        e 0 90 37 64
        e 80 80 2b 40
        e 0 80 37 40
        e 16 90 2b 64
        e 0 90 37 64
        e 80 80 2b 40
        e 0 80 37 40
        e 16 90 30 64
        e 0 90 37 64
        e 176 80 30 40
        e 0 80 37 40
        e 112 90 2b 64
        e 16 80 2b 40
        e 16 90 2d 64
        e 16 80 2d 40
        e 16 90 2f 64
        e 16 80 2f 40
        e 16 90 30 64
        e 80 80 30 40
        e 16 90 2b 64
        e 16 80 2b 40
        e 16 90 2d 64
        e 16 80 2d 40
        e 16 90 2f 64
        e 16 80 2f 40
        e 16 90 30 64
        e 80 80 30 40
        e 16 90 2b 64
        e 16 80 2b 40
        e 16 90 2d 64
        e 16 80 2d 40
        e 16 90 2f 64
        e 16 80 2f 40
        e 16 90 30 64
        e 176 80 30 40
        e 16 90 24 64
        e 0 90 30 64
        e 128 80 24 40
        e 0 80 30 40
        e 16 90 24 64
        e 0 90 30 64
        e 32 80 24 40
        e 0 80 30 40
        e 16 90 24 64
        e 0 90 30 64
        e 176 80 24 40
        e 0 80 30 40
        e 208 90 30 64
        e 80 80 30 40
        e 16 90 3c 64
        e 80 80 3c 40
        e 16 90 3c 64
        e 80 80 3c 40
        e 16 90 3c 64
        e 80 80 3c 40
        e 16 90 30 64
        e 80 80 30 40
        e 16 90 3c 64
        e 80 80 3c 40
        e 16 90 3c 64
        e 80 80 3c 40
        e 16 90 3c 64
        e 80 80 3c 40
        e 16 90 30 64
        e 80 80 30 40
        e 16 90 3c 64
        e 80 80 3c 40
        e 16 90 3c 64
        e 80 80 3c 40
        e 16 90 3c 64
        e 80 80 3c 40
        e 16 90 30 64
        e 176 80 30 40
        e 208 90 2f 64
        e 80 80 2f 40
        e 16 90 37 64
        e 80 80 37 40
        e 16 90 2f 64
        e 80 80 2f 40
        e 16 90 37 64
        e 80 80 37 40
        e 16 90 30 64
        e 80 80 30 40
        e 16 90 37 64
        e 80 80 37 40
        e 16 90 30 64
        e 80 80 30 40
        e 16 90 37 64
        e 80 80 37 40
        e 16 90 2b 64
        e 80 80 2b 40
        e 16 90 2b 64
        e 0 90 37 64
        e 32 80 2b 40
        e 0 80 37 40
        e 16 90 2b 64
        e 0 90 37 64
        e 32 80 2b 40
        e 0 80 37 40
        e 16 90 2b 64
        e 0 90 37 64
        e 80 80 2b 40
        e 0 80 37 40
        e 16 90 2b 64
        e 0 90 37 64
        e 80 80 2b 40
        e 0 80 37 40
        e 16 90 2b 64
        e 0 90 37 64
        e 80 80 2b 40
        e 0 80 37 40
        e 304 90 30 64
        e 80 80 30 40
        e 16 90 3c 64
        e 80 80 3c 40
        e 16 90 3c 64
        e 80 80 3c 40
        e 16 90 3c 64
        e 80 80 3c 40
        e 16 90 30 64
        e 80 80 30 40
        e 16 90 3c 64
        e 80 80 3c 40
        e 16 90 3c 64
        e 80 80 3c 40
        e 16 90 3c 64
        e 80 80 3c 40
        e 16 90 30 64
        e 80 80 30 40
        e 16 90 3c 64
        e 80 80 3c 40
        e 16 90 3c 64
        e 80 80 3c 40
        e 16 90 3c 64
        e 80 80 3c 40
        e 16 90 30 64
        e 176 80 30 40
        e 208 90 32 64
        e 80 80 32 40
        e 112 90 32 64
        e 80 80 32 40
        e 112 90 26 64
        e 80 80 26 40
        e 112 90 26 64
        e 80 80 26 40
        e 112 90 2b 64
        e 176 80 2b 40
        e 16 90 2b 64
        e 0 90 37 64
        e 128 80 2b 40
        e 0 80 37 40
        e 16 90 2b 64
        e 0 90 37 64
        e 32 80 2b 40
        e 0 80 37 40
        e 16 90 2b 64
        e 0 90 37 64
        e 176 80 2b 40
        e 0 80 37 40
        e 208 90 27 64
        e 0 90 33 64
        e 368 80 27 40
        e 0 80 33 40
        e 16 90 2b 64
        e 0 90 33 64
        e 368 80 2b 40
        e 0 80 33 40
        e 16 90 2e 64
        e 0 90 35 64
        e 368 80 2e 40
        e 0 80 35 40
        e 16 90 2e 64
        e 0 90 35 64
        e 176 80 2e 40
        e 0 80 35 40
        e 208 90 2e 64
        e 0 90 35 64
        e 368 80 2e 40
        e 0 80 35 40
        e 16 90 2e 64
        e 0 90 35 64
        e 368 80 2e 40
        e 0 80 35 40
        e 16 90 33 64
        e 0 90 37 64
        e 368 80 33 40
        e 0 80 37 40
        e 16 90 27 64
        e 0 90 33 64
        e 176 80 27 40
        e 0 80 33 40
        e 208 90 2c 64
        e 0 90 38 64
        e 176 80 2c 40
        e 0 80 38 40
        e 208 90 2c 64
        e 0 90 38 64
        e 176 80 2c 40
        e 0 80 38 40
        e 16 90 2c 64
        e 0 90 38 64
        e 176 80 2c 40
        e 0 80 38 40
        e 16 90 2b 64
        e 0 90 37 64
        e 176 80 2b 40
        e 0 80 37 40
        e 16 90 2b 64
        e 0 90 37 64
        e 128 80 2b 40
        e 0 80 37 40
        e 16 90 2b 64
        e 0 90 37 64
        e 32 80 2b 40
        e 0 80 37 40
        e 16 90 2b 64
        e 0 90 37 64
        e 176 80 2b 40
        e 0 80 37 40
        e 208 90 30 64
        e 0 90 37 64
        e 80 80 30 40
        e 0 80 37 40
        e 112 90 30 64
        e 0 90 37 64
        e 80 80 30 40
        e 0 80 37 40
        e 112 90 30 64
        e 0 90 37 64
        e 80 80 30 40
        e 0 80 37 40
        e 112 90 30 64
        e 0 90 37 64
        e 80 80 30 40
        e 0 80 37 40
        e 112 90 30 64
        e 0 90 37 64
        e 176 80 30 40
        e 0 80 37 40
        e 16 90 29 64
        e 0 90 35 64
        e 368 80 29 40
        e 0 80 35 40
        e 208 90 2b 64
        e 0 90 35 64
        e 80 80 2b 40
        e 0 80 35 40
        e 112 90 2b 64
        e 0 90 35 64
        e 80 80 2b 40
        e 0 80 35 40
        e 112 90 2b 64
        e 0 90 35 64
        e 80 80 2b 40
        e 0 80 35 40
        e 112 90 2b 64
        e 0 90 35 64
        e 80 80 2b 40
        e 0 80 35 40
        e 112 90 30 64
        e 176 80 30 40
        e 16 90 24 64
        e 80 80 24 40
        e 112 90 29 64
        e 0 90 35 64
        e 176 80 29 40
        e 0 80 35 40
        e 208 90 2b 64
        e 0 90 37 64
        e 176 80 2b 40
        e 0 80 37 40
        e 208 90 2b 64
        e 0 90 37 64
        e 176 80 2b 40
        e 0 80 37 40
        e 208 90 24 64
        e 0 90 30 64
        e 176 80 24 40
        e 0 80 30 40
        e 208 90 29 64
        e 0 90 35 64
        e 176 80 29 40
        e 0 80 35 40
        e 16 90 29 64
        e 0 90 35 64
        e 176 80 29 40
        e 0 80 35 40
        e 16 90 30 64
        e 0 90 34 64
        e 80 80 30 40
        e 0 80 34 40
        e 112 90 29 64
        e 0 90 35 64
        e 80 80 29 40
        e 0 80 35 40
        e 112 90 2b 64
        e 80 80 2b 40
        e 112 90 2b 64
        e 0 90 35 64
        e 80 80 2b 40
        e 0 80 35 40
        e 112 90 24 64
        e 0 90 30 64
        e 80 80 24 40
        e 0 80 30 40
        e 16 90 28 64
        e 0 90 34 64
        e 32 80 28 40
        e 0 80 34 40
        e 16 90 28 64
        e 0 90 34 64
        e 32 80 28 40
        e 0 80 34 40
        e 16 90 28 64
        e 0 90 34 64
        e 80 80 28 40
        e 0 80 34 40
        e 16 90 28 64
        e 0 90 34 64
        e 80 80 28 40
        e 0 80 34 40
        e 16 90 28 64
        e 0 90 34 64
        e 80 80 28 40
        e 0 80 34 40
        e 16 90 28 64
        e 0 90 34 64
        e 80 80 28 40
        e 0 80 34 40
        e 16 90 28 64
        e 0 90 34 64
        e 80 80 28 40
        e 0 80 34 40
        e 16 90 28 64
        e 0 90 34 64
        e 80 80 28 40
        e 0 80 34 40
        e 16 90 28 64
        e 96 90 34 64
        e 80 80 34 40
        e 16 90 34 64
        e 80 80 34 40
        e 16 90 34 64
        e 80 80 28 40
        e 0 80 34 40
        e 16 90 28 64
        e 96 90 34 64
        e 80 80 34 40
        e 16 90 34 64
        e 80 80 34 40
        e 16 90 34 64
        e 80 80 28 40
        e 0 80 34 40
        e 16 90 28 64
        e 96 90 34 64
        e 80 80 34 40
        e 16 90 34 64
        e 80 80 34 40
        e 16 90 34 64
        e 80 80 28 40
        e 0 80 34 40
        e 16 90 28 64
        e 96 90 34 64
        e 80 80 34 40
        e 16 90 34 64
        e 80 80 34 40
        e 16 90 34 64
        e 80 80 28 40
        e 0 80 34 40
        e 16 90 34 64
        e 80 80 34 40
        e 16 90 39 64
        e 0 90 3c 64
        e 80 80 39 40
        e 0 80 3c 40
        e 16 90 34 64
        e 80 80 34 40
        e 16 90 39 64
        e 0 90 3c 64
        e 80 80 39 40
        e 0 80 3c 40
        e 16 90 34 64
        e 80 80 34 40
        e 16 90 39 64
        e 0 90 3c 64
        e 80 80 39 40
        e 0 80 3c 40
        e 16 90 34 64
        e 80 80 34 40
        e 16 90 39 64
        e 0 90 3c 64
        e 0 90 3f 64
        e 80 80 39 40
        e 0 80 3c 40
        e 0 80 3f 40
        e 16 90 34 64
        e 0 90 40 64
        e 80 80 34 40
        e 0 80 40 40
        e 16 90 28 64
        e 0 90 34 64
        e 32 80 28 40
        e 0 80 34 40
        e 16 90 28 64
        e 0 90 34 64
        e 32 80 28 40
        e 0 80 34 40
        e 16 90 28 64
        e 0 90 34 64
        e 80 80 28 40
        e 0 80 34 40
        e 16 90 28 64
        e 0 90 34 64
        e 80 80 28 40
        e 0 80 34 40
        e 16 90 28 64
        e 0 90 34 64
        e 80 80 28 40
        e 0 80 34 40
        e 16 90 28 64
        e 0 90 34 64
        e 32 80 28 40
        e 0 80 34 40
        e 16 90 28 64
        e 0 90 34 64
        e 32 80 28 40
        e 0 80 34 40
        e 16 90 28 64
        e 0 90 34 64
        e 80 80 28 40
        e 0 80 34 40
        e 16 90 28 64
        e 0 90 34 64
        e 80 80 28 40
        e 0 80 34 40
        e 16 90 28 64
        e 96 90 34 64
        e 80 80 34 40
        e 16 90 34 64
        e 80 80 34 40
        e 16 90 34 64
        e 80 80 28 40
        e 0 80 34 40
        e 16 90 28 64
        e 96 90 34 64
        e 80 80 34 40
        e 16 90 34 64
        e 80 80 34 40
        e 16 90 34 64
        e 80 80 28 40
        e 0 80 34 40
        e 16 90 28 64
        e 96 90 34 64
        e 80 80 34 40
        e 16 90 34 64
        e 80 80 34 40
        e 16 90 34 64
        e 80 80 28 40
        e 0 80 34 40
        e 16 90 28 64
        e 96 90 34 64
        e 80 80 34 40
        e 16 90 34 64
        e 80 80 34 40
        e 16 90 34 64
        e 80 80 28 40
        e 0 80 34 40
        e 16 90 34 64
        e 80 80 34 40
        e 16 90 39 64
        e 0 90 3c 64
        e 80 80 39 40
        e 0 80 3c 40
        e 16 90 34 64
        e 80 80 34 40
        e 16 90 39 64
        e 0 90 3c 64
        e 80 80 39 40
        e 0 80 3c 40
        e 16 90 34 64
        e 80 80 34 40
        e 16 90 39 64
        e 0 90 3c 64
        e 80 80 39 40
        e 0 80 3c 40
        e 16 90 34 64
        e 80 80 34 40
        e 16 90 39 64
        e 0 90 3c 64
        e 0 90 3f 64
        e 80 80 39 40
        e 0 80 3c 40
        e 0 80 3f 40
        e 16 90 34 64
        e 0 90 40 64
        e 80 80 34 40
        e 0 80 40 40
        e 16 90 40 64
        e 80 80 40 40
        e 16 90 3b 64
        e 80 80 3b 40
        e 16 90 38 64
        e 80 80 38 40
        e 16 90 34 64
        e 176 80 34 40
        e 208 90 24 64
        e 0 90 30 64
        e 80 80 24 40
        e 0 80 30 40
        e 16 90 30 64
        e 80 80 30 40
        e 16 90 30 64
        e 0 90 3a 64
        e 80 80 30 40
        e 0 80 3a 40
        e 16 90 30 64
        e 80 80 30 40
        e 16 90 24 64
        e 0 90 30 64
        e 80 80 24 40
        e 0 80 30 40
        e 16 90 30 64
        e 80 80 30 40
        e 16 90 30 64
        e 0 90 3a 64
        e 80 80 30 40
        e 0 80 3a 40
        e 16 90 30 64
        e 80 80 30 40
        e 16 90 29 64
        e 80 80 29 40
        e 16 90 35 64
        e 80 80 35 40
        e 16 90 30 64
        e 80 80 30 40
        e 16 90 2d 64
        e 80 80 2d 40
        e 16 90 29 64
        e 176 80 29 40
        e 208 90 26 64
        e 0 90 32 64
        e 80 80 26 40
        e 0 80 32 40
        e 16 90 32 64
        e 80 80 32 40
        e 16 90 36 64
        e 0 90 3c 64
        e 80 80 36 40
        e 0 80 3c 40
        e 16 90 32 64
        e 80 80 32 40
        e 16 90 26 64
        e 0 90 32 64
        e 80 80 26 40
        e 0 80 32 40
        e 16 90 32 64
        e 80 80 32 40
        e 16 90 36 64
        e 0 90 3c 64
        e 80 80 36 40
        e 0 80 3c 40
        e 16 90 32 64
        e 80 80 32 40
        e 16 90 2b 64
        e 80 80 2b 40
        e 16 90 37 64
        e 80 80 37 40
        e 16 90 32 64
        e 80 80 32 40
        e 16 90 2f 64
        e 80 80 2f 40
        e 16 90 2b 64
        e 176 80 2b 40
        e 208 90 2b 64
        e 80 80 2b 40
        e 16 90 32 64
        e 80 80 32 40
        e 16 90 35 64
        e 0 90 37 64
        e 80 80 35 40
        e 0 80 37 40
        e 16 90 32 64
        e 80 80 32 40
        e 16 90 35 64
        e 0 90 37 64
        e 0 90 3b 64
        e 80 80 35 40
        e 0 80 37 40
        e 0 80 3b 40
        e 16 90 32 64
        e 80 80 32 40
        e 16 90 35 64
        e 0 90 37 64
        e 0 90 3b 64
        e 80 80 35 40
        e 0 80 37 40
        e 0 80 3b 40
        e 16 90 32 64
        e 80 80 32 40
        e 16 90 30 64
        e 80 80 30 40
        e 16 90 34 64
        e 80 80 34 40
        e 16 90 37 64
        e 0 90 3c 64
        e 80 80 37 40
        e 0 80 3c 40
        e 16 90 34 64
        e 80 80 34 40
        e 16 90 37 64
        e 0 90 3c 64
        e 80 80 37 40
        e 0 80 3c 40
        e 16 90 34 64
        e 80 80 34 40
        e 16 90 37 64
        e 0 90 3c 64
        e 0 90 40 64
        e 176 80 37 40
        e 0 80 3c 40
        e 0 80 40 40
        e 16 90 2b 64
        e 80 80 2b 40
        e 16 90 32 64
        e 80 80 32 40
        e 16 90 35 64
        e 0 90 37 64
        e 80 80 35 40
        e 0 80 37 40
        e 16 90 32 64
        e 80 80 32 40
        e 16 90 35 64
        e 0 90 37 64
        e 0 90 3b 64
        e 80 80 35 40
        e 0 80 37 40
        e 0 80 3b 40
        e 16 90 32 64
        e 80 80 32 40
        e 16 90 35 64
        e 0 90 37 64
        e 0 90 3b 64
        e 80 80 35 40
        e 0 80 37 40
        e 0 80 3b 40
        e 16 90 32 64
        e 80 80 32 40
        e 16 90 30 64
        e 80 80 30 40
        e 16 90 24 64
        e 0 90 30 64
        e 32 80 24 40
        e 0 80 30 40
        e 16 90 24 64
        e 0 90 30 64
        e 32 80 24 40
        e 0 80 30 40
        e 16 90 24 64
        e 0 90 30 64
        e 80 80 24 40
        e 0 80 30 40
        e 16 90 26 64
        e 0 90 32 64
        e 80 80 26 40
        e 0 80 32 40
        e 16 90 28 64
        e 0 90 34 64
        e 80 80 28 40
        e 0 80 34 40
        e 16 90 29 64
        e 0 90 35 64
        e 80 80 29 40
        e 0 80 35 40
        e 16 90 2b 64
        e 0 90 37 64
        e 80 80 2b 40
        e 0 80 37 40
        e 16 90 2d 64
        e 0 90 39 64
        e 80 80 2d 40
        e 0 80 39 40
        e 16 90 2e 64
        e 0 90 3a 64
        e 176 80 2e 40
        e 0 80 3a 40
        e 16 90 2e 64
        e 0 90 3a 64
        e 128 80 2e 40
        e 0 80 3a 40
        e 16 90 2e 64
        e 0 90 3a 64
        e 32 80 2e 40
        e 0 80 3a 40
        e 16 90 2d 64
        e 0 90 39 64
        e 176 80 2d 40
        e 0 80 39 40
        e 16 90 2b 64
        e 0 90 37 64
        e 176 80 2b 40
        e 0 80 37 40
        e 16 90 29 64
        e 0 90 35 64
        e 176 80 29 40
        e 0 80 35 40
        e 16 90 29 64
        e 0 90 35 64
        e 176 80 29 40
        e 0 80 35 40
        e 208 90 2a 64
        e 0 90 36 64
        e 128 80 2a 40
        e 0 80 36 40
        e 16 90 2a 64
        e 0 90 36 64
        e 32 80 2a 40
        e 0 80 36 40
        e 16 90 2b 64
        e 0 90 37 64
        e 176 80 2b 40
        e 0 80 37 40
        e 16 90 2b 64
        e 0 90 37 64
        e 128 80 2b 40
        e 0 80 37 40
        e 16 90 2b 64
        e 0 90 37 64
        e 32 80 2b 40
        e 0 80 37 40
        e 16 90 2b 64
        e 0 90 37 64
        e 176 80 2b 40
        e 0 80 37 40
        e 16 90 2b 64
        e 0 90 37 64
        e 128 80 2b 40
        e 0 80 37 40
        e 16 90 2b 64
        e 0 90 37 64
        e 32 80 2b 40
        e 0 80 37 40
        e 16 90 24 64
        e 0 90 30 64
        e 176 80 24 40
        e 0 80 30 40
        e 16 90 28 64
        e 48 80 28 40
        e 16 90 29 64
        e 48 80 29 40
        e 16 90 2b 64
        e 48 80 2b 40
        e 16 90 2d 64
        e 48 80 2d 40
        e 16 90 2f 64
        e 48 80 2f 40
        e 16 90 30 64
        e 48 80 30 40
        e 16 90 32 64
        e 48 80 32 40
        e 16 90 34 64
        e 48 80 34 40
        e 16 90 35 64
        e 48 80 35 40
        e 16 90 37 64
        e 80 80 37 40
        e 16 90 2b 64
        e 0 90 37 64
        e 32 80 2b 40
        e 0 80 37 40
        e 16 90 2b 64
        e 0 90 37 64
        e 32 80 2b 40
        e 0 80 37 40
        e 16 90 2b 64
        e 0 90 37 64
        e 80 80 2b 40
        e 0 80 37 40
        e 16 90 2b 64
        e 0 90 37 64
        e 80 80 2b 40
        e 0 80 37 40
        e 16 90 2b 64
        e 0 90 37 64
        e 80 80 2b 40
        e 0 80 37 40
        e 16 90 2b 64
        e 0 90 37 64
        e 32 80 2b 40
        e 0 80 37 40
        e 16 90 2b 64
        e 0 90 37 64
        e 32 80 2b 40
        e 0 80 37 40
        e 16 90 2b 64
        e 0 90 37 64
        e 80 80 2b 40
        e 0 80 37 40
        e 16 90 2b 64
        e 0 90 37 64
        e 80 80 2b 40
        e 0 80 37 40
        e 16 90 24 64
        e 0 90 30 64
        e 176 80 24 40
        e 0 80 30 40
        e 16 90 28 64
        e 48 80 28 40
        e 16 90 29 64
        e 48 80 29 40
        e 16 90 2b 64
        e 48 80 2b 40
        e 16 90 2d 64
        e 48 80 2d 40
        e 16 90 2f 64
        e 48 80 2f 40
        e 16 90 30 64
        e 48 80 30 40
        e 16 90 32 64
        e 48 80 32 40
        e 16 90 34 64
        e 48 80 34 40
        e 16 90 35 64
        e 48 80 35 40
        e 16 90 37 64
        e 80 80 37 40
        e 16 90 2b 64
        e 0 90 37 64
        e 32 80 2b 40
        e 0 80 37 40
        e 16 90 2b 64
        e 0 90 37 64
        e 32 80 2b 40
        e 0 80 37 40
        e 16 90 2b 64
        e 0 90 37 64
        e 80 80 2b 40
        e 0 80 37 40
        e 16 90 2b 64
        e 0 90 37 64
        e 80 80 2b 40
        e 0 80 37 40
        e 16 90 2b 64
        e 0 90 37 64
        e 80 80 2b 40
        e 0 80 37 40
        e 16 90 2b 64
        e 0 90 37 64
        e 32 80 2b 40
        e 0 80 37 40
        e 16 90 2b 64
        e 0 90 37 64
        e 32 80 2b 40
        e 0 80 37 40
        e 16 90 2b 64
        e 0 90 37 64
        e 80 80 2b 40
        e 0 80 37 40
        e 16 90 2b 64
        e 0 90 37 64
        e 80 80 2b 40
        e 0 80 37 40
        e 16 90 24 64
        e 0 90 30 64
        e 176 80 24 40
        e 0 80 30 40
        e 16 90 30 64
        e 48 80 30 40
        e 16 90 2b 64
        e 48 80 2b 40
        e 16 90 34 64
        e 48 80 34 40
        e 16 90 30 64
        e 48 80 30 40
        e 16 90 2b 64
        e 48 80 2b 40
        e 16 90 34 64
        e 48 80 34 40
        e 16 90 30 64
        e 48 80 30 40
        e 16 90 2b 64
        e 48 80 2b 40
        e 16 90 34 64
        e 48 80 34 40
        e 16 90 30 64
        e 48 80 30 40
        e 16 90 3c 64
        e 48 80 3c 40
        e 16 90 3b 64
        e 48 80 3b 40
        e 16 90 3c 64
        e 48 80 3c 40
        e 16 90 37 64
        e 48 80 37 40
        e 16 90 34 64
        e 48 80 34 40
        e 16 90 30 64
        e 48 80 30 40
        e 16 90 30 64
        e 48 80 30 40
        e 16 90 2f 64
        e 48 80 2f 40
        e 16 90 30 64
        e 48 80 30 40
        e 16 90 2b 64
        e 48 80 2b 40
        e 16 90 28 64
        e 48 80 28 40
        e 16 90 24 64
        e 176 80 24 40
        e 16 90 24 64
        e 0 90 30 64
        e 128 80 24 40
        e 0 80 30 40
        e 16 90 24 64
        e 0 90 30 64
        e 32 80 24 40
        e 0 80 30 40
        e 16 90 24 64
        e 0 90 30 64
        e 176 80 24 40
        e 0 80 30 40
        E 16 b0 7b 00
        GUID {9989EB5F-B245-654A-A13D-6B24A39D5432}
        IGNTEMPO 0 120 4 4
        SRCCOLOR 915
        VELLANE -1 86 6
        CFGEDITVIEW 0 0 50 24 0 0 0 0 0 0.5
        KEYSNAP 0
        TRACKSEL 226
        EVTFILTER 0 -1 -1 -1 -1 0 1 0 0 -1 -1 -1 -1 0 -1 0 -1 -1
        CFGEDIT 1 0 0 0 0 0 1 0 1 1 1 0.25 16 63 1280 778 0 0 2 3 0 0 0 0 0 0.5 0 0 1 64
      >
    >
    <ITEM
      POSITION 0
      SNAPOFFS 0
      LENGTH 91
      LOOP 1
      ALLTAKES 0
      FADEIN 1 0 0 1 0 0
      FADEOUT 1 0 0 1 0 0
      MUTE 0
      SEL 0
      YPOS 0.95 0.05
      IGUID {1B22C4D1-58EB-6144-BD44-34BA286434B0}
      IID 15
      NAME "Flute/Melody 8va up  - National_Anthems_-_Chile.mid"
      VOLPAN 1 0 1 -1
      SOFFS 21.5 43
      PLAYRATE 1 1 0 -1 0 0.0025
      CHANMODE 0
      TAKECOLOR 26173599 B
      GUID {3B6DFD5E-CE31-1642-9F65-DFC81C2B2299}
      <SOURCE MIDI
        HASDATA 1 192 QN
        POOLEDEVTS {19AB3561-688E-B84A-AE9A-CDF9790673C7}
        <X 0 0 0 0 3 "Flute/Melody 8va up "
          /wNGbHV0ZS9NZWxvZHkgOHZhIHVwIA==
        >
        e 8256 90 4f 7f
        e 128 80 4f 40
        e 16 90 54 7f
        e 32 80 54 40
        e 16 90 54 7f
        e 128 80 54 40
        e 16 90 53 7f
        e 32 80 53 40
        e 16 90 53 7f
        e 128 80 53 40
        e 16 90 51 7f
        e 32 80 51 40
        e 16 90 51 7f
        e 128 80 51 40
        e 16 90 4f 7f
        e 32 80 4f 40
        e 16 90 4f 7f
        e 128 80 4f 40
        e 16 90 4e 7f
        e 32 80 4e 40
        e 16 90 4f 7f
        e 272 80 4f 40
        e 16 90 4d 7f
        e 80 80 4d 40
        e 16 90 4c 7f
        e 176 80 4c 40
        e 16 90 4a 7f
        e 128 80 4a 40
        e 16 90 4c 7f
        e 32 80 4c 40
        e 16 90 4d 7f
        e 128 80 4d 40
        e 16 90 4f 7f
        e 32 80 4f 40
        e 16 90 51 7f
        e 48 80 51 40
        e 16 90 4f 7f
        e 48 80 4f 40
        e 16 90 4d 7f
        e 48 80 4d 40
        e 16 90 4c 7f
        e 128 80 4c 40
        e 16 90 4d 7f
        e 32 80 4d 40
        e 16 90 4f 7f
        e 48 80 4f 40
        e 16 90 4d 7f
        e 48 80 4d 40
        e 16 90 4c 7f
        e 48 80 4c 40
        e 16 90 4a 7f
        e 176 80 4a 40
        e 400 90 4f 7f
        e 128 80 4f 40
        e 16 90 54 7f
        e 32 80 54 40
        e 16 90 54 7f
        e 128 80 54 40
        e 16 90 53 7f
        e 32 80 53 40
        e 16 90 53 7f
        e 128 80 53 40
        e 16 90 51 7f
        e 32 80 51 40
        e 16 90 51 7f
        e 128 80 51 40
        e 16 90 4f 7f
        e 32 80 4f 40
        e 16 90 4f 7f
        e 128 80 4f 40
        e 16 90 4e 7f
        e 32 80 4e 40
        e 16 90 4f 7f
        e 272 80 4f 40
        e 16 90 4d 7f
        e 80 80 4d 40
        e 16 90 4c 7f
        e 176 80 4c 40
        e 16 90 4f 7f
        e 128 80 4f 40
        e 16 90 54 7f
        e 32 80 54 40
        e 16 90 53 7f
        e 128 80 53 40
        e 16 90 52 7f
        e 32 80 52 40
        e 16 90 53 7f
        e 128 80 53 40
        e 16 90 54 7f
        e 32 80 54 40
        e 16 90 51 7f
        e 128 80 51 40
        e 16 90 50 7f
        e 32 80 50 40
        e 16 90 51 7f
        e 128 80 51 40
        e 16 90 53 7f
        e 32 80 53 40
        e 16 90 4f 7f
        e 368 80 4f 40
        e 208 90 4f 7f
        e 128 80 4f 40
        e 16 90 4f 7f
        e 32 80 4f 40
        e 16 90 4f 7f
        e 176 80 4f 40
        e 16 90 4f 7f
        e 128 80 4f 40
        e 16 90 4f 7f
        e 32 80 4f 40
        e 16 90 50 7f
        e 80 80 50 40
        e 16 90 4f 7f
        e 80 80 4f 40
        e 16 90 4d 7f
        e 80 80 4d 40
        e 16 90 4f 7f
        e 80 80 4f 40
        e 16 90 50 7f
        e 272 80 50 40
        e 16 90 4f 7f
        e 80 80 4f 40
        e 16 90 4d 7f
        e 176 80 4d 40
        e 16 90 50 7f
        e 128 80 50 40
        e 16 90 50 7f
        e 32 80 50 40
        e 16 90 50 7f
        e 176 80 50 40
        e 16 90 50 7f
        e 128 80 50 40
        e 16 90 50 7f
        e 32 80 50 40
        e 16 90 52 7f
        e 80 80 52 40
        e 16 90 50 7f
        e 80 80 50 40
        e 16 90 4f 7f
        e 80 80 4f 40
        e 16 90 50 7f
        e 80 80 50 40
        e 16 90 52 7f
        e 368 80 52 40
        e 208 90 4f 7f
        e 128 80 4f 40
        e 16 90 4f 7f
        e 32 80 4f 40
        e 16 90 54 7f
        e 176 80 54 40
        e 16 90 54 7f
        e 128 80 54 40
        e 16 90 54 7f
        e 32 80 54 40
        e 16 90 54 7f
        e 48 80 54 40
        e 16 90 52 7f
        e 48 80 52 40
        e 16 90 50 7f
        e 48 80 50 40
        e 16 90 50 7f
        e 48 80 50 40
        e 16 90 4f 7f
        e 48 80 4f 40
        e 16 90 4e 7f
        e 48 80 4e 40
        e 16 90 4f 7f
        e 368 80 4f 40
        e 208 90 4c 7f
        e 128 80 4c 40
        e 16 90 4c 7f
        e 32 80 4c 40
        e 16 90 4c 7f
        e 128 80 4c 40
        e 16 90 4a 7f
        e 32 80 4a 40
        e 16 90 4c 7f
        e 128 80 4c 40
        e 16 90 4a 7f
        e 32 80 4a 40
        e 16 90 4c 7f
        e 128 80 4c 40
        e 16 90 4a 7f
        e 32 80 4a 40
        e 16 90 4c 7f
        e 128 80 4c 40
        e 16 90 4d 7f
        e 32 80 4d 40
        e 16 90 4f 7f
        e 176 80 4f 40
        e 16 90 51 7f
        e 368 80 51 40
        e 16 90 4a 7f
        e 128 80 4a 40
        e 16 90 4a 7f
        e 32 80 4a 40
        e 16 90 4a 7f
        e 128 80 4a 40
        e 16 90 48 7f
        e 32 80 48 40
        e 16 90 4a 7f
        e 128 80 4a 40
        e 16 90 48 7f
        e 32 80 48 40
        e 16 90 4a 7f
        e 128 80 4a 40
        e 16 90 4c 7f
        e 32 80 4c 40
        e 16 90 4d 7f
        e 128 80 4d 40
        e 16 90 4e 7f
        e 32 80 4e 40
        e 16 90 51 7f
        e 176 80 51 40
        e 16 90 4f 7f
        e 80 80 4f 40
        e 112 90 51 7f
        e 80 80 51 40
        e 64 90 53 7f
        e 32 80 53 40
        e 16 90 54 7f
        e 48 80 54 40
        e 16 90 53 7f
        e 48 80 53 40
        e 16 90 51 7f
        e 48 80 51 40
        e 16 90 53 7f
        e 128 80 53 40
        e 16 90 51 7f
        e 32 80 51 40
        e 16 90 4f 7f
        e 128 80 4f 40
        e 16 90 4f 7f
        e 32 80 4f 40
        e 16 90 4d 7f
        e 128 80 4d 40
        e 16 90 4f 7f
        e 32 80 4f 40
        e 16 90 51 7f
        e 48 80 51 40
        e 16 90 4f 7f
        e 48 80 4f 40
        e 16 90 4d 7f
        e 48 80 4d 40
        e 16 90 4f 7f
        e 176 80 4f 40
        e 16 90 4c 7f
        e 176 80 4c 40
        e 16 90 51 7f
        e 128 80 51 40
        e 16 90 53 7f
        e 32 80 53 40
        e 16 90 54 7f
        e 48 80 54 40
        e 16 90 53 7f
        e 48 80 53 40
        e 16 90 51 7f
        e 48 80 51 40
        e 16 90 4f 7f
        e 128 80 4f 40
        e 16 90 54 7f
        e 32 80 54 40
        e 16 90 54 7f
        e 48 80 54 40
        e 16 90 53 7f
        e 48 80 53 40
        e 16 90 51 7f
        e 48 80 51 40
        e 16 90 51 7f
        e 48 80 51 40
        e 16 90 4f 7f
        e 48 80 4f 40
        e 14 90 4d 7f
        e 48 80 4d 40
        e 18 90 4d 7f
        e 48 80 4d 40
        e 16 90 4c 7f
        e 48 80 4c 40
        e 16 90 4a 7f
        e 48 80 4a 40
        e 16 90 48 7f
        e 176 80 48 40
        e 592 90 53 7f
        e 560 80 53 40
        e 16 90 54 7f
        e 176 80 54 40
        e 16 90 56 7f
        e 368 80 56 40
        e 16 90 56 7f
        e 176 80 56 40
        e 16 90 53 7f
        e 176 80 53 40
        e 16 90 54 7f
        e 368 80 54 40
        e 16 90 54 7f
        e 128 80 54 40
        e 16 90 53 7f
        e 32 80 53 40
        e 16 90 54 7f
        e 128 80 54 40
        e 16 90 56 7f
        e 32 80 56 40
        e 16 90 53 7f
        e 176 80 53 40
        e 16 90 53 7f
        e 176 80 53 40
        e 400 90 53 7f
        e 560 80 53 40
        e 16 90 54 7f
        e 176 80 54 40
        e 16 90 56 7f
        e 368 80 56 40
        e 16 90 56 7f
        e 176 80 56 40
        e 16 90 53 7f
        e 176 80 53 40
        e 16 90 54 7f
        e 368 80 54 40
        e 16 90 54 7f
        e 128 80 54 40
        e 16 90 53 7f
        e 32 80 53 40
        e 16 90 54 7f
        e 128 80 54 40
        e 16 90 56 7f
        e 32 80 56 40
        e 16 90 53 7f
        e 176 80 53 40
        e 400 90 4c 7f
        e 128 80 4c 40
        e 16 90 4d 7f
        e 32 80 4d 40
        e 16 90 4f 7f
        e 176 80 4f 40
        e 16 90 4f 7f
        e 128 80 4f 40
        e 16 90 51 7f
        e 32 80 51 40
        e 16 90 52 7f
        e 176 80 52 40
        e 16 90 52 7f
        e 128 80 52 40
        e 16 90 52 7f
        e 32 80 52 40
        e 16 90 52 7f
        e 176 80 52 40
        e 16 90 51 7f
        e 176 80 51 40
        e 208 90 4e 7f
        e 128 80 4e 40
        e 16 90 4f 7f
        e 32 80 4f 40
        e 16 90 51 7f
        e 176 80 51 40
        e 16 90 51 7f
        e 128 80 51 40
        e 16 90 53 7f
        e 32 80 53 40
        e 16 90 54 7f
        e 176 80 54 40
        e 16 90 54 7f
        e 128 80 54 40
        e 16 90 54 7f
        e 32 80 54 40
        e 16 90 53 7f
        e 368 80 53 40
        e 208 90 53 7f
        e 128 80 53 40
        e 16 90 53 7f
        e 32 80 53 40
        e 16 90 53 7f
        e 128 80 53 40
        e 16 90 51 7f
        e 32 80 51 40
        e 16 90 53 7f
        e 128 80 53 40
        e 16 90 51 7f
        e 32 80 51 40
        e 16 90 51 7f
        e 128 80 51 40
        e 16 90 4f 7f
        e 32 80 4f 40
        e 16 90 51 7f
        e 128 80 51 40
        e 16 90 4f 7f
        e 32 80 4f 40
        e 16 90 51 7f
        e 272 80 51 40
        e 16 90 4f 7f
        e 80 80 4f 40
        e 16 90 4c 7f
        e 176 80 4c 40
        e 16 90 54 7f
        e 128 80 54 40
        e 16 90 53 7f
        e 32 80 53 40
        e 16 90 53 7f
        e 128 80 53 40
        e 16 90 51 7f
        e 32 80 51 40
        e 16 90 53 7f
        e 128 80 53 40
        e 16 90 51 7f
        e 32 80 51 40
        e 16 90 51 7f
        e 128 80 51 40
        e 16 90 4f 7f
        e 32 80 4f 40
        e 16 90 51 7f
        e 128 80 51 40
        e 16 90 4f 7f
        e 32 80 4f 40
        e 16 90 4c 7f
        e 176 80 4c 40
        e 16 90 48 7f
        e 80 80 48 40
        e 16 90 4a 7f
        e 80 80 4a 40
        e 16 90 4c 7f
        e 80 80 4c 40
        e 16 90 4d 7f
        e 80 80 4d 40
        e 16 90 4f 7f
        e 80 80 4f 40
        e 16 90 51 7f
        e 80 80 51 40
        e 16 90 52 7f
        e 368 80 52 40
        e 16 90 56 7f
        e 176 80 56 40
        e 16 90 55 7f
        e 176 80 55 40
        e 16 90 56 7f
        e 176 80 56 40
        e 16 90 56 7f
        e 176 80 56 40
        e 208 90 54 7f
        e 128 80 54 40
        e 16 90 54 7f
        e 32 80 54 40
        e 16 90 58 7f
        e 176 80 58 40
        e 16 90 54 7f
        e 128 80 54 40
        e 16 90 54 7f
        e 32 80 54 40
        e 16 90 56 7f
        e 176 80 56 40
        e 16 90 53 7f
        e 128 80 53 40
        e 16 90 53 7f
        e 32 80 53 40
        e 16 90 54 7f
        e 176 80 54 40
        e 400 90 54 7f
        e 128 80 54 40
        e 16 90 54 7f
        e 30 80 54 40
        e 18 90 54 7f
        e 176 80 54 40
        e 16 90 54 7f
        e 128 80 54 40
        e 16 90 54 7f
        e 32 80 54 40
        e 16 90 56 7f
        e 176 80 56 40
        e 16 90 53 7f
        e 128 80 53 40
        e 16 90 53 7f
        e 30 80 53 40
        e 18 90 54 7f
        e 176 80 54 40
        e 400 90 54 7f
        e 128 80 54 40
        e 16 90 54 7f
        e 32 80 54 40
        e 16 90 58 7f
        e 174 80 58 40
        e 18 90 54 7f
        e 123 80 54 40
        e 21 90 54 7f
        e 32 80 54 40
        e 16 90 56 7f
        e 176 80 56 40
        e 16 90 53 7f
        e 128 80 53 40
        e 16 90 53 7f
        e 32 80 53 40
        e 16 90 54 7f
        e 176 80 54 40
        E 16 b0 7b 00
        GUID {D0EAB905-DAC3-5649-BAB2-A7C253A3C6ED}
        IGNTEMPO 0 120 4 4
        SRCCOLOR 724
        VELLANE -1 86 6
        CFGEDITVIEW -12766.996273 1.203714 50 24 0 0 0 0 0 0.5
        KEYSNAP 0
        TRACKSEL 226
        EVTFILTER 0 -1 -1 -1 -1 0 1 0 0 -1 -1 -1 -1 0 -1 0 -1 -1
        CFGEDIT 1 0 0 0 0 0 1 0 1 1 1 0.25 16 63 1280 778 0 0 2 3 0 0 0 0 0 0.5 0 0 1 64
      >
      TAKE
      NAME "Flute/Melody 8va up  - National_Anthems_-_Chile.mid"
      TAKEVOLPAN 0 1 -1
      SOFFS 21.5 43
      PLAYRATE 1 1 0 -1 0 0.0025
      CHANMODE 0
      GUID {FA9D057E-4619-8B49-BAAE-45FE39C2659C}
      <SOURCE MIDI
        HASDATA 1 192 QN
        POOLEDEVTS {D401FD86-2F3E-2C48-835C-69421FECD64A}
        <X 0 0 0 0 3 "Flute/Melody 8va up "
          /wNGbHV0ZS9NZWxvZHkgOHZhIHVwIA==
        >
        e 8256 90 4f 7f
        e 128 80 4f 40
        e 16 90 54 7f
        e 32 80 54 40
        e 16 90 54 7f
        e 128 80 54 40
        e 16 90 53 7f
        e 32 80 53 40
        e 16 90 53 7f
        e 128 80 53 40
        e 16 90 51 7f
        e 32 80 51 40
        e 16 90 51 7f
        e 128 80 51 40
        e 16 90 4f 7f
        e 32 80 4f 40
        e 16 90 4f 7f
        e 128 80 4f 40
        e 16 90 4e 7f
        e 32 80 4e 40
        e 16 90 4f 7f
        e 272 80 4f 40
        e 16 90 4d 7f
        e 80 80 4d 40
        e 16 90 4c 7f
        e 176 80 4c 40
        e 16 90 4a 7f
        e 128 80 4a 40
        e 16 90 4c 7f
        e 32 80 4c 40
        e 16 90 4d 7f
        e 128 80 4d 40
        e 16 90 4f 7f
        e 32 80 4f 40
        e 16 90 51 7f
        e 48 80 51 40
        e 16 90 4f 7f
        e 48 80 4f 40
        e 16 90 4d 7f
        e 48 80 4d 40
        e 16 90 4c 7f
        e 128 80 4c 40
        e 16 90 4d 7f
        e 32 80 4d 40
        e 16 90 4f 7f
        e 48 80 4f 40
        e 16 90 4d 7f
        e 48 80 4d 40
        e 16 90 4c 7f
        e 48 80 4c 40
        e 16 90 4a 7f
        e 176 80 4a 40
        e 400 90 4f 7f
        e 128 80 4f 40
        e 16 90 54 7f
        e 32 80 54 40
        e 16 90 54 7f
        e 128 80 54 40
        e 16 90 53 7f
        e 32 80 53 40
        e 16 90 53 7f
        e 128 80 53 40
        e 16 90 51 7f
        e 32 80 51 40
        e 16 90 51 7f
        e 128 80 51 40
        e 16 90 4f 7f
        e 32 80 4f 40
        e 16 90 4f 7f
        e 128 80 4f 40
        e 16 90 4e 7f
        e 32 80 4e 40
        e 16 90 4f 7f
        e 272 80 4f 40
        e 16 90 4d 7f
        e 80 80 4d 40
        e 16 90 4c 7f
        e 176 80 4c 40
        e 16 90 4f 7f
        e 128 80 4f 40
        e 16 90 54 7f
        e 32 80 54 40
        e 16 90 53 7f
        e 128 80 53 40
        e 16 90 52 7f
        e 32 80 52 40
        e 16 90 53 7f
        e 128 80 53 40
        e 16 90 54 7f
        e 32 80 54 40
        e 16 90 51 7f
        e 128 80 51 40
        e 16 90 50 7f
        e 32 80 50 40
        e 16 90 51 7f
        e 128 80 51 40
        e 16 90 53 7f
        e 32 80 53 40
        e 16 90 4f 7f
        e 368 80 4f 40
        e 208 90 4f 7f
        e 128 80 4f 40
        e 16 90 4f 7f
        e 32 80 4f 40
        e 16 90 4f 7f
        e 176 80 4f 40
        e 16 90 4f 7f
        e 128 80 4f 40
        e 16 90 4f 7f
        e 32 80 4f 40
        e 16 90 50 7f
        e 80 80 50 40
        e 16 90 4f 7f
        e 80 80 4f 40
        e 16 90 4d 7f
        e 80 80 4d 40
        e 16 90 4f 7f
        e 80 80 4f 40
        e 16 90 50 7f
        e 272 80 50 40
        e 16 90 4f 7f
        e 80 80 4f 40
        e 16 90 4d 7f
        e 176 80 4d 40
        e 16 90 50 7f
        e 128 80 50 40
        e 16 90 50 7f
        e 32 80 50 40
        e 16 90 50 7f
        e 176 80 50 40
        e 16 90 50 7f
        e 128 80 50 40
        e 16 90 50 7f
        e 32 80 50 40
        e 16 90 52 7f
        e 80 80 52 40
        e 16 90 50 7f
        e 80 80 50 40
        e 16 90 4f 7f
        e 80 80 4f 40
        e 16 90 50 7f
        e 80 80 50 40
        e 16 90 52 7f
        e 368 80 52 40
        e 208 90 4f 7f
        e 128 80 4f 40
        e 16 90 4f 7f
        e 32 80 4f 40
        e 16 90 54 7f
        e 176 80 54 40
        e 16 90 54 7f
        e 128 80 54 40
        e 16 90 54 7f
        e 32 80 54 40
        e 16 90 54 7f
        e 48 80 54 40
        e 16 90 52 7f
        e 48 80 52 40
        e 16 90 50 7f
        e 48 80 50 40
        e 16 90 50 7f
        e 48 80 50 40
        e 16 90 4f 7f
        e 48 80 4f 40
        e 16 90 4e 7f
        e 48 80 4e 40
        e 16 90 4f 7f
        e 368 80 4f 40
        e 208 90 4c 7f
        e 128 80 4c 40
        e 16 90 4c 7f
        e 32 80 4c 40
        e 16 90 4c 7f
        e 128 80 4c 40
        e 16 90 4a 7f
        e 32 80 4a 40
        e 16 90 4c 7f
        e 128 80 4c 40
        e 16 90 4a 7f
        e 32 80 4a 40
        e 16 90 4c 7f
        e 128 80 4c 40
        e 16 90 4a 7f
        e 32 80 4a 40
        e 16 90 4c 7f
        e 128 80 4c 40
        e 16 90 4d 7f
        e 32 80 4d 40
        e 16 90 4f 7f
        e 176 80 4f 40
        e 16 90 51 7f
        e 368 80 51 40
        e 16 90 4a 7f
        e 128 80 4a 40
        e 16 90 4a 7f
        e 32 80 4a 40
        e 16 90 4a 7f
        e 128 80 4a 40
        e 16 90 48 7f
        e 32 80 48 40
        e 16 90 4a 7f
        e 128 80 4a 40
        e 16 90 48 7f
        e 32 80 48 40
        e 16 90 4a 7f
        e 128 80 4a 40
        e 16 90 4c 7f
        e 32 80 4c 40
        e 16 90 4d 7f
        e 128 80 4d 40
        e 16 90 4e 7f
        e 32 80 4e 40
        e 16 90 51 7f
        e 176 80 51 40
        e 16 90 4f 7f
        e 80 80 4f 40
        e 112 90 51 7f
        e 80 80 51 40
        e 64 90 53 7f
        e 32 80 53 40
        e 16 90 54 7f
        e 48 80 54 40
        e 16 90 53 7f
        e 48 80 53 40
        e 16 90 51 7f
        e 48 80 51 40
        e 16 90 53 7f
        e 128 80 53 40
        e 16 90 51 7f
        e 32 80 51 40
        e 16 90 4f 7f
        e 128 80 4f 40
        e 16 90 4f 7f
        e 32 80 4f 40
        e 16 90 4d 7f
        e 128 80 4d 40
        e 16 90 4f 7f
        e 32 80 4f 40
        e 16 90 51 7f
        e 48 80 51 40
        e 16 90 4f 7f
        e 48 80 4f 40
        e 16 90 4d 7f
        e 48 80 4d 40
        e 16 90 4f 7f
        e 176 80 4f 40
        e 16 90 4c 7f
        e 176 80 4c 40
        e 16 90 51 7f
        e 128 80 51 40
        e 16 90 53 7f
        e 32 80 53 40
        e 16 90 54 7f
        e 48 80 54 40
        e 16 90 53 7f
        e 48 80 53 40
        e 16 90 51 7f
        e 48 80 51 40
        e 16 90 4f 7f
        e 128 80 4f 40
        e 16 90 54 7f
        e 32 80 54 40
        e 16 90 54 7f
        e 48 80 54 40
        e 16 90 53 7f
        e 48 80 53 40
        e 16 90 51 7f
        e 48 80 51 40
        e 16 90 51 7f
        e 48 80 51 40
        e 16 90 4f 7f
        e 48 80 4f 40
        e 14 90 4d 7f
        e 48 80 4d 40
        e 18 90 4d 7f
        e 48 80 4d 40
        e 16 90 4c 7f
        e 48 80 4c 40
        e 16 90 4a 7f
        e 48 80 4a 40
        e 16 90 48 7f
        e 176 80 48 40
        e 592 90 53 7f
        e 560 80 53 40
        e 16 90 54 7f
        e 176 80 54 40
        e 16 90 56 7f
        e 368 80 56 40
        e 16 90 56 7f
        e 176 80 56 40
        e 16 90 53 7f
        e 176 80 53 40
        e 16 90 54 7f
        e 368 80 54 40
        e 16 90 54 7f
        e 128 80 54 40
        e 16 90 53 7f
        e 32 80 53 40
        e 16 90 54 7f
        e 128 80 54 40
        e 16 90 56 7f
        e 32 80 56 40
        e 16 90 53 7f
        e 176 80 53 40
        e 16 90 53 7f
        e 176 80 53 40
        e 400 90 53 7f
        e 560 80 53 40
        e 16 90 54 7f
        e 176 80 54 40
        e 16 90 56 7f
        e 368 80 56 40
        e 16 90 56 7f
        e 176 80 56 40
        e 16 90 53 7f
        e 176 80 53 40
        e 16 90 54 7f
        e 368 80 54 40
        e 16 90 54 7f
        e 128 80 54 40
        e 16 90 53 7f
        e 32 80 53 40
        e 16 90 54 7f
        e 128 80 54 40
        e 16 90 56 7f
        e 32 80 56 40
        e 16 90 53 7f
        e 176 80 53 40
        e 400 90 4c 7f
        e 128 80 4c 40
        e 16 90 4d 7f
        e 32 80 4d 40
        e 16 90 4f 7f
        e 176 80 4f 40
        e 16 90 4f 7f
        e 128 80 4f 40
        e 16 90 51 7f
        e 32 80 51 40
        e 16 90 52 7f
        e 176 80 52 40
        e 16 90 52 7f
        e 128 80 52 40
        e 16 90 52 7f
        e 32 80 52 40
        e 16 90 52 7f
        e 176 80 52 40
        e 16 90 51 7f
        e 176 80 51 40
        e 208 90 4e 7f
        e 128 80 4e 40
        e 16 90 4f 7f
        e 32 80 4f 40
        e 16 90 51 7f
        e 176 80 51 40
        e 16 90 51 7f
        e 128 80 51 40
        e 16 90 53 7f
        e 32 80 53 40
        e 16 90 54 7f
        e 176 80 54 40
        e 16 90 54 7f
        e 128 80 54 40
        e 16 90 54 7f
        e 32 80 54 40
        e 16 90 53 7f
        e 368 80 53 40
        e 208 90 53 7f
        e 128 80 53 40
        e 16 90 53 7f
        e 32 80 53 40
        e 16 90 53 7f
        e 128 80 53 40
        e 16 90 51 7f
        e 32 80 51 40
        e 16 90 53 7f
        e 128 80 53 40
        e 16 90 51 7f
        e 32 80 51 40
        e 16 90 51 7f
        e 128 80 51 40
        e 16 90 4f 7f
        e 32 80 4f 40
        e 16 90 51 7f
        e 128 80 51 40
        e 16 90 4f 7f
        e 32 80 4f 40
        e 16 90 51 7f
        e 272 80 51 40
        e 16 90 4f 7f
        e 80 80 4f 40
        e 16 90 4c 7f
        e 176 80 4c 40
        e 16 90 54 7f
        e 128 80 54 40
        e 16 90 53 7f
        e 32 80 53 40
        e 16 90 53 7f
        e 128 80 53 40
        e 16 90 51 7f
        e 32 80 51 40
        e 16 90 53 7f
        e 128 80 53 40
        e 16 90 51 7f
        e 32 80 51 40
        e 16 90 51 7f
        e 128 80 51 40
        e 16 90 4f 7f
        e 32 80 4f 40
        e 16 90 51 7f
        e 128 80 51 40
        e 16 90 4f 7f
        e 32 80 4f 40
        e 16 90 4c 7f
        e 176 80 4c 40
        e 16 90 48 7f
        e 80 80 48 40
        e 16 90 4a 7f
        e 80 80 4a 40
        e 16 90 4c 7f
        e 80 80 4c 40
        e 16 90 4d 7f
        e 80 80 4d 40
        e 16 90 4f 7f
        e 80 80 4f 40
        e 16 90 51 7f
        e 80 80 51 40
        e 16 90 52 7f
        e 368 80 52 40
        e 16 90 56 7f
        e 176 80 56 40
        e 16 90 55 7f
        e 176 80 55 40
        e 16 90 56 7f
        e 176 80 56 40
        e 16 90 56 7f
        e 176 80 56 40
        e 208 90 54 7f
        e 128 80 54 40
        e 16 90 54 7f
        e 32 80 54 40
        e 16 90 58 7f
        e 176 80 58 40
        e 16 90 54 7f
        e 128 80 54 40
        e 16 90 54 7f
        e 32 80 54 40
        e 16 90 56 7f
        e 176 80 56 40
        e 16 90 53 7f
        e 128 80 53 40
        e 16 90 53 7f
        e 32 80 53 40
        e 16 90 54 7f
        e 176 80 54 40
        e 400 90 54 7f
        e 128 80 54 40
        e 16 90 54 7f
        e 30 80 54 40
        e 18 90 54 7f
        e 176 80 54 40
        e 16 90 54 7f
        e 128 80 54 40
        e 16 90 54 7f
        e 32 80 54 40
        e 16 90 56 7f
        e 176 80 56 40
        e 16 90 53 7f
        e 128 80 53 40
        e 16 90 53 7f
        e 30 80 53 40
        e 18 90 54 7f
        e 176 80 54 40
        e 400 90 54 7f
        e 128 80 54 40
        e 16 90 54 7f
        e 32 80 54 40
        e 16 90 58 7f
        e 174 80 58 40
        e 18 90 54 7f
        e 123 80 54 40
        e 21 90 54 7f
        e 32 80 54 40
        e 16 90 56 7f
        e 176 80 56 40
        e 16 90 53 7f
        e 128 80 53 40
        e 16 90 53 7f
        e 32 80 53 40
        e 16 90 54 7f
        e 176 80 54 40
        E 16 b0 7b 00
        GUID {1BD6AFCC-D1DF-6B40-8935-4DFA6CBB856E}
        IGNTEMPO 0 120 4 4
        SRCCOLOR 916
        VELLANE -1 86 6
        CFGEDITVIEW 0 0 50 24 0 0 0 0 0 0.5
        KEYSNAP 0
        TRACKSEL 226
        EVTFILTER 0 -1 -1 -1 -1 0 1 0 0 -1 -1 -1 -1 0 -1 0 -1 -1
        CFGEDIT 1 0 0 0 0 0 1 0 1 1 1 0.25 16 63 1280 778 0 0 2 3 0 0 0 0 0 0.5 0 0 1 64
      >
    >
    <ITEM
      POSITION 0
      SNAPOFFS 0
      LENGTH 91
      LOOP 1
      ALLTAKES 0
      FADEIN 1 0 0 1 0 0
      FADEOUT 1 0 0 1 0 0
      MUTE 0
      SEL 0
      YPOS 0.845802 0.05
      IGUID {6E829D38-75EB-6D44-9016-206A03AA7D74}
      IID 11
      NAME "Melody               - National_Anthems_-_Chile.mid"
      VOLPAN 1 0 1 -1
      SOFFS 21.5 43
      PLAYRATE 1 1 0 -1 0 0.0025
      CHANMODE 0
      TAKECOLOR 26173599 B
      GUID {162A0A9D-87AB-0A43-AA15-3687AFECD9A1}
      <SOURCE MIDI
        HASDATA 1 192 QN
        POOLEDEVTS {8AEDA6D1-F525-7C4E-AD7F-2F08278F470B}
        <X 0 0 0 0 3 "Melody              "
          /wNNZWxvZHkgICAgICAgICAgICAgIA==
        >
        <X 0 0 0 0 1 "THE SOFTWARE TOOLWORKS"
          /wFUSEUgU09GVFdBUkUgVE9PTFdPUktT
        >
        <X 0 0 0 0 1 "WORLD ATLAS"
          /wFXT1JMRCBBVExBUw==
        >
        <X 0 0 0 0 1 "MultiMedia Windows Version"
          /wFNdWx0aU1lZGlhIFdpbmRvd3MgVmVyc2lvbg==
        >
        <X 0 0 0 0 1 "Country: CHILE"
          /wFDb3VudHJ5OiBDSElMRQ==
        >
        <X 0 0 0 0 1 "(p) (c) The Software Toolworks 1991"
          /wEocCkgKGMpIFRoZSBTb2Z0d2FyZSBUb29sd29ya3MgMTk5MQ==
        >
        <X 0 0 0 0 1 "revised 11-26-91"
          /wFyZXZpc2VkIDExLTI2LTkx
        >
        <X 0 0 0 0 1 "edit date:9-1-91"
          /wFlZGl0IGRhdGU6OS0xLTkx
        >
        <X 0 0 0 0 1 "This file provided by:"
          /wFUaGlzIGZpbGUgcHJvdmlkZWQgYnk6
        >
        <X 0 0 0 0 1 "Rob Wallace Music"
          /wFSb2IgV2FsbGFjZSBNdXNpYw==
        >
        <X 0 0 0 0 1 "{602} 979-6201"
          /wF7NjAyfSA5NzktNjIwMQ==
        >
        <X 0 0 0 0 1 "MULTIMEDIA WINDOWS VERSION"
          /wFNVUxUSU1FRElBIFdJTkRPV1MgVkVSU0lPTg==
        >
        e 8256 90 43 7f
        e 128 80 43 40
        e 16 90 48 7f
        e 32 80 48 40
        e 16 90 48 7f
        e 128 80 48 40
        e 16 90 47 7f
        e 32 80 47 40
        e 16 90 47 7f
        e 128 80 47 40
        e 16 90 45 7f
        e 32 80 45 40
        e 16 90 45 7f
        e 128 80 45 40
        e 16 90 43 7f
        e 32 80 43 40
        e 16 90 43 7f
        e 128 80 43 40
        e 16 90 42 7f
        e 32 80 42 40
        e 16 90 43 7f
        e 272 80 43 40
        e 16 90 41 7f
        e 80 80 41 40
        e 16 90 40 7f
        e 176 80 40 40
        e 16 90 3e 7f
        e 128 80 3e 40
        e 16 90 40 7f
        e 32 80 40 40
        e 16 90 41 7f
        e 128 80 41 40
        e 16 90 43 7f
        e 32 80 43 40
        e 16 90 45 7f
        e 48 80 45 40
        e 16 90 43 7f
        e 48 80 43 40
        e 16 90 41 7f
        e 48 80 41 40
        e 16 90 40 7f
        e 128 80 40 40
        e 16 90 41 7f
        e 32 80 41 40
        e 16 90 43 7f
        e 48 80 43 40
        e 16 90 41 7f
        e 48 80 41 40
        e 16 90 40 7f
        e 48 80 40 40
        e 16 90 3e 7f
        e 176 80 3e 40
        e 400 90 43 7f
        e 128 80 43 40
        e 16 90 48 7f
        e 32 80 48 40
        e 16 90 48 7f
        e 128 80 48 40
        e 16 90 47 7f
        e 32 80 47 40
        e 16 90 47 7f
        e 128 80 47 40
        e 16 90 45 7f
        e 32 80 45 40
        e 16 90 45 7f
        e 128 80 45 40
        e 16 90 43 7f
        e 32 80 43 40
        e 16 90 43 7f
        e 128 80 43 40
        e 16 90 42 7f
        e 32 80 42 40
        e 16 90 43 7f
        e 272 80 43 40
        e 16 90 41 7f
        e 80 80 41 40
        e 16 90 40 7f
        e 176 80 40 40
        e 16 90 43 7f
        e 128 80 43 40
        e 16 90 48 7f
        e 32 80 48 40
        e 16 90 47 7f
        e 128 80 47 40
        e 16 90 46 7f
        e 32 80 46 40
        e 16 90 47 7f
        e 128 80 47 40
        e 16 90 48 7f
        e 32 80 48 40
        e 16 90 45 7f
        e 128 80 45 40
        e 16 90 44 7f
        e 32 80 44 40
        e 16 90 45 7f
        e 128 80 45 40
        e 16 90 47 7f
        e 32 80 47 40
        e 16 90 43 7f
        e 368 80 43 40
        e 208 90 43 7f
        e 128 80 43 40
        e 16 90 43 7f
        e 32 80 43 40
        e 16 90 43 7f
        e 176 80 43 40
        e 16 90 43 7f
        e 128 80 43 40
        e 16 90 43 7f
        e 32 80 43 40
        e 16 90 44 7f
        e 80 80 44 40
        e 16 90 43 7f
        e 80 80 43 40
        e 16 90 41 7f
        e 80 80 41 40
        e 16 90 43 7f
        e 80 80 43 40
        e 16 90 44 7f
        e 272 80 44 40
        e 16 90 43 7f
        e 80 80 43 40
        e 16 90 41 7f
        e 176 80 41 40
        e 16 90 44 7f
        e 128 80 44 40
        e 16 90 44 7f
        e 32 80 44 40
        e 16 90 44 7f
        e 176 80 44 40
        e 16 90 44 7f
        e 128 80 44 40
        e 16 90 44 7f
        e 32 80 44 40
        e 16 90 46 7f
        e 80 80 46 40
        e 16 90 44 7f
        e 80 80 44 40
        e 16 90 43 7f
        e 80 80 43 40
        e 16 90 44 7f
        e 80 80 44 40
        e 16 90 46 7f
        e 368 80 46 40
        e 208 90 43 7f
        e 128 80 43 40
        e 16 90 43 7f
        e 32 80 43 40
        e 16 90 48 7f
        e 176 80 48 40
        e 16 90 48 7f
        e 128 80 48 40
        e 16 90 48 7f
        e 32 80 48 40
        e 16 90 48 7f
        e 48 80 48 40
        e 16 90 46 7f
        e 48 80 46 40
        e 16 90 44 7f
        e 48 80 44 40
        e 16 90 44 7f
        e 48 80 44 40
        e 16 90 43 7f
        e 48 80 43 40
        e 16 90 42 7f
        e 48 80 42 40
        e 16 90 43 7f
        e 368 80 43 40
        e 208 90 40 7f
        e 128 80 40 40
        e 16 90 40 7f
        e 32 80 40 40
        e 16 90 40 7f
        e 128 80 40 40
        e 16 90 3e 7f
        e 32 80 3e 40
        e 16 90 40 7f
        e 128 80 40 40
        e 16 90 3e 7f
        e 32 80 3e 40
        e 16 90 40 7f
        e 128 80 40 40
        e 16 90 3e 7f
        e 32 80 3e 40
        e 16 90 40 7f
        e 128 80 40 40
        e 16 90 41 7f
        e 32 80 41 40
        e 16 90 43 7f
        e 176 80 43 40
        e 16 90 45 7f
        e 368 80 45 40
        e 16 90 3e 7f
        e 128 80 3e 40
        e 16 90 3e 7f
        e 32 80 3e 40
        e 16 90 3e 7f
        e 128 80 3e 40
        e 16 90 3c 7f
        e 32 80 3c 40
        e 16 90 3e 7f
        e 128 80 3e 40
        e 16 90 3c 7f
        e 32 80 3c 40
        e 16 90 3e 7f
        e 128 80 3e 40
        e 16 90 40 7f
        e 32 80 40 40
        e 16 90 41 7f
        e 128 80 41 40
        e 16 90 42 7f
        e 32 80 42 40
        e 16 90 45 7f
        e 176 80 45 40
        e 16 90 43 7f
        e 80 80 43 40
        e 112 90 45 7f
        e 80 80 45 40
        e 64 90 47 7f
        e 32 80 47 40
        e 16 90 48 7f
        e 48 80 48 40
        e 16 90 47 7f
        e 48 80 47 40
        e 16 90 45 7f
        e 48 80 45 40
        e 16 90 47 7f
        e 128 80 47 40
        e 16 90 45 7f
        e 32 80 45 40
        e 16 90 43 7f
        e 128 80 43 40
        e 16 90 43 7f
        e 32 80 43 40
        e 16 90 41 7f
        e 128 80 41 40
        e 16 90 43 7f
        e 32 80 43 40
        e 16 90 45 7f
        e 48 80 45 40
        e 16 90 43 7f
        e 48 80 43 40
        e 16 90 41 7f
        e 48 80 41 40
        e 16 90 43 7f
        e 176 80 43 40
        e 16 90 40 7f
        e 176 80 40 40
        e 16 90 45 7f
        e 128 80 45 40
        e 16 90 47 7f
        e 32 80 47 40
        e 16 90 48 7f
        e 48 80 48 40
        e 16 90 47 7f
        e 48 80 47 40
        e 16 90 45 7f
        e 48 80 45 40
        e 16 90 43 7f
        e 128 80 43 40
        e 16 90 48 7f
        e 32 80 48 40
        e 16 90 48 7f
        e 48 80 48 40
        e 16 90 47 7f
        e 48 80 47 40
        e 16 90 45 7f
        e 48 80 45 40
        e 16 90 45 7f
        e 48 80 45 40
        e 16 90 43 7f
        e 48 80 43 40
        e 14 90 41 7f
        e 48 80 41 40
        e 18 90 41 7f
        e 48 80 41 40
        e 16 90 40 7f
        e 48 80 40 40
        e 16 90 3e 7f
        e 48 80 3e 40
        e 16 90 3c 7f
        e 176 80 3c 40
        e 592 90 47 7f
        e 560 80 47 40
        e 16 90 48 7f
        e 176 80 48 40
        e 16 90 4a 7f
        e 368 80 4a 40
        e 16 90 4a 7f
        e 176 80 4a 40
        e 16 90 47 7f
        e 176 80 47 40
        e 16 90 48 7f
        e 368 80 48 40
        e 16 90 48 7f
        e 128 80 48 40
        e 16 90 47 7f
        e 32 80 47 40
        e 16 90 48 7f
        e 128 80 48 40
        e 16 90 4a 7f
        e 32 80 4a 40
        e 16 90 47 7f
        e 176 80 47 40
        e 16 90 47 7f
        e 176 80 47 40
        e 400 90 47 7f
        e 560 80 47 40
        e 16 90 48 7f
        e 176 80 48 40
        e 16 90 4a 7f
        e 368 80 4a 40
        e 16 90 4a 7f
        e 176 80 4a 40
        e 16 90 47 7f
        e 176 80 47 40
        e 16 90 48 7f
        e 368 80 48 40
        e 16 90 48 7f
        e 128 80 48 40
        e 16 90 47 7f
        e 32 80 47 40
        e 16 90 48 7f
        e 128 80 48 40
        e 16 90 4a 7f
        e 32 80 4a 40
        e 16 90 47 7f
        e 176 80 47 40
        e 400 90 40 7f
        e 128 80 40 40
        e 16 90 41 7f
        e 32 80 41 40
        e 16 90 43 7f
        e 176 80 43 40
        e 16 90 43 7f
        e 128 80 43 40
        e 16 90 45 7f
        e 32 80 45 40
        e 16 90 46 7f
        e 176 80 46 40
        e 16 90 46 7f
        e 128 80 46 40
        e 16 90 46 7f
        e 32 80 46 40
        e 16 90 46 7f
        e 176 80 46 40
        e 16 90 45 7f
        e 176 80 45 40
        e 208 90 42 7f
        e 128 80 42 40
        e 16 90 43 7f
        e 32 80 43 40
        e 16 90 45 7f
        e 176 80 45 40
        e 16 90 45 7f
        e 128 80 45 40
        e 16 90 47 7f
        e 32 80 47 40
        e 16 90 48 7f
        e 176 80 48 40
        e 16 90 48 7f
        e 128 80 48 40
        e 16 90 48 7f
        e 32 80 48 40
        e 16 90 47 7f
        e 368 80 47 40
        e 208 90 47 7f
        e 128 80 47 40
        e 16 90 47 7f
        e 32 80 47 40
        e 16 90 47 7f
        e 128 80 47 40
        e 16 90 45 7f
        e 32 80 45 40
        e 16 90 47 7f
        e 128 80 47 40
        e 16 90 45 7f
        e 32 80 45 40
        e 16 90 45 7f
        e 128 80 45 40
        e 16 90 43 7f
        e 32 80 43 40
        e 16 90 45 7f
        e 128 80 45 40
        e 16 90 43 7f
        e 32 80 43 40
        e 16 90 45 7f
        e 272 80 45 40
        e 16 90 43 7f
        e 80 80 43 40
        e 16 90 40 7f
        e 176 80 40 40
        e 16 90 48 7f
        e 128 80 48 40
        e 16 90 47 7f
        e 32 80 47 40
        e 16 90 47 7f
        e 128 80 47 40
        e 16 90 45 7f
        e 32 80 45 40
        e 16 90 47 7f
        e 128 80 47 40
        e 16 90 45 7f
        e 32 80 45 40
        e 16 90 45 7f
        e 128 80 45 40
        e 16 90 43 7f
        e 32 80 43 40
        e 16 90 45 7f
        e 128 80 45 40
        e 16 90 43 7f
        e 32 80 43 40
        e 16 90 40 7f
        e 176 80 40 40
        e 16 90 3c 7f
        e 80 80 3c 40
        e 16 90 3e 7f
        e 80 80 3e 40
        e 16 90 40 7f
        e 80 80 40 40
        e 16 90 41 7f
        e 80 80 41 40
        e 16 90 43 7f
        e 80 80 43 40
        e 16 90 45 7f
        e 80 80 45 40
        e 16 90 46 7f
        e 368 80 46 40
        e 16 90 4a 7f
        e 176 80 4a 40
        e 16 90 49 7f
        e 176 80 49 40
        e 16 90 4a 7f
        e 176 80 4a 40
        e 16 90 4a 7f
        e 176 80 4a 40
        e 208 90 48 7f
        e 128 80 48 40
        e 16 90 48 7f
        e 32 80 48 40
        e 16 90 4c 7f
        e 176 80 4c 40
        e 16 90 48 7f
        e 128 80 48 40
        e 16 90 48 7f
        e 32 80 48 40
        e 16 90 4a 7f
        e 176 80 4a 40
        e 16 90 47 7f
        e 128 80 47 40
        e 16 90 47 7f
        e 32 80 47 40
        e 16 90 48 7f
        e 176 80 48 40
        e 400 90 48 7f
        e 128 80 48 40
        e 16 90 48 7f
        e 30 80 48 40
        e 18 90 48 7f
        e 176 80 48 40
        e 16 90 48 7f
        e 128 80 48 40
        e 16 90 48 7f
        e 32 80 48 40
        e 16 90 4a 7f
        e 176 80 4a 40
        e 16 90 47 7f
        e 128 80 47 40
        e 16 90 47 7f
        e 30 80 47 40
        e 18 90 48 7f
        e 176 80 48 40
        e 400 90 48 7f
        e 128 80 48 40
        e 16 90 48 7f
        e 32 80 48 40
        e 16 90 4c 7f
        e 174 80 4c 40
        e 18 90 48 7f
        e 123 80 48 40
        e 21 90 48 7f
        e 32 80 48 40
        e 16 90 4a 7f
        e 176 80 4a 40
        e 16 90 47 7f
        e 128 80 47 40
        e 16 90 47 7f
        e 32 80 47 40
        e 16 90 48 7f
        e 176 80 48 40
        E 16 b0 7b 00
        GUID {5D8FE9D2-6A75-314F-93C8-19259C2F1655}
        IGNTEMPO 0 120 4 4
        SRCCOLOR 720
        VELLANE -1 86 6
        CFGEDITVIEW 6508.8 8.671329 50 24 0 0 0 0 0 0.5
        KEYSNAP 0
        TRACKSEL 226
        EVTFILTER 0 -1 -1 -1 -1 0 1 0 0 -1 -1 -1 -1 0 -1 0 -1 -1
        CFGEDIT 1 0 0 0 0 0 1 0 1 1 1 0.25 16 63 1280 778 0 0 2 3 0 0 0 0 0 0.5 0 0 1 64
      >
      TAKE
      NAME "Melody               - National_Anthems_-_Chile.mid"
      TAKEVOLPAN 0 1 -1
      SOFFS 21.5 43
      PLAYRATE 1 1 0 -1 0 0.0025
      CHANMODE 0
      GUID {A27D0999-1C26-424C-81CF-476977B0BB72}
      <SOURCE MIDI
        HASDATA 1 192 QN
        POOLEDEVTS {EC3F8A66-19A4-354E-80C0-493A4C476D61}
        <X 0 0 0 0 3 "Melody              "
          /wNNZWxvZHkgICAgICAgICAgICAgIA==
        >
        <X 0 0 0 0 1 "THE SOFTWARE TOOLWORKS"
          /wFUSEUgU09GVFdBUkUgVE9PTFdPUktT
        >
        <X 0 0 0 0 1 "WORLD ATLAS"
          /wFXT1JMRCBBVExBUw==
        >
        <X 0 0 0 0 1 "MultiMedia Windows Version"
          /wFNdWx0aU1lZGlhIFdpbmRvd3MgVmVyc2lvbg==
        >
        <X 0 0 0 0 1 "Country: CHILE"
          /wFDb3VudHJ5OiBDSElMRQ==
        >
        <X 0 0 0 0 1 "(p) (c) The Software Toolworks 1991"
          /wEocCkgKGMpIFRoZSBTb2Z0d2FyZSBUb29sd29ya3MgMTk5MQ==
        >
        <X 0 0 0 0 1 "revised 11-26-91"
          /wFyZXZpc2VkIDExLTI2LTkx
        >
        <X 0 0 0 0 1 "edit date:9-1-91"
          /wFlZGl0IGRhdGU6OS0xLTkx
        >
        <X 0 0 0 0 1 "This file provided by:"
          /wFUaGlzIGZpbGUgcHJvdmlkZWQgYnk6
        >
        <X 0 0 0 0 1 "Rob Wallace Music"
          /wFSb2IgV2FsbGFjZSBNdXNpYw==
        >
        <X 0 0 0 0 1 "{602} 979-6201"
          /wF7NjAyfSA5NzktNjIwMQ==
        >
        <X 0 0 0 0 1 "MULTIMEDIA WINDOWS VERSION"
          /wFNVUxUSU1FRElBIFdJTkRPV1MgVkVSU0lPTg==
        >
        e 8256 90 43 7f
        e 128 80 43 40
        e 16 90 48 7f
        e 32 80 48 40
        e 16 90 48 7f
        e 128 80 48 40
        e 16 90 47 7f
        e 32 80 47 40
        e 16 90 47 7f
        e 128 80 47 40
        e 16 90 45 7f
        e 32 80 45 40
        e 16 90 45 7f
        e 128 80 45 40
        e 16 90 43 7f
        e 32 80 43 40
        e 16 90 43 7f
        e 128 80 43 40
        e 16 90 42 7f
        e 32 80 42 40
        e 16 90 43 7f
        e 272 80 43 40
        e 16 90 41 7f
        e 80 80 41 40
        e 16 90 40 7f
        e 176 80 40 40
        e 16 90 3e 7f
        e 128 80 3e 40
        e 16 90 40 7f
        e 32 80 40 40
        e 16 90 41 7f
        e 128 80 41 40
        e 16 90 43 7f
        e 32 80 43 40
        e 16 90 45 7f
        e 48 80 45 40
        e 16 90 43 7f
        e 48 80 43 40
        e 16 90 41 7f
        e 48 80 41 40
        e 16 90 40 7f
        e 128 80 40 40
        e 16 90 41 7f
        e 32 80 41 40
        e 16 90 43 7f
        e 48 80 43 40
        e 16 90 41 7f
        e 48 80 41 40
        e 16 90 40 7f
        e 48 80 40 40
        e 16 90 3e 7f
        e 176 80 3e 40
        e 400 90 43 7f
        e 128 80 43 40
        e 16 90 48 7f
        e 32 80 48 40
        e 16 90 48 7f
        e 128 80 48 40
        e 16 90 47 7f
        e 32 80 47 40
        e 16 90 47 7f
        e 128 80 47 40
        e 16 90 45 7f
        e 32 80 45 40
        e 16 90 45 7f
        e 128 80 45 40
        e 16 90 43 7f
        e 32 80 43 40
        e 16 90 43 7f
        e 128 80 43 40
        e 16 90 42 7f
        e 32 80 42 40
        e 16 90 43 7f
        e 272 80 43 40
        e 16 90 41 7f
        e 80 80 41 40
        e 16 90 40 7f
        e 176 80 40 40
        e 16 90 43 7f
        e 128 80 43 40
        e 16 90 48 7f
        e 32 80 48 40
        e 16 90 47 7f
        e 128 80 47 40
        e 16 90 46 7f
        e 32 80 46 40
        e 16 90 47 7f
        e 128 80 47 40
        e 16 90 48 7f
        e 32 80 48 40
        e 16 90 45 7f
        e 128 80 45 40
        e 16 90 44 7f
        e 32 80 44 40
        e 16 90 45 7f
        e 128 80 45 40
        e 16 90 47 7f
        e 32 80 47 40
        e 16 90 43 7f
        e 368 80 43 40
        e 208 90 43 7f
        e 128 80 43 40
        e 16 90 43 7f
        e 32 80 43 40
        e 16 90 43 7f
        e 176 80 43 40
        e 16 90 43 7f
        e 128 80 43 40
        e 16 90 43 7f
        e 32 80 43 40
        e 16 90 44 7f
        e 80 80 44 40
        e 16 90 43 7f
        e 80 80 43 40
        e 16 90 41 7f
        e 80 80 41 40
        e 16 90 43 7f
        e 80 80 43 40
        e 16 90 44 7f
        e 272 80 44 40
        e 16 90 43 7f
        e 80 80 43 40
        e 16 90 41 7f
        e 176 80 41 40
        e 16 90 44 7f
        e 128 80 44 40
        e 16 90 44 7f
        e 32 80 44 40
        e 16 90 44 7f
        e 176 80 44 40
        e 16 90 44 7f
        e 128 80 44 40
        e 16 90 44 7f
        e 32 80 44 40
        e 16 90 46 7f
        e 80 80 46 40
        e 16 90 44 7f
        e 80 80 44 40
        e 16 90 43 7f
        e 80 80 43 40
        e 16 90 44 7f
        e 80 80 44 40
        e 16 90 46 7f
        e 368 80 46 40
        e 208 90 43 7f
        e 128 80 43 40
        e 16 90 43 7f
        e 32 80 43 40
        e 16 90 48 7f
        e 176 80 48 40
        e 16 90 48 7f
        e 128 80 48 40
        e 16 90 48 7f
        e 32 80 48 40
        e 16 90 48 7f
        e 48 80 48 40
        e 16 90 46 7f
        e 48 80 46 40
        e 16 90 44 7f
        e 48 80 44 40
        e 16 90 44 7f
        e 48 80 44 40
        e 16 90 43 7f
        e 48 80 43 40
        e 16 90 42 7f
        e 48 80 42 40
        e 16 90 43 7f
        e 368 80 43 40
        e 208 90 40 7f
        e 128 80 40 40
        e 16 90 40 7f
        e 32 80 40 40
        e 16 90 40 7f
        e 128 80 40 40
        e 16 90 3e 7f
        e 32 80 3e 40
        e 16 90 40 7f
        e 128 80 40 40
        e 16 90 3e 7f
        e 32 80 3e 40
        e 16 90 40 7f
        e 128 80 40 40
        e 16 90 3e 7f
        e 32 80 3e 40
        e 16 90 40 7f
        e 128 80 40 40
        e 16 90 41 7f
        e 32 80 41 40
        e 16 90 43 7f
        e 176 80 43 40
        e 16 90 45 7f
        e 368 80 45 40
        e 16 90 3e 7f
        e 128 80 3e 40
        e 16 90 3e 7f
        e 32 80 3e 40
        e 16 90 3e 7f
        e 128 80 3e 40
        e 16 90 3c 7f
        e 32 80 3c 40
        e 16 90 3e 7f
        e 128 80 3e 40
        e 16 90 3c 7f
        e 32 80 3c 40
        e 16 90 3e 7f
        e 128 80 3e 40
        e 16 90 40 7f
        e 32 80 40 40
        e 16 90 41 7f
        e 128 80 41 40
        e 16 90 42 7f
        e 32 80 42 40
        e 16 90 45 7f
        e 176 80 45 40
        e 16 90 43 7f
        e 80 80 43 40
        e 112 90 45 7f
        e 80 80 45 40
        e 64 90 47 7f
        e 32 80 47 40
        e 16 90 48 7f
        e 48 80 48 40
        e 16 90 47 7f
        e 48 80 47 40
        e 16 90 45 7f
        e 48 80 45 40
        e 16 90 47 7f
        e 128 80 47 40
        e 16 90 45 7f
        e 32 80 45 40
        e 16 90 43 7f
        e 128 80 43 40
        e 16 90 43 7f
        e 32 80 43 40
        e 16 90 41 7f
        e 128 80 41 40
        e 16 90 43 7f
        e 32 80 43 40
        e 16 90 45 7f
        e 48 80 45 40
        e 16 90 43 7f
        e 48 80 43 40
        e 16 90 41 7f
        e 48 80 41 40
        e 16 90 43 7f
        e 176 80 43 40
        e 16 90 40 7f
        e 176 80 40 40
        e 16 90 45 7f
        e 128 80 45 40
        e 16 90 47 7f
        e 32 80 47 40
        e 16 90 48 7f
        e 48 80 48 40
        e 16 90 47 7f
        e 48 80 47 40
        e 16 90 45 7f
        e 48 80 45 40
        e 16 90 43 7f
        e 128 80 43 40
        e 16 90 48 7f
        e 32 80 48 40
        e 16 90 48 7f
        e 48 80 48 40
        e 16 90 47 7f
        e 48 80 47 40
        e 16 90 45 7f
        e 48 80 45 40
        e 16 90 45 7f
        e 48 80 45 40
        e 16 90 43 7f
        e 48 80 43 40
        e 14 90 41 7f
        e 48 80 41 40
        e 18 90 41 7f
        e 48 80 41 40
        e 16 90 40 7f
        e 48 80 40 40
        e 16 90 3e 7f
        e 48 80 3e 40
        e 16 90 3c 7f
        e 176 80 3c 40
        e 592 90 47 7f
        e 560 80 47 40
        e 16 90 48 7f
        e 176 80 48 40
        e 16 90 4a 7f
        e 368 80 4a 40
        e 16 90 4a 7f
        e 176 80 4a 40
        e 16 90 47 7f
        e 176 80 47 40
        e 16 90 48 7f
        e 368 80 48 40
        e 16 90 48 7f
        e 128 80 48 40
        e 16 90 47 7f
        e 32 80 47 40
        e 16 90 48 7f
        e 128 80 48 40
        e 16 90 4a 7f
        e 32 80 4a 40
        e 16 90 47 7f
        e 176 80 47 40
        e 16 90 47 7f
        e 176 80 47 40
        e 400 90 47 7f
        e 560 80 47 40
        e 16 90 48 7f
        e 176 80 48 40
        e 16 90 4a 7f
        e 368 80 4a 40
        e 16 90 4a 7f
        e 176 80 4a 40
        e 16 90 47 7f
        e 176 80 47 40
        e 16 90 48 7f
        e 368 80 48 40
        e 16 90 48 7f
        e 128 80 48 40
        e 16 90 47 7f
        e 32 80 47 40
        e 16 90 48 7f
        e 128 80 48 40
        e 16 90 4a 7f
        e 32 80 4a 40
        e 16 90 47 7f
        e 176 80 47 40
        e 400 90 40 7f
        e 128 80 40 40
        e 16 90 41 7f
        e 32 80 41 40
        e 16 90 43 7f
        e 176 80 43 40
        e 16 90 43 7f
        e 128 80 43 40
        e 16 90 45 7f
        e 32 80 45 40
        e 16 90 46 7f
        e 176 80 46 40
        e 16 90 46 7f
        e 128 80 46 40
        e 16 90 46 7f
        e 32 80 46 40
        e 16 90 46 7f
        e 176 80 46 40
        e 16 90 45 7f
        e 176 80 45 40
        e 208 90 42 7f
        e 128 80 42 40
        e 16 90 43 7f
        e 32 80 43 40
        e 16 90 45 7f
        e 176 80 45 40
        e 16 90 45 7f
        e 128 80 45 40
        e 16 90 47 7f
        e 32 80 47 40
        e 16 90 48 7f
        e 176 80 48 40
        e 16 90 48 7f
        e 128 80 48 40
        e 16 90 48 7f
        e 32 80 48 40
        e 16 90 47 7f
        e 368 80 47 40
        e 208 90 47 7f
        e 128 80 47 40
        e 16 90 47 7f
        e 32 80 47 40
        e 16 90 47 7f
        e 128 80 47 40
        e 16 90 45 7f
        e 32 80 45 40
        e 16 90 47 7f
        e 128 80 47 40
        e 16 90 45 7f
        e 32 80 45 40
        e 16 90 45 7f
        e 128 80 45 40
        e 16 90 43 7f
        e 32 80 43 40
        e 16 90 45 7f
        e 128 80 45 40
        e 16 90 43 7f
        e 32 80 43 40
        e 16 90 45 7f
        e 272 80 45 40
        e 16 90 43 7f
        e 80 80 43 40
        e 16 90 40 7f
        e 176 80 40 40
        e 16 90 48 7f
        e 128 80 48 40
        e 16 90 47 7f
        e 32 80 47 40
        e 16 90 47 7f
        e 128 80 47 40
        e 16 90 45 7f
        e 32 80 45 40
        e 16 90 47 7f
        e 128 80 47 40
        e 16 90 45 7f
        e 32 80 45 40
        e 16 90 45 7f
        e 128 80 45 40
        e 16 90 43 7f
        e 32 80 43 40
        e 16 90 45 7f
        e 128 80 45 40
        e 16 90 43 7f
        e 32 80 43 40
        e 16 90 40 7f
        e 176 80 40 40
        e 16 90 3c 7f
        e 80 80 3c 40
        e 16 90 3e 7f
        e 80 80 3e 40
        e 16 90 40 7f
        e 80 80 40 40
        e 16 90 41 7f
        e 80 80 41 40
        e 16 90 43 7f
        e 80 80 43 40
        e 16 90 45 7f
        e 80 80 45 40
        e 16 90 46 7f
        e 368 80 46 40
        e 16 90 4a 7f
        e 176 80 4a 40
        e 16 90 49 7f
        e 176 80 49 40
        e 16 90 4a 7f
        e 176 80 4a 40
        e 16 90 4a 7f
        e 176 80 4a 40
        e 208 90 48 7f
        e 128 80 48 40
        e 16 90 48 7f
        e 32 80 48 40
        e 16 90 4c 7f
        e 176 80 4c 40
        e 16 90 48 7f
        e 128 80 48 40
        e 16 90 48 7f
        e 32 80 48 40
        e 16 90 4a 7f
        e 176 80 4a 40
        e 16 90 47 7f
        e 128 80 47 40
        e 16 90 47 7f
        e 32 80 47 40
        e 16 90 48 7f
        e 176 80 48 40
        e 400 90 48 7f
        e 128 80 48 40
        e 16 90 48 7f
        e 30 80 48 40
        e 18 90 48 7f
        e 176 80 48 40
        e 16 90 48 7f
        e 128 80 48 40
        e 16 90 48 7f
        e 32 80 48 40
        e 16 90 4a 7f
        e 176 80 4a 40
        e 16 90 47 7f
        e 128 80 47 40
        e 16 90 47 7f
        e 30 80 47 40
        e 18 90 48 7f
        e 176 80 48 40
        e 400 90 48 7f
        e 128 80 48 40
        e 16 90 48 7f
        e 32 80 48 40
        e 16 90 4c 7f
        e 174 80 4c 40
        e 18 90 48 7f
        e 123 80 48 40
        e 21 90 48 7f
        e 32 80 48 40
        e 16 90 4a 7f
        e 176 80 4a 40
        e 16 90 47 7f
        e 128 80 47 40
        e 16 90 47 7f
        e 32 80 47 40
        e 16 90 48 7f
        e 176 80 48 40
        E 16 b0 7b 00
        GUID {74742BD7-CCAA-F244-9D03-3F78F8C9FCB1}
        IGNTEMPO 0 120 4 4
        SRCCOLOR 911
        VELLANE -1 86 6
        CFGEDITVIEW 0 0 50 24 0 0 0 0 0 0.5
        KEYSNAP 0
        TRACKSEL 226
        EVTFILTER 0 -1 -1 -1 -1 0 1 0 0 -1 -1 -1 -1 0 -1 0 -1 -1
        CFGEDIT 1 0 0 0 0 0 1 0 1 1 1 0.25 16 63 1280 778 0 0 2 3 0 0 0 0 0 0.5 0 0 1 64
      >
    >
  >
  <TRACK {4A6CD977-ADCC-3A4D-927C-BB2CEF4B0809}
    NAME "vst Gladiator"
    PEAKCOL 27222112
    BEAT -1
    AUTOMODE 0
    VOLPAN 0.56234132519035 0 -1 -1 1
    MUTESOLO 0 0 0
    IPHASE 0
    ISBUS 0 0
    BUSCOMP 2 0
    SHOWINMIX 1 0.6667 0.623188 1 0.5 0 0 0
    FREEMODE 0
    SEL 0
    REC 0 0 0 0 0 0 0
    VU 2
    TRACKHEIGHT 0 0
    INQ 0 0 0 0.5 100 0 0 100
    NCHAN 2
    FX 1
    TRACKID {4A6CD977-ADCC-3A4D-927C-BB2CEF4B0809}
    PERF 0
    MIDIOUT -1
    MAINSEND 1 0
    <FXCHAIN
      SHOW 0
      LASTSEL 0
      DOCKED 0
      BYPASS 0 0 0
      <VST "VSTi: Gladiator (Tone2.com)" Gladiator.vst 0 "" 1412581196
        TEcyVO5e7f4AAAAAAgAAAAEAAAAAAAAAAgAAAAAAAABaBAAAAQAAAAAAEAA=
        Q2NuSwAAAGBGeENrAAAAAVQyR0wAAAABAAABB0luaXQAAAAAAAAAAAAAAAAAAAAAAAAAAAAAAAA9zMzNPMzMzTw0OVg9uFH0PXnbIz+AAAA7xJumPb52yT+AAAA7xJum
        AAAAAD6mZmY+PXCkP4AAAD7FHrk/AAAAPwAAAAAAAAA9ffO2PdDlYDy8an8/RR64AAAAAD+AAAA8NDlYPZFocz71wo87RJumPbhR6D69cKQ+PXCkP4AAAD8AAAA/A9cL
        PwAAAAAAAAAAAAAAPwAAAD8AAAA/AAAAPtmZmj8AAAAAAAAAO+VgQj24UesAAAAAPk21xDtEm6Y/S4UeAAAAAAAAAAA+64UgPpR64T1hR7A+z1woPx64Uj49cKY/AAAA
        PwAAAAAAAAAAAAAAPwAAAAAAAAAAAAAAP4AAAD+AAAAAAAAAPxHrhT8AAAA/AAAAPwAAAD8AAAAAAAAAPwAAAD8AAAA/AAAAAAAAAD8AAAA/AAAAPwAAAAAAAAA6gxJv
        P1Cj1wAAAAA/gAAAAAAAADqDEm8/AAAAAAAAAAAAAAAAAAAAPwAAAAAAAAA/gAAAAAAAAD+AAAAAAAAAPwAAAD8AAAA/AAAAPwAAAD8AAAA/AAAAPwAAAD8AAAA/AAAA
        PwAAAD8AAAA/EeuGPKPXCjqDEm88RJumAAAAAAAAAAAAAAAAPLxqfwAAAAAAAAAAAAAAAAAAAAAAAAAAAAAAAAAAAAAAAAAAAAAAAAAAAAAAAAAAAAAAAAAAAAAAAAAA
        AAAAAAAAAAA8E3S8AAAAADw0OVgAAAAAPBN0vAAAAAA8NDlYAAAAADwTdLwAAAAAPDQ5WAAAAAA8E3S8AAAAADw0OVgAAAAAPGVgQj2HKwI8ZWBCOwMSbz2JN0w7AxJv
        PLQ5WDyLQ5Y8k3S8PVT99D0XjVA8zMzNPoAAAD9ywjU/AAAAP1GnuT8wjT4/HLCNAAAAADsDEm86gxJvAAAAAAAAAAAAAAAAPwAAADqDEm87RJumP4AAAAAAAAA/gAAA
        AAAAAD+AAAAAAAAAAAAAAAAAAAAAAAAAP4AAAAAAAAA/AAAAAAAAAD8AAAA/BR64PwAAAD+AAAA/AAAAPwAAAD8AAAA/gAAAP4AAAAAAAAAAAAAAAAAAAD8AAAA/gAAA
        PwAAAAAAAAA+vXCkAAAAAAAAAAA/gAAAP4AAAD8j1wo/gAAAAAAAAAAAAAA/gAAAPwAAAAAAAAAAAAAAAAAAAAAAAAAAAAAAAAAAAAAAAAAAAAAAAAAAAAAAAAAAAAAA
        AAAAAD8AAAA/AAAAPwAAAD8AAAA/AAAAPwAAAAAAAAAAAAAAP4AAAAAAAAAAAAAAAAAAAAAAAAAAAAAAAAAAAAAAAAAAAAAAAAAAAAAAAAAAAAAAAAAAAAAAAAAAAAAA
        AAAAAAAAAAAAAAAAAAAAAAAAAAAAAAAAAAAAAAAAAAAAAAAAAAAAAAAAAAAAAAAAAAAAAAAAqqusrQ==
        AEluaXQAEAAAAA==
      >
      PRESETNAME Init
      FLOATPOS 500 379 987 799
      FXID {532372E3-5B0D-9345-A9C8-98A8EBAF9A7E}
      WAK 0
    >
    <ITEM
      POSITION 0
      SNAPOFFS 0
      LENGTH 91
      LOOP 1
      ALLTAKES 0
      FADEIN 1 0 0 1 0 0
      FADEOUT 1 0 0 1 0 0
      MUTE 0
      SEL 0
      YPOS 0.845802 0.05
      IGUID {D5CFB695-21E1-6546-A6DE-3F72475AB866}
      IID 11
      NAME "Melody               - National_Anthems_-_Chile.mid"
      VOLPAN 1 0 1 -1
      SOFFS 21.5 43
      PLAYRATE 1 1 0 -1 0 0.0025
      CHANMODE 0
      TAKECOLOR 26173599 B
      GUID {9BC3F539-0F87-374F-A9A4-6D429BE41F4E}
      <SOURCE MIDI
        HASDATA 1 192 QN
        POOLEDEVTS {CCD704C5-B034-F549-B55D-C9416746297C}
        <X 0 0 0 0 3 "Melody              "
          /wNNZWxvZHkgICAgICAgICAgICAgIA==
        >
        <X 0 0 0 0 1 "THE SOFTWARE TOOLWORKS"
          /wFUSEUgU09GVFdBUkUgVE9PTFdPUktT
        >
        <X 0 0 0 0 1 "WORLD ATLAS"
          /wFXT1JMRCBBVExBUw==
        >
        <X 0 0 0 0 1 "MultiMedia Windows Version"
          /wFNdWx0aU1lZGlhIFdpbmRvd3MgVmVyc2lvbg==
        >
        <X 0 0 0 0 1 "Country: CHILE"
          /wFDb3VudHJ5OiBDSElMRQ==
        >
        <X 0 0 0 0 1 "(p) (c) The Software Toolworks 1991"
          /wEocCkgKGMpIFRoZSBTb2Z0d2FyZSBUb29sd29ya3MgMTk5MQ==
        >
        <X 0 0 0 0 1 "revised 11-26-91"
          /wFyZXZpc2VkIDExLTI2LTkx
        >
        <X 0 0 0 0 1 "edit date:9-1-91"
          /wFlZGl0IGRhdGU6OS0xLTkx
        >
        <X 0 0 0 0 1 "This file provided by:"
          /wFUaGlzIGZpbGUgcHJvdmlkZWQgYnk6
        >
        <X 0 0 0 0 1 "Rob Wallace Music"
          /wFSb2IgV2FsbGFjZSBNdXNpYw==
        >
        <X 0 0 0 0 1 "{602} 979-6201"
          /wF7NjAyfSA5NzktNjIwMQ==
        >
        <X 0 0 0 0 1 "MULTIMEDIA WINDOWS VERSION"
          /wFNVUxUSU1FRElBIFdJTkRPV1MgVkVSU0lPTg==
        >
        e 8256 90 43 7f
        e 128 80 43 40
        e 16 90 48 7f
        e 32 80 48 40
        e 16 90 48 7f
        e 128 80 48 40
        e 16 90 47 7f
        e 32 80 47 40
        e 16 90 47 7f
        e 128 80 47 40
        e 16 90 45 7f
        e 32 80 45 40
        e 16 90 45 7f
        e 128 80 45 40
        e 16 90 43 7f
        e 32 80 43 40
        e 16 90 43 7f
        e 128 80 43 40
        e 16 90 42 7f
        e 32 80 42 40
        e 16 90 43 7f
        e 272 80 43 40
        e 16 90 41 7f
        e 80 80 41 40
        e 16 90 40 7f
        e 176 80 40 40
        e 16 90 3e 7f
        e 128 80 3e 40
        e 16 90 40 7f
        e 32 80 40 40
        e 16 90 41 7f
        e 128 80 41 40
        e 16 90 43 7f
        e 32 80 43 40
        e 16 90 45 7f
        e 48 80 45 40
        e 16 90 43 7f
        e 48 80 43 40
        e 16 90 41 7f
        e 48 80 41 40
        e 16 90 40 7f
        e 128 80 40 40
        e 16 90 41 7f
        e 32 80 41 40
        e 16 90 43 7f
        e 48 80 43 40
        e 16 90 41 7f
        e 48 80 41 40
        e 16 90 40 7f
        e 48 80 40 40
        e 16 90 3e 7f
        e 176 80 3e 40
        e 400 90 43 7f
        e 128 80 43 40
        e 16 90 48 7f
        e 32 80 48 40
        e 16 90 48 7f
        e 128 80 48 40
        e 16 90 47 7f
        e 32 80 47 40
        e 16 90 47 7f
        e 128 80 47 40
        e 16 90 45 7f
        e 32 80 45 40
        e 16 90 45 7f
        e 128 80 45 40
        e 16 90 43 7f
        e 32 80 43 40
        e 16 90 43 7f
        e 128 80 43 40
        e 16 90 42 7f
        e 32 80 42 40
        e 16 90 43 7f
        e 272 80 43 40
        e 16 90 41 7f
        e 80 80 41 40
        e 16 90 40 7f
        e 176 80 40 40
        e 16 90 43 7f
        e 128 80 43 40
        e 16 90 48 7f
        e 32 80 48 40
        e 16 90 47 7f
        e 128 80 47 40
        e 16 90 46 7f
        e 32 80 46 40
        e 16 90 47 7f
        e 128 80 47 40
        e 16 90 48 7f
        e 32 80 48 40
        e 16 90 45 7f
        e 128 80 45 40
        e 16 90 44 7f
        e 32 80 44 40
        e 16 90 45 7f
        e 128 80 45 40
        e 16 90 47 7f
        e 32 80 47 40
        e 16 90 43 7f
        e 368 80 43 40
        e 208 90 43 7f
        e 128 80 43 40
        e 16 90 43 7f
        e 32 80 43 40
        e 16 90 43 7f
        e 176 80 43 40
        e 16 90 43 7f
        e 128 80 43 40
        e 16 90 43 7f
        e 32 80 43 40
        e 16 90 44 7f
        e 80 80 44 40
        e 16 90 43 7f
        e 80 80 43 40
        e 16 90 41 7f
        e 80 80 41 40
        e 16 90 43 7f
        e 80 80 43 40
        e 16 90 44 7f
        e 272 80 44 40
        e 16 90 43 7f
        e 80 80 43 40
        e 16 90 41 7f
        e 176 80 41 40
        e 16 90 44 7f
        e 128 80 44 40
        e 16 90 44 7f
        e 32 80 44 40
        e 16 90 44 7f
        e 176 80 44 40
        e 16 90 44 7f
        e 128 80 44 40
        e 16 90 44 7f
        e 32 80 44 40
        e 16 90 46 7f
        e 80 80 46 40
        e 16 90 44 7f
        e 80 80 44 40
        e 16 90 43 7f
        e 80 80 43 40
        e 16 90 44 7f
        e 80 80 44 40
        e 16 90 46 7f
        e 368 80 46 40
        e 208 90 43 7f
        e 128 80 43 40
        e 16 90 43 7f
        e 32 80 43 40
        e 16 90 48 7f
        e 176 80 48 40
        e 16 90 48 7f
        e 128 80 48 40
        e 16 90 48 7f
        e 32 80 48 40
        e 16 90 48 7f
        e 48 80 48 40
        e 16 90 46 7f
        e 48 80 46 40
        e 16 90 44 7f
        e 48 80 44 40
        e 16 90 44 7f
        e 48 80 44 40
        e 16 90 43 7f
        e 48 80 43 40
        e 16 90 42 7f
        e 48 80 42 40
        e 16 90 43 7f
        e 368 80 43 40
        e 208 90 40 7f
        e 128 80 40 40
        e 16 90 40 7f
        e 32 80 40 40
        e 16 90 40 7f
        e 128 80 40 40
        e 16 90 3e 7f
        e 32 80 3e 40
        e 16 90 40 7f
        e 128 80 40 40
        e 16 90 3e 7f
        e 32 80 3e 40
        e 16 90 40 7f
        e 128 80 40 40
        e 16 90 3e 7f
        e 32 80 3e 40
        e 16 90 40 7f
        e 128 80 40 40
        e 16 90 41 7f
        e 32 80 41 40
        e 16 90 43 7f
        e 176 80 43 40
        e 16 90 45 7f
        e 368 80 45 40
        e 16 90 3e 7f
        e 128 80 3e 40
        e 16 90 3e 7f
        e 32 80 3e 40
        e 16 90 3e 7f
        e 128 80 3e 40
        e 16 90 3c 7f
        e 32 80 3c 40
        e 16 90 3e 7f
        e 128 80 3e 40
        e 16 90 3c 7f
        e 32 80 3c 40
        e 16 90 3e 7f
        e 128 80 3e 40
        e 16 90 40 7f
        e 32 80 40 40
        e 16 90 41 7f
        e 128 80 41 40
        e 16 90 42 7f
        e 32 80 42 40
        e 16 90 45 7f
        e 176 80 45 40
        e 16 90 43 7f
        e 80 80 43 40
        e 112 90 45 7f
        e 80 80 45 40
        e 64 90 47 7f
        e 32 80 47 40
        e 16 90 48 7f
        e 48 80 48 40
        e 16 90 47 7f
        e 48 80 47 40
        e 16 90 45 7f
        e 48 80 45 40
        e 16 90 47 7f
        e 128 80 47 40
        e 16 90 45 7f
        e 32 80 45 40
        e 16 90 43 7f
        e 128 80 43 40
        e 16 90 43 7f
        e 32 80 43 40
        e 16 90 41 7f
        e 128 80 41 40
        e 16 90 43 7f
        e 32 80 43 40
        e 16 90 45 7f
        e 48 80 45 40
        e 16 90 43 7f
        e 48 80 43 40
        e 16 90 41 7f
        e 48 80 41 40
        e 16 90 43 7f
        e 176 80 43 40
        e 16 90 40 7f
        e 176 80 40 40
        e 16 90 45 7f
        e 128 80 45 40
        e 16 90 47 7f
        e 32 80 47 40
        e 16 90 48 7f
        e 48 80 48 40
        e 16 90 47 7f
        e 48 80 47 40
        e 16 90 45 7f
        e 48 80 45 40
        e 16 90 43 7f
        e 128 80 43 40
        e 16 90 48 7f
        e 32 80 48 40
        e 16 90 48 7f
        e 48 80 48 40
        e 16 90 47 7f
        e 48 80 47 40
        e 16 90 45 7f
        e 48 80 45 40
        e 16 90 45 7f
        e 48 80 45 40
        e 16 90 43 7f
        e 48 80 43 40
        e 14 90 41 7f
        e 48 80 41 40
        e 18 90 41 7f
        e 48 80 41 40
        e 16 90 40 7f
        e 48 80 40 40
        e 16 90 3e 7f
        e 48 80 3e 40
        e 16 90 3c 7f
        e 176 80 3c 40
        e 592 90 47 7f
        e 560 80 47 40
        e 16 90 48 7f
        e 176 80 48 40
        e 16 90 4a 7f
        e 368 80 4a 40
        e 16 90 4a 7f
        e 176 80 4a 40
        e 16 90 47 7f
        e 176 80 47 40
        e 16 90 48 7f
        e 368 80 48 40
        e 16 90 48 7f
        e 128 80 48 40
        e 16 90 47 7f
        e 32 80 47 40
        e 16 90 48 7f
        e 128 80 48 40
        e 16 90 4a 7f
        e 32 80 4a 40
        e 16 90 47 7f
        e 176 80 47 40
        e 16 90 47 7f
        e 176 80 47 40
        e 400 90 47 7f
        e 560 80 47 40
        e 16 90 48 7f
        e 176 80 48 40
        e 16 90 4a 7f
        e 368 80 4a 40
        e 16 90 4a 7f
        e 176 80 4a 40
        e 16 90 47 7f
        e 176 80 47 40
        e 16 90 48 7f
        e 368 80 48 40
        e 16 90 48 7f
        e 128 80 48 40
        e 16 90 47 7f
        e 32 80 47 40
        e 16 90 48 7f
        e 128 80 48 40
        e 16 90 4a 7f
        e 32 80 4a 40
        e 16 90 47 7f
        e 176 80 47 40
        e 400 90 40 7f
        e 128 80 40 40
        e 16 90 41 7f
        e 32 80 41 40
        e 16 90 43 7f
        e 176 80 43 40
        e 16 90 43 7f
        e 128 80 43 40
        e 16 90 45 7f
        e 32 80 45 40
        e 16 90 46 7f
        e 176 80 46 40
        e 16 90 46 7f
        e 128 80 46 40
        e 16 90 46 7f
        e 32 80 46 40
        e 16 90 46 7f
        e 176 80 46 40
        e 16 90 45 7f
        e 176 80 45 40
        e 208 90 42 7f
        e 128 80 42 40
        e 16 90 43 7f
        e 32 80 43 40
        e 16 90 45 7f
        e 176 80 45 40
        e 16 90 45 7f
        e 128 80 45 40
        e 16 90 47 7f
        e 32 80 47 40
        e 16 90 48 7f
        e 176 80 48 40
        e 16 90 48 7f
        e 128 80 48 40
        e 16 90 48 7f
        e 32 80 48 40
        e 16 90 47 7f
        e 368 80 47 40
        e 208 90 47 7f
        e 128 80 47 40
        e 16 90 47 7f
        e 32 80 47 40
        e 16 90 47 7f
        e 128 80 47 40
        e 16 90 45 7f
        e 32 80 45 40
        e 16 90 47 7f
        e 128 80 47 40
        e 16 90 45 7f
        e 32 80 45 40
        e 16 90 45 7f
        e 128 80 45 40
        e 16 90 43 7f
        e 32 80 43 40
        e 16 90 45 7f
        e 128 80 45 40
        e 16 90 43 7f
        e 32 80 43 40
        e 16 90 45 7f
        e 272 80 45 40
        e 16 90 43 7f
        e 80 80 43 40
        e 16 90 40 7f
        e 176 80 40 40
        e 16 90 48 7f
        e 128 80 48 40
        e 16 90 47 7f
        e 32 80 47 40
        e 16 90 47 7f
        e 128 80 47 40
        e 16 90 45 7f
        e 32 80 45 40
        e 16 90 47 7f
        e 128 80 47 40
        e 16 90 45 7f
        e 32 80 45 40
        e 16 90 45 7f
        e 128 80 45 40
        e 16 90 43 7f
        e 32 80 43 40
        e 16 90 45 7f
        e 128 80 45 40
        e 16 90 43 7f
        e 32 80 43 40
        e 16 90 40 7f
        e 176 80 40 40
        e 16 90 3c 7f
        e 80 80 3c 40
        e 16 90 3e 7f
        e 80 80 3e 40
        e 16 90 40 7f
        e 80 80 40 40
        e 16 90 41 7f
        e 80 80 41 40
        e 16 90 43 7f
        e 80 80 43 40
        e 16 90 45 7f
        e 80 80 45 40
        e 16 90 46 7f
        e 368 80 46 40
        e 16 90 4a 7f
        e 176 80 4a 40
        e 16 90 49 7f
        e 176 80 49 40
        e 16 90 4a 7f
        e 176 80 4a 40
        e 16 90 4a 7f
        e 176 80 4a 40
        e 208 90 48 7f
        e 128 80 48 40
        e 16 90 48 7f
        e 32 80 48 40
        e 16 90 4c 7f
        e 176 80 4c 40
        e 16 90 48 7f
        e 128 80 48 40
        e 16 90 48 7f
        e 32 80 48 40
        e 16 90 4a 7f
        e 176 80 4a 40
        e 16 90 47 7f
        e 128 80 47 40
        e 16 90 47 7f
        e 32 80 47 40
        e 16 90 48 7f
        e 176 80 48 40
        e 400 90 48 7f
        e 128 80 48 40
        e 16 90 48 7f
        e 30 80 48 40
        e 18 90 48 7f
        e 176 80 48 40
        e 16 90 48 7f
        e 128 80 48 40
        e 16 90 48 7f
        e 32 80 48 40
        e 16 90 4a 7f
        e 176 80 4a 40
        e 16 90 47 7f
        e 128 80 47 40
        e 16 90 47 7f
        e 30 80 47 40
        e 18 90 48 7f
        e 176 80 48 40
        e 400 90 48 7f
        e 128 80 48 40
        e 16 90 48 7f
        e 32 80 48 40
        e 16 90 4c 7f
        e 174 80 4c 40
        e 18 90 48 7f
        e 123 80 48 40
        e 21 90 48 7f
        e 32 80 48 40
        e 16 90 4a 7f
        e 176 80 4a 40
        e 16 90 47 7f
        e 128 80 47 40
        e 16 90 47 7f
        e 32 80 47 40
        e 16 90 48 7f
        e 176 80 48 40
        E 16 b0 7b 00
        GUID {5D8FE9D2-6A75-314F-93C8-19259C2F1655}
        IGNTEMPO 0 120 4 4
        SRCCOLOR 720
        VELLANE -1 86 6
        CFGEDITVIEW 6508.8 8.671329 50 24 0 0 0 0 0 0.5
        KEYSNAP 0
        TRACKSEL 226
        EVTFILTER 0 -1 -1 -1 -1 0 1 0 0 -1 -1 -1 -1 0 -1 0 -1 -1
        CFGEDIT 1 0 0 0 0 0 1 0 1 1 1 0.25 16 63 1280 778 0 0 2 3 0 0 0 0 0 0.5 0 0 1 64
      >
      TAKE
      NAME "Melody               - National_Anthems_-_Chile.mid"
      TAKEVOLPAN 0 1 -1
      SOFFS 21.5 43
      PLAYRATE 1 1 0 -1 0 0.0025
      CHANMODE 0
      GUID {B2C17238-C34D-1D42-90F5-F5233E918FE9}
      <SOURCE MIDI
        HASDATA 1 192 QN
        POOLEDEVTS {E92A81CD-0AA5-5540-86F3-250B6E2DF1A9}
        <X 0 0 0 0 3 "Melody              "
          /wNNZWxvZHkgICAgICAgICAgICAgIA==
        >
        <X 0 0 0 0 1 "THE SOFTWARE TOOLWORKS"
          /wFUSEUgU09GVFdBUkUgVE9PTFdPUktT
        >
        <X 0 0 0 0 1 "WORLD ATLAS"
          /wFXT1JMRCBBVExBUw==
        >
        <X 0 0 0 0 1 "MultiMedia Windows Version"
          /wFNdWx0aU1lZGlhIFdpbmRvd3MgVmVyc2lvbg==
        >
        <X 0 0 0 0 1 "Country: CHILE"
          /wFDb3VudHJ5OiBDSElMRQ==
        >
        <X 0 0 0 0 1 "(p) (c) The Software Toolworks 1991"
          /wEocCkgKGMpIFRoZSBTb2Z0d2FyZSBUb29sd29ya3MgMTk5MQ==
        >
        <X 0 0 0 0 1 "revised 11-26-91"
          /wFyZXZpc2VkIDExLTI2LTkx
        >
        <X 0 0 0 0 1 "edit date:9-1-91"
          /wFlZGl0IGRhdGU6OS0xLTkx
        >
        <X 0 0 0 0 1 "This file provided by:"
          /wFUaGlzIGZpbGUgcHJvdmlkZWQgYnk6
        >
        <X 0 0 0 0 1 "Rob Wallace Music"
          /wFSb2IgV2FsbGFjZSBNdXNpYw==
        >
        <X 0 0 0 0 1 "{602} 979-6201"
          /wF7NjAyfSA5NzktNjIwMQ==
        >
        <X 0 0 0 0 1 "MULTIMEDIA WINDOWS VERSION"
          /wFNVUxUSU1FRElBIFdJTkRPV1MgVkVSU0lPTg==
        >
        e 8256 90 43 7f
        e 128 80 43 40
        e 16 90 48 7f
        e 32 80 48 40
        e 16 90 48 7f
        e 128 80 48 40
        e 16 90 47 7f
        e 32 80 47 40
        e 16 90 47 7f
        e 128 80 47 40
        e 16 90 45 7f
        e 32 80 45 40
        e 16 90 45 7f
        e 128 80 45 40
        e 16 90 43 7f
        e 32 80 43 40
        e 16 90 43 7f
        e 128 80 43 40
        e 16 90 42 7f
        e 32 80 42 40
        e 16 90 43 7f
        e 272 80 43 40
        e 16 90 41 7f
        e 80 80 41 40
        e 16 90 40 7f
        e 176 80 40 40
        e 16 90 3e 7f
        e 128 80 3e 40
        e 16 90 40 7f
        e 32 80 40 40
        e 16 90 41 7f
        e 128 80 41 40
        e 16 90 43 7f
        e 32 80 43 40
        e 16 90 45 7f
        e 48 80 45 40
        e 16 90 43 7f
        e 48 80 43 40
        e 16 90 41 7f
        e 48 80 41 40
        e 16 90 40 7f
        e 128 80 40 40
        e 16 90 41 7f
        e 32 80 41 40
        e 16 90 43 7f
        e 48 80 43 40
        e 16 90 41 7f
        e 48 80 41 40
        e 16 90 40 7f
        e 48 80 40 40
        e 16 90 3e 7f
        e 176 80 3e 40
        e 400 90 43 7f
        e 128 80 43 40
        e 16 90 48 7f
        e 32 80 48 40
        e 16 90 48 7f
        e 128 80 48 40
        e 16 90 47 7f
        e 32 80 47 40
        e 16 90 47 7f
        e 128 80 47 40
        e 16 90 45 7f
        e 32 80 45 40
        e 16 90 45 7f
        e 128 80 45 40
        e 16 90 43 7f
        e 32 80 43 40
        e 16 90 43 7f
        e 128 80 43 40
        e 16 90 42 7f
        e 32 80 42 40
        e 16 90 43 7f
        e 272 80 43 40
        e 16 90 41 7f
        e 80 80 41 40
        e 16 90 40 7f
        e 176 80 40 40
        e 16 90 43 7f
        e 128 80 43 40
        e 16 90 48 7f
        e 32 80 48 40
        e 16 90 47 7f
        e 128 80 47 40
        e 16 90 46 7f
        e 32 80 46 40
        e 16 90 47 7f
        e 128 80 47 40
        e 16 90 48 7f
        e 32 80 48 40
        e 16 90 45 7f
        e 128 80 45 40
        e 16 90 44 7f
        e 32 80 44 40
        e 16 90 45 7f
        e 128 80 45 40
        e 16 90 47 7f
        e 32 80 47 40
        e 16 90 43 7f
        e 368 80 43 40
        e 208 90 43 7f
        e 128 80 43 40
        e 16 90 43 7f
        e 32 80 43 40
        e 16 90 43 7f
        e 176 80 43 40
        e 16 90 43 7f
        e 128 80 43 40
        e 16 90 43 7f
        e 32 80 43 40
        e 16 90 44 7f
        e 80 80 44 40
        e 16 90 43 7f
        e 80 80 43 40
        e 16 90 41 7f
        e 80 80 41 40
        e 16 90 43 7f
        e 80 80 43 40
        e 16 90 44 7f
        e 272 80 44 40
        e 16 90 43 7f
        e 80 80 43 40
        e 16 90 41 7f
        e 176 80 41 40
        e 16 90 44 7f
        e 128 80 44 40
        e 16 90 44 7f
        e 32 80 44 40
        e 16 90 44 7f
        e 176 80 44 40
        e 16 90 44 7f
        e 128 80 44 40
        e 16 90 44 7f
        e 32 80 44 40
        e 16 90 46 7f
        e 80 80 46 40
        e 16 90 44 7f
        e 80 80 44 40
        e 16 90 43 7f
        e 80 80 43 40
        e 16 90 44 7f
        e 80 80 44 40
        e 16 90 46 7f
        e 368 80 46 40
        e 208 90 43 7f
        e 128 80 43 40
        e 16 90 43 7f
        e 32 80 43 40
        e 16 90 48 7f
        e 176 80 48 40
        e 16 90 48 7f
        e 128 80 48 40
        e 16 90 48 7f
        e 32 80 48 40
        e 16 90 48 7f
        e 48 80 48 40
        e 16 90 46 7f
        e 48 80 46 40
        e 16 90 44 7f
        e 48 80 44 40
        e 16 90 44 7f
        e 48 80 44 40
        e 16 90 43 7f
        e 48 80 43 40
        e 16 90 42 7f
        e 48 80 42 40
        e 16 90 43 7f
        e 368 80 43 40
        e 208 90 40 7f
        e 128 80 40 40
        e 16 90 40 7f
        e 32 80 40 40
        e 16 90 40 7f
        e 128 80 40 40
        e 16 90 3e 7f
        e 32 80 3e 40
        e 16 90 40 7f
        e 128 80 40 40
        e 16 90 3e 7f
        e 32 80 3e 40
        e 16 90 40 7f
        e 128 80 40 40
        e 16 90 3e 7f
        e 32 80 3e 40
        e 16 90 40 7f
        e 128 80 40 40
        e 16 90 41 7f
        e 32 80 41 40
        e 16 90 43 7f
        e 176 80 43 40
        e 16 90 45 7f
        e 368 80 45 40
        e 16 90 3e 7f
        e 128 80 3e 40
        e 16 90 3e 7f
        e 32 80 3e 40
        e 16 90 3e 7f
        e 128 80 3e 40
        e 16 90 3c 7f
        e 32 80 3c 40
        e 16 90 3e 7f
        e 128 80 3e 40
        e 16 90 3c 7f
        e 32 80 3c 40
        e 16 90 3e 7f
        e 128 80 3e 40
        e 16 90 40 7f
        e 32 80 40 40
        e 16 90 41 7f
        e 128 80 41 40
        e 16 90 42 7f
        e 32 80 42 40
        e 16 90 45 7f
        e 176 80 45 40
        e 16 90 43 7f
        e 80 80 43 40
        e 112 90 45 7f
        e 80 80 45 40
        e 64 90 47 7f
        e 32 80 47 40
        e 16 90 48 7f
        e 48 80 48 40
        e 16 90 47 7f
        e 48 80 47 40
        e 16 90 45 7f
        e 48 80 45 40
        e 16 90 47 7f
        e 128 80 47 40
        e 16 90 45 7f
        e 32 80 45 40
        e 16 90 43 7f
        e 128 80 43 40
        e 16 90 43 7f
        e 32 80 43 40
        e 16 90 41 7f
        e 128 80 41 40
        e 16 90 43 7f
        e 32 80 43 40
        e 16 90 45 7f
        e 48 80 45 40
        e 16 90 43 7f
        e 48 80 43 40
        e 16 90 41 7f
        e 48 80 41 40
        e 16 90 43 7f
        e 176 80 43 40
        e 16 90 40 7f
        e 176 80 40 40
        e 16 90 45 7f
        e 128 80 45 40
        e 16 90 47 7f
        e 32 80 47 40
        e 16 90 48 7f
        e 48 80 48 40
        e 16 90 47 7f
        e 48 80 47 40
        e 16 90 45 7f
        e 48 80 45 40
        e 16 90 43 7f
        e 128 80 43 40
        e 16 90 48 7f
        e 32 80 48 40
        e 16 90 48 7f
        e 48 80 48 40
        e 16 90 47 7f
        e 48 80 47 40
        e 16 90 45 7f
        e 48 80 45 40
        e 16 90 45 7f
        e 48 80 45 40
        e 16 90 43 7f
        e 48 80 43 40
        e 14 90 41 7f
        e 48 80 41 40
        e 18 90 41 7f
        e 48 80 41 40
        e 16 90 40 7f
        e 48 80 40 40
        e 16 90 3e 7f
        e 48 80 3e 40
        e 16 90 3c 7f
        e 176 80 3c 40
        e 592 90 47 7f
        e 560 80 47 40
        e 16 90 48 7f
        e 176 80 48 40
        e 16 90 4a 7f
        e 368 80 4a 40
        e 16 90 4a 7f
        e 176 80 4a 40
        e 16 90 47 7f
        e 176 80 47 40
        e 16 90 48 7f
        e 368 80 48 40
        e 16 90 48 7f
        e 128 80 48 40
        e 16 90 47 7f
        e 32 80 47 40
        e 16 90 48 7f
        e 128 80 48 40
        e 16 90 4a 7f
        e 32 80 4a 40
        e 16 90 47 7f
        e 176 80 47 40
        e 16 90 47 7f
        e 176 80 47 40
        e 400 90 47 7f
        e 560 80 47 40
        e 16 90 48 7f
        e 176 80 48 40
        e 16 90 4a 7f
        e 368 80 4a 40
        e 16 90 4a 7f
        e 176 80 4a 40
        e 16 90 47 7f
        e 176 80 47 40
        e 16 90 48 7f
        e 368 80 48 40
        e 16 90 48 7f
        e 128 80 48 40
        e 16 90 47 7f
        e 32 80 47 40
        e 16 90 48 7f
        e 128 80 48 40
        e 16 90 4a 7f
        e 32 80 4a 40
        e 16 90 47 7f
        e 176 80 47 40
        e 400 90 40 7f
        e 128 80 40 40
        e 16 90 41 7f
        e 32 80 41 40
        e 16 90 43 7f
        e 176 80 43 40
        e 16 90 43 7f
        e 128 80 43 40
        e 16 90 45 7f
        e 32 80 45 40
        e 16 90 46 7f
        e 176 80 46 40
        e 16 90 46 7f
        e 128 80 46 40
        e 16 90 46 7f
        e 32 80 46 40
        e 16 90 46 7f
        e 176 80 46 40
        e 16 90 45 7f
        e 176 80 45 40
        e 208 90 42 7f
        e 128 80 42 40
        e 16 90 43 7f
        e 32 80 43 40
        e 16 90 45 7f
        e 176 80 45 40
        e 16 90 45 7f
        e 128 80 45 40
        e 16 90 47 7f
        e 32 80 47 40
        e 16 90 48 7f
        e 176 80 48 40
        e 16 90 48 7f
        e 128 80 48 40
        e 16 90 48 7f
        e 32 80 48 40
        e 16 90 47 7f
        e 368 80 47 40
        e 208 90 47 7f
        e 128 80 47 40
        e 16 90 47 7f
        e 32 80 47 40
        e 16 90 47 7f
        e 128 80 47 40
        e 16 90 45 7f
        e 32 80 45 40
        e 16 90 47 7f
        e 128 80 47 40
        e 16 90 45 7f
        e 32 80 45 40
        e 16 90 45 7f
        e 128 80 45 40
        e 16 90 43 7f
        e 32 80 43 40
        e 16 90 45 7f
        e 128 80 45 40
        e 16 90 43 7f
        e 32 80 43 40
        e 16 90 45 7f
        e 272 80 45 40
        e 16 90 43 7f
        e 80 80 43 40
        e 16 90 40 7f
        e 176 80 40 40
        e 16 90 48 7f
        e 128 80 48 40
        e 16 90 47 7f
        e 32 80 47 40
        e 16 90 47 7f
        e 128 80 47 40
        e 16 90 45 7f
        e 32 80 45 40
        e 16 90 47 7f
        e 128 80 47 40
        e 16 90 45 7f
        e 32 80 45 40
        e 16 90 45 7f
        e 128 80 45 40
        e 16 90 43 7f
        e 32 80 43 40
        e 16 90 45 7f
        e 128 80 45 40
        e 16 90 43 7f
        e 32 80 43 40
        e 16 90 40 7f
        e 176 80 40 40
        e 16 90 3c 7f
        e 80 80 3c 40
        e 16 90 3e 7f
        e 80 80 3e 40
        e 16 90 40 7f
        e 80 80 40 40
        e 16 90 41 7f
        e 80 80 41 40
        e 16 90 43 7f
        e 80 80 43 40
        e 16 90 45 7f
        e 80 80 45 40
        e 16 90 46 7f
        e 368 80 46 40
        e 16 90 4a 7f
        e 176 80 4a 40
        e 16 90 49 7f
        e 176 80 49 40
        e 16 90 4a 7f
        e 176 80 4a 40
        e 16 90 4a 7f
        e 176 80 4a 40
        e 208 90 48 7f
        e 128 80 48 40
        e 16 90 48 7f
        e 32 80 48 40
        e 16 90 4c 7f
        e 176 80 4c 40
        e 16 90 48 7f
        e 128 80 48 40
        e 16 90 48 7f
        e 32 80 48 40
        e 16 90 4a 7f
        e 176 80 4a 40
        e 16 90 47 7f
        e 128 80 47 40
        e 16 90 47 7f
        e 32 80 47 40
        e 16 90 48 7f
        e 176 80 48 40
        e 400 90 48 7f
        e 128 80 48 40
        e 16 90 48 7f
        e 30 80 48 40
        e 18 90 48 7f
        e 176 80 48 40
        e 16 90 48 7f
        e 128 80 48 40
        e 16 90 48 7f
        e 32 80 48 40
        e 16 90 4a 7f
        e 176 80 4a 40
        e 16 90 47 7f
        e 128 80 47 40
        e 16 90 47 7f
        e 30 80 47 40
        e 18 90 48 7f
        e 176 80 48 40
        e 400 90 48 7f
        e 128 80 48 40
        e 16 90 48 7f
        e 32 80 48 40
        e 16 90 4c 7f
        e 174 80 4c 40
        e 18 90 48 7f
        e 123 80 48 40
        e 21 90 48 7f
        e 32 80 48 40
        e 16 90 4a 7f
        e 176 80 4a 40
        e 16 90 47 7f
        e 128 80 47 40
        e 16 90 47 7f
        e 32 80 47 40
        e 16 90 48 7f
        e 176 80 48 40
        E 16 b0 7b 00
        GUID {74742BD7-CCAA-F244-9D03-3F78F8C9FCB1}
        IGNTEMPO 0 120 4 4
        SRCCOLOR 911
        VELLANE -1 86 6
        CFGEDITVIEW 0 0 50 24 0 0 0 0 0 0.5
        KEYSNAP 0
        TRACKSEL 226
        EVTFILTER 0 -1 -1 -1 -1 0 1 0 0 -1 -1 -1 -1 0 -1 0 -1 -1
        CFGEDIT 1 0 0 0 0 0 1 0 1 1 1 0.25 16 63 1280 778 0 0 2 3 0 0 0 0 0 0.5 0 0 1 64
      >
    >
  >
  <TRACK {CE669947-AC4B-7149-9C5F-A66A947A78D3}
    NAME "16th pulse (mix w/ send?)"
    PEAKCOL 16576
    BEAT -1
    AUTOMODE 0
    VOLPAN 0.65859561281431 0 -1 -1 1
    MUTESOLO 0 0 0
    IPHASE 0
    ISBUS 0 0
    BUSCOMP 0 0
    SHOWINMIX 1 0.6667 0.623188 1 0.5 0 0 0
    FREEMODE 0
    SEL 0
    REC 0 0 0 0 0 0 0
    VU 2
    TRACKHEIGHT 80 0
    INQ 0 0 0 0.5 100 0 0 100
    NCHAN 2
    FX 1
    TRACKID {CE669947-AC4B-7149-9C5F-A66A947A78D3}
    PERF 0
    MIDIOUT -1
    MAINSEND 1 0
    <FXCHAIN
      WNDRECT 36 359 724 387
      SHOW 0
      LASTSEL 0
      DOCKED 0
      BYPASS 0 0 0
      <VST "VSTi: BlueARP.x64 (graywolf2004)" BlueARP.x64.vst 0 "" 929322872
        eFdkN+5e7f4AAAAAAgAAAAEAAAAAAAAAAgAAAAAAAAAODwEAAQAAAAAAEAA=
        YmJuawYPAQBmaXhwFAAAABAAAQEBAAAAAAII/wUAAAAAAAAAZnBncCIAAAAPCF8EAQEAfwB/AEAAAQABBAAAAAAAAAAAfwAAAAEAAAAAY2hucAQAAAAA////Y2hucwgA
        AAAPDg4O/////2NobnAEAAAAAP///2NobnMIAAAAFv////////9jaG5wBAAAAAD///9jaG5zCAAAABL/////////Y2hucAQAAAAA////Y2hucwgAAAAICAkJ/////2No
        bnAEAAAAAP///2NobnMIAAAANf////////9jaG5wBAAAAAD///9jaG5zCAAAAD0+////////Y2hucAQAAAAA////Y2hucwgAAAAgICAh/////2NobnAEAAAAAP///2No
        bnMIAAAAGhr///////9jaG5wBAAAAAD///9jaG5zCAAAAP//////////Y2hucAQAAAAA////Y2hucwgAAAD//////////2NobnAEAAAAAP///2NobnMIAAAA////////
        //9jaG5wBAAAAAD///9jaG5zCAAAAP//////////Y2hucAQAAAAA////Y2hucwgAAAD//////////2NobnAEAAAAAP///2NobnMIAAAA//////////9jaG5wBAAAAAD/
        //9jaG5zCAAAAP//////////Y2hucAQAAAAA////Y2hucwgAAAD//////////3Byb2cSAgAAcHJncCIAAAAQCF8EAQEAfwB/AEAAAQABBAAAAAAAAAAAfwAAAAAAAAAA
        cGdubTAAAAAtIEluaXRpYWwgcHJvZ3JhbSAtAP9/AAAEPEUaAQAAAfTw3BUBAAAAAAABADABAABzdHAwQAAAAAAAAAAAAAAAAAAAAAAAAAAAAAAAAAAAAAAAAAAAAAAA
        AAAAAAAAAAAAAAAAAAAAAAAAAAAAAAAAAAAAAAAAAABzdHAxQAAAAAgICAgICAgICAgICAgICAgICAgICAgICAgICAgICAgICAgICAgICAgICAgICAgICAgICAgICAgI
        CAgICAgICAhzdHAyQAAAAAEBAQEDAQMBAQEBAQEBAQEBAQEBAQEBAQEBAQEBAQEBAQEBAQEBAQEBAQEBAQEBAQEBAQEBAQEBAQEBAQEBAQFzdHAzQAAAAAgIBAQIBAQE
        BAQEBAQEBAQEBAQEBAQEBAQEBAQEBAQEBAQEBAQEBAQEBAQEBAQEBAQEBAQEBAQEBAQEBAQEBARzdHA0QAAAAGBgYGBgYGBgYGBgYGBgYGBgYGBgYGBgYGBgYGBgYGBg
        YGBgYGBgYGBgYGBgYGBgYGBgYGBgYGBgYGBgYGBgYGBzdHA1QAAAAAAAAAAAAAAAAAAAAAAAAAAAAAAAAAAAAAAAAAAAAAAAAAAAAAAAAAAAAAAAAAAAAAAAAAAAAAAA
        AAAAAAAAAABwcm9nEgIAAHByZ3AiAAAAEBAyBAEDAH8AfwBAAAEAAQAAAAAAAAAAAH8AAAAAAAAAAHBnbm0wAAAAU2ltcGxlIDRrIFVwAAAAALApvl//fwAAsOhEGgEA
        AAAkKr5f/38AAPTw3BUBAAAAc3RwMEAAAAAAAAAAAAAAAAAAAAAAAAAAAAAAAAAAAAAAAAAAAAAAAAAAAAAAAAAAAAAAAAAAAAAAAAAAAAAAAAAAAAAAAAAAc3RwMUAA
        AAAICAgICAgICAgICAgICAgICAgICAgICAgICAgICAgICAgICAgICAgICAgICAgICAgICAgICAgICAgICAgICAgIc3RwMkAAAAABAQEBAQEBAQEBAQEBAQEBAQEBAQEB
        AQEBAQEBAQEBAQEBAQEBAQEBAQEBAQEBAQEBAQEBAQEBAQEBAQEBAQEBc3RwM0AAAAAECBAgBAgQIAQIECAECBAgBAQEBAQEBAQEBAQEBAQEBAQEBAQEBAQEBAQEBAQE
        BAQEBAQEBAQEBAQEBAQEBAQEc3RwNEAAAABgYGBgYGBgYGBgYGBgYGBgYGBgYGBgYGBgYGBgYGBgYGBgYGBgYGBgYGBgYGBgYGBgYGBgYGBgYGBgYGBgYGBgc3RwNUAA
        AAAAAAAAAAAAAAAAAAAAAAAAAAAAAAAAAAAAAAAAAAAAAAAAAAAAAAAAAAAAAAAAAAAAAAAAAAAAAAAAAAAAAAAAcHJvZxICAABwcmdwIgAAABAQMgQBAwB/AH8AQAAB
        AAEAAAAAAAAAAAB/AAAAAAAAAABwZ25tMAAAAFNpbXBsZSA0ayBEb3duAACwKb5f/38AALDoRBoBAAAAJCq+X/9/AAD08NwVAQAAAHN0cDBAAAAAAAAAAAAAAAAAAAAA
        AAAAAAAAAAAAAAAAAAAAAAAAAAAAAAAAAAAAAAAAAAAAAAAAAAAAAAAAAAAAAAAAAAAAAHN0cDFAAAAACAgICAgICAgICAgICAgICAgICAgICAgICAgICAgICAgICAgI
        CAgICAgICAgICAgICAgICAgICAgICAgICAgICHN0cDJAAAAAAQEBAQEBAQEBAQEBAQEBAQEBAQEBAQEBAQEBAQEBAQEBAQEBAQEBAQEBAQEBAQEBAQEBAQEBAQEBAQEB
        AQEBAXN0cDNAAAAAIBAIBCAQCAQgEAgEIBAIBAQEBAQEBAQEBAQEBAQEBAQEBAQEBAQEBAQEBAQEBAQEBAQEBAQEBAQEBAQEBAQEBHN0cDRAAAAAYGBgYGBgYGBgYGBg
        YGBgYGBgYGBgYGBgYGBgYGBgYGBgYGBgYGBgYGBgYGBgYGBgYGBgYGBgYGBgYGBgYGBgYHN0cDVAAAAAAAAAAAAAAAAAAAAAAAAAAAAAAAAAAAAAAAAAAAAAAAAAAAAA
        AAAAAAAAAAAAAAAAAAAAAAAAAAAAAAAAAAAAAHByb2cSAgAAcHJncCIAAAAQEDIEAQMAfwB/AEAAAQABAAAAAAAAAAAAfwAAAAAAAAAAcGdubTAAAABTaW1wbGUgM2sg
        VXAAAAAAsCm+X/9/AACw6EQaAQAAACQqvl//fwAA9PDcFQEAAABzdHAwQAAAAAAAAAAAAAAAAAAAAAAAAAAAAAAAAAAAAAAAAAAAAAAAAAAAAAAAAAAAAAAAAAAAAAAA
        AAAAAAAAAAAAAAAAAABzdHAxQAAAAAgICAgICAgICAgICAgICAgICAgICAgICAgICAgICAgICAgICAgICAgICAgICAgICAgICAgICAgICAgICAgICAhzdHAyQAAAAAEB
        AQEBAQEBAQEBAQEBAQEBAQEBAQEBAQEBAQEBAQEBAQEBAQEBAQEBAQEBAQEBAQEBAQEBAQEBAQEBAQEBAQFzdHAzQAAAAAQIEAQIEAQIEAQIEAQIEAgEBAQEBAQEBAQE
        BAQEBAQEBAQEBAQEBAQEBAQEBAQEBAQEBAQEBAQEBAQEBAQEBARzdHA0QAAAAGBgYGBgYGBgYGBgYGBgYGBgYGBgYGBgYGBgYGBgYGBgYGBgYGBgYGBgYGBgYGBgYGBg
        YGBgYGBgYGBgYGBgYGBzdHA1QAAAAAAAAAAAAAAAAAAAAAAAAAAAAAAAAAAAAAAAAAAAAAAAAAAAAAAAAAAAAAAAAAAAAAAAAAAAAAAAAAAAAAAAAABwcm9nEgIAAHBy
        Z3AiAAAAEBAyBAEDAH8AfwBAAAEAAQAAAAAAAAAAAH8AAAAAAAAAAHBnbm0wAAAAU2ltcGxlIDNrIERvd24AALApvl//fwAAsOhEGgEAAAAkKr5f/38AAPTw3BUBAAAA
        c3RwMEAAAAAAAAAAAAAAAAAAAAAAAAAAAAAAAAAAAAAAAAAAAAAAAAAAAAAAAAAAAAAAAAAAAAAAAAAAAAAAAAAAAAAAAAAAc3RwMUAAAAAICAgICAgICAgICAgICAgI
        CAgICAgICAgICAgICAgICAgICAgICAgICAgICAgICAgICAgICAgICAgICAgICAgIc3RwMkAAAAABAQEBAQEBAQEBAQEBAQEBAQEBAQEBAQEBAQEBAQEBAQEBAQEBAQEB
        AQEBAQEBAQEBAQEBAQEBAQEBAQEBAQEBc3RwM0AAAAAQCAQQCAQQCAQQCAQQCAQIBAQEBAQEBAQEBAQEBAQEBAQEBAQEBAQEBAQEBAQEBAQEBAQEBAQEBAQEBAQEBAQE
        c3RwNEAAAABgYGBgYGBgYGBgYGBgYGBgYGBgYGBgYGBgYGBgYGBgYGBgYGBgYGBgYGBgYGBgYGBgYGBgYGBgYGBgYGBgYGBgc3RwNUAAAAAAAAAAAAAAAAAAAAAAAAAA
        AAAAAAAAAAAAAAAAAAAAAAAAAAAAAAAAAAAAAAAAAAAAAAAAAAAAAAAAAAAAAAAAcHJvZxICAABwcmdwIgAAABAIWgQBAQB/AH8AQAABAAEAAAAAAAAAAAB/AAAAAAAA
        AABwZ25tMAAAAENob3JkIERlYWRtYXU1IHBsdWNrcyB2YXIxABoBAAAAJCq+X/9/AAD08NwVAQAAAHN0cDBAAAAAAAAAAAAAAAAAAAAAAAAAAAAAAAAAAAAAAAAAAAAA
        AAAAAAAAAAAAAAAAAAAAAAAAAAAAAAAAAAAAAAAAAAAAAHN0cDFAAAAACAgECAgIBAgICAgICAgICAgICAgICAgICAgICAgICAgICAgICAgICAgICAgICAgICAgICAgI
        CAgICAgICAgICHN0cDJAAAAABAAEAAQABAABAQEBAQEBAQEBAQEBAQEBAQEBAQEBAQEBAQEBAQEBAQEBAQEBAQEBAQEBAQEBAQEBAQEBAQEBAXN0cDNAAAAABAQEBAQE
        BAQEBAQEBAQEBAQEBAQEBAQEBAQEBAQEBAQEBAQEBAQEBAQEBAQEBAQEBAQEBAQEBAQEBAQEBAQEBHN0cDRAAAAAMGBgYDBgYGBgYGBgYGBgYGBgYGBgYGBgYGBgYGBg
        YGBgYGBgYGBgYGBgYGBgYGBgYGBgYGBgYGBgYGBgYGBgYHN0cDVAAAAAAAAAAAAAAAAAAAAAAAAAAAAAAAAAAAAAAAAAAAAAAAAAAAAAAAAAAAAAAAAAAAAAAAAAAAAA
        AAAAAAAAAAAAAHByb2cSAgAAcHJncCIAAAAQCFoEAQEAfwB/AEAAAQABAAAAAAAAAAAAfwEAAAAAAAAAcGdubTAAAABDaG9yZCBEZWFkbWF1NSBwbHVja3MgdmFyMgAa
        AQAAACQqvl//fwAA9PDcFQEAAABzdHAwQAAAAAAAAAAAAAAAAAAAAAAAAAAAAAAAAAAAAAAAAAAAAAAAAAAAAAAAAAAAAAAAAAAAAAAAAAAAAAAAAAAAAAAAAABzdHAx
        QAAAAAwIDggMCA4ICAgICAgICAgICAgICAgICAgICAgICAgICAgICAgICAgICAgICAgICAgICAgICAgICAgICAgICAhzdHAyQAAAAAQABAAEAAQAAQEBAQEBAQEBAQEB
        AQEBAQEBAQEBAQEBAQEBAQEBAQEBAQEBAQEBAQEBAQEBAQEBAQEBAQEBAQFzdHAzQAAAAAQEBAQEBAQEBAQEBAQEBAQEBAQEBAQEBAQEBAQEBAQEBAQEBAQEBAQEBAQE
        BAQEBAQEBAQEBAQEBAQEBAQEBARzdHA0QAAAADBgYGAwYGBgYGBgYGBgYGBgYGBgYGBgYGBgYGBgYGBgYGBgYGBgYGBgYGBgYGBgYGBgYGBgYGBgYGBgYGBgYGBzdHA1
        QAAAAAAAAAAAAAAAAAAAAAAAAAAAAAAAAAAAAAAAAAAAAAAAAAAAAAAAAAAAAAAAAAAAAAAAAAAAAAAAAAAAAAAAAABwcm9nEgIAAHByZ3AiAAAAEBBKBAEBAH8AfwBA
        AAEAAQAAAAAAAAAAAH8BAAAAAAAAAHBnbm0wAAAAUG9seXBob25pYyBvY3QuIFBsdWNrcyB2YXIxAAEAAAAkKr5f/38AAPTw3BUBAAAAc3RwMEAAAAAAAAAAAAAAAAAA
        AAAAAAAAAAAAAAAAAAAAAAAAAAAAAAAAAAAAAAAAAAAAAAAAAAAAAAAAAAAAAAAAAAAAAAAAc3RwMUAAAAAICAgMCAgICAgMCAgICAwICAgICAgICAgICAgICAgICAgI
        CAgICAgICAgICAgICAgICAgICAgICAgICAgICAgIc3RwMkAAAAAEAAAEAAAEAAAEAAAEAAQAAQEBAQEBAQEBAQEBAQEBAQEBAQEBAQEBAQEBAQEBAQEBAQEBAQEBAQEB
        AQEBAQEBc3RwM0AAAAAEBAQEBAQEBAQEBAQEBAQEBAQEBAQEBAQEBAQEBAQEBAQEBAQEBAQEBAQEBAQEBAQEBAQEBAQEBAQEBAQEBAQEc3RwNEAAAABgYGBgYGBgYGBg
        YGBgYGBgYGBgYGBgYGBgYGBgYGBgYGBgYGBgYGBgYGBgYGBgYGBgYGBgYGBgYGBgYGBgYGBgc3RwNUAAAAAAAAAAAAAAAAAAAAAAAAAAAAAAAAAAAAAAAAAAAAAAAAAA
        AAAAAAAAAAAAAAAAAAAAAAAAAAAAAAAAAAAAAAAAcHJvZxICAABwcmdwIgAAABAQSgQBAQB/AH8AQAABAAEAAAAAAAAAAAB/AQAAAAAAAABwZ25tMAAAAFBvbHlwaG9u
        aWMgb2N0LiBQbHVja3MgdmFyMgABAAAAJCq+X/9/AAD08NwVAQAAAHN0cDBAAAAAAAAAAAAAAAAAAAAAAAAAAAAAAAAAAAAAAAAAAAAAAAAAAAAAAAAAAAAAAAAAAAAA
        AAAAAAAAAAAAAAAAAAAAAHN0cDFAAAAADAgIDggIDAgIDggIDAgOCAgICAgICAgICAgICAgICAgICAgICAgICAgICAgICAgICAgICAgICAgICAgICAgICHN0cDJAAAAA
        BAAABAAABAAABAAABAAEAAEBAQEBAQEBAQEBAQEBAQEBAQEBAQEBAQEBAQEBAQEBAQEBAQEBAQEBAQEBAQEBAXN0cDNAAAAABAQEBAQEBAQEBAQEBAQEBAQEBAQEBAQE
        BAQEBAQEBAQEBAQEBAQEBAQEBAQEBAQEBAQEBAQEBAQEBAQEBAQEBHN0cDRAAAAAYGBgYGBgYGBgYGBgYGBgYGBgYGBgYGBgYGBgYGBgYGBgYGBgYGBgYGBgYGBgYGBg
        YGBgYGBgYGBgYGBgYGBgYHN0cDVAAAAAAAAAAAAAAAAAAAAAAAAAAAAAAAAAAAAAAAAAAAAAAAAAAAAAAAAAAAAAAAAAAAAAAAAAAAAAAAAAAAAAAAAAAHByb2cSAgAA
        cHJncCIAAAAQEDQEAQEAfwB/AEAAAQABAAAAAAAAAAAAfwEAAAAAAAAAcGdubTAAAABQb2x5cGhvbmljIG9jdC4gUGx1Y2tzIHZhcjMAAQAAACQqvl//fwAA9PDcFQEA
        AABzdHAwQAAAAAAAAAAAAAAAAAAAAAAAAAAAAAAAAAAAAAAAAAAAAAAAAAAAAAAAAAAAAAAAAAAAAAAAAAAAAAAAAAAAAAAAAABzdHAxQAAAAAwICA4ICAwICA4ICAwI
        DggICAgICAgICAgICAgICAgICAgICAgICAgICAgICAgICAgICAgICAgICAgICAgICAhzdHAyQAAAAAQCAgQCAgQCAgQCAgQCBAIBAQEBAQEBAQEBAQEBAQEBAQEBAQEB
        AQEBAQEBAQEBAQEBAQEBAQEBAQEBAQEBAQFzdHAzQAAAAAQEBAQEBAQEBAQEBAQEBAQEBAQEBAQEBAQEBAQEBAQEBAQEBAQEBAQEBAQEBAQEBAQEBAQEBAQEBAQEBAQE
        BARzdHA0QAAAAGBgYGBgYGBgYGBgYGBgYGBgYGBgYGBgYGBgYGBgYGBgYGBgYGBgYGBgYGBgYGBgYGBgYGBgYGBgYGBgYGBgYGBzdHA1QAAAAAAAAAAAAAAAAAAAAAAA
        AAAAAAAAAAAAAAAAAAAAAAAAAAAAAAAAAAAAAAAAAAAAAAAAAAAAAAAAAAAAAAAAAABwcm9nEgIAAHByZ3AiAAAAEBAyBAEBAH8AfwBAAAEAAQAAAAAAAAAAAH8AAAAA
        AAAAAHBnbm0wAAAAQXJwIENob3JkIEdhdGVkIDAxAF//fwAAsOhEGgEAAAAkKr5f/38AAPTw3BUBAAAAc3RwMEAAAAAAAAAAAAAAAAAAAAAAAAAAAAAAAAAAAAAAAAAA
        AAAAAAAAAAAAAAAAAAAAAAAAAAAAAAAAAAAAAAAAAAAAAAAAc3RwMUAAAAAICAgICAgICAgICAgICAgICAgICAgICAgICAgICAgICAgICAgICAgICAgICAgICAgICAgI
        CAgICAgICAgICAgIc3RwMkAAAAAEBAAEBAAEBAAEBAAEAAQAAQEBAQEBAQEBAQEBAQEBAQEBAQEBAQEBAQEBAQEBAQEBAQEBAQEBAQEBAQEBAQEBc3RwM0AAAAAEBAQE
        BAQEBAQEBAQEBAQEBAQEBAQEBAQEBAQEBAQEBAQEBAQEBAQEBAQEBAQEBAQEBAQEBAQEBAQEBAQEBAQEc3RwNEAAAABgYGBgYGBgYGBgYGBgYGBgYGBgYGBgYGBgYGBg
        YGBgYGBgYGBgYGBgYGBgYGBgYGBgYGBgYGBgYGBgYGBgYGBgc3RwNUAAAAAAAAAAAAAAAAAAAAAAAAAAAAAAAAAAAAAAAAAAAAAAAAAAAAAAAAAAAAAAAAAAAAAAAAAA
        AAAAAAAAAAAAAAAAcHJvZxICAABwcmdwIgAAABAQMgQBAQB/AH8AQAABAAEAAAAAAAAAAAB/AAAAAAAAAABwZ25tMAAAAEFycCBDaG9yZCBHYXRlZCAwMgBf/38AALDo
        RBoBAAAAJCq+X/9/AAD08NwVAQAAAHN0cDBAAAAAAAAAAAAAAAAAAAAAAAAAAAAAAAAAAAAAAAAAAAAAAAAAAAAAAAAAAAAAAAAAAAAAAAAAAAAAAAAAAAAAAAAAAHN0
        cDFAAAAACAgICAgICAgICAgICAgICAgICAgICAgICAgICAgICAgICAgICAgICAgICAgICAgICAgICAgICAgICAgICAgICHN0cDJAAAAABAAEAAQABAAEAAQAAAQABAEB
        AQEBAQEBAQEBAQEBAQEBAQEBAQEBAQEBAQEBAQEBAQEBAQEBAQEBAQEBAQEBAXN0cDNAAAAABAQEBAQEBAQEBAQEBAQEBAQEBAQEBAQEBAQEBAQEBAQEBAQEBAQEBAQE
        BAQEBAQEBAQEBAQEBAQEBAQEBAQEBHN0cDRAAAAAYGBgYGBgYGBgYGBgYGBgYGBgYGBgYGBgYGBgYGBgYGBgYGBgYGBgYGBgYGBgYGBgYGBgYGBgYGBgYGBgYGBgYHN0
        cDVAAAAAAAAAAAAAAAAAAAAAAAAAAAAAAAAAAAAAAAAAAAAAAAAAAAAAAAAAAAAAAAAAAAAAAAAAAAAAAAAAAAAAAAAAAHByb2cSAgAAcHJncCIAAAAQEDIEAQEAfwB/
        AEAAAQABAAAAAAAAAAAAfwAAAAAAAAAAcGdubTAAAABBcnAgQ2hvcmQgR2F0ZWQgMDMAX/9/AACw6EQaAQAAACQqvl//fwAA9PDcFQEAAABzdHAwQAAAAAAAAAAAAAAA
        AAAAAAAAAAAAAAAAAAAAAAAAAAAAAAAAAAAAAAAAAAAAAAAAAAAAAAAAAAAAAAAAAAAAAAAAAABzdHAxQAAAAAgICAgICAgICAgICAgICAgICAgICAgICAgICAgICAgI
        CAgICAgICAgICAgICAgICAgICAgICAgICAgICAgICAhzdHAyQAAAAAQEAAQEAAQEAAQEAAQABAABAQEBAQEBAQEBAQEBAQEBAQEBAQEBAQEBAQEBAQEBAQEBAQEBAQEB
        AQEBAQEBAQFzdHAzQAAAAAQEBAQEBAQEBAQEBAQEBAQEBAQEBAQEBAQEBAQEBAQEBAQEBAQEBAQEBAQEBAQEBAQEBAQEBAQEBAQEBAQEBARzdHA0QAAAAGBgYGBgYGBg
        YGBgYGBgYGBgYGBgYGBgYGBgYGBgYGBgYGBgYGBgYGBgYGBgYGBgYGBgYGBgYGBgYGBgYGBgYGBzdHA1QAAAAAAAAAAAAAAAAAAAAAAAAAAAAAAAAAAAAAAAAAAAAAAA
        AAAAAAAAAAAAAAAAAAAAAAAAAAAAAAAAAAAAAAAAAABwcm9nEgIAAHByZ3AiAAAAEBAyBAEDAH8AfwFAAAEAAQAAAAAAAAAAAH8AAAEAAAAAAHBnbm0wAAAAQXJwIDNr
        IFNTYXcgMDEgKFJhbW1zdGVpbikAGgEAAAAkKr5f/38AAPTw3BUBAAAAc3RwMEAAAAAAAAAAAAAAAAAAAAAAAAAAAAAAAAAAAAAAAAAAAAAAAAAAAAAAAAAAAAAAAAAA
        AAAAAAAAAAAAAAAAAAAAAAAAc3RwMUAAAAAICAgICAgICAgICAgICAgICAgICAgICAgICAgICAgICAgICAgICAgICAgICAgICAgICAgICAgICAgICAgICAgIc3RwMkAA
        AAABAQEBAQEBAQEBAQEBAQEBAQEBAQEBAQEBAQEBAQEBAQEBAQEBAQEBAQEBAQEBAQEBAQEBAQEBAQEBAQEBAQEBc3RwM0AAAAAQCAQQCAQQCAQQBBAIBBAIBAQEBAQE
        BAQEBAQEBAQEBAQEBAQEBAQEBAQEBAQEBAQEBAQEBAQEBAQEBAQEBAQEc3RwNEAAAABgYGBgYGBgYGBgYGBgYGBgYGBgYGBgYGBgYGBgYGBgYGBgYGBgYGBgYGBgYGBg
        YGBgYGBgYGBgYGBgYGBgYGBgc3RwNUAAAAAAAAAAAAAAAAAAAAAAAAAAAAAAAAAAAAAAAAAAAAAAAAAAAAAAAAAAAAAAAAAAAAAAAAAAAAAAAAAAAAAAAAAAcHJvZxIC
        AABwcmdwIgAAABAIOgQBAgB/AH8AQAABAAEAAAAAAAAAAAB/AAAAAAAAAABwZ25tMAAAAEFycCAzayBTdXBlclNhdyAwMgBf/38AALDoRBoBAAAAJCq+X/9/AAD08NwV
        AQAAAHN0cDBAAAAAAAAAAAAAAAAAAAAAAAAAAAAAAAAAAAAAAAAAAAAAAAAAAAAAAAAAAAAAAAAAAAAAAAAAAAAAAAAAAAAAAAAAAHN0cDFAAAAABAgIBAgIBAgICAgI
        CAgICAgICAgICAgICAgICAgICAgICAgICAgICAgICAgICAgICAgICAgICAgICAgICAgICHN0cDJAAAAAAQABAQEBAQEAAAAAAAAAAAEBAQEBAQEBAQEBAQEBAQEBAQEB
        AQEBAQEBAQEBAQEBAQEBAQEBAQEBAQEBAQEBAXN0cDNAAAAABAQQBAQIBBAEBAQEBAQEBAQEBAQEBAQEBAQEBAQEBAQEBAQEBAQEBAQEBAQEBAQEBAQEBAQEBAQEBAQE
        BAQEBHN0cDRAAAAAYGBgYGBgYGBgYGBgYGBgYGBgYGBgYGBgYGBgYGBgYGBgYGBgYGBgYGBgYGBgYGBgYGBgYGBgYGBgYGBgYGBgYHN0cDVAAAAAAAAAAAAAAAAAAAAA
        AAAAAAAAAAAAAAAAAAAAAAAAAAAAAAAAAAAAAAAAAAAAAAAAAAAAAAAAAAAAAAAAAAAAAHByb2cSAgAAcHJncCIAAAAQCDoEAQIAfwB/AEAAAQABAAAAAAAAAAAAfwAA
        AAAAAAAAcGdubTAAAABBcnAgM2sgU3VwZXJTYXcgMDMAX/9/AACw6EQaAQAAACQqvl//fwAA9PDcFQEAAABzdHAwQAAAAAAAAAAAAAAAAAAAAAAAAAAAAAAAAAAAAAAA
        AAAAAAAAAAAAAAAAAAAAAAAAAAAAAAAAAAAAAAAAAAAAAAAAAABzdHAxQAAAAAQICAQIBAgICAgICAgICAgICAgICAgICAgICAgICAgICAgICAgICAgICAgICAgICAgI
        CAgICAgICAgICAgICAhzdHAyQAAAAAEBAQEBAQEBAAAAAAAAAAABAQEBAQEBAQEBAQEBAQEBAQEBAQEBAQEBAQEBAQEBAQEBAQEBAQEBAQEBAQEBAQFzdHAzQAAAAAQQ
        CAQEBAgQBAQEBAQEBAQEBAQEBAQEBAQEBAQEBAQEBAQEBAQEBAQEBAQEBAQEBAQEBAQEBAQEBAQEBAQEBARzdHA0QAAAAGBgYGBgYGBgYGBgYGBgYGBgYGBgYGBgYGBg
        YGBgYGBgYGBgYGBgYGBgYGBgYGBgYGBgYGBgYGBgYGBgYGBgYGBzdHA1QAAAAAAAAAAAAAAAAAAAAAAAAAAAAAAAAAAAAAAAAAAAAAAAAAAAAAAAAAAAAAAAAAAAAAAA
        AAAAAAAAAAAAAAAAAABwcm9nEgIAAHByZ3AiAAAAEBA6BAEDAH8AfwBAAAEAAQAAAAAAAAAAAH8AAAIAAAAAAHBnbm0wAAAAQXJwIDJrIFN1cGVyU2F3IDA0AF//fwAA
        sOhEGgEAAAAkKr5f/38AAPTw3BUBAAAAc3RwMEAAAAAAAAAAAAAAAAAAAAAAAAABAAAAAAAAAAAAAAAAAAAAAAAAAAAAAAAAAAAAAAAAAAAAAAAAAAAAAAAAAAAAAAAA
        c3RwMUAAAAAICAQIBAgICAgIBAgICAQICAgICAgICAgICAgICAgICAgICAgICAgICAgICAgICAgICAgICAgICAgICAgICAgIc3RwMkAAAAABAgEAAQABAgECAQABAgEB
        AQEBAQEBAQEBAQEBAQEBAQEBAQEBAQEBAQEBAQEBAQEBAQEBAQEBAQEBAQEBAQEBc3RwM0AAAAAEBAQEBAQEBAgEBAQEBAQEBAQEBAQEBAQEBAQEBAQEBAQEBAQEBAQE
        BAQEBAQEBAQEBAQEBAQEBAQEBAQEBAQEc3RwNEAAAABgYGBgYGBgYGBgYGBgYGBgYGBgYGBgYGBgYGBgYGBgYGBgYGBgYGBgYGBgYGBgYGBgYGBgYGBgYGBgYGBgYGBg
        c3RwNUAAAAAAAAAAAAAAAAAAAAAAAAAAAAAAAAAAAAAAAAAAAAAAAAAAAAAAAAAAAAAAAAAAAAAAAAAAAAAAAAAAAAAAAAAAcHJvZxICAABwcmdwIgAAABAQOgQBAgB/
        AH8AQAABAAEAAAAAAAAAAAB/AAACAAAAAABwZ25tMAAAAEFycCAyayBTdXBlclNhdyAwNQBf/38AALDoRBoBAAAAJCq+X/9/AAD08NwVAQAAAHN0cDBAAAAAAAAAAAAA
        AAAAAAAAAAAAAAAAAAAAAAAAAAAAAAAAAAAAAAAAAAAAAAAAAAAAAAAAAAAAAAAAAAAAAAAAAAAAAHN0cDFAAAAACAQICAQICAgIBAgIBAgIBAgICAgICAgICAgICAgI
        CAgICAgICAgICAgICAgICAgICAgICAgICAgICAgICAgICHN0cDJAAAAAAQEBAQEBAQEBAQEBAQEBAQEBAQEBAQEBAQEBAQEBAQEBAQEBAQEBAQEBAQEBAQEBAQEBAQEB
        AQEBAQEBAQEBAXN0cDNAAAAACAQEEAQEEAQIBAQQBAQQBAQEBAQEBAQEBAQEBAQEBAQEBAQEBAQEBAQEBAQEBAQEBAQEBAQEBAQEBAQEBAQEBHN0cDRAAAAAYGBgYGBg
        YGBgYGBgYGBgYGBgYGBgYGBgYGBgYGBgYGBgYGBgYGBgYGBgYGBgYGBgYGBgYGBgYGBgYGBgYGBgYHN0cDVAAAAAAAAAAAAAAAAAAAAAAAAAAAAAAAAAAAAAAAAAAAAA
        AAAAAAAAAAAAAAAAAAAAAAAAAAAAAAAAAAAAAAAAAAAAAHByb2cSAgAAcHJncCIAAAAQBDgEAQEAfwB/AEAAAQABAAAAAAAAAAAAfwAAAAAAAAAAcGdubTAAAABBcnAg
        M2sgQmVuYXNzaSBJbGx1c2lvbgCw6EQaAQAAACQqvl//fwAA9PDcFQEAAABzdHAwQAAAAAAAAAAAAAAAAAAAAAAAAAAAAAAAAAAAAAAAAAAAAAAAAAAAAAAAAAAAAAAA
        AAAAAAAAAAAAAAAAAAAAAAAAAABzdHAxQAAAAAgICAgICAgICAgICAgICAgICAgICAgICAgICAgICAgICAgICAgICAgICAgICAgICAgICAgICAgICAgICAgICAhzdHAy
        QAAAAAEBBAEBAQEBAQEBAQEBAQEBAQEBAQEBAQEBAQEBAQEBAQEBAQEBAQEBAQEBAQEBAQEBAQEBAQEBAQEBAQEBAQFzdHAzQAAAAAQIBAgEBAQEBAQEBAQEBAQEBAQE
        BAQEBAQEBAQEBAQEBAQEBAQEBAQEBAQEBAQEBAQEBAQEBAQEBAQEBAQEBARzdHA0QAAAAGBgYGBgYGBgYGBgYGBgYGBgYGBgYGBgYGBgYGBgYGBgYGBgYGBgYGBgYGBg
        YGBgYGBgYGBgYGBgYGBgYGBgYGBzdHA1QAAAAAAAAAAAAAAAAAAAAAAAAAAAAAAAAAAAAAAAAAAAAAAAAAAAAAAAAAAAAAAAAAAAAAAAAAAAAAAAAAAAAAAAAABwcm9n
        EgIAAHByZ3AiAAAAEBAyBAEDAH8AfwBAAAEAAQAAAAAAAAAAAH8AAAAAAAAAAHBnbm0wAAAAQXJwIDRrIFNTYXcgMDcgKFlUIEludHJvKQBEGgEAAAAkKr5f/38AAPTw
        3BUBAAAAc3RwMEAAAAAAAAAAAAAAAAAAAAAAAAAAAAAAAAAAAAAAAAAAAAAAAAAAAAAAAAAAAAAAAAAAAAAAAAAAAAAAAAAAAAAAAAAAc3RwMUAAAAAECAgECAgICAQI
        CAQICAQICAgICAgICAgICAgICAgICAgICAgICAgICAgICAgICAgICAgICAgICAgICAgICAgIc3RwMkAAAAABAQEBAQEBAQEBAQEBAQEBAQEBAQEBAQEBAQEBAQEBAQEB
        AQEBAQEBAQEBAQEBAQEBAQEBAQEBAQEBAQEBAQEBc3RwM0AAAAAECBAEEAgQIAQgEAQECAQQBAQEBAQEBAQEBAQEBAQEBAQEBAQEBAQEBAQEBAQEBAQEBAQEBAQEBAQE
        BAQEBAQEc3RwNEAAAABgYGBgYGBgYGBgYGBgYGBgYGBgYGBgYGBgYGBgYGBgYGBgYGBgYGBgYGBgYGBgYGBgYGBgYGBgYGBgYGBgYGBgc3RwNUAAAAAAAAAAAAAAAAAA
        AAAAAAAAAAAAAAAAAAAAAAAAAAAAAAAAAAAAAAAAAAAAAAAAAAAAAAAAAAAAAAAAAAAAAAAAcHJvZxICAABwcmdwIgAAABAgPQQBAwB/AH8AQAABAAEAAAAAAAAAAAB/
        AAAAAAAAAABwZ25tMAAAAEFycCAzayBTU2F3IDA4ICgzMiBzdGVwcykARBoBAAAAJCq+X/9/AAD08NwVAQAAAHN0cDBAAAAAAAAAAAAAAAAAAAAAAAAAAAAAAAAAAAAA
        AAAAAAAAAAAAAAAAAAAAAAAAAAAAAAAAAAAAAAAAAAAAAAAAAAAAAHN0cDFAAAAACAQIBAgECAQIBAgECAQIBAgECAQIBAgECAQIBAgECAgICAgICAgICAgICAgICAgI
        CAgICAgICAgICAgICAgICHN0cDJAAAAAAQEBAQEBAQEBAQEBAQEBAQEBAQEBAQEBAQEBAQEBAQEBAQEBAQEBAQEBAQEBAQEBAQEBAQEBAQEBAQEBAQEBAXN0cDNAAAAA
        BAQIBBAEBAQIBBAEBAQIBBAEBAQIBBAEBAQIBBAEEAgEBAQEBAQEBAQEBAQEBAQEBAQEBAQEBAQEBAQEBAQEBHN0cDRAAAAAYGBgYGBgYGBgYGBgYGBgYGBgYGBgYGBg
        YGBgYGBgYGBgYGBgYGBgYGBgYGBgYGBgYGBgYGBgYGBgYGBgYGBgYHN0cDVAAAAAAAAAAAAAAAAAAAAAAAAAAAAAAAAAAAAAAAAAAAAAAAAAAAAAAAAAAAAAAAAAAAAA
        AAAAAAAAAAAAAAAAAAAAAHByb2cSAgAAcHJncCIAAAAQEEUEAQIAfwB/AEAAAQABAAAAAAAAAAAAfwAAAAAAAAAAcGdubTAAAABBcnAgMmsgQ29tbXVuaWNhdGlvbiB2
        MQCw6EQaAQAAACQqvl//fwAA9PDcFQEAAABzdHAwQAAAAAAAAAAAAAAAAAAAAAAAAAAAAAAAAAAAAAAAAAAAAAAAAAAAAAAAAAAAAAAAAAAAAAAAAAAAAAAAAAAAAAAA
        AABzdHAxQAAAAAQECAQECAQECAQECAQECAQICAgICAgICAgICAgICAgICAgICAgICAgICAgICAgICAgICAgICAgICAgICAgICAhzdHAyQAAAAAEAAQABAQABAQABAQAB
        AQABAQEBAQEBAQEBAQEBAQEBAQEBAQEBAQEBAQEBAQEBAQEBAQEBAQEBAQEBAQEBAQFzdHAzQAAAAAQECAQECAQECAQECAQECAQEBAQEBAQEBAQEBAQEBAQEBAQEBAQE
        BAQEBAQEBAQEBAQEBAQEBAQEBAQEBAQEBARzdHA0QAAAAGBgYGBgYGBgYGBgYGBgYGBgYGBgYGBgYGBgYGBgYGBgYGBgYGBgYGBgYGBgYGBgYGBgYGBgYGBgYGBgYGBg
        YGBzdHA1QAAAAAAAAAAAAAAAAAAAAAAAAAAAAAAAAAAAAAAAAAAAAAAAAAAAAAAAAAAAAAAAAAAAAAAAAAAAAAAAAAAAAAAAAABwcm9nEgIAAHByZ3AiAAAAEBA8BAEC
        AH8AfwBAAAEAAQAAAAAAAAAAAH8AAAAAAAAAAHBnbm0wAAAAQXJwIDJrIENvbW11bmljYXRpb24gdjIAsOhEGgEAAAAkKr5f/38AAPTw3BUBAAAAc3RwMEAAAAAAAAAA
        AAAAAAAAAAAAAAAAAAAAAAAAAAAAAAAAAAAAAAAAAAAAAAAAAAAAAAAAAAAAAAAAAAAAAAAAAAAAAAAAc3RwMUAAAAACBAgCBAgCBAgCBAgCBAgECAgICAgICAgICAgI
        CAgICAgICAgICAgICAgICAgICAgICAgICAgICAgICAgICAgIc3RwMkAAAAABAQEBAQEBAQEBAQEBAQEBAQEBAQEBAQEBAQEBAQEBAQEBAQEBAQEBAQEBAQEBAQEBAQEB
        AQEBAQEBAQEBAQEBc3RwM0AAAAAEBAgEBAgEBAgEBAgEBAgEBAQEBAQEBAQEBAQEBAQEBAQEBAQEBAQEBAQEBAQEBAQEBAQEBAQEBAQEBAQEBAQEc3RwNEAAAABgYGBg
        YGBgYGBgYGBgYGBgYGBgYGBgYGBgYGBgYGBgYGBgYGBgYGBgYGBgYGBgYGBgYGBgYGBgYGBgYGBgYGBgc3RwNUAAAAAAAAAAAAAAAAAAAAAAAAAAAAAAAAAAAAAAAAAA
        AAAAAAAAAAAAAAAAAAAAAAAAAAAAAAAAAAAAAAAAAAAAAAAAcHJvZxICAABwcmdwIgAAABAQPQQBAQB/AH8AQAABAAEAAAAAAAAAAAB/AAAAAAAAAABwZ25tMAAAAEFy
        cCAyayBTdXBlclNhdyAxMSAoQmVuYXNzaSkAAAAAJCq+X/9/AAD08NwVAQAAAHN0cDBAAAAAAAAAAAAAAAAAAAAAAAAAAAAAAAAAAAAAAAAAAAAAAAAAAAAAAAAAAAAA
        AAAAAAAAAAAAAAAAAAAAAAAAAAAAAHN0cDFAAAAACAIECAIECAQIAgQIBAIIBAgCCAIIAgQIAgQIAggCBAIICAgICAgICAgICAgICAgICAgICAgICAgICAgICAgICHN0
        cDJAAAAAAQEBAQEBAQEBAQEBAQEBAQEBAQEBAQEBAQEBAQEBAQEBAQEBAQEBAQEBAQEBAQEBAQEBAQEBAQEBAQEBAQEBAXN0cDNAAAAACAQEEAQEEAQIBAQQBAQQBAgE
        BBAEBBAEBAQQBAQQBAQEBAQEBAQEBAQEBAQEBAQEBAQEBAQEBAQEBAQEBAQEBHN0cDRAAAAAYGBgYGBgYGBgYGBgYGBgYGBgYGBgYGBgYGBgYGBgYGBgYGBgYGBgYGBg
        YGBgYGBgYGBgYGBgYGBgYGBgYGBgYHN0cDVAAAAAAAAAAAAAAAAAAAAAAAAAAAAAAAAAAAAAAAAAAAAAAAAAAAAAAAAAAAAAAAAAAAAAAAAAAAAAAAAAAAAAAAAAAHBy
        b2cSAgAAcHJncCIAAAAQEDUEAQMAfwB/AEAAAQABAAAAAAAAAAAAfwAAAAAAAAAAcGdubTAAAABBcnAgMmsgU3VwZXJTYXcgMTIAX/9/AACw6EQaAQAAACQqvl//fwAA
        9PDcFQEAAABzdHAwQAAAAAAAAAAAAAAAAAAAAAAAAAAAAAAAAAAAAAAAAAAAAAAAAAAAAAAAAAAAAAAAAAAAAAAAAAAAAAAAAAAAAAAAAABzdHAxQAAAAAgCCAIIAgQI
        AgQIAggCBAIICAgICAgICAgICAgICAgICAgICAgICAgICAgICAgICAgICAgICAgICAgICAgICAhzdHAyQAAAAAEBAQEBAQEBAQEBAQEBAQEBAQEBAQEBAQEBAQEBAQEB
        AQEBAQEBAQEBAQEBAQEBAQEBAQEBAQEBAQEBAQEBAQFzdHAzQAAAABAECAQIBAQQBAQIBAgEBAQEBAQEBAQEBAQEBAQEBAQEBAQEBAQEBAQEBAQEBAQEBAQEBAQEBAQE
        BAQEBAQEBARzdHA0QAAAAGBgYGBgYGBgYGBgYGBgYGBgYGBgYGBgYGBgYGBgYGBgYGBgYGBgYGBgYGBgYGBgYGBgYGBgYGBgYGBgYGBgYGBzdHA1QAAAAAAAAAAAAAAA
        AAAAAAAAAAAAAAAAAAAAAAAAAAAAAAAAAAAAAAAAAAAAAAAAAAAAAAAAAAAAAAAAAAAAAAAAAABwcm9nEgIAAHByZ3AiAAAAEBBkBAECAH8AfwBNAAEAAQkAAAAAAAAA
        AH8AAAAAAAAAAHBnbm0wAAAAQXJwIDJrIFN1cGVyU2F3IDEzIChwaHJlYXF1ZSkAAAAkKr5f/38AAPTw3BUBAAAAc3RwMEAAAAAAAAAAAAAAAAAAAAAAAAAAAAAAAAAA
        AAAAAAAAAAAAAAAAAAAAAAAAAAAAAAAAAAAAAAAAAAAAAAAAAAAAAAAAc3RwMUAAAAAECAQECAQEBAQIBAQIBAgECAgICAgICAgICAgICAgICAgICAgICAgICAgICAgI
        CAgICAgICAgICAgICAgICAgIc3RwMkAAAAABAQEBAQABAQABAQABAQEBAQEBAQEBAQEBAQEBAQEBAQEBAQEBAQEBAQEBAQEBAQEBAQEBAQEBAQEBAQEBAQEBc3RwM0AA
        AAAECAQgCAQQBAQIBAQIBBAEBAQEBAQEBAQEBAQEBAQEBAQEBAQEBAQEBAQEBAQEBAQEBAQEBAQEBAQEBAQEBAQEc3RwNEAAAABwUEBgUFB/YEBQYGBwYFBwYGBgYGBg
        YGBgYGBgYGBgYGBgYGBgYGBgYGBgYGBgYGBgYGBgYGBgYGBgYGBgYGBgc3RwNUAAAAAAAAAAAAAAAAAAAAAAAAAAAAAAAAAAAAAAAAAAAAAAAAAAAAAAAAAAAAAAAAAA
        AAAAAAAAAAAAAAAAAAAAAAAAcHJvZxICAABwcmdwIgAAABAIHwYBAQB/AH8AQAABAAEAAAAAAAAAAAB/AAAAAAAAAABwZ25tMAAAAEFycCAzayBCZWxscyAwMQCwKb5f
        /38AALDoRBoBAAAAJCq+X/9/AAD08NwVAQAAAHN0cDBAAAAAAAAAAAAAAAAAAAAAAAAAAAAAAAAAAAAAAAAAAAAAAAAAAAAAAAAAAAAAAAAAAAAAAAAAAAAAAAAAAAAA
        AAAAAHN0cDFAAAAACAgICAgICAgICAgICAgICAgICAgICAgICAgICAgICAgICAgICAgICAgICAgICAgICAgICAgICAgICAgICAgICHN0cDJAAAAAAQEBAQEBAQEBAQEB
        AQEBAQEBAQEBAQEBAQEBAQEBAQEBAQEBAQEBAQEBAQEBAQEBAQEBAQEBAQEBAQEBAQEBAXN0cDNAAAAAEAQIBBAECAQEBAQEBAQEBAQEBAQEBAQEBAQEBAQEBAQEBAQE
        BAQEBAQEBAQEBAQEBAQEBAQEBAQEBAQEBAQEBHN0cDRAAAAAYGBgUGBgYFBgYGBgYGBgYGBgYGBgYGBgYGBgYGBgYGBgYGBgYGBgYGBgYGBgYGBgYGBgYGBgYGBgYGBg
        YGBgYHN0cDVAAAAAAAAAAAAAAAAAAAAAAAAAAAAAAAAAAAAAAAAAAAAAAAAAAAAAAAAAAAAAAAAAAAAAAAAAAAAAAAAAAAAAAAAAAHByb2cSAgAAcHJncCIAAAAQCB8G
        AQEAfwB/AEAAAQABAAAAAAAAAAAAfwAAAAAAAAAAcGdubTAAAABBcnAgM2sgQmVsbHMgMDIAsCm+X/9/AACw6EQaAQAAACQqvl//fwAA9PDcFQEAAABzdHAwQAAAAAAA
        AAAAAAAAAAAAAAAAAAAAAAAAAAAAAAAAAAAAAAAAAAAAAAAAAAAAAAAAAAAAAAAAAAAAAAAAAAAAAAAAAABzdHAxQAAAAAgICAgICAgICAgICAgICAgICAgICAgICAgI
        CAgICAgICAgICAgICAgICAgICAgICAgICAgICAgICAgICAgICAhzdHAyQAAAAAEBAQEBAQEBAQEBAQEBAQEBAQEBAQEBAQEBAQEBAQEBAQEBAQEBAQEBAQEBAQEBAQEB
        AQEBAQEBAQEBAQEBAQFzdHAzQAAAABAIBBAIBBAIBAQEBAQEBAQEBAQEBAQEBAQEBAQEBAQEBAQEBAQEBAQEBAQEBAQEBAQEBAQEBAQEBAQEBAQEBARzdHA0QAAAAGBg
        YGBgYGBgYGBgYGBgYGBgYGBgYGBgYGBgYGBgYGBgYGBgYGBgYGBgYGBgYGBgYGBgYGBgYGBgYGBgYGBgYGBzdHA1QAAAAAAAAAAAAAAAAAAAAAAAAAAAAAAAAAAAAAAA
        AAAAAAAAAAAAAAAAAAAAAAAAAAAAAAAAAAAAAAAAAAAAAAAAAABwcm9nEgIAAHByZ3AiAAAAEAhNBgEDAH8AfwBNAAEAAQAAAAAAAAAAAH8AAAIAAAAAAHBnbm0wAAAA
        QXJwIDJrIFNvZnRCZWxscyAwMQD/fwAAsOhEGgEAAAAkKr5f/38AAPTw3BUBAAAAc3RwMEAAAAAAAAAAAAAAAAAAAAAAAAAAAAAAAAAAAAAAAAAAAAAAAAAAAAAAAAAA
        AAAAAAAAAAAAAAAAAAAAAAAAAAAAAAAAc3RwMUAAAAAECAgIBAgIEAgICAgICAgICAgICAgICAgICAgICAgICAgICAgICAgICAgICAgICAgICAgICAgICAgICAgICAgI
        c3RwMkAAAAABAQEBAQEBAQEBAQEBAQEBAQEBAQEBAQEBAQEBAQEBAQEBAQEBAQEBAQEBAQEBAQEBAQEBAQEBAQEBAQEBAQEBc3RwM0AAAAAEBAgQBAQIBAQEBAQEBAQE
        BAQEBAQEBAQEBAQEBAQEBAQEBAQEBAQEBAQEBAQEBAQEBAQEBAQEBAQEBAQEBAQEc3RwNEAAAABgYGBgYGBgYGBgYGBgYGBgYGBgYGBgYGBgYGBgYGBgYGBgYGBgYGBg
        YGBgYGBgYGBgYGBgYGBgYGBgYGBgYGBgc3RwNUAAAAAAAAAAAAAAAAAAAAAAAAAAAAAAAAAAAAAAAAAAAAAAAAAAAAAAAAAAAAAAAAAAAAAAAAAAAAAAAAAAAAAAAAAA
        cHJvZxICAABwcmdwIgAAABAIQgYBAwB/AH8AQAABAAEAAAAAAAAAAAB/AAACAAAAAABwZ25tMAAAAEFycCAyayBTb2Z0QmVsbHMgMDIA/38AALDoRBoBAAAAJCq+X/9/
        AAD08NwVAQAAAHN0cDBAAAAAAAAAAAAAAAAAAAAAAAAAAAAAAAAAAAAAAAAAAAAAAAAAAAAAAAAAAAAAAAAAAAAAAAAAAAAAAAAAAAAAAAAAAHN0cDFAAAAABBAICAQQ
        CAgICAgICAgICAgICAgICAgICAgICAgICAgICAgICAgICAgICAgICAgICAgICAgICAgICAgICAgICHN0cDJAAAAAAQEBAQEBAQEBAQEBAQEBAQEBAQEBAQEBAQEBAQEB
        AQEBAQEBAQEBAQEBAQEBAQEBAQEBAQEBAQEBAQEBAQEBAXN0cDNAAAAABAQECAQEBBAEBAQEBAQEBAQEBAQEBAQEBAQEBAQEBAQEBAQEBAQEBAQEBAQEBAQEBAQEBAQE
        BAQEBAQEBAQEBHN0cDRAAAAAYGBgYGBgYGBgYGBgYGBgYGBgYGBgYGBgYGBgYGBgYGBgYGBgYGBgYGBgYGBgYGBgYGBgYGBgYGBgYGBgYGBgYHN0cDVAAAAAAAAAAAAA
        AAAAAAAAAAAAAAAAAAAAAAAAAAAAAAAAAAAAAAAAAAAAAAAAAAAAAAAAAAAAAAAAAAAAAAAAAAAAAHByb2cSAgAAcHJncCIAAAAQEEgEAQEAfwB/AEAAAQABAAAAAAAA
        AAAAfwAAAAAAAAAAcGdubTAAAABTZXEgMmsgQWNpZE1vbm8gMDEAX/9/AACw6EQaAQAAACQqvl//fwAA9PDcFQEAAABzdHAwQAAAAAAAAAAAAAAAAAAAAAAAAQAAAAAA
        AAAAAAAAAAAAAAAAAAAAAAAAAAAAAAAAAAAAAAAAAAAAAAAAAAAAAAAAAABzdHAxQAAAAAQIBAQIBAgICAQICAgECAgICAgICAgICAgICAgICAgICAgICAgICAgICAgI
        CAgICAgICAgICAgICAgICAgICAhzdHAyQAAAAAEAAQAAAQMAAQEAAQABAwABAQEBAQEBAQEBAQEBAQEBAQEBAQEBAQEBAQEBAQEBAQEBAQEBAQEBAQEBAQEBAQFzdHAz
        QAAAAAQEBAQEBAQEBAQEBAQEBAQEBAQEBAQEBAQEBAQEBAQEBAQEBAQEBAQEBAQEBAQEBAQEBAQEBAQEBAQEBAQEBARzdHA0QAAAAGBgYGBgYGBgYGBgYGBgYGBgYGBg
        YGBgYGBgYGBgYGBgYGBgYGBgYGBgYGBgYGBgYGBgYGBgYGBgYGBgYGBgYGBzdHA1QAAAAAAAAAAAAAAAAAAAAAAAAAAAAAAAAAAAAAAAAAAAAAAAAAAAAAAAAAAAAAAA
        AAAAAAAAAAAAAAAAAAAAAAAAAABwcm9nEgIAAHByZ3AiAAAAEBBCBAECAH8AfwBAAAEAAQAAAAAAAAAAAH8AAAIAAAAAAHBnbm0wAAAAU2VxIDJrIEFjaWRNb25vIDAy
        AF//fwAAsOhEGgEAAAAkKr5f/38AAPTw3BUBAAAAc3RwMEAAAAAAAAAAAAAABwAAAAAAAAAAAAAAAAAAAAAAAAAAAAAAAAAAAAAAAAAAAAAAAAAAAAAAAAAAAAAAAAAA
        AAAAAAAAc3RwMUAAAAAECAgECAgIBAgEBAgECAgECAgICAgICAgICAgICAgICAgICAgICAgICAgICAgICAgICAgICAgICAgICAgICAgIc3RwMkAAAAABAAABAAABAwAB
        AwABAgEDAQEBAQEBAQEBAQEBAQEBAQEBAQEBAQEBAQEBAQEBAQEBAQEBAQEBAQEBAQEBAQEBc3RwM0AAAAAEBAQEBAQEBAQECAQEBAQIBAQEBAQEBAQEBAQEBAQEBAQE
        BAQEBAQEBAQEBAQEBAQEBAQEBAQEBAQEBAQEBAQEc3RwNEAAAABgYGBgYGBgYGBgYGBgYGBgYGBgYGBgYGBgYGBgYGBgYGBgYGBgYGBgYGBgYGBgYGBgYGBgYGBgYGBg
        YGBgYGBgc3RwNUAAAAAAAAAAAAAAAAAAAAAAAAAAAAAAAAAAAAAAAAAAAAAAAAAAAAAAAAAAAAAAAAAAAAAAAAAAAAAAAAAAAAAAAAAAcHJvZxICAABwcmdwIgAAABAQ
        OgQBAQB/AH8AQAABAAEAAAAAAAAAAAB/AAAAAAAAAABwZ25tMAAAAFNlcSAyayBBY2lkTW9ubyAwMwBf/38AALDoRBoBAAAAJCq+X/9/AAD08NwVAQAAAHN0cDBAAAAA
        AAAAAAAAAAAAAAAAAAAAAAAAAAAAAAAAAAAAAAAAAAAAAAAAAAAAAAAAAAAAAAAAAAAAAAAAAAAAAAAAAAAAAHN0cDFAAAAACAQIEAQICAgECAgIBAgECAgICAgICAgI
        CAgICAgICAgICAgICAgICAgICAgICAgICAgICAgICAgICAgICAgICHN0cDJAAAAAAQEBAwEBAwMBAwEDAQIBAQEBAQEBAQEBAQEBAQEBAQEBAQEBAQEBAQEBAQEBAQEB
        AQEBAQEBAQEBAQEBAQEBAXN0cDNAAAAABAQEBAQECAQEBAQIBAQECAQEBAQEBAQEBAQEBAQEBAQEBAQEBAQEBAQEBAQEBAQEBAQEBAQEBAQEBAQEBAQEBHN0cDRAAAAA
        YGBgYGBgYGBgYGBgYGBgYGBgYGBgYGBgYGBgYGBgYGBgYGBgYGBgYGBgYGBgYGBgYGBgYGBgYGBgYGBgYGBgYHN0cDVAAAAAAAAAAAAAAAAAAAAAAAAAAAAAAAAAAAAA
        AAAAAAAAAAAAAAAAAAAAAAAAAAAAAAAAAAAAAAAAAAAAAAAAAAAAAHByb2cSAgAAcHJncCIAAAAQEDoEAQEAfwB/AEAAAQABAAAAAAAAAAAAfwAAAAAAAAAAcGdubTAA
        AABTZXEgMmsgQWNpZE1vbm8gMDQAX/9/AACw6EQaAQAAACQqvl//fwAA9PDcFQEAAABzdHAwQAAAAAAAAAAAAAAAAAAAAAAAAQAAAAAAAAAAAAAAAAAAAAAAAAAAAAAA
        AAAAAAAAAAAAAAAAAAAAAAAAAAAAAAAAAABzdHAxQAAAAAgQCAQICAQICAgECAQICAQICAgICAgICAgICAgICAgICAgICAgICAgICAgICAgICAgICAgICAgICAgICAgI
        CAhzdHAyQAAAAAEBAwEBAwEDAQMBAQEBAQEBAQEBAQEBAQEBAQEBAQEBAQEBAQEBAQEBAQEBAQEBAQEBAQEBAQEBAQEBAQEBAQFzdHAzQAAAAAQEBAQIBAQEBAgEBAQI
        BAQEBAQEBAQEBAQEBAQEBAQEBAQEBAQEBAQEBAQEBAQEBAQEBAQEBAQEBAQEBAQEBARzdHA0QAAAAGBgYGBgYGBgYGBgYGBgYGBgYGBgYGBgYGBgYGBgYGBgYGBgYGBg
        YGBgYGBgYGBgYGBgYGBgYGBgYGBgYGBgYGBzdHA1QAAAAAAAAAAAAAAAAAAAAAAAAAAAAAAAAAAAAAAAAAAAAAAAAAAAAAAAAAAAAAAAAAAAAAAAAAAAAAAAAAAAAAAA
        AABwcm9nEgIAAHByZ3AiAAAAEARIBAEBAH8AfwBAAAEAAQAAAAAAAAAAAH8AAAAAAAAAAHBnbm0wAAAAQmFzcyAxayBTaW1wbGUgMDEAvl//fwAAsOhEGgEAAAAkKr5f
        /38AAPTw3BUBAAAAc3RwMEAAAAAAAAAAAAAAAAAAAAAAAAAAAAAAAAAAAAAAAAAAAAAAAAAAAAAAAAAAAAAAAAAAAAAAAAAAAAAAAAAAAAAAAAAAc3RwMUAAAAAEBAgI
        CAgICAgICAgICAgICAgICAgICAgICAgICAgICAgICAgICAgICAgICAgICAgICAgICAgICAgICAgICAgIc3RwMkAAAAABAgEBAQEBAQEBAQEBAQEBAQEBAQEBAQEBAQEB
        AQEBAQEBAQEBAQEBAQEBAQEBAQEBAQEBAQEBAQEBAQEBAQEBc3RwM0AAAAAEBAQEBAQEBAQEBAQEBAQEBAQEBAQEBAQEBAQEBAQEBAQEBAQEBAQEBAQEBAQEBAQEBAQE
        BAQEBAQEBAQEBAQEc3RwNEAAAABgYGBgYGBgYGBgYGBgYGBgYGBgYGBgYGBgYGBgYGBgYGBgYGBgYGBgYGBgYGBgYGBgYGBgYGBgYGBgYGBgYGBgc3RwNUAAAAAAAAAA
        AAAAAAAAAAAAAAAAAAAAAAAAAAAAAAAAAAAAAAAAAAAAAAAAAAAAAAAAAAAAAAAAAAAAAAAAAAAAAAAAcHJvZxICAABwcmdwIgAAABAESAQBAQB/AH8AQAABAAEAAAAA
        AAAAAAB/AAAAAAAAAABwZ25tMAAAAEJhc3MgMWsgU2ltcGxlIDAyAL5f/38AALDoRBoBAAAAJCq+X/9/AAD08NwVAQAAAHN0cDBAAAAAAAAAAAAAAAAAAAAAAAAAAAAA
        AAAAAAAAAAAAAAAAAAAAAAAAAAAAAAAAAAAAAAAAAAAAAAAAAAAAAAAAAAAAAHN0cDFAAAAABAQICAgICAgICAgICAgICAgICAgICAgICAgICAgICAgICAgICAgICAgI
        CAgICAgICAgICAgICAgICAgICAgICHN0cDJAAAAAAQEBAQEBAQEBAQEBAQEBAQEBAQEBAQEBAQEBAQEBAQEBAQEBAQEBAQEBAQEBAQEBAQEBAQEBAQEBAQEBAQEBAXN0
        cDNAAAAABAQEBAQEBAQEBAQEBAQEBAQEBAQEBAQEBAQEBAQEBAQEBAQEBAQEBAQEBAQEBAQEBAQEBAQEBAQEBAQEBAQEBHN0cDRAAAAAYGBgYGBgYGBgYGBgYGBgYGBg
        YGBgYGBgYGBgYGBgYGBgYGBgYGBgYGBgYGBgYGBgYGBgYGBgYGBgYGBgYGBgYHN0cDVAAAAAAAAAAAAAAAAAAAAAAAAAAAAAAAAAAAAAAAAAAAAAAAAAAAAAAAAAAAAA
        AAAAAAAAAAAAAAAAAAAAAAAAAAAAAHByb2cSAgAAcHJncCIAAAAQBEgEAQEAfwB/AEAAAQABAAAAAAAAAAAAfwAAAAAAAAAAcGdubTAAAABCYXNzIDFrIFNpbXBsZSAw
        MwC+X/9/AACw6EQaAQAAACQqvl//fwAA9PDcFQEAAABzdHAwQAAAAAAAAAAAAAAAAAAAAAAAAAAAAAAAAAAAAAAAAAAAAAAAAAAAAAAAAAAAAAAAAAAAAAAAAAAAAAAA
        AAAAAAAAAABzdHAxQAAAAAQECAgICAgICAgICAgICAgICAgICAgICAgICAgICAgICAgICAgICAgICAgICAgICAgICAgICAgICAgICAgICAhzdHAyQAAAAAECAQIBAQEB
        AQEBAQEBAQEBAQEBAQEBAQEBAQEBAQEBAQEBAQEBAQEBAQEBAQEBAQEBAQEBAQEBAQEBAQEBAQFzdHAzQAAAAAQEBAQEBAQEBAQEBAQEBAQEBAQEBAQEBAQEBAQEBAQE
        BAQEBAQEBAQEBAQEBAQEBAQEBAQEBAQEBAQEBAQEBARzdHA0QAAAAGBgYGBgYGBgYGBgYGBgYGBgYGBgYGBgYGBgYGBgYGBgYGBgYGBgYGBgYGBgYGBgYGBgYGBgYGBg
        YGBgYGBgYGBzdHA1QAAAAAAAAAAAAAAAAAAAAAAAAAAAAAAAAAAAAAAAAAAAAAAAAAAAAAAAAAAAAAAAAAAAAAAAAAAAAAAAAAAAAAAAAABwcm9nEgIAAHByZ3AiAAAA
        EARIBAEBAH8AfwBAAAEAAQAAAAAAAAAAAH8AAAAAAAAAAHBnbm0wAAAAQmFzcyAxayBTaW1wbGUgMDQAvl//fwAAsOhEGgEAAAAkKr5f/38AAPTw3BUBAAAAc3RwMEAA
        AAAAAAAAAAAAAAAAAAAAAAAAAAAAAAAAAAAAAAAAAAAAAAAAAAAAAAAAAAAAAAAAAAAAAAAAAAAAAAAAAAAAAAAAc3RwMUAAAAAICAgICAgICAgICAgICAgICAgICAgI
        CAgICAgICAgICAgICAgICAgICAgICAgICAgICAgICAgICAgICAgICAgIc3RwMkAAAAAAAAEAAQEBAQEBAQEBAQEBAQEBAQEBAQEBAQEBAQEBAQEBAQEBAQEBAQEBAQEB
        AQEBAQEBAQEBAQEBAQEBAQEBc3RwM0AAAAAEBAQEBAQEBAQEBAQEBAQEBAQEBAQEBAQEBAQEBAQEBAQEBAQEBAQEBAQEBAQEBAQEBAQEBAQEBAQEBAQEBAQEc3RwNEAA
        AABgYGBgYGBgYGBgYGBgYGBgYGBgYGBgYGBgYGBgYGBgYGBgYGBgYGBgYGBgYGBgYGBgYGBgYGBgYGBgYGBgYGBgc3RwNUAAAAAAAAAAAAAAAAAAAAAAAAAAAAAAAAAA
        AAAAAAAAAAAAAAAAAAAAAAAAAAAAAAAAAAAAAAAAAAAAAAAAAAAAAAAAcHJvZxICAABwcmdwIgAAABAIZAQBAQB/AH8AQAABAAEAAAAAAAAAAAB/AAAAAAAAAABwZ25t
        MAAAAEJhc3MgMWsgRHJpZnQgb2ZmYmVhdAAAALDoRBoBAAAAJCq+X/9/AAD08NwVAQAAAHN0cDBAAAAAAAAAAAAAAAAAAAAAAAAAAAAAAAAAAAAAAAAAAAAAAAAAAAAA
        AAAAAAAAAAAAAAAAAAAAAAAAAAAAAAAAAAAAAHN0cDFAAAAACAgICAgICAgICAgICAgICAgICAgICAgICAgICAgICAgICAgICAgICAgICAgICAgICAgICAgICAgICAgI
        CAgICHN0cDJAAAAAAAAAAQAAAQIAAAABAAABAgEBAQEBAQEBAQEBAQEBAQEBAQEBAQEBAQEBAQEBAQEBAQEBAQEBAQEBAQEBAQEBAXN0cDNAAAAABAQEBAQEBAQEBAQE
        BAQEBAQEBAQEBAQEBAQEBAQEBAQEBAQEBAQEBAQEBAQEBAQEBAQEBAQEBAQEBAQEBAQEBHN0cDRAAAAAYGBgYGBgYGBgYGBgYGBgYGBgYGBgYGBgYGBgYGBgYGBgYGBg
        YGBgYGBgYGBgYGBgYGBgYGBgYGBgYGBgYGBgYHN0cDVAAAAAAAAAAAAAAAAAAAAAAAAAAAAAAAAAAAAAAAAAAAAAAAAAAAAAAAAAAAAAAAAAAAAAAAAAAAAAAAAAAAAA
        AAAAAHByb2cSAgAAcHJncCIAAAAQCF8EAQEAfwB/AEAAAQABAAAAAAAAAAAAfwAAAAAAAAAAcGdubTAAAABCYXNzIDFrIFRyaXBsZSBkcmlmdCBvZmZiZWF0AAAAACQq
        vl//fwAA9PDcFQEAAABzdHAwQAAAAAAAAAAAAAAAAAAAAAAAAAAAAAAAAAAAAAAAAAAAAAAAAAAAAAAAAAAAAAAAAAAAAAAAAAAAAAAAAAAAAAAAAABzdHAxQAAAAAgI
        CAgICAgICAgICAgICAgICAgICAgICAgICAgICAgICAgICAgICAgICAgICAgICAgICAgICAgICAgICAgICAhzdHAyQAAAAAABAAEAAAECAQEBAQEBAQEBAQEBAQEBAQEB
        AQEBAQEBAQEBAQEBAQEBAQEBAQEBAQEBAQEBAQEBAQEBAQEBAQFzdHAzQAAAAAQEBAQEBAQEBAQEBAQEBAQEBAQEBAQEBAQEBAQEBAQEBAQEBAQEBAQEBAQEBAQEBAQE
        BAQEBAQEBAQEBAQEBARzdHA0QAAAAGBgYGBgYGBgYGBgYGBgYGBAQEBAQEBAQEBAQEBAQEBAQEBAQEBAQEBAQEBAQEBAQEBAQEBAQEBAQEBAQEBAQEBzdHA1QAAAAAAA
        AAAAAAAAAAAAAAAAAAAAAAAAAAAAAAAAAAAAAAAAAAAAAAAAAAAAAAAAAAAAAAAAAAAAAAAAAAAAAAAAAABwcm9nEgIAAHByZ3AiAAAAEBBIBAEBAH8AfwBAAAEAAQAA
        AAAAAAAAAH8AAAAAAAAAAHBnbm0wAAAAQmFzcyAxayBUZWNobm8gMDEAvl//fwAAsOhEGgEAAAAkKr5f/38AAPTw3BUBAAAAc3RwMEAAAAAAAAAAAAAAAAAAAAAAAAAA
        AAAAAAAAAAAAAAAAAAAAAAAAAAAAAAAAAAAAAAAAAAAAAAAAAAAAAAAAAAAAAAAAc3RwMUAAAAAICAgICAgICAgICAgICAgICAgICAgICAgICAgICAgICAgICAgICAgI
        CAgICAgICAgICAgICAgICAgICAgICAgIc3RwMkAAAAABAQABAQABAQABAQABAAEAAQEBAQEBAQEBAQEBAQEBAQEBAQEBAQEBAQEBAQEBAQEBAQEBAQEBAQEBAQEBAQEB
        c3RwM0AAAAAEBAQEBAQEBAQEBAQEBAQEBAQEBAQEBAQEBAQEBAQEBAQEBAQEBAQEBAQEBAQEBAQEBAQEBAQEBAQEBAQEBAQEc3RwNEAAAABgYGBgYGBgYGBgYGBgYGBg
        YGBgYGBgYGBgYGBgYGBgYGBgYGBgYGBgYGBgYGBgYGBgYGBgYGBgYGBgYGBgYGBgc3RwNUAAAAAAAAAAAAAAAAAAAAAAAAAAAAAAAAAAAAAAAAAAAAAAAAAAAAAAAAAA
        AAAAAAAAAAAAAAAAAAAAAAAAAAAAAAAAcHJvZxICAABwcmdwIgAAABAgSAQBAQB/AH8AQAABAAEAAAAAAAAAAAB/AAAAAAAAAABwZ25tMAAAAEJhc3MgMWsgVGVjaG5v
        IDAyICgzMiBzdGVwcykAAAAAJCq+X/9/AAD08NwVAQAAAHN0cDBAAAAAAAAAAAAAAAAAAAAAAAAAAAAAAAAAAAAAAAAAAAAAAAAAAAAAAAAAAAAAAAAAAAAAAAAAAAAA
        AAAAAAAAAAAAAHN0cDFAAAAACAgICAgICAgICAgICAgICAgICAgICAgICAgICAgICAgICAgICAgICAgICAgICAgICAgICAgICAgICAgICAgICHN0cDJAAAAAAAABAAAA
        AQAAAAEAAAABAAAAAQAAAAEAAAABAAABAAEBAQEBAQEBAQEBAQEBAQEBAQEBAQEBAQEBAQEBAQEBAXN0cDNAAAAABAQEBAQEBAQEBAQEBAQEBAQEBAQEBAQEBAQEBAQE
        BAQEBAQEBAQEBAQEBAQEBAQEBAQEBAQEBAQEBAQEBAQEBHN0cDRAAAAAYGBgYGBgYGBgYGBgYGBgYGBgYGBgYGBgYGBgYGBgYGBgYGBgYGBgYGBgYGBgYGBgYGBgYGBg
        YGBgYGBgYGBgYHN0cDVAAAAAAAAAAAAAAAAAAAAAAAAAAAAAAAAAAAAAAAAAAAAAAAAAAAAAAAAAAAAAAAAAAAAAAAAAAAAAAAAAAAAAAAAAAHByb2cSAgAAcHJncCIA
        AAAQEE8EAQIAfwB/AEAAAQABAAAAAAAAAAAAfwAAAAAAAAAAcGdubTAAAABCYXNzIDJrIFRlY2hubyAwMwC+X/9/AACw6EQaAQAAACQqvl//fwAA9PDcFQEAAABzdHAw
        QAAAAAAAAAAAAAAAAAAAAAAAAAAAAAAAAAAAAAAAAAAAAAAAAAAAAAAAAAAAAAAAAAAAAAAAAAAAAAAAAAAAAAAAAABzdHAxQAAAAAgICAgICAgICAgICAgICAgICAgI
        CAgICAgICAgICAgICAgICAgICAgICAgICAgICAgICAgICAgICAgICAgICAhzdHAyQAAAAAEBAQEBAAEAAQABAAEAAQABAQEBAQEBAQEBAQEBAQEBAQEBAQEBAQEBAQEB
        AQEBAQEBAQEBAQEBAQEBAQEBAQFzdHAzQAAAAAQEBAQEBAQEBAQEBAQECAQEBAQEBAQEBAQEBAQEBAQEBAQEBAQEBAQEBAQEBAQEBAQEBAQEBAQEBAQEBAQEBARzdHA0
        QAAAAGBgYGBgYGBgYGBgYGBgYGBgYGBgYGBgYGBgYGBgYGBgYGBgYGBgYGBgYGBgYGBgYGBgYGBgYGBgYGBgYGBgYGBzdHA1QAAAAAAAAAAAAAAAAAAAAAAAAAAAAAAA
        AAAAAAAAAAAAAAAAAAAAAAAAAAAAAAAAAAAAAAAAAAAAAAAAAAAAAAAAAABwcm9nEgIAAHByZ3AiAAAAEBBEBAECAH8AfwBAAAEAAQAAAAAAAAAAAH8AAAAAAAAAAHBn
        bm0wAAAAQmFzcyAzayBDb21wbGV4IDEtMQD/fwAAsOhEGgEAAAAkKr5f/38AAPTw3BUBAAAAc3RwMEAAAAAAAAAAAAAAAAAAAAAAAAAAAAAAAAAAAAAAAAAAAAAAAAAA
        AAAAAAAAAAAAAAAAAAAAAAAAAAAAAAAAAAAAAAAAc3RwMUAAAAAICAgICAgICAgICBAICAgICAgICAgICAgICAgICAgICAgICAgICAgICAgICAgICAgICAgICAgICAgI
        CAgICAgIc3RwMkAAAAABAAEAAAABAAABAgEBAgAAAQEBAQEBAQEBAQEBAQEBAQEBAQEBAQEBAQEBAQEBAQEBAQEBAQEBAQEBAQEBAQEBc3RwM0AAAAAEBAQEBAQEBAQE
        BAQEBAQEBAQEBAQEBAQEBAQEBAQEBAQEBAQEBAQEBAQEBAQEBAQEBAQEBAQEBAQEBAQEBAQEc3RwNEAAAABgYGBgYGBgYGBgYGBgYGBgYGBgYGBgYGBgYGBgYGBgYGBg
        YGBgYGBgYGBgYGBgYGBgYGBgYGBgYGBgYGBgYGBgc3RwNUAAAAAAAAAAAAAAAAAAAAAAAAAAAAAAAAAAAAAAAAAAAAAAAAAAAAAAAAAAAAAAAAAAAAAAAAAAAAAAAAAA
        AAAAAAAAcHJvZxICAABwcmdwIgAAABAMRQUBAgB/AH8AQAABAAEAAAAAAAAAAAB/AAAAAAAAAABwZ25tMAAAAEJhc3MgM2sgQ29tcGxleCAxLTIA/38AALDoRBoBAAAA
        JCq+X/9/AAD08NwVAQAAAHN0cDBAAAAAAAAAAAAAAAAAAAAAAAAAAAAAAAAAAAAAAAAAAAAAAAAAAAAAAAAAAAAAAAAAAAAAAAAAAAAAAAAAAAAAAAAAAHN0cDFAAAAA
        CAgICAgICAgICAgICAgICAgICAgICAgICAgICAgICAgICAgICAgICAgICAgICAgICAgICAgICAgICAgICAgICHN0cDJAAAAAAQIBAgECAQIBAgECAQEBAQEBAQEBAQEB
        AQEBAQEBAQEBAQEBAQEBAQEBAQEBAQEBAQEBAQEBAQEBAQEBAQEBAXN0cDNAAAAACAgICAgIEBAQEBAQBAQEBAQEBAQEBAQEBAQEBAQEBAQEBAQEBAQEBAQEBAQEBAQE
        BAQEBAQEBAQEBAQEBAQEBHN0cDRAAAAAYGBgYGBgYGBgYGBgYGBgYGBgYGBgYGBgYGBgYGBgYGBgYGBgYGBgYGBgYGBgYGBgYGBgYGBgYGBgYGBgYGBgYHN0cDVAAAAA
        AAAAAAAAAAAAAAAAAAAAAAAAAAAAAAAAAAAAAAAAAAAAAAAAAAAAAAAAAAAAAAAAAAAAAAAAAAAAAAAAAAAAAHByb2cSAgAAcHJncCIAAAAQDE0FAQIAfwB/AEAAAQAB
        AAAAAAAAAAAAfwAAAAAAAAAAcGdubTAAAABCYXNzIDNrIENvbXBsZXggMS0zAP9/AACw6EQaAQAAACQqvl//fwAA9PDcFQEAAABzdHAwQAAAAAAAAAAAAAAAAAAAAAAA
        AAAAAAAAAAAAAAAAAAAAAAAAAAAAAAAAAAAAAAAAAAAAAAAAAAAAAAAAAAAAAAAAAABzdHAxQAAAAAgICAgICAgICAgICAgICAgICAgICAgICAgICAgICAgICAgICAgI
        CAgICAgICAgICAgICAgICAgICAgICAgICAhzdHAyQAAAAAEBAQEBAQEBAQEBAQEBAQEBAQEBAQEBAQEBAQEBAQEBAQEBAQEBAQEBAQEBAQEBAQEBAQEBAQEBAQEBAQEB
        AQFzdHAzQAAAAAgICAgICBAQEBAQEAQEBAQEBAQEBAQEBAQEBAQEBAQEBAQEBAQEBAQEBAQEBAQEBAQEBAQEBAQEBAQEBAQEBARzdHA0QAAAAGBgYGBgYGBgYGBgYGBg
        YGBgYGBgYGBgYGBgYGBgYGBgYGBgYGBgYGBgYGBgYGBgYGBgYGBgYGBgYGBgYGBgYGBzdHA1QAAAAAAAAAAAAAAAAAAAAAAAAAAAAAAAAAAAAAAAAAAAAAAAAAAAAAAA
        AAAAAAAAAAAAAAAAAAAAAAAAAAAAAAAAAABwcm9nEgIAAHByZ3AiAAAAEAhNBAEBAH8AfwBAAAEAAQAAAAAAAAAAAH8AAAAAAAAAAHBnbm0wAAAAQmFzcyAxayBUcmFu
        Y2UgMDEAvl//fwAAsOhEGgEAAAAkKr5f/38AAPTw3BUBAAAAc3RwMEAAAAAAAAAAAAAAAAAAAAAAAAAAAAAAAAAAAAAAAAAAAAAAAAAAAAAAAAAAAAAAAAAAAAAAAAAA
        AAAAAAAAAAAAAAAAc3RwMUAAAAAICAgICAgICAgICAgICAgICAgICAgICAgICAgICAgICAgICAgICAgICAgICAgICAgICAgICAgICAgICAgICAgIc3RwMkAAAAAAAAEB
        AAABAAEBAQEBAQEBAQEBAQEBAQEBAQEBAQEBAQEBAQEBAQEBAQEBAQEBAQEBAQEBAQEBAQEBAQEBAQEBc3RwM0AAAAAEBAQEBAQEBAQEBAQEBAQEBAQEBAQEBAQEBAQE
        BAQEBAQEBAQEBAQEBAQEBAQEBAQEBAQEBAQEBAQEBAQEBAQEc3RwNEAAAABgYGBgYGBgYGBgYGBgYGBgYGBgYGBgYGBgYGBgYGBgYGBgYGBgYGBgYGBgYGBgYGBgYGBg
        YGBgYGBgYGBgYGBgc3RwNUAAAAAAAAAAAAAAAAAAAAAAAAAAAAAAAAAAAAAAAAAAAAAAAAAAAAAAAAAAAAAAAAAAAAAAAAAAAAAAAAAAAAAAAAAAcHJvZxICAABwcmdw
        IgAAABAIQwQBAQB/AH8AQAABAAEAAAAAAAAAAAB/AAAAAAAAAABwZ25tMAAAAEJhc3MgMWsgVHJhbmNlIDAyAL5f/38AALDoRBoBAAAAJCq+X/9/AAD08NwVAQAAAHN0
        cDBAAAAAAAAAAAAAAAAAAAAAAAAAAAAAAAAAAAAAAAAAAAAAAAAAAAAAAAAAAAAAAAAAAAAAAAAAAAAAAAAAAAAAAAAAAHN0cDFAAAAACBAIEAgIEAgICAgICAgICAgI
        CAgICAgICAgICAgICAgICAgICAgICAgICAgICAgICAgICAgICAgICAgICAgICHN0cDJAAAAAAAEBAQABAQEBAQEBAQEBAQEBAQEBAQEBAQEBAQEBAQEBAQEBAQEBAQEB
        AQEBAQEBAQEBAQEBAQEBAQEBAQEBAXN0cDNAAAAABAQEBAQEBAQEBAQEBAQEBAQEBAQEBAQEBAQEBAQEBAQEBAQEBAQEBAQEBAQEBAQEBAQEBAQEBAQEBAQEBAQEBHN0
        cDRAAAAAYGBgYGBgYGBgYGBgYGBgYGBgYGBgYGBgYGBgYGBgYGBgYGBgYGBgYGBgYGBgYGBgYGBgYGBgYGBgYGBgYGBgYHN0cDVAAAAAAAAAAAAAAAAAAAAAAAAAAAAA
        AAAAAAAAAAAAAAAAAAAAAAAAAAAAAAAAAAAAAAAAAAAAAAAAAAAAAAAAAAAAAHByb2cSAgAAcHJncCIAAAAQEDIEAQEAfwB/AkAAAQABAAAAAAAAAAAAfwAAAAAAAAAA
        cGdubTAAAABCYXNzIDJrIFRyYW5jZSAwMwC+X/9/AACw6EQaAQAAACQqvl//fwAA9PDcFQEAAABzdHAwQAAAAAAAAAAAAAAAAAAAAAAAAAAAAAAAAAAAAAAAAAAAAAAA
        AAAAAAAAAAAAAAAAAAAAAAAAAAAAAAAAAAAAAAAAAABzdHAxQAAAABAIEBAICBAIEAgQEAgIEAgICAgICAgICAgICAgICAgICAgICAgICAgICAgICAgICAgICAgICAgI
        CAgICAgICAhzdHAyQAAAAAECAQEBAgEBAQIBAQECAQEBAQEBAQEBAQEBAQEBAQEBAQEBAQEBAQEBAQEBAQEBAQEBAQEBAQEBAQEBAQEBAQFzdHAzQAAAAAgEBAQEBAQE
        BAQEBAQEBAQEBAQEBAQEBAQEBAQEBAQEBAQEBAQEBAQEBAQEBAQEBAQEBAQEBAQEBAQEBAQEBARzdHA0QAAAAGBgYGBgYGBgYGBgYGBgYGBgYGBgYGBgYGBgYGBgYGBg
        YGBgYGBgYGBgYGBgYGBgYGBgYGBgYGBgYGBgYGBgYGBzdHA1QAAAAAAAAAAAAAAAAAAAAAAAAAAAAAAAAAAAAAAAAAAAAAAAAAAAAAAAAAAAAAAAAAAAAAAAAAAAAAAA
        AAAAAAAAAABwcm9nEgIAAHByZ3AiAAAAEBBdBAECAH8AfwJAAAEAAQAAAAAAAAAAAH8AAAAAAAAAAHBnbm0wAAAAQmFzcyAyayBETSBRdWVzdGlvbiBvZiB0aW1lAAEA
        AAAkKr5f/38AAPTw3BUBAAAAc3RwMEAAAAAAAAAAAAAAAAAAAAAAAAAAAAAAAAAAAAAAAAAAAAAAAAAAAAAAAAAAAAAAAAAAAAAAAAAAAAAAAAAAAAAAAAAAc3RwMUAA
        AAAICAgICAgICAgICAgICAgICAgICAgICAgICAgICAgICAgICAgICAgICAgICAgICAgICAgICAgICAgICAgICAgIc3RwMkAAAAABAAEAAQABAAEAAQABAAEAAQEBAQEB
        AQEBAQEBAQEBAQEBAQEBAQEBAQEBAQEBAQEBAQEBAQEBAQEBAQEBAQEBc3RwM0AAAAAEBAQEBAQEBAQEBAQIBAQEBAQEBAQEBAQEBAQEBAQEBAQEBAQEBAQEBAQEBAQE
        BAQEBAQEBAQEBAQEBAQEBAQEc3RwNEAAAABgYGBgYGBgYGBgYGBgYGBgYGBgYGBgYGBgYGBgYGBgYGBgYGBgYGBgYGBgYGBgYGBgYGBgYGBgYGBgYGBgYGBgc3RwNUAA
        AAAAAAAAAAAAAAAAAAAAAAAAAAAAAAAAAAAAAAAAAAAAAAAAAAAAAAAAAAAAAAAAAAAAAAAAAAAAAAAAAAAAAAAAcHJvZxICAABwcmdwIgAAABAQUQQBAQB/AH8AQAAB
        AAEAAAAAAAAAAAB/AAAAAAAAAABwZ25tMAAAAEJhc3MgMWsgQmVuYXNzaSAtIElsbHVzaW9uABoBAAAAJCq+X/9/AAD08NwVAQAAAHN0cDBAAAAAAAAAAAAAAAAAAAAA
        AAAAAAAAAAAAAAAAAAAAAAAAAAAAAAAAAAAAAAAAAAAAAAAAAAAAAAAAAAAAAAAAAAAAAHN0cDFAAAAACBAIEBAQEAgQEAgQEBAIEAgICAgICAgICAgICAgICAgICAgI
        CAgICAgICAgICAgICAgICAgICAgICAgICAgICHN0cDJAAAAAAQABAAECAAEAAAEAAQIBAAEBAQEBAQEBAQEBAQEBAQEBAQEBAQEBAQEBAQEBAQEBAQEBAQEBAQEBAQEB
        AQEBAXN0cDNAAAAABAQEBAQEBAQEBAQEBAQEBAQEBAQEBAQEBAQEBAQEBAQEBAQEBAQEBAQEBAQEBAQEBAQEBAQEBAQEBAQEBAQEBHN0cDRAAAAAYGBgYGBgYGBgYGBg
        YGBgYGBgYGBgYGBgYGBgYGBgYGBgYGBgYGBgYGBgYGBgYGBgYGBgYGBgYGBgYGBgYGBgYHN0cDVAAAAAAAAAAAAAAAAAAAAAAAAAAAAAAAAAAAAAAAAAAAAAAAAAAAAA
        AAAAAAAAAAAAAAAAAAAAAAAAAAAAAAAAAAAAAHByb2cSAgAAcHJncCIAAAAQEFQEAQEAfwB/AEAAAQABAAAAAAAAAAAAfwAAAAAAAAAAcGdubTAAAABCYXNzIDFrIFF1
        ZWVuIC0gQnJlYWsgZnJlZQAaAQAAACQqvl//fwAA9PDcFQEAAABzdHAwQAAAAAAAAAAAAAAAAAAAAAAAAAAAAAAAAAAAAAAAAAAAAAAAAAAAAAAAAAAAAAAAAAAAAAAA
        AAAAAAAAAAAAAAAAAABzdHAxQAAAAAgQCAgQEAgQEBAIEBAQCBAICAgICAgICAgICAgICAgICAgICAgICAgICAgICAgICAgICAgICAgICAgICAgICAhzdHAyQAAAAAEA
        AQEBAAEAAQABAAEAAQABAQEBAQEBAQEBAQEBAQEBAQEBAQEBAQEBAQEBAQEBAQEBAQEBAQEBAQEBAQEBAQFzdHAzQAAAAAQEBAQEBAQEBAQEBAQEBAQEBAQEBAQEBAQE
        BAQEBAQEBAQEBAQEBAQEBAQEBAQEBAQEBAQEBAQEBAQEBAQEBARzdHA0QAAAAGBgYGBgYGBgYGBgYGBgYGBgYGBgYGBgYGBgYGBgYGBgYGBgYGBgYGBgYGBgYGBgYGBg
        YGBgYGBgYGBgYGBgYGBzdHA1QAAAAAAAAAAAAAAAAAAAAAAAAAAAAAAAAAAAAAAAAAAAAAAAAAAAAAAAAAAAAAAAAAAAAAAAAAAAAAAAAAAAAAAAAABwcm9nEgIAAHBy
        Z3AiAAAAECBMBAEBAH8AfwBAAAEAAQAAAAAAAAAAAH8AAAAAAAAAAHBnbm0wAAAAQmFzcyAxayBRdWVlbiAtIExpdmluZyBvbiBteSBvd24AKr5f/38AAPTw3BUBAAAA
        c3RwMEAAAAAAAAAAAAAAAAAAAAAAAAAAAAAAAAAAAAAAAAAAAAAAAAAAAAAAAAAAAAAAAAAAAAAAAAAAAAAAAAAAAAAAAAAAc3RwMUAAAAAICBAICBAICBAICBAICBAI
        CBAgCBAgCBAgCBAgCBAgEAgICAgICAgICAgICAgICAgICAgICAgICAgICAgICAgIc3RwMkAAAAABAAEAAQEAAQEAAQEAAQEAAQEBAQEBAQEBAQEBAQEBAQEBAQEBAQEB
        AQEBAQEBAQEBAQEBAQEBAQEBAQEBAQEBc3RwM0AAAAAEBAQEBAQEBAQEBAQEBAQEBAQEBAQEBAQEBAQEBAQEBAQEBAQEBAQEBAQEBAQEBAQEBAQEBAQEBAQEBAQEBAQE
        c3RwNEAAAABgYGBgYGBgYGBgYGBgYGBgYGBgYGBgYGBgYGBgYGBgYGBgYGBgYGBgYGBgYGBgYGBgYGBgYGBgYGBgYGBgYGBgc3RwNUAAAAAAAAAAAAAAAAAAAAAAAAAA
        AAAAAAAAAAAAAAAAAAAAAAAAAAAAAAAAAAAAAAAAAAAAAAAAAAAAAAAAAAAAAAAAcHJvZxICAABwcmdwIgAAABAQLgQBAQB/AH8AQAABAAEAAAYDAAAAAAB/AAAAAAAA
        AABwZ25tMAAAAFNlcSAxayBGb3JjZVNjYWxlIEVtIDAxALDoRBoBAAAAJCq+X/9/AAD08NwVAQAAAHN0cDBAAAAAAAACAAQAAwAAAgMAAwADBAAAAAAAAAAAAAAAAAAA
        AAAAAAAAAAAAAAAAAAAAAAAAAAAAAAAAAAAAAAAAAAAAAHN0cDFAAAAABAIIBAgECAgCCAgECAQICAgICAgICAgICAgICAgICAgICAgICAgICAgICAgICAgICAgICAgI
        CAgICAgICAgICHN0cDJAAAAAAQABAAEAAQEAAQABAQAAAQEBAQEBAQEBAQEBAQEBAQEBAQEBAQEBAQEBAQEBAQEBAQEBAQEBAQEBAQEBAQEBAXN0cDNAAAAABAQEBAQE
        BAQEBAQEBAQEBAQEBAQEBAQEBAQEBAQEBAQEBAQEBAQEBAQEBAQEBAQEBAQEBAQEBAQEBAQEBAQEBHN0cDRAAAAAYGBgYGBgYGBgYGBgYGBgYGBgYGBgYGBgYGBgYGBg
        YGBgYGBgYGBgYGBgYGBgYGBgYGBgYGBgYGBgYGBgYGBgYHN0cDVAAAAAAAAAAAAAAAAAAAAAAAAAAAAAAAAAAAAAAAAAAAAAAAAAAAAAAAAAAAAAAAAAAAAAAAAAAAAA
        AAAAAAAAAAAAAHByb2cSAgAAcHJncCIAAAAQCEIEAQEAfwB/AEAAAQABAAAGAwAAAAAAfwAAAAAAAAAAcGdubTAAAABTZXEgMWsgRm9yY2VTY2FsZSBFbSAwMgCw6EQa
        AQAAACQqvl//fwAA9PDcFQEAAABzdHAwQAAAAAAAAAIAAAQAAAAAAAAAAAAAAAAAAAAAAAAAAAAAAAAAAAAAAAAAAAAAAAAAAAAAAAAAAAAAAAAAAAAAAAAAAABzdHAx
        QAAAAAgIBAgEBAgICAgICAgICAgICAgICAgICAgICAgICAgICAgICAgICAgICAgICAgICAgICAgICAgICAgICAgICAhzdHAyQAAAAAECAQEBAQECAQEBAQEBAQEBAQEB
        AQEBAQEBAQEBAQEBAQEBAQEBAQEBAQEBAQEBAQEBAQEBAQEBAQEBAQEBAQFzdHAzQAAAAAQEBAQEBAQEBAQEBAQEBAQEBAQEBAQEBAQEBAQEBAQEBAQEBAQEBAQEBAQE
        BAQEBAQEBAQEBAQEBAQEBAQEBARzdHA0QAAAAGBgYGBgYGBgYGBgYGBgYGBgYGBgYGBgYGBgYGBgYGBgYGBgYGBgYGBgYGBgYGBgYGBgYGBgYGBgYGBgYGBgYGBzdHA1
        QAAAAAAAAAAAAAAAAAAAAAAAAAAAAAAAAAAAAAAAAAAAAAAAAAAAAAAAAAAAAAAAAAAAAAAAAAAAAAAAAAAAAAAAAABwcm9nEgIAAHByZ3AiAAAAEBBHBAEBAH8AfwBF
        AAEAAQAABgMAAAAAAH8AAAAAAAAAAHBnbm0wAAAAU2VxIDFrIEZvcmNlU2NhbGUgRW0gMDMAsOhEGgEAAAAkKr5f/38AAPTw3BUBAAAAc3RwMEAAAAAAAAACAAQAAAAC
        AAAAAgADAAAAAAAAAAAAAAAAAAAAAAAAAAAAAAAAAAAAAAAAAAAAAAAAAAAAAAAAAAAAAAAAc3RwMUAAAAAICAgICAgICAgICAgICAgICAgICAgICAgICAgICAgICAgI
        CAgICAgICAgICAgICAgICAgICAgICAgICAgICAgIc3RwMkAAAAAAAQABAAEAAAEBAAABAQABAQEBAQEBAQEBAQEBAQEBAQEBAQEBAQEBAQEBAQEBAQEBAQEBAQEBAQEB
        AQEBAQEBc3RwM0AAAAAEBAQEBAQEBAQEBAQEBAQEBAQEBAQEBAQEBAQEBAQEBAQEBAQEBAQEBAQEBAQEBAQEBAQEBAQEBAQEBAQEBAQEc3RwNEAAAABgYGBgYGBgYGBg
        YGBgYGBgYGBgYGBgYGBgYGBgYGBgYGBgYGBgYGBgYGBgYGBgYGBgYGBgYGBgYGBgYGBgYGBgc3RwNUAAAAAAAAAAAAAAAAAAAAAAAAAAAAAAAAAAAAAAAAAAAAAAAAAA
        AAAAAAAAAAAAAAAAAAAAAAAAAAAAAAAAAAAAAAAAcHJvZxICAABwcmdwIgAAABAQZAQBAgB/AH8AQAABAAEAAAYDAAAAAAB/AAAAAAAAAABwZ25tMAAAAFNlcSAyayBG
        b3JjZVNjYWxlIEVtIDA0IChFK0cpAAAAJCq+X/9/AAD08NwVAQAAAHN0cDBAAAAAAAAAAAYAAAAAAAUAAAQAAAAAAAAAAAAAAAAAAAAAAAAAAAAAAAAAAAAAAAAAAAAA
        AAAAAAAAAAAAAAAAAAAAAHN0cDFAAAAABAgEBAgEBAgEBAgEBAgECAgICAgICAgICAgICAgICAgICAgICAgICAgICAgICAgICAgICAgICAgICAgICAgICHN0cDJAAAAA
        AQEAAQEAAQEAAQEAAQEAAQEBAQEBAQEBAQEBAQEBAQEBAQEBAQEBAQEBAQEBAQEBAQEBAQEBAQEBAQEBAQEBAXN0cDNAAAAABAgEBAQEBAgEBAgEBAgEBAQEBAQEBAQE
        BAQEBAQEBAQEBAQEBAQEBAQEBAQEBAQEBAQEBAQEBAQEBAQEBAQEBHN0cDRAAAAAYGBgYGBgYGBgYGBgYGBgYGBgYGBgYGBgYGBgYGBgYGBgYGBgYGBgYGBgYGBgYGBg
        YGBgYGBgYGBgYGBgYGBgYHN0cDVAAAAAAAAAAAAAAAAAAAAAAAAAAAAAAAAAAAAAAAAAAAAAAAAAAAAAAAAAAAAAAAAAAAAAAAAAAAAAAAAAAAAAAAAAAHByb2cSAgAA
        cHJncCIAAAAQCEMEAQIAfwB/AEAAAQABAAAAAAAAAAAAfwAAAAAAAAAAcGdubTAAAABTZXEgMmsgSGFybW9uaWMxIChBK0MvQyMpAEQaAQAAACQqvl//fwAA9PDcFQEA
        AABzdHAwQAAAAAAAAAAAAAcAAAAAAAAAAAAAAAAAAAAAAAAAAAAAAAAAAAAAAAAAAAAAAAAAAAAAAAAAAAAAAAAAAAAAAAAAAABzdHAxQAAAAAgICAgEBAgICAgICAgI
        CAgICAgICAgICAgICAgICAgICAgICAgICAgICAgICAgICAgICAgICAgICAgICAgICAhzdHAyQAAAAAECAQEBAQECAQEBAQEBAQEBAQEBAQEBAQEBAQEBAQEBAQEBAQEB
        AQEBAQEBAQEBAQEBAQEBAQEBAQEBAQEBAQFzdHAzQAAAAAQEBAgEBAQEBAQEBAQEBAQEBAQEBAQEBAQEBAQEBAQEBAQEBAQEBAQEBAQEBAQEBAQEBAQEBAQEBAQEBAQE
        BARzdHA0QAAAAGBgYGBgYGBgYGBgYGBgYGBgYGBgYGBgYGBgYGBgYGBgYGBgYGBgYGBgYGBgYGBgYGBgYGBgYGBgYGBgYGBgYGBzdHA1QAAAAAAAAAAAAAAAAAAAAAAA
        AAAAAAAAAAAAAAAAAAAAAAAAAAAAAAAAAAAAAAAAAAAAAAAAAAAAAAAAAAAAAAAAAABwcm9nEgIAAHByZ3AiAAAAEAhDBAEBAH8AfwBAAAEAAQAAAAAAAAAAAH8AAAAA
        AAAAAHBnbm0wAAAAU2VxIDJrIEhhcm1vbmljMiAoQStDL0MjKQBEGgEAAAAkKr5f/38AAPTw3BUBAAAAc3RwMEAAAAAAAAcFAAcFAAAAAAAAAAAAAAAAAAAAAAAAAAAA
        AAAAAAAAAAAAAAAAAAAAAAAAAAAAAAAAAAAAAAAAAAAAAAAAc3RwMUAAAAAECAgIBAgICAgICAgICAgICAgICAgICAgICAgICAgICAgICAgICAgICAgICAgICAgICAgI
        CAgICAgICAgICAgIc3RwMkAAAAABAQEBAQEBAQEBAQEBAQEBAQEBAQEBAQEBAQEBAQEBAQEBAQEBAQEBAQEBAQEBAQEBAQEBAQEBAQEBAQEBAQEBc3RwM0AAAAAECAQI
        BAQIBAQEBAQEBAQEBAQEBAQEBAQEBAQEBAQEBAQEBAQEBAQEBAQEBAQEBAQEBAQEBAQEBAQEBAQEBAQEc3RwNEAAAABgYGBgYGBgYGBgYGBgYGBgYGBgYGBgYGBgYGBg
        YGBgYGBgYGBgYGBgYGBgYGBgYGBgYGBgYGBgYGBgYGBgYGBgc3RwNUAAAAAAAAAAAAAAAAAAAAAAAAAAAAAAAAAAAAAAAAAAAAAAAAAAAAAAAAAAAAAAAAAAAAAAAAAA
        AAAAAAAAAAAAAAAAcHJvZxICAABwcmdwIgAAABAIRwQBAQB/AH8AQAABAAEAAAAAAAAAAAB/AAAAAAAAAABwZ25tMAAAAFNlcSAyayBIYXJtb25pYzMgKEErQy9DIykA
        RBoBAAAAJCq+X/9/AAD08NwVAQAAAHN0cDBAAAAAAAAHBwAAAAcAAAAAAAAAAAAAAAAAAAAAAAAAAAAAAAAAAAAAAAAAAAAAAAAAAAAAAAAAAAAAAAAAAAAAAAAAAHN0
        cDFAAAAABAgICAgECAgICAgICAgICAgICAgICAgICAgICAgICAgICAgICAgICAgICAgICAgICAgICAgICAgICAgICAgICHN0cDJAAAAAAQEBAQEBAQEBAQEBAQEBAQEB
        AQEBAQEBAQEBAQEBAQEBAQEBAQEBAQEBAQEBAQEBAQEBAQEBAQEBAQEBAQEBAXN0cDNAAAAABAgECAQECAQEBAQEBAQEBAQEBAQEBAQEBAQEBAQEBAQEBAQEBAQEBAQE
        BAQEBAQEBAQEBAQEBAQEBAQEBAQEBHN0cDRAAAAAYGBgYGBgYGBgYGBgYGBgYGBgYGBgYGBgYGBgYGBgYGBgYGBgYGBgYGBgYGBgYGBgYGBgYGBgYGBgYGBgYGBgYHN0
        cDVAAAAAAAAAAAAAAAAAAAAAAAAAAAAAAAAAAAAAAAAAAAAAAAAAAAAAAAAAAAAAAAAAAAAAAAAAAAAAAAAAAAAAAAAAAHByb2cSAgAAcHJncCIAAAAQCEIEAQEAfwB/
        AEAAAQABAAAAAAAAAAAAfwAAAAAAAAAAcGdubTAAAABTZXEgMmsgSGFybW9uaWM0IChBK0MvQyMpAEQaAQAAACQqvl//fwAA9PDcFQEAAABzdHAwQAAAAAAAAAcAAAAA
        AAAAAAAAAAAAAAAAAAAAAAAAAAAAAAAAAAAAAAAAAAAAAAAAAAAAAAAAAAAAAAAAAAAAAAAAAABzdHAxQAAAAAgECAgECAQECAgICAgICAgICAgICAgICAgICAgICAgI
        CAgICAgICAgICAgICAgICAgICAgICAgICAgICAgICAhzdHAyQAAAAAEBAQEBAQEBAQEBAQEBAQEBAQEBAQEBAQEBAQEBAQEBAQEBAQEBAQEBAQEBAQEBAQEBAQEBAQEB
        AQEBAQEBAQFzdHAzQAAAAAQECAQECAQEBAQEBAQEBAQEBAQEBAQEBAQEBAQEBAQEBAQEBAQEBAQEBAQEBAQEBAQEBAQEBAQEBAQEBAQEBARzdHA0QAAAAGBgYGBgYGBg
        YGBgYGBgYGBgYGBgYGBgYGBgYGBgYGBgYGBgYGBgYGBgYGBgYGBgYGBgYGBgYGBgYGBgYGBgYGBzdHA1QAAAAAAAAAAAAAAAAAAAAAAAAAAAAAAAAAAAAAAAAAAAAAAA
        AAAAAAAAAAAAAAAAAAAAAAAAAAAAAAAAAAAAAAAAAABwcm9nEgIAAHByZ3AiAAAAECA9BAEBAH8AfwBAAAEAAQAAAAAAAAAAAH8AAAAAAAAAAHBnbm0wAAAAU2VxIDJr
        IEtyYWZ0d2VyazEgKEQrRikAsOhEGgEAAAAkKr5f/38AAPTw3BUBAAAAc3RwMEAAAAAAAP7+AAD+/gAAAAAAAAAAAAD+/gAA/v4AAAAAAAAAAAAAAAAAAAAAAAAAAAAA
        AAAAAAAAAAAAAAAAAAAAAAAAc3RwMUAAAAAICAgICAgICAgICAgICAgICAgICAgICAgICAQEBAgEBAgICAgICAgICAgICAgICAgICAgICAgICAgICAgICAgIc3RwMkAA
        AAABAQEBAQEBAQEBAAABAQAAAQEBAQEBAQEBAQEBAQEAAAEBAQEBAQEBAQEBAQEBAQEBAQEBAQEBAQEBAQEBAQEBc3RwM0AAAAAEBAQEBAQEBAQEBAQICAQEBAQEBAQE
        BAQEBAQEBAQEBAQEBAQEBAQEBAQEBAQEBAQEBAQEBAQEBAQEBAQEBAQEc3RwNEAAAABgYGBgYGBgYGBgYGBgYGBgYGBgYGBgYGBgYGBgYGBgYGBgYGBgYGBgYGBgYGBg
        YGBgYGBgYGBgYGBgYGBgYGBgc3RwNUAAAAAAAAAAAAAAAAAAAAAAAAAAAAAAAAAAAAAAAAAAAAAAAAAAAAAAAAAAAAAAAAAAAAAAAAAAAAAAAAAAAAAAAAAAcHJvZxIC
        AABwcmdwIgAAABAgZAQBAQB/AH8APgABAAEAAAAAAAAAAAB/AAAAAAAAAABwZ25tMAAAAFNlcSAyayBLcmFmdHdlcmsyIChBLCBDKQDoRBoBAAAAJCq+X/9/AAD08NwV
        AQAAAHN0cDBAAAAAAAAAAAAAAAADAAAAAAAAAAMAAAAFAAoABwAAAAAAAAAAAAAAAAAAAAAAAAAAAAAAAAAAAAAAAAAAAAAAAAAAAHN0cDFAAAAACAgICAgICAgICAgI
        CAgICAgICAgICAgICAgICAgICAgICAgICAgICAgICAgICAgICAgICAgICAgICAgICAgICHN0cDJAAAAAAQAAAAEAAQABAAEAAAAAAAEAAAABAAEAAQAAAAAAAAABAQEB
        AQEBAQEBAQEBAQEBAQEBAQEBAQEBAQEBAQEBAXN0cDNAAAAABAQEBAQEBAQEBAQEBAQEBAQEBAQEBAQEBAQEBAQEBAQEBAQEBAQEBAQEBAQEBAQEBAQEBAQEBAQEBAQE
        BAQEBHN0cDRAAAAAYGBgYGBgYGBgYGBgYGBgYGBgYGBgYGBgYGBgYGBgYGBgYGBgYGBgYGBgYGBgYGBgYGBgYGBgYGBgYGBgYGBgYHN0cDVAAAAAAAAAAAAAAAAAAAAA
        AAAAAAAAAAAAAAAAAAAAAAAAAAAAAAAAAAAAAAAAAAAAAAAAAAAAAAAAAAAAAAAAAAAAAHByb2cSAgAAcHJncCIAAAAQIGQEAQEAfwB/AEAAAQABAAAAAAAAAAAAfwAA
        AAAAAAAAcGdubTAAAABTZXEgMmsgS3JhZnR3ZXJrMyAoQStDLCBGK0EpAAAAACQqvl//fwAA9PDcFQEAAABzdHAwQAAAAAAAAAAAAPsAAAD7AAAAAAAAAAAAAgAAAAAA
        AAAAAPsAAAAAAAAAAAAAAAAAAAAAAAAAAAAAAAAAAAAAAAAAAABzdHAxQAAAAAgICAgICAgICAgICAgICAgICAgICAgICAgICAgICAgICAgICAgICAgICAgICAgICAgI
        CAgICAgICAgICAgICAhzdHAyQAAAAAEAAAABAAEAAQABAAAAAQABAAAAAQABAAAAAAAAAAEAAQEBAQEBAQEBAQEBAQEBAQEBAQEBAQEBAQEBAQEBAQFzdHAzQAAAAAQE
        BAQEBAQEBAQEBAQEBAQIBAQEBAQEBAQEBAQEBAQEBAQEBAQEBAQEBAQEBAQEBAQEBAQEBAQEBAQEBAQEBARzdHA0QAAAAGBgYGBgYGBgYGBgYGBgYGBgYGBgYGBgYGBg
        YGBgYGBgYGBgYGBgYGBgYGBgYGBgYGBgYGBgYGBgYGBgYGBgYGBzdHA1QAAAAAAAAAAAAAAAAAAAAAAAAAAAAAAAAAAAAAAAAAAAAAAAAAAAAAAAAAAAAAAAAAAAAAAA
        AAAAAAAAAAAAAAAAAABwcm9nEgIAAHByZ3AiAAAAECBkBAEBAH8AfwBAAAEAAQAAAAAAAAAAAH8AAAAAAAAAAHBnbm0wAAAAU2VxIDJrIEtyYWZ0d2VyazMgKEErQywg
        RitBKQAAAAAkKr5f/38AAPTw3BUBAAAAc3RwMEAAAAAAAAAAAAD7AAAA+wAAAAAAAAAAAAIAAAAAAAAAAAD7AAAAAAAAAAAAAAAAAAAAAAAAAAAAAAAAAAAAAAAAAAAA
        c3RwMUAAAAAICAgICAgICAgICAgICAgICAgICAgICAgICAgICAgICAgICAgICAgICAgICAgICAgICAgICAgICAgICAgICAgIc3RwMkAAAAABAAAAAQABAAEAAQAAAAEA
        AQAAAAEAAQAAAAAAAAABAAEBAQEBAQEBAQEBAQEBAQEBAQEBAQEBAQEBAQEBAQEBc3RwM0AAAAAEBAQEBAQEBAQEBAQEBAQECAQEBAQEBAQEBAQEBAQEBAQEBAQEBAQE
        BAQEBAQEBAQEBAQEBAQEBAQEBAQEBAQEc3RwNEAAAABgYGBgYGBgYGBgYGBgYGBgYGBgYGBgYGBgYGBgYGBgYGBgYGBgYGBgYGBgYGBgYGBgYGBgYGBgYGBgYGBgYGBg
        c3RwNUAAAAAAAAAAAAAAAAAAAAAAAAAAAAAAAAAAAAAAAAAAAAAAAAAAAAAAAAAAAAAAAAAAAAAAAAAAAAAAAAAAAAAAAAAAcHJvZxICAABwcmdwIgAAABAgZAQBAQB/
        AH8AQAABAAEAAAAAAAAAAAB/AAAAAAAAAABwZ25tMAAAAFNlcSAyayBLcmFmdHdlcmszIChBK0MsIEYrQSkAAAAAJCq+X/9/AAD08NwVAQAAAHN0cDBAAAAAAAAAAAAA
        +wAAAPsAAAAAAAAAAAACAAAAAAAAAAAA+wAAAAAAAAAAAAAAAAAAAAAAAAAAAAAAAAAAAAAAAAAAAHN0cDFAAAAACAgICAgICAgICAgICAgICAgICAgICAgICAgICAgI
        CAgICAgICAgICAgICAgICAgICAgICAgICAgICAgICAgICHN0cDJAAAAAAQAAAAEAAQABAAEAAAABAAEAAAABAAEAAAAAAAAAAQABAQEBAQEBAQEBAQEBAQEBAQEBAQEB
        AQEBAQEBAQEBAXN0cDNAAAAABAQEBAQEBAQEBAQEBAQEBAgEBAQEBAQEBAQEBAQEBAQEBAQEBAQEBAQEBAQEBAQEBAQEBAQEBAQEBAQEBAQEBHN0cDRAAAAAYGBgYGBg
        YGBgYGBgYGBgYGBgYGBgYGBgYGBgYGBgYGBgYGBgYGBgYGBgYGBgYGBgYGBgYGBgYGBgYGBgYGBgYHN0cDVAAAAAAAAAAAAAAAAAAAAAAAAAAAAAAAAAAAAAAAAAAAAA
        AAAAAAAAAAAAAAAAAAAAAAAAAAAAAAAAAAAAAAAAAAAAAHByb2cSAgAAcHJncCIAAAAQIGQEAQEAfwB/AEAAAQABAAAAAAAAAAAAfwAAAAAAAAAAcGdubTAAAABTZXEg
        MmsgS3JhZnR3ZXJrMyAoQStDLCBGK0EpAAAAACQqvl//fwAA9PDcFQEAAABzdHAwQAAAAAAAAAAAAPsAAAD7AAAAAAAAAAAAAgAAAAAAAAAAAPsAAAAAAAAAAAAAAAAA
        AAAAAAAAAAAAAAAAAAAAAAAAAABzdHAxQAAAAAgICAgICAgICAgICAgICAgICAgICAgICAgICAgICAgICAgICAgICAgICAgICAgICAgICAgICAgICAgICAgICAhzdHAy
        QAAAAAEAAAABAAEAAQABAAAAAQABAAAAAQABAAAAAAAAAAEAAQEBAQEBAQEBAQEBAQEBAQEBAQEBAQEBAQEBAQEBAQFzdHAzQAAAAAQEBAQEBAQEBAQEBAQEBAQIBAQE
        BAQEBAQEBAQEBAQEBAQEBAQEBAQEBAQEBAQEBAQEBAQEBAQEBAQEBAQEBARzdHA0QAAAAGBgYGBgYGBgYGBgYGBgYGBgYGBgYGBgYGBgYGBgYGBgYGBgYGBgYGBgYGBg
        YGBgYGBgYGBgYGBgYGBgYGBgYGBzdHA1QAAAAAAAAAAAAAAAAAAAAAAAAAAAAAAAAAAAAAAAAAAAAAAAAAAAAAAAAAAAAAAAAAAAAAAAAAAAAAAAAAAAAAAAAABwcm9n
        EgIAAHByZ3AiAAAAECBkBAEBAH8AfwBAAAEAAQAAAAAAAAAAAH8AAAAAAAAAAHBnbm0wAAAAU2VxIDJrIEtyYWZ0d2VyazMgKEErQywgRitBKQAAAAAkKr5f/38AAPTw
        3BUBAAAAc3RwMEAAAAAAAAAAAAD7AAAA+wAAAAAAAAAAAAIAAAAAAAAAAAD7AAAAAAAAAAAAAAAAAAAAAAAAAAAAAAAAAAAAAAAAAAAAc3RwMUAAAAAICAgICAgICAgI
        CAgICAgICAgICAgICAgICAgICAgICAgICAgICAgICAgICAgICAgICAgICAgICAgICAgICAgIc3RwMkAAAAABAAAAAQABAAEAAQAAAAEAAQAAAAEAAQAAAAAAAAABAAEB
        AQEBAQEBAQEBAQEBAQEBAQEBAQEBAQEBAQEBAQEBc3RwM0AAAAAEBAQEBAQEBAQEBAQEBAQECAQEBAQEBAQEBAQEBAQEBAQEBAQEBAQEBAQEBAQEBAQEBAQEBAQEBAQE
        BAQEBAQEc3RwNEAAAABgYGBgYGBgYGBgYGBgYGBgYGBgYGBgYGBgYGBgYGBgYGBgYGBgYGBgYGBgYGBgYGBgYGBgYGBgYGBgYGBgYGBgc3RwNUAAAAAAAAAAAAAAAAAA
        AAAAAAAAAAAAAAAAAAAAAAAAAAAAAAAAAAAAAAAAAAAAAAAAAAAAAAAAAAAAAAAAAAAAAAAAcHJvZxICAABwcmdwIgAAABAgZAQBAQB/AH8AQAABAAEAAAAAAAAAAAB/
        AAAAAAAAAABwZ25tMAAAAFNlcSAyayBLcmFmdHdlcmszIChBK0MsIEYrQSkAAAAAJCq+X/9/AAD08NwVAQAAAHN0cDBAAAAAAAAAAAAA+wAAAPsAAAAAAAAAAAACAAAA
        AAAAAAAA+wAAAAAAAAAAAAAAAAAAAAAAAAAAAAAAAAAAAAAAAAAAAHN0cDFAAAAACAgICAgICAgICAgICAgICAgICAgICAgICAgICAgICAgICAgICAgICAgICAgICAgI
        CAgICAgICAgICAgICAgICHN0cDJAAAAAAQAAAAEAAQABAAEAAAABAAEAAAABAAEAAAAAAAAAAQABAQEBAQEBAQEBAQEBAQEBAQEBAQEBAQEBAQEBAQEBAXN0cDNAAAAA
        BAQEBAQEBAQEBAQEBAQEBAgEBAQEBAQEBAQEBAQEBAQEBAQEBAQEBAQEBAQEBAQEBAQEBAQEBAQEBAQEBAQEBHN0cDRAAAAAYGBgYGBgYGBgYGBgYGBgYGBgYGBgYGBg
        YGBgYGBgYGBgYGBgYGBgYGBgYGBgYGBgYGBgYGBgYGBgYGBgYGBgYHN0cDVAAAAAAAAAAAAAAAAAAAAAAAAAAAAAAAAAAAAAAAAAAAAAAAAAAAAAAAAAAAAAAAAAAAAA
        AAAAAAAAAAAAAAAAAAAAAHByb2cSAgAAcHJncCIAAAAQIGQEAQEAfwB/AEAAAQABAAAAAAAAAAAAfwAAAAAAAAAAcGdubTAAAABTZXEgMmsgS3JhZnR3ZXJrMyAoQStD
        LCBGK0EpAAAAACQqvl//fwAA9PDcFQEAAABzdHAwQAAAAAAAAAAAAPsAAAD7AAAAAAAAAAAAAgAAAAAAAAAAAPsAAAAAAAAAAAAAAAAAAAAAAAAAAAAAAAAAAAAAAAAA
        AABzdHAxQAAAAAgICAgICAgICAgICAgICAgICAgICAgICAgICAgICAgICAgICAgICAgICAgICAgICAgICAgICAgICAgICAgICAhzdHAyQAAAAAEAAAABAAEAAQABAAAA
        AQABAAAAAQABAAAAAAAAAAEAAQEBAQEBAQEBAQEBAQEBAQEBAQEBAQEBAQEBAQEBAQFzdHAzQAAAAAQEBAQEBAQEBAQEBAQEBAQIBAQEBAQEBAQEBAQEBAQEBAQEBAQE
        BAQEBAQEBAQEBAQEBAQEBAQEBAQEBAQEBARzdHA0QAAAAGBgYGBgYGBgYGBgYGBgYGBgYGBgYGBgYGBgYGBgYGBgYGBgYGBgYGBgYGBgYGBgYGBgYGBgYGBgYGBgYGBg
        YGBzdHA1QAAAAAAAAAAAAAAAAAAAAAAAAAAAAAAAAAAAAAAAAAAAAAAAAAAAAAAAAAAAAAAAAAAAAAAAAAAAAAAAAAAAAAAAAABwcm9nEgIAAHByZ3AiAAAAECBkBAEB
        AH8AfwBAAAEAAQAAAAAAAAAAAH8AAAAAAAAAAHBnbm0wAAAAU2VxIDJrIEtyYWZ0d2VyazMgKEErQywgRitBKQAAAAAkKr5f/38AAPTw3BUBAAAAc3RwMEAAAAAAAAAA
        AAD7AAAA+wAAAAAAAAAAAAIAAAAAAAAAAAD7AAAAAAAAAAAAAAAAAAAAAAAAAAAAAAAAAAAAAAAAAAAAc3RwMUAAAAAICAgICAgICAgICAgICAgICAgICAgICAgICAgI
        CAgICAgICAgICAgICAgICAgICAgICAgICAgICAgICAgICAgIc3RwMkAAAAABAAAAAQABAAEAAQAAAAEAAQAAAAEAAQAAAAAAAAABAAEBAQEBAQEBAQEBAQEBAQEBAQEB
        AQEBAQEBAQEBAQEBc3RwM0AAAAAEBAQEBAQEBAQEBAQEBAQECAQEBAQEBAQEBAQEBAQEBAQEBAQEBAQEBAQEBAQEBAQEBAQEBAQEBAQEBAQEBAQEc3RwNEAAAABgYGBg
        YGBgYGBgYGBgYGBgYGBgYGBgYGBgYGBgYGBgYGBgYGBgYGBgYGBgYGBgYGBgYGBgYGBgYGBgYGBgYGBgc3RwNUAAAAAAAAAAAAAAAAAAAAAAAAAAAAAAAAAAAAAAAAAA
        AAAAAAAAAAAAAAAAAAAAAAAAAAAAAAAAAAAAAAAAAAAAAAAAcHJvZxICAABwcmdwIgAAABAgZAQBAQB/AH8AQAABAAEAAAAAAAAAAAB/AAAAAAAAAABwZ25tMAAAAFNl
        cSAyayBLcmFmdHdlcmszIChBK0MsIEYrQSkAAAAAJCq+X/9/AAD08NwVAQAAAHN0cDBAAAAAAAAAAAAA+wAAAPsAAAAAAAAAAAACAAAAAAAAAAAA+wAAAAAAAAAAAAAA
        AAAAAAAAAAAAAAAAAAAAAAAAAAAAAHN0cDFAAAAACAgICAgICAgICAgICAgICAgICAgICAgICAgICAgICAgICAgICAgICAgICAgICAgICAgICAgICAgICAgICAgICHN0
        cDJAAAAAAQAAAAEAAQABAAEAAAABAAEAAAABAAEAAAAAAAAAAQABAQEBAQEBAQEBAQEBAQEBAQEBAQEBAQEBAQEBAQEBAXN0cDNAAAAABAQEBAQEBAQEBAQEBAQEBAgE
        BAQEBAQEBAQEBAQEBAQEBAQEBAQEBAQEBAQEBAQEBAQEBAQEBAQEBAQEBAQEBHN0cDRAAAAAYGBgYGBgYGBgYGBgYGBgYGBgYGBgYGBgYGBgYGBgYGBgYGBgYGBgYGBg
        YGBgYGBgYGBgYGBgYGBgYGBgYGBgYHN0cDVAAAAAAAAAAAAAAAAAAAAAAAAAAAAAAAAAAAAAAAAAAAAAAAAAAAAAAAAAAAAAAAAAAAAAAAAAAAAAAAAAAAAAAAAAAHBy
        b2cSAgAAcHJncCIAAAAQIGQEAQEAfwB/AEAAAQABAAAAAAAAAAAAfwAAAAAAAAAAcGdubTAAAABTZXEgMmsgS3JhZnR3ZXJrMyAoQStDLCBGK0EpAAAAACQqvl//fwAA
        9PDcFQEAAABzdHAwQAAAAAAAAAAAAPsAAAD7AAAAAAAAAAAAAgAAAAAAAAAAAPsAAAAAAAAAAAAAAAAAAAAAAAAAAAAAAAAAAAAAAAAAAABzdHAxQAAAAAgICAgICAgI
        CAgICAgICAgICAgICAgICAgICAgICAgICAgICAgICAgICAgICAgICAgICAgICAgICAgICAgICAhzdHAyQAAAAAEAAAABAAEAAQABAAAAAQABAAAAAQABAAAAAAAAAAEA
        AQEBAQEBAQEBAQEBAQEBAQEBAQEBAQEBAQEBAQEBAQFzdHAzQAAAAAQEBAQEBAQEBAQEBAQEBAQIBAQEBAQEBAQEBAQEBAQEBAQEBAQEBAQEBAQEBAQEBAQEBAQEBAQE
        BAQEBAQEBARzdHA0QAAAAGBgYGBgYGBgYGBgYGBgYGBgYGBgYGBgYGBgYGBgYGBgYGBgYGBgYGBgYGBgYGBgYGBgYGBgYGBgYGBgYGBgYGBzdHA1QAAAAAAAAAAAAAAA
        AAAAAAAAAAAAAAAAAAAAAAAAAAAAAAAAAAAAAAAAAAAAAAAAAAAAAAAAAAAAAAAAAAAAAAAAAABwcm9nEgIAAHByZ3AiAAAAECBkBAEBAH8AfwBAAAEAAQAAAAAAAAAA
        AH8AAAAAAAAAAHBnbm0wAAAAU2VxIDJrIEtyYWZ0d2VyazMgKEErQywgRitBKQAAAAAkKr5f/38AAPTw3BUBAAAAc3RwMEAAAAAAAAAAAAD7AAAA+wAAAAAAAAAAAAIA
        AAAAAAAAAAD7AAAAAAAAAAAAAAAAAAAAAAAAAAAAAAAAAAAAAAAAAAAAc3RwMUAAAAAICAgICAgICAgICAgICAgICAgICAgICAgICAgICAgICAgICAgICAgICAgICAgI
        CAgICAgICAgICAgICAgICAgIc3RwMkAAAAABAAAAAQABAAEAAQAAAAEAAQAAAAEAAQAAAAAAAAABAAEBAQEBAQEBAQEBAQEBAQEBAQEBAQEBAQEBAQEBAQEBc3RwM0AA
        AAAEBAQEBAQEBAQEBAQEBAQECAQEBAQEBAQEBAQEBAQEBAQEBAQEBAQEBAQEBAQEBAQEBAQEBAQEBAQEBAQEBAQEc3RwNEAAAABgYGBgYGBgYGBgYGBgYGBgYGBgYGBg
        YGBgYGBgYGBgYGBgYGBgYGBgYGBgYGBgYGBgYGBgYGBgYGBgYGBgYGBgc3RwNUAAAAAAAAAAAAAAAAAAAAAAAAAAAAAAAAAAAAAAAAAAAAAAAAAAAAAAAAAAAAAAAAAA
        AAAAAAAAAAAAAAAAAAAAAAAAcHJvZxICAABwcmdwIgAAABAgZAQBAQB/AH8AQAABAAEAAAAAAAAAAAB/AAAAAAAAAABwZ25tMAAAAFNlcSAyayBLcmFmdHdlcmszIChB
        K0MsIEYrQSkAAAAAJCq+X/9/AAD08NwVAQAAAHN0cDBAAAAAAAAAAAAA+wAAAPsAAAAAAAAAAAACAAAAAAAAAAAA+wAAAAAAAAAAAAAAAAAAAAAAAAAAAAAAAAAAAAAA
        AAAAAHN0cDFAAAAACAgICAgICAgICAgICAgICAgICAgICAgICAgICAgICAgICAgICAgICAgICAgICAgICAgICAgICAgICAgICAgICHN0cDJAAAAAAQAAAAEAAQABAAEA
        AAABAAEAAAABAAEAAAAAAAAAAQABAQEBAQEBAQEBAQEBAQEBAQEBAQEBAQEBAQEBAQEBAXN0cDNAAAAABAQEBAQEBAQEBAQEBAQEBAgEBAQEBAQEBAQEBAQEBAQEBAQE
        BAQEBAQEBAQEBAQEBAQEBAQEBAQEBAQEBAQEBHN0cDRAAAAAYGBgYGBgYGBgYGBgYGBgYGBgYGBgYGBgYGBgYGBgYGBgYGBgYGBgYGBgYGBgYGBgYGBgYGBgYGBgYGBg
        YGBgYHN0cDVAAAAAAAAAAAAAAAAAAAAAAAAAAAAAAAAAAAAAAAAAAAAAAAAAAAAAAAAAAAAAAAAAAAAAAAAAAAAAAAAAAAAAAAAAAHByb2cSAgAAcHJncCIAAAAQIGQE
        AQEAfwB/AEAAAQABAAAAAAAAAAAAfwAAAAAAAAAAcGdubTAAAABTZXEgMmsgS3JhZnR3ZXJrMyAoQStDLCBGK0EpAAAAACQqvl//fwAA9PDcFQEAAABzdHAwQAAAAAAA
        AAAAAPsAAAD7AAAAAAAAAAAAAgAAAAAAAAAAAPsAAAAAAAAAAAAAAAAAAAAAAAAAAAAAAAAAAAAAAAAAAABzdHAxQAAAAAgICAgICAgICAgICAgICAgICAgICAgICAgI
        CAgICAgICAgICAgICAgICAgICAgICAgICAgICAgICAgICAgICAhzdHAyQAAAAAEAAAABAAEAAQABAAAAAQABAAAAAQABAAAAAAAAAAEAAQEBAQEBAQEBAQEBAQEBAQEB
        AQEBAQEBAQEBAQEBAQFzdHAzQAAAAAQEBAQEBAQEBAQEBAQEBAQIBAQEBAQEBAQEBAQEBAQEBAQEBAQEBAQEBAQEBAQEBAQEBAQEBAQEBAQEBAQEBARzdHA0QAAAAGBg
        YGBgYGBgYGBgYGBgYGBgYGBgYGBgYGBgYGBgYGBgYGBgYGBgYGBgYGBgYGBgYGBgYGBgYGBgYGBgYGBgYGBzdHA1QAAAAAAAAAAAAAAAAAAAAAAAAAAAAAAAAAAAAAAA
        AAAAAAAAAAAAAAAAAAAAAAAAAAAAAAAAAAAAAAAAAAAAAAAAAABwcm9nEgIAAHByZ3AiAAAAECBkBAEBAH8AfwBAAAEAAQAAAAAAAAAAAH8AAAAAAAAAAHBnbm0wAAAA
        U2VxIDJrIEtyYWZ0d2VyazMgKEErQywgRitBKQAAAAAkKr5f/38AAPTw3BUBAAAAc3RwMEAAAAAAAAAAAAD7AAAA+wAAAAAAAAAAAAIAAAAAAAAAAAD7AAAAAAAAAAAA
        AAAAAAAAAAAAAAAAAAAAAAAAAAAAAAAAc3RwMUAAAAAICAgICAgICAgICAgICAgICAgICAgICAgICAgICAgICAgICAgICAgICAgICAgICAgICAgICAgICAgICAgICAgI
        c3RwMkAAAAABAAAAAQABAAEAAQAAAAEAAQAAAAEAAQAAAAAAAAABAAEBAQEBAQEBAQEBAQEBAQEBAQEBAQEBAQEBAQEBAQEBc3RwM0AAAAAEBAQEBAQEBAQEBAQEBAQE
        CAQEBAQEBAQEBAQEBAQEBAQEBAQEBAQEBAQEBAQEBAQEBAQEBAQEBAQEBAQEBAQEc3RwNEAAAABgYGBgYGBgYGBgYGBgYGBgYGBgYGBgYGBgYGBgYGBgYGBgYGBgYGBg
        YGBgYGBgYGBgYGBgYGBgYGBgYGBgYGBgc3RwNUAAAAAAAAAAAAAAAAAAAAAAAAAAAAAAAAAAAAAAAAAAAAAAAAAAAAAAAAAAAAAAAAAAAAAAAAAAAAAAAAAAAAAAAAAA
        cHJvZxICAABwcmdwIgAAABAgZAQBAQB/AH8AQAABAAEAAAAAAAAAAAB/AAAAAAAAAABwZ25tMAAAAFNlcSAyayBLcmFmdHdlcmszIChBK0MsIEYrQSkAAAAAJCq+X/9/
        AAD08NwVAQAAAHN0cDBAAAAAAAAAAAAA+wAAAPsAAAAAAAAAAAACAAAAAAAAAAAA+wAAAAAAAAAAAAAAAAAAAAAAAAAAAAAAAAAAAAAAAAAAAHN0cDFAAAAACAgICAgI
        CAgICAgICAgICAgICAgICAgICAgICAgICAgICAgICAgICAgICAgICAgICAgICAgICAgICAgICAgICHN0cDJAAAAAAQAAAAEAAQABAAEAAAABAAEAAAABAAEAAAAAAAAA
        AQABAQEBAQEBAQEBAQEBAQEBAQEBAQEBAQEBAQEBAQEBAXN0cDNAAAAABAQEBAQEBAQEBAQEBAQEBAgEBAQEBAQEBAQEBAQEBAQEBAQEBAQEBAQEBAQEBAQEBAQEBAQE
        BAQEBAQEBAQEBHN0cDRAAAAAYGBgYGBgYGBgYGBgYGBgYGBgYGBgYGBgYGBgYGBgYGBgYGBgYGBgYGBgYGBgYGBgYGBgYGBgYGBgYGBgYGBgYHN0cDVAAAAAAAAAAAAA
        AAAAAAAAAAAAAAAAAAAAAAAAAAAAAAAAAAAAAAAAAAAAAAAAAAAAAAAAAAAAAAAAAAAAAAAAAAAAAHByb2cSAgAAcHJncCIAAAAQIGQEAQEAfwB/AEAAAQABAAAAAAAA
        AAAAfwAAAAAAAAAAcGdubTAAAABTZXEgMmsgS3JhZnR3ZXJrMyAoQStDLCBGK0EpAAAAACQqvl//fwAA9PDcFQEAAABzdHAwQAAAAAAAAAAAAPsAAAD7AAAAAAAAAAAA
        AgAAAAAAAAAAAPsAAAAAAAAAAAAAAAAAAAAAAAAAAAAAAAAAAAAAAAAAAABzdHAxQAAAAAgICAgICAgICAgICAgICAgICAgICAgICAgICAgICAgICAgICAgICAgICAgI
        CAgICAgICAgICAgICAgICAgICAhzdHAyQAAAAAEAAAABAAEAAQABAAAAAQABAAAAAQABAAAAAAAAAAEAAQEBAQEBAQEBAQEBAQEBAQEBAQEBAQEBAQEBAQEBAQFzdHAz
        QAAAAAQEBAQEBAQEBAQEBAQEBAQIBAQEBAQEBAQEBAQEBAQEBAQEBAQEBAQEBAQEBAQEBAQEBAQEBAQEBAQEBAQEBARzdHA0QAAAAGBgYGBgYGBgYGBgYGBgYGBgYGBg
        YGBgYGBgYGBgYGBgYGBgYGBgYGBgYGBgYGBgYGBgYGBgYGBgYGBgYGBgYGBzdHA1QAAAAAAAAAAAAAAAAAAAAAAAAAAAAAAAAAAAAAAAAAAAAAAAAAAAAAAAAAAAAAAA
        AAAAAAAAAAAAAAAAAAAAAAAAAABwcm9nEgIAAHByZ3AiAAAAECBkBAEBAH8AfwBAAAEAAQAAAAAAAAAAAH8AAAAAAAAAAHBnbm0wAAAAU2VxIDJrIEtyYWZ0d2VyazMg
        KEErQywgRitBKQAAAAAkKr5f/38AAPTw3BUBAAAAc3RwMEAAAAAAAAAAAAD7AAAA+wAAAAAAAAAAAAIAAAAAAAAAAAD7AAAAAAAAAAAAAAAAAAAAAAAAAAAAAAAAAAAA
        AAAAAAAAc3RwMUAAAAAICAgICAgICAgICAgICAgICAgICAgICAgICAgICAgICAgICAgICAgICAgICAgICAgICAgICAgICAgICAgICAgIc3RwMkAAAAABAAAAAQABAAEA
        AQAAAAEAAQAAAAEAAQAAAAAAAAABAAEBAQEBAQEBAQEBAQEBAQEBAQEBAQEBAQEBAQEBAQEBc3RwM0AAAAAEBAQEBAQEBAQEBAQEBAQECAQEBAQEBAQEBAQEBAQEBAQE
        BAQEBAQEBAQEBAQEBAQEBAQEBAQEBAQEBAQEBAQEc3RwNEAAAABgYGBgYGBgYGBgYGBgYGBgYGBgYGBgYGBgYGBgYGBgYGBgYGBgYGBgYGBgYGBgYGBgYGBgYGBgYGBg
        YGBgYGBgc3RwNUAAAAAAAAAAAAAAAAAAAAAAAAAAAAAAAAAAAAAAAAAAAAAAAAAAAAAAAAAAAAAAAAAAAAAAAAAAAAAAAAAAAAAAAAAAcHJvZxICAABwcmdwIgAAABAg
        ZAQBAQB/AH8AQAABAAEAAAAAAAAAAAB/AAAAAAAAAABwZ25tMAAAAFNlcSAyayBLcmFmdHdlcmszIChBK0MsIEYrQSkAAAAAJCq+X/9/AAD08NwVAQAAAHN0cDBAAAAA
        AAAAAAAA+wAAAPsAAAAAAAAAAAACAAAAAAAAAAAA+wAAAAAAAAAAAAAAAAAAAAAAAAAAAAAAAAAAAAAAAAAAAHN0cDFAAAAACAgICAgICAgICAgICAgICAgICAgICAgI
        CAgICAgICAgICAgICAgICAgICAgICAgICAgICAgICAgICAgICAgICHN0cDJAAAAAAQAAAAEAAQABAAEAAAABAAEAAAABAAEAAAAAAAAAAQABAQEBAQEBAQEBAQEBAQEB
        AQEBAQEBAQEBAQEBAQEBAXN0cDNAAAAABAQEBAQEBAQEBAQEBAQEBAgEBAQEBAQEBAQEBAQEBAQEBAQEBAQEBAQEBAQEBAQEBAQEBAQEBAQEBAQEBAQEBHN0cDRAAAAA
        YGBgYGBgYGBgYGBgYGBgYGBgYGBgYGBgYGBgYGBgYGBgYGBgYGBgYGBgYGBgYGBgYGBgYGBgYGBgYGBgYGBgYHN0cDVAAAAAAAAAAAAAAAAAAAAAAAAAAAAAAAAAAAAA
        AAAAAAAAAAAAAAAAAAAAAAAAAAAAAAAAAAAAAAAAAAAAAAAAAAAAAHByb2cSAgAAcHJncCIAAAAQIGQEAQEAfwB/AEAAAQABAAAAAAAAAAAAfwAAAAAAAAAAcGdubTAA
        AABTZXEgMmsgS3JhZnR3ZXJrMyAoQStDLCBGK0EpAAAAACQqvl//fwAA9PDcFQEAAABzdHAwQAAAAAAAAAAAAPsAAAD7AAAAAAAAAAAAAgAAAAAAAAAAAPsAAAAAAAAA
        AAAAAAAAAAAAAAAAAAAAAAAAAAAAAAAAAABzdHAxQAAAAAgICAgICAgICAgICAgICAgICAgICAgICAgICAgICAgICAgICAgICAgICAgICAgICAgICAgICAgICAgICAgI
        CAhzdHAyQAAAAAEAAAABAAEAAQABAAAAAQABAAAAAQABAAAAAAAAAAEAAQEBAQEBAQEBAQEBAQEBAQEBAQEBAQEBAQEBAQEBAQFzdHAzQAAAAAQEBAQEBAQEBAQEBAQE
        BAQIBAQEBAQEBAQEBAQEBAQEBAQEBAQEBAQEBAQEBAQEBAQEBAQEBAQEBAQEBAQEBARzdHA0QAAAAGBgYGBgYGBgYGBgYGBgYGBgYGBgYGBgYGBgYGBgYGBgYGBgYGBg
        YGBgYGBgYGBgYGBgYGBgYGBgYGBgYGBgYGBzdHA1QAAAAAAAAAAAAAAAAAAAAAAAAAAAAAAAAAAAAAAAAAAAAAAAAAAAAAAAAAAAAAAAAAAAAAAAAAAAAAAAAAAAAAAA
        AABwcm9nEgIAAHByZ3AiAAAAECBkBAEBAH8AfwBAAAEAAQAAAAAAAAAAAH8AAAAAAAAAAHBnbm0wAAAAU2VxIDJrIEtyYWZ0d2VyazMgKEErQywgRitBKQAAAAAkKr5f
        /38AAPTw3BUBAAAAc3RwMEAAAAAAAAAAAAD7AAAA+wAAAAAAAAAAAAIAAAAAAAAAAAD7AAAAAAAAAAAAAAAAAAAAAAAAAAAAAAAAAAAAAAAAAAAAc3RwMUAAAAAICAgI
        CAgICAgICAgICAgICAgICAgICAgICAgICAgICAgICAgICAgICAgICAgICAgICAgICAgICAgICAgICAgIc3RwMkAAAAABAAAAAQABAAEAAQAAAAEAAQAAAAEAAQAAAAAA
        AAABAAEBAQEBAQEBAQEBAQEBAQEBAQEBAQEBAQEBAQEBAQEBc3RwM0AAAAAEBAQEBAQEBAQEBAQEBAQECAQEBAQEBAQEBAQEBAQEBAQEBAQEBAQEBAQEBAQEBAQEBAQE
        BAQEBAQEBAQEBAQEc3RwNEAAAABgYGBgYGBgYGBgYGBgYGBgYGBgYGBgYGBgYGBgYGBgYGBgYGBgYGBgYGBgYGBgYGBgYGBgYGBgYGBgYGBgYGBgc3RwNUAAAAAAAAAA
        AAAAAAAAAAAAAAAAAAAAAAAAAAAAAAAAAAAAAAAAAAAAAAAAAAAAAAAAAAAAAAAAAAAAAAAAAAAAAAAAcHJvZxICAABwcmdwIgAAABAgZAQBAQB/AH8AQAABAAEAAAAA
        AAAAAAB/AAAAAAAAAABwZ25tMAAAAFNlcSAyayBLcmFmdHdlcmszIChBK0MsIEYrQSkAAAAAJCq+X/9/AAD08NwVAQAAAHN0cDBAAAAAAAAAAAAA+wAAAPsAAAAAAAAA
        AAACAAAAAAAAAAAA+wAAAAAAAAAAAAAAAAAAAAAAAAAAAAAAAAAAAAAAAAAAAHN0cDFAAAAACAgICAgICAgICAgICAgICAgICAgICAgICAgICAgICAgICAgICAgICAgI
        CAgICAgICAgICAgICAgICAgICAgICHN0cDJAAAAAAQAAAAEAAQABAAEAAAABAAEAAAABAAEAAAAAAAAAAQABAQEBAQEBAQEBAQEBAQEBAQEBAQEBAQEBAQEBAQEBAXN0
        cDNAAAAABAQEBAQEBAQEBAQEBAQEBAgEBAQEBAQEBAQEBAQEBAQEBAQEBAQEBAQEBAQEBAQEBAQEBAQEBAQEBAQEBAQEBHN0cDRAAAAAYGBgYGBgYGBgYGBgYGBgYGBg
        YGBgYGBgYGBgYGBgYGBgYGBgYGBgYGBgYGBgYGBgYGBgYGBgYGBgYGBgYGBgYHN0cDVAAAAAAAAAAAAAAAAAAAAAAAAAAAAAAAAAAAAAAAAAAAAAAAAAAAAAAAAAAAAA
        AAAAAAAAAAAAAAAAAAAAAAAAAAAAAHByb2cSAgAAcHJncCIAAAAQIGQEAQEAfwB/AEAAAQABAAAAAAAAAAAAfwAAAAAAAAAAcGdubTAAAABTZXEgMmsgS3JhZnR3ZXJr
        MyAoQStDLCBGK0EpAAAAACQqvl//fwAA9PDcFQEAAABzdHAwQAAAAAAAAAAAAPsAAAD7AAAAAAAAAAAAAgAAAAAAAAAAAPsAAAAAAAAAAAAAAAAAAAAAAAAAAAAAAAAA
        AAAAAAAAAABzdHAxQAAAAAgICAgICAgICAgICAgICAgICAgICAgICAgICAgICAgICAgICAgICAgICAgICAgICAgICAgICAgICAgICAgICAhzdHAyQAAAAAEAAAABAAEA
        AQABAAAAAQABAAAAAQABAAAAAAAAAAEAAQEBAQEBAQEBAQEBAQEBAQEBAQEBAQEBAQEBAQEBAQFzdHAzQAAAAAQEBAQEBAQEBAQEBAQEBAQIBAQEBAQEBAQEBAQEBAQE
        BAQEBAQEBAQEBAQEBAQEBAQEBAQEBAQEBAQEBAQEBARzdHA0QAAAAGBgYGBgYGBgYGBgYGBgYGBgYGBgYGBgYGBgYGBgYGBgYGBgYGBgYGBgYGBgYGBgYGBgYGBgYGBg
        YGBgYGBgYGBzdHA1QAAAAAAAAAAAAAAAAAAAAAAAAAAAAAAAAAAAAAAAAAAAAAAAAAAAAAAAAAAAAAAAAAAAAAAAAAAAAAAAAAAAAAAAAABwcm9nEgIAAHByZ3AiAAAA
        ECBkBAEBAH8AfwBAAAEAAQAAAAAAAAAAAH8AAAAAAAAAAHBnbm0wAAAAU2VxIDJrIEtyYWZ0d2VyazMgKEErQywgRitBKQAAAAAkKr5f/38AAPTw3BUBAAAAc3RwMEAA
        AAAAAAAAAAD7AAAA+wAAAAAAAAAAAAIAAAAAAAAAAAD7AAAAAAAAAAAAAAAAAAAAAAAAAAAAAAAAAAAAAAAAAAAAc3RwMUAAAAAICAgICAgICAgICAgICAgICAgICAgI
        CAgICAgICAgICAgICAgICAgICAgICAgICAgICAgICAgICAgICAgICAgIc3RwMkAAAAABAAAAAQABAAEAAQAAAAEAAQAAAAEAAQAAAAAAAAABAAEBAQEBAQEBAQEBAQEB
        AQEBAQEBAQEBAQEBAQEBAQEBc3RwM0AAAAAEBAQEBAQEBAQEBAQEBAQECAQEBAQEBAQEBAQEBAQEBAQEBAQEBAQEBAQEBAQEBAQEBAQEBAQEBAQEBAQEBAQEc3RwNEAA
        AABgYGBgYGBgYGBgYGBgYGBgYGBgYGBgYGBgYGBgYGBgYGBgYGBgYGBgYGBgYGBgYGBgYGBgYGBgYGBgYGBgYGBgc3RwNUAAAAAAAAAAAAAAAAAAAAAAAAAAAAAAAAAA
        AAAAAAAAAAAAAAAAAAAAAAAAAAAAAAAAAAAAAAAAAAAAAAAAAAAAAAAAcHJvZxICAABwcmdwIgAAABAgZAQBAQB/AH8AQAABAAEAAAAAAAAAAAB/AAAAAAAAAABwZ25t
        MAAAAFNlcSAyayBLcmFmdHdlcmszIChBK0MsIEYrQSkAAAAAJCq+X/9/AAD08NwVAQAAAHN0cDBAAAAAAAAAAAAA+wAAAPsAAAAAAAAAAAACAAAAAAAAAAAA+wAAAAAA
        AAAAAAAAAAAAAAAAAAAAAAAAAAAAAAAAAAAAAHN0cDFAAAAACAgICAgICAgICAgICAgICAgICAgICAgICAgICAgICAgICAgICAgICAgICAgICAgICAgICAgICAgICAgI
        CAgICHN0cDJAAAAAAQAAAAEAAQABAAEAAAABAAEAAAABAAEAAAAAAAAAAQABAQEBAQEBAQEBAQEBAQEBAQEBAQEBAQEBAQEBAQEBAXN0cDNAAAAABAQEBAQEBAQEBAQE
        BAQEBAgEBAQEBAQEBAQEBAQEBAQEBAQEBAQEBAQEBAQEBAQEBAQEBAQEBAQEBAQEBAQEBHN0cDRAAAAAYGBgYGBgYGBgYGBgYGBgYGBgYGBgYGBgYGBgYGBgYGBgYGBg
        YGBgYGBgYGBgYGBgYGBgYGBgYGBgYGBgYGBgYHN0cDVAAAAAAAAAAAAAAAAAAAAAAAAAAAAAAAAAAAAAAAAAAAAAAAAAAAAAAAAAAAAAAAAAAAAAAAAAAAAAAAAAAAAA
        AAAAAHByb2cSAgAAcHJncCIAAAAQIGQEAQEAfwB/AEAAAQABAAAAAAAAAAAAfwAAAAAAAAAAcGdubTAAAABTZXEgMmsgS3JhZnR3ZXJrMyAoQStDLCBGK0EpAAAAACQq
        vl//fwAA9PDcFQEAAABzdHAwQAAAAAAAAAAAAPsAAAD7AAAAAAAAAAAAAgAAAAAAAAAAAPsAAAAAAAAAAAAAAAAAAAAAAAAAAAAAAAAAAAAAAAAAAABzdHAxQAAAAAgI
        CAgICAgICAgICAgICAgICAgICAgICAgICAgICAgICAgICAgICAgICAgICAgICAgICAgICAgICAgICAgICAhzdHAyQAAAAAEAAAABAAEAAQABAAAAAQABAAAAAQABAAAA
        AAAAAAEAAQEBAQEBAQEBAQEBAQEBAQEBAQEBAQEBAQEBAQEBAQFzdHAzQAAAAAQEBAQEBAQEBAQEBAQEBAQIBAQEBAQEBAQEBAQEBAQEBAQEBAQEBAQEBAQEBAQEBAQE
        BAQEBAQEBAQEBAQEBARzdHA0QAAAAGBgYGBgYGBgYGBgYGBgYGBgYGBgYGBgYGBgYGBgYGBgYGBgYGBgYGBgYGBgYGBgYGBgYGBgYGBgYGBgYGBgYGBzdHA1QAAAAAAA
        AAAAAAAAAAAAAAAAAAAAAAAAAAAAAAAAAAAAAAAAAAAAAAAAAAAAAAAAAAAAAAAAAAAAAAAAAAAAAAAAAABwcm9nEgIAAHByZ3AiAAAAECBkBAEBAH8AfwBAAAEAAQAA
        AAAAAAAAAH8AAAAAAAAAAHBnbm0wAAAAU2VxIDJrIEtyYWZ0d2VyazMgKEErQywgRitBKQAAAAAkKr5f/38AAPTw3BUBAAAAc3RwMEAAAAAAAAAAAAD7AAAA+wAAAAAA
        AAAAAAIAAAAAAAAAAAD7AAAAAAAAAAAAAAAAAAAAAAAAAAAAAAAAAAAAAAAAAAAAc3RwMUAAAAAICAgICAgICAgICAgICAgICAgICAgICAgICAgICAgICAgICAgICAgI
        CAgICAgICAgICAgICAgICAgICAgICAgIc3RwMkAAAAABAAAAAQABAAEAAQAAAAEAAQAAAAEAAQAAAAAAAAABAAEBAQEBAQEBAQEBAQEBAQEBAQEBAQEBAQEBAQEBAQEB
        c3RwM0AAAAAEBAQEBAQEBAQEBAQEBAQECAQEBAQEBAQEBAQEBAQEBAQEBAQEBAQEBAQEBAQEBAQEBAQEBAQEBAQEBAQEBAQEc3RwNEAAAABgYGBgYGBgYGBgYGBgYGBg
        YGBgYGBgYGBgYGBgYGBgYGBgYGBgYGBgYGBgYGBgYGBgYGBgYGBgYGBgYGBgYGBgc3RwNUAAAAAAAAAAAAAAAAAAAAAAAAAAAAAAAAAAAAAAAAAAAAAAAAAAAAAAAAAA
        AAAAAAAAAAAAAAAAAAAAAAAAAAAAAAAAcHJvZxICAABwcmdwIgAAABAgZAQBAQB/AH8AQAABAAEAAAAAAAAAAAB/AAAAAAAAAABwZ25tMAAAAFNlcSAyayBLcmFmdHdl
        cmszIChBK0MsIEYrQSkAAAAAJCq+X/9/AAD08NwVAQAAAHN0cDBAAAAAAAAAAAAA+wAAAPsAAAAAAAAAAAACAAAAAAAAAAAA+wAAAAAAAAAAAAAAAAAAAAAAAAAAAAAA
        AAAAAAAAAAAAAHN0cDFAAAAACAgICAgICAgICAgICAgICAgICAgICAgICAgICAgICAgICAgICAgICAgICAgICAgICAgICAgICAgICAgICAgICHN0cDJAAAAAAQAAAAEA
        AQABAAEAAAABAAEAAAABAAEAAAAAAAAAAQABAQEBAQEBAQEBAQEBAQEBAQEBAQEBAQEBAQEBAQEBAXN0cDNAAAAABAQEBAQEBAQEBAQEBAQEBAgEBAQEBAQEBAQEBAQE
        BAQEBAQEBAQEBAQEBAQEBAQEBAQEBAQEBAQEBAQEBAQEBHN0cDRAAAAAYGBgYGBgYGBgYGBgYGBgYGBgYGBgYGBgYGBgYGBgYGBgYGBgYGBgYGBgYGBgYGBgYGBgYGBg
        YGBgYGBgYGBgYHN0cDVAAAAAAAAAAAAAAAAAAAAAAAAAAAAAAAAAAAAAAAAAAAAAAAAAAAAAAAAAAAAAAAAAAAAAAAAAAAAAAAAAAAAAAAAAAHByb2cSAgAAcHJncCIA
        AAAQIGQEAQEAfwB/AEAAAQABAAAAAAAAAAAAfwAAAAAAAAAAcGdubTAAAABTZXEgMmsgS3JhZnR3ZXJrMyAoQStDLCBGK0EpAAAAACQqvl//fwAA9PDcFQEAAABzdHAw
        QAAAAAAAAAAAAPsAAAD7AAAAAAAAAAAAAgAAAAAAAAAAAPsAAAAAAAAAAAAAAAAAAAAAAAAAAAAAAAAAAAAAAAAAAABzdHAxQAAAAAgICAgICAgICAgICAgICAgICAgI
        CAgICAgICAgICAgICAgICAgICAgICAgICAgICAgICAgICAgICAgICAgICAhzdHAyQAAAAAEAAAABAAEAAQABAAAAAQABAAAAAQABAAAAAAAAAAEAAQEBAQEBAQEBAQEB
        AQEBAQEBAQEBAQEBAQEBAQEBAQFzdHAzQAAAAAQEBAQEBAQEBAQEBAQEBAQIBAQEBAQEBAQEBAQEBAQEBAQEBAQEBAQEBAQEBAQEBAQEBAQEBAQEBAQEBAQEBARzdHA0
        QAAAAGBgYGBgYGBgYGBgYGBgYGBgYGBgYGBgYGBgYGBgYGBgYGBgYGBgYGBgYGBgYGBgYGBgYGBgYGBgYGBgYGBgYGBzdHA1QAAAAAAAAAAAAAAAAAAAAAAAAAAAAAAA
        AAAAAAAAAAAAAAAAAAAAAAAAAAAAAAAAAAAAAAAAAAAAAAAAAAAAAAAAAABwcm9nEgIAAHByZ3AiAAAAECBkBAEBAH8AfwBAAAEAAQAAAAAAAAAAAH8AAAAAAAAAAHBn
        bm0wAAAAU2VxIDJrIEtyYWZ0d2VyazMgKEErQywgRitBKQAAAAAkKr5f/38AAPTw3BUBAAAAc3RwMEAAAAAAAAAAAAD7AAAA+wAAAAAAAAAAAAIAAAAAAAAAAAD7AAAA
        AAAAAAAAAAAAAAAAAAAAAAAAAAAAAAAAAAAAAAAAc3RwMUAAAAAICAgICAgICAgICAgICAgICAgICAgICAgICAgICAgICAgICAgICAgICAgICAgICAgICAgICAgICAgI
        CAgICAgIc3RwMkAAAAABAAAAAQABAAEAAQAAAAEAAQAAAAEAAQAAAAAAAAABAAEBAQEBAQEBAQEBAQEBAQEBAQEBAQEBAQEBAQEBAQEBc3RwM0AAAAAEBAQEBAQEBAQE
        BAQEBAQECAQEBAQEBAQEBAQEBAQEBAQEBAQEBAQEBAQEBAQEBAQEBAQEBAQEBAQEBAQEBAQEc3RwNEAAAABgYGBgYGBgYGBgYGBgYGBgYGBgYGBgYGBgYGBgYGBgYGBg
        YGBgYGBgYGBgYGBgYGBgYGBgYGBgYGBgYGBgYGBgc3RwNUAAAAAAAAAAAAAAAAAAAAAAAAAAAAAAAAAAAAAAAAAAAAAAAAAAAAAAAAAAAAAAAAAAAAAAAAAAAAAAAAAA
        AAAAAAAAcHJvZxICAABwcmdwIgAAABAgZAQBAQB/AH8AQAABAAEAAAAAAAAAAAB/AAAAAAAAAABwZ25tMAAAAFNlcSAyayBLcmFmdHdlcmszIChBK0MsIEYrQSkAAAAA
        JCq+X/9/AAD08NwVAQAAAHN0cDBAAAAAAAAAAAAA+wAAAPsAAAAAAAAAAAACAAAAAAAAAAAA+wAAAAAAAAAAAAAAAAAAAAAAAAAAAAAAAAAAAAAAAAAAAHN0cDFAAAAA
        CAgICAgICAgICAgICAgICAgICAgICAgICAgICAgICAgICAgICAgICAgICAgICAgICAgICAgICAgICAgICAgICHN0cDJAAAAAAQAAAAEAAQABAAEAAAABAAEAAAABAAEA
        AAAAAAAAAQABAQEBAQEBAQEBAQEBAQEBAQEBAQEBAQEBAQEBAQEBAXN0cDNAAAAABAQEBAQEBAQEBAQEBAQEBAgEBAQEBAQEBAQEBAQEBAQEBAQEBAQEBAQEBAQEBAQE
        BAQEBAQEBAQEBAQEBAQEBHN0cDRAAAAAYGBgYGBgYGBgYGBgYGBgYGBgYGBgYGBgYGBgYGBgYGBgYGBgYGBgYGBgYGBgYGBgYGBgYGBgYGBgYGBgYGBgYHN0cDVAAAAA
        AAAAAAAAAAAAAAAAAAAAAAAAAAAAAAAAAAAAAAAAAAAAAAAAAAAAAAAAAAAAAAAAAAAAAAAAAAAAAAAAAAAAAHByb2cSAgAAcHJncCIAAAAQIGQEAQEAfwB/AEAAAQAB
        AAAAAAAAAAAAfwAAAAAAAAAAcGdubTAAAABTZXEgMmsgS3JhZnR3ZXJrMyAoQStDLCBGK0EpAAAAACQqvl//fwAA9PDcFQEAAABzdHAwQAAAAAAAAAAAAPsAAAD7AAAA
        AAAAAAAAAgAAAAAAAAAAAPsAAAAAAAAAAAAAAAAAAAAAAAAAAAAAAAAAAAAAAAAAAABzdHAxQAAAAAgICAgICAgICAgICAgICAgICAgICAgICAgICAgICAgICAgICAgI
        CAgICAgICAgICAgICAgICAgICAgICAgICAhzdHAyQAAAAAEAAAABAAEAAQABAAAAAQABAAAAAQABAAAAAAAAAAEAAQEBAQEBAQEBAQEBAQEBAQEBAQEBAQEBAQEBAQEB
        AQFzdHAzQAAAAAQEBAQEBAQEBAQEBAQEBAQIBAQEBAQEBAQEBAQEBAQEBAQEBAQEBAQEBAQEBAQEBAQEBAQEBAQEBAQEBAQEBARzdHA0QAAAAGBgYGBgYGBgYGBgYGBg
        YGBgYGBgYGBgYGBgYGBgYGBgYGBgYGBgYGBgYGBgYGBgYGBgYGBgYGBgYGBgYGBgYGBzdHA1QAAAAAAAAAAAAAAAAAAAAAAAAAAAAAAAAAAAAAAAAAAAAAAAAAAAAAAA
        AAAAAAAAAAAAAAAAAAAAAAAAAAAAAAAAAABwcm9nEgIAAHByZ3AiAAAAECBkBAEBAH8AfwBAAAEAAQAAAAAAAAAAAH8AAAAAAAAAAHBnbm0wAAAAU2VxIDJrIEtyYWZ0
        d2VyazMgKEErQywgRitBKQAAAAAkKr5f/38AAPTw3BUBAAAAc3RwMEAAAAAAAAAAAAD7AAAA+wAAAAAAAAAAAAIAAAAAAAAAAAD7AAAAAAAAAAAAAAAAAAAAAAAAAAAA
        AAAAAAAAAAAAAAAAc3RwMUAAAAAICAgICAgICAgICAgICAgICAgICAgICAgICAgICAgICAgICAgICAgICAgICAgICAgICAgICAgICAgICAgICAgIc3RwMkAAAAABAAAA
        AQABAAEAAQAAAAEAAQAAAAEAAQAAAAAAAAABAAEBAQEBAQEBAQEBAQEBAQEBAQEBAQEBAQEBAQEBAQEBc3RwM0AAAAAEBAQEBAQEBAQEBAQEBAQECAQEBAQEBAQEBAQE
        BAQEBAQEBAQEBAQEBAQEBAQEBAQEBAQEBAQEBAQEBAQEBAQEc3RwNEAAAABgYGBgYGBgYGBgYGBgYGBgYGBgYGBgYGBgYGBgYGBgYGBgYGBgYGBgYGBgYGBgYGBgYGBg
        YGBgYGBgYGBgYGBgc3RwNUAAAAAAAAAAAAAAAAAAAAAAAAAAAAAAAAAAAAAAAAAAAAAAAAAAAAAAAAAAAAAAAAAAAAAAAAAAAAAAAAAAAAAAAAAAcHJvZxICAABwcmdw
        IgAAABAgZAQBAQB/AH8AQAABAAEAAAAAAAAAAAB/AAAAAAAAAABwZ25tMAAAAFNlcSAyayBLcmFmdHdlcmszIChBK0MsIEYrQSkAAAAAJCq+X/9/AAD08NwVAQAAAHN0
        cDBAAAAAAAAAAAAA+wAAAPsAAAAAAAAAAAACAAAAAAAAAAAA+wAAAAAAAAAAAAAAAAAAAAAAAAAAAAAAAAAAAAAAAAAAAHN0cDFAAAAACAgICAgICAgICAgICAgICAgI
        CAgICAgICAgICAgICAgICAgICAgICAgICAgICAgICAgICAgICAgICAgICAgICHN0cDJAAAAAAQAAAAEAAQABAAEAAAABAAEAAAABAAEAAAAAAAAAAQABAQEBAQEBAQEB
        AQEBAQEBAQEBAQEBAQEBAQEBAQEBAXN0cDNAAAAABAQEBAQEBAQEBAQEBAQEBAgEBAQEBAQEBAQEBAQEBAQEBAQEBAQEBAQEBAQEBAQEBAQEBAQEBAQEBAQEBAQEBHN0
        cDRAAAAAYGBgYGBgYGBgYGBgYGBgYGBgYGBgYGBgYGBgYGBgYGBgYGBgYGBgYGBgYGBgYGBgYGBgYGBgYGBgYGBgYGBgYHN0cDVAAAAAAAAAAAAAAAAAAAAAAAAAAAAA
        AAAAAAAAAAAAAAAAAAAAAAAAAAAAAAAAAAAAAAAAAAAAAAAAAAAAAAAAAAAAAHByb2cSAgAAcHJncCIAAAAQIGQEAQEAfwB/AEAAAQABAAAAAAAAAAAAfwAAAAAAAAAA
        cGdubTAAAABTZXEgMmsgS3JhZnR3ZXJrMyAoQStDLCBGK0EpAAAAACQqvl//fwAA9PDcFQEAAABzdHAwQAAAAAAAAAAAAPsAAAD7AAAAAAAAAAAAAgAAAAAAAAAAAPsA
        AAAAAAAAAAAAAAAAAAAAAAAAAAAAAAAAAAAAAAAAAABzdHAxQAAAAAgICAgICAgICAgICAgICAgICAgICAgICAgICAgICAgICAgICAgICAgICAgICAgICAgICAgICAgI
        CAgICAgICAhzdHAyQAAAAAEAAAABAAEAAQABAAAAAQABAAAAAQABAAAAAAAAAAEAAQEBAQEBAQEBAQEBAQEBAQEBAQEBAQEBAQEBAQEBAQFzdHAzQAAAAAQEBAQEBAQE
        BAQEBAQEBAQIBAQEBAQEBAQEBAQEBAQEBAQEBAQEBAQEBAQEBAQEBAQEBAQEBAQEBAQEBAQEBARzdHA0QAAAAGBgYGBgYGBgYGBgYGBgYGBgYGBgYGBgYGBgYGBgYGBg
        YGBgYGBgYGBgYGBgYGBgYGBgYGBgYGBgYGBgYGBgYGBzdHA1QAAAAAAAAAAAAAAAAAAAAAAAAAAAAAAAAAAAAAAAAAAAAAAAAAAAAAAAAAAAAAAAAAAAAAAAAAAAAAAA
        AAAAAAAAAABwcm9nEgIAAHByZ3AiAAAAECBkBAEBAH8AfwBAAAEAAQAAAAAAAAAAAH8AAAAAAAAAAHBnbm0wAAAAU2VxIDJrIEtyYWZ0d2VyazMgKEErQywgRitBKQAA
        AAAkKr5f/38AAPTw3BUBAAAAc3RwMEAAAAAAAAAAAAD7AAAA+wAAAAAAAAAAAAIAAAAAAAAAAAD7AAAAAAAAAAAAAAAAAAAAAAAAAAAAAAAAAAAAAAAAAAAAc3RwMUAA
        AAAICAgICAgICAgICAgICAgICAgICAgICAgICAgICAgICAgICAgICAgICAgICAgICAgICAgICAgICAgICAgICAgIc3RwMkAAAAABAAAAAQABAAEAAQAAAAEAAQAAAAEA
        AQAAAAAAAAABAAEBAQEBAQEBAQEBAQEBAQEBAQEBAQEBAQEBAQEBAQEBc3RwM0AAAAAEBAQEBAQEBAQEBAQEBAQECAQEBAQEBAQEBAQEBAQEBAQEBAQEBAQEBAQEBAQE
        BAQEBAQEBAQEBAQEBAQEBAQEc3RwNEAAAABgYGBgYGBgYGBgYGBgYGBgYGBgYGBgYGBgYGBgYGBgYGBgYGBgYGBgYGBgYGBgYGBgYGBgYGBgYGBgYGBgYGBgc3RwNUAA
        AAAAAAAAAAAAAAAAAAAAAAAAAAAAAAAAAAAAAAAAAAAAAAAAAAAAAAAAAAAAAAAAAAAAAAAAAAAAAAAAAAAAAAAAcHJvZxICAABwcmdwIgAAABAgZAQBAQB/AH8AQAAB
        AAEAAAAAAAAAAAB/AAAAAAAAAABwZ25tMAAAAFNlcSAyayBLcmFmdHdlcmszIChBK0MsIEYrQSkAAAAAJCq+X/9/AAD08NwVAQAAAHN0cDBAAAAAAAAAAAAA+wAAAPsA
        AAAAAAAAAAACAAAAAAAAAAAA+wAAAAAAAAAAAAAAAAAAAAAAAAAAAAAAAAAAAAAAAAAAAHN0cDFAAAAACAgICAgICAgICAgICAgICAgICAgICAgICAgICAgICAgICAgI
        CAgICAgICAgICAgICAgICAgICAgICAgICAgICHN0cDJAAAAAAQAAAAEAAQABAAEAAAABAAEAAAABAAEAAAAAAAAAAQABAQEBAQEBAQEBAQEBAQEBAQEBAQEBAQEBAQEB
        AQEBAXN0cDNAAAAABAQEBAQEBAQEBAQEBAQEBAgEBAQEBAQEBAQEBAQEBAQEBAQEBAQEBAQEBAQEBAQEBAQEBAQEBAQEBAQEBAQEBHN0cDRAAAAAYGBgYGBgYGBgYGBg
        YGBgYGBgYGBgYGBgYGBgYGBgYGBgYGBgYGBgYGBgYGBgYGBgYGBgYGBgYGBgYGBgYGBgYHN0cDVAAAAAAAAAAAAAAAAAAAAAAAAAAAAAAAAAAAAAAAAAAAAAAAAAAAAA
        AAAAAAAAAAAAAAAAAAAAAAAAAAAAAAAAAAAAAHByb2cSAgAAcHJncCIAAAAQIGQEAQEAfwB/AEAAAQABAAAAAAAAAAAAfwAAAAAAAAAAcGdubTAAAABTZXEgMmsgS3Jh
        ZnR3ZXJrMyAoQStDLCBGK0EpAAAAACQqvl//fwAA9PDcFQEAAABzdHAwQAAAAAAAAAAAAPsAAAD7AAAAAAAAAAAAAgAAAAAAAAAAAPsAAAAAAAAAAAAAAAAAAAAAAAAA
        AAAAAAAAAAAAAAAAAABzdHAxQAAAAAgICAgICAgICAgICAgICAgICAgICAgICAgICAgICAgICAgICAgICAgICAgICAgICAgICAgICAgICAgICAgICAhzdHAyQAAAAAEA
        AAABAAEAAQABAAAAAQABAAAAAQABAAAAAAAAAAEAAQEBAQEBAQEBAQEBAQEBAQEBAQEBAQEBAQEBAQEBAQFzdHAzQAAAAAQEBAQEBAQEBAQEBAQEBAQIBAQEBAQEBAQE
        BAQEBAQEBAQEBAQEBAQEBAQEBAQEBAQEBAQEBAQEBAQEBAQEBARzdHA0QAAAAGBgYGBgYGBgYGBgYGBgYGBgYGBgYGBgYGBgYGBgYGBgYGBgYGBgYGBgYGBgYGBgYGBg
        YGBgYGBgYGBgYGBgYGBzdHA1QAAAAAAAAAAAAAAAAAAAAAAAAAAAAAAAAAAAAAAAAAAAAAAAAAAAAAAAAAAAAAAAAAAAAAAAAAAAAAAAAAAAAAAAAABwcm9nEgIAAHBy
        Z3AiAAAAECBkBAEBAH8AfwBAAAEAAQAAAAAAAAAAAH8AAAAAAAAAAHBnbm0wAAAAU2VxIDJrIEtyYWZ0d2VyazMgKEErQywgRitBKQAAAAAkKr5f/38AAPTw3BUBAAAA
        c3RwMEAAAAAAAAAAAAD7AAAA+wAAAAAAAAAAAAIAAAAAAAAAAAD7AAAAAAAAAAAAAAAAAAAAAAAAAAAAAAAAAAAAAAAAAAAAc3RwMUAAAAAICAgICAgICAgICAgICAgI
        CAgICAgICAgICAgICAgICAgICAgICAgICAgICAgICAgICAgICAgICAgICAgICAgIc3RwMkAAAAABAAAAAQABAAEAAQAAAAEAAQAAAAEAAQAAAAAAAAABAAEBAQEBAQEB
        AQEBAQEBAQEBAQEBAQEBAQEBAQEBAQEBc3RwM0AAAAAEBAQEBAQEBAQEBAQEBAQECAQEBAQEBAQEBAQEBAQEBAQEBAQEBAQEBAQEBAQEBAQEBAQEBAQEBAQEBAQEBAQE
        c3RwNEAAAABgYGBgYGBgYGBgYGBgYGBgYGBgYGBgYGBgYGBgYGBgYGBgYGBgYGBgYGBgYGBgYGBgYGBgYGBgYGBgYGBgYGBgc3RwNUAAAAAAAAAAAAAAAAAAAAAAAAAA
        AAAAAAAAAAAAAAAAAAAAAAAAAAAAAAAAAAAAAAAAAAAAAAAAAAAAAAAAAAAAAAAAcHJvZxICAABwcmdwIgAAABAgZAQBAQB/AH8AQAABAAEAAAAAAAAAAAB/AAAAAAAA
        AABwZ25tMAAAAFNlcSAyayBLcmFmdHdlcmszIChBK0MsIEYrQSkAAAAAJCq+X/9/AAD08NwVAQAAAHN0cDBAAAAAAAAAAAAA+wAAAPsAAAAAAAAAAAACAAAAAAAAAAAA
        +wAAAAAAAAAAAAAAAAAAAAAAAAAAAAAAAAAAAAAAAAAAAHN0cDFAAAAACAgICAgICAgICAgICAgICAgICAgICAgICAgICAgICAgICAgICAgICAgICAgICAgICAgICAgI
        CAgICAgICAgICHN0cDJAAAAAAQAAAAEAAQABAAEAAAABAAEAAAABAAEAAAAAAAAAAQABAQEBAQEBAQEBAQEBAQEBAQEBAQEBAQEBAQEBAQEBAXN0cDNAAAAABAQEBAQE
        BAQEBAQEBAQEBAgEBAQEBAQEBAQEBAQEBAQEBAQEBAQEBAQEBAQEBAQEBAQEBAQEBAQEBAQEBAQEBHN0cDRAAAAAYGBgYGBgYGBgYGBgYGBgYGBgYGBgYGBgYGBgYGBg
        YGBgYGBgYGBgYGBgYGBgYGBgYGBgYGBgYGBgYGBgYGBgYHN0cDVAAAAAAAAAAAAAAAAAAAAAAAAAAAAAAAAAAAAAAAAAAAAAAAAAAAAAAAAAAAAAAAAAAAAAAAAAAAAA
        AAAAAAAAAAAAAHByb2cSAgAAcHJncCIAAAAQIGQEAQEAfwB/AEAAAQABAAAAAAAAAAAAfwAAAAAAAAAAcGdubTAAAABTZXEgMmsgS3JhZnR3ZXJrMyAoQStDLCBGK0Ep
        AAAAACQqvl//fwAA9PDcFQEAAABzdHAwQAAAAAAAAAAAAPsAAAD7AAAAAAAAAAAAAgAAAAAAAAAAAPsAAAAAAAAAAAAAAAAAAAAAAAAAAAAAAAAAAAAAAAAAAABzdHAx
        QAAAAAgICAgICAgICAgICAgICAgICAgICAgICAgICAgICAgICAgICAgICAgICAgICAgICAgICAgICAgICAgICAgICAhzdHAyQAAAAAEAAAABAAEAAQABAAAAAQABAAAA
        AQABAAAAAAAAAAEAAQEBAQEBAQEBAQEBAQEBAQEBAQEBAQEBAQEBAQEBAQFzdHAzQAAAAAQEBAQEBAQEBAQEBAQEBAQIBAQEBAQEBAQEBAQEBAQEBAQEBAQEBAQEBAQE
        BAQEBAQEBAQEBAQEBAQEBAQEBARzdHA0QAAAAGBgYGBgYGBgYGBgYGBgYGBgYGBgYGBgYGBgYGBgYGBgYGBgYGBgYGBgYGBgYGBgYGBgYGBgYGBgYGBgYGBgYGBzdHA1
        QAAAAAAAAAAAAAAAAAAAAAAAAAAAAAAAAAAAAAAAAAAAAAAAAAAAAAAAAAAAAAAAAAAAAAAAAAAAAAAAAAAAAAAAAABwcm9nEgIAAHByZ3AiAAAAECBkBAEBAH8AfwBA
        AAEAAQAAAAAAAAAAAH8AAAAAAAAAAHBnbm0wAAAAU2VxIDJrIEtyYWZ0d2VyazMgKEErQywgRitBKQAAAAAkKr5f/38AAPTw3BUBAAAAc3RwMEAAAAAAAAAAAAD7AAAA
        +wAAAAAAAAAAAAIAAAAAAAAAAAD7AAAAAAAAAAAAAAAAAAAAAAAAAAAAAAAAAAAAAAAAAAAAc3RwMUAAAAAICAgICAgICAgICAgICAgICAgICAgICAgICAgICAgICAgI
        CAgICAgICAgICAgICAgICAgICAgICAgICAgICAgIc3RwMkAAAAABAAAAAQABAAEAAQAAAAEAAQAAAAEAAQAAAAAAAAABAAEBAQEBAQEBAQEBAQEBAQEBAQEBAQEBAQEB
        AQEBAQEBc3RwM0AAAAAEBAQEBAQEBAQEBAQEBAQECAQEBAQEBAQEBAQEBAQEBAQEBAQEBAQEBAQEBAQEBAQEBAQEBAQEBAQEBAQEBAQEc3RwNEAAAABgYGBgYGBgYGBg
        YGBgYGBgYGBgYGBgYGBgYGBgYGBgYGBgYGBgYGBgYGBgYGBgYGBgYGBgYGBgYGBgYGBgYGBgc3RwNUAAAAAAAAAAAAAAAAAAAAAAAAAAAAAAAAAAAAAAAAAAAAAAAAAA
        AAAAAAAAAAAAAAAAAAAAAAAAAAAAAAAAAAAAAAAAcHJvZxICAABwcmdwIgAAABAgZAQBAQB/AH8AQAABAAEAAAAAAAAAAAB/AAAAAAAAAABwZ25tMAAAAFNlcSAyayBL
        cmFmdHdlcmszIChBK0MsIEYrQSkAAAAAJCq+X/9/AAD08NwVAQAAAHN0cDBAAAAAAAAAAAAA+wAAAPsAAAAAAAAAAAACAAAAAAAAAAAA+wAAAAAAAAAAAAAAAAAAAAAA
        AAAAAAAAAAAAAAAAAAAAAHN0cDFAAAAACAgICAgICAgICAgICAgICAgICAgICAgICAgICAgICAgICAgICAgICAgICAgICAgICAgICAgICAgICAgICAgICHN0cDJAAAAA
        AQAAAAEAAQABAAEAAAABAAEAAAABAAEAAAAAAAAAAQABAQEBAQEBAQEBAQEBAQEBAQEBAQEBAQEBAQEBAQEBAXN0cDNAAAAABAQEBAQEBAQEBAQEBAQEBAgEBAQEBAQE
        BAQEBAQEBAQEBAQEBAQEBAQEBAQEBAQEBAQEBAQEBAQEBAQEBAQEBHN0cDRAAAAAYGBgYGBgYGBgYGBgYGBgYGBgYGBgYGBgYGBgYGBgYGBgYGBgYGBgYGBgYGBgYGBg
        YGBgYGBgYGBgYGBgYGBgYHN0cDVAAAAAAAAAAAAAAAAAAAAAAAAAAAAAAAAAAAAAAAAAAAAAAAAAAAAAAAAAAAAAAAAAAAAAAAAAAAAAAAAAAAAAAAAAAHByb2cSAgAA
        cHJncCIAAAAQIGQEAQEAfwB/AEAAAQABAAAAAAAAAAAAfwAAAAAAAAAAcGdubTAAAABTZXEgMmsgS3JhZnR3ZXJrMyAoQStDLCBGK0EpAAAAACQqvl//fwAA9PDcFQEA
        AABzdHAwQAAAAAAAAAAAAPsAAAD7AAAAAAAAAAAAAgAAAAAAAAAAAPsAAAAAAAAAAAAAAAAAAAAAAAAAAAAAAAAAAAAAAAAAAABzdHAxQAAAAAgICAgICAgICAgICAgI
        CAgICAgICAgICAgICAgICAgICAgICAgICAgICAgICAgICAgICAgICAgICAgICAgICAhzdHAyQAAAAAEAAAABAAEAAQABAAAAAQABAAAAAQABAAAAAAAAAAEAAQEBAQEB
        AQEBAQEBAQEBAQEBAQEBAQEBAQEBAQEBAQFzdHAzQAAAAAQEBAQEBAQEBAQEBAQEBAQIBAQEBAQEBAQEBAQEBAQEBAQEBAQEBAQEBAQEBAQEBAQEBAQEBAQEBAQEBAQE
        BARzdHA0QAAAAGBgYGBgYGBgYGBgYGBgYGBgYGBgYGBgYGBgYGBgYGBgYGBgYGBgYGBgYGBgYGBgYGBgYGBgYGBgYGBgYGBgYGBzdHA1QAAAAAAAAAAAAAAAAAAAAAAA
        AAAAAAAAAAAAAAAAAAAAAAAAAAAAAAAAAAAAAAAAAAAAAAAAAAAAAAAAAAAAAAAAAABwcm9nEgIAAHByZ3AiAAAAECBkBAEBAH8AfwBAAAEAAQAAAAAAAAAAAH8AAAAA
        AAAAAHBnbm0wAAAAU2VxIDJrIEtyYWZ0d2VyazMgKEErQywgRitBKQAAAAAkKr5f/38AAPTw3BUBAAAAc3RwMEAAAAAAAAAAAAD7AAAA+wAAAAAAAAAAAAIAAAAAAAAA
        AAD7AAAAAAAAAAAAAAAAAAAAAAAAAAAAAAAAAAAAAAAAAAAAc3RwMUAAAAAICAgICAgICAgICAgICAgICAgICAgICAgICAgICAgICAgICAgICAgICAgICAgICAgICAgI
        CAgICAgICAgICAgIc3RwMkAAAAABAAAAAQABAAEAAQAAAAEAAQAAAAEAAQAAAAAAAAABAAEBAQEBAQEBAQEBAQEBAQEBAQEBAQEBAQEBAQEBAQEBc3RwM0AAAAAEBAQE
        BAQEBAQEBAQEBAQECAQEBAQEBAQEBAQEBAQEBAQEBAQEBAQEBAQEBAQEBAQEBAQEBAQEBAQEBAQEBAQEc3RwNEAAAABgYGBgYGBgYGBgYGBgYGBgYGBgYGBgYGBgYGBg
        YGBgYGBgYGBgYGBgYGBgYGBgYGBgYGBgYGBgYGBgYGBgYGBgc3RwNUAAAAAAAAAAAAAAAAAAAAAAAAAAAAAAAAAAAAAAAAAAAAAAAAAAAAAAAAAAAAAAAAAAAAAAAAAA
        AAAAAAAAAAAAAAAAcHJvZxICAABwcmdwIgAAABAgZAQBAQB/AH8AQAABAAEAAAAAAAAAAAB/AAAAAAAAAABwZ25tMAAAAFNlcSAyayBLcmFmdHdlcmszIChBK0MsIEYr
        QSkAAAAAJCq+X/9/AAD08NwVAQAAAHN0cDBAAAAAAAAAAAAA+wAAAPsAAAAAAAAAAAACAAAAAAAAAAAA+wAAAAAAAAAAAAAAAAAAAAAAAAAAAAAAAAAAAAAAAAAAAHN0
        cDFAAAAACAgICAgICAgICAgICAgICAgICAgICAgICAgICAgICAgICAgICAgICAgICAgICAgICAgICAgICAgICAgICAgICHN0cDJAAAAAAQAAAAEAAQABAAEAAAABAAEA
        AAABAAEAAAAAAAAAAQABAQEBAQEBAQEBAQEBAQEBAQEBAQEBAQEBAQEBAQEBAXN0cDNAAAAABAQEBAQEBAQEBAQEBAQEBAgEBAQEBAQEBAQEBAQEBAQEBAQEBAQEBAQE
        BAQEBAQEBAQEBAQEBAQEBAQEBAQEBHN0cDRAAAAAYGBgYGBgYGBgYGBgYGBgYGBgYGBgYGBgYGBgYGBgYGBgYGBgYGBgYGBgYGBgYGBgYGBgYGBgYGBgYGBgYGBgYHN0
        cDVAAAAAAAAAAAAAAAAAAAAAAAAAAAAAAAAAAAAAAAAAAAAAAAAAAAAAAAAAAAAAAAAAAAAAAAAAAAAAAAAAAAAAAAAAAHByb2cSAgAAcHJncCIAAAAQIGQEAQEAfwB/
        AEAAAQABAAAAAAAAAAAAfwAAAAAAAAAAcGdubTAAAABTZXEgMmsgS3JhZnR3ZXJrMyAoQStDLCBGK0EpAAAAACQqvl//fwAA9PDcFQEAAABzdHAwQAAAAAAAAAAAAPsA
        AAD7AAAAAAAAAAAAAgAAAAAAAAAAAPsAAAAAAAAAAAAAAAAAAAAAAAAAAAAAAAAAAAAAAAAAAABzdHAxQAAAAAgICAgICAgICAgICAgICAgICAgICAgICAgICAgICAgI
        CAgICAgICAgICAgICAgICAgICAgICAgICAgICAgICAhzdHAyQAAAAAEAAAABAAEAAQABAAAAAQABAAAAAQABAAAAAAAAAAEAAQEBAQEBAQEBAQEBAQEBAQEBAQEBAQEB
        AQEBAQEBAQFzdHAzQAAAAAQEBAQEBAQEBAQEBAQEBAQIBAQEBAQEBAQEBAQEBAQEBAQEBAQEBAQEBAQEBAQEBAQEBAQEBAQEBAQEBAQEBARzdHA0QAAAAGBgYGBgYGBg
        YGBgYGBgYGBgYGBgYGBgYGBgYGBgYGBgYGBgYGBgYGBgYGBgYGBgYGBgYGBgYGBgYGBgYGBgYGBzdHA1QAAAAAAAAAAAAAAAAAAAAAAAAAAAAAAAAAAAAAAAAAAAAAAA
        AAAAAAAAAAAAAAAAAAAAAAAAAAAAAAAAAAAAAAAAAABwcm9nEgIAAHByZ3AiAAAAECBkBAEBAH8AfwBAAAEAAQAAAAAAAAAAAH8AAAAAAAAAAHBnbm0wAAAAU2VxIDJr
        IEtyYWZ0d2VyazMgKEErQywgRitBKQAAAAAkKr5f/38AAPTw3BUBAAAAc3RwMEAAAAAAAAAAAAD7AAAA+wAAAAAAAAAAAAIAAAAAAAAAAAD7AAAAAAAAAAAAAAAAAAAA
        AAAAAAAAAAAAAAAAAAAAAAAAc3RwMUAAAAAICAgICAgICAgICAgICAgICAgICAgICAgICAgICAgICAgICAgICAgICAgICAgICAgICAgICAgICAgICAgICAgIc3RwMkAA
        AAABAAAAAQABAAEAAQAAAAEAAQAAAAEAAQAAAAAAAAABAAEBAQEBAQEBAQEBAQEBAQEBAQEBAQEBAQEBAQEBAQEBc3RwM0AAAAAEBAQEBAQEBAQEBAQEBAQECAQEBAQE
        BAQEBAQEBAQEBAQEBAQEBAQEBAQEBAQEBAQEBAQEBAQEBAQEBAQEBAQEc3RwNEAAAABgYGBgYGBgYGBgYGBgYGBgYGBgYGBgYGBgYGBgYGBgYGBgYGBgYGBgYGBgYGBg
        YGBgYGBgYGBgYGBgYGBgYGBgc3RwNUAAAAAAAAAAAAAAAAAAAAAAAAAAAAAAAAAAAAAAAAAAAAAAAAAAAAAAAAAAAAAAAAAAAAAAAAAAAAAAAAAAAAAAAAAAcHJvZxIC
        AABwcmdwIgAAABAgZAQBAQB/AH8AQAABAAEAAAAAAAAAAAB/AAAAAAAAAABwZ25tMAAAAFNlcSAyayBLcmFmdHdlcmszIChBK0MsIEYrQSkAAAAAJCq+X/9/AAD08NwV
        AQAAAHN0cDBAAAAAAAAAAAAA+wAAAPsAAAAAAAAAAAACAAAAAAAAAAAA+wAAAAAAAAAAAAAAAAAAAAAAAAAAAAAAAAAAAAAAAAAAAHN0cDFAAAAACAgICAgICAgICAgI
        CAgICAgICAgICAgICAgICAgICAgICAgICAgICAgICAgICAgICAgICAgICAgICAgICAgICHN0cDJAAAAAAQAAAAEAAQABAAEAAAABAAEAAAABAAEAAAAAAAAAAQABAQEB
        AQEBAQEBAQEBAQEBAQEBAQEBAQEBAQEBAQEBAXN0cDNAAAAABAQEBAQEBAQEBAQEBAQEBAgEBAQEBAQEBAQEBAQEBAQEBAQEBAQEBAQEBAQEBAQEBAQEBAQEBAQEBAQE
        BAQEBHN0cDRAAAAAYGBgYGBgYGBgYGBgYGBgYGBgYGBgYGBgYGBgYGBgYGBgYGBgYGBgYGBgYGBgYGBgYGBgYGBgYGBgYGBgYGBgYHN0cDVAAAAAAAAAAAAAAAAAAAAA
        AAAAAAAAAAAAAAAAAAAAAAAAAAAAAAAAAAAAAAAAAAAAAAAAAAAAAAAAAAAAAAAAAAAAAHByb2cSAgAAcHJncCIAAAAQIGQEAQEAfwB/AEAAAQABAAAAAAAAAAAAfwAA
        AAAAAAAAcGdubTAAAABTZXEgMmsgS3JhZnR3ZXJrMyAoQStDLCBGK0EpAAAAACQqvl//fwAA9PDcFQEAAABzdHAwQAAAAAAAAAAAAPsAAAD7AAAAAAAAAAAAAgAAAAAA
        AAAAAPsAAAAAAAAAAAAAAAAAAAAAAAAAAAAAAAAAAAAAAAAAAABzdHAxQAAAAAgICAgICAgICAgICAgICAgICAgICAgICAgICAgICAgICAgICAgICAgICAgICAgICAgI
        CAgICAgICAgICAgICAhzdHAyQAAAAAEAAAABAAEAAQABAAAAAQABAAAAAQABAAAAAAAAAAEAAQEBAQEBAQEBAQEBAQEBAQEBAQEBAQEBAQEBAQEBAQFzdHAzQAAAAAQE
        BAQEBAQEBAQEBAQEBAQIBAQEBAQEBAQEBAQEBAQEBAQEBAQEBAQEBAQEBAQEBAQEBAQEBAQEBAQEBAQEBARzdHA0QAAAAGBgYGBgYGBgYGBgYGBgYGBgYGBgYGBgYGBg
        YGBgYGBgYGBgYGBgYGBgYGBgYGBgYGBgYGBgYGBgYGBgYGBgYGBzdHA1QAAAAAAAAAAAAAAAAAAAAAAAAAAAAAAAAAAAAAAAAAAAAAAAAAAAAAAAAAAAAAAAAAAAAAAA
        AAAAAAAAAAAAAAAAAABwcm9nEgIAAHByZ3AiAAAAECBkBAEBAH8AfwBAAAEAAQAAAAAAAAAAAH8AAAAAAAAAAHBnbm0wAAAAU2VxIDJrIEtyYWZ0d2VyazMgKEErQywg
        RitBKQAAAAAkKr5f/38AAPTw3BUBAAAAc3RwMEAAAAAAAAAAAAD7AAAA+wAAAAAAAAAAAAIAAAAAAAAAAAD7AAAAAAAAAAAAAAAAAAAAAAAAAAAAAAAAAAAAAAAAAAAA
        c3RwMUAAAAAICAgICAgICAgICAgICAgICAgICAgICAgICAgICAgICAgICAgICAgICAgICAgICAgICAgICAgICAgICAgICAgIc3RwMkAAAAABAAAAAQABAAEAAQAAAAEA
        AQAAAAEAAQAAAAAAAAABAAEBAQEBAQEBAQEBAQEBAQEBAQEBAQEBAQEBAQEBAQEBc3RwM0AAAAAEBAQEBAQEBAQEBAQEBAQECAQEBAQEBAQEBAQEBAQEBAQEBAQEBAQE
        BAQEBAQEBAQEBAQEBAQEBAQEBAQEBAQEc3RwNEAAAABgYGBgYGBgYGBgYGBgYGBgYGBgYGBgYGBgYGBgYGBgYGBgYGBgYGBgYGBgYGBgYGBgYGBgYGBgYGBgYGBgYGBg
        c3RwNUAAAAAAAAAAAAAAAAAAAAAAAAAAAAAAAAAAAAAAAAAAAAAAAAAAAAAAAAAAAAAAAAAAAAAAAAAAAAAAAAAAAAAAAAAAcHJvZxICAABwcmdwIgAAABAgZAQBAQB/
        AH8AQAABAAEAAAAAAAAAAAB/AAAAAAAAAABwZ25tMAAAAFNlcSAyayBLcmFmdHdlcmszIChBK0MsIEYrQSkAAAAAJCq+X/9/AAD08NwVAQAAAHN0cDBAAAAAAAAAAAAA
        +wAAAPsAAAAAAAAAAAACAAAAAAAAAAAA+wAAAAAAAAAAAAAAAAAAAAAAAAAAAAAAAAAAAAAAAAAAAHN0cDFAAAAACAgICAgICAgICAgICAgICAgICAgICAgICAgICAgI
        CAgICAgICAgICAgICAgICAgICAgICAgICAgICAgICAgICHN0cDJAAAAAAQAAAAEAAQABAAEAAAABAAEAAAABAAEAAAAAAAAAAQABAQEBAQEBAQEBAQEBAQEBAQEBAQEB
        AQEBAQEBAQEBAXN0cDNAAAAABAQEBAQEBAQEBAQEBAQEBAgEBAQEBAQEBAQEBAQEBAQEBAQEBAQEBAQEBAQEBAQEBAQEBAQEBAQEBAQEBAQEBHN0cDRAAAAAYGBgYGBg
        YGBgYGBgYGBgYGBgYGBgYGBgYGBgYGBgYGBgYGBgYGBgYGBgYGBgYGBgYGBgYGBgYGBgYGBgYGBgYHN0cDVAAAAAAAAAAAAAAAAAAAAAAAAAAAAAAAAAAAAAAAAAAAAA
        AAAAAAAAAAAAAAAAAAAAAAAAAAAAAAAAAAAAAAAAAAAAAHByb2cSAgAAcHJncCIAAAAQIGQEAQEAfwB/AEAAAQABAAAAAAAAAAAAfwAAAAAAAAAAcGdubTAAAABTZXEg
        MmsgS3JhZnR3ZXJrMyAoQStDLCBGK0EpAAAAACQqvl//fwAA9PDcFQEAAABzdHAwQAAAAAAAAAAAAPsAAAD7AAAAAAAAAAAAAgAAAAAAAAAAAPsAAAAAAAAAAAAAAAAA
        AAAAAAAAAAAAAAAAAAAAAAAAAABzdHAxQAAAAAgICAgICAgICAgICAgICAgICAgICAgICAgICAgICAgICAgICAgICAgICAgICAgICAgICAgICAgICAgICAgICAhzdHAy
        QAAAAAEAAAABAAEAAQABAAAAAQABAAAAAQABAAAAAAAAAAEAAQEBAQEBAQEBAQEBAQEBAQEBAQEBAQEBAQEBAQEBAQFzdHAzQAAAAAQEBAQEBAQEBAQEBAQEBAQIBAQE
        BAQEBAQEBAQEBAQEBAQEBAQEBAQEBAQEBAQEBAQEBAQEBAQEBAQEBAQEBARzdHA0QAAAAGBgYGBgYGBgYGBgYGBgYGBgYGBgYGBgYGBgYGBgYGBgYGBgYGBgYGBgYGBg
        YGBgYGBgYGBgYGBgYGBgYGBgYGBzdHA1QAAAAAAAAAAAAAAAAAAAAAAAAAAAAAAAAAAAAAAAAAAAAAAAAAAAAAAAAAAAAAAAAAAAAAAAAAAAAAAAAAAAAAAAAABwcm9n
        EgIAAHByZ3AiAAAAECBkBAEBAH8AfwBAAAEAAQAAAAAAAAAAAH8AAAAAAAAAAHBnbm0wAAAAU2VxIDJrIEtyYWZ0d2VyazMgKEErQywgRitBKQAAAAAkKr5f/38AAPTw
        3BUBAAAAc3RwMEAAAAAAAAAAAAD7AAAA+wAAAAAAAAAAAAIAAAAAAAAAAAD7AAAAAAAAAAAAAAAAAAAAAAAAAAAAAAAAAAAAAAAAAAAAc3RwMUAAAAAICAgICAgICAgI
        CAgICAgICAgICAgICAgICAgICAgICAgICAgICAgICAgICAgICAgICAgICAgICAgICAgICAgIc3RwMkAAAAABAAAAAQABAAEAAQAAAAEAAQAAAAEAAQAAAAAAAAABAAEB
        AQEBAQEBAQEBAQEBAQEBAQEBAQEBAQEBAQEBAQEBc3RwM0AAAAAEBAQEBAQEBAQEBAQEBAQECAQEBAQEBAQEBAQEBAQEBAQEBAQEBAQEBAQEBAQEBAQEBAQEBAQEBAQE
        BAQEBAQEc3RwNEAAAABgYGBgYGBgYGBgYGBgYGBgYGBgYGBgYGBgYGBgYGBgYGBgYGBgYGBgYGBgYGBgYGBgYGBgYGBgYGBgYGBgYGBgc3RwNUAAAAAAAAAAAAAAAAAA
        AAAAAAAAAAAAAAAAAAAAAAAAAAAAAAAAAAAAAAAAAAAAAAAAAAAAAAAAAAAAAAAAAAAAAAAAcHJvZxICAABwcmdwIgAAABAgZAQBAQB/AH8AQAABAAEAAAAAAAAAAAB/
        AAAAAAAAAABwZ25tMAAAAFNlcSAyayBLcmFmdHdlcmszIChBK0MsIEYrQSkAAAAAJCq+X/9/AAD08NwVAQAAAHN0cDBAAAAAAAAAAAAA+wAAAPsAAAAAAAAAAAACAAAA
        AAAAAAAA+wAAAAAAAAAAAAAAAAAAAAAAAAAAAAAAAAAAAAAAAAAAAHN0cDFAAAAACAgICAgICAgICAgICAgICAgICAgICAgICAgICAgICAgICAgICAgICAgICAgICAgI
        CAgICAgICAgICAgICAgICHN0cDJAAAAAAQAAAAEAAQABAAEAAAABAAEAAAABAAEAAAAAAAAAAQABAQEBAQEBAQEBAQEBAQEBAQEBAQEBAQEBAQEBAQEBAXN0cDNAAAAA
        BAQEBAQEBAQEBAQEBAQEBAgEBAQEBAQEBAQEBAQEBAQEBAQEBAQEBAQEBAQEBAQEBAQEBAQEBAQEBAQEBAQEBHN0cDRAAAAAYGBgYGBgYGBgYGBgYGBgYGBgYGBgYGBg
        YGBgYGBgYGBgYGBgYGBgYGBgYGBgYGBgYGBgYGBgYGBgYGBgYGBgYHN0cDVAAAAAAAAAAAAAAAAAAAAAAAAAAAAAAAAAAAAAAAAAAAAAAAAAAAAAAAAAAAAAAAAAAAAA
        AAAAAAAAAAAAAAAAAAAAAHByb2cSAgAAcHJncCIAAAAQIGQEAQEAfwB/AEAAAQABAAAAAAAAAAAAfwAAAAAAAAAAcGdubTAAAABTZXEgMmsgS3JhZnR3ZXJrMyAoQStD
        LCBGK0EpAAAAACQqvl//fwAA9PDcFQEAAABzdHAwQAAAAAAAAAAAAPsAAAD7AAAAAAAAAAAAAgAAAAAAAAAAAPsAAAAAAAAAAAAAAAAAAAAAAAAAAAAAAAAAAAAAAAAA
        AABzdHAxQAAAAAgICAgICAgICAgICAgICAgICAgICAgICAgICAgICAgICAgICAgICAgICAgICAgICAgICAgICAgICAgICAgICAhzdHAyQAAAAAEAAAABAAEAAQABAAAA
        AQABAAAAAQABAAAAAAAAAAEAAQEBAQEBAQEBAQEBAQEBAQEBAQEBAQEBAQEBAQEBAQFzdHAzQAAAAAQEBAQEBAQEBAQEBAQEBAQIBAQEBAQEBAQEBAQEBAQEBAQEBAQE
        BAQEBAQEBAQEBAQEBAQEBAQEBAQEBAQEBARzdHA0QAAAAGBgYGBgYGBgYGBgYGBgYGBgYGBgYGBgYGBgYGBgYGBgYGBgYGBgYGBgYGBgYGBgYGBgYGBgYGBgYGBgYGBg
        YGBzdHA1QAAAAAAAAAAAAAAAAAAAAAAAAAAAAAAAAAAAAAAAAAAAAAAAAAAAAAAAAAAAAAAAAAAAAAAAAAAAAAAAAAAAAAAAAABwcm9nEgIAAHByZ3AiAAAAECBkBAEB
        AH8AfwBAAAEAAQAAAAAAAAAAAH8AAAAAAAAAAHBnbm0wAAAAU2VxIDJrIEtyYWZ0d2VyazMgKEErQywgRitBKQAAAAAkKr5f/38AAPTw3BUBAAAAc3RwMEAAAAAAAAAA
        AAD7AAAA+wAAAAAAAAAAAAIAAAAAAAAAAAD7AAAAAAAAAAAAAAAAAAAAAAAAAAAAAAAAAAAAAAAAAAAAc3RwMUAAAAAICAgICAgICAgICAgICAgICAgICAgICAgICAgI
        CAgICAgICAgICAgICAgICAgICAgICAgICAgICAgICAgICAgIc3RwMkAAAAABAAAAAQABAAEAAQAAAAEAAQAAAAEAAQAAAAAAAAABAAEBAQEBAQEBAQEBAQEBAQEBAQEB
        AQEBAQEBAQEBAQEBc3RwM0AAAAAEBAQEBAQEBAQEBAQEBAQECAQEBAQEBAQEBAQEBAQEBAQEBAQEBAQEBAQEBAQEBAQEBAQEBAQEBAQEBAQEBAQEc3RwNEAAAABgYGBg
        YGBgYGBgYGBgYGBgYGBgYGBgYGBgYGBgYGBgYGBgYGBgYGBgYGBgYGBgYGBgYGBgYGBgYGBgYGBgYGBgc3RwNUAAAAAAAAAAAAAAAAAAAAAAAAAAAAAAAAAAAAAAAAAA
        AAAAAAAAAAAAAAAAAAAAAAAAAAAAAAAAAAAAAAAAAAAAAAAAcHJvZxICAABwcmdwIgAAABAgZAQBAQB/AH8AQAABAAEAAAAAAAAAAAB/AAAAAAAAAABwZ25tMAAAAFNl
        cSAyayBLcmFmdHdlcmszIChBK0MsIEYrQSkAAAAAJCq+X/9/AAD08NwVAQAAAHN0cDBAAAAAAAAAAAAA+wAAAPsAAAAAAAAAAAACAAAAAAAAAAAA+wAAAAAAAAAAAAAA
        AAAAAAAAAAAAAAAAAAAAAAAAAAAAAHN0cDFAAAAACAgICAgICAgICAgICAgICAgICAgICAgICAgICAgICAgICAgICAgICAgICAgICAgICAgICAgICAgICAgICAgICHN0
        cDJAAAAAAQAAAAEAAQABAAEAAAABAAEAAAABAAEAAAAAAAAAAQABAQEBAQEBAQEBAQEBAQEBAQEBAQEBAQEBAQEBAQEBAXN0cDNAAAAABAQEBAQEBAQEBAQEBAQEBAgE
        BAQEBAQEBAQEBAQEBAQEBAQEBAQEBAQEBAQEBAQEBAQEBAQEBAQEBAQEBAQEBHN0cDRAAAAAYGBgYGBgYGBgYGBgYGBgYGBgYGBgYGBgYGBgYGBgYGBgYGBgYGBgYGBg
        YGBgYGBgYGBgYGBgYGBgYGBgYGBgYHN0cDVAAAAAAAAAAAAAAAAAAAAAAAAAAAAAAAAAAAAAAAAAAAAAAAAAAAAAAAAAAAAAAAAAAAAAAAAAAAAAAAAAAAAAAAAAAHBy
        b2cSAgAAcHJncCIAAAAQIGQEAQEAfwB/AEAAAQABAAAAAAAAAAAAfwAAAAAAAAAAcGdubTAAAABTZXEgMmsgS3JhZnR3ZXJrMyAoQStDLCBGK0EpAAAAACQqvl//fwAA
        9PDcFQEAAABzdHAwQAAAAAAAAAAAAPsAAAD7AAAAAAAAAAAAAgAAAAAAAAAAAPsAAAAAAAAAAAAAAAAAAAAAAAAAAAAAAAAAAAAAAAAAAABzdHAxQAAAAAgICAgICAgI
        CAgICAgICAgICAgICAgICAgICAgICAgICAgICAgICAgICAgICAgICAgICAgICAgICAgICAgICAhzdHAyQAAAAAEAAAABAAEAAQABAAAAAQABAAAAAQABAAAAAAAAAAEA
        AQEBAQEBAQEBAQEBAQEBAQEBAQEBAQEBAQEBAQEBAQFzdHAzQAAAAAQEBAQEBAQEBAQEBAQEBAQIBAQEBAQEBAQEBAQEBAQEBAQEBAQEBAQEBAQEBAQEBAQEBAQEBAQE
        BAQEBAQEBARzdHA0QAAAAGBgYGBgYGBgYGBgYGBgYGBgYGBgYGBgYGBgYGBgYGBgYGBgYGBgYGBgYGBgYGBgYGBgYGBgYGBgYGBgYGBgYGBzdHA1QAAAAAAAAAAAAAAA
        AAAAAAAAAAAAAAAAAAAAAAAAAAAAAAAAAAAAAAAAAAAAAAAAAAAAAAAAAAAAAAAAAAAAAAAAAABwcm9nEgIAAHByZ3AiAAAAECBkBAEBAH8AfwBAAAEAAQAAAAAAAAAA
        AH8AAAAAAAAAAHBnbm0wAAAAU2VxIDJrIEtyYWZ0d2VyazMgKEErQywgRitBKQAAAAAkKr5f/38AAPTw3BUBAAAAc3RwMEAAAAAAAAAAAAD7AAAA+wAAAAAAAAAAAAIA
        AAAAAAAAAAD7AAAAAAAAAAAAAAAAAAAAAAAAAAAAAAAAAAAAAAAAAAAAc3RwMUAAAAAICAgICAgICAgICAgICAgICAgICAgICAgICAgICAgICAgICAgICAgICAgICAgI
        CAgICAgICAgICAgICAgICAgIc3RwMkAAAAABAAAAAQABAAEAAQAAAAEAAQAAAAEAAQAAAAAAAAABAAEBAQEBAQEBAQEBAQEBAQEBAQEBAQEBAQEBAQEBAQEBc3RwM0AA
        AAAEBAQEBAQEBAQEBAQEBAQECAQEBAQEBAQEBAQEBAQEBAQEBAQEBAQEBAQEBAQEBAQEBAQEBAQEBAQEBAQEBAQEc3RwNEAAAABgYGBgYGBgYGBgYGBgYGBgYGBgYGBg
        YGBgYGBgYGBgYGBgYGBgYGBgYGBgYGBgYGBgYGBgYGBgYGBgYGBgYGBgc3RwNUAAAAAAAAAAAAAAAAAAAAAAAAAAAAAAAAAAAAAAAAAAAAAAAAAAAAAAAAAAAAAAAAAA
        AAAAAAAAAAAAAAAAAAAAAAAAcHJvZxICAABwcmdwIgAAABAgZAQBAQB/AH8AQAABAAEAAAAAAAAAAAB/AAAAAAAAAABwZ25tMAAAAFNlcSAyayBLcmFmdHdlcmszIChB
        K0MsIEYrQSkAAAAAJCq+X/9/AAD08NwVAQAAAHN0cDBAAAAAAAAAAAAA+wAAAPsAAAAAAAAAAAACAAAAAAAAAAAA+wAAAAAAAAAAAAAAAAAAAAAAAAAAAAAAAAAAAAAA
        AAAAAHN0cDFAAAAACAgICAgICAgICAgICAgICAgICAgICAgICAgICAgICAgICAgICAgICAgICAgICAgICAgICAgICAgICAgICAgICHN0cDJAAAAAAQAAAAEAAQABAAEA
        AAABAAEAAAABAAEAAAAAAAAAAQABAQEBAQEBAQEBAQEBAQEBAQEBAQEBAQEBAQEBAQEBAXN0cDNAAAAABAQEBAQEBAQEBAQEBAQEBAgEBAQEBAQEBAQEBAQEBAQEBAQE
        BAQEBAQEBAQEBAQEBAQEBAQEBAQEBAQEBAQEBHN0cDRAAAAAYGBgYGBgYGBgYGBgYGBgYGBgYGBgYGBgYGBgYGBgYGBgYGBgYGBgYGBgYGBgYGBgYGBgYGBgYGBgYGBg
        YGBgYHN0cDVAAAAAAAAAAAAAAAAAAAAAAAAAAAAAAAAAAAAAAAAAAAAAAAAAAAAAAAAAAAAAAAAAAAAAAAAAAAAAAAAAAAAAAAAAAHByb2cSAgAAcHJncCIAAAAQIGQE
        AQEAfwB/AEAAAQABAAAAAAAAAAAAfwAAAAAAAAAAcGdubTAAAABTZXEgMmsgS3JhZnR3ZXJrMyAoQStDLCBGK0EpAAAAACQqvl//fwAA9PDcFQEAAABzdHAwQAAAAAAA
        AAAAAPsAAAD7AAAAAAAAAAAAAgAAAAAAAAAAAPsAAAAAAAAAAAAAAAAAAAAAAAAAAAAAAAAAAAAAAAAAAABzdHAxQAAAAAgICAgICAgICAgICAgICAgICAgICAgICAgI
        CAgICAgICAgICAgICAgICAgICAgICAgICAgICAgICAgICAgICAhzdHAyQAAAAAEAAAABAAEAAQABAAAAAQABAAAAAQABAAAAAAAAAAEAAQEBAQEBAQEBAQEBAQEBAQEB
        AQEBAQEBAQEBAQEBAQFzdHAzQAAAAAQEBAQEBAQEBAQEBAQEBAQIBAQEBAQEBAQEBAQEBAQEBAQEBAQEBAQEBAQEBAQEBAQEBAQEBAQEBAQEBAQEBARzdHA0QAAAAGBg
        YGBgYGBgYGBgYGBgYGBgYGBgYGBgYGBgYGBgYGBgYGBgYGBgYGBgYGBgYGBgYGBgYGBgYGBgYGBgYGBgYGBzdHA1QAAAAAAAAAAAAAAAAAAAAAAAAAAAAAAAAAAAAAAA
        AAAAAAAAAAAAAAAAAAAAAAAAAAAAAAAAAAAAAAAAAAAAAAAAAABwcm9nEgIAAHByZ3AiAAAAECBkBAEBAH8AfwBAAAEAAQAAAAAAAAAAAH8AAAAAAAAAAHBnbm0wAAAA
        U2VxIDJrIEtyYWZ0d2VyazMgKEErQywgRitBKQAAAAAkKr5f/38AAPTw3BUBAAAAc3RwMEAAAAAAAAAAAAD7AAAA+wAAAAAAAAAAAAIAAAAAAAAAAAD7AAAAAAAAAAAA
        AAAAAAAAAAAAAAAAAAAAAAAAAAAAAAAAc3RwMUAAAAAICAgICAgICAgICAgICAgICAgICAgICAgICAgICAgICAgICAgICAgICAgICAgICAgICAgICAgICAgICAgICAgI
        c3RwMkAAAAABAAAAAQABAAEAAQAAAAEAAQAAAAEAAQAAAAAAAAABAAEBAQEBAQEBAQEBAQEBAQEBAQEBAQEBAQEBAQEBAQEBc3RwM0AAAAAEBAQEBAQEBAQEBAQEBAQE
        CAQEBAQEBAQEBAQEBAQEBAQEBAQEBAQEBAQEBAQEBAQEBAQEBAQEBAQEBAQEBAQEc3RwNEAAAABgYGBgYGBgYGBgYGBgYGBgYGBgYGBgYGBgYGBgYGBgYGBgYGBgYGBg
        YGBgYGBgYGBgYGBgYGBgYGBgYGBgYGBgc3RwNUAAAAAAAAAAAAAAAAAAAAAAAAAAAAAAAAAAAAAAAAAAAAAAAAAAAAAAAAAAAAAAAAAAAAAAAAAAAAAAAAAAAAAAAAAA
        cHJvZxICAABwcmdwIgAAABAgZAQBAQB/AH8AQAABAAEAAAAAAAAAAAB/AAAAAAAAAABwZ25tMAAAAFNlcSAyayBLcmFmdHdlcmszIChBK0MsIEYrQSkAAAAAJCq+X/9/
        AAD08NwVAQAAAHN0cDBAAAAAAAAAAAAA+wAAAPsAAAAAAAAAAAACAAAAAAAAAAAA+wAAAAAAAAAAAAAAAAAAAAAAAAAAAAAAAAAAAAAAAAAAAHN0cDFAAAAACAgICAgI
        CAgICAgICAgICAgICAgICAgICAgICAgICAgICAgICAgICAgICAgICAgICAgICAgICAgICAgICAgICHN0cDJAAAAAAQAAAAEAAQABAAEAAAABAAEAAAABAAEAAAAAAAAA
        AQABAQEBAQEBAQEBAQEBAQEBAQEBAQEBAQEBAQEBAQEBAXN0cDNAAAAABAQEBAQEBAQEBAQEBAQEBAgEBAQEBAQEBAQEBAQEBAQEBAQEBAQEBAQEBAQEBAQEBAQEBAQE
        BAQEBAQEBAQEBHN0cDRAAAAAYGBgYGBgYGBgYGBgYGBgYGBgYGBgYGBgYGBgYGBgYGBgYGBgYGBgYGBgYGBgYGBgYGBgYGBgYGBgYGBgYGBgYHN0cDVAAAAAAAAAAAAA
        AAAAAAAAAAAAAAAAAAAAAAAAAAAAAAAAAAAAAAAAAAAAAAAAAAAAAAAAAAAAAAAAAAAAAAAAAAAAAHByb2cSAgAAcHJncCIAAAAQIGQEAQEAfwB/AEAAAQABAAAAAAAA
        AAAAfwAAAAAAAAAAcGdubTAAAABTZXEgMmsgS3JhZnR3ZXJrMyAoQStDLCBGK0EpAAAAACQqvl//fwAA9PDcFQEAAABzdHAwQAAAAAAAAAAAAPsAAAD7AAAAAAAAAAAA
        AgAAAAAAAAAAAPsAAAAAAAAAAAAAAAAAAAAAAAAAAAAAAAAAAAAAAAAAAABzdHAxQAAAAAgICAgICAgICAgICAgICAgICAgICAgICAgICAgICAgICAgICAgICAgICAgI
        CAgICAgICAgICAgICAgICAgICAhzdHAyQAAAAAEAAAABAAEAAQABAAAAAQABAAAAAQABAAAAAAAAAAEAAQEBAQEBAQEBAQEBAQEBAQEBAQEBAQEBAQEBAQEBAQFzdHAz
        QAAAAAQEBAQEBAQEBAQEBAQEBAQIBAQEBAQEBAQEBAQEBAQEBAQEBAQEBAQEBAQEBAQEBAQEBAQEBAQEBAQEBAQEBARzdHA0QAAAAGBgYGBgYGBgYGBgYGBgYGBgYGBg
        YGBgYGBgYGBgYGBgYGBgYGBgYGBgYGBgYGBgYGBgYGBgYGBgYGBgYGBgYGBzdHA1QAAAAAAAAAAAAAAAAAAAAAAAAAAAAAAAAAAAAAAAAAAAAAAAAAAAAAAAAAAAAAAA
        AAAAAAAAAAAAAAAAAAAAAAAAAABwcm9nEgIAAHByZ3AiAAAAECBkBAEBAH8AfwBAAAEAAQAAAAAAAAAAAH8AAAAAAAAAAHBnbm0wAAAAU2VxIDJrIEtyYWZ0d2VyazMg
        KEErQywgRitBKQAAAAAkKr5f/38AAPTw3BUBAAAAc3RwMEAAAAAAAAAAAAD7AAAA+wAAAAAAAAAAAAIAAAAAAAAAAAD7AAAAAAAAAAAAAAAAAAAAAAAAAAAAAAAAAAAA
        AAAAAAAAc3RwMUAAAAAICAgICAgICAgICAgICAgICAgICAgICAgICAgICAgICAgICAgICAgICAgICAgICAgICAgICAgICAgICAgICAgIc3RwMkAAAAABAAAAAQABAAEA
        AQAAAAEAAQAAAAEAAQAAAAAAAAABAAEBAQEBAQEBAQEBAQEBAQEBAQEBAQEBAQEBAQEBAQEBc3RwM0AAAAAEBAQEBAQEBAQEBAQEBAQECAQEBAQEBAQEBAQEBAQEBAQE
        BAQEBAQEBAQEBAQEBAQEBAQEBAQEBAQEBAQEBAQEc3RwNEAAAABgYGBgYGBgYGBgYGBgYGBgYGBgYGBgYGBgYGBgYGBgYGBgYGBgYGBgYGBgYGBgYGBgYGBgYGBgYGBg
        YGBgYGBgc3RwNUAAAAAAAAAAAAAAAAAAAAAAAAAAAAAAAAAAAAAAAAAAAAAAAAAAAAAAAAAAAAAAAAAAAAAAAAAAAAAAAAAAAAAAAAAA
        AC0gSW5pdGlhbCBwcm9ncmFtIC0AEAAAAA==
      >
      PRESETNAME "- Initial program -"
      FLOATPOS 326 97 810 615
      FXID {30455114-A77F-2B49-B320-9BF1A6F11AFB}
      WAK 0
      BYPASS 0 0 0
      <VST "VSTi: chipsounds (Plogue Art et Technologie, Inc)" chipsounds.vst 0 "" 1347176271
        T0dMUO5e7f4AAAAABAAAAAEAAAAAAAAAAgAAAAAAAAAEAAAAAAAAAAgAAAAAAAAAeAUAAAEAAAAAABAA
        Q0VHULEcAAB4nO1ZS2/bOBC+51cIOu0eKvEhiiRgp3CcpDDQbAM4ey4Ym3WElSWtRGXT/fU7ejimU9NS0BQosOXF0mjeHJLf0JP3T9vUe9RlleTZ1McB8r3352eTWZmo
        pXrU1ieJY98rynxdr8ziEggISf/8zIMxWWpjkmxTeX/XKk3MV/jqe5UptdoCeepT4ntb9bRsKbM0zVc3F1OfYSDfLC4Xn2pzk691K6Vqk2+VAZvLNDdTH9mkVD/qdOon
        Geiutzozvpcmj7oTBs5qNfUJRY3xlUoV0LD3ztONV0G1SnvyHAR1OfVjkNik+b1K7+qs9RMI4S4ksO4l65aWqW2jHwfebV1qb/6QFOFycRnGTGDvtz/ulvPffe9eZX8t
        1n1erLwJAlGuHlSWNa6DtiJPuwSZvdXi/nOpsg1YeQcfCgMvVfthaz3mKwNTsg8USLXp3//5nKrKNMTO/zaGWf20C+FRpXXDGkgUSRgcUyE5R+w54lbiRiXZCxHs4MB7
        pQ4OMshBBzmiQQ42yBEPcvBBDjHIIQc5MBpmGc4qHk4rHs4rHk4sdmb2VpVq+2KKsYvFaWjPwoe12LkLIslQMyIeC8qbfckhRO3CHytkORwQKtsRxZQxQZwyYyKwCiTA
        pNPLCMUxEZEzv851aPHgYR5up4/LNhEER4zHnLiFsJ1z1HkcR4SCDHUKWeUZUNpawhRjCvakU8ieKMSizhRHWIKDwik1prSYHQNpSwBjSZAkbm9iO1kx5bxxRhAWE+Is
        Gy7sEFAfghCCRDDZ7hzL4ckTIyZY2D53WR+MU8jXy0i7kLDoJyrGcBJG7uVB7UrijEnEGBLNioScuk3tbTkXiER71Sc02UXJ3Gz20pe02y8IFREWzFmFEsXD0yPRiB1C
        IjGGaUTFSGvvPrGlIueBdMA1YpPHBFEX150qN9r0IGqVb4PbNN/UOmgwZvDx+lNQV7pEFm5ppeZ1BajvUhnlPZivBYgyziD0Kvm3qQdhQSzwXWfrRHWPaxCBh9247n4I
        ettxGGLYxfjaoPH/JOi7MtlsdLkEIK6zlS6Hw45oRHdhN5vnc9jkWNi4j7ofiDdvvHm6oHN+Lb+N5IJfX/SPMexFjF0wCtwIHVJnLXXP241LdMjbqwQqnSMkjuh9qWEg
        mZOw6T5eNiL4TRsRvGtEyL4RwT+sE/nVV/zqK17TV9h4AUBJHLdLGgEIRTR2ghP7lG8gBoAZzogQVOIx7UlAeASrVgoZsRhDm/BW/YoTcXDnzDlQOIs6BBvHQgJicys+
        ANQy6sEoAujP3VjUzgXtMj7YLh0AbID44yw5l873IdpXQ8YTMGsE6jkAjGPw4QmE+lbQ7xRe+7mQGHYDjXZcDXwfPkfHB/0LibnCtpEYpuy1UKzFPfwamn92HAY5AFoj
        1euyoBhC85+WesTfsRDv6ssXvTL2jXOPqrr5m23vk2a2TkO7o7uBfQqR/l5l6M7JCRX2LPbpwqMmZikoEQgL9x2PfU7E/XoYOlzsI2DsIWZH3FcSkQLaeOK+n7DTJCSU
        I0UAG2IJaXLGg23nEIZQuot1cI/y190UTsJ9BfSUD38udhOoViZ51Iv93yHt+9Xze6VTkNXrO3XfzIxtttSVNjc6q72k2rGbtgpP7wqe0U/AcrV6yKEHUOZh6oezokiT
        Vfs3TBV2gtBNJEWV19kaKK2tKjyhNux2F29WFnqzSfIqbAwECjbi4kW+vnEcH3W816RM/uzzRZoU3+GzpTFsVH2Pd660ggdbXaofmtnexoD7+mhVfFBlmRiVBfuNp3N8
        Dv7qdanSZ9c/JvelKr/aIXjLuijy0vSRhM05exDDN+rDZ70v3J2EsAzOzybh7u/I87P/AKTCOSQ=
        AAAQAAAA
      >
      FLOATPOS 409 269 870 508
      FXID {099C0EAB-D75E-CE41-83B9-8E4849CB445E}
      WAK 0
      BYPASS 1 0 0
      <VST "VST: 8-Bit Shaper (Xfer Records)" 8BitShaper.vst 0 "" 1148539762
        clN1RO5e7f4CAAAAAQAAAAAAAAACAAAAAAAAAAQAAAABAAAAAAAAAAIAAAAAAAAABAAAAAAAAAAIAAAAAAAAADQCAAABAAAAAAAQAA==
        ZmaGP20MlT7dQQw/AAAAPyQAAAAAAIA/AAAAAAAAKEAXAAAAMAAAABkAAAAaAAAAGgAAABoAAAAbAAAAGwAAABwAAAAcAAAAHAAAAB0AAAAdAAAAHgAAAB4AAAAfAAAA
        HwAAACAAAAAgAAAAIAAAACEAAAAhAAAAIQAAACIAAAAiAAAAIgAAACMAAAAjAAAAIwAAACQAAAAkAAAAJAAAACUAAAAlAAAAKAAAACgAAAApAAAAKQAAACoAAAA1AAAA
        KgAAACoAAAA2AAAAKgAAACoAAAAqAAAAKgAAACoAAAAqAAAAKgAAACsAAAArAAAAOQAAAC0AAAA0AAAAOgAAAC0AAAAtAAAAPAAAAC4AAAAuAAAALwAAADAAAAAwAAAA
        MQAAADEAAAAxAAAAMgAAADMAAAAzAAAAMwAAADcAAAA3AAAANwAAADgAAAA4AAAAOAAAADkAAAA5AAAAOQAAADoAAAA6AAAAOgAAADoAAAA6AAAAOwAAADsAAAA7AAAA
        PAAAADsAAAA7AAAAOwAAADwAAAA8AAAAPAAAADwAAAA9AAAAPQAAAD0AAAA9AAAAPQAAAD4AAAA+AAAAPwAAAEkAAABAAAAAQAAAAEgAAABAAAAAQQAAAEIAAABCAAAA
        QgAAAEMAAABDAAAAQwAAAEQAAABEAAAARQAAAE0AAABGAAAARwAAAEYAAAA3AAAASAAAAEgAAABJAAAATwAAAAAAgD+rqio/q6qqPij8AD8dZXE/
        AEluaXQgMQAQAAAA
      >
      PRESETNAME "Init 1"
      FLOATPOS 742 97 277 388
      FXID {930FFD58-3B03-C844-97EA-C9E17FF5EF26}
      WAK 0
    >
    <ITEM
      POSITION 0
      SNAPOFFS 0
      LENGTH 91
      LOOP 1
      ALLTAKES 0
      FADEIN 1 0 0 1 0 0
      FADEOUT 1 0 0 1 0 0
      MUTE 0
      SEL 0
      YPOS 0.5 0.25
      IGUID {66246992-3B47-AA49-AE78-917A855CE8DB}
      IID 11
      NAME "Melody               - National_Anthems_-_Chile.mid"
      VOLPAN 1 0 1 -1
      SOFFS 21.5 43
      PLAYRATE 1 1 0 -1 0 0.0025
      CHANMODE 0
      TAKECOLOR 26173599 B
      GUID {57C0F8C6-FF5E-7B48-B68C-65578C656299}
      <SOURCE MIDI
        HASDATA 1 192 QN
        POOLEDEVTS {9BC1B84A-132D-8F46-A27F-3BE326112828}
        <X 0 0 0 0 3 "Melody              "
          /wNNZWxvZHkgICAgICAgICAgICAgIA==
        >
        <X 0 0 0 0 1 "THE SOFTWARE TOOLWORKS"
          /wFUSEUgU09GVFdBUkUgVE9PTFdPUktT
        >
        <X 0 0 0 0 1 "WORLD ATLAS"
          /wFXT1JMRCBBVExBUw==
        >
        <X 0 0 0 0 1 "MultiMedia Windows Version"
          /wFNdWx0aU1lZGlhIFdpbmRvd3MgVmVyc2lvbg==
        >
        <X 0 0 0 0 1 "Country: CHILE"
          /wFDb3VudHJ5OiBDSElMRQ==
        >
        <X 0 0 0 0 1 "(p) (c) The Software Toolworks 1991"
          /wEocCkgKGMpIFRoZSBTb2Z0d2FyZSBUb29sd29ya3MgMTk5MQ==
        >
        <X 0 0 0 0 1 "revised 11-26-91"
          /wFyZXZpc2VkIDExLTI2LTkx
        >
        <X 0 0 0 0 1 "edit date:9-1-91"
          /wFlZGl0IGRhdGU6OS0xLTkx
        >
        <X 0 0 0 0 1 "This file provided by:"
          /wFUaGlzIGZpbGUgcHJvdmlkZWQgYnk6
        >
        <X 0 0 0 0 1 "Rob Wallace Music"
          /wFSb2IgV2FsbGFjZSBNdXNpYw==
        >
        <X 0 0 0 0 1 "{602} 979-6201"
          /wF7NjAyfSA5NzktNjIwMQ==
        >
        <X 0 0 0 0 1 "MULTIMEDIA WINDOWS VERSION"
          /wFNVUxUSU1FRElBIFdJTkRPV1MgVkVSU0lPTg==
        >
        e 8256 90 43 7f
        e 128 80 43 40
        e 16 90 48 7f
        e 32 80 48 40
        e 16 90 48 7f
        e 128 80 48 40
        e 16 90 47 7f
        e 32 80 47 40
        e 16 90 47 7f
        e 128 80 47 40
        e 16 90 45 7f
        e 32 80 45 40
        e 16 90 45 7f
        e 128 80 45 40
        e 16 90 43 7f
        e 32 80 43 40
        e 16 90 43 7f
        e 128 80 43 40
        e 16 90 42 7f
        e 32 80 42 40
        e 16 90 43 7f
        e 272 80 43 40
        e 16 90 41 7f
        e 80 80 41 40
        e 16 90 40 7f
        e 176 80 40 40
        e 16 90 3e 7f
        e 128 80 3e 40
        e 16 90 40 7f
        e 32 80 40 40
        e 16 90 41 7f
        e 128 80 41 40
        e 16 90 43 7f
        e 32 80 43 40
        e 16 90 45 7f
        e 48 80 45 40
        e 16 90 43 7f
        e 48 80 43 40
        e 16 90 41 7f
        e 48 80 41 40
        e 16 90 40 7f
        e 128 80 40 40
        e 16 90 41 7f
        e 32 80 41 40
        e 16 90 43 7f
        e 48 80 43 40
        e 16 90 41 7f
        e 48 80 41 40
        e 16 90 40 7f
        e 48 80 40 40
        e 16 90 3e 7f
        e 176 80 3e 40
        e 400 90 43 7f
        e 128 80 43 40
        e 16 90 48 7f
        e 32 80 48 40
        e 16 90 48 7f
        e 128 80 48 40
        e 16 90 47 7f
        e 32 80 47 40
        e 16 90 47 7f
        e 128 80 47 40
        e 16 90 45 7f
        e 32 80 45 40
        e 16 90 45 7f
        e 128 80 45 40
        e 16 90 43 7f
        e 32 80 43 40
        e 16 90 43 7f
        e 128 80 43 40
        e 16 90 42 7f
        e 32 80 42 40
        e 16 90 43 7f
        e 272 80 43 40
        e 16 90 41 7f
        e 80 80 41 40
        e 16 90 40 7f
        e 176 80 40 40
        e 16 90 43 7f
        e 128 80 43 40
        e 16 90 48 7f
        e 32 80 48 40
        e 16 90 47 7f
        e 128 80 47 40
        e 16 90 46 7f
        e 32 80 46 40
        e 16 90 47 7f
        e 128 80 47 40
        e 16 90 48 7f
        e 32 80 48 40
        e 16 90 45 7f
        e 128 80 45 40
        e 16 90 44 7f
        e 32 80 44 40
        e 16 90 45 7f
        e 128 80 45 40
        e 16 90 47 7f
        e 32 80 47 40
        e 16 90 43 7f
        e 368 80 43 40
        e 208 90 43 7f
        e 128 80 43 40
        e 16 90 43 7f
        e 32 80 43 40
        e 16 90 43 7f
        e 176 80 43 40
        e 16 90 43 7f
        e 128 80 43 40
        e 16 90 43 7f
        e 32 80 43 40
        e 16 90 44 7f
        e 80 80 44 40
        e 16 90 43 7f
        e 80 80 43 40
        e 16 90 41 7f
        e 80 80 41 40
        e 16 90 43 7f
        e 80 80 43 40
        e 16 90 44 7f
        e 272 80 44 40
        e 16 90 43 7f
        e 80 80 43 40
        e 16 90 41 7f
        e 176 80 41 40
        e 16 90 44 7f
        e 128 80 44 40
        e 16 90 44 7f
        e 32 80 44 40
        e 16 90 44 7f
        e 176 80 44 40
        e 16 90 44 7f
        e 128 80 44 40
        e 16 90 44 7f
        e 32 80 44 40
        e 16 90 46 7f
        e 80 80 46 40
        e 16 90 44 7f
        e 80 80 44 40
        e 16 90 43 7f
        e 80 80 43 40
        e 16 90 44 7f
        e 80 80 44 40
        e 16 90 46 7f
        e 368 80 46 40
        e 208 90 43 7f
        e 128 80 43 40
        e 16 90 43 7f
        e 32 80 43 40
        e 16 90 48 7f
        e 176 80 48 40
        e 16 90 48 7f
        e 128 80 48 40
        e 16 90 48 7f
        e 32 80 48 40
        e 16 90 48 7f
        e 48 80 48 40
        e 16 90 46 7f
        e 48 80 46 40
        e 16 90 44 7f
        e 48 80 44 40
        e 16 90 44 7f
        e 48 80 44 40
        e 16 90 43 7f
        e 48 80 43 40
        e 16 90 42 7f
        e 48 80 42 40
        e 16 90 43 7f
        e 368 80 43 40
        e 208 90 40 7f
        e 128 80 40 40
        e 16 90 40 7f
        e 32 80 40 40
        e 16 90 40 7f
        e 128 80 40 40
        e 16 90 3e 7f
        e 32 80 3e 40
        e 16 90 40 7f
        e 128 80 40 40
        e 16 90 3e 7f
        e 32 80 3e 40
        e 16 90 40 7f
        e 128 80 40 40
        e 16 90 3e 7f
        e 32 80 3e 40
        e 16 90 40 7f
        e 128 80 40 40
        e 16 90 41 7f
        e 32 80 41 40
        e 16 90 43 7f
        e 176 80 43 40
        e 16 90 45 7f
        e 368 80 45 40
        e 16 90 3e 7f
        e 128 80 3e 40
        e 16 90 3e 7f
        e 32 80 3e 40
        e 16 90 3e 7f
        e 128 80 3e 40
        e 16 90 3c 7f
        e 32 80 3c 40
        e 16 90 3e 7f
        e 128 80 3e 40
        e 16 90 3c 7f
        e 32 80 3c 40
        e 16 90 3e 7f
        e 128 80 3e 40
        e 16 90 40 7f
        e 32 80 40 40
        e 16 90 41 7f
        e 128 80 41 40
        e 16 90 42 7f
        e 32 80 42 40
        e 16 90 45 7f
        e 176 80 45 40
        e 16 90 43 7f
        e 80 80 43 40
        e 112 90 45 7f
        e 80 80 45 40
        e 64 90 47 7f
        e 32 80 47 40
        e 16 90 48 7f
        e 48 80 48 40
        e 16 90 47 7f
        e 48 80 47 40
        e 16 90 45 7f
        e 48 80 45 40
        e 16 90 47 7f
        e 128 80 47 40
        e 16 90 45 7f
        e 32 80 45 40
        e 16 90 43 7f
        e 128 80 43 40
        e 16 90 43 7f
        e 32 80 43 40
        e 16 90 41 7f
        e 128 80 41 40
        e 16 90 43 7f
        e 32 80 43 40
        e 16 90 45 7f
        e 48 80 45 40
        e 16 90 43 7f
        e 48 80 43 40
        e 16 90 41 7f
        e 48 80 41 40
        e 16 90 43 7f
        e 176 80 43 40
        e 16 90 40 7f
        e 176 80 40 40
        e 16 90 45 7f
        e 128 80 45 40
        e 16 90 47 7f
        e 32 80 47 40
        e 16 90 48 7f
        e 48 80 48 40
        e 16 90 47 7f
        e 48 80 47 40
        e 16 90 45 7f
        e 48 80 45 40
        e 16 90 43 7f
        e 128 80 43 40
        e 16 90 48 7f
        e 32 80 48 40
        e 16 90 48 7f
        e 48 80 48 40
        e 16 90 47 7f
        e 48 80 47 40
        e 16 90 45 7f
        e 48 80 45 40
        e 16 90 45 7f
        e 48 80 45 40
        e 16 90 43 7f
        e 48 80 43 40
        e 14 90 41 7f
        e 48 80 41 40
        e 18 90 41 7f
        e 48 80 41 40
        e 16 90 40 7f
        e 48 80 40 40
        e 16 90 3e 7f
        e 48 80 3e 40
        e 16 90 3c 7f
        e 176 80 3c 40
        e 592 90 47 7f
        e 560 80 47 40
        e 16 90 48 7f
        e 176 80 48 40
        e 16 90 4a 7f
        e 368 80 4a 40
        e 16 90 4a 7f
        e 176 80 4a 40
        e 16 90 47 7f
        e 176 80 47 40
        e 16 90 48 7f
        e 368 80 48 40
        e 16 90 48 7f
        e 128 80 48 40
        e 16 90 47 7f
        e 32 80 47 40
        e 16 90 48 7f
        e 128 80 48 40
        e 16 90 4a 7f
        e 32 80 4a 40
        e 16 90 47 7f
        e 176 80 47 40
        e 16 90 47 7f
        e 176 80 47 40
        e 400 90 47 7f
        e 560 80 47 40
        e 16 90 48 7f
        e 176 80 48 40
        e 16 90 4a 7f
        e 368 80 4a 40
        e 16 90 4a 7f
        e 176 80 4a 40
        e 16 90 47 7f
        e 176 80 47 40
        e 16 90 48 7f
        e 368 80 48 40
        e 16 90 48 7f
        e 128 80 48 40
        e 16 90 47 7f
        e 32 80 47 40
        e 16 90 48 7f
        e 128 80 48 40
        e 16 90 4a 7f
        e 32 80 4a 40
        e 16 90 47 7f
        e 176 80 47 40
        e 400 90 40 7f
        e 128 80 40 40
        e 16 90 41 7f
        e 32 80 41 40
        e 16 90 43 7f
        e 176 80 43 40
        e 16 90 43 7f
        e 128 80 43 40
        e 16 90 45 7f
        e 32 80 45 40
        e 16 90 46 7f
        e 176 80 46 40
        e 16 90 46 7f
        e 128 80 46 40
        e 16 90 46 7f
        e 32 80 46 40
        e 16 90 46 7f
        e 176 80 46 40
        e 16 90 45 7f
        e 176 80 45 40
        e 208 90 42 7f
        e 128 80 42 40
        e 16 90 43 7f
        e 32 80 43 40
        e 16 90 45 7f
        e 176 80 45 40
        e 16 90 45 7f
        e 128 80 45 40
        e 16 90 47 7f
        e 32 80 47 40
        e 16 90 48 7f
        e 176 80 48 40
        e 16 90 48 7f
        e 128 80 48 40
        e 16 90 48 7f
        e 32 80 48 40
        e 16 90 47 7f
        e 368 80 47 40
        e 208 90 47 7f
        e 128 80 47 40
        e 16 90 47 7f
        e 32 80 47 40
        e 16 90 47 7f
        e 128 80 47 40
        e 16 90 45 7f
        e 32 80 45 40
        e 16 90 47 7f
        e 128 80 47 40
        e 16 90 45 7f
        e 32 80 45 40
        e 16 90 45 7f
        e 128 80 45 40
        e 16 90 43 7f
        e 32 80 43 40
        e 16 90 45 7f
        e 128 80 45 40
        e 16 90 43 7f
        e 32 80 43 40
        e 16 90 45 7f
        e 272 80 45 40
        e 16 90 43 7f
        e 80 80 43 40
        e 16 90 40 7f
        e 176 80 40 40
        e 16 90 48 7f
        e 128 80 48 40
        e 16 90 47 7f
        e 32 80 47 40
        e 16 90 47 7f
        e 128 80 47 40
        e 16 90 45 7f
        e 32 80 45 40
        e 16 90 47 7f
        e 128 80 47 40
        e 16 90 45 7f
        e 32 80 45 40
        e 16 90 45 7f
        e 128 80 45 40
        e 16 90 43 7f
        e 32 80 43 40
        e 16 90 45 7f
        e 128 80 45 40
        e 16 90 43 7f
        e 32 80 43 40
        e 16 90 40 7f
        e 176 80 40 40
        e 16 90 3c 7f
        e 80 80 3c 40
        e 16 90 3e 7f
        e 80 80 3e 40
        e 16 90 40 7f
        e 80 80 40 40
        e 16 90 41 7f
        e 80 80 41 40
        e 16 90 43 7f
        e 80 80 43 40
        e 16 90 45 7f
        e 80 80 45 40
        e 16 90 46 7f
        e 368 80 46 40
        e 16 90 4a 7f
        e 176 80 4a 40
        e 16 90 49 7f
        e 176 80 49 40
        e 16 90 4a 7f
        e 176 80 4a 40
        e 16 90 4a 7f
        e 176 80 4a 40
        e 208 90 48 7f
        e 128 80 48 40
        e 16 90 48 7f
        e 32 80 48 40
        e 16 90 4c 7f
        e 176 80 4c 40
        e 16 90 48 7f
        e 128 80 48 40
        e 16 90 48 7f
        e 32 80 48 40
        e 16 90 4a 7f
        e 176 80 4a 40
        e 16 90 47 7f
        e 128 80 47 40
        e 16 90 47 7f
        e 32 80 47 40
        e 16 90 48 7f
        e 176 80 48 40
        e 400 90 48 7f
        e 128 80 48 40
        e 16 90 48 7f
        e 30 80 48 40
        e 18 90 48 7f
        e 176 80 48 40
        e 16 90 48 7f
        e 128 80 48 40
        e 16 90 48 7f
        e 32 80 48 40
        e 16 90 4a 7f
        e 176 80 4a 40
        e 16 90 47 7f
        e 128 80 47 40
        e 16 90 47 7f
        e 30 80 47 40
        e 18 90 48 7f
        e 176 80 48 40
        e 400 90 48 7f
        e 128 80 48 40
        e 16 90 48 7f
        e 32 80 48 40
        e 16 90 4c 7f
        e 174 80 4c 40
        e 18 90 48 7f
        e 123 80 48 40
        e 21 90 48 7f
        e 32 80 48 40
        e 16 90 4a 7f
        e 176 80 4a 40
        e 16 90 47 7f
        e 128 80 47 40
        e 16 90 47 7f
        e 32 80 47 40
        e 16 90 48 7f
        e 176 80 48 40
        E 16 b0 7b 00
        GUID {5D8FE9D2-6A75-314F-93C8-19259C2F1655}
        IGNTEMPO 0 120 4 4
        SRCCOLOR 720
        VELLANE -1 86 6
        CFGEDITVIEW 6508.8 8.671329 50 24 0 0 0 0 0 0.5
        KEYSNAP 0
        TRACKSEL 226
        EVTFILTER 0 -1 -1 -1 -1 0 1 0 0 -1 -1 -1 -1 0 -1 0 -1 -1
        CFGEDIT 1 0 0 0 0 0 1 0 1 1 1 0.25 16 63 1280 778 0 0 2 3 0 0 0 0 0 0.5 0 0 1 64
      >
      TAKE
      NAME "Melody               - National_Anthems_-_Chile.mid"
      TAKEVOLPAN 0 1 -1
      SOFFS 21.5 43
      PLAYRATE 1 1 0 -1 0 0.0025
      CHANMODE 0
      GUID {DD8C4AAD-6291-7C4B-B884-E0A4950744A7}
      <SOURCE MIDI
        HASDATA 1 192 QN
        POOLEDEVTS {AB1638B2-B643-DD46-8DA7-7CBCCF21F42B}
        <X 0 0 0 0 3 "Melody              "
          /wNNZWxvZHkgICAgICAgICAgICAgIA==
        >
        <X 0 0 0 0 1 "THE SOFTWARE TOOLWORKS"
          /wFUSEUgU09GVFdBUkUgVE9PTFdPUktT
        >
        <X 0 0 0 0 1 "WORLD ATLAS"
          /wFXT1JMRCBBVExBUw==
        >
        <X 0 0 0 0 1 "MultiMedia Windows Version"
          /wFNdWx0aU1lZGlhIFdpbmRvd3MgVmVyc2lvbg==
        >
        <X 0 0 0 0 1 "Country: CHILE"
          /wFDb3VudHJ5OiBDSElMRQ==
        >
        <X 0 0 0 0 1 "(p) (c) The Software Toolworks 1991"
          /wEocCkgKGMpIFRoZSBTb2Z0d2FyZSBUb29sd29ya3MgMTk5MQ==
        >
        <X 0 0 0 0 1 "revised 11-26-91"
          /wFyZXZpc2VkIDExLTI2LTkx
        >
        <X 0 0 0 0 1 "edit date:9-1-91"
          /wFlZGl0IGRhdGU6OS0xLTkx
        >
        <X 0 0 0 0 1 "This file provided by:"
          /wFUaGlzIGZpbGUgcHJvdmlkZWQgYnk6
        >
        <X 0 0 0 0 1 "Rob Wallace Music"
          /wFSb2IgV2FsbGFjZSBNdXNpYw==
        >
        <X 0 0 0 0 1 "{602} 979-6201"
          /wF7NjAyfSA5NzktNjIwMQ==
        >
        <X 0 0 0 0 1 "MULTIMEDIA WINDOWS VERSION"
          /wFNVUxUSU1FRElBIFdJTkRPV1MgVkVSU0lPTg==
        >
        e 8256 90 43 7f
        e 128 80 43 40
        e 16 90 48 7f
        e 32 80 48 40
        e 16 90 48 7f
        e 128 80 48 40
        e 16 90 47 7f
        e 32 80 47 40
        e 16 90 47 7f
        e 128 80 47 40
        e 16 90 45 7f
        e 32 80 45 40
        e 16 90 45 7f
        e 128 80 45 40
        e 16 90 43 7f
        e 32 80 43 40
        e 16 90 43 7f
        e 128 80 43 40
        e 16 90 42 7f
        e 32 80 42 40
        e 16 90 43 7f
        e 272 80 43 40
        e 16 90 41 7f
        e 80 80 41 40
        e 16 90 40 7f
        e 176 80 40 40
        e 16 90 3e 7f
        e 128 80 3e 40
        e 16 90 40 7f
        e 32 80 40 40
        e 16 90 41 7f
        e 128 80 41 40
        e 16 90 43 7f
        e 32 80 43 40
        e 16 90 45 7f
        e 48 80 45 40
        e 16 90 43 7f
        e 48 80 43 40
        e 16 90 41 7f
        e 48 80 41 40
        e 16 90 40 7f
        e 128 80 40 40
        e 16 90 41 7f
        e 32 80 41 40
        e 16 90 43 7f
        e 48 80 43 40
        e 16 90 41 7f
        e 48 80 41 40
        e 16 90 40 7f
        e 48 80 40 40
        e 16 90 3e 7f
        e 176 80 3e 40
        e 400 90 43 7f
        e 128 80 43 40
        e 16 90 48 7f
        e 32 80 48 40
        e 16 90 48 7f
        e 128 80 48 40
        e 16 90 47 7f
        e 32 80 47 40
        e 16 90 47 7f
        e 128 80 47 40
        e 16 90 45 7f
        e 32 80 45 40
        e 16 90 45 7f
        e 128 80 45 40
        e 16 90 43 7f
        e 32 80 43 40
        e 16 90 43 7f
        e 128 80 43 40
        e 16 90 42 7f
        e 32 80 42 40
        e 16 90 43 7f
        e 272 80 43 40
        e 16 90 41 7f
        e 80 80 41 40
        e 16 90 40 7f
        e 176 80 40 40
        e 16 90 43 7f
        e 128 80 43 40
        e 16 90 48 7f
        e 32 80 48 40
        e 16 90 47 7f
        e 128 80 47 40
        e 16 90 46 7f
        e 32 80 46 40
        e 16 90 47 7f
        e 128 80 47 40
        e 16 90 48 7f
        e 32 80 48 40
        e 16 90 45 7f
        e 128 80 45 40
        e 16 90 44 7f
        e 32 80 44 40
        e 16 90 45 7f
        e 128 80 45 40
        e 16 90 47 7f
        e 32 80 47 40
        e 16 90 43 7f
        e 368 80 43 40
        e 208 90 43 7f
        e 128 80 43 40
        e 16 90 43 7f
        e 32 80 43 40
        e 16 90 43 7f
        e 176 80 43 40
        e 16 90 43 7f
        e 128 80 43 40
        e 16 90 43 7f
        e 32 80 43 40
        e 16 90 44 7f
        e 80 80 44 40
        e 16 90 43 7f
        e 80 80 43 40
        e 16 90 41 7f
        e 80 80 41 40
        e 16 90 43 7f
        e 80 80 43 40
        e 16 90 44 7f
        e 272 80 44 40
        e 16 90 43 7f
        e 80 80 43 40
        e 16 90 41 7f
        e 176 80 41 40
        e 16 90 44 7f
        e 128 80 44 40
        e 16 90 44 7f
        e 32 80 44 40
        e 16 90 44 7f
        e 176 80 44 40
        e 16 90 44 7f
        e 128 80 44 40
        e 16 90 44 7f
        e 32 80 44 40
        e 16 90 46 7f
        e 80 80 46 40
        e 16 90 44 7f
        e 80 80 44 40
        e 16 90 43 7f
        e 80 80 43 40
        e 16 90 44 7f
        e 80 80 44 40
        e 16 90 46 7f
        e 368 80 46 40
        e 208 90 43 7f
        e 128 80 43 40
        e 16 90 43 7f
        e 32 80 43 40
        e 16 90 48 7f
        e 176 80 48 40
        e 16 90 48 7f
        e 128 80 48 40
        e 16 90 48 7f
        e 32 80 48 40
        e 16 90 48 7f
        e 48 80 48 40
        e 16 90 46 7f
        e 48 80 46 40
        e 16 90 44 7f
        e 48 80 44 40
        e 16 90 44 7f
        e 48 80 44 40
        e 16 90 43 7f
        e 48 80 43 40
        e 16 90 42 7f
        e 48 80 42 40
        e 16 90 43 7f
        e 368 80 43 40
        e 208 90 40 7f
        e 128 80 40 40
        e 16 90 40 7f
        e 32 80 40 40
        e 16 90 40 7f
        e 128 80 40 40
        e 16 90 3e 7f
        e 32 80 3e 40
        e 16 90 40 7f
        e 128 80 40 40
        e 16 90 3e 7f
        e 32 80 3e 40
        e 16 90 40 7f
        e 128 80 40 40
        e 16 90 3e 7f
        e 32 80 3e 40
        e 16 90 40 7f
        e 128 80 40 40
        e 16 90 41 7f
        e 32 80 41 40
        e 16 90 43 7f
        e 176 80 43 40
        e 16 90 45 7f
        e 368 80 45 40
        e 16 90 3e 7f
        e 128 80 3e 40
        e 16 90 3e 7f
        e 32 80 3e 40
        e 16 90 3e 7f
        e 128 80 3e 40
        e 16 90 3c 7f
        e 32 80 3c 40
        e 16 90 3e 7f
        e 128 80 3e 40
        e 16 90 3c 7f
        e 32 80 3c 40
        e 16 90 3e 7f
        e 128 80 3e 40
        e 16 90 40 7f
        e 32 80 40 40
        e 16 90 41 7f
        e 128 80 41 40
        e 16 90 42 7f
        e 32 80 42 40
        e 16 90 45 7f
        e 176 80 45 40
        e 16 90 43 7f
        e 80 80 43 40
        e 112 90 45 7f
        e 80 80 45 40
        e 64 90 47 7f
        e 32 80 47 40
        e 16 90 48 7f
        e 48 80 48 40
        e 16 90 47 7f
        e 48 80 47 40
        e 16 90 45 7f
        e 48 80 45 40
        e 16 90 47 7f
        e 128 80 47 40
        e 16 90 45 7f
        e 32 80 45 40
        e 16 90 43 7f
        e 128 80 43 40
        e 16 90 43 7f
        e 32 80 43 40
        e 16 90 41 7f
        e 128 80 41 40
        e 16 90 43 7f
        e 32 80 43 40
        e 16 90 45 7f
        e 48 80 45 40
        e 16 90 43 7f
        e 48 80 43 40
        e 16 90 41 7f
        e 48 80 41 40
        e 16 90 43 7f
        e 176 80 43 40
        e 16 90 40 7f
        e 176 80 40 40
        e 16 90 45 7f
        e 128 80 45 40
        e 16 90 47 7f
        e 32 80 47 40
        e 16 90 48 7f
        e 48 80 48 40
        e 16 90 47 7f
        e 48 80 47 40
        e 16 90 45 7f
        e 48 80 45 40
        e 16 90 43 7f
        e 128 80 43 40
        e 16 90 48 7f
        e 32 80 48 40
        e 16 90 48 7f
        e 48 80 48 40
        e 16 90 47 7f
        e 48 80 47 40
        e 16 90 45 7f
        e 48 80 45 40
        e 16 90 45 7f
        e 48 80 45 40
        e 16 90 43 7f
        e 48 80 43 40
        e 14 90 41 7f
        e 48 80 41 40
        e 18 90 41 7f
        e 48 80 41 40
        e 16 90 40 7f
        e 48 80 40 40
        e 16 90 3e 7f
        e 48 80 3e 40
        e 16 90 3c 7f
        e 176 80 3c 40
        e 592 90 47 7f
        e 560 80 47 40
        e 16 90 48 7f
        e 176 80 48 40
        e 16 90 4a 7f
        e 368 80 4a 40
        e 16 90 4a 7f
        e 176 80 4a 40
        e 16 90 47 7f
        e 176 80 47 40
        e 16 90 48 7f
        e 368 80 48 40
        e 16 90 48 7f
        e 128 80 48 40
        e 16 90 47 7f
        e 32 80 47 40
        e 16 90 48 7f
        e 128 80 48 40
        e 16 90 4a 7f
        e 32 80 4a 40
        e 16 90 47 7f
        e 176 80 47 40
        e 16 90 47 7f
        e 176 80 47 40
        e 400 90 47 7f
        e 560 80 47 40
        e 16 90 48 7f
        e 176 80 48 40
        e 16 90 4a 7f
        e 368 80 4a 40
        e 16 90 4a 7f
        e 176 80 4a 40
        e 16 90 47 7f
        e 176 80 47 40
        e 16 90 48 7f
        e 368 80 48 40
        e 16 90 48 7f
        e 128 80 48 40
        e 16 90 47 7f
        e 32 80 47 40
        e 16 90 48 7f
        e 128 80 48 40
        e 16 90 4a 7f
        e 32 80 4a 40
        e 16 90 47 7f
        e 176 80 47 40
        e 400 90 40 7f
        e 128 80 40 40
        e 16 90 41 7f
        e 32 80 41 40
        e 16 90 43 7f
        e 176 80 43 40
        e 16 90 43 7f
        e 128 80 43 40
        e 16 90 45 7f
        e 32 80 45 40
        e 16 90 46 7f
        e 176 80 46 40
        e 16 90 46 7f
        e 128 80 46 40
        e 16 90 46 7f
        e 32 80 46 40
        e 16 90 46 7f
        e 176 80 46 40
        e 16 90 45 7f
        e 176 80 45 40
        e 208 90 42 7f
        e 128 80 42 40
        e 16 90 43 7f
        e 32 80 43 40
        e 16 90 45 7f
        e 176 80 45 40
        e 16 90 45 7f
        e 128 80 45 40
        e 16 90 47 7f
        e 32 80 47 40
        e 16 90 48 7f
        e 176 80 48 40
        e 16 90 48 7f
        e 128 80 48 40
        e 16 90 48 7f
        e 32 80 48 40
        e 16 90 47 7f
        e 368 80 47 40
        e 208 90 47 7f
        e 128 80 47 40
        e 16 90 47 7f
        e 32 80 47 40
        e 16 90 47 7f
        e 128 80 47 40
        e 16 90 45 7f
        e 32 80 45 40
        e 16 90 47 7f
        e 128 80 47 40
        e 16 90 45 7f
        e 32 80 45 40
        e 16 90 45 7f
        e 128 80 45 40
        e 16 90 43 7f
        e 32 80 43 40
        e 16 90 45 7f
        e 128 80 45 40
        e 16 90 43 7f
        e 32 80 43 40
        e 16 90 45 7f
        e 272 80 45 40
        e 16 90 43 7f
        e 80 80 43 40
        e 16 90 40 7f
        e 176 80 40 40
        e 16 90 48 7f
        e 128 80 48 40
        e 16 90 47 7f
        e 32 80 47 40
        e 16 90 47 7f
        e 128 80 47 40
        e 16 90 45 7f
        e 32 80 45 40
        e 16 90 47 7f
        e 128 80 47 40
        e 16 90 45 7f
        e 32 80 45 40
        e 16 90 45 7f
        e 128 80 45 40
        e 16 90 43 7f
        e 32 80 43 40
        e 16 90 45 7f
        e 128 80 45 40
        e 16 90 43 7f
        e 32 80 43 40
        e 16 90 40 7f
        e 176 80 40 40
        e 16 90 3c 7f
        e 80 80 3c 40
        e 16 90 3e 7f
        e 80 80 3e 40
        e 16 90 40 7f
        e 80 80 40 40
        e 16 90 41 7f
        e 80 80 41 40
        e 16 90 43 7f
        e 80 80 43 40
        e 16 90 45 7f
        e 80 80 45 40
        e 16 90 46 7f
        e 368 80 46 40
        e 16 90 4a 7f
        e 176 80 4a 40
        e 16 90 49 7f
        e 176 80 49 40
        e 16 90 4a 7f
        e 176 80 4a 40
        e 16 90 4a 7f
        e 176 80 4a 40
        e 208 90 48 7f
        e 128 80 48 40
        e 16 90 48 7f
        e 32 80 48 40
        e 16 90 4c 7f
        e 176 80 4c 40
        e 16 90 48 7f
        e 128 80 48 40
        e 16 90 48 7f
        e 32 80 48 40
        e 16 90 4a 7f
        e 176 80 4a 40
        e 16 90 47 7f
        e 128 80 47 40
        e 16 90 47 7f
        e 32 80 47 40
        e 16 90 48 7f
        e 176 80 48 40
        e 400 90 48 7f
        e 128 80 48 40
        e 16 90 48 7f
        e 30 80 48 40
        e 18 90 48 7f
        e 176 80 48 40
        e 16 90 48 7f
        e 128 80 48 40
        e 16 90 48 7f
        e 32 80 48 40
        e 16 90 4a 7f
        e 176 80 4a 40
        e 16 90 47 7f
        e 128 80 47 40
        e 16 90 47 7f
        e 30 80 47 40
        e 18 90 48 7f
        e 176 80 48 40
        e 400 90 48 7f
        e 128 80 48 40
        e 16 90 48 7f
        e 32 80 48 40
        e 16 90 4c 7f
        e 174 80 4c 40
        e 18 90 48 7f
        e 123 80 48 40
        e 21 90 48 7f
        e 32 80 48 40
        e 16 90 4a 7f
        e 176 80 4a 40
        e 16 90 47 7f
        e 128 80 47 40
        e 16 90 47 7f
        e 32 80 47 40
        e 16 90 48 7f
        e 176 80 48 40
        E 16 b0 7b 00
        GUID {74742BD7-CCAA-F244-9D03-3F78F8C9FCB1}
        IGNTEMPO 0 120 4 4
        SRCCOLOR 911
        VELLANE -1 86 6
        CFGEDITVIEW 0 0 50 24 0 0 0 0 0 0.5
        KEYSNAP 0
        TRACKSEL 226
        EVTFILTER 0 -1 -1 -1 -1 0 1 0 0 -1 -1 -1 -1 0 -1 0 -1 -1
        CFGEDIT 1 0 0 0 0 0 1 0 1 1 1 0.25 16 63 1280 778 0 0 2 3 0 0 0 0 0 0.5 0 0 1 64
      >
    >
    <ITEM
      POSITION 0
      SNAPOFFS 0
      LENGTH 91
      LOOP 1
      ALLTAKES 0
      FADEIN 1 0 0 1 0 0
      FADEOUT 1 0 0 1 0 0
      MUTE 0
      SEL 0
      YPOS 0.95 0.05
      IGUID {78AAEC57-B2A5-6C46-AEE4-B2DE2732E345}
      IID 15
      NAME "Flute/Melody 8va up  - National_Anthems_-_Chile.mid"
      VOLPAN 1 0 1 -1
      SOFFS 21.5 43
      PLAYRATE 1 1 0 -1 0 0.0025
      CHANMODE 0
      TAKECOLOR 26173599 B
      GUID {DD191113-A0E4-B94E-B81D-82EA2839625E}
      <SOURCE MIDI
        HASDATA 1 192 QN
        POOLEDEVTS {FE72F4FF-F2A1-4843-892C-6E8CFB091934}
        <X 0 0 0 0 3 "Flute/Melody 8va up "
          /wNGbHV0ZS9NZWxvZHkgOHZhIHVwIA==
        >
        e 8256 90 4f 7f
        e 128 80 4f 40
        e 16 90 54 7f
        e 32 80 54 40
        e 16 90 54 7f
        e 128 80 54 40
        e 16 90 53 7f
        e 32 80 53 40
        e 16 90 53 7f
        e 128 80 53 40
        e 16 90 51 7f
        e 32 80 51 40
        e 16 90 51 7f
        e 128 80 51 40
        e 16 90 4f 7f
        e 32 80 4f 40
        e 16 90 4f 7f
        e 128 80 4f 40
        e 16 90 4e 7f
        e 32 80 4e 40
        e 16 90 4f 7f
        e 272 80 4f 40
        e 16 90 4d 7f
        e 80 80 4d 40
        e 16 90 4c 7f
        e 176 80 4c 40
        e 16 90 4a 7f
        e 128 80 4a 40
        e 16 90 4c 7f
        e 32 80 4c 40
        e 16 90 4d 7f
        e 128 80 4d 40
        e 16 90 4f 7f
        e 32 80 4f 40
        e 16 90 51 7f
        e 48 80 51 40
        e 16 90 4f 7f
        e 48 80 4f 40
        e 16 90 4d 7f
        e 48 80 4d 40
        e 16 90 4c 7f
        e 128 80 4c 40
        e 16 90 4d 7f
        e 32 80 4d 40
        e 16 90 4f 7f
        e 48 80 4f 40
        e 16 90 4d 7f
        e 48 80 4d 40
        e 16 90 4c 7f
        e 48 80 4c 40
        e 16 90 4a 7f
        e 176 80 4a 40
        e 400 90 4f 7f
        e 128 80 4f 40
        e 16 90 54 7f
        e 32 80 54 40
        e 16 90 54 7f
        e 128 80 54 40
        e 16 90 53 7f
        e 32 80 53 40
        e 16 90 53 7f
        e 128 80 53 40
        e 16 90 51 7f
        e 32 80 51 40
        e 16 90 51 7f
        e 128 80 51 40
        e 16 90 4f 7f
        e 32 80 4f 40
        e 16 90 4f 7f
        e 128 80 4f 40
        e 16 90 4e 7f
        e 32 80 4e 40
        e 16 90 4f 7f
        e 272 80 4f 40
        e 16 90 4d 7f
        e 80 80 4d 40
        e 16 90 4c 7f
        e 176 80 4c 40
        e 16 90 4f 7f
        e 128 80 4f 40
        e 16 90 54 7f
        e 32 80 54 40
        e 16 90 53 7f
        e 128 80 53 40
        e 16 90 52 7f
        e 32 80 52 40
        e 16 90 53 7f
        e 128 80 53 40
        e 16 90 54 7f
        e 32 80 54 40
        e 16 90 51 7f
        e 128 80 51 40
        e 16 90 50 7f
        e 32 80 50 40
        e 16 90 51 7f
        e 128 80 51 40
        e 16 90 53 7f
        e 32 80 53 40
        e 16 90 4f 7f
        e 368 80 4f 40
        e 208 90 4f 7f
        e 128 80 4f 40
        e 16 90 4f 7f
        e 32 80 4f 40
        e 16 90 4f 7f
        e 176 80 4f 40
        e 16 90 4f 7f
        e 128 80 4f 40
        e 16 90 4f 7f
        e 32 80 4f 40
        e 16 90 50 7f
        e 80 80 50 40
        e 16 90 4f 7f
        e 80 80 4f 40
        e 16 90 4d 7f
        e 80 80 4d 40
        e 16 90 4f 7f
        e 80 80 4f 40
        e 16 90 50 7f
        e 272 80 50 40
        e 16 90 4f 7f
        e 80 80 4f 40
        e 16 90 4d 7f
        e 176 80 4d 40
        e 16 90 50 7f
        e 128 80 50 40
        e 16 90 50 7f
        e 32 80 50 40
        e 16 90 50 7f
        e 176 80 50 40
        e 16 90 50 7f
        e 128 80 50 40
        e 16 90 50 7f
        e 32 80 50 40
        e 16 90 52 7f
        e 80 80 52 40
        e 16 90 50 7f
        e 80 80 50 40
        e 16 90 4f 7f
        e 80 80 4f 40
        e 16 90 50 7f
        e 80 80 50 40
        e 16 90 52 7f
        e 368 80 52 40
        e 208 90 4f 7f
        e 128 80 4f 40
        e 16 90 4f 7f
        e 32 80 4f 40
        e 16 90 54 7f
        e 176 80 54 40
        e 16 90 54 7f
        e 128 80 54 40
        e 16 90 54 7f
        e 32 80 54 40
        e 16 90 54 7f
        e 48 80 54 40
        e 16 90 52 7f
        e 48 80 52 40
        e 16 90 50 7f
        e 48 80 50 40
        e 16 90 50 7f
        e 48 80 50 40
        e 16 90 4f 7f
        e 48 80 4f 40
        e 16 90 4e 7f
        e 48 80 4e 40
        e 16 90 4f 7f
        e 368 80 4f 40
        e 208 90 4c 7f
        e 128 80 4c 40
        e 16 90 4c 7f
        e 32 80 4c 40
        e 16 90 4c 7f
        e 128 80 4c 40
        e 16 90 4a 7f
        e 32 80 4a 40
        e 16 90 4c 7f
        e 128 80 4c 40
        e 16 90 4a 7f
        e 32 80 4a 40
        e 16 90 4c 7f
        e 128 80 4c 40
        e 16 90 4a 7f
        e 32 80 4a 40
        e 16 90 4c 7f
        e 128 80 4c 40
        e 16 90 4d 7f
        e 32 80 4d 40
        e 16 90 4f 7f
        e 176 80 4f 40
        e 16 90 51 7f
        e 368 80 51 40
        e 16 90 4a 7f
        e 128 80 4a 40
        e 16 90 4a 7f
        e 32 80 4a 40
        e 16 90 4a 7f
        e 128 80 4a 40
        e 16 90 48 7f
        e 32 80 48 40
        e 16 90 4a 7f
        e 128 80 4a 40
        e 16 90 48 7f
        e 32 80 48 40
        e 16 90 4a 7f
        e 128 80 4a 40
        e 16 90 4c 7f
        e 32 80 4c 40
        e 16 90 4d 7f
        e 128 80 4d 40
        e 16 90 4e 7f
        e 32 80 4e 40
        e 16 90 51 7f
        e 176 80 51 40
        e 16 90 4f 7f
        e 80 80 4f 40
        e 112 90 51 7f
        e 80 80 51 40
        e 64 90 53 7f
        e 32 80 53 40
        e 16 90 54 7f
        e 48 80 54 40
        e 16 90 53 7f
        e 48 80 53 40
        e 16 90 51 7f
        e 48 80 51 40
        e 16 90 53 7f
        e 128 80 53 40
        e 16 90 51 7f
        e 32 80 51 40
        e 16 90 4f 7f
        e 128 80 4f 40
        e 16 90 4f 7f
        e 32 80 4f 40
        e 16 90 4d 7f
        e 128 80 4d 40
        e 16 90 4f 7f
        e 32 80 4f 40
        e 16 90 51 7f
        e 48 80 51 40
        e 16 90 4f 7f
        e 48 80 4f 40
        e 16 90 4d 7f
        e 48 80 4d 40
        e 16 90 4f 7f
        e 176 80 4f 40
        e 16 90 4c 7f
        e 176 80 4c 40
        e 16 90 51 7f
        e 128 80 51 40
        e 16 90 53 7f
        e 32 80 53 40
        e 16 90 54 7f
        e 48 80 54 40
        e 16 90 53 7f
        e 48 80 53 40
        e 16 90 51 7f
        e 48 80 51 40
        e 16 90 4f 7f
        e 128 80 4f 40
        e 16 90 54 7f
        e 32 80 54 40
        e 16 90 54 7f
        e 48 80 54 40
        e 16 90 53 7f
        e 48 80 53 40
        e 16 90 51 7f
        e 48 80 51 40
        e 16 90 51 7f
        e 48 80 51 40
        e 16 90 4f 7f
        e 48 80 4f 40
        e 14 90 4d 7f
        e 48 80 4d 40
        e 18 90 4d 7f
        e 48 80 4d 40
        e 16 90 4c 7f
        e 48 80 4c 40
        e 16 90 4a 7f
        e 48 80 4a 40
        e 16 90 48 7f
        e 176 80 48 40
        e 592 90 53 7f
        e 560 80 53 40
        e 16 90 54 7f
        e 176 80 54 40
        e 16 90 56 7f
        e 368 80 56 40
        e 16 90 56 7f
        e 176 80 56 40
        e 16 90 53 7f
        e 176 80 53 40
        e 16 90 54 7f
        e 368 80 54 40
        e 16 90 54 7f
        e 128 80 54 40
        e 16 90 53 7f
        e 32 80 53 40
        e 16 90 54 7f
        e 128 80 54 40
        e 16 90 56 7f
        e 32 80 56 40
        e 16 90 53 7f
        e 176 80 53 40
        e 16 90 53 7f
        e 176 80 53 40
        e 400 90 53 7f
        e 560 80 53 40
        e 16 90 54 7f
        e 176 80 54 40
        e 16 90 56 7f
        e 368 80 56 40
        e 16 90 56 7f
        e 176 80 56 40
        e 16 90 53 7f
        e 176 80 53 40
        e 16 90 54 7f
        e 368 80 54 40
        e 16 90 54 7f
        e 128 80 54 40
        e 16 90 53 7f
        e 32 80 53 40
        e 16 90 54 7f
        e 128 80 54 40
        e 16 90 56 7f
        e 32 80 56 40
        e 16 90 53 7f
        e 176 80 53 40
        e 400 90 4c 7f
        e 128 80 4c 40
        e 16 90 4d 7f
        e 32 80 4d 40
        e 16 90 4f 7f
        e 176 80 4f 40
        e 16 90 4f 7f
        e 128 80 4f 40
        e 16 90 51 7f
        e 32 80 51 40
        e 16 90 52 7f
        e 176 80 52 40
        e 16 90 52 7f
        e 128 80 52 40
        e 16 90 52 7f
        e 32 80 52 40
        e 16 90 52 7f
        e 176 80 52 40
        e 16 90 51 7f
        e 176 80 51 40
        e 208 90 4e 7f
        e 128 80 4e 40
        e 16 90 4f 7f
        e 32 80 4f 40
        e 16 90 51 7f
        e 176 80 51 40
        e 16 90 51 7f
        e 128 80 51 40
        e 16 90 53 7f
        e 32 80 53 40
        e 16 90 54 7f
        e 176 80 54 40
        e 16 90 54 7f
        e 128 80 54 40
        e 16 90 54 7f
        e 32 80 54 40
        e 16 90 53 7f
        e 368 80 53 40
        e 208 90 53 7f
        e 128 80 53 40
        e 16 90 53 7f
        e 32 80 53 40
        e 16 90 53 7f
        e 128 80 53 40
        e 16 90 51 7f
        e 32 80 51 40
        e 16 90 53 7f
        e 128 80 53 40
        e 16 90 51 7f
        e 32 80 51 40
        e 16 90 51 7f
        e 128 80 51 40
        e 16 90 4f 7f
        e 32 80 4f 40
        e 16 90 51 7f
        e 128 80 51 40
        e 16 90 4f 7f
        e 32 80 4f 40
        e 16 90 51 7f
        e 272 80 51 40
        e 16 90 4f 7f
        e 80 80 4f 40
        e 16 90 4c 7f
        e 176 80 4c 40
        e 16 90 54 7f
        e 128 80 54 40
        e 16 90 53 7f
        e 32 80 53 40
        e 16 90 53 7f
        e 128 80 53 40
        e 16 90 51 7f
        e 32 80 51 40
        e 16 90 53 7f
        e 128 80 53 40
        e 16 90 51 7f
        e 32 80 51 40
        e 16 90 51 7f
        e 128 80 51 40
        e 16 90 4f 7f
        e 32 80 4f 40
        e 16 90 51 7f
        e 128 80 51 40
        e 16 90 4f 7f
        e 32 80 4f 40
        e 16 90 4c 7f
        e 176 80 4c 40
        e 16 90 48 7f
        e 80 80 48 40
        e 16 90 4a 7f
        e 80 80 4a 40
        e 16 90 4c 7f
        e 80 80 4c 40
        e 16 90 4d 7f
        e 80 80 4d 40
        e 16 90 4f 7f
        e 80 80 4f 40
        e 16 90 51 7f
        e 80 80 51 40
        e 16 90 52 7f
        e 368 80 52 40
        e 16 90 56 7f
        e 176 80 56 40
        e 16 90 55 7f
        e 176 80 55 40
        e 16 90 56 7f
        e 176 80 56 40
        e 16 90 56 7f
        e 176 80 56 40
        e 208 90 54 7f
        e 128 80 54 40
        e 16 90 54 7f
        e 32 80 54 40
        e 16 90 58 7f
        e 176 80 58 40
        e 16 90 54 7f
        e 128 80 54 40
        e 16 90 54 7f
        e 32 80 54 40
        e 16 90 56 7f
        e 176 80 56 40
        e 16 90 53 7f
        e 128 80 53 40
        e 16 90 53 7f
        e 32 80 53 40
        e 16 90 54 7f
        e 176 80 54 40
        e 400 90 54 7f
        e 128 80 54 40
        e 16 90 54 7f
        e 30 80 54 40
        e 18 90 54 7f
        e 176 80 54 40
        e 16 90 54 7f
        e 128 80 54 40
        e 16 90 54 7f
        e 32 80 54 40
        e 16 90 56 7f
        e 176 80 56 40
        e 16 90 53 7f
        e 128 80 53 40
        e 16 90 53 7f
        e 30 80 53 40
        e 18 90 54 7f
        e 176 80 54 40
        e 400 90 54 7f
        e 128 80 54 40
        e 16 90 54 7f
        e 32 80 54 40
        e 16 90 58 7f
        e 174 80 58 40
        e 18 90 54 7f
        e 123 80 54 40
        e 21 90 54 7f
        e 32 80 54 40
        e 16 90 56 7f
        e 176 80 56 40
        e 16 90 53 7f
        e 128 80 53 40
        e 16 90 53 7f
        e 32 80 53 40
        e 16 90 54 7f
        e 176 80 54 40
        E 16 b0 7b 00
        GUID {D0EAB905-DAC3-5649-BAB2-A7C253A3C6ED}
        IGNTEMPO 0 120 4 4
        SRCCOLOR 724
        VELLANE -1 86 6
        CFGEDITVIEW -12766.996273 1.203714 50 24 0 0 0 0 0 0.5
        KEYSNAP 0
        TRACKSEL 226
        EVTFILTER 0 -1 -1 -1 -1 0 1 0 0 -1 -1 -1 -1 0 -1 0 -1 -1
        CFGEDIT 1 0 0 0 0 0 1 0 1 1 1 0.25 16 63 1280 778 0 0 2 3 0 0 0 0 0 0.5 0 0 1 64
      >
      TAKE
      NAME "Flute/Melody 8va up  - National_Anthems_-_Chile.mid"
      TAKEVOLPAN 0 1 -1
      SOFFS 21.5 43
      PLAYRATE 1 1 0 -1 0 0.0025
      CHANMODE 0
      GUID {5F26149B-8327-4A4C-BEC3-D0F08E93FA69}
      <SOURCE MIDI
        HASDATA 1 192 QN
        POOLEDEVTS {A933B4DC-78A6-514F-AA7E-3ED6F2A9030D}
        <X 0 0 0 0 3 "Flute/Melody 8va up "
          /wNGbHV0ZS9NZWxvZHkgOHZhIHVwIA==
        >
        e 8256 90 4f 7f
        e 128 80 4f 40
        e 16 90 54 7f
        e 32 80 54 40
        e 16 90 54 7f
        e 128 80 54 40
        e 16 90 53 7f
        e 32 80 53 40
        e 16 90 53 7f
        e 128 80 53 40
        e 16 90 51 7f
        e 32 80 51 40
        e 16 90 51 7f
        e 128 80 51 40
        e 16 90 4f 7f
        e 32 80 4f 40
        e 16 90 4f 7f
        e 128 80 4f 40
        e 16 90 4e 7f
        e 32 80 4e 40
        e 16 90 4f 7f
        e 272 80 4f 40
        e 16 90 4d 7f
        e 80 80 4d 40
        e 16 90 4c 7f
        e 176 80 4c 40
        e 16 90 4a 7f
        e 128 80 4a 40
        e 16 90 4c 7f
        e 32 80 4c 40
        e 16 90 4d 7f
        e 128 80 4d 40
        e 16 90 4f 7f
        e 32 80 4f 40
        e 16 90 51 7f
        e 48 80 51 40
        e 16 90 4f 7f
        e 48 80 4f 40
        e 16 90 4d 7f
        e 48 80 4d 40
        e 16 90 4c 7f
        e 128 80 4c 40
        e 16 90 4d 7f
        e 32 80 4d 40
        e 16 90 4f 7f
        e 48 80 4f 40
        e 16 90 4d 7f
        e 48 80 4d 40
        e 16 90 4c 7f
        e 48 80 4c 40
        e 16 90 4a 7f
        e 176 80 4a 40
        e 400 90 4f 7f
        e 128 80 4f 40
        e 16 90 54 7f
        e 32 80 54 40
        e 16 90 54 7f
        e 128 80 54 40
        e 16 90 53 7f
        e 32 80 53 40
        e 16 90 53 7f
        e 128 80 53 40
        e 16 90 51 7f
        e 32 80 51 40
        e 16 90 51 7f
        e 128 80 51 40
        e 16 90 4f 7f
        e 32 80 4f 40
        e 16 90 4f 7f
        e 128 80 4f 40
        e 16 90 4e 7f
        e 32 80 4e 40
        e 16 90 4f 7f
        e 272 80 4f 40
        e 16 90 4d 7f
        e 80 80 4d 40
        e 16 90 4c 7f
        e 176 80 4c 40
        e 16 90 4f 7f
        e 128 80 4f 40
        e 16 90 54 7f
        e 32 80 54 40
        e 16 90 53 7f
        e 128 80 53 40
        e 16 90 52 7f
        e 32 80 52 40
        e 16 90 53 7f
        e 128 80 53 40
        e 16 90 54 7f
        e 32 80 54 40
        e 16 90 51 7f
        e 128 80 51 40
        e 16 90 50 7f
        e 32 80 50 40
        e 16 90 51 7f
        e 128 80 51 40
        e 16 90 53 7f
        e 32 80 53 40
        e 16 90 4f 7f
        e 368 80 4f 40
        e 208 90 4f 7f
        e 128 80 4f 40
        e 16 90 4f 7f
        e 32 80 4f 40
        e 16 90 4f 7f
        e 176 80 4f 40
        e 16 90 4f 7f
        e 128 80 4f 40
        e 16 90 4f 7f
        e 32 80 4f 40
        e 16 90 50 7f
        e 80 80 50 40
        e 16 90 4f 7f
        e 80 80 4f 40
        e 16 90 4d 7f
        e 80 80 4d 40
        e 16 90 4f 7f
        e 80 80 4f 40
        e 16 90 50 7f
        e 272 80 50 40
        e 16 90 4f 7f
        e 80 80 4f 40
        e 16 90 4d 7f
        e 176 80 4d 40
        e 16 90 50 7f
        e 128 80 50 40
        e 16 90 50 7f
        e 32 80 50 40
        e 16 90 50 7f
        e 176 80 50 40
        e 16 90 50 7f
        e 128 80 50 40
        e 16 90 50 7f
        e 32 80 50 40
        e 16 90 52 7f
        e 80 80 52 40
        e 16 90 50 7f
        e 80 80 50 40
        e 16 90 4f 7f
        e 80 80 4f 40
        e 16 90 50 7f
        e 80 80 50 40
        e 16 90 52 7f
        e 368 80 52 40
        e 208 90 4f 7f
        e 128 80 4f 40
        e 16 90 4f 7f
        e 32 80 4f 40
        e 16 90 54 7f
        e 176 80 54 40
        e 16 90 54 7f
        e 128 80 54 40
        e 16 90 54 7f
        e 32 80 54 40
        e 16 90 54 7f
        e 48 80 54 40
        e 16 90 52 7f
        e 48 80 52 40
        e 16 90 50 7f
        e 48 80 50 40
        e 16 90 50 7f
        e 48 80 50 40
        e 16 90 4f 7f
        e 48 80 4f 40
        e 16 90 4e 7f
        e 48 80 4e 40
        e 16 90 4f 7f
        e 368 80 4f 40
        e 208 90 4c 7f
        e 128 80 4c 40
        e 16 90 4c 7f
        e 32 80 4c 40
        e 16 90 4c 7f
        e 128 80 4c 40
        e 16 90 4a 7f
        e 32 80 4a 40
        e 16 90 4c 7f
        e 128 80 4c 40
        e 16 90 4a 7f
        e 32 80 4a 40
        e 16 90 4c 7f
        e 128 80 4c 40
        e 16 90 4a 7f
        e 32 80 4a 40
        e 16 90 4c 7f
        e 128 80 4c 40
        e 16 90 4d 7f
        e 32 80 4d 40
        e 16 90 4f 7f
        e 176 80 4f 40
        e 16 90 51 7f
        e 368 80 51 40
        e 16 90 4a 7f
        e 128 80 4a 40
        e 16 90 4a 7f
        e 32 80 4a 40
        e 16 90 4a 7f
        e 128 80 4a 40
        e 16 90 48 7f
        e 32 80 48 40
        e 16 90 4a 7f
        e 128 80 4a 40
        e 16 90 48 7f
        e 32 80 48 40
        e 16 90 4a 7f
        e 128 80 4a 40
        e 16 90 4c 7f
        e 32 80 4c 40
        e 16 90 4d 7f
        e 128 80 4d 40
        e 16 90 4e 7f
        e 32 80 4e 40
        e 16 90 51 7f
        e 176 80 51 40
        e 16 90 4f 7f
        e 80 80 4f 40
        e 112 90 51 7f
        e 80 80 51 40
        e 64 90 53 7f
        e 32 80 53 40
        e 16 90 54 7f
        e 48 80 54 40
        e 16 90 53 7f
        e 48 80 53 40
        e 16 90 51 7f
        e 48 80 51 40
        e 16 90 53 7f
        e 128 80 53 40
        e 16 90 51 7f
        e 32 80 51 40
        e 16 90 4f 7f
        e 128 80 4f 40
        e 16 90 4f 7f
        e 32 80 4f 40
        e 16 90 4d 7f
        e 128 80 4d 40
        e 16 90 4f 7f
        e 32 80 4f 40
        e 16 90 51 7f
        e 48 80 51 40
        e 16 90 4f 7f
        e 48 80 4f 40
        e 16 90 4d 7f
        e 48 80 4d 40
        e 16 90 4f 7f
        e 176 80 4f 40
        e 16 90 4c 7f
        e 176 80 4c 40
        e 16 90 51 7f
        e 128 80 51 40
        e 16 90 53 7f
        e 32 80 53 40
        e 16 90 54 7f
        e 48 80 54 40
        e 16 90 53 7f
        e 48 80 53 40
        e 16 90 51 7f
        e 48 80 51 40
        e 16 90 4f 7f
        e 128 80 4f 40
        e 16 90 54 7f
        e 32 80 54 40
        e 16 90 54 7f
        e 48 80 54 40
        e 16 90 53 7f
        e 48 80 53 40
        e 16 90 51 7f
        e 48 80 51 40
        e 16 90 51 7f
        e 48 80 51 40
        e 16 90 4f 7f
        e 48 80 4f 40
        e 14 90 4d 7f
        e 48 80 4d 40
        e 18 90 4d 7f
        e 48 80 4d 40
        e 16 90 4c 7f
        e 48 80 4c 40
        e 16 90 4a 7f
        e 48 80 4a 40
        e 16 90 48 7f
        e 176 80 48 40
        e 592 90 53 7f
        e 560 80 53 40
        e 16 90 54 7f
        e 176 80 54 40
        e 16 90 56 7f
        e 368 80 56 40
        e 16 90 56 7f
        e 176 80 56 40
        e 16 90 53 7f
        e 176 80 53 40
        e 16 90 54 7f
        e 368 80 54 40
        e 16 90 54 7f
        e 128 80 54 40
        e 16 90 53 7f
        e 32 80 53 40
        e 16 90 54 7f
        e 128 80 54 40
        e 16 90 56 7f
        e 32 80 56 40
        e 16 90 53 7f
        e 176 80 53 40
        e 16 90 53 7f
        e 176 80 53 40
        e 400 90 53 7f
        e 560 80 53 40
        e 16 90 54 7f
        e 176 80 54 40
        e 16 90 56 7f
        e 368 80 56 40
        e 16 90 56 7f
        e 176 80 56 40
        e 16 90 53 7f
        e 176 80 53 40
        e 16 90 54 7f
        e 368 80 54 40
        e 16 90 54 7f
        e 128 80 54 40
        e 16 90 53 7f
        e 32 80 53 40
        e 16 90 54 7f
        e 128 80 54 40
        e 16 90 56 7f
        e 32 80 56 40
        e 16 90 53 7f
        e 176 80 53 40
        e 400 90 4c 7f
        e 128 80 4c 40
        e 16 90 4d 7f
        e 32 80 4d 40
        e 16 90 4f 7f
        e 176 80 4f 40
        e 16 90 4f 7f
        e 128 80 4f 40
        e 16 90 51 7f
        e 32 80 51 40
        e 16 90 52 7f
        e 176 80 52 40
        e 16 90 52 7f
        e 128 80 52 40
        e 16 90 52 7f
        e 32 80 52 40
        e 16 90 52 7f
        e 176 80 52 40
        e 16 90 51 7f
        e 176 80 51 40
        e 208 90 4e 7f
        e 128 80 4e 40
        e 16 90 4f 7f
        e 32 80 4f 40
        e 16 90 51 7f
        e 176 80 51 40
        e 16 90 51 7f
        e 128 80 51 40
        e 16 90 53 7f
        e 32 80 53 40
        e 16 90 54 7f
        e 176 80 54 40
        e 16 90 54 7f
        e 128 80 54 40
        e 16 90 54 7f
        e 32 80 54 40
        e 16 90 53 7f
        e 368 80 53 40
        e 208 90 53 7f
        e 128 80 53 40
        e 16 90 53 7f
        e 32 80 53 40
        e 16 90 53 7f
        e 128 80 53 40
        e 16 90 51 7f
        e 32 80 51 40
        e 16 90 53 7f
        e 128 80 53 40
        e 16 90 51 7f
        e 32 80 51 40
        e 16 90 51 7f
        e 128 80 51 40
        e 16 90 4f 7f
        e 32 80 4f 40
        e 16 90 51 7f
        e 128 80 51 40
        e 16 90 4f 7f
        e 32 80 4f 40
        e 16 90 51 7f
        e 272 80 51 40
        e 16 90 4f 7f
        e 80 80 4f 40
        e 16 90 4c 7f
        e 176 80 4c 40
        e 16 90 54 7f
        e 128 80 54 40
        e 16 90 53 7f
        e 32 80 53 40
        e 16 90 53 7f
        e 128 80 53 40
        e 16 90 51 7f
        e 32 80 51 40
        e 16 90 53 7f
        e 128 80 53 40
        e 16 90 51 7f
        e 32 80 51 40
        e 16 90 51 7f
        e 128 80 51 40
        e 16 90 4f 7f
        e 32 80 4f 40
        e 16 90 51 7f
        e 128 80 51 40
        e 16 90 4f 7f
        e 32 80 4f 40
        e 16 90 4c 7f
        e 176 80 4c 40
        e 16 90 48 7f
        e 80 80 48 40
        e 16 90 4a 7f
        e 80 80 4a 40
        e 16 90 4c 7f
        e 80 80 4c 40
        e 16 90 4d 7f
        e 80 80 4d 40
        e 16 90 4f 7f
        e 80 80 4f 40
        e 16 90 51 7f
        e 80 80 51 40
        e 16 90 52 7f
        e 368 80 52 40
        e 16 90 56 7f
        e 176 80 56 40
        e 16 90 55 7f
        e 176 80 55 40
        e 16 90 56 7f
        e 176 80 56 40
        e 16 90 56 7f
        e 176 80 56 40
        e 208 90 54 7f
        e 128 80 54 40
        e 16 90 54 7f
        e 32 80 54 40
        e 16 90 58 7f
        e 176 80 58 40
        e 16 90 54 7f
        e 128 80 54 40
        e 16 90 54 7f
        e 32 80 54 40
        e 16 90 56 7f
        e 176 80 56 40
        e 16 90 53 7f
        e 128 80 53 40
        e 16 90 53 7f
        e 32 80 53 40
        e 16 90 54 7f
        e 176 80 54 40
        e 400 90 54 7f
        e 128 80 54 40
        e 16 90 54 7f
        e 30 80 54 40
        e 18 90 54 7f
        e 176 80 54 40
        e 16 90 54 7f
        e 128 80 54 40
        e 16 90 54 7f
        e 32 80 54 40
        e 16 90 56 7f
        e 176 80 56 40
        e 16 90 53 7f
        e 128 80 53 40
        e 16 90 53 7f
        e 30 80 53 40
        e 18 90 54 7f
        e 176 80 54 40
        e 400 90 54 7f
        e 128 80 54 40
        e 16 90 54 7f
        e 32 80 54 40
        e 16 90 58 7f
        e 174 80 58 40
        e 18 90 54 7f
        e 123 80 54 40
        e 21 90 54 7f
        e 32 80 54 40
        e 16 90 56 7f
        e 176 80 56 40
        e 16 90 53 7f
        e 128 80 53 40
        e 16 90 53 7f
        e 32 80 53 40
        e 16 90 54 7f
        e 176 80 54 40
        E 16 b0 7b 00
        GUID {1BD6AFCC-D1DF-6B40-8935-4DFA6CBB856E}
        IGNTEMPO 0 120 4 4
        SRCCOLOR 916
        VELLANE -1 86 6
        CFGEDITVIEW 0 0 50 24 0 0 0 0 0 0.5
        KEYSNAP 0
        TRACKSEL 226
        EVTFILTER 0 -1 -1 -1 -1 0 1 0 0 -1 -1 -1 -1 0 -1 0 -1 -1
        CFGEDIT 1 0 0 0 0 0 1 0 1 1 1 0.25 16 63 1280 778 0 0 2 3 0 0 0 0 0 0.5 0 0 1 64
      >
    >
  >
  <TRACK {9E2CAE92-CCC1-1F4A-BCF6-93DCFE473BDF}
    NAME "16th pulse (mix w/ send?)"
    PEAKCOL 16576
    BEAT -1
    AUTOMODE 0
    VOLPAN 1 0 -1 -1 1
    MUTESOLO 1 0 0
    IPHASE 0
    ISBUS 1 1
    BUSCOMP 0 0
    SHOWINMIX 1 0.6667 0.623188 1 0.5 0 0 0
    FREEMODE 0
    SEL 0
    REC 0 0 0 0 0 0 0
    VU 2
    TRACKHEIGHT 0 0
    INQ 0 0 0 0.5 100 0 0 100
    NCHAN 4
    FX 1
    TRACKID {9E2CAE92-CCC1-1F4A-BCF6-93DCFE473BDF}
    PERF 0
    AUXRECV 4 0 1 0 0 0 0 0 0 -1:U 64 -1 ''
    AUXRECV 5 0 1 0 0 0 0 0 0 -1:U 32 -1 ''
    MIDIOUT -1
    MAINSEND 0 0
    <FXCHAIN
      WNDRECT 36 359 724 387
      SHOW 0
      LASTSEL 0
      DOCKED 0
      BYPASS 0 0 0
      <VST "VSTi: chipsounds (Plogue Art et Technologie, Inc)" chipsounds.vst 0 "" 1347176271
        T0dMUO5e7f4AAAAABAAAAAEAAAAAAAAAAgAAAAAAAAAEAAAAAAAAAAgAAAAAAAAAogQAAAEAAAAAABAA
        Q0VHUKAYAAB4nO1ZXW/bNhR9z68Q9LQ9VCIpUiQBO4XjJIOBZQ3g7LlgZNYRKkuaRHnpfv2uJDumk9BylnQrsPAl4vX9OocUeaCMPt6vMm+tqzot8rGPA+R7H09PRpMq
        VXO11tZPEse+V1bFoknM7BwMCEn/9MSDMZprY9J8WXt/NCpLzTf41fdqU2m1AvPYj4jvrdT9vLNMsqxIrs7GPsNgvpqdzz415qpY6C5KNaZYKQM151lhxj6yTZle62zs
        pznkblY6N76XpWvdB4NnnbSNxm3xRGUKbNj74Om2q6BOso15CoG6GvsxRCyz4lZlN03e9QmGcAsJqnvporPlatXmx4F33VTam96lZTifnYcxE9j76beb+fRn37tV+dfZ
        YsOLxZsggDK5U3netg7ZyiIDgqjvmV3V8vZzpfIlVPkAzZcGJnX3w8p6LBIDS/IAtOW0MZv5n58zVZs2bd9/h+FKpfkWw1plTc9w+JwHfvBADg8y6BENetBBDzboEQ96
        8EEPMeghBz0wGnYZZhUP04qHecXDxGIns9eqUqvDS7xzcRbauXDXZtu52NwFVDLUDspjEfH2lHEEWTwEhDndqO0WyW7QOGJMEGfMMT1bWyLApM/LSIRjIqiTCxtohPsg
        8OeUEidQjm12UB8UUxJx0nLgCCJ2e6JjFHHMCGPc3d4epVEfRDEnEWFOIrhNcNwTLFgsqRDM3Z61/QLeV8IS8YiK2B0U72HqtwmJBIVn4QyyXu4A0PT0CSEIhVVzohJ2
        rQ0TGEuCJJHOGPnyGIn2MPXd8RjDVULd+zOyV5ehSEYcIQa7gsNyuUvtajk3m0S73easLxEZfkEkOuJwkCg+JpM4xkkec9Ac0zkmKHJ53ahqqc1GAiTFKrjOimWjg1Yh
        Bb9efgqaWlfIunW7qGlTg2Y5V0Z5d+ZbCaGMM+i3Tv+CZyosgQBU6XyRqv5xASHwsB2X/R+C3nbsQwx7jC8Fjf8noG+qdLnU1RxkpM4TXQ3DphGNHmBzCzZ5DjbeoN4M
        1B0k/BIReEYXguPHQKIpv5RHAMaIHgI9CluN+1ju4jeVu3grd8lO7uK31LvkXe++691/qndtnQWvSwy3aTtAcqEodt7g9lUsEWNw43NGhIgkdt4we5qU0xjubiEpizFo
        3rfS0U5FzJ0r59CcjHZSCwgREk4jd2JbPiJJN0oLcRB2x8nHqGd8UPvvyUeC5XGVnK/O62Sfrauc0trWVQc0zPfQVQdk3L+hq34sxfTk9nw0Lo64SNF/JR5wxF6qHs7a
        WaseMENn/PLsCRK3etgqDTidYExY1HI5/WGtz/T7rmsPSLyLL190YuzvmhtV1dMxWd2m7RYdkHbb76O//D7bplGJSdd6tvte280vHua1zqCwXtyo23ZuHyiVrrW50nnj
        pfXW3XQADr9FntH34HKm6hrkozJ3Yz+clGWWJt134jrsA0GIpmVdNPkCLF2tOjyQNuxX2gN78rUO2+yBgq1RPjoGn3SNn+16UpV6uUyVKXYNZ2n5ioatjGGb6jXduTiF
        Dla6Ut+B1k33BTj3NR61PwphU52ejMLtfx9OT/4G7a01ew==
        AAAQAAAA
      >
      FLOATPOS 409 269 870 508
      FXID {DC79668B-30D1-964C-A162-F245DBE294B0}
      WAK 0
      BYPASS 1 0 0
      <JS Delay/time_adjustment ""
        -10.000000 0.000000 -120.000000 0.000000 - - - - - - - - - - - - - - - - - - - - - - - - - - - - - - - - - - - - - - - - - - - - - - - - - - - - - - - - - - - - 
      >
      FLOATPOS 0 4 554 157
      FXID {40721658-5454-1743-9C6A-517A806DB8F9}
      WAK 0
    >
    <ITEM
      POSITION 0
      SNAPOFFS 0
      LENGTH 96
      LOOP 1
      ALLTAKES 0
      FADEIN 1 0 0 1 0 0
      FADEOUT 1 0 0 1 0 0
      MUTE 0
      SEL 0
      YPOS 0.317176 0.05
      IGUID {C32795AE-1964-714A-9971-235877DC45D5}
      IID 14
      NAME "Bass                 - National_Anthems_-_Chile.mid"
      VOLPAN 1 0 1 -1
      SOFFS 21.5 43
      PLAYRATE 1 1 0 -1 0 0.0025
      CHANMODE 0
      TAKECOLOR 26173599 B
      GUID {E3FEBC7A-021F-1445-80EA-D925A5662CF8}
      <SOURCE MIDI
        HASDATA 1 192 QN
        POOLEDEVTS {E293F809-B19C-E343-BC35-0B9EA998A5AF}
        <X 0 0 0 0 3 "Bass                "
          /wNCYXNzICAgICAgICAgICAgICAgIA==
        >
        e 2299 90 2b 7f
        e 142 80 2b 40
        e 48 90 2b 7f
        e 143 80 2b 40
        e 56 90 2b 7f
        e 91 90 2c 7f
        e 3 80 2b 40
        e 43 80 2c 40
        e 56 90 2d 7f
        e 95 80 2d 40
        e 0 90 2f 7f
        e 46 80 2f 40
        e 53 90 30 7f
        e 94 80 30 40
        e 103 90 2b 7f
        e 94 80 2b 40
        e 90 90 24 7f
        e 94 80 24 40
        e 1829 90 2c 7f
        e 128 80 2c 40
        e 61 90 2c 7f
        e 128 80 2c 40
        e 67 90 2c 7f
        e 128 80 2c 40
        e 61 90 2c 7f
        e 128 80 2c 40
        e 62 90 2b 7f
        e 128 80 2b 40
        e 67 90 2b 7f
        e 129 80 2b 40
        e 81 90 2b 7f
        e 128 80 2b 40
        e 46 90 2b 7f
        e 129 80 2b 40
        e 68 90 24 7f
        e 128 80 24 40
        e 632 90 24 7f
        e 128 80 24 40
        e 67 90 24 7f
        e 81 80 24 40
        e 66 90 24 7f
        e 33 80 24 40
        e 14 90 24 7f
        e 80 80 24 40
        e 301 90 24 7f
        e 128 80 24 40
        e 252 90 24 7f
        e 129 80 24 40
        e 259 90 24 7f
        e 80 80 24 40
        e 305 90 24 7f
        e 129 80 24 40
        e 257 90 2b 7f
        e 128 80 2b 40
        e 245 90 2b 7f
        e 128 80 2b 40
        e 262 90 2b 7f
        e 128 80 2b 40
        e 262 90 2b 7f
        e 81 80 2b 40
        e 299 90 24 7f
        e 128 80 24 40
        e 257 90 24 7f
        e 129 80 24 40
        e 257 90 24 7f
        e 128 80 24 40
        e 256 90 24 7f
        e 128 80 24 40
        e 259 90 26 7f
        e 128 80 26 40
        e 253 90 26 7f
        e 128 80 26 40
        e 259 90 2b 7f
        e 128 80 2b 40
        e 50 90 2b 7f
        e 80 80 2b 40
        e 76 90 2b 7f
        e 33 80 2b 40
        e 14 90 2b 7f
        e 80 80 2b 40
        e 297 90 27 7f
        e 273 80 27 40
        e 111 90 2b 7f
        e 177 80 2b 40
        e 212 90 2e 7f
        e 177 80 2e 40
        e 207 90 2e 7f
        e 129 80 2e 40
        e 252 90 2e 7f
        e 128 80 2e 40
        e 254 90 2e 7f
        e 129 80 2e 40
        e 260 90 27 7f
        e 129 80 27 40
        e 250 90 27 7f
        e 129 80 27 40
        e 255 90 2c 7f
        e 129 80 2c 40
        e 252 90 2c 7f
        e 177 80 2c 40
        e 210 90 2b 7f
        e 129 80 2b 40
        e 60 90 2b 7f
        e 129 80 2b 40
        e 25 90 2b 7f
        e 27 80 2b 40
        e 14 90 2b 7f
        e 81 80 2b 40
        e 302 90 24 7f
        e 80 80 24 40
        e 125 90 24 7f
        e 80 80 24 40
        e 102 90 24 7f
        e 80 80 24 40
        e 114 90 24 7f
        e 80 80 24 40
        e 110 90 24 7f
        e 80 80 24 40
        e 112 90 29 7f
        e 128 80 29 40
        e 446 90 2b 7f
        e 81 80 2b 40
        e 116 90 2b 7f
        e 81 80 2b 40
        e 110 90 2b 7f
        e 80 80 2b 40
        e 112 90 2b 7f
        e 128 80 2b 40
        e 59 90 24 7f
        e 80 80 24 40
        e 115 90 24 7f
        e 80 80 24 40
        e 112 90 29 7f
        e 128 80 29 40
        e 254 90 2b 7f
        e 129 80 2b 40
        e 265 90 2b 7f
        e 128 80 2b 40
        e 242 90 24 7f
        e 128 80 24 40
        e 262 90 29 7f
        e 128 80 29 40
        e 1024 90 24 7f
        e 128 80 24 40
        e 651 90 28 7f
        e 177 80 28 40
        e 199 90 28 7f
        e 177 80 28 40
        e 206 90 28 7f
        e 128 80 28 40
        e 254 90 28 7f
        e 176 80 28 40
        e 210 90 28 7f
        e 306 80 28 40
        e 78 90 28 7f
        e 294 80 28 40
        e 859 90 28 7f
        e 177 80 28 40
        e 199 90 28 7f
        e 129 80 28 40
        e 257 90 28 7f
        e 128 80 28 40
        e 257 90 28 7f
        e 129 80 28 40
        e 259 90 28 7f
        e 278 80 28 40
        e 106 90 28 7f
        e 307 80 28 40
        e 78 90 28 7f
        e 177 80 28 40
        e 114 90 28 7f
        e 33 80 28 40
        e 57 90 28 7f
        e 128 80 28 40
        e 254 90 24 7f
        e 129 80 24 40
        e 255 90 24 7f
        e 129 80 24 40
        e 257 90 29 7f
        e 128 80 29 40
        e 259 90 29 7f
        e 81 80 29 40
        e 297 90 26 7f
        e 128 80 26 40
        e 251 90 26 7f
        e 128 80 26 40
        e 262 90 2b 7f
        e 129 80 2b 40
        e 260 90 2b 7f
        e 81 80 2b 40
        e 303 90 2b 7f
        e 129 80 2b 40
        e 249 90 2b 7f
        e 128 80 2b 40
        e 253 90 24 7f
        e 128 80 24 40
        e 264 90 24 7f
        e 128 80 24 40
        e 252 90 2b 7f
        e 129 80 2b 40
        e 257 90 2b 7f
        e 128 80 2b 40
        e 251 90 24 7f
        e 129 80 24 40
        e 647 90 2e 7f
        e 129 80 2e 40
        e 247 90 2d 7f
        e 177 80 2d 40
        e 22 90 2b 7f
        e 176 80 2b 40
        e 14 90 29 7f
        e 128 80 29 40
        e 72 90 29 7f
        e 80 80 29 40
        e 493 90 2b 7f
        e 128 80 2b 40
        e 61 90 2b 7f
        e 80 80 2b 40
        e 57 90 2b 7f
        e 33 80 2b 40
        e 17 90 2b 7f
        e 80 80 2b 40
        e 125 90 2b 7f
        e 80 80 2b 40
        e 52 90 2b 7f
        e 33 80 2b 40
        e 14 90 24 7f
        e 128 80 24 40
        e 640 90 2b 7f
        e 128 80 2b 40
        e 256 90 2b 7f
        e 128 80 2b 40
        e 256 90 24 7f
        e 80 80 24 40
        e 685 90 2b 7f
        e 128 80 2b 40
        e 259 90 2b 7f
        e 128 80 2b 40
        e 259 90 24 7f
        e 128 80 24 40
        e 1413 90 24 7f
        e 80 80 24 40
        e 107 90 24 7f
        e 80 80 24 40
        e 69 90 24 7f
        e 32 80 24 40
        e 16 90 24 7f
        e 80 80 24 40
        E 109 b0 7b 00
        GUID {8E80C119-80C9-3141-9CCC-3016900289DB}
        IGNTEMPO 0 120 4 4
        SRCCOLOR 723
        VELLANE -1 86 6
        CFGEDITVIEW 9405.117109 291.437819 50 24 0 0 0 0 0 0.5
        KEYSNAP 0
        TRACKSEL 226
        EVTFILTER 0 -1 -1 -1 -1 0 1 0 0 -1 -1 -1 -1 0 -1 0 -1 -1
        CFGEDIT 1 0 0 0 0 0 1 0 1 1 1 0.25 16 63 1280 778 0 0 2 3 0 0 0 0 0 0.5 0 0 1 64
      >
      TAKE
      NAME "Bass                 - National_Anthems_-_Chile.mid"
      TAKEVOLPAN 0 1 -1
      SOFFS 21.5 43
      PLAYRATE 1 1 0 -1 0 0.0025
      CHANMODE 0
      GUID {4475D473-1155-0D42-AAD7-0D6A4E063B0B}
      <SOURCE MIDI
        HASDATA 1 192 QN
        POOLEDEVTS {CA92A74B-C900-624C-9DAB-9979DA2B67B1}
        <X 0 0 0 0 3 "Bass                "
          /wNCYXNzICAgICAgICAgICAgICAgIA==
        >
        e 2299 90 2b 7f
        e 142 80 2b 40
        e 48 90 2b 7f
        e 143 80 2b 40
        e 56 90 2b 7f
        e 91 90 2c 7f
        e 3 80 2b 40
        e 43 80 2c 40
        e 56 90 2d 7f
        e 95 80 2d 40
        e 0 90 2f 7f
        e 46 80 2f 40
        e 53 90 30 7f
        e 94 80 30 40
        e 103 90 2b 7f
        e 94 80 2b 40
        e 90 90 24 7f
        e 94 80 24 40
        e 1829 90 2c 7f
        e 128 80 2c 40
        e 61 90 2c 7f
        e 128 80 2c 40
        e 67 90 2c 7f
        e 128 80 2c 40
        e 61 90 2c 7f
        e 128 80 2c 40
        e 62 90 2b 7f
        e 128 80 2b 40
        e 67 90 2b 7f
        e 129 80 2b 40
        e 81 90 2b 7f
        e 128 80 2b 40
        e 46 90 2b 7f
        e 129 80 2b 40
        e 68 90 24 7f
        e 128 80 24 40
        e 632 90 24 7f
        e 128 80 24 40
        e 67 90 24 7f
        e 81 80 24 40
        e 66 90 24 7f
        e 33 80 24 40
        e 14 90 24 7f
        e 80 80 24 40
        e 301 90 24 7f
        e 128 80 24 40
        e 252 90 24 7f
        e 129 80 24 40
        e 259 90 24 7f
        e 80 80 24 40
        e 305 90 24 7f
        e 129 80 24 40
        e 257 90 2b 7f
        e 128 80 2b 40
        e 245 90 2b 7f
        e 128 80 2b 40
        e 262 90 2b 7f
        e 128 80 2b 40
        e 262 90 2b 7f
        e 81 80 2b 40
        e 299 90 24 7f
        e 128 80 24 40
        e 257 90 24 7f
        e 129 80 24 40
        e 257 90 24 7f
        e 128 80 24 40
        e 256 90 24 7f
        e 128 80 24 40
        e 259 90 26 7f
        e 128 80 26 40
        e 253 90 26 7f
        e 128 80 26 40
        e 259 90 2b 7f
        e 128 80 2b 40
        e 50 90 2b 7f
        e 80 80 2b 40
        e 76 90 2b 7f
        e 33 80 2b 40
        e 14 90 2b 7f
        e 80 80 2b 40
        e 297 90 27 7f
        e 273 80 27 40
        e 111 90 2b 7f
        e 177 80 2b 40
        e 212 90 2e 7f
        e 177 80 2e 40
        e 207 90 2e 7f
        e 129 80 2e 40
        e 252 90 2e 7f
        e 128 80 2e 40
        e 254 90 2e 7f
        e 129 80 2e 40
        e 260 90 27 7f
        e 129 80 27 40
        e 250 90 27 7f
        e 129 80 27 40
        e 255 90 2c 7f
        e 129 80 2c 40
        e 252 90 2c 7f
        e 177 80 2c 40
        e 210 90 2b 7f
        e 129 80 2b 40
        e 60 90 2b 7f
        e 129 80 2b 40
        e 25 90 2b 7f
        e 27 80 2b 40
        e 14 90 2b 7f
        e 81 80 2b 40
        e 302 90 24 7f
        e 80 80 24 40
        e 125 90 24 7f
        e 80 80 24 40
        e 102 90 24 7f
        e 80 80 24 40
        e 114 90 24 7f
        e 80 80 24 40
        e 110 90 24 7f
        e 80 80 24 40
        e 112 90 29 7f
        e 128 80 29 40
        e 446 90 2b 7f
        e 81 80 2b 40
        e 116 90 2b 7f
        e 81 80 2b 40
        e 110 90 2b 7f
        e 80 80 2b 40
        e 112 90 2b 7f
        e 128 80 2b 40
        e 59 90 24 7f
        e 80 80 24 40
        e 115 90 24 7f
        e 80 80 24 40
        e 112 90 29 7f
        e 128 80 29 40
        e 254 90 2b 7f
        e 129 80 2b 40
        e 265 90 2b 7f
        e 128 80 2b 40
        e 242 90 24 7f
        e 128 80 24 40
        e 262 90 29 7f
        e 128 80 29 40
        e 1024 90 24 7f
        e 128 80 24 40
        e 651 90 28 7f
        e 177 80 28 40
        e 199 90 28 7f
        e 177 80 28 40
        e 206 90 28 7f
        e 128 80 28 40
        e 254 90 28 7f
        e 176 80 28 40
        e 210 90 28 7f
        e 306 80 28 40
        e 78 90 28 7f
        e 294 80 28 40
        e 859 90 28 7f
        e 177 80 28 40
        e 199 90 28 7f
        e 129 80 28 40
        e 257 90 28 7f
        e 128 80 28 40
        e 257 90 28 7f
        e 129 80 28 40
        e 259 90 28 7f
        e 278 80 28 40
        e 106 90 28 7f
        e 307 80 28 40
        e 78 90 28 7f
        e 177 80 28 40
        e 114 90 28 7f
        e 33 80 28 40
        e 57 90 28 7f
        e 128 80 28 40
        e 254 90 24 7f
        e 129 80 24 40
        e 255 90 24 7f
        e 129 80 24 40
        e 257 90 29 7f
        e 128 80 29 40
        e 259 90 29 7f
        e 81 80 29 40
        e 297 90 26 7f
        e 128 80 26 40
        e 251 90 26 7f
        e 128 80 26 40
        e 262 90 2b 7f
        e 129 80 2b 40
        e 260 90 2b 7f
        e 81 80 2b 40
        e 303 90 2b 7f
        e 129 80 2b 40
        e 249 90 2b 7f
        e 128 80 2b 40
        e 253 90 24 7f
        e 128 80 24 40
        e 264 90 24 7f
        e 128 80 24 40
        e 252 90 2b 7f
        e 129 80 2b 40
        e 257 90 2b 7f
        e 128 80 2b 40
        e 251 90 24 7f
        e 129 80 24 40
        e 647 90 2e 7f
        e 129 80 2e 40
        e 247 90 2d 7f
        e 177 80 2d 40
        e 22 90 2b 7f
        e 176 80 2b 40
        e 14 90 29 7f
        e 128 80 29 40
        e 72 90 29 7f
        e 80 80 29 40
        e 493 90 2b 7f
        e 128 80 2b 40
        e 61 90 2b 7f
        e 80 80 2b 40
        e 57 90 2b 7f
        e 33 80 2b 40
        e 17 90 2b 7f
        e 80 80 2b 40
        e 125 90 2b 7f
        e 80 80 2b 40
        e 52 90 2b 7f
        e 33 80 2b 40
        e 14 90 24 7f
        e 128 80 24 40
        e 640 90 2b 7f
        e 128 80 2b 40
        e 256 90 2b 7f
        e 128 80 2b 40
        e 256 90 24 7f
        e 80 80 24 40
        e 685 90 2b 7f
        e 128 80 2b 40
        e 259 90 2b 7f
        e 128 80 2b 40
        e 259 90 24 7f
        e 128 80 24 40
        e 1413 90 24 7f
        e 80 80 24 40
        e 107 90 24 7f
        e 80 80 24 40
        e 69 90 24 7f
        e 32 80 24 40
        e 16 90 24 7f
        e 80 80 24 40
        E 109 b0 7b 00
        GUID {9CC91F69-1621-5F49-A72C-C3439CAA67AB}
        IGNTEMPO 0 120 4 4
        SRCCOLOR 913
        VELLANE -1 86 6
        CFGEDITVIEW 0 0 50 24 0 0 0 0 0 0.5
        KEYSNAP 0
        TRACKSEL 226
        EVTFILTER 0 -1 -1 -1 -1 0 1 0 0 -1 -1 -1 -1 0 -1 0 -1 -1
        CFGEDIT 1 0 0 0 0 0 1 0 1 1 1 0.25 16 63 1280 778 0 0 2 3 0 0 0 0 0 0.5 0 0 1 64
      >
    >
  >
  <TRACK {4FCA358B-3FAC-3749-9BC2-11E94F70145F}
    NAME 16ths
    PEAKCOL 16576
    BEAT -1
    AUTOMODE 0
    VOLPAN 1 0 -1 -1 1
    MUTESOLO 0 0 0
    IPHASE 0
    ISBUS 0 0
    BUSCOMP 0 0
    SHOWINMIX 1 0.6667 0.623188 1 0.5 0 0 0
    FREEMODE 0
    SEL 0
    REC 0 0 0 0 0 0 0
    VU 2
    TRACKHEIGHT 0 0
    INQ 0 0 0 0.5 100 0 0 100
    NCHAN 2
    FX 1
    TRACKID {4FCA358B-3FAC-3749-9BC2-11E94F70145F}
    PERF 0
    MIDIOUT -1
    MAINSEND 0 0
  >
  <TRACK {B0448BAA-9F98-5543-9DF7-CDB8296564E0}
    NAME Full
    PEAKCOL 16576
    BEAT -1
    AUTOMODE 0
    VOLPAN 1 0 -1 -1 1
    MUTESOLO 0 0 0
    IPHASE 0
    ISBUS 2 -1
    BUSCOMP 0 0
    SHOWINMIX 1 0.6667 0.623188 1 0.5 0 0 0
    FREEMODE 0
    SEL 0
    REC 0 0 0 0 0 0 0
    VU 2
    TRACKHEIGHT 0 0
    INQ 0 0 0 0.5 100 0 0 100
    NCHAN 2
    FX 1
    TRACKID {B0448BAA-9F98-5543-9DF7-CDB8296564E0}
    PERF 0
    MIDIOUT -1
    MAINSEND 0 0
  >
  <TRACK {5AFE27AD-822D-C34D-AFA1-36A455563115}
    NAME "Bass Return (global)"
    PEAKCOL 0
    BEAT -1
    AUTOMODE 0
    VOLPAN 1 0.024 -1 -1 1
    MUTESOLO 1 0 0
    IPHASE 0
    ISBUS 0 0
    BUSCOMP 0 0
    SHOWINMIX 1 0.6667 0.623188 1 0.5 0 0 0
    FREEMODE 0
    SEL 0
    REC 0 0 0 0 0 0 0
    VU 2
    TRACKHEIGHT 0 0
    INQ 0 0 0 0.5 100 0 0 100
    NCHAN 2
    FX 1
    TRACKID {5AFE27AD-822D-C34D-AFA1-36A455563115}
    PERF 0
    AUXRECV 1 0 1 0 1 0 0 0 0 -1:U 0 -1 ''
    AUXRECV 3 0 1 0 0 0 0 0 0 -1:U 0 -1 ''
    AUXRECV 7 0 1 0 0 0 0 4 0 -1:U 0 -1 ''
    MIDIOUT -1
    MAINSEND 1 0
    <FXCHAIN
      SHOW 0
      LASTSEL 0
      DOCKED 0
      BYPASS 1 0 0
      <VST "VST: 8-Bit Shaper (Xfer Records)" 8BitShaper.vst 0 "" 1148539762
        clN1RO5e7f4CAAAAAQAAAAAAAAACAAAAAAAAAAIAAAABAAAAAAAAAAIAAAAAAAAANAIAAAEAAAAAABAA
        ZmaGP0glkT6/VQw/uoPGPiQAci8AAIA/YXJ5L0NhY2guAAAALwAAAC8AAAAwAAAAMAAAADEAAAAxAAAAMQAAADIAAAAyAAAAMgAAADIAAAAzAAAAMwAAADMAAAAzAAAA
        MwAAADQAAAA0AAAANAAAADQAAAA1AAAANQAAADUAAAA1AAAAMAAAADYAAAA2AAAANwAAADcAAAA3AAAAOAAAADgAAAA5AAAANQAAADoAAAA2AAAAOgAAADYAAAA6AAAA
        NgAAADcAAAA7AAAAQQAAADsAAAA7AAAAOgAAADwAAAA6AAAAPAAAAD0AAABDAAAAPQAAAD4AAAA+AAAAPgAAAD8AAAA/AAAAPwAAAD8AAAA/AAAAQAAAAEAAAABAAAAA
        QAAAAEAAAAA7AAAAQQAAAEIAAAA8AAAAQgAAAEMAAABDAAAASAAAAEQAAABEAAAARQAAAEUAAABFAAAARgAAAEYAAAA+AAAARgAAAEYAAABHAAAARwAAAEcAAABHAAAA
        SAAAAEgAAABJAAAARAAAAEkAAABKAAAARwAAAEoAAABIAAAASQAAAEsAAABKAAAASwAAAEoAAABLAAAATQAAAEwAAABNAAAATQAAAE0AAABMAAAATgAAAE4AAABOAAAA
        TgAAAE8AAABPAAAATwAAAE8AAABQAAAAUAAAAE8AAABQAAAATwAAAFAAAABPAAAAUAAAAE8AAABPAAAAUAAAAAAAgD+rqqo+q6qqPhIuHj4dJXE/
        AEluaXQgMQAQAAAA
      >
      PRESETNAME "Init 1"
      FLOATPOS 32 39 277 388
      FXID {19A94086-1737-784E-A733-2897FDD09534}
      WAK 0
    >
  >
  <TRACK {3CF13A00-0AFC-8542-AD98-73B6D91102DB}
    NAME "vst Plogue"
    PEAKCOL 26779488
    BEAT -1
    AUTOMODE 0
    VOLPAN 1 0 -1 -1 1
    MUTESOLO 0 0 0
    IPHASE 0
    ISBUS 0 0
    BUSCOMP 0 0
    SHOWINMIX 1 0.6667 0.623188 1 0.5 0 0 0
    FREEMODE 0
    SEL 0
    REC 0 0 0 1 0 0 0
    VU 2
    TRACKHEIGHT 0 0
    INQ 0 0 0 0.5 100 0 0 100
    NCHAN 8
    FX 1
    TRACKID {3CF13A00-0AFC-8542-AD98-73B6D91102DB}
    PERF 0
    AUXRECV 9 0 1 0 0 0 0 0 0 -1:U 32 -1 ''
    AUXRECV 9 0 1 0 0 0 0 0 0 -1:U 96 -1 ''
    AUXRECV 10 0 1 0 0 0 0 0 0 -1:U 64 -1 ''
    AUXRECV 10 0 1 0 0 0 0 0 0 -1:U 128 -1 ''
    AUXRECV 11 0 1 0 0 0 0 0 0 -1:U 160 -1 ''
    MIDIOUT -1
    MAINSEND 0 0
    <FXCHAIN
      SHOW 0
      LASTSEL 0
      DOCKED 0
      BYPASS 0 0 0
      <VST "VSTi: chipsounds (Multi) (Plogue Art et Technologie, Inc) (32 out)" "chipsounds Multi.vst" 0 "" 1347241807
        T0dNUO5e7f4AAAAAIAAAAAEAAAAAAAAAAgAAAAAAAAAEAAAAAAAAAAgAAAAAAAAAEAAAAAAAAAAgAAAAAAAAAEAAAAAAAAAAgAAAAAAAAAAAAQAAAAAAAAACAAAAAAAA
        AAQAAAAAAAAACAAAAAAAAAAQAAAAAAAAACAAAAAAAAAAQAAAAAAAAACAAAAAAAAAAAABAAAAAAAAAAIAAAAAAAAABAAAAAAAAAAIAAAAAAAAABAAAAAAAAAAIAAAAAAA
        AABAAAAAAAAAAIAAAAAAAAAAAAEAAAAAAAAAAgAAAAAAAAAEAAAAAAAAAAgAAAAAAAAAEAAAAAAAAAAgAAAAAAAAAEAAAAAAAAAAgAAAAACTBgAAAQAAAAAAEAA=
        Q0VHUAc7AAB4nO1bW2/bNhR+z68Q/LQ9xOL9AiQpEqdZAyxrAGfYY6HYrCNMlj1Jzpr9+h1dbFOxacmzh7apiKKV6XPhOaT5feSpzt59mUbes0nScBaf93Af9bx3Fydn
        l0kYDINnY32lseh582Q2Xoyy22voQEj3Lk48aGdDk2VhPEm9vxZBFGYv8G3PS7PEBFPoPu9R0vOmwZdh0XMZRbPR3dV5j2Povru9vv24yO5mY1NoBYtsNg0y8DmMZtl5
        D9ldkXk20XkvjMH2YmrirOdF4bMplUEyHYFVWTwEUQBd2Dv1TD6ofjqKqu4B6JnkvCdAbhLNHoPoYREXw4QOfxkROPfCcdEXB9PcPO5794vEeIOncO4Pb699wRX2fvrt
        YTj4uec9BvGft+MqLVbaFIEgR09BHOcjB2vzWQT5YT0vW3udP35KgngCXk4hBfMMPqTFF1PrcTbKYEZWceYpXWTV578/RUGa5WbL8Rcx3AVhvIzhOYgWZYL9bRJ4JYEc
        EqRRgjZKsEYJ3ighGiVko4RqlNCNEhg1izRnFTenFTfnFTcnFjszex8kwXT3FK9FnI7WIlb6+4pzBA1rJClTgrp07GT2mS6UEJNCUZnvOg5HVnr7mOiicUKxIIo5lZit
        REtPnArGsHLqCFtHlTqEKlDhbiVrkfUhmHJ4SinCYKzYpaZsX7TwhDDWBGminTp6fx2NajGVo5MCw5bGiHOaKHbtJA9BMjFZtVWOZtP+fTSbLEw/B5L+rzcf+4vUJMja
        nQqtwSKFrf06yALvKXuZm3z35jDmNPwHnpmyNlIYr4nHYVA+jkEFHpbtpvyHoOO2eoh+GeO+QeMfJOiHJJxMTDIEuDXxyCTNYTPK6DJswq2wybawcRV11crPsnimA3mj
        a0EMEL3ZEciZn+P7a6jHR4V6vAXqVQf1HdR/C1CPa+CEhZDFz4YhjahwgoYVQV8jzgFkJCdKUY2dgGbjLZFMIK6VZlxgQPf/jULwVpyBs9K0EEoDbLqV7BhomalmduJc
        vYeBvY3BkB0hMMOSCo4kw242otE6PW54BzDZF98P2/WF3nfX5+WuDz3vN3f9ohFJr2odN4AFuazaEIXe620WEKlbaECTnQnqCNAbIkDbeQM5Km9gS96A17yBHZE3YNxA
        HJy4sgdxcJGPjji8FvnOiINzitci1lj6uDr4CkmwZMwJsTbCStby/N88lHakwMqe2xJrliFO8m0N2rkktpIUt502NzG8hR2bgnDC7GsA9yWFrk1x2TDTQF6EU6l244Bk
        dYuiFSKUEOd9zSu6U7lqvNxY+3JahtE2p0e7GZEtZC9fRMrQEJWEE+DTbjXRxvZ6mTuJm0aqjSXdQgi3WMMa1wgxLxaN0kTC9FP3pOAWy3EXBbWkcC3jtFy2SiEJ6XJr
        EdTmh05Qi58WSDmj6ZjgD8AEdwb91Q5FSNMBEluONFfFH6tdF4cihDYPRehK3mwef3LZTbt7U2V6VKpMvnI1rZkpu3hwd8X2KmNvmSl/zWpaVzzrimffF3h2jOG7LJ6x
        oyI73YLsvEP2Dtm/BWR/08Uz901RVzo7bumsQ/cO3V1hv70i6XbWIFesgfS9Mg3eH4Den2fJNPU/BMnYG77Eo7a0ga9qZ+KYNwKHcoXmelkzV3DxjY4rbIh8s1wB6+qc
        zYkW3A2ANlVAmulWt9u2J4EEAaagKNISSbGjumJjuiqrP4ozQol0w2iNYVQxEcUkY8QZEq6d6OVyE6nKP06tWqGp5S1FmzIcaVFlOFqprjadgtVuC9xa9tQA7ysXARyl
        lObMOTd7l/wwpTrnZZgQRSnZUSO1oxCsrLgA24J1TOVB3Mmuse2o0uo2dZmWNbXjlcva1LQIarGS/kt1qnXtDdSce3xHTzt6etDlE6F78lNcnNfK26fNalPeHKw116ps
        wVEY2iWneS4HW3qvJN+0u58FcXWwBXyoBS4PtcCuD7PQltO///zZjDL7vbmKRZfr7XL6GOarq4HKV77Ofvn9dmkmGGXhs7ktXwcky8/vV68HpiYCx2b8EDy+Iuv3iUlN
        dmfihRemhXj+f+qKAHb/ALzMfAGRB/h7kZix9yHMUjg3BNnTec+/nM+jcFS8j5j6pQU4gYTzdLaIx9BTOE39Hfb96qRzmczNZBLOUr/mqR/ALjR/tZdvhEK2hlKZDLLZ
        KoqrKJwfMHjLop+bOmR0rkSfemY6z16802MmeWX01YjPfFhcFydn/vIl14uTfwHBP3a2
        AAAQAAAA
      >
      FLOATPOS 292 269 870 508
      FXID {C804D762-B992-A540-81BF-3D6C0F7FF19B}
      WAK 0
    >
  >
  <TRACK {361291E9-E6AB-604E-AA43-746A4AF7FC9C}
    NAME "midi "
    PEAKCOL 16576
    BEAT -1
    AUTOMODE 0
    VOLPAN 1 0 -1 -1 1
    MUTESOLO 0 0 0
    IPHASE 0
    ISBUS 1 1
    BUSCOMP 1 0
    SHOWINMIX 1 0.6667 0.623188 1 0.5 0 0 0
    FREEMODE 0
    SEL 0
    REC 0 0 0 0 0 0 0
    VU 2
    TRACKHEIGHT 0 0
    INQ 0 0 0 0.5 100 0 0 100
    NCHAN 2
    FX 1
    TRACKID {361291E9-E6AB-604E-AA43-746A4AF7FC9C}
    PERF 0
    MIDIOUT -1
    MAINSEND 1 0
  >
  <TRACK {2BB5EACD-C1BC-284E-92F6-33B7023B768F}
    NAME "ch1,3 (send)"
    PEAKCOL 16576
    BEAT -1
    AUTOMODE 0
    VOLPAN 1 0 -1 -1 1
    MUTESOLO 0 0 0
    IPHASE 0
    ISBUS 0 0
    BUSCOMP 0 0
    SHOWINMIX 1 0.6667 0.623188 1 0.5 0 0 0
    FREEMODE 0
    SEL 1
    REC 0 0 0 0 0 0 0
    VU 2
    MIDICTL -1 1
    TRACKHEIGHT 84 0
    INQ 0 0 0 0.5 100 0 0 100
    NCHAN 2
    FX 1
    TRACKID {2BB5EACD-C1BC-284E-92F6-33B7023B768F}
    PERF 0
    MIDIOUT -1
    MAINSEND 1 0
    <FXCHAIN
      SHOW 0
      LASTSEL 0
      DOCKED 0
    >
    <ITEM
      POSITION 0
      SNAPOFFS 0
      LENGTH 91
      LOOP 1
      ALLTAKES 0
      FADEIN 1 0 0 1 0 0
      FADEOUT 1 0 0 1 0 0
      MUTE 0
      SEL 1
      YPOS 0.845802 0.05
      IGUID {10FBA3FD-666E-054E-9D05-6B99FEE22B00}
      IID 11
      NAME "Melody               - National_Anthems_-_Chile.mid"
      VOLPAN 1 0 1 -1
      SOFFS 21.5 43
      PLAYRATE 1 1 0 -1 0 0.0025
      CHANMODE 0
      TAKECOLOR 26173599 B
      GUID {484A9257-F409-9342-BD42-B9E2101E5DC4}
      <SOURCE MIDI
        HASDATA 1 192 QN
        POOLEDEVTS {7F13A767-A999-B742-9726-3BDE6E2EF2AD}
        <X 0 0 0 0 3 "Melody              "
          /wNNZWxvZHkgICAgICAgICAgICAgIA==
        >
        <X 0 0 0 0 1 "THE SOFTWARE TOOLWORKS"
          /wFUSEUgU09GVFdBUkUgVE9PTFdPUktT
        >
        <X 0 0 0 0 1 "WORLD ATLAS"
          /wFXT1JMRCBBVExBUw==
        >
        <X 0 0 0 0 1 "MultiMedia Windows Version"
          /wFNdWx0aU1lZGlhIFdpbmRvd3MgVmVyc2lvbg==
        >
        <X 0 0 0 0 1 "Country: CHILE"
          /wFDb3VudHJ5OiBDSElMRQ==
        >
        <X 0 0 0 0 1 "(p) (c) The Software Toolworks 1991"
          /wEocCkgKGMpIFRoZSBTb2Z0d2FyZSBUb29sd29ya3MgMTk5MQ==
        >
        <X 0 0 0 0 1 "revised 11-26-91"
          /wFyZXZpc2VkIDExLTI2LTkx
        >
        <X 0 0 0 0 1 "edit date:9-1-91"
          /wFlZGl0IGRhdGU6OS0xLTkx
        >
        <X 0 0 0 0 1 "This file provided by:"
          /wFUaGlzIGZpbGUgcHJvdmlkZWQgYnk6
        >
        <X 0 0 0 0 1 "Rob Wallace Music"
          /wFSb2IgV2FsbGFjZSBNdXNpYw==
        >
        <X 0 0 0 0 1 "{602} 979-6201"
          /wF7NjAyfSA5NzktNjIwMQ==
        >
        <X 0 0 0 0 1 "MULTIMEDIA WINDOWS VERSION"
          /wFNVUxUSU1FRElBIFdJTkRPV1MgVkVSU0lPTg==
        >
        e 8256 90 43 7f
        e 128 80 43 40
        e 16 90 48 7f
        e 32 80 48 40
        e 16 90 48 7f
        e 128 80 48 40
        e 16 90 47 7f
        e 32 80 47 40
        e 16 90 47 7f
        e 128 80 47 40
        e 16 90 45 7f
        e 32 80 45 40
        e 16 90 45 7f
        e 128 80 45 40
        e 16 90 43 7f
        e 32 80 43 40
        e 16 90 43 7f
        e 128 80 43 40
        e 16 90 42 7f
        e 32 80 42 40
        e 16 90 43 7f
        e 272 80 43 40
        e 16 90 41 7f
        e 80 80 41 40
        e 16 90 40 7f
        e 176 80 40 40
        e 16 90 3e 7f
        e 128 80 3e 40
        e 16 90 40 7f
        e 32 80 40 40
        e 16 90 41 7f
        e 128 80 41 40
        e 16 90 43 7f
        e 32 80 43 40
        e 16 90 45 7f
        e 48 80 45 40
        e 16 90 43 7f
        e 48 80 43 40
        e 16 90 41 7f
        e 48 80 41 40
        e 16 90 40 7f
        e 128 80 40 40
        e 16 90 41 7f
        e 32 80 41 40
        e 16 90 43 7f
        e 48 80 43 40
        e 16 90 41 7f
        e 48 80 41 40
        e 16 90 40 7f
        e 48 80 40 40
        e 16 90 3e 7f
        e 176 80 3e 40
        e 400 90 43 7f
        e 128 80 43 40
        e 16 90 48 7f
        e 32 80 48 40
        e 16 90 48 7f
        e 128 80 48 40
        e 16 90 47 7f
        e 32 80 47 40
        e 16 90 47 7f
        e 128 80 47 40
        e 16 90 45 7f
        e 32 80 45 40
        e 16 90 45 7f
        e 128 80 45 40
        e 16 90 43 7f
        e 32 80 43 40
        e 16 90 43 7f
        e 128 80 43 40
        e 16 90 42 7f
        e 32 80 42 40
        e 16 90 43 7f
        e 272 80 43 40
        e 16 90 41 7f
        e 80 80 41 40
        e 16 90 40 7f
        e 176 80 40 40
        e 16 90 43 7f
        e 128 80 43 40
        e 16 90 48 7f
        e 32 80 48 40
        e 16 90 47 7f
        e 128 80 47 40
        e 16 90 46 7f
        e 32 80 46 40
        e 16 90 47 7f
        e 128 80 47 40
        e 16 90 48 7f
        e 32 80 48 40
        e 16 90 45 7f
        e 128 80 45 40
        e 16 90 44 7f
        e 32 80 44 40
        e 16 90 45 7f
        e 128 80 45 40
        e 16 90 47 7f
        e 32 80 47 40
        e 16 90 43 7f
        e 368 80 43 40
        e 208 90 43 7f
        e 128 80 43 40
        e 16 90 43 7f
        e 32 80 43 40
        e 16 90 43 7f
        e 176 80 43 40
        e 16 90 43 7f
        e 128 80 43 40
        e 16 90 43 7f
        e 32 80 43 40
        e 16 90 44 7f
        e 80 80 44 40
        e 16 90 43 7f
        e 80 80 43 40
        e 16 90 41 7f
        e 80 80 41 40
        e 16 90 43 7f
        e 80 80 43 40
        e 16 90 44 7f
        e 272 80 44 40
        e 16 90 43 7f
        e 80 80 43 40
        e 16 90 41 7f
        e 176 80 41 40
        e 16 90 44 7f
        e 128 80 44 40
        e 16 90 44 7f
        e 32 80 44 40
        e 16 90 44 7f
        e 176 80 44 40
        e 16 90 44 7f
        e 128 80 44 40
        e 16 90 44 7f
        e 32 80 44 40
        e 16 90 46 7f
        e 80 80 46 40
        e 16 90 44 7f
        e 80 80 44 40
        e 16 90 43 7f
        e 80 80 43 40
        e 16 90 44 7f
        e 80 80 44 40
        e 16 90 46 7f
        e 368 80 46 40
        e 208 90 43 7f
        e 128 80 43 40
        e 16 90 43 7f
        e 32 80 43 40
        e 16 90 48 7f
        e 176 80 48 40
        e 16 90 48 7f
        e 128 80 48 40
        e 16 90 48 7f
        e 32 80 48 40
        e 16 90 48 7f
        e 48 80 48 40
        e 16 90 46 7f
        e 48 80 46 40
        e 16 90 44 7f
        e 48 80 44 40
        e 16 90 44 7f
        e 48 80 44 40
        e 16 90 43 7f
        e 48 80 43 40
        e 16 90 42 7f
        e 48 80 42 40
        e 16 90 43 7f
        e 368 80 43 40
        e 208 90 40 7f
        e 128 80 40 40
        e 16 90 40 7f
        e 32 80 40 40
        e 16 90 40 7f
        e 128 80 40 40
        e 16 90 3e 7f
        e 32 80 3e 40
        e 16 90 40 7f
        e 128 80 40 40
        e 16 90 3e 7f
        e 32 80 3e 40
        e 16 90 40 7f
        e 128 80 40 40
        e 16 90 3e 7f
        e 32 80 3e 40
        e 16 90 40 7f
        e 128 80 40 40
        e 16 90 41 7f
        e 32 80 41 40
        e 16 90 43 7f
        e 176 80 43 40
        e 16 90 45 7f
        e 368 80 45 40
        e 16 90 3e 7f
        e 128 80 3e 40
        e 16 90 3e 7f
        e 32 80 3e 40
        e 16 90 3e 7f
        e 128 80 3e 40
        e 16 90 3c 7f
        e 32 80 3c 40
        e 16 90 3e 7f
        e 128 80 3e 40
        e 16 90 3c 7f
        e 32 80 3c 40
        e 16 90 3e 7f
        e 128 80 3e 40
        e 16 90 40 7f
        e 32 80 40 40
        e 16 90 41 7f
        e 128 80 41 40
        e 16 90 42 7f
        e 32 80 42 40
        e 16 90 45 7f
        e 176 80 45 40
        e 16 90 43 7f
        e 80 80 43 40
        e 112 90 45 7f
        e 80 80 45 40
        e 64 90 47 7f
        e 32 80 47 40
        e 16 90 48 7f
        e 48 80 48 40
        e 16 90 47 7f
        e 48 80 47 40
        e 16 90 45 7f
        e 48 80 45 40
        e 16 90 47 7f
        e 128 80 47 40
        e 16 90 45 7f
        e 32 80 45 40
        e 16 90 43 7f
        e 128 80 43 40
        e 16 90 43 7f
        e 32 80 43 40
        e 16 90 41 7f
        e 128 80 41 40
        e 16 90 43 7f
        e 32 80 43 40
        e 16 90 45 7f
        e 48 80 45 40
        e 16 90 43 7f
        e 48 80 43 40
        e 16 90 41 7f
        e 48 80 41 40
        e 16 90 43 7f
        e 176 80 43 40
        e 16 90 40 7f
        e 176 80 40 40
        e 16 90 45 7f
        e 128 80 45 40
        e 16 90 47 7f
        e 32 80 47 40
        e 16 90 48 7f
        e 48 80 48 40
        e 16 90 47 7f
        e 48 80 47 40
        e 16 90 45 7f
        e 48 80 45 40
        e 16 90 43 7f
        e 128 80 43 40
        e 16 90 48 7f
        e 32 80 48 40
        e 16 90 48 7f
        e 48 80 48 40
        e 16 90 47 7f
        e 48 80 47 40
        e 16 90 45 7f
        e 48 80 45 40
        e 16 90 45 7f
        e 48 80 45 40
        e 16 90 43 7f
        e 48 80 43 40
        e 14 90 41 7f
        e 48 80 41 40
        e 18 90 41 7f
        e 48 80 41 40
        e 16 90 40 7f
        e 48 80 40 40
        e 16 90 3e 7f
        e 48 80 3e 40
        e 16 90 3c 7f
        e 176 80 3c 40
        e 592 90 47 7f
        e 560 80 47 40
        e 16 90 48 7f
        e 176 80 48 40
        e 16 90 4a 7f
        e 368 80 4a 40
        e 16 90 4a 7f
        e 176 80 4a 40
        e 16 90 47 7f
        e 176 80 47 40
        e 16 90 48 7f
        e 368 80 48 40
        e 16 90 48 7f
        e 128 80 48 40
        e 16 90 47 7f
        e 32 80 47 40
        e 16 90 48 7f
        e 128 80 48 40
        e 16 90 4a 7f
        e 32 80 4a 40
        e 16 90 47 7f
        e 176 80 47 40
        e 16 90 47 7f
        e 176 80 47 40
        e 400 90 47 7f
        e 560 80 47 40
        e 16 90 48 7f
        e 176 80 48 40
        e 16 90 4a 7f
        e 368 80 4a 40
        e 16 90 4a 7f
        e 176 80 4a 40
        e 16 90 47 7f
        e 176 80 47 40
        e 16 90 48 7f
        e 368 80 48 40
        e 16 90 48 7f
        e 128 80 48 40
        e 16 90 47 7f
        e 32 80 47 40
        e 16 90 48 7f
        e 128 80 48 40
        e 16 90 4a 7f
        e 32 80 4a 40
        e 16 90 47 7f
        e 176 80 47 40
        e 400 90 40 7f
        e 128 80 40 40
        e 16 90 41 7f
        e 32 80 41 40
        e 16 90 43 7f
        e 176 80 43 40
        e 16 90 43 7f
        e 128 80 43 40
        e 16 90 45 7f
        e 32 80 45 40
        e 16 90 46 7f
        e 176 80 46 40
        e 16 90 46 7f
        e 128 80 46 40
        e 16 90 46 7f
        e 32 80 46 40
        e 16 90 46 7f
        e 176 80 46 40
        e 16 90 45 7f
        e 176 80 45 40
        e 208 90 42 7f
        e 128 80 42 40
        e 16 90 43 7f
        e 32 80 43 40
        e 16 90 45 7f
        e 176 80 45 40
        e 16 90 45 7f
        e 128 80 45 40
        e 16 90 47 7f
        e 32 80 47 40
        e 16 90 48 7f
        e 176 80 48 40
        e 16 90 48 7f
        e 128 80 48 40
        e 16 90 48 7f
        e 32 80 48 40
        e 16 90 47 7f
        e 368 80 47 40
        e 208 90 47 7f
        e 128 80 47 40
        e 16 90 47 7f
        e 32 80 47 40
        e 16 90 47 7f
        e 128 80 47 40
        e 16 90 45 7f
        e 32 80 45 40
        e 16 90 47 7f
        e 128 80 47 40
        e 16 90 45 7f
        e 32 80 45 40
        e 16 90 45 7f
        e 128 80 45 40
        e 16 90 43 7f
        e 32 80 43 40
        e 16 90 45 7f
        e 128 80 45 40
        e 16 90 43 7f
        e 32 80 43 40
        e 16 90 45 7f
        e 272 80 45 40
        e 16 90 43 7f
        e 80 80 43 40
        e 16 90 40 7f
        e 176 80 40 40
        e 16 90 48 7f
        e 128 80 48 40
        e 16 90 47 7f
        e 32 80 47 40
        e 16 90 47 7f
        e 128 80 47 40
        e 16 90 45 7f
        e 32 80 45 40
        e 16 90 47 7f
        e 128 80 47 40
        e 16 90 45 7f
        e 32 80 45 40
        e 16 90 45 7f
        e 128 80 45 40
        e 16 90 43 7f
        e 32 80 43 40
        e 16 90 45 7f
        e 128 80 45 40
        e 16 90 43 7f
        e 32 80 43 40
        e 16 90 40 7f
        e 176 80 40 40
        e 16 90 3c 7f
        e 80 80 3c 40
        e 16 90 3e 7f
        e 80 80 3e 40
        e 16 90 40 7f
        e 80 80 40 40
        e 16 90 41 7f
        e 80 80 41 40
        e 16 90 43 7f
        e 80 80 43 40
        e 16 90 45 7f
        e 80 80 45 40
        e 16 90 46 7f
        e 368 80 46 40
        e 16 90 4a 7f
        e 176 80 4a 40
        e 16 90 49 7f
        e 176 80 49 40
        e 16 90 4a 7f
        e 176 80 4a 40
        e 16 90 4a 7f
        e 176 80 4a 40
        e 208 90 48 7f
        e 128 80 48 40
        e 16 90 48 7f
        e 32 80 48 40
        e 16 90 4c 7f
        e 176 80 4c 40
        e 16 90 48 7f
        e 128 80 48 40
        e 16 90 48 7f
        e 32 80 48 40
        e 16 90 4a 7f
        e 176 80 4a 40
        e 16 90 47 7f
        e 128 80 47 40
        e 16 90 47 7f
        e 32 80 47 40
        e 16 90 48 7f
        e 176 80 48 40
        e 400 90 48 7f
        e 128 80 48 40
        e 16 90 48 7f
        e 30 80 48 40
        e 18 90 48 7f
        e 176 80 48 40
        e 16 90 48 7f
        e 128 80 48 40
        e 16 90 48 7f
        e 32 80 48 40
        e 16 90 4a 7f
        e 176 80 4a 40
        e 16 90 47 7f
        e 128 80 47 40
        e 16 90 47 7f
        e 30 80 47 40
        e 18 90 48 7f
        e 176 80 48 40
        e 400 90 48 7f
        e 128 80 48 40
        e 16 90 48 7f
        e 32 80 48 40
        e 16 90 4c 7f
        e 174 80 4c 40
        e 18 90 48 7f
        e 123 80 48 40
        e 21 90 48 7f
        e 32 80 48 40
        e 16 90 4a 7f
        e 176 80 4a 40
        e 16 90 47 7f
        e 128 80 47 40
        e 16 90 47 7f
        e 32 80 47 40
        e 16 90 48 7f
        e 176 80 48 40
        E 16 b0 7b 00
        GUID {5D8FE9D2-6A75-314F-93C8-19259C2F1655}
        IGNTEMPO 0 120 4 4
        SRCCOLOR 720
        VELLANE -1 86 6
        CFGEDITVIEW 6508.8 8.671329 50 24 0 0 0 0 0 0.5
        KEYSNAP 0
        TRACKSEL 226
        EVTFILTER 0 -1 -1 -1 -1 0 1 0 0 -1 -1 -1 -1 0 -1 0 -1 -1
        CFGEDIT 1 0 0 0 0 0 1 0 1 1 1 0.25 16 63 1280 778 0 0 2 3 0 0 0 0 0 0.5 0 0 1 64
      >
      TAKE
      NAME "Melody               - National_Anthems_-_Chile.mid"
      TAKEVOLPAN 0 1 -1
      SOFFS 21.5 43
      PLAYRATE 1 1 0 -1 0 0.0025
      CHANMODE 0
      GUID {99C238BA-EBF9-8D40-B3E8-4E6FBE876DD8}
      <SOURCE MIDI
        HASDATA 1 192 QN
        POOLEDEVTS {ADEB65B2-E038-CE45-A0B8-A247A5654E33}
        <X 0 0 0 0 3 "Melody              "
          /wNNZWxvZHkgICAgICAgICAgICAgIA==
        >
        <X 0 0 0 0 1 "THE SOFTWARE TOOLWORKS"
          /wFUSEUgU09GVFdBUkUgVE9PTFdPUktT
        >
        <X 0 0 0 0 1 "WORLD ATLAS"
          /wFXT1JMRCBBVExBUw==
        >
        <X 0 0 0 0 1 "MultiMedia Windows Version"
          /wFNdWx0aU1lZGlhIFdpbmRvd3MgVmVyc2lvbg==
        >
        <X 0 0 0 0 1 "Country: CHILE"
          /wFDb3VudHJ5OiBDSElMRQ==
        >
        <X 0 0 0 0 1 "(p) (c) The Software Toolworks 1991"
          /wEocCkgKGMpIFRoZSBTb2Z0d2FyZSBUb29sd29ya3MgMTk5MQ==
        >
        <X 0 0 0 0 1 "revised 11-26-91"
          /wFyZXZpc2VkIDExLTI2LTkx
        >
        <X 0 0 0 0 1 "edit date:9-1-91"
          /wFlZGl0IGRhdGU6OS0xLTkx
        >
        <X 0 0 0 0 1 "This file provided by:"
          /wFUaGlzIGZpbGUgcHJvdmlkZWQgYnk6
        >
        <X 0 0 0 0 1 "Rob Wallace Music"
          /wFSb2IgV2FsbGFjZSBNdXNpYw==
        >
        <X 0 0 0 0 1 "{602} 979-6201"
          /wF7NjAyfSA5NzktNjIwMQ==
        >
        <X 0 0 0 0 1 "MULTIMEDIA WINDOWS VERSION"
          /wFNVUxUSU1FRElBIFdJTkRPV1MgVkVSU0lPTg==
        >
        e 8256 90 43 7f
        e 128 80 43 40
        e 16 90 48 7f
        e 32 80 48 40
        e 16 90 48 7f
        e 128 80 48 40
        e 16 90 47 7f
        e 32 80 47 40
        e 16 90 47 7f
        e 128 80 47 40
        e 16 90 45 7f
        e 32 80 45 40
        e 16 90 45 7f
        e 128 80 45 40
        e 16 90 43 7f
        e 32 80 43 40
        e 16 90 43 7f
        e 128 80 43 40
        e 16 90 42 7f
        e 32 80 42 40
        e 16 90 43 7f
        e 272 80 43 40
        e 16 90 41 7f
        e 80 80 41 40
        e 16 90 40 7f
        e 176 80 40 40
        e 16 90 3e 7f
        e 128 80 3e 40
        e 16 90 40 7f
        e 32 80 40 40
        e 16 90 41 7f
        e 128 80 41 40
        e 16 90 43 7f
        e 32 80 43 40
        e 16 90 45 7f
        e 48 80 45 40
        e 16 90 43 7f
        e 48 80 43 40
        e 16 90 41 7f
        e 48 80 41 40
        e 16 90 40 7f
        e 128 80 40 40
        e 16 90 41 7f
        e 32 80 41 40
        e 16 90 43 7f
        e 48 80 43 40
        e 16 90 41 7f
        e 48 80 41 40
        e 16 90 40 7f
        e 48 80 40 40
        e 16 90 3e 7f
        e 176 80 3e 40
        e 400 90 43 7f
        e 128 80 43 40
        e 16 90 48 7f
        e 32 80 48 40
        e 16 90 48 7f
        e 128 80 48 40
        e 16 90 47 7f
        e 32 80 47 40
        e 16 90 47 7f
        e 128 80 47 40
        e 16 90 45 7f
        e 32 80 45 40
        e 16 90 45 7f
        e 128 80 45 40
        e 16 90 43 7f
        e 32 80 43 40
        e 16 90 43 7f
        e 128 80 43 40
        e 16 90 42 7f
        e 32 80 42 40
        e 16 90 43 7f
        e 272 80 43 40
        e 16 90 41 7f
        e 80 80 41 40
        e 16 90 40 7f
        e 176 80 40 40
        e 16 90 43 7f
        e 128 80 43 40
        e 16 90 48 7f
        e 32 80 48 40
        e 16 90 47 7f
        e 128 80 47 40
        e 16 90 46 7f
        e 32 80 46 40
        e 16 90 47 7f
        e 128 80 47 40
        e 16 90 48 7f
        e 32 80 48 40
        e 16 90 45 7f
        e 128 80 45 40
        e 16 90 44 7f
        e 32 80 44 40
        e 16 90 45 7f
        e 128 80 45 40
        e 16 90 47 7f
        e 32 80 47 40
        e 16 90 43 7f
        e 368 80 43 40
        e 208 90 43 7f
        e 128 80 43 40
        e 16 90 43 7f
        e 32 80 43 40
        e 16 90 43 7f
        e 176 80 43 40
        e 16 90 43 7f
        e 128 80 43 40
        e 16 90 43 7f
        e 32 80 43 40
        e 16 90 44 7f
        e 80 80 44 40
        e 16 90 43 7f
        e 80 80 43 40
        e 16 90 41 7f
        e 80 80 41 40
        e 16 90 43 7f
        e 80 80 43 40
        e 16 90 44 7f
        e 272 80 44 40
        e 16 90 43 7f
        e 80 80 43 40
        e 16 90 41 7f
        e 176 80 41 40
        e 16 90 44 7f
        e 128 80 44 40
        e 16 90 44 7f
        e 32 80 44 40
        e 16 90 44 7f
        e 176 80 44 40
        e 16 90 44 7f
        e 128 80 44 40
        e 16 90 44 7f
        e 32 80 44 40
        e 16 90 46 7f
        e 80 80 46 40
        e 16 90 44 7f
        e 80 80 44 40
        e 16 90 43 7f
        e 80 80 43 40
        e 16 90 44 7f
        e 80 80 44 40
        e 16 90 46 7f
        e 368 80 46 40
        e 208 90 43 7f
        e 128 80 43 40
        e 16 90 43 7f
        e 32 80 43 40
        e 16 90 48 7f
        e 176 80 48 40
        e 16 90 48 7f
        e 128 80 48 40
        e 16 90 48 7f
        e 32 80 48 40
        e 16 90 48 7f
        e 48 80 48 40
        e 16 90 46 7f
        e 48 80 46 40
        e 16 90 44 7f
        e 48 80 44 40
        e 16 90 44 7f
        e 48 80 44 40
        e 16 90 43 7f
        e 48 80 43 40
        e 16 90 42 7f
        e 48 80 42 40
        e 16 90 43 7f
        e 368 80 43 40
        e 208 90 40 7f
        e 128 80 40 40
        e 16 90 40 7f
        e 32 80 40 40
        e 16 90 40 7f
        e 128 80 40 40
        e 16 90 3e 7f
        e 32 80 3e 40
        e 16 90 40 7f
        e 128 80 40 40
        e 16 90 3e 7f
        e 32 80 3e 40
        e 16 90 40 7f
        e 128 80 40 40
        e 16 90 3e 7f
        e 32 80 3e 40
        e 16 90 40 7f
        e 128 80 40 40
        e 16 90 41 7f
        e 32 80 41 40
        e 16 90 43 7f
        e 176 80 43 40
        e 16 90 45 7f
        e 368 80 45 40
        e 16 90 3e 7f
        e 128 80 3e 40
        e 16 90 3e 7f
        e 32 80 3e 40
        e 16 90 3e 7f
        e 128 80 3e 40
        e 16 90 3c 7f
        e 32 80 3c 40
        e 16 90 3e 7f
        e 128 80 3e 40
        e 16 90 3c 7f
        e 32 80 3c 40
        e 16 90 3e 7f
        e 128 80 3e 40
        e 16 90 40 7f
        e 32 80 40 40
        e 16 90 41 7f
        e 128 80 41 40
        e 16 90 42 7f
        e 32 80 42 40
        e 16 90 45 7f
        e 176 80 45 40
        e 16 90 43 7f
        e 80 80 43 40
        e 112 90 45 7f
        e 80 80 45 40
        e 64 90 47 7f
        e 32 80 47 40
        e 16 90 48 7f
        e 48 80 48 40
        e 16 90 47 7f
        e 48 80 47 40
        e 16 90 45 7f
        e 48 80 45 40
        e 16 90 47 7f
        e 128 80 47 40
        e 16 90 45 7f
        e 32 80 45 40
        e 16 90 43 7f
        e 128 80 43 40
        e 16 90 43 7f
        e 32 80 43 40
        e 16 90 41 7f
        e 128 80 41 40
        e 16 90 43 7f
        e 32 80 43 40
        e 16 90 45 7f
        e 48 80 45 40
        e 16 90 43 7f
        e 48 80 43 40
        e 16 90 41 7f
        e 48 80 41 40
        e 16 90 43 7f
        e 176 80 43 40
        e 16 90 40 7f
        e 176 80 40 40
        e 16 90 45 7f
        e 128 80 45 40
        e 16 90 47 7f
        e 32 80 47 40
        e 16 90 48 7f
        e 48 80 48 40
        e 16 90 47 7f
        e 48 80 47 40
        e 16 90 45 7f
        e 48 80 45 40
        e 16 90 43 7f
        e 128 80 43 40
        e 16 90 48 7f
        e 32 80 48 40
        e 16 90 48 7f
        e 48 80 48 40
        e 16 90 47 7f
        e 48 80 47 40
        e 16 90 45 7f
        e 48 80 45 40
        e 16 90 45 7f
        e 48 80 45 40
        e 16 90 43 7f
        e 48 80 43 40
        e 14 90 41 7f
        e 48 80 41 40
        e 18 90 41 7f
        e 48 80 41 40
        e 16 90 40 7f
        e 48 80 40 40
        e 16 90 3e 7f
        e 48 80 3e 40
        e 16 90 3c 7f
        e 176 80 3c 40
        e 592 90 47 7f
        e 560 80 47 40
        e 16 90 48 7f
        e 176 80 48 40
        e 16 90 4a 7f
        e 368 80 4a 40
        e 16 90 4a 7f
        e 176 80 4a 40
        e 16 90 47 7f
        e 176 80 47 40
        e 16 90 48 7f
        e 368 80 48 40
        e 16 90 48 7f
        e 128 80 48 40
        e 16 90 47 7f
        e 32 80 47 40
        e 16 90 48 7f
        e 128 80 48 40
        e 16 90 4a 7f
        e 32 80 4a 40
        e 16 90 47 7f
        e 176 80 47 40
        e 16 90 47 7f
        e 176 80 47 40
        e 400 90 47 7f
        e 560 80 47 40
        e 16 90 48 7f
        e 176 80 48 40
        e 16 90 4a 7f
        e 368 80 4a 40
        e 16 90 4a 7f
        e 176 80 4a 40
        e 16 90 47 7f
        e 176 80 47 40
        e 16 90 48 7f
        e 368 80 48 40
        e 16 90 48 7f
        e 128 80 48 40
        e 16 90 47 7f
        e 32 80 47 40
        e 16 90 48 7f
        e 128 80 48 40
        e 16 90 4a 7f
        e 32 80 4a 40
        e 16 90 47 7f
        e 176 80 47 40
        e 400 90 40 7f
        e 128 80 40 40
        e 16 90 41 7f
        e 32 80 41 40
        e 16 90 43 7f
        e 176 80 43 40
        e 16 90 43 7f
        e 128 80 43 40
        e 16 90 45 7f
        e 32 80 45 40
        e 16 90 46 7f
        e 176 80 46 40
        e 16 90 46 7f
        e 128 80 46 40
        e 16 90 46 7f
        e 32 80 46 40
        e 16 90 46 7f
        e 176 80 46 40
        e 16 90 45 7f
        e 176 80 45 40
        e 208 90 42 7f
        e 128 80 42 40
        e 16 90 43 7f
        e 32 80 43 40
        e 16 90 45 7f
        e 176 80 45 40
        e 16 90 45 7f
        e 128 80 45 40
        e 16 90 47 7f
        e 32 80 47 40
        e 16 90 48 7f
        e 176 80 48 40
        e 16 90 48 7f
        e 128 80 48 40
        e 16 90 48 7f
        e 32 80 48 40
        e 16 90 47 7f
        e 368 80 47 40
        e 208 90 47 7f
        e 128 80 47 40
        e 16 90 47 7f
        e 32 80 47 40
        e 16 90 47 7f
        e 128 80 47 40
        e 16 90 45 7f
        e 32 80 45 40
        e 16 90 47 7f
        e 128 80 47 40
        e 16 90 45 7f
        e 32 80 45 40
        e 16 90 45 7f
        e 128 80 45 40
        e 16 90 43 7f
        e 32 80 43 40
        e 16 90 45 7f
        e 128 80 45 40
        e 16 90 43 7f
        e 32 80 43 40
        e 16 90 45 7f
        e 272 80 45 40
        e 16 90 43 7f
        e 80 80 43 40
        e 16 90 40 7f
        e 176 80 40 40
        e 16 90 48 7f
        e 128 80 48 40
        e 16 90 47 7f
        e 32 80 47 40
        e 16 90 47 7f
        e 128 80 47 40
        e 16 90 45 7f
        e 32 80 45 40
        e 16 90 47 7f
        e 128 80 47 40
        e 16 90 45 7f
        e 32 80 45 40
        e 16 90 45 7f
        e 128 80 45 40
        e 16 90 43 7f
        e 32 80 43 40
        e 16 90 45 7f
        e 128 80 45 40
        e 16 90 43 7f
        e 32 80 43 40
        e 16 90 40 7f
        e 176 80 40 40
        e 16 90 3c 7f
        e 80 80 3c 40
        e 16 90 3e 7f
        e 80 80 3e 40
        e 16 90 40 7f
        e 80 80 40 40
        e 16 90 41 7f
        e 80 80 41 40
        e 16 90 43 7f
        e 80 80 43 40
        e 16 90 45 7f
        e 80 80 45 40
        e 16 90 46 7f
        e 368 80 46 40
        e 16 90 4a 7f
        e 176 80 4a 40
        e 16 90 49 7f
        e 176 80 49 40
        e 16 90 4a 7f
        e 176 80 4a 40
        e 16 90 4a 7f
        e 176 80 4a 40
        e 208 90 48 7f
        e 128 80 48 40
        e 16 90 48 7f
        e 32 80 48 40
        e 16 90 4c 7f
        e 176 80 4c 40
        e 16 90 48 7f
        e 128 80 48 40
        e 16 90 48 7f
        e 32 80 48 40
        e 16 90 4a 7f
        e 176 80 4a 40
        e 16 90 47 7f
        e 128 80 47 40
        e 16 90 47 7f
        e 32 80 47 40
        e 16 90 48 7f
        e 176 80 48 40
        e 400 90 48 7f
        e 128 80 48 40
        e 16 90 48 7f
        e 30 80 48 40
        e 18 90 48 7f
        e 176 80 48 40
        e 16 90 48 7f
        e 128 80 48 40
        e 16 90 48 7f
        e 32 80 48 40
        e 16 90 4a 7f
        e 176 80 4a 40
        e 16 90 47 7f
        e 128 80 47 40
        e 16 90 47 7f
        e 30 80 47 40
        e 18 90 48 7f
        e 176 80 48 40
        e 400 90 48 7f
        e 128 80 48 40
        e 16 90 48 7f
        e 32 80 48 40
        e 16 90 4c 7f
        e 174 80 4c 40
        e 18 90 48 7f
        e 123 80 48 40
        e 21 90 48 7f
        e 32 80 48 40
        e 16 90 4a 7f
        e 176 80 4a 40
        e 16 90 47 7f
        e 128 80 47 40
        e 16 90 47 7f
        e 32 80 47 40
        e 16 90 48 7f
        e 176 80 48 40
        E 16 b0 7b 00
        GUID {74742BD7-CCAA-F244-9D03-3F78F8C9FCB1}
        IGNTEMPO 0 120 4 4
        SRCCOLOR 911
        VELLANE -1 86 6
        CFGEDITVIEW 0 0 50 24 0 0 0 0 0 0.5
        KEYSNAP 0
        TRACKSEL 226
        EVTFILTER 0 -1 -1 -1 -1 0 1 0 0 -1 -1 -1 -1 0 -1 0 -1 -1
        CFGEDIT 1 0 0 0 0 0 1 0 1 1 1 0.25 16 63 1280 778 0 0 2 3 0 0 0 0 0 0.5 0 0 1 64
      >
    >
  >
  <TRACK {3C494A2B-9670-9740-AD22-E42CC5065FE1}
    NAME "ch2,4 (send)"
    PEAKCOL 16576
    BEAT -1
    AUTOMODE 0
    VOLPAN 1 0 -1 -1 1
    MUTESOLO 0 0 0
    IPHASE 0
    ISBUS 0 0
    BUSCOMP 0 0
    SHOWINMIX 1 0.6667 0.623188 1 0.5 0 0 0
    FREEMODE 0
    SEL 0
    REC 0 0 0 0 0 0 0
    VU 2
    MIDICTL -1 1
    TRACKHEIGHT 73 0
    INQ 0 0 0 0.5 100 0 0 100
    NCHAN 2
    FX 1
    TRACKID {3C494A2B-9670-9740-AD22-E42CC5065FE1}
    PERF 0
    MIDIOUT -1
    MAINSEND 1 0
    <FXCHAIN
      WNDRECT 32 359 724 387
      SHOW 0
      LASTSEL 0
      DOCKED 0
    >
    <ITEM
      POSITION 0
      SNAPOFFS 0
      LENGTH 96
      LOOP 1
      ALLTAKES 0
      FADEIN 1 0 0 1 0 0
      FADEOUT 1 0 0 1 0 0
      MUTE 0
      SEL 0
      YPOS 0.105725 0.05
      IGUID {4D18F0CB-5646-7A42-8A63-551A7B2D248D}
      IID 12
      NAME "Accompany.RH         - National_Anthems_-_Chile.mid"
      VOLPAN 1 0 1 -1
      SOFFS 21.5 43
      PLAYRATE 1 1 0 -1 0 0.0025
      CHANMODE 0
      TAKECOLOR 26173599 B
      GUID {2ECEDC1D-6D5D-284C-8A6A-819964F022DD}
      <SOURCE MIDI
        HASDATA 1 192 QN
        POOLEDEVTS {4B9CA648-BDD9-C142-93BF-43E9CF5708CB}
        <X 0 0 0 0 3 "Accompany.RH        "
          /wNBY2NvbXBhbnkuUkggICAgICAgIA==
        >
        e 720 90 4f 6e
        e 16 90 51 6e
        e 6 80 4f 40
        e 2 90 53 6e
        e 14 80 51 40
        e 8 80 53 40
        e 2 90 48 6e
        e 0 90 54 6e
        e 334 80 48 40
        e 0 80 54 40
        e 2 90 47 6e
        e 0 90 53 6e
        e 46 80 47 40
        e 0 80 53 40
        e 2 90 48 6e
        e 0 90 54 6e
        e 142 80 48 40
        e 0 80 54 40
        e 2 90 44 6e
        e 0 90 50 6e
        e 46 80 44 40
        e 0 80 50 40
        e 2 90 45 6e
        e 0 90 51 6e
        e 142 80 45 40
        e 0 80 51 40
        e 2 90 40 6e
        e 0 90 4c 6e
        e 46 80 40 40
        e 0 80 4c 40
        e 2 90 41 6e
        e 0 90 4d 6e
        e 142 80 41 40
        e 0 80 4d 40
        e 2 90 3d 6e
        e 0 90 49 6e
        e 46 80 3d 40
        e 0 80 49 40
        e 2 90 3e 6e
        e 0 90 4a 6e
        e 142 80 3e 40
        e 0 80 4a 40
        e 2 90 3a 6e
        e 0 90 46 6e
        e 46 80 3a 40
        e 0 80 46 40
        e 2 90 3b 6e
        e 0 90 47 6e
        e 190 80 3b 40
        e 0 80 47 40
        e 50 90 43 6e
        e 22 80 43 40
        e 2 90 45 6e
        e 22 80 45 40
        e 2 90 47 6e
        e 22 80 47 40
        e 2 90 48 6e
        e 22 80 48 40
        e 2 90 4a 6e
        e 22 80 4a 40
        e 2 90 4c 6e
        e 22 80 4c 40
        e 98 90 47 6e
        e 0 90 4a 6e
        e 0 90 4d 6e
        e 46 80 47 40
        e 0 80 4a 40
        e 0 80 4d 40
        e 2 90 47 6e
        e 0 90 4a 6e
        e 0 90 4d 6e
        e 46 80 47 40
        e 0 80 4a 40
        e 0 80 4d 40
        e 2 90 47 6e
        e 0 90 4a 6e
        e 0 90 4d 6e
        e 94 80 47 40
        e 0 80 4a 40
        e 0 80 4d 40
        e 2 90 47 6e
        e 0 90 4a 6e
        e 0 90 4d 6e
        e 94 80 47 40
        e 0 80 4a 40
        e 0 80 4d 40
        e 2 90 47 6e
        e 0 90 4a 6e
        e 0 90 4d 6e
        e 94 80 47 40
        e 0 80 4a 40
        e 0 80 4d 40
        e 2 90 47 6e
        e 0 90 4a 6e
        e 0 90 4d 6e
        e 94 80 47 40
        e 0 80 4a 40
        e 0 80 4d 40
        e 2 90 48 6e
        e 0 90 4d 6e
        e 94 80 48 40
        e 0 80 4d 40
        e 2 90 4a 6e
        e 0 90 4d 6e
        e 94 80 4a 40
        e 0 80 4d 40
        e 2 90 43 6e
        e 0 90 48 6e
        e 0 90 4c 6e
        e 94 80 43 40
        e 0 80 48 40
        e 0 80 4c 40
        e 2 90 4c 6e
        e 46 80 4c 40
        e 2 90 4d 6e
        e 46 80 4d 40
        e 2 90 41 6e
        e 0 90 47 6e
        e 0 90 4a 6e
        e 94 80 41 40
        e 0 80 47 40
        e 0 80 4a 40
        e 2 90 4a 6e
        e 46 80 4a 40
        e 2 90 4c 6e
        e 46 80 4c 40
        e 2 90 40 6e
        e 0 90 48 6e
        e 190 80 40 40
        e 0 80 48 40
        e 26 90 48 6e
        e 22 80 48 40
        e 2 90 4a 6e
        e 22 80 4a 40
        e 2 90 4c 6e
        e 22 80 4c 40
        e 2 90 4d 6e
        e 22 80 4d 40
        e 2 90 4f 6e
        e 22 80 4f 40
        e 2 90 51 6e
        e 22 80 51 40
        e 2 90 53 6e
        e 22 80 53 40
        e 2 90 54 6e
        e 94 80 54 40
        e 2 90 51 6e
        e 0 90 54 6e
        e 46 80 51 40
        e 0 80 54 40
        e 2 90 51 6e
        e 0 90 54 6e
        e 46 80 51 40
        e 0 80 54 40
        e 2 90 51 6e
        e 0 90 54 6e
        e 94 80 51 40
        e 0 80 54 40
        e 2 90 51 6e
        e 0 90 54 6e
        e 94 80 51 40
        e 0 80 54 40
        e 2 90 51 6e
        e 0 90 54 6e
        e 94 80 51 40
        e 0 80 54 40
        e 2 90 50 6e
        e 0 90 53 6e
        e 46 80 50 40
        e 0 80 53 40
        e 2 90 51 6e
        e 0 90 54 6e
        e 46 80 51 40
        e 0 80 54 40
        e 2 90 53 6e
        e 0 90 56 6e
        e 46 80 53 40
        e 0 80 56 40
        e 2 90 51 6e
        e 0 90 54 6e
        e 46 80 51 40
        e 0 80 54 40
        e 2 90 4f 6e
        e 0 90 53 6e
        e 46 80 4f 40
        e 0 80 53 40
        e 2 90 4d 6e
        e 0 90 51 6e
        e 46 80 4d 40
        e 0 80 51 40
        e 2 90 4c 6e
        e 0 90 4f 6e
        e 94 80 4c 40
        e 0 80 4f 40
        e 2 90 4f 6e
        e 46 80 4f 40
        e 2 90 51 6e
        e 46 80 51 40
        e 2 90 4a 6e
        e 0 90 4d 6e
        e 94 80 4a 40
        e 0 80 4d 40
        e 2 90 4d 6e
        e 46 80 4d 40
        e 2 90 4f 6e
        e 46 80 4f 40
        e 2 90 48 6e
        e 0 90 4c 6e
        e 190 80 48 40
        e 0 80 4c 40
        e 26 90 3c 6e
        e 22 80 3c 40
        e 2 90 3e 6e
        e 22 80 3e 40
        e 2 90 40 6e
        e 22 80 40 40
        e 2 90 41 6e
        e 22 80 41 40
        e 2 90 43 6e
        e 22 80 43 40
        e 2 90 45 6e
        e 22 80 45 40
        e 2 90 47 6e
        e 22 80 47 40
        e 2 90 48 6e
        e 80 80 48 40
        e 16 90 3c 6e
        e 0 90 3f 6e
        e 0 90 44 6e
        e 0 90 48 6e
        e 32 80 3c 40
        e 0 80 3f 40
        e 0 80 44 40
        e 0 80 48 40
        e 16 90 3c 6e
        e 0 90 3f 6e
        e 0 90 44 6e
        e 0 90 48 6e
        e 32 80 3c 40
        e 0 80 3f 40
        e 0 80 44 40
        e 0 80 48 40
        e 16 90 3c 6e
        e 0 90 3f 6e
        e 0 90 44 6e
        e 0 90 48 6e
        e 80 80 3c 40
        e 0 80 3f 40
        e 0 80 44 40
        e 0 80 48 40
        e 16 90 3c 6e
        e 0 90 3f 6e
        e 0 90 44 6e
        e 0 90 48 6e
        e 80 80 3c 40
        e 0 80 3f 40
        e 0 80 44 40
        e 0 80 48 40
        e 16 90 3c 6e
        e 0 90 3f 6e
        e 0 90 44 6e
        e 0 90 48 6e
        e 80 80 3c 40
        e 0 80 3f 40
        e 0 80 44 40
        e 0 80 48 40
        e 16 90 3e 6e
        e 0 90 48 6e
        e 0 90 4a 6e
        e 80 80 3e 40
        e 0 80 48 40
        e 0 80 4a 40
        e 16 90 3f 6e
        e 0 90 48 6e
        e 0 90 4b 6e
        e 80 80 3f 40
        e 0 80 48 40
        e 0 80 4b 40
        e 16 90 42 6e
        e 0 90 48 6e
        e 0 90 4b 6e
        e 0 90 4e 6e
        e 80 80 42 40
        e 0 80 48 40
        e 0 80 4b 40
        e 0 80 4e 40
        e 16 90 43 6e
        e 0 90 48 6e
        e 0 90 4c 6e
        e 0 90 4f 6e
        e 80 80 43 40
        e 0 80 48 40
        e 0 80 4c 40
        e 0 80 4f 40
        e 16 90 43 6e
        e 0 90 48 6e
        e 0 90 4c 6e
        e 0 90 4f 6e
        e 32 80 43 40
        e 0 80 48 40
        e 0 80 4c 40
        e 0 80 4f 40
        e 16 90 43 6e
        e 0 90 48 6e
        e 0 90 4c 6e
        e 0 90 4f 6e
        e 32 80 43 40
        e 0 80 48 40
        e 0 80 4c 40
        e 0 80 4f 40
        e 16 90 43 6e
        e 0 90 48 6e
        e 0 90 4c 6e
        e 80 80 43 40
        e 0 80 48 40
        e 0 80 4c 40
        e 16 90 43 6e
        e 0 90 48 6e
        e 0 90 4c 6e
        e 80 80 43 40
        e 0 80 48 40
        e 0 80 4c 40
        e 16 90 43 6e
        e 0 90 47 6e
        e 0 90 4a 6e
        e 0 90 4f 6e
        e 80 80 43 40
        e 0 80 47 40
        e 0 80 4a 40
        e 0 80 4f 40
        e 16 90 43 6e
        e 0 90 47 6e
        e 0 90 4a 6e
        e 0 90 4f 6e
        e 32 80 43 40
        e 0 80 47 40
        e 0 80 4a 40
        e 0 80 4f 40
        e 16 90 43 6e
        e 0 90 47 6e
        e 0 90 4a 6e
        e 0 90 4f 6e
        e 32 80 43 40
        e 0 80 47 40
        e 0 80 4a 40
        e 0 80 4f 40
        e 16 90 43 6e
        e 0 90 47 6e
        e 0 90 4a 6e
        e 80 80 43 40
        e 0 80 47 40
        e 0 80 4a 40
        e 16 90 43 6e
        e 0 90 47 6e
        e 0 90 4a 6e
        e 32 80 43 40
        e 0 80 47 40
        e 0 80 4a 40
        e 64 90 40 6e
        e 0 90 43 6e
        e 0 90 48 6e
        e 176 80 40 40
        e 0 80 43 40
        e 0 80 48 40
        e 112 90 43 6e
        e 16 80 43 40
        e 16 90 45 6e
        e 16 80 45 40
        e 16 90 47 6e
        e 16 80 47 40
        e 16 90 48 6e
        e 80 80 48 40
        e 16 90 43 6e
        e 16 80 43 40
        e 16 90 45 6e
        e 16 80 45 40
        e 16 90 47 6e
        e 16 80 47 40
        e 16 90 48 6e
        e 80 80 48 40
        e 16 90 43 6e
        e 16 80 43 40
        e 16 90 45 6e
        e 16 80 45 40
        e 16 90 47 6e
        e 16 80 47 40
        e 16 90 48 6e
        e 176 80 48 40
        e 16 90 40 6e
        e 0 90 43 6e
        e 0 90 48 6e
        e 128 80 40 40
        e 0 80 43 40
        e 0 80 48 40
        e 16 90 40 6e
        e 0 90 43 6e
        e 0 90 48 6e
        e 32 80 40 40
        e 0 80 43 40
        e 0 80 48 40
        e 16 90 40 6e
        e 0 90 43 6e
        e 0 90 48 6e
        e 176 80 40 40
        e 0 80 43 40
        e 0 80 48 40
        e 16 90 43 6e
        e 128 80 43 40
        e 16 90 48 6e
        e 32 80 48 40
        e 16 90 40 6e
        e 0 90 48 6e
        e 128 80 40 40
        e 0 80 48 40
        e 16 90 43 6e
        e 0 90 47 6e
        e 32 80 43 40
        e 0 80 47 40
        e 16 90 43 6e
        e 0 90 47 6e
        e 128 80 43 40
        e 0 80 47 40
        e 16 90 41 6e
        e 0 90 45 6e
        e 32 80 41 40
        e 0 80 45 40
        e 16 90 41 6e
        e 0 90 45 6e
        e 128 80 41 40
        e 0 80 45 40
        e 16 90 40 6e
        e 0 90 43 6e
        e 32 80 40 40
        e 0 80 43 40
        e 16 90 40 6e
        e 0 90 43 6e
        e 128 80 40 40
        e 0 80 43 40
        e 16 90 3f 6e
        e 0 90 42 6e
        e 32 80 3f 40
        e 0 80 42 40
        e 16 90 40 6e
        e 0 90 43 6e
        e 272 80 40 40
        e 0 80 43 40
        e 16 90 3e 6e
        e 0 90 41 6e
        e 80 80 3e 40
        e 0 80 41 40
        e 16 90 3c 6e
        e 0 90 40 6e
        e 176 80 3c 40
        e 0 80 40 40
        e 16 90 3b 6e
        e 0 90 3e 6e
        e 128 80 3b 40
        e 0 80 3e 40
        e 16 90 3c 6e
        e 0 90 40 6e
        e 32 80 3c 40
        e 0 80 40 40
        e 16 90 3e 6e
        e 0 90 41 6e
        e 80 80 3e 40
        e 0 80 41 40
        e 112 90 3e 6e
        e 0 90 41 6e
        e 80 80 3e 40
        e 0 80 41 40
        e 112 90 3c 6e
        e 0 90 40 6e
        e 80 80 3c 40
        e 0 80 40 40
        e 112 90 3c 6e
        e 0 90 40 6e
        e 80 80 3c 40
        e 0 80 40 40
        e 112 90 3b 6e
        e 0 90 3e 6e
        e 0 90 43 6e
        e 80 80 3b 40
        e 0 80 3e 40
        e 0 80 43 40
        e 16 90 3b 6e
        e 0 90 3e 6e
        e 0 90 43 6e
        e 32 80 3b 40
        e 0 80 3e 40
        e 0 80 43 40
        e 16 90 3b 6e
        e 0 90 3e 6e
        e 0 90 43 6e
        e 32 80 3b 40
        e 0 80 3e 40
        e 0 80 43 40
        e 16 90 3b 6e
        e 0 90 3e 6e
        e 0 90 43 6e
        e 80 80 3b 40
        e 0 80 3e 40
        e 0 80 43 40
        e 16 90 3b 6e
        e 0 90 3e 6e
        e 0 90 43 6e
        e 80 80 3b 40
        e 0 80 3e 40
        e 0 80 43 40
        e 16 90 3b 6e
        e 0 90 3e 6e
        e 0 90 43 6e
        e 80 80 3b 40
        e 0 80 3e 40
        e 0 80 43 40
        e 304 90 40 6e
        e 0 90 48 6e
        e 128 80 40 40
        e 0 80 48 40
        e 16 90 43 6e
        e 0 90 47 6e
        e 32 80 43 40
        e 0 80 47 40
        e 16 90 43 6e
        e 0 90 47 6e
        e 128 80 43 40
        e 0 80 47 40
        e 16 90 41 6e
        e 0 90 45 6e
        e 32 80 41 40
        e 0 80 45 40
        e 16 90 41 6e
        e 0 90 45 6e
        e 128 80 41 40
        e 0 80 45 40
        e 16 90 40 6e
        e 0 90 43 6e
        e 32 80 40 40
        e 0 80 43 40
        e 16 90 40 6e
        e 0 90 43 6e
        e 128 80 40 40
        e 0 80 43 40
        e 16 90 3f 6e
        e 0 90 42 6e
        e 32 80 3f 40
        e 0 80 42 40
        e 16 90 40 6e
        e 0 90 43 6e
        e 272 80 40 40
        e 0 80 43 40
        e 16 90 3e 6e
        e 0 90 41 6e
        e 80 80 3e 40
        e 0 80 41 40
        e 16 90 3c 6e
        e 0 90 40 6e
        e 176 80 3c 40
        e 0 80 40 40
        e 16 90 3c 6e
        e 0 90 40 6e
        e 128 80 3c 40
        e 0 80 40 40
        e 16 90 3c 6e
        e 0 90 40 6e
        e 32 80 3c 40
        e 0 80 40 40
        e 16 90 3b 6e
        e 0 90 3e 6e
        e 0 90 43 6e
        e 80 80 3b 40
        e 0 80 3e 40
        e 0 80 43 40
        e 112 90 3b 6e
        e 0 90 3e 6e
        e 0 90 43 6e
        e 80 80 3b 40
        e 0 80 3e 40
        e 0 80 43 40
        e 112 90 39 6e
        e 0 90 3e 6e
        e 0 90 42 6e
        e 80 80 39 40
        e 0 80 3e 40
        e 0 80 42 40
        e 112 90 39 6e
        e 0 90 3e 6e
        e 0 90 42 6e
        e 80 80 39 40
        e 0 80 3e 40
        e 0 80 42 40
        e 112 90 3b 6e
        e 0 90 3e 6e
        e 0 90 43 6e
        e 176 80 3b 40
        e 0 80 3e 40
        e 0 80 43 40
        e 16 90 3b 6e
        e 0 90 3e 6e
        e 0 90 43 6e
        e 128 80 3b 40
        e 0 80 3e 40
        e 0 80 43 40
        e 16 90 3b 6e
        e 0 90 3e 6e
        e 0 90 43 6e
        e 32 80 3b 40
        e 0 80 3e 40
        e 0 80 43 40
        e 16 90 3b 6e
        e 0 90 3e 6e
        e 0 90 43 6e
        e 176 80 3b 40
        e 0 80 3e 40
        e 0 80 43 40
        e 208 90 3f 6e
        e 0 90 43 6e
        e 80 80 3f 40
        e 0 80 43 40
        e 16 90 3a 6e
        e 80 80 3a 40
        e 16 90 3f 6e
        e 0 90 43 6e
        e 80 80 3f 40
        e 0 80 43 40
        e 16 90 3a 6e
        e 80 80 3a 40
        e 16 90 41 6e
        e 0 90 44 6e
        e 80 80 41 40
        e 0 80 44 40
        e 16 90 3f 6e
        e 0 90 43 6e
        e 80 80 3f 40
        e 0 80 43 40
        e 16 90 3e 6e
        e 0 90 41 6e
        e 80 80 3e 40
        e 0 80 41 40
        e 16 90 3f 6e
        e 0 90 43 6e
        e 80 80 3f 40
        e 0 80 43 40
        e 16 90 41 6e
        e 0 90 44 6e
        e 80 80 41 40
        e 0 80 44 40
        e 16 90 3a 6e
        e 80 80 3a 40
        e 16 90 41 6e
        e 0 90 44 6e
        e 80 80 41 40
        e 0 80 44 40
        e 16 90 3a 6e
        e 80 80 3a 40
        e 16 90 3e 6e
        e 0 90 41 6e
        e 80 80 3e 40
        e 0 80 41 40
        e 16 90 3a 6e
        e 80 80 3a 40
        e 16 90 3e 6e
        e 0 90 41 6e
        e 80 80 3e 40
        e 0 80 41 40
        e 16 90 3a 6e
        e 80 80 3a 40
        e 16 90 41 6e
        e 0 90 44 6e
        e 80 80 41 40
        e 0 80 44 40
        e 16 90 3a 6e
        e 80 80 3a 40
        e 16 90 41 6e
        e 0 90 44 6e
        e 80 80 41 40
        e 0 80 44 40
        e 16 90 3a 6e
        e 80 80 3a 40
        e 16 90 43 6e
        e 0 90 46 6e
        e 80 80 43 40
        e 0 80 46 40
        e 16 90 41 6e
        e 0 90 44 6e
        e 80 80 41 40
        e 0 80 44 40
        e 16 90 3f 6e
        e 0 90 43 6e
        e 80 80 3f 40
        e 0 80 43 40
        e 16 90 41 6e
        e 0 90 44 6e
        e 80 80 41 40
        e 0 80 44 40
        e 16 90 43 6e
        e 0 90 46 6e
        e 80 80 43 40
        e 0 80 46 40
        e 16 90 3a 6e
        e 80 80 3a 40
        e 16 90 43 6e
        e 0 90 46 6e
        e 80 80 43 40
        e 0 80 46 40
        e 16 90 41 6e
        e 0 90 44 6e
        e 80 80 41 40
        e 0 80 44 40
        e 16 90 3f 6e
        e 0 90 43 6e
        e 80 80 3f 40
        e 0 80 43 40
        e 16 90 3a 6e
        e 80 80 3a 40
        e 16 90 3f 6e
        e 0 90 43 6e
        e 80 80 3f 40
        e 0 80 43 40
        e 16 90 3a 6e
        e 80 80 3a 40
        e 16 90 3c 6e
        e 0 90 3f 6e
        e 176 80 3c 40
        e 0 80 3f 40
        e 16 90 3c 6e
        e 0 90 3f 6e
        e 128 80 3c 40
        e 0 80 3f 40
        e 16 90 3c 6e
        e 0 90 3f 6e
        e 32 80 3c 40
        e 0 80 3f 40
        e 16 90 3c 6e
        e 0 90 3f 6e
        e 176 80 3c 40
        e 0 80 3f 40
        e 16 90 3c 6e
        e 0 90 3f 6e
        e 0 90 42 6e
        e 176 80 3c 40
        e 0 80 3f 40
        e 0 80 42 40
        e 16 90 3b 6e
        e 0 90 3e 6e
        e 0 90 43 6e
        e 176 80 3b 40
        e 0 80 3e 40
        e 0 80 43 40
        e 16 90 3b 6e
        e 0 90 3e 6e
        e 0 90 43 6e
        e 128 80 3b 40
        e 0 80 3e 40
        e 0 80 43 40
        e 16 90 3b 6e
        e 0 90 3e 6e
        e 0 90 43 6e
        e 32 80 3b 40
        e 0 80 3e 40
        e 0 80 43 40
        e 16 90 3b 6e
        e 0 90 3e 6e
        e 0 90 43 6e
        e 176 80 3b 40
        e 0 80 3e 40
        e 0 80 43 40
        e 16 90 3c 6e
        e 0 90 40 6e
        e 128 80 3c 40
        e 0 80 40 40
        e 16 90 3c 6e
        e 0 90 40 6e
        e 32 80 3c 40
        e 0 80 40 40
        e 16 90 3c 6e
        e 0 90 40 6e
        e 128 80 3c 40
        e 0 80 40 40
        e 16 90 3b 6e
        e 0 90 3e 6e
        e 32 80 3b 40
        e 0 80 3e 40
        e 16 90 3c 6e
        e 0 90 40 6e
        e 128 80 3c 40
        e 0 80 40 40
        e 16 90 3b 6e
        e 0 90 3e 6e
        e 32 80 3b 40
        e 0 80 3e 40
        e 16 90 3c 6e
        e 0 90 40 6e
        e 128 80 3c 40
        e 0 80 40 40
        e 16 90 3b 6e
        e 0 90 3e 6e
        e 32 80 3b 40
        e 0 80 3e 40
        e 16 90 3c 6e
        e 0 90 40 6e
        e 128 80 3c 40
        e 0 80 40 40
        e 16 90 3e 6e
        e 0 90 41 6e
        e 32 80 3e 40
        e 0 80 41 40
        e 16 90 40 6e
        e 0 90 43 6e
        e 176 80 40 40
        e 0 80 43 40
        e 16 90 41 6e
        e 0 90 45 6e
        e 368 80 41 40
        e 0 80 45 40
        e 16 90 3b 6e
        e 0 90 3e 6e
        e 128 80 3b 40
        e 0 80 3e 40
        e 16 90 3b 6e
        e 0 90 3e 6e
        e 32 80 3b 40
        e 0 80 3e 40
        e 16 90 3b 6e
        e 0 90 3e 6e
        e 128 80 3b 40
        e 0 80 3e 40
        e 16 90 39 6e
        e 0 90 3c 6e
        e 32 80 39 40
        e 0 80 3c 40
        e 16 90 3b 6e
        e 0 90 3e 6e
        e 128 80 3b 40
        e 0 80 3e 40
        e 16 90 39 6e
        e 0 90 3c 6e
        e 32 80 39 40
        e 0 80 3c 40
        e 16 90 3b 6e
        e 0 90 3e 6e
        e 128 80 3b 40
        e 0 80 3e 40
        e 16 90 3c 6e
        e 0 90 40 6e
        e 32 80 3c 40
        e 0 80 40 40
        e 16 90 3e 6e
        e 0 90 41 6e
        e 128 80 3e 40
        e 0 80 41 40
        e 16 90 3f 6e
        e 0 90 42 6e
        e 32 80 3f 40
        e 0 80 42 40
        e 16 90 41 6e
        e 0 90 45 6e
        e 176 80 41 40
        e 0 80 45 40
        e 16 90 40 6e
        e 0 90 43 6e
        e 80 80 40 40
        e 0 80 43 40
        e 304 90 3c 6e
        e 0 90 41 6e
        e 0 90 45 6e
        e 176 80 3c 40
        e 0 80 41 40
        e 0 80 45 40
        e 208 90 3c 6e
        e 0 90 40 6e
        e 0 90 43 6e
        e 176 80 3c 40
        e 0 80 40 40
        e 0 80 43 40
        e 208 90 3b 6e
        e 0 90 3e 6e
        e 0 90 41 6e
        e 176 80 3b 40
        e 0 80 3e 40
        e 0 80 41 40
        e 208 90 3c 6e
        e 0 90 40 6e
        e 176 80 3c 40
        e 0 80 40 40
        e 16 90 41 6e
        e 0 90 45 6e
        e 128 80 41 40
        e 0 80 45 40
        e 16 90 43 6e
        e 0 90 47 6e
        e 32 80 43 40
        e 0 80 47 40
        e 16 90 45 6e
        e 0 90 48 6e
        e 48 80 45 40
        e 0 80 48 40
        e 16 90 43 6e
        e 0 90 47 6e
        e 48 80 43 40
        e 0 80 47 40
        e 16 90 41 6e
        e 0 90 45 6e
        e 48 80 41 40
        e 0 80 45 40
        e 16 90 40 6e
        e 0 90 43 6e
        e 128 80 40 40
        e 0 80 43 40
        e 16 90 45 6e
        e 0 90 48 6e
        e 32 80 45 40
        e 0 80 48 40
        e 16 90 45 6e
        e 0 90 48 6e
        e 48 80 45 40
        e 0 80 48 40
        e 16 90 43 6e
        e 0 90 47 6e
        e 48 80 43 40
        e 0 80 47 40
        e 16 90 41 6e
        e 0 90 45 6e
        e 48 80 41 40
        e 0 80 45 40
        e 16 90 41 6e
        e 0 90 45 6e
        e 48 80 41 40
        e 0 80 45 40
        e 16 90 40 6e
        e 0 90 43 6e
        e 48 80 40 40
        e 0 80 43 40
        e 16 90 3e 6e
        e 0 90 41 6e
        e 48 80 3e 40
        e 0 80 41 40
        e 16 90 3e 6e
        e 0 90 41 6e
        e 48 80 3e 40
        e 0 80 41 40
        e 16 90 3c 6e
        e 0 90 40 6e
        e 48 80 3c 40
        e 0 80 40 40
        e 16 90 37 6e
        e 0 90 3b 6e
        e 48 80 37 40
        e 0 80 3b 40
        e 16 90 34 6e
        e 0 90 3c 6e
        e 80 80 34 40
        e 0 80 3c 40
        e 16 90 40 6e
        e 32 80 40 40
        e 16 90 40 6e
        e 32 80 40 40
        e 16 90 40 6e
        e 80 80 40 40
        e 16 90 40 6e
        e 32 80 40 40
        e 64 90 40 6e
        e 80 80 40 40
        e 16 90 40 6e
        e 32 80 40 40
        e 64 90 40 6e
        e 80 80 40 40
        e 16 90 40 6e
        e 32 80 40 40
        e 64 90 47 6e
        e 0 90 4c 6e
        e 32 80 47 40
        e 0 80 4c 40
        e 16 90 50 6e
        e 32 80 50 40
        e 16 90 47 6e
        e 0 90 4c 6e
        e 32 80 47 40
        e 0 80 4c 40
        e 16 90 50 6e
        e 32 80 50 40
        e 16 90 47 6e
        e 0 90 4c 6e
        e 32 80 47 40
        e 0 80 4c 40
        e 16 90 50 6e
        e 32 80 50 40
        e 16 90 47 6e
        e 0 90 4c 6e
        e 32 80 47 40
        e 0 80 4c 40
        e 16 90 50 6e
        e 32 80 50 40
        e 16 90 47 6e
        e 0 90 4c 6e
        e 32 80 47 40
        e 0 80 4c 40
        e 16 90 50 6e
        e 32 80 50 40
        e 16 90 47 6e
        e 0 90 4c 6e
        e 32 80 47 40
        e 0 80 4c 40
        e 16 90 50 6e
        e 32 80 50 40
        e 16 90 48 6e
        e 0 90 4c 6e
        e 32 80 48 40
        e 0 80 4c 40
        e 16 90 51 6e
        e 32 80 51 40
        e 16 90 48 6e
        e 0 90 4c 6e
        e 32 80 48 40
        e 0 80 4c 40
        e 16 90 51 6e
        e 32 80 51 40
        e 16 90 4a 6e
        e 0 90 4c 6e
        e 32 80 4a 40
        e 0 80 4c 40
        e 16 90 53 6e
        e 32 80 53 40
        e 16 90 4a 6e
        e 0 90 4c 6e
        e 32 80 4a 40
        e 0 80 4c 40
        e 16 90 53 6e
        e 32 80 53 40
        e 16 90 4a 6e
        e 0 90 4c 6e
        e 32 80 4a 40
        e 0 80 4c 40
        e 16 90 53 6e
        e 32 80 53 40
        e 16 90 4a 6e
        e 0 90 4c 6e
        e 32 80 4a 40
        e 0 80 4c 40
        e 16 90 53 6e
        e 32 80 53 40
        e 16 90 4a 6e
        e 0 90 4c 6e
        e 32 80 4a 40
        e 0 80 4c 40
        e 16 90 53 6e
        e 32 80 53 40
        e 16 90 4a 6e
        e 0 90 4c 6e
        e 32 80 4a 40
        e 0 80 4c 40
        e 16 90 53 6e
        e 32 80 53 40
        e 16 90 47 6e
        e 0 90 4c 6e
        e 32 80 47 40
        e 0 80 4c 40
        e 16 90 50 6e
        e 32 80 50 40
        e 16 90 47 6e
        e 0 90 4c 6e
        e 32 80 47 40
        e 0 80 4c 40
        e 16 90 50 6e
        e 32 80 50 40
        e 16 90 48 6e
        e 0 90 4c 6e
        e 32 80 48 40
        e 0 80 4c 40
        e 16 90 51 6e
        e 32 80 51 40
        e 16 90 48 6e
        e 0 90 4c 6e
        e 32 80 48 40
        e 0 80 4c 40
        e 16 90 51 6e
        e 32 80 51 40
        e 16 90 48 6e
        e 0 90 4c 6e
        e 32 80 48 40
        e 0 80 4c 40
        e 16 90 51 6e
        e 32 80 51 40
        e 16 90 48 6e
        e 0 90 4c 6e
        e 32 80 48 40
        e 0 80 4c 40
        e 16 90 51 6e
        e 32 80 51 40
        e 16 90 48 6e
        e 0 90 51 6e
        e 128 80 48 40
        e 0 80 51 40
        e 16 90 47 6e
        e 0 90 50 6e
        e 32 80 47 40
        e 0 80 50 40
        e 16 90 48 6e
        e 0 90 51 6e
        e 128 80 48 40
        e 0 80 51 40
        e 16 90 4a 6e
        e 0 90 53 6e
        e 32 80 4a 40
        e 0 80 53 40
        e 16 90 47 6e
        e 0 90 50 6e
        e 96 90 40 6e
        e 0 90 4c 6e
        e 32 80 47 40
        e 0 80 50 40
        e 0 80 40 40
        e 0 80 4c 40
        e 16 90 40 6e
        e 0 90 4c 6e
        e 32 80 40 40
        e 0 80 4c 40
        e 16 90 40 6e
        e 0 90 4c 6e
        e 80 80 40 40
        e 0 80 4c 40
        e 16 90 40 6e
        e 0 90 4c 6e
        e 80 80 40 40
        e 0 80 4c 40
        e 16 90 40 6e
        e 0 90 4c 6e
        e 80 80 40 40
        e 0 80 4c 40
        e 16 90 40 6e
        e 0 90 4c 6e
        e 32 80 40 40
        e 0 80 4c 40
        e 16 90 40 6e
        e 0 90 4c 6e
        e 32 80 40 40
        e 0 80 4c 40
        e 16 90 40 6e
        e 0 90 4c 6e
        e 80 80 40 40
        e 0 80 4c 40
        e 16 90 40 6e
        e 0 90 4c 6e
        e 80 80 40 40
        e 0 80 4c 40
        e 16 90 47 6e
        e 32 80 47 40
        e 16 90 4c 6e
        e 32 80 4c 40
        e 16 90 50 6e
        e 32 80 50 40
        e 16 90 4c 6e
        e 32 80 4c 40
        e 16 90 47 6e
        e 32 80 47 40
        e 16 90 4c 6e
        e 32 80 4c 40
        e 16 90 50 6e
        e 32 80 50 40
        e 16 90 4c 6e
        e 32 80 4c 40
        e 16 90 47 6e
        e 32 80 47 40
        e 16 90 4c 6e
        e 32 80 4c 40
        e 16 90 50 6e
        e 32 80 50 40
        e 16 90 4c 6e
        e 32 80 4c 40
        e 16 90 48 6e
        e 32 80 48 40
        e 16 90 4c 6e
        e 32 80 4c 40
        e 16 90 51 6e
        e 32 80 51 40
        e 16 90 4c 6e
        e 32 80 4c 40
        e 16 90 4a 6e
        e 32 80 4a 40
        e 16 90 4c 6e
        e 32 80 4c 40
        e 16 90 53 6e
        e 32 80 53 40
        e 16 90 4c 6e
        e 32 80 4c 40
        e 16 90 4a 6e
        e 32 80 4a 40
        e 16 90 4c 6e
        e 32 80 4c 40
        e 16 90 53 6e
        e 32 80 53 40
        e 16 90 4c 6e
        e 32 80 4c 40
        e 16 90 4a 6e
        e 32 80 4a 40
        e 16 90 4c 6e
        e 32 80 4c 40
        e 16 90 53 6e
        e 32 80 53 40
        e 16 90 4c 6e
        e 32 80 4c 40
        e 16 90 47 6e
        e 32 80 47 40
        e 16 90 4c 6e
        e 32 80 4c 40
        e 16 90 50 6e
        e 32 80 50 40
        e 16 90 4c 6e
        e 32 80 4c 40
        e 16 90 48 6e
        e 32 80 48 40
        e 16 90 4c 6e
        e 32 80 4c 40
        e 16 90 51 6e
        e 32 80 51 40
        e 16 90 4c 6e
        e 32 80 4c 40
        e 16 90 48 6e
        e 32 80 48 40
        e 16 90 4c 6e
        e 32 80 4c 40
        e 16 90 51 6e
        e 32 80 51 40
        e 16 90 4c 6e
        e 32 80 4c 40
        e 16 90 48 6e
        e 32 80 48 40
        e 16 90 4b 6e
        e 32 80 4b 40
        e 16 90 51 6e
        e 32 80 51 40
        e 16 90 4b 6e
        e 32 80 4b 40
        e 16 90 48 6e
        e 32 80 48 40
        e 16 90 4b 6e
        e 32 80 4b 40
        e 16 90 51 6e
        e 32 80 51 40
        e 16 90 4b 6e
        e 32 80 4b 40
        e 16 90 47 6e
        e 0 90 4c 6e
        e 0 90 50 6e
        e 80 80 47 40
        e 0 80 4c 40
        e 0 80 50 40
        e 16 90 40 6e
        e 0 90 44 6e
        e 0 90 47 6e
        e 0 90 4c 6e
        e 32 80 40 40
        e 0 80 44 40
        e 0 80 47 40
        e 0 80 4c 40
        e 16 90 40 6e
        e 0 90 44 6e
        e 0 90 47 6e
        e 0 90 4c 6e
        e 32 80 40 40
        e 0 80 44 40
        e 0 80 47 40
        e 0 80 4c 40
        e 16 90 40 6e
        e 0 90 44 6e
        e 0 90 47 6e
        e 0 90 4c 6e
        e 80 80 40 40
        e 0 80 44 40
        e 0 80 47 40
        e 0 80 4c 40
        e 16 90 40 6e
        e 0 90 44 6e
        e 0 90 47 6e
        e 0 90 4c 6e
        e 80 80 40 40
        e 0 80 44 40
        e 0 80 47 40
        e 0 80 4c 40
        e 16 90 40 6e
        e 0 90 44 6e
        e 0 90 47 6e
        e 0 90 4c 6e
        e 176 80 40 40
        e 0 80 44 40
        e 0 80 47 40
        e 0 80 4c 40
        e 16 90 3c 6e
        e 0 90 40 6e
        e 128 80 3c 40
        e 0 80 40 40
        e 16 90 3e 6e
        e 0 90 41 6e
        e 32 80 3e 40
        e 0 80 41 40
        e 16 90 40 6e
        e 0 90 43 6e
        e 80 80 40 40
        e 0 80 43 40
        e 16 90 40 6e
        e 0 90 43 6e
        e 32 80 40 40
        e 0 80 43 40
        e 16 90 40 6e
        e 0 90 43 6e
        e 32 80 40 40
        e 0 80 43 40
        e 16 90 40 6e
        e 0 90 43 6e
        e 128 80 40 40
        e 0 80 43 40
        e 16 90 41 6e
        e 0 90 45 6e
        e 32 80 41 40
        e 0 80 45 40
        e 16 90 43 6e
        e 0 90 46 6e
        e 80 80 43 40
        e 0 80 46 40
        e 16 90 43 6e
        e 0 90 46 6e
        e 32 80 43 40
        e 0 80 46 40
        e 16 90 43 6e
        e 0 90 46 6e
        e 32 80 43 40
        e 0 80 46 40
        e 16 90 43 6e
        e 0 90 46 6e
        e 128 80 43 40
        e 0 80 46 40
        e 16 90 43 6e
        e 0 90 46 6e
        e 32 80 43 40
        e 0 80 46 40
        e 16 90 43 6e
        e 0 90 46 6e
        e 80 80 43 40
        e 0 80 46 40
        e 16 90 43 6e
        e 0 90 46 6e
        e 32 80 43 40
        e 0 80 46 40
        e 16 90 43 6e
        e 0 90 46 6e
        e 32 80 43 40
        e 0 80 46 40
        e 16 90 41 6e
        e 0 90 45 6e
        e 80 80 41 40
        e 0 80 45 40
        e 16 90 41 6e
        e 0 90 45 6e
        e 80 80 41 40
        e 0 80 45 40
        e 16 90 41 6e
        e 0 90 45 6e
        e 176 80 41 40
        e 0 80 45 40
        e 16 90 3e 6e
        e 0 90 42 6e
        e 128 80 3e 40
        e 0 80 42 40
        e 16 90 40 6e
        e 0 90 43 6e
        e 32 80 40 40
        e 0 80 43 40
        e 16 90 42 6e
        e 0 90 45 6e
        e 80 80 42 40
        e 0 80 45 40
        e 16 90 42 6e
        e 0 90 45 6e
        e 32 80 42 40
        e 0 80 45 40
        e 16 90 42 6e
        e 0 90 45 6e
        e 32 80 42 40
        e 0 80 45 40
        e 16 90 42 6e
        e 0 90 45 6e
        e 128 80 42 40
        e 0 80 45 40
        e 16 90 43 6e
        e 0 90 47 6e
        e 32 80 43 40
        e 0 80 47 40
        e 16 90 45 6e
        e 0 90 48 6e
        e 80 80 45 40
        e 0 80 48 40
        e 16 90 45 6e
        e 0 90 48 6e
        e 32 80 45 40
        e 0 80 48 40
        e 16 90 45 6e
        e 0 90 48 6e
        e 32 80 45 40
        e 0 80 48 40
        e 16 90 45 6e
        e 0 90 48 6e
        e 128 80 45 40
        e 0 80 48 40
        e 16 90 45 6e
        e 0 90 48 6e
        e 32 80 45 40
        e 0 80 48 40
        e 16 90 43 6e
        e 0 90 47 6e
        e 80 80 43 40
        e 0 80 47 40
        e 16 90 43 6e
        e 0 90 47 6e
        e 32 80 43 40
        e 0 80 47 40
        e 16 90 43 6e
        e 0 90 47 6e
        e 32 80 43 40
        e 0 80 47 40
        e 16 90 43 6e
        e 0 90 47 6e
        e 80 80 43 40
        e 0 80 47 40
        e 16 90 43 6e
        e 0 90 47 6e
        e 80 80 43 40
        e 0 80 47 40
        e 16 90 43 6e
        e 0 90 47 6e
        e 176 80 43 40
        e 0 80 47 40
        e 16 90 47 6e
        e 0 90 4f 6e
        e 0 90 53 6e
        e 128 80 47 40
        e 0 80 4f 40
        e 0 80 53 40
        e 16 90 47 6e
        e 0 90 4f 6e
        e 0 90 53 6e
        e 32 80 47 40
        e 0 80 4f 40
        e 0 80 53 40
        e 16 90 47 6e
        e 0 90 4f 6e
        e 0 90 53 6e
        e 128 80 47 40
        e 0 80 4f 40
        e 0 80 53 40
        e 16 90 45 6e
        e 0 90 4d 6e
        e 0 90 51 6e
        e 32 80 45 40
        e 0 80 4d 40
        e 0 80 51 40
        e 16 90 47 6e
        e 0 90 4f 6e
        e 0 90 53 6e
        e 128 80 47 40
        e 0 80 4f 40
        e 0 80 53 40
        e 16 90 45 6e
        e 0 90 4d 6e
        e 0 90 51 6e
        e 32 80 45 40
        e 0 80 4d 40
        e 0 80 51 40
        e 16 90 45 6e
        e 0 90 4d 6e
        e 0 90 51 6e
        e 128 80 45 40
        e 0 80 4d 40
        e 0 80 51 40
        e 16 90 43 6e
        e 0 90 4c 6e
        e 0 90 4f 6e
        e 32 80 43 40
        e 0 80 4c 40
        e 0 80 4f 40
        e 16 90 45 6e
        e 0 90 4d 6e
        e 0 90 51 6e
        e 128 80 45 40
        e 0 80 4d 40
        e 0 80 51 40
        e 16 90 43 6e
        e 0 90 4c 6e
        e 0 90 4f 6e
        e 32 80 43 40
        e 0 80 4c 40
        e 0 80 4f 40
        e 16 90 45 6e
        e 0 90 4d 6e
        e 0 90 51 6e
        e 272 80 45 40
        e 0 80 4d 40
        e 0 80 51 40
        e 16 90 43 6e
        e 0 90 4c 6e
        e 0 90 4f 6e
        e 80 80 43 40
        e 0 80 4c 40
        e 0 80 4f 40
        e 16 90 40 6e
        e 0 90 48 6e
        e 0 90 4c 6e
        e 176 80 40 40
        e 0 80 48 40
        e 0 80 4c 40
        e 16 90 48 6e
        e 0 90 54 6e
        e 128 80 48 40
        e 0 80 54 40
        e 16 90 47 6e
        e 0 90 4f 6e
        e 0 90 53 6e
        e 32 80 47 40
        e 0 80 4f 40
        e 0 80 53 40
        e 16 90 47 6e
        e 0 90 4f 6e
        e 0 90 53 6e
        e 128 80 47 40
        e 0 80 4f 40
        e 0 80 53 40
        e 16 90 45 6e
        e 0 90 4d 6e
        e 0 90 51 6e
        e 32 80 45 40
        e 0 80 4d 40
        e 0 80 51 40
        e 16 90 47 6e
        e 0 90 4f 6e
        e 0 90 53 6e
        e 128 80 47 40
        e 0 80 4f 40
        e 0 80 53 40
        e 16 90 45 6e
        e 0 90 4d 6e
        e 0 90 51 6e
        e 32 80 45 40
        e 0 80 4d 40
        e 0 80 51 40
        e 16 90 45 6e
        e 0 90 4d 6e
        e 0 90 51 6e
        e 128 80 45 40
        e 0 80 4d 40
        e 0 80 51 40
        e 16 90 43 6e
        e 0 90 4c 6e
        e 0 90 4f 6e
        e 32 80 43 40
        e 0 80 4c 40
        e 0 80 4f 40
        e 16 90 45 6e
        e 0 90 4d 6e
        e 0 90 51 6e
        e 128 80 45 40
        e 0 80 4d 40
        e 0 80 51 40
        e 16 90 43 6e
        e 0 90 4c 6e
        e 0 90 4f 6e
        e 32 80 43 40
        e 0 80 4c 40
        e 0 80 4f 40
        e 16 90 40 6e
        e 0 90 48 6e
        e 0 90 4c 6e
        e 80 80 40 40
        e 0 80 48 40
        e 0 80 4c 40
        e 16 90 3c 6e
        e 0 90 48 6e
        e 32 80 3c 40
        e 0 80 48 40
        e 16 90 3c 6e
        e 0 90 48 6e
        e 32 80 3c 40
        e 0 80 48 40
        e 16 90 3c 6e
        e 0 90 48 6e
        e 80 80 3c 40
        e 0 80 48 40
        e 16 90 3e 6e
        e 0 90 4a 6e
        e 80 80 3e 40
        e 0 80 4a 40
        e 16 90 40 6e
        e 0 90 4c 6e
        e 80 80 40 40
        e 0 80 4c 40
        e 16 90 41 6e
        e 0 90 4d 6e
        e 80 80 41 40
        e 0 80 4d 40
        e 16 90 43 6e
        e 0 90 4f 6e
        e 80 80 43 40
        e 0 80 4f 40
        e 16 90 45 6e
        e 0 90 51 6e
        e 80 80 45 40
        e 0 80 51 40
        e 16 90 46 6e
        e 0 90 52 6e
        e 80 80 46 40
        e 0 80 52 40
        e 16 90 40 6e
        e 0 90 43 6e
        e 0 90 49 6e
        e 32 80 40 40
        e 0 80 43 40
        e 0 80 49 40
        e 16 90 40 6e
        e 0 90 43 6e
        e 0 90 49 6e
        e 32 80 40 40
        e 0 80 43 40
        e 0 80 49 40
        e 16 90 40 6e
        e 0 90 43 6e
        e 0 90 49 6e
        e 128 80 40 40
        e 0 80 43 40
        e 0 80 49 40
        e 16 90 40 6e
        e 0 90 43 6e
        e 0 90 49 6e
        e 32 80 40 40
        e 0 80 43 40
        e 0 80 49 40
        e 16 90 41 6e
        e 0 90 45 6e
        e 0 90 4a 6e
        e 176 80 41 40
        e 0 80 45 40
        e 0 80 4a 40
        e 16 90 40 6e
        e 0 90 43 6e
        e 0 90 45 6e
        e 0 90 49 6e
        e 176 80 40 40
        e 0 80 43 40
        e 0 80 45 40
        e 0 80 49 40
        e 16 90 3e 6e
        e 0 90 45 6e
        e 0 90 4a 6e
        e 176 80 3e 40
        e 0 80 45 40
        e 0 80 4a 40
        e 16 90 3e 6e
        e 0 90 45 6e
        e 0 90 4a 6e
        e 176 80 3e 40
        e 0 80 45 40
        e 0 80 4a 40
        e 208 90 48 6e
        e 0 90 4b 6e
        e 0 90 51 6e
        e 128 80 48 40
        e 0 80 4b 40
        e 0 80 51 40
        e 16 90 48 6e
        e 0 90 4b 6e
        e 0 90 51 6e
        e 32 80 48 40
        e 0 80 4b 40
        e 0 80 51 40
        e 16 90 48 6e
        e 0 90 4c 6e
        e 0 90 4f 6e
        e 176 80 48 40
        e 0 80 4c 40
        e 0 80 4f 40
        e 16 90 43 6e
        e 0 90 48 6e
        e 0 90 4c 6e
        e 128 80 43 40
        e 0 80 48 40
        e 0 80 4c 40
        e 16 90 43 6e
        e 0 90 48 6e
        e 0 90 4c 6e
        e 32 80 43 40
        e 0 80 48 40
        e 0 80 4c 40
        e 16 90 43 6e
        e 0 90 4a 6e
        e 0 90 4d 6e
        e 176 80 43 40
        e 0 80 4a 40
        e 0 80 4d 40
        e 16 90 43 6e
        e 0 90 47 6e
        e 0 90 4a 6e
        e 128 80 43 40
        e 0 80 47 40
        e 0 80 4a 40
        e 16 90 43 6e
        e 0 90 47 6e
        e 0 90 4a 6e
        e 32 80 43 40
        e 0 80 47 40
        e 0 80 4a 40
        e 16 90 43 6e
        e 0 90 48 6e
        e 0 90 4c 6e
        e 176 80 43 40
        e 0 80 48 40
        e 0 80 4c 40
        e 16 90 34 6e
        e 48 80 34 40
        e 16 90 35 6e
        e 48 80 35 40
        e 16 90 37 6e
        e 48 80 37 40
        e 16 90 39 6e
        e 48 80 39 40
        e 16 90 3b 6e
        e 48 80 3b 40
        e 16 90 3c 6e
        e 48 80 3c 40
        e 16 90 3e 6e
        e 48 80 3e 40
        e 16 90 40 6e
        e 48 80 40 40
        e 16 90 41 6e
        e 48 80 41 40
        e 16 90 43 6e
        e 80 80 43 40
        e 16 90 48 6e
        e 0 90 4c 6e
        e 0 90 4d 6e
        e 0 90 4f 6e
        e 0 90 54 6e
        e 32 80 48 40
        e 0 80 4c 40
        e 0 80 4d 40
        e 0 80 4f 40
        e 0 80 54 40
        e 16 90 48 6e
        e 0 90 4c 6e
        e 0 90 4f 6e
        e 0 90 54 6e
        e 32 80 48 40
        e 0 80 4c 40
        e 0 80 4f 40
        e 0 80 54 40
        e 16 90 48 6e
        e 0 90 4c 6e
        e 0 90 4f 6e
        e 0 90 54 6e
        e 80 80 48 40
        e 0 80 4c 40
        e 0 80 4f 40
        e 0 80 54 40
        e 16 90 48 6e
        e 0 90 4c 6e
        e 0 90 4f 6e
        e 0 90 54 6e
        e 80 80 48 40
        e 0 80 4c 40
        e 0 80 4f 40
        e 0 80 54 40
        e 16 90 4a 6e
        e 0 90 4d 6e
        e 0 90 4f 6e
        e 0 90 53 6e
        e 80 80 4a 40
        e 0 80 4d 40
        e 0 80 4f 40
        e 0 80 53 40
        e 16 90 4a 6e
        e 0 90 4d 6e
        e 0 90 4f 6e
        e 0 90 53 6e
        e 32 80 4a 40
        e 0 80 4d 40
        e 0 80 4f 40
        e 0 80 53 40
        e 16 90 4a 6e
        e 0 90 4d 6e
        e 0 90 4f 6e
        e 0 90 53 6e
        e 32 80 4a 40
        e 0 80 4d 40
        e 0 80 4f 40
        e 0 80 53 40
        e 16 90 4a 6e
        e 0 90 4d 6e
        e 0 90 4f 6e
        e 0 90 53 6e
        e 80 80 4a 40
        e 0 80 4d 40
        e 0 80 4f 40
        e 0 80 53 40
        e 16 90 4a 6e
        e 0 90 4d 6e
        e 0 90 4f 6e
        e 0 90 53 6e
        e 80 80 4a 40
        e 0 80 4d 40
        e 0 80 4f 40
        e 0 80 53 40
        e 16 90 48 6e
        e 0 90 4c 6e
        e 0 90 54 6e
        e 176 80 48 40
        e 0 80 4c 40
        e 0 80 54 40
        e 16 90 34 6e
        e 48 80 34 40
        e 16 90 35 6e
        e 48 80 35 40
        e 16 90 37 6e
        e 48 80 37 40
        e 16 90 39 6e
        e 48 80 39 40
        e 16 90 3b 6e
        e 48 80 3b 40
        e 16 90 3c 6e
        e 48 80 3c 40
        e 16 90 3e 6e
        e 48 80 3e 40
        e 16 90 40 6e
        e 48 80 40 40
        e 16 90 41 6e
        e 48 80 41 40
        e 16 90 43 6e
        e 80 80 43 40
        e 16 90 48 6e
        e 0 90 4c 6e
        e 0 90 54 6e
        e 32 80 48 40
        e 0 80 4c 40
        e 0 80 54 40
        e 16 90 48 6e
        e 0 90 4c 6e
        e 0 90 4f 6e
        e 0 90 54 6e
        e 32 80 48 40
        e 0 80 4c 40
        e 0 80 4f 40
        e 0 80 54 40
        e 16 90 48 6e
        e 0 90 4c 6e
        e 0 90 4f 6e
        e 0 90 54 6e
        e 80 80 48 40
        e 0 80 4c 40
        e 0 80 4f 40
        e 0 80 54 40
        e 16 90 48 6e
        e 0 90 4c 6e
        e 0 90 4f 6e
        e 0 90 54 6e
        e 80 80 48 40
        e 0 80 4c 40
        e 0 80 4f 40
        e 0 80 54 40
        e 16 90 4a 6e
        e 0 90 4d 6e
        e 0 90 4f 6e
        e 0 90 53 6e
        e 80 80 4a 40
        e 0 80 4d 40
        e 0 80 4f 40
        e 0 80 53 40
        e 16 90 4a 6e
        e 0 90 4d 6e
        e 0 90 4f 6e
        e 0 90 53 6e
        e 32 80 4a 40
        e 0 80 4d 40
        e 0 80 4f 40
        e 0 80 53 40
        e 16 90 4a 6e
        e 0 90 4d 6e
        e 0 90 4f 6e
        e 0 90 53 6e
        e 32 80 4a 40
        e 0 80 4d 40
        e 0 80 4f 40
        e 0 80 53 40
        e 16 90 4a 6e
        e 0 90 4d 6e
        e 0 90 4f 6e
        e 0 90 53 6e
        e 80 80 4a 40
        e 0 80 4d 40
        e 0 80 4f 40
        e 0 80 53 40
        e 16 90 4a 6e
        e 0 90 4d 6e
        e 0 90 4f 6e
        e 0 90 53 6e
        e 80 80 4a 40
        e 0 80 4d 40
        e 0 80 4f 40
        e 0 80 53 40
        e 16 90 48 6e
        e 0 90 4c 6e
        e 0 90 4f 6e
        e 0 90 54 6e
        e 176 80 48 40
        e 0 80 4c 40
        e 0 80 4f 40
        e 0 80 54 40
        e 16 90 48 6e
        e 48 80 48 40
        e 16 90 43 6e
        e 48 80 43 40
        e 16 90 4c 6e
        e 48 80 4c 40
        e 16 90 48 6e
        e 48 80 48 40
        e 16 90 43 6e
        e 48 80 43 40
        e 16 90 4c 6e
        e 48 80 4c 40
        e 16 90 48 6e
        e 48 80 48 40
        e 16 90 43 6e
        e 48 80 43 40
        e 16 90 4c 6e
        e 48 80 4c 40
        e 16 90 48 6e
        e 48 80 48 40
        e 16 90 54 6e
        e 48 80 54 40
        e 16 90 53 6e
        e 48 80 53 40
        e 16 90 54 6e
        e 48 80 54 40
        e 16 90 4f 6e
        e 48 80 4f 40
        e 16 90 4c 6e
        e 48 80 4c 40
        e 16 90 48 6e
        e 48 80 48 40
        e 16 90 48 6e
        e 48 80 48 40
        e 16 90 47 6e
        e 48 80 47 40
        e 16 90 48 6e
        e 48 80 48 40
        e 16 90 43 6e
        e 48 80 43 40
        e 16 90 40 6e
        e 48 80 40 40
        e 16 90 3c 6e
        e 176 80 3c 40
        e 16 90 40 6e
        e 0 90 43 6e
        e 0 90 48 6e
        e 128 80 40 40
        e 0 80 43 40
        e 0 80 48 40
        e 16 90 40 6e
        e 0 90 43 6e
        e 0 90 48 6e
        e 32 80 40 40
        e 0 80 43 40
        e 0 80 48 40
        e 16 90 40 6e
        e 0 90 43 6e
        e 0 90 48 6e
        e 176 80 40 40
        e 0 80 43 40
        e 0 80 48 40
        E 16 b0 7b 00
        GUID {D751D57D-4D20-8D47-B451-B1AC63A444F1}
        IGNTEMPO 0 120 4 4
        SRCCOLOR 721
        VELLANE -1 86 6
        CFGEDITVIEW 6412.8 8.219697 50 24 0 0 0 0 0 0.5
        KEYSNAP 0
        TRACKSEL 226
        EVTFILTER 0 -1 -1 -1 -1 0 1 0 0 -1 -1 -1 -1 0 -1 0 -1 -1
        CFGEDIT 1 0 0 0 0 0 1 0 1 1 1 0.25 16 63 1280 778 0 0 2 3 0 0 0 0 0 0.5 0 0 1 64
      >
      TAKE
      NAME "Accompany.RH         - National_Anthems_-_Chile.mid"
      TAKEVOLPAN 0 1 -1
      SOFFS 21.5 43
      PLAYRATE 1 1 0 -1 0 0.0025
      CHANMODE 0
      GUID {29204520-80D7-E646-8F80-A3B7D3925C7A}
      <SOURCE MIDI
        HASDATA 1 192 QN
        POOLEDEVTS {D30F8059-B4A0-8C40-9355-1313C0A574C7}
        <X 0 0 0 0 3 "Accompany.RH        "
          /wNBY2NvbXBhbnkuUkggICAgICAgIA==
        >
        e 720 90 4f 6e
        e 16 90 51 6e
        e 6 80 4f 40
        e 2 90 53 6e
        e 14 80 51 40
        e 8 80 53 40
        e 2 90 48 6e
        e 0 90 54 6e
        e 334 80 48 40
        e 0 80 54 40
        e 2 90 47 6e
        e 0 90 53 6e
        e 46 80 47 40
        e 0 80 53 40
        e 2 90 48 6e
        e 0 90 54 6e
        e 142 80 48 40
        e 0 80 54 40
        e 2 90 44 6e
        e 0 90 50 6e
        e 46 80 44 40
        e 0 80 50 40
        e 2 90 45 6e
        e 0 90 51 6e
        e 142 80 45 40
        e 0 80 51 40
        e 2 90 40 6e
        e 0 90 4c 6e
        e 46 80 40 40
        e 0 80 4c 40
        e 2 90 41 6e
        e 0 90 4d 6e
        e 142 80 41 40
        e 0 80 4d 40
        e 2 90 3d 6e
        e 0 90 49 6e
        e 46 80 3d 40
        e 0 80 49 40
        e 2 90 3e 6e
        e 0 90 4a 6e
        e 142 80 3e 40
        e 0 80 4a 40
        e 2 90 3a 6e
        e 0 90 46 6e
        e 46 80 3a 40
        e 0 80 46 40
        e 2 90 3b 6e
        e 0 90 47 6e
        e 190 80 3b 40
        e 0 80 47 40
        e 50 90 43 6e
        e 22 80 43 40
        e 2 90 45 6e
        e 22 80 45 40
        e 2 90 47 6e
        e 22 80 47 40
        e 2 90 48 6e
        e 22 80 48 40
        e 2 90 4a 6e
        e 22 80 4a 40
        e 2 90 4c 6e
        e 22 80 4c 40
        e 98 90 47 6e
        e 0 90 4a 6e
        e 0 90 4d 6e
        e 46 80 47 40
        e 0 80 4a 40
        e 0 80 4d 40
        e 2 90 47 6e
        e 0 90 4a 6e
        e 0 90 4d 6e
        e 46 80 47 40
        e 0 80 4a 40
        e 0 80 4d 40
        e 2 90 47 6e
        e 0 90 4a 6e
        e 0 90 4d 6e
        e 94 80 47 40
        e 0 80 4a 40
        e 0 80 4d 40
        e 2 90 47 6e
        e 0 90 4a 6e
        e 0 90 4d 6e
        e 94 80 47 40
        e 0 80 4a 40
        e 0 80 4d 40
        e 2 90 47 6e
        e 0 90 4a 6e
        e 0 90 4d 6e
        e 94 80 47 40
        e 0 80 4a 40
        e 0 80 4d 40
        e 2 90 47 6e
        e 0 90 4a 6e
        e 0 90 4d 6e
        e 94 80 47 40
        e 0 80 4a 40
        e 0 80 4d 40
        e 2 90 48 6e
        e 0 90 4d 6e
        e 94 80 48 40
        e 0 80 4d 40
        e 2 90 4a 6e
        e 0 90 4d 6e
        e 94 80 4a 40
        e 0 80 4d 40
        e 2 90 43 6e
        e 0 90 48 6e
        e 0 90 4c 6e
        e 94 80 43 40
        e 0 80 48 40
        e 0 80 4c 40
        e 2 90 4c 6e
        e 46 80 4c 40
        e 2 90 4d 6e
        e 46 80 4d 40
        e 2 90 41 6e
        e 0 90 47 6e
        e 0 90 4a 6e
        e 94 80 41 40
        e 0 80 47 40
        e 0 80 4a 40
        e 2 90 4a 6e
        e 46 80 4a 40
        e 2 90 4c 6e
        e 46 80 4c 40
        e 2 90 40 6e
        e 0 90 48 6e
        e 190 80 40 40
        e 0 80 48 40
        e 26 90 48 6e
        e 22 80 48 40
        e 2 90 4a 6e
        e 22 80 4a 40
        e 2 90 4c 6e
        e 22 80 4c 40
        e 2 90 4d 6e
        e 22 80 4d 40
        e 2 90 4f 6e
        e 22 80 4f 40
        e 2 90 51 6e
        e 22 80 51 40
        e 2 90 53 6e
        e 22 80 53 40
        e 2 90 54 6e
        e 94 80 54 40
        e 2 90 51 6e
        e 0 90 54 6e
        e 46 80 51 40
        e 0 80 54 40
        e 2 90 51 6e
        e 0 90 54 6e
        e 46 80 51 40
        e 0 80 54 40
        e 2 90 51 6e
        e 0 90 54 6e
        e 94 80 51 40
        e 0 80 54 40
        e 2 90 51 6e
        e 0 90 54 6e
        e 94 80 51 40
        e 0 80 54 40
        e 2 90 51 6e
        e 0 90 54 6e
        e 94 80 51 40
        e 0 80 54 40
        e 2 90 50 6e
        e 0 90 53 6e
        e 46 80 50 40
        e 0 80 53 40
        e 2 90 51 6e
        e 0 90 54 6e
        e 46 80 51 40
        e 0 80 54 40
        e 2 90 53 6e
        e 0 90 56 6e
        e 46 80 53 40
        e 0 80 56 40
        e 2 90 51 6e
        e 0 90 54 6e
        e 46 80 51 40
        e 0 80 54 40
        e 2 90 4f 6e
        e 0 90 53 6e
        e 46 80 4f 40
        e 0 80 53 40
        e 2 90 4d 6e
        e 0 90 51 6e
        e 46 80 4d 40
        e 0 80 51 40
        e 2 90 4c 6e
        e 0 90 4f 6e
        e 94 80 4c 40
        e 0 80 4f 40
        e 2 90 4f 6e
        e 46 80 4f 40
        e 2 90 51 6e
        e 46 80 51 40
        e 2 90 4a 6e
        e 0 90 4d 6e
        e 94 80 4a 40
        e 0 80 4d 40
        e 2 90 4d 6e
        e 46 80 4d 40
        e 2 90 4f 6e
        e 46 80 4f 40
        e 2 90 48 6e
        e 0 90 4c 6e
        e 190 80 48 40
        e 0 80 4c 40
        e 26 90 3c 6e
        e 22 80 3c 40
        e 2 90 3e 6e
        e 22 80 3e 40
        e 2 90 40 6e
        e 22 80 40 40
        e 2 90 41 6e
        e 22 80 41 40
        e 2 90 43 6e
        e 22 80 43 40
        e 2 90 45 6e
        e 22 80 45 40
        e 2 90 47 6e
        e 22 80 47 40
        e 2 90 48 6e
        e 80 80 48 40
        e 16 90 3c 6e
        e 0 90 3f 6e
        e 0 90 44 6e
        e 0 90 48 6e
        e 32 80 3c 40
        e 0 80 3f 40
        e 0 80 44 40
        e 0 80 48 40
        e 16 90 3c 6e
        e 0 90 3f 6e
        e 0 90 44 6e
        e 0 90 48 6e
        e 32 80 3c 40
        e 0 80 3f 40
        e 0 80 44 40
        e 0 80 48 40
        e 16 90 3c 6e
        e 0 90 3f 6e
        e 0 90 44 6e
        e 0 90 48 6e
        e 80 80 3c 40
        e 0 80 3f 40
        e 0 80 44 40
        e 0 80 48 40
        e 16 90 3c 6e
        e 0 90 3f 6e
        e 0 90 44 6e
        e 0 90 48 6e
        e 80 80 3c 40
        e 0 80 3f 40
        e 0 80 44 40
        e 0 80 48 40
        e 16 90 3c 6e
        e 0 90 3f 6e
        e 0 90 44 6e
        e 0 90 48 6e
        e 80 80 3c 40
        e 0 80 3f 40
        e 0 80 44 40
        e 0 80 48 40
        e 16 90 3e 6e
        e 0 90 48 6e
        e 0 90 4a 6e
        e 80 80 3e 40
        e 0 80 48 40
        e 0 80 4a 40
        e 16 90 3f 6e
        e 0 90 48 6e
        e 0 90 4b 6e
        e 80 80 3f 40
        e 0 80 48 40
        e 0 80 4b 40
        e 16 90 42 6e
        e 0 90 48 6e
        e 0 90 4b 6e
        e 0 90 4e 6e
        e 80 80 42 40
        e 0 80 48 40
        e 0 80 4b 40
        e 0 80 4e 40
        e 16 90 43 6e
        e 0 90 48 6e
        e 0 90 4c 6e
        e 0 90 4f 6e
        e 80 80 43 40
        e 0 80 48 40
        e 0 80 4c 40
        e 0 80 4f 40
        e 16 90 43 6e
        e 0 90 48 6e
        e 0 90 4c 6e
        e 0 90 4f 6e
        e 32 80 43 40
        e 0 80 48 40
        e 0 80 4c 40
        e 0 80 4f 40
        e 16 90 43 6e
        e 0 90 48 6e
        e 0 90 4c 6e
        e 0 90 4f 6e
        e 32 80 43 40
        e 0 80 48 40
        e 0 80 4c 40
        e 0 80 4f 40
        e 16 90 43 6e
        e 0 90 48 6e
        e 0 90 4c 6e
        e 80 80 43 40
        e 0 80 48 40
        e 0 80 4c 40
        e 16 90 43 6e
        e 0 90 48 6e
        e 0 90 4c 6e
        e 80 80 43 40
        e 0 80 48 40
        e 0 80 4c 40
        e 16 90 43 6e
        e 0 90 47 6e
        e 0 90 4a 6e
        e 0 90 4f 6e
        e 80 80 43 40
        e 0 80 47 40
        e 0 80 4a 40
        e 0 80 4f 40
        e 16 90 43 6e
        e 0 90 47 6e
        e 0 90 4a 6e
        e 0 90 4f 6e
        e 32 80 43 40
        e 0 80 47 40
        e 0 80 4a 40
        e 0 80 4f 40
        e 16 90 43 6e
        e 0 90 47 6e
        e 0 90 4a 6e
        e 0 90 4f 6e
        e 32 80 43 40
        e 0 80 47 40
        e 0 80 4a 40
        e 0 80 4f 40
        e 16 90 43 6e
        e 0 90 47 6e
        e 0 90 4a 6e
        e 80 80 43 40
        e 0 80 47 40
        e 0 80 4a 40
        e 16 90 43 6e
        e 0 90 47 6e
        e 0 90 4a 6e
        e 32 80 43 40
        e 0 80 47 40
        e 0 80 4a 40
        e 64 90 40 6e
        e 0 90 43 6e
        e 0 90 48 6e
        e 176 80 40 40
        e 0 80 43 40
        e 0 80 48 40
        e 112 90 43 6e
        e 16 80 43 40
        e 16 90 45 6e
        e 16 80 45 40
        e 16 90 47 6e
        e 16 80 47 40
        e 16 90 48 6e
        e 80 80 48 40
        e 16 90 43 6e
        e 16 80 43 40
        e 16 90 45 6e
        e 16 80 45 40
        e 16 90 47 6e
        e 16 80 47 40
        e 16 90 48 6e
        e 80 80 48 40
        e 16 90 43 6e
        e 16 80 43 40
        e 16 90 45 6e
        e 16 80 45 40
        e 16 90 47 6e
        e 16 80 47 40
        e 16 90 48 6e
        e 176 80 48 40
        e 16 90 40 6e
        e 0 90 43 6e
        e 0 90 48 6e
        e 128 80 40 40
        e 0 80 43 40
        e 0 80 48 40
        e 16 90 40 6e
        e 0 90 43 6e
        e 0 90 48 6e
        e 32 80 40 40
        e 0 80 43 40
        e 0 80 48 40
        e 16 90 40 6e
        e 0 90 43 6e
        e 0 90 48 6e
        e 176 80 40 40
        e 0 80 43 40
        e 0 80 48 40
        e 16 90 43 6e
        e 128 80 43 40
        e 16 90 48 6e
        e 32 80 48 40
        e 16 90 40 6e
        e 0 90 48 6e
        e 128 80 40 40
        e 0 80 48 40
        e 16 90 43 6e
        e 0 90 47 6e
        e 32 80 43 40
        e 0 80 47 40
        e 16 90 43 6e
        e 0 90 47 6e
        e 128 80 43 40
        e 0 80 47 40
        e 16 90 41 6e
        e 0 90 45 6e
        e 32 80 41 40
        e 0 80 45 40
        e 16 90 41 6e
        e 0 90 45 6e
        e 128 80 41 40
        e 0 80 45 40
        e 16 90 40 6e
        e 0 90 43 6e
        e 32 80 40 40
        e 0 80 43 40
        e 16 90 40 6e
        e 0 90 43 6e
        e 128 80 40 40
        e 0 80 43 40
        e 16 90 3f 6e
        e 0 90 42 6e
        e 32 80 3f 40
        e 0 80 42 40
        e 16 90 40 6e
        e 0 90 43 6e
        e 272 80 40 40
        e 0 80 43 40
        e 16 90 3e 6e
        e 0 90 41 6e
        e 80 80 3e 40
        e 0 80 41 40
        e 16 90 3c 6e
        e 0 90 40 6e
        e 176 80 3c 40
        e 0 80 40 40
        e 16 90 3b 6e
        e 0 90 3e 6e
        e 128 80 3b 40
        e 0 80 3e 40
        e 16 90 3c 6e
        e 0 90 40 6e
        e 32 80 3c 40
        e 0 80 40 40
        e 16 90 3e 6e
        e 0 90 41 6e
        e 80 80 3e 40
        e 0 80 41 40
        e 112 90 3e 6e
        e 0 90 41 6e
        e 80 80 3e 40
        e 0 80 41 40
        e 112 90 3c 6e
        e 0 90 40 6e
        e 80 80 3c 40
        e 0 80 40 40
        e 112 90 3c 6e
        e 0 90 40 6e
        e 80 80 3c 40
        e 0 80 40 40
        e 112 90 3b 6e
        e 0 90 3e 6e
        e 0 90 43 6e
        e 80 80 3b 40
        e 0 80 3e 40
        e 0 80 43 40
        e 16 90 3b 6e
        e 0 90 3e 6e
        e 0 90 43 6e
        e 32 80 3b 40
        e 0 80 3e 40
        e 0 80 43 40
        e 16 90 3b 6e
        e 0 90 3e 6e
        e 0 90 43 6e
        e 32 80 3b 40
        e 0 80 3e 40
        e 0 80 43 40
        e 16 90 3b 6e
        e 0 90 3e 6e
        e 0 90 43 6e
        e 80 80 3b 40
        e 0 80 3e 40
        e 0 80 43 40
        e 16 90 3b 6e
        e 0 90 3e 6e
        e 0 90 43 6e
        e 80 80 3b 40
        e 0 80 3e 40
        e 0 80 43 40
        e 16 90 3b 6e
        e 0 90 3e 6e
        e 0 90 43 6e
        e 80 80 3b 40
        e 0 80 3e 40
        e 0 80 43 40
        e 304 90 40 6e
        e 0 90 48 6e
        e 128 80 40 40
        e 0 80 48 40
        e 16 90 43 6e
        e 0 90 47 6e
        e 32 80 43 40
        e 0 80 47 40
        e 16 90 43 6e
        e 0 90 47 6e
        e 128 80 43 40
        e 0 80 47 40
        e 16 90 41 6e
        e 0 90 45 6e
        e 32 80 41 40
        e 0 80 45 40
        e 16 90 41 6e
        e 0 90 45 6e
        e 128 80 41 40
        e 0 80 45 40
        e 16 90 40 6e
        e 0 90 43 6e
        e 32 80 40 40
        e 0 80 43 40
        e 16 90 40 6e
        e 0 90 43 6e
        e 128 80 40 40
        e 0 80 43 40
        e 16 90 3f 6e
        e 0 90 42 6e
        e 32 80 3f 40
        e 0 80 42 40
        e 16 90 40 6e
        e 0 90 43 6e
        e 272 80 40 40
        e 0 80 43 40
        e 16 90 3e 6e
        e 0 90 41 6e
        e 80 80 3e 40
        e 0 80 41 40
        e 16 90 3c 6e
        e 0 90 40 6e
        e 176 80 3c 40
        e 0 80 40 40
        e 16 90 3c 6e
        e 0 90 40 6e
        e 128 80 3c 40
        e 0 80 40 40
        e 16 90 3c 6e
        e 0 90 40 6e
        e 32 80 3c 40
        e 0 80 40 40
        e 16 90 3b 6e
        e 0 90 3e 6e
        e 0 90 43 6e
        e 80 80 3b 40
        e 0 80 3e 40
        e 0 80 43 40
        e 112 90 3b 6e
        e 0 90 3e 6e
        e 0 90 43 6e
        e 80 80 3b 40
        e 0 80 3e 40
        e 0 80 43 40
        e 112 90 39 6e
        e 0 90 3e 6e
        e 0 90 42 6e
        e 80 80 39 40
        e 0 80 3e 40
        e 0 80 42 40
        e 112 90 39 6e
        e 0 90 3e 6e
        e 0 90 42 6e
        e 80 80 39 40
        e 0 80 3e 40
        e 0 80 42 40
        e 112 90 3b 6e
        e 0 90 3e 6e
        e 0 90 43 6e
        e 176 80 3b 40
        e 0 80 3e 40
        e 0 80 43 40
        e 16 90 3b 6e
        e 0 90 3e 6e
        e 0 90 43 6e
        e 128 80 3b 40
        e 0 80 3e 40
        e 0 80 43 40
        e 16 90 3b 6e
        e 0 90 3e 6e
        e 0 90 43 6e
        e 32 80 3b 40
        e 0 80 3e 40
        e 0 80 43 40
        e 16 90 3b 6e
        e 0 90 3e 6e
        e 0 90 43 6e
        e 176 80 3b 40
        e 0 80 3e 40
        e 0 80 43 40
        e 208 90 3f 6e
        e 0 90 43 6e
        e 80 80 3f 40
        e 0 80 43 40
        e 16 90 3a 6e
        e 80 80 3a 40
        e 16 90 3f 6e
        e 0 90 43 6e
        e 80 80 3f 40
        e 0 80 43 40
        e 16 90 3a 6e
        e 80 80 3a 40
        e 16 90 41 6e
        e 0 90 44 6e
        e 80 80 41 40
        e 0 80 44 40
        e 16 90 3f 6e
        e 0 90 43 6e
        e 80 80 3f 40
        e 0 80 43 40
        e 16 90 3e 6e
        e 0 90 41 6e
        e 80 80 3e 40
        e 0 80 41 40
        e 16 90 3f 6e
        e 0 90 43 6e
        e 80 80 3f 40
        e 0 80 43 40
        e 16 90 41 6e
        e 0 90 44 6e
        e 80 80 41 40
        e 0 80 44 40
        e 16 90 3a 6e
        e 80 80 3a 40
        e 16 90 41 6e
        e 0 90 44 6e
        e 80 80 41 40
        e 0 80 44 40
        e 16 90 3a 6e
        e 80 80 3a 40
        e 16 90 3e 6e
        e 0 90 41 6e
        e 80 80 3e 40
        e 0 80 41 40
        e 16 90 3a 6e
        e 80 80 3a 40
        e 16 90 3e 6e
        e 0 90 41 6e
        e 80 80 3e 40
        e 0 80 41 40
        e 16 90 3a 6e
        e 80 80 3a 40
        e 16 90 41 6e
        e 0 90 44 6e
        e 80 80 41 40
        e 0 80 44 40
        e 16 90 3a 6e
        e 80 80 3a 40
        e 16 90 41 6e
        e 0 90 44 6e
        e 80 80 41 40
        e 0 80 44 40
        e 16 90 3a 6e
        e 80 80 3a 40
        e 16 90 43 6e
        e 0 90 46 6e
        e 80 80 43 40
        e 0 80 46 40
        e 16 90 41 6e
        e 0 90 44 6e
        e 80 80 41 40
        e 0 80 44 40
        e 16 90 3f 6e
        e 0 90 43 6e
        e 80 80 3f 40
        e 0 80 43 40
        e 16 90 41 6e
        e 0 90 44 6e
        e 80 80 41 40
        e 0 80 44 40
        e 16 90 43 6e
        e 0 90 46 6e
        e 80 80 43 40
        e 0 80 46 40
        e 16 90 3a 6e
        e 80 80 3a 40
        e 16 90 43 6e
        e 0 90 46 6e
        e 80 80 43 40
        e 0 80 46 40
        e 16 90 41 6e
        e 0 90 44 6e
        e 80 80 41 40
        e 0 80 44 40
        e 16 90 3f 6e
        e 0 90 43 6e
        e 80 80 3f 40
        e 0 80 43 40
        e 16 90 3a 6e
        e 80 80 3a 40
        e 16 90 3f 6e
        e 0 90 43 6e
        e 80 80 3f 40
        e 0 80 43 40
        e 16 90 3a 6e
        e 80 80 3a 40
        e 16 90 3c 6e
        e 0 90 3f 6e
        e 176 80 3c 40
        e 0 80 3f 40
        e 16 90 3c 6e
        e 0 90 3f 6e
        e 128 80 3c 40
        e 0 80 3f 40
        e 16 90 3c 6e
        e 0 90 3f 6e
        e 32 80 3c 40
        e 0 80 3f 40
        e 16 90 3c 6e
        e 0 90 3f 6e
        e 176 80 3c 40
        e 0 80 3f 40
        e 16 90 3c 6e
        e 0 90 3f 6e
        e 0 90 42 6e
        e 176 80 3c 40
        e 0 80 3f 40
        e 0 80 42 40
        e 16 90 3b 6e
        e 0 90 3e 6e
        e 0 90 43 6e
        e 176 80 3b 40
        e 0 80 3e 40
        e 0 80 43 40
        e 16 90 3b 6e
        e 0 90 3e 6e
        e 0 90 43 6e
        e 128 80 3b 40
        e 0 80 3e 40
        e 0 80 43 40
        e 16 90 3b 6e
        e 0 90 3e 6e
        e 0 90 43 6e
        e 32 80 3b 40
        e 0 80 3e 40
        e 0 80 43 40
        e 16 90 3b 6e
        e 0 90 3e 6e
        e 0 90 43 6e
        e 176 80 3b 40
        e 0 80 3e 40
        e 0 80 43 40
        e 16 90 3c 6e
        e 0 90 40 6e
        e 128 80 3c 40
        e 0 80 40 40
        e 16 90 3c 6e
        e 0 90 40 6e
        e 32 80 3c 40
        e 0 80 40 40
        e 16 90 3c 6e
        e 0 90 40 6e
        e 128 80 3c 40
        e 0 80 40 40
        e 16 90 3b 6e
        e 0 90 3e 6e
        e 32 80 3b 40
        e 0 80 3e 40
        e 16 90 3c 6e
        e 0 90 40 6e
        e 128 80 3c 40
        e 0 80 40 40
        e 16 90 3b 6e
        e 0 90 3e 6e
        e 32 80 3b 40
        e 0 80 3e 40
        e 16 90 3c 6e
        e 0 90 40 6e
        e 128 80 3c 40
        e 0 80 40 40
        e 16 90 3b 6e
        e 0 90 3e 6e
        e 32 80 3b 40
        e 0 80 3e 40
        e 16 90 3c 6e
        e 0 90 40 6e
        e 128 80 3c 40
        e 0 80 40 40
        e 16 90 3e 6e
        e 0 90 41 6e
        e 32 80 3e 40
        e 0 80 41 40
        e 16 90 40 6e
        e 0 90 43 6e
        e 176 80 40 40
        e 0 80 43 40
        e 16 90 41 6e
        e 0 90 45 6e
        e 368 80 41 40
        e 0 80 45 40
        e 16 90 3b 6e
        e 0 90 3e 6e
        e 128 80 3b 40
        e 0 80 3e 40
        e 16 90 3b 6e
        e 0 90 3e 6e
        e 32 80 3b 40
        e 0 80 3e 40
        e 16 90 3b 6e
        e 0 90 3e 6e
        e 128 80 3b 40
        e 0 80 3e 40
        e 16 90 39 6e
        e 0 90 3c 6e
        e 32 80 39 40
        e 0 80 3c 40
        e 16 90 3b 6e
        e 0 90 3e 6e
        e 128 80 3b 40
        e 0 80 3e 40
        e 16 90 39 6e
        e 0 90 3c 6e
        e 32 80 39 40
        e 0 80 3c 40
        e 16 90 3b 6e
        e 0 90 3e 6e
        e 128 80 3b 40
        e 0 80 3e 40
        e 16 90 3c 6e
        e 0 90 40 6e
        e 32 80 3c 40
        e 0 80 40 40
        e 16 90 3e 6e
        e 0 90 41 6e
        e 128 80 3e 40
        e 0 80 41 40
        e 16 90 3f 6e
        e 0 90 42 6e
        e 32 80 3f 40
        e 0 80 42 40
        e 16 90 41 6e
        e 0 90 45 6e
        e 176 80 41 40
        e 0 80 45 40
        e 16 90 40 6e
        e 0 90 43 6e
        e 80 80 40 40
        e 0 80 43 40
        e 304 90 3c 6e
        e 0 90 41 6e
        e 0 90 45 6e
        e 176 80 3c 40
        e 0 80 41 40
        e 0 80 45 40
        e 208 90 3c 6e
        e 0 90 40 6e
        e 0 90 43 6e
        e 176 80 3c 40
        e 0 80 40 40
        e 0 80 43 40
        e 208 90 3b 6e
        e 0 90 3e 6e
        e 0 90 41 6e
        e 176 80 3b 40
        e 0 80 3e 40
        e 0 80 41 40
        e 208 90 3c 6e
        e 0 90 40 6e
        e 176 80 3c 40
        e 0 80 40 40
        e 16 90 41 6e
        e 0 90 45 6e
        e 128 80 41 40
        e 0 80 45 40
        e 16 90 43 6e
        e 0 90 47 6e
        e 32 80 43 40
        e 0 80 47 40
        e 16 90 45 6e
        e 0 90 48 6e
        e 48 80 45 40
        e 0 80 48 40
        e 16 90 43 6e
        e 0 90 47 6e
        e 48 80 43 40
        e 0 80 47 40
        e 16 90 41 6e
        e 0 90 45 6e
        e 48 80 41 40
        e 0 80 45 40
        e 16 90 40 6e
        e 0 90 43 6e
        e 128 80 40 40
        e 0 80 43 40
        e 16 90 45 6e
        e 0 90 48 6e
        e 32 80 45 40
        e 0 80 48 40
        e 16 90 45 6e
        e 0 90 48 6e
        e 48 80 45 40
        e 0 80 48 40
        e 16 90 43 6e
        e 0 90 47 6e
        e 48 80 43 40
        e 0 80 47 40
        e 16 90 41 6e
        e 0 90 45 6e
        e 48 80 41 40
        e 0 80 45 40
        e 16 90 41 6e
        e 0 90 45 6e
        e 48 80 41 40
        e 0 80 45 40
        e 16 90 40 6e
        e 0 90 43 6e
        e 48 80 40 40
        e 0 80 43 40
        e 16 90 3e 6e
        e 0 90 41 6e
        e 48 80 3e 40
        e 0 80 41 40
        e 16 90 3e 6e
        e 0 90 41 6e
        e 48 80 3e 40
        e 0 80 41 40
        e 16 90 3c 6e
        e 0 90 40 6e
        e 48 80 3c 40
        e 0 80 40 40
        e 16 90 37 6e
        e 0 90 3b 6e
        e 48 80 37 40
        e 0 80 3b 40
        e 16 90 34 6e
        e 0 90 3c 6e
        e 80 80 34 40
        e 0 80 3c 40
        e 16 90 40 6e
        e 32 80 40 40
        e 16 90 40 6e
        e 32 80 40 40
        e 16 90 40 6e
        e 80 80 40 40
        e 16 90 40 6e
        e 32 80 40 40
        e 64 90 40 6e
        e 80 80 40 40
        e 16 90 40 6e
        e 32 80 40 40
        e 64 90 40 6e
        e 80 80 40 40
        e 16 90 40 6e
        e 32 80 40 40
        e 64 90 47 6e
        e 0 90 4c 6e
        e 32 80 47 40
        e 0 80 4c 40
        e 16 90 50 6e
        e 32 80 50 40
        e 16 90 47 6e
        e 0 90 4c 6e
        e 32 80 47 40
        e 0 80 4c 40
        e 16 90 50 6e
        e 32 80 50 40
        e 16 90 47 6e
        e 0 90 4c 6e
        e 32 80 47 40
        e 0 80 4c 40
        e 16 90 50 6e
        e 32 80 50 40
        e 16 90 47 6e
        e 0 90 4c 6e
        e 32 80 47 40
        e 0 80 4c 40
        e 16 90 50 6e
        e 32 80 50 40
        e 16 90 47 6e
        e 0 90 4c 6e
        e 32 80 47 40
        e 0 80 4c 40
        e 16 90 50 6e
        e 32 80 50 40
        e 16 90 47 6e
        e 0 90 4c 6e
        e 32 80 47 40
        e 0 80 4c 40
        e 16 90 50 6e
        e 32 80 50 40
        e 16 90 48 6e
        e 0 90 4c 6e
        e 32 80 48 40
        e 0 80 4c 40
        e 16 90 51 6e
        e 32 80 51 40
        e 16 90 48 6e
        e 0 90 4c 6e
        e 32 80 48 40
        e 0 80 4c 40
        e 16 90 51 6e
        e 32 80 51 40
        e 16 90 4a 6e
        e 0 90 4c 6e
        e 32 80 4a 40
        e 0 80 4c 40
        e 16 90 53 6e
        e 32 80 53 40
        e 16 90 4a 6e
        e 0 90 4c 6e
        e 32 80 4a 40
        e 0 80 4c 40
        e 16 90 53 6e
        e 32 80 53 40
        e 16 90 4a 6e
        e 0 90 4c 6e
        e 32 80 4a 40
        e 0 80 4c 40
        e 16 90 53 6e
        e 32 80 53 40
        e 16 90 4a 6e
        e 0 90 4c 6e
        e 32 80 4a 40
        e 0 80 4c 40
        e 16 90 53 6e
        e 32 80 53 40
        e 16 90 4a 6e
        e 0 90 4c 6e
        e 32 80 4a 40
        e 0 80 4c 40
        e 16 90 53 6e
        e 32 80 53 40
        e 16 90 4a 6e
        e 0 90 4c 6e
        e 32 80 4a 40
        e 0 80 4c 40
        e 16 90 53 6e
        e 32 80 53 40
        e 16 90 47 6e
        e 0 90 4c 6e
        e 32 80 47 40
        e 0 80 4c 40
        e 16 90 50 6e
        e 32 80 50 40
        e 16 90 47 6e
        e 0 90 4c 6e
        e 32 80 47 40
        e 0 80 4c 40
        e 16 90 50 6e
        e 32 80 50 40
        e 16 90 48 6e
        e 0 90 4c 6e
        e 32 80 48 40
        e 0 80 4c 40
        e 16 90 51 6e
        e 32 80 51 40
        e 16 90 48 6e
        e 0 90 4c 6e
        e 32 80 48 40
        e 0 80 4c 40
        e 16 90 51 6e
        e 32 80 51 40
        e 16 90 48 6e
        e 0 90 4c 6e
        e 32 80 48 40
        e 0 80 4c 40
        e 16 90 51 6e
        e 32 80 51 40
        e 16 90 48 6e
        e 0 90 4c 6e
        e 32 80 48 40
        e 0 80 4c 40
        e 16 90 51 6e
        e 32 80 51 40
        e 16 90 48 6e
        e 0 90 51 6e
        e 128 80 48 40
        e 0 80 51 40
        e 16 90 47 6e
        e 0 90 50 6e
        e 32 80 47 40
        e 0 80 50 40
        e 16 90 48 6e
        e 0 90 51 6e
        e 128 80 48 40
        e 0 80 51 40
        e 16 90 4a 6e
        e 0 90 53 6e
        e 32 80 4a 40
        e 0 80 53 40
        e 16 90 47 6e
        e 0 90 50 6e
        e 96 90 40 6e
        e 0 90 4c 6e
        e 32 80 47 40
        e 0 80 50 40
        e 0 80 40 40
        e 0 80 4c 40
        e 16 90 40 6e
        e 0 90 4c 6e
        e 32 80 40 40
        e 0 80 4c 40
        e 16 90 40 6e
        e 0 90 4c 6e
        e 80 80 40 40
        e 0 80 4c 40
        e 16 90 40 6e
        e 0 90 4c 6e
        e 80 80 40 40
        e 0 80 4c 40
        e 16 90 40 6e
        e 0 90 4c 6e
        e 80 80 40 40
        e 0 80 4c 40
        e 16 90 40 6e
        e 0 90 4c 6e
        e 32 80 40 40
        e 0 80 4c 40
        e 16 90 40 6e
        e 0 90 4c 6e
        e 32 80 40 40
        e 0 80 4c 40
        e 16 90 40 6e
        e 0 90 4c 6e
        e 80 80 40 40
        e 0 80 4c 40
        e 16 90 40 6e
        e 0 90 4c 6e
        e 80 80 40 40
        e 0 80 4c 40
        e 16 90 47 6e
        e 32 80 47 40
        e 16 90 4c 6e
        e 32 80 4c 40
        e 16 90 50 6e
        e 32 80 50 40
        e 16 90 4c 6e
        e 32 80 4c 40
        e 16 90 47 6e
        e 32 80 47 40
        e 16 90 4c 6e
        e 32 80 4c 40
        e 16 90 50 6e
        e 32 80 50 40
        e 16 90 4c 6e
        e 32 80 4c 40
        e 16 90 47 6e
        e 32 80 47 40
        e 16 90 4c 6e
        e 32 80 4c 40
        e 16 90 50 6e
        e 32 80 50 40
        e 16 90 4c 6e
        e 32 80 4c 40
        e 16 90 48 6e
        e 32 80 48 40
        e 16 90 4c 6e
        e 32 80 4c 40
        e 16 90 51 6e
        e 32 80 51 40
        e 16 90 4c 6e
        e 32 80 4c 40
        e 16 90 4a 6e
        e 32 80 4a 40
        e 16 90 4c 6e
        e 32 80 4c 40
        e 16 90 53 6e
        e 32 80 53 40
        e 16 90 4c 6e
        e 32 80 4c 40
        e 16 90 4a 6e
        e 32 80 4a 40
        e 16 90 4c 6e
        e 32 80 4c 40
        e 16 90 53 6e
        e 32 80 53 40
        e 16 90 4c 6e
        e 32 80 4c 40
        e 16 90 4a 6e
        e 32 80 4a 40
        e 16 90 4c 6e
        e 32 80 4c 40
        e 16 90 53 6e
        e 32 80 53 40
        e 16 90 4c 6e
        e 32 80 4c 40
        e 16 90 47 6e
        e 32 80 47 40
        e 16 90 4c 6e
        e 32 80 4c 40
        e 16 90 50 6e
        e 32 80 50 40
        e 16 90 4c 6e
        e 32 80 4c 40
        e 16 90 48 6e
        e 32 80 48 40
        e 16 90 4c 6e
        e 32 80 4c 40
        e 16 90 51 6e
        e 32 80 51 40
        e 16 90 4c 6e
        e 32 80 4c 40
        e 16 90 48 6e
        e 32 80 48 40
        e 16 90 4c 6e
        e 32 80 4c 40
        e 16 90 51 6e
        e 32 80 51 40
        e 16 90 4c 6e
        e 32 80 4c 40
        e 16 90 48 6e
        e 32 80 48 40
        e 16 90 4b 6e
        e 32 80 4b 40
        e 16 90 51 6e
        e 32 80 51 40
        e 16 90 4b 6e
        e 32 80 4b 40
        e 16 90 48 6e
        e 32 80 48 40
        e 16 90 4b 6e
        e 32 80 4b 40
        e 16 90 51 6e
        e 32 80 51 40
        e 16 90 4b 6e
        e 32 80 4b 40
        e 16 90 47 6e
        e 0 90 4c 6e
        e 0 90 50 6e
        e 80 80 47 40
        e 0 80 4c 40
        e 0 80 50 40
        e 16 90 40 6e
        e 0 90 44 6e
        e 0 90 47 6e
        e 0 90 4c 6e
        e 32 80 40 40
        e 0 80 44 40
        e 0 80 47 40
        e 0 80 4c 40
        e 16 90 40 6e
        e 0 90 44 6e
        e 0 90 47 6e
        e 0 90 4c 6e
        e 32 80 40 40
        e 0 80 44 40
        e 0 80 47 40
        e 0 80 4c 40
        e 16 90 40 6e
        e 0 90 44 6e
        e 0 90 47 6e
        e 0 90 4c 6e
        e 80 80 40 40
        e 0 80 44 40
        e 0 80 47 40
        e 0 80 4c 40
        e 16 90 40 6e
        e 0 90 44 6e
        e 0 90 47 6e
        e 0 90 4c 6e
        e 80 80 40 40
        e 0 80 44 40
        e 0 80 47 40
        e 0 80 4c 40
        e 16 90 40 6e
        e 0 90 44 6e
        e 0 90 47 6e
        e 0 90 4c 6e
        e 176 80 40 40
        e 0 80 44 40
        e 0 80 47 40
        e 0 80 4c 40
        e 16 90 3c 6e
        e 0 90 40 6e
        e 128 80 3c 40
        e 0 80 40 40
        e 16 90 3e 6e
        e 0 90 41 6e
        e 32 80 3e 40
        e 0 80 41 40
        e 16 90 40 6e
        e 0 90 43 6e
        e 80 80 40 40
        e 0 80 43 40
        e 16 90 40 6e
        e 0 90 43 6e
        e 32 80 40 40
        e 0 80 43 40
        e 16 90 40 6e
        e 0 90 43 6e
        e 32 80 40 40
        e 0 80 43 40
        e 16 90 40 6e
        e 0 90 43 6e
        e 128 80 40 40
        e 0 80 43 40
        e 16 90 41 6e
        e 0 90 45 6e
        e 32 80 41 40
        e 0 80 45 40
        e 16 90 43 6e
        e 0 90 46 6e
        e 80 80 43 40
        e 0 80 46 40
        e 16 90 43 6e
        e 0 90 46 6e
        e 32 80 43 40
        e 0 80 46 40
        e 16 90 43 6e
        e 0 90 46 6e
        e 32 80 43 40
        e 0 80 46 40
        e 16 90 43 6e
        e 0 90 46 6e
        e 128 80 43 40
        e 0 80 46 40
        e 16 90 43 6e
        e 0 90 46 6e
        e 32 80 43 40
        e 0 80 46 40
        e 16 90 43 6e
        e 0 90 46 6e
        e 80 80 43 40
        e 0 80 46 40
        e 16 90 43 6e
        e 0 90 46 6e
        e 32 80 43 40
        e 0 80 46 40
        e 16 90 43 6e
        e 0 90 46 6e
        e 32 80 43 40
        e 0 80 46 40
        e 16 90 41 6e
        e 0 90 45 6e
        e 80 80 41 40
        e 0 80 45 40
        e 16 90 41 6e
        e 0 90 45 6e
        e 80 80 41 40
        e 0 80 45 40
        e 16 90 41 6e
        e 0 90 45 6e
        e 176 80 41 40
        e 0 80 45 40
        e 16 90 3e 6e
        e 0 90 42 6e
        e 128 80 3e 40
        e 0 80 42 40
        e 16 90 40 6e
        e 0 90 43 6e
        e 32 80 40 40
        e 0 80 43 40
        e 16 90 42 6e
        e 0 90 45 6e
        e 80 80 42 40
        e 0 80 45 40
        e 16 90 42 6e
        e 0 90 45 6e
        e 32 80 42 40
        e 0 80 45 40
        e 16 90 42 6e
        e 0 90 45 6e
        e 32 80 42 40
        e 0 80 45 40
        e 16 90 42 6e
        e 0 90 45 6e
        e 128 80 42 40
        e 0 80 45 40
        e 16 90 43 6e
        e 0 90 47 6e
        e 32 80 43 40
        e 0 80 47 40
        e 16 90 45 6e
        e 0 90 48 6e
        e 80 80 45 40
        e 0 80 48 40
        e 16 90 45 6e
        e 0 90 48 6e
        e 32 80 45 40
        e 0 80 48 40
        e 16 90 45 6e
        e 0 90 48 6e
        e 32 80 45 40
        e 0 80 48 40
        e 16 90 45 6e
        e 0 90 48 6e
        e 128 80 45 40
        e 0 80 48 40
        e 16 90 45 6e
        e 0 90 48 6e
        e 32 80 45 40
        e 0 80 48 40
        e 16 90 43 6e
        e 0 90 47 6e
        e 80 80 43 40
        e 0 80 47 40
        e 16 90 43 6e
        e 0 90 47 6e
        e 32 80 43 40
        e 0 80 47 40
        e 16 90 43 6e
        e 0 90 47 6e
        e 32 80 43 40
        e 0 80 47 40
        e 16 90 43 6e
        e 0 90 47 6e
        e 80 80 43 40
        e 0 80 47 40
        e 16 90 43 6e
        e 0 90 47 6e
        e 80 80 43 40
        e 0 80 47 40
        e 16 90 43 6e
        e 0 90 47 6e
        e 176 80 43 40
        e 0 80 47 40
        e 16 90 47 6e
        e 0 90 4f 6e
        e 0 90 53 6e
        e 128 80 47 40
        e 0 80 4f 40
        e 0 80 53 40
        e 16 90 47 6e
        e 0 90 4f 6e
        e 0 90 53 6e
        e 32 80 47 40
        e 0 80 4f 40
        e 0 80 53 40
        e 16 90 47 6e
        e 0 90 4f 6e
        e 0 90 53 6e
        e 128 80 47 40
        e 0 80 4f 40
        e 0 80 53 40
        e 16 90 45 6e
        e 0 90 4d 6e
        e 0 90 51 6e
        e 32 80 45 40
        e 0 80 4d 40
        e 0 80 51 40
        e 16 90 47 6e
        e 0 90 4f 6e
        e 0 90 53 6e
        e 128 80 47 40
        e 0 80 4f 40
        e 0 80 53 40
        e 16 90 45 6e
        e 0 90 4d 6e
        e 0 90 51 6e
        e 32 80 45 40
        e 0 80 4d 40
        e 0 80 51 40
        e 16 90 45 6e
        e 0 90 4d 6e
        e 0 90 51 6e
        e 128 80 45 40
        e 0 80 4d 40
        e 0 80 51 40
        e 16 90 43 6e
        e 0 90 4c 6e
        e 0 90 4f 6e
        e 32 80 43 40
        e 0 80 4c 40
        e 0 80 4f 40
        e 16 90 45 6e
        e 0 90 4d 6e
        e 0 90 51 6e
        e 128 80 45 40
        e 0 80 4d 40
        e 0 80 51 40
        e 16 90 43 6e
        e 0 90 4c 6e
        e 0 90 4f 6e
        e 32 80 43 40
        e 0 80 4c 40
        e 0 80 4f 40
        e 16 90 45 6e
        e 0 90 4d 6e
        e 0 90 51 6e
        e 272 80 45 40
        e 0 80 4d 40
        e 0 80 51 40
        e 16 90 43 6e
        e 0 90 4c 6e
        e 0 90 4f 6e
        e 80 80 43 40
        e 0 80 4c 40
        e 0 80 4f 40
        e 16 90 40 6e
        e 0 90 48 6e
        e 0 90 4c 6e
        e 176 80 40 40
        e 0 80 48 40
        e 0 80 4c 40
        e 16 90 48 6e
        e 0 90 54 6e
        e 128 80 48 40
        e 0 80 54 40
        e 16 90 47 6e
        e 0 90 4f 6e
        e 0 90 53 6e
        e 32 80 47 40
        e 0 80 4f 40
        e 0 80 53 40
        e 16 90 47 6e
        e 0 90 4f 6e
        e 0 90 53 6e
        e 128 80 47 40
        e 0 80 4f 40
        e 0 80 53 40
        e 16 90 45 6e
        e 0 90 4d 6e
        e 0 90 51 6e
        e 32 80 45 40
        e 0 80 4d 40
        e 0 80 51 40
        e 16 90 47 6e
        e 0 90 4f 6e
        e 0 90 53 6e
        e 128 80 47 40
        e 0 80 4f 40
        e 0 80 53 40
        e 16 90 45 6e
        e 0 90 4d 6e
        e 0 90 51 6e
        e 32 80 45 40
        e 0 80 4d 40
        e 0 80 51 40
        e 16 90 45 6e
        e 0 90 4d 6e
        e 0 90 51 6e
        e 128 80 45 40
        e 0 80 4d 40
        e 0 80 51 40
        e 16 90 43 6e
        e 0 90 4c 6e
        e 0 90 4f 6e
        e 32 80 43 40
        e 0 80 4c 40
        e 0 80 4f 40
        e 16 90 45 6e
        e 0 90 4d 6e
        e 0 90 51 6e
        e 128 80 45 40
        e 0 80 4d 40
        e 0 80 51 40
        e 16 90 43 6e
        e 0 90 4c 6e
        e 0 90 4f 6e
        e 32 80 43 40
        e 0 80 4c 40
        e 0 80 4f 40
        e 16 90 40 6e
        e 0 90 48 6e
        e 0 90 4c 6e
        e 80 80 40 40
        e 0 80 48 40
        e 0 80 4c 40
        e 16 90 3c 6e
        e 0 90 48 6e
        e 32 80 3c 40
        e 0 80 48 40
        e 16 90 3c 6e
        e 0 90 48 6e
        e 32 80 3c 40
        e 0 80 48 40
        e 16 90 3c 6e
        e 0 90 48 6e
        e 80 80 3c 40
        e 0 80 48 40
        e 16 90 3e 6e
        e 0 90 4a 6e
        e 80 80 3e 40
        e 0 80 4a 40
        e 16 90 40 6e
        e 0 90 4c 6e
        e 80 80 40 40
        e 0 80 4c 40
        e 16 90 41 6e
        e 0 90 4d 6e
        e 80 80 41 40
        e 0 80 4d 40
        e 16 90 43 6e
        e 0 90 4f 6e
        e 80 80 43 40
        e 0 80 4f 40
        e 16 90 45 6e
        e 0 90 51 6e
        e 80 80 45 40
        e 0 80 51 40
        e 16 90 46 6e
        e 0 90 52 6e
        e 80 80 46 40
        e 0 80 52 40
        e 16 90 40 6e
        e 0 90 43 6e
        e 0 90 49 6e
        e 32 80 40 40
        e 0 80 43 40
        e 0 80 49 40
        e 16 90 40 6e
        e 0 90 43 6e
        e 0 90 49 6e
        e 32 80 40 40
        e 0 80 43 40
        e 0 80 49 40
        e 16 90 40 6e
        e 0 90 43 6e
        e 0 90 49 6e
        e 128 80 40 40
        e 0 80 43 40
        e 0 80 49 40
        e 16 90 40 6e
        e 0 90 43 6e
        e 0 90 49 6e
        e 32 80 40 40
        e 0 80 43 40
        e 0 80 49 40
        e 16 90 41 6e
        e 0 90 45 6e
        e 0 90 4a 6e
        e 176 80 41 40
        e 0 80 45 40
        e 0 80 4a 40
        e 16 90 40 6e
        e 0 90 43 6e
        e 0 90 45 6e
        e 0 90 49 6e
        e 176 80 40 40
        e 0 80 43 40
        e 0 80 45 40
        e 0 80 49 40
        e 16 90 3e 6e
        e 0 90 45 6e
        e 0 90 4a 6e
        e 176 80 3e 40
        e 0 80 45 40
        e 0 80 4a 40
        e 16 90 3e 6e
        e 0 90 45 6e
        e 0 90 4a 6e
        e 176 80 3e 40
        e 0 80 45 40
        e 0 80 4a 40
        e 208 90 48 6e
        e 0 90 4b 6e
        e 0 90 51 6e
        e 128 80 48 40
        e 0 80 4b 40
        e 0 80 51 40
        e 16 90 48 6e
        e 0 90 4b 6e
        e 0 90 51 6e
        e 32 80 48 40
        e 0 80 4b 40
        e 0 80 51 40
        e 16 90 48 6e
        e 0 90 4c 6e
        e 0 90 4f 6e
        e 176 80 48 40
        e 0 80 4c 40
        e 0 80 4f 40
        e 16 90 43 6e
        e 0 90 48 6e
        e 0 90 4c 6e
        e 128 80 43 40
        e 0 80 48 40
        e 0 80 4c 40
        e 16 90 43 6e
        e 0 90 48 6e
        e 0 90 4c 6e
        e 32 80 43 40
        e 0 80 48 40
        e 0 80 4c 40
        e 16 90 43 6e
        e 0 90 4a 6e
        e 0 90 4d 6e
        e 176 80 43 40
        e 0 80 4a 40
        e 0 80 4d 40
        e 16 90 43 6e
        e 0 90 47 6e
        e 0 90 4a 6e
        e 128 80 43 40
        e 0 80 47 40
        e 0 80 4a 40
        e 16 90 43 6e
        e 0 90 47 6e
        e 0 90 4a 6e
        e 32 80 43 40
        e 0 80 47 40
        e 0 80 4a 40
        e 16 90 43 6e
        e 0 90 48 6e
        e 0 90 4c 6e
        e 176 80 43 40
        e 0 80 48 40
        e 0 80 4c 40
        e 16 90 34 6e
        e 48 80 34 40
        e 16 90 35 6e
        e 48 80 35 40
        e 16 90 37 6e
        e 48 80 37 40
        e 16 90 39 6e
        e 48 80 39 40
        e 16 90 3b 6e
        e 48 80 3b 40
        e 16 90 3c 6e
        e 48 80 3c 40
        e 16 90 3e 6e
        e 48 80 3e 40
        e 16 90 40 6e
        e 48 80 40 40
        e 16 90 41 6e
        e 48 80 41 40
        e 16 90 43 6e
        e 80 80 43 40
        e 16 90 48 6e
        e 0 90 4c 6e
        e 0 90 4d 6e
        e 0 90 4f 6e
        e 0 90 54 6e
        e 32 80 48 40
        e 0 80 4c 40
        e 0 80 4d 40
        e 0 80 4f 40
        e 0 80 54 40
        e 16 90 48 6e
        e 0 90 4c 6e
        e 0 90 4f 6e
        e 0 90 54 6e
        e 32 80 48 40
        e 0 80 4c 40
        e 0 80 4f 40
        e 0 80 54 40
        e 16 90 48 6e
        e 0 90 4c 6e
        e 0 90 4f 6e
        e 0 90 54 6e
        e 80 80 48 40
        e 0 80 4c 40
        e 0 80 4f 40
        e 0 80 54 40
        e 16 90 48 6e
        e 0 90 4c 6e
        e 0 90 4f 6e
        e 0 90 54 6e
        e 80 80 48 40
        e 0 80 4c 40
        e 0 80 4f 40
        e 0 80 54 40
        e 16 90 4a 6e
        e 0 90 4d 6e
        e 0 90 4f 6e
        e 0 90 53 6e
        e 80 80 4a 40
        e 0 80 4d 40
        e 0 80 4f 40
        e 0 80 53 40
        e 16 90 4a 6e
        e 0 90 4d 6e
        e 0 90 4f 6e
        e 0 90 53 6e
        e 32 80 4a 40
        e 0 80 4d 40
        e 0 80 4f 40
        e 0 80 53 40
        e 16 90 4a 6e
        e 0 90 4d 6e
        e 0 90 4f 6e
        e 0 90 53 6e
        e 32 80 4a 40
        e 0 80 4d 40
        e 0 80 4f 40
        e 0 80 53 40
        e 16 90 4a 6e
        e 0 90 4d 6e
        e 0 90 4f 6e
        e 0 90 53 6e
        e 80 80 4a 40
        e 0 80 4d 40
        e 0 80 4f 40
        e 0 80 53 40
        e 16 90 4a 6e
        e 0 90 4d 6e
        e 0 90 4f 6e
        e 0 90 53 6e
        e 80 80 4a 40
        e 0 80 4d 40
        e 0 80 4f 40
        e 0 80 53 40
        e 16 90 48 6e
        e 0 90 4c 6e
        e 0 90 54 6e
        e 176 80 48 40
        e 0 80 4c 40
        e 0 80 54 40
        e 16 90 34 6e
        e 48 80 34 40
        e 16 90 35 6e
        e 48 80 35 40
        e 16 90 37 6e
        e 48 80 37 40
        e 16 90 39 6e
        e 48 80 39 40
        e 16 90 3b 6e
        e 48 80 3b 40
        e 16 90 3c 6e
        e 48 80 3c 40
        e 16 90 3e 6e
        e 48 80 3e 40
        e 16 90 40 6e
        e 48 80 40 40
        e 16 90 41 6e
        e 48 80 41 40
        e 16 90 43 6e
        e 80 80 43 40
        e 16 90 48 6e
        e 0 90 4c 6e
        e 0 90 54 6e
        e 32 80 48 40
        e 0 80 4c 40
        e 0 80 54 40
        e 16 90 48 6e
        e 0 90 4c 6e
        e 0 90 4f 6e
        e 0 90 54 6e
        e 32 80 48 40
        e 0 80 4c 40
        e 0 80 4f 40
        e 0 80 54 40
        e 16 90 48 6e
        e 0 90 4c 6e
        e 0 90 4f 6e
        e 0 90 54 6e
        e 80 80 48 40
        e 0 80 4c 40
        e 0 80 4f 40
        e 0 80 54 40
        e 16 90 48 6e
        e 0 90 4c 6e
        e 0 90 4f 6e
        e 0 90 54 6e
        e 80 80 48 40
        e 0 80 4c 40
        e 0 80 4f 40
        e 0 80 54 40
        e 16 90 4a 6e
        e 0 90 4d 6e
        e 0 90 4f 6e
        e 0 90 53 6e
        e 80 80 4a 40
        e 0 80 4d 40
        e 0 80 4f 40
        e 0 80 53 40
        e 16 90 4a 6e
        e 0 90 4d 6e
        e 0 90 4f 6e
        e 0 90 53 6e
        e 32 80 4a 40
        e 0 80 4d 40
        e 0 80 4f 40
        e 0 80 53 40
        e 16 90 4a 6e
        e 0 90 4d 6e
        e 0 90 4f 6e
        e 0 90 53 6e
        e 32 80 4a 40
        e 0 80 4d 40
        e 0 80 4f 40
        e 0 80 53 40
        e 16 90 4a 6e
        e 0 90 4d 6e
        e 0 90 4f 6e
        e 0 90 53 6e
        e 80 80 4a 40
        e 0 80 4d 40
        e 0 80 4f 40
        e 0 80 53 40
        e 16 90 4a 6e
        e 0 90 4d 6e
        e 0 90 4f 6e
        e 0 90 53 6e
        e 80 80 4a 40
        e 0 80 4d 40
        e 0 80 4f 40
        e 0 80 53 40
        e 16 90 48 6e
        e 0 90 4c 6e
        e 0 90 4f 6e
        e 0 90 54 6e
        e 176 80 48 40
        e 0 80 4c 40
        e 0 80 4f 40
        e 0 80 54 40
        e 16 90 48 6e
        e 48 80 48 40
        e 16 90 43 6e
        e 48 80 43 40
        e 16 90 4c 6e
        e 48 80 4c 40
        e 16 90 48 6e
        e 48 80 48 40
        e 16 90 43 6e
        e 48 80 43 40
        e 16 90 4c 6e
        e 48 80 4c 40
        e 16 90 48 6e
        e 48 80 48 40
        e 16 90 43 6e
        e 48 80 43 40
        e 16 90 4c 6e
        e 48 80 4c 40
        e 16 90 48 6e
        e 48 80 48 40
        e 16 90 54 6e
        e 48 80 54 40
        e 16 90 53 6e
        e 48 80 53 40
        e 16 90 54 6e
        e 48 80 54 40
        e 16 90 4f 6e
        e 48 80 4f 40
        e 16 90 4c 6e
        e 48 80 4c 40
        e 16 90 48 6e
        e 48 80 48 40
        e 16 90 48 6e
        e 48 80 48 40
        e 16 90 47 6e
        e 48 80 47 40
        e 16 90 48 6e
        e 48 80 48 40
        e 16 90 43 6e
        e 48 80 43 40
        e 16 90 40 6e
        e 48 80 40 40
        e 16 90 3c 6e
        e 176 80 3c 40
        e 16 90 40 6e
        e 0 90 43 6e
        e 0 90 48 6e
        e 128 80 40 40
        e 0 80 43 40
        e 0 80 48 40
        e 16 90 40 6e
        e 0 90 43 6e
        e 0 90 48 6e
        e 32 80 40 40
        e 0 80 43 40
        e 0 80 48 40
        e 16 90 40 6e
        e 0 90 43 6e
        e 0 90 48 6e
        e 176 80 40 40
        e 0 80 43 40
        e 0 80 48 40
        E 16 b0 7b 00
        GUID {4AF28801-66B9-ED48-A373-73558CFBFB37}
        IGNTEMPO 0 120 4 4
        SRCCOLOR 912
        VELLANE -1 86 6
        CFGEDITVIEW 0 0 50 24 0 0 0 0 0 0.5
        KEYSNAP 0
        TRACKSEL 226
        EVTFILTER 0 -1 -1 -1 -1 0 1 0 0 -1 -1 -1 -1 0 -1 0 -1 -1
        CFGEDIT 1 0 0 0 0 0 1 0 1 1 1 0.25 16 63 1280 778 0 0 2 3 0 0 0 0 0 0.5 0 0 1 64
      >
    >
  >
  <TRACK {EF869DFD-FA85-EE4D-A133-ABEE14D1B7D0}
    NAME "ch5 (send bass)"
    PEAKCOL 16576
    BEAT -1
    AUTOMODE 0
    VOLPAN 1 0 -1 -1 1
    MUTESOLO 0 0 0
    IPHASE 0
    ISBUS 2 -1
    BUSCOMP 0 0
    SHOWINMIX 1 0.6667 0.623188 1 0.5 0 0 0
    FREEMODE 0
    SEL 0
    REC 0 0 0 0 0 0 0
    VU 2
    TRACKHEIGHT 0 0
    INQ 0 0 0 0.5 100 0 0 100
    NCHAN 2
    FX 1
    TRACKID {EF869DFD-FA85-EE4D-A133-ABEE14D1B7D0}
    PERF 0
    MIDIOUT -1
    MAINSEND 1 0
    <ITEM
      POSITION 0
      SNAPOFFS 0
      LENGTH 96
      LOOP 1
      ALLTAKES 0
      FADEIN 1 0 0 1 0 0
      FADEOUT 1 0 0 1 0 0
      MUTE 0
      SEL 0
      YPOS 0.317176 0.05
      IGUID {0C527BDC-77ED-9C4A-B9F9-062EC53AAAC8}
      IID 14
      NAME "Bass                 - National_Anthems_-_Chile.mid"
      VOLPAN 1 0 1 -1
      SOFFS 21.5 43
      PLAYRATE 1 1 0 -1 0 0.0025
      CHANMODE 0
      TAKECOLOR 26173599 B
      GUID {C4837042-E098-3F44-B01F-969E0B887631}
      <SOURCE MIDI
        HASDATA 1 192 QN
        POOLEDEVTS {AF3EDB6A-730F-9549-B4EF-DCC32AD69C65}
        <X 0 0 0 0 3 "Bass                "
          /wNCYXNzICAgICAgICAgICAgICAgIA==
        >
        e 2299 90 2b 7f
        e 142 80 2b 40
        e 48 90 2b 7f
        e 143 80 2b 40
        e 56 90 2b 7f
        e 91 90 2c 7f
        e 3 80 2b 40
        e 43 80 2c 40
        e 56 90 2d 7f
        e 95 80 2d 40
        e 0 90 2f 7f
        e 46 80 2f 40
        e 53 90 30 7f
        e 94 80 30 40
        e 103 90 2b 7f
        e 94 80 2b 40
        e 90 90 24 7f
        e 94 80 24 40
        e 1829 90 2c 7f
        e 128 80 2c 40
        e 61 90 2c 7f
        e 128 80 2c 40
        e 67 90 2c 7f
        e 128 80 2c 40
        e 61 90 2c 7f
        e 128 80 2c 40
        e 62 90 2b 7f
        e 128 80 2b 40
        e 67 90 2b 7f
        e 129 80 2b 40
        e 81 90 2b 7f
        e 128 80 2b 40
        e 46 90 2b 7f
        e 129 80 2b 40
        e 68 90 24 7f
        e 128 80 24 40
        e 632 90 24 7f
        e 128 80 24 40
        e 67 90 24 7f
        e 81 80 24 40
        e 66 90 24 7f
        e 33 80 24 40
        e 14 90 24 7f
        e 80 80 24 40
        e 301 90 24 7f
        e 128 80 24 40
        e 252 90 24 7f
        e 129 80 24 40
        e 259 90 24 7f
        e 80 80 24 40
        e 305 90 24 7f
        e 129 80 24 40
        e 257 90 2b 7f
        e 128 80 2b 40
        e 245 90 2b 7f
        e 128 80 2b 40
        e 262 90 2b 7f
        e 128 80 2b 40
        e 262 90 2b 7f
        e 81 80 2b 40
        e 299 90 24 7f
        e 128 80 24 40
        e 257 90 24 7f
        e 129 80 24 40
        e 257 90 24 7f
        e 128 80 24 40
        e 256 90 24 7f
        e 128 80 24 40
        e 259 90 26 7f
        e 128 80 26 40
        e 253 90 26 7f
        e 128 80 26 40
        e 259 90 2b 7f
        e 128 80 2b 40
        e 50 90 2b 7f
        e 80 80 2b 40
        e 76 90 2b 7f
        e 33 80 2b 40
        e 14 90 2b 7f
        e 80 80 2b 40
        e 297 90 27 7f
        e 273 80 27 40
        e 111 90 2b 7f
        e 177 80 2b 40
        e 212 90 2e 7f
        e 177 80 2e 40
        e 207 90 2e 7f
        e 129 80 2e 40
        e 252 90 2e 7f
        e 128 80 2e 40
        e 254 90 2e 7f
        e 129 80 2e 40
        e 260 90 27 7f
        e 129 80 27 40
        e 250 90 27 7f
        e 129 80 27 40
        e 255 90 2c 7f
        e 129 80 2c 40
        e 252 90 2c 7f
        e 177 80 2c 40
        e 210 90 2b 7f
        e 129 80 2b 40
        e 60 90 2b 7f
        e 129 80 2b 40
        e 25 90 2b 7f
        e 27 80 2b 40
        e 14 90 2b 7f
        e 81 80 2b 40
        e 302 90 24 7f
        e 80 80 24 40
        e 125 90 24 7f
        e 80 80 24 40
        e 102 90 24 7f
        e 80 80 24 40
        e 114 90 24 7f
        e 80 80 24 40
        e 110 90 24 7f
        e 80 80 24 40
        e 112 90 29 7f
        e 128 80 29 40
        e 446 90 2b 7f
        e 81 80 2b 40
        e 116 90 2b 7f
        e 81 80 2b 40
        e 110 90 2b 7f
        e 80 80 2b 40
        e 112 90 2b 7f
        e 128 80 2b 40
        e 59 90 24 7f
        e 80 80 24 40
        e 115 90 24 7f
        e 80 80 24 40
        e 112 90 29 7f
        e 128 80 29 40
        e 254 90 2b 7f
        e 129 80 2b 40
        e 265 90 2b 7f
        e 128 80 2b 40
        e 242 90 24 7f
        e 128 80 24 40
        e 262 90 29 7f
        e 128 80 29 40
        e 1024 90 24 7f
        e 128 80 24 40
        e 651 90 28 7f
        e 177 80 28 40
        e 199 90 28 7f
        e 177 80 28 40
        e 206 90 28 7f
        e 128 80 28 40
        e 254 90 28 7f
        e 176 80 28 40
        e 210 90 28 7f
        e 306 80 28 40
        e 78 90 28 7f
        e 294 80 28 40
        e 859 90 28 7f
        e 177 80 28 40
        e 199 90 28 7f
        e 129 80 28 40
        e 257 90 28 7f
        e 128 80 28 40
        e 257 90 28 7f
        e 129 80 28 40
        e 259 90 28 7f
        e 278 80 28 40
        e 106 90 28 7f
        e 307 80 28 40
        e 78 90 28 7f
        e 177 80 28 40
        e 114 90 28 7f
        e 33 80 28 40
        e 57 90 28 7f
        e 128 80 28 40
        e 254 90 24 7f
        e 129 80 24 40
        e 255 90 24 7f
        e 129 80 24 40
        e 257 90 29 7f
        e 128 80 29 40
        e 259 90 29 7f
        e 81 80 29 40
        e 297 90 26 7f
        e 128 80 26 40
        e 251 90 26 7f
        e 128 80 26 40
        e 262 90 2b 7f
        e 129 80 2b 40
        e 260 90 2b 7f
        e 81 80 2b 40
        e 303 90 2b 7f
        e 129 80 2b 40
        e 249 90 2b 7f
        e 128 80 2b 40
        e 253 90 24 7f
        e 128 80 24 40
        e 264 90 24 7f
        e 128 80 24 40
        e 252 90 2b 7f
        e 129 80 2b 40
        e 257 90 2b 7f
        e 128 80 2b 40
        e 251 90 24 7f
        e 129 80 24 40
        e 647 90 2e 7f
        e 129 80 2e 40
        e 247 90 2d 7f
        e 177 80 2d 40
        e 22 90 2b 7f
        e 176 80 2b 40
        e 14 90 29 7f
        e 128 80 29 40
        e 72 90 29 7f
        e 80 80 29 40
        e 493 90 2b 7f
        e 128 80 2b 40
        e 61 90 2b 7f
        e 80 80 2b 40
        e 57 90 2b 7f
        e 33 80 2b 40
        e 17 90 2b 7f
        e 80 80 2b 40
        e 125 90 2b 7f
        e 80 80 2b 40
        e 52 90 2b 7f
        e 33 80 2b 40
        e 14 90 24 7f
        e 128 80 24 40
        e 640 90 2b 7f
        e 128 80 2b 40
        e 256 90 2b 7f
        e 128 80 2b 40
        e 256 90 24 7f
        e 80 80 24 40
        e 685 90 2b 7f
        e 128 80 2b 40
        e 259 90 2b 7f
        e 128 80 2b 40
        e 259 90 24 7f
        e 128 80 24 40
        e 1413 90 24 7f
        e 80 80 24 40
        e 107 90 24 7f
        e 80 80 24 40
        e 69 90 24 7f
        e 32 80 24 40
        e 16 90 24 7f
        e 80 80 24 40
        E 109 b0 7b 00
        GUID {8E80C119-80C9-3141-9CCC-3016900289DB}
        IGNTEMPO 0 120 4 4
        SRCCOLOR 723
        VELLANE -1 86 6
        CFGEDITVIEW 9405.117109 291.437819 50 24 0 0 0 0 0 0.5
        KEYSNAP 0
        TRACKSEL 226
        EVTFILTER 0 -1 -1 -1 -1 0 1 0 0 -1 -1 -1 -1 0 -1 0 -1 -1
        CFGEDIT 1 0 0 0 0 0 1 0 1 1 1 0.25 16 63 1280 778 0 0 2 3 0 0 0 0 0 0.5 0 0 1 64
      >
      TAKE
      NAME "Bass                 - National_Anthems_-_Chile.mid"
      TAKEVOLPAN 0 1 -1
      SOFFS 21.5 43
      PLAYRATE 1 1 0 -1 0 0.0025
      CHANMODE 0
      GUID {BE5845B6-4265-294F-84CF-789C89924560}
      <SOURCE MIDI
        HASDATA 1 192 QN
        POOLEDEVTS {6636F156-FCC5-1543-8F71-15D3010AA090}
        <X 0 0 0 0 3 "Bass                "
          /wNCYXNzICAgICAgICAgICAgICAgIA==
        >
        e 2299 90 2b 7f
        e 142 80 2b 40
        e 48 90 2b 7f
        e 143 80 2b 40
        e 56 90 2b 7f
        e 91 90 2c 7f
        e 3 80 2b 40
        e 43 80 2c 40
        e 56 90 2d 7f
        e 95 80 2d 40
        e 0 90 2f 7f
        e 46 80 2f 40
        e 53 90 30 7f
        e 94 80 30 40
        e 103 90 2b 7f
        e 94 80 2b 40
        e 90 90 24 7f
        e 94 80 24 40
        e 1829 90 2c 7f
        e 128 80 2c 40
        e 61 90 2c 7f
        e 128 80 2c 40
        e 67 90 2c 7f
        e 128 80 2c 40
        e 61 90 2c 7f
        e 128 80 2c 40
        e 62 90 2b 7f
        e 128 80 2b 40
        e 67 90 2b 7f
        e 129 80 2b 40
        e 81 90 2b 7f
        e 128 80 2b 40
        e 46 90 2b 7f
        e 129 80 2b 40
        e 68 90 24 7f
        e 128 80 24 40
        e 632 90 24 7f
        e 128 80 24 40
        e 67 90 24 7f
        e 81 80 24 40
        e 66 90 24 7f
        e 33 80 24 40
        e 14 90 24 7f
        e 80 80 24 40
        e 301 90 24 7f
        e 128 80 24 40
        e 252 90 24 7f
        e 129 80 24 40
        e 259 90 24 7f
        e 80 80 24 40
        e 305 90 24 7f
        e 129 80 24 40
        e 257 90 2b 7f
        e 128 80 2b 40
        e 245 90 2b 7f
        e 128 80 2b 40
        e 262 90 2b 7f
        e 128 80 2b 40
        e 262 90 2b 7f
        e 81 80 2b 40
        e 299 90 24 7f
        e 128 80 24 40
        e 257 90 24 7f
        e 129 80 24 40
        e 257 90 24 7f
        e 128 80 24 40
        e 256 90 24 7f
        e 128 80 24 40
        e 259 90 26 7f
        e 128 80 26 40
        e 253 90 26 7f
        e 128 80 26 40
        e 259 90 2b 7f
        e 128 80 2b 40
        e 50 90 2b 7f
        e 80 80 2b 40
        e 76 90 2b 7f
        e 33 80 2b 40
        e 14 90 2b 7f
        e 80 80 2b 40
        e 297 90 27 7f
        e 273 80 27 40
        e 111 90 2b 7f
        e 177 80 2b 40
        e 212 90 2e 7f
        e 177 80 2e 40
        e 207 90 2e 7f
        e 129 80 2e 40
        e 252 90 2e 7f
        e 128 80 2e 40
        e 254 90 2e 7f
        e 129 80 2e 40
        e 260 90 27 7f
        e 129 80 27 40
        e 250 90 27 7f
        e 129 80 27 40
        e 255 90 2c 7f
        e 129 80 2c 40
        e 252 90 2c 7f
        e 177 80 2c 40
        e 210 90 2b 7f
        e 129 80 2b 40
        e 60 90 2b 7f
        e 129 80 2b 40
        e 25 90 2b 7f
        e 27 80 2b 40
        e 14 90 2b 7f
        e 81 80 2b 40
        e 302 90 24 7f
        e 80 80 24 40
        e 125 90 24 7f
        e 80 80 24 40
        e 102 90 24 7f
        e 80 80 24 40
        e 114 90 24 7f
        e 80 80 24 40
        e 110 90 24 7f
        e 80 80 24 40
        e 112 90 29 7f
        e 128 80 29 40
        e 446 90 2b 7f
        e 81 80 2b 40
        e 116 90 2b 7f
        e 81 80 2b 40
        e 110 90 2b 7f
        e 80 80 2b 40
        e 112 90 2b 7f
        e 128 80 2b 40
        e 59 90 24 7f
        e 80 80 24 40
        e 115 90 24 7f
        e 80 80 24 40
        e 112 90 29 7f
        e 128 80 29 40
        e 254 90 2b 7f
        e 129 80 2b 40
        e 265 90 2b 7f
        e 128 80 2b 40
        e 242 90 24 7f
        e 128 80 24 40
        e 262 90 29 7f
        e 128 80 29 40
        e 1024 90 24 7f
        e 128 80 24 40
        e 651 90 28 7f
        e 177 80 28 40
        e 199 90 28 7f
        e 177 80 28 40
        e 206 90 28 7f
        e 128 80 28 40
        e 254 90 28 7f
        e 176 80 28 40
        e 210 90 28 7f
        e 306 80 28 40
        e 78 90 28 7f
        e 294 80 28 40
        e 859 90 28 7f
        e 177 80 28 40
        e 199 90 28 7f
        e 129 80 28 40
        e 257 90 28 7f
        e 128 80 28 40
        e 257 90 28 7f
        e 129 80 28 40
        e 259 90 28 7f
        e 278 80 28 40
        e 106 90 28 7f
        e 307 80 28 40
        e 78 90 28 7f
        e 177 80 28 40
        e 114 90 28 7f
        e 33 80 28 40
        e 57 90 28 7f
        e 128 80 28 40
        e 254 90 24 7f
        e 129 80 24 40
        e 255 90 24 7f
        e 129 80 24 40
        e 257 90 29 7f
        e 128 80 29 40
        e 259 90 29 7f
        e 81 80 29 40
        e 297 90 26 7f
        e 128 80 26 40
        e 251 90 26 7f
        e 128 80 26 40
        e 262 90 2b 7f
        e 129 80 2b 40
        e 260 90 2b 7f
        e 81 80 2b 40
        e 303 90 2b 7f
        e 129 80 2b 40
        e 249 90 2b 7f
        e 128 80 2b 40
        e 253 90 24 7f
        e 128 80 24 40
        e 264 90 24 7f
        e 128 80 24 40
        e 252 90 2b 7f
        e 129 80 2b 40
        e 257 90 2b 7f
        e 128 80 2b 40
        e 251 90 24 7f
        e 129 80 24 40
        e 647 90 2e 7f
        e 129 80 2e 40
        e 247 90 2d 7f
        e 177 80 2d 40
        e 22 90 2b 7f
        e 176 80 2b 40
        e 14 90 29 7f
        e 128 80 29 40
        e 72 90 29 7f
        e 80 80 29 40
        e 493 90 2b 7f
        e 128 80 2b 40
        e 61 90 2b 7f
        e 80 80 2b 40
        e 57 90 2b 7f
        e 33 80 2b 40
        e 17 90 2b 7f
        e 80 80 2b 40
        e 125 90 2b 7f
        e 80 80 2b 40
        e 52 90 2b 7f
        e 33 80 2b 40
        e 14 90 24 7f
        e 128 80 24 40
        e 640 90 2b 7f
        e 128 80 2b 40
        e 256 90 2b 7f
        e 128 80 2b 40
        e 256 90 24 7f
        e 80 80 24 40
        e 685 90 2b 7f
        e 128 80 2b 40
        e 259 90 2b 7f
        e 128 80 2b 40
        e 259 90 24 7f
        e 128 80 24 40
        e 1413 90 24 7f
        e 80 80 24 40
        e 107 90 24 7f
        e 80 80 24 40
        e 69 90 24 7f
        e 32 80 24 40
        e 16 90 24 7f
        e 80 80 24 40
        E 109 b0 7b 00
        GUID {9CC91F69-1621-5F49-A72C-C3439CAA67AB}
        IGNTEMPO 0 120 4 4
        SRCCOLOR 913
        VELLANE -1 86 6
        CFGEDITVIEW 0 0 50 24 0 0 0 0 0 0.5
        KEYSNAP 0
        TRACKSEL 226
        EVTFILTER 0 -1 -1 -1 -1 0 1 0 0 -1 -1 -1 -1 0 -1 0 -1 -1
        CFGEDIT 1 0 0 0 0 0 1 0 1 1 1 0.25 16 63 1280 778 0 0 2 3 0 0 0 0 0 0.5 0 0 1 64
      >
    >
  >
  <TRACK {97C14EE2-C273-C940-9D68-54C062C3CBCA}
    NAME ChipFront
    PEAKCOL 16576
    BEAT -1
    AUTOMODE 0
    VOLPAN 0.3981071705535 0 -1 -1 1
    MUTESOLO 0 0 0
    IPHASE 0
    ISBUS 0 0
    BUSCOMP 0 0
    SHOWINMIX 1 0.6667 0.623188 1 0.5 0 0 0
    FREEMODE 0
    SEL 0
    REC 0 0 0 0 0 0 0
    VU 2
    TRACKHEIGHT 0 0
    INQ 0 0 0 0.5 100 0 0 100
    NCHAN 4
    FX 1
    TRACKID {97C14EE2-C273-C940-9D68-54C062C3CBCA}
    PERF 0
    AUXRECV 7 0 1 0 0 0 0 0 0 -1:U 0 -1 ''
    MIDIOUT -1
    MAINSEND 1 0
    <FXCHAIN
      SHOW 0
      LASTSEL 0
      DOCKED 0
      BYPASS 0 0 0
      <VST "VST: FabFilter Volcano 2 (SC) (FabFilter)" "FabFilter Volcano 2 (SC).vst" 0 "" 1180054068
        NDJWRu9e7f4EAAAAAQAAAAAAAAACAAAAAAAAAAQAAAAAAAAACAAAAAAAAAAEAAAAAQAAAAAAAAACAAAAAAAAAAQAAAAAAAAACAAAAAAAAADcCwAAAAAAAAAAEAA=
        776t3g3wrd4AAAA/AAAAPwAAAD8AAAA/AACAPwAAAAAAAAA/q6qqPq2+aD8AAAA/ig0yPM3MzD0AAAAAAAAAAAAAAAAAAIA/AACAP0Isdj8AAAA/bbDgPZqZGT8AAAAA
        AAAAAOev3zwAAIA/AAAAAAAAgD8AAAA/AAAAAJqZGT8AAAAAAAAAAAAAAAAAAIA/AAAAAAAAgD8AAAA/AAAAAJqZGT8AAAAAAAAAAAAAAAAAAIA/AAAAAKuqqj4ATrI+
        AAAAPwAAAADBykk/XXRRPwAAAACJiIg9AACAP6oXiD4AAAAAAAAAAAAAAAAAAAAAAACAPwAAAAAAAAA/AAAAAAAAAAAAAAAAAAAAPwAAAAAAAAAAAAAAAAAAAD8AAAAA
        AAAAAAAAAAAAAAA/AAAAAAAAAAAAAAAAAAAAPwAAAAAAAAAAAAAAAAAAAD8AAAAAAAAAAAAAAAAAAAA/AAAAAAAAAAAAAAAAAAAAPwAAAAAAAAAAAAAAAAAAAD8AAAAA
        AAAAAAAAAAAAAAA/AAAAAAAAAAAAAAAAAAAAPwAAAAAAAAAAAAAAAAAAAD8AAAAAAAAAAAAAAAAAAAA/AAAAAAAAAAAAAAAAAAAAPwAAAAAAAAAAAAAAAHwZED4AAAA/
        KKO3PQAAgD8AAAAAAAAAAImIiD3y0iU/AAAAAAAAgD8AAAAAdGjRPQAAAAAAAIA/AAAAAAAAAD8AAAAAAAAAAAAAAAAAAAA/AAAAAAAAAAAAAAAAAAAAPwAAAAAAAAAA
        AAAAAAAAAD8AAAAAAAAAAAAAAAAAAAA/AAAAAAAAAAAAAAAAAAAAPwAAAAAAAAAAAAAAAAAAAD8AAAAAAAAAAAAAAAAAAAA/AAAAAAAAAAAAAAAAAAAAPwAAAAAAAAAA
        AAAAAAAAAD8AAAAAAAAAAAAAAAAAAAA/AAAAAAAAAAAAAAAAAAAAPwAAAAAAAAAAAAAAAAAAAD8AAAAAAAAAAAAAAAAAAAA/AAAAAAAAAAAAAAAAvvR9PgAAAD8AAAA/
        AAAAPwAAAAAAAAAAiYiIPQAAAD8AAAAAAAAAAAAAAAAAAAA/AAAAAAAAAAAAAAAAAAAAPwAAAAAAAAAAAAAAAAAAAD8AAAAAAAAAAAAAAAAAAAA/AAAAAAAAAAAAAAAA
        AAAAPwAAAAAAAAAAAAAAAAAAAD8AAAAAAAAAAAAAAAAAAAA/AAAAAAAAAAAAAAAAAAAAPwAAAAAAAAAAAAAAAAAAAD8AAAAAAAAAAAAAAAAAAAA/AAAAAAAAAAAAAAAA
        AAAAPwAAAAAAAAAAAAAAAAAAAD8AAAAAAAAAAAAAAAAAAAA/AAAAAAAAAAAAAAAAAAAAPwAAAAAAAAAAAAAAAAAAAD8AAAAAAAAAAAAAAAC+9H0+AAAAPwAAAD8AAAA/
        AAAAAAAAAACJiIg9AAAAPwAAAAAAAAAAAAAAAAAAAD8AAAAAAAAAAAAAAAAAAAA/AAAAAAAAAAAAAAAAAAAAPwAAAAAAAAAAAAAAAAAAAD8AAAAAAAAAAAAAAAAAAAA/
        AAAAAAAAAAAAAAAAAAAAPwAAAAAAAAAAAAAAAAAAAD8AAAAAAAAAAAAAAAAAAAA/AAAAAAAAAAAAAAAAAAAAPwAAAAAAAAAAAAAAAAAAAD8AAAAAAAAAAAAAAAAAAAA/
        AAAAAAAAAAAAAAAAAAAAPwAAAAAAAAAAAAAAAAAAAD8AAAAAAAAAAAAAAAAAAAA/AAAAAAAAAAAAAAAAAAAAPwAAAAAAAAAAAAAAAL70fT4AAAA/AAAAPwAAAD8AAAAA
        AAAAAImIiD0AAAA/AAAAAAAAAAAAAAAAAAAAPwAAAAAAAAAAAAAAAAAAAD8AAAAAAAAAAAAAAAAAAAA/AAAAAAAAAAAAAAAAAAAAPwAAAAAAAAAAAAAAAAAAAD8AAAAA
        AAAAAAAAAAAAAAA/AAAAAAAAAAAAAAAAAAAAPwAAAAAAAAAAAAAAAAAAAD8AAAAAAAAAAAAAAAAAAAA/AAAAAAAAAAAAAAAAAAAAPwAAAAAAAAAAAAAAAAAAAD8AAAAA
        AAAAAAAAAAAAAAA/AAAAAAAAAAAAAAAAAAAAPwAAAAAAAAAAAAAAAAAAAD8AAAAAAAAAAAAAAAAAAAA/AAAAAAAAAAAAAAAAvvR9PgAAAD8AAAA/AAAAPwAAAAAAAAAA
        iYiIPQAAAD8AAAAAAAAAAAAAAAAAAAA/AAAAAAAAAAAAAAAAAAAAPwAAAAAAAAAAAAAAAAAAAD8AAAAAAAAAAAAAAAAAAAA/AAAAAAAAAAAAAAAAAAAAPwAAAAAAAAAA
        AAAAAAAAAD8AAAAAAAAAAAAAAAAAAAA/AAAAAAAAAAAAAAAAAAAAPwAAAAAAAAAAAAAAAAAAAD8AAAAAAAAAAAAAAAAAAAA/AAAAAAAAAAAAAAAAAAAAPwAAAAAAAAAA
        AAAAAAAAAD8AAAAAAAAAAAAAAAAAAAA/AAAAAAAAAAAAAAAAAAAAPwAAAAAAAAAAAAAAAAAAAD8AAAAAAAAAAAAAAAAAAAAAmpmZPgAAAAAAAAAAAAAAAAAAgD8AAAAA
        mpmZPgAAAAAAAAAAAAAAAAAAgD8AAAAAmpmZPgAAAAAAAAAAAAAAAAAAgD8AAAAAmpmZPgAAAAAAAAAAAAAAAAAAgD8AAAAAmpmZPgAAAAAAAAAAAAAAAAAAgD8AAAAA
        mpmZPgAAAAAAAAAAAAAAAAAAgD8AAAAAAAAAAAAAAAAAAAAAAAAAAAAAAAAAAAAAAAAAAAAAAAAAAAAAAAAAAAAAAAAAAAAAAAAAAAAAAAAAAAAAAAAAAAAAAAAAAAAA
        AAAAAAAAAAAAAAAAAAAAAAAAAAAAAAAAAAAAAAAAAAAAAAAAAAAAAAAAAAAAAAAAAAAAAAAAAAAAAAAAAAAAAAAAAAAAAAAAAAAAAKuqKj3ZiZ09gShWPgAAAAAAAAAA
        v+eWPQAAAAAAAAA/AAAAAAAAAAAAAAAAAAAAAAAAAD8AAAAAAAAAAAAAAAAAAAAAAAAAPwAAAAAAAAAAAAAAAAAAAAAAAAAAAAAAAAAAAAAAAAAAAAAAAAAAAAAAAAAA
        AAAAAAAAAAAAAAAAAAAAAAAAAAAAAAAAAAAAAAAAAAAAAAAAAAAAAAAAAAAAAAAAAAAAAAAAAAAAAAAAAAAAAAAAAAAAAAAAAAAAAAAAAAAAAAAAAAAAAAAAAAAAAAAA
        AAAAAAAAAAAAAAAAAAAAAAAAAAAAAAAAAAAAAAAAAAAAAAAAAAAAAAAAAAAAAAAAAAAAAAAAAAAAAAAAAAAAAAAAAAAAAAAAAAAAAAAAAAAAAAAAAAAAAAAAAAAAAAAA
        AAAAAAAAAAAAAAAAAAAAAAAAAAAAAAAAAAAAAAAAAAAAAAAAAAAAAAAAAAAAAAAAAAAAAAAAAAAAAAAAAAAAAAAAAAAAAAAAAAAAAAAAAAAAAAAAAAAAAAAAAAAAAAAA
        AAAAAAAAAAAAAAAAAAAAAAAAAAAAAAAAAAAAAAAAAAAAAAAAAAAAAAAAAAAAAAAAAAAAAAAAAAAAAAAAAAAAAAAAAAAAAAAAAAAAAAAAAAAAAAAAAAAAPwAAAD8AAAA/
        AAAAPwAAAD8AAAA/AAAAPwAAAD8AAAAAAAAAAAAAAAAAAAAAAAAAAAAAAAAAAAAAAAAAAAAAAAAAAAAAAAAAAAAAAAAAAAAAAAAAAAAAAAAAAAAAAAAAAAAAAAAAAAAA
        AAAAAAAAAAAAAAAAAAAAAAAAAAAAAAAAAAAAAAAAAAAAAAAAAAAAAAAAAAAAAAAAAAAAAAAAAAAAAAAAAAAAAAAAAAAAAAAAAAAAAAAAAAAAAAAAAAAAAAAAAAAAAAAA
        AAAAAAAAAAAAAAAAAAAAAAAAAAAAAAAAAAAAAAAAAAAAAAAAAAAAAAAAAAAAAAAAAAAAAAAAAAAAAAAAAAAAAAAAAAAAAAAAAAAAAAAAAAAAAAAAAAAAAAAAAAAAAAAA
        AAAAAAAAAAAAAAAAAAAAAAAAAAAAAAAAAAAAAAAAAAAAAAAAAAAAAAAAAAAAAAAAAAAAAAAAAAAAAAAA
        Q2hpcEZyb250AENoaXBGcm9udAAQAAAA
      >
      PRESETNAME ChipFront
      FLOATPOS 36 32 641 529
      FXID {4C5A6810-F3ED-0645-A06D-6758F70CB097}
      WAK 0
    >
  >
  <TRACK {1B564899-9ACC-8C4B-8FBF-925A5A247A13}
    NAME ChipSide
    PEAKCOL 16576
    BEAT -1
    AUTOMODE 0
    VOLPAN 0.39600150758095 0 -1 -1 1
    MUTESOLO 0 0 0
    IPHASE 0
    ISBUS 0 0
    BUSCOMP 0 0
    SHOWINMIX 1 0.6667 0.623188 1 0.5 0 0 0
    FREEMODE 0
    SEL 0
    REC 0 0 0 0 0 0 0
    VU 2
    TRACKHEIGHT 0 0
    INQ 0 0 0 0.5 100 0 0 100
    NCHAN 4
    FX 1
    TRACKID {1B564899-9ACC-8C4B-8FBF-925A5A247A13}
    PERF 0
    AUXRECV 7 0 1.03113579563571 0 0 0 0 2 0 -1:U 0 -1 ''
    MIDIOUT -1
    MAINSEND 1 0
    <FXCHAIN
      SHOW 0
      LASTSEL 0
      DOCKED 0
      BYPASS 0 0 0
      <VST "VST: FabFilter Volcano 2 (SC) (FabFilter)" "FabFilter Volcano 2 (SC).vst" 0 "" 1180054068
        NDJWRu9e7f4EAAAAAQAAAAAAAAACAAAAAAAAAAQAAAAAAAAACAAAAAAAAAAIAAAAAQAAAAAAAAACAAAAAAAAAAQAAAAAAAAACAAAAAAAAAAQAAAAAAAAACAAAAAAAAAA
        QAAAAAAAAACAAAAAAAAAANwLAAAAAAAAAAAQAA==
        776t3g3wrd4AAAA/AAAAPwAAAD8AAAA/AACAPwAAAAAAAIA/q6qqPsplFD8AAAA/TxqgPc3MzD0AAAAAAAAAAEKGIj8AAIA/AACAP0Isdj8AAAA/bbDgPZqZGT8AAAAA
        AAAAAOev3zwAAIA/AAAAAAAAgD8AAAA/AAAAAJqZGT8AAAAAAAAAAAAAAAAAAIA/AAAAAAAAgD8AAAA/AAAAAJqZGT8AAAAAAAAAAAAAAAAAAIA/AAAAAKuqqj6CdAA9
        EObJPZgn+j4AAIA/AAAAAAAAAACJiAg+AACAP7PDtD4AAIA/AAAAAAAAAAAAAAAAq6qqPgAAAACeFR0/AAAAAAAAgD8AAAAAAAAAPwAAAAAAAAAAAAAAAAAAAD8AAAAA
        AAAAAAAAAAAAAAA/AAAAAAAAAAAAAAAAAAAAPwAAAAAAAAAAAAAAAAAAAD8AAAAAAAAAAAAAAAAAAAA/AAAAAAAAAAAAAAAAAAAAPwAAAAAAAAAAAAAAAAAAAD8AAAAA
        AAAAAAAAAAAAAAA/AAAAAAAAAAAAAAAAAAAAPwAAAAAAAAAAAAAAAAAAAD8AAAAAAAAAAAAAAAAAAAA/AAAAAAAAAAAAAAAAAAAAPwAAAAAAAAAAAAAAAHwZED4AAAA/
        KKO3PQAAgD8AAAAAAAAAAImIiD3y0iU/AAAAAAAAgD8AAAAAdGjRPQAAAAAAAIA/AAAAAAAAAD8AAAAAAAAAAAAAAAAAAAA/AAAAAAAAAAAAAAAAAAAAPwAAAAAAAAAA
        AAAAAAAAAD8AAAAAAAAAAAAAAAAAAAA/AAAAAAAAAAAAAAAAAAAAPwAAAAAAAAAAAAAAAAAAAD8AAAAAAAAAAAAAAAAAAAA/AAAAAAAAAAAAAAAAAAAAPwAAAAAAAAAA
        AAAAAAAAAD8AAAAAAAAAAAAAAAAAAAA/AAAAAAAAAAAAAAAAAAAAPwAAAAAAAAAAAAAAAAAAAD8AAAAAAAAAAAAAAAAAAAA/AAAAAAAAAAAAAAAAvvR9PgAAAD8AAAA/
        AAAAPwAAAAAAAAAAiYiIPQAAAD8AAAAAAAAAAAAAAAAAAAA/AAAAAAAAAAAAAAAAAAAAPwAAAAAAAAAAAAAAAAAAAD8AAAAAAAAAAAAAAAAAAAA/AAAAAAAAAAAAAAAA
        AAAAPwAAAAAAAAAAAAAAAAAAAD8AAAAAAAAAAAAAAAAAAAA/AAAAAAAAAAAAAAAAAAAAPwAAAAAAAAAAAAAAAAAAAD8AAAAAAAAAAAAAAAAAAAA/AAAAAAAAAAAAAAAA
        AAAAPwAAAAAAAAAAAAAAAAAAAD8AAAAAAAAAAAAAAAAAAAA/AAAAAAAAAAAAAAAAAAAAPwAAAAAAAAAAAAAAAAAAAD8AAAAAAAAAAAAAAAC+9H0+AAAAPwAAAD8AAAA/
        AAAAAAAAAACJiIg9AAAAPwAAAAAAAAAAAAAAAAAAAD8AAAAAAAAAAAAAAAAAAAA/AAAAAAAAAAAAAAAAAAAAPwAAAAAAAAAAAAAAAAAAAD8AAAAAAAAAAAAAAAAAAAA/
        AAAAAAAAAAAAAAAAAAAAPwAAAAAAAAAAAAAAAAAAAD8AAAAAAAAAAAAAAAAAAAA/AAAAAAAAAAAAAAAAAAAAPwAAAAAAAAAAAAAAAAAAAD8AAAAAAAAAAAAAAAAAAAA/
        AAAAAAAAAAAAAAAAAAAAPwAAAAAAAAAAAAAAAAAAAD8AAAAAAAAAAAAAAAAAAAA/AAAAAAAAAAAAAAAAAAAAPwAAAAAAAAAAAAAAAL70fT4AAAA/AAAAPwAAAD8AAAAA
        AAAAAImIiD0AAAA/AAAAAAAAAAAAAAAAAAAAPwAAAAAAAAAAAAAAAAAAAD8AAAAAAAAAAAAAAAAAAAA/AAAAAAAAAAAAAAAAAAAAPwAAAAAAAAAAAAAAAAAAAD8AAAAA
        AAAAAAAAAAAAAAA/AAAAAAAAAAAAAAAAAAAAPwAAAAAAAAAAAAAAAAAAAD8AAAAAAAAAAAAAAAAAAAA/AAAAAAAAAAAAAAAAAAAAPwAAAAAAAAAAAAAAAAAAAD8AAAAA
        AAAAAAAAAAAAAAA/AAAAAAAAAAAAAAAAAAAAPwAAAAAAAAAAAAAAAAAAAD8AAAAAAAAAAAAAAAAAAAA/AAAAAAAAAAAAAAAAvvR9PgAAAD8AAAA/AAAAPwAAAAAAAAAA
        iYiIPQAAAD8AAAAAAAAAAAAAAAAAAAA/AAAAAAAAAAAAAAAAAAAAPwAAAAAAAAAAAAAAAAAAAD8AAAAAAAAAAAAAAAAAAAA/AAAAAAAAAAAAAAAAAAAAPwAAAAAAAAAA
        AAAAAAAAAD8AAAAAAAAAAAAAAAAAAAA/AAAAAAAAAAAAAAAAAAAAPwAAAAAAAAAAAAAAAAAAAD8AAAAAAAAAAAAAAAAAAAA/AAAAAAAAAAAAAAAAAAAAPwAAAAAAAAAA
        AAAAAAAAAD8AAAAAAAAAAAAAAAAAAAA/AAAAAAAAAAAAAAAAAAAAPwAAAAAAAAAAAAAAAAAAAD8AAAAAAAAAAAAAAAAAAAAAmpmZPgAAAAAAAAAAAAAAAAAAgD8AAAAA
        mpmZPgAAAAAAAAAAAAAAAAAAgD8AAAAAmpmZPgAAAAAAAAAAAAAAAAAAgD8AAAAAmpmZPgAAAAAAAAAAAAAAAAAAgD8AAAAAmpmZPgAAAAAAAAAAAAAAAAAAgD8AAAAA
        mpmZPgAAAAAAAAAAAAAAAAAAgD8AAAAAAAAAAAAAAAAAAAAAAAAAAAAAAAAAAAAAAAAAAAAAAAAAAAAAAAAAAAAAAAAAAAAAAAAAAAAAAAAAAAAAAAAAAAAAAAAAAAAA
        AAAAAAAAAAAAAAAAAAAAAAAAAAAAAAAAAAAAAAAAAAAAAAAAAAAAAAAAAAAAAAAAAAAAAAAAAAAAAAAAAAAAAAAAAAAAAAAAAAAAAKuqqj3ZiZ09gShWPgAAgD8AAAAA
        v+eWPdmJHT0WszE/AAAAAAAAAACSdiw8AAAAAAAAAD8AAAAAAAAAAAAAAAAAAAAAAAAAPwAAAAAAAAAAAAAAAAAAAAAAAAAAAAAAAAAAAAAAAAAAAAAAAAAAAAAAAAAA
        AAAAAAAAAAAAAAAAAAAAAAAAAAAAAAAAAAAAAAAAAAAAAAAAAAAAAAAAAAAAAAAAAAAAAAAAAAAAAAAAAAAAAAAAAAAAAAAAAAAAAAAAAAAAAAAAAAAAAAAAAAAAAAAA
        AAAAAAAAAAAAAAAAAAAAAAAAAAAAAAAAAAAAAAAAAAAAAAAAAAAAAAAAAAAAAAAAAAAAAAAAAAAAAAAAAAAAAAAAAAAAAAAAAAAAAAAAAAAAAAAAAAAAAAAAAAAAAAAA
        AAAAAAAAAAAAAAAAAAAAAAAAAAAAAAAAAAAAAAAAAAAAAAAAAAAAAAAAAAAAAAAAAAAAAAAAAAAAAAAAAAAAAAAAAAAAAAAAAAAAAAAAAAAAAAAAAAAAAAAAAAAAAAAA
        AAAAAAAAAAAAAAAAAAAAAAAAAAAAAAAAAAAAAAAAAAAAAAAAAAAAAAAAAAAAAAAAAAAAAAAAAAAAAAAAAAAAAAAAAAAAAAAAAAAAAAAAAAAAAAAAAAAAPwAAAD8AAAA/
        AAAAPwAAAD8AAAA/AAAAPwAAAD8AAAAAAAAAAAAAAAAAAAAAAAAAAAAAAAAAAAAAAAAAAAAAAAAAAAAAAAAAAAAAAAAAAAAAAAAAAAAAAAAAAAAAAAAAAAAAAAAAAAAA
        AAAAAAAAAAAAAAAAAAAAAAAAAAAAAAAAAAAAAAAAAAAAAAAAAAAAAAAAAAAAAAAAAAAAAAAAAAAAAAAAAAAAAAAAAAAAAAAAAAAAAAAAAAAAAAAAAAAAAAAAAAAAAAAA
        AAAAAAAAAAAAAAAAAAAAAAAAAAAAAAAAAAAAAAAAAAAAAAAAAAAAAAAAAAAAAAAAAAAAAAAAAAAAAAAAAAAAAAAAAAAAAAAAAAAAAAAAAAAAAAAAAAAAAAAAAAAAAAAA
        AAAAAAAAAAAAAAAAAAAAAAAAAAAAAAAAAAAAAAAAAAAAAAAAAAAAAAAAAAAAAAAAAAAAAAAAAAAAAAAA
        Q2hpcFNpZGUAQ2hpcFNpZGUAEAAAAA==
      >
      PRESETNAME ChipSide
      FLOATPOS 36 32 641 529
      FXID {20356A84-5CFD-6E4A-AA26-2A8A49CE7A76}
      WAK 0
    >
  >
  <EXTENSIONS
    <SWSAUTOCOLOR
      {00000000-0000-0000-0000-000000000000} 0 "" "" ""
    >
  >
>
