<REAPER_PROJECT 0.1 "5.201/OSX64" 1466423097
  RIPPLE 0
  GROUPOVERRIDE 0 0 0
  AUTOXFADE 0
  ENVATTACH 1
  MIXERUIFLAGS 11 52
  PEAKGAIN 1
  FEEDBACK 0
  PANLAW 1
  PROJOFFS 0 0
  MAXPROJLEN 0 600
  GRID 174206 8 1 8 1 0 0
  TIMEMODE 6 0 -1 24 2
  PANMODE 3
  CURSOR 0
  ZOOM 3.98662515232119 0 0
  VZOOMEX 0
  USE_REC_CFG 0
  RECMODE 1
  SMPTESYNC 0 23.976024 100 40 1000 300 0 0 1
  MIDIEDITOR -116919545
  LOOP 1
  LOOPGRAN 0 4
  RECORD_PATH "" ""
  <RECORD_CFG
    ZXZhdxAA
  >
  <APPLYFX_CFG
  >
  RENDER_FILE "/Users/samenglander/_dev/colorflags/anthems/Chile.mp3"
  RENDER_FMT 0 2 44100
  RENDER_1X 0
  RENDER_RANGE 2 0 0 18 1000
  RENDER_RESAMPLE 3 0 1
  RENDER_ADDTOPROJ 0
  RENDER_STEMS 0
  RENDER_DITHER 0
  TIMELOCKMODE 1
  TEMPOENVLOCKMODE 1
  ITEMMIX 1
  DEFPITCHMODE 589824
  TAKELANE 3
  SAMPLERATE 44100 0 0
  <RENDER_CFG
    bDNwbSAAAAABAAAABQAAAAAAAAAAAAAAQAEAAAAAAAA=
  >
  LOCK 1
  <METRONOME 6 2
    VOL 0.25 0.125
    FREQ 800 1600 1
    BEATLEN 4
    SAMPLES "" ""
    PATTERN 2863311530 2863311529
  >
  GLOBAL_AUTO -1
  TEMPO 120 4 4
  PLAYRATE 1 0 0.25 4
  SELECTION 32 0
  SELECTION2 32 0
  MASTERAUTOMODE 0
  MASTERTRACKHEIGHT 0
  MASTERPEAKCOL 16576
  MASTERMUTESOLO 0
  MASTERTRACKVIEW 0 0.6667 0.5 0.5 0 0 0
  MASTERHWOUT 0 0 1 0 0 0 0 -1
  MASTER_NCH 2 2
  MASTER_VOLUME 1 0 -1 -1 1
  MASTER_FX 1
  MASTER_SEL 0
  <MASTERPLAYSPEEDENV
    ACT 0
    VIS 0 1 1
    LANEHEIGHT 0 0
    ARM 0
    DEFSHAPE 0 -1 -1
  >
  <TEMPOENVEX
    ACT 0
    VIS 1 0 1
    LANEHEIGHT 0 0
    ARM 0
    DEFSHAPE 1 -1 -1
  >
  <PROJBAY
  >
  <TRACK {A28B720B-3D78-4C4A-8EE1-EDB1E3A7D771}
    NAME Midi
    PEAKCOL 16576
    BEAT -1
    AUTOMODE 0
    VOLPAN 1 0 -1 -1 1
    MUTESOLO 0 0 0
    IPHASE 0
    ISBUS 0 0
    BUSCOMP 0 0
    SHOWINMIX 1 0.6667 0.5 1 0.5 0 0 0
    FREEMODE 0
    SEL 0
    REC 0 0 0 0 0 0 0
    VU 2
    TRACKHEIGHT 240 0
    INQ 0 0 0 0.5 100 0 0 100
    NCHAN 2
    FX 1
    TRACKID {A28B720B-3D78-4C4A-8EE1-EDB1E3A7D771}
    PERF 0
    MIDIOUT -1
    MAINSEND 1 0
    <ITEM
      POSITION 0
      SNAPOFFS 0
      LENGTH 96
      LOOP 1
      ALLTAKES 0
      FADEIN 1 0 0 1 0 0
      FADEOUT 1 0 0 1 0 0
      MUTE 0
      SEL 0
      YPOS 0.105725 0.05
      IGUID {1326796E-ED93-2541-969E-6D832F273527}
      IID 12
      NAME "Accompany.RH         - National_Anthems_-_Chile.mid"
      VOLPAN 1 0 1 -1
      SOFFS 21.5 43
      PLAYRATE 1 1 0 -1 0 0.0025
      CHANMODE 0
      TAKECOLOR 26173599 B
      GUID {FE09D437-DA9F-A34C-8DAD-4AEE1A3F02FC}
      <SOURCE MIDI
        HASDATA 1 192 QN
        POOLEDEVTS {DE0AA042-D287-2749-A8D6-5291A87621E7}
        <X 0 0
          /wNBY2NvbXBhbnkuUkggICAgICAgIA==
        >
        e 720 90 4f 6e
        e 16 90 51 6e
        e 6 80 4f 40
        e 2 90 53 6e
        e 14 80 51 40
        e 8 80 53 40
        e 2 90 48 6e
        e 0 90 54 6e
        e 334 80 48 40
        e 0 80 54 40
        e 2 90 47 6e
        e 0 90 53 6e
        e 46 80 47 40
        e 0 80 53 40
        e 2 90 48 6e
        e 0 90 54 6e
        e 142 80 48 40
        e 0 80 54 40
        e 2 90 44 6e
        e 0 90 50 6e
        e 46 80 44 40
        e 0 80 50 40
        e 2 90 45 6e
        e 0 90 51 6e
        e 142 80 45 40
        e 0 80 51 40
        e 2 90 40 6e
        e 0 90 4c 6e
        e 46 80 40 40
        e 0 80 4c 40
        e 2 90 41 6e
        e 0 90 4d 6e
        e 142 80 41 40
        e 0 80 4d 40
        e 2 90 3d 6e
        e 0 90 49 6e
        e 46 80 3d 40
        e 0 80 49 40
        e 2 90 3e 6e
        e 0 90 4a 6e
        e 142 80 3e 40
        e 0 80 4a 40
        e 2 90 3a 6e
        e 0 90 46 6e
        e 46 80 3a 40
        e 0 80 46 40
        e 2 90 3b 6e
        e 0 90 47 6e
        e 190 80 3b 40
        e 0 80 47 40
        e 50 90 43 6e
        e 22 80 43 40
        e 2 90 45 6e
        e 22 80 45 40
        e 2 90 47 6e
        e 22 80 47 40
        e 2 90 48 6e
        e 22 80 48 40
        e 2 90 4a 6e
        e 22 80 4a 40
        e 2 90 4c 6e
        e 22 80 4c 40
        e 98 90 47 6e
        e 0 90 4a 6e
        e 0 90 4d 6e
        e 46 80 47 40
        e 0 80 4a 40
        e 0 80 4d 40
        e 2 90 47 6e
        e 0 90 4a 6e
        e 0 90 4d 6e
        e 46 80 47 40
        e 0 80 4a 40
        e 0 80 4d 40
        e 2 90 47 6e
        e 0 90 4a 6e
        e 0 90 4d 6e
        e 94 80 47 40
        e 0 80 4a 40
        e 0 80 4d 40
        e 2 90 47 6e
        e 0 90 4a 6e
        e 0 90 4d 6e
        e 94 80 47 40
        e 0 80 4a 40
        e 0 80 4d 40
        e 2 90 47 6e
        e 0 90 4a 6e
        e 0 90 4d 6e
        e 94 80 47 40
        e 0 80 4a 40
        e 0 80 4d 40
        e 2 90 47 6e
        e 0 90 4a 6e
        e 0 90 4d 6e
        e 94 80 47 40
        e 0 80 4a 40
        e 0 80 4d 40
        e 2 90 48 6e
        e 0 90 4d 6e
        e 94 80 48 40
        e 0 80 4d 40
        e 2 90 4a 6e
        e 0 90 4d 6e
        e 94 80 4a 40
        e 0 80 4d 40
        e 2 90 43 6e
        e 0 90 48 6e
        e 0 90 4c 6e
        e 94 80 43 40
        e 0 80 48 40
        e 0 80 4c 40
        e 2 90 4c 6e
        e 46 80 4c 40
        e 2 90 4d 6e
        e 46 80 4d 40
        e 2 90 41 6e
        e 0 90 47 6e
        e 0 90 4a 6e
        e 94 80 41 40
        e 0 80 47 40
        e 0 80 4a 40
        e 2 90 4a 6e
        e 46 80 4a 40
        e 2 90 4c 6e
        e 46 80 4c 40
        e 2 90 40 6e
        e 0 90 48 6e
        e 190 80 40 40
        e 0 80 48 40
        e 26 90 48 6e
        e 22 80 48 40
        e 2 90 4a 6e
        e 22 80 4a 40
        e 2 90 4c 6e
        e 22 80 4c 40
        e 2 90 4d 6e
        e 22 80 4d 40
        e 2 90 4f 6e
        e 22 80 4f 40
        e 2 90 51 6e
        e 22 80 51 40
        e 2 90 53 6e
        e 22 80 53 40
        e 2 90 54 6e
        e 94 80 54 40
        e 2 90 51 6e
        e 0 90 54 6e
        e 46 80 51 40
        e 0 80 54 40
        e 2 90 51 6e
        e 0 90 54 6e
        e 46 80 51 40
        e 0 80 54 40
        e 2 90 51 6e
        e 0 90 54 6e
        e 94 80 51 40
        e 0 80 54 40
        e 2 90 51 6e
        e 0 90 54 6e
        e 94 80 51 40
        e 0 80 54 40
        e 2 90 51 6e
        e 0 90 54 6e
        e 94 80 51 40
        e 0 80 54 40
        e 2 90 50 6e
        e 0 90 53 6e
        e 46 80 50 40
        e 0 80 53 40
        e 2 90 51 6e
        e 0 90 54 6e
        e 46 80 51 40
        e 0 80 54 40
        e 2 90 53 6e
        e 0 90 56 6e
        e 46 80 53 40
        e 0 80 56 40
        e 2 90 51 6e
        e 0 90 54 6e
        e 46 80 51 40
        e 0 80 54 40
        e 2 90 4f 6e
        e 0 90 53 6e
        e 46 80 4f 40
        e 0 80 53 40
        e 2 90 4d 6e
        e 0 90 51 6e
        e 46 80 4d 40
        e 0 80 51 40
        e 2 90 4c 6e
        e 0 90 4f 6e
        e 94 80 4c 40
        e 0 80 4f 40
        e 2 90 4f 6e
        e 46 80 4f 40
        e 2 90 51 6e
        e 46 80 51 40
        e 2 90 4a 6e
        e 0 90 4d 6e
        e 94 80 4a 40
        e 0 80 4d 40
        e 2 90 4d 6e
        e 46 80 4d 40
        e 2 90 4f 6e
        e 46 80 4f 40
        e 2 90 48 6e
        e 0 90 4c 6e
        e 190 80 48 40
        e 0 80 4c 40
        e 26 90 3c 6e
        e 22 80 3c 40
        e 2 90 3e 6e
        e 22 80 3e 40
        e 2 90 40 6e
        e 22 80 40 40
        e 2 90 41 6e
        e 22 80 41 40
        e 2 90 43 6e
        e 22 80 43 40
        e 2 90 45 6e
        e 22 80 45 40
        e 2 90 47 6e
        e 22 80 47 40
        e 2 90 48 6e
        e 80 80 48 40
        e 16 90 3c 6e
        e 0 90 3f 6e
        e 0 90 44 6e
        e 0 90 48 6e
        e 32 80 3c 40
        e 0 80 3f 40
        e 0 80 44 40
        e 0 80 48 40
        e 16 90 3c 6e
        e 0 90 3f 6e
        e 0 90 44 6e
        e 0 90 48 6e
        e 32 80 3c 40
        e 0 80 3f 40
        e 0 80 44 40
        e 0 80 48 40
        e 16 90 3c 6e
        e 0 90 3f 6e
        e 0 90 44 6e
        e 0 90 48 6e
        e 80 80 3c 40
        e 0 80 3f 40
        e 0 80 44 40
        e 0 80 48 40
        e 16 90 3c 6e
        e 0 90 3f 6e
        e 0 90 44 6e
        e 0 90 48 6e
        e 80 80 3c 40
        e 0 80 3f 40
        e 0 80 44 40
        e 0 80 48 40
        e 16 90 3c 6e
        e 0 90 3f 6e
        e 0 90 44 6e
        e 0 90 48 6e
        e 80 80 3c 40
        e 0 80 3f 40
        e 0 80 44 40
        e 0 80 48 40
        e 16 90 3e 6e
        e 0 90 48 6e
        e 0 90 4a 6e
        e 80 80 3e 40
        e 0 80 48 40
        e 0 80 4a 40
        e 16 90 3f 6e
        e 0 90 48 6e
        e 0 90 4b 6e
        e 80 80 3f 40
        e 0 80 48 40
        e 0 80 4b 40
        e 16 90 42 6e
        e 0 90 48 6e
        e 0 90 4b 6e
        e 0 90 4e 6e
        e 80 80 42 40
        e 0 80 48 40
        e 0 80 4b 40
        e 0 80 4e 40
        e 16 90 43 6e
        e 0 90 48 6e
        e 0 90 4c 6e
        e 0 90 4f 6e
        e 80 80 43 40
        e 0 80 48 40
        e 0 80 4c 40
        e 0 80 4f 40
        e 16 90 43 6e
        e 0 90 48 6e
        e 0 90 4c 6e
        e 0 90 4f 6e
        e 32 80 43 40
        e 0 80 48 40
        e 0 80 4c 40
        e 0 80 4f 40
        e 16 90 43 6e
        e 0 90 48 6e
        e 0 90 4c 6e
        e 0 90 4f 6e
        e 32 80 43 40
        e 0 80 48 40
        e 0 80 4c 40
        e 0 80 4f 40
        e 16 90 43 6e
        e 0 90 48 6e
        e 0 90 4c 6e
        e 80 80 43 40
        e 0 80 48 40
        e 0 80 4c 40
        e 16 90 43 6e
        e 0 90 48 6e
        e 0 90 4c 6e
        e 80 80 43 40
        e 0 80 48 40
        e 0 80 4c 40
        e 16 90 43 6e
        e 0 90 47 6e
        e 0 90 4a 6e
        e 0 90 4f 6e
        e 80 80 43 40
        e 0 80 47 40
        e 0 80 4a 40
        e 0 80 4f 40
        e 16 90 43 6e
        e 0 90 47 6e
        e 0 90 4a 6e
        e 0 90 4f 6e
        e 32 80 43 40
        e 0 80 47 40
        e 0 80 4a 40
        e 0 80 4f 40
        e 16 90 43 6e
        e 0 90 47 6e
        e 0 90 4a 6e
        e 0 90 4f 6e
        e 32 80 43 40
        e 0 80 47 40
        e 0 80 4a 40
        e 0 80 4f 40
        e 16 90 43 6e
        e 0 90 47 6e
        e 0 90 4a 6e
        e 80 80 43 40
        e 0 80 47 40
        e 0 80 4a 40
        e 16 90 43 6e
        e 0 90 47 6e
        e 0 90 4a 6e
        e 32 80 43 40
        e 0 80 47 40
        e 0 80 4a 40
        e 64 90 40 6e
        e 0 90 43 6e
        e 0 90 48 6e
        e 176 80 40 40
        e 0 80 43 40
        e 0 80 48 40
        e 112 90 43 6e
        e 16 80 43 40
        e 16 90 45 6e
        e 16 80 45 40
        e 16 90 47 6e
        e 16 80 47 40
        e 16 90 48 6e
        e 80 80 48 40
        e 16 90 43 6e
        e 16 80 43 40
        e 16 90 45 6e
        e 16 80 45 40
        e 16 90 47 6e
        e 16 80 47 40
        e 16 90 48 6e
        e 80 80 48 40
        e 16 90 43 6e
        e 16 80 43 40
        e 16 90 45 6e
        e 16 80 45 40
        e 16 90 47 6e
        e 16 80 47 40
        e 16 90 48 6e
        e 176 80 48 40
        e 16 90 40 6e
        e 0 90 43 6e
        e 0 90 48 6e
        e 128 80 40 40
        e 0 80 43 40
        e 0 80 48 40
        e 16 90 40 6e
        e 0 90 43 6e
        e 0 90 48 6e
        e 32 80 40 40
        e 0 80 43 40
        e 0 80 48 40
        e 16 90 40 6e
        e 0 90 43 6e
        e 0 90 48 6e
        e 176 80 40 40
        e 0 80 43 40
        e 0 80 48 40
        e 16 90 43 6e
        e 128 80 43 40
        e 16 90 48 6e
        e 32 80 48 40
        e 16 90 40 6e
        e 0 90 48 6e
        e 128 80 40 40
        e 0 80 48 40
        e 16 90 43 6e
        e 0 90 47 6e
        e 32 80 43 40
        e 0 80 47 40
        e 16 90 43 6e
        e 0 90 47 6e
        e 128 80 43 40
        e 0 80 47 40
        e 16 90 41 6e
        e 0 90 45 6e
        e 32 80 41 40
        e 0 80 45 40
        e 16 90 41 6e
        e 0 90 45 6e
        e 128 80 41 40
        e 0 80 45 40
        e 16 90 40 6e
        e 0 90 43 6e
        e 32 80 40 40
        e 0 80 43 40
        e 16 90 40 6e
        e 0 90 43 6e
        e 128 80 40 40
        e 0 80 43 40
        e 16 90 3f 6e
        e 0 90 42 6e
        e 32 80 3f 40
        e 0 80 42 40
        e 16 90 40 6e
        e 0 90 43 6e
        e 272 80 40 40
        e 0 80 43 40
        e 16 90 3e 6e
        e 0 90 41 6e
        e 80 80 3e 40
        e 0 80 41 40
        e 16 90 3c 6e
        e 0 90 40 6e
        e 176 80 3c 40
        e 0 80 40 40
        e 16 90 3b 6e
        e 0 90 3e 6e
        e 128 80 3b 40
        e 0 80 3e 40
        e 16 90 3c 6e
        e 0 90 40 6e
        e 32 80 3c 40
        e 0 80 40 40
        e 16 90 3e 6e
        e 0 90 41 6e
        e 80 80 3e 40
        e 0 80 41 40
        e 112 90 3e 6e
        e 0 90 41 6e
        e 80 80 3e 40
        e 0 80 41 40
        e 112 90 3c 6e
        e 0 90 40 6e
        e 80 80 3c 40
        e 0 80 40 40
        e 112 90 3c 6e
        e 0 90 40 6e
        e 80 80 3c 40
        e 0 80 40 40
        e 112 90 3b 6e
        e 0 90 3e 6e
        e 0 90 43 6e
        e 80 80 3b 40
        e 0 80 3e 40
        e 0 80 43 40
        e 16 90 3b 6e
        e 0 90 3e 6e
        e 0 90 43 6e
        e 32 80 3b 40
        e 0 80 3e 40
        e 0 80 43 40
        e 16 90 3b 6e
        e 0 90 3e 6e
        e 0 90 43 6e
        e 32 80 3b 40
        e 0 80 3e 40
        e 0 80 43 40
        e 16 90 3b 6e
        e 0 90 3e 6e
        e 0 90 43 6e
        e 80 80 3b 40
        e 0 80 3e 40
        e 0 80 43 40
        e 16 90 3b 6e
        e 0 90 3e 6e
        e 0 90 43 6e
        e 80 80 3b 40
        e 0 80 3e 40
        e 0 80 43 40
        e 16 90 3b 6e
        e 0 90 3e 6e
        e 0 90 43 6e
        e 80 80 3b 40
        e 0 80 3e 40
        e 0 80 43 40
        e 304 90 40 6e
        e 0 90 48 6e
        e 128 80 40 40
        e 0 80 48 40
        e 16 90 43 6e
        e 0 90 47 6e
        e 32 80 43 40
        e 0 80 47 40
        e 16 90 43 6e
        e 0 90 47 6e
        e 128 80 43 40
        e 0 80 47 40
        e 16 90 41 6e
        e 0 90 45 6e
        e 32 80 41 40
        e 0 80 45 40
        e 16 90 41 6e
        e 0 90 45 6e
        e 128 80 41 40
        e 0 80 45 40
        e 16 90 40 6e
        e 0 90 43 6e
        e 32 80 40 40
        e 0 80 43 40
        e 16 90 40 6e
        e 0 90 43 6e
        e 128 80 40 40
        e 0 80 43 40
        e 16 90 3f 6e
        e 0 90 42 6e
        e 32 80 3f 40
        e 0 80 42 40
        e 16 90 40 6e
        e 0 90 43 6e
        e 272 80 40 40
        e 0 80 43 40
        e 16 90 3e 6e
        e 0 90 41 6e
        e 80 80 3e 40
        e 0 80 41 40
        e 16 90 3c 6e
        e 0 90 40 6e
        e 176 80 3c 40
        e 0 80 40 40
        e 16 90 3c 6e
        e 0 90 40 6e
        e 128 80 3c 40
        e 0 80 40 40
        e 16 90 3c 6e
        e 0 90 40 6e
        e 32 80 3c 40
        e 0 80 40 40
        e 16 90 3b 6e
        e 0 90 3e 6e
        e 0 90 43 6e
        e 80 80 3b 40
        e 0 80 3e 40
        e 0 80 43 40
        e 112 90 3b 6e
        e 0 90 3e 6e
        e 0 90 43 6e
        e 80 80 3b 40
        e 0 80 3e 40
        e 0 80 43 40
        e 112 90 39 6e
        e 0 90 3e 6e
        e 0 90 42 6e
        e 80 80 39 40
        e 0 80 3e 40
        e 0 80 42 40
        e 112 90 39 6e
        e 0 90 3e 6e
        e 0 90 42 6e
        e 80 80 39 40
        e 0 80 3e 40
        e 0 80 42 40
        e 112 90 3b 6e
        e 0 90 3e 6e
        e 0 90 43 6e
        e 176 80 3b 40
        e 0 80 3e 40
        e 0 80 43 40
        e 16 90 3b 6e
        e 0 90 3e 6e
        e 0 90 43 6e
        e 128 80 3b 40
        e 0 80 3e 40
        e 0 80 43 40
        e 16 90 3b 6e
        e 0 90 3e 6e
        e 0 90 43 6e
        e 32 80 3b 40
        e 0 80 3e 40
        e 0 80 43 40
        e 16 90 3b 6e
        e 0 90 3e 6e
        e 0 90 43 6e
        e 176 80 3b 40
        e 0 80 3e 40
        e 0 80 43 40
        e 208 90 3f 6e
        e 0 90 43 6e
        e 80 80 3f 40
        e 0 80 43 40
        e 16 90 3a 6e
        e 80 80 3a 40
        e 16 90 3f 6e
        e 0 90 43 6e
        e 80 80 3f 40
        e 0 80 43 40
        e 16 90 3a 6e
        e 80 80 3a 40
        e 16 90 41 6e
        e 0 90 44 6e
        e 80 80 41 40
        e 0 80 44 40
        e 16 90 3f 6e
        e 0 90 43 6e
        e 80 80 3f 40
        e 0 80 43 40
        e 16 90 3e 6e
        e 0 90 41 6e
        e 80 80 3e 40
        e 0 80 41 40
        e 16 90 3f 6e
        e 0 90 43 6e
        e 80 80 3f 40
        e 0 80 43 40
        e 16 90 41 6e
        e 0 90 44 6e
        e 80 80 41 40
        e 0 80 44 40
        e 16 90 3a 6e
        e 80 80 3a 40
        e 16 90 41 6e
        e 0 90 44 6e
        e 80 80 41 40
        e 0 80 44 40
        e 16 90 3a 6e
        e 80 80 3a 40
        e 16 90 3e 6e
        e 0 90 41 6e
        e 80 80 3e 40
        e 0 80 41 40
        e 16 90 3a 6e
        e 80 80 3a 40
        e 16 90 3e 6e
        e 0 90 41 6e
        e 80 80 3e 40
        e 0 80 41 40
        e 16 90 3a 6e
        e 80 80 3a 40
        e 16 90 41 6e
        e 0 90 44 6e
        e 80 80 41 40
        e 0 80 44 40
        e 16 90 3a 6e
        e 80 80 3a 40
        e 16 90 41 6e
        e 0 90 44 6e
        e 80 80 41 40
        e 0 80 44 40
        e 16 90 3a 6e
        e 80 80 3a 40
        e 16 90 43 6e
        e 0 90 46 6e
        e 80 80 43 40
        e 0 80 46 40
        e 16 90 41 6e
        e 0 90 44 6e
        e 80 80 41 40
        e 0 80 44 40
        e 16 90 3f 6e
        e 0 90 43 6e
        e 80 80 3f 40
        e 0 80 43 40
        e 16 90 41 6e
        e 0 90 44 6e
        e 80 80 41 40
        e 0 80 44 40
        e 16 90 43 6e
        e 0 90 46 6e
        e 80 80 43 40
        e 0 80 46 40
        e 16 90 3a 6e
        e 80 80 3a 40
        e 16 90 43 6e
        e 0 90 46 6e
        e 80 80 43 40
        e 0 80 46 40
        e 16 90 41 6e
        e 0 90 44 6e
        e 80 80 41 40
        e 0 80 44 40
        e 16 90 3f 6e
        e 0 90 43 6e
        e 80 80 3f 40
        e 0 80 43 40
        e 16 90 3a 6e
        e 80 80 3a 40
        e 16 90 3f 6e
        e 0 90 43 6e
        e 80 80 3f 40
        e 0 80 43 40
        e 16 90 3a 6e
        e 80 80 3a 40
        e 16 90 3c 6e
        e 0 90 3f 6e
        e 176 80 3c 40
        e 0 80 3f 40
        e 16 90 3c 6e
        e 0 90 3f 6e
        e 128 80 3c 40
        e 0 80 3f 40
        e 16 90 3c 6e
        e 0 90 3f 6e
        e 32 80 3c 40
        e 0 80 3f 40
        e 16 90 3c 6e
        e 0 90 3f 6e
        e 176 80 3c 40
        e 0 80 3f 40
        e 16 90 3c 6e
        e 0 90 3f 6e
        e 0 90 42 6e
        e 176 80 3c 40
        e 0 80 3f 40
        e 0 80 42 40
        e 16 90 3b 6e
        e 0 90 3e 6e
        e 0 90 43 6e
        e 176 80 3b 40
        e 0 80 3e 40
        e 0 80 43 40
        e 16 90 3b 6e
        e 0 90 3e 6e
        e 0 90 43 6e
        e 128 80 3b 40
        e 0 80 3e 40
        e 0 80 43 40
        e 16 90 3b 6e
        e 0 90 3e 6e
        e 0 90 43 6e
        e 32 80 3b 40
        e 0 80 3e 40
        e 0 80 43 40
        e 16 90 3b 6e
        e 0 90 3e 6e
        e 0 90 43 6e
        e 176 80 3b 40
        e 0 80 3e 40
        e 0 80 43 40
        e 16 90 3c 6e
        e 0 90 40 6e
        e 128 80 3c 40
        e 0 80 40 40
        e 16 90 3c 6e
        e 0 90 40 6e
        e 32 80 3c 40
        e 0 80 40 40
        e 16 90 3c 6e
        e 0 90 40 6e
        e 128 80 3c 40
        e 0 80 40 40
        e 16 90 3b 6e
        e 0 90 3e 6e
        e 32 80 3b 40
        e 0 80 3e 40
        e 16 90 3c 6e
        e 0 90 40 6e
        e 128 80 3c 40
        e 0 80 40 40
        e 16 90 3b 6e
        e 0 90 3e 6e
        e 32 80 3b 40
        e 0 80 3e 40
        e 16 90 3c 6e
        e 0 90 40 6e
        e 128 80 3c 40
        e 0 80 40 40
        e 16 90 3b 6e
        e 0 90 3e 6e
        e 32 80 3b 40
        e 0 80 3e 40
        e 16 90 3c 6e
        e 0 90 40 6e
        e 128 80 3c 40
        e 0 80 40 40
        e 16 90 3e 6e
        e 0 90 41 6e
        e 32 80 3e 40
        e 0 80 41 40
        e 16 90 40 6e
        e 0 90 43 6e
        e 176 80 40 40
        e 0 80 43 40
        e 16 90 41 6e
        e 0 90 45 6e
        e 368 80 41 40
        e 0 80 45 40
        e 16 90 3b 6e
        e 0 90 3e 6e
        e 128 80 3b 40
        e 0 80 3e 40
        e 16 90 3b 6e
        e 0 90 3e 6e
        e 32 80 3b 40
        e 0 80 3e 40
        e 16 90 3b 6e
        e 0 90 3e 6e
        e 128 80 3b 40
        e 0 80 3e 40
        e 16 90 39 6e
        e 0 90 3c 6e
        e 32 80 39 40
        e 0 80 3c 40
        e 16 90 3b 6e
        e 0 90 3e 6e
        e 128 80 3b 40
        e 0 80 3e 40
        e 16 90 39 6e
        e 0 90 3c 6e
        e 32 80 39 40
        e 0 80 3c 40
        e 16 90 3b 6e
        e 0 90 3e 6e
        e 128 80 3b 40
        e 0 80 3e 40
        e 16 90 3c 6e
        e 0 90 40 6e
        e 32 80 3c 40
        e 0 80 40 40
        e 16 90 3e 6e
        e 0 90 41 6e
        e 128 80 3e 40
        e 0 80 41 40
        e 16 90 3f 6e
        e 0 90 42 6e
        e 32 80 3f 40
        e 0 80 42 40
        e 16 90 41 6e
        e 0 90 45 6e
        e 176 80 41 40
        e 0 80 45 40
        e 16 90 40 6e
        e 0 90 43 6e
        e 80 80 40 40
        e 0 80 43 40
        e 304 90 3c 6e
        e 0 90 41 6e
        e 0 90 45 6e
        e 176 80 3c 40
        e 0 80 41 40
        e 0 80 45 40
        e 208 90 3c 6e
        e 0 90 40 6e
        e 0 90 43 6e
        e 176 80 3c 40
        e 0 80 40 40
        e 0 80 43 40
        e 208 90 3b 6e
        e 0 90 3e 6e
        e 0 90 41 6e
        e 176 80 3b 40
        e 0 80 3e 40
        e 0 80 41 40
        e 208 90 3c 6e
        e 0 90 40 6e
        e 176 80 3c 40
        e 0 80 40 40
        e 16 90 41 6e
        e 0 90 45 6e
        e 128 80 41 40
        e 0 80 45 40
        e 16 90 43 6e
        e 0 90 47 6e
        e 32 80 43 40
        e 0 80 47 40
        e 16 90 45 6e
        e 0 90 48 6e
        e 48 80 45 40
        e 0 80 48 40
        e 16 90 43 6e
        e 0 90 47 6e
        e 48 80 43 40
        e 0 80 47 40
        e 16 90 41 6e
        e 0 90 45 6e
        e 48 80 41 40
        e 0 80 45 40
        e 16 90 40 6e
        e 0 90 43 6e
        e 128 80 40 40
        e 0 80 43 40
        e 16 90 45 6e
        e 0 90 48 6e
        e 32 80 45 40
        e 0 80 48 40
        e 16 90 45 6e
        e 0 90 48 6e
        e 48 80 45 40
        e 0 80 48 40
        e 16 90 43 6e
        e 0 90 47 6e
        e 48 80 43 40
        e 0 80 47 40
        e 16 90 41 6e
        e 0 90 45 6e
        e 48 80 41 40
        e 0 80 45 40
        e 16 90 41 6e
        e 0 90 45 6e
        e 48 80 41 40
        e 0 80 45 40
        e 16 90 40 6e
        e 0 90 43 6e
        e 48 80 40 40
        e 0 80 43 40
        e 16 90 3e 6e
        e 0 90 41 6e
        e 48 80 3e 40
        e 0 80 41 40
        e 16 90 3e 6e
        e 0 90 41 6e
        e 48 80 3e 40
        e 0 80 41 40
        e 16 90 3c 6e
        e 0 90 40 6e
        e 48 80 3c 40
        e 0 80 40 40
        e 16 90 37 6e
        e 0 90 3b 6e
        e 48 80 37 40
        e 0 80 3b 40
        e 16 90 34 6e
        e 0 90 3c 6e
        e 80 80 34 40
        e 0 80 3c 40
        e 16 90 40 6e
        e 32 80 40 40
        e 16 90 40 6e
        e 32 80 40 40
        e 16 90 40 6e
        e 80 80 40 40
        e 16 90 40 6e
        e 32 80 40 40
        e 64 90 40 6e
        e 80 80 40 40
        e 16 90 40 6e
        e 32 80 40 40
        e 64 90 40 6e
        e 80 80 40 40
        e 16 90 40 6e
        e 32 80 40 40
        e 64 90 47 6e
        e 0 90 4c 6e
        e 32 80 47 40
        e 0 80 4c 40
        e 16 90 50 6e
        e 32 80 50 40
        e 16 90 47 6e
        e 0 90 4c 6e
        e 32 80 47 40
        e 0 80 4c 40
        e 16 90 50 6e
        e 32 80 50 40
        e 16 90 47 6e
        e 0 90 4c 6e
        e 32 80 47 40
        e 0 80 4c 40
        e 16 90 50 6e
        e 32 80 50 40
        e 16 90 47 6e
        e 0 90 4c 6e
        e 32 80 47 40
        e 0 80 4c 40
        e 16 90 50 6e
        e 32 80 50 40
        e 16 90 47 6e
        e 0 90 4c 6e
        e 32 80 47 40
        e 0 80 4c 40
        e 16 90 50 6e
        e 32 80 50 40
        e 16 90 47 6e
        e 0 90 4c 6e
        e 32 80 47 40
        e 0 80 4c 40
        e 16 90 50 6e
        e 32 80 50 40
        e 16 90 48 6e
        e 0 90 4c 6e
        e 32 80 48 40
        e 0 80 4c 40
        e 16 90 51 6e
        e 32 80 51 40
        e 16 90 48 6e
        e 0 90 4c 6e
        e 32 80 48 40
        e 0 80 4c 40
        e 16 90 51 6e
        e 32 80 51 40
        e 16 90 4a 6e
        e 0 90 4c 6e
        e 32 80 4a 40
        e 0 80 4c 40
        e 16 90 53 6e
        e 32 80 53 40
        e 16 90 4a 6e
        e 0 90 4c 6e
        e 32 80 4a 40
        e 0 80 4c 40
        e 16 90 53 6e
        e 32 80 53 40
        e 16 90 4a 6e
        e 0 90 4c 6e
        e 32 80 4a 40
        e 0 80 4c 40
        e 16 90 53 6e
        e 32 80 53 40
        e 16 90 4a 6e
        e 0 90 4c 6e
        e 32 80 4a 40
        e 0 80 4c 40
        e 16 90 53 6e
        e 32 80 53 40
        e 16 90 4a 6e
        e 0 90 4c 6e
        e 32 80 4a 40
        e 0 80 4c 40
        e 16 90 53 6e
        e 32 80 53 40
        e 16 90 4a 6e
        e 0 90 4c 6e
        e 32 80 4a 40
        e 0 80 4c 40
        e 16 90 53 6e
        e 32 80 53 40
        e 16 90 47 6e
        e 0 90 4c 6e
        e 32 80 47 40
        e 0 80 4c 40
        e 16 90 50 6e
        e 32 80 50 40
        e 16 90 47 6e
        e 0 90 4c 6e
        e 32 80 47 40
        e 0 80 4c 40
        e 16 90 50 6e
        e 32 80 50 40
        e 16 90 48 6e
        e 0 90 4c 6e
        e 32 80 48 40
        e 0 80 4c 40
        e 16 90 51 6e
        e 32 80 51 40
        e 16 90 48 6e
        e 0 90 4c 6e
        e 32 80 48 40
        e 0 80 4c 40
        e 16 90 51 6e
        e 32 80 51 40
        e 16 90 48 6e
        e 0 90 4c 6e
        e 32 80 48 40
        e 0 80 4c 40
        e 16 90 51 6e
        e 32 80 51 40
        e 16 90 48 6e
        e 0 90 4c 6e
        e 32 80 48 40
        e 0 80 4c 40
        e 16 90 51 6e
        e 32 80 51 40
        e 16 90 48 6e
        e 0 90 51 6e
        e 128 80 48 40
        e 0 80 51 40
        e 16 90 47 6e
        e 0 90 50 6e
        e 32 80 47 40
        e 0 80 50 40
        e 16 90 48 6e
        e 0 90 51 6e
        e 128 80 48 40
        e 0 80 51 40
        e 16 90 4a 6e
        e 0 90 53 6e
        e 32 80 4a 40
        e 0 80 53 40
        e 16 90 47 6e
        e 0 90 50 6e
        e 96 90 40 6e
        e 0 90 4c 6e
        e 32 80 47 40
        e 0 80 50 40
        e 0 80 40 40
        e 0 80 4c 40
        e 16 90 40 6e
        e 0 90 4c 6e
        e 32 80 40 40
        e 0 80 4c 40
        e 16 90 40 6e
        e 0 90 4c 6e
        e 80 80 40 40
        e 0 80 4c 40
        e 16 90 40 6e
        e 0 90 4c 6e
        e 80 80 40 40
        e 0 80 4c 40
        e 16 90 40 6e
        e 0 90 4c 6e
        e 80 80 40 40
        e 0 80 4c 40
        e 16 90 40 6e
        e 0 90 4c 6e
        e 32 80 40 40
        e 0 80 4c 40
        e 16 90 40 6e
        e 0 90 4c 6e
        e 32 80 40 40
        e 0 80 4c 40
        e 16 90 40 6e
        e 0 90 4c 6e
        e 80 80 40 40
        e 0 80 4c 40
        e 16 90 40 6e
        e 0 90 4c 6e
        e 80 80 40 40
        e 0 80 4c 40
        e 16 90 47 6e
        e 32 80 47 40
        e 16 90 4c 6e
        e 32 80 4c 40
        e 16 90 50 6e
        e 32 80 50 40
        e 16 90 4c 6e
        e 32 80 4c 40
        e 16 90 47 6e
        e 32 80 47 40
        e 16 90 4c 6e
        e 32 80 4c 40
        e 16 90 50 6e
        e 32 80 50 40
        e 16 90 4c 6e
        e 32 80 4c 40
        e 16 90 47 6e
        e 32 80 47 40
        e 16 90 4c 6e
        e 32 80 4c 40
        e 16 90 50 6e
        e 32 80 50 40
        e 16 90 4c 6e
        e 32 80 4c 40
        e 16 90 48 6e
        e 32 80 48 40
        e 16 90 4c 6e
        e 32 80 4c 40
        e 16 90 51 6e
        e 32 80 51 40
        e 16 90 4c 6e
        e 32 80 4c 40
        e 16 90 4a 6e
        e 32 80 4a 40
        e 16 90 4c 6e
        e 32 80 4c 40
        e 16 90 53 6e
        e 32 80 53 40
        e 16 90 4c 6e
        e 32 80 4c 40
        e 16 90 4a 6e
        e 32 80 4a 40
        e 16 90 4c 6e
        e 32 80 4c 40
        e 16 90 53 6e
        e 32 80 53 40
        e 16 90 4c 6e
        e 32 80 4c 40
        e 16 90 4a 6e
        e 32 80 4a 40
        e 16 90 4c 6e
        e 32 80 4c 40
        e 16 90 53 6e
        e 32 80 53 40
        e 16 90 4c 6e
        e 32 80 4c 40
        e 16 90 47 6e
        e 32 80 47 40
        e 16 90 4c 6e
        e 32 80 4c 40
        e 16 90 50 6e
        e 32 80 50 40
        e 16 90 4c 6e
        e 32 80 4c 40
        e 16 90 48 6e
        e 32 80 48 40
        e 16 90 4c 6e
        e 32 80 4c 40
        e 16 90 51 6e
        e 32 80 51 40
        e 16 90 4c 6e
        e 32 80 4c 40
        e 16 90 48 6e
        e 32 80 48 40
        e 16 90 4c 6e
        e 32 80 4c 40
        e 16 90 51 6e
        e 32 80 51 40
        e 16 90 4c 6e
        e 32 80 4c 40
        e 16 90 48 6e
        e 32 80 48 40
        e 16 90 4b 6e
        e 32 80 4b 40
        e 16 90 51 6e
        e 32 80 51 40
        e 16 90 4b 6e
        e 32 80 4b 40
        e 16 90 48 6e
        e 32 80 48 40
        e 16 90 4b 6e
        e 32 80 4b 40
        e 16 90 51 6e
        e 32 80 51 40
        e 16 90 4b 6e
        e 32 80 4b 40
        e 16 90 47 6e
        e 0 90 4c 6e
        e 0 90 50 6e
        e 80 80 47 40
        e 0 80 4c 40
        e 0 80 50 40
        e 16 90 40 6e
        e 0 90 44 6e
        e 0 90 47 6e
        e 0 90 4c 6e
        e 32 80 40 40
        e 0 80 44 40
        e 0 80 47 40
        e 0 80 4c 40
        e 16 90 40 6e
        e 0 90 44 6e
        e 0 90 47 6e
        e 0 90 4c 6e
        e 32 80 40 40
        e 0 80 44 40
        e 0 80 47 40
        e 0 80 4c 40
        e 16 90 40 6e
        e 0 90 44 6e
        e 0 90 47 6e
        e 0 90 4c 6e
        e 80 80 40 40
        e 0 80 44 40
        e 0 80 47 40
        e 0 80 4c 40
        e 16 90 40 6e
        e 0 90 44 6e
        e 0 90 47 6e
        e 0 90 4c 6e
        e 80 80 40 40
        e 0 80 44 40
        e 0 80 47 40
        e 0 80 4c 40
        e 16 90 40 6e
        e 0 90 44 6e
        e 0 90 47 6e
        e 0 90 4c 6e
        e 176 80 40 40
        e 0 80 44 40
        e 0 80 47 40
        e 0 80 4c 40
        e 16 90 3c 6e
        e 0 90 40 6e
        e 128 80 3c 40
        e 0 80 40 40
        e 16 90 3e 6e
        e 0 90 41 6e
        e 32 80 3e 40
        e 0 80 41 40
        e 16 90 40 6e
        e 0 90 43 6e
        e 80 80 40 40
        e 0 80 43 40
        e 16 90 40 6e
        e 0 90 43 6e
        e 32 80 40 40
        e 0 80 43 40
        e 16 90 40 6e
        e 0 90 43 6e
        e 32 80 40 40
        e 0 80 43 40
        e 16 90 40 6e
        e 0 90 43 6e
        e 128 80 40 40
        e 0 80 43 40
        e 16 90 41 6e
        e 0 90 45 6e
        e 32 80 41 40
        e 0 80 45 40
        e 16 90 43 6e
        e 0 90 46 6e
        e 80 80 43 40
        e 0 80 46 40
        e 16 90 43 6e
        e 0 90 46 6e
        e 32 80 43 40
        e 0 80 46 40
        e 16 90 43 6e
        e 0 90 46 6e
        e 32 80 43 40
        e 0 80 46 40
        e 16 90 43 6e
        e 0 90 46 6e
        e 128 80 43 40
        e 0 80 46 40
        e 16 90 43 6e
        e 0 90 46 6e
        e 32 80 43 40
        e 0 80 46 40
        e 16 90 43 6e
        e 0 90 46 6e
        e 80 80 43 40
        e 0 80 46 40
        e 16 90 43 6e
        e 0 90 46 6e
        e 32 80 43 40
        e 0 80 46 40
        e 16 90 43 6e
        e 0 90 46 6e
        e 32 80 43 40
        e 0 80 46 40
        e 16 90 41 6e
        e 0 90 45 6e
        e 80 80 41 40
        e 0 80 45 40
        e 16 90 41 6e
        e 0 90 45 6e
        e 80 80 41 40
        e 0 80 45 40
        e 16 90 41 6e
        e 0 90 45 6e
        e 176 80 41 40
        e 0 80 45 40
        e 16 90 3e 6e
        e 0 90 42 6e
        e 128 80 3e 40
        e 0 80 42 40
        e 16 90 40 6e
        e 0 90 43 6e
        e 32 80 40 40
        e 0 80 43 40
        e 16 90 42 6e
        e 0 90 45 6e
        e 80 80 42 40
        e 0 80 45 40
        e 16 90 42 6e
        e 0 90 45 6e
        e 32 80 42 40
        e 0 80 45 40
        e 16 90 42 6e
        e 0 90 45 6e
        e 32 80 42 40
        e 0 80 45 40
        e 16 90 42 6e
        e 0 90 45 6e
        e 128 80 42 40
        e 0 80 45 40
        e 16 90 43 6e
        e 0 90 47 6e
        e 32 80 43 40
        e 0 80 47 40
        e 16 90 45 6e
        e 0 90 48 6e
        e 80 80 45 40
        e 0 80 48 40
        e 16 90 45 6e
        e 0 90 48 6e
        e 32 80 45 40
        e 0 80 48 40
        e 16 90 45 6e
        e 0 90 48 6e
        e 32 80 45 40
        e 0 80 48 40
        e 16 90 45 6e
        e 0 90 48 6e
        e 128 80 45 40
        e 0 80 48 40
        e 16 90 45 6e
        e 0 90 48 6e
        e 32 80 45 40
        e 0 80 48 40
        e 16 90 43 6e
        e 0 90 47 6e
        e 80 80 43 40
        e 0 80 47 40
        e 16 90 43 6e
        e 0 90 47 6e
        e 32 80 43 40
        e 0 80 47 40
        e 16 90 43 6e
        e 0 90 47 6e
        e 32 80 43 40
        e 0 80 47 40
        e 16 90 43 6e
        e 0 90 47 6e
        e 80 80 43 40
        e 0 80 47 40
        e 16 90 43 6e
        e 0 90 47 6e
        e 80 80 43 40
        e 0 80 47 40
        e 16 90 43 6e
        e 0 90 47 6e
        e 176 80 43 40
        e 0 80 47 40
        e 16 90 47 6e
        e 0 90 4f 6e
        e 0 90 53 6e
        e 128 80 47 40
        e 0 80 4f 40
        e 0 80 53 40
        e 16 90 47 6e
        e 0 90 4f 6e
        e 0 90 53 6e
        e 32 80 47 40
        e 0 80 4f 40
        e 0 80 53 40
        e 16 90 47 6e
        e 0 90 4f 6e
        e 0 90 53 6e
        e 128 80 47 40
        e 0 80 4f 40
        e 0 80 53 40
        e 16 90 45 6e
        e 0 90 4d 6e
        e 0 90 51 6e
        e 32 80 45 40
        e 0 80 4d 40
        e 0 80 51 40
        e 16 90 47 6e
        e 0 90 4f 6e
        e 0 90 53 6e
        e 128 80 47 40
        e 0 80 4f 40
        e 0 80 53 40
        e 16 90 45 6e
        e 0 90 4d 6e
        e 0 90 51 6e
        e 32 80 45 40
        e 0 80 4d 40
        e 0 80 51 40
        e 16 90 45 6e
        e 0 90 4d 6e
        e 0 90 51 6e
        e 128 80 45 40
        e 0 80 4d 40
        e 0 80 51 40
        e 16 90 43 6e
        e 0 90 4c 6e
        e 0 90 4f 6e
        e 32 80 43 40
        e 0 80 4c 40
        e 0 80 4f 40
        e 16 90 45 6e
        e 0 90 4d 6e
        e 0 90 51 6e
        e 128 80 45 40
        e 0 80 4d 40
        e 0 80 51 40
        e 16 90 43 6e
        e 0 90 4c 6e
        e 0 90 4f 6e
        e 32 80 43 40
        e 0 80 4c 40
        e 0 80 4f 40
        e 16 90 45 6e
        e 0 90 4d 6e
        e 0 90 51 6e
        e 272 80 45 40
        e 0 80 4d 40
        e 0 80 51 40
        e 16 90 43 6e
        e 0 90 4c 6e
        e 0 90 4f 6e
        e 80 80 43 40
        e 0 80 4c 40
        e 0 80 4f 40
        e 16 90 40 6e
        e 0 90 48 6e
        e 0 90 4c 6e
        e 176 80 40 40
        e 0 80 48 40
        e 0 80 4c 40
        e 16 90 48 6e
        e 0 90 54 6e
        e 128 80 48 40
        e 0 80 54 40
        e 16 90 47 6e
        e 0 90 4f 6e
        e 0 90 53 6e
        e 32 80 47 40
        e 0 80 4f 40
        e 0 80 53 40
        e 16 90 47 6e
        e 0 90 4f 6e
        e 0 90 53 6e
        e 128 80 47 40
        e 0 80 4f 40
        e 0 80 53 40
        e 16 90 45 6e
        e 0 90 4d 6e
        e 0 90 51 6e
        e 32 80 45 40
        e 0 80 4d 40
        e 0 80 51 40
        e 16 90 47 6e
        e 0 90 4f 6e
        e 0 90 53 6e
        e 128 80 47 40
        e 0 80 4f 40
        e 0 80 53 40
        e 16 90 45 6e
        e 0 90 4d 6e
        e 0 90 51 6e
        e 32 80 45 40
        e 0 80 4d 40
        e 0 80 51 40
        e 16 90 45 6e
        e 0 90 4d 6e
        e 0 90 51 6e
        e 128 80 45 40
        e 0 80 4d 40
        e 0 80 51 40
        e 16 90 43 6e
        e 0 90 4c 6e
        e 0 90 4f 6e
        e 32 80 43 40
        e 0 80 4c 40
        e 0 80 4f 40
        e 16 90 45 6e
        e 0 90 4d 6e
        e 0 90 51 6e
        e 128 80 45 40
        e 0 80 4d 40
        e 0 80 51 40
        e 16 90 43 6e
        e 0 90 4c 6e
        e 0 90 4f 6e
        e 32 80 43 40
        e 0 80 4c 40
        e 0 80 4f 40
        e 16 90 40 6e
        e 0 90 48 6e
        e 0 90 4c 6e
        e 80 80 40 40
        e 0 80 48 40
        e 0 80 4c 40
        e 16 90 3c 6e
        e 0 90 48 6e
        e 32 80 3c 40
        e 0 80 48 40
        e 16 90 3c 6e
        e 0 90 48 6e
        e 32 80 3c 40
        e 0 80 48 40
        e 16 90 3c 6e
        e 0 90 48 6e
        e 80 80 3c 40
        e 0 80 48 40
        e 16 90 3e 6e
        e 0 90 4a 6e
        e 80 80 3e 40
        e 0 80 4a 40
        e 16 90 40 6e
        e 0 90 4c 6e
        e 80 80 40 40
        e 0 80 4c 40
        e 16 90 41 6e
        e 0 90 4d 6e
        e 80 80 41 40
        e 0 80 4d 40
        e 16 90 43 6e
        e 0 90 4f 6e
        e 80 80 43 40
        e 0 80 4f 40
        e 16 90 45 6e
        e 0 90 51 6e
        e 80 80 45 40
        e 0 80 51 40
        e 16 90 46 6e
        e 0 90 52 6e
        e 80 80 46 40
        e 0 80 52 40
        e 16 90 40 6e
        e 0 90 43 6e
        e 0 90 49 6e
        e 32 80 40 40
        e 0 80 43 40
        e 0 80 49 40
        e 16 90 40 6e
        e 0 90 43 6e
        e 0 90 49 6e
        e 32 80 40 40
        e 0 80 43 40
        e 0 80 49 40
        e 16 90 40 6e
        e 0 90 43 6e
        e 0 90 49 6e
        e 128 80 40 40
        e 0 80 43 40
        e 0 80 49 40
        e 16 90 40 6e
        e 0 90 43 6e
        e 0 90 49 6e
        e 32 80 40 40
        e 0 80 43 40
        e 0 80 49 40
        e 16 90 41 6e
        e 0 90 45 6e
        e 0 90 4a 6e
        e 176 80 41 40
        e 0 80 45 40
        e 0 80 4a 40
        e 16 90 40 6e
        e 0 90 43 6e
        e 0 90 45 6e
        e 0 90 49 6e
        e 176 80 40 40
        e 0 80 43 40
        e 0 80 45 40
        e 0 80 49 40
        e 16 90 3e 6e
        e 0 90 45 6e
        e 0 90 4a 6e
        e 176 80 3e 40
        e 0 80 45 40
        e 0 80 4a 40
        e 16 90 3e 6e
        e 0 90 45 6e
        e 0 90 4a 6e
        e 176 80 3e 40
        e 0 80 45 40
        e 0 80 4a 40
        e 208 90 48 6e
        e 0 90 4b 6e
        e 0 90 51 6e
        e 128 80 48 40
        e 0 80 4b 40
        e 0 80 51 40
        e 16 90 48 6e
        e 0 90 4b 6e
        e 0 90 51 6e
        e 32 80 48 40
        e 0 80 4b 40
        e 0 80 51 40
        e 16 90 48 6e
        e 0 90 4c 6e
        e 0 90 4f 6e
        e 176 80 48 40
        e 0 80 4c 40
        e 0 80 4f 40
        e 16 90 43 6e
        e 0 90 48 6e
        e 0 90 4c 6e
        e 128 80 43 40
        e 0 80 48 40
        e 0 80 4c 40
        e 16 90 43 6e
        e 0 90 48 6e
        e 0 90 4c 6e
        e 32 80 43 40
        e 0 80 48 40
        e 0 80 4c 40
        e 16 90 43 6e
        e 0 90 4a 6e
        e 0 90 4d 6e
        e 176 80 43 40
        e 0 80 4a 40
        e 0 80 4d 40
        e 16 90 43 6e
        e 0 90 47 6e
        e 0 90 4a 6e
        e 128 80 43 40
        e 0 80 47 40
        e 0 80 4a 40
        e 16 90 43 6e
        e 0 90 47 6e
        e 0 90 4a 6e
        e 32 80 43 40
        e 0 80 47 40
        e 0 80 4a 40
        e 16 90 43 6e
        e 0 90 48 6e
        e 0 90 4c 6e
        e 176 80 43 40
        e 0 80 48 40
        e 0 80 4c 40
        e 16 90 34 6e
        e 48 80 34 40
        e 16 90 35 6e
        e 48 80 35 40
        e 16 90 37 6e
        e 48 80 37 40
        e 16 90 39 6e
        e 48 80 39 40
        e 16 90 3b 6e
        e 48 80 3b 40
        e 16 90 3c 6e
        e 48 80 3c 40
        e 16 90 3e 6e
        e 48 80 3e 40
        e 16 90 40 6e
        e 48 80 40 40
        e 16 90 41 6e
        e 48 80 41 40
        e 16 90 43 6e
        e 80 80 43 40
        e 16 90 48 6e
        e 0 90 4c 6e
        e 0 90 4d 6e
        e 0 90 4f 6e
        e 0 90 54 6e
        e 32 80 48 40
        e 0 80 4c 40
        e 0 80 4d 40
        e 0 80 4f 40
        e 0 80 54 40
        e 16 90 48 6e
        e 0 90 4c 6e
        e 0 90 4f 6e
        e 0 90 54 6e
        e 32 80 48 40
        e 0 80 4c 40
        e 0 80 4f 40
        e 0 80 54 40
        e 16 90 48 6e
        e 0 90 4c 6e
        e 0 90 4f 6e
        e 0 90 54 6e
        e 80 80 48 40
        e 0 80 4c 40
        e 0 80 4f 40
        e 0 80 54 40
        e 16 90 48 6e
        e 0 90 4c 6e
        e 0 90 4f 6e
        e 0 90 54 6e
        e 80 80 48 40
        e 0 80 4c 40
        e 0 80 4f 40
        e 0 80 54 40
        e 16 90 4a 6e
        e 0 90 4d 6e
        e 0 90 4f 6e
        e 0 90 53 6e
        e 80 80 4a 40
        e 0 80 4d 40
        e 0 80 4f 40
        e 0 80 53 40
        e 16 90 4a 6e
        e 0 90 4d 6e
        e 0 90 4f 6e
        e 0 90 53 6e
        e 32 80 4a 40
        e 0 80 4d 40
        e 0 80 4f 40
        e 0 80 53 40
        e 16 90 4a 6e
        e 0 90 4d 6e
        e 0 90 4f 6e
        e 0 90 53 6e
        e 32 80 4a 40
        e 0 80 4d 40
        e 0 80 4f 40
        e 0 80 53 40
        e 16 90 4a 6e
        e 0 90 4d 6e
        e 0 90 4f 6e
        e 0 90 53 6e
        e 80 80 4a 40
        e 0 80 4d 40
        e 0 80 4f 40
        e 0 80 53 40
        e 16 90 4a 6e
        e 0 90 4d 6e
        e 0 90 4f 6e
        e 0 90 53 6e
        e 80 80 4a 40
        e 0 80 4d 40
        e 0 80 4f 40
        e 0 80 53 40
        e 16 90 48 6e
        e 0 90 4c 6e
        e 0 90 54 6e
        e 176 80 48 40
        e 0 80 4c 40
        e 0 80 54 40
        e 16 90 34 6e
        e 48 80 34 40
        e 16 90 35 6e
        e 48 80 35 40
        e 16 90 37 6e
        e 48 80 37 40
        e 16 90 39 6e
        e 48 80 39 40
        e 16 90 3b 6e
        e 48 80 3b 40
        e 16 90 3c 6e
        e 48 80 3c 40
        e 16 90 3e 6e
        e 48 80 3e 40
        e 16 90 40 6e
        e 48 80 40 40
        e 16 90 41 6e
        e 48 80 41 40
        e 16 90 43 6e
        e 80 80 43 40
        e 16 90 48 6e
        e 0 90 4c 6e
        e 0 90 54 6e
        e 32 80 48 40
        e 0 80 4c 40
        e 0 80 54 40
        e 16 90 48 6e
        e 0 90 4c 6e
        e 0 90 4f 6e
        e 0 90 54 6e
        e 32 80 48 40
        e 0 80 4c 40
        e 0 80 4f 40
        e 0 80 54 40
        e 16 90 48 6e
        e 0 90 4c 6e
        e 0 90 4f 6e
        e 0 90 54 6e
        e 80 80 48 40
        e 0 80 4c 40
        e 0 80 4f 40
        e 0 80 54 40
        e 16 90 48 6e
        e 0 90 4c 6e
        e 0 90 4f 6e
        e 0 90 54 6e
        e 80 80 48 40
        e 0 80 4c 40
        e 0 80 4f 40
        e 0 80 54 40
        e 16 90 4a 6e
        e 0 90 4d 6e
        e 0 90 4f 6e
        e 0 90 53 6e
        e 80 80 4a 40
        e 0 80 4d 40
        e 0 80 4f 40
        e 0 80 53 40
        e 16 90 4a 6e
        e 0 90 4d 6e
        e 0 90 4f 6e
        e 0 90 53 6e
        e 32 80 4a 40
        e 0 80 4d 40
        e 0 80 4f 40
        e 0 80 53 40
        e 16 90 4a 6e
        e 0 90 4d 6e
        e 0 90 4f 6e
        e 0 90 53 6e
        e 32 80 4a 40
        e 0 80 4d 40
        e 0 80 4f 40
        e 0 80 53 40
        e 16 90 4a 6e
        e 0 90 4d 6e
        e 0 90 4f 6e
        e 0 90 53 6e
        e 80 80 4a 40
        e 0 80 4d 40
        e 0 80 4f 40
        e 0 80 53 40
        e 16 90 4a 6e
        e 0 90 4d 6e
        e 0 90 4f 6e
        e 0 90 53 6e
        e 80 80 4a 40
        e 0 80 4d 40
        e 0 80 4f 40
        e 0 80 53 40
        e 16 90 48 6e
        e 0 90 4c 6e
        e 0 90 4f 6e
        e 0 90 54 6e
        e 176 80 48 40
        e 0 80 4c 40
        e 0 80 4f 40
        e 0 80 54 40
        e 16 90 48 6e
        e 48 80 48 40
        e 16 90 43 6e
        e 48 80 43 40
        e 16 90 4c 6e
        e 48 80 4c 40
        e 16 90 48 6e
        e 48 80 48 40
        e 16 90 43 6e
        e 48 80 43 40
        e 16 90 4c 6e
        e 48 80 4c 40
        e 16 90 48 6e
        e 48 80 48 40
        e 16 90 43 6e
        e 48 80 43 40
        e 16 90 4c 6e
        e 48 80 4c 40
        e 16 90 48 6e
        e 48 80 48 40
        e 16 90 54 6e
        e 48 80 54 40
        e 16 90 53 6e
        e 48 80 53 40
        e 16 90 54 6e
        e 48 80 54 40
        e 16 90 4f 6e
        e 48 80 4f 40
        e 16 90 4c 6e
        e 48 80 4c 40
        e 16 90 48 6e
        e 48 80 48 40
        e 16 90 48 6e
        e 48 80 48 40
        e 16 90 47 6e
        e 48 80 47 40
        e 16 90 48 6e
        e 48 80 48 40
        e 16 90 43 6e
        e 48 80 43 40
        e 16 90 40 6e
        e 48 80 40 40
        e 16 90 3c 6e
        e 176 80 3c 40
        e 16 90 40 6e
        e 0 90 43 6e
        e 0 90 48 6e
        e 128 80 40 40
        e 0 80 43 40
        e 0 80 48 40
        e 16 90 40 6e
        e 0 90 43 6e
        e 0 90 48 6e
        e 32 80 40 40
        e 0 80 43 40
        e 0 80 48 40
        e 16 90 40 6e
        e 0 90 43 6e
        e 0 90 48 6e
        e 176 80 40 40
        e 0 80 43 40
        e 0 80 48 40
        E 16 b0 7b 00
        GUID {D751D57D-4D20-8D47-B451-B1AC63A444F1}
        IGNTEMPO 0 120 4 4
        SRCCOLOR 721
        VELLANE -1 86 6
        CFGEDITVIEW 6412.8 8.219697 50 24 0 0 0 0 0 0.5
        KEYSNAP 0
        TRACKSEL 226 0 0 ""
        EVTFILTER 0 -1 -1 -1 -1 0 1 0 0 -1 -1 -1 -1 0 -1 0 -1 -1
        CFGEDIT 1 0 0 0 0 0 1 0 1 1 1 0.25 16 63 1280 778 0 0 2 3 0 0 0 0 0 0.5 0 0 1 64
      >
      TAKE
      NAME "Accompany.RH         - National_Anthems_-_Chile.mid"
      TAKEVOLPAN 0 1 -1
      SOFFS 21.5 43
      PLAYRATE 1 1 0 -1 0 0.0025
      CHANMODE 0
      GUID {E7DCF060-4890-6B49-9E26-0A0AAAFAEACC}
      <SOURCE MIDI
        HASDATA 1 192 QN
        POOLEDEVTS {6DE3E8E8-C4F9-FB48-B7AC-84BF84943933}
        <X 0 0
          /wNBY2NvbXBhbnkuUkggICAgICAgIA==
        >
        e 720 90 4f 6e
        e 16 90 51 6e
        e 6 80 4f 40
        e 2 90 53 6e
        e 14 80 51 40
        e 8 80 53 40
        e 2 90 48 6e
        e 0 90 54 6e
        e 334 80 48 40
        e 0 80 54 40
        e 2 90 47 6e
        e 0 90 53 6e
        e 46 80 47 40
        e 0 80 53 40
        e 2 90 48 6e
        e 0 90 54 6e
        e 142 80 48 40
        e 0 80 54 40
        e 2 90 44 6e
        e 0 90 50 6e
        e 46 80 44 40
        e 0 80 50 40
        e 2 90 45 6e
        e 0 90 51 6e
        e 142 80 45 40
        e 0 80 51 40
        e 2 90 40 6e
        e 0 90 4c 6e
        e 46 80 40 40
        e 0 80 4c 40
        e 2 90 41 6e
        e 0 90 4d 6e
        e 142 80 41 40
        e 0 80 4d 40
        e 2 90 3d 6e
        e 0 90 49 6e
        e 46 80 3d 40
        e 0 80 49 40
        e 2 90 3e 6e
        e 0 90 4a 6e
        e 142 80 3e 40
        e 0 80 4a 40
        e 2 90 3a 6e
        e 0 90 46 6e
        e 46 80 3a 40
        e 0 80 46 40
        e 2 90 3b 6e
        e 0 90 47 6e
        e 190 80 3b 40
        e 0 80 47 40
        e 50 90 43 6e
        e 22 80 43 40
        e 2 90 45 6e
        e 22 80 45 40
        e 2 90 47 6e
        e 22 80 47 40
        e 2 90 48 6e
        e 22 80 48 40
        e 2 90 4a 6e
        e 22 80 4a 40
        e 2 90 4c 6e
        e 22 80 4c 40
        e 98 90 47 6e
        e 0 90 4a 6e
        e 0 90 4d 6e
        e 46 80 47 40
        e 0 80 4a 40
        e 0 80 4d 40
        e 2 90 47 6e
        e 0 90 4a 6e
        e 0 90 4d 6e
        e 46 80 47 40
        e 0 80 4a 40
        e 0 80 4d 40
        e 2 90 47 6e
        e 0 90 4a 6e
        e 0 90 4d 6e
        e 94 80 47 40
        e 0 80 4a 40
        e 0 80 4d 40
        e 2 90 47 6e
        e 0 90 4a 6e
        e 0 90 4d 6e
        e 94 80 47 40
        e 0 80 4a 40
        e 0 80 4d 40
        e 2 90 47 6e
        e 0 90 4a 6e
        e 0 90 4d 6e
        e 94 80 47 40
        e 0 80 4a 40
        e 0 80 4d 40
        e 2 90 47 6e
        e 0 90 4a 6e
        e 0 90 4d 6e
        e 94 80 47 40
        e 0 80 4a 40
        e 0 80 4d 40
        e 2 90 48 6e
        e 0 90 4d 6e
        e 94 80 48 40
        e 0 80 4d 40
        e 2 90 4a 6e
        e 0 90 4d 6e
        e 94 80 4a 40
        e 0 80 4d 40
        e 2 90 43 6e
        e 0 90 48 6e
        e 0 90 4c 6e
        e 94 80 43 40
        e 0 80 48 40
        e 0 80 4c 40
        e 2 90 4c 6e
        e 46 80 4c 40
        e 2 90 4d 6e
        e 46 80 4d 40
        e 2 90 41 6e
        e 0 90 47 6e
        e 0 90 4a 6e
        e 94 80 41 40
        e 0 80 47 40
        e 0 80 4a 40
        e 2 90 4a 6e
        e 46 80 4a 40
        e 2 90 4c 6e
        e 46 80 4c 40
        e 2 90 40 6e
        e 0 90 48 6e
        e 190 80 40 40
        e 0 80 48 40
        e 26 90 48 6e
        e 22 80 48 40
        e 2 90 4a 6e
        e 22 80 4a 40
        e 2 90 4c 6e
        e 22 80 4c 40
        e 2 90 4d 6e
        e 22 80 4d 40
        e 2 90 4f 6e
        e 22 80 4f 40
        e 2 90 51 6e
        e 22 80 51 40
        e 2 90 53 6e
        e 22 80 53 40
        e 2 90 54 6e
        e 94 80 54 40
        e 2 90 51 6e
        e 0 90 54 6e
        e 46 80 51 40
        e 0 80 54 40
        e 2 90 51 6e
        e 0 90 54 6e
        e 46 80 51 40
        e 0 80 54 40
        e 2 90 51 6e
        e 0 90 54 6e
        e 94 80 51 40
        e 0 80 54 40
        e 2 90 51 6e
        e 0 90 54 6e
        e 94 80 51 40
        e 0 80 54 40
        e 2 90 51 6e
        e 0 90 54 6e
        e 94 80 51 40
        e 0 80 54 40
        e 2 90 50 6e
        e 0 90 53 6e
        e 46 80 50 40
        e 0 80 53 40
        e 2 90 51 6e
        e 0 90 54 6e
        e 46 80 51 40
        e 0 80 54 40
        e 2 90 53 6e
        e 0 90 56 6e
        e 46 80 53 40
        e 0 80 56 40
        e 2 90 51 6e
        e 0 90 54 6e
        e 46 80 51 40
        e 0 80 54 40
        e 2 90 4f 6e
        e 0 90 53 6e
        e 46 80 4f 40
        e 0 80 53 40
        e 2 90 4d 6e
        e 0 90 51 6e
        e 46 80 4d 40
        e 0 80 51 40
        e 2 90 4c 6e
        e 0 90 4f 6e
        e 94 80 4c 40
        e 0 80 4f 40
        e 2 90 4f 6e
        e 46 80 4f 40
        e 2 90 51 6e
        e 46 80 51 40
        e 2 90 4a 6e
        e 0 90 4d 6e
        e 94 80 4a 40
        e 0 80 4d 40
        e 2 90 4d 6e
        e 46 80 4d 40
        e 2 90 4f 6e
        e 46 80 4f 40
        e 2 90 48 6e
        e 0 90 4c 6e
        e 190 80 48 40
        e 0 80 4c 40
        e 26 90 3c 6e
        e 22 80 3c 40
        e 2 90 3e 6e
        e 22 80 3e 40
        e 2 90 40 6e
        e 22 80 40 40
        e 2 90 41 6e
        e 22 80 41 40
        e 2 90 43 6e
        e 22 80 43 40
        e 2 90 45 6e
        e 22 80 45 40
        e 2 90 47 6e
        e 22 80 47 40
        e 2 90 48 6e
        e 80 80 48 40
        e 16 90 3c 6e
        e 0 90 3f 6e
        e 0 90 44 6e
        e 0 90 48 6e
        e 32 80 3c 40
        e 0 80 3f 40
        e 0 80 44 40
        e 0 80 48 40
        e 16 90 3c 6e
        e 0 90 3f 6e
        e 0 90 44 6e
        e 0 90 48 6e
        e 32 80 3c 40
        e 0 80 3f 40
        e 0 80 44 40
        e 0 80 48 40
        e 16 90 3c 6e
        e 0 90 3f 6e
        e 0 90 44 6e
        e 0 90 48 6e
        e 80 80 3c 40
        e 0 80 3f 40
        e 0 80 44 40
        e 0 80 48 40
        e 16 90 3c 6e
        e 0 90 3f 6e
        e 0 90 44 6e
        e 0 90 48 6e
        e 80 80 3c 40
        e 0 80 3f 40
        e 0 80 44 40
        e 0 80 48 40
        e 16 90 3c 6e
        e 0 90 3f 6e
        e 0 90 44 6e
        e 0 90 48 6e
        e 80 80 3c 40
        e 0 80 3f 40
        e 0 80 44 40
        e 0 80 48 40
        e 16 90 3e 6e
        e 0 90 48 6e
        e 0 90 4a 6e
        e 80 80 3e 40
        e 0 80 48 40
        e 0 80 4a 40
        e 16 90 3f 6e
        e 0 90 48 6e
        e 0 90 4b 6e
        e 80 80 3f 40
        e 0 80 48 40
        e 0 80 4b 40
        e 16 90 42 6e
        e 0 90 48 6e
        e 0 90 4b 6e
        e 0 90 4e 6e
        e 80 80 42 40
        e 0 80 48 40
        e 0 80 4b 40
        e 0 80 4e 40
        e 16 90 43 6e
        e 0 90 48 6e
        e 0 90 4c 6e
        e 0 90 4f 6e
        e 80 80 43 40
        e 0 80 48 40
        e 0 80 4c 40
        e 0 80 4f 40
        e 16 90 43 6e
        e 0 90 48 6e
        e 0 90 4c 6e
        e 0 90 4f 6e
        e 32 80 43 40
        e 0 80 48 40
        e 0 80 4c 40
        e 0 80 4f 40
        e 16 90 43 6e
        e 0 90 48 6e
        e 0 90 4c 6e
        e 0 90 4f 6e
        e 32 80 43 40
        e 0 80 48 40
        e 0 80 4c 40
        e 0 80 4f 40
        e 16 90 43 6e
        e 0 90 48 6e
        e 0 90 4c 6e
        e 80 80 43 40
        e 0 80 48 40
        e 0 80 4c 40
        e 16 90 43 6e
        e 0 90 48 6e
        e 0 90 4c 6e
        e 80 80 43 40
        e 0 80 48 40
        e 0 80 4c 40
        e 16 90 43 6e
        e 0 90 47 6e
        e 0 90 4a 6e
        e 0 90 4f 6e
        e 80 80 43 40
        e 0 80 47 40
        e 0 80 4a 40
        e 0 80 4f 40
        e 16 90 43 6e
        e 0 90 47 6e
        e 0 90 4a 6e
        e 0 90 4f 6e
        e 32 80 43 40
        e 0 80 47 40
        e 0 80 4a 40
        e 0 80 4f 40
        e 16 90 43 6e
        e 0 90 47 6e
        e 0 90 4a 6e
        e 0 90 4f 6e
        e 32 80 43 40
        e 0 80 47 40
        e 0 80 4a 40
        e 0 80 4f 40
        e 16 90 43 6e
        e 0 90 47 6e
        e 0 90 4a 6e
        e 80 80 43 40
        e 0 80 47 40
        e 0 80 4a 40
        e 16 90 43 6e
        e 0 90 47 6e
        e 0 90 4a 6e
        e 32 80 43 40
        e 0 80 47 40
        e 0 80 4a 40
        e 64 90 40 6e
        e 0 90 43 6e
        e 0 90 48 6e
        e 176 80 40 40
        e 0 80 43 40
        e 0 80 48 40
        e 112 90 43 6e
        e 16 80 43 40
        e 16 90 45 6e
        e 16 80 45 40
        e 16 90 47 6e
        e 16 80 47 40
        e 16 90 48 6e
        e 80 80 48 40
        e 16 90 43 6e
        e 16 80 43 40
        e 16 90 45 6e
        e 16 80 45 40
        e 16 90 47 6e
        e 16 80 47 40
        e 16 90 48 6e
        e 80 80 48 40
        e 16 90 43 6e
        e 16 80 43 40
        e 16 90 45 6e
        e 16 80 45 40
        e 16 90 47 6e
        e 16 80 47 40
        e 16 90 48 6e
        e 176 80 48 40
        e 16 90 40 6e
        e 0 90 43 6e
        e 0 90 48 6e
        e 128 80 40 40
        e 0 80 43 40
        e 0 80 48 40
        e 16 90 40 6e
        e 0 90 43 6e
        e 0 90 48 6e
        e 32 80 40 40
        e 0 80 43 40
        e 0 80 48 40
        e 16 90 40 6e
        e 0 90 43 6e
        e 0 90 48 6e
        e 176 80 40 40
        e 0 80 43 40
        e 0 80 48 40
        e 16 90 43 6e
        e 128 80 43 40
        e 16 90 48 6e
        e 32 80 48 40
        e 16 90 40 6e
        e 0 90 48 6e
        e 128 80 40 40
        e 0 80 48 40
        e 16 90 43 6e
        e 0 90 47 6e
        e 32 80 43 40
        e 0 80 47 40
        e 16 90 43 6e
        e 0 90 47 6e
        e 128 80 43 40
        e 0 80 47 40
        e 16 90 41 6e
        e 0 90 45 6e
        e 32 80 41 40
        e 0 80 45 40
        e 16 90 41 6e
        e 0 90 45 6e
        e 128 80 41 40
        e 0 80 45 40
        e 16 90 40 6e
        e 0 90 43 6e
        e 32 80 40 40
        e 0 80 43 40
        e 16 90 40 6e
        e 0 90 43 6e
        e 128 80 40 40
        e 0 80 43 40
        e 16 90 3f 6e
        e 0 90 42 6e
        e 32 80 3f 40
        e 0 80 42 40
        e 16 90 40 6e
        e 0 90 43 6e
        e 272 80 40 40
        e 0 80 43 40
        e 16 90 3e 6e
        e 0 90 41 6e
        e 80 80 3e 40
        e 0 80 41 40
        e 16 90 3c 6e
        e 0 90 40 6e
        e 176 80 3c 40
        e 0 80 40 40
        e 16 90 3b 6e
        e 0 90 3e 6e
        e 128 80 3b 40
        e 0 80 3e 40
        e 16 90 3c 6e
        e 0 90 40 6e
        e 32 80 3c 40
        e 0 80 40 40
        e 16 90 3e 6e
        e 0 90 41 6e
        e 80 80 3e 40
        e 0 80 41 40
        e 112 90 3e 6e
        e 0 90 41 6e
        e 80 80 3e 40
        e 0 80 41 40
        e 112 90 3c 6e
        e 0 90 40 6e
        e 80 80 3c 40
        e 0 80 40 40
        e 112 90 3c 6e
        e 0 90 40 6e
        e 80 80 3c 40
        e 0 80 40 40
        e 112 90 3b 6e
        e 0 90 3e 6e
        e 0 90 43 6e
        e 80 80 3b 40
        e 0 80 3e 40
        e 0 80 43 40
        e 16 90 3b 6e
        e 0 90 3e 6e
        e 0 90 43 6e
        e 32 80 3b 40
        e 0 80 3e 40
        e 0 80 43 40
        e 16 90 3b 6e
        e 0 90 3e 6e
        e 0 90 43 6e
        e 32 80 3b 40
        e 0 80 3e 40
        e 0 80 43 40
        e 16 90 3b 6e
        e 0 90 3e 6e
        e 0 90 43 6e
        e 80 80 3b 40
        e 0 80 3e 40
        e 0 80 43 40
        e 16 90 3b 6e
        e 0 90 3e 6e
        e 0 90 43 6e
        e 80 80 3b 40
        e 0 80 3e 40
        e 0 80 43 40
        e 16 90 3b 6e
        e 0 90 3e 6e
        e 0 90 43 6e
        e 80 80 3b 40
        e 0 80 3e 40
        e 0 80 43 40
        e 304 90 40 6e
        e 0 90 48 6e
        e 128 80 40 40
        e 0 80 48 40
        e 16 90 43 6e
        e 0 90 47 6e
        e 32 80 43 40
        e 0 80 47 40
        e 16 90 43 6e
        e 0 90 47 6e
        e 128 80 43 40
        e 0 80 47 40
        e 16 90 41 6e
        e 0 90 45 6e
        e 32 80 41 40
        e 0 80 45 40
        e 16 90 41 6e
        e 0 90 45 6e
        e 128 80 41 40
        e 0 80 45 40
        e 16 90 40 6e
        e 0 90 43 6e
        e 32 80 40 40
        e 0 80 43 40
        e 16 90 40 6e
        e 0 90 43 6e
        e 128 80 40 40
        e 0 80 43 40
        e 16 90 3f 6e
        e 0 90 42 6e
        e 32 80 3f 40
        e 0 80 42 40
        e 16 90 40 6e
        e 0 90 43 6e
        e 272 80 40 40
        e 0 80 43 40
        e 16 90 3e 6e
        e 0 90 41 6e
        e 80 80 3e 40
        e 0 80 41 40
        e 16 90 3c 6e
        e 0 90 40 6e
        e 176 80 3c 40
        e 0 80 40 40
        e 16 90 3c 6e
        e 0 90 40 6e
        e 128 80 3c 40
        e 0 80 40 40
        e 16 90 3c 6e
        e 0 90 40 6e
        e 32 80 3c 40
        e 0 80 40 40
        e 16 90 3b 6e
        e 0 90 3e 6e
        e 0 90 43 6e
        e 80 80 3b 40
        e 0 80 3e 40
        e 0 80 43 40
        e 112 90 3b 6e
        e 0 90 3e 6e
        e 0 90 43 6e
        e 80 80 3b 40
        e 0 80 3e 40
        e 0 80 43 40
        e 112 90 39 6e
        e 0 90 3e 6e
        e 0 90 42 6e
        e 80 80 39 40
        e 0 80 3e 40
        e 0 80 42 40
        e 112 90 39 6e
        e 0 90 3e 6e
        e 0 90 42 6e
        e 80 80 39 40
        e 0 80 3e 40
        e 0 80 42 40
        e 112 90 3b 6e
        e 0 90 3e 6e
        e 0 90 43 6e
        e 176 80 3b 40
        e 0 80 3e 40
        e 0 80 43 40
        e 16 90 3b 6e
        e 0 90 3e 6e
        e 0 90 43 6e
        e 128 80 3b 40
        e 0 80 3e 40
        e 0 80 43 40
        e 16 90 3b 6e
        e 0 90 3e 6e
        e 0 90 43 6e
        e 32 80 3b 40
        e 0 80 3e 40
        e 0 80 43 40
        e 16 90 3b 6e
        e 0 90 3e 6e
        e 0 90 43 6e
        e 176 80 3b 40
        e 0 80 3e 40
        e 0 80 43 40
        e 208 90 3f 6e
        e 0 90 43 6e
        e 80 80 3f 40
        e 0 80 43 40
        e 16 90 3a 6e
        e 80 80 3a 40
        e 16 90 3f 6e
        e 0 90 43 6e
        e 80 80 3f 40
        e 0 80 43 40
        e 16 90 3a 6e
        e 80 80 3a 40
        e 16 90 41 6e
        e 0 90 44 6e
        e 80 80 41 40
        e 0 80 44 40
        e 16 90 3f 6e
        e 0 90 43 6e
        e 80 80 3f 40
        e 0 80 43 40
        e 16 90 3e 6e
        e 0 90 41 6e
        e 80 80 3e 40
        e 0 80 41 40
        e 16 90 3f 6e
        e 0 90 43 6e
        e 80 80 3f 40
        e 0 80 43 40
        e 16 90 41 6e
        e 0 90 44 6e
        e 80 80 41 40
        e 0 80 44 40
        e 16 90 3a 6e
        e 80 80 3a 40
        e 16 90 41 6e
        e 0 90 44 6e
        e 80 80 41 40
        e 0 80 44 40
        e 16 90 3a 6e
        e 80 80 3a 40
        e 16 90 3e 6e
        e 0 90 41 6e
        e 80 80 3e 40
        e 0 80 41 40
        e 16 90 3a 6e
        e 80 80 3a 40
        e 16 90 3e 6e
        e 0 90 41 6e
        e 80 80 3e 40
        e 0 80 41 40
        e 16 90 3a 6e
        e 80 80 3a 40
        e 16 90 41 6e
        e 0 90 44 6e
        e 80 80 41 40
        e 0 80 44 40
        e 16 90 3a 6e
        e 80 80 3a 40
        e 16 90 41 6e
        e 0 90 44 6e
        e 80 80 41 40
        e 0 80 44 40
        e 16 90 3a 6e
        e 80 80 3a 40
        e 16 90 43 6e
        e 0 90 46 6e
        e 80 80 43 40
        e 0 80 46 40
        e 16 90 41 6e
        e 0 90 44 6e
        e 80 80 41 40
        e 0 80 44 40
        e 16 90 3f 6e
        e 0 90 43 6e
        e 80 80 3f 40
        e 0 80 43 40
        e 16 90 41 6e
        e 0 90 44 6e
        e 80 80 41 40
        e 0 80 44 40
        e 16 90 43 6e
        e 0 90 46 6e
        e 80 80 43 40
        e 0 80 46 40
        e 16 90 3a 6e
        e 80 80 3a 40
        e 16 90 43 6e
        e 0 90 46 6e
        e 80 80 43 40
        e 0 80 46 40
        e 16 90 41 6e
        e 0 90 44 6e
        e 80 80 41 40
        e 0 80 44 40
        e 16 90 3f 6e
        e 0 90 43 6e
        e 80 80 3f 40
        e 0 80 43 40
        e 16 90 3a 6e
        e 80 80 3a 40
        e 16 90 3f 6e
        e 0 90 43 6e
        e 80 80 3f 40
        e 0 80 43 40
        e 16 90 3a 6e
        e 80 80 3a 40
        e 16 90 3c 6e
        e 0 90 3f 6e
        e 176 80 3c 40
        e 0 80 3f 40
        e 16 90 3c 6e
        e 0 90 3f 6e
        e 128 80 3c 40
        e 0 80 3f 40
        e 16 90 3c 6e
        e 0 90 3f 6e
        e 32 80 3c 40
        e 0 80 3f 40
        e 16 90 3c 6e
        e 0 90 3f 6e
        e 176 80 3c 40
        e 0 80 3f 40
        e 16 90 3c 6e
        e 0 90 3f 6e
        e 0 90 42 6e
        e 176 80 3c 40
        e 0 80 3f 40
        e 0 80 42 40
        e 16 90 3b 6e
        e 0 90 3e 6e
        e 0 90 43 6e
        e 176 80 3b 40
        e 0 80 3e 40
        e 0 80 43 40
        e 16 90 3b 6e
        e 0 90 3e 6e
        e 0 90 43 6e
        e 128 80 3b 40
        e 0 80 3e 40
        e 0 80 43 40
        e 16 90 3b 6e
        e 0 90 3e 6e
        e 0 90 43 6e
        e 32 80 3b 40
        e 0 80 3e 40
        e 0 80 43 40
        e 16 90 3b 6e
        e 0 90 3e 6e
        e 0 90 43 6e
        e 176 80 3b 40
        e 0 80 3e 40
        e 0 80 43 40
        e 16 90 3c 6e
        e 0 90 40 6e
        e 128 80 3c 40
        e 0 80 40 40
        e 16 90 3c 6e
        e 0 90 40 6e
        e 32 80 3c 40
        e 0 80 40 40
        e 16 90 3c 6e
        e 0 90 40 6e
        e 128 80 3c 40
        e 0 80 40 40
        e 16 90 3b 6e
        e 0 90 3e 6e
        e 32 80 3b 40
        e 0 80 3e 40
        e 16 90 3c 6e
        e 0 90 40 6e
        e 128 80 3c 40
        e 0 80 40 40
        e 16 90 3b 6e
        e 0 90 3e 6e
        e 32 80 3b 40
        e 0 80 3e 40
        e 16 90 3c 6e
        e 0 90 40 6e
        e 128 80 3c 40
        e 0 80 40 40
        e 16 90 3b 6e
        e 0 90 3e 6e
        e 32 80 3b 40
        e 0 80 3e 40
        e 16 90 3c 6e
        e 0 90 40 6e
        e 128 80 3c 40
        e 0 80 40 40
        e 16 90 3e 6e
        e 0 90 41 6e
        e 32 80 3e 40
        e 0 80 41 40
        e 16 90 40 6e
        e 0 90 43 6e
        e 176 80 40 40
        e 0 80 43 40
        e 16 90 41 6e
        e 0 90 45 6e
        e 368 80 41 40
        e 0 80 45 40
        e 16 90 3b 6e
        e 0 90 3e 6e
        e 128 80 3b 40
        e 0 80 3e 40
        e 16 90 3b 6e
        e 0 90 3e 6e
        e 32 80 3b 40
        e 0 80 3e 40
        e 16 90 3b 6e
        e 0 90 3e 6e
        e 128 80 3b 40
        e 0 80 3e 40
        e 16 90 39 6e
        e 0 90 3c 6e
        e 32 80 39 40
        e 0 80 3c 40
        e 16 90 3b 6e
        e 0 90 3e 6e
        e 128 80 3b 40
        e 0 80 3e 40
        e 16 90 39 6e
        e 0 90 3c 6e
        e 32 80 39 40
        e 0 80 3c 40
        e 16 90 3b 6e
        e 0 90 3e 6e
        e 128 80 3b 40
        e 0 80 3e 40
        e 16 90 3c 6e
        e 0 90 40 6e
        e 32 80 3c 40
        e 0 80 40 40
        e 16 90 3e 6e
        e 0 90 41 6e
        e 128 80 3e 40
        e 0 80 41 40
        e 16 90 3f 6e
        e 0 90 42 6e
        e 32 80 3f 40
        e 0 80 42 40
        e 16 90 41 6e
        e 0 90 45 6e
        e 176 80 41 40
        e 0 80 45 40
        e 16 90 40 6e
        e 0 90 43 6e
        e 80 80 40 40
        e 0 80 43 40
        e 304 90 3c 6e
        e 0 90 41 6e
        e 0 90 45 6e
        e 176 80 3c 40
        e 0 80 41 40
        e 0 80 45 40
        e 208 90 3c 6e
        e 0 90 40 6e
        e 0 90 43 6e
        e 176 80 3c 40
        e 0 80 40 40
        e 0 80 43 40
        e 208 90 3b 6e
        e 0 90 3e 6e
        e 0 90 41 6e
        e 176 80 3b 40
        e 0 80 3e 40
        e 0 80 41 40
        e 208 90 3c 6e
        e 0 90 40 6e
        e 176 80 3c 40
        e 0 80 40 40
        e 16 90 41 6e
        e 0 90 45 6e
        e 128 80 41 40
        e 0 80 45 40
        e 16 90 43 6e
        e 0 90 47 6e
        e 32 80 43 40
        e 0 80 47 40
        e 16 90 45 6e
        e 0 90 48 6e
        e 48 80 45 40
        e 0 80 48 40
        e 16 90 43 6e
        e 0 90 47 6e
        e 48 80 43 40
        e 0 80 47 40
        e 16 90 41 6e
        e 0 90 45 6e
        e 48 80 41 40
        e 0 80 45 40
        e 16 90 40 6e
        e 0 90 43 6e
        e 128 80 40 40
        e 0 80 43 40
        e 16 90 45 6e
        e 0 90 48 6e
        e 32 80 45 40
        e 0 80 48 40
        e 16 90 45 6e
        e 0 90 48 6e
        e 48 80 45 40
        e 0 80 48 40
        e 16 90 43 6e
        e 0 90 47 6e
        e 48 80 43 40
        e 0 80 47 40
        e 16 90 41 6e
        e 0 90 45 6e
        e 48 80 41 40
        e 0 80 45 40
        e 16 90 41 6e
        e 0 90 45 6e
        e 48 80 41 40
        e 0 80 45 40
        e 16 90 40 6e
        e 0 90 43 6e
        e 48 80 40 40
        e 0 80 43 40
        e 16 90 3e 6e
        e 0 90 41 6e
        e 48 80 3e 40
        e 0 80 41 40
        e 16 90 3e 6e
        e 0 90 41 6e
        e 48 80 3e 40
        e 0 80 41 40
        e 16 90 3c 6e
        e 0 90 40 6e
        e 48 80 3c 40
        e 0 80 40 40
        e 16 90 37 6e
        e 0 90 3b 6e
        e 48 80 37 40
        e 0 80 3b 40
        e 16 90 34 6e
        e 0 90 3c 6e
        e 80 80 34 40
        e 0 80 3c 40
        e 16 90 40 6e
        e 32 80 40 40
        e 16 90 40 6e
        e 32 80 40 40
        e 16 90 40 6e
        e 80 80 40 40
        e 16 90 40 6e
        e 32 80 40 40
        e 64 90 40 6e
        e 80 80 40 40
        e 16 90 40 6e
        e 32 80 40 40
        e 64 90 40 6e
        e 80 80 40 40
        e 16 90 40 6e
        e 32 80 40 40
        e 64 90 47 6e
        e 0 90 4c 6e
        e 32 80 47 40
        e 0 80 4c 40
        e 16 90 50 6e
        e 32 80 50 40
        e 16 90 47 6e
        e 0 90 4c 6e
        e 32 80 47 40
        e 0 80 4c 40
        e 16 90 50 6e
        e 32 80 50 40
        e 16 90 47 6e
        e 0 90 4c 6e
        e 32 80 47 40
        e 0 80 4c 40
        e 16 90 50 6e
        e 32 80 50 40
        e 16 90 47 6e
        e 0 90 4c 6e
        e 32 80 47 40
        e 0 80 4c 40
        e 16 90 50 6e
        e 32 80 50 40
        e 16 90 47 6e
        e 0 90 4c 6e
        e 32 80 47 40
        e 0 80 4c 40
        e 16 90 50 6e
        e 32 80 50 40
        e 16 90 47 6e
        e 0 90 4c 6e
        e 32 80 47 40
        e 0 80 4c 40
        e 16 90 50 6e
        e 32 80 50 40
        e 16 90 48 6e
        e 0 90 4c 6e
        e 32 80 48 40
        e 0 80 4c 40
        e 16 90 51 6e
        e 32 80 51 40
        e 16 90 48 6e
        e 0 90 4c 6e
        e 32 80 48 40
        e 0 80 4c 40
        e 16 90 51 6e
        e 32 80 51 40
        e 16 90 4a 6e
        e 0 90 4c 6e
        e 32 80 4a 40
        e 0 80 4c 40
        e 16 90 53 6e
        e 32 80 53 40
        e 16 90 4a 6e
        e 0 90 4c 6e
        e 32 80 4a 40
        e 0 80 4c 40
        e 16 90 53 6e
        e 32 80 53 40
        e 16 90 4a 6e
        e 0 90 4c 6e
        e 32 80 4a 40
        e 0 80 4c 40
        e 16 90 53 6e
        e 32 80 53 40
        e 16 90 4a 6e
        e 0 90 4c 6e
        e 32 80 4a 40
        e 0 80 4c 40
        e 16 90 53 6e
        e 32 80 53 40
        e 16 90 4a 6e
        e 0 90 4c 6e
        e 32 80 4a 40
        e 0 80 4c 40
        e 16 90 53 6e
        e 32 80 53 40
        e 16 90 4a 6e
        e 0 90 4c 6e
        e 32 80 4a 40
        e 0 80 4c 40
        e 16 90 53 6e
        e 32 80 53 40
        e 16 90 47 6e
        e 0 90 4c 6e
        e 32 80 47 40
        e 0 80 4c 40
        e 16 90 50 6e
        e 32 80 50 40
        e 16 90 47 6e
        e 0 90 4c 6e
        e 32 80 47 40
        e 0 80 4c 40
        e 16 90 50 6e
        e 32 80 50 40
        e 16 90 48 6e
        e 0 90 4c 6e
        e 32 80 48 40
        e 0 80 4c 40
        e 16 90 51 6e
        e 32 80 51 40
        e 16 90 48 6e
        e 0 90 4c 6e
        e 32 80 48 40
        e 0 80 4c 40
        e 16 90 51 6e
        e 32 80 51 40
        e 16 90 48 6e
        e 0 90 4c 6e
        e 32 80 48 40
        e 0 80 4c 40
        e 16 90 51 6e
        e 32 80 51 40
        e 16 90 48 6e
        e 0 90 4c 6e
        e 32 80 48 40
        e 0 80 4c 40
        e 16 90 51 6e
        e 32 80 51 40
        e 16 90 48 6e
        e 0 90 51 6e
        e 128 80 48 40
        e 0 80 51 40
        e 16 90 47 6e
        e 0 90 50 6e
        e 32 80 47 40
        e 0 80 50 40
        e 16 90 48 6e
        e 0 90 51 6e
        e 128 80 48 40
        e 0 80 51 40
        e 16 90 4a 6e
        e 0 90 53 6e
        e 32 80 4a 40
        e 0 80 53 40
        e 16 90 47 6e
        e 0 90 50 6e
        e 96 90 40 6e
        e 0 90 4c 6e
        e 32 80 47 40
        e 0 80 50 40
        e 0 80 40 40
        e 0 80 4c 40
        e 16 90 40 6e
        e 0 90 4c 6e
        e 32 80 40 40
        e 0 80 4c 40
        e 16 90 40 6e
        e 0 90 4c 6e
        e 80 80 40 40
        e 0 80 4c 40
        e 16 90 40 6e
        e 0 90 4c 6e
        e 80 80 40 40
        e 0 80 4c 40
        e 16 90 40 6e
        e 0 90 4c 6e
        e 80 80 40 40
        e 0 80 4c 40
        e 16 90 40 6e
        e 0 90 4c 6e
        e 32 80 40 40
        e 0 80 4c 40
        e 16 90 40 6e
        e 0 90 4c 6e
        e 32 80 40 40
        e 0 80 4c 40
        e 16 90 40 6e
        e 0 90 4c 6e
        e 80 80 40 40
        e 0 80 4c 40
        e 16 90 40 6e
        e 0 90 4c 6e
        e 80 80 40 40
        e 0 80 4c 40
        e 16 90 47 6e
        e 32 80 47 40
        e 16 90 4c 6e
        e 32 80 4c 40
        e 16 90 50 6e
        e 32 80 50 40
        e 16 90 4c 6e
        e 32 80 4c 40
        e 16 90 47 6e
        e 32 80 47 40
        e 16 90 4c 6e
        e 32 80 4c 40
        e 16 90 50 6e
        e 32 80 50 40
        e 16 90 4c 6e
        e 32 80 4c 40
        e 16 90 47 6e
        e 32 80 47 40
        e 16 90 4c 6e
        e 32 80 4c 40
        e 16 90 50 6e
        e 32 80 50 40
        e 16 90 4c 6e
        e 32 80 4c 40
        e 16 90 48 6e
        e 32 80 48 40
        e 16 90 4c 6e
        e 32 80 4c 40
        e 16 90 51 6e
        e 32 80 51 40
        e 16 90 4c 6e
        e 32 80 4c 40
        e 16 90 4a 6e
        e 32 80 4a 40
        e 16 90 4c 6e
        e 32 80 4c 40
        e 16 90 53 6e
        e 32 80 53 40
        e 16 90 4c 6e
        e 32 80 4c 40
        e 16 90 4a 6e
        e 32 80 4a 40
        e 16 90 4c 6e
        e 32 80 4c 40
        e 16 90 53 6e
        e 32 80 53 40
        e 16 90 4c 6e
        e 32 80 4c 40
        e 16 90 4a 6e
        e 32 80 4a 40
        e 16 90 4c 6e
        e 32 80 4c 40
        e 16 90 53 6e
        e 32 80 53 40
        e 16 90 4c 6e
        e 32 80 4c 40
        e 16 90 47 6e
        e 32 80 47 40
        e 16 90 4c 6e
        e 32 80 4c 40
        e 16 90 50 6e
        e 32 80 50 40
        e 16 90 4c 6e
        e 32 80 4c 40
        e 16 90 48 6e
        e 32 80 48 40
        e 16 90 4c 6e
        e 32 80 4c 40
        e 16 90 51 6e
        e 32 80 51 40
        e 16 90 4c 6e
        e 32 80 4c 40
        e 16 90 48 6e
        e 32 80 48 40
        e 16 90 4c 6e
        e 32 80 4c 40
        e 16 90 51 6e
        e 32 80 51 40
        e 16 90 4c 6e
        e 32 80 4c 40
        e 16 90 48 6e
        e 32 80 48 40
        e 16 90 4b 6e
        e 32 80 4b 40
        e 16 90 51 6e
        e 32 80 51 40
        e 16 90 4b 6e
        e 32 80 4b 40
        e 16 90 48 6e
        e 32 80 48 40
        e 16 90 4b 6e
        e 32 80 4b 40
        e 16 90 51 6e
        e 32 80 51 40
        e 16 90 4b 6e
        e 32 80 4b 40
        e 16 90 47 6e
        e 0 90 4c 6e
        e 0 90 50 6e
        e 80 80 47 40
        e 0 80 4c 40
        e 0 80 50 40
        e 16 90 40 6e
        e 0 90 44 6e
        e 0 90 47 6e
        e 0 90 4c 6e
        e 32 80 40 40
        e 0 80 44 40
        e 0 80 47 40
        e 0 80 4c 40
        e 16 90 40 6e
        e 0 90 44 6e
        e 0 90 47 6e
        e 0 90 4c 6e
        e 32 80 40 40
        e 0 80 44 40
        e 0 80 47 40
        e 0 80 4c 40
        e 16 90 40 6e
        e 0 90 44 6e
        e 0 90 47 6e
        e 0 90 4c 6e
        e 80 80 40 40
        e 0 80 44 40
        e 0 80 47 40
        e 0 80 4c 40
        e 16 90 40 6e
        e 0 90 44 6e
        e 0 90 47 6e
        e 0 90 4c 6e
        e 80 80 40 40
        e 0 80 44 40
        e 0 80 47 40
        e 0 80 4c 40
        e 16 90 40 6e
        e 0 90 44 6e
        e 0 90 47 6e
        e 0 90 4c 6e
        e 176 80 40 40
        e 0 80 44 40
        e 0 80 47 40
        e 0 80 4c 40
        e 16 90 3c 6e
        e 0 90 40 6e
        e 128 80 3c 40
        e 0 80 40 40
        e 16 90 3e 6e
        e 0 90 41 6e
        e 32 80 3e 40
        e 0 80 41 40
        e 16 90 40 6e
        e 0 90 43 6e
        e 80 80 40 40
        e 0 80 43 40
        e 16 90 40 6e
        e 0 90 43 6e
        e 32 80 40 40
        e 0 80 43 40
        e 16 90 40 6e
        e 0 90 43 6e
        e 32 80 40 40
        e 0 80 43 40
        e 16 90 40 6e
        e 0 90 43 6e
        e 128 80 40 40
        e 0 80 43 40
        e 16 90 41 6e
        e 0 90 45 6e
        e 32 80 41 40
        e 0 80 45 40
        e 16 90 43 6e
        e 0 90 46 6e
        e 80 80 43 40
        e 0 80 46 40
        e 16 90 43 6e
        e 0 90 46 6e
        e 32 80 43 40
        e 0 80 46 40
        e 16 90 43 6e
        e 0 90 46 6e
        e 32 80 43 40
        e 0 80 46 40
        e 16 90 43 6e
        e 0 90 46 6e
        e 128 80 43 40
        e 0 80 46 40
        e 16 90 43 6e
        e 0 90 46 6e
        e 32 80 43 40
        e 0 80 46 40
        e 16 90 43 6e
        e 0 90 46 6e
        e 80 80 43 40
        e 0 80 46 40
        e 16 90 43 6e
        e 0 90 46 6e
        e 32 80 43 40
        e 0 80 46 40
        e 16 90 43 6e
        e 0 90 46 6e
        e 32 80 43 40
        e 0 80 46 40
        e 16 90 41 6e
        e 0 90 45 6e
        e 80 80 41 40
        e 0 80 45 40
        e 16 90 41 6e
        e 0 90 45 6e
        e 80 80 41 40
        e 0 80 45 40
        e 16 90 41 6e
        e 0 90 45 6e
        e 176 80 41 40
        e 0 80 45 40
        e 16 90 3e 6e
        e 0 90 42 6e
        e 128 80 3e 40
        e 0 80 42 40
        e 16 90 40 6e
        e 0 90 43 6e
        e 32 80 40 40
        e 0 80 43 40
        e 16 90 42 6e
        e 0 90 45 6e
        e 80 80 42 40
        e 0 80 45 40
        e 16 90 42 6e
        e 0 90 45 6e
        e 32 80 42 40
        e 0 80 45 40
        e 16 90 42 6e
        e 0 90 45 6e
        e 32 80 42 40
        e 0 80 45 40
        e 16 90 42 6e
        e 0 90 45 6e
        e 128 80 42 40
        e 0 80 45 40
        e 16 90 43 6e
        e 0 90 47 6e
        e 32 80 43 40
        e 0 80 47 40
        e 16 90 45 6e
        e 0 90 48 6e
        e 80 80 45 40
        e 0 80 48 40
        e 16 90 45 6e
        e 0 90 48 6e
        e 32 80 45 40
        e 0 80 48 40
        e 16 90 45 6e
        e 0 90 48 6e
        e 32 80 45 40
        e 0 80 48 40
        e 16 90 45 6e
        e 0 90 48 6e
        e 128 80 45 40
        e 0 80 48 40
        e 16 90 45 6e
        e 0 90 48 6e
        e 32 80 45 40
        e 0 80 48 40
        e 16 90 43 6e
        e 0 90 47 6e
        e 80 80 43 40
        e 0 80 47 40
        e 16 90 43 6e
        e 0 90 47 6e
        e 32 80 43 40
        e 0 80 47 40
        e 16 90 43 6e
        e 0 90 47 6e
        e 32 80 43 40
        e 0 80 47 40
        e 16 90 43 6e
        e 0 90 47 6e
        e 80 80 43 40
        e 0 80 47 40
        e 16 90 43 6e
        e 0 90 47 6e
        e 80 80 43 40
        e 0 80 47 40
        e 16 90 43 6e
        e 0 90 47 6e
        e 176 80 43 40
        e 0 80 47 40
        e 16 90 47 6e
        e 0 90 4f 6e
        e 0 90 53 6e
        e 128 80 47 40
        e 0 80 4f 40
        e 0 80 53 40
        e 16 90 47 6e
        e 0 90 4f 6e
        e 0 90 53 6e
        e 32 80 47 40
        e 0 80 4f 40
        e 0 80 53 40
        e 16 90 47 6e
        e 0 90 4f 6e
        e 0 90 53 6e
        e 128 80 47 40
        e 0 80 4f 40
        e 0 80 53 40
        e 16 90 45 6e
        e 0 90 4d 6e
        e 0 90 51 6e
        e 32 80 45 40
        e 0 80 4d 40
        e 0 80 51 40
        e 16 90 47 6e
        e 0 90 4f 6e
        e 0 90 53 6e
        e 128 80 47 40
        e 0 80 4f 40
        e 0 80 53 40
        e 16 90 45 6e
        e 0 90 4d 6e
        e 0 90 51 6e
        e 32 80 45 40
        e 0 80 4d 40
        e 0 80 51 40
        e 16 90 45 6e
        e 0 90 4d 6e
        e 0 90 51 6e
        e 128 80 45 40
        e 0 80 4d 40
        e 0 80 51 40
        e 16 90 43 6e
        e 0 90 4c 6e
        e 0 90 4f 6e
        e 32 80 43 40
        e 0 80 4c 40
        e 0 80 4f 40
        e 16 90 45 6e
        e 0 90 4d 6e
        e 0 90 51 6e
        e 128 80 45 40
        e 0 80 4d 40
        e 0 80 51 40
        e 16 90 43 6e
        e 0 90 4c 6e
        e 0 90 4f 6e
        e 32 80 43 40
        e 0 80 4c 40
        e 0 80 4f 40
        e 16 90 45 6e
        e 0 90 4d 6e
        e 0 90 51 6e
        e 272 80 45 40
        e 0 80 4d 40
        e 0 80 51 40
        e 16 90 43 6e
        e 0 90 4c 6e
        e 0 90 4f 6e
        e 80 80 43 40
        e 0 80 4c 40
        e 0 80 4f 40
        e 16 90 40 6e
        e 0 90 48 6e
        e 0 90 4c 6e
        e 176 80 40 40
        e 0 80 48 40
        e 0 80 4c 40
        e 16 90 48 6e
        e 0 90 54 6e
        e 128 80 48 40
        e 0 80 54 40
        e 16 90 47 6e
        e 0 90 4f 6e
        e 0 90 53 6e
        e 32 80 47 40
        e 0 80 4f 40
        e 0 80 53 40
        e 16 90 47 6e
        e 0 90 4f 6e
        e 0 90 53 6e
        e 128 80 47 40
        e 0 80 4f 40
        e 0 80 53 40
        e 16 90 45 6e
        e 0 90 4d 6e
        e 0 90 51 6e
        e 32 80 45 40
        e 0 80 4d 40
        e 0 80 51 40
        e 16 90 47 6e
        e 0 90 4f 6e
        e 0 90 53 6e
        e 128 80 47 40
        e 0 80 4f 40
        e 0 80 53 40
        e 16 90 45 6e
        e 0 90 4d 6e
        e 0 90 51 6e
        e 32 80 45 40
        e 0 80 4d 40
        e 0 80 51 40
        e 16 90 45 6e
        e 0 90 4d 6e
        e 0 90 51 6e
        e 128 80 45 40
        e 0 80 4d 40
        e 0 80 51 40
        e 16 90 43 6e
        e 0 90 4c 6e
        e 0 90 4f 6e
        e 32 80 43 40
        e 0 80 4c 40
        e 0 80 4f 40
        e 16 90 45 6e
        e 0 90 4d 6e
        e 0 90 51 6e
        e 128 80 45 40
        e 0 80 4d 40
        e 0 80 51 40
        e 16 90 43 6e
        e 0 90 4c 6e
        e 0 90 4f 6e
        e 32 80 43 40
        e 0 80 4c 40
        e 0 80 4f 40
        e 16 90 40 6e
        e 0 90 48 6e
        e 0 90 4c 6e
        e 80 80 40 40
        e 0 80 48 40
        e 0 80 4c 40
        e 16 90 3c 6e
        e 0 90 48 6e
        e 32 80 3c 40
        e 0 80 48 40
        e 16 90 3c 6e
        e 0 90 48 6e
        e 32 80 3c 40
        e 0 80 48 40
        e 16 90 3c 6e
        e 0 90 48 6e
        e 80 80 3c 40
        e 0 80 48 40
        e 16 90 3e 6e
        e 0 90 4a 6e
        e 80 80 3e 40
        e 0 80 4a 40
        e 16 90 40 6e
        e 0 90 4c 6e
        e 80 80 40 40
        e 0 80 4c 40
        e 16 90 41 6e
        e 0 90 4d 6e
        e 80 80 41 40
        e 0 80 4d 40
        e 16 90 43 6e
        e 0 90 4f 6e
        e 80 80 43 40
        e 0 80 4f 40
        e 16 90 45 6e
        e 0 90 51 6e
        e 80 80 45 40
        e 0 80 51 40
        e 16 90 46 6e
        e 0 90 52 6e
        e 80 80 46 40
        e 0 80 52 40
        e 16 90 40 6e
        e 0 90 43 6e
        e 0 90 49 6e
        e 32 80 40 40
        e 0 80 43 40
        e 0 80 49 40
        e 16 90 40 6e
        e 0 90 43 6e
        e 0 90 49 6e
        e 32 80 40 40
        e 0 80 43 40
        e 0 80 49 40
        e 16 90 40 6e
        e 0 90 43 6e
        e 0 90 49 6e
        e 128 80 40 40
        e 0 80 43 40
        e 0 80 49 40
        e 16 90 40 6e
        e 0 90 43 6e
        e 0 90 49 6e
        e 32 80 40 40
        e 0 80 43 40
        e 0 80 49 40
        e 16 90 41 6e
        e 0 90 45 6e
        e 0 90 4a 6e
        e 176 80 41 40
        e 0 80 45 40
        e 0 80 4a 40
        e 16 90 40 6e
        e 0 90 43 6e
        e 0 90 45 6e
        e 0 90 49 6e
        e 176 80 40 40
        e 0 80 43 40
        e 0 80 45 40
        e 0 80 49 40
        e 16 90 3e 6e
        e 0 90 45 6e
        e 0 90 4a 6e
        e 176 80 3e 40
        e 0 80 45 40
        e 0 80 4a 40
        e 16 90 3e 6e
        e 0 90 45 6e
        e 0 90 4a 6e
        e 176 80 3e 40
        e 0 80 45 40
        e 0 80 4a 40
        e 208 90 48 6e
        e 0 90 4b 6e
        e 0 90 51 6e
        e 128 80 48 40
        e 0 80 4b 40
        e 0 80 51 40
        e 16 90 48 6e
        e 0 90 4b 6e
        e 0 90 51 6e
        e 32 80 48 40
        e 0 80 4b 40
        e 0 80 51 40
        e 16 90 48 6e
        e 0 90 4c 6e
        e 0 90 4f 6e
        e 176 80 48 40
        e 0 80 4c 40
        e 0 80 4f 40
        e 16 90 43 6e
        e 0 90 48 6e
        e 0 90 4c 6e
        e 128 80 43 40
        e 0 80 48 40
        e 0 80 4c 40
        e 16 90 43 6e
        e 0 90 48 6e
        e 0 90 4c 6e
        e 32 80 43 40
        e 0 80 48 40
        e 0 80 4c 40
        e 16 90 43 6e
        e 0 90 4a 6e
        e 0 90 4d 6e
        e 176 80 43 40
        e 0 80 4a 40
        e 0 80 4d 40
        e 16 90 43 6e
        e 0 90 47 6e
        e 0 90 4a 6e
        e 128 80 43 40
        e 0 80 47 40
        e 0 80 4a 40
        e 16 90 43 6e
        e 0 90 47 6e
        e 0 90 4a 6e
        e 32 80 43 40
        e 0 80 47 40
        e 0 80 4a 40
        e 16 90 43 6e
        e 0 90 48 6e
        e 0 90 4c 6e
        e 176 80 43 40
        e 0 80 48 40
        e 0 80 4c 40
        e 16 90 34 6e
        e 48 80 34 40
        e 16 90 35 6e
        e 48 80 35 40
        e 16 90 37 6e
        e 48 80 37 40
        e 16 90 39 6e
        e 48 80 39 40
        e 16 90 3b 6e
        e 48 80 3b 40
        e 16 90 3c 6e
        e 48 80 3c 40
        e 16 90 3e 6e
        e 48 80 3e 40
        e 16 90 40 6e
        e 48 80 40 40
        e 16 90 41 6e
        e 48 80 41 40
        e 16 90 43 6e
        e 80 80 43 40
        e 16 90 48 6e
        e 0 90 4c 6e
        e 0 90 4d 6e
        e 0 90 4f 6e
        e 0 90 54 6e
        e 32 80 48 40
        e 0 80 4c 40
        e 0 80 4d 40
        e 0 80 4f 40
        e 0 80 54 40
        e 16 90 48 6e
        e 0 90 4c 6e
        e 0 90 4f 6e
        e 0 90 54 6e
        e 32 80 48 40
        e 0 80 4c 40
        e 0 80 4f 40
        e 0 80 54 40
        e 16 90 48 6e
        e 0 90 4c 6e
        e 0 90 4f 6e
        e 0 90 54 6e
        e 80 80 48 40
        e 0 80 4c 40
        e 0 80 4f 40
        e 0 80 54 40
        e 16 90 48 6e
        e 0 90 4c 6e
        e 0 90 4f 6e
        e 0 90 54 6e
        e 80 80 48 40
        e 0 80 4c 40
        e 0 80 4f 40
        e 0 80 54 40
        e 16 90 4a 6e
        e 0 90 4d 6e
        e 0 90 4f 6e
        e 0 90 53 6e
        e 80 80 4a 40
        e 0 80 4d 40
        e 0 80 4f 40
        e 0 80 53 40
        e 16 90 4a 6e
        e 0 90 4d 6e
        e 0 90 4f 6e
        e 0 90 53 6e
        e 32 80 4a 40
        e 0 80 4d 40
        e 0 80 4f 40
        e 0 80 53 40
        e 16 90 4a 6e
        e 0 90 4d 6e
        e 0 90 4f 6e
        e 0 90 53 6e
        e 32 80 4a 40
        e 0 80 4d 40
        e 0 80 4f 40
        e 0 80 53 40
        e 16 90 4a 6e
        e 0 90 4d 6e
        e 0 90 4f 6e
        e 0 90 53 6e
        e 80 80 4a 40
        e 0 80 4d 40
        e 0 80 4f 40
        e 0 80 53 40
        e 16 90 4a 6e
        e 0 90 4d 6e
        e 0 90 4f 6e
        e 0 90 53 6e
        e 80 80 4a 40
        e 0 80 4d 40
        e 0 80 4f 40
        e 0 80 53 40
        e 16 90 48 6e
        e 0 90 4c 6e
        e 0 90 54 6e
        e 176 80 48 40
        e 0 80 4c 40
        e 0 80 54 40
        e 16 90 34 6e
        e 48 80 34 40
        e 16 90 35 6e
        e 48 80 35 40
        e 16 90 37 6e
        e 48 80 37 40
        e 16 90 39 6e
        e 48 80 39 40
        e 16 90 3b 6e
        e 48 80 3b 40
        e 16 90 3c 6e
        e 48 80 3c 40
        e 16 90 3e 6e
        e 48 80 3e 40
        e 16 90 40 6e
        e 48 80 40 40
        e 16 90 41 6e
        e 48 80 41 40
        e 16 90 43 6e
        e 80 80 43 40
        e 16 90 48 6e
        e 0 90 4c 6e
        e 0 90 54 6e
        e 32 80 48 40
        e 0 80 4c 40
        e 0 80 54 40
        e 16 90 48 6e
        e 0 90 4c 6e
        e 0 90 4f 6e
        e 0 90 54 6e
        e 32 80 48 40
        e 0 80 4c 40
        e 0 80 4f 40
        e 0 80 54 40
        e 16 90 48 6e
        e 0 90 4c 6e
        e 0 90 4f 6e
        e 0 90 54 6e
        e 80 80 48 40
        e 0 80 4c 40
        e 0 80 4f 40
        e 0 80 54 40
        e 16 90 48 6e
        e 0 90 4c 6e
        e 0 90 4f 6e
        e 0 90 54 6e
        e 80 80 48 40
        e 0 80 4c 40
        e 0 80 4f 40
        e 0 80 54 40
        e 16 90 4a 6e
        e 0 90 4d 6e
        e 0 90 4f 6e
        e 0 90 53 6e
        e 80 80 4a 40
        e 0 80 4d 40
        e 0 80 4f 40
        e 0 80 53 40
        e 16 90 4a 6e
        e 0 90 4d 6e
        e 0 90 4f 6e
        e 0 90 53 6e
        e 32 80 4a 40
        e 0 80 4d 40
        e 0 80 4f 40
        e 0 80 53 40
        e 16 90 4a 6e
        e 0 90 4d 6e
        e 0 90 4f 6e
        e 0 90 53 6e
        e 32 80 4a 40
        e 0 80 4d 40
        e 0 80 4f 40
        e 0 80 53 40
        e 16 90 4a 6e
        e 0 90 4d 6e
        e 0 90 4f 6e
        e 0 90 53 6e
        e 80 80 4a 40
        e 0 80 4d 40
        e 0 80 4f 40
        e 0 80 53 40
        e 16 90 4a 6e
        e 0 90 4d 6e
        e 0 90 4f 6e
        e 0 90 53 6e
        e 80 80 4a 40
        e 0 80 4d 40
        e 0 80 4f 40
        e 0 80 53 40
        e 16 90 48 6e
        e 0 90 4c 6e
        e 0 90 4f 6e
        e 0 90 54 6e
        e 176 80 48 40
        e 0 80 4c 40
        e 0 80 4f 40
        e 0 80 54 40
        e 16 90 48 6e
        e 48 80 48 40
        e 16 90 43 6e
        e 48 80 43 40
        e 16 90 4c 6e
        e 48 80 4c 40
        e 16 90 48 6e
        e 48 80 48 40
        e 16 90 43 6e
        e 48 80 43 40
        e 16 90 4c 6e
        e 48 80 4c 40
        e 16 90 48 6e
        e 48 80 48 40
        e 16 90 43 6e
        e 48 80 43 40
        e 16 90 4c 6e
        e 48 80 4c 40
        e 16 90 48 6e
        e 48 80 48 40
        e 16 90 54 6e
        e 48 80 54 40
        e 16 90 53 6e
        e 48 80 53 40
        e 16 90 54 6e
        e 48 80 54 40
        e 16 90 4f 6e
        e 48 80 4f 40
        e 16 90 4c 6e
        e 48 80 4c 40
        e 16 90 48 6e
        e 48 80 48 40
        e 16 90 48 6e
        e 48 80 48 40
        e 16 90 47 6e
        e 48 80 47 40
        e 16 90 48 6e
        e 48 80 48 40
        e 16 90 43 6e
        e 48 80 43 40
        e 16 90 40 6e
        e 48 80 40 40
        e 16 90 3c 6e
        e 176 80 3c 40
        e 16 90 40 6e
        e 0 90 43 6e
        e 0 90 48 6e
        e 128 80 40 40
        e 0 80 43 40
        e 0 80 48 40
        e 16 90 40 6e
        e 0 90 43 6e
        e 0 90 48 6e
        e 32 80 40 40
        e 0 80 43 40
        e 0 80 48 40
        e 16 90 40 6e
        e 0 90 43 6e
        e 0 90 48 6e
        e 176 80 40 40
        e 0 80 43 40
        e 0 80 48 40
        E 16 b0 7b 00
        GUID {4AF28801-66B9-ED48-A373-73558CFBFB37}
        IGNTEMPO 0 120 4 4
        SRCCOLOR 912
        VELLANE -1 86 6
        CFGEDITVIEW 0 0 50 24 0 0 0 0 0 0.5
        KEYSNAP 0
        TRACKSEL 226 0 0 ""
        EVTFILTER 0 -1 -1 -1 -1 0 1 0 0 -1 -1 -1 -1 0 -1 0 -1 -1
        CFGEDIT 1 0 0 0 0 0 1 0 1 1 1 0.25 16 63 1280 778 0 0 2 3 0 0 0 0 0 0.5 0 0 1 64
      >
    >
    <ITEM
      POSITION 0
      SNAPOFFS 0
      LENGTH 96
      LOOP 1
      ALLTAKES 0
      FADEIN 1 0 0 1 0 0
      FADEOUT 1 0 0 1 0 0
      MUTE 0
      SEL 0
      YPOS 0.317176 0.05
      IGUID {7EE855FE-E6C6-1242-8A8D-12559A47CDEC}
      IID 14
      NAME "Bass                 - National_Anthems_-_Chile.mid"
      VOLPAN 1 0 1 -1
      SOFFS 21.5 43
      PLAYRATE 1 1 0 -1 0 0.0025
      CHANMODE 0
      TAKECOLOR 26173599 B
      GUID {EAAE59A9-EBF5-6543-9C61-2041D18BFCE5}
      <SOURCE MIDI
        HASDATA 1 192 QN
        POOLEDEVTS {5A824F9B-7A30-FE40-9F58-EAB969537F27}
        <X 0 0
          /wNCYXNzICAgICAgICAgICAgICAgIA==
        >
        e 2299 90 2b 7f
        e 142 80 2b 40
        e 48 90 2b 7f
        e 143 80 2b 40
        e 56 90 2b 7f
        e 91 90 2c 7f
        e 3 80 2b 40
        e 43 80 2c 40
        e 56 90 2d 7f
        e 95 80 2d 40
        e 0 90 2f 7f
        e 46 80 2f 40
        e 53 90 30 7f
        e 94 80 30 40
        e 103 90 2b 7f
        e 94 80 2b 40
        e 90 90 24 7f
        e 94 80 24 40
        e 1829 90 2c 7f
        e 128 80 2c 40
        e 61 90 2c 7f
        e 128 80 2c 40
        e 67 90 2c 7f
        e 128 80 2c 40
        e 61 90 2c 7f
        e 128 80 2c 40
        e 62 90 2b 7f
        e 128 80 2b 40
        e 67 90 2b 7f
        e 129 80 2b 40
        e 81 90 2b 7f
        e 128 80 2b 40
        e 46 90 2b 7f
        e 129 80 2b 40
        e 68 90 24 7f
        e 128 80 24 40
        e 632 90 24 7f
        e 128 80 24 40
        e 67 90 24 7f
        e 81 80 24 40
        e 66 90 24 7f
        e 33 80 24 40
        e 14 90 24 7f
        e 80 80 24 40
        e 301 90 24 7f
        e 128 80 24 40
        e 252 90 24 7f
        e 129 80 24 40
        e 259 90 24 7f
        e 80 80 24 40
        e 305 90 24 7f
        e 129 80 24 40
        e 257 90 2b 7f
        e 128 80 2b 40
        e 245 90 2b 7f
        e 128 80 2b 40
        e 262 90 2b 7f
        e 128 80 2b 40
        e 262 90 2b 7f
        e 81 80 2b 40
        e 299 90 24 7f
        e 128 80 24 40
        e 257 90 24 7f
        e 129 80 24 40
        e 257 90 24 7f
        e 128 80 24 40
        e 256 90 24 7f
        e 128 80 24 40
        e 259 90 26 7f
        e 128 80 26 40
        e 253 90 26 7f
        e 128 80 26 40
        e 259 90 2b 7f
        e 128 80 2b 40
        e 50 90 2b 7f
        e 80 80 2b 40
        e 76 90 2b 7f
        e 33 80 2b 40
        e 14 90 2b 7f
        e 80 80 2b 40
        e 297 90 27 7f
        e 273 80 27 40
        e 111 90 2b 7f
        e 177 80 2b 40
        e 212 90 2e 7f
        e 177 80 2e 40
        e 207 90 2e 7f
        e 129 80 2e 40
        e 252 90 2e 7f
        e 128 80 2e 40
        e 254 90 2e 7f
        e 129 80 2e 40
        e 260 90 27 7f
        e 129 80 27 40
        e 250 90 27 7f
        e 129 80 27 40
        e 255 90 2c 7f
        e 129 80 2c 40
        e 252 90 2c 7f
        e 177 80 2c 40
        e 210 90 2b 7f
        e 129 80 2b 40
        e 60 90 2b 7f
        e 129 80 2b 40
        e 25 90 2b 7f
        e 27 80 2b 40
        e 14 90 2b 7f
        e 81 80 2b 40
        e 302 90 24 7f
        e 80 80 24 40
        e 125 90 24 7f
        e 80 80 24 40
        e 102 90 24 7f
        e 80 80 24 40
        e 114 90 24 7f
        e 80 80 24 40
        e 110 90 24 7f
        e 80 80 24 40
        e 112 90 29 7f
        e 128 80 29 40
        e 446 90 2b 7f
        e 81 80 2b 40
        e 116 90 2b 7f
        e 81 80 2b 40
        e 110 90 2b 7f
        e 80 80 2b 40
        e 112 90 2b 7f
        e 128 80 2b 40
        e 59 90 24 7f
        e 80 80 24 40
        e 115 90 24 7f
        e 80 80 24 40
        e 112 90 29 7f
        e 128 80 29 40
        e 254 90 2b 7f
        e 129 80 2b 40
        e 265 90 2b 7f
        e 128 80 2b 40
        e 242 90 24 7f
        e 128 80 24 40
        e 262 90 29 7f
        e 128 80 29 40
        e 1024 90 24 7f
        e 128 80 24 40
        e 651 90 28 7f
        e 177 80 28 40
        e 199 90 28 7f
        e 177 80 28 40
        e 206 90 28 7f
        e 128 80 28 40
        e 254 90 28 7f
        e 176 80 28 40
        e 210 90 28 7f
        e 306 80 28 40
        e 78 90 28 7f
        e 294 80 28 40
        e 859 90 28 7f
        e 177 80 28 40
        e 199 90 28 7f
        e 129 80 28 40
        e 257 90 28 7f
        e 128 80 28 40
        e 257 90 28 7f
        e 129 80 28 40
        e 259 90 28 7f
        e 278 80 28 40
        e 106 90 28 7f
        e 307 80 28 40
        e 78 90 28 7f
        e 177 80 28 40
        e 114 90 28 7f
        e 33 80 28 40
        e 57 90 28 7f
        e 128 80 28 40
        e 254 90 24 7f
        e 129 80 24 40
        e 255 90 24 7f
        e 129 80 24 40
        e 257 90 29 7f
        e 128 80 29 40
        e 259 90 29 7f
        e 81 80 29 40
        e 297 90 26 7f
        e 128 80 26 40
        e 251 90 26 7f
        e 128 80 26 40
        e 262 90 2b 7f
        e 129 80 2b 40
        e 260 90 2b 7f
        e 81 80 2b 40
        e 303 90 2b 7f
        e 129 80 2b 40
        e 249 90 2b 7f
        e 128 80 2b 40
        e 253 90 24 7f
        e 128 80 24 40
        e 264 90 24 7f
        e 128 80 24 40
        e 252 90 2b 7f
        e 129 80 2b 40
        e 257 90 2b 7f
        e 128 80 2b 40
        e 251 90 24 7f
        e 129 80 24 40
        e 647 90 2e 7f
        e 129 80 2e 40
        e 247 90 2d 7f
        e 177 80 2d 40
        e 22 90 2b 7f
        e 176 80 2b 40
        e 14 90 29 7f
        e 128 80 29 40
        e 72 90 29 7f
        e 80 80 29 40
        e 493 90 2b 7f
        e 128 80 2b 40
        e 61 90 2b 7f
        e 80 80 2b 40
        e 57 90 2b 7f
        e 33 80 2b 40
        e 17 90 2b 7f
        e 80 80 2b 40
        e 125 90 2b 7f
        e 80 80 2b 40
        e 52 90 2b 7f
        e 33 80 2b 40
        e 14 90 24 7f
        e 128 80 24 40
        e 640 90 2b 7f
        e 128 80 2b 40
        e 256 90 2b 7f
        e 128 80 2b 40
        e 256 90 24 7f
        e 80 80 24 40
        e 685 90 2b 7f
        e 128 80 2b 40
        e 259 90 2b 7f
        e 128 80 2b 40
        e 259 90 24 7f
        e 128 80 24 40
        e 1413 90 24 7f
        e 80 80 24 40
        e 107 90 24 7f
        e 80 80 24 40
        e 69 90 24 7f
        e 32 80 24 40
        e 16 90 24 7f
        e 80 80 24 40
        E 109 b0 7b 00
        GUID {8E80C119-80C9-3141-9CCC-3016900289DB}
        IGNTEMPO 0 120 4 4
        SRCCOLOR 723
        VELLANE -1 86 6
        CFGEDITVIEW 9405.117109 291.437819 50 24 0 0 0 0 0 0.5
        KEYSNAP 0
        TRACKSEL 226 0 0 ""
        EVTFILTER 0 -1 -1 -1 -1 0 1 0 0 -1 -1 -1 -1 0 -1 0 -1 -1
        CFGEDIT 1 0 0 0 0 0 1 0 1 1 1 0.25 16 63 1280 778 0 0 2 3 0 0 0 0 0 0.5 0 0 1 64
      >
      TAKE
      NAME "Bass                 - National_Anthems_-_Chile.mid"
      TAKEVOLPAN 0 1 -1
      SOFFS 21.5 43
      PLAYRATE 1 1 0 -1 0 0.0025
      CHANMODE 0
      GUID {D713130E-2D5A-C54F-B66F-27081B47F5D9}
      <SOURCE MIDI
        HASDATA 1 192 QN
        POOLEDEVTS {1661AE65-0C15-4844-8852-17A121C898D4}
        <X 0 0
          /wNCYXNzICAgICAgICAgICAgICAgIA==
        >
        e 2299 90 2b 7f
        e 142 80 2b 40
        e 48 90 2b 7f
        e 143 80 2b 40
        e 56 90 2b 7f
        e 91 90 2c 7f
        e 3 80 2b 40
        e 43 80 2c 40
        e 56 90 2d 7f
        e 95 80 2d 40
        e 0 90 2f 7f
        e 46 80 2f 40
        e 53 90 30 7f
        e 94 80 30 40
        e 103 90 2b 7f
        e 94 80 2b 40
        e 90 90 24 7f
        e 94 80 24 40
        e 1829 90 2c 7f
        e 128 80 2c 40
        e 61 90 2c 7f
        e 128 80 2c 40
        e 67 90 2c 7f
        e 128 80 2c 40
        e 61 90 2c 7f
        e 128 80 2c 40
        e 62 90 2b 7f
        e 128 80 2b 40
        e 67 90 2b 7f
        e 129 80 2b 40
        e 81 90 2b 7f
        e 128 80 2b 40
        e 46 90 2b 7f
        e 129 80 2b 40
        e 68 90 24 7f
        e 128 80 24 40
        e 632 90 24 7f
        e 128 80 24 40
        e 67 90 24 7f
        e 81 80 24 40
        e 66 90 24 7f
        e 33 80 24 40
        e 14 90 24 7f
        e 80 80 24 40
        e 301 90 24 7f
        e 128 80 24 40
        e 252 90 24 7f
        e 129 80 24 40
        e 259 90 24 7f
        e 80 80 24 40
        e 305 90 24 7f
        e 129 80 24 40
        e 257 90 2b 7f
        e 128 80 2b 40
        e 245 90 2b 7f
        e 128 80 2b 40
        e 262 90 2b 7f
        e 128 80 2b 40
        e 262 90 2b 7f
        e 81 80 2b 40
        e 299 90 24 7f
        e 128 80 24 40
        e 257 90 24 7f
        e 129 80 24 40
        e 257 90 24 7f
        e 128 80 24 40
        e 256 90 24 7f
        e 128 80 24 40
        e 259 90 26 7f
        e 128 80 26 40
        e 253 90 26 7f
        e 128 80 26 40
        e 259 90 2b 7f
        e 128 80 2b 40
        e 50 90 2b 7f
        e 80 80 2b 40
        e 76 90 2b 7f
        e 33 80 2b 40
        e 14 90 2b 7f
        e 80 80 2b 40
        e 297 90 27 7f
        e 273 80 27 40
        e 111 90 2b 7f
        e 177 80 2b 40
        e 212 90 2e 7f
        e 177 80 2e 40
        e 207 90 2e 7f
        e 129 80 2e 40
        e 252 90 2e 7f
        e 128 80 2e 40
        e 254 90 2e 7f
        e 129 80 2e 40
        e 260 90 27 7f
        e 129 80 27 40
        e 250 90 27 7f
        e 129 80 27 40
        e 255 90 2c 7f
        e 129 80 2c 40
        e 252 90 2c 7f
        e 177 80 2c 40
        e 210 90 2b 7f
        e 129 80 2b 40
        e 60 90 2b 7f
        e 129 80 2b 40
        e 25 90 2b 7f
        e 27 80 2b 40
        e 14 90 2b 7f
        e 81 80 2b 40
        e 302 90 24 7f
        e 80 80 24 40
        e 125 90 24 7f
        e 80 80 24 40
        e 102 90 24 7f
        e 80 80 24 40
        e 114 90 24 7f
        e 80 80 24 40
        e 110 90 24 7f
        e 80 80 24 40
        e 112 90 29 7f
        e 128 80 29 40
        e 446 90 2b 7f
        e 81 80 2b 40
        e 116 90 2b 7f
        e 81 80 2b 40
        e 110 90 2b 7f
        e 80 80 2b 40
        e 112 90 2b 7f
        e 128 80 2b 40
        e 59 90 24 7f
        e 80 80 24 40
        e 115 90 24 7f
        e 80 80 24 40
        e 112 90 29 7f
        e 128 80 29 40
        e 254 90 2b 7f
        e 129 80 2b 40
        e 265 90 2b 7f
        e 128 80 2b 40
        e 242 90 24 7f
        e 128 80 24 40
        e 262 90 29 7f
        e 128 80 29 40
        e 1024 90 24 7f
        e 128 80 24 40
        e 651 90 28 7f
        e 177 80 28 40
        e 199 90 28 7f
        e 177 80 28 40
        e 206 90 28 7f
        e 128 80 28 40
        e 254 90 28 7f
        e 176 80 28 40
        e 210 90 28 7f
        e 306 80 28 40
        e 78 90 28 7f
        e 294 80 28 40
        e 859 90 28 7f
        e 177 80 28 40
        e 199 90 28 7f
        e 129 80 28 40
        e 257 90 28 7f
        e 128 80 28 40
        e 257 90 28 7f
        e 129 80 28 40
        e 259 90 28 7f
        e 278 80 28 40
        e 106 90 28 7f
        e 307 80 28 40
        e 78 90 28 7f
        e 177 80 28 40
        e 114 90 28 7f
        e 33 80 28 40
        e 57 90 28 7f
        e 128 80 28 40
        e 254 90 24 7f
        e 129 80 24 40
        e 255 90 24 7f
        e 129 80 24 40
        e 257 90 29 7f
        e 128 80 29 40
        e 259 90 29 7f
        e 81 80 29 40
        e 297 90 26 7f
        e 128 80 26 40
        e 251 90 26 7f
        e 128 80 26 40
        e 262 90 2b 7f
        e 129 80 2b 40
        e 260 90 2b 7f
        e 81 80 2b 40
        e 303 90 2b 7f
        e 129 80 2b 40
        e 249 90 2b 7f
        e 128 80 2b 40
        e 253 90 24 7f
        e 128 80 24 40
        e 264 90 24 7f
        e 128 80 24 40
        e 252 90 2b 7f
        e 129 80 2b 40
        e 257 90 2b 7f
        e 128 80 2b 40
        e 251 90 24 7f
        e 129 80 24 40
        e 647 90 2e 7f
        e 129 80 2e 40
        e 247 90 2d 7f
        e 177 80 2d 40
        e 22 90 2b 7f
        e 176 80 2b 40
        e 14 90 29 7f
        e 128 80 29 40
        e 72 90 29 7f
        e 80 80 29 40
        e 493 90 2b 7f
        e 128 80 2b 40
        e 61 90 2b 7f
        e 80 80 2b 40
        e 57 90 2b 7f
        e 33 80 2b 40
        e 17 90 2b 7f
        e 80 80 2b 40
        e 125 90 2b 7f
        e 80 80 2b 40
        e 52 90 2b 7f
        e 33 80 2b 40
        e 14 90 24 7f
        e 128 80 24 40
        e 640 90 2b 7f
        e 128 80 2b 40
        e 256 90 2b 7f
        e 128 80 2b 40
        e 256 90 24 7f
        e 80 80 24 40
        e 685 90 2b 7f
        e 128 80 2b 40
        e 259 90 2b 7f
        e 128 80 2b 40
        e 259 90 24 7f
        e 128 80 24 40
        e 1413 90 24 7f
        e 80 80 24 40
        e 107 90 24 7f
        e 80 80 24 40
        e 69 90 24 7f
        e 32 80 24 40
        e 16 90 24 7f
        e 80 80 24 40
        E 109 b0 7b 00
        GUID {9CC91F69-1621-5F49-A72C-C3439CAA67AB}
        IGNTEMPO 0 120 4 4
        SRCCOLOR 913
        VELLANE -1 86 6
        CFGEDITVIEW 0 0 50 24 0 0 0 0 0 0.5
        KEYSNAP 0
        TRACKSEL 226 0 0 ""
        EVTFILTER 0 -1 -1 -1 -1 0 1 0 0 -1 -1 -1 -1 0 -1 0 -1 -1
        CFGEDIT 1 0 0 0 0 0 1 0 1 1 1 0.25 16 63 1280 778 0 0 2 3 0 0 0 0 0 0.5 0 0 1 64
      >
    >
    <ITEM
      POSITION 0
      SNAPOFFS 0
      LENGTH 96
      LOOP 1
      ALLTAKES 0
      FADEIN 1 0 0 1 0 0
      FADEOUT 1 0 0 1 0 0
      MUTE 0
      SEL 0
      YPOS 0.528626 0.05
      IGUID {0F057F7F-3691-AC43-ACDB-E8EDDDF862AE}
      IID 19
      NAME "rh                   - National_Anthems_-_Chile.mid"
      VOLPAN 1 0 1 -1
      SOFFS 21.5 43
      PLAYRATE 1 1 0 -1 0 0.0025
      CHANMODE 0
      TAKECOLOR 26173599 B
      GUID {FCBDB25E-8A88-6F46-9F2B-9D22FE0B5B9A}
      <SOURCE MIDI
        HASDATA 1 192 QN
        POOLEDEVTS {2C4D8E9F-8B1E-9446-8B93-F51194AE785B}
        <X 0 0
          /wNyaCAgICAgICAgICAgICAgICAgIA==
        >
        e 720 9c 4f 6c
        e 16 9c 51 6c
        e 6 8c 4f 40
        e 2 9c 53 6c
        e 14 8c 51 40
        e 8 8c 53 40
        e 2 9c 48 6c
        e 0 9c 54 6c
        e 334 8c 48 40
        e 0 8c 54 40
        e 2 9c 47 6c
        e 0 9c 53 6c
        e 46 8c 47 40
        e 0 8c 53 40
        e 2 9c 48 6c
        e 0 9c 54 6c
        e 142 8c 48 40
        e 0 8c 54 40
        e 2 9c 44 6c
        e 0 9c 50 6c
        e 46 8c 44 40
        e 0 8c 50 40
        e 2 9c 45 6c
        e 0 9c 51 6c
        e 142 8c 45 40
        e 0 8c 51 40
        e 2 9c 40 6c
        e 0 9c 4c 6c
        e 46 8c 40 40
        e 0 8c 4c 40
        e 2 9c 41 6c
        e 0 9c 4d 6c
        e 142 8c 41 40
        e 0 8c 4d 40
        e 2 9c 3d 6c
        e 0 9c 49 6c
        e 46 8c 3d 40
        e 0 8c 49 40
        e 2 9c 3e 6c
        e 0 9c 4a 6c
        e 142 8c 3e 40
        e 0 8c 4a 40
        e 2 9c 3a 6c
        e 0 9c 46 6c
        e 46 8c 3a 40
        e 0 8c 46 40
        e 2 9c 3b 6c
        e 0 9c 47 6c
        e 190 8c 3b 40
        e 0 8c 47 40
        e 50 9c 43 6c
        e 22 8c 43 40
        e 2 9c 45 6c
        e 22 8c 45 40
        e 2 9c 47 6c
        e 22 8c 47 40
        e 2 9c 48 6c
        e 22 8c 48 40
        e 2 9c 4a 6c
        e 22 8c 4a 40
        e 2 9c 4c 6c
        e 22 8c 4c 40
        e 98 9c 47 6c
        e 0 9c 4a 6c
        e 0 9c 4d 6c
        e 46 8c 47 40
        e 0 8c 4a 40
        e 0 8c 4d 40
        e 2 9c 47 6c
        e 0 9c 4a 6c
        e 0 9c 4d 6c
        e 46 8c 47 40
        e 0 8c 4a 40
        e 0 8c 4d 40
        e 2 9c 47 6c
        e 0 9c 4a 6c
        e 0 9c 4d 6c
        e 94 8c 47 40
        e 0 8c 4a 40
        e 0 8c 4d 40
        e 2 9c 47 6c
        e 0 9c 4a 6c
        e 0 9c 4d 6c
        e 94 8c 47 40
        e 0 8c 4a 40
        e 0 8c 4d 40
        e 2 9c 47 6c
        e 0 9c 4a 6c
        e 0 9c 4d 6c
        e 94 8c 47 40
        e 0 8c 4a 40
        e 0 8c 4d 40
        e 2 9c 47 6c
        e 0 9c 4a 6c
        e 0 9c 4d 6c
        e 94 8c 47 40
        e 0 8c 4a 40
        e 0 8c 4d 40
        e 2 9c 48 6c
        e 0 9c 4d 6c
        e 94 8c 48 40
        e 0 8c 4d 40
        e 2 9c 4a 6c
        e 0 9c 4d 6c
        e 94 8c 4a 40
        e 0 8c 4d 40
        e 2 9c 43 6c
        e 0 9c 48 6c
        e 0 9c 4c 6c
        e 94 8c 43 40
        e 0 8c 48 40
        e 0 8c 4c 40
        e 2 9c 4c 6c
        e 46 8c 4c 40
        e 2 9c 4d 6c
        e 46 8c 4d 40
        e 2 9c 41 6c
        e 0 9c 47 6c
        e 0 9c 4a 6c
        e 94 8c 41 40
        e 0 8c 47 40
        e 0 8c 4a 40
        e 2 9c 4a 6c
        e 46 8c 4a 40
        e 2 9c 4c 6c
        e 46 8c 4c 40
        e 2 9c 40 6c
        e 0 9c 48 6c
        e 190 8c 40 40
        e 0 8c 48 40
        e 26 9c 48 6c
        e 22 8c 48 40
        e 2 9c 4a 6c
        e 22 8c 4a 40
        e 2 9c 4c 6c
        e 22 8c 4c 40
        e 2 9c 4d 6c
        e 22 8c 4d 40
        e 2 9c 4f 6c
        e 22 8c 4f 40
        e 2 9c 51 6c
        e 22 8c 51 40
        e 2 9c 53 6c
        e 22 8c 53 40
        e 2 9c 54 6c
        e 94 8c 54 40
        e 2 9c 51 6c
        e 0 9c 54 6c
        e 46 8c 51 40
        e 0 8c 54 40
        e 2 9c 51 6c
        e 0 9c 54 6c
        e 46 8c 51 40
        e 0 8c 54 40
        e 2 9c 51 6c
        e 0 9c 54 6c
        e 94 8c 51 40
        e 0 8c 54 40
        e 2 9c 51 6c
        e 0 9c 54 6c
        e 94 8c 51 40
        e 0 8c 54 40
        e 2 9c 51 6c
        e 0 9c 54 6c
        e 94 8c 51 40
        e 0 8c 54 40
        e 2 9c 50 6c
        e 0 9c 53 6c
        e 46 8c 50 40
        e 0 8c 53 40
        e 2 9c 51 6c
        e 0 9c 54 6c
        e 46 8c 51 40
        e 0 8c 54 40
        e 2 9c 53 6c
        e 0 9c 56 6c
        e 46 8c 53 40
        e 0 8c 56 40
        e 2 9c 51 6c
        e 0 9c 54 6c
        e 46 8c 51 40
        e 0 8c 54 40
        e 2 9c 4f 6c
        e 0 9c 53 6c
        e 46 8c 4f 40
        e 0 8c 53 40
        e 2 9c 4d 6c
        e 0 9c 51 6c
        e 46 8c 4d 40
        e 0 8c 51 40
        e 2 9c 4c 6c
        e 0 9c 4f 6c
        e 94 8c 4c 40
        e 0 8c 4f 40
        e 2 9c 4f 6c
        e 46 8c 4f 40
        e 2 9c 51 6c
        e 46 8c 51 40
        e 2 9c 4a 6c
        e 0 9c 4d 6c
        e 94 8c 4a 40
        e 0 8c 4d 40
        e 2 9c 4d 6c
        e 46 8c 4d 40
        e 2 9c 4f 6c
        e 46 8c 4f 40
        e 2 9c 48 6c
        e 0 9c 4c 6c
        e 190 8c 48 40
        e 0 8c 4c 40
        e 26 9c 3c 6c
        e 22 8c 3c 40
        e 2 9c 3e 6c
        e 22 8c 3e 40
        e 2 9c 40 6c
        e 22 8c 40 40
        e 2 9c 41 6c
        e 22 8c 41 40
        e 2 9c 43 6c
        e 22 8c 43 40
        e 2 9c 45 6c
        e 22 8c 45 40
        e 2 9c 47 6c
        e 22 8c 47 40
        e 2 9c 48 6c
        e 80 8c 48 40
        e 16 9c 3c 6c
        e 0 9c 3f 6c
        e 0 9c 44 6c
        e 0 9c 48 6c
        e 32 8c 3c 40
        e 0 8c 3f 40
        e 0 8c 44 40
        e 0 8c 48 40
        e 16 9c 3c 6c
        e 0 9c 3f 6c
        e 0 9c 44 6c
        e 0 9c 48 6c
        e 32 8c 3c 40
        e 0 8c 3f 40
        e 0 8c 44 40
        e 0 8c 48 40
        e 16 9c 3c 6c
        e 0 9c 3f 6c
        e 0 9c 44 6c
        e 0 9c 48 6c
        e 80 8c 3c 40
        e 0 8c 3f 40
        e 0 8c 44 40
        e 0 8c 48 40
        e 16 9c 3c 6c
        e 0 9c 3f 6c
        e 0 9c 44 6c
        e 0 9c 48 6c
        e 80 8c 3c 40
        e 0 8c 3f 40
        e 0 8c 44 40
        e 0 8c 48 40
        e 16 9c 3c 6c
        e 0 9c 3f 6c
        e 0 9c 44 6c
        e 0 9c 48 6c
        e 80 8c 3c 40
        e 0 8c 3f 40
        e 0 8c 44 40
        e 0 8c 48 40
        e 16 9c 3e 6c
        e 0 9c 48 6c
        e 0 9c 4a 6c
        e 80 8c 3e 40
        e 0 8c 48 40
        e 0 8c 4a 40
        e 16 9c 3f 6c
        e 0 9c 48 6c
        e 0 9c 4b 6c
        e 80 8c 3f 40
        e 0 8c 48 40
        e 0 8c 4b 40
        e 16 9c 42 6c
        e 0 9c 48 6c
        e 0 9c 4b 6c
        e 0 9c 4e 6c
        e 80 8c 42 40
        e 0 8c 48 40
        e 0 8c 4b 40
        e 0 8c 4e 40
        e 16 9c 43 6c
        e 0 9c 48 6c
        e 0 9c 4c 6c
        e 0 9c 4f 6c
        e 80 8c 43 40
        e 0 8c 48 40
        e 0 8c 4c 40
        e 0 8c 4f 40
        e 16 9c 43 6c
        e 0 9c 48 6c
        e 0 9c 4c 6c
        e 0 9c 4f 6c
        e 32 8c 43 40
        e 0 8c 48 40
        e 0 8c 4c 40
        e 0 8c 4f 40
        e 16 9c 43 6c
        e 0 9c 48 6c
        e 0 9c 4c 6c
        e 0 9c 4f 6c
        e 32 8c 43 40
        e 0 8c 48 40
        e 0 8c 4c 40
        e 0 8c 4f 40
        e 16 9c 43 6c
        e 0 9c 48 6c
        e 0 9c 4c 6c
        e 80 8c 43 40
        e 0 8c 48 40
        e 0 8c 4c 40
        e 16 9c 43 6c
        e 0 9c 48 6c
        e 0 9c 4c 6c
        e 80 8c 43 40
        e 0 8c 48 40
        e 0 8c 4c 40
        e 16 9c 43 6c
        e 0 9c 47 6c
        e 0 9c 4a 6c
        e 0 9c 4f 6c
        e 80 8c 43 40
        e 0 8c 47 40
        e 0 8c 4a 40
        e 0 8c 4f 40
        e 16 9c 43 6c
        e 0 9c 47 6c
        e 0 9c 4a 6c
        e 0 9c 4f 6c
        e 32 8c 43 40
        e 0 8c 47 40
        e 0 8c 4a 40
        e 0 8c 4f 40
        e 16 9c 43 6c
        e 0 9c 47 6c
        e 0 9c 4a 6c
        e 0 9c 4f 6c
        e 32 8c 43 40
        e 0 8c 47 40
        e 0 8c 4a 40
        e 0 8c 4f 40
        e 16 9c 43 6c
        e 0 9c 47 6c
        e 0 9c 4a 6c
        e 80 8c 43 40
        e 0 8c 47 40
        e 0 8c 4a 40
        e 16 9c 43 6c
        e 0 9c 47 6c
        e 0 9c 4a 6c
        e 32 8c 43 40
        e 0 8c 47 40
        e 0 8c 4a 40
        e 64 9c 40 6c
        e 0 9c 43 6c
        e 0 9c 48 6c
        e 176 8c 40 40
        e 0 8c 43 40
        e 0 8c 48 40
        e 112 9c 43 6c
        e 16 8c 43 40
        e 16 9c 45 6c
        e 16 8c 45 40
        e 16 9c 47 6c
        e 16 8c 47 40
        e 16 9c 48 6c
        e 80 8c 48 40
        e 16 9c 43 6c
        e 16 8c 43 40
        e 16 9c 45 6c
        e 16 8c 45 40
        e 16 9c 47 6c
        e 16 8c 47 40
        e 16 9c 48 6c
        e 80 8c 48 40
        e 16 9c 43 6c
        e 16 8c 43 40
        e 16 9c 45 6c
        e 16 8c 45 40
        e 16 9c 47 6c
        e 16 8c 47 40
        e 16 9c 48 6c
        e 176 8c 48 40
        e 16 9c 40 6c
        e 0 9c 43 6c
        e 0 9c 48 6c
        e 128 8c 40 40
        e 0 8c 43 40
        e 0 8c 48 40
        e 16 9c 40 6c
        e 0 9c 43 6c
        e 0 9c 48 6c
        e 32 8c 40 40
        e 0 8c 43 40
        e 0 8c 48 40
        e 16 9c 40 6c
        e 0 9c 43 6c
        e 0 9c 48 6c
        e 176 8c 40 40
        e 0 8c 43 40
        e 0 8c 48 40
        e 16 9c 43 7f
        e 128 8c 43 40
        e 16 9c 48 7f
        e 32 8c 48 40
        e 16 9c 40 6c
        e 0 9c 48 7f
        e 128 8c 40 40
        e 0 8c 48 40
        e 16 9c 43 6c
        e 0 9c 47 7f
        e 32 8c 43 40
        e 0 8c 47 40
        e 16 9c 43 6c
        e 0 9c 47 7f
        e 128 8c 43 40
        e 0 8c 47 40
        e 16 9c 41 6c
        e 0 9c 45 7f
        e 32 8c 41 40
        e 0 8c 45 40
        e 16 9c 41 6c
        e 0 9c 45 7f
        e 128 8c 41 40
        e 0 8c 45 40
        e 16 9c 40 6c
        e 0 9c 43 7f
        e 32 8c 40 40
        e 0 8c 43 40
        e 16 9c 40 6c
        e 0 9c 43 7f
        e 128 8c 40 40
        e 0 8c 43 40
        e 16 9c 3f 6c
        e 0 9c 42 7f
        e 32 8c 3f 40
        e 0 8c 42 40
        e 16 9c 40 6c
        e 0 9c 43 7f
        e 272 8c 40 40
        e 0 8c 43 40
        e 16 9c 3e 6c
        e 0 9c 41 7f
        e 80 8c 3e 40
        e 0 8c 41 40
        e 16 9c 3c 6c
        e 0 9c 40 7f
        e 176 8c 3c 40
        e 0 8c 40 40
        e 16 9c 3b 6c
        e 0 9c 3e 7f
        e 128 8c 3b 40
        e 0 8c 3e 40
        e 16 9c 3c 6c
        e 0 9c 40 7f
        e 32 8c 3c 40
        e 0 8c 40 40
        e 16 9c 3e 6c
        e 0 9c 41 7f
        e 80 8c 3e 40
        e 48 8c 41 40
        e 16 9c 43 7f
        e 32 8c 43 40
        e 16 9c 3e 6c
        e 0 9c 41 6c
        e 0 9c 45 7f
        e 48 8c 45 40
        e 16 9c 43 7f
        e 16 8c 3e 40
        e 0 8c 41 40
        e 32 8c 43 40
        e 16 9c 41 7f
        e 48 8c 41 40
        e 16 9c 3c 6c
        e 0 9c 40 7f
        e 80 8c 3c 40
        e 48 8c 40 40
        e 16 9c 41 7f
        e 32 8c 41 40
        e 16 9c 3c 6c
        e 0 9c 40 6c
        e 0 9c 43 7f
        e 48 8c 43 40
        e 16 9c 41 7f
        e 16 8c 3c 40
        e 0 8c 40 40
        e 32 8c 41 40
        e 16 9c 40 7f
        e 48 8c 40 40
        e 16 9c 3b 6c
        e 0 9c 3e 7f
        e 0 9c 43 6c
        e 80 8c 3b 40
        e 0 8c 43 40
        e 16 9c 3b 6c
        e 0 9c 43 6c
        e 32 8c 3b 40
        e 0 8c 43 40
        e 16 9c 3b 6c
        e 0 9c 43 6c
        e 32 8c 3e 40
        e 0 8c 3b 40
        e 0 8c 43 40
        e 16 9c 3b 6c
        e 0 9c 3e 6c
        e 0 9c 43 6c
        e 80 8c 3b 40
        e 0 8c 3e 40
        e 0 8c 43 40
        e 16 9c 3b 6c
        e 0 9c 3e 6c
        e 0 9c 43 6c
        e 80 8c 3b 40
        e 0 8c 3e 40
        e 0 8c 43 40
        e 16 9c 3b 6c
        e 0 9c 3e 6c
        e 0 9c 43 6c
        e 80 8c 3b 40
        e 0 8c 3e 40
        e 0 8c 43 40
        e 112 9c 43 7f
        e 128 8c 43 40
        e 16 9c 48 7f
        e 32 8c 48 40
        e 16 9c 40 6c
        e 0 9c 48 7f
        e 128 8c 40 40
        e 0 8c 48 40
        e 16 9c 43 6c
        e 0 9c 47 7f
        e 32 8c 43 40
        e 0 8c 47 40
        e 16 9c 43 6c
        e 0 9c 47 7f
        e 128 8c 43 40
        e 0 8c 47 40
        e 16 9c 41 6c
        e 0 9c 45 7f
        e 32 8c 41 40
        e 0 8c 45 40
        e 16 9c 41 6c
        e 0 9c 45 7f
        e 128 8c 41 40
        e 0 8c 45 40
        e 16 9c 40 6c
        e 0 9c 43 7f
        e 32 8c 40 40
        e 0 8c 43 40
        e 16 9c 40 6c
        e 0 9c 43 7f
        e 128 8c 40 40
        e 0 8c 43 40
        e 16 9c 3f 6c
        e 0 9c 42 7f
        e 32 8c 3f 40
        e 0 8c 42 40
        e 16 9c 40 6c
        e 0 9c 43 7f
        e 272 8c 40 40
        e 0 8c 43 40
        e 16 9c 3e 6c
        e 0 9c 41 7f
        e 80 8c 3e 40
        e 0 8c 41 40
        e 16 9c 3c 6c
        e 0 9c 40 7f
        e 176 8c 3c 40
        e 0 8c 40 40
        e 16 9c 3c 6c
        e 0 9c 40 6c
        e 0 9c 43 7f
        e 128 8c 3c 40
        e 0 8c 40 40
        e 0 8c 43 40
        e 16 9c 3c 6c
        e 0 9c 40 6c
        e 0 9c 48 7f
        e 32 8c 3c 40
        e 0 8c 40 40
        e 0 8c 48 40
        e 16 9c 3b 6c
        e 0 9c 3e 6c
        e 0 9c 43 6c
        e 0 9c 47 7f
        e 80 8c 3b 40
        e 0 8c 3e 40
        e 0 8c 43 40
        e 48 8c 47 40
        e 16 9c 46 7f
        e 32 8c 46 40
        e 16 9c 3b 6c
        e 0 9c 3e 6c
        e 0 9c 43 6c
        e 0 9c 47 7f
        e 80 8c 3b 40
        e 0 8c 3e 40
        e 0 8c 43 40
        e 48 8c 47 40
        e 16 9c 48 7f
        e 32 8c 48 40
        e 16 9c 39 6c
        e 0 9c 3e 6c
        e 0 9c 42 6c
        e 0 9c 45 7f
        e 80 8c 39 40
        e 0 8c 3e 40
        e 0 8c 42 40
        e 48 8c 45 40
        e 16 9c 44 7f
        e 32 8c 44 40
        e 16 9c 39 6c
        e 0 9c 3e 6c
        e 0 9c 42 6c
        e 0 9c 45 7f
        e 80 8c 39 40
        e 0 8c 3e 40
        e 0 8c 42 40
        e 48 8c 45 40
        e 16 9c 47 7f
        e 32 8c 47 40
        e 16 9c 3b 6c
        e 0 9c 3e 6c
        e 0 9c 43 7f
        e 176 8c 3b 40
        e 0 8c 3e 40
        e 16 9c 3b 6c
        e 0 9c 3e 6c
        e 128 8c 3b 40
        e 0 8c 3e 40
        e 16 9c 3b 6c
        e 0 9c 3e 6c
        e 32 8c 43 40
        e 0 8c 3b 40
        e 0 8c 3e 40
        e 16 9c 3b 6c
        e 0 9c 3e 6c
        e 0 9c 43 6c
        e 176 8c 3b 40
        e 0 8c 3e 40
        e 0 8c 43 40
        e 16 9c 43 7f
        e 128 8c 43 40
        e 16 9c 43 7f
        e 32 8c 43 40
        e 16 9c 3f 6c
        e 0 9c 43 7f
        e 80 8c 3f 40
        e 16 9c 3a 6c
        e 80 8c 43 40
        e 0 8c 3a 40
        e 16 9c 3f 6c
        e 0 9c 43 7f
        e 80 8c 3f 40
        e 16 9c 3a 6c
        e 32 8c 43 40
        e 16 9c 43 7f
        e 32 8c 3a 40
        e 0 8c 43 40
        e 16 9c 41 6c
        e 0 9c 44 7f
        e 80 8c 41 40
        e 0 8c 44 40
        e 16 9c 3f 6c
        e 0 9c 43 7f
        e 80 8c 3f 40
        e 0 8c 43 40
        e 16 9c 3e 6c
        e 0 9c 41 7f
        e 80 8c 3e 40
        e 0 8c 41 40
        e 16 9c 3f 6c
        e 0 9c 43 7f
        e 80 8c 3f 40
        e 0 8c 43 40
        e 16 9c 41 6c
        e 0 9c 44 7f
        e 80 8c 41 40
        e 16 9c 3a 6c
        e 80 8c 3a 40
        e 16 9c 41 6c
        e 80 8c 44 40
        e 0 8c 41 40
        e 16 9c 3a 6c
        e 0 9c 43 7f
        e 80 8c 3a 40
        e 0 8c 43 40
        e 16 9c 3e 6c
        e 0 9c 41 7f
        e 80 8c 3e 40
        e 16 9c 3a 6c
        e 80 8c 41 40
        e 0 8c 3a 40
        e 16 9c 3e 6c
        e 0 9c 41 6c
        e 0 9c 44 7f
        e 80 8c 3e 40
        e 0 8c 41 40
        e 16 9c 3a 6c
        e 32 8c 44 40
        e 16 9c 44 7f
        e 32 8c 3a 40
        e 0 8c 44 40
        e 16 9c 41 6c
        e 0 9c 44 7f
        e 80 8c 41 40
        e 16 9c 3a 6c
        e 80 8c 44 40
        e 0 8c 3a 40
        e 16 9c 41 6c
        e 0 9c 44 7f
        e 80 8c 41 40
        e 16 9c 3a 6c
        e 32 8c 44 40
        e 16 9c 44 7f
        e 32 8c 3a 40
        e 0 8c 44 40
        e 16 9c 43 6c
        e 0 9c 46 7f
        e 80 8c 43 40
        e 0 8c 46 40
        e 16 9c 41 6c
        e 0 9c 44 7f
        e 80 8c 41 40
        e 0 8c 44 40
        e 16 9c 3f 6c
        e 0 9c 43 7f
        e 80 8c 3f 40
        e 0 8c 43 40
        e 16 9c 41 6c
        e 0 9c 44 7f
        e 80 8c 41 40
        e 0 8c 44 40
        e 16 9c 43 6c
        e 0 9c 46 7f
        e 80 8c 43 40
        e 16 9c 3a 6c
        e 80 8c 3a 40
        e 16 9c 43 6c
        e 80 8c 43 40
        e 16 9c 41 6c
        e 0 9c 44 6c
        e 80 8c 46 40
        e 0 8c 41 40
        e 0 8c 44 40
        e 16 9c 3f 6c
        e 0 9c 43 6c
        e 80 8c 3f 40
        e 0 8c 43 40
        e 16 9c 3a 6c
        e 80 8c 3a 40
        e 16 9c 3f 6c
        e 0 9c 43 7f
        e 80 8c 3f 40
        e 16 9c 3a 6c
        e 32 8c 43 40
        e 16 9c 43 7f
        e 32 8c 3a 40
        e 0 8c 43 40
        e 16 9c 3c 6c
        e 0 9c 3f 6c
        e 0 9c 48 7f
        e 176 8c 3c 40
        e 0 8c 3f 40
        e 0 8c 48 40
        e 16 9c 3c 6c
        e 0 9c 3f 6c
        e 0 9c 48 7f
        e 128 8c 3c 40
        e 0 8c 3f 40
        e 0 8c 48 40
        e 16 9c 3c 6c
        e 0 9c 3f 6c
        e 0 9c 48 7f
        e 32 8c 3c 40
        e 0 8c 3f 40
        e 0 8c 48 40
        e 16 9c 3c 6c
        e 0 9c 3f 6c
        e 0 9c 48 7f
        e 48 8c 48 40
        e 16 9c 46 7f
        e 48 8c 46 40
        e 16 9c 44 7f
        e 48 8c 3c 40
        e 0 8c 3f 40
        e 0 8c 44 40
        e 16 9c 3c 6c
        e 0 9c 3f 6c
        e 0 9c 42 6c
        e 0 9c 44 7f
        e 48 8c 44 40
        e 16 9c 43 7f
        e 48 8c 43 40
        e 16 8c 42 40
        e 0 9c 42 7f
        e 48 8c 3c 40
        e 0 8c 3f 40
        e 0 8c 42 40
        e 16 9c 3b 6c
        e 0 9c 3e 6c
        e 0 9c 43 7f
        e 176 8c 3b 40
        e 0 8c 3e 40
        e 16 9c 3b 6c
        e 0 9c 3e 6c
        e 128 8c 3b 40
        e 0 8c 3e 40
        e 16 9c 3b 6c
        e 0 9c 3e 6c
        e 32 8c 43 40
        e 0 8c 3b 40
        e 0 8c 3e 40
        e 16 9c 3b 6c
        e 0 9c 3e 6c
        e 0 9c 43 6c
        e 176 8c 3b 40
        e 0 8c 3e 40
        e 0 8c 43 40
        e 16 9c 3c 6c
        e 0 9c 40 7f
        e 128 8c 3c 40
        e 0 8c 40 40
        e 16 9c 3c 6c
        e 0 9c 40 7f
        e 32 8c 3c 40
        e 0 8c 40 40
        e 16 9c 3c 6c
        e 0 9c 40 7f
        e 128 8c 3c 40
        e 0 8c 40 40
        e 16 9c 3b 6c
        e 0 9c 3e 7f
        e 32 8c 3b 40
        e 0 8c 3e 40
        e 16 9c 3c 6c
        e 0 9c 40 7f
        e 128 8c 3c 40
        e 0 8c 40 40
        e 16 9c 3b 6c
        e 0 9c 3e 7f
        e 32 8c 3b 40
        e 0 8c 3e 40
        e 16 9c 3c 6c
        e 0 9c 40 7f
        e 128 8c 3c 40
        e 0 8c 40 40
        e 16 9c 3b 6c
        e 0 9c 3e 7f
        e 32 8c 3b 40
        e 0 8c 3e 40
        e 16 9c 3c 6c
        e 0 9c 40 7f
        e 128 8c 3c 40
        e 0 8c 40 40
        e 16 9c 3e 6c
        e 0 9c 41 7f
        e 32 8c 3e 40
        e 0 8c 41 40
        e 16 9c 40 6c
        e 0 9c 43 7f
        e 176 8c 40 40
        e 0 8c 43 40
        e 16 9c 41 6c
        e 0 9c 45 7f
        e 368 8c 41 40
        e 0 8c 45 40
        e 16 9c 3b 6c
        e 0 9c 3e 7f
        e 128 8c 3b 40
        e 0 8c 3e 40
        e 16 9c 3b 6c
        e 0 9c 3e 7f
        e 32 8c 3b 40
        e 0 8c 3e 40
        e 16 9c 3b 6c
        e 0 9c 3e 7f
        e 128 8c 3b 40
        e 0 8c 3e 40
        e 16 9c 39 6c
        e 0 9c 3c 7f
        e 32 8c 39 40
        e 0 8c 3c 40
        e 16 9c 3b 6c
        e 0 9c 3e 7f
        e 128 8c 3b 40
        e 0 8c 3e 40
        e 16 9c 39 6c
        e 0 9c 3c 7f
        e 32 8c 39 40
        e 0 8c 3c 40
        e 16 9c 3b 6c
        e 0 9c 3e 7f
        e 128 8c 3b 40
        e 0 8c 3e 40
        e 16 9c 3c 6c
        e 0 9c 40 7f
        e 32 8c 3c 40
        e 0 8c 40 40
        e 16 9c 3e 6c
        e 0 9c 41 7f
        e 128 8c 3e 40
        e 0 8c 41 40
        e 16 9c 3f 6c
        e 0 9c 42 7f
        e 32 8c 3f 40
        e 0 8c 42 40
        e 16 9c 41 6c
        e 0 9c 45 7f
        e 176 8c 41 40
        e 0 8c 45 40
        e 16 9c 40 6c
        e 0 9c 43 7f
        e 80 8c 40 40
        e 0 8c 43 40
        e 112 9c 45 7f
        e 80 8c 45 40
        e 64 9c 47 7f
        e 32 8c 47 40
        e 16 9c 3c 6c
        e 0 9c 41 6c
        e 0 9c 45 6c
        e 0 9c 48 7f
        e 48 8c 48 40
        e 16 9c 47 7f
        e 48 8c 47 40
        e 16 8c 45 40
        e 0 9c 45 7f
        e 48 8c 3c 40
        e 0 8c 41 40
        e 0 8c 45 40
        e 16 9c 47 7f
        e 128 8c 47 40
        e 16 9c 45 7f
        e 32 8c 45 40
        e 16 9c 3c 6c
        e 0 9c 40 6c
        e 0 9c 43 7f
        e 128 8c 43 40
        e 16 9c 43 7f
        e 32 8c 3c 40
        e 0 8c 40 40
        e 0 8c 43 40
        e 16 9c 41 7f
        e 128 8c 41 40
        e 16 9c 43 7f
        e 32 8c 43 40
        e 16 9c 3b 6c
        e 0 9c 3e 6c
        e 0 9c 41 6c
        e 0 9c 45 7f
        e 48 8c 45 40
        e 16 9c 43 7f
        e 48 8c 43 40
        e 16 8c 41 40
        e 0 9c 41 7f
        e 48 8c 3b 40
        e 0 8c 3e 40
        e 0 8c 41 40
        e 16 9c 43 7f
        e 176 8c 43 40
        e 16 9c 3c 6c
        e 0 9c 40 7f
        e 176 8c 3c 40
        e 0 8c 40 40
        e 16 9c 41 6c
        e 0 9c 45 7f
        e 128 8c 41 40
        e 0 8c 45 40
        e 16 9c 43 6c
        e 0 9c 47 7f
        e 32 8c 43 40
        e 0 8c 47 40
        e 16 9c 45 6c
        e 0 9c 48 7f
        e 48 8c 45 40
        e 0 8c 48 40
        e 16 9c 43 6c
        e 0 9c 47 7f
        e 48 8c 43 40
        e 0 8c 47 40
        e 16 9c 41 6c
        e 0 9c 45 7f
        e 48 8c 41 40
        e 0 8c 45 40
        e 16 9c 40 6c
        e 0 9c 43 7f
        e 128 8c 40 40
        e 0 8c 43 40
        e 16 9c 45 6c
        e 0 9c 48 7f
        e 32 8c 45 40
        e 0 8c 48 40
        e 16 9c 45 6c
        e 0 9c 48 7f
        e 48 8c 45 40
        e 0 8c 48 40
        e 16 9c 43 6c
        e 0 9c 47 7f
        e 48 8c 43 40
        e 0 8c 47 40
        e 16 9c 41 6c
        e 0 9c 45 7f
        e 48 8c 41 40
        e 0 8c 45 40
        e 16 9c 41 6c
        e 0 9c 45 7f
        e 48 8c 41 40
        e 0 8c 45 40
        e 16 9c 40 6c
        e 0 9c 43 7f
        e 48 8c 40 40
        e 0 8c 43 40
        e 14 9c 41 7f
        e 2 9c 3e 6c
        e 46 8c 41 40
        e 2 8c 3e 40
        e 16 9c 3e 6c
        e 0 9c 41 7f
        e 48 8c 3e 40
        e 0 8c 41 40
        e 16 9c 3c 6c
        e 0 9c 40 7f
        e 48 8c 3c 40
        e 0 8c 40 40
        e 16 9c 37 6c
        e 0 9c 3b 6c
        e 0 9c 3e 7f
        e 48 8c 37 40
        e 0 8c 3b 40
        e 0 8c 3e 40
        e 16 9c 34 6c
        e 0 9c 3c 7f
        e 80 8c 34 40
        e 16 9c 40 6c
        e 32 8c 40 40
        e 16 9c 40 6c
        e 32 8c 3c 40
        e 0 8c 40 40
        e 16 9c 40 6c
        e 80 8c 40 40
        e 16 9c 40 6c
        e 32 8c 40 40
        e 64 9c 40 6c
        e 80 8c 40 40
        e 16 9c 40 6c
        e 32 8c 40 40
        e 64 9c 40 6c
        e 80 8c 40 40
        e 16 9c 40 6c
        e 32 8c 40 40
        e 64 9c 47 7f
        e 0 9c 4c 6c
        e 32 8c 4c 40
        e 16 9c 50 6c
        e 32 8c 50 40
        e 16 9c 4c 6c
        e 32 8c 4c 40
        e 16 9c 50 6c
        e 32 8c 50 40
        e 16 9c 4c 6c
        e 32 8c 4c 40
        e 16 9c 50 6c
        e 32 8c 50 40
        e 16 9c 4c 6c
        e 32 8c 4c 40
        e 16 9c 50 6c
        e 32 8c 50 40
        e 16 9c 4c 6c
        e 32 8c 4c 40
        e 16 9c 50 6c
        e 32 8c 50 40
        e 16 9c 4c 6c
        e 32 8c 4c 40
        e 16 9c 50 6c
        e 32 8c 47 40
        e 0 8c 50 40
        e 16 9c 48 7f
        e 0 9c 4c 6c
        e 32 8c 4c 40
        e 16 9c 51 6c
        e 32 8c 51 40
        e 16 9c 4c 6c
        e 32 8c 4c 40
        e 16 9c 51 6c
        e 32 8c 48 40
        e 0 8c 51 40
        e 16 9c 4a 7f
        e 0 9c 4c 6c
        e 32 8c 4c 40
        e 16 9c 53 6c
        e 32 8c 53 40
        e 16 9c 4c 6c
        e 32 8c 4c 40
        e 16 9c 53 6c
        e 32 8c 53 40
        e 16 9c 4c 6c
        e 32 8c 4c 40
        e 16 9c 53 6c
        e 32 8c 53 40
        e 16 9c 4c 6c
        e 32 8c 4c 40
        e 16 9c 53 6c
        e 32 8c 4a 40
        e 0 8c 53 40
        e 16 9c 4a 7f
        e 0 9c 4c 6c
        e 32 8c 4c 40
        e 16 9c 53 6c
        e 32 8c 53 40
        e 16 9c 4c 6c
        e 32 8c 4c 40
        e 16 9c 53 6c
        e 32 8c 4a 40
        e 0 8c 53 40
        e 16 9c 47 7f
        e 0 9c 4c 6c
        e 32 8c 4c 40
        e 16 9c 50 6c
        e 32 8c 50 40
        e 16 9c 4c 6c
        e 32 8c 4c 40
        e 16 9c 50 6c
        e 32 8c 47 40
        e 0 8c 50 40
        e 16 9c 48 7f
        e 0 9c 4c 6c
        e 32 8c 4c 40
        e 16 9c 51 6c
        e 32 8c 51 40
        e 16 9c 4c 6c
        e 32 8c 4c 40
        e 16 9c 51 6c
        e 32 8c 51 40
        e 16 9c 4c 6c
        e 32 8c 4c 40
        e 16 9c 51 6c
        e 32 8c 51 40
        e 16 9c 4c 6c
        e 32 8c 4c 40
        e 16 9c 51 6c
        e 32 8c 48 40
        e 0 8c 51 40
        e 16 9c 48 7f
        e 0 9c 51 6c
        e 128 8c 48 40
        e 0 8c 51 40
        e 16 9c 47 7f
        e 0 9c 50 6c
        e 32 8c 47 40
        e 0 8c 50 40
        e 16 9c 48 7f
        e 0 9c 51 6c
        e 128 8c 48 40
        e 0 8c 51 40
        e 16 9c 4a 7f
        e 0 9c 53 6c
        e 32 8c 4a 40
        e 0 8c 53 40
        e 16 9c 47 7f
        e 0 9c 50 6c
        e 96 9c 40 6c
        e 0 9c 4c 6c
        e 32 8c 50 40
        e 0 8c 40 40
        e 0 8c 4c 40
        e 16 9c 40 6c
        e 0 9c 4c 6c
        e 32 8c 47 40
        e 0 8c 40 40
        e 0 8c 4c 40
        e 16 9c 40 6c
        e 0 9c 47 7f
        e 0 9c 4c 6c
        e 80 8c 40 40
        e 0 8c 4c 40
        e 16 9c 40 6c
        e 0 9c 4c 6c
        e 80 8c 47 40
        e 0 8c 40 40
        e 0 8c 4c 40
        e 16 9c 40 6c
        e 0 9c 4c 6c
        e 80 8c 40 40
        e 0 8c 4c 40
        e 16 9c 40 6c
        e 0 9c 4c 6c
        e 32 8c 40 40
        e 0 8c 4c 40
        e 16 9c 40 6c
        e 0 9c 4c 6c
        e 32 8c 40 40
        e 0 8c 4c 40
        e 16 9c 40 6c
        e 0 9c 4c 6c
        e 80 8c 40 40
        e 0 8c 4c 40
        e 16 9c 40 6c
        e 0 9c 4c 6c
        e 80 8c 40 40
        e 0 8c 4c 40
        e 16 9c 47 7f
        e 48 9c 4c 6c
        e 32 8c 4c 40
        e 16 9c 50 6c
        e 32 8c 50 40
        e 16 9c 4c 6c
        e 32 8c 4c 40
        e 64 9c 4c 6c
        e 32 8c 4c 40
        e 16 9c 50 6c
        e 32 8c 50 40
        e 16 9c 4c 6c
        e 32 8c 4c 40
        e 64 9c 4c 6c
        e 32 8c 4c 40
        e 16 9c 50 6c
        e 32 8c 50 40
        e 16 9c 4c 6c
        e 32 8c 47 40
        e 0 8c 4c 40
        e 16 9c 48 7f
        e 48 9c 4c 6c
        e 32 8c 4c 40
        e 16 9c 51 6c
        e 32 8c 51 40
        e 16 9c 4c 6c
        e 32 8c 48 40
        e 0 8c 4c 40
        e 16 9c 4a 7f
        e 48 9c 4c 6c
        e 32 8c 4c 40
        e 16 9c 53 6c
        e 32 8c 53 40
        e 16 9c 4c 6c
        e 32 8c 4c 40
        e 64 9c 4c 6c
        e 32 8c 4c 40
        e 16 9c 53 6c
        e 32 8c 53 40
        e 16 9c 4c 6c
        e 32 8c 4a 40
        e 0 8c 4c 40
        e 16 9c 4a 7f
        e 48 9c 4c 6c
        e 32 8c 4c 40
        e 16 9c 53 6c
        e 32 8c 53 40
        e 16 9c 4c 6c
        e 32 8c 4a 40
        e 0 8c 4c 40
        e 16 9c 47 7f
        e 48 9c 4c 6c
        e 32 8c 4c 40
        e 16 9c 50 6c
        e 32 8c 50 40
        e 16 9c 4c 6c
        e 32 8c 47 40
        e 0 8c 4c 40
        e 16 9c 48 7f
        e 48 9c 4c 6c
        e 32 8c 4c 40
        e 16 9c 51 6c
        e 32 8c 51 40
        e 16 9c 4c 6c
        e 32 8c 4c 40
        e 64 9c 4c 6c
        e 32 8c 4c 40
        e 16 9c 51 6c
        e 32 8c 51 40
        e 16 9c 4c 6c
        e 32 8c 48 40
        e 0 8c 4c 40
        e 16 9c 48 7f
        e 48 9c 4b 6c
        e 32 8c 4b 40
        e 16 9c 51 6c
        e 32 8c 48 40
        e 0 8c 51 40
        e 16 9c 47 7f
        e 0 9c 4b 6c
        e 32 8c 47 40
        e 0 8c 4b 40
        e 16 9c 48 7f
        e 48 9c 4b 6c
        e 32 8c 4b 40
        e 16 9c 51 6c
        e 32 8c 48 40
        e 0 8c 51 40
        e 16 9c 4a 7f
        e 0 9c 4b 6c
        e 32 8c 4a 40
        e 0 8c 4b 40
        e 16 9c 47 7f
        e 0 9c 4c 6c
        e 0 9c 50 6c
        e 80 8c 4c 40
        e 0 8c 50 40
        e 16 9c 40 6c
        e 0 9c 44 6c
        e 0 9c 4c 6c
        e 32 8c 40 40
        e 0 8c 44 40
        e 0 8c 4c 40
        e 16 9c 40 6c
        e 0 9c 44 6c
        e 0 9c 4c 6c
        e 32 8c 47 40
        e 0 8c 40 40
        e 0 8c 44 40
        e 0 8c 4c 40
        e 16 9c 40 6c
        e 0 9c 44 6c
        e 0 9c 47 6c
        e 0 9c 4c 6c
        e 80 8c 40 40
        e 0 8c 44 40
        e 0 8c 47 40
        e 0 8c 4c 40
        e 16 9c 40 6c
        e 0 9c 44 6c
        e 0 9c 47 6c
        e 0 9c 4c 6c
        e 80 8c 40 40
        e 0 8c 44 40
        e 0 8c 47 40
        e 0 8c 4c 40
        e 16 9c 40 6c
        e 0 9c 44 6c
        e 0 9c 47 6c
        e 0 9c 4c 6c
        e 176 8c 40 40
        e 0 8c 44 40
        e 0 8c 47 40
        e 0 8c 4c 40
        e 16 9c 3c 6c
        e 0 9c 40 7f
        e 128 8c 3c 40
        e 0 8c 40 40
        e 16 9c 3e 6c
        e 0 9c 41 7f
        e 32 8c 3e 40
        e 0 8c 41 40
        e 16 9c 40 6c
        e 0 9c 43 7f
        e 80 8c 40 40
        e 16 9c 40 6c
        e 32 8c 40 40
        e 16 9c 40 6c
        e 32 8c 43 40
        e 0 8c 40 40
        e 16 9c 40 6c
        e 0 9c 43 7f
        e 128 8c 40 40
        e 0 8c 43 40
        e 16 9c 41 6c
        e 0 9c 45 7f
        e 32 8c 41 40
        e 0 8c 45 40
        e 16 9c 43 6c
        e 0 9c 46 7f
        e 80 8c 43 40
        e 16 9c 43 6c
        e 32 8c 43 40
        e 16 9c 43 6c
        e 32 8c 46 40
        e 0 8c 43 40
        e 16 9c 43 6c
        e 0 9c 46 7f
        e 128 8c 43 40
        e 0 8c 46 40
        e 16 9c 43 6c
        e 0 9c 46 7f
        e 32 8c 43 40
        e 0 8c 46 40
        e 16 9c 43 6c
        e 0 9c 46 7f
        e 80 8c 43 40
        e 16 9c 43 6c
        e 32 8c 43 40
        e 16 9c 43 6c
        e 32 8c 46 40
        e 0 8c 43 40
        e 16 9c 41 6c
        e 0 9c 45 7f
        e 80 8c 41 40
        e 16 9c 41 6c
        e 80 8c 45 40
        e 0 8c 41 40
        e 16 9c 41 6c
        e 0 9c 45 6c
        e 176 8c 41 40
        e 0 8c 45 40
        e 16 9c 3e 6c
        e 0 9c 42 7f
        e 128 8c 3e 40
        e 0 8c 42 40
        e 16 9c 40 6c
        e 0 9c 43 7f
        e 32 8c 40 40
        e 0 8c 43 40
        e 16 9c 42 6c
        e 0 9c 45 7f
        e 80 8c 42 40
        e 16 9c 42 6c
        e 32 8c 42 40
        e 16 9c 42 6c
        e 32 8c 45 40
        e 0 8c 42 40
        e 16 9c 42 6c
        e 0 9c 45 7f
        e 128 8c 42 40
        e 0 8c 45 40
        e 16 9c 43 6c
        e 0 9c 47 7f
        e 32 8c 43 40
        e 0 8c 47 40
        e 16 9c 45 6c
        e 0 9c 48 7f
        e 80 8c 45 40
        e 16 9c 45 6c
        e 32 8c 45 40
        e 16 9c 45 6c
        e 32 8c 48 40
        e 0 8c 45 40
        e 16 9c 45 6c
        e 0 9c 48 7f
        e 128 8c 45 40
        e 0 8c 48 40
        e 16 9c 45 6c
        e 0 9c 48 7f
        e 32 8c 45 40
        e 0 8c 48 40
        e 16 9c 43 6c
        e 0 9c 47 7f
        e 80 8c 43 40
        e 16 9c 43 6c
        e 32 8c 43 40
        e 16 9c 43 6c
        e 32 8c 43 40
        e 16 9c 43 6c
        e 80 8c 43 40
        e 16 9c 43 6c
        e 80 8c 47 40
        e 0 8c 43 40
        e 16 9c 43 6c
        e 0 9c 47 6c
        e 176 8c 43 40
        e 0 8c 47 40
        e 16 9c 47 7f
        e 0 9c 4f 6c
        e 0 9c 53 6c
        e 128 8c 47 40
        e 0 8c 4f 40
        e 0 8c 53 40
        e 16 9c 47 7f
        e 0 9c 4f 6c
        e 0 9c 53 6c
        e 32 8c 47 40
        e 0 8c 4f 40
        e 0 8c 53 40
        e 16 9c 47 7f
        e 0 9c 4f 6c
        e 0 9c 53 6c
        e 128 8c 47 40
        e 0 8c 4f 40
        e 0 8c 53 40
        e 16 9c 45 7f
        e 0 9c 4d 6c
        e 0 9c 51 6c
        e 32 8c 45 40
        e 0 8c 4d 40
        e 0 8c 51 40
        e 16 9c 47 7f
        e 0 9c 4f 6c
        e 0 9c 53 6c
        e 128 8c 47 40
        e 0 8c 4f 40
        e 0 8c 53 40
        e 16 9c 45 7f
        e 0 9c 4d 6c
        e 0 9c 51 6c
        e 32 8c 45 40
        e 0 8c 4d 40
        e 0 8c 51 40
        e 16 9c 45 7f
        e 0 9c 4d 6c
        e 0 9c 51 6c
        e 128 8c 45 40
        e 0 8c 4d 40
        e 0 8c 51 40
        e 16 9c 43 7f
        e 0 9c 4c 6c
        e 0 9c 4f 6c
        e 32 8c 43 40
        e 0 8c 4c 40
        e 0 8c 4f 40
        e 16 9c 45 7f
        e 0 9c 4d 6c
        e 0 9c 51 6c
        e 128 8c 45 40
        e 0 8c 4d 40
        e 0 8c 51 40
        e 16 9c 43 7f
        e 0 9c 4c 6c
        e 0 9c 4f 6c
        e 32 8c 43 40
        e 0 8c 4c 40
        e 0 8c 4f 40
        e 16 9c 45 7f
        e 0 9c 4d 6c
        e 0 9c 51 6c
        e 272 8c 45 40
        e 0 8c 4d 40
        e 0 8c 51 40
        e 16 9c 43 7f
        e 0 9c 4c 6c
        e 0 9c 4f 6c
        e 80 8c 43 40
        e 0 8c 4c 40
        e 0 8c 4f 40
        e 16 9c 40 7f
        e 0 9c 48 6c
        e 0 9c 4c 6c
        e 176 8c 40 40
        e 0 8c 48 40
        e 0 8c 4c 40
        e 16 9c 48 7f
        e 0 9c 54 6c
        e 128 8c 48 40
        e 0 8c 54 40
        e 16 9c 47 7f
        e 0 9c 4f 6c
        e 0 9c 53 6c
        e 32 8c 47 40
        e 0 8c 4f 40
        e 0 8c 53 40
        e 16 9c 47 7f
        e 0 9c 4f 6c
        e 0 9c 53 6c
        e 128 8c 47 40
        e 0 8c 4f 40
        e 0 8c 53 40
        e 16 9c 45 7f
        e 0 9c 4d 6c
        e 0 9c 51 6c
        e 32 8c 45 40
        e 0 8c 4d 40
        e 0 8c 51 40
        e 16 9c 47 7f
        e 0 9c 4f 6c
        e 0 9c 53 6c
        e 128 8c 47 40
        e 0 8c 4f 40
        e 0 8c 53 40
        e 16 9c 45 7f
        e 0 9c 4d 6c
        e 0 9c 51 6c
        e 32 8c 45 40
        e 0 8c 4d 40
        e 0 8c 51 40
        e 16 9c 45 7f
        e 0 9c 4d 6c
        e 0 9c 51 6c
        e 128 8c 45 40
        e 0 8c 4d 40
        e 0 8c 51 40
        e 16 9c 43 7f
        e 0 9c 4c 6c
        e 0 9c 4f 6c
        e 32 8c 43 40
        e 0 8c 4c 40
        e 0 8c 4f 40
        e 16 9c 45 7f
        e 0 9c 4d 6c
        e 0 9c 51 6c
        e 128 8c 45 40
        e 0 8c 4d 40
        e 0 8c 51 40
        e 16 9c 43 7f
        e 0 9c 4c 6c
        e 0 9c 4f 6c
        e 32 8c 43 40
        e 0 8c 4c 40
        e 0 8c 4f 40
        e 16 9c 40 7f
        e 0 9c 48 6c
        e 0 9c 4c 6c
        e 80 8c 48 40
        e 0 8c 4c 40
        e 16 9c 3c 6c
        e 0 9c 48 6c
        e 32 8c 3c 40
        e 0 8c 48 40
        e 16 9c 3c 6c
        e 0 9c 48 6c
        e 32 8c 40 40
        e 0 8c 3c 40
        e 0 8c 48 40
        e 16 9c 3c 7f
        e 0 9c 48 6c
        e 80 8c 3c 40
        e 0 8c 48 40
        e 16 9c 3e 7f
        e 0 9c 4a 6c
        e 80 8c 3e 40
        e 0 8c 4a 40
        e 16 9c 40 7f
        e 0 9c 4c 6c
        e 80 8c 40 40
        e 0 8c 4c 40
        e 16 9c 41 7f
        e 0 9c 4d 6c
        e 80 8c 41 40
        e 0 8c 4d 40
        e 16 9c 43 7f
        e 0 9c 4f 6c
        e 80 8c 43 40
        e 0 8c 4f 40
        e 16 9c 45 7f
        e 0 9c 51 6c
        e 80 8c 45 40
        e 0 8c 51 40
        e 16 9c 46 7f
        e 0 9c 52 6c
        e 80 8c 52 40
        e 16 9c 40 6c
        e 0 9c 43 6c
        e 0 9c 49 6c
        e 32 8c 40 40
        e 0 8c 43 40
        e 0 8c 49 40
        e 16 9c 40 6c
        e 0 9c 43 6c
        e 0 9c 49 6c
        e 32 8c 40 40
        e 0 8c 43 40
        e 0 8c 49 40
        e 16 9c 40 6c
        e 0 9c 43 6c
        e 0 9c 49 6c
        e 128 8c 40 40
        e 0 8c 43 40
        e 0 8c 49 40
        e 16 9c 40 6c
        e 0 9c 43 6c
        e 0 9c 49 6c
        e 32 8c 46 40
        e 0 8c 40 40
        e 0 8c 43 40
        e 0 8c 49 40
        e 16 9c 41 6c
        e 0 9c 45 6c
        e 0 9c 4a 7f
        e 176 8c 41 40
        e 0 8c 45 40
        e 0 8c 4a 40
        e 16 9c 40 6c
        e 0 9c 43 6c
        e 0 9c 45 6c
        e 0 9c 49 7f
        e 176 8c 40 40
        e 0 8c 43 40
        e 0 8c 45 40
        e 0 8c 49 40
        e 16 9c 3e 6c
        e 0 9c 45 6c
        e 0 9c 4a 7f
        e 176 8c 3e 40
        e 0 8c 45 40
        e 0 8c 4a 40
        e 16 9c 3e 6c
        e 0 9c 45 6c
        e 0 9c 4a 7f
        e 176 8c 3e 40
        e 0 8c 45 40
        e 0 8c 4a 40
        e 208 9c 48 7f
        e 0 9c 4b 6c
        e 0 9c 51 6c
        e 128 8c 48 40
        e 0 8c 4b 40
        e 0 8c 51 40
        e 16 9c 48 7f
        e 0 9c 4b 6c
        e 0 9c 51 6c
        e 32 8c 48 40
        e 0 8c 4b 40
        e 0 8c 51 40
        e 16 9c 48 6c
        e 0 9c 4c 7f
        e 0 9c 4f 6c
        e 176 8c 48 40
        e 0 8c 4c 40
        e 0 8c 4f 40
        e 16 9c 43 6c
        e 0 9c 48 7f
        e 0 9c 4c 6c
        e 128 8c 43 40
        e 0 8c 48 40
        e 0 8c 4c 40
        e 16 9c 43 6c
        e 0 9c 48 7f
        e 0 9c 4c 6c
        e 32 8c 43 40
        e 0 8c 48 40
        e 0 8c 4c 40
        e 16 9c 43 6c
        e 0 9c 4a 7f
        e 0 9c 4d 6c
        e 176 8c 43 40
        e 0 8c 4a 40
        e 0 8c 4d 40
        e 16 9c 43 6c
        e 0 9c 47 7f
        e 0 9c 4a 6c
        e 128 8c 43 40
        e 0 8c 47 40
        e 0 8c 4a 40
        e 16 9c 43 6c
        e 0 9c 47 7f
        e 0 9c 4a 6c
        e 32 8c 43 40
        e 0 8c 47 40
        e 0 8c 4a 40
        e 16 9c 43 6c
        e 0 9c 48 7f
        e 0 9c 4c 6c
        e 176 8c 43 40
        e 0 8c 48 40
        e 0 8c 4c 40
        e 16 9c 34 6c
        e 48 8c 34 40
        e 16 9c 35 6c
        e 48 8c 35 40
        e 16 9c 37 6c
        e 48 8c 37 40
        e 16 9c 39 6c
        e 48 8c 39 40
        e 16 9c 3b 6c
        e 48 8c 3b 40
        e 16 9c 3c 6c
        e 48 8c 3c 40
        e 16 9c 3e 6c
        e 0 9c 48 7f
        e 48 8c 3e 40
        e 16 9c 40 6c
        e 48 8c 40 40
        e 16 8c 48 40
        e 0 9c 41 6c
        e 16 9c 48 7f
        e 30 8c 48 40
        e 2 8c 41 40
        e 16 9c 43 6c
        e 0 9c 48 7f
        e 80 8c 43 40
        e 16 9c 4c 6c
        e 0 9c 4d 6c
        e 0 9c 4f 6c
        e 0 9c 54 6c
        e 32 8c 4c 40
        e 0 8c 4d 40
        e 0 8c 4f 40
        e 0 8c 54 40
        e 16 9c 4c 6c
        e 0 9c 4f 6c
        e 0 9c 54 6c
        e 32 8c 48 40
        e 0 8c 4c 40
        e 0 8c 4f 40
        e 0 8c 54 40
        e 16 9c 48 7f
        e 0 9c 4c 6c
        e 0 9c 4f 6c
        e 0 9c 54 6c
        e 80 8c 4c 40
        e 0 8c 4f 40
        e 0 8c 54 40
        e 16 9c 4c 6c
        e 0 9c 4f 6c
        e 0 9c 54 6c
        e 32 8c 48 40
        e 16 9c 48 7f
        e 32 8c 4c 40
        e 0 8c 4f 40
        e 0 8c 54 40
        e 0 8c 48 40
        e 16 9c 4a 7f
        e 0 9c 4d 6c
        e 0 9c 4f 6c
        e 0 9c 53 6c
        e 80 8c 4d 40
        e 0 8c 4f 40
        e 0 8c 53 40
        e 16 9c 4d 6c
        e 0 9c 4f 6c
        e 0 9c 53 6c
        e 32 8c 4d 40
        e 0 8c 4f 40
        e 0 8c 53 40
        e 16 9c 4d 6c
        e 0 9c 4f 6c
        e 0 9c 53 6c
        e 32 8c 4a 40
        e 0 8c 4d 40
        e 0 8c 4f 40
        e 0 8c 53 40
        e 16 9c 47 7f
        e 0 9c 4a 6c
        e 0 9c 4d 6c
        e 0 9c 4f 6c
        e 0 9c 53 6c
        e 80 8c 4a 40
        e 0 8c 4d 40
        e 0 8c 4f 40
        e 0 8c 53 40
        e 16 9c 4a 6c
        e 0 9c 4d 6c
        e 0 9c 4f 6c
        e 0 9c 53 6c
        e 32 8c 47 40
        e 16 9c 47 7f
        e 30 8c 47 40
        e 2 8c 4a 40
        e 0 8c 4d 40
        e 0 8c 4f 40
        e 0 8c 53 40
        e 16 9c 48 7f
        e 0 9c 4c 6c
        e 0 9c 54 6c
        e 176 8c 48 40
        e 0 8c 4c 40
        e 0 8c 54 40
        e 16 9c 34 6c
        e 48 8c 34 40
        e 16 9c 35 6c
        e 48 8c 35 40
        e 16 9c 37 6c
        e 48 8c 37 40
        e 16 9c 39 6c
        e 48 8c 39 40
        e 16 9c 3b 6c
        e 48 8c 3b 40
        e 16 9c 3c 6c
        e 48 8c 3c 40
        e 16 9c 3e 6c
        e 0 9c 48 7f
        e 48 8c 3e 40
        e 16 9c 40 6c
        e 48 8c 40 40
        e 16 8c 48 40
        e 0 9c 41 6c
        e 16 9c 48 7f
        e 32 8c 41 40
        e 0 8c 48 40
        e 16 9c 43 6c
        e 0 9c 4c 7f
        e 80 8c 43 40
        e 16 9c 48 6c
        e 0 9c 54 6c
        e 32 8c 48 40
        e 0 8c 54 40
        e 16 9c 48 6c
        e 0 9c 4f 6c
        e 0 9c 54 6c
        e 30 8c 4c 40
        e 2 8c 48 40
        e 0 8c 4f 40
        e 0 8c 54 40
        e 16 9c 48 7f
        e 0 9c 4c 6c
        e 0 9c 4f 6c
        e 0 9c 54 6c
        e 80 8c 4c 40
        e 0 8c 4f 40
        e 0 8c 54 40
        e 16 9c 4c 6c
        e 0 9c 4f 6c
        e 0 9c 54 6c
        e 27 8c 48 40
        e 21 9c 48 7f
        e 32 8c 4c 40
        e 0 8c 4f 40
        e 0 8c 54 40
        e 0 8c 48 40
        e 16 9c 4a 7f
        e 0 9c 4d 6c
        e 0 9c 4f 6c
        e 0 9c 53 6c
        e 80 8c 4d 40
        e 0 8c 4f 40
        e 0 8c 53 40
        e 16 9c 4d 6c
        e 0 9c 4f 6c
        e 0 9c 53 6c
        e 32 8c 4d 40
        e 0 8c 4f 40
        e 0 8c 53 40
        e 16 9c 4d 6c
        e 0 9c 4f 6c
        e 0 9c 53 6c
        e 32 8c 4a 40
        e 0 8c 4d 40
        e 0 8c 4f 40
        e 0 8c 53 40
        e 16 9c 47 7f
        e 0 9c 4a 6c
        e 0 9c 4d 6c
        e 0 9c 4f 6c
        e 0 9c 53 6c
        e 80 8c 4a 40
        e 0 8c 4d 40
        e 0 8c 4f 40
        e 0 8c 53 40
        e 16 9c 4a 6c
        e 0 9c 4d 6c
        e 0 9c 4f 6c
        e 0 9c 53 6c
        e 32 8c 47 40
        e 16 9c 47 7f
        e 32 8c 4a 40
        e 0 8c 4d 40
        e 0 8c 4f 40
        e 0 8c 53 40
        e 0 8c 47 40
        e 16 9c 48 7f
        e 0 9c 4c 6c
        e 0 9c 4f 6c
        e 0 9c 54 6c
        e 176 8c 48 40
        e 0 8c 4c 40
        e 0 8c 4f 40
        e 0 8c 54 40
        e 16 9c 48 6c
        e 48 8c 48 40
        e 16 9c 43 6c
        e 48 8c 43 40
        e 16 9c 4c 6c
        e 48 8c 4c 40
        e 16 9c 48 6c
        e 48 8c 48 40
        e 16 9c 43 6c
        e 48 8c 43 40
        e 16 9c 4c 6c
        e 48 8c 4c 40
        e 16 9c 48 6c
        e 48 8c 48 40
        e 16 9c 43 6c
        e 48 8c 43 40
        e 16 9c 4c 6c
        e 48 8c 4c 40
        e 16 9c 48 6c
        e 48 8c 48 40
        e 16 9c 54 6c
        e 48 8c 54 40
        e 16 9c 53 6c
        e 48 8c 53 40
        e 16 9c 54 6c
        e 48 8c 54 40
        e 16 9c 4f 6c
        e 48 8c 4f 40
        e 16 9c 4c 6c
        e 48 8c 4c 40
        e 16 9c 48 6c
        e 48 8c 48 40
        e 16 9c 48 6c
        e 48 8c 48 40
        e 16 9c 47 6c
        e 48 8c 47 40
        e 16 9c 48 6c
        e 48 8c 48 40
        e 16 9c 43 6c
        e 48 8c 43 40
        e 16 9c 40 6c
        e 48 8c 40 40
        e 16 9c 3c 6c
        e 176 8c 3c 40
        e 16 9c 40 6c
        e 0 9c 43 6c
        e 0 9c 48 6c
        e 128 8c 40 40
        e 0 8c 43 40
        e 0 8c 48 40
        e 16 9c 40 6c
        e 0 9c 43 6c
        e 0 9c 48 6c
        e 32 8c 40 40
        e 0 8c 43 40
        e 0 8c 48 40
        e 16 9c 40 6c
        e 0 9c 43 6c
        e 0 9c 48 6c
        e 176 8c 40 40
        e 0 8c 43 40
        e 0 8c 48 40
        E 16 b0 7b 00
        GUID {044DFE4A-348A-1648-87B3-9ECE2324C939}
        IGNTEMPO 0 120 4 4
        SRCCOLOR 728
        VELLANE -1 86 6
        CFGEDITVIEW 28619.354567 52.566141 50 24 0 0 0 0 0 0.5
        KEYSNAP 0
        TRACKSEL 226 0 0 ""
        EVTFILTER 0 -1 -1 -1 -1 0 1 0 0 -1 -1 -1 -1 0 -1 0 -1 -1
        CFGEDIT 1 0 0 0 0 0 1 0 1 1 1 0.25 16 63 1280 778 0 0 2 3 0 0 0 0 0 0.5 0 0 1 64
      >
      TAKE
      NAME "rh                   - National_Anthems_-_Chile.mid"
      TAKEVOLPAN 0 1 -1
      SOFFS 21.5 43
      PLAYRATE 1 1 0 -1 0 0.0025
      CHANMODE 0
      GUID {9BD73124-F93D-0843-9F15-4636EA8E1299}
      <SOURCE MIDI
        HASDATA 1 192 QN
        POOLEDEVTS {EF9F5A8E-E557-7C43-90C0-C5806DC8C839}
        <X 0 0
          /wNyaCAgICAgICAgICAgICAgICAgIA==
        >
        e 720 9c 4f 6c
        e 16 9c 51 6c
        e 6 8c 4f 40
        e 2 9c 53 6c
        e 14 8c 51 40
        e 8 8c 53 40
        e 2 9c 48 6c
        e 0 9c 54 6c
        e 334 8c 48 40
        e 0 8c 54 40
        e 2 9c 47 6c
        e 0 9c 53 6c
        e 46 8c 47 40
        e 0 8c 53 40
        e 2 9c 48 6c
        e 0 9c 54 6c
        e 142 8c 48 40
        e 0 8c 54 40
        e 2 9c 44 6c
        e 0 9c 50 6c
        e 46 8c 44 40
        e 0 8c 50 40
        e 2 9c 45 6c
        e 0 9c 51 6c
        e 142 8c 45 40
        e 0 8c 51 40
        e 2 9c 40 6c
        e 0 9c 4c 6c
        e 46 8c 40 40
        e 0 8c 4c 40
        e 2 9c 41 6c
        e 0 9c 4d 6c
        e 142 8c 41 40
        e 0 8c 4d 40
        e 2 9c 3d 6c
        e 0 9c 49 6c
        e 46 8c 3d 40
        e 0 8c 49 40
        e 2 9c 3e 6c
        e 0 9c 4a 6c
        e 142 8c 3e 40
        e 0 8c 4a 40
        e 2 9c 3a 6c
        e 0 9c 46 6c
        e 46 8c 3a 40
        e 0 8c 46 40
        e 2 9c 3b 6c
        e 0 9c 47 6c
        e 190 8c 3b 40
        e 0 8c 47 40
        e 50 9c 43 6c
        e 22 8c 43 40
        e 2 9c 45 6c
        e 22 8c 45 40
        e 2 9c 47 6c
        e 22 8c 47 40
        e 2 9c 48 6c
        e 22 8c 48 40
        e 2 9c 4a 6c
        e 22 8c 4a 40
        e 2 9c 4c 6c
        e 22 8c 4c 40
        e 98 9c 47 6c
        e 0 9c 4a 6c
        e 0 9c 4d 6c
        e 46 8c 47 40
        e 0 8c 4a 40
        e 0 8c 4d 40
        e 2 9c 47 6c
        e 0 9c 4a 6c
        e 0 9c 4d 6c
        e 46 8c 47 40
        e 0 8c 4a 40
        e 0 8c 4d 40
        e 2 9c 47 6c
        e 0 9c 4a 6c
        e 0 9c 4d 6c
        e 94 8c 47 40
        e 0 8c 4a 40
        e 0 8c 4d 40
        e 2 9c 47 6c
        e 0 9c 4a 6c
        e 0 9c 4d 6c
        e 94 8c 47 40
        e 0 8c 4a 40
        e 0 8c 4d 40
        e 2 9c 47 6c
        e 0 9c 4a 6c
        e 0 9c 4d 6c
        e 94 8c 47 40
        e 0 8c 4a 40
        e 0 8c 4d 40
        e 2 9c 47 6c
        e 0 9c 4a 6c
        e 0 9c 4d 6c
        e 94 8c 47 40
        e 0 8c 4a 40
        e 0 8c 4d 40
        e 2 9c 48 6c
        e 0 9c 4d 6c
        e 94 8c 48 40
        e 0 8c 4d 40
        e 2 9c 4a 6c
        e 0 9c 4d 6c
        e 94 8c 4a 40
        e 0 8c 4d 40
        e 2 9c 43 6c
        e 0 9c 48 6c
        e 0 9c 4c 6c
        e 94 8c 43 40
        e 0 8c 48 40
        e 0 8c 4c 40
        e 2 9c 4c 6c
        e 46 8c 4c 40
        e 2 9c 4d 6c
        e 46 8c 4d 40
        e 2 9c 41 6c
        e 0 9c 47 6c
        e 0 9c 4a 6c
        e 94 8c 41 40
        e 0 8c 47 40
        e 0 8c 4a 40
        e 2 9c 4a 6c
        e 46 8c 4a 40
        e 2 9c 4c 6c
        e 46 8c 4c 40
        e 2 9c 40 6c
        e 0 9c 48 6c
        e 190 8c 40 40
        e 0 8c 48 40
        e 26 9c 48 6c
        e 22 8c 48 40
        e 2 9c 4a 6c
        e 22 8c 4a 40
        e 2 9c 4c 6c
        e 22 8c 4c 40
        e 2 9c 4d 6c
        e 22 8c 4d 40
        e 2 9c 4f 6c
        e 22 8c 4f 40
        e 2 9c 51 6c
        e 22 8c 51 40
        e 2 9c 53 6c
        e 22 8c 53 40
        e 2 9c 54 6c
        e 94 8c 54 40
        e 2 9c 51 6c
        e 0 9c 54 6c
        e 46 8c 51 40
        e 0 8c 54 40
        e 2 9c 51 6c
        e 0 9c 54 6c
        e 46 8c 51 40
        e 0 8c 54 40
        e 2 9c 51 6c
        e 0 9c 54 6c
        e 94 8c 51 40
        e 0 8c 54 40
        e 2 9c 51 6c
        e 0 9c 54 6c
        e 94 8c 51 40
        e 0 8c 54 40
        e 2 9c 51 6c
        e 0 9c 54 6c
        e 94 8c 51 40
        e 0 8c 54 40
        e 2 9c 50 6c
        e 0 9c 53 6c
        e 46 8c 50 40
        e 0 8c 53 40
        e 2 9c 51 6c
        e 0 9c 54 6c
        e 46 8c 51 40
        e 0 8c 54 40
        e 2 9c 53 6c
        e 0 9c 56 6c
        e 46 8c 53 40
        e 0 8c 56 40
        e 2 9c 51 6c
        e 0 9c 54 6c
        e 46 8c 51 40
        e 0 8c 54 40
        e 2 9c 4f 6c
        e 0 9c 53 6c
        e 46 8c 4f 40
        e 0 8c 53 40
        e 2 9c 4d 6c
        e 0 9c 51 6c
        e 46 8c 4d 40
        e 0 8c 51 40
        e 2 9c 4c 6c
        e 0 9c 4f 6c
        e 94 8c 4c 40
        e 0 8c 4f 40
        e 2 9c 4f 6c
        e 46 8c 4f 40
        e 2 9c 51 6c
        e 46 8c 51 40
        e 2 9c 4a 6c
        e 0 9c 4d 6c
        e 94 8c 4a 40
        e 0 8c 4d 40
        e 2 9c 4d 6c
        e 46 8c 4d 40
        e 2 9c 4f 6c
        e 46 8c 4f 40
        e 2 9c 48 6c
        e 0 9c 4c 6c
        e 190 8c 48 40
        e 0 8c 4c 40
        e 26 9c 3c 6c
        e 22 8c 3c 40
        e 2 9c 3e 6c
        e 22 8c 3e 40
        e 2 9c 40 6c
        e 22 8c 40 40
        e 2 9c 41 6c
        e 22 8c 41 40
        e 2 9c 43 6c
        e 22 8c 43 40
        e 2 9c 45 6c
        e 22 8c 45 40
        e 2 9c 47 6c
        e 22 8c 47 40
        e 2 9c 48 6c
        e 80 8c 48 40
        e 16 9c 3c 6c
        e 0 9c 3f 6c
        e 0 9c 44 6c
        e 0 9c 48 6c
        e 32 8c 3c 40
        e 0 8c 3f 40
        e 0 8c 44 40
        e 0 8c 48 40
        e 16 9c 3c 6c
        e 0 9c 3f 6c
        e 0 9c 44 6c
        e 0 9c 48 6c
        e 32 8c 3c 40
        e 0 8c 3f 40
        e 0 8c 44 40
        e 0 8c 48 40
        e 16 9c 3c 6c
        e 0 9c 3f 6c
        e 0 9c 44 6c
        e 0 9c 48 6c
        e 80 8c 3c 40
        e 0 8c 3f 40
        e 0 8c 44 40
        e 0 8c 48 40
        e 16 9c 3c 6c
        e 0 9c 3f 6c
        e 0 9c 44 6c
        e 0 9c 48 6c
        e 80 8c 3c 40
        e 0 8c 3f 40
        e 0 8c 44 40
        e 0 8c 48 40
        e 16 9c 3c 6c
        e 0 9c 3f 6c
        e 0 9c 44 6c
        e 0 9c 48 6c
        e 80 8c 3c 40
        e 0 8c 3f 40
        e 0 8c 44 40
        e 0 8c 48 40
        e 16 9c 3e 6c
        e 0 9c 48 6c
        e 0 9c 4a 6c
        e 80 8c 3e 40
        e 0 8c 48 40
        e 0 8c 4a 40
        e 16 9c 3f 6c
        e 0 9c 48 6c
        e 0 9c 4b 6c
        e 80 8c 3f 40
        e 0 8c 48 40
        e 0 8c 4b 40
        e 16 9c 42 6c
        e 0 9c 48 6c
        e 0 9c 4b 6c
        e 0 9c 4e 6c
        e 80 8c 42 40
        e 0 8c 48 40
        e 0 8c 4b 40
        e 0 8c 4e 40
        e 16 9c 43 6c
        e 0 9c 48 6c
        e 0 9c 4c 6c
        e 0 9c 4f 6c
        e 80 8c 43 40
        e 0 8c 48 40
        e 0 8c 4c 40
        e 0 8c 4f 40
        e 16 9c 43 6c
        e 0 9c 48 6c
        e 0 9c 4c 6c
        e 0 9c 4f 6c
        e 32 8c 43 40
        e 0 8c 48 40
        e 0 8c 4c 40
        e 0 8c 4f 40
        e 16 9c 43 6c
        e 0 9c 48 6c
        e 0 9c 4c 6c
        e 0 9c 4f 6c
        e 32 8c 43 40
        e 0 8c 48 40
        e 0 8c 4c 40
        e 0 8c 4f 40
        e 16 9c 43 6c
        e 0 9c 48 6c
        e 0 9c 4c 6c
        e 80 8c 43 40
        e 0 8c 48 40
        e 0 8c 4c 40
        e 16 9c 43 6c
        e 0 9c 48 6c
        e 0 9c 4c 6c
        e 80 8c 43 40
        e 0 8c 48 40
        e 0 8c 4c 40
        e 16 9c 43 6c
        e 0 9c 47 6c
        e 0 9c 4a 6c
        e 0 9c 4f 6c
        e 80 8c 43 40
        e 0 8c 47 40
        e 0 8c 4a 40
        e 0 8c 4f 40
        e 16 9c 43 6c
        e 0 9c 47 6c
        e 0 9c 4a 6c
        e 0 9c 4f 6c
        e 32 8c 43 40
        e 0 8c 47 40
        e 0 8c 4a 40
        e 0 8c 4f 40
        e 16 9c 43 6c
        e 0 9c 47 6c
        e 0 9c 4a 6c
        e 0 9c 4f 6c
        e 32 8c 43 40
        e 0 8c 47 40
        e 0 8c 4a 40
        e 0 8c 4f 40
        e 16 9c 43 6c
        e 0 9c 47 6c
        e 0 9c 4a 6c
        e 80 8c 43 40
        e 0 8c 47 40
        e 0 8c 4a 40
        e 16 9c 43 6c
        e 0 9c 47 6c
        e 0 9c 4a 6c
        e 32 8c 43 40
        e 0 8c 47 40
        e 0 8c 4a 40
        e 64 9c 40 6c
        e 0 9c 43 6c
        e 0 9c 48 6c
        e 176 8c 40 40
        e 0 8c 43 40
        e 0 8c 48 40
        e 112 9c 43 6c
        e 16 8c 43 40
        e 16 9c 45 6c
        e 16 8c 45 40
        e 16 9c 47 6c
        e 16 8c 47 40
        e 16 9c 48 6c
        e 80 8c 48 40
        e 16 9c 43 6c
        e 16 8c 43 40
        e 16 9c 45 6c
        e 16 8c 45 40
        e 16 9c 47 6c
        e 16 8c 47 40
        e 16 9c 48 6c
        e 80 8c 48 40
        e 16 9c 43 6c
        e 16 8c 43 40
        e 16 9c 45 6c
        e 16 8c 45 40
        e 16 9c 47 6c
        e 16 8c 47 40
        e 16 9c 48 6c
        e 176 8c 48 40
        e 16 9c 40 6c
        e 0 9c 43 6c
        e 0 9c 48 6c
        e 128 8c 40 40
        e 0 8c 43 40
        e 0 8c 48 40
        e 16 9c 40 6c
        e 0 9c 43 6c
        e 0 9c 48 6c
        e 32 8c 40 40
        e 0 8c 43 40
        e 0 8c 48 40
        e 16 9c 40 6c
        e 0 9c 43 6c
        e 0 9c 48 6c
        e 176 8c 40 40
        e 0 8c 43 40
        e 0 8c 48 40
        e 16 9c 43 7f
        e 128 8c 43 40
        e 16 9c 48 7f
        e 32 8c 48 40
        e 16 9c 40 6c
        e 0 9c 48 7f
        e 128 8c 40 40
        e 0 8c 48 40
        e 16 9c 43 6c
        e 0 9c 47 7f
        e 32 8c 43 40
        e 0 8c 47 40
        e 16 9c 43 6c
        e 0 9c 47 7f
        e 128 8c 43 40
        e 0 8c 47 40
        e 16 9c 41 6c
        e 0 9c 45 7f
        e 32 8c 41 40
        e 0 8c 45 40
        e 16 9c 41 6c
        e 0 9c 45 7f
        e 128 8c 41 40
        e 0 8c 45 40
        e 16 9c 40 6c
        e 0 9c 43 7f
        e 32 8c 40 40
        e 0 8c 43 40
        e 16 9c 40 6c
        e 0 9c 43 7f
        e 128 8c 40 40
        e 0 8c 43 40
        e 16 9c 3f 6c
        e 0 9c 42 7f
        e 32 8c 3f 40
        e 0 8c 42 40
        e 16 9c 40 6c
        e 0 9c 43 7f
        e 272 8c 40 40
        e 0 8c 43 40
        e 16 9c 3e 6c
        e 0 9c 41 7f
        e 80 8c 3e 40
        e 0 8c 41 40
        e 16 9c 3c 6c
        e 0 9c 40 7f
        e 176 8c 3c 40
        e 0 8c 40 40
        e 16 9c 3b 6c
        e 0 9c 3e 7f
        e 128 8c 3b 40
        e 0 8c 3e 40
        e 16 9c 3c 6c
        e 0 9c 40 7f
        e 32 8c 3c 40
        e 0 8c 40 40
        e 16 9c 3e 6c
        e 0 9c 41 7f
        e 80 8c 3e 40
        e 48 8c 41 40
        e 16 9c 43 7f
        e 32 8c 43 40
        e 16 9c 3e 6c
        e 0 9c 41 6c
        e 0 9c 45 7f
        e 48 8c 45 40
        e 16 9c 43 7f
        e 16 8c 3e 40
        e 0 8c 41 40
        e 32 8c 43 40
        e 16 9c 41 7f
        e 48 8c 41 40
        e 16 9c 3c 6c
        e 0 9c 40 7f
        e 80 8c 3c 40
        e 48 8c 40 40
        e 16 9c 41 7f
        e 32 8c 41 40
        e 16 9c 3c 6c
        e 0 9c 40 6c
        e 0 9c 43 7f
        e 48 8c 43 40
        e 16 9c 41 7f
        e 16 8c 3c 40
        e 0 8c 40 40
        e 32 8c 41 40
        e 16 9c 40 7f
        e 48 8c 40 40
        e 16 9c 3b 6c
        e 0 9c 3e 7f
        e 0 9c 43 6c
        e 80 8c 3b 40
        e 0 8c 43 40
        e 16 9c 3b 6c
        e 0 9c 43 6c
        e 32 8c 3b 40
        e 0 8c 43 40
        e 16 9c 3b 6c
        e 0 9c 43 6c
        e 32 8c 3e 40
        e 0 8c 3b 40
        e 0 8c 43 40
        e 16 9c 3b 6c
        e 0 9c 3e 6c
        e 0 9c 43 6c
        e 80 8c 3b 40
        e 0 8c 3e 40
        e 0 8c 43 40
        e 16 9c 3b 6c
        e 0 9c 3e 6c
        e 0 9c 43 6c
        e 80 8c 3b 40
        e 0 8c 3e 40
        e 0 8c 43 40
        e 16 9c 3b 6c
        e 0 9c 3e 6c
        e 0 9c 43 6c
        e 80 8c 3b 40
        e 0 8c 3e 40
        e 0 8c 43 40
        e 112 9c 43 7f
        e 128 8c 43 40
        e 16 9c 48 7f
        e 32 8c 48 40
        e 16 9c 40 6c
        e 0 9c 48 7f
        e 128 8c 40 40
        e 0 8c 48 40
        e 16 9c 43 6c
        e 0 9c 47 7f
        e 32 8c 43 40
        e 0 8c 47 40
        e 16 9c 43 6c
        e 0 9c 47 7f
        e 128 8c 43 40
        e 0 8c 47 40
        e 16 9c 41 6c
        e 0 9c 45 7f
        e 32 8c 41 40
        e 0 8c 45 40
        e 16 9c 41 6c
        e 0 9c 45 7f
        e 128 8c 41 40
        e 0 8c 45 40
        e 16 9c 40 6c
        e 0 9c 43 7f
        e 32 8c 40 40
        e 0 8c 43 40
        e 16 9c 40 6c
        e 0 9c 43 7f
        e 128 8c 40 40
        e 0 8c 43 40
        e 16 9c 3f 6c
        e 0 9c 42 7f
        e 32 8c 3f 40
        e 0 8c 42 40
        e 16 9c 40 6c
        e 0 9c 43 7f
        e 272 8c 40 40
        e 0 8c 43 40
        e 16 9c 3e 6c
        e 0 9c 41 7f
        e 80 8c 3e 40
        e 0 8c 41 40
        e 16 9c 3c 6c
        e 0 9c 40 7f
        e 176 8c 3c 40
        e 0 8c 40 40
        e 16 9c 3c 6c
        e 0 9c 40 6c
        e 0 9c 43 7f
        e 128 8c 3c 40
        e 0 8c 40 40
        e 0 8c 43 40
        e 16 9c 3c 6c
        e 0 9c 40 6c
        e 0 9c 48 7f
        e 32 8c 3c 40
        e 0 8c 40 40
        e 0 8c 48 40
        e 16 9c 3b 6c
        e 0 9c 3e 6c
        e 0 9c 43 6c
        e 0 9c 47 7f
        e 80 8c 3b 40
        e 0 8c 3e 40
        e 0 8c 43 40
        e 48 8c 47 40
        e 16 9c 46 7f
        e 32 8c 46 40
        e 16 9c 3b 6c
        e 0 9c 3e 6c
        e 0 9c 43 6c
        e 0 9c 47 7f
        e 80 8c 3b 40
        e 0 8c 3e 40
        e 0 8c 43 40
        e 48 8c 47 40
        e 16 9c 48 7f
        e 32 8c 48 40
        e 16 9c 39 6c
        e 0 9c 3e 6c
        e 0 9c 42 6c
        e 0 9c 45 7f
        e 80 8c 39 40
        e 0 8c 3e 40
        e 0 8c 42 40
        e 48 8c 45 40
        e 16 9c 44 7f
        e 32 8c 44 40
        e 16 9c 39 6c
        e 0 9c 3e 6c
        e 0 9c 42 6c
        e 0 9c 45 7f
        e 80 8c 39 40
        e 0 8c 3e 40
        e 0 8c 42 40
        e 48 8c 45 40
        e 16 9c 47 7f
        e 32 8c 47 40
        e 16 9c 3b 6c
        e 0 9c 3e 6c
        e 0 9c 43 7f
        e 176 8c 3b 40
        e 0 8c 3e 40
        e 16 9c 3b 6c
        e 0 9c 3e 6c
        e 128 8c 3b 40
        e 0 8c 3e 40
        e 16 9c 3b 6c
        e 0 9c 3e 6c
        e 32 8c 43 40
        e 0 8c 3b 40
        e 0 8c 3e 40
        e 16 9c 3b 6c
        e 0 9c 3e 6c
        e 0 9c 43 6c
        e 176 8c 3b 40
        e 0 8c 3e 40
        e 0 8c 43 40
        e 16 9c 43 7f
        e 128 8c 43 40
        e 16 9c 43 7f
        e 32 8c 43 40
        e 16 9c 3f 6c
        e 0 9c 43 7f
        e 80 8c 3f 40
        e 16 9c 3a 6c
        e 80 8c 43 40
        e 0 8c 3a 40
        e 16 9c 3f 6c
        e 0 9c 43 7f
        e 80 8c 3f 40
        e 16 9c 3a 6c
        e 32 8c 43 40
        e 16 9c 43 7f
        e 32 8c 3a 40
        e 0 8c 43 40
        e 16 9c 41 6c
        e 0 9c 44 7f
        e 80 8c 41 40
        e 0 8c 44 40
        e 16 9c 3f 6c
        e 0 9c 43 7f
        e 80 8c 3f 40
        e 0 8c 43 40
        e 16 9c 3e 6c
        e 0 9c 41 7f
        e 80 8c 3e 40
        e 0 8c 41 40
        e 16 9c 3f 6c
        e 0 9c 43 7f
        e 80 8c 3f 40
        e 0 8c 43 40
        e 16 9c 41 6c
        e 0 9c 44 7f
        e 80 8c 41 40
        e 16 9c 3a 6c
        e 80 8c 3a 40
        e 16 9c 41 6c
        e 80 8c 44 40
        e 0 8c 41 40
        e 16 9c 3a 6c
        e 0 9c 43 7f
        e 80 8c 3a 40
        e 0 8c 43 40
        e 16 9c 3e 6c
        e 0 9c 41 7f
        e 80 8c 3e 40
        e 16 9c 3a 6c
        e 80 8c 41 40
        e 0 8c 3a 40
        e 16 9c 3e 6c
        e 0 9c 41 6c
        e 0 9c 44 7f
        e 80 8c 3e 40
        e 0 8c 41 40
        e 16 9c 3a 6c
        e 32 8c 44 40
        e 16 9c 44 7f
        e 32 8c 3a 40
        e 0 8c 44 40
        e 16 9c 41 6c
        e 0 9c 44 7f
        e 80 8c 41 40
        e 16 9c 3a 6c
        e 80 8c 44 40
        e 0 8c 3a 40
        e 16 9c 41 6c
        e 0 9c 44 7f
        e 80 8c 41 40
        e 16 9c 3a 6c
        e 32 8c 44 40
        e 16 9c 44 7f
        e 32 8c 3a 40
        e 0 8c 44 40
        e 16 9c 43 6c
        e 0 9c 46 7f
        e 80 8c 43 40
        e 0 8c 46 40
        e 16 9c 41 6c
        e 0 9c 44 7f
        e 80 8c 41 40
        e 0 8c 44 40
        e 16 9c 3f 6c
        e 0 9c 43 7f
        e 80 8c 3f 40
        e 0 8c 43 40
        e 16 9c 41 6c
        e 0 9c 44 7f
        e 80 8c 41 40
        e 0 8c 44 40
        e 16 9c 43 6c
        e 0 9c 46 7f
        e 80 8c 43 40
        e 16 9c 3a 6c
        e 80 8c 3a 40
        e 16 9c 43 6c
        e 80 8c 43 40
        e 16 9c 41 6c
        e 0 9c 44 6c
        e 80 8c 46 40
        e 0 8c 41 40
        e 0 8c 44 40
        e 16 9c 3f 6c
        e 0 9c 43 6c
        e 80 8c 3f 40
        e 0 8c 43 40
        e 16 9c 3a 6c
        e 80 8c 3a 40
        e 16 9c 3f 6c
        e 0 9c 43 7f
        e 80 8c 3f 40
        e 16 9c 3a 6c
        e 32 8c 43 40
        e 16 9c 43 7f
        e 32 8c 3a 40
        e 0 8c 43 40
        e 16 9c 3c 6c
        e 0 9c 3f 6c
        e 0 9c 48 7f
        e 176 8c 3c 40
        e 0 8c 3f 40
        e 0 8c 48 40
        e 16 9c 3c 6c
        e 0 9c 3f 6c
        e 0 9c 48 7f
        e 128 8c 3c 40
        e 0 8c 3f 40
        e 0 8c 48 40
        e 16 9c 3c 6c
        e 0 9c 3f 6c
        e 0 9c 48 7f
        e 32 8c 3c 40
        e 0 8c 3f 40
        e 0 8c 48 40
        e 16 9c 3c 6c
        e 0 9c 3f 6c
        e 0 9c 48 7f
        e 48 8c 48 40
        e 16 9c 46 7f
        e 48 8c 46 40
        e 16 9c 44 7f
        e 48 8c 3c 40
        e 0 8c 3f 40
        e 0 8c 44 40
        e 16 9c 3c 6c
        e 0 9c 3f 6c
        e 0 9c 42 6c
        e 0 9c 44 7f
        e 48 8c 44 40
        e 16 9c 43 7f
        e 48 8c 43 40
        e 16 8c 42 40
        e 0 9c 42 7f
        e 48 8c 3c 40
        e 0 8c 3f 40
        e 0 8c 42 40
        e 16 9c 3b 6c
        e 0 9c 3e 6c
        e 0 9c 43 7f
        e 176 8c 3b 40
        e 0 8c 3e 40
        e 16 9c 3b 6c
        e 0 9c 3e 6c
        e 128 8c 3b 40
        e 0 8c 3e 40
        e 16 9c 3b 6c
        e 0 9c 3e 6c
        e 32 8c 43 40
        e 0 8c 3b 40
        e 0 8c 3e 40
        e 16 9c 3b 6c
        e 0 9c 3e 6c
        e 0 9c 43 6c
        e 176 8c 3b 40
        e 0 8c 3e 40
        e 0 8c 43 40
        e 16 9c 3c 6c
        e 0 9c 40 7f
        e 128 8c 3c 40
        e 0 8c 40 40
        e 16 9c 3c 6c
        e 0 9c 40 7f
        e 32 8c 3c 40
        e 0 8c 40 40
        e 16 9c 3c 6c
        e 0 9c 40 7f
        e 128 8c 3c 40
        e 0 8c 40 40
        e 16 9c 3b 6c
        e 0 9c 3e 7f
        e 32 8c 3b 40
        e 0 8c 3e 40
        e 16 9c 3c 6c
        e 0 9c 40 7f
        e 128 8c 3c 40
        e 0 8c 40 40
        e 16 9c 3b 6c
        e 0 9c 3e 7f
        e 32 8c 3b 40
        e 0 8c 3e 40
        e 16 9c 3c 6c
        e 0 9c 40 7f
        e 128 8c 3c 40
        e 0 8c 40 40
        e 16 9c 3b 6c
        e 0 9c 3e 7f
        e 32 8c 3b 40
        e 0 8c 3e 40
        e 16 9c 3c 6c
        e 0 9c 40 7f
        e 128 8c 3c 40
        e 0 8c 40 40
        e 16 9c 3e 6c
        e 0 9c 41 7f
        e 32 8c 3e 40
        e 0 8c 41 40
        e 16 9c 40 6c
        e 0 9c 43 7f
        e 176 8c 40 40
        e 0 8c 43 40
        e 16 9c 41 6c
        e 0 9c 45 7f
        e 368 8c 41 40
        e 0 8c 45 40
        e 16 9c 3b 6c
        e 0 9c 3e 7f
        e 128 8c 3b 40
        e 0 8c 3e 40
        e 16 9c 3b 6c
        e 0 9c 3e 7f
        e 32 8c 3b 40
        e 0 8c 3e 40
        e 16 9c 3b 6c
        e 0 9c 3e 7f
        e 128 8c 3b 40
        e 0 8c 3e 40
        e 16 9c 39 6c
        e 0 9c 3c 7f
        e 32 8c 39 40
        e 0 8c 3c 40
        e 16 9c 3b 6c
        e 0 9c 3e 7f
        e 128 8c 3b 40
        e 0 8c 3e 40
        e 16 9c 39 6c
        e 0 9c 3c 7f
        e 32 8c 39 40
        e 0 8c 3c 40
        e 16 9c 3b 6c
        e 0 9c 3e 7f
        e 128 8c 3b 40
        e 0 8c 3e 40
        e 16 9c 3c 6c
        e 0 9c 40 7f
        e 32 8c 3c 40
        e 0 8c 40 40
        e 16 9c 3e 6c
        e 0 9c 41 7f
        e 128 8c 3e 40
        e 0 8c 41 40
        e 16 9c 3f 6c
        e 0 9c 42 7f
        e 32 8c 3f 40
        e 0 8c 42 40
        e 16 9c 41 6c
        e 0 9c 45 7f
        e 176 8c 41 40
        e 0 8c 45 40
        e 16 9c 40 6c
        e 0 9c 43 7f
        e 80 8c 40 40
        e 0 8c 43 40
        e 112 9c 45 7f
        e 80 8c 45 40
        e 64 9c 47 7f
        e 32 8c 47 40
        e 16 9c 3c 6c
        e 0 9c 41 6c
        e 0 9c 45 6c
        e 0 9c 48 7f
        e 48 8c 48 40
        e 16 9c 47 7f
        e 48 8c 47 40
        e 16 8c 45 40
        e 0 9c 45 7f
        e 48 8c 3c 40
        e 0 8c 41 40
        e 0 8c 45 40
        e 16 9c 47 7f
        e 128 8c 47 40
        e 16 9c 45 7f
        e 32 8c 45 40
        e 16 9c 3c 6c
        e 0 9c 40 6c
        e 0 9c 43 7f
        e 128 8c 43 40
        e 16 9c 43 7f
        e 32 8c 3c 40
        e 0 8c 40 40
        e 0 8c 43 40
        e 16 9c 41 7f
        e 128 8c 41 40
        e 16 9c 43 7f
        e 32 8c 43 40
        e 16 9c 3b 6c
        e 0 9c 3e 6c
        e 0 9c 41 6c
        e 0 9c 45 7f
        e 48 8c 45 40
        e 16 9c 43 7f
        e 48 8c 43 40
        e 16 8c 41 40
        e 0 9c 41 7f
        e 48 8c 3b 40
        e 0 8c 3e 40
        e 0 8c 41 40
        e 16 9c 43 7f
        e 176 8c 43 40
        e 16 9c 3c 6c
        e 0 9c 40 7f
        e 176 8c 3c 40
        e 0 8c 40 40
        e 16 9c 41 6c
        e 0 9c 45 7f
        e 128 8c 41 40
        e 0 8c 45 40
        e 16 9c 43 6c
        e 0 9c 47 7f
        e 32 8c 43 40
        e 0 8c 47 40
        e 16 9c 45 6c
        e 0 9c 48 7f
        e 48 8c 45 40
        e 0 8c 48 40
        e 16 9c 43 6c
        e 0 9c 47 7f
        e 48 8c 43 40
        e 0 8c 47 40
        e 16 9c 41 6c
        e 0 9c 45 7f
        e 48 8c 41 40
        e 0 8c 45 40
        e 16 9c 40 6c
        e 0 9c 43 7f
        e 128 8c 40 40
        e 0 8c 43 40
        e 16 9c 45 6c
        e 0 9c 48 7f
        e 32 8c 45 40
        e 0 8c 48 40
        e 16 9c 45 6c
        e 0 9c 48 7f
        e 48 8c 45 40
        e 0 8c 48 40
        e 16 9c 43 6c
        e 0 9c 47 7f
        e 48 8c 43 40
        e 0 8c 47 40
        e 16 9c 41 6c
        e 0 9c 45 7f
        e 48 8c 41 40
        e 0 8c 45 40
        e 16 9c 41 6c
        e 0 9c 45 7f
        e 48 8c 41 40
        e 0 8c 45 40
        e 16 9c 40 6c
        e 0 9c 43 7f
        e 48 8c 40 40
        e 0 8c 43 40
        e 14 9c 41 7f
        e 2 9c 3e 6c
        e 46 8c 41 40
        e 2 8c 3e 40
        e 16 9c 3e 6c
        e 0 9c 41 7f
        e 48 8c 3e 40
        e 0 8c 41 40
        e 16 9c 3c 6c
        e 0 9c 40 7f
        e 48 8c 3c 40
        e 0 8c 40 40
        e 16 9c 37 6c
        e 0 9c 3b 6c
        e 0 9c 3e 7f
        e 48 8c 37 40
        e 0 8c 3b 40
        e 0 8c 3e 40
        e 16 9c 34 6c
        e 0 9c 3c 7f
        e 80 8c 34 40
        e 16 9c 40 6c
        e 32 8c 40 40
        e 16 9c 40 6c
        e 32 8c 3c 40
        e 0 8c 40 40
        e 16 9c 40 6c
        e 80 8c 40 40
        e 16 9c 40 6c
        e 32 8c 40 40
        e 64 9c 40 6c
        e 80 8c 40 40
        e 16 9c 40 6c
        e 32 8c 40 40
        e 64 9c 40 6c
        e 80 8c 40 40
        e 16 9c 40 6c
        e 32 8c 40 40
        e 64 9c 47 7f
        e 0 9c 4c 6c
        e 32 8c 4c 40
        e 16 9c 50 6c
        e 32 8c 50 40
        e 16 9c 4c 6c
        e 32 8c 4c 40
        e 16 9c 50 6c
        e 32 8c 50 40
        e 16 9c 4c 6c
        e 32 8c 4c 40
        e 16 9c 50 6c
        e 32 8c 50 40
        e 16 9c 4c 6c
        e 32 8c 4c 40
        e 16 9c 50 6c
        e 32 8c 50 40
        e 16 9c 4c 6c
        e 32 8c 4c 40
        e 16 9c 50 6c
        e 32 8c 50 40
        e 16 9c 4c 6c
        e 32 8c 4c 40
        e 16 9c 50 6c
        e 32 8c 47 40
        e 0 8c 50 40
        e 16 9c 48 7f
        e 0 9c 4c 6c
        e 32 8c 4c 40
        e 16 9c 51 6c
        e 32 8c 51 40
        e 16 9c 4c 6c
        e 32 8c 4c 40
        e 16 9c 51 6c
        e 32 8c 48 40
        e 0 8c 51 40
        e 16 9c 4a 7f
        e 0 9c 4c 6c
        e 32 8c 4c 40
        e 16 9c 53 6c
        e 32 8c 53 40
        e 16 9c 4c 6c
        e 32 8c 4c 40
        e 16 9c 53 6c
        e 32 8c 53 40
        e 16 9c 4c 6c
        e 32 8c 4c 40
        e 16 9c 53 6c
        e 32 8c 53 40
        e 16 9c 4c 6c
        e 32 8c 4c 40
        e 16 9c 53 6c
        e 32 8c 4a 40
        e 0 8c 53 40
        e 16 9c 4a 7f
        e 0 9c 4c 6c
        e 32 8c 4c 40
        e 16 9c 53 6c
        e 32 8c 53 40
        e 16 9c 4c 6c
        e 32 8c 4c 40
        e 16 9c 53 6c
        e 32 8c 4a 40
        e 0 8c 53 40
        e 16 9c 47 7f
        e 0 9c 4c 6c
        e 32 8c 4c 40
        e 16 9c 50 6c
        e 32 8c 50 40
        e 16 9c 4c 6c
        e 32 8c 4c 40
        e 16 9c 50 6c
        e 32 8c 47 40
        e 0 8c 50 40
        e 16 9c 48 7f
        e 0 9c 4c 6c
        e 32 8c 4c 40
        e 16 9c 51 6c
        e 32 8c 51 40
        e 16 9c 4c 6c
        e 32 8c 4c 40
        e 16 9c 51 6c
        e 32 8c 51 40
        e 16 9c 4c 6c
        e 32 8c 4c 40
        e 16 9c 51 6c
        e 32 8c 51 40
        e 16 9c 4c 6c
        e 32 8c 4c 40
        e 16 9c 51 6c
        e 32 8c 48 40
        e 0 8c 51 40
        e 16 9c 48 7f
        e 0 9c 51 6c
        e 128 8c 48 40
        e 0 8c 51 40
        e 16 9c 47 7f
        e 0 9c 50 6c
        e 32 8c 47 40
        e 0 8c 50 40
        e 16 9c 48 7f
        e 0 9c 51 6c
        e 128 8c 48 40
        e 0 8c 51 40
        e 16 9c 4a 7f
        e 0 9c 53 6c
        e 32 8c 4a 40
        e 0 8c 53 40
        e 16 9c 47 7f
        e 0 9c 50 6c
        e 96 9c 40 6c
        e 0 9c 4c 6c
        e 32 8c 50 40
        e 0 8c 40 40
        e 0 8c 4c 40
        e 16 9c 40 6c
        e 0 9c 4c 6c
        e 32 8c 47 40
        e 0 8c 40 40
        e 0 8c 4c 40
        e 16 9c 40 6c
        e 0 9c 47 7f
        e 0 9c 4c 6c
        e 80 8c 40 40
        e 0 8c 4c 40
        e 16 9c 40 6c
        e 0 9c 4c 6c
        e 80 8c 47 40
        e 0 8c 40 40
        e 0 8c 4c 40
        e 16 9c 40 6c
        e 0 9c 4c 6c
        e 80 8c 40 40
        e 0 8c 4c 40
        e 16 9c 40 6c
        e 0 9c 4c 6c
        e 32 8c 40 40
        e 0 8c 4c 40
        e 16 9c 40 6c
        e 0 9c 4c 6c
        e 32 8c 40 40
        e 0 8c 4c 40
        e 16 9c 40 6c
        e 0 9c 4c 6c
        e 80 8c 40 40
        e 0 8c 4c 40
        e 16 9c 40 6c
        e 0 9c 4c 6c
        e 80 8c 40 40
        e 0 8c 4c 40
        e 16 9c 47 7f
        e 48 9c 4c 6c
        e 32 8c 4c 40
        e 16 9c 50 6c
        e 32 8c 50 40
        e 16 9c 4c 6c
        e 32 8c 4c 40
        e 64 9c 4c 6c
        e 32 8c 4c 40
        e 16 9c 50 6c
        e 32 8c 50 40
        e 16 9c 4c 6c
        e 32 8c 4c 40
        e 64 9c 4c 6c
        e 32 8c 4c 40
        e 16 9c 50 6c
        e 32 8c 50 40
        e 16 9c 4c 6c
        e 32 8c 47 40
        e 0 8c 4c 40
        e 16 9c 48 7f
        e 48 9c 4c 6c
        e 32 8c 4c 40
        e 16 9c 51 6c
        e 32 8c 51 40
        e 16 9c 4c 6c
        e 32 8c 48 40
        e 0 8c 4c 40
        e 16 9c 4a 7f
        e 48 9c 4c 6c
        e 32 8c 4c 40
        e 16 9c 53 6c
        e 32 8c 53 40
        e 16 9c 4c 6c
        e 32 8c 4c 40
        e 64 9c 4c 6c
        e 32 8c 4c 40
        e 16 9c 53 6c
        e 32 8c 53 40
        e 16 9c 4c 6c
        e 32 8c 4a 40
        e 0 8c 4c 40
        e 16 9c 4a 7f
        e 48 9c 4c 6c
        e 32 8c 4c 40
        e 16 9c 53 6c
        e 32 8c 53 40
        e 16 9c 4c 6c
        e 32 8c 4a 40
        e 0 8c 4c 40
        e 16 9c 47 7f
        e 48 9c 4c 6c
        e 32 8c 4c 40
        e 16 9c 50 6c
        e 32 8c 50 40
        e 16 9c 4c 6c
        e 32 8c 47 40
        e 0 8c 4c 40
        e 16 9c 48 7f
        e 48 9c 4c 6c
        e 32 8c 4c 40
        e 16 9c 51 6c
        e 32 8c 51 40
        e 16 9c 4c 6c
        e 32 8c 4c 40
        e 64 9c 4c 6c
        e 32 8c 4c 40
        e 16 9c 51 6c
        e 32 8c 51 40
        e 16 9c 4c 6c
        e 32 8c 48 40
        e 0 8c 4c 40
        e 16 9c 48 7f
        e 48 9c 4b 6c
        e 32 8c 4b 40
        e 16 9c 51 6c
        e 32 8c 48 40
        e 0 8c 51 40
        e 16 9c 47 7f
        e 0 9c 4b 6c
        e 32 8c 47 40
        e 0 8c 4b 40
        e 16 9c 48 7f
        e 48 9c 4b 6c
        e 32 8c 4b 40
        e 16 9c 51 6c
        e 32 8c 48 40
        e 0 8c 51 40
        e 16 9c 4a 7f
        e 0 9c 4b 6c
        e 32 8c 4a 40
        e 0 8c 4b 40
        e 16 9c 47 7f
        e 0 9c 4c 6c
        e 0 9c 50 6c
        e 80 8c 4c 40
        e 0 8c 50 40
        e 16 9c 40 6c
        e 0 9c 44 6c
        e 0 9c 4c 6c
        e 32 8c 40 40
        e 0 8c 44 40
        e 0 8c 4c 40
        e 16 9c 40 6c
        e 0 9c 44 6c
        e 0 9c 4c 6c
        e 32 8c 47 40
        e 0 8c 40 40
        e 0 8c 44 40
        e 0 8c 4c 40
        e 16 9c 40 6c
        e 0 9c 44 6c
        e 0 9c 47 6c
        e 0 9c 4c 6c
        e 80 8c 40 40
        e 0 8c 44 40
        e 0 8c 47 40
        e 0 8c 4c 40
        e 16 9c 40 6c
        e 0 9c 44 6c
        e 0 9c 47 6c
        e 0 9c 4c 6c
        e 80 8c 40 40
        e 0 8c 44 40
        e 0 8c 47 40
        e 0 8c 4c 40
        e 16 9c 40 6c
        e 0 9c 44 6c
        e 0 9c 47 6c
        e 0 9c 4c 6c
        e 176 8c 40 40
        e 0 8c 44 40
        e 0 8c 47 40
        e 0 8c 4c 40
        e 16 9c 3c 6c
        e 0 9c 40 7f
        e 128 8c 3c 40
        e 0 8c 40 40
        e 16 9c 3e 6c
        e 0 9c 41 7f
        e 32 8c 3e 40
        e 0 8c 41 40
        e 16 9c 40 6c
        e 0 9c 43 7f
        e 80 8c 40 40
        e 16 9c 40 6c
        e 32 8c 40 40
        e 16 9c 40 6c
        e 32 8c 43 40
        e 0 8c 40 40
        e 16 9c 40 6c
        e 0 9c 43 7f
        e 128 8c 40 40
        e 0 8c 43 40
        e 16 9c 41 6c
        e 0 9c 45 7f
        e 32 8c 41 40
        e 0 8c 45 40
        e 16 9c 43 6c
        e 0 9c 46 7f
        e 80 8c 43 40
        e 16 9c 43 6c
        e 32 8c 43 40
        e 16 9c 43 6c
        e 32 8c 46 40
        e 0 8c 43 40
        e 16 9c 43 6c
        e 0 9c 46 7f
        e 128 8c 43 40
        e 0 8c 46 40
        e 16 9c 43 6c
        e 0 9c 46 7f
        e 32 8c 43 40
        e 0 8c 46 40
        e 16 9c 43 6c
        e 0 9c 46 7f
        e 80 8c 43 40
        e 16 9c 43 6c
        e 32 8c 43 40
        e 16 9c 43 6c
        e 32 8c 46 40
        e 0 8c 43 40
        e 16 9c 41 6c
        e 0 9c 45 7f
        e 80 8c 41 40
        e 16 9c 41 6c
        e 80 8c 45 40
        e 0 8c 41 40
        e 16 9c 41 6c
        e 0 9c 45 6c
        e 176 8c 41 40
        e 0 8c 45 40
        e 16 9c 3e 6c
        e 0 9c 42 7f
        e 128 8c 3e 40
        e 0 8c 42 40
        e 16 9c 40 6c
        e 0 9c 43 7f
        e 32 8c 40 40
        e 0 8c 43 40
        e 16 9c 42 6c
        e 0 9c 45 7f
        e 80 8c 42 40
        e 16 9c 42 6c
        e 32 8c 42 40
        e 16 9c 42 6c
        e 32 8c 45 40
        e 0 8c 42 40
        e 16 9c 42 6c
        e 0 9c 45 7f
        e 128 8c 42 40
        e 0 8c 45 40
        e 16 9c 43 6c
        e 0 9c 47 7f
        e 32 8c 43 40
        e 0 8c 47 40
        e 16 9c 45 6c
        e 0 9c 48 7f
        e 80 8c 45 40
        e 16 9c 45 6c
        e 32 8c 45 40
        e 16 9c 45 6c
        e 32 8c 48 40
        e 0 8c 45 40
        e 16 9c 45 6c
        e 0 9c 48 7f
        e 128 8c 45 40
        e 0 8c 48 40
        e 16 9c 45 6c
        e 0 9c 48 7f
        e 32 8c 45 40
        e 0 8c 48 40
        e 16 9c 43 6c
        e 0 9c 47 7f
        e 80 8c 43 40
        e 16 9c 43 6c
        e 32 8c 43 40
        e 16 9c 43 6c
        e 32 8c 43 40
        e 16 9c 43 6c
        e 80 8c 43 40
        e 16 9c 43 6c
        e 80 8c 47 40
        e 0 8c 43 40
        e 16 9c 43 6c
        e 0 9c 47 6c
        e 176 8c 43 40
        e 0 8c 47 40
        e 16 9c 47 7f
        e 0 9c 4f 6c
        e 0 9c 53 6c
        e 128 8c 47 40
        e 0 8c 4f 40
        e 0 8c 53 40
        e 16 9c 47 7f
        e 0 9c 4f 6c
        e 0 9c 53 6c
        e 32 8c 47 40
        e 0 8c 4f 40
        e 0 8c 53 40
        e 16 9c 47 7f
        e 0 9c 4f 6c
        e 0 9c 53 6c
        e 128 8c 47 40
        e 0 8c 4f 40
        e 0 8c 53 40
        e 16 9c 45 7f
        e 0 9c 4d 6c
        e 0 9c 51 6c
        e 32 8c 45 40
        e 0 8c 4d 40
        e 0 8c 51 40
        e 16 9c 47 7f
        e 0 9c 4f 6c
        e 0 9c 53 6c
        e 128 8c 47 40
        e 0 8c 4f 40
        e 0 8c 53 40
        e 16 9c 45 7f
        e 0 9c 4d 6c
        e 0 9c 51 6c
        e 32 8c 45 40
        e 0 8c 4d 40
        e 0 8c 51 40
        e 16 9c 45 7f
        e 0 9c 4d 6c
        e 0 9c 51 6c
        e 128 8c 45 40
        e 0 8c 4d 40
        e 0 8c 51 40
        e 16 9c 43 7f
        e 0 9c 4c 6c
        e 0 9c 4f 6c
        e 32 8c 43 40
        e 0 8c 4c 40
        e 0 8c 4f 40
        e 16 9c 45 7f
        e 0 9c 4d 6c
        e 0 9c 51 6c
        e 128 8c 45 40
        e 0 8c 4d 40
        e 0 8c 51 40
        e 16 9c 43 7f
        e 0 9c 4c 6c
        e 0 9c 4f 6c
        e 32 8c 43 40
        e 0 8c 4c 40
        e 0 8c 4f 40
        e 16 9c 45 7f
        e 0 9c 4d 6c
        e 0 9c 51 6c
        e 272 8c 45 40
        e 0 8c 4d 40
        e 0 8c 51 40
        e 16 9c 43 7f
        e 0 9c 4c 6c
        e 0 9c 4f 6c
        e 80 8c 43 40
        e 0 8c 4c 40
        e 0 8c 4f 40
        e 16 9c 40 7f
        e 0 9c 48 6c
        e 0 9c 4c 6c
        e 176 8c 40 40
        e 0 8c 48 40
        e 0 8c 4c 40
        e 16 9c 48 7f
        e 0 9c 54 6c
        e 128 8c 48 40
        e 0 8c 54 40
        e 16 9c 47 7f
        e 0 9c 4f 6c
        e 0 9c 53 6c
        e 32 8c 47 40
        e 0 8c 4f 40
        e 0 8c 53 40
        e 16 9c 47 7f
        e 0 9c 4f 6c
        e 0 9c 53 6c
        e 128 8c 47 40
        e 0 8c 4f 40
        e 0 8c 53 40
        e 16 9c 45 7f
        e 0 9c 4d 6c
        e 0 9c 51 6c
        e 32 8c 45 40
        e 0 8c 4d 40
        e 0 8c 51 40
        e 16 9c 47 7f
        e 0 9c 4f 6c
        e 0 9c 53 6c
        e 128 8c 47 40
        e 0 8c 4f 40
        e 0 8c 53 40
        e 16 9c 45 7f
        e 0 9c 4d 6c
        e 0 9c 51 6c
        e 32 8c 45 40
        e 0 8c 4d 40
        e 0 8c 51 40
        e 16 9c 45 7f
        e 0 9c 4d 6c
        e 0 9c 51 6c
        e 128 8c 45 40
        e 0 8c 4d 40
        e 0 8c 51 40
        e 16 9c 43 7f
        e 0 9c 4c 6c
        e 0 9c 4f 6c
        e 32 8c 43 40
        e 0 8c 4c 40
        e 0 8c 4f 40
        e 16 9c 45 7f
        e 0 9c 4d 6c
        e 0 9c 51 6c
        e 128 8c 45 40
        e 0 8c 4d 40
        e 0 8c 51 40
        e 16 9c 43 7f
        e 0 9c 4c 6c
        e 0 9c 4f 6c
        e 32 8c 43 40
        e 0 8c 4c 40
        e 0 8c 4f 40
        e 16 9c 40 7f
        e 0 9c 48 6c
        e 0 9c 4c 6c
        e 80 8c 48 40
        e 0 8c 4c 40
        e 16 9c 3c 6c
        e 0 9c 48 6c
        e 32 8c 3c 40
        e 0 8c 48 40
        e 16 9c 3c 6c
        e 0 9c 48 6c
        e 32 8c 40 40
        e 0 8c 3c 40
        e 0 8c 48 40
        e 16 9c 3c 7f
        e 0 9c 48 6c
        e 80 8c 3c 40
        e 0 8c 48 40
        e 16 9c 3e 7f
        e 0 9c 4a 6c
        e 80 8c 3e 40
        e 0 8c 4a 40
        e 16 9c 40 7f
        e 0 9c 4c 6c
        e 80 8c 40 40
        e 0 8c 4c 40
        e 16 9c 41 7f
        e 0 9c 4d 6c
        e 80 8c 41 40
        e 0 8c 4d 40
        e 16 9c 43 7f
        e 0 9c 4f 6c
        e 80 8c 43 40
        e 0 8c 4f 40
        e 16 9c 45 7f
        e 0 9c 51 6c
        e 80 8c 45 40
        e 0 8c 51 40
        e 16 9c 46 7f
        e 0 9c 52 6c
        e 80 8c 52 40
        e 16 9c 40 6c
        e 0 9c 43 6c
        e 0 9c 49 6c
        e 32 8c 40 40
        e 0 8c 43 40
        e 0 8c 49 40
        e 16 9c 40 6c
        e 0 9c 43 6c
        e 0 9c 49 6c
        e 32 8c 40 40
        e 0 8c 43 40
        e 0 8c 49 40
        e 16 9c 40 6c
        e 0 9c 43 6c
        e 0 9c 49 6c
        e 128 8c 40 40
        e 0 8c 43 40
        e 0 8c 49 40
        e 16 9c 40 6c
        e 0 9c 43 6c
        e 0 9c 49 6c
        e 32 8c 46 40
        e 0 8c 40 40
        e 0 8c 43 40
        e 0 8c 49 40
        e 16 9c 41 6c
        e 0 9c 45 6c
        e 0 9c 4a 7f
        e 176 8c 41 40
        e 0 8c 45 40
        e 0 8c 4a 40
        e 16 9c 40 6c
        e 0 9c 43 6c
        e 0 9c 45 6c
        e 0 9c 49 7f
        e 176 8c 40 40
        e 0 8c 43 40
        e 0 8c 45 40
        e 0 8c 49 40
        e 16 9c 3e 6c
        e 0 9c 45 6c
        e 0 9c 4a 7f
        e 176 8c 3e 40
        e 0 8c 45 40
        e 0 8c 4a 40
        e 16 9c 3e 6c
        e 0 9c 45 6c
        e 0 9c 4a 7f
        e 176 8c 3e 40
        e 0 8c 45 40
        e 0 8c 4a 40
        e 208 9c 48 7f
        e 0 9c 4b 6c
        e 0 9c 51 6c
        e 128 8c 48 40
        e 0 8c 4b 40
        e 0 8c 51 40
        e 16 9c 48 7f
        e 0 9c 4b 6c
        e 0 9c 51 6c
        e 32 8c 48 40
        e 0 8c 4b 40
        e 0 8c 51 40
        e 16 9c 48 6c
        e 0 9c 4c 7f
        e 0 9c 4f 6c
        e 176 8c 48 40
        e 0 8c 4c 40
        e 0 8c 4f 40
        e 16 9c 43 6c
        e 0 9c 48 7f
        e 0 9c 4c 6c
        e 128 8c 43 40
        e 0 8c 48 40
        e 0 8c 4c 40
        e 16 9c 43 6c
        e 0 9c 48 7f
        e 0 9c 4c 6c
        e 32 8c 43 40
        e 0 8c 48 40
        e 0 8c 4c 40
        e 16 9c 43 6c
        e 0 9c 4a 7f
        e 0 9c 4d 6c
        e 176 8c 43 40
        e 0 8c 4a 40
        e 0 8c 4d 40
        e 16 9c 43 6c
        e 0 9c 47 7f
        e 0 9c 4a 6c
        e 128 8c 43 40
        e 0 8c 47 40
        e 0 8c 4a 40
        e 16 9c 43 6c
        e 0 9c 47 7f
        e 0 9c 4a 6c
        e 32 8c 43 40
        e 0 8c 47 40
        e 0 8c 4a 40
        e 16 9c 43 6c
        e 0 9c 48 7f
        e 0 9c 4c 6c
        e 176 8c 43 40
        e 0 8c 48 40
        e 0 8c 4c 40
        e 16 9c 34 6c
        e 48 8c 34 40
        e 16 9c 35 6c
        e 48 8c 35 40
        e 16 9c 37 6c
        e 48 8c 37 40
        e 16 9c 39 6c
        e 48 8c 39 40
        e 16 9c 3b 6c
        e 48 8c 3b 40
        e 16 9c 3c 6c
        e 48 8c 3c 40
        e 16 9c 3e 6c
        e 0 9c 48 7f
        e 48 8c 3e 40
        e 16 9c 40 6c
        e 48 8c 40 40
        e 16 8c 48 40
        e 0 9c 41 6c
        e 16 9c 48 7f
        e 30 8c 48 40
        e 2 8c 41 40
        e 16 9c 43 6c
        e 0 9c 48 7f
        e 80 8c 43 40
        e 16 9c 4c 6c
        e 0 9c 4d 6c
        e 0 9c 4f 6c
        e 0 9c 54 6c
        e 32 8c 4c 40
        e 0 8c 4d 40
        e 0 8c 4f 40
        e 0 8c 54 40
        e 16 9c 4c 6c
        e 0 9c 4f 6c
        e 0 9c 54 6c
        e 32 8c 48 40
        e 0 8c 4c 40
        e 0 8c 4f 40
        e 0 8c 54 40
        e 16 9c 48 7f
        e 0 9c 4c 6c
        e 0 9c 4f 6c
        e 0 9c 54 6c
        e 80 8c 4c 40
        e 0 8c 4f 40
        e 0 8c 54 40
        e 16 9c 4c 6c
        e 0 9c 4f 6c
        e 0 9c 54 6c
        e 32 8c 48 40
        e 16 9c 48 7f
        e 32 8c 4c 40
        e 0 8c 4f 40
        e 0 8c 54 40
        e 0 8c 48 40
        e 16 9c 4a 7f
        e 0 9c 4d 6c
        e 0 9c 4f 6c
        e 0 9c 53 6c
        e 80 8c 4d 40
        e 0 8c 4f 40
        e 0 8c 53 40
        e 16 9c 4d 6c
        e 0 9c 4f 6c
        e 0 9c 53 6c
        e 32 8c 4d 40
        e 0 8c 4f 40
        e 0 8c 53 40
        e 16 9c 4d 6c
        e 0 9c 4f 6c
        e 0 9c 53 6c
        e 32 8c 4a 40
        e 0 8c 4d 40
        e 0 8c 4f 40
        e 0 8c 53 40
        e 16 9c 47 7f
        e 0 9c 4a 6c
        e 0 9c 4d 6c
        e 0 9c 4f 6c
        e 0 9c 53 6c
        e 80 8c 4a 40
        e 0 8c 4d 40
        e 0 8c 4f 40
        e 0 8c 53 40
        e 16 9c 4a 6c
        e 0 9c 4d 6c
        e 0 9c 4f 6c
        e 0 9c 53 6c
        e 32 8c 47 40
        e 16 9c 47 7f
        e 30 8c 47 40
        e 2 8c 4a 40
        e 0 8c 4d 40
        e 0 8c 4f 40
        e 0 8c 53 40
        e 16 9c 48 7f
        e 0 9c 4c 6c
        e 0 9c 54 6c
        e 176 8c 48 40
        e 0 8c 4c 40
        e 0 8c 54 40
        e 16 9c 34 6c
        e 48 8c 34 40
        e 16 9c 35 6c
        e 48 8c 35 40
        e 16 9c 37 6c
        e 48 8c 37 40
        e 16 9c 39 6c
        e 48 8c 39 40
        e 16 9c 3b 6c
        e 48 8c 3b 40
        e 16 9c 3c 6c
        e 48 8c 3c 40
        e 16 9c 3e 6c
        e 0 9c 48 7f
        e 48 8c 3e 40
        e 16 9c 40 6c
        e 48 8c 40 40
        e 16 8c 48 40
        e 0 9c 41 6c
        e 16 9c 48 7f
        e 32 8c 41 40
        e 0 8c 48 40
        e 16 9c 43 6c
        e 0 9c 4c 7f
        e 80 8c 43 40
        e 16 9c 48 6c
        e 0 9c 54 6c
        e 32 8c 48 40
        e 0 8c 54 40
        e 16 9c 48 6c
        e 0 9c 4f 6c
        e 0 9c 54 6c
        e 30 8c 4c 40
        e 2 8c 48 40
        e 0 8c 4f 40
        e 0 8c 54 40
        e 16 9c 48 7f
        e 0 9c 4c 6c
        e 0 9c 4f 6c
        e 0 9c 54 6c
        e 80 8c 4c 40
        e 0 8c 4f 40
        e 0 8c 54 40
        e 16 9c 4c 6c
        e 0 9c 4f 6c
        e 0 9c 54 6c
        e 27 8c 48 40
        e 21 9c 48 7f
        e 32 8c 4c 40
        e 0 8c 4f 40
        e 0 8c 54 40
        e 0 8c 48 40
        e 16 9c 4a 7f
        e 0 9c 4d 6c
        e 0 9c 4f 6c
        e 0 9c 53 6c
        e 80 8c 4d 40
        e 0 8c 4f 40
        e 0 8c 53 40
        e 16 9c 4d 6c
        e 0 9c 4f 6c
        e 0 9c 53 6c
        e 32 8c 4d 40
        e 0 8c 4f 40
        e 0 8c 53 40
        e 16 9c 4d 6c
        e 0 9c 4f 6c
        e 0 9c 53 6c
        e 32 8c 4a 40
        e 0 8c 4d 40
        e 0 8c 4f 40
        e 0 8c 53 40
        e 16 9c 47 7f
        e 0 9c 4a 6c
        e 0 9c 4d 6c
        e 0 9c 4f 6c
        e 0 9c 53 6c
        e 80 8c 4a 40
        e 0 8c 4d 40
        e 0 8c 4f 40
        e 0 8c 53 40
        e 16 9c 4a 6c
        e 0 9c 4d 6c
        e 0 9c 4f 6c
        e 0 9c 53 6c
        e 32 8c 47 40
        e 16 9c 47 7f
        e 32 8c 4a 40
        e 0 8c 4d 40
        e 0 8c 4f 40
        e 0 8c 53 40
        e 0 8c 47 40
        e 16 9c 48 7f
        e 0 9c 4c 6c
        e 0 9c 4f 6c
        e 0 9c 54 6c
        e 176 8c 48 40
        e 0 8c 4c 40
        e 0 8c 4f 40
        e 0 8c 54 40
        e 16 9c 48 6c
        e 48 8c 48 40
        e 16 9c 43 6c
        e 48 8c 43 40
        e 16 9c 4c 6c
        e 48 8c 4c 40
        e 16 9c 48 6c
        e 48 8c 48 40
        e 16 9c 43 6c
        e 48 8c 43 40
        e 16 9c 4c 6c
        e 48 8c 4c 40
        e 16 9c 48 6c
        e 48 8c 48 40
        e 16 9c 43 6c
        e 48 8c 43 40
        e 16 9c 4c 6c
        e 48 8c 4c 40
        e 16 9c 48 6c
        e 48 8c 48 40
        e 16 9c 54 6c
        e 48 8c 54 40
        e 16 9c 53 6c
        e 48 8c 53 40
        e 16 9c 54 6c
        e 48 8c 54 40
        e 16 9c 4f 6c
        e 48 8c 4f 40
        e 16 9c 4c 6c
        e 48 8c 4c 40
        e 16 9c 48 6c
        e 48 8c 48 40
        e 16 9c 48 6c
        e 48 8c 48 40
        e 16 9c 47 6c
        e 48 8c 47 40
        e 16 9c 48 6c
        e 48 8c 48 40
        e 16 9c 43 6c
        e 48 8c 43 40
        e 16 9c 40 6c
        e 48 8c 40 40
        e 16 9c 3c 6c
        e 176 8c 3c 40
        e 16 9c 40 6c
        e 0 9c 43 6c
        e 0 9c 48 6c
        e 128 8c 40 40
        e 0 8c 43 40
        e 0 8c 48 40
        e 16 9c 40 6c
        e 0 9c 43 6c
        e 0 9c 48 6c
        e 32 8c 40 40
        e 0 8c 43 40
        e 0 8c 48 40
        e 16 9c 40 6c
        e 0 9c 43 6c
        e 0 9c 48 6c
        e 176 8c 40 40
        e 0 8c 43 40
        e 0 8c 48 40
        E 16 b0 7b 00
        GUID {74957ACD-C419-3E42-BA2A-3C4C31510BA7}
        IGNTEMPO 0 120 4 4
        SRCCOLOR 914
        VELLANE -1 86 6
        CFGEDITVIEW 0 0 50 24 0 0 0 0 0 0.5
        KEYSNAP 0
        TRACKSEL 226 0 0 ""
        EVTFILTER 0 -1 -1 -1 -1 0 1 0 0 -1 -1 -1 -1 0 -1 0 -1 -1
        CFGEDIT 1 0 0 0 0 0 1 0 1 1 1 0.25 16 63 1280 778 0 0 2 3 0 0 0 0 0 0.5 0 0 1 64
      >
    >
    <ITEM
      POSITION 0
      SNAPOFFS 0
      LENGTH 96
      LOOP 1
      ALLTAKES 0
      FADEIN 1 0 0 1 0 0
      FADEOUT 1 0 0 1 0 0
      MUTE 0
      SEL 0
      YPOS 0.634351 0.05
      IGUID {3C4E544A-F778-AA40-937C-01A3EFB65437}
      IID 20
      NAME "lh                   - National_Anthems_-_Chile.mid"
      VOLPAN 1 0 1 -1
      SOFFS 21.5 43
      PLAYRATE 1 1 0 -1 0 0.0025
      CHANMODE 0
      TAKECOLOR 26173599 B
      GUID {711801E8-34CF-4347-A066-AEE24D1C0DBF}
      <SOURCE MIDI
        HASDATA 1 192 QN
        POOLEDEVTS {D5783551-E05D-044A-A960-8BFDB1582C67}
        <X 0 0
          /wNsaCAgICAgICAgICAgICAgICAgIA==
        >
        e 720 90 37 64
        e 16 90 39 64
        e 6 80 37 40
        e 2 90 3b 64
        e 14 80 39 40
        e 8 80 3b 40
        e 2 90 30 64
        e 0 90 3c 64
        e 334 80 30 40
        e 0 80 3c 40
        e 2 90 2f 64
        e 0 90 3b 64
        e 46 80 2f 40
        e 0 80 3b 40
        e 2 90 30 64
        e 0 90 3c 64
        e 142 80 30 40
        e 0 80 3c 40
        e 2 90 2c 64
        e 0 90 38 64
        e 46 80 2c 40
        e 0 80 38 40
        e 2 90 2d 64
        e 0 90 39 64
        e 142 80 2d 40
        e 0 80 39 40
        e 2 90 28 64
        e 0 90 34 64
        e 46 80 28 40
        e 0 80 34 40
        e 2 90 29 64
        e 0 90 35 64
        e 142 80 29 40
        e 0 80 35 40
        e 2 90 25 64
        e 0 90 31 64
        e 46 80 25 40
        e 0 80 31 40
        e 2 90 26 64
        e 0 90 32 64
        e 142 80 26 40
        e 0 80 32 40
        e 2 90 2e 64
        e 46 80 2e 40
        e 2 90 2f 64
        e 190 80 2f 40
        e 194 90 2b 64
        e 0 90 37 64
        e 94 80 2b 40
        e 0 80 37 40
        e 2 90 2b 64
        e 0 90 37 64
        e 46 80 2b 40
        e 0 80 37 40
        e 2 90 2b 64
        e 0 90 37 64
        e 46 80 2b 40
        e 0 80 37 40
        e 2 90 2b 64
        e 0 90 37 64
        e 94 80 2b 40
        e 0 80 37 40
        e 2 90 2b 64
        e 0 90 37 64
        e 94 80 2b 40
        e 0 80 37 40
        e 2 90 2b 64
        e 0 90 37 64
        e 94 80 2b 40
        e 0 80 37 40
        e 2 90 2c 64
        e 0 90 38 64
        e 94 80 2c 40
        e 0 80 38 40
        e 2 90 2d 64
        e 0 90 39 64
        e 94 80 2d 40
        e 0 80 39 40
        e 2 90 2f 64
        e 0 90 3b 64
        e 94 80 2f 40
        e 0 80 3b 40
        e 2 90 30 64
        e 0 90 3c 64
        e 190 80 30 40
        e 0 80 3c 40
        e 2 90 2b 64
        e 0 90 37 64
        e 190 80 2b 40
        e 0 80 37 40
        e 2 90 30 64
        e 0 90 37 64
        e 190 80 30 40
        e 0 80 37 40
        e 194 90 30 64
        e 0 90 35 64
        e 0 90 39 64
        e 94 80 30 40
        e 0 80 35 40
        e 0 80 39 40
        e 2 90 30 64
        e 0 90 35 64
        e 0 90 39 64
        e 94 80 30 40
        e 0 80 35 40
        e 0 80 39 40
        e 2 90 30 64
        e 0 90 35 64
        e 0 90 39 64
        e 94 80 30 40
        e 0 80 35 40
        e 0 80 39 40
        e 2 90 30 64
        e 0 90 35 64
        e 0 90 39 64
        e 94 80 30 40
        e 0 80 35 40
        e 0 80 39 40
        e 2 90 30 64
        e 0 90 35 64
        e 0 90 39 64
        e 94 80 30 40
        e 0 80 35 40
        e 0 80 39 40
        e 2 90 30 64
        e 0 90 35 64
        e 0 90 39 64
        e 94 80 30 40
        e 0 80 35 40
        e 0 80 39 40
        e 2 90 30 64
        e 0 90 35 64
        e 0 90 39 64
        e 94 80 30 40
        e 0 80 35 40
        e 0 80 39 40
        e 2 90 30 64
        e 0 90 35 64
        e 0 90 39 64
        e 94 80 30 40
        e 0 80 35 40
        e 0 80 39 40
        e 2 90 30 64
        e 0 90 37 64
        e 190 80 30 40
        e 0 80 37 40
        e 2 90 2b 64
        e 0 90 37 64
        e 190 80 2b 40
        e 0 80 37 40
        e 2 90 30 64
        e 0 90 37 64
        e 190 80 30 40
        e 0 80 37 40
        e 194 90 2c 64
        e 0 90 38 64
        e 80 80 2c 40
        e 0 80 38 40
        e 16 90 2c 64
        e 0 90 38 64
        e 32 80 2c 40
        e 0 80 38 40
        e 16 90 2c 64
        e 0 90 38 64
        e 32 80 2c 40
        e 0 80 38 40
        e 16 90 2c 64
        e 0 90 38 64
        e 80 80 2c 40
        e 0 80 38 40
        e 16 90 2c 64
        e 0 90 38 64
        e 80 80 2c 40
        e 0 80 38 40
        e 16 90 2c 64
        e 0 90 38 64
        e 80 80 2c 40
        e 0 80 38 40
        e 16 90 2c 64
        e 0 90 38 64
        e 80 80 2c 40
        e 0 80 38 40
        e 16 90 2c 64
        e 0 90 38 64
        e 80 80 2c 40
        e 0 80 38 40
        e 16 90 2c 64
        e 0 90 38 64
        e 80 80 2c 40
        e 0 80 38 40
        e 16 90 2b 64
        e 0 90 37 64
        e 80 80 2b 40
        e 0 80 37 40
        e 16 90 2b 64
        e 0 90 37 64
        e 80 80 2b 40
        e 0 80 37 40
        e 16 90 2b 64
        e 0 90 37 64
        e 80 80 2b 40
        e 0 80 37 40
        e 16 90 2b 64
        e 0 90 37 64
        e 80 80 2b 40
        e 0 80 37 40
        e 16 90 2b 64
        e 0 90 37 64
        e 80 80 2b 40
        e 0 80 37 40
        e 16 90 2b 64
        e 0 90 37 64
        e 80 80 2b 40
        e 0 80 37 40
        e 16 90 2b 64
        e 0 90 37 64
        e 80 80 2b 40
        e 0 80 37 40
        e 16 90 2b 64
        e 0 90 37 64
        e 80 80 2b 40
        e 0 80 37 40
        e 16 90 30 64
        e 0 90 37 64
        e 176 80 30 40
        e 0 80 37 40
        e 112 90 2b 64
        e 16 80 2b 40
        e 16 90 2d 64
        e 16 80 2d 40
        e 16 90 2f 64
        e 16 80 2f 40
        e 16 90 30 64
        e 80 80 30 40
        e 16 90 2b 64
        e 16 80 2b 40
        e 16 90 2d 64
        e 16 80 2d 40
        e 16 90 2f 64
        e 16 80 2f 40
        e 16 90 30 64
        e 80 80 30 40
        e 16 90 2b 64
        e 16 80 2b 40
        e 16 90 2d 64
        e 16 80 2d 40
        e 16 90 2f 64
        e 16 80 2f 40
        e 16 90 30 64
        e 176 80 30 40
        e 16 90 24 64
        e 0 90 30 64
        e 128 80 24 40
        e 0 80 30 40
        e 16 90 24 64
        e 0 90 30 64
        e 32 80 24 40
        e 0 80 30 40
        e 16 90 24 64
        e 0 90 30 64
        e 176 80 24 40
        e 0 80 30 40
        e 208 90 30 64
        e 80 80 30 40
        e 16 90 3c 64
        e 80 80 3c 40
        e 16 90 3c 64
        e 80 80 3c 40
        e 16 90 3c 64
        e 80 80 3c 40
        e 16 90 30 64
        e 80 80 30 40
        e 16 90 3c 64
        e 80 80 3c 40
        e 16 90 3c 64
        e 80 80 3c 40
        e 16 90 3c 64
        e 80 80 3c 40
        e 16 90 30 64
        e 80 80 30 40
        e 16 90 3c 64
        e 80 80 3c 40
        e 16 90 3c 64
        e 80 80 3c 40
        e 16 90 3c 64
        e 80 80 3c 40
        e 16 90 30 64
        e 176 80 30 40
        e 208 90 2f 64
        e 80 80 2f 40
        e 16 90 37 64
        e 80 80 37 40
        e 16 90 2f 64
        e 80 80 2f 40
        e 16 90 37 64
        e 80 80 37 40
        e 16 90 30 64
        e 80 80 30 40
        e 16 90 37 64
        e 80 80 37 40
        e 16 90 30 64
        e 80 80 30 40
        e 16 90 37 64
        e 80 80 37 40
        e 16 90 2b 64
        e 80 80 2b 40
        e 16 90 2b 64
        e 0 90 37 64
        e 32 80 2b 40
        e 0 80 37 40
        e 16 90 2b 64
        e 0 90 37 64
        e 32 80 2b 40
        e 0 80 37 40
        e 16 90 2b 64
        e 0 90 37 64
        e 80 80 2b 40
        e 0 80 37 40
        e 16 90 2b 64
        e 0 90 37 64
        e 80 80 2b 40
        e 0 80 37 40
        e 16 90 2b 64
        e 0 90 37 64
        e 80 80 2b 40
        e 0 80 37 40
        e 304 90 30 64
        e 80 80 30 40
        e 16 90 3c 64
        e 80 80 3c 40
        e 16 90 3c 64
        e 80 80 3c 40
        e 16 90 3c 64
        e 80 80 3c 40
        e 16 90 30 64
        e 80 80 30 40
        e 16 90 3c 64
        e 80 80 3c 40
        e 16 90 3c 64
        e 80 80 3c 40
        e 16 90 3c 64
        e 80 80 3c 40
        e 16 90 30 64
        e 80 80 30 40
        e 16 90 3c 64
        e 80 80 3c 40
        e 16 90 3c 64
        e 80 80 3c 40
        e 16 90 3c 64
        e 80 80 3c 40
        e 16 90 30 64
        e 176 80 30 40
        e 208 90 32 64
        e 80 80 32 40
        e 112 90 32 64
        e 80 80 32 40
        e 112 90 26 64
        e 80 80 26 40
        e 112 90 26 64
        e 80 80 26 40
        e 112 90 2b 64
        e 176 80 2b 40
        e 16 90 2b 64
        e 0 90 37 64
        e 128 80 2b 40
        e 0 80 37 40
        e 16 90 2b 64
        e 0 90 37 64
        e 32 80 2b 40
        e 0 80 37 40
        e 16 90 2b 64
        e 0 90 37 64
        e 176 80 2b 40
        e 0 80 37 40
        e 208 90 27 64
        e 0 90 33 64
        e 368 80 27 40
        e 0 80 33 40
        e 16 90 2b 64
        e 0 90 33 64
        e 368 80 2b 40
        e 0 80 33 40
        e 16 90 2e 64
        e 0 90 35 64
        e 368 80 2e 40
        e 0 80 35 40
        e 16 90 2e 64
        e 0 90 35 64
        e 176 80 2e 40
        e 0 80 35 40
        e 208 90 2e 64
        e 0 90 35 64
        e 368 80 2e 40
        e 0 80 35 40
        e 16 90 2e 64
        e 0 90 35 64
        e 368 80 2e 40
        e 0 80 35 40
        e 16 90 33 64
        e 0 90 37 64
        e 368 80 33 40
        e 0 80 37 40
        e 16 90 27 64
        e 0 90 33 64
        e 176 80 27 40
        e 0 80 33 40
        e 208 90 2c 64
        e 0 90 38 64
        e 176 80 2c 40
        e 0 80 38 40
        e 208 90 2c 64
        e 0 90 38 64
        e 176 80 2c 40
        e 0 80 38 40
        e 16 90 2c 64
        e 0 90 38 64
        e 176 80 2c 40
        e 0 80 38 40
        e 16 90 2b 64
        e 0 90 37 64
        e 176 80 2b 40
        e 0 80 37 40
        e 16 90 2b 64
        e 0 90 37 64
        e 128 80 2b 40
        e 0 80 37 40
        e 16 90 2b 64
        e 0 90 37 64
        e 32 80 2b 40
        e 0 80 37 40
        e 16 90 2b 64
        e 0 90 37 64
        e 176 80 2b 40
        e 0 80 37 40
        e 208 90 30 64
        e 0 90 37 64
        e 80 80 30 40
        e 0 80 37 40
        e 112 90 30 64
        e 0 90 37 64
        e 80 80 30 40
        e 0 80 37 40
        e 112 90 30 64
        e 0 90 37 64
        e 80 80 30 40
        e 0 80 37 40
        e 112 90 30 64
        e 0 90 37 64
        e 80 80 30 40
        e 0 80 37 40
        e 112 90 30 64
        e 0 90 37 64
        e 176 80 30 40
        e 0 80 37 40
        e 16 90 29 64
        e 0 90 35 64
        e 368 80 29 40
        e 0 80 35 40
        e 208 90 2b 64
        e 0 90 35 64
        e 80 80 2b 40
        e 0 80 35 40
        e 112 90 2b 64
        e 0 90 35 64
        e 80 80 2b 40
        e 0 80 35 40
        e 112 90 2b 64
        e 0 90 35 64
        e 80 80 2b 40
        e 0 80 35 40
        e 112 90 2b 64
        e 0 90 35 64
        e 80 80 2b 40
        e 0 80 35 40
        e 112 90 30 64
        e 176 80 30 40
        e 16 90 24 64
        e 80 80 24 40
        e 112 90 29 64
        e 0 90 35 64
        e 176 80 29 40
        e 0 80 35 40
        e 208 90 2b 64
        e 0 90 37 64
        e 176 80 2b 40
        e 0 80 37 40
        e 208 90 2b 64
        e 0 90 37 64
        e 176 80 2b 40
        e 0 80 37 40
        e 208 90 24 64
        e 0 90 30 64
        e 176 80 24 40
        e 0 80 30 40
        e 208 90 29 64
        e 0 90 35 64
        e 176 80 29 40
        e 0 80 35 40
        e 16 90 29 64
        e 0 90 35 64
        e 176 80 29 40
        e 0 80 35 40
        e 16 90 30 64
        e 0 90 34 64
        e 80 80 30 40
        e 0 80 34 40
        e 112 90 29 64
        e 0 90 35 64
        e 80 80 29 40
        e 0 80 35 40
        e 112 90 2b 64
        e 80 80 2b 40
        e 112 90 2b 64
        e 0 90 35 64
        e 80 80 2b 40
        e 0 80 35 40
        e 112 90 24 64
        e 0 90 30 64
        e 80 80 24 40
        e 0 80 30 40
        e 16 90 28 64
        e 0 90 34 64
        e 32 80 28 40
        e 0 80 34 40
        e 16 90 28 64
        e 0 90 34 64
        e 32 80 28 40
        e 0 80 34 40
        e 16 90 28 64
        e 0 90 34 64
        e 80 80 28 40
        e 0 80 34 40
        e 16 90 28 64
        e 0 90 34 64
        e 80 80 28 40
        e 0 80 34 40
        e 16 90 28 64
        e 0 90 34 64
        e 80 80 28 40
        e 0 80 34 40
        e 16 90 28 64
        e 0 90 34 64
        e 80 80 28 40
        e 0 80 34 40
        e 16 90 28 64
        e 0 90 34 64
        e 80 80 28 40
        e 0 80 34 40
        e 16 90 28 64
        e 0 90 34 64
        e 80 80 28 40
        e 0 80 34 40
        e 16 90 28 64
        e 96 90 34 64
        e 80 80 34 40
        e 16 90 34 64
        e 80 80 34 40
        e 16 90 34 64
        e 80 80 28 40
        e 0 80 34 40
        e 16 90 28 64
        e 96 90 34 64
        e 80 80 34 40
        e 16 90 34 64
        e 80 80 34 40
        e 16 90 34 64
        e 80 80 28 40
        e 0 80 34 40
        e 16 90 28 64
        e 96 90 34 64
        e 80 80 34 40
        e 16 90 34 64
        e 80 80 34 40
        e 16 90 34 64
        e 80 80 28 40
        e 0 80 34 40
        e 16 90 28 64
        e 96 90 34 64
        e 80 80 34 40
        e 16 90 34 64
        e 80 80 34 40
        e 16 90 34 64
        e 80 80 28 40
        e 0 80 34 40
        e 16 90 34 64
        e 80 80 34 40
        e 16 90 39 64
        e 0 90 3c 64
        e 80 80 39 40
        e 0 80 3c 40
        e 16 90 34 64
        e 80 80 34 40
        e 16 90 39 64
        e 0 90 3c 64
        e 80 80 39 40
        e 0 80 3c 40
        e 16 90 34 64
        e 80 80 34 40
        e 16 90 39 64
        e 0 90 3c 64
        e 80 80 39 40
        e 0 80 3c 40
        e 16 90 34 64
        e 80 80 34 40
        e 16 90 39 64
        e 0 90 3c 64
        e 0 90 3f 64
        e 80 80 39 40
        e 0 80 3c 40
        e 0 80 3f 40
        e 16 90 34 64
        e 0 90 40 64
        e 80 80 34 40
        e 0 80 40 40
        e 16 90 28 64
        e 0 90 34 64
        e 32 80 28 40
        e 0 80 34 40
        e 16 90 28 64
        e 0 90 34 64
        e 32 80 28 40
        e 0 80 34 40
        e 16 90 28 64
        e 0 90 34 64
        e 80 80 28 40
        e 0 80 34 40
        e 16 90 28 64
        e 0 90 34 64
        e 80 80 28 40
        e 0 80 34 40
        e 16 90 28 64
        e 0 90 34 64
        e 80 80 28 40
        e 0 80 34 40
        e 16 90 28 64
        e 0 90 34 64
        e 32 80 28 40
        e 0 80 34 40
        e 16 90 28 64
        e 0 90 34 64
        e 32 80 28 40
        e 0 80 34 40
        e 16 90 28 64
        e 0 90 34 64
        e 80 80 28 40
        e 0 80 34 40
        e 16 90 28 64
        e 0 90 34 64
        e 80 80 28 40
        e 0 80 34 40
        e 16 90 28 64
        e 96 90 34 64
        e 80 80 34 40
        e 16 90 34 64
        e 80 80 34 40
        e 16 90 34 64
        e 80 80 28 40
        e 0 80 34 40
        e 16 90 28 64
        e 96 90 34 64
        e 80 80 34 40
        e 16 90 34 64
        e 80 80 34 40
        e 16 90 34 64
        e 80 80 28 40
        e 0 80 34 40
        e 16 90 28 64
        e 96 90 34 64
        e 80 80 34 40
        e 16 90 34 64
        e 80 80 34 40
        e 16 90 34 64
        e 80 80 28 40
        e 0 80 34 40
        e 16 90 28 64
        e 96 90 34 64
        e 80 80 34 40
        e 16 90 34 64
        e 80 80 34 40
        e 16 90 34 64
        e 80 80 28 40
        e 0 80 34 40
        e 16 90 34 64
        e 80 80 34 40
        e 16 90 39 64
        e 0 90 3c 64
        e 80 80 39 40
        e 0 80 3c 40
        e 16 90 34 64
        e 80 80 34 40
        e 16 90 39 64
        e 0 90 3c 64
        e 80 80 39 40
        e 0 80 3c 40
        e 16 90 34 64
        e 80 80 34 40
        e 16 90 39 64
        e 0 90 3c 64
        e 80 80 39 40
        e 0 80 3c 40
        e 16 90 34 64
        e 80 80 34 40
        e 16 90 39 64
        e 0 90 3c 64
        e 0 90 3f 64
        e 80 80 39 40
        e 0 80 3c 40
        e 0 80 3f 40
        e 16 90 34 64
        e 0 90 40 64
        e 80 80 34 40
        e 0 80 40 40
        e 16 90 40 64
        e 80 80 40 40
        e 16 90 3b 64
        e 80 80 3b 40
        e 16 90 38 64
        e 80 80 38 40
        e 16 90 34 64
        e 176 80 34 40
        e 208 90 24 64
        e 0 90 30 64
        e 80 80 24 40
        e 0 80 30 40
        e 16 90 30 64
        e 80 80 30 40
        e 16 90 30 64
        e 0 90 3a 64
        e 80 80 30 40
        e 0 80 3a 40
        e 16 90 30 64
        e 80 80 30 40
        e 16 90 24 64
        e 0 90 30 64
        e 80 80 24 40
        e 0 80 30 40
        e 16 90 30 64
        e 80 80 30 40
        e 16 90 30 64
        e 0 90 3a 64
        e 80 80 30 40
        e 0 80 3a 40
        e 16 90 30 64
        e 80 80 30 40
        e 16 90 29 64
        e 80 80 29 40
        e 16 90 35 64
        e 80 80 35 40
        e 16 90 30 64
        e 80 80 30 40
        e 16 90 2d 64
        e 80 80 2d 40
        e 16 90 29 64
        e 176 80 29 40
        e 208 90 26 64
        e 0 90 32 64
        e 80 80 26 40
        e 0 80 32 40
        e 16 90 32 64
        e 80 80 32 40
        e 16 90 36 64
        e 0 90 3c 64
        e 80 80 36 40
        e 0 80 3c 40
        e 16 90 32 64
        e 80 80 32 40
        e 16 90 26 64
        e 0 90 32 64
        e 80 80 26 40
        e 0 80 32 40
        e 16 90 32 64
        e 80 80 32 40
        e 16 90 36 64
        e 0 90 3c 64
        e 80 80 36 40
        e 0 80 3c 40
        e 16 90 32 64
        e 80 80 32 40
        e 16 90 2b 64
        e 80 80 2b 40
        e 16 90 37 64
        e 80 80 37 40
        e 16 90 32 64
        e 80 80 32 40
        e 16 90 2f 64
        e 80 80 2f 40
        e 16 90 2b 64
        e 176 80 2b 40
        e 208 90 2b 64
        e 80 80 2b 40
        e 16 90 32 64
        e 80 80 32 40
        e 16 90 35 64
        e 0 90 37 64
        e 80 80 35 40
        e 0 80 37 40
        e 16 90 32 64
        e 80 80 32 40
        e 16 90 35 64
        e 0 90 37 64
        e 0 90 3b 64
        e 80 80 35 40
        e 0 80 37 40
        e 0 80 3b 40
        e 16 90 32 64
        e 80 80 32 40
        e 16 90 35 64
        e 0 90 37 64
        e 0 90 3b 64
        e 80 80 35 40
        e 0 80 37 40
        e 0 80 3b 40
        e 16 90 32 64
        e 80 80 32 40
        e 16 90 30 64
        e 80 80 30 40
        e 16 90 34 64
        e 80 80 34 40
        e 16 90 37 64
        e 0 90 3c 64
        e 80 80 37 40
        e 0 80 3c 40
        e 16 90 34 64
        e 80 80 34 40
        e 16 90 37 64
        e 0 90 3c 64
        e 80 80 37 40
        e 0 80 3c 40
        e 16 90 34 64
        e 80 80 34 40
        e 16 90 37 64
        e 0 90 3c 64
        e 0 90 40 64
        e 176 80 37 40
        e 0 80 3c 40
        e 0 80 40 40
        e 16 90 2b 64
        e 80 80 2b 40
        e 16 90 32 64
        e 80 80 32 40
        e 16 90 35 64
        e 0 90 37 64
        e 80 80 35 40
        e 0 80 37 40
        e 16 90 32 64
        e 80 80 32 40
        e 16 90 35 64
        e 0 90 37 64
        e 0 90 3b 64
        e 80 80 35 40
        e 0 80 37 40
        e 0 80 3b 40
        e 16 90 32 64
        e 80 80 32 40
        e 16 90 35 64
        e 0 90 37 64
        e 0 90 3b 64
        e 80 80 35 40
        e 0 80 37 40
        e 0 80 3b 40
        e 16 90 32 64
        e 80 80 32 40
        e 16 90 30 64
        e 80 80 30 40
        e 16 90 24 64
        e 0 90 30 64
        e 32 80 24 40
        e 0 80 30 40
        e 16 90 24 64
        e 0 90 30 64
        e 32 80 24 40
        e 0 80 30 40
        e 16 90 24 64
        e 0 90 30 64
        e 80 80 24 40
        e 0 80 30 40
        e 16 90 26 64
        e 0 90 32 64
        e 80 80 26 40
        e 0 80 32 40
        e 16 90 28 64
        e 0 90 34 64
        e 80 80 28 40
        e 0 80 34 40
        e 16 90 29 64
        e 0 90 35 64
        e 80 80 29 40
        e 0 80 35 40
        e 16 90 2b 64
        e 0 90 37 64
        e 80 80 2b 40
        e 0 80 37 40
        e 16 90 2d 64
        e 0 90 39 64
        e 80 80 2d 40
        e 0 80 39 40
        e 16 90 2e 64
        e 0 90 3a 64
        e 176 80 2e 40
        e 0 80 3a 40
        e 16 90 2e 64
        e 0 90 3a 64
        e 128 80 2e 40
        e 0 80 3a 40
        e 16 90 2e 64
        e 0 90 3a 64
        e 32 80 2e 40
        e 0 80 3a 40
        e 16 90 2d 64
        e 0 90 39 64
        e 176 80 2d 40
        e 0 80 39 40
        e 16 90 2b 64
        e 0 90 37 64
        e 176 80 2b 40
        e 0 80 37 40
        e 16 90 29 64
        e 0 90 35 64
        e 176 80 29 40
        e 0 80 35 40
        e 16 90 29 64
        e 0 90 35 64
        e 176 80 29 40
        e 0 80 35 40
        e 208 90 2a 64
        e 0 90 36 64
        e 128 80 2a 40
        e 0 80 36 40
        e 16 90 2a 64
        e 0 90 36 64
        e 32 80 2a 40
        e 0 80 36 40
        e 16 90 2b 64
        e 0 90 37 64
        e 176 80 2b 40
        e 0 80 37 40
        e 16 90 2b 64
        e 0 90 37 64
        e 128 80 2b 40
        e 0 80 37 40
        e 16 90 2b 64
        e 0 90 37 64
        e 32 80 2b 40
        e 0 80 37 40
        e 16 90 2b 64
        e 0 90 37 64
        e 176 80 2b 40
        e 0 80 37 40
        e 16 90 2b 64
        e 0 90 37 64
        e 128 80 2b 40
        e 0 80 37 40
        e 16 90 2b 64
        e 0 90 37 64
        e 32 80 2b 40
        e 0 80 37 40
        e 16 90 24 64
        e 0 90 30 64
        e 176 80 24 40
        e 0 80 30 40
        e 16 90 28 64
        e 48 80 28 40
        e 16 90 29 64
        e 48 80 29 40
        e 16 90 2b 64
        e 48 80 2b 40
        e 16 90 2d 64
        e 48 80 2d 40
        e 16 90 2f 64
        e 48 80 2f 40
        e 16 90 30 64
        e 48 80 30 40
        e 16 90 32 64
        e 48 80 32 40
        e 16 90 34 64
        e 48 80 34 40
        e 16 90 35 64
        e 48 80 35 40
        e 16 90 37 64
        e 80 80 37 40
        e 16 90 2b 64
        e 0 90 37 64
        e 32 80 2b 40
        e 0 80 37 40
        e 16 90 2b 64
        e 0 90 37 64
        e 32 80 2b 40
        e 0 80 37 40
        e 16 90 2b 64
        e 0 90 37 64
        e 80 80 2b 40
        e 0 80 37 40
        e 16 90 2b 64
        e 0 90 37 64
        e 80 80 2b 40
        e 0 80 37 40
        e 16 90 2b 64
        e 0 90 37 64
        e 80 80 2b 40
        e 0 80 37 40
        e 16 90 2b 64
        e 0 90 37 64
        e 32 80 2b 40
        e 0 80 37 40
        e 16 90 2b 64
        e 0 90 37 64
        e 32 80 2b 40
        e 0 80 37 40
        e 16 90 2b 64
        e 0 90 37 64
        e 80 80 2b 40
        e 0 80 37 40
        e 16 90 2b 64
        e 0 90 37 64
        e 80 80 2b 40
        e 0 80 37 40
        e 16 90 24 64
        e 0 90 30 64
        e 176 80 24 40
        e 0 80 30 40
        e 16 90 28 64
        e 48 80 28 40
        e 16 90 29 64
        e 48 80 29 40
        e 16 90 2b 64
        e 48 80 2b 40
        e 16 90 2d 64
        e 48 80 2d 40
        e 16 90 2f 64
        e 48 80 2f 40
        e 16 90 30 64
        e 48 80 30 40
        e 16 90 32 64
        e 48 80 32 40
        e 16 90 34 64
        e 48 80 34 40
        e 16 90 35 64
        e 48 80 35 40
        e 16 90 37 64
        e 80 80 37 40
        e 16 90 2b 64
        e 0 90 37 64
        e 32 80 2b 40
        e 0 80 37 40
        e 16 90 2b 64
        e 0 90 37 64
        e 32 80 2b 40
        e 0 80 37 40
        e 16 90 2b 64
        e 0 90 37 64
        e 80 80 2b 40
        e 0 80 37 40
        e 16 90 2b 64
        e 0 90 37 64
        e 80 80 2b 40
        e 0 80 37 40
        e 16 90 2b 64
        e 0 90 37 64
        e 80 80 2b 40
        e 0 80 37 40
        e 16 90 2b 64
        e 0 90 37 64
        e 32 80 2b 40
        e 0 80 37 40
        e 16 90 2b 64
        e 0 90 37 64
        e 32 80 2b 40
        e 0 80 37 40
        e 16 90 2b 64
        e 0 90 37 64
        e 80 80 2b 40
        e 0 80 37 40
        e 16 90 2b 64
        e 0 90 37 64
        e 80 80 2b 40
        e 0 80 37 40
        e 16 90 24 64
        e 0 90 30 64
        e 176 80 24 40
        e 0 80 30 40
        e 16 90 30 64
        e 48 80 30 40
        e 16 90 2b 64
        e 48 80 2b 40
        e 16 90 34 64
        e 48 80 34 40
        e 16 90 30 64
        e 48 80 30 40
        e 16 90 2b 64
        e 48 80 2b 40
        e 16 90 34 64
        e 48 80 34 40
        e 16 90 30 64
        e 48 80 30 40
        e 16 90 2b 64
        e 48 80 2b 40
        e 16 90 34 64
        e 48 80 34 40
        e 16 90 30 64
        e 48 80 30 40
        e 16 90 3c 64
        e 48 80 3c 40
        e 16 90 3b 64
        e 48 80 3b 40
        e 16 90 3c 64
        e 48 80 3c 40
        e 16 90 37 64
        e 48 80 37 40
        e 16 90 34 64
        e 48 80 34 40
        e 16 90 30 64
        e 48 80 30 40
        e 16 90 30 64
        e 48 80 30 40
        e 16 90 2f 64
        e 48 80 2f 40
        e 16 90 30 64
        e 48 80 30 40
        e 16 90 2b 64
        e 48 80 2b 40
        e 16 90 28 64
        e 48 80 28 40
        e 16 90 24 64
        e 176 80 24 40
        e 16 90 24 64
        e 0 90 30 64
        e 128 80 24 40
        e 0 80 30 40
        e 16 90 24 64
        e 0 90 30 64
        e 32 80 24 40
        e 0 80 30 40
        e 16 90 24 64
        e 0 90 30 64
        e 176 80 24 40
        e 0 80 30 40
        E 16 b0 7b 00
        GUID {98DA040A-F8A3-B44B-A0F5-8C0BBDB63EE5}
        IGNTEMPO 0 120 4 4
        SRCCOLOR 729
        VELLANE -1 86 6
        CFGEDITVIEW -12766.996273 1.203714 50 24 0 0 0 0 0 0.5
        KEYSNAP 0
        TRACKSEL 226 0 0 ""
        EVTFILTER 0 -1 -1 -1 -1 0 1 0 0 -1 -1 -1 -1 0 -1 0 -1 -1
        CFGEDIT 1 0 0 0 0 0 1 0 1 1 1 0.25 16 63 1280 778 0 0 2 3 0 0 0 0 0 0.5 0 0 1 64
      >
      TAKE
      NAME "lh                   - National_Anthems_-_Chile.mid"
      TAKEVOLPAN 0 1 -1
      SOFFS 21.5 43
      PLAYRATE 1 1 0 -1 0 0.0025
      CHANMODE 0
      GUID {AD0C9D12-BF01-F143-A7A1-9FF23322485C}
      <SOURCE MIDI
        HASDATA 1 192 QN
        POOLEDEVTS {41B24C54-132E-8B4B-A73E-5EB94CB677F7}
        <X 0 0
          /wNsaCAgICAgICAgICAgICAgICAgIA==
        >
        e 720 90 37 64
        e 16 90 39 64
        e 6 80 37 40
        e 2 90 3b 64
        e 14 80 39 40
        e 8 80 3b 40
        e 2 90 30 64
        e 0 90 3c 64
        e 334 80 30 40
        e 0 80 3c 40
        e 2 90 2f 64
        e 0 90 3b 64
        e 46 80 2f 40
        e 0 80 3b 40
        e 2 90 30 64
        e 0 90 3c 64
        e 142 80 30 40
        e 0 80 3c 40
        e 2 90 2c 64
        e 0 90 38 64
        e 46 80 2c 40
        e 0 80 38 40
        e 2 90 2d 64
        e 0 90 39 64
        e 142 80 2d 40
        e 0 80 39 40
        e 2 90 28 64
        e 0 90 34 64
        e 46 80 28 40
        e 0 80 34 40
        e 2 90 29 64
        e 0 90 35 64
        e 142 80 29 40
        e 0 80 35 40
        e 2 90 25 64
        e 0 90 31 64
        e 46 80 25 40
        e 0 80 31 40
        e 2 90 26 64
        e 0 90 32 64
        e 142 80 26 40
        e 0 80 32 40
        e 2 90 2e 64
        e 46 80 2e 40
        e 2 90 2f 64
        e 190 80 2f 40
        e 194 90 2b 64
        e 0 90 37 64
        e 94 80 2b 40
        e 0 80 37 40
        e 2 90 2b 64
        e 0 90 37 64
        e 46 80 2b 40
        e 0 80 37 40
        e 2 90 2b 64
        e 0 90 37 64
        e 46 80 2b 40
        e 0 80 37 40
        e 2 90 2b 64
        e 0 90 37 64
        e 94 80 2b 40
        e 0 80 37 40
        e 2 90 2b 64
        e 0 90 37 64
        e 94 80 2b 40
        e 0 80 37 40
        e 2 90 2b 64
        e 0 90 37 64
        e 94 80 2b 40
        e 0 80 37 40
        e 2 90 2c 64
        e 0 90 38 64
        e 94 80 2c 40
        e 0 80 38 40
        e 2 90 2d 64
        e 0 90 39 64
        e 94 80 2d 40
        e 0 80 39 40
        e 2 90 2f 64
        e 0 90 3b 64
        e 94 80 2f 40
        e 0 80 3b 40
        e 2 90 30 64
        e 0 90 3c 64
        e 190 80 30 40
        e 0 80 3c 40
        e 2 90 2b 64
        e 0 90 37 64
        e 190 80 2b 40
        e 0 80 37 40
        e 2 90 30 64
        e 0 90 37 64
        e 190 80 30 40
        e 0 80 37 40
        e 194 90 30 64
        e 0 90 35 64
        e 0 90 39 64
        e 94 80 30 40
        e 0 80 35 40
        e 0 80 39 40
        e 2 90 30 64
        e 0 90 35 64
        e 0 90 39 64
        e 94 80 30 40
        e 0 80 35 40
        e 0 80 39 40
        e 2 90 30 64
        e 0 90 35 64
        e 0 90 39 64
        e 94 80 30 40
        e 0 80 35 40
        e 0 80 39 40
        e 2 90 30 64
        e 0 90 35 64
        e 0 90 39 64
        e 94 80 30 40
        e 0 80 35 40
        e 0 80 39 40
        e 2 90 30 64
        e 0 90 35 64
        e 0 90 39 64
        e 94 80 30 40
        e 0 80 35 40
        e 0 80 39 40
        e 2 90 30 64
        e 0 90 35 64
        e 0 90 39 64
        e 94 80 30 40
        e 0 80 35 40
        e 0 80 39 40
        e 2 90 30 64
        e 0 90 35 64
        e 0 90 39 64
        e 94 80 30 40
        e 0 80 35 40
        e 0 80 39 40
        e 2 90 30 64
        e 0 90 35 64
        e 0 90 39 64
        e 94 80 30 40
        e 0 80 35 40
        e 0 80 39 40
        e 2 90 30 64
        e 0 90 37 64
        e 190 80 30 40
        e 0 80 37 40
        e 2 90 2b 64
        e 0 90 37 64
        e 190 80 2b 40
        e 0 80 37 40
        e 2 90 30 64
        e 0 90 37 64
        e 190 80 30 40
        e 0 80 37 40
        e 194 90 2c 64
        e 0 90 38 64
        e 80 80 2c 40
        e 0 80 38 40
        e 16 90 2c 64
        e 0 90 38 64
        e 32 80 2c 40
        e 0 80 38 40
        e 16 90 2c 64
        e 0 90 38 64
        e 32 80 2c 40
        e 0 80 38 40
        e 16 90 2c 64
        e 0 90 38 64
        e 80 80 2c 40
        e 0 80 38 40
        e 16 90 2c 64
        e 0 90 38 64
        e 80 80 2c 40
        e 0 80 38 40
        e 16 90 2c 64
        e 0 90 38 64
        e 80 80 2c 40
        e 0 80 38 40
        e 16 90 2c 64
        e 0 90 38 64
        e 80 80 2c 40
        e 0 80 38 40
        e 16 90 2c 64
        e 0 90 38 64
        e 80 80 2c 40
        e 0 80 38 40
        e 16 90 2c 64
        e 0 90 38 64
        e 80 80 2c 40
        e 0 80 38 40
        e 16 90 2b 64
        e 0 90 37 64
        e 80 80 2b 40
        e 0 80 37 40
        e 16 90 2b 64
        e 0 90 37 64
        e 80 80 2b 40
        e 0 80 37 40
        e 16 90 2b 64
        e 0 90 37 64
        e 80 80 2b 40
        e 0 80 37 40
        e 16 90 2b 64
        e 0 90 37 64
        e 80 80 2b 40
        e 0 80 37 40
        e 16 90 2b 64
        e 0 90 37 64
        e 80 80 2b 40
        e 0 80 37 40
        e 16 90 2b 64
        e 0 90 37 64
        e 80 80 2b 40
        e 0 80 37 40
        e 16 90 2b 64
        e 0 90 37 64
        e 80 80 2b 40
        e 0 80 37 40
        e 16 90 2b 64
        e 0 90 37 64
        e 80 80 2b 40
        e 0 80 37 40
        e 16 90 30 64
        e 0 90 37 64
        e 176 80 30 40
        e 0 80 37 40
        e 112 90 2b 64
        e 16 80 2b 40
        e 16 90 2d 64
        e 16 80 2d 40
        e 16 90 2f 64
        e 16 80 2f 40
        e 16 90 30 64
        e 80 80 30 40
        e 16 90 2b 64
        e 16 80 2b 40
        e 16 90 2d 64
        e 16 80 2d 40
        e 16 90 2f 64
        e 16 80 2f 40
        e 16 90 30 64
        e 80 80 30 40
        e 16 90 2b 64
        e 16 80 2b 40
        e 16 90 2d 64
        e 16 80 2d 40
        e 16 90 2f 64
        e 16 80 2f 40
        e 16 90 30 64
        e 176 80 30 40
        e 16 90 24 64
        e 0 90 30 64
        e 128 80 24 40
        e 0 80 30 40
        e 16 90 24 64
        e 0 90 30 64
        e 32 80 24 40
        e 0 80 30 40
        e 16 90 24 64
        e 0 90 30 64
        e 176 80 24 40
        e 0 80 30 40
        e 208 90 30 64
        e 80 80 30 40
        e 16 90 3c 64
        e 80 80 3c 40
        e 16 90 3c 64
        e 80 80 3c 40
        e 16 90 3c 64
        e 80 80 3c 40
        e 16 90 30 64
        e 80 80 30 40
        e 16 90 3c 64
        e 80 80 3c 40
        e 16 90 3c 64
        e 80 80 3c 40
        e 16 90 3c 64
        e 80 80 3c 40
        e 16 90 30 64
        e 80 80 30 40
        e 16 90 3c 64
        e 80 80 3c 40
        e 16 90 3c 64
        e 80 80 3c 40
        e 16 90 3c 64
        e 80 80 3c 40
        e 16 90 30 64
        e 176 80 30 40
        e 208 90 2f 64
        e 80 80 2f 40
        e 16 90 37 64
        e 80 80 37 40
        e 16 90 2f 64
        e 80 80 2f 40
        e 16 90 37 64
        e 80 80 37 40
        e 16 90 30 64
        e 80 80 30 40
        e 16 90 37 64
        e 80 80 37 40
        e 16 90 30 64
        e 80 80 30 40
        e 16 90 37 64
        e 80 80 37 40
        e 16 90 2b 64
        e 80 80 2b 40
        e 16 90 2b 64
        e 0 90 37 64
        e 32 80 2b 40
        e 0 80 37 40
        e 16 90 2b 64
        e 0 90 37 64
        e 32 80 2b 40
        e 0 80 37 40
        e 16 90 2b 64
        e 0 90 37 64
        e 80 80 2b 40
        e 0 80 37 40
        e 16 90 2b 64
        e 0 90 37 64
        e 80 80 2b 40
        e 0 80 37 40
        e 16 90 2b 64
        e 0 90 37 64
        e 80 80 2b 40
        e 0 80 37 40
        e 304 90 30 64
        e 80 80 30 40
        e 16 90 3c 64
        e 80 80 3c 40
        e 16 90 3c 64
        e 80 80 3c 40
        e 16 90 3c 64
        e 80 80 3c 40
        e 16 90 30 64
        e 80 80 30 40
        e 16 90 3c 64
        e 80 80 3c 40
        e 16 90 3c 64
        e 80 80 3c 40
        e 16 90 3c 64
        e 80 80 3c 40
        e 16 90 30 64
        e 80 80 30 40
        e 16 90 3c 64
        e 80 80 3c 40
        e 16 90 3c 64
        e 80 80 3c 40
        e 16 90 3c 64
        e 80 80 3c 40
        e 16 90 30 64
        e 176 80 30 40
        e 208 90 32 64
        e 80 80 32 40
        e 112 90 32 64
        e 80 80 32 40
        e 112 90 26 64
        e 80 80 26 40
        e 112 90 26 64
        e 80 80 26 40
        e 112 90 2b 64
        e 176 80 2b 40
        e 16 90 2b 64
        e 0 90 37 64
        e 128 80 2b 40
        e 0 80 37 40
        e 16 90 2b 64
        e 0 90 37 64
        e 32 80 2b 40
        e 0 80 37 40
        e 16 90 2b 64
        e 0 90 37 64
        e 176 80 2b 40
        e 0 80 37 40
        e 208 90 27 64
        e 0 90 33 64
        e 368 80 27 40
        e 0 80 33 40
        e 16 90 2b 64
        e 0 90 33 64
        e 368 80 2b 40
        e 0 80 33 40
        e 16 90 2e 64
        e 0 90 35 64
        e 368 80 2e 40
        e 0 80 35 40
        e 16 90 2e 64
        e 0 90 35 64
        e 176 80 2e 40
        e 0 80 35 40
        e 208 90 2e 64
        e 0 90 35 64
        e 368 80 2e 40
        e 0 80 35 40
        e 16 90 2e 64
        e 0 90 35 64
        e 368 80 2e 40
        e 0 80 35 40
        e 16 90 33 64
        e 0 90 37 64
        e 368 80 33 40
        e 0 80 37 40
        e 16 90 27 64
        e 0 90 33 64
        e 176 80 27 40
        e 0 80 33 40
        e 208 90 2c 64
        e 0 90 38 64
        e 176 80 2c 40
        e 0 80 38 40
        e 208 90 2c 64
        e 0 90 38 64
        e 176 80 2c 40
        e 0 80 38 40
        e 16 90 2c 64
        e 0 90 38 64
        e 176 80 2c 40
        e 0 80 38 40
        e 16 90 2b 64
        e 0 90 37 64
        e 176 80 2b 40
        e 0 80 37 40
        e 16 90 2b 64
        e 0 90 37 64
        e 128 80 2b 40
        e 0 80 37 40
        e 16 90 2b 64
        e 0 90 37 64
        e 32 80 2b 40
        e 0 80 37 40
        e 16 90 2b 64
        e 0 90 37 64
        e 176 80 2b 40
        e 0 80 37 40
        e 208 90 30 64
        e 0 90 37 64
        e 80 80 30 40
        e 0 80 37 40
        e 112 90 30 64
        e 0 90 37 64
        e 80 80 30 40
        e 0 80 37 40
        e 112 90 30 64
        e 0 90 37 64
        e 80 80 30 40
        e 0 80 37 40
        e 112 90 30 64
        e 0 90 37 64
        e 80 80 30 40
        e 0 80 37 40
        e 112 90 30 64
        e 0 90 37 64
        e 176 80 30 40
        e 0 80 37 40
        e 16 90 29 64
        e 0 90 35 64
        e 368 80 29 40
        e 0 80 35 40
        e 208 90 2b 64
        e 0 90 35 64
        e 80 80 2b 40
        e 0 80 35 40
        e 112 90 2b 64
        e 0 90 35 64
        e 80 80 2b 40
        e 0 80 35 40
        e 112 90 2b 64
        e 0 90 35 64
        e 80 80 2b 40
        e 0 80 35 40
        e 112 90 2b 64
        e 0 90 35 64
        e 80 80 2b 40
        e 0 80 35 40
        e 112 90 30 64
        e 176 80 30 40
        e 16 90 24 64
        e 80 80 24 40
        e 112 90 29 64
        e 0 90 35 64
        e 176 80 29 40
        e 0 80 35 40
        e 208 90 2b 64
        e 0 90 37 64
        e 176 80 2b 40
        e 0 80 37 40
        e 208 90 2b 64
        e 0 90 37 64
        e 176 80 2b 40
        e 0 80 37 40
        e 208 90 24 64
        e 0 90 30 64
        e 176 80 24 40
        e 0 80 30 40
        e 208 90 29 64
        e 0 90 35 64
        e 176 80 29 40
        e 0 80 35 40
        e 16 90 29 64
        e 0 90 35 64
        e 176 80 29 40
        e 0 80 35 40
        e 16 90 30 64
        e 0 90 34 64
        e 80 80 30 40
        e 0 80 34 40
        e 112 90 29 64
        e 0 90 35 64
        e 80 80 29 40
        e 0 80 35 40
        e 112 90 2b 64
        e 80 80 2b 40
        e 112 90 2b 64
        e 0 90 35 64
        e 80 80 2b 40
        e 0 80 35 40
        e 112 90 24 64
        e 0 90 30 64
        e 80 80 24 40
        e 0 80 30 40
        e 16 90 28 64
        e 0 90 34 64
        e 32 80 28 40
        e 0 80 34 40
        e 16 90 28 64
        e 0 90 34 64
        e 32 80 28 40
        e 0 80 34 40
        e 16 90 28 64
        e 0 90 34 64
        e 80 80 28 40
        e 0 80 34 40
        e 16 90 28 64
        e 0 90 34 64
        e 80 80 28 40
        e 0 80 34 40
        e 16 90 28 64
        e 0 90 34 64
        e 80 80 28 40
        e 0 80 34 40
        e 16 90 28 64
        e 0 90 34 64
        e 80 80 28 40
        e 0 80 34 40
        e 16 90 28 64
        e 0 90 34 64
        e 80 80 28 40
        e 0 80 34 40
        e 16 90 28 64
        e 0 90 34 64
        e 80 80 28 40
        e 0 80 34 40
        e 16 90 28 64
        e 96 90 34 64
        e 80 80 34 40
        e 16 90 34 64
        e 80 80 34 40
        e 16 90 34 64
        e 80 80 28 40
        e 0 80 34 40
        e 16 90 28 64
        e 96 90 34 64
        e 80 80 34 40
        e 16 90 34 64
        e 80 80 34 40
        e 16 90 34 64
        e 80 80 28 40
        e 0 80 34 40
        e 16 90 28 64
        e 96 90 34 64
        e 80 80 34 40
        e 16 90 34 64
        e 80 80 34 40
        e 16 90 34 64
        e 80 80 28 40
        e 0 80 34 40
        e 16 90 28 64
        e 96 90 34 64
        e 80 80 34 40
        e 16 90 34 64
        e 80 80 34 40
        e 16 90 34 64
        e 80 80 28 40
        e 0 80 34 40
        e 16 90 34 64
        e 80 80 34 40
        e 16 90 39 64
        e 0 90 3c 64
        e 80 80 39 40
        e 0 80 3c 40
        e 16 90 34 64
        e 80 80 34 40
        e 16 90 39 64
        e 0 90 3c 64
        e 80 80 39 40
        e 0 80 3c 40
        e 16 90 34 64
        e 80 80 34 40
        e 16 90 39 64
        e 0 90 3c 64
        e 80 80 39 40
        e 0 80 3c 40
        e 16 90 34 64
        e 80 80 34 40
        e 16 90 39 64
        e 0 90 3c 64
        e 0 90 3f 64
        e 80 80 39 40
        e 0 80 3c 40
        e 0 80 3f 40
        e 16 90 34 64
        e 0 90 40 64
        e 80 80 34 40
        e 0 80 40 40
        e 16 90 28 64
        e 0 90 34 64
        e 32 80 28 40
        e 0 80 34 40
        e 16 90 28 64
        e 0 90 34 64
        e 32 80 28 40
        e 0 80 34 40
        e 16 90 28 64
        e 0 90 34 64
        e 80 80 28 40
        e 0 80 34 40
        e 16 90 28 64
        e 0 90 34 64
        e 80 80 28 40
        e 0 80 34 40
        e 16 90 28 64
        e 0 90 34 64
        e 80 80 28 40
        e 0 80 34 40
        e 16 90 28 64
        e 0 90 34 64
        e 32 80 28 40
        e 0 80 34 40
        e 16 90 28 64
        e 0 90 34 64
        e 32 80 28 40
        e 0 80 34 40
        e 16 90 28 64
        e 0 90 34 64
        e 80 80 28 40
        e 0 80 34 40
        e 16 90 28 64
        e 0 90 34 64
        e 80 80 28 40
        e 0 80 34 40
        e 16 90 28 64
        e 96 90 34 64
        e 80 80 34 40
        e 16 90 34 64
        e 80 80 34 40
        e 16 90 34 64
        e 80 80 28 40
        e 0 80 34 40
        e 16 90 28 64
        e 96 90 34 64
        e 80 80 34 40
        e 16 90 34 64
        e 80 80 34 40
        e 16 90 34 64
        e 80 80 28 40
        e 0 80 34 40
        e 16 90 28 64
        e 96 90 34 64
        e 80 80 34 40
        e 16 90 34 64
        e 80 80 34 40
        e 16 90 34 64
        e 80 80 28 40
        e 0 80 34 40
        e 16 90 28 64
        e 96 90 34 64
        e 80 80 34 40
        e 16 90 34 64
        e 80 80 34 40
        e 16 90 34 64
        e 80 80 28 40
        e 0 80 34 40
        e 16 90 34 64
        e 80 80 34 40
        e 16 90 39 64
        e 0 90 3c 64
        e 80 80 39 40
        e 0 80 3c 40
        e 16 90 34 64
        e 80 80 34 40
        e 16 90 39 64
        e 0 90 3c 64
        e 80 80 39 40
        e 0 80 3c 40
        e 16 90 34 64
        e 80 80 34 40
        e 16 90 39 64
        e 0 90 3c 64
        e 80 80 39 40
        e 0 80 3c 40
        e 16 90 34 64
        e 80 80 34 40
        e 16 90 39 64
        e 0 90 3c 64
        e 0 90 3f 64
        e 80 80 39 40
        e 0 80 3c 40
        e 0 80 3f 40
        e 16 90 34 64
        e 0 90 40 64
        e 80 80 34 40
        e 0 80 40 40
        e 16 90 40 64
        e 80 80 40 40
        e 16 90 3b 64
        e 80 80 3b 40
        e 16 90 38 64
        e 80 80 38 40
        e 16 90 34 64
        e 176 80 34 40
        e 208 90 24 64
        e 0 90 30 64
        e 80 80 24 40
        e 0 80 30 40
        e 16 90 30 64
        e 80 80 30 40
        e 16 90 30 64
        e 0 90 3a 64
        e 80 80 30 40
        e 0 80 3a 40
        e 16 90 30 64
        e 80 80 30 40
        e 16 90 24 64
        e 0 90 30 64
        e 80 80 24 40
        e 0 80 30 40
        e 16 90 30 64
        e 80 80 30 40
        e 16 90 30 64
        e 0 90 3a 64
        e 80 80 30 40
        e 0 80 3a 40
        e 16 90 30 64
        e 80 80 30 40
        e 16 90 29 64
        e 80 80 29 40
        e 16 90 35 64
        e 80 80 35 40
        e 16 90 30 64
        e 80 80 30 40
        e 16 90 2d 64
        e 80 80 2d 40
        e 16 90 29 64
        e 176 80 29 40
        e 208 90 26 64
        e 0 90 32 64
        e 80 80 26 40
        e 0 80 32 40
        e 16 90 32 64
        e 80 80 32 40
        e 16 90 36 64
        e 0 90 3c 64
        e 80 80 36 40
        e 0 80 3c 40
        e 16 90 32 64
        e 80 80 32 40
        e 16 90 26 64
        e 0 90 32 64
        e 80 80 26 40
        e 0 80 32 40
        e 16 90 32 64
        e 80 80 32 40
        e 16 90 36 64
        e 0 90 3c 64
        e 80 80 36 40
        e 0 80 3c 40
        e 16 90 32 64
        e 80 80 32 40
        e 16 90 2b 64
        e 80 80 2b 40
        e 16 90 37 64
        e 80 80 37 40
        e 16 90 32 64
        e 80 80 32 40
        e 16 90 2f 64
        e 80 80 2f 40
        e 16 90 2b 64
        e 176 80 2b 40
        e 208 90 2b 64
        e 80 80 2b 40
        e 16 90 32 64
        e 80 80 32 40
        e 16 90 35 64
        e 0 90 37 64
        e 80 80 35 40
        e 0 80 37 40
        e 16 90 32 64
        e 80 80 32 40
        e 16 90 35 64
        e 0 90 37 64
        e 0 90 3b 64
        e 80 80 35 40
        e 0 80 37 40
        e 0 80 3b 40
        e 16 90 32 64
        e 80 80 32 40
        e 16 90 35 64
        e 0 90 37 64
        e 0 90 3b 64
        e 80 80 35 40
        e 0 80 37 40
        e 0 80 3b 40
        e 16 90 32 64
        e 80 80 32 40
        e 16 90 30 64
        e 80 80 30 40
        e 16 90 34 64
        e 80 80 34 40
        e 16 90 37 64
        e 0 90 3c 64
        e 80 80 37 40
        e 0 80 3c 40
        e 16 90 34 64
        e 80 80 34 40
        e 16 90 37 64
        e 0 90 3c 64
        e 80 80 37 40
        e 0 80 3c 40
        e 16 90 34 64
        e 80 80 34 40
        e 16 90 37 64
        e 0 90 3c 64
        e 0 90 40 64
        e 176 80 37 40
        e 0 80 3c 40
        e 0 80 40 40
        e 16 90 2b 64
        e 80 80 2b 40
        e 16 90 32 64
        e 80 80 32 40
        e 16 90 35 64
        e 0 90 37 64
        e 80 80 35 40
        e 0 80 37 40
        e 16 90 32 64
        e 80 80 32 40
        e 16 90 35 64
        e 0 90 37 64
        e 0 90 3b 64
        e 80 80 35 40
        e 0 80 37 40
        e 0 80 3b 40
        e 16 90 32 64
        e 80 80 32 40
        e 16 90 35 64
        e 0 90 37 64
        e 0 90 3b 64
        e 80 80 35 40
        e 0 80 37 40
        e 0 80 3b 40
        e 16 90 32 64
        e 80 80 32 40
        e 16 90 30 64
        e 80 80 30 40
        e 16 90 24 64
        e 0 90 30 64
        e 32 80 24 40
        e 0 80 30 40
        e 16 90 24 64
        e 0 90 30 64
        e 32 80 24 40
        e 0 80 30 40
        e 16 90 24 64
        e 0 90 30 64
        e 80 80 24 40
        e 0 80 30 40
        e 16 90 26 64
        e 0 90 32 64
        e 80 80 26 40
        e 0 80 32 40
        e 16 90 28 64
        e 0 90 34 64
        e 80 80 28 40
        e 0 80 34 40
        e 16 90 29 64
        e 0 90 35 64
        e 80 80 29 40
        e 0 80 35 40
        e 16 90 2b 64
        e 0 90 37 64
        e 80 80 2b 40
        e 0 80 37 40
        e 16 90 2d 64
        e 0 90 39 64
        e 80 80 2d 40
        e 0 80 39 40
        e 16 90 2e 64
        e 0 90 3a 64
        e 176 80 2e 40
        e 0 80 3a 40
        e 16 90 2e 64
        e 0 90 3a 64
        e 128 80 2e 40
        e 0 80 3a 40
        e 16 90 2e 64
        e 0 90 3a 64
        e 32 80 2e 40
        e 0 80 3a 40
        e 16 90 2d 64
        e 0 90 39 64
        e 176 80 2d 40
        e 0 80 39 40
        e 16 90 2b 64
        e 0 90 37 64
        e 176 80 2b 40
        e 0 80 37 40
        e 16 90 29 64
        e 0 90 35 64
        e 176 80 29 40
        e 0 80 35 40
        e 16 90 29 64
        e 0 90 35 64
        e 176 80 29 40
        e 0 80 35 40
        e 208 90 2a 64
        e 0 90 36 64
        e 128 80 2a 40
        e 0 80 36 40
        e 16 90 2a 64
        e 0 90 36 64
        e 32 80 2a 40
        e 0 80 36 40
        e 16 90 2b 64
        e 0 90 37 64
        e 176 80 2b 40
        e 0 80 37 40
        e 16 90 2b 64
        e 0 90 37 64
        e 128 80 2b 40
        e 0 80 37 40
        e 16 90 2b 64
        e 0 90 37 64
        e 32 80 2b 40
        e 0 80 37 40
        e 16 90 2b 64
        e 0 90 37 64
        e 176 80 2b 40
        e 0 80 37 40
        e 16 90 2b 64
        e 0 90 37 64
        e 128 80 2b 40
        e 0 80 37 40
        e 16 90 2b 64
        e 0 90 37 64
        e 32 80 2b 40
        e 0 80 37 40
        e 16 90 24 64
        e 0 90 30 64
        e 176 80 24 40
        e 0 80 30 40
        e 16 90 28 64
        e 48 80 28 40
        e 16 90 29 64
        e 48 80 29 40
        e 16 90 2b 64
        e 48 80 2b 40
        e 16 90 2d 64
        e 48 80 2d 40
        e 16 90 2f 64
        e 48 80 2f 40
        e 16 90 30 64
        e 48 80 30 40
        e 16 90 32 64
        e 48 80 32 40
        e 16 90 34 64
        e 48 80 34 40
        e 16 90 35 64
        e 48 80 35 40
        e 16 90 37 64
        e 80 80 37 40
        e 16 90 2b 64
        e 0 90 37 64
        e 32 80 2b 40
        e 0 80 37 40
        e 16 90 2b 64
        e 0 90 37 64
        e 32 80 2b 40
        e 0 80 37 40
        e 16 90 2b 64
        e 0 90 37 64
        e 80 80 2b 40
        e 0 80 37 40
        e 16 90 2b 64
        e 0 90 37 64
        e 80 80 2b 40
        e 0 80 37 40
        e 16 90 2b 64
        e 0 90 37 64
        e 80 80 2b 40
        e 0 80 37 40
        e 16 90 2b 64
        e 0 90 37 64
        e 32 80 2b 40
        e 0 80 37 40
        e 16 90 2b 64
        e 0 90 37 64
        e 32 80 2b 40
        e 0 80 37 40
        e 16 90 2b 64
        e 0 90 37 64
        e 80 80 2b 40
        e 0 80 37 40
        e 16 90 2b 64
        e 0 90 37 64
        e 80 80 2b 40
        e 0 80 37 40
        e 16 90 24 64
        e 0 90 30 64
        e 176 80 24 40
        e 0 80 30 40
        e 16 90 28 64
        e 48 80 28 40
        e 16 90 29 64
        e 48 80 29 40
        e 16 90 2b 64
        e 48 80 2b 40
        e 16 90 2d 64
        e 48 80 2d 40
        e 16 90 2f 64
        e 48 80 2f 40
        e 16 90 30 64
        e 48 80 30 40
        e 16 90 32 64
        e 48 80 32 40
        e 16 90 34 64
        e 48 80 34 40
        e 16 90 35 64
        e 48 80 35 40
        e 16 90 37 64
        e 80 80 37 40
        e 16 90 2b 64
        e 0 90 37 64
        e 32 80 2b 40
        e 0 80 37 40
        e 16 90 2b 64
        e 0 90 37 64
        e 32 80 2b 40
        e 0 80 37 40
        e 16 90 2b 64
        e 0 90 37 64
        e 80 80 2b 40
        e 0 80 37 40
        e 16 90 2b 64
        e 0 90 37 64
        e 80 80 2b 40
        e 0 80 37 40
        e 16 90 2b 64
        e 0 90 37 64
        e 80 80 2b 40
        e 0 80 37 40
        e 16 90 2b 64
        e 0 90 37 64
        e 32 80 2b 40
        e 0 80 37 40
        e 16 90 2b 64
        e 0 90 37 64
        e 32 80 2b 40
        e 0 80 37 40
        e 16 90 2b 64
        e 0 90 37 64
        e 80 80 2b 40
        e 0 80 37 40
        e 16 90 2b 64
        e 0 90 37 64
        e 80 80 2b 40
        e 0 80 37 40
        e 16 90 24 64
        e 0 90 30 64
        e 176 80 24 40
        e 0 80 30 40
        e 16 90 30 64
        e 48 80 30 40
        e 16 90 2b 64
        e 48 80 2b 40
        e 16 90 34 64
        e 48 80 34 40
        e 16 90 30 64
        e 48 80 30 40
        e 16 90 2b 64
        e 48 80 2b 40
        e 16 90 34 64
        e 48 80 34 40
        e 16 90 30 64
        e 48 80 30 40
        e 16 90 2b 64
        e 48 80 2b 40
        e 16 90 34 64
        e 48 80 34 40
        e 16 90 30 64
        e 48 80 30 40
        e 16 90 3c 64
        e 48 80 3c 40
        e 16 90 3b 64
        e 48 80 3b 40
        e 16 90 3c 64
        e 48 80 3c 40
        e 16 90 37 64
        e 48 80 37 40
        e 16 90 34 64
        e 48 80 34 40
        e 16 90 30 64
        e 48 80 30 40
        e 16 90 30 64
        e 48 80 30 40
        e 16 90 2f 64
        e 48 80 2f 40
        e 16 90 30 64
        e 48 80 30 40
        e 16 90 2b 64
        e 48 80 2b 40
        e 16 90 28 64
        e 48 80 28 40
        e 16 90 24 64
        e 176 80 24 40
        e 16 90 24 64
        e 0 90 30 64
        e 128 80 24 40
        e 0 80 30 40
        e 16 90 24 64
        e 0 90 30 64
        e 32 80 24 40
        e 0 80 30 40
        e 16 90 24 64
        e 0 90 30 64
        e 176 80 24 40
        e 0 80 30 40
        E 16 b0 7b 00
        GUID {9989EB5F-B245-654A-A13D-6B24A39D5432}
        IGNTEMPO 0 120 4 4
        SRCCOLOR 915
        VELLANE -1 86 6
        CFGEDITVIEW 0 0 50 24 0 0 0 0 0 0.5
        KEYSNAP 0
        TRACKSEL 226 0 0 ""
        EVTFILTER 0 -1 -1 -1 -1 0 1 0 0 -1 -1 -1 -1 0 -1 0 -1 -1
        CFGEDIT 1 0 0 0 0 0 1 0 1 1 1 0.25 16 63 1280 778 0 0 2 3 0 0 0 0 0 0.5 0 0 1 64
      >
    >
    <ITEM
      POSITION 0
      SNAPOFFS 0
      LENGTH 91
      LOOP 1
      ALLTAKES 0
      FADEIN 1 0 0 1 0 0
      FADEOUT 1 0 0 1 0 0
      MUTE 0
      SEL 0
      YPOS 0.95 0.05
      IGUID {1B22C4D1-58EB-6144-BD44-34BA286434B0}
      IID 15
      NAME "Flute/Melody 8va up  - National_Anthems_-_Chile.mid"
      VOLPAN 1 0 1 -1
      SOFFS 21.5 43
      PLAYRATE 1 1 0 -1 0 0.0025
      CHANMODE 0
      TAKECOLOR 26173599 B
      GUID {3B6DFD5E-CE31-1642-9F65-DFC81C2B2299}
      <SOURCE MIDI
        HASDATA 1 192 QN
        POOLEDEVTS {19AB3561-688E-B84A-AE9A-CDF9790673C7}
        <X 0 0
          /wNGbHV0ZS9NZWxvZHkgOHZhIHVwIA==
        >
        e 8256 90 4f 7f
        e 128 80 4f 40
        e 16 90 54 7f
        e 32 80 54 40
        e 16 90 54 7f
        e 128 80 54 40
        e 16 90 53 7f
        e 32 80 53 40
        e 16 90 53 7f
        e 128 80 53 40
        e 16 90 51 7f
        e 32 80 51 40
        e 16 90 51 7f
        e 128 80 51 40
        e 16 90 4f 7f
        e 32 80 4f 40
        e 16 90 4f 7f
        e 128 80 4f 40
        e 16 90 4e 7f
        e 32 80 4e 40
        e 16 90 4f 7f
        e 272 80 4f 40
        e 16 90 4d 7f
        e 80 80 4d 40
        e 16 90 4c 7f
        e 176 80 4c 40
        e 16 90 4a 7f
        e 128 80 4a 40
        e 16 90 4c 7f
        e 32 80 4c 40
        e 16 90 4d 7f
        e 128 80 4d 40
        e 16 90 4f 7f
        e 32 80 4f 40
        e 16 90 51 7f
        e 48 80 51 40
        e 16 90 4f 7f
        e 48 80 4f 40
        e 16 90 4d 7f
        e 48 80 4d 40
        e 16 90 4c 7f
        e 128 80 4c 40
        e 16 90 4d 7f
        e 32 80 4d 40
        e 16 90 4f 7f
        e 48 80 4f 40
        e 16 90 4d 7f
        e 48 80 4d 40
        e 16 90 4c 7f
        e 48 80 4c 40
        e 16 90 4a 7f
        e 176 80 4a 40
        e 400 90 4f 7f
        e 128 80 4f 40
        e 16 90 54 7f
        e 32 80 54 40
        e 16 90 54 7f
        e 128 80 54 40
        e 16 90 53 7f
        e 32 80 53 40
        e 16 90 53 7f
        e 128 80 53 40
        e 16 90 51 7f
        e 32 80 51 40
        e 16 90 51 7f
        e 128 80 51 40
        e 16 90 4f 7f
        e 32 80 4f 40
        e 16 90 4f 7f
        e 128 80 4f 40
        e 16 90 4e 7f
        e 32 80 4e 40
        e 16 90 4f 7f
        e 272 80 4f 40
        e 16 90 4d 7f
        e 80 80 4d 40
        e 16 90 4c 7f
        e 176 80 4c 40
        e 16 90 4f 7f
        e 128 80 4f 40
        e 16 90 54 7f
        e 32 80 54 40
        e 16 90 53 7f
        e 128 80 53 40
        e 16 90 52 7f
        e 32 80 52 40
        e 16 90 53 7f
        e 128 80 53 40
        e 16 90 54 7f
        e 32 80 54 40
        e 16 90 51 7f
        e 128 80 51 40
        e 16 90 50 7f
        e 32 80 50 40
        e 16 90 51 7f
        e 128 80 51 40
        e 16 90 53 7f
        e 32 80 53 40
        e 16 90 4f 7f
        e 368 80 4f 40
        e 208 90 4f 7f
        e 128 80 4f 40
        e 16 90 4f 7f
        e 32 80 4f 40
        e 16 90 4f 7f
        e 176 80 4f 40
        e 16 90 4f 7f
        e 128 80 4f 40
        e 16 90 4f 7f
        e 32 80 4f 40
        e 16 90 50 7f
        e 80 80 50 40
        e 16 90 4f 7f
        e 80 80 4f 40
        e 16 90 4d 7f
        e 80 80 4d 40
        e 16 90 4f 7f
        e 80 80 4f 40
        e 16 90 50 7f
        e 272 80 50 40
        e 16 90 4f 7f
        e 80 80 4f 40
        e 16 90 4d 7f
        e 176 80 4d 40
        e 16 90 50 7f
        e 128 80 50 40
        e 16 90 50 7f
        e 32 80 50 40
        e 16 90 50 7f
        e 176 80 50 40
        e 16 90 50 7f
        e 128 80 50 40
        e 16 90 50 7f
        e 32 80 50 40
        e 16 90 52 7f
        e 80 80 52 40
        e 16 90 50 7f
        e 80 80 50 40
        e 16 90 4f 7f
        e 80 80 4f 40
        e 16 90 50 7f
        e 80 80 50 40
        e 16 90 52 7f
        e 368 80 52 40
        e 208 90 4f 7f
        e 128 80 4f 40
        e 16 90 4f 7f
        e 32 80 4f 40
        e 16 90 54 7f
        e 176 80 54 40
        e 16 90 54 7f
        e 128 80 54 40
        e 16 90 54 7f
        e 32 80 54 40
        e 16 90 54 7f
        e 48 80 54 40
        e 16 90 52 7f
        e 48 80 52 40
        e 16 90 50 7f
        e 48 80 50 40
        e 16 90 50 7f
        e 48 80 50 40
        e 16 90 4f 7f
        e 48 80 4f 40
        e 16 90 4e 7f
        e 48 80 4e 40
        e 16 90 4f 7f
        e 368 80 4f 40
        e 208 90 4c 7f
        e 128 80 4c 40
        e 16 90 4c 7f
        e 32 80 4c 40
        e 16 90 4c 7f
        e 128 80 4c 40
        e 16 90 4a 7f
        e 32 80 4a 40
        e 16 90 4c 7f
        e 128 80 4c 40
        e 16 90 4a 7f
        e 32 80 4a 40
        e 16 90 4c 7f
        e 128 80 4c 40
        e 16 90 4a 7f
        e 32 80 4a 40
        e 16 90 4c 7f
        e 128 80 4c 40
        e 16 90 4d 7f
        e 32 80 4d 40
        e 16 90 4f 7f
        e 176 80 4f 40
        e 16 90 51 7f
        e 368 80 51 40
        e 16 90 4a 7f
        e 128 80 4a 40
        e 16 90 4a 7f
        e 32 80 4a 40
        e 16 90 4a 7f
        e 128 80 4a 40
        e 16 90 48 7f
        e 32 80 48 40
        e 16 90 4a 7f
        e 128 80 4a 40
        e 16 90 48 7f
        e 32 80 48 40
        e 16 90 4a 7f
        e 128 80 4a 40
        e 16 90 4c 7f
        e 32 80 4c 40
        e 16 90 4d 7f
        e 128 80 4d 40
        e 16 90 4e 7f
        e 32 80 4e 40
        e 16 90 51 7f
        e 176 80 51 40
        e 16 90 4f 7f
        e 80 80 4f 40
        e 112 90 51 7f
        e 80 80 51 40
        e 64 90 53 7f
        e 32 80 53 40
        e 16 90 54 7f
        e 48 80 54 40
        e 16 90 53 7f
        e 48 80 53 40
        e 16 90 51 7f
        e 48 80 51 40
        e 16 90 53 7f
        e 128 80 53 40
        e 16 90 51 7f
        e 32 80 51 40
        e 16 90 4f 7f
        e 128 80 4f 40
        e 16 90 4f 7f
        e 32 80 4f 40
        e 16 90 4d 7f
        e 128 80 4d 40
        e 16 90 4f 7f
        e 32 80 4f 40
        e 16 90 51 7f
        e 48 80 51 40
        e 16 90 4f 7f
        e 48 80 4f 40
        e 16 90 4d 7f
        e 48 80 4d 40
        e 16 90 4f 7f
        e 176 80 4f 40
        e 16 90 4c 7f
        e 176 80 4c 40
        e 16 90 51 7f
        e 128 80 51 40
        e 16 90 53 7f
        e 32 80 53 40
        e 16 90 54 7f
        e 48 80 54 40
        e 16 90 53 7f
        e 48 80 53 40
        e 16 90 51 7f
        e 48 80 51 40
        e 16 90 4f 7f
        e 128 80 4f 40
        e 16 90 54 7f
        e 32 80 54 40
        e 16 90 54 7f
        e 48 80 54 40
        e 16 90 53 7f
        e 48 80 53 40
        e 16 90 51 7f
        e 48 80 51 40
        e 16 90 51 7f
        e 48 80 51 40
        e 16 90 4f 7f
        e 48 80 4f 40
        e 14 90 4d 7f
        e 48 80 4d 40
        e 18 90 4d 7f
        e 48 80 4d 40
        e 16 90 4c 7f
        e 48 80 4c 40
        e 16 90 4a 7f
        e 48 80 4a 40
        e 16 90 48 7f
        e 176 80 48 40
        e 592 90 53 7f
        e 560 80 53 40
        e 16 90 54 7f
        e 176 80 54 40
        e 16 90 56 7f
        e 368 80 56 40
        e 16 90 56 7f
        e 176 80 56 40
        e 16 90 53 7f
        e 176 80 53 40
        e 16 90 54 7f
        e 368 80 54 40
        e 16 90 54 7f
        e 128 80 54 40
        e 16 90 53 7f
        e 32 80 53 40
        e 16 90 54 7f
        e 128 80 54 40
        e 16 90 56 7f
        e 32 80 56 40
        e 16 90 53 7f
        e 176 80 53 40
        e 16 90 53 7f
        e 176 80 53 40
        e 400 90 53 7f
        e 560 80 53 40
        e 16 90 54 7f
        e 176 80 54 40
        e 16 90 56 7f
        e 368 80 56 40
        e 16 90 56 7f
        e 176 80 56 40
        e 16 90 53 7f
        e 176 80 53 40
        e 16 90 54 7f
        e 368 80 54 40
        e 16 90 54 7f
        e 128 80 54 40
        e 16 90 53 7f
        e 32 80 53 40
        e 16 90 54 7f
        e 128 80 54 40
        e 16 90 56 7f
        e 32 80 56 40
        e 16 90 53 7f
        e 176 80 53 40
        e 400 90 4c 7f
        e 128 80 4c 40
        e 16 90 4d 7f
        e 32 80 4d 40
        e 16 90 4f 7f
        e 176 80 4f 40
        e 16 90 4f 7f
        e 128 80 4f 40
        e 16 90 51 7f
        e 32 80 51 40
        e 16 90 52 7f
        e 176 80 52 40
        e 16 90 52 7f
        e 128 80 52 40
        e 16 90 52 7f
        e 32 80 52 40
        e 16 90 52 7f
        e 176 80 52 40
        e 16 90 51 7f
        e 176 80 51 40
        e 208 90 4e 7f
        e 128 80 4e 40
        e 16 90 4f 7f
        e 32 80 4f 40
        e 16 90 51 7f
        e 176 80 51 40
        e 16 90 51 7f
        e 128 80 51 40
        e 16 90 53 7f
        e 32 80 53 40
        e 16 90 54 7f
        e 176 80 54 40
        e 16 90 54 7f
        e 128 80 54 40
        e 16 90 54 7f
        e 32 80 54 40
        e 16 90 53 7f
        e 368 80 53 40
        e 208 90 53 7f
        e 128 80 53 40
        e 16 90 53 7f
        e 32 80 53 40
        e 16 90 53 7f
        e 128 80 53 40
        e 16 90 51 7f
        e 32 80 51 40
        e 16 90 53 7f
        e 128 80 53 40
        e 16 90 51 7f
        e 32 80 51 40
        e 16 90 51 7f
        e 128 80 51 40
        e 16 90 4f 7f
        e 32 80 4f 40
        e 16 90 51 7f
        e 128 80 51 40
        e 16 90 4f 7f
        e 32 80 4f 40
        e 16 90 51 7f
        e 272 80 51 40
        e 16 90 4f 7f
        e 80 80 4f 40
        e 16 90 4c 7f
        e 176 80 4c 40
        e 16 90 54 7f
        e 128 80 54 40
        e 16 90 53 7f
        e 32 80 53 40
        e 16 90 53 7f
        e 128 80 53 40
        e 16 90 51 7f
        e 32 80 51 40
        e 16 90 53 7f
        e 128 80 53 40
        e 16 90 51 7f
        e 32 80 51 40
        e 16 90 51 7f
        e 128 80 51 40
        e 16 90 4f 7f
        e 32 80 4f 40
        e 16 90 51 7f
        e 128 80 51 40
        e 16 90 4f 7f
        e 32 80 4f 40
        e 16 90 4c 7f
        e 176 80 4c 40
        e 16 90 48 7f
        e 80 80 48 40
        e 16 90 4a 7f
        e 80 80 4a 40
        e 16 90 4c 7f
        e 80 80 4c 40
        e 16 90 4d 7f
        e 80 80 4d 40
        e 16 90 4f 7f
        e 80 80 4f 40
        e 16 90 51 7f
        e 80 80 51 40
        e 16 90 52 7f
        e 368 80 52 40
        e 16 90 56 7f
        e 176 80 56 40
        e 16 90 55 7f
        e 176 80 55 40
        e 16 90 56 7f
        e 176 80 56 40
        e 16 90 56 7f
        e 176 80 56 40
        e 208 90 54 7f
        e 128 80 54 40
        e 16 90 54 7f
        e 32 80 54 40
        e 16 90 58 7f
        e 176 80 58 40
        e 16 90 54 7f
        e 128 80 54 40
        e 16 90 54 7f
        e 32 80 54 40
        e 16 90 56 7f
        e 176 80 56 40
        e 16 90 53 7f
        e 128 80 53 40
        e 16 90 53 7f
        e 32 80 53 40
        e 16 90 54 7f
        e 176 80 54 40
        e 400 90 54 7f
        e 128 80 54 40
        e 16 90 54 7f
        e 30 80 54 40
        e 18 90 54 7f
        e 176 80 54 40
        e 16 90 54 7f
        e 128 80 54 40
        e 16 90 54 7f
        e 32 80 54 40
        e 16 90 56 7f
        e 176 80 56 40
        e 16 90 53 7f
        e 128 80 53 40
        e 16 90 53 7f
        e 30 80 53 40
        e 18 90 54 7f
        e 176 80 54 40
        e 400 90 54 7f
        e 128 80 54 40
        e 16 90 54 7f
        e 32 80 54 40
        e 16 90 58 7f
        e 174 80 58 40
        e 18 90 54 7f
        e 123 80 54 40
        e 21 90 54 7f
        e 32 80 54 40
        e 16 90 56 7f
        e 176 80 56 40
        e 16 90 53 7f
        e 128 80 53 40
        e 16 90 53 7f
        e 32 80 53 40
        e 16 90 54 7f
        e 176 80 54 40
        E 16 b0 7b 00
        GUID {D0EAB905-DAC3-5649-BAB2-A7C253A3C6ED}
        IGNTEMPO 0 120 4 4
        SRCCOLOR 724
        VELLANE -1 86 6
        CFGEDITVIEW -12766.996273 1.203714 50 24 0 0 0 0 0 0.5
        KEYSNAP 0
        TRACKSEL 226 0 0 ""
        EVTFILTER 0 -1 -1 -1 -1 0 1 0 0 -1 -1 -1 -1 0 -1 0 -1 -1
        CFGEDIT 1 0 0 0 0 0 1 0 1 1 1 0.25 16 63 1280 778 0 0 2 3 0 0 0 0 0 0.5 0 0 1 64
      >
      TAKE
      NAME "Flute/Melody 8va up  - National_Anthems_-_Chile.mid"
      TAKEVOLPAN 0 1 -1
      SOFFS 21.5 43
      PLAYRATE 1 1 0 -1 0 0.0025
      CHANMODE 0
      GUID {FA9D057E-4619-8B49-BAAE-45FE39C2659C}
      <SOURCE MIDI
        HASDATA 1 192 QN
        POOLEDEVTS {D401FD86-2F3E-2C48-835C-69421FECD64A}
        <X 0 0
          /wNGbHV0ZS9NZWxvZHkgOHZhIHVwIA==
        >
        e 8256 90 4f 7f
        e 128 80 4f 40
        e 16 90 54 7f
        e 32 80 54 40
        e 16 90 54 7f
        e 128 80 54 40
        e 16 90 53 7f
        e 32 80 53 40
        e 16 90 53 7f
        e 128 80 53 40
        e 16 90 51 7f
        e 32 80 51 40
        e 16 90 51 7f
        e 128 80 51 40
        e 16 90 4f 7f
        e 32 80 4f 40
        e 16 90 4f 7f
        e 128 80 4f 40
        e 16 90 4e 7f
        e 32 80 4e 40
        e 16 90 4f 7f
        e 272 80 4f 40
        e 16 90 4d 7f
        e 80 80 4d 40
        e 16 90 4c 7f
        e 176 80 4c 40
        e 16 90 4a 7f
        e 128 80 4a 40
        e 16 90 4c 7f
        e 32 80 4c 40
        e 16 90 4d 7f
        e 128 80 4d 40
        e 16 90 4f 7f
        e 32 80 4f 40
        e 16 90 51 7f
        e 48 80 51 40
        e 16 90 4f 7f
        e 48 80 4f 40
        e 16 90 4d 7f
        e 48 80 4d 40
        e 16 90 4c 7f
        e 128 80 4c 40
        e 16 90 4d 7f
        e 32 80 4d 40
        e 16 90 4f 7f
        e 48 80 4f 40
        e 16 90 4d 7f
        e 48 80 4d 40
        e 16 90 4c 7f
        e 48 80 4c 40
        e 16 90 4a 7f
        e 176 80 4a 40
        e 400 90 4f 7f
        e 128 80 4f 40
        e 16 90 54 7f
        e 32 80 54 40
        e 16 90 54 7f
        e 128 80 54 40
        e 16 90 53 7f
        e 32 80 53 40
        e 16 90 53 7f
        e 128 80 53 40
        e 16 90 51 7f
        e 32 80 51 40
        e 16 90 51 7f
        e 128 80 51 40
        e 16 90 4f 7f
        e 32 80 4f 40
        e 16 90 4f 7f
        e 128 80 4f 40
        e 16 90 4e 7f
        e 32 80 4e 40
        e 16 90 4f 7f
        e 272 80 4f 40
        e 16 90 4d 7f
        e 80 80 4d 40
        e 16 90 4c 7f
        e 176 80 4c 40
        e 16 90 4f 7f
        e 128 80 4f 40
        e 16 90 54 7f
        e 32 80 54 40
        e 16 90 53 7f
        e 128 80 53 40
        e 16 90 52 7f
        e 32 80 52 40
        e 16 90 53 7f
        e 128 80 53 40
        e 16 90 54 7f
        e 32 80 54 40
        e 16 90 51 7f
        e 128 80 51 40
        e 16 90 50 7f
        e 32 80 50 40
        e 16 90 51 7f
        e 128 80 51 40
        e 16 90 53 7f
        e 32 80 53 40
        e 16 90 4f 7f
        e 368 80 4f 40
        e 208 90 4f 7f
        e 128 80 4f 40
        e 16 90 4f 7f
        e 32 80 4f 40
        e 16 90 4f 7f
        e 176 80 4f 40
        e 16 90 4f 7f
        e 128 80 4f 40
        e 16 90 4f 7f
        e 32 80 4f 40
        e 16 90 50 7f
        e 80 80 50 40
        e 16 90 4f 7f
        e 80 80 4f 40
        e 16 90 4d 7f
        e 80 80 4d 40
        e 16 90 4f 7f
        e 80 80 4f 40
        e 16 90 50 7f
        e 272 80 50 40
        e 16 90 4f 7f
        e 80 80 4f 40
        e 16 90 4d 7f
        e 176 80 4d 40
        e 16 90 50 7f
        e 128 80 50 40
        e 16 90 50 7f
        e 32 80 50 40
        e 16 90 50 7f
        e 176 80 50 40
        e 16 90 50 7f
        e 128 80 50 40
        e 16 90 50 7f
        e 32 80 50 40
        e 16 90 52 7f
        e 80 80 52 40
        e 16 90 50 7f
        e 80 80 50 40
        e 16 90 4f 7f
        e 80 80 4f 40
        e 16 90 50 7f
        e 80 80 50 40
        e 16 90 52 7f
        e 368 80 52 40
        e 208 90 4f 7f
        e 128 80 4f 40
        e 16 90 4f 7f
        e 32 80 4f 40
        e 16 90 54 7f
        e 176 80 54 40
        e 16 90 54 7f
        e 128 80 54 40
        e 16 90 54 7f
        e 32 80 54 40
        e 16 90 54 7f
        e 48 80 54 40
        e 16 90 52 7f
        e 48 80 52 40
        e 16 90 50 7f
        e 48 80 50 40
        e 16 90 50 7f
        e 48 80 50 40
        e 16 90 4f 7f
        e 48 80 4f 40
        e 16 90 4e 7f
        e 48 80 4e 40
        e 16 90 4f 7f
        e 368 80 4f 40
        e 208 90 4c 7f
        e 128 80 4c 40
        e 16 90 4c 7f
        e 32 80 4c 40
        e 16 90 4c 7f
        e 128 80 4c 40
        e 16 90 4a 7f
        e 32 80 4a 40
        e 16 90 4c 7f
        e 128 80 4c 40
        e 16 90 4a 7f
        e 32 80 4a 40
        e 16 90 4c 7f
        e 128 80 4c 40
        e 16 90 4a 7f
        e 32 80 4a 40
        e 16 90 4c 7f
        e 128 80 4c 40
        e 16 90 4d 7f
        e 32 80 4d 40
        e 16 90 4f 7f
        e 176 80 4f 40
        e 16 90 51 7f
        e 368 80 51 40
        e 16 90 4a 7f
        e 128 80 4a 40
        e 16 90 4a 7f
        e 32 80 4a 40
        e 16 90 4a 7f
        e 128 80 4a 40
        e 16 90 48 7f
        e 32 80 48 40
        e 16 90 4a 7f
        e 128 80 4a 40
        e 16 90 48 7f
        e 32 80 48 40
        e 16 90 4a 7f
        e 128 80 4a 40
        e 16 90 4c 7f
        e 32 80 4c 40
        e 16 90 4d 7f
        e 128 80 4d 40
        e 16 90 4e 7f
        e 32 80 4e 40
        e 16 90 51 7f
        e 176 80 51 40
        e 16 90 4f 7f
        e 80 80 4f 40
        e 112 90 51 7f
        e 80 80 51 40
        e 64 90 53 7f
        e 32 80 53 40
        e 16 90 54 7f
        e 48 80 54 40
        e 16 90 53 7f
        e 48 80 53 40
        e 16 90 51 7f
        e 48 80 51 40
        e 16 90 53 7f
        e 128 80 53 40
        e 16 90 51 7f
        e 32 80 51 40
        e 16 90 4f 7f
        e 128 80 4f 40
        e 16 90 4f 7f
        e 32 80 4f 40
        e 16 90 4d 7f
        e 128 80 4d 40
        e 16 90 4f 7f
        e 32 80 4f 40
        e 16 90 51 7f
        e 48 80 51 40
        e 16 90 4f 7f
        e 48 80 4f 40
        e 16 90 4d 7f
        e 48 80 4d 40
        e 16 90 4f 7f
        e 176 80 4f 40
        e 16 90 4c 7f
        e 176 80 4c 40
        e 16 90 51 7f
        e 128 80 51 40
        e 16 90 53 7f
        e 32 80 53 40
        e 16 90 54 7f
        e 48 80 54 40
        e 16 90 53 7f
        e 48 80 53 40
        e 16 90 51 7f
        e 48 80 51 40
        e 16 90 4f 7f
        e 128 80 4f 40
        e 16 90 54 7f
        e 32 80 54 40
        e 16 90 54 7f
        e 48 80 54 40
        e 16 90 53 7f
        e 48 80 53 40
        e 16 90 51 7f
        e 48 80 51 40
        e 16 90 51 7f
        e 48 80 51 40
        e 16 90 4f 7f
        e 48 80 4f 40
        e 14 90 4d 7f
        e 48 80 4d 40
        e 18 90 4d 7f
        e 48 80 4d 40
        e 16 90 4c 7f
        e 48 80 4c 40
        e 16 90 4a 7f
        e 48 80 4a 40
        e 16 90 48 7f
        e 176 80 48 40
        e 592 90 53 7f
        e 560 80 53 40
        e 16 90 54 7f
        e 176 80 54 40
        e 16 90 56 7f
        e 368 80 56 40
        e 16 90 56 7f
        e 176 80 56 40
        e 16 90 53 7f
        e 176 80 53 40
        e 16 90 54 7f
        e 368 80 54 40
        e 16 90 54 7f
        e 128 80 54 40
        e 16 90 53 7f
        e 32 80 53 40
        e 16 90 54 7f
        e 128 80 54 40
        e 16 90 56 7f
        e 32 80 56 40
        e 16 90 53 7f
        e 176 80 53 40
        e 16 90 53 7f
        e 176 80 53 40
        e 400 90 53 7f
        e 560 80 53 40
        e 16 90 54 7f
        e 176 80 54 40
        e 16 90 56 7f
        e 368 80 56 40
        e 16 90 56 7f
        e 176 80 56 40
        e 16 90 53 7f
        e 176 80 53 40
        e 16 90 54 7f
        e 368 80 54 40
        e 16 90 54 7f
        e 128 80 54 40
        e 16 90 53 7f
        e 32 80 53 40
        e 16 90 54 7f
        e 128 80 54 40
        e 16 90 56 7f
        e 32 80 56 40
        e 16 90 53 7f
        e 176 80 53 40
        e 400 90 4c 7f
        e 128 80 4c 40
        e 16 90 4d 7f
        e 32 80 4d 40
        e 16 90 4f 7f
        e 176 80 4f 40
        e 16 90 4f 7f
        e 128 80 4f 40
        e 16 90 51 7f
        e 32 80 51 40
        e 16 90 52 7f
        e 176 80 52 40
        e 16 90 52 7f
        e 128 80 52 40
        e 16 90 52 7f
        e 32 80 52 40
        e 16 90 52 7f
        e 176 80 52 40
        e 16 90 51 7f
        e 176 80 51 40
        e 208 90 4e 7f
        e 128 80 4e 40
        e 16 90 4f 7f
        e 32 80 4f 40
        e 16 90 51 7f
        e 176 80 51 40
        e 16 90 51 7f
        e 128 80 51 40
        e 16 90 53 7f
        e 32 80 53 40
        e 16 90 54 7f
        e 176 80 54 40
        e 16 90 54 7f
        e 128 80 54 40
        e 16 90 54 7f
        e 32 80 54 40
        e 16 90 53 7f
        e 368 80 53 40
        e 208 90 53 7f
        e 128 80 53 40
        e 16 90 53 7f
        e 32 80 53 40
        e 16 90 53 7f
        e 128 80 53 40
        e 16 90 51 7f
        e 32 80 51 40
        e 16 90 53 7f
        e 128 80 53 40
        e 16 90 51 7f
        e 32 80 51 40
        e 16 90 51 7f
        e 128 80 51 40
        e 16 90 4f 7f
        e 32 80 4f 40
        e 16 90 51 7f
        e 128 80 51 40
        e 16 90 4f 7f
        e 32 80 4f 40
        e 16 90 51 7f
        e 272 80 51 40
        e 16 90 4f 7f
        e 80 80 4f 40
        e 16 90 4c 7f
        e 176 80 4c 40
        e 16 90 54 7f
        e 128 80 54 40
        e 16 90 53 7f
        e 32 80 53 40
        e 16 90 53 7f
        e 128 80 53 40
        e 16 90 51 7f
        e 32 80 51 40
        e 16 90 53 7f
        e 128 80 53 40
        e 16 90 51 7f
        e 32 80 51 40
        e 16 90 51 7f
        e 128 80 51 40
        e 16 90 4f 7f
        e 32 80 4f 40
        e 16 90 51 7f
        e 128 80 51 40
        e 16 90 4f 7f
        e 32 80 4f 40
        e 16 90 4c 7f
        e 176 80 4c 40
        e 16 90 48 7f
        e 80 80 48 40
        e 16 90 4a 7f
        e 80 80 4a 40
        e 16 90 4c 7f
        e 80 80 4c 40
        e 16 90 4d 7f
        e 80 80 4d 40
        e 16 90 4f 7f
        e 80 80 4f 40
        e 16 90 51 7f
        e 80 80 51 40
        e 16 90 52 7f
        e 368 80 52 40
        e 16 90 56 7f
        e 176 80 56 40
        e 16 90 55 7f
        e 176 80 55 40
        e 16 90 56 7f
        e 176 80 56 40
        e 16 90 56 7f
        e 176 80 56 40
        e 208 90 54 7f
        e 128 80 54 40
        e 16 90 54 7f
        e 32 80 54 40
        e 16 90 58 7f
        e 176 80 58 40
        e 16 90 54 7f
        e 128 80 54 40
        e 16 90 54 7f
        e 32 80 54 40
        e 16 90 56 7f
        e 176 80 56 40
        e 16 90 53 7f
        e 128 80 53 40
        e 16 90 53 7f
        e 32 80 53 40
        e 16 90 54 7f
        e 176 80 54 40
        e 400 90 54 7f
        e 128 80 54 40
        e 16 90 54 7f
        e 30 80 54 40
        e 18 90 54 7f
        e 176 80 54 40
        e 16 90 54 7f
        e 128 80 54 40
        e 16 90 54 7f
        e 32 80 54 40
        e 16 90 56 7f
        e 176 80 56 40
        e 16 90 53 7f
        e 128 80 53 40
        e 16 90 53 7f
        e 30 80 53 40
        e 18 90 54 7f
        e 176 80 54 40
        e 400 90 54 7f
        e 128 80 54 40
        e 16 90 54 7f
        e 32 80 54 40
        e 16 90 58 7f
        e 174 80 58 40
        e 18 90 54 7f
        e 123 80 54 40
        e 21 90 54 7f
        e 32 80 54 40
        e 16 90 56 7f
        e 176 80 56 40
        e 16 90 53 7f
        e 128 80 53 40
        e 16 90 53 7f
        e 32 80 53 40
        e 16 90 54 7f
        e 176 80 54 40
        E 16 b0 7b 00
        GUID {1BD6AFCC-D1DF-6B40-8935-4DFA6CBB856E}
        IGNTEMPO 0 120 4 4
        SRCCOLOR 916
        VELLANE -1 86 6
        CFGEDITVIEW 0 0 50 24 0 0 0 0 0 0.5
        KEYSNAP 0
        TRACKSEL 226 0 0 ""
        EVTFILTER 0 -1 -1 -1 -1 0 1 0 0 -1 -1 -1 -1 0 -1 0 -1 -1
        CFGEDIT 1 0 0 0 0 0 1 0 1 1 1 0.25 16 63 1280 778 0 0 2 3 0 0 0 0 0 0.5 0 0 1 64
      >
    >
    <ITEM
      POSITION 0
      SNAPOFFS 0
      LENGTH 91
      LOOP 1
      ALLTAKES 0
      FADEIN 1 0 0 1 0 0
      FADEOUT 1 0 0 1 0 0
      MUTE 0
      SEL 0
      YPOS 0.845802 0.05
      IGUID {6E829D38-75EB-6D44-9016-206A03AA7D74}
      IID 11
      NAME "Melody               - National_Anthems_-_Chile.mid"
      VOLPAN 1 0 1 -1
      SOFFS 21.5 43
      PLAYRATE 1 1 0 -1 0 0.0025
      CHANMODE 0
      TAKECOLOR 26173599 B
      GUID {162A0A9D-87AB-0A43-AA15-3687AFECD9A1}
      <SOURCE MIDI
        HASDATA 1 192 QN
        POOLEDEVTS {8AEDA6D1-F525-7C4E-AD7F-2F08278F470B}
        <X 0 0
          /wNNZWxvZHkgICAgICAgICAgICAgIA==
        >
        <X 0 0
          /wFUSEUgU09GVFdBUkUgVE9PTFdPUktT
        >
        <X 0 0
          /wFXT1JMRCBBVExBUw==
        >
        <X 0 0
          /wFNdWx0aU1lZGlhIFdpbmRvd3MgVmVyc2lvbg==
        >
        <X 0 0
          /wFDb3VudHJ5OiBDSElMRQ==
        >
        <X 0 0
          /wEocCkgKGMpIFRoZSBTb2Z0d2FyZSBUb29sd29ya3MgMTk5MQ==
        >
        <X 0 0
          /wFyZXZpc2VkIDExLTI2LTkx
        >
        <X 0 0
          /wFlZGl0IGRhdGU6OS0xLTkx
        >
        <X 0 0
          /wFUaGlzIGZpbGUgcHJvdmlkZWQgYnk6
        >
        <X 0 0
          /wFSb2IgV2FsbGFjZSBNdXNpYw==
        >
        <X 0 0
          /wF7NjAyfSA5NzktNjIwMQ==
        >
        <X 0 0
          /wFNVUxUSU1FRElBIFdJTkRPV1MgVkVSU0lPTg==
        >
        e 8256 90 43 7f
        e 128 80 43 40
        e 16 90 48 7f
        e 32 80 48 40
        e 16 90 48 7f
        e 128 80 48 40
        e 16 90 47 7f
        e 32 80 47 40
        e 16 90 47 7f
        e 128 80 47 40
        e 16 90 45 7f
        e 32 80 45 40
        e 16 90 45 7f
        e 128 80 45 40
        e 16 90 43 7f
        e 32 80 43 40
        e 16 90 43 7f
        e 128 80 43 40
        e 16 90 42 7f
        e 32 80 42 40
        e 16 90 43 7f
        e 272 80 43 40
        e 16 90 41 7f
        e 80 80 41 40
        e 16 90 40 7f
        e 176 80 40 40
        e 16 90 3e 7f
        e 128 80 3e 40
        e 16 90 40 7f
        e 32 80 40 40
        e 16 90 41 7f
        e 128 80 41 40
        e 16 90 43 7f
        e 32 80 43 40
        e 16 90 45 7f
        e 48 80 45 40
        e 16 90 43 7f
        e 48 80 43 40
        e 16 90 41 7f
        e 48 80 41 40
        e 16 90 40 7f
        e 128 80 40 40
        e 16 90 41 7f
        e 32 80 41 40
        e 16 90 43 7f
        e 48 80 43 40
        e 16 90 41 7f
        e 48 80 41 40
        e 16 90 40 7f
        e 48 80 40 40
        e 16 90 3e 7f
        e 176 80 3e 40
        e 400 90 43 7f
        e 128 80 43 40
        e 16 90 48 7f
        e 32 80 48 40
        e 16 90 48 7f
        e 128 80 48 40
        e 16 90 47 7f
        e 32 80 47 40
        e 16 90 47 7f
        e 128 80 47 40
        e 16 90 45 7f
        e 32 80 45 40
        e 16 90 45 7f
        e 128 80 45 40
        e 16 90 43 7f
        e 32 80 43 40
        e 16 90 43 7f
        e 128 80 43 40
        e 16 90 42 7f
        e 32 80 42 40
        e 16 90 43 7f
        e 272 80 43 40
        e 16 90 41 7f
        e 80 80 41 40
        e 16 90 40 7f
        e 176 80 40 40
        e 16 90 43 7f
        e 128 80 43 40
        e 16 90 48 7f
        e 32 80 48 40
        e 16 90 47 7f
        e 128 80 47 40
        e 16 90 46 7f
        e 32 80 46 40
        e 16 90 47 7f
        e 128 80 47 40
        e 16 90 48 7f
        e 32 80 48 40
        e 16 90 45 7f
        e 128 80 45 40
        e 16 90 44 7f
        e 32 80 44 40
        e 16 90 45 7f
        e 128 80 45 40
        e 16 90 47 7f
        e 32 80 47 40
        e 16 90 43 7f
        e 368 80 43 40
        e 208 90 43 7f
        e 128 80 43 40
        e 16 90 43 7f
        e 32 80 43 40
        e 16 90 43 7f
        e 176 80 43 40
        e 16 90 43 7f
        e 128 80 43 40
        e 16 90 43 7f
        e 32 80 43 40
        e 16 90 44 7f
        e 80 80 44 40
        e 16 90 43 7f
        e 80 80 43 40
        e 16 90 41 7f
        e 80 80 41 40
        e 16 90 43 7f
        e 80 80 43 40
        e 16 90 44 7f
        e 272 80 44 40
        e 16 90 43 7f
        e 80 80 43 40
        e 16 90 41 7f
        e 176 80 41 40
        e 16 90 44 7f
        e 128 80 44 40
        e 16 90 44 7f
        e 32 80 44 40
        e 16 90 44 7f
        e 176 80 44 40
        e 16 90 44 7f
        e 128 80 44 40
        e 16 90 44 7f
        e 32 80 44 40
        e 16 90 46 7f
        e 80 80 46 40
        e 16 90 44 7f
        e 80 80 44 40
        e 16 90 43 7f
        e 80 80 43 40
        e 16 90 44 7f
        e 80 80 44 40
        e 16 90 46 7f
        e 368 80 46 40
        e 208 90 43 7f
        e 128 80 43 40
        e 16 90 43 7f
        e 32 80 43 40
        e 16 90 48 7f
        e 176 80 48 40
        e 16 90 48 7f
        e 128 80 48 40
        e 16 90 48 7f
        e 32 80 48 40
        e 16 90 48 7f
        e 48 80 48 40
        e 16 90 46 7f
        e 48 80 46 40
        e 16 90 44 7f
        e 48 80 44 40
        e 16 90 44 7f
        e 48 80 44 40
        e 16 90 43 7f
        e 48 80 43 40
        e 16 90 42 7f
        e 48 80 42 40
        e 16 90 43 7f
        e 368 80 43 40
        e 208 90 40 7f
        e 128 80 40 40
        e 16 90 40 7f
        e 32 80 40 40
        e 16 90 40 7f
        e 128 80 40 40
        e 16 90 3e 7f
        e 32 80 3e 40
        e 16 90 40 7f
        e 128 80 40 40
        e 16 90 3e 7f
        e 32 80 3e 40
        e 16 90 40 7f
        e 128 80 40 40
        e 16 90 3e 7f
        e 32 80 3e 40
        e 16 90 40 7f
        e 128 80 40 40
        e 16 90 41 7f
        e 32 80 41 40
        e 16 90 43 7f
        e 176 80 43 40
        e 16 90 45 7f
        e 368 80 45 40
        e 16 90 3e 7f
        e 128 80 3e 40
        e 16 90 3e 7f
        e 32 80 3e 40
        e 16 90 3e 7f
        e 128 80 3e 40
        e 16 90 3c 7f
        e 32 80 3c 40
        e 16 90 3e 7f
        e 128 80 3e 40
        e 16 90 3c 7f
        e 32 80 3c 40
        e 16 90 3e 7f
        e 128 80 3e 40
        e 16 90 40 7f
        e 32 80 40 40
        e 16 90 41 7f
        e 128 80 41 40
        e 16 90 42 7f
        e 32 80 42 40
        e 16 90 45 7f
        e 176 80 45 40
        e 16 90 43 7f
        e 80 80 43 40
        e 112 90 45 7f
        e 80 80 45 40
        e 64 90 47 7f
        e 32 80 47 40
        e 16 90 48 7f
        e 48 80 48 40
        e 16 90 47 7f
        e 48 80 47 40
        e 16 90 45 7f
        e 48 80 45 40
        e 16 90 47 7f
        e 128 80 47 40
        e 16 90 45 7f
        e 32 80 45 40
        e 16 90 43 7f
        e 128 80 43 40
        e 16 90 43 7f
        e 32 80 43 40
        e 16 90 41 7f
        e 128 80 41 40
        e 16 90 43 7f
        e 32 80 43 40
        e 16 90 45 7f
        e 48 80 45 40
        e 16 90 43 7f
        e 48 80 43 40
        e 16 90 41 7f
        e 48 80 41 40
        e 16 90 43 7f
        e 176 80 43 40
        e 16 90 40 7f
        e 176 80 40 40
        e 16 90 45 7f
        e 128 80 45 40
        e 16 90 47 7f
        e 32 80 47 40
        e 16 90 48 7f
        e 48 80 48 40
        e 16 90 47 7f
        e 48 80 47 40
        e 16 90 45 7f
        e 48 80 45 40
        e 16 90 43 7f
        e 128 80 43 40
        e 16 90 48 7f
        e 32 80 48 40
        e 16 90 48 7f
        e 48 80 48 40
        e 16 90 47 7f
        e 48 80 47 40
        e 16 90 45 7f
        e 48 80 45 40
        e 16 90 45 7f
        e 48 80 45 40
        e 16 90 43 7f
        e 48 80 43 40
        e 14 90 41 7f
        e 48 80 41 40
        e 18 90 41 7f
        e 48 80 41 40
        e 16 90 40 7f
        e 48 80 40 40
        e 16 90 3e 7f
        e 48 80 3e 40
        e 16 90 3c 7f
        e 176 80 3c 40
        e 592 90 47 7f
        e 560 80 47 40
        e 16 90 48 7f
        e 176 80 48 40
        e 16 90 4a 7f
        e 368 80 4a 40
        e 16 90 4a 7f
        e 176 80 4a 40
        e 16 90 47 7f
        e 176 80 47 40
        e 16 90 48 7f
        e 368 80 48 40
        e 16 90 48 7f
        e 128 80 48 40
        e 16 90 47 7f
        e 32 80 47 40
        e 16 90 48 7f
        e 128 80 48 40
        e 16 90 4a 7f
        e 32 80 4a 40
        e 16 90 47 7f
        e 176 80 47 40
        e 16 90 47 7f
        e 176 80 47 40
        e 400 90 47 7f
        e 560 80 47 40
        e 16 90 48 7f
        e 176 80 48 40
        e 16 90 4a 7f
        e 368 80 4a 40
        e 16 90 4a 7f
        e 176 80 4a 40
        e 16 90 47 7f
        e 176 80 47 40
        e 16 90 48 7f
        e 368 80 48 40
        e 16 90 48 7f
        e 128 80 48 40
        e 16 90 47 7f
        e 32 80 47 40
        e 16 90 48 7f
        e 128 80 48 40
        e 16 90 4a 7f
        e 32 80 4a 40
        e 16 90 47 7f
        e 176 80 47 40
        e 400 90 40 7f
        e 128 80 40 40
        e 16 90 41 7f
        e 32 80 41 40
        e 16 90 43 7f
        e 176 80 43 40
        e 16 90 43 7f
        e 128 80 43 40
        e 16 90 45 7f
        e 32 80 45 40
        e 16 90 46 7f
        e 176 80 46 40
        e 16 90 46 7f
        e 128 80 46 40
        e 16 90 46 7f
        e 32 80 46 40
        e 16 90 46 7f
        e 176 80 46 40
        e 16 90 45 7f
        e 176 80 45 40
        e 208 90 42 7f
        e 128 80 42 40
        e 16 90 43 7f
        e 32 80 43 40
        e 16 90 45 7f
        e 176 80 45 40
        e 16 90 45 7f
        e 128 80 45 40
        e 16 90 47 7f
        e 32 80 47 40
        e 16 90 48 7f
        e 176 80 48 40
        e 16 90 48 7f
        e 128 80 48 40
        e 16 90 48 7f
        e 32 80 48 40
        e 16 90 47 7f
        e 368 80 47 40
        e 208 90 47 7f
        e 128 80 47 40
        e 16 90 47 7f
        e 32 80 47 40
        e 16 90 47 7f
        e 128 80 47 40
        e 16 90 45 7f
        e 32 80 45 40
        e 16 90 47 7f
        e 128 80 47 40
        e 16 90 45 7f
        e 32 80 45 40
        e 16 90 45 7f
        e 128 80 45 40
        e 16 90 43 7f
        e 32 80 43 40
        e 16 90 45 7f
        e 128 80 45 40
        e 16 90 43 7f
        e 32 80 43 40
        e 16 90 45 7f
        e 272 80 45 40
        e 16 90 43 7f
        e 80 80 43 40
        e 16 90 40 7f
        e 176 80 40 40
        e 16 90 48 7f
        e 128 80 48 40
        e 16 90 47 7f
        e 32 80 47 40
        e 16 90 47 7f
        e 128 80 47 40
        e 16 90 45 7f
        e 32 80 45 40
        e 16 90 47 7f
        e 128 80 47 40
        e 16 90 45 7f
        e 32 80 45 40
        e 16 90 45 7f
        e 128 80 45 40
        e 16 90 43 7f
        e 32 80 43 40
        e 16 90 45 7f
        e 128 80 45 40
        e 16 90 43 7f
        e 32 80 43 40
        e 16 90 40 7f
        e 176 80 40 40
        e 16 90 3c 7f
        e 80 80 3c 40
        e 16 90 3e 7f
        e 80 80 3e 40
        e 16 90 40 7f
        e 80 80 40 40
        e 16 90 41 7f
        e 80 80 41 40
        e 16 90 43 7f
        e 80 80 43 40
        e 16 90 45 7f
        e 80 80 45 40
        e 16 90 46 7f
        e 368 80 46 40
        e 16 90 4a 7f
        e 176 80 4a 40
        e 16 90 49 7f
        e 176 80 49 40
        e 16 90 4a 7f
        e 176 80 4a 40
        e 16 90 4a 7f
        e 176 80 4a 40
        e 208 90 48 7f
        e 128 80 48 40
        e 16 90 48 7f
        e 32 80 48 40
        e 16 90 4c 7f
        e 176 80 4c 40
        e 16 90 48 7f
        e 128 80 48 40
        e 16 90 48 7f
        e 32 80 48 40
        e 16 90 4a 7f
        e 176 80 4a 40
        e 16 90 47 7f
        e 128 80 47 40
        e 16 90 47 7f
        e 32 80 47 40
        e 16 90 48 7f
        e 176 80 48 40
        e 400 90 48 7f
        e 128 80 48 40
        e 16 90 48 7f
        e 30 80 48 40
        e 18 90 48 7f
        e 176 80 48 40
        e 16 90 48 7f
        e 128 80 48 40
        e 16 90 48 7f
        e 32 80 48 40
        e 16 90 4a 7f
        e 176 80 4a 40
        e 16 90 47 7f
        e 128 80 47 40
        e 16 90 47 7f
        e 30 80 47 40
        e 18 90 48 7f
        e 176 80 48 40
        e 400 90 48 7f
        e 128 80 48 40
        e 16 90 48 7f
        e 32 80 48 40
        e 16 90 4c 7f
        e 174 80 4c 40
        e 18 90 48 7f
        e 123 80 48 40
        e 21 90 48 7f
        e 32 80 48 40
        e 16 90 4a 7f
        e 176 80 4a 40
        e 16 90 47 7f
        e 128 80 47 40
        e 16 90 47 7f
        e 32 80 47 40
        e 16 90 48 7f
        e 176 80 48 40
        E 16 b0 7b 00
        GUID {5D8FE9D2-6A75-314F-93C8-19259C2F1655}
        IGNTEMPO 0 120 4 4
        SRCCOLOR 720
        VELLANE -1 86 6
        CFGEDITVIEW 6508.8 8.671329 50 24 0 0 0 0 0 0.5
        KEYSNAP 0
        TRACKSEL 226 0 0 ""
        EVTFILTER 0 -1 -1 -1 -1 0 1 0 0 -1 -1 -1 -1 0 -1 0 -1 -1
        CFGEDIT 1 0 0 0 0 0 1 0 1 1 1 0.25 16 63 1280 778 0 0 2 3 0 0 0 0 0 0.5 0 0 1 64
      >
      TAKE
      NAME "Melody               - National_Anthems_-_Chile.mid"
      TAKEVOLPAN 0 1 -1
      SOFFS 21.5 43
      PLAYRATE 1 1 0 -1 0 0.0025
      CHANMODE 0
      GUID {A27D0999-1C26-424C-81CF-476977B0BB72}
      <SOURCE MIDI
        HASDATA 1 192 QN
        POOLEDEVTS {EC3F8A66-19A4-354E-80C0-493A4C476D61}
        <X 0 0
          /wNNZWxvZHkgICAgICAgICAgICAgIA==
        >
        <X 0 0
          /wFUSEUgU09GVFdBUkUgVE9PTFdPUktT
        >
        <X 0 0
          /wFXT1JMRCBBVExBUw==
        >
        <X 0 0
          /wFNdWx0aU1lZGlhIFdpbmRvd3MgVmVyc2lvbg==
        >
        <X 0 0
          /wFDb3VudHJ5OiBDSElMRQ==
        >
        <X 0 0
          /wEocCkgKGMpIFRoZSBTb2Z0d2FyZSBUb29sd29ya3MgMTk5MQ==
        >
        <X 0 0
          /wFyZXZpc2VkIDExLTI2LTkx
        >
        <X 0 0
          /wFlZGl0IGRhdGU6OS0xLTkx
        >
        <X 0 0
          /wFUaGlzIGZpbGUgcHJvdmlkZWQgYnk6
        >
        <X 0 0
          /wFSb2IgV2FsbGFjZSBNdXNpYw==
        >
        <X 0 0
          /wF7NjAyfSA5NzktNjIwMQ==
        >
        <X 0 0
          /wFNVUxUSU1FRElBIFdJTkRPV1MgVkVSU0lPTg==
        >
        e 8256 90 43 7f
        e 128 80 43 40
        e 16 90 48 7f
        e 32 80 48 40
        e 16 90 48 7f
        e 128 80 48 40
        e 16 90 47 7f
        e 32 80 47 40
        e 16 90 47 7f
        e 128 80 47 40
        e 16 90 45 7f
        e 32 80 45 40
        e 16 90 45 7f
        e 128 80 45 40
        e 16 90 43 7f
        e 32 80 43 40
        e 16 90 43 7f
        e 128 80 43 40
        e 16 90 42 7f
        e 32 80 42 40
        e 16 90 43 7f
        e 272 80 43 40
        e 16 90 41 7f
        e 80 80 41 40
        e 16 90 40 7f
        e 176 80 40 40
        e 16 90 3e 7f
        e 128 80 3e 40
        e 16 90 40 7f
        e 32 80 40 40
        e 16 90 41 7f
        e 128 80 41 40
        e 16 90 43 7f
        e 32 80 43 40
        e 16 90 45 7f
        e 48 80 45 40
        e 16 90 43 7f
        e 48 80 43 40
        e 16 90 41 7f
        e 48 80 41 40
        e 16 90 40 7f
        e 128 80 40 40
        e 16 90 41 7f
        e 32 80 41 40
        e 16 90 43 7f
        e 48 80 43 40
        e 16 90 41 7f
        e 48 80 41 40
        e 16 90 40 7f
        e 48 80 40 40
        e 16 90 3e 7f
        e 176 80 3e 40
        e 400 90 43 7f
        e 128 80 43 40
        e 16 90 48 7f
        e 32 80 48 40
        e 16 90 48 7f
        e 128 80 48 40
        e 16 90 47 7f
        e 32 80 47 40
        e 16 90 47 7f
        e 128 80 47 40
        e 16 90 45 7f
        e 32 80 45 40
        e 16 90 45 7f
        e 128 80 45 40
        e 16 90 43 7f
        e 32 80 43 40
        e 16 90 43 7f
        e 128 80 43 40
        e 16 90 42 7f
        e 32 80 42 40
        e 16 90 43 7f
        e 272 80 43 40
        e 16 90 41 7f
        e 80 80 41 40
        e 16 90 40 7f
        e 176 80 40 40
        e 16 90 43 7f
        e 128 80 43 40
        e 16 90 48 7f
        e 32 80 48 40
        e 16 90 47 7f
        e 128 80 47 40
        e 16 90 46 7f
        e 32 80 46 40
        e 16 90 47 7f
        e 128 80 47 40
        e 16 90 48 7f
        e 32 80 48 40
        e 16 90 45 7f
        e 128 80 45 40
        e 16 90 44 7f
        e 32 80 44 40
        e 16 90 45 7f
        e 128 80 45 40
        e 16 90 47 7f
        e 32 80 47 40
        e 16 90 43 7f
        e 368 80 43 40
        e 208 90 43 7f
        e 128 80 43 40
        e 16 90 43 7f
        e 32 80 43 40
        e 16 90 43 7f
        e 176 80 43 40
        e 16 90 43 7f
        e 128 80 43 40
        e 16 90 43 7f
        e 32 80 43 40
        e 16 90 44 7f
        e 80 80 44 40
        e 16 90 43 7f
        e 80 80 43 40
        e 16 90 41 7f
        e 80 80 41 40
        e 16 90 43 7f
        e 80 80 43 40
        e 16 90 44 7f
        e 272 80 44 40
        e 16 90 43 7f
        e 80 80 43 40
        e 16 90 41 7f
        e 176 80 41 40
        e 16 90 44 7f
        e 128 80 44 40
        e 16 90 44 7f
        e 32 80 44 40
        e 16 90 44 7f
        e 176 80 44 40
        e 16 90 44 7f
        e 128 80 44 40
        e 16 90 44 7f
        e 32 80 44 40
        e 16 90 46 7f
        e 80 80 46 40
        e 16 90 44 7f
        e 80 80 44 40
        e 16 90 43 7f
        e 80 80 43 40
        e 16 90 44 7f
        e 80 80 44 40
        e 16 90 46 7f
        e 368 80 46 40
        e 208 90 43 7f
        e 128 80 43 40
        e 16 90 43 7f
        e 32 80 43 40
        e 16 90 48 7f
        e 176 80 48 40
        e 16 90 48 7f
        e 128 80 48 40
        e 16 90 48 7f
        e 32 80 48 40
        e 16 90 48 7f
        e 48 80 48 40
        e 16 90 46 7f
        e 48 80 46 40
        e 16 90 44 7f
        e 48 80 44 40
        e 16 90 44 7f
        e 48 80 44 40
        e 16 90 43 7f
        e 48 80 43 40
        e 16 90 42 7f
        e 48 80 42 40
        e 16 90 43 7f
        e 368 80 43 40
        e 208 90 40 7f
        e 128 80 40 40
        e 16 90 40 7f
        e 32 80 40 40
        e 16 90 40 7f
        e 128 80 40 40
        e 16 90 3e 7f
        e 32 80 3e 40
        e 16 90 40 7f
        e 128 80 40 40
        e 16 90 3e 7f
        e 32 80 3e 40
        e 16 90 40 7f
        e 128 80 40 40
        e 16 90 3e 7f
        e 32 80 3e 40
        e 16 90 40 7f
        e 128 80 40 40
        e 16 90 41 7f
        e 32 80 41 40
        e 16 90 43 7f
        e 176 80 43 40
        e 16 90 45 7f
        e 368 80 45 40
        e 16 90 3e 7f
        e 128 80 3e 40
        e 16 90 3e 7f
        e 32 80 3e 40
        e 16 90 3e 7f
        e 128 80 3e 40
        e 16 90 3c 7f
        e 32 80 3c 40
        e 16 90 3e 7f
        e 128 80 3e 40
        e 16 90 3c 7f
        e 32 80 3c 40
        e 16 90 3e 7f
        e 128 80 3e 40
        e 16 90 40 7f
        e 32 80 40 40
        e 16 90 41 7f
        e 128 80 41 40
        e 16 90 42 7f
        e 32 80 42 40
        e 16 90 45 7f
        e 176 80 45 40
        e 16 90 43 7f
        e 80 80 43 40
        e 112 90 45 7f
        e 80 80 45 40
        e 64 90 47 7f
        e 32 80 47 40
        e 16 90 48 7f
        e 48 80 48 40
        e 16 90 47 7f
        e 48 80 47 40
        e 16 90 45 7f
        e 48 80 45 40
        e 16 90 47 7f
        e 128 80 47 40
        e 16 90 45 7f
        e 32 80 45 40
        e 16 90 43 7f
        e 128 80 43 40
        e 16 90 43 7f
        e 32 80 43 40
        e 16 90 41 7f
        e 128 80 41 40
        e 16 90 43 7f
        e 32 80 43 40
        e 16 90 45 7f
        e 48 80 45 40
        e 16 90 43 7f
        e 48 80 43 40
        e 16 90 41 7f
        e 48 80 41 40
        e 16 90 43 7f
        e 176 80 43 40
        e 16 90 40 7f
        e 176 80 40 40
        e 16 90 45 7f
        e 128 80 45 40
        e 16 90 47 7f
        e 32 80 47 40
        e 16 90 48 7f
        e 48 80 48 40
        e 16 90 47 7f
        e 48 80 47 40
        e 16 90 45 7f
        e 48 80 45 40
        e 16 90 43 7f
        e 128 80 43 40
        e 16 90 48 7f
        e 32 80 48 40
        e 16 90 48 7f
        e 48 80 48 40
        e 16 90 47 7f
        e 48 80 47 40
        e 16 90 45 7f
        e 48 80 45 40
        e 16 90 45 7f
        e 48 80 45 40
        e 16 90 43 7f
        e 48 80 43 40
        e 14 90 41 7f
        e 48 80 41 40
        e 18 90 41 7f
        e 48 80 41 40
        e 16 90 40 7f
        e 48 80 40 40
        e 16 90 3e 7f
        e 48 80 3e 40
        e 16 90 3c 7f
        e 176 80 3c 40
        e 592 90 47 7f
        e 560 80 47 40
        e 16 90 48 7f
        e 176 80 48 40
        e 16 90 4a 7f
        e 368 80 4a 40
        e 16 90 4a 7f
        e 176 80 4a 40
        e 16 90 47 7f
        e 176 80 47 40
        e 16 90 48 7f
        e 368 80 48 40
        e 16 90 48 7f
        e 128 80 48 40
        e 16 90 47 7f
        e 32 80 47 40
        e 16 90 48 7f
        e 128 80 48 40
        e 16 90 4a 7f
        e 32 80 4a 40
        e 16 90 47 7f
        e 176 80 47 40
        e 16 90 47 7f
        e 176 80 47 40
        e 400 90 47 7f
        e 560 80 47 40
        e 16 90 48 7f
        e 176 80 48 40
        e 16 90 4a 7f
        e 368 80 4a 40
        e 16 90 4a 7f
        e 176 80 4a 40
        e 16 90 47 7f
        e 176 80 47 40
        e 16 90 48 7f
        e 368 80 48 40
        e 16 90 48 7f
        e 128 80 48 40
        e 16 90 47 7f
        e 32 80 47 40
        e 16 90 48 7f
        e 128 80 48 40
        e 16 90 4a 7f
        e 32 80 4a 40
        e 16 90 47 7f
        e 176 80 47 40
        e 400 90 40 7f
        e 128 80 40 40
        e 16 90 41 7f
        e 32 80 41 40
        e 16 90 43 7f
        e 176 80 43 40
        e 16 90 43 7f
        e 128 80 43 40
        e 16 90 45 7f
        e 32 80 45 40
        e 16 90 46 7f
        e 176 80 46 40
        e 16 90 46 7f
        e 128 80 46 40
        e 16 90 46 7f
        e 32 80 46 40
        e 16 90 46 7f
        e 176 80 46 40
        e 16 90 45 7f
        e 176 80 45 40
        e 208 90 42 7f
        e 128 80 42 40
        e 16 90 43 7f
        e 32 80 43 40
        e 16 90 45 7f
        e 176 80 45 40
        e 16 90 45 7f
        e 128 80 45 40
        e 16 90 47 7f
        e 32 80 47 40
        e 16 90 48 7f
        e 176 80 48 40
        e 16 90 48 7f
        e 128 80 48 40
        e 16 90 48 7f
        e 32 80 48 40
        e 16 90 47 7f
        e 368 80 47 40
        e 208 90 47 7f
        e 128 80 47 40
        e 16 90 47 7f
        e 32 80 47 40
        e 16 90 47 7f
        e 128 80 47 40
        e 16 90 45 7f
        e 32 80 45 40
        e 16 90 47 7f
        e 128 80 47 40
        e 16 90 45 7f
        e 32 80 45 40
        e 16 90 45 7f
        e 128 80 45 40
        e 16 90 43 7f
        e 32 80 43 40
        e 16 90 45 7f
        e 128 80 45 40
        e 16 90 43 7f
        e 32 80 43 40
        e 16 90 45 7f
        e 272 80 45 40
        e 16 90 43 7f
        e 80 80 43 40
        e 16 90 40 7f
        e 176 80 40 40
        e 16 90 48 7f
        e 128 80 48 40
        e 16 90 47 7f
        e 32 80 47 40
        e 16 90 47 7f
        e 128 80 47 40
        e 16 90 45 7f
        e 32 80 45 40
        e 16 90 47 7f
        e 128 80 47 40
        e 16 90 45 7f
        e 32 80 45 40
        e 16 90 45 7f
        e 128 80 45 40
        e 16 90 43 7f
        e 32 80 43 40
        e 16 90 45 7f
        e 128 80 45 40
        e 16 90 43 7f
        e 32 80 43 40
        e 16 90 40 7f
        e 176 80 40 40
        e 16 90 3c 7f
        e 80 80 3c 40
        e 16 90 3e 7f
        e 80 80 3e 40
        e 16 90 40 7f
        e 80 80 40 40
        e 16 90 41 7f
        e 80 80 41 40
        e 16 90 43 7f
        e 80 80 43 40
        e 16 90 45 7f
        e 80 80 45 40
        e 16 90 46 7f
        e 368 80 46 40
        e 16 90 4a 7f
        e 176 80 4a 40
        e 16 90 49 7f
        e 176 80 49 40
        e 16 90 4a 7f
        e 176 80 4a 40
        e 16 90 4a 7f
        e 176 80 4a 40
        e 208 90 48 7f
        e 128 80 48 40
        e 16 90 48 7f
        e 32 80 48 40
        e 16 90 4c 7f
        e 176 80 4c 40
        e 16 90 48 7f
        e 128 80 48 40
        e 16 90 48 7f
        e 32 80 48 40
        e 16 90 4a 7f
        e 176 80 4a 40
        e 16 90 47 7f
        e 128 80 47 40
        e 16 90 47 7f
        e 32 80 47 40
        e 16 90 48 7f
        e 176 80 48 40
        e 400 90 48 7f
        e 128 80 48 40
        e 16 90 48 7f
        e 30 80 48 40
        e 18 90 48 7f
        e 176 80 48 40
        e 16 90 48 7f
        e 128 80 48 40
        e 16 90 48 7f
        e 32 80 48 40
        e 16 90 4a 7f
        e 176 80 4a 40
        e 16 90 47 7f
        e 128 80 47 40
        e 16 90 47 7f
        e 30 80 47 40
        e 18 90 48 7f
        e 176 80 48 40
        e 400 90 48 7f
        e 128 80 48 40
        e 16 90 48 7f
        e 32 80 48 40
        e 16 90 4c 7f
        e 174 80 4c 40
        e 18 90 48 7f
        e 123 80 48 40
        e 21 90 48 7f
        e 32 80 48 40
        e 16 90 4a 7f
        e 176 80 4a 40
        e 16 90 47 7f
        e 128 80 47 40
        e 16 90 47 7f
        e 32 80 47 40
        e 16 90 48 7f
        e 176 80 48 40
        E 16 b0 7b 00
        GUID {74742BD7-CCAA-F244-9D03-3F78F8C9FCB1}
        IGNTEMPO 0 120 4 4
        SRCCOLOR 911
        VELLANE -1 86 6
        CFGEDITVIEW 0 0 50 24 0 0 0 0 0 0.5
        KEYSNAP 0
        TRACKSEL 226 0 0 ""
        EVTFILTER 0 -1 -1 -1 -1 0 1 0 0 -1 -1 -1 -1 0 -1 0 -1 -1
        CFGEDIT 1 0 0 0 0 0 1 0 1 1 1 0.25 16 63 1280 778 0 0 2 3 0 0 0 0 0 0.5 0 0 1 64
      >
    >
  >
  <TRACK {13F54D43-AAA6-1840-A486-711358B18455}
    NAME ""
    PEAKCOL 16576
    BEAT -1
    AUTOMODE 0
    VOLPAN 1 0 -1 -1 1
    MUTESOLO 0 0 0
    IPHASE 0
    ISBUS 0 0
    BUSCOMP 0 0
    SHOWINMIX 1 0.6667 0.5 1 0.5 0 0 0
    FREEMODE 0
    SEL 0
    REC 0 0 0 0 0 0 0
    VU 2
    TRACKHEIGHT 184 0
    INQ 0 0 0 0.5 100 0 0 100
    NCHAN 2
    FX 1
    TRACKID {13F54D43-AAA6-1840-A486-711358B18455}
    PERF 0
    MIDIOUT -1
    MAINSEND 1 0
  >
  <TRACK {4A6CD977-ADCC-3A4D-927C-BB2CEF4B0809}
    NAME "vst Gladiator"
    PEAKCOL 27222112
    BEAT -1
    AUTOMODE 0
    VOLPAN 0.46976747615165 0 -1 -1 1
    MUTESOLO 0 0 0
    IPHASE 0
    ISBUS 0 0
    BUSCOMP 2 0
    SHOWINMIX 1 0.6667 0.5 1 0.5 0 0 0
    FREEMODE 0
    SEL 0
    REC 0 0 0 0 0 0 0
    VU 2
    TRACKHEIGHT 0 0
    INQ 0 0 0 0.5 100 0 0 100
    NCHAN 2
    FX 1
    TRACKID {4A6CD977-ADCC-3A4D-927C-BB2CEF4B0809}
    PERF 0
    MIDIOUT -1
    MAINSEND 1 0
    <FXCHAIN
      SHOW 0
      LASTSEL 0
      DOCKED 0
      BYPASS 0 0 0
      <VST "VSTi: Gladiator (Tone2.com)" Gladiator.vst 0 "" 1412581196
        TEcyVO5e7f4AAAAAAgAAAAEAAAAAAAAAAgAAAAAAAABaBAAAAQAAAAAAEAA=
        Q2NuSwAAAGBGeENrAAAAAVQyR0wAAAABAAABB0luaXQAAAAAAAAAAAAAAAAAAAAAAAAAAAAAAAA9zMzNPMzMzTw0OVg9uFH0PXnbIz+AAAA7xJumPb52yT+AAAA7xJum
        AAAAAD6mZmY+PXCkP4AAAD7FHrk/AAAAPwAAAAAAAAA9ffO2PdDlYDy8an8/RR64AAAAAD+AAAA8NDlYPZFocz71wo87RJumPbhR6D69cKQ+PXCkP4AAAD8AAAA/A9cL
        PwAAAAAAAAAAAAAAPwAAAD8AAAA/AAAAPtmZmj8AAAAAAAAAO+VgQj24UesAAAAAPk21xDtEm6Y/S4UeAAAAAAAAAAA+64UgPpR64T1hR7A+z1woPx64Uj49cKY/AAAA
        PwAAAAAAAAAAAAAAPwAAAAAAAAAAAAAAP4AAAD+AAAAAAAAAPxHrhT8AAAA/AAAAPwAAAD8AAAAAAAAAPwAAAD8AAAA/AAAAAAAAAD8AAAA/AAAAPwAAAAAAAAA6gxJv
        P1Cj1wAAAAA/gAAAAAAAADqDEm8/AAAAAAAAAAAAAAAAAAAAPwAAAAAAAAA/gAAAAAAAAD+AAAAAAAAAPwAAAD8AAAA/AAAAPwAAAD8AAAA/AAAAPwAAAD8AAAA/AAAA
        PwAAAD8AAAA/EeuGPKPXCjqDEm88RJumAAAAAAAAAAAAAAAAPLxqfwAAAAAAAAAAAAAAAAAAAAAAAAAAAAAAAAAAAAAAAAAAAAAAAAAAAAAAAAAAAAAAAAAAAAAAAAAA
        AAAAAAAAAAA8E3S8AAAAADw0OVgAAAAAPBN0vAAAAAA8NDlYAAAAADwTdLwAAAAAPDQ5WAAAAAA8E3S8AAAAADw0OVgAAAAAPGVgQj2HKwI8ZWBCOwMSbz2JN0w7AxJv
        PLQ5WDyLQ5Y8k3S8PVT99D0XjVA8zMzNPoAAAD9ywjU/AAAAP1GnuT8wjT4/HLCNAAAAADsDEm86gxJvAAAAAAAAAAAAAAAAPwAAADqDEm87RJumP4AAAAAAAAA/gAAA
        AAAAAD+AAAAAAAAAAAAAAAAAAAAAAAAAP4AAAAAAAAA/AAAAAAAAAD8AAAA/BR64PwAAAD+AAAA/AAAAPwAAAD8AAAA/gAAAP4AAAAAAAAAAAAAAAAAAAD8AAAA/gAAA
        PwAAAAAAAAA+vXCkAAAAAAAAAAA/gAAAP4AAAD8j1wo/gAAAAAAAAAAAAAA/gAAAPwAAAAAAAAAAAAAAAAAAAAAAAAAAAAAAAAAAAAAAAAAAAAAAAAAAAAAAAAAAAAAA
        AAAAAD8AAAA/AAAAPwAAAD8AAAA/AAAAPwAAAAAAAAAAAAAAP4AAAAAAAAAAAAAAAAAAAAAAAAAAAAAAAAAAAAAAAAAAAAAAAAAAAAAAAAAAAAAAAAAAAAAAAAAAAAAA
        AAAAAAAAAAAAAAAAAAAAAAAAAAAAAAAAAAAAAAAAAAAAAAAAAAAAAAAAAAAAAAAAAAAAAAAAqqusrQ==
        AAAQAAAA
      >
      FLOATPOS 500 379 987 799
      FXID {532372E3-5B0D-9345-A9C8-98A8EBAF9A7E}
      WAK 0
    >
  >
  <TRACK {9E2CAE92-CCC1-1F4A-BCF6-93DCFE473BDF}
    NAME "16th pulse (mix w/ send?)"
    PEAKCOL 16576
    BEAT -1
    AUTOMODE 0
    VOLPAN 0.55436697071059 0 -1 -1 1
    MUTESOLO 0 0 0
    IPHASE 0
    ISBUS 0 0
    BUSCOMP 0 0
    SHOWINMIX 1 0.6667 0.5 1 0.5 0 0 0
    FREEMODE 0
    SEL 1
    REC 0 0 0 0 0 0 0
    VU 2
    TRACKHEIGHT 80 0
    INQ 0 0 0 0.5 100 0 0 100
    NCHAN 2
    FX 1
    TRACKID {9E2CAE92-CCC1-1F4A-BCF6-93DCFE473BDF}
    PERF 0
    MIDIOUT -1
    MAINSEND 1 0
    <FXCHAIN
      WNDRECT 36 359 724 387
      SHOW 0
      LASTSEL 0
      DOCKED 0
      BYPASS 0 0 0
      <VST "VSTi: BlueARP.x64 (graywolf2004)" BlueARP.x64.vst 0 "" 929322872
        eFdkN+5e7f4AAAAAAgAAAAEAAAAAAAAAAgAAAAAAAACMkwAAAQAAAAAAEAA=
        dGZmcAAAAQAOAAEBAQAAAAACCP8FAAAAAAAAAAD///8QDw8PAAAAAAAAAAAAAAAA////FwAAAAAAAAAAAAAAAAAAAP///xMAAAAAAAAAAAAAAAAAAAD///8JCQoKAAAA
        AAAAAAAAAAAA////NgAAAAAAAAAAAAAAAAAAAP///z4/AAAAAAAAAAAAAAAAAAD///8hISEiAAAAAAAAAAAAAAAA////GxsAAAAAAAAAAAAAAAAAAP///wAAAAAAAAAA
        AAAAAAAAAAD///8AAAAAAAAAAAAAAAAAAAAA////AAAAAAAAAAAAAAAAAAAAAP///wAAAAAAAAAAAAAAAAAAAAD///8AAAAAAAAAAAAAAAAAAAAA////AAAAAAAAAAAA
        AAAAAAAAAP///wAAAAAAAAAAAAAAAAAAAAD///8AAAAAAAAAAAAAAAAAAAAOCF8DAQEAfwB/AEAAAQABBAAAAAAAAAAAfwAAAAAAAAAAAAAAAAAAAAAAAAAAAAAAAAAA
        AAAAAAAAAAAAAAAAAAAAAAAAAAAAAAAAAAAAAAAAAAAAAAAAAAAAAAAAAAAAAAAAAAAAAAAAAAAAAAAAAAAAAAAAAAAAAAAAAAAAAAAAAAAAAAAAAAAAAAAAAAAAAAAA
        AAAAAAAICAgICAgICAgICAgICAgICAgICAgICAgICAgICAgICAgICAgICAgICAgICAgICAgICAgICAgICAgICAgICAgIAQEBAQMBAwEBAQEBAQEBAQEBAQEBAQEBAQEB
        AQEBAQEBAQEBAQEBAQEBAQEBAQEBAQEBAQEBAQEBAQEBAQEBAQgIBAQIBAQEBAQEBAQEBAQEBAQEBAQEBAQEBAQEBAQEBAQEBAQEBAQEBAQEBAQEBAQEBAQEBAQEBAQE
        BAQEBARgYGBgYGBgYGBgYGBgYGBgYGBgYGBgYGBgYGBgYGBgYGBgYGBgYGBgYGBgYGBgYGBgYGBgYGBgYGBgYGBgYGBgAAAAAAAAAAAAAAAAAAAAAAAAAAAAAAAAAAAA
        AAAAAAAAAAAAAAAAAAAAAAAAAAAAAAAAAAAAAAAAAAAAAAAAAAAAAAAAAAAAAAAAAAAAAAAAAAAAAAAAAAAAAAAAAAAAAAAAAAAAAAAAAAAAAAAAAAAAAAAAAAAAAAAA
        AAAAAAAtIEluaXRpYWwgcHJvZ3JhbSAtAP9/AAAEHIUQAQAAAfRwBhIBAAAAAAABADABAAAOEDIDAQcAfwB/AEAAAQABAAAAAAAAAAAAfwAAAAAAAAAAAAAAAAAAAAAA
        AAAAAAAAAAAAAAAAAAAAAAAAAAAAAAAAAAAAAAAAAAAAAAAAAAAAAAAAAAAAAAAAAAAAAAAAAAAAAAAAAAAAAAAAAAAAAAAAAAAAAAAAAAAAAAAAAAAAAAAAAAAAAAAA
        AAAAAAAAAAAAAAAAAAAICAgICAgICAgICAgICAgICAgICAgICAgICAgICAgICAgICAgICAgICAgICAgICAgICAgICAgICAgICAgICAgIAQEBAQEBAQEBAQEBAQEBAQEB
        AQEBAQEBAQEBAQEBAQEBAQEBAQEBAQEBAQEBAQEBAQEBAQEBAQEBAQEBAQEBAQQIECAECBAgBAgQIAQIECAEBAQEBAQEBAQEBAQEBAQEBAQEBAQEBAQEBAQEBAQEBAQE
        BAQEBAQEBAQEBAQEBARgYGBgYGBgYGBgYGBgYGBgYGBgYGBgYGBgYGBgYGBgYGBgYGBgYGBgYGBgYGBgYGBgYGBgYGBgYGBgYGBgYGBgAAAAAAAAAAAAAAAAAAAAAAAA
        AAAAAAAAAAAAAAAAAAAAAAAAAAAAAAAAAAAAAAAAAAAAAAAAAAAAAAAAAAAAAAAAAAAAAAAAAAAAAAAAAAAAAAAAAAAAAAAAAAAAAAAAAAAAAAAAAAAAAAAAAAAAAAAA
        AAAAAAAAAAAAAAAAAABTaW1wbGUgNGsgVXAAAAAAkDm+X/9/AACwyIQQAQAAAAQ6vl//fwAA9HAGEgEAAAAOEDIDAQcAfwB/AEAAAQABAAAAAAAAAAAAfwAAAAAAAAAA
        AAAAAAAAAAAAAAAAAAAAAAAAAAAAAAAAAAAAAAAAAAAAAAAAAAAAAAAAAAAAAAAAAAAAAAAAAAAAAAAAAAAAAAAAAAAAAAAAAAAAAAAAAAAAAAAAAAAAAAAAAAAAAAAA
        AAAAAAAAAAAAAAAAAAAAAAAAAAAAAAAICAgICAgICAgICAgICAgICAgICAgICAgICAgICAgICAgICAgICAgICAgICAgICAgICAgICAgICAgICAgICAgIAQEBAQEBAQEB
        AQEBAQEBAQEBAQEBAQEBAQEBAQEBAQEBAQEBAQEBAQEBAQEBAQEBAQEBAQEBAQEBAQEBAQEBASAQCAQgEAgEIBAIBCAQCAQEBAQEBAQEBAQEBAQEBAQEBAQEBAQEBAQE
        BAQEBAQEBAQEBAQEBAQEBAQEBAQEBARgYGBgYGBgYGBgYGBgYGBgYGBgYGBgYGBgYGBgYGBgYGBgYGBgYGBgYGBgYGBgYGBgYGBgYGBgYGBgYGBgYGBgAAAAAAAAAAAA
        AAAAAAAAAAAAAAAAAAAAAAAAAAAAAAAAAAAAAAAAAAAAAAAAAAAAAAAAAAAAAAAAAAAAAAAAAAAAAAAAAAAAAAAAAAAAAAAAAAAAAAAAAAAAAAAAAAAAAAAAAAAAAAAA
        AAAAAAAAAAAAAAAAAAAAAAAAAAAAAABTaW1wbGUgNGsgRG93bgAAkDm+X/9/AACwyIQQAQAAAAQ6vl//fwAA9HAGEgEAAAAOEDIDAQcAfwB/AEAAAQABAAAAAAAAAAAA
        fwAAAAAAAAAAAAAAAAAAAAAAAAAAAAAAAAAAAAAAAAAAAAAAAAAAAAAAAAAAAAAAAAAAAAAAAAAAAAAAAAAAAAAAAAAAAAAAAAAAAAAAAAAAAAAAAAAAAAAAAAAAAAAA
        AAAAAAAAAAAAAAAAAAAAAAAAAAAAAAAAAAAAAAAAAAAICAgICAgICAgICAgICAgICAgICAgICAgICAgICAgICAgICAgICAgICAgICAgICAgICAgICAgICAgICAgICAgI
        AQEBAQEBAQEBAQEBAQEBAQEBAQEBAQEBAQEBAQEBAQEBAQEBAQEBAQEBAQEBAQEBAQEBAQEBAQEBAQEBAQEBAQQIEAQIEAQIEAQIEAQIEAgEBAQEBAQEBAQEBAQEBAQE
        BAQEBAQEBAQEBAQEBAQEBAQEBAQEBAQEBAQEBAQEBARgYGBgYGBgYGBgYGBgYGBgYGBgYGBgYGBgYGBgYGBgYGBgYGBgYGBgYGBgYGBgYGBgYGBgYGBgYGBgYGBgYGBg
        AAAAAAAAAAAAAAAAAAAAAAAAAAAAAAAAAAAAAAAAAAAAAAAAAAAAAAAAAAAAAAAAAAAAAAAAAAAAAAAAAAAAAAAAAAAAAAAAAAAAAAAAAAAAAAAAAAAAAAAAAAAAAAAA
        AAAAAAAAAAAAAAAAAAAAAAAAAAAAAAAAAAAAAAAAAABTaW1wbGUgM2sgVXAAAAAAkDm+X/9/AACwyIQQAQAAAAQ6vl//fwAA9HAGEgEAAAAOEDIDAQcAfwB/AEAAAQAB
        AAAAAAAAAAAAfwAAAAAAAAAAAAAAAAAAAAAAAAAAAAAAAAAAAAAAAAAAAAAAAAAAAAAAAAAAAAAAAAAAAAAAAAAAAAAAAAAAAAAAAAAAAAAAAAAAAAAAAAAAAAAAAAAA
        AAAAAAAAAAAAAAAAAAAAAAAAAAAAAAAAAAAAAAAAAAAAAAAAAAAAAAAICAgICAgICAgICAgICAgICAgICAgICAgICAgICAgICAgICAgICAgICAgICAgICAgICAgICAgI
        CAgICAgICAgIAQEBAQEBAQEBAQEBAQEBAQEBAQEBAQEBAQEBAQEBAQEBAQEBAQEBAQEBAQEBAQEBAQEBAQEBAQEBAQEBAQEBARAIBBAIBBAIBBAIBBAIBAgEBAQEBAQE
        BAQEBAQEBAQEBAQEBAQEBAQEBAQEBAQEBAQEBAQEBAQEBAQEBAQEBARgYGBgYGBgYGBgYGBgYGBgYGBgYGBgYGBgYGBgYGBgYGBgYGBgYGBgYGBgYGBgYGBgYGBgYGBg
        YGBgYGBgYGBgAAAAAAAAAAAAAAAAAAAAAAAAAAAAAAAAAAAAAAAAAAAAAAAAAAAAAAAAAAAAAAAAAAAAAAAAAAAAAAAAAAAAAAAAAAAAAAAAAAAAAAAAAAAAAAAAAAAA
        AAAAAAAAAAAAAAAAAAAAAAAAAAAAAAAAAAAAAAAAAAAAAAAAAAAAAABTaW1wbGUgM2sgRG93bgAAkDm+X/9/AACwyIQQAQAAAAQ6vl//fwAA9HAGEgEAAAAOCFoDAQAA
        fwB/AEAAAQABAAAAAAAAAAAAfwAAAAAAAAAAAAAAAAAAAAAAAAAAAAAAAAAAAAAAAAAAAAAAAAAAAAAAAAAAAAAAAAAAAAAAAAAAAAAAAAAAAAAAAAAAAAAAAAAAAAAA
        AAAAAAAAAAAAAAAAAAAAAAAAAAAAAAAAAAAAAAAAAAAAAAAAAAAAAAAAAAAAAAAAAAAICAQICAgECAgICAgICAgICAgICAgICAgICAgICAgICAgICAgICAgICAgICAgI
        CAgICAgICAgICAgICAgICAgIBAAEAAQABAABAQEBAQEBAQEBAQEBAQEBAQEBAQEBAQEBAQEBAQEBAQEBAQEBAQEBAQEBAQEBAQEBAQEBAQEBAQQEBAQEBAQEBAQEBAQE
        BAQEBAQEBAQEBAQEBAQEBAQEBAQEBAQEBAQEBAQEBAQEBAQEBAQEBAQEBAQEBAQEBAQwYGBgMGBgYGBgYGBgYGBgYGBgYGBgYGBgYGBgYGBgYGBgYGBgYGBgYGBgYGBg
        YGBgYGBgYGBgYGBgYGBgYGBgAAAAAAAAAAAAAAAAAAAAAAAAAAAAAAAAAAAAAAAAAAAAAAAAAAAAAAAAAAAAAAAAAAAAAAAAAAAAAAAAAAAAAAAAAAAAAAAAAAAAAAAA
        AAAAAAAAAAAAAAAAAAAAAAAAAAAAAAAAAAAAAAAAAAAAAAAAAAAAAAAAAAAAAAAAAABDaG9yZCBEZWFkbWF1NSBwbHVja3MgdmFyMQAQAQAAAAQ6vl//fwAA9HAGEgEA
        AAAOCFoDAQAAfwB/AEAAAQABAAAAAAAAAAAAfwEAAAAAAAAAAAAAAAAAAAAAAAAAAAAAAAAAAAAAAAAAAAAAAAAAAAAAAAAAAAAAAAAAAAAAAAAAAAAAAAAAAAAAAAAA
        AAAAAAAAAAAAAAAAAAAAAAAAAAAAAAAAAAAAAAAAAAAAAAAAAAAAAAAAAAAAAAAAAAAAAAAAAAAAAAAMCA4IDAgOCAgICAgICAgICAgICAgICAgICAgICAgICAgICAgI
        CAgICAgICAgICAgICAgICAgICAgICAgICAgIBAAEAAQABAABAQEBAQEBAQEBAQEBAQEBAQEBAQEBAQEBAQEBAQEBAQEBAQEBAQEBAQEBAQEBAQEBAQEBAQEBAQQEBAQE
        BAQEBAQEBAQEBAQEBAQEBAQEBAQEBAQEBAQEBAQEBAQEBAQEBAQEBAQEBAQEBAQEBAQEBAQEBAQEBAQwYGBgMGBgYGBgYGBgYGBgYGBgYGBgYGBgYGBgYGBgYGBgYGBg
        YGBgYGBgYGBgYGBgYGBgYGBgYGBgYGBgYGBgAAAAAAAAAAAAAAAAAAAAAAAAAAAAAAAAAAAAAAAAAAAAAAAAAAAAAAAAAAAAAAAAAAAAAAAAAAAAAAAAAAAAAAAAAAAA
        AAAAAAAAAAAAAAAAAAAAAAAAAAAAAAAAAAAAAAAAAAAAAAAAAAAAAAAAAAAAAAAAAAAAAAAAAAAAAABDaG9yZCBEZWFkbWF1NSBwbHVja3MgdmFyMgAQAQAAAAQ6vl//
        fwAA9HAGEgEAAAAOEEoDAQAAfwB/AEAAAQABAAAAAAAAAAAAfwEAAAAAAAAAAAAAAAAAAAAAAAAAAAAAAAAAAAAAAAAAAAAAAAAAAAAAAAAAAAAAAAAAAAAAAAAAAAAA
        AAAAAAAAAAAAAAAAAAAAAAAAAAAAAAAAAAAAAAAAAAAAAAAAAAAAAAAAAAAAAAAAAAAAAAAAAAAAAAAAAAAAAAAAAAAICAgMCAgICAgMCAgICAwICAgICAgICAgICAgI
        CAgICAgICAgICAgICAgICAgICAgICAgICAgICAgICAgICAgIBAAABAAABAAABAAABAAEAAEBAQEBAQEBAQEBAQEBAQEBAQEBAQEBAQEBAQEBAQEBAQEBAQEBAQEBAQEB
        AQEBAQQEBAQEBAQEBAQEBAQEBAQEBAQEBAQEBAQEBAQEBAQEBAQEBAQEBAQEBAQEBAQEBAQEBAQEBAQEBAQEBAQEBARgYGBgYGBgYGBgYGBgYGBgYGBgYGBgYGBgYGBg
        YGBgYGBgYGBgYGBgYGBgYGBgYGBgYGBgYGBgYGBgYGBgYGBgAAAAAAAAAAAAAAAAAAAAAAAAAAAAAAAAAAAAAAAAAAAAAAAAAAAAAAAAAAAAAAAAAAAAAAAAAAAAAAAA
        AAAAAAAAAAAAAAAAAAAAAAAAAAAAAAAAAAAAAAAAAAAAAAAAAAAAAAAAAAAAAAAAAAAAAAAAAAAAAAAAAAAAAAAAAABQb2x5cGhvbmljIG9jdC4gUGx1Y2tzIHZhcjEA
        AQAAAAQ6vl//fwAA9HAGEgEAAAAOEEoDAQAAfwB/AEAAAQABAAAAAAAAAAAAfwEAAAAAAAAAAAAAAAAAAAAAAAAAAAAAAAAAAAAAAAAAAAAAAAAAAAAAAAAAAAAAAAAA
        AAAAAAAAAAAAAAAAAAAAAAAAAAAAAAAAAAAAAAAAAAAAAAAAAAAAAAAAAAAAAAAAAAAAAAAAAAAAAAAAAAAAAAAAAAAAAAAAAAAAAAAMCAgOCAgMCAgOCAgMCA4ICAgI
        CAgICAgICAgICAgICAgICAgICAgICAgICAgICAgICAgICAgICAgICAgICAgIBAAABAAABAAABAAABAAEAAEBAQEBAQEBAQEBAQEBAQEBAQEBAQEBAQEBAQEBAQEBAQEB
        AQEBAQEBAQEBAQEBAQQEBAQEBAQEBAQEBAQEBAQEBAQEBAQEBAQEBAQEBAQEBAQEBAQEBAQEBAQEBAQEBAQEBAQEBAQEBAQEBAQEBARgYGBgYGBgYGBgYGBgYGBgYGBg
        YGBgYGBgYGBgYGBgYGBgYGBgYGBgYGBgYGBgYGBgYGBgYGBgYGBgYGBgYGBgAAAAAAAAAAAAAAAAAAAAAAAAAAAAAAAAAAAAAAAAAAAAAAAAAAAAAAAAAAAAAAAAAAAA
        AAAAAAAAAAAAAAAAAAAAAAAAAAAAAAAAAAAAAAAAAAAAAAAAAAAAAAAAAAAAAAAAAAAAAAAAAAAAAAAAAAAAAAAAAAAAAAAAAAAAAABQb2x5cGhvbmljIG9jdC4gUGx1
        Y2tzIHZhcjIAAQAAAAQ6vl//fwAA9HAGEgEAAAAOEDQDAQAAfwB/AEAAAQABAAAAAAAAAAAAfwEAAAAAAAAAAAAAAAAAAAAAAAAAAAAAAAAAAAAAAAAAAAAAAAAAAAAA
        AAAAAAAAAAAAAAAAAAAAAAAAAAAAAAAAAAAAAAAAAAAAAAAAAAAAAAAAAAAAAAAAAAAAAAAAAAAAAAAAAAAAAAAAAAAAAAAAAAAAAAAAAAAAAAAAAAAMCAgOCAgMCAgO
        CAgMCA4ICAgICAgICAgICAgICAgICAgICAgICAgICAgICAgICAgICAgICAgICAgICAgICAgIBAICBAICBAICBAICBAIEAgEBAQEBAQEBAQEBAQEBAQEBAQEBAQEBAQEB
        AQEBAQEBAQEBAQEBAQEBAQEBAQEBAQQEBAQEBAQEBAQEBAQEBAQEBAQEBAQEBAQEBAQEBAQEBAQEBAQEBAQEBAQEBAQEBAQEBAQEBAQEBAQEBAQEBARgYGBgYGBgYGBg
        YGBgYGBgYGBgYGBgYGBgYGBgYGBgYGBgYGBgYGBgYGBgYGBgYGBgYGBgYGBgYGBgYGBgYGBgAAAAAAAAAAAAAAAAAAAAAAAAAAAAAAAAAAAAAAAAAAAAAAAAAAAAAAAA
        AAAAAAAAAAAAAAAAAAAAAAAAAAAAAAAAAAAAAAAAAAAAAAAAAAAAAAAAAAAAAAAAAAAAAAAAAAAAAAAAAAAAAAAAAAAAAAAAAAAAAAAAAAAAAAAAAABQb2x5cGhvbmlj
        IG9jdC4gUGx1Y2tzIHZhcjMAAQAAAAQ6vl//fwAA9HAGEgEAAAAOEDIDAQAAfwB/AEAAAQABAAAAAAAAAAAAfwAAAAAAAAAAAAAAAAAAAAAAAAAAAAAAAAAAAAAAAAAA
        AAAAAAAAAAAAAAAAAAAAAAAAAAAAAAAAAAAAAAAAAAAAAAAAAAAAAAAAAAAAAAAAAAAAAAAAAAAAAAAAAAAAAAAAAAAAAAAAAAAAAAAAAAAAAAAAAAAAAAAAAAAAAAAI
        CAgICAgICAgICAgICAgICAgICAgICAgICAgICAgICAgICAgICAgICAgICAgICAgICAgICAgICAgICAgICAgIBAQABAQABAQABAQABAAEAAEBAQEBAQEBAQEBAQEBAQEB
        AQEBAQEBAQEBAQEBAQEBAQEBAQEBAQEBAQEBAQEBAQQEBAQEBAQEBAQEBAQEBAQEBAQEBAQEBAQEBAQEBAQEBAQEBAQEBAQEBAQEBAQEBAQEBAQEBAQEBAQEBAQEBARg
        YGBgYGBgYGBgYGBgYGBgYGBgYGBgYGBgYGBgYGBgYGBgYGBgYGBgYGBgYGBgYGBgYGBgYGBgYGBgYGBgYGBgAAAAAAAAAAAAAAAAAAAAAAAAAAAAAAAAAAAAAAAAAAAA
        AAAAAAAAAAAAAAAAAAAAAAAAAAAAAAAAAAAAAAAAAAAAAAAAAAAAAAAAAAAAAAAAAAAAAAAAAAAAAAAAAAAAAAAAAAAAAAAAAAAAAAAAAAAAAAAAAAAAAAAAAAAAAABB
        cnAgQ2hvcmQgR2F0ZWQgMDEAX/9/AACwyIQQAQAAAAQ6vl//fwAA9HAGEgEAAAAOEDIDAQAAfwB/AEAAAQABAAAAAAAAAAAAfwAAAAAAAAAAAAAAAAAAAAAAAAAAAAAA
        AAAAAAAAAAAAAAAAAAAAAAAAAAAAAAAAAAAAAAAAAAAAAAAAAAAAAAAAAAAAAAAAAAAAAAAAAAAAAAAAAAAAAAAAAAAAAAAAAAAAAAAAAAAAAAAAAAAAAAAAAAAAAAAA
        AAAAAAAAAAAICAgICAgICAgICAgICAgICAgICAgICAgICAgICAgICAgICAgICAgICAgICAgICAgICAgICAgICAgICAgICAgIBAAEAAQABAAEAAQAAAQABAEBAQEBAQEB
        AQEBAQEBAQEBAQEBAQEBAQEBAQEBAQEBAQEBAQEBAQEBAQEBAQEBAQQEBAQEBAQEBAQEBAQEBAQEBAQEBAQEBAQEBAQEBAQEBAQEBAQEBAQEBAQEBAQEBAQEBAQEBAQE
        BAQEBAQEBARgYGBgYGBgYGBgYGBgYGBgYGBgYGBgYGBgYGBgYGBgYGBgYGBgYGBgYGBgYGBgYGBgYGBgYGBgYGBgYGBgYGBgAAAAAAAAAAAAAAAAAAAAAAAAAAAAAAAA
        AAAAAAAAAAAAAAAAAAAAAAAAAAAAAAAAAAAAAAAAAAAAAAAAAAAAAAAAAAAAAAAAAAAAAAAAAAAAAAAAAAAAAAAAAAAAAAAAAAAAAAAAAAAAAAAAAAAAAAAAAAAAAAAA
        AAAAAAAAAABBcnAgQ2hvcmQgR2F0ZWQgMDIAX/9/AACwyIQQAQAAAAQ6vl//fwAA9HAGEgEAAAAOEDIDAQAAfwB/AEAAAQABAAAAAAAAAAAAfwAAAAAAAAAAAAAAAAAA
        AAAAAAAAAAAAAAAAAAAAAAAAAAAAAAAAAAAAAAAAAAAAAAAAAAAAAAAAAAAAAAAAAAAAAAAAAAAAAAAAAAAAAAAAAAAAAAAAAAAAAAAAAAAAAAAAAAAAAAAAAAAAAAAA
        AAAAAAAAAAAAAAAAAAAAAAAICAgICAgICAgICAgICAgICAgICAgICAgICAgICAgICAgICAgICAgICAgICAgICAgICAgICAgICAgICAgICAgIBAQABAQABAQABAQABAAE
        AAEBAQEBAQEBAQEBAQEBAQEBAQEBAQEBAQEBAQEBAQEBAQEBAQEBAQEBAQEBAQEBAQQEBAQEBAQEBAQEBAQEBAQEBAQEBAQEBAQEBAQEBAQEBAQEBAQEBAQEBAQEBAQE
        BAQEBAQEBAQEBAQEBAQEBARgYGBgYGBgYGBgYGBgYGBgYGBgYGBgYGBgYGBgYGBgYGBgYGBgYGBgYGBgYGBgYGBgYGBgYGBgYGBgYGBgYGBgAAAAAAAAAAAAAAAAAAAA
        AAAAAAAAAAAAAAAAAAAAAAAAAAAAAAAAAAAAAAAAAAAAAAAAAAAAAAAAAAAAAAAAAAAAAAAAAAAAAAAAAAAAAAAAAAAAAAAAAAAAAAAAAAAAAAAAAAAAAAAAAAAAAAAA
        AAAAAAAAAAAAAAAAAAAAAABBcnAgQ2hvcmQgR2F0ZWQgMDMAX/9/AACwyIQQAQAAAAQ6vl//fwAA9HAGEgEAAAAOEDIDAQkAfwB/AUAAAQABAAAAAAAAAAAAfwAAAAAA
        AAAAAAAAAAAAAAAAAAAAAAAAAAAAAAAAAAAAAAAAAAAAAAAAAAAAAAAAAAAAAAAAAAAAAAAAAAAAAAAAAAAAAAAAAAAAAAAAAAAAAAAAAAAAAAAAAAAAAAAAAAAAAAAA
        AAAAAAAAAAAAAAAAAAAAAAAAAAAAAAAAAAAICAgICAgICAgICAgICAgICAgICAgICAgICAgICAgICAgICAgICAgICAgICAgICAgICAgICAgICAgICAgICAgIAQEBAQEB
        AQEBAQEBAQEBAQEBAQEBAQEBAQEBAQEBAQEBAQEBAQEBAQEBAQEBAQEBAQEBAQEBAQEBAQEBAQEBARAIBBAIBBAIBBAEEAgEEAgEBAQEBAQEBAQEBAQEBAQEBAQEBAQE
        BAQEBAQEBAQEBAQEBAQEBAQEBAQEBAQEBARgYGBgYGBgYGBgYGBgYGBgYGBgYGBgYGBgYGBgYGBgYGBgYGBgYGBgYGBgYGBgYGBgYGBgYGBgYGBgYGBgYGBgAAAAAAAA
        AAAAAAAAAAAAAAAAAAAAAAAAAAAAAAAAAAAAAAAAAAAAAAAAAAAAAAAAAAAAAAAAAAAAAAAAAAAAAAAAAAAAAAAAAAAAAAAAAAAAAAAAAAAAAAAAAAAAAAAAAAAAAAAA
        AAAAAAAAAAAAAAAAAAAAAAAAAAAAAAAAAABBcnAgM2sgU1NhdyAwMSAoUmFtbXN0ZWluKQAQAQAAAAQ6vl//fwAA9HAGEgEAAAAOCDoDAQQAfwB/AEAAAQABAAAAAAAA
        AAAAfwAAAAAAAAAAAAAAAAAAAAAAAAAAAAAAAAAAAAAAAAAAAAAAAAAAAAAAAAAAAAAAAAAAAAAAAAAAAAAAAAAAAAAAAAAAAAAAAAAAAAAAAAAAAAAAAAAAAAAAAAAA
        AAAAAAAAAAAAAAAAAAAAAAAAAAAAAAAAAAAAAAAAAAAAAAAECAgECAgECAgICAgICAgICAgICAgICAgICAgICAgICAgICAgICAgICAgICAgICAgICAgICAgICAgICAgI
        CAgIAQABAQEBAQEAAAAAAAAAAAEBAQEBAQEBAQEBAQEBAQEBAQEBAQEBAQEBAQEBAQEBAQEBAQEBAQEBAQEBAQEBAQQEEAQECAQQBAQEBAQEBAQEBAQEBAQEBAQEBAQE
        BAQEBAQEBAQEBAQEBAQEBAQEBAQEBAQEBAQEBAQEBAQEBARgYGBgYGBgYGBgYGBgYGBgYGBgYGBgYGBgYGBgYGBgYGBgYGBgYGBgYGBgYGBgYGBgYGBgYGBgYGBgYGBg
        YGBgAAAAAAAAAAAAAAAAAAAAAAAAAAAAAAAAAAAAAAAAAAAAAAAAAAAAAAAAAAAAAAAAAAAAAAAAAAAAAAAAAAAAAAAAAAAAAAAAAAAAAAAAAAAAAAAAAAAAAAAAAAAA
        AAAAAAAAAAAAAAAAAAAAAAAAAAAAAAAAAAAAAAAAAAAAAABBcnAgM2sgU3VwZXJTYXcgMDIAX/9/AACwyIQQAQAAAAQ6vl//fwAA9HAGEgEAAAAOCDoDAQQAfwB/AEAA
        AQABAAAAAAAAAAAAfwAAAAAAAAAAAAAAAAAAAAAAAAAAAAAAAAAAAAAAAAAAAAAAAAAAAAAAAAAAAAAAAAAAAAAAAAAAAAAAAAAAAAAAAAAAAAAAAAAAAAAAAAAAAAAA
        AAAAAAAAAAAAAAAAAAAAAAAAAAAAAAAAAAAAAAAAAAAAAAAAAAAAAAAAAAAECAgECAQICAgICAgICAgICAgICAgICAgICAgICAgICAgICAgICAgICAgICAgICAgICAgI
        CAgICAgICAgICAgIAQEBAQEBAQEAAAAAAAAAAAEBAQEBAQEBAQEBAQEBAQEBAQEBAQEBAQEBAQEBAQEBAQEBAQEBAQEBAQEBAQEBAQQQCAQEBAgQBAQEBAQEBAQEBAQE
        BAQEBAQEBAQEBAQEBAQEBAQEBAQEBAQEBAQEBAQEBAQEBAQEBAQEBAQEBARgYGBgYGBgYGBgYGBgYGBgYGBgYGBgYGBgYGBgYGBgYGBgYGBgYGBgYGBgYGBgYGBgYGBg
        YGBgYGBgYGBgYGBgAAAAAAAAAAAAAAAAAAAAAAAAAAAAAAAAAAAAAAAAAAAAAAAAAAAAAAAAAAAAAAAAAAAAAAAAAAAAAAAAAAAAAAAAAAAAAAAAAAAAAAAAAAAAAAAA
        AAAAAAAAAAAAAAAAAAAAAAAAAAAAAAAAAAAAAAAAAAAAAAAAAAAAAAAAAABBcnAgM2sgU3VwZXJTYXcgMDMAX/9/AACwyIQQAQAAAAQ6vl//fwAA9HAGEgEAAAAOEDoD
        AQgAfwB/AEAAAQABAAAAAAAAAAAAfwAAAAAAAAAAAAAAAAAAAAAAAAAAAAAAAAAAAAAAAAAAAAAAAAAAAAAAAAAAAAAAAAAAAAAAAAAAAAAAAAAAAAAAAAAAAAAAAAAA
        AAAAAAEAAAAAAAAAAAAAAAAAAAAAAAAAAAAAAAAAAAAAAAAAAAAAAAAAAAAAAAAAAAAAAAAICAQIBAgICAgIBAgICAQICAgICAgICAgICAgICAgICAgICAgICAgICAgI
        CAgICAgICAgICAgICAgICAgICAgIAQIBAAEAAQIBAgEAAQIBAQEBAQEBAQEBAQEBAQEBAQEBAQEBAQEBAQEBAQEBAQEBAQEBAQEBAQEBAQEBAQEBAQQEBAQEBAQECAQE
        BAQEBAQEBAQEBAQEBAQEBAQEBAQEBAQEBAQEBAQEBAQEBAQEBAQEBAQEBAQEBAQEBAQEBARgYGBgYGBgYGBgYGBgYGBgYGBgYGBgYGBgYGBgYGBgYGBgYGBgYGBgYGBg
        YGBgYGBgYGBgYGBgYGBgYGBgYGBgAAAAAAAAAAAAAAAAAAAAAAAAAAAAAAAAAAAAAAAAAAAAAAAAAAAAAAAAAAAAAAAAAAAAAAAAAAAAAAAAAAAAAAAAAAAAAAAAAAAA
        AAAAAAAAAAAAAAAAAAAAAAAAAAAAAAAAAAAAAAAAAAAAAAAAAAAAAAAAAAAAAAAAAAAAAABBcnAgMmsgU3VwZXJTYXcgMDQAX/9/AACwyIQQAQAAAAQ6vl//fwAA9HAG
        EgEAAAAOEDoDAQUAfwB/AEAAAQABAAAAAAAAAAAAfwAAAAAAAAAAAAAAAAAAAAAAAAAAAAAAAAAAAAAAAAAAAAAAAAAAAAAAAAAAAAAAAAAAAAAAAAAAAAAAAAAAAAAA
        AAAAAAAAAAAAAAAAAAAAAAAAAAAAAAAAAAAAAAAAAAAAAAAAAAAAAAAAAAAAAAAAAAAAAAAAAAAAAAAAAAAIBAgIBAgICAgECAgECAgECAgICAgICAgICAgICAgICAgI
        CAgICAgICAgICAgICAgICAgICAgICAgICAgICAgIAQEBAQEBAQEBAQEBAQEBAQEBAQEBAQEBAQEBAQEBAQEBAQEBAQEBAQEBAQEBAQEBAQEBAQEBAQEBAQEBAQEBAQgE
        BBAEBBAECAQEEAQEEAQEBAQEBAQEBAQEBAQEBAQEBAQEBAQEBAQEBAQEBAQEBAQEBAQEBAQEBAQEBAQEBARgYGBgYGBgYGBgYGBgYGBgYGBgYGBgYGBgYGBgYGBgYGBg
        YGBgYGBgYGBgYGBgYGBgYGBgYGBgYGBgYGBgYGBgAAAAAAAAAAAAAAAAAAAAAAAAAAAAAAAAAAAAAAAAAAAAAAAAAAAAAAAAAAAAAAAAAAAAAAAAAAAAAAAAAAAAAAAA
        AAAAAAAAAAAAAAAAAAAAAAAAAAAAAAAAAAAAAAAAAAAAAAAAAAAAAAAAAAAAAAAAAAAAAAAAAAAAAAAAAABBcnAgMmsgU3VwZXJTYXcgMDUAX/9/AACwyIQQAQAAAAQ6
        vl//fwAA9HAGEgEAAAAOBDgDAQAAfwB/AEAAAQABAAAAAAAAAAAAfwAAAAAAAAAAAAAAAAAAAAAAAAAAAAAAAAAAAAAAAAAAAAAAAAAAAAAAAAAAAAAAAAAAAAAAAAAA
        AAAAAAAAAAAAAAAAAAAAAAAAAAAAAAAAAAAAAAAAAAAAAAAAAAAAAAAAAAAAAAAAAAAAAAAAAAAAAAAAAAAAAAAAAAAAAAAICAgICAgICAgICAgICAgICAgICAgICAgI
        CAgICAgICAgICAgICAgICAgICAgICAgICAgICAgICAgICAgICAgIAQEEAQEBAQEBAQEBAQEBAQEBAQEBAQEBAQEBAQEBAQEBAQEBAQEBAQEBAQEBAQEBAQEBAQEBAQEB
        AQEBAQEBAQQIBAgEBAQEBAQEBAQEBAQEBAQEBAQEBAQEBAQEBAQEBAQEBAQEBAQEBAQEBAQEBAQEBAQEBAQEBAQEBAQEBARgYGBgYGBgYGBgYGBgYGBgYGBgYGBgYGBg
        YGBgYGBgYGBgYGBgYGBgYGBgYGBgYGBgYGBgYGBgYGBgYGBgYGBgAAAAAAAAAAAAAAAAAAAAAAAAAAAAAAAAAAAAAAAAAAAAAAAAAAAAAAAAAAAAAAAAAAAAAAAAAAAA
        AAAAAAAAAAAAAAAAAAAAAAAAAAAAAAAAAAAAAAAAAAAAAAAAAAAAAAAAAAAAAAAAAAAAAAAAAAAAAAAAAAAAAAAAAAAAAABBcnAgM2sgQmVuYXNzaSBJbGx1c2lvbgCw
        yIQQAQAAAAQ6vl//fwAA9HAGEgEAAAAOEDIDAQcAfwB/AEAAAQABAAAAAAAAAAAAfwAAAAAAAAAAAAAAAAAAAAAAAAAAAAAAAAAAAAAAAAAAAAAAAAAAAAAAAAAAAAAA
        AAAAAAAAAAAAAAAAAAAAAAAAAAAAAAAAAAAAAAAAAAAAAAAAAAAAAAAAAAAAAAAAAAAAAAAAAAAAAAAAAAAAAAAAAAAAAAAAAAAAAAAAAAAECAgECAgICAQICAQICAQI
        CAgICAgICAgICAgICAgICAgICAgICAgICAgICAgICAgICAgICAgICAgICAgICAgIAQEBAQEBAQEBAQEBAQEBAQEBAQEBAQEBAQEBAQEBAQEBAQEBAQEBAQEBAQEBAQEB
        AQEBAQEBAQEBAQEBAQEBAQQIEAQQCBAgBCAQBAQIBBAEBAQEBAQEBAQEBAQEBAQEBAQEBAQEBAQEBAQEBAQEBAQEBAQEBAQEBAQEBAQEBARgYGBgYGBgYGBgYGBgYGBg
        YGBgYGBgYGBgYGBgYGBgYGBgYGBgYGBgYGBgYGBgYGBgYGBgYGBgYGBgYGBgYGBgAAAAAAAAAAAAAAAAAAAAAAAAAAAAAAAAAAAAAAAAAAAAAAAAAAAAAAAAAAAAAAAA
        AAAAAAAAAAAAAAAAAAAAAAAAAAAAAAAAAAAAAAAAAAAAAAAAAAAAAAAAAAAAAAAAAAAAAAAAAAAAAAAAAAAAAAAAAAAAAAAAAAAAAAAAAABBcnAgNGsgU1NhdyAwNyAo
        WVQgSW50cm8pAIQQAQAAAAQ6vl//fwAA9HAGEgEAAAAOID0DAQcAfwB/AEAAAQABAAAAAAAAAAAAfwAAAAAAAAAAAAAAAAAAAAAAAAAAAAAAAAAAAAAAAAAAAAAAAAAA
        AAAAAAAAAAAAAAAAAAAAAAAAAAAAAAAAAAAAAAAAAAAAAAAAAAAAAAAAAAAAAAAAAAAAAAAAAAAAAAAAAAAAAAAAAAAAAAAAAAAAAAAAAAAAAAAAAAAAAAAIBAgECAQI
        BAgECAQIBAgECAQIBAgECAQIBAgECAQICAgICAgICAgICAgICAgICAgICAgICAgICAgICAgICAgIAQEBAQEBAQEBAQEBAQEBAQEBAQEBAQEBAQEBAQEBAQEBAQEBAQEB
        AQEBAQEBAQEBAQEBAQEBAQEBAQEBAQEBAQQECAQQBAQECAQQBAQECAQQBAQECAQQBAQECAQQBBAIBAQEBAQEBAQEBAQEBAQEBAQEBAQEBAQEBAQEBAQEBARgYGBgYGBg
        YGBgYGBgYGBgYGBgYGBgYGBgYGBgYGBgYGBgYGBgYGBgYGBgYGBgYGBgYGBgYGBgYGBgYGBgYGBgAAAAAAAAAAAAAAAAAAAAAAAAAAAAAAAAAAAAAAAAAAAAAAAAAAAA
        AAAAAAAAAAAAAAAAAAAAAAAAAAAAAAAAAAAAAAAAAAAAAAAAAAAAAAAAAAAAAAAAAAAAAAAAAAAAAAAAAAAAAAAAAAAAAAAAAAAAAAAAAAAAAAAAAAAAAABBcnAgM2sg
        U1NhdyAwOCAoMzIgc3RlcHMpAIQQAQAAAAQ6vl//fwAA9HAGEgEAAAAOEEUDAQQAfwB/AEAAAQABAAAAAAAAAAAAfwAAAAAAAAAAAAAAAAAAAAAAAAAAAAAAAAAAAAAA
        AAAAAAAAAAAAAAAAAAAAAAAAAAAAAAAAAAAAAAAAAAAAAAAAAAAAAAAAAAAAAAAAAAAAAAAAAAAAAAAAAAAAAAAAAAAAAAAAAAAAAAAAAAAAAAAAAAAAAAAAAAAAAAAA
        AAAEBAgEBAgEBAgEBAgEBAgECAgICAgICAgICAgICAgICAgICAgICAgICAgICAgICAgICAgICAgICAgICAgICAgIAQABAAEBAAEBAAEBAAEBAAEBAQEBAQEBAQEBAQEB
        AQEBAQEBAQEBAQEBAQEBAQEBAQEBAQEBAQEBAQEBAQEBAQQECAQECAQECAQECAQECAQEBAQEBAQEBAQEBAQEBAQEBAQEBAQEBAQEBAQEBAQEBAQEBAQEBAQEBAQEBAQE
        BARgYGBgYGBgYGBgYGBgYGBgYGBgYGBgYGBgYGBgYGBgYGBgYGBgYGBgYGBgYGBgYGBgYGBgYGBgYGBgYGBgYGBgAAAAAAAAAAAAAAAAAAAAAAAAAAAAAAAAAAAAAAAA
        AAAAAAAAAAAAAAAAAAAAAAAAAAAAAAAAAAAAAAAAAAAAAAAAAAAAAAAAAAAAAAAAAAAAAAAAAAAAAAAAAAAAAAAAAAAAAAAAAAAAAAAAAAAAAAAAAAAAAAAAAAAAAAAA
        AABBcnAgMmsgQ29tbXVuaWNhdGlvbiB2MQCwyIQQAQAAAAQ6vl//fwAA9HAGEgEAAAAOEDwDAQQAfwB/AEAAAQABAAAAAAAAAAAAfwAAAAAAAAAAAAAAAAAAAAAAAAAA
        AAAAAAAAAAAAAAAAAAAAAAAAAAAAAAAAAAAAAAAAAAAAAAAAAAAAAAAAAAAAAAAAAAAAAAAAAAAAAAAAAAAAAAAAAAAAAAAAAAAAAAAAAAAAAAAAAAAAAAAAAAAAAAAA
        AAAAAAAAAAAAAAACBAgCBAgCBAgCBAgCBAgECAgICAgICAgICAgICAgICAgICAgICAgICAgICAgICAgICAgICAgICAgICAgICAgIAQEBAQEBAQEBAQEBAQEBAQEBAQEB
        AQEBAQEBAQEBAQEBAQEBAQEBAQEBAQEBAQEBAQEBAQEBAQEBAQEBAQEBAQQECAQECAQECAQECAQECAQEBAQEBAQEBAQEBAQEBAQEBAQEBAQEBAQEBAQEBAQEBAQEBAQE
        BAQEBAQEBAQEBARgYGBgYGBgYGBgYGBgYGBgYGBgYGBgYGBgYGBgYGBgYGBgYGBgYGBgYGBgYGBgYGBgYGBgYGBgYGBgYGBgYGBgAAAAAAAAAAAAAAAAAAAAAAAAAAAA
        AAAAAAAAAAAAAAAAAAAAAAAAAAAAAAAAAAAAAAAAAAAAAAAAAAAAAAAAAAAAAAAAAAAAAAAAAAAAAAAAAAAAAAAAAAAAAAAAAAAAAAAAAAAAAAAAAAAAAAAAAAAAAAAA
        AAAAAAAAAAAAAABBcnAgMmsgQ29tbXVuaWNhdGlvbiB2MgCwyIQQAQAAAAQ6vl//fwAA9HAGEgEAAAAOED0DAQAAfwB/AEAAAQABAAAAAAAAAAAAfwAAAAAAAAAAAAAA
        AAAAAAAAAAAAAAAAAAAAAAAAAAAAAAAAAAAAAAAAAAAAAAAAAAAAAAAAAAAAAAAAAAAAAAAAAAAAAAAAAAAAAAAAAAAAAAAAAAAAAAAAAAAAAAAAAAAAAAAAAAAAAAAA
        AAAAAAAAAAAAAAAAAAAAAAAAAAAIAgQIAgQIBAgCBAgEAggECAIIAggCBAgCBAgCCAIEAggICAgICAgICAgICAgICAgICAgICAgICAgICAgICAgIAQEBAQEBAQEBAQEB
        AQEBAQEBAQEBAQEBAQEBAQEBAQEBAQEBAQEBAQEBAQEBAQEBAQEBAQEBAQEBAQEBAQEBAQgEBBAEBBAECAQEEAQEEAQIBAQQBAQQBAQEEAQEEAQEBAQEBAQEBAQEBAQE
        BAQEBAQEBAQEBAQEBAQEBAQEBARgYGBgYGBgYGBgYGBgYGBgYGBgYGBgYGBgYGBgYGBgYGBgYGBgYGBgYGBgYGBgYGBgYGBgYGBgYGBgYGBgYGBgAAAAAAAAAAAAAAAA
        AAAAAAAAAAAAAAAAAAAAAAAAAAAAAAAAAAAAAAAAAAAAAAAAAAAAAAAAAAAAAAAAAAAAAAAAAAAAAAAAAAAAAAAAAAAAAAAAAAAAAAAAAAAAAAAAAAAAAAAAAAAAAAAA
        AAAAAAAAAAAAAAAAAAAAAAAAAABBcnAgMmsgU3VwZXJTYXcgMTEgKEJlbmFzc2kpAAAAAAQ6vl//fwAA9HAGEgEAAAAOEDUDAQcAfwB/AEAAAQABAAAAAAAAAAAAfwAA
        AAAAAAAAAAAAAAAAAAAAAAAAAAAAAAAAAAAAAAAAAAAAAAAAAAAAAAAAAAAAAAAAAAAAAAAAAAAAAAAAAAAAAAAAAAAAAAAAAAAAAAAAAAAAAAAAAAAAAAAAAAAAAAAA
        AAAAAAAAAAAAAAAAAAAAAAAAAAAAAAAAAAAAAAAIAggCCAIECAIECAIIAgQCCAgICAgICAgICAgICAgICAgICAgICAgICAgICAgICAgICAgICAgICAgICAgICAgIAQEB
        AQEBAQEBAQEBAQEBAQEBAQEBAQEBAQEBAQEBAQEBAQEBAQEBAQEBAQEBAQEBAQEBAQEBAQEBAQEBAQEBARAECAQIBAQQBAQIBAgEBAQEBAQEBAQEBAQEBAQEBAQEBAQE
        BAQEBAQEBAQEBAQEBAQEBAQEBAQEBAQEBAQEBARgYGBgYGBgYGBgYGBgYGBgYGBgYGBgYGBgYGBgYGBgYGBgYGBgYGBgYGBgYGBgYGBgYGBgYGBgYGBgYGBgYGBgAAAA
        AAAAAAAAAAAAAAAAAAAAAAAAAAAAAAAAAAAAAAAAAAAAAAAAAAAAAAAAAAAAAAAAAAAAAAAAAAAAAAAAAAAAAAAAAAAAAAAAAAAAAAAAAAAAAAAAAAAAAAAAAAAAAAAA
        AAAAAAAAAAAAAAAAAAAAAAAAAAAAAAAAAAAAAABBcnAgMmsgU3VwZXJTYXcgMTIAX/9/AACwyIQQAQAAAAQ6vl//fwAA9HAGEgEAAAAOEGQDAQQAfwB/AE0AAQABCQAA
        AAAAAAAAfwAAAAAAAAAAAAAAAAAAAAAAAAAAAAAAAAAAAAAAAAAAAAAAAAAAAAAAAAAAAAAAAAAAAAAAAAAAAAAAAAAAAAAAAAAAAAAAAAAAAAAAAAAAAAAAAAAAAAAA
        AAAAAAAAAAAAAAAAAAAAAAAAAAAAAAAAAAAAAAAAAAAAAAAAAAAECAQECAQEBAQIBAQIBAgECAgICAgICAgICAgICAgICAgICAgICAgICAgICAgICAgICAgICAgICAgI
        CAgICAgIAQEBAQEAAQEAAQEAAQEBAQEBAQEBAQEBAQEBAQEBAQEBAQEBAQEBAQEBAQEBAQEBAQEBAQEBAQEBAQEBAQEBAQQIBCAIBBAEBAgEBAgEEAQEBAQEBAQEBAQE
        BAQEBAQEBAQEBAQEBAQEBAQEBAQEBAQEBAQEBAQEBAQEBAQEBARwUEBgUFB/YEBQYGBwYFBwYGBgYGBgYGBgYGBgYGBgYGBgYGBgYGBgYGBgYGBgYGBgYGBgYGBgYGBg
        YGBgYGBgAAAAAAAAAAAAAAAAAAAAAAAAAAAAAAAAAAAAAAAAAAAAAAAAAAAAAAAAAAAAAAAAAAAAAAAAAAAAAAAAAAAAAAAAAAAAAAAAAAAAAAAAAAAAAAAAAAAAAAAA
        AAAAAAAAAAAAAAAAAAAAAAAAAAAAAAAAAAAAAAAAAAAAAAAAAABBcnAgMmsgU3VwZXJTYXcgMTMgKHBocmVhcXVlKQAAAAQ6vl//fwAA9HAGEgEAAAAOCB8FAQEAfwB/
        AEAAAQABAAAAAAAAAAAAfwAAAAAAAAAAAAAAAAAAAAAAAAAAAAAAAAAAAAAAAAAAAAAAAAAAAAAAAAAAAAAAAAAAAAAAAAAAAAAAAAAAAAAAAAAAAAAAAAAAAAAAAAAA
        AAAAAAAAAAAAAAAAAAAAAAAAAAAAAAAAAAAAAAAAAAAAAAAAAAAAAAAAAAAAAAAICAgICAgICAgICAgICAgICAgICAgICAgICAgICAgICAgICAgICAgICAgICAgICAgI
        CAgICAgICAgICAgICAgIAQEBAQEBAQEBAQEBAQEBAQEBAQEBAQEBAQEBAQEBAQEBAQEBAQEBAQEBAQEBAQEBAQEBAQEBAQEBAQEBAQEBARAECAQQBAgEBAQEBAQEBAQE
        BAQEBAQEBAQEBAQEBAQEBAQEBAQEBAQEBAQEBAQEBAQEBAQEBAQEBAQEBAQEBARgYGBQYGBgUGBgYGBgYGBgYGBgYGBgYGBgYGBgYGBgYGBgYGBgYGBgYGBgYGBgYGBg
        YGBgYGBgYGBgYGBgYGBgAAAAAAAAAAAAAAAAAAAAAAAAAAAAAAAAAAAAAAAAAAAAAAAAAAAAAAAAAAAAAAAAAAAAAAAAAAAAAAAAAAAAAAAAAAAAAAAAAAAAAAAAAAAA
        AAAAAAAAAAAAAAAAAAAAAAAAAAAAAAAAAAAAAAAAAAAAAAAAAAAAAAAAAAAAAABBcnAgM2sgQmVsbHMgMDEAkDm+X/9/AACwyIQQAQAAAAQ6vl//fwAA9HAGEgEAAAAO
        CB8FAQAAfwB/AEAAAQABAAAAAAAAAAAAfwAAAAAAAAAAAAAAAAAAAAAAAAAAAAAAAAAAAAAAAAAAAAAAAAAAAAAAAAAAAAAAAAAAAAAAAAAAAAAAAAAAAAAAAAAAAAAA
        AAAAAAAAAAAAAAAAAAAAAAAAAAAAAAAAAAAAAAAAAAAAAAAAAAAAAAAAAAAAAAAAAAAAAAAAAAAICAgICAgICAgICAgICAgICAgICAgICAgICAgICAgICAgICAgICAgI
        CAgICAgICAgICAgICAgICAgICAgICAgIAQEBAQEBAQEBAQEBAQEBAQEBAQEBAQEBAQEBAQEBAQEBAQEBAQEBAQEBAQEBAQEBAQEBAQEBAQEBAQEBAQEBARAIBBAIBBAI
        BAQEBAQEBAQEBAQEBAQEBAQEBAQEBAQEBAQEBAQEBAQEBAQEBAQEBAQEBAQEBAQEBAQEBAQEBARgYGBgYGBgYGBgYGBgYGBgYGBgYGBgYGBgYGBgYGBgYGBgYGBgYGBg
        YGBgYGBgYGBgYGBgYGBgYGBgYGBgYGBgAAAAAAAAAAAAAAAAAAAAAAAAAAAAAAAAAAAAAAAAAAAAAAAAAAAAAAAAAAAAAAAAAAAAAAAAAAAAAAAAAAAAAAAAAAAAAAAA
        AAAAAAAAAAAAAAAAAAAAAAAAAAAAAAAAAAAAAAAAAAAAAAAAAAAAAAAAAAAAAAAAAAAAAAAAAABBcnAgM2sgQmVsbHMgMDIAkDm+X/9/AACwyIQQAQAAAAQ6vl//fwAA
        9HAGEgEAAAAOCE0FAQgAfwB/AE0AAQABAAAAAAAAAAAAfwAAAAAAAAAAAAAAAAAAAAAAAAAAAAAAAAAAAAAAAAAAAAAAAAAAAAAAAAAAAAAAAAAAAAAAAAAAAAAAAAAA
        AAAAAAAAAAAAAAAAAAAAAAAAAAAAAAAAAAAAAAAAAAAAAAAAAAAAAAAAAAAAAAAAAAAAAAAAAAAAAAAAAAAAAAAECAgIBAgIEAgICAgICAgICAgICAgICAgICAgICAgI
        CAgICAgICAgICAgICAgICAgICAgICAgICAgICAgICAgIAQEBAQEBAQEBAQEBAQEBAQEBAQEBAQEBAQEBAQEBAQEBAQEBAQEBAQEBAQEBAQEBAQEBAQEBAQEBAQEBAQEB
        AQQECBAEBAgEBAQEBAQEBAQEBAQEBAQEBAQEBAQEBAQEBAQEBAQEBAQEBAQEBAQEBAQEBAQEBAQEBAQEBAQEBARgYGBgYGBgYGBgYGBgYGBgYGBgYGBgYGBgYGBgYGBg
        YGBgYGBgYGBgYGBgYGBgYGBgYGBgYGBgYGBgYGBgYGBgAAAAAAAAAAAAAAAAAAAAAAAAAAAAAAAAAAAAAAAAAAAAAAAAAAAAAAAAAAAAAAAAAAAAAAAAAAAAAAAAAAAA
        AAAAAAAAAAAAAAAAAAAAAAAAAAAAAAAAAAAAAAAAAAAAAAAAAAAAAAAAAAAAAAAAAAAAAAAAAAAAAAAAAAAAAABBcnAgMmsgU29mdEJlbGxzIDAxAP9/AACwyIQQAQAA
        AAQ6vl//fwAA9HAGEgEAAAAOCEIFAQgAfwB/AEAAAQABAAAAAAAAAAAAfwAAAAAAAAAAAAAAAAAAAAAAAAAAAAAAAAAAAAAAAAAAAAAAAAAAAAAAAAAAAAAAAAAAAAAA
        AAAAAAAAAAAAAAAAAAAAAAAAAAAAAAAAAAAAAAAAAAAAAAAAAAAAAAAAAAAAAAAAAAAAAAAAAAAAAAAAAAAAAAAAAAAAAAAAAAAEEAgIBBAICAgICAgICAgICAgICAgI
        CAgICAgICAgICAgICAgICAgICAgICAgICAgICAgICAgICAgICAgICAgIAQEBAQEBAQEBAQEBAQEBAQEBAQEBAQEBAQEBAQEBAQEBAQEBAQEBAQEBAQEBAQEBAQEBAQEB
        AQEBAQEBAQEBAQQEBAgEBAQQBAQEBAQEBAQEBAQEBAQEBAQEBAQEBAQEBAQEBAQEBAQEBAQEBAQEBAQEBAQEBAQEBAQEBAQEBARgYGBgYGBgYGBgYGBgYGBgYGBgYGBg
        YGBgYGBgYGBgYGBgYGBgYGBgYGBgYGBgYGBgYGBgYGBgYGBgYGBgYGBgAAAAAAAAAAAAAAAAAAAAAAAAAAAAAAAAAAAAAAAAAAAAAAAAAAAAAAAAAAAAAAAAAAAAAAAA
        AAAAAAAAAAAAAAAAAAAAAAAAAAAAAAAAAAAAAAAAAAAAAAAAAAAAAAAAAAAAAAAAAAAAAAAAAAAAAAAAAAAAAAAAAAAAAAAAAABBcnAgMmsgU29mdEJlbGxzIDAyAP9/
        AACwyIQQAQAAAAQ6vl//fwAA9HAGEgEAAAAOEEgDAQAAfwB/AEAAAQABAAAAAAAAAAAAfwAAAAAAAAAAAAAAAAAAAAAAAAAAAAAAAAAAAAAAAAAAAAAAAAAAAAAAAAAA
        AAAAAAAAAAAAAAAAAAAAAAAAAAAAAAAAAAAAAAAAAAAAAQAAAAAAAAAAAAAAAAAAAAAAAAAAAAAAAAAAAAAAAAAAAAAAAAAAAAAAAAAAAAAAAAAECAQECAQICAgECAgI
        BAgICAgICAgICAgICAgICAgICAgICAgICAgICAgICAgICAgICAgICAgICAgICAgICAgIAQABAAABAwABAQABAAEDAAEBAQEBAQEBAQEBAQEBAQEBAQEBAQEBAQEBAQEB
        AQEBAQEBAQEBAQEBAQEBAQEBAQQEBAQEBAQEBAQEBAQEBAQEBAQEBAQEBAQEBAQEBAQEBAQEBAQEBAQEBAQEBAQEBAQEBAQEBAQEBAQEBAQEBARgYGBgYGBgYGBgYGBg
        YGBgYGBgYGBgYGBgYGBgYGBgYGBgYGBgYGBgYGBgYGBgYGBgYGBgYGBgYGBgYGBgYGBgAAAAAAAAAAAAAAAAAAAAAAAAAAAAAAAAAAAAAAAAAAAAAAAAAAAAAAAAAAAA
        AAAAAAAAAAAAAAAAAAAAAAAAAAAAAAAAAAAAAAAAAAAAAAAAAAAAAAAAAAAAAAAAAAAAAAAAAAAAAAAAAAAAAAAAAAAAAAAAAAAAAAAAAAAAAABTZXEgMmsgQWNpZE1v
        bm8gMDEAX/9/AACwyIQQAQAAAAQ6vl//fwAA9HAGEgEAAAAOEEIDAQUAfwB/AEAAAQABAAAAAAAAAAAAfwAAAAAAAAAAAAAAAAAAAAAAAAAAAAAAAAAAAAAAAAAAAAAA
        AAAAAAAAAAAAAAAAAAAAAAAAAAAAAAAAAAAAAAAAAAAAAAAHAAAAAAAAAAAAAAAAAAAAAAAAAAAAAAAAAAAAAAAAAAAAAAAAAAAAAAAAAAAAAAAAAAAAAAAAAAAECAgE
        CAgIBAgEBAgECAgECAgICAgICAgICAgICAgICAgICAgICAgICAgICAgICAgICAgICAgICAgICAgICAgIAQAAAQAAAQMAAQMAAQIBAwEBAQEBAQEBAQEBAQEBAQEBAQEB
        AQEBAQEBAQEBAQEBAQEBAQEBAQEBAQEBAQEBAQQEBAQEBAQEBAQIBAQEBAgEBAQEBAQEBAQEBAQEBAQEBAQEBAQEBAQEBAQEBAQEBAQEBAQEBAQEBAQEBAQEBARgYGBg
        YGBgYGBgYGBgYGBgYGBgYGBgYGBgYGBgYGBgYGBgYGBgYGBgYGBgYGBgYGBgYGBgYGBgYGBgYGBgYGBgAAAAAAAAAAAAAAAAAAAAAAAAAAAAAAAAAAAAAAAAAAAAAAAA
        AAAAAAAAAAAAAAAAAAAAAAAAAAAAAAAAAAAAAAAAAAAAAAAAAAAAAAAAAAAAAAAAAAAAAAAAAAAAAAAAAAAAAAAAAAAAAAAAAAAAAAAAAAAAAAAAAAAAAAAAAABTZXEg
        MmsgQWNpZE1vbm8gMDIAX/9/AACwyIQQAQAAAAQ6vl//fwAA9HAGEgEAAAAOEDoDAQAAfwB/AEAAAQABAAAAAAAAAAAAfwAAAAAAAAAAAAAAAAAAAAAAAAAAAAAAAAAA
        AAAAAAAAAAAAAAAAAAAAAAAAAAAAAAAAAAAAAAAAAAAAAAAAAAAAAAAAAAAAAAAAAAAAAAAAAAAAAAAAAAAAAAAAAAAAAAAAAAAAAAAAAAAAAAAAAAAAAAAAAAAAAAAA
        AAAAAAAIBAgQBAgICAQICAgECAQICAgICAgICAgICAgICAgICAgICAgICAgICAgICAgICAgICAgICAgICAgICAgICAgIAQEBAwEBAwMBAwEDAQIBAQEBAQEBAQEBAQEB
        AQEBAQEBAQEBAQEBAQEBAQEBAQEBAQEBAQEBAQEBAQEBAQEBAQQEBAQEBAgEBAQECAQEBAgEBAQEBAQEBAQEBAQEBAQEBAQEBAQEBAQEBAQEBAQEBAQEBAQEBAQEBAQE
        BAQEBARgYGBgYGBgYGBgYGBgYGBgYGBgYGBgYGBgYGBgYGBgYGBgYGBgYGBgYGBgYGBgYGBgYGBgYGBgYGBgYGBgYGBgAAAAAAAAAAAAAAAAAAAAAAAAAAAAAAAAAAAA
        AAAAAAAAAAAAAAAAAAAAAAAAAAAAAAAAAAAAAAAAAAAAAAAAAAAAAAAAAAAAAAAAAAAAAAAAAAAAAAAAAAAAAAAAAAAAAAAAAAAAAAAAAAAAAAAAAAAAAAAAAAAAAAAA
        AAAAAABTZXEgMmsgQWNpZE1vbm8gMDMAX/9/AACwyIQQAQAAAAQ6vl//fwAA9HAGEgEAAAAOEDoDAQAAfwB/AEAAAQABAAAAAAAAAAAAfwAAAAAAAAAAAAAAAAAAAAAA
        AAAAAAAAAAAAAAAAAAAAAAAAAAAAAAAAAAAAAAAAAAAAAAAAAAAAAAAAAAAAAAAAAAAAAAAAAAAAAAAAAQAAAAAAAAAAAAAAAAAAAAAAAAAAAAAAAAAAAAAAAAAAAAAA
        AAAAAAAAAAAAAAAAAAAIEAgECAgECAgIBAgECAgECAgICAgICAgICAgICAgICAgICAgICAgICAgICAgICAgICAgICAgICAgICAgICAgIAQEDAQEDAQMBAwEBAQEBAQEB
        AQEBAQEBAQEBAQEBAQEBAQEBAQEBAQEBAQEBAQEBAQEBAQEBAQEBAQEBAQEBAQQEBAQIBAQEBAgEBAQIBAQEBAQEBAQEBAQEBAQEBAQEBAQEBAQEBAQEBAQEBAQEBAQE
        BAQEBAQEBAQEBAQEBARgYGBgYGBgYGBgYGBgYGBgYGBgYGBgYGBgYGBgYGBgYGBgYGBgYGBgYGBgYGBgYGBgYGBgYGBgYGBgYGBgYGBgAAAAAAAAAAAAAAAAAAAAAAAA
        AAAAAAAAAAAAAAAAAAAAAAAAAAAAAAAAAAAAAAAAAAAAAAAAAAAAAAAAAAAAAAAAAAAAAAAAAAAAAAAAAAAAAAAAAAAAAAAAAAAAAAAAAAAAAAAAAAAAAAAAAAAAAAAA
        AAAAAAAAAAAAAAAAAABTZXEgMmsgQWNpZE1vbm8gMDQAX/9/AACwyIQQAQAAAAQ6vl//fwAA9HAGEgEAAAAOBEgDAQAAfwB/AEAAAQABAAAAAAAAAAAAfwAAAAAAAAAA
        AAAAAAAAAAAAAAAAAAAAAAAAAAAAAAAAAAAAAAAAAAAAAAAAAAAAAAAAAAAAAAAAAAAAAAAAAAAAAAAAAAAAAAAAAAAAAAAAAAAAAAAAAAAAAAAAAAAAAAAAAAAAAAAA
        AAAAAAAAAAAAAAAAAAAAAAAAAAAAAAAEBAgICAgICAgICAgICAgICAgICAgICAgICAgICAgICAgICAgICAgICAgICAgICAgICAgICAgICAgICAgICAgIAQIBAQEBAQEB
        AQEBAQEBAQEBAQEBAQEBAQEBAQEBAQEBAQEBAQEBAQEBAQEBAQEBAQEBAQEBAQEBAQEBAQEBAQQEBAQEBAQEBAQEBAQEBAQEBAQEBAQEBAQEBAQEBAQEBAQEBAQEBAQE
        BAQEBAQEBAQEBAQEBAQEBAQEBAQEBARgYGBgYGBgYGBgYGBgYGBgYGBgYGBgYGBgYGBgYGBgYGBgYGBgYGBgYGBgYGBgYGBgYGBgYGBgYGBgYGBgYGBgAAAAAAAAAAAA
        AAAAAAAAAAAAAAAAAAAAAAAAAAAAAAAAAAAAAAAAAAAAAAAAAAAAAAAAAAAAAAAAAAAAAAAAAAAAAAAAAAAAAAAAAAAAAAAAAAAAAAAAAAAAAAAAAAAAAAAAAAAAAAAA
        AAAAAAAAAAAAAAAAAAAAAAAAAAAAAABCYXNzIDFrIFNpbXBsZSAwMQC+X/9/AACwyIQQAQAAAAQ6vl//fwAA9HAGEgEAAAAOBEgDAQAAfwB/AEAAAQABAAAAAAAAAAAA
        fwAAAAAAAAAAAAAAAAAAAAAAAAAAAAAAAAAAAAAAAAAAAAAAAAAAAAAAAAAAAAAAAAAAAAAAAAAAAAAAAAAAAAAAAAAAAAAAAAAAAAAAAAAAAAAAAAAAAAAAAAAAAAAA
        AAAAAAAAAAAAAAAAAAAAAAAAAAAAAAAAAAAAAAAAAAAEBAgICAgICAgICAgICAgICAgICAgICAgICAgICAgICAgICAgICAgICAgICAgICAgICAgICAgICAgICAgICAgI
        AQEBAQEBAQEBAQEBAQEBAQEBAQEBAQEBAQEBAQEBAQEBAQEBAQEBAQEBAQEBAQEBAQEBAQEBAQEBAQEBAQEBAQQEBAQEBAQEBAQEBAQEBAQEBAQEBAQEBAQEBAQEBAQE
        BAQEBAQEBAQEBAQEBAQEBAQEBAQEBAQEBAQEBAQEBARgYGBgYGBgYGBgYGBgYGBgYGBgYGBgYGBgYGBgYGBgYGBgYGBgYGBgYGBgYGBgYGBgYGBgYGBgYGBgYGBgYGBg
        AAAAAAAAAAAAAAAAAAAAAAAAAAAAAAAAAAAAAAAAAAAAAAAAAAAAAAAAAAAAAAAAAAAAAAAAAAAAAAAAAAAAAAAAAAAAAAAAAAAAAAAAAAAAAAAAAAAAAAAAAAAAAAAA
        AAAAAAAAAAAAAAAAAAAAAAAAAAAAAAAAAAAAAAAAAABCYXNzIDFrIFNpbXBsZSAwMgC+X/9/AACwyIQQAQAAAAQ6vl//fwAA9HAGEgEAAAAOBEgDAQAAfwB/AEAAAQAB
        AAAAAAAAAAAAfwAAAAAAAAAAAAAAAAAAAAAAAAAAAAAAAAAAAAAAAAAAAAAAAAAAAAAAAAAAAAAAAAAAAAAAAAAAAAAAAAAAAAAAAAAAAAAAAAAAAAAAAAAAAAAAAAAA
        AAAAAAAAAAAAAAAAAAAAAAAAAAAAAAAAAAAAAAAAAAAAAAAAAAAAAAAEBAgICAgICAgICAgICAgICAgICAgICAgICAgICAgICAgICAgICAgICAgICAgICAgICAgICAgI
        CAgICAgICAgIAQIBAgEBAQEBAQEBAQEBAQEBAQEBAQEBAQEBAQEBAQEBAQEBAQEBAQEBAQEBAQEBAQEBAQEBAQEBAQEBAQEBAQQEBAQEBAQEBAQEBAQEBAQEBAQEBAQE
        BAQEBAQEBAQEBAQEBAQEBAQEBAQEBAQEBAQEBAQEBAQEBAQEBAQEBARgYGBgYGBgYGBgYGBgYGBgYGBgYGBgYGBgYGBgYGBgYGBgYGBgYGBgYGBgYGBgYGBgYGBgYGBg
        YGBgYGBgYGBgAAAAAAAAAAAAAAAAAAAAAAAAAAAAAAAAAAAAAAAAAAAAAAAAAAAAAAAAAAAAAAAAAAAAAAAAAAAAAAAAAAAAAAAAAAAAAAAAAAAAAAAAAAAAAAAAAAAA
        AAAAAAAAAAAAAAAAAAAAAAAAAAAAAAAAAAAAAAAAAAAAAAAAAAAAAABCYXNzIDFrIFNpbXBsZSAwMwC+X/9/AACwyIQQAQAAAAQ6vl//fwAA9HAGEgEAAAAOBEgDAQAA
        fwB/AEAAAQABAAAAAAAAAAAAfwAAAAAAAAAAAAAAAAAAAAAAAAAAAAAAAAAAAAAAAAAAAAAAAAAAAAAAAAAAAAAAAAAAAAAAAAAAAAAAAAAAAAAAAAAAAAAAAAAAAAAA
        AAAAAAAAAAAAAAAAAAAAAAAAAAAAAAAAAAAAAAAAAAAAAAAAAAAAAAAAAAAAAAAAAAAICAgICAgICAgICAgICAgICAgICAgICAgICAgICAgICAgICAgICAgICAgICAgI
        CAgICAgICAgICAgICAgICAgIAAABAAEBAQEBAQEBAQEBAQEBAQEBAQEBAQEBAQEBAQEBAQEBAQEBAQEBAQEBAQEBAQEBAQEBAQEBAQEBAQEBAQQEBAQEBAQEBAQEBAQE
        BAQEBAQEBAQEBAQEBAQEBAQEBAQEBAQEBAQEBAQEBAQEBAQEBAQEBAQEBAQEBAQEBARgYGBgYGBgYGBgYGBgYGBgYGBgYGBgYGBgYGBgYGBgYGBgYGBgYGBgYGBgYGBg
        YGBgYGBgYGBgYGBgYGBgYGBgAAAAAAAAAAAAAAAAAAAAAAAAAAAAAAAAAAAAAAAAAAAAAAAAAAAAAAAAAAAAAAAAAAAAAAAAAAAAAAAAAAAAAAAAAAAAAAAAAAAAAAAA
        AAAAAAAAAAAAAAAAAAAAAAAAAAAAAAAAAAAAAAAAAAAAAAAAAAAAAAAAAAAAAAAAAABCYXNzIDFrIFNpbXBsZSAwNAC+X/9/AACwyIQQAQAAAAQ6vl//fwAA9HAGEgEA
        AAAOCGQDAQAAfwB/AEAAAQABAAAAAAAAAAAAfwAAAAAAAAAAAAAAAAAAAAAAAAAAAAAAAAAAAAAAAAAAAAAAAAAAAAAAAAAAAAAAAAAAAAAAAAAAAAAAAAAAAAAAAAAA
        AAAAAAAAAAAAAAAAAAAAAAAAAAAAAAAAAAAAAAAAAAAAAAAAAAAAAAAAAAAAAAAAAAAAAAAAAAAAAAAICAgICAgICAgICAgICAgICAgICAgICAgICAgICAgICAgICAgI
        CAgICAgICAgICAgICAgICAgICAgICAgICAgIAAAAAQAAAQIAAAABAAABAgEBAQEBAQEBAQEBAQEBAQEBAQEBAQEBAQEBAQEBAQEBAQEBAQEBAQEBAQEBAQEBAQQEBAQE
        BAQEBAQEBAQEBAQEBAQEBAQEBAQEBAQEBAQEBAQEBAQEBAQEBAQEBAQEBAQEBAQEBAQEBAQEBAQEBARgYGBgYGBgYGBgYGBgYGBgYGBgYGBgYGBgYGBgYGBgYGBgYGBg
        YGBgYGBgYGBgYGBgYGBgYGBgYGBgYGBgYGBgAAAAAAAAAAAAAAAAAAAAAAAAAAAAAAAAAAAAAAAAAAAAAAAAAAAAAAAAAAAAAAAAAAAAAAAAAAAAAAAAAAAAAAAAAAAA
        AAAAAAAAAAAAAAAAAAAAAAAAAAAAAAAAAAAAAAAAAAAAAAAAAAAAAAAAAAAAAAAAAAAAAAAAAAAAAABCYXNzIDFrIERyaWZ0IG9mZmJlYXQAAACwyIQQAQAAAAQ6vl//
        fwAA9HAGEgEAAAAOCF8DAQAAfwB/AEAAAQABAAAAAAAAAAAAfwAAAAAAAAAAAAAAAAAAAAAAAAAAAAAAAAAAAAAAAAAAAAAAAAAAAAAAAAAAAAAAAAAAAAAAAAAAAAAA
        AAAAAAAAAAAAAAAAAAAAAAAAAAAAAAAAAAAAAAAAAAAAAAAAAAAAAAAAAAAAAAAAAAAAAAAAAAAAAAAAAAAAAAAAAAAICAgICAgICAgICAgICAgICAgICAgICAgICAgI
        CAgICAgICAgICAgICAgICAgICAgICAgICAgICAgICAgICAgIAAEAAQAAAQIBAQEBAQEBAQEBAQEBAQEBAQEBAQEBAQEBAQEBAQEBAQEBAQEBAQEBAQEBAQEBAQEBAQEB
        AQEBAQQEBAQEBAQEBAQEBAQEBAQEBAQEBAQEBAQEBAQEBAQEBAQEBAQEBAQEBAQEBAQEBAQEBAQEBAQEBAQEBAQEBARgYGBgYGBgYGBgYGBgYGBgQEBAQEBAQEBAQEBA
        QEBAQEBAQEBAQEBAQEBAQEBAQEBAQEBAQEBAQEBAQEBAQEBAAAAAAAAAAAAAAAAAAAAAAAAAAAAAAAAAAAAAAAAAAAAAAAAAAAAAAAAAAAAAAAAAAAAAAAAAAAAAAAAA
        AAAAAAAAAAAAAAAAAAAAAAAAAAAAAAAAAAAAAAAAAAAAAAAAAAAAAAAAAAAAAAAAAAAAAAAAAAAAAAAAAAAAAAAAAABCYXNzIDFrIFRyaXBsZSBkcmlmdCBvZmZiZWF0
        AAAAAAQ6vl//fwAA9HAGEgEAAAAOEEgDAQAAfwB/AEAAAQABAAAAAAAAAAAAfwAAAAAAAAAAAAAAAAAAAAAAAAAAAAAAAAAAAAAAAAAAAAAAAAAAAAAAAAAAAAAAAAAA
        AAAAAAAAAAAAAAAAAAAAAAAAAAAAAAAAAAAAAAAAAAAAAAAAAAAAAAAAAAAAAAAAAAAAAAAAAAAAAAAAAAAAAAAAAAAAAAAAAAAAAAAICAgICAgICAgICAgICAgICAgI
        CAgICAgICAgICAgICAgICAgICAgICAgICAgICAgICAgICAgICAgICAgICAgIAQEAAQEAAQEAAQEAAQABAAEBAQEBAQEBAQEBAQEBAQEBAQEBAQEBAQEBAQEBAQEBAQEB
        AQEBAQEBAQEBAQEBAQQEBAQEBAQEBAQEBAQEBAQEBAQEBAQEBAQEBAQEBAQEBAQEBAQEBAQEBAQEBAQEBAQEBAQEBAQEBAQEBAQEBARgYGBgYGBgYGBgYGBgYGBgYGBg
        YGBgYGBgYGBgYGBgYGBgYGBgYGBgYGBgYGBgYGBgYGBgYGBgYGBgYGBgYGBgAAAAAAAAAAAAAAAAAAAAAAAAAAAAAAAAAAAAAAAAAAAAAAAAAAAAAAAAAAAAAAAAAAAA
        AAAAAAAAAAAAAAAAAAAAAAAAAAAAAAAAAAAAAAAAAAAAAAAAAAAAAAAAAAAAAAAAAAAAAAAAAAAAAAAAAAAAAAAAAAAAAAAAAAAAAABCYXNzIDFrIFRlY2hubyAwMQC+
        X/9/AACwyIQQAQAAAAQ6vl//fwAA9HAGEgEAAAAOIEgDAQAAfwB/AEAAAQABAAAAAAAAAAAAfwAAAAAAAAAAAAAAAAAAAAAAAAAAAAAAAAAAAAAAAAAAAAAAAAAAAAAA
        AAAAAAAAAAAAAAAAAAAAAAAAAAAAAAAAAAAAAAAAAAAAAAAAAAAAAAAAAAAAAAAAAAAAAAAAAAAAAAAAAAAAAAAAAAAAAAAAAAAAAAAAAAAAAAAAAAAICAgICAgICAgI
        CAgICAgICAgICAgICAgICAgICAgICAgICAgICAgICAgICAgICAgICAgICAgICAgICAgICAgIAAABAAAAAQAAAAEAAAABAAAAAQAAAAEAAAABAAABAAEBAQEBAQEBAQEB
        AQEBAQEBAQEBAQEBAQEBAQEBAQEBAQQEBAQEBAQEBAQEBAQEBAQEBAQEBAQEBAQEBAQEBAQEBAQEBAQEBAQEBAQEBAQEBAQEBAQEBAQEBAQEBAQEBARgYGBgYGBgYGBg
        YGBgYGBgYGBgYGBgYGBgYGBgYGBgYGBgYGBgYGBgYGBgYGBgYGBgYGBgYGBgYGBgYGBgYGBgAAAAAAAAAAAAAAAAAAAAAAAAAAAAAAAAAAAAAAAAAAAAAAAAAAAAAAAA
        AAAAAAAAAAAAAAAAAAAAAAAAAAAAAAAAAAAAAAAAAAAAAAAAAAAAAAAAAAAAAAAAAAAAAAAAAAAAAAAAAAAAAAAAAAAAAAAAAAAAAAAAAAAAAAAAAABCYXNzIDFrIFRl
        Y2hubyAwMiAoMzIgc3RlcHMpAAAAAAQ6vl//fwAA9HAGEgEAAAAOEE8DAQQAfwB/AEAAAQABAAAAAAAAAAAAfwAAAAAAAAAAAAAAAAAAAAAAAAAAAAAAAAAAAAAAAAAA
        AAAAAAAAAAAAAAAAAAAAAAAAAAAAAAAAAAAAAAAAAAAAAAAAAAAAAAAAAAAAAAAAAAAAAAAAAAAAAAAAAAAAAAAAAAAAAAAAAAAAAAAAAAAAAAAAAAAAAAAAAAAAAAAI
        CAgICAgICAgICAgICAgICAgICAgICAgICAgICAgICAgICAgICAgICAgICAgICAgICAgICAgICAgICAgICAgIAQEBAQEAAQABAAEAAQABAAEBAQEBAQEBAQEBAQEBAQEB
        AQEBAQEBAQEBAQEBAQEBAQEBAQEBAQEBAQEBAQEBAQQEBAQEBAQEBAQEBAQECAQEBAQEBAQEBAQEBAQEBAQEBAQEBAQEBAQEBAQEBAQEBAQEBAQEBAQEBAQEBAQEBARg
        YGBgYGBgYGBgYGBgYGBgYGBgYGBgYGBgYGBgYGBgYGBgYGBgYGBgYGBgYGBgYGBgYGBgYGBgYGBgYGBgYGBgAAAAAAAAAAAAAAAAAAAAAAAAAAAAAAAAAAAAAAAAAAAA
        AAAAAAAAAAAAAAAAAAAAAAAAAAAAAAAAAAAAAAAAAAAAAAAAAAAAAAAAAAAAAAAAAAAAAAAAAAAAAAAAAAAAAAAAAAAAAAAAAAAAAAAAAAAAAAAAAAAAAAAAAAAAAABC
        YXNzIDJrIFRlY2hubyAwMwC+X/9/AACwyIQQAQAAAAQ6vl//fwAA9HAGEgEAAAAOEEQDAQQAfwB/AEAAAQABAAAAAAAAAAAAfwAAAAAAAAAAAAAAAAAAAAAAAAAAAAAA
        AAAAAAAAAAAAAAAAAAAAAAAAAAAAAAAAAAAAAAAAAAAAAAAAAAAAAAAAAAAAAAAAAAAAAAAAAAAAAAAAAAAAAAAAAAAAAAAAAAAAAAAAAAAAAAAAAAAAAAAAAAAAAAAA
        AAAAAAAAAAAICAgICAgICAgICBAICAgICAgICAgICAgICAgICAgICAgICAgICAgICAgICAgICAgICAgICAgICAgICAgICAgIAQABAAAAAQAAAQIBAQIAAAEBAQEBAQEB
        AQEBAQEBAQEBAQEBAQEBAQEBAQEBAQEBAQEBAQEBAQEBAQEBAQEBAQQEBAQEBAQEBAQEBAQEBAQEBAQEBAQEBAQEBAQEBAQEBAQEBAQEBAQEBAQEBAQEBAQEBAQEBAQE
        BAQEBAQEBARgYGBgYGBgYGBgYGBgYGBgYGBgYGBgYGBgYGBgYGBgYGBgYGBgYGBgYGBgYGBgYGBgYGBgYGBgYGBgYGBgYGBgAAAAAAAAAAAAAAAAAAAAAAAAAAAAAAAA
        AAAAAAAAAAAAAAAAAAAAAAAAAAAAAAAAAAAAAAAAAAAAAAAAAAAAAAAAAAAAAAAAAAAAAAAAAAAAAAAAAAAAAAAAAAAAAAAAAAAAAAAAAAAAAAAAAAAAAAAAAAAAAAAA
        AAAAAAAAAABCYXNzIDNrIENvbXBsZXggMS0xAP9/AACwyIQQAQAAAAQ6vl//fwAA9HAGEgEAAAAODEUEAQQAfwB/AEAAAQABAAAAAAAAAAAAfwAAAAAAAAAAAAAAAAAA
        AAAAAAAAAAAAAAAAAAAAAAAAAAAAAAAAAAAAAAAAAAAAAAAAAAAAAAAAAAAAAAAAAAAAAAAAAAAAAAAAAAAAAAAAAAAAAAAAAAAAAAAAAAAAAAAAAAAAAAAAAAAAAAAA
        AAAAAAAAAAAAAAAAAAAAAAAICAgICAgICAgICAgICAgICAgICAgICAgICAgICAgICAgICAgICAgICAgICAgICAgICAgICAgICAgICAgICAgIAQIBAgECAQIBAgECAQEB
        AQEBAQEBAQEBAQEBAQEBAQEBAQEBAQEBAQEBAQEBAQEBAQEBAQEBAQEBAQEBAQEBAQgICAgICBAQEBAQEAQEBAQEBAQEBAQEBAQEBAQEBAQEBAQEBAQEBAQEBAQEBAQE
        BAQEBAQEBAQEBAQEBAQEBARgYGBgYGBgYGBgYGBgYGBgYGBgYGBgYGBgYGBgYGBgYGBgYGBgYGBgYGBgYGBgYGBgYGBgYGBgYGBgYGBgYGBgAAAAAAAAAAAAAAAAAAAA
        AAAAAAAAAAAAAAAAAAAAAAAAAAAAAAAAAAAAAAAAAAAAAAAAAAAAAAAAAAAAAAAAAAAAAAAAAAAAAAAAAAAAAAAAAAAAAAAAAAAAAAAAAAAAAAAAAAAAAAAAAAAAAAAA
        AAAAAAAAAAAAAAAAAAAAAABCYXNzIDNrIENvbXBsZXggMS0yAP9/AACwyIQQAQAAAAQ6vl//fwAA9HAGEgEAAAAODE0EAQQAfwB/AEAAAQABAAAAAAAAAAAAfwAAAAAA
        AAAAAAAAAAAAAAAAAAAAAAAAAAAAAAAAAAAAAAAAAAAAAAAAAAAAAAAAAAAAAAAAAAAAAAAAAAAAAAAAAAAAAAAAAAAAAAAAAAAAAAAAAAAAAAAAAAAAAAAAAAAAAAAA
        AAAAAAAAAAAAAAAAAAAAAAAAAAAAAAAAAAAICAgICAgICAgICAgICAgICAgICAgICAgICAgICAgICAgICAgICAgICAgICAgICAgICAgICAgICAgICAgICAgIAQEBAQEB
        AQEBAQEBAQEBAQEBAQEBAQEBAQEBAQEBAQEBAQEBAQEBAQEBAQEBAQEBAQEBAQEBAQEBAQEBAQEBAQgICAgICBAQEBAQEAQEBAQEBAQEBAQEBAQEBAQEBAQEBAQEBAQE
        BAQEBAQEBAQEBAQEBAQEBAQEBAQEBAQEBARgYGBgYGBgYGBgYGBgYGBgYGBgYGBgYGBgYGBgYGBgYGBgYGBgYGBgYGBgYGBgYGBgYGBgYGBgYGBgYGBgYGBgAAAAAAAA
        AAAAAAAAAAAAAAAAAAAAAAAAAAAAAAAAAAAAAAAAAAAAAAAAAAAAAAAAAAAAAAAAAAAAAAAAAAAAAAAAAAAAAAAAAAAAAAAAAAAAAAAAAAAAAAAAAAAAAAAAAAAAAAAA
        AAAAAAAAAAAAAAAAAAAAAAAAAAAAAAAAAABCYXNzIDNrIENvbXBsZXggMS0zAP9/AACwyIQQAQAAAAQ6vl//fwAA9HAGEgEAAAAOCE0DAQAAfwB/AEAAAQABAAAAAAAA
        AAAAfwAAAAAAAAAAAAAAAAAAAAAAAAAAAAAAAAAAAAAAAAAAAAAAAAAAAAAAAAAAAAAAAAAAAAAAAAAAAAAAAAAAAAAAAAAAAAAAAAAAAAAAAAAAAAAAAAAAAAAAAAAA
        AAAAAAAAAAAAAAAAAAAAAAAAAAAAAAAAAAAAAAAAAAAAAAAICAgICAgICAgICAgICAgICAgICAgICAgICAgICAgICAgICAgICAgICAgICAgICAgICAgICAgICAgICAgI
        CAgIAAABAQAAAQABAQEBAQEBAQEBAQEBAQEBAQEBAQEBAQEBAQEBAQEBAQEBAQEBAQEBAQEBAQEBAQEBAQEBAQEBAQQEBAQEBAQEBAQEBAQEBAQEBAQEBAQEBAQEBAQE
        BAQEBAQEBAQEBAQEBAQEBAQEBAQEBAQEBAQEBAQEBAQEBARgYGBgYGBgYGBgYGBgYGBgYGBgYGBgYGBgYGBgYGBgYGBgYGBgYGBgYGBgYGBgYGBgYGBgYGBgYGBgYGBg
        YGBgAAAAAAAAAAAAAAAAAAAAAAAAAAAAAAAAAAAAAAAAAAAAAAAAAAAAAAAAAAAAAAAAAAAAAAAAAAAAAAAAAAAAAAAAAAAAAAAAAAAAAAAAAAAAAAAAAAAAAAAAAAAA
        AAAAAAAAAAAAAAAAAAAAAAAAAAAAAAAAAAAAAAAAAAAAAABCYXNzIDFrIFRyYW5jZSAwMQC+X/9/AACwyIQQAQAAAAQ6vl//fwAA9HAGEgEAAAAOCEMDAQAAfwB/AEAA
        AQABAAAAAAAAAAAAfwAAAAAAAAAAAAAAAAAAAAAAAAAAAAAAAAAAAAAAAAAAAAAAAAAAAAAAAAAAAAAAAAAAAAAAAAAAAAAAAAAAAAAAAAAAAAAAAAAAAAAAAAAAAAAA
        AAAAAAAAAAAAAAAAAAAAAAAAAAAAAAAAAAAAAAAAAAAAAAAAAAAAAAAAAAAIEAgQCAgQCAgICAgICAgICAgICAgICAgICAgICAgICAgICAgICAgICAgICAgICAgICAgI
        CAgICAgICAgICAgIAAEBAQABAQEBAQEBAQEBAQEBAQEBAQEBAQEBAQEBAQEBAQEBAQEBAQEBAQEBAQEBAQEBAQEBAQEBAQEBAQEBAQQEBAQEBAQEBAQEBAQEBAQEBAQE
        BAQEBAQEBAQEBAQEBAQEBAQEBAQEBAQEBAQEBAQEBAQEBAQEBAQEBAQEBARgYGBgYGBgYGBgYGBgYGBgYGBgYGBgYGBgYGBgYGBgYGBgYGBgYGBgYGBgYGBgYGBgYGBg
        YGBgYGBgYGBgYGBgAAAAAAAAAAAAAAAAAAAAAAAAAAAAAAAAAAAAAAAAAAAAAAAAAAAAAAAAAAAAAAAAAAAAAAAAAAAAAAAAAAAAAAAAAAAAAAAAAAAAAAAAAAAAAAAA
        AAAAAAAAAAAAAAAAAAAAAAAAAAAAAAAAAAAAAAAAAAAAAAAAAAAAAAAAAABCYXNzIDFrIFRyYW5jZSAwMgC+X/9/AACwyIQQAQAAAAQ6vl//fwAA9HAGEgEAAAAOEDID
        AQEAfwB/AkAAAQABAAAAAAAAAAAAfwAAAAAAAAAAAAAAAAAAAAAAAAAAAAAAAAAAAAAAAAAAAAAAAAAAAAAAAAAAAAAAAAAAAAAAAAAAAAAAAAAAAAAAAAAAAAAAAAAA
        AAAAAAAAAAAAAAAAAAAAAAAAAAAAAAAAAAAAAAAAAAAAAAAAAAAAAAAAAAAAAAAAAAAAAAAQCBAQCAgQCBAIEBAICBAICAgICAgICAgICAgICAgICAgICAgICAgICAgI
        CAgICAgICAgICAgICAgICAgICAgIAQIBAQECAQEBAgEBAQIBAQEBAQEBAQEBAQEBAQEBAQEBAQEBAQEBAQEBAQEBAQEBAQEBAQEBAQEBAQEBAQEBAQgEBAQEBAQEBAQE
        BAQEBAQEBAQEBAQEBAQEBAQEBAQEBAQEBAQEBAQEBAQEBAQEBAQEBAQEBAQEBAQEBAQEBARgYGBgYGBgYGBgYGBgYGBgYGBgYGBgYGBgYGBgYGBgYGBgYGBgYGBgYGBg
        YGBgYGBgYGBgYGBgYGBgYGBgYGBgAAAAAAAAAAAAAAAAAAAAAAAAAAAAAAAAAAAAAAAAAAAAAAAAAAAAAAAAAAAAAAAAAAAAAAAAAAAAAAAAAAAAAAAAAAAAAAAAAAAA
        AAAAAAAAAAAAAAAAAAAAAAAAAAAAAAAAAAAAAAAAAAAAAAAAAAAAAAAAAAAAAAAAAAAAAABCYXNzIDJrIFRyYW5jZSAwMwC+X/9/AACwyIQQAQAAAAQ6vl//fwAA9HAG
        EgEAAAAOEF0DAQQAfwB/AkAAAQABAAAAAAAAAAAAfwAAAAAAAAAAAAAAAAAAAAAAAAAAAAAAAAAAAAAAAAAAAAAAAAAAAAAAAAAAAAAAAAAAAAAAAAAAAAAAAAAAAAAA
        AAAAAAAAAAAAAAAAAAAAAAAAAAAAAAAAAAAAAAAAAAAAAAAAAAAAAAAAAAAAAAAAAAAAAAAAAAAAAAAAAAAICAgICAgICAgICAgICAgICAgICAgICAgICAgICAgICAgI
        CAgICAgICAgICAgICAgICAgICAgICAgICAgICAgIAQABAAEAAQABAAEAAQABAAEBAQEBAQEBAQEBAQEBAQEBAQEBAQEBAQEBAQEBAQEBAQEBAQEBAQEBAQEBAQEBAQQE
        BAQEBAQEBAQEBAgEBAQEBAQEBAQEBAQEBAQEBAQEBAQEBAQEBAQEBAQEBAQEBAQEBAQEBAQEBAQEBAQEBARgYGBgYGBgYGBgYGBgYGBgYGBgYGBgYGBgYGBgYGBgYGBg
        YGBgYGBgYGBgYGBgYGBgYGBgYGBgYGBgYGBgYGBgAAAAAAAAAAAAAAAAAAAAAAAAAAAAAAAAAAAAAAAAAAAAAAAAAAAAAAAAAAAAAAAAAAAAAAAAAAAAAAAAAAAAAAAA
        AAAAAAAAAAAAAAAAAAAAAAAAAAAAAAAAAAAAAAAAAAAAAAAAAAAAAAAAAAAAAAAAAAAAAAAAAAAAAAAAAABCYXNzIDJrIERNIFF1ZXN0aW9uIG9mIHRpbWUAAQAAAAQ6
        vl//fwAA9HAGEgEAAAAOEFEDAQAAfwB/AEAAAQABAAAAAAAAAAAAfwAAAAAAAAAAAAAAAAAAAAAAAAAAAAAAAAAAAAAAAAAAAAAAAAAAAAAAAAAAAAAAAAAAAAAAAAAA
        AAAAAAAAAAAAAAAAAAAAAAAAAAAAAAAAAAAAAAAAAAAAAAAAAAAAAAAAAAAAAAAAAAAAAAAAAAAAAAAAAAAAAAAAAAAAAAAIEAgQEBAQCBAQCBAQEAgQCAgICAgICAgI
        CAgICAgICAgICAgICAgICAgICAgICAgICAgICAgICAgICAgICAgIAQABAAECAAEAAAEAAQIBAAEBAQEBAQEBAQEBAQEBAQEBAQEBAQEBAQEBAQEBAQEBAQEBAQEBAQEB
        AQEBAQEBAQQEBAQEBAQEBAQEBAQEBAQEBAQEBAQEBAQEBAQEBAQEBAQEBAQEBAQEBAQEBAQEBAQEBAQEBAQEBAQEBAQEBARgYGBgYGBgYGBgYGBgYGBgYGBgYGBgYGBg
        YGBgYGBgYGBgYGBgYGBgYGBgYGBgYGBgYGBgYGBgYGBgYGBgYGBgAAAAAAAAAAAAAAAAAAAAAAAAAAAAAAAAAAAAAAAAAAAAAAAAAAAAAAAAAAAAAAAAAAAAAAAAAAAA
        AAAAAAAAAAAAAAAAAAAAAAAAAAAAAAAAAAAAAAAAAAAAAAAAAAAAAAAAAAAAAAAAAAAAAAAAAAAAAAAAAAAAAAAAAAAAAABCYXNzIDFrIEJlbmFzc2kgLSBJbGx1c2lv
        bgAQAQAAAAQ6vl//fwAA9HAGEgEAAAAOEFQDAQAAfwB/AEAAAQABAAAAAAAAAAAAfwAAAAAAAAAAAAAAAAAAAAAAAAAAAAAAAAAAAAAAAAAAAAAAAAAAAAAAAAAAAAAA
        AAAAAAAAAAAAAAAAAAAAAAAAAAAAAAAAAAAAAAAAAAAAAAAAAAAAAAAAAAAAAAAAAAAAAAAAAAAAAAAAAAAAAAAAAAAAAAAAAAAAAAAAAAAIEAgIEBAIEBAQCBAQEAgQ
        CAgICAgICAgICAgICAgICAgICAgICAgICAgICAgICAgICAgICAgICAgICAgICAgIAQABAQEAAQABAAEAAQABAAEBAQEBAQEBAQEBAQEBAQEBAQEBAQEBAQEBAQEBAQEB
        AQEBAQEBAQEBAQEBAQEBAQQEBAQEBAQEBAQEBAQEBAQEBAQEBAQEBAQEBAQEBAQEBAQEBAQEBAQEBAQEBAQEBAQEBAQEBAQEBAQEBAQEBARgYGBgYGBgYGBgYGBgYGBg
        YGBgYGBgYGBgYGBgYGBgYGBgYGBgYGBgYGBgYGBgYGBgYGBgYGBgYGBgYGBgYGBgAAAAAAAAAAAAAAAAAAAAAAAAAAAAAAAAAAAAAAAAAAAAAAAAAAAAAAAAAAAAAAAA
        AAAAAAAAAAAAAAAAAAAAAAAAAAAAAAAAAAAAAAAAAAAAAAAAAAAAAAAAAAAAAAAAAAAAAAAAAAAAAAAAAAAAAAAAAAAAAAAAAAAAAAAAAABCYXNzIDFrIFF1ZWVuIC0g
        QnJlYWsgZnJlZQAQAQAAAAQ6vl//fwAA9HAGEgEAAAAOIEwDAQAAfwB/AEAAAQABAAAAAAAAAAAAfwAAAAAAAAAAAAAAAAAAAAAAAAAAAAAAAAAAAAAAAAAAAAAAAAAA
        AAAAAAAAAAAAAAAAAAAAAAAAAAAAAAAAAAAAAAAAAAAAAAAAAAAAAAAAAAAAAAAAAAAAAAAAAAAAAAAAAAAAAAAAAAAAAAAAAAAAAAAAAAAAAAAAAAAAAAAICBAICBAI
        CBAICBAICBAICBAgCBAgCBAgCBAgCBAgEAgICAgICAgICAgICAgICAgICAgICAgICAgICAgICAgIAQABAAEBAAEBAAEBAAEBAAEBAQEBAQEBAQEBAQEBAQEBAQEBAQEB
        AQEBAQEBAQEBAQEBAQEBAQEBAQEBAQEBAQQEBAQEBAQEBAQEBAQEBAQEBAQEBAQEBAQEBAQEBAQEBAQEBAQEBAQEBAQEBAQEBAQEBAQEBAQEBAQEBAQEBARgYGBgYGBg
        YGBgYGBgYGBgYGBgYGBgYGBgYGBgYGBgYGBgYGBgYGBgYGBgYGBgYGBgYGBgYGBgYGBgYGBgYGBgAAAAAAAAAAAAAAAAAAAAAAAAAAAAAAAAAAAAAAAAAAAAAAAAAAAA
        AAAAAAAAAAAAAAAAAAAAAAAAAAAAAAAAAAAAAAAAAAAAAAAAAAAAAAAAAAAAAAAAAAAAAAAAAAAAAAAAAAAAAAAAAAAAAAAAAAAAAAAAAAAAAAAAAAAAAABCYXNzIDFr
        IFF1ZWVuIC0gTGl2aW5nIG9uIG15IG93bgA6vl//fwAA9HAGEgEAAAAOEC4DAQAAfwB/AEAAAQABAAAGBAAAAAAAfwAAAAAAAAAAAAAAAAAAAAAAAAAAAAAAAAAAAAAA
        AAAAAAAAAAAAAAAAAAAAAAAAAAAAAAAAAAAAAAAAAAAAAAAAAgAEAAMAAAIDAAMAAwQAAAAAAAAAAAAAAAAAAAAAAAAAAAAAAAAAAAAAAAAAAAAAAAAAAAAAAAAAAAAA
        AAAEAggECAQICAIICAQIBAgICAgICAgICAgICAgICAgICAgICAgICAgICAgICAgICAgICAgICAgICAgICAgICAgIAQABAAEAAQEAAQABAQAAAQEBAQEBAQEBAQEBAQEB
        AQEBAQEBAQEBAQEBAQEBAQEBAQEBAQEBAQEBAQEBAQEBAQQEBAQEBAQEBAQEBAQEBAQEBAQEBAQEBAQEBAQEBAQEBAQEBAQEBAQEBAQEBAQEBAQEBAQEBAQEBAQEBAQE
        BARgYGBgYGBgYGBgYGBgYGBgYGBgYGBgYGBgYGBgYGBgYGBgYGBgYGBgYGBgYGBgYGBgYGBgYGBgYGBgYGBgYGBgAAAAAAAAAAAAAAAAAAAAAAAAAAAAAAAAAAAAAAAA
        AAAAAAAAAAAAAAAAAAAAAAAAAAAAAAAAAAAAAAAAAAAAAAAAAAAAAAAAAAAAAAAAAAAAAAAAAAAAAAAAAAAAAAAAAAAAAAAAAAAAAAAAAAAAAAAAAAAAAAAAAAAAAAAA
        AABTZXEgMWsgRm9yY2VTY2FsZSBFbSAwMQCwyIQQAQAAAAQ6vl//fwAA9HAGEgEAAAAOCEIDAQAAfwB/AEAAAQABAAAGBAAAAAAAfwAAAAAAAAAAAAAAAAAAAAAAAAAA
        AAAAAAAAAAAAAAAAAAAAAAAAAAAAAAAAAAAAAAAAAAAAAAAAAAAAAAAAAAAAAAIAAAQAAAAAAAAAAAAAAAAAAAAAAAAAAAAAAAAAAAAAAAAAAAAAAAAAAAAAAAAAAAAA
        AAAAAAAAAAAAAAAICAQIBAQICAgICAgICAgICAgICAgICAgICAgICAgICAgICAgICAgICAgICAgICAgICAgICAgICAgICAgICAgIAQIBAQEBAQIBAQEBAQEBAQEBAQEB
        AQEBAQEBAQEBAQEBAQEBAQEBAQEBAQEBAQEBAQEBAQEBAQEBAQEBAQEBAQQEBAQEBAQEBAQEBAQEBAQEBAQEBAQEBAQEBAQEBAQEBAQEBAQEBAQEBAQEBAQEBAQEBAQE
        BAQEBAQEBAQEBARgYGBgYGBgYGBgYGBgYGBgYGBgYGBgYGBgYGBgYGBgYGBgYGBgYGBgYGBgYGBgYGBgYGBgYGBgYGBgYGBgYGBgAAAAAAAAAAAAAAAAAAAAAAAAAAAA
        AAAAAAAAAAAAAAAAAAAAAAAAAAAAAAAAAAAAAAAAAAAAAAAAAAAAAAAAAAAAAAAAAAAAAAAAAAAAAAAAAAAAAAAAAAAAAAAAAAAAAAAAAAAAAAAAAAAAAAAAAAAAAAAA
        AAAAAAAAAAAAAABTZXEgMWsgRm9yY2VTY2FsZSBFbSAwMgCwyIQQAQAAAAQ6vl//fwAA9HAGEgEAAAAOEEcDAQAAfwB/AEUAAQABAAAGBAAAAAAAfwAAAAAAAAAAAAAA
        AAAAAAAAAAAAAAAAAAAAAAAAAAAAAAAAAAAAAAAAAAAAAAAAAAAAAAAAAAAAAAAAAAAAAAAAAAIABAAAAAIAAAACAAMAAAAAAAAAAAAAAAAAAAAAAAAAAAAAAAAAAAAA
        AAAAAAAAAAAAAAAAAAAAAAAAAAAICAgICAgICAgICAgICAgICAgICAgICAgICAgICAgICAgICAgICAgICAgICAgICAgICAgICAgICAgICAgICAgIAAEAAQABAAABAQAA
        AQEAAQEBAQEBAQEBAQEBAQEBAQEBAQEBAQEBAQEBAQEBAQEBAQEBAQEBAQEBAQEBAQEBAQQEBAQEBAQEBAQEBAQEBAQEBAQEBAQEBAQEBAQEBAQEBAQEBAQEBAQEBAQE
        BAQEBAQEBAQEBAQEBAQEBAQEBARgYGBgYGBgYGBgYGBgYGBgYGBgYGBgYGBgYGBgYGBgYGBgYGBgYGBgYGBgYGBgYGBgYGBgYGBgYGBgYGBgYGBgAAAAAAAAAAAAAAAA
        AAAAAAAAAAAAAAAAAAAAAAAAAAAAAAAAAAAAAAAAAAAAAAAAAAAAAAAAAAAAAAAAAAAAAAAAAAAAAAAAAAAAAAAAAAAAAAAAAAAAAAAAAAAAAAAAAAAAAAAAAAAAAAAA
        AAAAAAAAAAAAAAAAAAAAAAAAAABTZXEgMWsgRm9yY2VTY2FsZSBFbSAwMwCwyIQQAQAAAAQ6vl//fwAA9HAGEgEAAAAOEGQDAQQAfwB/AEAAAQABAAAGBAAAAAAAfwAA
        AAAAAAAAAAAAAAAAAAAAAAAAAAAAAAAAAAAAAAAAAAAAAAAAAAAAAAAAAAAAAAAAAAAAAAAAAAAAAAAAAAAAAAAGAAAAAAAFAAAEAAAAAAAAAAAAAAAAAAAAAAAAAAAA
        AAAAAAAAAAAAAAAAAAAAAAAAAAAAAAAAAAAAAAAECAQECAQECAQECAQECAQICAgICAgICAgICAgICAgICAgICAgICAgICAgICAgICAgICAgICAgICAgICAgICAgIAQEA
        AQEAAQEAAQEAAQEAAQEBAQEBAQEBAQEBAQEBAQEBAQEBAQEBAQEBAQEBAQEBAQEBAQEBAQEBAQEBAQEBAQQIBAQEBAQIBAQIBAQIBAQEBAQEBAQEBAQEBAQEBAQEBAQE
        BAQEBAQEBAQEBAQEBAQEBAQEBAQEBAQEBAQEBARgYGBgYGBgYGBgYGBgYGBgYGBgYGBgYGBgYGBgYGBgYGBgYGBgYGBgYGBgYGBgYGBgYGBgYGBgYGBgYGBgYGBgAAAA
        AAAAAAAAAAAAAAAAAAAAAAAAAAAAAAAAAAAAAAAAAAAAAAAAAAAAAAAAAAAAAAAAAAAAAAAAAAAAAAAAAAAAAAAAAAAAAAAAAAAAAAAAAAAAAAAAAAAAAAAAAAAAAAAA
        AAAAAAAAAAAAAAAAAAAAAAAAAAAAAAAAAAAAAABTZXEgMmsgRm9yY2VTY2FsZSBFbSAwNCAoRStHKQAAAAQ6vl//fwAA9HAGEgEAAAAOCEMDAQQAfwB/AEAAAQABAAAA
        AAAAAAAAfwAAAAAAAAAAAAAAAAAAAAAAAAAAAAAAAAAAAAAAAAAAAAAAAAAAAAAAAAAAAAAAAAAAAAAAAAAAAAAAAAAAAAAAAAAAAAcAAAAAAAAAAAAAAAAAAAAAAAAA
        AAAAAAAAAAAAAAAAAAAAAAAAAAAAAAAAAAAAAAAAAAAAAAAAAAAICAgIBAQICAgICAgICAgICAgICAgICAgICAgICAgICAgICAgICAgICAgICAgICAgICAgICAgICAgI
        CAgICAgIAQIBAQEBAQIBAQEBAQEBAQEBAQEBAQEBAQEBAQEBAQEBAQEBAQEBAQEBAQEBAQEBAQEBAQEBAQEBAQEBAQEBAQQEBAgEBAQEBAQEBAQEBAQEBAQEBAQEBAQE
        BAQEBAQEBAQEBAQEBAQEBAQEBAQEBAQEBAQEBAQEBAQEBAQEBARgYGBgYGBgYGBgYGBgYGBgYGBgYGBgYGBgYGBgYGBgYGBgYGBgYGBgYGBgYGBgYGBgYGBgYGBgYGBg
        YGBgYGBgAAAAAAAAAAAAAAAAAAAAAAAAAAAAAAAAAAAAAAAAAAAAAAAAAAAAAAAAAAAAAAAAAAAAAAAAAAAAAAAAAAAAAAAAAAAAAAAAAAAAAAAAAAAAAAAAAAAAAAAA
        AAAAAAAAAAAAAAAAAAAAAAAAAAAAAAAAAAAAAAAAAAAAAAAAAABTZXEgMmsgSGFybW9uaWMxIChBK0MvQyMpAIQQAQAAAAQ6vl//fwAA9HAGEgEAAAAOCEMDAQEAfwB/
        AEAAAQABAAAAAAAAAAAAfwAAAAAAAAAAAAAAAAAAAAAAAAAAAAAAAAAAAAAAAAAAAAAAAAAAAAAAAAAAAAAAAAAAAAAAAAAAAAAAAAAAAAAABwUABwUAAAAAAAAAAAAA
        AAAAAAAAAAAAAAAAAAAAAAAAAAAAAAAAAAAAAAAAAAAAAAAAAAAAAAAAAAAAAAAECAgIBAgICAgICAgICAgICAgICAgICAgICAgICAgICAgICAgICAgICAgICAgICAgI
        CAgICAgICAgICAgICAgIAQEBAQEBAQEBAQEBAQEBAQEBAQEBAQEBAQEBAQEBAQEBAQEBAQEBAQEBAQEBAQEBAQEBAQEBAQEBAQEBAQEBAQQIBAgEBAgEBAQEBAQEBAQE
        BAQEBAQEBAQEBAQEBAQEBAQEBAQEBAQEBAQEBAQEBAQEBAQEBAQEBAQEBAQEBARgYGBgYGBgYGBgYGBgYGBgYGBgYGBgYGBgYGBgYGBgYGBgYGBgYGBgYGBgYGBgYGBg
        YGBgYGBgYGBgYGBgYGBgAAAAAAAAAAAAAAAAAAAAAAAAAAAAAAAAAAAAAAAAAAAAAAAAAAAAAAAAAAAAAAAAAAAAAAAAAAAAAAAAAAAAAAAAAAAAAAAAAAAAAAAAAAAA
        AAAAAAAAAAAAAAAAAAAAAAAAAAAAAAAAAAAAAAAAAAAAAAAAAAAAAAAAAAAAAABTZXEgMmsgSGFybW9uaWMyIChBK0MvQyMpAIQQAQAAAAQ6vl//fwAA9HAGEgEAAAAO
        CEcDAQEAfwB/AEAAAQABAAAAAAAAAAAAfwAAAAAAAAAAAAAAAAAAAAAAAAAAAAAAAAAAAAAAAAAAAAAAAAAAAAAAAAAAAAAAAAAAAAAAAAAAAAAAAAAAAAAABwcAAAAH
        AAAAAAAAAAAAAAAAAAAAAAAAAAAAAAAAAAAAAAAAAAAAAAAAAAAAAAAAAAAAAAAAAAAAAAAAAAAECAgICAQICAgICAgICAgICAgICAgICAgICAgICAgICAgICAgICAgI
        CAgICAgICAgICAgICAgICAgICAgICAgIAQEBAQEBAQEBAQEBAQEBAQEBAQEBAQEBAQEBAQEBAQEBAQEBAQEBAQEBAQEBAQEBAQEBAQEBAQEBAQEBAQEBAQQIBAgEBAgE
        BAQEBAQEBAQEBAQEBAQEBAQEBAQEBAQEBAQEBAQEBAQEBAQEBAQEBAQEBAQEBAQEBAQEBAQEBARgYGBgYGBgYGBgYGBgYGBgYGBgYGBgYGBgYGBgYGBgYGBgYGBgYGBg
        YGBgYGBgYGBgYGBgYGBgYGBgYGBgYGBgAAAAAAAAAAAAAAAAAAAAAAAAAAAAAAAAAAAAAAAAAAAAAAAAAAAAAAAAAAAAAAAAAAAAAAAAAAAAAAAAAAAAAAAAAAAAAAAA
        AAAAAAAAAAAAAAAAAAAAAAAAAAAAAAAAAAAAAAAAAAAAAAAAAAAAAAAAAAAAAAAAAAAAAAAAAABTZXEgMmsgSGFybW9uaWMzIChBK0MvQyMpAIQQAQAAAAQ6vl//fwAA
        9HAGEgEAAAAOCEIDAQEAfwB/AEAAAQABAAAAAAAAAAAAfwAAAAAAAAAAAAAAAAAAAAAAAAAAAAAAAAAAAAAAAAAAAAAAAAAAAAAAAAAAAAAAAAAAAAAAAAAAAAAAAAAA
        AAAAAAcAAAAAAAAAAAAAAAAAAAAAAAAAAAAAAAAAAAAAAAAAAAAAAAAAAAAAAAAAAAAAAAAAAAAAAAAAAAAAAAAIBAgIBAgEBAgICAgICAgICAgICAgICAgICAgICAgI
        CAgICAgICAgICAgICAgICAgICAgICAgICAgICAgICAgIAQEBAQEBAQEBAQEBAQEBAQEBAQEBAQEBAQEBAQEBAQEBAQEBAQEBAQEBAQEBAQEBAQEBAQEBAQEBAQEBAQEB
        AQQECAQECAQEBAQEBAQEBAQEBAQEBAQEBAQEBAQEBAQEBAQEBAQEBAQEBAQEBAQEBAQEBAQEBAQEBAQEBAQEBARgYGBgYGBgYGBgYGBgYGBgYGBgYGBgYGBgYGBgYGBg
        YGBgYGBgYGBgYGBgYGBgYGBgYGBgYGBgYGBgYGBgYGBgAAAAAAAAAAAAAAAAAAAAAAAAAAAAAAAAAAAAAAAAAAAAAAAAAAAAAAAAAAAAAAAAAAAAAAAAAAAAAAAAAAAA
        AAAAAAAAAAAAAAAAAAAAAAAAAAAAAAAAAAAAAAAAAAAAAAAAAAAAAAAAAAAAAAAAAAAAAAAAAAAAAAAAAAAAAABTZXEgMmsgSGFybW9uaWM0IChBK0MvQyMpAIQQAQAA
        AAQ6vl//fwAA9HAGEgEAAAAOID0DAQAAfwB/AEAAAQABAAAAAAAAAAAAfwAAAAAAAAAAAAAAAAAAAAAAAAAAAAAAAAAAAAAAAAAAAAAAAAAAAAAAAAAAAAAAAAAAAAAA
        AAAAAAAAAAAAAAAA/v4AAP7+AAAAAAAAAAAAAP7+AAD+/gAAAAAAAAAAAAAAAAAAAAAAAAAAAAAAAAAAAAAAAAAAAAAAAAAAAAAICAgICAgICAgICAgICAgICAgICAgI
        CAgICAQEBAgEBAgICAgICAgICAgICAgICAgICAgICAgICAgICAgICAgIAQEBAQEBAQEBAQAAAQEAAAEBAQEBAQEBAQEBAQEBAAABAQEBAQEBAQEBAQEBAQEBAQEBAQEB
        AQEBAQEBAQEBAQQEBAQEBAQEBAQEBAgIBAQEBAQEBAQEBAQEBAQEBAQEBAQEBAQEBAQEBAQEBAQEBAQEBAQEBAQEBAQEBAQEBARgYGBgYGBgYGBgYGBgYGBgYGBgYGBg
        YGBgYGBgYGBgYGBgYGBgYGBgYGBgYGBgYGBgYGBgYGBgYGBgYGBgYGBgAAAAAAAAAAAAAAAAAAAAAAAAAAAAAAAAAAAAAAAAAAAAAAAAAAAAAAAAAAAAAAAAAAAAAAAA
        AAAAAAAAAAAAAAAAAAAAAAAAAAAAAAAAAAAAAAAAAAAAAAAAAAAAAAAAAAAAAAAAAAAAAAAAAAAAAAAAAAAAAAAAAAAAAAAAAABTZXEgMmsgS3JhZnR3ZXJrMSAoRCtG
        KQCwyIQQAQAAAAQ6vl//fwAA9HAGEgEAAAAOIGQDAQAAfwB/AD4AAQABAAAAAAAAAAAAfwAAAAAAAAAAAAAAAAAAAAAAAAAAAAAAAAAAAAAAAAAAAAAAAAAAAAAAAAAA
        AAAAAAAAAAAAAAAAAAAAAAAAAAAAAAAAAAAAAwAAAAAAAAADAAAABQAKAAcAAAAAAAAAAAAAAAAAAAAAAAAAAAAAAAAAAAAAAAAAAAAAAAAAAAAICAgICAgICAgICAgI
        CAgICAgICAgICAgICAgICAgICAgICAgICAgICAgICAgICAgICAgICAgICAgICAgICAgIAQAAAAEAAQABAAEAAAAAAAEAAAABAAEAAQAAAAAAAAABAQEBAQEBAQEBAQEB
        AQEBAQEBAQEBAQEBAQEBAQEBAQQEBAQEBAQEBAQEBAQEBAQEBAQEBAQEBAQEBAQEBAQEBAQEBAQEBAQEBAQEBAQEBAQEBAQEBAQEBAQEBAQEBARgYGBgYGBgYGBgYGBg
        YGBgYGBgYGBgYGBgYGBgYGBgYGBgYGBgYGBgYGBgYGBgYGBgYGBgYGBgYGBgYGBgYGBgAAAAAAAAAAAAAAAAAAAAAAAAAAAAAAAAAAAAAAAAAAAAAAAAAAAAAAAAAAAA
        AAAAAAAAAAAAAAAAAAAAAAAAAAAAAAAAAAAAAAAAAAAAAAAAAAAAAAAAAAAAAAAAAAAAAAAAAAAAAAAAAAAAAAAAAAAAAAAAAAAAAAAAAAAAAABTZXEgMmsgS3JhZnR3
        ZXJrMiAoQSwgQykAyIQQAQAAAAQ6vl//fwAA9HAGEgEAAAAOIGQDAQAAfwB/AEAAAQABAAAAAAAAAAAAfwAAAAAAAAAAAAAAAAAAAAAAAAAAAAAAAAAAAAAAAAAAAAAA
        AAAAAAAAAAAAAAAAAAAAAAAAAAAAAAAAAAAAAAAAAAAAAPsAAAD7AAAAAAAAAAAAAgAAAAAAAAAAAPsAAAAAAAAAAAAAAAAAAAAAAAAAAAAAAAAAAAAAAAAAAAAICAgI
        CAgICAgICAgICAgICAgICAgICAgICAgICAgICAgICAgICAgICAgICAgICAgICAgICAgICAgICAgICAgIAQAAAAEAAQABAAEAAAABAAEAAAABAAEAAAAAAAAAAQABAQEB
        AQEBAQEBAQEBAQEBAQEBAQEBAQEBAQEBAQEBAQQEBAQEBAQEBAQEBAQEBAQIBAQEBAQEBAQEBAQEBAQEBAQEBAQEBAQEBAQEBAQEBAQEBAQEBAQEBAQEBAQEBARgYGBg
        YGBgYGBgYGBgYGBgYGBgYGBgYGBgYGBgYGBgYGBgYGBgYGBgYGBgYGBgYGBgYGBgYGBgYGBgYGBgYGBgAAAAAAAAAAAAAAAAAAAAAAAAAAAAAAAAAAAAAAAAAAAAAAAA
        AAAAAAAAAAAAAAAAAAAAAAAAAAAAAAAAAAAAAAAAAAAAAAAAAAAAAAAAAAAAAAAAAAAAAAAAAAAAAAAAAAAAAAAAAAAAAAAAAAAAAAAAAAAAAAAAAAAAAAAAAABTZXEg
        MmsgS3JhZnR3ZXJrMyAoQStDLCBGK0EpAAAAAAQ6vl//fwAA9HAGEgEAAAA=
        AC0gSW5pdGlhbCBwcm9ncmFtIC0AEAAAAA==
      >
      PRESETNAME "- Initial program -"
      FLOATPOS 326 97 810 615
      FXID {007FB9B4-58B7-9343-9460-2E23A6E78A60}
      WAK 0
      BYPASS 0 0 0
      <VST "VSTi: chipsounds (Plogue Art et Technologie, Inc)" chipsounds.vst 0 "" 1347176271
        T0dMUO5e7f4AAAAABAAAAAEAAAAAAAAAAgAAAAAAAAAEAAAAAAAAAAgAAAAAAAAAHwQAAAEAAAAAABAA
        Q0VHUOEaAAB4nO1ZW2/bNhR+z68g9NQ9VCJpXQE7he3Eg4F5DWb3uaBlVhGq20QqS/frR0lWJPlC0fGKdWj4YpH6eHg+niPqO/L4w3McgSeaszBNJhrSoQY+3N6Mp3lI
        1uSJdm7ZEGu3N0C08ZpyHiYBA38WJAr5N3FXA0GUbkn0kEaiO8IaYDynJBawuhuT53U1Mo2i1F/NJpqFxPBqebf8WPBVuqOVFVLwNCZcLLmOUj7RhD/Mn2gYYbO8IhER
        Ywi8B7RcW2d+tB+e04TTfKLZsHFlUyTV6lCHVdOA0fgvTINwV1lPSExLkzp4KHIK5o9hZqyXd4ZtuQi8+32znv+igS1Jvi4FHkHoacB/JElCo2p6VvEVjvOj1bLt55wk
        gbD+Hr0McjHEspTRanZc8PqC/fU5IkzwNfd7XPm5ImHS+PlEooJWEeqT6QPRC/CIdR+IVYEjVaCpCrRUgbYq0FEFuqpATxWIoDJSOTZIOThIOTpIOTxoKD4PJCexUhK1
        yKHVW2R/dUuCdAYeihbZC5LpyYx2dnTQapcUNqXQC3ztph4ayaBOlxa2pdBu8plICu1GFXlSaC/9HCm0u1m2dLOcbgrYrhTaPSKQK80WVzmx3K7VkTRarqcM9aDyvqJR
        NwaOZXnQPp+FLRbhoafLg60X9iC2TRo8iMXKGe5B9dOgIq5s170A611welxAToRg6ATZkDygfC88/DTWH6I0KKheai79t8VHvWA0hx0dUM2aF0woozvCCeDfsjIkeGSL
        ALHwb9ExS+qNVBPr0WQXkvpyJ6aIi6Yt6h8M/93Wp2jUHC8ljX4m0n8Id2kuNOOaspKCzjjNfpawb/IwCGi+FiqeJj7NB2kjB5dvxpq243Vo41O00YGf1dHsLCBeiI24
        d53D+3A0dxaeAmEETWXsKzZtbJS1yWGZgq4rU1BTpuC2TEFX1in4rU55q1P+L3VKnxGybUelovGgVX2iGK5osGPa5xXaK+sUSwp1huJ5RvtbplQk9+IkLZR6gn4k1/7d
        SGEshQ49S69S6a/XyOYFGnlYc35/jTys0/8zjfxjyd4jAXDQ7gfuw1MU32SvlPR1og+Vp7aS6lvsG5yVvVL1IQvOnMXsiMl5JdcoRFu8BCxrao3KvZz/sKOn/T1oc3hq
        9FxTVan3X75Qnx9/Up/G27AM86EsbT7C//pp2UwgPg+f6PLli3/dv2//AaCRWILuNmRbvsy7J1BOGeUrmhQgZA2cV67KUw9w+iwgM8KYUMCEP040Y5plUehXfz4wo54o
        RHSYsbRIdmKkWosZErNGncJAjPtfmVFa14l41LODc/PIa3TS62me0SAICU9bh6Mwu8LhjkWjNHWNd+f2VHgQ05x8h23de58KcL3GgftjQyTV7c3YaP6+ur35B/HSnj0=
        AAAQAAAA
      >
      FLOATPOS 409 269 871 509
      FXID {DC79668B-30D1-964C-A162-F245DBE294B0}
      WAK 0
      BYPASS 1 0 0
      <VST "VST: 8-Bit Shaper (Xfer Records)" 8BitShaper.vst 0 "" 1148539762
        clN1RO5e7f4CAAAAAQAAAAAAAAACAAAAAAAAAAQAAAABAAAAAAAAAAIAAAAAAAAABAAAAAAAAAAIAAAAAAAAADQCAAABAAAAAAAQAA==
        ZmaGP20MlT7dQQw/AAAAPzkA//8AAIA/L1VzZXJzL3MXAAAAMAAAABkAAAAaAAAAGgAAABoAAAAbAAAAGwAAABwAAAAcAAAAHAAAAB0AAAAdAAAAHgAAAB4AAAAfAAAA
        HwAAACAAAAAgAAAAIAAAACEAAAAhAAAAIQAAACIAAAAiAAAAIgAAACMAAAAjAAAAIwAAACQAAAAkAAAAJAAAACUAAAAlAAAAKAAAACgAAAApAAAAKQAAACoAAAA1AAAA
        KgAAACoAAAA2AAAAKgAAACoAAAAqAAAAKgAAACoAAAAqAAAAKgAAACsAAAArAAAAOQAAAC0AAAA0AAAAOgAAAC0AAAAtAAAAPAAAAC4AAAAuAAAALwAAADAAAAAwAAAA
        MQAAADEAAAAxAAAAMgAAADMAAAAzAAAAMwAAADcAAAA3AAAANwAAADgAAAA4AAAAOAAAADkAAAA5AAAAOQAAADoAAAA6AAAAOgAAADoAAAA6AAAAOwAAADsAAAA7AAAA
        PAAAADsAAAA7AAAAOwAAADwAAAA8AAAAPAAAADwAAAA9AAAAPQAAAD0AAAA9AAAAPQAAAD4AAAA+AAAAPwAAAEkAAABAAAAAQAAAAEgAAABAAAAAQQAAAEIAAABCAAAA
        QgAAAEMAAABDAAAAQwAAAEQAAABEAAAARQAAAE0AAABGAAAARwAAAEYAAAA3AAAASAAAAEgAAABJAAAATwAAAAAAgD+rqio/q6qqPqzH+z4dZXE/
        AEluaXQgMQAQAAAA
      >
      PRESETNAME "Init 1"
      FLOAT 466 36 278 389
      FXID {8D41C7C8-FDD9-0B46-8F32-7407BD5E7789}
      WAK 0
    >
    <ITEM
      POSITION 0
      SNAPOFFS 0
      LENGTH 91
      LOOP 1
      ALLTAKES 0
      FADEIN 1 0 0 1 0 0
      FADEOUT 1 0 0 1 0 0
      MUTE 0
      SEL 0
      YPOS 0.5 0.25
      IGUID {D5CFB695-21E1-6546-A6DE-3F72475AB866}
      IID 11
      NAME "Melody               - National_Anthems_-_Chile.mid"
      VOLPAN 1 0 1 -1
      SOFFS 21.5 43
      PLAYRATE 1 1 0 -1 0 0.0025
      CHANMODE 0
      TAKECOLOR 26173599 B
      GUID {9BC3F539-0F87-374F-A9A4-6D429BE41F4E}
      <SOURCE MIDI
        HASDATA 1 192 QN
        POOLEDEVTS {CCD704C5-B034-F549-B55D-C9416746297C}
        <X 0 0
          /wNNZWxvZHkgICAgICAgICAgICAgIA==
        >
        <X 0 0
          /wFUSEUgU09GVFdBUkUgVE9PTFdPUktT
        >
        <X 0 0
          /wFXT1JMRCBBVExBUw==
        >
        <X 0 0
          /wFNdWx0aU1lZGlhIFdpbmRvd3MgVmVyc2lvbg==
        >
        <X 0 0
          /wFDb3VudHJ5OiBDSElMRQ==
        >
        <X 0 0
          /wEocCkgKGMpIFRoZSBTb2Z0d2FyZSBUb29sd29ya3MgMTk5MQ==
        >
        <X 0 0
          /wFyZXZpc2VkIDExLTI2LTkx
        >
        <X 0 0
          /wFlZGl0IGRhdGU6OS0xLTkx
        >
        <X 0 0
          /wFUaGlzIGZpbGUgcHJvdmlkZWQgYnk6
        >
        <X 0 0
          /wFSb2IgV2FsbGFjZSBNdXNpYw==
        >
        <X 0 0
          /wF7NjAyfSA5NzktNjIwMQ==
        >
        <X 0 0
          /wFNVUxUSU1FRElBIFdJTkRPV1MgVkVSU0lPTg==
        >
        e 8256 90 43 7f
        e 128 80 43 40
        e 16 90 48 7f
        e 32 80 48 40
        e 16 90 48 7f
        e 128 80 48 40
        e 16 90 47 7f
        e 32 80 47 40
        e 16 90 47 7f
        e 128 80 47 40
        e 16 90 45 7f
        e 32 80 45 40
        e 16 90 45 7f
        e 128 80 45 40
        e 16 90 43 7f
        e 32 80 43 40
        e 16 90 43 7f
        e 128 80 43 40
        e 16 90 42 7f
        e 32 80 42 40
        e 16 90 43 7f
        e 272 80 43 40
        e 16 90 41 7f
        e 80 80 41 40
        e 16 90 40 7f
        e 176 80 40 40
        e 16 90 3e 7f
        e 128 80 3e 40
        e 16 90 40 7f
        e 32 80 40 40
        e 16 90 41 7f
        e 128 80 41 40
        e 16 90 43 7f
        e 32 80 43 40
        e 16 90 45 7f
        e 48 80 45 40
        e 16 90 43 7f
        e 48 80 43 40
        e 16 90 41 7f
        e 48 80 41 40
        e 16 90 40 7f
        e 128 80 40 40
        e 16 90 41 7f
        e 32 80 41 40
        e 16 90 43 7f
        e 48 80 43 40
        e 16 90 41 7f
        e 48 80 41 40
        e 16 90 40 7f
        e 48 80 40 40
        e 16 90 3e 7f
        e 176 80 3e 40
        e 400 90 43 7f
        e 128 80 43 40
        e 16 90 48 7f
        e 32 80 48 40
        e 16 90 48 7f
        e 128 80 48 40
        e 16 90 47 7f
        e 32 80 47 40
        e 16 90 47 7f
        e 128 80 47 40
        e 16 90 45 7f
        e 32 80 45 40
        e 16 90 45 7f
        e 128 80 45 40
        e 16 90 43 7f
        e 32 80 43 40
        e 16 90 43 7f
        e 128 80 43 40
        e 16 90 42 7f
        e 32 80 42 40
        e 16 90 43 7f
        e 272 80 43 40
        e 16 90 41 7f
        e 80 80 41 40
        e 16 90 40 7f
        e 176 80 40 40
        e 16 90 43 7f
        e 128 80 43 40
        e 16 90 48 7f
        e 32 80 48 40
        e 16 90 47 7f
        e 128 80 47 40
        e 16 90 46 7f
        e 32 80 46 40
        e 16 90 47 7f
        e 128 80 47 40
        e 16 90 48 7f
        e 32 80 48 40
        e 16 90 45 7f
        e 128 80 45 40
        e 16 90 44 7f
        e 32 80 44 40
        e 16 90 45 7f
        e 128 80 45 40
        e 16 90 47 7f
        e 32 80 47 40
        e 16 90 43 7f
        e 368 80 43 40
        e 208 90 43 7f
        e 128 80 43 40
        e 16 90 43 7f
        e 32 80 43 40
        e 16 90 43 7f
        e 176 80 43 40
        e 16 90 43 7f
        e 128 80 43 40
        e 16 90 43 7f
        e 32 80 43 40
        e 16 90 44 7f
        e 80 80 44 40
        e 16 90 43 7f
        e 80 80 43 40
        e 16 90 41 7f
        e 80 80 41 40
        e 16 90 43 7f
        e 80 80 43 40
        e 16 90 44 7f
        e 272 80 44 40
        e 16 90 43 7f
        e 80 80 43 40
        e 16 90 41 7f
        e 176 80 41 40
        e 16 90 44 7f
        e 128 80 44 40
        e 16 90 44 7f
        e 32 80 44 40
        e 16 90 44 7f
        e 176 80 44 40
        e 16 90 44 7f
        e 128 80 44 40
        e 16 90 44 7f
        e 32 80 44 40
        e 16 90 46 7f
        e 80 80 46 40
        e 16 90 44 7f
        e 80 80 44 40
        e 16 90 43 7f
        e 80 80 43 40
        e 16 90 44 7f
        e 80 80 44 40
        e 16 90 46 7f
        e 368 80 46 40
        e 208 90 43 7f
        e 128 80 43 40
        e 16 90 43 7f
        e 32 80 43 40
        e 16 90 48 7f
        e 176 80 48 40
        e 16 90 48 7f
        e 128 80 48 40
        e 16 90 48 7f
        e 32 80 48 40
        e 16 90 48 7f
        e 48 80 48 40
        e 16 90 46 7f
        e 48 80 46 40
        e 16 90 44 7f
        e 48 80 44 40
        e 16 90 44 7f
        e 48 80 44 40
        e 16 90 43 7f
        e 48 80 43 40
        e 16 90 42 7f
        e 48 80 42 40
        e 16 90 43 7f
        e 368 80 43 40
        e 208 90 40 7f
        e 128 80 40 40
        e 16 90 40 7f
        e 32 80 40 40
        e 16 90 40 7f
        e 128 80 40 40
        e 16 90 3e 7f
        e 32 80 3e 40
        e 16 90 40 7f
        e 128 80 40 40
        e 16 90 3e 7f
        e 32 80 3e 40
        e 16 90 40 7f
        e 128 80 40 40
        e 16 90 3e 7f
        e 32 80 3e 40
        e 16 90 40 7f
        e 128 80 40 40
        e 16 90 41 7f
        e 32 80 41 40
        e 16 90 43 7f
        e 176 80 43 40
        e 16 90 45 7f
        e 368 80 45 40
        e 16 90 3e 7f
        e 128 80 3e 40
        e 16 90 3e 7f
        e 32 80 3e 40
        e 16 90 3e 7f
        e 128 80 3e 40
        e 16 90 3c 7f
        e 32 80 3c 40
        e 16 90 3e 7f
        e 128 80 3e 40
        e 16 90 3c 7f
        e 32 80 3c 40
        e 16 90 3e 7f
        e 128 80 3e 40
        e 16 90 40 7f
        e 32 80 40 40
        e 16 90 41 7f
        e 128 80 41 40
        e 16 90 42 7f
        e 32 80 42 40
        e 16 90 45 7f
        e 176 80 45 40
        e 16 90 43 7f
        e 80 80 43 40
        e 112 90 45 7f
        e 80 80 45 40
        e 64 90 47 7f
        e 32 80 47 40
        e 16 90 48 7f
        e 48 80 48 40
        e 16 90 47 7f
        e 48 80 47 40
        e 16 90 45 7f
        e 48 80 45 40
        e 16 90 47 7f
        e 128 80 47 40
        e 16 90 45 7f
        e 32 80 45 40
        e 16 90 43 7f
        e 128 80 43 40
        e 16 90 43 7f
        e 32 80 43 40
        e 16 90 41 7f
        e 128 80 41 40
        e 16 90 43 7f
        e 32 80 43 40
        e 16 90 45 7f
        e 48 80 45 40
        e 16 90 43 7f
        e 48 80 43 40
        e 16 90 41 7f
        e 48 80 41 40
        e 16 90 43 7f
        e 176 80 43 40
        e 16 90 40 7f
        e 176 80 40 40
        e 16 90 45 7f
        e 128 80 45 40
        e 16 90 47 7f
        e 32 80 47 40
        e 16 90 48 7f
        e 48 80 48 40
        e 16 90 47 7f
        e 48 80 47 40
        e 16 90 45 7f
        e 48 80 45 40
        e 16 90 43 7f
        e 128 80 43 40
        e 16 90 48 7f
        e 32 80 48 40
        e 16 90 48 7f
        e 48 80 48 40
        e 16 90 47 7f
        e 48 80 47 40
        e 16 90 45 7f
        e 48 80 45 40
        e 16 90 45 7f
        e 48 80 45 40
        e 16 90 43 7f
        e 48 80 43 40
        e 14 90 41 7f
        e 48 80 41 40
        e 18 90 41 7f
        e 48 80 41 40
        e 16 90 40 7f
        e 48 80 40 40
        e 16 90 3e 7f
        e 48 80 3e 40
        e 16 90 3c 7f
        e 176 80 3c 40
        e 592 90 47 7f
        e 560 80 47 40
        e 16 90 48 7f
        e 176 80 48 40
        e 16 90 4a 7f
        e 368 80 4a 40
        e 16 90 4a 7f
        e 176 80 4a 40
        e 16 90 47 7f
        e 176 80 47 40
        e 16 90 48 7f
        e 368 80 48 40
        e 16 90 48 7f
        e 128 80 48 40
        e 16 90 47 7f
        e 32 80 47 40
        e 16 90 48 7f
        e 128 80 48 40
        e 16 90 4a 7f
        e 32 80 4a 40
        e 16 90 47 7f
        e 176 80 47 40
        e 16 90 47 7f
        e 176 80 47 40
        e 400 90 47 7f
        e 560 80 47 40
        e 16 90 48 7f
        e 176 80 48 40
        e 16 90 4a 7f
        e 368 80 4a 40
        e 16 90 4a 7f
        e 176 80 4a 40
        e 16 90 47 7f
        e 176 80 47 40
        e 16 90 48 7f
        e 368 80 48 40
        e 16 90 48 7f
        e 128 80 48 40
        e 16 90 47 7f
        e 32 80 47 40
        e 16 90 48 7f
        e 128 80 48 40
        e 16 90 4a 7f
        e 32 80 4a 40
        e 16 90 47 7f
        e 176 80 47 40
        e 400 90 40 7f
        e 128 80 40 40
        e 16 90 41 7f
        e 32 80 41 40
        e 16 90 43 7f
        e 176 80 43 40
        e 16 90 43 7f
        e 128 80 43 40
        e 16 90 45 7f
        e 32 80 45 40
        e 16 90 46 7f
        e 176 80 46 40
        e 16 90 46 7f
        e 128 80 46 40
        e 16 90 46 7f
        e 32 80 46 40
        e 16 90 46 7f
        e 176 80 46 40
        e 16 90 45 7f
        e 176 80 45 40
        e 208 90 42 7f
        e 128 80 42 40
        e 16 90 43 7f
        e 32 80 43 40
        e 16 90 45 7f
        e 176 80 45 40
        e 16 90 45 7f
        e 128 80 45 40
        e 16 90 47 7f
        e 32 80 47 40
        e 16 90 48 7f
        e 176 80 48 40
        e 16 90 48 7f
        e 128 80 48 40
        e 16 90 48 7f
        e 32 80 48 40
        e 16 90 47 7f
        e 368 80 47 40
        e 208 90 47 7f
        e 128 80 47 40
        e 16 90 47 7f
        e 32 80 47 40
        e 16 90 47 7f
        e 128 80 47 40
        e 16 90 45 7f
        e 32 80 45 40
        e 16 90 47 7f
        e 128 80 47 40
        e 16 90 45 7f
        e 32 80 45 40
        e 16 90 45 7f
        e 128 80 45 40
        e 16 90 43 7f
        e 32 80 43 40
        e 16 90 45 7f
        e 128 80 45 40
        e 16 90 43 7f
        e 32 80 43 40
        e 16 90 45 7f
        e 272 80 45 40
        e 16 90 43 7f
        e 80 80 43 40
        e 16 90 40 7f
        e 176 80 40 40
        e 16 90 48 7f
        e 128 80 48 40
        e 16 90 47 7f
        e 32 80 47 40
        e 16 90 47 7f
        e 128 80 47 40
        e 16 90 45 7f
        e 32 80 45 40
        e 16 90 47 7f
        e 128 80 47 40
        e 16 90 45 7f
        e 32 80 45 40
        e 16 90 45 7f
        e 128 80 45 40
        e 16 90 43 7f
        e 32 80 43 40
        e 16 90 45 7f
        e 128 80 45 40
        e 16 90 43 7f
        e 32 80 43 40
        e 16 90 40 7f
        e 176 80 40 40
        e 16 90 3c 7f
        e 80 80 3c 40
        e 16 90 3e 7f
        e 80 80 3e 40
        e 16 90 40 7f
        e 80 80 40 40
        e 16 90 41 7f
        e 80 80 41 40
        e 16 90 43 7f
        e 80 80 43 40
        e 16 90 45 7f
        e 80 80 45 40
        e 16 90 46 7f
        e 368 80 46 40
        e 16 90 4a 7f
        e 176 80 4a 40
        e 16 90 49 7f
        e 176 80 49 40
        e 16 90 4a 7f
        e 176 80 4a 40
        e 16 90 4a 7f
        e 176 80 4a 40
        e 208 90 48 7f
        e 128 80 48 40
        e 16 90 48 7f
        e 32 80 48 40
        e 16 90 4c 7f
        e 176 80 4c 40
        e 16 90 48 7f
        e 128 80 48 40
        e 16 90 48 7f
        e 32 80 48 40
        e 16 90 4a 7f
        e 176 80 4a 40
        e 16 90 47 7f
        e 128 80 47 40
        e 16 90 47 7f
        e 32 80 47 40
        e 16 90 48 7f
        e 176 80 48 40
        e 400 90 48 7f
        e 128 80 48 40
        e 16 90 48 7f
        e 30 80 48 40
        e 18 90 48 7f
        e 176 80 48 40
        e 16 90 48 7f
        e 128 80 48 40
        e 16 90 48 7f
        e 32 80 48 40
        e 16 90 4a 7f
        e 176 80 4a 40
        e 16 90 47 7f
        e 128 80 47 40
        e 16 90 47 7f
        e 30 80 47 40
        e 18 90 48 7f
        e 176 80 48 40
        e 400 90 48 7f
        e 128 80 48 40
        e 16 90 48 7f
        e 32 80 48 40
        e 16 90 4c 7f
        e 174 80 4c 40
        e 18 90 48 7f
        e 123 80 48 40
        e 21 90 48 7f
        e 32 80 48 40
        e 16 90 4a 7f
        e 176 80 4a 40
        e 16 90 47 7f
        e 128 80 47 40
        e 16 90 47 7f
        e 32 80 47 40
        e 16 90 48 7f
        e 176 80 48 40
        E 16 b0 7b 00
        GUID {5D8FE9D2-6A75-314F-93C8-19259C2F1655}
        IGNTEMPO 0 120 4 4
        SRCCOLOR 720
        VELLANE -1 86 6
        CFGEDITVIEW 6508.8 8.671329 50 24 0 0 0 0 0 0.5
        KEYSNAP 0
        TRACKSEL 226 0 0 ""
        EVTFILTER 0 -1 -1 -1 -1 0 1 0 0 -1 -1 -1 -1 0 -1 0 -1 -1
        CFGEDIT 1 0 0 0 0 0 1 0 1 1 1 0.25 16 63 1280 778 0 0 2 3 0 0 0 0 0 0.5 0 0 1 64
      >
      TAKE
      NAME "Melody               - National_Anthems_-_Chile.mid"
      TAKEVOLPAN 0 1 -1
      SOFFS 21.5 43
      PLAYRATE 1 1 0 -1 0 0.0025
      CHANMODE 0
      GUID {B2C17238-C34D-1D42-90F5-F5233E918FE9}
      <SOURCE MIDI
        HASDATA 1 192 QN
        POOLEDEVTS {E92A81CD-0AA5-5540-86F3-250B6E2DF1A9}
        <X 0 0
          /wNNZWxvZHkgICAgICAgICAgICAgIA==
        >
        <X 0 0
          /wFUSEUgU09GVFdBUkUgVE9PTFdPUktT
        >
        <X 0 0
          /wFXT1JMRCBBVExBUw==
        >
        <X 0 0
          /wFNdWx0aU1lZGlhIFdpbmRvd3MgVmVyc2lvbg==
        >
        <X 0 0
          /wFDb3VudHJ5OiBDSElMRQ==
        >
        <X 0 0
          /wEocCkgKGMpIFRoZSBTb2Z0d2FyZSBUb29sd29ya3MgMTk5MQ==
        >
        <X 0 0
          /wFyZXZpc2VkIDExLTI2LTkx
        >
        <X 0 0
          /wFlZGl0IGRhdGU6OS0xLTkx
        >
        <X 0 0
          /wFUaGlzIGZpbGUgcHJvdmlkZWQgYnk6
        >
        <X 0 0
          /wFSb2IgV2FsbGFjZSBNdXNpYw==
        >
        <X 0 0
          /wF7NjAyfSA5NzktNjIwMQ==
        >
        <X 0 0
          /wFNVUxUSU1FRElBIFdJTkRPV1MgVkVSU0lPTg==
        >
        e 8256 90 43 7f
        e 128 80 43 40
        e 16 90 48 7f
        e 32 80 48 40
        e 16 90 48 7f
        e 128 80 48 40
        e 16 90 47 7f
        e 32 80 47 40
        e 16 90 47 7f
        e 128 80 47 40
        e 16 90 45 7f
        e 32 80 45 40
        e 16 90 45 7f
        e 128 80 45 40
        e 16 90 43 7f
        e 32 80 43 40
        e 16 90 43 7f
        e 128 80 43 40
        e 16 90 42 7f
        e 32 80 42 40
        e 16 90 43 7f
        e 272 80 43 40
        e 16 90 41 7f
        e 80 80 41 40
        e 16 90 40 7f
        e 176 80 40 40
        e 16 90 3e 7f
        e 128 80 3e 40
        e 16 90 40 7f
        e 32 80 40 40
        e 16 90 41 7f
        e 128 80 41 40
        e 16 90 43 7f
        e 32 80 43 40
        e 16 90 45 7f
        e 48 80 45 40
        e 16 90 43 7f
        e 48 80 43 40
        e 16 90 41 7f
        e 48 80 41 40
        e 16 90 40 7f
        e 128 80 40 40
        e 16 90 41 7f
        e 32 80 41 40
        e 16 90 43 7f
        e 48 80 43 40
        e 16 90 41 7f
        e 48 80 41 40
        e 16 90 40 7f
        e 48 80 40 40
        e 16 90 3e 7f
        e 176 80 3e 40
        e 400 90 43 7f
        e 128 80 43 40
        e 16 90 48 7f
        e 32 80 48 40
        e 16 90 48 7f
        e 128 80 48 40
        e 16 90 47 7f
        e 32 80 47 40
        e 16 90 47 7f
        e 128 80 47 40
        e 16 90 45 7f
        e 32 80 45 40
        e 16 90 45 7f
        e 128 80 45 40
        e 16 90 43 7f
        e 32 80 43 40
        e 16 90 43 7f
        e 128 80 43 40
        e 16 90 42 7f
        e 32 80 42 40
        e 16 90 43 7f
        e 272 80 43 40
        e 16 90 41 7f
        e 80 80 41 40
        e 16 90 40 7f
        e 176 80 40 40
        e 16 90 43 7f
        e 128 80 43 40
        e 16 90 48 7f
        e 32 80 48 40
        e 16 90 47 7f
        e 128 80 47 40
        e 16 90 46 7f
        e 32 80 46 40
        e 16 90 47 7f
        e 128 80 47 40
        e 16 90 48 7f
        e 32 80 48 40
        e 16 90 45 7f
        e 128 80 45 40
        e 16 90 44 7f
        e 32 80 44 40
        e 16 90 45 7f
        e 128 80 45 40
        e 16 90 47 7f
        e 32 80 47 40
        e 16 90 43 7f
        e 368 80 43 40
        e 208 90 43 7f
        e 128 80 43 40
        e 16 90 43 7f
        e 32 80 43 40
        e 16 90 43 7f
        e 176 80 43 40
        e 16 90 43 7f
        e 128 80 43 40
        e 16 90 43 7f
        e 32 80 43 40
        e 16 90 44 7f
        e 80 80 44 40
        e 16 90 43 7f
        e 80 80 43 40
        e 16 90 41 7f
        e 80 80 41 40
        e 16 90 43 7f
        e 80 80 43 40
        e 16 90 44 7f
        e 272 80 44 40
        e 16 90 43 7f
        e 80 80 43 40
        e 16 90 41 7f
        e 176 80 41 40
        e 16 90 44 7f
        e 128 80 44 40
        e 16 90 44 7f
        e 32 80 44 40
        e 16 90 44 7f
        e 176 80 44 40
        e 16 90 44 7f
        e 128 80 44 40
        e 16 90 44 7f
        e 32 80 44 40
        e 16 90 46 7f
        e 80 80 46 40
        e 16 90 44 7f
        e 80 80 44 40
        e 16 90 43 7f
        e 80 80 43 40
        e 16 90 44 7f
        e 80 80 44 40
        e 16 90 46 7f
        e 368 80 46 40
        e 208 90 43 7f
        e 128 80 43 40
        e 16 90 43 7f
        e 32 80 43 40
        e 16 90 48 7f
        e 176 80 48 40
        e 16 90 48 7f
        e 128 80 48 40
        e 16 90 48 7f
        e 32 80 48 40
        e 16 90 48 7f
        e 48 80 48 40
        e 16 90 46 7f
        e 48 80 46 40
        e 16 90 44 7f
        e 48 80 44 40
        e 16 90 44 7f
        e 48 80 44 40
        e 16 90 43 7f
        e 48 80 43 40
        e 16 90 42 7f
        e 48 80 42 40
        e 16 90 43 7f
        e 368 80 43 40
        e 208 90 40 7f
        e 128 80 40 40
        e 16 90 40 7f
        e 32 80 40 40
        e 16 90 40 7f
        e 128 80 40 40
        e 16 90 3e 7f
        e 32 80 3e 40
        e 16 90 40 7f
        e 128 80 40 40
        e 16 90 3e 7f
        e 32 80 3e 40
        e 16 90 40 7f
        e 128 80 40 40
        e 16 90 3e 7f
        e 32 80 3e 40
        e 16 90 40 7f
        e 128 80 40 40
        e 16 90 41 7f
        e 32 80 41 40
        e 16 90 43 7f
        e 176 80 43 40
        e 16 90 45 7f
        e 368 80 45 40
        e 16 90 3e 7f
        e 128 80 3e 40
        e 16 90 3e 7f
        e 32 80 3e 40
        e 16 90 3e 7f
        e 128 80 3e 40
        e 16 90 3c 7f
        e 32 80 3c 40
        e 16 90 3e 7f
        e 128 80 3e 40
        e 16 90 3c 7f
        e 32 80 3c 40
        e 16 90 3e 7f
        e 128 80 3e 40
        e 16 90 40 7f
        e 32 80 40 40
        e 16 90 41 7f
        e 128 80 41 40
        e 16 90 42 7f
        e 32 80 42 40
        e 16 90 45 7f
        e 176 80 45 40
        e 16 90 43 7f
        e 80 80 43 40
        e 112 90 45 7f
        e 80 80 45 40
        e 64 90 47 7f
        e 32 80 47 40
        e 16 90 48 7f
        e 48 80 48 40
        e 16 90 47 7f
        e 48 80 47 40
        e 16 90 45 7f
        e 48 80 45 40
        e 16 90 47 7f
        e 128 80 47 40
        e 16 90 45 7f
        e 32 80 45 40
        e 16 90 43 7f
        e 128 80 43 40
        e 16 90 43 7f
        e 32 80 43 40
        e 16 90 41 7f
        e 128 80 41 40
        e 16 90 43 7f
        e 32 80 43 40
        e 16 90 45 7f
        e 48 80 45 40
        e 16 90 43 7f
        e 48 80 43 40
        e 16 90 41 7f
        e 48 80 41 40
        e 16 90 43 7f
        e 176 80 43 40
        e 16 90 40 7f
        e 176 80 40 40
        e 16 90 45 7f
        e 128 80 45 40
        e 16 90 47 7f
        e 32 80 47 40
        e 16 90 48 7f
        e 48 80 48 40
        e 16 90 47 7f
        e 48 80 47 40
        e 16 90 45 7f
        e 48 80 45 40
        e 16 90 43 7f
        e 128 80 43 40
        e 16 90 48 7f
        e 32 80 48 40
        e 16 90 48 7f
        e 48 80 48 40
        e 16 90 47 7f
        e 48 80 47 40
        e 16 90 45 7f
        e 48 80 45 40
        e 16 90 45 7f
        e 48 80 45 40
        e 16 90 43 7f
        e 48 80 43 40
        e 14 90 41 7f
        e 48 80 41 40
        e 18 90 41 7f
        e 48 80 41 40
        e 16 90 40 7f
        e 48 80 40 40
        e 16 90 3e 7f
        e 48 80 3e 40
        e 16 90 3c 7f
        e 176 80 3c 40
        e 592 90 47 7f
        e 560 80 47 40
        e 16 90 48 7f
        e 176 80 48 40
        e 16 90 4a 7f
        e 368 80 4a 40
        e 16 90 4a 7f
        e 176 80 4a 40
        e 16 90 47 7f
        e 176 80 47 40
        e 16 90 48 7f
        e 368 80 48 40
        e 16 90 48 7f
        e 128 80 48 40
        e 16 90 47 7f
        e 32 80 47 40
        e 16 90 48 7f
        e 128 80 48 40
        e 16 90 4a 7f
        e 32 80 4a 40
        e 16 90 47 7f
        e 176 80 47 40
        e 16 90 47 7f
        e 176 80 47 40
        e 400 90 47 7f
        e 560 80 47 40
        e 16 90 48 7f
        e 176 80 48 40
        e 16 90 4a 7f
        e 368 80 4a 40
        e 16 90 4a 7f
        e 176 80 4a 40
        e 16 90 47 7f
        e 176 80 47 40
        e 16 90 48 7f
        e 368 80 48 40
        e 16 90 48 7f
        e 128 80 48 40
        e 16 90 47 7f
        e 32 80 47 40
        e 16 90 48 7f
        e 128 80 48 40
        e 16 90 4a 7f
        e 32 80 4a 40
        e 16 90 47 7f
        e 176 80 47 40
        e 400 90 40 7f
        e 128 80 40 40
        e 16 90 41 7f
        e 32 80 41 40
        e 16 90 43 7f
        e 176 80 43 40
        e 16 90 43 7f
        e 128 80 43 40
        e 16 90 45 7f
        e 32 80 45 40
        e 16 90 46 7f
        e 176 80 46 40
        e 16 90 46 7f
        e 128 80 46 40
        e 16 90 46 7f
        e 32 80 46 40
        e 16 90 46 7f
        e 176 80 46 40
        e 16 90 45 7f
        e 176 80 45 40
        e 208 90 42 7f
        e 128 80 42 40
        e 16 90 43 7f
        e 32 80 43 40
        e 16 90 45 7f
        e 176 80 45 40
        e 16 90 45 7f
        e 128 80 45 40
        e 16 90 47 7f
        e 32 80 47 40
        e 16 90 48 7f
        e 176 80 48 40
        e 16 90 48 7f
        e 128 80 48 40
        e 16 90 48 7f
        e 32 80 48 40
        e 16 90 47 7f
        e 368 80 47 40
        e 208 90 47 7f
        e 128 80 47 40
        e 16 90 47 7f
        e 32 80 47 40
        e 16 90 47 7f
        e 128 80 47 40
        e 16 90 45 7f
        e 32 80 45 40
        e 16 90 47 7f
        e 128 80 47 40
        e 16 90 45 7f
        e 32 80 45 40
        e 16 90 45 7f
        e 128 80 45 40
        e 16 90 43 7f
        e 32 80 43 40
        e 16 90 45 7f
        e 128 80 45 40
        e 16 90 43 7f
        e 32 80 43 40
        e 16 90 45 7f
        e 272 80 45 40
        e 16 90 43 7f
        e 80 80 43 40
        e 16 90 40 7f
        e 176 80 40 40
        e 16 90 48 7f
        e 128 80 48 40
        e 16 90 47 7f
        e 32 80 47 40
        e 16 90 47 7f
        e 128 80 47 40
        e 16 90 45 7f
        e 32 80 45 40
        e 16 90 47 7f
        e 128 80 47 40
        e 16 90 45 7f
        e 32 80 45 40
        e 16 90 45 7f
        e 128 80 45 40
        e 16 90 43 7f
        e 32 80 43 40
        e 16 90 45 7f
        e 128 80 45 40
        e 16 90 43 7f
        e 32 80 43 40
        e 16 90 40 7f
        e 176 80 40 40
        e 16 90 3c 7f
        e 80 80 3c 40
        e 16 90 3e 7f
        e 80 80 3e 40
        e 16 90 40 7f
        e 80 80 40 40
        e 16 90 41 7f
        e 80 80 41 40
        e 16 90 43 7f
        e 80 80 43 40
        e 16 90 45 7f
        e 80 80 45 40
        e 16 90 46 7f
        e 368 80 46 40
        e 16 90 4a 7f
        e 176 80 4a 40
        e 16 90 49 7f
        e 176 80 49 40
        e 16 90 4a 7f
        e 176 80 4a 40
        e 16 90 4a 7f
        e 176 80 4a 40
        e 208 90 48 7f
        e 128 80 48 40
        e 16 90 48 7f
        e 32 80 48 40
        e 16 90 4c 7f
        e 176 80 4c 40
        e 16 90 48 7f
        e 128 80 48 40
        e 16 90 48 7f
        e 32 80 48 40
        e 16 90 4a 7f
        e 176 80 4a 40
        e 16 90 47 7f
        e 128 80 47 40
        e 16 90 47 7f
        e 32 80 47 40
        e 16 90 48 7f
        e 176 80 48 40
        e 400 90 48 7f
        e 128 80 48 40
        e 16 90 48 7f
        e 30 80 48 40
        e 18 90 48 7f
        e 176 80 48 40
        e 16 90 48 7f
        e 128 80 48 40
        e 16 90 48 7f
        e 32 80 48 40
        e 16 90 4a 7f
        e 176 80 4a 40
        e 16 90 47 7f
        e 128 80 47 40
        e 16 90 47 7f
        e 30 80 47 40
        e 18 90 48 7f
        e 176 80 48 40
        e 400 90 48 7f
        e 128 80 48 40
        e 16 90 48 7f
        e 32 80 48 40
        e 16 90 4c 7f
        e 174 80 4c 40
        e 18 90 48 7f
        e 123 80 48 40
        e 21 90 48 7f
        e 32 80 48 40
        e 16 90 4a 7f
        e 176 80 4a 40
        e 16 90 47 7f
        e 128 80 47 40
        e 16 90 47 7f
        e 32 80 47 40
        e 16 90 48 7f
        e 176 80 48 40
        E 16 b0 7b 00
        GUID {74742BD7-CCAA-F244-9D03-3F78F8C9FCB1}
        IGNTEMPO 0 120 4 4
        SRCCOLOR 911
        VELLANE -1 86 6
        CFGEDITVIEW 0 0 50 24 0 0 0 0 0 0.5
        KEYSNAP 0
        TRACKSEL 226 0 0 ""
        EVTFILTER 0 -1 -1 -1 -1 0 1 0 0 -1 -1 -1 -1 0 -1 0 -1 -1
        CFGEDIT 1 0 0 0 0 0 1 0 1 1 1 0.25 16 63 1280 778 0 0 2 3 0 0 0 0 0 0.5 0 0 1 64
      >
    >
    <ITEM
      POSITION 0
      SNAPOFFS 0
      LENGTH 91
      LOOP 1
      ALLTAKES 0
      FADEIN 1 0 0 1 0 0
      FADEOUT 1 0 0 1 0 0
      MUTE 0
      SEL 1
      YPOS 0.95 0.05
      IGUID {9A005ACD-6643-CA4D-A6A7-8045FD94F403}
      IID 15
      NAME "Flute/Melody 8va up  - National_Anthems_-_Chile.mid"
      VOLPAN 1 0 1 -1
      SOFFS 21.5 43
      PLAYRATE 1 1 0 -1 0 0.0025
      CHANMODE 0
      TAKECOLOR 26173599 B
      GUID {9D012E3B-DBED-CF4B-A883-6B8E943E4FAD}
      <SOURCE MIDI
        HASDATA 1 192 QN
        POOLEDEVTS {2AEC5B6F-8B3C-D94F-9844-E033EDA624D2}
        <X 0 0
          /wNGbHV0ZS9NZWxvZHkgOHZhIHVwIA==
        >
        e 8256 90 4f 7f
        e 128 80 4f 40
        e 16 90 54 7f
        e 32 80 54 40
        e 16 90 54 7f
        e 128 80 54 40
        e 16 90 53 7f
        e 32 80 53 40
        e 16 90 53 7f
        e 128 80 53 40
        e 16 90 51 7f
        e 32 80 51 40
        e 16 90 51 7f
        e 128 80 51 40
        e 16 90 4f 7f
        e 32 80 4f 40
        e 16 90 4f 7f
        e 128 80 4f 40
        e 16 90 4e 7f
        e 32 80 4e 40
        e 16 90 4f 7f
        e 272 80 4f 40
        e 16 90 4d 7f
        e 80 80 4d 40
        e 16 90 4c 7f
        e 176 80 4c 40
        e 16 90 4a 7f
        e 128 80 4a 40
        e 16 90 4c 7f
        e 32 80 4c 40
        e 16 90 4d 7f
        e 128 80 4d 40
        e 16 90 4f 7f
        e 32 80 4f 40
        e 16 90 51 7f
        e 48 80 51 40
        e 16 90 4f 7f
        e 48 80 4f 40
        e 16 90 4d 7f
        e 48 80 4d 40
        e 16 90 4c 7f
        e 128 80 4c 40
        e 16 90 4d 7f
        e 32 80 4d 40
        e 16 90 4f 7f
        e 48 80 4f 40
        e 16 90 4d 7f
        e 48 80 4d 40
        e 16 90 4c 7f
        e 48 80 4c 40
        e 16 90 4a 7f
        e 176 80 4a 40
        e 400 90 4f 7f
        e 128 80 4f 40
        e 16 90 54 7f
        e 32 80 54 40
        e 16 90 54 7f
        e 128 80 54 40
        e 16 90 53 7f
        e 32 80 53 40
        e 16 90 53 7f
        e 128 80 53 40
        e 16 90 51 7f
        e 32 80 51 40
        e 16 90 51 7f
        e 128 80 51 40
        e 16 90 4f 7f
        e 32 80 4f 40
        e 16 90 4f 7f
        e 128 80 4f 40
        e 16 90 4e 7f
        e 32 80 4e 40
        e 16 90 4f 7f
        e 272 80 4f 40
        e 16 90 4d 7f
        e 80 80 4d 40
        e 16 90 4c 7f
        e 176 80 4c 40
        e 16 90 4f 7f
        e 128 80 4f 40
        e 16 90 54 7f
        e 32 80 54 40
        e 16 90 53 7f
        e 128 80 53 40
        e 16 90 52 7f
        e 32 80 52 40
        e 16 90 53 7f
        e 128 80 53 40
        e 16 90 54 7f
        e 32 80 54 40
        e 16 90 51 7f
        e 128 80 51 40
        e 16 90 50 7f
        e 32 80 50 40
        e 16 90 51 7f
        e 128 80 51 40
        e 16 90 53 7f
        e 32 80 53 40
        e 16 90 4f 7f
        e 368 80 4f 40
        e 208 90 4f 7f
        e 128 80 4f 40
        e 16 90 4f 7f
        e 32 80 4f 40
        e 16 90 4f 7f
        e 176 80 4f 40
        e 16 90 4f 7f
        e 128 80 4f 40
        e 16 90 4f 7f
        e 32 80 4f 40
        e 16 90 50 7f
        e 80 80 50 40
        e 16 90 4f 7f
        e 80 80 4f 40
        e 16 90 4d 7f
        e 80 80 4d 40
        e 16 90 4f 7f
        e 80 80 4f 40
        e 16 90 50 7f
        e 272 80 50 40
        e 16 90 4f 7f
        e 80 80 4f 40
        e 16 90 4d 7f
        e 176 80 4d 40
        e 16 90 50 7f
        e 128 80 50 40
        e 16 90 50 7f
        e 32 80 50 40
        e 16 90 50 7f
        e 176 80 50 40
        e 16 90 50 7f
        e 128 80 50 40
        e 16 90 50 7f
        e 32 80 50 40
        e 16 90 52 7f
        e 80 80 52 40
        e 16 90 50 7f
        e 80 80 50 40
        e 16 90 4f 7f
        e 80 80 4f 40
        e 16 90 50 7f
        e 80 80 50 40
        e 16 90 52 7f
        e 368 80 52 40
        e 208 90 4f 7f
        e 128 80 4f 40
        e 16 90 4f 7f
        e 32 80 4f 40
        e 16 90 54 7f
        e 176 80 54 40
        e 16 90 54 7f
        e 128 80 54 40
        e 16 90 54 7f
        e 32 80 54 40
        e 16 90 54 7f
        e 48 80 54 40
        e 16 90 52 7f
        e 48 80 52 40
        e 16 90 50 7f
        e 48 80 50 40
        e 16 90 50 7f
        e 48 80 50 40
        e 16 90 4f 7f
        e 48 80 4f 40
        e 16 90 4e 7f
        e 48 80 4e 40
        e 16 90 4f 7f
        e 368 80 4f 40
        e 208 90 4c 7f
        e 128 80 4c 40
        e 16 90 4c 7f
        e 32 80 4c 40
        e 16 90 4c 7f
        e 128 80 4c 40
        e 16 90 4a 7f
        e 32 80 4a 40
        e 16 90 4c 7f
        e 128 80 4c 40
        e 16 90 4a 7f
        e 32 80 4a 40
        e 16 90 4c 7f
        e 128 80 4c 40
        e 16 90 4a 7f
        e 32 80 4a 40
        e 16 90 4c 7f
        e 128 80 4c 40
        e 16 90 4d 7f
        e 32 80 4d 40
        e 16 90 4f 7f
        e 176 80 4f 40
        e 16 90 51 7f
        e 368 80 51 40
        e 16 90 4a 7f
        e 128 80 4a 40
        e 16 90 4a 7f
        e 32 80 4a 40
        e 16 90 4a 7f
        e 128 80 4a 40
        e 16 90 48 7f
        e 32 80 48 40
        e 16 90 4a 7f
        e 128 80 4a 40
        e 16 90 48 7f
        e 32 80 48 40
        e 16 90 4a 7f
        e 128 80 4a 40
        e 16 90 4c 7f
        e 32 80 4c 40
        e 16 90 4d 7f
        e 128 80 4d 40
        e 16 90 4e 7f
        e 32 80 4e 40
        e 16 90 51 7f
        e 176 80 51 40
        e 16 90 4f 7f
        e 80 80 4f 40
        e 112 90 51 7f
        e 80 80 51 40
        e 64 90 53 7f
        e 32 80 53 40
        e 16 90 54 7f
        e 48 80 54 40
        e 16 90 53 7f
        e 48 80 53 40
        e 16 90 51 7f
        e 48 80 51 40
        e 16 90 53 7f
        e 128 80 53 40
        e 16 90 51 7f
        e 32 80 51 40
        e 16 90 4f 7f
        e 128 80 4f 40
        e 16 90 4f 7f
        e 32 80 4f 40
        e 16 90 4d 7f
        e 128 80 4d 40
        e 16 90 4f 7f
        e 32 80 4f 40
        e 16 90 51 7f
        e 48 80 51 40
        e 16 90 4f 7f
        e 48 80 4f 40
        e 16 90 4d 7f
        e 48 80 4d 40
        e 16 90 4f 7f
        e 176 80 4f 40
        e 16 90 4c 7f
        e 176 80 4c 40
        e 16 90 51 7f
        e 128 80 51 40
        e 16 90 53 7f
        e 32 80 53 40
        e 16 90 54 7f
        e 48 80 54 40
        e 16 90 53 7f
        e 48 80 53 40
        e 16 90 51 7f
        e 48 80 51 40
        e 16 90 4f 7f
        e 128 80 4f 40
        e 16 90 54 7f
        e 32 80 54 40
        e 16 90 54 7f
        e 48 80 54 40
        e 16 90 53 7f
        e 48 80 53 40
        e 16 90 51 7f
        e 48 80 51 40
        e 16 90 51 7f
        e 48 80 51 40
        e 16 90 4f 7f
        e 48 80 4f 40
        e 14 90 4d 7f
        e 48 80 4d 40
        e 18 90 4d 7f
        e 48 80 4d 40
        e 16 90 4c 7f
        e 48 80 4c 40
        e 16 90 4a 7f
        e 48 80 4a 40
        e 16 90 48 7f
        e 176 80 48 40
        e 592 90 53 7f
        e 560 80 53 40
        e 16 90 54 7f
        e 176 80 54 40
        e 16 90 56 7f
        e 368 80 56 40
        e 16 90 56 7f
        e 176 80 56 40
        e 16 90 53 7f
        e 176 80 53 40
        e 16 90 54 7f
        e 368 80 54 40
        e 16 90 54 7f
        e 128 80 54 40
        e 16 90 53 7f
        e 32 80 53 40
        e 16 90 54 7f
        e 128 80 54 40
        e 16 90 56 7f
        e 32 80 56 40
        e 16 90 53 7f
        e 176 80 53 40
        e 16 90 53 7f
        e 176 80 53 40
        e 400 90 53 7f
        e 560 80 53 40
        e 16 90 54 7f
        e 176 80 54 40
        e 16 90 56 7f
        e 368 80 56 40
        e 16 90 56 7f
        e 176 80 56 40
        e 16 90 53 7f
        e 176 80 53 40
        e 16 90 54 7f
        e 368 80 54 40
        e 16 90 54 7f
        e 128 80 54 40
        e 16 90 53 7f
        e 32 80 53 40
        e 16 90 54 7f
        e 128 80 54 40
        e 16 90 56 7f
        e 32 80 56 40
        e 16 90 53 7f
        e 176 80 53 40
        e 400 90 4c 7f
        e 128 80 4c 40
        e 16 90 4d 7f
        e 32 80 4d 40
        e 16 90 4f 7f
        e 176 80 4f 40
        e 16 90 4f 7f
        e 128 80 4f 40
        e 16 90 51 7f
        e 32 80 51 40
        e 16 90 52 7f
        e 176 80 52 40
        e 16 90 52 7f
        e 128 80 52 40
        e 16 90 52 7f
        e 32 80 52 40
        e 16 90 52 7f
        e 176 80 52 40
        e 16 90 51 7f
        e 176 80 51 40
        e 208 90 4e 7f
        e 128 80 4e 40
        e 16 90 4f 7f
        e 32 80 4f 40
        e 16 90 51 7f
        e 176 80 51 40
        e 16 90 51 7f
        e 128 80 51 40
        e 16 90 53 7f
        e 32 80 53 40
        e 16 90 54 7f
        e 176 80 54 40
        e 16 90 54 7f
        e 128 80 54 40
        e 16 90 54 7f
        e 32 80 54 40
        e 16 90 53 7f
        e 368 80 53 40
        e 208 90 53 7f
        e 128 80 53 40
        e 16 90 53 7f
        e 32 80 53 40
        e 16 90 53 7f
        e 128 80 53 40
        e 16 90 51 7f
        e 32 80 51 40
        e 16 90 53 7f
        e 128 80 53 40
        e 16 90 51 7f
        e 32 80 51 40
        e 16 90 51 7f
        e 128 80 51 40
        e 16 90 4f 7f
        e 32 80 4f 40
        e 16 90 51 7f
        e 128 80 51 40
        e 16 90 4f 7f
        e 32 80 4f 40
        e 16 90 51 7f
        e 272 80 51 40
        e 16 90 4f 7f
        e 80 80 4f 40
        e 16 90 4c 7f
        e 176 80 4c 40
        e 16 90 54 7f
        e 128 80 54 40
        e 16 90 53 7f
        e 32 80 53 40
        e 16 90 53 7f
        e 128 80 53 40
        e 16 90 51 7f
        e 32 80 51 40
        e 16 90 53 7f
        e 128 80 53 40
        e 16 90 51 7f
        e 32 80 51 40
        e 16 90 51 7f
        e 128 80 51 40
        e 16 90 4f 7f
        e 32 80 4f 40
        e 16 90 51 7f
        e 128 80 51 40
        e 16 90 4f 7f
        e 32 80 4f 40
        e 16 90 4c 7f
        e 176 80 4c 40
        e 16 90 48 7f
        e 80 80 48 40
        e 16 90 4a 7f
        e 80 80 4a 40
        e 16 90 4c 7f
        e 80 80 4c 40
        e 16 90 4d 7f
        e 80 80 4d 40
        e 16 90 4f 7f
        e 80 80 4f 40
        e 16 90 51 7f
        e 80 80 51 40
        e 16 90 52 7f
        e 368 80 52 40
        e 16 90 56 7f
        e 176 80 56 40
        e 16 90 55 7f
        e 176 80 55 40
        e 16 90 56 7f
        e 176 80 56 40
        e 16 90 56 7f
        e 176 80 56 40
        e 208 90 54 7f
        e 128 80 54 40
        e 16 90 54 7f
        e 32 80 54 40
        e 16 90 58 7f
        e 176 80 58 40
        e 16 90 54 7f
        e 128 80 54 40
        e 16 90 54 7f
        e 32 80 54 40
        e 16 90 56 7f
        e 176 80 56 40
        e 16 90 53 7f
        e 128 80 53 40
        e 16 90 53 7f
        e 32 80 53 40
        e 16 90 54 7f
        e 176 80 54 40
        e 400 90 54 7f
        e 128 80 54 40
        e 16 90 54 7f
        e 30 80 54 40
        e 18 90 54 7f
        e 176 80 54 40
        e 16 90 54 7f
        e 128 80 54 40
        e 16 90 54 7f
        e 32 80 54 40
        e 16 90 56 7f
        e 176 80 56 40
        e 16 90 53 7f
        e 128 80 53 40
        e 16 90 53 7f
        e 30 80 53 40
        e 18 90 54 7f
        e 176 80 54 40
        e 400 90 54 7f
        e 128 80 54 40
        e 16 90 54 7f
        e 32 80 54 40
        e 16 90 58 7f
        e 174 80 58 40
        e 18 90 54 7f
        e 123 80 54 40
        e 21 90 54 7f
        e 32 80 54 40
        e 16 90 56 7f
        e 176 80 56 40
        e 16 90 53 7f
        e 128 80 53 40
        e 16 90 53 7f
        e 32 80 53 40
        e 16 90 54 7f
        e 176 80 54 40
        E 16 b0 7b 00
        GUID {D0EAB905-DAC3-5649-BAB2-A7C253A3C6ED}
        IGNTEMPO 0 120 4 4
        SRCCOLOR 724
        VELLANE -1 86 6
        CFGEDITVIEW -12766.996273 1.203714 50 24 0 0 0 0 0 0.5
        KEYSNAP 0
        TRACKSEL 226 0 0 ""
        EVTFILTER 0 -1 -1 -1 -1 0 1 0 0 -1 -1 -1 -1 0 -1 0 -1 -1
        CFGEDIT 1 0 0 0 0 0 1 0 1 1 1 0.25 16 63 1280 778 0 0 2 3 0 0 0 0 0 0.5 0 0 1 64
      >
      TAKE
      NAME "Flute/Melody 8va up  - National_Anthems_-_Chile.mid"
      TAKEVOLPAN 0 1 -1
      SOFFS 21.5 43
      PLAYRATE 1 1 0 -1 0 0.0025
      CHANMODE 0
      GUID {0DD2AA1E-600F-6F47-875B-6284DFC0B943}
      <SOURCE MIDI
        HASDATA 1 192 QN
        POOLEDEVTS {E3C198DE-581F-FC48-8767-3B842CFCC92E}
        <X 0 0
          /wNGbHV0ZS9NZWxvZHkgOHZhIHVwIA==
        >
        e 8256 90 4f 7f
        e 128 80 4f 40
        e 16 90 54 7f
        e 32 80 54 40
        e 16 90 54 7f
        e 128 80 54 40
        e 16 90 53 7f
        e 32 80 53 40
        e 16 90 53 7f
        e 128 80 53 40
        e 16 90 51 7f
        e 32 80 51 40
        e 16 90 51 7f
        e 128 80 51 40
        e 16 90 4f 7f
        e 32 80 4f 40
        e 16 90 4f 7f
        e 128 80 4f 40
        e 16 90 4e 7f
        e 32 80 4e 40
        e 16 90 4f 7f
        e 272 80 4f 40
        e 16 90 4d 7f
        e 80 80 4d 40
        e 16 90 4c 7f
        e 176 80 4c 40
        e 16 90 4a 7f
        e 128 80 4a 40
        e 16 90 4c 7f
        e 32 80 4c 40
        e 16 90 4d 7f
        e 128 80 4d 40
        e 16 90 4f 7f
        e 32 80 4f 40
        e 16 90 51 7f
        e 48 80 51 40
        e 16 90 4f 7f
        e 48 80 4f 40
        e 16 90 4d 7f
        e 48 80 4d 40
        e 16 90 4c 7f
        e 128 80 4c 40
        e 16 90 4d 7f
        e 32 80 4d 40
        e 16 90 4f 7f
        e 48 80 4f 40
        e 16 90 4d 7f
        e 48 80 4d 40
        e 16 90 4c 7f
        e 48 80 4c 40
        e 16 90 4a 7f
        e 176 80 4a 40
        e 400 90 4f 7f
        e 128 80 4f 40
        e 16 90 54 7f
        e 32 80 54 40
        e 16 90 54 7f
        e 128 80 54 40
        e 16 90 53 7f
        e 32 80 53 40
        e 16 90 53 7f
        e 128 80 53 40
        e 16 90 51 7f
        e 32 80 51 40
        e 16 90 51 7f
        e 128 80 51 40
        e 16 90 4f 7f
        e 32 80 4f 40
        e 16 90 4f 7f
        e 128 80 4f 40
        e 16 90 4e 7f
        e 32 80 4e 40
        e 16 90 4f 7f
        e 272 80 4f 40
        e 16 90 4d 7f
        e 80 80 4d 40
        e 16 90 4c 7f
        e 176 80 4c 40
        e 16 90 4f 7f
        e 128 80 4f 40
        e 16 90 54 7f
        e 32 80 54 40
        e 16 90 53 7f
        e 128 80 53 40
        e 16 90 52 7f
        e 32 80 52 40
        e 16 90 53 7f
        e 128 80 53 40
        e 16 90 54 7f
        e 32 80 54 40
        e 16 90 51 7f
        e 128 80 51 40
        e 16 90 50 7f
        e 32 80 50 40
        e 16 90 51 7f
        e 128 80 51 40
        e 16 90 53 7f
        e 32 80 53 40
        e 16 90 4f 7f
        e 368 80 4f 40
        e 208 90 4f 7f
        e 128 80 4f 40
        e 16 90 4f 7f
        e 32 80 4f 40
        e 16 90 4f 7f
        e 176 80 4f 40
        e 16 90 4f 7f
        e 128 80 4f 40
        e 16 90 4f 7f
        e 32 80 4f 40
        e 16 90 50 7f
        e 80 80 50 40
        e 16 90 4f 7f
        e 80 80 4f 40
        e 16 90 4d 7f
        e 80 80 4d 40
        e 16 90 4f 7f
        e 80 80 4f 40
        e 16 90 50 7f
        e 272 80 50 40
        e 16 90 4f 7f
        e 80 80 4f 40
        e 16 90 4d 7f
        e 176 80 4d 40
        e 16 90 50 7f
        e 128 80 50 40
        e 16 90 50 7f
        e 32 80 50 40
        e 16 90 50 7f
        e 176 80 50 40
        e 16 90 50 7f
        e 128 80 50 40
        e 16 90 50 7f
        e 32 80 50 40
        e 16 90 52 7f
        e 80 80 52 40
        e 16 90 50 7f
        e 80 80 50 40
        e 16 90 4f 7f
        e 80 80 4f 40
        e 16 90 50 7f
        e 80 80 50 40
        e 16 90 52 7f
        e 368 80 52 40
        e 208 90 4f 7f
        e 128 80 4f 40
        e 16 90 4f 7f
        e 32 80 4f 40
        e 16 90 54 7f
        e 176 80 54 40
        e 16 90 54 7f
        e 128 80 54 40
        e 16 90 54 7f
        e 32 80 54 40
        e 16 90 54 7f
        e 48 80 54 40
        e 16 90 52 7f
        e 48 80 52 40
        e 16 90 50 7f
        e 48 80 50 40
        e 16 90 50 7f
        e 48 80 50 40
        e 16 90 4f 7f
        e 48 80 4f 40
        e 16 90 4e 7f
        e 48 80 4e 40
        e 16 90 4f 7f
        e 368 80 4f 40
        e 208 90 4c 7f
        e 128 80 4c 40
        e 16 90 4c 7f
        e 32 80 4c 40
        e 16 90 4c 7f
        e 128 80 4c 40
        e 16 90 4a 7f
        e 32 80 4a 40
        e 16 90 4c 7f
        e 128 80 4c 40
        e 16 90 4a 7f
        e 32 80 4a 40
        e 16 90 4c 7f
        e 128 80 4c 40
        e 16 90 4a 7f
        e 32 80 4a 40
        e 16 90 4c 7f
        e 128 80 4c 40
        e 16 90 4d 7f
        e 32 80 4d 40
        e 16 90 4f 7f
        e 176 80 4f 40
        e 16 90 51 7f
        e 368 80 51 40
        e 16 90 4a 7f
        e 128 80 4a 40
        e 16 90 4a 7f
        e 32 80 4a 40
        e 16 90 4a 7f
        e 128 80 4a 40
        e 16 90 48 7f
        e 32 80 48 40
        e 16 90 4a 7f
        e 128 80 4a 40
        e 16 90 48 7f
        e 32 80 48 40
        e 16 90 4a 7f
        e 128 80 4a 40
        e 16 90 4c 7f
        e 32 80 4c 40
        e 16 90 4d 7f
        e 128 80 4d 40
        e 16 90 4e 7f
        e 32 80 4e 40
        e 16 90 51 7f
        e 176 80 51 40
        e 16 90 4f 7f
        e 80 80 4f 40
        e 112 90 51 7f
        e 80 80 51 40
        e 64 90 53 7f
        e 32 80 53 40
        e 16 90 54 7f
        e 48 80 54 40
        e 16 90 53 7f
        e 48 80 53 40
        e 16 90 51 7f
        e 48 80 51 40
        e 16 90 53 7f
        e 128 80 53 40
        e 16 90 51 7f
        e 32 80 51 40
        e 16 90 4f 7f
        e 128 80 4f 40
        e 16 90 4f 7f
        e 32 80 4f 40
        e 16 90 4d 7f
        e 128 80 4d 40
        e 16 90 4f 7f
        e 32 80 4f 40
        e 16 90 51 7f
        e 48 80 51 40
        e 16 90 4f 7f
        e 48 80 4f 40
        e 16 90 4d 7f
        e 48 80 4d 40
        e 16 90 4f 7f
        e 176 80 4f 40
        e 16 90 4c 7f
        e 176 80 4c 40
        e 16 90 51 7f
        e 128 80 51 40
        e 16 90 53 7f
        e 32 80 53 40
        e 16 90 54 7f
        e 48 80 54 40
        e 16 90 53 7f
        e 48 80 53 40
        e 16 90 51 7f
        e 48 80 51 40
        e 16 90 4f 7f
        e 128 80 4f 40
        e 16 90 54 7f
        e 32 80 54 40
        e 16 90 54 7f
        e 48 80 54 40
        e 16 90 53 7f
        e 48 80 53 40
        e 16 90 51 7f
        e 48 80 51 40
        e 16 90 51 7f
        e 48 80 51 40
        e 16 90 4f 7f
        e 48 80 4f 40
        e 14 90 4d 7f
        e 48 80 4d 40
        e 18 90 4d 7f
        e 48 80 4d 40
        e 16 90 4c 7f
        e 48 80 4c 40
        e 16 90 4a 7f
        e 48 80 4a 40
        e 16 90 48 7f
        e 176 80 48 40
        e 592 90 53 7f
        e 560 80 53 40
        e 16 90 54 7f
        e 176 80 54 40
        e 16 90 56 7f
        e 368 80 56 40
        e 16 90 56 7f
        e 176 80 56 40
        e 16 90 53 7f
        e 176 80 53 40
        e 16 90 54 7f
        e 368 80 54 40
        e 16 90 54 7f
        e 128 80 54 40
        e 16 90 53 7f
        e 32 80 53 40
        e 16 90 54 7f
        e 128 80 54 40
        e 16 90 56 7f
        e 32 80 56 40
        e 16 90 53 7f
        e 176 80 53 40
        e 16 90 53 7f
        e 176 80 53 40
        e 400 90 53 7f
        e 560 80 53 40
        e 16 90 54 7f
        e 176 80 54 40
        e 16 90 56 7f
        e 368 80 56 40
        e 16 90 56 7f
        e 176 80 56 40
        e 16 90 53 7f
        e 176 80 53 40
        e 16 90 54 7f
        e 368 80 54 40
        e 16 90 54 7f
        e 128 80 54 40
        e 16 90 53 7f
        e 32 80 53 40
        e 16 90 54 7f
        e 128 80 54 40
        e 16 90 56 7f
        e 32 80 56 40
        e 16 90 53 7f
        e 176 80 53 40
        e 400 90 4c 7f
        e 128 80 4c 40
        e 16 90 4d 7f
        e 32 80 4d 40
        e 16 90 4f 7f
        e 176 80 4f 40
        e 16 90 4f 7f
        e 128 80 4f 40
        e 16 90 51 7f
        e 32 80 51 40
        e 16 90 52 7f
        e 176 80 52 40
        e 16 90 52 7f
        e 128 80 52 40
        e 16 90 52 7f
        e 32 80 52 40
        e 16 90 52 7f
        e 176 80 52 40
        e 16 90 51 7f
        e 176 80 51 40
        e 208 90 4e 7f
        e 128 80 4e 40
        e 16 90 4f 7f
        e 32 80 4f 40
        e 16 90 51 7f
        e 176 80 51 40
        e 16 90 51 7f
        e 128 80 51 40
        e 16 90 53 7f
        e 32 80 53 40
        e 16 90 54 7f
        e 176 80 54 40
        e 16 90 54 7f
        e 128 80 54 40
        e 16 90 54 7f
        e 32 80 54 40
        e 16 90 53 7f
        e 368 80 53 40
        e 208 90 53 7f
        e 128 80 53 40
        e 16 90 53 7f
        e 32 80 53 40
        e 16 90 53 7f
        e 128 80 53 40
        e 16 90 51 7f
        e 32 80 51 40
        e 16 90 53 7f
        e 128 80 53 40
        e 16 90 51 7f
        e 32 80 51 40
        e 16 90 51 7f
        e 128 80 51 40
        e 16 90 4f 7f
        e 32 80 4f 40
        e 16 90 51 7f
        e 128 80 51 40
        e 16 90 4f 7f
        e 32 80 4f 40
        e 16 90 51 7f
        e 272 80 51 40
        e 16 90 4f 7f
        e 80 80 4f 40
        e 16 90 4c 7f
        e 176 80 4c 40
        e 16 90 54 7f
        e 128 80 54 40
        e 16 90 53 7f
        e 32 80 53 40
        e 16 90 53 7f
        e 128 80 53 40
        e 16 90 51 7f
        e 32 80 51 40
        e 16 90 53 7f
        e 128 80 53 40
        e 16 90 51 7f
        e 32 80 51 40
        e 16 90 51 7f
        e 128 80 51 40
        e 16 90 4f 7f
        e 32 80 4f 40
        e 16 90 51 7f
        e 128 80 51 40
        e 16 90 4f 7f
        e 32 80 4f 40
        e 16 90 4c 7f
        e 176 80 4c 40
        e 16 90 48 7f
        e 80 80 48 40
        e 16 90 4a 7f
        e 80 80 4a 40
        e 16 90 4c 7f
        e 80 80 4c 40
        e 16 90 4d 7f
        e 80 80 4d 40
        e 16 90 4f 7f
        e 80 80 4f 40
        e 16 90 51 7f
        e 80 80 51 40
        e 16 90 52 7f
        e 368 80 52 40
        e 16 90 56 7f
        e 176 80 56 40
        e 16 90 55 7f
        e 176 80 55 40
        e 16 90 56 7f
        e 176 80 56 40
        e 16 90 56 7f
        e 176 80 56 40
        e 208 90 54 7f
        e 128 80 54 40
        e 16 90 54 7f
        e 32 80 54 40
        e 16 90 58 7f
        e 176 80 58 40
        e 16 90 54 7f
        e 128 80 54 40
        e 16 90 54 7f
        e 32 80 54 40
        e 16 90 56 7f
        e 176 80 56 40
        e 16 90 53 7f
        e 128 80 53 40
        e 16 90 53 7f
        e 32 80 53 40
        e 16 90 54 7f
        e 176 80 54 40
        e 400 90 54 7f
        e 128 80 54 40
        e 16 90 54 7f
        e 30 80 54 40
        e 18 90 54 7f
        e 176 80 54 40
        e 16 90 54 7f
        e 128 80 54 40
        e 16 90 54 7f
        e 32 80 54 40
        e 16 90 56 7f
        e 176 80 56 40
        e 16 90 53 7f
        e 128 80 53 40
        e 16 90 53 7f
        e 30 80 53 40
        e 18 90 54 7f
        e 176 80 54 40
        e 400 90 54 7f
        e 128 80 54 40
        e 16 90 54 7f
        e 32 80 54 40
        e 16 90 58 7f
        e 174 80 58 40
        e 18 90 54 7f
        e 123 80 54 40
        e 21 90 54 7f
        e 32 80 54 40
        e 16 90 56 7f
        e 176 80 56 40
        e 16 90 53 7f
        e 128 80 53 40
        e 16 90 53 7f
        e 32 80 53 40
        e 16 90 54 7f
        e 176 80 54 40
        E 16 b0 7b 00
        GUID {1BD6AFCC-D1DF-6B40-8935-4DFA6CBB856E}
        IGNTEMPO 0 120 4 4
        SRCCOLOR 916
        VELLANE -1 86 6
        CFGEDITVIEW 0 0 50 24 0 0 0 0 0 0.5
        KEYSNAP 0
        TRACKSEL 226 0 0 ""
        EVTFILTER 0 -1 -1 -1 -1 0 1 0 0 -1 -1 -1 -1 0 -1 0 -1 -1
        CFGEDIT 1 0 0 0 0 0 1 0 1 1 1 0.25 16 63 1280 778 0 0 2 3 0 0 0 0 0 0.5 0 0 1 64
      >
    >
  >
  <TRACK {3CF13A00-0AFC-8542-AD98-73B6D91102DB}
    NAME "vst Plogue"
    PEAKCOL 26779488
    BEAT -1
    AUTOMODE 0
    VOLPAN 1 0 -1 -1 1
    MUTESOLO 0 0 0
    IPHASE 0
    ISBUS 0 0
    BUSCOMP 0 0
    SHOWINMIX 1 0.6667 0.5 1 0.5 0 0 0
    FREEMODE 0
    SEL 0
    REC 0 0 0 1 0 0 0
    VU 2
    TRACKHEIGHT 0 0
    INQ 0 0 0 0.5 100 0 0 100
    NCHAN 4
    FX 1
    TRACKID {3CF13A00-0AFC-8542-AD98-73B6D91102DB}
    PERF 0
    AUXRECV 5 0 1 0 0 0 0 0 0 -1:U 32 -1 ''
    AUXRECV 5 0 1 0 0 0 0 0 0 -1:U 96 -1 ''
    AUXRECV 6 0 1 0 0 0 0 0 0 -1:U 64 -1 ''
    AUXRECV 6 0 1 0 0 0 0 0 0 -1:U 128 -1 ''
    MIDIOUT -1
    MAINSEND 0 0
    <FXCHAIN
      SHOW 0
      LASTSEL 0
      DOCKED 0
      BYPASS 0 0 0
      <VST "VSTi: chipsounds (Multi) (Plogue Art et Technologie, Inc) (32 out)" "chipsounds Multi.vst" 0 "" 1347241807
        T0dNUO5e7f4AAAAAIAAAAAEAAAAAAAAAAgAAAAAAAAAEAAAAAAAAAAgAAAAAAAAAEAAAAAAAAAAgAAAAAAAAAEAAAAAAAAAAgAAAAAAAAAAAAQAAAAAAAAACAAAAAAAA
        AAQAAAAAAAAACAAAAAAAAAAQAAAAAAAAACAAAAAAAAAAQAAAAAAAAACAAAAAAAAAAAABAAAAAAAAAAIAAAAAAAAABAAAAAAAAAAIAAAAAAAAABAAAAAAAAAAIAAAAAAA
        AABAAAAAAAAAAIAAAAAAAAAAAAEAAAAAAAAAAgAAAAAAAAAEAAAAAAAAAAgAAAAAAAAAEAAAAAAAAAAgAAAAAAAAAEAAAAAAAAAAgAAAAAAKBQAAAQAAAAAAEAA=
        Q0VHUIQ0AAB4nO2bXXPiNhSG7/MrNL7aXsSW5C88A9kBErrMNN1MYaeXOwIU4qmxXUtOk/76yjIEO4AsQph2G/siweL10TmSPx69ibufn1YReKQZC5O4ZyATGuDz1UW3
        n4VkQh5p5SsPYuPqAoitO6Gch/GSgT9zEoX8WXxrgGWUzEh0l0Ri18YGYDyjZCVk5e6KPE1kSz+KkvntoGe4SDTfjq/HX3N+myyojEJynqwIF11OooT3DJEPmwutHxQf
        SEREEwKXgBZdm2werZuHNOY06xke3GQyzWPZOTSh3AxgbdIXkUG4kMFjsqJFSBPc5RkFw4cwtSbja8tzOwh8+nU6Gf5kgBmJ/xgLPYJQpDF/IHFMI3l4Kst1DMDXvSH/
        pbt09j0j8VKEv0QvjVw0sTRhVB6+ynn5gf31PSKMF6HKJGWitySMN4k+kiincobq1dSF6EW4U3ZdiHWFtq7Q0RW6ukJPV+jrCju6wkBXiKC2UntukPbkIO3ZQdrTg5rm
        545kZKV1Em2VTb1vldW57LiuQlkbeidQSu2GC6jSfzWqjZXS6owiWymtDpXtK6XVObXVuTq1BFQj4Lv6UavXHeooo9YvKJW042kn0Am0pUF1tlCgkiK7OgcutAPbP6h1
        tlqE95+yU5ItKV8/QObJyryLkmVOzeLRaf4y+mrmjGawcjuXRw1zJh5w14QTwJ9TcSTGtifOIxb+LXacYjw3T1zRH40XISk/LsQh4sNmG5W/MHzfrV6iVdZ4bNHogxQ9
        zcLlkmYTwSI0ntOssWzkYxRsynb9Stl4X9noVZ5y3x8Vmz30R0HtyyG0R//WQMjZ/00UQDMBQRPKiqJMxmn6Pzr/u1bBja8REp2GkGiDkJ0tQl7aLUK2CPlBELJeEfK8
        g8/kakUBdOXqsRk2se940Htn2HSVJdWw0HWU/FRNtQELm07lN6GWDuhUaWs7CrhpYsXNueGW0xJUS1CnEBSC6FiEkleuL0ZhdLOLUOXQ+Pag1jASYFVoOztS0Xq9LwLE
        9QhnRrP9YGKfBiZ4j7d1eW5zq+mxooswLZkohS2Z/GDmljroW80t5yzmlqe2oc5vbvlq4mrNrdbcksm2aKYsujW3WnPLOY0h7T3m1pm9rZYgW4L8zxDkD+htNQJk6221
        3tY62RaglEW33pbudjSX+C9cgk1QjiP4nTzS+yRbMesLyRZg8hzPD4KJuwET5G3JBL6FTN6JRt7/L20NfNPSyMemEaX1U6tI/X9V1aCCRXAQaLhUghyUxguqoYsyVVQ7
        SZSQgaqnidrQwvpAhJtA4ID51iBtWqgcMN+gp22+QU8Z1dVPoOao2UrnqeZSeUp8PB+9BbDulam1+uZuAD3tQQtg5whtoK9F+hMnRvUIkxlDfZtZiGvwr159YNj07Ghh
        uoXpU2Aau64mTI/WW/l8KO1IOPBHg51KDiB2cdQ6licW8q7bdyUgD/e0Dnx3N+5xEbzByRHQqRFc/9QIzvWJEfa3Ytyvxx2sFyv+q6WT7gLk5v6ezvnu6yP91SwsTsvX
        C4511O7P38abA8ich490/PJyS7l/s33ZhUaiC7qYklmBbNU7ZkYZ5bc0zkHIpFxc1lymqr5UAKdPQjIVP/OMLsCXkDOxyCH8oWdY/TSNwrl84YZZZQSxTgpTluTxQrTI
        TpmliG+tF2D9LKXLZZgwq9aTScT9Kt2OhSUG4+qia23eMLq6+Af+DoDf
        AAAQAAAA
      >
      FLOATPOS 563 269 871 509
      FXID {C804D762-B992-A540-81BF-3D6C0F7FF19B}
      WAK 0
    >
  >
  <TRACK {2BB5EACD-C1BC-284E-92F6-33B7023B768F}
    NAME "ch1,3 (send)"
    PEAKCOL 16576
    BEAT -1
    AUTOMODE 0
    VOLPAN 1 0 -1 -1 1
    MUTESOLO 0 0 0
    IPHASE 0
    ISBUS 0 0
    BUSCOMP 0 0
    SHOWINMIX 1 0.6667 0.5 1 0.5 0 0 0
    FREEMODE 0
    SEL 0
    REC 0 0 0 0 0 0 0
    VU 2
    MIDICTL -1 1
    TRACKHEIGHT 0 0
    INQ 0 0 0 0.5 100 0 0 100
    NCHAN 2
    FX 1
    TRACKID {2BB5EACD-C1BC-284E-92F6-33B7023B768F}
    PERF 0
    MIDIOUT -1
    MAINSEND 1 0
    <FXCHAIN
      SHOW 0
      LASTSEL 0
      DOCKED 0
    >
    <ITEM
      POSITION 0
      SNAPOFFS 0
      LENGTH 96
      LOOP 1
      ALLTAKES 0
      FADEIN 1 0 0 1 0 0
      FADEOUT 1 0 0 1 0 0
      MUTE 0
      SEL 0
      YPOS 0 0.25
      IGUID {C32795AE-1964-714A-9971-235877DC45D5}
      IID 14
      NAME "Bass                 - National_Anthems_-_Chile.mid"
      VOLPAN 1 0 1 -1
      SOFFS 21.5 43
      PLAYRATE 1 1 0 -1 0 0.0025
      CHANMODE 0
      TAKECOLOR 26173599 B
      GUID {E3FEBC7A-021F-1445-80EA-D925A5662CF8}
      <SOURCE MIDI
        HASDATA 1 192 QN
        POOLEDEVTS {E293F809-B19C-E343-BC35-0B9EA998A5AF}
        <X 0 0
          /wNCYXNzICAgICAgICAgICAgICAgIA==
        >
        e 2299 90 2b 7f
        e 142 80 2b 40
        e 48 90 2b 7f
        e 143 80 2b 40
        e 56 90 2b 7f
        e 91 90 2c 7f
        e 3 80 2b 40
        e 43 80 2c 40
        e 56 90 2d 7f
        e 95 80 2d 40
        e 0 90 2f 7f
        e 46 80 2f 40
        e 53 90 30 7f
        e 94 80 30 40
        e 103 90 2b 7f
        e 94 80 2b 40
        e 90 90 24 7f
        e 94 80 24 40
        e 1829 90 2c 7f
        e 128 80 2c 40
        e 61 90 2c 7f
        e 128 80 2c 40
        e 67 90 2c 7f
        e 128 80 2c 40
        e 61 90 2c 7f
        e 128 80 2c 40
        e 62 90 2b 7f
        e 128 80 2b 40
        e 67 90 2b 7f
        e 129 80 2b 40
        e 81 90 2b 7f
        e 128 80 2b 40
        e 46 90 2b 7f
        e 129 80 2b 40
        e 68 90 24 7f
        e 128 80 24 40
        e 632 90 24 7f
        e 128 80 24 40
        e 67 90 24 7f
        e 81 80 24 40
        e 66 90 24 7f
        e 33 80 24 40
        e 14 90 24 7f
        e 80 80 24 40
        e 301 90 24 7f
        e 128 80 24 40
        e 252 90 24 7f
        e 129 80 24 40
        e 259 90 24 7f
        e 80 80 24 40
        e 305 90 24 7f
        e 129 80 24 40
        e 257 90 2b 7f
        e 128 80 2b 40
        e 245 90 2b 7f
        e 128 80 2b 40
        e 262 90 2b 7f
        e 128 80 2b 40
        e 262 90 2b 7f
        e 81 80 2b 40
        e 299 90 24 7f
        e 128 80 24 40
        e 257 90 24 7f
        e 129 80 24 40
        e 257 90 24 7f
        e 128 80 24 40
        e 256 90 24 7f
        e 128 80 24 40
        e 259 90 26 7f
        e 128 80 26 40
        e 253 90 26 7f
        e 128 80 26 40
        e 259 90 2b 7f
        e 128 80 2b 40
        e 50 90 2b 7f
        e 80 80 2b 40
        e 76 90 2b 7f
        e 33 80 2b 40
        e 14 90 2b 7f
        e 80 80 2b 40
        e 297 90 27 7f
        e 273 80 27 40
        e 111 90 2b 7f
        e 177 80 2b 40
        e 212 90 2e 7f
        e 177 80 2e 40
        e 207 90 2e 7f
        e 129 80 2e 40
        e 252 90 2e 7f
        e 128 80 2e 40
        e 254 90 2e 7f
        e 129 80 2e 40
        e 260 90 27 7f
        e 129 80 27 40
        e 250 90 27 7f
        e 129 80 27 40
        e 255 90 2c 7f
        e 129 80 2c 40
        e 252 90 2c 7f
        e 177 80 2c 40
        e 210 90 2b 7f
        e 129 80 2b 40
        e 60 90 2b 7f
        e 129 80 2b 40
        e 25 90 2b 7f
        e 27 80 2b 40
        e 14 90 2b 7f
        e 81 80 2b 40
        e 302 90 24 7f
        e 80 80 24 40
        e 125 90 24 7f
        e 80 80 24 40
        e 102 90 24 7f
        e 80 80 24 40
        e 114 90 24 7f
        e 80 80 24 40
        e 110 90 24 7f
        e 80 80 24 40
        e 112 90 29 7f
        e 128 80 29 40
        e 446 90 2b 7f
        e 81 80 2b 40
        e 116 90 2b 7f
        e 81 80 2b 40
        e 110 90 2b 7f
        e 80 80 2b 40
        e 112 90 2b 7f
        e 128 80 2b 40
        e 59 90 24 7f
        e 80 80 24 40
        e 115 90 24 7f
        e 80 80 24 40
        e 112 90 29 7f
        e 128 80 29 40
        e 254 90 2b 7f
        e 129 80 2b 40
        e 265 90 2b 7f
        e 128 80 2b 40
        e 242 90 24 7f
        e 128 80 24 40
        e 262 90 29 7f
        e 128 80 29 40
        e 1024 90 24 7f
        e 128 80 24 40
        e 651 90 28 7f
        e 177 80 28 40
        e 199 90 28 7f
        e 177 80 28 40
        e 206 90 28 7f
        e 128 80 28 40
        e 254 90 28 7f
        e 176 80 28 40
        e 210 90 28 7f
        e 306 80 28 40
        e 78 90 28 7f
        e 294 80 28 40
        e 859 90 28 7f
        e 177 80 28 40
        e 199 90 28 7f
        e 129 80 28 40
        e 257 90 28 7f
        e 128 80 28 40
        e 257 90 28 7f
        e 129 80 28 40
        e 259 90 28 7f
        e 278 80 28 40
        e 106 90 28 7f
        e 307 80 28 40
        e 78 90 28 7f
        e 177 80 28 40
        e 114 90 28 7f
        e 33 80 28 40
        e 57 90 28 7f
        e 128 80 28 40
        e 254 90 24 7f
        e 129 80 24 40
        e 255 90 24 7f
        e 129 80 24 40
        e 257 90 29 7f
        e 128 80 29 40
        e 259 90 29 7f
        e 81 80 29 40
        e 297 90 26 7f
        e 128 80 26 40
        e 251 90 26 7f
        e 128 80 26 40
        e 262 90 2b 7f
        e 129 80 2b 40
        e 260 90 2b 7f
        e 81 80 2b 40
        e 303 90 2b 7f
        e 129 80 2b 40
        e 249 90 2b 7f
        e 128 80 2b 40
        e 253 90 24 7f
        e 128 80 24 40
        e 264 90 24 7f
        e 128 80 24 40
        e 252 90 2b 7f
        e 129 80 2b 40
        e 257 90 2b 7f
        e 128 80 2b 40
        e 251 90 24 7f
        e 129 80 24 40
        e 647 90 2e 7f
        e 129 80 2e 40
        e 247 90 2d 7f
        e 177 80 2d 40
        e 22 90 2b 7f
        e 176 80 2b 40
        e 14 90 29 7f
        e 128 80 29 40
        e 72 90 29 7f
        e 80 80 29 40
        e 493 90 2b 7f
        e 128 80 2b 40
        e 61 90 2b 7f
        e 80 80 2b 40
        e 57 90 2b 7f
        e 33 80 2b 40
        e 17 90 2b 7f
        e 80 80 2b 40
        e 125 90 2b 7f
        e 80 80 2b 40
        e 52 90 2b 7f
        e 33 80 2b 40
        e 14 90 24 7f
        e 128 80 24 40
        e 640 90 2b 7f
        e 128 80 2b 40
        e 256 90 2b 7f
        e 128 80 2b 40
        e 256 90 24 7f
        e 80 80 24 40
        e 685 90 2b 7f
        e 128 80 2b 40
        e 259 90 2b 7f
        e 128 80 2b 40
        e 259 90 24 7f
        e 128 80 24 40
        e 1413 90 24 7f
        e 80 80 24 40
        e 107 90 24 7f
        e 80 80 24 40
        e 69 90 24 7f
        e 32 80 24 40
        e 16 90 24 7f
        e 80 80 24 40
        E 109 b0 7b 00
        GUID {8E80C119-80C9-3141-9CCC-3016900289DB}
        IGNTEMPO 0 120 4 4
        SRCCOLOR 723
        VELLANE -1 86 6
        CFGEDITVIEW 9405.117109 291.437819 50 24 0 0 0 0 0 0.5
        KEYSNAP 0
        TRACKSEL 226 0 0 ""
        EVTFILTER 0 -1 -1 -1 -1 0 1 0 0 -1 -1 -1 -1 0 -1 0 -1 -1
        CFGEDIT 1 0 0 0 0 0 1 0 1 1 1 0.25 16 63 1280 778 0 0 2 3 0 0 0 0 0 0.5 0 0 1 64
      >
      TAKE
      NAME "Bass                 - National_Anthems_-_Chile.mid"
      TAKEVOLPAN 0 1 -1
      SOFFS 21.5 43
      PLAYRATE 1 1 0 -1 0 0.0025
      CHANMODE 0
      GUID {4475D473-1155-0D42-AAD7-0D6A4E063B0B}
      <SOURCE MIDI
        HASDATA 1 192 QN
        POOLEDEVTS {CA92A74B-C900-624C-9DAB-9979DA2B67B1}
        <X 0 0
          /wNCYXNzICAgICAgICAgICAgICAgIA==
        >
        e 2299 90 2b 7f
        e 142 80 2b 40
        e 48 90 2b 7f
        e 143 80 2b 40
        e 56 90 2b 7f
        e 91 90 2c 7f
        e 3 80 2b 40
        e 43 80 2c 40
        e 56 90 2d 7f
        e 95 80 2d 40
        e 0 90 2f 7f
        e 46 80 2f 40
        e 53 90 30 7f
        e 94 80 30 40
        e 103 90 2b 7f
        e 94 80 2b 40
        e 90 90 24 7f
        e 94 80 24 40
        e 1829 90 2c 7f
        e 128 80 2c 40
        e 61 90 2c 7f
        e 128 80 2c 40
        e 67 90 2c 7f
        e 128 80 2c 40
        e 61 90 2c 7f
        e 128 80 2c 40
        e 62 90 2b 7f
        e 128 80 2b 40
        e 67 90 2b 7f
        e 129 80 2b 40
        e 81 90 2b 7f
        e 128 80 2b 40
        e 46 90 2b 7f
        e 129 80 2b 40
        e 68 90 24 7f
        e 128 80 24 40
        e 632 90 24 7f
        e 128 80 24 40
        e 67 90 24 7f
        e 81 80 24 40
        e 66 90 24 7f
        e 33 80 24 40
        e 14 90 24 7f
        e 80 80 24 40
        e 301 90 24 7f
        e 128 80 24 40
        e 252 90 24 7f
        e 129 80 24 40
        e 259 90 24 7f
        e 80 80 24 40
        e 305 90 24 7f
        e 129 80 24 40
        e 257 90 2b 7f
        e 128 80 2b 40
        e 245 90 2b 7f
        e 128 80 2b 40
        e 262 90 2b 7f
        e 128 80 2b 40
        e 262 90 2b 7f
        e 81 80 2b 40
        e 299 90 24 7f
        e 128 80 24 40
        e 257 90 24 7f
        e 129 80 24 40
        e 257 90 24 7f
        e 128 80 24 40
        e 256 90 24 7f
        e 128 80 24 40
        e 259 90 26 7f
        e 128 80 26 40
        e 253 90 26 7f
        e 128 80 26 40
        e 259 90 2b 7f
        e 128 80 2b 40
        e 50 90 2b 7f
        e 80 80 2b 40
        e 76 90 2b 7f
        e 33 80 2b 40
        e 14 90 2b 7f
        e 80 80 2b 40
        e 297 90 27 7f
        e 273 80 27 40
        e 111 90 2b 7f
        e 177 80 2b 40
        e 212 90 2e 7f
        e 177 80 2e 40
        e 207 90 2e 7f
        e 129 80 2e 40
        e 252 90 2e 7f
        e 128 80 2e 40
        e 254 90 2e 7f
        e 129 80 2e 40
        e 260 90 27 7f
        e 129 80 27 40
        e 250 90 27 7f
        e 129 80 27 40
        e 255 90 2c 7f
        e 129 80 2c 40
        e 252 90 2c 7f
        e 177 80 2c 40
        e 210 90 2b 7f
        e 129 80 2b 40
        e 60 90 2b 7f
        e 129 80 2b 40
        e 25 90 2b 7f
        e 27 80 2b 40
        e 14 90 2b 7f
        e 81 80 2b 40
        e 302 90 24 7f
        e 80 80 24 40
        e 125 90 24 7f
        e 80 80 24 40
        e 102 90 24 7f
        e 80 80 24 40
        e 114 90 24 7f
        e 80 80 24 40
        e 110 90 24 7f
        e 80 80 24 40
        e 112 90 29 7f
        e 128 80 29 40
        e 446 90 2b 7f
        e 81 80 2b 40
        e 116 90 2b 7f
        e 81 80 2b 40
        e 110 90 2b 7f
        e 80 80 2b 40
        e 112 90 2b 7f
        e 128 80 2b 40
        e 59 90 24 7f
        e 80 80 24 40
        e 115 90 24 7f
        e 80 80 24 40
        e 112 90 29 7f
        e 128 80 29 40
        e 254 90 2b 7f
        e 129 80 2b 40
        e 265 90 2b 7f
        e 128 80 2b 40
        e 242 90 24 7f
        e 128 80 24 40
        e 262 90 29 7f
        e 128 80 29 40
        e 1024 90 24 7f
        e 128 80 24 40
        e 651 90 28 7f
        e 177 80 28 40
        e 199 90 28 7f
        e 177 80 28 40
        e 206 90 28 7f
        e 128 80 28 40
        e 254 90 28 7f
        e 176 80 28 40
        e 210 90 28 7f
        e 306 80 28 40
        e 78 90 28 7f
        e 294 80 28 40
        e 859 90 28 7f
        e 177 80 28 40
        e 199 90 28 7f
        e 129 80 28 40
        e 257 90 28 7f
        e 128 80 28 40
        e 257 90 28 7f
        e 129 80 28 40
        e 259 90 28 7f
        e 278 80 28 40
        e 106 90 28 7f
        e 307 80 28 40
        e 78 90 28 7f
        e 177 80 28 40
        e 114 90 28 7f
        e 33 80 28 40
        e 57 90 28 7f
        e 128 80 28 40
        e 254 90 24 7f
        e 129 80 24 40
        e 255 90 24 7f
        e 129 80 24 40
        e 257 90 29 7f
        e 128 80 29 40
        e 259 90 29 7f
        e 81 80 29 40
        e 297 90 26 7f
        e 128 80 26 40
        e 251 90 26 7f
        e 128 80 26 40
        e 262 90 2b 7f
        e 129 80 2b 40
        e 260 90 2b 7f
        e 81 80 2b 40
        e 303 90 2b 7f
        e 129 80 2b 40
        e 249 90 2b 7f
        e 128 80 2b 40
        e 253 90 24 7f
        e 128 80 24 40
        e 264 90 24 7f
        e 128 80 24 40
        e 252 90 2b 7f
        e 129 80 2b 40
        e 257 90 2b 7f
        e 128 80 2b 40
        e 251 90 24 7f
        e 129 80 24 40
        e 647 90 2e 7f
        e 129 80 2e 40
        e 247 90 2d 7f
        e 177 80 2d 40
        e 22 90 2b 7f
        e 176 80 2b 40
        e 14 90 29 7f
        e 128 80 29 40
        e 72 90 29 7f
        e 80 80 29 40
        e 493 90 2b 7f
        e 128 80 2b 40
        e 61 90 2b 7f
        e 80 80 2b 40
        e 57 90 2b 7f
        e 33 80 2b 40
        e 17 90 2b 7f
        e 80 80 2b 40
        e 125 90 2b 7f
        e 80 80 2b 40
        e 52 90 2b 7f
        e 33 80 2b 40
        e 14 90 24 7f
        e 128 80 24 40
        e 640 90 2b 7f
        e 128 80 2b 40
        e 256 90 2b 7f
        e 128 80 2b 40
        e 256 90 24 7f
        e 80 80 24 40
        e 685 90 2b 7f
        e 128 80 2b 40
        e 259 90 2b 7f
        e 128 80 2b 40
        e 259 90 24 7f
        e 128 80 24 40
        e 1413 90 24 7f
        e 80 80 24 40
        e 107 90 24 7f
        e 80 80 24 40
        e 69 90 24 7f
        e 32 80 24 40
        e 16 90 24 7f
        e 80 80 24 40
        E 109 b0 7b 00
        GUID {9CC91F69-1621-5F49-A72C-C3439CAA67AB}
        IGNTEMPO 0 120 4 4
        SRCCOLOR 913
        VELLANE -1 86 6
        CFGEDITVIEW 0 0 50 24 0 0 0 0 0 0.5
        KEYSNAP 0
        TRACKSEL 226 0 0 ""
        EVTFILTER 0 -1 -1 -1 -1 0 1 0 0 -1 -1 -1 -1 0 -1 0 -1 -1
        CFGEDIT 1 0 0 0 0 0 1 0 1 1 1 0.25 16 63 1280 778 0 0 2 3 0 0 0 0 0 0.5 0 0 1 64
      >
    >
  >
  <TRACK {3C494A2B-9670-9740-AD22-E42CC5065FE1}
    NAME "ch2,4 (send)"
    PEAKCOL 16576
    BEAT -1
    AUTOMODE 0
    VOLPAN 1 0 -1 -1 1
    MUTESOLO 0 0 0
    IPHASE 0
    ISBUS 0 0
    BUSCOMP 0 0
    SHOWINMIX 1 0.6667 0.5 1 0.5 0 0 0
    FREEMODE 0
    SEL 0
    REC 0 0 0 0 0 0 0
    VU 2
    MIDICTL -1 1
    TRACKHEIGHT 0 0
    INQ 0 0 0 0.5 100 0 0 100
    NCHAN 2
    FX 1
    TRACKID {3C494A2B-9670-9740-AD22-E42CC5065FE1}
    PERF 0
    MIDIOUT -1
    MAINSEND 1 0
    <FXCHAIN
      WNDRECT 32 359 724 387
      SHOW 0
      LASTSEL 0
      DOCKED 0
    >
    <ITEM
      POSITION 0
      SNAPOFFS 0
      LENGTH 96
      LOOP 1
      ALLTAKES 0
      FADEIN 1 0 0 1 0 0
      FADEOUT 1 0 0 1 0 0
      MUTE 0
      SEL 0
      YPOS 0.25 0.25
      IGUID {4D18F0CB-5646-7A42-8A63-551A7B2D248D}
      IID 12
      NAME "Accompany.RH         - National_Anthems_-_Chile.mid"
      VOLPAN 1 0 1 -1
      SOFFS 21.5 43
      PLAYRATE 1 1 0 -1 0 0.0025
      CHANMODE 0
      TAKECOLOR 26173599 B
      GUID {2ECEDC1D-6D5D-284C-8A6A-819964F022DD}
      <SOURCE MIDI
        HASDATA 1 192 QN
        POOLEDEVTS {4B9CA648-BDD9-C142-93BF-43E9CF5708CB}
        <X 0 0
          /wNBY2NvbXBhbnkuUkggICAgICAgIA==
        >
        e 720 90 4f 6e
        e 16 90 51 6e
        e 6 80 4f 40
        e 2 90 53 6e
        e 14 80 51 40
        e 8 80 53 40
        e 2 90 48 6e
        e 0 90 54 6e
        e 334 80 48 40
        e 0 80 54 40
        e 2 90 47 6e
        e 0 90 53 6e
        e 46 80 47 40
        e 0 80 53 40
        e 2 90 48 6e
        e 0 90 54 6e
        e 142 80 48 40
        e 0 80 54 40
        e 2 90 44 6e
        e 0 90 50 6e
        e 46 80 44 40
        e 0 80 50 40
        e 2 90 45 6e
        e 0 90 51 6e
        e 142 80 45 40
        e 0 80 51 40
        e 2 90 40 6e
        e 0 90 4c 6e
        e 46 80 40 40
        e 0 80 4c 40
        e 2 90 41 6e
        e 0 90 4d 6e
        e 142 80 41 40
        e 0 80 4d 40
        e 2 90 3d 6e
        e 0 90 49 6e
        e 46 80 3d 40
        e 0 80 49 40
        e 2 90 3e 6e
        e 0 90 4a 6e
        e 142 80 3e 40
        e 0 80 4a 40
        e 2 90 3a 6e
        e 0 90 46 6e
        e 46 80 3a 40
        e 0 80 46 40
        e 2 90 3b 6e
        e 0 90 47 6e
        e 190 80 3b 40
        e 0 80 47 40
        e 50 90 43 6e
        e 22 80 43 40
        e 2 90 45 6e
        e 22 80 45 40
        e 2 90 47 6e
        e 22 80 47 40
        e 2 90 48 6e
        e 22 80 48 40
        e 2 90 4a 6e
        e 22 80 4a 40
        e 2 90 4c 6e
        e 22 80 4c 40
        e 98 90 47 6e
        e 0 90 4a 6e
        e 0 90 4d 6e
        e 46 80 47 40
        e 0 80 4a 40
        e 0 80 4d 40
        e 2 90 47 6e
        e 0 90 4a 6e
        e 0 90 4d 6e
        e 46 80 47 40
        e 0 80 4a 40
        e 0 80 4d 40
        e 2 90 47 6e
        e 0 90 4a 6e
        e 0 90 4d 6e
        e 94 80 47 40
        e 0 80 4a 40
        e 0 80 4d 40
        e 2 90 47 6e
        e 0 90 4a 6e
        e 0 90 4d 6e
        e 94 80 47 40
        e 0 80 4a 40
        e 0 80 4d 40
        e 2 90 47 6e
        e 0 90 4a 6e
        e 0 90 4d 6e
        e 94 80 47 40
        e 0 80 4a 40
        e 0 80 4d 40
        e 2 90 47 6e
        e 0 90 4a 6e
        e 0 90 4d 6e
        e 94 80 47 40
        e 0 80 4a 40
        e 0 80 4d 40
        e 2 90 48 6e
        e 0 90 4d 6e
        e 94 80 48 40
        e 0 80 4d 40
        e 2 90 4a 6e
        e 0 90 4d 6e
        e 94 80 4a 40
        e 0 80 4d 40
        e 2 90 43 6e
        e 0 90 48 6e
        e 0 90 4c 6e
        e 94 80 43 40
        e 0 80 48 40
        e 0 80 4c 40
        e 2 90 4c 6e
        e 46 80 4c 40
        e 2 90 4d 6e
        e 46 80 4d 40
        e 2 90 41 6e
        e 0 90 47 6e
        e 0 90 4a 6e
        e 94 80 41 40
        e 0 80 47 40
        e 0 80 4a 40
        e 2 90 4a 6e
        e 46 80 4a 40
        e 2 90 4c 6e
        e 46 80 4c 40
        e 2 90 40 6e
        e 0 90 48 6e
        e 190 80 40 40
        e 0 80 48 40
        e 26 90 48 6e
        e 22 80 48 40
        e 2 90 4a 6e
        e 22 80 4a 40
        e 2 90 4c 6e
        e 22 80 4c 40
        e 2 90 4d 6e
        e 22 80 4d 40
        e 2 90 4f 6e
        e 22 80 4f 40
        e 2 90 51 6e
        e 22 80 51 40
        e 2 90 53 6e
        e 22 80 53 40
        e 2 90 54 6e
        e 94 80 54 40
        e 2 90 51 6e
        e 0 90 54 6e
        e 46 80 51 40
        e 0 80 54 40
        e 2 90 51 6e
        e 0 90 54 6e
        e 46 80 51 40
        e 0 80 54 40
        e 2 90 51 6e
        e 0 90 54 6e
        e 94 80 51 40
        e 0 80 54 40
        e 2 90 51 6e
        e 0 90 54 6e
        e 94 80 51 40
        e 0 80 54 40
        e 2 90 51 6e
        e 0 90 54 6e
        e 94 80 51 40
        e 0 80 54 40
        e 2 90 50 6e
        e 0 90 53 6e
        e 46 80 50 40
        e 0 80 53 40
        e 2 90 51 6e
        e 0 90 54 6e
        e 46 80 51 40
        e 0 80 54 40
        e 2 90 53 6e
        e 0 90 56 6e
        e 46 80 53 40
        e 0 80 56 40
        e 2 90 51 6e
        e 0 90 54 6e
        e 46 80 51 40
        e 0 80 54 40
        e 2 90 4f 6e
        e 0 90 53 6e
        e 46 80 4f 40
        e 0 80 53 40
        e 2 90 4d 6e
        e 0 90 51 6e
        e 46 80 4d 40
        e 0 80 51 40
        e 2 90 4c 6e
        e 0 90 4f 6e
        e 94 80 4c 40
        e 0 80 4f 40
        e 2 90 4f 6e
        e 46 80 4f 40
        e 2 90 51 6e
        e 46 80 51 40
        e 2 90 4a 6e
        e 0 90 4d 6e
        e 94 80 4a 40
        e 0 80 4d 40
        e 2 90 4d 6e
        e 46 80 4d 40
        e 2 90 4f 6e
        e 46 80 4f 40
        e 2 90 48 6e
        e 0 90 4c 6e
        e 190 80 48 40
        e 0 80 4c 40
        e 26 90 3c 6e
        e 22 80 3c 40
        e 2 90 3e 6e
        e 22 80 3e 40
        e 2 90 40 6e
        e 22 80 40 40
        e 2 90 41 6e
        e 22 80 41 40
        e 2 90 43 6e
        e 22 80 43 40
        e 2 90 45 6e
        e 22 80 45 40
        e 2 90 47 6e
        e 22 80 47 40
        e 2 90 48 6e
        e 80 80 48 40
        e 16 90 3c 6e
        e 0 90 3f 6e
        e 0 90 44 6e
        e 0 90 48 6e
        e 32 80 3c 40
        e 0 80 3f 40
        e 0 80 44 40
        e 0 80 48 40
        e 16 90 3c 6e
        e 0 90 3f 6e
        e 0 90 44 6e
        e 0 90 48 6e
        e 32 80 3c 40
        e 0 80 3f 40
        e 0 80 44 40
        e 0 80 48 40
        e 16 90 3c 6e
        e 0 90 3f 6e
        e 0 90 44 6e
        e 0 90 48 6e
        e 80 80 3c 40
        e 0 80 3f 40
        e 0 80 44 40
        e 0 80 48 40
        e 16 90 3c 6e
        e 0 90 3f 6e
        e 0 90 44 6e
        e 0 90 48 6e
        e 80 80 3c 40
        e 0 80 3f 40
        e 0 80 44 40
        e 0 80 48 40
        e 16 90 3c 6e
        e 0 90 3f 6e
        e 0 90 44 6e
        e 0 90 48 6e
        e 80 80 3c 40
        e 0 80 3f 40
        e 0 80 44 40
        e 0 80 48 40
        e 16 90 3e 6e
        e 0 90 48 6e
        e 0 90 4a 6e
        e 80 80 3e 40
        e 0 80 48 40
        e 0 80 4a 40
        e 16 90 3f 6e
        e 0 90 48 6e
        e 0 90 4b 6e
        e 80 80 3f 40
        e 0 80 48 40
        e 0 80 4b 40
        e 16 90 42 6e
        e 0 90 48 6e
        e 0 90 4b 6e
        e 0 90 4e 6e
        e 80 80 42 40
        e 0 80 48 40
        e 0 80 4b 40
        e 0 80 4e 40
        e 16 90 43 6e
        e 0 90 48 6e
        e 0 90 4c 6e
        e 0 90 4f 6e
        e 80 80 43 40
        e 0 80 48 40
        e 0 80 4c 40
        e 0 80 4f 40
        e 16 90 43 6e
        e 0 90 48 6e
        e 0 90 4c 6e
        e 0 90 4f 6e
        e 32 80 43 40
        e 0 80 48 40
        e 0 80 4c 40
        e 0 80 4f 40
        e 16 90 43 6e
        e 0 90 48 6e
        e 0 90 4c 6e
        e 0 90 4f 6e
        e 32 80 43 40
        e 0 80 48 40
        e 0 80 4c 40
        e 0 80 4f 40
        e 16 90 43 6e
        e 0 90 48 6e
        e 0 90 4c 6e
        e 80 80 43 40
        e 0 80 48 40
        e 0 80 4c 40
        e 16 90 43 6e
        e 0 90 48 6e
        e 0 90 4c 6e
        e 80 80 43 40
        e 0 80 48 40
        e 0 80 4c 40
        e 16 90 43 6e
        e 0 90 47 6e
        e 0 90 4a 6e
        e 0 90 4f 6e
        e 80 80 43 40
        e 0 80 47 40
        e 0 80 4a 40
        e 0 80 4f 40
        e 16 90 43 6e
        e 0 90 47 6e
        e 0 90 4a 6e
        e 0 90 4f 6e
        e 32 80 43 40
        e 0 80 47 40
        e 0 80 4a 40
        e 0 80 4f 40
        e 16 90 43 6e
        e 0 90 47 6e
        e 0 90 4a 6e
        e 0 90 4f 6e
        e 32 80 43 40
        e 0 80 47 40
        e 0 80 4a 40
        e 0 80 4f 40
        e 16 90 43 6e
        e 0 90 47 6e
        e 0 90 4a 6e
        e 80 80 43 40
        e 0 80 47 40
        e 0 80 4a 40
        e 16 90 43 6e
        e 0 90 47 6e
        e 0 90 4a 6e
        e 32 80 43 40
        e 0 80 47 40
        e 0 80 4a 40
        e 64 90 40 6e
        e 0 90 43 6e
        e 0 90 48 6e
        e 176 80 40 40
        e 0 80 43 40
        e 0 80 48 40
        e 112 90 43 6e
        e 16 80 43 40
        e 16 90 45 6e
        e 16 80 45 40
        e 16 90 47 6e
        e 16 80 47 40
        e 16 90 48 6e
        e 80 80 48 40
        e 16 90 43 6e
        e 16 80 43 40
        e 16 90 45 6e
        e 16 80 45 40
        e 16 90 47 6e
        e 16 80 47 40
        e 16 90 48 6e
        e 80 80 48 40
        e 16 90 43 6e
        e 16 80 43 40
        e 16 90 45 6e
        e 16 80 45 40
        e 16 90 47 6e
        e 16 80 47 40
        e 16 90 48 6e
        e 176 80 48 40
        e 16 90 40 6e
        e 0 90 43 6e
        e 0 90 48 6e
        e 128 80 40 40
        e 0 80 43 40
        e 0 80 48 40
        e 16 90 40 6e
        e 0 90 43 6e
        e 0 90 48 6e
        e 32 80 40 40
        e 0 80 43 40
        e 0 80 48 40
        e 16 90 40 6e
        e 0 90 43 6e
        e 0 90 48 6e
        e 176 80 40 40
        e 0 80 43 40
        e 0 80 48 40
        e 16 90 43 6e
        e 128 80 43 40
        e 16 90 48 6e
        e 32 80 48 40
        e 16 90 40 6e
        e 0 90 48 6e
        e 128 80 40 40
        e 0 80 48 40
        e 16 90 43 6e
        e 0 90 47 6e
        e 32 80 43 40
        e 0 80 47 40
        e 16 90 43 6e
        e 0 90 47 6e
        e 128 80 43 40
        e 0 80 47 40
        e 16 90 41 6e
        e 0 90 45 6e
        e 32 80 41 40
        e 0 80 45 40
        e 16 90 41 6e
        e 0 90 45 6e
        e 128 80 41 40
        e 0 80 45 40
        e 16 90 40 6e
        e 0 90 43 6e
        e 32 80 40 40
        e 0 80 43 40
        e 16 90 40 6e
        e 0 90 43 6e
        e 128 80 40 40
        e 0 80 43 40
        e 16 90 3f 6e
        e 0 90 42 6e
        e 32 80 3f 40
        e 0 80 42 40
        e 16 90 40 6e
        e 0 90 43 6e
        e 272 80 40 40
        e 0 80 43 40
        e 16 90 3e 6e
        e 0 90 41 6e
        e 80 80 3e 40
        e 0 80 41 40
        e 16 90 3c 6e
        e 0 90 40 6e
        e 176 80 3c 40
        e 0 80 40 40
        e 16 90 3b 6e
        e 0 90 3e 6e
        e 128 80 3b 40
        e 0 80 3e 40
        e 16 90 3c 6e
        e 0 90 40 6e
        e 32 80 3c 40
        e 0 80 40 40
        e 16 90 3e 6e
        e 0 90 41 6e
        e 80 80 3e 40
        e 0 80 41 40
        e 112 90 3e 6e
        e 0 90 41 6e
        e 80 80 3e 40
        e 0 80 41 40
        e 112 90 3c 6e
        e 0 90 40 6e
        e 80 80 3c 40
        e 0 80 40 40
        e 112 90 3c 6e
        e 0 90 40 6e
        e 80 80 3c 40
        e 0 80 40 40
        e 112 90 3b 6e
        e 0 90 3e 6e
        e 0 90 43 6e
        e 80 80 3b 40
        e 0 80 3e 40
        e 0 80 43 40
        e 16 90 3b 6e
        e 0 90 3e 6e
        e 0 90 43 6e
        e 32 80 3b 40
        e 0 80 3e 40
        e 0 80 43 40
        e 16 90 3b 6e
        e 0 90 3e 6e
        e 0 90 43 6e
        e 32 80 3b 40
        e 0 80 3e 40
        e 0 80 43 40
        e 16 90 3b 6e
        e 0 90 3e 6e
        e 0 90 43 6e
        e 80 80 3b 40
        e 0 80 3e 40
        e 0 80 43 40
        e 16 90 3b 6e
        e 0 90 3e 6e
        e 0 90 43 6e
        e 80 80 3b 40
        e 0 80 3e 40
        e 0 80 43 40
        e 16 90 3b 6e
        e 0 90 3e 6e
        e 0 90 43 6e
        e 80 80 3b 40
        e 0 80 3e 40
        e 0 80 43 40
        e 304 90 40 6e
        e 0 90 48 6e
        e 128 80 40 40
        e 0 80 48 40
        e 16 90 43 6e
        e 0 90 47 6e
        e 32 80 43 40
        e 0 80 47 40
        e 16 90 43 6e
        e 0 90 47 6e
        e 128 80 43 40
        e 0 80 47 40
        e 16 90 41 6e
        e 0 90 45 6e
        e 32 80 41 40
        e 0 80 45 40
        e 16 90 41 6e
        e 0 90 45 6e
        e 128 80 41 40
        e 0 80 45 40
        e 16 90 40 6e
        e 0 90 43 6e
        e 32 80 40 40
        e 0 80 43 40
        e 16 90 40 6e
        e 0 90 43 6e
        e 128 80 40 40
        e 0 80 43 40
        e 16 90 3f 6e
        e 0 90 42 6e
        e 32 80 3f 40
        e 0 80 42 40
        e 16 90 40 6e
        e 0 90 43 6e
        e 272 80 40 40
        e 0 80 43 40
        e 16 90 3e 6e
        e 0 90 41 6e
        e 80 80 3e 40
        e 0 80 41 40
        e 16 90 3c 6e
        e 0 90 40 6e
        e 176 80 3c 40
        e 0 80 40 40
        e 16 90 3c 6e
        e 0 90 40 6e
        e 128 80 3c 40
        e 0 80 40 40
        e 16 90 3c 6e
        e 0 90 40 6e
        e 32 80 3c 40
        e 0 80 40 40
        e 16 90 3b 6e
        e 0 90 3e 6e
        e 0 90 43 6e
        e 80 80 3b 40
        e 0 80 3e 40
        e 0 80 43 40
        e 112 90 3b 6e
        e 0 90 3e 6e
        e 0 90 43 6e
        e 80 80 3b 40
        e 0 80 3e 40
        e 0 80 43 40
        e 112 90 39 6e
        e 0 90 3e 6e
        e 0 90 42 6e
        e 80 80 39 40
        e 0 80 3e 40
        e 0 80 42 40
        e 112 90 39 6e
        e 0 90 3e 6e
        e 0 90 42 6e
        e 80 80 39 40
        e 0 80 3e 40
        e 0 80 42 40
        e 112 90 3b 6e
        e 0 90 3e 6e
        e 0 90 43 6e
        e 176 80 3b 40
        e 0 80 3e 40
        e 0 80 43 40
        e 16 90 3b 6e
        e 0 90 3e 6e
        e 0 90 43 6e
        e 128 80 3b 40
        e 0 80 3e 40
        e 0 80 43 40
        e 16 90 3b 6e
        e 0 90 3e 6e
        e 0 90 43 6e
        e 32 80 3b 40
        e 0 80 3e 40
        e 0 80 43 40
        e 16 90 3b 6e
        e 0 90 3e 6e
        e 0 90 43 6e
        e 176 80 3b 40
        e 0 80 3e 40
        e 0 80 43 40
        e 208 90 3f 6e
        e 0 90 43 6e
        e 80 80 3f 40
        e 0 80 43 40
        e 16 90 3a 6e
        e 80 80 3a 40
        e 16 90 3f 6e
        e 0 90 43 6e
        e 80 80 3f 40
        e 0 80 43 40
        e 16 90 3a 6e
        e 80 80 3a 40
        e 16 90 41 6e
        e 0 90 44 6e
        e 80 80 41 40
        e 0 80 44 40
        e 16 90 3f 6e
        e 0 90 43 6e
        e 80 80 3f 40
        e 0 80 43 40
        e 16 90 3e 6e
        e 0 90 41 6e
        e 80 80 3e 40
        e 0 80 41 40
        e 16 90 3f 6e
        e 0 90 43 6e
        e 80 80 3f 40
        e 0 80 43 40
        e 16 90 41 6e
        e 0 90 44 6e
        e 80 80 41 40
        e 0 80 44 40
        e 16 90 3a 6e
        e 80 80 3a 40
        e 16 90 41 6e
        e 0 90 44 6e
        e 80 80 41 40
        e 0 80 44 40
        e 16 90 3a 6e
        e 80 80 3a 40
        e 16 90 3e 6e
        e 0 90 41 6e
        e 80 80 3e 40
        e 0 80 41 40
        e 16 90 3a 6e
        e 80 80 3a 40
        e 16 90 3e 6e
        e 0 90 41 6e
        e 80 80 3e 40
        e 0 80 41 40
        e 16 90 3a 6e
        e 80 80 3a 40
        e 16 90 41 6e
        e 0 90 44 6e
        e 80 80 41 40
        e 0 80 44 40
        e 16 90 3a 6e
        e 80 80 3a 40
        e 16 90 41 6e
        e 0 90 44 6e
        e 80 80 41 40
        e 0 80 44 40
        e 16 90 3a 6e
        e 80 80 3a 40
        e 16 90 43 6e
        e 0 90 46 6e
        e 80 80 43 40
        e 0 80 46 40
        e 16 90 41 6e
        e 0 90 44 6e
        e 80 80 41 40
        e 0 80 44 40
        e 16 90 3f 6e
        e 0 90 43 6e
        e 80 80 3f 40
        e 0 80 43 40
        e 16 90 41 6e
        e 0 90 44 6e
        e 80 80 41 40
        e 0 80 44 40
        e 16 90 43 6e
        e 0 90 46 6e
        e 80 80 43 40
        e 0 80 46 40
        e 16 90 3a 6e
        e 80 80 3a 40
        e 16 90 43 6e
        e 0 90 46 6e
        e 80 80 43 40
        e 0 80 46 40
        e 16 90 41 6e
        e 0 90 44 6e
        e 80 80 41 40
        e 0 80 44 40
        e 16 90 3f 6e
        e 0 90 43 6e
        e 80 80 3f 40
        e 0 80 43 40
        e 16 90 3a 6e
        e 80 80 3a 40
        e 16 90 3f 6e
        e 0 90 43 6e
        e 80 80 3f 40
        e 0 80 43 40
        e 16 90 3a 6e
        e 80 80 3a 40
        e 16 90 3c 6e
        e 0 90 3f 6e
        e 176 80 3c 40
        e 0 80 3f 40
        e 16 90 3c 6e
        e 0 90 3f 6e
        e 128 80 3c 40
        e 0 80 3f 40
        e 16 90 3c 6e
        e 0 90 3f 6e
        e 32 80 3c 40
        e 0 80 3f 40
        e 16 90 3c 6e
        e 0 90 3f 6e
        e 176 80 3c 40
        e 0 80 3f 40
        e 16 90 3c 6e
        e 0 90 3f 6e
        e 0 90 42 6e
        e 176 80 3c 40
        e 0 80 3f 40
        e 0 80 42 40
        e 16 90 3b 6e
        e 0 90 3e 6e
        e 0 90 43 6e
        e 176 80 3b 40
        e 0 80 3e 40
        e 0 80 43 40
        e 16 90 3b 6e
        e 0 90 3e 6e
        e 0 90 43 6e
        e 128 80 3b 40
        e 0 80 3e 40
        e 0 80 43 40
        e 16 90 3b 6e
        e 0 90 3e 6e
        e 0 90 43 6e
        e 32 80 3b 40
        e 0 80 3e 40
        e 0 80 43 40
        e 16 90 3b 6e
        e 0 90 3e 6e
        e 0 90 43 6e
        e 176 80 3b 40
        e 0 80 3e 40
        e 0 80 43 40
        e 16 90 3c 6e
        e 0 90 40 6e
        e 128 80 3c 40
        e 0 80 40 40
        e 16 90 3c 6e
        e 0 90 40 6e
        e 32 80 3c 40
        e 0 80 40 40
        e 16 90 3c 6e
        e 0 90 40 6e
        e 128 80 3c 40
        e 0 80 40 40
        e 16 90 3b 6e
        e 0 90 3e 6e
        e 32 80 3b 40
        e 0 80 3e 40
        e 16 90 3c 6e
        e 0 90 40 6e
        e 128 80 3c 40
        e 0 80 40 40
        e 16 90 3b 6e
        e 0 90 3e 6e
        e 32 80 3b 40
        e 0 80 3e 40
        e 16 90 3c 6e
        e 0 90 40 6e
        e 128 80 3c 40
        e 0 80 40 40
        e 16 90 3b 6e
        e 0 90 3e 6e
        e 32 80 3b 40
        e 0 80 3e 40
        e 16 90 3c 6e
        e 0 90 40 6e
        e 128 80 3c 40
        e 0 80 40 40
        e 16 90 3e 6e
        e 0 90 41 6e
        e 32 80 3e 40
        e 0 80 41 40
        e 16 90 40 6e
        e 0 90 43 6e
        e 176 80 40 40
        e 0 80 43 40
        e 16 90 41 6e
        e 0 90 45 6e
        e 368 80 41 40
        e 0 80 45 40
        e 16 90 3b 6e
        e 0 90 3e 6e
        e 128 80 3b 40
        e 0 80 3e 40
        e 16 90 3b 6e
        e 0 90 3e 6e
        e 32 80 3b 40
        e 0 80 3e 40
        e 16 90 3b 6e
        e 0 90 3e 6e
        e 128 80 3b 40
        e 0 80 3e 40
        e 16 90 39 6e
        e 0 90 3c 6e
        e 32 80 39 40
        e 0 80 3c 40
        e 16 90 3b 6e
        e 0 90 3e 6e
        e 128 80 3b 40
        e 0 80 3e 40
        e 16 90 39 6e
        e 0 90 3c 6e
        e 32 80 39 40
        e 0 80 3c 40
        e 16 90 3b 6e
        e 0 90 3e 6e
        e 128 80 3b 40
        e 0 80 3e 40
        e 16 90 3c 6e
        e 0 90 40 6e
        e 32 80 3c 40
        e 0 80 40 40
        e 16 90 3e 6e
        e 0 90 41 6e
        e 128 80 3e 40
        e 0 80 41 40
        e 16 90 3f 6e
        e 0 90 42 6e
        e 32 80 3f 40
        e 0 80 42 40
        e 16 90 41 6e
        e 0 90 45 6e
        e 176 80 41 40
        e 0 80 45 40
        e 16 90 40 6e
        e 0 90 43 6e
        e 80 80 40 40
        e 0 80 43 40
        e 304 90 3c 6e
        e 0 90 41 6e
        e 0 90 45 6e
        e 176 80 3c 40
        e 0 80 41 40
        e 0 80 45 40
        e 208 90 3c 6e
        e 0 90 40 6e
        e 0 90 43 6e
        e 176 80 3c 40
        e 0 80 40 40
        e 0 80 43 40
        e 208 90 3b 6e
        e 0 90 3e 6e
        e 0 90 41 6e
        e 176 80 3b 40
        e 0 80 3e 40
        e 0 80 41 40
        e 208 90 3c 6e
        e 0 90 40 6e
        e 176 80 3c 40
        e 0 80 40 40
        e 16 90 41 6e
        e 0 90 45 6e
        e 128 80 41 40
        e 0 80 45 40
        e 16 90 43 6e
        e 0 90 47 6e
        e 32 80 43 40
        e 0 80 47 40
        e 16 90 45 6e
        e 0 90 48 6e
        e 48 80 45 40
        e 0 80 48 40
        e 16 90 43 6e
        e 0 90 47 6e
        e 48 80 43 40
        e 0 80 47 40
        e 16 90 41 6e
        e 0 90 45 6e
        e 48 80 41 40
        e 0 80 45 40
        e 16 90 40 6e
        e 0 90 43 6e
        e 128 80 40 40
        e 0 80 43 40
        e 16 90 45 6e
        e 0 90 48 6e
        e 32 80 45 40
        e 0 80 48 40
        e 16 90 45 6e
        e 0 90 48 6e
        e 48 80 45 40
        e 0 80 48 40
        e 16 90 43 6e
        e 0 90 47 6e
        e 48 80 43 40
        e 0 80 47 40
        e 16 90 41 6e
        e 0 90 45 6e
        e 48 80 41 40
        e 0 80 45 40
        e 16 90 41 6e
        e 0 90 45 6e
        e 48 80 41 40
        e 0 80 45 40
        e 16 90 40 6e
        e 0 90 43 6e
        e 48 80 40 40
        e 0 80 43 40
        e 16 90 3e 6e
        e 0 90 41 6e
        e 48 80 3e 40
        e 0 80 41 40
        e 16 90 3e 6e
        e 0 90 41 6e
        e 48 80 3e 40
        e 0 80 41 40
        e 16 90 3c 6e
        e 0 90 40 6e
        e 48 80 3c 40
        e 0 80 40 40
        e 16 90 37 6e
        e 0 90 3b 6e
        e 48 80 37 40
        e 0 80 3b 40
        e 16 90 34 6e
        e 0 90 3c 6e
        e 80 80 34 40
        e 0 80 3c 40
        e 16 90 40 6e
        e 32 80 40 40
        e 16 90 40 6e
        e 32 80 40 40
        e 16 90 40 6e
        e 80 80 40 40
        e 16 90 40 6e
        e 32 80 40 40
        e 64 90 40 6e
        e 80 80 40 40
        e 16 90 40 6e
        e 32 80 40 40
        e 64 90 40 6e
        e 80 80 40 40
        e 16 90 40 6e
        e 32 80 40 40
        e 64 90 47 6e
        e 0 90 4c 6e
        e 32 80 47 40
        e 0 80 4c 40
        e 16 90 50 6e
        e 32 80 50 40
        e 16 90 47 6e
        e 0 90 4c 6e
        e 32 80 47 40
        e 0 80 4c 40
        e 16 90 50 6e
        e 32 80 50 40
        e 16 90 47 6e
        e 0 90 4c 6e
        e 32 80 47 40
        e 0 80 4c 40
        e 16 90 50 6e
        e 32 80 50 40
        e 16 90 47 6e
        e 0 90 4c 6e
        e 32 80 47 40
        e 0 80 4c 40
        e 16 90 50 6e
        e 32 80 50 40
        e 16 90 47 6e
        e 0 90 4c 6e
        e 32 80 47 40
        e 0 80 4c 40
        e 16 90 50 6e
        e 32 80 50 40
        e 16 90 47 6e
        e 0 90 4c 6e
        e 32 80 47 40
        e 0 80 4c 40
        e 16 90 50 6e
        e 32 80 50 40
        e 16 90 48 6e
        e 0 90 4c 6e
        e 32 80 48 40
        e 0 80 4c 40
        e 16 90 51 6e
        e 32 80 51 40
        e 16 90 48 6e
        e 0 90 4c 6e
        e 32 80 48 40
        e 0 80 4c 40
        e 16 90 51 6e
        e 32 80 51 40
        e 16 90 4a 6e
        e 0 90 4c 6e
        e 32 80 4a 40
        e 0 80 4c 40
        e 16 90 53 6e
        e 32 80 53 40
        e 16 90 4a 6e
        e 0 90 4c 6e
        e 32 80 4a 40
        e 0 80 4c 40
        e 16 90 53 6e
        e 32 80 53 40
        e 16 90 4a 6e
        e 0 90 4c 6e
        e 32 80 4a 40
        e 0 80 4c 40
        e 16 90 53 6e
        e 32 80 53 40
        e 16 90 4a 6e
        e 0 90 4c 6e
        e 32 80 4a 40
        e 0 80 4c 40
        e 16 90 53 6e
        e 32 80 53 40
        e 16 90 4a 6e
        e 0 90 4c 6e
        e 32 80 4a 40
        e 0 80 4c 40
        e 16 90 53 6e
        e 32 80 53 40
        e 16 90 4a 6e
        e 0 90 4c 6e
        e 32 80 4a 40
        e 0 80 4c 40
        e 16 90 53 6e
        e 32 80 53 40
        e 16 90 47 6e
        e 0 90 4c 6e
        e 32 80 47 40
        e 0 80 4c 40
        e 16 90 50 6e
        e 32 80 50 40
        e 16 90 47 6e
        e 0 90 4c 6e
        e 32 80 47 40
        e 0 80 4c 40
        e 16 90 50 6e
        e 32 80 50 40
        e 16 90 48 6e
        e 0 90 4c 6e
        e 32 80 48 40
        e 0 80 4c 40
        e 16 90 51 6e
        e 32 80 51 40
        e 16 90 48 6e
        e 0 90 4c 6e
        e 32 80 48 40
        e 0 80 4c 40
        e 16 90 51 6e
        e 32 80 51 40
        e 16 90 48 6e
        e 0 90 4c 6e
        e 32 80 48 40
        e 0 80 4c 40
        e 16 90 51 6e
        e 32 80 51 40
        e 16 90 48 6e
        e 0 90 4c 6e
        e 32 80 48 40
        e 0 80 4c 40
        e 16 90 51 6e
        e 32 80 51 40
        e 16 90 48 6e
        e 0 90 51 6e
        e 128 80 48 40
        e 0 80 51 40
        e 16 90 47 6e
        e 0 90 50 6e
        e 32 80 47 40
        e 0 80 50 40
        e 16 90 48 6e
        e 0 90 51 6e
        e 128 80 48 40
        e 0 80 51 40
        e 16 90 4a 6e
        e 0 90 53 6e
        e 32 80 4a 40
        e 0 80 53 40
        e 16 90 47 6e
        e 0 90 50 6e
        e 96 90 40 6e
        e 0 90 4c 6e
        e 32 80 47 40
        e 0 80 50 40
        e 0 80 40 40
        e 0 80 4c 40
        e 16 90 40 6e
        e 0 90 4c 6e
        e 32 80 40 40
        e 0 80 4c 40
        e 16 90 40 6e
        e 0 90 4c 6e
        e 80 80 40 40
        e 0 80 4c 40
        e 16 90 40 6e
        e 0 90 4c 6e
        e 80 80 40 40
        e 0 80 4c 40
        e 16 90 40 6e
        e 0 90 4c 6e
        e 80 80 40 40
        e 0 80 4c 40
        e 16 90 40 6e
        e 0 90 4c 6e
        e 32 80 40 40
        e 0 80 4c 40
        e 16 90 40 6e
        e 0 90 4c 6e
        e 32 80 40 40
        e 0 80 4c 40
        e 16 90 40 6e
        e 0 90 4c 6e
        e 80 80 40 40
        e 0 80 4c 40
        e 16 90 40 6e
        e 0 90 4c 6e
        e 80 80 40 40
        e 0 80 4c 40
        e 16 90 47 6e
        e 32 80 47 40
        e 16 90 4c 6e
        e 32 80 4c 40
        e 16 90 50 6e
        e 32 80 50 40
        e 16 90 4c 6e
        e 32 80 4c 40
        e 16 90 47 6e
        e 32 80 47 40
        e 16 90 4c 6e
        e 32 80 4c 40
        e 16 90 50 6e
        e 32 80 50 40
        e 16 90 4c 6e
        e 32 80 4c 40
        e 16 90 47 6e
        e 32 80 47 40
        e 16 90 4c 6e
        e 32 80 4c 40
        e 16 90 50 6e
        e 32 80 50 40
        e 16 90 4c 6e
        e 32 80 4c 40
        e 16 90 48 6e
        e 32 80 48 40
        e 16 90 4c 6e
        e 32 80 4c 40
        e 16 90 51 6e
        e 32 80 51 40
        e 16 90 4c 6e
        e 32 80 4c 40
        e 16 90 4a 6e
        e 32 80 4a 40
        e 16 90 4c 6e
        e 32 80 4c 40
        e 16 90 53 6e
        e 32 80 53 40
        e 16 90 4c 6e
        e 32 80 4c 40
        e 16 90 4a 6e
        e 32 80 4a 40
        e 16 90 4c 6e
        e 32 80 4c 40
        e 16 90 53 6e
        e 32 80 53 40
        e 16 90 4c 6e
        e 32 80 4c 40
        e 16 90 4a 6e
        e 32 80 4a 40
        e 16 90 4c 6e
        e 32 80 4c 40
        e 16 90 53 6e
        e 32 80 53 40
        e 16 90 4c 6e
        e 32 80 4c 40
        e 16 90 47 6e
        e 32 80 47 40
        e 16 90 4c 6e
        e 32 80 4c 40
        e 16 90 50 6e
        e 32 80 50 40
        e 16 90 4c 6e
        e 32 80 4c 40
        e 16 90 48 6e
        e 32 80 48 40
        e 16 90 4c 6e
        e 32 80 4c 40
        e 16 90 51 6e
        e 32 80 51 40
        e 16 90 4c 6e
        e 32 80 4c 40
        e 16 90 48 6e
        e 32 80 48 40
        e 16 90 4c 6e
        e 32 80 4c 40
        e 16 90 51 6e
        e 32 80 51 40
        e 16 90 4c 6e
        e 32 80 4c 40
        e 16 90 48 6e
        e 32 80 48 40
        e 16 90 4b 6e
        e 32 80 4b 40
        e 16 90 51 6e
        e 32 80 51 40
        e 16 90 4b 6e
        e 32 80 4b 40
        e 16 90 48 6e
        e 32 80 48 40
        e 16 90 4b 6e
        e 32 80 4b 40
        e 16 90 51 6e
        e 32 80 51 40
        e 16 90 4b 6e
        e 32 80 4b 40
        e 16 90 47 6e
        e 0 90 4c 6e
        e 0 90 50 6e
        e 80 80 47 40
        e 0 80 4c 40
        e 0 80 50 40
        e 16 90 40 6e
        e 0 90 44 6e
        e 0 90 47 6e
        e 0 90 4c 6e
        e 32 80 40 40
        e 0 80 44 40
        e 0 80 47 40
        e 0 80 4c 40
        e 16 90 40 6e
        e 0 90 44 6e
        e 0 90 47 6e
        e 0 90 4c 6e
        e 32 80 40 40
        e 0 80 44 40
        e 0 80 47 40
        e 0 80 4c 40
        e 16 90 40 6e
        e 0 90 44 6e
        e 0 90 47 6e
        e 0 90 4c 6e
        e 80 80 40 40
        e 0 80 44 40
        e 0 80 47 40
        e 0 80 4c 40
        e 16 90 40 6e
        e 0 90 44 6e
        e 0 90 47 6e
        e 0 90 4c 6e
        e 80 80 40 40
        e 0 80 44 40
        e 0 80 47 40
        e 0 80 4c 40
        e 16 90 40 6e
        e 0 90 44 6e
        e 0 90 47 6e
        e 0 90 4c 6e
        e 176 80 40 40
        e 0 80 44 40
        e 0 80 47 40
        e 0 80 4c 40
        e 16 90 3c 6e
        e 0 90 40 6e
        e 128 80 3c 40
        e 0 80 40 40
        e 16 90 3e 6e
        e 0 90 41 6e
        e 32 80 3e 40
        e 0 80 41 40
        e 16 90 40 6e
        e 0 90 43 6e
        e 80 80 40 40
        e 0 80 43 40
        e 16 90 40 6e
        e 0 90 43 6e
        e 32 80 40 40
        e 0 80 43 40
        e 16 90 40 6e
        e 0 90 43 6e
        e 32 80 40 40
        e 0 80 43 40
        e 16 90 40 6e
        e 0 90 43 6e
        e 128 80 40 40
        e 0 80 43 40
        e 16 90 41 6e
        e 0 90 45 6e
        e 32 80 41 40
        e 0 80 45 40
        e 16 90 43 6e
        e 0 90 46 6e
        e 80 80 43 40
        e 0 80 46 40
        e 16 90 43 6e
        e 0 90 46 6e
        e 32 80 43 40
        e 0 80 46 40
        e 16 90 43 6e
        e 0 90 46 6e
        e 32 80 43 40
        e 0 80 46 40
        e 16 90 43 6e
        e 0 90 46 6e
        e 128 80 43 40
        e 0 80 46 40
        e 16 90 43 6e
        e 0 90 46 6e
        e 32 80 43 40
        e 0 80 46 40
        e 16 90 43 6e
        e 0 90 46 6e
        e 80 80 43 40
        e 0 80 46 40
        e 16 90 43 6e
        e 0 90 46 6e
        e 32 80 43 40
        e 0 80 46 40
        e 16 90 43 6e
        e 0 90 46 6e
        e 32 80 43 40
        e 0 80 46 40
        e 16 90 41 6e
        e 0 90 45 6e
        e 80 80 41 40
        e 0 80 45 40
        e 16 90 41 6e
        e 0 90 45 6e
        e 80 80 41 40
        e 0 80 45 40
        e 16 90 41 6e
        e 0 90 45 6e
        e 176 80 41 40
        e 0 80 45 40
        e 16 90 3e 6e
        e 0 90 42 6e
        e 128 80 3e 40
        e 0 80 42 40
        e 16 90 40 6e
        e 0 90 43 6e
        e 32 80 40 40
        e 0 80 43 40
        e 16 90 42 6e
        e 0 90 45 6e
        e 80 80 42 40
        e 0 80 45 40
        e 16 90 42 6e
        e 0 90 45 6e
        e 32 80 42 40
        e 0 80 45 40
        e 16 90 42 6e
        e 0 90 45 6e
        e 32 80 42 40
        e 0 80 45 40
        e 16 90 42 6e
        e 0 90 45 6e
        e 128 80 42 40
        e 0 80 45 40
        e 16 90 43 6e
        e 0 90 47 6e
        e 32 80 43 40
        e 0 80 47 40
        e 16 90 45 6e
        e 0 90 48 6e
        e 80 80 45 40
        e 0 80 48 40
        e 16 90 45 6e
        e 0 90 48 6e
        e 32 80 45 40
        e 0 80 48 40
        e 16 90 45 6e
        e 0 90 48 6e
        e 32 80 45 40
        e 0 80 48 40
        e 16 90 45 6e
        e 0 90 48 6e
        e 128 80 45 40
        e 0 80 48 40
        e 16 90 45 6e
        e 0 90 48 6e
        e 32 80 45 40
        e 0 80 48 40
        e 16 90 43 6e
        e 0 90 47 6e
        e 80 80 43 40
        e 0 80 47 40
        e 16 90 43 6e
        e 0 90 47 6e
        e 32 80 43 40
        e 0 80 47 40
        e 16 90 43 6e
        e 0 90 47 6e
        e 32 80 43 40
        e 0 80 47 40
        e 16 90 43 6e
        e 0 90 47 6e
        e 80 80 43 40
        e 0 80 47 40
        e 16 90 43 6e
        e 0 90 47 6e
        e 80 80 43 40
        e 0 80 47 40
        e 16 90 43 6e
        e 0 90 47 6e
        e 176 80 43 40
        e 0 80 47 40
        e 16 90 47 6e
        e 0 90 4f 6e
        e 0 90 53 6e
        e 128 80 47 40
        e 0 80 4f 40
        e 0 80 53 40
        e 16 90 47 6e
        e 0 90 4f 6e
        e 0 90 53 6e
        e 32 80 47 40
        e 0 80 4f 40
        e 0 80 53 40
        e 16 90 47 6e
        e 0 90 4f 6e
        e 0 90 53 6e
        e 128 80 47 40
        e 0 80 4f 40
        e 0 80 53 40
        e 16 90 45 6e
        e 0 90 4d 6e
        e 0 90 51 6e
        e 32 80 45 40
        e 0 80 4d 40
        e 0 80 51 40
        e 16 90 47 6e
        e 0 90 4f 6e
        e 0 90 53 6e
        e 128 80 47 40
        e 0 80 4f 40
        e 0 80 53 40
        e 16 90 45 6e
        e 0 90 4d 6e
        e 0 90 51 6e
        e 32 80 45 40
        e 0 80 4d 40
        e 0 80 51 40
        e 16 90 45 6e
        e 0 90 4d 6e
        e 0 90 51 6e
        e 128 80 45 40
        e 0 80 4d 40
        e 0 80 51 40
        e 16 90 43 6e
        e 0 90 4c 6e
        e 0 90 4f 6e
        e 32 80 43 40
        e 0 80 4c 40
        e 0 80 4f 40
        e 16 90 45 6e
        e 0 90 4d 6e
        e 0 90 51 6e
        e 128 80 45 40
        e 0 80 4d 40
        e 0 80 51 40
        e 16 90 43 6e
        e 0 90 4c 6e
        e 0 90 4f 6e
        e 32 80 43 40
        e 0 80 4c 40
        e 0 80 4f 40
        e 16 90 45 6e
        e 0 90 4d 6e
        e 0 90 51 6e
        e 272 80 45 40
        e 0 80 4d 40
        e 0 80 51 40
        e 16 90 43 6e
        e 0 90 4c 6e
        e 0 90 4f 6e
        e 80 80 43 40
        e 0 80 4c 40
        e 0 80 4f 40
        e 16 90 40 6e
        e 0 90 48 6e
        e 0 90 4c 6e
        e 176 80 40 40
        e 0 80 48 40
        e 0 80 4c 40
        e 16 90 48 6e
        e 0 90 54 6e
        e 128 80 48 40
        e 0 80 54 40
        e 16 90 47 6e
        e 0 90 4f 6e
        e 0 90 53 6e
        e 32 80 47 40
        e 0 80 4f 40
        e 0 80 53 40
        e 16 90 47 6e
        e 0 90 4f 6e
        e 0 90 53 6e
        e 128 80 47 40
        e 0 80 4f 40
        e 0 80 53 40
        e 16 90 45 6e
        e 0 90 4d 6e
        e 0 90 51 6e
        e 32 80 45 40
        e 0 80 4d 40
        e 0 80 51 40
        e 16 90 47 6e
        e 0 90 4f 6e
        e 0 90 53 6e
        e 128 80 47 40
        e 0 80 4f 40
        e 0 80 53 40
        e 16 90 45 6e
        e 0 90 4d 6e
        e 0 90 51 6e
        e 32 80 45 40
        e 0 80 4d 40
        e 0 80 51 40
        e 16 90 45 6e
        e 0 90 4d 6e
        e 0 90 51 6e
        e 128 80 45 40
        e 0 80 4d 40
        e 0 80 51 40
        e 16 90 43 6e
        e 0 90 4c 6e
        e 0 90 4f 6e
        e 32 80 43 40
        e 0 80 4c 40
        e 0 80 4f 40
        e 16 90 45 6e
        e 0 90 4d 6e
        e 0 90 51 6e
        e 128 80 45 40
        e 0 80 4d 40
        e 0 80 51 40
        e 16 90 43 6e
        e 0 90 4c 6e
        e 0 90 4f 6e
        e 32 80 43 40
        e 0 80 4c 40
        e 0 80 4f 40
        e 16 90 40 6e
        e 0 90 48 6e
        e 0 90 4c 6e
        e 80 80 40 40
        e 0 80 48 40
        e 0 80 4c 40
        e 16 90 3c 6e
        e 0 90 48 6e
        e 32 80 3c 40
        e 0 80 48 40
        e 16 90 3c 6e
        e 0 90 48 6e
        e 32 80 3c 40
        e 0 80 48 40
        e 16 90 3c 6e
        e 0 90 48 6e
        e 80 80 3c 40
        e 0 80 48 40
        e 16 90 3e 6e
        e 0 90 4a 6e
        e 80 80 3e 40
        e 0 80 4a 40
        e 16 90 40 6e
        e 0 90 4c 6e
        e 80 80 40 40
        e 0 80 4c 40
        e 16 90 41 6e
        e 0 90 4d 6e
        e 80 80 41 40
        e 0 80 4d 40
        e 16 90 43 6e
        e 0 90 4f 6e
        e 80 80 43 40
        e 0 80 4f 40
        e 16 90 45 6e
        e 0 90 51 6e
        e 80 80 45 40
        e 0 80 51 40
        e 16 90 46 6e
        e 0 90 52 6e
        e 80 80 46 40
        e 0 80 52 40
        e 16 90 40 6e
        e 0 90 43 6e
        e 0 90 49 6e
        e 32 80 40 40
        e 0 80 43 40
        e 0 80 49 40
        e 16 90 40 6e
        e 0 90 43 6e
        e 0 90 49 6e
        e 32 80 40 40
        e 0 80 43 40
        e 0 80 49 40
        e 16 90 40 6e
        e 0 90 43 6e
        e 0 90 49 6e
        e 128 80 40 40
        e 0 80 43 40
        e 0 80 49 40
        e 16 90 40 6e
        e 0 90 43 6e
        e 0 90 49 6e
        e 32 80 40 40
        e 0 80 43 40
        e 0 80 49 40
        e 16 90 41 6e
        e 0 90 45 6e
        e 0 90 4a 6e
        e 176 80 41 40
        e 0 80 45 40
        e 0 80 4a 40
        e 16 90 40 6e
        e 0 90 43 6e
        e 0 90 45 6e
        e 0 90 49 6e
        e 176 80 40 40
        e 0 80 43 40
        e 0 80 45 40
        e 0 80 49 40
        e 16 90 3e 6e
        e 0 90 45 6e
        e 0 90 4a 6e
        e 176 80 3e 40
        e 0 80 45 40
        e 0 80 4a 40
        e 16 90 3e 6e
        e 0 90 45 6e
        e 0 90 4a 6e
        e 176 80 3e 40
        e 0 80 45 40
        e 0 80 4a 40
        e 208 90 48 6e
        e 0 90 4b 6e
        e 0 90 51 6e
        e 128 80 48 40
        e 0 80 4b 40
        e 0 80 51 40
        e 16 90 48 6e
        e 0 90 4b 6e
        e 0 90 51 6e
        e 32 80 48 40
        e 0 80 4b 40
        e 0 80 51 40
        e 16 90 48 6e
        e 0 90 4c 6e
        e 0 90 4f 6e
        e 176 80 48 40
        e 0 80 4c 40
        e 0 80 4f 40
        e 16 90 43 6e
        e 0 90 48 6e
        e 0 90 4c 6e
        e 128 80 43 40
        e 0 80 48 40
        e 0 80 4c 40
        e 16 90 43 6e
        e 0 90 48 6e
        e 0 90 4c 6e
        e 32 80 43 40
        e 0 80 48 40
        e 0 80 4c 40
        e 16 90 43 6e
        e 0 90 4a 6e
        e 0 90 4d 6e
        e 176 80 43 40
        e 0 80 4a 40
        e 0 80 4d 40
        e 16 90 43 6e
        e 0 90 47 6e
        e 0 90 4a 6e
        e 128 80 43 40
        e 0 80 47 40
        e 0 80 4a 40
        e 16 90 43 6e
        e 0 90 47 6e
        e 0 90 4a 6e
        e 32 80 43 40
        e 0 80 47 40
        e 0 80 4a 40
        e 16 90 43 6e
        e 0 90 48 6e
        e 0 90 4c 6e
        e 176 80 43 40
        e 0 80 48 40
        e 0 80 4c 40
        e 16 90 34 6e
        e 48 80 34 40
        e 16 90 35 6e
        e 48 80 35 40
        e 16 90 37 6e
        e 48 80 37 40
        e 16 90 39 6e
        e 48 80 39 40
        e 16 90 3b 6e
        e 48 80 3b 40
        e 16 90 3c 6e
        e 48 80 3c 40
        e 16 90 3e 6e
        e 48 80 3e 40
        e 16 90 40 6e
        e 48 80 40 40
        e 16 90 41 6e
        e 48 80 41 40
        e 16 90 43 6e
        e 80 80 43 40
        e 16 90 48 6e
        e 0 90 4c 6e
        e 0 90 4d 6e
        e 0 90 4f 6e
        e 0 90 54 6e
        e 32 80 48 40
        e 0 80 4c 40
        e 0 80 4d 40
        e 0 80 4f 40
        e 0 80 54 40
        e 16 90 48 6e
        e 0 90 4c 6e
        e 0 90 4f 6e
        e 0 90 54 6e
        e 32 80 48 40
        e 0 80 4c 40
        e 0 80 4f 40
        e 0 80 54 40
        e 16 90 48 6e
        e 0 90 4c 6e
        e 0 90 4f 6e
        e 0 90 54 6e
        e 80 80 48 40
        e 0 80 4c 40
        e 0 80 4f 40
        e 0 80 54 40
        e 16 90 48 6e
        e 0 90 4c 6e
        e 0 90 4f 6e
        e 0 90 54 6e
        e 80 80 48 40
        e 0 80 4c 40
        e 0 80 4f 40
        e 0 80 54 40
        e 16 90 4a 6e
        e 0 90 4d 6e
        e 0 90 4f 6e
        e 0 90 53 6e
        e 80 80 4a 40
        e 0 80 4d 40
        e 0 80 4f 40
        e 0 80 53 40
        e 16 90 4a 6e
        e 0 90 4d 6e
        e 0 90 4f 6e
        e 0 90 53 6e
        e 32 80 4a 40
        e 0 80 4d 40
        e 0 80 4f 40
        e 0 80 53 40
        e 16 90 4a 6e
        e 0 90 4d 6e
        e 0 90 4f 6e
        e 0 90 53 6e
        e 32 80 4a 40
        e 0 80 4d 40
        e 0 80 4f 40
        e 0 80 53 40
        e 16 90 4a 6e
        e 0 90 4d 6e
        e 0 90 4f 6e
        e 0 90 53 6e
        e 80 80 4a 40
        e 0 80 4d 40
        e 0 80 4f 40
        e 0 80 53 40
        e 16 90 4a 6e
        e 0 90 4d 6e
        e 0 90 4f 6e
        e 0 90 53 6e
        e 80 80 4a 40
        e 0 80 4d 40
        e 0 80 4f 40
        e 0 80 53 40
        e 16 90 48 6e
        e 0 90 4c 6e
        e 0 90 54 6e
        e 176 80 48 40
        e 0 80 4c 40
        e 0 80 54 40
        e 16 90 34 6e
        e 48 80 34 40
        e 16 90 35 6e
        e 48 80 35 40
        e 16 90 37 6e
        e 48 80 37 40
        e 16 90 39 6e
        e 48 80 39 40
        e 16 90 3b 6e
        e 48 80 3b 40
        e 16 90 3c 6e
        e 48 80 3c 40
        e 16 90 3e 6e
        e 48 80 3e 40
        e 16 90 40 6e
        e 48 80 40 40
        e 16 90 41 6e
        e 48 80 41 40
        e 16 90 43 6e
        e 80 80 43 40
        e 16 90 48 6e
        e 0 90 4c 6e
        e 0 90 54 6e
        e 32 80 48 40
        e 0 80 4c 40
        e 0 80 54 40
        e 16 90 48 6e
        e 0 90 4c 6e
        e 0 90 4f 6e
        e 0 90 54 6e
        e 32 80 48 40
        e 0 80 4c 40
        e 0 80 4f 40
        e 0 80 54 40
        e 16 90 48 6e
        e 0 90 4c 6e
        e 0 90 4f 6e
        e 0 90 54 6e
        e 80 80 48 40
        e 0 80 4c 40
        e 0 80 4f 40
        e 0 80 54 40
        e 16 90 48 6e
        e 0 90 4c 6e
        e 0 90 4f 6e
        e 0 90 54 6e
        e 80 80 48 40
        e 0 80 4c 40
        e 0 80 4f 40
        e 0 80 54 40
        e 16 90 4a 6e
        e 0 90 4d 6e
        e 0 90 4f 6e
        e 0 90 53 6e
        e 80 80 4a 40
        e 0 80 4d 40
        e 0 80 4f 40
        e 0 80 53 40
        e 16 90 4a 6e
        e 0 90 4d 6e
        e 0 90 4f 6e
        e 0 90 53 6e
        e 32 80 4a 40
        e 0 80 4d 40
        e 0 80 4f 40
        e 0 80 53 40
        e 16 90 4a 6e
        e 0 90 4d 6e
        e 0 90 4f 6e
        e 0 90 53 6e
        e 32 80 4a 40
        e 0 80 4d 40
        e 0 80 4f 40
        e 0 80 53 40
        e 16 90 4a 6e
        e 0 90 4d 6e
        e 0 90 4f 6e
        e 0 90 53 6e
        e 80 80 4a 40
        e 0 80 4d 40
        e 0 80 4f 40
        e 0 80 53 40
        e 16 90 4a 6e
        e 0 90 4d 6e
        e 0 90 4f 6e
        e 0 90 53 6e
        e 80 80 4a 40
        e 0 80 4d 40
        e 0 80 4f 40
        e 0 80 53 40
        e 16 90 48 6e
        e 0 90 4c 6e
        e 0 90 4f 6e
        e 0 90 54 6e
        e 176 80 48 40
        e 0 80 4c 40
        e 0 80 4f 40
        e 0 80 54 40
        e 16 90 48 6e
        e 48 80 48 40
        e 16 90 43 6e
        e 48 80 43 40
        e 16 90 4c 6e
        e 48 80 4c 40
        e 16 90 48 6e
        e 48 80 48 40
        e 16 90 43 6e
        e 48 80 43 40
        e 16 90 4c 6e
        e 48 80 4c 40
        e 16 90 48 6e
        e 48 80 48 40
        e 16 90 43 6e
        e 48 80 43 40
        e 16 90 4c 6e
        e 48 80 4c 40
        e 16 90 48 6e
        e 48 80 48 40
        e 16 90 54 6e
        e 48 80 54 40
        e 16 90 53 6e
        e 48 80 53 40
        e 16 90 54 6e
        e 48 80 54 40
        e 16 90 4f 6e
        e 48 80 4f 40
        e 16 90 4c 6e
        e 48 80 4c 40
        e 16 90 48 6e
        e 48 80 48 40
        e 16 90 48 6e
        e 48 80 48 40
        e 16 90 47 6e
        e 48 80 47 40
        e 16 90 48 6e
        e 48 80 48 40
        e 16 90 43 6e
        e 48 80 43 40
        e 16 90 40 6e
        e 48 80 40 40
        e 16 90 3c 6e
        e 176 80 3c 40
        e 16 90 40 6e
        e 0 90 43 6e
        e 0 90 48 6e
        e 128 80 40 40
        e 0 80 43 40
        e 0 80 48 40
        e 16 90 40 6e
        e 0 90 43 6e
        e 0 90 48 6e
        e 32 80 40 40
        e 0 80 43 40
        e 0 80 48 40
        e 16 90 40 6e
        e 0 90 43 6e
        e 0 90 48 6e
        e 176 80 40 40
        e 0 80 43 40
        e 0 80 48 40
        E 16 b0 7b 00
        GUID {D751D57D-4D20-8D47-B451-B1AC63A444F1}
        IGNTEMPO 0 120 4 4
        SRCCOLOR 721
        VELLANE -1 86 6
        CFGEDITVIEW 6412.8 8.219697 50 24 0 0 0 0 0 0.5
        KEYSNAP 0
        TRACKSEL 226 0 0 ""
        EVTFILTER 0 -1 -1 -1 -1 0 1 0 0 -1 -1 -1 -1 0 -1 0 -1 -1
        CFGEDIT 1 0 0 0 0 0 1 0 1 1 1 0.25 16 63 1280 778 0 0 2 3 0 0 0 0 0 0.5 0 0 1 64
      >
      TAKE
      NAME "Accompany.RH         - National_Anthems_-_Chile.mid"
      TAKEVOLPAN 0 1 -1
      SOFFS 21.5 43
      PLAYRATE 1 1 0 -1 0 0.0025
      CHANMODE 0
      GUID {29204520-80D7-E646-8F80-A3B7D3925C7A}
      <SOURCE MIDI
        HASDATA 1 192 QN
        POOLEDEVTS {D30F8059-B4A0-8C40-9355-1313C0A574C7}
        <X 0 0
          /wNBY2NvbXBhbnkuUkggICAgICAgIA==
        >
        e 720 90 4f 6e
        e 16 90 51 6e
        e 6 80 4f 40
        e 2 90 53 6e
        e 14 80 51 40
        e 8 80 53 40
        e 2 90 48 6e
        e 0 90 54 6e
        e 334 80 48 40
        e 0 80 54 40
        e 2 90 47 6e
        e 0 90 53 6e
        e 46 80 47 40
        e 0 80 53 40
        e 2 90 48 6e
        e 0 90 54 6e
        e 142 80 48 40
        e 0 80 54 40
        e 2 90 44 6e
        e 0 90 50 6e
        e 46 80 44 40
        e 0 80 50 40
        e 2 90 45 6e
        e 0 90 51 6e
        e 142 80 45 40
        e 0 80 51 40
        e 2 90 40 6e
        e 0 90 4c 6e
        e 46 80 40 40
        e 0 80 4c 40
        e 2 90 41 6e
        e 0 90 4d 6e
        e 142 80 41 40
        e 0 80 4d 40
        e 2 90 3d 6e
        e 0 90 49 6e
        e 46 80 3d 40
        e 0 80 49 40
        e 2 90 3e 6e
        e 0 90 4a 6e
        e 142 80 3e 40
        e 0 80 4a 40
        e 2 90 3a 6e
        e 0 90 46 6e
        e 46 80 3a 40
        e 0 80 46 40
        e 2 90 3b 6e
        e 0 90 47 6e
        e 190 80 3b 40
        e 0 80 47 40
        e 50 90 43 6e
        e 22 80 43 40
        e 2 90 45 6e
        e 22 80 45 40
        e 2 90 47 6e
        e 22 80 47 40
        e 2 90 48 6e
        e 22 80 48 40
        e 2 90 4a 6e
        e 22 80 4a 40
        e 2 90 4c 6e
        e 22 80 4c 40
        e 98 90 47 6e
        e 0 90 4a 6e
        e 0 90 4d 6e
        e 46 80 47 40
        e 0 80 4a 40
        e 0 80 4d 40
        e 2 90 47 6e
        e 0 90 4a 6e
        e 0 90 4d 6e
        e 46 80 47 40
        e 0 80 4a 40
        e 0 80 4d 40
        e 2 90 47 6e
        e 0 90 4a 6e
        e 0 90 4d 6e
        e 94 80 47 40
        e 0 80 4a 40
        e 0 80 4d 40
        e 2 90 47 6e
        e 0 90 4a 6e
        e 0 90 4d 6e
        e 94 80 47 40
        e 0 80 4a 40
        e 0 80 4d 40
        e 2 90 47 6e
        e 0 90 4a 6e
        e 0 90 4d 6e
        e 94 80 47 40
        e 0 80 4a 40
        e 0 80 4d 40
        e 2 90 47 6e
        e 0 90 4a 6e
        e 0 90 4d 6e
        e 94 80 47 40
        e 0 80 4a 40
        e 0 80 4d 40
        e 2 90 48 6e
        e 0 90 4d 6e
        e 94 80 48 40
        e 0 80 4d 40
        e 2 90 4a 6e
        e 0 90 4d 6e
        e 94 80 4a 40
        e 0 80 4d 40
        e 2 90 43 6e
        e 0 90 48 6e
        e 0 90 4c 6e
        e 94 80 43 40
        e 0 80 48 40
        e 0 80 4c 40
        e 2 90 4c 6e
        e 46 80 4c 40
        e 2 90 4d 6e
        e 46 80 4d 40
        e 2 90 41 6e
        e 0 90 47 6e
        e 0 90 4a 6e
        e 94 80 41 40
        e 0 80 47 40
        e 0 80 4a 40
        e 2 90 4a 6e
        e 46 80 4a 40
        e 2 90 4c 6e
        e 46 80 4c 40
        e 2 90 40 6e
        e 0 90 48 6e
        e 190 80 40 40
        e 0 80 48 40
        e 26 90 48 6e
        e 22 80 48 40
        e 2 90 4a 6e
        e 22 80 4a 40
        e 2 90 4c 6e
        e 22 80 4c 40
        e 2 90 4d 6e
        e 22 80 4d 40
        e 2 90 4f 6e
        e 22 80 4f 40
        e 2 90 51 6e
        e 22 80 51 40
        e 2 90 53 6e
        e 22 80 53 40
        e 2 90 54 6e
        e 94 80 54 40
        e 2 90 51 6e
        e 0 90 54 6e
        e 46 80 51 40
        e 0 80 54 40
        e 2 90 51 6e
        e 0 90 54 6e
        e 46 80 51 40
        e 0 80 54 40
        e 2 90 51 6e
        e 0 90 54 6e
        e 94 80 51 40
        e 0 80 54 40
        e 2 90 51 6e
        e 0 90 54 6e
        e 94 80 51 40
        e 0 80 54 40
        e 2 90 51 6e
        e 0 90 54 6e
        e 94 80 51 40
        e 0 80 54 40
        e 2 90 50 6e
        e 0 90 53 6e
        e 46 80 50 40
        e 0 80 53 40
        e 2 90 51 6e
        e 0 90 54 6e
        e 46 80 51 40
        e 0 80 54 40
        e 2 90 53 6e
        e 0 90 56 6e
        e 46 80 53 40
        e 0 80 56 40
        e 2 90 51 6e
        e 0 90 54 6e
        e 46 80 51 40
        e 0 80 54 40
        e 2 90 4f 6e
        e 0 90 53 6e
        e 46 80 4f 40
        e 0 80 53 40
        e 2 90 4d 6e
        e 0 90 51 6e
        e 46 80 4d 40
        e 0 80 51 40
        e 2 90 4c 6e
        e 0 90 4f 6e
        e 94 80 4c 40
        e 0 80 4f 40
        e 2 90 4f 6e
        e 46 80 4f 40
        e 2 90 51 6e
        e 46 80 51 40
        e 2 90 4a 6e
        e 0 90 4d 6e
        e 94 80 4a 40
        e 0 80 4d 40
        e 2 90 4d 6e
        e 46 80 4d 40
        e 2 90 4f 6e
        e 46 80 4f 40
        e 2 90 48 6e
        e 0 90 4c 6e
        e 190 80 48 40
        e 0 80 4c 40
        e 26 90 3c 6e
        e 22 80 3c 40
        e 2 90 3e 6e
        e 22 80 3e 40
        e 2 90 40 6e
        e 22 80 40 40
        e 2 90 41 6e
        e 22 80 41 40
        e 2 90 43 6e
        e 22 80 43 40
        e 2 90 45 6e
        e 22 80 45 40
        e 2 90 47 6e
        e 22 80 47 40
        e 2 90 48 6e
        e 80 80 48 40
        e 16 90 3c 6e
        e 0 90 3f 6e
        e 0 90 44 6e
        e 0 90 48 6e
        e 32 80 3c 40
        e 0 80 3f 40
        e 0 80 44 40
        e 0 80 48 40
        e 16 90 3c 6e
        e 0 90 3f 6e
        e 0 90 44 6e
        e 0 90 48 6e
        e 32 80 3c 40
        e 0 80 3f 40
        e 0 80 44 40
        e 0 80 48 40
        e 16 90 3c 6e
        e 0 90 3f 6e
        e 0 90 44 6e
        e 0 90 48 6e
        e 80 80 3c 40
        e 0 80 3f 40
        e 0 80 44 40
        e 0 80 48 40
        e 16 90 3c 6e
        e 0 90 3f 6e
        e 0 90 44 6e
        e 0 90 48 6e
        e 80 80 3c 40
        e 0 80 3f 40
        e 0 80 44 40
        e 0 80 48 40
        e 16 90 3c 6e
        e 0 90 3f 6e
        e 0 90 44 6e
        e 0 90 48 6e
        e 80 80 3c 40
        e 0 80 3f 40
        e 0 80 44 40
        e 0 80 48 40
        e 16 90 3e 6e
        e 0 90 48 6e
        e 0 90 4a 6e
        e 80 80 3e 40
        e 0 80 48 40
        e 0 80 4a 40
        e 16 90 3f 6e
        e 0 90 48 6e
        e 0 90 4b 6e
        e 80 80 3f 40
        e 0 80 48 40
        e 0 80 4b 40
        e 16 90 42 6e
        e 0 90 48 6e
        e 0 90 4b 6e
        e 0 90 4e 6e
        e 80 80 42 40
        e 0 80 48 40
        e 0 80 4b 40
        e 0 80 4e 40
        e 16 90 43 6e
        e 0 90 48 6e
        e 0 90 4c 6e
        e 0 90 4f 6e
        e 80 80 43 40
        e 0 80 48 40
        e 0 80 4c 40
        e 0 80 4f 40
        e 16 90 43 6e
        e 0 90 48 6e
        e 0 90 4c 6e
        e 0 90 4f 6e
        e 32 80 43 40
        e 0 80 48 40
        e 0 80 4c 40
        e 0 80 4f 40
        e 16 90 43 6e
        e 0 90 48 6e
        e 0 90 4c 6e
        e 0 90 4f 6e
        e 32 80 43 40
        e 0 80 48 40
        e 0 80 4c 40
        e 0 80 4f 40
        e 16 90 43 6e
        e 0 90 48 6e
        e 0 90 4c 6e
        e 80 80 43 40
        e 0 80 48 40
        e 0 80 4c 40
        e 16 90 43 6e
        e 0 90 48 6e
        e 0 90 4c 6e
        e 80 80 43 40
        e 0 80 48 40
        e 0 80 4c 40
        e 16 90 43 6e
        e 0 90 47 6e
        e 0 90 4a 6e
        e 0 90 4f 6e
        e 80 80 43 40
        e 0 80 47 40
        e 0 80 4a 40
        e 0 80 4f 40
        e 16 90 43 6e
        e 0 90 47 6e
        e 0 90 4a 6e
        e 0 90 4f 6e
        e 32 80 43 40
        e 0 80 47 40
        e 0 80 4a 40
        e 0 80 4f 40
        e 16 90 43 6e
        e 0 90 47 6e
        e 0 90 4a 6e
        e 0 90 4f 6e
        e 32 80 43 40
        e 0 80 47 40
        e 0 80 4a 40
        e 0 80 4f 40
        e 16 90 43 6e
        e 0 90 47 6e
        e 0 90 4a 6e
        e 80 80 43 40
        e 0 80 47 40
        e 0 80 4a 40
        e 16 90 43 6e
        e 0 90 47 6e
        e 0 90 4a 6e
        e 32 80 43 40
        e 0 80 47 40
        e 0 80 4a 40
        e 64 90 40 6e
        e 0 90 43 6e
        e 0 90 48 6e
        e 176 80 40 40
        e 0 80 43 40
        e 0 80 48 40
        e 112 90 43 6e
        e 16 80 43 40
        e 16 90 45 6e
        e 16 80 45 40
        e 16 90 47 6e
        e 16 80 47 40
        e 16 90 48 6e
        e 80 80 48 40
        e 16 90 43 6e
        e 16 80 43 40
        e 16 90 45 6e
        e 16 80 45 40
        e 16 90 47 6e
        e 16 80 47 40
        e 16 90 48 6e
        e 80 80 48 40
        e 16 90 43 6e
        e 16 80 43 40
        e 16 90 45 6e
        e 16 80 45 40
        e 16 90 47 6e
        e 16 80 47 40
        e 16 90 48 6e
        e 176 80 48 40
        e 16 90 40 6e
        e 0 90 43 6e
        e 0 90 48 6e
        e 128 80 40 40
        e 0 80 43 40
        e 0 80 48 40
        e 16 90 40 6e
        e 0 90 43 6e
        e 0 90 48 6e
        e 32 80 40 40
        e 0 80 43 40
        e 0 80 48 40
        e 16 90 40 6e
        e 0 90 43 6e
        e 0 90 48 6e
        e 176 80 40 40
        e 0 80 43 40
        e 0 80 48 40
        e 16 90 43 6e
        e 128 80 43 40
        e 16 90 48 6e
        e 32 80 48 40
        e 16 90 40 6e
        e 0 90 48 6e
        e 128 80 40 40
        e 0 80 48 40
        e 16 90 43 6e
        e 0 90 47 6e
        e 32 80 43 40
        e 0 80 47 40
        e 16 90 43 6e
        e 0 90 47 6e
        e 128 80 43 40
        e 0 80 47 40
        e 16 90 41 6e
        e 0 90 45 6e
        e 32 80 41 40
        e 0 80 45 40
        e 16 90 41 6e
        e 0 90 45 6e
        e 128 80 41 40
        e 0 80 45 40
        e 16 90 40 6e
        e 0 90 43 6e
        e 32 80 40 40
        e 0 80 43 40
        e 16 90 40 6e
        e 0 90 43 6e
        e 128 80 40 40
        e 0 80 43 40
        e 16 90 3f 6e
        e 0 90 42 6e
        e 32 80 3f 40
        e 0 80 42 40
        e 16 90 40 6e
        e 0 90 43 6e
        e 272 80 40 40
        e 0 80 43 40
        e 16 90 3e 6e
        e 0 90 41 6e
        e 80 80 3e 40
        e 0 80 41 40
        e 16 90 3c 6e
        e 0 90 40 6e
        e 176 80 3c 40
        e 0 80 40 40
        e 16 90 3b 6e
        e 0 90 3e 6e
        e 128 80 3b 40
        e 0 80 3e 40
        e 16 90 3c 6e
        e 0 90 40 6e
        e 32 80 3c 40
        e 0 80 40 40
        e 16 90 3e 6e
        e 0 90 41 6e
        e 80 80 3e 40
        e 0 80 41 40
        e 112 90 3e 6e
        e 0 90 41 6e
        e 80 80 3e 40
        e 0 80 41 40
        e 112 90 3c 6e
        e 0 90 40 6e
        e 80 80 3c 40
        e 0 80 40 40
        e 112 90 3c 6e
        e 0 90 40 6e
        e 80 80 3c 40
        e 0 80 40 40
        e 112 90 3b 6e
        e 0 90 3e 6e
        e 0 90 43 6e
        e 80 80 3b 40
        e 0 80 3e 40
        e 0 80 43 40
        e 16 90 3b 6e
        e 0 90 3e 6e
        e 0 90 43 6e
        e 32 80 3b 40
        e 0 80 3e 40
        e 0 80 43 40
        e 16 90 3b 6e
        e 0 90 3e 6e
        e 0 90 43 6e
        e 32 80 3b 40
        e 0 80 3e 40
        e 0 80 43 40
        e 16 90 3b 6e
        e 0 90 3e 6e
        e 0 90 43 6e
        e 80 80 3b 40
        e 0 80 3e 40
        e 0 80 43 40
        e 16 90 3b 6e
        e 0 90 3e 6e
        e 0 90 43 6e
        e 80 80 3b 40
        e 0 80 3e 40
        e 0 80 43 40
        e 16 90 3b 6e
        e 0 90 3e 6e
        e 0 90 43 6e
        e 80 80 3b 40
        e 0 80 3e 40
        e 0 80 43 40
        e 304 90 40 6e
        e 0 90 48 6e
        e 128 80 40 40
        e 0 80 48 40
        e 16 90 43 6e
        e 0 90 47 6e
        e 32 80 43 40
        e 0 80 47 40
        e 16 90 43 6e
        e 0 90 47 6e
        e 128 80 43 40
        e 0 80 47 40
        e 16 90 41 6e
        e 0 90 45 6e
        e 32 80 41 40
        e 0 80 45 40
        e 16 90 41 6e
        e 0 90 45 6e
        e 128 80 41 40
        e 0 80 45 40
        e 16 90 40 6e
        e 0 90 43 6e
        e 32 80 40 40
        e 0 80 43 40
        e 16 90 40 6e
        e 0 90 43 6e
        e 128 80 40 40
        e 0 80 43 40
        e 16 90 3f 6e
        e 0 90 42 6e
        e 32 80 3f 40
        e 0 80 42 40
        e 16 90 40 6e
        e 0 90 43 6e
        e 272 80 40 40
        e 0 80 43 40
        e 16 90 3e 6e
        e 0 90 41 6e
        e 80 80 3e 40
        e 0 80 41 40
        e 16 90 3c 6e
        e 0 90 40 6e
        e 176 80 3c 40
        e 0 80 40 40
        e 16 90 3c 6e
        e 0 90 40 6e
        e 128 80 3c 40
        e 0 80 40 40
        e 16 90 3c 6e
        e 0 90 40 6e
        e 32 80 3c 40
        e 0 80 40 40
        e 16 90 3b 6e
        e 0 90 3e 6e
        e 0 90 43 6e
        e 80 80 3b 40
        e 0 80 3e 40
        e 0 80 43 40
        e 112 90 3b 6e
        e 0 90 3e 6e
        e 0 90 43 6e
        e 80 80 3b 40
        e 0 80 3e 40
        e 0 80 43 40
        e 112 90 39 6e
        e 0 90 3e 6e
        e 0 90 42 6e
        e 80 80 39 40
        e 0 80 3e 40
        e 0 80 42 40
        e 112 90 39 6e
        e 0 90 3e 6e
        e 0 90 42 6e
        e 80 80 39 40
        e 0 80 3e 40
        e 0 80 42 40
        e 112 90 3b 6e
        e 0 90 3e 6e
        e 0 90 43 6e
        e 176 80 3b 40
        e 0 80 3e 40
        e 0 80 43 40
        e 16 90 3b 6e
        e 0 90 3e 6e
        e 0 90 43 6e
        e 128 80 3b 40
        e 0 80 3e 40
        e 0 80 43 40
        e 16 90 3b 6e
        e 0 90 3e 6e
        e 0 90 43 6e
        e 32 80 3b 40
        e 0 80 3e 40
        e 0 80 43 40
        e 16 90 3b 6e
        e 0 90 3e 6e
        e 0 90 43 6e
        e 176 80 3b 40
        e 0 80 3e 40
        e 0 80 43 40
        e 208 90 3f 6e
        e 0 90 43 6e
        e 80 80 3f 40
        e 0 80 43 40
        e 16 90 3a 6e
        e 80 80 3a 40
        e 16 90 3f 6e
        e 0 90 43 6e
        e 80 80 3f 40
        e 0 80 43 40
        e 16 90 3a 6e
        e 80 80 3a 40
        e 16 90 41 6e
        e 0 90 44 6e
        e 80 80 41 40
        e 0 80 44 40
        e 16 90 3f 6e
        e 0 90 43 6e
        e 80 80 3f 40
        e 0 80 43 40
        e 16 90 3e 6e
        e 0 90 41 6e
        e 80 80 3e 40
        e 0 80 41 40
        e 16 90 3f 6e
        e 0 90 43 6e
        e 80 80 3f 40
        e 0 80 43 40
        e 16 90 41 6e
        e 0 90 44 6e
        e 80 80 41 40
        e 0 80 44 40
        e 16 90 3a 6e
        e 80 80 3a 40
        e 16 90 41 6e
        e 0 90 44 6e
        e 80 80 41 40
        e 0 80 44 40
        e 16 90 3a 6e
        e 80 80 3a 40
        e 16 90 3e 6e
        e 0 90 41 6e
        e 80 80 3e 40
        e 0 80 41 40
        e 16 90 3a 6e
        e 80 80 3a 40
        e 16 90 3e 6e
        e 0 90 41 6e
        e 80 80 3e 40
        e 0 80 41 40
        e 16 90 3a 6e
        e 80 80 3a 40
        e 16 90 41 6e
        e 0 90 44 6e
        e 80 80 41 40
        e 0 80 44 40
        e 16 90 3a 6e
        e 80 80 3a 40
        e 16 90 41 6e
        e 0 90 44 6e
        e 80 80 41 40
        e 0 80 44 40
        e 16 90 3a 6e
        e 80 80 3a 40
        e 16 90 43 6e
        e 0 90 46 6e
        e 80 80 43 40
        e 0 80 46 40
        e 16 90 41 6e
        e 0 90 44 6e
        e 80 80 41 40
        e 0 80 44 40
        e 16 90 3f 6e
        e 0 90 43 6e
        e 80 80 3f 40
        e 0 80 43 40
        e 16 90 41 6e
        e 0 90 44 6e
        e 80 80 41 40
        e 0 80 44 40
        e 16 90 43 6e
        e 0 90 46 6e
        e 80 80 43 40
        e 0 80 46 40
        e 16 90 3a 6e
        e 80 80 3a 40
        e 16 90 43 6e
        e 0 90 46 6e
        e 80 80 43 40
        e 0 80 46 40
        e 16 90 41 6e
        e 0 90 44 6e
        e 80 80 41 40
        e 0 80 44 40
        e 16 90 3f 6e
        e 0 90 43 6e
        e 80 80 3f 40
        e 0 80 43 40
        e 16 90 3a 6e
        e 80 80 3a 40
        e 16 90 3f 6e
        e 0 90 43 6e
        e 80 80 3f 40
        e 0 80 43 40
        e 16 90 3a 6e
        e 80 80 3a 40
        e 16 90 3c 6e
        e 0 90 3f 6e
        e 176 80 3c 40
        e 0 80 3f 40
        e 16 90 3c 6e
        e 0 90 3f 6e
        e 128 80 3c 40
        e 0 80 3f 40
        e 16 90 3c 6e
        e 0 90 3f 6e
        e 32 80 3c 40
        e 0 80 3f 40
        e 16 90 3c 6e
        e 0 90 3f 6e
        e 176 80 3c 40
        e 0 80 3f 40
        e 16 90 3c 6e
        e 0 90 3f 6e
        e 0 90 42 6e
        e 176 80 3c 40
        e 0 80 3f 40
        e 0 80 42 40
        e 16 90 3b 6e
        e 0 90 3e 6e
        e 0 90 43 6e
        e 176 80 3b 40
        e 0 80 3e 40
        e 0 80 43 40
        e 16 90 3b 6e
        e 0 90 3e 6e
        e 0 90 43 6e
        e 128 80 3b 40
        e 0 80 3e 40
        e 0 80 43 40
        e 16 90 3b 6e
        e 0 90 3e 6e
        e 0 90 43 6e
        e 32 80 3b 40
        e 0 80 3e 40
        e 0 80 43 40
        e 16 90 3b 6e
        e 0 90 3e 6e
        e 0 90 43 6e
        e 176 80 3b 40
        e 0 80 3e 40
        e 0 80 43 40
        e 16 90 3c 6e
        e 0 90 40 6e
        e 128 80 3c 40
        e 0 80 40 40
        e 16 90 3c 6e
        e 0 90 40 6e
        e 32 80 3c 40
        e 0 80 40 40
        e 16 90 3c 6e
        e 0 90 40 6e
        e 128 80 3c 40
        e 0 80 40 40
        e 16 90 3b 6e
        e 0 90 3e 6e
        e 32 80 3b 40
        e 0 80 3e 40
        e 16 90 3c 6e
        e 0 90 40 6e
        e 128 80 3c 40
        e 0 80 40 40
        e 16 90 3b 6e
        e 0 90 3e 6e
        e 32 80 3b 40
        e 0 80 3e 40
        e 16 90 3c 6e
        e 0 90 40 6e
        e 128 80 3c 40
        e 0 80 40 40
        e 16 90 3b 6e
        e 0 90 3e 6e
        e 32 80 3b 40
        e 0 80 3e 40
        e 16 90 3c 6e
        e 0 90 40 6e
        e 128 80 3c 40
        e 0 80 40 40
        e 16 90 3e 6e
        e 0 90 41 6e
        e 32 80 3e 40
        e 0 80 41 40
        e 16 90 40 6e
        e 0 90 43 6e
        e 176 80 40 40
        e 0 80 43 40
        e 16 90 41 6e
        e 0 90 45 6e
        e 368 80 41 40
        e 0 80 45 40
        e 16 90 3b 6e
        e 0 90 3e 6e
        e 128 80 3b 40
        e 0 80 3e 40
        e 16 90 3b 6e
        e 0 90 3e 6e
        e 32 80 3b 40
        e 0 80 3e 40
        e 16 90 3b 6e
        e 0 90 3e 6e
        e 128 80 3b 40
        e 0 80 3e 40
        e 16 90 39 6e
        e 0 90 3c 6e
        e 32 80 39 40
        e 0 80 3c 40
        e 16 90 3b 6e
        e 0 90 3e 6e
        e 128 80 3b 40
        e 0 80 3e 40
        e 16 90 39 6e
        e 0 90 3c 6e
        e 32 80 39 40
        e 0 80 3c 40
        e 16 90 3b 6e
        e 0 90 3e 6e
        e 128 80 3b 40
        e 0 80 3e 40
        e 16 90 3c 6e
        e 0 90 40 6e
        e 32 80 3c 40
        e 0 80 40 40
        e 16 90 3e 6e
        e 0 90 41 6e
        e 128 80 3e 40
        e 0 80 41 40
        e 16 90 3f 6e
        e 0 90 42 6e
        e 32 80 3f 40
        e 0 80 42 40
        e 16 90 41 6e
        e 0 90 45 6e
        e 176 80 41 40
        e 0 80 45 40
        e 16 90 40 6e
        e 0 90 43 6e
        e 80 80 40 40
        e 0 80 43 40
        e 304 90 3c 6e
        e 0 90 41 6e
        e 0 90 45 6e
        e 176 80 3c 40
        e 0 80 41 40
        e 0 80 45 40
        e 208 90 3c 6e
        e 0 90 40 6e
        e 0 90 43 6e
        e 176 80 3c 40
        e 0 80 40 40
        e 0 80 43 40
        e 208 90 3b 6e
        e 0 90 3e 6e
        e 0 90 41 6e
        e 176 80 3b 40
        e 0 80 3e 40
        e 0 80 41 40
        e 208 90 3c 6e
        e 0 90 40 6e
        e 176 80 3c 40
        e 0 80 40 40
        e 16 90 41 6e
        e 0 90 45 6e
        e 128 80 41 40
        e 0 80 45 40
        e 16 90 43 6e
        e 0 90 47 6e
        e 32 80 43 40
        e 0 80 47 40
        e 16 90 45 6e
        e 0 90 48 6e
        e 48 80 45 40
        e 0 80 48 40
        e 16 90 43 6e
        e 0 90 47 6e
        e 48 80 43 40
        e 0 80 47 40
        e 16 90 41 6e
        e 0 90 45 6e
        e 48 80 41 40
        e 0 80 45 40
        e 16 90 40 6e
        e 0 90 43 6e
        e 128 80 40 40
        e 0 80 43 40
        e 16 90 45 6e
        e 0 90 48 6e
        e 32 80 45 40
        e 0 80 48 40
        e 16 90 45 6e
        e 0 90 48 6e
        e 48 80 45 40
        e 0 80 48 40
        e 16 90 43 6e
        e 0 90 47 6e
        e 48 80 43 40
        e 0 80 47 40
        e 16 90 41 6e
        e 0 90 45 6e
        e 48 80 41 40
        e 0 80 45 40
        e 16 90 41 6e
        e 0 90 45 6e
        e 48 80 41 40
        e 0 80 45 40
        e 16 90 40 6e
        e 0 90 43 6e
        e 48 80 40 40
        e 0 80 43 40
        e 16 90 3e 6e
        e 0 90 41 6e
        e 48 80 3e 40
        e 0 80 41 40
        e 16 90 3e 6e
        e 0 90 41 6e
        e 48 80 3e 40
        e 0 80 41 40
        e 16 90 3c 6e
        e 0 90 40 6e
        e 48 80 3c 40
        e 0 80 40 40
        e 16 90 37 6e
        e 0 90 3b 6e
        e 48 80 37 40
        e 0 80 3b 40
        e 16 90 34 6e
        e 0 90 3c 6e
        e 80 80 34 40
        e 0 80 3c 40
        e 16 90 40 6e
        e 32 80 40 40
        e 16 90 40 6e
        e 32 80 40 40
        e 16 90 40 6e
        e 80 80 40 40
        e 16 90 40 6e
        e 32 80 40 40
        e 64 90 40 6e
        e 80 80 40 40
        e 16 90 40 6e
        e 32 80 40 40
        e 64 90 40 6e
        e 80 80 40 40
        e 16 90 40 6e
        e 32 80 40 40
        e 64 90 47 6e
        e 0 90 4c 6e
        e 32 80 47 40
        e 0 80 4c 40
        e 16 90 50 6e
        e 32 80 50 40
        e 16 90 47 6e
        e 0 90 4c 6e
        e 32 80 47 40
        e 0 80 4c 40
        e 16 90 50 6e
        e 32 80 50 40
        e 16 90 47 6e
        e 0 90 4c 6e
        e 32 80 47 40
        e 0 80 4c 40
        e 16 90 50 6e
        e 32 80 50 40
        e 16 90 47 6e
        e 0 90 4c 6e
        e 32 80 47 40
        e 0 80 4c 40
        e 16 90 50 6e
        e 32 80 50 40
        e 16 90 47 6e
        e 0 90 4c 6e
        e 32 80 47 40
        e 0 80 4c 40
        e 16 90 50 6e
        e 32 80 50 40
        e 16 90 47 6e
        e 0 90 4c 6e
        e 32 80 47 40
        e 0 80 4c 40
        e 16 90 50 6e
        e 32 80 50 40
        e 16 90 48 6e
        e 0 90 4c 6e
        e 32 80 48 40
        e 0 80 4c 40
        e 16 90 51 6e
        e 32 80 51 40
        e 16 90 48 6e
        e 0 90 4c 6e
        e 32 80 48 40
        e 0 80 4c 40
        e 16 90 51 6e
        e 32 80 51 40
        e 16 90 4a 6e
        e 0 90 4c 6e
        e 32 80 4a 40
        e 0 80 4c 40
        e 16 90 53 6e
        e 32 80 53 40
        e 16 90 4a 6e
        e 0 90 4c 6e
        e 32 80 4a 40
        e 0 80 4c 40
        e 16 90 53 6e
        e 32 80 53 40
        e 16 90 4a 6e
        e 0 90 4c 6e
        e 32 80 4a 40
        e 0 80 4c 40
        e 16 90 53 6e
        e 32 80 53 40
        e 16 90 4a 6e
        e 0 90 4c 6e
        e 32 80 4a 40
        e 0 80 4c 40
        e 16 90 53 6e
        e 32 80 53 40
        e 16 90 4a 6e
        e 0 90 4c 6e
        e 32 80 4a 40
        e 0 80 4c 40
        e 16 90 53 6e
        e 32 80 53 40
        e 16 90 4a 6e
        e 0 90 4c 6e
        e 32 80 4a 40
        e 0 80 4c 40
        e 16 90 53 6e
        e 32 80 53 40
        e 16 90 47 6e
        e 0 90 4c 6e
        e 32 80 47 40
        e 0 80 4c 40
        e 16 90 50 6e
        e 32 80 50 40
        e 16 90 47 6e
        e 0 90 4c 6e
        e 32 80 47 40
        e 0 80 4c 40
        e 16 90 50 6e
        e 32 80 50 40
        e 16 90 48 6e
        e 0 90 4c 6e
        e 32 80 48 40
        e 0 80 4c 40
        e 16 90 51 6e
        e 32 80 51 40
        e 16 90 48 6e
        e 0 90 4c 6e
        e 32 80 48 40
        e 0 80 4c 40
        e 16 90 51 6e
        e 32 80 51 40
        e 16 90 48 6e
        e 0 90 4c 6e
        e 32 80 48 40
        e 0 80 4c 40
        e 16 90 51 6e
        e 32 80 51 40
        e 16 90 48 6e
        e 0 90 4c 6e
        e 32 80 48 40
        e 0 80 4c 40
        e 16 90 51 6e
        e 32 80 51 40
        e 16 90 48 6e
        e 0 90 51 6e
        e 128 80 48 40
        e 0 80 51 40
        e 16 90 47 6e
        e 0 90 50 6e
        e 32 80 47 40
        e 0 80 50 40
        e 16 90 48 6e
        e 0 90 51 6e
        e 128 80 48 40
        e 0 80 51 40
        e 16 90 4a 6e
        e 0 90 53 6e
        e 32 80 4a 40
        e 0 80 53 40
        e 16 90 47 6e
        e 0 90 50 6e
        e 96 90 40 6e
        e 0 90 4c 6e
        e 32 80 47 40
        e 0 80 50 40
        e 0 80 40 40
        e 0 80 4c 40
        e 16 90 40 6e
        e 0 90 4c 6e
        e 32 80 40 40
        e 0 80 4c 40
        e 16 90 40 6e
        e 0 90 4c 6e
        e 80 80 40 40
        e 0 80 4c 40
        e 16 90 40 6e
        e 0 90 4c 6e
        e 80 80 40 40
        e 0 80 4c 40
        e 16 90 40 6e
        e 0 90 4c 6e
        e 80 80 40 40
        e 0 80 4c 40
        e 16 90 40 6e
        e 0 90 4c 6e
        e 32 80 40 40
        e 0 80 4c 40
        e 16 90 40 6e
        e 0 90 4c 6e
        e 32 80 40 40
        e 0 80 4c 40
        e 16 90 40 6e
        e 0 90 4c 6e
        e 80 80 40 40
        e 0 80 4c 40
        e 16 90 40 6e
        e 0 90 4c 6e
        e 80 80 40 40
        e 0 80 4c 40
        e 16 90 47 6e
        e 32 80 47 40
        e 16 90 4c 6e
        e 32 80 4c 40
        e 16 90 50 6e
        e 32 80 50 40
        e 16 90 4c 6e
        e 32 80 4c 40
        e 16 90 47 6e
        e 32 80 47 40
        e 16 90 4c 6e
        e 32 80 4c 40
        e 16 90 50 6e
        e 32 80 50 40
        e 16 90 4c 6e
        e 32 80 4c 40
        e 16 90 47 6e
        e 32 80 47 40
        e 16 90 4c 6e
        e 32 80 4c 40
        e 16 90 50 6e
        e 32 80 50 40
        e 16 90 4c 6e
        e 32 80 4c 40
        e 16 90 48 6e
        e 32 80 48 40
        e 16 90 4c 6e
        e 32 80 4c 40
        e 16 90 51 6e
        e 32 80 51 40
        e 16 90 4c 6e
        e 32 80 4c 40
        e 16 90 4a 6e
        e 32 80 4a 40
        e 16 90 4c 6e
        e 32 80 4c 40
        e 16 90 53 6e
        e 32 80 53 40
        e 16 90 4c 6e
        e 32 80 4c 40
        e 16 90 4a 6e
        e 32 80 4a 40
        e 16 90 4c 6e
        e 32 80 4c 40
        e 16 90 53 6e
        e 32 80 53 40
        e 16 90 4c 6e
        e 32 80 4c 40
        e 16 90 4a 6e
        e 32 80 4a 40
        e 16 90 4c 6e
        e 32 80 4c 40
        e 16 90 53 6e
        e 32 80 53 40
        e 16 90 4c 6e
        e 32 80 4c 40
        e 16 90 47 6e
        e 32 80 47 40
        e 16 90 4c 6e
        e 32 80 4c 40
        e 16 90 50 6e
        e 32 80 50 40
        e 16 90 4c 6e
        e 32 80 4c 40
        e 16 90 48 6e
        e 32 80 48 40
        e 16 90 4c 6e
        e 32 80 4c 40
        e 16 90 51 6e
        e 32 80 51 40
        e 16 90 4c 6e
        e 32 80 4c 40
        e 16 90 48 6e
        e 32 80 48 40
        e 16 90 4c 6e
        e 32 80 4c 40
        e 16 90 51 6e
        e 32 80 51 40
        e 16 90 4c 6e
        e 32 80 4c 40
        e 16 90 48 6e
        e 32 80 48 40
        e 16 90 4b 6e
        e 32 80 4b 40
        e 16 90 51 6e
        e 32 80 51 40
        e 16 90 4b 6e
        e 32 80 4b 40
        e 16 90 48 6e
        e 32 80 48 40
        e 16 90 4b 6e
        e 32 80 4b 40
        e 16 90 51 6e
        e 32 80 51 40
        e 16 90 4b 6e
        e 32 80 4b 40
        e 16 90 47 6e
        e 0 90 4c 6e
        e 0 90 50 6e
        e 80 80 47 40
        e 0 80 4c 40
        e 0 80 50 40
        e 16 90 40 6e
        e 0 90 44 6e
        e 0 90 47 6e
        e 0 90 4c 6e
        e 32 80 40 40
        e 0 80 44 40
        e 0 80 47 40
        e 0 80 4c 40
        e 16 90 40 6e
        e 0 90 44 6e
        e 0 90 47 6e
        e 0 90 4c 6e
        e 32 80 40 40
        e 0 80 44 40
        e 0 80 47 40
        e 0 80 4c 40
        e 16 90 40 6e
        e 0 90 44 6e
        e 0 90 47 6e
        e 0 90 4c 6e
        e 80 80 40 40
        e 0 80 44 40
        e 0 80 47 40
        e 0 80 4c 40
        e 16 90 40 6e
        e 0 90 44 6e
        e 0 90 47 6e
        e 0 90 4c 6e
        e 80 80 40 40
        e 0 80 44 40
        e 0 80 47 40
        e 0 80 4c 40
        e 16 90 40 6e
        e 0 90 44 6e
        e 0 90 47 6e
        e 0 90 4c 6e
        e 176 80 40 40
        e 0 80 44 40
        e 0 80 47 40
        e 0 80 4c 40
        e 16 90 3c 6e
        e 0 90 40 6e
        e 128 80 3c 40
        e 0 80 40 40
        e 16 90 3e 6e
        e 0 90 41 6e
        e 32 80 3e 40
        e 0 80 41 40
        e 16 90 40 6e
        e 0 90 43 6e
        e 80 80 40 40
        e 0 80 43 40
        e 16 90 40 6e
        e 0 90 43 6e
        e 32 80 40 40
        e 0 80 43 40
        e 16 90 40 6e
        e 0 90 43 6e
        e 32 80 40 40
        e 0 80 43 40
        e 16 90 40 6e
        e 0 90 43 6e
        e 128 80 40 40
        e 0 80 43 40
        e 16 90 41 6e
        e 0 90 45 6e
        e 32 80 41 40
        e 0 80 45 40
        e 16 90 43 6e
        e 0 90 46 6e
        e 80 80 43 40
        e 0 80 46 40
        e 16 90 43 6e
        e 0 90 46 6e
        e 32 80 43 40
        e 0 80 46 40
        e 16 90 43 6e
        e 0 90 46 6e
        e 32 80 43 40
        e 0 80 46 40
        e 16 90 43 6e
        e 0 90 46 6e
        e 128 80 43 40
        e 0 80 46 40
        e 16 90 43 6e
        e 0 90 46 6e
        e 32 80 43 40
        e 0 80 46 40
        e 16 90 43 6e
        e 0 90 46 6e
        e 80 80 43 40
        e 0 80 46 40
        e 16 90 43 6e
        e 0 90 46 6e
        e 32 80 43 40
        e 0 80 46 40
        e 16 90 43 6e
        e 0 90 46 6e
        e 32 80 43 40
        e 0 80 46 40
        e 16 90 41 6e
        e 0 90 45 6e
        e 80 80 41 40
        e 0 80 45 40
        e 16 90 41 6e
        e 0 90 45 6e
        e 80 80 41 40
        e 0 80 45 40
        e 16 90 41 6e
        e 0 90 45 6e
        e 176 80 41 40
        e 0 80 45 40
        e 16 90 3e 6e
        e 0 90 42 6e
        e 128 80 3e 40
        e 0 80 42 40
        e 16 90 40 6e
        e 0 90 43 6e
        e 32 80 40 40
        e 0 80 43 40
        e 16 90 42 6e
        e 0 90 45 6e
        e 80 80 42 40
        e 0 80 45 40
        e 16 90 42 6e
        e 0 90 45 6e
        e 32 80 42 40
        e 0 80 45 40
        e 16 90 42 6e
        e 0 90 45 6e
        e 32 80 42 40
        e 0 80 45 40
        e 16 90 42 6e
        e 0 90 45 6e
        e 128 80 42 40
        e 0 80 45 40
        e 16 90 43 6e
        e 0 90 47 6e
        e 32 80 43 40
        e 0 80 47 40
        e 16 90 45 6e
        e 0 90 48 6e
        e 80 80 45 40
        e 0 80 48 40
        e 16 90 45 6e
        e 0 90 48 6e
        e 32 80 45 40
        e 0 80 48 40
        e 16 90 45 6e
        e 0 90 48 6e
        e 32 80 45 40
        e 0 80 48 40
        e 16 90 45 6e
        e 0 90 48 6e
        e 128 80 45 40
        e 0 80 48 40
        e 16 90 45 6e
        e 0 90 48 6e
        e 32 80 45 40
        e 0 80 48 40
        e 16 90 43 6e
        e 0 90 47 6e
        e 80 80 43 40
        e 0 80 47 40
        e 16 90 43 6e
        e 0 90 47 6e
        e 32 80 43 40
        e 0 80 47 40
        e 16 90 43 6e
        e 0 90 47 6e
        e 32 80 43 40
        e 0 80 47 40
        e 16 90 43 6e
        e 0 90 47 6e
        e 80 80 43 40
        e 0 80 47 40
        e 16 90 43 6e
        e 0 90 47 6e
        e 80 80 43 40
        e 0 80 47 40
        e 16 90 43 6e
        e 0 90 47 6e
        e 176 80 43 40
        e 0 80 47 40
        e 16 90 47 6e
        e 0 90 4f 6e
        e 0 90 53 6e
        e 128 80 47 40
        e 0 80 4f 40
        e 0 80 53 40
        e 16 90 47 6e
        e 0 90 4f 6e
        e 0 90 53 6e
        e 32 80 47 40
        e 0 80 4f 40
        e 0 80 53 40
        e 16 90 47 6e
        e 0 90 4f 6e
        e 0 90 53 6e
        e 128 80 47 40
        e 0 80 4f 40
        e 0 80 53 40
        e 16 90 45 6e
        e 0 90 4d 6e
        e 0 90 51 6e
        e 32 80 45 40
        e 0 80 4d 40
        e 0 80 51 40
        e 16 90 47 6e
        e 0 90 4f 6e
        e 0 90 53 6e
        e 128 80 47 40
        e 0 80 4f 40
        e 0 80 53 40
        e 16 90 45 6e
        e 0 90 4d 6e
        e 0 90 51 6e
        e 32 80 45 40
        e 0 80 4d 40
        e 0 80 51 40
        e 16 90 45 6e
        e 0 90 4d 6e
        e 0 90 51 6e
        e 128 80 45 40
        e 0 80 4d 40
        e 0 80 51 40
        e 16 90 43 6e
        e 0 90 4c 6e
        e 0 90 4f 6e
        e 32 80 43 40
        e 0 80 4c 40
        e 0 80 4f 40
        e 16 90 45 6e
        e 0 90 4d 6e
        e 0 90 51 6e
        e 128 80 45 40
        e 0 80 4d 40
        e 0 80 51 40
        e 16 90 43 6e
        e 0 90 4c 6e
        e 0 90 4f 6e
        e 32 80 43 40
        e 0 80 4c 40
        e 0 80 4f 40
        e 16 90 45 6e
        e 0 90 4d 6e
        e 0 90 51 6e
        e 272 80 45 40
        e 0 80 4d 40
        e 0 80 51 40
        e 16 90 43 6e
        e 0 90 4c 6e
        e 0 90 4f 6e
        e 80 80 43 40
        e 0 80 4c 40
        e 0 80 4f 40
        e 16 90 40 6e
        e 0 90 48 6e
        e 0 90 4c 6e
        e 176 80 40 40
        e 0 80 48 40
        e 0 80 4c 40
        e 16 90 48 6e
        e 0 90 54 6e
        e 128 80 48 40
        e 0 80 54 40
        e 16 90 47 6e
        e 0 90 4f 6e
        e 0 90 53 6e
        e 32 80 47 40
        e 0 80 4f 40
        e 0 80 53 40
        e 16 90 47 6e
        e 0 90 4f 6e
        e 0 90 53 6e
        e 128 80 47 40
        e 0 80 4f 40
        e 0 80 53 40
        e 16 90 45 6e
        e 0 90 4d 6e
        e 0 90 51 6e
        e 32 80 45 40
        e 0 80 4d 40
        e 0 80 51 40
        e 16 90 47 6e
        e 0 90 4f 6e
        e 0 90 53 6e
        e 128 80 47 40
        e 0 80 4f 40
        e 0 80 53 40
        e 16 90 45 6e
        e 0 90 4d 6e
        e 0 90 51 6e
        e 32 80 45 40
        e 0 80 4d 40
        e 0 80 51 40
        e 16 90 45 6e
        e 0 90 4d 6e
        e 0 90 51 6e
        e 128 80 45 40
        e 0 80 4d 40
        e 0 80 51 40
        e 16 90 43 6e
        e 0 90 4c 6e
        e 0 90 4f 6e
        e 32 80 43 40
        e 0 80 4c 40
        e 0 80 4f 40
        e 16 90 45 6e
        e 0 90 4d 6e
        e 0 90 51 6e
        e 128 80 45 40
        e 0 80 4d 40
        e 0 80 51 40
        e 16 90 43 6e
        e 0 90 4c 6e
        e 0 90 4f 6e
        e 32 80 43 40
        e 0 80 4c 40
        e 0 80 4f 40
        e 16 90 40 6e
        e 0 90 48 6e
        e 0 90 4c 6e
        e 80 80 40 40
        e 0 80 48 40
        e 0 80 4c 40
        e 16 90 3c 6e
        e 0 90 48 6e
        e 32 80 3c 40
        e 0 80 48 40
        e 16 90 3c 6e
        e 0 90 48 6e
        e 32 80 3c 40
        e 0 80 48 40
        e 16 90 3c 6e
        e 0 90 48 6e
        e 80 80 3c 40
        e 0 80 48 40
        e 16 90 3e 6e
        e 0 90 4a 6e
        e 80 80 3e 40
        e 0 80 4a 40
        e 16 90 40 6e
        e 0 90 4c 6e
        e 80 80 40 40
        e 0 80 4c 40
        e 16 90 41 6e
        e 0 90 4d 6e
        e 80 80 41 40
        e 0 80 4d 40
        e 16 90 43 6e
        e 0 90 4f 6e
        e 80 80 43 40
        e 0 80 4f 40
        e 16 90 45 6e
        e 0 90 51 6e
        e 80 80 45 40
        e 0 80 51 40
        e 16 90 46 6e
        e 0 90 52 6e
        e 80 80 46 40
        e 0 80 52 40
        e 16 90 40 6e
        e 0 90 43 6e
        e 0 90 49 6e
        e 32 80 40 40
        e 0 80 43 40
        e 0 80 49 40
        e 16 90 40 6e
        e 0 90 43 6e
        e 0 90 49 6e
        e 32 80 40 40
        e 0 80 43 40
        e 0 80 49 40
        e 16 90 40 6e
        e 0 90 43 6e
        e 0 90 49 6e
        e 128 80 40 40
        e 0 80 43 40
        e 0 80 49 40
        e 16 90 40 6e
        e 0 90 43 6e
        e 0 90 49 6e
        e 32 80 40 40
        e 0 80 43 40
        e 0 80 49 40
        e 16 90 41 6e
        e 0 90 45 6e
        e 0 90 4a 6e
        e 176 80 41 40
        e 0 80 45 40
        e 0 80 4a 40
        e 16 90 40 6e
        e 0 90 43 6e
        e 0 90 45 6e
        e 0 90 49 6e
        e 176 80 40 40
        e 0 80 43 40
        e 0 80 45 40
        e 0 80 49 40
        e 16 90 3e 6e
        e 0 90 45 6e
        e 0 90 4a 6e
        e 176 80 3e 40
        e 0 80 45 40
        e 0 80 4a 40
        e 16 90 3e 6e
        e 0 90 45 6e
        e 0 90 4a 6e
        e 176 80 3e 40
        e 0 80 45 40
        e 0 80 4a 40
        e 208 90 48 6e
        e 0 90 4b 6e
        e 0 90 51 6e
        e 128 80 48 40
        e 0 80 4b 40
        e 0 80 51 40
        e 16 90 48 6e
        e 0 90 4b 6e
        e 0 90 51 6e
        e 32 80 48 40
        e 0 80 4b 40
        e 0 80 51 40
        e 16 90 48 6e
        e 0 90 4c 6e
        e 0 90 4f 6e
        e 176 80 48 40
        e 0 80 4c 40
        e 0 80 4f 40
        e 16 90 43 6e
        e 0 90 48 6e
        e 0 90 4c 6e
        e 128 80 43 40
        e 0 80 48 40
        e 0 80 4c 40
        e 16 90 43 6e
        e 0 90 48 6e
        e 0 90 4c 6e
        e 32 80 43 40
        e 0 80 48 40
        e 0 80 4c 40
        e 16 90 43 6e
        e 0 90 4a 6e
        e 0 90 4d 6e
        e 176 80 43 40
        e 0 80 4a 40
        e 0 80 4d 40
        e 16 90 43 6e
        e 0 90 47 6e
        e 0 90 4a 6e
        e 128 80 43 40
        e 0 80 47 40
        e 0 80 4a 40
        e 16 90 43 6e
        e 0 90 47 6e
        e 0 90 4a 6e
        e 32 80 43 40
        e 0 80 47 40
        e 0 80 4a 40
        e 16 90 43 6e
        e 0 90 48 6e
        e 0 90 4c 6e
        e 176 80 43 40
        e 0 80 48 40
        e 0 80 4c 40
        e 16 90 34 6e
        e 48 80 34 40
        e 16 90 35 6e
        e 48 80 35 40
        e 16 90 37 6e
        e 48 80 37 40
        e 16 90 39 6e
        e 48 80 39 40
        e 16 90 3b 6e
        e 48 80 3b 40
        e 16 90 3c 6e
        e 48 80 3c 40
        e 16 90 3e 6e
        e 48 80 3e 40
        e 16 90 40 6e
        e 48 80 40 40
        e 16 90 41 6e
        e 48 80 41 40
        e 16 90 43 6e
        e 80 80 43 40
        e 16 90 48 6e
        e 0 90 4c 6e
        e 0 90 4d 6e
        e 0 90 4f 6e
        e 0 90 54 6e
        e 32 80 48 40
        e 0 80 4c 40
        e 0 80 4d 40
        e 0 80 4f 40
        e 0 80 54 40
        e 16 90 48 6e
        e 0 90 4c 6e
        e 0 90 4f 6e
        e 0 90 54 6e
        e 32 80 48 40
        e 0 80 4c 40
        e 0 80 4f 40
        e 0 80 54 40
        e 16 90 48 6e
        e 0 90 4c 6e
        e 0 90 4f 6e
        e 0 90 54 6e
        e 80 80 48 40
        e 0 80 4c 40
        e 0 80 4f 40
        e 0 80 54 40
        e 16 90 48 6e
        e 0 90 4c 6e
        e 0 90 4f 6e
        e 0 90 54 6e
        e 80 80 48 40
        e 0 80 4c 40
        e 0 80 4f 40
        e 0 80 54 40
        e 16 90 4a 6e
        e 0 90 4d 6e
        e 0 90 4f 6e
        e 0 90 53 6e
        e 80 80 4a 40
        e 0 80 4d 40
        e 0 80 4f 40
        e 0 80 53 40
        e 16 90 4a 6e
        e 0 90 4d 6e
        e 0 90 4f 6e
        e 0 90 53 6e
        e 32 80 4a 40
        e 0 80 4d 40
        e 0 80 4f 40
        e 0 80 53 40
        e 16 90 4a 6e
        e 0 90 4d 6e
        e 0 90 4f 6e
        e 0 90 53 6e
        e 32 80 4a 40
        e 0 80 4d 40
        e 0 80 4f 40
        e 0 80 53 40
        e 16 90 4a 6e
        e 0 90 4d 6e
        e 0 90 4f 6e
        e 0 90 53 6e
        e 80 80 4a 40
        e 0 80 4d 40
        e 0 80 4f 40
        e 0 80 53 40
        e 16 90 4a 6e
        e 0 90 4d 6e
        e 0 90 4f 6e
        e 0 90 53 6e
        e 80 80 4a 40
        e 0 80 4d 40
        e 0 80 4f 40
        e 0 80 53 40
        e 16 90 48 6e
        e 0 90 4c 6e
        e 0 90 54 6e
        e 176 80 48 40
        e 0 80 4c 40
        e 0 80 54 40
        e 16 90 34 6e
        e 48 80 34 40
        e 16 90 35 6e
        e 48 80 35 40
        e 16 90 37 6e
        e 48 80 37 40
        e 16 90 39 6e
        e 48 80 39 40
        e 16 90 3b 6e
        e 48 80 3b 40
        e 16 90 3c 6e
        e 48 80 3c 40
        e 16 90 3e 6e
        e 48 80 3e 40
        e 16 90 40 6e
        e 48 80 40 40
        e 16 90 41 6e
        e 48 80 41 40
        e 16 90 43 6e
        e 80 80 43 40
        e 16 90 48 6e
        e 0 90 4c 6e
        e 0 90 54 6e
        e 32 80 48 40
        e 0 80 4c 40
        e 0 80 54 40
        e 16 90 48 6e
        e 0 90 4c 6e
        e 0 90 4f 6e
        e 0 90 54 6e
        e 32 80 48 40
        e 0 80 4c 40
        e 0 80 4f 40
        e 0 80 54 40
        e 16 90 48 6e
        e 0 90 4c 6e
        e 0 90 4f 6e
        e 0 90 54 6e
        e 80 80 48 40
        e 0 80 4c 40
        e 0 80 4f 40
        e 0 80 54 40
        e 16 90 48 6e
        e 0 90 4c 6e
        e 0 90 4f 6e
        e 0 90 54 6e
        e 80 80 48 40
        e 0 80 4c 40
        e 0 80 4f 40
        e 0 80 54 40
        e 16 90 4a 6e
        e 0 90 4d 6e
        e 0 90 4f 6e
        e 0 90 53 6e
        e 80 80 4a 40
        e 0 80 4d 40
        e 0 80 4f 40
        e 0 80 53 40
        e 16 90 4a 6e
        e 0 90 4d 6e
        e 0 90 4f 6e
        e 0 90 53 6e
        e 32 80 4a 40
        e 0 80 4d 40
        e 0 80 4f 40
        e 0 80 53 40
        e 16 90 4a 6e
        e 0 90 4d 6e
        e 0 90 4f 6e
        e 0 90 53 6e
        e 32 80 4a 40
        e 0 80 4d 40
        e 0 80 4f 40
        e 0 80 53 40
        e 16 90 4a 6e
        e 0 90 4d 6e
        e 0 90 4f 6e
        e 0 90 53 6e
        e 80 80 4a 40
        e 0 80 4d 40
        e 0 80 4f 40
        e 0 80 53 40
        e 16 90 4a 6e
        e 0 90 4d 6e
        e 0 90 4f 6e
        e 0 90 53 6e
        e 80 80 4a 40
        e 0 80 4d 40
        e 0 80 4f 40
        e 0 80 53 40
        e 16 90 48 6e
        e 0 90 4c 6e
        e 0 90 4f 6e
        e 0 90 54 6e
        e 176 80 48 40
        e 0 80 4c 40
        e 0 80 4f 40
        e 0 80 54 40
        e 16 90 48 6e
        e 48 80 48 40
        e 16 90 43 6e
        e 48 80 43 40
        e 16 90 4c 6e
        e 48 80 4c 40
        e 16 90 48 6e
        e 48 80 48 40
        e 16 90 43 6e
        e 48 80 43 40
        e 16 90 4c 6e
        e 48 80 4c 40
        e 16 90 48 6e
        e 48 80 48 40
        e 16 90 43 6e
        e 48 80 43 40
        e 16 90 4c 6e
        e 48 80 4c 40
        e 16 90 48 6e
        e 48 80 48 40
        e 16 90 54 6e
        e 48 80 54 40
        e 16 90 53 6e
        e 48 80 53 40
        e 16 90 54 6e
        e 48 80 54 40
        e 16 90 4f 6e
        e 48 80 4f 40
        e 16 90 4c 6e
        e 48 80 4c 40
        e 16 90 48 6e
        e 48 80 48 40
        e 16 90 48 6e
        e 48 80 48 40
        e 16 90 47 6e
        e 48 80 47 40
        e 16 90 48 6e
        e 48 80 48 40
        e 16 90 43 6e
        e 48 80 43 40
        e 16 90 40 6e
        e 48 80 40 40
        e 16 90 3c 6e
        e 176 80 3c 40
        e 16 90 40 6e
        e 0 90 43 6e
        e 0 90 48 6e
        e 128 80 40 40
        e 0 80 43 40
        e 0 80 48 40
        e 16 90 40 6e
        e 0 90 43 6e
        e 0 90 48 6e
        e 32 80 40 40
        e 0 80 43 40
        e 0 80 48 40
        e 16 90 40 6e
        e 0 90 43 6e
        e 0 90 48 6e
        e 176 80 40 40
        e 0 80 43 40
        e 0 80 48 40
        E 16 b0 7b 00
        GUID {4AF28801-66B9-ED48-A373-73558CFBFB37}
        IGNTEMPO 0 120 4 4
        SRCCOLOR 912
        VELLANE -1 86 6
        CFGEDITVIEW 0 0 50 24 0 0 0 0 0 0.5
        KEYSNAP 0
        TRACKSEL 226 0 0 ""
        EVTFILTER 0 -1 -1 -1 -1 0 1 0 0 -1 -1 -1 -1 0 -1 0 -1 -1
        CFGEDIT 1 0 0 0 0 0 1 0 1 1 1 0.25 16 63 1280 778 0 0 2 3 0 0 0 0 0 0.5 0 0 1 64
      >
    >
  >
  <TRACK {97C14EE2-C273-C940-9D68-54C062C3CBCA}
    NAME ChipFront
    PEAKCOL 16576
    BEAT -1
    AUTOMODE 0
    VOLPAN 0.3981071705535 0 -1 -1 1
    MUTESOLO 0 0 0
    IPHASE 0
    ISBUS 0 0
    BUSCOMP 0 0
    SHOWINMIX 1 0.6667 0.5 1 0.5 0 0 0
    FREEMODE 0
    SEL 0
    REC 0 0 0 0 0 0 0
    VU 2
    TRACKHEIGHT 0 0
    INQ 0 0 0 0.5 100 0 0 100
    NCHAN 2
    FX 1
    TRACKID {97C14EE2-C273-C940-9D68-54C062C3CBCA}
    PERF 0
    AUXRECV 4 0 1 0 0 0 0 0 0 -1:U 0 -1 ''
    MIDIOUT -1
    MAINSEND 1 0
    <FXCHAIN
      SHOW 0
      LASTSEL 0
      DOCKED 0
      BYPASS 0 0 0
      <VST "VST: FabFilter Volcano 2 (SC) (FabFilter)" "FabFilter Volcano 2 (SC).vst" 0 "" 1180054068
        NDJWRu9e7f4EAAAAAQAAAAAAAAACAAAAAAAAAAQAAAAAAAAACAAAAAAAAAAEAAAAAQAAAAAAAAACAAAAAAAAAAQAAAAAAAAACAAAAAAAAADcCwAAAAAAAAAAEAA=
        776t3g3wrd4AAAA/AAAAPwAAAD8AAAA/AACAPwAAAAAAAAA/q6qqPq2+aD8AAAA/ig0yPM3MzD0AAAAAAAAAAAAAAAAAAIA/AACAP0Isdj8AAAA/bbDgPZqZGT8AAAAA
        AAAAAOev3zwAAIA/AAAAAAAAgD8AAAA/AAAAAJqZGT8AAAAAAAAAAAAAAAAAAIA/AAAAAAAAgD8AAAA/AAAAAJqZGT8AAAAAAAAAAAAAAAAAAIA/AAAAAKuqqj4ATrI+
        AAAAPwAAAADBykk/XXRRPwAAAACJiIg9AACAP6oXiD4AAAAAAAAAAAAAAAAAAAAAAACAPwAAAAAAAAA/AAAAAAAAAAAAAAAAAAAAPwAAAAAAAAAAAAAAAAAAAD8AAAAA
        AAAAAAAAAAAAAAA/AAAAAAAAAAAAAAAAAAAAPwAAAAAAAAAAAAAAAAAAAD8AAAAAAAAAAAAAAAAAAAA/AAAAAAAAAAAAAAAAAAAAPwAAAAAAAAAAAAAAAAAAAD8AAAAA
        AAAAAAAAAAAAAAA/AAAAAAAAAAAAAAAAAAAAPwAAAAAAAAAAAAAAAAAAAD8AAAAAAAAAAAAAAAAAAAA/AAAAAAAAAAAAAAAAAAAAPwAAAAAAAAAAAAAAAHwZED4AAAA/
        KKO3PQAAgD8AAAAAAAAAAImIiD3y0iU/AAAAAAAAgD8AAAAAdGjRPQAAAAAAAIA/AAAAAAAAAD8AAAAAAAAAAAAAAAAAAAA/AAAAAAAAAAAAAAAAAAAAPwAAAAAAAAAA
        AAAAAAAAAD8AAAAAAAAAAAAAAAAAAAA/AAAAAAAAAAAAAAAAAAAAPwAAAAAAAAAAAAAAAAAAAD8AAAAAAAAAAAAAAAAAAAA/AAAAAAAAAAAAAAAAAAAAPwAAAAAAAAAA
        AAAAAAAAAD8AAAAAAAAAAAAAAAAAAAA/AAAAAAAAAAAAAAAAAAAAPwAAAAAAAAAAAAAAAAAAAD8AAAAAAAAAAAAAAAAAAAA/AAAAAAAAAAAAAAAAvvR9PgAAAD8AAAA/
        AAAAPwAAAAAAAAAAiYiIPQAAAD8AAAAAAAAAAAAAAAAAAAA/AAAAAAAAAAAAAAAAAAAAPwAAAAAAAAAAAAAAAAAAAD8AAAAAAAAAAAAAAAAAAAA/AAAAAAAAAAAAAAAA
        AAAAPwAAAAAAAAAAAAAAAAAAAD8AAAAAAAAAAAAAAAAAAAA/AAAAAAAAAAAAAAAAAAAAPwAAAAAAAAAAAAAAAAAAAD8AAAAAAAAAAAAAAAAAAAA/AAAAAAAAAAAAAAAA
        AAAAPwAAAAAAAAAAAAAAAAAAAD8AAAAAAAAAAAAAAAAAAAA/AAAAAAAAAAAAAAAAAAAAPwAAAAAAAAAAAAAAAAAAAD8AAAAAAAAAAAAAAAC+9H0+AAAAPwAAAD8AAAA/
        AAAAAAAAAACJiIg9AAAAPwAAAAAAAAAAAAAAAAAAAD8AAAAAAAAAAAAAAAAAAAA/AAAAAAAAAAAAAAAAAAAAPwAAAAAAAAAAAAAAAAAAAD8AAAAAAAAAAAAAAAAAAAA/
        AAAAAAAAAAAAAAAAAAAAPwAAAAAAAAAAAAAAAAAAAD8AAAAAAAAAAAAAAAAAAAA/AAAAAAAAAAAAAAAAAAAAPwAAAAAAAAAAAAAAAAAAAD8AAAAAAAAAAAAAAAAAAAA/
        AAAAAAAAAAAAAAAAAAAAPwAAAAAAAAAAAAAAAAAAAD8AAAAAAAAAAAAAAAAAAAA/AAAAAAAAAAAAAAAAAAAAPwAAAAAAAAAAAAAAAL70fT4AAAA/AAAAPwAAAD8AAAAA
        AAAAAImIiD0AAAA/AAAAAAAAAAAAAAAAAAAAPwAAAAAAAAAAAAAAAAAAAD8AAAAAAAAAAAAAAAAAAAA/AAAAAAAAAAAAAAAAAAAAPwAAAAAAAAAAAAAAAAAAAD8AAAAA
        AAAAAAAAAAAAAAA/AAAAAAAAAAAAAAAAAAAAPwAAAAAAAAAAAAAAAAAAAD8AAAAAAAAAAAAAAAAAAAA/AAAAAAAAAAAAAAAAAAAAPwAAAAAAAAAAAAAAAAAAAD8AAAAA
        AAAAAAAAAAAAAAA/AAAAAAAAAAAAAAAAAAAAPwAAAAAAAAAAAAAAAAAAAD8AAAAAAAAAAAAAAAAAAAA/AAAAAAAAAAAAAAAAvvR9PgAAAD8AAAA/AAAAPwAAAAAAAAAA
        iYiIPQAAAD8AAAAAAAAAAAAAAAAAAAA/AAAAAAAAAAAAAAAAAAAAPwAAAAAAAAAAAAAAAAAAAD8AAAAAAAAAAAAAAAAAAAA/AAAAAAAAAAAAAAAAAAAAPwAAAAAAAAAA
        AAAAAAAAAD8AAAAAAAAAAAAAAAAAAAA/AAAAAAAAAAAAAAAAAAAAPwAAAAAAAAAAAAAAAAAAAD8AAAAAAAAAAAAAAAAAAAA/AAAAAAAAAAAAAAAAAAAAPwAAAAAAAAAA
        AAAAAAAAAD8AAAAAAAAAAAAAAAAAAAA/AAAAAAAAAAAAAAAAAAAAPwAAAAAAAAAAAAAAAAAAAD8AAAAAAAAAAAAAAAAAAAAAmpmZPgAAAAAAAAAAAAAAAAAAgD8AAAAA
        mpmZPgAAAAAAAAAAAAAAAAAAgD8AAAAAmpmZPgAAAAAAAAAAAAAAAAAAgD8AAAAAmpmZPgAAAAAAAAAAAAAAAAAAgD8AAAAAmpmZPgAAAAAAAAAAAAAAAAAAgD8AAAAA
        mpmZPgAAAAAAAAAAAAAAAAAAgD8AAAAAAAAAAAAAAAAAAAAAAAAAAAAAAAAAAAAAAAAAAAAAAAAAAAAAAAAAAAAAAAAAAAAAAAAAAAAAAAAAAAAAAAAAAAAAAAAAAAAA
        AAAAAAAAAAAAAAAAAAAAAAAAAAAAAAAAAAAAAAAAAAAAAAAAAAAAAAAAAAAAAAAAAAAAAAAAAAAAAAAAAAAAAAAAAAAAAAAAAAAAAKuqKj3ZiZ09gShWPgAAAAAAAAAA
        v+eWPQAAAAAAAAA/AAAAAAAAAAAAAAAAAAAAAAAAAD8AAAAAAAAAAAAAAAAAAAAAAAAAPwAAAAAAAAAAAAAAAAAAAAAAAAAAAAAAAAAAAAAAAAAAAAAAAAAAAAAAAAAA
        AAAAAAAAAAAAAAAAAAAAAAAAAAAAAAAAAAAAAAAAAAAAAAAAAAAAAAAAAAAAAAAAAAAAAAAAAAAAAAAAAAAAAAAAAAAAAAAAAAAAAAAAAAAAAAAAAAAAAAAAAAAAAAAA
        AAAAAAAAAAAAAAAAAAAAAAAAAAAAAAAAAAAAAAAAAAAAAAAAAAAAAAAAAAAAAAAAAAAAAAAAAAAAAAAAAAAAAAAAAAAAAAAAAAAAAAAAAAAAAAAAAAAAAAAAAAAAAAAA
        AAAAAAAAAAAAAAAAAAAAAAAAAAAAAAAAAAAAAAAAAAAAAAAAAAAAAAAAAAAAAAAAAAAAAAAAAAAAAAAAAAAAAAAAAAAAAAAAAAAAAAAAAAAAAAAAAAAAAAAAAAAAAAAA
        AAAAAAAAAAAAAAAAAAAAAAAAAAAAAAAAAAAAAAAAAAAAAAAAAAAAAAAAAAAAAAAAAAAAAAAAAAAAAAAAAAAAAAAAAAAAAAAAAAAAAAAAAAAAAAAAAAAAPwAAAD8AAAA/
        AAAAPwAAAD8AAAA/AAAAPwAAAD8AAAAAAAAAAAAAAAAAAAAAAAAAAAAAAAAAAAAAAAAAAAAAAAAAAAAAAAAAAAAAAAAAAAAAAAAAAAAAAAAAAAAAAAAAAAAAAAAAAAAA
        AAAAAAAAAAAAAAAAAAAAAAAAAAAAAAAAAAAAAAAAAAAAAAAAAAAAAAAAAAAAAAAAAAAAAAAAAAAAAAAAAAAAAAAAAAAAAAAAAAAAAAAAAAAAAAAAAAAAAAAAAAAAAAAA
        AAAAAAAAAAAAAAAAAAAAAAAAAAAAAAAAAAAAAAAAAAAAAAAAAAAAAAAAAAAAAAAAAAAAAAAAAAAAAAAAAAAAAAAAAAAAAAAAAAAAAAAAAAAAAAAAAAAAAAAAAAAAAAAA
        AAAAAAAAAAAAAAAAAAAAAAAAAAAAAAAAAAAAAAAAAAAAAAAAAAAAAAAAAAAAAAAAAAAAAAAAAAAAAAAA
        Q2hpcEZyb250AENoaXBGcm9udAAQAAAA
      >
      PRESETNAME ChipFront
      FLOATPOS 36 32 641 529
      FXID {4C5A6810-F3ED-0645-A06D-6758F70CB097}
      WAK 0
    >
  >
  <TRACK {1B564899-9ACC-8C4B-8FBF-925A5A247A13}
    NAME ChipSide
    PEAKCOL 16576
    BEAT -1
    AUTOMODE 0
    VOLPAN 0.3981071705535 0 -1 -1 1
    MUTESOLO 0 0 0
    IPHASE 0
    ISBUS 0 0
    BUSCOMP 0 0
    SHOWINMIX 1 0.6667 0.5 1 0.5 0 0 0
    FREEMODE 0
    SEL 0
    REC 0 0 0 0 0 0 0
    VU 2
    TRACKHEIGHT 0 0
    INQ 0 0 0 0.5 100 0 0 100
    NCHAN 2
    FX 1
    TRACKID {1B564899-9ACC-8C4B-8FBF-925A5A247A13}
    PERF 0
    AUXRECV 4 0 1.03113579563571 0 0 0 0 2 0 -1:U 0 -1 ''
    MIDIOUT -1
    MAINSEND 1 0
    <FXCHAIN
      SHOW 0
      LASTSEL 0
      DOCKED 0
      BYPASS 0 0 0
      <VST "VST: FabFilter Volcano 2 (SC) (FabFilter)" "FabFilter Volcano 2 (SC).vst" 0 "" 1180054068
        NDJWRu9e7f4EAAAAAQAAAAAAAAACAAAAAAAAAAQAAAAAAAAACAAAAAAAAAAIAAAAAQAAAAAAAAACAAAAAAAAAAQAAAAAAAAACAAAAAAAAAAQAAAAAAAAACAAAAAAAAAA
        QAAAAAAAAACAAAAAAAAAANwLAAAAAAAAAAAQAA==
        776t3g3wrd4AAAA/AAAAPwAAAD8AAAA/AACAPwAAAAAAAIA/q6qqPsplFD8AAAA/TxqgPc3MzD0AAAAAAAAAAEKGIj8AAIA/AACAP0Isdj8AAAA/bbDgPZqZGT8AAAAA
        AAAAAOev3zwAAIA/AAAAAAAAgD8AAAA/AAAAAJqZGT8AAAAAAAAAAAAAAAAAAIA/AAAAAAAAgD8AAAA/AAAAAJqZGT8AAAAAAAAAAAAAAAAAAIA/AAAAAKuqqj6CdAA9
        EObJPZgn+j4AAIA/AAAAAAAAAACJiAg+AACAP7PDtD4AAIA/AAAAAAAAAAAAAAAAq6qqPgAAAACeFR0/AAAAAAAAgD8AAAAAAAAAPwAAAAAAAAAAAAAAAAAAAD8AAAAA
        AAAAAAAAAAAAAAA/AAAAAAAAAAAAAAAAAAAAPwAAAAAAAAAAAAAAAAAAAD8AAAAAAAAAAAAAAAAAAAA/AAAAAAAAAAAAAAAAAAAAPwAAAAAAAAAAAAAAAAAAAD8AAAAA
        AAAAAAAAAAAAAAA/AAAAAAAAAAAAAAAAAAAAPwAAAAAAAAAAAAAAAAAAAD8AAAAAAAAAAAAAAAAAAAA/AAAAAAAAAAAAAAAAAAAAPwAAAAAAAAAAAAAAAHwZED4AAAA/
        KKO3PQAAgD8AAAAAAAAAAImIiD3y0iU/AAAAAAAAgD8AAAAAdGjRPQAAAAAAAIA/AAAAAAAAAD8AAAAAAAAAAAAAAAAAAAA/AAAAAAAAAAAAAAAAAAAAPwAAAAAAAAAA
        AAAAAAAAAD8AAAAAAAAAAAAAAAAAAAA/AAAAAAAAAAAAAAAAAAAAPwAAAAAAAAAAAAAAAAAAAD8AAAAAAAAAAAAAAAAAAAA/AAAAAAAAAAAAAAAAAAAAPwAAAAAAAAAA
        AAAAAAAAAD8AAAAAAAAAAAAAAAAAAAA/AAAAAAAAAAAAAAAAAAAAPwAAAAAAAAAAAAAAAAAAAD8AAAAAAAAAAAAAAAAAAAA/AAAAAAAAAAAAAAAAvvR9PgAAAD8AAAA/
        AAAAPwAAAAAAAAAAiYiIPQAAAD8AAAAAAAAAAAAAAAAAAAA/AAAAAAAAAAAAAAAAAAAAPwAAAAAAAAAAAAAAAAAAAD8AAAAAAAAAAAAAAAAAAAA/AAAAAAAAAAAAAAAA
        AAAAPwAAAAAAAAAAAAAAAAAAAD8AAAAAAAAAAAAAAAAAAAA/AAAAAAAAAAAAAAAAAAAAPwAAAAAAAAAAAAAAAAAAAD8AAAAAAAAAAAAAAAAAAAA/AAAAAAAAAAAAAAAA
        AAAAPwAAAAAAAAAAAAAAAAAAAD8AAAAAAAAAAAAAAAAAAAA/AAAAAAAAAAAAAAAAAAAAPwAAAAAAAAAAAAAAAAAAAD8AAAAAAAAAAAAAAAC+9H0+AAAAPwAAAD8AAAA/
        AAAAAAAAAACJiIg9AAAAPwAAAAAAAAAAAAAAAAAAAD8AAAAAAAAAAAAAAAAAAAA/AAAAAAAAAAAAAAAAAAAAPwAAAAAAAAAAAAAAAAAAAD8AAAAAAAAAAAAAAAAAAAA/
        AAAAAAAAAAAAAAAAAAAAPwAAAAAAAAAAAAAAAAAAAD8AAAAAAAAAAAAAAAAAAAA/AAAAAAAAAAAAAAAAAAAAPwAAAAAAAAAAAAAAAAAAAD8AAAAAAAAAAAAAAAAAAAA/
        AAAAAAAAAAAAAAAAAAAAPwAAAAAAAAAAAAAAAAAAAD8AAAAAAAAAAAAAAAAAAAA/AAAAAAAAAAAAAAAAAAAAPwAAAAAAAAAAAAAAAL70fT4AAAA/AAAAPwAAAD8AAAAA
        AAAAAImIiD0AAAA/AAAAAAAAAAAAAAAAAAAAPwAAAAAAAAAAAAAAAAAAAD8AAAAAAAAAAAAAAAAAAAA/AAAAAAAAAAAAAAAAAAAAPwAAAAAAAAAAAAAAAAAAAD8AAAAA
        AAAAAAAAAAAAAAA/AAAAAAAAAAAAAAAAAAAAPwAAAAAAAAAAAAAAAAAAAD8AAAAAAAAAAAAAAAAAAAA/AAAAAAAAAAAAAAAAAAAAPwAAAAAAAAAAAAAAAAAAAD8AAAAA
        AAAAAAAAAAAAAAA/AAAAAAAAAAAAAAAAAAAAPwAAAAAAAAAAAAAAAAAAAD8AAAAAAAAAAAAAAAAAAAA/AAAAAAAAAAAAAAAAvvR9PgAAAD8AAAA/AAAAPwAAAAAAAAAA
        iYiIPQAAAD8AAAAAAAAAAAAAAAAAAAA/AAAAAAAAAAAAAAAAAAAAPwAAAAAAAAAAAAAAAAAAAD8AAAAAAAAAAAAAAAAAAAA/AAAAAAAAAAAAAAAAAAAAPwAAAAAAAAAA
        AAAAAAAAAD8AAAAAAAAAAAAAAAAAAAA/AAAAAAAAAAAAAAAAAAAAPwAAAAAAAAAAAAAAAAAAAD8AAAAAAAAAAAAAAAAAAAA/AAAAAAAAAAAAAAAAAAAAPwAAAAAAAAAA
        AAAAAAAAAD8AAAAAAAAAAAAAAAAAAAA/AAAAAAAAAAAAAAAAAAAAPwAAAAAAAAAAAAAAAAAAAD8AAAAAAAAAAAAAAAAAAAAAmpmZPgAAAAAAAAAAAAAAAAAAgD8AAAAA
        mpmZPgAAAAAAAAAAAAAAAAAAgD8AAAAAmpmZPgAAAAAAAAAAAAAAAAAAgD8AAAAAmpmZPgAAAAAAAAAAAAAAAAAAgD8AAAAAmpmZPgAAAAAAAAAAAAAAAAAAgD8AAAAA
        mpmZPgAAAAAAAAAAAAAAAAAAgD8AAAAAAAAAAAAAAAAAAAAAAAAAAAAAAAAAAAAAAAAAAAAAAAAAAAAAAAAAAAAAAAAAAAAAAAAAAAAAAAAAAAAAAAAAAAAAAAAAAAAA
        AAAAAAAAAAAAAAAAAAAAAAAAAAAAAAAAAAAAAAAAAAAAAAAAAAAAAAAAAAAAAAAAAAAAAAAAAAAAAAAAAAAAAAAAAAAAAAAAAAAAAKuqqj3ZiZ09gShWPgAAgD8AAAAA
        v+eWPdmJHT0WszE/AAAAAAAAAACSdiw8AAAAAAAAAD8AAAAAAAAAAAAAAAAAAAAAAAAAPwAAAAAAAAAAAAAAAAAAAAAAAAAAAAAAAAAAAAAAAAAAAAAAAAAAAAAAAAAA
        AAAAAAAAAAAAAAAAAAAAAAAAAAAAAAAAAAAAAAAAAAAAAAAAAAAAAAAAAAAAAAAAAAAAAAAAAAAAAAAAAAAAAAAAAAAAAAAAAAAAAAAAAAAAAAAAAAAAAAAAAAAAAAAA
        AAAAAAAAAAAAAAAAAAAAAAAAAAAAAAAAAAAAAAAAAAAAAAAAAAAAAAAAAAAAAAAAAAAAAAAAAAAAAAAAAAAAAAAAAAAAAAAAAAAAAAAAAAAAAAAAAAAAAAAAAAAAAAAA
        AAAAAAAAAAAAAAAAAAAAAAAAAAAAAAAAAAAAAAAAAAAAAAAAAAAAAAAAAAAAAAAAAAAAAAAAAAAAAAAAAAAAAAAAAAAAAAAAAAAAAAAAAAAAAAAAAAAAAAAAAAAAAAAA
        AAAAAAAAAAAAAAAAAAAAAAAAAAAAAAAAAAAAAAAAAAAAAAAAAAAAAAAAAAAAAAAAAAAAAAAAAAAAAAAAAAAAAAAAAAAAAAAAAAAAAAAAAAAAAAAAAAAAPwAAAD8AAAA/
        AAAAPwAAAD8AAAA/AAAAPwAAAD8AAAAAAAAAAAAAAAAAAAAAAAAAAAAAAAAAAAAAAAAAAAAAAAAAAAAAAAAAAAAAAAAAAAAAAAAAAAAAAAAAAAAAAAAAAAAAAAAAAAAA
        AAAAAAAAAAAAAAAAAAAAAAAAAAAAAAAAAAAAAAAAAAAAAAAAAAAAAAAAAAAAAAAAAAAAAAAAAAAAAAAAAAAAAAAAAAAAAAAAAAAAAAAAAAAAAAAAAAAAAAAAAAAAAAAA
        AAAAAAAAAAAAAAAAAAAAAAAAAAAAAAAAAAAAAAAAAAAAAAAAAAAAAAAAAAAAAAAAAAAAAAAAAAAAAAAAAAAAAAAAAAAAAAAAAAAAAAAAAAAAAAAAAAAAAAAAAAAAAAAA
        AAAAAAAAAAAAAAAAAAAAAAAAAAAAAAAAAAAAAAAAAAAAAAAAAAAAAAAAAAAAAAAAAAAAAAAAAAAAAAAA
        Q2hpcFNpZGUAQ2hpcFNpZGUAEAAAAA==
      >
      PRESETNAME ChipSide
      FLOATPOS 36 32 641 529
      FXID {20356A84-5CFD-6E4A-AA26-2A8A49CE7A76}
      WAK 0
    >
  >
  <EXTENSIONS
    <SWSAUTOCOLOR
      {00000000-0000-0000-0000-000000000000} 0 "" "" ""
    >
  >
>
