<REAPER_PROJECT 0.1 "5.20/OSX64" 1463932956
  <NOTES 1
    |Velocity Normalize
    |
    |FabFilter (ChipFront, ChipSide)
    |
    |Gladiator
  >
  RIPPLE 0
  GROUPOVERRIDE 0 0 0
  AUTOXFADE 0
  ENVATTACH 1
  MIXERUIFLAGS 11 52
  PEAKGAIN 1
  FEEDBACK 0
  PANLAW 1
  PROJOFFS 0 0
  MAXPROJLEN 0 600
  GRID 174206 8 1 8 1 0 0
  TIMEMODE 6 0 -1 24 2
  PANMODE 3
  CURSOR 6
  ZOOM 16.15055828898459 0 0
  VZOOMEX 0
  USE_REC_CFG 0
  RECMODE 1
  SMPTESYNC 0 23.976024 100 40 1000 300 0 0 1
  MIDIEDITOR -116919545
  LOOP 1
  LOOPGRAN 0 4
  RECORD_PATH "" ""
  <RECORD_CFG
    ZXZhdxAAAA==
  >
  <APPLYFX_CFG
  >
  RENDER_FILE "/Users/samenglander/_dev/colorflags/anthems/Slovenia.mp3"
  RENDER_FMT 0 2 44100
  RENDER_1X 0
  RENDER_RANGE 2 0 0 18 1000
  RENDER_RESAMPLE 3 0 1
  RENDER_ADDTOPROJ 0
  RENDER_STEMS 0
  RENDER_DITHER 0
  TIMELOCKMODE 1
  TEMPOENVLOCKMODE 1
  ITEMMIX 1
  DEFPITCHMODE 589824
  TAKELANE 3
  SAMPLERATE 44100 0 0
  <RENDER_CFG
    bDNwbSAAAAABAAAABQAAAAAAAAAAAAAAQAEAAAAAAAA=
  >
  LOCK 1
  <METRONOME 6 2
    VOL 0.25 0.125
    FREQ 800 1600 1
    BEATLEN 4
    SAMPLES "" ""
    PATTERN 2863311530 2863311529
  >
  GLOBAL_AUTO -1
  TEMPO 120 4 4
  PLAYRATE 1 0 0.25 4
  SELECTION 22 6
  SELECTION2 22 6
  MASTERAUTOMODE 0
  MASTERTRACKHEIGHT 0
  MASTERPEAKCOL 16576
  MASTERMUTESOLO 0
  MASTERTRACKVIEW 0 0.6667 0.5 0.5 0 0 0
  MASTERHWOUT 0 0 1 0 0 0 0 -1
  MASTER_NCH 2 2
  MASTER_VOLUME 1 0 -1 -1 1
  MASTER_FX 1
  MASTER_SEL 0
  <MASTERPLAYSPEEDENV
    ACT 0
    VIS 0 1 1
    LANEHEIGHT 0 0
    ARM 0
    DEFSHAPE 0 -1 -1
  >
  <TEMPOENVEX
    ACT 0
    VIS 1 0 1
    LANEHEIGHT 0 0
    ARM 0
    DEFSHAPE 1 -1 -1
  >
  <PROJBAY
  >
  <TRACK {739F5A8A-7082-5149-A287-324E26BDF0D7}
    NAME ""
    PEAKCOL 16576
    BEAT -1
    AUTOMODE 0
    VOLPAN 1 0 -1 -1 1
    MUTESOLO 1 0 0
    IPHASE 0
    ISBUS 0 0
    BUSCOMP 0 0
    SHOWINMIX 1 0.6667 0.5 1 0.5 0 0 0
    FREEMODE 0
    SEL 0
    REC 0 0 0 0 0 0 0
    VU 2
    TRACKHEIGHT 25 0
    INQ 0 0 0 0.5 100 0 0 100
    NCHAN 2
    FX 1
    TRACKID {739F5A8A-7082-5149-A287-324E26BDF0D7}
    PERF 0
    MIDIOUT -1
    MAINSEND 1 0
    <ITEM
      POSITION 0
      SNAPOFFS 0
      LENGTH 34.5
      LOOP 1
      ALLTAKES 0
      FADEIN 1 0 0 1 0 0
      FADEOUT 1 0 0 1 0 0
      MUTE 0
      SEL 0
      YPOS 0.647959 0.05
      IGUID {57E8E8A8-02C8-0346-9F14-198ECB1601FA}
      IID 5
      NAME "strings (hi) - National_Anthems_-_Slovenia.mid"
      VOLPAN 1 0 1 -1
      SOFFS 0 0
      PLAYRATE 1 1 0 -1 0 0.0025
      CHANMODE 0
      GUID {38317DC3-F55C-1D4C-A3FD-3C46A290C113}
      <SOURCE MIDI
        HASDATA 1 480 QN
        POOLEDEVTS {E168A47E-027D-FC42-BC35-2596791B2398}
        <X 0 0
          /wNzdHJpbmdzIChoaSk=
        >
        <X 0 0
          /wRTb3VuZCBDYW52YXM=
        >
        E 0 94 41 4f
        E 11 94 4d 55
        E 409 84 4d 13
        E 2 94 52 55
        E 9 94 46 65
        E 13 84 41 40
        E 218 84 46 24
        E 31 84 52 3d
        E 81 94 52 4b
        E 4 94 46 5a
        E 123 84 46 2e
        E 3 84 52 2b
        E 5 94 45 5f
        E 4 94 51 4a
        E 112 84 45 1e
        E 40 84 51 05
        E 84 94 45 5a
        E 6 94 51 48
        E 175 84 45 01
        E 19 84 51 01
        E 36 94 43 5f
        E 8 94 4f 4a
        E 454 94 45 55
        E 12 94 51 52
        E 10 84 43 01
        E 26 84 4f 22
        E 84 84 45 1d
        E 32 84 51 25
        E 85 94 45 57
        E 7 94 51 4b
        E 267 94 41 52
        E 0 94 4d 4e
        E 6 84 51 01
        E 3 84 45 01
        E 257 84 41 3a
        E 14 84 4d 2f
        E 70 94 41 4b
        E 10 94 4d 4b
        E 117 94 43 6a
        E 16 94 4f 55
        E 1 84 41 24
        E 0 84 4d 25
        E 110 84 43 2a
        E 30 84 4f 30
        E 92 94 43 5a
        E 6 94 4f 4b
        E 225 84 43 01
        E 11 94 3e 4f
        E 5 84 4f 29
        E 5 94 4a 4e
        E 463 84 3e 01
        E 3 94 3f 55
        E 10 94 4b 55
        E 66 84 4a 01
        E 390 94 41 55
        E 2 84 4b 0f
        E 8 94 4d 4a
        E 16 84 3f 01
        E 1138 84 41 42
        E 26 84 4d 25
        E 267 94 41 5f
        E 9 94 4d 55
        E 464 94 52 52
        E 4 94 46 4e
        E 26 84 4d 01
        E 2 84 41 2e
        E 605 84 46 3c
        E 11 84 52 27
        E 72 94 52 55
        E 2 94 46 62
        E 235 84 46 32
        E 14 94 54 5f
        E 10 94 48 4e
        E 3 84 52 01
        E 442 94 56 4e
        E 3 94 4a 4f
        E 5 84 54 33
        E 6 84 48 1a
        E 388 84 56 29
        E 3 84 4a 1d
        E 89 94 56 48
        E 9 94 4a 5f
        E 453 94 48 44
        E 5 94 54 5a
        E 1 84 56 3f
        E 7 84 4a 16
        E 464 94 46 65
        E 1 84 54 40
        E 2 84 48 45
        E 2 94 52 4a
        E 477 84 52 33
        E 3 94 51 4f
        E 3 84 46 33
        E 9 94 45 4f
        E 357 84 45 29
        E 17 84 51 19
        E 105 94 45 5f
        E 10 94 51 57
        E 193 84 45 01
        E 20 84 51 36
        E 1 94 43 67
        E 3 94 4f 4f
        E 194 84 43 34
        E 31 84 4f 01
        E 2 94 42 4b
        E 26 94 4e 4f
        E 148 84 42 2c
        E 47 84 4e 26
        E 11 94 43 45
        E 17 94 4f 47
        E 271 94 54 55
        E 0 94 48 45
        E 1 84 43 1c
        E 35 84 4f 23
        E 446 94 46 4f
        E 15 94 52 4f
        E 8 84 48 0a
        E 45 84 54 25
        E 156 84 52 2b
        E 15 94 4f 47
        E 9 94 43 5f
        E 20 84 46 01
        E 222 84 43 17
        E 1 94 41 44
        E 8 94 4d 4a
        E 5 84 4f 2c
        E 1452 84 4d 24
        E 9 84 41 48
        E 454 94 41 65
        E 456 94 43 62
        E 22 84 41 43
        E 443 94 3f 5f
        E 17 84 43 46
        E 827 84 3f 19
        E 152 94 3e 6a
        E 443 94 41 62
        E 29 84 3e 01
        E 456 94 46 65
        E 29 84 41 36
        E 594 84 46 3d
        E 88 94 46 6a
        E 264 84 46 25
        E 4 94 45 5f
        E 609 84 45 34
        E 56 94 45 62
        E 251 94 43 6f
        E 14 84 45 2e
        E 387 84 43 37
        E 82 94 43 65
        E 504 94 41 5a
        E 5 84 43 32
        E 466 94 40 5f
        E 22 84 41 42
        E 488 94 41 67
        E 24 84 40 3e
        E 682 84 41 4a
        E 277 94 4d 4f
        E 3 94 41 5a
        E 462 94 43 5f
        E 1 94 4f 4e
        E 24 84 4d 38
        E 6 84 41 14
        E 462 94 3f 4f
        E 0 94 4b 4e
        E 8 84 4f 3a
        E 26 84 43 27
        E 778 84 3f 1c
        E 21 84 4b 2c
        E 118 94 3e 6a
        E 5 94 4a 57
        E 450 94 4d 55
        E 6 84 3e 45
        E 4 94 41 5a
        E 6 84 4a 01
        E 468 94 46 57
        E 5 94 52 57
        E 12 84 41 01
        E 35 84 4d 23
        E 528 84 46 37
        E 22 84 52 32
        E 95 94 52 52
        E 7 94 46 5f
        E 149 84 46 35
        E 25 84 52 2a
        E 72 94 46 5f
        E 3 94 52 57
        E 405 84 46 39
        E 0 84 52 3e
        E 59 94 52 4e
        E 5 94 46 52
        E 411 84 46 38
        E 2 84 52 43
        E 64 94 46 5f
        E 5 94 52 55
        E 425 84 46 3e
        E 0 84 52 38
        E 49 94 46 5a
        E 8 94 52 55
        E 388 84 46 35
        E 9 84 52 2d
        E 72 94 52 4f
        E 3 94 46 62
        E 940 94 45 5a
        E 9 94 51 55
        E 2 84 52 25
        E 11 84 46 44
        E 406 84 45 13
        E 29 84 51 01
        E 75 94 43 6a
        E 1 94 4f 4d
        E 342 84 43 33
        E 23 84 4f 2d
        E 98 94 41 55
        E 8 94 4d 57
        E 227 94 4b 56
        E 11 94 57 4d
        E 26 84 41 30
        E 34 84 4d 0a
        E 170 84 57 4b
        E 6 94 56 55
        E 28 94 4a 50
        E 4 84 4b 54
        E 178 84 56 3a
        E 15 84 4a 2c
        E 7 94 48 5a
        E 1 94 54 4d
        E 247 84 48 38
        E 1 84 54 52
        E 2 94 59 51
        E 1 94 4d 4c
        E 335 84 4d 01
        E 81 84 59 01
        E 47 94 51 58
        E 1 94 45 53
        E 470 94 46 57
        E 9 94 52 62
        E 21 84 45 3d
        E 3 84 51 37
        E 1456 84 46 62
        E 1 84 52 56
        E 477 b0 7b 00
        GUID {96761616-0914-F040-88B8-D154EA2513C5}
        IGNTEMPO 0 120 4 4
        SRCCOLOR 223
        VELLANE -1 86 6
        CFGEDITVIEW 8508.353448 132.741584 49 14 0 0 0 0 0 0.5
        KEYSNAP 0
        TRACKSEL 252 0 0 ""
        EVTFILTER 0 -1 -1 -1 -1 0 0 0 0 -1 -1 -1 -1 0 -1 0 -1 -1
        CFGEDIT 1 0 0 0 0 0 1 0 1 1 1 0.25 381 116 1280 633 0 0 2 3 0 0 0 0 0 -1 0 0 1 64
      >
    >
    <ITEM
      POSITION 0
      SNAPOFFS 0
      LENGTH 34.5
      LOOP 1
      ALLTAKES 0
      FADEIN 1 0 0 1 0 0
      FADEOUT 1 0 0 1 0 0
      MUTE 0
      SEL 0
      YPOS 0.809949 0.05
      IGUID {6CB4967E-CCB6-0147-B30E-D8B3D4237F3C}
      IID 6
      NAME "strings (mid) - National_Anthems_-_Slovenia.mid"
      VOLPAN 1 0 1 -1
      SOFFS 0 0
      PLAYRATE 1 1 0 -1 0 0.0025
      CHANMODE 0
      GUID {3A20A25C-F60C-5247-85FD-EC3FF7588043}
      <SOURCE MIDI
        HASDATA 1 480 QN
        POOLEDEVTS {209779E5-0E9B-BC47-BB4D-DB6D453A38E9}
        <X 0 0
          /wNzdHJpbmdzIChtaWQp
        >
        <X 0 0
          /wRTb3VuZCBDYW52YXM=
        >
        E 0 95 41 4d
        E 3 95 35 57
        E 438 85 35 42
        E 13 95 3a 5a
        E 4 95 46 5d
        E 15 85 41 0d
        E 163 85 3a 2a
        E 31 85 46 3c
        E 87 95 46 5a
        E 3 95 3a 4e
        E 126 85 3a 2d
        E 37 85 46 2e
        E 2 95 39 5f
        E 8 95 45 48
        E 109 85 39 22
        E 30 85 45 1e
        E 83 95 39 5a
        E 12 95 45 4a
        E 178 85 39 01
        E 35 85 45 01
        E 17 95 37 4d
        E 11 95 43 5f
        E 448 85 37 31
        E 13 95 39 5f
        E 4 95 45 55
        E 12 85 43 08
        E 120 85 39 17
        E 25 85 45 21
        E 80 95 39 57
        E 9 95 45 4b
        E 148 85 39 01
        E 96 95 35 5d
        E 2 95 41 57
        E 9 85 45 01
        E 244 85 35 4e
        E 18 85 41 29
        E 65 95 35 55
        E 17 95 41 55
        E 116 85 35 29
        E 15 85 41 26
        E 11 95 43 62
        E 1 95 37 4f
        E 118 85 37 26
        E 10 85 43 28
        E 93 95 37 4e
        E 19 95 43 62
        E 229 85 37 01
        E 0 85 43 33
        E 15 95 32 4b
        E 9 95 3e 4f
        E 453 85 32 09
        E 8 95 33 57
        E 4 95 3f 4f
        E 26 85 3e 18
        E 462 95 41 45
        E 3 95 35 57
        E 4 85 3f 01
        E 21 85 33 01
        E 1206 85 35 4f
        E 16 85 41 32
        E 197 95 41 57
        E 315 85 41 35
        E 146 95 41 55
        E 6 95 3e 52
        E 607 85 41 3a
        E 27 85 3e 1e
        E 73 95 41 55
        E 11 95 3e 3d
        E 148 85 3e 2c
        E 11 85 41 30
        E 72 95 41 55
        E 21 95 3c 42
        E 390 85 41 2c
        E 10 85 3c 1e
        E 61 95 3e 3d
        E 18 95 41 4e
        E 327 85 41 26
        E 30 85 3e 33
        E 118 95 46 27
        E 10 95 3e 4f
        E 423 85 46 3d
        E 2 85 3e 02
        E 12 95 3c 4b
        E 3 95 45 52
        E 458 85 3c 01
        E 29 85 45 27
        E 1 95 3a 4b
        E 4 95 43 5f
        E 443 85 3a 1c
        E 24 85 43 37
        E 8 95 39 5a
        E 1 95 41 57
        E 326 85 39 02
        E 28 85 41 27
        E 127 95 40 52
        E 1 95 3c 57
        E 263 95 3a 62
        E 9 85 3c 25
        E 199 85 3a 1e
        E 45 95 39 4f
        E 228 85 39 01
        E 12 95 3a 5d
        E 135 85 40 1d
        E 105 95 3c 55
        E 6 85 3a 29
        E 4 95 40 47
        E 373 85 40 1d
        E 91 85 3c 21
        E 6 95 3a 52
        E 26 95 40 44
        E 418 85 3a 04
        E 36 95 3c 42
        E 8 85 40 11
        E 2 95 39 4f
        E 1529 85 39 51
        E 4 85 3c 56
        E 376 95 3e 47
        E 451 95 3f 4f
        E 20 85 3e 0e
        E 474 95 3c 4d
        E 34 85 3f 0c
        E 796 85 3c 01
        E 153 95 3a 4f
        E 449 85 3a 3c
        E 5 95 3e 57
        E 489 95 41 1b
        E 599 85 3e 01
        E 31 85 41 04
        E 77 95 41 4f
        E 6 95 3e 2d
        E 142 85 41 19
        E 3 85 3e 20
        E 82 95 41 4e
        E 8 95 3e 4a
        E 572 85 41 1d
        E 36 85 3e 04
        E 95 95 3e 39
        E 0 95 41 4e
        E 179 85 41 01
        E 2 85 3e 04
        E 70 95 3e 35
        E 1 95 3a 48
        E 357 85 3a 19
        E 31 85 3e 20
        E 87 95 3a 45
        E 25 95 3e 1a
        E 307 85 3e 12
        E 77 85 3a 01
        E 62 95 39 3f
        E 6 95 3e 45
        E 377 85 3e 0b
        E 85 95 3e 57
        E 256 95 3d 4b
        E 18 85 3e 01
        E 250 95 3e 48
        E 9 85 3d 0a
        E 697 85 39 4c
        E 18 85 3e 37
        E 117 95 3e 4e
        E 38 85 3e 43
        E 105 95 3e 62
        E 453 95 3f 5d
        E 22 85 3e 11
        E 461 95 3c 52
        E 28 85 3f 34
        E 810 85 3c 0b
        E 116 95 3a 52
        E 454 85 3a 2d
        E 12 95 3e 62
        E 415 85 3e 3b
        E 61 95 3e 4f
        E 12 95 43 57
        E 536 85 3e 30
        E 91 85 43 2e
        E 71 95 41 5a
        E 6 95 3e 55
        E 165 85 41 37
        E 61 85 3e 15
        E 22 95 3f 57
        E 9 95 43 5a
        E 399 85 3f 34
        E 2 85 43 34
        E 74 95 3f 57
        E 6 95 43 57
        E 355 85 3f 01
        E 42 85 43 23
        E 50 95 41 5f
        E 1 95 3e 55
        E 422 85 41 01
        E 28 85 3e 01
        E 38 95 3a 4e
        E 9 95 40 4b
        E 460 85 3a 01
        E 17 85 40 01
        E 22 95 3f 4f
        E 11 95 3c 55
        E 1172 85 3c 24
        E 29 85 3f 35
        E 210 95 3f 4f
        E 17 95 3c 4d
        E 247 85 3f 22
        E 45 85 3c 43
        E 180 95 41 62
        E 216 95 3f 5d
        E 11 95 46 5a
        E 28 85 41 01
        E 143 85 46 33
        E 1 85 3f 2d
        E 68 95 46 5f
        E 14 95 3e 5f
        E 185 85 3e 01
        E 6 85 46 08
        E 41 95 42 62
        E 3 95 3c 55
        E 162 85 42 26
        E 38 85 3c 34
        E 45 95 46 5f
        E 6 95 41 5a
        E 394 85 46 19
        E 87 95 3f 62
        E 1 95 39 65
        E 30 85 41 01
        E 385 85 39 1c
        E 14 85 3f 3a
        E 36 95 41 5d
        E 6 95 3e 4e
        E 3 95 3a 65
        E 1524 85 41 55
        E 1 85 3e 4c
        E 0 85 3a 5a
        E 418 b0 7b 00
        GUID {A11EC7F3-7A47-6147-AFF1-02969398FAFE}
        IGNTEMPO 0 120 4 4
        SRCCOLOR 224
        VELLANE -1 86 6
        CFGEDITVIEW 8508.353448 132.741584 49 14 0 0 0 0 0 0.5
        KEYSNAP 0
        TRACKSEL 252 0 0 ""
        EVTFILTER 0 -1 -1 -1 -1 0 0 0 0 -1 -1 -1 -1 0 -1 0 -1 -1
        CFGEDIT 1 0 0 0 0 0 1 0 1 1 1 0.25 381 116 1280 633 0 0 2 3 0 0 0 0 0 -1 0 0 1 64
      >
    >
    <ITEM
      POSITION 0
      SNAPOFFS 0
      LENGTH 34.5
      LOOP 1
      ALLTAKES 0
      FADEIN 1 0 0 1 0 0
      FADEOUT 1 0 0 1 0 0
      MUTE 0
      SEL 0
      YPOS 0.95 0.05
      IGUID {CF5291D2-9652-F847-A331-C08810010E4B}
      IID 7
      NAME "strings (bass) - National_Anthems_-_Slovenia.mid"
      VOLPAN 1 0 1 -1
      SOFFS 0 0
      PLAYRATE 1 1 0 -1 0 0.0025
      CHANMODE 0
      GUID {87FE490C-2BFA-8E4F-8171-C51A380DDF55}
      <SOURCE MIDI
        HASDATA 1 480 QN
        POOLEDEVTS {AE2D6FE8-2A5E-C447-998D-254BEC45137C}
        <X 0 0
          /wNzdHJpbmdzIChiYXNzKQ==
        >
        <X 0 0
          /wRTb3VuZCBDYW52YXM=
        >
        E 0 96 29 6a
        E 462 86 29 4e
        E 6 96 2e 5a
        E 267 86 2e 3a
        E 57 96 2e 5a
        E 119 86 2e 11
        E 23 96 2d 57
        E 120 86 2d 2d
        E 93 96 2d 62
        E 136 86 2d 1b
        E 106 96 2b 4f
        E 417 86 2b 01
        E 64 96 2d 52
        E 142 86 2d 16
        E 116 96 2d 55
        E 139 86 2d 2d
        E 87 96 29 67
        E 292 86 29 49
        E 73 96 29 5a
        E 134 86 29 47
        E 4 96 2b 57
        E 135 86 2b 1f
        E 116 96 2b 55
        E 151 86 2b 22
        E 81 96 26 5f
        E 433 86 26 2c
        E 38 96 27 62
        E 478 96 29 62
        E 23 86 27 42
        E 1138 86 29 3c
        E 320 96 29 62
        E 455 96 22 5d
        E 7 86 29 37
        E 640 86 22 36
        E 70 96 22 6a
        E 206 86 22 2a
        E 51 96 21 67
        E 433 86 21 27
        E 40 96 22 65
        E 436 86 22 01
        E 48 96 1d 65
        E 879 86 1d 23
        E 80 96 1d 4e
        E 925 96 24 5a
        E 3 86 1d 1a
        E 880 86 24 1e
        E 110 96 24 57
        E 380 86 24 3a
        E 97 96 24 62
        E 457 86 24 15
        E 32 96 1d 5f
        E 448 86 1d 37
        E 1 96 24 62
        E 487 96 29 65
        E 4 86 24 3a
        E 707 86 29 51
        E 1211 96 29 55
        E 194 86 29 01
        E 39 96 2b 44
        E 239 86 2b 01
        E 29 96 2d 18
        E 188 86 2d 01
        E 26 96 29 4b
        E 162 86 29 01
        E 114 96 22 2b
        E 569 86 22 53
        E 355 96 29 5a
        E 153 86 29 0e
        E 81 96 2b 42
        E 154 86 2b 01
        E 111 96 29 1d
        E 124 86 29 01
        E 83 96 2e 47
        E 120 86 2e 01
        E 162 96 26 41
        E 873 86 26 4f
        E 53 96 2b 2b
        E 664 86 2b 04
        E 309 96 21 35
        E 322 86 21 01
        E 166 96 21 4a
        E 303 86 21 0b
        E 169 96 26 33
        E 615 86 26 2d
        E 1320 96 29 67
        E 158 86 29 31
        E 75 96 2b 5a
        E 189 86 2b 02
        E 54 96 2d 65
        E 220 86 2d 2a
        E 11 96 29 52
        E 179 86 29 1a
        E 74 96 2e 65
        E 380 86 2e 24
        E 97 96 2d 5f
        E 450 86 2d 20
        E 15 96 2b 57
        E 431 86 2b 07
        E 50 96 29 6a
        E 412 86 29 01
        E 61 96 27 67
        E 413 86 27 39
        E 74 96 27 6a
        E 430 86 27 1f
        E 67 96 26 62
        E 396 86 26 1e
        E 68 96 25 67
        E 436 86 25 2b
        E 39 96 24 6a
        E 1275 86 24 29
        E 159 96 22 6f
        E 485 86 22 4c
        E 6 96 2d 67
        E 211 86 2d 1f
        E 28 96 2b 57
        E 146 86 2b 1a
        E 73 96 29 6a
        E 144 86 29 28
        E 93 96 27 6f
        E 181 86 27 23
        E 100 96 26 67
        E 426 86 26 25
        E 18 96 24 62
        E 436 86 24 01
        E 51 96 22 6a
        E 1487 86 22 65
        E 468 b0 7b 00
        GUID {9EB16B58-64F3-DF40-AE81-1CA6F84BFE8E}
        IGNTEMPO 0 120 4 4
        SRCCOLOR 225
        VELLANE -1 86 6
      >
    >
    <ITEM
      POSITION 0
      SNAPOFFS 0
      LENGTH 34.5
      LOOP 1
      ALLTAKES 0
      FADEIN 1 0 0 1 0 0
      FADEOUT 1 0 0 1 0 0
      MUTE 0
      SEL 0
      YPOS 0 0.05
      IGUID {D7C07CDC-F643-5E43-8104-765B16FDF943}
      IID 1
      NAME "trumpet(s) - National_Anthems_-_Slovenia.mid"
      VOLPAN 1 0 1 -1
      SOFFS 0 0
      PLAYRATE 1 1 0 -1 0 0.0025
      CHANMODE 0
      TAKECOLOR 26173599 B
      GUID {EC24F861-D65F-0543-8F6C-293D6118517D}
      <SOURCE MIDI
        HASDATA 1 480 QN
        POOLEDEVTS {61A1E467-B27E-6941-B08E-DE1CAC6C3481}
        <X 0 0
          /wN0cnVtcGV0KHMp
        >
        <X 0 0
          /wRTb3VuZCBDYW52YXM=
        >
        e 0 90 41 67
        e 416 80 41 17
        e 64 90 46 6f -49
        e 302 80 46 39 -49
        e 58 90 46 6a -35
        e 99 80 46 4d -35
        e 21 90 45 6f -30
        e 177 80 45 3e -30
        e 63 90 45 65 -15
        e 166 80 45 35 -15
        e 74 90 43 6f -13
        e 425 80 43 38 -13
        e 55 90 45 65 -12
        e 181 80 45 34 -12
        e 59 90 45 62 -4
        e 204 80 45 16 -4
        e 36 90 41 6a 4
        e 272 80 41 30 4
        e 88 90 41 6a 5
        e 91 80 41 3b 5
        e 29 90 43 6f -8
        e 161 80 43 35 -8
        e 79 90 43 6f -3
        e 143 80 43 2b -3
        e 97 90 3e 5f 5
        e 379 80 3e 01 5
        e 101 90 3f 6a -9
        e 403 80 3f 15 -9
        e 77 90 41 62 -9
        e 1306 80 41 01 -9
        e 134 90 41 6a 19
        e 446 80 41 0b 19
        e 34 90 46 6d 8
        e 645 80 46 44 8
        e 75 90 46 6f -6
        e 174 80 46 3e -6
        e 66 90 48 6a 2
        e 400 80 48 2c 2
        e 80 90 4a 6a -22
        e 408 80 4a 38 -22
        e 72 90 4a 6d -17
        e 480 90 48 65 -11
        e 24 80 4a 3e -17
        e 386 80 48 2d -11
        e 70 90 46 6f -5
        e 455 80 46 25 -5
        e 25 90 45 6a -6
        e 383 80 45 38 -6
        e 97 90 45 6d -10
        e 226 80 45 24 -10
        e 14 90 43 6f 8
        e 169 80 43 30 8
        e 71 90 42 6f
        e 173 80 42 35
        e 67 90 43 73 -3
        e 188 80 43 1f -3
        e 52 90 48 6f 5
        e 444 80 48 12 5
        e 36 90 46 73 5
        e 207 80 46 3a 5
        e 33 90 43 73 -8
        e 168 80 43 35 -8
        e 72 90 41 6a -6
        e 1466 80 41 34 -6
        e 454 90 41 6d -24
        e 476 80 41 3e -24
        e 4 90 43 6f -32
        e 461 80 43 01 -32
        e 19 90 3f 6a
        e 862 80 3f 01
        e 98 90 3e 6d -2
        e 447 80 3e 01 -2
        e 33 90 41 6d -14
        e 472 80 41 45 -14
        e 8 90 46 6f -15
        e 579 80 46 3e -15
        e 141 90 46 6f -16
        e 219 80 46 40 -16
        e 21 90 45 6f -7
        e 633 80 45 31 -7
        e 87 90 45 6a -24
        e 223 80 45 0d -24
        e 17 90 43 6f -11
        e 423 80 43 42 -11
        e 57 90 43 6d -13
        e 428 80 43 20 -13
        e 52 90 41 6a -8
        e 465 80 41 43 -8
        e 15 90 40 65 -20
        e 480 90 41 6a -18
        e 18 80 40 29 -20
        e 658 80 41 3a -18
        e 284 90 41 6d 1
        e 465 80 41 4a 1
        e 15 90 43 73 -4
        e 480 90 3f 6d 8
        e 11 80 43 49 -4
        e 812 80 3f 01 8
        e 137 90 3e 6d -11
        e 436 80 3e 01 -11
        e 44 90 41 6d -37
        e 480 90 46 6f -17
        e 38 80 41 3c -37
        e 577 80 46 36 -17
        e 105 90 46 6f -9
        e 192 80 46 41 -9
        e 48 90 46 6f 11
        e 375 80 46 45 11
        e 105 90 46 6f -29
        e 418 80 46 49 -29
        e 62 90 46 6f -37
        e 431 80 46 43 -37
        e 49 90 46 6d -30
        e 434 80 46 44 -30
        e 46 90 46 6f -17
        e 960 90 45 6a 21
        e 47 80 46 49 -17
        e 316 80 45 1c 21
        e 117 90 43 73 -1
        e 444 80 43 29 -1
        e 36 90 41 65 -3
        e 240 90 4b 77 4
        e 57 80 41 2e -3
        e 94 80 4b 34 4
        e 89 90 4a 6a -21
        e 219 80 4a 30 -21
        e 21 90 48 6a -33
        e 230 80 48 1e -33
        e 10 90 4d 6f -19
        e 453 80 4d 0d -19
        e 27 90 45 6f -22
        e 445 80 45 23 -22
        e 35 90 46 73 -1
        e 1549 80 46 69 -1
        E 371 b0 7b 00
        GUID {6094CDCC-A280-C741-B52C-BCF9943F5DBF}
        IGNTEMPO 0 120 4 4
        SRCCOLOR 219
        VELLANE -1 86 6
        CFGEDITVIEW 8236.007334 191.14788 49 14 0 0 0 0 0 0.5
        KEYSNAP 0
        TRACKSEL 252 0 0 ""
        EVTFILTER 0 -1 -1 -1 -1 0 0 0 0 -1 -1 -1 -1 0 -1 0 -1 -1
        CFGEDIT 1 0 0 0 0 0 1 0 1 1 1 0.25 381 116 1280 633 0 0 2 3 0 0 0 0 0 -1 0 0 1 64
      >
      TAKE
      NAME "trumpet(s) - National_Anthems_-_Slovenia.mid"
      TAKEVOLPAN 0 1 -1
      SOFFS 0 0
      PLAYRATE 1 1 0 -1 0 0.0025
      CHANMODE 0
      GUID {54FE8D30-5F97-D547-B33B-EF6961CF04B6}
      <SOURCE MIDI
        HASDATA 1 480 QN
        POOLEDEVTS {92E30B4C-69EC-4C4C-838A-CA8BAB5DB759}
        <X 0 0
          /wN0cnVtcGV0KHMp
        >
        <X 0 0
          /wRTb3VuZCBDYW52YXM=
        >
        E 0 90 41 67
        E 416 80 41 17
        E 15 90 46 6f
        E 302 80 46 39
        E 72 90 46 6a
        E 99 80 46 4d
        E 26 90 45 6f
        E 177 80 45 3e
        E 78 90 45 65
        E 166 80 45 35
        E 76 90 43 6f
        E 425 80 43 38
        E 56 90 45 65
        E 181 80 45 34
        E 67 90 45 62
        E 204 80 45 16
        E 44 90 41 6a
        E 272 80 41 30
        E 89 90 41 6a
        E 91 80 41 3b
        E 16 90 43 6f
        E 161 80 43 35
        E 84 90 43 6f
        E 143 80 43 2b
        E 105 90 3e 5f
        E 379 80 3e 01
        E 87 90 3f 6a
        E 403 80 3f 15
        E 77 90 41 62
        E 1306 80 41 01
        E 162 90 41 6a
        E 446 80 41 0b
        E 23 90 46 6d
        E 645 80 46 44
        E 61 90 46 6f
        E 174 80 46 3e
        E 74 90 48 6a
        E 400 80 48 2c
        E 56 90 4a 6a
        E 408 80 4a 38
        E 77 90 4a 6d
        E 486 90 48 65
        E 18 80 4a 3e
        E 392 80 48 2d
        E 76 90 46 6f
        E 455 80 46 25
        E 24 90 45 6a
        E 383 80 45 38
        E 93 90 45 6d
        E 226 80 45 24
        E 32 90 43 6f
        E 169 80 43 30
        E 63 90 42 6f
        E 173 80 42 35
        E 64 90 43 73
        E 188 80 43 1f
        E 60 90 48 6f
        E 444 80 48 12
        E 36 90 46 73
        E 207 80 46 3a
        E 20 90 43 73
        E 168 80 43 35
        E 74 90 41 6a
        E 1466 80 41 34
        E 436 90 41 6d
        E 472 90 43 6f
        E 4 80 41 3e
        E 457 80 43 01
        E 51 90 3f 6a
        E 862 80 3f 01
        E 96 90 3e 6d
        E 447 80 3e 01
        E 21 90 41 6d
        E 472 80 41 45
        E 7 90 46 6f
        E 579 80 46 3e
        E 140 90 46 6f
        E 219 80 46 40
        E 30 90 45 6f
        E 633 80 45 31
        E 70 90 45 6a
        E 223 80 45 0d
        E 30 90 43 6f
        E 423 80 43 42
        E 55 90 43 6d
        E 428 80 43 20
        E 57 90 41 6a
        E 465 80 41 43
        E 3 90 40 65
        E 482 90 41 6a
        E 16 80 40 29
        E 660 80 41 3a
        E 303 90 41 6d
        E 465 80 41 4a
        E 10 90 43 73
        E 491 80 43 49
        E 1 90 3f 6d
        E 823 80 3f 01
        E 118 90 3e 6d
        E 436 80 3e 01
        E 18 90 41 6d
        E 500 90 46 6f
        E 18 80 41 3c
        E 597 80 46 36
        E 113 90 46 6f
        E 192 80 46 41
        E 68 90 46 6f
        E 375 80 46 45
        E 65 90 46 6f
        E 418 80 46 49
        E 54 90 46 6f
        E 431 80 46 43
        E 56 90 46 6d
        E 434 80 46 44
        E 59 90 46 6f
        E 998 90 45 6a
        E 9 80 46 49
        E 354 80 45 1c
        E 95 90 43 73
        E 444 80 43 29
        E 34 90 41 65
        E 247 90 4b 77
        E 50 80 41 2e
        E 101 80 4b 34
        E 64 90 4a 6a
        E 219 80 4a 30
        E 9 90 48 6a
        E 230 80 48 1e
        E 24 90 4d 6f
        E 453 80 4d 0d
        E 24 90 45 6f
        E 445 80 45 23
        E 56 90 46 73
        E 1549 80 46 69
        E 372 b0 7b 00
        GUID {7173A6D8-CE05-094C-A09B-36290EFEB3D6}
        IGNTEMPO 0 120 4 4
        SRCCOLOR 238
        VELLANE -1 86 6
        CFGEDITVIEW 0 0 49 14 0 0 0 0 0 0.5
        KEYSNAP 0
        TRACKSEL 252 0 0 ""
        EVTFILTER 0 -1 -1 -1 -1 0 0 0 0 -1 -1 -1 -1 0 -1 0 -1 -1
        CFGEDIT 1 0 0 0 0 0 1 0 1 1 1 0.25 381 116 1280 633 0 0 2 3 0 0 0 0 0 -1 0 0 1 64
      >
    >
    <ITEM
      POSITION 0
      SNAPOFFS 0
      LENGTH 34.5
      LOOP 1
      ALLTAKES 0
      FADEIN 1 0 0 1 0 0
      FADEOUT 1 0 0 1 0 0
      MUTE 0
      SEL 0
      YPOS 0.16199 0.05
      IGUID {07E23D3F-A901-0D48-AE03-FA7E7533974C}
      IID 3
      NAME "trombone(s) - National_Anthems_-_Slovenia.mid"
      VOLPAN 1 0 1 -1
      SOFFS 0 0
      PLAYRATE 1 1 0 -1 0 0.0025
      CHANMODE 0
      TAKECOLOR 26173599 B
      GUID {798FE083-8F51-914A-B4AA-06E8C7B047B8}
      <SOURCE MIDI
        HASDATA 1 480 QN
        POOLEDEVTS {108AF6D7-770F-DD42-80A4-F6308E4F42CE}
        <X 0 0
          /wN0cm9tYm9uZShzKQ==
        >
        <X 0 0
          /wRTb3VuZCBDYW52YXM=
        >
        e 0 92 35 6f
        e 460 82 35 3d
        e 20 92 3a 6d -13
        e 240 82 3a 43 -11
        e 0 92 3a 6a 58
        e 118 82 3a 42 58
        e 122 92 39 6f -42
        e 151 82 39 30 -42
        e 89 92 39 6f -40
        e 173 82 39 15 -40
        e 67 92 37 65 -36
        e 443 82 37 03 -36
        e 37 92 39 6a -10
        e 128 82 39 33 -10
        e 112 92 39 67 -17
        e 150 82 39 29 -17
        e 90 92 35 6f -8
        e 268 82 35 4d -8
        e 92 92 35 6a -34
        e 108 82 35 3e -34
        e 12 92 37 62 -14
        e 134 82 37 31 -14
        e 106 92 37 5f -22
        e 135 82 37 26 -22
        e 105 92 32 67 -13
        e 422 82 32 33 -13
        e 58 92 33 6f -9
        e 387 82 33 28 -9
        e 93 92 35 73 -13
        e 1221 82 35 48 -13
        e 219 92 35 6f -12
        e 388 82 35 01 -12
        e 92 92 3a 65 -25
        e 608 82 3a 3a -25
        e 112 92 3a 6a -13
        e 150 82 3a 2c -13
        e 90 92 39 6a -24
        e 436 82 39 0c -24
        e 44 92 3a 67 -12
        e 443 82 3a 18 -12
        e 37 92 35 6d -33
        e 898 82 35 3c -33
        e 62 92 35 6a -21
        e 919 82 35 36 -21
        e 41 92 30 65 -12
        e 902 82 30 3e -12
        e 58 92 30 62 8
        e 378 82 30 42 8
        e 102 92 30 5f -13
        e 425 82 30 26 -13
        e 55 92 29 6a 13
        e 383 82 29 17 13
        e 97 92 30 6a -5
        e 398 82 30 2b -5
        e 82 92 35 65 -15
        e 547 82 35 55 -15
        e 1373 92 35 6f -24
        e 155 82 35 3a -24
        e 85 92 37 62 -27
        e 174 82 37 01 -27
        e 66 92 39 65 -19
        e 146 82 39 27 -19
        e 94 92 35 65 -24
        e 183 82 35 01 -24
        e 57 92 2e 6a -9
        e 702 82 2e 41 -9
        e 258 92 35 6f -32
        e 155 82 35 21 -32
        e 85 92 37 5f -36
        e 160 82 37 17 -36
        e 80 92 35 67 -45
        e 164 82 35 0f -45
        e 76 92 3a 62 -40
        e 183 82 3a 16 -40
        e 57 92 32 67 -13
        e 772 82 32 01 -13
        e 188 92 37 5a -22
        e 769 82 37 12 -22
        e 191 92 2d 67 -9
        e 362 82 2d 2b -9
        e 118 92 2d 65 -15
        e 430 82 2d 04 -15
        e 50 92 32 5d 3
        e 655 82 32 1c 3
        e 1265 92 35 73 -3
        e 162 82 35 23 -3
        e 78 92 37 5f -22
        e 178 82 37 01 -22
        e 62 92 39 6a -20
        e 163 82 39 23 -20
        e 77 92 35 65 -26
        e 117 82 35 38 -26
        e 123 92 3a 6a -17
        e 354 82 3a 2a -17
        e 126 92 39 65 -17
        e 379 82 39 16 -17
        e 101 92 37 65 -35
        e 411 82 37 09 -35
        e 69 92 35 6f -13
        e 358 82 35 1b -13
        e 122 92 33 6f -14
        e 375 82 33 20 -14
        e 105 92 33 6f 8
        e 385 82 33 13 8
        e 95 92 32 6d -6
        e 363 82 32 01 -6
        e 117 92 31 6a -23
        e 407 82 31 2c -23
        e 73 92 30 65 -6
        e 1296 82 30 35 -6
        e 144 92 2e 6f -7
        e 420 82 2e 22 -7
        e 60 92 39 5f
        e 186 82 39 07
        e 54 92 37 57 -21
        e 165 82 37 1d -21
        e 75 92 35 6f -29
        e 142 82 35 2a -29
        e 98 92 33 6a -36
        e 186 82 33 0d -36
        e 54 92 32 6d -27
        e 393 82 32 0d -27
        e 87 92 30 65 -26
        e 376 82 30 01 -26
        e 104 92 2e 6a -39
        e 1522 82 2e 62 -39
        E 398 b0 7b 00
        GUID {F0165281-59D4-1742-BA34-5505A6E635F7}
        IGNTEMPO 0 120 4 4
        SRCCOLOR 221
        VELLANE -1 86 6
        CFGEDITVIEW 12142.759648 102.811308 68 12 0 0 0 0 0 0.5
        KEYSNAP 0
        TRACKSEL 252 0 0 ""
        EVTFILTER 0 -1 -1 -1 -1 0 0 0 0 -1 -1 -1 -1 0 -1 0 -1 -1
        CFGEDIT 1 0 0 0 0 0 1 0 1 1 1 0.25 397 132 1280 633 0 0 2 3 0 0 0 0 0 -1 0 0 1 64
      >
      TAKE
      NAME "trombone(s) - National_Anthems_-_Slovenia.mid"
      TAKEVOLPAN 0 1 -1
      SOFFS 0 0
      PLAYRATE 1 1 0 -1 0 0.0025
      CHANMODE 0
      GUID {9FC6AB44-0E55-C244-9893-F4576FAEB5BC}
      <SOURCE MIDI
        HASDATA 1 480 QN
        POOLEDEVTS {2BF3181E-696D-E34F-9934-AA94CD476CFB}
        <X 0 0
          /wN0cm9tYm9uZShzKQ==
        >
        <X 0 0
          /wRTb3VuZCBDYW52YXM=
        >
        E 0 92 35 6f
        E 460 82 35 3d
        E 7 92 3a 6d
        E 242 82 3a 43
        E 69 92 3a 6a
        E 118 82 3a 42
        E 22 92 39 6f
        E 151 82 39 30
        E 91 92 39 6f
        E 173 82 39 15
        E 71 92 37 65
        E 443 82 37 03
        E 63 92 39 6a
        E 128 82 39 33
        E 105 92 39 67
        E 150 82 39 29
        E 99 92 35 6f
        E 268 82 35 4d
        E 66 92 35 6a
        E 108 82 35 3e
        E 32 92 37 62
        E 134 82 37 31
        E 98 92 37 5f
        E 135 82 37 26
        E 114 92 32 67
        E 422 82 32 33
        E 62 92 33 6f
        E 387 82 33 28
        E 89 92 35 73
        E 1221 82 35 48
        E 220 92 35 6f
        E 388 82 35 01
        E 79 92 3a 65
        E 608 82 3a 3a
        E 124 92 3a 6a
        E 150 82 3a 2c
        E 79 92 39 6a
        E 436 82 39 0c
        E 56 92 3a 67
        E 443 82 3a 18
        E 16 92 35 6d
        E 898 82 35 3c
        E 74 92 35 6a
        E 919 82 35 36
        E 50 92 30 65
        E 902 82 30 3e
        E 78 92 30 62
        E 378 82 30 42
        E 81 92 30 5f
        E 425 82 30 26
        E 81 92 29 6a
        E 383 82 29 17
        E 79 92 30 6a
        E 398 82 30 2b
        E 72 92 35 65
        E 547 82 35 55
        E 1364 92 35 6f
        E 155 82 35 3a
        E 82 92 37 62
        E 174 82 37 01
        E 74 92 39 65
        E 146 82 39 27
        E 89 92 35 65
        E 183 82 35 01
        E 72 92 2e 6a
        E 702 82 2e 41
        E 235 92 35 6f
        E 155 82 35 21
        E 81 92 37 5f
        E 160 82 37 17
        E 71 92 35 67
        E 164 82 35 0f
        E 81 92 3a 62
        E 183 82 3a 16
        E 84 92 32 67
        E 772 82 32 01
        E 179 92 37 5a
        E 769 82 37 12
        E 204 92 2d 67
        E 362 82 2d 2b
        E 112 92 2d 65
        E 430 82 2d 04
        E 68 92 32 5d
        E 655 82 32 1c
        E 1259 92 35 73
        E 162 82 35 23
        E 59 92 37 5f
        E 178 82 37 01
        E 64 92 39 6a
        E 163 82 39 23
        E 71 92 35 65
        E 117 82 35 38
        E 132 92 3a 6a
        E 354 82 3a 2a
        E 126 92 39 65
        E 379 82 39 16
        E 83 92 37 65
        E 411 82 37 09
        E 91 92 35 6f
        E 358 82 35 1b
        E 121 92 33 6f
        E 375 82 33 20
        E 127 92 33 6f
        E 385 82 33 13
        E 81 92 32 6d
        E 363 82 32 01
        E 100 92 31 6a
        E 407 82 31 2c
        E 90 92 30 65
        E 1296 82 30 35
        E 143 92 2e 6f
        E 420 82 2e 22
        E 67 92 39 5f
        E 186 82 39 07
        E 33 92 37 57
        E 165 82 37 1d
        E 67 92 35 6f
        E 142 82 35 2a
        E 91 92 33 6a
        E 186 82 33 0d
        E 63 92 32 6d
        E 393 82 32 0d
        E 88 92 30 65
        E 376 82 30 01
        E 91 92 2e 6a
        E 1522 82 2e 62
        E 437 b0 7b 00
        GUID {DB1B9B95-429A-494B-954E-3CD5F05E0888}
        IGNTEMPO 0 120 4 4
        SRCCOLOR 240
        VELLANE -1 86 6
      >
    >
    <ITEM
      POSITION 0
      SNAPOFFS 0
      LENGTH 34.5
      LOOP 1
      ALLTAKES 0
      FADEIN 1 0 0 1 0 0
      FADEOUT 1 0 0 1 0 0
      MUTE 0
      SEL 0
      YPOS 0.32398 0.05
      IGUID {00C8BF54-4E66-AE46-AABD-B10D26F0E7B4}
      IID 2
      NAME "fr. horn(s) - National_Anthems_-_Slovenia.mid"
      VOLPAN 1 0 1 -1
      SOFFS 0 0
      PLAYRATE 1 1 0 -1 0 0.0025
      CHANMODE 0
      TAKECOLOR 26173599 B
      GUID {3DD86F8A-4675-7946-8B53-6DD7D581F374}
      <SOURCE MIDI
        HASDATA 1 480 QN
        POOLEDEVTS {76DF1EFE-6A77-0C48-94D1-2B7F01969DA2}
        <X 0 0
          /wNmci4gaG9ybihzKQ==
        >
        <X 0 0
          /wRTb3VuZCBDYW52YXM=
        >
        e 0 91 41 5a
        e 436 81 41 1a
        e 44 91 46 5d -21
        e 238 81 46 3e -21
        e 2 91 46 5d 43
        e 138 81 46 3f 43
        e 102 91 45 55 -43
        e 153 81 45 1a -43
        e 87 91 45 55 -31
        e 165 81 45 0b -31
        e 75 91 43 62 -25
        e 384 81 43 01 -25
        e 96 91 45 57 -40
        e 148 81 45 1f -40
        e 92 91 45 4b -18
        e 183 81 45 01 -18
        e 57 91 41 55 -12
        e 274 81 41 3a -12
        e 86 91 41 5f -26
        e 105 81 41 27 -26
        e 15 91 43 65 -16
        e 128 81 43 2e -16
        e 112 91 43 6a -16
        e 196 81 43 0c -16
        e 44 91 3e 57 5
        e 370 81 3e 01 5
        e 110 91 3f 55 -10
        e 407 81 3f 1a -10
        e 73 91 41 5a -11
        e 1209 81 41 2e -11
        e 231 91 41 5d 10
        e 288 81 41 2a 10
        e 192 91 3e 4a -9
        e 0 91 41 4e -13
        e 590 81 3e 23 -9
        e 8 81 41 37 -13
        e 122 91 3e 4f -23
        e 0 91 41 4f -27
        e 133 81 3e 24 -23
        e 17 81 41 30 -27
        e 90 91 3c 4e -17
        e 0 91 41 57 -16
        e 367 81 41 1e -16
        e 8 81 3c 24 -17
        e 105 91 3e 5a -18
        e 0 91 41 57 -26
        e 311 81 3e 01 -18
        e 30 81 41 1d -26
        e 139 91 3e 55 -37
        e 0 91 46 5a -52
        e 417 81 46 2c -52
        e 38 81 3e 01 -37
        e 25 91 3c 52 -37
        e 0 91 45 57 -33
        e 413 81 3c 0c -37
        e 36 81 45 06 -33
        e 31 91 3a 57 -35
        e 0 91 43 57 -27
        e 449 81 3a 06 -35
        e 6 81 43 3e -27
        e 25 91 39 5a -28
        e 0 91 41 57 -33
        e 411 81 39 01 -28
        e 60 81 41 24 -33
        e 9 91 3c 57
        e 0 91 40 55
        e 240 91 3a 5d -25
        e 8 81 3c 2a
        e 207 81 3a 1d -25
        e 25 91 39 4f -35
        e 208 81 39 13 -35
        e 32 91 3a 57 -55
        e 132 81 40 29
        e 108 91 3c 4f -14
        e 0 91 40 4a -13
        e 30 81 3a 33 -55
        e 342 81 40 1a -13
        e 87 81 3c 1c -14
        e 21 91 3a 4e -38
        e 0 91 40 47 -23
        e 467 81 3a 1a -38
        e 13 91 39 4e -18
        e 0 91 3c 35 2
        e 4 81 40 39 -23
        e 1489 81 3c 45 2
        e 22 81 39 4a -18
        e 405 91 3e 57 -8
        e 445 81 3e 01 -8
        e 35 91 3f 52 -47
        e 480 91 3c 4f -22
        e 43 81 3f 01 -47
        e 820 81 3c 01 -22
        e 97 91 3a 5a -5
        e 476 81 3a 2a -5
        e 4 91 3e 4f
        e 390 81 3e 27
        e 90 91 3e 4f -9
        e 0 91 41 42 2
        e 587 81 3e 23 -9
        e 5 81 41 35 2
        e 128 91 3e 4f -40
        e 0 91 41 4e -38
        e 136 81 3e 35 -40
        e 20 81 41 27 -38
        e 84 91 3e 55 -22
        e 0 91 41 4f -16
        e 658 81 41 2b -16
        e 1 81 3e 31 -22
        e 61 91 3e 55 -18
        e 0 91 41 47 -15
        e 125 81 3e 25 -18
        e 89 81 41 36 -15
        e 26 91 3a 55 -30
        e 0 91 3e 4f -29
        e 383 81 3e 1d -29
        e 7 81 3a 05 -30
        e 90 91 3a 52 -42
        e 0 91 3e 55 -25
        e 330 81 3e 01 -25
        e 20 81 3a 01 -42
        e 130 91 39 4f -31
        e 0 91 3e 42 -12
        e 391 81 39 2d -31
        e 15 81 3e 27 -12
        e 74 91 39 52 -15
        e 0 91 3e 4f -7
        e 240 91 3d 4d -5
        e 14 81 3e 24 -7
        e 157 81 39 1c -15
        e 69 91 39 4e 21
        e 0 91 3e 4e 30
        e 42 81 3d 1f -5
        e 706 81 3e 29 30
        e 10 81 39 43 21
        e 202 91 3e 55 12
        e 466 81 3e 28 12
        e 14 91 3f 4f -9
        e 480 91 3c 4f -3
        e 21 81 3f 3a -9
        e 785 81 3c 0a -3
        e 154 91 3a 67 -4
        e 480 81 3a 2e -4
        e 0 91 3e 4e 1
        e 369 81 3e 29 1
        e 111 91 3e 55 -36
        e 0 91 43 55 -33
        e 575 81 3e 2d -36
        e 105 81 43 01 -33
        e 40 91 3e 48 -53
        e 0 91 41 57 -35
        e 188 81 41 0f -35
        e 23 81 3e 01 -53
        e 29 91 3f 5a -26
        e 0 91 43 5a -13
        e 390 81 3f 2e -26
        e 13 81 43 30 -13
        e 77 91 3f 4e -25
        e 0 91 43 5f -13
        e 343 81 3f 32 -25
        e 50 81 43 09 -13
        e 87 91 3e 57 -47
        e 0 91 41 57 -50
        e 411 81 3e 01 -47
        e 60 81 41 33 -50
        e 9 91 3a 5d -43
        e 0 91 40 4e -32
        e 480 91 3c 5a -19
        e 0 91 3f 4d -13
        e 8 81 40 01 -32
        e 9 81 3a 38 -43
        e 1152 81 3f 25 -13
        e 40 81 3c 20 -19
        e 231 91 3c 4e -1
        e 0 91 3f 55 -7
        e 343 81 3c 2a -1
        e 68 81 3f 08 -7
        e 69 91 41 5f
        e 240 81 41 3c
        e 0 91 3f 6a -11
        e 0 91 46 67 -11
        e 134 81 46 3d -11
        e 74 81 3f 35 -11
        e 32 91 3e 4b -24
        e 0 91 46 67 -24
        e 205 81 46 2b -24
        e 14 81 3e 39 -24
        e 21 91 3c 4e -28
        e 0 91 42 5d -45
        e 187 81 42 2f -45
        e 53 91 41 4e -21
        e 0 91 46 5f -46
        e 14 81 3c 24 -28
        e 436 81 46 3f -46
        e 26 81 41 43 -21
        e 4 91 39 4d -47
        e 0 91 3f 65 -57
        e 459 81 39 0a -47
        e 19 81 3f 27 -57
        e 2 91 3a 47 -47
        e 0 91 3e 57 -60
        e 0 91 41 55 -49
        e 1502 81 3a 52 -47
        e 39 81 41 4d -49
        e 19 81 3e 4c -60
        E 360 b0 7b 00
        GUID {697F723D-3718-C44C-B592-CCEBAE577448}
        IGNTEMPO 0 120 4 4
        SRCCOLOR 220
        VELLANE -1 86 6
        CFGEDITVIEW 5240.390449 64.854156 56 16 0 0 0 0 0 0.5
        KEYSNAP 0
        TRACKSEL 252 0 0 ""
        EVTFILTER 0 -1 -1 -1 -1 0 0 0 0 -1 -1 -1 -1 0 -1 0 -1 -1
        CFGEDIT 1 0 0 0 0 0 1 0 1 1 1 0.25 381 116 1280 633 0 0 2 3 0 0 0 0 0 -1 0 0 1 64
      >
      TAKE
      NAME "fr. horn(s) - National_Anthems_-_Slovenia.mid"
      TAKEVOLPAN 0 1 -1
      SOFFS 0 0
      PLAYRATE 1 1 0 -1 0 0.0025
      CHANMODE 0
      GUID {70BD3AA4-FE51-5840-AF75-1FC5013877C0}
      <SOURCE MIDI
        HASDATA 1 480 QN
        POOLEDEVTS {79F4EEE2-CF90-D745-BCC2-ADD84D14BA75}
        <X 0 0
          /wNmci4gaG9ybihzKQ==
        >
        <X 0 0
          /wRTb3VuZCBDYW52YXM=
        >
        E 0 91 41 5a
        E 436 81 41 1a
        E 23 91 46 5d
        E 238 81 46 3e
        E 66 91 46 5d
        E 138 81 46 3f
        E 16 91 45 55
        E 153 81 45 1a
        E 99 91 45 55
        E 165 81 45 0b
        E 81 91 43 62
        E 384 81 43 01
        E 81 91 45 57
        E 148 81 45 1f
        E 114 91 45 4b
        E 183 81 45 01
        E 63 91 41 55
        E 274 81 41 3a
        E 72 91 41 5f
        E 105 81 41 27
        E 25 91 43 65
        E 128 81 43 2e
        E 112 91 43 6a
        E 196 81 43 0c
        E 65 91 3e 57
        E 370 81 3e 01
        E 95 91 3f 55
        E 407 81 3f 1a
        E 72 91 41 5a
        E 1209 81 41 2e
        E 252 91 41 5d
        E 288 81 41 2a
        E 169 91 41 4e
        E 4 91 3e 4a
        E 590 81 3e 23
        E 4 81 41 37
        E 108 91 41 4f
        E 4 91 3e 4f
        E 133 81 3e 24
        E 13 81 41 30
        E 100 91 3c 4e
        E 1 91 41 57
        E 367 81 41 1e
        E 7 81 3c 24
        E 96 91 41 57
        E 8 91 3e 5a
        E 311 81 3e 01
        E 22 81 41 1d
        E 113 91 46 5a
        E 15 91 3e 55
        E 402 81 46 2c
        E 53 81 3e 01
        E 25 91 3c 52
        E 4 91 45 57
        E 409 81 3c 0c
        E 40 81 45 06
        E 29 91 3a 57
        E 8 91 43 57
        E 441 81 3a 06
        E 14 81 43 3e
        E 19 91 41 57
        E 5 91 39 5a
        E 411 81 39 01
        E 55 81 41 24
        E 42 91 3c 57
        E 0 91 40 55
        E 215 91 3a 5d
        E 33 81 3c 2a
        E 182 81 3a 1d
        E 15 91 39 4f
        E 208 81 39 13
        E 12 91 3a 57
        E 187 81 40 29
        E 83 81 3a 33
        E 11 91 3c 4f
        E 1 91 40 4a
        E 372 81 40 1a
        E 83 91 3a 4e
        E 3 81 3c 1c
        E 12 91 40 47
        E 452 81 3a 1a
        E 32 81 40 39
        E 1 91 39 4e
        E 20 91 3c 35
        E 1493 81 3c 45
        E 2 81 39 4a
        E 415 91 3e 57
        E 441 91 3f 52
        E 4 81 3e 01
        E 501 91 3c 4f
        E 18 81 3f 01
        E 845 81 3c 01
        E 114 91 3a 5a
        E 476 81 3a 2a
        E 9 91 3e 4f
        E 390 81 3e 27
        E 81 91 3e 4f
        E 11 91 41 42
        E 576 81 3e 23
        E 16 81 41 35
        E 86 91 3e 4f
        E 2 91 41 4e
        E 134 81 3e 35
        E 22 81 41 27
        E 100 91 3e 55
        E 6 91 41 4f
        E 653 81 3e 31
        E 5 81 41 2b
        E 60 91 3e 55
        E 3 91 41 47
        E 122 81 3e 25
        E 92 81 41 36
        E 11 91 3a 55
        E 1 91 3e 4f
        E 383 81 3e 1d
        E 6 81 3a 05
        E 78 91 3a 52
        E 17 91 3e 55
        E 330 81 3e 01
        E 3 81 3a 01
        E 141 91 39 4f
        E 19 91 3e 42
        E 372 81 39 2d
        E 34 81 3e 27
        E 71 91 39 52
        E 8 91 3e 4f
        E 242 91 3d 4d
        E 12 81 3e 24
        E 149 81 39 1c
        E 105 91 39 4e
        E 9 91 3e 4e
        E 7 81 3d 1f
        E 741 81 3e 29
        E 1 81 39 43
        E 193 91 3e 55
        E 459 91 3f 4f
        E 7 81 3e 28
        E 479 91 3c 4f
        E 15 81 3f 3a
        E 791 81 3c 0a
        E 153 91 3a 67
        E 480 81 3a 2e
        E 5 91 3e 4e
        E 369 81 3e 29
        E 74 91 3e 55
        E 3 91 43 55
        E 572 81 3e 2d
        E 108 81 43 01
        E 20 91 3e 48
        E 18 91 41 57
        E 188 81 41 0f
        E 5 81 3e 01
        E 56 91 3f 5a
        E 13 91 43 5a
        E 377 81 3f 2e
        E 26 81 43 30
        E 65 91 3f 4e
        E 12 91 43 5f
        E 331 81 3f 32
        E 62 81 43 09
        E 50 91 41 57
        E 3 91 3e 57
        E 411 81 3e 01
        E 57 81 41 33
        E 16 91 3a 5d
        E 11 91 40 4e
        E 486 81 3a 38
        E 2 81 40 01
        E 5 91 3c 5a
        E 6 91 3f 4d
        E 1169 81 3f 25
        E 34 81 3c 20
        E 243 91 3f 55
        E 6 91 3c 4e
        E 343 81 3c 2a
        E 62 81 3f 08
        E 76 91 41 5f
        E 229 91 3f 6a
        E 0 91 46 67
        E 11 81 41 3c
        E 123 81 46 3d
        E 74 81 3f 35
        E 19 91 3e 4b
        E 0 91 46 67
        E 205 81 46 2b
        E 14 81 3e 39
        E 0 91 42 5d
        E 17 91 3c 4e
        E 170 81 42 2f
        E 52 91 46 5f
        E 25 91 41 4e
        E 7 81 3c 24
        E 418 81 46 3f
        E 19 91 3f 65
        E 10 91 39 4d
        E 22 81 41 43
        E 437 81 39 0a
        E 8 91 3e 57
        E 1 81 3f 27
        E 10 91 41 55
        E 2 91 3a 47
        E 1502 81 3a 52
        E 37 81 41 4d
        E 8 81 3e 4c
        E 420 b0 7b 00
        GUID {3C32F4C1-17AD-844A-9D8E-285F0DCC229F}
        IGNTEMPO 0 120 4 4
        SRCCOLOR 239
        VELLANE -1 86 6
        CFGEDITVIEW 0 0 49 14 0 0 0 0 0 0.5
        KEYSNAP 0
        TRACKSEL 252 0 0 ""
        EVTFILTER 0 -1 -1 -1 -1 0 0 0 0 -1 -1 -1 -1 0 -1 0 -1 -1
        CFGEDIT 1 0 0 0 0 0 1 0 1 1 1 0.25 381 116 1280 633 0 0 2 3 0 0 0 0 0 -1 0 0 1 64
      >
    >
    <ITEM
      POSITION 0
      SNAPOFFS 0
      LENGTH 34.5
      LOOP 1
      ALLTAKES 0
      FADEIN 1 0 0 1 0 0
      FADEOUT 1 0 0 1 0 0
      MUTE 0
      SEL 0
      YPOS 0.485969 0.05
      IGUID {76E7F819-ACE2-C247-8767-03247041B982}
      IID 4
      NAME "tuba(s) - National_Anthems_-_Slovenia.mid"
      VOLPAN 1 0 1 -1
      SOFFS 0 0
      PLAYRATE 1 1 0 -1 0 0.0025
      CHANMODE 0
      TAKECOLOR 26173599 B
      GUID {4E0CEB52-E6EF-BB4A-97A8-CCB37D76F815}
      <SOURCE MIDI
        HASDATA 1 480 QN
        POOLEDEVTS {AC285839-1268-EC49-AAD5-F20C9B85D99C}
        <X 0 0
          /wN0dWJhKHMp
        >
        <X 0 0
          /wRTb3VuZCBDYW52YXM=
        >
        e 0 93 29 73
        e 441 83 29 50
        e 39 93 2e 73 -25
        e 239 83 2e 3e -25
        e 121 93 2e 6a -53
        e 120 93 2d 73 -37
        e 2 83 2e 49 -53
        e 159 83 2d 2e -37
        e 79 93 2d 6f -41
        e 171 83 2d 32 -41
        e 69 93 2b 6a -39
        e 438 83 2b 33 -39
        e 42 93 2d 6f -22
        e 138 83 2d 32 -22
        e 102 93 2d 6a -15
        e 158 83 2d 3a -15
        e 82 93 29 6f -2
        e 291 83 29 4d -2
        e 69 93 29 6d 2
        e 89 83 29 47 2
        e 31 93 2b 65 5
        e 136 83 2b 3b 5
        e 104 93 2b 6a -13
        e 161 83 2b 0f -13
        e 79 93 26 6f -10
        e 406 83 26 33 -10
        e 74 93 27 73 -13
        e 365 83 27 4b -13
        e 115 93 29 77 -7
        e 1208 83 29 49 -7
        e 232 93 29 73 -14
        e 320 83 29 1e -14
        e 160 93 22 6f -8
        e 631 83 22 49 -8
        e 89 93 22 73 -15
        e 181 83 22 28 -15
        e 59 93 21 73 -24
        e 429 83 21 0f -24
        e 51 93 22 77 -13
        e 463 83 22 1b -13
        e 17 93 1d 73 -17
        e 872 83 1d 45 -17
        e 88 93 1d 73 -48
        e 960 93 24 73 -2
        e 41 83 1d 45 -48
        e 862 83 24 33 -2
        e 57 93 24 6a 7
        e 401 83 24 35 7
        e 79 93 24 6a 1
        e 416 83 24 01 1
        e 64 93 1d 6f -9
        e 438 83 1d 33 -9
        e 42 93 24 6d -7
        e 423 83 24 3c -7
        e 57 93 29 77 -1
        e 540 83 29 5a -1
        e 1380 93 29 73 -18
        e 167 83 29 38 -18
        e 73 93 2b 65 -16
        e 137 83 2b 26 -16
        e 103 93 2d 73 -11
        e 143 83 2d 17 -11
        e 97 93 29 73 -18
        e 179 83 29 29 -18
        e 61 93 22 73 -13
        e 756 83 22 01 -13
        e 204 93 29 77 -18
        e 158 83 29 42 -18
        e 82 93 2b 65 -30
        e 154 83 2b 21 -30
        e 86 93 29 6d -31
        e 143 83 29 2d -31
        e 97 93 2e 6a -29
        e 165 83 2e 18 -29
        e 75 93 26 73 -19
        e 803 83 26 0a -19
        e 157 93 2b 6a -22
        e 810 83 2b 01 -22
        e 150 93 21 77 -5
        e 385 83 21 4b -5
        e 95 93 21 7b -4
        e 474 83 21 41 -4
        e 6 93 26 73 8
        e 632 83 26 44 8
        e 1288 93 29 77 -11
        e 166 83 29 38 -11
        e 74 93 2b 65 -22
        e 149 83 2b 30 -22
        e 91 93 2d 73 -18
        e 157 83 2d 1d -18
        e 83 93 29 73 -25
        e 136 83 29 1e -25
        e 104 93 2e 6f -7
        e 345 83 2e 32 -7
        e 135 93 2d 73 -19
        e 409 83 2d 24 -19
        e 71 93 2b 6d -27
        e 400 83 2b 1e -27
        e 80 93 29 73 -29
        e 419 83 29 25 -29
        e 61 93 27 73 -8
        e 410 83 27 4a -8
        e 70 93 27 6f -8
        e 393 83 27 3d -8
        e 87 93 26 6f -14
        e 378 83 26 34 -14
        e 102 93 25 73 -35
        e 400 83 25 2c -35
        e 80 93 24 6f -32
        e 1286 83 24 21 -32
        e 154 93 22 77 -21
        e 476 83 22 52 -21
        e 4 93 2d 6f -26
        e 192 83 2d 26 -26
        e 48 93 2b 6d -22
        e 159 83 2b 28 -22
        e 81 93 29 73 -28
        e 150 83 29 2e -28
        e 90 93 27 6f -48
        e 172 83 27 2f -48
        e 68 93 26 6f -32
        e 399 83 26 29 -32
        e 81 93 24 6f -47
        e 469 83 24 0b -47
        e 11 93 22 77 -32
        e 1500 83 22 66 -32
        E 420 b0 7b 00
        GUID {DB99DB4A-05AF-E847-96C4-063C15DC5B6D}
        IGNTEMPO 0 120 4 4
        SRCCOLOR 222
        VELLANE -1 86 6
        CFGEDITVIEW 5393.851878 66.895881 80 12 0 0 0 0 0 0.5
        KEYSNAP 0
        TRACKSEL 252 0 0 ""
        EVTFILTER 0 -1 -1 -1 -1 0 0 0 0 -1 -1 -1 -1 0 -1 0 -1 -1
        CFGEDIT 1 0 0 0 0 0 1 0 1 1 1 0.25 397 132 1280 633 0 0 2 3 0 0 0 0 0 -1 0 0 1 64
      >
      TAKE
      NAME "tuba(s) - National_Anthems_-_Slovenia.mid"
      TAKEVOLPAN 0 1 -1
      SOFFS 0 0
      PLAYRATE 1 1 0 -1 0 0.0025
      CHANMODE 0
      GUID {BFAA025C-286F-6043-824A-D606F8280DB2}
      <SOURCE MIDI
        HASDATA 1 480 QN
        POOLEDEVTS {05F6F072-0575-DC44-803A-274D4A46F1A8}
        <X 0 0
          /wN0dWJhKHMp
        >
        <X 0 0
          /wRTb3VuZCBDYW52YXM=
        >
        E 0 93 29 73
        E 441 83 29 50
        E 14 93 2e 73
        E 239 83 2e 3e
        E 93 93 2e 6a
        E 122 83 2e 49
        E 14 93 2d 73
        E 161 83 2d 2e
        E 75 93 2d 6f
        E 171 83 2d 32
        E 71 93 2b 6a
        E 438 83 2b 33
        E 59 93 2d 6f
        E 138 83 2d 32
        E 109 93 2d 6a
        E 158 83 2d 3a
        E 95 93 29 6f
        E 291 83 29 4d
        E 73 93 29 6d
        E 89 83 29 47
        E 34 93 2b 65
        E 136 83 2b 3b
        E 86 93 2b 6a
        E 161 83 2b 0f
        E 82 93 26 6f
        E 406 83 26 33
        E 71 93 27 73
        E 365 83 27 4b
        E 121 93 29 77
        E 1208 83 29 49
        E 225 93 29 73
        E 320 83 29 1e
        E 166 93 22 6f
        E 631 83 22 49
        E 82 93 22 73
        E 181 83 22 28
        E 50 93 21 73
        E 429 83 21 0f
        E 62 93 22 77
        E 463 83 22 1b
        E 13 93 1d 73
        E 872 83 1d 45
        E 57 93 1d 73
        E 1001 83 1d 45
        E 5 93 24 73
        E 903 83 24 33
        E 66 93 24 6a
        E 401 83 24 35
        E 73 93 24 6a
        E 416 83 24 01
        E 54 93 1d 6f
        E 438 83 1d 33
        E 44 93 24 6d
        E 423 83 24 3c
        E 63 93 29 77
        E 540 83 29 5a
        E 1363 93 29 73
        E 167 83 29 38
        E 75 93 2b 65
        E 137 83 2b 26
        E 108 93 2d 73
        E 143 83 2d 17
        E 90 93 29 73
        E 179 83 29 29
        E 66 93 22 73
        E 756 83 22 01
        E 199 93 29 77
        E 158 83 29 42
        E 70 93 2b 65
        E 154 83 2b 21
        E 85 93 29 6d
        E 143 83 29 2d
        E 99 93 2e 6a
        E 165 83 2e 18
        E 85 93 26 73
        E 803 83 26 0a
        E 154 93 2b 6a
        E 810 83 2b 01
        E 167 93 21 77
        E 385 83 21 4b
        E 96 93 21 7b
        E 474 83 21 41
        E 18 93 26 73
        E 632 83 26 44
        E 1269 93 29 77
        E 166 83 29 38
        E 63 93 2b 65
        E 149 83 2b 30
        E 95 93 2d 73
        E 157 83 2d 1d
        E 76 93 29 73
        E 136 83 29 1e
        E 122 93 2e 6f
        E 345 83 2e 32
        E 123 93 2d 73
        E 409 83 2d 24
        E 63 93 2b 6d
        E 400 83 2b 1e
        E 78 93 29 73
        E 419 83 29 25
        E 82 93 27 73
        E 410 83 27 4a
        E 70 93 27 6f
        E 393 83 27 3d
        E 81 93 26 6f
        E 378 83 26 34
        E 81 93 25 73
        E 400 83 25 2c
        E 83 93 24 6f
        E 1286 83 24 21
        E 165 93 22 77
        E 475 93 2d 6f
        E 1 83 22 52
        E 191 83 2d 26
        E 52 93 2b 6d
        E 159 83 2b 28
        E 75 93 29 73
        E 150 83 29 2e
        E 70 93 27 6f
        E 172 83 27 2f
        E 84 93 26 6f
        E 399 83 26 29
        E 66 93 24 6f
        E 469 83 24 0b
        E 26 93 22 77
        E 1500 83 22 66
        E 452 b0 7b 00
        GUID {339BAD54-B275-2E49-888B-3815858B5E00}
        IGNTEMPO 0 120 4 4
        SRCCOLOR 241
        VELLANE -1 86 6
      >
    >
  >
  <TRACK {2E103EAF-0FA2-9942-87A1-30E1663A9F4B}
    NAME "--- 0 --- 0 --- 0 "
    PEAKCOL 16576
    BEAT -1
    AUTOMODE 0
    VOLPAN 1 0 -1 -1 1
    MUTESOLO 0 0 0
    IPHASE 0
    ISBUS 0 0
    BUSCOMP 0 0
    SHOWINMIX 1 0.6667 0.565574 0 0.5 0 0 0
    FREEMODE 0
    SEL 0
    REC 0 0 0 0 0 0 0
    VU 2
    TRACKHEIGHT 0 0
    INQ 0 0 0 0.5 100 0 0 100
    NCHAN 2
    FX 1
    TRACKID {2E103EAF-0FA2-9942-87A1-30E1663A9F4B}
    PERF 0
    LAYOUTS "" Separator
    MIDIOUT -1
    MAINSEND 1 0
  >
  <TRACK {E8926051-6355-4C4F-AE13-AE1F700F5C09}
    NAME "10 Slovenia"
    PEAKCOL 16576
    BEAT -1
    AUTOMODE 0
    VOLPAN 1 0 -1 -1 1
    MUTESOLO 1 0 0
    IPHASE 0
    ISBUS 0 0
    BUSCOMP 0 0
    SHOWINMIX 1 0.6667 0.5 1 0.5 0 0 0
    FREEMODE 0
    SEL 0
    REC 0 0 0 0 0 0 0
    VU 2
    TRACKHEIGHT 25 0
    INQ 0 0 0 0.5 100 0 0 100
    NCHAN 2
    FX 1
    TRACKID {E8926051-6355-4C4F-AE13-AE1F700F5C09}
    PERF 0
    MIDIOUT -1
    MAINSEND 1 0
    <ITEM
      POSITION 0
      SNAPOFFS 0
      LENGTH 46.5
      LOOP 1
      ALLTAKES 0
      FADEIN 1 0 0 1 0 0
      FADEOUT 1 0 0 1 0 0
      MUTE 0
      SEL 0
      IGUID {D1E04FFF-EEF2-5B47-BB41-626621A04494}
      IID 8
      NAME "10 Slovenia.mp3"
      VOLPAN 1 0 1 -1
      SOFFS 3.49133786848072
      PLAYRATE 1.13978494623656 1 0 -1 0 0.0025
      CHANMODE 0
      GUID {0F0CB926-EF32-D442-990B-43565938A597}
      <SOURCE MP3
        FILE "10 Slovenia.mp3" 1
      >
    >
  >
  <TRACK {4A6CD977-ADCC-3A4D-927C-BB2CEF4B0809}
    NAME "vst Gladiator"
    PEAKCOL 27222112
    BEAT -1
    AUTOMODE 0
    VOLPAN 0.25118864315096 0 -1 -1 1
    MUTESOLO 0 0 0
    IPHASE 0
    ISBUS 0 0
    BUSCOMP 2 0
    SHOWINMIX 1 0.6667 0.5 1 0.5 0 0 0
    FREEMODE 0
    SEL 0
    REC 0 0 0 0 0 0 0
    VU 2
    TRACKHEIGHT 205 0
    INQ 0 0 0 0.5 100 0 0 100
    NCHAN 2
    FX 1
    TRACKID {4A6CD977-ADCC-3A4D-927C-BB2CEF4B0809}
    PERF 0
    MIDIOUT -1
    MAINSEND 1 0
    <FXCHAIN
      SHOW 0
      LASTSEL 0
      DOCKED 0
      BYPASS 0 0 0
      <VST "VSTi: Gladiator (Tone2.com)" Gladiator.vst 0 "" 1412581196
        TEcyVO5e7f4AAAAAAgAAAAEAAAAAAAAAAgAAAAAAAABaBAAAAQAAAAAAEAA=
        Q2NuSwAAAGBGeENrAAAAAVQyR0wAAAABAAABB0luaXQAAAAAAAAAAAAAAAAAAAAAAAAAAAAAAAA9zMzNPMzMzTw0OVg9uFH0PXnbIz+AAAA7xJumPb52yT+AAAA7xJum
        AAAAAD6mZmY+PXCkP4AAAD7FHrk/AAAAPwAAAAAAAAA9ffO2PdDlYDy8an8/RR64AAAAAD+AAAA8NDlYPZFocz71wo87RJumPbhR6D69cKQ+PXCkP4AAAD8AAAA/A9cL
        PwAAAAAAAAAAAAAAPwAAAD8AAAA/AAAAPtmZmj8AAAAAAAAAO+VgQj24UesAAAAAPk21xDtEm6Y/S4UeAAAAAAAAAAA+64UgPpR64T1hR7A+z1woPx64Uj49cKY/AAAA
        PwAAAAAAAAAAAAAAPwAAAAAAAAAAAAAAP4AAAD+AAAAAAAAAPxHrhT8AAAA/AAAAPwAAAD8AAAAAAAAAPwAAAD8AAAA/AAAAAAAAAD8AAAA/AAAAPwAAAAAAAAA6gxJv
        P1Cj1wAAAAA/gAAAAAAAADqDEm8/AAAAAAAAAAAAAAAAAAAAPwAAAAAAAAA/gAAAAAAAAD+AAAAAAAAAPwAAAD8AAAA/AAAAPwAAAD8AAAA/AAAAPwAAAD8AAAA/AAAA
        PwAAAD8AAAA/EeuGPKPXCjqDEm88RJumAAAAAAAAAAAAAAAAPLxqfwAAAAAAAAAAAAAAAAAAAAAAAAAAAAAAAAAAAAAAAAAAAAAAAAAAAAAAAAAAAAAAAAAAAAAAAAAA
        AAAAAAAAAAA8E3S8AAAAADw0OVgAAAAAPBN0vAAAAAA8NDlYAAAAADwTdLwAAAAAPDQ5WAAAAAA8E3S8AAAAADw0OVgAAAAAPGVgQj2HKwI8ZWBCOwMSbz2JN0w7AxJv
        PLQ5WDyLQ5Y8k3S8PVT99D0XjVA8zMzNPoAAAD9ywjU/AAAAP1GnuT8wjT4/HLCNAAAAADsDEm86gxJvAAAAAAAAAAAAAAAAPwAAADqDEm87RJumP4AAAAAAAAA/gAAA
        AAAAAD+AAAAAAAAAAAAAAAAAAAAAAAAAP4AAAAAAAAA/AAAAAAAAAD8AAAA/BR64PwAAAD+AAAA/AAAAPwAAAD8AAAA/gAAAP4AAAAAAAAAAAAAAAAAAAD8AAAA/gAAA
        PwAAAAAAAAA+vXCkAAAAAAAAAAA/gAAAP4AAAD8j1wo/gAAAAAAAAAAAAAA/gAAAPwAAAAAAAAAAAAAAAAAAAAAAAAAAAAAAAAAAAAAAAAAAAAAAAAAAAAAAAAAAAAAA
        AAAAAD8AAAA/AAAAPwAAAD8AAAA/AAAAPwAAAAAAAAAAAAAAP4AAAAAAAAAAAAAAAAAAAAAAAAAAAAAAAAAAAAAAAAAAAAAAAAAAAAAAAAAAAAAAAAAAAAAAAAAAAAAA
        AAAAAAAAAAAAAAAAAAAAAAAAAAAAAAAAAAAAAAAAAAAAAAAAAAAAAAAAAAAAAAAAAAAAAAAAqqusrQ==
        AAAQAAAA
      >
      FLOATPOS 500 379 987 799
      FXID {532372E3-5B0D-9345-A9C8-98A8EBAF9A7E}
      WAK 0
    >
    <ITEM
      POSITION 0
      SNAPOFFS 0
      LENGTH 34.5
      LOOP 1
      ALLTAKES 0
      FADEIN 1 0 0 1 0 0
      FADEOUT 1 0 0 1 0 0
      MUTE 0
      SEL 0
      YPOS 0.16199 0.05
      IGUID {C3FFCBFF-23D7-CD43-A227-F365E9AB4769}
      IID 3
      NAME "trombone(s) - National_Anthems_-_Slovenia.mid"
      VOLPAN 1 0 1 -1
      SOFFS 0 0
      PLAYRATE 1 1 0 -1 0 0.0025
      CHANMODE 0
      TAKECOLOR 26173599 B
      GUID {0489A1B7-8546-F843-AFDD-D21217ED7A77}
      <SOURCE MIDI
        HASDATA 1 480 QN
        POOLEDEVTS {6702D94F-EF69-5846-B600-BB33022C0540}
        <X 0 0
          /wN0cm9tYm9uZShzKQ==
        >
        <X 0 0
          /wRTb3VuZCBDYW52YXM=
        >
        e 0 90 35 6f
        e 460 80 35 00
        e 20 90 3a 6d -13
        e 240 80 3a 00 -11
        e 0 90 3a 6a 58
        e 118 80 3a 00 58
        e 122 90 39 6f -42
        e 151 80 39 00 -42
        e 89 90 39 6f -40
        e 173 80 39 00 -40
        e 67 90 37 65 -36
        e 443 80 37 00 -36
        e 37 90 39 6a -10
        e 128 80 39 00 -10
        e 112 90 39 67 -17
        e 150 80 39 00 -17
        e 90 90 35 6f -8
        e 268 80 35 00 -8
        e 92 90 35 6a -34
        e 108 80 35 00 -34
        e 12 90 37 62 -14
        e 134 80 37 00 -14
        e 106 90 37 5f -22
        e 135 80 37 00 -22
        e 105 90 32 67 -13
        e 422 80 32 00 -13
        e 58 90 33 6f -9
        e 387 80 33 00 -9
        e 93 90 35 73 -13
        e 1221 80 35 00 -13
        e 219 90 35 6f -12
        e 388 80 35 00 -12
        e 92 90 3a 65 -25
        e 608 80 3a 00 -25
        e 112 90 3a 6a -13
        e 150 80 3a 00 -13
        e 90 90 39 6a -24
        e 436 80 39 00 -24
        e 44 90 3a 67 -12
        e 443 80 3a 00 -12
        e 37 90 35 6d -33
        e 898 80 35 00 -33
        e 62 90 35 6a -21
        e 919 80 35 00 -21
        e 41 90 30 65 -12
        e 902 80 30 00 -12
        e 58 90 30 62 8
        e 378 80 30 00 8
        e 102 90 30 5f -13
        e 425 80 30 00 -13
        e 55 90 29 6a 13
        e 383 80 29 00 13
        e 97 90 30 6a -5
        e 398 80 30 00 -5
        e 82 90 35 65 -15
        e 547 80 35 00 -15
        e 1373 90 35 6f -24
        e 155 80 35 00 -24
        e 85 90 37 62 -27
        e 174 80 37 00 -27
        e 66 90 39 65 -19
        e 146 80 39 00 -19
        e 94 90 35 65 -24
        e 183 80 35 00 -24
        e 57 90 2e 6a -9
        e 702 80 2e 00 -9
        e 258 90 35 6f -32
        e 155 80 35 00 -32
        e 85 90 37 5f -36
        e 160 80 37 00 -36
        e 80 90 35 67 -45
        e 164 80 35 00 -45
        e 76 90 3a 62 -40
        e 183 80 3a 00 -40
        e 57 90 32 67 -13
        e 772 80 32 00 -13
        e 188 90 37 5a -22
        e 769 80 37 00 -22
        e 191 90 2d 67 -9
        e 362 80 2d 00 -9
        e 118 90 2d 65 -15
        e 430 80 2d 00 -15
        e 50 90 32 5d 3
        e 655 80 32 00 3
        e 1265 90 35 73 -3
        e 162 80 35 00 -3
        e 78 90 37 5f -22
        e 178 80 37 00 -22
        e 62 90 39 6a -20
        e 163 80 39 00 -20
        e 77 90 35 65 -26
        e 117 80 35 00 -26
        e 123 90 3a 6a -17
        e 354 80 3a 00 -17
        e 126 90 39 65 -17
        e 379 80 39 00 -17
        e 101 90 37 65 -35
        e 411 80 37 00 -35
        e 69 90 35 6f -13
        e 358 80 35 00 -13
        e 122 90 33 6f -14
        e 375 80 33 00 -14
        e 105 90 33 6f 8
        e 385 80 33 00 8
        e 95 90 32 6d -6
        e 363 80 32 00 -6
        e 117 90 31 6a -23
        e 407 80 31 00 -23
        e 73 90 30 65 -6
        e 1296 80 30 00 -6
        e 144 90 2e 6f -7
        e 420 80 2e 00 -7
        e 60 90 39 5f
        e 186 80 39 00
        e 54 90 37 57 -21
        e 165 80 37 00 -21
        e 75 90 35 6f -29
        e 142 80 35 00 -29
        e 98 90 33 6a -36
        e 186 80 33 00 -36
        e 54 90 32 6d -27
        e 393 80 32 00 -27
        e 87 90 30 65 -26
        e 376 80 30 00 -26
        e 104 90 2e 6a -39
        e 1522 80 2e 00 -39
        E 398 b0 7b 00
        GUID {F0165281-59D4-1742-BA34-5505A6E635F7}
        IGNTEMPO 0 120 4 4
        SRCCOLOR 221
        VELLANE -1 86 6
        CFGEDITVIEW 12142.759648 102.811308 68 12 0 0 0 0 0 0.5
        KEYSNAP 0
        TRACKSEL 252 0 0 ""
        EVTFILTER 0 -1 -1 -1 -1 0 0 0 0 -1 -1 -1 -1 0 -1 0 -1 -1
        CFGEDIT 1 0 0 0 0 0 1 0 1 1 1 0.25 397 132 1280 633 0 0 2 3 0 0 0 0 0 -1 0 0 1 64
      >
      TAKE
      NAME "trombone(s) - National_Anthems_-_Slovenia.mid"
      TAKEVOLPAN 0 1 -1
      SOFFS 0 0
      PLAYRATE 1 1 0 -1 0 0.0025
      CHANMODE 0
      GUID {33EA151A-E862-BB44-AF83-11D693029194}
      <SOURCE MIDI
        HASDATA 1 480 QN
        POOLEDEVTS {247E8C55-FB70-3045-8D2C-F96FF988BB87}
        <X 0 0
          /wN0cm9tYm9uZShzKQ==
        >
        <X 0 0
          /wRTb3VuZCBDYW52YXM=
        >
        E 0 92 35 6f
        E 460 82 35 3d
        E 7 92 3a 6d
        E 242 82 3a 43
        E 69 92 3a 6a
        E 118 82 3a 42
        E 22 92 39 6f
        E 151 82 39 30
        E 91 92 39 6f
        E 173 82 39 15
        E 71 92 37 65
        E 443 82 37 03
        E 63 92 39 6a
        E 128 82 39 33
        E 105 92 39 67
        E 150 82 39 29
        E 99 92 35 6f
        E 268 82 35 4d
        E 66 92 35 6a
        E 108 82 35 3e
        E 32 92 37 62
        E 134 82 37 31
        E 98 92 37 5f
        E 135 82 37 26
        E 114 92 32 67
        E 422 82 32 33
        E 62 92 33 6f
        E 387 82 33 28
        E 89 92 35 73
        E 1221 82 35 48
        E 220 92 35 6f
        E 388 82 35 01
        E 79 92 3a 65
        E 608 82 3a 3a
        E 124 92 3a 6a
        E 150 82 3a 2c
        E 79 92 39 6a
        E 436 82 39 0c
        E 56 92 3a 67
        E 443 82 3a 18
        E 16 92 35 6d
        E 898 82 35 3c
        E 74 92 35 6a
        E 919 82 35 36
        E 50 92 30 65
        E 902 82 30 3e
        E 78 92 30 62
        E 378 82 30 42
        E 81 92 30 5f
        E 425 82 30 26
        E 81 92 29 6a
        E 383 82 29 17
        E 79 92 30 6a
        E 398 82 30 2b
        E 72 92 35 65
        E 547 82 35 55
        E 1364 92 35 6f
        E 155 82 35 3a
        E 82 92 37 62
        E 174 82 37 01
        E 74 92 39 65
        E 146 82 39 27
        E 89 92 35 65
        E 183 82 35 01
        E 72 92 2e 6a
        E 702 82 2e 41
        E 235 92 35 6f
        E 155 82 35 21
        E 81 92 37 5f
        E 160 82 37 17
        E 71 92 35 67
        E 164 82 35 0f
        E 81 92 3a 62
        E 183 82 3a 16
        E 84 92 32 67
        E 772 82 32 01
        E 179 92 37 5a
        E 769 82 37 12
        E 204 92 2d 67
        E 362 82 2d 2b
        E 112 92 2d 65
        E 430 82 2d 04
        E 68 92 32 5d
        E 655 82 32 1c
        E 1259 92 35 73
        E 162 82 35 23
        E 59 92 37 5f
        E 178 82 37 01
        E 64 92 39 6a
        E 163 82 39 23
        E 71 92 35 65
        E 117 82 35 38
        E 132 92 3a 6a
        E 354 82 3a 2a
        E 126 92 39 65
        E 379 82 39 16
        E 83 92 37 65
        E 411 82 37 09
        E 91 92 35 6f
        E 358 82 35 1b
        E 121 92 33 6f
        E 375 82 33 20
        E 127 92 33 6f
        E 385 82 33 13
        E 81 92 32 6d
        E 363 82 32 01
        E 100 92 31 6a
        E 407 82 31 2c
        E 90 92 30 65
        E 1296 82 30 35
        E 143 92 2e 6f
        E 420 82 2e 22
        E 67 92 39 5f
        E 186 82 39 07
        E 33 92 37 57
        E 165 82 37 1d
        E 67 92 35 6f
        E 142 82 35 2a
        E 91 92 33 6a
        E 186 82 33 0d
        E 63 92 32 6d
        E 393 82 32 0d
        E 88 92 30 65
        E 376 82 30 01
        E 91 92 2e 6a
        E 1522 82 2e 62
        E 437 b0 7b 00
        GUID {DB1B9B95-429A-494B-954E-3CD5F05E0888}
        IGNTEMPO 0 120 4 4
        SRCCOLOR 240
        VELLANE -1 86 6
      >
    >
    <ITEM
      POSITION 0
      SNAPOFFS 0
      LENGTH 34.5
      LOOP 1
      ALLTAKES 0
      FADEIN 1 0 0 1 0 0
      FADEOUT 1 0 0 1 0 0
      MUTE 0
      SEL 0
      YPOS 0.485969 0.05
      IGUID {7CAFC43D-C67B-DD48-9158-FDBE3A0542D5}
      IID 4
      NAME "tuba(s) - National_Anthems_-_Slovenia.mid"
      VOLPAN 1 0 1 -1
      SOFFS 0 0
      PLAYRATE 1 1 0 -1 0 0.0025
      CHANMODE 0
      TAKECOLOR 26173599 B
      GUID {7F046900-BB43-374D-8F0E-4C7AA62549EF}
      <SOURCE MIDI
        HASDATA 1 480 QN
        POOLEDEVTS {7B1A881E-C65B-F248-8609-FD191910FE54}
        <X 0 0
          /wN0dWJhKHMp
        >
        <X 0 0
          /wRTb3VuZCBDYW52YXM=
        >
        e 0 90 29 73
        e 441 80 29 00
        e 39 90 2e 73 -25
        e 239 80 2e 00 -25
        e 121 90 2e 6a -53
        e 120 90 2d 73 -37
        e 2 80 2e 00 -53
        e 159 80 2d 00 -37
        e 79 90 2d 6f -41
        e 171 80 2d 00 -41
        e 69 90 2b 6a -39
        e 438 80 2b 00 -39
        e 42 90 2d 6f -22
        e 138 80 2d 00 -22
        e 102 90 2d 6a -15
        e 158 80 2d 00 -15
        e 82 90 29 6f -2
        e 291 80 29 00 -2
        e 69 90 29 6d 2
        e 89 80 29 00 2
        e 31 90 2b 65 5
        e 136 80 2b 00 5
        e 104 90 2b 6a -13
        e 161 80 2b 00 -13
        e 79 90 26 6f -10
        e 406 80 26 00 -10
        e 74 90 27 73 -13
        e 365 80 27 00 -13
        e 115 90 29 77 -7
        e 1208 80 29 00 -7
        e 232 90 29 73 -14
        e 320 80 29 00 -14
        e 160 90 22 6f -8
        e 631 80 22 00 -8
        e 89 90 22 73 -15
        e 181 80 22 00 -15
        e 59 90 21 73 -24
        e 429 80 21 00 -24
        e 51 90 22 77 -13
        e 463 80 22 00 -13
        e 17 90 1d 73 -17
        e 872 80 1d 00 -17
        e 88 90 1d 73 -48
        e 960 90 24 73 -2
        e 41 80 1d 00 -48
        e 862 80 24 00 -2
        e 57 90 24 6a 7
        e 401 80 24 00 7
        e 79 90 24 6a 1
        e 416 80 24 00 1
        e 64 90 1d 6f -9
        e 438 80 1d 00 -9
        e 42 90 24 6d -7
        e 423 80 24 00 -7
        e 57 90 29 77 -1
        e 540 80 29 00 -1
        e 1380 90 29 73 -18
        e 167 80 29 00 -18
        e 73 90 2b 65 -16
        e 137 80 2b 00 -16
        e 103 90 2d 73 -11
        e 143 80 2d 00 -11
        e 97 90 29 73 -18
        e 179 80 29 00 -18
        e 61 90 22 73 -13
        e 756 80 22 00 -13
        e 204 90 29 77 -18
        e 158 80 29 00 -18
        e 82 90 2b 65 -30
        e 154 80 2b 00 -30
        e 86 90 29 6d -31
        e 143 80 29 00 -31
        e 97 90 2e 6a -29
        e 165 80 2e 00 -29
        e 75 90 26 73 -19
        e 803 80 26 00 -19
        e 157 90 2b 6a -22
        e 810 80 2b 00 -22
        e 150 90 21 77 -5
        e 385 80 21 00 -5
        e 95 90 21 7b -4
        e 474 80 21 00 -4
        e 6 90 26 73 8
        e 632 80 26 00 8
        e 1288 90 29 77 -11
        e 166 80 29 00 -11
        e 74 90 2b 65 -22
        e 149 80 2b 00 -22
        e 91 90 2d 73 -18
        e 157 80 2d 00 -18
        e 83 90 29 73 -25
        e 136 80 29 00 -25
        e 104 90 2e 6f -7
        e 345 80 2e 00 -7
        e 135 90 2d 73 -19
        e 409 80 2d 00 -19
        e 71 90 2b 6d -27
        e 400 80 2b 00 -27
        e 80 90 29 73 -29
        e 419 80 29 00 -29
        e 61 90 27 73 -8
        e 410 80 27 00 -8
        e 70 90 27 6f -8
        e 393 80 27 00 -8
        e 87 90 26 6f -14
        e 378 80 26 00 -14
        e 102 90 25 73 -35
        e 400 80 25 00 -35
        e 80 90 24 6f -32
        e 1286 80 24 00 -32
        e 154 90 22 77 -21
        e 476 80 22 00 -21
        e 4 90 2d 6f -26
        e 192 80 2d 00 -26
        e 48 90 2b 6d -22
        e 159 80 2b 00 -22
        e 81 90 29 73 -28
        e 150 80 29 00 -28
        e 90 90 27 6f -48
        e 172 80 27 00 -48
        e 68 90 26 6f -32
        e 399 80 26 00 -32
        e 81 90 24 6f -47
        e 469 80 24 00 -47
        e 11 90 22 77 -32
        e 1500 80 22 00 -32
        E 420 b0 7b 00
        GUID {DB99DB4A-05AF-E847-96C4-063C15DC5B6D}
        IGNTEMPO 0 120 4 4
        SRCCOLOR 222
        VELLANE -1 86 6
        CFGEDITVIEW 5393.851878 66.895881 80 12 0 0 0 0 0 0.5
        KEYSNAP 0
        TRACKSEL 252 0 0 ""
        EVTFILTER 0 -1 -1 -1 -1 0 0 0 0 -1 -1 -1 -1 0 -1 0 -1 -1
        CFGEDIT 1 0 0 0 0 0 1 0 1 1 1 0.25 397 132 1280 633 0 0 2 3 0 0 0 0 0 -1 0 0 1 64
      >
      TAKE
      NAME "tuba(s) - National_Anthems_-_Slovenia.mid"
      TAKEVOLPAN 0 1 -1
      SOFFS 0 0
      PLAYRATE 1 1 0 -1 0 0.0025
      CHANMODE 0
      GUID {CB8FE6A6-780A-9747-A5F9-4E59C0D291C4}
      <SOURCE MIDI
        HASDATA 1 480 QN
        POOLEDEVTS {D48F1923-BD21-DE47-B556-610DB1491C7A}
        <X 0 0
          /wN0dWJhKHMp
        >
        <X 0 0
          /wRTb3VuZCBDYW52YXM=
        >
        E 0 93 29 73
        E 441 83 29 50
        E 14 93 2e 73
        E 239 83 2e 3e
        E 93 93 2e 6a
        E 122 83 2e 49
        E 14 93 2d 73
        E 161 83 2d 2e
        E 75 93 2d 6f
        E 171 83 2d 32
        E 71 93 2b 6a
        E 438 83 2b 33
        E 59 93 2d 6f
        E 138 83 2d 32
        E 109 93 2d 6a
        E 158 83 2d 3a
        E 95 93 29 6f
        E 291 83 29 4d
        E 73 93 29 6d
        E 89 83 29 47
        E 34 93 2b 65
        E 136 83 2b 3b
        E 86 93 2b 6a
        E 161 83 2b 0f
        E 82 93 26 6f
        E 406 83 26 33
        E 71 93 27 73
        E 365 83 27 4b
        E 121 93 29 77
        E 1208 83 29 49
        E 225 93 29 73
        E 320 83 29 1e
        E 166 93 22 6f
        E 631 83 22 49
        E 82 93 22 73
        E 181 83 22 28
        E 50 93 21 73
        E 429 83 21 0f
        E 62 93 22 77
        E 463 83 22 1b
        E 13 93 1d 73
        E 872 83 1d 45
        E 57 93 1d 73
        E 1001 83 1d 45
        E 5 93 24 73
        E 903 83 24 33
        E 66 93 24 6a
        E 401 83 24 35
        E 73 93 24 6a
        E 416 83 24 01
        E 54 93 1d 6f
        E 438 83 1d 33
        E 44 93 24 6d
        E 423 83 24 3c
        E 63 93 29 77
        E 540 83 29 5a
        E 1363 93 29 73
        E 167 83 29 38
        E 75 93 2b 65
        E 137 83 2b 26
        E 108 93 2d 73
        E 143 83 2d 17
        E 90 93 29 73
        E 179 83 29 29
        E 66 93 22 73
        E 756 83 22 01
        E 199 93 29 77
        E 158 83 29 42
        E 70 93 2b 65
        E 154 83 2b 21
        E 85 93 29 6d
        E 143 83 29 2d
        E 99 93 2e 6a
        E 165 83 2e 18
        E 85 93 26 73
        E 803 83 26 0a
        E 154 93 2b 6a
        E 810 83 2b 01
        E 167 93 21 77
        E 385 83 21 4b
        E 96 93 21 7b
        E 474 83 21 41
        E 18 93 26 73
        E 632 83 26 44
        E 1269 93 29 77
        E 166 83 29 38
        E 63 93 2b 65
        E 149 83 2b 30
        E 95 93 2d 73
        E 157 83 2d 1d
        E 76 93 29 73
        E 136 83 29 1e
        E 122 93 2e 6f
        E 345 83 2e 32
        E 123 93 2d 73
        E 409 83 2d 24
        E 63 93 2b 6d
        E 400 83 2b 1e
        E 78 93 29 73
        E 419 83 29 25
        E 82 93 27 73
        E 410 83 27 4a
        E 70 93 27 6f
        E 393 83 27 3d
        E 81 93 26 6f
        E 378 83 26 34
        E 81 93 25 73
        E 400 83 25 2c
        E 83 93 24 6f
        E 1286 83 24 21
        E 165 93 22 77
        E 475 93 2d 6f
        E 1 83 22 52
        E 191 83 2d 26
        E 52 93 2b 6d
        E 159 83 2b 28
        E 75 93 29 73
        E 150 83 29 2e
        E 70 93 27 6f
        E 172 83 27 2f
        E 84 93 26 6f
        E 399 83 26 29
        E 66 93 24 6f
        E 469 83 24 0b
        E 26 93 22 77
        E 1500 83 22 66
        E 452 b0 7b 00
        GUID {339BAD54-B275-2E49-888B-3815858B5E00}
        IGNTEMPO 0 120 4 4
        SRCCOLOR 241
        VELLANE -1 86 6
      >
    >
    <ITEM
      POSITION 0
      SNAPOFFS 0
      LENGTH 34.5
      LOOP 1
      ALLTAKES 0
      FADEIN 1 0 0 1 0 0
      FADEOUT 1 0 0 1 0 0
      MUTE 1
      SEL 0
      YPOS 0.809949 0.05
      IGUID {F36BE306-0442-B540-866B-74FCD6980E7C}
      IID 6
      NAME "strings (mid) - National_Anthems_-_Slovenia.mid"
      VOLPAN 1 0 1 -1
      SOFFS 0 0
      PLAYRATE 1 1 0 -1 0 0.0025
      CHANMODE 0
      GUID {1ED49E6D-36E7-1448-BA8B-735D8E32245E}
      <SOURCE MIDI
        HASDATA 1 480 QN
        POOLEDEVTS {4AF3624F-4671-CA49-AAAA-C569174403B0}
        <X 0 0
          /wNzdHJpbmdzIChtaWQp
        >
        <X 0 0
          /wRTb3VuZCBDYW52YXM=
        >
        e 0 90 41 4d
        e 3 90 35 57
        e 438 80 35 00
        e 13 90 3a 5a
        e 4 90 46 5d
        e 15 80 41 00
        e 163 80 3a 00
        e 31 80 46 00
        e 87 90 46 5a
        e 3 90 3a 4e
        e 126 80 3a 00
        e 37 80 46 00
        e 2 90 39 5f
        e 8 90 45 48
        e 109 80 39 00
        e 30 80 45 00
        e 83 90 39 5a
        e 12 90 45 4a
        e 178 80 39 00
        e 35 80 45 00
        e 17 90 37 4d
        e 11 90 43 5f
        e 448 80 37 00
        e 13 90 39 5f
        e 4 90 45 55
        e 12 80 43 00
        e 120 80 39 00
        e 25 80 45 00
        e 80 90 39 57
        e 9 90 45 4b
        e 148 80 39 00
        e 96 90 35 5d
        e 2 90 41 57
        e 9 80 45 00
        e 244 80 35 00
        e 18 80 41 00
        e 65 90 35 55
        e 17 90 41 55
        e 116 80 35 00
        e 15 80 41 00
        e 11 90 43 62
        e 1 90 37 4f
        e 118 80 37 00
        e 10 80 43 00
        e 93 90 37 4e
        e 19 90 43 62
        e 229 80 37 00
        e 0 80 43 00
        e 15 90 32 4b
        e 9 90 3e 4f
        e 453 80 32 00
        e 8 90 33 57
        e 4 90 3f 4f
        e 26 80 3e 00
        e 462 90 41 45
        e 3 90 35 57
        e 4 80 3f 00
        e 21 80 33 00
        e 1206 80 35 00
        e 16 80 41 00
        e 197 90 41 57
        e 315 80 41 00
        e 146 90 41 55
        e 6 90 3e 52
        e 607 80 41 00
        e 27 80 3e 00
        e 73 90 41 55
        e 11 90 3e 3d
        e 148 80 3e 00
        e 11 80 41 00
        e 72 90 41 55
        e 21 90 3c 42
        e 390 80 41 00
        e 10 80 3c 00
        e 61 90 3e 3d
        e 18 90 41 4e
        e 327 80 41 00
        e 30 80 3e 00
        e 118 90 46 27
        e 10 90 3e 4f
        e 423 80 46 00
        e 2 80 3e 00
        e 12 90 3c 4b
        e 3 90 45 52
        e 458 80 3c 00
        e 29 80 45 00
        e 1 90 3a 4b
        e 4 90 43 5f
        e 443 80 3a 00
        e 24 80 43 00
        e 8 90 39 5a
        e 1 90 41 57
        e 326 80 39 00
        e 28 80 41 00
        e 127 90 40 52
        e 1 90 3c 57
        e 263 90 3a 62
        e 9 80 3c 00
        e 199 80 3a 00
        e 45 90 39 4f
        e 228 80 39 00
        e 12 90 3a 5d
        e 135 80 40 00
        e 105 90 3c 55
        e 6 80 3a 00
        e 4 90 40 47
        e 373 80 40 00
        e 91 80 3c 00
        e 6 90 3a 52
        e 26 90 40 44
        e 418 80 3a 00
        e 36 90 3c 42
        e 8 80 40 00
        e 2 90 39 4f
        e 1529 80 39 00
        e 4 80 3c 00
        e 376 90 3e 47
        e 451 90 3f 4f
        e 20 80 3e 00
        e 474 90 3c 4d
        e 34 80 3f 00
        e 796 80 3c 00
        e 153 90 3a 4f
        e 449 80 3a 00
        e 5 90 3e 57
        e 489 90 41 1b
        e 599 80 3e 00
        e 31 80 41 00
        e 77 90 41 4f
        e 6 90 3e 2d
        e 142 80 41 00
        e 3 80 3e 00
        e 82 90 41 4e
        e 8 90 3e 4a
        e 572 80 41 00
        e 36 80 3e 00
        e 95 90 3e 39
        e 0 90 41 4e
        e 179 80 41 00
        e 2 80 3e 00
        e 70 90 3e 35
        e 1 90 3a 48
        e 357 80 3a 00
        e 31 80 3e 00
        e 87 90 3a 45
        e 25 90 3e 1a
        e 307 80 3e 00
        e 77 80 3a 00
        e 62 90 39 3f
        e 6 90 3e 45
        e 377 80 3e 00
        e 85 90 3e 57
        e 256 90 3d 4b
        e 18 80 3e 00
        e 250 90 3e 48
        e 9 80 3d 00
        e 697 80 39 00
        e 18 80 3e 00
        e 117 90 3e 4e
        e 38 80 3e 00
        e 105 90 3e 62
        e 453 90 3f 5d
        e 22 80 3e 00
        e 461 90 3c 52
        e 28 80 3f 00
        e 810 80 3c 00
        e 116 90 3a 52
        e 454 80 3a 00
        e 12 90 3e 62
        e 415 80 3e 00
        e 61 90 3e 4f
        e 12 90 43 57
        e 536 80 3e 00
        e 91 80 43 00
        e 71 90 41 5a
        e 6 90 3e 55
        e 165 80 41 00
        e 61 80 3e 00
        e 22 90 3f 57
        e 9 90 43 5a
        e 399 80 3f 00
        e 2 80 43 00
        e 74 90 3f 57
        e 6 90 43 57
        e 355 80 3f 00
        e 42 80 43 00
        e 50 90 41 5f
        e 1 90 3e 55
        e 422 80 41 00
        e 28 80 3e 00
        e 38 90 3a 4e
        e 9 90 40 4b
        e 460 80 3a 00
        e 17 80 40 00
        e 22 90 3f 4f
        e 11 90 3c 55
        e 1172 80 3c 00
        e 29 80 3f 00
        e 210 90 3f 4f
        e 17 90 3c 4d
        e 247 80 3f 00
        e 45 80 3c 00
        e 180 90 41 62
        e 216 90 3f 5d
        e 11 90 46 5a
        e 28 80 41 00
        e 143 80 46 00
        e 1 80 3f 00
        e 68 90 46 5f
        e 14 90 3e 5f
        e 185 80 3e 00
        e 6 80 46 00
        e 41 90 42 62
        e 3 90 3c 55
        e 162 80 42 00
        e 38 80 3c 00
        e 45 90 46 5f
        e 6 90 41 5a
        e 394 80 46 00
        e 87 90 3f 62
        e 1 90 39 65
        e 30 80 41 00
        e 385 80 39 00
        e 14 80 3f 00
        e 36 90 41 5d
        e 6 90 3e 4e
        e 3 90 3a 65
        e 1524 80 41 00
        e 1 80 3e 00
        e 0 80 3a 00
        E 418 b0 7b 00
        GUID {A11EC7F3-7A47-6147-AFF1-02969398FAFE}
        IGNTEMPO 0 120 4 4
        SRCCOLOR 224
        VELLANE -1 86 6
        CFGEDITVIEW 8508.353448 132.741584 49 14 0 0 0 0 0 0.5
        KEYSNAP 0
        TRACKSEL 252 0 0 ""
        EVTFILTER 0 -1 -1 -1 -1 0 0 0 0 -1 -1 -1 -1 0 -1 0 -1 -1
        CFGEDIT 1 0 0 0 0 0 1 0 1 1 1 0.25 381 116 1280 633 0 0 2 3 0 0 0 0 0 -1 0 0 1 64
      >
    >
  >
  <TRACK {9E2CAE92-CCC1-1F4A-BCF6-93DCFE473BDF}
    NAME "16th pulse (mix w/ send?)"
    PEAKCOL 16576
    BEAT -1
    AUTOMODE 0
    VOLPAN 0.3981071705535 0 -1 -1 1
    MUTESOLO 0 0 0
    IPHASE 0
    ISBUS 0 0
    BUSCOMP 0 0
    SHOWINMIX 1 0.6667 0.5 1 0.5 0 0 0
    FREEMODE 0
    SEL 0
    REC 0 0 0 0 0 0 0
    VU 2
    TRACKHEIGHT 146 0
    INQ 0 0 0 0.5 100 0 0 100
    NCHAN 2
    FX 1
    TRACKID {9E2CAE92-CCC1-1F4A-BCF6-93DCFE473BDF}
    PERF 0
    MIDIOUT -1
    MAINSEND 1 0
    <FXCHAIN
      WNDRECT 36 359 724 387
      SHOW 0
      LASTSEL 0
      DOCKED 0
      BYPASS 0 0 0
      <VST "VSTi: chipsounds (Plogue Art et Technologie, Inc)" chipsounds.vst 0 "" 1347176271
        T0dMUO5e7f4AAAAABAAAAAEAAAAAAAAAAgAAAAAAAAAEAAAAAAAAAAgAAAAAAAAAFAQAAAEAAAAAABAA
        Q0VHUIsaAAB4nO1ZXY+bOBR9n19h8bT7ULDNV5CSqZLMpIrUbEeb7HPlEJdB5avYTKf99WsgDJBkjDNptV11/BIwx9fn3mubc8n47WMcgQeaszBNJhrSoQbeXl+Np3lI
        1uSBdh45EGvXV0C08ZpyHiYBA18KEoX8m3iqgSBKtyS6SyNxa2INMJ5TEgtYfRuTx3XVM42i1F/NJpqNRPdqebP8UPBVuqOVFVLwNCZcTLmOUj7RBB/miyeeU5r0SURE
        HwJvAC3n1pkf7bvnNOE0n2gObKhsiqSaHeqwahowGv7CNAh3lfWExLQ0qYO7Iqdgfh9mxnp5Yzj2CIE//tqs539qYEuSz0uBRxB6GvDvSZLQqBqeVf6ONMCPZsu2H3OS
        BML6G/TUyUUXy1JGq9FxwesL9vVjRJjw19rHuOK5ImHS8HwgUUGrDPWd6QPRE/DI6z4QqwJNVaClCrRVgY4q0FUFjlSBnioQQWWkcm6QcnKQcnaQcnrQUH7uSE5ipUXU
        Iodmb5HuwFJvkb3QW54tg3bj5GEptEsVW1ICZ3DtLihkSgPQdcv1pNDukrKQFNrNlSV1yzV7EZAFy+0Gy5FbtZWD5XY3PhpJCfR3tAw66lo1pQRGnjLU62YLSbOFrDYH
        CA/tAw+2lp1BbLsQ8CAWKyfCg+r71oPOGXZHZ2C9M06EM5wTKTAHwBuSB5TvJYKfxvpdlAYF1Ut1pL9ffNALRnPYeWNXo+YFExrmhnAC+LesTAk2HZEgFn4XN1bpeiOq
        xHw02YWkvtyJIeKiaYv6B8Mf2/ouGrWP5zqNfien/xZ0aS7U3Zqy0gWdcZr9Lmnf5GEQ0Hwt9DZNfJoPuo1cXL7tarddr+M2PuU2OuBZHbfuAuKFCMTtyD18Ds25u/AU
        HEbQUsa+IGhjo6wiDgsKdFlBgZqCArcFBbqwosCvFcVrRfF/qSj6HiHHcVVqDw/a1ceE4doDu5ZTCpUfWnvYUqg7lM9n9LwtV969PEmLn55IN10pgW6mMJZCh/bSi5T3
        yzWydYZGHtacP18jD+v0/0wj/1qy90gAHLTbgefwlIuvslfq9GWiD5WntpLqW+wbnJV3pepDNpy5i9mRJ88ruUYhOuIlYNtT2yxjOf9le0/zPWhzeKr3uaaqUm8/faI+
        P/74PY23YZnmQ1nafC5/98+yGUB8Hj7Q5dO3+fr+tv1WTyMxBd1tyLZ8mXdPoJwyylc0KUDIGjivqMqXHuD0UUBmhDGhgAm/n2jGNMui0K/+JmBGPVCI6DBjaZHsRE81
        FzMkZo16CQPR739mRmldJ2KrZwfn5hFrdJL1NM9oEISEpy3hKMwuINyxaJSmLmH3XEwFg5jm5CeEdc8+FeB6jgP6Y0MsquursdH80XR99S9sDYqN
        AAAQAAAA
      >
      FLOATPOS 409 269 871 509
      FXID {DC79668B-30D1-964C-A162-F245DBE294B0}
      WAK 0
      BYPASS 1 0 0
      <VST "VST: 8-Bit Shaper (Xfer Records)" 8BitShaper.vst 0 "" 1148539762
        clN1RO5e7f4CAAAAAQAAAAAAAAACAAAAAAAAAAQAAAABAAAAAAAAAAIAAAAAAAAABAAAAAAAAAAIAAAAAAAAADQCAAABAAAAAAAQAA==
        ZmaGP20MlT7dQQw/AAAAPyUA//8AAIA/L1VzZXJzL3MXAAAAMAAAABkAAAAaAAAAGgAAABoAAAAbAAAAGwAAABwAAAAcAAAAHAAAAB0AAAAdAAAAHgAAAB4AAAAfAAAA
        HwAAACAAAAAgAAAAIAAAACEAAAAhAAAAIQAAACIAAAAiAAAAIgAAACMAAAAjAAAAIwAAACQAAAAkAAAAJAAAACUAAAAlAAAAKAAAACgAAAApAAAAKQAAACoAAAA1AAAA
        KgAAACoAAAA2AAAAKgAAACoAAAAqAAAAKgAAACoAAAAqAAAAKgAAACsAAAArAAAAOQAAAC0AAAA0AAAAOgAAAC0AAAAtAAAAPAAAAC4AAAAuAAAALwAAADAAAAAwAAAA
        MQAAADEAAAAxAAAAMgAAADMAAAAzAAAAMwAAADcAAAA3AAAANwAAADgAAAA4AAAAOAAAADkAAAA5AAAAOQAAADoAAAA6AAAAOgAAADoAAAA6AAAAOwAAADsAAAA7AAAA
        PAAAADsAAAA7AAAAOwAAADwAAAA8AAAAPAAAADwAAAA9AAAAPQAAAD0AAAA9AAAAPQAAAD4AAAA+AAAAPwAAAEkAAABAAAAAQAAAAEgAAABAAAAAQQAAAEIAAABCAAAA
        QgAAAEMAAABDAAAAQwAAAEQAAABEAAAARQAAAE0AAABGAAAARwAAAEYAAABHAAAASAAAAEgAAABJAAAATwAAAAAAgD+rqqo+q6qqPh0Fwz6OAm0/
        AEluaXQgMQAQAAAA
      >
      PRESETNAME "Init 1"
      FLOATPOS 466 36 278 389
      FXID {00D11DB8-4935-E54F-8346-64C18117B3D9}
      WAK 0
    >
    <ITEM
      POSITION 0
      SNAPOFFS 0
      LENGTH 34.5
      LOOP 1
      ALLTAKES 0
      FADEIN 1 0 0 1 0 0
      FADEOUT 1 0 0 1 0 0
      MUTE 0
      SEL 0
      YPOS 0.485969 0.05
      IGUID {6006FC65-5DFB-7642-A69F-E3B0F86616B5}
      IID 4
      NAME "tuba(s) - National_Anthems_-_Slovenia.mid"
      VOLPAN 1 0 1 -1
      SOFFS 0 0
      PLAYRATE 1 1 0 -1 0 0.0025
      CHANMODE 0
      TAKECOLOR 26173599 B
      GUID {300027A7-501F-5E4F-A67D-D0B332B54391}
      <SOURCE MIDI
        HASDATA 1 480 QN
        POOLEDEVTS {DF32E06B-6BF7-D545-855B-604B550041DB}
        <X 0 0
          /wN0dWJhKHMp
        >
        <X 0 0
          /wRTb3VuZCBDYW52YXM=
        >
        e 0 90 29 73
        e 441 80 29 00
        e 39 90 2e 73 -25
        e 239 80 2e 00 -25
        e 121 90 2e 6a -53
        e 120 90 2d 73 -37
        e 2 80 2e 00 -53
        e 159 80 2d 00 -37
        e 79 90 2d 6f -41
        e 171 80 2d 00 -41
        e 69 90 2b 6a -39
        e 438 80 2b 00 -39
        e 42 90 2d 6f -22
        e 138 80 2d 00 -22
        e 102 90 2d 6a -15
        e 158 80 2d 00 -15
        e 82 90 29 6f -2
        e 291 80 29 00 -2
        e 69 90 29 6d 2
        e 89 80 29 00 2
        e 31 90 2b 65 5
        e 136 80 2b 00 5
        e 104 90 2b 6a -13
        e 161 80 2b 00 -13
        e 79 90 26 6f -10
        e 406 80 26 00 -10
        e 74 90 27 73 -13
        e 365 80 27 00 -13
        e 115 90 29 77 -7
        e 1208 80 29 00 -7
        e 232 90 29 73 -14
        e 320 80 29 00 -14
        e 160 90 22 6f -8
        e 631 80 22 00 -8
        e 89 90 22 73 -15
        e 181 80 22 00 -15
        e 59 90 21 73 -24
        e 429 80 21 00 -24
        e 51 90 22 77 -13
        e 463 80 22 00 -13
        e 17 90 1d 73 -17
        e 872 80 1d 00 -17
        e 88 90 1d 73 -48
        e 960 90 24 73 -2
        e 41 80 1d 00 -48
        e 862 80 24 00 -2
        e 57 90 24 6a 7
        e 401 80 24 00 7
        e 79 90 24 6a 1
        e 416 80 24 00 1
        e 64 90 1d 6f -9
        e 438 80 1d 00 -9
        e 42 90 24 6d -7
        e 423 80 24 00 -7
        e 57 90 29 77 -1
        e 540 80 29 00 -1
        e 1380 90 29 73 -18
        e 167 80 29 00 -18
        e 73 90 2b 65 -16
        e 137 80 2b 00 -16
        e 103 90 2d 73 -11
        e 143 80 2d 00 -11
        e 97 90 29 73 -18
        e 179 80 29 00 -18
        e 61 90 22 73 -13
        e 756 80 22 00 -13
        e 204 90 29 77 -18
        e 158 80 29 00 -18
        e 82 90 2b 65 -30
        e 154 80 2b 00 -30
        e 86 90 29 6d -31
        e 143 80 29 00 -31
        e 97 90 2e 6a -29
        e 165 80 2e 00 -29
        e 75 90 26 73 -19
        e 803 80 26 00 -19
        e 157 90 2b 6a -22
        e 810 80 2b 00 -22
        e 150 90 21 77 -5
        e 385 80 21 00 -5
        e 95 90 21 7b -4
        e 474 80 21 00 -4
        e 6 90 26 73 8
        e 632 80 26 00 8
        e 1288 90 29 77 -11
        e 166 80 29 00 -11
        e 74 90 2b 65 -22
        e 149 80 2b 00 -22
        e 91 90 2d 73 -18
        e 157 80 2d 00 -18
        e 83 90 29 73 -25
        e 136 80 29 00 -25
        e 104 90 2e 6f -7
        e 345 80 2e 00 -7
        e 135 90 2d 73 -19
        e 409 80 2d 00 -19
        e 71 90 2b 6d -27
        e 400 80 2b 00 -27
        e 80 90 29 73 -29
        e 419 80 29 00 -29
        e 61 90 27 73 -8
        e 410 80 27 00 -8
        e 70 90 27 6f -8
        e 393 80 27 00 -8
        e 87 90 26 6f -14
        e 378 80 26 00 -14
        e 102 90 25 73 -35
        e 400 80 25 00 -35
        e 80 90 24 6f -32
        e 1286 80 24 00 -32
        e 154 90 22 77 -21
        e 476 80 22 00 -21
        e 4 90 2d 6f -26
        e 192 80 2d 00 -26
        e 48 90 2b 6d -22
        e 159 80 2b 00 -22
        e 81 90 29 73 -28
        e 150 80 29 00 -28
        e 90 90 27 6f -48
        e 172 80 27 00 -48
        e 68 90 26 6f -32
        e 399 80 26 00 -32
        e 81 90 24 6f -47
        e 469 80 24 00 -47
        e 11 90 22 77 -32
        e 1500 80 22 00 -32
        E 420 b0 7b 00
        GUID {DB99DB4A-05AF-E847-96C4-063C15DC5B6D}
        IGNTEMPO 0 120 4 4
        SRCCOLOR 222
        VELLANE -1 86 6
        CFGEDITVIEW 5393.851878 66.895881 80 12 0 0 0 0 0 0.5
        KEYSNAP 0
        TRACKSEL 252 0 0 ""
        EVTFILTER 0 -1 -1 -1 -1 0 0 0 0 -1 -1 -1 -1 0 -1 0 -1 -1
        CFGEDIT 1 0 0 0 0 0 1 0 1 1 1 0.25 397 132 1280 633 0 0 2 3 0 0 0 0 0 -1 0 0 1 64
      >
      TAKE
      NAME "tuba(s) - National_Anthems_-_Slovenia.mid"
      TAKEVOLPAN 0 1 -1
      SOFFS 0 0
      PLAYRATE 1 1 0 -1 0 0.0025
      CHANMODE 0
      GUID {08884354-A9DB-2844-A7A4-C76AC40198DE}
      <SOURCE MIDI
        HASDATA 1 480 QN
        POOLEDEVTS {AF9D8395-AFCF-D040-B72B-2D0684E1BC4C}
        <X 0 0
          /wN0dWJhKHMp
        >
        <X 0 0
          /wRTb3VuZCBDYW52YXM=
        >
        E 0 93 29 73
        E 441 83 29 50
        E 14 93 2e 73
        E 239 83 2e 3e
        E 93 93 2e 6a
        E 122 83 2e 49
        E 14 93 2d 73
        E 161 83 2d 2e
        E 75 93 2d 6f
        E 171 83 2d 32
        E 71 93 2b 6a
        E 438 83 2b 33
        E 59 93 2d 6f
        E 138 83 2d 32
        E 109 93 2d 6a
        E 158 83 2d 3a
        E 95 93 29 6f
        E 291 83 29 4d
        E 73 93 29 6d
        E 89 83 29 47
        E 34 93 2b 65
        E 136 83 2b 3b
        E 86 93 2b 6a
        E 161 83 2b 0f
        E 82 93 26 6f
        E 406 83 26 33
        E 71 93 27 73
        E 365 83 27 4b
        E 121 93 29 77
        E 1208 83 29 49
        E 225 93 29 73
        E 320 83 29 1e
        E 166 93 22 6f
        E 631 83 22 49
        E 82 93 22 73
        E 181 83 22 28
        E 50 93 21 73
        E 429 83 21 0f
        E 62 93 22 77
        E 463 83 22 1b
        E 13 93 1d 73
        E 872 83 1d 45
        E 57 93 1d 73
        E 1001 83 1d 45
        E 5 93 24 73
        E 903 83 24 33
        E 66 93 24 6a
        E 401 83 24 35
        E 73 93 24 6a
        E 416 83 24 01
        E 54 93 1d 6f
        E 438 83 1d 33
        E 44 93 24 6d
        E 423 83 24 3c
        E 63 93 29 77
        E 540 83 29 5a
        E 1363 93 29 73
        E 167 83 29 38
        E 75 93 2b 65
        E 137 83 2b 26
        E 108 93 2d 73
        E 143 83 2d 17
        E 90 93 29 73
        E 179 83 29 29
        E 66 93 22 73
        E 756 83 22 01
        E 199 93 29 77
        E 158 83 29 42
        E 70 93 2b 65
        E 154 83 2b 21
        E 85 93 29 6d
        E 143 83 29 2d
        E 99 93 2e 6a
        E 165 83 2e 18
        E 85 93 26 73
        E 803 83 26 0a
        E 154 93 2b 6a
        E 810 83 2b 01
        E 167 93 21 77
        E 385 83 21 4b
        E 96 93 21 7b
        E 474 83 21 41
        E 18 93 26 73
        E 632 83 26 44
        E 1269 93 29 77
        E 166 83 29 38
        E 63 93 2b 65
        E 149 83 2b 30
        E 95 93 2d 73
        E 157 83 2d 1d
        E 76 93 29 73
        E 136 83 29 1e
        E 122 93 2e 6f
        E 345 83 2e 32
        E 123 93 2d 73
        E 409 83 2d 24
        E 63 93 2b 6d
        E 400 83 2b 1e
        E 78 93 29 73
        E 419 83 29 25
        E 82 93 27 73
        E 410 83 27 4a
        E 70 93 27 6f
        E 393 83 27 3d
        E 81 93 26 6f
        E 378 83 26 34
        E 81 93 25 73
        E 400 83 25 2c
        E 83 93 24 6f
        E 1286 83 24 21
        E 165 93 22 77
        E 475 93 2d 6f
        E 1 83 22 52
        E 191 83 2d 26
        E 52 93 2b 6d
        E 159 83 2b 28
        E 75 93 29 73
        E 150 83 29 2e
        E 70 93 27 6f
        E 172 83 27 2f
        E 84 93 26 6f
        E 399 83 26 29
        E 66 93 24 6f
        E 469 83 24 0b
        E 26 93 22 77
        E 1500 83 22 66
        E 452 b0 7b 00
        GUID {339BAD54-B275-2E49-888B-3815858B5E00}
        IGNTEMPO 0 120 4 4
        SRCCOLOR 241
        VELLANE -1 86 6
      >
    >
    <ITEM
      POSITION 0
      SNAPOFFS 0
      LENGTH 34.5
      LOOP 1
      ALLTAKES 0
      FADEIN 1 0 0 1 0 0
      FADEOUT 1 0 0 1 0 0
      MUTE 1
      SEL 0
      YPOS 0.809949 0.05
      IGUID {2F0539AE-7539-DC4B-B243-5BBA08A1F8EB}
      IID 6
      NAME "strings (mid) - National_Anthems_-_Slovenia.mid"
      VOLPAN 1 0 1 -1
      SOFFS 0 0
      PLAYRATE 1 1 0 -1 0 0.0025
      CHANMODE 0
      GUID {BE761C20-3B61-B648-90B7-6878EE433504}
      <SOURCE MIDI
        HASDATA 1 480 QN
        POOLEDEVTS {A1CCA857-AC6D-4B42-A830-F4371A6B665D}
        <X 0 0
          /wNzdHJpbmdzIChtaWQp
        >
        <X 0 0
          /wRTb3VuZCBDYW52YXM=
        >
        e 0 90 41 7f
        e 3 90 35 7f
        e 438 80 35 00
        e 13 90 3a 7f
        e 4 90 46 7f
        e 15 80 41 00
        e 163 80 3a 00
        e 31 80 46 00
        e 87 90 46 7f
        e 3 90 3a 7f
        e 126 80 3a 00
        e 37 80 46 00
        e 2 90 39 7f
        e 8 90 45 7f
        e 109 80 39 00
        e 30 80 45 00
        e 83 90 39 7f
        e 12 90 45 7f
        e 178 80 39 00
        e 35 80 45 00
        e 17 90 37 7f
        e 11 90 43 7f
        e 448 80 37 00
        e 13 90 39 7f
        e 4 90 45 7f
        e 12 80 43 00
        e 120 80 39 00
        e 25 80 45 00
        e 80 90 39 7f
        e 9 90 45 7f
        e 148 80 39 00
        e 96 90 35 7f
        e 2 90 41 7f
        e 9 80 45 00
        e 244 80 35 00
        e 18 80 41 00
        e 65 90 35 7f
        e 17 90 41 7f
        e 116 80 35 00
        e 15 80 41 00
        e 11 90 43 7f
        e 1 90 37 7f
        e 118 80 37 00
        e 10 80 43 00
        e 93 90 37 7f
        e 19 90 43 7f
        e 229 80 37 00
        e 0 80 43 00
        e 15 90 32 7f
        e 9 90 3e 7f
        e 453 80 32 00
        e 8 90 33 7f
        e 4 90 3f 7f
        e 26 80 3e 00
        e 462 90 41 7f
        e 3 90 35 7f
        e 4 80 3f 00
        e 21 80 33 00
        e 1206 80 35 00
        e 16 80 41 00
        e 197 90 41 7f
        e 315 80 41 00
        e 146 90 41 7f
        e 6 90 3e 7f
        e 607 80 41 00
        e 27 80 3e 00
        e 73 90 41 7f
        e 11 90 3e 7f
        e 148 80 3e 00
        e 11 80 41 00
        e 72 90 41 7f
        e 21 90 3c 7f
        e 390 80 41 00
        e 10 80 3c 00
        e 61 90 3e 7f
        e 18 90 41 7f
        e 327 80 41 00
        e 30 80 3e 00
        e 118 90 46 7f
        e 10 90 3e 7f
        e 423 80 46 00
        e 2 80 3e 00
        e 12 90 3c 7f
        e 3 90 45 7f
        e 458 80 3c 00
        e 29 80 45 00
        e 1 90 3a 7f
        e 4 90 43 7f
        e 443 80 3a 00
        e 24 80 43 00
        e 8 90 39 7f
        e 1 90 41 7f
        e 326 80 39 00
        e 28 80 41 00
        e 127 90 40 7f
        e 1 90 3c 7f
        e 263 90 3a 7f
        e 9 80 3c 00
        e 199 80 3a 00
        e 45 90 39 7f
        e 228 80 39 00
        e 12 90 3a 7f
        e 135 80 40 00
        e 105 90 3c 7f
        e 6 80 3a 00
        e 4 90 40 7f
        e 373 80 40 00
        e 91 80 3c 00
        e 6 90 3a 7f
        e 26 90 40 7f
        e 418 80 3a 00
        e 36 90 3c 7f
        e 8 80 40 00
        e 2 90 39 7f
        e 1529 80 39 00
        e 4 80 3c 00
        e 376 90 3e 7f
        e 451 90 3f 7f
        e 20 80 3e 00
        e 474 90 3c 7f
        e 34 80 3f 00
        e 796 80 3c 00
        e 153 90 3a 7f
        e 449 80 3a 00
        e 5 90 3e 7f
        e 489 90 41 7f
        e 599 80 3e 00
        e 31 80 41 00
        e 77 90 41 7f
        e 6 90 3e 7f
        e 142 80 41 00
        e 3 80 3e 00
        e 82 90 41 7f
        e 8 90 3e 7f
        e 572 80 41 00
        e 36 80 3e 00
        e 95 90 3e 7f
        e 0 90 41 7f
        e 179 80 41 00
        e 2 80 3e 00
        e 70 90 3e 7f
        e 1 90 3a 7f
        e 357 80 3a 00
        e 31 80 3e 00
        e 87 90 3a 7f
        e 25 90 3e 7f
        e 307 80 3e 00
        e 77 80 3a 00
        e 62 90 39 7f
        e 6 90 3e 7f
        e 377 80 3e 00
        e 85 90 3e 7f
        e 256 90 3d 7f
        e 18 80 3e 00
        e 250 90 3e 7f
        e 9 80 3d 00
        e 697 80 39 00
        e 18 80 3e 00
        e 117 90 3e 7f
        e 38 80 3e 00
        e 105 90 3e 7f
        e 453 90 3f 7f
        e 22 80 3e 00
        e 461 90 3c 7f
        e 28 80 3f 00
        e 810 80 3c 00
        e 116 90 3a 7f
        e 454 80 3a 00
        e 12 90 3e 7f
        e 415 80 3e 00
        e 61 90 3e 7f
        e 12 90 43 7f
        e 536 80 3e 00
        e 91 80 43 00
        e 71 90 41 7f
        e 6 90 3e 7f
        e 165 80 41 00
        e 61 80 3e 00
        e 22 90 3f 7f
        e 9 90 43 7f
        e 399 80 3f 00
        e 2 80 43 00
        e 74 90 3f 7f
        e 6 90 43 7f
        e 355 80 3f 00
        e 42 80 43 00
        e 50 90 41 7f
        e 1 90 3e 7f
        e 422 80 41 00
        e 28 80 3e 00
        e 38 90 3a 7f
        e 9 90 40 7f
        e 460 80 3a 00
        e 17 80 40 00
        e 22 90 3f 7f
        e 11 90 3c 7f
        e 1172 80 3c 00
        e 29 80 3f 00
        e 210 90 3f 7f
        e 17 90 3c 7f
        e 247 80 3f 00
        e 45 80 3c 00
        e 180 90 41 7f
        e 216 90 3f 7f
        e 11 90 46 7f
        e 28 80 41 00
        e 143 80 46 00
        e 1 80 3f 00
        e 68 90 46 7f
        e 14 90 3e 7f
        e 185 80 3e 00
        e 6 80 46 00
        e 41 90 42 7f
        e 3 90 3c 7f
        e 162 80 42 00
        e 38 80 3c 00
        e 45 90 46 7f
        e 6 90 41 7f
        e 394 80 46 00
        e 87 90 3f 7f
        e 1 90 39 7f
        e 30 80 41 00
        e 385 80 39 00
        e 14 80 3f 00
        e 36 90 41 7f
        e 6 90 3e 7f
        e 3 90 3a 7f
        e 1524 80 41 00
        e 1 80 3e 00
        e 0 80 3a 00
        E 418 b0 7b 00
        GUID {A11EC7F3-7A47-6147-AFF1-02969398FAFE}
        IGNTEMPO 0 120 4 4
        SRCCOLOR 224
        VELLANE -1 86 6
        CFGEDITVIEW -3517.707294 10.891627 49 14 0 0 0 0 0 0.5
        KEYSNAP 0
        TRACKSEL 252 0 0 ""
        EVTFILTER 0 -1 -1 -1 -1 0 0 0 0 -1 -1 -1 -1 0 -1 0 -1 -1
        CFGEDIT 1 0 0 0 0 0 1 0 1 1 1 0.25 381 116 1280 633 0 0 2 3 0 0 0 0 0 -1 0 0 1 64
      >
    >
    <ITEM
      POSITION 0
      SNAPOFFS 0
      LENGTH 34.5
      LOOP 1
      ALLTAKES 0
      FADEIN 1 0 0 1 0 0
      FADEOUT 1 0 0 1 0 0
      MUTE 0
      SEL 0
      YPOS 0.16199 0.05
      IGUID {D7453655-C9B6-CB4A-8C84-7CC5F5AFD0AC}
      IID 3
      NAME "trombone(s) - National_Anthems_-_Slovenia.mid"
      VOLPAN 1 0 1 -1
      SOFFS 0 0
      PLAYRATE 1 1 0 -1 0 0.0025
      CHANMODE 0
      TAKECOLOR 26173599 B
      GUID {7185A046-AF1D-8F48-A97B-E8456C1A0F64}
      <SOURCE MIDI
        HASDATA 1 480 QN
        POOLEDEVTS {C0FC0939-B63D-BA49-B1C0-98F3B4F54B30}
        <X 0 0
          /wN0cm9tYm9uZShzKQ==
        >
        <X 0 0
          /wRTb3VuZCBDYW52YXM=
        >
        e 0 90 35 6f
        e 460 80 35 00
        e 20 90 3a 6d -13
        e 240 80 3a 00 -11
        e 0 90 3a 6a 58
        e 118 80 3a 00 58
        e 122 90 39 6f -42
        e 151 80 39 00 -42
        e 89 90 39 6f -40
        e 173 80 39 00 -40
        e 67 90 37 65 -36
        e 443 80 37 00 -36
        e 37 90 39 6a -10
        e 128 80 39 00 -10
        e 112 90 39 67 -17
        e 150 80 39 00 -17
        e 90 90 35 6f -8
        e 268 80 35 00 -8
        e 92 90 35 6a -34
        e 108 80 35 00 -34
        e 12 90 37 62 -14
        e 134 80 37 00 -14
        e 106 90 37 5f -22
        e 135 80 37 00 -22
        e 105 90 32 67 -13
        e 422 80 32 00 -13
        e 58 90 33 6f -9
        e 387 80 33 00 -9
        e 93 90 35 73 -13
        e 1221 80 35 00 -13
        e 219 90 35 6f -12
        e 388 80 35 00 -12
        e 92 90 3a 65 -25
        e 608 80 3a 00 -25
        e 112 90 3a 6a -13
        e 150 80 3a 00 -13
        e 90 90 39 6a -24
        e 436 80 39 00 -24
        e 44 90 3a 67 -12
        e 443 80 3a 00 -12
        e 37 90 35 6d -33
        e 898 80 35 00 -33
        e 62 90 35 6a -21
        e 919 80 35 00 -21
        e 41 90 30 65 -12
        e 902 80 30 00 -12
        e 58 90 30 62 8
        e 378 80 30 00 8
        e 102 90 30 5f -13
        e 425 80 30 00 -13
        e 55 90 29 6a 13
        e 383 80 29 00 13
        e 97 90 30 6a -5
        e 398 80 30 00 -5
        e 82 90 35 65 -15
        e 547 80 35 00 -15
        e 1373 90 35 6f -24
        e 155 80 35 00 -24
        e 85 90 37 62 -27
        e 174 80 37 00 -27
        e 66 90 39 65 -19
        e 146 80 39 00 -19
        e 94 90 35 65 -24
        e 183 80 35 00 -24
        e 57 90 2e 6a -9
        e 702 80 2e 00 -9
        e 258 90 35 6f -32
        e 155 80 35 00 -32
        e 85 90 37 5f -36
        e 160 80 37 00 -36
        e 80 90 35 67 -45
        e 164 80 35 00 -45
        e 76 90 3a 62 -40
        e 183 80 3a 00 -40
        e 57 90 32 67 -13
        e 772 80 32 00 -13
        e 188 90 37 5a -22
        e 769 80 37 00 -22
        e 191 90 2d 67 -9
        e 362 80 2d 00 -9
        e 118 90 2d 65 -15
        e 430 80 2d 00 -15
        e 50 90 32 5d 3
        e 655 80 32 00 3
        e 1265 90 35 73 -3
        e 162 80 35 00 -3
        e 78 90 37 5f -22
        e 178 80 37 00 -22
        e 62 90 39 6a -20
        e 163 80 39 00 -20
        e 77 90 35 65 -26
        e 117 80 35 00 -26
        e 123 90 3a 6a -17
        e 354 80 3a 00 -17
        e 126 90 39 65 -17
        e 379 80 39 00 -17
        e 101 90 37 65 -35
        e 411 80 37 00 -35
        e 69 90 35 6f -13
        e 358 80 35 00 -13
        e 122 90 33 6f -14
        e 375 80 33 00 -14
        e 105 90 33 6f 8
        e 385 80 33 00 8
        e 95 90 32 6d -6
        e 363 80 32 00 -6
        e 117 90 31 6a -23
        e 407 80 31 00 -23
        e 73 90 30 65 -6
        e 1296 80 30 00 -6
        e 144 90 2e 6f -7
        e 420 80 2e 00 -7
        e 60 90 39 5f
        e 186 80 39 00
        e 54 90 37 57 -21
        e 165 80 37 00 -21
        e 75 90 35 6f -29
        e 142 80 35 00 -29
        e 98 90 33 6a -36
        e 186 80 33 00 -36
        e 54 90 32 6d -27
        e 393 80 32 00 -27
        e 87 90 30 65 -26
        e 376 80 30 00 -26
        e 104 90 2e 6a -39
        e 1522 80 2e 00 -39
        E 398 b0 7b 00
        GUID {F0165281-59D4-1742-BA34-5505A6E635F7}
        IGNTEMPO 0 120 4 4
        SRCCOLOR 221
        VELLANE -1 86 6
        CFGEDITVIEW 12152.097142 102.811308 68 12 0 0 0 0 0 0.5
        KEYSNAP 0
        TRACKSEL 252 0 0 ""
        EVTFILTER 0 -1 -1 -1 -1 0 0 0 0 -1 -1 -1 -1 0 -1 0 -1 -1
        CFGEDIT 1 0 0 0 0 0 1 0 1 1 1 0.25 397 132 1280 633 0 0 2 3 0 0 0 0 0 -1 0 0 1 64
      >
      TAKE
      NAME "trombone(s) - National_Anthems_-_Slovenia.mid"
      TAKEVOLPAN 0 1 -1
      SOFFS 0 0
      PLAYRATE 1 1 0 -1 0 0.0025
      CHANMODE 0
      GUID {E1B0C7FD-4709-5A45-AA5E-A85D5DE73A2B}
      <SOURCE MIDI
        HASDATA 1 480 QN
        POOLEDEVTS {5BCC4B6C-D5A4-AB4D-92FE-F6D2C031D56B}
        <X 0 0
          /wN0cm9tYm9uZShzKQ==
        >
        <X 0 0
          /wRTb3VuZCBDYW52YXM=
        >
        E 0 92 35 6f
        E 460 82 35 3d
        E 7 92 3a 6d
        E 242 82 3a 43
        E 69 92 3a 6a
        E 118 82 3a 42
        E 22 92 39 6f
        E 151 82 39 30
        E 91 92 39 6f
        E 173 82 39 15
        E 71 92 37 65
        E 443 82 37 03
        E 63 92 39 6a
        E 128 82 39 33
        E 105 92 39 67
        E 150 82 39 29
        E 99 92 35 6f
        E 268 82 35 4d
        E 66 92 35 6a
        E 108 82 35 3e
        E 32 92 37 62
        E 134 82 37 31
        E 98 92 37 5f
        E 135 82 37 26
        E 114 92 32 67
        E 422 82 32 33
        E 62 92 33 6f
        E 387 82 33 28
        E 89 92 35 73
        E 1221 82 35 48
        E 220 92 35 6f
        E 388 82 35 01
        E 79 92 3a 65
        E 608 82 3a 3a
        E 124 92 3a 6a
        E 150 82 3a 2c
        E 79 92 39 6a
        E 436 82 39 0c
        E 56 92 3a 67
        E 443 82 3a 18
        E 16 92 35 6d
        E 898 82 35 3c
        E 74 92 35 6a
        E 919 82 35 36
        E 50 92 30 65
        E 902 82 30 3e
        E 78 92 30 62
        E 378 82 30 42
        E 81 92 30 5f
        E 425 82 30 26
        E 81 92 29 6a
        E 383 82 29 17
        E 79 92 30 6a
        E 398 82 30 2b
        E 72 92 35 65
        E 547 82 35 55
        E 1364 92 35 6f
        E 155 82 35 3a
        E 82 92 37 62
        E 174 82 37 01
        E 74 92 39 65
        E 146 82 39 27
        E 89 92 35 65
        E 183 82 35 01
        E 72 92 2e 6a
        E 702 82 2e 41
        E 235 92 35 6f
        E 155 82 35 21
        E 81 92 37 5f
        E 160 82 37 17
        E 71 92 35 67
        E 164 82 35 0f
        E 81 92 3a 62
        E 183 82 3a 16
        E 84 92 32 67
        E 772 82 32 01
        E 179 92 37 5a
        E 769 82 37 12
        E 204 92 2d 67
        E 362 82 2d 2b
        E 112 92 2d 65
        E 430 82 2d 04
        E 68 92 32 5d
        E 655 82 32 1c
        E 1259 92 35 73
        E 162 82 35 23
        E 59 92 37 5f
        E 178 82 37 01
        E 64 92 39 6a
        E 163 82 39 23
        E 71 92 35 65
        E 117 82 35 38
        E 132 92 3a 6a
        E 354 82 3a 2a
        E 126 92 39 65
        E 379 82 39 16
        E 83 92 37 65
        E 411 82 37 09
        E 91 92 35 6f
        E 358 82 35 1b
        E 121 92 33 6f
        E 375 82 33 20
        E 127 92 33 6f
        E 385 82 33 13
        E 81 92 32 6d
        E 363 82 32 01
        E 100 92 31 6a
        E 407 82 31 2c
        E 90 92 30 65
        E 1296 82 30 35
        E 143 92 2e 6f
        E 420 82 2e 22
        E 67 92 39 5f
        E 186 82 39 07
        E 33 92 37 57
        E 165 82 37 1d
        E 67 92 35 6f
        E 142 82 35 2a
        E 91 92 33 6a
        E 186 82 33 0d
        E 63 92 32 6d
        E 393 82 32 0d
        E 88 92 30 65
        E 376 82 30 01
        E 91 92 2e 6a
        E 1522 82 2e 62
        E 437 b0 7b 00
        GUID {DB1B9B95-429A-494B-954E-3CD5F05E0888}
        IGNTEMPO 0 120 4 4
        SRCCOLOR 240
        VELLANE -1 86 6
      >
    >
  >
  <TRACK {3CF13A00-0AFC-8542-AD98-73B6D91102DB}
    NAME "vst Plogue"
    PEAKCOL 26779488
    BEAT -1
    AUTOMODE 0
    VOLPAN 1 0 -1 -1 1
    MUTESOLO 0 0 0
    IPHASE 0
    ISBUS 0 0
    BUSCOMP 0 0
    SHOWINMIX 1 0.6667 0.5 1 0.5 0 0 0
    FREEMODE 0
    SEL 0
    REC 0 0 0 1 0 0 0
    VU 2
    TRACKHEIGHT 0 0
    INQ 0 0 0 0.5 100 0 0 100
    NCHAN 4
    FX 1
    TRACKID {3CF13A00-0AFC-8542-AD98-73B6D91102DB}
    PERF 0
    AUXRECV 7 0 1 0 0 0 0 0 0 -1:U 32 -1 ''
    AUXRECV 7 0 1 0 0 0 0 0 0 -1:U 96 -1 ''
    AUXRECV 8 0 1 0 0 0 0 0 0 -1:U 64 -1 ''
    AUXRECV 8 0 1 0 0 0 0 0 0 -1:U 128 -1 ''
    MIDIOUT -1
    MAINSEND 0 0
    <FXCHAIN
      SHOW 0
      LASTSEL 0
      DOCKED 0
      BYPASS 0 0 0
      <VST "VSTi: chipsounds (Multi) (Plogue Art et Technologie, Inc) (32 out)" "chipsounds Multi.vst" 0 "" 1347241807
        T0dNUO5e7f4AAAAAIAAAAAEAAAAAAAAAAgAAAAAAAAAEAAAAAAAAAAgAAAAAAAAAEAAAAAAAAAAgAAAAAAAAAEAAAAAAAAAAgAAAAAAAAAAAAQAAAAAAAAACAAAAAAAA
        AAQAAAAAAAAACAAAAAAAAAAQAAAAAAAAACAAAAAAAAAAQAAAAAAAAACAAAAAAAAAAAABAAAAAAAAAAIAAAAAAAAABAAAAAAAAAAIAAAAAAAAABAAAAAAAAAAIAAAAAAA
        AABAAAAAAAAAAIAAAAAAAAAAAAEAAAAAAAAAAgAAAAAAAAAEAAAAAAAAAAgAAAAAAAAAEAAAAAAAAAAgAAAAAAAAAEAAAAAAAAAAgAAAAADqBQAAAQAAAAAAEAA=
        Q0VHUAU/AAB4nO2bW3OjNhTH3/MpGJ7ahzWSuJkZJzu+xF3PNN1M7Z0+ZhRbcWi5uEikST99BZgYxViIkLSzDTwkIP850tER4icde/T5MQy0B5JQP47OdTgAuvb54mw0
        Tny8xA+k8pEDkH5xpvFjtCSM+dGWan+mOPDZE/9U17ZBfIuD6zjglybSNcoSgkMuKy5D/LjMS8ZBEK+vJue6DXnx1WK2+Jqyq3hDcis4ZXGIGa9yGcTsXOftoWuutazs
        BAeYF0Htk0ayqgd0HeyLpyRiJDnXHVC2ZJVGeeVgAPJD14yy+dyy5m9y4xEOSWZyoF2nCdGm9/7OWC5mhmMPofbDL6vl9Eddu8XRHwuuhwB4ura+x1FEgvz2Xe4ubxs7
        qm13e5PgaMutf4LPhYwX0V1MSX53mLLihP51E2DKMktFG/N2XmE/Ktv5gIOU5AESnRGF8Fl45LUoRKpCU1VoqQptVaGjKnRVhUNVoacqhEBZqRwbqBwcqBwdqBwe2BSf
        a5zgUGkQHZRNtR+U1VgObVuiFLre8mRSt9r30JTWbwlSqdXqAIVDqVQceTLpsGrVlPbV0FOWetXOgp5MCq1DXCGqj9cKJ1vC9pPnOg4H10G8Tckge20Mfp5/HaSUJKAy
        l+V3TVPKJ/cZZlhjTzt+J0Kmw0ND/b/5hZX1Ufm24fWRaOPj4nTDb+En5TEv/iHwtofoolH42NZp+EGcXiX+dkuSJX8Pk2hNkka3oYugV7ptuxW3UZ3bcO/1/iiu3fzc
        nLpzT3BiCsz5f9URefR/5Q6QhAPAktDMqQFlZPc/Gv8jI2Oml/gEu+ETrMGnYY9PPT59EHwSPYKO46qAlgfsfOHUDFrItRzgvDFo2VKXBNCyLSkSVZtqulKrTUP5VfSk
        wjlVgDr0AmoKLJ+bG6acHqB6gOoCUBDAtgSVP7ku74X55TFBFV3jmhOhYM65KtMOj6S8dFZnASDRwjuTWT2XoG5cYpVcAg9cYnXjEtDAJU0vlfZc0kA6PZfIO7znkrZc
        4iLLyh6jemXVIyjd/6h65EoJQvAIyjxyGx6LU5tK0j0dIUrcd5nUUm+AsKmUEQw8KW3hVnXkW1Lac6s9YEp3iiq019QAVxjS0s4SwNCRt7U6BByovFlnI5lU2CvzkDyw
        r2VIs1HbNJdXter7qx5wWthVH2Ee8Fo8ZC2cg1DwzpSGjsegOnvlWpm4qd96TO8xvROmI7Mtpucr4QLTAUKTyZEnx/A+yzEdgFpMrwV9eyranRSY7rqwWjovSqdi6f6Y
        qmjnJ/C/NdKb3ZAe/fuZWmWkbyD1fqtRKuyR/jvL1DYY7TO11c7qM7W1R08wfab2ldH/mJlaqxs+mTX4ZPf41OPTB8Gn7zBT27gh12dq+0ztvrE9QEmd7jO1qkdrLnGf
        uQQNtKIftd/wA7mLk5AaX3Cy0ZZP0fokmNjPqVqn48bOG9HI239vrIFvehr52DQiTU8JHkm/IS90E2cR5J1M5Qre2/IUqYAu8kyaMEikkCEkM+V7REgdiJB6SsptGn2v
        S5EK0XKkRCYMQEdq1VZvgJh6Nj3zJOZCs9pYR4qP70dv1Rxp0zcT3y9HOmyhVc+RelA9cLxX1UckFze9XE6mSE356gOBpndHD9M9THeBaWTbLWG6eD8U25Fg4s5V8qnl
        UeYyHb6Qt+2xLWY4K6UT1z62286CU5PpbWkBdrVgu10tWLOOFupLERrX5qvBy8y06gLk8u6OrNnx74DH4a2fDcuXC4691dFP3xblDXjN/AeyKH6lDMvry8OvlknAqyCb
        Fb7NRmp1xkwIJeyKRKnm0/J2ljdV/qhojDxyyYr/TROy0b74jPJFDmb357ox3u0Cf53/cpoahQW+TvJ3NE6jDS/JK6WGxL6xX4CNkx3Zbv2YGkJNA8znq92Lyf/IFdTK
        lRD/7rL7Zx++8YmQGpSHItoGONuoN27WCcGMGEsc7gJCjcvyE23uZ9dFBdODo2UdNLvFZvcv2z0yeBAvzkZG+RP3i7N/AC7zDPw=
        AAAQAAAA
      >
      FLOATPOS 275 269 871 509
      FXID {C804D762-B992-A540-81BF-3D6C0F7FF19B}
      WAK 0
    >
  >
  <TRACK {361291E9-E6AB-604E-AA43-746A4AF7FC9C}
    NAME "midi "
    PEAKCOL 16576
    BEAT -1
    AUTOMODE 0
    VOLPAN 1 0 -1 -1 1
    MUTESOLO 0 0 0
    IPHASE 0
    ISBUS 1 1
    BUSCOMP 1 0
    SHOWINMIX 1 0.6667 0.5 1 0.5 0 0 0
    FREEMODE 0
    SEL 0
    REC 0 0 0 0 0 0 0
    VU 2
    TRACKHEIGHT 0 0
    INQ 0 0 0 0.5 100 0 0 100
    NCHAN 2
    FX 1
    TRACKID {361291E9-E6AB-604E-AA43-746A4AF7FC9C}
    PERF 0
    MIDIOUT -1
    MAINSEND 1 0
  >
  <TRACK {2BB5EACD-C1BC-284E-92F6-33B7023B768F}
    NAME "ch1,3 (send)"
    PEAKCOL 16576
    BEAT -1
    AUTOMODE 0
    VOLPAN 1 0 -1 -1 1
    MUTESOLO 0 0 0
    IPHASE 0
    ISBUS 0 0
    BUSCOMP 0 0
    SHOWINMIX 1 0.6667 0.5 1 0.5 0 0 0
    FREEMODE 0
    SEL 0
    REC 0 0 0 0 0 0 0
    VU 2
    MIDICTL -1 1
    TRACKHEIGHT 173 0
    INQ 0 0 0 0.5 100 0 0 100
    NCHAN 2
    FX 1
    TRACKID {2BB5EACD-C1BC-284E-92F6-33B7023B768F}
    PERF 0
    MIDIOUT -1
    MAINSEND 1 0
    <FXCHAIN
      SHOW 0
      LASTSEL 0
      DOCKED 0
    >
    <ITEM
      POSITION 0
      SNAPOFFS 0
      LENGTH 34.5
      LOOP 1
      ALLTAKES 0
      FADEIN 1 0 0 1 0 0
      FADEOUT 1 0 0 1 0 0
      MUTE 0
      SEL 0
      YPOS 0 0.05
      IGUID {B5637295-306D-1646-A112-DF5E744FF880}
      IID 1
      NAME "trumpet(s) - National_Anthems_-_Slovenia.mid"
      VOLPAN 1 0 1 -1
      SOFFS 0 0
      PLAYRATE 1 1 0 -1 0 0.0025
      CHANMODE 0
      TAKECOLOR 26173599 B
      GUID {D3B92B60-0CD5-1046-870D-F76508EBA1EA}
      <SOURCE MIDI
        HASDATA 1 480 QN
        POOLEDEVTS {5C050C33-4345-764D-A235-9D4810131816}
        <X 0 0
          /wN0cnVtcGV0KHMp
        >
        <X 0 0
          /wRTb3VuZCBDYW52YXM=
        >
        e 0 90 41 67
        e 416 80 41 00
        e 64 90 46 6f -49
        e 302 80 46 00 -49
        e 58 90 46 6a -35
        e 99 80 46 00 -35
        e 21 90 45 6f -30
        e 177 80 45 00 -30
        e 63 90 45 65 -15
        e 166 80 45 00 -15
        e 74 90 43 6f -13
        e 425 80 43 00 -13
        e 55 90 45 65 -12
        e 181 80 45 00 -12
        e 59 90 45 62 -4
        e 204 80 45 00 -4
        e 36 90 41 6a 4
        e 272 80 41 00 4
        e 88 90 41 6a 5
        e 91 80 41 00 5
        e 29 90 43 6f -8
        e 161 80 43 00 -8
        e 79 90 43 6f -3
        e 143 80 43 00 -3
        e 97 90 3e 5f 5
        e 379 80 3e 00 5
        e 101 90 3f 6a -9
        e 403 80 3f 00 -9
        e 77 90 41 62 -9
        e 1306 80 41 00 -9
        e 134 90 41 6a 19
        e 446 80 41 00 19
        e 34 90 46 6d 8
        e 645 80 46 00 8
        e 75 90 46 6f -6
        e 174 80 46 00 -6
        e 66 90 48 6a 2
        e 400 80 48 00 2
        e 80 90 4a 6a -22
        e 408 80 4a 00 -22
        e 72 90 4a 6d -17
        e 480 90 48 65 -11
        e 24 80 4a 00 -17
        e 386 80 48 00 -11
        e 70 90 46 6f -5
        e 455 80 46 00 -5
        e 25 90 45 6a -6
        e 383 80 45 00 -6
        e 97 90 45 6d -10
        e 226 80 45 00 -10
        e 14 90 43 6f 8
        e 169 80 43 00 8
        e 71 90 42 6f
        e 173 80 42 00
        e 67 90 43 73 -3
        e 188 80 43 00 -3
        e 52 90 48 6f 5
        e 444 80 48 00 5
        e 36 90 46 73 5
        e 207 80 46 00 5
        e 33 90 43 73 -8
        e 168 80 43 00 -8
        e 72 90 41 6a -6
        e 1466 80 41 00 -6
        e 454 90 41 6d -24
        e 476 80 41 00 -24
        e 4 90 43 6f -32
        e 461 80 43 00 -32
        e 19 90 3f 6a
        e 862 80 3f 00
        e 98 90 3e 6d -2
        e 447 80 3e 00 -2
        e 33 90 41 6d -14
        e 472 80 41 00 -14
        e 8 90 46 6f -15
        e 579 80 46 00 -15
        e 141 90 46 6f -16
        e 219 80 46 00 -16
        e 21 90 45 6f -7
        e 633 80 45 00 -7
        e 87 90 45 6a -24
        e 223 80 45 00 -24
        e 17 90 43 6f -11
        e 423 80 43 00 -11
        e 57 90 43 6d -13
        e 428 80 43 00 -13
        e 52 90 41 6a -8
        e 465 80 41 00 -8
        e 15 90 40 65 -20
        e 480 90 41 6a -18
        e 18 80 40 00 -20
        e 658 80 41 00 -18
        e 284 90 41 6d 1
        e 465 80 41 00 1
        e 15 90 43 73 -4
        e 480 90 3f 6d 8
        e 11 80 43 00 -4
        e 812 80 3f 00 8
        e 137 90 3e 6d -11
        e 436 80 3e 00 -11
        e 44 90 41 6d -37
        e 480 90 46 6f -17
        e 38 80 41 00 -37
        e 577 80 46 00 -17
        e 105 90 46 6f -9
        e 192 80 46 00 -9
        e 48 90 46 6f 11
        e 375 80 46 00 11
        e 105 90 46 6f -29
        e 418 80 46 00 -29
        e 62 90 46 6f -37
        e 431 80 46 00 -37
        e 49 90 46 6d -30
        e 434 80 46 00 -30
        e 46 90 46 6f -17
        e 960 90 45 6a 21
        e 47 80 46 00 -17
        e 316 80 45 00 21
        e 117 90 43 73 -1
        e 444 80 43 00 -1
        e 36 90 41 65 -3
        e 240 90 4b 77 4
        e 57 80 41 00 -3
        e 94 80 4b 00 4
        e 89 90 4a 6a -21
        e 219 80 4a 00 -21
        e 21 90 48 6a -33
        e 230 80 48 00 -33
        e 10 90 4d 6f -19
        e 453 80 4d 00 -19
        e 27 90 45 6f -22
        e 445 80 45 00 -22
        e 35 90 46 73 -1
        e 1549 80 46 00 -1
        E 371 b0 7b 00
        GUID {6094CDCC-A280-C741-B52C-BCF9943F5DBF}
        IGNTEMPO 0 120 4 4
        SRCCOLOR 219
        VELLANE -1 86 6
        CFGEDITVIEW 8236.007334 191.14788 49 14 0 0 0 0 0 0.5
        KEYSNAP 0
        TRACKSEL 252 0 0 ""
        EVTFILTER 0 -1 -1 -1 -1 0 0 0 0 -1 -1 -1 -1 0 -1 0 -1 -1
        CFGEDIT 1 0 0 0 0 0 1 0 1 1 1 0.25 381 116 1280 633 0 0 2 3 0 0 0 0 0 -1 0 0 1 64
      >
      TAKE
      NAME "trumpet(s) - National_Anthems_-_Slovenia.mid"
      TAKEVOLPAN 0 1 -1
      SOFFS 0 0
      PLAYRATE 1 1 0 -1 0 0.0025
      CHANMODE 0
      GUID {F371C8D2-FDDE-A346-BA8D-D68649322F46}
      <SOURCE MIDI
        HASDATA 1 480 QN
        POOLEDEVTS {26B2C8BB-5BF3-AB4E-951B-B989737500D9}
        <X 0 0
          /wN0cnVtcGV0KHMp
        >
        <X 0 0
          /wRTb3VuZCBDYW52YXM=
        >
        E 0 90 41 67
        E 416 80 41 17
        E 15 90 46 6f
        E 302 80 46 39
        E 72 90 46 6a
        E 99 80 46 4d
        E 26 90 45 6f
        E 177 80 45 3e
        E 78 90 45 65
        E 166 80 45 35
        E 76 90 43 6f
        E 425 80 43 38
        E 56 90 45 65
        E 181 80 45 34
        E 67 90 45 62
        E 204 80 45 16
        E 44 90 41 6a
        E 272 80 41 30
        E 89 90 41 6a
        E 91 80 41 3b
        E 16 90 43 6f
        E 161 80 43 35
        E 84 90 43 6f
        E 143 80 43 2b
        E 105 90 3e 5f
        E 379 80 3e 01
        E 87 90 3f 6a
        E 403 80 3f 15
        E 77 90 41 62
        E 1306 80 41 01
        E 162 90 41 6a
        E 446 80 41 0b
        E 23 90 46 6d
        E 645 80 46 44
        E 61 90 46 6f
        E 174 80 46 3e
        E 74 90 48 6a
        E 400 80 48 2c
        E 56 90 4a 6a
        E 408 80 4a 38
        E 77 90 4a 6d
        E 486 90 48 65
        E 18 80 4a 3e
        E 392 80 48 2d
        E 76 90 46 6f
        E 455 80 46 25
        E 24 90 45 6a
        E 383 80 45 38
        E 93 90 45 6d
        E 226 80 45 24
        E 32 90 43 6f
        E 169 80 43 30
        E 63 90 42 6f
        E 173 80 42 35
        E 64 90 43 73
        E 188 80 43 1f
        E 60 90 48 6f
        E 444 80 48 12
        E 36 90 46 73
        E 207 80 46 3a
        E 20 90 43 73
        E 168 80 43 35
        E 74 90 41 6a
        E 1466 80 41 34
        E 436 90 41 6d
        E 472 90 43 6f
        E 4 80 41 3e
        E 457 80 43 01
        E 51 90 3f 6a
        E 862 80 3f 01
        E 96 90 3e 6d
        E 447 80 3e 01
        E 21 90 41 6d
        E 472 80 41 45
        E 7 90 46 6f
        E 579 80 46 3e
        E 140 90 46 6f
        E 219 80 46 40
        E 30 90 45 6f
        E 633 80 45 31
        E 70 90 45 6a
        E 223 80 45 0d
        E 30 90 43 6f
        E 423 80 43 42
        E 55 90 43 6d
        E 428 80 43 20
        E 57 90 41 6a
        E 465 80 41 43
        E 3 90 40 65
        E 482 90 41 6a
        E 16 80 40 29
        E 660 80 41 3a
        E 303 90 41 6d
        E 465 80 41 4a
        E 10 90 43 73
        E 491 80 43 49
        E 1 90 3f 6d
        E 823 80 3f 01
        E 118 90 3e 6d
        E 436 80 3e 01
        E 18 90 41 6d
        E 500 90 46 6f
        E 18 80 41 3c
        E 597 80 46 36
        E 113 90 46 6f
        E 192 80 46 41
        E 68 90 46 6f
        E 375 80 46 45
        E 65 90 46 6f
        E 418 80 46 49
        E 54 90 46 6f
        E 431 80 46 43
        E 56 90 46 6d
        E 434 80 46 44
        E 59 90 46 6f
        E 998 90 45 6a
        E 9 80 46 49
        E 354 80 45 1c
        E 95 90 43 73
        E 444 80 43 29
        E 34 90 41 65
        E 247 90 4b 77
        E 50 80 41 2e
        E 101 80 4b 34
        E 64 90 4a 6a
        E 219 80 4a 30
        E 9 90 48 6a
        E 230 80 48 1e
        E 24 90 4d 6f
        E 453 80 4d 0d
        E 24 90 45 6f
        E 445 80 45 23
        E 56 90 46 73
        E 1549 80 46 69
        E 372 b0 7b 00
        GUID {7173A6D8-CE05-094C-A09B-36290EFEB3D6}
        IGNTEMPO 0 120 4 4
        SRCCOLOR 238
        VELLANE -1 86 6
        CFGEDITVIEW 0 0 49 14 0 0 0 0 0 0.5
        KEYSNAP 0
        TRACKSEL 252 0 0 ""
        EVTFILTER 0 -1 -1 -1 -1 0 0 0 0 -1 -1 -1 -1 0 -1 0 -1 -1
        CFGEDIT 1 0 0 0 0 0 1 0 1 1 1 0.25 381 116 1280 633 0 0 2 3 0 0 0 0 0 -1 0 0 1 64
      >
    >
  >
  <TRACK {3C494A2B-9670-9740-AD22-E42CC5065FE1}
    NAME "ch2,4 (send)"
    PEAKCOL 16576
    BEAT -1
    AUTOMODE 0
    VOLPAN 1 0 -1 -1 1
    MUTESOLO 0 0 0
    IPHASE 0
    ISBUS 2 -1
    BUSCOMP 0 0
    SHOWINMIX 1 0.6667 0.5 1 0.5 0 0 0
    FREEMODE 0
    SEL 0
    REC 0 0 0 0 0 0 0
    VU 2
    MIDICTL -1 1
    TRACKHEIGHT 162 0
    INQ 0 0 0 0.5 100 0 0 100
    NCHAN 2
    FX 1
    TRACKID {3C494A2B-9670-9740-AD22-E42CC5065FE1}
    PERF 0
    MIDIOUT -1
    MAINSEND 1 0
    <FXCHAIN
      WNDRECT 32 359 724 387
      SHOW 0
      LASTSEL 0
      DOCKED 0
    >
    <ITEM
      POSITION 0
      SNAPOFFS 0
      LENGTH 34.5
      LOOP 1
      ALLTAKES 0
      FADEIN 1 0 0 1 0 0
      FADEOUT 1 0 0 1 0 0
      MUTE 0
      SEL 0
      YPOS 0.32398 0.05
      IGUID {D0181984-8BCF-E040-9F94-D243E477A045}
      IID 2
      NAME "fr. horn(s) - National_Anthems_-_Slovenia.mid"
      VOLPAN 1 0 1 -1
      SOFFS 0 0
      PLAYRATE 1 1 0 -1 0 0.0025
      CHANMODE 0
      TAKECOLOR 26173599 B
      GUID {0EB39E79-8E30-F742-AD11-93C4D44C8F0F}
      <SOURCE MIDI
        HASDATA 1 480 QN
        POOLEDEVTS {866B837E-8357-194F-8716-C46F7E405749}
        <X 0 0
          /wNmci4gaG9ybihzKQ==
        >
        <X 0 0
          /wRTb3VuZCBDYW52YXM=
        >
        e 0 91 41 5a
        e 436 81 41 00
        e 44 91 46 5d -21
        e 238 81 46 00 -21
        e 2 91 46 5d 43
        e 138 81 46 00 43
        e 102 91 45 55 -43
        e 153 81 45 00 -43
        e 87 91 45 55 -31
        e 165 81 45 00 -31
        e 75 91 43 62 -25
        e 384 81 43 00 -25
        e 96 91 45 57 -40
        e 148 81 45 00 -40
        e 92 91 45 4b -18
        e 183 81 45 00 -18
        e 57 91 41 55 -12
        e 274 81 41 00 -12
        e 86 91 41 5f -26
        e 105 81 41 00 -26
        e 15 91 43 65 -16
        e 128 81 43 00 -16
        e 112 91 43 6a -16
        e 196 81 43 00 -16
        e 44 91 3e 57 5
        e 370 81 3e 00 5
        e 110 91 3f 55 -10
        e 407 81 3f 00 -10
        e 73 91 41 5a -11
        e 1209 81 41 00 -11
        e 231 91 41 5d 10
        e 288 81 41 00 10
        e 192 91 3e 4a -9
        e 0 91 41 4e -13
        e 590 81 3e 00 -9
        e 8 81 41 00 -13
        e 122 91 3e 4f -23
        e 0 91 41 4f -27
        e 133 81 3e 00 -23
        e 17 81 41 00 -27
        e 90 91 3c 4e -17
        e 0 91 41 57 -16
        e 367 81 41 00 -16
        e 8 81 3c 00 -17
        e 105 91 3e 5a -18
        e 0 91 41 57 -26
        e 311 81 3e 00 -18
        e 30 81 41 00 -26
        e 139 91 3e 55 -37
        e 0 91 46 5a -52
        e 417 81 46 00 -52
        e 38 81 3e 00 -37
        e 25 91 3c 52 -37
        e 0 91 45 57 -33
        e 413 81 3c 00 -37
        e 36 81 45 00 -33
        e 31 91 3a 57 -35
        e 0 91 43 57 -27
        e 449 81 3a 00 -35
        e 6 81 43 00 -27
        e 25 91 39 5a -28
        e 0 91 41 57 -33
        e 411 81 39 00 -28
        e 60 81 41 00 -33
        e 9 91 3c 57
        e 0 91 40 55
        e 240 91 3a 5d -25
        e 8 81 3c 00
        e 207 81 3a 00 -25
        e 25 91 39 4f -35
        e 208 81 39 00 -35
        e 32 91 3a 57 -55
        e 132 81 40 00
        e 108 91 3c 4f -14
        e 0 91 40 4a -13
        e 30 81 3a 00 -55
        e 342 81 40 00 -13
        e 87 81 3c 00 -14
        e 21 91 3a 4e -38
        e 0 91 40 47 -23
        e 467 81 3a 00 -38
        e 13 91 39 4e -18
        e 0 91 3c 35 2
        e 4 81 40 00 -23
        e 1489 81 3c 00 2
        e 22 81 39 00 -18
        e 405 91 3e 57 -8
        e 445 81 3e 00 -8
        e 35 91 3f 52 -47
        e 480 91 3c 4f -22
        e 43 81 3f 00 -47
        e 820 81 3c 00 -22
        e 97 91 3a 5a -5
        e 476 81 3a 00 -5
        e 4 91 3e 4f
        e 390 81 3e 00
        e 90 91 3e 4f -9
        e 0 91 41 42 2
        e 587 81 3e 00 -9
        e 5 81 41 00 2
        e 128 91 3e 4f -40
        e 0 91 41 4e -38
        e 136 81 3e 00 -40
        e 20 81 41 00 -38
        e 84 91 3e 55 -22
        e 0 91 41 4f -16
        e 658 81 41 00 -16
        e 1 81 3e 00 -22
        e 61 91 3e 55 -18
        e 0 91 41 47 -15
        e 125 81 3e 00 -18
        e 89 81 41 00 -15
        e 26 91 3a 55 -30
        e 0 91 3e 4f -29
        e 383 81 3e 00 -29
        e 7 81 3a 00 -30
        e 90 91 3a 52 -42
        e 0 91 3e 55 -25
        e 330 81 3e 00 -25
        e 20 81 3a 00 -42
        e 130 91 39 4f -31
        e 0 91 3e 42 -12
        e 391 81 39 00 -31
        e 15 81 3e 00 -12
        e 74 91 39 52 -15
        e 0 91 3e 4f -7
        e 240 91 3d 4d -5
        e 14 81 3e 00 -7
        e 157 81 39 00 -15
        e 69 91 39 4e 21
        e 0 91 3e 4e 30
        e 42 81 3d 00 -5
        e 706 81 3e 00 30
        e 10 81 39 00 21
        e 202 91 3e 55 12
        e 466 81 3e 00 12
        e 14 91 3f 4f -9
        e 480 91 3c 4f -3
        e 21 81 3f 00 -9
        e 785 81 3c 00 -3
        e 154 91 3a 67 -4
        e 480 81 3a 00 -4
        e 0 91 3e 4e 1
        e 369 81 3e 00 1
        e 111 91 3e 55 -36
        e 0 91 43 55 -33
        e 575 81 3e 00 -36
        e 105 81 43 00 -33
        e 40 91 3e 48 -53
        e 0 91 41 57 -35
        e 188 81 41 00 -35
        e 23 81 3e 00 -53
        e 29 91 3f 5a -26
        e 0 91 43 5a -13
        e 390 81 3f 00 -26
        e 13 81 43 00 -13
        e 77 91 3f 4e -25
        e 0 91 43 5f -13
        e 343 81 3f 00 -25
        e 50 81 43 00 -13
        e 87 91 3e 57 -47
        e 0 91 41 57 -50
        e 411 81 3e 00 -47
        e 60 81 41 00 -50
        e 9 91 3a 5d -43
        e 0 91 40 4e -32
        e 480 91 3c 5a -19
        e 0 91 3f 4d -13
        e 8 81 40 00 -32
        e 9 81 3a 00 -43
        e 1152 81 3f 00 -13
        e 40 81 3c 00 -19
        e 231 91 3c 4e -1
        e 0 91 3f 55 -7
        e 343 81 3c 00 -1
        e 68 81 3f 00 -7
        e 69 91 41 5f
        e 240 81 41 00
        e 0 91 3f 6a -11
        e 0 91 46 67 -11
        e 134 81 46 00 -11
        e 74 81 3f 00 -11
        e 32 91 3e 4b -24
        e 0 91 46 67 -24
        e 205 81 46 00 -24
        e 14 81 3e 00 -24
        e 21 91 3c 4e -28
        e 0 91 42 5d -45
        e 187 81 42 00 -45
        e 53 91 41 4e -21
        e 0 91 46 5f -46
        e 14 81 3c 00 -28
        e 436 81 46 00 -46
        e 26 81 41 00 -21
        e 4 91 39 4d -47
        e 0 91 3f 65 -57
        e 459 81 39 00 -47
        e 19 81 3f 00 -57
        e 2 91 3a 47 -47
        e 0 91 3e 57 -60
        e 0 91 41 55 -49
        e 1502 81 3a 00 -47
        e 39 81 41 00 -49
        e 19 81 3e 00 -60
        E 360 b0 7b 00
        GUID {697F723D-3718-C44C-B592-CCEBAE577448}
        IGNTEMPO 0 120 4 4
        SRCCOLOR 220
        VELLANE -1 86 6
        CFGEDITVIEW 2393.536808 11.624433 56 16 0 0 0 0 0 0.5
        KEYSNAP 0
        TRACKSEL 252 0 0 ""
        EVTFILTER 0 -1 -1 -1 -1 0 0 0 0 -1 -1 -1 -1 0 -1 0 -1 -1
        CFGEDIT 1 0 0 0 0 0 1 0 1 1 1 0.25 381 116 1280 633 0 0 2 3 0 0 0 0 0 -1 0 0 1 64
      >
      TAKE
      NAME "fr. horn(s) - National_Anthems_-_Slovenia.mid"
      TAKEVOLPAN 0 1 -1
      SOFFS 0 0
      PLAYRATE 1 1 0 -1 0 0.0025
      CHANMODE 0
      GUID {405C626F-3CE0-E643-A07C-CFBF75643B7D}
      <SOURCE MIDI
        HASDATA 1 480 QN
        POOLEDEVTS {CFB2C503-67A3-094E-A128-190EE8063BF8}
        <X 0 0
          /wNmci4gaG9ybihzKQ==
        >
        <X 0 0
          /wRTb3VuZCBDYW52YXM=
        >
        E 0 91 41 5a
        E 436 81 41 1a
        E 23 91 46 5d
        E 238 81 46 3e
        E 66 91 46 5d
        E 138 81 46 3f
        E 16 91 45 55
        E 153 81 45 1a
        E 99 91 45 55
        E 165 81 45 0b
        E 81 91 43 62
        E 384 81 43 01
        E 81 91 45 57
        E 148 81 45 1f
        E 114 91 45 4b
        E 183 81 45 01
        E 63 91 41 55
        E 274 81 41 3a
        E 72 91 41 5f
        E 105 81 41 27
        E 25 91 43 65
        E 128 81 43 2e
        E 112 91 43 6a
        E 196 81 43 0c
        E 65 91 3e 57
        E 370 81 3e 01
        E 95 91 3f 55
        E 407 81 3f 1a
        E 72 91 41 5a
        E 1209 81 41 2e
        E 252 91 41 5d
        E 288 81 41 2a
        E 169 91 41 4e
        E 4 91 3e 4a
        E 590 81 3e 23
        E 4 81 41 37
        E 108 91 41 4f
        E 4 91 3e 4f
        E 133 81 3e 24
        E 13 81 41 30
        E 100 91 3c 4e
        E 1 91 41 57
        E 367 81 41 1e
        E 7 81 3c 24
        E 96 91 41 57
        E 8 91 3e 5a
        E 311 81 3e 01
        E 22 81 41 1d
        E 113 91 46 5a
        E 15 91 3e 55
        E 402 81 46 2c
        E 53 81 3e 01
        E 25 91 3c 52
        E 4 91 45 57
        E 409 81 3c 0c
        E 40 81 45 06
        E 29 91 3a 57
        E 8 91 43 57
        E 441 81 3a 06
        E 14 81 43 3e
        E 19 91 41 57
        E 5 91 39 5a
        E 411 81 39 01
        E 55 81 41 24
        E 42 91 3c 57
        E 0 91 40 55
        E 215 91 3a 5d
        E 33 81 3c 2a
        E 182 81 3a 1d
        E 15 91 39 4f
        E 208 81 39 13
        E 12 91 3a 57
        E 187 81 40 29
        E 83 81 3a 33
        E 11 91 3c 4f
        E 1 91 40 4a
        E 372 81 40 1a
        E 83 91 3a 4e
        E 3 81 3c 1c
        E 12 91 40 47
        E 452 81 3a 1a
        E 32 81 40 39
        E 1 91 39 4e
        E 20 91 3c 35
        E 1493 81 3c 45
        E 2 81 39 4a
        E 415 91 3e 57
        E 441 91 3f 52
        E 4 81 3e 01
        E 501 91 3c 4f
        E 18 81 3f 01
        E 845 81 3c 01
        E 114 91 3a 5a
        E 476 81 3a 2a
        E 9 91 3e 4f
        E 390 81 3e 27
        E 81 91 3e 4f
        E 11 91 41 42
        E 576 81 3e 23
        E 16 81 41 35
        E 86 91 3e 4f
        E 2 91 41 4e
        E 134 81 3e 35
        E 22 81 41 27
        E 100 91 3e 55
        E 6 91 41 4f
        E 653 81 3e 31
        E 5 81 41 2b
        E 60 91 3e 55
        E 3 91 41 47
        E 122 81 3e 25
        E 92 81 41 36
        E 11 91 3a 55
        E 1 91 3e 4f
        E 383 81 3e 1d
        E 6 81 3a 05
        E 78 91 3a 52
        E 17 91 3e 55
        E 330 81 3e 01
        E 3 81 3a 01
        E 141 91 39 4f
        E 19 91 3e 42
        E 372 81 39 2d
        E 34 81 3e 27
        E 71 91 39 52
        E 8 91 3e 4f
        E 242 91 3d 4d
        E 12 81 3e 24
        E 149 81 39 1c
        E 105 91 39 4e
        E 9 91 3e 4e
        E 7 81 3d 1f
        E 741 81 3e 29
        E 1 81 39 43
        E 193 91 3e 55
        E 459 91 3f 4f
        E 7 81 3e 28
        E 479 91 3c 4f
        E 15 81 3f 3a
        E 791 81 3c 0a
        E 153 91 3a 67
        E 480 81 3a 2e
        E 5 91 3e 4e
        E 369 81 3e 29
        E 74 91 3e 55
        E 3 91 43 55
        E 572 81 3e 2d
        E 108 81 43 01
        E 20 91 3e 48
        E 18 91 41 57
        E 188 81 41 0f
        E 5 81 3e 01
        E 56 91 3f 5a
        E 13 91 43 5a
        E 377 81 3f 2e
        E 26 81 43 30
        E 65 91 3f 4e
        E 12 91 43 5f
        E 331 81 3f 32
        E 62 81 43 09
        E 50 91 41 57
        E 3 91 3e 57
        E 411 81 3e 01
        E 57 81 41 33
        E 16 91 3a 5d
        E 11 91 40 4e
        E 486 81 3a 38
        E 2 81 40 01
        E 5 91 3c 5a
        E 6 91 3f 4d
        E 1169 81 3f 25
        E 34 81 3c 20
        E 243 91 3f 55
        E 6 91 3c 4e
        E 343 81 3c 2a
        E 62 81 3f 08
        E 76 91 41 5f
        E 229 91 3f 6a
        E 0 91 46 67
        E 11 81 41 3c
        E 123 81 46 3d
        E 74 81 3f 35
        E 19 91 3e 4b
        E 0 91 46 67
        E 205 81 46 2b
        E 14 81 3e 39
        E 0 91 42 5d
        E 17 91 3c 4e
        E 170 81 42 2f
        E 52 91 46 5f
        E 25 91 41 4e
        E 7 81 3c 24
        E 418 81 46 3f
        E 19 91 3f 65
        E 10 91 39 4d
        E 22 81 41 43
        E 437 81 39 0a
        E 8 91 3e 57
        E 1 81 3f 27
        E 10 91 41 55
        E 2 91 3a 47
        E 1502 81 3a 52
        E 37 81 41 4d
        E 8 81 3e 4c
        E 420 b0 7b 00
        GUID {3C32F4C1-17AD-844A-9D8E-285F0DCC229F}
        IGNTEMPO 0 120 4 4
        SRCCOLOR 239
        VELLANE -1 86 6
        CFGEDITVIEW 0 0 49 14 0 0 0 0 0 0.5
        KEYSNAP 0
        TRACKSEL 252 0 0 ""
        EVTFILTER 0 -1 -1 -1 -1 0 0 0 0 -1 -1 -1 -1 0 -1 0 -1 -1
        CFGEDIT 1 0 0 0 0 0 1 0 1 1 1 0.25 381 116 1280 633 0 0 2 3 0 0 0 0 0 -1 0 0 1 64
      >
    >
  >
  <TRACK {97C14EE2-C273-C940-9D68-54C062C3CBCA}
    NAME ChipFront
    PEAKCOL 16576
    BEAT -1
    AUTOMODE 0
    VOLPAN 0.31622776601684 0 -1 -1 1
    MUTESOLO 0 0 0
    IPHASE 0
    ISBUS 0 0
    BUSCOMP 0 0
    SHOWINMIX 1 0.6667 0.5 1 0.5 0 0 0
    FREEMODE 0
    SEL 0
    REC 0 0 0 0 0 0 0
    VU 2
    TRACKHEIGHT 0 0
    INQ 0 0 0 0.5 100 0 0 100
    NCHAN 2
    FX 1
    TRACKID {97C14EE2-C273-C940-9D68-54C062C3CBCA}
    PERF 0
    AUXRECV 5 0 1 0 0 0 0 0 0 -1:U 0 -1 ''
    MIDIOUT -1
    MAINSEND 1 0
    <FXCHAIN
      SHOW 0
      LASTSEL 0
      DOCKED 0
      BYPASS 0 0 0
      <VST "VST: FabFilter Volcano 2 (SC) (FabFilter)" "FabFilter Volcano 2 (SC).vst" 0 "" 1180054068
        NDJWRu9e7f4EAAAAAQAAAAAAAAACAAAAAAAAAAQAAAAAAAAACAAAAAAAAAAEAAAAAQAAAAAAAAACAAAAAAAAAAQAAAAAAAAACAAAAAAAAADcCwAAAAAAAAAAEAA=
        776t3g3wrd4AAAA/AAAAPwAAAD8AAAA/AACAPwAAAAAAAAA/q6qqPq2+aD8AAAA/ig0yPM3MzD0AAAAAAAAAAAAAAAAAAIA/AACAP0Isdj8AAAA/bbDgPZqZGT8AAAAA
        AAAAAOev3zwAAIA/AAAAAAAAgD8AAAA/AAAAAJqZGT8AAAAAAAAAAAAAAAAAAIA/AAAAAAAAgD8AAAA/AAAAAJqZGT8AAAAAAAAAAAAAAAAAAIA/AAAAAKuqqj4ATrI+
        AAAAPwAAAADBykk/XXRRPwAAAACJiIg9AACAP6oXiD4AAAAAAAAAAAAAAAAAAAAAAACAPwAAAAAAAAA/AAAAAAAAAAAAAAAAAAAAPwAAAAAAAAAAAAAAAAAAAD8AAAAA
        AAAAAAAAAAAAAAA/AAAAAAAAAAAAAAAAAAAAPwAAAAAAAAAAAAAAAAAAAD8AAAAAAAAAAAAAAAAAAAA/AAAAAAAAAAAAAAAAAAAAPwAAAAAAAAAAAAAAAAAAAD8AAAAA
        AAAAAAAAAAAAAAA/AAAAAAAAAAAAAAAAAAAAPwAAAAAAAAAAAAAAAAAAAD8AAAAAAAAAAAAAAAAAAAA/AAAAAAAAAAAAAAAAAAAAPwAAAAAAAAAAAAAAAHwZED4AAAA/
        KKO3PQAAgD8AAAAAAAAAAImIiD3y0iU/AAAAAAAAgD8AAAAAdGjRPQAAAAAAAIA/AAAAAAAAAD8AAAAAAAAAAAAAAAAAAAA/AAAAAAAAAAAAAAAAAAAAPwAAAAAAAAAA
        AAAAAAAAAD8AAAAAAAAAAAAAAAAAAAA/AAAAAAAAAAAAAAAAAAAAPwAAAAAAAAAAAAAAAAAAAD8AAAAAAAAAAAAAAAAAAAA/AAAAAAAAAAAAAAAAAAAAPwAAAAAAAAAA
        AAAAAAAAAD8AAAAAAAAAAAAAAAAAAAA/AAAAAAAAAAAAAAAAAAAAPwAAAAAAAAAAAAAAAAAAAD8AAAAAAAAAAAAAAAAAAAA/AAAAAAAAAAAAAAAAvvR9PgAAAD8AAAA/
        AAAAPwAAAAAAAAAAiYiIPQAAAD8AAAAAAAAAAAAAAAAAAAA/AAAAAAAAAAAAAAAAAAAAPwAAAAAAAAAAAAAAAAAAAD8AAAAAAAAAAAAAAAAAAAA/AAAAAAAAAAAAAAAA
        AAAAPwAAAAAAAAAAAAAAAAAAAD8AAAAAAAAAAAAAAAAAAAA/AAAAAAAAAAAAAAAAAAAAPwAAAAAAAAAAAAAAAAAAAD8AAAAAAAAAAAAAAAAAAAA/AAAAAAAAAAAAAAAA
        AAAAPwAAAAAAAAAAAAAAAAAAAD8AAAAAAAAAAAAAAAAAAAA/AAAAAAAAAAAAAAAAAAAAPwAAAAAAAAAAAAAAAAAAAD8AAAAAAAAAAAAAAAC+9H0+AAAAPwAAAD8AAAA/
        AAAAAAAAAACJiIg9AAAAPwAAAAAAAAAAAAAAAAAAAD8AAAAAAAAAAAAAAAAAAAA/AAAAAAAAAAAAAAAAAAAAPwAAAAAAAAAAAAAAAAAAAD8AAAAAAAAAAAAAAAAAAAA/
        AAAAAAAAAAAAAAAAAAAAPwAAAAAAAAAAAAAAAAAAAD8AAAAAAAAAAAAAAAAAAAA/AAAAAAAAAAAAAAAAAAAAPwAAAAAAAAAAAAAAAAAAAD8AAAAAAAAAAAAAAAAAAAA/
        AAAAAAAAAAAAAAAAAAAAPwAAAAAAAAAAAAAAAAAAAD8AAAAAAAAAAAAAAAAAAAA/AAAAAAAAAAAAAAAAAAAAPwAAAAAAAAAAAAAAAL70fT4AAAA/AAAAPwAAAD8AAAAA
        AAAAAImIiD0AAAA/AAAAAAAAAAAAAAAAAAAAPwAAAAAAAAAAAAAAAAAAAD8AAAAAAAAAAAAAAAAAAAA/AAAAAAAAAAAAAAAAAAAAPwAAAAAAAAAAAAAAAAAAAD8AAAAA
        AAAAAAAAAAAAAAA/AAAAAAAAAAAAAAAAAAAAPwAAAAAAAAAAAAAAAAAAAD8AAAAAAAAAAAAAAAAAAAA/AAAAAAAAAAAAAAAAAAAAPwAAAAAAAAAAAAAAAAAAAD8AAAAA
        AAAAAAAAAAAAAAA/AAAAAAAAAAAAAAAAAAAAPwAAAAAAAAAAAAAAAAAAAD8AAAAAAAAAAAAAAAAAAAA/AAAAAAAAAAAAAAAAvvR9PgAAAD8AAAA/AAAAPwAAAAAAAAAA
        iYiIPQAAAD8AAAAAAAAAAAAAAAAAAAA/AAAAAAAAAAAAAAAAAAAAPwAAAAAAAAAAAAAAAAAAAD8AAAAAAAAAAAAAAAAAAAA/AAAAAAAAAAAAAAAAAAAAPwAAAAAAAAAA
        AAAAAAAAAD8AAAAAAAAAAAAAAAAAAAA/AAAAAAAAAAAAAAAAAAAAPwAAAAAAAAAAAAAAAAAAAD8AAAAAAAAAAAAAAAAAAAA/AAAAAAAAAAAAAAAAAAAAPwAAAAAAAAAA
        AAAAAAAAAD8AAAAAAAAAAAAAAAAAAAA/AAAAAAAAAAAAAAAAAAAAPwAAAAAAAAAAAAAAAAAAAD8AAAAAAAAAAAAAAAAAAAAAmpmZPgAAAAAAAAAAAAAAAAAAgD8AAAAA
        mpmZPgAAAAAAAAAAAAAAAAAAgD8AAAAAmpmZPgAAAAAAAAAAAAAAAAAAgD8AAAAAmpmZPgAAAAAAAAAAAAAAAAAAgD8AAAAAmpmZPgAAAAAAAAAAAAAAAAAAgD8AAAAA
        mpmZPgAAAAAAAAAAAAAAAAAAgD8AAAAAAAAAAAAAAAAAAAAAAAAAAAAAAAAAAAAAAAAAAAAAAAAAAAAAAAAAAAAAAAAAAAAAAAAAAAAAAAAAAAAAAAAAAAAAAAAAAAAA
        AAAAAAAAAAAAAAAAAAAAAAAAAAAAAAAAAAAAAAAAAAAAAAAAAAAAAAAAAAAAAAAAAAAAAAAAAAAAAAAAAAAAAAAAAAAAAAAAAAAAAKuqKj3ZiZ09gShWPgAAAAAAAAAA
        v+eWPQAAAAAAAAA/AAAAAAAAAAAAAAAAAAAAAAAAAD8AAAAAAAAAAAAAAAAAAAAAAAAAPwAAAAAAAAAAAAAAAAAAAAAAAAAAAAAAAAAAAAAAAAAAAAAAAAAAAAAAAAAA
        AAAAAAAAAAAAAAAAAAAAAAAAAAAAAAAAAAAAAAAAAAAAAAAAAAAAAAAAAAAAAAAAAAAAAAAAAAAAAAAAAAAAAAAAAAAAAAAAAAAAAAAAAAAAAAAAAAAAAAAAAAAAAAAA
        AAAAAAAAAAAAAAAAAAAAAAAAAAAAAAAAAAAAAAAAAAAAAAAAAAAAAAAAAAAAAAAAAAAAAAAAAAAAAAAAAAAAAAAAAAAAAAAAAAAAAAAAAAAAAAAAAAAAAAAAAAAAAAAA
        AAAAAAAAAAAAAAAAAAAAAAAAAAAAAAAAAAAAAAAAAAAAAAAAAAAAAAAAAAAAAAAAAAAAAAAAAAAAAAAAAAAAAAAAAAAAAAAAAAAAAAAAAAAAAAAAAAAAAAAAAAAAAAAA
        AAAAAAAAAAAAAAAAAAAAAAAAAAAAAAAAAAAAAAAAAAAAAAAAAAAAAAAAAAAAAAAAAAAAAAAAAAAAAAAAAAAAAAAAAAAAAAAAAAAAAAAAAAAAAAAAAAAAPwAAAD8AAAA/
        AAAAPwAAAD8AAAA/AAAAPwAAAD8AAAAAAAAAAAAAAAAAAAAAAAAAAAAAAAAAAAAAAAAAAAAAAAAAAAAAAAAAAAAAAAAAAAAAAAAAAAAAAAAAAAAAAAAAAAAAAAAAAAAA
        AAAAAAAAAAAAAAAAAAAAAAAAAAAAAAAAAAAAAAAAAAAAAAAAAAAAAAAAAAAAAAAAAAAAAAAAAAAAAAAAAAAAAAAAAAAAAAAAAAAAAAAAAAAAAAAAAAAAAAAAAAAAAAAA
        AAAAAAAAAAAAAAAAAAAAAAAAAAAAAAAAAAAAAAAAAAAAAAAAAAAAAAAAAAAAAAAAAAAAAAAAAAAAAAAAAAAAAAAAAAAAAAAAAAAAAAAAAAAAAAAAAAAAAAAAAAAAAAAA
        AAAAAAAAAAAAAAAAAAAAAAAAAAAAAAAAAAAAAAAAAAAAAAAAAAAAAAAAAAAAAAAAAAAAAAAAAAAAAAAA
        Q2hpcEZyb250AENoaXBGcm9udAAQAAAA
      >
      PRESETNAME ChipFront
      FLOATPOS 36 32 641 529
      FXID {4C5A6810-F3ED-0645-A06D-6758F70CB097}
      WAK 0
    >
  >
  <TRACK {1B564899-9ACC-8C4B-8FBF-925A5A247A13}
    NAME ChipSide
    PEAKCOL 16576
    BEAT -1
    AUTOMODE 0
    VOLPAN 0.31622776601684 0 -1 -1 1
    MUTESOLO 0 0 0
    IPHASE 0
    ISBUS 0 0
    BUSCOMP 0 0
    SHOWINMIX 1 0.6667 0.5 1 0.5 0 0 0
    FREEMODE 0
    SEL 0
    REC 0 0 0 0 0 0 0
    VU 2
    TRACKHEIGHT 0 0
    INQ 0 0 0 0.5 100 0 0 100
    NCHAN 2
    FX 1
    TRACKID {1B564899-9ACC-8C4B-8FBF-925A5A247A13}
    PERF 0
    AUXRECV 5 0 1.03113579563571 0 0 0 0 2 0 -1:U 0 -1 ''
    MIDIOUT -1
    MAINSEND 1 0
    <FXCHAIN
      SHOW 0
      LASTSEL 0
      DOCKED 0
      BYPASS 0 0 0
      <VST "VST: FabFilter Volcano 2 (SC) (FabFilter)" "FabFilter Volcano 2 (SC).vst" 0 "" 1180054068
        NDJWRu9e7f4EAAAAAQAAAAAAAAACAAAAAAAAAAQAAAAAAAAACAAAAAAAAAAIAAAAAQAAAAAAAAACAAAAAAAAAAQAAAAAAAAACAAAAAAAAAAQAAAAAAAAACAAAAAAAAAA
        QAAAAAAAAACAAAAAAAAAANwLAAAAAAAAAAAQAA==
        776t3g3wrd4AAAA/AAAAPwAAAD8AAAA/AACAPwAAAAAAAIA/q6qqPsplFD8AAAA/TxqgPc3MzD0AAAAAAAAAAEKGIj8AAIA/AACAP0Isdj8AAAA/bbDgPZqZGT8AAAAA
        AAAAAOev3zwAAIA/AAAAAAAAgD8AAAA/AAAAAJqZGT8AAAAAAAAAAAAAAAAAAIA/AAAAAAAAgD8AAAA/AAAAAJqZGT8AAAAAAAAAAAAAAAAAAIA/AAAAAKuqqj6CdAA9
        EObJPZgn+j4AAIA/AAAAAAAAAACJiAg+AACAP7PDtD4AAIA/AAAAAAAAAAAAAAAAq6qqPgAAAACeFR0/AAAAAAAAgD8AAAAAAAAAPwAAAAAAAAAAAAAAAAAAAD8AAAAA
        AAAAAAAAAAAAAAA/AAAAAAAAAAAAAAAAAAAAPwAAAAAAAAAAAAAAAAAAAD8AAAAAAAAAAAAAAAAAAAA/AAAAAAAAAAAAAAAAAAAAPwAAAAAAAAAAAAAAAAAAAD8AAAAA
        AAAAAAAAAAAAAAA/AAAAAAAAAAAAAAAAAAAAPwAAAAAAAAAAAAAAAAAAAD8AAAAAAAAAAAAAAAAAAAA/AAAAAAAAAAAAAAAAAAAAPwAAAAAAAAAAAAAAAHwZED4AAAA/
        KKO3PQAAgD8AAAAAAAAAAImIiD3y0iU/AAAAAAAAgD8AAAAAdGjRPQAAAAAAAIA/AAAAAAAAAD8AAAAAAAAAAAAAAAAAAAA/AAAAAAAAAAAAAAAAAAAAPwAAAAAAAAAA
        AAAAAAAAAD8AAAAAAAAAAAAAAAAAAAA/AAAAAAAAAAAAAAAAAAAAPwAAAAAAAAAAAAAAAAAAAD8AAAAAAAAAAAAAAAAAAAA/AAAAAAAAAAAAAAAAAAAAPwAAAAAAAAAA
        AAAAAAAAAD8AAAAAAAAAAAAAAAAAAAA/AAAAAAAAAAAAAAAAAAAAPwAAAAAAAAAAAAAAAAAAAD8AAAAAAAAAAAAAAAAAAAA/AAAAAAAAAAAAAAAAvvR9PgAAAD8AAAA/
        AAAAPwAAAAAAAAAAiYiIPQAAAD8AAAAAAAAAAAAAAAAAAAA/AAAAAAAAAAAAAAAAAAAAPwAAAAAAAAAAAAAAAAAAAD8AAAAAAAAAAAAAAAAAAAA/AAAAAAAAAAAAAAAA
        AAAAPwAAAAAAAAAAAAAAAAAAAD8AAAAAAAAAAAAAAAAAAAA/AAAAAAAAAAAAAAAAAAAAPwAAAAAAAAAAAAAAAAAAAD8AAAAAAAAAAAAAAAAAAAA/AAAAAAAAAAAAAAAA
        AAAAPwAAAAAAAAAAAAAAAAAAAD8AAAAAAAAAAAAAAAAAAAA/AAAAAAAAAAAAAAAAAAAAPwAAAAAAAAAAAAAAAAAAAD8AAAAAAAAAAAAAAAC+9H0+AAAAPwAAAD8AAAA/
        AAAAAAAAAACJiIg9AAAAPwAAAAAAAAAAAAAAAAAAAD8AAAAAAAAAAAAAAAAAAAA/AAAAAAAAAAAAAAAAAAAAPwAAAAAAAAAAAAAAAAAAAD8AAAAAAAAAAAAAAAAAAAA/
        AAAAAAAAAAAAAAAAAAAAPwAAAAAAAAAAAAAAAAAAAD8AAAAAAAAAAAAAAAAAAAA/AAAAAAAAAAAAAAAAAAAAPwAAAAAAAAAAAAAAAAAAAD8AAAAAAAAAAAAAAAAAAAA/
        AAAAAAAAAAAAAAAAAAAAPwAAAAAAAAAAAAAAAAAAAD8AAAAAAAAAAAAAAAAAAAA/AAAAAAAAAAAAAAAAAAAAPwAAAAAAAAAAAAAAAL70fT4AAAA/AAAAPwAAAD8AAAAA
        AAAAAImIiD0AAAA/AAAAAAAAAAAAAAAAAAAAPwAAAAAAAAAAAAAAAAAAAD8AAAAAAAAAAAAAAAAAAAA/AAAAAAAAAAAAAAAAAAAAPwAAAAAAAAAAAAAAAAAAAD8AAAAA
        AAAAAAAAAAAAAAA/AAAAAAAAAAAAAAAAAAAAPwAAAAAAAAAAAAAAAAAAAD8AAAAAAAAAAAAAAAAAAAA/AAAAAAAAAAAAAAAAAAAAPwAAAAAAAAAAAAAAAAAAAD8AAAAA
        AAAAAAAAAAAAAAA/AAAAAAAAAAAAAAAAAAAAPwAAAAAAAAAAAAAAAAAAAD8AAAAAAAAAAAAAAAAAAAA/AAAAAAAAAAAAAAAAvvR9PgAAAD8AAAA/AAAAPwAAAAAAAAAA
        iYiIPQAAAD8AAAAAAAAAAAAAAAAAAAA/AAAAAAAAAAAAAAAAAAAAPwAAAAAAAAAAAAAAAAAAAD8AAAAAAAAAAAAAAAAAAAA/AAAAAAAAAAAAAAAAAAAAPwAAAAAAAAAA
        AAAAAAAAAD8AAAAAAAAAAAAAAAAAAAA/AAAAAAAAAAAAAAAAAAAAPwAAAAAAAAAAAAAAAAAAAD8AAAAAAAAAAAAAAAAAAAA/AAAAAAAAAAAAAAAAAAAAPwAAAAAAAAAA
        AAAAAAAAAD8AAAAAAAAAAAAAAAAAAAA/AAAAAAAAAAAAAAAAAAAAPwAAAAAAAAAAAAAAAAAAAD8AAAAAAAAAAAAAAAAAAAAAmpmZPgAAAAAAAAAAAAAAAAAAgD8AAAAA
        mpmZPgAAAAAAAAAAAAAAAAAAgD8AAAAAmpmZPgAAAAAAAAAAAAAAAAAAgD8AAAAAmpmZPgAAAAAAAAAAAAAAAAAAgD8AAAAAmpmZPgAAAAAAAAAAAAAAAAAAgD8AAAAA
        mpmZPgAAAAAAAAAAAAAAAAAAgD8AAAAAAAAAAAAAAAAAAAAAAAAAAAAAAAAAAAAAAAAAAAAAAAAAAAAAAAAAAAAAAAAAAAAAAAAAAAAAAAAAAAAAAAAAAAAAAAAAAAAA
        AAAAAAAAAAAAAAAAAAAAAAAAAAAAAAAAAAAAAAAAAAAAAAAAAAAAAAAAAAAAAAAAAAAAAAAAAAAAAAAAAAAAAAAAAAAAAAAAAAAAAKuqqj3ZiZ09gShWPgAAgD8AAAAA
        v+eWPdmJHT0WszE/AAAAAAAAAACSdiw8AAAAAAAAAD8AAAAAAAAAAAAAAAAAAAAAAAAAPwAAAAAAAAAAAAAAAAAAAAAAAAAAAAAAAAAAAAAAAAAAAAAAAAAAAAAAAAAA
        AAAAAAAAAAAAAAAAAAAAAAAAAAAAAAAAAAAAAAAAAAAAAAAAAAAAAAAAAAAAAAAAAAAAAAAAAAAAAAAAAAAAAAAAAAAAAAAAAAAAAAAAAAAAAAAAAAAAAAAAAAAAAAAA
        AAAAAAAAAAAAAAAAAAAAAAAAAAAAAAAAAAAAAAAAAAAAAAAAAAAAAAAAAAAAAAAAAAAAAAAAAAAAAAAAAAAAAAAAAAAAAAAAAAAAAAAAAAAAAAAAAAAAAAAAAAAAAAAA
        AAAAAAAAAAAAAAAAAAAAAAAAAAAAAAAAAAAAAAAAAAAAAAAAAAAAAAAAAAAAAAAAAAAAAAAAAAAAAAAAAAAAAAAAAAAAAAAAAAAAAAAAAAAAAAAAAAAAAAAAAAAAAAAA
        AAAAAAAAAAAAAAAAAAAAAAAAAAAAAAAAAAAAAAAAAAAAAAAAAAAAAAAAAAAAAAAAAAAAAAAAAAAAAAAAAAAAAAAAAAAAAAAAAAAAAAAAAAAAAAAAAAAAPwAAAD8AAAA/
        AAAAPwAAAD8AAAA/AAAAPwAAAD8AAAAAAAAAAAAAAAAAAAAAAAAAAAAAAAAAAAAAAAAAAAAAAAAAAAAAAAAAAAAAAAAAAAAAAAAAAAAAAAAAAAAAAAAAAAAAAAAAAAAA
        AAAAAAAAAAAAAAAAAAAAAAAAAAAAAAAAAAAAAAAAAAAAAAAAAAAAAAAAAAAAAAAAAAAAAAAAAAAAAAAAAAAAAAAAAAAAAAAAAAAAAAAAAAAAAAAAAAAAAAAAAAAAAAAA
        AAAAAAAAAAAAAAAAAAAAAAAAAAAAAAAAAAAAAAAAAAAAAAAAAAAAAAAAAAAAAAAAAAAAAAAAAAAAAAAAAAAAAAAAAAAAAAAAAAAAAAAAAAAAAAAAAAAAAAAAAAAAAAAA
        AAAAAAAAAAAAAAAAAAAAAAAAAAAAAAAAAAAAAAAAAAAAAAAAAAAAAAAAAAAAAAAAAAAAAAAAAAAAAAAA
        Q2hpcFNpZGUAQ2hpcFNpZGUAEAAAAA==
      >
      PRESETNAME ChipSide
      FLOATPOS 36 32 641 529
      FXID {20356A84-5CFD-6E4A-AA26-2A8A49CE7A76}
      WAK 0
    >
  >
  <EXTENSIONS
    <SWSAUTOCOLOR
      {00000000-0000-0000-0000-000000000000} 0 "" "" ""
    >
    <BR_CURSOR_POS 04
      0.00000000000000
    >
    <S&M_PROJNOTES
      |Velocity Normalize
    >
  >
>
