<REAPER_PROJECT 0.1 "5.65pre18/OSX64" 1512239813
  RIPPLE 0
  GROUPOVERRIDE 0 0 0
  AUTOXFADE 0
  ENVATTACH 1
  POOLEDENVATTACH 0
  MIXERUIFLAGS 11 432
  PEAKGAIN 1
  FEEDBACK 0
  PANLAW 1
  PROJOFFS 0 0
  MAXPROJLEN 0 600
  GRID 174206 8 1 8 1 0 0 0
  TIMEMODE 6 0 -1 24 2
  PANMODE 3
  CURSOR 0
  ZOOM 11.5792855910978 0 0
  VZOOMEX 0
  USE_REC_CFG 0
  RECMODE 1
  SMPTESYNC 0 23.976024 100 40 1000 300 0 0 1 0 0
  MIDIEDITOR -116919545 0 0
  LOOP 1
  LOOPGRAN 0 4
  RECORD_PATH "" ""
  <RECORD_CFG
    ZXZhdxAA
  >
  <APPLYFX_CFG
  >
  RENDER_FILE "/Users/samenglander/_dev/colorflags/anthems/andorra_1.mp3"
  RENDER_FMT 0 2 44100
  RENDER_1X 0
  RENDER_RANGE 2 0 0 18 1000
  RENDER_RESAMPLE 3 0 1
  RENDER_ADDTOPROJ 0
  RENDER_STEMS 0
  RENDER_DITHER 0
  TIMELOCKMODE 1
  TEMPOENVLOCKMODE 1
  ITEMMIX 1
  DEFPITCHMODE 589824
  TAKELANE 3
  SAMPLERATE 44100 0 0
  <RENDER_CFG
    bDNwbSAAAAABAAAABQAAAAAAAAAAAAAAQAEAAAAAAAA=
  >
  LOCK 1
  <METRONOME 6 2
    VOL 0.25 0.125
    FREQ 800 1600 1
    BEATLEN 4
    SAMPLES "" ""
    PATTERN 2863311530 2863311529
  >
  GLOBAL_AUTO -1
  TEMPO 120 4 4
  PLAYRATE 1 0 0.25 4
  SELECTION 52 0
  SELECTION2 52 0
  MASTERAUTOMODE 0
  MASTERTRACKHEIGHT 0
  MASTERPEAKCOL 16576
  MASTERMUTESOLO 0
  MASTERTRACKVIEW 0 0.6667 0.290323 0.5 0 0 0
  MASTERHWOUT 0 0 1 0 0 0 0 -1
  MASTER_NCH 2 2
  MASTER_VOLUME 1 0 -1 -1 1
  MASTER_FX 1
  MASTER_SEL 0
  <MASTERPLAYSPEEDENV
    ACT 0 -1
    VIS 0 1 1
    LANEHEIGHT 0 0
    ARM 0
    DEFSHAPE 0 -1 -1
  >
  <TEMPOENVEX
    ACT 0 -1
    VIS 1 0 1
    LANEHEIGHT 0 0
    ARM 0
    DEFSHAPE 1 -1 -1
  >
  MARKER 1 0 swing 1 0 1 B
  MARKER 1 1 "" 1 0 1 B
  MARKER 3 2 swing?? 1 0 1 B
  MARKER 3 4 "" 1 0 1 B
  MARKER 2 8 swing 1 0 1 B
  MARKER 2 9 "" 1 0 1 B
  <PROJBAY
  >
  <TRACK {0FD62FBC-586B-1E4A-A363-863E3E7A5861}
    NAME "fr. horn(s) - National_Anthems_-_Andorra"
    PEAKCOL 16576
    BEAT -1
    AUTOMODE 0
    VOLPAN 1 0 -1 -1 1
    MUTESOLO 0 0 0
    IPHASE 0
    ISBUS 0 0
    BUSCOMP 0 0
    SHOWINMIX 0 0.6667 0.290323 0 0.5 0 0 0
    FREEMODE 0
    SEL 0
    REC 0 0 0 0 0 0 0
    VU 2
    TRACKHEIGHT 0 0
    INQ 0 0 0 0.5 100 0 0 100
    NCHAN 2
    FX 1
    TRACKID {0FD62FBC-586B-1E4A-A363-863E3E7A5861}
    PERF 0
    MIDIOUT -1
    MAINSEND 1 0
    <ITEM
      POSITION 0
      SNAPOFFS 0
      LENGTH 52.5
      LOOP 1
      ALLTAKES 0
      FADEIN 1 0 0 1 0 0
      FADEOUT 1 0 0 1 0 0
      MUTE 0
      SEL 0
      IGUID {62C7BD46-DE45-D148-A6C2-E8C07B25BB86}
      IID 2
      NAME "fr. horn(s) - National_Anthems_-_Andorra.mid"
      VOLPAN 1 0 1 -1
      SOFFS 0 0
      PLAYRATE 1 1 0 -1 0 0.0025
      CHANMODE 0
      GUID {31E0D4FB-1D69-7C4C-876C-41E0EA8E9143}
      <SOURCE MIDI
        HASDATA 1 480 QN
        POOLEDEVTS {371BB16E-A55B-8A4E-B07C-640EB61347F6}
        <X 0 0 0 0 3 "fr. horn(s)"
          /wNmci4gaG9ybihzKQ==
        >
        <X 0 0 0 0 4 "Sound Canvas"
          /wRTb3VuZCBDYW52YXM=
        >
        E 0 91 3e 62
        E 119 91 3b 52
        E 1 81 3e 3d
        E 170 81 3b 01
        E 1 91 3e 63
        E 95 81 3e 26
        E 94 91 3e 62
        E 1 91 3b 52
        E 367 81 3b 1a
        E 10 81 3e 37
        E 74 91 3e 5b
        E 5 91 3b 58
        E 219 81 3b 27
        E 9 81 3e 35
        E 83 91 3e 59
        E 8 91 3b 58
        E 72 81 3b 31
        E 22 81 3e 35
        E 65 91 3e 60
        E 2 91 42 65
        E 354 81 3e 0b
        E 24 81 42 32
        E 89 91 42 5b
        E 9 91 3e 5f
        E 327 81 3e 02
        E 65 81 42 12
        E 94 91 43 69
        E 1 91 3e 62
        E 611 81 3e 27
        E 91 81 43 4e
        E 24 91 42 5b
        E 1 91 3e 5d
        E 146 81 3e 39
        E 47 81 42 29
        E 42 91 3e 5d
        E 1 91 3b 50
        E 376 81 3e 36
        E 31 81 3b 29
        E 77 91 3e 62
        E 391 81 3e 05
        E 100 91 3e 5e
        E 3 91 43 61
        E 446 91 3c 51
        E 7 81 3e 42
        E 478 81 3c 39
        E 8 91 3e 4f
        E 452 81 3e 29
        E 4 81 43 49
        E 16 91 3b 4f
        E 494 91 3e 56
        E 0 91 43 63
        E 4 81 3b 28
        E 439 81 43 48
        E 22 91 42 5a
        E 253 81 42 36
        E 77 91 40 4e
        E 154 81 40 4a
        E 4 91 42 5a
        E 383 81 3e 30
        E 3 81 42 3e
        E 109 91 3e 59
        E 134 81 3e 2a
        E 2 91 3b 4a
        E 164 91 3e 56
        E 1 81 3b 23
        E 95 81 3e 1b
        E 80 91 3e 59
        E 2 91 3b 48
        E 386 81 3e 34
        E 6 81 3b 0b
        E 81 91 3e 57
        E 2 91 3b 4c
        E 232 81 3e 2d
        E 1 81 3b 23
        E 99 91 3e 53
        E 4 91 3b 52
        E 96 81 3b 21
        E 6 81 3e 25
        E 67 91 3e 57
        E 2 91 42 62
        E 362 81 3e 2d
        E 8 81 42 45
        E 96 91 42 62
        E 3 91 3e 55
        E 305 81 3e 0e
        E 46 81 42 2c
        E 108 91 43 67
        E 1 91 3e 5d
        E 612 81 3e 33
        E 102 91 42 62
        E 6 91 3c 55
        E 14 81 43 27
        E 127 81 3c 2d
        E 63 81 42 35
        E 43 91 3e 5a
        E 3 91 3b 52
        E 368 81 3e 28
        E 42 81 3b 12
        E 74 91 3e 64
        E 353 81 3e 14
        E 122 91 43 60
        E 4 91 3e 59
        E 440 81 3e 3e
        E 7 91 3c 53
        E 466 81 3c 2d
        E 19 91 3e 4b
        E 379 81 3e 09
        E 90 81 43 3c
        E 31 91 3e 57
        E 1 91 42 56
        E 208 81 42 21
        E 22 81 3e 1f
        E 98 91 42 58
        E 4 91 3e 57
        E 91 81 3e 36
        E 30 81 42 3f
        E 29 91 3e 55
        E 2 91 3b 4d
        E 848 81 3b 29
        E 4 81 3e 3b
        E 101 91 3e 4d
        E 6 91 3b 4e
        E 266 81 3e 0e
        E 23 81 3b 1c
        E 192 91 43 66
        E 148 81 43 42
        E 2 91 40 5c
        E 128 81 40 15
        E 12 91 43 58
        E 92 81 43 3e
        E 94 91 40 53
        E 2 91 43 5a
        E 418 81 43 22
        E 8 81 40 06
        E 71 91 43 5d
        E 2 91 40 4c
        E 216 81 43 37
        E 2 81 40 1e
        E 89 91 43 4f
        E 1 91 40 4b
        E 80 81 40 28
        E 7 81 43 3d
        E 80 91 43 60
        E 3 91 3e 56
        E 354 81 43 39
        E 3 81 3e 26
        E 96 91 43 60
        E 7 91 3e 55
        E 310 81 3e 08
        E 45 81 43 37
        E 110 91 42 55
        E 6 91 3e 53
        E 714 81 42 08
        E 17 91 43 62
        E 209 81 43 32
        E 43 91 42 5d
        E 335 81 42 34
        E 141 91 42 68
        E 136 81 3e 2b
        E 151 81 42 3f
        E 63 91 42 62
        E 122 81 42 45
        E 35 91 43 67
        E 431 81 43 4d
        E 2 91 40 60
        E 482 81 40 29
        E 5 91 3d 5b
        E 424 81 3d 32
        E 77 91 3d 62
        E 386 81 3d 31
        E 88 91 3e 5f
        E 694 81 3e 2b
        E 25 91 3d 5d
        E 218 81 3d 3a
        E 5 91 3e 53
        E 327 81 3e 1c
        E 167 91 43 64
        E 112 81 43 3a
        E 24 91 40 4e
        E 138 81 40 21
        E 14 91 43 5a
        E 84 81 43 45
        E 99 91 40 55
        E 6 91 43 62
        E 405 81 43 33
        E 9 81 40 31
        E 76 91 40 51
        E 1 91 43 60
        E 346 81 43 18
        E 36 81 40 2b
        E 90 91 43 5d
        E 3 91 3e 5b
        E 376 81 3e 14
        E 7 81 43 37
        E 90 91 43 68
        E 4 91 3e 5c
        E 230 81 3e 21
        E 1 81 43 3c
        E 120 91 43 60
        E 2 91 3e 59
        E 77 81 3e 2c
        E 13 81 43 43
        E 52 91 3e 5c
        E 1 91 42 63
        E 646 81 42 29
        E 38 91 43 6b
        E 209 81 43 3d
        E 46 91 42 65
        E 343 81 42 4d
        E 159 91 42 6c
        E 179 81 42 3c
        E 146 91 42 63
        E 100 81 3e 01
        E 2 81 42 42
        E 48 91 43 66
        E 1 91 40 60
        E 797 81 40 3a
        E 133 81 43 4c
        E 15 91 3d 4a
        E 2 91 40 5b
        E 839 81 3d 01
        E 107 81 40 23
        E 2 91 3e 5c
        E 1173 81 3e 06
        E 309 91 3e 5f
        E 144 91 3b 51
        E 8 81 3e 2f
        E 135 81 3b 18
        E 1 91 3e 54
        E 107 81 3e 2d
        E 59 91 3e 56
        E 0 91 3b 4d
        E 576 81 3e 3b
        E 0 81 3b 27
        E 107 91 3e 52
        E 0 91 3b 53
        E 144 81 3e 25
        E 17 81 3b 2a
        E 91 91 3e 5d
        E 3 91 42 61
        E 231 81 3e 35
        E 2 81 42 3f
        E 84 91 42 5b
        E 1 91 3e 57
        E 81 81 3e 3e
        E 6 81 42 46
        E 55 91 42 66
        E 1 91 3e 5a
        E 230 81 42 3e
        E 1 81 3e 32
        E 83 91 42 5d
        E 8 91 3e 56
        E 71 81 3e 37
        E 20 81 42 46
        E 74 91 43 66
        E 2 91 3e 58
        E 610 81 3e 30
        E 79 81 43 01
        E 42 91 42 5f
        E 1 91 3e 55
        E 136 81 3e 25
        E 49 81 42 13
        E 69 91 3e 57
        E 4 91 3b 4f
        E 431 81 3b 40
        E 10 81 3e 27
        E 513 91 43 61
        E 0 91 3e 59
        E 461 81 3e 34
        E 7 91 3c 50
        E 386 81 3c 2f
        E 4 81 43 3c
        E 90 91 43 62
        E 3 91 3b 4f
        E 378 81 3b 1d
        E 89 81 43 47
        E 15 91 3b 4f
        E 0 91 3e 56
        E 219 81 3b 28
        E 0 81 3e 2c
        E 112 91 3b 43
        E 2 91 3e 49
        E 72 81 3b 24
        E 7 81 3e 27
        E 83 91 43 57
        E 1 91 3e 53
        E 450 81 43 40
        E 14 91 42 5a
        E 218 81 42 3b
        E 18 91 40 4e
        E 211 81 40 4e
        E 13 91 42 56
        E 322 81 3e 20
        E 41 81 42 2d
        E 117 91 3e 5a
        E 151 91 3b 4d
        E 3 81 3e 36
        E 144 81 3b 20
        E 6 91 3e 59
        E 88 81 3e 2e
        E 107 91 3e 56
        E 2 91 3b 4c
        E 388 81 3e 37
        E 6 81 3b 13
        E 90 91 3e 5d
        E 4 91 3b 4d
        E 211 81 3b 22
        E 5 81 3e 39
        E 99 91 3e 52
        E 4 91 3b 52
        E 79 81 3b 35
        E 2 81 3e 38
        E 74 91 42 5e
        E 1 91 3e 5e
        E 359 81 3e 2c
        E 2 81 42 38
        E 98 91 42 61
        E 2 91 3e 57
        E 232 81 42 37
        E 5 81 3e 2a
        E 96 91 42 5b
        E 4 91 3e 56
        E 106 81 3e 3e
        E 14 81 42 4b
        E 53 91 3f 51
        E 2 91 42 5f
        E 1257 81 3f 18
        E 68 81 42 1e
        E 130 91 3f 5f
        E 7 91 45 63
        E 215 81 3f 23
        E 0 81 45 39
        E 75 91 3f 52
        E 15 91 45 60
        E 77 81 3f 2f
        E 12 81 45 2d
        E 75 91 44 5f
        E 8 91 40 5e
        E 342 81 40 22
        E 86 81 44 01
        E 26 91 47 5d
        E 1 91 40 5b
        E 334 81 40 01
        E 89 81 47 3a
        E 55 91 40 56
        E 2 91 45 55
        E 352 81 40 27
        E 45 81 45 23
        E 70 91 44 51
        E 16 91 3e 5a
        E 345 81 3e 01
        E 79 81 44 3f
        E 37 91 40 5a
        E 8 91 3c 4f
        E 754 81 3c 3d
        E 26 81 40 2d
        E 174 91 37 45
        E 7 91 40 50
        E 578 81 37 1f
        E 29 81 40 0b
        E 204 91 40 50
        E 4 91 39 48
        E 2 91 43 5b
        E 93 81 40 3a
        E 11 81 43 01
        E 7 81 39 06
        E 43 91 3b 4f
        E 0 91 43 55
        E 5 91 3e 52
        E 607 81 3b 23
        E 6 81 3e 2e
        E 2 81 43 2a
        E 158 91 43 62
        E 3 91 3b 53
        E 2 91 3e 53
        E 100 81 43 28
        E 0 81 3b 2b
        E 1 81 3e 36
        E 80 91 43 63
        E 6 91 3e 5f
        E 2 91 39 50
        E 612 81 39 01
        E 14 81 3e 17
        E 51 81 43 45
        E 112 91 39 52
        E 0 91 42 5d
        E 0 91 3e 5a
        E 101 81 39 3c
        E 7 81 3e 29
        E 5 81 42 45
        E 66 91 3b 53
        E 1 91 3e 5e
        E 1417 81 3e 53
        E 6 81 3b 53
        E 476 b0 7b 00
        GUID {98841515-E22C-9544-A8B4-E3C35C58D6BB}
        IGNTEMPO 0 120 4 4
        SRCCOLOR 922
        VELLANE -1 86 6
      >
    >
  >
  <TRACK {6496E4A5-F083-FC4B-84DA-E600F33120A1}
    NAME "trombone(s) - National_Anthems_-_Andorra"
    PEAKCOL 16576
    BEAT -1
    AUTOMODE 0
    VOLPAN 1 0 -1 -1 1
    MUTESOLO 0 0 0
    IPHASE 0
    ISBUS 0 0
    BUSCOMP 0 0
    SHOWINMIX 0 0.6667 0.290323 0 0.5 0 0 0
    FREEMODE 0
    SEL 0
    REC 0 0 0 0 0 0 0
    VU 2
    TRACKHEIGHT 0 0
    INQ 0 0 0 0.5 100 0 0 100
    NCHAN 2
    FX 1
    TRACKID {6496E4A5-F083-FC4B-84DA-E600F33120A1}
    PERF 0
    MIDIOUT -1
    MAINSEND 1 0
    <ITEM
      POSITION 0
      SNAPOFFS 0
      LENGTH 52.5
      LOOP 1
      ALLTAKES 0
      FADEIN 1 0 0 1 0 0
      FADEOUT 1 0 0 1 0 0
      MUTE 0
      SEL 0
      IGUID {EC8AC727-35F3-2D4F-9CD1-B3B5E9BB9228}
      IID 3
      NAME "trombone(s) - National_Anthems_-_Andorra.mid"
      VOLPAN 1 0 1 -1
      SOFFS 0 0
      PLAYRATE 1 1 0 -1 0 0.0025
      CHANMODE 0
      GUID {6049AA6F-7869-6240-B15C-7C5F7A0AC7F8}
      <SOURCE MIDI
        HASDATA 1 480 QN
        POOLEDEVTS {61B76DC5-A0D9-114A-9ECF-52AA3B0AF8EB}
        <X 0 0 0 0 3 trombone(s)
          /wN0cm9tYm9uZShzKQ==
        >
        <X 0 0 0 0 4 "Sound Canvas"
          /wRTb3VuZCBDYW52YXM=
        >
        E 0 92 32 60
        E 356 82 32 23
        E 102 92 37 5c
        E 408 82 37 01
        E 58 92 36 68
        E 220 82 36 38
        E 110 92 34 61
        E 111 82 34 34
        E 57 92 32 62
        E 342 82 32 15
        E 124 92 30 5e
        E 370 82 30 01
        E 110 92 2f 62
        E 149 82 2f 2c
        E 83 92 30 57
        E 138 82 30 2d
        E 104 92 32 60
        E 367 82 32 02
        E 144 92 2b 5e
        E 347 82 2b 1e
        E 145 92 35 68
        E 326 82 35 1f
        E 128 92 34 5d
        E 376 82 34 31
        E 104 92 33 63
        E 372 82 33 3e
        E 89 92 32 5b
        E 348 82 32 30
        E 146 92 34 61
        E 313 82 34 07
        E 151 92 32 60
        E 1272 82 32 1e
        E 214 92 32 61
        E 342 82 32 3b
        E 125 92 37 5b
        E 383 82 37 27
        E 94 92 36 63
        E 215 82 36 3f
        E 120 92 34 61
        E 102 82 34 40
        E 61 92 32 5f
        E 348 82 32 01
        E 111 92 30 63
        E 365 82 30 26
        E 101 92 2f 66
        E 235 82 2f 2c
        E 93 92 30 5d
        E 115 82 30 22
        E 44 92 32 61
        E 377 82 32 3d
        E 98 92 37 62
        E 359 82 37 11
        E 114 92 35 67
        E 422 82 35 25
        E 85 92 34 61
        E 321 82 34 34
        E 149 92 34 60
        E 366 82 34 10
        E 108 92 32 5f
        E 373 82 32 24
        E 102 92 32 63
        E 223 82 32 44
        E 121 92 32 62
        E 105 82 32 14
        E 57 92 37 5f
        E 1259 82 37 26
        E 170 92 37 62
        E 162 92 34 61
        E 2 82 37 15
        E 121 82 34 36
        E 14 92 37 59
        E 170 82 37 0a
        E 28 92 30 66
        E 390 82 30 2f
        E 77 92 30 62
        E 221 82 30 32
        E 98 92 34 53
        E 119 82 34 1c
        E 46 92 37 5f
        E 362 82 37 23
        E 136 92 37 62
        E 307 82 37 26
        E 167 92 39 63
        E 612 82 39 1a
        E 90 92 37 5b
        E 152 82 37 1b
        E 83 92 39 62
        E 360 82 39 22
        E 126 92 36 66
        E 397 82 36 2a
        E 74 92 34 64
        E 249 82 34 2e
        E 77 92 36 62
        E 102 82 36 44
        E 66 92 37 5d
        E 155 82 37 20
        E 135 92 39 5e
        E 126 82 39 2c
        E 59 92 3a 68
        E 410 82 3a 26
        E 82 92 39 68
        E 317 82 39 24
        E 151 92 39 66
        E 1227 82 39 02
        E 217 92 37 65
        E 143 92 34 65
        E 14 82 37 1a
        E 105 82 34 47
        E 16 92 37 58
        E 100 82 37 48
        E 124 92 3c 69
        E 397 82 3c 02
        E 59 92 34 66
        E 283 82 34 38
        E 39 92 37 5b
        E 107 82 37 2b
        E 77 92 37 65
        E 354 82 37 36
        E 112 92 37 62
        E 299 82 37 10
        E 165 92 39 63
        E 627 82 39 24
        E 92 92 37 5b
        E 178 82 37 0f
        E 70 92 39 60
        E 396 82 39 09
        E 63 92 32 5f
        E 330 82 32 0d
        E 160 92 31 69
        E 262 82 31 36
        E 54 92 32 62
        E 145 82 32 37
        E 35 92 34 60
        E 187 82 34 26
        E 97 92 36 61
        E 116 82 36 43
        E 72 92 37 5f
        E 363 82 37 1a
        E 109 92 39 65
        E 314 82 39 19
        E 170 92 39 5b
        E 1 92 36 5b
        E 1360 82 39 36
        E 7 82 36 50
        E 550 92 2b 69
        E 165 82 2b 3d
        E 74 92 37 5b
        E 152 82 37 30
        E 90 92 36 68
        E 144 82 36 2f
        E 93 92 34 63
        E 127 82 34 2a
        E 113 92 32 61
        E 143 82 32 31
        E 92 92 34 5e
        E 134 82 34 3a
        E 111 92 32 52
        E 186 82 32 01
        E 52 92 30 61
        E 132 82 30 2b
        E 114 92 2f 68
        E 220 82 2f 28
        E 97 92 30 5e
        E 113 82 30 32
        E 51 92 32 62
        E 329 82 32 15
        E 133 92 2b 62
        E 319 82 2b 36
        E 172 92 35 69
        E 157 82 35 33
        E 79 92 37 5c
        E 160 82 37 35
        E 87 92 34 62
        E 166 82 34 10
        E 68 92 37 5a
        E 154 82 37 26
        E 87 92 33 66
        E 195 82 33 22
        E 38 92 37 5a
        E 158 82 37 31
        E 80 92 32 62
        E 177 82 32 0d
        E 70 92 37 56
        E 145 82 37 2a
        E 101 92 34 5e
        E 307 82 34 0b
        E 189 92 32 60
        E 1202 82 32 3a
        E 237 92 32 62
        E 372 82 32 0a
        E 77 92 2b 66
        E 186 82 2b 01
        E 50 92 37 5f
        E 163 82 37 1f
        E 82 92 36 65
        E 161 82 36 28
        E 82 92 34 61
        E 147 82 34 2c
        E 93 92 32 60
        E 192 82 32 20
        E 44 92 34 61
        E 161 82 34 32
        E 70 92 32 5f
        E 228 82 32 2d
        E 12 92 30 57
        E 189 82 30 28
        E 68 92 2f 5e
        E 434 82 2f 3e
        E 60 92 39 61
        E 394 82 39 1c
        E 83 92 37 5d
        E 411 82 37 1b
        E 89 92 36 62
        E 380 82 36 30
        E 89 92 34 64
        E 397 82 34 20
        E 93 92 35 67
        E 214 82 35 30
        E 91 92 34 5d
        E 130 82 34 3f
        E 45 92 39 63
        E 359 82 39 3b
        E 101 92 3b 5a
        E 349 82 3b 0c
        E 117 92 3c 61
        E 988 92 30 66
        E 80 82 3c 4a
        E 613 82 30 37
        E 90 92 30 64
        E 110 82 30 3e
        E 58 92 32 67
        E 647 82 32 2e
        E 142 92 32 65
        E 98 82 32 42
        E 68 92 32 65
        E 604 82 32 3e
        E 175 92 32 67
        E 156 82 32 40
        E 32 92 2b 6e
        E 1467 82 2b 5f
        E 460 b0 7b 00
        GUID {2F00FA03-5683-9247-9407-1B050AED17D2}
        IGNTEMPO 0 120 4 4
        SRCCOLOR 923
        VELLANE -1 86 6
      >
    >
  >
  <TRACK {A86F63BE-0D81-E143-B4C5-03028681F8AF}
    NAME "strings (hi) - National_Anthems_-_Andorra"
    PEAKCOL 16576
    BEAT -1
    AUTOMODE 0
    VOLPAN 1 0 -1 -1 1
    MUTESOLO 0 0 0
    IPHASE 0
    ISBUS 0 0
    BUSCOMP 0 0
    SHOWINMIX 0 0.6667 0.290323 0 0.5 0 0 0
    FREEMODE 0
    SEL 0
    REC 0 0 0 0 0 0 0
    VU 2
    TRACKHEIGHT 0 0
    INQ 0 0 0 0.5 100 0 0 100
    NCHAN 2
    FX 1
    TRACKID {A86F63BE-0D81-E143-B4C5-03028681F8AF}
    PERF 0
    MIDIOUT -1
    MAINSEND 1 0
    <ITEM
      POSITION 0
      SNAPOFFS 0
      LENGTH 52
      LOOP 1
      ALLTAKES 0
      FADEIN 1 0 0 1 0 0
      FADEOUT 1 0 0 1 0 0
      MUTE 0
      SEL 0
      IGUID {71CF037E-2639-D741-8CA2-25C1F9F9CC1D}
      IID 5
      NAME "strings (hi) - National_Anthems_-_Andorra.mid"
      VOLPAN 1 0 1 -1
      SOFFS 0 0
      PLAYRATE 1 1 0 -1 0 0.0025
      CHANMODE 0
      GUID {2E1BD04A-35D6-B34F-B439-ADEA688D028C}
      <SOURCE MIDI
        HASDATA 1 480 QN
        POOLEDEVTS {5BA8EDC8-31AC-3840-9047-D07B5DB64500}
        <X 0 0 0 0 3 "strings (hi)"
          /wNzdHJpbmdzIChoaSk=
        >
        <X 0 0 0 0 4 "Sound Canvas"
          /wRTb3VuZCBDYW52YXM=
        >
        E 0 94 4a 56
        E 0 94 3e 5b
        E 474 94 4f 5c
        E 2 84 4a 1f
        E 3 94 43 64
        E 2 84 3e 32
        E 394 84 43 32
        E 8 84 4f 39
        E 55 94 43 65
        E 0 94 4f 5e
        E 216 84 43 3b
        E 19 84 4f 34
        E 68 94 43 65
        E 12 94 4f 58
        E 149 84 43 36
        E 6 84 4f 28
        E 7 94 45 52
        E 6 94 51 5e
        E 404 84 45 2c
        E 9 84 51 30
        E 47 94 45 5c
        E 7 94 51 5b
        E 446 84 45 2b
        E 6 94 47 55
        E 5 94 53 56
        E 18 84 51 01
        E 708 94 51 53
        E 1 84 53 3a
        E 6 94 45 5e
        E 30 84 47 38
        E 198 84 51 42
        E 6 94 4f 58
        E 12 94 43 5e
        E 4 84 45 38
        E 462 84 4f 01
        E 14 84 43 3e
        E 8 94 53 51
        E 1 94 47 53
        E 243 84 47 1b
        E 29 84 53 2a
        E 58 94 47 51
        E 6 94 53 54
        E 172 84 47 42
        E 0 84 53 29
        E 6 94 56 51
        E 4 94 4a 43
        E 443 94 54 58
        E 3 94 48 50
        E 3 84 4a 2a
        E 19 84 56 22
        E 441 94 53 51
        E 2 84 54 40
        E 0 84 48 0c
        E 1 94 47 52
        E 468 94 43 62
        E 5 94 4f 51
        E 2 84 47 2e
        E 8 84 53 22
        E 449 84 43 3e
        E 16 94 45 45
        E 3 94 51 51
        E 8 84 4f 26
        E 1325 84 45 25
        E 39 84 51 24
        E 107 94 4a 56
        E 1 94 3e 62
        E 202 84 3e 2a
        E 42 84 4a 29
        E 61 94 3e 60
        E 21 94 4a 57
        E 157 84 4a 1e
        E 2 84 3e 34
        E 8 94 43 67
        E 2 94 4f 60
        E 342 84 43 2b
        E 25 84 4f 3a
        E 72 94 43 64
        E 4 94 4f 55
        E 477 84 43 39
        E 6 94 45 51
        E 1 94 51 53
        E 4 84 4f 0f
        E 436 84 45 38
        E 11 84 51 27
        E 51 94 45 5a
        E 6 94 51 50
        E 403 84 51 01
        E 59 84 45 37
        E 3 94 53 4c
        E 11 94 47 54
        E 703 94 51 52
        E 2 94 45 57
        E 10 84 53 29
        E 17 84 47 39
        E 190 84 45 06
        E 33 94 43 5b
        E 5 84 51 2c
        E 3 94 4f 4f
        E 370 84 43 19
        E 2 84 4f 10
        E 100 94 47 51
        E 1 94 53 4f
        E 457 94 4a 4e
        E 3 94 56 48
        E 2 84 47 30
        E 10 84 53 0f
        E 477 94 54 55
        E 1 94 48 58
        E 18 84 4a 29
        E 9 84 56 2c
        E 437 94 53 52
        E 1 94 47 55
        E 1 84 54 41
        E 27 84 48 3a
        E 441 84 47 39
        E 10 94 45 55
        E 8 94 51 53
        E 20 84 53 1b
        E 179 84 45 24
        E 28 84 51 30
        E 93 94 45 5a
        E 1 94 51 50
        E 133 84 45 1a
        E 28 84 51 25
        E 1 94 43 54
        E 6 94 4f 53
        E 888 84 4f 26
        E 8 84 43 3d
        E 58 94 43 56
        E 16 94 4f 52
        E 250 84 43 40
        E 52 84 4f 31
        E 209 94 43 61
        E 12 94 4f 5d
        E 428 94 54 5c
        E 1 94 48 4e
        E 7 84 43 44
        E 2 84 4f 2d
        E 404 84 48 35
        E 3 84 54 48
        E 51 94 54 58
        E 8 94 48 53
        E 270 84 48 31
        E 8 84 54 4e
        E 59 94 48 53
        E 2 94 54 59
        E 134 84 48 1f
        E 35 84 54 47
        E 8 94 53 51
        E 1 94 47 53
        E 373 84 53 41
        E 8 84 47 35
        E 57 94 47 59
        E 4 94 53 4c
        E 392 84 47 05
        E 36 84 53 0a
        E 39 94 45 5a
        E 9 94 51 50
        E 722 84 51 27
        E 1 84 45 3f
        E 3 94 47 54
        E 7 94 53 3f
        E 199 84 47 32
        E 22 84 53 3b
        E 6 94 45 59
        E 9 94 51 4d
        E 339 84 45 2d
        E 27 84 51 27
        E 119 94 45 55
        E 14 94 51 5c
        E 190 84 45 2a
        E 36 84 51 1d
        E 86 94 45 4b
        E 17 94 51 50
        E 141 94 47 53
        E 3 84 45 3b
        E 1 94 53 53
        E 14 84 51 2b
        E 448 94 43 5d
        E 1 94 4f 58
        E 6 84 53 46
        E 15 84 47 1b
        E 452 84 4f 41
        E 5 94 4c 52
        E 5 94 40 53
        E 12 84 43 39
        E 451 94 45 52
        E 8 94 51 57
        E 8 84 40 17
        E 13 84 4c 18
        E 446 94 4e 5d
        E 3 84 51 3a
        E 2 94 42 5e
        E 15 84 45 1f
        E 701 94 4c 52
        E 11 94 40 56
        E 3 84 4e 1e
        E 5 84 42 2c
        E 240 84 4c 44
        E 1 94 3e 52
        E 3 94 4a 54
        E 1 84 40 34
        E 297 84 3e 27
        E 11 84 4a 11
        E 169 94 4f 59
        E 1 94 43 5e
        E 451 84 43 01
        E 18 94 54 5f
        E 0 94 48 43
        E 4 84 4f 21
        E 414 84 54 40
        E 8 84 48 35
        E 62 94 48 51
        E 7 94 54 57
        E 458 84 48 22
        E 6 84 54 42
        E 3 94 47 56
        E 4 94 53 4e
        E 411 84 47 2c
        E 5 84 53 31
        E 73 94 53 53
        E 8 94 47 5b
        E 227 84 47 22
        E 18 84 53 35
        E 64 94 47 50
        E 1 94 53 53
        E 118 84 47 25
        E 41 84 53 24
        E 17 94 45 5a
        E 4 94 51 57
        E 684 94 47 4f
        E 1 94 53 4f
        E 1 84 45 2f
        E 1 84 51 21
        E 225 84 47 15
        E 18 84 53 3b
        E 5 94 45 54
        E 9 94 51 4f
        E 360 84 45 23
        E 13 84 51 11
        E 86 94 45 59
        E 5 94 51 52
        E 220 84 45 2c
        E 26 84 51 1f
        E 82 94 45 4d
        E 16 94 51 4c
        E 131 84 45 38
        E 9 94 47 53
        E 5 94 53 55
        E 2 84 51 1b
        E 458 84 47 19
        E 6 84 53 33
        E 4 94 45 51
        E 11 94 51 50
        E 462 94 47 4d
        E 4 84 51 17
        E 6 84 45 19
        E 1 94 53 51
        E 463 84 53 4a
        E 7 94 51 51
        E 2 94 45 54
        E 2 84 47 35
        E 475 94 3e 52
        E 2 94 4a 53
        E 12 84 51 28
        E 5 84 45 01
        E 1211 84 3e 22
        E 43 84 4a 01
        E 175 94 3e 5e
        E 14 94 4a 57
        E 450 84 3e 32
        E 14 94 43 4b
        E 0 94 4f 54
        E 1 84 4a 01
        E 609 84 43 35
        E 10 84 4f 37
        E 100 94 43 5e
        E 11 94 4f 55
        E 215 84 43 31
        E 8 84 4f 01
        E 7 94 51 52
        E 4 94 45 52
        E 248 84 45 2d
        E 4 84 51 2d
        E 74 94 45 54
        E 3 94 51 4c
        E 96 84 45 2e
        E 18 84 51 2e
        E 51 94 45 60
        E 1 94 51 53
        E 198 84 45 2f
        E 13 84 51 29
        E 81 94 45 52
        E 14 94 51 53
        E 126 84 45 16
        E 4 84 51 0d
        E 31 94 53 51
        E 2 94 47 52
        E 717 84 53 3b
        E 9 94 45 51
        E 1 94 51 4f
        E 20 84 47 01
        E 185 84 45 18
        E 22 84 51 34
        E 3 94 43 54
        E 5 94 4f 52
        E 355 84 43 23
        E 16 84 4f 03
        E 105 94 47 51
        E 5 94 53 52
        E 451 84 53 01
        E 18 84 47 1e
        E 3 94 4a 48
        E 3 94 56 4a
        E 486 94 48 51
        E 1 94 54 53
        E 5 84 4a 1c
        E 0 84 56 31
        E 463 94 53 4f
        E 6 84 54 33
        E 3 94 47 52
        E 21 84 48 0e
        E 466 94 43 62
        E 1 84 53 27
        E 3 94 4f 5a
        E 13 84 47 29
        E 167 84 43 39
        E 12 84 4f 18
        E 112 94 43 61
        E 19 94 4f 54
        E 159 84 43 23
        E 1 84 4f 31
        E 1 94 51 51
        E 6 94 45 55
        E 1390 84 45 3d
        E 1 84 51 40
        E 516 94 4f 58
        E 0 94 43 63
        E 406 84 43 41
        E 12 84 4f 43
        E 62 94 43 62
        E 1 94 4f 5c
        E 224 84 43 3b
        E 5 84 4f 36
        E 91 94 43 61
        E 0 94 4f 55
        E 105 84 43 29
        E 28 84 4f 2d
        E 17 94 45 59
        E 5 94 51 53
        E 403 84 45 30
        E 0 84 51 3a
        E 60 94 51 58
        E 0 94 45 5c
        E 259 84 45 31
        E 11 84 51 2f
        E 79 94 45 58
        E 4 94 51 54
        E 117 84 45 4e
        E 1 84 51 49
        E 35 94 47 54
        E 0 94 53 4b
        E 1284 84 53 2a
        E 9 84 47 1b
        E 153 94 53 5a
        E 0 94 47 5e
        E 227 84 47 3b
        E 2 84 53 28
        E 85 94 47 4d
        E 11 94 53 54
        E 149 84 47 2e
        E 6 84 53 25
        E 4 94 4c 51
        E 4 94 58 56
        E 465 94 56 52
        E 1 94 4a 5d
        E 5 84 58 3f
        E 15 84 4c 24
        E 449 94 54 58
        E 4 94 48 54
        E 12 84 56 2e
        E 0 84 4a 01
        E 439 84 48 08
        E 24 94 47 57
        E 3 94 53 53
        E 12 84 54 47
        E 451 84 47 21
        E 16 94 45 4d
        E 0 94 51 5a
        E 8 84 53 42
        E 961 94 43 65
        E 2 84 51 4a
        E 3 94 4f 5a
        E 1 84 45 3e
        E 637 84 43 2e
        E 32 84 4f 23
        E 102 94 51 58
        E 2 94 45 5d
        E 154 84 51 2c
        E 5 84 45 34
        E 15 94 47 5c
        E 7 94 53 5b
        E 632 84 47 1e
        E 30 84 53 19
        E 105 94 47 59
        E 1 94 53 55
        E 178 84 53 3a
        E 4 84 47 31
        E 1 94 45 65
        E 1 94 51 5e
        E 628 84 45 1e
        E 27 84 51 02
        E 146 94 45 5f
        E 5 94 51 59
        E 142 94 43 67
        E 2 84 51 38
        E 4 94 4f 5d
        E 1 84 45 28
        E 1452 84 4f 57
        E 1 84 43 5d
        E 1 b0 7b 00
        GUID {D644BEEB-7D83-9048-824D-22E51BCE68CE}
        IGNTEMPO 0 120 4 4
        SRCCOLOR 925
        VELLANE -1 86 6
      >
    >
  >
  <TRACK {2817EC0A-171F-EC4C-B2A2-375F975DF721}
    NAME "strings (mid) - National_Anthems_-_Andorra"
    PEAKCOL 16576
    BEAT -1
    AUTOMODE 0
    VOLPAN 1 0 -1 -1 1
    MUTESOLO 0 0 0
    IPHASE 0
    ISBUS 0 0
    BUSCOMP 0 0
    SHOWINMIX 0 0.6667 0.290323 0 0.5 0 0 0
    FREEMODE 0
    SEL 0
    REC 0 0 0 0 0 0 0
    VU 2
    TRACKHEIGHT 0 0
    INQ 0 0 0 0.5 100 0 0 100
    NCHAN 2
    FX 1
    TRACKID {2817EC0A-171F-EC4C-B2A2-375F975DF721}
    PERF 0
    MIDIOUT -1
    MAINSEND 1 0
    <ITEM
      POSITION 0
      SNAPOFFS 0
      LENGTH 52.5
      LOOP 1
      ALLTAKES 0
      FADEIN 1 0 0 1 0 0
      FADEOUT 1 0 0 1 0 0
      MUTE 0
      SEL 0
      IGUID {C468F388-340E-D341-BE61-F7B6EBE17D25}
      IID 6
      NAME "strings (mid) - National_Anthems_-_Andorra.mid"
      VOLPAN 1 0 1 -1
      SOFFS 0 0
      PLAYRATE 1 1 0 -1 0 0.0025
      CHANMODE 0
      GUID {21CEB0F4-D053-4447-948A-CA66B4C46918}
      <SOURCE MIDI
        HASDATA 1 480 QN
        POOLEDEVTS {86B0E90E-944A-8140-817F-6BA23FB831F9}
        <X 0 0 0 0 3 "strings (mid)"
          /wNzdHJpbmdzIChtaWQp
        >
        <X 0 0 0 0 4 "Sound Canvas"
          /wRTb3VuZCBDYW52YXM=
        >
        E 0 95 3e 4e
        E 367 85 3e 35
        E 85 95 3e 4a
        E 2 95 3b 4d
        E 387 85 3b 22
        E 1 85 3e 37
        E 87 95 3e 4d
        E 4 95 3b 44
        E 257 85 3e 38
        E 3 85 3b 25
        E 63 95 3e 4d
        E 3 95 3b 42
        E 153 85 3b 1c
        E 6 95 42 51
        E 823 85 3e 01
        E 101 85 42 04
        E 33 95 3e 4a
        E 9 95 43 54
        E 701 95 42 55
        E 5 85 43 3b
        E 94 85 3e 1a
        E 156 95 3e 51
        E 9 95 3b 37
        E 11 85 42 35
        E 376 85 3e 39
        E 98 95 3e 56
        E 9 85 3b 24
        E 440 95 43 5e
        E 485 95 3c 4e
        E 13 85 3e 2a
        E 471 95 3e 4c
        E 1 85 3c 22
        E 471 85 3e 3e
        E 8 95 3b 45
        E 508 95 3e 49
        E 0 95 43 62
        E 44 85 43 4d
        E 10 85 3b 41
        E 405 85 43 47
        E 19 95 42 5b
        E 300 85 42 37
        E 16 95 40 51
        E 158 85 40 43
        E 10 95 42 51
        E 326 85 3e 19
        E 67 85 42 04
        E 81 95 3e 51
        E 471 95 3b 3f
        E 821 85 3e 08
        E 157 95 42 40
        E 1 95 3e 3b
        E 26 85 3b 23
        E 806 85 3e 01
        E 90 95 3e 07
        E 14 85 42 2b
        E 14 95 43 4a
        E 701 85 3e 32
        E 3 95 42 4f
        E 16 95 3c 41
        E 11 85 43 49
        E 175 85 3c 2d
        E 73 95 3e 50
        E 6 95 3b 44
        E 25 85 42 33
        E 318 85 3e 2c
        E 112 95 3e 54
        E 19 85 3b 2c
        E 417 95 43 52
        E 492 85 3e 23
        E 10 95 3c 36
        E 427 85 3c 1f
        E 28 95 3e 45
        E 488 95 42 52
        E 12 85 43 3e
        E 380 85 3e 29
        E 111 85 42 2c
        E 3 95 3e 4a
        E 5 95 3b 3a
        E 1347 85 3b 29
        E 8 85 3e 10
        E 572 95 43 4e
        E 2 95 40 42
        E 783 85 40 12
        E 182 95 3e 34
        E 798 85 3e 24
        E 156 95 42 4b
        E 4 95 3e 3a
        E 17 85 43 2b
        E 666 85 42 34
        E 23 95 43 4f
        E 217 85 43 37
        E 17 95 42 58
        E 893 85 42 01
        E 28 85 3e 01
        E 71 95 43 5f
        E 440 85 43 48
        E 6 95 40 50
        E 456 85 40 14
        E 10 95 3d 51
        E 438 85 3d 2b
        E 57 95 3d 52
        E 462 85 3d 1e
        E 28 95 3e 4a
        E 717 85 3e 16
        E 3 95 3d 40
        E 260 95 3e 46
        E 12 85 3d 06
        E 346 85 3e 2f
        E 594 95 43 4d
        E 8 95 40 46
        E 946 85 40 21
        E 15 95 3e 2c
        E 958 85 43 40
        E 21 95 42 4e
        E 669 85 42 3d
        E 23 95 43 4d
        E 206 85 43 3b
        E 23 95 42 52
        E 846 85 3e 06
        E 0 85 42 1c
        E 124 95 43 5a
        E 3 95 40 4a
        E 832 85 40 01
        E 105 85 43 28
        E 17 95 40 42
        E 2 95 3d 4f
        E 935 95 3e 49
        E 18 85 40 01
        E 3 85 3d 37
        E 1421 85 3e 3a
        E 502 95 43 4a
        E 2 95 3e 51
        E 0 95 3b 4a
        E 836 85 3e 1c
        E 97 85 43 1a
        E 0 85 3b 27
        E 5 95 42 52
        E 2 95 3e 50
        E 876 85 42 30
        E 10 85 3e 1f
        E 78 95 3e 50
        E 0 95 43 4e
        E 708 85 43 15
        E 19 95 42 56
        E 146 85 3e 2c
        E 67 85 42 3f
        E 13 95 3e 50
        E 4 95 3b 46
        E 478 85 3e 3a
        E 1 85 3b 28
        E 483 95 3e 49
        E 3 95 43 53
        E 484 95 3c 48
        E 10 85 3e 3b
        E 359 85 3c 22
        E 101 95 3b 36
        E 368 85 3b 2b
        E 92 85 43 26
        E 37 95 3b 2f
        E 1 95 3e 32
        E 340 85 3e 24
        E 59 85 3b 30
        E 92 95 3e 4a
        E 4 95 43 49
        E 434 85 43 40
        E 13 95 42 51
        E 209 85 42 3a
        E 42 95 40 1e
        E 217 95 42 4f
        E 5 85 40 3d
        E 456 85 3e 35
        E 2 85 42 41
        E 524 95 3b 46
        E 7 95 3e 48
        E 842 85 3e 14
        E 58 85 3b 2b
        E 40 95 42 4f
        E 7 95 3e 52
        E 771 85 42 01
        E 106 85 3e 17
        E 65 95 3f 5e
        E 7 95 42 58
        E 22 95 42 58
        E 1 95 3f 47
        E 624 85 3f 01
        E 71 85 42 28
        E 598 85 3f 18
        E 94 85 42 01
        E 43 95 3f 4c
        E 14 95 45 51
        E 392 85 3f 24
        E 68 85 45 06
        E 17 95 40 47
        E 8 95 44 49
        E 474 95 47 51
        E 16 85 44 07
        E 408 85 47 30
        E 41 95 45 58
        E 371 85 40 1e
        E 99 95 44 4a
        E 1 85 45 2c
        E 16 95 3e 3c
        E 339 85 3e 10
        E 105 85 44 47
        E 6 95 40 4d
        E 16 95 3c 31
        E 864 85 3c 47
        E 12 85 40 2c
        E 167 95 40 55
        E 62 95 37 01
        E 421 85 37 3e
        E 5 85 40 35
        E 217 95 39 4f
        E 2 95 40 4a
        E 92 85 40 32
        E 21 85 39 1c
        E 110 95 3e 52
        E 2 95 3b 44
        E 742 85 3e 2b
        E 56 85 3b 2b
        E 189 95 43 3b
        E 1 95 3e 40
        E 645 85 43 1f
        E 46 95 42 5b
        E 99 85 3e 01
        E 103 85 42 3f
        E 8 95 3e 52
        E 2 95 3b 42
        E 1438 85 3e 4d
        E 2 85 3b 4d
        E 472 b0 7b 00
        GUID {08362CAB-CBCC-FA48-8536-EC52707507EF}
        IGNTEMPO 0 120 4 4
        SRCCOLOR 926
        VELLANE -1 86 6
      >
    >
  >
  <TRACK {77D177E7-A732-064C-86C3-03E7D7DFD9A4}
    NAME "strings (bass) - National_Anthems_-_Andorra"
    PEAKCOL 16576
    BEAT -1
    AUTOMODE 0
    VOLPAN 1 0 -1 -1 1
    MUTESOLO 0 0 0
    IPHASE 0
    ISBUS 0 0
    BUSCOMP 0 0
    SHOWINMIX 0 0.6667 0.290323 0 0.5 0 0 0
    FREEMODE 0
    SEL 0
    REC 0 0 0 0 0 0 0
    VU 2
    TRACKHEIGHT 0 0
    INQ 0 0 0 0.5 100 0 0 100
    NCHAN 2
    FX 1
    TRACKID {77D177E7-A732-064C-86C3-03E7D7DFD9A4}
    PERF 0
    MIDIOUT -1
    MAINSEND 1 0
    <ITEM
      POSITION 0
      SNAPOFFS 0
      LENGTH 52
      LOOP 1
      ALLTAKES 0
      FADEIN 1 0 0 1 0 0
      FADEOUT 1 0 0 1 0 0
      MUTE 0
      SEL 0
      IGUID {417C867C-8170-6947-9E25-F335C05D6141}
      IID 7
      NAME "strings (bass) - National_Anthems_-_Andorra.mid"
      VOLPAN 1 0 1 -1
      SOFFS 0 0
      PLAYRATE 1 1 0 -1 0 0.0025
      CHANMODE 0
      GUID {13E6675F-B913-0543-A7B5-E4E51F428FF4}
      <SOURCE MIDI
        HASDATA 1 480 QN
        POOLEDEVTS {CCB55157-EBA3-6F42-AB2F-ABF1C6D68593}
        <X 0 0 0 0 3 "strings (bass)"
          /wNzdHJpbmdzIChiYXNzKQ==
        >
        <X 0 0 0 0 4 "Sound Canvas"
          /wRTb3VuZCBDYW52YXM=
        >
        E 0 96 26 60
        E 451 86 26 3d
        E 5 96 2b 58
        E 431 86 2b 01
        E 22 96 2a 62
        E 256 86 2a 2f
        E 79 96 28 5d
        E 100 86 28 32
        E 58 96 26 5e
        E 385 86 26 19
        E 87 96 24 58
        E 438 86 24 20
        E 50 96 23 65
        E 159 86 23 31
        E 79 96 24 5c
        E 151 86 24 2b
        E 93 96 26 61
        E 438 86 26 01
        E 20 96 1f 65
        E 404 86 1f 10
        E 103 96 29 65
        E 412 86 29 12
        E 75 96 28 61
        E 388 86 28 2b
        E 98 96 27 67
        E 409 86 27 45
        E 53 96 26 61
        E 404 86 26 30
        E 77 96 28 61
        E 401 86 28 32
        E 86 96 26 61
        E 1283 86 26 34
        E 163 96 26 65
        E 443 86 26 21
        E 44 96 2b 60
        E 451 86 2b 07
        E 32 96 2a 63
        E 242 86 2a 2a
        E 79 96 28 62
        E 104 86 28 3d
        E 58 96 26 5f
        E 383 86 26 36
        E 86 96 24 5f
        E 373 86 24 07
        E 98 96 23 69
        E 255 86 23 33
        E 70 96 24 5c
        E 134 86 24 28
        E 39 96 26 62
        E 362 86 26 24
        E 120 96 2b 5f
        E 393 86 2b 17
        E 74 96 29 66
        E 398 86 29 1c
        E 83 96 28 62
        E 388 86 28 2a
        E 80 96 28 63
        E 506 96 26 63
        E 15 86 28 2b
        E 391 86 26 30
        E 54 96 26 61
        E 209 86 26 2c
        E 113 96 26 5d
        E 140 86 26 3e
        E 7 96 1f 61
        E 1138 86 1f 2f
        E 342 96 2b 5c
        E 149 96 28 5e
        E 2 86 2b 2c
        E 116 86 28 25
        E 26 96 2b 55
        E 154 86 2b 2d
        E 30 96 24 5f
        E 386 86 24 45
        E 74 96 24 5a
        E 221 86 24 31
        E 92 96 28 58
        E 148 86 28 01
        E 38 96 2b 58
        E 374 86 2b 01
        E 117 96 1f 65
        E 423 86 1f 27
        E 21 96 26 61
        E 1217 86 26 14
        E 222 96 26 63
        E 480 96 21 63
        E 18 86 26 2b
        E 872 86 21 4c
        E 76 96 21 60
        E 897 86 21 01
        E 82 96 26 66
        E 455 96 21 64
        E 22 86 26 14
        E 452 86 21 01
        E 19 96 1a 59
        E 290 86 1a 4a
        E 183 96 2b 54
        E 165 96 28 61
        E 18 86 2b 0b
        E 132 86 28 2b
        E 1 96 2b 51
        E 188 96 24 61
        E 1 86 2b 20
        E 391 86 24 36
        E 86 96 24 62
        E 255 86 24 2c
        E 68 96 28 5e
        E 146 86 28 18
        E 22 96 2b 57
        E 351 86 2b 01
        E 119 96 1f 64
        E 464 96 26 5e
        E 9 86 1f 48
        E 1244 86 26 1e
        E 184 96 26 5b
        E 421 86 26 1a
        E 45 96 21 66
        E 916 86 21 42
        E 65 96 21 60
        E 966 86 21 49
        E 10 96 26 68
        E 462 96 21 68
        E 21 86 26 2c
        E 479 96 1a 61
        E 4 86 21 48
        E 445 86 1a 4b
        E 488 96 1f 62
        E 199 86 1f 37
        E 29 96 2b 55
        E 223 86 2b 01
        E 26 96 2a 62
        E 192 86 2a 21
        E 54 96 28 60
        E 183 86 28 2b
        E 61 96 26 5f
        E 167 86 26 25
        E 69 96 28 63
        E 129 86 28 24
        E 101 96 26 62
        E 150 86 26 29
        E 79 96 24 5d
        E 186 86 24 11
        E 71 96 23 65
        E 249 86 23 2d
        E 62 96 24 5f
        E 134 86 24 2c
        E 39 96 26 64
        E 387 86 26 01
        E 75 96 1f 61
        E 392 86 1f 40
        E 83 96 29 69
        E 442 86 29 25
        E 42 96 28 58
        E 464 86 28 06
        E 26 96 27 63
        E 406 86 27 01
        E 75 96 26 60
        E 473 96 28 5a
        E 4 86 26 40
        E 478 86 28 33
        E 4 96 26 61
        E 895 86 26 33
        E 68 96 26 5c
        E 347 86 26 1a
        E 115 96 26 60
        E 348 86 26 01
        E 133 96 1f 60
        E 248 86 1f 4b
        E 9 96 2b 55
        E 238 86 2b 1e
        E 10 96 2a 63
        E 187 86 2a 0c
        E 44 96 28 5d
        E 176 86 28 30
        E 70 96 26 61
        E 199 86 26 37
        E 22 96 28 56
        E 216 86 28 1b
        E 43 96 26 62
        E 159 86 26 28
        E 80 96 24 60
        E 157 86 24 01
        E 101 96 23 64
        E 477 96 2d 60
        E 11 86 23 54
        E 430 86 2d 0c
        E 34 96 2b 55
        E 434 86 2b 25
        E 43 96 2a 65
        E 421 86 2a 07
        E 77 96 28 60
        E 468 86 28 3d
        E 26 96 29 68
        E 241 86 29 17
        E 48 96 28 61
        E 165 86 28 01
        E 27 96 21 68
        E 415 86 21 3f
        E 42 96 23 64
        E 419 86 23 1b
        E 63 96 24 63
        E 932 86 24 48
        E 27 96 24 53
        E 660 86 24 2a
        E 116 96 24 5c
        E 149 86 24 46
        E 24 96 26 64
        E 662 86 26 1b
        E 115 96 26 60
        E 104 86 26 47
        E 70 96 26 65
        E 661 86 26 3a
        E 133 96 26 68
        E 172 86 26 2e
        E 16 96 1f 6f
        E 1422 86 1f 60
        E 13 b0 7b 00
        GUID {99B66243-F764-7D48-94DF-8F8210F9012A}
        IGNTEMPO 0 120 4 4
        SRCCOLOR 927
        VELLANE -1 86 6
      >
    >
  >
  <TRACK {F11259BD-3380-2540-96A5-BE00DD17B334}
    NAME ""
    PEAKCOL 16576
    BEAT -1
    AUTOMODE 0
    VOLPAN 1 0 -1 -1 1
    MUTESOLO 0 0 0
    IPHASE 0
    ISBUS 0 0
    BUSCOMP 0 0
    SHOWINMIX 1 0.6667 0.290323 1 0.5 0 0 0
    FREEMODE 0
    SEL 0
    REC 0 0 0 0 0 0 0
    VU 2
    TRACKHEIGHT 0 0
    INQ 0 0 0 0.5 100 0 0 100
    NCHAN 2
    FX 1
    TRACKID {F11259BD-3380-2540-96A5-BE00DD17B334}
    PERF 0
    MIDIOUT -1
    MAINSEND 1 0
    <ITEM
      POSITION 0
      SNAPOFFS 0
      LENGTH 52.5
      LOOP 1
      ALLTAKES 0
      FADEIN 1 0 0 1 0 0
      FADEOUT 1 0 0 1 0 0
      MUTE 0
      SEL 0
      YPOS 0 0.2
      IGUID {E5FC48C3-405A-894B-880C-96451462E864}
      IID 15
      NAME "trumpet(s) - National_Anthems_-_Andorra.mid"
      VOLPAN 1 0 1 -1
      SOFFS 0 0
      PLAYRATE 1 1 0 -1 0 0.0025
      CHANMODE 0
      GUID {10104F6A-DEAB-B144-8FBE-FB06FF6296F8}
      <SOURCE MIDI
        HASDATA 1 480 QN
        POOLEDEVTS {9D8DC3E9-BC08-4049-9B25-A9C177F7B553}
        <X 0 0 0 0 3 trumpet(s)
          /wN0cnVtcGV0KHMp
        >
        <X 0 0 0 0 4 "Sound Canvas"
          /wRTb3VuZCBDYW52YXM=
        >
        E 0 c0 38 00
        E 0 b0 01 00
        E 0 b0 07 7f
        E 0 b0 40 00
        E 0 90 3e 5e
        E 1 e0 00 40
        E 0 b0 5b 7f
        E 0 b0 5d 52
        E 0 b0 0a 54
        E 0 b0 0b 7f
        E 112 80 3e 2b
        E 14 90 3b 56
        E 98 80 3b 31
        E 65 90 3e 62
        E 111 80 3e 32
        E 66 90 43 6f
        E 403 80 43 48
        E 68 90 43 67
        E 209 80 43 41
        E 109 90 43 68
        E 118 80 43 49
        E 52 90 45 68
        E 421 80 45 3f
        E 67 90 45 6a
        E 330 80 45 23
        E 132 90 47 67
        E 683 80 47 1e
        E 48 90 45 5c
        E 191 80 45 25
        E 52 90 43 6a
        E 408 80 43 28
        E 75 90 47 67
        E 211 80 47 20
        E 112 90 47 5d
        E 124 80 47 36
        E 39 90 4a 69
        E 395 80 4a 30
        E 57 90 48 61
        E 378 80 48 39
        E 94 90 47 62
        E 439 80 47 30
        E 29 90 43 68
        E 434 80 43 27
        E 68 90 45 69
        E 1321 80 45 29
        E 141 90 3e 69
        E 140 80 3e 43
        E 8 90 3b 50
        E 96 80 3b 27
        E 52 90 3e 67
        E 104 80 3e 35
        E 65 90 43 71
        E 404 80 43 44
        E 92 90 43 6e
        E 364 80 43 38
        E 109 90 45 6a
        E 402 80 45 34
        E 75 90 45 67
        E 397 80 45 26
        E 86 90 47 69
        E 632 80 47 24
        E 92 90 45 69
        E 171 80 45 2b
        E 70 90 43 6b
        E 356 80 43 28
        E 117 90 47 62
        E 428 80 47 35
        E 43 90 4a 67
        E 429 80 4a 29
        E 49 90 48 65
        E 450 80 48 3c
        E 22 90 47 5c
        E 490 80 47 46
        E 7 90 45 67
        E 265 80 45 36
        E 84 90 45 67
        E 76 80 45 3f
        E 59 90 43 6f
        E 908 80 43 38
        E 72 90 43 6e
        E 312 80 43 3e
        E 165 90 43 71
        E 113 80 43 4f
        E 13 90 40 60
        E 110 80 40 28
        E 50 90 43 6d
        E 134 80 43 35
        E 46 90 48 66
        E 412 80 48 47
        E 57 90 48 66
        E 252 80 48 39
        E 95 90 48 62
        E 107 80 48 43
        E 47 90 47 66
        E 381 80 47 2f
        E 88 90 47 68
        E 328 80 47 2c
        E 134 90 45 6b
        E 644 80 45 29
        E 65 90 47 64
        E 217 80 47 34
        E 47 90 45 6c
        E 377 80 45 2a
        E 111 90 45 69
        E 223 80 45 39
        E 98 90 45 64
        E 79 80 45 38
        E 83 90 47 6c
        E 394 80 47 41
        E 71 90 43 6c
        E 397 80 43 1d
        E 80 90 40 66
        E 424 80 40 16
        E 64 90 45 6d
        E 439 80 45 12
        E 36 90 42 69
        E 682 80 42 35
        E 33 90 40 61
        E 238 80 40 3c
        E 20 90 3e 66
        E 323 80 3e 05
        E 159 90 43 6f
        E 154 90 40 63
        E 2 80 43 53
        E 110 80 40 29
        E 37 90 43 68
        E 145 80 43 4d
        E 23 90 48 62
        E 413 80 48 48
        E 66 90 48 66
        E 401 80 48 3e
        E 78 90 47 6a
        E 413 80 47 3c
        E 80 90 47 66
        E 250 80 47 3d
        E 78 90 47 5e
        E 86 80 47 44
        E 68 90 45 6c
        E 655 80 45 23
        E 60 90 47 62
        E 192 80 47 3c
        E 44 90 45 6e
        E 366 80 45 34
        E 113 90 45 6c
        E 225 80 45 3e
        E 99 90 45 66
        E 92 80 45 42
        E 66 90 47 6c
        E 398 80 47 3b
        E 68 90 45 6a
        E 404 80 45 32
        E 75 90 47 6b
        E 440 80 47 25
        E 54 90 45 6b
        E 454 80 45 44
        E 20 90 3e 67
        E 1177 80 3e 26
        E 277 90 3e 68
        E 125 80 3e 36
        E 25 90 3b 62
        E 115 80 3b 33
        E 32 90 3e 65
        E 120 80 3e 34
        E 51 90 43 71
        E 610 80 43 42
        E 103 90 43 70
        E 151 80 43 45
        E 60 90 45 68
        E 273 80 45 36
        E 48 90 45 64
        E 131 80 45 48
        E 46 90 45 69
        E 223 80 45 27
        E 87 90 45 66
        E 96 80 45 43
        E 72 90 47 6b
        E 714 80 47 39
        E 37 90 45 67
        E 187 80 45 2b
        E 46 90 43 6d
        E 441 80 43 07
        E 33 90 47 64
        E 156 90 43 6e
        E 6 80 47 3f
        E 112 80 43 25
        E 24 90 47 64
        E 150 80 47 2a
        E 36 90 4a 6a
        E 380 80 4a 41
        E 89 90 48 6d
        E 402 80 48 3a
        E 78 90 47 67
        E 468 80 47 37
        E 19 90 43 70
        E 221 80 43 39
        E 100 90 43 6a
        E 81 80 43 49
        E 75 90 45 6c
        E 1277 80 45 35
        E 183 90 3e 69
        E 129 80 3e 41
        E 13 90 3b 5e
        E 107 80 3b 36
        E 34 90 3e 66
        E 121 80 3e 3a
        E 58 90 43 6e
        E 427 80 43 40
        E 79 90 43 6f
        E 202 80 43 40
        E 106 90 43 69
        E 109 80 43 46
        E 40 90 45 68
        E 426 80 45 3d
        E 64 90 45 6c
        E 194 80 45 30
        E 117 90 45 65
        E 112 80 45 42
        E 51 90 47 6c
        E 1317 80 47 2d
        E 142 90 47 66
        E 192 80 47 30
        E 126 90 47 65
        E 146 80 47 3c
        E 27 90 4c 6b
        E 397 80 4c 2b
        E 43 90 4a 6a
        E 435 80 4a 2f
        E 45 90 48 6a
        E 440 80 48 3d
        E 41 90 47 69
        E 441 80 47 12
        E 27 90 45 6a
        E 971 90 43 6f
        E 1 80 45 42
        E 661 80 43 43
        E 152 90 45 69
        E 103 80 45 43
        E 57 90 47 6c
        E 736 80 47 30
        E 77 90 47 67
        E 127 80 47 4b
        E 32 90 45 6d
        E 680 80 45 3c
        E 95 90 45 68
        E 113 80 45 3f
        E 47 90 43 71
        E 1481 80 43 49
        E 456 b0 7b 00
        GUID {C3EC73D0-451B-184F-B3B2-71B659407BA4}
        IGNTEMPO 0 120 4 4
        SRCCOLOR 1897
        VELLANE 31 86 6
      >
    >
    <ITEM
      POSITION 0
      SNAPOFFS 0
      LENGTH 52.5
      LOOP 1
      ALLTAKES 0
      FADEIN 1 0 0 1 0 0
      FADEOUT 1 0 0 1 0 0
      MUTE 0
      SEL 0
      YPOS 0.2 0.2
      IGUID {6A68AD70-A13D-F145-A0DA-3207AFCF854D}
      IID 16
      NAME "fr. horn(s) - National_Anthems_-_Andorra.mid"
      VOLPAN 1 0 1 -1
      SOFFS 0 0
      PLAYRATE 1 1 0 -1 0 0.0025
      CHANMODE 0
      GUID {26B572B7-6CE3-9B43-9E1B-155DE1DF45D3}
      <SOURCE MIDI
        HASDATA 1 480 QN
        POOLEDEVTS {ADF5FC5D-0EB9-FC42-B443-59E17ADCF396}
        <X 0 0 0 0 3 "fr. horn(s)"
          /wNmci4gaG9ybihzKQ==
        >
        <X 0 0 0 0 4 "Sound Canvas"
          /wRTb3VuZCBDYW52YXM=
        >
        E 0 c1 3c 00
        E 0 b1 01 00
        E 0 b1 07 7f
        E 0 b1 40 00
        E 0 91 3e 62
        E 1 e1 00 40
        E 0 b1 5b 7f
        E 0 b1 5d 2e
        E 0 b1 0a 33
        E 0 b1 0b 7f
        E 118 91 3b 52
        E 1 81 3e 3d
        E 170 81 3b 01
        E 1 91 3e 63
        E 95 81 3e 26
        E 94 91 3e 62
        E 1 91 3b 52
        E 367 81 3b 1a
        E 10 81 3e 37
        E 74 91 3e 5b
        E 5 91 3b 58
        E 219 81 3b 27
        E 9 81 3e 35
        E 83 91 3e 59
        E 8 91 3b 58
        E 72 81 3b 31
        E 22 81 3e 35
        E 65 91 3e 60
        E 2 91 42 65
        E 354 81 3e 0b
        E 24 81 42 32
        E 89 91 42 5b
        E 9 91 3e 5f
        E 327 81 3e 02
        E 65 81 42 12
        E 94 91 43 69
        E 1 91 3e 62
        E 611 81 3e 27
        E 91 81 43 4e
        E 24 91 42 5b
        E 1 91 3e 5d
        E 146 81 3e 39
        E 47 81 42 29
        E 42 91 3e 5d
        E 1 91 3b 50
        E 376 81 3e 36
        E 31 81 3b 29
        E 77 91 3e 62
        E 391 81 3e 05
        E 100 91 3e 5e
        E 3 91 43 61
        E 446 91 3c 51
        E 7 81 3e 42
        E 478 81 3c 39
        E 8 91 3e 4f
        E 452 81 3e 29
        E 4 81 43 49
        E 16 91 3b 4f
        E 494 91 3e 56
        E 0 91 43 63
        E 4 81 3b 28
        E 439 81 43 48
        E 22 91 42 5a
        E 253 81 42 36
        E 77 91 40 4e
        E 154 81 40 4a
        E 4 91 42 5a
        E 383 81 3e 30
        E 3 81 42 3e
        E 109 91 3e 59
        E 134 81 3e 2a
        E 2 91 3b 4a
        E 164 91 3e 56
        E 1 81 3b 23
        E 95 81 3e 1b
        E 80 91 3e 59
        E 2 91 3b 48
        E 386 81 3e 34
        E 6 81 3b 0b
        E 81 91 3e 57
        E 2 91 3b 4c
        E 232 81 3e 2d
        E 1 81 3b 23
        E 99 91 3e 53
        E 4 91 3b 52
        E 96 81 3b 21
        E 6 81 3e 25
        E 67 91 3e 57
        E 2 91 42 62
        E 362 81 3e 2d
        E 8 81 42 45
        E 96 91 42 62
        E 3 91 3e 55
        E 305 81 3e 0e
        E 46 81 42 2c
        E 108 91 43 67
        E 1 91 3e 5d
        E 612 81 3e 33
        E 102 91 42 62
        E 6 91 3c 55
        E 14 81 43 27
        E 127 81 3c 2d
        E 63 81 42 35
        E 43 91 3e 5a
        E 3 91 3b 52
        E 368 81 3e 28
        E 42 81 3b 12
        E 74 91 3e 64
        E 353 81 3e 14
        E 122 91 43 60
        E 4 91 3e 59
        E 440 81 3e 3e
        E 7 91 3c 53
        E 466 81 3c 2d
        E 19 91 3e 4b
        E 379 81 3e 09
        E 90 81 43 3c
        E 31 91 3e 57
        E 1 91 42 56
        E 208 81 42 21
        E 22 81 3e 1f
        E 98 91 42 58
        E 4 91 3e 57
        E 91 81 3e 36
        E 30 81 42 3f
        E 29 91 3e 55
        E 2 91 3b 4d
        E 848 81 3b 29
        E 4 81 3e 3b
        E 101 91 3e 4d
        E 6 91 3b 4e
        E 266 81 3e 0e
        E 23 81 3b 1c
        E 192 91 43 66
        E 148 81 43 42
        E 2 91 40 5c
        E 128 81 40 15
        E 12 91 43 58
        E 92 81 43 3e
        E 94 91 40 53
        E 2 91 43 5a
        E 418 81 43 22
        E 8 81 40 06
        E 71 91 43 5d
        E 2 91 40 4c
        E 216 81 43 37
        E 2 81 40 1e
        E 89 91 43 4f
        E 1 91 40 4b
        E 80 81 40 28
        E 7 81 43 3d
        E 80 91 43 60
        E 3 91 3e 56
        E 354 81 43 39
        E 3 81 3e 26
        E 96 91 43 60
        E 7 91 3e 55
        E 310 81 3e 08
        E 45 81 43 37
        E 110 91 42 55
        E 6 91 3e 53
        E 714 81 42 08
        E 17 91 43 62
        E 209 81 43 32
        E 43 91 42 5d
        E 335 81 42 34
        E 141 91 42 68
        E 136 81 3e 2b
        E 151 81 42 3f
        E 63 91 42 62
        E 122 81 42 45
        E 35 91 43 67
        E 431 81 43 4d
        E 2 91 40 60
        E 482 81 40 29
        E 5 91 3d 5b
        E 424 81 3d 32
        E 77 91 3d 62
        E 386 81 3d 31
        E 88 91 3e 5f
        E 694 81 3e 2b
        E 25 91 3d 5d
        E 218 81 3d 3a
        E 5 91 3e 53
        E 327 81 3e 1c
        E 167 91 43 64
        E 112 81 43 3a
        E 24 91 40 4e
        E 138 81 40 21
        E 14 91 43 5a
        E 84 81 43 45
        E 99 91 40 55
        E 6 91 43 62
        E 405 81 43 33
        E 9 81 40 31
        E 76 91 40 51
        E 1 91 43 60
        E 346 81 43 18
        E 36 81 40 2b
        E 90 91 43 5d
        E 3 91 3e 5b
        E 376 81 3e 14
        E 7 81 43 37
        E 90 91 43 68
        E 4 91 3e 5c
        E 230 81 3e 21
        E 1 81 43 3c
        E 120 91 43 60
        E 2 91 3e 59
        E 77 81 3e 2c
        E 13 81 43 43
        E 52 91 3e 5c
        E 1 91 42 63
        E 646 81 42 29
        E 38 91 43 6b
        E 209 81 43 3d
        E 46 91 42 65
        E 343 81 42 4d
        E 159 91 42 6c
        E 179 81 42 3c
        E 146 91 42 63
        E 100 81 3e 01
        E 2 81 42 42
        E 48 91 43 66
        E 1 91 40 60
        E 797 81 40 3a
        E 133 81 43 4c
        E 15 91 3d 4a
        E 2 91 40 5b
        E 839 81 3d 01
        E 107 81 40 23
        E 2 91 3e 5c
        E 1173 81 3e 06
        E 309 91 3e 5f
        E 144 91 3b 51
        E 8 81 3e 2f
        E 135 81 3b 18
        E 1 91 3e 54
        E 107 81 3e 2d
        E 59 91 3e 56
        E 0 91 3b 4d
        E 576 81 3e 3b
        E 0 81 3b 27
        E 107 91 3e 52
        E 0 91 3b 53
        E 144 81 3e 25
        E 17 81 3b 2a
        E 91 91 3e 5d
        E 3 91 42 61
        E 231 81 3e 35
        E 2 81 42 3f
        E 84 91 42 5b
        E 1 91 3e 57
        E 81 81 3e 3e
        E 6 81 42 46
        E 55 91 42 66
        E 1 91 3e 5a
        E 230 81 42 3e
        E 1 81 3e 32
        E 83 91 42 5d
        E 8 91 3e 56
        E 71 81 3e 37
        E 20 81 42 46
        E 74 91 43 66
        E 2 91 3e 58
        E 610 81 3e 30
        E 79 81 43 01
        E 42 91 42 5f
        E 1 91 3e 55
        E 136 81 3e 25
        E 49 81 42 13
        E 69 91 3e 57
        E 4 91 3b 4f
        E 431 81 3b 40
        E 10 81 3e 27
        E 513 91 43 61
        E 0 91 3e 59
        E 461 81 3e 34
        E 7 91 3c 50
        E 386 81 3c 2f
        E 4 81 43 3c
        E 90 91 43 62
        E 3 91 3b 4f
        E 378 81 3b 1d
        E 89 81 43 47
        E 15 91 3b 4f
        E 0 91 3e 56
        E 219 81 3b 28
        E 0 81 3e 2c
        E 112 91 3b 43
        E 2 91 3e 49
        E 72 81 3b 24
        E 7 81 3e 27
        E 83 91 43 57
        E 1 91 3e 53
        E 450 81 43 40
        E 14 91 42 5a
        E 218 81 42 3b
        E 18 91 40 4e
        E 211 81 40 4e
        E 13 91 42 56
        E 322 81 3e 20
        E 41 81 42 2d
        E 117 91 3e 5a
        E 151 91 3b 4d
        E 3 81 3e 36
        E 144 81 3b 20
        E 6 91 3e 59
        E 88 81 3e 2e
        E 107 91 3e 56
        E 2 91 3b 4c
        E 388 81 3e 37
        E 6 81 3b 13
        E 90 91 3e 5d
        E 4 91 3b 4d
        E 211 81 3b 22
        E 5 81 3e 39
        E 99 91 3e 52
        E 4 91 3b 52
        E 79 81 3b 35
        E 2 81 3e 38
        E 74 91 42 5e
        E 1 91 3e 5e
        E 359 81 3e 2c
        E 2 81 42 38
        E 98 91 42 61
        E 2 91 3e 57
        E 232 81 42 37
        E 5 81 3e 2a
        E 96 91 42 5b
        E 4 91 3e 56
        E 106 81 3e 3e
        E 14 81 42 4b
        E 53 91 3f 51
        E 2 91 42 5f
        E 1257 81 3f 18
        E 68 81 42 1e
        E 130 91 3f 5f
        E 7 91 45 63
        E 215 81 3f 23
        E 0 81 45 39
        E 75 91 3f 52
        E 15 91 45 60
        E 77 81 3f 2f
        E 12 81 45 2d
        E 75 91 44 5f
        E 8 91 40 5e
        E 342 81 40 22
        E 86 81 44 01
        E 26 91 47 5d
        E 1 91 40 5b
        E 334 81 40 01
        E 89 81 47 3a
        E 55 91 40 56
        E 2 91 45 55
        E 352 81 40 27
        E 45 81 45 23
        E 70 91 44 51
        E 16 91 3e 5a
        E 345 81 3e 01
        E 79 81 44 3f
        E 37 91 40 5a
        E 8 91 3c 4f
        E 754 81 3c 3d
        E 26 81 40 2d
        E 174 91 37 45
        E 7 91 40 50
        E 578 81 37 1f
        E 29 81 40 0b
        E 204 91 40 50
        E 4 91 39 48
        E 2 91 43 5b
        E 93 81 40 3a
        E 11 81 43 01
        E 7 81 39 06
        E 43 91 3b 4f
        E 0 91 43 55
        E 5 91 3e 52
        E 607 81 3b 23
        E 6 81 3e 2e
        E 2 81 43 2a
        E 158 91 43 62
        E 3 91 3b 53
        E 2 91 3e 53
        E 100 81 43 28
        E 0 81 3b 2b
        E 1 81 3e 36
        E 80 91 43 63
        E 6 91 3e 5f
        E 2 91 39 50
        E 612 81 39 01
        E 14 81 3e 17
        E 51 81 43 45
        E 112 91 39 52
        E 0 91 42 5d
        E 0 91 3e 5a
        E 101 81 39 3c
        E 7 81 3e 29
        E 5 81 42 45
        E 66 91 3b 53
        E 1 91 3e 5e
        E 1417 81 3e 53
        E 6 81 3b 53
        E 476 b0 7b 00
        GUID {12B09219-E9FD-A84C-B2DE-A7F5B2465CAC}
        IGNTEMPO 0 120 4 4
        SRCCOLOR 1898
        VELLANE -1 86 6
      >
    >
    <ITEM
      POSITION 0
      SNAPOFFS 0
      LENGTH 52.5
      LOOP 1
      ALLTAKES 0
      FADEIN 1 0 0 1 0 0
      FADEOUT 1 0 0 1 0 0
      MUTE 0
      SEL 0
      YPOS 0.4 0.2
      IGUID {C536A8C2-3224-2140-9DE1-FD1E281D1C3B}
      IID 17
      NAME "trombone(s) - National_Anthems_-_Andorra.mid"
      VOLPAN 1 0 1 -1
      SOFFS 0 0
      PLAYRATE 1 1 0 -1 0 0.0025
      CHANMODE 0
      GUID {CC40EA70-6321-9C45-BCF5-94EA0B3C47A0}
      <SOURCE MIDI
        HASDATA 1 480 QN
        POOLEDEVTS {CE193596-A93F-F34F-AA2A-57D5704013FE}
        <X 0 0 0 0 3 trombone(s)
          /wN0cm9tYm9uZShzKQ==
        >
        <X 0 0 0 0 4 "Sound Canvas"
          /wRTb3VuZCBDYW52YXM=
        >
        E 0 c2 39 00
        E 0 b2 01 00
        E 0 b2 07 78
        E 0 b2 40 00
        E 0 92 32 60
        E 1 e2 00 40
        E 0 b2 5b 7f
        E 0 b2 5d 4c
        E 0 b2 0a 52
        E 0 b2 0b 7f
        E 355 82 32 23
        E 102 92 37 5c
        E 408 82 37 01
        E 58 92 36 68
        E 220 82 36 38
        E 110 92 34 61
        E 111 82 34 34
        E 57 92 32 62
        E 342 82 32 15
        E 124 92 30 5e
        E 370 82 30 01
        E 110 92 2f 62
        E 149 82 2f 2c
        E 83 92 30 57
        E 138 82 30 2d
        E 104 92 32 60
        E 367 82 32 02
        E 144 92 2b 5e
        E 347 82 2b 1e
        E 145 92 35 68
        E 326 82 35 1f
        E 128 92 34 5d
        E 376 82 34 31
        E 104 92 33 63
        E 372 82 33 3e
        E 89 92 32 5b
        E 348 82 32 30
        E 146 92 34 61
        E 313 82 34 07
        E 151 92 32 60
        E 1272 82 32 1e
        E 214 92 32 61
        E 342 82 32 3b
        E 125 92 37 5b
        E 383 82 37 27
        E 94 92 36 63
        E 215 82 36 3f
        E 120 92 34 61
        E 102 82 34 40
        E 61 92 32 5f
        E 348 82 32 01
        E 111 92 30 63
        E 365 82 30 26
        E 101 92 2f 66
        E 235 82 2f 2c
        E 93 92 30 5d
        E 115 82 30 22
        E 44 92 32 61
        E 377 82 32 3d
        E 98 92 37 62
        E 359 82 37 11
        E 114 92 35 67
        E 422 82 35 25
        E 85 92 34 61
        E 321 82 34 34
        E 149 92 34 60
        E 366 82 34 10
        E 108 92 32 5f
        E 373 82 32 24
        E 102 92 32 63
        E 223 82 32 44
        E 121 92 32 62
        E 105 82 32 14
        E 57 92 37 5f
        E 1259 82 37 26
        E 170 92 37 62
        E 162 92 34 61
        E 2 82 37 15
        E 121 82 34 36
        E 14 92 37 59
        E 170 82 37 0a
        E 28 92 30 66
        E 390 82 30 2f
        E 77 92 30 62
        E 221 82 30 32
        E 98 92 34 53
        E 119 82 34 1c
        E 46 92 37 5f
        E 362 82 37 23
        E 136 92 37 62
        E 307 82 37 26
        E 167 92 39 63
        E 612 82 39 1a
        E 90 92 37 5b
        E 152 82 37 1b
        E 83 92 39 62
        E 360 82 39 22
        E 126 92 36 66
        E 397 82 36 2a
        E 74 92 34 64
        E 249 82 34 2e
        E 77 92 36 62
        E 102 82 36 44
        E 66 92 37 5d
        E 155 82 37 20
        E 135 92 39 5e
        E 126 82 39 2c
        E 59 92 3a 68
        E 410 82 3a 26
        E 82 92 39 68
        E 317 82 39 24
        E 151 92 39 66
        E 1227 82 39 02
        E 217 92 37 65
        E 143 92 34 65
        E 14 82 37 1a
        E 105 82 34 47
        E 16 92 37 58
        E 100 82 37 48
        E 124 92 3c 69
        E 397 82 3c 02
        E 59 92 34 66
        E 283 82 34 38
        E 39 92 37 5b
        E 107 82 37 2b
        E 77 92 37 65
        E 354 82 37 36
        E 112 92 37 62
        E 299 82 37 10
        E 165 92 39 63
        E 627 82 39 24
        E 92 92 37 5b
        E 178 82 37 0f
        E 70 92 39 60
        E 396 82 39 09
        E 63 92 32 5f
        E 330 82 32 0d
        E 160 92 31 69
        E 262 82 31 36
        E 54 92 32 62
        E 145 82 32 37
        E 35 92 34 60
        E 187 82 34 26
        E 97 92 36 61
        E 116 82 36 43
        E 72 92 37 5f
        E 363 82 37 1a
        E 109 92 39 65
        E 314 82 39 19
        E 170 92 39 5b
        E 1 92 36 5b
        E 1360 82 39 36
        E 7 82 36 50
        E 550 92 2b 69
        E 165 82 2b 3d
        E 74 92 37 5b
        E 152 82 37 30
        E 90 92 36 68
        E 144 82 36 2f
        E 93 92 34 63
        E 127 82 34 2a
        E 113 92 32 61
        E 143 82 32 31
        E 92 92 34 5e
        E 134 82 34 3a
        E 111 92 32 52
        E 186 82 32 01
        E 52 92 30 61
        E 132 82 30 2b
        E 114 92 2f 68
        E 220 82 2f 28
        E 97 92 30 5e
        E 113 82 30 32
        E 51 92 32 62
        E 329 82 32 15
        E 133 92 2b 62
        E 319 82 2b 36
        E 172 92 35 69
        E 157 82 35 33
        E 79 92 37 5c
        E 160 82 37 35
        E 87 92 34 62
        E 166 82 34 10
        E 68 92 37 5a
        E 154 82 37 26
        E 87 92 33 66
        E 195 82 33 22
        E 38 92 37 5a
        E 158 82 37 31
        E 80 92 32 62
        E 177 82 32 0d
        E 70 92 37 56
        E 145 82 37 2a
        E 101 92 34 5e
        E 307 82 34 0b
        E 189 92 32 60
        E 1202 82 32 3a
        E 237 92 32 62
        E 372 82 32 0a
        E 77 92 2b 66
        E 186 82 2b 01
        E 50 92 37 5f
        E 163 82 37 1f
        E 82 92 36 65
        E 161 82 36 28
        E 82 92 34 61
        E 147 82 34 2c
        E 93 92 32 60
        E 192 82 32 20
        E 44 92 34 61
        E 161 82 34 32
        E 70 92 32 5f
        E 228 82 32 2d
        E 12 92 30 57
        E 189 82 30 28
        E 68 92 2f 5e
        E 434 82 2f 3e
        E 60 92 39 61
        E 394 82 39 1c
        E 83 92 37 5d
        E 411 82 37 1b
        E 89 92 36 62
        E 380 82 36 30
        E 89 92 34 64
        E 397 82 34 20
        E 93 92 35 67
        E 214 82 35 30
        E 91 92 34 5d
        E 130 82 34 3f
        E 45 92 39 63
        E 359 82 39 3b
        E 101 92 3b 5a
        E 349 82 3b 0c
        E 117 92 3c 61
        E 988 92 30 66
        E 80 82 3c 4a
        E 613 82 30 37
        E 90 92 30 64
        E 110 82 30 3e
        E 58 92 32 67
        E 647 82 32 2e
        E 142 92 32 65
        E 98 82 32 42
        E 68 92 32 65
        E 604 82 32 3e
        E 175 92 32 67
        E 156 82 32 40
        E 32 92 2b 6e
        E 1467 82 2b 5f
        E 460 b0 7b 00
        GUID {D21167F3-426A-1042-BF0F-CEE301F3D4C3}
        IGNTEMPO 0 120 4 4
        SRCCOLOR 1899
        VELLANE -1 86 6
      >
    >
    <ITEM
      POSITION 0
      SNAPOFFS 0
      LENGTH 52.5
      LOOP 1
      ALLTAKES 0
      FADEIN 1 0 0 1 0 0
      FADEOUT 1 0 0 1 0 0
      MUTE 0
      SEL 0
      YPOS 0.6 0.2
      IGUID {77EFB8B5-E28F-2449-8768-1C4AD855B77A}
      IID 20
      NAME "strings (mid) - National_Anthems_-_Andorra.mid"
      VOLPAN 1 0 1 -1
      SOFFS 0 0
      PLAYRATE 1 1 0 -1 0 0.0025
      CHANMODE 0
      GUID {D028AC8E-94C9-1D42-9F98-DD9F24ACF59C}
      <SOURCE MIDI
        HASDATA 1 480 QN
        POOLEDEVTS {5C4A38DE-9917-AC49-87E8-EC61F3260676}
        <X 0 0 0 0 3 "strings (mid)"
          /wNzdHJpbmdzIChtaWQp
        >
        <X 0 0 0 0 4 "Sound Canvas"
          /wRTb3VuZCBDYW52YXM=
        >
        E 0 c5 31 00
        E 0 b5 01 00
        E 0 b5 07 7f
        E 0 b5 40 00
        E 0 95 3e 4e
        E 1 e5 00 40
        E 0 b5 5b 7f
        E 0 b5 5d 3e
        E 0 b5 0a 5e
        E 0 b5 0b 7f
        E 366 85 3e 35
        E 85 95 3e 4a
        E 2 95 3b 4d
        E 387 85 3b 22
        E 1 85 3e 37
        E 87 95 3e 4d
        E 4 95 3b 44
        E 257 85 3e 38
        E 3 85 3b 25
        E 63 95 3e 4d
        E 3 95 3b 42
        E 153 85 3b 1c
        E 6 95 42 51
        E 823 85 3e 01
        E 101 85 42 04
        E 33 95 3e 4a
        E 9 95 43 54
        E 701 95 42 55
        E 5 85 43 3b
        E 94 85 3e 1a
        E 156 95 3e 51
        E 9 95 3b 37
        E 11 85 42 35
        E 376 85 3e 39
        E 98 95 3e 56
        E 9 85 3b 24
        E 440 95 43 5e
        E 485 95 3c 4e
        E 13 85 3e 2a
        E 471 95 3e 4c
        E 1 85 3c 22
        E 471 85 3e 3e
        E 8 95 3b 45
        E 508 95 3e 49
        E 0 95 43 62
        E 44 85 43 4d
        E 10 85 3b 41
        E 405 85 43 47
        E 19 95 42 5b
        E 300 85 42 37
        E 16 95 40 51
        E 158 85 40 43
        E 10 95 42 51
        E 326 85 3e 19
        E 67 85 42 04
        E 81 95 3e 51
        E 471 95 3b 3f
        E 821 85 3e 08
        E 157 95 42 40
        E 1 95 3e 3b
        E 26 85 3b 23
        E 806 85 3e 01
        E 90 95 3e 07
        E 14 85 42 2b
        E 14 95 43 4a
        E 701 85 3e 32
        E 3 95 42 4f
        E 16 95 3c 41
        E 11 85 43 49
        E 175 85 3c 2d
        E 73 95 3e 50
        E 6 95 3b 44
        E 25 85 42 33
        E 318 85 3e 2c
        E 112 95 3e 54
        E 19 85 3b 2c
        E 417 95 43 52
        E 492 85 3e 23
        E 10 95 3c 36
        E 427 85 3c 1f
        E 28 95 3e 45
        E 488 95 42 52
        E 12 85 43 3e
        E 380 85 3e 29
        E 111 85 42 2c
        E 3 95 3e 4a
        E 5 95 3b 3a
        E 1347 85 3b 29
        E 8 85 3e 10
        E 572 95 43 4e
        E 2 95 40 42
        E 783 85 40 12
        E 182 95 3e 34
        E 798 85 3e 24
        E 156 95 42 4b
        E 4 95 3e 3a
        E 17 85 43 2b
        E 666 85 42 34
        E 23 95 43 4f
        E 217 85 43 37
        E 17 95 42 58
        E 893 85 42 01
        E 28 85 3e 01
        E 71 95 43 5f
        E 440 85 43 48
        E 6 95 40 50
        E 456 85 40 14
        E 10 95 3d 51
        E 438 85 3d 2b
        E 57 95 3d 52
        E 462 85 3d 1e
        E 28 95 3e 4a
        E 717 85 3e 16
        E 3 95 3d 40
        E 260 95 3e 46
        E 12 85 3d 06
        E 346 85 3e 2f
        E 594 95 43 4d
        E 8 95 40 46
        E 946 85 40 21
        E 15 95 3e 2c
        E 958 85 43 40
        E 21 95 42 4e
        E 669 85 42 3d
        E 23 95 43 4d
        E 206 85 43 3b
        E 23 95 42 52
        E 846 85 3e 06
        E 0 85 42 1c
        E 124 95 43 5a
        E 3 95 40 4a
        E 832 85 40 01
        E 105 85 43 28
        E 17 95 40 42
        E 2 95 3d 4f
        E 935 95 3e 49
        E 18 85 40 01
        E 3 85 3d 37
        E 1421 85 3e 3a
        E 502 95 43 4a
        E 2 95 3e 51
        E 0 95 3b 4a
        E 836 85 3e 1c
        E 97 85 43 1a
        E 0 85 3b 27
        E 5 95 42 52
        E 2 95 3e 50
        E 876 85 42 30
        E 10 85 3e 1f
        E 78 95 3e 50
        E 0 95 43 4e
        E 708 85 43 15
        E 19 95 42 56
        E 146 85 3e 2c
        E 67 85 42 3f
        E 13 95 3e 50
        E 4 95 3b 46
        E 478 85 3e 3a
        E 1 85 3b 28
        E 483 95 3e 49
        E 3 95 43 53
        E 484 95 3c 48
        E 10 85 3e 3b
        E 359 85 3c 22
        E 101 95 3b 36
        E 368 85 3b 2b
        E 92 85 43 26
        E 37 95 3b 2f
        E 1 95 3e 32
        E 340 85 3e 24
        E 59 85 3b 30
        E 92 95 3e 4a
        E 4 95 43 49
        E 434 85 43 40
        E 13 95 42 51
        E 209 85 42 3a
        E 42 95 40 1e
        E 217 95 42 4f
        E 5 85 40 3d
        E 456 85 3e 35
        E 2 85 42 41
        E 524 95 3b 46
        E 7 95 3e 48
        E 842 85 3e 14
        E 58 85 3b 2b
        E 40 95 42 4f
        E 7 95 3e 52
        E 771 85 42 01
        E 106 85 3e 17
        E 65 95 3f 5e
        E 7 95 42 58
        E 22 95 42 58
        E 1 95 3f 47
        E 624 85 3f 01
        E 71 85 42 28
        E 598 85 3f 18
        E 94 85 42 01
        E 43 95 3f 4c
        E 14 95 45 51
        E 392 85 3f 24
        E 68 85 45 06
        E 17 95 40 47
        E 8 95 44 49
        E 474 95 47 51
        E 16 85 44 07
        E 408 85 47 30
        E 41 95 45 58
        E 371 85 40 1e
        E 99 95 44 4a
        E 1 85 45 2c
        E 16 95 3e 3c
        E 339 85 3e 10
        E 105 85 44 47
        E 6 95 40 4d
        E 16 95 3c 31
        E 864 85 3c 47
        E 12 85 40 2c
        E 167 95 40 55
        E 62 95 37 01
        E 421 85 37 3e
        E 5 85 40 35
        E 217 95 39 4f
        E 2 95 40 4a
        E 92 85 40 32
        E 21 85 39 1c
        E 110 95 3e 52
        E 2 95 3b 44
        E 742 85 3e 2b
        E 56 85 3b 2b
        E 189 95 43 3b
        E 1 95 3e 40
        E 645 85 43 1f
        E 46 95 42 5b
        E 99 85 3e 01
        E 103 85 42 3f
        E 8 95 3e 52
        E 2 95 3b 42
        E 1438 85 3e 4d
        E 2 85 3b 4d
        E 472 b0 7b 00
        GUID {79DDE68C-0CD0-F646-8B74-9A701CA925AD}
        IGNTEMPO 0 120 4 4
        SRCCOLOR 1902
        VELLANE -1 86 6
      >
    >
    <ITEM
      POSITION 0
      SNAPOFFS 0
      LENGTH 52
      LOOP 1
      ALLTAKES 0
      FADEIN 1 0 0 1 0 0
      FADEOUT 1 0 0 1 0 0
      MUTE 0
      SEL 0
      YPOS 0.8 0.2
      IGUID {F99D1550-C670-0646-91CF-48F80D1A7D66}
      IID 19
      NAME "strings (hi) - National_Anthems_-_Andorra.mid"
      VOLPAN 1 0 1 -1
      SOFFS 0 0
      PLAYRATE 1 1 0 -1 0 0.0025
      CHANMODE 0
      GUID {B6BDAFFC-A5CA-9D46-B0EB-7F79A743F104}
      <SOURCE MIDI
        HASDATA 1 480 QN
        POOLEDEVTS {33361697-2A91-4D43-BF6D-3DBEC89F95D1}
        <X 0 0 0 0 3 "strings (hi)"
          /wNzdHJpbmdzIChoaSk=
        >
        <X 0 0 0 0 4 "Sound Canvas"
          /wRTb3VuZCBDYW52YXM=
        >
        E 0 c4 30 00
        E 0 b4 01 00
        E 0 b4 07 7f
        E 0 b4 40 00
        E 0 94 4a 56
        E 0 94 3e 5b
        E 1 e4 00 40
        E 0 b4 5b 7f
        E 0 b4 5d 46
        E 0 b4 0a 34
        E 0 b4 0b 7f
        E 473 94 4f 5c
        E 2 84 4a 1f
        E 3 94 43 64
        E 2 84 3e 32
        E 394 84 43 32
        E 8 84 4f 39
        E 55 94 43 65
        E 0 94 4f 5e
        E 216 84 43 3b
        E 19 84 4f 34
        E 68 94 43 65
        E 12 94 4f 58
        E 149 84 43 36
        E 6 84 4f 28
        E 7 94 45 52
        E 6 94 51 5e
        E 404 84 45 2c
        E 9 84 51 30
        E 47 94 45 5c
        E 7 94 51 5b
        E 446 84 45 2b
        E 6 94 47 55
        E 5 94 53 56
        E 18 84 51 01
        E 708 94 51 53
        E 1 84 53 3a
        E 6 94 45 5e
        E 30 84 47 38
        E 198 84 51 42
        E 6 94 4f 58
        E 12 94 43 5e
        E 4 84 45 38
        E 462 84 4f 01
        E 14 84 43 3e
        E 8 94 53 51
        E 1 94 47 53
        E 243 84 47 1b
        E 29 84 53 2a
        E 58 94 47 51
        E 6 94 53 54
        E 172 84 47 42
        E 0 84 53 29
        E 6 94 56 51
        E 4 94 4a 43
        E 443 94 54 58
        E 3 94 48 50
        E 3 84 4a 2a
        E 19 84 56 22
        E 441 94 53 51
        E 2 84 54 40
        E 0 84 48 0c
        E 1 94 47 52
        E 468 94 43 62
        E 5 94 4f 51
        E 2 84 47 2e
        E 8 84 53 22
        E 449 84 43 3e
        E 16 94 45 45
        E 3 94 51 51
        E 8 84 4f 26
        E 1325 84 45 25
        E 39 84 51 24
        E 107 94 4a 56
        E 1 94 3e 62
        E 202 84 3e 2a
        E 42 84 4a 29
        E 61 94 3e 60
        E 21 94 4a 57
        E 157 84 4a 1e
        E 2 84 3e 34
        E 8 94 43 67
        E 2 94 4f 60
        E 342 84 43 2b
        E 25 84 4f 3a
        E 72 94 43 64
        E 4 94 4f 55
        E 477 84 43 39
        E 6 94 45 51
        E 1 94 51 53
        E 4 84 4f 0f
        E 436 84 45 38
        E 11 84 51 27
        E 51 94 45 5a
        E 6 94 51 50
        E 403 84 51 01
        E 59 84 45 37
        E 3 94 53 4c
        E 11 94 47 54
        E 703 94 51 52
        E 2 94 45 57
        E 10 84 53 29
        E 17 84 47 39
        E 190 84 45 06
        E 33 94 43 5b
        E 5 84 51 2c
        E 3 94 4f 4f
        E 370 84 43 19
        E 2 84 4f 10
        E 100 94 47 51
        E 1 94 53 4f
        E 457 94 4a 4e
        E 3 94 56 48
        E 2 84 47 30
        E 10 84 53 0f
        E 477 94 54 55
        E 1 94 48 58
        E 18 84 4a 29
        E 9 84 56 2c
        E 437 94 53 52
        E 1 94 47 55
        E 1 84 54 41
        E 27 84 48 3a
        E 441 84 47 39
        E 10 94 45 55
        E 8 94 51 53
        E 20 84 53 1b
        E 179 84 45 24
        E 28 84 51 30
        E 93 94 45 5a
        E 1 94 51 50
        E 133 84 45 1a
        E 28 84 51 25
        E 1 94 43 54
        E 6 94 4f 53
        E 888 84 4f 26
        E 8 84 43 3d
        E 58 94 43 56
        E 16 94 4f 52
        E 250 84 43 40
        E 52 84 4f 31
        E 209 94 43 61
        E 12 94 4f 5d
        E 428 94 54 5c
        E 1 94 48 4e
        E 7 84 43 44
        E 2 84 4f 2d
        E 404 84 48 35
        E 3 84 54 48
        E 51 94 54 58
        E 8 94 48 53
        E 270 84 48 31
        E 8 84 54 4e
        E 59 94 48 53
        E 2 94 54 59
        E 134 84 48 1f
        E 35 84 54 47
        E 8 94 53 51
        E 1 94 47 53
        E 373 84 53 41
        E 8 84 47 35
        E 57 94 47 59
        E 4 94 53 4c
        E 392 84 47 05
        E 36 84 53 0a
        E 39 94 45 5a
        E 9 94 51 50
        E 722 84 51 27
        E 1 84 45 3f
        E 3 94 47 54
        E 7 94 53 3f
        E 199 84 47 32
        E 22 84 53 3b
        E 6 94 45 59
        E 9 94 51 4d
        E 339 84 45 2d
        E 27 84 51 27
        E 119 94 45 55
        E 14 94 51 5c
        E 190 84 45 2a
        E 36 84 51 1d
        E 86 94 45 4b
        E 17 94 51 50
        E 141 94 47 53
        E 3 84 45 3b
        E 1 94 53 53
        E 14 84 51 2b
        E 448 94 43 5d
        E 1 94 4f 58
        E 6 84 53 46
        E 15 84 47 1b
        E 452 84 4f 41
        E 5 94 4c 52
        E 5 94 40 53
        E 12 84 43 39
        E 451 94 45 52
        E 8 94 51 57
        E 8 84 40 17
        E 13 84 4c 18
        E 446 94 4e 5d
        E 3 84 51 3a
        E 2 94 42 5e
        E 15 84 45 1f
        E 701 94 4c 52
        E 11 94 40 56
        E 3 84 4e 1e
        E 5 84 42 2c
        E 240 84 4c 44
        E 1 94 3e 52
        E 3 94 4a 54
        E 1 84 40 34
        E 297 84 3e 27
        E 11 84 4a 11
        E 169 94 4f 59
        E 1 94 43 5e
        E 451 84 43 01
        E 18 94 54 5f
        E 0 94 48 43
        E 4 84 4f 21
        E 414 84 54 40
        E 8 84 48 35
        E 62 94 48 51
        E 7 94 54 57
        E 458 84 48 22
        E 6 84 54 42
        E 3 94 47 56
        E 4 94 53 4e
        E 411 84 47 2c
        E 5 84 53 31
        E 73 94 53 53
        E 8 94 47 5b
        E 227 84 47 22
        E 18 84 53 35
        E 64 94 47 50
        E 1 94 53 53
        E 118 84 47 25
        E 41 84 53 24
        E 17 94 45 5a
        E 4 94 51 57
        E 684 94 47 4f
        E 1 94 53 4f
        E 1 84 45 2f
        E 1 84 51 21
        E 225 84 47 15
        E 18 84 53 3b
        E 5 94 45 54
        E 9 94 51 4f
        E 360 84 45 23
        E 13 84 51 11
        E 86 94 45 59
        E 5 94 51 52
        E 220 84 45 2c
        E 26 84 51 1f
        E 82 94 45 4d
        E 16 94 51 4c
        E 131 84 45 38
        E 9 94 47 53
        E 5 94 53 55
        E 2 84 51 1b
        E 458 84 47 19
        E 6 84 53 33
        E 4 94 45 51
        E 11 94 51 50
        E 462 94 47 4d
        E 4 84 51 17
        E 6 84 45 19
        E 1 94 53 51
        E 463 84 53 4a
        E 7 94 51 51
        E 2 94 45 54
        E 2 84 47 35
        E 475 94 3e 52
        E 2 94 4a 53
        E 12 84 51 28
        E 5 84 45 01
        E 1211 84 3e 22
        E 43 84 4a 01
        E 175 94 3e 5e
        E 14 94 4a 57
        E 450 84 3e 32
        E 14 94 43 4b
        E 0 94 4f 54
        E 1 84 4a 01
        E 609 84 43 35
        E 10 84 4f 37
        E 100 94 43 5e
        E 11 94 4f 55
        E 215 84 43 31
        E 8 84 4f 01
        E 7 94 51 52
        E 4 94 45 52
        E 248 84 45 2d
        E 4 84 51 2d
        E 74 94 45 54
        E 3 94 51 4c
        E 96 84 45 2e
        E 18 84 51 2e
        E 51 94 45 60
        E 1 94 51 53
        E 198 84 45 2f
        E 13 84 51 29
        E 81 94 45 52
        E 14 94 51 53
        E 126 84 45 16
        E 4 84 51 0d
        E 31 94 53 51
        E 2 94 47 52
        E 717 84 53 3b
        E 9 94 45 51
        E 1 94 51 4f
        E 20 84 47 01
        E 185 84 45 18
        E 22 84 51 34
        E 3 94 43 54
        E 5 94 4f 52
        E 355 84 43 23
        E 16 84 4f 03
        E 105 94 47 51
        E 5 94 53 52
        E 451 84 53 01
        E 18 84 47 1e
        E 3 94 4a 48
        E 3 94 56 4a
        E 486 94 48 51
        E 1 94 54 53
        E 5 84 4a 1c
        E 0 84 56 31
        E 463 94 53 4f
        E 6 84 54 33
        E 3 94 47 52
        E 21 84 48 0e
        E 466 94 43 62
        E 1 84 53 27
        E 3 94 4f 5a
        E 13 84 47 29
        E 167 84 43 39
        E 12 84 4f 18
        E 112 94 43 61
        E 19 94 4f 54
        E 159 84 43 23
        E 1 84 4f 31
        E 1 94 51 51
        E 6 94 45 55
        E 1390 84 45 3d
        E 1 84 51 40
        E 516 94 4f 58
        E 0 94 43 63
        E 406 84 43 41
        E 12 84 4f 43
        E 62 94 43 62
        E 1 94 4f 5c
        E 224 84 43 3b
        E 5 84 4f 36
        E 91 94 43 61
        E 0 94 4f 55
        E 105 84 43 29
        E 28 84 4f 2d
        E 17 94 45 59
        E 5 94 51 53
        E 403 84 45 30
        E 0 84 51 3a
        E 60 94 51 58
        E 0 94 45 5c
        E 259 84 45 31
        E 11 84 51 2f
        E 79 94 45 58
        E 4 94 51 54
        E 117 84 45 4e
        E 1 84 51 49
        E 35 94 47 54
        E 0 94 53 4b
        E 1284 84 53 2a
        E 9 84 47 1b
        E 153 94 53 5a
        E 0 94 47 5e
        E 227 84 47 3b
        E 2 84 53 28
        E 85 94 47 4d
        E 11 94 53 54
        E 149 84 47 2e
        E 6 84 53 25
        E 4 94 4c 51
        E 4 94 58 56
        E 465 94 56 52
        E 1 94 4a 5d
        E 5 84 58 3f
        E 15 84 4c 24
        E 449 94 54 58
        E 4 94 48 54
        E 12 84 56 2e
        E 0 84 4a 01
        E 439 84 48 08
        E 24 94 47 57
        E 3 94 53 53
        E 12 84 54 47
        E 451 84 47 21
        E 16 94 45 4d
        E 0 94 51 5a
        E 8 84 53 42
        E 961 94 43 65
        E 2 84 51 4a
        E 3 94 4f 5a
        E 1 84 45 3e
        E 637 84 43 2e
        E 32 84 4f 23
        E 102 94 51 58
        E 2 94 45 5d
        E 154 84 51 2c
        E 5 84 45 34
        E 15 94 47 5c
        E 7 94 53 5b
        E 632 84 47 1e
        E 30 84 53 19
        E 105 94 47 59
        E 1 94 53 55
        E 178 84 53 3a
        E 4 84 47 31
        E 1 94 45 65
        E 1 94 51 5e
        E 628 84 45 1e
        E 27 84 51 02
        E 146 94 45 5f
        E 5 94 51 59
        E 142 94 43 67
        E 2 84 51 38
        E 4 94 4f 5d
        E 1 84 45 28
        E 1452 84 4f 57
        E 1 84 43 5d
        E 1 b0 7b 00
        GUID {F2C46E7A-90CC-E848-9BE4-326D46CFDBAC}
        IGNTEMPO 0 120 4 4
        SRCCOLOR 1901
        VELLANE -1 86 6
      >
    >
  >
  <TRACK {9D1C1126-3C1E-8140-868E-FE8947CDF53A}
    NAME Midi
    PEAKCOL 16576
    BEAT -1
    AUTOMODE 0
    VOLPAN 1 0 -1 -1 1
    MUTESOLO 0 0 0
    IPHASE 0
    ISBUS 0 0
    BUSCOMP 0 0
    SHOWINMIX 1 0.6667 0.290323 1 0.5 0 0 0
    FREEMODE 0
    SEL 0
    REC 0 0 0 0 0 0 0
    VU 2
    TRACKHEIGHT 207 0
    INQ 0 0 0 0.5 100 0 0 100
    NCHAN 2
    FX 1
    TRACKID {9D1C1126-3C1E-8140-868E-FE8947CDF53A}
    PERF 0
    MIDIOUT -1
    MAINSEND 1 0
    <ITEM
      POSITION 0
      SNAPOFFS 0
      LENGTH 52.5
      LOOP 1
      ALLTAKES 0
      FADEIN 1 0 0 1 0 0
      FADEOUT 1 0 0 1 0 0
      MUTE 0
      SEL 0
      YPOS 0 0.184971
      IGUID {370332E5-789C-EE40-949E-00AA67FE5445}
      IID 12
      NAME "trombone(s) - National_Anthems_-_Andorra.mid"
      VOLPAN 1 0 1 -1
      SOFFS 0 0
      PLAYRATE 1 1 0 -1 0 0.0025
      CHANMODE 0
      TAKECOLOR 26173599 B
      GUID {50214DB5-8D70-4A4D-B119-A856FE1FAF81}
      <SOURCE MIDI
        HASDATA 1 480 QN
        POOLEDEVTS {73887DE1-C26D-DC40-A15C-F8E3A612AE15}
        <X 0 0 0 0 3 trombone(s)
          /wN0cm9tYm9uZShzKQ==
        >
        <X 0 0 0 0 4 "Sound Canvas"
          /wRTb3VuZCBDYW52YXM=
        >
        e 0 90 32 7f
        e 356 80 32 23
        e 124 90 37 7f -22
        e 408 80 37 01 -22
        e 72 90 36 7f
        e 220 80 36 38
        e 80 90 34 7f -6
        e 111 80 34 34 -6
        e 69 90 32 7f -18
        e 342 80 32 15 -18
        e 138 90 30 7f
        e 310 80 30 01
        e 170 90 2f 7f
        e 149 80 2f 2c
        e 91 90 30 7f
        e 138 80 30 2d
        e 102 90 32 7f
        e 367 80 32 02
        e 113 90 2b 7f -7
        e 347 80 2b 1e -7
        e 133 90 35 7f 5
        e 326 80 35 1f 5
        e 154 90 34 7f -21
        e 376 80 34 31 -21
        e 104 90 33 7f -21
        e 372 80 33 3e -21
        e 108 90 32 7f
        e 348 80 32 30
        e 132 90 34 7f -26
        e 313 80 34 07 -26
        e 167 90 32 7f
        e 1272 80 32 1e
        e 168 90 32 7f 4
        e 342 80 32 3b 4
        e 138 90 37 7f -9
        e 383 80 37 27 -9
        e 97 90 36 7f -12
        e 215 80 36 3f -12
        e 85 90 34 7f 23
        e 102 80 34 40 23
        e 78 90 32 7f 6
        e 348 80 32 01 6
        e 132 90 30 7f -15
        e 365 80 30 26 -15
        e 115 90 2f 7f
        e 125 80 2f 2c
        e 115 90 30 7f 5
        e 120 80 30 22
        e 120 90 32 7f -22
        e 377 80 32 3d -22
        e 103 90 37 7f -27
        e 359 80 37 11 -27
        e 121 90 35 7f
        e 422 80 35 25
        e 58 90 34 7f -7
        e 321 80 34 34 -7
        e 159 90 34 7f -17
        e 366 80 34 10 -17
        e 114 90 32 7f -23
        e 373 80 32 24 -23
        e 107 90 32 7f -28
        e 223 80 32 44 -28
        e 77 90 32 7f 16
        e 105 80 32 14 16
        e 75 90 37 7f -2
        e 1259 80 37 26 -2
        e 181 90 37 7f -13
        e 120 90 34 7f 29
        e 44 80 37 15 -13
        e 79 80 34 36 29
        e 57 90 37 7f -14
        e 170 80 37 0a -14
        e 10 90 30 7f 4
        e 390 80 30 2f 4
        e 90 90 30 7f -9
        e 221 80 30 32 -9
        e 79 90 34 7f 10
        e 119 80 34 1c 10
        e 61 90 37 7f -5
        e 362 80 37 23 -5
        e 118 90 37 7f 13
        e 307 80 37 26 13
        e 173 90 39 7f 7
        e 612 80 39 1a 7
        e 108 90 37 7f -11
        e 152 80 37 1b -11
        e 88 90 39 7f -16
        e 360 80 39 22 -16
        e 120 90 36 7f -10
        e 397 80 36 2a -10
        e 83 90 34 7f -19
        e 249 80 34 2e -19
        e 51 90 36 7f 7
        e 102 80 36 44 7
        e 78 90 37 7f -5
        e 155 80 37 20 -5
        e 145 90 39 7f -15
        e 126 80 39 2c -15
        e 54 90 3a 7f -10
        e 410 80 3a 26 -10
        e 70 90 39 7f 2
        e 317 80 39 24 2
        e 163 90 39 7f -10
        e 1227 80 39 02 -10
        e 213 90 37 7f -6
        e 120 90 34 7f 17
        e 37 80 37 1a -6
        e 82 80 34 47 17
        e 61 90 37 7f -28
        e 100 80 37 48 -28
        e 80 90 3c 7f 16
        e 397 80 3c 02 16
        e 83 90 34 7f -8
        e 283 80 34 38 -8
        e 17 90 37 7f 14
        e 107 80 37 2b 14
        e 73 90 37 7f 18
        e 354 80 37 36 18
        e 126 90 37 7f 4
        e 299 80 37 10 4
        e 181 90 39 7f -12
        e 627 80 39 24 -12
        e 93 90 37 7f -13
        e 178 80 37 0f -13
        e 62 90 39 7f -5
        e 396 80 39 09 -5
        e 84 90 32 7f -26
        e 330 80 32 0d -26
        e 150 90 31 7f -16
        e 262 80 31 36 -16
        e 38 90 32 7f
        e 145 80 32 37
        e 35 90 34 7f
        e 187 80 34 26
        e 113 90 36 7f -16
        e 116 80 36 43 -16
        e 64 90 37 7f -8
        e 363 80 37 1a -8
        e 117 90 39 7f -16
        e 314 80 39 19 -16
        e 166 90 36 7f -11
        e 0 90 39 7f -12
        e 1361 80 39 36 -12
        e 6 80 36 50 -11
        e 553 90 2b 7f -14
        e 165 80 2b 3d -14
        e 75 90 37 7f -15
        e 152 80 37 30 -15
        e 88 90 36 7f -13
        e 144 80 36 2f -13
        e 96 90 34 7f -16
        e 127 80 34 2a -16
        e 113 90 32 7f -16
        e 143 80 32 31 -16
        e 97 90 34 7f -21
        e 134 80 34 3a -21
        e 106 90 32 7f -16
        e 186 80 32 01 -16
        e 54 90 30 7f -18
        e 132 80 30 2b -18
        e 108 90 2f 7f -12
        e 220 80 2f 28 -12
        e 80 90 30 7f 5
        e 113 80 30 32 5
        e 67 90 32 7f -11
        e 329 80 32 15 -11
        e 151 90 2b 7f -29
        e 319 80 2b 36 -29
        e 161 90 35 7f -18
        e 157 80 35 33 -18
        e 83 90 37 7f -22
        e 160 80 37 35 -22
        e 80 90 34 7f -15
        e 166 80 34 10 -15
        e 74 90 37 7f -21
        e 154 80 37 26 -21
        e 86 90 33 7f -20
        e 195 80 33 22 -20
        e 45 90 37 7f -27
        e 158 80 37 31 -27
        e 82 90 32 7f -29
        e 177 80 32 0d -29
        e 63 90 37 7f -22
        e 145 80 37 2a -22
        e 95 90 34 7f -16
        e 307 80 34 0b -16
        e 173 90 32 7f
        e 1202 80 32 3a
        e 238 90 32 7f -1
        e 372 80 32 0a -1
        e 48 90 2b 7f 28
        e 186 80 2b 01 28
        e 54 90 37 7f 24
        e 163 80 37 1f 24
        e 77 90 36 7f 29
        e 161 80 36 28 29
        e 139 90 34 7f -28
        e 147 80 34 2c -28
        e 93 90 32 7f -28
        e 180 90 34 7f 28
        e 12 80 32 20 -28
        e 149 80 34 32 28
        e 79 90 32 7f 19
        e 228 80 32 2d 19
        e 12 90 30 7f 19
        e 189 80 30 28 19
        e 111 90 2f 7f -24
        e 434 80 2f 3e -24
        e 46 90 39 7f -10
        e 394 80 39 1c -10
        e 86 90 37 7f -13
        e 411 80 37 1b -13
        e 69 90 36 7f 7
        e 380 80 36 30 7
        e 100 90 34 7f -4
        e 397 80 34 20 -4
        e 83 90 35 7f 6
        e 214 80 35 30 6
        e 86 90 34 7f 11
        e 130 80 34 3f 11
        e 50 90 39 7f 6
        e 359 80 39 3b 6
        e 121 90 3b 7f -14
        e 349 80 3b 0c -14
        e 131 90 3c 7f -28
        e 960 90 30 7f
        e 108 80 3c 4a -28
        e 585 80 30 37
        e 87 90 30 7f 3
        e 110 80 30 3e 3
        e 70 90 32 7f -9
        e 647 80 32 2e -9
        e 133 90 32 7f
        e 98 80 32 42
        e 82 90 32 7f -14
        e 604 80 32 3e -14
        e 176 90 32 7f -15
        e 156 80 32 40 -15
        e 24 90 2b 7f -7
        e 1467 80 2b 5f -7
        E 453 b0 7b 00
        GUID {8BB21677-506F-AA4D-A493-6B49A2420C6F}
        IGNTEMPO 0 120 4 4
        SRCCOLOR 952
        VELLANE -1 86 6
        CFGEDITVIEW 12461.110306 43.315006 0 7 0 0 0 0 0 0.5
        KEYSNAP 0
        TRACKSEL 209
        EVTFILTER 0 -1 -1 -1 -1 0 1 0 0 -1 -1 -1 -1 0 -1 0 -1 -1
        CFGEDIT 1 0 0 0 0 0 1 0 1 1 1 0.25 16 20 1920 1178 0 0 2 3 0 0 0 0 0 0.5 0 0 1 64
      >
      TAKE
      NAME "trombone(s) - National_Anthems_-_Andorra.mid"
      TAKEVOLPAN 0 1 -1
      SOFFS 0 0
      PLAYRATE 1 1 0 -1 0 0.0025
      CHANMODE 0
      GUID {3479CD0B-19A3-3947-A35B-55608204546C}
      <SOURCE MIDI
        HASDATA 1 480 QN
        POOLEDEVTS {E38E65A6-5E8D-FE40-98DA-0FCA2121FF85}
        <X 0 0 0 0 3 trombone(s)
          /wN0cm9tYm9uZShzKQ==
        >
        <X 0 0 0 0 4 "Sound Canvas"
          /wRTb3VuZCBDYW52YXM=
        >
        E 0 92 32 60
        E 356 82 32 23
        E 102 92 37 5c
        E 408 82 37 01
        E 58 92 36 68
        E 220 82 36 38
        E 110 92 34 61
        E 111 82 34 34
        E 57 92 32 62
        E 342 82 32 15
        E 124 92 30 5e
        E 370 82 30 01
        E 110 92 2f 62
        E 149 82 2f 2c
        E 83 92 30 57
        E 138 82 30 2d
        E 104 92 32 60
        E 367 82 32 02
        E 144 92 2b 5e
        E 347 82 2b 1e
        E 145 92 35 68
        E 326 82 35 1f
        E 128 92 34 5d
        E 376 82 34 31
        E 104 92 33 63
        E 372 82 33 3e
        E 89 92 32 5b
        E 348 82 32 30
        E 146 92 34 61
        E 313 82 34 07
        E 151 92 32 60
        E 1272 82 32 1e
        E 214 92 32 61
        E 342 82 32 3b
        E 125 92 37 5b
        E 383 82 37 27
        E 94 92 36 63
        E 215 82 36 3f
        E 120 92 34 61
        E 102 82 34 40
        E 61 92 32 5f
        E 348 82 32 01
        E 111 92 30 63
        E 365 82 30 26
        E 101 92 2f 66
        E 235 82 2f 2c
        E 93 92 30 5d
        E 115 82 30 22
        E 44 92 32 61
        E 377 82 32 3d
        E 98 92 37 62
        E 359 82 37 11
        E 114 92 35 67
        E 422 82 35 25
        E 85 92 34 61
        E 321 82 34 34
        E 149 92 34 60
        E 366 82 34 10
        E 108 92 32 5f
        E 373 82 32 24
        E 102 92 32 63
        E 223 82 32 44
        E 121 92 32 62
        E 105 82 32 14
        E 57 92 37 5f
        E 1259 82 37 26
        E 170 92 37 62
        E 162 92 34 61
        E 2 82 37 15
        E 121 82 34 36
        E 14 92 37 59
        E 170 82 37 0a
        E 28 92 30 66
        E 390 82 30 2f
        E 77 92 30 62
        E 221 82 30 32
        E 98 92 34 53
        E 119 82 34 1c
        E 46 92 37 5f
        E 362 82 37 23
        E 136 92 37 62
        E 307 82 37 26
        E 167 92 39 63
        E 612 82 39 1a
        E 90 92 37 5b
        E 152 82 37 1b
        E 83 92 39 62
        E 360 82 39 22
        E 126 92 36 66
        E 397 82 36 2a
        E 74 92 34 64
        E 249 82 34 2e
        E 77 92 36 62
        E 102 82 36 44
        E 66 92 37 5d
        E 155 82 37 20
        E 135 92 39 5e
        E 126 82 39 2c
        E 59 92 3a 68
        E 410 82 3a 26
        E 82 92 39 68
        E 317 82 39 24
        E 151 92 39 66
        E 1227 82 39 02
        E 217 92 37 65
        E 143 92 34 65
        E 14 82 37 1a
        E 105 82 34 47
        E 16 92 37 58
        E 100 82 37 48
        E 124 92 3c 69
        E 397 82 3c 02
        E 59 92 34 66
        E 283 82 34 38
        E 39 92 37 5b
        E 107 82 37 2b
        E 77 92 37 65
        E 354 82 37 36
        E 112 92 37 62
        E 299 82 37 10
        E 165 92 39 63
        E 627 82 39 24
        E 92 92 37 5b
        E 178 82 37 0f
        E 70 92 39 60
        E 396 82 39 09
        E 63 92 32 5f
        E 330 82 32 0d
        E 160 92 31 69
        E 262 82 31 36
        E 54 92 32 62
        E 145 82 32 37
        E 35 92 34 60
        E 187 82 34 26
        E 97 92 36 61
        E 116 82 36 43
        E 72 92 37 5f
        E 363 82 37 1a
        E 109 92 39 65
        E 314 82 39 19
        E 170 92 39 5b
        E 1 92 36 5b
        E 1360 82 39 36
        E 7 82 36 50
        E 550 92 2b 69
        E 165 82 2b 3d
        E 74 92 37 5b
        E 152 82 37 30
        E 90 92 36 68
        E 144 82 36 2f
        E 93 92 34 63
        E 127 82 34 2a
        E 113 92 32 61
        E 143 82 32 31
        E 92 92 34 5e
        E 134 82 34 3a
        E 111 92 32 52
        E 186 82 32 01
        E 52 92 30 61
        E 132 82 30 2b
        E 114 92 2f 68
        E 220 82 2f 28
        E 97 92 30 5e
        E 113 82 30 32
        E 51 92 32 62
        E 329 82 32 15
        E 133 92 2b 62
        E 319 82 2b 36
        E 172 92 35 69
        E 157 82 35 33
        E 79 92 37 5c
        E 160 82 37 35
        E 87 92 34 62
        E 166 82 34 10
        E 68 92 37 5a
        E 154 82 37 26
        E 87 92 33 66
        E 195 82 33 22
        E 38 92 37 5a
        E 158 82 37 31
        E 80 92 32 62
        E 177 82 32 0d
        E 70 92 37 56
        E 145 82 37 2a
        E 101 92 34 5e
        E 307 82 34 0b
        E 189 92 32 60
        E 1202 82 32 3a
        E 237 92 32 62
        E 372 82 32 0a
        E 77 92 2b 66
        E 186 82 2b 01
        E 50 92 37 5f
        E 163 82 37 1f
        E 82 92 36 65
        E 161 82 36 28
        E 82 92 34 61
        E 147 82 34 2c
        E 93 92 32 60
        E 192 82 32 20
        E 44 92 34 61
        E 161 82 34 32
        E 70 92 32 5f
        E 228 82 32 2d
        E 12 92 30 57
        E 189 82 30 28
        E 68 92 2f 5e
        E 434 82 2f 3e
        E 60 92 39 61
        E 394 82 39 1c
        E 83 92 37 5d
        E 411 82 37 1b
        E 89 92 36 62
        E 380 82 36 30
        E 89 92 34 64
        E 397 82 34 20
        E 93 92 35 67
        E 214 82 35 30
        E 91 92 34 5d
        E 130 82 34 3f
        E 45 92 39 63
        E 359 82 39 3b
        E 101 92 3b 5a
        E 349 82 3b 0c
        E 117 92 3c 61
        E 988 92 30 66
        E 80 82 3c 4a
        E 613 82 30 37
        E 90 92 30 64
        E 110 82 30 3e
        E 58 92 32 67
        E 647 82 32 2e
        E 142 92 32 65
        E 98 82 32 42
        E 68 92 32 65
        E 604 82 32 3e
        E 175 92 32 67
        E 156 82 32 40
        E 32 92 2b 6e
        E 1467 82 2b 5f
        E 460 b0 7b 00
        GUID {7CFCA42C-E00C-4D4D-AE48-05FEFA037692}
        IGNTEMPO 0 120 4 4
        SRCCOLOR 953
        VELLANE -1 86 6
        CFGEDITVIEW 0 0 66 22 0 0 0 0 0 0.5
        KEYSNAP 0
        TRACKSEL 226
        EVTFILTER 0 -1 -1 -1 -1 0 0 0 0 -1 -1 -1 -1 0 -1 0 -1 -1
        CFGEDIT 1 0 0 0 0 0 1 0 1 1 1 0.25 16 63 1280 778 0 0 2 3 0 0 0 0 0 0.5 0 0 1 64
      >
    >
    <ITEM
      POSITION 0
      SNAPOFFS 0
      LENGTH 52.5
      LOOP 1
      ALLTAKES 0
      FADEIN 1 0 0 1 0 0
      FADEOUT 1 0 0 1 0 0
      MUTE 0
      SEL 0
      YPOS 0.543353 0.184971
      IGUID {6BDDD855-D97C-9644-A14F-0D0D0620AE55}
      IID 10
      NAME "trumpet(s) - National_Anthems_-_Andorra.mid"
      VOLPAN 1 0 1 -1
      SOFFS 0 0
      PLAYRATE 1 1 0 -1 0 0.0025
      CHANMODE 0
      TAKECOLOR 26173599 B
      GUID {CA57F531-20C0-E944-9010-D3BFA8D3A945}
      <SOURCE MIDI
        HASDATA 1 480 QN
        POOLEDEVTS {E4133F16-9D02-3846-9F40-C024CB94C3B8}
        <X 0 0 0 0 3 trumpet(s)
          /wN0cnVtcGV0KHMp
        >
        <X 0 0 0 0 4 "Sound Canvas"
          /wRTb3VuZCBDYW52YXM=
        >
        E 0 90 3e 7f
        E 113 80 3e 2b
        E 7 90 3b 7f 7
        E 98 80 3b 31 7
        E 82 90 3e 7f -10
        E 111 80 3e 32 -10
        E 69 90 43 7f -13
        E 403 80 43 48 -13
        E 77 90 43 7f -22
        E 209 80 43 41 -22
        E 91 90 43 7f -4
        E 118 80 43 49 -4
        E 62 90 45 7f -14
        E 421 80 45 3f -14
        E 59 90 45 7f -6
        E 330 80 45 23 -6
        E 150 90 47 7f -24
        E 683 80 47 1e -24
        E 37 90 45 7f -13
        E 191 80 45 25 -13
        E 49 90 43 7f -10
        E 408 80 43 28 -10
        E 72 90 47 7f -7
        E 211 80 47 20 -7
        E 89 90 47 7f 16
        E 124 80 47 36 16
        E 56 90 4a 7f -1
        E 395 80 4a 30 -1
        E 85 90 48 7f -29
        E 378 80 48 39 -29
        E 102 90 47 7f
        E 439 80 47 30
        E 41 90 43 7f
        E 434 80 43 27
        E 46 90 45 7f -27
        E 1321 80 45 29 -27
        E 119 90 3e 7f -5
        E 120 90 3b 7f 23
        E 20 80 3e 43 -5
        E 76 80 3b 27 23
        E 84 90 3e 7f -9
        E 104 80 3e 35 -9
        E 76 90 43 7f -20
        E 404 80 43 44 -20
        E 76 90 43 7f -4
        E 364 80 43 38 -4
        E 116 90 45 7f -11
        E 402 80 45 34 -11
        E 78 90 45 7f -14
        E 397 80 45 26 -14
        E 83 90 47 7f -11
        E 632 80 47 24 -11
        E 88 90 45 7f -7
        E 171 80 45 2b -7
        E 69 90 43 7f -6
        E 356 80 43 28 -6
        E 124 90 47 7f -13
        E 428 80 47 35 -13
        E 52 90 4a 7f -22
        E 429 80 4a 29 -22
        E 51 90 48 7f -24
        E 450 80 48 3c -24
        E 30 90 47 7f
        E 480 90 45 7f -15
        E 10 80 47 46
        E 255 80 45 36 -15
        E 35 90 45 7f 34
        E 76 80 45 3f 34
        E 104 90 43 7f -11
        E 908 80 43 38 -11
        E 52 90 43 7f 9
        E 312 80 43 3e 9
        E 168 90 43 7f 6
        E 113 80 43 4f 6
        E 7 90 40 7f 12
        E 110 80 40 28 12
        E 70 90 43 7f -8
        E 134 80 43 35 -8
        E 46 90 48 7f -8
        E 412 80 48 47 -8
        E 68 90 48 7f -19
        E 252 80 48 39 -19
        E 48 90 48 7f 28
        E 107 80 48 43 28
        E 73 90 47 7f 2
        E 381 80 47 2f 2
        E 99 90 47 7f -9
        E 328 80 47 2c -9
        E 152 90 45 7f -27
        E 644 80 45 29 -27
        E 76 90 47 7f
        E 217 80 47 34
        E 23 90 45 7f -14
        E 377 80 45 2a -14
        E 103 90 45 7f -6
        E 223 80 45 39 -6
        E 77 90 45 7f 15
        E 79 80 45 38 15
        E 101 90 47 7f -3
        E 394 80 47 41 -3
        E 86 90 43 7f -18
        E 397 80 43 1d -18
        E 83 90 40 7f -21
        E 424 80 40 16 -21
        E 56 90 45 7f -13
        E 439 80 45 12 -13
        E 41 90 42 7f -18
        E 682 80 42 35 -18
        E 38 90 40 7f -23
        E 238 80 40 3c -23
        E 2 90 3e 7f -5
        E 323 80 3e 05 -5
        E 157 90 43 7f -3
        E 120 90 40 7f
        E 36 80 43 53 -3
        E 76 80 40 29
        E 68 90 43 7f
        E 145 80 43 4d
        E 35 90 48 7f -12
        E 413 80 48 48 -12
        E 67 90 48 7f -13
        E 401 80 48 3e -13
        E 79 90 47 7f -14
        E 413 80 47 3c -14
        E 67 90 47 7f -1
        E 250 80 47 3d -1
        E 50 90 47 7f 27
        E 86 80 47 44 27
        E 94 90 45 7f 1
        E 655 80 45 23 1
        E 65 90 47 7f -4
        E 192 80 47 3c -4
        E 48 90 45 7f -8
        E 366 80 45 34 -8
        E 114 90 45 7f -9
        E 225 80 45 3e -9
        E 75 90 45 7f 15
        E 92 80 45 42 15
        E 88 90 47 7f -7
        E 398 80 47 3b -7
        E 82 90 45 7f -21
        E 404 80 45 32 -21
        E 76 90 47 7f -22
        E 440 80 47 25 -22
        E 40 90 45 7f -8
        E 454 80 45 44 -8
        E 26 90 3e 7f -14
        E 1177 80 3e 26 -14
        E 263 90 3e 7f
        E 125 80 3e 36
        E 55 90 3b 7f -30
        E 115 80 3b 33 -30
        E 5 90 3e 7f -3
        E 120 80 3e 34 -3
        E 60 90 43 7f -12
        E 610 80 43 42 -12
        E 110 90 43 7f -19
        E 151 80 43 45 -19
        E 29 90 45 7f 12
        E 273 80 45 36 12
        E 87 90 45 7f -27
        E 131 80 45 48 -27
        E 49 90 45 7f -30
        E 223 80 45 27 -30
        E 77 90 45 7f -20
        E 96 80 45 43 -20
        E 24 90 47 7f 28
        E 714 80 47 39 28
        E 66 90 45 7f -1
        E 187 80 45 2b -1
        E 53 90 43 7f -8
        E 441 80 43 07 -8
        E 39 90 47 7f -14
        E 120 90 43 7f 22
        E 42 80 47 3f -14
        E 76 80 43 25 22
        E 62 90 47 7f -16
        E 150 80 47 2a -16
        E 30 90 4a 7f -10
        E 380 80 4a 41 -10
        E 100 90 48 7f -21
        E 402 80 48 3a -21
        E 78 90 47 7f -21
        E 468 80 47 37 -21
        E 12 90 43 7f -14
        E 221 80 43 39 -14
        E 79 90 43 7f 7
        E 81 80 43 49 7
        E 99 90 45 7f -17
        E 1277 80 45 35 -17
        E 163 90 3e 7f 3
        E 120 90 3b 7f 25
        E 9 80 3e 41 3
        E 98 80 3b 36 25
        E 73 90 3e 7f -14
        E 121 80 3e 3a -14
        E 59 90 43 7f -15
        E 427 80 43 40 -15
        E 53 90 43 7f 11
        E 202 80 43 40 11
        E 98 90 43 7f 19
        E 109 80 43 46 19
        E 71 90 45 7f -12
        E 426 80 45 3d -12
        E 54 90 45 7f -2
        E 194 80 45 30 -2
        E 106 90 45 7f 9
        E 112 80 45 42 9
        E 68 90 47 7f -8
        E 1317 80 47 2d -8
        E 123 90 47 7f 11
        E 192 80 47 30 11
        E 108 90 47 7f 29
        E 146 80 47 3c 29
        E 34 90 4c 7f 22
        E 397 80 4c 2b 22
        E 83 90 4a 7f -18
        E 435 80 4a 2f -18
        E 45 90 48 7f -18
        E 440 80 48 3d -18
        E 40 90 47 7f -17
        E 441 80 47 12 -17
        E 39 90 45 7f -29
        E 960 90 43 7f -18
        E 12 80 45 42 -29
        E 650 80 43 43 -18
        E 118 90 45 7f 16
        E 103 80 45 43 16
        E 77 90 47 7f -4
        E 736 80 47 30 -4
        E 44 90 47 7f 29
        E 127 80 47 4b 29
        E 53 90 45 7f 8
        E 680 80 45 3c 8
        E 100 90 45 7f 3
        E 113 80 45 3f 3
        E 67 90 43 7f -17
        E 1481 80 43 49 -17
        E 439 b0 7b 00
        GUID {BFA9822A-FCC6-BA46-9CA2-E7FCF2B8F4FB}
        IGNTEMPO 0 120 4 4
        SRCCOLOR 951
        VELLANE -1 86 6
        CFGEDITVIEW 23198.385214 165.64797 0 7 0 0 0 0 0 0.5
        KEYSNAP 0
        TRACKSEL 209
        EVTFILTER 0 -1 -1 -1 -1 0 1 0 0 -1 -1 -1 -1 0 -1 0 -1 -1
        CFGEDIT 1 0 0 0 0 0 1 0 1 1 1 0.25 16 20 1920 1178 0 0 2 3 0 0 0 0 0 0.5 0 0 1 64
      >
      TAKE
      NAME "trumpet(s) - National_Anthems_-_Andorra.mid"
      TAKEVOLPAN 0 1 -1
      SOFFS 0 0
      PLAYRATE 1 1 0 -1 0 0.0025
      CHANMODE 0
      GUID {F22E7FB1-0B3D-BB46-9E61-304431A0ECD4}
      <SOURCE MIDI
        HASDATA 1 480 QN
        POOLEDEVTS {96B10CDE-71CE-E64B-BC4D-AA160CC4C541}
        <X 0 0 0 0 3 trumpet(s)
          /wN0cnVtcGV0KHMp
        >
        <X 0 0 0 0 4 "Sound Canvas"
          /wRTb3VuZCBDYW52YXM=
        >
        e 0 90 3e 7f
        e 113 80 3e 2b
        e 14 90 3b 7f
        e 98 80 3b 31
        e 65 90 3e 7f
        e 111 80 3e 32
        e 66 90 43 7f
        e 403 80 43 48
        e 68 90 43 7f
        e 209 80 43 41
        e 109 90 43 7f
        e 118 80 43 49
        e 52 90 45 7f
        e 421 80 45 3f
        e 67 90 45 7f
        e 330 80 45 23
        e 132 90 47 7f
        e 683 80 47 1e
        e 48 90 45 7f
        e 191 80 45 25
        e 52 90 43 7f
        e 408 80 43 28
        e 75 90 47 7f
        e 211 80 47 20
        e 112 90 47 7f
        e 124 80 47 36
        e 39 90 4a 7f
        e 395 80 4a 30
        e 57 90 48 7f
        e 378 80 48 39
        e 94 90 47 7f
        e 439 80 47 30
        e 29 90 43 7f
        e 434 80 43 27
        e 68 90 45 7f
        e 1321 80 45 29
        e 141 90 3e 7f
        e 140 80 3e 43
        e 8 90 3b 7f
        e 96 80 3b 27
        e 52 90 3e 7f
        e 104 80 3e 35
        e 65 90 43 7f
        e 404 80 43 44
        e 92 90 43 7f
        e 364 80 43 38
        e 109 90 45 7f
        e 402 80 45 34
        e 75 90 45 7f
        e 397 80 45 26
        e 86 90 47 7f
        e 632 80 47 24
        e 92 90 45 7f
        e 171 80 45 2b
        e 70 90 43 7f
        e 356 80 43 28
        e 117 90 47 7f
        e 428 80 47 35
        e 43 90 4a 7f
        e 429 80 4a 29
        e 49 90 48 7f
        e 450 80 48 3c
        e 22 90 47 7f
        e 490 80 47 46
        e 7 90 45 7f
        e 265 80 45 36
        e 84 90 45 7f
        e 76 80 45 3f
        e 59 90 43 7f
        e 908 80 43 38
        e 72 90 43 7f
        e 312 80 43 3e
        e 165 90 43 7f
        e 113 80 43 4f
        e 13 90 40 7f
        e 110 80 40 28
        e 50 90 43 7f
        e 134 80 43 35
        e 46 90 48 7f
        e 412 80 48 47
        e 57 90 48 7f
        e 252 80 48 39
        e 95 90 48 7f
        e 107 80 48 43
        e 47 90 47 7f
        e 381 80 47 2f
        e 88 90 47 7f
        e 328 80 47 2c
        e 134 90 45 7f
        e 644 80 45 29
        e 65 90 47 7f
        e 217 80 47 34
        e 47 90 45 7f
        e 377 80 45 2a
        e 111 90 45 7f
        e 223 80 45 39
        e 98 90 45 7f
        e 79 80 45 38
        e 83 90 47 7f
        e 394 80 47 41
        e 71 90 43 7f
        e 397 80 43 1d
        e 80 90 40 7f
        e 424 80 40 16
        e 64 90 45 7f
        e 439 80 45 12
        e 36 90 42 7f
        e 682 80 42 35
        e 33 90 40 7f
        e 238 80 40 3c
        e 20 90 3e 7f
        e 323 80 3e 05
        e 159 90 43 7f
        e 154 90 40 7f
        e 2 80 43 53
        e 110 80 40 29
        e 37 90 43 7f
        e 145 80 43 4d
        e 23 90 48 7f
        e 413 80 48 48
        e 66 90 48 7f
        e 401 80 48 3e
        e 78 90 47 7f
        e 413 80 47 3c
        e 80 90 47 7f
        e 250 80 47 3d
        e 78 90 47 7f
        e 86 80 47 44
        e 68 90 45 7f
        e 655 80 45 23
        e 60 90 47 7f
        e 192 80 47 3c
        e 44 90 45 7f
        e 366 80 45 34
        e 113 90 45 7f
        e 225 80 45 3e
        e 99 90 45 7f
        e 92 80 45 42
        e 66 90 47 7f
        e 398 80 47 3b
        e 68 90 45 7f
        e 404 80 45 32
        e 75 90 47 7f
        e 440 80 47 25
        e 54 90 45 7f
        e 454 80 45 44
        e 20 90 3e 7f
        e 1177 80 3e 26
        e 277 90 3e 7f
        e 125 80 3e 36
        e 25 90 3b 7f
        e 115 80 3b 33
        e 32 90 3e 7f
        e 120 80 3e 34
        e 51 90 43 7f
        e 610 80 43 42
        e 103 90 43 7f
        e 151 80 43 45
        e 60 90 45 7f
        e 273 80 45 36
        e 48 90 45 7f
        e 131 80 45 48
        e 46 90 45 7f
        e 223 80 45 27
        e 87 90 45 7f
        e 96 80 45 43
        e 72 90 47 7f
        e 714 80 47 39
        e 37 90 45 7f
        e 187 80 45 2b
        e 46 90 43 7f
        e 441 80 43 07
        e 33 90 47 7f
        e 156 90 43 7f
        e 6 80 47 3f
        e 112 80 43 25
        e 24 90 47 7f
        e 150 80 47 2a
        e 36 90 4a 7f
        e 380 80 4a 41
        e 89 90 48 7f
        e 402 80 48 3a
        e 78 90 47 7f
        e 468 80 47 37
        e 19 90 43 7f
        e 221 80 43 39
        e 100 90 43 7f
        e 81 80 43 49
        e 75 90 45 7f
        e 1277 80 45 35
        e 183 90 3e 7f
        e 129 80 3e 41
        e 13 90 3b 7f
        e 107 80 3b 36
        e 34 90 3e 7f
        e 121 80 3e 3a
        e 58 90 43 7f
        e 427 80 43 40
        e 79 90 43 7f
        e 202 80 43 40
        e 106 90 43 7f
        e 109 80 43 46
        e 40 90 45 7f
        e 426 80 45 3d
        e 64 90 45 7f
        e 194 80 45 30
        e 117 90 45 7f
        e 112 80 45 42
        e 51 90 47 7f
        e 1317 80 47 2d
        e 142 90 47 7f
        e 192 80 47 30
        e 126 90 47 7f
        e 146 80 47 3c
        e 27 90 4c 7f
        e 397 80 4c 2b
        e 43 90 4a 7f
        e 435 80 4a 2f
        e 45 90 48 7f
        e 440 80 48 3d
        e 41 90 47 7f
        e 441 80 47 12
        e 27 90 45 7f
        e 971 90 43 7f
        e 1 80 45 42
        e 661 80 43 43
        e 152 90 45 7f
        e 103 80 45 43
        e 57 90 47 7f
        e 736 80 47 30
        e 77 90 47 7f
        e 127 80 47 4b
        e 32 90 45 7f
        e 680 80 45 3c
        e 95 90 45 7f
        e 113 80 45 3f
        e 47 90 43 7f
        e 1481 80 43 49
        E 456 b0 7b 00
        GUID {C4C2B218-A7D0-1347-BF7D-FED9A720109E}
        IGNTEMPO 0 120 4 4
        SRCCOLOR 955
        VELLANE -1 86 6
        CFGEDITVIEW 0 0 50 22 0 0 0 0 0 0.5
        KEYSNAP 0
        TRACKSEL 226
        EVTFILTER 0 -1 -1 -1 -1 0 0 0 0 -1 -1 -1 -1 0 -1 0 -1 -1
        CFGEDIT 1 0 0 0 0 0 1 0 1 1 1 0.25 252 123 1516 838 0 0 2 3 0 0 0 0 0 0.5 0 0 1 64
      >
    >
    <ITEM
      POSITION 0
      SNAPOFFS 0
      LENGTH 52.5
      LOOP 1
      ALLTAKES 0
      FADEIN 1 0 0 1 0 0
      FADEOUT 1 0 0 1 0 0
      MUTE 0
      SEL 0
      YPOS 0.815029 0.184971
      IGUID {A7759D64-C20D-E146-8EB7-903CA90759C0}
      IID 11
      NAME "fr. horn(s) - National_Anthems_-_Andorra.mid"
      VOLPAN 1 0 1 -1
      SOFFS 0 0
      PLAYRATE 1 1 0 -1 0 0.0025
      CHANMODE 0
      TAKECOLOR 26173599 B
      GUID {BC27AAE7-2407-094A-BD3D-9B89DDD5943C}
      <SOURCE MIDI
        HASDATA 1 480 QN
        POOLEDEVTS {8FE1196A-7B34-9049-B5C0-E9634329B429}
        <X 0 0 0 0 3 "fr. horn(s)"
          /wNmci4gaG9ybihzKQ==
        >
        <X 0 0 0 0 4 "Sound Canvas"
          /wRTb3VuZCBDYW52YXM=
        >
        e 0 90 3e 7f
        e 120 80 3e 3d
        e 0 90 3b 7f -1
        e 171 80 3b 01 -1
        e 9 90 3e 7f -9
        e 95 80 3e 26 -9
        e 85 90 3b 7f 1
        e 0 90 3e 7f
        e 367 80 3b 1a 1
        e 11 80 3e 37
        e 102 90 3b 7f -23
        e 0 90 3e 7f -28
        e 219 80 3b 27 -23
        e 14 80 3e 35 -28
        e 67 90 3b 7f -4
        e 0 90 3e 7f -12
        e 72 80 3b 31 -4
        e 30 80 3e 35 -12
        e 78 90 3e 7f -25
        e 0 90 42 7f -23
        e 356 80 3e 0b -25
        e 22 80 42 32 -23
        e 102 90 3e 7f -27
        e 0 90 42 7f
        e 327 80 3e 02 -27
        e 74 80 42 12
        e 79 90 3e 7f -20
        e 0 90 43 7f -21
        e 611 80 3e 27 -20
        e 92 80 43 4e -21
        e 17 90 3e 7f -13
        e 0 90 42 7f -14
        e 146 80 3e 39 -13
        e 48 80 42 29 -14
        e 46 90 3b 7f -17
        e 0 90 3e 7f -18
        e 377 80 3e 36 -18
        e 30 80 3b 29 -17
        e 73 90 3e 7f -13
        e 391 80 3e 05 -13
        e 89 90 3e 7f -2
        e 0 90 43 7f 1
        e 456 80 3e 42 -2
        e 24 90 3c 7f
        e 396 80 3c 39
        e 84 90 3e 7f -20
        e 435 80 43 49 1
        e 17 80 3e 29 -20
        e 28 90 3b 7f -28
        e 480 90 3e 7f -14
        e 0 90 43 7f -14
        e 18 80 3b 28 -28
        e 425 80 43 48 -14
        e 37 90 42 7f -29
        e 253 80 42 36 -29
        e 47 90 40 7f 1
        e 154 80 40 4a 1
        e 26 90 42 7f -21
        e 376 80 3e 30 -14
        e 10 80 42 3e -21
        e 94 90 3e 7f -6
        e 120 90 3b 7f 10
        e 14 80 3e 2a -6
        e 151 80 3b 23 10
        e 15 90 3e 7f -6
        e 96 80 3e 1b -6
        e 84 90 3b 7f -8
        e 0 90 3e 7f -10
        e 388 80 3e 34 -10
        e 4 80 3b 0b -8
        e 88 90 3b 7f -13
        e 0 90 3e 7f -15
        e 233 80 3b 23 -13
        e 1 80 3e 2d -15
        e 66 90 3b 7f 23
        e 0 90 3e 7f 19
        e 96 80 3b 21 23
        e 10 80 3e 25 19
        e 74 90 3e 7f 12
        e 0 90 42 7f 14
        e 364 80 3e 2d 12
        e 6 80 42 45 14
        e 110 90 3e 7f 3
        e 0 90 42 7f
        e 305 80 3e 0e 3
        e 49 80 42 2c
        e 126 90 3e 7f -17
        e 0 90 43 7f -18
        e 612 80 3e 33 -17
        e 108 90 3c 7f -17
        e 0 90 42 7f -23
        e 15 80 43 27 -18
        e 126 80 3c 2d -17
        e 69 80 42 35 -23
        e 30 90 3b 7f -7
        e 0 90 3e 7f -10
        e 371 80 3e 28 -10
        e 39 80 3b 12 -7
        e 70 90 3e 7f -3
        e 353 80 3e 14 -3
        e 127 90 3e 7f -4
        e 0 90 43 7f -8
        e 440 80 3e 3e -4
        e 40 90 3c 7f
        e 466 80 3c 2d
        e 14 90 3e 7f
        e 379 80 3e 09
        e 66 80 43 3c -8
        e 35 90 3e 7f -12
        e 0 90 42 7f -11
        e 208 80 42 21 -11
        e 23 80 3e 1f -12
        e 69 90 3e 7f 21
        e 0 90 42 7f
        e 89 80 42 3f
        e 2 80 3e 36 21
        e 89 90 3b 7f -7
        e 0 90 3e 7f -9
        e 848 80 3b 29 -7
        e 6 80 3e 3b -9
        e 106 90 3b 7f -8
        e 0 90 3e 7f -14
        e 272 80 3e 0e -14
        e 17 80 3b 1c -8
        e 191 90 43 7f -7
        e 120 90 40 7f 23
        e 28 80 43 42 -7
        e 100 80 40 15 23
        e 52 90 43 7f -17
        e 92 80 43 3e -17
        e 88 90 40 7f -11
        e 0 90 43 7f -9
        e 418 80 43 22 -9
        e 10 80 40 06 -11
        e 52 90 40 7f 10
        e 0 90 43 7f 8
        e 218 80 40 1e 10
        e 0 80 43 37 8
        e 82 90 40 7f 18
        e 0 90 43 7f 17
        e 80 80 40 28 18
        e 8 80 43 3d 17
        e 92 90 3e 7f 8
        e 0 90 43 7f 5
        e 357 80 3e 26 8
        e 0 80 43 39 5
        e 123 90 3e 7f -12
        e 0 90 43 7f -19
        e 310 80 3e 08 -12
        e 52 80 43 37 -19
        e 118 90 3e 7f -21
        e 0 90 42 7f -27
        e 720 80 42 08 -27
        e 0 90 43 7f -10
        e 209 80 43 32 -10
        e 31 90 42 7f 2
        e 335 80 42 34 2
        e 145 90 42 7f
        e 155 80 3e 2b -21
        e 79 80 42 3f
        e 66 90 42 7f 13
        e 88 80 42 3f 13
        e 92 90 43 7f 25
        e 431 80 43 4d 25
        e 49 90 40 7f -22
        e 480 90 3d 7f -15
        e 2 80 40 29 -22
        e 422 80 3d 32 -15
        e 56 90 3d 7f 6
        e 386 80 3d 31 6
        e 94 90 3e 7f
        e 694 80 3e 2b
        e 26 90 3d 7f -1
        e 218 80 3d 3a -1
        e 22 90 3e 7f -18
        e 327 80 3e 1c -18
        e 153 90 43 7f -4
        e 112 80 43 3a -4
        e 8 90 40 7f 12
        e 138 80 40 21 12
        e 42 90 43 7f -16
        e 84 80 43 45 -16
        e 96 90 40 7f -13
        e 0 90 43 7f -7
        e 405 80 43 33 -7
        e 15 80 40 31 -13
        e 60 90 40 7f 3
        e 0 90 43 7f 4
        e 346 80 43 18 4
        e 37 80 40 2b 3
        e 97 90 3e 7f -1
        e 0 90 43 7f -4
        e 376 80 3e 14 -1
        e 10 80 43 37 -4
        e 94 90 3e 7f -4
        e 0 90 43 7f -8
        e 230 80 3e 21 -4
        e 5 80 43 3c -8
        e 65 90 3e 7f 14
        e 0 90 43 7f 14
        e 77 80 3e 2c 14
        e 15 80 43 43 14
        e 88 90 3e 7f 11
        e 0 90 42 7f 12
        e 646 80 42 29 12
        e 74 90 43 7f -24
        e 209 80 43 3d -24
        e 31 90 42 7f -9
        e 343 80 42 4d -9
        e 137 90 42 7f 13
        e 179 80 42 3c 13
        e 121 90 42 7f 38
        e 102 80 42 42 38
        e 25 80 3e 01 11
        e 53 90 40 7f 9
        e 0 90 43 7f 8
        e 797 80 40 3a 9
        e 134 80 43 4c 8
        e 29 90 3d 7f -6
        e 0 90 40 7f -4
        e 841 80 3d 01 -6
        e 105 80 40 23 -4
        e 14 90 3e 7f
        e 1361 80 3e 06
        e 79 90 3e 7f 26
        e 152 80 3e 2f 26
        e 28 90 3b 7f -10
        e 120 90 3e 7f 14
        e 23 80 3b 18 -10
        e 84 80 3e 2d 14
        e 73 90 3b 7f
        e 0 90 3e 7f
        e 576 80 3b 27
        e 0 80 3e 3b
        e 84 90 3b 7f 23
        e 0 90 3e 7f 23
        e 144 80 3e 25 23
        e 17 80 3b 2a 23
        e 139 90 3e 7f -25
        e 0 90 42 7f -22
        e 233 80 42 3f -22
        e 1 80 3e 35 -25
        e 66 90 3e 7f -4
        e 0 90 42 7f -5
        e 81 80 3e 3e -4
        e 7 80 42 46 -5
        e 32 90 3e 7f 19
        e 0 90 42 7f 18
        e 231 80 3e 32 19
        e 0 80 42 3e 18
        e 129 90 3e 7f -19
        e 0 90 42 7f -27
        e 71 80 3e 37 -19
        e 28 80 42 46 -27
        e 21 90 3e 7f 28
        e 0 90 43 7f 26
        e 610 80 3e 30 28
        e 81 80 43 01 26
        e 89 90 3e 7f -20
        e 0 90 42 7f -21
        e 136 80 3e 25 -20
        e 50 80 42 13 -21
        e 54 90 3b 7f -2
        e 0 90 3e 7f -6
        e 431 80 3b 40 -2
        e 14 80 3e 27 -6
        e 515 90 3e 7f -8
        e 0 90 43 7f -8
        e 461 80 3e 34 -8
        e 19 90 3c 7f -20
        e 378 80 43 3c -8
        e 8 80 3c 2f -20
        e 94 90 3b 7f -17
        e 0 90 43 7f -20
        e 378 80 3b 1d -17
        e 92 80 43 47 -20
        e 10 90 3b 7f -15
        e 0 90 3e 7f -15
        e 219 80 3b 28 -15
        e 0 80 3e 2c -15
        e 81 90 3b 7f 16
        e 0 90 3e 7f 18
        e 74 80 3b 24 16
        e 5 80 3e 27 18
        e 101 90 3e 7f 1
        e 0 90 43 7f
        e 451 80 43 40
        e 29 90 42 7f -15
        e 218 80 42 3b -15
        e 22 90 40 7f -19
        e 180 90 42 7f 25
        e 31 80 40 4e -19
        e 315 80 3e 20 1
        e 17 80 42 2d 25
        e 117 90 3e 7f 25
        e 154 80 3e 36 25
        e 26 90 3b 7f -4
        e 120 90 3e 7f 29
        e 27 80 3b 20 -4
        e 61 80 3e 2e 29
        e 152 90 3b 7f -14
        e 0 90 3e 7f -16
        e 390 80 3e 37 -16
        e 4 80 3b 13 -14
        e 86 90 3b 7f -6
        e 0 90 3e 7f -10
        e 211 80 3b 22 -6
        e 9 80 3e 39 -10
        e 80 90 3b 7f 13
        e 0 90 3e 7f 9
        e 79 80 3b 35 13
        e 6 80 3e 38 9
        e 95 90 3e 7f -11
        e 0 90 42 7f -12
        e 359 80 3e 2c -11
        e 3 80 42 38 -12
        e 58 90 42 7f 28
        e 60 90 3e 7f -30
        e 174 80 42 37 28
        e 63 80 3e 2a -30
        e 63 90 3e 7f 7
        e 0 90 42 7f 3
        e 106 80 3e 3e 7
        e 18 80 42 4b 3
        e 56 90 3f 7f
        e 0 90 42 7f 2
        e 1259 80 3f 18
        e 66 80 42 1e 2
        e 115 90 3f 7f 17
        e 0 90 45 7f 24
        e 215 80 45 39 24
        e 7 80 3f 23 17
        e 78 90 3f 7f 14
        e 0 90 45 7f 29
        e 89 80 45 2d 29
        e 3 80 3f 2f 14
        e 88 90 40 7f 21
        e 0 90 44 7f 13
        e 342 80 40 22 21
        e 94 80 44 01 13
        e 44 90 40 7f -4
        e 0 90 47 7f -5
        e 334 80 40 01 -4
        e 90 80 47 3a -5
        e 56 90 40 7f -6
        e 0 90 45 7f -4
        e 354 80 40 27 -6
        e 43 80 45 23 -4
        e 83 90 3e 7f -1
        e 0 90 44 7f -17
        e 345 80 3e 01 -1
        e 95 80 44 3f -17
        e 40 90 3c 7f -12
        e 0 90 40 7f -20
        e 754 80 3c 3d -12
        e 34 80 40 2d -20
        e 172 90 37 7f -18
        e 0 90 40 7f -11
        e 585 80 37 1f -18
        e 22 80 40 0b -11
        e 173 90 39 7f 24
        e 0 90 40 7f 20
        e 0 90 43 7f 26
        e 99 80 40 3a 20
        e 5 80 43 01 26
        e 9 80 39 06 24
        e 67 90 3b 7f
        e 0 90 3e 7f 5
        e 0 90 43 7f
        e 612 80 3b 23
        e 1 80 3e 2e 5
        e 7 80 43 2a
        e 160 90 3b 7f 1
        e 0 90 3e 7f 3
        e 0 90 43 7f -2
        e 101 80 3e 36 3
        e 1 80 3b 2b 1
        e 3 80 43 28 -2
        e 75 90 39 7f 12
        e 0 90 3e 7f 10
        e 0 90 43 7f 4
        e 612 80 39 01 12
        e 16 80 3e 17 10
        e 57 80 43 45 4
        e 95 90 39 7f 21
        e 0 90 3e 7f 21
        e 0 90 42 7f 21
        e 101 80 39 3c 21
        e 7 80 3e 29 21
        e 5 80 42 45 21
        e 67 90 3b 7f 20
        e 0 90 3e 7f 21
        e 1417 80 3e 53 21
        e 7 80 3b 53 20
        E 496 b0 7b 00
        GUID {71C82EDB-E872-D54A-B3A6-C3B8EE803E2F}
        IGNTEMPO 0 120 4 4
        SRCCOLOR 935
        VELLANE -1 86 6
        CFGEDITVIEW 23198.385214 165.64797 0 7 0 0 0 0 0 0.5
        KEYSNAP 0
        TRACKSEL 209
        EVTFILTER 0 -1 -1 -1 -1 0 1 0 0 -1 -1 -1 -1 0 -1 0 -1 -1
        CFGEDIT 1 0 0 0 0 0 1 0 1 1 1 0.25 16 20 1920 1178 0 0 2 3 0 0 0 0 0 0.5 0 0 1 64
      >
      TAKE
      NAME "fr. horn(s) - National_Anthems_-_Andorra.mid"
      TAKEVOLPAN 0 1 -1
      SOFFS 0 0
      PLAYRATE 1 1 0 -1 0 0.0025
      CHANMODE 0
      GUID {46CDD30A-C6BA-104B-9976-928B8AF5C1CC}
      <SOURCE MIDI
        HASDATA 1 480 QN
        POOLEDEVTS {82006FDF-CE97-9442-B51B-5BEC75333DB6}
        <X 0 0 0 0 3 "fr. horn(s)"
          /wNmci4gaG9ybihzKQ==
        >
        <X 0 0 0 0 4 "Sound Canvas"
          /wRTb3VuZCBDYW52YXM=
        >
        E 0 91 3e 62
        E 119 91 3b 52
        E 1 81 3e 3d
        E 170 81 3b 01
        E 1 91 3e 63
        E 95 81 3e 26
        E 94 91 3e 62
        E 1 91 3b 52
        E 367 81 3b 1a
        E 10 81 3e 37
        E 74 91 3e 5b
        E 5 91 3b 58
        E 219 81 3b 27
        E 9 81 3e 35
        E 83 91 3e 59
        E 8 91 3b 58
        E 72 81 3b 31
        E 22 81 3e 35
        E 65 91 3e 60
        E 2 91 42 65
        E 354 81 3e 0b
        E 24 81 42 32
        E 89 91 42 5b
        E 9 91 3e 5f
        E 327 81 3e 02
        E 65 81 42 12
        E 94 91 43 69
        E 1 91 3e 62
        E 611 81 3e 27
        E 91 81 43 4e
        E 24 91 42 5b
        E 1 91 3e 5d
        E 146 81 3e 39
        E 47 81 42 29
        E 42 91 3e 5d
        E 1 91 3b 50
        E 376 81 3e 36
        E 31 81 3b 29
        E 77 91 3e 62
        E 391 81 3e 05
        E 100 91 3e 5e
        E 3 91 43 61
        E 446 91 3c 51
        E 7 81 3e 42
        E 478 81 3c 39
        E 8 91 3e 4f
        E 452 81 3e 29
        E 4 81 43 49
        E 16 91 3b 4f
        E 494 91 3e 56
        E 0 91 43 63
        E 4 81 3b 28
        E 439 81 43 48
        E 22 91 42 5a
        E 253 81 42 36
        E 77 91 40 4e
        E 154 81 40 4a
        E 4 91 42 5a
        E 383 81 3e 30
        E 3 81 42 3e
        E 109 91 3e 59
        E 134 81 3e 2a
        E 2 91 3b 4a
        E 164 91 3e 56
        E 1 81 3b 23
        E 95 81 3e 1b
        E 80 91 3e 59
        E 2 91 3b 48
        E 386 81 3e 34
        E 6 81 3b 0b
        E 81 91 3e 57
        E 2 91 3b 4c
        E 232 81 3e 2d
        E 1 81 3b 23
        E 99 91 3e 53
        E 4 91 3b 52
        E 96 81 3b 21
        E 6 81 3e 25
        E 67 91 3e 57
        E 2 91 42 62
        E 362 81 3e 2d
        E 8 81 42 45
        E 96 91 42 62
        E 3 91 3e 55
        E 305 81 3e 0e
        E 46 81 42 2c
        E 108 91 43 67
        E 1 91 3e 5d
        E 612 81 3e 33
        E 102 91 42 62
        E 6 91 3c 55
        E 14 81 43 27
        E 127 81 3c 2d
        E 63 81 42 35
        E 43 91 3e 5a
        E 3 91 3b 52
        E 368 81 3e 28
        E 42 81 3b 12
        E 74 91 3e 64
        E 353 81 3e 14
        E 122 91 43 60
        E 4 91 3e 59
        E 440 81 3e 3e
        E 7 91 3c 53
        E 466 81 3c 2d
        E 19 91 3e 4b
        E 379 81 3e 09
        E 90 81 43 3c
        E 31 91 3e 57
        E 1 91 42 56
        E 208 81 42 21
        E 22 81 3e 1f
        E 98 91 42 58
        E 4 91 3e 57
        E 91 81 3e 36
        E 30 81 42 3f
        E 29 91 3e 55
        E 2 91 3b 4d
        E 848 81 3b 29
        E 4 81 3e 3b
        E 101 91 3e 4d
        E 6 91 3b 4e
        E 266 81 3e 0e
        E 23 81 3b 1c
        E 192 91 43 66
        E 148 81 43 42
        E 2 91 40 5c
        E 128 81 40 15
        E 12 91 43 58
        E 92 81 43 3e
        E 94 91 40 53
        E 2 91 43 5a
        E 418 81 43 22
        E 8 81 40 06
        E 71 91 43 5d
        E 2 91 40 4c
        E 216 81 43 37
        E 2 81 40 1e
        E 89 91 43 4f
        E 1 91 40 4b
        E 80 81 40 28
        E 7 81 43 3d
        E 80 91 43 60
        E 3 91 3e 56
        E 354 81 43 39
        E 3 81 3e 26
        E 96 91 43 60
        E 7 91 3e 55
        E 310 81 3e 08
        E 45 81 43 37
        E 110 91 42 55
        E 6 91 3e 53
        E 714 81 42 08
        E 17 91 43 62
        E 209 81 43 32
        E 43 91 42 5d
        E 335 81 42 34
        E 141 91 42 68
        E 136 81 3e 2b
        E 151 81 42 3f
        E 63 91 42 62
        E 122 81 42 45
        E 35 91 43 67
        E 431 81 43 4d
        E 2 91 40 60
        E 482 81 40 29
        E 5 91 3d 5b
        E 424 81 3d 32
        E 77 91 3d 62
        E 386 81 3d 31
        E 88 91 3e 5f
        E 694 81 3e 2b
        E 25 91 3d 5d
        E 218 81 3d 3a
        E 5 91 3e 53
        E 327 81 3e 1c
        E 167 91 43 64
        E 112 81 43 3a
        E 24 91 40 4e
        E 138 81 40 21
        E 14 91 43 5a
        E 84 81 43 45
        E 99 91 40 55
        E 6 91 43 62
        E 405 81 43 33
        E 9 81 40 31
        E 76 91 40 51
        E 1 91 43 60
        E 346 81 43 18
        E 36 81 40 2b
        E 90 91 43 5d
        E 3 91 3e 5b
        E 376 81 3e 14
        E 7 81 43 37
        E 90 91 43 68
        E 4 91 3e 5c
        E 230 81 3e 21
        E 1 81 43 3c
        E 120 91 43 60
        E 2 91 3e 59
        E 77 81 3e 2c
        E 13 81 43 43
        E 52 91 3e 5c
        E 1 91 42 63
        E 646 81 42 29
        E 38 91 43 6b
        E 209 81 43 3d
        E 46 91 42 65
        E 343 81 42 4d
        E 159 91 42 6c
        E 179 81 42 3c
        E 146 91 42 63
        E 100 81 3e 01
        E 2 81 42 42
        E 48 91 43 66
        E 1 91 40 60
        E 797 81 40 3a
        E 133 81 43 4c
        E 15 91 3d 4a
        E 2 91 40 5b
        E 839 81 3d 01
        E 107 81 40 23
        E 2 91 3e 5c
        E 1173 81 3e 06
        E 309 91 3e 5f
        E 144 91 3b 51
        E 8 81 3e 2f
        E 135 81 3b 18
        E 1 91 3e 54
        E 107 81 3e 2d
        E 59 91 3e 56
        E 0 91 3b 4d
        E 576 81 3e 3b
        E 0 81 3b 27
        E 107 91 3e 52
        E 0 91 3b 53
        E 144 81 3e 25
        E 17 81 3b 2a
        E 91 91 3e 5d
        E 3 91 42 61
        E 231 81 3e 35
        E 2 81 42 3f
        E 84 91 42 5b
        E 1 91 3e 57
        E 81 81 3e 3e
        E 6 81 42 46
        E 55 91 42 66
        E 1 91 3e 5a
        E 230 81 42 3e
        E 1 81 3e 32
        E 83 91 42 5d
        E 8 91 3e 56
        E 71 81 3e 37
        E 20 81 42 46
        E 74 91 43 66
        E 2 91 3e 58
        E 610 81 3e 30
        E 79 81 43 01
        E 42 91 42 5f
        E 1 91 3e 55
        E 136 81 3e 25
        E 49 81 42 13
        E 69 91 3e 57
        E 4 91 3b 4f
        E 431 81 3b 40
        E 10 81 3e 27
        E 513 91 43 61
        E 0 91 3e 59
        E 461 81 3e 34
        E 7 91 3c 50
        E 386 81 3c 2f
        E 4 81 43 3c
        E 90 91 43 62
        E 3 91 3b 4f
        E 378 81 3b 1d
        E 89 81 43 47
        E 15 91 3b 4f
        E 0 91 3e 56
        E 219 81 3b 28
        E 0 81 3e 2c
        E 112 91 3b 43
        E 2 91 3e 49
        E 72 81 3b 24
        E 7 81 3e 27
        E 83 91 43 57
        E 1 91 3e 53
        E 450 81 43 40
        E 14 91 42 5a
        E 218 81 42 3b
        E 18 91 40 4e
        E 211 81 40 4e
        E 13 91 42 56
        E 322 81 3e 20
        E 41 81 42 2d
        E 117 91 3e 5a
        E 151 91 3b 4d
        E 3 81 3e 36
        E 144 81 3b 20
        E 6 91 3e 59
        E 88 81 3e 2e
        E 107 91 3e 56
        E 2 91 3b 4c
        E 388 81 3e 37
        E 6 81 3b 13
        E 90 91 3e 5d
        E 4 91 3b 4d
        E 211 81 3b 22
        E 5 81 3e 39
        E 99 91 3e 52
        E 4 91 3b 52
        E 79 81 3b 35
        E 2 81 3e 38
        E 74 91 42 5e
        E 1 91 3e 5e
        E 359 81 3e 2c
        E 2 81 42 38
        E 98 91 42 61
        E 2 91 3e 57
        E 232 81 42 37
        E 5 81 3e 2a
        E 96 91 42 5b
        E 4 91 3e 56
        E 106 81 3e 3e
        E 14 81 42 4b
        E 53 91 3f 51
        E 2 91 42 5f
        E 1257 81 3f 18
        E 68 81 42 1e
        E 130 91 3f 5f
        E 7 91 45 63
        E 215 81 3f 23
        E 0 81 45 39
        E 75 91 3f 52
        E 15 91 45 60
        E 77 81 3f 2f
        E 12 81 45 2d
        E 75 91 44 5f
        E 8 91 40 5e
        E 342 81 40 22
        E 86 81 44 01
        E 26 91 47 5d
        E 1 91 40 5b
        E 334 81 40 01
        E 89 81 47 3a
        E 55 91 40 56
        E 2 91 45 55
        E 352 81 40 27
        E 45 81 45 23
        E 70 91 44 51
        E 16 91 3e 5a
        E 345 81 3e 01
        E 79 81 44 3f
        E 37 91 40 5a
        E 8 91 3c 4f
        E 754 81 3c 3d
        E 26 81 40 2d
        E 174 91 37 45
        E 7 91 40 50
        E 578 81 37 1f
        E 29 81 40 0b
        E 204 91 40 50
        E 4 91 39 48
        E 2 91 43 5b
        E 93 81 40 3a
        E 11 81 43 01
        E 7 81 39 06
        E 43 91 3b 4f
        E 0 91 43 55
        E 5 91 3e 52
        E 607 81 3b 23
        E 6 81 3e 2e
        E 2 81 43 2a
        E 158 91 43 62
        E 3 91 3b 53
        E 2 91 3e 53
        E 100 81 43 28
        E 0 81 3b 2b
        E 1 81 3e 36
        E 80 91 43 63
        E 6 91 3e 5f
        E 2 91 39 50
        E 612 81 39 01
        E 14 81 3e 17
        E 51 81 43 45
        E 112 91 39 52
        E 0 91 42 5d
        E 0 91 3e 5a
        E 101 81 39 3c
        E 7 81 3e 29
        E 5 81 42 45
        E 66 91 3b 53
        E 1 91 3e 5e
        E 1417 81 3e 53
        E 6 81 3b 53
        E 476 b0 7b 00
        GUID {5503B13E-D8D6-144D-A121-02779C9DCDB6}
        IGNTEMPO 0 120 4 4
        SRCCOLOR 956
        VELLANE -1 86 6
        CFGEDITVIEW 0 0 0 7 0 0 0 0 0 0.5
        KEYSNAP 0
        TRACKSEL 226
        EVTFILTER 0 -1 -1 -1 -1 0 0 0 0 -1 -1 -1 -1 0 -1 0 -1 -1
        CFGEDIT 1 0 0 0 0 0 1 0 1 1 1 0.25 16 20 1920 1178 0 0 2 3 0 0 0 0 0 0.5 0 0 1 64
      >
    >
  >
  <TRACK {4A6CD977-ADCC-3A4D-927C-BB2CEF4B0809}
    NAME "vst Gladiator"
    PEAKCOL 27222112
    BEAT -1
    AUTOMODE 0
    VOLPAN 0.46976747615165 0 -1 -1 1
    MUTESOLO 0 0 0
    IPHASE 0
    ISBUS 0 0
    BUSCOMP 2 0
    SHOWINMIX 1 0.6667 0.290323 1 0.5 0 0 0
    FREEMODE 0
    SEL 0
    REC 0 0 0 0 0 0 0
    VU 2
    TRACKHEIGHT 0 0
    INQ 0 0 0 0.5 100 0 0 100
    NCHAN 2
    FX 1
    TRACKID {4A6CD977-ADCC-3A4D-927C-BB2CEF4B0809}
    PERF 0
    MIDIOUT -1
    MAINSEND 1 0
    <FXCHAIN
      SHOW 0
      LASTSEL 0
      DOCKED 0
      BYPASS 0 0 0
      <VST "VSTi: Gladiator (Tone2.com)" Gladiator.vst 0 "" 1412581196
        TEcyVO5e7f4AAAAAAgAAAAEAAAAAAAAAAgAAAAAAAABaBAAAAQAAAAAAEAA=
        Q2NuSwAAAGBGeENrAAAAAVQyR0wAAAABAAABB0luaXQAAAAAAAAAAAAAAAAAAAAAAAAAAAAAAAA9zMzNPMzMzTw0OVg9uFH0PXnbIz+AAAA7xJumPb52yT+AAAA7xJum
        AAAAAD6mZmY+PXCkP4AAAD7FHrk/AAAAPwAAAAAAAAA9ffO2PdDlYDy8an8/RR64AAAAAD+AAAA8NDlYPZFocz71wo87RJumPbhR6D69cKQ+PXCkP4AAAD8AAAA/A9cL
        PwAAAAAAAAAAAAAAPwAAAD8AAAA/AAAAPtmZmj8AAAAAAAAAO+VgQj24UesAAAAAPk21xDtEm6Y/S4UeAAAAAAAAAAA+64UgPpR64T1hR7A+z1woPx64Uj49cKY/AAAA
        PwAAAAAAAAAAAAAAPwAAAAAAAAAAAAAAP4AAAD+AAAAAAAAAPxHrhT8AAAA/AAAAPwAAAD8AAAAAAAAAPwAAAD8AAAA/AAAAAAAAAD8AAAA/AAAAPwAAAAAAAAA6gxJv
        P1Cj1wAAAAA/gAAAAAAAADqDEm8/AAAAAAAAAAAAAAAAAAAAPwAAAAAAAAA/gAAAAAAAAD+AAAAAAAAAPwAAAD8AAAA/AAAAPwAAAD8AAAA/AAAAPwAAAD8AAAA/AAAA
        PwAAAD8AAAA/EeuGPKPXCjqDEm88RJumAAAAAAAAAAAAAAAAPLxqfwAAAAAAAAAAAAAAAAAAAAAAAAAAAAAAAAAAAAAAAAAAAAAAAAAAAAAAAAAAAAAAAAAAAAAAAAAA
        AAAAAAAAAAA8E3S8AAAAADw0OVgAAAAAPBN0vAAAAAA8NDlYAAAAADwTdLwAAAAAPDQ5WAAAAAA8E3S8AAAAADw0OVgAAAAAPGVgQj2HKwI8ZWBCOwMSbz2JN0w7AxJv
        PLQ5WDyLQ5Y8k3S8PVT99D0XjVA8zMzNPoAAAD9ywjU/AAAAP1GnuT8wjT4/HLCNAAAAADsDEm86gxJvAAAAAAAAAAAAAAAAPwAAADqDEm87RJumP4AAAAAAAAA/gAAA
        AAAAAD+AAAAAAAAAAAAAAAAAAAAAAAAAP4AAAAAAAAA/AAAAAAAAAD8AAAA/BR64PwAAAD+AAAA/AAAAPwAAAD8AAAA/gAAAP4AAAAAAAAAAAAAAAAAAAD8AAAA/gAAA
        PwAAAAAAAAA+vXCkAAAAAAAAAAA/gAAAP4AAAD8j1wo/gAAAAAAAAAAAAAA/gAAAPwAAAAAAAAAAAAAAAAAAAAAAAAAAAAAAAAAAAAAAAAAAAAAAAAAAAAAAAAAAAAAA
        AAAAAD8AAAA/AAAAPwAAAD8AAAA/AAAAPwAAAAAAAAAAAAAAP4AAAAAAAAAAAAAAAAAAAAAAAAAAAAAAAAAAAAAAAAAAAAAAAAAAAAAAAAAAAAAAAAAAAAAAAAAAAAAA
        AAAAAAAAAAAAAAAAAAAAAAAAAAAAAAAAAAAAAAAAAAAAAAAAAAAAAAAAAAAAAAAAAAAAAAAAqqusrQ==
        AEluaXQAEAAAAA==
      >
      PRESETNAME Init
      FLOATPOS 500 379 987 799
      FXID {532372E3-5B0D-9345-A9C8-98A8EBAF9A7E}
      WAK 0
    >
  >
  <TRACK {9E2CAE92-CCC1-1F4A-BCF6-93DCFE473BDF}
    NAME "16th pulse (mix w/ send?)"
    PEAKCOL 16576
    BEAT -1
    AUTOMODE 0
    VOLPAN 1 0 -1 -1 1
    MUTESOLO 0 0 0
    IPHASE 0
    ISBUS 0 0
    BUSCOMP 0 0
    SHOWINMIX 1 0.6667 0.290323 1 0.5 0 0 0
    FREEMODE 0
    SEL 1
    REC 0 0 0 0 0 0 0
    VU 2
    TRACKHEIGHT 128 0
    INQ 0 0 0 0.5 100 0 0 100
    NCHAN 2
    FX 1
    TRACKID {9E2CAE92-CCC1-1F4A-BCF6-93DCFE473BDF}
    PERF 0
    MIDIOUT -1
    MAINSEND 1 0
    <FXCHAIN
      WNDRECT 36 359 724 387
      SHOW 0
      LASTSEL 0
      DOCKED 0
      BYPASS 1 0 0
      <VST "VSTi: BlueARP.x64 (graywolf2004)" BlueARP.x64.vst 0 "" 929322872
        eFdkN+5e7f4AAAAAAgAAAAEAAAAAAAAAAgAAAAAAAAAODwEAAQAAAAAAEAA=
        YmJuawYPAQBmaXhwFAAAABAAAQEBAAAAAAII/wUAAAAAAAAAZnBncCIAAAAPEFoEAAAAfwB/AEAAAQABAAAAAAAAAAAAfwAAAAEAAAAAY2hucAQAAAAA////Y2hucwgA
        AAAPDg4O/////2NobnAEAAAAAP///2NobnMIAAAAFv////////9jaG5wBAAAAAD///9jaG5zCAAAABL/////////Y2hucAQAAAAA////Y2hucwgAAAAICAkJ/////2No
        bnAEAAAAAP///2NobnMIAAAANf////////9jaG5wBAAAAAD///9jaG5zCAAAAD0+////////Y2hucAQAAAAA////Y2hucwgAAAAgICAh/////2NobnAEAAAAAP///2No
        bnMIAAAAGhr///////9jaG5wBAAAAAD///9jaG5zCAAAAP//////////Y2hucAQAAAAA////Y2hucwgAAAD//////////2NobnAEAAAAAP///2NobnMIAAAA////////
        //9jaG5wBAAAAAD///9jaG5zCAAAAP//////////Y2hucAQAAAAA////Y2hucwgAAAD//////////2NobnAEAAAAAP///2NobnMIAAAA//////////9jaG5wBAAAAAD/
        //9jaG5zCAAAAP//////////Y2hucAQAAAAA////Y2hucwgAAAD//////////3Byb2cSAgAAcHJncCIAAAAQEFoEAAEAfwB/AEAAAQABAAAAAAAAAAAAfwAAAAAAAAAA
        cGdubTAAAAAtIEluaXRpYWwgcHJvZ3JhbSAtAP9/AAAEjA8cAQAAAfTwUSUBAAAAAAABADABAABzdHAwQAAAAAAAAAAAAAAAAAAAAAAAAAAAAAAAAAAAAAAAAAAAAAAA
        AAAAAAAAAAAAAAAAAAAAAAAAAAAAAAAAAAAAAAAAAABzdHAxQAAAAAgICAgICAgICAgICAgICAgICAgICAgICAgICAgICAgICAgICAgICAgICAgICAgICAgICAgICAgI
        CAgICAgICAhzdHAyQAAAAAEBAQEBAQEBAQEBAQEBAQEBAQEBAQEBAQEBAQEBAQEBAQEBAQEBAQEBAQEBAQEBAQEBAQEBAQEBAQEBAQEBAQFzdHAzQAAAAAQEBAQEBAQE
        BAQEBAQEBAQEBAQEBAQEBAQEBAQEBAQEBAQEBAQEBAQEBAQEBAQEBAQEBAQEBAQEBAQEBAQEBARzdHA0QAAAAGBgYGBgYGBgYGBgYGBgYGBgYGBgYGBgYGBgYGBgYGBg
        YGBgYGBgYGBgYGBgYGBgYGBgYGBgYGBgYGBgYGBgYGBzdHA1QAAAAAAAAAAAAAAAAAAAAAAAAAAAAAAAAAAAAAAAAAAAAAAAAAAAAAAAAAAAAAAAAAAAAAAAAAAAAAAA
        AAAAAAAAAABwcm9nEgIAAHByZ3AiAAAAEBAyBAADAH8AfwBAAAEAAQAAAAAAAAAAAH8AAAAAAAAAAHBnbm0wAAAAU2ltcGxlIDRrIFVwAAAAALApvl//fwAAsDgPHAEA
        AAAkKr5f/38AAPTwUSUBAAAAc3RwMEAAAAAAAAAAAAAAAAAAAAAAAAAAAAAAAAAAAAAAAAAAAAAAAAAAAAAAAAAAAAAAAAAAAAAAAAAAAAAAAAAAAAAAAAAAc3RwMUAA
        AAAICAgICAgICAgICAgICAgICAgICAgICAgICAgICAgICAgICAgICAgICAgICAgICAgICAgICAgICAgICAgICAgIc3RwMkAAAAABAQEBAQEBAQEBAQEBAQEBAQEBAQEB
        AQEBAQEBAQEBAQEBAQEBAQEBAQEBAQEBAQEBAQEBAQEBAQEBAQEBAQEBc3RwM0AAAAAECBAgBAgQIAQIECAECBAgBAQEBAQEBAQEBAQEBAQEBAQEBAQEBAQEBAQEBAQE
        BAQEBAQEBAQEBAQEBAQEBAQEc3RwNEAAAABgYGBgYGBgYGBgYGBgYGBgYGBgYGBgYGBgYGBgYGBgYGBgYGBgYGBgYGBgYGBgYGBgYGBgYGBgYGBgYGBgYGBgc3RwNUAA
        AAAAAAAAAAAAAAAAAAAAAAAAAAAAAAAAAAAAAAAAAAAAAAAAAAAAAAAAAAAAAAAAAAAAAAAAAAAAAAAAAAAAAAAAcHJvZxICAABwcmdwIgAAABAQMgQAAwB/AH8AQAAB
        AAEAAAAAAAAAAAB/AAAAAAAAAABwZ25tMAAAAFNpbXBsZSA0ayBEb3duAACwKb5f/38AALA4DxwBAAAAJCq+X/9/AAD08FElAQAAAHN0cDBAAAAAAAAAAAAAAAAAAAAA
        AAAAAAAAAAAAAAAAAAAAAAAAAAAAAAAAAAAAAAAAAAAAAAAAAAAAAAAAAAAAAAAAAAAAAHN0cDFAAAAACAgICAgICAgICAgICAgICAgICAgICAgICAgICAgICAgICAgI
        CAgICAgICAgICAgICAgICAgICAgICAgICAgICHN0cDJAAAAAAQEBAQEBAQEBAQEBAQEBAQEBAQEBAQEBAQEBAQEBAQEBAQEBAQEBAQEBAQEBAQEBAQEBAQEBAQEBAQEB
        AQEBAXN0cDNAAAAAIBAIBCAQCAQgEAgEIBAIBAQEBAQEBAQEBAQEBAQEBAQEBAQEBAQEBAQEBAQEBAQEBAQEBAQEBAQEBAQEBAQEBHN0cDRAAAAAYGBgYGBgYGBgYGBg
        YGBgYGBgYGBgYGBgYGBgYGBgYGBgYGBgYGBgYGBgYGBgYGBgYGBgYGBgYGBgYGBgYGBgYHN0cDVAAAAAAAAAAAAAAAAAAAAAAAAAAAAAAAAAAAAAAAAAAAAAAAAAAAAA
        AAAAAAAAAAAAAAAAAAAAAAAAAAAAAAAAAAAAAHByb2cSAgAAcHJncCIAAAAQEDIEAAMAfwB/AEAAAQABAAAAAAAAAAAAfwAAAAAAAAAAcGdubTAAAABTaW1wbGUgM2sg
        VXAAAAAAsCm+X/9/AACwOA8cAQAAACQqvl//fwAA9PBRJQEAAABzdHAwQAAAAAAAAAAAAAAAAAAAAAAAAAAAAAAAAAAAAAAAAAAAAAAAAAAAAAAAAAAAAAAAAAAAAAAA
        AAAAAAAAAAAAAAAAAABzdHAxQAAAAAgICAgICAgICAgICAgICAgICAgICAgICAgICAgICAgICAgICAgICAgICAgICAgICAgICAgICAgICAgICAgICAhzdHAyQAAAAAEB
        AQEBAQEBAQEBAQEBAQEBAQEBAQEBAQEBAQEBAQEBAQEBAQEBAQEBAQEBAQEBAQEBAQEBAQEBAQEBAQEBAQFzdHAzQAAAAAQIEAQIEAQIEAQIEAQIEAgEBAQEBAQEBAQE
        BAQEBAQEBAQEBAQEBAQEBAQEBAQEBAQEBAQEBAQEBAQEBAQEBARzdHA0QAAAAGBgYGBgYGBgYGBgYGBgYGBgYGBgYGBgYGBgYGBgYGBgYGBgYGBgYGBgYGBgYGBgYGBg
        YGBgYGBgYGBgYGBgYGBzdHA1QAAAAAAAAAAAAAAAAAAAAAAAAAAAAAAAAAAAAAAAAAAAAAAAAAAAAAAAAAAAAAAAAAAAAAAAAAAAAAAAAAAAAAAAAABwcm9nEgIAAHBy
        Z3AiAAAAEBAyBAADAH8AfwBAAAEAAQAAAAAAAAAAAH8AAAAAAAAAAHBnbm0wAAAAU2ltcGxlIDNrIERvd24AALApvl//fwAAsDgPHAEAAAAkKr5f/38AAPTwUSUBAAAA
        c3RwMEAAAAAAAAAAAAAAAAAAAAAAAAAAAAAAAAAAAAAAAAAAAAAAAAAAAAAAAAAAAAAAAAAAAAAAAAAAAAAAAAAAAAAAAAAAc3RwMUAAAAAICAgICAgICAgICAgICAgI
        CAgICAgICAgICAgICAgICAgICAgICAgICAgICAgICAgICAgICAgICAgICAgICAgIc3RwMkAAAAABAQEBAQEBAQEBAQEBAQEBAQEBAQEBAQEBAQEBAQEBAQEBAQEBAQEB
        AQEBAQEBAQEBAQEBAQEBAQEBAQEBAQEBc3RwM0AAAAAQCAQQCAQQCAQQCAQQCAQIBAQEBAQEBAQEBAQEBAQEBAQEBAQEBAQEBAQEBAQEBAQEBAQEBAQEBAQEBAQEBAQE
        c3RwNEAAAABgYGBgYGBgYGBgYGBgYGBgYGBgYGBgYGBgYGBgYGBgYGBgYGBgYGBgYGBgYGBgYGBgYGBgYGBgYGBgYGBgYGBgc3RwNUAAAAAAAAAAAAAAAAAAAAAAAAAA
        AAAAAAAAAAAAAAAAAAAAAAAAAAAAAAAAAAAAAAAAAAAAAAAAAAAAAAAAAAAAAAAAcHJvZxICAABwcmdwIgAAABAIWgQAAQB/AH8AQAABAAEAAAAAAAAAAAB/AAAAAAAA
        AABwZ25tMAAAAENob3JkIERlYWRtYXU1IHBsdWNrcyB2YXIxABwBAAAAJCq+X/9/AAD08FElAQAAAHN0cDBAAAAAAAAAAAAAAAAAAAAAAAAAAAAAAAAAAAAAAAAAAAAA
        AAAAAAAAAAAAAAAAAAAAAAAAAAAAAAAAAAAAAAAAAAAAAHN0cDFAAAAACAgECAgIBAgICAgICAgICAgICAgICAgICAgICAgICAgICAgICAgICAgICAgICAgICAgICAgI
        CAgICAgICAgICHN0cDJAAAAABAAEAAQABAABAQEBAQEBAQEBAQEBAQEBAQEBAQEBAQEBAQEBAQEBAQEBAQEBAQEBAQEBAQEBAQEBAQEBAQEBAXN0cDNAAAAABAQEBAQE
        BAQEBAQEBAQEBAQEBAQEBAQEBAQEBAQEBAQEBAQEBAQEBAQEBAQEBAQEBAQEBAQEBAQEBAQEBAQEBHN0cDRAAAAAMGBgYDBgYGBgYGBgYGBgYGBgYGBgYGBgYGBgYGBg
        YGBgYGBgYGBgYGBgYGBgYGBgYGBgYGBgYGBgYGBgYGBgYHN0cDVAAAAAAAAAAAAAAAAAAAAAAAAAAAAAAAAAAAAAAAAAAAAAAAAAAAAAAAAAAAAAAAAAAAAAAAAAAAAA
        AAAAAAAAAAAAAHByb2cSAgAAcHJncCIAAAAQCFoEAAEAfwB/AEAAAQABAAAAAAAAAAAAfwEAAAAAAAAAcGdubTAAAABDaG9yZCBEZWFkbWF1NSBwbHVja3MgdmFyMgAc
        AQAAACQqvl//fwAA9PBRJQEAAABzdHAwQAAAAAAAAAAAAAAAAAAAAAAAAAAAAAAAAAAAAAAAAAAAAAAAAAAAAAAAAAAAAAAAAAAAAAAAAAAAAAAAAAAAAAAAAABzdHAx
        QAAAAAwIDggMCA4ICAgICAgICAgICAgICAgICAgICAgICAgICAgICAgICAgICAgICAgICAgICAgICAgICAgICAgICAhzdHAyQAAAAAQABAAEAAQAAQEBAQEBAQEBAQEB
        AQEBAQEBAQEBAQEBAQEBAQEBAQEBAQEBAQEBAQEBAQEBAQEBAQEBAQEBAQFzdHAzQAAAAAQEBAQEBAQEBAQEBAQEBAQEBAQEBAQEBAQEBAQEBAQEBAQEBAQEBAQEBAQE
        BAQEBAQEBAQEBAQEBAQEBAQEBARzdHA0QAAAADBgYGAwYGBgYGBgYGBgYGBgYGBgYGBgYGBgYGBgYGBgYGBgYGBgYGBgYGBgYGBgYGBgYGBgYGBgYGBgYGBgYGBzdHA1
        QAAAAAAAAAAAAAAAAAAAAAAAAAAAAAAAAAAAAAAAAAAAAAAAAAAAAAAAAAAAAAAAAAAAAAAAAAAAAAAAAAAAAAAAAABwcm9nEgIAAHByZ3AiAAAAEBBKBAABAH8AfwBA
        AAEAAQAAAAAAAAAAAH8BAAAAAAAAAHBnbm0wAAAAUG9seXBob25pYyBvY3QuIFBsdWNrcyB2YXIxAAEAAAAkKr5f/38AAPTwUSUBAAAAc3RwMEAAAAAAAAAAAAAAAAAA
        AAAAAAAAAAAAAAAAAAAAAAAAAAAAAAAAAAAAAAAAAAAAAAAAAAAAAAAAAAAAAAAAAAAAAAAAc3RwMUAAAAAICAgMCAgICAgMCAgICAwICAgICAgICAgICAgICAgICAgI
        CAgICAgICAgICAgICAgICAgICAgICAgICAgICAgIc3RwMkAAAAAEAAAEAAAEAAAEAAAEAAQAAQEBAQEBAQEBAQEBAQEBAQEBAQEBAQEBAQEBAQEBAQEBAQEBAQEBAQEB
        AQEBAQEBc3RwM0AAAAAEBAQEBAQEBAQEBAQEBAQEBAQEBAQEBAQEBAQEBAQEBAQEBAQEBAQEBAQEBAQEBAQEBAQEBAQEBAQEBAQEBAQEc3RwNEAAAABgYGBgYGBgYGBg
        YGBgYGBgYGBgYGBgYGBgYGBgYGBgYGBgYGBgYGBgYGBgYGBgYGBgYGBgYGBgYGBgYGBgYGBgc3RwNUAAAAAAAAAAAAAAAAAAAAAAAAAAAAAAAAAAAAAAAAAAAAAAAAAA
        AAAAAAAAAAAAAAAAAAAAAAAAAAAAAAAAAAAAAAAAcHJvZxICAABwcmdwIgAAABAQSgQAAQB/AH8AQAABAAEAAAAAAAAAAAB/AQAAAAAAAABwZ25tMAAAAFBvbHlwaG9u
        aWMgb2N0LiBQbHVja3MgdmFyMgABAAAAJCq+X/9/AAD08FElAQAAAHN0cDBAAAAAAAAAAAAAAAAAAAAAAAAAAAAAAAAAAAAAAAAAAAAAAAAAAAAAAAAAAAAAAAAAAAAA
        AAAAAAAAAAAAAAAAAAAAAHN0cDFAAAAADAgIDggIDAgIDggIDAgOCAgICAgICAgICAgICAgICAgICAgICAgICAgICAgICAgICAgICAgICAgICAgICAgICHN0cDJAAAAA
        BAAABAAABAAABAAABAAEAAEBAQEBAQEBAQEBAQEBAQEBAQEBAQEBAQEBAQEBAQEBAQEBAQEBAQEBAQEBAQEBAXN0cDNAAAAABAQEBAQEBAQEBAQEBAQEBAQEBAQEBAQE
        BAQEBAQEBAQEBAQEBAQEBAQEBAQEBAQEBAQEBAQEBAQEBAQEBAQEBHN0cDRAAAAAYGBgYGBgYGBgYGBgYGBgYGBgYGBgYGBgYGBgYGBgYGBgYGBgYGBgYGBgYGBgYGBg
        YGBgYGBgYGBgYGBgYGBgYHN0cDVAAAAAAAAAAAAAAAAAAAAAAAAAAAAAAAAAAAAAAAAAAAAAAAAAAAAAAAAAAAAAAAAAAAAAAAAAAAAAAAAAAAAAAAAAAHByb2cSAgAA
        cHJncCIAAAAQEDQEAAEAfwB/AEAAAQABAAAAAAAAAAAAfwEAAAAAAAAAcGdubTAAAABQb2x5cGhvbmljIG9jdC4gUGx1Y2tzIHZhcjMAAQAAACQqvl//fwAA9PBRJQEA
        AABzdHAwQAAAAAAAAAAAAAAAAAAAAAAAAAAAAAAAAAAAAAAAAAAAAAAAAAAAAAAAAAAAAAAAAAAAAAAAAAAAAAAAAAAAAAAAAABzdHAxQAAAAAwICA4ICAwICA4ICAwI
        DggICAgICAgICAgICAgICAgICAgICAgICAgICAgICAgICAgICAgICAgICAgICAgICAhzdHAyQAAAAAQCAgQCAgQCAgQCAgQCBAIBAQEBAQEBAQEBAQEBAQEBAQEBAQEB
        AQEBAQEBAQEBAQEBAQEBAQEBAQEBAQEBAQFzdHAzQAAAAAQEBAQEBAQEBAQEBAQEBAQEBAQEBAQEBAQEBAQEBAQEBAQEBAQEBAQEBAQEBAQEBAQEBAQEBAQEBAQEBAQE
        BARzdHA0QAAAAGBgYGBgYGBgYGBgYGBgYGBgYGBgYGBgYGBgYGBgYGBgYGBgYGBgYGBgYGBgYGBgYGBgYGBgYGBgYGBgYGBgYGBzdHA1QAAAAAAAAAAAAAAAAAAAAAAA
        AAAAAAAAAAAAAAAAAAAAAAAAAAAAAAAAAAAAAAAAAAAAAAAAAAAAAAAAAAAAAAAAAABwcm9nEgIAAHByZ3AiAAAAEBAyBAABAH8AfwBAAAEAAQAAAAAAAAAAAH8AAAAA
        AAAAAHBnbm0wAAAAQXJwIENob3JkIEdhdGVkIDAxAF//fwAAsDgPHAEAAAAkKr5f/38AAPTwUSUBAAAAc3RwMEAAAAAAAAAAAAAAAAAAAAAAAAAAAAAAAAAAAAAAAAAA
        AAAAAAAAAAAAAAAAAAAAAAAAAAAAAAAAAAAAAAAAAAAAAAAAc3RwMUAAAAAICAgICAgICAgICAgICAgICAgICAgICAgICAgICAgICAgICAgICAgICAgICAgICAgICAgI
        CAgICAgICAgICAgIc3RwMkAAAAAEBAAEBAAEBAAEBAAEAAQAAQEBAQEBAQEBAQEBAQEBAQEBAQEBAQEBAQEBAQEBAQEBAQEBAQEBAQEBAQEBAQEBc3RwM0AAAAAEBAQE
        BAQEBAQEBAQEBAQEBAQEBAQEBAQEBAQEBAQEBAQEBAQEBAQEBAQEBAQEBAQEBAQEBAQEBAQEBAQEBAQEc3RwNEAAAABgYGBgYGBgYGBgYGBgYGBgYGBgYGBgYGBgYGBg
        YGBgYGBgYGBgYGBgYGBgYGBgYGBgYGBgYGBgYGBgYGBgYGBgc3RwNUAAAAAAAAAAAAAAAAAAAAAAAAAAAAAAAAAAAAAAAAAAAAAAAAAAAAAAAAAAAAAAAAAAAAAAAAAA
        AAAAAAAAAAAAAAAAcHJvZxICAABwcmdwIgAAABAQMgQAAQB/AH8AQAABAAEAAAAAAAAAAAB/AAAAAAAAAABwZ25tMAAAAEFycCBDaG9yZCBHYXRlZCAwMgBf/38AALA4
        DxwBAAAAJCq+X/9/AAD08FElAQAAAHN0cDBAAAAAAAAAAAAAAAAAAAAAAAAAAAAAAAAAAAAAAAAAAAAAAAAAAAAAAAAAAAAAAAAAAAAAAAAAAAAAAAAAAAAAAAAAAHN0
        cDFAAAAACAgICAgICAgICAgICAgICAgICAgICAgICAgICAgICAgICAgICAgICAgICAgICAgICAgICAgICAgICAgICAgICHN0cDJAAAAABAAEAAQABAAEAAQAAAQABAEB
        AQEBAQEBAQEBAQEBAQEBAQEBAQEBAQEBAQEBAQEBAQEBAQEBAQEBAQEBAQEBAXN0cDNAAAAABAQEBAQEBAQEBAQEBAQEBAQEBAQEBAQEBAQEBAQEBAQEBAQEBAQEBAQE
        BAQEBAQEBAQEBAQEBAQEBAQEBAQEBHN0cDRAAAAAYGBgYGBgYGBgYGBgYGBgYGBgYGBgYGBgYGBgYGBgYGBgYGBgYGBgYGBgYGBgYGBgYGBgYGBgYGBgYGBgYGBgYHN0
        cDVAAAAAAAAAAAAAAAAAAAAAAAAAAAAAAAAAAAAAAAAAAAAAAAAAAAAAAAAAAAAAAAAAAAAAAAAAAAAAAAAAAAAAAAAAAHByb2cSAgAAcHJncCIAAAAQEDIEAAEAfwB/
        AEAAAQABAAAAAAAAAAAAfwAAAAAAAAAAcGdubTAAAABBcnAgQ2hvcmQgR2F0ZWQgMDMAX/9/AACwOA8cAQAAACQqvl//fwAA9PBRJQEAAABzdHAwQAAAAAAAAAAAAAAA
        AAAAAAAAAAAAAAAAAAAAAAAAAAAAAAAAAAAAAAAAAAAAAAAAAAAAAAAAAAAAAAAAAAAAAAAAAABzdHAxQAAAAAgICAgICAgICAgICAgICAgICAgICAgICAgICAgICAgI
        CAgICAgICAgICAgICAgICAgICAgICAgICAgICAgICAhzdHAyQAAAAAQEAAQEAAQEAAQEAAQABAABAQEBAQEBAQEBAQEBAQEBAQEBAQEBAQEBAQEBAQEBAQEBAQEBAQEB
        AQEBAQEBAQFzdHAzQAAAAAQEBAQEBAQEBAQEBAQEBAQEBAQEBAQEBAQEBAQEBAQEBAQEBAQEBAQEBAQEBAQEBAQEBAQEBAQEBAQEBAQEBARzdHA0QAAAAGBgYGBgYGBg
        YGBgYGBgYGBgYGBgYGBgYGBgYGBgYGBgYGBgYGBgYGBgYGBgYGBgYGBgYGBgYGBgYGBgYGBgYGBzdHA1QAAAAAAAAAAAAAAAAAAAAAAAAAAAAAAAAAAAAAAAAAAAAAAA
        AAAAAAAAAAAAAAAAAAAAAAAAAAAAAAAAAAAAAAAAAABwcm9nEgIAAHByZ3AiAAAAEBAyBAADAH8AfwFAAAEAAQAAAAAAAAAAAH8AAAEAAAAAAHBnbm0wAAAAQXJwIDNr
        IFNTYXcgMDEgKFJhbW1zdGVpbikAHAEAAAAkKr5f/38AAPTwUSUBAAAAc3RwMEAAAAAAAAAAAAAAAAAAAAAAAAAAAAAAAAAAAAAAAAAAAAAAAAAAAAAAAAAAAAAAAAAA
        AAAAAAAAAAAAAAAAAAAAAAAAc3RwMUAAAAAICAgICAgICAgICAgICAgICAgICAgICAgICAgICAgICAgICAgICAgICAgICAgICAgICAgICAgICAgICAgICAgIc3RwMkAA
        AAABAQEBAQEBAQEBAQEBAQEBAQEBAQEBAQEBAQEBAQEBAQEBAQEBAQEBAQEBAQEBAQEBAQEBAQEBAQEBAQEBAQEBc3RwM0AAAAAQCAQQCAQQCAQQBBAIBBAIBAQEBAQE
        BAQEBAQEBAQEBAQEBAQEBAQEBAQEBAQEBAQEBAQEBAQEBAQEBAQEBAQEc3RwNEAAAABgYGBgYGBgYGBgYGBgYGBgYGBgYGBgYGBgYGBgYGBgYGBgYGBgYGBgYGBgYGBg
        YGBgYGBgYGBgYGBgYGBgYGBgc3RwNUAAAAAAAAAAAAAAAAAAAAAAAAAAAAAAAAAAAAAAAAAAAAAAAAAAAAAAAAAAAAAAAAAAAAAAAAAAAAAAAAAAAAAAAAAAcHJvZxIC
        AABwcmdwIgAAABAIOgQAAgB/AH8AQAABAAEAAAAAAAAAAAB/AAAAAAAAAABwZ25tMAAAAEFycCAzayBTdXBlclNhdyAwMgBf/38AALA4DxwBAAAAJCq+X/9/AAD08FEl
        AQAAAHN0cDBAAAAAAAAAAAAAAAAAAAAAAAAAAAAAAAAAAAAAAAAAAAAAAAAAAAAAAAAAAAAAAAAAAAAAAAAAAAAAAAAAAAAAAAAAAHN0cDFAAAAABAgIBAgIBAgICAgI
        CAgICAgICAgICAgICAgICAgICAgICAgICAgICAgICAgICAgICAgICAgICAgICAgICAgICHN0cDJAAAAAAQABAQEBAQEAAAAAAAAAAAEBAQEBAQEBAQEBAQEBAQEBAQEB
        AQEBAQEBAQEBAQEBAQEBAQEBAQEBAQEBAQEBAXN0cDNAAAAABAQQBAQIBBAEBAQEBAQEBAQEBAQEBAQEBAQEBAQEBAQEBAQEBAQEBAQEBAQEBAQEBAQEBAQEBAQEBAQE
        BAQEBHN0cDRAAAAAYGBgYGBgYGBgYGBgYGBgYGBgYGBgYGBgYGBgYGBgYGBgYGBgYGBgYGBgYGBgYGBgYGBgYGBgYGBgYGBgYGBgYHN0cDVAAAAAAAAAAAAAAAAAAAAA
        AAAAAAAAAAAAAAAAAAAAAAAAAAAAAAAAAAAAAAAAAAAAAAAAAAAAAAAAAAAAAAAAAAAAAHByb2cSAgAAcHJncCIAAAAQCDoEAAIAfwB/AEAAAQABAAAAAAAAAAAAfwAA
        AAAAAAAAcGdubTAAAABBcnAgM2sgU3VwZXJTYXcgMDMAX/9/AACwOA8cAQAAACQqvl//fwAA9PBRJQEAAABzdHAwQAAAAAAAAAAAAAAAAAAAAAAAAAAAAAAAAAAAAAAA
        AAAAAAAAAAAAAAAAAAAAAAAAAAAAAAAAAAAAAAAAAAAAAAAAAABzdHAxQAAAAAQICAQIBAgICAgICAgICAgICAgICAgICAgICAgICAgICAgICAgICAgICAgICAgICAgI
        CAgICAgICAgICAgICAhzdHAyQAAAAAEBAQEBAQEBAAAAAAAAAAABAQEBAQEBAQEBAQEBAQEBAQEBAQEBAQEBAQEBAQEBAQEBAQEBAQEBAQEBAQEBAQFzdHAzQAAAAAQQ
        CAQEBAgQBAQEBAQEBAQEBAQEBAQEBAQEBAQEBAQEBAQEBAQEBAQEBAQEBAQEBAQEBAQEBAQEBAQEBAQEBARzdHA0QAAAAGBgYGBgYGBgYGBgYGBgYGBgYGBgYGBgYGBg
        YGBgYGBgYGBgYGBgYGBgYGBgYGBgYGBgYGBgYGBgYGBgYGBgYGBzdHA1QAAAAAAAAAAAAAAAAAAAAAAAAAAAAAAAAAAAAAAAAAAAAAAAAAAAAAAAAAAAAAAAAAAAAAAA
        AAAAAAAAAAAAAAAAAABwcm9nEgIAAHByZ3AiAAAAEBA6BAADAH8AfwBAAAEAAQAAAAAAAAAAAH8AAAIAAAAAAHBnbm0wAAAAQXJwIDJrIFN1cGVyU2F3IDA0AF//fwAA
        sDgPHAEAAAAkKr5f/38AAPTwUSUBAAAAc3RwMEAAAAAAAAAAAAAAAAAAAAAAAAABAAAAAAAAAAAAAAAAAAAAAAAAAAAAAAAAAAAAAAAAAAAAAAAAAAAAAAAAAAAAAAAA
        c3RwMUAAAAAICAQIBAgICAgIBAgICAQICAgICAgICAgICAgICAgICAgICAgICAgICAgICAgICAgICAgICAgICAgICAgICAgIc3RwMkAAAAABAgEAAQABAgECAQABAgEB
        AQEBAQEBAQEBAQEBAQEBAQEBAQEBAQEBAQEBAQEBAQEBAQEBAQEBAQEBAQEBAQEBc3RwM0AAAAAEBAQEBAQEBAgEBAQEBAQEBAQEBAQEBAQEBAQEBAQEBAQEBAQEBAQE
        BAQEBAQEBAQEBAQEBAQEBAQEBAQEBAQEc3RwNEAAAABgYGBgYGBgYGBgYGBgYGBgYGBgYGBgYGBgYGBgYGBgYGBgYGBgYGBgYGBgYGBgYGBgYGBgYGBgYGBgYGBgYGBg
        c3RwNUAAAAAAAAAAAAAAAAAAAAAAAAAAAAAAAAAAAAAAAAAAAAAAAAAAAAAAAAAAAAAAAAAAAAAAAAAAAAAAAAAAAAAAAAAAcHJvZxICAABwcmdwIgAAABAQOgQAAgB/
        AH8AQAABAAEAAAAAAAAAAAB/AAACAAAAAABwZ25tMAAAAEFycCAyayBTdXBlclNhdyAwNQBf/38AALA4DxwBAAAAJCq+X/9/AAD08FElAQAAAHN0cDBAAAAAAAAAAAAA
        AAAAAAAAAAAAAAAAAAAAAAAAAAAAAAAAAAAAAAAAAAAAAAAAAAAAAAAAAAAAAAAAAAAAAAAAAAAAAHN0cDFAAAAACAQICAQICAgIBAgIBAgIBAgICAgICAgICAgICAgI
        CAgICAgICAgICAgICAgICAgICAgICAgICAgICAgICAgICHN0cDJAAAAAAQEBAQEBAQEBAQEBAQEBAQEBAQEBAQEBAQEBAQEBAQEBAQEBAQEBAQEBAQEBAQEBAQEBAQEB
        AQEBAQEBAQEBAXN0cDNAAAAACAQEEAQEEAQIBAQQBAQQBAQEBAQEBAQEBAQEBAQEBAQEBAQEBAQEBAQEBAQEBAQEBAQEBAQEBAQEBAQEBAQEBHN0cDRAAAAAYGBgYGBg
        YGBgYGBgYGBgYGBgYGBgYGBgYGBgYGBgYGBgYGBgYGBgYGBgYGBgYGBgYGBgYGBgYGBgYGBgYGBgYHN0cDVAAAAAAAAAAAAAAAAAAAAAAAAAAAAAAAAAAAAAAAAAAAAA
        AAAAAAAAAAAAAAAAAAAAAAAAAAAAAAAAAAAAAAAAAAAAAHByb2cSAgAAcHJncCIAAAAQBDgEAAEAfwB/AEAAAQABAAAAAAAAAAAAfwAAAAAAAAAAcGdubTAAAABBcnAg
        M2sgQmVuYXNzaSBJbGx1c2lvbgCwOA8cAQAAACQqvl//fwAA9PBRJQEAAABzdHAwQAAAAAAAAAAAAAAAAAAAAAAAAAAAAAAAAAAAAAAAAAAAAAAAAAAAAAAAAAAAAAAA
        AAAAAAAAAAAAAAAAAAAAAAAAAABzdHAxQAAAAAgICAgICAgICAgICAgICAgICAgICAgICAgICAgICAgICAgICAgICAgICAgICAgICAgICAgICAgICAgICAgICAhzdHAy
        QAAAAAEBBAEBAQEBAQEBAQEBAQEBAQEBAQEBAQEBAQEBAQEBAQEBAQEBAQEBAQEBAQEBAQEBAQEBAQEBAQEBAQEBAQFzdHAzQAAAAAQIBAgEBAQEBAQEBAQEBAQEBAQE
        BAQEBAQEBAQEBAQEBAQEBAQEBAQEBAQEBAQEBAQEBAQEBAQEBAQEBAQEBARzdHA0QAAAAGBgYGBgYGBgYGBgYGBgYGBgYGBgYGBgYGBgYGBgYGBgYGBgYGBgYGBgYGBg
        YGBgYGBgYGBgYGBgYGBgYGBgYGBzdHA1QAAAAAAAAAAAAAAAAAAAAAAAAAAAAAAAAAAAAAAAAAAAAAAAAAAAAAAAAAAAAAAAAAAAAAAAAAAAAAAAAAAAAAAAAABwcm9n
        EgIAAHByZ3AiAAAAEBAyBAADAH8AfwBAAAEAAQAAAAAAAAAAAH8AAAAAAAAAAHBnbm0wAAAAQXJwIDRrIFNTYXcgMDcgKFlUIEludHJvKQAPHAEAAAAkKr5f/38AAPTw
        USUBAAAAc3RwMEAAAAAAAAAAAAAAAAAAAAAAAAAAAAAAAAAAAAAAAAAAAAAAAAAAAAAAAAAAAAAAAAAAAAAAAAAAAAAAAAAAAAAAAAAAc3RwMUAAAAAECAgECAgICAQI
        CAQICAQICAgICAgICAgICAgICAgICAgICAgICAgICAgICAgICAgICAgICAgICAgICAgICAgIc3RwMkAAAAABAQEBAQEBAQEBAQEBAQEBAQEBAQEBAQEBAQEBAQEBAQEB
        AQEBAQEBAQEBAQEBAQEBAQEBAQEBAQEBAQEBAQEBc3RwM0AAAAAECBAEEAgQIAQgEAQECAQQBAQEBAQEBAQEBAQEBAQEBAQEBAQEBAQEBAQEBAQEBAQEBAQEBAQEBAQE
        BAQEBAQEc3RwNEAAAABgYGBgYGBgYGBgYGBgYGBgYGBgYGBgYGBgYGBgYGBgYGBgYGBgYGBgYGBgYGBgYGBgYGBgYGBgYGBgYGBgYGBgc3RwNUAAAAAAAAAAAAAAAAAA
        AAAAAAAAAAAAAAAAAAAAAAAAAAAAAAAAAAAAAAAAAAAAAAAAAAAAAAAAAAAAAAAAAAAAAAAAcHJvZxICAABwcmdwIgAAABAgPQQAAwB/AH8AQAABAAEAAAAAAAAAAAB/
        AAAAAAAAAABwZ25tMAAAAEFycCAzayBTU2F3IDA4ICgzMiBzdGVwcykADxwBAAAAJCq+X/9/AAD08FElAQAAAHN0cDBAAAAAAAAAAAAAAAAAAAAAAAAAAAAAAAAAAAAA
        AAAAAAAAAAAAAAAAAAAAAAAAAAAAAAAAAAAAAAAAAAAAAAAAAAAAAHN0cDFAAAAACAQIBAgECAQIBAgECAQIBAgECAQIBAgECAQIBAgECAgICAgICAgICAgICAgICAgI
        CAgICAgICAgICAgICAgICHN0cDJAAAAAAQEBAQEBAQEBAQEBAQEBAQEBAQEBAQEBAQEBAQEBAQEBAQEBAQEBAQEBAQEBAQEBAQEBAQEBAQEBAQEBAQEBAXN0cDNAAAAA
        BAQIBBAEBAQIBBAEBAQIBBAEBAQIBBAEBAQIBBAEEAgEBAQEBAQEBAQEBAQEBAQEBAQEBAQEBAQEBAQEBAQEBHN0cDRAAAAAYGBgYGBgYGBgYGBgYGBgYGBgYGBgYGBg
        YGBgYGBgYGBgYGBgYGBgYGBgYGBgYGBgYGBgYGBgYGBgYGBgYGBgYHN0cDVAAAAAAAAAAAAAAAAAAAAAAAAAAAAAAAAAAAAAAAAAAAAAAAAAAAAAAAAAAAAAAAAAAAAA
        AAAAAAAAAAAAAAAAAAAAAHByb2cSAgAAcHJncCIAAAAQEEUEAAIAfwB/AEAAAQABAAAAAAAAAAAAfwAAAAAAAAAAcGdubTAAAABBcnAgMmsgQ29tbXVuaWNhdGlvbiB2
        MQCwOA8cAQAAACQqvl//fwAA9PBRJQEAAABzdHAwQAAAAAAAAAAAAAAAAAAAAAAAAAAAAAAAAAAAAAAAAAAAAAAAAAAAAAAAAAAAAAAAAAAAAAAAAAAAAAAAAAAAAAAA
        AABzdHAxQAAAAAQECAQECAQECAQECAQECAQICAgICAgICAgICAgICAgICAgICAgICAgICAgICAgICAgICAgICAgICAgICAgICAhzdHAyQAAAAAEAAQABAQABAQABAQAB
        AQABAQEBAQEBAQEBAQEBAQEBAQEBAQEBAQEBAQEBAQEBAQEBAQEBAQEBAQEBAQEBAQFzdHAzQAAAAAQECAQECAQECAQECAQECAQEBAQEBAQEBAQEBAQEBAQEBAQEBAQE
        BAQEBAQEBAQEBAQEBAQEBAQEBAQEBAQEBARzdHA0QAAAAGBgYGBgYGBgYGBgYGBgYGBgYGBgYGBgYGBgYGBgYGBgYGBgYGBgYGBgYGBgYGBgYGBgYGBgYGBgYGBgYGBg
        YGBzdHA1QAAAAAAAAAAAAAAAAAAAAAAAAAAAAAAAAAAAAAAAAAAAAAAAAAAAAAAAAAAAAAAAAAAAAAAAAAAAAAAAAAAAAAAAAABwcm9nEgIAAHByZ3AiAAAAEBA8BAAC
        AH8AfwBAAAEAAQAAAAAAAAAAAH8AAAAAAAAAAHBnbm0wAAAAQXJwIDJrIENvbW11bmljYXRpb24gdjIAsDgPHAEAAAAkKr5f/38AAPTwUSUBAAAAc3RwMEAAAAAAAAAA
        AAAAAAAAAAAAAAAAAAAAAAAAAAAAAAAAAAAAAAAAAAAAAAAAAAAAAAAAAAAAAAAAAAAAAAAAAAAAAAAAc3RwMUAAAAACBAgCBAgCBAgCBAgCBAgECAgICAgICAgICAgI
        CAgICAgICAgICAgICAgICAgICAgICAgICAgICAgICAgICAgIc3RwMkAAAAABAQEBAQEBAQEBAQEBAQEBAQEBAQEBAQEBAQEBAQEBAQEBAQEBAQEBAQEBAQEBAQEBAQEB
        AQEBAQEBAQEBAQEBc3RwM0AAAAAEBAgEBAgEBAgEBAgEBAgEBAQEBAQEBAQEBAQEBAQEBAQEBAQEBAQEBAQEBAQEBAQEBAQEBAQEBAQEBAQEBAQEc3RwNEAAAABgYGBg
        YGBgYGBgYGBgYGBgYGBgYGBgYGBgYGBgYGBgYGBgYGBgYGBgYGBgYGBgYGBgYGBgYGBgYGBgYGBgYGBgc3RwNUAAAAAAAAAAAAAAAAAAAAAAAAAAAAAAAAAAAAAAAAAA
        AAAAAAAAAAAAAAAAAAAAAAAAAAAAAAAAAAAAAAAAAAAAAAAAcHJvZxICAABwcmdwIgAAABAQPQQAAQB/AH8AQAABAAEAAAAAAAAAAAB/AAAAAAAAAABwZ25tMAAAAEFy
        cCAyayBTdXBlclNhdyAxMSAoQmVuYXNzaSkAAAAAJCq+X/9/AAD08FElAQAAAHN0cDBAAAAAAAAAAAAAAAAAAAAAAAAAAAAAAAAAAAAAAAAAAAAAAAAAAAAAAAAAAAAA
        AAAAAAAAAAAAAAAAAAAAAAAAAAAAAHN0cDFAAAAACAIECAIECAQIAgQIBAIIBAgCCAIIAgQIAgQIAggCBAIICAgICAgICAgICAgICAgICAgICAgICAgICAgICAgICHN0
        cDJAAAAAAQEBAQEBAQEBAQEBAQEBAQEBAQEBAQEBAQEBAQEBAQEBAQEBAQEBAQEBAQEBAQEBAQEBAQEBAQEBAQEBAQEBAXN0cDNAAAAACAQEEAQEEAQIBAQQBAQQBAgE
        BBAEBBAEBAQQBAQQBAQEBAQEBAQEBAQEBAQEBAQEBAQEBAQEBAQEBAQEBAQEBHN0cDRAAAAAYGBgYGBgYGBgYGBgYGBgYGBgYGBgYGBgYGBgYGBgYGBgYGBgYGBgYGBg
        YGBgYGBgYGBgYGBgYGBgYGBgYGBgYHN0cDVAAAAAAAAAAAAAAAAAAAAAAAAAAAAAAAAAAAAAAAAAAAAAAAAAAAAAAAAAAAAAAAAAAAAAAAAAAAAAAAAAAAAAAAAAAHBy
        b2cSAgAAcHJncCIAAAAQEDUEAAMAfwB/AEAAAQABAAAAAAAAAAAAfwAAAAAAAAAAcGdubTAAAABBcnAgMmsgU3VwZXJTYXcgMTIAX/9/AACwOA8cAQAAACQqvl//fwAA
        9PBRJQEAAABzdHAwQAAAAAAAAAAAAAAAAAAAAAAAAAAAAAAAAAAAAAAAAAAAAAAAAAAAAAAAAAAAAAAAAAAAAAAAAAAAAAAAAAAAAAAAAABzdHAxQAAAAAgCCAIIAgQI
        AgQIAggCBAIICAgICAgICAgICAgICAgICAgICAgICAgICAgICAgICAgICAgICAgICAgICAgICAhzdHAyQAAAAAEBAQEBAQEBAQEBAQEBAQEBAQEBAQEBAQEBAQEBAQEB
        AQEBAQEBAQEBAQEBAQEBAQEBAQEBAQEBAQEBAQEBAQFzdHAzQAAAABAECAQIBAQQBAQIBAgEBAQEBAQEBAQEBAQEBAQEBAQEBAQEBAQEBAQEBAQEBAQEBAQEBAQEBAQE
        BAQEBAQEBARzdHA0QAAAAGBgYGBgYGBgYGBgYGBgYGBgYGBgYGBgYGBgYGBgYGBgYGBgYGBgYGBgYGBgYGBgYGBgYGBgYGBgYGBgYGBgYGBzdHA1QAAAAAAAAAAAAAAA
        AAAAAAAAAAAAAAAAAAAAAAAAAAAAAAAAAAAAAAAAAAAAAAAAAAAAAAAAAAAAAAAAAAAAAAAAAABwcm9nEgIAAHByZ3AiAAAAEBBkBAACAH8AfwBNAAEAAQkAAAAAAAAA
        AH8AAAAAAAAAAHBnbm0wAAAAQXJwIDJrIFN1cGVyU2F3IDEzIChwaHJlYXF1ZSkAAAAkKr5f/38AAPTwUSUBAAAAc3RwMEAAAAAAAAAAAAAAAAAAAAAAAAAAAAAAAAAA
        AAAAAAAAAAAAAAAAAAAAAAAAAAAAAAAAAAAAAAAAAAAAAAAAAAAAAAAAc3RwMUAAAAAECAQECAQEBAQIBAQIBAgECAgICAgICAgICAgICAgICAgICAgICAgICAgICAgI
        CAgICAgICAgICAgICAgICAgIc3RwMkAAAAABAQEBAQABAQABAQABAQEBAQEBAQEBAQEBAQEBAQEBAQEBAQEBAQEBAQEBAQEBAQEBAQEBAQEBAQEBAQEBAQEBc3RwM0AA
        AAAECAQgCAQQBAQIBAQIBBAEBAQEBAQEBAQEBAQEBAQEBAQEBAQEBAQEBAQEBAQEBAQEBAQEBAQEBAQEBAQEBAQEc3RwNEAAAABwUEBgUFB/YEBQYGBwYFBwYGBgYGBg
        YGBgYGBgYGBgYGBgYGBgYGBgYGBgYGBgYGBgYGBgYGBgYGBgYGBgYGBgc3RwNUAAAAAAAAAAAAAAAAAAAAAAAAAAAAAAAAAAAAAAAAAAAAAAAAAAAAAAAAAAAAAAAAAA
        AAAAAAAAAAAAAAAAAAAAAAAAcHJvZxICAABwcmdwIgAAABAIHwYAAQB/AH8AQAABAAEAAAAAAAAAAAB/AAAAAAAAAABwZ25tMAAAAEFycCAzayBCZWxscyAwMQCwKb5f
        /38AALA4DxwBAAAAJCq+X/9/AAD08FElAQAAAHN0cDBAAAAAAAAAAAAAAAAAAAAAAAAAAAAAAAAAAAAAAAAAAAAAAAAAAAAAAAAAAAAAAAAAAAAAAAAAAAAAAAAAAAAA
        AAAAAHN0cDFAAAAACAgICAgICAgICAgICAgICAgICAgICAgICAgICAgICAgICAgICAgICAgICAgICAgICAgICAgICAgICAgICAgICHN0cDJAAAAAAQEBAQEBAQEBAQEB
        AQEBAQEBAQEBAQEBAQEBAQEBAQEBAQEBAQEBAQEBAQEBAQEBAQEBAQEBAQEBAQEBAQEBAXN0cDNAAAAAEAQIBBAECAQEBAQEBAQEBAQEBAQEBAQEBAQEBAQEBAQEBAQE
        BAQEBAQEBAQEBAQEBAQEBAQEBAQEBAQEBAQEBHN0cDRAAAAAYGBgUGBgYFBgYGBgYGBgYGBgYGBgYGBgYGBgYGBgYGBgYGBgYGBgYGBgYGBgYGBgYGBgYGBgYGBgYGBg
        YGBgYHN0cDVAAAAAAAAAAAAAAAAAAAAAAAAAAAAAAAAAAAAAAAAAAAAAAAAAAAAAAAAAAAAAAAAAAAAAAAAAAAAAAAAAAAAAAAAAAHByb2cSAgAAcHJncCIAAAAQCB8G
        AAEAfwB/AEAAAQABAAAAAAAAAAAAfwAAAAAAAAAAcGdubTAAAABBcnAgM2sgQmVsbHMgMDIAsCm+X/9/AACwOA8cAQAAACQqvl//fwAA9PBRJQEAAABzdHAwQAAAAAAA
        AAAAAAAAAAAAAAAAAAAAAAAAAAAAAAAAAAAAAAAAAAAAAAAAAAAAAAAAAAAAAAAAAAAAAAAAAAAAAAAAAABzdHAxQAAAAAgICAgICAgICAgICAgICAgICAgICAgICAgI
        CAgICAgICAgICAgICAgICAgICAgICAgICAgICAgICAgICAgICAhzdHAyQAAAAAEBAQEBAQEBAQEBAQEBAQEBAQEBAQEBAQEBAQEBAQEBAQEBAQEBAQEBAQEBAQEBAQEB
        AQEBAQEBAQEBAQEBAQFzdHAzQAAAABAIBBAIBBAIBAQEBAQEBAQEBAQEBAQEBAQEBAQEBAQEBAQEBAQEBAQEBAQEBAQEBAQEBAQEBAQEBAQEBAQEBARzdHA0QAAAAGBg
        YGBgYGBgYGBgYGBgYGBgYGBgYGBgYGBgYGBgYGBgYGBgYGBgYGBgYGBgYGBgYGBgYGBgYGBgYGBgYGBgYGBzdHA1QAAAAAAAAAAAAAAAAAAAAAAAAAAAAAAAAAAAAAAA
        AAAAAAAAAAAAAAAAAAAAAAAAAAAAAAAAAAAAAAAAAAAAAAAAAABwcm9nEgIAAHByZ3AiAAAAEAhNBgADAH8AfwBNAAEAAQAAAAAAAAAAAH8AAAIAAAAAAHBnbm0wAAAA
        QXJwIDJrIFNvZnRCZWxscyAwMQD/fwAAsDgPHAEAAAAkKr5f/38AAPTwUSUBAAAAc3RwMEAAAAAAAAAAAAAAAAAAAAAAAAAAAAAAAAAAAAAAAAAAAAAAAAAAAAAAAAAA
        AAAAAAAAAAAAAAAAAAAAAAAAAAAAAAAAc3RwMUAAAAAECAgIBAgIEAgICAgICAgICAgICAgICAgICAgICAgICAgICAgICAgICAgICAgICAgICAgICAgICAgICAgICAgI
        c3RwMkAAAAABAQEBAQEBAQEBAQEBAQEBAQEBAQEBAQEBAQEBAQEBAQEBAQEBAQEBAQEBAQEBAQEBAQEBAQEBAQEBAQEBAQEBc3RwM0AAAAAEBAgQBAQIBAQEBAQEBAQE
        BAQEBAQEBAQEBAQEBAQEBAQEBAQEBAQEBAQEBAQEBAQEBAQEBAQEBAQEBAQEBAQEc3RwNEAAAABgYGBgYGBgYGBgYGBgYGBgYGBgYGBgYGBgYGBgYGBgYGBgYGBgYGBg
        YGBgYGBgYGBgYGBgYGBgYGBgYGBgYGBgc3RwNUAAAAAAAAAAAAAAAAAAAAAAAAAAAAAAAAAAAAAAAAAAAAAAAAAAAAAAAAAAAAAAAAAAAAAAAAAAAAAAAAAAAAAAAAAA
        cHJvZxICAABwcmdwIgAAABAIQgYAAwB/AH8AQAABAAEAAAAAAAAAAAB/AAACAAAAAABwZ25tMAAAAEFycCAyayBTb2Z0QmVsbHMgMDIA/38AALA4DxwBAAAAJCq+X/9/
        AAD08FElAQAAAHN0cDBAAAAAAAAAAAAAAAAAAAAAAAAAAAAAAAAAAAAAAAAAAAAAAAAAAAAAAAAAAAAAAAAAAAAAAAAAAAAAAAAAAAAAAAAAAHN0cDFAAAAABBAICAQQ
        CAgICAgICAgICAgICAgICAgICAgICAgICAgICAgICAgICAgICAgICAgICAgICAgICAgICAgICAgICHN0cDJAAAAAAQEBAQEBAQEBAQEBAQEBAQEBAQEBAQEBAQEBAQEB
        AQEBAQEBAQEBAQEBAQEBAQEBAQEBAQEBAQEBAQEBAQEBAXN0cDNAAAAABAQECAQEBBAEBAQEBAQEBAQEBAQEBAQEBAQEBAQEBAQEBAQEBAQEBAQEBAQEBAQEBAQEBAQE
        BAQEBAQEBAQEBHN0cDRAAAAAYGBgYGBgYGBgYGBgYGBgYGBgYGBgYGBgYGBgYGBgYGBgYGBgYGBgYGBgYGBgYGBgYGBgYGBgYGBgYGBgYGBgYHN0cDVAAAAAAAAAAAAA
        AAAAAAAAAAAAAAAAAAAAAAAAAAAAAAAAAAAAAAAAAAAAAAAAAAAAAAAAAAAAAAAAAAAAAAAAAAAAAHByb2cSAgAAcHJncCIAAAAQEEgEAAEAfwB/AEAAAQABAAAAAAAA
        AAAAfwAAAAAAAAAAcGdubTAAAABTZXEgMmsgQWNpZE1vbm8gMDEAX/9/AACwOA8cAQAAACQqvl//fwAA9PBRJQEAAABzdHAwQAAAAAAAAAAAAAAAAAAAAAAAAQAAAAAA
        AAAAAAAAAAAAAAAAAAAAAAAAAAAAAAAAAAAAAAAAAAAAAAAAAAAAAAAAAABzdHAxQAAAAAQIBAQIBAgICAQICAgECAgICAgICAgICAgICAgICAgICAgICAgICAgICAgI
        CAgICAgICAgICAgICAgICAgICAhzdHAyQAAAAAEAAQAAAQMAAQEAAQABAwABAQEBAQEBAQEBAQEBAQEBAQEBAQEBAQEBAQEBAQEBAQEBAQEBAQEBAQEBAQEBAQFzdHAz
        QAAAAAQEBAQEBAQEBAQEBAQEBAQEBAQEBAQEBAQEBAQEBAQEBAQEBAQEBAQEBAQEBAQEBAQEBAQEBAQEBAQEBAQEBARzdHA0QAAAAGBgYGBgYGBgYGBgYGBgYGBgYGBg
        YGBgYGBgYGBgYGBgYGBgYGBgYGBgYGBgYGBgYGBgYGBgYGBgYGBgYGBgYGBzdHA1QAAAAAAAAAAAAAAAAAAAAAAAAAAAAAAAAAAAAAAAAAAAAAAAAAAAAAAAAAAAAAAA
        AAAAAAAAAAAAAAAAAAAAAAAAAABwcm9nEgIAAHByZ3AiAAAAEBBCBAACAH8AfwBAAAEAAQAAAAAAAAAAAH8AAAIAAAAAAHBnbm0wAAAAU2VxIDJrIEFjaWRNb25vIDAy
        AF//fwAAsDgPHAEAAAAkKr5f/38AAPTwUSUBAAAAc3RwMEAAAAAAAAAAAAAABwAAAAAAAAAAAAAAAAAAAAAAAAAAAAAAAAAAAAAAAAAAAAAAAAAAAAAAAAAAAAAAAAAA
        AAAAAAAAc3RwMUAAAAAECAgECAgIBAgEBAgECAgECAgICAgICAgICAgICAgICAgICAgICAgICAgICAgICAgICAgICAgICAgICAgICAgIc3RwMkAAAAABAAABAAABAwAB
        AwABAgEDAQEBAQEBAQEBAQEBAQEBAQEBAQEBAQEBAQEBAQEBAQEBAQEBAQEBAQEBAQEBAQEBc3RwM0AAAAAEBAQEBAQEBAQECAQEBAQIBAQEBAQEBAQEBAQEBAQEBAQE
        BAQEBAQEBAQEBAQEBAQEBAQEBAQEBAQEBAQEBAQEc3RwNEAAAABgYGBgYGBgYGBgYGBgYGBgYGBgYGBgYGBgYGBgYGBgYGBgYGBgYGBgYGBgYGBgYGBgYGBgYGBgYGBg
        YGBgYGBgc3RwNUAAAAAAAAAAAAAAAAAAAAAAAAAAAAAAAAAAAAAAAAAAAAAAAAAAAAAAAAAAAAAAAAAAAAAAAAAAAAAAAAAAAAAAAAAAcHJvZxICAABwcmdwIgAAABAQ
        OgQAAQB/AH8AQAABAAEAAAAAAAAAAAB/AAAAAAAAAABwZ25tMAAAAFNlcSAyayBBY2lkTW9ubyAwMwBf/38AALA4DxwBAAAAJCq+X/9/AAD08FElAQAAAHN0cDBAAAAA
        AAAAAAAAAAAAAAAAAAAAAAAAAAAAAAAAAAAAAAAAAAAAAAAAAAAAAAAAAAAAAAAAAAAAAAAAAAAAAAAAAAAAAHN0cDFAAAAACAQIEAQICAgECAgIBAgECAgICAgICAgI
        CAgICAgICAgICAgICAgICAgICAgICAgICAgICAgICAgICAgICAgICHN0cDJAAAAAAQEBAwEBAwMBAwEDAQIBAQEBAQEBAQEBAQEBAQEBAQEBAQEBAQEBAQEBAQEBAQEB
        AQEBAQEBAQEBAQEBAQEBAXN0cDNAAAAABAQEBAQECAQEBAQIBAQECAQEBAQEBAQEBAQEBAQEBAQEBAQEBAQEBAQEBAQEBAQEBAQEBAQEBAQEBAQEBAQEBHN0cDRAAAAA
        YGBgYGBgYGBgYGBgYGBgYGBgYGBgYGBgYGBgYGBgYGBgYGBgYGBgYGBgYGBgYGBgYGBgYGBgYGBgYGBgYGBgYHN0cDVAAAAAAAAAAAAAAAAAAAAAAAAAAAAAAAAAAAAA
        AAAAAAAAAAAAAAAAAAAAAAAAAAAAAAAAAAAAAAAAAAAAAAAAAAAAAHByb2cSAgAAcHJncCIAAAAQEDoEAAEAfwB/AEAAAQABAAAAAAAAAAAAfwAAAAAAAAAAcGdubTAA
        AABTZXEgMmsgQWNpZE1vbm8gMDQAX/9/AACwOA8cAQAAACQqvl//fwAA9PBRJQEAAABzdHAwQAAAAAAAAAAAAAAAAAAAAAAAAQAAAAAAAAAAAAAAAAAAAAAAAAAAAAAA
        AAAAAAAAAAAAAAAAAAAAAAAAAAAAAAAAAABzdHAxQAAAAAgQCAQICAQICAgECAQICAQICAgICAgICAgICAgICAgICAgICAgICAgICAgICAgICAgICAgICAgICAgICAgI
        CAhzdHAyQAAAAAEBAwEBAwEDAQMBAQEBAQEBAQEBAQEBAQEBAQEBAQEBAQEBAQEBAQEBAQEBAQEBAQEBAQEBAQEBAQEBAQEBAQFzdHAzQAAAAAQEBAQIBAQEBAgEBAQI
        BAQEBAQEBAQEBAQEBAQEBAQEBAQEBAQEBAQEBAQEBAQEBAQEBAQEBAQEBAQEBAQEBARzdHA0QAAAAGBgYGBgYGBgYGBgYGBgYGBgYGBgYGBgYGBgYGBgYGBgYGBgYGBg
        YGBgYGBgYGBgYGBgYGBgYGBgYGBgYGBgYGBzdHA1QAAAAAAAAAAAAAAAAAAAAAAAAAAAAAAAAAAAAAAAAAAAAAAAAAAAAAAAAAAAAAAAAAAAAAAAAAAAAAAAAAAAAAAA
        AABwcm9nEgIAAHByZ3AiAAAAEARIBAABAH8AfwBAAAEAAQAAAAAAAAAAAH8AAAAAAAAAAHBnbm0wAAAAQmFzcyAxayBTaW1wbGUgMDEAvl//fwAAsDgPHAEAAAAkKr5f
        /38AAPTwUSUBAAAAc3RwMEAAAAAAAAAAAAAAAAAAAAAAAAAAAAAAAAAAAAAAAAAAAAAAAAAAAAAAAAAAAAAAAAAAAAAAAAAAAAAAAAAAAAAAAAAAc3RwMUAAAAAEBAgI
        CAgICAgICAgICAgICAgICAgICAgICAgICAgICAgICAgICAgICAgICAgICAgICAgICAgICAgICAgICAgIc3RwMkAAAAABAgEBAQEBAQEBAQEBAQEBAQEBAQEBAQEBAQEB
        AQEBAQEBAQEBAQEBAQEBAQEBAQEBAQEBAQEBAQEBAQEBAQEBc3RwM0AAAAAEBAQEBAQEBAQEBAQEBAQEBAQEBAQEBAQEBAQEBAQEBAQEBAQEBAQEBAQEBAQEBAQEBAQE
        BAQEBAQEBAQEBAQEc3RwNEAAAABgYGBgYGBgYGBgYGBgYGBgYGBgYGBgYGBgYGBgYGBgYGBgYGBgYGBgYGBgYGBgYGBgYGBgYGBgYGBgYGBgYGBgc3RwNUAAAAAAAAAA
        AAAAAAAAAAAAAAAAAAAAAAAAAAAAAAAAAAAAAAAAAAAAAAAAAAAAAAAAAAAAAAAAAAAAAAAAAAAAAAAAcHJvZxICAABwcmdwIgAAABAESAQAAQB/AH8AQAABAAEAAAAA
        AAAAAAB/AAAAAAAAAABwZ25tMAAAAEJhc3MgMWsgU2ltcGxlIDAyAL5f/38AALA4DxwBAAAAJCq+X/9/AAD08FElAQAAAHN0cDBAAAAAAAAAAAAAAAAAAAAAAAAAAAAA
        AAAAAAAAAAAAAAAAAAAAAAAAAAAAAAAAAAAAAAAAAAAAAAAAAAAAAAAAAAAAAHN0cDFAAAAABAQICAgICAgICAgICAgICAgICAgICAgICAgICAgICAgICAgICAgICAgI
        CAgICAgICAgICAgICAgICAgICAgICHN0cDJAAAAAAQEBAQEBAQEBAQEBAQEBAQEBAQEBAQEBAQEBAQEBAQEBAQEBAQEBAQEBAQEBAQEBAQEBAQEBAQEBAQEBAQEBAXN0
        cDNAAAAABAQEBAQEBAQEBAQEBAQEBAQEBAQEBAQEBAQEBAQEBAQEBAQEBAQEBAQEBAQEBAQEBAQEBAQEBAQEBAQEBAQEBHN0cDRAAAAAYGBgYGBgYGBgYGBgYGBgYGBg
        YGBgYGBgYGBgYGBgYGBgYGBgYGBgYGBgYGBgYGBgYGBgYGBgYGBgYGBgYGBgYHN0cDVAAAAAAAAAAAAAAAAAAAAAAAAAAAAAAAAAAAAAAAAAAAAAAAAAAAAAAAAAAAAA
        AAAAAAAAAAAAAAAAAAAAAAAAAAAAAHByb2cSAgAAcHJncCIAAAAQBEgEAAEAfwB/AEAAAQABAAAAAAAAAAAAfwAAAAAAAAAAcGdubTAAAABCYXNzIDFrIFNpbXBsZSAw
        MwC+X/9/AACwOA8cAQAAACQqvl//fwAA9PBRJQEAAABzdHAwQAAAAAAAAAAAAAAAAAAAAAAAAAAAAAAAAAAAAAAAAAAAAAAAAAAAAAAAAAAAAAAAAAAAAAAAAAAAAAAA
        AAAAAAAAAABzdHAxQAAAAAQECAgICAgICAgICAgICAgICAgICAgICAgICAgICAgICAgICAgICAgICAgICAgICAgICAgICAgICAgICAgICAhzdHAyQAAAAAECAQIBAQEB
        AQEBAQEBAQEBAQEBAQEBAQEBAQEBAQEBAQEBAQEBAQEBAQEBAQEBAQEBAQEBAQEBAQEBAQEBAQFzdHAzQAAAAAQEBAQEBAQEBAQEBAQEBAQEBAQEBAQEBAQEBAQEBAQE
        BAQEBAQEBAQEBAQEBAQEBAQEBAQEBAQEBAQEBAQEBARzdHA0QAAAAGBgYGBgYGBgYGBgYGBgYGBgYGBgYGBgYGBgYGBgYGBgYGBgYGBgYGBgYGBgYGBgYGBgYGBgYGBg
        YGBgYGBgYGBzdHA1QAAAAAAAAAAAAAAAAAAAAAAAAAAAAAAAAAAAAAAAAAAAAAAAAAAAAAAAAAAAAAAAAAAAAAAAAAAAAAAAAAAAAAAAAABwcm9nEgIAAHByZ3AiAAAA
        EARIBAABAH8AfwBAAAEAAQAAAAAAAAAAAH8AAAAAAAAAAHBnbm0wAAAAQmFzcyAxayBTaW1wbGUgMDQAvl//fwAAsDgPHAEAAAAkKr5f/38AAPTwUSUBAAAAc3RwMEAA
        AAAAAAAAAAAAAAAAAAAAAAAAAAAAAAAAAAAAAAAAAAAAAAAAAAAAAAAAAAAAAAAAAAAAAAAAAAAAAAAAAAAAAAAAc3RwMUAAAAAICAgICAgICAgICAgICAgICAgICAgI
        CAgICAgICAgICAgICAgICAgICAgICAgICAgICAgICAgICAgICAgICAgIc3RwMkAAAAAAAAEAAQEBAQEBAQEBAQEBAQEBAQEBAQEBAQEBAQEBAQEBAQEBAQEBAQEBAQEB
        AQEBAQEBAQEBAQEBAQEBAQEBc3RwM0AAAAAEBAQEBAQEBAQEBAQEBAQEBAQEBAQEBAQEBAQEBAQEBAQEBAQEBAQEBAQEBAQEBAQEBAQEBAQEBAQEBAQEBAQEc3RwNEAA
        AABgYGBgYGBgYGBgYGBgYGBgYGBgYGBgYGBgYGBgYGBgYGBgYGBgYGBgYGBgYGBgYGBgYGBgYGBgYGBgYGBgYGBgc3RwNUAAAAAAAAAAAAAAAAAAAAAAAAAAAAAAAAAA
        AAAAAAAAAAAAAAAAAAAAAAAAAAAAAAAAAAAAAAAAAAAAAAAAAAAAAAAAcHJvZxICAABwcmdwIgAAABAIZAQAAQB/AH8AQAABAAEAAAAAAAAAAAB/AAAAAAAAAABwZ25t
        MAAAAEJhc3MgMWsgRHJpZnQgb2ZmYmVhdAAAALA4DxwBAAAAJCq+X/9/AAD08FElAQAAAHN0cDBAAAAAAAAAAAAAAAAAAAAAAAAAAAAAAAAAAAAAAAAAAAAAAAAAAAAA
        AAAAAAAAAAAAAAAAAAAAAAAAAAAAAAAAAAAAAHN0cDFAAAAACAgICAgICAgICAgICAgICAgICAgICAgICAgICAgICAgICAgICAgICAgICAgICAgICAgICAgICAgICAgI
        CAgICHN0cDJAAAAAAAAAAQAAAQIAAAABAAABAgEBAQEBAQEBAQEBAQEBAQEBAQEBAQEBAQEBAQEBAQEBAQEBAQEBAQEBAQEBAQEBAXN0cDNAAAAABAQEBAQEBAQEBAQE
        BAQEBAQEBAQEBAQEBAQEBAQEBAQEBAQEBAQEBAQEBAQEBAQEBAQEBAQEBAQEBAQEBAQEBHN0cDRAAAAAYGBgYGBgYGBgYGBgYGBgYGBgYGBgYGBgYGBgYGBgYGBgYGBg
        YGBgYGBgYGBgYGBgYGBgYGBgYGBgYGBgYGBgYHN0cDVAAAAAAAAAAAAAAAAAAAAAAAAAAAAAAAAAAAAAAAAAAAAAAAAAAAAAAAAAAAAAAAAAAAAAAAAAAAAAAAAAAAAA
        AAAAAHByb2cSAgAAcHJncCIAAAAQCF8EAAEAfwB/AEAAAQABAAAAAAAAAAAAfwAAAAAAAAAAcGdubTAAAABCYXNzIDFrIFRyaXBsZSBkcmlmdCBvZmZiZWF0AAAAACQq
        vl//fwAA9PBRJQEAAABzdHAwQAAAAAAAAAAAAAAAAAAAAAAAAAAAAAAAAAAAAAAAAAAAAAAAAAAAAAAAAAAAAAAAAAAAAAAAAAAAAAAAAAAAAAAAAABzdHAxQAAAAAgI
        CAgICAgICAgICAgICAgICAgICAgICAgICAgICAgICAgICAgICAgICAgICAgICAgICAgICAgICAgICAgICAhzdHAyQAAAAAABAAEAAAECAQEBAQEBAQEBAQEBAQEBAQEB
        AQEBAQEBAQEBAQEBAQEBAQEBAQEBAQEBAQEBAQEBAQEBAQEBAQFzdHAzQAAAAAQEBAQEBAQEBAQEBAQEBAQEBAQEBAQEBAQEBAQEBAQEBAQEBAQEBAQEBAQEBAQEBAQE
        BAQEBAQEBAQEBAQEBARzdHA0QAAAAGBgYGBgYGBgYGBgYGBgYGBAQEBAQEBAQEBAQEBAQEBAQEBAQEBAQEBAQEBAQEBAQEBAQEBAQEBAQEBAQEBAQEBzdHA1QAAAAAAA
        AAAAAAAAAAAAAAAAAAAAAAAAAAAAAAAAAAAAAAAAAAAAAAAAAAAAAAAAAAAAAAAAAAAAAAAAAAAAAAAAAABwcm9nEgIAAHByZ3AiAAAAEBBIBAABAH8AfwBAAAEAAQAA
        AAAAAAAAAH8AAAAAAAAAAHBnbm0wAAAAQmFzcyAxayBUZWNobm8gMDEAvl//fwAAsDgPHAEAAAAkKr5f/38AAPTwUSUBAAAAc3RwMEAAAAAAAAAAAAAAAAAAAAAAAAAA
        AAAAAAAAAAAAAAAAAAAAAAAAAAAAAAAAAAAAAAAAAAAAAAAAAAAAAAAAAAAAAAAAc3RwMUAAAAAICAgICAgICAgICAgICAgICAgICAgICAgICAgICAgICAgICAgICAgI
        CAgICAgICAgICAgICAgICAgICAgICAgIc3RwMkAAAAABAQABAQABAQABAQABAAEAAQEBAQEBAQEBAQEBAQEBAQEBAQEBAQEBAQEBAQEBAQEBAQEBAQEBAQEBAQEBAQEB
        c3RwM0AAAAAEBAQEBAQEBAQEBAQEBAQEBAQEBAQEBAQEBAQEBAQEBAQEBAQEBAQEBAQEBAQEBAQEBAQEBAQEBAQEBAQEBAQEc3RwNEAAAABgYGBgYGBgYGBgYGBgYGBg
        YGBgYGBgYGBgYGBgYGBgYGBgYGBgYGBgYGBgYGBgYGBgYGBgYGBgYGBgYGBgYGBgc3RwNUAAAAAAAAAAAAAAAAAAAAAAAAAAAAAAAAAAAAAAAAAAAAAAAAAAAAAAAAAA
        AAAAAAAAAAAAAAAAAAAAAAAAAAAAAAAAcHJvZxICAABwcmdwIgAAABAgSAQAAQB/AH8AQAABAAEAAAAAAAAAAAB/AAAAAAAAAABwZ25tMAAAAEJhc3MgMWsgVGVjaG5v
        IDAyICgzMiBzdGVwcykAAAAAJCq+X/9/AAD08FElAQAAAHN0cDBAAAAAAAAAAAAAAAAAAAAAAAAAAAAAAAAAAAAAAAAAAAAAAAAAAAAAAAAAAAAAAAAAAAAAAAAAAAAA
        AAAAAAAAAAAAAHN0cDFAAAAACAgICAgICAgICAgICAgICAgICAgICAgICAgICAgICAgICAgICAgICAgICAgICAgICAgICAgICAgICAgICAgICHN0cDJAAAAAAAABAAAA
        AQAAAAEAAAABAAAAAQAAAAEAAAABAAABAAEBAQEBAQEBAQEBAQEBAQEBAQEBAQEBAQEBAQEBAQEBAXN0cDNAAAAABAQEBAQEBAQEBAQEBAQEBAQEBAQEBAQEBAQEBAQE
        BAQEBAQEBAQEBAQEBAQEBAQEBAQEBAQEBAQEBAQEBAQEBHN0cDRAAAAAYGBgYGBgYGBgYGBgYGBgYGBgYGBgYGBgYGBgYGBgYGBgYGBgYGBgYGBgYGBgYGBgYGBgYGBg
        YGBgYGBgYGBgYHN0cDVAAAAAAAAAAAAAAAAAAAAAAAAAAAAAAAAAAAAAAAAAAAAAAAAAAAAAAAAAAAAAAAAAAAAAAAAAAAAAAAAAAAAAAAAAAHByb2cSAgAAcHJncCIA
        AAAQEE8EAAIAfwB/AEAAAQABAAAAAAAAAAAAfwAAAAAAAAAAcGdubTAAAABCYXNzIDJrIFRlY2hubyAwMwC+X/9/AACwOA8cAQAAACQqvl//fwAA9PBRJQEAAABzdHAw
        QAAAAAAAAAAAAAAAAAAAAAAAAAAAAAAAAAAAAAAAAAAAAAAAAAAAAAAAAAAAAAAAAAAAAAAAAAAAAAAAAAAAAAAAAABzdHAxQAAAAAgICAgICAgICAgICAgICAgICAgI
        CAgICAgICAgICAgICAgICAgICAgICAgICAgICAgICAgICAgICAgICAgICAhzdHAyQAAAAAEBAQEBAAEAAQABAAEAAQABAQEBAQEBAQEBAQEBAQEBAQEBAQEBAQEBAQEB
        AQEBAQEBAQEBAQEBAQEBAQEBAQFzdHAzQAAAAAQEBAQEBAQEBAQEBAQECAQEBAQEBAQEBAQEBAQEBAQEBAQEBAQEBAQEBAQEBAQEBAQEBAQEBAQEBAQEBAQEBARzdHA0
        QAAAAGBgYGBgYGBgYGBgYGBgYGBgYGBgYGBgYGBgYGBgYGBgYGBgYGBgYGBgYGBgYGBgYGBgYGBgYGBgYGBgYGBgYGBzdHA1QAAAAAAAAAAAAAAAAAAAAAAAAAAAAAAA
        AAAAAAAAAAAAAAAAAAAAAAAAAAAAAAAAAAAAAAAAAAAAAAAAAAAAAAAAAABwcm9nEgIAAHByZ3AiAAAAEBBEBAACAH8AfwBAAAEAAQAAAAAAAAAAAH8AAAAAAAAAAHBn
        bm0wAAAAQmFzcyAzayBDb21wbGV4IDEtMQD/fwAAsDgPHAEAAAAkKr5f/38AAPTwUSUBAAAAc3RwMEAAAAAAAAAAAAAAAAAAAAAAAAAAAAAAAAAAAAAAAAAAAAAAAAAA
        AAAAAAAAAAAAAAAAAAAAAAAAAAAAAAAAAAAAAAAAc3RwMUAAAAAICAgICAgICAgICBAICAgICAgICAgICAgICAgICAgICAgICAgICAgICAgICAgICAgICAgICAgICAgI
        CAgICAgIc3RwMkAAAAABAAEAAAABAAABAgEBAgAAAQEBAQEBAQEBAQEBAQEBAQEBAQEBAQEBAQEBAQEBAQEBAQEBAQEBAQEBAQEBAQEBc3RwM0AAAAAEBAQEBAQEBAQE
        BAQEBAQEBAQEBAQEBAQEBAQEBAQEBAQEBAQEBAQEBAQEBAQEBAQEBAQEBAQEBAQEBAQEBAQEc3RwNEAAAABgYGBgYGBgYGBgYGBgYGBgYGBgYGBgYGBgYGBgYGBgYGBg
        YGBgYGBgYGBgYGBgYGBgYGBgYGBgYGBgYGBgYGBgc3RwNUAAAAAAAAAAAAAAAAAAAAAAAAAAAAAAAAAAAAAAAAAAAAAAAAAAAAAAAAAAAAAAAAAAAAAAAAAAAAAAAAAA
        AAAAAAAAcHJvZxICAABwcmdwIgAAABAMRQUAAgB/AH8AQAABAAEAAAAAAAAAAAB/AAAAAAAAAABwZ25tMAAAAEJhc3MgM2sgQ29tcGxleCAxLTIA/38AALA4DxwBAAAA
        JCq+X/9/AAD08FElAQAAAHN0cDBAAAAAAAAAAAAAAAAAAAAAAAAAAAAAAAAAAAAAAAAAAAAAAAAAAAAAAAAAAAAAAAAAAAAAAAAAAAAAAAAAAAAAAAAAAHN0cDFAAAAA
        CAgICAgICAgICAgICAgICAgICAgICAgICAgICAgICAgICAgICAgICAgICAgICAgICAgICAgICAgICAgICAgICHN0cDJAAAAAAQIBAgECAQIBAgECAQEBAQEBAQEBAQEB
        AQEBAQEBAQEBAQEBAQEBAQEBAQEBAQEBAQEBAQEBAQEBAQEBAQEBAXN0cDNAAAAACAgICAgIEBAQEBAQBAQEBAQEBAQEBAQEBAQEBAQEBAQEBAQEBAQEBAQEBAQEBAQE
        BAQEBAQEBAQEBAQEBAQEBHN0cDRAAAAAYGBgYGBgYGBgYGBgYGBgYGBgYGBgYGBgYGBgYGBgYGBgYGBgYGBgYGBgYGBgYGBgYGBgYGBgYGBgYGBgYGBgYHN0cDVAAAAA
        AAAAAAAAAAAAAAAAAAAAAAAAAAAAAAAAAAAAAAAAAAAAAAAAAAAAAAAAAAAAAAAAAAAAAAAAAAAAAAAAAAAAAHByb2cSAgAAcHJncCIAAAAQDE0FAAIAfwB/AEAAAQAB
        AAAAAAAAAAAAfwAAAAAAAAAAcGdubTAAAABCYXNzIDNrIENvbXBsZXggMS0zAP9/AACwOA8cAQAAACQqvl//fwAA9PBRJQEAAABzdHAwQAAAAAAAAAAAAAAAAAAAAAAA
        AAAAAAAAAAAAAAAAAAAAAAAAAAAAAAAAAAAAAAAAAAAAAAAAAAAAAAAAAAAAAAAAAABzdHAxQAAAAAgICAgICAgICAgICAgICAgICAgICAgICAgICAgICAgICAgICAgI
        CAgICAgICAgICAgICAgICAgICAgICAgICAhzdHAyQAAAAAEBAQEBAQEBAQEBAQEBAQEBAQEBAQEBAQEBAQEBAQEBAQEBAQEBAQEBAQEBAQEBAQEBAQEBAQEBAQEBAQEB
        AQFzdHAzQAAAAAgICAgICBAQEBAQEAQEBAQEBAQEBAQEBAQEBAQEBAQEBAQEBAQEBAQEBAQEBAQEBAQEBAQEBAQEBAQEBAQEBARzdHA0QAAAAGBgYGBgYGBgYGBgYGBg
        YGBgYGBgYGBgYGBgYGBgYGBgYGBgYGBgYGBgYGBgYGBgYGBgYGBgYGBgYGBgYGBgYGBzdHA1QAAAAAAAAAAAAAAAAAAAAAAAAAAAAAAAAAAAAAAAAAAAAAAAAAAAAAAA
        AAAAAAAAAAAAAAAAAAAAAAAAAAAAAAAAAABwcm9nEgIAAHByZ3AiAAAAEAhNBAABAH8AfwBAAAEAAQAAAAAAAAAAAH8AAAAAAAAAAHBnbm0wAAAAQmFzcyAxayBUcmFu
        Y2UgMDEAvl//fwAAsDgPHAEAAAAkKr5f/38AAPTwUSUBAAAAc3RwMEAAAAAAAAAAAAAAAAAAAAAAAAAAAAAAAAAAAAAAAAAAAAAAAAAAAAAAAAAAAAAAAAAAAAAAAAAA
        AAAAAAAAAAAAAAAAc3RwMUAAAAAICAgICAgICAgICAgICAgICAgICAgICAgICAgICAgICAgICAgICAgICAgICAgICAgICAgICAgICAgICAgICAgIc3RwMkAAAAAAAAEB
        AAABAAEBAQEBAQEBAQEBAQEBAQEBAQEBAQEBAQEBAQEBAQEBAQEBAQEBAQEBAQEBAQEBAQEBAQEBAQEBc3RwM0AAAAAEBAQEBAQEBAQEBAQEBAQEBAQEBAQEBAQEBAQE
        BAQEBAQEBAQEBAQEBAQEBAQEBAQEBAQEBAQEBAQEBAQEBAQEc3RwNEAAAABgYGBgYGBgYGBgYGBgYGBgYGBgYGBgYGBgYGBgYGBgYGBgYGBgYGBgYGBgYGBgYGBgYGBg
        YGBgYGBgYGBgYGBgc3RwNUAAAAAAAAAAAAAAAAAAAAAAAAAAAAAAAAAAAAAAAAAAAAAAAAAAAAAAAAAAAAAAAAAAAAAAAAAAAAAAAAAAAAAAAAAAcHJvZxICAABwcmdw
        IgAAABAIQwQAAQB/AH8AQAABAAEAAAAAAAAAAAB/AAAAAAAAAABwZ25tMAAAAEJhc3MgMWsgVHJhbmNlIDAyAL5f/38AALA4DxwBAAAAJCq+X/9/AAD08FElAQAAAHN0
        cDBAAAAAAAAAAAAAAAAAAAAAAAAAAAAAAAAAAAAAAAAAAAAAAAAAAAAAAAAAAAAAAAAAAAAAAAAAAAAAAAAAAAAAAAAAAHN0cDFAAAAACBAIEAgIEAgICAgICAgICAgI
        CAgICAgICAgICAgICAgICAgICAgICAgICAgICAgICAgICAgICAgICAgICAgICHN0cDJAAAAAAAEBAQABAQEBAQEBAQEBAQEBAQEBAQEBAQEBAQEBAQEBAQEBAQEBAQEB
        AQEBAQEBAQEBAQEBAQEBAQEBAQEBAXN0cDNAAAAABAQEBAQEBAQEBAQEBAQEBAQEBAQEBAQEBAQEBAQEBAQEBAQEBAQEBAQEBAQEBAQEBAQEBAQEBAQEBAQEBAQEBHN0
        cDRAAAAAYGBgYGBgYGBgYGBgYGBgYGBgYGBgYGBgYGBgYGBgYGBgYGBgYGBgYGBgYGBgYGBgYGBgYGBgYGBgYGBgYGBgYHN0cDVAAAAAAAAAAAAAAAAAAAAAAAAAAAAA
        AAAAAAAAAAAAAAAAAAAAAAAAAAAAAAAAAAAAAAAAAAAAAAAAAAAAAAAAAAAAAHByb2cSAgAAcHJncCIAAAAQEDIEAAEAfwB/AkAAAQABAAAAAAAAAAAAfwAAAAAAAAAA
        cGdubTAAAABCYXNzIDJrIFRyYW5jZSAwMwC+X/9/AACwOA8cAQAAACQqvl//fwAA9PBRJQEAAABzdHAwQAAAAAAAAAAAAAAAAAAAAAAAAAAAAAAAAAAAAAAAAAAAAAAA
        AAAAAAAAAAAAAAAAAAAAAAAAAAAAAAAAAAAAAAAAAABzdHAxQAAAABAIEBAICBAIEAgQEAgIEAgICAgICAgICAgICAgICAgICAgICAgICAgICAgICAgICAgICAgICAgI
        CAgICAgICAhzdHAyQAAAAAECAQEBAgEBAQIBAQECAQEBAQEBAQEBAQEBAQEBAQEBAQEBAQEBAQEBAQEBAQEBAQEBAQEBAQEBAQEBAQEBAQFzdHAzQAAAAAgEBAQEBAQE
        BAQEBAQEBAQEBAQEBAQEBAQEBAQEBAQEBAQEBAQEBAQEBAQEBAQEBAQEBAQEBAQEBAQEBAQEBARzdHA0QAAAAGBgYGBgYGBgYGBgYGBgYGBgYGBgYGBgYGBgYGBgYGBg
        YGBgYGBgYGBgYGBgYGBgYGBgYGBgYGBgYGBgYGBgYGBzdHA1QAAAAAAAAAAAAAAAAAAAAAAAAAAAAAAAAAAAAAAAAAAAAAAAAAAAAAAAAAAAAAAAAAAAAAAAAAAAAAAA
        AAAAAAAAAABwcm9nEgIAAHByZ3AiAAAAEBBdBAACAH8AfwJAAAEAAQAAAAAAAAAAAH8AAAAAAAAAAHBnbm0wAAAAQmFzcyAyayBETSBRdWVzdGlvbiBvZiB0aW1lAAEA
        AAAkKr5f/38AAPTwUSUBAAAAc3RwMEAAAAAAAAAAAAAAAAAAAAAAAAAAAAAAAAAAAAAAAAAAAAAAAAAAAAAAAAAAAAAAAAAAAAAAAAAAAAAAAAAAAAAAAAAAc3RwMUAA
        AAAICAgICAgICAgICAgICAgICAgICAgICAgICAgICAgICAgICAgICAgICAgICAgICAgICAgICAgICAgICAgICAgIc3RwMkAAAAABAAEAAQABAAEAAQABAAEAAQEBAQEB
        AQEBAQEBAQEBAQEBAQEBAQEBAQEBAQEBAQEBAQEBAQEBAQEBAQEBAQEBc3RwM0AAAAAEBAQEBAQEBAQEBAQIBAQEBAQEBAQEBAQEBAQEBAQEBAQEBAQEBAQEBAQEBAQE
        BAQEBAQEBAQEBAQEBAQEBAQEc3RwNEAAAABgYGBgYGBgYGBgYGBgYGBgYGBgYGBgYGBgYGBgYGBgYGBgYGBgYGBgYGBgYGBgYGBgYGBgYGBgYGBgYGBgYGBgc3RwNUAA
        AAAAAAAAAAAAAAAAAAAAAAAAAAAAAAAAAAAAAAAAAAAAAAAAAAAAAAAAAAAAAAAAAAAAAAAAAAAAAAAAAAAAAAAAcHJvZxICAABwcmdwIgAAABAQUQQAAQB/AH8AQAAB
        AAEAAAAAAAAAAAB/AAAAAAAAAABwZ25tMAAAAEJhc3MgMWsgQmVuYXNzaSAtIElsbHVzaW9uABwBAAAAJCq+X/9/AAD08FElAQAAAHN0cDBAAAAAAAAAAAAAAAAAAAAA
        AAAAAAAAAAAAAAAAAAAAAAAAAAAAAAAAAAAAAAAAAAAAAAAAAAAAAAAAAAAAAAAAAAAAAHN0cDFAAAAACBAIEBAQEAgQEAgQEBAIEAgICAgICAgICAgICAgICAgICAgI
        CAgICAgICAgICAgICAgICAgICAgICAgICAgICHN0cDJAAAAAAQABAAECAAEAAAEAAQIBAAEBAQEBAQEBAQEBAQEBAQEBAQEBAQEBAQEBAQEBAQEBAQEBAQEBAQEBAQEB
        AQEBAXN0cDNAAAAABAQEBAQEBAQEBAQEBAQEBAQEBAQEBAQEBAQEBAQEBAQEBAQEBAQEBAQEBAQEBAQEBAQEBAQEBAQEBAQEBAQEBHN0cDRAAAAAYGBgYGBgYGBgYGBg
        YGBgYGBgYGBgYGBgYGBgYGBgYGBgYGBgYGBgYGBgYGBgYGBgYGBgYGBgYGBgYGBgYGBgYHN0cDVAAAAAAAAAAAAAAAAAAAAAAAAAAAAAAAAAAAAAAAAAAAAAAAAAAAAA
        AAAAAAAAAAAAAAAAAAAAAAAAAAAAAAAAAAAAAHByb2cSAgAAcHJncCIAAAAQEFQEAAEAfwB/AEAAAQABAAAAAAAAAAAAfwAAAAAAAAAAcGdubTAAAABCYXNzIDFrIFF1
        ZWVuIC0gQnJlYWsgZnJlZQAcAQAAACQqvl//fwAA9PBRJQEAAABzdHAwQAAAAAAAAAAAAAAAAAAAAAAAAAAAAAAAAAAAAAAAAAAAAAAAAAAAAAAAAAAAAAAAAAAAAAAA
        AAAAAAAAAAAAAAAAAABzdHAxQAAAAAgQCAgQEAgQEBAIEBAQCBAICAgICAgICAgICAgICAgICAgICAgICAgICAgICAgICAgICAgICAgICAgICAgICAhzdHAyQAAAAAEA
        AQEBAAEAAQABAAEAAQABAQEBAQEBAQEBAQEBAQEBAQEBAQEBAQEBAQEBAQEBAQEBAQEBAQEBAQEBAQEBAQFzdHAzQAAAAAQEBAQEBAQEBAQEBAQEBAQEBAQEBAQEBAQE
        BAQEBAQEBAQEBAQEBAQEBAQEBAQEBAQEBAQEBAQEBAQEBAQEBARzdHA0QAAAAGBgYGBgYGBgYGBgYGBgYGBgYGBgYGBgYGBgYGBgYGBgYGBgYGBgYGBgYGBgYGBgYGBg
        YGBgYGBgYGBgYGBgYGBzdHA1QAAAAAAAAAAAAAAAAAAAAAAAAAAAAAAAAAAAAAAAAAAAAAAAAAAAAAAAAAAAAAAAAAAAAAAAAAAAAAAAAAAAAAAAAABwcm9nEgIAAHBy
        Z3AiAAAAECBMBAABAH8AfwBAAAEAAQAAAAAAAAAAAH8AAAAAAAAAAHBnbm0wAAAAQmFzcyAxayBRdWVlbiAtIExpdmluZyBvbiBteSBvd24AKr5f/38AAPTwUSUBAAAA
        c3RwMEAAAAAAAAAAAAAAAAAAAAAAAAAAAAAAAAAAAAAAAAAAAAAAAAAAAAAAAAAAAAAAAAAAAAAAAAAAAAAAAAAAAAAAAAAAc3RwMUAAAAAICBAICBAICBAICBAICBAI
        CBAgCBAgCBAgCBAgCBAgEAgICAgICAgICAgICAgICAgICAgICAgICAgICAgICAgIc3RwMkAAAAABAAEAAQEAAQEAAQEAAQEAAQEBAQEBAQEBAQEBAQEBAQEBAQEBAQEB
        AQEBAQEBAQEBAQEBAQEBAQEBAQEBAQEBc3RwM0AAAAAEBAQEBAQEBAQEBAQEBAQEBAQEBAQEBAQEBAQEBAQEBAQEBAQEBAQEBAQEBAQEBAQEBAQEBAQEBAQEBAQEBAQE
        c3RwNEAAAABgYGBgYGBgYGBgYGBgYGBgYGBgYGBgYGBgYGBgYGBgYGBgYGBgYGBgYGBgYGBgYGBgYGBgYGBgYGBgYGBgYGBgc3RwNUAAAAAAAAAAAAAAAAAAAAAAAAAA
        AAAAAAAAAAAAAAAAAAAAAAAAAAAAAAAAAAAAAAAAAAAAAAAAAAAAAAAAAAAAAAAAcHJvZxICAABwcmdwIgAAABAQLgQAAQB/AH8AQAABAAEAAAYDAAAAAAB/AAAAAAAA
        AABwZ25tMAAAAFNlcSAxayBGb3JjZVNjYWxlIEVtIDAxALA4DxwBAAAAJCq+X/9/AAD08FElAQAAAHN0cDBAAAAAAAACAAQAAwAAAgMAAwADBAAAAAAAAAAAAAAAAAAA
        AAAAAAAAAAAAAAAAAAAAAAAAAAAAAAAAAAAAAAAAAAAAAHN0cDFAAAAABAIIBAgECAgCCAgECAQICAgICAgICAgICAgICAgICAgICAgICAgICAgICAgICAgICAgICAgI
        CAgICAgICAgICHN0cDJAAAAAAQABAAEAAQEAAQABAQAAAQEBAQEBAQEBAQEBAQEBAQEBAQEBAQEBAQEBAQEBAQEBAQEBAQEBAQEBAQEBAQEBAXN0cDNAAAAABAQEBAQE
        BAQEBAQEBAQEBAQEBAQEBAQEBAQEBAQEBAQEBAQEBAQEBAQEBAQEBAQEBAQEBAQEBAQEBAQEBAQEBHN0cDRAAAAAYGBgYGBgYGBgYGBgYGBgYGBgYGBgYGBgYGBgYGBg
        YGBgYGBgYGBgYGBgYGBgYGBgYGBgYGBgYGBgYGBgYGBgYHN0cDVAAAAAAAAAAAAAAAAAAAAAAAAAAAAAAAAAAAAAAAAAAAAAAAAAAAAAAAAAAAAAAAAAAAAAAAAAAAAA
        AAAAAAAAAAAAAHByb2cSAgAAcHJncCIAAAAQCEIEAAEAfwB/AEAAAQABAAAGAwAAAAAAfwAAAAAAAAAAcGdubTAAAABTZXEgMWsgRm9yY2VTY2FsZSBFbSAwMgCwOA8c
        AQAAACQqvl//fwAA9PBRJQEAAABzdHAwQAAAAAAAAAIAAAQAAAAAAAAAAAAAAAAAAAAAAAAAAAAAAAAAAAAAAAAAAAAAAAAAAAAAAAAAAAAAAAAAAAAAAAAAAABzdHAx
        QAAAAAgIBAgEBAgICAgICAgICAgICAgICAgICAgICAgICAgICAgICAgICAgICAgICAgICAgICAgICAgICAgICAgICAhzdHAyQAAAAAECAQEBAQECAQEBAQEBAQEBAQEB
        AQEBAQEBAQEBAQEBAQEBAQEBAQEBAQEBAQEBAQEBAQEBAQEBAQEBAQEBAQFzdHAzQAAAAAQEBAQEBAQEBAQEBAQEBAQEBAQEBAQEBAQEBAQEBAQEBAQEBAQEBAQEBAQE
        BAQEBAQEBAQEBAQEBAQEBAQEBARzdHA0QAAAAGBgYGBgYGBgYGBgYGBgYGBgYGBgYGBgYGBgYGBgYGBgYGBgYGBgYGBgYGBgYGBgYGBgYGBgYGBgYGBgYGBgYGBzdHA1
        QAAAAAAAAAAAAAAAAAAAAAAAAAAAAAAAAAAAAAAAAAAAAAAAAAAAAAAAAAAAAAAAAAAAAAAAAAAAAAAAAAAAAAAAAABwcm9nEgIAAHByZ3AiAAAAEBBHBAABAH8AfwBF
        AAEAAQAABgMAAAAAAH8AAAAAAAAAAHBnbm0wAAAAU2VxIDFrIEZvcmNlU2NhbGUgRW0gMDMAsDgPHAEAAAAkKr5f/38AAPTwUSUBAAAAc3RwMEAAAAAAAAACAAQAAAAC
        AAAAAgADAAAAAAAAAAAAAAAAAAAAAAAAAAAAAAAAAAAAAAAAAAAAAAAAAAAAAAAAAAAAAAAAc3RwMUAAAAAICAgICAgICAgICAgICAgICAgICAgICAgICAgICAgICAgI
        CAgICAgICAgICAgICAgICAgICAgICAgICAgICAgIc3RwMkAAAAAAAQABAAEAAAEBAAABAQABAQEBAQEBAQEBAQEBAQEBAQEBAQEBAQEBAQEBAQEBAQEBAQEBAQEBAQEB
        AQEBAQEBc3RwM0AAAAAEBAQEBAQEBAQEBAQEBAQEBAQEBAQEBAQEBAQEBAQEBAQEBAQEBAQEBAQEBAQEBAQEBAQEBAQEBAQEBAQEBAQEc3RwNEAAAABgYGBgYGBgYGBg
        YGBgYGBgYGBgYGBgYGBgYGBgYGBgYGBgYGBgYGBgYGBgYGBgYGBgYGBgYGBgYGBgYGBgYGBgc3RwNUAAAAAAAAAAAAAAAAAAAAAAAAAAAAAAAAAAAAAAAAAAAAAAAAAA
        AAAAAAAAAAAAAAAAAAAAAAAAAAAAAAAAAAAAAAAAcHJvZxICAABwcmdwIgAAABAQZAQAAgB/AH8AQAABAAEAAAYDAAAAAAB/AAAAAAAAAABwZ25tMAAAAFNlcSAyayBG
        b3JjZVNjYWxlIEVtIDA0IChFK0cpAAAAJCq+X/9/AAD08FElAQAAAHN0cDBAAAAAAAAAAAYAAAAAAAUAAAQAAAAAAAAAAAAAAAAAAAAAAAAAAAAAAAAAAAAAAAAAAAAA
        AAAAAAAAAAAAAAAAAAAAAHN0cDFAAAAABAgEBAgEBAgEBAgEBAgECAgICAgICAgICAgICAgICAgICAgICAgICAgICAgICAgICAgICAgICAgICAgICAgICHN0cDJAAAAA
        AQEAAQEAAQEAAQEAAQEAAQEBAQEBAQEBAQEBAQEBAQEBAQEBAQEBAQEBAQEBAQEBAQEBAQEBAQEBAQEBAQEBAXN0cDNAAAAABAgEBAQEBAgEBAgEBAgEBAQEBAQEBAQE
        BAQEBAQEBAQEBAQEBAQEBAQEBAQEBAQEBAQEBAQEBAQEBAQEBAQEBHN0cDRAAAAAYGBgYGBgYGBgYGBgYGBgYGBgYGBgYGBgYGBgYGBgYGBgYGBgYGBgYGBgYGBgYGBg
        YGBgYGBgYGBgYGBgYGBgYHN0cDVAAAAAAAAAAAAAAAAAAAAAAAAAAAAAAAAAAAAAAAAAAAAAAAAAAAAAAAAAAAAAAAAAAAAAAAAAAAAAAAAAAAAAAAAAAHByb2cSAgAA
        cHJncCIAAAAQCEMEAAIAfwB/AEAAAQABAAAAAAAAAAAAfwAAAAAAAAAAcGdubTAAAABTZXEgMmsgSGFybW9uaWMxIChBK0MvQyMpAA8cAQAAACQqvl//fwAA9PBRJQEA
        AABzdHAwQAAAAAAAAAAAAAcAAAAAAAAAAAAAAAAAAAAAAAAAAAAAAAAAAAAAAAAAAAAAAAAAAAAAAAAAAAAAAAAAAAAAAAAAAABzdHAxQAAAAAgICAgEBAgICAgICAgI
        CAgICAgICAgICAgICAgICAgICAgICAgICAgICAgICAgICAgICAgICAgICAgICAgICAhzdHAyQAAAAAECAQEBAQECAQEBAQEBAQEBAQEBAQEBAQEBAQEBAQEBAQEBAQEB
        AQEBAQEBAQEBAQEBAQEBAQEBAQEBAQEBAQFzdHAzQAAAAAQEBAgEBAQEBAQEBAQEBAQEBAQEBAQEBAQEBAQEBAQEBAQEBAQEBAQEBAQEBAQEBAQEBAQEBAQEBAQEBAQE
        BARzdHA0QAAAAGBgYGBgYGBgYGBgYGBgYGBgYGBgYGBgYGBgYGBgYGBgYGBgYGBgYGBgYGBgYGBgYGBgYGBgYGBgYGBgYGBgYGBzdHA1QAAAAAAAAAAAAAAAAAAAAAAA
        AAAAAAAAAAAAAAAAAAAAAAAAAAAAAAAAAAAAAAAAAAAAAAAAAAAAAAAAAAAAAAAAAABwcm9nEgIAAHByZ3AiAAAAEAhDBAABAH8AfwBAAAEAAQAAAAAAAAAAAH8AAAAA
        AAAAAHBnbm0wAAAAU2VxIDJrIEhhcm1vbmljMiAoQStDL0MjKQAPHAEAAAAkKr5f/38AAPTwUSUBAAAAc3RwMEAAAAAAAAcFAAcFAAAAAAAAAAAAAAAAAAAAAAAAAAAA
        AAAAAAAAAAAAAAAAAAAAAAAAAAAAAAAAAAAAAAAAAAAAAAAAc3RwMUAAAAAECAgIBAgICAgICAgICAgICAgICAgICAgICAgICAgICAgICAgICAgICAgICAgICAgICAgI
        CAgICAgICAgICAgIc3RwMkAAAAABAQEBAQEBAQEBAQEBAQEBAQEBAQEBAQEBAQEBAQEBAQEBAQEBAQEBAQEBAQEBAQEBAQEBAQEBAQEBAQEBAQEBc3RwM0AAAAAECAQI
        BAQIBAQEBAQEBAQEBAQEBAQEBAQEBAQEBAQEBAQEBAQEBAQEBAQEBAQEBAQEBAQEBAQEBAQEBAQEBAQEc3RwNEAAAABgYGBgYGBgYGBgYGBgYGBgYGBgYGBgYGBgYGBg
        YGBgYGBgYGBgYGBgYGBgYGBgYGBgYGBgYGBgYGBgYGBgYGBgc3RwNUAAAAAAAAAAAAAAAAAAAAAAAAAAAAAAAAAAAAAAAAAAAAAAAAAAAAAAAAAAAAAAAAAAAAAAAAAA
        AAAAAAAAAAAAAAAAcHJvZxICAABwcmdwIgAAABAIRwQAAQB/AH8AQAABAAEAAAAAAAAAAAB/AAAAAAAAAABwZ25tMAAAAFNlcSAyayBIYXJtb25pYzMgKEErQy9DIykA
        DxwBAAAAJCq+X/9/AAD08FElAQAAAHN0cDBAAAAAAAAHBwAAAAcAAAAAAAAAAAAAAAAAAAAAAAAAAAAAAAAAAAAAAAAAAAAAAAAAAAAAAAAAAAAAAAAAAAAAAAAAAHN0
        cDFAAAAABAgICAgECAgICAgICAgICAgICAgICAgICAgICAgICAgICAgICAgICAgICAgICAgICAgICAgICAgICAgICAgICHN0cDJAAAAAAQEBAQEBAQEBAQEBAQEBAQEB
        AQEBAQEBAQEBAQEBAQEBAQEBAQEBAQEBAQEBAQEBAQEBAQEBAQEBAQEBAQEBAXN0cDNAAAAABAgECAQECAQEBAQEBAQEBAQEBAQEBAQEBAQEBAQEBAQEBAQEBAQEBAQE
        BAQEBAQEBAQEBAQEBAQEBAQEBAQEBHN0cDRAAAAAYGBgYGBgYGBgYGBgYGBgYGBgYGBgYGBgYGBgYGBgYGBgYGBgYGBgYGBgYGBgYGBgYGBgYGBgYGBgYGBgYGBgYHN0
        cDVAAAAAAAAAAAAAAAAAAAAAAAAAAAAAAAAAAAAAAAAAAAAAAAAAAAAAAAAAAAAAAAAAAAAAAAAAAAAAAAAAAAAAAAAAAHByb2cSAgAAcHJncCIAAAAQCEIEAAEAfwB/
        AEAAAQABAAAAAAAAAAAAfwAAAAAAAAAAcGdubTAAAABTZXEgMmsgSGFybW9uaWM0IChBK0MvQyMpAA8cAQAAACQqvl//fwAA9PBRJQEAAABzdHAwQAAAAAAAAAcAAAAA
        AAAAAAAAAAAAAAAAAAAAAAAAAAAAAAAAAAAAAAAAAAAAAAAAAAAAAAAAAAAAAAAAAAAAAAAAAABzdHAxQAAAAAgECAgECAQECAgICAgICAgICAgICAgICAgICAgICAgI
        CAgICAgICAgICAgICAgICAgICAgICAgICAgICAgICAhzdHAyQAAAAAEBAQEBAQEBAQEBAQEBAQEBAQEBAQEBAQEBAQEBAQEBAQEBAQEBAQEBAQEBAQEBAQEBAQEBAQEB
        AQEBAQEBAQFzdHAzQAAAAAQECAQECAQEBAQEBAQEBAQEBAQEBAQEBAQEBAQEBAQEBAQEBAQEBAQEBAQEBAQEBAQEBAQEBAQEBAQEBAQEBARzdHA0QAAAAGBgYGBgYGBg
        YGBgYGBgYGBgYGBgYGBgYGBgYGBgYGBgYGBgYGBgYGBgYGBgYGBgYGBgYGBgYGBgYGBgYGBgYGBzdHA1QAAAAAAAAAAAAAAAAAAAAAAAAAAAAAAAAAAAAAAAAAAAAAAA
        AAAAAAAAAAAAAAAAAAAAAAAAAAAAAAAAAAAAAAAAAABwcm9nEgIAAHByZ3AiAAAAECA9BAABAH8AfwBAAAEAAQAAAAAAAAAAAH8AAAAAAAAAAHBnbm0wAAAAU2VxIDJr
        IEtyYWZ0d2VyazEgKEQrRikAsDgPHAEAAAAkKr5f/38AAPTwUSUBAAAAc3RwMEAAAAAAAP7+AAD+/gAAAAAAAAAAAAD+/gAA/v4AAAAAAAAAAAAAAAAAAAAAAAAAAAAA
        AAAAAAAAAAAAAAAAAAAAAAAAc3RwMUAAAAAICAgICAgICAgICAgICAgICAgICAgICAgICAQEBAgEBAgICAgICAgICAgICAgICAgICAgICAgICAgICAgICAgIc3RwMkAA
        AAABAQEBAQEBAQEBAAABAQAAAQEBAQEBAQEBAQEBAQEAAAEBAQEBAQEBAQEBAQEBAQEBAQEBAQEBAQEBAQEBAQEBc3RwM0AAAAAEBAQEBAQEBAQEBAQICAQEBAQEBAQE
        BAQEBAQEBAQEBAQEBAQEBAQEBAQEBAQEBAQEBAQEBAQEBAQEBAQEBAQEc3RwNEAAAABgYGBgYGBgYGBgYGBgYGBgYGBgYGBgYGBgYGBgYGBgYGBgYGBgYGBgYGBgYGBg
        YGBgYGBgYGBgYGBgYGBgYGBgc3RwNUAAAAAAAAAAAAAAAAAAAAAAAAAAAAAAAAAAAAAAAAAAAAAAAAAAAAAAAAAAAAAAAAAAAAAAAAAAAAAAAAAAAAAAAAAAcHJvZxIC
        AABwcmdwIgAAABAgZAQAAQB/AH8APgABAAEAAAAAAAAAAAB/AAAAAAAAAABwZ25tMAAAAFNlcSAyayBLcmFmdHdlcmsyIChBLCBDKQA4DxwBAAAAJCq+X/9/AAD08FEl
        AQAAAHN0cDBAAAAAAAAAAAAAAAADAAAAAAAAAAMAAAAFAAoABwAAAAAAAAAAAAAAAAAAAAAAAAAAAAAAAAAAAAAAAAAAAAAAAAAAAHN0cDFAAAAACAgICAgICAgICAgI
        CAgICAgICAgICAgICAgICAgICAgICAgICAgICAgICAgICAgICAgICAgICAgICAgICAgICHN0cDJAAAAAAQAAAAEAAQABAAEAAAAAAAEAAAABAAEAAQAAAAAAAAABAQEB
        AQEBAQEBAQEBAQEBAQEBAQEBAQEBAQEBAQEBAXN0cDNAAAAABAQEBAQEBAQEBAQEBAQEBAQEBAQEBAQEBAQEBAQEBAQEBAQEBAQEBAQEBAQEBAQEBAQEBAQEBAQEBAQE
        BAQEBHN0cDRAAAAAYGBgYGBgYGBgYGBgYGBgYGBgYGBgYGBgYGBgYGBgYGBgYGBgYGBgYGBgYGBgYGBgYGBgYGBgYGBgYGBgYGBgYHN0cDVAAAAAAAAAAAAAAAAAAAAA
        AAAAAAAAAAAAAAAAAAAAAAAAAAAAAAAAAAAAAAAAAAAAAAAAAAAAAAAAAAAAAAAAAAAAAHByb2cSAgAAcHJncCIAAAAQIGQEAAEAfwB/AEAAAQABAAAAAAAAAAAAfwAA
        AAAAAAAAcGdubTAAAABTZXEgMmsgS3JhZnR3ZXJrMyAoQStDLCBGK0EpAAAAACQqvl//fwAA9PBRJQEAAABzdHAwQAAAAAAAAAAAAPsAAAD7AAAAAAAAAAAAAgAAAAAA
        AAAAAPsAAAAAAAAAAAAAAAAAAAAAAAAAAAAAAAAAAAAAAAAAAABzdHAxQAAAAAgICAgICAgICAgICAgICAgICAgICAgICAgICAgICAgICAgICAgICAgICAgICAgICAgI
        CAgICAgICAgICAgICAhzdHAyQAAAAAEAAAABAAEAAQABAAAAAQABAAAAAQABAAAAAAAAAAEAAQEBAQEBAQEBAQEBAQEBAQEBAQEBAQEBAQEBAQEBAQFzdHAzQAAAAAQE
        BAQEBAQEBAQEBAQEBAQIBAQEBAQEBAQEBAQEBAQEBAQEBAQEBAQEBAQEBAQEBAQEBAQEBAQEBAQEBAQEBARzdHA0QAAAAGBgYGBgYGBgYGBgYGBgYGBgYGBgYGBgYGBg
        YGBgYGBgYGBgYGBgYGBgYGBgYGBgYGBgYGBgYGBgYGBgYGBgYGBzdHA1QAAAAAAAAAAAAAAAAAAAAAAAAAAAAAAAAAAAAAAAAAAAAAAAAAAAAAAAAAAAAAAAAAAAAAAA
        AAAAAAAAAAAAAAAAAABwcm9nEgIAAHByZ3AiAAAAECBkBAABAH8AfwBAAAEAAQAAAAAAAAAAAH8AAAAAAAAAAHBnbm0wAAAAU2VxIDJrIEtyYWZ0d2VyazMgKEErQywg
        RitBKQAAAAAkKr5f/38AAPTwUSUBAAAAc3RwMEAAAAAAAAAAAAD7AAAA+wAAAAAAAAAAAAIAAAAAAAAAAAD7AAAAAAAAAAAAAAAAAAAAAAAAAAAAAAAAAAAAAAAAAAAA
        c3RwMUAAAAAICAgICAgICAgICAgICAgICAgICAgICAgICAgICAgICAgICAgICAgICAgICAgICAgICAgICAgICAgICAgICAgIc3RwMkAAAAABAAAAAQABAAEAAQAAAAEA
        AQAAAAEAAQAAAAAAAAABAAEBAQEBAQEBAQEBAQEBAQEBAQEBAQEBAQEBAQEBAQEBc3RwM0AAAAAEBAQEBAQEBAQEBAQEBAQECAQEBAQEBAQEBAQEBAQEBAQEBAQEBAQE
        BAQEBAQEBAQEBAQEBAQEBAQEBAQEBAQEc3RwNEAAAABgYGBgYGBgYGBgYGBgYGBgYGBgYGBgYGBgYGBgYGBgYGBgYGBgYGBgYGBgYGBgYGBgYGBgYGBgYGBgYGBgYGBg
        c3RwNUAAAAAAAAAAAAAAAAAAAAAAAAAAAAAAAAAAAAAAAAAAAAAAAAAAAAAAAAAAAAAAAAAAAAAAAAAAAAAAAAAAAAAAAAAAcHJvZxICAABwcmdwIgAAABAgZAQAAQB/
        AH8AQAABAAEAAAAAAAAAAAB/AAAAAAAAAABwZ25tMAAAAFNlcSAyayBLcmFmdHdlcmszIChBK0MsIEYrQSkAAAAAJCq+X/9/AAD08FElAQAAAHN0cDBAAAAAAAAAAAAA
        +wAAAPsAAAAAAAAAAAACAAAAAAAAAAAA+wAAAAAAAAAAAAAAAAAAAAAAAAAAAAAAAAAAAAAAAAAAAHN0cDFAAAAACAgICAgICAgICAgICAgICAgICAgICAgICAgICAgI
        CAgICAgICAgICAgICAgICAgICAgICAgICAgICAgICAgICHN0cDJAAAAAAQAAAAEAAQABAAEAAAABAAEAAAABAAEAAAAAAAAAAQABAQEBAQEBAQEBAQEBAQEBAQEBAQEB
        AQEBAQEBAQEBAXN0cDNAAAAABAQEBAQEBAQEBAQEBAQEBAgEBAQEBAQEBAQEBAQEBAQEBAQEBAQEBAQEBAQEBAQEBAQEBAQEBAQEBAQEBAQEBHN0cDRAAAAAYGBgYGBg
        YGBgYGBgYGBgYGBgYGBgYGBgYGBgYGBgYGBgYGBgYGBgYGBgYGBgYGBgYGBgYGBgYGBgYGBgYGBgYHN0cDVAAAAAAAAAAAAAAAAAAAAAAAAAAAAAAAAAAAAAAAAAAAAA
        AAAAAAAAAAAAAAAAAAAAAAAAAAAAAAAAAAAAAAAAAAAAAHByb2cSAgAAcHJncCIAAAAQIGQEAAEAfwB/AEAAAQABAAAAAAAAAAAAfwAAAAAAAAAAcGdubTAAAABTZXEg
        MmsgS3JhZnR3ZXJrMyAoQStDLCBGK0EpAAAAACQqvl//fwAA9PBRJQEAAABzdHAwQAAAAAAAAAAAAPsAAAD7AAAAAAAAAAAAAgAAAAAAAAAAAPsAAAAAAAAAAAAAAAAA
        AAAAAAAAAAAAAAAAAAAAAAAAAABzdHAxQAAAAAgICAgICAgICAgICAgICAgICAgICAgICAgICAgICAgICAgICAgICAgICAgICAgICAgICAgICAgICAgICAgICAhzdHAy
        QAAAAAEAAAABAAEAAQABAAAAAQABAAAAAQABAAAAAAAAAAEAAQEBAQEBAQEBAQEBAQEBAQEBAQEBAQEBAQEBAQEBAQFzdHAzQAAAAAQEBAQEBAQEBAQEBAQEBAQIBAQE
        BAQEBAQEBAQEBAQEBAQEBAQEBAQEBAQEBAQEBAQEBAQEBAQEBAQEBAQEBARzdHA0QAAAAGBgYGBgYGBgYGBgYGBgYGBgYGBgYGBgYGBgYGBgYGBgYGBgYGBgYGBgYGBg
        YGBgYGBgYGBgYGBgYGBgYGBgYGBzdHA1QAAAAAAAAAAAAAAAAAAAAAAAAAAAAAAAAAAAAAAAAAAAAAAAAAAAAAAAAAAAAAAAAAAAAAAAAAAAAAAAAAAAAAAAAABwcm9n
        EgIAAHByZ3AiAAAAECBkBAABAH8AfwBAAAEAAQAAAAAAAAAAAH8AAAAAAAAAAHBnbm0wAAAAU2VxIDJrIEtyYWZ0d2VyazMgKEErQywgRitBKQAAAAAkKr5f/38AAPTw
        USUBAAAAc3RwMEAAAAAAAAAAAAD7AAAA+wAAAAAAAAAAAAIAAAAAAAAAAAD7AAAAAAAAAAAAAAAAAAAAAAAAAAAAAAAAAAAAAAAAAAAAc3RwMUAAAAAICAgICAgICAgI
        CAgICAgICAgICAgICAgICAgICAgICAgICAgICAgICAgICAgICAgICAgICAgICAgICAgICAgIc3RwMkAAAAABAAAAAQABAAEAAQAAAAEAAQAAAAEAAQAAAAAAAAABAAEB
        AQEBAQEBAQEBAQEBAQEBAQEBAQEBAQEBAQEBAQEBc3RwM0AAAAAEBAQEBAQEBAQEBAQEBAQECAQEBAQEBAQEBAQEBAQEBAQEBAQEBAQEBAQEBAQEBAQEBAQEBAQEBAQE
        BAQEBAQEc3RwNEAAAABgYGBgYGBgYGBgYGBgYGBgYGBgYGBgYGBgYGBgYGBgYGBgYGBgYGBgYGBgYGBgYGBgYGBgYGBgYGBgYGBgYGBgc3RwNUAAAAAAAAAAAAAAAAAA
        AAAAAAAAAAAAAAAAAAAAAAAAAAAAAAAAAAAAAAAAAAAAAAAAAAAAAAAAAAAAAAAAAAAAAAAAcHJvZxICAABwcmdwIgAAABAgZAQAAQB/AH8AQAABAAEAAAAAAAAAAAB/
        AAAAAAAAAABwZ25tMAAAAFNlcSAyayBLcmFmdHdlcmszIChBK0MsIEYrQSkAAAAAJCq+X/9/AAD08FElAQAAAHN0cDBAAAAAAAAAAAAA+wAAAPsAAAAAAAAAAAACAAAA
        AAAAAAAA+wAAAAAAAAAAAAAAAAAAAAAAAAAAAAAAAAAAAAAAAAAAAHN0cDFAAAAACAgICAgICAgICAgICAgICAgICAgICAgICAgICAgICAgICAgICAgICAgICAgICAgI
        CAgICAgICAgICAgICAgICHN0cDJAAAAAAQAAAAEAAQABAAEAAAABAAEAAAABAAEAAAAAAAAAAQABAQEBAQEBAQEBAQEBAQEBAQEBAQEBAQEBAQEBAQEBAXN0cDNAAAAA
        BAQEBAQEBAQEBAQEBAQEBAgEBAQEBAQEBAQEBAQEBAQEBAQEBAQEBAQEBAQEBAQEBAQEBAQEBAQEBAQEBAQEBHN0cDRAAAAAYGBgYGBgYGBgYGBgYGBgYGBgYGBgYGBg
        YGBgYGBgYGBgYGBgYGBgYGBgYGBgYGBgYGBgYGBgYGBgYGBgYGBgYHN0cDVAAAAAAAAAAAAAAAAAAAAAAAAAAAAAAAAAAAAAAAAAAAAAAAAAAAAAAAAAAAAAAAAAAAAA
        AAAAAAAAAAAAAAAAAAAAAHByb2cSAgAAcHJncCIAAAAQIGQEAAEAfwB/AEAAAQABAAAAAAAAAAAAfwAAAAAAAAAAcGdubTAAAABTZXEgMmsgS3JhZnR3ZXJrMyAoQStD
        LCBGK0EpAAAAACQqvl//fwAA9PBRJQEAAABzdHAwQAAAAAAAAAAAAPsAAAD7AAAAAAAAAAAAAgAAAAAAAAAAAPsAAAAAAAAAAAAAAAAAAAAAAAAAAAAAAAAAAAAAAAAA
        AABzdHAxQAAAAAgICAgICAgICAgICAgICAgICAgICAgICAgICAgICAgICAgICAgICAgICAgICAgICAgICAgICAgICAgICAgICAhzdHAyQAAAAAEAAAABAAEAAQABAAAA
        AQABAAAAAQABAAAAAAAAAAEAAQEBAQEBAQEBAQEBAQEBAQEBAQEBAQEBAQEBAQEBAQFzdHAzQAAAAAQEBAQEBAQEBAQEBAQEBAQIBAQEBAQEBAQEBAQEBAQEBAQEBAQE
        BAQEBAQEBAQEBAQEBAQEBAQEBAQEBAQEBARzdHA0QAAAAGBgYGBgYGBgYGBgYGBgYGBgYGBgYGBgYGBgYGBgYGBgYGBgYGBgYGBgYGBgYGBgYGBgYGBgYGBgYGBgYGBg
        YGBzdHA1QAAAAAAAAAAAAAAAAAAAAAAAAAAAAAAAAAAAAAAAAAAAAAAAAAAAAAAAAAAAAAAAAAAAAAAAAAAAAAAAAAAAAAAAAABwcm9nEgIAAHByZ3AiAAAAECBkBAAB
        AH8AfwBAAAEAAQAAAAAAAAAAAH8AAAAAAAAAAHBnbm0wAAAAU2VxIDJrIEtyYWZ0d2VyazMgKEErQywgRitBKQAAAAAkKr5f/38AAPTwUSUBAAAAc3RwMEAAAAAAAAAA
        AAD7AAAA+wAAAAAAAAAAAAIAAAAAAAAAAAD7AAAAAAAAAAAAAAAAAAAAAAAAAAAAAAAAAAAAAAAAAAAAc3RwMUAAAAAICAgICAgICAgICAgICAgICAgICAgICAgICAgI
        CAgICAgICAgICAgICAgICAgICAgICAgICAgICAgICAgICAgIc3RwMkAAAAABAAAAAQABAAEAAQAAAAEAAQAAAAEAAQAAAAAAAAABAAEBAQEBAQEBAQEBAQEBAQEBAQEB
        AQEBAQEBAQEBAQEBc3RwM0AAAAAEBAQEBAQEBAQEBAQEBAQECAQEBAQEBAQEBAQEBAQEBAQEBAQEBAQEBAQEBAQEBAQEBAQEBAQEBAQEBAQEBAQEc3RwNEAAAABgYGBg
        YGBgYGBgYGBgYGBgYGBgYGBgYGBgYGBgYGBgYGBgYGBgYGBgYGBgYGBgYGBgYGBgYGBgYGBgYGBgYGBgc3RwNUAAAAAAAAAAAAAAAAAAAAAAAAAAAAAAAAAAAAAAAAAA
        AAAAAAAAAAAAAAAAAAAAAAAAAAAAAAAAAAAAAAAAAAAAAAAAcHJvZxICAABwcmdwIgAAABAgZAQAAQB/AH8AQAABAAEAAAAAAAAAAAB/AAAAAAAAAABwZ25tMAAAAFNl
        cSAyayBLcmFmdHdlcmszIChBK0MsIEYrQSkAAAAAJCq+X/9/AAD08FElAQAAAHN0cDBAAAAAAAAAAAAA+wAAAPsAAAAAAAAAAAACAAAAAAAAAAAA+wAAAAAAAAAAAAAA
        AAAAAAAAAAAAAAAAAAAAAAAAAAAAAHN0cDFAAAAACAgICAgICAgICAgICAgICAgICAgICAgICAgICAgICAgICAgICAgICAgICAgICAgICAgICAgICAgICAgICAgICHN0
        cDJAAAAAAQAAAAEAAQABAAEAAAABAAEAAAABAAEAAAAAAAAAAQABAQEBAQEBAQEBAQEBAQEBAQEBAQEBAQEBAQEBAQEBAXN0cDNAAAAABAQEBAQEBAQEBAQEBAQEBAgE
        BAQEBAQEBAQEBAQEBAQEBAQEBAQEBAQEBAQEBAQEBAQEBAQEBAQEBAQEBAQEBHN0cDRAAAAAYGBgYGBgYGBgYGBgYGBgYGBgYGBgYGBgYGBgYGBgYGBgYGBgYGBgYGBg
        YGBgYGBgYGBgYGBgYGBgYGBgYGBgYHN0cDVAAAAAAAAAAAAAAAAAAAAAAAAAAAAAAAAAAAAAAAAAAAAAAAAAAAAAAAAAAAAAAAAAAAAAAAAAAAAAAAAAAAAAAAAAAHBy
        b2cSAgAAcHJncCIAAAAQIGQEAAEAfwB/AEAAAQABAAAAAAAAAAAAfwAAAAAAAAAAcGdubTAAAABTZXEgMmsgS3JhZnR3ZXJrMyAoQStDLCBGK0EpAAAAACQqvl//fwAA
        9PBRJQEAAABzdHAwQAAAAAAAAAAAAPsAAAD7AAAAAAAAAAAAAgAAAAAAAAAAAPsAAAAAAAAAAAAAAAAAAAAAAAAAAAAAAAAAAAAAAAAAAABzdHAxQAAAAAgICAgICAgI
        CAgICAgICAgICAgICAgICAgICAgICAgICAgICAgICAgICAgICAgICAgICAgICAgICAgICAgICAhzdHAyQAAAAAEAAAABAAEAAQABAAAAAQABAAAAAQABAAAAAAAAAAEA
        AQEBAQEBAQEBAQEBAQEBAQEBAQEBAQEBAQEBAQEBAQFzdHAzQAAAAAQEBAQEBAQEBAQEBAQEBAQIBAQEBAQEBAQEBAQEBAQEBAQEBAQEBAQEBAQEBAQEBAQEBAQEBAQE
        BAQEBAQEBARzdHA0QAAAAGBgYGBgYGBgYGBgYGBgYGBgYGBgYGBgYGBgYGBgYGBgYGBgYGBgYGBgYGBgYGBgYGBgYGBgYGBgYGBgYGBgYGBzdHA1QAAAAAAAAAAAAAAA
        AAAAAAAAAAAAAAAAAAAAAAAAAAAAAAAAAAAAAAAAAAAAAAAAAAAAAAAAAAAAAAAAAAAAAAAAAABwcm9nEgIAAHByZ3AiAAAAECBkBAABAH8AfwBAAAEAAQAAAAAAAAAA
        AH8AAAAAAAAAAHBnbm0wAAAAU2VxIDJrIEtyYWZ0d2VyazMgKEErQywgRitBKQAAAAAkKr5f/38AAPTwUSUBAAAAc3RwMEAAAAAAAAAAAAD7AAAA+wAAAAAAAAAAAAIA
        AAAAAAAAAAD7AAAAAAAAAAAAAAAAAAAAAAAAAAAAAAAAAAAAAAAAAAAAc3RwMUAAAAAICAgICAgICAgICAgICAgICAgICAgICAgICAgICAgICAgICAgICAgICAgICAgI
        CAgICAgICAgICAgICAgICAgIc3RwMkAAAAABAAAAAQABAAEAAQAAAAEAAQAAAAEAAQAAAAAAAAABAAEBAQEBAQEBAQEBAQEBAQEBAQEBAQEBAQEBAQEBAQEBc3RwM0AA
        AAAEBAQEBAQEBAQEBAQEBAQECAQEBAQEBAQEBAQEBAQEBAQEBAQEBAQEBAQEBAQEBAQEBAQEBAQEBAQEBAQEBAQEc3RwNEAAAABgYGBgYGBgYGBgYGBgYGBgYGBgYGBg
        YGBgYGBgYGBgYGBgYGBgYGBgYGBgYGBgYGBgYGBgYGBgYGBgYGBgYGBgc3RwNUAAAAAAAAAAAAAAAAAAAAAAAAAAAAAAAAAAAAAAAAAAAAAAAAAAAAAAAAAAAAAAAAAA
        AAAAAAAAAAAAAAAAAAAAAAAAcHJvZxICAABwcmdwIgAAABAgZAQAAQB/AH8AQAABAAEAAAAAAAAAAAB/AAAAAAAAAABwZ25tMAAAAFNlcSAyayBLcmFmdHdlcmszIChB
        K0MsIEYrQSkAAAAAJCq+X/9/AAD08FElAQAAAHN0cDBAAAAAAAAAAAAA+wAAAPsAAAAAAAAAAAACAAAAAAAAAAAA+wAAAAAAAAAAAAAAAAAAAAAAAAAAAAAAAAAAAAAA
        AAAAAHN0cDFAAAAACAgICAgICAgICAgICAgICAgICAgICAgICAgICAgICAgICAgICAgICAgICAgICAgICAgICAgICAgICAgICAgICHN0cDJAAAAAAQAAAAEAAQABAAEA
        AAABAAEAAAABAAEAAAAAAAAAAQABAQEBAQEBAQEBAQEBAQEBAQEBAQEBAQEBAQEBAQEBAXN0cDNAAAAABAQEBAQEBAQEBAQEBAQEBAgEBAQEBAQEBAQEBAQEBAQEBAQE
        BAQEBAQEBAQEBAQEBAQEBAQEBAQEBAQEBAQEBHN0cDRAAAAAYGBgYGBgYGBgYGBgYGBgYGBgYGBgYGBgYGBgYGBgYGBgYGBgYGBgYGBgYGBgYGBgYGBgYGBgYGBgYGBg
        YGBgYHN0cDVAAAAAAAAAAAAAAAAAAAAAAAAAAAAAAAAAAAAAAAAAAAAAAAAAAAAAAAAAAAAAAAAAAAAAAAAAAAAAAAAAAAAAAAAAAHByb2cSAgAAcHJncCIAAAAQIGQE
        AAEAfwB/AEAAAQABAAAAAAAAAAAAfwAAAAAAAAAAcGdubTAAAABTZXEgMmsgS3JhZnR3ZXJrMyAoQStDLCBGK0EpAAAAACQqvl//fwAA9PBRJQEAAABzdHAwQAAAAAAA
        AAAAAPsAAAD7AAAAAAAAAAAAAgAAAAAAAAAAAPsAAAAAAAAAAAAAAAAAAAAAAAAAAAAAAAAAAAAAAAAAAABzdHAxQAAAAAgICAgICAgICAgICAgICAgICAgICAgICAgI
        CAgICAgICAgICAgICAgICAgICAgICAgICAgICAgICAgICAgICAhzdHAyQAAAAAEAAAABAAEAAQABAAAAAQABAAAAAQABAAAAAAAAAAEAAQEBAQEBAQEBAQEBAQEBAQEB
        AQEBAQEBAQEBAQEBAQFzdHAzQAAAAAQEBAQEBAQEBAQEBAQEBAQIBAQEBAQEBAQEBAQEBAQEBAQEBAQEBAQEBAQEBAQEBAQEBAQEBAQEBAQEBAQEBARzdHA0QAAAAGBg
        YGBgYGBgYGBgYGBgYGBgYGBgYGBgYGBgYGBgYGBgYGBgYGBgYGBgYGBgYGBgYGBgYGBgYGBgYGBgYGBgYGBzdHA1QAAAAAAAAAAAAAAAAAAAAAAAAAAAAAAAAAAAAAAA
        AAAAAAAAAAAAAAAAAAAAAAAAAAAAAAAAAAAAAAAAAAAAAAAAAABwcm9nEgIAAHByZ3AiAAAAECBkBAABAH8AfwBAAAEAAQAAAAAAAAAAAH8AAAAAAAAAAHBnbm0wAAAA
        U2VxIDJrIEtyYWZ0d2VyazMgKEErQywgRitBKQAAAAAkKr5f/38AAPTwUSUBAAAAc3RwMEAAAAAAAAAAAAD7AAAA+wAAAAAAAAAAAAIAAAAAAAAAAAD7AAAAAAAAAAAA
        AAAAAAAAAAAAAAAAAAAAAAAAAAAAAAAAc3RwMUAAAAAICAgICAgICAgICAgICAgICAgICAgICAgICAgICAgICAgICAgICAgICAgICAgICAgICAgICAgICAgICAgICAgI
        c3RwMkAAAAABAAAAAQABAAEAAQAAAAEAAQAAAAEAAQAAAAAAAAABAAEBAQEBAQEBAQEBAQEBAQEBAQEBAQEBAQEBAQEBAQEBc3RwM0AAAAAEBAQEBAQEBAQEBAQEBAQE
        CAQEBAQEBAQEBAQEBAQEBAQEBAQEBAQEBAQEBAQEBAQEBAQEBAQEBAQEBAQEBAQEc3RwNEAAAABgYGBgYGBgYGBgYGBgYGBgYGBgYGBgYGBgYGBgYGBgYGBgYGBgYGBg
        YGBgYGBgYGBgYGBgYGBgYGBgYGBgYGBgc3RwNUAAAAAAAAAAAAAAAAAAAAAAAAAAAAAAAAAAAAAAAAAAAAAAAAAAAAAAAAAAAAAAAAAAAAAAAAAAAAAAAAAAAAAAAAAA
        cHJvZxICAABwcmdwIgAAABAgZAQAAQB/AH8AQAABAAEAAAAAAAAAAAB/AAAAAAAAAABwZ25tMAAAAFNlcSAyayBLcmFmdHdlcmszIChBK0MsIEYrQSkAAAAAJCq+X/9/
        AAD08FElAQAAAHN0cDBAAAAAAAAAAAAA+wAAAPsAAAAAAAAAAAACAAAAAAAAAAAA+wAAAAAAAAAAAAAAAAAAAAAAAAAAAAAAAAAAAAAAAAAAAHN0cDFAAAAACAgICAgI
        CAgICAgICAgICAgICAgICAgICAgICAgICAgICAgICAgICAgICAgICAgICAgICAgICAgICAgICAgICHN0cDJAAAAAAQAAAAEAAQABAAEAAAABAAEAAAABAAEAAAAAAAAA
        AQABAQEBAQEBAQEBAQEBAQEBAQEBAQEBAQEBAQEBAQEBAXN0cDNAAAAABAQEBAQEBAQEBAQEBAQEBAgEBAQEBAQEBAQEBAQEBAQEBAQEBAQEBAQEBAQEBAQEBAQEBAQE
        BAQEBAQEBAQEBHN0cDRAAAAAYGBgYGBgYGBgYGBgYGBgYGBgYGBgYGBgYGBgYGBgYGBgYGBgYGBgYGBgYGBgYGBgYGBgYGBgYGBgYGBgYGBgYHN0cDVAAAAAAAAAAAAA
        AAAAAAAAAAAAAAAAAAAAAAAAAAAAAAAAAAAAAAAAAAAAAAAAAAAAAAAAAAAAAAAAAAAAAAAAAAAAAHByb2cSAgAAcHJncCIAAAAQIGQEAAEAfwB/AEAAAQABAAAAAAAA
        AAAAfwAAAAAAAAAAcGdubTAAAABTZXEgMmsgS3JhZnR3ZXJrMyAoQStDLCBGK0EpAAAAACQqvl//fwAA9PBRJQEAAABzdHAwQAAAAAAAAAAAAPsAAAD7AAAAAAAAAAAA
        AgAAAAAAAAAAAPsAAAAAAAAAAAAAAAAAAAAAAAAAAAAAAAAAAAAAAAAAAABzdHAxQAAAAAgICAgICAgICAgICAgICAgICAgICAgICAgICAgICAgICAgICAgICAgICAgI
        CAgICAgICAgICAgICAgICAgICAhzdHAyQAAAAAEAAAABAAEAAQABAAAAAQABAAAAAQABAAAAAAAAAAEAAQEBAQEBAQEBAQEBAQEBAQEBAQEBAQEBAQEBAQEBAQFzdHAz
        QAAAAAQEBAQEBAQEBAQEBAQEBAQIBAQEBAQEBAQEBAQEBAQEBAQEBAQEBAQEBAQEBAQEBAQEBAQEBAQEBAQEBAQEBARzdHA0QAAAAGBgYGBgYGBgYGBgYGBgYGBgYGBg
        YGBgYGBgYGBgYGBgYGBgYGBgYGBgYGBgYGBgYGBgYGBgYGBgYGBgYGBgYGBzdHA1QAAAAAAAAAAAAAAAAAAAAAAAAAAAAAAAAAAAAAAAAAAAAAAAAAAAAAAAAAAAAAAA
        AAAAAAAAAAAAAAAAAAAAAAAAAABwcm9nEgIAAHByZ3AiAAAAECBkBAABAH8AfwBAAAEAAQAAAAAAAAAAAH8AAAAAAAAAAHBnbm0wAAAAU2VxIDJrIEtyYWZ0d2VyazMg
        KEErQywgRitBKQAAAAAkKr5f/38AAPTwUSUBAAAAc3RwMEAAAAAAAAAAAAD7AAAA+wAAAAAAAAAAAAIAAAAAAAAAAAD7AAAAAAAAAAAAAAAAAAAAAAAAAAAAAAAAAAAA
        AAAAAAAAc3RwMUAAAAAICAgICAgICAgICAgICAgICAgICAgICAgICAgICAgICAgICAgICAgICAgICAgICAgICAgICAgICAgICAgICAgIc3RwMkAAAAABAAAAAQABAAEA
        AQAAAAEAAQAAAAEAAQAAAAAAAAABAAEBAQEBAQEBAQEBAQEBAQEBAQEBAQEBAQEBAQEBAQEBc3RwM0AAAAAEBAQEBAQEBAQEBAQEBAQECAQEBAQEBAQEBAQEBAQEBAQE
        BAQEBAQEBAQEBAQEBAQEBAQEBAQEBAQEBAQEBAQEc3RwNEAAAABgYGBgYGBgYGBgYGBgYGBgYGBgYGBgYGBgYGBgYGBgYGBgYGBgYGBgYGBgYGBgYGBgYGBgYGBgYGBg
        YGBgYGBgc3RwNUAAAAAAAAAAAAAAAAAAAAAAAAAAAAAAAAAAAAAAAAAAAAAAAAAAAAAAAAAAAAAAAAAAAAAAAAAAAAAAAAAAAAAAAAAAcHJvZxICAABwcmdwIgAAABAg
        ZAQAAQB/AH8AQAABAAEAAAAAAAAAAAB/AAAAAAAAAABwZ25tMAAAAFNlcSAyayBLcmFmdHdlcmszIChBK0MsIEYrQSkAAAAAJCq+X/9/AAD08FElAQAAAHN0cDBAAAAA
        AAAAAAAA+wAAAPsAAAAAAAAAAAACAAAAAAAAAAAA+wAAAAAAAAAAAAAAAAAAAAAAAAAAAAAAAAAAAAAAAAAAAHN0cDFAAAAACAgICAgICAgICAgICAgICAgICAgICAgI
        CAgICAgICAgICAgICAgICAgICAgICAgICAgICAgICAgICAgICAgICHN0cDJAAAAAAQAAAAEAAQABAAEAAAABAAEAAAABAAEAAAAAAAAAAQABAQEBAQEBAQEBAQEBAQEB
        AQEBAQEBAQEBAQEBAQEBAXN0cDNAAAAABAQEBAQEBAQEBAQEBAQEBAgEBAQEBAQEBAQEBAQEBAQEBAQEBAQEBAQEBAQEBAQEBAQEBAQEBAQEBAQEBAQEBHN0cDRAAAAA
        YGBgYGBgYGBgYGBgYGBgYGBgYGBgYGBgYGBgYGBgYGBgYGBgYGBgYGBgYGBgYGBgYGBgYGBgYGBgYGBgYGBgYHN0cDVAAAAAAAAAAAAAAAAAAAAAAAAAAAAAAAAAAAAA
        AAAAAAAAAAAAAAAAAAAAAAAAAAAAAAAAAAAAAAAAAAAAAAAAAAAAAHByb2cSAgAAcHJncCIAAAAQIGQEAAEAfwB/AEAAAQABAAAAAAAAAAAAfwAAAAAAAAAAcGdubTAA
        AABTZXEgMmsgS3JhZnR3ZXJrMyAoQStDLCBGK0EpAAAAACQqvl//fwAA9PBRJQEAAABzdHAwQAAAAAAAAAAAAPsAAAD7AAAAAAAAAAAAAgAAAAAAAAAAAPsAAAAAAAAA
        AAAAAAAAAAAAAAAAAAAAAAAAAAAAAAAAAABzdHAxQAAAAAgICAgICAgICAgICAgICAgICAgICAgICAgICAgICAgICAgICAgICAgICAgICAgICAgICAgICAgICAgICAgI
        CAhzdHAyQAAAAAEAAAABAAEAAQABAAAAAQABAAAAAQABAAAAAAAAAAEAAQEBAQEBAQEBAQEBAQEBAQEBAQEBAQEBAQEBAQEBAQFzdHAzQAAAAAQEBAQEBAQEBAQEBAQE
        BAQIBAQEBAQEBAQEBAQEBAQEBAQEBAQEBAQEBAQEBAQEBAQEBAQEBAQEBAQEBAQEBARzdHA0QAAAAGBgYGBgYGBgYGBgYGBgYGBgYGBgYGBgYGBgYGBgYGBgYGBgYGBg
        YGBgYGBgYGBgYGBgYGBgYGBgYGBgYGBgYGBzdHA1QAAAAAAAAAAAAAAAAAAAAAAAAAAAAAAAAAAAAAAAAAAAAAAAAAAAAAAAAAAAAAAAAAAAAAAAAAAAAAAAAAAAAAAA
        AABwcm9nEgIAAHByZ3AiAAAAECBkBAABAH8AfwBAAAEAAQAAAAAAAAAAAH8AAAAAAAAAAHBnbm0wAAAAU2VxIDJrIEtyYWZ0d2VyazMgKEErQywgRitBKQAAAAAkKr5f
        /38AAPTwUSUBAAAAc3RwMEAAAAAAAAAAAAD7AAAA+wAAAAAAAAAAAAIAAAAAAAAAAAD7AAAAAAAAAAAAAAAAAAAAAAAAAAAAAAAAAAAAAAAAAAAAc3RwMUAAAAAICAgI
        CAgICAgICAgICAgICAgICAgICAgICAgICAgICAgICAgICAgICAgICAgICAgICAgICAgICAgICAgICAgIc3RwMkAAAAABAAAAAQABAAEAAQAAAAEAAQAAAAEAAQAAAAAA
        AAABAAEBAQEBAQEBAQEBAQEBAQEBAQEBAQEBAQEBAQEBAQEBc3RwM0AAAAAEBAQEBAQEBAQEBAQEBAQECAQEBAQEBAQEBAQEBAQEBAQEBAQEBAQEBAQEBAQEBAQEBAQE
        BAQEBAQEBAQEBAQEc3RwNEAAAABgYGBgYGBgYGBgYGBgYGBgYGBgYGBgYGBgYGBgYGBgYGBgYGBgYGBgYGBgYGBgYGBgYGBgYGBgYGBgYGBgYGBgc3RwNUAAAAAAAAAA
        AAAAAAAAAAAAAAAAAAAAAAAAAAAAAAAAAAAAAAAAAAAAAAAAAAAAAAAAAAAAAAAAAAAAAAAAAAAAAAAAcHJvZxICAABwcmdwIgAAABAgZAQAAQB/AH8AQAABAAEAAAAA
        AAAAAAB/AAAAAAAAAABwZ25tMAAAAFNlcSAyayBLcmFmdHdlcmszIChBK0MsIEYrQSkAAAAAJCq+X/9/AAD08FElAQAAAHN0cDBAAAAAAAAAAAAA+wAAAPsAAAAAAAAA
        AAACAAAAAAAAAAAA+wAAAAAAAAAAAAAAAAAAAAAAAAAAAAAAAAAAAAAAAAAAAHN0cDFAAAAACAgICAgICAgICAgICAgICAgICAgICAgICAgICAgICAgICAgICAgICAgI
        CAgICAgICAgICAgICAgICAgICAgICHN0cDJAAAAAAQAAAAEAAQABAAEAAAABAAEAAAABAAEAAAAAAAAAAQABAQEBAQEBAQEBAQEBAQEBAQEBAQEBAQEBAQEBAQEBAXN0
        cDNAAAAABAQEBAQEBAQEBAQEBAQEBAgEBAQEBAQEBAQEBAQEBAQEBAQEBAQEBAQEBAQEBAQEBAQEBAQEBAQEBAQEBAQEBHN0cDRAAAAAYGBgYGBgYGBgYGBgYGBgYGBg
        YGBgYGBgYGBgYGBgYGBgYGBgYGBgYGBgYGBgYGBgYGBgYGBgYGBgYGBgYGBgYHN0cDVAAAAAAAAAAAAAAAAAAAAAAAAAAAAAAAAAAAAAAAAAAAAAAAAAAAAAAAAAAAAA
        AAAAAAAAAAAAAAAAAAAAAAAAAAAAAHByb2cSAgAAcHJncCIAAAAQIGQEAAEAfwB/AEAAAQABAAAAAAAAAAAAfwAAAAAAAAAAcGdubTAAAABTZXEgMmsgS3JhZnR3ZXJr
        MyAoQStDLCBGK0EpAAAAACQqvl//fwAA9PBRJQEAAABzdHAwQAAAAAAAAAAAAPsAAAD7AAAAAAAAAAAAAgAAAAAAAAAAAPsAAAAAAAAAAAAAAAAAAAAAAAAAAAAAAAAA
        AAAAAAAAAABzdHAxQAAAAAgICAgICAgICAgICAgICAgICAgICAgICAgICAgICAgICAgICAgICAgICAgICAgICAgICAgICAgICAgICAgICAhzdHAyQAAAAAEAAAABAAEA
        AQABAAAAAQABAAAAAQABAAAAAAAAAAEAAQEBAQEBAQEBAQEBAQEBAQEBAQEBAQEBAQEBAQEBAQFzdHAzQAAAAAQEBAQEBAQEBAQEBAQEBAQIBAQEBAQEBAQEBAQEBAQE
        BAQEBAQEBAQEBAQEBAQEBAQEBAQEBAQEBAQEBAQEBARzdHA0QAAAAGBgYGBgYGBgYGBgYGBgYGBgYGBgYGBgYGBgYGBgYGBgYGBgYGBgYGBgYGBgYGBgYGBgYGBgYGBg
        YGBgYGBgYGBzdHA1QAAAAAAAAAAAAAAAAAAAAAAAAAAAAAAAAAAAAAAAAAAAAAAAAAAAAAAAAAAAAAAAAAAAAAAAAAAAAAAAAAAAAAAAAABwcm9nEgIAAHByZ3AiAAAA
        ECBkBAABAH8AfwBAAAEAAQAAAAAAAAAAAH8AAAAAAAAAAHBnbm0wAAAAU2VxIDJrIEtyYWZ0d2VyazMgKEErQywgRitBKQAAAAAkKr5f/38AAPTwUSUBAAAAc3RwMEAA
        AAAAAAAAAAD7AAAA+wAAAAAAAAAAAAIAAAAAAAAAAAD7AAAAAAAAAAAAAAAAAAAAAAAAAAAAAAAAAAAAAAAAAAAAc3RwMUAAAAAICAgICAgICAgICAgICAgICAgICAgI
        CAgICAgICAgICAgICAgICAgICAgICAgICAgICAgICAgICAgICAgICAgIc3RwMkAAAAABAAAAAQABAAEAAQAAAAEAAQAAAAEAAQAAAAAAAAABAAEBAQEBAQEBAQEBAQEB
        AQEBAQEBAQEBAQEBAQEBAQEBc3RwM0AAAAAEBAQEBAQEBAQEBAQEBAQECAQEBAQEBAQEBAQEBAQEBAQEBAQEBAQEBAQEBAQEBAQEBAQEBAQEBAQEBAQEBAQEc3RwNEAA
        AABgYGBgYGBgYGBgYGBgYGBgYGBgYGBgYGBgYGBgYGBgYGBgYGBgYGBgYGBgYGBgYGBgYGBgYGBgYGBgYGBgYGBgc3RwNUAAAAAAAAAAAAAAAAAAAAAAAAAAAAAAAAAA
        AAAAAAAAAAAAAAAAAAAAAAAAAAAAAAAAAAAAAAAAAAAAAAAAAAAAAAAAcHJvZxICAABwcmdwIgAAABAgZAQAAQB/AH8AQAABAAEAAAAAAAAAAAB/AAAAAAAAAABwZ25t
        MAAAAFNlcSAyayBLcmFmdHdlcmszIChBK0MsIEYrQSkAAAAAJCq+X/9/AAD08FElAQAAAHN0cDBAAAAAAAAAAAAA+wAAAPsAAAAAAAAAAAACAAAAAAAAAAAA+wAAAAAA
        AAAAAAAAAAAAAAAAAAAAAAAAAAAAAAAAAAAAAHN0cDFAAAAACAgICAgICAgICAgICAgICAgICAgICAgICAgICAgICAgICAgICAgICAgICAgICAgICAgICAgICAgICAgI
        CAgICHN0cDJAAAAAAQAAAAEAAQABAAEAAAABAAEAAAABAAEAAAAAAAAAAQABAQEBAQEBAQEBAQEBAQEBAQEBAQEBAQEBAQEBAQEBAXN0cDNAAAAABAQEBAQEBAQEBAQE
        BAQEBAgEBAQEBAQEBAQEBAQEBAQEBAQEBAQEBAQEBAQEBAQEBAQEBAQEBAQEBAQEBAQEBHN0cDRAAAAAYGBgYGBgYGBgYGBgYGBgYGBgYGBgYGBgYGBgYGBgYGBgYGBg
        YGBgYGBgYGBgYGBgYGBgYGBgYGBgYGBgYGBgYHN0cDVAAAAAAAAAAAAAAAAAAAAAAAAAAAAAAAAAAAAAAAAAAAAAAAAAAAAAAAAAAAAAAAAAAAAAAAAAAAAAAAAAAAAA
        AAAAAHByb2cSAgAAcHJncCIAAAAQIGQEAAEAfwB/AEAAAQABAAAAAAAAAAAAfwAAAAAAAAAAcGdubTAAAABTZXEgMmsgS3JhZnR3ZXJrMyAoQStDLCBGK0EpAAAAACQq
        vl//fwAA9PBRJQEAAABzdHAwQAAAAAAAAAAAAPsAAAD7AAAAAAAAAAAAAgAAAAAAAAAAAPsAAAAAAAAAAAAAAAAAAAAAAAAAAAAAAAAAAAAAAAAAAABzdHAxQAAAAAgI
        CAgICAgICAgICAgICAgICAgICAgICAgICAgICAgICAgICAgICAgICAgICAgICAgICAgICAgICAgICAgICAhzdHAyQAAAAAEAAAABAAEAAQABAAAAAQABAAAAAQABAAAA
        AAAAAAEAAQEBAQEBAQEBAQEBAQEBAQEBAQEBAQEBAQEBAQEBAQFzdHAzQAAAAAQEBAQEBAQEBAQEBAQEBAQIBAQEBAQEBAQEBAQEBAQEBAQEBAQEBAQEBAQEBAQEBAQE
        BAQEBAQEBAQEBAQEBARzdHA0QAAAAGBgYGBgYGBgYGBgYGBgYGBgYGBgYGBgYGBgYGBgYGBgYGBgYGBgYGBgYGBgYGBgYGBgYGBgYGBgYGBgYGBgYGBzdHA1QAAAAAAA
        AAAAAAAAAAAAAAAAAAAAAAAAAAAAAAAAAAAAAAAAAAAAAAAAAAAAAAAAAAAAAAAAAAAAAAAAAAAAAAAAAABwcm9nEgIAAHByZ3AiAAAAECBkBAABAH8AfwBAAAEAAQAA
        AAAAAAAAAH8AAAAAAAAAAHBnbm0wAAAAU2VxIDJrIEtyYWZ0d2VyazMgKEErQywgRitBKQAAAAAkKr5f/38AAPTwUSUBAAAAc3RwMEAAAAAAAAAAAAD7AAAA+wAAAAAA
        AAAAAAIAAAAAAAAAAAD7AAAAAAAAAAAAAAAAAAAAAAAAAAAAAAAAAAAAAAAAAAAAc3RwMUAAAAAICAgICAgICAgICAgICAgICAgICAgICAgICAgICAgICAgICAgICAgI
        CAgICAgICAgICAgICAgICAgICAgICAgIc3RwMkAAAAABAAAAAQABAAEAAQAAAAEAAQAAAAEAAQAAAAAAAAABAAEBAQEBAQEBAQEBAQEBAQEBAQEBAQEBAQEBAQEBAQEB
        c3RwM0AAAAAEBAQEBAQEBAQEBAQEBAQECAQEBAQEBAQEBAQEBAQEBAQEBAQEBAQEBAQEBAQEBAQEBAQEBAQEBAQEBAQEBAQEc3RwNEAAAABgYGBgYGBgYGBgYGBgYGBg
        YGBgYGBgYGBgYGBgYGBgYGBgYGBgYGBgYGBgYGBgYGBgYGBgYGBgYGBgYGBgYGBgc3RwNUAAAAAAAAAAAAAAAAAAAAAAAAAAAAAAAAAAAAAAAAAAAAAAAAAAAAAAAAAA
        AAAAAAAAAAAAAAAAAAAAAAAAAAAAAAAAcHJvZxICAABwcmdwIgAAABAgZAQAAQB/AH8AQAABAAEAAAAAAAAAAAB/AAAAAAAAAABwZ25tMAAAAFNlcSAyayBLcmFmdHdl
        cmszIChBK0MsIEYrQSkAAAAAJCq+X/9/AAD08FElAQAAAHN0cDBAAAAAAAAAAAAA+wAAAPsAAAAAAAAAAAACAAAAAAAAAAAA+wAAAAAAAAAAAAAAAAAAAAAAAAAAAAAA
        AAAAAAAAAAAAAHN0cDFAAAAACAgICAgICAgICAgICAgICAgICAgICAgICAgICAgICAgICAgICAgICAgICAgICAgICAgICAgICAgICAgICAgICHN0cDJAAAAAAQAAAAEA
        AQABAAEAAAABAAEAAAABAAEAAAAAAAAAAQABAQEBAQEBAQEBAQEBAQEBAQEBAQEBAQEBAQEBAQEBAXN0cDNAAAAABAQEBAQEBAQEBAQEBAQEBAgEBAQEBAQEBAQEBAQE
        BAQEBAQEBAQEBAQEBAQEBAQEBAQEBAQEBAQEBAQEBAQEBHN0cDRAAAAAYGBgYGBgYGBgYGBgYGBgYGBgYGBgYGBgYGBgYGBgYGBgYGBgYGBgYGBgYGBgYGBgYGBgYGBg
        YGBgYGBgYGBgYHN0cDVAAAAAAAAAAAAAAAAAAAAAAAAAAAAAAAAAAAAAAAAAAAAAAAAAAAAAAAAAAAAAAAAAAAAAAAAAAAAAAAAAAAAAAAAAAHByb2cSAgAAcHJncCIA
        AAAQIGQEAAEAfwB/AEAAAQABAAAAAAAAAAAAfwAAAAAAAAAAcGdubTAAAABTZXEgMmsgS3JhZnR3ZXJrMyAoQStDLCBGK0EpAAAAACQqvl//fwAA9PBRJQEAAABzdHAw
        QAAAAAAAAAAAAPsAAAD7AAAAAAAAAAAAAgAAAAAAAAAAAPsAAAAAAAAAAAAAAAAAAAAAAAAAAAAAAAAAAAAAAAAAAABzdHAxQAAAAAgICAgICAgICAgICAgICAgICAgI
        CAgICAgICAgICAgICAgICAgICAgICAgICAgICAgICAgICAgICAgICAgICAhzdHAyQAAAAAEAAAABAAEAAQABAAAAAQABAAAAAQABAAAAAAAAAAEAAQEBAQEBAQEBAQEB
        AQEBAQEBAQEBAQEBAQEBAQEBAQFzdHAzQAAAAAQEBAQEBAQEBAQEBAQEBAQIBAQEBAQEBAQEBAQEBAQEBAQEBAQEBAQEBAQEBAQEBAQEBAQEBAQEBAQEBAQEBARzdHA0
        QAAAAGBgYGBgYGBgYGBgYGBgYGBgYGBgYGBgYGBgYGBgYGBgYGBgYGBgYGBgYGBgYGBgYGBgYGBgYGBgYGBgYGBgYGBzdHA1QAAAAAAAAAAAAAAAAAAAAAAAAAAAAAAA
        AAAAAAAAAAAAAAAAAAAAAAAAAAAAAAAAAAAAAAAAAAAAAAAAAAAAAAAAAABwcm9nEgIAAHByZ3AiAAAAECBkBAABAH8AfwBAAAEAAQAAAAAAAAAAAH8AAAAAAAAAAHBn
        bm0wAAAAU2VxIDJrIEtyYWZ0d2VyazMgKEErQywgRitBKQAAAAAkKr5f/38AAPTwUSUBAAAAc3RwMEAAAAAAAAAAAAD7AAAA+wAAAAAAAAAAAAIAAAAAAAAAAAD7AAAA
        AAAAAAAAAAAAAAAAAAAAAAAAAAAAAAAAAAAAAAAAc3RwMUAAAAAICAgICAgICAgICAgICAgICAgICAgICAgICAgICAgICAgICAgICAgICAgICAgICAgICAgICAgICAgI
        CAgICAgIc3RwMkAAAAABAAAAAQABAAEAAQAAAAEAAQAAAAEAAQAAAAAAAAABAAEBAQEBAQEBAQEBAQEBAQEBAQEBAQEBAQEBAQEBAQEBc3RwM0AAAAAEBAQEBAQEBAQE
        BAQEBAQECAQEBAQEBAQEBAQEBAQEBAQEBAQEBAQEBAQEBAQEBAQEBAQEBAQEBAQEBAQEBAQEc3RwNEAAAABgYGBgYGBgYGBgYGBgYGBgYGBgYGBgYGBgYGBgYGBgYGBg
        YGBgYGBgYGBgYGBgYGBgYGBgYGBgYGBgYGBgYGBgc3RwNUAAAAAAAAAAAAAAAAAAAAAAAAAAAAAAAAAAAAAAAAAAAAAAAAAAAAAAAAAAAAAAAAAAAAAAAAAAAAAAAAAA
        AAAAAAAAcHJvZxICAABwcmdwIgAAABAgZAQAAQB/AH8AQAABAAEAAAAAAAAAAAB/AAAAAAAAAABwZ25tMAAAAFNlcSAyayBLcmFmdHdlcmszIChBK0MsIEYrQSkAAAAA
        JCq+X/9/AAD08FElAQAAAHN0cDBAAAAAAAAAAAAA+wAAAPsAAAAAAAAAAAACAAAAAAAAAAAA+wAAAAAAAAAAAAAAAAAAAAAAAAAAAAAAAAAAAAAAAAAAAHN0cDFAAAAA
        CAgICAgICAgICAgICAgICAgICAgICAgICAgICAgICAgICAgICAgICAgICAgICAgICAgICAgICAgICAgICAgICHN0cDJAAAAAAQAAAAEAAQABAAEAAAABAAEAAAABAAEA
        AAAAAAAAAQABAQEBAQEBAQEBAQEBAQEBAQEBAQEBAQEBAQEBAQEBAXN0cDNAAAAABAQEBAQEBAQEBAQEBAQEBAgEBAQEBAQEBAQEBAQEBAQEBAQEBAQEBAQEBAQEBAQE
        BAQEBAQEBAQEBAQEBAQEBHN0cDRAAAAAYGBgYGBgYGBgYGBgYGBgYGBgYGBgYGBgYGBgYGBgYGBgYGBgYGBgYGBgYGBgYGBgYGBgYGBgYGBgYGBgYGBgYHN0cDVAAAAA
        AAAAAAAAAAAAAAAAAAAAAAAAAAAAAAAAAAAAAAAAAAAAAAAAAAAAAAAAAAAAAAAAAAAAAAAAAAAAAAAAAAAAAHByb2cSAgAAcHJncCIAAAAQIGQEAAEAfwB/AEAAAQAB
        AAAAAAAAAAAAfwAAAAAAAAAAcGdubTAAAABTZXEgMmsgS3JhZnR3ZXJrMyAoQStDLCBGK0EpAAAAACQqvl//fwAA9PBRJQEAAABzdHAwQAAAAAAAAAAAAPsAAAD7AAAA
        AAAAAAAAAgAAAAAAAAAAAPsAAAAAAAAAAAAAAAAAAAAAAAAAAAAAAAAAAAAAAAAAAABzdHAxQAAAAAgICAgICAgICAgICAgICAgICAgICAgICAgICAgICAgICAgICAgI
        CAgICAgICAgICAgICAgICAgICAgICAgICAhzdHAyQAAAAAEAAAABAAEAAQABAAAAAQABAAAAAQABAAAAAAAAAAEAAQEBAQEBAQEBAQEBAQEBAQEBAQEBAQEBAQEBAQEB
        AQFzdHAzQAAAAAQEBAQEBAQEBAQEBAQEBAQIBAQEBAQEBAQEBAQEBAQEBAQEBAQEBAQEBAQEBAQEBAQEBAQEBAQEBAQEBAQEBARzdHA0QAAAAGBgYGBgYGBgYGBgYGBg
        YGBgYGBgYGBgYGBgYGBgYGBgYGBgYGBgYGBgYGBgYGBgYGBgYGBgYGBgYGBgYGBgYGBzdHA1QAAAAAAAAAAAAAAAAAAAAAAAAAAAAAAAAAAAAAAAAAAAAAAAAAAAAAAA
        AAAAAAAAAAAAAAAAAAAAAAAAAAAAAAAAAABwcm9nEgIAAHByZ3AiAAAAECBkBAABAH8AfwBAAAEAAQAAAAAAAAAAAH8AAAAAAAAAAHBnbm0wAAAAU2VxIDJrIEtyYWZ0
        d2VyazMgKEErQywgRitBKQAAAAAkKr5f/38AAPTwUSUBAAAAc3RwMEAAAAAAAAAAAAD7AAAA+wAAAAAAAAAAAAIAAAAAAAAAAAD7AAAAAAAAAAAAAAAAAAAAAAAAAAAA
        AAAAAAAAAAAAAAAAc3RwMUAAAAAICAgICAgICAgICAgICAgICAgICAgICAgICAgICAgICAgICAgICAgICAgICAgICAgICAgICAgICAgICAgICAgIc3RwMkAAAAABAAAA
        AQABAAEAAQAAAAEAAQAAAAEAAQAAAAAAAAABAAEBAQEBAQEBAQEBAQEBAQEBAQEBAQEBAQEBAQEBAQEBc3RwM0AAAAAEBAQEBAQEBAQEBAQEBAQECAQEBAQEBAQEBAQE
        BAQEBAQEBAQEBAQEBAQEBAQEBAQEBAQEBAQEBAQEBAQEBAQEc3RwNEAAAABgYGBgYGBgYGBgYGBgYGBgYGBgYGBgYGBgYGBgYGBgYGBgYGBgYGBgYGBgYGBgYGBgYGBg
        YGBgYGBgYGBgYGBgc3RwNUAAAAAAAAAAAAAAAAAAAAAAAAAAAAAAAAAAAAAAAAAAAAAAAAAAAAAAAAAAAAAAAAAAAAAAAAAAAAAAAAAAAAAAAAAAcHJvZxICAABwcmdw
        IgAAABAgZAQAAQB/AH8AQAABAAEAAAAAAAAAAAB/AAAAAAAAAABwZ25tMAAAAFNlcSAyayBLcmFmdHdlcmszIChBK0MsIEYrQSkAAAAAJCq+X/9/AAD08FElAQAAAHN0
        cDBAAAAAAAAAAAAA+wAAAPsAAAAAAAAAAAACAAAAAAAAAAAA+wAAAAAAAAAAAAAAAAAAAAAAAAAAAAAAAAAAAAAAAAAAAHN0cDFAAAAACAgICAgICAgICAgICAgICAgI
        CAgICAgICAgICAgICAgICAgICAgICAgICAgICAgICAgICAgICAgICAgICAgICHN0cDJAAAAAAQAAAAEAAQABAAEAAAABAAEAAAABAAEAAAAAAAAAAQABAQEBAQEBAQEB
        AQEBAQEBAQEBAQEBAQEBAQEBAQEBAXN0cDNAAAAABAQEBAQEBAQEBAQEBAQEBAgEBAQEBAQEBAQEBAQEBAQEBAQEBAQEBAQEBAQEBAQEBAQEBAQEBAQEBAQEBAQEBHN0
        cDRAAAAAYGBgYGBgYGBgYGBgYGBgYGBgYGBgYGBgYGBgYGBgYGBgYGBgYGBgYGBgYGBgYGBgYGBgYGBgYGBgYGBgYGBgYHN0cDVAAAAAAAAAAAAAAAAAAAAAAAAAAAAA
        AAAAAAAAAAAAAAAAAAAAAAAAAAAAAAAAAAAAAAAAAAAAAAAAAAAAAAAAAAAAAHByb2cSAgAAcHJncCIAAAAQIGQEAAEAfwB/AEAAAQABAAAAAAAAAAAAfwAAAAAAAAAA
        cGdubTAAAABTZXEgMmsgS3JhZnR3ZXJrMyAoQStDLCBGK0EpAAAAACQqvl//fwAA9PBRJQEAAABzdHAwQAAAAAAAAAAAAPsAAAD7AAAAAAAAAAAAAgAAAAAAAAAAAPsA
        AAAAAAAAAAAAAAAAAAAAAAAAAAAAAAAAAAAAAAAAAABzdHAxQAAAAAgICAgICAgICAgICAgICAgICAgICAgICAgICAgICAgICAgICAgICAgICAgICAgICAgICAgICAgI
        CAgICAgICAhzdHAyQAAAAAEAAAABAAEAAQABAAAAAQABAAAAAQABAAAAAAAAAAEAAQEBAQEBAQEBAQEBAQEBAQEBAQEBAQEBAQEBAQEBAQFzdHAzQAAAAAQEBAQEBAQE
        BAQEBAQEBAQIBAQEBAQEBAQEBAQEBAQEBAQEBAQEBAQEBAQEBAQEBAQEBAQEBAQEBAQEBAQEBARzdHA0QAAAAGBgYGBgYGBgYGBgYGBgYGBgYGBgYGBgYGBgYGBgYGBg
        YGBgYGBgYGBgYGBgYGBgYGBgYGBgYGBgYGBgYGBgYGBzdHA1QAAAAAAAAAAAAAAAAAAAAAAAAAAAAAAAAAAAAAAAAAAAAAAAAAAAAAAAAAAAAAAAAAAAAAAAAAAAAAAA
        AAAAAAAAAABwcm9nEgIAAHByZ3AiAAAAECBkBAABAH8AfwBAAAEAAQAAAAAAAAAAAH8AAAAAAAAAAHBnbm0wAAAAU2VxIDJrIEtyYWZ0d2VyazMgKEErQywgRitBKQAA
        AAAkKr5f/38AAPTwUSUBAAAAc3RwMEAAAAAAAAAAAAD7AAAA+wAAAAAAAAAAAAIAAAAAAAAAAAD7AAAAAAAAAAAAAAAAAAAAAAAAAAAAAAAAAAAAAAAAAAAAc3RwMUAA
        AAAICAgICAgICAgICAgICAgICAgICAgICAgICAgICAgICAgICAgICAgICAgICAgICAgICAgICAgICAgICAgICAgIc3RwMkAAAAABAAAAAQABAAEAAQAAAAEAAQAAAAEA
        AQAAAAAAAAABAAEBAQEBAQEBAQEBAQEBAQEBAQEBAQEBAQEBAQEBAQEBc3RwM0AAAAAEBAQEBAQEBAQEBAQEBAQECAQEBAQEBAQEBAQEBAQEBAQEBAQEBAQEBAQEBAQE
        BAQEBAQEBAQEBAQEBAQEBAQEc3RwNEAAAABgYGBgYGBgYGBgYGBgYGBgYGBgYGBgYGBgYGBgYGBgYGBgYGBgYGBgYGBgYGBgYGBgYGBgYGBgYGBgYGBgYGBgc3RwNUAA
        AAAAAAAAAAAAAAAAAAAAAAAAAAAAAAAAAAAAAAAAAAAAAAAAAAAAAAAAAAAAAAAAAAAAAAAAAAAAAAAAAAAAAAAAcHJvZxICAABwcmdwIgAAABAgZAQAAQB/AH8AQAAB
        AAEAAAAAAAAAAAB/AAAAAAAAAABwZ25tMAAAAFNlcSAyayBLcmFmdHdlcmszIChBK0MsIEYrQSkAAAAAJCq+X/9/AAD08FElAQAAAHN0cDBAAAAAAAAAAAAA+wAAAPsA
        AAAAAAAAAAACAAAAAAAAAAAA+wAAAAAAAAAAAAAAAAAAAAAAAAAAAAAAAAAAAAAAAAAAAHN0cDFAAAAACAgICAgICAgICAgICAgICAgICAgICAgICAgICAgICAgICAgI
        CAgICAgICAgICAgICAgICAgICAgICAgICAgICHN0cDJAAAAAAQAAAAEAAQABAAEAAAABAAEAAAABAAEAAAAAAAAAAQABAQEBAQEBAQEBAQEBAQEBAQEBAQEBAQEBAQEB
        AQEBAXN0cDNAAAAABAQEBAQEBAQEBAQEBAQEBAgEBAQEBAQEBAQEBAQEBAQEBAQEBAQEBAQEBAQEBAQEBAQEBAQEBAQEBAQEBAQEBHN0cDRAAAAAYGBgYGBgYGBgYGBg
        YGBgYGBgYGBgYGBgYGBgYGBgYGBgYGBgYGBgYGBgYGBgYGBgYGBgYGBgYGBgYGBgYGBgYHN0cDVAAAAAAAAAAAAAAAAAAAAAAAAAAAAAAAAAAAAAAAAAAAAAAAAAAAAA
        AAAAAAAAAAAAAAAAAAAAAAAAAAAAAAAAAAAAAHByb2cSAgAAcHJncCIAAAAQIGQEAAEAfwB/AEAAAQABAAAAAAAAAAAAfwAAAAAAAAAAcGdubTAAAABTZXEgMmsgS3Jh
        ZnR3ZXJrMyAoQStDLCBGK0EpAAAAACQqvl//fwAA9PBRJQEAAABzdHAwQAAAAAAAAAAAAPsAAAD7AAAAAAAAAAAAAgAAAAAAAAAAAPsAAAAAAAAAAAAAAAAAAAAAAAAA
        AAAAAAAAAAAAAAAAAABzdHAxQAAAAAgICAgICAgICAgICAgICAgICAgICAgICAgICAgICAgICAgICAgICAgICAgICAgICAgICAgICAgICAgICAgICAhzdHAyQAAAAAEA
        AAABAAEAAQABAAAAAQABAAAAAQABAAAAAAAAAAEAAQEBAQEBAQEBAQEBAQEBAQEBAQEBAQEBAQEBAQEBAQFzdHAzQAAAAAQEBAQEBAQEBAQEBAQEBAQIBAQEBAQEBAQE
        BAQEBAQEBAQEBAQEBAQEBAQEBAQEBAQEBAQEBAQEBAQEBAQEBARzdHA0QAAAAGBgYGBgYGBgYGBgYGBgYGBgYGBgYGBgYGBgYGBgYGBgYGBgYGBgYGBgYGBgYGBgYGBg
        YGBgYGBgYGBgYGBgYGBzdHA1QAAAAAAAAAAAAAAAAAAAAAAAAAAAAAAAAAAAAAAAAAAAAAAAAAAAAAAAAAAAAAAAAAAAAAAAAAAAAAAAAAAAAAAAAABwcm9nEgIAAHBy
        Z3AiAAAAECBkBAABAH8AfwBAAAEAAQAAAAAAAAAAAH8AAAAAAAAAAHBnbm0wAAAAU2VxIDJrIEtyYWZ0d2VyazMgKEErQywgRitBKQAAAAAkKr5f/38AAPTwUSUBAAAA
        c3RwMEAAAAAAAAAAAAD7AAAA+wAAAAAAAAAAAAIAAAAAAAAAAAD7AAAAAAAAAAAAAAAAAAAAAAAAAAAAAAAAAAAAAAAAAAAAc3RwMUAAAAAICAgICAgICAgICAgICAgI
        CAgICAgICAgICAgICAgICAgICAgICAgICAgICAgICAgICAgICAgICAgICAgICAgIc3RwMkAAAAABAAAAAQABAAEAAQAAAAEAAQAAAAEAAQAAAAAAAAABAAEBAQEBAQEB
        AQEBAQEBAQEBAQEBAQEBAQEBAQEBAQEBc3RwM0AAAAAEBAQEBAQEBAQEBAQEBAQECAQEBAQEBAQEBAQEBAQEBAQEBAQEBAQEBAQEBAQEBAQEBAQEBAQEBAQEBAQEBAQE
        c3RwNEAAAABgYGBgYGBgYGBgYGBgYGBgYGBgYGBgYGBgYGBgYGBgYGBgYGBgYGBgYGBgYGBgYGBgYGBgYGBgYGBgYGBgYGBgc3RwNUAAAAAAAAAAAAAAAAAAAAAAAAAA
        AAAAAAAAAAAAAAAAAAAAAAAAAAAAAAAAAAAAAAAAAAAAAAAAAAAAAAAAAAAAAAAAcHJvZxICAABwcmdwIgAAABAgZAQAAQB/AH8AQAABAAEAAAAAAAAAAAB/AAAAAAAA
        AABwZ25tMAAAAFNlcSAyayBLcmFmdHdlcmszIChBK0MsIEYrQSkAAAAAJCq+X/9/AAD08FElAQAAAHN0cDBAAAAAAAAAAAAA+wAAAPsAAAAAAAAAAAACAAAAAAAAAAAA
        +wAAAAAAAAAAAAAAAAAAAAAAAAAAAAAAAAAAAAAAAAAAAHN0cDFAAAAACAgICAgICAgICAgICAgICAgICAgICAgICAgICAgICAgICAgICAgICAgICAgICAgICAgICAgI
        CAgICAgICAgICHN0cDJAAAAAAQAAAAEAAQABAAEAAAABAAEAAAABAAEAAAAAAAAAAQABAQEBAQEBAQEBAQEBAQEBAQEBAQEBAQEBAQEBAQEBAXN0cDNAAAAABAQEBAQE
        BAQEBAQEBAQEBAgEBAQEBAQEBAQEBAQEBAQEBAQEBAQEBAQEBAQEBAQEBAQEBAQEBAQEBAQEBAQEBHN0cDRAAAAAYGBgYGBgYGBgYGBgYGBgYGBgYGBgYGBgYGBgYGBg
        YGBgYGBgYGBgYGBgYGBgYGBgYGBgYGBgYGBgYGBgYGBgYHN0cDVAAAAAAAAAAAAAAAAAAAAAAAAAAAAAAAAAAAAAAAAAAAAAAAAAAAAAAAAAAAAAAAAAAAAAAAAAAAAA
        AAAAAAAAAAAAAHByb2cSAgAAcHJncCIAAAAQIGQEAAEAfwB/AEAAAQABAAAAAAAAAAAAfwAAAAAAAAAAcGdubTAAAABTZXEgMmsgS3JhZnR3ZXJrMyAoQStDLCBGK0Ep
        AAAAACQqvl//fwAA9PBRJQEAAABzdHAwQAAAAAAAAAAAAPsAAAD7AAAAAAAAAAAAAgAAAAAAAAAAAPsAAAAAAAAAAAAAAAAAAAAAAAAAAAAAAAAAAAAAAAAAAABzdHAx
        QAAAAAgICAgICAgICAgICAgICAgICAgICAgICAgICAgICAgICAgICAgICAgICAgICAgICAgICAgICAgICAgICAgICAhzdHAyQAAAAAEAAAABAAEAAQABAAAAAQABAAAA
        AQABAAAAAAAAAAEAAQEBAQEBAQEBAQEBAQEBAQEBAQEBAQEBAQEBAQEBAQFzdHAzQAAAAAQEBAQEBAQEBAQEBAQEBAQIBAQEBAQEBAQEBAQEBAQEBAQEBAQEBAQEBAQE
        BAQEBAQEBAQEBAQEBAQEBAQEBARzdHA0QAAAAGBgYGBgYGBgYGBgYGBgYGBgYGBgYGBgYGBgYGBgYGBgYGBgYGBgYGBgYGBgYGBgYGBgYGBgYGBgYGBgYGBgYGBzdHA1
        QAAAAAAAAAAAAAAAAAAAAAAAAAAAAAAAAAAAAAAAAAAAAAAAAAAAAAAAAAAAAAAAAAAAAAAAAAAAAAAAAAAAAAAAAABwcm9nEgIAAHByZ3AiAAAAECBkBAABAH8AfwBA
        AAEAAQAAAAAAAAAAAH8AAAAAAAAAAHBnbm0wAAAAU2VxIDJrIEtyYWZ0d2VyazMgKEErQywgRitBKQAAAAAkKr5f/38AAPTwUSUBAAAAc3RwMEAAAAAAAAAAAAD7AAAA
        +wAAAAAAAAAAAAIAAAAAAAAAAAD7AAAAAAAAAAAAAAAAAAAAAAAAAAAAAAAAAAAAAAAAAAAAc3RwMUAAAAAICAgICAgICAgICAgICAgICAgICAgICAgICAgICAgICAgI
        CAgICAgICAgICAgICAgICAgICAgICAgICAgICAgIc3RwMkAAAAABAAAAAQABAAEAAQAAAAEAAQAAAAEAAQAAAAAAAAABAAEBAQEBAQEBAQEBAQEBAQEBAQEBAQEBAQEB
        AQEBAQEBc3RwM0AAAAAEBAQEBAQEBAQEBAQEBAQECAQEBAQEBAQEBAQEBAQEBAQEBAQEBAQEBAQEBAQEBAQEBAQEBAQEBAQEBAQEBAQEc3RwNEAAAABgYGBgYGBgYGBg
        YGBgYGBgYGBgYGBgYGBgYGBgYGBgYGBgYGBgYGBgYGBgYGBgYGBgYGBgYGBgYGBgYGBgYGBgc3RwNUAAAAAAAAAAAAAAAAAAAAAAAAAAAAAAAAAAAAAAAAAAAAAAAAAA
        AAAAAAAAAAAAAAAAAAAAAAAAAAAAAAAAAAAAAAAAcHJvZxICAABwcmdwIgAAABAgZAQAAQB/AH8AQAABAAEAAAAAAAAAAAB/AAAAAAAAAABwZ25tMAAAAFNlcSAyayBL
        cmFmdHdlcmszIChBK0MsIEYrQSkAAAAAJCq+X/9/AAD08FElAQAAAHN0cDBAAAAAAAAAAAAA+wAAAPsAAAAAAAAAAAACAAAAAAAAAAAA+wAAAAAAAAAAAAAAAAAAAAAA
        AAAAAAAAAAAAAAAAAAAAAHN0cDFAAAAACAgICAgICAgICAgICAgICAgICAgICAgICAgICAgICAgICAgICAgICAgICAgICAgICAgICAgICAgICAgICAgICHN0cDJAAAAA
        AQAAAAEAAQABAAEAAAABAAEAAAABAAEAAAAAAAAAAQABAQEBAQEBAQEBAQEBAQEBAQEBAQEBAQEBAQEBAQEBAXN0cDNAAAAABAQEBAQEBAQEBAQEBAQEBAgEBAQEBAQE
        BAQEBAQEBAQEBAQEBAQEBAQEBAQEBAQEBAQEBAQEBAQEBAQEBAQEBHN0cDRAAAAAYGBgYGBgYGBgYGBgYGBgYGBgYGBgYGBgYGBgYGBgYGBgYGBgYGBgYGBgYGBgYGBg
        YGBgYGBgYGBgYGBgYGBgYHN0cDVAAAAAAAAAAAAAAAAAAAAAAAAAAAAAAAAAAAAAAAAAAAAAAAAAAAAAAAAAAAAAAAAAAAAAAAAAAAAAAAAAAAAAAAAAAHByb2cSAgAA
        cHJncCIAAAAQIGQEAAEAfwB/AEAAAQABAAAAAAAAAAAAfwAAAAAAAAAAcGdubTAAAABTZXEgMmsgS3JhZnR3ZXJrMyAoQStDLCBGK0EpAAAAACQqvl//fwAA9PBRJQEA
        AABzdHAwQAAAAAAAAAAAAPsAAAD7AAAAAAAAAAAAAgAAAAAAAAAAAPsAAAAAAAAAAAAAAAAAAAAAAAAAAAAAAAAAAAAAAAAAAABzdHAxQAAAAAgICAgICAgICAgICAgI
        CAgICAgICAgICAgICAgICAgICAgICAgICAgICAgICAgICAgICAgICAgICAgICAgICAhzdHAyQAAAAAEAAAABAAEAAQABAAAAAQABAAAAAQABAAAAAAAAAAEAAQEBAQEB
        AQEBAQEBAQEBAQEBAQEBAQEBAQEBAQEBAQFzdHAzQAAAAAQEBAQEBAQEBAQEBAQEBAQIBAQEBAQEBAQEBAQEBAQEBAQEBAQEBAQEBAQEBAQEBAQEBAQEBAQEBAQEBAQE
        BARzdHA0QAAAAGBgYGBgYGBgYGBgYGBgYGBgYGBgYGBgYGBgYGBgYGBgYGBgYGBgYGBgYGBgYGBgYGBgYGBgYGBgYGBgYGBgYGBzdHA1QAAAAAAAAAAAAAAAAAAAAAAA
        AAAAAAAAAAAAAAAAAAAAAAAAAAAAAAAAAAAAAAAAAAAAAAAAAAAAAAAAAAAAAAAAAABwcm9nEgIAAHByZ3AiAAAAECBkBAABAH8AfwBAAAEAAQAAAAAAAAAAAH8AAAAA
        AAAAAHBnbm0wAAAAU2VxIDJrIEtyYWZ0d2VyazMgKEErQywgRitBKQAAAAAkKr5f/38AAPTwUSUBAAAAc3RwMEAAAAAAAAAAAAD7AAAA+wAAAAAAAAAAAAIAAAAAAAAA
        AAD7AAAAAAAAAAAAAAAAAAAAAAAAAAAAAAAAAAAAAAAAAAAAc3RwMUAAAAAICAgICAgICAgICAgICAgICAgICAgICAgICAgICAgICAgICAgICAgICAgICAgICAgICAgI
        CAgICAgICAgICAgIc3RwMkAAAAABAAAAAQABAAEAAQAAAAEAAQAAAAEAAQAAAAAAAAABAAEBAQEBAQEBAQEBAQEBAQEBAQEBAQEBAQEBAQEBAQEBc3RwM0AAAAAEBAQE
        BAQEBAQEBAQEBAQECAQEBAQEBAQEBAQEBAQEBAQEBAQEBAQEBAQEBAQEBAQEBAQEBAQEBAQEBAQEBAQEc3RwNEAAAABgYGBgYGBgYGBgYGBgYGBgYGBgYGBgYGBgYGBg
        YGBgYGBgYGBgYGBgYGBgYGBgYGBgYGBgYGBgYGBgYGBgYGBgc3RwNUAAAAAAAAAAAAAAAAAAAAAAAAAAAAAAAAAAAAAAAAAAAAAAAAAAAAAAAAAAAAAAAAAAAAAAAAAA
        AAAAAAAAAAAAAAAAcHJvZxICAABwcmdwIgAAABAgZAQAAQB/AH8AQAABAAEAAAAAAAAAAAB/AAAAAAAAAABwZ25tMAAAAFNlcSAyayBLcmFmdHdlcmszIChBK0MsIEYr
        QSkAAAAAJCq+X/9/AAD08FElAQAAAHN0cDBAAAAAAAAAAAAA+wAAAPsAAAAAAAAAAAACAAAAAAAAAAAA+wAAAAAAAAAAAAAAAAAAAAAAAAAAAAAAAAAAAAAAAAAAAHN0
        cDFAAAAACAgICAgICAgICAgICAgICAgICAgICAgICAgICAgICAgICAgICAgICAgICAgICAgICAgICAgICAgICAgICAgICHN0cDJAAAAAAQAAAAEAAQABAAEAAAABAAEA
        AAABAAEAAAAAAAAAAQABAQEBAQEBAQEBAQEBAQEBAQEBAQEBAQEBAQEBAQEBAXN0cDNAAAAABAQEBAQEBAQEBAQEBAQEBAgEBAQEBAQEBAQEBAQEBAQEBAQEBAQEBAQE
        BAQEBAQEBAQEBAQEBAQEBAQEBAQEBHN0cDRAAAAAYGBgYGBgYGBgYGBgYGBgYGBgYGBgYGBgYGBgYGBgYGBgYGBgYGBgYGBgYGBgYGBgYGBgYGBgYGBgYGBgYGBgYHN0
        cDVAAAAAAAAAAAAAAAAAAAAAAAAAAAAAAAAAAAAAAAAAAAAAAAAAAAAAAAAAAAAAAAAAAAAAAAAAAAAAAAAAAAAAAAAAAHByb2cSAgAAcHJncCIAAAAQIGQEAAEAfwB/
        AEAAAQABAAAAAAAAAAAAfwAAAAAAAAAAcGdubTAAAABTZXEgMmsgS3JhZnR3ZXJrMyAoQStDLCBGK0EpAAAAACQqvl//fwAA9PBRJQEAAABzdHAwQAAAAAAAAAAAAPsA
        AAD7AAAAAAAAAAAAAgAAAAAAAAAAAPsAAAAAAAAAAAAAAAAAAAAAAAAAAAAAAAAAAAAAAAAAAABzdHAxQAAAAAgICAgICAgICAgICAgICAgICAgICAgICAgICAgICAgI
        CAgICAgICAgICAgICAgICAgICAgICAgICAgICAgICAhzdHAyQAAAAAEAAAABAAEAAQABAAAAAQABAAAAAQABAAAAAAAAAAEAAQEBAQEBAQEBAQEBAQEBAQEBAQEBAQEB
        AQEBAQEBAQFzdHAzQAAAAAQEBAQEBAQEBAQEBAQEBAQIBAQEBAQEBAQEBAQEBAQEBAQEBAQEBAQEBAQEBAQEBAQEBAQEBAQEBAQEBAQEBARzdHA0QAAAAGBgYGBgYGBg
        YGBgYGBgYGBgYGBgYGBgYGBgYGBgYGBgYGBgYGBgYGBgYGBgYGBgYGBgYGBgYGBgYGBgYGBgYGBzdHA1QAAAAAAAAAAAAAAAAAAAAAAAAAAAAAAAAAAAAAAAAAAAAAAA
        AAAAAAAAAAAAAAAAAAAAAAAAAAAAAAAAAAAAAAAAAABwcm9nEgIAAHByZ3AiAAAAECBkBAABAH8AfwBAAAEAAQAAAAAAAAAAAH8AAAAAAAAAAHBnbm0wAAAAU2VxIDJr
        IEtyYWZ0d2VyazMgKEErQywgRitBKQAAAAAkKr5f/38AAPTwUSUBAAAAc3RwMEAAAAAAAAAAAAD7AAAA+wAAAAAAAAAAAAIAAAAAAAAAAAD7AAAAAAAAAAAAAAAAAAAA
        AAAAAAAAAAAAAAAAAAAAAAAAc3RwMUAAAAAICAgICAgICAgICAgICAgICAgICAgICAgICAgICAgICAgICAgICAgICAgICAgICAgICAgICAgICAgICAgICAgIc3RwMkAA
        AAABAAAAAQABAAEAAQAAAAEAAQAAAAEAAQAAAAAAAAABAAEBAQEBAQEBAQEBAQEBAQEBAQEBAQEBAQEBAQEBAQEBc3RwM0AAAAAEBAQEBAQEBAQEBAQEBAQECAQEBAQE
        BAQEBAQEBAQEBAQEBAQEBAQEBAQEBAQEBAQEBAQEBAQEBAQEBAQEBAQEc3RwNEAAAABgYGBgYGBgYGBgYGBgYGBgYGBgYGBgYGBgYGBgYGBgYGBgYGBgYGBgYGBgYGBg
        YGBgYGBgYGBgYGBgYGBgYGBgc3RwNUAAAAAAAAAAAAAAAAAAAAAAAAAAAAAAAAAAAAAAAAAAAAAAAAAAAAAAAAAAAAAAAAAAAAAAAAAAAAAAAAAAAAAAAAAAcHJvZxIC
        AABwcmdwIgAAABAgZAQAAQB/AH8AQAABAAEAAAAAAAAAAAB/AAAAAAAAAABwZ25tMAAAAFNlcSAyayBLcmFmdHdlcmszIChBK0MsIEYrQSkAAAAAJCq+X/9/AAD08FEl
        AQAAAHN0cDBAAAAAAAAAAAAA+wAAAPsAAAAAAAAAAAACAAAAAAAAAAAA+wAAAAAAAAAAAAAAAAAAAAAAAAAAAAAAAAAAAAAAAAAAAHN0cDFAAAAACAgICAgICAgICAgI
        CAgICAgICAgICAgICAgICAgICAgICAgICAgICAgICAgICAgICAgICAgICAgICAgICAgICHN0cDJAAAAAAQAAAAEAAQABAAEAAAABAAEAAAABAAEAAAAAAAAAAQABAQEB
        AQEBAQEBAQEBAQEBAQEBAQEBAQEBAQEBAQEBAXN0cDNAAAAABAQEBAQEBAQEBAQEBAQEBAgEBAQEBAQEBAQEBAQEBAQEBAQEBAQEBAQEBAQEBAQEBAQEBAQEBAQEBAQE
        BAQEBHN0cDRAAAAAYGBgYGBgYGBgYGBgYGBgYGBgYGBgYGBgYGBgYGBgYGBgYGBgYGBgYGBgYGBgYGBgYGBgYGBgYGBgYGBgYGBgYHN0cDVAAAAAAAAAAAAAAAAAAAAA
        AAAAAAAAAAAAAAAAAAAAAAAAAAAAAAAAAAAAAAAAAAAAAAAAAAAAAAAAAAAAAAAAAAAAAHByb2cSAgAAcHJncCIAAAAQIGQEAAEAfwB/AEAAAQABAAAAAAAAAAAAfwAA
        AAAAAAAAcGdubTAAAABTZXEgMmsgS3JhZnR3ZXJrMyAoQStDLCBGK0EpAAAAACQqvl//fwAA9PBRJQEAAABzdHAwQAAAAAAAAAAAAPsAAAD7AAAAAAAAAAAAAgAAAAAA
        AAAAAPsAAAAAAAAAAAAAAAAAAAAAAAAAAAAAAAAAAAAAAAAAAABzdHAxQAAAAAgICAgICAgICAgICAgICAgICAgICAgICAgICAgICAgICAgICAgICAgICAgICAgICAgI
        CAgICAgICAgICAgICAhzdHAyQAAAAAEAAAABAAEAAQABAAAAAQABAAAAAQABAAAAAAAAAAEAAQEBAQEBAQEBAQEBAQEBAQEBAQEBAQEBAQEBAQEBAQFzdHAzQAAAAAQE
        BAQEBAQEBAQEBAQEBAQIBAQEBAQEBAQEBAQEBAQEBAQEBAQEBAQEBAQEBAQEBAQEBAQEBAQEBAQEBAQEBARzdHA0QAAAAGBgYGBgYGBgYGBgYGBgYGBgYGBgYGBgYGBg
        YGBgYGBgYGBgYGBgYGBgYGBgYGBgYGBgYGBgYGBgYGBgYGBgYGBzdHA1QAAAAAAAAAAAAAAAAAAAAAAAAAAAAAAAAAAAAAAAAAAAAAAAAAAAAAAAAAAAAAAAAAAAAAAA
        AAAAAAAAAAAAAAAAAABwcm9nEgIAAHByZ3AiAAAAECBkBAABAH8AfwBAAAEAAQAAAAAAAAAAAH8AAAAAAAAAAHBnbm0wAAAAU2VxIDJrIEtyYWZ0d2VyazMgKEErQywg
        RitBKQAAAAAkKr5f/38AAPTwUSUBAAAAc3RwMEAAAAAAAAAAAAD7AAAA+wAAAAAAAAAAAAIAAAAAAAAAAAD7AAAAAAAAAAAAAAAAAAAAAAAAAAAAAAAAAAAAAAAAAAAA
        c3RwMUAAAAAICAgICAgICAgICAgICAgICAgICAgICAgICAgICAgICAgICAgICAgICAgICAgICAgICAgICAgICAgICAgICAgIc3RwMkAAAAABAAAAAQABAAEAAQAAAAEA
        AQAAAAEAAQAAAAAAAAABAAEBAQEBAQEBAQEBAQEBAQEBAQEBAQEBAQEBAQEBAQEBc3RwM0AAAAAEBAQEBAQEBAQEBAQEBAQECAQEBAQEBAQEBAQEBAQEBAQEBAQEBAQE
        BAQEBAQEBAQEBAQEBAQEBAQEBAQEBAQEc3RwNEAAAABgYGBgYGBgYGBgYGBgYGBgYGBgYGBgYGBgYGBgYGBgYGBgYGBgYGBgYGBgYGBgYGBgYGBgYGBgYGBgYGBgYGBg
        c3RwNUAAAAAAAAAAAAAAAAAAAAAAAAAAAAAAAAAAAAAAAAAAAAAAAAAAAAAAAAAAAAAAAAAAAAAAAAAAAAAAAAAAAAAAAAAAcHJvZxICAABwcmdwIgAAABAgZAQAAQB/
        AH8AQAABAAEAAAAAAAAAAAB/AAAAAAAAAABwZ25tMAAAAFNlcSAyayBLcmFmdHdlcmszIChBK0MsIEYrQSkAAAAAJCq+X/9/AAD08FElAQAAAHN0cDBAAAAAAAAAAAAA
        +wAAAPsAAAAAAAAAAAACAAAAAAAAAAAA+wAAAAAAAAAAAAAAAAAAAAAAAAAAAAAAAAAAAAAAAAAAAHN0cDFAAAAACAgICAgICAgICAgICAgICAgICAgICAgICAgICAgI
        CAgICAgICAgICAgICAgICAgICAgICAgICAgICAgICAgICHN0cDJAAAAAAQAAAAEAAQABAAEAAAABAAEAAAABAAEAAAAAAAAAAQABAQEBAQEBAQEBAQEBAQEBAQEBAQEB
        AQEBAQEBAQEBAXN0cDNAAAAABAQEBAQEBAQEBAQEBAQEBAgEBAQEBAQEBAQEBAQEBAQEBAQEBAQEBAQEBAQEBAQEBAQEBAQEBAQEBAQEBAQEBHN0cDRAAAAAYGBgYGBg
        YGBgYGBgYGBgYGBgYGBgYGBgYGBgYGBgYGBgYGBgYGBgYGBgYGBgYGBgYGBgYGBgYGBgYGBgYGBgYHN0cDVAAAAAAAAAAAAAAAAAAAAAAAAAAAAAAAAAAAAAAAAAAAAA
        AAAAAAAAAAAAAAAAAAAAAAAAAAAAAAAAAAAAAAAAAAAAAHByb2cSAgAAcHJncCIAAAAQIGQEAAEAfwB/AEAAAQABAAAAAAAAAAAAfwAAAAAAAAAAcGdubTAAAABTZXEg
        MmsgS3JhZnR3ZXJrMyAoQStDLCBGK0EpAAAAACQqvl//fwAA9PBRJQEAAABzdHAwQAAAAAAAAAAAAPsAAAD7AAAAAAAAAAAAAgAAAAAAAAAAAPsAAAAAAAAAAAAAAAAA
        AAAAAAAAAAAAAAAAAAAAAAAAAABzdHAxQAAAAAgICAgICAgICAgICAgICAgICAgICAgICAgICAgICAgICAgICAgICAgICAgICAgICAgICAgICAgICAgICAgICAhzdHAy
        QAAAAAEAAAABAAEAAQABAAAAAQABAAAAAQABAAAAAAAAAAEAAQEBAQEBAQEBAQEBAQEBAQEBAQEBAQEBAQEBAQEBAQFzdHAzQAAAAAQEBAQEBAQEBAQEBAQEBAQIBAQE
        BAQEBAQEBAQEBAQEBAQEBAQEBAQEBAQEBAQEBAQEBAQEBAQEBAQEBAQEBARzdHA0QAAAAGBgYGBgYGBgYGBgYGBgYGBgYGBgYGBgYGBgYGBgYGBgYGBgYGBgYGBgYGBg
        YGBgYGBgYGBgYGBgYGBgYGBgYGBzdHA1QAAAAAAAAAAAAAAAAAAAAAAAAAAAAAAAAAAAAAAAAAAAAAAAAAAAAAAAAAAAAAAAAAAAAAAAAAAAAAAAAAAAAAAAAABwcm9n
        EgIAAHByZ3AiAAAAECBkBAABAH8AfwBAAAEAAQAAAAAAAAAAAH8AAAAAAAAAAHBnbm0wAAAAU2VxIDJrIEtyYWZ0d2VyazMgKEErQywgRitBKQAAAAAkKr5f/38AAPTw
        USUBAAAAc3RwMEAAAAAAAAAAAAD7AAAA+wAAAAAAAAAAAAIAAAAAAAAAAAD7AAAAAAAAAAAAAAAAAAAAAAAAAAAAAAAAAAAAAAAAAAAAc3RwMUAAAAAICAgICAgICAgI
        CAgICAgICAgICAgICAgICAgICAgICAgICAgICAgICAgICAgICAgICAgICAgICAgICAgICAgIc3RwMkAAAAABAAAAAQABAAEAAQAAAAEAAQAAAAEAAQAAAAAAAAABAAEB
        AQEBAQEBAQEBAQEBAQEBAQEBAQEBAQEBAQEBAQEBc3RwM0AAAAAEBAQEBAQEBAQEBAQEBAQECAQEBAQEBAQEBAQEBAQEBAQEBAQEBAQEBAQEBAQEBAQEBAQEBAQEBAQE
        BAQEBAQEc3RwNEAAAABgYGBgYGBgYGBgYGBgYGBgYGBgYGBgYGBgYGBgYGBgYGBgYGBgYGBgYGBgYGBgYGBgYGBgYGBgYGBgYGBgYGBgc3RwNUAAAAAAAAAAAAAAAAAA
        AAAAAAAAAAAAAAAAAAAAAAAAAAAAAAAAAAAAAAAAAAAAAAAAAAAAAAAAAAAAAAAAAAAAAAAAcHJvZxICAABwcmdwIgAAABAgZAQAAQB/AH8AQAABAAEAAAAAAAAAAAB/
        AAAAAAAAAABwZ25tMAAAAFNlcSAyayBLcmFmdHdlcmszIChBK0MsIEYrQSkAAAAAJCq+X/9/AAD08FElAQAAAHN0cDBAAAAAAAAAAAAA+wAAAPsAAAAAAAAAAAACAAAA
        AAAAAAAA+wAAAAAAAAAAAAAAAAAAAAAAAAAAAAAAAAAAAAAAAAAAAHN0cDFAAAAACAgICAgICAgICAgICAgICAgICAgICAgICAgICAgICAgICAgICAgICAgICAgICAgI
        CAgICAgICAgICAgICAgICHN0cDJAAAAAAQAAAAEAAQABAAEAAAABAAEAAAABAAEAAAAAAAAAAQABAQEBAQEBAQEBAQEBAQEBAQEBAQEBAQEBAQEBAQEBAXN0cDNAAAAA
        BAQEBAQEBAQEBAQEBAQEBAgEBAQEBAQEBAQEBAQEBAQEBAQEBAQEBAQEBAQEBAQEBAQEBAQEBAQEBAQEBAQEBHN0cDRAAAAAYGBgYGBgYGBgYGBgYGBgYGBgYGBgYGBg
        YGBgYGBgYGBgYGBgYGBgYGBgYGBgYGBgYGBgYGBgYGBgYGBgYGBgYHN0cDVAAAAAAAAAAAAAAAAAAAAAAAAAAAAAAAAAAAAAAAAAAAAAAAAAAAAAAAAAAAAAAAAAAAAA
        AAAAAAAAAAAAAAAAAAAAAHByb2cSAgAAcHJncCIAAAAQIGQEAAEAfwB/AEAAAQABAAAAAAAAAAAAfwAAAAAAAAAAcGdubTAAAABTZXEgMmsgS3JhZnR3ZXJrMyAoQStD
        LCBGK0EpAAAAACQqvl//fwAA9PBRJQEAAABzdHAwQAAAAAAAAAAAAPsAAAD7AAAAAAAAAAAAAgAAAAAAAAAAAPsAAAAAAAAAAAAAAAAAAAAAAAAAAAAAAAAAAAAAAAAA
        AABzdHAxQAAAAAgICAgICAgICAgICAgICAgICAgICAgICAgICAgICAgICAgICAgICAgICAgICAgICAgICAgICAgICAgICAgICAhzdHAyQAAAAAEAAAABAAEAAQABAAAA
        AQABAAAAAQABAAAAAAAAAAEAAQEBAQEBAQEBAQEBAQEBAQEBAQEBAQEBAQEBAQEBAQFzdHAzQAAAAAQEBAQEBAQEBAQEBAQEBAQIBAQEBAQEBAQEBAQEBAQEBAQEBAQE
        BAQEBAQEBAQEBAQEBAQEBAQEBAQEBAQEBARzdHA0QAAAAGBgYGBgYGBgYGBgYGBgYGBgYGBgYGBgYGBgYGBgYGBgYGBgYGBgYGBgYGBgYGBgYGBgYGBgYGBgYGBgYGBg
        YGBzdHA1QAAAAAAAAAAAAAAAAAAAAAAAAAAAAAAAAAAAAAAAAAAAAAAAAAAAAAAAAAAAAAAAAAAAAAAAAAAAAAAAAAAAAAAAAABwcm9nEgIAAHByZ3AiAAAAECBkBAAB
        AH8AfwBAAAEAAQAAAAAAAAAAAH8AAAAAAAAAAHBnbm0wAAAAU2VxIDJrIEtyYWZ0d2VyazMgKEErQywgRitBKQAAAAAkKr5f/38AAPTwUSUBAAAAc3RwMEAAAAAAAAAA
        AAD7AAAA+wAAAAAAAAAAAAIAAAAAAAAAAAD7AAAAAAAAAAAAAAAAAAAAAAAAAAAAAAAAAAAAAAAAAAAAc3RwMUAAAAAICAgICAgICAgICAgICAgICAgICAgICAgICAgI
        CAgICAgICAgICAgICAgICAgICAgICAgICAgICAgICAgICAgIc3RwMkAAAAABAAAAAQABAAEAAQAAAAEAAQAAAAEAAQAAAAAAAAABAAEBAQEBAQEBAQEBAQEBAQEBAQEB
        AQEBAQEBAQEBAQEBc3RwM0AAAAAEBAQEBAQEBAQEBAQEBAQECAQEBAQEBAQEBAQEBAQEBAQEBAQEBAQEBAQEBAQEBAQEBAQEBAQEBAQEBAQEBAQEc3RwNEAAAABgYGBg
        YGBgYGBgYGBgYGBgYGBgYGBgYGBgYGBgYGBgYGBgYGBgYGBgYGBgYGBgYGBgYGBgYGBgYGBgYGBgYGBgc3RwNUAAAAAAAAAAAAAAAAAAAAAAAAAAAAAAAAAAAAAAAAAA
        AAAAAAAAAAAAAAAAAAAAAAAAAAAAAAAAAAAAAAAAAAAAAAAAcHJvZxICAABwcmdwIgAAABAgZAQAAQB/AH8AQAABAAEAAAAAAAAAAAB/AAAAAAAAAABwZ25tMAAAAFNl
        cSAyayBLcmFmdHdlcmszIChBK0MsIEYrQSkAAAAAJCq+X/9/AAD08FElAQAAAHN0cDBAAAAAAAAAAAAA+wAAAPsAAAAAAAAAAAACAAAAAAAAAAAA+wAAAAAAAAAAAAAA
        AAAAAAAAAAAAAAAAAAAAAAAAAAAAAHN0cDFAAAAACAgICAgICAgICAgICAgICAgICAgICAgICAgICAgICAgICAgICAgICAgICAgICAgICAgICAgICAgICAgICAgICHN0
        cDJAAAAAAQAAAAEAAQABAAEAAAABAAEAAAABAAEAAAAAAAAAAQABAQEBAQEBAQEBAQEBAQEBAQEBAQEBAQEBAQEBAQEBAXN0cDNAAAAABAQEBAQEBAQEBAQEBAQEBAgE
        BAQEBAQEBAQEBAQEBAQEBAQEBAQEBAQEBAQEBAQEBAQEBAQEBAQEBAQEBAQEBHN0cDRAAAAAYGBgYGBgYGBgYGBgYGBgYGBgYGBgYGBgYGBgYGBgYGBgYGBgYGBgYGBg
        YGBgYGBgYGBgYGBgYGBgYGBgYGBgYHN0cDVAAAAAAAAAAAAAAAAAAAAAAAAAAAAAAAAAAAAAAAAAAAAAAAAAAAAAAAAAAAAAAAAAAAAAAAAAAAAAAAAAAAAAAAAAAHBy
        b2cSAgAAcHJncCIAAAAQIGQEAAEAfwB/AEAAAQABAAAAAAAAAAAAfwAAAAAAAAAAcGdubTAAAABTZXEgMmsgS3JhZnR3ZXJrMyAoQStDLCBGK0EpAAAAACQqvl//fwAA
        9PBRJQEAAABzdHAwQAAAAAAAAAAAAPsAAAD7AAAAAAAAAAAAAgAAAAAAAAAAAPsAAAAAAAAAAAAAAAAAAAAAAAAAAAAAAAAAAAAAAAAAAABzdHAxQAAAAAgICAgICAgI
        CAgICAgICAgICAgICAgICAgICAgICAgICAgICAgICAgICAgICAgICAgICAgICAgICAgICAgICAhzdHAyQAAAAAEAAAABAAEAAQABAAAAAQABAAAAAQABAAAAAAAAAAEA
        AQEBAQEBAQEBAQEBAQEBAQEBAQEBAQEBAQEBAQEBAQFzdHAzQAAAAAQEBAQEBAQEBAQEBAQEBAQIBAQEBAQEBAQEBAQEBAQEBAQEBAQEBAQEBAQEBAQEBAQEBAQEBAQE
        BAQEBAQEBARzdHA0QAAAAGBgYGBgYGBgYGBgYGBgYGBgYGBgYGBgYGBgYGBgYGBgYGBgYGBgYGBgYGBgYGBgYGBgYGBgYGBgYGBgYGBgYGBzdHA1QAAAAAAAAAAAAAAA
        AAAAAAAAAAAAAAAAAAAAAAAAAAAAAAAAAAAAAAAAAAAAAAAAAAAAAAAAAAAAAAAAAAAAAAAAAABwcm9nEgIAAHByZ3AiAAAAECBkBAABAH8AfwBAAAEAAQAAAAAAAAAA
        AH8AAAAAAAAAAHBnbm0wAAAAU2VxIDJrIEtyYWZ0d2VyazMgKEErQywgRitBKQAAAAAkKr5f/38AAPTwUSUBAAAAc3RwMEAAAAAAAAAAAAD7AAAA+wAAAAAAAAAAAAIA
        AAAAAAAAAAD7AAAAAAAAAAAAAAAAAAAAAAAAAAAAAAAAAAAAAAAAAAAAc3RwMUAAAAAICAgICAgICAgICAgICAgICAgICAgICAgICAgICAgICAgICAgICAgICAgICAgI
        CAgICAgICAgICAgICAgICAgIc3RwMkAAAAABAAAAAQABAAEAAQAAAAEAAQAAAAEAAQAAAAAAAAABAAEBAQEBAQEBAQEBAQEBAQEBAQEBAQEBAQEBAQEBAQEBc3RwM0AA
        AAAEBAQEBAQEBAQEBAQEBAQECAQEBAQEBAQEBAQEBAQEBAQEBAQEBAQEBAQEBAQEBAQEBAQEBAQEBAQEBAQEBAQEc3RwNEAAAABgYGBgYGBgYGBgYGBgYGBgYGBgYGBg
        YGBgYGBgYGBgYGBgYGBgYGBgYGBgYGBgYGBgYGBgYGBgYGBgYGBgYGBgc3RwNUAAAAAAAAAAAAAAAAAAAAAAAAAAAAAAAAAAAAAAAAAAAAAAAAAAAAAAAAAAAAAAAAAA
        AAAAAAAAAAAAAAAAAAAAAAAAcHJvZxICAABwcmdwIgAAABAgZAQAAQB/AH8AQAABAAEAAAAAAAAAAAB/AAAAAAAAAABwZ25tMAAAAFNlcSAyayBLcmFmdHdlcmszIChB
        K0MsIEYrQSkAAAAAJCq+X/9/AAD08FElAQAAAHN0cDBAAAAAAAAAAAAA+wAAAPsAAAAAAAAAAAACAAAAAAAAAAAA+wAAAAAAAAAAAAAAAAAAAAAAAAAAAAAAAAAAAAAA
        AAAAAHN0cDFAAAAACAgICAgICAgICAgICAgICAgICAgICAgICAgICAgICAgICAgICAgICAgICAgICAgICAgICAgICAgICAgICAgICHN0cDJAAAAAAQAAAAEAAQABAAEA
        AAABAAEAAAABAAEAAAAAAAAAAQABAQEBAQEBAQEBAQEBAQEBAQEBAQEBAQEBAQEBAQEBAXN0cDNAAAAABAQEBAQEBAQEBAQEBAQEBAgEBAQEBAQEBAQEBAQEBAQEBAQE
        BAQEBAQEBAQEBAQEBAQEBAQEBAQEBAQEBAQEBHN0cDRAAAAAYGBgYGBgYGBgYGBgYGBgYGBgYGBgYGBgYGBgYGBgYGBgYGBgYGBgYGBgYGBgYGBgYGBgYGBgYGBgYGBg
        YGBgYHN0cDVAAAAAAAAAAAAAAAAAAAAAAAAAAAAAAAAAAAAAAAAAAAAAAAAAAAAAAAAAAAAAAAAAAAAAAAAAAAAAAAAAAAAAAAAAAHByb2cSAgAAcHJncCIAAAAQIGQE
        AAEAfwB/AEAAAQABAAAAAAAAAAAAfwAAAAAAAAAAcGdubTAAAABTZXEgMmsgS3JhZnR3ZXJrMyAoQStDLCBGK0EpAAAAACQqvl//fwAA9PBRJQEAAABzdHAwQAAAAAAA
        AAAAAPsAAAD7AAAAAAAAAAAAAgAAAAAAAAAAAPsAAAAAAAAAAAAAAAAAAAAAAAAAAAAAAAAAAAAAAAAAAABzdHAxQAAAAAgICAgICAgICAgICAgICAgICAgICAgICAgI
        CAgICAgICAgICAgICAgICAgICAgICAgICAgICAgICAgICAgICAhzdHAyQAAAAAEAAAABAAEAAQABAAAAAQABAAAAAQABAAAAAAAAAAEAAQEBAQEBAQEBAQEBAQEBAQEB
        AQEBAQEBAQEBAQEBAQFzdHAzQAAAAAQEBAQEBAQEBAQEBAQEBAQIBAQEBAQEBAQEBAQEBAQEBAQEBAQEBAQEBAQEBAQEBAQEBAQEBAQEBAQEBAQEBARzdHA0QAAAAGBg
        YGBgYGBgYGBgYGBgYGBgYGBgYGBgYGBgYGBgYGBgYGBgYGBgYGBgYGBgYGBgYGBgYGBgYGBgYGBgYGBgYGBzdHA1QAAAAAAAAAAAAAAAAAAAAAAAAAAAAAAAAAAAAAAA
        AAAAAAAAAAAAAAAAAAAAAAAAAAAAAAAAAAAAAAAAAAAAAAAAAABwcm9nEgIAAHByZ3AiAAAAECBkBAABAH8AfwBAAAEAAQAAAAAAAAAAAH8AAAAAAAAAAHBnbm0wAAAA
        U2VxIDJrIEtyYWZ0d2VyazMgKEErQywgRitBKQAAAAAkKr5f/38AAPTwUSUBAAAAc3RwMEAAAAAAAAAAAAD7AAAA+wAAAAAAAAAAAAIAAAAAAAAAAAD7AAAAAAAAAAAA
        AAAAAAAAAAAAAAAAAAAAAAAAAAAAAAAAc3RwMUAAAAAICAgICAgICAgICAgICAgICAgICAgICAgICAgICAgICAgICAgICAgICAgICAgICAgICAgICAgICAgICAgICAgI
        c3RwMkAAAAABAAAAAQABAAEAAQAAAAEAAQAAAAEAAQAAAAAAAAABAAEBAQEBAQEBAQEBAQEBAQEBAQEBAQEBAQEBAQEBAQEBc3RwM0AAAAAEBAQEBAQEBAQEBAQEBAQE
        CAQEBAQEBAQEBAQEBAQEBAQEBAQEBAQEBAQEBAQEBAQEBAQEBAQEBAQEBAQEBAQEc3RwNEAAAABgYGBgYGBgYGBgYGBgYGBgYGBgYGBgYGBgYGBgYGBgYGBgYGBgYGBg
        YGBgYGBgYGBgYGBgYGBgYGBgYGBgYGBgc3RwNUAAAAAAAAAAAAAAAAAAAAAAAAAAAAAAAAAAAAAAAAAAAAAAAAAAAAAAAAAAAAAAAAAAAAAAAAAAAAAAAAAAAAAAAAAA
        cHJvZxICAABwcmdwIgAAABAgZAQAAQB/AH8AQAABAAEAAAAAAAAAAAB/AAAAAAAAAABwZ25tMAAAAFNlcSAyayBLcmFmdHdlcmszIChBK0MsIEYrQSkAAAAAJCq+X/9/
        AAD08FElAQAAAHN0cDBAAAAAAAAAAAAA+wAAAPsAAAAAAAAAAAACAAAAAAAAAAAA+wAAAAAAAAAAAAAAAAAAAAAAAAAAAAAAAAAAAAAAAAAAAHN0cDFAAAAACAgICAgI
        CAgICAgICAgICAgICAgICAgICAgICAgICAgICAgICAgICAgICAgICAgICAgICAgICAgICAgICAgICHN0cDJAAAAAAQAAAAEAAQABAAEAAAABAAEAAAABAAEAAAAAAAAA
        AQABAQEBAQEBAQEBAQEBAQEBAQEBAQEBAQEBAQEBAQEBAXN0cDNAAAAABAQEBAQEBAQEBAQEBAQEBAgEBAQEBAQEBAQEBAQEBAQEBAQEBAQEBAQEBAQEBAQEBAQEBAQE
        BAQEBAQEBAQEBHN0cDRAAAAAYGBgYGBgYGBgYGBgYGBgYGBgYGBgYGBgYGBgYGBgYGBgYGBgYGBgYGBgYGBgYGBgYGBgYGBgYGBgYGBgYGBgYHN0cDVAAAAAAAAAAAAA
        AAAAAAAAAAAAAAAAAAAAAAAAAAAAAAAAAAAAAAAAAAAAAAAAAAAAAAAAAAAAAAAAAAAAAAAAAAAAAHByb2cSAgAAcHJncCIAAAAQIGQEAAEAfwB/AEAAAQABAAAAAAAA
        AAAAfwAAAAAAAAAAcGdubTAAAABTZXEgMmsgS3JhZnR3ZXJrMyAoQStDLCBGK0EpAAAAACQqvl//fwAA9PBRJQEAAABzdHAwQAAAAAAAAAAAAPsAAAD7AAAAAAAAAAAA
        AgAAAAAAAAAAAPsAAAAAAAAAAAAAAAAAAAAAAAAAAAAAAAAAAAAAAAAAAABzdHAxQAAAAAgICAgICAgICAgICAgICAgICAgICAgICAgICAgICAgICAgICAgICAgICAgI
        CAgICAgICAgICAgICAgICAgICAhzdHAyQAAAAAEAAAABAAEAAQABAAAAAQABAAAAAQABAAAAAAAAAAEAAQEBAQEBAQEBAQEBAQEBAQEBAQEBAQEBAQEBAQEBAQFzdHAz
        QAAAAAQEBAQEBAQEBAQEBAQEBAQIBAQEBAQEBAQEBAQEBAQEBAQEBAQEBAQEBAQEBAQEBAQEBAQEBAQEBAQEBAQEBARzdHA0QAAAAGBgYGBgYGBgYGBgYGBgYGBgYGBg
        YGBgYGBgYGBgYGBgYGBgYGBgYGBgYGBgYGBgYGBgYGBgYGBgYGBgYGBgYGBzdHA1QAAAAAAAAAAAAAAAAAAAAAAAAAAAAAAAAAAAAAAAAAAAAAAAAAAAAAAAAAAAAAAA
        AAAAAAAAAAAAAAAAAAAAAAAAAABwcm9nEgIAAHByZ3AiAAAAECBkBAABAH8AfwBAAAEAAQAAAAAAAAAAAH8AAAAAAAAAAHBnbm0wAAAAU2VxIDJrIEtyYWZ0d2VyazMg
        KEErQywgRitBKQAAAAAkKr5f/38AAPTwUSUBAAAAc3RwMEAAAAAAAAAAAAD7AAAA+wAAAAAAAAAAAAIAAAAAAAAAAAD7AAAAAAAAAAAAAAAAAAAAAAAAAAAAAAAAAAAA
        AAAAAAAAc3RwMUAAAAAICAgICAgICAgICAgICAgICAgICAgICAgICAgICAgICAgICAgICAgICAgICAgICAgICAgICAgICAgICAgICAgIc3RwMkAAAAABAAAAAQABAAEA
        AQAAAAEAAQAAAAEAAQAAAAAAAAABAAEBAQEBAQEBAQEBAQEBAQEBAQEBAQEBAQEBAQEBAQEBc3RwM0AAAAAEBAQEBAQEBAQEBAQEBAQECAQEBAQEBAQEBAQEBAQEBAQE
        BAQEBAQEBAQEBAQEBAQEBAQEBAQEBAQEBAQEBAQEc3RwNEAAAABgYGBgYGBgYGBgYGBgYGBgYGBgYGBgYGBgYGBgYGBgYGBgYGBgYGBgYGBgYGBgYGBgYGBgYGBgYGBg
        YGBgYGBgc3RwNUAAAAAAAAAAAAAAAAAAAAAAAAAAAAAAAAAAAAAAAAAAAAAAAAAAAAAAAAAAAAAAAAAAAAAAAAAAAAAAAAAAAAAAAAAA
        AC0gSW5pdGlhbCBwcm9ncmFtIC0AEAAAAA==
      >
      PRESETNAME "- Initial program -"
      FLOATPOS 203 36 810 615
      FXID {007FB9B4-58B7-9343-9460-2E23A6E78A60}
      WAK 0
      BYPASS 0 0 0
      <VST "VSTi: chipsounds (Plogue Art et Technologie, Inc)" chipsounds.vst 0 "" 1347176271
        T0dMUO5e7f4AAAAABAAAAAEAAAAAAAAAAgAAAAAAAAAEAAAAAAAAAAgAAAAAAAAArwQAAAEAAAAAABAA
        Q0VHUEkZAAB4nO1ZXU/jOBR951dEedp9mMSfsS1RRqXAqtKyg1T2eWRaT4kmTbqJ02X21+9N0lIXMAkLjEba8QvOzbn2PceOcxqOP96tsmBjyiot8lGIIxQGH0+Ojsdl
        qmd6Y5xbCidhsC6LRT230zMIIKTCk6MA2vHMWJvmyyr4q9ZZar/B3TCobGn0CsKjkJIwWOm7WRsZZ1kxvzwdhRxD+HJ6Nv1U28tiYdosXdtipS3MOcsKOwqRG8rMxmSj
        MM1h7HplchsGWboxXTIgq3lTKONNT2caYjj4EJimqqiaZ9vwBBJNOQoTyFhmxY3Oruu8rRMC8Y4SzB6kizaW61UzPo6Cq7o0weQ2Xcez6VmccImDX/64nk1+DYMbnX+d
        Lra6OLpJAizntzrPm9JhtHWRgUAsDOx+1vXN51LnS5jlA2iwtnBRtTdWTreYW1iSe6Iwwqq22+u/P2e6sk2wq7/lMK7vdhQ2Oqs7gWMHcKnTfCAC3yOQB0F6EbQXwXoR
        vBeR9CJEL0L2IlQvAqN+SL+quF9W3K8r7hcWe5W90qVePb/Ee4h3oj3EkT9SmFLJlRREYqEU9eW4YkYMKcYUwhhJwbBIvEmOMBHhXhhzYVS1jSWUc0m8OcL3xDgYZ49E
        mHTjckJxQiTziuMSpbhLArxgjHiJCnyoTtsSRqgg2CupIG55ErVNYE44F/7yDiSlXRKsAaGEe4UQrsBJJ7DkiWJScn95zn6MRDcTVkhQJhN/UnLAibdZhEoGfelNcp72
        CNh08kkpCYNV87KS7lxbJTBWBCmivDnq5TkKHXDqqhMJhpcP8+5Phfv3p3LXkiaENNSlgP2JqX/j0yEjo33N3k0LD/A9yM8DkSHTDTh1FEqGjCSHgNSAhx8NqRwTRH2o
        a10ujd2aj3mxiq6yYlmbqPFm0e8Xn6K6MiVy3vdt1qSuwC2daauDW/ttDalccKi3Sv+BPpOONQGpTL5IddddQAp0du2i+0PQ27ZDinHH8aWk8f+E9HWZLpemnIGBNfnc
        lP20GWX0nrZwaJOnaOMt621D7YEkLhCBPjqXAj8kQifiQg0gjBF7jvRx3Ljrh0Ybv6nRxjujTfZGG7+l0yY/nfZPp/0E5M2ddqQQ52ASBCdSUoW9L5MDGytYgsBXw4/h
        BByy3/v8By8uvHJ7HClnrRHDSSIVnDFeI35gLsHjb30YEmD7hplLKroDiAFlKrDfMLvmkmA1bCbvfn+dKXw3r+baMK+jd23YM5bnPWzYM4V/Dxv2YxmsRy/bB+18wHsX
        /TRY39FgYcpf6rBOm6vGYWGOTsXF6SMmfoe1c2NwrEMbc9poOflho0/UO9QRnn/5YubW/QC7NWHd+o1XN2mzWj1OcPch97c/p7th9NymGzPdf1hur8/vryuTwcRmca1v
        mmv3QClNZeylyesgrXZw2xJ4fkMF1twB5FRXFbhNbW9HYTxer7N03n7QruIuEXxruq6KOl9ApJ2rip8ZNu42ZgDx+dcqbkaPNDzA6wfH4KOq8ZNVj8u1WS5TbYt9wVm6
        fkXBzohxM9RrqvNpChWsTKnfQdZt9QWAuzkelH8cw6Y6OTqOd/8mOTn6F0pIXFw=
        AAAQAAAA
      >
      FLOATPOS 0 0 0 0
      FXID {28195EEA-4505-B04B-BF95-3BE512FCE2C1}
      WAK 0
      BYPASS 1 0 0
      <VST "VSTi: chipsounds (Plogue Art et Technologie, Inc)" chipsounds.vst 0 "" 1347176271
        T0dMUO5e7f4AAAAABAAAAAEAAAAAAAAAAgAAAAAAAAAEAAAAAAAAAAgAAAAAAAAAlQQAAAEAAAAAABAA
        Q0VHUGoYAAB4nO1ZTW/jNhC951cIOrWHlUiKFEnAzsJxksJA0w3g9LxgbK4jrL4qUWl2f31Hkh3TSWg5jXdRoOHF5GhmOO+JHw/y6ONDlnr3uqqTIh/7OEC+9/H0ZDSp
        EjVX99p6JHHse2VVLJuFmZ2DASHpn5540EZzbUySr2rvr0alifkGT32vNpVWGZjHfkR8L1MP884ySdNicXU29hkG89XsfPapMVfFUndRqjFFpgzMOU8LM/aRbUr1vU7H
        fpJD7ibTufG9NLnXfTB41ou2UErbnkoV2LD3wdNtVUG9SNfmKQTqauzHELFKi1uV3jR5VycYwg0kmN1Llp0tV1mbHwfedVNpb3qXlOF8dh7GTGDvlz9u5tNffe9W5V9n
        yzUvFm+CAMrFncrztnTIVhYpEAQ1mu2s5e3nSuUrmOUDcFAaGNTdg8zqFgsDr+QRKGTIGrMe//05VbVpjX39HYYrleQbDPcqbXqGw5c88KMHcniQQY9o0IMOerBBj3jQ
        gw96iEEPOeiB0bDLMKt4mFY8zCseJhY7mb1Wlcr2v+Kti3OirQt3Lbati81dQCVDbaM8FhFvTxlHkMVDQJjTjdpukewajSPGBHHGHFKztSQCTPq8jEQ4JoI6ubCBRrgP
        An9OKXEC5dhmB/VBMSURJy0HjiBilyc6RhHHjDDG3eXtUBr1QRRzEhHmJILbBMc9wYLFkgrB3OVZyy/g/UxYIh5REbuD4h1M/TIhkaDQF84ga3MHgKanTwhBKLw1Jyph
        z7VmAmNJkCTSGSNfHyPRDqa+Oh5juEqoc31KtI1yLhuJtutmTyYyvNQlOmCbSxQfkkkc4iQPOTIOqRwTFLm8blS10mZ9mS+KLLhOi1Wjg1brBL9ffgqaWlfIuj+7qGlT
        g/o4V0Z5d+ZbCaGMM6i3Tr5DnwrrqgeqdL5MVN9dQgh0Nu2y/yHouG0XYthjfC1o/D8BfVMlq5Wu5iAIdb7Q1TBsGtHoETa3YJOXYOM16nVD3ZHALxGBProQHD8FEk35
        pTwAMEZ0H+hR2KrVp8IVH1W44o1wJVvhio+pXMm7cn1Xrv9WudqKCbZLHPNu34B4QlHsvIttySQRY3B3c0aEiCR23jA76pLTGDEpJGUxBvV6LEXs1Lbc+eYc6pHRTjQB
        IULCaeRObAtBJOlaMyEOEu0wIRj1jA+q+B0hSLA8bCbn1nmbgLN1lVMk27pqj4b5Ebpqj4z7GbrqXTwcTTzgiL1WPZy1o1Y9YIbO+OXZMyRu9bBRGnA6QZuwqOVy+p+1
        vlDvUXTtTxPzz4Tdk3Yx8HzdDpV4F1++6IWxv1CuVVVPxyS7TdolOiDtNl86f/tztkmjFia517Ptl9dufPE4rnUKE+vljbptx/aBUulamyudN15Sb9xNB2D/LvKMfgCX
        M1XXIB+VuRv74aQs02TRffGtwz4QhGhS1kWTL8HSzVWHe9KG/Zv2wL74Wodt9kDB0iifHIPPqsYvVj2pSr1aJcoU24LTpHxDwVbGsE31lupcnEIFma7UD6B1XX0Bzv0c
        T8ofhbCoTk9G4eZ/hNOTfwCzwyla
        AAAQAAAA
      >
      FLOATPOS 409 269 870 508
      FXID {DC79668B-30D1-964C-A162-F245DBE294B0}
      WAK 0
      BYPASS 1 0 0
      <VST "VST: 8-Bit Shaper (Xfer Records)" 8BitShaper.vst 0 "" 1148539762
        clN1RO5e7f4CAAAAAQAAAAAAAAACAAAAAAAAAAQAAAABAAAAAAAAAAIAAAAAAAAABAAAAAAAAAAIAAAAAAAAADQCAAABAAAAAAAQAA==
        ZmaGP20MlT7dQQw/AAAAPyQA//8AAIA/L1VzZXJzL3MXAAAAMAAAABkAAAAaAAAAGgAAABoAAAAbAAAAGwAAABwAAAAcAAAAHAAAAB0AAAAdAAAAHgAAAB4AAAAfAAAA
        HwAAACAAAAAgAAAAIAAAACEAAAAhAAAAIQAAACIAAAAiAAAAIgAAACMAAAAjAAAAIwAAACQAAAAkAAAAJAAAACUAAAAlAAAAKAAAACgAAAApAAAAKQAAACoAAAA1AAAA
        KgAAACoAAAA2AAAAKgAAACoAAAAqAAAAKgAAACoAAAAqAAAAKgAAACsAAAArAAAAOQAAAC0AAAA0AAAAOgAAAC0AAAAtAAAAPAAAAC4AAAAuAAAALwAAADAAAAAwAAAA
        MQAAADEAAAAxAAAAMgAAADMAAAAzAAAAMwAAADcAAAA3AAAANwAAADgAAAA4AAAAOAAAADkAAAA5AAAAOQAAADoAAAA6AAAAOgAAADoAAAA6AAAAOwAAADsAAAA7AAAA
        PAAAADsAAAA7AAAAOwAAADwAAAA8AAAAPAAAADwAAAA9AAAAPQAAAD0AAAA9AAAAPQAAAD4AAAA+AAAAPwAAAEkAAABAAAAAQAAAAEgAAABAAAAAQQAAAEIAAABCAAAA
        QgAAAEMAAABDAAAAQwAAAEQAAABEAAAARQAAAE0AAABGAAAARwAAAEYAAABHAAAASAAAAEgAAABJAAAATwAAAAAAgD+rqqo+q6qqPh0Fwz6OAm0/
        AEluaXQgMQAQAAAA
      >
      PRESETNAME "Init 1"
      FLOATPOS 0 0 0 0
      FXID {8D41C7C8-FDD9-0B46-8F32-7407BD5E7789}
      WAK 0
    >
    <ITEM
      POSITION 0
      SNAPOFFS 0
      LENGTH 52.5
      LOOP 1
      ALLTAKES 0
      FADEIN 1 0 0 1 0 0
      FADEOUT 1 0 0 1 0 0
      MUTE 0
      SEL 0
      YPOS 0.285714 0.142857
      IGUID {CE1710B6-D542-434D-823B-01E0DAC95FAB}
      IID 12
      NAME "trombone(s) - National_Anthems_-_Andorra.mid"
      VOLPAN 1 0 1 -1
      SOFFS 0 0
      PLAYRATE 1 1 0 -1 0 0.0025
      CHANMODE 0
      TAKECOLOR 26173599 B
      GUID {C0609101-35B5-0647-AA57-D5226DD5D045}
      <SOURCE MIDI
        HASDATA 1 480 QN
        POOLEDEVTS {2315FAD8-464D-3B48-8DCB-B963F84BA977}
        <X 0 0 0 0 3 trombone(s)
          /wN0cm9tYm9uZShzKQ==
        >
        <X 0 0 0 0 4 "Sound Canvas"
          /wRTb3VuZCBDYW52YXM=
        >
        e 0 90 26 7f
        e 356 80 26 23
        e 124 90 2b 7f -22
        e 408 80 2b 01 -22
        e 72 90 2a 7f
        e 220 80 2a 38
        e 80 90 28 7f -6
        e 111 80 28 34 -6
        e 69 90 26 7f -18
        e 342 80 26 15 -18
        e 138 90 24 7f
        e 310 80 24 01
        e 170 90 23 7f
        e 149 80 23 2c
        e 91 90 24 7f
        e 138 80 24 2d
        e 102 90 26 7f
        e 367 80 26 02
        e 113 90 1f 7f -7
        e 347 80 1f 1e -7
        e 133 90 29 7f 5
        e 326 80 29 1f 5
        e 154 90 28 7f -21
        e 376 80 28 31 -21
        e 104 90 27 7f -21
        e 372 80 27 3e -21
        e 108 90 26 7f
        e 348 80 26 30
        e 132 90 28 7f -26
        e 313 80 28 07 -26
        e 167 90 26 7f
        e 1272 80 26 1e
        e 168 90 26 7f 4
        e 342 80 26 3b 4
        e 138 90 2b 7f -9
        e 383 80 2b 27 -9
        e 97 90 2a 7f -12
        e 215 80 2a 3f -12
        e 85 90 28 7f 23
        e 102 80 28 40 23
        e 78 90 26 7f 6
        e 348 80 26 01 6
        e 132 90 24 7f -15
        e 365 80 24 26 -15
        e 115 90 23 7f
        e 125 80 23 2c
        e 115 90 24 7f 5
        e 120 80 24 22
        e 120 90 26 7f -22
        e 377 80 26 3d -22
        e 103 90 2b 7f -27
        e 359 80 2b 11 -27
        e 121 90 29 7f
        e 422 80 29 25
        e 58 90 28 7f -7
        e 321 80 28 34 -7
        e 159 90 28 7f -17
        e 366 80 28 10 -17
        e 114 90 26 7f -23
        e 373 80 26 24 -23
        e 107 90 26 7f -28
        e 223 80 26 44 -28
        e 77 90 26 7f 16
        e 105 80 26 14 16
        e 75 90 2b 7f -2
        e 1259 80 2b 26 -2
        e 181 90 2b 7f -13
        e 120 90 28 7f 29
        e 44 80 2b 15 -13
        e 79 80 28 36 29
        e 57 90 2b 7f -14
        e 170 80 2b 0a -14
        e 10 90 24 7f 4
        e 390 80 24 2f 4
        e 90 90 24 7f -9
        e 221 80 24 32 -9
        e 79 90 28 7f 10
        e 119 80 28 1c 10
        e 61 90 2b 7f -5
        e 362 80 2b 23 -5
        e 118 90 2b 7f 13
        e 307 80 2b 26 13
        e 173 90 2d 7f 7
        e 612 80 2d 1a 7
        e 108 90 2b 7f -11
        e 152 80 2b 1b -11
        e 88 90 2d 7f -16
        e 360 80 2d 22 -16
        e 120 90 2a 7f -10
        e 397 80 2a 2a -10
        e 83 90 28 7f -19
        e 249 80 28 2e -19
        e 51 90 2a 7f 7
        e 102 80 2a 44 7
        e 78 90 2b 7f -5
        e 155 80 2b 20 -5
        e 145 90 2d 7f -15
        e 126 80 2d 2c -15
        e 54 90 2e 7f -10
        e 410 80 2e 26 -10
        e 70 90 2d 7f 2
        e 317 80 2d 24 2
        e 163 90 2d 7f -10
        e 1227 80 2d 02 -10
        e 213 90 2b 7f -6
        e 120 90 28 7f 17
        e 37 80 2b 1a -6
        e 82 80 28 47 17
        e 61 90 2b 7f -28
        e 100 80 2b 48 -28
        e 80 90 30 7f 16
        e 397 80 30 02 16
        e 83 90 28 7f -8
        e 283 80 28 38 -8
        e 17 90 2b 7f 14
        e 107 80 2b 2b 14
        e 73 90 2b 7f 18
        e 354 80 2b 36 18
        e 126 90 2b 7f 4
        e 299 80 2b 10 4
        e 181 90 2d 7f -12
        e 627 80 2d 24 -12
        e 93 90 2b 7f -13
        e 178 80 2b 0f -13
        e 62 90 2d 7f -5
        e 396 80 2d 09 -5
        e 84 90 26 7f -26
        e 330 80 26 0d -26
        e 150 90 25 7f -16
        e 262 80 25 36 -16
        e 38 90 26 7f
        e 145 80 26 37
        e 35 90 28 7f
        e 187 80 28 26
        e 113 90 2a 7f -16
        e 116 80 2a 43 -16
        e 64 90 2b 7f -8
        e 363 80 2b 1a -8
        e 117 90 2d 7f -16
        e 314 80 2d 19 -16
        e 166 90 2a 7f -11
        e 0 90 2d 7f -12
        e 1361 80 2d 36 -12
        e 6 80 2a 50 -11
        e 553 90 1f 7f -14
        e 165 80 1f 3d -14
        e 75 90 2b 7f -15
        e 152 80 2b 30 -15
        e 88 90 2a 7f -13
        e 144 80 2a 2f -13
        e 96 90 28 7f -16
        e 127 80 28 2a -16
        e 113 90 26 7f -16
        e 143 80 26 31 -16
        e 97 90 28 7f -21
        e 134 80 28 3a -21
        e 106 90 26 7f -16
        e 186 80 26 01 -16
        e 54 90 24 7f -18
        e 132 80 24 2b -18
        e 108 90 23 7f -12
        e 220 80 23 28 -12
        e 80 90 24 7f 5
        e 113 80 24 32 5
        e 67 90 26 7f -11
        e 329 80 26 15 -11
        e 151 90 1f 7f -29
        e 319 80 1f 36 -29
        e 161 90 29 7f -18
        e 157 80 29 33 -18
        e 83 90 2b 7f -22
        e 160 80 2b 35 -22
        e 80 90 28 7f -15
        e 166 80 28 10 -15
        e 74 90 2b 7f -21
        e 154 80 2b 26 -21
        e 86 90 27 7f -20
        e 195 80 27 22 -20
        e 45 90 2b 7f -27
        e 158 80 2b 31 -27
        e 82 90 26 7f -29
        e 177 80 26 0d -29
        e 63 90 2b 7f -22
        e 145 80 2b 2a -22
        e 95 90 28 7f -16
        e 307 80 28 0b -16
        e 173 90 26 7f
        e 1202 80 26 3a
        e 238 90 26 7f -1
        e 372 80 26 0a -1
        e 48 90 1f 7f 28
        e 186 80 1f 01 28
        e 54 90 2b 7f 24
        e 163 80 2b 1f 24
        e 77 90 2a 7f 29
        e 161 80 2a 28 29
        e 139 90 28 7f -28
        e 147 80 28 2c -28
        e 93 90 26 7f -28
        e 180 90 28 7f 28
        e 12 80 26 20 -28
        e 149 80 28 32 28
        e 79 90 26 7f 19
        e 228 80 26 2d 19
        e 12 90 24 7f 19
        e 189 80 24 28 19
        e 111 90 23 7f -24
        e 434 80 23 3e -24
        e 46 90 2d 7f -10
        e 394 80 2d 1c -10
        e 86 90 2b 7f -13
        e 411 80 2b 1b -13
        e 69 90 2a 7f 7
        e 380 80 2a 30 7
        e 100 90 28 7f -4
        e 397 80 28 20 -4
        e 83 90 29 7f 6
        e 214 80 29 30 6
        e 86 90 28 7f 11
        e 130 80 28 3f 11
        e 50 90 2d 7f 6
        e 359 80 2d 3b 6
        e 121 90 2f 7f -14
        e 349 80 2f 0c -14
        e 131 90 30 7f -28
        e 960 90 24 7f
        e 108 80 30 4a -28
        e 585 80 24 37
        e 87 90 24 7f 3
        e 110 80 24 3e 3
        e 70 90 26 7f -9
        e 647 80 26 2e -9
        e 133 90 26 7f
        e 98 80 26 42
        e 82 90 26 7f -14
        e 604 80 26 3e -14
        e 176 90 26 7f -15
        e 156 80 26 40 -15
        e 24 90 1f 7f -7
        e 1467 80 1f 5f -7
        E 453 b0 7b 00
        GUID {8BB21677-506F-AA4D-A493-6B49A2420C6F}
        IGNTEMPO 0 120 4 4
        SRCCOLOR 952
        VELLANE -1 86 6
        CFGEDITVIEW 5761.747115 21.721049 31 7 0 0 0 0 0 0.5
        KEYSNAP 0
        TRACKSEL 226
        EVTFILTER 0 -1 -1 -1 -1 0 1 0 0 -1 -1 -1 -1 0 -1 0 -1 -1
        CFGEDIT 1 0 0 0 0 0 1 0 1 1 1 0.25 0 4 1280 778 0 0 2 3 0 0 0 0 0 0.5 0 0 1 64
      >
      TAKE
      NAME "trombone(s) - National_Anthems_-_Andorra.mid"
      TAKEVOLPAN 0 1 -1
      SOFFS 0 0
      PLAYRATE 1 1 0 -1 0 0.0025
      CHANMODE 0
      GUID {0B91E37E-9909-F04A-872B-7BB56A2FB5C9}
      <SOURCE MIDI
        HASDATA 1 480 QN
        POOLEDEVTS {AF5DE35B-8253-D348-AE05-0C47A17FB471}
        <X 0 0 0 0 3 trombone(s)
          /wN0cm9tYm9uZShzKQ==
        >
        <X 0 0 0 0 4 "Sound Canvas"
          /wRTb3VuZCBDYW52YXM=
        >
        E 0 92 32 60
        E 356 82 32 23
        E 102 92 37 5c
        E 408 82 37 01
        E 58 92 36 68
        E 220 82 36 38
        E 110 92 34 61
        E 111 82 34 34
        E 57 92 32 62
        E 342 82 32 15
        E 124 92 30 5e
        E 370 82 30 01
        E 110 92 2f 62
        E 149 82 2f 2c
        E 83 92 30 57
        E 138 82 30 2d
        E 104 92 32 60
        E 367 82 32 02
        E 144 92 2b 5e
        E 347 82 2b 1e
        E 145 92 35 68
        E 326 82 35 1f
        E 128 92 34 5d
        E 376 82 34 31
        E 104 92 33 63
        E 372 82 33 3e
        E 89 92 32 5b
        E 348 82 32 30
        E 146 92 34 61
        E 313 82 34 07
        E 151 92 32 60
        E 1272 82 32 1e
        E 214 92 32 61
        E 342 82 32 3b
        E 125 92 37 5b
        E 383 82 37 27
        E 94 92 36 63
        E 215 82 36 3f
        E 120 92 34 61
        E 102 82 34 40
        E 61 92 32 5f
        E 348 82 32 01
        E 111 92 30 63
        E 365 82 30 26
        E 101 92 2f 66
        E 235 82 2f 2c
        E 93 92 30 5d
        E 115 82 30 22
        E 44 92 32 61
        E 377 82 32 3d
        E 98 92 37 62
        E 359 82 37 11
        E 114 92 35 67
        E 422 82 35 25
        E 85 92 34 61
        E 321 82 34 34
        E 149 92 34 60
        E 366 82 34 10
        E 108 92 32 5f
        E 373 82 32 24
        E 102 92 32 63
        E 223 82 32 44
        E 121 92 32 62
        E 105 82 32 14
        E 57 92 37 5f
        E 1259 82 37 26
        E 170 92 37 62
        E 162 92 34 61
        E 2 82 37 15
        E 121 82 34 36
        E 14 92 37 59
        E 170 82 37 0a
        E 28 92 30 66
        E 390 82 30 2f
        E 77 92 30 62
        E 221 82 30 32
        E 98 92 34 53
        E 119 82 34 1c
        E 46 92 37 5f
        E 362 82 37 23
        E 136 92 37 62
        E 307 82 37 26
        E 167 92 39 63
        E 612 82 39 1a
        E 90 92 37 5b
        E 152 82 37 1b
        E 83 92 39 62
        E 360 82 39 22
        E 126 92 36 66
        E 397 82 36 2a
        E 74 92 34 64
        E 249 82 34 2e
        E 77 92 36 62
        E 102 82 36 44
        E 66 92 37 5d
        E 155 82 37 20
        E 135 92 39 5e
        E 126 82 39 2c
        E 59 92 3a 68
        E 410 82 3a 26
        E 82 92 39 68
        E 317 82 39 24
        E 151 92 39 66
        E 1227 82 39 02
        E 217 92 37 65
        E 143 92 34 65
        E 14 82 37 1a
        E 105 82 34 47
        E 16 92 37 58
        E 100 82 37 48
        E 124 92 3c 69
        E 397 82 3c 02
        E 59 92 34 66
        E 283 82 34 38
        E 39 92 37 5b
        E 107 82 37 2b
        E 77 92 37 65
        E 354 82 37 36
        E 112 92 37 62
        E 299 82 37 10
        E 165 92 39 63
        E 627 82 39 24
        E 92 92 37 5b
        E 178 82 37 0f
        E 70 92 39 60
        E 396 82 39 09
        E 63 92 32 5f
        E 330 82 32 0d
        E 160 92 31 69
        E 262 82 31 36
        E 54 92 32 62
        E 145 82 32 37
        E 35 92 34 60
        E 187 82 34 26
        E 97 92 36 61
        E 116 82 36 43
        E 72 92 37 5f
        E 363 82 37 1a
        E 109 92 39 65
        E 314 82 39 19
        E 170 92 39 5b
        E 1 92 36 5b
        E 1360 82 39 36
        E 7 82 36 50
        E 550 92 2b 69
        E 165 82 2b 3d
        E 74 92 37 5b
        E 152 82 37 30
        E 90 92 36 68
        E 144 82 36 2f
        E 93 92 34 63
        E 127 82 34 2a
        E 113 92 32 61
        E 143 82 32 31
        E 92 92 34 5e
        E 134 82 34 3a
        E 111 92 32 52
        E 186 82 32 01
        E 52 92 30 61
        E 132 82 30 2b
        E 114 92 2f 68
        E 220 82 2f 28
        E 97 92 30 5e
        E 113 82 30 32
        E 51 92 32 62
        E 329 82 32 15
        E 133 92 2b 62
        E 319 82 2b 36
        E 172 92 35 69
        E 157 82 35 33
        E 79 92 37 5c
        E 160 82 37 35
        E 87 92 34 62
        E 166 82 34 10
        E 68 92 37 5a
        E 154 82 37 26
        E 87 92 33 66
        E 195 82 33 22
        E 38 92 37 5a
        E 158 82 37 31
        E 80 92 32 62
        E 177 82 32 0d
        E 70 92 37 56
        E 145 82 37 2a
        E 101 92 34 5e
        E 307 82 34 0b
        E 189 92 32 60
        E 1202 82 32 3a
        E 237 92 32 62
        E 372 82 32 0a
        E 77 92 2b 66
        E 186 82 2b 01
        E 50 92 37 5f
        E 163 82 37 1f
        E 82 92 36 65
        E 161 82 36 28
        E 82 92 34 61
        E 147 82 34 2c
        E 93 92 32 60
        E 192 82 32 20
        E 44 92 34 61
        E 161 82 34 32
        E 70 92 32 5f
        E 228 82 32 2d
        E 12 92 30 57
        E 189 82 30 28
        E 68 92 2f 5e
        E 434 82 2f 3e
        E 60 92 39 61
        E 394 82 39 1c
        E 83 92 37 5d
        E 411 82 37 1b
        E 89 92 36 62
        E 380 82 36 30
        E 89 92 34 64
        E 397 82 34 20
        E 93 92 35 67
        E 214 82 35 30
        E 91 92 34 5d
        E 130 82 34 3f
        E 45 92 39 63
        E 359 82 39 3b
        E 101 92 3b 5a
        E 349 82 3b 0c
        E 117 92 3c 61
        E 988 92 30 66
        E 80 82 3c 4a
        E 613 82 30 37
        E 90 92 30 64
        E 110 82 30 3e
        E 58 92 32 67
        E 647 82 32 2e
        E 142 92 32 65
        E 98 82 32 42
        E 68 92 32 65
        E 604 82 32 3e
        E 175 92 32 67
        E 156 82 32 40
        E 32 92 2b 6e
        E 1467 82 2b 5f
        E 460 b0 7b 00
        GUID {7CFCA42C-E00C-4D4D-AE48-05FEFA037692}
        IGNTEMPO 0 120 4 4
        SRCCOLOR 953
        VELLANE -1 86 6
        CFGEDITVIEW 0 0 66 22 0 0 0 0 0 0.5
        KEYSNAP 0
        TRACKSEL 226
        EVTFILTER 0 -1 -1 -1 -1 0 0 0 0 -1 -1 -1 -1 0 -1 0 -1 -1
        CFGEDIT 1 0 0 0 0 0 1 0 1 1 1 0.25 16 63 1280 778 0 0 2 3 0 0 0 0 0 0.5 0 0 1 64
      >
    >
  >
  <TRACK {3CF13A00-0AFC-8542-AD98-73B6D91102DB}
    NAME "vst Plogue"
    PEAKCOL 26779488
    BEAT -1
    AUTOMODE 0
    VOLPAN 1 0 -1 -1 1
    MUTESOLO 0 0 0
    IPHASE 0
    ISBUS 0 0
    BUSCOMP 0 0
    SHOWINMIX 1 0.6667 0.290323 1 0.5 0 0 0
    FREEMODE 0
    SEL 0
    REC 0 0 0 1 0 0 0
    VU 2
    TRACKHEIGHT 0 0
    INQ 0 0 0 0.5 100 0 0 100
    NCHAN 4
    FX 1
    TRACKID {3CF13A00-0AFC-8542-AD98-73B6D91102DB}
    PERF 0
    AUXRECV 10 0 1 0 0 0 0 0 0 -1:U 32 -1 ''
    AUXRECV 10 0 1 0 0 0 0 0 0 -1:U 96 -1 ''
    AUXRECV 11 0 1 0 0 0 0 0 0 -1:U 64 -1 ''
    AUXRECV 11 0 1 0 0 0 0 0 0 -1:U 128 -1 ''
    MIDIOUT -1
    MAINSEND 0 0
    <FXCHAIN
      SHOW 0
      LASTSEL 0
      DOCKED 0
      BYPASS 0 0 0
      <VST "VSTi: chipsounds (Multi) (Plogue Art et Technologie, Inc) (32 out)" "chipsounds Multi.vst" 0 "" 1347241807
        T0dNUO5e7f4AAAAAIAAAAAEAAAAAAAAAAgAAAAAAAAAEAAAAAAAAAAgAAAAAAAAAEAAAAAAAAAAgAAAAAAAAAEAAAAAAAAAAgAAAAAAAAAAAAQAAAAAAAAACAAAAAAAA
        AAQAAAAAAAAACAAAAAAAAAAQAAAAAAAAACAAAAAAAAAAQAAAAAAAAACAAAAAAAAAAAABAAAAAAAAAAIAAAAAAAAABAAAAAAAAAAIAAAAAAAAABAAAAAAAAAAIAAAAAAA
        AABAAAAAAAAAAIAAAAAAAAAAAAEAAAAAAAAAAgAAAAAAAAAEAAAAAAAAAAgAAAAAAAAAEAAAAAAAAAAgAAAAAAAAAEAAAAAAAAAAgAAAAADuBgAAAQAAAAAAEAA=
        Q0VHUOo6AAB4nO1bS3PbNhC++1dwdGoPIfF+zNjO2LLVeqZuMiNneszAEiKzpSiVpNykv75LUrJBWxCp2pk4DnlISGh3gV2A+D7smodvP8+T4NZmebxIjwY4RIPg7fHB
        4UkWm7G5tc5PGotBsMwW09WkuDiDBoT04PgggOtwbIsiTmd58PfKJHHxBX4dBHmRWTOH5qMBJYNgbj6Pq5aTJFlMLk+PBhxD8+XF2cW7VXG5mNpKy6yKxdwU0Oc4WRRH
        A+Q2JfbWJkeDOAXbq7lNi0GQxLe2VgbJfAJWGStvTGKgCQdvAlsOKswnybp5CHo2OxoIUJgli2uTXK3SapjQEG08gs6DeFq1pWZemsdh8H6V2WB4Ey+j8cVZJLjCwU+/
        X42HPw+Ca5P+dTFdh8UJmyLg5OTGpGk5crC2XCQQHxhjcd/r8vpjZtIZ9PIGQrAs4CGvfpg7t4tJATNy5ydYmK+K9fM/HxOTF2VjPf7Kh0sTpxsfbk2yqgMcbZPAdxLI
        I0FaJWirBGuV4K0SolVCtkqoVgndKoFRu0h7VHF7WHF7XHF7YLE3su9NZua7p/hexNvRvYgT/lBxjuDCGknKlKA+HTeYIdOVEmJSKCrLXcfTkRPeEBNdXZxQLIhiXiXm
        KtG6J04FY1h5dYSro2odQhWocL+Ss8hCcKYenlKKMBgr9qkpty9a9YQw1gRpor06en8djRo+1aOTAsOWxoh3mij27SRXJpvZYr1VThbz8H2ymK1sWAJJ+NvoXbjKbYac
        3anSGq5y2NrPTGGCm+LLElS55DDmPP4X7plyNlIYr02nsalvp6ACN5trVP9H0PNeTRej2sd9ncY/iNNXWTyb2WwMcGvTic3a3WaU0Y3bhDtuk21u47XX66t+ltU9HcqR
        bjgxRHS0w5HDqMT3h1CPnxXq8RaoVz3U91D/EqAeN8AJCyGr14YhjajwgobjQagR5wAykhOlqMZeQHPxlkgmENdKMy4woPtXoxC8E2fgrDYthNIAm34l1wdaR6qdnXhX
        79PAfgcGu0LuVAlOOaNEUxgzhoH7OcF9DP0cABCnJwE9CfgaJEC4cNqJBFQvsIQgjM4fk4A6MpKeNhpGQA1KWfVIFFrPtllApGnhf5EL8qzkgm3IBb4nF+wZyQVqIRde
        7NmDXPgISk8uHor8cORCEsaQ0uUJmxHBvTjnuBTi9RlbSIIlY140d8Fcsm6pBt7wSK9Py1IwRbjyQqXsANSNxEedWsCMIqBWfpx2ZzJktOPZnXUYTSPRURESralAmu3I
        qOAubroZCrZmdBRDFwR7F4R0Y0PrFIXiQjOluJcGyg7sSLrxQ+v4aQzMlCLqt+wuHMGrxSYxjEvKHdTRXTkwQ9Vq05wKyah/3bjTwAlzp9frVCOho2s+0MpsXcbndVz7
        CZ8r1CE1qJHoYqnDgtJId3m5uowcY9Tg93W8lUISRuLXIsjd5og3xCDojUzPl3u+/BS+XKaR9+PLFRLXfBkRcnr6yJHHLPqs4ssIbeXLWxk3HzbtnoKFsluJ3dZR3Tps
        trYEczu3ps/Krck3rtG1c2sfc+4Tdw8i9vq49cuo0fUlub4k930Bbc8uvsuSHHtWZKdbkJ33yN4j+0tA9lddkvPnYvqC3LcuyPVo6HP79dWmuq+KV0QMt1MLeUctSBjU
        zgV/AMR/WmTzPPrVZNNg/CWddOUW/K4iJ54zbfBUQtFehmsnFD5S0hOKRyIvllDgdZWDc6IF96OkC1NIM90pF+72JJAgQCcURVoiKfxlI7cIw1Vd5FCcEUqkH2sbNGTt
        E1FMMka8LuHGsV9udk6tEPTlh1X3BN81lUE6MB7SoSYhvatxz0pXYzoFa6QUOtbH+DpNAuctpTnzl+t4h/E0C4xUl+QNE6Io3VFBaXInVtdngJLBOqZP405uaWvHX409
        Z3FLdRHqUNzSuEO8MUEdVhJIeTd7XyErpHUFVGkiMRbU/8oS5N3jfzQi0t3pnpP73G5kqAjdk5TXf9RQp6jQqRx1KYBtrk2hCs7LcJ3wZvnKaT2V/LHd/SyILaW5PS3g
        p1rg8qkW2NnTLHTl9OefPtlJ4X6yt2bR9Xo7mV/H5epqofLrvg5/+XCxMWMmRXxrL+ovEfHm+fzuy8TcJtCxnV6Z63L9uRtgZnNbXNp0FcT5Rr2oHNj9AgSF/QwiV/Dv
        KrPT4Ne4yOHcYIqbo0F0slwm8aT6FDKPagtwAomX+WKVTqGl6jSPdtiP1iedk2xpZ7N4kUeNnkIDu9DywV7+yBWylytz86csbu58+ADbWx7lMDPpLDHpFMb0cZJZU9ho
        bObLxObR+eaXYBSXz3UHw3tHN33kpQovbh6O+zCCSTw+OIw237EeH/wHBRFbrg==
        AAAQAAAA
      >
      FLOATPOS 275 269 871 509
      FXID {C804D762-B992-A540-81BF-3D6C0F7FF19B}
      WAK 0
    >
  >
  <TRACK {2BB5EACD-C1BC-284E-92F6-33B7023B768F}
    NAME "ch1,3 (send)"
    PEAKCOL 16576
    BEAT -1
    AUTOMODE 0
    VOLPAN 1 0 -1 -1 1
    MUTESOLO 0 0 0
    IPHASE 0
    ISBUS 0 0
    BUSCOMP 0 0
    SHOWINMIX 1 0.6667 0.290323 1 0.5 0 0 0
    FREEMODE 0
    SEL 0
    REC 0 0 0 0 0 0 0
    VU 2
    MIDICTL -1 1
    TRACKHEIGHT 155 0
    INQ 0 0 0 0.5 100 0 0 100
    NCHAN 2
    FX 1
    TRACKID {2BB5EACD-C1BC-284E-92F6-33B7023B768F}
    PERF 0
    MIDIOUT -1
    MAINSEND 1 0
    <FXCHAIN
      SHOW 0
      LASTSEL 0
      DOCKED 0
    >
    <ITEM
      POSITION 0
      SNAPOFFS 0
      LENGTH 52.5
      LOOP 1
      ALLTAKES 0
      FADEIN 1 0 0 1 0 0
      FADEOUT 1 0 0 1 0 0
      MUTE 0
      SEL 0
      YPOS 0.543353 0.184971
      IGUID {9757CC79-61B8-6946-8BD6-62DA0D17F1E5}
      IID 10
      NAME "trumpet(s) - National_Anthems_-_Andorra.mid"
      VOLPAN 1 0 1 -1
      SOFFS 0 0
      PLAYRATE 1 1 0 -1 0 0.0025
      CHANMODE 0
      TAKECOLOR 26173599 B
      GUID {30BCC8E9-0EB6-1E4D-9729-D1ECDBC28093}
      <SOURCE MIDI
        HASDATA 1 480 QN
        POOLEDEVTS {77C6A88D-745C-8640-B67C-C67E9977B893}
        <X 0 0 0 0 3 trumpet(s)
          /wN0cnVtcGV0KHMp
        >
        <X 0 0 0 0 4 "Sound Canvas"
          /wRTb3VuZCBDYW52YXM=
        >
        e 0 90 3e 7f
        e 113 80 3e 2b
        e 7 90 3b 7f 7
        e 98 80 3b 31 7
        e 82 90 3e 7f -10
        e 111 80 3e 32 -10
        e 69 90 43 7f -13
        e 403 80 43 48 -13
        e 77 90 43 7f -22
        e 209 80 43 41 -22
        e 91 90 43 7f -4
        e 118 80 43 49 -4
        e 62 90 45 7f -14
        e 421 80 45 3f -14
        e 59 90 45 7f -6
        e 330 80 45 23 -6
        e 150 90 47 7f -24
        e 683 80 47 1e -24
        e 37 90 45 7f -13
        e 191 80 45 25 -13
        e 49 90 43 7f -10
        e 408 80 43 28 -10
        e 72 90 47 7f -7
        e 211 80 47 20 -7
        e 89 90 47 7f 16
        e 124 80 47 36 16
        e 56 90 4a 7f -1
        e 395 80 4a 30 -1
        e 85 90 48 7f -29
        e 378 80 48 39 -29
        e 102 90 47 7f
        e 439 80 47 30
        e 41 90 43 7f
        e 434 80 43 27
        e 46 90 45 7f -27
        e 1321 80 45 29 -27
        e 119 90 3e 7f -5
        e 120 90 3b 7f 23
        e 20 80 3e 43 -5
        e 76 80 3b 27 23
        e 84 90 3e 7f -9
        e 104 80 3e 35 -9
        e 76 90 43 7f -20
        e 404 80 43 44 -20
        e 76 90 43 7f -4
        e 364 80 43 38 -4
        e 116 90 45 7f -11
        e 402 80 45 34 -11
        e 78 90 45 7f -14
        e 397 80 45 26 -14
        e 83 90 47 7f -11
        e 632 80 47 24 -11
        e 88 90 45 7f -7
        e 171 80 45 2b -7
        e 69 90 43 7f -6
        e 356 80 43 28 -6
        e 124 90 47 7f -13
        e 428 80 47 35 -13
        e 52 90 4a 7f -22
        e 429 80 4a 29 -22
        e 51 90 48 7f -24
        e 450 80 48 3c -24
        e 30 90 47 7f
        e 480 90 45 7f -15
        e 10 80 47 46
        e 255 80 45 36 -15
        e 35 90 45 7f 34
        e 76 80 45 3f 34
        e 104 90 43 7f -11
        e 908 80 43 38 -11
        e 52 90 43 7f 9
        e 312 80 43 3e 9
        e 168 90 43 7f 6
        e 113 80 43 4f 6
        e 7 90 40 7f 12
        e 110 80 40 28 12
        e 70 90 43 7f -8
        e 134 80 43 35 -8
        e 46 90 48 7f -8
        e 412 80 48 47 -8
        e 68 90 48 7f -19
        e 252 80 48 39 -19
        e 48 90 48 7f 28
        e 107 80 48 43 28
        e 73 90 47 7f 2
        e 381 80 47 2f 2
        e 99 90 47 7f -9
        e 328 80 47 2c -9
        e 152 90 45 7f -27
        e 644 80 45 29 -27
        e 76 90 47 7f
        e 217 80 47 34
        e 23 90 45 7f -14
        e 377 80 45 2a -14
        e 103 90 45 7f -6
        e 223 80 45 39 -6
        e 77 90 45 7f 15
        e 79 80 45 38 15
        e 101 90 47 7f -3
        e 394 80 47 41 -3
        e 86 90 43 7f -18
        e 397 80 43 1d -18
        e 83 90 40 7f -21
        e 424 80 40 16 -21
        e 56 90 45 7f -13
        e 439 80 45 12 -13
        e 41 90 42 7f -18
        e 682 80 42 35 -18
        e 38 90 40 7f -23
        e 238 80 40 3c -23
        e 2 90 3e 7f -5
        e 323 80 3e 05 -5
        e 157 90 43 7f -3
        e 120 90 40 7f
        e 36 80 43 53 -3
        e 76 80 40 29
        e 68 90 43 7f
        e 145 80 43 4d
        e 35 90 48 7f -12
        e 413 80 48 48 -12
        e 67 90 48 7f -13
        e 401 80 48 3e -13
        e 79 90 47 7f -14
        e 413 80 47 3c -14
        e 67 90 47 7f -1
        e 250 80 47 3d -1
        e 50 90 47 7f 27
        e 86 80 47 44 27
        e 94 90 45 7f 1
        e 655 80 45 23 1
        e 65 90 47 7f -4
        e 192 80 47 3c -4
        e 48 90 45 7f -8
        e 366 80 45 34 -8
        e 114 90 45 7f -9
        e 225 80 45 3e -9
        e 75 90 45 7f 15
        e 92 80 45 42 15
        e 88 90 47 7f -7
        e 398 80 47 3b -7
        e 82 90 45 7f -21
        e 404 80 45 32 -21
        e 76 90 47 7f -22
        e 440 80 47 25 -22
        e 40 90 45 7f -8
        e 454 80 45 44 -8
        e 26 90 3e 7f -14
        e 1177 80 3e 26 -14
        e 263 90 3e 7f
        e 125 80 3e 36
        e 55 90 3b 7f -30
        e 115 80 3b 33 -30
        e 5 90 3e 7f -3
        e 120 80 3e 34 -3
        e 60 90 43 7f -12
        e 610 80 43 42 -12
        e 110 90 43 7f -19
        e 151 80 43 45 -19
        e 29 90 45 7f 12
        e 273 80 45 36 12
        e 87 90 45 7f -27
        e 131 80 45 48 -27
        e 49 90 45 7f -30
        e 223 80 45 27 -30
        e 77 90 45 7f -20
        e 96 80 45 43 -20
        e 24 90 47 7f 28
        e 714 80 47 39 28
        e 66 90 45 7f -1
        e 187 80 45 2b -1
        e 53 90 43 7f -8
        e 441 80 43 07 -8
        e 39 90 47 7f -14
        e 120 90 43 7f 22
        e 42 80 47 3f -14
        e 76 80 43 25 22
        e 62 90 47 7f -16
        e 150 80 47 2a -16
        e 30 90 4a 7f -10
        e 380 80 4a 41 -10
        e 100 90 48 7f -21
        e 402 80 48 3a -21
        e 78 90 47 7f -21
        e 468 80 47 37 -21
        e 12 90 43 7f -14
        e 221 80 43 39 -14
        e 79 90 43 7f 7
        e 81 80 43 49 7
        e 99 90 45 7f -17
        e 1277 80 45 35 -17
        e 163 90 3e 7f 3
        e 120 90 3b 7f 25
        e 9 80 3e 41 3
        e 98 80 3b 36 25
        e 73 90 3e 7f -14
        e 121 80 3e 3a -14
        e 59 90 43 7f -15
        e 427 80 43 40 -15
        e 53 90 43 7f 11
        e 202 80 43 40 11
        e 98 90 43 7f 19
        e 109 80 43 46 19
        e 71 90 45 7f -12
        e 426 80 45 3d -12
        e 54 90 45 7f -2
        e 194 80 45 30 -2
        e 106 90 45 7f 9
        e 112 80 45 42 9
        e 68 90 47 7f -8
        e 1317 80 47 2d -8
        e 123 90 47 7f 11
        e 192 80 47 30 11
        e 108 90 47 7f 29
        e 146 80 47 3c 29
        e 34 90 4c 7f 22
        e 397 80 4c 2b 22
        e 83 90 4a 7f -18
        e 435 80 4a 2f -18
        e 45 90 48 7f -18
        e 440 80 48 3d -18
        e 40 90 47 7f -17
        e 441 80 47 12 -17
        e 39 90 45 7f -29
        e 960 90 43 7f -18
        e 12 80 45 42 -29
        e 650 80 43 43 -18
        e 118 90 45 7f 16
        e 103 80 45 43 16
        e 77 90 47 7f -4
        e 736 80 47 30 -4
        e 44 90 47 7f 29
        e 127 80 47 4b 29
        e 53 90 45 7f 8
        e 680 80 45 3c 8
        e 100 90 45 7f 3
        e 113 80 45 3f 3
        e 67 90 43 7f -17
        e 1481 80 43 49 -17
        E 439 b0 7b 00
        GUID {BFA9822A-FCC6-BA46-9CA2-E7FCF2B8F4FB}
        IGNTEMPO 0 120 4 4
        SRCCOLOR 951
        VELLANE -1 86 6
        CFGEDITVIEW 23198.385214 165.64797 0 7 0 0 0 0 0 0.5
        KEYSNAP 0
        TRACKSEL 209
        EVTFILTER 0 -1 -1 -1 -1 0 1 0 0 -1 -1 -1 -1 0 -1 0 -1 -1
        CFGEDIT 1 0 0 0 0 0 1 0 1 1 1 0.25 0 4 1280 778 0 0 2 3 0 0 0 0 0 0.5 0 0 1 64
      >
      TAKE
      NAME "trumpet(s) - National_Anthems_-_Andorra.mid"
      TAKEVOLPAN 0 1 -1
      SOFFS 0 0
      PLAYRATE 1 1 0 -1 0 0.0025
      CHANMODE 0
      GUID {A6B3E4E0-6CAD-C84D-A7F5-8EE647CA04D4}
      <SOURCE MIDI
        HASDATA 1 480 QN
        POOLEDEVTS {2335A43D-B232-764C-B70B-875C051358EB}
        <X 0 0 0 0 3 trumpet(s)
          /wN0cnVtcGV0KHMp
        >
        <X 0 0 0 0 4 "Sound Canvas"
          /wRTb3VuZCBDYW52YXM=
        >
        e 0 90 3e 7f
        e 113 80 3e 2b
        e 14 90 3b 7f
        e 98 80 3b 31
        e 65 90 3e 7f
        e 111 80 3e 32
        e 66 90 43 7f
        e 403 80 43 48
        e 68 90 43 7f
        e 209 80 43 41
        e 109 90 43 7f
        e 118 80 43 49
        e 52 90 45 7f
        e 421 80 45 3f
        e 67 90 45 7f
        e 330 80 45 23
        e 132 90 47 7f
        e 683 80 47 1e
        e 48 90 45 7f
        e 191 80 45 25
        e 52 90 43 7f
        e 408 80 43 28
        e 75 90 47 7f
        e 211 80 47 20
        e 112 90 47 7f
        e 124 80 47 36
        e 39 90 4a 7f
        e 395 80 4a 30
        e 57 90 48 7f
        e 378 80 48 39
        e 94 90 47 7f
        e 439 80 47 30
        e 29 90 43 7f
        e 434 80 43 27
        e 68 90 45 7f
        e 1321 80 45 29
        e 141 90 3e 7f
        e 140 80 3e 43
        e 8 90 3b 7f
        e 96 80 3b 27
        e 52 90 3e 7f
        e 104 80 3e 35
        e 65 90 43 7f
        e 404 80 43 44
        e 92 90 43 7f
        e 364 80 43 38
        e 109 90 45 7f
        e 402 80 45 34
        e 75 90 45 7f
        e 397 80 45 26
        e 86 90 47 7f
        e 632 80 47 24
        e 92 90 45 7f
        e 171 80 45 2b
        e 70 90 43 7f
        e 356 80 43 28
        e 117 90 47 7f
        e 428 80 47 35
        e 43 90 4a 7f
        e 429 80 4a 29
        e 49 90 48 7f
        e 450 80 48 3c
        e 22 90 47 7f
        e 490 80 47 46
        e 7 90 45 7f
        e 265 80 45 36
        e 84 90 45 7f
        e 76 80 45 3f
        e 59 90 43 7f
        e 908 80 43 38
        e 72 90 43 7f
        e 312 80 43 3e
        e 165 90 43 7f
        e 113 80 43 4f
        e 13 90 40 7f
        e 110 80 40 28
        e 50 90 43 7f
        e 134 80 43 35
        e 46 90 48 7f
        e 412 80 48 47
        e 57 90 48 7f
        e 252 80 48 39
        e 95 90 48 7f
        e 107 80 48 43
        e 47 90 47 7f
        e 381 80 47 2f
        e 88 90 47 7f
        e 328 80 47 2c
        e 134 90 45 7f
        e 644 80 45 29
        e 65 90 47 7f
        e 217 80 47 34
        e 47 90 45 7f
        e 377 80 45 2a
        e 111 90 45 7f
        e 223 80 45 39
        e 98 90 45 7f
        e 79 80 45 38
        e 83 90 47 7f
        e 394 80 47 41
        e 71 90 43 7f
        e 397 80 43 1d
        e 80 90 40 7f
        e 424 80 40 16
        e 64 90 45 7f
        e 439 80 45 12
        e 36 90 42 7f
        e 682 80 42 35
        e 33 90 40 7f
        e 238 80 40 3c
        e 20 90 3e 7f
        e 323 80 3e 05
        e 159 90 43 7f
        e 154 90 40 7f
        e 2 80 43 53
        e 110 80 40 29
        e 37 90 43 7f
        e 145 80 43 4d
        e 23 90 48 7f
        e 413 80 48 48
        e 66 90 48 7f
        e 401 80 48 3e
        e 78 90 47 7f
        e 413 80 47 3c
        e 80 90 47 7f
        e 250 80 47 3d
        e 78 90 47 7f
        e 86 80 47 44
        e 68 90 45 7f
        e 655 80 45 23
        e 60 90 47 7f
        e 192 80 47 3c
        e 44 90 45 7f
        e 366 80 45 34
        e 113 90 45 7f
        e 225 80 45 3e
        e 99 90 45 7f
        e 92 80 45 42
        e 66 90 47 7f
        e 398 80 47 3b
        e 68 90 45 7f
        e 404 80 45 32
        e 75 90 47 7f
        e 440 80 47 25
        e 54 90 45 7f
        e 454 80 45 44
        e 20 90 3e 7f
        e 1177 80 3e 26
        e 277 90 3e 7f
        e 125 80 3e 36
        e 25 90 3b 7f
        e 115 80 3b 33
        e 32 90 3e 7f
        e 120 80 3e 34
        e 51 90 43 7f
        e 610 80 43 42
        e 103 90 43 7f
        e 151 80 43 45
        e 60 90 45 7f
        e 273 80 45 36
        e 48 90 45 7f
        e 131 80 45 48
        e 46 90 45 7f
        e 223 80 45 27
        e 87 90 45 7f
        e 96 80 45 43
        e 72 90 47 7f
        e 714 80 47 39
        e 37 90 45 7f
        e 187 80 45 2b
        e 46 90 43 7f
        e 441 80 43 07
        e 33 90 47 7f
        e 156 90 43 7f
        e 6 80 47 3f
        e 112 80 43 25
        e 24 90 47 7f
        e 150 80 47 2a
        e 36 90 4a 7f
        e 380 80 4a 41
        e 89 90 48 7f
        e 402 80 48 3a
        e 78 90 47 7f
        e 468 80 47 37
        e 19 90 43 7f
        e 221 80 43 39
        e 100 90 43 7f
        e 81 80 43 49
        e 75 90 45 7f
        e 1277 80 45 35
        e 183 90 3e 7f
        e 129 80 3e 41
        e 13 90 3b 7f
        e 107 80 3b 36
        e 34 90 3e 7f
        e 121 80 3e 3a
        e 58 90 43 7f
        e 427 80 43 40
        e 79 90 43 7f
        e 202 80 43 40
        e 106 90 43 7f
        e 109 80 43 46
        e 40 90 45 7f
        e 426 80 45 3d
        e 64 90 45 7f
        e 194 80 45 30
        e 117 90 45 7f
        e 112 80 45 42
        e 51 90 47 7f
        e 1317 80 47 2d
        e 142 90 47 7f
        e 192 80 47 30
        e 126 90 47 7f
        e 146 80 47 3c
        e 27 90 4c 7f
        e 397 80 4c 2b
        e 43 90 4a 7f
        e 435 80 4a 2f
        e 45 90 48 7f
        e 440 80 48 3d
        e 41 90 47 7f
        e 441 80 47 12
        e 27 90 45 7f
        e 971 90 43 7f
        e 1 80 45 42
        e 661 80 43 43
        e 152 90 45 7f
        e 103 80 45 43
        e 57 90 47 7f
        e 736 80 47 30
        e 77 90 47 7f
        e 127 80 47 4b
        e 32 90 45 7f
        e 680 80 45 3c
        e 95 90 45 7f
        e 113 80 45 3f
        e 47 90 43 7f
        e 1481 80 43 49
        E 456 b0 7b 00
        GUID {C4C2B218-A7D0-1347-BF7D-FED9A720109E}
        IGNTEMPO 0 120 4 4
        SRCCOLOR 955
        VELLANE -1 86 6
        CFGEDITVIEW 0 0 50 22 0 0 0 0 0 0.5
        KEYSNAP 0
        TRACKSEL 226
        EVTFILTER 0 -1 -1 -1 -1 0 0 0 0 -1 -1 -1 -1 0 -1 0 -1 -1
        CFGEDIT 1 0 0 0 0 0 1 0 1 1 1 0.25 252 123 1516 838 0 0 2 3 0 0 0 0 0 0.5 0 0 1 64
      >
    >
    <ITEM
      POSITION 0
      SNAPOFFS 0
      LENGTH 52.5
      LOOP 1
      ALLTAKES 0
      FADEIN 1 0 0 1 0 0
      FADEOUT 1 0 0 1 0 0
      MUTE 0
      SEL 0
      YPOS 0 0.184971
      IGUID {2FBA4C98-885A-5241-8D82-56B44D628FA6}
      IID 12
      NAME "trombone(s) - National_Anthems_-_Andorra.mid"
      VOLPAN 1 0 1 -1
      SOFFS 0 0
      PLAYRATE 1 1 0 -1 0 0.0025
      CHANMODE 0
      TAKECOLOR 26173599 B
      GUID {6FD6D775-B0A5-7046-9521-855A60CD4D52}
      <SOURCE MIDI
        HASDATA 1 480 QN
        POOLEDEVTS {211EBCB3-89CC-D040-AA6F-F4D9337A643B}
        <X 0 0 0 0 3 trombone(s)
          /wN0cm9tYm9uZShzKQ==
        >
        <X 0 0 0 0 4 "Sound Canvas"
          /wRTb3VuZCBDYW52YXM=
        >
        e 0 90 32 7f
        e 356 80 32 00
        e 124 90 37 7f -22
        e 408 80 37 00 -22
        e 72 90 36 7f
        e 220 80 36 00
        e 80 90 34 7f -6
        e 111 80 34 00 -6
        e 69 90 32 7f -18
        e 342 80 32 00 -18
        e 138 90 30 7f
        e 310 80 30 00
        e 170 90 2f 7f
        e 149 80 2f 00
        e 91 90 30 7f
        e 138 80 30 00
        e 102 90 32 7f
        e 367 80 32 00
        e 113 90 2b 7f -7
        e 347 80 2b 00 -7
        e 133 90 35 7f 5
        e 326 80 35 00 5
        e 154 90 34 7f -21
        e 376 80 34 00 -21
        e 104 90 33 7f -21
        e 372 80 33 00 -21
        e 108 90 32 7f
        e 348 80 32 00
        e 132 90 34 7f -26
        e 313 80 34 00 -26
        e 167 90 32 7f
        e 1272 80 32 00
        e 168 90 32 7f 4
        e 342 80 32 00 4
        e 138 90 37 7f -9
        e 383 80 37 00 -9
        e 97 90 36 7f -12
        e 215 80 36 00 -12
        e 85 90 34 7f 23
        e 102 80 34 00 23
        e 78 90 32 7f 6
        e 348 80 32 00 6
        e 132 90 30 7f -15
        e 365 80 30 00 -15
        e 115 90 2f 7f
        e 125 80 2f 00
        e 115 90 30 7f 5
        e 120 80 30 00
        e 120 90 32 7f -22
        e 377 80 32 00 -22
        e 103 90 37 7f -27
        e 359 80 37 00 -27
        e 121 90 35 7f
        e 422 80 35 00
        e 58 90 34 7f -7
        e 321 80 34 00 -7
        e 159 90 34 7f -17
        e 366 80 34 00 -17
        e 114 90 32 7f -23
        e 373 80 32 00 -23
        e 107 90 32 7f -28
        e 223 80 32 00 -28
        e 77 90 32 7f 16
        e 105 80 32 00 16
        e 75 90 37 7f -2
        e 1259 80 37 00 -2
        e 181 90 37 7f -13
        e 120 90 34 7f 29
        e 44 80 37 00 -13
        e 79 80 34 00 29
        e 57 90 37 7f -14
        e 170 80 37 00 -14
        e 10 90 30 7f 4
        e 390 80 30 00 4
        e 90 90 30 7f -9
        e 221 80 30 00 -9
        e 79 90 34 7f 10
        e 119 80 34 00 10
        e 61 90 37 7f -5
        e 362 80 37 00 -5
        e 118 90 37 7f 13
        e 307 80 37 00 13
        e 173 90 39 7f 7
        e 612 80 39 00 7
        e 108 90 37 7f -11
        e 152 80 37 00 -11
        e 88 90 39 7f -16
        e 360 80 39 00 -16
        e 120 90 36 7f -10
        e 397 80 36 00 -10
        e 83 90 34 7f -19
        e 249 80 34 00 -19
        e 51 90 36 7f 7
        e 102 80 36 00 7
        e 78 90 37 7f -5
        e 155 80 37 00 -5
        e 145 90 39 7f -15
        e 126 80 39 00 -15
        e 54 90 3a 7f -10
        e 410 80 3a 00 -10
        e 70 90 39 7f 2
        e 317 80 39 00 2
        e 163 90 39 7f -10
        e 1227 80 39 00 -10
        e 213 90 37 7f -6
        e 120 90 34 7f 17
        e 37 80 37 00 -6
        e 82 80 34 00 17
        e 61 90 37 7f -28
        e 100 80 37 00 -28
        e 80 90 3c 7f 16
        e 397 80 3c 00 16
        e 83 90 34 7f -8
        e 283 80 34 00 -8
        e 17 90 37 7f 14
        e 107 80 37 00 14
        e 73 90 37 7f 18
        e 354 80 37 00 18
        e 126 90 37 7f 4
        e 299 80 37 00 4
        e 181 90 39 7f -12
        e 627 80 39 00 -12
        e 93 90 37 7f -13
        e 178 80 37 00 -13
        e 62 90 39 7f -5
        e 396 80 39 00 -5
        e 84 90 32 7f -26
        e 330 80 32 00 -26
        e 150 90 31 7f -16
        e 262 80 31 00 -16
        e 38 90 32 7f
        e 145 80 32 00
        e 35 90 34 7f
        e 187 80 34 00
        e 113 90 36 7f -16
        e 116 80 36 00 -16
        e 64 90 37 7f -8
        e 363 80 37 00 -8
        e 117 90 39 7f -16
        e 314 80 39 00 -16
        e 166 90 36 7f -11
        e 0 90 39 7f -12
        e 1361 80 39 00 -12
        e 6 80 36 00 -11
        e 553 90 2b 7f -14
        e 165 80 2b 00 -14
        e 75 90 37 7f -15
        e 152 80 37 00 -15
        e 88 90 36 7f -13
        e 144 80 36 00 -13
        e 96 90 34 7f -16
        e 127 80 34 00 -16
        e 113 90 32 7f -16
        e 143 80 32 00 -16
        e 97 90 34 7f -21
        e 134 80 34 00 -21
        e 106 90 32 7f -16
        e 186 80 32 00 -16
        e 54 90 30 7f -18
        e 132 80 30 00 -18
        e 108 90 2f 7f -12
        e 220 80 2f 00 -12
        e 80 90 30 7f 5
        e 113 80 30 00 5
        e 67 90 32 7f -11
        e 329 80 32 00 -11
        e 151 90 2b 7f -29
        e 319 80 2b 00 -29
        e 161 90 35 7f -18
        e 157 80 35 00 -18
        e 83 90 37 7f -22
        e 160 80 37 00 -22
        e 80 90 34 7f -15
        e 166 80 34 00 -15
        e 74 90 37 7f -21
        e 154 80 37 00 -21
        e 86 90 33 7f -20
        e 195 80 33 00 -20
        e 45 90 37 7f -27
        e 158 80 37 00 -27
        e 82 90 32 7f -29
        e 177 80 32 00 -29
        e 63 90 37 7f -22
        e 145 80 37 00 -22
        e 95 90 34 7f -16
        e 307 80 34 00 -16
        e 173 90 32 7f
        e 1202 80 32 00
        e 238 90 32 7f -1
        e 372 80 32 00 -1
        e 48 90 2b 7f 28
        e 186 80 2b 00 28
        e 54 90 37 7f 24
        e 163 80 37 00 24
        e 77 90 36 7f 29
        e 161 80 36 00 29
        e 139 90 34 7f -28
        e 147 80 34 00 -28
        e 93 90 32 7f -28
        e 180 90 34 7f 28
        e 12 80 32 00 -28
        e 149 80 34 00 28
        e 79 90 32 7f 19
        e 228 80 32 00 19
        e 12 90 30 7f 19
        e 189 80 30 00 19
        e 111 90 2f 7f -24
        e 434 80 2f 00 -24
        e 46 90 39 7f -10
        e 394 80 39 00 -10
        e 86 90 37 7f -13
        e 411 80 37 00 -13
        e 69 90 36 7f 7
        e 380 80 36 00 7
        e 100 90 34 7f -4
        e 397 80 34 00 -4
        e 83 90 35 7f 6
        e 214 80 35 00 6
        e 86 90 34 7f 11
        e 130 80 34 00 11
        e 50 90 39 7f 6
        e 359 80 39 00 6
        e 121 90 3b 7f -14
        e 349 80 3b 00 -14
        e 131 90 3c 7f -28
        e 960 90 30 7f
        e 108 80 3c 00 -28
        e 585 80 30 00
        e 87 90 30 7f 3
        e 110 80 30 00 3
        e 70 90 32 7f -9
        e 647 80 32 00 -9
        e 133 90 32 7f
        e 98 80 32 00
        e 82 90 32 7f -14
        e 604 80 32 00 -14
        e 176 90 32 7f -15
        e 156 80 32 00 -15
        e 24 90 2b 7f -7
        e 1467 80 2b 00 -7
        E 453 b0 7b 00
        GUID {8BB21677-506F-AA4D-A493-6B49A2420C6F}
        IGNTEMPO 0 120 4 4
        SRCCOLOR 952
        VELLANE -1 86 6
        CFGEDITVIEW 12461.110306 43.315006 0 7 0 0 0 0 0 0.5
        KEYSNAP 0
        TRACKSEL 209
        EVTFILTER 0 -1 -1 -1 -1 0 1 0 0 -1 -1 -1 -1 0 -1 0 -1 -1
        CFGEDIT 1 0 0 0 0 0 1 0 1 1 1 0.25 0 4 1280 778 0 0 2 3 0 0 0 0 0 0.5 0 0 1 64
      >
      TAKE
      NAME "trombone(s) - National_Anthems_-_Andorra.mid"
      TAKEVOLPAN 0 1 -1
      SOFFS 0 0
      PLAYRATE 1 1 0 -1 0 0.0025
      CHANMODE 0
      GUID {85F29FDE-E20C-DC43-9A36-E02E65153F40}
      <SOURCE MIDI
        HASDATA 1 480 QN
        POOLEDEVTS {70FBAE4C-8962-4F4A-8788-3B73E1DDE34D}
        <X 0 0 0 0 3 trombone(s)
          /wN0cm9tYm9uZShzKQ==
        >
        <X 0 0 0 0 4 "Sound Canvas"
          /wRTb3VuZCBDYW52YXM=
        >
        E 0 92 32 60
        E 356 82 32 23
        E 102 92 37 5c
        E 408 82 37 01
        E 58 92 36 68
        E 220 82 36 38
        E 110 92 34 61
        E 111 82 34 34
        E 57 92 32 62
        E 342 82 32 15
        E 124 92 30 5e
        E 370 82 30 01
        E 110 92 2f 62
        E 149 82 2f 2c
        E 83 92 30 57
        E 138 82 30 2d
        E 104 92 32 60
        E 367 82 32 02
        E 144 92 2b 5e
        E 347 82 2b 1e
        E 145 92 35 68
        E 326 82 35 1f
        E 128 92 34 5d
        E 376 82 34 31
        E 104 92 33 63
        E 372 82 33 3e
        E 89 92 32 5b
        E 348 82 32 30
        E 146 92 34 61
        E 313 82 34 07
        E 151 92 32 60
        E 1272 82 32 1e
        E 214 92 32 61
        E 342 82 32 3b
        E 125 92 37 5b
        E 383 82 37 27
        E 94 92 36 63
        E 215 82 36 3f
        E 120 92 34 61
        E 102 82 34 40
        E 61 92 32 5f
        E 348 82 32 01
        E 111 92 30 63
        E 365 82 30 26
        E 101 92 2f 66
        E 235 82 2f 2c
        E 93 92 30 5d
        E 115 82 30 22
        E 44 92 32 61
        E 377 82 32 3d
        E 98 92 37 62
        E 359 82 37 11
        E 114 92 35 67
        E 422 82 35 25
        E 85 92 34 61
        E 321 82 34 34
        E 149 92 34 60
        E 366 82 34 10
        E 108 92 32 5f
        E 373 82 32 24
        E 102 92 32 63
        E 223 82 32 44
        E 121 92 32 62
        E 105 82 32 14
        E 57 92 37 5f
        E 1259 82 37 26
        E 170 92 37 62
        E 162 92 34 61
        E 2 82 37 15
        E 121 82 34 36
        E 14 92 37 59
        E 170 82 37 0a
        E 28 92 30 66
        E 390 82 30 2f
        E 77 92 30 62
        E 221 82 30 32
        E 98 92 34 53
        E 119 82 34 1c
        E 46 92 37 5f
        E 362 82 37 23
        E 136 92 37 62
        E 307 82 37 26
        E 167 92 39 63
        E 612 82 39 1a
        E 90 92 37 5b
        E 152 82 37 1b
        E 83 92 39 62
        E 360 82 39 22
        E 126 92 36 66
        E 397 82 36 2a
        E 74 92 34 64
        E 249 82 34 2e
        E 77 92 36 62
        E 102 82 36 44
        E 66 92 37 5d
        E 155 82 37 20
        E 135 92 39 5e
        E 126 82 39 2c
        E 59 92 3a 68
        E 410 82 3a 26
        E 82 92 39 68
        E 317 82 39 24
        E 151 92 39 66
        E 1227 82 39 02
        E 217 92 37 65
        E 143 92 34 65
        E 14 82 37 1a
        E 105 82 34 47
        E 16 92 37 58
        E 100 82 37 48
        E 124 92 3c 69
        E 397 82 3c 02
        E 59 92 34 66
        E 283 82 34 38
        E 39 92 37 5b
        E 107 82 37 2b
        E 77 92 37 65
        E 354 82 37 36
        E 112 92 37 62
        E 299 82 37 10
        E 165 92 39 63
        E 627 82 39 24
        E 92 92 37 5b
        E 178 82 37 0f
        E 70 92 39 60
        E 396 82 39 09
        E 63 92 32 5f
        E 330 82 32 0d
        E 160 92 31 69
        E 262 82 31 36
        E 54 92 32 62
        E 145 82 32 37
        E 35 92 34 60
        E 187 82 34 26
        E 97 92 36 61
        E 116 82 36 43
        E 72 92 37 5f
        E 363 82 37 1a
        E 109 92 39 65
        E 314 82 39 19
        E 170 92 39 5b
        E 1 92 36 5b
        E 1360 82 39 36
        E 7 82 36 50
        E 550 92 2b 69
        E 165 82 2b 3d
        E 74 92 37 5b
        E 152 82 37 30
        E 90 92 36 68
        E 144 82 36 2f
        E 93 92 34 63
        E 127 82 34 2a
        E 113 92 32 61
        E 143 82 32 31
        E 92 92 34 5e
        E 134 82 34 3a
        E 111 92 32 52
        E 186 82 32 01
        E 52 92 30 61
        E 132 82 30 2b
        E 114 92 2f 68
        E 220 82 2f 28
        E 97 92 30 5e
        E 113 82 30 32
        E 51 92 32 62
        E 329 82 32 15
        E 133 92 2b 62
        E 319 82 2b 36
        E 172 92 35 69
        E 157 82 35 33
        E 79 92 37 5c
        E 160 82 37 35
        E 87 92 34 62
        E 166 82 34 10
        E 68 92 37 5a
        E 154 82 37 26
        E 87 92 33 66
        E 195 82 33 22
        E 38 92 37 5a
        E 158 82 37 31
        E 80 92 32 62
        E 177 82 32 0d
        E 70 92 37 56
        E 145 82 37 2a
        E 101 92 34 5e
        E 307 82 34 0b
        E 189 92 32 60
        E 1202 82 32 3a
        E 237 92 32 62
        E 372 82 32 0a
        E 77 92 2b 66
        E 186 82 2b 01
        E 50 92 37 5f
        E 163 82 37 1f
        E 82 92 36 65
        E 161 82 36 28
        E 82 92 34 61
        E 147 82 34 2c
        E 93 92 32 60
        E 192 82 32 20
        E 44 92 34 61
        E 161 82 34 32
        E 70 92 32 5f
        E 228 82 32 2d
        E 12 92 30 57
        E 189 82 30 28
        E 68 92 2f 5e
        E 434 82 2f 3e
        E 60 92 39 61
        E 394 82 39 1c
        E 83 92 37 5d
        E 411 82 37 1b
        E 89 92 36 62
        E 380 82 36 30
        E 89 92 34 64
        E 397 82 34 20
        E 93 92 35 67
        E 214 82 35 30
        E 91 92 34 5d
        E 130 82 34 3f
        E 45 92 39 63
        E 359 82 39 3b
        E 101 92 3b 5a
        E 349 82 3b 0c
        E 117 92 3c 61
        E 988 92 30 66
        E 80 82 3c 4a
        E 613 82 30 37
        E 90 92 30 64
        E 110 82 30 3e
        E 58 92 32 67
        E 647 82 32 2e
        E 142 92 32 65
        E 98 82 32 42
        E 68 92 32 65
        E 604 82 32 3e
        E 175 92 32 67
        E 156 82 32 40
        E 32 92 2b 6e
        E 1467 82 2b 5f
        E 460 b0 7b 00
        GUID {7CFCA42C-E00C-4D4D-AE48-05FEFA037692}
        IGNTEMPO 0 120 4 4
        SRCCOLOR 953
        VELLANE -1 86 6
        CFGEDITVIEW 0 0 66 22 0 0 0 0 0 0.5
        KEYSNAP 0
        TRACKSEL 226
        EVTFILTER 0 -1 -1 -1 -1 0 0 0 0 -1 -1 -1 -1 0 -1 0 -1 -1
        CFGEDIT 1 0 0 0 0 0 1 0 1 1 1 0.25 16 63 1280 778 0 0 2 3 0 0 0 0 0 0.5 0 0 1 64
      >
    >
  >
  <TRACK {3C494A2B-9670-9740-AD22-E42CC5065FE1}
    NAME "ch2,4 (send)"
    PEAKCOL 16576
    BEAT -1
    AUTOMODE 0
    VOLPAN 1 0 -1 -1 1
    MUTESOLO 0 0 0
    IPHASE 0
    ISBUS 0 0
    BUSCOMP 0 0
    SHOWINMIX 1 0.6667 0.290323 1 0.5 0 0 0
    FREEMODE 0
    SEL 0
    REC 0 0 0 0 0 0 0
    VU 2
    MIDICTL -1 1
    TRACKHEIGHT 228 0
    INQ 0 0 0 0.5 100 0 0 100
    NCHAN 2
    FX 1
    TRACKID {3C494A2B-9670-9740-AD22-E42CC5065FE1}
    PERF 0
    MIDIOUT -1
    MAINSEND 1 0
    <FXCHAIN
      WNDRECT 32 359 724 387
      SHOW 0
      LASTSEL 0
      DOCKED 0
    >
    <ITEM
      POSITION 0
      SNAPOFFS 0
      LENGTH 52.5
      LOOP 1
      ALLTAKES 0
      FADEIN 1 0 0 1 0 0
      FADEOUT 1 0 0 1 0 0
      MUTE 0
      SEL 0
      YPOS 0.815029 0.184971
      IGUID {ECF223E6-473D-C84A-BA72-28AAFD4307BE}
      IID 11
      NAME "fr. horn(s) - National_Anthems_-_Andorra.mid"
      VOLPAN 1 0 1 -1
      SOFFS 0 0
      PLAYRATE 1 1 0 -1 0 0.0025
      CHANMODE 0
      TAKECOLOR 26173599 B
      GUID {630044D5-684A-434E-AA41-89FDF4A4CD55}
      <SOURCE MIDI
        HASDATA 1 480 QN
        POOLEDEVTS {9FA80DB5-09C1-344F-8584-BE6846A3B512}
        <X 0 0 0 0 3 "fr. horn(s)"
          /wNmci4gaG9ybihzKQ==
        >
        <X 0 0 0 0 4 "Sound Canvas"
          /wRTb3VuZCBDYW52YXM=
        >
        e 0 90 3e 7f
        e 120 80 3e 3d
        e 0 90 3b 7f -1
        e 171 80 3b 01 -1
        e 9 90 3e 7f -9
        e 95 80 3e 26 -9
        e 85 90 3b 7f 1
        e 0 90 3e 7f
        e 367 80 3b 1a 1
        e 11 80 3e 37
        e 102 90 3b 7f -23
        e 0 90 3e 7f -28
        e 219 80 3b 27 -23
        e 14 80 3e 35 -28
        e 67 90 3b 7f -4
        e 0 90 3e 7f -12
        e 72 80 3b 31 -4
        e 30 80 3e 35 -12
        e 78 90 3e 7f -25
        e 0 90 42 7f -23
        e 356 80 3e 0b -25
        e 22 80 42 32 -23
        e 102 90 3e 7f -27
        e 0 90 42 7f
        e 327 80 3e 02 -27
        e 74 80 42 12
        e 79 90 3e 7f -20
        e 0 90 43 7f -21
        e 611 80 3e 27 -20
        e 92 80 43 4e -21
        e 17 90 3e 7f -13
        e 0 90 42 7f -14
        e 146 80 3e 39 -13
        e 48 80 42 29 -14
        e 46 90 3b 7f -17
        e 0 90 3e 7f -18
        e 377 80 3e 36 -18
        e 30 80 3b 29 -17
        e 73 90 3e 7f -13
        e 391 80 3e 05 -13
        e 89 90 3e 7f -2
        e 0 90 43 7f 1
        e 456 80 3e 42 -2
        e 24 90 3c 7f
        e 396 80 3c 39
        e 84 90 3e 7f -20
        e 435 80 43 49 1
        e 17 80 3e 29 -20
        e 28 90 3b 7f -28
        e 480 90 3e 7f -14
        e 0 90 43 7f -14
        e 18 80 3b 28 -28
        e 425 80 43 48 -14
        e 37 90 42 7f -29
        e 253 80 42 36 -29
        e 47 90 40 7f 1
        e 154 80 40 4a 1
        e 26 90 42 7f -21
        e 376 80 3e 30 -14
        e 10 80 42 3e -21
        e 94 90 3e 7f -6
        e 120 90 3b 7f 10
        e 14 80 3e 2a -6
        e 151 80 3b 23 10
        e 15 90 3e 7f -6
        e 96 80 3e 1b -6
        e 84 90 3b 7f -8
        e 0 90 3e 7f -10
        e 388 80 3e 34 -10
        e 4 80 3b 0b -8
        e 88 90 3b 7f -13
        e 0 90 3e 7f -15
        e 233 80 3b 23 -13
        e 1 80 3e 2d -15
        e 66 90 3b 7f 23
        e 0 90 3e 7f 19
        e 96 80 3b 21 23
        e 10 80 3e 25 19
        e 74 90 3e 7f 12
        e 0 90 42 7f 14
        e 364 80 3e 2d 12
        e 6 80 42 45 14
        e 110 90 3e 7f 3
        e 0 90 42 7f
        e 305 80 3e 0e 3
        e 49 80 42 2c
        e 126 90 3e 7f -17
        e 0 90 43 7f -18
        e 612 80 3e 33 -17
        e 108 90 3c 7f -17
        e 0 90 42 7f -23
        e 15 80 43 27 -18
        e 126 80 3c 2d -17
        e 69 80 42 35 -23
        e 30 90 3b 7f -7
        e 0 90 3e 7f -10
        e 371 80 3e 28 -10
        e 39 80 3b 12 -7
        e 70 90 3e 7f -3
        e 353 80 3e 14 -3
        e 127 90 3e 7f -4
        e 0 90 43 7f -8
        e 440 80 3e 3e -4
        e 40 90 3c 7f
        e 466 80 3c 2d
        e 14 90 3e 7f
        e 379 80 3e 09
        e 66 80 43 3c -8
        e 35 90 3e 7f -12
        e 0 90 42 7f -11
        e 208 80 42 21 -11
        e 23 80 3e 1f -12
        e 69 90 3e 7f 21
        e 0 90 42 7f
        e 89 80 42 3f
        e 2 80 3e 36 21
        e 89 90 3b 7f -7
        e 0 90 3e 7f -9
        e 848 80 3b 29 -7
        e 6 80 3e 3b -9
        e 106 90 3b 7f -8
        e 0 90 3e 7f -14
        e 272 80 3e 0e -14
        e 17 80 3b 1c -8
        e 191 90 43 7f -7
        e 120 90 40 7f 23
        e 28 80 43 42 -7
        e 100 80 40 15 23
        e 52 90 43 7f -17
        e 92 80 43 3e -17
        e 88 90 40 7f -11
        e 0 90 43 7f -9
        e 418 80 43 22 -9
        e 10 80 40 06 -11
        e 52 90 40 7f 10
        e 0 90 43 7f 8
        e 218 80 40 1e 10
        e 0 80 43 37 8
        e 82 90 40 7f 18
        e 0 90 43 7f 17
        e 80 80 40 28 18
        e 8 80 43 3d 17
        e 92 90 3e 7f 8
        e 0 90 43 7f 5
        e 357 80 3e 26 8
        e 0 80 43 39 5
        e 123 90 3e 7f -12
        e 0 90 43 7f -19
        e 310 80 3e 08 -12
        e 52 80 43 37 -19
        e 118 90 3e 7f -21
        e 0 90 42 7f -27
        e 720 80 42 08 -27
        e 0 90 43 7f -10
        e 209 80 43 32 -10
        e 31 90 42 7f 2
        e 335 80 42 34 2
        e 145 90 42 7f
        e 155 80 3e 2b -21
        e 79 80 42 3f
        e 66 90 42 7f 13
        e 88 80 42 3f 13
        e 92 90 43 7f 25
        e 431 80 43 4d 25
        e 49 90 40 7f -22
        e 480 90 3d 7f -15
        e 2 80 40 29 -22
        e 422 80 3d 32 -15
        e 56 90 3d 7f 6
        e 386 80 3d 31 6
        e 94 90 3e 7f
        e 694 80 3e 2b
        e 26 90 3d 7f -1
        e 218 80 3d 3a -1
        e 22 90 3e 7f -18
        e 327 80 3e 1c -18
        e 153 90 43 7f -4
        e 112 80 43 3a -4
        e 8 90 40 7f 12
        e 138 80 40 21 12
        e 42 90 43 7f -16
        e 84 80 43 45 -16
        e 96 90 40 7f -13
        e 0 90 43 7f -7
        e 405 80 43 33 -7
        e 15 80 40 31 -13
        e 60 90 40 7f 3
        e 0 90 43 7f 4
        e 346 80 43 18 4
        e 37 80 40 2b 3
        e 97 90 3e 7f -1
        e 0 90 43 7f -4
        e 376 80 3e 14 -1
        e 10 80 43 37 -4
        e 94 90 3e 7f -4
        e 0 90 43 7f -8
        e 230 80 3e 21 -4
        e 5 80 43 3c -8
        e 65 90 3e 7f 14
        e 0 90 43 7f 14
        e 77 80 3e 2c 14
        e 15 80 43 43 14
        e 88 90 3e 7f 11
        e 0 90 42 7f 12
        e 646 80 42 29 12
        e 74 90 43 7f -24
        e 209 80 43 3d -24
        e 31 90 42 7f -9
        e 343 80 42 4d -9
        e 137 90 42 7f 13
        e 179 80 42 3c 13
        e 121 90 42 7f 38
        e 102 80 42 42 38
        e 25 80 3e 01 11
        e 53 90 40 7f 9
        e 0 90 43 7f 8
        e 797 80 40 3a 9
        e 134 80 43 4c 8
        e 29 90 3d 7f -6
        e 0 90 40 7f -4
        e 841 80 3d 01 -6
        e 105 80 40 23 -4
        e 14 90 3e 7f
        e 1361 80 3e 06
        e 79 90 3e 7f 26
        e 152 80 3e 2f 26
        e 28 90 3b 7f -10
        e 120 90 3e 7f 14
        e 23 80 3b 18 -10
        e 84 80 3e 2d 14
        e 73 90 3b 7f
        e 0 90 3e 7f
        e 576 80 3b 27
        e 0 80 3e 3b
        e 84 90 3b 7f 23
        e 0 90 3e 7f 23
        e 144 80 3e 25 23
        e 17 80 3b 2a 23
        e 139 90 3e 7f -25
        e 0 90 42 7f -22
        e 233 80 42 3f -22
        e 1 80 3e 35 -25
        e 66 90 3e 7f -4
        e 0 90 42 7f -5
        e 81 80 3e 3e -4
        e 7 80 42 46 -5
        e 32 90 3e 7f 19
        e 0 90 42 7f 18
        e 231 80 3e 32 19
        e 0 80 42 3e 18
        e 129 90 3e 7f -19
        e 0 90 42 7f -27
        e 71 80 3e 37 -19
        e 28 80 42 46 -27
        e 21 90 3e 7f 28
        e 0 90 43 7f 26
        e 610 80 3e 30 28
        e 81 80 43 01 26
        e 89 90 3e 7f -20
        e 0 90 42 7f -21
        e 136 80 3e 25 -20
        e 50 80 42 13 -21
        e 54 90 3b 7f -2
        e 0 90 3e 7f -6
        e 431 80 3b 40 -2
        e 14 80 3e 27 -6
        e 515 90 3e 7f -8
        e 0 90 43 7f -8
        e 461 80 3e 34 -8
        e 19 90 3c 7f -20
        e 378 80 43 3c -8
        e 8 80 3c 2f -20
        e 94 90 3b 7f -17
        e 0 90 43 7f -20
        e 378 80 3b 1d -17
        e 92 80 43 47 -20
        e 10 90 3b 7f -15
        e 0 90 3e 7f -15
        e 219 80 3b 28 -15
        e 0 80 3e 2c -15
        e 81 90 3b 7f 16
        e 0 90 3e 7f 18
        e 74 80 3b 24 16
        e 5 80 3e 27 18
        e 101 90 3e 7f 1
        e 0 90 43 7f
        e 451 80 43 40
        e 29 90 42 7f -15
        e 218 80 42 3b -15
        e 22 90 40 7f -19
        e 180 90 42 7f 25
        e 31 80 40 4e -19
        e 315 80 3e 20 1
        e 17 80 42 2d 25
        e 117 90 3e 7f 25
        e 154 80 3e 36 25
        e 26 90 3b 7f -4
        e 120 90 3e 7f 29
        e 27 80 3b 20 -4
        e 61 80 3e 2e 29
        e 152 90 3b 7f -14
        e 0 90 3e 7f -16
        e 390 80 3e 37 -16
        e 4 80 3b 13 -14
        e 86 90 3b 7f -6
        e 0 90 3e 7f -10
        e 211 80 3b 22 -6
        e 9 80 3e 39 -10
        e 80 90 3b 7f 13
        e 0 90 3e 7f 9
        e 79 80 3b 35 13
        e 6 80 3e 38 9
        e 95 90 3e 7f -11
        e 0 90 42 7f -12
        e 359 80 3e 2c -11
        e 3 80 42 38 -12
        e 58 90 42 7f 28
        e 60 90 3e 7f -30
        e 174 80 42 37 28
        e 63 80 3e 2a -30
        e 63 90 3e 7f 7
        e 0 90 42 7f 3
        e 106 80 3e 3e 7
        e 18 80 42 4b 3
        e 56 90 3f 7f
        e 0 90 42 7f 2
        e 1259 80 3f 18
        e 66 80 42 1e 2
        e 115 90 3f 7f 17
        e 0 90 45 7f 24
        e 215 80 45 39 24
        e 7 80 3f 23 17
        e 78 90 3f 7f 14
        e 0 90 45 7f 29
        e 89 80 45 2d 29
        e 3 80 3f 2f 14
        e 88 90 40 7f 21
        e 0 90 44 7f 13
        e 342 80 40 22 21
        e 94 80 44 01 13
        e 44 90 40 7f -4
        e 0 90 47 7f -5
        e 334 80 40 01 -4
        e 90 80 47 3a -5
        e 56 90 40 7f -6
        e 0 90 45 7f -4
        e 354 80 40 27 -6
        e 43 80 45 23 -4
        e 83 90 3e 7f -1
        e 0 90 44 7f -17
        e 345 80 3e 01 -1
        e 95 80 44 3f -17
        e 40 90 3c 7f -12
        e 0 90 40 7f -20
        e 754 80 3c 3d -12
        e 34 80 40 2d -20
        e 172 90 37 7f -18
        e 0 90 40 7f -11
        e 585 80 37 1f -18
        e 22 80 40 0b -11
        e 173 90 39 7f 24
        e 0 90 40 7f 20
        e 0 90 43 7f 26
        e 99 80 40 3a 20
        e 5 80 43 01 26
        e 9 80 39 06 24
        e 67 90 3b 7f
        e 0 90 3e 7f 5
        e 0 90 43 7f
        e 612 80 3b 23
        e 1 80 3e 2e 5
        e 7 80 43 2a
        e 160 90 3b 7f 1
        e 0 90 3e 7f 3
        e 0 90 43 7f -2
        e 101 80 3e 36 3
        e 1 80 3b 2b 1
        e 3 80 43 28 -2
        e 75 90 39 7f 12
        e 0 90 3e 7f 10
        e 0 90 43 7f 4
        e 612 80 39 01 12
        e 16 80 3e 17 10
        e 57 80 43 45 4
        e 95 90 39 7f 21
        e 0 90 3e 7f 21
        e 0 90 42 7f 21
        e 101 80 39 3c 21
        e 7 80 3e 29 21
        e 5 80 42 45 21
        e 67 90 3b 7f 20
        e 0 90 3e 7f 21
        e 1417 80 3e 53 21
        e 7 80 3b 53 20
        E 496 b0 7b 00
        GUID {71C82EDB-E872-D54A-B3A6-C3B8EE803E2F}
        IGNTEMPO 0 120 4 4
        SRCCOLOR 935
        VELLANE -1 86 6
        CFGEDITVIEW 23198.385214 165.64797 0 7 0 0 0 0 0 0.5
        KEYSNAP 0
        TRACKSEL 209
        EVTFILTER 0 -1 -1 -1 -1 0 1 0 0 -1 -1 -1 -1 0 -1 0 -1 -1
        CFGEDIT 1 0 0 0 0 0 1 0 1 1 1 0.25 16 20 1920 1178 0 0 2 3 0 0 0 0 0 0.5 0 0 1 64
      >
      TAKE
      NAME "fr. horn(s) - National_Anthems_-_Andorra.mid"
      TAKEVOLPAN 0 1 -1
      SOFFS 0 0
      PLAYRATE 1 1 0 -1 0 0.0025
      CHANMODE 0
      GUID {0B0F0BEB-1BCC-DC40-994B-2328E806E5F7}
      <SOURCE MIDI
        HASDATA 1 480 QN
        POOLEDEVTS {9CBA91B3-529A-E54C-AFCE-2BFF7EECAD02}
        <X 0 0 0 0 3 "fr. horn(s)"
          /wNmci4gaG9ybihzKQ==
        >
        <X 0 0 0 0 4 "Sound Canvas"
          /wRTb3VuZCBDYW52YXM=
        >
        E 0 91 3e 62
        E 119 91 3b 52
        E 1 81 3e 3d
        E 170 81 3b 01
        E 1 91 3e 63
        E 95 81 3e 26
        E 94 91 3e 62
        E 1 91 3b 52
        E 367 81 3b 1a
        E 10 81 3e 37
        E 74 91 3e 5b
        E 5 91 3b 58
        E 219 81 3b 27
        E 9 81 3e 35
        E 83 91 3e 59
        E 8 91 3b 58
        E 72 81 3b 31
        E 22 81 3e 35
        E 65 91 3e 60
        E 2 91 42 65
        E 354 81 3e 0b
        E 24 81 42 32
        E 89 91 42 5b
        E 9 91 3e 5f
        E 327 81 3e 02
        E 65 81 42 12
        E 94 91 43 69
        E 1 91 3e 62
        E 611 81 3e 27
        E 91 81 43 4e
        E 24 91 42 5b
        E 1 91 3e 5d
        E 146 81 3e 39
        E 47 81 42 29
        E 42 91 3e 5d
        E 1 91 3b 50
        E 376 81 3e 36
        E 31 81 3b 29
        E 77 91 3e 62
        E 391 81 3e 05
        E 100 91 3e 5e
        E 3 91 43 61
        E 446 91 3c 51
        E 7 81 3e 42
        E 478 81 3c 39
        E 8 91 3e 4f
        E 452 81 3e 29
        E 4 81 43 49
        E 16 91 3b 4f
        E 494 91 3e 56
        E 0 91 43 63
        E 4 81 3b 28
        E 439 81 43 48
        E 22 91 42 5a
        E 253 81 42 36
        E 77 91 40 4e
        E 154 81 40 4a
        E 4 91 42 5a
        E 383 81 3e 30
        E 3 81 42 3e
        E 109 91 3e 59
        E 134 81 3e 2a
        E 2 91 3b 4a
        E 164 91 3e 56
        E 1 81 3b 23
        E 95 81 3e 1b
        E 80 91 3e 59
        E 2 91 3b 48
        E 386 81 3e 34
        E 6 81 3b 0b
        E 81 91 3e 57
        E 2 91 3b 4c
        E 232 81 3e 2d
        E 1 81 3b 23
        E 99 91 3e 53
        E 4 91 3b 52
        E 96 81 3b 21
        E 6 81 3e 25
        E 67 91 3e 57
        E 2 91 42 62
        E 362 81 3e 2d
        E 8 81 42 45
        E 96 91 42 62
        E 3 91 3e 55
        E 305 81 3e 0e
        E 46 81 42 2c
        E 108 91 43 67
        E 1 91 3e 5d
        E 612 81 3e 33
        E 102 91 42 62
        E 6 91 3c 55
        E 14 81 43 27
        E 127 81 3c 2d
        E 63 81 42 35
        E 43 91 3e 5a
        E 3 91 3b 52
        E 368 81 3e 28
        E 42 81 3b 12
        E 74 91 3e 64
        E 353 81 3e 14
        E 122 91 43 60
        E 4 91 3e 59
        E 440 81 3e 3e
        E 7 91 3c 53
        E 466 81 3c 2d
        E 19 91 3e 4b
        E 379 81 3e 09
        E 90 81 43 3c
        E 31 91 3e 57
        E 1 91 42 56
        E 208 81 42 21
        E 22 81 3e 1f
        E 98 91 42 58
        E 4 91 3e 57
        E 91 81 3e 36
        E 30 81 42 3f
        E 29 91 3e 55
        E 2 91 3b 4d
        E 848 81 3b 29
        E 4 81 3e 3b
        E 101 91 3e 4d
        E 6 91 3b 4e
        E 266 81 3e 0e
        E 23 81 3b 1c
        E 192 91 43 66
        E 148 81 43 42
        E 2 91 40 5c
        E 128 81 40 15
        E 12 91 43 58
        E 92 81 43 3e
        E 94 91 40 53
        E 2 91 43 5a
        E 418 81 43 22
        E 8 81 40 06
        E 71 91 43 5d
        E 2 91 40 4c
        E 216 81 43 37
        E 2 81 40 1e
        E 89 91 43 4f
        E 1 91 40 4b
        E 80 81 40 28
        E 7 81 43 3d
        E 80 91 43 60
        E 3 91 3e 56
        E 354 81 43 39
        E 3 81 3e 26
        E 96 91 43 60
        E 7 91 3e 55
        E 310 81 3e 08
        E 45 81 43 37
        E 110 91 42 55
        E 6 91 3e 53
        E 714 81 42 08
        E 17 91 43 62
        E 209 81 43 32
        E 43 91 42 5d
        E 335 81 42 34
        E 141 91 42 68
        E 136 81 3e 2b
        E 151 81 42 3f
        E 63 91 42 62
        E 122 81 42 45
        E 35 91 43 67
        E 431 81 43 4d
        E 2 91 40 60
        E 482 81 40 29
        E 5 91 3d 5b
        E 424 81 3d 32
        E 77 91 3d 62
        E 386 81 3d 31
        E 88 91 3e 5f
        E 694 81 3e 2b
        E 25 91 3d 5d
        E 218 81 3d 3a
        E 5 91 3e 53
        E 327 81 3e 1c
        E 167 91 43 64
        E 112 81 43 3a
        E 24 91 40 4e
        E 138 81 40 21
        E 14 91 43 5a
        E 84 81 43 45
        E 99 91 40 55
        E 6 91 43 62
        E 405 81 43 33
        E 9 81 40 31
        E 76 91 40 51
        E 1 91 43 60
        E 346 81 43 18
        E 36 81 40 2b
        E 90 91 43 5d
        E 3 91 3e 5b
        E 376 81 3e 14
        E 7 81 43 37
        E 90 91 43 68
        E 4 91 3e 5c
        E 230 81 3e 21
        E 1 81 43 3c
        E 120 91 43 60
        E 2 91 3e 59
        E 77 81 3e 2c
        E 13 81 43 43
        E 52 91 3e 5c
        E 1 91 42 63
        E 646 81 42 29
        E 38 91 43 6b
        E 209 81 43 3d
        E 46 91 42 65
        E 343 81 42 4d
        E 159 91 42 6c
        E 179 81 42 3c
        E 146 91 42 63
        E 100 81 3e 01
        E 2 81 42 42
        E 48 91 43 66
        E 1 91 40 60
        E 797 81 40 3a
        E 133 81 43 4c
        E 15 91 3d 4a
        E 2 91 40 5b
        E 839 81 3d 01
        E 107 81 40 23
        E 2 91 3e 5c
        E 1173 81 3e 06
        E 309 91 3e 5f
        E 144 91 3b 51
        E 8 81 3e 2f
        E 135 81 3b 18
        E 1 91 3e 54
        E 107 81 3e 2d
        E 59 91 3e 56
        E 0 91 3b 4d
        E 576 81 3e 3b
        E 0 81 3b 27
        E 107 91 3e 52
        E 0 91 3b 53
        E 144 81 3e 25
        E 17 81 3b 2a
        E 91 91 3e 5d
        E 3 91 42 61
        E 231 81 3e 35
        E 2 81 42 3f
        E 84 91 42 5b
        E 1 91 3e 57
        E 81 81 3e 3e
        E 6 81 42 46
        E 55 91 42 66
        E 1 91 3e 5a
        E 230 81 42 3e
        E 1 81 3e 32
        E 83 91 42 5d
        E 8 91 3e 56
        E 71 81 3e 37
        E 20 81 42 46
        E 74 91 43 66
        E 2 91 3e 58
        E 610 81 3e 30
        E 79 81 43 01
        E 42 91 42 5f
        E 1 91 3e 55
        E 136 81 3e 25
        E 49 81 42 13
        E 69 91 3e 57
        E 4 91 3b 4f
        E 431 81 3b 40
        E 10 81 3e 27
        E 513 91 43 61
        E 0 91 3e 59
        E 461 81 3e 34
        E 7 91 3c 50
        E 386 81 3c 2f
        E 4 81 43 3c
        E 90 91 43 62
        E 3 91 3b 4f
        E 378 81 3b 1d
        E 89 81 43 47
        E 15 91 3b 4f
        E 0 91 3e 56
        E 219 81 3b 28
        E 0 81 3e 2c
        E 112 91 3b 43
        E 2 91 3e 49
        E 72 81 3b 24
        E 7 81 3e 27
        E 83 91 43 57
        E 1 91 3e 53
        E 450 81 43 40
        E 14 91 42 5a
        E 218 81 42 3b
        E 18 91 40 4e
        E 211 81 40 4e
        E 13 91 42 56
        E 322 81 3e 20
        E 41 81 42 2d
        E 117 91 3e 5a
        E 151 91 3b 4d
        E 3 81 3e 36
        E 144 81 3b 20
        E 6 91 3e 59
        E 88 81 3e 2e
        E 107 91 3e 56
        E 2 91 3b 4c
        E 388 81 3e 37
        E 6 81 3b 13
        E 90 91 3e 5d
        E 4 91 3b 4d
        E 211 81 3b 22
        E 5 81 3e 39
        E 99 91 3e 52
        E 4 91 3b 52
        E 79 81 3b 35
        E 2 81 3e 38
        E 74 91 42 5e
        E 1 91 3e 5e
        E 359 81 3e 2c
        E 2 81 42 38
        E 98 91 42 61
        E 2 91 3e 57
        E 232 81 42 37
        E 5 81 3e 2a
        E 96 91 42 5b
        E 4 91 3e 56
        E 106 81 3e 3e
        E 14 81 42 4b
        E 53 91 3f 51
        E 2 91 42 5f
        E 1257 81 3f 18
        E 68 81 42 1e
        E 130 91 3f 5f
        E 7 91 45 63
        E 215 81 3f 23
        E 0 81 45 39
        E 75 91 3f 52
        E 15 91 45 60
        E 77 81 3f 2f
        E 12 81 45 2d
        E 75 91 44 5f
        E 8 91 40 5e
        E 342 81 40 22
        E 86 81 44 01
        E 26 91 47 5d
        E 1 91 40 5b
        E 334 81 40 01
        E 89 81 47 3a
        E 55 91 40 56
        E 2 91 45 55
        E 352 81 40 27
        E 45 81 45 23
        E 70 91 44 51
        E 16 91 3e 5a
        E 345 81 3e 01
        E 79 81 44 3f
        E 37 91 40 5a
        E 8 91 3c 4f
        E 754 81 3c 3d
        E 26 81 40 2d
        E 174 91 37 45
        E 7 91 40 50
        E 578 81 37 1f
        E 29 81 40 0b
        E 204 91 40 50
        E 4 91 39 48
        E 2 91 43 5b
        E 93 81 40 3a
        E 11 81 43 01
        E 7 81 39 06
        E 43 91 3b 4f
        E 0 91 43 55
        E 5 91 3e 52
        E 607 81 3b 23
        E 6 81 3e 2e
        E 2 81 43 2a
        E 158 91 43 62
        E 3 91 3b 53
        E 2 91 3e 53
        E 100 81 43 28
        E 0 81 3b 2b
        E 1 81 3e 36
        E 80 91 43 63
        E 6 91 3e 5f
        E 2 91 39 50
        E 612 81 39 01
        E 14 81 3e 17
        E 51 81 43 45
        E 112 91 39 52
        E 0 91 42 5d
        E 0 91 3e 5a
        E 101 81 39 3c
        E 7 81 3e 29
        E 5 81 42 45
        E 66 91 3b 53
        E 1 91 3e 5e
        E 1417 81 3e 53
        E 6 81 3b 53
        E 476 b0 7b 00
        GUID {5503B13E-D8D6-144D-A121-02779C9DCDB6}
        IGNTEMPO 0 120 4 4
        SRCCOLOR 956
        VELLANE -1 86 6
        CFGEDITVIEW 0 0 0 7 0 0 0 0 0 0.5
        KEYSNAP 0
        TRACKSEL 226
        EVTFILTER 0 -1 -1 -1 -1 0 0 0 0 -1 -1 -1 -1 0 -1 0 -1 -1
        CFGEDIT 1 0 0 0 0 0 1 0 1 1 1 0.25 16 20 1920 1178 0 0 2 3 0 0 0 0 0 0.5 0 0 1 64
      >
    >
  >
  <TRACK {97C14EE2-C273-C940-9D68-54C062C3CBCA}
    NAME ChipFront
    PEAKCOL 16576
    BEAT -1
    AUTOMODE 0
    VOLPAN 0.3981071705535 0 -1 -1 1
    MUTESOLO 0 0 0
    IPHASE 0
    ISBUS 0 0
    BUSCOMP 0 0
    SHOWINMIX 1 0.6667 0.290323 1 0.5 0 0 0
    FREEMODE 0
    SEL 0
    REC 0 0 0 0 0 0 0
    VU 2
    TRACKHEIGHT 0 0
    INQ 0 0 0 0.5 100 0 0 100
    NCHAN 2
    FX 1
    TRACKID {97C14EE2-C273-C940-9D68-54C062C3CBCA}
    PERF 0
    AUXRECV 9 0 1 0 0 0 0 0 0 -1:U 0 -1 ''
    MIDIOUT -1
    MAINSEND 1 0
    <FXCHAIN
      SHOW 0
      LASTSEL 0
      DOCKED 0
      BYPASS 0 0 0
      <VST "VST: FabFilter Volcano 2 (SC) (FabFilter)" "FabFilter Volcano 2 (SC).vst" 0 "" 1180054068
        NDJWRu9e7f4EAAAAAQAAAAAAAAACAAAAAAAAAAQAAAAAAAAACAAAAAAAAAAEAAAAAQAAAAAAAAACAAAAAAAAAAQAAAAAAAAACAAAAAAAAADcCwAAAAAAAAAAEAA=
        776t3g3wrd4AAAA/AAAAPwAAAD8AAAA/AACAPwAAAAAAAAA/q6qqPq2+aD8AAAA/ig0yPM3MzD0AAAAAAAAAAAAAAAAAAIA/AACAP0Isdj8AAAA/bbDgPZqZGT8AAAAA
        AAAAAOev3zwAAIA/AAAAAAAAgD8AAAA/AAAAAJqZGT8AAAAAAAAAAAAAAAAAAIA/AAAAAAAAgD8AAAA/AAAAAJqZGT8AAAAAAAAAAAAAAAAAAIA/AAAAAKuqqj4ATrI+
        AAAAPwAAAADBykk/XXRRPwAAAACJiIg9AACAP6oXiD4AAAAAAAAAAAAAAAAAAAAAAACAPwAAAAAAAAA/AAAAAAAAAAAAAAAAAAAAPwAAAAAAAAAAAAAAAAAAAD8AAAAA
        AAAAAAAAAAAAAAA/AAAAAAAAAAAAAAAAAAAAPwAAAAAAAAAAAAAAAAAAAD8AAAAAAAAAAAAAAAAAAAA/AAAAAAAAAAAAAAAAAAAAPwAAAAAAAAAAAAAAAAAAAD8AAAAA
        AAAAAAAAAAAAAAA/AAAAAAAAAAAAAAAAAAAAPwAAAAAAAAAAAAAAAAAAAD8AAAAAAAAAAAAAAAAAAAA/AAAAAAAAAAAAAAAAAAAAPwAAAAAAAAAAAAAAAHwZED4AAAA/
        KKO3PQAAgD8AAAAAAAAAAImIiD3y0iU/AAAAAAAAgD8AAAAAdGjRPQAAAAAAAIA/AAAAAAAAAD8AAAAAAAAAAAAAAAAAAAA/AAAAAAAAAAAAAAAAAAAAPwAAAAAAAAAA
        AAAAAAAAAD8AAAAAAAAAAAAAAAAAAAA/AAAAAAAAAAAAAAAAAAAAPwAAAAAAAAAAAAAAAAAAAD8AAAAAAAAAAAAAAAAAAAA/AAAAAAAAAAAAAAAAAAAAPwAAAAAAAAAA
        AAAAAAAAAD8AAAAAAAAAAAAAAAAAAAA/AAAAAAAAAAAAAAAAAAAAPwAAAAAAAAAAAAAAAAAAAD8AAAAAAAAAAAAAAAAAAAA/AAAAAAAAAAAAAAAAvvR9PgAAAD8AAAA/
        AAAAPwAAAAAAAAAAiYiIPQAAAD8AAAAAAAAAAAAAAAAAAAA/AAAAAAAAAAAAAAAAAAAAPwAAAAAAAAAAAAAAAAAAAD8AAAAAAAAAAAAAAAAAAAA/AAAAAAAAAAAAAAAA
        AAAAPwAAAAAAAAAAAAAAAAAAAD8AAAAAAAAAAAAAAAAAAAA/AAAAAAAAAAAAAAAAAAAAPwAAAAAAAAAAAAAAAAAAAD8AAAAAAAAAAAAAAAAAAAA/AAAAAAAAAAAAAAAA
        AAAAPwAAAAAAAAAAAAAAAAAAAD8AAAAAAAAAAAAAAAAAAAA/AAAAAAAAAAAAAAAAAAAAPwAAAAAAAAAAAAAAAAAAAD8AAAAAAAAAAAAAAAC+9H0+AAAAPwAAAD8AAAA/
        AAAAAAAAAACJiIg9AAAAPwAAAAAAAAAAAAAAAAAAAD8AAAAAAAAAAAAAAAAAAAA/AAAAAAAAAAAAAAAAAAAAPwAAAAAAAAAAAAAAAAAAAD8AAAAAAAAAAAAAAAAAAAA/
        AAAAAAAAAAAAAAAAAAAAPwAAAAAAAAAAAAAAAAAAAD8AAAAAAAAAAAAAAAAAAAA/AAAAAAAAAAAAAAAAAAAAPwAAAAAAAAAAAAAAAAAAAD8AAAAAAAAAAAAAAAAAAAA/
        AAAAAAAAAAAAAAAAAAAAPwAAAAAAAAAAAAAAAAAAAD8AAAAAAAAAAAAAAAAAAAA/AAAAAAAAAAAAAAAAAAAAPwAAAAAAAAAAAAAAAL70fT4AAAA/AAAAPwAAAD8AAAAA
        AAAAAImIiD0AAAA/AAAAAAAAAAAAAAAAAAAAPwAAAAAAAAAAAAAAAAAAAD8AAAAAAAAAAAAAAAAAAAA/AAAAAAAAAAAAAAAAAAAAPwAAAAAAAAAAAAAAAAAAAD8AAAAA
        AAAAAAAAAAAAAAA/AAAAAAAAAAAAAAAAAAAAPwAAAAAAAAAAAAAAAAAAAD8AAAAAAAAAAAAAAAAAAAA/AAAAAAAAAAAAAAAAAAAAPwAAAAAAAAAAAAAAAAAAAD8AAAAA
        AAAAAAAAAAAAAAA/AAAAAAAAAAAAAAAAAAAAPwAAAAAAAAAAAAAAAAAAAD8AAAAAAAAAAAAAAAAAAAA/AAAAAAAAAAAAAAAAvvR9PgAAAD8AAAA/AAAAPwAAAAAAAAAA
        iYiIPQAAAD8AAAAAAAAAAAAAAAAAAAA/AAAAAAAAAAAAAAAAAAAAPwAAAAAAAAAAAAAAAAAAAD8AAAAAAAAAAAAAAAAAAAA/AAAAAAAAAAAAAAAAAAAAPwAAAAAAAAAA
        AAAAAAAAAD8AAAAAAAAAAAAAAAAAAAA/AAAAAAAAAAAAAAAAAAAAPwAAAAAAAAAAAAAAAAAAAD8AAAAAAAAAAAAAAAAAAAA/AAAAAAAAAAAAAAAAAAAAPwAAAAAAAAAA
        AAAAAAAAAD8AAAAAAAAAAAAAAAAAAAA/AAAAAAAAAAAAAAAAAAAAPwAAAAAAAAAAAAAAAAAAAD8AAAAAAAAAAAAAAAAAAAAAmpmZPgAAAAAAAAAAAAAAAAAAgD8AAAAA
        mpmZPgAAAAAAAAAAAAAAAAAAgD8AAAAAmpmZPgAAAAAAAAAAAAAAAAAAgD8AAAAAmpmZPgAAAAAAAAAAAAAAAAAAgD8AAAAAmpmZPgAAAAAAAAAAAAAAAAAAgD8AAAAA
        mpmZPgAAAAAAAAAAAAAAAAAAgD8AAAAAAAAAAAAAAAAAAAAAAAAAAAAAAAAAAAAAAAAAAAAAAAAAAAAAAAAAAAAAAAAAAAAAAAAAAAAAAAAAAAAAAAAAAAAAAAAAAAAA
        AAAAAAAAAAAAAAAAAAAAAAAAAAAAAAAAAAAAAAAAAAAAAAAAAAAAAAAAAAAAAAAAAAAAAAAAAAAAAAAAAAAAAAAAAAAAAAAAAAAAAKuqKj3ZiZ09gShWPgAAAAAAAAAA
        v+eWPQAAAAAAAAA/AAAAAAAAAAAAAAAAAAAAAAAAAD8AAAAAAAAAAAAAAAAAAAAAAAAAPwAAAAAAAAAAAAAAAAAAAAAAAAAAAAAAAAAAAAAAAAAAAAAAAAAAAAAAAAAA
        AAAAAAAAAAAAAAAAAAAAAAAAAAAAAAAAAAAAAAAAAAAAAAAAAAAAAAAAAAAAAAAAAAAAAAAAAAAAAAAAAAAAAAAAAAAAAAAAAAAAAAAAAAAAAAAAAAAAAAAAAAAAAAAA
        AAAAAAAAAAAAAAAAAAAAAAAAAAAAAAAAAAAAAAAAAAAAAAAAAAAAAAAAAAAAAAAAAAAAAAAAAAAAAAAAAAAAAAAAAAAAAAAAAAAAAAAAAAAAAAAAAAAAAAAAAAAAAAAA
        AAAAAAAAAAAAAAAAAAAAAAAAAAAAAAAAAAAAAAAAAAAAAAAAAAAAAAAAAAAAAAAAAAAAAAAAAAAAAAAAAAAAAAAAAAAAAAAAAAAAAAAAAAAAAAAAAAAAAAAAAAAAAAAA
        AAAAAAAAAAAAAAAAAAAAAAAAAAAAAAAAAAAAAAAAAAAAAAAAAAAAAAAAAAAAAAAAAAAAAAAAAAAAAAAAAAAAAAAAAAAAAAAAAAAAAAAAAAAAAAAAAAAAPwAAAD8AAAA/
        AAAAPwAAAD8AAAA/AAAAPwAAAD8AAAAAAAAAAAAAAAAAAAAAAAAAAAAAAAAAAAAAAAAAAAAAAAAAAAAAAAAAAAAAAAAAAAAAAAAAAAAAAAAAAAAAAAAAAAAAAAAAAAAA
        AAAAAAAAAAAAAAAAAAAAAAAAAAAAAAAAAAAAAAAAAAAAAAAAAAAAAAAAAAAAAAAAAAAAAAAAAAAAAAAAAAAAAAAAAAAAAAAAAAAAAAAAAAAAAAAAAAAAAAAAAAAAAAAA
        AAAAAAAAAAAAAAAAAAAAAAAAAAAAAAAAAAAAAAAAAAAAAAAAAAAAAAAAAAAAAAAAAAAAAAAAAAAAAAAAAAAAAAAAAAAAAAAAAAAAAAAAAAAAAAAAAAAAAAAAAAAAAAAA
        AAAAAAAAAAAAAAAAAAAAAAAAAAAAAAAAAAAAAAAAAAAAAAAAAAAAAAAAAAAAAAAAAAAAAAAAAAAAAAAA
        Q2hpcEZyb250AENoaXBGcm9udAAQAAAA
      >
      PRESETNAME ChipFront
      FLOATPOS 36 32 641 529
      FXID {4C5A6810-F3ED-0645-A06D-6758F70CB097}
      WAK 0
    >
  >
  <TRACK {1B564899-9ACC-8C4B-8FBF-925A5A247A13}
    NAME ChipSide
    PEAKCOL 16576
    BEAT -1
    AUTOMODE 0
    VOLPAN 0.3981071705535 0 -1 -1 1
    MUTESOLO 0 0 0
    IPHASE 0
    ISBUS 0 0
    BUSCOMP 0 0
    SHOWINMIX 1 0.6667 0.290323 1 0.5 0 0 0
    FREEMODE 0
    SEL 0
    REC 0 0 0 0 0 0 0
    VU 2
    TRACKHEIGHT 0 0
    INQ 0 0 0 0.5 100 0 0 100
    NCHAN 2
    FX 1
    TRACKID {1B564899-9ACC-8C4B-8FBF-925A5A247A13}
    PERF 0
    AUXRECV 9 0 1.03113579563571 0 0 0 0 2 0 -1:U 0 -1 ''
    MIDIOUT -1
    MAINSEND 1 0
    <FXCHAIN
      SHOW 0
      LASTSEL 0
      DOCKED 0
      BYPASS 0 0 0
      <VST "VST: FabFilter Volcano 2 (SC) (FabFilter)" "FabFilter Volcano 2 (SC).vst" 0 "" 1180054068
        NDJWRu9e7f4EAAAAAQAAAAAAAAACAAAAAAAAAAQAAAAAAAAACAAAAAAAAAAIAAAAAQAAAAAAAAACAAAAAAAAAAQAAAAAAAAACAAAAAAAAAAQAAAAAAAAACAAAAAAAAAA
        QAAAAAAAAACAAAAAAAAAANwLAAAAAAAAAAAQAA==
        776t3g3wrd4AAAA/AAAAPwAAAD8AAAA/AACAPwAAAAAAAIA/q6qqPsplFD8AAAA/TxqgPc3MzD0AAAAAAAAAAEKGIj8AAIA/AACAP0Isdj8AAAA/bbDgPZqZGT8AAAAA
        AAAAAOev3zwAAIA/AAAAAAAAgD8AAAA/AAAAAJqZGT8AAAAAAAAAAAAAAAAAAIA/AAAAAAAAgD8AAAA/AAAAAJqZGT8AAAAAAAAAAAAAAAAAAIA/AAAAAKuqqj6CdAA9
        EObJPZgn+j4AAIA/AAAAAAAAAACJiAg+AACAP7PDtD4AAIA/AAAAAAAAAAAAAAAAq6qqPgAAAACeFR0/AAAAAAAAgD8AAAAAAAAAPwAAAAAAAAAAAAAAAAAAAD8AAAAA
        AAAAAAAAAAAAAAA/AAAAAAAAAAAAAAAAAAAAPwAAAAAAAAAAAAAAAAAAAD8AAAAAAAAAAAAAAAAAAAA/AAAAAAAAAAAAAAAAAAAAPwAAAAAAAAAAAAAAAAAAAD8AAAAA
        AAAAAAAAAAAAAAA/AAAAAAAAAAAAAAAAAAAAPwAAAAAAAAAAAAAAAAAAAD8AAAAAAAAAAAAAAAAAAAA/AAAAAAAAAAAAAAAAAAAAPwAAAAAAAAAAAAAAAHwZED4AAAA/
        KKO3PQAAgD8AAAAAAAAAAImIiD3y0iU/AAAAAAAAgD8AAAAAdGjRPQAAAAAAAIA/AAAAAAAAAD8AAAAAAAAAAAAAAAAAAAA/AAAAAAAAAAAAAAAAAAAAPwAAAAAAAAAA
        AAAAAAAAAD8AAAAAAAAAAAAAAAAAAAA/AAAAAAAAAAAAAAAAAAAAPwAAAAAAAAAAAAAAAAAAAD8AAAAAAAAAAAAAAAAAAAA/AAAAAAAAAAAAAAAAAAAAPwAAAAAAAAAA
        AAAAAAAAAD8AAAAAAAAAAAAAAAAAAAA/AAAAAAAAAAAAAAAAAAAAPwAAAAAAAAAAAAAAAAAAAD8AAAAAAAAAAAAAAAAAAAA/AAAAAAAAAAAAAAAAvvR9PgAAAD8AAAA/
        AAAAPwAAAAAAAAAAiYiIPQAAAD8AAAAAAAAAAAAAAAAAAAA/AAAAAAAAAAAAAAAAAAAAPwAAAAAAAAAAAAAAAAAAAD8AAAAAAAAAAAAAAAAAAAA/AAAAAAAAAAAAAAAA
        AAAAPwAAAAAAAAAAAAAAAAAAAD8AAAAAAAAAAAAAAAAAAAA/AAAAAAAAAAAAAAAAAAAAPwAAAAAAAAAAAAAAAAAAAD8AAAAAAAAAAAAAAAAAAAA/AAAAAAAAAAAAAAAA
        AAAAPwAAAAAAAAAAAAAAAAAAAD8AAAAAAAAAAAAAAAAAAAA/AAAAAAAAAAAAAAAAAAAAPwAAAAAAAAAAAAAAAAAAAD8AAAAAAAAAAAAAAAC+9H0+AAAAPwAAAD8AAAA/
        AAAAAAAAAACJiIg9AAAAPwAAAAAAAAAAAAAAAAAAAD8AAAAAAAAAAAAAAAAAAAA/AAAAAAAAAAAAAAAAAAAAPwAAAAAAAAAAAAAAAAAAAD8AAAAAAAAAAAAAAAAAAAA/
        AAAAAAAAAAAAAAAAAAAAPwAAAAAAAAAAAAAAAAAAAD8AAAAAAAAAAAAAAAAAAAA/AAAAAAAAAAAAAAAAAAAAPwAAAAAAAAAAAAAAAAAAAD8AAAAAAAAAAAAAAAAAAAA/
        AAAAAAAAAAAAAAAAAAAAPwAAAAAAAAAAAAAAAAAAAD8AAAAAAAAAAAAAAAAAAAA/AAAAAAAAAAAAAAAAAAAAPwAAAAAAAAAAAAAAAL70fT4AAAA/AAAAPwAAAD8AAAAA
        AAAAAImIiD0AAAA/AAAAAAAAAAAAAAAAAAAAPwAAAAAAAAAAAAAAAAAAAD8AAAAAAAAAAAAAAAAAAAA/AAAAAAAAAAAAAAAAAAAAPwAAAAAAAAAAAAAAAAAAAD8AAAAA
        AAAAAAAAAAAAAAA/AAAAAAAAAAAAAAAAAAAAPwAAAAAAAAAAAAAAAAAAAD8AAAAAAAAAAAAAAAAAAAA/AAAAAAAAAAAAAAAAAAAAPwAAAAAAAAAAAAAAAAAAAD8AAAAA
        AAAAAAAAAAAAAAA/AAAAAAAAAAAAAAAAAAAAPwAAAAAAAAAAAAAAAAAAAD8AAAAAAAAAAAAAAAAAAAA/AAAAAAAAAAAAAAAAvvR9PgAAAD8AAAA/AAAAPwAAAAAAAAAA
        iYiIPQAAAD8AAAAAAAAAAAAAAAAAAAA/AAAAAAAAAAAAAAAAAAAAPwAAAAAAAAAAAAAAAAAAAD8AAAAAAAAAAAAAAAAAAAA/AAAAAAAAAAAAAAAAAAAAPwAAAAAAAAAA
        AAAAAAAAAD8AAAAAAAAAAAAAAAAAAAA/AAAAAAAAAAAAAAAAAAAAPwAAAAAAAAAAAAAAAAAAAD8AAAAAAAAAAAAAAAAAAAA/AAAAAAAAAAAAAAAAAAAAPwAAAAAAAAAA
        AAAAAAAAAD8AAAAAAAAAAAAAAAAAAAA/AAAAAAAAAAAAAAAAAAAAPwAAAAAAAAAAAAAAAAAAAD8AAAAAAAAAAAAAAAAAAAAAmpmZPgAAAAAAAAAAAAAAAAAAgD8AAAAA
        mpmZPgAAAAAAAAAAAAAAAAAAgD8AAAAAmpmZPgAAAAAAAAAAAAAAAAAAgD8AAAAAmpmZPgAAAAAAAAAAAAAAAAAAgD8AAAAAmpmZPgAAAAAAAAAAAAAAAAAAgD8AAAAA
        mpmZPgAAAAAAAAAAAAAAAAAAgD8AAAAAAAAAAAAAAAAAAAAAAAAAAAAAAAAAAAAAAAAAAAAAAAAAAAAAAAAAAAAAAAAAAAAAAAAAAAAAAAAAAAAAAAAAAAAAAAAAAAAA
        AAAAAAAAAAAAAAAAAAAAAAAAAAAAAAAAAAAAAAAAAAAAAAAAAAAAAAAAAAAAAAAAAAAAAAAAAAAAAAAAAAAAAAAAAAAAAAAAAAAAAKuqqj3ZiZ09gShWPgAAgD8AAAAA
        v+eWPdmJHT0WszE/AAAAAAAAAACSdiw8AAAAAAAAAD8AAAAAAAAAAAAAAAAAAAAAAAAAPwAAAAAAAAAAAAAAAAAAAAAAAAAAAAAAAAAAAAAAAAAAAAAAAAAAAAAAAAAA
        AAAAAAAAAAAAAAAAAAAAAAAAAAAAAAAAAAAAAAAAAAAAAAAAAAAAAAAAAAAAAAAAAAAAAAAAAAAAAAAAAAAAAAAAAAAAAAAAAAAAAAAAAAAAAAAAAAAAAAAAAAAAAAAA
        AAAAAAAAAAAAAAAAAAAAAAAAAAAAAAAAAAAAAAAAAAAAAAAAAAAAAAAAAAAAAAAAAAAAAAAAAAAAAAAAAAAAAAAAAAAAAAAAAAAAAAAAAAAAAAAAAAAAAAAAAAAAAAAA
        AAAAAAAAAAAAAAAAAAAAAAAAAAAAAAAAAAAAAAAAAAAAAAAAAAAAAAAAAAAAAAAAAAAAAAAAAAAAAAAAAAAAAAAAAAAAAAAAAAAAAAAAAAAAAAAAAAAAAAAAAAAAAAAA
        AAAAAAAAAAAAAAAAAAAAAAAAAAAAAAAAAAAAAAAAAAAAAAAAAAAAAAAAAAAAAAAAAAAAAAAAAAAAAAAAAAAAAAAAAAAAAAAAAAAAAAAAAAAAAAAAAAAAPwAAAD8AAAA/
        AAAAPwAAAD8AAAA/AAAAPwAAAD8AAAAAAAAAAAAAAAAAAAAAAAAAAAAAAAAAAAAAAAAAAAAAAAAAAAAAAAAAAAAAAAAAAAAAAAAAAAAAAAAAAAAAAAAAAAAAAAAAAAAA
        AAAAAAAAAAAAAAAAAAAAAAAAAAAAAAAAAAAAAAAAAAAAAAAAAAAAAAAAAAAAAAAAAAAAAAAAAAAAAAAAAAAAAAAAAAAAAAAAAAAAAAAAAAAAAAAAAAAAAAAAAAAAAAAA
        AAAAAAAAAAAAAAAAAAAAAAAAAAAAAAAAAAAAAAAAAAAAAAAAAAAAAAAAAAAAAAAAAAAAAAAAAAAAAAAAAAAAAAAAAAAAAAAAAAAAAAAAAAAAAAAAAAAAAAAAAAAAAAAA
        AAAAAAAAAAAAAAAAAAAAAAAAAAAAAAAAAAAAAAAAAAAAAAAAAAAAAAAAAAAAAAAAAAAAAAAAAAAAAAAA
        Q2hpcFNpZGUAQ2hpcFNpZGUAEAAAAA==
      >
      PRESETNAME ChipSide
      FLOATPOS 36 32 641 529
      FXID {20356A84-5CFD-6E4A-AA26-2A8A49CE7A76}
      WAK 0
    >
  >
  <EXTENSIONS
    <SWSAUTOCOLOR
      {00000000-0000-0000-0000-000000000000} 0 "" "" ""
      {0FD62FBC-586B-1E4A-A363-863E3E7A5861} 0 "" "" ""
      {6496E4A5-F083-FC4B-84DA-E600F33120A1} 0 "" "" ""
      {A86F63BE-0D81-E143-B4C5-03028681F8AF} 0 "" "" ""
      {2817EC0A-171F-EC4C-B2A2-375F975DF721} 0 "" "" ""
      {77D177E7-A732-064C-86C3-03E7D7DFD9A4} 0 "" "" ""
    >
  >
>
