<REAPER_PROJECT 0.1 "4.75/OSX64" 1415680894
  RIPPLE 0
  GROUPOVERRIDE 0 0 0
  AUTOXFADE 0
  ENVATTACH 1
  MIXERUIFLAGS 11 52
  PEAKGAIN 1
  FEEDBACK 0
  PANLAW 1
  PROJOFFS 0 0
  MAXPROJLEN 0 600
  GRID 174206 8 1 8 1 0 0
  TIMEMODE 6 0 -1
  PANMODE 3
  CURSOR 0
  ZOOM 5.6610289358723 0 0
  VZOOMEX 2
  USE_REC_CFG 0
  RECMODE 1
  SMPTESYNC 0 23.976024 100 40 1000 300 0 0 1
  LOOP 1
  LOOPGRAN 0 4
  RECORD_PATH "" ""
  <RECORD_CFG
    ZXZhdxAA
  >
  <APPLYFX_CFG
  >
  RENDER_FILE ""
  RENDER_PATTERN ""
  RENDER_FMT 0 2 0
  RENDER_1X 0
  RENDER_RANGE 1 0 0
  RENDER_RESAMPLE 3 0 1
  RENDER_ADDTOPROJ 0
  RENDER_STEMS 0
  RENDER_DITHER 0
  TIMELOCKMODE 1
  TEMPOENVLOCKMODE 1
  ITEMMIX 0
  DEFPITCHMODE 589824
  TAKELANE 3
  SAMPLERATE 44100 0 0
  <RENDER_CFG
  >
  LOCK 1
  <METRONOME 6 2
    VOL 0.25 0.125
    FREQ 800 1600 1
    BEATLEN 4
    SAMPLES "" ""
  >
  GLOBAL_AUTO -1
  TEMPO 120 4 4
  PLAYRATE 1 0 0.25 4
  SELECTION 0 47
  SELECTION2 0 47
  MASTERAUTOMODE 0
  MASTERTRACKHEIGHT 0
  MASTERPEAKCOL 16576
  MASTERMUTESOLO 0
  MASTERTRACKVIEW 0 0.6667 0.5 0.5 -1 -1 -1
  MASTERHWOUT 0 0 1 0 0 0 0 -1
  MASTER_NCH 2 2
  MASTER_VOLUME 1 0 -1 -1 1
  MASTER_FX 1
  MASTER_SEL 0
  <MASTERPLAYSPEEDENV
    ACT 0
    VIS 0 1 1
    LANEHEIGHT 0 0
    ARM 0
    DEFSHAPE 0 -1 -1
  >
  <TEMPOENVEX
    ACT 0
    VIS 1 0 1
    LANEHEIGHT 0 0
    ARM 0
    DEFSHAPE 1 -1 -1
  >
  <PROJBAY
  >
  <TRACK {B35C022F-116E-5542-B21F-4E7065C4E47A}
    NAME ""
    PEAKCOL 16576
    BEAT -1
    AUTOMODE 0
    VOLPAN 1 0 -1 -1 1
    MUTESOLO 0 0 0
    IPHASE 0
    ISBUS 0 0
    BUSCOMP 0 0
    SHOWINMIX 1 0.6667 0.5 1 0.5 -1 -1 -1
    FREEMODE 0
    SEL 0
    REC 0 0 0 0 0 0 0
    VU 2
    TRACKHEIGHT 280 0
    INQ 0 0 0 0.5 100 0 0 100
    NCHAN 2
    FX 1
    TRACKID {B35C022F-116E-5542-B21F-4E7065C4E47A}
    PERF 0
    MIDIOUT -1
    MAINSEND 1 0
    <ITEM
      POSITION 0
      SNAPOFFS 0
      LENGTH 47
      LOOP 1
      ALLTAKES 0
      FADEIN 1 0 0 1 0 0
      FADEOUT 1 0 0 1 0 0
      MUTE 0
      SEL 0
      YPOS 0.083333 0.083333
      IGUID {D3B7B506-933F-1F44-9164-1CF13C5318A7}
      IID 3
      NAME "trombone(s) - National_Anthems_-_Hungary.mid"
      VOLPAN 1 0 1 -1
      SOFFS 0 0
      PLAYRATE 1 1 0 -1 0 0.0025
      CHANMODE 0
      GUID {2C06A4FB-7730-3444-B85B-27B59BDB0EBA}
      <SOURCE MIDI
        HASDATA 1 480 QN
        POOLEDEVTS {016690A0-9382-2946-A06C-2B961970C153}
        <X 0 0
          /wN0cm9tYm9uZShzKQ==
        >
        <X 0 0
          /wRTb3VuZCBDYW52YXM=
        >
        E 249 92 2e 59
        E 247 92 32 50
        E 9 82 2e 53
        E 199 92 35 66
        E 24 82 32 26
        E 229 92 38 57
        E 7 82 35 40
        E 680 92 3a 61
        E 24 82 38 42
        E 210 82 3a 3b
        E 15 92 38 61
        E 230 82 38 4b
        E 5 92 37 50
        E 160 82 37 35
        E 89 92 37 54
        E 339 92 36 57
        E 7 82 37 2d
        E 104 82 36 43
        E 3 92 37 3b
        E 505 92 35 57
        E 10 82 37 38
        E 470 82 35 44
        E 9 92 34 4d
        E 474 92 33 56
        E 26 82 34 18
        E 697 92 32 5b
        E 13 82 33 2b
        E 219 92 33 6e
        E 27 82 32 28
        E 192 82 33 3b
        E 6 92 35 71
        E 249 92 33 66
        E 7 82 35 39
        E 226 92 32 56
        E 2 82 33 35
        E 165 82 32 38
        E 97 92 32 5b
        E 349 92 33 61
        E 18 82 32 34
        E 110 82 33 44
        E 1 92 35 61
        E 882 82 35 50
        E 96 92 32 63
        E 704 92 33 66
        E 25 82 32 42
        E 211 92 35 6e
        E 25 82 33 3d
        E 452 82 35 37
        E 7 92 3a 66
        E 452 82 3a 23
        E 7 92 35 5b
        E 418 82 35 4a
        E 83 92 35 59
        E 401 82 35 44
        E 76 92 35 61
        E 854 82 35 3c
        E 117 92 37 4e
        E 452 82 37 10
        E 15 92 38 57
        E 490 92 37 56
        E 2 82 38 01
        E 460 82 37 01
        E 38 92 35 5e
        E 348 82 35 01
        E 110 92 33 69
        E 492 82 33 39
        E 4 92 37 4e
        E 330 82 37 30
        E 136 92 37 47
        E 737 82 37 40
        E 232 92 30 57
        E 669 82 30 3e
        E 22 92 32 61
        E 250 82 32 3b
        E 2 92 33 69
        E 468 82 33 2c
        E 9 92 3c 50
        E 480 92 35 61
        E 3 82 3c 29
        E 412 82 35 3b
        E 80 92 35 5b
        E 389 82 35 39
        E 91 92 35 54
        E 767 82 35 24
        E 160 92 35 66
        E 493 82 35 35
        E 16 92 37 50
        E 436 82 37 01
        E 21 92 35 66
        E 494 82 35 3c
        E 13 92 33 61
        E 461 82 33 01
        E 9 92 32 59
        E 465 82 32 31
        E 7 92 35 5b
        E 421 82 35 44
        E 73 92 35 5e
        E 781 82 35 20
        E 190 92 37 56
        E 687 92 39 5e
        E 7 82 37 2e
        E 266 92 3a 59
        E 18 82 39 23
        E 434 92 3c 56
        E 2 82 3a 2a
        E 459 92 37 59
        E 8 82 3c 31
        E 479 82 37 19
        E 23 92 34 54
        E 451 92 36 61
        E 9 82 34 3b
        E 801 82 36 3b
        E 162 92 3a 61
        E 719 92 35 71
        E 8 82 3a 23
        E 149 82 35 25
        E 87 92 35 66
        E 412 82 35 31
        E 82 92 35 6b
        E 391 82 35 30
        E 81 92 35 6b
        E 473 82 35 34
        E 13 92 37 54
        E 458 82 37 2e
        E 7 92 39 5a
        E 790 82 39 32
        E 189 92 3c 63
        E 689 92 3a 6b
        E 13 82 3c 21
        E 250 82 3a 28
        E 3 92 37 5a
        E 410 82 37 1e
        E 72 92 37 56
        E 389 82 37 28
        E 167 92 3c 56
        E 637 92 3a 59
        E 23 82 3c 1b
        E 219 82 3a 01
        E 16 92 39 59
        E 436 82 39 34
        E 57 92 39 56
        E 442 82 39 01
        E 32 92 35 73
        E 455 82 35 44
        E 3 92 37 56
        E 405 82 37 2f
        E 69 92 37 54
        E 481 92 33 56
        E 10 82 37 1c
        E 233 92 35 5e
        E 27 82 33 3f
        E 154 82 35 34
        E 74 92 35 4d
        E 282 92 2e 6e
        E 231 92 32 53
        E 23 82 2e 50
        E 185 92 35 6e
        E 29 82 32 2f
        E 215 92 38 66
        E 2 82 35 31
        E 521 82 35 04
        E 183 82 38 3f
        E 8 92 3a 54
        E 226 92 38 71
        E 8 82 3a 3f
        E 210 92 37 4e
        E 16 82 38 21
        E 176 82 37 40
        E 65 92 37 50
        E 346 82 37 31
        E 2 92 36 5b
        E 130 92 37 50
        E 1 82 36 4e
        E 402 82 37 01
        E 69 92 35 61
        E 491 92 34 4b
        E 1 82 35 4c
        E 479 82 34 17
        E 9 92 33 53
        E 720 92 32 56
        E 12 82 33 0f
        E 224 92 33 69
        E 6 82 32 3c
        E 222 82 33 40
        E 5 92 35 61
        E 249 92 33 66
        E 11 82 35 29
        E 223 92 32 5b
        E 3 82 33 2f
        E 169 82 32 36
        E 74 92 32 57
        E 331 82 32 34
        E 8 92 33 59
        E 152 92 32 59
        E 2 82 33 36
        E 1508 82 32 63
        E 420 b0 7b 00
        GUID {E83D4B98-BD4D-6347-95D1-C01A3A604026}
        IGNTEMPO 0 120 4 4
        SRCCOLOR 506
        VELLANE -1 86 6
      >
    >
    <ITEM
      POSITION 0
      SNAPOFFS 0
      LENGTH 47
      LOOP 1
      ALLTAKES 0
      FADEIN 1 0 0 1 0 0
      FADEOUT 1 0 0 1 0 0
      MUTE 0
      SEL 0
      YPOS 0.166667 0.083333
      IGUID {BCBE3F4F-8B65-FE42-9611-FC03C4B703EF}
      IID 5
      NAME "strings (hi) - National_Anthems_-_Hungary.mid"
      VOLPAN 1 0 1 -1
      SOFFS 0 0
      PLAYRATE 1 1 0 -1 0 0.0025
      CHANMODE 0
      GUID {7316F66F-E017-4244-8159-B65B1FD17EA8}
      <SOURCE MIDI
        HASDATA 1 480 QN
        POOLEDEVTS {4B0FF96B-C729-A64D-AA5A-85A58F1312CA}
        <X 0 0
          /wNzdHJpbmdzIChoaSk=
        >
        <X 0 0
          /wRTb3VuZCBDYW52YXM=
        >
        E 0 94 3a 51
        E 1179 94 3e 5a
        E 2 84 3a 2f
        E 231 94 41 61
        E 10 84 3e 31
        E 233 84 41 39
        E 1 94 43 5b
        E 253 94 41 5b
        E 3 84 43 3e
        E 213 94 3f 4d
        E 6 84 41 1e
        E 152 84 3f 02
        E 39 94 41 50
        E 55 94 3f 56
        E 18 84 41 3a
        E 346 84 3f 46
        E 3 94 3e 50
        E 133 94 3f 5b
        E 1 84 3e 2f
        E 473 84 3f 26
        E 1 94 3e 50
        E 481 94 3c 4d
        E 2 84 3e 2c
        E 1096 84 3c 28
        E 113 94 3b 50
        E 238 94 3c 56
        E 8 84 3b 25
        E 202 84 3c 2f
        E 15 94 3e 4e
        E 228 94 3c 37
        E 2 84 3e 25
        E 227 94 3a 56
        E 1 84 3c 2b
        E 114 84 3a 01
        E 77 94 3c 4e
        E 85 84 3c 42
        E 1 94 3a 50
        E 323 84 3a 21
        E 19 94 39 3f
        E 116 94 3a 53
        E 14 84 39 36
        E 730 84 3a 48
        E 215 94 3e 54
        E 21 94 4a 44
        E 693 94 4b 4d
        E 33 94 3f 54
        E 3 84 4a 2e
        E 11 84 3e 2c
        E 217 94 4d 45
        E 2 84 4b 2e
        E 15 94 41 57
        E 9 84 3f 28
        E 427 94 52 41
        E 17 94 46 59
        E 5 84 41 4d
        E 7 84 4d 37
        E 439 84 52 3a
        E 4 94 41 57
        E 3 94 4d 3f
        E 1 84 46 2e
        E 475 94 4b 44
        E 11 94 3f 59
        E 3 84 4d 28
        E 5 84 41 32
        E 443 94 4a 44
        E 14 84 3f 2c
        E 1 84 4b 23
        E 7 94 3e 53
        E 843 84 4a 1c
        E 16 84 3e 01
        E 112 94 4f 3f
        E 27 94 43 61
        E 391 84 4f 3e
        E 24 94 4d 3d
        E 36 84 43 3b
        E 5 94 41 54
        E 448 94 4b 3d
        E 19 84 4d 23
        E 1 94 3f 59
        E 10 84 41 37
        E 460 94 4a 47
        E 5 84 4b 37
        E 17 94 3e 56
        E 15 84 3f 2b
        E 429 84 3e 2d
        E 17 84 4a 3c
        E 19 94 3c 54
        E 8 94 48 41
        E 439 84 48 20
        E 4 94 4a 44
        E 29 84 3c 12
        E 1 94 3e 5a
        E 472 84 3e 12
        E 5 84 4a 21
        E 1 94 4b 3f
        E 7 94 3f 45
        E 749 84 4b 19
        E 23 84 3f 3b
        E 181 94 48 47
        E 23 94 3c 5b
        E 681 84 48 26
        E 5 94 4a 44
        E 26 94 3e 61
        E 6 84 3c 22
        E 204 94 4b 45
        E 4 84 4a 26
        E 25 94 3f 66
        E 14 84 3e 20
        E 445 94 48 66
        E 7 84 3f 44
        E 6 94 54 4a
        E 20 84 4b 2c
        E 435 94 3f 5a
        E 0 94 4b 4e
        E 4 84 54 43
        E 5 84 48 39
        E 471 84 4b 1c
        E 0 94 4a 4b
        E 16 94 3e 61
        E 10 84 3f 2e
        E 434 84 4a 42
        E 13 94 48 45
        E 16 84 3e 2c
        E 9 94 3c 54
        E 754 84 48 1d
        E 79 84 3c 1f
        E 102 94 4d 3f
        E 4 94 41 61
        E 474 84 4d 42
        E 2 94 4b 4d
        E 20 84 41 42
        E 3 94 3f 5a
        E 438 94 4a 44
        E 12 84 4b 17
        E 24 94 3e 5e
        E 22 84 3f 3a
        E 414 84 4a 43
        E 22 94 48 44
        E 7 84 3e 3f
        E 13 94 3c 56
        E 474 94 46 5a
        E 4 84 48 3b
        E 4 94 3a 59
        E 36 84 3c 01
        E 443 94 48 57
        E 2 84 46 41
        E 15 84 3a 2c
        E 4 94 3c 5a
        E 450 94 4a 44
        E 24 84 48 14
        E 3 94 3e 54
        E 7 84 3c 32
        E 732 84 3e 43
        E 71 84 4a 4f
        E 158 94 52 59
        E 3 94 46 66
        E 695 94 45 5e
        E 4 94 51 53
        E 11 84 52 0c
        E 0 84 46 28
        E 232 94 43 5e
        E 15 84 45 28
        E 1 94 4f 4b
        E 13 84 51 38
        E 435 94 42 5b
        E 9 94 4e 53
        E 2 84 43 32
        E 0 84 4f 1f
        E 454 94 4f 5b
        E 2 84 42 2c
        E 1 94 43 66
        E 27 84 4e 2a
        E 430 84 43 3a
        E 15 84 4f 37
        E 4 94 45 4d
        E 7 94 51 47
        E 480 94 3e 57
        E 2 84 51 18
        E 0 94 4a 50
        E 12 84 45 01
        E 735 84 3e 3b
        E 28 84 4a 01
        E 201 94 56 56
        E 9 94 4a 57
        E 709 94 48 53
        E 4 84 4a 15
        E 4 94 54 5b
        E 35 84 56 30
        E 207 84 48 0c
        E 3 94 46 61
        E 3 94 52 59
        E 12 84 54 3e
        E 441 84 46 28
        E 10 94 45 57
        E 8 94 51 59
        E 1 84 52 31
        E 458 94 52 5a
        E 5 84 51 26
        E 1 94 46 66
        E 14 84 45 2c
        E 464 84 52 2f
        E 0 94 54 59
        E 11 94 48 56
        E 17 84 46 3e
        E 454 94 41 61
        E 3 84 48 01
        E 1 84 54 4f
        E 2 94 4d 57
        E 713 84 41 49
        E 45 84 4d 01
        E 234 94 4b 6e
        E 0 94 57 66
        E 677 94 4a 69
        E 4 94 56 56
        E 12 84 4b 49
        E 6 84 57 50
        E 223 84 4a 29
        E 17 94 48 59
        E 4 94 54 5a
        E 4 84 56 4e
        E 457 94 46 6b
        E 4 94 52 5a
        E 5 84 54 42
        E 3 84 48 29
        E 473 94 45 5e
        E 5 94 51 5e
        E 13 84 46 09
        E 0 84 52 2a
        E 705 84 45 2c
        E 4 94 43 66
        E 1 94 4f 57
        E 11 84 51 32
        E 224 84 4f 39
        E 9 94 4d 50
        E 0 94 41 5b
        E 13 84 43 33
        E 409 84 4d 2d
        E 40 94 3f 53
        E 14 84 41 15
        E 23 94 4b 41
        E 450 94 4a 3d
        E 16 94 3e 56
        E 5 84 4b 0b
        E 7 84 3f 3c
        E 354 84 4a 35
        E 30 84 3e 17
        E 59 94 4a 44
        E 41 94 3e 50
        E 421 84 4a 26
        E 1 84 3e 10
        E 12 94 48 2d
        E 22 94 3c 53
        E 358 84 48 3a
        E 9 84 3c 32
        E 79 94 48 3d
        E 48 94 3c 50
        E 225 94 3e 4e
        E 8 94 4a 1c
        E 4 84 3c 35
        E 10 84 48 3d
        E 231 94 46 39
        E 7 84 3e 01
        E 4 94 3a 53
        E 17 84 4a 01
        E 1141 84 3a 48
        E 2 84 46 01
        E 18 94 3e 56
        E 229 94 41 5b
        E 6 84 3e 11
        E 243 94 43 5a
        E 11 84 41 2a
        E 244 94 41 50
        E 2 84 43 3e
        E 229 94 3f 59
        E 1 84 41 39
        E 125 84 3f 30
        E 63 94 41 59
        E 62 94 3f 59
        E 19 84 41 3e
        E 339 84 3f 21
        E 2 94 3e 50
        E 118 94 3f 54
        E 1 84 3e 29
        E 467 84 3f 34
        E 4 94 3e 53
        E 452 84 3e 2a
        E 18 94 3c 4d
        E 1106 84 3c 0c
        E 100 94 3b 53
        E 232 94 3c 56
        E 30 84 3b 07
        E 212 94 3e 57
        E 18 84 3c 3b
        E 229 94 3c 57
        E 2 84 3e 31
        E 210 84 3c 27
        E 8 94 3a 50
        E 114 84 3a 11
        E 90 94 3c 53
        E 87 94 3a 50
        E 11 84 3c 42
        E 332 84 3a 18
        E 7 94 39 49
        E 157 94 3a 42
        E 18 84 39 1e
        E 1421 84 3a 64
        E 442 b0 7b 00
        GUID {69DE6E75-589E-2C4C-A024-78BFE941A76E}
        IGNTEMPO 0 120 4 4
        SRCCOLOR 508
        VELLANE -1 86 6
      >
    >
    <ITEM
      POSITION 0
      SNAPOFFS 0
      LENGTH 47
      LOOP 1
      ALLTAKES 0
      FADEIN 1 0 0 1 0 0
      FADEOUT 1 0 0 1 0 0
      MUTE 0
      SEL 0
      YPOS 0.25 0.083333
      IGUID {AA66D6C3-D5E5-1743-A29B-C1CDDFD854C8}
      IID 6
      NAME "strings (mid) - National_Anthems_-_Hungary.mid"
      VOLPAN 1 0 1 -1
      SOFFS 0 0
      PLAYRATE 1 1 0 -1 0 0.0025
      CHANMODE 0
      GUID {71415A44-CE16-D041-8A6F-A50EDEEB41A2}
      <SOURCE MIDI
        HASDATA 1 480 QN
        POOLEDEVTS {FED97967-4CEF-384D-8E90-A45E1198E505}
        <X 0 0
          /wNzdHJpbmdzIChtaWQp
        >
        <X 0 0
          /wRTb3VuZCBDYW52YXM=
        >
        E 261 95 2e 50
        E 1613 95 33 59
        E 26 85 2e 41
        E 20 95 3a 41
        E 1320 85 33 01
        E 118 95 29 50
        E 278 85 3a 24
        E 169 85 29 28
        E 13 95 2b 53
        E 23 95 3a 4d
        E 467 95 2a 50
        E 21 85 2b 31
        E 452 95 39 51
        E 10 85 3a 01
        E 471 85 2a 3e
        E 11 95 29 53
        E 273 85 39 2b
        E 177 95 39 50
        E 15 95 2e 50
        E 49 85 29 1a
        E 170 85 39 27
        E 1 95 35 53
        E 166 85 35 2f
        E 97 95 35 53
        E 339 85 35 39
        E 4 95 37 45
        E 105 85 37 31
        E 25 95 35 56
        E 795 85 2e 41
        E 135 85 35 65
        E 56 95 3a 61
        E 0 95 32 56
        E 676 95 3c 5b
        E 0 95 33 6e
        E 7 85 32 40
        E 29 85 3a 1f
        E 222 95 35 6e
        E 10 95 3e 57
        E 20 85 33 46
        E 1 85 3c 3e
        E 438 85 35 01
        E 9 95 3a 6b
        E 468 85 3a 42
        E 5 95 35 71
        E 11 95 3a 4d
        E 445 95 3c 53
        E 23 85 3e 40
        E 8 85 3a 34
        E 473 95 3a 50
        E 19 85 3c 40
        E 741 85 35 1d
        E 106 85 3a 23
        E 90 95 3f 5a
        E 38 95 37 56
        E 445 95 3e 53
        E 7 85 3f 3d
        E 32 95 38 61
        E 10 85 37 29
        E 391 85 3e 3e
        E 12 95 3c 4d
        E 39 85 38 32
        E 8 95 37 56
        E 473 95 35 6b
        E 3 85 37 23
        E 5 85 3c 3f
        E 1 95 37 47
        E 2 95 3b 50
        E 427 85 35 18
        E 22 95 33 5b
        E 18 95 3c 56
        E 3 85 3b 32
        E 15 85 37 44
        E 461 95 37 56
        E 3 85 33 43
        E 20 95 3b 56
        E 4 85 3c 38
        E 476 95 3c 54
        E 1 85 3b 2b
        E 712 85 37 3d
        E 76 85 3c 4b
        E 160 95 30 63
        E 15 95 39 61
        E 697 95 32 66
        E 3 95 3a 69
        E 4 85 30 40
        E 14 85 39 2e
        E 216 95 3c 5b
        E 1 85 3a 37
        E 16 95 33 61
        E 12 85 32 31
        E 450 85 33 53
        E 0 95 3f 6e
        E 8 85 3c 40
        E 0 95 3c 5b
        E 466 95 3c 69
        E 1 95 35 6b
        E 6 85 3c 24
        E 1 85 3f 44
        E 452 85 3c 32
        E 2 95 3a 66
        E 405 85 35 42
        E 80 85 3a 39
        E 2 95 39 63
        E 10 95 35 6e
        E 472 95 33 61
        E 22 85 35 4a
        E 288 85 39 0b
        E 164 85 33 45
        E 6 95 35 6b
        E 9 95 3e 6e
        E 446 85 3e 2b
        E 3 95 3c 61
        E 9 85 35 45
        E 12 95 37 54
        E 506 95 35 6e
        E 8 95 3a 66
        E 11 85 3c 30
        E 5 85 37 1f
        E 430 85 35 1c
        E 2 95 33 71
        E 27 95 39 69
        E 13 85 3a 24
        E 371 85 39 31
        E 44 85 33 2c
        E 10 95 32 61
        E 48 95 35 6b
        E 450 85 35 40
        E 0 95 35 66
        E 4 85 32 3e
        E 4 95 39 61
        E 485 95 3a 66
        E 10 85 39 32
        E 730 85 35 2b
        E 183 85 3a 01
        E 44 95 37 63
        E 5 95 3e 61
        E 704 85 37 22
        E 3 95 39 66
        E 194 85 3e 2c
        E 43 85 39 28
        E 7 95 3a 57
        E 3 95 3e 45
        E 408 85 3e 23
        E 64 95 3e 4d
        E 4 95 3c 5b
        E 6 85 3a 38
        E 388 85 3e 36
        E 63 85 3c 01
        E 11 95 37 5a
        E 1 95 3e 51
        E 443 95 3d 66
        E 10 85 3e 29
        E 17 85 37 01
        E 3 95 34 59
        E 466 85 3d 44
        E 17 85 34 2b
        E 4 95 36 59
        E 4 95 39 5b
        E 696 85 36 07
        E 64 85 39 01
        E 192 95 41 6b
        E 13 95 3a 66
        E 703 85 3a 24
        E 1 85 41 47
        E 1 95 35 73
        E 4 95 3f 5a
        E 254 95 3e 5b
        E 6 85 3f 2a
        E 427 85 3e 3c
        E 30 95 3c 5a
        E 420 85 35 43
        E 49 95 3e 5a
        E 2 85 3c 01
        E 22 95 35 6b
        E 443 85 3e 2d
        E 2 95 40 5b
        E 17 85 35 2f
        E 4 95 37 50
        E 481 85 37 3c
        E 3 85 40 3f
        E 2 95 39 59
        E 5 95 3c 5b
        E 782 85 39 01
        E 15 85 3c 01
        E 158 95 43 6e
        E 5 95 3c 57
        E 703 95 41 5e
        E 7 85 43 3a
        E 29 95 3a 5b
        E 7 85 3c 1b
        E 208 95 3f 66
        E 17 85 41 35
        E 15 95 37 4d
        E 8 85 3a 11
        E 444 95 43 6e
        E 20 85 3f 46
        E 359 85 37 0c
        E 70 85 43 3e
        E 31 95 35 61
        E 4 95 41 5b
        E 11 95 3c 37
        E 688 85 35 3a
        E 2 95 37 54
        E 22 95 3f 69
        E 1 85 41 41
        E 10 85 3c 23
        E 242 95 39 4e
        E 8 85 37 15
        E 12 95 3e 66
        E 1 85 3f 3b
        E 402 85 3e 33
        E 35 85 39 01
        E 2 95 35 53
        E 13 95 3c 59
        E 8 95 39 41
        E 348 85 35 2b
        E 124 85 39 01
        E 7 95 35 4e
        E 8 85 3c 38
        E 11 95 3a 4d
        E 436 95 37 3d
        E 615 85 35 23
        E 238 85 37 01
        E 100 95 33 5b
        E 14 95 39 63
        E 9 85 3a 2b
        E 218 95 35 66
        E 13 85 33 21
        E 259 85 35 51
        E 12 95 3a 59
        E 4 85 39 1e
        E 257 95 2e 66
        E 895 85 3a 01
        E 717 95 33 66
        E 23 85 2e 42
        E 22 95 3a 45
        E 1272 85 33 16
        E 136 95 29 5b
        E 373 85 3a 3a
        E 94 95 2b 6e
        E 17 85 29 20
        E 28 95 3a 4d
        E 457 95 2a 66
        E 9 85 2b 1f
        E 409 85 3a 0b
        E 53 95 39 47
        E 499 95 29 5b
        E 2 85 2a 3f
        E 279 85 39 16
        E 177 95 2e 59
        E 13 95 39 54
        E 3 85 29 38
        E 227 85 39 21
        E 2 95 35 56
        E 160 85 35 3d
        E 86 95 35 50
        E 315 85 35 20
        E 13 95 37 39
        E 109 85 37 27
        E 30 95 35 4d
        E 1490 85 35 64
        E 26 85 2e 60
        E 441 b0 7b 00
        GUID {B3084046-3837-A44E-AAB7-B7C1B3BF565E}
        IGNTEMPO 0 120 4 4
        SRCCOLOR 509
        VELLANE -1 86 6
      >
    >
    <ITEM
      POSITION 0
      SNAPOFFS 0
      LENGTH 47
      LOOP 1
      ALLTAKES 0
      FADEIN 1 0 0 1 0 0
      FADEOUT 1 0 0 1 0 0
      MUTE 0
      SEL 0
      YPOS 0.333333 0.083333
      IGUID {92812568-AA6A-2546-A462-B5567B41D7BA}
      IID 7
      NAME "strings (bass) - National_Anthems_-_Hungary.mid"
      VOLPAN 1 0 1 -1
      SOFFS 0 0
      PLAYRATE 1 1 0 -1 0 0.0025
      CHANMODE 0
      GUID {72F6153F-E822-4649-A0AD-DD11E428B624}
      <SOURCE MIDI
        HASDATA 1 480 QN
        POOLEDEVTS {B70D1457-C4DF-5B4B-B1BB-126C09778104}
        <X 0 0
          /wNzdHJpbmdzIChiYXNzKQ==
        >
        <X 0 0
          /wRTb3VuZCBDYW52YXM=
        >
        E 247 96 22 43
        E 1645 96 27 3d
        E 37 86 22 2f
        E 1221 86 27 18
        E 175 96 29 56
        E 482 86 29 42
        E 21 96 2b 2a
        E 466 86 2b 01
        E 14 96 2a 41
        E 953 96 29 53
        E 25 86 2a 2b
        E 481 96 22 3b
        E 50 86 29 17
        E 1798 86 22 5c
        E 65 96 22 5a
        E 699 86 22 3d
        E 11 96 24 50
        E 252 96 26 4d
        E 17 86 24 31
        E 330 86 26 3c
        E 105 96 26 51
        E 483 96 1d 56
        E 1 86 26 30
        E 463 86 1d 0a
        E 22 96 21 5e
        E 459 86 21 02
        E 24 96 22 56
        E 776 86 22 27
        E 186 96 27 53
        E 472 96 29 61
        E 17 86 27 1e
        E 456 86 29 33
        E 11 96 2b 45
        E 376 86 2b 25
        E 102 96 1d 56
        E 464 86 1d 34
        E 3 96 24 54
        E 378 86 24 16
        E 124 96 1f 54
        E 465 86 1f 3d
        E 17 96 24 41
        E 713 86 24 30
        E 239 96 1d 59
        E 700 86 1d 32
        E 4 96 22 59
        E 267 96 24 56
        E 6 86 22 25
        E 369 86 24 15
        E 74 96 27 66
        E 467 86 27 04
        E 35 96 21 50
        E 454 86 21 3d
        E 9 96 22 66
        E 480 96 29 5b
        E 4 86 22 43
        E 480 86 29 37
        E 6 96 27 61
        E 425 86 27 0a
        E 72 96 26 56
        E 458 86 26 1a
        E 13 96 27 57
        E 468 86 27 45
        E 8 96 29 6b
        E 394 86 29 01
        E 118 96 1d 53
        E 462 96 22 61
        E 14 86 1d 3a
        E 448 86 22 24
        E 13 96 1d 53
        E 468 96 22 61
        E 3 86 1d 1f
        E 763 86 22 1a
        E 191 96 1f 59
        E 711 96 21 6e
        E 25 86 1f 33
        E 229 86 21 44
        E 0 96 22 66
        E 466 96 24 5e
        E 12 86 22 34
        E 461 86 24 0c
        E 8 96 22 66
        E 441 86 22 33
        E 24 96 21 66
        E 480 86 21 45
        E 23 96 26 56
        E 821 86 26 0e
        E 163 96 22 6e
        E 678 96 24 5e
        E 16 86 22 2f
        E 249 96 26 66
        E 5 86 24 50
        E 452 86 26 42
        E 6 96 27 6e
        E 485 86 27 01
        E 16 96 26 5b
        E 449 86 26 01
        E 30 96 24 5e
        E 469 86 24 4d
        E 0 96 29 73
        E 806 86 29 01
        E 173 96 24 69
        E 670 86 24 37
        E 12 96 26 6e
        E 270 96 27 71
        E 11 86 26 41
        E 467 96 28 69
        E 13 86 27 38
        E 448 86 28 5a
        E 8 96 29 79
        E 719 86 29 35
        E 12 96 2b 61
        E 253 86 2b 4c
        E 14 96 2d 61
        E 277 86 2d 33
        E 210 96 1d 53
        E 423 86 1d 21
        E 12 96 22 59
        E 473 96 1f 56
        E 4 86 22 31
        E 470 86 1f 36
        E 4 96 27 56
        E 509 86 27 01
        E 13 96 29 57
        E 484 86 29 21
        E 264 96 22 45
        E 1596 96 27 53
        E 38 86 22 36
        E 1270 86 27 1e
        E 160 96 1d 50
        E 468 86 1d 21
        E 14 96 1f 56
        E 481 96 1e 50
        E 8 86 1f 22
        E 933 86 1e 20
        E 29 96 1d 56
        E 482 96 22 61
        E 27 86 1d 1f
        E 2395 86 22 5e
        E 463 b0 7b 00
        GUID {5D4584AC-7A04-9047-97B6-829491F2DB79}
        IGNTEMPO 0 120 4 4
        SRCCOLOR 510
        VELLANE -1 86 6
      >
    >
    <ITEM
      POSITION 0
      SNAPOFFS 0
      LENGTH 40
      LOOP 1
      ALLTAKES 0
      FADEIN 1 0 0 1 0 0
      FADEOUT 1 0 0 1 0 0
      MUTE 0
      SEL 0
      YPOS 0.416667 0.083333
      IGUID {4332D42F-7ECB-B343-869D-051882EE896E}
      IID 4
      NAME "tuba(s) - National_Anthems_-_Hungary.mid"
      VOLPAN 1 0 1 -1
      SOFFS 0 0
      PLAYRATE 1 1 0 -1 0 0.0025
      CHANMODE 0
      GUID {40435C5E-6FC7-B84C-9953-DA29A05EDD92}
      <SOURCE MIDI
        HASDATA 1 480 QN
        POOLEDEVTS {DFE07FB8-A844-D847-9939-91A568521DED}
        <X 0 0
          /wN0dWJhKHMp
        >
        <X 0 0
          /wRTb3VuZCBDYW52YXM=
        >
        E 7680 93 22 6e
        E 631 83 22 1b
        E 70 93 24 63
        E 243 83 24 42
        E 4 93 26 61
        E 386 83 26 3e
        E 79 93 26 59
        E 449 83 26 01
        E 35 93 1d 5b
        E 461 83 1d 29
        E 13 93 21 6e
        E 466 83 21 22
        E 24 93 22 66
        E 788 83 22 29
        E 191 93 27 6b
        E 475 93 29 6e
        E 1 83 27 25
        E 388 83 29 30
        E 77 93 2b 61
        E 424 83 2b 01
        E 60 93 29 6e
        E 469 83 29 09
        E 20 93 24 66
        E 467 83 24 01
        E 8 93 1f 6e
        E 448 83 1f 3d
        E 16 93 24 56
        E 757 83 24 07
        E 230 93 1d 6b
        E 670 83 1d 01
        E 27 93 22 73
        E 249 93 24 6e
        E 3 83 22 2c
        E 429 83 24 01
        E 39 93 27 73
        E 412 83 27 1f
        E 55 93 21 73
        E 468 83 21 39
        E 18 93 22 6b
        E 451 83 22 48
        E 20 93 29 76
        E 460 83 29 45
        E 11 93 27 71
        E 458 83 27 45
        E 74 93 26 63
        E 465 83 26 01
        E 18 93 27 66
        E 483 93 29 73
        E 4 83 27 57
        E 365 83 29 21
        E 103 93 1d 6b
        E 462 93 22 73
        E 5 83 1d 41
        E 398 83 22 36
        E 87 93 1d 69
        E 462 93 22 6e
        E 3 83 1d 43
        E 782 83 22 26
        E 170 93 1f 71
        E 704 83 1f 3e
        E 16 93 21 73
        E 250 83 21 29
        E 5 93 22 73
        E 469 83 22 28
        E 12 93 24 63
        E 407 83 24 25
        E 53 93 22 76
        E 455 83 22 3b
        E 26 93 21 76
        E 478 83 21 4c
        E 6 93 26 71
        E 799 83 26 34
        E 146 93 22 76
        E 722 83 22 39
        E 26 93 24 61
        E 232 83 24 29
        E 0 93 26 6e
        E 421 83 26 24
        E 70 93 27 71
        E 450 83 27 25
        E 20 93 26 61
        E 444 83 26 02
        E 26 93 24 66
        E 485 83 24 27
        E 19 93 29 6b
        E 847 83 29 3c
        E 113 93 24 66
        E 651 83 24 29
        E 46 93 26 66
        E 248 83 26 31
        E 7 93 27 6b
        E 427 83 27 0e
        E 40 93 28 6b
        E 462 83 28 3c
        E 16 93 29 76
        E 682 83 29 37
        E 64 93 2b 5e
        E 232 83 2b 48
        E 10 93 2d 63
        E 335 83 2d 47
        E 144 93 1d 6b
        E 450 83 1d 3e
        E 5 93 22 6e
        E 456 83 22 06
        E 22 93 1f 6b
        E 390 83 1f 1a
        E 67 93 1b 5a
        E 503 83 1b 3d
        E 18 93 1d 66
        E 470 93 22 5a
        E 5 83 1d 36
        E 1619 83 22 44
        E 319 b0 7b 00
        GUID {FB91371C-CAAC-3248-8EAC-ADC3B87853F0}
        IGNTEMPO 0 120 4 4
        SRCCOLOR 507
        VELLANE -1 86 6
      >
    >
    <ITEM
      POSITION 0
      SNAPOFFS 0
      LENGTH 39.5
      LOOP 1
      ALLTAKES 0
      FADEIN 1 0 0 1 0 0
      FADEOUT 1 0 0 1 0 0
      MUTE 0
      SEL 0
      YPOS 0.5 0.083333
      IGUID {6837442A-DED1-2541-B897-11C78F28D66F}
      IID 1
      NAME "trumpet(s) - National_Anthems_-_Hungary.mid"
      VOLPAN 1 0 1 -1
      SOFFS 0 0
      PLAYRATE 1 1 0 -1 0 0.0025
      CHANMODE 0
      GUID {84A4AB9A-FDDE-134C-B6C2-9C706F0FA36D}
      <SOURCE MIDI
        HASDATA 1 480 QN
        POOLEDEVTS {D482E985-4601-9840-A512-9DACEBB64621}
        <X 0 0
          /wN0cnVtcGV0KHMp
        >
        <X 0 0
          /wRTb3VuZCBDYW52YXM=
        >
        E 7680 90 3e 69
        E 701 80 3e 2a
        E 9 90 3f 71
        E 213 80 3f 3d
        E 22 90 41 6b
        E 464 80 41 36
        E 1 90 46 71
        E 447 80 46 45
        E 23 90 41 6b
        E 496 90 3f 6b
        E 21 80 41 3c
        E 432 80 3f 3c
        E 17 90 3e 66
        E 902 80 3e 01
        E 93 90 43 73
        E 468 80 43 40
        E 9 90 41 61
        E 472 80 41 3c
        E 1 90 3f 69
        E 459 80 3f 42
        E 15 90 3e 71
        E 450 80 3e 35
        E 33 90 3c 5b
        E 478 90 3e 61
        E 7 80 3c 37
        E 471 90 3f 66
        E 11 80 3e 2c
        E 817 80 3f 2e
        E 138 90 3c 66
        E 719 90 3e 63
        E 9 80 3c 31
        E 232 90 3f 6e
        E 16 80 3e 01
        E 463 80 3f 39
        E 4 90 48 59
        E 478 80 48 40
        E 6 90 3f 66
        E 486 80 3f 47
        E 1 90 3e 66
        E 444 80 3e 2e
        E 28 90 3c 61
        E 839 80 3c 01
        E 127 90 41 6b
        E 448 80 41 45
        E 20 90 3f 69
        E 478 90 3e 5e
        E 4 80 3f 32
        E 456 80 3e 45
        E 13 90 3c 61
        E 461 80 3c 01
        E 18 90 3a 6e
        E 457 80 3a 3e
        E 20 90 3c 66
        E 485 90 3e 66
        E 10 80 3c 42
        E 872 80 3e 01
        E 101 90 46 79
        E 688 80 46 48
        E 28 90 45 57
        E 1 90 46 54
        E 35 80 46 09
        E 191 80 45 3c
        E 10 90 43 66
        E 394 80 43 2b
        E 67 90 42 69
        E 462 80 42 2b
        E 22 90 43 71
        E 472 80 43 3b
        E 20 90 45 71
        E 467 80 45 38
        E 14 90 3e 66
        E 785 80 3e 01
        E 165 90 4a 6e
        E 689 80 4a 3c
        E 30 90 48 5e
        E 233 80 48 3f
        E 8 90 46 6e
        E 497 90 45 6b
        E 17 80 46 36
        E 439 80 45 1b
        E 19 90 46 6e
        E 456 80 46 29
        E 19 90 48 6e
        E 473 80 48 32
        E 8 90 41 63
        E 831 80 41 01
        E 137 90 4b 73
        E 676 80 4b 46
        E 39 90 4a 6e
        E 240 80 4a 46
        E 3 90 48 63
        E 473 80 48 01
        E 5 90 46 6b
        E 444 80 46 01
        E 39 90 45 6b
        E 716 90 43 6e
        E 5 80 45 27
        E 224 80 43 44
        E 6 90 41 61
        E 332 80 41 39
        E 138 90 3f 6e
        E 474 80 3f 40
        E 4 90 3e 63
        E 413 80 3e 3a
        E 67 90 3e 66
        E 468 80 3e 2a
        E 11 90 3c 5e
        E 391 80 3c 30
        E 94 90 3c 66
        E 242 90 3e 61
        E 21 80 3c 30
        E 215 80 3e 01
        E 10 90 3a 6e
        E 1432 80 3a 34
        E 16 b0 7b 00
        GUID {869E4EB9-7654-614A-85EB-2B9C53DCE68D}
        IGNTEMPO 0 120 4 4
        SRCCOLOR 504
        VELLANE -1 86 6
      >
    >
  >
  <TRACK {F4CC3575-1D7D-424F-8F4B-C71B325A2484}
    NAME ""
    PEAKCOL 16576
    BEAT -1
    AUTOMODE 0
    VOLPAN 1 0 -1 -1 1
    MUTESOLO 0 0 0
    IPHASE 0
    ISBUS 1 1
    BUSCOMP 0 0
    SHOWINMIX 1 0.6667 0.5 1 0.5 -1 -1 -1
    FREEMODE 0
    SEL 1
    REC 0 0 0 0 0 0 0
    VU 2
    TRACKHEIGHT 0 0
    INQ 0 0 0 0.5 100 0 0 100
    NCHAN 2
    FX 1
    TRACKID {F4CC3575-1D7D-424F-8F4B-C71B325A2484}
    PERF 0
    MIDIOUT -1
    MAINSEND 1 0
    <FXCHAIN
      SHOW 0
      LASTSEL 0
      DOCKED 0
      BYPASS 0 0 0
      <VST "VSTi: chipsounds (Plogue Art et Technologie, Inc)" chipsounds.vst 0 ""
        T0dMUO5e7f4AAAAAAgAAAAEAAAAAAAAAAgAAAAAAAAA3AgAAAQAAAAAAEABDRUdQ6AcAAHic5VVRb9owEH7nV1h+2h6axKHAkICK0TIhDRUNJu2tOpJras1xmO2wtr9+
        jpNQGJXqSdvT7sV358939/kS3+jqMRdkj0rzQo4pCyJKriad0VRxWMMej7b6UUwnHWJltEZjuMw0+VGC4ObJ7lKSiWILYlUIa3ZjSrRRCLmF1WYOj2vnmQpRJMuPY9pj
        1r1cXC9uS7MsUnRRoDRFDsamXIvCjKmtRyd2x60gwHoYuSBYZQ50Ihr3DKVBNab9qC1kU0qXOwoiJ5SEbfU2MOGpiy0hxypkQFalQjJ74Lswnkbfwi+raiHvSil4zg2m
        7ynZgvy+SKtioiElyQNIiWJML2zZO0eb9SkxZ3l32zsFMsMKeXAa69K7QqMrIy9NreifdwK0411X6ypeApdtxXsQJbpOndI6BbID8Iz/KTD2BXZ9gZe+wJ4vsO8LHPgC
        P/gCh75AFnkjvXvDvJvDvLvDvNvD3urPChTkTdCXSln8OnoDKkPT/HBJkQcrUWQlBtVLE3ye3walRnX81btTs1Lb9+AaDBDztLMn47jbtxeo+bM1Lqs+tg+UzYcy5VCr
        qT1ilVbm9RJHf1dOKYY1xz8lzf4T0hvFswzV2r7dKBNUb9Jmg5gNW9q9wRHt+DXarGHdSG0PnN6dDebDExKzqDv/hxcxCqsp0+g39/eYmPOxM823vLqJ3ydLO6g+fV20
        ByAxfI+Lw0ys7ZuXGYnCpsB0A9t6INkYo7Cd4pPOL9AV+rAAABAAAAA=
      >
      FLOATPOS 404 36 871 509
      FXID {8431A072-55F4-FD4E-8B7D-D2D9F1493C94}
      WAK 0
    >
  >
  <TRACK {65BF5D08-DF3D-EA42-ADEF-5C04FE4BCE10}
    NAME ""
    PEAKCOL 16576
    BEAT -1
    AUTOMODE 0
    VOLPAN 1 0 -1 -1 1
    MUTESOLO 0 0 0
    IPHASE 0
    ISBUS 0 0
    BUSCOMP 0 0
    SHOWINMIX 1 0.6667 0.5 1 0.5 -1 -1 -1
    FREEMODE 0
    SEL 1
    REC 0 0 0 0 0 0 0
    VU 2
    TRACKHEIGHT 0 0
    INQ 0 0 0 0.5 100 0 0 100
    NCHAN 2
    FX 1
    TRACKID {65BF5D08-DF3D-EA42-ADEF-5C04FE4BCE10}
    PERF 0
    MIDIOUT -1
    MAINSEND 1 0
    <ITEM
      POSITION 0
      SNAPOFFS 0
      LENGTH 47
      LOOP 1
      ALLTAKES 0
      FADEIN 1 0 0 1 0 0
      FADEOUT 1 0 0 1 0 0
      MUTE 0
      SEL 0
      YPOS 0 0.083333
      IGUID {DDCF48D9-9561-924B-A432-CA71BFF01DA7}
      IID 2
      NAME "fr. horn(s) - National_Anthems_-_Hungary.mid"
      VOLPAN 1 0 1 -1
      SOFFS 0 0
      PLAYRATE 1 1 0 -1 0 0.0025
      CHANMODE 0
      GUID {DB6E35A2-7F5B-3D4B-BD2F-2071C54FB521}
      <SOURCE MIDI
        HASDATA 1 480 QN
        POOLEDEVTS {B702A7A8-3C4A-5A44-AE55-786167EA440D}
        <X 0 0
          /wNmci4gaG9ybihzKQ==
        >
        <X 0 0
          /wRTb3VuZCBDYW52YXM=
        >
        E 0 91 3a 5b
        E 1083 81 3a 44
        E 92 91 3e 66
        E 211 81 3e 33
        E 11 91 41 59
        E 254 91 43 61
        E 1 81 41 36
        E 221 81 43 3e
        E 3 91 41 5a
        E 239 91 3f 54
        E 26 81 41 35
        E 125 81 3f 19
        E 49 91 41 5b
        E 61 91 3f 57
        E 15 81 41 3c
        E 343 91 3e 56
        E 18 81 3f 0c
        E 106 91 3f 4d
        E 12 81 3e 2f
        E 447 81 3f 41
        E 5 91 3e 57
        E 477 81 3e 38
        E 16 91 3c 56
        E 1153 81 3c 24
        E 74 91 3b 5e
        E 240 91 3c 5a
        E 3 81 3b 39
        E 229 81 3c 34
        E 9 91 3e 54
        E 238 81 3e 3a
        E 6 91 3c 59
        E 215 91 3a 57
        E 18 81 3c 2c
        E 102 81 3a 20
        E 69 91 3c 57
        E 66 91 3a 53
        E 11 81 3c 36
        E 341 81 3a 3e
        E 4 91 39 53
        E 118 91 3a 4d
        E 6 81 39 3a
        E 817 81 3a 1e
        E 146 91 3a 61
        E 689 81 3a 46
        E 5 91 3c 69
        E 254 91 3e 61
        E 2 81 3c 36
        E 414 81 3e 38
        E 60 91 3e 56
        E 335 81 3e 35
        E 132 91 3a 53
        E 0 91 3e 54
        E 423 81 3a 01
        E 49 91 3c 61
        E 23 81 3e 46
        E 471 91 3a 54
        E 8 81 3c 31
        E 836 81 3a 01
        E 130 91 3f 69
        E 454 81 3f 43
        E 11 91 3e 53
        E 465 81 3e 3a
        E 12 91 3c 53
        E 477 91 37 49
        E 3 81 3c 39
        E 3 91 3b 54
        E 381 81 37 1c
        E 85 81 3b 3b
        E 20 91 37 51
        E 488 91 3b 53
        E 16 81 37 4b
        E 446 81 3b 39
        E 3 91 3c 56
        E 823 81 3c 01
        E 160 91 39 4d
        E 694 91 3a 69
        E 19 81 39 2e
        E 209 91 3c 54
        E 9 81 3a 22
        E 468 91 3f 61
        E 4 81 3c 27
        E 416 81 3f 28
        E 72 91 3c 57
        E 475 81 3c 3c
        E 2 91 3a 61
        E 488 91 39 56
        E 20 81 3a 01
        E 792 81 39 01
        E 171 91 3e 5b
        E 463 91 3c 57
        E 7 81 3e 2f
        E 460 81 3c 3f
        E 6 91 3a 57
        E 461 81 3a 32
        E 22 91 39 56
        E 477 91 35 5b
        E 2 81 39 25
        E 493 81 35 52
        E 11 91 39 56
        E 463 91 3a 4e
        E 4 81 39 24
        E 813 81 3a 26
        E 164 91 3e 61
        E 657 81 3e 33
        E 57 91 3e 59
        E 158 81 3e 2d
        E 69 91 3e 54
        E 425 81 3e 2b
        E 59 91 3e 57
        E 383 81 3e 2c
        E 74 91 3e 5e
        E 486 81 3e 2c
        E 6 91 3d 56
        E 507 81 3d 39
        E 1 91 39 59
        E 807 81 39 01
        E 125 91 41 61
        E 721 81 41 2b
        E 26 91 3f 53
        E 206 81 3f 2f
        E 9 91 3e 56
        E 447 81 3e 30
        E 28 91 3c 5b
        E 457 81 3c 01
        E 17 91 3e 59
        E 477 91 40 53
        E 2 81 3e 15
        E 505 81 40 30
        E 3 91 3c 53
        E 859 81 3c 01
        E 96 91 43 6b
        E 700 81 43 36
        E 8 91 41 56
        E 252 91 3f 61
        E 19 81 41 2d
        E 445 91 43 6e
        E 2 81 3f 45
        E 468 81 43 37
        E 36 91 41 54
        E 665 81 41 34
        E 30 91 3f 5a
        E 227 81 3f 3c
        E 15 91 3e 56
        E 424 81 3e 40
        E 20 91 3c 53
        E 479 81 3c 10
        E 35 91 3a 50
        E 372 81 3a 3a
        E 100 91 3a 49
        E 384 81 3a 35
        E 94 91 3a 4d
        E 393 81 3a 30
        E 89 91 3c 4d
        E 426 81 3c 01
        E 60 91 3a 57
        E 1104 81 3a 3a
        E 94 91 3e 5e
        E 218 81 3e 37
        E 6 91 41 61
        E 240 81 41 3f
        E 8 91 43 61
        E 246 81 43 48
        E 7 91 41 5b
        E 225 91 3f 53
        E 19 81 41 3b
        E 117 81 3f 2d
        E 48 91 41 50
        E 50 91 3f 59
        E 19 81 41 45
        E 320 81 3f 2a
        E 12 91 3e 50
        E 131 81 3e 27
        E 7 91 3f 5a
        E 484 91 3e 53
        E 1 81 3f 27
        E 480 81 3e 33
        E 15 91 3c 47
        E 1120 81 3c 28
        E 78 91 3b 56
        E 221 81 3b 2c
        E 2 91 3c 56
        E 238 81 3c 30
        E 1 91 3e 56
        E 215 81 3e 33
        E 18 91 3c 53
        E 234 91 3a 4d
        E 13 81 3c 28
        E 103 81 3a 10
        E 82 91 3c 49
        E 68 81 3c 3e
        E 6 91 3a 4e
        E 350 91 39 45
        E 2 81 3a 12
        E 151 91 3a 50
        E 15 81 39 18
        E 1479 81 3a 51
        E 420 b0 7b 00
        GUID {3884DF6B-7F58-6240-990D-58696F3FB154}
        IGNTEMPO 0 120 4 4
        SRCCOLOR 505
        VELLANE -1 86 6
      >
    >
  >
  <TRACK {533E5558-895F-AD41-AFED-94D097E72BF2}
    NAME ""
    PEAKCOL 16576
    BEAT -1
    AUTOMODE 0
    VOLPAN 1 0 -1 -1 1
    MUTESOLO 0 0 0
    IPHASE 0
    ISBUS 2 -1
    BUSCOMP 0 0
    SHOWINMIX 1 0.6667 0.5 1 0.5 -1 -1 -1
    FREEMODE 0
    SEL 1
    REC 0 0 0 0 0 0 0
    VU 2
    TRACKHEIGHT 0 0
    INQ 0 0 0 0.5 100 0 0 100
    NCHAN 2
    FX 1
    TRACKID {533E5558-895F-AD41-AFED-94D097E72BF2}
    PERF 0
    MIDIOUT -1
    MAINSEND 1 0
  >
  <TRACK {B036EC92-132F-1342-9A75-32215E316F06}
    NAME "48 Hungary"
    PEAKCOL 16576
    BEAT -1
    AUTOMODE 0
    VOLPAN 1 0 -1 -1 1
    MUTESOLO 0 0 0
    IPHASE 0
    ISBUS 0 0
    BUSCOMP 0 0
    SHOWINMIX 1 0.6667 0.5 1 0.5 -1 -1 -1
    FREEMODE 0
    SEL 0
    REC 0 0 0 0 0 0 0
    VU 2
    TRACKHEIGHT 0 0
    INQ 0 0 0 0.5 100 0 0 100
    NCHAN 2
    FX 1
    TRACKID {B036EC92-132F-1342-9A75-32215E316F06}
    PERF 0
    MIDIOUT -1
    MAINSEND 1 0
    <ITEM
      POSITION 0
      SNAPOFFS 0
      LENGTH 127.92
      LOOP 1
      ALLTAKES 0
      FADEIN 1 0 0 1 0 0
      FADEOUT 1 0 0 1 0 0
      MUTE 0
      SEL 1
      IGUID {73CD503F-A11B-7641-AD69-A0FEC6A266AE}
      IID 15
      NAME "48 Hungary.mp3"
      VOLPAN 1 0 1 -1
      SOFFS 0
      PLAYRATE 1 1 0 -1 0 0.0025
      CHANMODE 0
      GUID {A887FFE8-9BFC-D946-98B3-E710914C3256}
      <SOURCE MP3
        FILE "48 Hungary.mp3" 1
      >
    >
  >
  <EXTENSIONS
    <SWSAUTOCOLOR
      {00000000-0000-0000-0000-000000000000} 0 ""
      {B35C022F-116E-5542-B21F-4E7065C4E47A} 0 ""
      {F4CC3575-1D7D-424F-8F4B-C71B325A2484} 0 ""
      {65BF5D08-DF3D-EA42-ADEF-5C04FE4BCE10} 0 ""
      {533E5558-895F-AD41-AFED-94D097E72BF2} 0 ""
      {B036EC92-132F-1342-9A75-32215E316F06} 0 ""
    >
  >
>
