<REAPER_PROJECT 0.1 "5.50rc21/OSX64" 1511885161
  RIPPLE 0
  GROUPOVERRIDE 0 0 0
  AUTOXFADE 0
  ENVATTACH 1
  POOLEDENVATTACH 0
  MIXERUIFLAGS 11 304
  PEAKGAIN 1
  FEEDBACK 0
  PANLAW 1
  PROJOFFS 0 0
  MAXPROJLEN 0 600
  GRID 174207 8 1 8 1 0 0 0
  TIMEMODE 6 0 -1 24 2
  PANMODE 3
  CURSOR 0
  ZOOM 27.90816472336533 0 0
  VZOOMEX 0
  USE_REC_CFG 0
  RECMODE 1
  SMPTESYNC 0 23.976024 100 40 1000 300 0 0 1 0 0
  MIDIEDITOR 1662728987 0 0
  LOOP 1
  LOOPGRAN 0 4
  RECORD_PATH "" ""
  <RECORD_CFG
    ZXZhdxAA
  >
  <APPLYFX_CFG
  >
  RENDER_FILE "/Users/samenglander/_dev/colorflags/anthems/egypt_2.mp3"
  RENDER_FMT 0 2 44100
  RENDER_1X 0
  RENDER_RANGE 2 0 0 18 1000
  RENDER_RESAMPLE 3 0 1
  RENDER_ADDTOPROJ 0
  RENDER_STEMS 0
  RENDER_DITHER 0
  TIMELOCKMODE 1
  TEMPOENVLOCKMODE 1
  ITEMMIX 1
  DEFPITCHMODE 589824
  TAKELANE 3
  SAMPLERATE 44100 0 0
  <RENDER_CFG
    bDNwbSAAAAABAAAABQAAAAAAAAAAAAAAQAEAAAAAAAA=
  >
  LOCK 1
  <METRONOME 6 2
    VOL 0.25 0.125
    FREQ 800 1600 1
    BEATLEN 4
    SAMPLES "" ""
    PATTERN 2863311530 2863311529
  >
  GLOBAL_AUTO -1
  TEMPO 120 4 4
  PLAYRATE 1 0 0.25 4
  SELECTION 32 0
  SELECTION2 32 0
  MASTERAUTOMODE 0
  MASTERTRACKHEIGHT 0
  MASTERPEAKCOL 16576
  MASTERMUTESOLO 0
  MASTERTRACKVIEW 0 0.6667 0.381818 0.5 0 0 0
  MASTERHWOUT 0 0 1 0 0 0 0 -1
  MASTER_NCH 2 2
  MASTER_VOLUME 1 0 -1 -1 1
  MASTER_FX 1
  MASTER_SEL 0
  <MASTERPLAYSPEEDENV
    ACT 0
    VIS 0 1 1
    LANEHEIGHT 0 0
    ARM 0
    DEFSHAPE 0 -1 -1
  >
  <TEMPOENVEX
    ACT 0
    VIS 1 0 1
    LANEHEIGHT 0 0
    ARM 0
    DEFSHAPE 1 -1 -1
  >
  MARKER 1 0 "egypt intro (banjo)" 1 0 1 B
  MARKER 1 16 "" 1 0 1 B
  MARKER 2 16 full 1 0 1 B
  MARKER 2 32 "" 1 0 1 B
  <PROJBAY
  >
  <TRACK {34B4F883-7F30-C640-8355-11E39F051619}
    NAME Midi
    PEAKCOL 16576
    BEAT -1
    AUTOMODE 0
    VOLPAN 1 0 -1 -1 1
    MUTESOLO 0 0 0
    IPHASE 0
    ISBUS 0 0
    BUSCOMP 0 0
    SHOWINMIX 1 0.6667 0.381818 1 0.5 0 0 0
    FREEMODE 0
    SEL 0
    REC 0 0 0 0 0 0 0
    VU 2
    TRACKHEIGHT 137 0
    INQ 0 0 0 0.5 100 0 0 100
    NCHAN 2
    FX 1
    TRACKID {34B4F883-7F30-C640-8355-11E39F051619}
    PERF 0
    MIDIOUT -1
    MAINSEND 1 0
    <ITEM
      POSITION 0
      SNAPOFFS 0
      LENGTH 40.5
      LOOP 1
      ALLTAKES 0
      FADEIN 1 0 0 1 0 0
      FADEOUT 1 0 0 1 0 0
      MUTE 0
      COLOR 22774783 B
      SEL 0
      IGUID {8669BBD5-8B07-7942-937A-0A3672615282}
      IID 10
      NAME "exten synt - National_Anthems_-_Egypt.mid"
      VOLPAN 1 0 1 -1
      SOFFS 0 0
      PLAYRATE 1 1 0 -1 0 0.0025
      CHANMODE 0
      TAKECOLOR 27282604 B
      GUID {EE43E0E7-AAA9-7A46-A662-965B61704E03}
      <SOURCE MIDI
        HASDATA 1 384 QN
        POOLEDEVTS {59B51CC3-2CE0-BF4E-BA05-8EFE27AFD3EA}
        <X 0 0 0 0 3 "exten synt"
          /wNleHRlbiBzeW50
        >
        e 288 92 3c 7f 3
        e 96 92 3c 00 -44
        e 0 92 41 7f -4
        e 0 92 39 7f 19
        e 0 92 3c 7f 19
        e 0 92 29 7f 37
        e 0 92 35 7f 43
        e 192 92 39 00 32
        e 0 92 3c 00 36
        e 96 92 41 00 13
        e 96 92 29 00 -40
        e 0 92 35 00 -30
        e 0 92 39 7f 1
        e 0 92 3e 7f 2
        e 0 92 41 7f 7
        e 0 92 26 7f 22
        e 0 92 32 7f 27
        e 192 92 39 00 25
        e 0 92 3e 00 24
        e 0 92 41 00 28
        e 96 92 32 00 37
        e 0 92 3c 7f -20
        e 96 92 26 00 -34
        e 0 92 3c 00 -64
        e 0 92 41 7f -22
        e 0 92 3a 7f -2
        e 0 92 3e 7f -1
        e 0 92 2e 7f 3
        e 0 92 22 7f 6
        e 192 92 3a 00 -5
        e 0 92 3e 00 3
        e 96 92 41 00 30
        e 0 92 2e 00 -10
        e 0 92 22 00 9
        e 96 92 29 7f -23
        e 0 92 35 7f -23
        e 0 92 41 7f -18
        e 0 92 39 7f -11
        e 0 92 3c 7f -10
        e 96 92 41 00 19
        e 0 92 40 7f 17
        e 96 92 39 00 15
        e 0 92 3c 00 19
        e 0 92 40 00 21
        e 96 92 29 00 11
        e 0 92 35 00 11
        e 0 92 41 7f -39
        e 96 92 41 00 -28
        e 0 92 24 7f -12
        e 0 92 30 7f -12
        e 0 92 3c 7f -8
        e 0 92 40 7f -8
        e 0 92 43 7f 3
        e 96 92 24 00 -26
        e 0 92 30 00 -20
        e 96 92 2b 7f -30
        e 0 92 37 7f -27
        e 96 92 2b 00 -35
        e 0 92 37 00 -28
        e 96 92 28 7f -29
        e 0 92 34 7f -24
        e 96 92 3c 00 -33
        e 0 92 40 00 -19
        e 0 92 28 00 -39
        e 0 92 34 00 -39
        e 96 92 43 00 11
        e 0 92 24 7f -30
        e 0 92 30 7f -27
        e 0 92 3c 7f -4
        e 0 92 40 7f -3
        e 0 92 45 7f -2
        e 96 92 24 00 -34
        e 0 92 30 00 -57
        e 0 92 3c 00 23
        e 0 92 40 00 46
        e 96 92 45 00 -15
        e 0 92 39 7f -19
        e 0 92 3c 7f -18
        e 0 92 35 7f -16
        e 0 92 29 7f -16
        e 0 92 41 7f -10
        e 96 92 35 00 38
        e 0 92 29 00 31
        e 96 92 39 00 16
        e 0 92 3c 00 22
        e 96 92 41 00 -10
        e 96 92 45 7f 1
        e 192 92 45 00 -22
        e 0 92 46 7f -16
        e 192 92 46 00 5
        e 0 92 35 7f -17
        e 0 92 29 7f -15
        e 0 92 41 7f -12
        e 0 92 45 7f -10
        e 0 92 3c 7f -7
        e 0 92 48 7f 1
        e 288 92 35 00 -1
        e 0 92 29 00 3
        e 0 92 3c 00 42
        e 0 92 48 00 39
        e 96 92 41 00 -39
        e 0 92 45 00 -37
        e 0 92 45 7f -37
        e 0 92 2d 7f -15
        e 0 92 39 7f -11
        e 0 92 3d 7f -9
        e 96 92 45 00 -132
        e 192 92 2d 00 16
        e 0 92 39 00 17
        e 0 92 3d 00 7
        e 0 92 43 7f -23
        e 96 92 43 00 -18
        e 0 92 3e 7f -42
        e 0 92 29 7f -39
        e 0 92 39 7f -38
        e 0 92 41 7f -32
        e 0 92 35 7f -31
        e 192 92 41 00 5
        e 0 92 45 7f -28
        e 96 92 3e 00 -20
        e 0 92 29 00 -11
        e 0 92 39 00 6
        e 0 92 35 00 7
        e 0 92 45 00 7
        e 0 92 43 7f 38
        e 96 92 40 7f -43
        e 0 92 3c 7f -34
        e 0 92 24 7f -24
        e 0 92 30 7f -23
        e 96 92 24 00 42
        e 0 92 30 00 33
        e 0 92 45 7f 47
        e 96 92 43 00 -32
        e 0 92 40 00 -38
        e 0 92 3c 00 -19
        e 0 92 3e 7f -43
        e 0 92 39 7f -31
        e 0 92 2d 7f -26
        e 0 92 21 7f -24
        e 96 92 3e 00 35
        e 0 92 39 00 -2
        e 0 92 2d 00 42
        e 0 92 21 00 36
        e 96 92 45 00 -31
        e 0 92 3c 7f -43
        e 0 92 39 7f -41
        e 0 92 41 7f -36
        e 0 92 29 7f -22
        e 0 92 1d 7f -15
        e 288 92 3c 00 23
        e 0 92 39 00 3
        e 0 92 29 00 1
        e 0 92 1d 00 15
        e 96 92 41 00 -31
        e 0 92 40 7f -43
        e 0 92 24 7f -32
        e 0 92 3a 7f -31
        e 0 92 30 7f -31
        e 0 92 37 7f -24
        e 96 92 3a 00 39
        e 0 92 37 00 38
        e 192 92 40 00 -30
        e 0 92 24 00 35
        e 0 92 30 00 25
        e 0 92 43 7f -30
        e 0 92 40 7f -8
        e 0 92 3a 7f -5
        e 96 92 43 00 -59
        e 0 92 40 00 -37
        e 0 92 3a 00 -38
        e 0 92 35 7f -35
        e 0 92 41 7f -34
        e 0 92 29 7f -32
        e 0 92 3c 7f -18
        e 0 92 39 7f -15
        e 384 92 35 00 -10
        e 0 92 41 00 45
        e 0 92 29 00 -15
        e 0 92 3c 00 1
        e 0 92 39 00 7
        e 288 92 3c 7f 11
        e 96 92 3c 00 -9
        e 0 92 39 7f 6
        e 0 92 41 7f 12
        e 0 92 3c 7d 14
        e 0 92 35 7f 18
        e 0 92 29 7f 19
        e 96 92 3c 00 -61
        e 192 92 39 00 25
        e 96 92 41 00 -36
        e 0 92 35 00 -10
        e 0 92 29 00 -19
        e 0 92 41 7f -2
        e 0 92 39 7f -2
        e 0 92 3e 7f -1
        e 0 92 32 7f 22
        e 0 92 26 7f 23
        e 192 92 39 00 47
        e 96 92 41 00 3
        e 0 92 3e 00 -5
        e 0 92 3c 7f -2
        e 96 92 32 00 -36
        e 0 92 26 00 -46
        e 0 92 3c 00 -26
        e 0 92 41 7f -14
        e 0 92 22 7f -8
        e 0 92 2e 7f -4
        e 0 92 3a 7f 6
        e 0 92 3e 7f 7
        e 288 92 2e 00 39
        e 0 92 3a 00 26
        e 0 92 3e 00 45
        e 96 92 41 00 -42
        e 0 92 22 00 -37
        e 0 92 39 7f -10
        e 0 92 3c 7f -7
        e 0 92 35 7f -7
        e 0 92 29 7f -4
        e 0 92 41 7f -3
        e 96 92 41 00 41
        e 0 92 40 7f 24
        e 192 92 39 00 40
        e 0 92 3c 00 36
        e 0 92 35 00 23
        e 0 92 29 00 25
        e 0 92 40 00 -48
        e 0 92 41 7f -46
        e 96 92 41 00 -34
        e 0 92 43 7f -22
        e 0 92 24 7f -13
        e 0 92 30 7f -12
        e 0 92 3c 7f -2
        e 0 92 40 7f -1
        e 192 92 24 00 -38
        e 0 92 30 00 -44
        e 0 92 2b 7f -16
        e 0 92 37 7f -11
        e 96 92 2b 00 -2
        e 0 92 37 00 5
        e 96 92 28 7f -30
        e 0 92 34 7f -29
        e 96 92 3c 00 -22
        e 0 92 40 00 -1
        e 0 92 28 00 -1
        e 0 92 34 00 5
        e 96 92 43 00 -10
        e 0 92 30 7f -30
        e 0 92 45 7f -25
        e 0 92 24 7f -25
        e 0 92 40 7f -12
        e 0 92 3c 7f -9
        e 96 92 30 00 9
        e 0 92 24 00 24
        e 96 92 45 00 -13
        e 0 92 40 00 -16
        e 0 92 3c 00 -38
        e 0 92 29 7f -32
        e 0 92 35 7f -31
        e 0 92 41 7f -29
        e 0 92 3c 7f 2
        e 0 92 39 7f 3
        e 192 92 29 00 21
        e 0 92 35 00 31
        e 0 92 41 00 31
        e 96 92 3c 00 4
        e 0 92 39 00 8
        e 96 92 45 7f -4
        e 192 92 45 00 -16
        e 0 92 46 7f -40
        e 192 92 46 00 -23
        e 0 92 45 7f -24
        e 0 92 3c 7f -23
        e 0 92 41 7f -23
        e 0 92 35 7f -7
        e 0 92 29 7f -1
        e 0 92 48 7f 6
        e 288 92 45 00 41
        e 0 92 35 00 -7
        e 0 92 29 00 6
        e 96 92 3c 00 -46
        e 0 92 41 00 -34
        e 0 92 48 00 29
        e 0 92 3d 7f -24
        e 0 92 39 7f -22
        e 0 92 2d 7f -19
        e 0 92 45 7f -17
        e 192 92 2d 00 7
        e 96 92 39 00 -16
        e 0 92 45 00 13
        e 0 92 43 7f -10
        e 96 92 3d 00 -36
        e 0 92 43 00 -3
        e 0 92 3e 7f -24
        e 0 92 29 7f -20
        e 0 92 35 7f -20
        e 0 92 39 7f -20
        e 0 92 41 7f -12
        e 192 92 41 00 23
        e 0 92 45 7f -7
        e 96 92 3e 00 40
        e 0 92 29 00 16
        e 0 92 35 00 16
        e 0 92 39 00 16
        e 96 92 45 00 -42
        e 0 92 40 7f -44
        e 0 92 24 7f -42
        e 0 92 30 7f -42
        e 0 92 3c 7f -42
        e 0 92 43 7f -16
        e 192 92 40 00 10
        e 0 92 24 00 -6
        e 0 92 30 00 -6
        e 0 92 3c 00 -6
        e 0 92 43 00 -15
        e 0 92 45 7f -35
        e 0 92 3e 7f -9
        e 0 92 21 7f -5
        e 0 92 2d 7f -5
        e 0 92 39 7f -5
        e 96 92 21 00 36
        e 0 92 2d 00 36
        e 0 92 39 00 36
        e 96 92 45 00 16
        e 0 92 3e 00 -32
        e 0 92 3c 7f -2
        e 0 92 1d 7f 1
        e 0 92 29 7f 1
        e 0 92 39 7f 1
        e 0 92 41 7f 12
        e 288 92 1d 00 -13
        e 0 92 29 00 -13
        e 0 92 39 00 -13
        e 96 92 3c 00 -34
        e 0 92 41 00 -44
        e 0 92 3a 7f -13
        e 0 92 24 7f -12
        e 0 92 30 7f -12
        e 0 92 37 7f -12
        e 0 92 40 7f -8
        e 192 92 3a 00
        e 0 92 24 00 10
        e 0 92 30 00 10
        e 0 92 37 00 10
        e 96 92 40 00 -11
        e 0 92 43 7f -11
        e 0 92 3a 7f -2
        e 0 92 40 7f 2
        e 96 92 43 00 9
        e 0 92 3a 00 13
        e 0 92 40 00 -2
        e 0 92 35 7f -15
        e 0 92 29 7f -12
        e 0 92 39 7f -11
        e 0 92 3c 7f -8
        e 0 92 41 7f 8
        e 192 92 35 00 19
        e 0 92 29 00 10
        e 96 92 39 00 -27
        e 0 92 3c 00 -2
        e 0 92 41 00 20
        e 96 92 45 7f -8
        e 192 92 45 00 -45
        e 96 92 45 7f 4
        e 96 92 45 00 -42
        e 0 92 45 7f -21
        e 0 92 35 7f -16
        e 0 92 29 7f -15
        e 0 92 30 7f -12
        e 96 92 35 00 -41
        e 0 92 29 00 -49
        e 0 92 30 00 -55
        e 96 92 41 7f -48
        e 0 92 3e 7f 43
        e 96 92 41 00 -86
        e 0 92 3e 00 18
        e 96 92 45 00 6
        e 0 92 3c 7f -32
        e 0 92 43 7f -3
        e 0 92 35 7f 1
        e 0 92 29 7f 2
        e 0 92 30 7f 4
        e 96 92 35 00 -35
        e 0 92 29 00 -34
        e 0 92 30 00 -46
        e 96 92 43 00 -17
        e 0 92 41 7f -30
        e 96 92 3c 00 4
        e 96 92 41 00 -36
        e 0 92 30 7f -31
        e 0 92 24 7f -29
        e 0 92 43 7f -20
        e 0 92 46 7f -19
        e 96 92 30 00 -71
        e 0 92 24 00 -68
        e 288 92 43 00 -30
        e 0 92 46 00 -41
        e 0 92 45 7f -31
        e 0 92 29 7f -25
        e 0 92 35 7f -24
        e 0 92 30 7f -22
        e 0 92 3e 7f -18
        e 96 92 29 00 -60
        e 0 92 35 00 -60
        e 0 92 30 00 -72
        e 192 92 45 00 18
        e 0 92 43 7f -3
        e 96 92 3e 00 29
        e 0 92 43 00 -52
        e 0 92 43 7f -20
        e 0 92 30 7f -18
        e 0 92 24 7f -12
        e 96 92 30 00 -66
        e 0 92 24 00 -56
        e 96 92 37 7f 23
        e 0 92 3c 7f 25
        e 0 92 2b 7f 31
        e 96 92 37 00 -25
        e 0 92 3c 00 -25
        e 0 92 2b 00 -32
        e 0 92 40 7f 16
        e 96 92 43 00 5
        e 0 92 40 00 -35
        e 0 92 28 7f -12
        e 0 92 34 7f -10
        e 0 92 43 7f 5
        e 96 92 28 00 -61
        e 0 92 34 00 -57
        e 0 92 43 00 -42
        e 0 92 40 7f 6
        e 96 92 40 00 -38
        e 0 92 43 7f -14
        e 0 92 24 7f -8
        e 0 92 30 7f -6
        e 96 92 43 00 -61
        e 0 92 24 00 -56
        e 0 92 30 00 -56
        e 0 92 48 7f -13
        e 96 92 48 00 -44
        e 0 92 43 7f -16
        e 0 92 37 7f -9
        e 0 92 2b 7f -7
        e 96 92 43 00 -71
        e 0 92 37 00 -61
        e 0 92 2b 00 -57
        e 288 92 46 7f -31
        e 0 92 35 7f -23
        e 0 92 29 7f -12
        e 192 92 46 00 5
        e 0 92 35 00 27
        e 0 92 29 00 -6
        e 96 92 40 7f -43
        e 0 92 46 7f -22
        e 0 92 32 7f -10
        e 0 92 26 7f
        e 96 92 40 00 -56
        e 0 92 46 00 -72
        e 0 92 32 00 -32
        e 0 92 26 00 -42
        e 0 92 3a 7f -39
        e 0 92 46 7f -36
        e 0 92 3e 7f -35
        e 0 92 22 7f -14
        e 0 92 2e 7f -10
        e 96 92 22 00 28
        e 0 92 2e 00 23
        e 96 92 3a 00 -9
        e 96 92 3e 00 -39
        e 0 92 3c 7f -38
        e 96 92 46 00 -5
        e 0 92 3c 00 -63
        e 0 92 3e 7f -38
        e 0 92 45 7f -30
        e 0 92 35 7f -21
        e 0 92 30 7f -18
        e 0 92 29 7f -16
        e 96 92 35 00 -39
        e 0 92 30 00 -46
        e 0 92 29 00 -39
        e 96 92 45 00 -11
        e 0 92 43 7f -22
        e 192 92 3e 00 -28
        e 0 92 43 00 17
        e 0 92 2b 7f -16
        e 0 92 37 7f -15
        e 0 92 48 7f -13
        e 0 92 30 7f -12
        e 0 92 45 7f
        e 96 92 2b 00 -51
        e 0 92 37 00 -47
        e 0 92 30 00 -53
        e 288 92 48 00 -4
        e 0 92 45 00 -18
        e 0 92 46 7f -8
        e 0 92 40 7f
        e 0 92 2b 7f 6
        e 0 92 37 7f 7
        e 0 92 30 7f 10
        e 96 92 2b 00 -28
        e 0 92 37 00 -11
        e 0 92 30 00 -36
        e 192 92 46 00 4
        e 0 92 45 7f 10
        e 96 92 40 00 16
        e 0 92 45 00 -26
        e 0 92 45 7f
        e 0 92 30 7f
        e 0 92 29 7f
        e 0 92 35 7f
        e 96 92 30 00 -18
        e 0 92 29 00 -10
        e 0 92 35 00 -36
        e 96 92 30 7f
        e 0 92 3c 7f
        e 96 92 30 00 -43
        e 0 92 3c 00 -44
        e 0 92 41 7f
        e 96 92 45 00
        e 0 92 41 00 -43
        e 0 92 45 7f
        e 0 92 2d 7f
        e 0 92 39 7f
        e 96 92 45 00 -30
        e 0 92 2d 00 -49
        e 0 92 39 00 -53
        e 0 92 41 7f
        e 96 92 41 00 -39
        e 0 92 45 7f
        e 0 92 35 7f
        e 0 92 29 7f
        e 96 92 45 00 -39
        e 0 92 35 00 -53
        e 0 92 29 00 -47
        e 0 92 4a 7f
        e 96 92 4a 00 -26
        e 0 92 3c 7f
        e 0 92 35 7f
        e 0 92 30 7f
        e 0 92 48 7f
        e 96 92 3c 00 -12
        e 0 92 35 00 -19
        e 0 92 30 00 -6
        e 96 92 48 00 33
        e 192 92 45 7f 3
        e 192 92 45 00 18
        e 96 92 45 7f 19
        e 96 92 45 00 -32
        e 0 92 35 7f -1
        e 0 92 30 7f 1
        e 0 92 29 7f 3
        e 0 92 45 7f 5
        e 96 92 35 00 -11
        e 0 92 30 00 -22
        e 0 92 29 00 -10
        e 96 92 41 7f -46
        e 96 92 41 00 -65
        e 0 92 3e 7f -34
        e 96 92 45 00 1
        e 0 92 3e 00 -25
        e 0 92 43 7f -21
        e 0 92 3c 7f -3
        e 0 92 35 7f 11
        e 0 92 30 7f 21
        e 0 92 29 7f 22
        e 96 92 35 00 -20
        e 0 92 30 00 -17
        e 0 92 29 00 3
        e 96 92 43 00 -14
        e 0 92 41 7f -25
        e 192 92 3c 00 -35
        e 0 92 41 00 -7
        e 0 92 46 7f -16
        e 0 92 24 7f -16
        e 0 92 30 7f -13
        e 96 92 24 00 -30
        e 0 92 30 00 -41
        e 96 92 43 7f -12
        e 192 92 46 00 -1
        e 0 92 43 00 -14
        e 0 92 3e 7f -25
        e 0 92 45 7f -21
        e 0 92 29 7f -6
        e 0 92 35 7f -4
        e 0 92 30 7f -2
        e 96 92 29 00 -36
        e 0 92 35 00 -37
        e 0 92 30 00 -46
        e 192 92 45 00 -11
        e 0 92 43 7f -4
        e 96 92 3e 00 -41
        e 0 92 43 00 -40
        e 0 92 43 7f -5
        e 0 92 37 7f 3
        e 0 92 2b 7f 11
        e 0 92 30 7f 11
        e 96 92 37 00 -41
        e 0 92 2b 00 -33
        e 0 92 30 00 -54
        e 96 92 2b 7f -2
        e 0 92 30 7f -1
        e 0 92 37 7f 2
        e 0 92 3c 7f 13
        e 96 92 2b 00 -42
        e 0 92 30 00 -47
        e 0 92 37 00 -51
        e 0 92 3c 00 -42
        e 0 92 40 7f -5
        e 96 92 43 00 -9
        e 0 92 40 00 -43
        e 0 92 43 7f -9
        e 0 92 34 7f 2
        e 0 92 28 7f 3
        e 96 92 43 00 -42
        e 0 92 34 00 -50
        e 0 92 28 00 -46
        e 96 92 45 7f -18
        e 0 92 40 7f -10
        e 0 92 37 7f -1
        e 0 92 30 7f 1
        e 0 92 2b 7f 2
        e 96 92 45 00 -22
        e 0 92 40 00 -60
        e 0 92 37 00 -54
        e 0 92 30 00 -46
        e 0 92 2b 00 -41
        e 0 92 43 7f -42
        e 0 92 46 7f -26
        e 96 92 43 00 -84
        e 0 92 46 00 -23
        e 0 92 3c 7f -18
        e 0 92 41 7f -18
        e 0 92 48 7f -18
        e 0 92 29 7f -6
        e 0 92 35 7f -1
        e 192 92 29 00 -33
        e 0 92 35 00 -47
        e 96 92 3c 00 -37
        e 0 92 41 00 -37
        e 0 92 48 00 -37
        e 96 92 48 7f 7
        e 192 92 48 00 -14
        e 96 92 48 7f -11
        e 96 92 48 00 -56
        e 0 92 41 7f -28
        e 0 92 3c 7f -24
        e 0 92 48 7f -20
        e 0 92 30 7f 5
        e 0 92 29 7f 7
        e 96 92 30 00 27
        e 0 92 29 00 29
        e 192 92 41 00 45
        e 0 92 3c 00 2
        e 96 92 48 00 -4
        e 0 92 3d 7f -47
        e 0 92 2d 7f -29
        e 0 92 21 7f -26
        e 0 92 45 7f -24
        e 96 92 2d 00 -18
        e 0 92 21 00 6
        e 96 92 45 00 39
        e 96 92 3d 00 23
        e 0 92 43 7f -30
        e 96 92 43 00 -56
        e 0 92 3e 7f -44
        e 0 92 39 7f -43
        e 0 92 41 7f -37
        e 0 92 26 7f -26
        e 0 92 32 7f -24
        e 192 92 41 00 -6
        e 0 92 26 00 28
        e 0 92 45 7f -25
        e 96 92 3e 00 34
        e 0 92 39 00 1
        e 0 92 32 00 -26
        e 96 92 45 00 -2
        e 0 92 3c 7f -34
        e 0 92 40 7f -32
        e 0 92 30 7f -16
        e 0 92 24 7f -16
        e 0 92 43 7f -6
        e 96 92 3c 00 45
        e 0 92 40 00 33
        e 0 92 30 00 -55
        e 0 92 24 00 -44
        e 0 92 3e 7f 45
        e 0 92 39 7f 47
        e 96 92 43 00 -8
        e 0 92 2d 7f -20
        e 0 92 21 7f -14
        e 0 92 45 7f -3
        e 96 92 3e 00 46
        e 0 92 39 00 -18
        e 0 92 2d 00 -45
        e 0 92 21 00 -30
        e 96 92 45 00 -22
        e 0 92 29 7f -22
        e 0 92 1d 7f -21
        e 0 92 41 7f -11
        e 0 92 39 7f -2
        e 0 92 3c 7f -1
        e 96 92 1d 00 44
        e 96 92 29 00 -45
        e 96 92 39 00 28
        e 96 92 41 00 -27
        e 0 92 3c 00 -8
        e 0 92 3a 7f -45
        e 0 92 37 7f -43
        e 0 92 40 7f -26
        e 0 92 30 7f -22
        e 0 92 24 7f -16
        e 96 92 3a 00 -7
        e 0 92 37 00 -19
        e 96 92 40 00 32
        e 96 92 30 00 -12
        e 0 92 24 00 19
        e 0 92 3a 7f -45
        e 0 92 40 7f -45
        e 0 92 43 7f -45
        e 96 92 3a 00 -41
        e 0 92 40 00 -41
        e 0 92 43 00 -41
        e 0 92 35 7f -34
        e 0 92 41 7f -32
        e 0 92 29 7f -31
        e 0 92 39 7f -30
        e 0 92 3c 7f -28
        e 96 92 35 00 27
        e 0 92 29 00 26
        e 0 92 39 00 -41
        e 0 92 3c 00 -14
        e 96 92 30 7f -22
        e 0 92 43 7f -18
        e 0 92 24 7f -17
        e 96 92 43 00 -62
        e 0 92 45 7f -22
        e 96 92 41 00 -14
        e 0 92 30 00 -48
        e 0 92 24 00 -41
        e 0 92 45 00 -67
        e 0 92 46 7f -36
        e 0 92 26 7f -11
        e 0 92 32 7f -11
        e 96 92 46 00 -69
        e 0 92 32 00 44
        e 0 92 48 7f -42
        e 96 92 26 00 -40
        e 0 92 48 00 -83
        e 0 92 4a 7f -48
        e 0 92 28 7f -20
        e 0 92 34 7f -20
        e 0 92 4c 7f 45
        e 96 92 4a 00 -91
        e 0 92 4c 00 12
        e 0 92 3c 7f -20
        e 0 92 45 7f 45
        e 0 92 41 7f 46
        e 96 92 28 00 -44
        e 0 92 34 00 -48
        e 0 92 3c 00 -56
        e 0 92 4d 7f -41
        e 0 92 35 7f -18
        e 0 92 29 7f -17
        e 288 92 45 00 26
        e 0 92 41 00 -22
        e 0 92 4d 00 18
        e 0 92 35 00 -3
        e 0 92 29 00 -21
        e 96 92 4d 7f -40
        e 0 92 32 7f -39
        e 0 92 26 7f -34
        e 0 92 41 7f -28
        e 0 92 3e 7f -25
        e 0 92 39 7f -22
        e 96 92 32 00 16
        e 0 92 26 00 13
        e 96 92 4d 00 32
        e 0 92 41 00 -38
        e 0 92 3e 00 7
        e 0 92 39 00 15
        e 0 92 3c 7f 45
        e 96 92 3c 00 1
        e 0 92 24 7f -30
        e 0 92 30 7f -26
        e 0 92 48 7f -9
        e 0 92 3e 7f 44
        e 0 92 41 7f 46
        e 96 92 24 00 -72
        e 0 92 30 00 -80
        e 0 92 48 00 -52
        e 0 92 3a 7f -48
        e 0 92 2e 7f -37
        e 0 92 22 7f -37
        e 0 92 4d 7f -25
        e 192 92 3e 00 28
        e 0 92 3a 00 34
        e 96 92 41 00 3
        e 0 92 2e 00 -11
        e 0 92 22 00 40
        e 0 92 4d 00 7
        e 96 92 4d 7f -45
        e 0 92 3c 7f -39
        e 0 92 35 7f -37
        e 0 92 29 7f -35
        e 0 92 39 7f -34
        e 0 92 41 7f -13
        e 96 92 4d 00 9
        e 0 92 41 00 -3
        e 0 92 4c 7f -10
        e 0 92 40 7f 13
        e 96 92 39 00 45
        e 0 92 4c 00 -31
        e 0 92 40 00 -5
        e 0 92 4d 7f 4
        e 0 92 41 7f 36
        e 96 92 3c 00 -43
        e 0 92 35 00 -3
        e 0 92 29 00 -5
        e 0 92 4d 00 8
        e 0 92 41 00 31
        e 0 92 4f 7f 45
        e 0 92 30 7f 47
        e 96 92 24 7f -48
        e 0 92 43 7f -26
        e 0 92 40 7f -10
        e 0 92 3c 7f
        e 96 92 30 00 -38
        e 0 92 24 00 -21
        e 96 92 37 7f -36
        e 0 92 2b 7f -35
        e 96 92 37 00 -51
        e 0 92 2b 00 -53
        e 96 92 34 7f -39
        e 0 92 28 7f -38
        e 96 92 40 00 -14
        e 0 92 3c 00 -28
        e 0 92 34 00 -52
        e 0 92 28 00 -40
        e 96 92 4f 00 -38
        e 0 92 43 00 -6
        e 0 92 30 7f -38
        e 0 92 24 7f -36
        e 0 92 51 7f -30
        e 0 92 45 7f -22
        e 0 92 40 7f -21
        e 0 92 3c 7f -17
        e 96 92 30 00 -24
        e 0 92 24 00 1
        e 0 92 51 00 33
        e 0 92 40 00 -14
        e 0 92 3c 00 -21
        e 96 92 45 00 -35
        e 0 92 4d 7f -36
        e 0 92 41 7f -27
        e 0 92 35 7f -22
        e 0 92 29 7f -20
        e 0 92 3c 7f -19
        e 0 92 39 7f -16
        e 192 92 4d 00 45
        e 0 92 35 00 -9
        e 0 92 29 00 -12
        e 0 92 39 00 47
        e 96 92 41 00 6
        e 0 92 3c 00 -34
        e 96 92 45 7f 8
        e 0 92 51 7f 9
        e 192 92 45 00 -32
        e 0 92 51 00 -20
        e 0 92 46 7f -17
        e 0 92 52 7f -15
        e 192 92 46 00 -23
        e 0 92 52 00 35
        e 0 92 35 7f -16
        e 0 92 41 7f -14
        e 0 92 29 7f -12
        e 0 92 45 7f -12
        e 0 92 3c 7f -6
        e 0 92 48 7f 3
        e 0 92 54 7f 15
        e 288 92 35 00 6
        e 0 92 41 00 35
        e 0 92 29 00 8
        e 0 92 45 00 46
        e 0 92 3c 00 12
        e 0 92 48 00 38
        e 96 92 54 00 -32
        e 0 92 51 7f -27
        e 0 92 45 7f -21
        e 0 92 39 7f -10
        e 0 92 2d 7f -10
        e 0 92 3d 7f 4
        e 288 92 51 00 6
        e 0 92 45 00 -9
        e 0 92 39 00 -13
        e 0 92 2d 00 -1
        e 0 92 3d 00 44
        e 0 92 43 7f -28
        e 0 92 4f 7f -19
        e 96 92 43 00 -16
        e 0 92 4f 00 -54
        e 0 92 41 7f -29
        e 0 92 4d 7f -24
        e 0 92 29 7f -23
        e 0 92 35 7f -22
        e 0 92 3e 7f -13
        e 0 92 39 7f -7
        e 192 92 41 00 -8
        e 0 92 4d 00 -6
        e 0 92 45 7f -41
        e 0 92 51 7f -28
        e 96 92 29 00 7
        e 0 92 35 00 10
        e 0 92 3e 00 3
        e 0 92 39 00 -34
        e 0 92 45 00 -8
        e 0 92 51 00 22
        e 0 92 43 7f 47
        e 96 92 40 7f -44
        e 0 92 4f 7f -41
        e 0 92 3c 7f -40
        e 0 92 24 7f -18
        e 0 92 30 7f -17
        e 96 92 43 00 20
        e 0 92 40 00 -31
        e 0 92 4f 00 18
        e 0 92 3c 00 -25
        e 0 92 24 00 39
        e 0 92 30 00 32
        e 0 92 45 7f 33
        e 0 92 51 7f 45
        e 96 92 39 7f -42
        e 0 92 3e 7f -40
        e 0 92 2d 7f -28
        e 0 92 21 7f -24
        e 96 92 39 00 -31
        e 0 92 3e 00 -27
        e 0 92 2d 00 40
        e 0 92 21 00 39
        e 96 92 45 00 -46
        e 0 92 51 00 -42
        e 0 92 39 7f -42
        e 0 92 3c 7f -39
        e 0 92 41 7f -36
        e 0 92 4d 7f -24
        e 0 92 29 7f -17
        e 0 92 1d 7f -14
        e 192 92 39 00 24
        e 0 92 3c 00 34
        e 96 92 29 00 14
        e 0 92 1d 00 17
        e 96 92 41 00 -9
        e 0 92 4d 00 -15
        e 0 92 4c 7f -17
        e 0 92 40 7f -16
        e 0 92 30 7f -16
        e 0 92 24 7f -13
        e 0 92 3a 7f -5
        e 0 92 37 7f -4
        e 192 92 4c 00 37
        e 0 92 3a 00 4
        e 0 92 37 00 -3
        e 96 92 40 00 -8
        e 0 92 30 00 18
        e 0 92 24 00 32
        e 0 92 43 7f 9
        e 0 92 4f 7f 11
        e 0 92 3a 7f 17
        e 0 92 40 7f 22
        e 96 92 43 00 15
        e 0 92 4f 00 12
        e 0 92 3a 00 -10
        e 0 92 40 00 21
        e 0 92 4d 7f 39
        e 0 92 29 7f 41
        e 0 92 35 7f 44
        e 0 92 41 7f 46
        e 96 92 39 7f -47
        e 0 92 3c 7f -46
        e 288 92 4d 00 16
        e 0 92 29 00 37
        e 0 92 35 00 40
        e 0 92 41 00 43
        e 0 92 39 00 41
        e 0 92 3c 00 23
        E 384 b0 7b 00
        GUID {3BD01C5B-8263-3C4D-849F-8D50834328CF}
        IGNTEMPO 0 120 4 4
        SRCCOLOR 770
        VELLANE -1 108 6
        CFGEDITVIEW 0 13.62963 43 12 0 0 0 0 0 0.5
        KEYSNAP 0
        TRACKSEL 226
        EVTFILTER 0 -1 -1 -1 -1 0 0 0 0 -1 -1 -1 -1 0 -1 0 -1 -1
        CFGEDIT 1 1 0 0 0 0 1 0 1 1 1 0.25 0 187 878 778 0 0 2 3 0 0 0 0 0 -1 0 0 1 64
      >
      TAKE
      NAME "exten synt - National_Anthems_-_Egypt.mid"
      TAKEVOLPAN 0 1 -1
      SOFFS 0 0
      PLAYRATE 1 1 0 -1 0 0.0025
      CHANMODE 0
      GUID {37FBB695-FE29-FB4D-87AB-B03E1884BB76}
      <SOURCE MIDI
        HASDATA 1 384 QN
        POOLEDEVTS {3E2612B0-4CE1-5C40-AEAD-689CCA552A84}
        <X 0 0 0 0 3 "exten synt"
          /wNleHRlbiBzeW50
        >
        E 291 92 3c 5e
        E 49 92 3c 00
        E 40 92 41 57
        E 23 92 39 44
        E 0 92 3c 4c
        E 18 92 29 4e
        E 6 92 35 57
        E 181 92 39 00
        E 4 92 3c 00
        E 73 92 41 00
        E 43 92 29 00
        E 10 92 35 00
        E 31 92 39 45
        E 1 92 3e 4b
        E 5 92 41 51
        E 15 92 26 48
        E 5 92 32 59
        E 189 92 3e 00
        E 1 92 39 00
        E 3 92 41 00
        E 48 92 3c 58
        E 52 92 3c 00
        E 5 92 32 00
        E 25 92 26 00
        E 12 92 41 51
        E 20 92 3a 45
        E 1 92 3e 4a
        E 4 92 2e 50
        E 3 92 22 4b
        E 181 92 3a 00
        E 8 92 3e 00
        E 83 92 2e 00
        E 19 92 22 00
        E 21 92 41 00
        E 43 92 29 4d
        E 0 92 35 57
        E 5 92 41 53
        E 7 92 39 4a
        E 1 92 3c 4f
        E 123 92 40 5a
        E 2 92 41 00
        E 92 92 39 00
        E 4 92 3c 00
        E 2 92 40 00
        E 36 92 41 5a
        E 50 92 29 00
        E 0 92 35 00
        E 57 92 41 00
        E 16 92 24 4e
        E 0 92 30 5b
        E 4 92 3c 4a
        E 0 92 40 4a
        E 11 92 43 54
        E 67 92 24 00
        E 6 92 30 00
        E 86 92 2b 50
        E 3 92 37 59
        E 88 92 2b 00
        E 7 92 37 00
        E 95 92 28 50
        E 5 92 34 54
        E 81 92 34 00
        E 0 92 28 00
        E 6 92 3c 00
        E 14 92 40 00
        E 85 92 24 48
        E 3 92 30 5a
        E 23 92 3c 55
        E 1 92 40 4d
        E 1 92 45 50
        E 13 92 43 00
        E 28 92 30 00
        E 23 92 24 00
        E 57 92 3c 00
        E 23 92 40 00
        E 31 92 39 45
        E 1 92 3c 42
        E 2 92 35 51
        E 0 92 29 47
        E 1 92 45 00
        E 5 92 41 53
        E 137 92 29 00
        E 7 92 35 00
        E 74 92 39 00
        E 6 92 3c 00
        E 64 92 41 00
        E 107 92 45 54
        E 169 92 45 00
        E 6 92 46 4e
        E 191 92 35 53
        E 2 92 29 4e
        E 3 92 41 47
        E 2 92 45 48
        E 3 92 3c 47
        E 8 92 48 52
        E 4 92 46 00
        E 282 92 35 00
        E 4 92 29 00
        E 36 92 48 00
        E 3 92 3c 00
        E 15 92 41 00
        E 2 92 45 54
        E 1 92 45 00
        E 21 92 2d 48
        E 4 92 39 58
        E 2 92 3d 4a
        E 274 92 43 4a
        E 12 92 45 00
        E 18 92 3d 00
        E 9 92 2d 00
        E 1 92 39 00
        E 37 92 3e 42
        E 0 92 41 49
        E 3 92 29 4a
        E 1 92 39 42
        E 6 92 41 52
        E 1 92 35 55
        E 13 92 43 00
        E 182 92 45 53
        E 33 92 41 00
        E 71 92 3e 00
        E 9 92 29 00
        E 17 92 39 00
        E 1 92 35 00
        E 0 92 45 00
        E 15 92 41 00
        E 16 92 43 4d
        E 15 92 40 52
        E 9 92 3c 4a
        E 10 92 24 52
        E 1 92 30 63
        E 152 92 30 00
        E 9 92 24 00
        E 5 92 45 4f
        E 6 92 3e 53
        E 5 92 40 00
        E 6 92 43 00
        E 1 92 39 47
        E 5 92 2d 4a
        E 2 92 21 4a
        E 5 92 3c 00
        E 113 92 39 00
        E 37 92 3e 00
        E 1 92 21 00
        E 6 92 2d 00
        E 11 92 3c 55
        E 2 92 39 43
        E 5 92 41 4f
        E 5 92 45 00
        E 9 92 29 51
        E 7 92 1d 4a
        E 304 92 29 00
        E 2 92 39 00
        E 12 92 1d 00
        E 8 92 3c 00
        E 30 92 40 51
        E 11 92 24 4e
        E 1 92 3a 51
        E 0 92 30 57
        E 0 92 41 00
        E 7 92 37 50
        E 158 92 37 00
        E 1 92 3a 00
        E 123 92 43 48
        E 0 92 40 00
        E 22 92 40 4e
        E 3 92 3a 3b
        E 30 92 30 00
        E 10 92 24 00
        E 2 92 43 00
        E 21 92 3a 00
        E 1 92 40 00
        E 2 92 35 53
        E 1 92 41 4a
        E 2 92 29 4f
        E 14 92 3c 54
        E 3 92 39 42
        E 384 92 29 00
        E 5 92 35 00
        E 11 92 3c 00
        E 6 92 39 00
        E 38 92 41 00
        E 254 92 3c 58
        E 76 92 3c 00
        E 13 92 3c 4c
        E 2 92 39 4e
        E 6 92 41 50
        E 2 92 3c 1b
        E 4 92 35 54
        E 1 92 29 4b
        E 16 92 3c 00
        E 278 92 39 00
        E 24 92 3c 00
        E 11 92 41 00
        E 17 92 29 00
        E 9 92 35 00
        E 8 92 41 57
        E 0 92 39 4a
        E 1 92 3e 50
        E 23 92 32 55
        E 1 92 26 46
        E 216 92 39 00
        E 44 92 3e 00
        E 3 92 3c 52
        E 5 92 41 00
        E 47 92 26 00
        E 10 92 32 00
        E 10 92 3c 00
        E 12 92 41 50
        E 6 92 22 48
        E 4 92 2e 50
        E 10 92 3a 4e
        E 1 92 3e 4f
        E 307 92 3a 00
        E 13 92 2e 00
        E 6 92 3e 00
        E 9 92 41 00
        E 5 92 22 00
        E 27 92 39 51
        E 3 92 3c 50
        E 0 92 35 52
        E 3 92 29 47
        E 1 92 41 52
        E 123 92 40 55
        E 17 92 41 00
        E 103 92 40 00
        E 2 92 41 59
        E 69 92 35 00
        E 2 92 29 00
        E 11 92 3c 00
        E 4 92 39 00
        E 22 92 41 00
        E 12 92 43 4a
        E 9 92 24 53
        E 1 92 30 5e
        E 10 92 3c 4e
        E 1 92 40 4a
        E 149 92 30 00
        E 6 92 24 00
        E 22 92 2b 48
        E 5 92 37 58
        E 105 92 2b 00
        E 7 92 37 00
        E 61 92 28 4b
        E 1 92 34 51
        E 103 92 3c 00
        E 21 92 28 00
        E 0 92 40 00
        E 6 92 34 00
        E 61 92 30 5b
        E 5 92 45 50
        E 0 92 24 4d
        E 13 92 40 4d
        E 2 92 43 00
        E 1 92 3c 57
        E 114 92 30 00
        E 15 92 24 00
        E 34 92 3c 00
        E 6 92 29 4a
        E 1 92 35 53
        E 2 92 41 50
        E 13 92 40 00
        E 3 92 45 00
        E 15 92 3c 4c
        E 1 92 39 50
        E 210 92 29 00
        E 10 92 41 00
        E 0 92 35 00
        E 69 92 3c 00
        E 4 92 39 00
        E 84 92 45 55
        E 156 92 46 4f
        E 24 92 45 00
        E 184 92 45 4a
        E 1 92 3c 4f
        E 0 92 41 49
        E 0 92 46 00
        E 16 92 35 5b
        E 6 92 29 52
        E 7 92 48 51
        E 275 92 35 00
        E 13 92 29 00
        E 35 92 45 00
        E 9 92 3c 00
        E 12 92 41 00
        E 10 92 3d 4d
        E 2 92 39 57
        E 3 92 2d 4f
        E 2 92 45 5a
        E 46 92 48 00
        E 170 92 2d 00
        E 73 92 39 00
        E 6 92 43 4a
        E 23 92 45 00
        E 47 92 3d 00
        E 12 92 3e 50
        E 4 92 29 4a
        E 0 92 35 4a
        E 0 92 39 4a
        E 8 92 41 53
        E 9 92 43 00
        E 188 92 45 4f
        E 30 92 41 00
        E 89 92 39 00
        E 0 92 35 00
        E 0 92 29 00
        E 24 92 3e 00
        E 12 92 40 47
        E 2 92 24 4c
        E 0 92 30 4c
        E 0 92 3c 4c
        E 0 92 45 00
        E 26 92 43 53
        E 173 92 45 50
        E 20 92 43 00
        E 6 92 3e 4a
        E 3 92 30 00
        E 0 92 3c 00
        E 0 92 24 00
        E 1 92 21 45
        E 0 92 2d 45
        E 0 92 39 45
        E 15 92 40 00
        E 122 92 2d 00
        E 0 92 21 00
        E 0 92 39 00
        E 28 92 3e 00
        E 30 92 3c 4f
        E 3 92 1d 4a
        E 0 92 29 4a
        E 0 92 39 4a
        E 11 92 41 48
        E 4 92 45 00
        E 259 92 39 00
        E 0 92 29 00
        E 0 92 1d 00
        E 65 92 41 00
        E 10 92 3c 00
        E 21 92 3a 48
        E 1 92 24 50
        E 0 92 30 50
        E 0 92 37 50
        E 4 92 40 4a
        E 200 92 3a 00
        E 10 92 37 00
        E 0 92 24 00
        E 0 92 30 00
        E 75 92 43 44
        E 0 92 40 00
        E 9 92 3a 4b
        E 4 92 40 46
        E 79 92 35 55
        E 3 92 29 4b
        E 1 92 39 4c
        E 3 92 3c 4b
        E 6 92 40 00
        E 10 92 41 4d
        E 1 92 43 00
        E 4 92 3a 00
        E 189 92 29 00
        E 9 92 35 00
        E 50 92 39 00
        E 25 92 3c 00
        E 22 92 41 00
        E 68 92 45 44
        E 155 92 45 00
        E 145 92 45 46
        E 50 92 45 00
        E 21 92 45 3e
        E 5 92 35 32
        E 1 92 29 2f
        E 3 92 30 41
        E 53 92 30 00
        E 6 92 29 00
        E 8 92 35 00
        E 89 92 41 4c
        E 58 92 41 00
        E 33 92 3e 4d
        E 71 92 3e 00
        E 46 92 3c 4c
        E 29 92 43 39
        E 4 92 35 3c
        E 1 92 29 3a
        E 2 92 30 3e
        E 2 92 45 00
        E 44 92 30 00
        E 11 92 35 00
        E 1 92 29 00
        E 100 92 41 41
        E 13 92 43 00
        E 117 92 3c 00
        E 56 92 41 00
        E 5 92 30 4d
        E 2 92 24 35
        E 9 92 43 48
        E 1 92 46 3a
        E 44 92 30 00
        E 3 92 24 00
        E 315 92 46 00
        E 10 92 45 41
        E 1 92 43 00
        E 5 92 29 3a
        E 1 92 35 3e
        E 2 92 30 42
        E 4 92 3e 4a
        E 42 92 30 00
        E 12 92 35 00
        E 0 92 29 00
        E 249 92 43 3c
        E 21 92 45 00
        E 26 92 43 00
        E 32 92 43 42
        E 2 92 30 50
        E 6 92 24 37
        E 41 92 3e 00
        E 1 92 30 00
        E 10 92 24 00
        E 175 92 37 4e
        E 2 92 3c 4c
        E 6 92 2b 37
        E 33 92 2b 00
        E 7 92 3c 00
        E 0 92 37 00
        E 41 92 40 4a
        E 45 92 40 00
        E 23 92 28 3a
        E 2 92 34 46
        E 15 92 43 45
        E 30 92 28 00
        E 4 92 34 00
        E 15 92 43 00
        E 48 92 40 4a
        E 52 92 40 00
        E 24 92 43 46
        E 6 92 24 3e
        E 2 92 30 4f
        E 41 92 43 00
        E 5 92 30 00
        E 0 92 24 00
        E 43 92 48 44
        E 65 92 48 00
        E 28 92 43 4a
        E 7 92 37 51
        E 2 92 2b 3d
        E 32 92 43 00
        E 10 92 37 00
        E 4 92 2b 00
        E 125 92 43 00
        E 189 92 46 48
        E 8 92 35 48
        E 11 92 29 40
        E 198 92 29 00
        E 11 92 46 00
        E 22 92 35 00
        E 26 92 40 42
        E 21 92 46 3e
        E 12 92 32 3c
        E 10 92 26 3d
        E 24 92 46 00
        E 16 92 40 00
        E 14 92 26 00
        E 3 92 3a 3e
        E 3 92 46 43
        E 1 92 3e 48
        E 3 92 32 00
        E 18 92 22 39
        E 4 92 2e 40
        E 129 92 2e 00
        E 5 92 22 00
        E 59 92 3a 00
        E 66 92 3e 00
        E 1 92 3c 50
        E 71 92 3c 00
        E 25 92 3e 4c
        E 8 92 45 47
        E 9 92 35 45
        E 3 92 30 4f
        E 2 92 29 42
        E 11 92 46 00
        E 55 92 30 00
        E 7 92 35 00
        E 0 92 29 00
        E 113 92 43 3f
        E 11 92 45 00
        E 175 92 3e 00
        E 12 92 2b 3e
        E 1 92 37 47
        E 2 92 48 44
        E 1 92 30 49
        E 12 92 45 4a
        E 17 92 43 00
        E 26 92 30 00
        E 2 92 2b 00
        E 4 92 37 00
        E 317 92 45 00
        E 10 92 46 45
        E 4 92 48 00
        E 4 92 40 4a
        E 6 92 2b 42
        E 1 92 37 48
        E 3 92 30 49
        E 50 92 30 00
        E 8 92 2b 00
        E 17 92 37 00
        E 207 92 46 00
        E 6 92 45 64
        E 60 92 45 00
        E 26 92 45 43
        E 0 92 30 4e
        E 0 92 29 3c
        E 0 92 35 4c
        E 16 92 40 00
        E 44 92 35 00
        E 18 92 30 00
        E 8 92 29 00
        E 106 92 30 4a
        E 0 92 3c 4a
        E 52 92 3c 00
        E 1 92 30 00
        E 43 92 41 4e
        E 53 92 41 00
        E 43 92 45 50
        E 0 92 2d 41
        E 0 92 39 4d
        E 43 92 39 00
        E 4 92 2d 00
        E 19 92 45 00
        E 30 92 41 50
        E 57 92 41 00
        E 39 92 45 4a
        E 0 92 35 4d
        E 0 92 29 40
        E 43 92 35 00
        E 6 92 29 00
        E 8 92 45 00
        E 39 92 4a 4f
        E 70 92 4a 00
        E 26 92 3c 4a
        E 0 92 35 4a
        E 0 92 30 4b
        E 0 92 48 4c
        E 77 92 35 00
        E 7 92 3c 00
        E 6 92 30 00
        E 2 92 45 00
        E 133 92 48 00
        E 162 92 45 4a
        E 207 92 45 00
        E 97 92 45 46
        E 45 92 45 00
        E 31 92 35 4e
        E 2 92 30 48
        E 2 92 29 3c
        E 2 92 45 4c
        E 69 92 30 00
        E 11 92 35 00
        E 1 92 29 00
        E 60 92 41 4e
        E 77 92 41 00
        E 31 92 3e 4d
        E 105 92 3e 00
        E 4 92 43 43
        E 18 92 3c 50
        E 4 92 45 00
        E 10 92 35 4f
        E 10 92 30 4d
        E 1 92 29 3c
        E 54 92 35 00
        E 3 92 30 00
        E 20 92 29 00
        E 68 92 41 42
        E 11 92 43 00
        E 171 92 3c 00
        E 19 92 46 3e
        E 0 92 24 49
        E 3 92 30 4f
        E 6 92 41 00
        E 62 92 30 00
        E 11 92 24 00
        E 114 92 43 37
        E 179 92 3e 33
        E 4 92 45 50
        E 7 92 43 00
        E 8 92 29 38
        E 2 92 35 4e
        E 2 92 30 45
        E 1 92 46 00
        E 51 92 30 00
        E 9 92 35 00
        E 1 92 29 00
        E 217 92 45 00
        E 7 92 43 44
        E 59 92 3e 00
        E 1 92 43 00
        E 35 92 43 49
        E 8 92 37 50
        E 8 92 2b 3b
        E 0 92 30 46
        E 31 92 30 00
        E 13 92 37 00
        E 8 92 2b 00
        E 127 92 2b 43
        E 1 92 30 47
        E 3 92 37 57
        E 11 92 3c 51
        E 32 92 37 00
        E 4 92 30 00
        E 5 92 3c 00
        E 0 92 2b 00
        E 37 92 40 4e
        E 58 92 40 00
        E 34 92 43 47
        E 11 92 34 4a
        E 1 92 28 42
        E 43 92 34 00
        E 4 92 28 00
        E 4 92 43 00
        E 120 92 45 49
        E 8 92 40 4b
        E 6 92 43 00
        E 3 92 37 53
        E 2 92 30 48
        E 1 92 2b 3f
        E 34 92 40 00
        E 6 92 37 00
        E 8 92 30 00
        E 4 92 43 4a
        E 1 92 2b 00
        E 15 92 46 44
        E 4 92 45 00
        E 34 92 43 00
        E 61 92 46 00
        E 5 92 3c 39
        E 0 92 41 39
        E 0 92 48 39
        E 12 92 29 42
        E 5 92 35 54
        E 146 92 35 00
        E 14 92 29 00
        E 92 92 3c 00
        E 0 92 41 00
        E 0 92 48 00
        E 140 92 48 50
        E 171 92 48 00
        E 99 92 48 4a
        E 51 92 48 00
        E 28 92 41 4a
        E 4 92 3c 4c
        E 4 92 48 43
        E 25 92 30 53
        E 2 92 29 47
        E 116 92 30 00
        E 2 92 29 00
        E 165 92 3c 00
        E 43 92 41 00
        E 4 92 3d 4e
        E 18 92 2d 55
        E 3 92 21 49
        E 2 92 45 43
        E 20 92 48 00
        E 82 92 2d 00
        E 24 92 21 00
        E 129 92 45 00
        E 27 92 43 3d
        E 53 92 3d 00
        E 17 92 43 00
        E 12 92 3e 4a
        E 1 92 39 43
        E 6 92 41 3f
        E 11 92 26 46
        E 2 92 32 57
        E 191 92 45 40
        E 19 92 41 00
        E 34 92 26 00
        E 42 92 32 00
        E 27 92 39 00
        E 33 92 3e 00
        E 28 92 3c 4c
        E 2 92 40 42
        E 16 92 30 5e
        E 0 92 24 46
        E 10 92 43 3e
        E 4 92 45 00
        E 43 92 30 00
        E 11 92 24 00
        E 77 92 40 00
        E 12 92 3e 49
        E 0 92 3c 00
        E 2 92 39 4b
        E 29 92 2d 50
        E 6 92 21 46
        E 6 92 43 00
        E 5 92 45 40
        E 54 92 2d 00
        E 15 92 21 00
        E 12 92 39 00
        E 64 92 3e 00
        E 28 92 29 50
        E 0 92 45 00
        E 1 92 1d 45
        E 10 92 41 40
        E 9 92 39 41
        E 1 92 3c 51
        E 141 92 1d 00
        E 7 92 29 00
        E 169 92 39 00
        E 23 92 3a 4a
        E 2 92 37 4f
        E 16 92 41 00
        E 1 92 40 46
        E 4 92 30 59
        E 6 92 24 4b
        E 8 92 3c 00
        E 85 92 37 00
        E 12 92 3a 00
        E 135 92 40 00
        E 19 92 3a 4a
        E 0 92 40 4a
        E 0 92 43 4a
        E 33 92 30 00
        E 31 92 24 00
        E 36 92 40 00
        E 0 92 3a 00
        E 0 92 43 00
        E 7 92 35 4e
        E 2 92 41 44
        E 1 92 29 44
        E 1 92 39 4f
        E 2 92 3c 55
        E 83 92 39 00
        E 27 92 3c 00
        E 40 92 29 00
        E 1 92 35 00
        E 47 92 30 65
        E 4 92 43 5a
        E 1 92 24 53
        E 51 92 43 00
        E 40 92 45 5f
        E 51 92 45 00
        E 19 92 30 00
        E 7 92 24 00
        E 5 92 46 64
        E 22 92 41 00
        E 3 92 26 57
        E 0 92 32 63
        E 38 92 46 00
        E 27 92 48 69
        E 55 92 48 00
        E 31 92 32 00
        E 4 92 4a 6e
        E 8 92 26 00
        E 20 92 28 5f
        E 0 92 34 69
        E 25 92 4a 00
        E 40 92 4c 73
        E 31 92 3c 7f
        E 32 92 4c 00
        E 28 92 3c 00
        E 5 92 45 50
        E 1 92 41 5f
        E 2 92 34 00
        E 4 92 28 00
        E 3 92 4d 5c
        E 23 92 35 6e
        E 1 92 29 59
        E 283 92 41 00
        E 1 92 29 00
        E 18 92 35 00
        E 21 92 4d 00
        E 8 92 45 00
        E 30 92 4d 4f
        E 1 92 32 76
        E 5 92 26 63
        E 6 92 41 5c
        E 3 92 3e 50
        E 3 92 39 52
        E 131 92 26 00
        E 3 92 32 00
        E 42 92 41 00
        E 45 92 3e 00
        E 8 92 39 00
        E 17 92 4d 00
        E 13 92 3c 58
        E 21 92 24 4a
        E 4 92 30 73
        E 17 92 48 57
        E 10 92 3c 00
        E 15 92 30 00
        E 8 92 24 00
        E 20 92 3e 5a
        E 0 92 48 00
        E 2 92 41 55
        E 2 92 3a 55
        E 11 92 2e 61
        E 0 92 22 51
        E 12 92 4d 52
        E 245 92 3e 00
        E 6 92 3a 00
        E 51 92 2e 00
        E 14 92 41 00
        E 4 92 4d 00
        E 33 92 22 00
        E 11 92 4d 51
        E 6 92 3c 58
        E 2 92 35 69
        E 2 92 29 58
        E 1 92 39 50
        E 21 92 41 5e
        E 99 92 4c 54
        E 7 92 41 00
        E 12 92 4d 00
        E 4 92 40 58
        E 52 92 4c 00
        E 26 92 40 00
        E 9 92 4d 58
        E 32 92 41 5a
        E 9 92 39 00
        E 8 92 3c 00
        E 38 92 29 00
        E 2 92 35 00
        E 11 92 4d 00
        E 23 92 41 00
        E 14 92 4f 5a
        E 2 92 30 76
        E 1 92 24 5a
        E 22 92 43 53
        E 16 92 40 5c
        E 10 92 3c 5c
        E 58 92 30 00
        E 17 92 24 00
        E 81 92 37 6c
        E 1 92 2b 54
        E 78 92 2b 00
        E 2 92 37 00
        E 108 92 34 6e
        E 1 92 28 5a
        E 82 92 34 00
        E 12 92 28 00
        E 12 92 3c 00
        E 14 92 40 00
        E 72 92 30 76
        E 0 92 4f 00
        E 2 92 24 57
        E 6 92 51 54
        E 8 92 45 55
        E 1 92 40 63
        E 4 92 3c 5c
        E 11 92 43 00
        E 78 92 30 00
        E 3 92 3c 00
        E 7 92 40 00
        E 15 92 24 00
        E 32 92 51 00
        E 27 92 4d 58
        E 1 92 45 00
        E 8 92 41 59
        E 5 92 35 73
        E 2 92 29 5f
        E 1 92 3c 5b
        E 3 92 39 54
        E 196 92 29 00
        E 3 92 35 00
        E 54 92 4d 00
        E 2 92 39 00
        E 15 92 3c 00
        E 40 92 41 00
        E 98 92 45 60
        E 1 92 51 63
        E 151 92 45 00
        E 12 92 51 00
        E 3 92 46 53
        E 2 92 52 53
        E 184 92 46 00
        E 7 92 35 76
        E 2 92 41 5a
        E 2 92 29 54
        E 0 92 45 57
        E 6 92 3c 57
        E 9 92 48 5e
        E 12 92 54 58
        E 20 92 52 00
        E 259 92 35 00
        E 2 92 29 00
        E 4 92 3c 00
        E 23 92 41 00
        E 3 92 48 00
        E 8 92 45 00
        E 18 92 54 00
        E 5 92 51 63
        E 6 92 45 5b
        E 11 92 39 67
        E 0 92 2d 5a
        E 14 92 3d 63
        E 256 92 43 54
        E 9 92 4f 55
        E 6 92 39 00
        E 4 92 45 00
        E 8 92 2d 00
        E 7 92 51 00
        E 36 92 4f 00
        E 2 92 3d 00
        E 23 92 41 52
        E 5 92 4d 5a
        E 1 92 29 58
        E 1 92 35 76
        E 6 92 43 00
        E 3 92 3e 5a
        E 6 92 39 50
        E 158 92 45 54
        E 13 92 51 5b
        E 20 92 41 00
        E 2 92 4d 00
        E 68 92 39 00
        E 26 92 45 00
        E 11 92 3e 00
        E 4 92 29 00
        E 3 92 35 00
        E 12 92 51 00
        E 25 92 43 57
        E 5 92 40 5e
        E 3 92 4f 5e
        E 1 92 3c 5b
        E 22 92 24 5c
        E 1 92 30 73
        E 82 92 40 00
        E 6 92 3c 00
        E 43 92 4f 00
        E 2 92 43 00
        E 12 92 30 00
        E 1 92 45 55
        E 6 92 24 00
        E 6 92 51 5a
        E 9 92 39 54
        E 2 92 3e 69
        E 12 92 2d 5a
        E 4 92 21 55
        E 89 92 39 00
        E 4 92 3e 00
        E 66 92 21 00
        E 1 92 2d 00
        E 10 92 45 00
        E 4 92 39 58
        E 0 92 51 00
        E 3 92 3c 5b
        E 3 92 41 5b
        E 12 92 4d 5b
        E 7 92 29 63
        E 3 92 1d 54
        E 230 92 39 00
        E 10 92 3c 00
        E 76 92 29 00
        E 3 92 1d 00
        E 62 92 4c 5c
        E 1 92 40 59
        E 0 92 30 6e
        E 1 92 4d 00
        E 2 92 24 60
        E 4 92 41 00
        E 4 92 3a 58
        E 1 92 37 5a
        E 193 92 37 00
        E 7 92 3a 00
        E 33 92 4c 00
        E 51 92 40 00
        E 17 92 43 4d
        E 2 92 4f 5b
        E 6 92 3a 51
        E 1 92 30 00
        E 4 92 40 5c
        E 10 92 24 00
        E 54 92 3a 00
        E 22 92 4f 00
        E 3 92 43 00
        E 6 92 40 00
        E 18 92 4d 5e
        E 2 92 29 60
        E 3 92 35 67
        E 2 92 41 5f
        E 3 92 39 5a
        E 1 92 3c 5e
        E 350 92 4d 00
        E 7 92 3c 00
        E 14 92 29 00
        E 3 92 35 00
        E 1 92 39 00
        E 2 92 41 00
        E 341 b0 7b 00
        GUID {4679C5C2-02AA-874A-9DB1-F4C1F170892A}
        IGNTEMPO 0 120 4 4
        SRCCOLOR 592
        VELLANE -1 86 6
      >
    >
    <ITEM
      POSITION 0
      SNAPOFFS 0
      LENGTH 24.5
      LOOP 1
      ALLTAKES 0
      FADEIN 1 0 0 1 0 0
      FADEOUT 1 0 0 1 0 0
      MUTE 0
      COLOR 22774783 B
      SEL 0
      IGUID {04D2346E-770F-E64C-9EF4-6480CC1EB831}
      IID 10
      NAME "exten synt - National_Anthems_-_Egypt.mid"
      VOLPAN 1 0 1 -1
      SOFFS 16 32
      PLAYRATE 1 1 0 -1 0 0.0025
      CHANMODE 0
      TAKECOLOR 27282604 B
      GUID {3D4AF40D-0369-3941-988C-50749F315D72}
      <SOURCE MIDI
        HASDATA 1 384 QN
        POOLEDEVTS {F9B2B321-24CA-594E-B5FB-A0CF7B4DE641}
        <X 0 0 0 0 3 "exten synt"
          /wNleHRlbiBzeW50
        >
        e 288 92 3c 7f 3
        e 96 92 3c 00 -44
        e 0 92 41 7f -4
        e 0 92 39 7f 19
        e 0 92 3c 7f 19
        e 0 92 29 7f 37
        e 0 92 35 7f 43
        e 192 92 39 00 32
        e 0 92 3c 00 36
        e 96 92 41 00 13
        e 96 92 29 00 -40
        e 0 92 35 00 -30
        e 0 92 39 7f 1
        e 0 92 3e 7f 2
        e 0 92 41 7f 7
        e 0 92 26 7f 22
        e 0 92 32 7f 27
        e 192 92 39 00 25
        e 0 92 3e 00 24
        e 0 92 41 00 28
        e 96 92 32 00 37
        e 0 92 3c 7f -20
        e 96 92 26 00 -34
        e 0 92 3c 00 -64
        e 0 92 41 7f -22
        e 0 92 3a 7f -2
        e 0 92 3e 7f -1
        e 0 92 2e 7f 3
        e 0 92 22 7f 6
        e 192 92 3a 00 -5
        e 0 92 3e 00 3
        e 96 92 41 00 30
        e 0 92 2e 00 -10
        e 0 92 22 00 9
        e 96 92 29 7f -23
        e 0 92 35 7f -23
        e 0 92 41 7f -18
        e 0 92 39 7f -11
        e 0 92 3c 7f -10
        e 96 92 41 00 19
        e 0 92 40 7f 17
        e 96 92 39 00 15
        e 0 92 3c 00 19
        e 0 92 40 00 21
        e 96 92 29 00 11
        e 0 92 35 00 11
        e 0 92 41 7f -39
        e 96 92 41 00 -28
        e 0 92 24 7f -12
        e 0 92 30 7f -12
        e 0 92 3c 7f -8
        e 0 92 40 7f -8
        e 0 92 43 7f 3
        e 96 92 24 00 -26
        e 0 92 30 00 -20
        e 96 92 2b 7f -30
        e 0 92 37 7f -27
        e 96 92 2b 00 -35
        e 0 92 37 00 -28
        e 96 92 28 7f -29
        e 0 92 34 7f -24
        e 96 92 3c 00 -33
        e 0 92 40 00 -19
        e 0 92 28 00 -39
        e 0 92 34 00 -39
        e 96 92 43 00 11
        e 0 92 24 7f -30
        e 0 92 30 7f -27
        e 0 92 3c 7f -4
        e 0 92 40 7f -3
        e 0 92 45 7f -2
        e 96 92 24 00 -34
        e 0 92 30 00 -57
        e 0 92 3c 00 23
        e 0 92 40 00 46
        e 96 92 45 00 -15
        e 0 92 39 7f -19
        e 0 92 3c 7f -18
        e 0 92 35 7f -16
        e 0 92 29 7f -16
        e 0 92 41 7f -10
        e 96 92 35 00 38
        e 0 92 29 00 31
        e 96 92 39 00 16
        e 0 92 3c 00 22
        e 96 92 41 00 -10
        e 96 92 45 7f 1
        e 192 92 45 00 -22
        e 0 92 46 7f -16
        e 192 92 46 00 5
        e 0 92 35 7f -17
        e 0 92 29 7f -15
        e 0 92 41 7f -12
        e 0 92 45 7f -10
        e 0 92 3c 7f -7
        e 0 92 48 7f 1
        e 288 92 35 00 -1
        e 0 92 29 00 3
        e 0 92 3c 00 42
        e 0 92 48 00 39
        e 96 92 41 00 -39
        e 0 92 45 00 -37
        e 0 92 45 7f -37
        e 0 92 2d 7f -15
        e 0 92 39 7f -11
        e 0 92 3d 7f -9
        e 96 92 45 00 -132
        e 192 92 2d 00 16
        e 0 92 39 00 17
        e 0 92 3d 00 7
        e 0 92 43 7f -23
        e 96 92 43 00 -18
        e 0 92 3e 7f -42
        e 0 92 29 7f -39
        e 0 92 39 7f -38
        e 0 92 41 7f -32
        e 0 92 35 7f -31
        e 192 92 41 00 5
        e 0 92 45 7f -28
        e 96 92 3e 00 -20
        e 0 92 29 00 -11
        e 0 92 39 00 6
        e 0 92 35 00 7
        e 0 92 45 00 7
        e 0 92 43 7f 38
        e 96 92 40 7f -43
        e 0 92 3c 7f -34
        e 0 92 24 7f -24
        e 0 92 30 7f -23
        e 96 92 24 00 42
        e 0 92 30 00 33
        e 0 92 45 7f 47
        e 96 92 43 00 -32
        e 0 92 40 00 -38
        e 0 92 3c 00 -19
        e 0 92 3e 7f -43
        e 0 92 39 7f -31
        e 0 92 2d 7f -26
        e 0 92 21 7f -24
        e 96 92 3e 00 35
        e 0 92 39 00 -2
        e 0 92 2d 00 42
        e 0 92 21 00 36
        e 96 92 45 00 -31
        e 0 92 3c 7f -43
        e 0 92 39 7f -41
        e 0 92 41 7f -36
        e 0 92 29 7f -22
        e 0 92 1d 7f -15
        e 288 92 3c 00 23
        e 0 92 39 00 3
        e 0 92 29 00 1
        e 0 92 1d 00 15
        e 96 92 41 00 -31
        e 0 92 40 7f -43
        e 0 92 24 7f -32
        e 0 92 3a 7f -31
        e 0 92 30 7f -31
        e 0 92 37 7f -24
        e 96 92 3a 00 39
        e 0 92 37 00 38
        e 192 92 40 00 -30
        e 0 92 24 00 35
        e 0 92 30 00 25
        e 0 92 43 7f -30
        e 0 92 40 7f -8
        e 0 92 3a 7f -5
        e 96 92 43 00 -59
        e 0 92 40 00 -37
        e 0 92 3a 00 -38
        e 0 92 35 7f -35
        e 0 92 41 7f -34
        e 0 92 29 7f -32
        e 0 92 3c 7f -18
        e 0 92 39 7f -15
        e 384 92 35 00 -10
        e 0 92 41 00 45
        e 0 92 29 00 -15
        e 0 92 3c 00 1
        e 0 92 39 00 7
        e 288 92 3c 7f 11
        e 96 92 3c 00 -9
        e 0 92 39 7f 6
        e 0 92 41 7f 12
        e 0 92 3c 7d 14
        e 0 92 35 7f 18
        e 0 92 29 7f 19
        e 96 92 3c 00 -61
        e 192 92 39 00 25
        e 96 92 41 00 -36
        e 0 92 35 00 -10
        e 0 92 29 00 -19
        e 0 92 41 7f -2
        e 0 92 39 7f -2
        e 0 92 3e 7f -1
        e 0 92 32 7f 22
        e 0 92 26 7f 23
        e 192 92 39 00 47
        e 96 92 41 00 3
        e 0 92 3e 00 -5
        e 0 92 3c 7f -2
        e 96 92 32 00 -36
        e 0 92 26 00 -46
        e 0 92 3c 00 -26
        e 0 92 41 7f -14
        e 0 92 22 7f -8
        e 0 92 2e 7f -4
        e 0 92 3a 7f 6
        e 0 92 3e 7f 7
        e 288 92 2e 00 39
        e 0 92 3a 00 26
        e 0 92 3e 00 45
        e 96 92 41 00 -42
        e 0 92 22 00 -37
        e 0 92 39 7f -10
        e 0 92 3c 7f -7
        e 0 92 35 7f -7
        e 0 92 29 7f -4
        e 0 92 41 7f -3
        e 96 92 41 00 41
        e 0 92 40 7f 24
        e 192 92 39 00 40
        e 0 92 3c 00 36
        e 0 92 35 00 23
        e 0 92 29 00 25
        e 0 92 40 00 -48
        e 0 92 41 7f -46
        e 96 92 41 00 -34
        e 0 92 43 7f -22
        e 0 92 24 7f -13
        e 0 92 30 7f -12
        e 0 92 3c 7f -2
        e 0 92 40 7f -1
        e 192 92 24 00 -38
        e 0 92 30 00 -44
        e 0 92 2b 7f -16
        e 0 92 37 7f -11
        e 96 92 2b 00 -2
        e 0 92 37 00 5
        e 96 92 28 7f -30
        e 0 92 34 7f -29
        e 96 92 3c 00 -22
        e 0 92 40 00 -1
        e 0 92 28 00 -1
        e 0 92 34 00 5
        e 96 92 43 00 -10
        e 0 92 30 7f -30
        e 0 92 45 7f -25
        e 0 92 24 7f -25
        e 0 92 40 7f -12
        e 0 92 3c 7f -9
        e 96 92 30 00 9
        e 0 92 24 00 24
        e 96 92 45 00 -13
        e 0 92 40 00 -16
        e 0 92 3c 00 -38
        e 0 92 29 7f -32
        e 0 92 35 7f -31
        e 0 92 41 7f -29
        e 0 92 3c 7f 2
        e 0 92 39 7f 3
        e 192 92 29 00 21
        e 0 92 35 00 31
        e 0 92 41 00 31
        e 96 92 3c 00 4
        e 0 92 39 00 8
        e 96 92 45 7f -4
        e 192 92 45 00 -16
        e 0 92 46 7f -40
        e 192 92 46 00 -23
        e 0 92 45 7f -24
        e 0 92 3c 7f -23
        e 0 92 41 7f -23
        e 0 92 35 7f -7
        e 0 92 29 7f -1
        e 0 92 48 7f 6
        e 288 92 45 00 41
        e 0 92 35 00 -7
        e 0 92 29 00 6
        e 96 92 3c 00 -46
        e 0 92 41 00 -34
        e 0 92 48 00 29
        e 0 92 3d 7f -24
        e 0 92 39 7f -22
        e 0 92 2d 7f -19
        e 0 92 45 7f -17
        e 192 92 2d 00 7
        e 96 92 39 00 -16
        e 0 92 45 00 13
        e 0 92 43 7f -10
        e 96 92 3d 00 -36
        e 0 92 43 00 -3
        e 0 92 3e 7f -24
        e 0 92 29 7f -20
        e 0 92 35 7f -20
        e 0 92 39 7f -20
        e 0 92 41 7f -12
        e 192 92 41 00 23
        e 0 92 45 7f -7
        e 96 92 3e 00 40
        e 0 92 29 00 16
        e 0 92 35 00 16
        e 0 92 39 00 16
        e 96 92 45 00 -42
        e 0 92 40 7f -44
        e 0 92 24 7f -42
        e 0 92 30 7f -42
        e 0 92 3c 7f -42
        e 0 92 43 7f -16
        e 192 92 40 00 10
        e 0 92 24 00 -6
        e 0 92 30 00 -6
        e 0 92 3c 00 -6
        e 0 92 43 00 -15
        e 0 92 45 7f -35
        e 0 92 3e 7f -9
        e 0 92 21 7f -5
        e 0 92 2d 7f -5
        e 0 92 39 7f -5
        e 96 92 21 00 36
        e 0 92 2d 00 36
        e 0 92 39 00 36
        e 96 92 45 00 16
        e 0 92 3e 00 -32
        e 0 92 3c 7f -2
        e 0 92 1d 7f 1
        e 0 92 29 7f 1
        e 0 92 39 7f 1
        e 0 92 41 7f 12
        e 288 92 1d 00 -13
        e 0 92 29 00 -13
        e 0 92 39 00 -13
        e 96 92 3c 00 -34
        e 0 92 41 00 -44
        e 0 92 3a 7f -13
        e 0 92 24 7f -12
        e 0 92 30 7f -12
        e 0 92 37 7f -12
        e 0 92 40 7f -8
        e 192 92 3a 00
        e 0 92 24 00 10
        e 0 92 30 00 10
        e 0 92 37 00 10
        e 96 92 40 00 -11
        e 0 92 43 7f -11
        e 0 92 3a 7f -2
        e 0 92 40 7f 2
        e 96 92 43 00 9
        e 0 92 3a 00 13
        e 0 92 40 00 -2
        e 0 92 35 7f -15
        e 0 92 29 7f -12
        e 0 92 39 7f -11
        e 0 92 3c 7f -8
        e 0 92 41 7f 8
        e 192 92 35 00 19
        e 0 92 29 00 10
        e 96 92 39 00 -27
        e 0 92 3c 00 -2
        e 0 92 41 00 20
        e 96 92 45 7f -8
        e 192 92 45 00 -45
        e 96 92 45 7f 4
        e 96 92 45 00 -42
        e 0 92 45 7f -21
        e 0 92 35 7f -16
        e 0 92 29 7f -15
        e 0 92 30 7f -12
        e 96 92 35 00 -41
        e 0 92 29 00 -49
        e 0 92 30 00 -55
        e 96 92 41 7f -48
        e 0 92 3e 7f 43
        e 96 92 41 00 -86
        e 0 92 3e 00 18
        e 96 92 45 00 6
        e 0 92 3c 7f -32
        e 0 92 43 7f -3
        e 0 92 35 7f 1
        e 0 92 29 7f 2
        e 0 92 30 7f 4
        e 96 92 35 00 -35
        e 0 92 29 00 -34
        e 0 92 30 00 -46
        e 96 92 43 00 -17
        e 0 92 41 7f -30
        e 96 92 3c 00 4
        e 96 92 41 00 -36
        e 0 92 30 7f -31
        e 0 92 24 7f -29
        e 0 92 43 7f -20
        e 0 92 46 7f -19
        e 96 92 30 00 -71
        e 0 92 24 00 -68
        e 288 92 43 00 -30
        e 0 92 46 00 -41
        e 0 92 45 7f -31
        e 0 92 29 7f -25
        e 0 92 35 7f -24
        e 0 92 30 7f -22
        e 0 92 3e 7f -18
        e 96 92 29 00 -60
        e 0 92 35 00 -60
        e 0 92 30 00 -72
        e 192 92 45 00 18
        e 0 92 43 7f -3
        e 96 92 3e 00 29
        e 0 92 43 00 -52
        e 0 92 43 7f -20
        e 0 92 30 7f -18
        e 0 92 24 7f -12
        e 96 92 30 00 -66
        e 0 92 24 00 -56
        e 96 92 37 7f 23
        e 0 92 3c 7f 25
        e 0 92 2b 7f 31
        e 96 92 37 00 -25
        e 0 92 3c 00 -25
        e 0 92 2b 00 -32
        e 0 92 40 7f 16
        e 96 92 43 00 5
        e 0 92 40 00 -35
        e 0 92 28 7f -12
        e 0 92 34 7f -10
        e 0 92 43 7f 5
        e 96 92 28 00 -61
        e 0 92 34 00 -57
        e 0 92 43 00 -42
        e 0 92 40 7f 6
        e 96 92 40 00 -38
        e 0 92 43 7f -14
        e 0 92 24 7f -8
        e 0 92 30 7f -6
        e 96 92 43 00 -61
        e 0 92 24 00 -56
        e 0 92 30 00 -56
        e 0 92 48 7f -13
        e 96 92 48 00 -44
        e 0 92 43 7f -16
        e 0 92 37 7f -9
        e 0 92 2b 7f -7
        e 96 92 43 00 -71
        e 0 92 37 00 -61
        e 0 92 2b 00 -57
        e 288 92 46 7f -31
        e 0 92 35 7f -23
        e 0 92 29 7f -12
        e 192 92 46 00 5
        e 0 92 35 00 27
        e 0 92 29 00 -6
        e 96 92 40 7f -43
        e 0 92 46 7f -22
        e 0 92 32 7f -10
        e 0 92 26 7f
        e 96 92 40 00 -56
        e 0 92 46 00 -72
        e 0 92 32 00 -32
        e 0 92 26 00 -42
        e 0 92 3a 7f -39
        e 0 92 46 7f -36
        e 0 92 3e 7f -35
        e 0 92 22 7f -14
        e 0 92 2e 7f -10
        e 96 92 22 00 28
        e 0 92 2e 00 23
        e 96 92 3a 00 -9
        e 96 92 3e 00 -39
        e 0 92 3c 7f -38
        e 96 92 46 00 -5
        e 0 92 3c 00 -63
        e 0 92 3e 7f -38
        e 0 92 45 7f -30
        e 0 92 35 7f -21
        e 0 92 30 7f -18
        e 0 92 29 7f -16
        e 96 92 35 00 -39
        e 0 92 30 00 -46
        e 0 92 29 00 -39
        e 96 92 45 00 -11
        e 0 92 43 7f -22
        e 192 92 3e 00 -28
        e 0 92 43 00 17
        e 0 92 2b 7f -16
        e 0 92 37 7f -15
        e 0 92 48 7f -13
        e 0 92 30 7f -12
        e 0 92 45 7f
        e 96 92 2b 00 -51
        e 0 92 37 00 -47
        e 0 92 30 00 -53
        e 288 92 48 00 -4
        e 0 92 45 00 -18
        e 0 92 46 7f -8
        e 0 92 40 7f
        e 0 92 2b 7f 6
        e 0 92 37 7f 7
        e 0 92 30 7f 10
        e 96 92 2b 00 -28
        e 0 92 37 00 -11
        e 0 92 30 00 -36
        e 192 92 46 00 4
        e 0 92 45 7f 10
        e 96 92 40 00 16
        e 0 92 45 00 -26
        e 0 92 45 7f
        e 0 92 30 7f
        e 0 92 29 7f
        e 0 92 35 7f
        e 96 92 30 00 -18
        e 0 92 29 00 -10
        e 0 92 35 00 -36
        e 96 92 30 7f
        e 0 92 3c 7f
        e 96 92 30 00 -43
        e 0 92 3c 00 -44
        e 0 92 41 7f
        e 96 92 45 00
        e 0 92 41 00 -43
        e 0 92 45 7f
        e 0 92 2d 7f
        e 0 92 39 7f
        e 96 92 45 00 -30
        e 0 92 2d 00 -49
        e 0 92 39 00 -53
        e 0 92 41 7f
        e 96 92 41 00 -39
        e 0 92 45 7f
        e 0 92 35 7f
        e 0 92 29 7f
        e 96 92 45 00 -39
        e 0 92 35 00 -53
        e 0 92 29 00 -47
        e 0 92 4a 7f
        e 96 92 4a 00 -26
        e 0 92 3c 7f
        e 0 92 35 7f
        e 0 92 30 7f
        e 0 92 48 7f
        e 96 92 3c 00 -12
        e 0 92 35 00 -19
        e 0 92 30 00 -6
        e 96 92 48 00 33
        e 192 92 45 7f 3
        e 192 92 45 00 18
        e 96 92 45 7f 19
        e 96 92 45 00 -32
        e 0 92 35 7f -1
        e 0 92 30 7f 1
        e 0 92 29 7f 3
        e 0 92 45 7f 5
        e 96 92 35 00 -11
        e 0 92 30 00 -22
        e 0 92 29 00 -10
        e 96 92 41 7f -46
        e 96 92 41 00 -65
        e 0 92 3e 7f -34
        e 96 92 45 00 1
        e 0 92 3e 00 -25
        e 0 92 43 7f -21
        e 0 92 3c 7f -3
        e 0 92 35 7f 11
        e 0 92 30 7f 21
        e 0 92 29 7f 22
        e 96 92 35 00 -20
        e 0 92 30 00 -17
        e 0 92 29 00 3
        e 96 92 43 00 -14
        e 0 92 41 7f -25
        e 192 92 3c 00 -35
        e 0 92 41 00 -7
        e 0 92 46 7f -16
        e 0 92 24 7f -16
        e 0 92 30 7f -13
        e 96 92 24 00 -30
        e 0 92 30 00 -41
        e 96 92 43 7f -12
        e 192 92 46 00 -1
        e 0 92 43 00 -14
        e 0 92 3e 7f -25
        e 0 92 45 7f -21
        e 0 92 29 7f -6
        e 0 92 35 7f -4
        e 0 92 30 7f -2
        e 96 92 29 00 -36
        e 0 92 35 00 -37
        e 0 92 30 00 -46
        e 192 92 45 00 -11
        e 0 92 43 7f -4
        e 96 92 3e 00 -41
        e 0 92 43 00 -40
        e 0 92 43 7f -5
        e 0 92 37 7f 3
        e 0 92 2b 7f 11
        e 0 92 30 7f 11
        e 96 92 37 00 -41
        e 0 92 2b 00 -33
        e 0 92 30 00 -54
        e 96 92 2b 7f -2
        e 0 92 30 7f -1
        e 0 92 37 7f 2
        e 0 92 3c 7f 13
        e 96 92 2b 00 -42
        e 0 92 30 00 -47
        e 0 92 37 00 -51
        e 0 92 3c 00 -42
        e 0 92 40 7f -5
        e 96 92 43 00 -9
        e 0 92 40 00 -43
        e 0 92 43 7f -9
        e 0 92 34 7f 2
        e 0 92 28 7f 3
        e 96 92 43 00 -42
        e 0 92 34 00 -50
        e 0 92 28 00 -46
        e 96 92 45 7f -18
        e 0 92 40 7f -10
        e 0 92 37 7f -1
        e 0 92 30 7f 1
        e 0 92 2b 7f 2
        e 96 92 45 00 -22
        e 0 92 40 00 -60
        e 0 92 37 00 -54
        e 0 92 30 00 -46
        e 0 92 2b 00 -41
        e 0 92 43 7f -42
        e 0 92 46 7f -26
        e 96 92 43 00 -84
        e 0 92 46 00 -23
        e 0 92 3c 7f -18
        e 0 92 41 7f -18
        e 0 92 48 7f -18
        e 0 92 29 7f -6
        e 0 92 35 7f -1
        e 192 92 29 00 -33
        e 0 92 35 00 -47
        e 96 92 3c 00 -37
        e 0 92 41 00 -37
        e 0 92 48 00 -37
        e 96 92 48 7f 7
        e 192 92 48 00 -14
        e 96 92 48 7f -11
        e 96 92 48 00 -56
        e 0 92 41 7f -28
        e 0 92 3c 7f -24
        e 0 92 48 7f -20
        e 0 92 30 7f 5
        e 0 92 29 7f 7
        e 96 92 30 00 27
        e 0 92 29 00 29
        e 192 92 41 00 45
        e 0 92 3c 00 2
        e 96 92 48 00 -4
        e 0 92 3d 7f -47
        e 0 92 2d 7f -29
        e 0 92 21 7f -26
        e 0 92 45 7f -24
        e 96 92 2d 00 -18
        e 0 92 21 00 6
        e 96 92 45 00 39
        e 96 92 3d 00 23
        e 0 92 43 7f -30
        e 96 92 43 00 -56
        e 0 92 3e 7f -44
        e 0 92 39 7f -43
        e 0 92 41 7f -37
        e 0 92 26 7f -26
        e 0 92 32 7f -24
        e 192 92 41 00 -6
        e 0 92 26 00 28
        e 0 92 45 7f -25
        e 96 92 3e 00 34
        e 0 92 39 00 1
        e 0 92 32 00 -26
        e 96 92 45 00 -2
        e 0 92 3c 7f -34
        e 0 92 40 7f -32
        e 0 92 30 7f -16
        e 0 92 24 7f -16
        e 0 92 43 7f -6
        e 96 92 3c 00 45
        e 0 92 40 00 33
        e 0 92 30 00 -55
        e 0 92 24 00 -44
        e 0 92 3e 7f 45
        e 0 92 39 7f 47
        e 96 92 43 00 -8
        e 0 92 2d 7f -20
        e 0 92 21 7f -14
        e 0 92 45 7f -3
        e 96 92 3e 00 46
        e 0 92 39 00 -18
        e 0 92 2d 00 -45
        e 0 92 21 00 -30
        e 96 92 45 00 -22
        e 0 92 29 7f -22
        e 0 92 1d 7f -21
        e 0 92 41 7f -11
        e 0 92 39 7f -2
        e 0 92 3c 7f -1
        e 96 92 1d 00 44
        e 96 92 29 00 -45
        e 96 92 39 00 28
        e 96 92 41 00 -27
        e 0 92 3c 00 -8
        e 0 92 3a 7f -45
        e 0 92 37 7f -43
        e 0 92 40 7f -26
        e 0 92 30 7f -22
        e 0 92 24 7f -16
        e 96 92 3a 00 -7
        e 0 92 37 00 -19
        e 96 92 40 00 32
        e 96 92 30 00 -12
        e 0 92 24 00 19
        e 0 92 3a 7f -45
        e 0 92 40 7f -45
        e 0 92 43 7f -45
        e 96 92 3a 00 -41
        e 0 92 40 00 -41
        e 0 92 43 00 -41
        e 0 92 35 7f -34
        e 0 92 41 7f -32
        e 0 92 29 7f -31
        e 0 92 39 7f -30
        e 0 92 3c 7f -28
        e 96 92 35 00 27
        e 0 92 29 00 26
        e 0 92 39 00 -41
        e 0 92 3c 00 -14
        e 96 92 30 7f -22
        e 0 92 43 7f -18
        e 0 92 24 7f -17
        e 96 92 43 00 -62
        e 0 92 45 7f -22
        e 96 92 41 00 -14
        e 0 92 30 00 -48
        e 0 92 24 00 -41
        e 0 92 45 00 -67
        e 0 92 46 7f -36
        e 0 92 26 7f -11
        e 0 92 32 7f -11
        e 96 92 46 00 -69
        e 0 92 32 00 44
        e 0 92 48 7f -42
        e 96 92 26 00 -40
        e 0 92 48 00 -83
        e 0 92 4a 7f -48
        e 0 92 28 7f -20
        e 0 92 34 7f -20
        e 0 92 4c 7f 45
        e 96 92 4a 00 -91
        e 0 92 4c 00 12
        e 0 92 3c 7f -20
        e 0 92 45 7f 45
        e 0 92 41 7f 46
        e 96 92 28 00 -44
        e 0 92 34 00 -48
        e 0 92 3c 00 -56
        e 0 92 4d 7f -41
        e 0 92 35 7f -18
        e 0 92 29 7f -17
        e 288 92 45 00 26
        e 0 92 41 00 -22
        e 0 92 4d 00 18
        e 0 92 35 00 -3
        e 0 92 29 00 -21
        e 96 92 4d 7f -40
        e 0 92 32 7f -39
        e 0 92 26 7f -34
        e 0 92 41 7f -28
        e 0 92 3e 7f -25
        e 0 92 39 7f -22
        e 96 92 32 00 16
        e 0 92 26 00 13
        e 96 92 4d 00 32
        e 0 92 41 00 -38
        e 0 92 3e 00 7
        e 0 92 39 00 15
        e 0 92 3c 7f 45
        e 96 92 3c 00 1
        e 0 92 24 7f -30
        e 0 92 30 7f -26
        e 0 92 48 7f -9
        e 0 92 3e 7f 44
        e 0 92 41 7f 46
        e 96 92 24 00 -72
        e 0 92 30 00 -80
        e 0 92 48 00 -52
        e 0 92 3a 7f -48
        e 0 92 2e 7f -37
        e 0 92 22 7f -37
        e 0 92 4d 7f -25
        e 192 92 3e 00 28
        e 0 92 3a 00 34
        e 96 92 41 00 3
        e 0 92 2e 00 -11
        e 0 92 22 00 40
        e 0 92 4d 00 7
        e 96 92 4d 7f -45
        e 0 92 3c 7f -39
        e 0 92 35 7f -37
        e 0 92 29 7f -35
        e 0 92 39 7f -34
        e 0 92 41 7f -13
        e 96 92 4d 00 9
        e 0 92 41 00 -3
        e 0 92 4c 7f -10
        e 0 92 40 7f 13
        e 96 92 39 00 45
        e 0 92 4c 00 -31
        e 0 92 40 00 -5
        e 0 92 4d 7f 4
        e 0 92 41 7f 36
        e 96 92 3c 00 -43
        e 0 92 35 00 -3
        e 0 92 29 00 -5
        e 0 92 4d 00 8
        e 0 92 41 00 31
        e 0 92 4f 7f 45
        e 0 92 30 7f 47
        e 96 92 24 7f -48
        e 0 92 43 7f -26
        e 0 92 40 7f -10
        e 0 92 3c 7f
        e 96 92 30 00 -38
        e 0 92 24 00 -21
        e 96 92 37 7f -36
        e 0 92 2b 7f -35
        e 96 92 37 00 -51
        e 0 92 2b 00 -53
        e 96 92 34 7f -39
        e 0 92 28 7f -38
        e 96 92 40 00 -14
        e 0 92 3c 00 -28
        e 0 92 34 00 -52
        e 0 92 28 00 -40
        e 96 92 4f 00 -38
        e 0 92 43 00 -6
        e 0 92 30 7f -38
        e 0 92 24 7f -36
        e 0 92 51 7f -30
        e 0 92 45 7f -22
        e 0 92 40 7f -21
        e 0 92 3c 7f -17
        e 96 92 30 00 -24
        e 0 92 24 00 1
        e 0 92 51 00 33
        e 0 92 40 00 -14
        e 0 92 3c 00 -21
        e 96 92 45 00 -35
        e 0 92 4d 7f -36
        e 0 92 41 7f -27
        e 0 92 35 7f -22
        e 0 92 29 7f -20
        e 0 92 3c 7f -19
        e 0 92 39 7f -16
        e 192 92 4d 00 45
        e 0 92 35 00 -9
        e 0 92 29 00 -12
        e 0 92 39 00 47
        e 96 92 41 00 6
        e 0 92 3c 00 -34
        e 96 92 45 7f 8
        e 0 92 51 7f 9
        e 192 92 45 00 -32
        e 0 92 51 00 -20
        e 0 92 46 7f -17
        e 0 92 52 7f -15
        e 192 92 46 00 -23
        e 0 92 52 00 35
        e 0 92 35 7f -16
        e 0 92 41 7f -14
        e 0 92 29 7f -12
        e 0 92 45 7f -12
        e 0 92 3c 7f -6
        e 0 92 48 7f 3
        e 0 92 54 7f 15
        e 288 92 35 00 6
        e 0 92 41 00 35
        e 0 92 29 00 8
        e 0 92 45 00 46
        e 0 92 3c 00 12
        e 0 92 48 00 38
        e 96 92 54 00 -32
        e 0 92 51 7f -27
        e 0 92 45 7f -21
        e 0 92 39 7f -10
        e 0 92 2d 7f -10
        e 0 92 3d 7f 4
        e 288 92 51 00 6
        e 0 92 45 00 -9
        e 0 92 39 00 -13
        e 0 92 2d 00 -1
        e 0 92 3d 00 44
        e 0 92 43 7f -28
        e 0 92 4f 7f -19
        e 96 92 43 00 -16
        e 0 92 4f 00 -54
        e 0 92 41 7f -29
        e 0 92 4d 7f -24
        e 0 92 29 7f -23
        e 0 92 35 7f -22
        e 0 92 3e 7f -13
        e 0 92 39 7f -7
        e 192 92 41 00 -8
        e 0 92 4d 00 -6
        e 0 92 45 7f -41
        e 0 92 51 7f -28
        e 96 92 29 00 7
        e 0 92 35 00 10
        e 0 92 3e 00 3
        e 0 92 39 00 -34
        e 0 92 45 00 -8
        e 0 92 51 00 22
        e 0 92 43 7f 47
        e 96 92 40 7f -44
        e 0 92 4f 7f -41
        e 0 92 3c 7f -40
        e 0 92 24 7f -18
        e 0 92 30 7f -17
        e 96 92 43 00 20
        e 0 92 40 00 -31
        e 0 92 4f 00 18
        e 0 92 3c 00 -25
        e 0 92 24 00 39
        e 0 92 30 00 32
        e 0 92 45 7f 33
        e 0 92 51 7f 45
        e 96 92 39 7f -42
        e 0 92 3e 7f -40
        e 0 92 2d 7f -28
        e 0 92 21 7f -24
        e 96 92 39 00 -31
        e 0 92 3e 00 -27
        e 0 92 2d 00 40
        e 0 92 21 00 39
        e 96 92 45 00 -46
        e 0 92 51 00 -42
        e 0 92 39 7f -42
        e 0 92 3c 7f -39
        e 0 92 41 7f -36
        e 0 92 4d 7f -24
        e 0 92 29 7f -17
        e 0 92 1d 7f -14
        e 192 92 39 00 24
        e 0 92 3c 00 34
        e 96 92 29 00 14
        e 0 92 1d 00 17
        e 96 92 41 00 -9
        e 0 92 4d 00 -15
        e 0 92 4c 7f -17
        e 0 92 40 7f -16
        e 0 92 30 7f -16
        e 0 92 24 7f -13
        e 0 92 3a 7f -5
        e 0 92 37 7f -4
        e 192 92 4c 00 37
        e 0 92 3a 00 4
        e 0 92 37 00 -3
        e 96 92 40 00 -8
        e 0 92 30 00 18
        e 0 92 24 00 32
        e 0 92 43 7f 9
        e 0 92 4f 7f 11
        e 0 92 3a 7f 17
        e 0 92 40 7f 22
        e 96 92 43 00 15
        e 0 92 4f 00 12
        e 0 92 3a 00 -10
        e 0 92 40 00 21
        e 0 92 4d 7f 39
        e 0 92 29 7f 41
        e 0 92 35 7f 44
        e 0 92 41 7f 46
        e 96 92 39 7f -47
        e 0 92 3c 7f -46
        e 288 92 4d 00 16
        e 0 92 29 00 37
        e 0 92 35 00 40
        e 0 92 41 00 43
        e 0 92 39 00 41
        e 0 92 3c 00 23
        E 384 b0 7b 00
        GUID {3BD01C5B-8263-3C4D-849F-8D50834328CF}
        IGNTEMPO 0 120 4 4
        SRCCOLOR 770
        VELLANE -1 108 6
        CFGEDITVIEW 0 13.62963 43 12 0 0 0 0 0 0.5
        KEYSNAP 0
        TRACKSEL 226
        EVTFILTER 0 -1 -1 -1 -1 0 0 0 0 -1 -1 -1 -1 0 -1 0 -1 -1
        CFGEDIT 1 1 0 0 0 0 1 0 1 1 1 0.25 0 187 878 778 0 0 2 3 0 0 0 0 0 -1 0 0 1 64
      >
      TAKE
      NAME "exten synt - National_Anthems_-_Egypt.mid"
      TAKEVOLPAN 0 1 -1
      SOFFS 16 32
      PLAYRATE 1 1 0 -1 0 0.0025
      CHANMODE 0
      GUID {55C5750C-2204-1749-B487-EC51AEDC2FAF}
      <SOURCE MIDI
        HASDATA 1 384 QN
        POOLEDEVTS {1F7EC714-852A-2A41-BFC3-A314511BFB61}
        <X 0 0 0 0 3 "exten synt"
          /wNleHRlbiBzeW50
        >
        e 291 92 3c 7f
        e 49 92 3c 00
        e 40 92 41 7f
        e 23 92 39 7f
        e 0 92 3c 7f
        e 18 92 29 7f
        e 6 92 35 7f
        e 181 92 39 00
        e 4 92 3c 00
        e 73 92 41 00
        e 43 92 29 00
        e 10 92 35 00
        e 31 92 39 7f
        e 1 92 3e 7f
        e 5 92 41 7f
        e 15 92 26 7f
        e 5 92 32 7f
        e 189 92 3e 00
        e 1 92 39 00
        e 3 92 41 00
        e 48 92 3c 7f
        e 52 92 3c 00
        e 5 92 32 00
        e 25 92 26 00
        e 12 92 41 7f
        e 20 92 3a 7f
        e 1 92 3e 7f
        e 4 92 2e 7f
        e 3 92 22 7f
        e 181 92 3a 00
        e 8 92 3e 00
        e 83 92 2e 00
        e 19 92 22 00
        e 21 92 41 00
        e 43 92 29 7f
        e 0 92 35 7f
        e 5 92 41 7f
        e 7 92 39 7f
        e 1 92 3c 7f
        e 123 92 40 7f
        e 2 92 41 00
        e 92 92 39 00
        e 4 92 3c 00
        e 2 92 40 00
        e 36 92 41 7f
        e 50 92 29 00
        e 0 92 35 00
        e 57 92 41 00
        e 16 92 24 7f
        e 0 92 30 7f
        e 4 92 3c 7f
        e 0 92 40 7f
        e 11 92 43 7f
        e 67 92 24 00
        e 6 92 30 00
        e 86 92 2b 7f
        e 3 92 37 7f
        e 88 92 2b 00
        e 7 92 37 00
        e 95 92 28 7f
        e 5 92 34 7f
        e 81 92 28 00
        e 0 92 34 00
        e 6 92 3c 00
        e 14 92 40 00
        e 85 92 24 7f
        e 3 92 30 7f
        e 23 92 3c 7f
        e 1 92 40 7f
        e 1 92 45 7f
        e 13 92 43 00
        e 28 92 30 00
        e 23 92 24 00
        e 57 92 3c 00
        e 23 92 40 00
        e 31 92 39 7f
        e 1 92 3c 7f
        e 2 92 35 7f
        e 0 92 29 7f
        e 1 92 45 00
        e 5 92 41 7f
        e 137 92 29 00
        e 7 92 35 00
        e 74 92 39 00
        e 6 92 3c 00
        e 64 92 41 00
        e 107 92 45 7f
        e 169 92 45 00
        e 6 92 46 7f
        e 191 92 35 7f
        e 2 92 29 7f
        e 3 92 41 7f
        e 2 92 45 7f
        e 3 92 3c 7f
        e 8 92 48 7f
        e 4 92 46 00
        e 282 92 35 00
        e 4 92 29 00
        e 36 92 48 00
        e 3 92 3c 00
        e 15 92 41 00
        e 2 92 45 00
        e 0 92 45 7f
        e 1 92 45 00
        e 21 92 2d 7f
        e 4 92 39 7f
        e 2 92 3d 7f
        e 274 92 43 7f
        e 30 92 3d 00
        e 9 92 2d 00
        e 1 92 39 00
        e 37 92 3e 7f
        e 0 92 41 7f
        e 3 92 29 7f
        e 1 92 39 7f
        e 6 92 41 00
        e 0 92 41 7f
        e 1 92 35 7f
        e 13 92 43 00
        e 182 92 45 7f
        e 33 92 41 00
        e 71 92 3e 00
        e 9 92 29 00
        e 17 92 39 00
        e 1 92 35 00
        e 0 92 45 00
        e 31 92 43 7f
        e 15 92 40 7f
        e 9 92 3c 7f
        e 10 92 24 7f
        e 1 92 30 7f
        e 152 92 30 00
        e 9 92 24 00
        e 5 92 45 7f
        e 6 92 3e 7f
        e 5 92 40 00
        e 6 92 43 00
        e 1 92 39 7f
        e 5 92 2d 7f
        e 2 92 21 7f
        e 5 92 3c 00
        e 113 92 39 00
        e 37 92 3e 00
        e 1 92 21 00
        e 6 92 2d 00
        e 11 92 3c 7f
        e 2 92 39 7f
        e 5 92 41 7f
        e 5 92 45 00
        e 9 92 29 7f
        e 7 92 1d 7f
        e 304 92 29 00
        e 2 92 39 00
        e 12 92 1d 00
        e 8 92 3c 00
        e 30 92 40 7f
        e 11 92 24 7f
        e 1 92 41 00
        e 0 92 3a 7f
        e 0 92 30 7f
        e 7 92 37 7f
        e 158 92 37 00
        e 1 92 3a 00
        e 123 92 40 00
        e 0 92 43 7f
        e 22 92 40 7f
        e 3 92 3a 7f
        e 30 92 30 00
        e 10 92 24 00
        e 2 92 43 00
        e 21 92 3a 00
        e 1 92 40 00
        e 2 92 35 7f
        e 1 92 41 7f
        e 2 92 29 7f
        e 14 92 3c 7f
        e 3 92 39 7f
        e 384 92 29 00
        e 5 92 35 00
        e 11 92 3c 00
        e 6 92 39 00
        e 38 92 41 00
        e 254 92 3c 7f
        e 76 92 3c 00
        e 13 92 3c 7f
        e 2 92 39 7f
        e 6 92 41 7f
        e 2 92 3c 00
        e 0 92 3c 7f
        e 4 92 35 7f
        e 1 92 29 7f
        e 16 92 3c 00
        e 278 92 39 00
        e 35 92 41 00
        e 17 92 29 00
        e 9 92 35 00
        e 8 92 41 7f
        e 0 92 39 7f
        e 1 92 3e 7f
        e 23 92 32 7f
        e 1 92 26 7f
        e 216 92 39 00
        e 44 92 3e 00
        e 3 92 3c 7f
        e 5 92 41 00
        e 47 92 26 00
        e 10 92 32 00
        e 10 92 3c 00
        e 12 92 41 7f
        e 6 92 22 7f
        e 4 92 2e 7f
        e 10 92 3a 7f
        e 1 92 3e 7f
        e 307 92 3a 00
        e 13 92 2e 00
        e 6 92 3e 00
        e 9 92 41 00
        e 5 92 22 00
        e 27 92 39 7f
        e 3 92 3c 7f
        e 0 92 35 7f
        e 3 92 29 7f
        e 1 92 41 7f
        e 123 92 40 7f
        e 17 92 41 00
        e 103 92 40 00
        e 2 92 41 7f
        e 69 92 35 00
        e 2 92 29 00
        e 11 92 3c 00
        e 4 92 39 00
        e 22 92 41 00
        e 12 92 43 7f
        e 9 92 24 7f
        e 1 92 30 7f
        e 10 92 3c 7f
        e 1 92 40 7f
        e 149 92 30 00
        e 6 92 24 00
        e 22 92 2b 7f
        e 5 92 37 7f
        e 105 92 2b 00
        e 7 92 37 00
        e 61 92 28 7f
        e 1 92 34 7f
        e 103 92 3c 00
        e 21 92 40 00
        e 0 92 28 00
        e 6 92 34 00
        e 61 92 30 7f
        e 5 92 45 7f
        e 0 92 24 7f
        e 13 92 40 7f
        e 2 92 43 00
        e 1 92 3c 7f
        e 114 92 30 00
        e 15 92 24 00
        e 34 92 3c 00
        e 6 92 29 7f
        e 1 92 35 7f
        e 2 92 41 7f
        e 13 92 40 00
        e 3 92 45 00
        e 15 92 3c 7f
        e 1 92 39 7f
        e 210 92 29 00
        e 10 92 35 00
        e 0 92 41 00
        e 69 92 3c 00
        e 4 92 39 00
        e 84 92 45 7f
        e 156 92 46 7f
        e 24 92 45 00
        e 184 92 45 7f
        e 1 92 46 00
        e 0 92 3c 7f
        e 0 92 41 7f
        e 16 92 35 7f
        e 6 92 29 7f
        e 7 92 48 7f
        e 275 92 35 00
        e 13 92 29 00
        e 35 92 45 00
        e 9 92 3c 00
        e 12 92 41 00
        e 10 92 3d 7f
        e 2 92 39 7f
        e 3 92 2d 7f
        e 2 92 45 7f
        e 46 92 48 00
        e 170 92 2d 00
        e 73 92 39 00
        e 6 92 43 7f
        e 23 92 45 00
        e 47 92 3d 00
        e 12 92 3e 7f
        e 4 92 29 7f
        e 0 92 35 7f
        e 0 92 39 7f
        e 8 92 41 7f
        e 9 92 43 00
        e 188 92 45 7f
        e 30 92 41 00
        e 89 92 29 00
        e 0 92 35 00
        e 0 92 39 00
        e 24 92 3e 00
        e 12 92 40 7f
        e 2 92 45 00
        e 0 92 24 7f
        e 0 92 30 7f
        e 0 92 3c 7f
        e 26 92 43 7f
        e 173 92 45 7f
        e 20 92 43 00
        e 6 92 3e 7f
        e 3 92 24 00
        e 0 92 30 00
        e 0 92 3c 00
        e 1 92 21 7f
        e 0 92 2d 7f
        e 0 92 39 7f
        e 15 92 40 00
        e 122 92 21 00
        e 0 92 2d 00
        e 0 92 39 00
        e 28 92 3e 00
        e 30 92 3c 7f
        e 3 92 1d 7f
        e 0 92 29 7f
        e 0 92 39 7f
        e 11 92 41 7f
        e 4 92 45 00
        e 259 92 1d 00
        e 0 92 29 00
        e 0 92 39 00
        e 65 92 41 00
        e 10 92 3c 00
        e 21 92 3a 7f
        e 1 92 24 7f
        e 0 92 30 7f
        e 0 92 37 7f
        e 4 92 40 7f
        e 200 92 3a 00
        e 10 92 24 00
        e 0 92 30 00
        e 0 92 37 00
        e 75 92 40 00
        e 0 92 43 7f
        e 9 92 3a 7f
        e 4 92 40 7f
        e 79 92 35 7f
        e 3 92 29 7f
        e 1 92 39 7f
        e 3 92 3c 7f
        e 6 92 40 00
        e 10 92 41 7f
        e 1 92 43 00
        e 4 92 3a 00
        e 189 92 29 00
        e 9 92 35 00
        e 50 92 39 00
        e 25 92 3c 00
        e 22 92 41 00
        e 68 92 45 7f
        e 155 92 45 00
        e 145 92 45 7f
        e 50 92 45 00
        e 21 92 45 7f
        e 5 92 35 7f
        e 1 92 29 7f
        e 3 92 30 7f
        e 53 92 30 00
        e 6 92 29 00
        e 8 92 35 00
        e 89 92 41 7f
        e 58 92 41 00
        e 33 92 3e 7f
        e 71 92 3e 00
        e 46 92 3c 7f
        e 29 92 43 7f
        e 4 92 35 7f
        e 1 92 29 7f
        e 2 92 30 7f
        e 2 92 45 00
        e 44 92 30 00
        e 11 92 35 00
        e 1 92 29 00
        e 100 92 41 7f
        e 13 92 43 00
        e 117 92 3c 00
        e 56 92 41 00
        e 5 92 30 7f
        e 2 92 24 7f
        e 9 92 43 7f
        e 1 92 46 7f
        e 44 92 30 00
        e 3 92 24 00
        e 315 92 46 00
        e 10 92 45 7f
        e 1 92 43 00
        e 5 92 29 7f
        e 1 92 35 7f
        e 2 92 30 7f
        e 4 92 3e 7f
        e 42 92 30 00
        e 12 92 29 00
        e 0 92 35 00
        e 249 92 43 7f
        e 21 92 45 00
        e 26 92 43 00
        e 32 92 43 7f
        e 2 92 30 7f
        e 6 92 24 7f
        e 41 92 3e 00
        e 1 92 30 00
        e 10 92 24 00
        e 175 92 37 7f
        e 2 92 3c 7f
        e 6 92 2b 7f
        e 33 92 2b 00
        e 7 92 37 00
        e 0 92 3c 00
        e 41 92 40 7f
        e 45 92 40 00
        e 23 92 28 7f
        e 2 92 34 7f
        e 15 92 43 00
        e 0 92 43 7f
        e 30 92 28 00
        e 4 92 34 00
        e 15 92 43 00
        e 48 92 40 7f
        e 52 92 40 00
        e 24 92 43 7f
        e 6 92 24 7f
        e 2 92 30 7f
        e 41 92 43 00
        e 5 92 24 00
        e 0 92 30 00
        e 43 92 48 7f
        e 65 92 48 00
        e 28 92 43 7f
        e 7 92 37 7f
        e 2 92 2b 7f
        e 32 92 43 00
        e 10 92 37 00
        e 4 92 2b 00
        e 314 92 46 7f
        e 8 92 35 7f
        e 11 92 29 7f
        e 198 92 29 00
        e 11 92 46 00
        e 22 92 35 00
        e 26 92 40 7f
        e 21 92 46 7f
        e 12 92 32 7f
        e 10 92 26 7f
        e 24 92 46 00
        e 16 92 40 00
        e 14 92 26 00
        e 3 92 3a 7f
        e 3 92 46 7f
        e 1 92 3e 7f
        e 3 92 32 00
        e 18 92 22 7f
        e 4 92 2e 7f
        e 129 92 2e 00
        e 5 92 22 00
        e 59 92 3a 00
        e 66 92 3e 00
        e 1 92 3c 7f
        e 71 92 3c 00
        e 25 92 3e 7f
        e 8 92 45 7f
        e 9 92 35 7f
        e 3 92 30 7f
        e 2 92 29 7f
        e 11 92 46 00
        e 55 92 30 00
        e 7 92 35 00
        e 0 92 29 00
        e 113 92 43 7f
        e 11 92 45 00
        e 175 92 3e 00
        e 12 92 2b 7f
        e 1 92 37 7f
        e 2 92 48 7f
        e 1 92 30 7f
        e 12 92 45 7f
        e 17 92 43 00
        e 26 92 30 00
        e 2 92 2b 00
        e 4 92 37 00
        e 317 92 45 00
        e 10 92 46 7f
        e 4 92 48 00
        e 4 92 40 7f
        e 6 92 2b 7f
        e 1 92 37 7f
        e 3 92 30 7f
        e 50 92 30 00
        e 8 92 2b 00
        e 17 92 37 00
        e 207 92 46 00
        e 6 92 45 7f
        e 60 92 45 00
        e 26 92 45 7f
        e 0 92 30 7f
        e 0 92 29 7f
        e 0 92 35 7f
        e 16 92 40 00
        e 44 92 35 00
        e 18 92 30 00
        e 8 92 29 00
        e 106 92 30 7f
        e 0 92 3c 7f
        e 52 92 3c 00
        e 1 92 30 00
        e 43 92 41 7f
        e 53 92 41 00
        e 43 92 45 00
        e 0 92 45 7f
        e 0 92 2d 7f
        e 0 92 39 7f
        e 43 92 39 00
        e 4 92 2d 00
        e 19 92 45 00
        e 30 92 41 7f
        e 57 92 41 00
        e 39 92 45 7f
        e 0 92 35 7f
        e 0 92 29 7f
        e 43 92 35 00
        e 6 92 29 00
        e 8 92 45 00
        e 39 92 4a 7f
        e 70 92 4a 00
        e 26 92 3c 7f
        e 0 92 35 7f
        e 0 92 30 7f
        e 0 92 48 7f
        e 77 92 35 00
        e 7 92 3c 00
        e 6 92 30 00
        e 135 92 48 00
        e 162 92 45 7f
        e 207 92 45 00
        e 97 92 45 7f
        e 45 92 45 00
        e 31 92 35 7f
        e 2 92 30 7f
        e 2 92 29 7f
        e 2 92 45 7f
        e 69 92 30 00
        e 11 92 35 00
        e 1 92 29 00
        e 60 92 41 7f
        e 77 92 41 00
        e 31 92 3e 7f
        e 105 92 3e 00
        e 4 92 43 7f
        e 18 92 3c 7f
        e 4 92 45 00
        e 10 92 35 7f
        e 10 92 30 7f
        e 1 92 29 7f
        e 54 92 35 00
        e 3 92 30 00
        e 20 92 29 00
        e 68 92 41 7f
        e 11 92 43 00
        e 171 92 3c 00
        e 19 92 46 7f
        e 0 92 24 7f
        e 3 92 30 7f
        e 6 92 41 00
        e 62 92 30 00
        e 11 92 24 00
        e 114 92 43 7f
        e 179 92 3e 7f
        e 4 92 45 7f
        e 7 92 43 00
        e 8 92 29 7f
        e 2 92 35 7f
        e 2 92 30 7f
        e 1 92 46 00
        e 51 92 30 00
        e 9 92 35 00
        e 1 92 29 00
        e 217 92 45 00
        e 7 92 43 7f
        e 59 92 3e 00
        e 1 92 43 00
        e 35 92 43 7f
        e 8 92 37 7f
        e 8 92 2b 7f
        e 0 92 30 7f
        e 31 92 30 00
        e 13 92 37 00
        e 8 92 2b 00
        e 127 92 2b 7f
        e 1 92 30 7f
        e 3 92 37 7f
        e 11 92 3c 7f
        e 32 92 37 00
        e 4 92 30 00
        e 5 92 2b 00
        e 0 92 3c 00
        e 37 92 40 7f
        e 58 92 40 00
        e 34 92 43 00
        e 0 92 43 7f
        e 11 92 34 7f
        e 1 92 28 7f
        e 43 92 34 00
        e 4 92 28 00
        e 4 92 43 00
        e 120 92 45 7f
        e 8 92 40 7f
        e 9 92 37 7f
        e 2 92 30 7f
        e 1 92 2b 7f
        e 34 92 40 00
        e 6 92 37 00
        e 8 92 30 00
        e 4 92 43 7f
        e 1 92 2b 00
        e 15 92 46 7f
        e 4 92 45 00
        e 34 92 43 00
        e 61 92 46 00
        e 5 92 3c 7f
        e 0 92 41 7f
        e 0 92 48 7f
        e 12 92 29 7f
        e 5 92 35 7f
        e 146 92 35 00
        e 14 92 29 00
        e 92 92 3c 00
        e 0 92 41 00
        e 0 92 48 00
        e 140 92 48 7f
        e 171 92 48 00
        e 99 92 48 7f
        e 51 92 48 00
        e 28 92 41 7f
        e 4 92 3c 7f
        e 4 92 48 7f
        e 25 92 30 7f
        e 2 92 29 7f
        e 116 92 30 00
        e 2 92 29 00
        e 165 92 3c 00
        e 43 92 41 00
        e 4 92 3d 7f
        e 18 92 2d 7f
        e 3 92 21 7f
        e 2 92 45 7f
        e 20 92 48 00
        e 82 92 2d 00
        e 24 92 21 00
        e 129 92 45 00
        e 27 92 43 7f
        e 53 92 3d 00
        e 17 92 43 00
        e 12 92 3e 7f
        e 1 92 39 7f
        e 6 92 41 7f
        e 11 92 26 7f
        e 2 92 32 7f
        e 191 92 45 7f
        e 19 92 41 00
        e 34 92 26 00
        e 42 92 32 00
        e 27 92 39 00
        e 33 92 3e 00
        e 28 92 3c 7f
        e 2 92 40 7f
        e 16 92 30 7f
        e 0 92 24 7f
        e 10 92 43 7f
        e 4 92 45 00
        e 43 92 30 00
        e 11 92 24 00
        e 77 92 40 00
        e 12 92 3c 00
        e 0 92 3e 7f
        e 2 92 39 7f
        e 29 92 2d 7f
        e 6 92 21 7f
        e 6 92 43 00
        e 5 92 45 7f
        e 54 92 2d 00
        e 15 92 21 00
        e 12 92 39 00
        e 64 92 3e 00
        e 28 92 45 00
        e 0 92 29 7f
        e 1 92 1d 7f
        e 10 92 41 7f
        e 9 92 39 7f
        e 1 92 3c 7f
        e 141 92 1d 00
        e 7 92 29 00
        e 169 92 39 00
        e 23 92 3a 7f
        e 2 92 37 7f
        e 16 92 41 00
        e 1 92 40 7f
        e 4 92 30 7f
        e 6 92 24 7f
        e 8 92 3c 00
        e 85 92 37 00
        e 12 92 3a 00
        e 135 92 40 00
        e 19 92 3a 7f
        e 0 92 40 7f
        e 0 92 43 7f
        e 33 92 30 00
        e 31 92 24 00
        e 36 92 3a 00
        e 0 92 40 00
        e 0 92 43 00
        e 7 92 35 7f
        e 2 92 41 7f
        e 1 92 29 7f
        e 1 92 39 7f
        e 2 92 3c 7f
        e 83 92 39 00
        e 27 92 3c 00
        e 40 92 29 00
        e 1 92 35 00
        e 47 92 30 7f
        e 4 92 43 7f
        e 1 92 24 7f
        e 51 92 43 00
        e 40 92 45 7f
        e 51 92 45 00
        e 19 92 30 00
        e 7 92 24 00
        e 5 92 46 7f
        e 22 92 41 00
        e 3 92 26 7f
        e 0 92 32 7f
        e 38 92 46 00
        e 27 92 48 7f
        e 55 92 48 00
        e 31 92 32 00
        e 4 92 4a 7f
        e 8 92 26 00
        e 20 92 28 7f
        e 0 92 34 7f
        e 25 92 4a 00
        e 40 92 4c 7f
        e 31 92 3c 7f
        e 32 92 4c 00
        e 28 92 3c 00
        e 5 92 45 7f
        e 1 92 41 7f
        e 2 92 34 00
        e 4 92 28 00
        e 3 92 4d 7f
        e 23 92 35 7f
        e 1 92 29 7f
        e 283 92 41 00
        e 1 92 29 00
        e 18 92 35 00
        e 21 92 4d 00
        e 8 92 45 00
        e 30 92 4d 7f
        e 1 92 32 7f
        e 5 92 26 7f
        e 6 92 41 7f
        e 3 92 3e 7f
        e 3 92 39 7f
        e 131 92 26 00
        e 3 92 32 00
        e 42 92 41 00
        e 45 92 3e 00
        e 8 92 39 00
        e 17 92 4d 00
        e 13 92 3c 7f
        e 21 92 24 7f
        e 4 92 30 7f
        e 17 92 48 7f
        e 10 92 3c 00
        e 15 92 30 00
        e 8 92 24 00
        e 20 92 48 00
        e 0 92 3e 7f
        e 2 92 41 7f
        e 2 92 3a 7f
        e 11 92 2e 7f
        e 0 92 22 7f
        e 12 92 4d 7f
        e 245 92 3e 00
        e 6 92 3a 00
        e 51 92 2e 00
        e 14 92 41 00
        e 4 92 4d 00
        e 33 92 22 00
        e 11 92 4d 7f
        e 6 92 3c 7f
        e 2 92 35 7f
        e 2 92 29 7f
        e 1 92 39 7f
        e 21 92 41 7f
        e 99 92 4c 7f
        e 7 92 41 00
        e 12 92 4d 00
        e 4 92 40 7f
        e 52 92 4c 00
        e 26 92 40 00
        e 9 92 4d 7f
        e 32 92 41 7f
        e 9 92 39 00
        e 8 92 3c 00
        e 38 92 29 00
        e 2 92 35 00
        e 11 92 4d 00
        e 23 92 41 00
        e 14 92 4f 7f
        e 2 92 30 7f
        e 1 92 24 7f
        e 22 92 43 7f
        e 16 92 40 7f
        e 10 92 3c 7f
        e 58 92 30 00
        e 17 92 24 00
        e 81 92 37 7f
        e 1 92 2b 7f
        e 78 92 2b 00
        e 2 92 37 00
        e 108 92 34 7f
        e 1 92 28 7f
        e 82 92 34 00
        e 12 92 28 00
        e 12 92 3c 00
        e 14 92 40 00
        e 72 92 4f 00
        e 0 92 30 7f
        e 2 92 24 7f
        e 6 92 51 7f
        e 8 92 45 7f
        e 1 92 40 7f
        e 4 92 3c 7f
        e 11 92 43 00
        e 78 92 30 00
        e 3 92 3c 00
        e 7 92 40 00
        e 15 92 24 00
        e 32 92 51 00
        e 27 92 4d 7f
        e 1 92 45 00
        e 8 92 41 7f
        e 5 92 35 7f
        e 2 92 29 7f
        e 1 92 3c 7f
        e 3 92 39 7f
        e 196 92 29 00
        e 3 92 35 00
        e 54 92 4d 00
        e 2 92 39 00
        e 15 92 3c 00
        e 40 92 41 00
        e 98 92 45 7f
        e 1 92 51 7f
        e 151 92 45 00
        e 12 92 51 00
        e 3 92 46 7f
        e 2 92 52 7f
        e 184 92 46 00
        e 7 92 35 7f
        e 2 92 41 7f
        e 2 92 29 7f
        e 0 92 45 7f
        e 6 92 3c 7f
        e 9 92 48 7f
        e 12 92 54 7f
        e 20 92 52 00
        e 259 92 35 00
        e 2 92 29 00
        e 4 92 3c 00
        e 23 92 41 00
        e 3 92 48 00
        e 8 92 45 00
        e 18 92 54 00
        e 5 92 51 7f
        e 6 92 45 7f
        e 11 92 39 7f
        e 0 92 2d 7f
        e 14 92 3d 7f
        e 256 92 43 7f
        e 9 92 4f 7f
        e 6 92 39 00
        e 4 92 45 00
        e 8 92 2d 00
        e 7 92 51 00
        e 36 92 4f 00
        e 2 92 3d 00
        e 23 92 41 7f
        e 5 92 4d 7f
        e 1 92 29 7f
        e 1 92 35 7f
        e 6 92 43 00
        e 3 92 3e 7f
        e 6 92 39 7f
        e 158 92 45 7f
        e 13 92 51 7f
        e 20 92 41 00
        e 2 92 4d 00
        e 68 92 39 00
        e 26 92 45 00
        e 11 92 3e 00
        e 4 92 29 00
        e 3 92 35 00
        e 12 92 51 00
        e 25 92 43 7f
        e 5 92 40 7f
        e 3 92 4f 7f
        e 1 92 3c 7f
        e 22 92 24 7f
        e 1 92 30 7f
        e 82 92 40 00
        e 6 92 3c 00
        e 43 92 4f 00
        e 2 92 43 00
        e 12 92 30 00
        e 1 92 45 7f
        e 6 92 24 00
        e 6 92 51 7f
        e 9 92 39 7f
        e 2 92 3e 7f
        e 12 92 2d 7f
        e 4 92 21 7f
        e 89 92 39 00
        e 4 92 3e 00
        e 66 92 21 00
        e 1 92 2d 00
        e 10 92 45 00
        e 4 92 51 00
        e 0 92 39 7f
        e 3 92 3c 7f
        e 3 92 41 7f
        e 12 92 4d 7f
        e 7 92 29 7f
        e 3 92 1d 7f
        e 230 92 39 00
        e 10 92 3c 00
        e 76 92 29 00
        e 3 92 1d 00
        e 62 92 4c 7f
        e 1 92 40 7f
        e 0 92 30 7f
        e 1 92 4d 00
        e 2 92 24 7f
        e 4 92 41 00
        e 4 92 3a 7f
        e 1 92 37 7f
        e 193 92 37 00
        e 7 92 3a 00
        e 33 92 4c 00
        e 51 92 40 00
        e 17 92 43 7f
        e 2 92 4f 7f
        e 6 92 3a 7f
        e 1 92 30 00
        e 4 92 40 7f
        e 10 92 24 00
        e 54 92 3a 00
        e 22 92 4f 00
        e 3 92 43 00
        e 6 92 40 00
        e 18 92 4d 7f
        e 2 92 29 7f
        e 3 92 35 7f
        e 2 92 41 7f
        e 3 92 39 7f
        e 1 92 3c 7f
        e 350 92 4d 00
        e 7 92 3c 00
        e 14 92 29 00
        e 3 92 35 00
        e 1 92 39 00
        e 2 92 41 00
        E 341 b0 7b 00
        GUID {4679C5C2-02AA-874A-9DB1-F4C1F170892A}
        IGNTEMPO 0 120 4 4
        SRCCOLOR 592
        VELLANE -1 86 6
        CFGEDITVIEW 27030.956522 22.530612 43 12 0 0 0 0 0 0.5
        KEYSNAP 0
        TRACKSEL 226
        EVTFILTER 0 -1 -1 -1 -1 0 0 0 0 -1 -1 -1 -1 0 -1 0 -1 -1
        CFGEDIT 1 1 0 0 0 0 1 0 1 1 1 0.25 0 187 878 778 0 0 2 3 0 0 0 0 0 -1 0 0 1 64
      >
    >
    <ITEM
      POSITION 0
      SNAPOFFS 0
      LENGTH 24.5
      LOOP 1
      ALLTAKES 0
      FADEIN 1 0 0 1 0 0
      FADEOUT 1 0 0 1 0 0
      MUTE 0
      COLOR 22774783 B
      SEL 0
      IGUID {90766AC6-2EB1-0C4C-AE43-D1D7D719C8A6}
      IID 11
      NAME "b-lev synt - National_Anthems_-_Egypt.mid"
      VOLPAN 1 0 1 -1
      SOFFS 16 32
      PLAYRATE 1 1 0 -1 0 0.0025
      CHANMODE 0
      TAKECOLOR 22293945 B
      GUID {20E5EC5E-1563-394E-BF8E-EBAA7A6CC71B}
      <SOURCE MIDI
        HASDATA 1 384 QN
        POOLEDEVTS {441D7E39-0C0F-D44F-A8FF-4B1B06F43E25}
        <X 0 0 0 0 3 "b-lev synt"
          /wNiLWxldiBzeW50
        >
        e 288 9c 3c 7f 3
        e 96 9c 3c 00 -44
        e 0 9c 41 7f -4
        e 0 9c 39 7f 19
        e 0 9c 3c 7f 19
        e 0 9c 29 7f 37
        e 0 9c 35 7f 43
        e 192 9c 39 00 32
        e 0 9c 3c 00 36
        e 96 9c 41 00 13
        e 0 9c 29 00 56
        e 0 9c 35 00 66
        e 96 9c 39 7f 1
        e 0 9c 3e 7f 2
        e 0 9c 41 7f 7
        e 0 9c 26 7f 22
        e 0 9c 32 7f 27
        e 192 9c 39 00 25
        e 0 9c 3e 00 24
        e 0 9c 41 00 28
        e 96 9c 26 00 62
        e 0 9c 32 00 37
        e 0 9c 3c 7f -20
        e 96 9c 3c 00 -64
        e 0 9c 41 7f -22
        e 0 9c 3a 7f -2
        e 0 9c 3e 7f -1
        e 0 9c 2e 7f 3
        e 0 9c 22 7f 6
        e 192 9c 3a 00 -5
        e 0 9c 3e 00 3
        e 96 9c 2e 00 -10
        e 0 9c 22 00 9
        e 96 9c 41 00 -66
        e 0 9c 29 7f -23
        e 0 9c 35 7f -23
        e 0 9c 41 7f -18
        e 0 9c 39 7f -11
        e 0 9c 3c 7f -10
        e 96 9c 41 00 19
        e 0 9c 40 7f 17
        e 96 9c 39 00 15
        e 0 9c 3c 00 19
        e 0 9c 40 00 21
        e 96 9c 29 00 11
        e 0 9c 35 00 11
        e 0 9c 41 7f -39
        e 96 9c 41 00 -28
        e 0 9c 24 7f -12
        e 0 9c 30 7f -12
        e 0 9c 3c 7f -8
        e 0 9c 40 7f -8
        e 0 9c 43 7f 3
        e 96 9c 24 00 -26
        e 0 9c 30 00 -20
        e 96 9c 2b 7f -30
        e 0 9c 37 7f -27
        e 96 9c 2b 00 -35
        e 0 9c 37 00 -28
        e 96 9c 28 7f -29
        e 0 9c 34 7f -24
        e 96 9c 3c 00 -33
        e 0 9c 40 00 -19
        e 0 9c 28 00 -39
        e 0 9c 34 00 -39
        e 96 9c 43 00 11
        e 0 9c 24 7f -30
        e 0 9c 30 7f -27
        e 0 9c 3c 7f -4
        e 0 9c 40 7f -3
        e 0 9c 45 7f -2
        e 96 9c 24 00 -34
        e 0 9c 30 00 -57
        e 0 9c 3c 00 23
        e 96 9c 40 00 -50
        e 0 9c 45 00 -15
        e 0 9c 39 7f -19
        e 0 9c 3c 7f -18
        e 0 9c 35 7f -16
        e 0 9c 29 7f -16
        e 0 9c 41 7f -10
        e 96 9c 29 00 31
        e 96 9c 39 00 16
        e 0 9c 3c 00 22
        e 0 9c 35 00 -58
        e 96 9c 41 00 -10
        e 96 9c 45 7f 1
        e 192 9c 45 00 -22
        e 0 9c 46 7f -16
        e 192 9c 46 00 5
        e 0 9c 35 7f -17
        e 0 9c 29 7f -15
        e 0 9c 41 7f -12
        e 0 9c 45 7f -10
        e 0 9c 3c 7f -7
        e 0 9c 48 7f 1
        e 288 9c 35 00 -1
        e 0 9c 29 00 3
        e 0 9c 48 00 39
        e 96 9c 41 00 -39
        e 0 9c 45 00 -37
        e 0 9c 3c 00 -54
        e 0 9c 45 7f -37
        e 0 9c 2d 7f -15
        e 0 9c 39 7f -11
        e 0 9c 3d 7f -9
        e 96 9c 45 00 -132
        e 192 9c 2d 00 16
        e 0 9c 39 00 17
        e 0 9c 3d 00 7
        e 0 9c 43 7f -23
        e 96 9c 43 00 -18
        e 0 9c 3e 7f -42
        e 0 9c 29 7f -39
        e 0 9c 39 7f -38
        e 0 9c 41 7f -32
        e 0 9c 35 7f -31
        e 192 9c 41 00 5
        e 0 9c 45 7f -28
        e 96 9c 3e 00 -20
        e 0 9c 29 00 -11
        e 0 9c 39 00 6
        e 0 9c 35 00 7
        e 0 9c 45 00 7
        e 0 9c 43 7f 38
        e 96 9c 40 7f -43
        e 0 9c 3c 7f -34
        e 0 9c 24 7f -24
        e 0 9c 30 7f -23
        e 96 9c 43 00 64
        e 0 9c 45 7f 47
        e 96 9c 40 00 -38
        e 0 9c 3c 00 -19
        e 0 9c 24 00 -54
        e 0 9c 30 00 -63
        e 0 9c 3e 7f -43
        e 0 9c 39 7f -31
        e 0 9c 2d 7f -26
        e 0 9c 21 7f -24
        e 96 9c 45 00 65
        e 0 9c 39 00 -2
        e 96 9c 3e 00 -61
        e 0 9c 2d 00 -54
        e 0 9c 21 00 -60
        e 0 9c 3c 7f -43
        e 0 9c 39 7f -41
        e 0 9c 41 7f -36
        e 0 9c 29 7f -22
        e 0 9c 1d 7f -15
        e 288 9c 39 00 3
        e 0 9c 29 00 1
        e 0 9c 1d 00 15
        e 96 9c 3c 00 -73
        e 0 9c 41 00 -31
        e 0 9c 40 7f -43
        e 0 9c 24 7f -32
        e 0 9c 3a 7f -31
        e 0 9c 30 7f -31
        e 0 9c 37 7f -24
        e 192 9c 3a 00 -57
        e 0 9c 37 00 -58
        e 96 9c 40 00 -30
        e 0 9c 43 7f -30
        e 0 9c 40 7f -8
        e 0 9c 3a 7f -5
        e 96 9c 24 00 -61
        e 0 9c 30 00 -71
        e 0 9c 43 00 -59
        e 0 9c 40 00 -37
        e 0 9c 3a 00 -38
        e 0 9c 35 7f -35
        e 0 9c 41 7f -34
        e 0 9c 29 7f -32
        e 0 9c 3c 7f -18
        e 0 9c 39 7f -15
        e 384 9c 35 00 -10
        e 0 9c 29 00 -15
        e 0 9c 3c 00 1
        e 0 9c 39 00 7
        e 96 9c 41 00 -51
        e 192 9c 3c 7f 11
        e 96 9c 3c 00 -9
        e 0 9c 39 7f 6
        e 0 9c 41 7f 12
        e 0 9c 3c 7f 14
        e 0 9c 35 7f 18
        e 0 9c 29 7f 19
        e 96 9c 3c 00 -61
        e 192 9c 39 00 25
        e 96 9c 41 00 -36
        e 0 9c 35 00 -10
        e 0 9c 29 00 -19
        e 0 9c 41 7f -2
        e 0 9c 39 7f -2
        e 0 9c 3e 7f -1
        e 0 9c 32 7f 22
        e 0 9c 26 7f 23
        e 288 9c 41 00 3
        e 0 9c 39 00 -49
        e 0 9c 3e 00 -5
        e 0 9c 32 00 60
        e 0 9c 26 00 50
        e 0 9c 3c 7f -2
        e 96 9c 3c 00 -26
        e 0 9c 41 7f -14
        e 0 9c 22 7f -8
        e 0 9c 2e 7f -4
        e 0 9c 3a 7f 6
        e 0 9c 3e 7f 7
        e 288 9c 2e 00 39
        e 0 9c 3a 00 26
        e 0 9c 3e 00 45
        e 96 9c 41 00 -42
        e 0 9c 22 00 -37
        e 0 9c 39 7f -10
        e 0 9c 3c 7f -7
        e 0 9c 35 7f -7
        e 0 9c 29 7f -4
        e 0 9c 41 7f -3
        e 96 9c 41 00 41
        e 0 9c 40 7f 24
        e 96 9c 40 00 48
        e 96 9c 3c 00 36
        e 0 9c 35 00 23
        e 0 9c 29 00 25
        e 0 9c 41 7f -46
        e 96 9c 39 00 -56
        e 0 9c 41 00 -34
        e 0 9c 43 7f -22
        e 0 9c 24 7f -13
        e 0 9c 30 7f -12
        e 0 9c 3c 7f -2
        e 0 9c 40 7f -1
        e 192 9c 24 00 -38
        e 0 9c 30 00 -44
        e 0 9c 2b 7f -16
        e 0 9c 37 7f -11
        e 96 9c 2b 00 -2
        e 0 9c 37 00 5
        e 96 9c 28 7f -30
        e 0 9c 34 7f -29
        e 96 9c 3c 00 -22
        e 0 9c 40 00 -1
        e 0 9c 28 00 -1
        e 0 9c 34 00 5
        e 96 9c 43 00 -10
        e 0 9c 30 7f -30
        e 0 9c 45 7f -25
        e 0 9c 24 7f -25
        e 0 9c 40 7f -12
        e 0 9c 3c 7f -9
        e 96 9c 30 00 9
        e 96 9c 45 00 -13
        e 0 9c 24 00 -72
        e 0 9c 40 00 -16
        e 0 9c 3c 00 -38
        e 0 9c 29 7f -32
        e 0 9c 35 7f -31
        e 0 9c 41 7f -29
        e 0 9c 3c 7f 2
        e 0 9c 39 7f 3
        e 288 9c 29 00 -75
        e 0 9c 35 00 -65
        e 0 9c 41 00 -65
        e 0 9c 3c 00 4
        e 0 9c 39 00 8
        e 96 9c 45 7f -4
        e 192 9c 45 00 -16
        e 0 9c 46 7f -40
        e 192 9c 46 00 -23
        e 0 9c 45 7f -24
        e 0 9c 3c 7f -23
        e 0 9c 41 7f -23
        e 0 9c 35 7f -7
        e 0 9c 29 7f -1
        e 0 9c 48 7f 6
        e 288 9c 35 00 -7
        e 0 9c 29 00 6
        e 96 9c 45 00 -55
        e 0 9c 3c 00 -46
        e 0 9c 41 00 -34
        e 0 9c 48 00 29
        e 0 9c 3d 7f -24
        e 0 9c 39 7f -22
        e 0 9c 2d 7f -19
        e 0 9c 45 7f -17
        e 192 9c 2d 00 7
        e 96 9c 39 00 -16
        e 0 9c 45 00 13
        e 0 9c 43 7f -10
        e 96 9c 3d 00 -36
        e 0 9c 43 00 -3
        e 0 9c 3e 7f -24
        e 0 9c 29 7f -20
        e 0 9c 35 7f -20
        e 0 9c 39 7f -20
        e 0 9c 41 7f -12
        e 192 9c 41 00 23
        e 0 9c 45 7f -7
        e 96 9c 29 00 16
        e 0 9c 35 00 16
        e 0 9c 39 00 16
        e 96 9c 3e 00 -56
        e 0 9c 45 00 -42
        e 0 9c 40 7f -44
        e 0 9c 24 7f -42
        e 0 9c 30 7f -42
        e 0 9c 3c 7f -42
        e 0 9c 43 7f -16
        e 192 9c 24 00 -6
        e 0 9c 30 00 -6
        e 0 9c 3c 00 -6
        e 0 9c 43 00 -15
        e 0 9c 45 7f -35
        e 0 9c 3e 7f -9
        e 0 9c 21 7f -5
        e 0 9c 2d 7f -5
        e 0 9c 39 7f -5
        e 96 9c 40 00 -86
        e 0 9c 21 00 36
        e 0 9c 2d 00 36
        e 0 9c 39 00 36
        e 96 9c 3e 00 -32
        e 0 9c 3c 7f -2
        e 0 9c 1d 7f 1
        e 0 9c 29 7f 1
        e 0 9c 39 7f 1
        e 0 9c 41 7f 12
        e 96 9c 45 00 -80
        e 192 9c 1d 00 -13
        e 0 9c 29 00 -13
        e 0 9c 39 00 -13
        e 0 9c 41 00 52
        e 96 9c 3c 00 -34
        e 0 9c 3a 7f -13
        e 0 9c 24 7f -12
        e 0 9c 30 7f -12
        e 0 9c 37 7f -12
        e 0 9c 40 7f -8
        e 192 9c 3a 00
        e 0 9c 24 00 10
        e 0 9c 30 00 10
        e 0 9c 37 00 10
        e 96 9c 40 00 -11
        e 0 9c 43 7f -11
        e 0 9c 3a 7f -2
        e 0 9c 40 7f 2
        e 96 9c 43 00 9
        e 0 9c 3a 00 13
        e 0 9c 40 00 -2
        e 0 9c 35 7f -15
        e 0 9c 29 7f -12
        e 0 9c 39 7f -11
        e 0 9c 3c 7f -8
        e 0 9c 41 7f 8
        e 192 9c 35 00 19
        e 0 9c 29 00 10
        e 96 9c 39 00 -27
        e 0 9c 3c 00 -2
        e 0 9c 41 00 20
        e 96 9c 45 7f -8
        e 192 9c 45 00 -45
        e 96 9c 45 7f 4
        e 96 9c 45 00 -42
        e 0 9c 45 7f -21
        e 0 9c 35 7f -16
        e 0 9c 29 7f -15
        e 0 9c 30 7f -12
        e 96 9c 35 00 -41
        e 0 9c 29 00 -49
        e 0 9c 30 00 -55
        e 96 9c 41 7f -48
        e 0 9c 3e 7f 43
        e 96 9c 41 00 -86
        e 0 9c 3e 00 18
        e 96 9c 45 00 6
        e 0 9c 3c 7f -32
        e 0 9c 43 7f -3
        e 0 9c 35 7f 1
        e 0 9c 29 7f 2
        e 0 9c 30 7f 4
        e 96 9c 35 00 -35
        e 0 9c 29 00 -34
        e 0 9c 30 00 -46
        e 96 9c 43 00 -17
        e 0 9c 41 7f -30
        e 96 9c 3c 00 4
        e 96 9c 41 00 -36
        e 0 9c 30 7f -31
        e 0 9c 24 7f -29
        e 0 9c 43 7f -20
        e 0 9c 46 7f -19
        e 96 9c 30 00 -71
        e 0 9c 24 00 -68
        e 288 9c 43 00 -30
        e 0 9c 46 00 -41
        e 0 9c 45 7f -31
        e 0 9c 29 7f -25
        e 0 9c 35 7f -24
        e 0 9c 30 7f -22
        e 0 9c 3e 7f -18
        e 96 9c 29 00 -60
        e 0 9c 35 00 -60
        e 0 9c 30 00 -72
        e 192 9c 43 7f -3
        e 96 9c 45 00 -78
        e 0 9c 3e 00 29
        e 0 9c 43 00 -52
        e 0 9c 43 7f -20
        e 0 9c 30 7f -18
        e 0 9c 24 7f -12
        e 96 9c 30 00 -66
        e 0 9c 24 00 -56
        e 96 9c 37 7f 23
        e 0 9c 3c 7f 25
        e 0 9c 2b 7f 31
        e 96 9c 37 00 -25
        e 0 9c 3c 00 -25
        e 0 9c 2b 00 -32
        e 0 9c 40 7f 16
        e 96 9c 43 00 5
        e 0 9c 40 00 -35
        e 0 9c 28 7f -12
        e 0 9c 34 7f -10
        e 0 9c 43 7f 5
        e 96 9c 28 00 -61
        e 0 9c 34 00 -57
        e 0 9c 43 00 -42
        e 0 9c 40 7f 6
        e 96 9c 40 00 -38
        e 0 9c 43 7f -14
        e 0 9c 24 7f -8
        e 0 9c 30 7f -6
        e 96 9c 43 00 -61
        e 0 9c 24 00 -56
        e 0 9c 30 00 -56
        e 0 9c 48 7f -13
        e 96 9c 48 00 -44
        e 0 9c 43 7f -16
        e 0 9c 37 7f -9
        e 0 9c 2b 7f -7
        e 96 9c 43 00 -71
        e 0 9c 37 00 -61
        e 0 9c 2b 00 -57
        e 288 9c 46 7f -31
        e 0 9c 35 7f -23
        e 0 9c 29 7f -12
        e 192 9c 46 00 5
        e 0 9c 29 00 -6
        e 96 9c 35 00 -69
        e 0 9c 40 7f -43
        e 0 9c 46 7f -22
        e 0 9c 32 7f -10
        e 0 9c 26 7f
        e 96 9c 40 00 -56
        e 0 9c 46 00 -72
        e 0 9c 32 00 -32
        e 0 9c 26 00 -42
        e 0 9c 3a 7f -39
        e 0 9c 46 7f -36
        e 0 9c 3e 7f -35
        e 0 9c 22 7f -14
        e 0 9c 2e 7f -10
        e 96 9c 22 00 28
        e 0 9c 2e 00 23
        e 96 9c 3a 00 -9
        e 96 9c 3e 00 -39
        e 0 9c 3c 7f -38
        e 96 9c 46 00 -5
        e 0 9c 3c 00 -63
        e 0 9c 3e 7f -38
        e 0 9c 45 7f -30
        e 0 9c 35 7f -21
        e 0 9c 30 7f -18
        e 0 9c 29 7f -16
        e 96 9c 35 00 -39
        e 0 9c 30 00 -46
        e 0 9c 29 00 -39
        e 96 9c 45 00 -11
        e 0 9c 43 7f -22
        e 192 9c 3e 00 -28
        e 0 9c 43 00 17
        e 0 9c 2b 7f -16
        e 0 9c 37 7f -15
        e 0 9c 48 7f -13
        e 0 9c 30 7f -12
        e 0 9c 45 7f
        e 96 9c 2b 00 -51
        e 0 9c 37 00 -47
        e 0 9c 30 00 -53
        e 288 9c 48 00 -4
        e 0 9c 45 00 -18
        e 0 9c 46 7f -8
        e 0 9c 40 7f
        e 0 9c 2b 7f 6
        e 0 9c 37 7f 7
        e 0 9c 30 7f 10
        e 96 9c 2b 00 -28
        e 0 9c 37 00 -11
        e 0 9c 30 00 -36
        e 192 9c 46 00 4
        e 0 9c 45 7f 10
        e 96 9c 40 00 16
        e 0 9c 45 00 -26
        e 0 9c 45 7f
        e 0 9c 30 7f
        e 0 9c 29 7f
        e 0 9c 35 7f
        e 96 9c 30 00 -18
        e 0 9c 29 00 -10
        e 0 9c 35 00 -36
        e 96 9c 30 7f
        e 0 9c 3c 7f
        e 96 9c 30 00 -43
        e 0 9c 3c 00 -44
        e 0 9c 41 7f
        e 96 9c 45 00
        e 0 9c 41 00 -43
        e 0 9c 45 7f
        e 0 9c 2d 7f
        e 0 9c 39 7f
        e 96 9c 45 00 -30
        e 0 9c 2d 00 -49
        e 0 9c 39 00 -53
        e 0 9c 41 7f
        e 96 9c 41 00 -39
        e 0 9c 45 7f
        e 0 9c 35 7f
        e 0 9c 29 7f
        e 96 9c 45 00 -39
        e 0 9c 35 00 -53
        e 0 9c 29 00 -47
        e 0 9c 4a 7f
        e 96 9c 4a 00 -26
        e 0 9c 3c 7f
        e 0 9c 35 7f
        e 0 9c 30 7f
        e 0 9c 48 7f
        e 96 9c 3c 00 -12
        e 0 9c 35 00 -19
        e 0 9c 30 00 -6
        e 96 9c 48 00 33
        e 192 9c 45 7f 3
        e 192 9c 45 00 18
        e 96 9c 45 7f 19
        e 96 9c 45 00 -32
        e 0 9c 35 7f -1
        e 0 9c 30 7f 1
        e 0 9c 29 7f 3
        e 0 9c 45 7f 5
        e 96 9c 35 00 -11
        e 0 9c 30 00 -22
        e 0 9c 29 00 -10
        e 96 9c 41 7f -46
        e 96 9c 41 00 -65
        e 0 9c 3e 7f -34
        e 96 9c 45 00 1
        e 0 9c 3e 00 -25
        e 0 9c 43 7f -21
        e 0 9c 3c 7f -3
        e 0 9c 35 7f 11
        e 0 9c 30 7f 21
        e 0 9c 29 7f 22
        e 96 9c 35 00 -20
        e 0 9c 30 00 -17
        e 0 9c 29 00 3
        e 96 9c 43 00 -14
        e 0 9c 41 7f -25
        e 192 9c 3c 00 -35
        e 0 9c 41 00 -7
        e 0 9c 46 7f -16
        e 0 9c 24 7f -16
        e 0 9c 30 7f -13
        e 96 9c 24 00 -30
        e 0 9c 30 00 -41
        e 96 9c 43 7f -12
        e 192 9c 46 00 -1
        e 0 9c 43 00 -14
        e 0 9c 3e 7f -25
        e 0 9c 45 7f -21
        e 0 9c 29 7f -6
        e 0 9c 35 7f -4
        e 0 9c 30 7f -2
        e 96 9c 29 00 -36
        e 0 9c 35 00 -37
        e 0 9c 30 00 -46
        e 192 9c 45 00 -11
        e 0 9c 43 7f -4
        e 96 9c 3e 00 -41
        e 0 9c 43 00 -40
        e 0 9c 43 7f -5
        e 0 9c 37 7f 3
        e 0 9c 2b 7f 11
        e 0 9c 30 7f 11
        e 96 9c 37 00 -41
        e 0 9c 2b 00 -33
        e 0 9c 30 00 -54
        e 96 9c 2b 7f -2
        e 0 9c 30 7f -1
        e 0 9c 37 7f 2
        e 0 9c 3c 7f 13
        e 96 9c 2b 00 -42
        e 0 9c 30 00 -47
        e 0 9c 37 00 -51
        e 0 9c 3c 00 -42
        e 0 9c 40 7f -5
        e 96 9c 43 00 -9
        e 0 9c 40 00 -43
        e 0 9c 43 7f -9
        e 0 9c 34 7f 2
        e 0 9c 28 7f 3
        e 96 9c 43 00 -42
        e 0 9c 34 00 -50
        e 0 9c 28 00 -46
        e 96 9c 45 7f -18
        e 0 9c 40 7f -10
        e 0 9c 37 7f -1
        e 0 9c 30 7f 1
        e 0 9c 2b 7f 2
        e 96 9c 45 00 -22
        e 0 9c 40 00 -60
        e 0 9c 37 00 -54
        e 0 9c 30 00 -46
        e 0 9c 2b 00 -41
        e 0 9c 43 7f -42
        e 0 9c 46 7f -26
        e 96 9c 43 00 -84
        e 0 9c 46 00 -23
        e 0 9c 3c 7f -18
        e 0 9c 41 7f -18
        e 0 9c 48 7f -18
        e 0 9c 29 7f -6
        e 0 9c 35 7f -1
        e 192 9c 29 00 -33
        e 0 9c 35 00 -47
        e 96 9c 3c 00 -37
        e 0 9c 41 00 -37
        e 0 9c 48 00 -37
        e 96 9c 48 7f 7
        e 192 9c 48 00 -14
        e 96 9c 48 7f -11
        e 96 9c 48 00 -56
        e 0 9c 41 7f -28
        e 0 9c 3c 7f -24
        e 0 9c 48 7f -20
        e 0 9c 30 7f 5
        e 0 9c 29 7f 7
        e 96 9c 30 00 27
        e 0 9c 29 00 29
        e 192 9c 3c 00 2
        e 96 9c 41 00 -51
        e 0 9c 48 00 -4
        e 0 9c 3d 7f -47
        e 0 9c 2d 7f -29
        e 0 9c 21 7f -26
        e 0 9c 45 7f -24
        e 96 9c 2d 00 -18
        e 0 9c 21 00 6
        e 192 9c 45 00 -57
        e 0 9c 43 7f -30
        e 96 9c 3d 00 -73
        e 0 9c 43 00 -56
        e 0 9c 3e 7f -44
        e 0 9c 39 7f -43
        e 0 9c 41 7f -37
        e 0 9c 26 7f -26
        e 0 9c 32 7f -24
        e 192 9c 41 00 -6
        e 0 9c 45 7f -25
        e 96 9c 39 00 1
        e 0 9c 26 00 -68
        e 0 9c 32 00 -26
        e 96 9c 3e 00 -62
        e 0 9c 45 00 -2
        e 0 9c 3c 7f -34
        e 0 9c 40 7f -32
        e 0 9c 30 7f -16
        e 0 9c 24 7f -16
        e 0 9c 43 7f -6
        e 96 9c 30 00 -55
        e 0 9c 24 00 -44
        e 0 9c 3e 7f 45
        e 0 9c 39 7f 47
        e 96 9c 3c 00 -51
        e 0 9c 40 00 -63
        e 0 9c 43 00 -8
        e 0 9c 39 00 78
        e 0 9c 2d 7f -20
        e 0 9c 21 7f -14
        e 0 9c 45 7f -3
        e 96 9c 3e 00 46
        e 0 9c 2d 00 -45
        e 0 9c 21 00 -30
        e 96 9c 45 00 -22
        e 0 9c 29 7f -22
        e 0 9c 1d 7f -21
        e 0 9c 41 7f -11
        e 0 9c 39 7f -2
        e 0 9c 3c 7f -1
        e 192 9c 29 00 -45
        e 0 9c 1d 00 -52
        e 96 9c 39 00 28
        e 96 9c 41 00 -27
        e 0 9c 3c 00 -8
        e 0 9c 3a 7f -45
        e 0 9c 37 7f -43
        e 0 9c 40 7f -26
        e 0 9c 30 7f -22
        e 0 9c 24 7f -16
        e 96 9c 3a 00 -7
        e 0 9c 37 00 -19
        e 192 9c 40 00 -64
        e 0 9c 30 00 -12
        e 0 9c 24 00 19
        e 0 9c 3a 7f -45
        e 0 9c 40 7f -45
        e 0 9c 43 7f -45
        e 96 9c 3a 00 -41
        e 0 9c 40 00 -41
        e 0 9c 43 00 -41
        e 0 9c 35 7f -34
        e 0 9c 41 7f -32
        e 0 9c 29 7f -31
        e 0 9c 39 7f -30
        e 0 9c 3c 7f -28
        e 96 9c 39 00 -41
        e 0 9c 3c 00 -14
        e 96 9c 35 00 -69
        e 0 9c 29 00 -70
        e 0 9c 30 7f -22
        e 0 9c 43 7f -18
        e 0 9c 24 7f -17
        e 96 9c 43 00 -62
        e 0 9c 45 7f -22
        e 96 9c 41 00 -14
        e 0 9c 30 00 -48
        e 0 9c 24 00 -41
        e 0 9c 45 00 -67
        e 0 9c 46 7f -36
        e 0 9c 26 7f -11
        e 0 9c 32 7f -11
        e 96 9c 46 00 -69
        e 0 9c 48 7f -42
        e 96 9c 26 00 -40
        e 0 9c 32 00 -52
        e 0 9c 48 00 -83
        e 0 9c 4a 7f -48
        e 0 9c 28 7f -20
        e 0 9c 34 7f -20
        e 0 9c 4c 7f 45
        e 96 9c 4a 00 -91
        e 0 9c 4c 00 12
        e 0 9c 3c 7f -20
        e 0 9c 45 7f 45
        e 0 9c 41 7f 46
        e 96 9c 28 00 -44
        e 0 9c 34 00 -48
        e 0 9c 3c 00 -56
        e 0 9c 4d 7f -41
        e 0 9c 35 7f -18
        e 0 9c 29 7f -17
        e 192 9c 41 00 74
        e 96 9c 45 00 26
        e 0 9c 35 00 -3
        e 0 9c 29 00 -21
        e 96 9c 4d 00 -78
        e 0 9c 4d 7f -40
        e 0 9c 32 7f -39
        e 0 9c 26 7f -34
        e 0 9c 41 7f -28
        e 0 9c 3e 7f -25
        e 0 9c 39 7f -22
        e 96 9c 26 00 13
        e 96 9c 32 00 -80
        e 0 9c 41 00 -38
        e 0 9c 3e 00 7
        e 0 9c 39 00 15
        e 0 9c 3c 7f 45
        e 96 9c 4d 00 -64
        e 0 9c 3c 00 1
        e 0 9c 24 7f -30
        e 0 9c 30 7f -26
        e 0 9c 48 7f -9
        e 0 9c 3e 7f 44
        e 0 9c 41 7f 46
        e 96 9c 24 00 -72
        e 0 9c 30 00 -80
        e 0 9c 48 00 -52
        e 0 9c 3a 7f -48
        e 0 9c 2e 7f -37
        e 0 9c 22 7f -37
        e 0 9c 4d 7f -25
        e 192 9c 3e 00 28
        e 96 9c 41 00 3
        e 0 9c 3a 00 -62
        e 0 9c 2e 00 -11
        e 0 9c 4d 00 7
        e 96 9c 22 00 -56
        e 0 9c 4d 7f -45
        e 0 9c 3c 7f -39
        e 0 9c 35 7f -37
        e 0 9c 29 7f -35
        e 0 9c 39 7f -34
        e 0 9c 41 7f -13
        e 96 9c 41 00 -3
        e 0 9c 4c 7f -10
        e 0 9c 40 7f 13
        e 96 9c 4d 00 -87
        e 0 9c 4c 00 -31
        e 0 9c 40 00 -5
        e 0 9c 4d 7f 4
        e 0 9c 41 7f 36
        e 96 9c 3c 00 -43
        e 0 9c 35 00 -3
        e 0 9c 29 00 -5
        e 0 9c 39 00 -51
        e 0 9c 4d 00 8
        e 0 9c 41 00 31
        e 0 9c 4f 7f 45
        e 0 9c 30 7f 47
        e 96 9c 30 00 58
        e 0 9c 24 7f -48
        e 0 9c 43 7f -26
        e 0 9c 40 7f -10
        e 0 9c 3c 7f
        e 96 9c 24 00 -21
        e 96 9c 37 7f -36
        e 0 9c 2b 7f -35
        e 96 9c 37 00 -51
        e 0 9c 2b 00 -53
        e 96 9c 34 7f -39
        e 0 9c 28 7f -38
        e 96 9c 4f 00 58
        e 0 9c 40 00 -14
        e 0 9c 3c 00 -28
        e 0 9c 34 00 -52
        e 0 9c 28 00 -40
        e 96 9c 43 00 -6
        e 0 9c 30 7f -38
        e 0 9c 24 7f -36
        e 0 9c 51 7f -30
        e 0 9c 45 7f -22
        e 0 9c 40 7f -21
        e 0 9c 3c 7f -17
        e 96 9c 30 00 -24
        e 0 9c 24 00 1
        e 0 9c 40 00 -14
        e 0 9c 3c 00 -21
        e 96 9c 51 00 -63
        e 0 9c 45 00 -35
        e 0 9c 4d 7f -36
        e 0 9c 41 7f -27
        e 0 9c 35 7f -22
        e 0 9c 29 7f -20
        e 0 9c 3c 7f -19
        e 0 9c 39 7f -16
        e 192 9c 35 00 -9
        e 0 9c 29 00 -12
        e 96 9c 4d 00 -51
        e 0 9c 41 00 6
        e 0 9c 3c 00 -34
        e 0 9c 39 00 -49
        e 96 9c 45 7f 8
        e 0 9c 51 7f 9
        e 192 9c 45 00 -32
        e 0 9c 51 00 -20
        e 0 9c 46 7f -17
        e 0 9c 52 7f -15
        e 192 9c 46 00 -23
        e 0 9c 35 7f -16
        e 0 9c 41 7f -14
        e 0 9c 29 7f -12
        e 0 9c 45 7f -12
        e 0 9c 3c 7f -6
        e 0 9c 48 7f 3
        e 0 9c 54 7f 15
        e 96 9c 52 00 -61
        e 192 9c 35 00 6
        e 0 9c 29 00 8
        e 0 9c 3c 00 12
        e 0 9c 48 00 38
        e 96 9c 41 00 -61
        e 0 9c 45 00 -50
        e 0 9c 54 00 -32
        e 0 9c 51 7f -27
        e 0 9c 45 7f -21
        e 0 9c 39 7f -10
        e 0 9c 2d 7f -10
        e 0 9c 3d 7f 4
        e 288 9c 51 00 6
        e 0 9c 45 00 -9
        e 0 9c 39 00 -13
        e 0 9c 2d 00 -1
        e 0 9c 3d 00 44
        e 0 9c 43 7f -28
        e 0 9c 4f 7f -19
        e 96 9c 43 00 -16
        e 0 9c 4f 00 -54
        e 0 9c 41 7f -29
        e 0 9c 4d 7f -24
        e 0 9c 29 7f -23
        e 0 9c 35 7f -22
        e 0 9c 3e 7f -13
        e 0 9c 39 7f -7
        e 192 9c 41 00 -8
        e 0 9c 4d 00 -6
        e 0 9c 45 7f -41
        e 0 9c 51 7f -28
        e 96 9c 29 00 7
        e 0 9c 35 00 10
        e 0 9c 3e 00 3
        e 0 9c 39 00 -34
        e 0 9c 45 00 -8
        e 0 9c 43 7f 47
        e 96 9c 51 00 -74
        e 0 9c 40 7f -44
        e 0 9c 4f 7f -41
        e 0 9c 3c 7f -40
        e 0 9c 24 7f -18
        e 0 9c 30 7f -17
        e 96 9c 43 00 20
        e 0 9c 40 00 -31
        e 0 9c 3c 00 -25
        e 0 9c 45 7f 33
        e 0 9c 51 7f 45
        e 96 9c 4f 00 -78
        e 0 9c 24 00 -57
        e 0 9c 30 00 -64
        e 0 9c 39 7f -42
        e 0 9c 3e 7f -40
        e 0 9c 2d 7f -28
        e 0 9c 21 7f -24
        e 96 9c 45 00 50
        e 0 9c 51 00 54
        e 0 9c 39 00 -31
        e 0 9c 3e 00 -27
        e 96 9c 2d 00 -56
        e 0 9c 21 00 -57
        e 0 9c 39 7f -42
        e 0 9c 3c 7f -39
        e 0 9c 41 7f -36
        e 0 9c 4d 7f -24
        e 0 9c 29 7f -17
        e 0 9c 1d 7f -14
        e 288 9c 39 00 -72
        e 0 9c 3c 00 -62
        e 0 9c 29 00 14
        e 0 9c 1d 00 17
        e 96 9c 41 00 -9
        e 0 9c 4d 00 -15
        e 0 9c 4c 7f -17
        e 0 9c 40 7f -16
        e 0 9c 30 7f -16
        e 0 9c 24 7f -13
        e 0 9c 3a 7f -5
        e 0 9c 37 7f -4
        e 192 9c 3a 00 4
        e 0 9c 37 00 -3
        e 96 9c 4c 00 -59
        e 0 9c 40 00 -8
        e 0 9c 30 00 18
        e 0 9c 24 00 32
        e 0 9c 43 7f 9
        e 0 9c 4f 7f 11
        e 0 9c 3a 7f 17
        e 0 9c 40 7f 22
        e 96 9c 43 00 15
        e 0 9c 4f 00 12
        e 0 9c 3a 00 -10
        e 0 9c 40 00 21
        e 0 9c 4d 7f 39
        e 0 9c 29 7f 41
        e 0 9c 35 7f 44
        e 0 9c 41 7f 46
        e 96 9c 39 7f -47
        e 0 9c 3c 7f -46
        e 288 9c 4d 00 16
        e 0 9c 29 00 37
        e 0 9c 35 00 40
        e 0 9c 41 00 43
        e 96 9c 39 00 -55
        e 0 9c 3c 00 -73
        E 288 b0 7b 00
        GUID {2BE6F90F-1BB5-1146-8E17-483C7C61E640}
        IGNTEMPO 0 120 4 4
        SRCCOLOR 771
        VELLANE -1 108 6
        CFGEDITVIEW 0 13.62963 43 12 0 0 0 0 0 0.5
        KEYSNAP 0
        TRACKSEL 226
        EVTFILTER 0 -1 -1 -1 -1 0 0 0 0 -1 -1 -1 -1 0 -1 0 -1 -1
        CFGEDIT 1 1 0 0 0 0 1 0 1 1 1 0.25 0 187 878 778 0 0 2 3 0 0 0 0 0 -1 0 0 1 64
      >
      TAKE
      NAME "b-lev synt - National_Anthems_-_Egypt.mid"
      TAKEVOLPAN 0 1 -1
      SOFFS 16 32
      PLAYRATE 1 1 0 -1 0 0.0025
      CHANMODE 0
      GUID {50AD39B0-5445-5A4B-9FAF-3E481D6D1293}
      <SOURCE MIDI
        HASDATA 1 384 QN
        POOLEDEVTS {D9501AEC-EE09-3E45-BC04-4403902D13EE}
        <X 0 0 0 0 3 "b-lev synt"
          /wNiLWxldiBzeW50
        >
        e 291 9c 3c 7f
        e 49 9c 3c 00
        e 40 9c 41 7f
        e 23 9c 39 7f
        e 0 9c 3c 7f
        e 18 9c 29 7f
        e 6 9c 35 7f
        e 181 9c 39 00
        e 4 9c 3c 00
        e 73 9c 41 00
        e 43 9c 29 00
        e 10 9c 35 00
        e 31 9c 39 7f
        e 1 9c 3e 7f
        e 5 9c 41 7f
        e 15 9c 26 7f
        e 5 9c 32 7f
        e 189 9c 3e 00
        e 1 9c 39 00
        e 3 9c 41 00
        e 48 9c 3c 7f
        e 52 9c 3c 00
        e 5 9c 32 00
        e 25 9c 26 00
        e 12 9c 41 7f
        e 20 9c 3a 7f
        e 1 9c 3e 7f
        e 4 9c 2e 7f
        e 3 9c 22 7f
        e 181 9c 3a 00
        e 8 9c 3e 00
        e 83 9c 2e 00
        e 19 9c 22 00
        e 21 9c 41 00
        e 43 9c 29 7f
        e 0 9c 35 7f
        e 5 9c 41 7f
        e 7 9c 39 7f
        e 1 9c 3c 7f
        e 123 9c 40 7f
        e 2 9c 41 00
        e 92 9c 39 00
        e 4 9c 3c 00
        e 2 9c 40 00
        e 36 9c 41 7f
        e 50 9c 29 00
        e 0 9c 35 00
        e 57 9c 41 00
        e 16 9c 24 7f
        e 0 9c 30 7f
        e 4 9c 3c 7f
        e 0 9c 40 7f
        e 11 9c 43 7f
        e 67 9c 24 00
        e 6 9c 30 00
        e 86 9c 2b 7f
        e 3 9c 37 7f
        e 88 9c 2b 00
        e 7 9c 37 00
        e 95 9c 28 7f
        e 5 9c 34 7f
        e 81 9c 28 00
        e 0 9c 34 00
        e 6 9c 3c 00
        e 14 9c 40 00
        e 85 9c 24 7f
        e 3 9c 30 7f
        e 23 9c 3c 7f
        e 1 9c 40 7f
        e 1 9c 45 7f
        e 13 9c 43 00
        e 28 9c 30 00
        e 23 9c 24 00
        e 57 9c 3c 00
        e 23 9c 40 00
        e 31 9c 39 7f
        e 1 9c 3c 7f
        e 2 9c 35 7f
        e 0 9c 29 7f
        e 1 9c 45 00
        e 5 9c 41 7f
        e 137 9c 29 00
        e 7 9c 35 00
        e 74 9c 39 00
        e 6 9c 3c 00
        e 64 9c 41 00
        e 107 9c 45 7f
        e 169 9c 45 00
        e 6 9c 46 7f
        e 191 9c 35 7f
        e 2 9c 29 7f
        e 3 9c 41 7f
        e 2 9c 45 7f
        e 3 9c 3c 7f
        e 8 9c 48 7f
        e 4 9c 46 00
        e 282 9c 35 00
        e 4 9c 29 00
        e 36 9c 48 00
        e 3 9c 3c 00
        e 15 9c 41 00
        e 2 9c 45 00
        e 0 9c 45 7f
        e 1 9c 45 00
        e 21 9c 2d 7f
        e 4 9c 39 7f
        e 2 9c 3d 7f
        e 274 9c 43 7f
        e 30 9c 3d 00
        e 9 9c 2d 00
        e 1 9c 39 00
        e 37 9c 3e 7f
        e 0 9c 41 7f
        e 3 9c 29 7f
        e 1 9c 39 7f
        e 6 9c 41 00
        e 0 9c 41 7f
        e 1 9c 35 7f
        e 13 9c 43 00
        e 182 9c 45 7f
        e 33 9c 41 00
        e 71 9c 3e 00
        e 9 9c 29 00
        e 17 9c 39 00
        e 1 9c 35 00
        e 0 9c 45 00
        e 31 9c 43 7f
        e 15 9c 40 7f
        e 9 9c 3c 7f
        e 10 9c 24 7f
        e 1 9c 30 7f
        e 152 9c 30 00
        e 9 9c 24 00
        e 5 9c 45 7f
        e 6 9c 3e 7f
        e 5 9c 40 00
        e 6 9c 43 00
        e 1 9c 39 7f
        e 5 9c 2d 7f
        e 2 9c 21 7f
        e 5 9c 3c 00
        e 113 9c 39 00
        e 37 9c 3e 00
        e 1 9c 21 00
        e 6 9c 2d 00
        e 11 9c 3c 7f
        e 2 9c 39 7f
        e 5 9c 41 7f
        e 5 9c 45 00
        e 9 9c 29 7f
        e 7 9c 1d 7f
        e 304 9c 29 00
        e 2 9c 39 00
        e 12 9c 1d 00
        e 8 9c 3c 00
        e 30 9c 40 7f
        e 11 9c 24 7f
        e 1 9c 41 00
        e 0 9c 3a 7f
        e 0 9c 30 7f
        e 7 9c 37 7f
        e 158 9c 37 00
        e 1 9c 3a 00
        e 123 9c 40 00
        e 0 9c 43 7f
        e 22 9c 40 7f
        e 3 9c 3a 7f
        e 30 9c 30 00
        e 10 9c 24 00
        e 2 9c 43 00
        e 21 9c 3a 00
        e 1 9c 40 00
        e 2 9c 35 7f
        e 1 9c 41 7f
        e 2 9c 29 7f
        e 14 9c 3c 7f
        e 3 9c 39 7f
        e 384 9c 29 00
        e 5 9c 35 00
        e 11 9c 3c 00
        e 6 9c 39 00
        e 38 9c 41 00
        e 254 9c 3c 7f
        e 76 9c 3c 00
        e 13 9c 3c 7f
        e 2 9c 39 7f
        e 6 9c 41 7f
        e 2 9c 3c 00
        e 0 9c 3c 7f
        e 4 9c 35 7f
        e 1 9c 29 7f
        e 16 9c 3c 00
        e 278 9c 39 00
        e 35 9c 41 00
        e 17 9c 29 00
        e 9 9c 35 00
        e 8 9c 41 7f
        e 0 9c 39 7f
        e 1 9c 3e 7f
        e 23 9c 32 7f
        e 1 9c 26 7f
        e 216 9c 39 00
        e 44 9c 3e 00
        e 3 9c 3c 7f
        e 5 9c 41 00
        e 47 9c 26 00
        e 10 9c 32 00
        e 10 9c 3c 00
        e 12 9c 41 7f
        e 6 9c 22 7f
        e 4 9c 2e 7f
        e 10 9c 3a 7f
        e 1 9c 3e 7f
        e 307 9c 3a 00
        e 13 9c 2e 00
        e 6 9c 3e 00
        e 9 9c 41 00
        e 5 9c 22 00
        e 27 9c 39 7f
        e 3 9c 3c 7f
        e 0 9c 35 7f
        e 3 9c 29 7f
        e 1 9c 41 7f
        e 123 9c 40 7f
        e 17 9c 41 00
        e 103 9c 40 00
        e 2 9c 41 7f
        e 69 9c 35 00
        e 2 9c 29 00
        e 11 9c 3c 00
        e 4 9c 39 00
        e 22 9c 41 00
        e 12 9c 43 7f
        e 9 9c 24 7f
        e 1 9c 30 7f
        e 10 9c 3c 7f
        e 1 9c 40 7f
        e 149 9c 30 00
        e 6 9c 24 00
        e 22 9c 2b 7f
        e 5 9c 37 7f
        e 105 9c 2b 00
        e 7 9c 37 00
        e 61 9c 28 7f
        e 1 9c 34 7f
        e 103 9c 3c 00
        e 21 9c 40 00
        e 0 9c 28 00
        e 6 9c 34 00
        e 61 9c 30 7f
        e 5 9c 45 7f
        e 0 9c 24 7f
        e 13 9c 40 7f
        e 2 9c 43 00
        e 1 9c 3c 7f
        e 114 9c 30 00
        e 15 9c 24 00
        e 34 9c 3c 00
        e 6 9c 29 7f
        e 1 9c 35 7f
        e 2 9c 41 7f
        e 13 9c 40 00
        e 3 9c 45 00
        e 15 9c 3c 7f
        e 1 9c 39 7f
        e 210 9c 29 00
        e 10 9c 35 00
        e 0 9c 41 00
        e 69 9c 3c 00
        e 4 9c 39 00
        e 84 9c 45 7f
        e 156 9c 46 7f
        e 24 9c 45 00
        e 184 9c 45 7f
        e 1 9c 46 00
        e 0 9c 3c 7f
        e 0 9c 41 7f
        e 16 9c 35 7f
        e 6 9c 29 7f
        e 7 9c 48 7f
        e 275 9c 35 00
        e 13 9c 29 00
        e 35 9c 45 00
        e 9 9c 3c 00
        e 12 9c 41 00
        e 10 9c 3d 7f
        e 2 9c 39 7f
        e 3 9c 2d 7f
        e 2 9c 45 7f
        e 46 9c 48 00
        e 170 9c 2d 00
        e 73 9c 39 00
        e 6 9c 43 7f
        e 23 9c 45 00
        e 47 9c 3d 00
        e 12 9c 3e 7f
        e 4 9c 29 7f
        e 0 9c 35 7f
        e 0 9c 39 7f
        e 8 9c 41 7f
        e 9 9c 43 00
        e 188 9c 45 7f
        e 30 9c 41 00
        e 89 9c 29 00
        e 0 9c 35 00
        e 0 9c 39 00
        e 24 9c 3e 00
        e 12 9c 40 7f
        e 2 9c 45 00
        e 0 9c 24 7f
        e 0 9c 30 7f
        e 0 9c 3c 7f
        e 26 9c 43 7f
        e 173 9c 45 7f
        e 20 9c 43 00
        e 6 9c 3e 7f
        e 3 9c 24 00
        e 0 9c 30 00
        e 0 9c 3c 00
        e 1 9c 21 7f
        e 0 9c 2d 7f
        e 0 9c 39 7f
        e 15 9c 40 00
        e 122 9c 21 00
        e 0 9c 2d 00
        e 0 9c 39 00
        e 28 9c 3e 00
        e 30 9c 3c 7f
        e 3 9c 1d 7f
        e 0 9c 29 7f
        e 0 9c 39 7f
        e 11 9c 41 7f
        e 4 9c 45 00
        e 259 9c 1d 00
        e 0 9c 29 00
        e 0 9c 39 00
        e 65 9c 41 00
        e 10 9c 3c 00
        e 21 9c 3a 7f
        e 1 9c 24 7f
        e 0 9c 30 7f
        e 0 9c 37 7f
        e 4 9c 40 7f
        e 200 9c 3a 00
        e 10 9c 24 00
        e 0 9c 30 00
        e 0 9c 37 00
        e 75 9c 40 00
        e 0 9c 43 7f
        e 9 9c 3a 7f
        e 4 9c 40 7f
        e 79 9c 35 7f
        e 3 9c 29 7f
        e 1 9c 39 7f
        e 3 9c 3c 7f
        e 6 9c 40 00
        e 10 9c 41 7f
        e 1 9c 43 00
        e 4 9c 3a 00
        e 189 9c 29 00
        e 9 9c 35 00
        e 50 9c 39 00
        e 25 9c 3c 00
        e 22 9c 41 00
        e 68 9c 45 7f
        e 155 9c 45 00
        e 145 9c 45 7f
        e 50 9c 45 00
        e 21 9c 45 7f
        e 5 9c 35 7f
        e 1 9c 29 7f
        e 3 9c 30 7f
        e 53 9c 30 00
        e 6 9c 29 00
        e 8 9c 35 00
        e 89 9c 41 7f
        e 58 9c 41 00
        e 33 9c 3e 7f
        e 71 9c 3e 00
        e 46 9c 3c 7f
        e 29 9c 43 7f
        e 4 9c 35 7f
        e 1 9c 29 7f
        e 2 9c 30 7f
        e 2 9c 45 00
        e 44 9c 30 00
        e 11 9c 35 00
        e 1 9c 29 00
        e 100 9c 41 7f
        e 13 9c 43 00
        e 117 9c 3c 00
        e 56 9c 41 00
        e 5 9c 30 7f
        e 2 9c 24 7f
        e 9 9c 43 7f
        e 1 9c 46 7f
        e 44 9c 30 00
        e 3 9c 24 00
        e 315 9c 46 00
        e 10 9c 45 7f
        e 1 9c 43 00
        e 5 9c 29 7f
        e 1 9c 35 7f
        e 2 9c 30 7f
        e 4 9c 3e 7f
        e 42 9c 30 00
        e 12 9c 29 00
        e 0 9c 35 00
        e 249 9c 43 7f
        e 21 9c 45 00
        e 26 9c 43 00
        e 32 9c 43 7f
        e 2 9c 30 7f
        e 6 9c 24 7f
        e 41 9c 3e 00
        e 1 9c 30 00
        e 10 9c 24 00
        e 175 9c 37 7f
        e 2 9c 3c 7f
        e 6 9c 2b 7f
        e 33 9c 2b 00
        e 7 9c 37 00
        e 0 9c 3c 00
        e 41 9c 40 7f
        e 45 9c 40 00
        e 23 9c 28 7f
        e 2 9c 34 7f
        e 15 9c 43 00
        e 0 9c 43 7f
        e 30 9c 28 00
        e 4 9c 34 00
        e 15 9c 43 00
        e 48 9c 40 7f
        e 52 9c 40 00
        e 24 9c 43 7f
        e 6 9c 24 7f
        e 2 9c 30 7f
        e 41 9c 43 00
        e 5 9c 24 00
        e 0 9c 30 00
        e 43 9c 48 7f
        e 65 9c 48 00
        e 28 9c 43 7f
        e 7 9c 37 7f
        e 2 9c 2b 7f
        e 32 9c 43 00
        e 10 9c 37 00
        e 4 9c 2b 00
        e 314 9c 46 7f
        e 8 9c 35 7f
        e 11 9c 29 7f
        e 198 9c 29 00
        e 11 9c 46 00
        e 22 9c 35 00
        e 26 9c 40 7f
        e 21 9c 46 7f
        e 12 9c 32 7f
        e 10 9c 26 7f
        e 24 9c 46 00
        e 16 9c 40 00
        e 14 9c 26 00
        e 3 9c 3a 7f
        e 3 9c 46 7f
        e 1 9c 3e 7f
        e 3 9c 32 00
        e 18 9c 22 7f
        e 4 9c 2e 7f
        e 129 9c 2e 00
        e 5 9c 22 00
        e 59 9c 3a 00
        e 66 9c 3e 00
        e 1 9c 3c 7f
        e 71 9c 3c 00
        e 25 9c 3e 7f
        e 8 9c 45 7f
        e 9 9c 35 7f
        e 3 9c 30 7f
        e 2 9c 29 7f
        e 11 9c 46 00
        e 55 9c 30 00
        e 7 9c 35 00
        e 0 9c 29 00
        e 113 9c 43 7f
        e 11 9c 45 00
        e 175 9c 3e 00
        e 12 9c 2b 7f
        e 1 9c 37 7f
        e 2 9c 48 7f
        e 1 9c 30 7f
        e 12 9c 45 7f
        e 17 9c 43 00
        e 26 9c 30 00
        e 2 9c 2b 00
        e 4 9c 37 00
        e 317 9c 45 00
        e 10 9c 46 7f
        e 4 9c 48 00
        e 4 9c 40 7f
        e 6 9c 2b 7f
        e 1 9c 37 7f
        e 3 9c 30 7f
        e 50 9c 30 00
        e 8 9c 2b 00
        e 17 9c 37 00
        e 207 9c 46 00
        e 6 9c 45 7f
        e 60 9c 45 00
        e 26 9c 45 7f
        e 0 9c 30 7f
        e 0 9c 29 7f
        e 0 9c 35 7f
        e 16 9c 40 00
        e 44 9c 35 00
        e 18 9c 30 00
        e 8 9c 29 00
        e 106 9c 30 7f
        e 0 9c 3c 7f
        e 52 9c 3c 00
        e 1 9c 30 00
        e 43 9c 41 7f
        e 53 9c 41 00
        e 43 9c 45 00
        e 0 9c 45 7f
        e 0 9c 2d 7f
        e 0 9c 39 7f
        e 43 9c 39 00
        e 4 9c 2d 00
        e 19 9c 45 00
        e 30 9c 41 7f
        e 57 9c 41 00
        e 39 9c 45 7f
        e 0 9c 35 7f
        e 0 9c 29 7f
        e 43 9c 35 00
        e 6 9c 29 00
        e 8 9c 45 00
        e 39 9c 4a 7f
        e 70 9c 4a 00
        e 26 9c 3c 7f
        e 0 9c 35 7f
        e 0 9c 30 7f
        e 0 9c 48 7f
        e 77 9c 35 00
        e 7 9c 3c 00
        e 6 9c 30 00
        e 135 9c 48 00
        e 162 9c 45 7f
        e 207 9c 45 00
        e 97 9c 45 7f
        e 45 9c 45 00
        e 31 9c 35 7f
        e 2 9c 30 7f
        e 2 9c 29 7f
        e 2 9c 45 7f
        e 69 9c 30 00
        e 11 9c 35 00
        e 1 9c 29 00
        e 60 9c 41 7f
        e 77 9c 41 00
        e 31 9c 3e 7f
        e 105 9c 3e 00
        e 4 9c 43 7f
        e 18 9c 3c 7f
        e 4 9c 45 00
        e 10 9c 35 7f
        e 10 9c 30 7f
        e 1 9c 29 7f
        e 54 9c 35 00
        e 3 9c 30 00
        e 20 9c 29 00
        e 68 9c 41 7f
        e 11 9c 43 00
        e 171 9c 3c 00
        e 19 9c 46 7f
        e 0 9c 24 7f
        e 3 9c 30 7f
        e 6 9c 41 00
        e 62 9c 30 00
        e 11 9c 24 00
        e 114 9c 43 7f
        e 179 9c 3e 7f
        e 4 9c 45 7f
        e 7 9c 43 00
        e 8 9c 29 7f
        e 2 9c 35 7f
        e 2 9c 30 7f
        e 1 9c 46 00
        e 51 9c 30 00
        e 9 9c 35 00
        e 1 9c 29 00
        e 217 9c 45 00
        e 7 9c 43 7f
        e 59 9c 3e 00
        e 1 9c 43 00
        e 35 9c 43 7f
        e 8 9c 37 7f
        e 8 9c 2b 7f
        e 0 9c 30 7f
        e 31 9c 30 00
        e 13 9c 37 00
        e 8 9c 2b 00
        e 127 9c 2b 7f
        e 1 9c 30 7f
        e 3 9c 37 7f
        e 11 9c 3c 7f
        e 32 9c 37 00
        e 4 9c 30 00
        e 5 9c 2b 00
        e 0 9c 3c 00
        e 37 9c 40 7f
        e 58 9c 40 00
        e 34 9c 43 00
        e 0 9c 43 7f
        e 11 9c 34 7f
        e 1 9c 28 7f
        e 43 9c 34 00
        e 4 9c 28 00
        e 4 9c 43 00
        e 120 9c 45 7f
        e 8 9c 40 7f
        e 9 9c 37 7f
        e 2 9c 30 7f
        e 1 9c 2b 7f
        e 34 9c 40 00
        e 6 9c 37 00
        e 8 9c 30 00
        e 4 9c 43 7f
        e 1 9c 2b 00
        e 15 9c 46 7f
        e 4 9c 45 00
        e 34 9c 43 00
        e 61 9c 46 00
        e 5 9c 3c 7f
        e 0 9c 41 7f
        e 0 9c 48 7f
        e 12 9c 29 7f
        e 5 9c 35 7f
        e 146 9c 35 00
        e 14 9c 29 00
        e 92 9c 3c 00
        e 0 9c 41 00
        e 0 9c 48 00
        e 140 9c 48 7f
        e 171 9c 48 00
        e 99 9c 48 7f
        e 51 9c 48 00
        e 28 9c 41 7f
        e 4 9c 3c 7f
        e 4 9c 48 7f
        e 25 9c 30 7f
        e 2 9c 29 7f
        e 116 9c 30 00
        e 2 9c 29 00
        e 165 9c 3c 00
        e 43 9c 41 00
        e 4 9c 3d 7f
        e 18 9c 2d 7f
        e 3 9c 21 7f
        e 2 9c 45 7f
        e 20 9c 48 00
        e 82 9c 2d 00
        e 24 9c 21 00
        e 129 9c 45 00
        e 27 9c 43 7f
        e 53 9c 3d 00
        e 17 9c 43 00
        e 12 9c 3e 7f
        e 1 9c 39 7f
        e 6 9c 41 7f
        e 11 9c 26 7f
        e 2 9c 32 7f
        e 191 9c 45 7f
        e 19 9c 41 00
        e 34 9c 26 00
        e 42 9c 32 00
        e 27 9c 39 00
        e 33 9c 3e 00
        e 28 9c 3c 7f
        e 2 9c 40 7f
        e 16 9c 30 7f
        e 0 9c 24 7f
        e 10 9c 43 7f
        e 4 9c 45 00
        e 43 9c 30 00
        e 11 9c 24 00
        e 77 9c 40 00
        e 12 9c 3c 00
        e 0 9c 3e 7f
        e 2 9c 39 7f
        e 29 9c 2d 7f
        e 6 9c 21 7f
        e 6 9c 43 00
        e 5 9c 45 7f
        e 54 9c 2d 00
        e 15 9c 21 00
        e 12 9c 39 00
        e 64 9c 3e 00
        e 28 9c 45 00
        e 0 9c 29 7f
        e 1 9c 1d 7f
        e 10 9c 41 7f
        e 9 9c 39 7f
        e 1 9c 3c 7f
        e 141 9c 1d 00
        e 7 9c 29 00
        e 169 9c 39 00
        e 23 9c 3a 7f
        e 2 9c 37 7f
        e 16 9c 41 00
        e 1 9c 40 7f
        e 4 9c 30 7f
        e 6 9c 24 7f
        e 8 9c 3c 00
        e 85 9c 37 00
        e 12 9c 3a 00
        e 135 9c 40 00
        e 19 9c 3a 7f
        e 0 9c 40 7f
        e 0 9c 43 7f
        e 33 9c 30 00
        e 31 9c 24 00
        e 36 9c 3a 00
        e 0 9c 40 00
        e 0 9c 43 00
        e 7 9c 35 7f
        e 2 9c 41 7f
        e 1 9c 29 7f
        e 1 9c 39 7f
        e 2 9c 3c 7f
        e 83 9c 39 00
        e 27 9c 3c 00
        e 40 9c 29 00
        e 1 9c 35 00
        e 47 9c 30 7f
        e 4 9c 43 7f
        e 1 9c 24 7f
        e 51 9c 43 00
        e 40 9c 45 7f
        e 51 9c 45 00
        e 19 9c 30 00
        e 7 9c 24 00
        e 5 9c 46 7f
        e 22 9c 41 00
        e 3 9c 26 7f
        e 0 9c 32 7f
        e 38 9c 46 00
        e 27 9c 48 7f
        e 55 9c 48 00
        e 31 9c 32 00
        e 4 9c 4a 7f
        e 8 9c 26 00
        e 20 9c 28 7f
        e 0 9c 34 7f
        e 25 9c 4a 00
        e 40 9c 4c 7f
        e 31 9c 3c 7f
        e 32 9c 4c 00
        e 28 9c 3c 00
        e 5 9c 45 7f
        e 1 9c 41 7f
        e 2 9c 34 00
        e 4 9c 28 00
        e 3 9c 4d 7f
        e 23 9c 35 7f
        e 1 9c 29 7f
        e 283 9c 41 00
        e 1 9c 29 00
        e 18 9c 35 00
        e 21 9c 4d 00
        e 8 9c 45 00
        e 30 9c 4d 7f
        e 1 9c 32 7f
        e 5 9c 26 7f
        e 6 9c 41 7f
        e 3 9c 3e 7f
        e 3 9c 39 7f
        e 131 9c 26 00
        e 3 9c 32 00
        e 42 9c 41 00
        e 45 9c 3e 00
        e 8 9c 39 00
        e 17 9c 4d 00
        e 13 9c 3c 7f
        e 21 9c 24 7f
        e 4 9c 30 7f
        e 17 9c 48 7f
        e 10 9c 3c 00
        e 15 9c 30 00
        e 8 9c 24 00
        e 20 9c 48 00
        e 0 9c 3e 7f
        e 2 9c 41 7f
        e 2 9c 3a 7f
        e 11 9c 2e 7f
        e 0 9c 22 7f
        e 12 9c 4d 7f
        e 245 9c 3e 00
        e 6 9c 3a 00
        e 51 9c 2e 00
        e 14 9c 41 00
        e 4 9c 4d 00
        e 33 9c 22 00
        e 11 9c 4d 7f
        e 6 9c 3c 7f
        e 2 9c 35 7f
        e 2 9c 29 7f
        e 1 9c 39 7f
        e 21 9c 41 7f
        e 99 9c 4c 7f
        e 7 9c 41 00
        e 12 9c 4d 00
        e 4 9c 40 7f
        e 52 9c 4c 00
        e 26 9c 40 00
        e 9 9c 4d 7f
        e 32 9c 41 7f
        e 9 9c 39 00
        e 8 9c 3c 00
        e 38 9c 29 00
        e 2 9c 35 00
        e 11 9c 4d 00
        e 23 9c 41 00
        e 14 9c 4f 7f
        e 2 9c 30 7f
        e 1 9c 24 7f
        e 22 9c 43 7f
        e 16 9c 40 7f
        e 10 9c 3c 7f
        e 58 9c 30 00
        e 17 9c 24 00
        e 81 9c 37 7f
        e 1 9c 2b 7f
        e 78 9c 2b 00
        e 2 9c 37 00
        e 108 9c 34 7f
        e 1 9c 28 7f
        e 82 9c 34 00
        e 12 9c 28 00
        e 12 9c 3c 00
        e 14 9c 40 00
        e 72 9c 4f 00
        e 0 9c 30 7f
        e 2 9c 24 7f
        e 6 9c 51 7f
        e 8 9c 45 7f
        e 1 9c 40 7f
        e 4 9c 3c 7f
        e 11 9c 43 00
        e 78 9c 30 00
        e 3 9c 3c 00
        e 7 9c 40 00
        e 15 9c 24 00
        e 32 9c 51 00
        e 27 9c 4d 7f
        e 1 9c 45 00
        e 8 9c 41 7f
        e 5 9c 35 7f
        e 2 9c 29 7f
        e 1 9c 3c 7f
        e 3 9c 39 7f
        e 196 9c 29 00
        e 3 9c 35 00
        e 54 9c 4d 00
        e 2 9c 39 00
        e 15 9c 3c 00
        e 40 9c 41 00
        e 98 9c 45 7f
        e 1 9c 51 7f
        e 151 9c 45 00
        e 12 9c 51 00
        e 3 9c 46 7f
        e 2 9c 52 7f
        e 184 9c 46 00
        e 7 9c 35 7f
        e 2 9c 41 7f
        e 2 9c 29 7f
        e 0 9c 45 7f
        e 6 9c 3c 7f
        e 9 9c 48 7f
        e 12 9c 54 7f
        e 20 9c 52 00
        e 259 9c 35 00
        e 2 9c 29 00
        e 4 9c 3c 00
        e 23 9c 41 00
        e 3 9c 48 00
        e 8 9c 45 00
        e 18 9c 54 00
        e 5 9c 51 7f
        e 6 9c 45 7f
        e 11 9c 39 7f
        e 0 9c 2d 7f
        e 14 9c 3d 7f
        e 256 9c 43 7f
        e 9 9c 4f 7f
        e 6 9c 39 00
        e 4 9c 45 00
        e 8 9c 2d 00
        e 7 9c 51 00
        e 36 9c 4f 00
        e 2 9c 3d 00
        e 23 9c 41 7f
        e 5 9c 4d 7f
        e 1 9c 29 7f
        e 1 9c 35 7f
        e 6 9c 43 00
        e 3 9c 3e 7f
        e 6 9c 39 7f
        e 158 9c 45 7f
        e 13 9c 51 7f
        e 20 9c 41 00
        e 2 9c 4d 00
        e 68 9c 39 00
        e 26 9c 45 00
        e 11 9c 3e 00
        e 4 9c 29 00
        e 3 9c 35 00
        e 12 9c 51 00
        e 25 9c 43 7f
        e 5 9c 40 7f
        e 3 9c 4f 7f
        e 1 9c 3c 7f
        e 22 9c 24 7f
        e 1 9c 30 7f
        e 82 9c 40 00
        e 6 9c 3c 00
        e 43 9c 4f 00
        e 2 9c 43 00
        e 12 9c 30 00
        e 1 9c 45 7f
        e 6 9c 24 00
        e 6 9c 51 7f
        e 9 9c 39 7f
        e 2 9c 3e 7f
        e 12 9c 2d 7f
        e 4 9c 21 7f
        e 89 9c 39 00
        e 4 9c 3e 00
        e 66 9c 21 00
        e 1 9c 2d 00
        e 10 9c 45 00
        e 4 9c 51 00
        e 0 9c 39 7f
        e 3 9c 3c 7f
        e 3 9c 41 7f
        e 12 9c 4d 7f
        e 7 9c 29 7f
        e 3 9c 1d 7f
        e 230 9c 39 00
        e 10 9c 3c 00
        e 76 9c 29 00
        e 3 9c 1d 00
        e 62 9c 4c 7f
        e 1 9c 40 7f
        e 0 9c 30 7f
        e 1 9c 4d 00
        e 2 9c 24 7f
        e 4 9c 41 00
        e 4 9c 3a 7f
        e 1 9c 37 7f
        e 193 9c 37 00
        e 7 9c 3a 00
        e 33 9c 4c 00
        e 51 9c 40 00
        e 17 9c 43 7f
        e 2 9c 4f 7f
        e 6 9c 3a 7f
        e 1 9c 30 00
        e 4 9c 40 7f
        e 10 9c 24 00
        e 54 9c 3a 00
        e 22 9c 4f 00
        e 3 9c 43 00
        e 6 9c 40 00
        e 18 9c 4d 7f
        e 2 9c 29 7f
        e 3 9c 35 7f
        e 2 9c 41 7f
        e 3 9c 39 7f
        e 1 9c 3c 7f
        e 350 9c 4d 00
        e 7 9c 3c 00
        e 14 9c 29 00
        e 3 9c 35 00
        e 1 9c 39 00
        e 2 9c 41 00
        E 341 b0 7b 00
        GUID {1729026B-0FE9-9F4C-89F3-6574ED535013}
        IGNTEMPO 0 120 4 4
        SRCCOLOR 593
        VELLANE -1 86 6
        CFGEDITVIEW 0 22.530612 43 12 0 0 0 0 0 0.5
        KEYSNAP 0
        TRACKSEL 226
        EVTFILTER 0 -1 -1 -1 -1 0 0 0 0 -1 -1 -1 -1 0 -1 0 -1 -1
        CFGEDIT 1 1 0 0 0 0 1 0 1 1 1 0.25 0 187 878 778 0 0 2 3 0 0 0 0 0 -1 0 0 1 64
      >
    >
  >
  <TRACK {F23F8223-271A-294D-A229-F474D58B7A97}
    NAME "vst Gladiator"
    PEAKCOL 27222112
    BEAT -1
    AUTOMODE 0
    VOLPAN 1 0 -1 -1 1
    MUTESOLO 0 0 0
    IPHASE 0
    ISBUS 0 0
    BUSCOMP 2 0
    SHOWINMIX 1 0.6667 0.381818 1 0.5 0 0 0
    FREEMODE 0
    SEL 0
    REC 0 0 0 0 0 0 0
    VU 2
    TRACKHEIGHT 0 0
    INQ 0 0 0 0.5 100 0 0 100
    NCHAN 2
    FX 1
    TRACKID {F23F8223-271A-294D-A229-F474D58B7A97}
    PERF 0
    MIDIOUT -1
    MAINSEND 1 0
    <FXCHAIN
      WNDRECT 528 36 724 387
      SHOW 0
      LASTSEL 0
      DOCKED 0
      BYPASS 1 0 0
      <VST "VST: 8-Bit Shaper (Xfer Records)" 8BitShaper.vst 0 "" 1148539762
        clN1RO5e7f4CAAAAAQAAAAAAAAACAAAAAAAAAAIAAAABAAAAAAAAAAIAAAAAAAAANAIAAAEAAAAAABAA
        ZmaGP20MlT7dQQw/AAAAP+4DAAAAAIA/AAAAAADAgEAXAAAAMAAAABkAAAAaAAAAGgAAABoAAAAbAAAAGwAAABwAAAAcAAAAHAAAAB0AAAAdAAAAHgAAAB4AAAAfAAAA
        HwAAACAAAAAgAAAAIAAAACEAAAAhAAAAIQAAACIAAAAiAAAAIgAAACMAAAAjAAAAIwAAACQAAAAkAAAAJAAAACUAAAAlAAAAKAAAACgAAAApAAAAKQAAACoAAAA1AAAA
        KgAAACoAAAA2AAAAKgAAACoAAAAqAAAAKgAAACoAAAAqAAAAKgAAACsAAAArAAAAOQAAAC0AAAA0AAAAOgAAAC0AAAAtAAAAPAAAAC4AAAAuAAAALwAAADAAAAAwAAAA
        MQAAADEAAAAxAAAAMgAAADMAAAAzAAAAMwAAADcAAAA3AAAANwAAADgAAAA4AAAAOAAAADkAAAA5AAAAOQAAADoAAAA6AAAAOgAAADoAAAA6AAAAOwAAADsAAAA7AAAA
        PAAAADsAAAA7AAAAOwAAADwAAAA8AAAAPAAAADwAAAA9AAAAPQAAAD0AAAA9AAAAPQAAAD4AAAA+AAAAPwAAAEkAAABAAAAAQAAAAEgAAABAAAAAQQAAAEIAAABCAAAA
        QgAAAEMAAABDAAAAQwAAAEQAAABEAAAARQAAAE0AAABGAAAARwAAAEYAAABHAAAASAAAAEgAAABJAAAATwAAAAAAgD+rqqo+q6qqPh0Fwz6OAm0/
        AEluaXQgMQAQAAAA
      >
      PRESETNAME "Init 1"
      FLOATPOS 0 0 0 0
      FXID {9514B2DC-3C2E-9240-BEF6-0C72EF11EB6D}
      WAK 0
      BYPASS 0 0 0
      <VST "VSTi: Gladiator (x86) (Tone2.com)" Gladiator.vst 0 "" 1412581196
        TEcyVO5e7f4AAAAAAgAAAAEAAAAAAAAAAgAAAAAAAABaBAAAAQAAAAAAEAA=
        Q2NuSwAAAGBGeENrAAAAAVQyR0wAAAABAAABB0luaXQAAAAAAAAAAAAAAAAAAAAAAAAAAAAAAAA9zMzNPMzMzTw0OVg9uFH0PXnbIz+AAAA7xJumPb52yT+AAAA7xJum
        AAAAAD6euFIAAAAAP4AAAD8AAAA/AAAAPwAAAAAAAAA9ffO2PdDlYDy8an8/RR64AAAAAD+AAAA8NDlYPZFocz71wo87RJumPhR64D4KPXE89cKQP4AAAD7o9cM/AAAA
        PwAAAAAAAAAAAAAAPwAAAD8AAAA/AAAAPtmZmj8AAAAAAAAAO+VgQj2ZmZk7gxJvPoqx7DtEm6Y+1wo6PUzMzD88KPY/L1wpAAAAAAAAAAA/MKPYP3MzMz8HrhQ+pmZm
        PwAAAAAAAAAAAAAAPwAAAAAAAAA+LhR5P09cKT9mZmYAAAAAPtmZ/T8AAAA/AAAAPwAAAD8AAAAAAAAAPwAAAD8AAAA/AAAAAAAAAD8AAAA/AAAAPwAAAAAAAAA7gxJv
        AAAAAAAAAAA/gAAAAAAAADuDEm8++uFHPseuFAAAAAAAAAAAPwAAAAAAAAA/gAAAAAAAAD+AAAAAAAAAPwAAAD8AAAA/AAAAPwAAAD8AAAA/AAAAPwAAAD8AAAA/AAAA
        PwAAAD8AAAA/EeuGPKPXCjqDEm88RJumAAAAAAAAAAAAAAAAPLxqfwAAAAAAAAAAAAAAAAAAAAAAAAAAAAAAAAAAAAAAAAAAAAAAAAAAAAAAAAAAAAAAAAAAAAAAAAAA
        AAAAAAAAAAA8E3S8AAAAADw0OVgAAAAAPBN0vAAAAAA8NDlYAAAAADwTdLwAAAAAPDQ5WAAAAAA8E3S8AAAAADw0OVgAAAAAPGVgQj2HKwI7AxJvPYcrAjtEm6Y7AxJv
        PLQ5WDyLQ5Y7AxJvOwMSbz0PXCk8zMzNPwAAAD8AAAA/CwjUPlPcsT9jT3M/AAAAAAAAADqDEm87o9cLAAAAAAAAAAAAAAAAPwAAADqDEm87RJumP4AAAAAAAAAAAAAA
        AAAAAAAAAAAAAAAAAAAAAAAAAAAAAAAAP4AAAAAAAAA/AAAAAAAAAD8AAAA/AAAAPwAAAD+AAAA/AAAAPwAAAD8AAAA/gAAAP4AAAAAAAAAAAAAAAAAAAD8AAAA+5mZm
        PwAAAD8KPXE+lHrhP4AAAAAAAAA94UewP4AAAD8j1wo/gAAAAAAAAAAAAAA/gAAAPwAAAAAAAAAAAAAAAAAAAAAAAAAAAAAAAAAAAAAAAAAAAAAAAAAAAAAAAAAAAAAA
        AAAAAD8AAAA/AAAAPwAAAD8AAAA/AAAAPwAAAAAAAAAAAAAAP4AAAAAAAAAAAAAAAAAAAAAAAAAAAAAAAAAAAAAAAAAAAAAAAAAAAAAAAAAAAAAAAAAAAAAAAAAAAAAA
        AAAAAAAAAAAAAAAAAAAAAAAAAAAAAAAAAAAAAAAAAAAAAAAAAAAAAAAAAAAAAAAAAAAAAAAAqqusrQ==
        AEluaXQAEAAAAA==
      >
      PRESETNAME Init
      FLOATPOS 32 36 317 200
      FXID {5CD8FEBD-51C9-2A49-9CE3-A544A6C72CEB}
      WAK 0
    >
  >
  <TRACK {4A6CD977-ADCC-3A4D-927C-BB2CEF4B0809}
    NAME "vst Gladiator"
    PEAKCOL 27222112
    BEAT -1
    AUTOMODE 0
    VOLPAN 0.44455468887274 0 -1 -1 1
    MUTESOLO 0 0 0
    IPHASE 0
    ISBUS 0 0
    BUSCOMP 2 0
    SHOWINMIX 1 0.6667 0.5 1 0.5 0 0 0
    FREEMODE 0
    SEL 0
    REC 0 0 0 0 0 0 0
    VU 2
    TRACKHEIGHT 0 0
    INQ 0 0 0 0.5 100 0 0 100
    NCHAN 2
    FX 1
    TRACKID {4A6CD977-ADCC-3A4D-927C-BB2CEF4B0809}
    PERF 0
    MIDIOUT -1
    MAINSEND 1 0
    <FXCHAIN
      SHOW 0
      LASTSEL 0
      DOCKED 0
      BYPASS 0 0 0
      <VST "VSTi: Gladiator (Tone2.com)" Gladiator.vst 0 "" 1412581196
        TEcyVO5e7f4AAAAAAgAAAAEAAAAAAAAAAgAAAAAAAABaBAAAAQAAAAAAEAA=
        Q2NuSwAAAGBGeENrAAAAAVQyR0wAAAABAAABB0luaXQAAAAAAAAAAAAAAAAAAAAAAAAAAAAAAAA9zMzNPMzMzTw0OVg9uFH0PXnbIz+AAAA7xJumPb52yT+AAAA7xJum
        AAAAAD6mZmY+PXCkP4AAAD7FHrk/AAAAPwAAAAAAAAA9ffO2PdDlYDy8an8/RR64AAAAAD+AAAA8NDlYPZFocz71wo87RJumPbhR6D69cKQ+PXCkP4AAAD8AAAA/A9cL
        PwAAAAAAAAAAAAAAPwAAAD8AAAA/AAAAPtmZmj8AAAAAAAAAO+VgQj24UesAAAAAPk21xDtEm6Y/S4UeAAAAAAAAAAA+64UgPpR64T1hR7A+z1woPx64Uj49cKY/AAAA
        PwAAAAAAAAAAAAAAPwAAAAAAAAAAAAAAP4AAAD+AAAAAAAAAPxHrhT8AAAA/AAAAPwAAAD8AAAAAAAAAPwAAAD8AAAA/AAAAAAAAAD8AAAA/AAAAPwAAAAAAAAA6gxJv
        P1Cj1wAAAAA/gAAAAAAAADqDEm8/AAAAAAAAAAAAAAAAAAAAPwAAAAAAAAA/gAAAAAAAAD+AAAAAAAAAPwAAAD8AAAA/AAAAPwAAAD8AAAA/AAAAPwAAAD8AAAA/AAAA
        PwAAAD8AAAA/EeuGPKPXCjqDEm88RJumAAAAAAAAAAAAAAAAPLxqfwAAAAAAAAAAAAAAAAAAAAAAAAAAAAAAAAAAAAAAAAAAAAAAAAAAAAAAAAAAAAAAAAAAAAAAAAAA
        AAAAAAAAAAA8E3S8AAAAADw0OVgAAAAAPBN0vAAAAAA8NDlYAAAAADwTdLwAAAAAPDQ5WAAAAAA8E3S8AAAAADw0OVgAAAAAPGVgQj2HKwI8ZWBCOwMSbz2JN0w7AxJv
        PLQ5WDyLQ5Y8k3S8PVT99D0XjVA8zMzNPoAAAD9ywjU/AAAAP1GnuT8wjT4/HLCNAAAAADsDEm86gxJvAAAAAAAAAAAAAAAAPwAAADqDEm87RJumP4AAAAAAAAA/gAAA
        AAAAAD+AAAAAAAAAAAAAAAAAAAAAAAAAP4AAAAAAAAA/AAAAAAAAAD8AAAA/BR64PwAAAD+AAAA/AAAAPwAAAD8AAAA/gAAAP4AAAAAAAAAAAAAAAAAAAD8AAAA/gAAA
        PwAAAAAAAAA+vXCkAAAAAAAAAAA/gAAAP4AAAD8j1wo/gAAAAAAAAAAAAAA/gAAAPwAAAAAAAAAAAAAAAAAAAAAAAAAAAAAAAAAAAAAAAAAAAAAAAAAAAAAAAAAAAAAA
        AAAAAD8AAAA/AAAAPwAAAD8AAAA/AAAAPwAAAAAAAAAAAAAAP4AAAAAAAAAAAAAAAAAAAAAAAAAAAAAAAAAAAAAAAAAAAAAAAAAAAAAAAAAAAAAAAAAAAAAAAAAAAAAA
        AAAAAAAAAAAAAAAAAAAAAAAAAAAAAAAAAAAAAAAAAAAAAAAAAAAAAAAAAAAAAAAAAAAAAAAAqqusrQ==
        AEluaXQAEAAAAA==
      >
      PRESETNAME Init
      FLOATPOS 500 379 987 799
      FXID {532372E3-5B0D-9345-A9C8-98A8EBAF9A7E}
      WAK 0
    >
  >
  <TRACK {9E2CAE92-CCC1-1F4A-BCF6-93DCFE473BDF}
    NAME "16th pulse (mix w/ send?)"
    PEAKCOL 16576
    BEAT -1
    AUTOMODE 0
    VOLPAN 0.37674044783442 0 -1 -1 1
    MUTESOLO 0 0 0
    IPHASE 0
    ISBUS 0 0
    BUSCOMP 0 0
    SHOWINMIX 1 0.6667 0.5 1 0.5 0 0 0
    FREEMODE 0
    SEL 0
    REC 0 0 0 0 0 0 0
    VU 2
    TRACKHEIGHT 127 0
    INQ 0 0 0 0.5 100 0 0 100
    NCHAN 2
    FX 1
    TRACKID {9E2CAE92-CCC1-1F4A-BCF6-93DCFE473BDF}
    PERF 0
    MIDIOUT -1
    MAINSEND 1 0
    <FXCHAIN
      WNDRECT 36 359 724 387
      SHOW 0
      LASTSEL 0
      DOCKED 0
      BYPASS 0 0 0
      <VST "VSTi: BlueARP.x64 (graywolf2004)" BlueARP.x64.vst 0 "" 929322872
        eFdkN+5e7f4AAAAAAgAAAAEAAAAAAAAAAgAAAAAAAAAODwEAAQAAAAAAEAA=
        YmJuawYPAQBmaXhwFAAAABAAAQEBAAAAAAII/wUAAAAAAAAAZnBncCIAAAAPCCAEAAEAfwB/AUAAAQABDQAAAAAAAAAAfwAAAAAAAAAAY2hucAQAAAAA////Y2hucwgA
        AAAPDg4O/////2NobnAEAAAAAP///2NobnMIAAAAFv////////9jaG5wBAAAAAD///9jaG5zCAAAABL/////////Y2hucAQAAAAA////Y2hucwgAAAAICAkJ/////2No
        bnAEAAAAAP///2NobnMIAAAANf////////9jaG5wBAAAAAD///9jaG5zCAAAAD0+////////Y2hucAQAAAAA////Y2hucwgAAAAgICAh/////2NobnAEAAAAAP///2No
        bnMIAAAAGhr///////9jaG5wBAAAAAD///9jaG5zCAAAAP//////////Y2hucAQAAAAA////Y2hucwgAAAD//////////2NobnAEAAAAAP///2NobnMIAAAA////////
        //9jaG5wBAAAAAD///9jaG5zCAAAAP//////////Y2hucAQAAAAA////Y2hucwgAAAD//////////2NobnAEAAAAAP///2NobnMIAAAA//////////9jaG5wBAAAAAD/
        //9jaG5zCAAAAP//////////Y2hucAQAAAAA////Y2hucwgAAAD//////////3Byb2cSAgAAcHJncCIAAAAQCCAEAQEAfwB/AUAAAQABDQAAAAAAAAAAfwAAAAAAAAAA
        cGdubTAAAAAtIEluaXRpYWwgcHJvZ3JhbSAtAP9/AAAETKkTAQAAAfQg1xUBAAAAAAABADABAABzdHAwQAAAAAAAAAAAAAAAAAAAAAAAAAAAAAAAAAAAAAAAAAAAAAAA
        AAAAAAAAAAAAAAAAAAAAAAAAAAAAAAAAAAAAAAAAAABzdHAxQAAAAAgICAgICAgICAgICAgICAgICAgICAgICAgICAgICAgICAgICAgICAgICAgICAgICAgICAgICAgI
        CAgICAgICAhzdHAyQAAAAAIBAQMBAQEBAQEBAQEBAQEBAQEBAQEBAQEBAQEBAQEBAQEBAQEBAQEBAQEBAQEBAQEBAQEBAQEBAQEBAQEBAQFzdHAzQAAAAAQIECAECBAg
        BAQEBAQEBAQEBAQEBAQEBAQEBAQEBAQEBAQEBAQEBAQEBAQEBAQEBAQEBAQEBAQEBAQEBAQEBARzdHA0QAAAAGBgYGBgYGBgYGBgYGBgYGBgYGBgYGBgYGBgYGBgYGBg
        YGBgYGBgYGBgYGBgYGBgYGBgYGBgYGBgYGBgYGBgYGBzdHA1QAAAAAAAAAAAAAAAAAAAAAAAAAAAAAAAAAAAAAAAAAAAAAAAAAAAAAAAAAAAAAAAAAAAAAAAAAAAAAAA
        AAAAAAAAAABwcm9nEgIAAHByZ3AiAAAAEBAyBAEDAH8AfwBAAAEAAQAAAAAAAAAAAH8AAAAAAAAAAHBnbm0wAAAAU2ltcGxlIDRrIFVwAAAAAFA5vl//fwAAsPioEwEA
        AADEOb5f/38AAPQg1xUBAAAAc3RwMEAAAAAAAAAAAAAAAAAAAAAAAAAAAAAAAAAAAAAAAAAAAAAAAAAAAAAAAAAAAAAAAAAAAAAAAAAAAAAAAAAAAAAAAAAAc3RwMUAA
        AAAICAgICAgICAgICAgICAgICAgICAgICAgICAgICAgICAgICAgICAgICAgICAgICAgICAgICAgICAgICAgICAgIc3RwMkAAAAABAQEBAQEBAQEBAQEBAQEBAQEBAQEB
        AQEBAQEBAQEBAQEBAQEBAQEBAQEBAQEBAQEBAQEBAQEBAQEBAQEBAQEBc3RwM0AAAAAECBAgBAgQIAQIECAECBAgBAQEBAQEBAQEBAQEBAQEBAQEBAQEBAQEBAQEBAQE
        BAQEBAQEBAQEBAQEBAQEBAQEc3RwNEAAAABgYGBgYGBgYGBgYGBgYGBgYGBgYGBgYGBgYGBgYGBgYGBgYGBgYGBgYGBgYGBgYGBgYGBgYGBgYGBgYGBgYGBgc3RwNUAA
        AAAAAAAAAAAAAAAAAAAAAAAAAAAAAAAAAAAAAAAAAAAAAAAAAAAAAAAAAAAAAAAAAAAAAAAAAAAAAAAAAAAAAAAAcHJvZxICAABwcmdwIgAAABAQMgQBAwB/AH8AQAAB
        AAEAAAAAAAAAAAB/AAAAAAAAAABwZ25tMAAAAFNpbXBsZSA0ayBEb3duAABQOb5f/38AALD4qBMBAAAAxDm+X/9/AAD0INcVAQAAAHN0cDBAAAAAAAAAAAAAAAAAAAAA
        AAAAAAAAAAAAAAAAAAAAAAAAAAAAAAAAAAAAAAAAAAAAAAAAAAAAAAAAAAAAAAAAAAAAAHN0cDFAAAAACAgICAgICAgICAgICAgICAgICAgICAgICAgICAgICAgICAgI
        CAgICAgICAgICAgICAgICAgICAgICAgICAgICHN0cDJAAAAAAQEBAQEBAQEBAQEBAQEBAQEBAQEBAQEBAQEBAQEBAQEBAQEBAQEBAQEBAQEBAQEBAQEBAQEBAQEBAQEB
        AQEBAXN0cDNAAAAAIBAIBCAQCAQgEAgEIBAIBAQEBAQEBAQEBAQEBAQEBAQEBAQEBAQEBAQEBAQEBAQEBAQEBAQEBAQEBAQEBAQEBHN0cDRAAAAAYGBgYGBgYGBgYGBg
        YGBgYGBgYGBgYGBgYGBgYGBgYGBgYGBgYGBgYGBgYGBgYGBgYGBgYGBgYGBgYGBgYGBgYHN0cDVAAAAAAAAAAAAAAAAAAAAAAAAAAAAAAAAAAAAAAAAAAAAAAAAAAAAA
        AAAAAAAAAAAAAAAAAAAAAAAAAAAAAAAAAAAAAHByb2cSAgAAcHJncCIAAAAQEDIEAQMAfwB/AEAAAQABAAAAAAAAAAAAfwAAAAAAAAAAcGdubTAAAABTaW1wbGUgM2sg
        VXAAAAAAUDm+X/9/AACw+KgTAQAAAMQ5vl//fwAA9CDXFQEAAABzdHAwQAAAAAAAAAAAAAAAAAAAAAAAAAAAAAAAAAAAAAAAAAAAAAAAAAAAAAAAAAAAAAAAAAAAAAAA
        AAAAAAAAAAAAAAAAAABzdHAxQAAAAAgICAgICAgICAgICAgICAgICAgICAgICAgICAgICAgICAgICAgICAgICAgICAgICAgICAgICAgICAgICAgICAhzdHAyQAAAAAEB
        AQEBAQEBAQEBAQEBAQEBAQEBAQEBAQEBAQEBAQEBAQEBAQEBAQEBAQEBAQEBAQEBAQEBAQEBAQEBAQEBAQFzdHAzQAAAAAQIEAQIEAQIEAQIEAQIEAgEBAQEBAQEBAQE
        BAQEBAQEBAQEBAQEBAQEBAQEBAQEBAQEBAQEBAQEBAQEBAQEBARzdHA0QAAAAGBgYGBgYGBgYGBgYGBgYGBgYGBgYGBgYGBgYGBgYGBgYGBgYGBgYGBgYGBgYGBgYGBg
        YGBgYGBgYGBgYGBgYGBzdHA1QAAAAAAAAAAAAAAAAAAAAAAAAAAAAAAAAAAAAAAAAAAAAAAAAAAAAAAAAAAAAAAAAAAAAAAAAAAAAAAAAAAAAAAAAABwcm9nEgIAAHBy
        Z3AiAAAAEBAyBAEDAH8AfwBAAAEAAQAAAAAAAAAAAH8AAAAAAAAAAHBnbm0wAAAAU2ltcGxlIDNrIERvd24AAFA5vl//fwAAsPioEwEAAADEOb5f/38AAPQg1xUBAAAA
        c3RwMEAAAAAAAAAAAAAAAAAAAAAAAAAAAAAAAAAAAAAAAAAAAAAAAAAAAAAAAAAAAAAAAAAAAAAAAAAAAAAAAAAAAAAAAAAAc3RwMUAAAAAICAgICAgICAgICAgICAgI
        CAgICAgICAgICAgICAgICAgICAgICAgICAgICAgICAgICAgICAgICAgICAgICAgIc3RwMkAAAAABAQEBAQEBAQEBAQEBAQEBAQEBAQEBAQEBAQEBAQEBAQEBAQEBAQEB
        AQEBAQEBAQEBAQEBAQEBAQEBAQEBAQEBc3RwM0AAAAAQCAQQCAQQCAQQCAQQCAQIBAQEBAQEBAQEBAQEBAQEBAQEBAQEBAQEBAQEBAQEBAQEBAQEBAQEBAQEBAQEBAQE
        c3RwNEAAAABgYGBgYGBgYGBgYGBgYGBgYGBgYGBgYGBgYGBgYGBgYGBgYGBgYGBgYGBgYGBgYGBgYGBgYGBgYGBgYGBgYGBgc3RwNUAAAAAAAAAAAAAAAAAAAAAAAAAA
        AAAAAAAAAAAAAAAAAAAAAAAAAAAAAAAAAAAAAAAAAAAAAAAAAAAAAAAAAAAAAAAAcHJvZxICAABwcmdwIgAAABAIWgQBAQB/AH8AQAABAAEAAAAAAAAAAAB/AAAAAAAA
        AABwZ25tMAAAAENob3JkIERlYWRtYXU1IHBsdWNrcyB2YXIxABMBAAAAxDm+X/9/AAD0INcVAQAAAHN0cDBAAAAAAAAAAAAAAAAAAAAAAAAAAAAAAAAAAAAAAAAAAAAA
        AAAAAAAAAAAAAAAAAAAAAAAAAAAAAAAAAAAAAAAAAAAAAHN0cDFAAAAACAgECAgIBAgICAgICAgICAgICAgICAgICAgICAgICAgICAgICAgICAgICAgICAgICAgICAgI
        CAgICAgICAgICHN0cDJAAAAABAAEAAQABAABAQEBAQEBAQEBAQEBAQEBAQEBAQEBAQEBAQEBAQEBAQEBAQEBAQEBAQEBAQEBAQEBAQEBAQEBAXN0cDNAAAAABAQEBAQE
        BAQEBAQEBAQEBAQEBAQEBAQEBAQEBAQEBAQEBAQEBAQEBAQEBAQEBAQEBAQEBAQEBAQEBAQEBAQEBHN0cDRAAAAAMGBgYDBgYGBgYGBgYGBgYGBgYGBgYGBgYGBgYGBg
        YGBgYGBgYGBgYGBgYGBgYGBgYGBgYGBgYGBgYGBgYGBgYHN0cDVAAAAAAAAAAAAAAAAAAAAAAAAAAAAAAAAAAAAAAAAAAAAAAAAAAAAAAAAAAAAAAAAAAAAAAAAAAAAA
        AAAAAAAAAAAAAHByb2cSAgAAcHJncCIAAAAQCFoEAQEAfwB/AEAAAQABAAAAAAAAAAAAfwEAAAAAAAAAcGdubTAAAABDaG9yZCBEZWFkbWF1NSBwbHVja3MgdmFyMgAT
        AQAAAMQ5vl//fwAA9CDXFQEAAABzdHAwQAAAAAAAAAAAAAAAAAAAAAAAAAAAAAAAAAAAAAAAAAAAAAAAAAAAAAAAAAAAAAAAAAAAAAAAAAAAAAAAAAAAAAAAAABzdHAx
        QAAAAAwIDggMCA4ICAgICAgICAgICAgICAgICAgICAgICAgICAgICAgICAgICAgICAgICAgICAgICAgICAgICAgICAhzdHAyQAAAAAQABAAEAAQAAQEBAQEBAQEBAQEB
        AQEBAQEBAQEBAQEBAQEBAQEBAQEBAQEBAQEBAQEBAQEBAQEBAQEBAQEBAQFzdHAzQAAAAAQEBAQEBAQEBAQEBAQEBAQEBAQEBAQEBAQEBAQEBAQEBAQEBAQEBAQEBAQE
        BAQEBAQEBAQEBAQEBAQEBAQEBARzdHA0QAAAADBgYGAwYGBgYGBgYGBgYGBgYGBgYGBgYGBgYGBgYGBgYGBgYGBgYGBgYGBgYGBgYGBgYGBgYGBgYGBgYGBgYGBzdHA1
        QAAAAAAAAAAAAAAAAAAAAAAAAAAAAAAAAAAAAAAAAAAAAAAAAAAAAAAAAAAAAAAAAAAAAAAAAAAAAAAAAAAAAAAAAABwcm9nEgIAAHByZ3AiAAAAEBBKBAEBAH8AfwBA
        AAEAAQAAAAAAAAAAAH8BAAAAAAAAAHBnbm0wAAAAUG9seXBob25pYyBvY3QuIFBsdWNrcyB2YXIxAAEAAADEOb5f/38AAPQg1xUBAAAAc3RwMEAAAAAAAAAAAAAAAAAA
        AAAAAAAAAAAAAAAAAAAAAAAAAAAAAAAAAAAAAAAAAAAAAAAAAAAAAAAAAAAAAAAAAAAAAAAAc3RwMUAAAAAICAgMCAgICAgMCAgICAwICAgICAgICAgICAgICAgICAgI
        CAgICAgICAgICAgICAgICAgICAgICAgICAgICAgIc3RwMkAAAAAEAAAEAAAEAAAEAAAEAAQAAQEBAQEBAQEBAQEBAQEBAQEBAQEBAQEBAQEBAQEBAQEBAQEBAQEBAQEB
        AQEBAQEBc3RwM0AAAAAEBAQEBAQEBAQEBAQEBAQEBAQEBAQEBAQEBAQEBAQEBAQEBAQEBAQEBAQEBAQEBAQEBAQEBAQEBAQEBAQEBAQEc3RwNEAAAABgYGBgYGBgYGBg
        YGBgYGBgYGBgYGBgYGBgYGBgYGBgYGBgYGBgYGBgYGBgYGBgYGBgYGBgYGBgYGBgYGBgYGBgc3RwNUAAAAAAAAAAAAAAAAAAAAAAAAAAAAAAAAAAAAAAAAAAAAAAAAAA
        AAAAAAAAAAAAAAAAAAAAAAAAAAAAAAAAAAAAAAAAcHJvZxICAABwcmdwIgAAABAQSgQBAQB/AH8AQAABAAEAAAAAAAAAAAB/AQAAAAAAAABwZ25tMAAAAFBvbHlwaG9u
        aWMgb2N0LiBQbHVja3MgdmFyMgABAAAAxDm+X/9/AAD0INcVAQAAAHN0cDBAAAAAAAAAAAAAAAAAAAAAAAAAAAAAAAAAAAAAAAAAAAAAAAAAAAAAAAAAAAAAAAAAAAAA
        AAAAAAAAAAAAAAAAAAAAAHN0cDFAAAAADAgIDggIDAgIDggIDAgOCAgICAgICAgICAgICAgICAgICAgICAgICAgICAgICAgICAgICAgICAgICAgICAgICHN0cDJAAAAA
        BAAABAAABAAABAAABAAEAAEBAQEBAQEBAQEBAQEBAQEBAQEBAQEBAQEBAQEBAQEBAQEBAQEBAQEBAQEBAQEBAXN0cDNAAAAABAQEBAQEBAQEBAQEBAQEBAQEBAQEBAQE
        BAQEBAQEBAQEBAQEBAQEBAQEBAQEBAQEBAQEBAQEBAQEBAQEBAQEBHN0cDRAAAAAYGBgYGBgYGBgYGBgYGBgYGBgYGBgYGBgYGBgYGBgYGBgYGBgYGBgYGBgYGBgYGBg
        YGBgYGBgYGBgYGBgYGBgYHN0cDVAAAAAAAAAAAAAAAAAAAAAAAAAAAAAAAAAAAAAAAAAAAAAAAAAAAAAAAAAAAAAAAAAAAAAAAAAAAAAAAAAAAAAAAAAAHByb2cSAgAA
        cHJncCIAAAAQEDQEAQEAfwB/AEAAAQABAAAAAAAAAAAAfwEAAAAAAAAAcGdubTAAAABQb2x5cGhvbmljIG9jdC4gUGx1Y2tzIHZhcjMAAQAAAMQ5vl//fwAA9CDXFQEA
        AABzdHAwQAAAAAAAAAAAAAAAAAAAAAAAAAAAAAAAAAAAAAAAAAAAAAAAAAAAAAAAAAAAAAAAAAAAAAAAAAAAAAAAAAAAAAAAAABzdHAxQAAAAAwICA4ICAwICA4ICAwI
        DggICAgICAgICAgICAgICAgICAgICAgICAgICAgICAgICAgICAgICAgICAgICAgICAhzdHAyQAAAAAQCAgQCAgQCAgQCAgQCBAIBAQEBAQEBAQEBAQEBAQEBAQEBAQEB
        AQEBAQEBAQEBAQEBAQEBAQEBAQEBAQEBAQFzdHAzQAAAAAQEBAQEBAQEBAQEBAQEBAQEBAQEBAQEBAQEBAQEBAQEBAQEBAQEBAQEBAQEBAQEBAQEBAQEBAQEBAQEBAQE
        BARzdHA0QAAAAGBgYGBgYGBgYGBgYGBgYGBgYGBgYGBgYGBgYGBgYGBgYGBgYGBgYGBgYGBgYGBgYGBgYGBgYGBgYGBgYGBgYGBzdHA1QAAAAAAAAAAAAAAAAAAAAAAA
        AAAAAAAAAAAAAAAAAAAAAAAAAAAAAAAAAAAAAAAAAAAAAAAAAAAAAAAAAAAAAAAAAABwcm9nEgIAAHByZ3AiAAAAEBAyBAEBAH8AfwBAAAEAAQAAAAAAAAAAAH8AAAAA
        AAAAAHBnbm0wAAAAQXJwIENob3JkIEdhdGVkIDAxAF//fwAAsPioEwEAAADEOb5f/38AAPQg1xUBAAAAc3RwMEAAAAAAAAAAAAAAAAAAAAAAAAAAAAAAAAAAAAAAAAAA
        AAAAAAAAAAAAAAAAAAAAAAAAAAAAAAAAAAAAAAAAAAAAAAAAc3RwMUAAAAAICAgICAgICAgICAgICAgICAgICAgICAgICAgICAgICAgICAgICAgICAgICAgICAgICAgI
        CAgICAgICAgICAgIc3RwMkAAAAAEBAAEBAAEBAAEBAAEAAQAAQEBAQEBAQEBAQEBAQEBAQEBAQEBAQEBAQEBAQEBAQEBAQEBAQEBAQEBAQEBAQEBc3RwM0AAAAAEBAQE
        BAQEBAQEBAQEBAQEBAQEBAQEBAQEBAQEBAQEBAQEBAQEBAQEBAQEBAQEBAQEBAQEBAQEBAQEBAQEBAQEc3RwNEAAAABgYGBgYGBgYGBgYGBgYGBgYGBgYGBgYGBgYGBg
        YGBgYGBgYGBgYGBgYGBgYGBgYGBgYGBgYGBgYGBgYGBgYGBgc3RwNUAAAAAAAAAAAAAAAAAAAAAAAAAAAAAAAAAAAAAAAAAAAAAAAAAAAAAAAAAAAAAAAAAAAAAAAAAA
        AAAAAAAAAAAAAAAAcHJvZxICAABwcmdwIgAAABAQMgQBAQB/AH8AQAABAAEAAAAAAAAAAAB/AAAAAAAAAABwZ25tMAAAAEFycCBDaG9yZCBHYXRlZCAwMgBf/38AALD4
        qBMBAAAAxDm+X/9/AAD0INcVAQAAAHN0cDBAAAAAAAAAAAAAAAAAAAAAAAAAAAAAAAAAAAAAAAAAAAAAAAAAAAAAAAAAAAAAAAAAAAAAAAAAAAAAAAAAAAAAAAAAAHN0
        cDFAAAAACAgICAgICAgICAgICAgICAgICAgICAgICAgICAgICAgICAgICAgICAgICAgICAgICAgICAgICAgICAgICAgICHN0cDJAAAAABAAEAAQABAAEAAQAAAQABAEB
        AQEBAQEBAQEBAQEBAQEBAQEBAQEBAQEBAQEBAQEBAQEBAQEBAQEBAQEBAQEBAXN0cDNAAAAABAQEBAQEBAQEBAQEBAQEBAQEBAQEBAQEBAQEBAQEBAQEBAQEBAQEBAQE
        BAQEBAQEBAQEBAQEBAQEBAQEBAQEBHN0cDRAAAAAYGBgYGBgYGBgYGBgYGBgYGBgYGBgYGBgYGBgYGBgYGBgYGBgYGBgYGBgYGBgYGBgYGBgYGBgYGBgYGBgYGBgYHN0
        cDVAAAAAAAAAAAAAAAAAAAAAAAAAAAAAAAAAAAAAAAAAAAAAAAAAAAAAAAAAAAAAAAAAAAAAAAAAAAAAAAAAAAAAAAAAAHByb2cSAgAAcHJncCIAAAAQEDIEAQEAfwB/
        AEAAAQABAAAAAAAAAAAAfwAAAAAAAAAAcGdubTAAAABBcnAgQ2hvcmQgR2F0ZWQgMDMAX/9/AACw+KgTAQAAAMQ5vl//fwAA9CDXFQEAAABzdHAwQAAAAAAAAAAAAAAA
        AAAAAAAAAAAAAAAAAAAAAAAAAAAAAAAAAAAAAAAAAAAAAAAAAAAAAAAAAAAAAAAAAAAAAAAAAABzdHAxQAAAAAgICAgICAgICAgICAgICAgICAgICAgICAgICAgICAgI
        CAgICAgICAgICAgICAgICAgICAgICAgICAgICAgICAhzdHAyQAAAAAQEAAQEAAQEAAQEAAQABAABAQEBAQEBAQEBAQEBAQEBAQEBAQEBAQEBAQEBAQEBAQEBAQEBAQEB
        AQEBAQEBAQFzdHAzQAAAAAQEBAQEBAQEBAQEBAQEBAQEBAQEBAQEBAQEBAQEBAQEBAQEBAQEBAQEBAQEBAQEBAQEBAQEBAQEBAQEBAQEBARzdHA0QAAAAGBgYGBgYGBg
        YGBgYGBgYGBgYGBgYGBgYGBgYGBgYGBgYGBgYGBgYGBgYGBgYGBgYGBgYGBgYGBgYGBgYGBgYGBzdHA1QAAAAAAAAAAAAAAAAAAAAAAAAAAAAAAAAAAAAAAAAAAAAAAA
        AAAAAAAAAAAAAAAAAAAAAAAAAAAAAAAAAAAAAAAAAABwcm9nEgIAAHByZ3AiAAAAEBAyBAEDAH8AfwFAAAEAAQAAAAAAAAAAAH8AAAEAAAAAAHBnbm0wAAAAQXJwIDNr
        IFNTYXcgMDEgKFJhbW1zdGVpbikAEwEAAADEOb5f/38AAPQg1xUBAAAAc3RwMEAAAAAAAAAAAAAAAAAAAAAAAAAAAAAAAAAAAAAAAAAAAAAAAAAAAAAAAAAAAAAAAAAA
        AAAAAAAAAAAAAAAAAAAAAAAAc3RwMUAAAAAICAgICAgICAgICAgICAgICAgICAgICAgICAgICAgICAgICAgICAgICAgICAgICAgICAgICAgICAgICAgICAgIc3RwMkAA
        AAABAQEBAQEBAQEBAQEBAQEBAQEBAQEBAQEBAQEBAQEBAQEBAQEBAQEBAQEBAQEBAQEBAQEBAQEBAQEBAQEBAQEBc3RwM0AAAAAQCAQQCAQQCAQQBBAIBBAIBAQEBAQE
        BAQEBAQEBAQEBAQEBAQEBAQEBAQEBAQEBAQEBAQEBAQEBAQEBAQEBAQEc3RwNEAAAABgYGBgYGBgYGBgYGBgYGBgYGBgYGBgYGBgYGBgYGBgYGBgYGBgYGBgYGBgYGBg
        YGBgYGBgYGBgYGBgYGBgYGBgc3RwNUAAAAAAAAAAAAAAAAAAAAAAAAAAAAAAAAAAAAAAAAAAAAAAAAAAAAAAAAAAAAAAAAAAAAAAAAAAAAAAAAAAAAAAAAAAcHJvZxIC
        AABwcmdwIgAAABAIOgQBAgB/AH8AQAABAAEAAAAAAAAAAAB/AAAAAAAAAABwZ25tMAAAAEFycCAzayBTdXBlclNhdyAwMgBf/38AALD4qBMBAAAAxDm+X/9/AAD0INcV
        AQAAAHN0cDBAAAAAAAAAAAAAAAAAAAAAAAAAAAAAAAAAAAAAAAAAAAAAAAAAAAAAAAAAAAAAAAAAAAAAAAAAAAAAAAAAAAAAAAAAAHN0cDFAAAAABAgIBAgIBAgICAgI
        CAgICAgICAgICAgICAgICAgICAgICAgICAgICAgICAgICAgICAgICAgICAgICAgICAgICHN0cDJAAAAAAQABAQEBAQEAAAAAAAAAAAEBAQEBAQEBAQEBAQEBAQEBAQEB
        AQEBAQEBAQEBAQEBAQEBAQEBAQEBAQEBAQEBAXN0cDNAAAAABAQQBAQIBBAEBAQEBAQEBAQEBAQEBAQEBAQEBAQEBAQEBAQEBAQEBAQEBAQEBAQEBAQEBAQEBAQEBAQE
        BAQEBHN0cDRAAAAAYGBgYGBgYGBgYGBgYGBgYGBgYGBgYGBgYGBgYGBgYGBgYGBgYGBgYGBgYGBgYGBgYGBgYGBgYGBgYGBgYGBgYHN0cDVAAAAAAAAAAAAAAAAAAAAA
        AAAAAAAAAAAAAAAAAAAAAAAAAAAAAAAAAAAAAAAAAAAAAAAAAAAAAAAAAAAAAAAAAAAAAHByb2cSAgAAcHJncCIAAAAQCDoEAQIAfwB/AEAAAQABAAAAAAAAAAAAfwAA
        AAAAAAAAcGdubTAAAABBcnAgM2sgU3VwZXJTYXcgMDMAX/9/AACw+KgTAQAAAMQ5vl//fwAA9CDXFQEAAABzdHAwQAAAAAAAAAAAAAAAAAAAAAAAAAAAAAAAAAAAAAAA
        AAAAAAAAAAAAAAAAAAAAAAAAAAAAAAAAAAAAAAAAAAAAAAAAAABzdHAxQAAAAAQICAQIBAgICAgICAgICAgICAgICAgICAgICAgICAgICAgICAgICAgICAgICAgICAgI
        CAgICAgICAgICAgICAhzdHAyQAAAAAEBAQEBAQEBAAAAAAAAAAABAQEBAQEBAQEBAQEBAQEBAQEBAQEBAQEBAQEBAQEBAQEBAQEBAQEBAQEBAQEBAQFzdHAzQAAAAAQQ
        CAQEBAgQBAQEBAQEBAQEBAQEBAQEBAQEBAQEBAQEBAQEBAQEBAQEBAQEBAQEBAQEBAQEBAQEBAQEBAQEBARzdHA0QAAAAGBgYGBgYGBgYGBgYGBgYGBgYGBgYGBgYGBg
        YGBgYGBgYGBgYGBgYGBgYGBgYGBgYGBgYGBgYGBgYGBgYGBgYGBzdHA1QAAAAAAAAAAAAAAAAAAAAAAAAAAAAAAAAAAAAAAAAAAAAAAAAAAAAAAAAAAAAAAAAAAAAAAA
        AAAAAAAAAAAAAAAAAABwcm9nEgIAAHByZ3AiAAAAEBA6BAEDAH8AfwBAAAEAAQAAAAAAAAAAAH8AAAIAAAAAAHBnbm0wAAAAQXJwIDJrIFN1cGVyU2F3IDA0AF//fwAA
        sPioEwEAAADEOb5f/38AAPQg1xUBAAAAc3RwMEAAAAAAAAAAAAAAAAAAAAAAAAABAAAAAAAAAAAAAAAAAAAAAAAAAAAAAAAAAAAAAAAAAAAAAAAAAAAAAAAAAAAAAAAA
        c3RwMUAAAAAICAQIBAgICAgIBAgICAQICAgICAgICAgICAgICAgICAgICAgICAgICAgICAgICAgICAgICAgICAgICAgICAgIc3RwMkAAAAABAgEAAQABAgECAQABAgEB
        AQEBAQEBAQEBAQEBAQEBAQEBAQEBAQEBAQEBAQEBAQEBAQEBAQEBAQEBAQEBAQEBc3RwM0AAAAAEBAQEBAQEBAgEBAQEBAQEBAQEBAQEBAQEBAQEBAQEBAQEBAQEBAQE
        BAQEBAQEBAQEBAQEBAQEBAQEBAQEBAQEc3RwNEAAAABgYGBgYGBgYGBgYGBgYGBgYGBgYGBgYGBgYGBgYGBgYGBgYGBgYGBgYGBgYGBgYGBgYGBgYGBgYGBgYGBgYGBg
        c3RwNUAAAAAAAAAAAAAAAAAAAAAAAAAAAAAAAAAAAAAAAAAAAAAAAAAAAAAAAAAAAAAAAAAAAAAAAAAAAAAAAAAAAAAAAAAAcHJvZxICAABwcmdwIgAAABAQOgQBAgB/
        AH8AQAABAAEAAAAAAAAAAAB/AAACAAAAAABwZ25tMAAAAEFycCAyayBTdXBlclNhdyAwNQBf/38AALD4qBMBAAAAxDm+X/9/AAD0INcVAQAAAHN0cDBAAAAAAAAAAAAA
        AAAAAAAAAAAAAAAAAAAAAAAAAAAAAAAAAAAAAAAAAAAAAAAAAAAAAAAAAAAAAAAAAAAAAAAAAAAAAHN0cDFAAAAACAQICAQICAgIBAgIBAgIBAgICAgICAgICAgICAgI
        CAgICAgICAgICAgICAgICAgICAgICAgICAgICAgICAgICHN0cDJAAAAAAQEBAQEBAQEBAQEBAQEBAQEBAQEBAQEBAQEBAQEBAQEBAQEBAQEBAQEBAQEBAQEBAQEBAQEB
        AQEBAQEBAQEBAXN0cDNAAAAACAQEEAQEEAQIBAQQBAQQBAQEBAQEBAQEBAQEBAQEBAQEBAQEBAQEBAQEBAQEBAQEBAQEBAQEBAQEBAQEBAQEBHN0cDRAAAAAYGBgYGBg
        YGBgYGBgYGBgYGBgYGBgYGBgYGBgYGBgYGBgYGBgYGBgYGBgYGBgYGBgYGBgYGBgYGBgYGBgYGBgYHN0cDVAAAAAAAAAAAAAAAAAAAAAAAAAAAAAAAAAAAAAAAAAAAAA
        AAAAAAAAAAAAAAAAAAAAAAAAAAAAAAAAAAAAAAAAAAAAAHByb2cSAgAAcHJncCIAAAAQBDgEAQEAfwB/AEAAAQABAAAAAAAAAAAAfwAAAAAAAAAAcGdubTAAAABBcnAg
        M2sgQmVuYXNzaSBJbGx1c2lvbgCw+KgTAQAAAMQ5vl//fwAA9CDXFQEAAABzdHAwQAAAAAAAAAAAAAAAAAAAAAAAAAAAAAAAAAAAAAAAAAAAAAAAAAAAAAAAAAAAAAAA
        AAAAAAAAAAAAAAAAAAAAAAAAAABzdHAxQAAAAAgICAgICAgICAgICAgICAgICAgICAgICAgICAgICAgICAgICAgICAgICAgICAgICAgICAgICAgICAgICAgICAhzdHAy
        QAAAAAEBBAEBAQEBAQEBAQEBAQEBAQEBAQEBAQEBAQEBAQEBAQEBAQEBAQEBAQEBAQEBAQEBAQEBAQEBAQEBAQEBAQFzdHAzQAAAAAQIBAgEBAQEBAQEBAQEBAQEBAQE
        BAQEBAQEBAQEBAQEBAQEBAQEBAQEBAQEBAQEBAQEBAQEBAQEBAQEBAQEBARzdHA0QAAAAGBgYGBgYGBgYGBgYGBgYGBgYGBgYGBgYGBgYGBgYGBgYGBgYGBgYGBgYGBg
        YGBgYGBgYGBgYGBgYGBgYGBgYGBzdHA1QAAAAAAAAAAAAAAAAAAAAAAAAAAAAAAAAAAAAAAAAAAAAAAAAAAAAAAAAAAAAAAAAAAAAAAAAAAAAAAAAAAAAAAAAABwcm9n
        EgIAAHByZ3AiAAAAEBAyBAEDAH8AfwBAAAEAAQAAAAAAAAAAAH8AAAAAAAAAAHBnbm0wAAAAQXJwIDRrIFNTYXcgMDcgKFlUIEludHJvKQCoEwEAAADEOb5f/38AAPQg
        1xUBAAAAc3RwMEAAAAAAAAAAAAAAAAAAAAAAAAAAAAAAAAAAAAAAAAAAAAAAAAAAAAAAAAAAAAAAAAAAAAAAAAAAAAAAAAAAAAAAAAAAc3RwMUAAAAAECAgECAgICAQI
        CAQICAQICAgICAgICAgICAgICAgICAgICAgICAgICAgICAgICAgICAgICAgICAgICAgICAgIc3RwMkAAAAABAQEBAQEBAQEBAQEBAQEBAQEBAQEBAQEBAQEBAQEBAQEB
        AQEBAQEBAQEBAQEBAQEBAQEBAQEBAQEBAQEBAQEBc3RwM0AAAAAECBAEEAgQIAQgEAQECAQQBAQEBAQEBAQEBAQEBAQEBAQEBAQEBAQEBAQEBAQEBAQEBAQEBAQEBAQE
        BAQEBAQEc3RwNEAAAABgYGBgYGBgYGBgYGBgYGBgYGBgYGBgYGBgYGBgYGBgYGBgYGBgYGBgYGBgYGBgYGBgYGBgYGBgYGBgYGBgYGBgc3RwNUAAAAAAAAAAAAAAAAAA
        AAAAAAAAAAAAAAAAAAAAAAAAAAAAAAAAAAAAAAAAAAAAAAAAAAAAAAAAAAAAAAAAAAAAAAAAcHJvZxICAABwcmdwIgAAABAgPQQBAwB/AH8AQAABAAEAAAAAAAAAAAB/
        AAAAAAAAAABwZ25tMAAAAEFycCAzayBTU2F3IDA4ICgzMiBzdGVwcykAqBMBAAAAxDm+X/9/AAD0INcVAQAAAHN0cDBAAAAAAAAAAAAAAAAAAAAAAAAAAAAAAAAAAAAA
        AAAAAAAAAAAAAAAAAAAAAAAAAAAAAAAAAAAAAAAAAAAAAAAAAAAAAHN0cDFAAAAACAQIBAgECAQIBAgECAQIBAgECAQIBAgECAQIBAgECAgICAgICAgICAgICAgICAgI
        CAgICAgICAgICAgICAgICHN0cDJAAAAAAQEBAQEBAQEBAQEBAQEBAQEBAQEBAQEBAQEBAQEBAQEBAQEBAQEBAQEBAQEBAQEBAQEBAQEBAQEBAQEBAQEBAXN0cDNAAAAA
        BAQIBBAEBAQIBBAEBAQIBBAEBAQIBBAEBAQIBBAEEAgEBAQEBAQEBAQEBAQEBAQEBAQEBAQEBAQEBAQEBAQEBHN0cDRAAAAAYGBgYGBgYGBgYGBgYGBgYGBgYGBgYGBg
        YGBgYGBgYGBgYGBgYGBgYGBgYGBgYGBgYGBgYGBgYGBgYGBgYGBgYHN0cDVAAAAAAAAAAAAAAAAAAAAAAAAAAAAAAAAAAAAAAAAAAAAAAAAAAAAAAAAAAAAAAAAAAAAA
        AAAAAAAAAAAAAAAAAAAAAHByb2cSAgAAcHJncCIAAAAQEEUEAQIAfwB/AEAAAQABAAAAAAAAAAAAfwAAAAAAAAAAcGdubTAAAABBcnAgMmsgQ29tbXVuaWNhdGlvbiB2
        MQCw+KgTAQAAAMQ5vl//fwAA9CDXFQEAAABzdHAwQAAAAAAAAAAAAAAAAAAAAAAAAAAAAAAAAAAAAAAAAAAAAAAAAAAAAAAAAAAAAAAAAAAAAAAAAAAAAAAAAAAAAAAA
        AABzdHAxQAAAAAQECAQECAQECAQECAQECAQICAgICAgICAgICAgICAgICAgICAgICAgICAgICAgICAgICAgICAgICAgICAgICAhzdHAyQAAAAAEAAQABAQABAQABAQAB
        AQABAQEBAQEBAQEBAQEBAQEBAQEBAQEBAQEBAQEBAQEBAQEBAQEBAQEBAQEBAQEBAQFzdHAzQAAAAAQECAQECAQECAQECAQECAQEBAQEBAQEBAQEBAQEBAQEBAQEBAQE
        BAQEBAQEBAQEBAQEBAQEBAQEBAQEBAQEBARzdHA0QAAAAGBgYGBgYGBgYGBgYGBgYGBgYGBgYGBgYGBgYGBgYGBgYGBgYGBgYGBgYGBgYGBgYGBgYGBgYGBgYGBgYGBg
        YGBzdHA1QAAAAAAAAAAAAAAAAAAAAAAAAAAAAAAAAAAAAAAAAAAAAAAAAAAAAAAAAAAAAAAAAAAAAAAAAAAAAAAAAAAAAAAAAABwcm9nEgIAAHByZ3AiAAAAEBA8BAEC
        AH8AfwBAAAEAAQAAAAAAAAAAAH8AAAAAAAAAAHBnbm0wAAAAQXJwIDJrIENvbW11bmljYXRpb24gdjIAsPioEwEAAADEOb5f/38AAPQg1xUBAAAAc3RwMEAAAAAAAAAA
        AAAAAAAAAAAAAAAAAAAAAAAAAAAAAAAAAAAAAAAAAAAAAAAAAAAAAAAAAAAAAAAAAAAAAAAAAAAAAAAAc3RwMUAAAAACBAgCBAgCBAgCBAgCBAgECAgICAgICAgICAgI
        CAgICAgICAgICAgICAgICAgICAgICAgICAgICAgICAgICAgIc3RwMkAAAAABAQEBAQEBAQEBAQEBAQEBAQEBAQEBAQEBAQEBAQEBAQEBAQEBAQEBAQEBAQEBAQEBAQEB
        AQEBAQEBAQEBAQEBc3RwM0AAAAAEBAgEBAgEBAgEBAgEBAgEBAQEBAQEBAQEBAQEBAQEBAQEBAQEBAQEBAQEBAQEBAQEBAQEBAQEBAQEBAQEBAQEc3RwNEAAAABgYGBg
        YGBgYGBgYGBgYGBgYGBgYGBgYGBgYGBgYGBgYGBgYGBgYGBgYGBgYGBgYGBgYGBgYGBgYGBgYGBgYGBgc3RwNUAAAAAAAAAAAAAAAAAAAAAAAAAAAAAAAAAAAAAAAAAA
        AAAAAAAAAAAAAAAAAAAAAAAAAAAAAAAAAAAAAAAAAAAAAAAAcHJvZxICAABwcmdwIgAAABAQPQQBAQB/AH8AQAABAAEAAAAAAAAAAAB/AAAAAAAAAABwZ25tMAAAAEFy
        cCAyayBTdXBlclNhdyAxMSAoQmVuYXNzaSkAAAAAxDm+X/9/AAD0INcVAQAAAHN0cDBAAAAAAAAAAAAAAAAAAAAAAAAAAAAAAAAAAAAAAAAAAAAAAAAAAAAAAAAAAAAA
        AAAAAAAAAAAAAAAAAAAAAAAAAAAAAHN0cDFAAAAACAIECAIECAQIAgQIBAIIBAgCCAIIAgQIAgQIAggCBAIICAgICAgICAgICAgICAgICAgICAgICAgICAgICAgICHN0
        cDJAAAAAAQEBAQEBAQEBAQEBAQEBAQEBAQEBAQEBAQEBAQEBAQEBAQEBAQEBAQEBAQEBAQEBAQEBAQEBAQEBAQEBAQEBAXN0cDNAAAAACAQEEAQEEAQIBAQQBAQQBAgE
        BBAEBBAEBAQQBAQQBAQEBAQEBAQEBAQEBAQEBAQEBAQEBAQEBAQEBAQEBAQEBHN0cDRAAAAAYGBgYGBgYGBgYGBgYGBgYGBgYGBgYGBgYGBgYGBgYGBgYGBgYGBgYGBg
        YGBgYGBgYGBgYGBgYGBgYGBgYGBgYHN0cDVAAAAAAAAAAAAAAAAAAAAAAAAAAAAAAAAAAAAAAAAAAAAAAAAAAAAAAAAAAAAAAAAAAAAAAAAAAAAAAAAAAAAAAAAAAHBy
        b2cSAgAAcHJncCIAAAAQEDUEAQMAfwB/AEAAAQABAAAAAAAAAAAAfwAAAAAAAAAAcGdubTAAAABBcnAgMmsgU3VwZXJTYXcgMTIAX/9/AACw+KgTAQAAAMQ5vl//fwAA
        9CDXFQEAAABzdHAwQAAAAAAAAAAAAAAAAAAAAAAAAAAAAAAAAAAAAAAAAAAAAAAAAAAAAAAAAAAAAAAAAAAAAAAAAAAAAAAAAAAAAAAAAABzdHAxQAAAAAgCCAIIAgQI
        AgQIAggCBAIICAgICAgICAgICAgICAgICAgICAgICAgICAgICAgICAgICAgICAgICAgICAgICAhzdHAyQAAAAAEBAQEBAQEBAQEBAQEBAQEBAQEBAQEBAQEBAQEBAQEB
        AQEBAQEBAQEBAQEBAQEBAQEBAQEBAQEBAQEBAQEBAQFzdHAzQAAAABAECAQIBAQQBAQIBAgEBAQEBAQEBAQEBAQEBAQEBAQEBAQEBAQEBAQEBAQEBAQEBAQEBAQEBAQE
        BAQEBAQEBARzdHA0QAAAAGBgYGBgYGBgYGBgYGBgYGBgYGBgYGBgYGBgYGBgYGBgYGBgYGBgYGBgYGBgYGBgYGBgYGBgYGBgYGBgYGBgYGBzdHA1QAAAAAAAAAAAAAAA
        AAAAAAAAAAAAAAAAAAAAAAAAAAAAAAAAAAAAAAAAAAAAAAAAAAAAAAAAAAAAAAAAAAAAAAAAAABwcm9nEgIAAHByZ3AiAAAAEBBkBAECAH8AfwBNAAEAAQkAAAAAAAAA
        AH8AAAAAAAAAAHBnbm0wAAAAQXJwIDJrIFN1cGVyU2F3IDEzIChwaHJlYXF1ZSkAAADEOb5f/38AAPQg1xUBAAAAc3RwMEAAAAAAAAAAAAAAAAAAAAAAAAAAAAAAAAAA
        AAAAAAAAAAAAAAAAAAAAAAAAAAAAAAAAAAAAAAAAAAAAAAAAAAAAAAAAc3RwMUAAAAAECAQECAQEBAQIBAQIBAgECAgICAgICAgICAgICAgICAgICAgICAgICAgICAgI
        CAgICAgICAgICAgICAgICAgIc3RwMkAAAAABAQEBAQABAQABAQABAQEBAQEBAQEBAQEBAQEBAQEBAQEBAQEBAQEBAQEBAQEBAQEBAQEBAQEBAQEBAQEBAQEBc3RwM0AA
        AAAECAQgCAQQBAQIBAQIBBAEBAQEBAQEBAQEBAQEBAQEBAQEBAQEBAQEBAQEBAQEBAQEBAQEBAQEBAQEBAQEBAQEc3RwNEAAAABwUEBgUFB/YEBQYGBwYFBwYGBgYGBg
        YGBgYGBgYGBgYGBgYGBgYGBgYGBgYGBgYGBgYGBgYGBgYGBgYGBgYGBgc3RwNUAAAAAAAAAAAAAAAAAAAAAAAAAAAAAAAAAAAAAAAAAAAAAAAAAAAAAAAAAAAAAAAAAA
        AAAAAAAAAAAAAAAAAAAAAAAAcHJvZxICAABwcmdwIgAAABAIHwYBAQB/AH8AQAABAAEAAAAAAAAAAAB/AAAAAAAAAABwZ25tMAAAAEFycCAzayBCZWxscyAwMQBQOb5f
        /38AALD4qBMBAAAAxDm+X/9/AAD0INcVAQAAAHN0cDBAAAAAAAAAAAAAAAAAAAAAAAAAAAAAAAAAAAAAAAAAAAAAAAAAAAAAAAAAAAAAAAAAAAAAAAAAAAAAAAAAAAAA
        AAAAAHN0cDFAAAAACAgICAgICAgICAgICAgICAgICAgICAgICAgICAgICAgICAgICAgICAgICAgICAgICAgICAgICAgICAgICAgICHN0cDJAAAAAAQEBAQEBAQEBAQEB
        AQEBAQEBAQEBAQEBAQEBAQEBAQEBAQEBAQEBAQEBAQEBAQEBAQEBAQEBAQEBAQEBAQEBAXN0cDNAAAAAEAQIBBAECAQEBAQEBAQEBAQEBAQEBAQEBAQEBAQEBAQEBAQE
        BAQEBAQEBAQEBAQEBAQEBAQEBAQEBAQEBAQEBHN0cDRAAAAAYGBgUGBgYFBgYGBgYGBgYGBgYGBgYGBgYGBgYGBgYGBgYGBgYGBgYGBgYGBgYGBgYGBgYGBgYGBgYGBg
        YGBgYHN0cDVAAAAAAAAAAAAAAAAAAAAAAAAAAAAAAAAAAAAAAAAAAAAAAAAAAAAAAAAAAAAAAAAAAAAAAAAAAAAAAAAAAAAAAAAAAHByb2cSAgAAcHJncCIAAAAQCB8G
        AQEAfwB/AEAAAQABAAAAAAAAAAAAfwAAAAAAAAAAcGdubTAAAABBcnAgM2sgQmVsbHMgMDIAUDm+X/9/AACw+KgTAQAAAMQ5vl//fwAA9CDXFQEAAABzdHAwQAAAAAAA
        AAAAAAAAAAAAAAAAAAAAAAAAAAAAAAAAAAAAAAAAAAAAAAAAAAAAAAAAAAAAAAAAAAAAAAAAAAAAAAAAAABzdHAxQAAAAAgICAgICAgICAgICAgICAgICAgICAgICAgI
        CAgICAgICAgICAgICAgICAgICAgICAgICAgICAgICAgICAgICAhzdHAyQAAAAAEBAQEBAQEBAQEBAQEBAQEBAQEBAQEBAQEBAQEBAQEBAQEBAQEBAQEBAQEBAQEBAQEB
        AQEBAQEBAQEBAQEBAQFzdHAzQAAAABAIBBAIBBAIBAQEBAQEBAQEBAQEBAQEBAQEBAQEBAQEBAQEBAQEBAQEBAQEBAQEBAQEBAQEBAQEBAQEBAQEBARzdHA0QAAAAGBg
        YGBgYGBgYGBgYGBgYGBgYGBgYGBgYGBgYGBgYGBgYGBgYGBgYGBgYGBgYGBgYGBgYGBgYGBgYGBgYGBgYGBzdHA1QAAAAAAAAAAAAAAAAAAAAAAAAAAAAAAAAAAAAAAA
        AAAAAAAAAAAAAAAAAAAAAAAAAAAAAAAAAAAAAAAAAAAAAAAAAABwcm9nEgIAAHByZ3AiAAAAEAhNBgEDAH8AfwBNAAEAAQAAAAAAAAAAAH8AAAIAAAAAAHBnbm0wAAAA
        QXJwIDJrIFNvZnRCZWxscyAwMQD/fwAAsPioEwEAAADEOb5f/38AAPQg1xUBAAAAc3RwMEAAAAAAAAAAAAAAAAAAAAAAAAAAAAAAAAAAAAAAAAAAAAAAAAAAAAAAAAAA
        AAAAAAAAAAAAAAAAAAAAAAAAAAAAAAAAc3RwMUAAAAAECAgIBAgIEAgICAgICAgICAgICAgICAgICAgICAgICAgICAgICAgICAgICAgICAgICAgICAgICAgICAgICAgI
        c3RwMkAAAAABAQEBAQEBAQEBAQEBAQEBAQEBAQEBAQEBAQEBAQEBAQEBAQEBAQEBAQEBAQEBAQEBAQEBAQEBAQEBAQEBAQEBc3RwM0AAAAAEBAgQBAQIBAQEBAQEBAQE
        BAQEBAQEBAQEBAQEBAQEBAQEBAQEBAQEBAQEBAQEBAQEBAQEBAQEBAQEBAQEBAQEc3RwNEAAAABgYGBgYGBgYGBgYGBgYGBgYGBgYGBgYGBgYGBgYGBgYGBgYGBgYGBg
        YGBgYGBgYGBgYGBgYGBgYGBgYGBgYGBgc3RwNUAAAAAAAAAAAAAAAAAAAAAAAAAAAAAAAAAAAAAAAAAAAAAAAAAAAAAAAAAAAAAAAAAAAAAAAAAAAAAAAAAAAAAAAAAA
        cHJvZxICAABwcmdwIgAAABAIQgYBAwB/AH8AQAABAAEAAAAAAAAAAAB/AAACAAAAAABwZ25tMAAAAEFycCAyayBTb2Z0QmVsbHMgMDIA/38AALD4qBMBAAAAxDm+X/9/
        AAD0INcVAQAAAHN0cDBAAAAAAAAAAAAAAAAAAAAAAAAAAAAAAAAAAAAAAAAAAAAAAAAAAAAAAAAAAAAAAAAAAAAAAAAAAAAAAAAAAAAAAAAAAHN0cDFAAAAABBAICAQQ
        CAgICAgICAgICAgICAgICAgICAgICAgICAgICAgICAgICAgICAgICAgICAgICAgICAgICAgICAgICHN0cDJAAAAAAQEBAQEBAQEBAQEBAQEBAQEBAQEBAQEBAQEBAQEB
        AQEBAQEBAQEBAQEBAQEBAQEBAQEBAQEBAQEBAQEBAQEBAXN0cDNAAAAABAQECAQEBBAEBAQEBAQEBAQEBAQEBAQEBAQEBAQEBAQEBAQEBAQEBAQEBAQEBAQEBAQEBAQE
        BAQEBAQEBAQEBHN0cDRAAAAAYGBgYGBgYGBgYGBgYGBgYGBgYGBgYGBgYGBgYGBgYGBgYGBgYGBgYGBgYGBgYGBgYGBgYGBgYGBgYGBgYGBgYHN0cDVAAAAAAAAAAAAA
        AAAAAAAAAAAAAAAAAAAAAAAAAAAAAAAAAAAAAAAAAAAAAAAAAAAAAAAAAAAAAAAAAAAAAAAAAAAAAHByb2cSAgAAcHJncCIAAAAQEEgEAQEAfwB/AEAAAQABAAAAAAAA
        AAAAfwAAAAAAAAAAcGdubTAAAABTZXEgMmsgQWNpZE1vbm8gMDEAX/9/AACw+KgTAQAAAMQ5vl//fwAA9CDXFQEAAABzdHAwQAAAAAAAAAAAAAAAAAAAAAAAAQAAAAAA
        AAAAAAAAAAAAAAAAAAAAAAAAAAAAAAAAAAAAAAAAAAAAAAAAAAAAAAAAAABzdHAxQAAAAAQIBAQIBAgICAQICAgECAgICAgICAgICAgICAgICAgICAgICAgICAgICAgI
        CAgICAgICAgICAgICAgICAgICAhzdHAyQAAAAAEAAQAAAQMAAQEAAQABAwABAQEBAQEBAQEBAQEBAQEBAQEBAQEBAQEBAQEBAQEBAQEBAQEBAQEBAQEBAQEBAQFzdHAz
        QAAAAAQEBAQEBAQEBAQEBAQEBAQEBAQEBAQEBAQEBAQEBAQEBAQEBAQEBAQEBAQEBAQEBAQEBAQEBAQEBAQEBAQEBARzdHA0QAAAAGBgYGBgYGBgYGBgYGBgYGBgYGBg
        YGBgYGBgYGBgYGBgYGBgYGBgYGBgYGBgYGBgYGBgYGBgYGBgYGBgYGBgYGBzdHA1QAAAAAAAAAAAAAAAAAAAAAAAAAAAAAAAAAAAAAAAAAAAAAAAAAAAAAAAAAAAAAAA
        AAAAAAAAAAAAAAAAAAAAAAAAAABwcm9nEgIAAHByZ3AiAAAAEBBCBAECAH8AfwBAAAEAAQAAAAAAAAAAAH8AAAIAAAAAAHBnbm0wAAAAU2VxIDJrIEFjaWRNb25vIDAy
        AF//fwAAsPioEwEAAADEOb5f/38AAPQg1xUBAAAAc3RwMEAAAAAAAAAAAAAABwAAAAAAAAAAAAAAAAAAAAAAAAAAAAAAAAAAAAAAAAAAAAAAAAAAAAAAAAAAAAAAAAAA
        AAAAAAAAc3RwMUAAAAAECAgECAgIBAgEBAgECAgECAgICAgICAgICAgICAgICAgICAgICAgICAgICAgICAgICAgICAgICAgICAgICAgIc3RwMkAAAAABAAABAAABAwAB
        AwABAgEDAQEBAQEBAQEBAQEBAQEBAQEBAQEBAQEBAQEBAQEBAQEBAQEBAQEBAQEBAQEBAQEBc3RwM0AAAAAEBAQEBAQEBAQECAQEBAQIBAQEBAQEBAQEBAQEBAQEBAQE
        BAQEBAQEBAQEBAQEBAQEBAQEBAQEBAQEBAQEBAQEc3RwNEAAAABgYGBgYGBgYGBgYGBgYGBgYGBgYGBgYGBgYGBgYGBgYGBgYGBgYGBgYGBgYGBgYGBgYGBgYGBgYGBg
        YGBgYGBgc3RwNUAAAAAAAAAAAAAAAAAAAAAAAAAAAAAAAAAAAAAAAAAAAAAAAAAAAAAAAAAAAAAAAAAAAAAAAAAAAAAAAAAAAAAAAAAAcHJvZxICAABwcmdwIgAAABAQ
        OgQBAQB/AH8AQAABAAEAAAAAAAAAAAB/AAAAAAAAAABwZ25tMAAAAFNlcSAyayBBY2lkTW9ubyAwMwBf/38AALD4qBMBAAAAxDm+X/9/AAD0INcVAQAAAHN0cDBAAAAA
        AAAAAAAAAAAAAAAAAAAAAAAAAAAAAAAAAAAAAAAAAAAAAAAAAAAAAAAAAAAAAAAAAAAAAAAAAAAAAAAAAAAAAHN0cDFAAAAACAQIEAQICAgECAgIBAgECAgICAgICAgI
        CAgICAgICAgICAgICAgICAgICAgICAgICAgICAgICAgICAgICAgICHN0cDJAAAAAAQEBAwEBAwMBAwEDAQIBAQEBAQEBAQEBAQEBAQEBAQEBAQEBAQEBAQEBAQEBAQEB
        AQEBAQEBAQEBAQEBAQEBAXN0cDNAAAAABAQEBAQECAQEBAQIBAQECAQEBAQEBAQEBAQEBAQEBAQEBAQEBAQEBAQEBAQEBAQEBAQEBAQEBAQEBAQEBAQEBHN0cDRAAAAA
        YGBgYGBgYGBgYGBgYGBgYGBgYGBgYGBgYGBgYGBgYGBgYGBgYGBgYGBgYGBgYGBgYGBgYGBgYGBgYGBgYGBgYHN0cDVAAAAAAAAAAAAAAAAAAAAAAAAAAAAAAAAAAAAA
        AAAAAAAAAAAAAAAAAAAAAAAAAAAAAAAAAAAAAAAAAAAAAAAAAAAAAHByb2cSAgAAcHJncCIAAAAQEDoEAQEAfwB/AEAAAQABAAAAAAAAAAAAfwAAAAAAAAAAcGdubTAA
        AABTZXEgMmsgQWNpZE1vbm8gMDQAX/9/AACw+KgTAQAAAMQ5vl//fwAA9CDXFQEAAABzdHAwQAAAAAAAAAAAAAAAAAAAAAAAAQAAAAAAAAAAAAAAAAAAAAAAAAAAAAAA
        AAAAAAAAAAAAAAAAAAAAAAAAAAAAAAAAAABzdHAxQAAAAAgQCAQICAQICAgECAQICAQICAgICAgICAgICAgICAgICAgICAgICAgICAgICAgICAgICAgICAgICAgICAgI
        CAhzdHAyQAAAAAEBAwEBAwEDAQMBAQEBAQEBAQEBAQEBAQEBAQEBAQEBAQEBAQEBAQEBAQEBAQEBAQEBAQEBAQEBAQEBAQEBAQFzdHAzQAAAAAQEBAQIBAQEBAgEBAQI
        BAQEBAQEBAQEBAQEBAQEBAQEBAQEBAQEBAQEBAQEBAQEBAQEBAQEBAQEBAQEBAQEBARzdHA0QAAAAGBgYGBgYGBgYGBgYGBgYGBgYGBgYGBgYGBgYGBgYGBgYGBgYGBg
        YGBgYGBgYGBgYGBgYGBgYGBgYGBgYGBgYGBzdHA1QAAAAAAAAAAAAAAAAAAAAAAAAAAAAAAAAAAAAAAAAAAAAAAAAAAAAAAAAAAAAAAAAAAAAAAAAAAAAAAAAAAAAAAA
        AABwcm9nEgIAAHByZ3AiAAAAEARIBAEBAH8AfwBAAAEAAQAAAAAAAAAAAH8AAAAAAAAAAHBnbm0wAAAAQmFzcyAxayBTaW1wbGUgMDEAvl//fwAAsPioEwEAAADEOb5f
        /38AAPQg1xUBAAAAc3RwMEAAAAAAAAAAAAAAAAAAAAAAAAAAAAAAAAAAAAAAAAAAAAAAAAAAAAAAAAAAAAAAAAAAAAAAAAAAAAAAAAAAAAAAAAAAc3RwMUAAAAAEBAgI
        CAgICAgICAgICAgICAgICAgICAgICAgICAgICAgICAgICAgICAgICAgICAgICAgICAgICAgICAgICAgIc3RwMkAAAAABAgEBAQEBAQEBAQEBAQEBAQEBAQEBAQEBAQEB
        AQEBAQEBAQEBAQEBAQEBAQEBAQEBAQEBAQEBAQEBAQEBAQEBc3RwM0AAAAAEBAQEBAQEBAQEBAQEBAQEBAQEBAQEBAQEBAQEBAQEBAQEBAQEBAQEBAQEBAQEBAQEBAQE
        BAQEBAQEBAQEBAQEc3RwNEAAAABgYGBgYGBgYGBgYGBgYGBgYGBgYGBgYGBgYGBgYGBgYGBgYGBgYGBgYGBgYGBgYGBgYGBgYGBgYGBgYGBgYGBgc3RwNUAAAAAAAAAA
        AAAAAAAAAAAAAAAAAAAAAAAAAAAAAAAAAAAAAAAAAAAAAAAAAAAAAAAAAAAAAAAAAAAAAAAAAAAAAAAAcHJvZxICAABwcmdwIgAAABAESAQBAQB/AH8AQAABAAEAAAAA
        AAAAAAB/AAAAAAAAAABwZ25tMAAAAEJhc3MgMWsgU2ltcGxlIDAyAL5f/38AALD4qBMBAAAAxDm+X/9/AAD0INcVAQAAAHN0cDBAAAAAAAAAAAAAAAAAAAAAAAAAAAAA
        AAAAAAAAAAAAAAAAAAAAAAAAAAAAAAAAAAAAAAAAAAAAAAAAAAAAAAAAAAAAAHN0cDFAAAAABAQICAgICAgICAgICAgICAgICAgICAgICAgICAgICAgICAgICAgICAgI
        CAgICAgICAgICAgICAgICAgICAgICHN0cDJAAAAAAQEBAQEBAQEBAQEBAQEBAQEBAQEBAQEBAQEBAQEBAQEBAQEBAQEBAQEBAQEBAQEBAQEBAQEBAQEBAQEBAQEBAXN0
        cDNAAAAABAQEBAQEBAQEBAQEBAQEBAQEBAQEBAQEBAQEBAQEBAQEBAQEBAQEBAQEBAQEBAQEBAQEBAQEBAQEBAQEBAQEBHN0cDRAAAAAYGBgYGBgYGBgYGBgYGBgYGBg
        YGBgYGBgYGBgYGBgYGBgYGBgYGBgYGBgYGBgYGBgYGBgYGBgYGBgYGBgYGBgYHN0cDVAAAAAAAAAAAAAAAAAAAAAAAAAAAAAAAAAAAAAAAAAAAAAAAAAAAAAAAAAAAAA
        AAAAAAAAAAAAAAAAAAAAAAAAAAAAAHByb2cSAgAAcHJncCIAAAAQBEgEAQEAfwB/AEAAAQABAAAAAAAAAAAAfwAAAAAAAAAAcGdubTAAAABCYXNzIDFrIFNpbXBsZSAw
        MwC+X/9/AACw+KgTAQAAAMQ5vl//fwAA9CDXFQEAAABzdHAwQAAAAAAAAAAAAAAAAAAAAAAAAAAAAAAAAAAAAAAAAAAAAAAAAAAAAAAAAAAAAAAAAAAAAAAAAAAAAAAA
        AAAAAAAAAABzdHAxQAAAAAQECAgICAgICAgICAgICAgICAgICAgICAgICAgICAgICAgICAgICAgICAgICAgICAgICAgICAgICAgICAgICAhzdHAyQAAAAAECAQIBAQEB
        AQEBAQEBAQEBAQEBAQEBAQEBAQEBAQEBAQEBAQEBAQEBAQEBAQEBAQEBAQEBAQEBAQEBAQEBAQFzdHAzQAAAAAQEBAQEBAQEBAQEBAQEBAQEBAQEBAQEBAQEBAQEBAQE
        BAQEBAQEBAQEBAQEBAQEBAQEBAQEBAQEBAQEBAQEBARzdHA0QAAAAGBgYGBgYGBgYGBgYGBgYGBgYGBgYGBgYGBgYGBgYGBgYGBgYGBgYGBgYGBgYGBgYGBgYGBgYGBg
        YGBgYGBgYGBzdHA1QAAAAAAAAAAAAAAAAAAAAAAAAAAAAAAAAAAAAAAAAAAAAAAAAAAAAAAAAAAAAAAAAAAAAAAAAAAAAAAAAAAAAAAAAABwcm9nEgIAAHByZ3AiAAAA
        EARIBAEBAH8AfwBAAAEAAQAAAAAAAAAAAH8AAAAAAAAAAHBnbm0wAAAAQmFzcyAxayBTaW1wbGUgMDQAvl//fwAAsPioEwEAAADEOb5f/38AAPQg1xUBAAAAc3RwMEAA
        AAAAAAAAAAAAAAAAAAAAAAAAAAAAAAAAAAAAAAAAAAAAAAAAAAAAAAAAAAAAAAAAAAAAAAAAAAAAAAAAAAAAAAAAc3RwMUAAAAAICAgICAgICAgICAgICAgICAgICAgI
        CAgICAgICAgICAgICAgICAgICAgICAgICAgICAgICAgICAgICAgICAgIc3RwMkAAAAAAAAEAAQEBAQEBAQEBAQEBAQEBAQEBAQEBAQEBAQEBAQEBAQEBAQEBAQEBAQEB
        AQEBAQEBAQEBAQEBAQEBAQEBc3RwM0AAAAAEBAQEBAQEBAQEBAQEBAQEBAQEBAQEBAQEBAQEBAQEBAQEBAQEBAQEBAQEBAQEBAQEBAQEBAQEBAQEBAQEBAQEc3RwNEAA
        AABgYGBgYGBgYGBgYGBgYGBgYGBgYGBgYGBgYGBgYGBgYGBgYGBgYGBgYGBgYGBgYGBgYGBgYGBgYGBgYGBgYGBgc3RwNUAAAAAAAAAAAAAAAAAAAAAAAAAAAAAAAAAA
        AAAAAAAAAAAAAAAAAAAAAAAAAAAAAAAAAAAAAAAAAAAAAAAAAAAAAAAAcHJvZxICAABwcmdwIgAAABAIZAQBAQB/AH8AQAABAAEAAAAAAAAAAAB/AAAAAAAAAABwZ25t
        MAAAAEJhc3MgMWsgRHJpZnQgb2ZmYmVhdAAAALD4qBMBAAAAxDm+X/9/AAD0INcVAQAAAHN0cDBAAAAAAAAAAAAAAAAAAAAAAAAAAAAAAAAAAAAAAAAAAAAAAAAAAAAA
        AAAAAAAAAAAAAAAAAAAAAAAAAAAAAAAAAAAAAHN0cDFAAAAACAgICAgICAgICAgICAgICAgICAgICAgICAgICAgICAgICAgICAgICAgICAgICAgICAgICAgICAgICAgI
        CAgICHN0cDJAAAAAAAAAAQAAAQIAAAABAAABAgEBAQEBAQEBAQEBAQEBAQEBAQEBAQEBAQEBAQEBAQEBAQEBAQEBAQEBAQEBAQEBAXN0cDNAAAAABAQEBAQEBAQEBAQE
        BAQEBAQEBAQEBAQEBAQEBAQEBAQEBAQEBAQEBAQEBAQEBAQEBAQEBAQEBAQEBAQEBAQEBHN0cDRAAAAAYGBgYGBgYGBgYGBgYGBgYGBgYGBgYGBgYGBgYGBgYGBgYGBg
        YGBgYGBgYGBgYGBgYGBgYGBgYGBgYGBgYGBgYHN0cDVAAAAAAAAAAAAAAAAAAAAAAAAAAAAAAAAAAAAAAAAAAAAAAAAAAAAAAAAAAAAAAAAAAAAAAAAAAAAAAAAAAAAA
        AAAAAHByb2cSAgAAcHJncCIAAAAQCF8EAQEAfwB/AEAAAQABAAAAAAAAAAAAfwAAAAAAAAAAcGdubTAAAABCYXNzIDFrIFRyaXBsZSBkcmlmdCBvZmZiZWF0AAAAAMQ5
        vl//fwAA9CDXFQEAAABzdHAwQAAAAAAAAAAAAAAAAAAAAAAAAAAAAAAAAAAAAAAAAAAAAAAAAAAAAAAAAAAAAAAAAAAAAAAAAAAAAAAAAAAAAAAAAABzdHAxQAAAAAgI
        CAgICAgICAgICAgICAgICAgICAgICAgICAgICAgICAgICAgICAgICAgICAgICAgICAgICAgICAgICAgICAhzdHAyQAAAAAABAAEAAAECAQEBAQEBAQEBAQEBAQEBAQEB
        AQEBAQEBAQEBAQEBAQEBAQEBAQEBAQEBAQEBAQEBAQEBAQEBAQFzdHAzQAAAAAQEBAQEBAQEBAQEBAQEBAQEBAQEBAQEBAQEBAQEBAQEBAQEBAQEBAQEBAQEBAQEBAQE
        BAQEBAQEBAQEBAQEBARzdHA0QAAAAGBgYGBgYGBgYGBgYGBgYGBAQEBAQEBAQEBAQEBAQEBAQEBAQEBAQEBAQEBAQEBAQEBAQEBAQEBAQEBAQEBAQEBzdHA1QAAAAAAA
        AAAAAAAAAAAAAAAAAAAAAAAAAAAAAAAAAAAAAAAAAAAAAAAAAAAAAAAAAAAAAAAAAAAAAAAAAAAAAAAAAABwcm9nEgIAAHByZ3AiAAAAEBBIBAEBAH8AfwBAAAEAAQAA
        AAAAAAAAAH8AAAAAAAAAAHBnbm0wAAAAQmFzcyAxayBUZWNobm8gMDEAvl//fwAAsPioEwEAAADEOb5f/38AAPQg1xUBAAAAc3RwMEAAAAAAAAAAAAAAAAAAAAAAAAAA
        AAAAAAAAAAAAAAAAAAAAAAAAAAAAAAAAAAAAAAAAAAAAAAAAAAAAAAAAAAAAAAAAc3RwMUAAAAAICAgICAgICAgICAgICAgICAgICAgICAgICAgICAgICAgICAgICAgI
        CAgICAgICAgICAgICAgICAgICAgICAgIc3RwMkAAAAABAQABAQABAQABAQABAAEAAQEBAQEBAQEBAQEBAQEBAQEBAQEBAQEBAQEBAQEBAQEBAQEBAQEBAQEBAQEBAQEB
        c3RwM0AAAAAEBAQEBAQEBAQEBAQEBAQEBAQEBAQEBAQEBAQEBAQEBAQEBAQEBAQEBAQEBAQEBAQEBAQEBAQEBAQEBAQEBAQEc3RwNEAAAABgYGBgYGBgYGBgYGBgYGBg
        YGBgYGBgYGBgYGBgYGBgYGBgYGBgYGBgYGBgYGBgYGBgYGBgYGBgYGBgYGBgYGBgc3RwNUAAAAAAAAAAAAAAAAAAAAAAAAAAAAAAAAAAAAAAAAAAAAAAAAAAAAAAAAAA
        AAAAAAAAAAAAAAAAAAAAAAAAAAAAAAAAcHJvZxICAABwcmdwIgAAABAgSAQBAQB/AH8AQAABAAEAAAAAAAAAAAB/AAAAAAAAAABwZ25tMAAAAEJhc3MgMWsgVGVjaG5v
        IDAyICgzMiBzdGVwcykAAAAAxDm+X/9/AAD0INcVAQAAAHN0cDBAAAAAAAAAAAAAAAAAAAAAAAAAAAAAAAAAAAAAAAAAAAAAAAAAAAAAAAAAAAAAAAAAAAAAAAAAAAAA
        AAAAAAAAAAAAAHN0cDFAAAAACAgICAgICAgICAgICAgICAgICAgICAgICAgICAgICAgICAgICAgICAgICAgICAgICAgICAgICAgICAgICAgICHN0cDJAAAAAAAABAAAA
        AQAAAAEAAAABAAAAAQAAAAEAAAABAAABAAEBAQEBAQEBAQEBAQEBAQEBAQEBAQEBAQEBAQEBAQEBAXN0cDNAAAAABAQEBAQEBAQEBAQEBAQEBAQEBAQEBAQEBAQEBAQE
        BAQEBAQEBAQEBAQEBAQEBAQEBAQEBAQEBAQEBAQEBAQEBHN0cDRAAAAAYGBgYGBgYGBgYGBgYGBgYGBgYGBgYGBgYGBgYGBgYGBgYGBgYGBgYGBgYGBgYGBgYGBgYGBg
        YGBgYGBgYGBgYHN0cDVAAAAAAAAAAAAAAAAAAAAAAAAAAAAAAAAAAAAAAAAAAAAAAAAAAAAAAAAAAAAAAAAAAAAAAAAAAAAAAAAAAAAAAAAAAHByb2cSAgAAcHJncCIA
        AAAQEE8EAQIAfwB/AEAAAQABAAAAAAAAAAAAfwAAAAAAAAAAcGdubTAAAABCYXNzIDJrIFRlY2hubyAwMwC+X/9/AACw+KgTAQAAAMQ5vl//fwAA9CDXFQEAAABzdHAw
        QAAAAAAAAAAAAAAAAAAAAAAAAAAAAAAAAAAAAAAAAAAAAAAAAAAAAAAAAAAAAAAAAAAAAAAAAAAAAAAAAAAAAAAAAABzdHAxQAAAAAgICAgICAgICAgICAgICAgICAgI
        CAgICAgICAgICAgICAgICAgICAgICAgICAgICAgICAgICAgICAgICAgICAhzdHAyQAAAAAEBAQEBAAEAAQABAAEAAQABAQEBAQEBAQEBAQEBAQEBAQEBAQEBAQEBAQEB
        AQEBAQEBAQEBAQEBAQEBAQEBAQFzdHAzQAAAAAQEBAQEBAQEBAQEBAQECAQEBAQEBAQEBAQEBAQEBAQEBAQEBAQEBAQEBAQEBAQEBAQEBAQEBAQEBAQEBAQEBARzdHA0
        QAAAAGBgYGBgYGBgYGBgYGBgYGBgYGBgYGBgYGBgYGBgYGBgYGBgYGBgYGBgYGBgYGBgYGBgYGBgYGBgYGBgYGBgYGBzdHA1QAAAAAAAAAAAAAAAAAAAAAAAAAAAAAAA
        AAAAAAAAAAAAAAAAAAAAAAAAAAAAAAAAAAAAAAAAAAAAAAAAAAAAAAAAAABwcm9nEgIAAHByZ3AiAAAAEBBEBAECAH8AfwBAAAEAAQAAAAAAAAAAAH8AAAAAAAAAAHBn
        bm0wAAAAQmFzcyAzayBDb21wbGV4IDEtMQD/fwAAsPioEwEAAADEOb5f/38AAPQg1xUBAAAAc3RwMEAAAAAAAAAAAAAAAAAAAAAAAAAAAAAAAAAAAAAAAAAAAAAAAAAA
        AAAAAAAAAAAAAAAAAAAAAAAAAAAAAAAAAAAAAAAAc3RwMUAAAAAICAgICAgICAgICBAICAgICAgICAgICAgICAgICAgICAgICAgICAgICAgICAgICAgICAgICAgICAgI
        CAgICAgIc3RwMkAAAAABAAEAAAABAAABAgEBAgAAAQEBAQEBAQEBAQEBAQEBAQEBAQEBAQEBAQEBAQEBAQEBAQEBAQEBAQEBAQEBAQEBc3RwM0AAAAAEBAQEBAQEBAQE
        BAQEBAQEBAQEBAQEBAQEBAQEBAQEBAQEBAQEBAQEBAQEBAQEBAQEBAQEBAQEBAQEBAQEBAQEc3RwNEAAAABgYGBgYGBgYGBgYGBgYGBgYGBgYGBgYGBgYGBgYGBgYGBg
        YGBgYGBgYGBgYGBgYGBgYGBgYGBgYGBgYGBgYGBgc3RwNUAAAAAAAAAAAAAAAAAAAAAAAAAAAAAAAAAAAAAAAAAAAAAAAAAAAAAAAAAAAAAAAAAAAAAAAAAAAAAAAAAA
        AAAAAAAAcHJvZxICAABwcmdwIgAAABAMRQUBAgB/AH8AQAABAAEAAAAAAAAAAAB/AAAAAAAAAABwZ25tMAAAAEJhc3MgM2sgQ29tcGxleCAxLTIA/38AALD4qBMBAAAA
        xDm+X/9/AAD0INcVAQAAAHN0cDBAAAAAAAAAAAAAAAAAAAAAAAAAAAAAAAAAAAAAAAAAAAAAAAAAAAAAAAAAAAAAAAAAAAAAAAAAAAAAAAAAAAAAAAAAAHN0cDFAAAAA
        CAgICAgICAgICAgICAgICAgICAgICAgICAgICAgICAgICAgICAgICAgICAgICAgICAgICAgICAgICAgICAgICHN0cDJAAAAAAQIBAgECAQIBAgECAQEBAQEBAQEBAQEB
        AQEBAQEBAQEBAQEBAQEBAQEBAQEBAQEBAQEBAQEBAQEBAQEBAQEBAXN0cDNAAAAACAgICAgIEBAQEBAQBAQEBAQEBAQEBAQEBAQEBAQEBAQEBAQEBAQEBAQEBAQEBAQE
        BAQEBAQEBAQEBAQEBAQEBHN0cDRAAAAAYGBgYGBgYGBgYGBgYGBgYGBgYGBgYGBgYGBgYGBgYGBgYGBgYGBgYGBgYGBgYGBgYGBgYGBgYGBgYGBgYGBgYHN0cDVAAAAA
        AAAAAAAAAAAAAAAAAAAAAAAAAAAAAAAAAAAAAAAAAAAAAAAAAAAAAAAAAAAAAAAAAAAAAAAAAAAAAAAAAAAAAHByb2cSAgAAcHJncCIAAAAQDE0FAQIAfwB/AEAAAQAB
        AAAAAAAAAAAAfwAAAAAAAAAAcGdubTAAAABCYXNzIDNrIENvbXBsZXggMS0zAP9/AACw+KgTAQAAAMQ5vl//fwAA9CDXFQEAAABzdHAwQAAAAAAAAAAAAAAAAAAAAAAA
        AAAAAAAAAAAAAAAAAAAAAAAAAAAAAAAAAAAAAAAAAAAAAAAAAAAAAAAAAAAAAAAAAABzdHAxQAAAAAgICAgICAgICAgICAgICAgICAgICAgICAgICAgICAgICAgICAgI
        CAgICAgICAgICAgICAgICAgICAgICAgICAhzdHAyQAAAAAEBAQEBAQEBAQEBAQEBAQEBAQEBAQEBAQEBAQEBAQEBAQEBAQEBAQEBAQEBAQEBAQEBAQEBAQEBAQEBAQEB
        AQFzdHAzQAAAAAgICAgICBAQEBAQEAQEBAQEBAQEBAQEBAQEBAQEBAQEBAQEBAQEBAQEBAQEBAQEBAQEBAQEBAQEBAQEBAQEBARzdHA0QAAAAGBgYGBgYGBgYGBgYGBg
        YGBgYGBgYGBgYGBgYGBgYGBgYGBgYGBgYGBgYGBgYGBgYGBgYGBgYGBgYGBgYGBgYGBzdHA1QAAAAAAAAAAAAAAAAAAAAAAAAAAAAAAAAAAAAAAAAAAAAAAAAAAAAAAA
        AAAAAAAAAAAAAAAAAAAAAAAAAAAAAAAAAABwcm9nEgIAAHByZ3AiAAAAEAhNBAEBAH8AfwBAAAEAAQAAAAAAAAAAAH8AAAAAAAAAAHBnbm0wAAAAQmFzcyAxayBUcmFu
        Y2UgMDEAvl//fwAAsPioEwEAAADEOb5f/38AAPQg1xUBAAAAc3RwMEAAAAAAAAAAAAAAAAAAAAAAAAAAAAAAAAAAAAAAAAAAAAAAAAAAAAAAAAAAAAAAAAAAAAAAAAAA
        AAAAAAAAAAAAAAAAc3RwMUAAAAAICAgICAgICAgICAgICAgICAgICAgICAgICAgICAgICAgICAgICAgICAgICAgICAgICAgICAgICAgICAgICAgIc3RwMkAAAAAAAAEB
        AAABAAEBAQEBAQEBAQEBAQEBAQEBAQEBAQEBAQEBAQEBAQEBAQEBAQEBAQEBAQEBAQEBAQEBAQEBAQEBc3RwM0AAAAAEBAQEBAQEBAQEBAQEBAQEBAQEBAQEBAQEBAQE
        BAQEBAQEBAQEBAQEBAQEBAQEBAQEBAQEBAQEBAQEBAQEBAQEc3RwNEAAAABgYGBgYGBgYGBgYGBgYGBgYGBgYGBgYGBgYGBgYGBgYGBgYGBgYGBgYGBgYGBgYGBgYGBg
        YGBgYGBgYGBgYGBgc3RwNUAAAAAAAAAAAAAAAAAAAAAAAAAAAAAAAAAAAAAAAAAAAAAAAAAAAAAAAAAAAAAAAAAAAAAAAAAAAAAAAAAAAAAAAAAAcHJvZxICAABwcmdw
        IgAAABAIQwQBAQB/AH8AQAABAAEAAAAAAAAAAAB/AAAAAAAAAABwZ25tMAAAAEJhc3MgMWsgVHJhbmNlIDAyAL5f/38AALD4qBMBAAAAxDm+X/9/AAD0INcVAQAAAHN0
        cDBAAAAAAAAAAAAAAAAAAAAAAAAAAAAAAAAAAAAAAAAAAAAAAAAAAAAAAAAAAAAAAAAAAAAAAAAAAAAAAAAAAAAAAAAAAHN0cDFAAAAACBAIEAgIEAgICAgICAgICAgI
        CAgICAgICAgICAgICAgICAgICAgICAgICAgICAgICAgICAgICAgICAgICAgICHN0cDJAAAAAAAEBAQABAQEBAQEBAQEBAQEBAQEBAQEBAQEBAQEBAQEBAQEBAQEBAQEB
        AQEBAQEBAQEBAQEBAQEBAQEBAQEBAXN0cDNAAAAABAQEBAQEBAQEBAQEBAQEBAQEBAQEBAQEBAQEBAQEBAQEBAQEBAQEBAQEBAQEBAQEBAQEBAQEBAQEBAQEBAQEBHN0
        cDRAAAAAYGBgYGBgYGBgYGBgYGBgYGBgYGBgYGBgYGBgYGBgYGBgYGBgYGBgYGBgYGBgYGBgYGBgYGBgYGBgYGBgYGBgYHN0cDVAAAAAAAAAAAAAAAAAAAAAAAAAAAAA
        AAAAAAAAAAAAAAAAAAAAAAAAAAAAAAAAAAAAAAAAAAAAAAAAAAAAAAAAAAAAAHByb2cSAgAAcHJncCIAAAAQEDIEAQEAfwB/AkAAAQABAAAAAAAAAAAAfwAAAAAAAAAA
        cGdubTAAAABCYXNzIDJrIFRyYW5jZSAwMwC+X/9/AACw+KgTAQAAAMQ5vl//fwAA9CDXFQEAAABzdHAwQAAAAAAAAAAAAAAAAAAAAAAAAAAAAAAAAAAAAAAAAAAAAAAA
        AAAAAAAAAAAAAAAAAAAAAAAAAAAAAAAAAAAAAAAAAABzdHAxQAAAABAIEBAICBAIEAgQEAgIEAgICAgICAgICAgICAgICAgICAgICAgICAgICAgICAgICAgICAgICAgI
        CAgICAgICAhzdHAyQAAAAAECAQEBAgEBAQIBAQECAQEBAQEBAQEBAQEBAQEBAQEBAQEBAQEBAQEBAQEBAQEBAQEBAQEBAQEBAQEBAQEBAQFzdHAzQAAAAAgEBAQEBAQE
        BAQEBAQEBAQEBAQEBAQEBAQEBAQEBAQEBAQEBAQEBAQEBAQEBAQEBAQEBAQEBAQEBAQEBAQEBARzdHA0QAAAAGBgYGBgYGBgYGBgYGBgYGBgYGBgYGBgYGBgYGBgYGBg
        YGBgYGBgYGBgYGBgYGBgYGBgYGBgYGBgYGBgYGBgYGBzdHA1QAAAAAAAAAAAAAAAAAAAAAAAAAAAAAAAAAAAAAAAAAAAAAAAAAAAAAAAAAAAAAAAAAAAAAAAAAAAAAAA
        AAAAAAAAAABwcm9nEgIAAHByZ3AiAAAAEBBdBAECAH8AfwJAAAEAAQAAAAAAAAAAAH8AAAAAAAAAAHBnbm0wAAAAQmFzcyAyayBETSBRdWVzdGlvbiBvZiB0aW1lAAEA
        AADEOb5f/38AAPQg1xUBAAAAc3RwMEAAAAAAAAAAAAAAAAAAAAAAAAAAAAAAAAAAAAAAAAAAAAAAAAAAAAAAAAAAAAAAAAAAAAAAAAAAAAAAAAAAAAAAAAAAc3RwMUAA
        AAAICAgICAgICAgICAgICAgICAgICAgICAgICAgICAgICAgICAgICAgICAgICAgICAgICAgICAgICAgICAgICAgIc3RwMkAAAAABAAEAAQABAAEAAQABAAEAAQEBAQEB
        AQEBAQEBAQEBAQEBAQEBAQEBAQEBAQEBAQEBAQEBAQEBAQEBAQEBAQEBc3RwM0AAAAAEBAQEBAQEBAQEBAQIBAQEBAQEBAQEBAQEBAQEBAQEBAQEBAQEBAQEBAQEBAQE
        BAQEBAQEBAQEBAQEBAQEBAQEc3RwNEAAAABgYGBgYGBgYGBgYGBgYGBgYGBgYGBgYGBgYGBgYGBgYGBgYGBgYGBgYGBgYGBgYGBgYGBgYGBgYGBgYGBgYGBgc3RwNUAA
        AAAAAAAAAAAAAAAAAAAAAAAAAAAAAAAAAAAAAAAAAAAAAAAAAAAAAAAAAAAAAAAAAAAAAAAAAAAAAAAAAAAAAAAAcHJvZxICAABwcmdwIgAAABAQUQQBAQB/AH8AQAAB
        AAEAAAAAAAAAAAB/AAAAAAAAAABwZ25tMAAAAEJhc3MgMWsgQmVuYXNzaSAtIElsbHVzaW9uABMBAAAAxDm+X/9/AAD0INcVAQAAAHN0cDBAAAAAAAAAAAAAAAAAAAAA
        AAAAAAAAAAAAAAAAAAAAAAAAAAAAAAAAAAAAAAAAAAAAAAAAAAAAAAAAAAAAAAAAAAAAAHN0cDFAAAAACBAIEBAQEAgQEAgQEBAIEAgICAgICAgICAgICAgICAgICAgI
        CAgICAgICAgICAgICAgICAgICAgICAgICAgICHN0cDJAAAAAAQABAAECAAEAAAEAAQIBAAEBAQEBAQEBAQEBAQEBAQEBAQEBAQEBAQEBAQEBAQEBAQEBAQEBAQEBAQEB
        AQEBAXN0cDNAAAAABAQEBAQEBAQEBAQEBAQEBAQEBAQEBAQEBAQEBAQEBAQEBAQEBAQEBAQEBAQEBAQEBAQEBAQEBAQEBAQEBAQEBHN0cDRAAAAAYGBgYGBgYGBgYGBg
        YGBgYGBgYGBgYGBgYGBgYGBgYGBgYGBgYGBgYGBgYGBgYGBgYGBgYGBgYGBgYGBgYGBgYHN0cDVAAAAAAAAAAAAAAAAAAAAAAAAAAAAAAAAAAAAAAAAAAAAAAAAAAAAA
        AAAAAAAAAAAAAAAAAAAAAAAAAAAAAAAAAAAAAHByb2cSAgAAcHJncCIAAAAQEFQEAQEAfwB/AEAAAQABAAAAAAAAAAAAfwAAAAAAAAAAcGdubTAAAABCYXNzIDFrIFF1
        ZWVuIC0gQnJlYWsgZnJlZQATAQAAAMQ5vl//fwAA9CDXFQEAAABzdHAwQAAAAAAAAAAAAAAAAAAAAAAAAAAAAAAAAAAAAAAAAAAAAAAAAAAAAAAAAAAAAAAAAAAAAAAA
        AAAAAAAAAAAAAAAAAABzdHAxQAAAAAgQCAgQEAgQEBAIEBAQCBAICAgICAgICAgICAgICAgICAgICAgICAgICAgICAgICAgICAgICAgICAgICAgICAhzdHAyQAAAAAEA
        AQEBAAEAAQABAAEAAQABAQEBAQEBAQEBAQEBAQEBAQEBAQEBAQEBAQEBAQEBAQEBAQEBAQEBAQEBAQEBAQFzdHAzQAAAAAQEBAQEBAQEBAQEBAQEBAQEBAQEBAQEBAQE
        BAQEBAQEBAQEBAQEBAQEBAQEBAQEBAQEBAQEBAQEBAQEBAQEBARzdHA0QAAAAGBgYGBgYGBgYGBgYGBgYGBgYGBgYGBgYGBgYGBgYGBgYGBgYGBgYGBgYGBgYGBgYGBg
        YGBgYGBgYGBgYGBgYGBzdHA1QAAAAAAAAAAAAAAAAAAAAAAAAAAAAAAAAAAAAAAAAAAAAAAAAAAAAAAAAAAAAAAAAAAAAAAAAAAAAAAAAAAAAAAAAABwcm9nEgIAAHBy
        Z3AiAAAAECBMBAEBAH8AfwBAAAEAAQAAAAAAAAAAAH8AAAAAAAAAAHBnbm0wAAAAQmFzcyAxayBRdWVlbiAtIExpdmluZyBvbiBteSBvd24AOb5f/38AAPQg1xUBAAAA
        c3RwMEAAAAAAAAAAAAAAAAAAAAAAAAAAAAAAAAAAAAAAAAAAAAAAAAAAAAAAAAAAAAAAAAAAAAAAAAAAAAAAAAAAAAAAAAAAc3RwMUAAAAAICBAICBAICBAICBAICBAI
        CBAgCBAgCBAgCBAgCBAgEAgICAgICAgICAgICAgICAgICAgICAgICAgICAgICAgIc3RwMkAAAAABAAEAAQEAAQEAAQEAAQEAAQEBAQEBAQEBAQEBAQEBAQEBAQEBAQEB
        AQEBAQEBAQEBAQEBAQEBAQEBAQEBAQEBc3RwM0AAAAAEBAQEBAQEBAQEBAQEBAQEBAQEBAQEBAQEBAQEBAQEBAQEBAQEBAQEBAQEBAQEBAQEBAQEBAQEBAQEBAQEBAQE
        c3RwNEAAAABgYGBgYGBgYGBgYGBgYGBgYGBgYGBgYGBgYGBgYGBgYGBgYGBgYGBgYGBgYGBgYGBgYGBgYGBgYGBgYGBgYGBgc3RwNUAAAAAAAAAAAAAAAAAAAAAAAAAA
        AAAAAAAAAAAAAAAAAAAAAAAAAAAAAAAAAAAAAAAAAAAAAAAAAAAAAAAAAAAAAAAAcHJvZxICAABwcmdwIgAAABAQLgQBAQB/AH8AQAABAAEAAAYDAAAAAAB/AAAAAAAA
        AABwZ25tMAAAAFNlcSAxayBGb3JjZVNjYWxlIEVtIDAxALD4qBMBAAAAxDm+X/9/AAD0INcVAQAAAHN0cDBAAAAAAAACAAQAAwAAAgMAAwADBAAAAAAAAAAAAAAAAAAA
        AAAAAAAAAAAAAAAAAAAAAAAAAAAAAAAAAAAAAAAAAAAAAHN0cDFAAAAABAIIBAgECAgCCAgECAQICAgICAgICAgICAgICAgICAgICAgICAgICAgICAgICAgICAgICAgI
        CAgICAgICAgICHN0cDJAAAAAAQABAAEAAQEAAQABAQAAAQEBAQEBAQEBAQEBAQEBAQEBAQEBAQEBAQEBAQEBAQEBAQEBAQEBAQEBAQEBAQEBAXN0cDNAAAAABAQEBAQE
        BAQEBAQEBAQEBAQEBAQEBAQEBAQEBAQEBAQEBAQEBAQEBAQEBAQEBAQEBAQEBAQEBAQEBAQEBAQEBHN0cDRAAAAAYGBgYGBgYGBgYGBgYGBgYGBgYGBgYGBgYGBgYGBg
        YGBgYGBgYGBgYGBgYGBgYGBgYGBgYGBgYGBgYGBgYGBgYHN0cDVAAAAAAAAAAAAAAAAAAAAAAAAAAAAAAAAAAAAAAAAAAAAAAAAAAAAAAAAAAAAAAAAAAAAAAAAAAAAA
        AAAAAAAAAAAAAHByb2cSAgAAcHJncCIAAAAQCEIEAQEAfwB/AEAAAQABAAAGAwAAAAAAfwAAAAAAAAAAcGdubTAAAABTZXEgMWsgRm9yY2VTY2FsZSBFbSAwMgCw+KgT
        AQAAAMQ5vl//fwAA9CDXFQEAAABzdHAwQAAAAAAAAAIAAAQAAAAAAAAAAAAAAAAAAAAAAAAAAAAAAAAAAAAAAAAAAAAAAAAAAAAAAAAAAAAAAAAAAAAAAAAAAABzdHAx
        QAAAAAgIBAgEBAgICAgICAgICAgICAgICAgICAgICAgICAgICAgICAgICAgICAgICAgICAgICAgICAgICAgICAgICAhzdHAyQAAAAAECAQEBAQECAQEBAQEBAQEBAQEB
        AQEBAQEBAQEBAQEBAQEBAQEBAQEBAQEBAQEBAQEBAQEBAQEBAQEBAQEBAQFzdHAzQAAAAAQEBAQEBAQEBAQEBAQEBAQEBAQEBAQEBAQEBAQEBAQEBAQEBAQEBAQEBAQE
        BAQEBAQEBAQEBAQEBAQEBAQEBARzdHA0QAAAAGBgYGBgYGBgYGBgYGBgYGBgYGBgYGBgYGBgYGBgYGBgYGBgYGBgYGBgYGBgYGBgYGBgYGBgYGBgYGBgYGBgYGBzdHA1
        QAAAAAAAAAAAAAAAAAAAAAAAAAAAAAAAAAAAAAAAAAAAAAAAAAAAAAAAAAAAAAAAAAAAAAAAAAAAAAAAAAAAAAAAAABwcm9nEgIAAHByZ3AiAAAAEBBHBAEBAH8AfwBF
        AAEAAQAABgMAAAAAAH8AAAAAAAAAAHBnbm0wAAAAU2VxIDFrIEZvcmNlU2NhbGUgRW0gMDMAsPioEwEAAADEOb5f/38AAPQg1xUBAAAAc3RwMEAAAAAAAAACAAQAAAAC
        AAAAAgADAAAAAAAAAAAAAAAAAAAAAAAAAAAAAAAAAAAAAAAAAAAAAAAAAAAAAAAAAAAAAAAAc3RwMUAAAAAICAgICAgICAgICAgICAgICAgICAgICAgICAgICAgICAgI
        CAgICAgICAgICAgICAgICAgICAgICAgICAgICAgIc3RwMkAAAAAAAQABAAEAAAEBAAABAQABAQEBAQEBAQEBAQEBAQEBAQEBAQEBAQEBAQEBAQEBAQEBAQEBAQEBAQEB
        AQEBAQEBc3RwM0AAAAAEBAQEBAQEBAQEBAQEBAQEBAQEBAQEBAQEBAQEBAQEBAQEBAQEBAQEBAQEBAQEBAQEBAQEBAQEBAQEBAQEBAQEc3RwNEAAAABgYGBgYGBgYGBg
        YGBgYGBgYGBgYGBgYGBgYGBgYGBgYGBgYGBgYGBgYGBgYGBgYGBgYGBgYGBgYGBgYGBgYGBgc3RwNUAAAAAAAAAAAAAAAAAAAAAAAAAAAAAAAAAAAAAAAAAAAAAAAAAA
        AAAAAAAAAAAAAAAAAAAAAAAAAAAAAAAAAAAAAAAAcHJvZxICAABwcmdwIgAAABAQZAQBAgB/AH8AQAABAAEAAAYDAAAAAAB/AAAAAAAAAABwZ25tMAAAAFNlcSAyayBG
        b3JjZVNjYWxlIEVtIDA0IChFK0cpAAAAxDm+X/9/AAD0INcVAQAAAHN0cDBAAAAAAAAAAAYAAAAAAAUAAAQAAAAAAAAAAAAAAAAAAAAAAAAAAAAAAAAAAAAAAAAAAAAA
        AAAAAAAAAAAAAAAAAAAAAHN0cDFAAAAABAgEBAgEBAgEBAgEBAgECAgICAgICAgICAgICAgICAgICAgICAgICAgICAgICAgICAgICAgICAgICAgICAgICHN0cDJAAAAA
        AQEAAQEAAQEAAQEAAQEAAQEBAQEBAQEBAQEBAQEBAQEBAQEBAQEBAQEBAQEBAQEBAQEBAQEBAQEBAQEBAQEBAXN0cDNAAAAABAgEBAQEBAgEBAgEBAgEBAQEBAQEBAQE
        BAQEBAQEBAQEBAQEBAQEBAQEBAQEBAQEBAQEBAQEBAQEBAQEBAQEBHN0cDRAAAAAYGBgYGBgYGBgYGBgYGBgYGBgYGBgYGBgYGBgYGBgYGBgYGBgYGBgYGBgYGBgYGBg
        YGBgYGBgYGBgYGBgYGBgYHN0cDVAAAAAAAAAAAAAAAAAAAAAAAAAAAAAAAAAAAAAAAAAAAAAAAAAAAAAAAAAAAAAAAAAAAAAAAAAAAAAAAAAAAAAAAAAAHByb2cSAgAA
        cHJncCIAAAAQCEMEAQIAfwB/AEAAAQABAAAAAAAAAAAAfwAAAAAAAAAAcGdubTAAAABTZXEgMmsgSGFybW9uaWMxIChBK0MvQyMpAKgTAQAAAMQ5vl//fwAA9CDXFQEA
        AABzdHAwQAAAAAAAAAAAAAcAAAAAAAAAAAAAAAAAAAAAAAAAAAAAAAAAAAAAAAAAAAAAAAAAAAAAAAAAAAAAAAAAAAAAAAAAAABzdHAxQAAAAAgICAgEBAgICAgICAgI
        CAgICAgICAgICAgICAgICAgICAgICAgICAgICAgICAgICAgICAgICAgICAgICAgICAhzdHAyQAAAAAECAQEBAQECAQEBAQEBAQEBAQEBAQEBAQEBAQEBAQEBAQEBAQEB
        AQEBAQEBAQEBAQEBAQEBAQEBAQEBAQEBAQFzdHAzQAAAAAQEBAgEBAQEBAQEBAQEBAQEBAQEBAQEBAQEBAQEBAQEBAQEBAQEBAQEBAQEBAQEBAQEBAQEBAQEBAQEBAQE
        BARzdHA0QAAAAGBgYGBgYGBgYGBgYGBgYGBgYGBgYGBgYGBgYGBgYGBgYGBgYGBgYGBgYGBgYGBgYGBgYGBgYGBgYGBgYGBgYGBzdHA1QAAAAAAAAAAAAAAAAAAAAAAA
        AAAAAAAAAAAAAAAAAAAAAAAAAAAAAAAAAAAAAAAAAAAAAAAAAAAAAAAAAAAAAAAAAABwcm9nEgIAAHByZ3AiAAAAEAhDBAEBAH8AfwBAAAEAAQAAAAAAAAAAAH8AAAAA
        AAAAAHBnbm0wAAAAU2VxIDJrIEhhcm1vbmljMiAoQStDL0MjKQCoEwEAAADEOb5f/38AAPQg1xUBAAAAc3RwMEAAAAAAAAcFAAcFAAAAAAAAAAAAAAAAAAAAAAAAAAAA
        AAAAAAAAAAAAAAAAAAAAAAAAAAAAAAAAAAAAAAAAAAAAAAAAc3RwMUAAAAAECAgIBAgICAgICAgICAgICAgICAgICAgICAgICAgICAgICAgICAgICAgICAgICAgICAgI
        CAgICAgICAgICAgIc3RwMkAAAAABAQEBAQEBAQEBAQEBAQEBAQEBAQEBAQEBAQEBAQEBAQEBAQEBAQEBAQEBAQEBAQEBAQEBAQEBAQEBAQEBAQEBc3RwM0AAAAAECAQI
        BAQIBAQEBAQEBAQEBAQEBAQEBAQEBAQEBAQEBAQEBAQEBAQEBAQEBAQEBAQEBAQEBAQEBAQEBAQEBAQEc3RwNEAAAABgYGBgYGBgYGBgYGBgYGBgYGBgYGBgYGBgYGBg
        YGBgYGBgYGBgYGBgYGBgYGBgYGBgYGBgYGBgYGBgYGBgYGBgc3RwNUAAAAAAAAAAAAAAAAAAAAAAAAAAAAAAAAAAAAAAAAAAAAAAAAAAAAAAAAAAAAAAAAAAAAAAAAAA
        AAAAAAAAAAAAAAAAcHJvZxICAABwcmdwIgAAABAIRwQBAQB/AH8AQAABAAEAAAAAAAAAAAB/AAAAAAAAAABwZ25tMAAAAFNlcSAyayBIYXJtb25pYzMgKEErQy9DIykA
        qBMBAAAAxDm+X/9/AAD0INcVAQAAAHN0cDBAAAAAAAAHBwAAAAcAAAAAAAAAAAAAAAAAAAAAAAAAAAAAAAAAAAAAAAAAAAAAAAAAAAAAAAAAAAAAAAAAAAAAAAAAAHN0
        cDFAAAAABAgICAgECAgICAgICAgICAgICAgICAgICAgICAgICAgICAgICAgICAgICAgICAgICAgICAgICAgICAgICAgICHN0cDJAAAAAAQEBAQEBAQEBAQEBAQEBAQEB
        AQEBAQEBAQEBAQEBAQEBAQEBAQEBAQEBAQEBAQEBAQEBAQEBAQEBAQEBAQEBAXN0cDNAAAAABAgECAQECAQEBAQEBAQEBAQEBAQEBAQEBAQEBAQEBAQEBAQEBAQEBAQE
        BAQEBAQEBAQEBAQEBAQEBAQEBAQEBHN0cDRAAAAAYGBgYGBgYGBgYGBgYGBgYGBgYGBgYGBgYGBgYGBgYGBgYGBgYGBgYGBgYGBgYGBgYGBgYGBgYGBgYGBgYGBgYHN0
        cDVAAAAAAAAAAAAAAAAAAAAAAAAAAAAAAAAAAAAAAAAAAAAAAAAAAAAAAAAAAAAAAAAAAAAAAAAAAAAAAAAAAAAAAAAAAHByb2cSAgAAcHJncCIAAAAQCEIEAQEAfwB/
        AEAAAQABAAAAAAAAAAAAfwAAAAAAAAAAcGdubTAAAABTZXEgMmsgSGFybW9uaWM0IChBK0MvQyMpAKgTAQAAAMQ5vl//fwAA9CDXFQEAAABzdHAwQAAAAAAAAAcAAAAA
        AAAAAAAAAAAAAAAAAAAAAAAAAAAAAAAAAAAAAAAAAAAAAAAAAAAAAAAAAAAAAAAAAAAAAAAAAABzdHAxQAAAAAgECAgECAQECAgICAgICAgICAgICAgICAgICAgICAgI
        CAgICAgICAgICAgICAgICAgICAgICAgICAgICAgICAhzdHAyQAAAAAEBAQEBAQEBAQEBAQEBAQEBAQEBAQEBAQEBAQEBAQEBAQEBAQEBAQEBAQEBAQEBAQEBAQEBAQEB
        AQEBAQEBAQFzdHAzQAAAAAQECAQECAQEBAQEBAQEBAQEBAQEBAQEBAQEBAQEBAQEBAQEBAQEBAQEBAQEBAQEBAQEBAQEBAQEBAQEBAQEBARzdHA0QAAAAGBgYGBgYGBg
        YGBgYGBgYGBgYGBgYGBgYGBgYGBgYGBgYGBgYGBgYGBgYGBgYGBgYGBgYGBgYGBgYGBgYGBgYGBzdHA1QAAAAAAAAAAAAAAAAAAAAAAAAAAAAAAAAAAAAAAAAAAAAAAA
        AAAAAAAAAAAAAAAAAAAAAAAAAAAAAAAAAAAAAAAAAABwcm9nEgIAAHByZ3AiAAAAECA9BAEBAH8AfwBAAAEAAQAAAAAAAAAAAH8AAAAAAAAAAHBnbm0wAAAAU2VxIDJr
        IEtyYWZ0d2VyazEgKEQrRikAsPioEwEAAADEOb5f/38AAPQg1xUBAAAAc3RwMEAAAAAAAP7+AAD+/gAAAAAAAAAAAAD+/gAA/v4AAAAAAAAAAAAAAAAAAAAAAAAAAAAA
        AAAAAAAAAAAAAAAAAAAAAAAAc3RwMUAAAAAICAgICAgICAgICAgICAgICAgICAgICAgICAQEBAgEBAgICAgICAgICAgICAgICAgICAgICAgICAgICAgICAgIc3RwMkAA
        AAABAQEBAQEBAQEBAAABAQAAAQEBAQEBAQEBAQEBAQEAAAEBAQEBAQEBAQEBAQEBAQEBAQEBAQEBAQEBAQEBAQEBc3RwM0AAAAAEBAQEBAQEBAQEBAQICAQEBAQEBAQE
        BAQEBAQEBAQEBAQEBAQEBAQEBAQEBAQEBAQEBAQEBAQEBAQEBAQEBAQEc3RwNEAAAABgYGBgYGBgYGBgYGBgYGBgYGBgYGBgYGBgYGBgYGBgYGBgYGBgYGBgYGBgYGBg
        YGBgYGBgYGBgYGBgYGBgYGBgc3RwNUAAAAAAAAAAAAAAAAAAAAAAAAAAAAAAAAAAAAAAAAAAAAAAAAAAAAAAAAAAAAAAAAAAAAAAAAAAAAAAAAAAAAAAAAAAcHJvZxIC
        AABwcmdwIgAAABAgZAQBAQB/AH8APgABAAEAAAAAAAAAAAB/AAAAAAAAAABwZ25tMAAAAFNlcSAyayBLcmFmdHdlcmsyIChBLCBDKQD4qBMBAAAAxDm+X/9/AAD0INcV
        AQAAAHN0cDBAAAAAAAAAAAAAAAADAAAAAAAAAAMAAAAFAAoABwAAAAAAAAAAAAAAAAAAAAAAAAAAAAAAAAAAAAAAAAAAAAAAAAAAAHN0cDFAAAAACAgICAgICAgICAgI
        CAgICAgICAgICAgICAgICAgICAgICAgICAgICAgICAgICAgICAgICAgICAgICAgICAgICHN0cDJAAAAAAQAAAAEAAQABAAEAAAAAAAEAAAABAAEAAQAAAAAAAAABAQEB
        AQEBAQEBAQEBAQEBAQEBAQEBAQEBAQEBAQEBAXN0cDNAAAAABAQEBAQEBAQEBAQEBAQEBAQEBAQEBAQEBAQEBAQEBAQEBAQEBAQEBAQEBAQEBAQEBAQEBAQEBAQEBAQE
        BAQEBHN0cDRAAAAAYGBgYGBgYGBgYGBgYGBgYGBgYGBgYGBgYGBgYGBgYGBgYGBgYGBgYGBgYGBgYGBgYGBgYGBgYGBgYGBgYGBgYHN0cDVAAAAAAAAAAAAAAAAAAAAA
        AAAAAAAAAAAAAAAAAAAAAAAAAAAAAAAAAAAAAAAAAAAAAAAAAAAAAAAAAAAAAAAAAAAAAHByb2cSAgAAcHJncCIAAAAQIGQEAQEAfwB/AEAAAQABAAAAAAAAAAAAfwAA
        AAAAAAAAcGdubTAAAABTZXEgMmsgS3JhZnR3ZXJrMyAoQStDLCBGK0EpAAAAAMQ5vl//fwAA9CDXFQEAAABzdHAwQAAAAAAAAAAAAPsAAAD7AAAAAAAAAAAAAgAAAAAA
        AAAAAPsAAAAAAAAAAAAAAAAAAAAAAAAAAAAAAAAAAAAAAAAAAABzdHAxQAAAAAgICAgICAgICAgICAgICAgICAgICAgICAgICAgICAgICAgICAgICAgICAgICAgICAgI
        CAgICAgICAgICAgICAhzdHAyQAAAAAEAAAABAAEAAQABAAAAAQABAAAAAQABAAAAAAAAAAEAAQEBAQEBAQEBAQEBAQEBAQEBAQEBAQEBAQEBAQEBAQFzdHAzQAAAAAQE
        BAQEBAQEBAQEBAQEBAQIBAQEBAQEBAQEBAQEBAQEBAQEBAQEBAQEBAQEBAQEBAQEBAQEBAQEBAQEBAQEBARzdHA0QAAAAGBgYGBgYGBgYGBgYGBgYGBgYGBgYGBgYGBg
        YGBgYGBgYGBgYGBgYGBgYGBgYGBgYGBgYGBgYGBgYGBgYGBgYGBzdHA1QAAAAAAAAAAAAAAAAAAAAAAAAAAAAAAAAAAAAAAAAAAAAAAAAAAAAAAAAAAAAAAAAAAAAAAA
        AAAAAAAAAAAAAAAAAABwcm9nEgIAAHByZ3AiAAAAECBkBAEBAH8AfwBAAAEAAQAAAAAAAAAAAH8AAAAAAAAAAHBnbm0wAAAAU2VxIDJrIEtyYWZ0d2VyazMgKEErQywg
        RitBKQAAAADEOb5f/38AAPQg1xUBAAAAc3RwMEAAAAAAAAAAAAD7AAAA+wAAAAAAAAAAAAIAAAAAAAAAAAD7AAAAAAAAAAAAAAAAAAAAAAAAAAAAAAAAAAAAAAAAAAAA
        c3RwMUAAAAAICAgICAgICAgICAgICAgICAgICAgICAgICAgICAgICAgICAgICAgICAgICAgICAgICAgICAgICAgICAgICAgIc3RwMkAAAAABAAAAAQABAAEAAQAAAAEA
        AQAAAAEAAQAAAAAAAAABAAEBAQEBAQEBAQEBAQEBAQEBAQEBAQEBAQEBAQEBAQEBc3RwM0AAAAAEBAQEBAQEBAQEBAQEBAQECAQEBAQEBAQEBAQEBAQEBAQEBAQEBAQE
        BAQEBAQEBAQEBAQEBAQEBAQEBAQEBAQEc3RwNEAAAABgYGBgYGBgYGBgYGBgYGBgYGBgYGBgYGBgYGBgYGBgYGBgYGBgYGBgYGBgYGBgYGBgYGBgYGBgYGBgYGBgYGBg
        c3RwNUAAAAAAAAAAAAAAAAAAAAAAAAAAAAAAAAAAAAAAAAAAAAAAAAAAAAAAAAAAAAAAAAAAAAAAAAAAAAAAAAAAAAAAAAAAcHJvZxICAABwcmdwIgAAABAgZAQBAQB/
        AH8AQAABAAEAAAAAAAAAAAB/AAAAAAAAAABwZ25tMAAAAFNlcSAyayBLcmFmdHdlcmszIChBK0MsIEYrQSkAAAAAxDm+X/9/AAD0INcVAQAAAHN0cDBAAAAAAAAAAAAA
        +wAAAPsAAAAAAAAAAAACAAAAAAAAAAAA+wAAAAAAAAAAAAAAAAAAAAAAAAAAAAAAAAAAAAAAAAAAAHN0cDFAAAAACAgICAgICAgICAgICAgICAgICAgICAgICAgICAgI
        CAgICAgICAgICAgICAgICAgICAgICAgICAgICAgICAgICHN0cDJAAAAAAQAAAAEAAQABAAEAAAABAAEAAAABAAEAAAAAAAAAAQABAQEBAQEBAQEBAQEBAQEBAQEBAQEB
        AQEBAQEBAQEBAXN0cDNAAAAABAQEBAQEBAQEBAQEBAQEBAgEBAQEBAQEBAQEBAQEBAQEBAQEBAQEBAQEBAQEBAQEBAQEBAQEBAQEBAQEBAQEBHN0cDRAAAAAYGBgYGBg
        YGBgYGBgYGBgYGBgYGBgYGBgYGBgYGBgYGBgYGBgYGBgYGBgYGBgYGBgYGBgYGBgYGBgYGBgYGBgYHN0cDVAAAAAAAAAAAAAAAAAAAAAAAAAAAAAAAAAAAAAAAAAAAAA
        AAAAAAAAAAAAAAAAAAAAAAAAAAAAAAAAAAAAAAAAAAAAAHByb2cSAgAAcHJncCIAAAAQIGQEAQEAfwB/AEAAAQABAAAAAAAAAAAAfwAAAAAAAAAAcGdubTAAAABTZXEg
        MmsgS3JhZnR3ZXJrMyAoQStDLCBGK0EpAAAAAMQ5vl//fwAA9CDXFQEAAABzdHAwQAAAAAAAAAAAAPsAAAD7AAAAAAAAAAAAAgAAAAAAAAAAAPsAAAAAAAAAAAAAAAAA
        AAAAAAAAAAAAAAAAAAAAAAAAAABzdHAxQAAAAAgICAgICAgICAgICAgICAgICAgICAgICAgICAgICAgICAgICAgICAgICAgICAgICAgICAgICAgICAgICAgICAhzdHAy
        QAAAAAEAAAABAAEAAQABAAAAAQABAAAAAQABAAAAAAAAAAEAAQEBAQEBAQEBAQEBAQEBAQEBAQEBAQEBAQEBAQEBAQFzdHAzQAAAAAQEBAQEBAQEBAQEBAQEBAQIBAQE
        BAQEBAQEBAQEBAQEBAQEBAQEBAQEBAQEBAQEBAQEBAQEBAQEBAQEBAQEBARzdHA0QAAAAGBgYGBgYGBgYGBgYGBgYGBgYGBgYGBgYGBgYGBgYGBgYGBgYGBgYGBgYGBg
        YGBgYGBgYGBgYGBgYGBgYGBgYGBzdHA1QAAAAAAAAAAAAAAAAAAAAAAAAAAAAAAAAAAAAAAAAAAAAAAAAAAAAAAAAAAAAAAAAAAAAAAAAAAAAAAAAAAAAAAAAABwcm9n
        EgIAAHByZ3AiAAAAECBkBAEBAH8AfwBAAAEAAQAAAAAAAAAAAH8AAAAAAAAAAHBnbm0wAAAAU2VxIDJrIEtyYWZ0d2VyazMgKEErQywgRitBKQAAAADEOb5f/38AAPQg
        1xUBAAAAc3RwMEAAAAAAAAAAAAD7AAAA+wAAAAAAAAAAAAIAAAAAAAAAAAD7AAAAAAAAAAAAAAAAAAAAAAAAAAAAAAAAAAAAAAAAAAAAc3RwMUAAAAAICAgICAgICAgI
        CAgICAgICAgICAgICAgICAgICAgICAgICAgICAgICAgICAgICAgICAgICAgICAgICAgICAgIc3RwMkAAAAABAAAAAQABAAEAAQAAAAEAAQAAAAEAAQAAAAAAAAABAAEB
        AQEBAQEBAQEBAQEBAQEBAQEBAQEBAQEBAQEBAQEBc3RwM0AAAAAEBAQEBAQEBAQEBAQEBAQECAQEBAQEBAQEBAQEBAQEBAQEBAQEBAQEBAQEBAQEBAQEBAQEBAQEBAQE
        BAQEBAQEc3RwNEAAAABgYGBgYGBgYGBgYGBgYGBgYGBgYGBgYGBgYGBgYGBgYGBgYGBgYGBgYGBgYGBgYGBgYGBgYGBgYGBgYGBgYGBgc3RwNUAAAAAAAAAAAAAAAAAA
        AAAAAAAAAAAAAAAAAAAAAAAAAAAAAAAAAAAAAAAAAAAAAAAAAAAAAAAAAAAAAAAAAAAAAAAAcHJvZxICAABwcmdwIgAAABAgZAQBAQB/AH8AQAABAAEAAAAAAAAAAAB/
        AAAAAAAAAABwZ25tMAAAAFNlcSAyayBLcmFmdHdlcmszIChBK0MsIEYrQSkAAAAAxDm+X/9/AAD0INcVAQAAAHN0cDBAAAAAAAAAAAAA+wAAAPsAAAAAAAAAAAACAAAA
        AAAAAAAA+wAAAAAAAAAAAAAAAAAAAAAAAAAAAAAAAAAAAAAAAAAAAHN0cDFAAAAACAgICAgICAgICAgICAgICAgICAgICAgICAgICAgICAgICAgICAgICAgICAgICAgI
        CAgICAgICAgICAgICAgICHN0cDJAAAAAAQAAAAEAAQABAAEAAAABAAEAAAABAAEAAAAAAAAAAQABAQEBAQEBAQEBAQEBAQEBAQEBAQEBAQEBAQEBAQEBAXN0cDNAAAAA
        BAQEBAQEBAQEBAQEBAQEBAgEBAQEBAQEBAQEBAQEBAQEBAQEBAQEBAQEBAQEBAQEBAQEBAQEBAQEBAQEBAQEBHN0cDRAAAAAYGBgYGBgYGBgYGBgYGBgYGBgYGBgYGBg
        YGBgYGBgYGBgYGBgYGBgYGBgYGBgYGBgYGBgYGBgYGBgYGBgYGBgYHN0cDVAAAAAAAAAAAAAAAAAAAAAAAAAAAAAAAAAAAAAAAAAAAAAAAAAAAAAAAAAAAAAAAAAAAAA
        AAAAAAAAAAAAAAAAAAAAAHByb2cSAgAAcHJncCIAAAAQIGQEAQEAfwB/AEAAAQABAAAAAAAAAAAAfwAAAAAAAAAAcGdubTAAAABTZXEgMmsgS3JhZnR3ZXJrMyAoQStD
        LCBGK0EpAAAAAMQ5vl//fwAA9CDXFQEAAABzdHAwQAAAAAAAAAAAAPsAAAD7AAAAAAAAAAAAAgAAAAAAAAAAAPsAAAAAAAAAAAAAAAAAAAAAAAAAAAAAAAAAAAAAAAAA
        AABzdHAxQAAAAAgICAgICAgICAgICAgICAgICAgICAgICAgICAgICAgICAgICAgICAgICAgICAgICAgICAgICAgICAgICAgICAhzdHAyQAAAAAEAAAABAAEAAQABAAAA
        AQABAAAAAQABAAAAAAAAAAEAAQEBAQEBAQEBAQEBAQEBAQEBAQEBAQEBAQEBAQEBAQFzdHAzQAAAAAQEBAQEBAQEBAQEBAQEBAQIBAQEBAQEBAQEBAQEBAQEBAQEBAQE
        BAQEBAQEBAQEBAQEBAQEBAQEBAQEBAQEBARzdHA0QAAAAGBgYGBgYGBgYGBgYGBgYGBgYGBgYGBgYGBgYGBgYGBgYGBgYGBgYGBgYGBgYGBgYGBgYGBgYGBgYGBgYGBg
        YGBzdHA1QAAAAAAAAAAAAAAAAAAAAAAAAAAAAAAAAAAAAAAAAAAAAAAAAAAAAAAAAAAAAAAAAAAAAAAAAAAAAAAAAAAAAAAAAABwcm9nEgIAAHByZ3AiAAAAECBkBAEB
        AH8AfwBAAAEAAQAAAAAAAAAAAH8AAAAAAAAAAHBnbm0wAAAAU2VxIDJrIEtyYWZ0d2VyazMgKEErQywgRitBKQAAAADEOb5f/38AAPQg1xUBAAAAc3RwMEAAAAAAAAAA
        AAD7AAAA+wAAAAAAAAAAAAIAAAAAAAAAAAD7AAAAAAAAAAAAAAAAAAAAAAAAAAAAAAAAAAAAAAAAAAAAc3RwMUAAAAAICAgICAgICAgICAgICAgICAgICAgICAgICAgI
        CAgICAgICAgICAgICAgICAgICAgICAgICAgICAgICAgICAgIc3RwMkAAAAABAAAAAQABAAEAAQAAAAEAAQAAAAEAAQAAAAAAAAABAAEBAQEBAQEBAQEBAQEBAQEBAQEB
        AQEBAQEBAQEBAQEBc3RwM0AAAAAEBAQEBAQEBAQEBAQEBAQECAQEBAQEBAQEBAQEBAQEBAQEBAQEBAQEBAQEBAQEBAQEBAQEBAQEBAQEBAQEBAQEc3RwNEAAAABgYGBg
        YGBgYGBgYGBgYGBgYGBgYGBgYGBgYGBgYGBgYGBgYGBgYGBgYGBgYGBgYGBgYGBgYGBgYGBgYGBgYGBgc3RwNUAAAAAAAAAAAAAAAAAAAAAAAAAAAAAAAAAAAAAAAAAA
        AAAAAAAAAAAAAAAAAAAAAAAAAAAAAAAAAAAAAAAAAAAAAAAAcHJvZxICAABwcmdwIgAAABAgZAQBAQB/AH8AQAABAAEAAAAAAAAAAAB/AAAAAAAAAABwZ25tMAAAAFNl
        cSAyayBLcmFmdHdlcmszIChBK0MsIEYrQSkAAAAAxDm+X/9/AAD0INcVAQAAAHN0cDBAAAAAAAAAAAAA+wAAAPsAAAAAAAAAAAACAAAAAAAAAAAA+wAAAAAAAAAAAAAA
        AAAAAAAAAAAAAAAAAAAAAAAAAAAAAHN0cDFAAAAACAgICAgICAgICAgICAgICAgICAgICAgICAgICAgICAgICAgICAgICAgICAgICAgICAgICAgICAgICAgICAgICHN0
        cDJAAAAAAQAAAAEAAQABAAEAAAABAAEAAAABAAEAAAAAAAAAAQABAQEBAQEBAQEBAQEBAQEBAQEBAQEBAQEBAQEBAQEBAXN0cDNAAAAABAQEBAQEBAQEBAQEBAQEBAgE
        BAQEBAQEBAQEBAQEBAQEBAQEBAQEBAQEBAQEBAQEBAQEBAQEBAQEBAQEBAQEBHN0cDRAAAAAYGBgYGBgYGBgYGBgYGBgYGBgYGBgYGBgYGBgYGBgYGBgYGBgYGBgYGBg
        YGBgYGBgYGBgYGBgYGBgYGBgYGBgYHN0cDVAAAAAAAAAAAAAAAAAAAAAAAAAAAAAAAAAAAAAAAAAAAAAAAAAAAAAAAAAAAAAAAAAAAAAAAAAAAAAAAAAAAAAAAAAAHBy
        b2cSAgAAcHJncCIAAAAQIGQEAQEAfwB/AEAAAQABAAAAAAAAAAAAfwAAAAAAAAAAcGdubTAAAABTZXEgMmsgS3JhZnR3ZXJrMyAoQStDLCBGK0EpAAAAAMQ5vl//fwAA
        9CDXFQEAAABzdHAwQAAAAAAAAAAAAPsAAAD7AAAAAAAAAAAAAgAAAAAAAAAAAPsAAAAAAAAAAAAAAAAAAAAAAAAAAAAAAAAAAAAAAAAAAABzdHAxQAAAAAgICAgICAgI
        CAgICAgICAgICAgICAgICAgICAgICAgICAgICAgICAgICAgICAgICAgICAgICAgICAgICAgICAhzdHAyQAAAAAEAAAABAAEAAQABAAAAAQABAAAAAQABAAAAAAAAAAEA
        AQEBAQEBAQEBAQEBAQEBAQEBAQEBAQEBAQEBAQEBAQFzdHAzQAAAAAQEBAQEBAQEBAQEBAQEBAQIBAQEBAQEBAQEBAQEBAQEBAQEBAQEBAQEBAQEBAQEBAQEBAQEBAQE
        BAQEBAQEBARzdHA0QAAAAGBgYGBgYGBgYGBgYGBgYGBgYGBgYGBgYGBgYGBgYGBgYGBgYGBgYGBgYGBgYGBgYGBgYGBgYGBgYGBgYGBgYGBzdHA1QAAAAAAAAAAAAAAA
        AAAAAAAAAAAAAAAAAAAAAAAAAAAAAAAAAAAAAAAAAAAAAAAAAAAAAAAAAAAAAAAAAAAAAAAAAABwcm9nEgIAAHByZ3AiAAAAECBkBAEBAH8AfwBAAAEAAQAAAAAAAAAA
        AH8AAAAAAAAAAHBnbm0wAAAAU2VxIDJrIEtyYWZ0d2VyazMgKEErQywgRitBKQAAAADEOb5f/38AAPQg1xUBAAAAc3RwMEAAAAAAAAAAAAD7AAAA+wAAAAAAAAAAAAIA
        AAAAAAAAAAD7AAAAAAAAAAAAAAAAAAAAAAAAAAAAAAAAAAAAAAAAAAAAc3RwMUAAAAAICAgICAgICAgICAgICAgICAgICAgICAgICAgICAgICAgICAgICAgICAgICAgI
        CAgICAgICAgICAgICAgICAgIc3RwMkAAAAABAAAAAQABAAEAAQAAAAEAAQAAAAEAAQAAAAAAAAABAAEBAQEBAQEBAQEBAQEBAQEBAQEBAQEBAQEBAQEBAQEBc3RwM0AA
        AAAEBAQEBAQEBAQEBAQEBAQECAQEBAQEBAQEBAQEBAQEBAQEBAQEBAQEBAQEBAQEBAQEBAQEBAQEBAQEBAQEBAQEc3RwNEAAAABgYGBgYGBgYGBgYGBgYGBgYGBgYGBg
        YGBgYGBgYGBgYGBgYGBgYGBgYGBgYGBgYGBgYGBgYGBgYGBgYGBgYGBgc3RwNUAAAAAAAAAAAAAAAAAAAAAAAAAAAAAAAAAAAAAAAAAAAAAAAAAAAAAAAAAAAAAAAAAA
        AAAAAAAAAAAAAAAAAAAAAAAAcHJvZxICAABwcmdwIgAAABAgZAQBAQB/AH8AQAABAAEAAAAAAAAAAAB/AAAAAAAAAABwZ25tMAAAAFNlcSAyayBLcmFmdHdlcmszIChB
        K0MsIEYrQSkAAAAAxDm+X/9/AAD0INcVAQAAAHN0cDBAAAAAAAAAAAAA+wAAAPsAAAAAAAAAAAACAAAAAAAAAAAA+wAAAAAAAAAAAAAAAAAAAAAAAAAAAAAAAAAAAAAA
        AAAAAHN0cDFAAAAACAgICAgICAgICAgICAgICAgICAgICAgICAgICAgICAgICAgICAgICAgICAgICAgICAgICAgICAgICAgICAgICHN0cDJAAAAAAQAAAAEAAQABAAEA
        AAABAAEAAAABAAEAAAAAAAAAAQABAQEBAQEBAQEBAQEBAQEBAQEBAQEBAQEBAQEBAQEBAXN0cDNAAAAABAQEBAQEBAQEBAQEBAQEBAgEBAQEBAQEBAQEBAQEBAQEBAQE
        BAQEBAQEBAQEBAQEBAQEBAQEBAQEBAQEBAQEBHN0cDRAAAAAYGBgYGBgYGBgYGBgYGBgYGBgYGBgYGBgYGBgYGBgYGBgYGBgYGBgYGBgYGBgYGBgYGBgYGBgYGBgYGBg
        YGBgYHN0cDVAAAAAAAAAAAAAAAAAAAAAAAAAAAAAAAAAAAAAAAAAAAAAAAAAAAAAAAAAAAAAAAAAAAAAAAAAAAAAAAAAAAAAAAAAAHByb2cSAgAAcHJncCIAAAAQIGQE
        AQEAfwB/AEAAAQABAAAAAAAAAAAAfwAAAAAAAAAAcGdubTAAAABTZXEgMmsgS3JhZnR3ZXJrMyAoQStDLCBGK0EpAAAAAMQ5vl//fwAA9CDXFQEAAABzdHAwQAAAAAAA
        AAAAAPsAAAD7AAAAAAAAAAAAAgAAAAAAAAAAAPsAAAAAAAAAAAAAAAAAAAAAAAAAAAAAAAAAAAAAAAAAAABzdHAxQAAAAAgICAgICAgICAgICAgICAgICAgICAgICAgI
        CAgICAgICAgICAgICAgICAgICAgICAgICAgICAgICAgICAgICAhzdHAyQAAAAAEAAAABAAEAAQABAAAAAQABAAAAAQABAAAAAAAAAAEAAQEBAQEBAQEBAQEBAQEBAQEB
        AQEBAQEBAQEBAQEBAQFzdHAzQAAAAAQEBAQEBAQEBAQEBAQEBAQIBAQEBAQEBAQEBAQEBAQEBAQEBAQEBAQEBAQEBAQEBAQEBAQEBAQEBAQEBAQEBARzdHA0QAAAAGBg
        YGBgYGBgYGBgYGBgYGBgYGBgYGBgYGBgYGBgYGBgYGBgYGBgYGBgYGBgYGBgYGBgYGBgYGBgYGBgYGBgYGBzdHA1QAAAAAAAAAAAAAAAAAAAAAAAAAAAAAAAAAAAAAAA
        AAAAAAAAAAAAAAAAAAAAAAAAAAAAAAAAAAAAAAAAAAAAAAAAAABwcm9nEgIAAHByZ3AiAAAAECBkBAEBAH8AfwBAAAEAAQAAAAAAAAAAAH8AAAAAAAAAAHBnbm0wAAAA
        U2VxIDJrIEtyYWZ0d2VyazMgKEErQywgRitBKQAAAADEOb5f/38AAPQg1xUBAAAAc3RwMEAAAAAAAAAAAAD7AAAA+wAAAAAAAAAAAAIAAAAAAAAAAAD7AAAAAAAAAAAA
        AAAAAAAAAAAAAAAAAAAAAAAAAAAAAAAAc3RwMUAAAAAICAgICAgICAgICAgICAgICAgICAgICAgICAgICAgICAgICAgICAgICAgICAgICAgICAgICAgICAgICAgICAgI
        c3RwMkAAAAABAAAAAQABAAEAAQAAAAEAAQAAAAEAAQAAAAAAAAABAAEBAQEBAQEBAQEBAQEBAQEBAQEBAQEBAQEBAQEBAQEBc3RwM0AAAAAEBAQEBAQEBAQEBAQEBAQE
        CAQEBAQEBAQEBAQEBAQEBAQEBAQEBAQEBAQEBAQEBAQEBAQEBAQEBAQEBAQEBAQEc3RwNEAAAABgYGBgYGBgYGBgYGBgYGBgYGBgYGBgYGBgYGBgYGBgYGBgYGBgYGBg
        YGBgYGBgYGBgYGBgYGBgYGBgYGBgYGBgc3RwNUAAAAAAAAAAAAAAAAAAAAAAAAAAAAAAAAAAAAAAAAAAAAAAAAAAAAAAAAAAAAAAAAAAAAAAAAAAAAAAAAAAAAAAAAAA
        cHJvZxICAABwcmdwIgAAABAgZAQBAQB/AH8AQAABAAEAAAAAAAAAAAB/AAAAAAAAAABwZ25tMAAAAFNlcSAyayBLcmFmdHdlcmszIChBK0MsIEYrQSkAAAAAxDm+X/9/
        AAD0INcVAQAAAHN0cDBAAAAAAAAAAAAA+wAAAPsAAAAAAAAAAAACAAAAAAAAAAAA+wAAAAAAAAAAAAAAAAAAAAAAAAAAAAAAAAAAAAAAAAAAAHN0cDFAAAAACAgICAgI
        CAgICAgICAgICAgICAgICAgICAgICAgICAgICAgICAgICAgICAgICAgICAgICAgICAgICAgICAgICHN0cDJAAAAAAQAAAAEAAQABAAEAAAABAAEAAAABAAEAAAAAAAAA
        AQABAQEBAQEBAQEBAQEBAQEBAQEBAQEBAQEBAQEBAQEBAXN0cDNAAAAABAQEBAQEBAQEBAQEBAQEBAgEBAQEBAQEBAQEBAQEBAQEBAQEBAQEBAQEBAQEBAQEBAQEBAQE
        BAQEBAQEBAQEBHN0cDRAAAAAYGBgYGBgYGBgYGBgYGBgYGBgYGBgYGBgYGBgYGBgYGBgYGBgYGBgYGBgYGBgYGBgYGBgYGBgYGBgYGBgYGBgYHN0cDVAAAAAAAAAAAAA
        AAAAAAAAAAAAAAAAAAAAAAAAAAAAAAAAAAAAAAAAAAAAAAAAAAAAAAAAAAAAAAAAAAAAAAAAAAAAAHByb2cSAgAAcHJncCIAAAAQIGQEAQEAfwB/AEAAAQABAAAAAAAA
        AAAAfwAAAAAAAAAAcGdubTAAAABTZXEgMmsgS3JhZnR3ZXJrMyAoQStDLCBGK0EpAAAAAMQ5vl//fwAA9CDXFQEAAABzdHAwQAAAAAAAAAAAAPsAAAD7AAAAAAAAAAAA
        AgAAAAAAAAAAAPsAAAAAAAAAAAAAAAAAAAAAAAAAAAAAAAAAAAAAAAAAAABzdHAxQAAAAAgICAgICAgICAgICAgICAgICAgICAgICAgICAgICAgICAgICAgICAgICAgI
        CAgICAgICAgICAgICAgICAgICAhzdHAyQAAAAAEAAAABAAEAAQABAAAAAQABAAAAAQABAAAAAAAAAAEAAQEBAQEBAQEBAQEBAQEBAQEBAQEBAQEBAQEBAQEBAQFzdHAz
        QAAAAAQEBAQEBAQEBAQEBAQEBAQIBAQEBAQEBAQEBAQEBAQEBAQEBAQEBAQEBAQEBAQEBAQEBAQEBAQEBAQEBAQEBARzdHA0QAAAAGBgYGBgYGBgYGBgYGBgYGBgYGBg
        YGBgYGBgYGBgYGBgYGBgYGBgYGBgYGBgYGBgYGBgYGBgYGBgYGBgYGBgYGBzdHA1QAAAAAAAAAAAAAAAAAAAAAAAAAAAAAAAAAAAAAAAAAAAAAAAAAAAAAAAAAAAAAAA
        AAAAAAAAAAAAAAAAAAAAAAAAAABwcm9nEgIAAHByZ3AiAAAAECBkBAEBAH8AfwBAAAEAAQAAAAAAAAAAAH8AAAAAAAAAAHBnbm0wAAAAU2VxIDJrIEtyYWZ0d2VyazMg
        KEErQywgRitBKQAAAADEOb5f/38AAPQg1xUBAAAAc3RwMEAAAAAAAAAAAAD7AAAA+wAAAAAAAAAAAAIAAAAAAAAAAAD7AAAAAAAAAAAAAAAAAAAAAAAAAAAAAAAAAAAA
        AAAAAAAAc3RwMUAAAAAICAgICAgICAgICAgICAgICAgICAgICAgICAgICAgICAgICAgICAgICAgICAgICAgICAgICAgICAgICAgICAgIc3RwMkAAAAABAAAAAQABAAEA
        AQAAAAEAAQAAAAEAAQAAAAAAAAABAAEBAQEBAQEBAQEBAQEBAQEBAQEBAQEBAQEBAQEBAQEBc3RwM0AAAAAEBAQEBAQEBAQEBAQEBAQECAQEBAQEBAQEBAQEBAQEBAQE
        BAQEBAQEBAQEBAQEBAQEBAQEBAQEBAQEBAQEBAQEc3RwNEAAAABgYGBgYGBgYGBgYGBgYGBgYGBgYGBgYGBgYGBgYGBgYGBgYGBgYGBgYGBgYGBgYGBgYGBgYGBgYGBg
        YGBgYGBgc3RwNUAAAAAAAAAAAAAAAAAAAAAAAAAAAAAAAAAAAAAAAAAAAAAAAAAAAAAAAAAAAAAAAAAAAAAAAAAAAAAAAAAAAAAAAAAAcHJvZxICAABwcmdwIgAAABAg
        ZAQBAQB/AH8AQAABAAEAAAAAAAAAAAB/AAAAAAAAAABwZ25tMAAAAFNlcSAyayBLcmFmdHdlcmszIChBK0MsIEYrQSkAAAAAxDm+X/9/AAD0INcVAQAAAHN0cDBAAAAA
        AAAAAAAA+wAAAPsAAAAAAAAAAAACAAAAAAAAAAAA+wAAAAAAAAAAAAAAAAAAAAAAAAAAAAAAAAAAAAAAAAAAAHN0cDFAAAAACAgICAgICAgICAgICAgICAgICAgICAgI
        CAgICAgICAgICAgICAgICAgICAgICAgICAgICAgICAgICAgICAgICHN0cDJAAAAAAQAAAAEAAQABAAEAAAABAAEAAAABAAEAAAAAAAAAAQABAQEBAQEBAQEBAQEBAQEB
        AQEBAQEBAQEBAQEBAQEBAXN0cDNAAAAABAQEBAQEBAQEBAQEBAQEBAgEBAQEBAQEBAQEBAQEBAQEBAQEBAQEBAQEBAQEBAQEBAQEBAQEBAQEBAQEBAQEBHN0cDRAAAAA
        YGBgYGBgYGBgYGBgYGBgYGBgYGBgYGBgYGBgYGBgYGBgYGBgYGBgYGBgYGBgYGBgYGBgYGBgYGBgYGBgYGBgYHN0cDVAAAAAAAAAAAAAAAAAAAAAAAAAAAAAAAAAAAAA
        AAAAAAAAAAAAAAAAAAAAAAAAAAAAAAAAAAAAAAAAAAAAAAAAAAAAAHByb2cSAgAAcHJncCIAAAAQIGQEAQEAfwB/AEAAAQABAAAAAAAAAAAAfwAAAAAAAAAAcGdubTAA
        AABTZXEgMmsgS3JhZnR3ZXJrMyAoQStDLCBGK0EpAAAAAMQ5vl//fwAA9CDXFQEAAABzdHAwQAAAAAAAAAAAAPsAAAD7AAAAAAAAAAAAAgAAAAAAAAAAAPsAAAAAAAAA
        AAAAAAAAAAAAAAAAAAAAAAAAAAAAAAAAAABzdHAxQAAAAAgICAgICAgICAgICAgICAgICAgICAgICAgICAgICAgICAgICAgICAgICAgICAgICAgICAgICAgICAgICAgI
        CAhzdHAyQAAAAAEAAAABAAEAAQABAAAAAQABAAAAAQABAAAAAAAAAAEAAQEBAQEBAQEBAQEBAQEBAQEBAQEBAQEBAQEBAQEBAQFzdHAzQAAAAAQEBAQEBAQEBAQEBAQE
        BAQIBAQEBAQEBAQEBAQEBAQEBAQEBAQEBAQEBAQEBAQEBAQEBAQEBAQEBAQEBAQEBARzdHA0QAAAAGBgYGBgYGBgYGBgYGBgYGBgYGBgYGBgYGBgYGBgYGBgYGBgYGBg
        YGBgYGBgYGBgYGBgYGBgYGBgYGBgYGBgYGBzdHA1QAAAAAAAAAAAAAAAAAAAAAAAAAAAAAAAAAAAAAAAAAAAAAAAAAAAAAAAAAAAAAAAAAAAAAAAAAAAAAAAAAAAAAAA
        AABwcm9nEgIAAHByZ3AiAAAAECBkBAEBAH8AfwBAAAEAAQAAAAAAAAAAAH8AAAAAAAAAAHBnbm0wAAAAU2VxIDJrIEtyYWZ0d2VyazMgKEErQywgRitBKQAAAADEOb5f
        /38AAPQg1xUBAAAAc3RwMEAAAAAAAAAAAAD7AAAA+wAAAAAAAAAAAAIAAAAAAAAAAAD7AAAAAAAAAAAAAAAAAAAAAAAAAAAAAAAAAAAAAAAAAAAAc3RwMUAAAAAICAgI
        CAgICAgICAgICAgICAgICAgICAgICAgICAgICAgICAgICAgICAgICAgICAgICAgICAgICAgICAgICAgIc3RwMkAAAAABAAAAAQABAAEAAQAAAAEAAQAAAAEAAQAAAAAA
        AAABAAEBAQEBAQEBAQEBAQEBAQEBAQEBAQEBAQEBAQEBAQEBc3RwM0AAAAAEBAQEBAQEBAQEBAQEBAQECAQEBAQEBAQEBAQEBAQEBAQEBAQEBAQEBAQEBAQEBAQEBAQE
        BAQEBAQEBAQEBAQEc3RwNEAAAABgYGBgYGBgYGBgYGBgYGBgYGBgYGBgYGBgYGBgYGBgYGBgYGBgYGBgYGBgYGBgYGBgYGBgYGBgYGBgYGBgYGBgc3RwNUAAAAAAAAAA
        AAAAAAAAAAAAAAAAAAAAAAAAAAAAAAAAAAAAAAAAAAAAAAAAAAAAAAAAAAAAAAAAAAAAAAAAAAAAAAAAcHJvZxICAABwcmdwIgAAABAgZAQBAQB/AH8AQAABAAEAAAAA
        AAAAAAB/AAAAAAAAAABwZ25tMAAAAFNlcSAyayBLcmFmdHdlcmszIChBK0MsIEYrQSkAAAAAxDm+X/9/AAD0INcVAQAAAHN0cDBAAAAAAAAAAAAA+wAAAPsAAAAAAAAA
        AAACAAAAAAAAAAAA+wAAAAAAAAAAAAAAAAAAAAAAAAAAAAAAAAAAAAAAAAAAAHN0cDFAAAAACAgICAgICAgICAgICAgICAgICAgICAgICAgICAgICAgICAgICAgICAgI
        CAgICAgICAgICAgICAgICAgICAgICHN0cDJAAAAAAQAAAAEAAQABAAEAAAABAAEAAAABAAEAAAAAAAAAAQABAQEBAQEBAQEBAQEBAQEBAQEBAQEBAQEBAQEBAQEBAXN0
        cDNAAAAABAQEBAQEBAQEBAQEBAQEBAgEBAQEBAQEBAQEBAQEBAQEBAQEBAQEBAQEBAQEBAQEBAQEBAQEBAQEBAQEBAQEBHN0cDRAAAAAYGBgYGBgYGBgYGBgYGBgYGBg
        YGBgYGBgYGBgYGBgYGBgYGBgYGBgYGBgYGBgYGBgYGBgYGBgYGBgYGBgYGBgYHN0cDVAAAAAAAAAAAAAAAAAAAAAAAAAAAAAAAAAAAAAAAAAAAAAAAAAAAAAAAAAAAAA
        AAAAAAAAAAAAAAAAAAAAAAAAAAAAAHByb2cSAgAAcHJncCIAAAAQIGQEAQEAfwB/AEAAAQABAAAAAAAAAAAAfwAAAAAAAAAAcGdubTAAAABTZXEgMmsgS3JhZnR3ZXJr
        MyAoQStDLCBGK0EpAAAAAMQ5vl//fwAA9CDXFQEAAABzdHAwQAAAAAAAAAAAAPsAAAD7AAAAAAAAAAAAAgAAAAAAAAAAAPsAAAAAAAAAAAAAAAAAAAAAAAAAAAAAAAAA
        AAAAAAAAAABzdHAxQAAAAAgICAgICAgICAgICAgICAgICAgICAgICAgICAgICAgICAgICAgICAgICAgICAgICAgICAgICAgICAgICAgICAhzdHAyQAAAAAEAAAABAAEA
        AQABAAAAAQABAAAAAQABAAAAAAAAAAEAAQEBAQEBAQEBAQEBAQEBAQEBAQEBAQEBAQEBAQEBAQFzdHAzQAAAAAQEBAQEBAQEBAQEBAQEBAQIBAQEBAQEBAQEBAQEBAQE
        BAQEBAQEBAQEBAQEBAQEBAQEBAQEBAQEBAQEBAQEBARzdHA0QAAAAGBgYGBgYGBgYGBgYGBgYGBgYGBgYGBgYGBgYGBgYGBgYGBgYGBgYGBgYGBgYGBgYGBgYGBgYGBg
        YGBgYGBgYGBzdHA1QAAAAAAAAAAAAAAAAAAAAAAAAAAAAAAAAAAAAAAAAAAAAAAAAAAAAAAAAAAAAAAAAAAAAAAAAAAAAAAAAAAAAAAAAABwcm9nEgIAAHByZ3AiAAAA
        ECBkBAEBAH8AfwBAAAEAAQAAAAAAAAAAAH8AAAAAAAAAAHBnbm0wAAAAU2VxIDJrIEtyYWZ0d2VyazMgKEErQywgRitBKQAAAADEOb5f/38AAPQg1xUBAAAAc3RwMEAA
        AAAAAAAAAAD7AAAA+wAAAAAAAAAAAAIAAAAAAAAAAAD7AAAAAAAAAAAAAAAAAAAAAAAAAAAAAAAAAAAAAAAAAAAAc3RwMUAAAAAICAgICAgICAgICAgICAgICAgICAgI
        CAgICAgICAgICAgICAgICAgICAgICAgICAgICAgICAgICAgICAgICAgIc3RwMkAAAAABAAAAAQABAAEAAQAAAAEAAQAAAAEAAQAAAAAAAAABAAEBAQEBAQEBAQEBAQEB
        AQEBAQEBAQEBAQEBAQEBAQEBc3RwM0AAAAAEBAQEBAQEBAQEBAQEBAQECAQEBAQEBAQEBAQEBAQEBAQEBAQEBAQEBAQEBAQEBAQEBAQEBAQEBAQEBAQEBAQEc3RwNEAA
        AABgYGBgYGBgYGBgYGBgYGBgYGBgYGBgYGBgYGBgYGBgYGBgYGBgYGBgYGBgYGBgYGBgYGBgYGBgYGBgYGBgYGBgc3RwNUAAAAAAAAAAAAAAAAAAAAAAAAAAAAAAAAAA
        AAAAAAAAAAAAAAAAAAAAAAAAAAAAAAAAAAAAAAAAAAAAAAAAAAAAAAAAcHJvZxICAABwcmdwIgAAABAgZAQBAQB/AH8AQAABAAEAAAAAAAAAAAB/AAAAAAAAAABwZ25t
        MAAAAFNlcSAyayBLcmFmdHdlcmszIChBK0MsIEYrQSkAAAAAxDm+X/9/AAD0INcVAQAAAHN0cDBAAAAAAAAAAAAA+wAAAPsAAAAAAAAAAAACAAAAAAAAAAAA+wAAAAAA
        AAAAAAAAAAAAAAAAAAAAAAAAAAAAAAAAAAAAAHN0cDFAAAAACAgICAgICAgICAgICAgICAgICAgICAgICAgICAgICAgICAgICAgICAgICAgICAgICAgICAgICAgICAgI
        CAgICHN0cDJAAAAAAQAAAAEAAQABAAEAAAABAAEAAAABAAEAAAAAAAAAAQABAQEBAQEBAQEBAQEBAQEBAQEBAQEBAQEBAQEBAQEBAXN0cDNAAAAABAQEBAQEBAQEBAQE
        BAQEBAgEBAQEBAQEBAQEBAQEBAQEBAQEBAQEBAQEBAQEBAQEBAQEBAQEBAQEBAQEBAQEBHN0cDRAAAAAYGBgYGBgYGBgYGBgYGBgYGBgYGBgYGBgYGBgYGBgYGBgYGBg
        YGBgYGBgYGBgYGBgYGBgYGBgYGBgYGBgYGBgYHN0cDVAAAAAAAAAAAAAAAAAAAAAAAAAAAAAAAAAAAAAAAAAAAAAAAAAAAAAAAAAAAAAAAAAAAAAAAAAAAAAAAAAAAAA
        AAAAAHByb2cSAgAAcHJncCIAAAAQIGQEAQEAfwB/AEAAAQABAAAAAAAAAAAAfwAAAAAAAAAAcGdubTAAAABTZXEgMmsgS3JhZnR3ZXJrMyAoQStDLCBGK0EpAAAAAMQ5
        vl//fwAA9CDXFQEAAABzdHAwQAAAAAAAAAAAAPsAAAD7AAAAAAAAAAAAAgAAAAAAAAAAAPsAAAAAAAAAAAAAAAAAAAAAAAAAAAAAAAAAAAAAAAAAAABzdHAxQAAAAAgI
        CAgICAgICAgICAgICAgICAgICAgICAgICAgICAgICAgICAgICAgICAgICAgICAgICAgICAgICAgICAgICAhzdHAyQAAAAAEAAAABAAEAAQABAAAAAQABAAAAAQABAAAA
        AAAAAAEAAQEBAQEBAQEBAQEBAQEBAQEBAQEBAQEBAQEBAQEBAQFzdHAzQAAAAAQEBAQEBAQEBAQEBAQEBAQIBAQEBAQEBAQEBAQEBAQEBAQEBAQEBAQEBAQEBAQEBAQE
        BAQEBAQEBAQEBAQEBARzdHA0QAAAAGBgYGBgYGBgYGBgYGBgYGBgYGBgYGBgYGBgYGBgYGBgYGBgYGBgYGBgYGBgYGBgYGBgYGBgYGBgYGBgYGBgYGBzdHA1QAAAAAAA
        AAAAAAAAAAAAAAAAAAAAAAAAAAAAAAAAAAAAAAAAAAAAAAAAAAAAAAAAAAAAAAAAAAAAAAAAAAAAAAAAAABwcm9nEgIAAHByZ3AiAAAAECBkBAEBAH8AfwBAAAEAAQAA
        AAAAAAAAAH8AAAAAAAAAAHBnbm0wAAAAU2VxIDJrIEtyYWZ0d2VyazMgKEErQywgRitBKQAAAADEOb5f/38AAPQg1xUBAAAAc3RwMEAAAAAAAAAAAAD7AAAA+wAAAAAA
        AAAAAAIAAAAAAAAAAAD7AAAAAAAAAAAAAAAAAAAAAAAAAAAAAAAAAAAAAAAAAAAAc3RwMUAAAAAICAgICAgICAgICAgICAgICAgICAgICAgICAgICAgICAgICAgICAgI
        CAgICAgICAgICAgICAgICAgICAgICAgIc3RwMkAAAAABAAAAAQABAAEAAQAAAAEAAQAAAAEAAQAAAAAAAAABAAEBAQEBAQEBAQEBAQEBAQEBAQEBAQEBAQEBAQEBAQEB
        c3RwM0AAAAAEBAQEBAQEBAQEBAQEBAQECAQEBAQEBAQEBAQEBAQEBAQEBAQEBAQEBAQEBAQEBAQEBAQEBAQEBAQEBAQEBAQEc3RwNEAAAABgYGBgYGBgYGBgYGBgYGBg
        YGBgYGBgYGBgYGBgYGBgYGBgYGBgYGBgYGBgYGBgYGBgYGBgYGBgYGBgYGBgYGBgc3RwNUAAAAAAAAAAAAAAAAAAAAAAAAAAAAAAAAAAAAAAAAAAAAAAAAAAAAAAAAAA
        AAAAAAAAAAAAAAAAAAAAAAAAAAAAAAAAcHJvZxICAABwcmdwIgAAABAgZAQBAQB/AH8AQAABAAEAAAAAAAAAAAB/AAAAAAAAAABwZ25tMAAAAFNlcSAyayBLcmFmdHdl
        cmszIChBK0MsIEYrQSkAAAAAxDm+X/9/AAD0INcVAQAAAHN0cDBAAAAAAAAAAAAA+wAAAPsAAAAAAAAAAAACAAAAAAAAAAAA+wAAAAAAAAAAAAAAAAAAAAAAAAAAAAAA
        AAAAAAAAAAAAAHN0cDFAAAAACAgICAgICAgICAgICAgICAgICAgICAgICAgICAgICAgICAgICAgICAgICAgICAgICAgICAgICAgICAgICAgICHN0cDJAAAAAAQAAAAEA
        AQABAAEAAAABAAEAAAABAAEAAAAAAAAAAQABAQEBAQEBAQEBAQEBAQEBAQEBAQEBAQEBAQEBAQEBAXN0cDNAAAAABAQEBAQEBAQEBAQEBAQEBAgEBAQEBAQEBAQEBAQE
        BAQEBAQEBAQEBAQEBAQEBAQEBAQEBAQEBAQEBAQEBAQEBHN0cDRAAAAAYGBgYGBgYGBgYGBgYGBgYGBgYGBgYGBgYGBgYGBgYGBgYGBgYGBgYGBgYGBgYGBgYGBgYGBg
        YGBgYGBgYGBgYHN0cDVAAAAAAAAAAAAAAAAAAAAAAAAAAAAAAAAAAAAAAAAAAAAAAAAAAAAAAAAAAAAAAAAAAAAAAAAAAAAAAAAAAAAAAAAAAHByb2cSAgAAcHJncCIA
        AAAQIGQEAQEAfwB/AEAAAQABAAAAAAAAAAAAfwAAAAAAAAAAcGdubTAAAABTZXEgMmsgS3JhZnR3ZXJrMyAoQStDLCBGK0EpAAAAAMQ5vl//fwAA9CDXFQEAAABzdHAw
        QAAAAAAAAAAAAPsAAAD7AAAAAAAAAAAAAgAAAAAAAAAAAPsAAAAAAAAAAAAAAAAAAAAAAAAAAAAAAAAAAAAAAAAAAABzdHAxQAAAAAgICAgICAgICAgICAgICAgICAgI
        CAgICAgICAgICAgICAgICAgICAgICAgICAgICAgICAgICAgICAgICAgICAhzdHAyQAAAAAEAAAABAAEAAQABAAAAAQABAAAAAQABAAAAAAAAAAEAAQEBAQEBAQEBAQEB
        AQEBAQEBAQEBAQEBAQEBAQEBAQFzdHAzQAAAAAQEBAQEBAQEBAQEBAQEBAQIBAQEBAQEBAQEBAQEBAQEBAQEBAQEBAQEBAQEBAQEBAQEBAQEBAQEBAQEBAQEBARzdHA0
        QAAAAGBgYGBgYGBgYGBgYGBgYGBgYGBgYGBgYGBgYGBgYGBgYGBgYGBgYGBgYGBgYGBgYGBgYGBgYGBgYGBgYGBgYGBzdHA1QAAAAAAAAAAAAAAAAAAAAAAAAAAAAAAA
        AAAAAAAAAAAAAAAAAAAAAAAAAAAAAAAAAAAAAAAAAAAAAAAAAAAAAAAAAABwcm9nEgIAAHByZ3AiAAAAECBkBAEBAH8AfwBAAAEAAQAAAAAAAAAAAH8AAAAAAAAAAHBn
        bm0wAAAAU2VxIDJrIEtyYWZ0d2VyazMgKEErQywgRitBKQAAAADEOb5f/38AAPQg1xUBAAAAc3RwMEAAAAAAAAAAAAD7AAAA+wAAAAAAAAAAAAIAAAAAAAAAAAD7AAAA
        AAAAAAAAAAAAAAAAAAAAAAAAAAAAAAAAAAAAAAAAc3RwMUAAAAAICAgICAgICAgICAgICAgICAgICAgICAgICAgICAgICAgICAgICAgICAgICAgICAgICAgICAgICAgI
        CAgICAgIc3RwMkAAAAABAAAAAQABAAEAAQAAAAEAAQAAAAEAAQAAAAAAAAABAAEBAQEBAQEBAQEBAQEBAQEBAQEBAQEBAQEBAQEBAQEBc3RwM0AAAAAEBAQEBAQEBAQE
        BAQEBAQECAQEBAQEBAQEBAQEBAQEBAQEBAQEBAQEBAQEBAQEBAQEBAQEBAQEBAQEBAQEBAQEc3RwNEAAAABgYGBgYGBgYGBgYGBgYGBgYGBgYGBgYGBgYGBgYGBgYGBg
        YGBgYGBgYGBgYGBgYGBgYGBgYGBgYGBgYGBgYGBgc3RwNUAAAAAAAAAAAAAAAAAAAAAAAAAAAAAAAAAAAAAAAAAAAAAAAAAAAAAAAAAAAAAAAAAAAAAAAAAAAAAAAAAA
        AAAAAAAAcHJvZxICAABwcmdwIgAAABAgZAQBAQB/AH8AQAABAAEAAAAAAAAAAAB/AAAAAAAAAABwZ25tMAAAAFNlcSAyayBLcmFmdHdlcmszIChBK0MsIEYrQSkAAAAA
        xDm+X/9/AAD0INcVAQAAAHN0cDBAAAAAAAAAAAAA+wAAAPsAAAAAAAAAAAACAAAAAAAAAAAA+wAAAAAAAAAAAAAAAAAAAAAAAAAAAAAAAAAAAAAAAAAAAHN0cDFAAAAA
        CAgICAgICAgICAgICAgICAgICAgICAgICAgICAgICAgICAgICAgICAgICAgICAgICAgICAgICAgICAgICAgICHN0cDJAAAAAAQAAAAEAAQABAAEAAAABAAEAAAABAAEA
        AAAAAAAAAQABAQEBAQEBAQEBAQEBAQEBAQEBAQEBAQEBAQEBAQEBAXN0cDNAAAAABAQEBAQEBAQEBAQEBAQEBAgEBAQEBAQEBAQEBAQEBAQEBAQEBAQEBAQEBAQEBAQE
        BAQEBAQEBAQEBAQEBAQEBHN0cDRAAAAAYGBgYGBgYGBgYGBgYGBgYGBgYGBgYGBgYGBgYGBgYGBgYGBgYGBgYGBgYGBgYGBgYGBgYGBgYGBgYGBgYGBgYHN0cDVAAAAA
        AAAAAAAAAAAAAAAAAAAAAAAAAAAAAAAAAAAAAAAAAAAAAAAAAAAAAAAAAAAAAAAAAAAAAAAAAAAAAAAAAAAAAHByb2cSAgAAcHJncCIAAAAQIGQEAQEAfwB/AEAAAQAB
        AAAAAAAAAAAAfwAAAAAAAAAAcGdubTAAAABTZXEgMmsgS3JhZnR3ZXJrMyAoQStDLCBGK0EpAAAAAMQ5vl//fwAA9CDXFQEAAABzdHAwQAAAAAAAAAAAAPsAAAD7AAAA
        AAAAAAAAAgAAAAAAAAAAAPsAAAAAAAAAAAAAAAAAAAAAAAAAAAAAAAAAAAAAAAAAAABzdHAxQAAAAAgICAgICAgICAgICAgICAgICAgICAgICAgICAgICAgICAgICAgI
        CAgICAgICAgICAgICAgICAgICAgICAgICAhzdHAyQAAAAAEAAAABAAEAAQABAAAAAQABAAAAAQABAAAAAAAAAAEAAQEBAQEBAQEBAQEBAQEBAQEBAQEBAQEBAQEBAQEB
        AQFzdHAzQAAAAAQEBAQEBAQEBAQEBAQEBAQIBAQEBAQEBAQEBAQEBAQEBAQEBAQEBAQEBAQEBAQEBAQEBAQEBAQEBAQEBAQEBARzdHA0QAAAAGBgYGBgYGBgYGBgYGBg
        YGBgYGBgYGBgYGBgYGBgYGBgYGBgYGBgYGBgYGBgYGBgYGBgYGBgYGBgYGBgYGBgYGBzdHA1QAAAAAAAAAAAAAAAAAAAAAAAAAAAAAAAAAAAAAAAAAAAAAAAAAAAAAAA
        AAAAAAAAAAAAAAAAAAAAAAAAAAAAAAAAAABwcm9nEgIAAHByZ3AiAAAAECBkBAEBAH8AfwBAAAEAAQAAAAAAAAAAAH8AAAAAAAAAAHBnbm0wAAAAU2VxIDJrIEtyYWZ0
        d2VyazMgKEErQywgRitBKQAAAADEOb5f/38AAPQg1xUBAAAAc3RwMEAAAAAAAAAAAAD7AAAA+wAAAAAAAAAAAAIAAAAAAAAAAAD7AAAAAAAAAAAAAAAAAAAAAAAAAAAA
        AAAAAAAAAAAAAAAAc3RwMUAAAAAICAgICAgICAgICAgICAgICAgICAgICAgICAgICAgICAgICAgICAgICAgICAgICAgICAgICAgICAgICAgICAgIc3RwMkAAAAABAAAA
        AQABAAEAAQAAAAEAAQAAAAEAAQAAAAAAAAABAAEBAQEBAQEBAQEBAQEBAQEBAQEBAQEBAQEBAQEBAQEBc3RwM0AAAAAEBAQEBAQEBAQEBAQEBAQECAQEBAQEBAQEBAQE
        BAQEBAQEBAQEBAQEBAQEBAQEBAQEBAQEBAQEBAQEBAQEBAQEc3RwNEAAAABgYGBgYGBgYGBgYGBgYGBgYGBgYGBgYGBgYGBgYGBgYGBgYGBgYGBgYGBgYGBgYGBgYGBg
        YGBgYGBgYGBgYGBgc3RwNUAAAAAAAAAAAAAAAAAAAAAAAAAAAAAAAAAAAAAAAAAAAAAAAAAAAAAAAAAAAAAAAAAAAAAAAAAAAAAAAAAAAAAAAAAAcHJvZxICAABwcmdw
        IgAAABAgZAQBAQB/AH8AQAABAAEAAAAAAAAAAAB/AAAAAAAAAABwZ25tMAAAAFNlcSAyayBLcmFmdHdlcmszIChBK0MsIEYrQSkAAAAAxDm+X/9/AAD0INcVAQAAAHN0
        cDBAAAAAAAAAAAAA+wAAAPsAAAAAAAAAAAACAAAAAAAAAAAA+wAAAAAAAAAAAAAAAAAAAAAAAAAAAAAAAAAAAAAAAAAAAHN0cDFAAAAACAgICAgICAgICAgICAgICAgI
        CAgICAgICAgICAgICAgICAgICAgICAgICAgICAgICAgICAgICAgICAgICAgICHN0cDJAAAAAAQAAAAEAAQABAAEAAAABAAEAAAABAAEAAAAAAAAAAQABAQEBAQEBAQEB
        AQEBAQEBAQEBAQEBAQEBAQEBAQEBAXN0cDNAAAAABAQEBAQEBAQEBAQEBAQEBAgEBAQEBAQEBAQEBAQEBAQEBAQEBAQEBAQEBAQEBAQEBAQEBAQEBAQEBAQEBAQEBHN0
        cDRAAAAAYGBgYGBgYGBgYGBgYGBgYGBgYGBgYGBgYGBgYGBgYGBgYGBgYGBgYGBgYGBgYGBgYGBgYGBgYGBgYGBgYGBgYHN0cDVAAAAAAAAAAAAAAAAAAAAAAAAAAAAA
        AAAAAAAAAAAAAAAAAAAAAAAAAAAAAAAAAAAAAAAAAAAAAAAAAAAAAAAAAAAAAHByb2cSAgAAcHJncCIAAAAQIGQEAQEAfwB/AEAAAQABAAAAAAAAAAAAfwAAAAAAAAAA
        cGdubTAAAABTZXEgMmsgS3JhZnR3ZXJrMyAoQStDLCBGK0EpAAAAAMQ5vl//fwAA9CDXFQEAAABzdHAwQAAAAAAAAAAAAPsAAAD7AAAAAAAAAAAAAgAAAAAAAAAAAPsA
        AAAAAAAAAAAAAAAAAAAAAAAAAAAAAAAAAAAAAAAAAABzdHAxQAAAAAgICAgICAgICAgICAgICAgICAgICAgICAgICAgICAgICAgICAgICAgICAgICAgICAgICAgICAgI
        CAgICAgICAhzdHAyQAAAAAEAAAABAAEAAQABAAAAAQABAAAAAQABAAAAAAAAAAEAAQEBAQEBAQEBAQEBAQEBAQEBAQEBAQEBAQEBAQEBAQFzdHAzQAAAAAQEBAQEBAQE
        BAQEBAQEBAQIBAQEBAQEBAQEBAQEBAQEBAQEBAQEBAQEBAQEBAQEBAQEBAQEBAQEBAQEBAQEBARzdHA0QAAAAGBgYGBgYGBgYGBgYGBgYGBgYGBgYGBgYGBgYGBgYGBg
        YGBgYGBgYGBgYGBgYGBgYGBgYGBgYGBgYGBgYGBgYGBzdHA1QAAAAAAAAAAAAAAAAAAAAAAAAAAAAAAAAAAAAAAAAAAAAAAAAAAAAAAAAAAAAAAAAAAAAAAAAAAAAAAA
        AAAAAAAAAABwcm9nEgIAAHByZ3AiAAAAECBkBAEBAH8AfwBAAAEAAQAAAAAAAAAAAH8AAAAAAAAAAHBnbm0wAAAAU2VxIDJrIEtyYWZ0d2VyazMgKEErQywgRitBKQAA
        AADEOb5f/38AAPQg1xUBAAAAc3RwMEAAAAAAAAAAAAD7AAAA+wAAAAAAAAAAAAIAAAAAAAAAAAD7AAAAAAAAAAAAAAAAAAAAAAAAAAAAAAAAAAAAAAAAAAAAc3RwMUAA
        AAAICAgICAgICAgICAgICAgICAgICAgICAgICAgICAgICAgICAgICAgICAgICAgICAgICAgICAgICAgICAgICAgIc3RwMkAAAAABAAAAAQABAAEAAQAAAAEAAQAAAAEA
        AQAAAAAAAAABAAEBAQEBAQEBAQEBAQEBAQEBAQEBAQEBAQEBAQEBAQEBc3RwM0AAAAAEBAQEBAQEBAQEBAQEBAQECAQEBAQEBAQEBAQEBAQEBAQEBAQEBAQEBAQEBAQE
        BAQEBAQEBAQEBAQEBAQEBAQEc3RwNEAAAABgYGBgYGBgYGBgYGBgYGBgYGBgYGBgYGBgYGBgYGBgYGBgYGBgYGBgYGBgYGBgYGBgYGBgYGBgYGBgYGBgYGBgc3RwNUAA
        AAAAAAAAAAAAAAAAAAAAAAAAAAAAAAAAAAAAAAAAAAAAAAAAAAAAAAAAAAAAAAAAAAAAAAAAAAAAAAAAAAAAAAAAcHJvZxICAABwcmdwIgAAABAgZAQBAQB/AH8AQAAB
        AAEAAAAAAAAAAAB/AAAAAAAAAABwZ25tMAAAAFNlcSAyayBLcmFmdHdlcmszIChBK0MsIEYrQSkAAAAAxDm+X/9/AAD0INcVAQAAAHN0cDBAAAAAAAAAAAAA+wAAAPsA
        AAAAAAAAAAACAAAAAAAAAAAA+wAAAAAAAAAAAAAAAAAAAAAAAAAAAAAAAAAAAAAAAAAAAHN0cDFAAAAACAgICAgICAgICAgICAgICAgICAgICAgICAgICAgICAgICAgI
        CAgICAgICAgICAgICAgICAgICAgICAgICAgICHN0cDJAAAAAAQAAAAEAAQABAAEAAAABAAEAAAABAAEAAAAAAAAAAQABAQEBAQEBAQEBAQEBAQEBAQEBAQEBAQEBAQEB
        AQEBAXN0cDNAAAAABAQEBAQEBAQEBAQEBAQEBAgEBAQEBAQEBAQEBAQEBAQEBAQEBAQEBAQEBAQEBAQEBAQEBAQEBAQEBAQEBAQEBHN0cDRAAAAAYGBgYGBgYGBgYGBg
        YGBgYGBgYGBgYGBgYGBgYGBgYGBgYGBgYGBgYGBgYGBgYGBgYGBgYGBgYGBgYGBgYGBgYHN0cDVAAAAAAAAAAAAAAAAAAAAAAAAAAAAAAAAAAAAAAAAAAAAAAAAAAAAA
        AAAAAAAAAAAAAAAAAAAAAAAAAAAAAAAAAAAAAHByb2cSAgAAcHJncCIAAAAQIGQEAQEAfwB/AEAAAQABAAAAAAAAAAAAfwAAAAAAAAAAcGdubTAAAABTZXEgMmsgS3Jh
        ZnR3ZXJrMyAoQStDLCBGK0EpAAAAAMQ5vl//fwAA9CDXFQEAAABzdHAwQAAAAAAAAAAAAPsAAAD7AAAAAAAAAAAAAgAAAAAAAAAAAPsAAAAAAAAAAAAAAAAAAAAAAAAA
        AAAAAAAAAAAAAAAAAABzdHAxQAAAAAgICAgICAgICAgICAgICAgICAgICAgICAgICAgICAgICAgICAgICAgICAgICAgICAgICAgICAgICAgICAgICAhzdHAyQAAAAAEA
        AAABAAEAAQABAAAAAQABAAAAAQABAAAAAAAAAAEAAQEBAQEBAQEBAQEBAQEBAQEBAQEBAQEBAQEBAQEBAQFzdHAzQAAAAAQEBAQEBAQEBAQEBAQEBAQIBAQEBAQEBAQE
        BAQEBAQEBAQEBAQEBAQEBAQEBAQEBAQEBAQEBAQEBAQEBAQEBARzdHA0QAAAAGBgYGBgYGBgYGBgYGBgYGBgYGBgYGBgYGBgYGBgYGBgYGBgYGBgYGBgYGBgYGBgYGBg
        YGBgYGBgYGBgYGBgYGBzdHA1QAAAAAAAAAAAAAAAAAAAAAAAAAAAAAAAAAAAAAAAAAAAAAAAAAAAAAAAAAAAAAAAAAAAAAAAAAAAAAAAAAAAAAAAAABwcm9nEgIAAHBy
        Z3AiAAAAECBkBAEBAH8AfwBAAAEAAQAAAAAAAAAAAH8AAAAAAAAAAHBnbm0wAAAAU2VxIDJrIEtyYWZ0d2VyazMgKEErQywgRitBKQAAAADEOb5f/38AAPQg1xUBAAAA
        c3RwMEAAAAAAAAAAAAD7AAAA+wAAAAAAAAAAAAIAAAAAAAAAAAD7AAAAAAAAAAAAAAAAAAAAAAAAAAAAAAAAAAAAAAAAAAAAc3RwMUAAAAAICAgICAgICAgICAgICAgI
        CAgICAgICAgICAgICAgICAgICAgICAgICAgICAgICAgICAgICAgICAgICAgICAgIc3RwMkAAAAABAAAAAQABAAEAAQAAAAEAAQAAAAEAAQAAAAAAAAABAAEBAQEBAQEB
        AQEBAQEBAQEBAQEBAQEBAQEBAQEBAQEBc3RwM0AAAAAEBAQEBAQEBAQEBAQEBAQECAQEBAQEBAQEBAQEBAQEBAQEBAQEBAQEBAQEBAQEBAQEBAQEBAQEBAQEBAQEBAQE
        c3RwNEAAAABgYGBgYGBgYGBgYGBgYGBgYGBgYGBgYGBgYGBgYGBgYGBgYGBgYGBgYGBgYGBgYGBgYGBgYGBgYGBgYGBgYGBgc3RwNUAAAAAAAAAAAAAAAAAAAAAAAAAA
        AAAAAAAAAAAAAAAAAAAAAAAAAAAAAAAAAAAAAAAAAAAAAAAAAAAAAAAAAAAAAAAAcHJvZxICAABwcmdwIgAAABAgZAQBAQB/AH8AQAABAAEAAAAAAAAAAAB/AAAAAAAA
        AABwZ25tMAAAAFNlcSAyayBLcmFmdHdlcmszIChBK0MsIEYrQSkAAAAAxDm+X/9/AAD0INcVAQAAAHN0cDBAAAAAAAAAAAAA+wAAAPsAAAAAAAAAAAACAAAAAAAAAAAA
        +wAAAAAAAAAAAAAAAAAAAAAAAAAAAAAAAAAAAAAAAAAAAHN0cDFAAAAACAgICAgICAgICAgICAgICAgICAgICAgICAgICAgICAgICAgICAgICAgICAgICAgICAgICAgI
        CAgICAgICAgICHN0cDJAAAAAAQAAAAEAAQABAAEAAAABAAEAAAABAAEAAAAAAAAAAQABAQEBAQEBAQEBAQEBAQEBAQEBAQEBAQEBAQEBAQEBAXN0cDNAAAAABAQEBAQE
        BAQEBAQEBAQEBAgEBAQEBAQEBAQEBAQEBAQEBAQEBAQEBAQEBAQEBAQEBAQEBAQEBAQEBAQEBAQEBHN0cDRAAAAAYGBgYGBgYGBgYGBgYGBgYGBgYGBgYGBgYGBgYGBg
        YGBgYGBgYGBgYGBgYGBgYGBgYGBgYGBgYGBgYGBgYGBgYHN0cDVAAAAAAAAAAAAAAAAAAAAAAAAAAAAAAAAAAAAAAAAAAAAAAAAAAAAAAAAAAAAAAAAAAAAAAAAAAAAA
        AAAAAAAAAAAAAHByb2cSAgAAcHJncCIAAAAQIGQEAQEAfwB/AEAAAQABAAAAAAAAAAAAfwAAAAAAAAAAcGdubTAAAABTZXEgMmsgS3JhZnR3ZXJrMyAoQStDLCBGK0Ep
        AAAAAMQ5vl//fwAA9CDXFQEAAABzdHAwQAAAAAAAAAAAAPsAAAD7AAAAAAAAAAAAAgAAAAAAAAAAAPsAAAAAAAAAAAAAAAAAAAAAAAAAAAAAAAAAAAAAAAAAAABzdHAx
        QAAAAAgICAgICAgICAgICAgICAgICAgICAgICAgICAgICAgICAgICAgICAgICAgICAgICAgICAgICAgICAgICAgICAhzdHAyQAAAAAEAAAABAAEAAQABAAAAAQABAAAA
        AQABAAAAAAAAAAEAAQEBAQEBAQEBAQEBAQEBAQEBAQEBAQEBAQEBAQEBAQFzdHAzQAAAAAQEBAQEBAQEBAQEBAQEBAQIBAQEBAQEBAQEBAQEBAQEBAQEBAQEBAQEBAQE
        BAQEBAQEBAQEBAQEBAQEBAQEBARzdHA0QAAAAGBgYGBgYGBgYGBgYGBgYGBgYGBgYGBgYGBgYGBgYGBgYGBgYGBgYGBgYGBgYGBgYGBgYGBgYGBgYGBgYGBgYGBzdHA1
        QAAAAAAAAAAAAAAAAAAAAAAAAAAAAAAAAAAAAAAAAAAAAAAAAAAAAAAAAAAAAAAAAAAAAAAAAAAAAAAAAAAAAAAAAABwcm9nEgIAAHByZ3AiAAAAECBkBAEBAH8AfwBA
        AAEAAQAAAAAAAAAAAH8AAAAAAAAAAHBnbm0wAAAAU2VxIDJrIEtyYWZ0d2VyazMgKEErQywgRitBKQAAAADEOb5f/38AAPQg1xUBAAAAc3RwMEAAAAAAAAAAAAD7AAAA
        +wAAAAAAAAAAAAIAAAAAAAAAAAD7AAAAAAAAAAAAAAAAAAAAAAAAAAAAAAAAAAAAAAAAAAAAc3RwMUAAAAAICAgICAgICAgICAgICAgICAgICAgICAgICAgICAgICAgI
        CAgICAgICAgICAgICAgICAgICAgICAgICAgICAgIc3RwMkAAAAABAAAAAQABAAEAAQAAAAEAAQAAAAEAAQAAAAAAAAABAAEBAQEBAQEBAQEBAQEBAQEBAQEBAQEBAQEB
        AQEBAQEBc3RwM0AAAAAEBAQEBAQEBAQEBAQEBAQECAQEBAQEBAQEBAQEBAQEBAQEBAQEBAQEBAQEBAQEBAQEBAQEBAQEBAQEBAQEBAQEc3RwNEAAAABgYGBgYGBgYGBg
        YGBgYGBgYGBgYGBgYGBgYGBgYGBgYGBgYGBgYGBgYGBgYGBgYGBgYGBgYGBgYGBgYGBgYGBgc3RwNUAAAAAAAAAAAAAAAAAAAAAAAAAAAAAAAAAAAAAAAAAAAAAAAAAA
        AAAAAAAAAAAAAAAAAAAAAAAAAAAAAAAAAAAAAAAAcHJvZxICAABwcmdwIgAAABAgZAQBAQB/AH8AQAABAAEAAAAAAAAAAAB/AAAAAAAAAABwZ25tMAAAAFNlcSAyayBL
        cmFmdHdlcmszIChBK0MsIEYrQSkAAAAAxDm+X/9/AAD0INcVAQAAAHN0cDBAAAAAAAAAAAAA+wAAAPsAAAAAAAAAAAACAAAAAAAAAAAA+wAAAAAAAAAAAAAAAAAAAAAA
        AAAAAAAAAAAAAAAAAAAAAHN0cDFAAAAACAgICAgICAgICAgICAgICAgICAgICAgICAgICAgICAgICAgICAgICAgICAgICAgICAgICAgICAgICAgICAgICHN0cDJAAAAA
        AQAAAAEAAQABAAEAAAABAAEAAAABAAEAAAAAAAAAAQABAQEBAQEBAQEBAQEBAQEBAQEBAQEBAQEBAQEBAQEBAXN0cDNAAAAABAQEBAQEBAQEBAQEBAQEBAgEBAQEBAQE
        BAQEBAQEBAQEBAQEBAQEBAQEBAQEBAQEBAQEBAQEBAQEBAQEBAQEBHN0cDRAAAAAYGBgYGBgYGBgYGBgYGBgYGBgYGBgYGBgYGBgYGBgYGBgYGBgYGBgYGBgYGBgYGBg
        YGBgYGBgYGBgYGBgYGBgYHN0cDVAAAAAAAAAAAAAAAAAAAAAAAAAAAAAAAAAAAAAAAAAAAAAAAAAAAAAAAAAAAAAAAAAAAAAAAAAAAAAAAAAAAAAAAAAAHByb2cSAgAA
        cHJncCIAAAAQIGQEAQEAfwB/AEAAAQABAAAAAAAAAAAAfwAAAAAAAAAAcGdubTAAAABTZXEgMmsgS3JhZnR3ZXJrMyAoQStDLCBGK0EpAAAAAMQ5vl//fwAA9CDXFQEA
        AABzdHAwQAAAAAAAAAAAAPsAAAD7AAAAAAAAAAAAAgAAAAAAAAAAAPsAAAAAAAAAAAAAAAAAAAAAAAAAAAAAAAAAAAAAAAAAAABzdHAxQAAAAAgICAgICAgICAgICAgI
        CAgICAgICAgICAgICAgICAgICAgICAgICAgICAgICAgICAgICAgICAgICAgICAgICAhzdHAyQAAAAAEAAAABAAEAAQABAAAAAQABAAAAAQABAAAAAAAAAAEAAQEBAQEB
        AQEBAQEBAQEBAQEBAQEBAQEBAQEBAQEBAQFzdHAzQAAAAAQEBAQEBAQEBAQEBAQEBAQIBAQEBAQEBAQEBAQEBAQEBAQEBAQEBAQEBAQEBAQEBAQEBAQEBAQEBAQEBAQE
        BARzdHA0QAAAAGBgYGBgYGBgYGBgYGBgYGBgYGBgYGBgYGBgYGBgYGBgYGBgYGBgYGBgYGBgYGBgYGBgYGBgYGBgYGBgYGBgYGBzdHA1QAAAAAAAAAAAAAAAAAAAAAAA
        AAAAAAAAAAAAAAAAAAAAAAAAAAAAAAAAAAAAAAAAAAAAAAAAAAAAAAAAAAAAAAAAAABwcm9nEgIAAHByZ3AiAAAAECBkBAEBAH8AfwBAAAEAAQAAAAAAAAAAAH8AAAAA
        AAAAAHBnbm0wAAAAU2VxIDJrIEtyYWZ0d2VyazMgKEErQywgRitBKQAAAADEOb5f/38AAPQg1xUBAAAAc3RwMEAAAAAAAAAAAAD7AAAA+wAAAAAAAAAAAAIAAAAAAAAA
        AAD7AAAAAAAAAAAAAAAAAAAAAAAAAAAAAAAAAAAAAAAAAAAAc3RwMUAAAAAICAgICAgICAgICAgICAgICAgICAgICAgICAgICAgICAgICAgICAgICAgICAgICAgICAgI
        CAgICAgICAgICAgIc3RwMkAAAAABAAAAAQABAAEAAQAAAAEAAQAAAAEAAQAAAAAAAAABAAEBAQEBAQEBAQEBAQEBAQEBAQEBAQEBAQEBAQEBAQEBc3RwM0AAAAAEBAQE
        BAQEBAQEBAQEBAQECAQEBAQEBAQEBAQEBAQEBAQEBAQEBAQEBAQEBAQEBAQEBAQEBAQEBAQEBAQEBAQEc3RwNEAAAABgYGBgYGBgYGBgYGBgYGBgYGBgYGBgYGBgYGBg
        YGBgYGBgYGBgYGBgYGBgYGBgYGBgYGBgYGBgYGBgYGBgYGBgc3RwNUAAAAAAAAAAAAAAAAAAAAAAAAAAAAAAAAAAAAAAAAAAAAAAAAAAAAAAAAAAAAAAAAAAAAAAAAAA
        AAAAAAAAAAAAAAAAcHJvZxICAABwcmdwIgAAABAgZAQBAQB/AH8AQAABAAEAAAAAAAAAAAB/AAAAAAAAAABwZ25tMAAAAFNlcSAyayBLcmFmdHdlcmszIChBK0MsIEYr
        QSkAAAAAxDm+X/9/AAD0INcVAQAAAHN0cDBAAAAAAAAAAAAA+wAAAPsAAAAAAAAAAAACAAAAAAAAAAAA+wAAAAAAAAAAAAAAAAAAAAAAAAAAAAAAAAAAAAAAAAAAAHN0
        cDFAAAAACAgICAgICAgICAgICAgICAgICAgICAgICAgICAgICAgICAgICAgICAgICAgICAgICAgICAgICAgICAgICAgICHN0cDJAAAAAAQAAAAEAAQABAAEAAAABAAEA
        AAABAAEAAAAAAAAAAQABAQEBAQEBAQEBAQEBAQEBAQEBAQEBAQEBAQEBAQEBAXN0cDNAAAAABAQEBAQEBAQEBAQEBAQEBAgEBAQEBAQEBAQEBAQEBAQEBAQEBAQEBAQE
        BAQEBAQEBAQEBAQEBAQEBAQEBAQEBHN0cDRAAAAAYGBgYGBgYGBgYGBgYGBgYGBgYGBgYGBgYGBgYGBgYGBgYGBgYGBgYGBgYGBgYGBgYGBgYGBgYGBgYGBgYGBgYHN0
        cDVAAAAAAAAAAAAAAAAAAAAAAAAAAAAAAAAAAAAAAAAAAAAAAAAAAAAAAAAAAAAAAAAAAAAAAAAAAAAAAAAAAAAAAAAAAHByb2cSAgAAcHJncCIAAAAQIGQEAQEAfwB/
        AEAAAQABAAAAAAAAAAAAfwAAAAAAAAAAcGdubTAAAABTZXEgMmsgS3JhZnR3ZXJrMyAoQStDLCBGK0EpAAAAAMQ5vl//fwAA9CDXFQEAAABzdHAwQAAAAAAAAAAAAPsA
        AAD7AAAAAAAAAAAAAgAAAAAAAAAAAPsAAAAAAAAAAAAAAAAAAAAAAAAAAAAAAAAAAAAAAAAAAABzdHAxQAAAAAgICAgICAgICAgICAgICAgICAgICAgICAgICAgICAgI
        CAgICAgICAgICAgICAgICAgICAgICAgICAgICAgICAhzdHAyQAAAAAEAAAABAAEAAQABAAAAAQABAAAAAQABAAAAAAAAAAEAAQEBAQEBAQEBAQEBAQEBAQEBAQEBAQEB
        AQEBAQEBAQFzdHAzQAAAAAQEBAQEBAQEBAQEBAQEBAQIBAQEBAQEBAQEBAQEBAQEBAQEBAQEBAQEBAQEBAQEBAQEBAQEBAQEBAQEBAQEBARzdHA0QAAAAGBgYGBgYGBg
        YGBgYGBgYGBgYGBgYGBgYGBgYGBgYGBgYGBgYGBgYGBgYGBgYGBgYGBgYGBgYGBgYGBgYGBgYGBzdHA1QAAAAAAAAAAAAAAAAAAAAAAAAAAAAAAAAAAAAAAAAAAAAAAA
        AAAAAAAAAAAAAAAAAAAAAAAAAAAAAAAAAAAAAAAAAABwcm9nEgIAAHByZ3AiAAAAECBkBAEBAH8AfwBAAAEAAQAAAAAAAAAAAH8AAAAAAAAAAHBnbm0wAAAAU2VxIDJr
        IEtyYWZ0d2VyazMgKEErQywgRitBKQAAAADEOb5f/38AAPQg1xUBAAAAc3RwMEAAAAAAAAAAAAD7AAAA+wAAAAAAAAAAAAIAAAAAAAAAAAD7AAAAAAAAAAAAAAAAAAAA
        AAAAAAAAAAAAAAAAAAAAAAAAc3RwMUAAAAAICAgICAgICAgICAgICAgICAgICAgICAgICAgICAgICAgICAgICAgICAgICAgICAgICAgICAgICAgICAgICAgIc3RwMkAA
        AAABAAAAAQABAAEAAQAAAAEAAQAAAAEAAQAAAAAAAAABAAEBAQEBAQEBAQEBAQEBAQEBAQEBAQEBAQEBAQEBAQEBc3RwM0AAAAAEBAQEBAQEBAQEBAQEBAQECAQEBAQE
        BAQEBAQEBAQEBAQEBAQEBAQEBAQEBAQEBAQEBAQEBAQEBAQEBAQEBAQEc3RwNEAAAABgYGBgYGBgYGBgYGBgYGBgYGBgYGBgYGBgYGBgYGBgYGBgYGBgYGBgYGBgYGBg
        YGBgYGBgYGBgYGBgYGBgYGBgc3RwNUAAAAAAAAAAAAAAAAAAAAAAAAAAAAAAAAAAAAAAAAAAAAAAAAAAAAAAAAAAAAAAAAAAAAAAAAAAAAAAAAAAAAAAAAAAcHJvZxIC
        AABwcmdwIgAAABAgZAQBAQB/AH8AQAABAAEAAAAAAAAAAAB/AAAAAAAAAABwZ25tMAAAAFNlcSAyayBLcmFmdHdlcmszIChBK0MsIEYrQSkAAAAAxDm+X/9/AAD0INcV
        AQAAAHN0cDBAAAAAAAAAAAAA+wAAAPsAAAAAAAAAAAACAAAAAAAAAAAA+wAAAAAAAAAAAAAAAAAAAAAAAAAAAAAAAAAAAAAAAAAAAHN0cDFAAAAACAgICAgICAgICAgI
        CAgICAgICAgICAgICAgICAgICAgICAgICAgICAgICAgICAgICAgICAgICAgICAgICAgICHN0cDJAAAAAAQAAAAEAAQABAAEAAAABAAEAAAABAAEAAAAAAAAAAQABAQEB
        AQEBAQEBAQEBAQEBAQEBAQEBAQEBAQEBAQEBAXN0cDNAAAAABAQEBAQEBAQEBAQEBAQEBAgEBAQEBAQEBAQEBAQEBAQEBAQEBAQEBAQEBAQEBAQEBAQEBAQEBAQEBAQE
        BAQEBHN0cDRAAAAAYGBgYGBgYGBgYGBgYGBgYGBgYGBgYGBgYGBgYGBgYGBgYGBgYGBgYGBgYGBgYGBgYGBgYGBgYGBgYGBgYGBgYHN0cDVAAAAAAAAAAAAAAAAAAAAA
        AAAAAAAAAAAAAAAAAAAAAAAAAAAAAAAAAAAAAAAAAAAAAAAAAAAAAAAAAAAAAAAAAAAAAHByb2cSAgAAcHJncCIAAAAQIGQEAQEAfwB/AEAAAQABAAAAAAAAAAAAfwAA
        AAAAAAAAcGdubTAAAABTZXEgMmsgS3JhZnR3ZXJrMyAoQStDLCBGK0EpAAAAAMQ5vl//fwAA9CDXFQEAAABzdHAwQAAAAAAAAAAAAPsAAAD7AAAAAAAAAAAAAgAAAAAA
        AAAAAPsAAAAAAAAAAAAAAAAAAAAAAAAAAAAAAAAAAAAAAAAAAABzdHAxQAAAAAgICAgICAgICAgICAgICAgICAgICAgICAgICAgICAgICAgICAgICAgICAgICAgICAgI
        CAgICAgICAgICAgICAhzdHAyQAAAAAEAAAABAAEAAQABAAAAAQABAAAAAQABAAAAAAAAAAEAAQEBAQEBAQEBAQEBAQEBAQEBAQEBAQEBAQEBAQEBAQFzdHAzQAAAAAQE
        BAQEBAQEBAQEBAQEBAQIBAQEBAQEBAQEBAQEBAQEBAQEBAQEBAQEBAQEBAQEBAQEBAQEBAQEBAQEBAQEBARzdHA0QAAAAGBgYGBgYGBgYGBgYGBgYGBgYGBgYGBgYGBg
        YGBgYGBgYGBgYGBgYGBgYGBgYGBgYGBgYGBgYGBgYGBgYGBgYGBzdHA1QAAAAAAAAAAAAAAAAAAAAAAAAAAAAAAAAAAAAAAAAAAAAAAAAAAAAAAAAAAAAAAAAAAAAAAA
        AAAAAAAAAAAAAAAAAABwcm9nEgIAAHByZ3AiAAAAECBkBAEBAH8AfwBAAAEAAQAAAAAAAAAAAH8AAAAAAAAAAHBnbm0wAAAAU2VxIDJrIEtyYWZ0d2VyazMgKEErQywg
        RitBKQAAAADEOb5f/38AAPQg1xUBAAAAc3RwMEAAAAAAAAAAAAD7AAAA+wAAAAAAAAAAAAIAAAAAAAAAAAD7AAAAAAAAAAAAAAAAAAAAAAAAAAAAAAAAAAAAAAAAAAAA
        c3RwMUAAAAAICAgICAgICAgICAgICAgICAgICAgICAgICAgICAgICAgICAgICAgICAgICAgICAgICAgICAgICAgICAgICAgIc3RwMkAAAAABAAAAAQABAAEAAQAAAAEA
        AQAAAAEAAQAAAAAAAAABAAEBAQEBAQEBAQEBAQEBAQEBAQEBAQEBAQEBAQEBAQEBc3RwM0AAAAAEBAQEBAQEBAQEBAQEBAQECAQEBAQEBAQEBAQEBAQEBAQEBAQEBAQE
        BAQEBAQEBAQEBAQEBAQEBAQEBAQEBAQEc3RwNEAAAABgYGBgYGBgYGBgYGBgYGBgYGBgYGBgYGBgYGBgYGBgYGBgYGBgYGBgYGBgYGBgYGBgYGBgYGBgYGBgYGBgYGBg
        c3RwNUAAAAAAAAAAAAAAAAAAAAAAAAAAAAAAAAAAAAAAAAAAAAAAAAAAAAAAAAAAAAAAAAAAAAAAAAAAAAAAAAAAAAAAAAAAcHJvZxICAABwcmdwIgAAABAgZAQBAQB/
        AH8AQAABAAEAAAAAAAAAAAB/AAAAAAAAAABwZ25tMAAAAFNlcSAyayBLcmFmdHdlcmszIChBK0MsIEYrQSkAAAAAxDm+X/9/AAD0INcVAQAAAHN0cDBAAAAAAAAAAAAA
        +wAAAPsAAAAAAAAAAAACAAAAAAAAAAAA+wAAAAAAAAAAAAAAAAAAAAAAAAAAAAAAAAAAAAAAAAAAAHN0cDFAAAAACAgICAgICAgICAgICAgICAgICAgICAgICAgICAgI
        CAgICAgICAgICAgICAgICAgICAgICAgICAgICAgICAgICHN0cDJAAAAAAQAAAAEAAQABAAEAAAABAAEAAAABAAEAAAAAAAAAAQABAQEBAQEBAQEBAQEBAQEBAQEBAQEB
        AQEBAQEBAQEBAXN0cDNAAAAABAQEBAQEBAQEBAQEBAQEBAgEBAQEBAQEBAQEBAQEBAQEBAQEBAQEBAQEBAQEBAQEBAQEBAQEBAQEBAQEBAQEBHN0cDRAAAAAYGBgYGBg
        YGBgYGBgYGBgYGBgYGBgYGBgYGBgYGBgYGBgYGBgYGBgYGBgYGBgYGBgYGBgYGBgYGBgYGBgYGBgYHN0cDVAAAAAAAAAAAAAAAAAAAAAAAAAAAAAAAAAAAAAAAAAAAAA
        AAAAAAAAAAAAAAAAAAAAAAAAAAAAAAAAAAAAAAAAAAAAAHByb2cSAgAAcHJncCIAAAAQIGQEAQEAfwB/AEAAAQABAAAAAAAAAAAAfwAAAAAAAAAAcGdubTAAAABTZXEg
        MmsgS3JhZnR3ZXJrMyAoQStDLCBGK0EpAAAAAMQ5vl//fwAA9CDXFQEAAABzdHAwQAAAAAAAAAAAAPsAAAD7AAAAAAAAAAAAAgAAAAAAAAAAAPsAAAAAAAAAAAAAAAAA
        AAAAAAAAAAAAAAAAAAAAAAAAAABzdHAxQAAAAAgICAgICAgICAgICAgICAgICAgICAgICAgICAgICAgICAgICAgICAgICAgICAgICAgICAgICAgICAgICAgICAhzdHAy
        QAAAAAEAAAABAAEAAQABAAAAAQABAAAAAQABAAAAAAAAAAEAAQEBAQEBAQEBAQEBAQEBAQEBAQEBAQEBAQEBAQEBAQFzdHAzQAAAAAQEBAQEBAQEBAQEBAQEBAQIBAQE
        BAQEBAQEBAQEBAQEBAQEBAQEBAQEBAQEBAQEBAQEBAQEBAQEBAQEBAQEBARzdHA0QAAAAGBgYGBgYGBgYGBgYGBgYGBgYGBgYGBgYGBgYGBgYGBgYGBgYGBgYGBgYGBg
        YGBgYGBgYGBgYGBgYGBgYGBgYGBzdHA1QAAAAAAAAAAAAAAAAAAAAAAAAAAAAAAAAAAAAAAAAAAAAAAAAAAAAAAAAAAAAAAAAAAAAAAAAAAAAAAAAAAAAAAAAABwcm9n
        EgIAAHByZ3AiAAAAECBkBAEBAH8AfwBAAAEAAQAAAAAAAAAAAH8AAAAAAAAAAHBnbm0wAAAAU2VxIDJrIEtyYWZ0d2VyazMgKEErQywgRitBKQAAAADEOb5f/38AAPQg
        1xUBAAAAc3RwMEAAAAAAAAAAAAD7AAAA+wAAAAAAAAAAAAIAAAAAAAAAAAD7AAAAAAAAAAAAAAAAAAAAAAAAAAAAAAAAAAAAAAAAAAAAc3RwMUAAAAAICAgICAgICAgI
        CAgICAgICAgICAgICAgICAgICAgICAgICAgICAgICAgICAgICAgICAgICAgICAgICAgICAgIc3RwMkAAAAABAAAAAQABAAEAAQAAAAEAAQAAAAEAAQAAAAAAAAABAAEB
        AQEBAQEBAQEBAQEBAQEBAQEBAQEBAQEBAQEBAQEBc3RwM0AAAAAEBAQEBAQEBAQEBAQEBAQECAQEBAQEBAQEBAQEBAQEBAQEBAQEBAQEBAQEBAQEBAQEBAQEBAQEBAQE
        BAQEBAQEc3RwNEAAAABgYGBgYGBgYGBgYGBgYGBgYGBgYGBgYGBgYGBgYGBgYGBgYGBgYGBgYGBgYGBgYGBgYGBgYGBgYGBgYGBgYGBgc3RwNUAAAAAAAAAAAAAAAAAA
        AAAAAAAAAAAAAAAAAAAAAAAAAAAAAAAAAAAAAAAAAAAAAAAAAAAAAAAAAAAAAAAAAAAAAAAAcHJvZxICAABwcmdwIgAAABAgZAQBAQB/AH8AQAABAAEAAAAAAAAAAAB/
        AAAAAAAAAABwZ25tMAAAAFNlcSAyayBLcmFmdHdlcmszIChBK0MsIEYrQSkAAAAAxDm+X/9/AAD0INcVAQAAAHN0cDBAAAAAAAAAAAAA+wAAAPsAAAAAAAAAAAACAAAA
        AAAAAAAA+wAAAAAAAAAAAAAAAAAAAAAAAAAAAAAAAAAAAAAAAAAAAHN0cDFAAAAACAgICAgICAgICAgICAgICAgICAgICAgICAgICAgICAgICAgICAgICAgICAgICAgI
        CAgICAgICAgICAgICAgICHN0cDJAAAAAAQAAAAEAAQABAAEAAAABAAEAAAABAAEAAAAAAAAAAQABAQEBAQEBAQEBAQEBAQEBAQEBAQEBAQEBAQEBAQEBAXN0cDNAAAAA
        BAQEBAQEBAQEBAQEBAQEBAgEBAQEBAQEBAQEBAQEBAQEBAQEBAQEBAQEBAQEBAQEBAQEBAQEBAQEBAQEBAQEBHN0cDRAAAAAYGBgYGBgYGBgYGBgYGBgYGBgYGBgYGBg
        YGBgYGBgYGBgYGBgYGBgYGBgYGBgYGBgYGBgYGBgYGBgYGBgYGBgYHN0cDVAAAAAAAAAAAAAAAAAAAAAAAAAAAAAAAAAAAAAAAAAAAAAAAAAAAAAAAAAAAAAAAAAAAAA
        AAAAAAAAAAAAAAAAAAAAAHByb2cSAgAAcHJncCIAAAAQIGQEAQEAfwB/AEAAAQABAAAAAAAAAAAAfwAAAAAAAAAAcGdubTAAAABTZXEgMmsgS3JhZnR3ZXJrMyAoQStD
        LCBGK0EpAAAAAMQ5vl//fwAA9CDXFQEAAABzdHAwQAAAAAAAAAAAAPsAAAD7AAAAAAAAAAAAAgAAAAAAAAAAAPsAAAAAAAAAAAAAAAAAAAAAAAAAAAAAAAAAAAAAAAAA
        AABzdHAxQAAAAAgICAgICAgICAgICAgICAgICAgICAgICAgICAgICAgICAgICAgICAgICAgICAgICAgICAgICAgICAgICAgICAhzdHAyQAAAAAEAAAABAAEAAQABAAAA
        AQABAAAAAQABAAAAAAAAAAEAAQEBAQEBAQEBAQEBAQEBAQEBAQEBAQEBAQEBAQEBAQFzdHAzQAAAAAQEBAQEBAQEBAQEBAQEBAQIBAQEBAQEBAQEBAQEBAQEBAQEBAQE
        BAQEBAQEBAQEBAQEBAQEBAQEBAQEBAQEBARzdHA0QAAAAGBgYGBgYGBgYGBgYGBgYGBgYGBgYGBgYGBgYGBgYGBgYGBgYGBgYGBgYGBgYGBgYGBgYGBgYGBgYGBgYGBg
        YGBzdHA1QAAAAAAAAAAAAAAAAAAAAAAAAAAAAAAAAAAAAAAAAAAAAAAAAAAAAAAAAAAAAAAAAAAAAAAAAAAAAAAAAAAAAAAAAABwcm9nEgIAAHByZ3AiAAAAECBkBAEB
        AH8AfwBAAAEAAQAAAAAAAAAAAH8AAAAAAAAAAHBnbm0wAAAAU2VxIDJrIEtyYWZ0d2VyazMgKEErQywgRitBKQAAAADEOb5f/38AAPQg1xUBAAAAc3RwMEAAAAAAAAAA
        AAD7AAAA+wAAAAAAAAAAAAIAAAAAAAAAAAD7AAAAAAAAAAAAAAAAAAAAAAAAAAAAAAAAAAAAAAAAAAAAc3RwMUAAAAAICAgICAgICAgICAgICAgICAgICAgICAgICAgI
        CAgICAgICAgICAgICAgICAgICAgICAgICAgICAgICAgICAgIc3RwMkAAAAABAAAAAQABAAEAAQAAAAEAAQAAAAEAAQAAAAAAAAABAAEBAQEBAQEBAQEBAQEBAQEBAQEB
        AQEBAQEBAQEBAQEBc3RwM0AAAAAEBAQEBAQEBAQEBAQEBAQECAQEBAQEBAQEBAQEBAQEBAQEBAQEBAQEBAQEBAQEBAQEBAQEBAQEBAQEBAQEBAQEc3RwNEAAAABgYGBg
        YGBgYGBgYGBgYGBgYGBgYGBgYGBgYGBgYGBgYGBgYGBgYGBgYGBgYGBgYGBgYGBgYGBgYGBgYGBgYGBgc3RwNUAAAAAAAAAAAAAAAAAAAAAAAAAAAAAAAAAAAAAAAAAA
        AAAAAAAAAAAAAAAAAAAAAAAAAAAAAAAAAAAAAAAAAAAAAAAAcHJvZxICAABwcmdwIgAAABAgZAQBAQB/AH8AQAABAAEAAAAAAAAAAAB/AAAAAAAAAABwZ25tMAAAAFNl
        cSAyayBLcmFmdHdlcmszIChBK0MsIEYrQSkAAAAAxDm+X/9/AAD0INcVAQAAAHN0cDBAAAAAAAAAAAAA+wAAAPsAAAAAAAAAAAACAAAAAAAAAAAA+wAAAAAAAAAAAAAA
        AAAAAAAAAAAAAAAAAAAAAAAAAAAAAHN0cDFAAAAACAgICAgICAgICAgICAgICAgICAgICAgICAgICAgICAgICAgICAgICAgICAgICAgICAgICAgICAgICAgICAgICHN0
        cDJAAAAAAQAAAAEAAQABAAEAAAABAAEAAAABAAEAAAAAAAAAAQABAQEBAQEBAQEBAQEBAQEBAQEBAQEBAQEBAQEBAQEBAXN0cDNAAAAABAQEBAQEBAQEBAQEBAQEBAgE
        BAQEBAQEBAQEBAQEBAQEBAQEBAQEBAQEBAQEBAQEBAQEBAQEBAQEBAQEBAQEBHN0cDRAAAAAYGBgYGBgYGBgYGBgYGBgYGBgYGBgYGBgYGBgYGBgYGBgYGBgYGBgYGBg
        YGBgYGBgYGBgYGBgYGBgYGBgYGBgYHN0cDVAAAAAAAAAAAAAAAAAAAAAAAAAAAAAAAAAAAAAAAAAAAAAAAAAAAAAAAAAAAAAAAAAAAAAAAAAAAAAAAAAAAAAAAAAAHBy
        b2cSAgAAcHJncCIAAAAQIGQEAQEAfwB/AEAAAQABAAAAAAAAAAAAfwAAAAAAAAAAcGdubTAAAABTZXEgMmsgS3JhZnR3ZXJrMyAoQStDLCBGK0EpAAAAAMQ5vl//fwAA
        9CDXFQEAAABzdHAwQAAAAAAAAAAAAPsAAAD7AAAAAAAAAAAAAgAAAAAAAAAAAPsAAAAAAAAAAAAAAAAAAAAAAAAAAAAAAAAAAAAAAAAAAABzdHAxQAAAAAgICAgICAgI
        CAgICAgICAgICAgICAgICAgICAgICAgICAgICAgICAgICAgICAgICAgICAgICAgICAgICAgICAhzdHAyQAAAAAEAAAABAAEAAQABAAAAAQABAAAAAQABAAAAAAAAAAEA
        AQEBAQEBAQEBAQEBAQEBAQEBAQEBAQEBAQEBAQEBAQFzdHAzQAAAAAQEBAQEBAQEBAQEBAQEBAQIBAQEBAQEBAQEBAQEBAQEBAQEBAQEBAQEBAQEBAQEBAQEBAQEBAQE
        BAQEBAQEBARzdHA0QAAAAGBgYGBgYGBgYGBgYGBgYGBgYGBgYGBgYGBgYGBgYGBgYGBgYGBgYGBgYGBgYGBgYGBgYGBgYGBgYGBgYGBgYGBzdHA1QAAAAAAAAAAAAAAA
        AAAAAAAAAAAAAAAAAAAAAAAAAAAAAAAAAAAAAAAAAAAAAAAAAAAAAAAAAAAAAAAAAAAAAAAAAABwcm9nEgIAAHByZ3AiAAAAECBkBAEBAH8AfwBAAAEAAQAAAAAAAAAA
        AH8AAAAAAAAAAHBnbm0wAAAAU2VxIDJrIEtyYWZ0d2VyazMgKEErQywgRitBKQAAAADEOb5f/38AAPQg1xUBAAAAc3RwMEAAAAAAAAAAAAD7AAAA+wAAAAAAAAAAAAIA
        AAAAAAAAAAD7AAAAAAAAAAAAAAAAAAAAAAAAAAAAAAAAAAAAAAAAAAAAc3RwMUAAAAAICAgICAgICAgICAgICAgICAgICAgICAgICAgICAgICAgICAgICAgICAgICAgI
        CAgICAgICAgICAgICAgICAgIc3RwMkAAAAABAAAAAQABAAEAAQAAAAEAAQAAAAEAAQAAAAAAAAABAAEBAQEBAQEBAQEBAQEBAQEBAQEBAQEBAQEBAQEBAQEBc3RwM0AA
        AAAEBAQEBAQEBAQEBAQEBAQECAQEBAQEBAQEBAQEBAQEBAQEBAQEBAQEBAQEBAQEBAQEBAQEBAQEBAQEBAQEBAQEc3RwNEAAAABgYGBgYGBgYGBgYGBgYGBgYGBgYGBg
        YGBgYGBgYGBgYGBgYGBgYGBgYGBgYGBgYGBgYGBgYGBgYGBgYGBgYGBgc3RwNUAAAAAAAAAAAAAAAAAAAAAAAAAAAAAAAAAAAAAAAAAAAAAAAAAAAAAAAAAAAAAAAAAA
        AAAAAAAAAAAAAAAAAAAAAAAAcHJvZxICAABwcmdwIgAAABAgZAQBAQB/AH8AQAABAAEAAAAAAAAAAAB/AAAAAAAAAABwZ25tMAAAAFNlcSAyayBLcmFmdHdlcmszIChB
        K0MsIEYrQSkAAAAAxDm+X/9/AAD0INcVAQAAAHN0cDBAAAAAAAAAAAAA+wAAAPsAAAAAAAAAAAACAAAAAAAAAAAA+wAAAAAAAAAAAAAAAAAAAAAAAAAAAAAAAAAAAAAA
        AAAAAHN0cDFAAAAACAgICAgICAgICAgICAgICAgICAgICAgICAgICAgICAgICAgICAgICAgICAgICAgICAgICAgICAgICAgICAgICHN0cDJAAAAAAQAAAAEAAQABAAEA
        AAABAAEAAAABAAEAAAAAAAAAAQABAQEBAQEBAQEBAQEBAQEBAQEBAQEBAQEBAQEBAQEBAXN0cDNAAAAABAQEBAQEBAQEBAQEBAQEBAgEBAQEBAQEBAQEBAQEBAQEBAQE
        BAQEBAQEBAQEBAQEBAQEBAQEBAQEBAQEBAQEBHN0cDRAAAAAYGBgYGBgYGBgYGBgYGBgYGBgYGBgYGBgYGBgYGBgYGBgYGBgYGBgYGBgYGBgYGBgYGBgYGBgYGBgYGBg
        YGBgYHN0cDVAAAAAAAAAAAAAAAAAAAAAAAAAAAAAAAAAAAAAAAAAAAAAAAAAAAAAAAAAAAAAAAAAAAAAAAAAAAAAAAAAAAAAAAAAAHByb2cSAgAAcHJncCIAAAAQIGQE
        AQEAfwB/AEAAAQABAAAAAAAAAAAAfwAAAAAAAAAAcGdubTAAAABTZXEgMmsgS3JhZnR3ZXJrMyAoQStDLCBGK0EpAAAAAMQ5vl//fwAA9CDXFQEAAABzdHAwQAAAAAAA
        AAAAAPsAAAD7AAAAAAAAAAAAAgAAAAAAAAAAAPsAAAAAAAAAAAAAAAAAAAAAAAAAAAAAAAAAAAAAAAAAAABzdHAxQAAAAAgICAgICAgICAgICAgICAgICAgICAgICAgI
        CAgICAgICAgICAgICAgICAgICAgICAgICAgICAgICAgICAgICAhzdHAyQAAAAAEAAAABAAEAAQABAAAAAQABAAAAAQABAAAAAAAAAAEAAQEBAQEBAQEBAQEBAQEBAQEB
        AQEBAQEBAQEBAQEBAQFzdHAzQAAAAAQEBAQEBAQEBAQEBAQEBAQIBAQEBAQEBAQEBAQEBAQEBAQEBAQEBAQEBAQEBAQEBAQEBAQEBAQEBAQEBAQEBARzdHA0QAAAAGBg
        YGBgYGBgYGBgYGBgYGBgYGBgYGBgYGBgYGBgYGBgYGBgYGBgYGBgYGBgYGBgYGBgYGBgYGBgYGBgYGBgYGBzdHA1QAAAAAAAAAAAAAAAAAAAAAAAAAAAAAAAAAAAAAAA
        AAAAAAAAAAAAAAAAAAAAAAAAAAAAAAAAAAAAAAAAAAAAAAAAAABwcm9nEgIAAHByZ3AiAAAAECBkBAEBAH8AfwBAAAEAAQAAAAAAAAAAAH8AAAAAAAAAAHBnbm0wAAAA
        U2VxIDJrIEtyYWZ0d2VyazMgKEErQywgRitBKQAAAADEOb5f/38AAPQg1xUBAAAAc3RwMEAAAAAAAAAAAAD7AAAA+wAAAAAAAAAAAAIAAAAAAAAAAAD7AAAAAAAAAAAA
        AAAAAAAAAAAAAAAAAAAAAAAAAAAAAAAAc3RwMUAAAAAICAgICAgICAgICAgICAgICAgICAgICAgICAgICAgICAgICAgICAgICAgICAgICAgICAgICAgICAgICAgICAgI
        c3RwMkAAAAABAAAAAQABAAEAAQAAAAEAAQAAAAEAAQAAAAAAAAABAAEBAQEBAQEBAQEBAQEBAQEBAQEBAQEBAQEBAQEBAQEBc3RwM0AAAAAEBAQEBAQEBAQEBAQEBAQE
        CAQEBAQEBAQEBAQEBAQEBAQEBAQEBAQEBAQEBAQEBAQEBAQEBAQEBAQEBAQEBAQEc3RwNEAAAABgYGBgYGBgYGBgYGBgYGBgYGBgYGBgYGBgYGBgYGBgYGBgYGBgYGBg
        YGBgYGBgYGBgYGBgYGBgYGBgYGBgYGBgc3RwNUAAAAAAAAAAAAAAAAAAAAAAAAAAAAAAAAAAAAAAAAAAAAAAAAAAAAAAAAAAAAAAAAAAAAAAAAAAAAAAAAAAAAAAAAAA
        cHJvZxICAABwcmdwIgAAABAgZAQBAQB/AH8AQAABAAEAAAAAAAAAAAB/AAAAAAAAAABwZ25tMAAAAFNlcSAyayBLcmFmdHdlcmszIChBK0MsIEYrQSkAAAAAxDm+X/9/
        AAD0INcVAQAAAHN0cDBAAAAAAAAAAAAA+wAAAPsAAAAAAAAAAAACAAAAAAAAAAAA+wAAAAAAAAAAAAAAAAAAAAAAAAAAAAAAAAAAAAAAAAAAAHN0cDFAAAAACAgICAgI
        CAgICAgICAgICAgICAgICAgICAgICAgICAgICAgICAgICAgICAgICAgICAgICAgICAgICAgICAgICHN0cDJAAAAAAQAAAAEAAQABAAEAAAABAAEAAAABAAEAAAAAAAAA
        AQABAQEBAQEBAQEBAQEBAQEBAQEBAQEBAQEBAQEBAQEBAXN0cDNAAAAABAQEBAQEBAQEBAQEBAQEBAgEBAQEBAQEBAQEBAQEBAQEBAQEBAQEBAQEBAQEBAQEBAQEBAQE
        BAQEBAQEBAQEBHN0cDRAAAAAYGBgYGBgYGBgYGBgYGBgYGBgYGBgYGBgYGBgYGBgYGBgYGBgYGBgYGBgYGBgYGBgYGBgYGBgYGBgYGBgYGBgYHN0cDVAAAAAAAAAAAAA
        AAAAAAAAAAAAAAAAAAAAAAAAAAAAAAAAAAAAAAAAAAAAAAAAAAAAAAAAAAAAAAAAAAAAAAAAAAAAAHByb2cSAgAAcHJncCIAAAAQIGQEAQEAfwB/AEAAAQABAAAAAAAA
        AAAAfwAAAAAAAAAAcGdubTAAAABTZXEgMmsgS3JhZnR3ZXJrMyAoQStDLCBGK0EpAAAAAMQ5vl//fwAA9CDXFQEAAABzdHAwQAAAAAAAAAAAAPsAAAD7AAAAAAAAAAAA
        AgAAAAAAAAAAAPsAAAAAAAAAAAAAAAAAAAAAAAAAAAAAAAAAAAAAAAAAAABzdHAxQAAAAAgICAgICAgICAgICAgICAgICAgICAgICAgICAgICAgICAgICAgICAgICAgI
        CAgICAgICAgICAgICAgICAgICAhzdHAyQAAAAAEAAAABAAEAAQABAAAAAQABAAAAAQABAAAAAAAAAAEAAQEBAQEBAQEBAQEBAQEBAQEBAQEBAQEBAQEBAQEBAQFzdHAz
        QAAAAAQEBAQEBAQEBAQEBAQEBAQIBAQEBAQEBAQEBAQEBAQEBAQEBAQEBAQEBAQEBAQEBAQEBAQEBAQEBAQEBAQEBARzdHA0QAAAAGBgYGBgYGBgYGBgYGBgYGBgYGBg
        YGBgYGBgYGBgYGBgYGBgYGBgYGBgYGBgYGBgYGBgYGBgYGBgYGBgYGBgYGBzdHA1QAAAAAAAAAAAAAAAAAAAAAAAAAAAAAAAAAAAAAAAAAAAAAAAAAAAAAAAAAAAAAAA
        AAAAAAAAAAAAAAAAAAAAAAAAAABwcm9nEgIAAHByZ3AiAAAAECBkBAEBAH8AfwBAAAEAAQAAAAAAAAAAAH8AAAAAAAAAAHBnbm0wAAAAU2VxIDJrIEtyYWZ0d2VyazMg
        KEErQywgRitBKQAAAADEOb5f/38AAPQg1xUBAAAAc3RwMEAAAAAAAAAAAAD7AAAA+wAAAAAAAAAAAAIAAAAAAAAAAAD7AAAAAAAAAAAAAAAAAAAAAAAAAAAAAAAAAAAA
        AAAAAAAAc3RwMUAAAAAICAgICAgICAgICAgICAgICAgICAgICAgICAgICAgICAgICAgICAgICAgICAgICAgICAgICAgICAgICAgICAgIc3RwMkAAAAABAAAAAQABAAEA
        AQAAAAEAAQAAAAEAAQAAAAAAAAABAAEBAQEBAQEBAQEBAQEBAQEBAQEBAQEBAQEBAQEBAQEBc3RwM0AAAAAEBAQEBAQEBAQEBAQEBAQECAQEBAQEBAQEBAQEBAQEBAQE
        BAQEBAQEBAQEBAQEBAQEBAQEBAQEBAQEBAQEBAQEc3RwNEAAAABgYGBgYGBgYGBgYGBgYGBgYGBgYGBgYGBgYGBgYGBgYGBgYGBgYGBgYGBgYGBgYGBgYGBgYGBgYGBg
        YGBgYGBgc3RwNUAAAAAAAAAAAAAAAAAAAAAAAAAAAAAAAAAAAAAAAAAAAAAAAAAAAAAAAAAAAAAAAAAAAAAAAAAAAAAAAAAAAAAAAAAA
        AC0gSW5pdGlhbCBwcm9ncmFtIC0AEAAAAA==
      >
      PRESETNAME "- Initial program -"
      FLOATPOS 556 163 815 614
      FXID {007FB9B4-58B7-9343-9460-2E23A6E78A60}
      WAK 0
      BYPASS 0 0 0
      <VST "VSTi: chipsounds (Plogue Art et Technologie, Inc)" chipsounds.vst 0 "" 1347176271
        T0dMUO5e7f4AAAAABAAAAAEAAAAAAAAAAgAAAAAAAAAEAAAAAAAAAAgAAAAAAAAAlQQAAAEAAAAAABAA
        Q0VHULQYAAB4nO1Z32/bNhB+z18h6Gl7qERSIikCdgrHSQYD8xrA2XPByKwjVL8mUV66v34nyY4ZJ7TUNS0KLHwJdf7uePcdRX5QJu8fstTZqqpOinzqYg+5zvvzs8ms
        SuRKbpXxk8DMdcqqWDexXlyCASHhnp85MCYrpXWSb2rnr0amif4Cv7pOrSslMzBP3YC4TiYfVp1llqZFvLyYuhSDebm4XHxo9LJYq85LNrrIpIY1V2mhpy4yTanaqnTq
        JjnEbjKVa9dJk63qnQFZx22igrYzmUqwYeedo9qsvDpOd+Y5OKpq6jLw2KTFnUxvm7zLEwz+viRY3UnWnS2XWRsfe85NUylnfp+U/mpx6TMaYeeXP25X819d507mnxfr
        HS8GbxGBKuN7medt6hCtLFIgCIz6sGp597GS+QZWeQcclBoe6u6HzJgWsYaWPBYK7cgavXv++2Mqa92uvutJV8RSJvm+iK1Mm55i/yUEfkQgC4IMIoJBRDiIoIMINojg
        g4hoECEGERgNQ4ZZxcO04mFe8TCx2MrsjaxkdrwJPMQpagcRESIBIaHNyVrAAWLN7gDhth1qZGcQ7oWiTy/kLAp4ezZZnAzyPEKtsNCEBaIbIQsojYjVZ0zOxj7yMOnj
        UhJgRiIro9zsQ4h6JxaSgJO2HIuT0Qcv6NnBiJMoCpg1Pf6EnQD1lGIODad2J5Mr1nMVUSbCKKL29OgwWZyZJeCwi8wZhmM2tHYhsp5tBoY9IbQfVDAUstC6JSKzdTtq
        MBYECSJsPsLcojgSoyrAgdlvTqlAlCJwpoiyE17kP3gJdMjQ+s4IdEjoRCQyTLxAI159gdiYSNEYkBhzjIzJHBMU2FC3stoovZMFcZF5N2mxaZTXqibv9+sPXlOryryI
        O695U4OOuZRaOvf6SwmulFPIt07+gXkYGaIBqFL5OpH9dA0uMNmP6/4PQa87npbo9zV+bdH4f1L0bZVsNqpagbRUeayq4bLDIAwey+ZG2eSlsvGu6t1A3fHDrxGBObqK
        OD4uJJjzazGiYIzCU0VP/Fb3Hktg/KoSGL8ggfFramDyJoHfJPCrSGCEGePdewMqDAXMeu+bV3F7D4NO4LSVXgJbb5gnipOHDARJJELKMCja11LJVnHDrZ2zyFAa9oqS
        sUjAaWQPbCpKJHoNF0WIC8THKcqgZ3xQ2RuKEgjEYtxK1lfHohZHC78DoVZdb+qqExrme+iqEzLuR+iqn0sxPbs9j8bViIsUvSmmH6iYcEC/VjJdtE+tZMIUXfDri2eV
        2CXTXl7BkQxjRoOWy/lPa30h37ES7+rTJxVr81vnTlX1/Ztld0nbrQFpt/9m+tufi30YGetkqxaHb7jd89Xjc61SWFitb+Vde1iYB0qlaqWXKm+cpN7DdVfA6Q3laPUA
        kAtZ1yAfpb6fuv6sLNMk7r4d137vCEI0Keuiyddg6daq/RNh/X5jOmCPP9d+G92T8AKXR8fgs6zxi1nPqlJtNonUxSHhNCm/IWEjot+G+pbsbJxCBpmq5HegdZd9AeB+
        jaP0Jz5sqvOzib//j8T52b/BEDrI
        AAAQAAAA
      >
      FLOATPOS 409 269 871 509
      FXID {DC79668B-30D1-964C-A162-F245DBE294B0}
      WAK 0
      BYPASS 0 0 0
      <VST "VST: 8-Bit Shaper (Xfer Records)" 8BitShaper.vst 0 "" 1148539762
        clN1RO5e7f4CAAAAAQAAAAAAAAACAAAAAAAAAAQAAAABAAAAAAAAAAIAAAAAAAAABAAAAAAAAAAIAAAAAAAAADQCAAABAAAAAAAQAA==
        ZmaGP20MlT7dQQw/AAAAPyQABAUAAIA//38AAAAAABgXAAAAMAAAABkAAAAaAAAAGgAAABoAAAAbAAAAGwAAABwAAAAcAAAAHAAAAB0AAAAdAAAAHgAAAB4AAAAfAAAA
        HwAAACAAAAAgAAAAIAAAACEAAAAhAAAAIQAAACIAAAAiAAAAIgAAACMAAAAjAAAAIwAAACQAAAAkAAAAJAAAACUAAAAlAAAAKAAAACgAAAApAAAAKQAAACoAAAA1AAAA
        KgAAACoAAAA2AAAAKgAAACoAAAAqAAAAKgAAACoAAAAqAAAAKgAAACsAAAArAAAAOQAAAC0AAAA0AAAAOgAAAC0AAAAtAAAAPAAAAC4AAAAuAAAALwAAADAAAAAwAAAA
        MQAAADEAAAAxAAAAMgAAADMAAAAzAAAAMwAAADcAAAA3AAAANwAAADgAAAA4AAAAOAAAADkAAAA5AAAAOQAAADoAAAA6AAAAOgAAADoAAAA6AAAAOwAAADsAAAA7AAAA
        PAAAADsAAAA7AAAAOwAAADwAAAA8AAAAPAAAADwAAAA9AAAAPQAAAD0AAAA9AAAAPQAAAD4AAAA+AAAAPwAAAEkAAABAAAAAQAAAAEgAAABAAAAAQQAAAEIAAABCAAAA
        QgAAAEMAAABDAAAAQwAAAEQAAABEAAAARQAAAE0AAABGAAAARwAAAEYAAABHAAAASAAAAEgAAABJAAAATwAAAAAAgD+rqqo+q6qqPh0Fwz6OAm0/
        AEluaXQgMQAQAAAA
      >
      PRESETNAME "Init 1"
      FLOATPOS 0 0 0 0
      FXID {8D41C7C8-FDD9-0B46-8F32-7407BD5E7789}
      WAK 0
    >
    <ITEM
      POSITION 0
      SNAPOFFS 0
      LENGTH 16
      LOOP 1
      ALLTAKES 0
      FADEIN 1 0 0 1 0 0
      FADEOUT 1 0 0 1 0 0
      MUTE 0
      COLOR 22774783 B
      SEL 0
      IGUID {786F8937-D014-B149-AD30-8ADD9C96370F}
      IID 10
      NAME "exten synt - National_Anthems_-_Egypt.mid"
      VOLPAN 1 0 1 -1
      SOFFS 0 0
      PLAYRATE 1 1 0 -1 0 0.0025
      CHANMODE 0
      TAKECOLOR 27282604 B
      GUID {BF024F51-E1FA-D147-A8A4-7CC7710BF3F1}
      <SOURCE MIDI
        HASDATA 1 384 QN
        POOLEDEVTS {0714C4DD-D44D-DC4B-835D-2769D24E1D1A}
        <X 0 0 0 0 3 "exten synt"
          /wNleHRlbiBzeW50
        >
        e 288 90 3c 7f 3
        e 96 80 3c 00 -44
        e 0 90 41 7f -4
        e 0 90 39 7f 19
        e 0 90 3c 7f 19
        e 0 90 29 7f 37
        e 0 90 35 7f 43
        e 192 80 39 00 32
        e 0 80 3c 00 36
        e 96 80 41 00 13
        e 96 80 29 00 -40
        e 0 80 35 00 -30
        e 0 90 39 7f 1
        e 0 90 3e 7f 2
        e 0 90 41 7f 7
        e 0 90 26 7f 22
        e 0 90 32 7f 27
        e 192 80 39 00 25
        e 0 80 3e 00 24
        e 0 80 41 00 28
        e 96 80 32 00 37
        e 0 90 3c 7f -20
        e 96 80 26 00 -34
        e 0 80 3c 00 -64
        e 0 90 41 7f -22
        e 0 90 3a 7f -2
        e 0 90 3e 7f -1
        e 0 90 2e 7f 3
        e 0 90 22 7f 6
        e 192 80 3a 00 -5
        e 0 80 3e 00 3
        e 96 80 41 00 30
        e 0 80 2e 00 -10
        e 0 80 22 00 9
        e 96 90 29 7f -23
        e 0 90 35 7f -23
        e 0 90 41 7f -18
        e 0 90 39 7f -11
        e 0 90 3c 7f -10
        e 96 80 41 00 19
        e 0 90 40 7f 17
        e 96 80 39 00 15
        e 0 80 3c 00 19
        e 0 80 40 00 21
        e 96 80 29 00 11
        e 0 80 35 00 11
        e 0 90 41 7f -39
        e 96 80 41 00 -28
        e 0 90 24 7f -12
        e 0 90 30 7f -12
        e 0 90 3c 7f -8
        e 0 90 40 7f -8
        e 0 90 43 7f 3
        e 96 80 24 00 -26
        e 0 80 30 00 -20
        e 96 90 2b 7f -30
        e 0 90 37 7f -27
        e 96 80 2b 00 -35
        e 0 80 37 00 -28
        e 96 90 28 7f -29
        e 0 90 34 7f -24
        e 96 80 3c 00 -33
        e 0 80 40 00 -19
        e 0 80 28 00 -39
        e 0 80 34 00 -39
        e 96 80 43 00 11
        e 0 90 24 7f -30
        e 0 90 30 7f -27
        e 0 90 3c 7f -4
        e 0 90 40 7f -3
        e 0 90 45 7f -2
        e 96 80 24 00 -34
        e 0 80 30 00 -57
        e 0 80 3c 00 23
        e 0 80 40 00 46
        e 96 80 45 00 -15
        e 0 90 39 7f -19
        e 0 90 3c 7f -18
        e 0 90 35 7f -16
        e 0 90 29 7f -16
        e 0 90 41 7f -10
        e 96 80 35 00 38
        e 0 80 29 00 31
        e 96 80 39 00 16
        e 0 80 3c 00 22
        e 96 80 41 00 -10
        e 96 90 45 7f 1
        e 192 80 45 00 -22
        e 0 90 46 7f -16
        e 192 80 46 00 5
        e 0 90 35 7f -17
        e 0 90 29 7f -15
        e 0 90 41 7f -12
        e 0 90 45 7f -10
        e 0 90 3c 7f -7
        e 0 90 48 7f 1
        e 288 80 35 00 -1
        e 0 80 29 00 3
        e 0 80 3c 00 42
        e 0 80 48 00 39
        e 96 80 41 00 -39
        e 0 80 45 00 -37
        e 0 90 45 7f -37
        e 0 90 2d 7f -15
        e 0 90 39 7f -11
        e 0 90 3d 7f -9
        e 96 80 45 00 -132
        e 192 80 2d 00 16
        e 0 80 39 00 17
        e 0 80 3d 00 7
        e 0 90 43 7f -23
        e 96 80 43 00 -18
        e 0 90 3e 7f -42
        e 0 90 29 7f -39
        e 0 90 39 7f -38
        e 0 90 41 7f -32
        e 0 90 35 7f -31
        e 192 80 41 00 5
        e 0 90 45 7f -28
        e 96 80 3e 00 -20
        e 0 80 29 00 -11
        e 0 80 39 00 6
        e 0 80 35 00 7
        e 0 80 45 00 7
        e 0 90 43 7f 38
        e 96 90 40 7f -43
        e 0 90 3c 7f -34
        e 0 90 24 7f -24
        e 0 90 30 7f -23
        e 96 80 24 00 42
        e 0 80 30 00 33
        e 0 90 45 7f 47
        e 96 80 43 00 -32
        e 0 80 40 00 -38
        e 0 80 3c 00 -19
        e 0 90 3e 7f -43
        e 0 90 39 7f -31
        e 0 90 2d 7f -26
        e 0 90 21 7f -24
        e 96 80 3e 00 35
        e 0 80 39 00 -2
        e 0 80 2d 00 42
        e 0 80 21 00 36
        e 96 80 45 00 -31
        e 0 90 3c 7f -43
        e 0 90 39 7f -41
        e 0 90 41 7f -36
        e 0 90 29 7f -22
        e 0 90 1d 7f -15
        e 288 80 3c 00 23
        e 0 80 39 00 3
        e 0 80 29 00 1
        e 0 80 1d 00 15
        e 96 80 41 00 -31
        e 0 90 40 7f -43
        e 0 90 24 7f -32
        e 0 90 3a 7f -31
        e 0 90 30 7f -31
        e 0 90 37 7f -24
        e 96 80 3a 00 39
        e 0 80 37 00 38
        e 192 80 40 00 -30
        e 0 80 24 00 35
        e 0 80 30 00 25
        e 0 90 43 7f -30
        e 0 90 40 7f -8
        e 0 90 3a 7f -5
        e 96 80 43 00 -59
        e 0 80 40 00 -37
        e 0 80 3a 00 -38
        e 0 90 35 7f -35
        e 0 90 41 7f -34
        e 0 90 29 7f -32
        e 0 90 3c 7f -18
        e 0 90 39 7f -15
        e 384 80 35 00 -10
        e 0 80 41 00 45
        e 0 80 29 00 -15
        e 0 80 3c 00 1
        e 0 80 39 00 7
        e 288 90 3c 7f 11
        e 96 80 3c 00 -9
        e 0 90 39 7f 6
        e 0 90 41 7f 12
        e 0 90 3c 7d 14
        e 0 90 35 7f 18
        e 0 90 29 7f 19
        e 96 80 3c 00 -61
        e 192 80 39 00 25
        e 96 80 41 00 -36
        e 0 80 35 00 -10
        e 0 80 29 00 -19
        e 0 90 41 7f -2
        e 0 90 39 7f -2
        e 0 90 3e 7f -1
        e 0 90 32 7f 22
        e 0 90 26 7f 23
        e 192 80 39 00 47
        e 96 80 41 00 3
        e 0 80 3e 00 -5
        e 0 90 3c 7f -2
        e 96 80 32 00 -36
        e 0 80 26 00 -46
        e 0 80 3c 00 -26
        e 0 90 41 7f -14
        e 0 90 22 7f -8
        e 0 90 2e 7f -4
        e 0 90 3a 7f 6
        e 0 90 3e 7f 7
        e 288 80 2e 00 39
        e 0 80 3a 00 26
        e 0 80 3e 00 45
        e 96 80 41 00 -42
        e 0 80 22 00 -37
        e 0 90 39 7f -10
        e 0 90 3c 7f -7
        e 0 90 35 7f -7
        e 0 90 29 7f -4
        e 0 90 41 7f -3
        e 96 80 41 00 41
        e 0 90 40 7f 24
        e 192 80 39 00 40
        e 0 80 3c 00 36
        e 0 80 35 00 23
        e 0 80 29 00 25
        e 0 80 40 00 -48
        e 0 90 41 7f -46
        e 96 80 41 00 -34
        e 0 90 43 7f -22
        e 0 90 24 7f -13
        e 0 90 30 7f -12
        e 0 90 3c 7f -2
        e 0 90 40 7f -1
        e 192 80 24 00 -38
        e 0 80 30 00 -44
        e 0 90 2b 7f -16
        e 0 90 37 7f -11
        e 96 80 2b 00 -2
        e 0 80 37 00 5
        e 96 90 28 7f -30
        e 0 90 34 7f -29
        e 96 80 3c 00 -22
        e 0 80 40 00 -1
        e 0 80 28 00 -1
        e 0 80 34 00 5
        e 96 80 43 00 -10
        e 0 90 30 7f -30
        e 0 90 45 7f -25
        e 0 90 24 7f -25
        e 0 90 40 7f -12
        e 0 90 3c 7f -9
        e 96 80 30 00 9
        e 0 80 24 00 24
        e 96 80 45 00 -13
        e 0 80 40 00 -16
        e 0 80 3c 00 -38
        e 0 90 29 7f -32
        e 0 90 35 7f -31
        e 0 90 41 7f -29
        e 0 90 3c 7f 2
        e 0 90 39 7f 3
        e 192 80 29 00 21
        e 0 80 35 00 31
        e 0 80 41 00 31
        e 96 80 3c 00 4
        e 0 80 39 00 8
        e 96 90 45 7f -4
        e 192 80 45 00 -16
        e 0 90 46 7f -40
        e 192 80 46 00 -23
        e 0 90 45 7f -24
        e 0 90 3c 7f -23
        e 0 90 41 7f -23
        e 0 90 35 7f -7
        e 0 90 29 7f -1
        e 0 90 48 7f 6
        e 288 80 45 00 41
        e 0 80 35 00 -7
        e 0 80 29 00 6
        e 96 80 3c 00 -46
        e 0 80 41 00 -34
        e 0 80 48 00 29
        e 0 90 3d 7f -24
        e 0 90 39 7f -22
        e 0 90 2d 7f -19
        e 0 90 45 7f -17
        e 192 80 2d 00 7
        e 96 80 39 00 -16
        e 0 80 45 00 13
        e 0 90 43 7f -10
        e 96 80 3d 00 -36
        e 0 80 43 00 -3
        e 0 90 3e 7f -24
        e 0 90 29 7f -20
        e 0 90 35 7f -20
        e 0 90 39 7f -20
        e 0 90 41 7f -12
        e 192 80 41 00 23
        e 0 90 45 7f -7
        e 96 80 3e 00 40
        e 0 80 29 00 16
        e 0 80 35 00 16
        e 0 80 39 00 16
        e 96 80 45 00 -42
        e 0 90 40 7f -44
        e 0 90 24 7f -42
        e 0 90 30 7f -42
        e 0 90 3c 7f -42
        e 0 90 43 7f -16
        e 192 80 40 00 10
        e 0 80 24 00 -6
        e 0 80 30 00 -6
        e 0 80 3c 00 -6
        e 0 80 43 00 -15
        e 0 90 45 7f -35
        e 0 90 3e 7f -9
        e 0 90 21 7f -5
        e 0 90 2d 7f -5
        e 0 90 39 7f -5
        e 96 80 21 00 36
        e 0 80 2d 00 36
        e 0 80 39 00 36
        e 96 80 45 00 16
        e 0 80 3e 00 -32
        e 0 90 3c 7f -2
        e 0 90 1d 7f 1
        e 0 90 29 7f 1
        e 0 90 39 7f 1
        e 0 90 41 7f 12
        e 288 80 1d 00 -13
        e 0 80 29 00 -13
        e 0 80 39 00 -13
        e 96 80 3c 00 -34
        e 0 80 41 00 -44
        e 0 90 3a 7f -13
        e 0 90 24 7f -12
        e 0 90 30 7f -12
        e 0 90 37 7f -12
        e 0 90 40 7f -8
        e 192 80 3a 00
        e 0 80 24 00 10
        e 0 80 30 00 10
        e 0 80 37 00 10
        e 96 80 40 00 -11
        e 0 90 43 7f -11
        e 0 90 3a 7f -2
        e 0 90 40 7f 2
        e 96 80 43 00 9
        e 0 80 3a 00 13
        e 0 80 40 00 -2
        e 0 90 35 7f -15
        e 0 90 29 7f -12
        e 0 90 39 7f -11
        e 0 90 3c 7f -8
        e 0 90 41 7f 8
        e 192 80 35 00 19
        e 0 80 29 00 10
        e 96 80 39 00 -27
        e 0 80 3c 00 -2
        e 0 80 41 00 20
        E 96 b0 7b 00
        GUID {3BD01C5B-8263-3C4D-849F-8D50834328CF}
        IGNTEMPO 0 120 4 4
        SRCCOLOR 770
        VELLANE -1 108 6
        CFGEDITVIEW 0 34.5 43 12 0 -1 0 0 0 0.5
        KEYSNAP 0
        TRACKSEL 226
        EVTFILTER 0 -1 -1 -1 -1 0 0 0 0 -1 -1 -1 -1 0 -1 0 -1 -1
        CFGEDIT 1 1 0 0 0 0 1 0 1 1 1 0.25 0 187 878 778 0 0 2 3 0 0 0 0 0 -1 0 0 1 64
      >
      TAKE
      NAME "exten synt - National_Anthems_-_Egypt.mid"
      TAKEVOLPAN 0 1 -1
      SOFFS 0 0
      PLAYRATE 1 1 0 -1 0 0.0025
      CHANMODE 0
      GUID {B0E2E329-7F44-3446-9951-151EA0E75C63}
      <SOURCE MIDI
        HASDATA 1 384 QN
        POOLEDEVTS {4836159B-813C-7F4D-A102-1C18267C14DA}
        <X 0 0 0 0 3 "exten synt"
          /wNleHRlbiBzeW50
        >
        E 291 92 3c 5e
        E 49 92 3c 00
        E 40 92 41 57
        E 23 92 39 44
        E 0 92 3c 4c
        E 18 92 29 4e
        E 6 92 35 57
        E 181 92 39 00
        E 4 92 3c 00
        E 73 92 41 00
        E 43 92 29 00
        E 10 92 35 00
        E 31 92 39 45
        E 1 92 3e 4b
        E 5 92 41 51
        E 15 92 26 48
        E 5 92 32 59
        E 189 92 3e 00
        E 1 92 39 00
        E 3 92 41 00
        E 48 92 3c 58
        E 52 92 3c 00
        E 5 92 32 00
        E 25 92 26 00
        E 12 92 41 51
        E 20 92 3a 45
        E 1 92 3e 4a
        E 4 92 2e 50
        E 3 92 22 4b
        E 181 92 3a 00
        E 8 92 3e 00
        E 83 92 2e 00
        E 19 92 22 00
        E 21 92 41 00
        E 43 92 29 4d
        E 0 92 35 57
        E 5 92 41 53
        E 7 92 39 4a
        E 1 92 3c 4f
        E 123 92 40 5a
        E 2 92 41 00
        E 92 92 39 00
        E 4 92 3c 00
        E 2 92 40 00
        E 36 92 41 5a
        E 50 92 29 00
        E 0 92 35 00
        E 57 92 41 00
        E 16 92 24 4e
        E 0 92 30 5b
        E 4 92 3c 4a
        E 0 92 40 4a
        E 11 92 43 54
        E 67 92 24 00
        E 6 92 30 00
        E 86 92 2b 50
        E 3 92 37 59
        E 88 92 2b 00
        E 7 92 37 00
        E 95 92 28 50
        E 5 92 34 54
        E 81 92 34 00
        E 0 92 28 00
        E 6 92 3c 00
        E 14 92 40 00
        E 85 92 24 48
        E 3 92 30 5a
        E 23 92 3c 55
        E 1 92 40 4d
        E 1 92 45 50
        E 13 92 43 00
        E 28 92 30 00
        E 23 92 24 00
        E 57 92 3c 00
        E 23 92 40 00
        E 31 92 39 45
        E 1 92 3c 42
        E 2 92 35 51
        E 0 92 29 47
        E 1 92 45 00
        E 5 92 41 53
        E 137 92 29 00
        E 7 92 35 00
        E 74 92 39 00
        E 6 92 3c 00
        E 64 92 41 00
        E 107 92 45 54
        E 169 92 45 00
        E 6 92 46 4e
        E 191 92 35 53
        E 2 92 29 4e
        E 3 92 41 47
        E 2 92 45 48
        E 3 92 3c 47
        E 8 92 48 52
        E 4 92 46 00
        E 282 92 35 00
        E 4 92 29 00
        E 36 92 48 00
        E 3 92 3c 00
        E 15 92 41 00
        E 2 92 45 54
        E 1 92 45 00
        E 21 92 2d 48
        E 4 92 39 58
        E 2 92 3d 4a
        E 274 92 43 4a
        E 12 92 45 00
        E 18 92 3d 00
        E 9 92 2d 00
        E 1 92 39 00
        E 37 92 3e 42
        E 0 92 41 49
        E 3 92 29 4a
        E 1 92 39 42
        E 6 92 41 52
        E 1 92 35 55
        E 13 92 43 00
        E 182 92 45 53
        E 33 92 41 00
        E 71 92 3e 00
        E 9 92 29 00
        E 17 92 39 00
        E 1 92 35 00
        E 0 92 45 00
        E 15 92 41 00
        E 16 92 43 4d
        E 15 92 40 52
        E 9 92 3c 4a
        E 10 92 24 52
        E 1 92 30 63
        E 152 92 30 00
        E 9 92 24 00
        E 5 92 45 4f
        E 6 92 3e 53
        E 5 92 40 00
        E 6 92 43 00
        E 1 92 39 47
        E 5 92 2d 4a
        E 2 92 21 4a
        E 5 92 3c 00
        E 113 92 39 00
        E 37 92 3e 00
        E 1 92 21 00
        E 6 92 2d 00
        E 11 92 3c 55
        E 2 92 39 43
        E 5 92 41 4f
        E 5 92 45 00
        E 9 92 29 51
        E 7 92 1d 4a
        E 304 92 29 00
        E 2 92 39 00
        E 12 92 1d 00
        E 8 92 3c 00
        E 30 92 40 51
        E 11 92 24 4e
        E 1 92 3a 51
        E 0 92 30 57
        E 0 92 41 00
        E 7 92 37 50
        E 158 92 37 00
        E 1 92 3a 00
        E 123 92 43 48
        E 0 92 40 00
        E 22 92 40 4e
        E 3 92 3a 3b
        E 30 92 30 00
        E 10 92 24 00
        E 2 92 43 00
        E 21 92 3a 00
        E 1 92 40 00
        E 2 92 35 53
        E 1 92 41 4a
        E 2 92 29 4f
        E 14 92 3c 54
        E 3 92 39 42
        E 384 92 29 00
        E 5 92 35 00
        E 11 92 3c 00
        E 6 92 39 00
        E 38 92 41 00
        E 254 92 3c 58
        E 76 92 3c 00
        E 13 92 3c 4c
        E 2 92 39 4e
        E 6 92 41 50
        E 2 92 3c 1b
        E 4 92 35 54
        E 1 92 29 4b
        E 16 92 3c 00
        E 278 92 39 00
        E 24 92 3c 00
        E 11 92 41 00
        E 17 92 29 00
        E 9 92 35 00
        E 8 92 41 57
        E 0 92 39 4a
        E 1 92 3e 50
        E 23 92 32 55
        E 1 92 26 46
        E 216 92 39 00
        E 44 92 3e 00
        E 3 92 3c 52
        E 5 92 41 00
        E 47 92 26 00
        E 10 92 32 00
        E 10 92 3c 00
        E 12 92 41 50
        E 6 92 22 48
        E 4 92 2e 50
        E 10 92 3a 4e
        E 1 92 3e 4f
        E 307 92 3a 00
        E 13 92 2e 00
        E 6 92 3e 00
        E 9 92 41 00
        E 5 92 22 00
        E 27 92 39 51
        E 3 92 3c 50
        E 0 92 35 52
        E 3 92 29 47
        E 1 92 41 52
        E 123 92 40 55
        E 17 92 41 00
        E 103 92 40 00
        E 2 92 41 59
        E 69 92 35 00
        E 2 92 29 00
        E 11 92 3c 00
        E 4 92 39 00
        E 22 92 41 00
        E 12 92 43 4a
        E 9 92 24 53
        E 1 92 30 5e
        E 10 92 3c 4e
        E 1 92 40 4a
        E 149 92 30 00
        E 6 92 24 00
        E 22 92 2b 48
        E 5 92 37 58
        E 105 92 2b 00
        E 7 92 37 00
        E 61 92 28 4b
        E 1 92 34 51
        E 103 92 3c 00
        E 21 92 28 00
        E 0 92 40 00
        E 6 92 34 00
        E 61 92 30 5b
        E 5 92 45 50
        E 0 92 24 4d
        E 13 92 40 4d
        E 2 92 43 00
        E 1 92 3c 57
        E 114 92 30 00
        E 15 92 24 00
        E 34 92 3c 00
        E 6 92 29 4a
        E 1 92 35 53
        E 2 92 41 50
        E 13 92 40 00
        E 3 92 45 00
        E 15 92 3c 4c
        E 1 92 39 50
        E 210 92 29 00
        E 10 92 41 00
        E 0 92 35 00
        E 69 92 3c 00
        E 4 92 39 00
        E 84 92 45 55
        E 156 92 46 4f
        E 24 92 45 00
        E 184 92 45 4a
        E 1 92 3c 4f
        E 0 92 41 49
        E 0 92 46 00
        E 16 92 35 5b
        E 6 92 29 52
        E 7 92 48 51
        E 275 92 35 00
        E 13 92 29 00
        E 35 92 45 00
        E 9 92 3c 00
        E 12 92 41 00
        E 10 92 3d 4d
        E 2 92 39 57
        E 3 92 2d 4f
        E 2 92 45 5a
        E 46 92 48 00
        E 170 92 2d 00
        E 73 92 39 00
        E 6 92 43 4a
        E 23 92 45 00
        E 47 92 3d 00
        E 12 92 3e 50
        E 4 92 29 4a
        E 0 92 35 4a
        E 0 92 39 4a
        E 8 92 41 53
        E 9 92 43 00
        E 188 92 45 4f
        E 30 92 41 00
        E 89 92 39 00
        E 0 92 35 00
        E 0 92 29 00
        E 24 92 3e 00
        E 12 92 40 47
        E 2 92 24 4c
        E 0 92 30 4c
        E 0 92 3c 4c
        E 0 92 45 00
        E 26 92 43 53
        E 173 92 45 50
        E 20 92 43 00
        E 6 92 3e 4a
        E 3 92 30 00
        E 0 92 3c 00
        E 0 92 24 00
        E 1 92 21 45
        E 0 92 2d 45
        E 0 92 39 45
        E 15 92 40 00
        E 122 92 2d 00
        E 0 92 21 00
        E 0 92 39 00
        E 28 92 3e 00
        E 30 92 3c 4f
        E 3 92 1d 4a
        E 0 92 29 4a
        E 0 92 39 4a
        E 11 92 41 48
        E 4 92 45 00
        E 259 92 39 00
        E 0 92 29 00
        E 0 92 1d 00
        E 65 92 41 00
        E 10 92 3c 00
        E 21 92 3a 48
        E 1 92 24 50
        E 0 92 30 50
        E 0 92 37 50
        E 4 92 40 4a
        E 200 92 3a 00
        E 10 92 37 00
        E 0 92 24 00
        E 0 92 30 00
        E 75 92 43 44
        E 0 92 40 00
        E 9 92 3a 4b
        E 4 92 40 46
        E 79 92 35 55
        E 3 92 29 4b
        E 1 92 39 4c
        E 3 92 3c 4b
        E 6 92 40 00
        E 10 92 41 4d
        E 1 92 43 00
        E 4 92 3a 00
        E 189 92 29 00
        E 9 92 35 00
        E 50 92 39 00
        E 25 92 3c 00
        E 22 92 41 00
        E 68 92 45 44
        E 8 82 45 00
        E 0 b0 7b 00
        GUID {4679C5C2-02AA-874A-9DB1-F4C1F170892A}
        IGNTEMPO 0 120 4 4
        SRCCOLOR 592
        VELLANE -1 86 6
      >
    >
    <ITEM
      POSITION 32
      SNAPOFFS 0
      LENGTH 8.5
      LOOP 1
      ALLTAKES 0
      FADEIN 1 0 0 1 0 0
      FADEOUT 1 0 0 1 0 0
      MUTE 0
      COLOR 22774783 B
      SEL 0
      IGUID {A50BDB70-2FBE-6840-ADED-CBCF5066DA4C}
      IID 10
      NAME "exten synt - National_Anthems_-_Egypt.mid"
      VOLPAN 1 0 1 -1
      SOFFS 32 64
      PLAYRATE 1 1 0 -1 0 0.0025
      CHANMODE 0
      TAKECOLOR 27282604 B
      GUID {23241FF8-E04F-3343-BDC1-F3D89DD3255F}
      <SOURCE MIDI
        HASDATA 1 384 QN
        POOLEDEVTS {5C25FB13-5E40-A047-8CA7-A1751BAD5E5F}
        <X 0 0 0 0 3 "exten synt"
          /wNleHRlbiBzeW50
        >
        e 288 90 3c 7f 3
        e 96 80 3c 00 -44
        e 0 90 41 7f -4
        e 0 90 39 7f 19
        e 0 90 3c 7f 19
        e 0 90 29 7f 37
        e 0 90 35 7f 43
        e 192 80 39 00 32
        e 0 80 3c 00 36
        e 96 80 41 00 13
        e 96 80 29 00 -40
        e 0 80 35 00 -30
        e 0 90 39 7f 1
        e 0 90 3e 7f 2
        e 0 90 41 7f 7
        e 0 90 26 7f 22
        e 0 90 32 7f 27
        e 192 80 39 00 25
        e 0 80 3e 00 24
        e 0 80 41 00 28
        e 96 80 32 00 37
        e 0 90 3c 7f -20
        e 96 80 26 00 -34
        e 0 80 3c 00 -64
        e 0 90 41 7f -22
        e 0 90 3a 7f -2
        e 0 90 3e 7f -1
        e 0 90 2e 7f 3
        e 0 90 22 7f 6
        e 192 80 3a 00 -5
        e 0 80 3e 00 3
        e 96 80 41 00 30
        e 0 80 2e 00 -10
        e 0 80 22 00 9
        e 96 90 29 7f -23
        e 0 90 35 7f -23
        e 0 90 41 7f -18
        e 0 90 39 7f -11
        e 0 90 3c 7f -10
        e 96 80 41 00 19
        e 0 90 40 7f 17
        e 96 80 39 00 15
        e 0 80 3c 00 19
        e 0 80 40 00 21
        e 96 80 29 00 11
        e 0 80 35 00 11
        e 0 90 41 7f -39
        e 96 80 41 00 -28
        e 0 90 24 7f -12
        e 0 90 30 7f -12
        e 0 90 3c 7f -8
        e 0 90 40 7f -8
        e 0 90 43 7f 3
        e 96 80 24 00 -26
        e 0 80 30 00 -20
        e 96 90 2b 7f -30
        e 0 90 37 7f -27
        e 96 80 2b 00 -35
        e 0 80 37 00 -28
        e 96 90 28 7f -29
        e 0 90 34 7f -24
        e 96 80 3c 00 -33
        e 0 80 40 00 -19
        e 0 80 28 00 -39
        e 0 80 34 00 -39
        e 96 80 43 00 11
        e 0 90 24 7f -30
        e 0 90 30 7f -27
        e 0 90 3c 7f -4
        e 0 90 40 7f -3
        e 0 90 45 7f -2
        e 96 80 24 00 -34
        e 0 80 30 00 -57
        e 0 80 3c 00 23
        e 0 80 40 00 46
        e 96 80 45 00 -15
        e 0 90 39 7f -19
        e 0 90 3c 7f -18
        e 0 90 35 7f -16
        e 0 90 29 7f -16
        e 0 90 41 7f -10
        e 96 80 35 00 38
        e 0 80 29 00 31
        e 96 80 39 00 16
        e 0 80 3c 00 22
        e 96 80 41 00 -10
        e 96 90 45 7f 1
        e 192 80 45 00 -22
        e 0 90 46 7f -16
        e 192 80 46 00 5
        e 0 90 35 7f -17
        e 0 90 29 7f -15
        e 0 90 41 7f -12
        e 0 90 45 7f -10
        e 0 90 3c 7f -7
        e 0 90 48 7f 1
        e 288 80 35 00 -1
        e 0 80 29 00 3
        e 0 80 3c 00 42
        e 0 80 48 00 39
        e 96 80 41 00 -39
        e 0 80 45 00 -37
        e 0 90 45 7f -37
        e 0 90 2d 7f -15
        e 0 90 39 7f -11
        e 0 90 3d 7f -9
        e 96 80 45 00 -132
        e 192 80 2d 00 16
        e 0 80 39 00 17
        e 0 80 3d 00 7
        e 0 90 43 7f -23
        e 96 80 43 00 -18
        e 0 90 3e 7f -42
        e 0 90 29 7f -39
        e 0 90 39 7f -38
        e 0 90 41 7f -32
        e 0 90 35 7f -31
        e 192 80 41 00 5
        e 0 90 45 7f -28
        e 96 80 3e 00 -20
        e 0 80 29 00 -11
        e 0 80 39 00 6
        e 0 80 35 00 7
        e 0 80 45 00 7
        e 0 90 43 7f 38
        e 96 90 40 7f -43
        e 0 90 3c 7f -34
        e 0 90 24 7f -24
        e 0 90 30 7f -23
        e 96 80 24 00 42
        e 0 80 30 00 33
        e 0 90 45 7f 47
        e 96 80 43 00 -32
        e 0 80 40 00 -38
        e 0 80 3c 00 -19
        e 0 90 3e 7f -43
        e 0 90 39 7f -31
        e 0 90 2d 7f -26
        e 0 90 21 7f -24
        e 96 80 3e 00 35
        e 0 80 39 00 -2
        e 0 80 2d 00 42
        e 0 80 21 00 36
        e 96 80 45 00 -31
        e 0 90 3c 7f -43
        e 0 90 39 7f -41
        e 0 90 41 7f -36
        e 0 90 29 7f -22
        e 0 90 1d 7f -15
        e 288 80 3c 00 23
        e 0 80 39 00 3
        e 0 80 29 00 1
        e 0 80 1d 00 15
        e 96 80 41 00 -31
        e 0 90 40 7f -43
        e 0 90 24 7f -32
        e 0 90 3a 7f -31
        e 0 90 30 7f -31
        e 0 90 37 7f -24
        e 96 80 3a 00 39
        e 0 80 37 00 38
        e 192 80 40 00 -30
        e 0 80 24 00 35
        e 0 80 30 00 25
        e 0 90 43 7f -30
        e 0 90 40 7f -8
        e 0 90 3a 7f -5
        e 96 80 43 00 -59
        e 0 80 40 00 -37
        e 0 80 3a 00 -38
        e 0 90 35 7f -35
        e 0 90 41 7f -34
        e 0 90 29 7f -32
        e 0 90 3c 7f -18
        e 0 90 39 7f -15
        e 384 80 35 00 -10
        e 0 80 41 00 45
        e 0 80 29 00 -15
        e 0 80 3c 00 1
        e 0 80 39 00 7
        e 288 90 3c 7f 11
        e 96 80 3c 00 -9
        e 0 90 39 7f 6
        e 0 90 41 7f 12
        e 0 90 3c 7d 14
        e 0 90 35 7f 18
        e 0 90 29 7f 19
        e 96 80 3c 00 -61
        e 192 80 39 00 25
        e 96 80 41 00 -36
        e 0 80 35 00 -10
        e 0 80 29 00 -19
        e 0 90 41 7f -2
        e 0 90 39 7f -2
        e 0 90 3e 7f -1
        e 0 90 32 7f 22
        e 0 90 26 7f 23
        e 192 80 39 00 47
        e 96 80 41 00 3
        e 0 80 3e 00 -5
        e 0 90 3c 7f -2
        e 96 80 32 00 -36
        e 0 80 26 00 -46
        e 0 80 3c 00 -26
        e 0 90 41 7f -14
        e 0 90 22 7f -8
        e 0 90 2e 7f -4
        e 0 90 3a 7f 6
        e 0 90 3e 7f 7
        e 288 80 2e 00 39
        e 0 80 3a 00 26
        e 0 80 3e 00 45
        e 96 80 41 00 -42
        e 0 80 22 00 -37
        e 0 90 39 7f -10
        e 0 90 3c 7f -7
        e 0 90 35 7f -7
        e 0 90 29 7f -4
        e 0 90 41 7f -3
        e 96 80 41 00 41
        e 0 90 40 7f 24
        e 192 80 39 00 40
        e 0 80 3c 00 36
        e 0 80 35 00 23
        e 0 80 29 00 25
        e 0 80 40 00 -48
        e 0 90 41 7f -46
        e 96 80 41 00 -34
        e 0 90 43 7f -22
        e 0 90 24 7f -13
        e 0 90 30 7f -12
        e 0 90 3c 7f -2
        e 0 90 40 7f -1
        e 192 80 24 00 -38
        e 0 80 30 00 -44
        e 0 90 2b 7f -16
        e 0 90 37 7f -11
        e 96 80 2b 00 -2
        e 0 80 37 00 5
        e 96 90 28 7f -30
        e 0 90 34 7f -29
        e 96 80 3c 00 -22
        e 0 80 40 00 -1
        e 0 80 28 00 -1
        e 0 80 34 00 5
        e 96 80 43 00 -10
        e 0 90 30 7f -30
        e 0 90 45 7f -25
        e 0 90 24 7f -25
        e 0 90 40 7f -12
        e 0 90 3c 7f -9
        e 96 80 30 00 9
        e 0 80 24 00 24
        e 96 80 45 00 -13
        e 0 80 40 00 -16
        e 0 80 3c 00 -38
        e 0 90 29 7f -32
        e 0 90 35 7f -31
        e 0 90 41 7f -29
        e 0 90 3c 7f 2
        e 0 90 39 7f 3
        e 192 80 29 00 21
        e 0 80 35 00 31
        e 0 80 41 00 31
        e 96 80 3c 00 4
        e 0 80 39 00 8
        e 96 90 45 7f -4
        e 192 80 45 00 -16
        e 0 90 46 7f -40
        e 192 80 46 00 -23
        e 0 90 45 7f -24
        e 0 90 3c 7f -23
        e 0 90 41 7f -23
        e 0 90 35 7f -7
        e 0 90 29 7f -1
        e 0 90 48 7f 6
        e 288 80 45 00 41
        e 0 80 35 00 -7
        e 0 80 29 00 6
        e 96 80 3c 00 -46
        e 0 80 41 00 -34
        e 0 80 48 00 29
        e 0 90 3d 7f -24
        e 0 90 39 7f -22
        e 0 90 2d 7f -19
        e 0 90 45 7f -17
        e 192 80 2d 00 7
        e 96 80 39 00 -16
        e 0 80 45 00 13
        e 0 90 43 7f -10
        e 96 80 3d 00 -36
        e 0 80 43 00 -3
        e 0 90 3e 7f -24
        e 0 90 29 7f -20
        e 0 90 35 7f -20
        e 0 90 39 7f -20
        e 0 90 41 7f -12
        e 192 80 41 00 23
        e 0 90 45 7f -7
        e 96 80 3e 00 40
        e 0 80 29 00 16
        e 0 80 35 00 16
        e 0 80 39 00 16
        e 96 80 45 00 -42
        e 0 90 40 7f -44
        e 0 90 24 7f -42
        e 0 90 30 7f -42
        e 0 90 3c 7f -42
        e 0 90 43 7f -16
        e 192 80 40 00 10
        e 0 80 24 00 -6
        e 0 80 30 00 -6
        e 0 80 3c 00 -6
        e 0 80 43 00 -15
        e 0 90 45 7f -35
        e 0 90 3e 7f -9
        e 0 90 21 7f -5
        e 0 90 2d 7f -5
        e 0 90 39 7f -5
        e 96 80 21 00 36
        e 0 80 2d 00 36
        e 0 80 39 00 36
        e 96 80 45 00 16
        e 0 80 3e 00 -32
        e 0 90 3c 7f -2
        e 0 90 1d 7f 1
        e 0 90 29 7f 1
        e 0 90 39 7f 1
        e 0 90 41 7f 12
        e 288 80 1d 00 -13
        e 0 80 29 00 -13
        e 0 80 39 00 -13
        e 96 80 3c 00 -34
        e 0 80 41 00 -44
        e 0 90 3a 7f -13
        e 0 90 24 7f -12
        e 0 90 30 7f -12
        e 0 90 37 7f -12
        e 0 90 40 7f -8
        e 192 80 3a 00
        e 0 80 24 00 10
        e 0 80 30 00 10
        e 0 80 37 00 10
        e 96 80 40 00 -11
        e 0 90 43 7f -11
        e 0 90 3a 7f -2
        e 0 90 40 7f 2
        e 96 80 43 00 9
        e 0 80 3a 00 13
        e 0 80 40 00 -2
        e 0 90 35 7f -15
        e 0 90 29 7f -12
        e 0 90 39 7f -11
        e 0 90 3c 7f -8
        e 0 90 41 7f 8
        e 192 80 35 00 19
        e 0 80 29 00 10
        e 96 80 39 00 -27
        e 0 80 3c 00 -2
        e 0 80 41 00 20
        e 96 90 45 7f -8
        e 192 80 45 00 -45
        e 96 90 45 7f 4
        e 96 80 45 00 -42
        e 0 90 45 7f -21
        e 0 90 35 7f -16
        e 0 90 29 7f -15
        e 0 90 30 7f -12
        e 96 80 35 00 -41
        e 0 80 29 00 -49
        e 0 80 30 00 -55
        e 96 90 41 7f -48
        e 0 90 3e 7f 43
        e 96 80 41 00 -86
        e 0 80 3e 00 18
        e 96 80 45 00 6
        e 0 90 3c 7f -32
        e 0 90 43 7f -3
        e 0 90 35 7f 1
        e 0 90 29 7f 2
        e 0 90 30 7f 4
        e 96 80 35 00 -35
        e 0 80 29 00 -34
        e 0 80 30 00 -46
        e 96 80 43 00 -17
        e 0 90 41 7f -30
        e 96 80 3c 00 4
        e 96 80 41 00 -36
        e 0 90 30 7f -31
        e 0 90 24 7f -29
        e 0 90 43 7f -20
        e 0 90 46 7f -19
        e 96 80 30 00 -71
        e 0 80 24 00 -68
        e 288 80 43 00 -30
        e 0 80 46 00 -41
        e 0 90 45 7f -31
        e 0 90 29 7f -25
        e 0 90 35 7f -24
        e 0 90 30 7f -22
        e 0 90 3e 7f -18
        e 96 80 29 00 -60
        e 0 80 35 00 -60
        e 0 80 30 00 -72
        e 192 80 45 00 18
        e 0 90 43 7f -3
        e 96 80 3e 00 29
        e 0 80 43 00 -52
        e 0 90 43 7f -20
        e 0 90 30 7f -18
        e 0 90 24 7f -12
        e 96 80 30 00 -66
        e 0 80 24 00 -56
        e 96 90 37 7f 23
        e 0 90 3c 7f 25
        e 0 90 2b 7f 31
        e 96 80 37 00 -25
        e 0 80 3c 00 -25
        e 0 80 2b 00 -32
        e 0 90 40 7f 16
        e 96 80 43 00 5
        e 0 80 40 00 -35
        e 0 90 28 7f -12
        e 0 90 34 7f -10
        e 0 90 43 7f 5
        e 96 80 28 00 -61
        e 0 80 34 00 -57
        e 0 80 43 00 -42
        e 0 90 40 7f 6
        e 96 80 40 00 -38
        e 0 90 43 7f -14
        e 0 90 24 7f -8
        e 0 90 30 7f -6
        e 96 80 43 00 -61
        e 0 80 24 00 -56
        e 0 80 30 00 -56
        e 0 90 48 7f -13
        e 96 80 48 00 -44
        e 0 90 43 7f -16
        e 0 90 37 7f -9
        e 0 90 2b 7f -7
        e 96 80 43 00 -71
        e 0 80 37 00 -61
        e 0 80 2b 00 -57
        e 288 90 46 7f -31
        e 0 90 35 7f -23
        e 0 90 29 7f -12
        e 192 80 46 00 5
        e 0 80 35 00 27
        e 0 80 29 00 -6
        e 96 90 40 7f -43
        e 0 90 46 7f -22
        e 0 90 32 7f -10
        e 0 90 26 7f
        e 96 80 40 00 -56
        e 0 80 46 00 -72
        e 0 80 32 00 -32
        e 0 80 26 00 -42
        e 0 90 3a 7f -39
        e 0 90 46 7f -36
        e 0 90 3e 7f -35
        e 0 90 22 7f -14
        e 0 90 2e 7f -10
        e 96 80 22 00 28
        e 0 80 2e 00 23
        e 96 80 3a 00 -9
        e 96 80 3e 00 -39
        e 0 90 3c 7f -38
        e 96 80 46 00 -5
        e 0 80 3c 00 -63
        e 0 90 3e 7f -38
        e 0 90 45 7f -30
        e 0 90 35 7f -21
        e 0 90 30 7f -18
        e 0 90 29 7f -16
        e 96 80 35 00 -39
        e 0 80 30 00 -46
        e 0 80 29 00 -39
        e 96 80 45 00 -11
        e 0 90 43 7f -22
        e 192 80 3e 00 -28
        e 0 80 43 00 17
        e 0 90 2b 7f -16
        e 0 90 37 7f -15
        e 0 90 48 7f -13
        e 0 90 30 7f -12
        e 0 90 45 7f
        e 96 80 2b 00 -51
        e 0 80 37 00 -47
        e 0 80 30 00 -53
        e 288 80 48 00 -4
        e 0 80 45 00 -18
        e 0 90 46 7f -8
        e 0 90 40 7f
        e 0 90 2b 7f 6
        e 0 90 37 7f 7
        e 0 90 30 7f 10
        e 96 80 2b 00 -28
        e 0 80 37 00 -11
        e 0 80 30 00 -36
        e 192 80 46 00 4
        e 0 90 45 7f 10
        e 96 80 40 00 16
        e 0 80 45 00 -26
        e 0 90 45 7f
        e 0 90 30 7f
        e 0 90 29 7f
        e 0 90 35 7f
        e 96 80 30 00 -18
        e 0 80 29 00 -10
        e 0 80 35 00 -36
        e 96 90 30 7f
        e 0 90 3c 7f
        e 96 80 30 00 -43
        e 0 80 3c 00 -44
        e 0 90 41 7f
        e 96 80 45 00
        e 0 80 41 00 -43
        e 0 90 45 7f
        e 0 90 2d 7f
        e 0 90 39 7f
        e 96 80 45 00 -30
        e 0 80 2d 00 -49
        e 0 80 39 00 -53
        e 0 90 41 7f
        e 96 80 41 00 -39
        e 0 90 45 7f
        e 0 90 35 7f
        e 0 90 29 7f
        e 96 80 45 00 -39
        e 0 80 35 00 -53
        e 0 80 29 00 -47
        e 0 90 4a 7f
        e 96 80 4a 00 -26
        e 0 90 3c 7f
        e 0 90 35 7f
        e 0 90 30 7f
        e 0 90 48 7f
        e 96 80 3c 00 -12
        e 0 80 35 00 -19
        e 0 80 30 00 -6
        e 96 80 48 00 33
        e 192 90 45 7f 3
        e 192 80 45 00 18
        e 96 90 45 7f 19
        e 96 80 45 00 -32
        e 0 90 35 7f -1
        e 0 90 30 7f 1
        e 0 90 29 7f 3
        e 0 90 45 7f 5
        e 96 80 35 00 -11
        e 0 80 30 00 -22
        e 0 80 29 00 -10
        e 96 90 41 7f -46
        e 96 80 41 00 -65
        e 0 90 3e 7f -34
        e 96 80 45 00 1
        e 0 80 3e 00 -25
        e 0 90 43 7f -21
        e 0 90 3c 7f -3
        e 0 90 35 7f 11
        e 0 90 30 7f 21
        e 0 90 29 7f 22
        e 96 80 35 00 -20
        e 0 80 30 00 -17
        e 0 80 29 00 3
        e 96 80 43 00 -14
        e 0 90 41 7f -25
        e 192 80 3c 00 -35
        e 0 80 41 00 -7
        e 0 90 46 7f -16
        e 0 90 24 7f -16
        e 0 90 30 7f -13
        e 96 80 24 00 -30
        e 0 80 30 00 -41
        e 96 90 43 7f -12
        e 192 80 46 00 -1
        e 0 80 43 00 -14
        e 0 90 3e 7f -25
        e 0 90 45 7f -21
        e 0 90 29 7f -6
        e 0 90 35 7f -4
        e 0 90 30 7f -2
        e 96 80 29 00 -36
        e 0 80 35 00 -37
        e 0 80 30 00 -46
        e 192 80 45 00 -11
        e 0 90 43 7f -4
        e 96 80 3e 00 -41
        e 0 80 43 00 -40
        e 0 90 43 7f -5
        e 0 90 37 7f 3
        e 0 90 2b 7f 11
        e 0 90 30 7f 11
        e 96 80 37 00 -41
        e 0 80 2b 00 -33
        e 0 80 30 00 -54
        e 96 90 2b 7f -2
        e 0 90 30 7f -1
        e 0 90 37 7f 2
        e 0 90 3c 7f 13
        e 96 80 2b 00 -42
        e 0 80 30 00 -47
        e 0 80 37 00 -51
        e 0 80 3c 00 -42
        e 0 90 40 7f -5
        e 96 80 43 00 -9
        e 0 80 40 00 -43
        e 0 90 43 7f -9
        e 0 90 34 7f 2
        e 0 90 28 7f 3
        e 96 80 43 00 -42
        e 0 80 34 00 -50
        e 0 80 28 00 -46
        e 96 90 45 7f -18
        e 0 90 40 7f -10
        e 0 90 37 7f -1
        e 0 90 30 7f 1
        e 0 90 2b 7f 2
        e 96 80 45 00 -22
        e 0 80 40 00 -60
        e 0 80 37 00 -54
        e 0 80 30 00 -46
        e 0 80 2b 00 -41
        e 0 90 43 7f -42
        e 0 90 46 7f -26
        e 96 80 43 00 -84
        e 0 80 46 00 -23
        e 0 90 3c 7f -18
        e 0 90 41 7f -18
        e 0 90 48 7f -18
        e 0 90 29 7f -6
        e 0 90 35 7f -1
        e 192 80 29 00 -33
        e 0 80 35 00 -47
        e 96 80 3c 00 -37
        e 0 80 41 00 -37
        e 0 80 48 00 -37
        e 96 90 48 7f 7
        e 192 80 48 00 -14
        e 96 90 48 7f -11
        e 96 80 48 00 -56
        e 0 90 41 7f -28
        e 0 90 3c 7f -24
        e 0 90 48 7f -20
        e 0 90 30 7f 5
        e 0 90 29 7f 7
        e 96 80 30 00 27
        e 0 80 29 00 29
        e 192 80 41 00 45
        e 0 80 3c 00 2
        e 96 80 48 00 -4
        e 0 90 3d 7f -47
        e 0 90 2d 7f -29
        e 0 90 21 7f -26
        e 0 90 45 7f -24
        e 96 80 2d 00 -18
        e 0 80 21 00 6
        e 96 80 45 00 39
        e 96 80 3d 00 23
        e 0 90 43 7f -30
        e 96 80 43 00 -56
        e 0 90 3e 7f -44
        e 0 90 39 7f -43
        e 0 90 41 7f -37
        e 0 90 26 7f -26
        e 0 90 32 7f -24
        e 192 80 41 00 -6
        e 0 80 26 00 28
        e 0 90 45 7f -25
        e 96 80 3e 00 34
        e 0 80 39 00 1
        e 0 80 32 00 -26
        e 96 80 45 00 -2
        e 0 90 3c 7f -34
        e 0 90 40 7f -32
        e 0 90 30 7f -16
        e 0 90 24 7f -16
        e 0 90 43 7f -6
        e 96 80 3c 00 45
        e 0 80 40 00 33
        e 0 80 30 00 -55
        e 0 80 24 00 -44
        e 0 90 3e 7f 45
        e 0 90 39 7f 47
        e 96 80 43 00 -8
        e 0 90 2d 7f -20
        e 0 90 21 7f -14
        e 0 90 45 7f -3
        e 96 80 3e 00 46
        e 0 80 39 00 -18
        e 0 80 2d 00 -45
        e 0 80 21 00 -30
        e 96 80 45 00 -22
        e 0 90 29 7f -22
        e 0 90 1d 7f -21
        e 0 90 41 7f -11
        e 0 90 39 7f -2
        e 0 90 3c 7f -1
        e 96 80 1d 00 44
        e 96 80 29 00 -45
        e 96 80 39 00 28
        e 96 80 41 00 -27
        e 0 80 3c 00 -8
        e 0 90 3a 7f -45
        e 0 90 37 7f -43
        e 0 90 40 7f -26
        e 0 90 30 7f -22
        e 0 90 24 7f -16
        e 96 80 3a 00 -7
        e 0 80 37 00 -19
        e 96 80 40 00 32
        e 96 80 30 00 -12
        e 0 80 24 00 19
        e 0 90 3a 7f -45
        e 0 90 40 7f -45
        e 0 90 43 7f -45
        e 96 80 3a 00 -41
        e 0 80 40 00 -41
        e 0 80 43 00 -41
        e 0 90 35 7f -34
        e 0 90 41 7f -32
        e 0 90 29 7f -31
        e 0 90 39 7f -30
        e 0 90 3c 7f -28
        e 96 80 35 00 27
        e 0 80 29 00 26
        e 0 80 39 00 -41
        e 0 80 3c 00 -14
        e 96 90 30 7f -22
        e 0 90 43 7f -18
        e 0 90 24 7f -17
        e 96 80 43 00 -62
        e 0 90 45 7f -22
        e 96 80 41 00 -14
        e 0 80 30 00 -48
        e 0 80 24 00 -41
        e 0 80 45 00 -67
        e 0 90 46 7f -36
        e 0 90 26 7f -11
        e 0 90 32 7f -11
        e 96 80 46 00 -69
        e 0 80 32 00 44
        e 0 90 48 7f -42
        e 96 80 26 00 -40
        e 0 80 48 00 -83
        e 0 90 4a 7f -48
        e 0 90 28 7f -20
        e 0 90 34 7f -20
        e 0 90 4c 7f 45
        e 96 80 4a 00 -91
        e 0 80 4c 00 12
        e 0 90 3c 7f -20
        e 0 90 45 7f 45
        e 0 90 41 7f 46
        e 96 80 28 00 -44
        e 0 80 34 00 -48
        e 0 80 3c 00 -56
        e 0 90 4d 7f -41
        e 0 90 35 7f -18
        e 0 90 29 7f -17
        e 288 80 45 00 26
        e 0 80 41 00 -22
        e 0 80 4d 00 18
        e 0 80 35 00 -3
        e 0 80 29 00 -21
        e 96 90 4d 7f -40
        e 0 90 32 7f -39
        e 0 90 26 7f -34
        e 0 90 41 7f -28
        e 0 90 3e 7f -25
        e 0 90 39 7f -22
        e 96 80 32 00 16
        e 0 80 26 00 13
        e 96 80 4d 00 32
        e 0 80 41 00 -38
        e 0 80 3e 00 7
        e 0 80 39 00 15
        e 0 90 3c 7f 45
        e 96 80 3c 00 1
        e 0 90 24 7f -30
        e 0 90 30 7f -26
        e 0 90 48 7f -9
        e 0 90 3e 7f 44
        e 0 90 41 7f 46
        e 96 80 24 00 -72
        e 0 80 30 00 -80
        e 0 80 48 00 -52
        e 0 90 3a 7f -48
        e 0 90 2e 7f -37
        e 0 90 22 7f -37
        e 0 90 4d 7f -25
        e 192 80 3e 00 28
        e 0 80 3a 00 34
        e 96 80 41 00 3
        e 0 80 2e 00 -11
        e 0 80 22 00 40
        e 0 80 4d 00 7
        e 96 90 4d 7f -45
        e 0 90 3c 7f -39
        e 0 90 35 7f -37
        e 0 90 29 7f -35
        e 0 90 39 7f -34
        e 0 90 41 7f -13
        e 96 80 4d 00 9
        e 0 80 41 00 -3
        e 0 90 4c 7f -10
        e 0 90 40 7f 13
        e 96 80 39 00 45
        e 0 80 4c 00 -31
        e 0 80 40 00 -5
        e 0 90 4d 7f 4
        e 0 90 41 7f 36
        e 96 80 3c 00 -43
        e 0 80 35 00 -3
        e 0 80 29 00 -5
        e 0 80 4d 00 8
        e 0 80 41 00 31
        e 0 90 4f 7f 45
        e 0 90 30 7f 47
        e 96 90 24 7f -48
        e 0 90 43 7f -26
        e 0 90 40 7f -10
        e 0 90 3c 7f
        e 96 80 30 00 -38
        e 0 80 24 00 -21
        e 96 90 37 7f -36
        e 0 90 2b 7f -35
        e 96 80 37 00 -51
        e 0 80 2b 00 -53
        e 96 90 34 7f -39
        e 0 90 28 7f -38
        e 96 80 40 00 -14
        e 0 80 3c 00 -28
        e 0 80 34 00 -52
        e 0 80 28 00 -40
        e 96 80 4f 00 -38
        e 0 80 43 00 -6
        e 0 90 30 7f -38
        e 0 90 24 7f -36
        e 0 90 51 7f -30
        e 0 90 45 7f -22
        e 0 90 40 7f -21
        e 0 90 3c 7f -17
        e 96 80 30 00 -24
        e 0 80 24 00 1
        e 0 80 51 00 33
        e 0 80 40 00 -14
        e 0 80 3c 00 -21
        e 96 80 45 00 -35
        e 0 90 4d 7f -36
        e 0 90 41 7f -27
        e 0 90 35 7f -22
        e 0 90 29 7f -20
        e 0 90 3c 7f -19
        e 0 90 39 7f -16
        e 192 80 4d 00 45
        e 0 80 35 00 -9
        e 0 80 29 00 -12
        e 0 80 39 00 47
        e 96 80 41 00 6
        e 0 80 3c 00 -34
        e 96 90 45 7f 8
        e 0 90 51 7f 9
        e 192 80 45 00 -32
        e 0 80 51 00 -20
        e 0 90 46 7f -17
        e 0 90 52 7f -15
        e 192 80 46 00 -23
        e 0 80 52 00 35
        e 0 90 35 7f -16
        e 0 90 41 7f -14
        e 0 90 29 7f -12
        e 0 90 45 7f -12
        e 0 90 3c 7f -6
        e 0 90 48 7f 3
        e 0 90 54 7f 15
        e 288 80 35 00 6
        e 0 80 41 00 35
        e 0 80 29 00 8
        e 0 80 45 00 46
        e 0 80 3c 00 12
        e 0 80 48 00 38
        e 96 80 54 00 -32
        e 0 90 51 7f -27
        e 0 90 45 7f -21
        e 0 90 39 7f -10
        e 0 90 2d 7f -10
        e 0 90 3d 7f 4
        e 288 80 51 00 6
        e 0 80 45 00 -9
        e 0 80 39 00 -13
        e 0 80 2d 00 -1
        e 0 80 3d 00 44
        e 0 90 43 7f -28
        e 0 90 4f 7f -19
        e 96 80 43 00 -16
        e 0 80 4f 00 -54
        e 0 90 41 7f -29
        e 0 90 4d 7f -24
        e 0 90 29 7f -23
        e 0 90 35 7f -22
        e 0 90 3e 7f -13
        e 0 90 39 7f -7
        e 192 80 41 00 -8
        e 0 80 4d 00 -6
        e 0 90 45 7f -41
        e 0 90 51 7f -28
        e 96 80 29 00 7
        e 0 80 35 00 10
        e 0 80 3e 00 3
        e 0 80 39 00 -34
        e 0 80 45 00 -8
        e 0 80 51 00 22
        e 0 90 43 7f 47
        e 96 90 40 7f -44
        e 0 90 4f 7f -41
        e 0 90 3c 7f -40
        e 0 90 24 7f -18
        e 0 90 30 7f -17
        e 96 80 43 00 20
        e 0 80 40 00 -31
        e 0 80 4f 00 18
        e 0 80 3c 00 -25
        e 0 80 24 00 39
        e 0 80 30 00 32
        e 0 90 45 7f 33
        e 0 90 51 7f 45
        e 96 90 39 7f -42
        e 0 90 3e 7f -40
        e 0 90 2d 7f -28
        e 0 90 21 7f -24
        e 96 80 39 00 -31
        e 0 80 3e 00 -27
        e 0 80 2d 00 40
        e 0 80 21 00 39
        e 96 80 45 00 -46
        e 0 80 51 00 -42
        e 0 90 39 7f -42
        e 0 90 3c 7f -39
        e 0 90 41 7f -36
        e 0 90 4d 7f -24
        e 0 90 29 7f -17
        e 0 90 1d 7f -14
        e 192 80 39 00 24
        e 0 80 3c 00 34
        e 96 80 29 00 14
        e 0 80 1d 00 17
        e 96 80 41 00 -9
        e 0 80 4d 00 -15
        e 0 90 4c 7f -17
        e 0 90 40 7f -16
        e 0 90 30 7f -16
        e 0 90 24 7f -13
        e 0 90 3a 7f -5
        e 0 90 37 7f -4
        e 192 80 4c 00 37
        e 0 80 3a 00 4
        e 0 80 37 00 -3
        e 96 80 40 00 -8
        e 0 80 30 00 18
        e 0 80 24 00 32
        e 0 90 43 7f 9
        e 0 90 4f 7f 11
        e 0 90 3a 7f 17
        e 0 90 40 7f 22
        e 96 80 43 00 15
        e 0 80 4f 00 12
        e 0 80 3a 00 -10
        e 0 80 40 00 21
        e 0 90 4d 7f 39
        e 0 90 29 7f 41
        e 0 90 35 7f 44
        e 0 90 41 7f 46
        e 96 90 39 7f -47
        e 0 90 3c 7f -46
        e 288 80 4d 00 16
        e 0 80 29 00 37
        e 0 80 35 00 40
        e 0 80 41 00 43
        e 0 80 39 00 41
        e 0 80 3c 00 23
        E 384 b0 7b 00
        GUID {12E52A4F-1C0C-BC4E-BBC0-E6553E87136A}
        IGNTEMPO 0 120 4 4
        SRCCOLOR 821
        VELLANE -1 108 6
        CFGEDITVIEW 0 0 43 12 0 0 0 0 0 0.5
        KEYSNAP 0
        TRACKSEL 226
        EVTFILTER 0 -1 -1 -1 -1 0 0 0 0 -1 -1 -1 -1 0 -1 0 -1 -1
        CFGEDIT 1 1 0 0 0 0 1 0 1 1 1 0.25 0 187 878 778 0 0 2 3 0 0 0 0 0 -1 0 0 1 64
      >
      TAKE
      NAME "exten synt - National_Anthems_-_Egypt.mid"
      TAKEVOLPAN 0 1 -1
      SOFFS 32 64
      PLAYRATE 1 1 0 -1 0 0.0025
      CHANMODE 0
      GUID {E79CB81B-CA00-3F4A-9580-5C5E76BF6CD5}
      <SOURCE MIDI
        HASDATA 1 384 QN
        POOLEDEVTS {EAEDE01B-B34A-B34F-8962-70B16FE171B4}
        <X 0 0 0 0 3 "exten synt"
          /wNleHRlbiBzeW50
        >
        E 291 92 3c 5e
        E 49 92 3c 00
        E 40 92 41 57
        E 23 92 39 44
        E 0 92 3c 4c
        E 18 92 29 4e
        E 6 92 35 57
        E 181 92 39 00
        E 4 92 3c 00
        E 73 92 41 00
        E 43 92 29 00
        E 10 92 35 00
        E 31 92 39 45
        E 1 92 3e 4b
        E 5 92 41 51
        E 15 92 26 48
        E 5 92 32 59
        E 189 92 3e 00
        E 1 92 39 00
        E 3 92 41 00
        E 48 92 3c 58
        E 52 92 3c 00
        E 5 92 32 00
        E 25 92 26 00
        E 12 92 41 51
        E 20 92 3a 45
        E 1 92 3e 4a
        E 4 92 2e 50
        E 3 92 22 4b
        E 181 92 3a 00
        E 8 92 3e 00
        E 83 92 2e 00
        E 19 92 22 00
        E 21 92 41 00
        E 43 92 29 4d
        E 0 92 35 57
        E 5 92 41 53
        E 7 92 39 4a
        E 1 92 3c 4f
        E 123 92 40 5a
        E 2 92 41 00
        E 92 92 39 00
        E 4 92 3c 00
        E 2 92 40 00
        E 36 92 41 5a
        E 50 92 29 00
        E 0 92 35 00
        E 57 92 41 00
        E 16 92 24 4e
        E 0 92 30 5b
        E 4 92 3c 4a
        E 0 92 40 4a
        E 11 92 43 54
        E 67 92 24 00
        E 6 92 30 00
        E 86 92 2b 50
        E 3 92 37 59
        E 88 92 2b 00
        E 7 92 37 00
        E 95 92 28 50
        E 5 92 34 54
        E 81 92 34 00
        E 0 92 28 00
        E 6 92 3c 00
        E 14 92 40 00
        E 85 92 24 48
        E 3 92 30 5a
        E 23 92 3c 55
        E 1 92 40 4d
        E 1 92 45 50
        E 13 92 43 00
        E 28 92 30 00
        E 23 92 24 00
        E 57 92 3c 00
        E 23 92 40 00
        E 31 92 39 45
        E 1 92 3c 42
        E 2 92 35 51
        E 0 92 29 47
        E 1 92 45 00
        E 5 92 41 53
        E 137 92 29 00
        E 7 92 35 00
        E 74 92 39 00
        E 6 92 3c 00
        E 64 92 41 00
        E 107 92 45 54
        E 169 92 45 00
        E 6 92 46 4e
        E 191 92 35 53
        E 2 92 29 4e
        E 3 92 41 47
        E 2 92 45 48
        E 3 92 3c 47
        E 8 92 48 52
        E 4 92 46 00
        E 282 92 35 00
        E 4 92 29 00
        E 36 92 48 00
        E 3 92 3c 00
        E 15 92 41 00
        E 2 92 45 54
        E 1 92 45 00
        E 21 92 2d 48
        E 4 92 39 58
        E 2 92 3d 4a
        E 274 92 43 4a
        E 12 92 45 00
        E 18 92 3d 00
        E 9 92 2d 00
        E 1 92 39 00
        E 37 92 3e 42
        E 0 92 41 49
        E 3 92 29 4a
        E 1 92 39 42
        E 6 92 41 52
        E 1 92 35 55
        E 13 92 43 00
        E 182 92 45 53
        E 33 92 41 00
        E 71 92 3e 00
        E 9 92 29 00
        E 17 92 39 00
        E 1 92 35 00
        E 0 92 45 00
        E 15 92 41 00
        E 16 92 43 4d
        E 15 92 40 52
        E 9 92 3c 4a
        E 10 92 24 52
        E 1 92 30 63
        E 152 92 30 00
        E 9 92 24 00
        E 5 92 45 4f
        E 6 92 3e 53
        E 5 92 40 00
        E 6 92 43 00
        E 1 92 39 47
        E 5 92 2d 4a
        E 2 92 21 4a
        E 5 92 3c 00
        E 113 92 39 00
        E 37 92 3e 00
        E 1 92 21 00
        E 6 92 2d 00
        E 11 92 3c 55
        E 2 92 39 43
        E 5 92 41 4f
        E 5 92 45 00
        E 9 92 29 51
        E 7 92 1d 4a
        E 304 92 29 00
        E 2 92 39 00
        E 12 92 1d 00
        E 8 92 3c 00
        E 30 92 40 51
        E 11 92 24 4e
        E 1 92 3a 51
        E 0 92 30 57
        E 0 92 41 00
        E 7 92 37 50
        E 158 92 37 00
        E 1 92 3a 00
        E 123 92 43 48
        E 0 92 40 00
        E 22 92 40 4e
        E 3 92 3a 3b
        E 30 92 30 00
        E 10 92 24 00
        E 2 92 43 00
        E 21 92 3a 00
        E 1 92 40 00
        E 2 92 35 53
        E 1 92 41 4a
        E 2 92 29 4f
        E 14 92 3c 54
        E 3 92 39 42
        E 384 92 29 00
        E 5 92 35 00
        E 11 92 3c 00
        E 6 92 39 00
        E 38 92 41 00
        E 254 92 3c 58
        E 76 92 3c 00
        E 13 92 3c 4c
        E 2 92 39 4e
        E 6 92 41 50
        E 2 92 3c 1b
        E 4 92 35 54
        E 1 92 29 4b
        E 16 92 3c 00
        E 278 92 39 00
        E 24 92 3c 00
        E 11 92 41 00
        E 17 92 29 00
        E 9 92 35 00
        E 8 92 41 57
        E 0 92 39 4a
        E 1 92 3e 50
        E 23 92 32 55
        E 1 92 26 46
        E 216 92 39 00
        E 44 92 3e 00
        E 3 92 3c 52
        E 5 92 41 00
        E 47 92 26 00
        E 10 92 32 00
        E 10 92 3c 00
        E 12 92 41 50
        E 6 92 22 48
        E 4 92 2e 50
        E 10 92 3a 4e
        E 1 92 3e 4f
        E 307 92 3a 00
        E 13 92 2e 00
        E 6 92 3e 00
        E 9 92 41 00
        E 5 92 22 00
        E 27 92 39 51
        E 3 92 3c 50
        E 0 92 35 52
        E 3 92 29 47
        E 1 92 41 52
        E 123 92 40 55
        E 17 92 41 00
        E 103 92 40 00
        E 2 92 41 59
        E 69 92 35 00
        E 2 92 29 00
        E 11 92 3c 00
        E 4 92 39 00
        E 22 92 41 00
        E 12 92 43 4a
        E 9 92 24 53
        E 1 92 30 5e
        E 10 92 3c 4e
        E 1 92 40 4a
        E 149 92 30 00
        E 6 92 24 00
        E 22 92 2b 48
        E 5 92 37 58
        E 105 92 2b 00
        E 7 92 37 00
        E 61 92 28 4b
        E 1 92 34 51
        E 103 92 3c 00
        E 21 92 28 00
        E 0 92 40 00
        E 6 92 34 00
        E 61 92 30 5b
        E 5 92 45 50
        E 0 92 24 4d
        E 13 92 40 4d
        E 2 92 43 00
        E 1 92 3c 57
        E 114 92 30 00
        E 15 92 24 00
        E 34 92 3c 00
        E 6 92 29 4a
        E 1 92 35 53
        E 2 92 41 50
        E 13 92 40 00
        E 3 92 45 00
        E 15 92 3c 4c
        E 1 92 39 50
        E 210 92 29 00
        E 10 92 41 00
        E 0 92 35 00
        E 69 92 3c 00
        E 4 92 39 00
        E 84 92 45 55
        E 156 92 46 4f
        E 24 92 45 00
        E 184 92 45 4a
        E 1 92 3c 4f
        E 0 92 41 49
        E 0 92 46 00
        E 16 92 35 5b
        E 6 92 29 52
        E 7 92 48 51
        E 275 92 35 00
        E 13 92 29 00
        E 35 92 45 00
        E 9 92 3c 00
        E 12 92 41 00
        E 10 92 3d 4d
        E 2 92 39 57
        E 3 92 2d 4f
        E 2 92 45 5a
        E 46 92 48 00
        E 170 92 2d 00
        E 73 92 39 00
        E 6 92 43 4a
        E 23 92 45 00
        E 47 92 3d 00
        E 12 92 3e 50
        E 4 92 29 4a
        E 0 92 35 4a
        E 0 92 39 4a
        E 8 92 41 53
        E 9 92 43 00
        E 188 92 45 4f
        E 30 92 41 00
        E 89 92 39 00
        E 0 92 35 00
        E 0 92 29 00
        E 24 92 3e 00
        E 12 92 40 47
        E 2 92 24 4c
        E 0 92 30 4c
        E 0 92 3c 4c
        E 0 92 45 00
        E 26 92 43 53
        E 173 92 45 50
        E 20 92 43 00
        E 6 92 3e 4a
        E 3 92 30 00
        E 0 92 3c 00
        E 0 92 24 00
        E 1 92 21 45
        E 0 92 2d 45
        E 0 92 39 45
        E 15 92 40 00
        E 122 92 2d 00
        E 0 92 21 00
        E 0 92 39 00
        E 28 92 3e 00
        E 30 92 3c 4f
        E 3 92 1d 4a
        E 0 92 29 4a
        E 0 92 39 4a
        E 11 92 41 48
        E 4 92 45 00
        E 259 92 39 00
        E 0 92 29 00
        E 0 92 1d 00
        E 65 92 41 00
        E 10 92 3c 00
        E 21 92 3a 48
        E 1 92 24 50
        E 0 92 30 50
        E 0 92 37 50
        E 4 92 40 4a
        E 200 92 3a 00
        E 10 92 37 00
        E 0 92 24 00
        E 0 92 30 00
        E 75 92 43 44
        E 0 92 40 00
        E 9 92 3a 4b
        E 4 92 40 46
        E 79 92 35 55
        E 3 92 29 4b
        E 1 92 39 4c
        E 3 92 3c 4b
        E 6 92 40 00
        E 10 92 41 4d
        E 1 92 43 00
        E 4 92 3a 00
        E 189 92 29 00
        E 9 92 35 00
        E 50 92 39 00
        E 25 92 3c 00
        E 22 92 41 00
        E 68 92 45 44
        E 155 92 45 00
        E 145 92 45 46
        E 50 92 45 00
        E 21 92 45 3e
        E 5 92 35 32
        E 1 92 29 2f
        E 3 92 30 41
        E 53 92 30 00
        E 6 92 29 00
        E 8 92 35 00
        E 89 92 41 4c
        E 58 92 41 00
        E 33 92 3e 4d
        E 71 92 3e 00
        E 46 92 3c 4c
        E 29 92 43 39
        E 4 92 35 3c
        E 1 92 29 3a
        E 2 92 30 3e
        E 2 92 45 00
        E 44 92 30 00
        E 11 92 35 00
        E 1 92 29 00
        E 100 92 41 41
        E 13 92 43 00
        E 117 92 3c 00
        E 56 92 41 00
        E 5 92 30 4d
        E 2 92 24 35
        E 9 92 43 48
        E 1 92 46 3a
        E 44 92 30 00
        E 3 92 24 00
        E 315 92 46 00
        E 10 92 45 41
        E 1 92 43 00
        E 5 92 29 3a
        E 1 92 35 3e
        E 2 92 30 42
        E 4 92 3e 4a
        E 42 92 30 00
        E 12 92 35 00
        E 0 92 29 00
        E 249 92 43 3c
        E 21 92 45 00
        E 26 92 43 00
        E 32 92 43 42
        E 2 92 30 50
        E 6 92 24 37
        E 41 92 3e 00
        E 1 92 30 00
        E 10 92 24 00
        E 175 92 37 4e
        E 2 92 3c 4c
        E 6 92 2b 37
        E 33 92 2b 00
        E 7 92 3c 00
        E 0 92 37 00
        E 41 92 40 4a
        E 45 92 40 00
        E 23 92 28 3a
        E 2 92 34 46
        E 15 92 43 45
        E 30 92 28 00
        E 4 92 34 00
        E 15 92 43 00
        E 48 92 40 4a
        E 52 92 40 00
        E 24 92 43 46
        E 6 92 24 3e
        E 2 92 30 4f
        E 41 92 43 00
        E 5 92 30 00
        E 0 92 24 00
        E 43 92 48 44
        E 65 92 48 00
        E 28 92 43 4a
        E 7 92 37 51
        E 2 92 2b 3d
        E 32 92 43 00
        E 10 92 37 00
        E 4 92 2b 00
        E 125 92 43 00
        E 189 92 46 48
        E 8 92 35 48
        E 11 92 29 40
        E 198 92 29 00
        E 11 92 46 00
        E 22 92 35 00
        E 26 92 40 42
        E 21 92 46 3e
        E 12 92 32 3c
        E 10 92 26 3d
        E 24 92 46 00
        E 16 92 40 00
        E 14 92 26 00
        E 3 92 3a 3e
        E 3 92 46 43
        E 1 92 3e 48
        E 3 92 32 00
        E 18 92 22 39
        E 4 92 2e 40
        E 129 92 2e 00
        E 5 92 22 00
        E 59 92 3a 00
        E 66 92 3e 00
        E 1 92 3c 50
        E 71 92 3c 00
        E 25 92 3e 4c
        E 8 92 45 47
        E 9 92 35 45
        E 3 92 30 4f
        E 2 92 29 42
        E 11 92 46 00
        E 55 92 30 00
        E 7 92 35 00
        E 0 92 29 00
        E 113 92 43 3f
        E 11 92 45 00
        E 175 92 3e 00
        E 12 92 2b 3e
        E 1 92 37 47
        E 2 92 48 44
        E 1 92 30 49
        E 12 92 45 4a
        E 17 92 43 00
        E 26 92 30 00
        E 2 92 2b 00
        E 4 92 37 00
        E 317 92 45 00
        E 10 92 46 45
        E 4 92 48 00
        E 4 92 40 4a
        E 6 92 2b 42
        E 1 92 37 48
        E 3 92 30 49
        E 50 92 30 00
        E 8 92 2b 00
        E 17 92 37 00
        E 207 92 46 00
        E 6 92 45 64
        E 60 92 45 00
        E 26 92 45 43
        E 0 92 30 4e
        E 0 92 29 3c
        E 0 92 35 4c
        E 16 92 40 00
        E 44 92 35 00
        E 18 92 30 00
        E 8 92 29 00
        E 106 92 30 4a
        E 0 92 3c 4a
        E 52 92 3c 00
        E 1 92 30 00
        E 43 92 41 4e
        E 53 92 41 00
        E 43 92 45 50
        E 0 92 2d 41
        E 0 92 39 4d
        E 43 92 39 00
        E 4 92 2d 00
        E 19 92 45 00
        E 30 92 41 50
        E 57 92 41 00
        E 39 92 45 4a
        E 0 92 35 4d
        E 0 92 29 40
        E 43 92 35 00
        E 6 92 29 00
        E 8 92 45 00
        E 39 92 4a 4f
        E 70 92 4a 00
        E 26 92 3c 4a
        E 0 92 35 4a
        E 0 92 30 4b
        E 0 92 48 4c
        E 77 92 35 00
        E 7 92 3c 00
        E 6 92 30 00
        E 2 92 45 00
        E 133 92 48 00
        E 162 92 45 4a
        E 207 92 45 00
        E 97 92 45 46
        E 45 92 45 00
        E 31 92 35 4e
        E 2 92 30 48
        E 2 92 29 3c
        E 2 92 45 4c
        E 69 92 30 00
        E 11 92 35 00
        E 1 92 29 00
        E 60 92 41 4e
        E 77 92 41 00
        E 31 92 3e 4d
        E 105 92 3e 00
        E 4 92 43 43
        E 18 92 3c 50
        E 4 92 45 00
        E 10 92 35 4f
        E 10 92 30 4d
        E 1 92 29 3c
        E 54 92 35 00
        E 3 92 30 00
        E 20 92 29 00
        E 68 92 41 42
        E 11 92 43 00
        E 171 92 3c 00
        E 19 92 46 3e
        E 0 92 24 49
        E 3 92 30 4f
        E 6 92 41 00
        E 62 92 30 00
        E 11 92 24 00
        E 114 92 43 37
        E 179 92 3e 33
        E 4 92 45 50
        E 7 92 43 00
        E 8 92 29 38
        E 2 92 35 4e
        E 2 92 30 45
        E 1 92 46 00
        E 51 92 30 00
        E 9 92 35 00
        E 1 92 29 00
        E 217 92 45 00
        E 7 92 43 44
        E 59 92 3e 00
        E 1 92 43 00
        E 35 92 43 49
        E 8 92 37 50
        E 8 92 2b 3b
        E 0 92 30 46
        E 31 92 30 00
        E 13 92 37 00
        E 8 92 2b 00
        E 127 92 2b 43
        E 1 92 30 47
        E 3 92 37 57
        E 11 92 3c 51
        E 32 92 37 00
        E 4 92 30 00
        E 5 92 3c 00
        E 0 92 2b 00
        E 37 92 40 4e
        E 58 92 40 00
        E 34 92 43 47
        E 11 92 34 4a
        E 1 92 28 42
        E 43 92 34 00
        E 4 92 28 00
        E 4 92 43 00
        E 120 92 45 49
        E 8 92 40 4b
        E 6 92 43 00
        E 3 92 37 53
        E 2 92 30 48
        E 1 92 2b 3f
        E 34 92 40 00
        E 6 92 37 00
        E 8 92 30 00
        E 4 92 43 4a
        E 1 92 2b 00
        E 15 92 46 44
        E 4 92 45 00
        E 34 92 43 00
        E 61 92 46 00
        E 5 92 3c 39
        E 0 92 41 39
        E 0 92 48 39
        E 12 92 29 42
        E 5 92 35 54
        E 146 92 35 00
        E 14 92 29 00
        E 92 92 3c 00
        E 0 92 41 00
        E 0 92 48 00
        E 140 92 48 50
        E 171 92 48 00
        E 99 92 48 4a
        E 51 92 48 00
        E 28 92 41 4a
        E 4 92 3c 4c
        E 4 92 48 43
        E 25 92 30 53
        E 2 92 29 47
        E 116 92 30 00
        E 2 92 29 00
        E 165 92 3c 00
        E 43 92 41 00
        E 4 92 3d 4e
        E 18 92 2d 55
        E 3 92 21 49
        E 2 92 45 43
        E 20 92 48 00
        E 82 92 2d 00
        E 24 92 21 00
        E 129 92 45 00
        E 27 92 43 3d
        E 53 92 3d 00
        E 17 92 43 00
        E 12 92 3e 4a
        E 1 92 39 43
        E 6 92 41 3f
        E 11 92 26 46
        E 2 92 32 57
        E 191 92 45 40
        E 19 92 41 00
        E 34 92 26 00
        E 42 92 32 00
        E 27 92 39 00
        E 33 92 3e 00
        E 28 92 3c 4c
        E 2 92 40 42
        E 16 92 30 5e
        E 0 92 24 46
        E 10 92 43 3e
        E 4 92 45 00
        E 43 92 30 00
        E 11 92 24 00
        E 77 92 40 00
        E 12 92 3e 49
        E 0 92 3c 00
        E 2 92 39 4b
        E 29 92 2d 50
        E 6 92 21 46
        E 6 92 43 00
        E 5 92 45 40
        E 54 92 2d 00
        E 15 92 21 00
        E 12 92 39 00
        E 64 92 3e 00
        E 28 92 29 50
        E 0 92 45 00
        E 1 92 1d 45
        E 10 92 41 40
        E 9 92 39 41
        E 1 92 3c 51
        E 141 92 1d 00
        E 7 92 29 00
        E 169 92 39 00
        E 23 92 3a 4a
        E 2 92 37 4f
        E 16 92 41 00
        E 1 92 40 46
        E 4 92 30 59
        E 6 92 24 4b
        E 8 92 3c 00
        E 85 92 37 00
        E 12 92 3a 00
        E 135 92 40 00
        E 19 92 3a 4a
        E 0 92 40 4a
        E 0 92 43 4a
        E 33 92 30 00
        E 31 92 24 00
        E 36 92 40 00
        E 0 92 3a 00
        E 0 92 43 00
        E 7 92 35 4e
        E 2 92 41 44
        E 1 92 29 44
        E 1 92 39 4f
        E 2 92 3c 55
        E 83 92 39 00
        E 27 92 3c 00
        E 40 92 29 00
        E 1 92 35 00
        E 47 92 30 65
        E 4 92 43 5a
        E 1 92 24 53
        E 51 92 43 00
        E 40 92 45 5f
        E 51 92 45 00
        E 19 92 30 00
        E 7 92 24 00
        E 5 92 46 64
        E 22 92 41 00
        E 3 92 26 57
        E 0 92 32 63
        E 38 92 46 00
        E 27 92 48 69
        E 55 92 48 00
        E 31 92 32 00
        E 4 92 4a 6e
        E 8 92 26 00
        E 20 92 28 5f
        E 0 92 34 69
        E 25 92 4a 00
        E 40 92 4c 73
        E 31 92 3c 7f
        E 32 92 4c 00
        E 28 92 3c 00
        E 5 92 45 50
        E 1 92 41 5f
        E 2 92 34 00
        E 4 92 28 00
        E 3 92 4d 5c
        E 23 92 35 6e
        E 1 92 29 59
        E 283 92 41 00
        E 1 92 29 00
        E 18 92 35 00
        E 21 92 4d 00
        E 8 92 45 00
        E 30 92 4d 4f
        E 1 92 32 76
        E 5 92 26 63
        E 6 92 41 5c
        E 3 92 3e 50
        E 3 92 39 52
        E 131 92 26 00
        E 3 92 32 00
        E 42 92 41 00
        E 45 92 3e 00
        E 8 92 39 00
        E 17 92 4d 00
        E 13 92 3c 58
        E 21 92 24 4a
        E 4 92 30 73
        E 17 92 48 57
        E 10 92 3c 00
        E 15 92 30 00
        E 8 92 24 00
        E 20 92 3e 5a
        E 0 92 48 00
        E 2 92 41 55
        E 2 92 3a 55
        E 11 92 2e 61
        E 0 92 22 51
        E 12 92 4d 52
        E 245 92 3e 00
        E 6 92 3a 00
        E 51 92 2e 00
        E 14 92 41 00
        E 4 92 4d 00
        E 33 92 22 00
        E 11 92 4d 51
        E 6 92 3c 58
        E 2 92 35 69
        E 2 92 29 58
        E 1 92 39 50
        E 21 92 41 5e
        E 99 92 4c 54
        E 7 92 41 00
        E 12 92 4d 00
        E 4 92 40 58
        E 52 92 4c 00
        E 26 92 40 00
        E 9 92 4d 58
        E 32 92 41 5a
        E 9 92 39 00
        E 8 92 3c 00
        E 38 92 29 00
        E 2 92 35 00
        E 11 92 4d 00
        E 23 92 41 00
        E 14 92 4f 5a
        E 2 92 30 76
        E 1 92 24 5a
        E 22 92 43 53
        E 16 92 40 5c
        E 10 92 3c 5c
        E 58 92 30 00
        E 17 92 24 00
        E 81 92 37 6c
        E 1 92 2b 54
        E 78 92 2b 00
        E 2 92 37 00
        E 108 92 34 6e
        E 1 92 28 5a
        E 82 92 34 00
        E 12 92 28 00
        E 12 92 3c 00
        E 14 92 40 00
        E 72 92 30 76
        E 0 92 4f 00
        E 2 92 24 57
        E 6 92 51 54
        E 8 92 45 55
        E 1 92 40 63
        E 4 92 3c 5c
        E 11 92 43 00
        E 78 92 30 00
        E 3 92 3c 00
        E 7 92 40 00
        E 15 92 24 00
        E 32 92 51 00
        E 27 92 4d 58
        E 1 92 45 00
        E 8 92 41 59
        E 5 92 35 73
        E 2 92 29 5f
        E 1 92 3c 5b
        E 3 92 39 54
        E 196 92 29 00
        E 3 92 35 00
        E 54 92 4d 00
        E 2 92 39 00
        E 15 92 3c 00
        E 40 92 41 00
        E 98 92 45 60
        E 1 92 51 63
        E 151 92 45 00
        E 12 92 51 00
        E 3 92 46 53
        E 2 92 52 53
        E 184 92 46 00
        E 7 92 35 76
        E 2 92 41 5a
        E 2 92 29 54
        E 0 92 45 57
        E 6 92 3c 57
        E 9 92 48 5e
        E 12 92 54 58
        E 20 92 52 00
        E 259 92 35 00
        E 2 92 29 00
        E 4 92 3c 00
        E 23 92 41 00
        E 3 92 48 00
        E 8 92 45 00
        E 18 92 54 00
        E 5 92 51 63
        E 6 92 45 5b
        E 11 92 39 67
        E 0 92 2d 5a
        E 14 92 3d 63
        E 256 92 43 54
        E 9 92 4f 55
        E 6 92 39 00
        E 4 92 45 00
        E 8 92 2d 00
        E 7 92 51 00
        E 36 92 4f 00
        E 2 92 3d 00
        E 23 92 41 52
        E 5 92 4d 5a
        E 1 92 29 58
        E 1 92 35 76
        E 6 92 43 00
        E 3 92 3e 5a
        E 6 92 39 50
        E 158 92 45 54
        E 13 92 51 5b
        E 20 92 41 00
        E 2 92 4d 00
        E 68 92 39 00
        E 26 92 45 00
        E 11 92 3e 00
        E 4 92 29 00
        E 3 92 35 00
        E 12 92 51 00
        E 25 92 43 57
        E 5 92 40 5e
        E 3 92 4f 5e
        E 1 92 3c 5b
        E 22 92 24 5c
        E 1 92 30 73
        E 82 92 40 00
        E 6 92 3c 00
        E 43 92 4f 00
        E 2 92 43 00
        E 12 92 30 00
        E 1 92 45 55
        E 6 92 24 00
        E 6 92 51 5a
        E 9 92 39 54
        E 2 92 3e 69
        E 12 92 2d 5a
        E 4 92 21 55
        E 89 92 39 00
        E 4 92 3e 00
        E 66 92 21 00
        E 1 92 2d 00
        E 10 92 45 00
        E 4 92 39 58
        E 0 92 51 00
        E 3 92 3c 5b
        E 3 92 41 5b
        E 12 92 4d 5b
        E 7 92 29 63
        E 3 92 1d 54
        E 230 92 39 00
        E 10 92 3c 00
        E 76 92 29 00
        E 3 92 1d 00
        E 62 92 4c 5c
        E 1 92 40 59
        E 0 92 30 6e
        E 1 92 4d 00
        E 2 92 24 60
        E 4 92 41 00
        E 4 92 3a 58
        E 1 92 37 5a
        E 193 92 37 00
        E 7 92 3a 00
        E 33 92 4c 00
        E 51 92 40 00
        E 17 92 43 4d
        E 2 92 4f 5b
        E 6 92 3a 51
        E 1 92 30 00
        E 4 92 40 5c
        E 10 92 24 00
        E 54 92 3a 00
        E 22 92 4f 00
        E 3 92 43 00
        E 6 92 40 00
        E 18 92 4d 5e
        E 2 92 29 60
        E 3 92 35 67
        E 2 92 41 5f
        E 3 92 39 5a
        E 1 92 3c 5e
        E 350 92 4d 00
        E 7 92 3c 00
        E 14 92 29 00
        E 3 92 35 00
        E 1 92 39 00
        E 2 92 41 00
        E 341 b0 7b 00
        GUID {FBD103F1-E34E-5947-AE88-42291D8976EB}
        IGNTEMPO 0 120 4 4
        SRCCOLOR 822
        VELLANE -1 108 6
      >
    >
  >
  <TRACK {3CF13A00-0AFC-8542-AD98-73B6D91102DB}
    NAME "vst Plogue"
    PEAKCOL 26779488
    BEAT -1
    AUTOMODE 0
    VOLPAN 1 0 -1 -1 1
    MUTESOLO 0 0 0
    IPHASE 0
    ISBUS 0 0
    BUSCOMP 0 0
    SHOWINMIX 1 0.6667 0.5 1 0.5 0 0 0
    FREEMODE 0
    SEL 0
    REC 0 0 0 1 0 0 0
    VU 2
    TRACKHEIGHT 0 0
    INQ 0 0 0 0.5 100 0 0 100
    NCHAN 4
    FX 1
    TRACKID {3CF13A00-0AFC-8542-AD98-73B6D91102DB}
    PERF 0
    AUXRECV 5 0 1 0 0 0 0 0 0 -1:U 32 -1 ''
    AUXRECV 5 0 1 0 0 0 0 0 0 -1:U 96 -1 ''
    AUXRECV 6 0 1 0 0 0 0 0 0 -1:U 64 -1 ''
    AUXRECV 6 0 1 0 0 0 0 0 0 -1:U 128 -1 ''
    MIDIOUT -1
    MAINSEND 0 0
    <FXCHAIN
      SHOW 0
      LASTSEL 0
      DOCKED 0
      BYPASS 0 0 0
      <VST "VSTi: chipsounds (Multi) (Plogue Art et Technologie, Inc) (32 out)" "chipsounds Multi.vst" 0 "" 1347241807
        T0dNUO5e7f4AAAAAIAAAAAEAAAAAAAAAAgAAAAAAAAAEAAAAAAAAAAgAAAAAAAAAEAAAAAAAAAAgAAAAAAAAAEAAAAAAAAAAgAAAAAAAAAAAAQAAAAAAAAACAAAAAAAA
        AAQAAAAAAAAACAAAAAAAAAAQAAAAAAAAACAAAAAAAAAAQAAAAAAAAACAAAAAAAAAAAABAAAAAAAAAAIAAAAAAAAABAAAAAAAAAAIAAAAAAAAABAAAAAAAAAAIAAAAAAA
        AABAAAAAAAAAAIAAAAAAAAAAAAEAAAAAAAAAAgAAAAAAAAAEAAAAAAAAAAgAAAAAAAAAEAAAAAAAAAAgAAAAAAAAAEAAAAAAAAAAgAAAAADpBgAAAQAAAAAAEAA=
        Q0VHUH46AAB4nO1bS3PbNhC+51dwdGoPEfF+zNjO2LLVeKZuMiNneszAEiKzpSiVpNykv77Lh2zQFkRqrE5chzzYIrS7wC7A/T5gxaN3XxdxcGfTLFomxwM8RIPg3cmb
        o9M0MhNzZ52vNBaDYJUuZ+tpfnkODQjpwcmbAK6jic3zKJlnwV9rE0f5N/h2EGR5as0Cmo8HlAyChfk6KVtO43g5vTo7HnAMzVeX55cf1vnVcmZLLbPOlwuTQ5+TeJkf
        D5DbFNs7Gx8PogRsrxc2yQdBHN3ZShkksylYZbL4YGIDTTh4G9hiUMNsGtfNI9Cz6fFAgMI8Xt6Y+HqdlMOEhnDjEXQeRLOyLTGLwjweBh/XqQ1Gt9EqnFyeh4IrHPz0
        2/Vk9PMguDHJn5ezOixO2BQBJ6e3JkmKkYO11TKG+KhBkD/0urr5nJpkDr28hRCscrjJyi8WzsflNIcZufcTZmOxzuv7vz/HJoNosXpGSh+uTJRsfLgz8boKcLhNAt9L
        II8EaZWgrRKsVYK3SohWCdkqoVoldKsERu0i7VHF7WHF7XHF7YHF3sh+NKlZ7J7iBxFvRw8iTviHinMEF9ZIUqYE9em4wRwyXSohJoWissg6no6c8A4x0eXFCcWCKOZV
        Yq4SrXriVDCGlVdHuDqq0iFUgQr3KzmLbAjOVMNTShEGY8U+NeX2RcueEMaaIE20V0fvr6NRw6dqdFJgSGmMeKeJYl8muTbp3OZ1qpwuF8OP8XK+tsPrNJrPbTqBJGyT
        qU2d/FTqjdYZJPdzk5vgNv+2AmVGGayTLPoHPhPupFIYlk1mkUnKxTcDlSIpV+6O66u6l+VnOpJjjdxrhOi4OeywGncHRwpEHP46/jBcZzZF7W5wyfXGDaYcN9A2NzbX
        uPpH0GGvgziNX4/TR2GB74+hHh8U6vEWqFc91PdQ/xKgHjfACQshy0eGIY2o8IKG48FQI84BZCQnSlGNvYDm4i2RTCCulWZcYED3/4xC8E6cgbPKtBBKA2z6lVwfaBWp
        dnbiXb3PA/sdGOyi+0M0/GgOKXdfOO9R8BWh4E6nn0fchAuMnYhb+ShKCML44ilxqyIj6VmjYQx0rpBVT0Sh9XybBUSaFloI4XaaQA5KE9gWmsAOSBNQC03wosgeNMFH
        NXqa8Fjkh6MJkjCGlC72yowI7kUsx6UhrnfLQhIsGfPisgvLknU7NOANj3S975WCKcKVFyplO+Q2jzCqQwLMKAKSVBxI+sDcVaIdd+Gsw2gaRxYltdCaCqTZjrMR3MVN
        96yB1dyMYuiCYO+CkG5saHXYoLjQTCnuJXSyA8+RbvxQHT+NgWNSRP2W3YUjeLnYJIZxSbmDBLorB2aoXG2aUyEZ9a8bdxo4Ye707iBvLs2u+EArR3UZn9dx7Sd8rlCH
        Qz6NRBdLHRaURrrLw9Vl5BijBlOv4q0UkjASvxZBbpoj3hCDoDcyPV/u+fJz+HJxILwfXy6RuOLLiJCzsyeOPGXR5yVfRmgrX97KuPmoafcMLBTdSuy2jqvWUbO1JZjb
        uTU9KLcm37na1s6tfcy5P4J7FLHXx61fRrWtL679j4trPbvo2YXP7e9XRt2O7OygyE63IDvvkb1H9peA7K+6uOY/i+lLa31prRpsD+Y7ne5Laz6SIO9JAhkGVRiC3wGs
        vyzTRRa+N+ksmHxLpl1ZAt+whCKXHO4A4LnUoL2g1k4NfPSipwZPRF4sNcB1vYJzogX3453LDJBmutOpttuTQIIAMVAUaYmk8BeA3HIKV1W5QnFGKJF+1GwQitonophk
        jHhdwo0NvNwkEa1g60/8sOruxbseSpAO3IV0qC5I72rcs2bVmE7BGocDHStdvD7wgJ2T0pz5C2+8w3iapUKqCxqGCVGU7qiFUNcLwapKC5ArWMfUW+7sxJ3cItWOX3Id
        skylugh1KFNp3CHemKAOKwmkvMneV5Ia0qqWqTSRGAvqf2QJ8ub4nqn96Jz8mWdNhO7JT6ufJ1SHTehMjruUsjbXpuQEO1+4TnmzEOW0nkn+1O5+FsSWItueFvBzLXD5
        XAvs/HkWunL6iy9f7DR3X6OrWXS13k4XN1GxulqofN3X0S+fLjdmzDSP7uxl9XYg3txf3L8tmNkYOraza3NTrD83AaY2s/mVTdZBlG3U89KB3Q9AkNuvIHINf9epnQXv
        ozyDfYPJb48H4elqFUfT8vXELKwswA4kWmXLdTKDlrLTLNxhP6x3Oqfpys7n0TILGz0NDWSh1aNc/sQVspcrC/OHzG/vffgE6S0LM5iZZB6bZAZj+jxNrcltODGLVWyz
        8GLzTTCOivuqg9GDo5s+skKF57ePx30UwiSevDkKN++Wnrz5F/hPQ4Q=
        AAAQAAAA
      >
      FLOATPOS 275 269 871 509
      FXID {C804D762-B992-A540-81BF-3D6C0F7FF19B}
      WAK 0
    >
  >
  <TRACK {2BB5EACD-C1BC-284E-92F6-33B7023B768F}
    NAME "ch1,3 (send)"
    PEAKCOL 16576
    BEAT -1
    AUTOMODE 0
    VOLPAN 1 0 -1 -1 1
    MUTESOLO 0 0 0
    IPHASE 0
    ISBUS 0 0
    BUSCOMP 0 0
    SHOWINMIX 1 0.6667 0.5 1 0.5 0 0 0
    FREEMODE 0
    SEL 0
    REC 0 0 0 0 0 0 0
    VU 2
    MIDICTL -1 1
    TRACKHEIGHT 100 0
    INQ 0 0 0 0.5 100 0 0 100
    NCHAN 2
    FX 1
    TRACKID {2BB5EACD-C1BC-284E-92F6-33B7023B768F}
    PERF 0
    MIDIOUT -1
    MAINSEND 1 0
    <FXCHAIN
      SHOW 0
      LASTSEL 0
      DOCKED 0
    >
    <ITEM
      POSITION 16
      SNAPOFFS 0
      LENGTH 24.5
      LOOP 1
      ALLTAKES 0
      FADEIN 1 0 0 1 0 0
      FADEOUT 1 0 0 1 0 0
      MUTE 1
      COLOR 22774783 B
      SEL 0
      IGUID {E04801D0-B036-714B-9C5A-17282833DFE4}
      IID 11
      NAME "b-lev synt - National_Anthems_-_Egypt.mid"
      VOLPAN 1 0 1 -1
      SOFFS 16 32
      PLAYRATE 1 1 0 -1 0 0.0025
      CHANMODE 0
      TAKECOLOR 22293945 B
      GUID {D93ABC49-4492-CF44-BE85-76D51C53ED11}
      <SOURCE MIDI
        HASDATA 1 384 QN
        POOLEDEVTS {3687DD79-4292-B84B-90D1-50AB57B2BA86}
        <X 0 0 0 0 3 "b-lev synt"
          /wNiLWxldiBzeW50
        >
        E 288 9c 3c 7f 3
        E 96 9c 3c 00 -44
        E 0 9c 41 7f -4
        E 0 9c 39 7f 19
        E 0 9c 3c 7f 19
        E 0 9c 29 7f 37
        E 0 9c 35 7f 43
        E 192 9c 39 00 32
        E 0 9c 3c 00 36
        E 96 9c 41 00 13
        E 0 9c 29 00 56
        E 0 9c 35 00 66
        E 96 9c 39 7f 1
        E 0 9c 3e 7f 2
        E 0 9c 41 7f 7
        E 0 9c 26 7f 22
        E 0 9c 32 7f 27
        E 192 9c 39 00 25
        E 0 9c 3e 00 24
        E 0 9c 41 00 28
        E 96 9c 26 00 62
        E 0 9c 32 00 37
        E 0 9c 3c 7f -20
        E 96 9c 3c 00 -64
        E 0 9c 41 7f -22
        E 0 9c 3a 7f -2
        E 0 9c 3e 7f -1
        E 0 9c 2e 7f 3
        E 0 9c 22 7f 6
        E 192 9c 3a 00 -5
        E 0 9c 3e 00 3
        E 96 9c 2e 00 -10
        E 0 9c 22 00 9
        E 96 9c 41 00 -66
        E 0 9c 29 7f -23
        E 0 9c 35 7f -23
        E 0 9c 41 7f -18
        E 0 9c 39 7f -11
        E 0 9c 3c 7f -10
        E 96 9c 41 00 19
        E 0 9c 40 7f 17
        E 96 9c 39 00 15
        E 0 9c 3c 00 19
        E 0 9c 40 00 21
        E 96 9c 29 00 11
        E 0 9c 35 00 11
        E 0 9c 41 7f -39
        E 96 9c 41 00 -28
        E 0 9c 24 7f -12
        E 0 9c 30 7f -12
        E 0 9c 3c 7f -8
        E 0 9c 40 7f -8
        E 0 9c 43 7f 3
        E 96 9c 24 00 -26
        E 0 9c 30 00 -20
        E 96 9c 2b 7f -30
        E 0 9c 37 7f -27
        E 96 9c 2b 00 -35
        E 0 9c 37 00 -28
        E 96 9c 28 7f -29
        E 0 9c 34 7f -24
        E 96 9c 3c 00 -33
        E 0 9c 40 00 -19
        E 0 9c 28 00 -39
        E 0 9c 34 00 -39
        E 96 9c 43 00 11
        E 0 9c 24 7f -30
        E 0 9c 30 7f -27
        E 0 9c 3c 7f -4
        E 0 9c 40 7f -3
        E 0 9c 45 7f -2
        E 96 9c 24 00 -34
        E 0 9c 30 00 -57
        E 0 9c 3c 00 23
        E 96 9c 40 00 -50
        E 0 9c 45 00 -15
        E 0 9c 39 7f -19
        E 0 9c 3c 7f -18
        E 0 9c 35 7f -16
        E 0 9c 29 7f -16
        E 0 9c 41 7f -10
        E 96 9c 29 00 31
        E 96 9c 39 00 16
        E 0 9c 3c 00 22
        E 0 9c 35 00 -58
        E 96 9c 41 00 -10
        E 96 9c 45 7f 1
        E 192 9c 45 00 -22
        E 0 9c 46 7f -16
        E 192 9c 46 00 5
        E 0 9c 35 7f -17
        E 0 9c 29 7f -15
        E 0 9c 41 7f -12
        E 0 9c 45 7f -10
        E 0 9c 3c 7f -7
        E 0 9c 48 7f 1
        E 288 9c 35 00 -1
        E 0 9c 29 00 3
        E 0 9c 48 00 39
        E 96 9c 41 00 -39
        E 0 9c 45 00 -37
        E 0 9c 3c 00 -54
        E 0 9c 45 7f -37
        E 0 9c 2d 7f -15
        E 0 9c 39 7f -11
        E 0 9c 3d 7f -9
        E 96 9c 45 00 -132
        E 192 9c 2d 00 16
        E 0 9c 39 00 17
        E 0 9c 3d 00 7
        E 0 9c 43 7f -23
        E 96 9c 43 00 -18
        E 0 9c 3e 7f -42
        E 0 9c 29 7f -39
        E 0 9c 39 7f -38
        E 0 9c 41 7f -32
        E 0 9c 35 7f -31
        E 192 9c 41 00 5
        E 0 9c 45 7f -28
        E 96 9c 3e 00 -20
        E 0 9c 29 00 -11
        E 0 9c 39 00 6
        E 0 9c 35 00 7
        E 0 9c 45 00 7
        E 0 9c 43 7f 38
        E 96 9c 40 7f -43
        E 0 9c 3c 7f -34
        E 0 9c 24 7f -24
        E 0 9c 30 7f -23
        E 96 9c 43 00 64
        E 0 9c 45 7f 47
        E 96 9c 40 00 -38
        E 0 9c 3c 00 -19
        E 0 9c 24 00 -54
        E 0 9c 30 00 -63
        E 0 9c 3e 7f -43
        E 0 9c 39 7f -31
        E 0 9c 2d 7f -26
        E 0 9c 21 7f -24
        E 96 9c 45 00 65
        E 0 9c 39 00 -2
        E 96 9c 3e 00 -61
        E 0 9c 2d 00 -54
        E 0 9c 21 00 -60
        E 0 9c 3c 7f -43
        E 0 9c 39 7f -41
        E 0 9c 41 7f -36
        E 0 9c 29 7f -22
        E 0 9c 1d 7f -15
        E 288 9c 39 00 3
        E 0 9c 29 00 1
        E 0 9c 1d 00 15
        E 96 9c 3c 00 -73
        E 0 9c 41 00 -31
        E 0 9c 40 7f -43
        E 0 9c 24 7f -32
        E 0 9c 3a 7f -31
        E 0 9c 30 7f -31
        E 0 9c 37 7f -24
        E 192 9c 3a 00 -57
        E 0 9c 37 00 -58
        E 96 9c 40 00 -30
        E 0 9c 43 7f -30
        E 0 9c 40 7f -8
        E 0 9c 3a 7f -5
        E 96 9c 24 00 -61
        E 0 9c 30 00 -71
        E 0 9c 43 00 -59
        E 0 9c 40 00 -37
        E 0 9c 3a 00 -38
        E 0 9c 35 7f -35
        E 0 9c 41 7f -34
        E 0 9c 29 7f -32
        E 0 9c 3c 7f -18
        E 0 9c 39 7f -15
        E 384 9c 35 00 -10
        E 0 9c 29 00 -15
        E 0 9c 3c 00 1
        E 0 9c 39 00 7
        E 96 9c 41 00 -51
        E 192 9c 3c 7f 11
        E 96 9c 3c 00 -9
        E 0 9c 39 7f 6
        E 0 9c 41 7f 12
        E 0 9c 3c 7f 14
        E 0 9c 35 7f 18
        E 0 9c 29 7f 19
        E 96 9c 3c 00 -61
        E 192 9c 39 00 25
        E 96 9c 41 00 -36
        E 0 9c 35 00 -10
        E 0 9c 29 00 -19
        E 0 9c 41 7f -2
        E 0 9c 39 7f -2
        E 0 9c 3e 7f -1
        E 0 9c 32 7f 22
        E 0 9c 26 7f 23
        E 288 9c 41 00 3
        E 0 9c 39 00 -49
        E 0 9c 3e 00 -5
        E 0 9c 32 00 60
        E 0 9c 26 00 50
        E 0 9c 3c 7f -2
        E 96 9c 3c 00 -26
        E 0 9c 41 7f -14
        E 0 9c 22 7f -8
        E 0 9c 2e 7f -4
        E 0 9c 3a 7f 6
        E 0 9c 3e 7f 7
        E 288 9c 2e 00 39
        E 0 9c 3a 00 26
        E 0 9c 3e 00 45
        E 96 9c 41 00 -42
        E 0 9c 22 00 -37
        E 0 9c 39 7f -10
        E 0 9c 3c 7f -7
        E 0 9c 35 7f -7
        E 0 9c 29 7f -4
        E 0 9c 41 7f -3
        E 96 9c 41 00 41
        E 0 9c 40 7f 24
        E 96 9c 40 00 48
        E 96 9c 3c 00 36
        E 0 9c 35 00 23
        E 0 9c 29 00 25
        E 0 9c 41 7f -46
        E 96 9c 39 00 -56
        E 0 9c 41 00 -34
        E 0 9c 43 7f -22
        E 0 9c 24 7f -13
        E 0 9c 30 7f -12
        E 0 9c 3c 7f -2
        E 0 9c 40 7f -1
        E 192 9c 24 00 -38
        E 0 9c 30 00 -44
        E 0 9c 2b 7f -16
        E 0 9c 37 7f -11
        E 96 9c 2b 00 -2
        E 0 9c 37 00 5
        E 96 9c 28 7f -30
        E 0 9c 34 7f -29
        E 96 9c 3c 00 -22
        E 0 9c 40 00 -1
        E 0 9c 28 00 -1
        E 0 9c 34 00 5
        E 96 9c 43 00 -10
        E 0 9c 30 7f -30
        E 0 9c 45 7f -25
        E 0 9c 24 7f -25
        E 0 9c 40 7f -12
        E 0 9c 3c 7f -9
        E 96 9c 30 00 9
        E 96 9c 45 00 -13
        E 0 9c 24 00 -72
        E 0 9c 40 00 -16
        E 0 9c 3c 00 -38
        E 0 9c 29 7f -32
        E 0 9c 35 7f -31
        E 0 9c 41 7f -29
        E 0 9c 3c 7f 2
        E 0 9c 39 7f 3
        E 288 9c 29 00 -75
        E 0 9c 35 00 -65
        E 0 9c 41 00 -65
        E 0 9c 3c 00 4
        E 0 9c 39 00 8
        E 96 9c 45 7f -4
        E 192 9c 45 00 -16
        E 0 9c 46 7f -40
        E 192 9c 46 00 -23
        E 0 9c 45 7f -24
        E 0 9c 3c 7f -23
        E 0 9c 41 7f -23
        E 0 9c 35 7f -7
        E 0 9c 29 7f -1
        E 0 9c 48 7f 6
        E 288 9c 35 00 -7
        E 0 9c 29 00 6
        E 96 9c 45 00 -55
        E 0 9c 3c 00 -46
        E 0 9c 41 00 -34
        E 0 9c 48 00 29
        E 0 9c 3d 7f -24
        E 0 9c 39 7f -22
        E 0 9c 2d 7f -19
        E 0 9c 45 7f -17
        E 192 9c 2d 00 7
        E 96 9c 39 00 -16
        E 0 9c 45 00 13
        E 0 9c 43 7f -10
        E 96 9c 3d 00 -36
        E 0 9c 43 00 -3
        E 0 9c 3e 7f -24
        E 0 9c 29 7f -20
        E 0 9c 35 7f -20
        E 0 9c 39 7f -20
        E 0 9c 41 7f -12
        E 192 9c 41 00 23
        E 0 9c 45 7f -7
        E 96 9c 29 00 16
        E 0 9c 35 00 16
        E 0 9c 39 00 16
        E 96 9c 3e 00 -56
        E 0 9c 45 00 -42
        E 0 9c 40 7f -44
        E 0 9c 24 7f -42
        E 0 9c 30 7f -42
        E 0 9c 3c 7f -42
        E 0 9c 43 7f -16
        E 192 9c 24 00 -6
        E 0 9c 30 00 -6
        E 0 9c 3c 00 -6
        E 0 9c 43 00 -15
        E 0 9c 45 7f -35
        E 0 9c 3e 7f -9
        E 0 9c 21 7f -5
        E 0 9c 2d 7f -5
        E 0 9c 39 7f -5
        E 96 9c 40 00 -86
        E 0 9c 21 00 36
        E 0 9c 2d 00 36
        E 0 9c 39 00 36
        E 96 9c 3e 00 -32
        E 0 9c 3c 7f -2
        E 0 9c 1d 7f 1
        E 0 9c 29 7f 1
        E 0 9c 39 7f 1
        E 0 9c 41 7f 12
        E 96 9c 45 00 -80
        E 192 9c 1d 00 -13
        E 0 9c 29 00 -13
        E 0 9c 39 00 -13
        E 0 9c 41 00 52
        E 96 9c 3c 00 -34
        E 0 9c 3a 7f -13
        E 0 9c 24 7f -12
        E 0 9c 30 7f -12
        E 0 9c 37 7f -12
        E 0 9c 40 7f -8
        E 192 9c 3a 00
        E 0 9c 24 00 10
        E 0 9c 30 00 10
        E 0 9c 37 00 10
        E 96 9c 40 00 -11
        E 0 9c 43 7f -11
        E 0 9c 3a 7f -2
        E 0 9c 40 7f 2
        E 96 9c 43 00 9
        E 0 9c 3a 00 13
        E 0 9c 40 00 -2
        E 0 9c 35 7f -15
        E 0 9c 29 7f -12
        E 0 9c 39 7f -11
        E 0 9c 3c 7f -8
        E 0 9c 41 7f 8
        E 192 9c 35 00 19
        E 0 9c 29 00 10
        E 96 9c 39 00 -27
        E 0 9c 3c 00 -2
        E 0 9c 41 00 20
        E 96 9c 45 7f -8
        E 192 9c 45 00 -45
        E 96 9c 45 7f 4
        E 96 9c 45 00 -42
        E 0 9c 45 7f -21
        E 0 9c 35 7f -16
        E 0 9c 29 7f -15
        E 0 9c 30 7f -12
        E 96 9c 35 00 -41
        E 0 9c 29 00 -49
        E 0 9c 30 00 -55
        E 96 9c 41 7f -48
        E 0 9c 3e 7f 43
        E 96 9c 41 00 -86
        E 0 9c 3e 00 18
        E 96 9c 45 00 6
        E 0 9c 3c 7f -32
        E 0 9c 43 7f -3
        E 0 9c 35 7f 1
        E 0 9c 29 7f 2
        E 0 9c 30 7f 4
        E 96 9c 35 00 -35
        E 0 9c 29 00 -34
        E 0 9c 30 00 -46
        E 96 9c 43 00 -17
        E 0 9c 41 7f -30
        E 96 9c 3c 00 4
        E 96 9c 41 00 -36
        E 0 9c 30 7f -31
        E 0 9c 24 7f -29
        E 0 9c 43 7f -20
        E 0 9c 46 7f -19
        E 96 9c 30 00 -71
        E 0 9c 24 00 -68
        E 288 9c 43 00 -30
        E 0 9c 46 00 -41
        E 0 9c 45 7f -31
        E 0 9c 29 7f -25
        E 0 9c 35 7f -24
        E 0 9c 30 7f -22
        E 0 9c 3e 7f -18
        E 96 9c 29 00 -60
        E 0 9c 35 00 -60
        E 0 9c 30 00 -72
        E 192 9c 43 7f -3
        E 96 9c 45 00 -78
        E 0 9c 3e 00 29
        E 0 9c 43 00 -52
        E 0 9c 43 7f -20
        E 0 9c 30 7f -18
        E 0 9c 24 7f -12
        E 96 9c 30 00 -66
        E 0 9c 24 00 -56
        E 96 9c 37 7f 23
        E 0 9c 3c 7f 25
        E 0 9c 2b 7f 31
        E 96 9c 37 00 -25
        E 0 9c 3c 00 -25
        E 0 9c 2b 00 -32
        E 0 9c 40 7f 16
        E 96 9c 43 00 5
        E 0 9c 40 00 -35
        E 0 9c 28 7f -12
        E 0 9c 34 7f -10
        E 0 9c 43 7f 5
        E 96 9c 28 00 -61
        E 0 9c 34 00 -57
        E 0 9c 43 00 -42
        E 0 9c 40 7f 6
        E 96 9c 40 00 -38
        E 0 9c 43 7f -14
        E 0 9c 24 7f -8
        E 0 9c 30 7f -6
        E 96 9c 43 00 -61
        E 0 9c 24 00 -56
        E 0 9c 30 00 -56
        E 0 9c 48 7f -13
        E 96 9c 48 00 -44
        E 0 9c 43 7f -16
        E 0 9c 37 7f -9
        E 0 9c 2b 7f -7
        E 96 9c 43 00 -71
        E 0 9c 37 00 -61
        E 0 9c 2b 00 -57
        E 288 9c 46 7f -31
        E 0 9c 35 7f -23
        E 0 9c 29 7f -12
        E 192 9c 46 00 5
        E 0 9c 29 00 -6
        E 96 9c 35 00 -69
        E 0 9c 40 7f -43
        E 0 9c 46 7f -22
        E 0 9c 32 7f -10
        E 0 9c 26 7f
        E 96 9c 40 00 -56
        E 0 9c 46 00 -72
        E 0 9c 32 00 -32
        E 0 9c 26 00 -42
        E 0 9c 3a 7f -39
        E 0 9c 46 7f -36
        E 0 9c 3e 7f -35
        E 0 9c 22 7f -14
        E 0 9c 2e 7f -10
        E 96 9c 22 00 28
        E 0 9c 2e 00 23
        E 96 9c 3a 00 -9
        E 96 9c 3e 00 -39
        E 0 9c 3c 7f -38
        E 96 9c 46 00 -5
        E 0 9c 3c 00 -63
        E 0 9c 3e 7f -38
        E 0 9c 45 7f -30
        E 0 9c 35 7f -21
        E 0 9c 30 7f -18
        E 0 9c 29 7f -16
        E 96 9c 35 00 -39
        E 0 9c 30 00 -46
        E 0 9c 29 00 -39
        E 96 9c 45 00 -11
        E 0 9c 43 7f -22
        E 192 9c 3e 00 -28
        E 0 9c 43 00 17
        E 0 9c 2b 7f -16
        E 0 9c 37 7f -15
        E 0 9c 48 7f -13
        E 0 9c 30 7f -12
        E 0 9c 45 7f
        E 96 9c 2b 00 -51
        E 0 9c 37 00 -47
        E 0 9c 30 00 -53
        E 288 9c 48 00 -4
        E 0 9c 45 00 -18
        E 0 9c 46 7f -8
        E 0 9c 40 7f
        E 0 9c 2b 7f 6
        E 0 9c 37 7f 7
        E 0 9c 30 7f 10
        E 96 9c 2b 00 -28
        E 0 9c 37 00 -11
        E 0 9c 30 00 -36
        E 192 9c 46 00 4
        E 0 9c 45 7f 10
        E 96 9c 40 00 16
        E 0 9c 45 00 -26
        E 0 9c 45 7f
        E 0 9c 30 7f
        E 0 9c 29 7f
        E 0 9c 35 7f
        E 96 9c 30 00 -18
        E 0 9c 29 00 -10
        E 0 9c 35 00 -36
        E 96 9c 30 7f
        E 0 9c 3c 7f
        E 96 9c 30 00 -43
        E 0 9c 3c 00 -44
        E 0 9c 41 7f
        E 96 9c 45 00
        E 0 9c 41 00 -43
        E 0 9c 45 7f
        E 0 9c 2d 7f
        E 0 9c 39 7f
        E 96 9c 45 00 -30
        E 0 9c 2d 00 -49
        E 0 9c 39 00 -53
        E 0 9c 41 7f
        E 96 9c 41 00 -39
        E 0 9c 45 7f
        E 0 9c 35 7f
        E 0 9c 29 7f
        E 96 9c 45 00 -39
        E 0 9c 35 00 -53
        E 0 9c 29 00 -47
        E 0 9c 4a 7f
        E 96 9c 4a 00 -26
        E 0 9c 3c 7f
        E 0 9c 35 7f
        E 0 9c 30 7f
        E 0 9c 48 7f
        E 96 9c 3c 00 -12
        E 0 9c 35 00 -19
        E 0 9c 30 00 -6
        E 96 9c 48 00 33
        E 192 9c 45 7f 3
        E 192 9c 45 00 18
        E 96 9c 45 7f 19
        E 96 9c 45 00 -32
        E 0 9c 35 7f -1
        E 0 9c 30 7f 1
        E 0 9c 29 7f 3
        E 0 9c 45 7f 5
        E 96 9c 35 00 -11
        E 0 9c 30 00 -22
        E 0 9c 29 00 -10
        E 96 9c 41 7f -46
        E 96 9c 41 00 -65
        E 0 9c 3e 7f -34
        E 96 9c 45 00 1
        E 0 9c 3e 00 -25
        E 0 9c 43 7f -21
        E 0 9c 3c 7f -3
        E 0 9c 35 7f 11
        E 0 9c 30 7f 21
        E 0 9c 29 7f 22
        E 96 9c 35 00 -20
        E 0 9c 30 00 -17
        E 0 9c 29 00 3
        E 96 9c 43 00 -14
        E 0 9c 41 7f -25
        E 192 9c 3c 00 -35
        E 0 9c 41 00 -7
        E 0 9c 46 7f -16
        E 0 9c 24 7f -16
        E 0 9c 30 7f -13
        E 96 9c 24 00 -30
        E 0 9c 30 00 -41
        E 96 9c 43 7f -12
        E 192 9c 46 00 -1
        E 0 9c 43 00 -14
        E 0 9c 3e 7f -25
        E 0 9c 45 7f -21
        E 0 9c 29 7f -6
        E 0 9c 35 7f -4
        E 0 9c 30 7f -2
        E 96 9c 29 00 -36
        E 0 9c 35 00 -37
        E 0 9c 30 00 -46
        E 192 9c 45 00 -11
        E 0 9c 43 7f -4
        E 96 9c 3e 00 -41
        E 0 9c 43 00 -40
        E 0 9c 43 7f -5
        E 0 9c 37 7f 3
        E 0 9c 2b 7f 11
        E 0 9c 30 7f 11
        E 96 9c 37 00 -41
        E 0 9c 2b 00 -33
        E 0 9c 30 00 -54
        E 96 9c 2b 7f -2
        E 0 9c 30 7f -1
        E 0 9c 37 7f 2
        E 0 9c 3c 7f 13
        E 96 9c 2b 00 -42
        E 0 9c 30 00 -47
        E 0 9c 37 00 -51
        E 0 9c 3c 00 -42
        E 0 9c 40 7f -5
        E 96 9c 43 00 -9
        E 0 9c 40 00 -43
        E 0 9c 43 7f -9
        E 0 9c 34 7f 2
        E 0 9c 28 7f 3
        E 96 9c 43 00 -42
        E 0 9c 34 00 -50
        E 0 9c 28 00 -46
        E 96 9c 45 7f -18
        E 0 9c 40 7f -10
        E 0 9c 37 7f -1
        E 0 9c 30 7f 1
        E 0 9c 2b 7f 2
        E 96 9c 45 00 -22
        E 0 9c 40 00 -60
        E 0 9c 37 00 -54
        E 0 9c 30 00 -46
        E 0 9c 2b 00 -41
        E 0 9c 43 7f -42
        E 0 9c 46 7f -26
        E 96 9c 43 00 -84
        E 0 9c 46 00 -23
        E 0 9c 3c 7f -18
        E 0 9c 41 7f -18
        E 0 9c 48 7f -18
        E 0 9c 29 7f -6
        E 0 9c 35 7f -1
        E 192 9c 29 00 -33
        E 0 9c 35 00 -47
        E 96 9c 3c 00 -37
        E 0 9c 41 00 -37
        E 0 9c 48 00 -37
        E 96 9c 48 7f 7
        E 192 9c 48 00 -14
        E 96 9c 48 7f -11
        E 96 9c 48 00 -56
        E 0 9c 41 7f -28
        E 0 9c 3c 7f -24
        E 0 9c 48 7f -20
        E 0 9c 30 7f 5
        E 0 9c 29 7f 7
        E 96 9c 30 00 27
        E 0 9c 29 00 29
        E 192 9c 3c 00 2
        E 96 9c 41 00 -51
        E 0 9c 48 00 -4
        E 0 9c 3d 7f -47
        E 0 9c 2d 7f -29
        E 0 9c 21 7f -26
        E 0 9c 45 7f -24
        E 96 9c 2d 00 -18
        E 0 9c 21 00 6
        E 192 9c 45 00 -57
        E 0 9c 43 7f -30
        E 96 9c 3d 00 -73
        E 0 9c 43 00 -56
        E 0 9c 3e 7f -44
        E 0 9c 39 7f -43
        E 0 9c 41 7f -37
        E 0 9c 26 7f -26
        E 0 9c 32 7f -24
        E 192 9c 41 00 -6
        E 0 9c 45 7f -25
        E 96 9c 39 00 1
        E 0 9c 26 00 -68
        E 0 9c 32 00 -26
        E 96 9c 3e 00 -62
        E 0 9c 45 00 -2
        E 0 9c 3c 7f -34
        E 0 9c 40 7f -32
        E 0 9c 30 7f -16
        E 0 9c 24 7f -16
        E 0 9c 43 7f -6
        E 96 9c 30 00 -55
        E 0 9c 24 00 -44
        E 0 9c 3e 7f 45
        E 0 9c 39 7f 47
        E 96 9c 3c 00 -51
        E 0 9c 40 00 -63
        E 0 9c 43 00 -8
        E 0 9c 39 00 78
        E 0 9c 2d 7f -20
        E 0 9c 21 7f -14
        E 0 9c 45 7f -3
        E 96 9c 3e 00 46
        E 0 9c 2d 00 -45
        E 0 9c 21 00 -30
        E 96 9c 45 00 -22
        E 0 9c 29 7f -22
        E 0 9c 1d 7f -21
        E 0 9c 41 7f -11
        E 0 9c 39 7f -2
        E 0 9c 3c 7f -1
        E 192 9c 29 00 -45
        E 0 9c 1d 00 -52
        E 96 9c 39 00 28
        E 96 9c 41 00 -27
        E 0 9c 3c 00 -8
        E 0 9c 3a 7f -45
        E 0 9c 37 7f -43
        E 0 9c 40 7f -26
        E 0 9c 30 7f -22
        E 0 9c 24 7f -16
        E 96 9c 3a 00 -7
        E 0 9c 37 00 -19
        E 192 9c 40 00 -64
        E 0 9c 30 00 -12
        E 0 9c 24 00 19
        E 0 9c 3a 7f -45
        E 0 9c 40 7f -45
        E 0 9c 43 7f -45
        E 96 9c 3a 00 -41
        E 0 9c 40 00 -41
        E 0 9c 43 00 -41
        E 0 9c 35 7f -34
        E 0 9c 41 7f -32
        E 0 9c 29 7f -31
        E 0 9c 39 7f -30
        E 0 9c 3c 7f -28
        E 96 9c 39 00 -41
        E 0 9c 3c 00 -14
        E 96 9c 35 00 -69
        E 0 9c 29 00 -70
        E 0 9c 30 7f -22
        E 0 9c 43 7f -18
        E 0 9c 24 7f -17
        E 96 9c 43 00 -62
        E 0 9c 45 7f -22
        E 96 9c 41 00 -14
        E 0 9c 30 00 -48
        E 0 9c 24 00 -41
        E 0 9c 45 00 -67
        E 0 9c 46 7f -36
        E 0 9c 26 7f -11
        E 0 9c 32 7f -11
        E 96 9c 46 00 -69
        E 0 9c 48 7f -42
        E 96 9c 26 00 -40
        E 0 9c 32 00 -52
        E 0 9c 48 00 -83
        E 0 9c 4a 7f -48
        E 0 9c 28 7f -20
        E 0 9c 34 7f -20
        E 0 9c 4c 7f 45
        E 96 9c 4a 00 -91
        E 0 9c 4c 00 12
        E 0 9c 3c 7f -20
        E 0 9c 45 7f 45
        E 0 9c 41 7f 46
        E 96 9c 28 00 -44
        E 0 9c 34 00 -48
        E 0 9c 3c 00 -56
        E 0 9c 4d 7f -41
        E 0 9c 35 7f -18
        E 0 9c 29 7f -17
        E 192 9c 41 00 74
        E 96 9c 45 00 26
        E 0 9c 35 00 -3
        E 0 9c 29 00 -21
        E 96 9c 4d 00 -78
        E 0 9c 4d 7f -40
        E 0 9c 32 7f -39
        E 0 9c 26 7f -34
        E 0 9c 41 7f -28
        E 0 9c 3e 7f -25
        E 0 9c 39 7f -22
        E 96 9c 26 00 13
        E 96 9c 32 00 -80
        E 0 9c 41 00 -38
        E 0 9c 3e 00 7
        E 0 9c 39 00 15
        E 0 9c 3c 7f 45
        E 96 9c 4d 00 -64
        E 0 9c 3c 00 1
        E 0 9c 24 7f -30
        E 0 9c 30 7f -26
        E 0 9c 48 7f -9
        E 0 9c 3e 7f 44
        E 0 9c 41 7f 46
        E 96 9c 24 00 -72
        E 0 9c 30 00 -80
        E 0 9c 48 00 -52
        E 0 9c 3a 7f -48
        E 0 9c 2e 7f -37
        E 0 9c 22 7f -37
        E 0 9c 4d 7f -25
        E 192 9c 3e 00 28
        E 96 9c 41 00 3
        E 0 9c 3a 00 -62
        E 0 9c 2e 00 -11
        E 0 9c 4d 00 7
        E 96 9c 22 00 -56
        E 0 9c 4d 7f -45
        E 0 9c 3c 7f -39
        E 0 9c 35 7f -37
        E 0 9c 29 7f -35
        E 0 9c 39 7f -34
        E 0 9c 41 7f -13
        E 96 9c 41 00 -3
        E 0 9c 4c 7f -10
        E 0 9c 40 7f 13
        E 96 9c 4d 00 -87
        E 0 9c 4c 00 -31
        E 0 9c 40 00 -5
        E 0 9c 4d 7f 4
        E 0 9c 41 7f 36
        E 96 9c 3c 00 -43
        E 0 9c 35 00 -3
        E 0 9c 29 00 -5
        E 0 9c 39 00 -51
        E 0 9c 4d 00 8
        E 0 9c 41 00 31
        E 0 9c 4f 7f 45
        E 0 9c 30 7f 47
        E 96 9c 30 00 58
        E 0 9c 24 7f -48
        E 0 9c 43 7f -26
        E 0 9c 40 7f -10
        E 0 9c 3c 7f
        E 96 9c 24 00 -21
        E 96 9c 37 7f -36
        E 0 9c 2b 7f -35
        E 96 9c 37 00 -51
        E 0 9c 2b 00 -53
        E 96 9c 34 7f -39
        E 0 9c 28 7f -38
        E 96 9c 4f 00 58
        E 0 9c 40 00 -14
        E 0 9c 3c 00 -28
        E 0 9c 34 00 -52
        E 0 9c 28 00 -40
        E 96 9c 43 00 -6
        E 0 9c 30 7f -38
        E 0 9c 24 7f -36
        E 0 9c 51 7f -30
        E 0 9c 45 7f -22
        E 0 9c 40 7f -21
        E 0 9c 3c 7f -17
        E 96 9c 30 00 -24
        E 0 9c 24 00 1
        E 0 9c 40 00 -14
        E 0 9c 3c 00 -21
        E 96 9c 51 00 -63
        E 0 9c 45 00 -35
        e 0 9c 4d 7f
        E 0 9c 41 7f -27
        E 0 9c 35 7f -22
        E 0 9c 29 7f -20
        E 0 9c 3c 7f -19
        E 0 9c 39 7f -16
        E 192 9c 35 00 -9
        E 0 9c 29 00 -12
        e 96 9c 4d 00
        E 0 9c 41 00 6
        E 0 9c 3c 00 -34
        E 0 9c 39 00 -49
        E 96 9c 45 7f 8
        E 0 9c 51 7f 9
        E 192 9c 45 00 -32
        E 0 9c 51 00 -20
        E 0 9c 46 7f -17
        E 0 9c 52 7f -15
        E 192 9c 46 00 -23
        E 0 9c 35 7f -16
        E 0 9c 41 7f -14
        E 0 9c 29 7f -12
        E 0 9c 45 7f -12
        E 0 9c 3c 7f -6
        E 0 9c 48 7f 3
        E 0 9c 54 7f 15
        E 96 9c 52 00 -61
        E 192 9c 35 00 6
        E 0 9c 29 00 8
        E 0 9c 3c 00 12
        E 0 9c 48 00 38
        E 96 9c 41 00 -61
        E 0 9c 45 00 -50
        E 0 9c 54 00 -32
        E 0 9c 51 7f -27
        E 0 9c 45 7f -21
        E 0 9c 39 7f -10
        E 0 9c 2d 7f -10
        E 0 9c 3d 7f 4
        E 288 9c 51 00 6
        E 0 9c 45 00 -9
        E 0 9c 39 00 -13
        E 0 9c 2d 00 -1
        E 0 9c 3d 00 44
        E 0 9c 43 7f -28
        E 0 9c 4f 7f -19
        E 96 9c 43 00 -16
        E 0 9c 4f 00 -54
        E 0 9c 41 7f -29
        E 0 9c 4d 7f -24
        E 0 9c 29 7f -23
        E 0 9c 35 7f -22
        E 0 9c 3e 7f -13
        E 0 9c 39 7f -7
        E 192 9c 41 00 -8
        E 0 9c 4d 00 -6
        E 0 9c 45 7f -41
        E 0 9c 51 7f -28
        E 96 9c 29 00 7
        E 0 9c 35 00 10
        E 0 9c 3e 00 3
        E 0 9c 39 00 -34
        E 0 9c 45 00 -8
        E 0 9c 43 7f 47
        E 96 9c 51 00 -74
        E 0 9c 40 7f -44
        E 0 9c 4f 7f -41
        E 0 9c 3c 7f -40
        E 0 9c 24 7f -18
        E 0 9c 30 7f -17
        E 96 9c 43 00 20
        E 0 9c 40 00 -31
        E 0 9c 3c 00 -25
        E 0 9c 45 7f 33
        E 0 9c 51 7f 45
        E 96 9c 4f 00 -78
        E 0 9c 24 00 -57
        E 0 9c 30 00 -64
        E 0 9c 39 7f -42
        E 0 9c 3e 7f -40
        E 0 9c 2d 7f -28
        E 0 9c 21 7f -24
        E 96 9c 45 00 50
        E 0 9c 51 00 54
        E 0 9c 39 00 -31
        E 0 9c 3e 00 -27
        E 96 9c 2d 00 -56
        E 0 9c 21 00 -57
        E 0 9c 39 7f -42
        E 0 9c 3c 7f -39
        E 0 9c 41 7f -36
        E 0 9c 4d 7f -24
        E 0 9c 29 7f -17
        E 0 9c 1d 7f -14
        E 288 9c 39 00 -72
        E 0 9c 3c 00 -62
        E 0 9c 29 00 14
        E 0 9c 1d 00 17
        E 96 9c 41 00 -9
        E 0 9c 4d 00 -15
        E 0 9c 4c 7f -17
        E 0 9c 40 7f -16
        E 0 9c 30 7f -16
        E 0 9c 24 7f -13
        E 0 9c 3a 7f -5
        E 0 9c 37 7f -4
        E 192 9c 3a 00 4
        E 0 9c 37 00 -3
        E 96 9c 4c 00 -59
        E 0 9c 40 00 -8
        E 0 9c 30 00 18
        E 0 9c 24 00 32
        E 0 9c 43 7f 9
        E 0 9c 4f 7f 11
        E 0 9c 3a 7f 17
        E 0 9c 40 7f 22
        E 96 9c 43 00 15
        E 0 9c 4f 00 12
        E 0 9c 3a 00 -10
        E 0 9c 40 00 21
        E 0 9c 4d 7f 39
        E 0 9c 29 7f 41
        E 0 9c 35 7f 44
        E 0 9c 41 7f 46
        E 96 9c 39 7f -47
        E 0 9c 3c 7f -46
        E 288 9c 4d 00 16
        E 0 9c 29 00 37
        E 0 9c 35 00 40
        E 0 9c 41 00 43
        E 96 9c 39 00 -55
        E 0 9c 3c 00 -73
        E 288 b0 7b 00
        GUID {2BE6F90F-1BB5-1146-8E17-483C7C61E640}
        IGNTEMPO 0 120 4 4
        SRCCOLOR 771
        VELLANE -1 108 6
        CFGEDITVIEW 22870.338183 46.358521 26 12 0 -1 0 0 0 0.5
        KEYSNAP 0
        TRACKSEL 226
        EVTFILTER 0 -1 -1 -1 -1 0 0 0 0 -1 -1 -1 -1 0 -1 0 -1 -1
        CFGEDIT 1 1 0 0 0 0 1 0 1 1 1 0.25 0 187 878 778 0 0 2 3 0 0 0 0 0 -1 0 0 1 64
      >
      TAKE
      NAME "b-lev synt - National_Anthems_-_Egypt.mid"
      TAKEVOLPAN 0 1 -1
      SOFFS 16 32
      PLAYRATE 1 1 0 -1 0 0.0025
      CHANMODE 0
      GUID {94D759D4-62D5-F649-B3D8-B605051E4A70}
      <SOURCE MIDI
        HASDATA 1 384 QN
        POOLEDEVTS {3405BB0D-F206-DE49-BD21-73054BF2E924}
        <X 0 0 0 0 3 "b-lev synt"
          /wNiLWxldiBzeW50
        >
        E 291 9c 3c 5e
        E 49 9c 3c 00
        E 40 9c 41 57
        E 23 9c 39 44
        E 0 9c 3c 4c
        E 18 9c 29 4e
        E 6 9c 35 57
        E 181 9c 39 00
        E 4 9c 3c 00
        E 73 9c 41 00
        E 43 9c 29 00
        E 10 9c 35 00
        E 31 9c 39 45
        E 1 9c 3e 4b
        E 5 9c 41 51
        E 15 9c 26 48
        E 5 9c 32 59
        E 189 9c 3e 00
        E 1 9c 39 00
        E 3 9c 41 00
        E 48 9c 3c 58
        E 52 9c 3c 00
        E 5 9c 32 00
        E 25 9c 26 00
        E 12 9c 41 51
        E 20 9c 3a 45
        E 1 9c 3e 4a
        E 4 9c 2e 50
        E 3 9c 22 4b
        E 181 9c 3a 00
        E 8 9c 3e 00
        E 83 9c 2e 00
        E 19 9c 22 00
        E 21 9c 41 00
        E 43 9c 29 4d
        E 0 9c 35 57
        E 5 9c 41 53
        E 7 9c 39 4a
        E 1 9c 3c 4f
        E 123 9c 40 5a
        E 2 9c 41 00
        E 92 9c 39 00
        E 4 9c 3c 00
        E 2 9c 40 00
        E 36 9c 41 5a
        E 50 9c 29 00
        E 0 9c 35 00
        E 57 9c 41 00
        E 16 9c 24 4e
        E 0 9c 30 5b
        E 4 9c 3c 4a
        E 0 9c 40 4a
        E 11 9c 43 54
        E 67 9c 24 00
        E 6 9c 30 00
        E 86 9c 2b 50
        E 3 9c 37 59
        E 88 9c 2b 00
        E 7 9c 37 00
        E 95 9c 28 50
        E 5 9c 34 54
        E 81 9c 34 00
        E 0 9c 28 00
        E 6 9c 3c 00
        E 14 9c 40 00
        E 85 9c 24 48
        E 3 9c 30 5a
        E 23 9c 3c 55
        E 1 9c 40 4d
        E 1 9c 45 50
        E 13 9c 43 00
        E 28 9c 30 00
        E 23 9c 24 00
        E 57 9c 3c 00
        E 23 9c 40 00
        E 31 9c 39 45
        E 1 9c 3c 42
        E 2 9c 35 51
        E 0 9c 29 47
        E 1 9c 45 00
        E 5 9c 41 53
        E 137 9c 29 00
        E 7 9c 35 00
        E 74 9c 39 00
        E 6 9c 3c 00
        E 64 9c 41 00
        E 107 9c 45 54
        E 169 9c 45 00
        E 6 9c 46 4e
        E 191 9c 35 53
        E 2 9c 29 4e
        E 3 9c 41 47
        E 2 9c 45 48
        E 3 9c 3c 47
        E 8 9c 48 52
        E 4 9c 46 00
        E 282 9c 35 00
        E 4 9c 29 00
        E 36 9c 48 00
        E 3 9c 3c 00
        E 15 9c 41 00
        E 2 9c 45 54
        E 1 9c 45 00
        E 21 9c 2d 48
        E 4 9c 39 58
        E 2 9c 3d 4a
        E 274 9c 43 4a
        E 12 9c 45 00
        E 18 9c 3d 00
        E 9 9c 2d 00
        E 1 9c 39 00
        E 37 9c 3e 42
        E 0 9c 41 49
        E 3 9c 29 4a
        E 1 9c 39 42
        E 6 9c 41 52
        E 1 9c 35 55
        E 13 9c 43 00
        E 182 9c 45 53
        E 33 9c 41 00
        E 71 9c 3e 00
        E 9 9c 29 00
        E 17 9c 39 00
        E 1 9c 35 00
        E 0 9c 45 00
        E 15 9c 41 00
        E 16 9c 43 4d
        E 15 9c 40 52
        E 9 9c 3c 4a
        E 10 9c 24 52
        E 1 9c 30 63
        E 152 9c 30 00
        E 9 9c 24 00
        E 5 9c 45 4f
        E 6 9c 3e 53
        E 5 9c 40 00
        E 6 9c 43 00
        E 1 9c 39 47
        E 5 9c 2d 4a
        E 2 9c 21 4a
        E 5 9c 3c 00
        E 113 9c 39 00
        E 37 9c 3e 00
        E 1 9c 21 00
        E 6 9c 2d 00
        E 11 9c 3c 55
        E 2 9c 39 43
        E 5 9c 41 4f
        E 5 9c 45 00
        E 9 9c 29 51
        E 7 9c 1d 4a
        E 304 9c 29 00
        E 2 9c 39 00
        E 12 9c 1d 00
        E 8 9c 3c 00
        E 30 9c 40 51
        E 11 9c 24 4e
        E 1 9c 3a 51
        E 0 9c 30 57
        E 0 9c 41 00
        E 7 9c 37 50
        E 158 9c 37 00
        E 1 9c 3a 00
        E 123 9c 43 48
        E 0 9c 40 00
        E 22 9c 40 4e
        E 3 9c 3a 3b
        E 30 9c 30 00
        E 10 9c 24 00
        E 2 9c 43 00
        E 21 9c 3a 00
        E 1 9c 40 00
        E 2 9c 35 53
        E 1 9c 41 4a
        E 2 9c 29 4f
        E 14 9c 3c 54
        E 3 9c 39 42
        E 384 9c 29 00
        E 5 9c 35 00
        E 11 9c 3c 00
        E 6 9c 39 00
        E 38 9c 41 00
        E 254 9c 3c 58
        E 76 9c 3c 00
        E 13 9c 3c 4c
        E 2 9c 39 4e
        E 6 9c 41 50
        E 2 9c 3c 1b
        E 4 9c 35 54
        E 1 9c 29 4b
        E 16 9c 3c 00
        E 278 9c 39 00
        E 24 9c 3c 00
        E 11 9c 41 00
        E 17 9c 29 00
        E 9 9c 35 00
        E 8 9c 41 57
        E 0 9c 39 4a
        E 1 9c 3e 50
        E 23 9c 32 55
        E 1 9c 26 46
        E 216 9c 39 00
        E 44 9c 3e 00
        E 3 9c 3c 52
        E 5 9c 41 00
        E 47 9c 26 00
        E 10 9c 32 00
        E 10 9c 3c 00
        E 12 9c 41 50
        E 6 9c 22 48
        E 4 9c 2e 50
        E 10 9c 3a 4e
        E 1 9c 3e 4f
        E 307 9c 3a 00
        E 13 9c 2e 00
        E 6 9c 3e 00
        E 9 9c 41 00
        E 5 9c 22 00
        E 27 9c 39 51
        E 3 9c 3c 50
        E 0 9c 35 52
        E 3 9c 29 47
        E 1 9c 41 52
        E 123 9c 40 55
        E 17 9c 41 00
        E 103 9c 40 00
        E 2 9c 41 59
        E 69 9c 35 00
        E 2 9c 29 00
        E 11 9c 3c 00
        E 4 9c 39 00
        E 22 9c 41 00
        E 12 9c 43 4a
        E 9 9c 24 53
        E 1 9c 30 5e
        E 10 9c 3c 4e
        E 1 9c 40 4a
        E 149 9c 30 00
        E 6 9c 24 00
        E 22 9c 2b 48
        E 5 9c 37 58
        E 105 9c 2b 00
        E 7 9c 37 00
        E 61 9c 28 4b
        E 1 9c 34 51
        E 103 9c 3c 00
        E 21 9c 28 00
        E 0 9c 40 00
        E 6 9c 34 00
        E 61 9c 30 5b
        E 5 9c 45 50
        E 0 9c 24 4d
        E 13 9c 40 4d
        E 2 9c 43 00
        E 1 9c 3c 57
        E 114 9c 30 00
        E 15 9c 24 00
        E 34 9c 3c 00
        E 6 9c 29 4a
        E 1 9c 35 53
        E 2 9c 41 50
        E 13 9c 40 00
        E 3 9c 45 00
        E 15 9c 3c 4c
        E 1 9c 39 50
        E 210 9c 29 00
        E 10 9c 41 00
        E 0 9c 35 00
        E 69 9c 3c 00
        E 4 9c 39 00
        E 84 9c 45 55
        E 156 9c 46 4f
        E 24 9c 45 00
        E 184 9c 45 4a
        E 1 9c 3c 4f
        E 0 9c 41 49
        E 0 9c 46 00
        E 16 9c 35 5b
        E 6 9c 29 52
        E 7 9c 48 51
        E 275 9c 35 00
        E 13 9c 29 00
        E 35 9c 45 00
        E 9 9c 3c 00
        E 12 9c 41 00
        E 10 9c 3d 4d
        E 2 9c 39 57
        E 3 9c 2d 4f
        E 2 9c 45 5a
        E 46 9c 48 00
        E 170 9c 2d 00
        E 73 9c 39 00
        E 6 9c 43 4a
        E 23 9c 45 00
        E 47 9c 3d 00
        E 12 9c 3e 50
        E 4 9c 29 4a
        E 0 9c 35 4a
        E 0 9c 39 4a
        E 8 9c 41 53
        E 9 9c 43 00
        E 188 9c 45 4f
        E 30 9c 41 00
        E 89 9c 39 00
        E 0 9c 35 00
        E 0 9c 29 00
        E 24 9c 3e 00
        E 12 9c 40 47
        E 2 9c 24 4c
        E 0 9c 30 4c
        E 0 9c 3c 4c
        E 0 9c 45 00
        E 26 9c 43 53
        E 173 9c 45 50
        E 20 9c 43 00
        E 6 9c 3e 4a
        E 3 9c 30 00
        E 0 9c 3c 00
        E 0 9c 24 00
        E 1 9c 21 45
        E 0 9c 2d 45
        E 0 9c 39 45
        E 15 9c 40 00
        E 122 9c 2d 00
        E 0 9c 21 00
        E 0 9c 39 00
        E 28 9c 3e 00
        E 30 9c 3c 4f
        E 3 9c 1d 4a
        E 0 9c 29 4a
        E 0 9c 39 4a
        E 11 9c 41 48
        E 4 9c 45 00
        E 259 9c 39 00
        E 0 9c 29 00
        E 0 9c 1d 00
        E 65 9c 41 00
        E 10 9c 3c 00
        E 21 9c 3a 48
        E 1 9c 24 50
        E 0 9c 30 50
        E 0 9c 37 50
        E 4 9c 40 4a
        E 200 9c 3a 00
        E 10 9c 37 00
        E 0 9c 24 00
        E 0 9c 30 00
        E 75 9c 43 44
        E 0 9c 40 00
        E 9 9c 3a 4b
        E 4 9c 40 46
        E 79 9c 35 55
        E 3 9c 29 4b
        E 1 9c 39 4c
        E 3 9c 3c 4b
        E 6 9c 40 00
        E 10 9c 41 4d
        E 1 9c 43 00
        E 4 9c 3a 00
        E 189 9c 29 00
        E 9 9c 35 00
        E 50 9c 39 00
        E 25 9c 3c 00
        E 22 9c 41 00
        E 68 9c 45 44
        E 155 9c 45 00
        E 145 9c 45 46
        E 50 9c 45 00
        E 21 9c 45 3e
        E 5 9c 35 32
        E 1 9c 29 2f
        E 3 9c 30 41
        E 53 9c 30 00
        E 6 9c 29 00
        E 8 9c 35 00
        E 89 9c 41 4c
        E 58 9c 41 00
        E 33 9c 3e 4d
        E 71 9c 3e 00
        E 46 9c 3c 4c
        E 29 9c 43 39
        E 4 9c 35 3c
        E 1 9c 29 3a
        E 2 9c 30 3e
        E 2 9c 45 00
        E 44 9c 30 00
        E 11 9c 35 00
        E 1 9c 29 00
        E 100 9c 41 41
        E 13 9c 43 00
        E 117 9c 3c 00
        E 56 9c 41 00
        E 5 9c 30 4d
        E 2 9c 24 35
        E 9 9c 43 48
        E 1 9c 46 3a
        E 44 9c 30 00
        E 3 9c 24 00
        E 315 9c 46 00
        E 10 9c 45 41
        E 1 9c 43 00
        E 5 9c 29 3a
        E 1 9c 35 3e
        E 2 9c 30 42
        E 4 9c 3e 4a
        E 42 9c 30 00
        E 12 9c 35 00
        E 0 9c 29 00
        E 249 9c 43 3c
        E 21 9c 45 00
        E 26 9c 43 00
        E 32 9c 43 42
        E 2 9c 30 50
        E 6 9c 24 37
        E 41 9c 3e 00
        E 1 9c 30 00
        E 10 9c 24 00
        E 175 9c 37 4e
        E 2 9c 3c 4c
        E 6 9c 2b 37
        E 33 9c 2b 00
        E 7 9c 3c 00
        E 0 9c 37 00
        E 41 9c 40 4a
        E 45 9c 40 00
        E 23 9c 28 3a
        E 2 9c 34 46
        E 15 9c 43 45
        E 30 9c 28 00
        E 4 9c 34 00
        E 15 9c 43 00
        E 48 9c 40 4a
        E 52 9c 40 00
        E 24 9c 43 46
        E 6 9c 24 3e
        E 2 9c 30 4f
        E 41 9c 43 00
        E 5 9c 30 00
        E 0 9c 24 00
        E 43 9c 48 44
        E 65 9c 48 00
        E 28 9c 43 4a
        E 7 9c 37 51
        E 2 9c 2b 3d
        E 32 9c 43 00
        E 10 9c 37 00
        E 4 9c 2b 00
        E 125 9c 43 00
        E 189 9c 46 48
        E 8 9c 35 48
        E 11 9c 29 40
        E 198 9c 29 00
        E 11 9c 46 00
        E 22 9c 35 00
        E 26 9c 40 42
        E 21 9c 46 3e
        E 12 9c 32 3c
        E 10 9c 26 3d
        E 24 9c 46 00
        E 16 9c 40 00
        E 14 9c 26 00
        E 3 9c 3a 3e
        E 3 9c 46 43
        E 1 9c 3e 48
        E 3 9c 32 00
        E 18 9c 22 39
        E 4 9c 2e 40
        E 129 9c 2e 00
        E 5 9c 22 00
        E 59 9c 3a 00
        E 66 9c 3e 00
        E 1 9c 3c 50
        E 71 9c 3c 00
        E 25 9c 3e 4c
        E 8 9c 45 47
        E 9 9c 35 45
        E 3 9c 30 4f
        E 2 9c 29 42
        E 11 9c 46 00
        E 55 9c 30 00
        E 7 9c 35 00
        E 0 9c 29 00
        E 113 9c 43 3f
        E 11 9c 45 00
        E 175 9c 3e 00
        E 12 9c 2b 3e
        E 1 9c 37 47
        E 2 9c 48 44
        E 1 9c 30 49
        E 12 9c 45 4a
        E 17 9c 43 00
        E 26 9c 30 00
        E 2 9c 2b 00
        E 4 9c 37 00
        E 317 9c 45 00
        E 10 9c 46 45
        E 4 9c 48 00
        E 4 9c 40 4a
        E 6 9c 2b 42
        E 1 9c 37 48
        E 3 9c 30 49
        E 50 9c 30 00
        E 8 9c 2b 00
        E 17 9c 37 00
        E 207 9c 46 00
        E 6 9c 45 64
        E 60 9c 45 00
        E 26 9c 45 43
        E 0 9c 30 4e
        E 0 9c 29 3c
        E 0 9c 35 4c
        E 16 9c 40 00
        E 44 9c 35 00
        E 18 9c 30 00
        E 8 9c 29 00
        E 106 9c 30 4a
        E 0 9c 3c 4a
        E 52 9c 3c 00
        E 1 9c 30 00
        E 43 9c 41 4e
        E 53 9c 41 00
        E 43 9c 45 50
        E 0 9c 2d 41
        E 0 9c 39 4d
        E 43 9c 39 00
        E 4 9c 2d 00
        E 19 9c 45 00
        E 30 9c 41 50
        E 57 9c 41 00
        E 39 9c 45 4a
        E 0 9c 35 4d
        E 0 9c 29 40
        E 43 9c 35 00
        E 6 9c 29 00
        E 8 9c 45 00
        E 39 9c 4a 4f
        E 70 9c 4a 00
        E 26 9c 3c 4a
        E 0 9c 35 4a
        E 0 9c 30 4b
        E 0 9c 48 4c
        E 77 9c 35 00
        E 7 9c 3c 00
        E 6 9c 30 00
        E 2 9c 45 00
        E 133 9c 48 00
        E 162 9c 45 4a
        E 207 9c 45 00
        E 97 9c 45 46
        E 45 9c 45 00
        E 31 9c 35 4e
        E 2 9c 30 48
        E 2 9c 29 3c
        E 2 9c 45 4c
        E 69 9c 30 00
        E 11 9c 35 00
        E 1 9c 29 00
        E 60 9c 41 4e
        E 77 9c 41 00
        E 31 9c 3e 4d
        E 105 9c 3e 00
        E 4 9c 43 43
        E 18 9c 3c 50
        E 4 9c 45 00
        E 10 9c 35 4f
        E 10 9c 30 4d
        E 1 9c 29 3c
        E 54 9c 35 00
        E 3 9c 30 00
        E 20 9c 29 00
        E 68 9c 41 42
        E 11 9c 43 00
        E 171 9c 3c 00
        E 19 9c 46 3e
        E 0 9c 24 49
        E 3 9c 30 4f
        E 6 9c 41 00
        E 62 9c 30 00
        E 11 9c 24 00
        E 114 9c 43 37
        E 179 9c 3e 33
        E 4 9c 45 50
        E 7 9c 43 00
        E 8 9c 29 38
        E 2 9c 35 4e
        E 2 9c 30 45
        E 1 9c 46 00
        E 51 9c 30 00
        E 9 9c 35 00
        E 1 9c 29 00
        E 217 9c 45 00
        E 7 9c 43 44
        E 59 9c 3e 00
        E 1 9c 43 00
        E 35 9c 43 49
        E 8 9c 37 50
        E 8 9c 2b 3b
        E 0 9c 30 46
        E 31 9c 30 00
        E 13 9c 37 00
        E 8 9c 2b 00
        E 127 9c 2b 43
        E 1 9c 30 47
        E 3 9c 37 57
        E 11 9c 3c 51
        E 32 9c 37 00
        E 4 9c 30 00
        E 5 9c 3c 00
        E 0 9c 2b 00
        E 37 9c 40 4e
        E 58 9c 40 00
        E 34 9c 43 47
        E 11 9c 34 4a
        E 1 9c 28 42
        E 43 9c 34 00
        E 4 9c 28 00
        E 4 9c 43 00
        E 120 9c 45 49
        E 8 9c 40 4b
        E 6 9c 43 00
        E 3 9c 37 53
        E 2 9c 30 48
        E 1 9c 2b 3f
        E 34 9c 40 00
        E 6 9c 37 00
        E 8 9c 30 00
        E 4 9c 43 4a
        E 1 9c 2b 00
        E 15 9c 46 44
        E 4 9c 45 00
        E 34 9c 43 00
        E 61 9c 46 00
        E 5 9c 3c 39
        E 0 9c 41 39
        E 0 9c 48 39
        E 12 9c 29 42
        E 5 9c 35 54
        E 146 9c 35 00
        E 14 9c 29 00
        E 92 9c 3c 00
        E 0 9c 41 00
        E 0 9c 48 00
        E 140 9c 48 50
        E 171 9c 48 00
        E 99 9c 48 4a
        E 51 9c 48 00
        E 28 9c 41 4a
        E 4 9c 3c 4c
        E 4 9c 48 43
        E 25 9c 30 53
        E 2 9c 29 47
        E 116 9c 30 00
        E 2 9c 29 00
        E 165 9c 3c 00
        E 43 9c 41 00
        E 4 9c 3d 4e
        E 18 9c 2d 55
        E 3 9c 21 49
        E 2 9c 45 43
        E 20 9c 48 00
        E 82 9c 2d 00
        E 24 9c 21 00
        E 129 9c 45 00
        E 27 9c 43 3d
        E 53 9c 3d 00
        E 17 9c 43 00
        E 12 9c 3e 4a
        E 1 9c 39 43
        E 6 9c 41 3f
        E 11 9c 26 46
        E 2 9c 32 57
        E 191 9c 45 40
        E 19 9c 41 00
        E 34 9c 26 00
        E 42 9c 32 00
        E 27 9c 39 00
        E 33 9c 3e 00
        E 28 9c 3c 4c
        E 2 9c 40 42
        E 16 9c 30 5e
        E 0 9c 24 46
        E 10 9c 43 3e
        E 4 9c 45 00
        E 43 9c 30 00
        E 11 9c 24 00
        E 77 9c 40 00
        E 12 9c 3e 49
        E 0 9c 3c 00
        E 2 9c 39 4b
        E 29 9c 2d 50
        E 6 9c 21 46
        E 6 9c 43 00
        E 5 9c 45 40
        E 54 9c 2d 00
        E 15 9c 21 00
        E 12 9c 39 00
        E 64 9c 3e 00
        E 28 9c 29 50
        E 0 9c 45 00
        E 1 9c 1d 45
        E 10 9c 41 40
        E 9 9c 39 41
        E 1 9c 3c 51
        E 141 9c 1d 00
        E 7 9c 29 00
        E 169 9c 39 00
        E 23 9c 3a 4a
        E 2 9c 37 4f
        E 16 9c 41 00
        E 1 9c 40 46
        E 4 9c 30 59
        E 6 9c 24 4b
        E 8 9c 3c 00
        E 85 9c 37 00
        E 12 9c 3a 00
        E 135 9c 40 00
        E 19 9c 3a 4a
        E 0 9c 40 4a
        E 0 9c 43 4a
        E 33 9c 30 00
        E 31 9c 24 00
        E 36 9c 40 00
        E 0 9c 3a 00
        E 0 9c 43 00
        E 7 9c 35 4e
        E 2 9c 41 44
        E 1 9c 29 44
        E 1 9c 39 4f
        E 2 9c 3c 55
        E 83 9c 39 00
        E 27 9c 3c 00
        E 40 9c 29 00
        E 1 9c 35 00
        E 47 9c 30 65
        E 4 9c 43 5a
        E 1 9c 24 53
        E 51 9c 43 00
        E 40 9c 45 5f
        E 51 9c 45 00
        E 19 9c 30 00
        E 7 9c 24 00
        E 5 9c 46 64
        E 22 9c 41 00
        E 3 9c 26 57
        E 0 9c 32 63
        E 38 9c 46 00
        E 27 9c 48 69
        E 55 9c 48 00
        E 31 9c 32 00
        E 4 9c 4a 6e
        E 8 9c 26 00
        E 20 9c 28 5f
        E 0 9c 34 69
        E 25 9c 4a 00
        E 40 9c 4c 73
        E 31 9c 3c 7f
        E 32 9c 4c 00
        E 28 9c 3c 00
        E 5 9c 45 50
        E 1 9c 41 5f
        E 2 9c 34 00
        E 4 9c 28 00
        E 3 9c 4d 5c
        E 23 9c 35 6e
        E 1 9c 29 59
        E 283 9c 41 00
        E 1 9c 29 00
        E 18 9c 35 00
        E 21 9c 4d 00
        E 8 9c 45 00
        E 30 9c 4d 4f
        E 1 9c 32 76
        E 5 9c 26 63
        E 6 9c 41 5c
        E 3 9c 3e 50
        E 3 9c 39 52
        E 131 9c 26 00
        E 3 9c 32 00
        E 42 9c 41 00
        E 45 9c 3e 00
        E 8 9c 39 00
        E 17 9c 4d 00
        E 13 9c 3c 58
        E 21 9c 24 4a
        E 4 9c 30 73
        E 17 9c 48 57
        E 10 9c 3c 00
        E 15 9c 30 00
        E 8 9c 24 00
        E 20 9c 3e 5a
        E 0 9c 48 00
        E 2 9c 41 55
        E 2 9c 3a 55
        E 11 9c 2e 61
        E 0 9c 22 51
        E 12 9c 4d 52
        E 245 9c 3e 00
        E 6 9c 3a 00
        E 51 9c 2e 00
        E 14 9c 41 00
        E 4 9c 4d 00
        E 33 9c 22 00
        E 11 9c 4d 51
        E 6 9c 3c 58
        E 2 9c 35 69
        E 2 9c 29 58
        E 1 9c 39 50
        E 21 9c 41 5e
        E 99 9c 4c 54
        E 7 9c 41 00
        E 12 9c 4d 00
        E 4 9c 40 58
        E 52 9c 4c 00
        E 26 9c 40 00
        E 9 9c 4d 58
        E 32 9c 41 5a
        E 9 9c 39 00
        E 8 9c 3c 00
        E 38 9c 29 00
        E 2 9c 35 00
        E 11 9c 4d 00
        E 23 9c 41 00
        E 14 9c 4f 5a
        E 2 9c 30 76
        E 1 9c 24 5a
        E 22 9c 43 53
        E 16 9c 40 5c
        E 10 9c 3c 5c
        E 58 9c 30 00
        E 17 9c 24 00
        E 81 9c 37 6c
        E 1 9c 2b 54
        E 78 9c 2b 00
        E 2 9c 37 00
        E 108 9c 34 6e
        E 1 9c 28 5a
        E 82 9c 34 00
        E 12 9c 28 00
        E 12 9c 3c 00
        E 14 9c 40 00
        E 72 9c 30 76
        E 0 9c 4f 00
        E 2 9c 24 57
        E 6 9c 51 54
        E 8 9c 45 55
        E 1 9c 40 63
        E 4 9c 3c 5c
        E 11 9c 43 00
        E 78 9c 30 00
        E 3 9c 3c 00
        E 7 9c 40 00
        E 15 9c 24 00
        E 32 9c 51 00
        E 27 9c 4d 58
        E 1 9c 45 00
        E 8 9c 41 59
        E 5 9c 35 73
        E 2 9c 29 5f
        E 1 9c 3c 5b
        E 3 9c 39 54
        E 196 9c 29 00
        E 3 9c 35 00
        E 54 9c 4d 00
        E 2 9c 39 00
        E 15 9c 3c 00
        E 40 9c 41 00
        E 98 9c 45 60
        E 1 9c 51 63
        E 151 9c 45 00
        E 12 9c 51 00
        E 3 9c 46 53
        E 2 9c 52 53
        E 184 9c 46 00
        E 7 9c 35 76
        E 2 9c 41 5a
        E 2 9c 29 54
        E 0 9c 45 57
        E 6 9c 3c 57
        E 9 9c 48 5e
        E 12 9c 54 58
        E 20 9c 52 00
        E 259 9c 35 00
        E 2 9c 29 00
        E 4 9c 3c 00
        E 23 9c 41 00
        E 3 9c 48 00
        E 8 9c 45 00
        E 18 9c 54 00
        E 5 9c 51 63
        E 6 9c 45 5b
        E 11 9c 39 67
        E 0 9c 2d 5a
        E 14 9c 3d 63
        E 256 9c 43 54
        E 9 9c 4f 55
        E 6 9c 39 00
        E 4 9c 45 00
        E 8 9c 2d 00
        E 7 9c 51 00
        E 36 9c 4f 00
        E 2 9c 3d 00
        E 23 9c 41 52
        E 5 9c 4d 5a
        E 1 9c 29 58
        E 1 9c 35 76
        E 6 9c 43 00
        E 3 9c 3e 5a
        E 6 9c 39 50
        E 158 9c 45 54
        E 13 9c 51 5b
        E 20 9c 41 00
        E 2 9c 4d 00
        E 68 9c 39 00
        E 26 9c 45 00
        E 11 9c 3e 00
        E 4 9c 29 00
        E 3 9c 35 00
        E 12 9c 51 00
        E 25 9c 43 57
        E 5 9c 40 5e
        E 3 9c 4f 5e
        E 1 9c 3c 5b
        E 22 9c 24 5c
        E 1 9c 30 73
        E 82 9c 40 00
        E 6 9c 3c 00
        E 43 9c 4f 00
        E 2 9c 43 00
        E 12 9c 30 00
        E 1 9c 45 55
        E 6 9c 24 00
        E 6 9c 51 5a
        E 9 9c 39 54
        E 2 9c 3e 69
        E 12 9c 2d 5a
        E 4 9c 21 55
        E 89 9c 39 00
        E 4 9c 3e 00
        E 66 9c 21 00
        E 1 9c 2d 00
        E 10 9c 45 00
        E 4 9c 39 58
        E 0 9c 51 00
        E 3 9c 3c 5b
        E 3 9c 41 5b
        E 12 9c 4d 5b
        E 7 9c 29 63
        E 3 9c 1d 54
        E 230 9c 39 00
        E 10 9c 3c 00
        E 76 9c 29 00
        E 3 9c 1d 00
        E 62 9c 4c 5c
        E 1 9c 40 59
        E 0 9c 30 6e
        E 1 9c 4d 00
        E 2 9c 24 60
        E 4 9c 41 00
        E 4 9c 3a 58
        E 1 9c 37 5a
        E 193 9c 37 00
        E 7 9c 3a 00
        E 33 9c 4c 00
        E 51 9c 40 00
        E 17 9c 43 4d
        E 2 9c 4f 5b
        E 6 9c 3a 51
        E 1 9c 30 00
        E 4 9c 40 5c
        E 10 9c 24 00
        E 54 9c 3a 00
        E 22 9c 4f 00
        E 3 9c 43 00
        E 6 9c 40 00
        E 18 9c 4d 5e
        E 2 9c 29 60
        E 3 9c 35 67
        E 2 9c 41 5f
        E 3 9c 39 5a
        E 1 9c 3c 5e
        E 350 9c 4d 00
        E 7 9c 3c 00
        E 14 9c 29 00
        E 3 9c 35 00
        E 1 9c 39 00
        E 2 9c 41 00
        E 341 b0 7b 00
        GUID {1729026B-0FE9-9F4C-89F3-6574ED535013}
        IGNTEMPO 0 120 4 4
        SRCCOLOR 593
        VELLANE -1 86 6
      >
    >
  >
  <TRACK {3C494A2B-9670-9740-AD22-E42CC5065FE1}
    NAME "ch2,4 (send)"
    PEAKCOL 16576
    BEAT -1
    AUTOMODE 0
    VOLPAN 1 0 -1 -1 1
    MUTESOLO 0 0 0
    IPHASE 0
    ISBUS 0 0
    BUSCOMP 0 0
    SHOWINMIX 1 0.6667 0.5 1 0.5 0 0 0
    FREEMODE 0
    SEL 0
    REC 0 0 0 0 0 0 0
    VU 2
    MIDICTL -1 1
    TRACKHEIGHT 101 0
    INQ 0 0 0 0.5 100 0 0 100
    NCHAN 2
    FX 1
    TRACKID {3C494A2B-9670-9740-AD22-E42CC5065FE1}
    PERF 0
    MIDIOUT -1
    MAINSEND 1 0
    <FXCHAIN
      WNDRECT 32 359 724 387
      SHOW 0
      LASTSEL 0
      DOCKED 0
    >
    <ITEM
      POSITION 16
      SNAPOFFS 0
      LENGTH 24.5
      LOOP 1
      ALLTAKES 0
      FADEIN 1 0 0 1 0 0
      FADEOUT 1 0 0 1 0 0
      MUTE 0
      COLOR 22774783 B
      SEL 0
      IGUID {7304AF2F-393B-EB49-AA31-8331C0E02174}
      IID 10
      NAME "exten synt - National_Anthems_-_Egypt.mid"
      VOLPAN 1 0 1 -1
      SOFFS 16 32
      PLAYRATE 1 1 0 -1 0 0.0025
      CHANMODE 0
      TAKECOLOR 27282604 B
      GUID {2F30F15A-A7CE-4F4C-B41C-95103BE41464}
      <SOURCE MIDI
        HASDATA 1 384 QN
        POOLEDEVTS {213385E8-A6A8-474B-B6DF-112D364C0C5C}
        <X 0 0 0 0 3 "exten synt"
          /wNleHRlbiBzeW50
        >
        e 288 92 3c 7f 3
        e 96 92 3c 00 -44
        e 0 92 41 7f -4
        e 0 92 39 7f 19
        e 0 92 3c 7f 19
        e 0 92 29 7f 37
        e 0 92 35 7f 43
        e 192 92 39 00 32
        e 0 92 3c 00 36
        e 96 92 41 00 13
        e 96 92 29 00 -40
        e 0 92 35 00 -30
        e 0 92 39 7f 1
        e 0 92 3e 7f 2
        e 0 92 41 7f 7
        e 0 92 26 7f 22
        e 0 92 32 7f 27
        e 192 92 39 00 25
        e 0 92 3e 00 24
        e 0 92 41 00 28
        e 96 92 32 00 37
        e 0 92 3c 7f -20
        e 96 92 26 00 -34
        e 0 92 3c 00 -64
        e 0 92 41 7f -22
        e 0 92 3a 7f -2
        e 0 92 3e 7f -1
        e 0 92 2e 7f 3
        e 0 92 22 7f 6
        e 192 92 3a 00 -5
        e 0 92 3e 00 3
        e 96 92 41 00 30
        e 0 92 2e 00 -10
        e 0 92 22 00 9
        e 96 92 29 7f -23
        e 0 92 35 7f -23
        e 0 92 41 7f -18
        e 0 92 39 7f -11
        e 0 92 3c 7f -10
        e 96 92 41 00 19
        e 0 92 40 7f 17
        e 96 92 39 00 15
        e 0 92 3c 00 19
        e 0 92 40 00 21
        e 96 92 29 00 11
        e 0 92 35 00 11
        e 0 92 41 7f -39
        e 96 92 41 00 -28
        e 0 92 24 7f -12
        e 0 92 30 7f -12
        e 0 92 3c 7f -8
        e 0 92 40 7f -8
        e 0 92 43 7f 3
        e 96 92 24 00 -26
        e 0 92 30 00 -20
        e 96 92 2b 7f -30
        e 0 92 37 7f -27
        e 96 92 2b 00 -35
        e 0 92 37 00 -28
        e 96 92 28 7f -29
        e 0 92 34 7f -24
        e 96 92 3c 00 -33
        e 0 92 40 00 -19
        e 0 92 28 00 -39
        e 0 92 34 00 -39
        e 96 92 43 00 11
        e 0 92 24 7f -30
        e 0 92 30 7f -27
        e 0 92 3c 7f -4
        e 0 92 40 7f -3
        e 0 92 45 7f -2
        e 96 92 24 00 -34
        e 0 92 30 00 -57
        e 0 92 3c 00 23
        e 0 92 40 00 46
        e 96 92 45 00 -15
        e 0 92 39 7f -19
        e 0 92 3c 7f -18
        e 0 92 35 7f -16
        e 0 92 29 7f -16
        e 0 92 41 7f -10
        e 96 92 35 00 38
        e 0 92 29 00 31
        e 96 92 39 00 16
        e 0 92 3c 00 22
        e 96 92 41 00 -10
        e 96 92 45 7f 1
        e 192 92 45 00 -22
        e 0 92 46 7f -16
        e 192 92 46 00 5
        e 0 92 35 7f -17
        e 0 92 29 7f -15
        e 0 92 41 7f -12
        e 0 92 45 7f -10
        e 0 92 3c 7f -7
        e 0 92 48 7f 1
        e 288 92 35 00 -1
        e 0 92 29 00 3
        e 0 92 3c 00 42
        e 0 92 48 00 39
        e 96 92 41 00 -39
        e 0 92 45 00 -37
        e 0 92 45 7f -37
        e 0 92 2d 7f -15
        e 0 92 39 7f -11
        e 0 92 3d 7f -9
        e 96 92 45 00 -132
        e 192 92 2d 00 16
        e 0 92 39 00 17
        e 0 92 3d 00 7
        e 0 92 43 7f -23
        e 96 92 43 00 -18
        e 0 92 3e 7f -42
        e 0 92 29 7f -39
        e 0 92 39 7f -38
        e 0 92 41 7f -32
        e 0 92 35 7f -31
        e 192 92 41 00 5
        e 0 92 45 7f -28
        e 96 92 3e 00 -20
        e 0 92 29 00 -11
        e 0 92 39 00 6
        e 0 92 35 00 7
        e 0 92 45 00 7
        e 0 92 43 7f 38
        e 96 92 40 7f -43
        e 0 92 3c 7f -34
        e 0 92 24 7f -24
        e 0 92 30 7f -23
        e 96 92 24 00 42
        e 0 92 30 00 33
        e 0 92 45 7f 47
        e 96 92 43 00 -32
        e 0 92 40 00 -38
        e 0 92 3c 00 -19
        e 0 92 3e 7f -43
        e 0 92 39 7f -31
        e 0 92 2d 7f -26
        e 0 92 21 7f -24
        e 96 92 3e 00 35
        e 0 92 39 00 -2
        e 0 92 2d 00 42
        e 0 92 21 00 36
        e 96 92 45 00 -31
        e 0 92 3c 7f -43
        e 0 92 39 7f -41
        e 0 92 41 7f -36
        e 0 92 29 7f -22
        e 0 92 1d 7f -15
        e 288 92 3c 00 23
        e 0 92 39 00 3
        e 0 92 29 00 1
        e 0 92 1d 00 15
        e 96 92 41 00 -31
        e 0 92 40 7f -43
        e 0 92 24 7f -32
        e 0 92 3a 7f -31
        e 0 92 30 7f -31
        e 0 92 37 7f -24
        e 96 92 3a 00 39
        e 0 92 37 00 38
        e 192 92 40 00 -30
        e 0 92 24 00 35
        e 0 92 30 00 25
        e 0 92 43 7f -30
        e 0 92 40 7f -8
        e 0 92 3a 7f -5
        e 96 92 43 00 -59
        e 0 92 40 00 -37
        e 0 92 3a 00 -38
        e 0 92 35 7f -35
        e 0 92 41 7f -34
        e 0 92 29 7f -32
        e 0 92 3c 7f -18
        e 0 92 39 7f -15
        e 384 92 35 00 -10
        e 0 92 41 00 45
        e 0 92 29 00 -15
        e 0 92 3c 00 1
        e 0 92 39 00 7
        e 288 92 3c 7f 11
        e 96 92 3c 00 -9
        e 0 92 39 7f 6
        e 0 92 41 7f 12
        e 0 92 3c 7d 14
        e 0 92 35 7f 18
        e 0 92 29 7f 19
        e 96 92 3c 00 -61
        e 192 92 39 00 25
        e 96 92 41 00 -36
        e 0 92 35 00 -10
        e 0 92 29 00 -19
        e 0 92 41 7f -2
        e 0 92 39 7f -2
        e 0 92 3e 7f -1
        e 0 92 32 7f 22
        e 0 92 26 7f 23
        e 192 92 39 00 47
        e 96 92 41 00 3
        e 0 92 3e 00 -5
        e 0 92 3c 7f -2
        e 96 92 32 00 -36
        e 0 92 26 00 -46
        e 0 92 3c 00 -26
        e 0 92 41 7f -14
        e 0 92 22 7f -8
        e 0 92 2e 7f -4
        e 0 92 3a 7f 6
        e 0 92 3e 7f 7
        e 288 92 2e 00 39
        e 0 92 3a 00 26
        e 0 92 3e 00 45
        e 96 92 41 00 -42
        e 0 92 22 00 -37
        e 0 92 39 7f -10
        e 0 92 3c 7f -7
        e 0 92 35 7f -7
        e 0 92 29 7f -4
        e 0 92 41 7f -3
        e 96 92 41 00 41
        e 0 92 40 7f 24
        e 192 92 39 00 40
        e 0 92 3c 00 36
        e 0 92 35 00 23
        e 0 92 29 00 25
        e 0 92 40 00 -48
        e 0 92 41 7f -46
        e 96 92 41 00 -34
        e 0 92 43 7f -22
        e 0 92 24 7f -13
        e 0 92 30 7f -12
        e 0 92 3c 7f -2
        e 0 92 40 7f -1
        e 192 92 24 00 -38
        e 0 92 30 00 -44
        e 0 92 2b 7f -16
        e 0 92 37 7f -11
        e 96 92 2b 00 -2
        e 0 92 37 00 5
        e 96 92 28 7f -30
        e 0 92 34 7f -29
        e 96 92 3c 00 -22
        e 0 92 40 00 -1
        e 0 92 28 00 -1
        e 0 92 34 00 5
        e 96 92 43 00 -10
        e 0 92 30 7f -30
        e 0 92 45 7f -25
        e 0 92 24 7f -25
        e 0 92 40 7f -12
        e 0 92 3c 7f -9
        e 96 92 30 00 9
        e 0 92 24 00 24
        e 96 92 45 00 -13
        e 0 92 40 00 -16
        e 0 92 3c 00 -38
        e 0 92 29 7f -32
        e 0 92 35 7f -31
        e 0 92 41 7f -29
        e 0 92 3c 7f 2
        e 0 92 39 7f 3
        e 192 92 29 00 21
        e 0 92 35 00 31
        e 0 92 41 00 31
        e 96 92 3c 00 4
        e 0 92 39 00 8
        e 96 92 45 7f -4
        e 192 92 45 00 -16
        e 0 92 46 7f -40
        e 192 92 46 00 -23
        e 0 92 45 7f -24
        e 0 92 3c 7f -23
        e 0 92 41 7f -23
        e 0 92 35 7f -7
        e 0 92 29 7f -1
        e 0 92 48 7f 6
        e 288 92 45 00 41
        e 0 92 35 00 -7
        e 0 92 29 00 6
        e 96 92 3c 00 -46
        e 0 92 41 00 -34
        e 0 92 48 00 29
        e 0 92 3d 7f -24
        e 0 92 39 7f -22
        e 0 92 2d 7f -19
        e 0 92 45 7f -17
        e 192 92 2d 00 7
        e 96 92 39 00 -16
        e 0 92 45 00 13
        e 0 92 43 7f -10
        e 96 92 3d 00 -36
        e 0 92 43 00 -3
        e 0 92 3e 7f -24
        e 0 92 29 7f -20
        e 0 92 35 7f -20
        e 0 92 39 7f -20
        e 0 92 41 7f -12
        e 192 92 41 00 23
        e 0 92 45 7f -7
        e 96 92 3e 00 40
        e 0 92 29 00 16
        e 0 92 35 00 16
        e 0 92 39 00 16
        e 96 92 45 00 -42
        e 0 92 40 7f -44
        e 0 92 24 7f -42
        e 0 92 30 7f -42
        e 0 92 3c 7f -42
        e 0 92 43 7f -16
        e 192 92 40 00 10
        e 0 92 24 00 -6
        e 0 92 30 00 -6
        e 0 92 3c 00 -6
        e 0 92 43 00 -15
        e 0 92 45 7f -35
        e 0 92 3e 7f -9
        e 0 92 21 7f -5
        e 0 92 2d 7f -5
        e 0 92 39 7f -5
        e 96 92 21 00 36
        e 0 92 2d 00 36
        e 0 92 39 00 36
        e 96 92 45 00 16
        e 0 92 3e 00 -32
        e 0 92 3c 7f -2
        e 0 92 1d 7f 1
        e 0 92 29 7f 1
        e 0 92 39 7f 1
        e 0 92 41 7f 12
        e 288 92 1d 00 -13
        e 0 92 29 00 -13
        e 0 92 39 00 -13
        e 96 92 3c 00 -34
        e 0 92 41 00 -44
        e 0 92 3a 7f -13
        e 0 92 24 7f -12
        e 0 92 30 7f -12
        e 0 92 37 7f -12
        e 0 92 40 7f -8
        e 192 92 3a 00
        e 0 92 24 00 10
        e 0 92 30 00 10
        e 0 92 37 00 10
        e 96 92 40 00 -11
        e 0 92 43 7f -11
        e 0 92 3a 7f -2
        e 0 92 40 7f 2
        e 96 92 43 00 9
        e 0 92 3a 00 13
        e 0 92 40 00 -2
        e 0 92 35 7f -15
        e 0 92 29 7f -12
        e 0 92 39 7f -11
        e 0 92 3c 7f -8
        e 0 92 41 7f 8
        e 192 92 35 00 19
        e 0 92 29 00 10
        e 96 92 39 00 -27
        e 0 92 3c 00 -2
        e 0 92 41 00 20
        e 96 92 45 7f -8
        e 192 92 45 00 -45
        e 96 92 45 7f 4
        e 96 92 45 00 -42
        e 0 92 45 7f -21
        e 0 92 35 7f -16
        e 0 92 29 7f -15
        e 0 92 30 7f -12
        e 96 92 35 00 -41
        e 0 92 29 00 -49
        e 0 92 30 00 -55
        e 96 92 41 7f -48
        e 0 92 3e 7f 43
        e 96 92 41 00 -86
        e 0 92 3e 00 18
        e 96 92 45 00 6
        e 0 92 3c 7f -32
        e 0 92 43 7f -3
        e 0 92 35 7f 1
        e 0 92 29 7f 2
        e 0 92 30 7f 4
        e 96 92 35 00 -35
        e 0 92 29 00 -34
        e 0 92 30 00 -46
        e 96 92 43 00 -17
        e 0 92 41 7f -30
        e 96 92 3c 00 4
        e 96 92 41 00 -36
        e 0 92 30 7f -31
        e 0 92 24 7f -29
        e 0 92 43 7f -20
        e 0 92 46 7f -19
        e 96 92 30 00 -71
        e 0 92 24 00 -68
        e 288 92 43 00 -30
        e 0 92 46 00 -41
        e 0 92 45 7f -31
        e 0 92 29 7f -25
        e 0 92 35 7f -24
        e 0 92 30 7f -22
        e 0 92 3e 7f -18
        e 96 92 29 00 -60
        e 0 92 35 00 -60
        e 0 92 30 00 -72
        e 192 92 45 00 18
        e 0 92 43 7f -3
        e 96 92 3e 00 29
        e 0 92 43 00 -52
        e 0 92 43 7f -20
        e 0 92 30 7f -18
        e 0 92 24 7f -12
        e 96 92 30 00 -66
        e 0 92 24 00 -56
        e 96 92 37 7f 23
        e 0 92 3c 7f 25
        e 0 92 2b 7f 31
        e 96 92 37 00 -25
        e 0 92 3c 00 -25
        e 0 92 2b 00 -32
        e 0 92 40 7f 16
        e 96 92 43 00 5
        e 0 92 40 00 -35
        e 0 92 28 7f -12
        e 0 92 34 7f -10
        e 0 92 43 7f 5
        e 96 92 28 00 -61
        e 0 92 34 00 -57
        e 0 92 43 00 -42
        e 0 92 40 7f 6
        e 96 92 40 00 -38
        e 0 92 43 7f -14
        e 0 92 24 7f -8
        e 0 92 30 7f -6
        e 96 92 43 00 -61
        e 0 92 24 00 -56
        e 0 92 30 00 -56
        e 0 92 48 7f -13
        e 96 92 48 00 -44
        e 0 92 43 7f -16
        e 0 92 37 7f -9
        e 0 92 2b 7f -7
        e 96 92 43 00 -71
        e 0 92 37 00 -61
        e 0 92 2b 00 -57
        e 288 92 46 7f -31
        e 0 92 35 7f -23
        e 0 92 29 7f -12
        e 192 92 46 00 5
        e 0 92 35 00 27
        e 0 92 29 00 -6
        e 96 92 40 7f -43
        e 0 92 46 7f -22
        e 0 92 32 7f -10
        e 0 92 26 7f
        e 96 92 40 00 -56
        e 0 92 46 00 -72
        e 0 92 32 00 -32
        e 0 92 26 00 -42
        e 0 92 3a 7f -39
        e 0 92 46 7f -36
        e 0 92 3e 7f -35
        e 0 92 22 7f -14
        e 0 92 2e 7f -10
        e 96 92 22 00 28
        e 0 92 2e 00 23
        e 96 92 3a 00 -9
        e 96 92 3e 00 -39
        e 0 92 3c 7f -38
        e 96 92 46 00 -5
        e 0 92 3c 00 -63
        e 0 92 3e 7f -38
        e 0 92 45 7f -30
        e 0 92 35 7f -21
        e 0 92 30 7f -18
        e 0 92 29 7f -16
        e 96 92 35 00 -39
        e 0 92 30 00 -46
        e 0 92 29 00 -39
        e 96 92 45 00 -11
        e 0 92 43 7f -22
        e 192 92 3e 00 -28
        e 0 92 43 00 17
        e 0 92 2b 7f -16
        e 0 92 37 7f -15
        e 0 92 48 7f -13
        e 0 92 30 7f -12
        e 0 92 45 7f
        e 96 92 2b 00 -51
        e 0 92 37 00 -47
        e 0 92 30 00 -53
        e 288 92 48 00 -4
        e 0 92 45 00 -18
        e 0 92 46 7f -8
        e 0 92 40 7f
        e 0 92 2b 7f 6
        e 0 92 37 7f 7
        e 0 92 30 7f 10
        e 96 92 2b 00 -28
        e 0 92 37 00 -11
        e 0 92 30 00 -36
        e 192 92 46 00 4
        e 0 92 45 7f 10
        e 96 92 40 00 16
        e 0 92 45 00 -26
        e 0 92 45 7f
        e 0 92 30 7f
        e 0 92 29 7f
        e 0 92 35 7f
        e 96 92 30 00 -18
        e 0 92 29 00 -10
        e 0 92 35 00 -36
        e 96 92 30 7f
        e 0 92 3c 7f
        e 96 92 30 00 -43
        e 0 92 3c 00 -44
        e 0 92 41 7f
        e 96 92 45 00
        e 0 92 41 00 -43
        e 0 92 45 7f
        e 0 92 2d 7f
        e 0 92 39 7f
        e 96 92 45 00 -30
        e 0 92 2d 00 -49
        e 0 92 39 00 -53
        e 0 92 41 7f
        e 96 92 41 00 -39
        e 0 92 45 7f
        e 0 92 35 7f
        e 0 92 29 7f
        e 96 92 45 00 -39
        e 0 92 35 00 -53
        e 0 92 29 00 -47
        e 0 92 4a 7f
        e 96 92 4a 00 -26
        e 0 92 3c 7f
        e 0 92 35 7f
        e 0 92 30 7f
        e 0 92 48 7f
        e 96 92 3c 00 -12
        e 0 92 35 00 -19
        e 0 92 30 00 -6
        e 96 92 48 00 33
        e 192 92 45 7f 3
        e 192 92 45 00 18
        e 96 92 45 7f 19
        e 96 92 45 00 -32
        e 0 92 35 7f -1
        e 0 92 30 7f 1
        e 0 92 29 7f 3
        e 0 92 45 7f 5
        e 96 92 35 00 -11
        e 0 92 30 00 -22
        e 0 92 29 00 -10
        e 96 92 41 7f -46
        e 96 92 41 00 -65
        e 0 92 3e 7f -34
        e 96 92 45 00 1
        e 0 92 3e 00 -25
        e 0 92 43 7f -21
        e 0 92 3c 7f -3
        e 0 92 35 7f 11
        e 0 92 30 7f 21
        e 0 92 29 7f 22
        e 96 92 35 00 -20
        e 0 92 30 00 -17
        e 0 92 29 00 3
        e 96 92 43 00 -14
        e 0 92 41 7f -25
        e 192 92 3c 00 -35
        e 0 92 41 00 -7
        e 0 92 46 7f -16
        e 0 92 24 7f -16
        e 0 92 30 7f -13
        e 96 92 24 00 -30
        e 0 92 30 00 -41
        e 96 92 43 7f -12
        e 192 92 46 00 -1
        e 0 92 43 00 -14
        e 0 92 3e 7f -25
        e 0 92 45 7f -21
        e 0 92 29 7f -6
        e 0 92 35 7f -4
        e 0 92 30 7f -2
        e 96 92 29 00 -36
        e 0 92 35 00 -37
        e 0 92 30 00 -46
        e 192 92 45 00 -11
        e 0 92 43 7f -4
        e 96 92 3e 00 -41
        e 0 92 43 00 -40
        e 0 92 43 7f -5
        e 0 92 37 7f 3
        e 0 92 2b 7f 11
        e 0 92 30 7f 11
        e 96 92 37 00 -41
        e 0 92 2b 00 -33
        e 0 92 30 00 -54
        e 96 92 2b 7f -2
        e 0 92 30 7f -1
        e 0 92 37 7f 2
        e 0 92 3c 7f 13
        e 96 92 2b 00 -42
        e 0 92 30 00 -47
        e 0 92 37 00 -51
        e 0 92 3c 00 -42
        e 0 92 40 7f -5
        e 96 92 43 00 -9
        e 0 92 40 00 -43
        e 0 92 43 7f -9
        e 0 92 34 7f 2
        e 0 92 28 7f 3
        e 96 92 43 00 -42
        e 0 92 34 00 -50
        e 0 92 28 00 -46
        e 96 92 45 7f -18
        e 0 92 40 7f -10
        e 0 92 37 7f -1
        e 0 92 30 7f 1
        e 0 92 2b 7f 2
        e 96 92 45 00 -22
        e 0 92 40 00 -60
        e 0 92 37 00 -54
        e 0 92 30 00 -46
        e 0 92 2b 00 -41
        e 0 92 43 7f -42
        e 0 92 46 7f -26
        e 96 92 43 00 -84
        e 0 92 46 00 -23
        e 0 92 3c 7f -18
        e 0 92 41 7f -18
        e 0 92 48 7f -18
        e 0 92 29 7f -6
        e 0 92 35 7f -1
        e 192 92 29 00 -33
        e 0 92 35 00 -47
        e 96 92 3c 00 -37
        e 0 92 41 00 -37
        e 0 92 48 00 -37
        e 96 92 48 7f 7
        e 192 92 48 00 -14
        e 96 92 48 7f -11
        e 96 92 48 00 -56
        e 0 92 41 7f -28
        e 0 92 3c 7f -24
        e 0 92 48 7f -20
        e 0 92 30 7f 5
        e 0 92 29 7f 7
        e 96 92 30 00 27
        e 0 92 29 00 29
        e 192 92 41 00 45
        e 0 92 3c 00 2
        e 96 92 48 00 -4
        e 0 92 3d 7f -47
        e 0 92 2d 7f -29
        e 0 92 21 7f -26
        e 0 92 45 7f -24
        e 96 92 2d 00 -18
        e 0 92 21 00 6
        e 96 92 45 00 39
        e 96 92 3d 00 23
        e 0 92 43 7f -30
        e 96 92 43 00 -56
        e 0 92 3e 7f -44
        e 0 92 39 7f -43
        e 0 92 41 7f -37
        e 0 92 26 7f -26
        e 0 92 32 7f -24
        e 192 92 41 00 -6
        e 0 92 26 00 28
        e 0 92 45 7f -25
        e 96 92 3e 00 34
        e 0 92 39 00 1
        e 0 92 32 00 -26
        e 96 92 45 00 -2
        e 0 92 3c 7f -34
        e 0 92 40 7f -32
        e 0 92 30 7f -16
        e 0 92 24 7f -16
        e 0 92 43 7f -6
        e 96 92 3c 00 45
        e 0 92 40 00 33
        e 0 92 30 00 -55
        e 0 92 24 00 -44
        e 0 92 3e 7f 45
        e 0 92 39 7f 47
        e 96 92 43 00 -8
        e 0 92 2d 7f -20
        e 0 92 21 7f -14
        e 0 92 45 7f -3
        e 96 92 3e 00 46
        e 0 92 39 00 -18
        e 0 92 2d 00 -45
        e 0 92 21 00 -30
        e 96 92 45 00 -22
        e 0 92 29 7f -22
        e 0 92 1d 7f -21
        e 0 92 41 7f -11
        e 0 92 39 7f -2
        e 0 92 3c 7f -1
        e 96 92 1d 00 44
        e 96 92 29 00 -45
        e 96 92 39 00 28
        e 96 92 41 00 -27
        e 0 92 3c 00 -8
        e 0 92 3a 7f -45
        e 0 92 37 7f -43
        e 0 92 40 7f -26
        e 0 92 30 7f -22
        e 0 92 24 7f -16
        e 96 92 3a 00 -7
        e 0 92 37 00 -19
        e 96 92 40 00 32
        e 96 92 30 00 -12
        e 0 92 24 00 19
        e 0 92 3a 7f -45
        e 0 92 40 7f -45
        e 0 92 43 7f -45
        e 96 92 3a 00 -41
        e 0 92 40 00 -41
        e 0 92 43 00 -41
        e 0 92 35 7f -34
        e 0 92 41 7f -32
        e 0 92 29 7f -31
        e 0 92 39 7f -30
        e 0 92 3c 7f -28
        e 96 92 35 00 27
        e 0 92 29 00 26
        e 0 92 39 00 -41
        e 0 92 3c 00 -14
        e 96 92 30 7f -22
        e 0 92 43 7f -18
        e 0 92 24 7f -17
        e 96 92 43 00 -62
        e 0 92 45 7f -22
        e 96 92 41 00 -14
        e 0 92 30 00 -48
        e 0 92 24 00 -41
        e 0 92 45 00 -67
        e 0 92 46 7f -36
        e 0 92 26 7f -11
        e 0 92 32 7f -11
        e 96 92 46 00 -69
        e 0 92 32 00 44
        e 0 92 48 7f -42
        e 96 92 26 00 -40
        e 0 92 48 00 -83
        e 0 92 4a 7f -48
        e 0 92 28 7f -20
        e 0 92 34 7f -20
        e 0 92 4c 7f 45
        e 96 92 4a 00 -91
        e 0 92 4c 00 12
        e 0 92 3c 7f -20
        e 0 92 45 7f 45
        e 0 92 41 7f 46
        e 96 92 28 00 -44
        e 0 92 34 00 -48
        e 0 92 3c 00 -56
        e 0 92 4d 7f -41
        e 0 92 35 7f -18
        e 0 92 29 7f -17
        e 288 92 45 00 26
        e 0 92 41 00 -22
        e 0 92 4d 00 18
        e 0 92 35 00 -3
        e 0 92 29 00 -21
        e 96 92 4d 7f -40
        e 0 92 32 7f -39
        e 0 92 26 7f -34
        e 0 92 41 7f -28
        e 0 92 3e 7f -25
        e 0 92 39 7f -22
        e 96 92 32 00 16
        e 0 92 26 00 13
        e 96 92 4d 00 32
        e 0 92 41 00 -38
        e 0 92 3e 00 7
        e 0 92 39 00 15
        e 0 92 3c 7f 45
        e 96 92 3c 00 1
        e 0 92 24 7f -30
        e 0 92 30 7f -26
        e 0 92 48 7f -9
        e 0 92 3e 7f 44
        e 0 92 41 7f 46
        e 96 92 24 00 -72
        e 0 92 30 00 -80
        e 0 92 48 00 -52
        e 0 92 3a 7f -48
        e 0 92 2e 7f -37
        e 0 92 22 7f -37
        e 0 92 4d 7f -25
        e 192 92 3e 00 28
        e 0 92 3a 00 34
        e 96 92 41 00 3
        e 0 92 2e 00 -11
        e 0 92 22 00 40
        e 0 92 4d 00 7
        e 96 92 4d 7f -45
        e 0 92 3c 7f -39
        e 0 92 35 7f -37
        e 0 92 29 7f -35
        e 0 92 39 7f -34
        e 0 92 41 7f -13
        e 96 92 4d 00 9
        e 0 92 41 00 -3
        e 0 92 4c 7f -10
        e 0 92 40 7f 13
        e 96 92 39 00 45
        e 0 92 4c 00 -31
        e 0 92 40 00 -5
        e 0 92 4d 7f 4
        e 0 92 41 7f 36
        e 96 92 3c 00 -43
        e 0 92 35 00 -3
        e 0 92 29 00 -5
        e 0 92 4d 00 8
        e 0 92 41 00 31
        e 0 92 4f 7f 45
        e 0 92 30 7f 47
        e 96 92 24 7f -48
        e 0 92 43 7f -26
        e 0 92 40 7f -10
        e 0 92 3c 7f
        e 96 92 30 00 -38
        e 0 92 24 00 -21
        e 96 92 37 7f -36
        e 0 92 2b 7f -35
        e 96 92 37 00 -51
        e 0 92 2b 00 -53
        e 96 92 34 7f -39
        e 0 92 28 7f -38
        e 96 92 40 00 -14
        e 0 92 3c 00 -28
        e 0 92 34 00 -52
        e 0 92 28 00 -40
        e 96 92 4f 00 -38
        e 0 92 43 00 -6
        e 0 92 30 7f -38
        e 0 92 24 7f -36
        e 0 92 51 7f -30
        e 0 92 45 7f -22
        e 0 92 40 7f -21
        e 0 92 3c 7f -17
        e 96 92 30 00 -24
        e 0 92 24 00 1
        e 0 92 51 00 33
        e 0 92 40 00 -14
        e 0 92 3c 00 -21
        e 96 92 45 00 -35
        e 0 92 4d 7f -36
        e 0 92 41 7f -27
        e 0 92 35 7f -22
        e 0 92 29 7f -20
        e 0 92 3c 7f -19
        e 0 92 39 7f -16
        e 192 92 4d 00 45
        e 0 92 35 00 -9
        e 0 92 29 00 -12
        e 0 92 39 00 47
        e 96 92 41 00 6
        e 0 92 3c 00 -34
        e 96 92 45 7f 8
        e 0 92 51 7f 9
        e 192 92 45 00 -32
        e 0 92 51 00 -20
        e 0 92 46 7f -17
        e 0 92 52 7f -15
        e 192 92 46 00 -23
        e 0 92 52 00 35
        e 0 92 35 7f -16
        e 0 92 41 7f -14
        e 0 92 29 7f -12
        e 0 92 45 7f -12
        e 0 92 3c 7f -6
        e 0 92 48 7f 3
        e 0 92 54 7f 15
        e 288 92 35 00 6
        e 0 92 41 00 35
        e 0 92 29 00 8
        e 0 92 45 00 46
        e 0 92 3c 00 12
        e 0 92 48 00 38
        e 96 92 54 00 -32
        e 0 92 51 7f -27
        e 0 92 45 7f -21
        e 0 92 39 7f -10
        e 0 92 2d 7f -10
        e 0 92 3d 7f 4
        e 288 92 51 00 6
        e 0 92 45 00 -9
        e 0 92 39 00 -13
        e 0 92 2d 00 -1
        e 0 92 3d 00 44
        e 0 92 43 7f -28
        e 0 92 4f 7f -19
        e 96 92 43 00 -16
        e 0 92 4f 00 -54
        e 0 92 41 7f -29
        e 0 92 4d 7f -24
        e 0 92 29 7f -23
        e 0 92 35 7f -22
        e 0 92 3e 7f -13
        e 0 92 39 7f -7
        e 192 92 41 00 -8
        e 0 92 4d 00 -6
        e 0 92 45 7f -41
        e 0 92 51 7f -28
        e 96 92 29 00 7
        e 0 92 35 00 10
        e 0 92 3e 00 3
        e 0 92 39 00 -34
        e 0 92 45 00 -8
        e 0 92 51 00 22
        e 0 92 43 7f 47
        e 96 92 40 7f -44
        e 0 92 4f 7f -41
        e 0 92 3c 7f -40
        e 0 92 24 7f -18
        e 0 92 30 7f -17
        e 96 92 43 00 20
        e 0 92 40 00 -31
        e 0 92 4f 00 18
        e 0 92 3c 00 -25
        e 0 92 24 00 39
        e 0 92 30 00 32
        e 0 92 45 7f 33
        e 0 92 51 7f 45
        e 96 92 39 7f -42
        e 0 92 3e 7f -40
        e 0 92 2d 7f -28
        e 0 92 21 7f -24
        e 96 92 39 00 -31
        e 0 92 3e 00 -27
        e 0 92 2d 00 40
        e 0 92 21 00 39
        e 96 92 45 00 -46
        e 0 92 51 00 -42
        e 0 92 39 7f -42
        e 0 92 3c 7f -39
        e 0 92 41 7f -36
        e 0 92 4d 7f -24
        e 0 92 29 7f -17
        e 0 92 1d 7f -14
        e 192 92 39 00 24
        e 0 92 3c 00 34
        e 96 92 29 00 14
        e 0 92 1d 00 17
        e 96 92 41 00 -9
        e 0 92 4d 00 -15
        e 0 92 4c 7f -17
        e 0 92 40 7f -16
        e 0 92 30 7f -16
        e 0 92 24 7f -13
        e 0 92 3a 7f -5
        e 0 92 37 7f -4
        e 192 92 4c 00 37
        e 0 92 3a 00 4
        e 0 92 37 00 -3
        e 96 92 40 00 -8
        e 0 92 30 00 18
        e 0 92 24 00 32
        e 0 92 43 7f 9
        e 0 92 4f 7f 11
        e 0 92 3a 7f 17
        e 0 92 40 7f 22
        e 96 92 43 00 15
        e 0 92 4f 00 12
        e 0 92 3a 00 -10
        e 0 92 40 00 21
        e 0 92 4d 7f 39
        e 0 92 29 7f 41
        e 0 92 35 7f 44
        e 0 92 41 7f 46
        e 96 92 39 7f -47
        e 0 92 3c 7f -46
        e 288 92 4d 00 16
        e 0 92 29 00 37
        e 0 92 35 00 40
        e 0 92 41 00 43
        e 0 92 39 00 41
        e 0 92 3c 00 23
        E 384 b0 7b 00
        GUID {3BD01C5B-8263-3C4D-849F-8D50834328CF}
        IGNTEMPO 0 120 4 4
        SRCCOLOR 770
        VELLANE -1 108 6
        CFGEDITVIEW 0 13.62963 43 12 0 -1 0 0 0 0.5
        KEYSNAP 0
        TRACKSEL 226
        EVTFILTER 0 -1 -1 -1 -1 0 0 0 0 -1 -1 -1 -1 0 -1 0 -1 -1
        CFGEDIT 1 1 0 0 0 0 1 0 1 1 1 0.25 0 187 878 778 0 0 2 3 0 0 0 0 0 -1 0 0 1 64
      >
      TAKE
      NAME "exten synt - National_Anthems_-_Egypt.mid"
      TAKEVOLPAN 0 1 -1
      SOFFS 16 32
      PLAYRATE 1 1 0 -1 0 0.0025
      CHANMODE 0
      GUID {D32F750E-A1BA-524B-B927-221729C1CBDD}
      <SOURCE MIDI
        HASDATA 1 384 QN
        POOLEDEVTS {6059B4ED-D918-A849-89A9-BDAABE17F0C8}
        <X 0 0 0 0 3 "exten synt"
          /wNleHRlbiBzeW50
        >
        e 291 92 3c 7f
        e 49 92 3c 00
        e 40 92 41 7f
        e 23 92 39 7f
        e 0 92 3c 7f
        e 18 92 29 7f
        e 6 92 35 7f
        e 181 92 39 00
        e 4 92 3c 00
        e 73 92 41 00
        e 43 92 29 00
        e 10 92 35 00
        e 31 92 39 7f
        e 1 92 3e 7f
        e 5 92 41 7f
        e 15 92 26 7f
        e 5 92 32 7f
        e 189 92 3e 00
        e 1 92 39 00
        e 3 92 41 00
        e 48 92 3c 7f
        e 52 92 3c 00
        e 5 92 32 00
        e 25 92 26 00
        e 12 92 41 7f
        e 20 92 3a 7f
        e 1 92 3e 7f
        e 4 92 2e 7f
        e 3 92 22 7f
        e 181 92 3a 00
        e 8 92 3e 00
        e 83 92 2e 00
        e 19 92 22 00
        e 21 92 41 00
        e 43 92 29 7f
        e 0 92 35 7f
        e 5 92 41 7f
        e 7 92 39 7f
        e 1 92 3c 7f
        e 123 92 40 7f
        e 2 92 41 00
        e 92 92 39 00
        e 4 92 3c 00
        e 2 92 40 00
        e 36 92 41 7f
        e 50 92 29 00
        e 0 92 35 00
        e 57 92 41 00
        e 16 92 24 7f
        e 0 92 30 7f
        e 4 92 3c 7f
        e 0 92 40 7f
        e 11 92 43 7f
        e 67 92 24 00
        e 6 92 30 00
        e 86 92 2b 7f
        e 3 92 37 7f
        e 88 92 2b 00
        e 7 92 37 00
        e 95 92 28 7f
        e 5 92 34 7f
        e 81 92 28 00
        e 0 92 34 00
        e 6 92 3c 00
        e 14 92 40 00
        e 85 92 24 7f
        e 3 92 30 7f
        e 23 92 3c 7f
        e 1 92 40 7f
        e 1 92 45 7f
        e 13 92 43 00
        e 28 92 30 00
        e 23 92 24 00
        e 57 92 3c 00
        e 23 92 40 00
        e 31 92 39 7f
        e 1 92 3c 7f
        e 2 92 35 7f
        e 0 92 29 7f
        e 1 92 45 00
        e 5 92 41 7f
        e 137 92 29 00
        e 7 92 35 00
        e 74 92 39 00
        e 6 92 3c 00
        e 64 92 41 00
        e 107 92 45 7f
        e 169 92 45 00
        e 6 92 46 7f
        e 191 92 35 7f
        e 2 92 29 7f
        e 3 92 41 7f
        e 2 92 45 7f
        e 3 92 3c 7f
        e 8 92 48 7f
        e 4 92 46 00
        e 282 92 35 00
        e 4 92 29 00
        e 36 92 48 00
        e 3 92 3c 00
        e 15 92 41 00
        e 2 92 45 00
        e 0 92 45 7f
        e 1 92 45 00
        e 21 92 2d 7f
        e 4 92 39 7f
        e 2 92 3d 7f
        e 274 92 43 7f
        e 30 92 3d 00
        e 9 92 2d 00
        e 1 92 39 00
        e 37 92 3e 7f
        e 0 92 41 7f
        e 3 92 29 7f
        e 1 92 39 7f
        e 6 92 41 00
        e 0 92 41 7f
        e 1 92 35 7f
        e 13 92 43 00
        e 182 92 45 7f
        e 33 92 41 00
        e 71 92 3e 00
        e 9 92 29 00
        e 17 92 39 00
        e 1 92 35 00
        e 0 92 45 00
        e 31 92 43 7f
        e 15 92 40 7f
        e 9 92 3c 7f
        e 10 92 24 7f
        e 1 92 30 7f
        e 152 92 30 00
        e 9 92 24 00
        e 5 92 45 7f
        e 6 92 3e 7f
        e 5 92 40 00
        e 6 92 43 00
        e 1 92 39 7f
        e 5 92 2d 7f
        e 2 92 21 7f
        e 5 92 3c 00
        e 113 92 39 00
        e 37 92 3e 00
        e 1 92 21 00
        e 6 92 2d 00
        e 11 92 3c 7f
        e 2 92 39 7f
        e 5 92 41 7f
        e 5 92 45 00
        e 9 92 29 7f
        e 7 92 1d 7f
        e 304 92 29 00
        e 2 92 39 00
        e 12 92 1d 00
        e 8 92 3c 00
        e 30 92 40 7f
        e 11 92 24 7f
        e 1 92 41 00
        e 0 92 3a 7f
        e 0 92 30 7f
        e 7 92 37 7f
        e 158 92 37 00
        e 1 92 3a 00
        e 123 92 40 00
        e 0 92 43 7f
        e 22 92 40 7f
        e 3 92 3a 7f
        e 30 92 30 00
        e 10 92 24 00
        e 2 92 43 00
        e 21 92 3a 00
        e 1 92 40 00
        e 2 92 35 7f
        e 1 92 41 7f
        e 2 92 29 7f
        e 14 92 3c 7f
        e 3 92 39 7f
        e 384 92 29 00
        e 5 92 35 00
        e 11 92 3c 00
        e 6 92 39 00
        e 38 92 41 00
        e 254 92 3c 7f
        e 76 92 3c 00
        e 13 92 3c 7f
        e 2 92 39 7f
        e 6 92 41 7f
        e 2 92 3c 00
        e 0 92 3c 7f
        e 4 92 35 7f
        e 1 92 29 7f
        e 16 92 3c 00
        e 278 92 39 00
        e 35 92 41 00
        e 17 92 29 00
        e 9 92 35 00
        e 8 92 41 7f
        e 0 92 39 7f
        e 1 92 3e 7f
        e 23 92 32 7f
        e 1 92 26 7f
        e 216 92 39 00
        e 44 92 3e 00
        e 3 92 3c 7f
        e 5 92 41 00
        e 47 92 26 00
        e 10 92 32 00
        e 10 92 3c 00
        e 12 92 41 7f
        e 6 92 22 7f
        e 4 92 2e 7f
        e 10 92 3a 7f
        e 1 92 3e 7f
        e 307 92 3a 00
        e 13 92 2e 00
        e 6 92 3e 00
        e 9 92 41 00
        e 5 92 22 00
        e 27 92 39 7f
        e 3 92 3c 7f
        e 0 92 35 7f
        e 3 92 29 7f
        e 1 92 41 7f
        e 123 92 40 7f
        e 17 92 41 00
        e 103 92 40 00
        e 2 92 41 7f
        e 69 92 35 00
        e 2 92 29 00
        e 11 92 3c 00
        e 4 92 39 00
        e 22 92 41 00
        e 12 92 43 7f
        e 9 92 24 7f
        e 1 92 30 7f
        e 10 92 3c 7f
        e 1 92 40 7f
        e 149 92 30 00
        e 6 92 24 00
        e 22 92 2b 7f
        e 5 92 37 7f
        e 105 92 2b 00
        e 7 92 37 00
        e 61 92 28 7f
        e 1 92 34 7f
        e 103 92 3c 00
        e 21 92 40 00
        e 0 92 28 00
        e 6 92 34 00
        e 61 92 30 7f
        e 5 92 45 7f
        e 0 92 24 7f
        e 13 92 40 7f
        e 2 92 43 00
        e 1 92 3c 7f
        e 114 92 30 00
        e 15 92 24 00
        e 34 92 3c 00
        e 6 92 29 7f
        e 1 92 35 7f
        e 2 92 41 7f
        e 13 92 40 00
        e 3 92 45 00
        e 15 92 3c 7f
        e 1 92 39 7f
        e 210 92 29 00
        e 10 92 35 00
        e 0 92 41 00
        e 69 92 3c 00
        e 4 92 39 00
        e 84 92 45 7f
        e 156 92 46 7f
        e 24 92 45 00
        e 184 92 45 7f
        e 1 92 46 00
        e 0 92 3c 7f
        e 0 92 41 7f
        e 16 92 35 7f
        e 6 92 29 7f
        e 7 92 48 7f
        e 275 92 35 00
        e 13 92 29 00
        e 35 92 45 00
        e 9 92 3c 00
        e 12 92 41 00
        e 10 92 3d 7f
        e 2 92 39 7f
        e 3 92 2d 7f
        e 2 92 45 7f
        e 46 92 48 00
        e 170 92 2d 00
        e 73 92 39 00
        e 6 92 43 7f
        e 23 92 45 00
        e 47 92 3d 00
        e 12 92 3e 7f
        e 4 92 29 7f
        e 0 92 35 7f
        e 0 92 39 7f
        e 8 92 41 7f
        e 9 92 43 00
        e 188 92 45 7f
        e 30 92 41 00
        e 89 92 29 00
        e 0 92 35 00
        e 0 92 39 00
        e 24 92 3e 00
        e 12 92 40 7f
        e 2 92 45 00
        e 0 92 24 7f
        e 0 92 30 7f
        e 0 92 3c 7f
        e 26 92 43 7f
        e 173 92 45 7f
        e 20 92 43 00
        e 6 92 3e 7f
        e 3 92 24 00
        e 0 92 30 00
        e 0 92 3c 00
        e 1 92 21 7f
        e 0 92 2d 7f
        e 0 92 39 7f
        e 15 92 40 00
        e 122 92 21 00
        e 0 92 2d 00
        e 0 92 39 00
        e 28 92 3e 00
        e 30 92 3c 7f
        e 3 92 1d 7f
        e 0 92 29 7f
        e 0 92 39 7f
        e 11 92 41 7f
        e 4 92 45 00
        e 259 92 1d 00
        e 0 92 29 00
        e 0 92 39 00
        e 65 92 41 00
        e 10 92 3c 00
        e 21 92 3a 7f
        e 1 92 24 7f
        e 0 92 30 7f
        e 0 92 37 7f
        e 4 92 40 7f
        e 200 92 3a 00
        e 10 92 24 00
        e 0 92 30 00
        e 0 92 37 00
        e 75 92 40 00
        e 0 92 43 7f
        e 9 92 3a 7f
        e 4 92 40 7f
        e 79 92 35 7f
        e 3 92 29 7f
        e 1 92 39 7f
        e 3 92 3c 7f
        e 6 92 40 00
        e 10 92 41 7f
        e 1 92 43 00
        e 4 92 3a 00
        e 189 92 29 00
        e 9 92 35 00
        e 50 92 39 00
        e 25 92 3c 00
        e 22 92 41 00
        e 68 92 45 7f
        e 155 92 45 00
        e 145 92 45 7f
        e 50 92 45 00
        e 21 92 45 7f
        e 5 92 35 7f
        e 1 92 29 7f
        e 3 92 30 7f
        e 53 92 30 00
        e 6 92 29 00
        e 8 92 35 00
        e 89 92 41 7f
        e 58 92 41 00
        e 33 92 3e 7f
        e 71 92 3e 00
        e 46 92 3c 7f
        e 29 92 43 7f
        e 4 92 35 7f
        e 1 92 29 7f
        e 2 92 30 7f
        e 2 92 45 00
        e 44 92 30 00
        e 11 92 35 00
        e 1 92 29 00
        e 100 92 41 7f
        e 13 92 43 00
        e 117 92 3c 00
        e 56 92 41 00
        e 5 92 30 7f
        e 2 92 24 7f
        e 9 92 43 7f
        e 1 92 46 7f
        e 44 92 30 00
        e 3 92 24 00
        e 315 92 46 00
        e 10 92 45 7f
        e 1 92 43 00
        e 5 92 29 7f
        e 1 92 35 7f
        e 2 92 30 7f
        e 4 92 3e 7f
        e 42 92 30 00
        e 12 92 29 00
        e 0 92 35 00
        e 249 92 43 7f
        e 21 92 45 00
        e 26 92 43 00
        e 32 92 43 7f
        e 2 92 30 7f
        e 6 92 24 7f
        e 41 92 3e 00
        e 1 92 30 00
        e 10 92 24 00
        e 175 92 37 7f
        e 2 92 3c 7f
        e 6 92 2b 7f
        e 33 92 2b 00
        e 7 92 37 00
        e 0 92 3c 00
        e 41 92 40 7f
        e 45 92 40 00
        e 23 92 28 7f
        e 2 92 34 7f
        e 15 92 43 00
        e 0 92 43 7f
        e 30 92 28 00
        e 4 92 34 00
        e 15 92 43 00
        e 48 92 40 7f
        e 52 92 40 00
        e 24 92 43 7f
        e 6 92 24 7f
        e 2 92 30 7f
        e 41 92 43 00
        e 5 92 24 00
        e 0 92 30 00
        e 43 92 48 7f
        e 65 92 48 00
        e 28 92 43 7f
        e 7 92 37 7f
        e 2 92 2b 7f
        e 32 92 43 00
        e 10 92 37 00
        e 4 92 2b 00
        e 314 92 46 7f
        e 8 92 35 7f
        e 11 92 29 7f
        e 198 92 29 00
        e 11 92 46 00
        e 22 92 35 00
        e 26 92 40 7f
        e 21 92 46 7f
        e 12 92 32 7f
        e 10 92 26 7f
        e 24 92 46 00
        e 16 92 40 00
        e 14 92 26 00
        e 3 92 3a 7f
        e 3 92 46 7f
        e 1 92 3e 7f
        e 3 92 32 00
        e 18 92 22 7f
        e 4 92 2e 7f
        e 129 92 2e 00
        e 5 92 22 00
        e 59 92 3a 00
        e 66 92 3e 00
        e 1 92 3c 7f
        e 71 92 3c 00
        e 25 92 3e 7f
        e 8 92 45 7f
        e 9 92 35 7f
        e 3 92 30 7f
        e 2 92 29 7f
        e 11 92 46 00
        e 55 92 30 00
        e 7 92 35 00
        e 0 92 29 00
        e 113 92 43 7f
        e 11 92 45 00
        e 175 92 3e 00
        e 12 92 2b 7f
        e 1 92 37 7f
        e 2 92 48 7f
        e 1 92 30 7f
        e 12 92 45 7f
        e 17 92 43 00
        e 26 92 30 00
        e 2 92 2b 00
        e 4 92 37 00
        e 317 92 45 00
        e 10 92 46 7f
        e 4 92 48 00
        e 4 92 40 7f
        e 6 92 2b 7f
        e 1 92 37 7f
        e 3 92 30 7f
        e 50 92 30 00
        e 8 92 2b 00
        e 17 92 37 00
        e 207 92 46 00
        e 6 92 45 7f
        e 60 92 45 00
        e 26 92 45 7f
        e 0 92 30 7f
        e 0 92 29 7f
        e 0 92 35 7f
        e 16 92 40 00
        e 44 92 35 00
        e 18 92 30 00
        e 8 92 29 00
        e 106 92 30 7f
        e 0 92 3c 7f
        e 52 92 3c 00
        e 1 92 30 00
        e 43 92 41 7f
        e 53 92 41 00
        e 43 92 45 00
        e 0 92 45 7f
        e 0 92 2d 7f
        e 0 92 39 7f
        e 43 92 39 00
        e 4 92 2d 00
        e 19 92 45 00
        e 30 92 41 7f
        e 57 92 41 00
        e 39 92 45 7f
        e 0 92 35 7f
        e 0 92 29 7f
        e 43 92 35 00
        e 6 92 29 00
        e 8 92 45 00
        e 39 92 4a 7f
        e 70 92 4a 00
        e 26 92 3c 7f
        e 0 92 35 7f
        e 0 92 30 7f
        e 0 92 48 7f
        e 77 92 35 00
        e 7 92 3c 00
        e 6 92 30 00
        e 135 92 48 00
        e 162 92 45 7f
        e 207 92 45 00
        e 97 92 45 7f
        e 45 92 45 00
        e 31 92 35 7f
        e 2 92 30 7f
        e 2 92 29 7f
        e 2 92 45 7f
        e 69 92 30 00
        e 11 92 35 00
        e 1 92 29 00
        e 60 92 41 7f
        e 77 92 41 00
        e 31 92 3e 7f
        e 105 92 3e 00
        e 4 92 43 7f
        e 18 92 3c 7f
        e 4 92 45 00
        e 10 92 35 7f
        e 10 92 30 7f
        e 1 92 29 7f
        e 54 92 35 00
        e 3 92 30 00
        e 20 92 29 00
        e 68 92 41 7f
        e 11 92 43 00
        e 171 92 3c 00
        e 19 92 46 7f
        e 0 92 24 7f
        e 3 92 30 7f
        e 6 92 41 00
        e 62 92 30 00
        e 11 92 24 00
        e 114 92 43 7f
        e 179 92 3e 7f
        e 4 92 45 7f
        e 7 92 43 00
        e 8 92 29 7f
        e 2 92 35 7f
        e 2 92 30 7f
        e 1 92 46 00
        e 51 92 30 00
        e 9 92 35 00
        e 1 92 29 00
        e 217 92 45 00
        e 7 92 43 7f
        e 59 92 3e 00
        e 1 92 43 00
        e 35 92 43 7f
        e 8 92 37 7f
        e 8 92 2b 7f
        e 0 92 30 7f
        e 31 92 30 00
        e 13 92 37 00
        e 8 92 2b 00
        e 127 92 2b 7f
        e 1 92 30 7f
        e 3 92 37 7f
        e 11 92 3c 7f
        e 32 92 37 00
        e 4 92 30 00
        e 5 92 2b 00
        e 0 92 3c 00
        e 37 92 40 7f
        e 58 92 40 00
        e 34 92 43 00
        e 0 92 43 7f
        e 11 92 34 7f
        e 1 92 28 7f
        e 43 92 34 00
        e 4 92 28 00
        e 4 92 43 00
        e 120 92 45 7f
        e 8 92 40 7f
        e 9 92 37 7f
        e 2 92 30 7f
        e 1 92 2b 7f
        e 34 92 40 00
        e 6 92 37 00
        e 8 92 30 00
        e 4 92 43 7f
        e 1 92 2b 00
        e 15 92 46 7f
        e 4 92 45 00
        e 34 92 43 00
        e 61 92 46 00
        e 5 92 3c 7f
        e 0 92 41 7f
        e 0 92 48 7f
        e 12 92 29 7f
        e 5 92 35 7f
        e 146 92 35 00
        e 14 92 29 00
        e 92 92 3c 00
        e 0 92 41 00
        e 0 92 48 00
        e 140 92 48 7f
        e 171 92 48 00
        e 99 92 48 7f
        e 51 92 48 00
        e 28 92 41 7f
        e 4 92 3c 7f
        e 4 92 48 7f
        e 25 92 30 7f
        e 2 92 29 7f
        e 116 92 30 00
        e 2 92 29 00
        e 165 92 3c 00
        e 43 92 41 00
        e 4 92 3d 7f
        e 18 92 2d 7f
        e 3 92 21 7f
        e 2 92 45 7f
        e 20 92 48 00
        e 82 92 2d 00
        e 24 92 21 00
        e 129 92 45 00
        e 27 92 43 7f
        e 53 92 3d 00
        e 17 92 43 00
        e 12 92 3e 7f
        e 1 92 39 7f
        e 6 92 41 7f
        e 11 92 26 7f
        e 2 92 32 7f
        e 191 92 45 7f
        e 19 92 41 00
        e 34 92 26 00
        e 42 92 32 00
        e 27 92 39 00
        e 33 92 3e 00
        e 28 92 3c 7f
        e 2 92 40 7f
        e 16 92 30 7f
        e 0 92 24 7f
        e 10 92 43 7f
        e 4 92 45 00
        e 43 92 30 00
        e 11 92 24 00
        e 77 92 40 00
        e 12 92 3c 00
        e 0 92 3e 7f
        e 2 92 39 7f
        e 29 92 2d 7f
        e 6 92 21 7f
        e 6 92 43 00
        e 5 92 45 7f
        e 54 92 2d 00
        e 15 92 21 00
        e 12 92 39 00
        e 64 92 3e 00
        e 28 92 45 00
        e 0 92 29 7f
        e 1 92 1d 7f
        e 10 92 41 7f
        e 9 92 39 7f
        e 1 92 3c 7f
        e 141 92 1d 00
        e 7 92 29 00
        e 169 92 39 00
        e 23 92 3a 7f
        e 2 92 37 7f
        e 16 92 41 00
        e 1 92 40 7f
        e 4 92 30 7f
        e 6 92 24 7f
        e 8 92 3c 00
        e 85 92 37 00
        e 12 92 3a 00
        e 135 92 40 00
        e 19 92 3a 7f
        e 0 92 40 7f
        e 0 92 43 7f
        e 33 92 30 00
        e 31 92 24 00
        e 36 92 3a 00
        e 0 92 40 00
        e 0 92 43 00
        e 7 92 35 7f
        e 2 92 41 7f
        e 1 92 29 7f
        e 1 92 39 7f
        e 2 92 3c 7f
        e 83 92 39 00
        e 27 92 3c 00
        e 40 92 29 00
        e 1 92 35 00
        e 47 92 30 7f
        e 4 92 43 7f
        e 1 92 24 7f
        e 51 92 43 00
        e 40 92 45 7f
        e 51 92 45 00
        e 19 92 30 00
        e 7 92 24 00
        e 5 92 46 7f
        e 22 92 41 00
        e 3 92 26 7f
        e 0 92 32 7f
        e 38 92 46 00
        e 27 92 48 7f
        e 55 92 48 00
        e 31 92 32 00
        e 4 92 4a 7f
        e 8 92 26 00
        e 20 92 28 7f
        e 0 92 34 7f
        e 25 92 4a 00
        e 40 92 4c 7f
        e 31 92 3c 7f
        e 32 92 4c 00
        e 28 92 3c 00
        e 5 92 45 7f
        e 1 92 41 7f
        e 2 92 34 00
        e 4 92 28 00
        e 3 92 4d 7f
        e 23 92 35 7f
        e 1 92 29 7f
        e 283 92 41 00
        e 1 92 29 00
        e 18 92 35 00
        e 21 92 4d 00
        e 8 92 45 00
        e 30 92 4d 7f
        e 1 92 32 7f
        e 5 92 26 7f
        e 6 92 41 7f
        e 3 92 3e 7f
        e 3 92 39 7f
        e 131 92 26 00
        e 3 92 32 00
        e 42 92 41 00
        e 45 92 3e 00
        e 8 92 39 00
        e 17 92 4d 00
        e 13 92 3c 7f
        e 21 92 24 7f
        e 4 92 30 7f
        e 17 92 48 7f
        e 10 92 3c 00
        e 15 92 30 00
        e 8 92 24 00
        e 20 92 48 00
        e 0 92 3e 7f
        e 2 92 41 7f
        e 2 92 3a 7f
        e 11 92 2e 7f
        e 0 92 22 7f
        e 12 92 4d 7f
        e 245 92 3e 00
        e 6 92 3a 00
        e 51 92 2e 00
        e 14 92 41 00
        e 4 92 4d 00
        e 33 92 22 00
        e 11 92 4d 7f
        e 6 92 3c 7f
        e 2 92 35 7f
        e 2 92 29 7f
        e 1 92 39 7f
        e 21 92 41 7f
        e 99 92 4c 7f
        e 7 92 41 00
        e 12 92 4d 00
        e 4 92 40 7f
        e 52 92 4c 00
        e 26 92 40 00
        e 9 92 4d 7f
        e 32 92 41 7f
        e 9 92 39 00
        e 8 92 3c 00
        e 38 92 29 00
        e 2 92 35 00
        e 11 92 4d 00
        e 23 92 41 00
        e 14 92 4f 7f
        e 2 92 30 7f
        e 1 92 24 7f
        e 22 92 43 7f
        e 16 92 40 7f
        e 10 92 3c 7f
        e 58 92 30 00
        e 17 92 24 00
        e 81 92 37 7f
        e 1 92 2b 7f
        e 78 92 2b 00
        e 2 92 37 00
        e 108 92 34 7f
        e 1 92 28 7f
        e 82 92 34 00
        e 12 92 28 00
        e 12 92 3c 00
        e 14 92 40 00
        e 72 92 4f 00
        e 0 92 30 7f
        e 2 92 24 7f
        e 6 92 51 7f
        e 8 92 45 7f
        e 1 92 40 7f
        e 4 92 3c 7f
        e 11 92 43 00
        e 78 92 30 00
        e 3 92 3c 00
        e 7 92 40 00
        e 15 92 24 00
        e 32 92 51 00
        e 27 92 4d 7f
        e 1 92 45 00
        e 8 92 41 7f
        e 5 92 35 7f
        e 2 92 29 7f
        e 1 92 3c 7f
        e 3 92 39 7f
        e 196 92 29 00
        e 3 92 35 00
        e 54 92 4d 00
        e 2 92 39 00
        e 15 92 3c 00
        e 40 92 41 00
        e 98 92 45 7f
        e 1 92 51 7f
        e 151 92 45 00
        e 12 92 51 00
        e 3 92 46 7f
        e 2 92 52 7f
        e 184 92 46 00
        e 7 92 35 7f
        e 2 92 41 7f
        e 2 92 29 7f
        e 0 92 45 7f
        e 6 92 3c 7f
        e 9 92 48 7f
        e 12 92 54 7f
        e 20 92 52 00
        e 259 92 35 00
        e 2 92 29 00
        e 4 92 3c 00
        e 23 92 41 00
        e 3 92 48 00
        e 8 92 45 00
        e 18 92 54 00
        e 5 92 51 7f
        e 6 92 45 7f
        e 11 92 39 7f
        e 0 92 2d 7f
        e 14 92 3d 7f
        e 256 92 43 7f
        e 9 92 4f 7f
        e 6 92 39 00
        e 4 92 45 00
        e 8 92 2d 00
        e 7 92 51 00
        e 36 92 4f 00
        e 2 92 3d 00
        e 23 92 41 7f
        e 5 92 4d 7f
        e 1 92 29 7f
        e 1 92 35 7f
        e 6 92 43 00
        e 3 92 3e 7f
        e 6 92 39 7f
        e 158 92 45 7f
        e 13 92 51 7f
        e 20 92 41 00
        e 2 92 4d 00
        e 68 92 39 00
        e 26 92 45 00
        e 11 92 3e 00
        e 4 92 29 00
        e 3 92 35 00
        e 12 92 51 00
        e 25 92 43 7f
        e 5 92 40 7f
        e 3 92 4f 7f
        e 1 92 3c 7f
        e 22 92 24 7f
        e 1 92 30 7f
        e 82 92 40 00
        e 6 92 3c 00
        e 43 92 4f 00
        e 2 92 43 00
        e 12 92 30 00
        e 1 92 45 7f
        e 6 92 24 00
        e 6 92 51 7f
        e 9 92 39 7f
        e 2 92 3e 7f
        e 12 92 2d 7f
        e 4 92 21 7f
        e 89 92 39 00
        e 4 92 3e 00
        e 66 92 21 00
        e 1 92 2d 00
        e 10 92 45 00
        e 4 92 51 00
        e 0 92 39 7f
        e 3 92 3c 7f
        e 3 92 41 7f
        e 12 92 4d 7f
        e 7 92 29 7f
        e 3 92 1d 7f
        e 230 92 39 00
        e 10 92 3c 00
        e 76 92 29 00
        e 3 92 1d 00
        e 62 92 4c 7f
        e 1 92 40 7f
        e 0 92 30 7f
        e 1 92 4d 00
        e 2 92 24 7f
        e 4 92 41 00
        e 4 92 3a 7f
        e 1 92 37 7f
        e 193 92 37 00
        e 7 92 3a 00
        e 33 92 4c 00
        e 51 92 40 00
        e 17 92 43 7f
        e 2 92 4f 7f
        e 6 92 3a 7f
        e 1 92 30 00
        e 4 92 40 7f
        e 10 92 24 00
        e 54 92 3a 00
        e 22 92 4f 00
        e 3 92 43 00
        e 6 92 40 00
        e 18 92 4d 7f
        e 2 92 29 7f
        e 3 92 35 7f
        e 2 92 41 7f
        e 3 92 39 7f
        e 1 92 3c 7f
        e 350 92 4d 00
        e 7 92 3c 00
        e 14 92 29 00
        e 3 92 35 00
        e 1 92 39 00
        e 2 92 41 00
        E 341 b0 7b 00
        GUID {4679C5C2-02AA-874A-9DB1-F4C1F170892A}
        IGNTEMPO 0 120 4 4
        SRCCOLOR 592
        VELLANE -1 86 6
        CFGEDITVIEW 27030.956522 22.530612 43 12 0 0 0 0 0 0.5
        KEYSNAP 0
        TRACKSEL 226
        EVTFILTER 0 -1 -1 -1 -1 0 0 0 0 -1 -1 -1 -1 0 -1 0 -1 -1
        CFGEDIT 1 1 0 0 0 0 1 0 1 1 1 0.25 0 187 878 778 0 0 2 3 0 0 0 0 0 -1 0 0 1 64
      >
    >
  >
  <TRACK {97C14EE2-C273-C940-9D68-54C062C3CBCA}
    NAME ChipFront
    PEAKCOL 16576
    BEAT -1
    AUTOMODE 0
    VOLPAN 0.25118864315096 0 -1 -1 1
    MUTESOLO 0 0 0
    IPHASE 0
    ISBUS 0 0
    BUSCOMP 0 0
    SHOWINMIX 1 0.6667 0.5 1 0.5 0 0 0
    FREEMODE 0
    SEL 0
    REC 0 0 0 0 0 0 0
    VU 2
    TRACKHEIGHT 0 0
    INQ 0 0 0 0.5 100 0 0 100
    NCHAN 2
    FX 1
    TRACKID {97C14EE2-C273-C940-9D68-54C062C3CBCA}
    PERF 0
    AUXRECV 4 0 1 0 0 0 0 0 0 -1:U 0 -1 ''
    MIDIOUT -1
    MAINSEND 1 0
    <FXCHAIN
      SHOW 0
      LASTSEL 0
      DOCKED 0
      BYPASS 0 0 0
      <VST "VST: FabFilter Volcano 2 (SC) (FabFilter)" "FabFilter Volcano 2 (SC).vst" 0 "" 1180054068
        NDJWRu9e7f4EAAAAAQAAAAAAAAACAAAAAAAAAAQAAAAAAAAACAAAAAAAAAAEAAAAAQAAAAAAAAACAAAAAAAAAAQAAAAAAAAACAAAAAAAAADcCwAAAAAAAAAAEAA=
        776t3g3wrd4AAAA/AAAAPwAAAD8AAAA/AACAPwAAAAAAAAA/q6qqPq2+aD8AAAA/ig0yPM3MzD0AAAAAAAAAAAAAAAAAAIA/AACAP0Isdj8AAAA/bbDgPZqZGT8AAAAA
        AAAAAOev3zwAAIA/AAAAAAAAgD8AAAA/AAAAAJqZGT8AAAAAAAAAAAAAAAAAAIA/AAAAAAAAgD8AAAA/AAAAAJqZGT8AAAAAAAAAAAAAAAAAAIA/AAAAAKuqqj4ATrI+
        AAAAPwAAAADBykk/XXRRPwAAAACJiIg9AACAP6oXiD4AAAAAAAAAAAAAAAAAAAAAAACAPwAAAAAAAAA/AAAAAAAAAAAAAAAAAAAAPwAAAAAAAAAAAAAAAAAAAD8AAAAA
        AAAAAAAAAAAAAAA/AAAAAAAAAAAAAAAAAAAAPwAAAAAAAAAAAAAAAAAAAD8AAAAAAAAAAAAAAAAAAAA/AAAAAAAAAAAAAAAAAAAAPwAAAAAAAAAAAAAAAAAAAD8AAAAA
        AAAAAAAAAAAAAAA/AAAAAAAAAAAAAAAAAAAAPwAAAAAAAAAAAAAAAAAAAD8AAAAAAAAAAAAAAAAAAAA/AAAAAAAAAAAAAAAAAAAAPwAAAAAAAAAAAAAAAHwZED4AAAA/
        KKO3PQAAgD8AAAAAAAAAAImIiD3y0iU/AAAAAAAAgD8AAAAAdGjRPQAAAAAAAIA/AAAAAAAAAD8AAAAAAAAAAAAAAAAAAAA/AAAAAAAAAAAAAAAAAAAAPwAAAAAAAAAA
        AAAAAAAAAD8AAAAAAAAAAAAAAAAAAAA/AAAAAAAAAAAAAAAAAAAAPwAAAAAAAAAAAAAAAAAAAD8AAAAAAAAAAAAAAAAAAAA/AAAAAAAAAAAAAAAAAAAAPwAAAAAAAAAA
        AAAAAAAAAD8AAAAAAAAAAAAAAAAAAAA/AAAAAAAAAAAAAAAAAAAAPwAAAAAAAAAAAAAAAAAAAD8AAAAAAAAAAAAAAAAAAAA/AAAAAAAAAAAAAAAAvvR9PgAAAD8AAAA/
        AAAAPwAAAAAAAAAAiYiIPQAAAD8AAAAAAAAAAAAAAAAAAAA/AAAAAAAAAAAAAAAAAAAAPwAAAAAAAAAAAAAAAAAAAD8AAAAAAAAAAAAAAAAAAAA/AAAAAAAAAAAAAAAA
        AAAAPwAAAAAAAAAAAAAAAAAAAD8AAAAAAAAAAAAAAAAAAAA/AAAAAAAAAAAAAAAAAAAAPwAAAAAAAAAAAAAAAAAAAD8AAAAAAAAAAAAAAAAAAAA/AAAAAAAAAAAAAAAA
        AAAAPwAAAAAAAAAAAAAAAAAAAD8AAAAAAAAAAAAAAAAAAAA/AAAAAAAAAAAAAAAAAAAAPwAAAAAAAAAAAAAAAAAAAD8AAAAAAAAAAAAAAAC+9H0+AAAAPwAAAD8AAAA/
        AAAAAAAAAACJiIg9AAAAPwAAAAAAAAAAAAAAAAAAAD8AAAAAAAAAAAAAAAAAAAA/AAAAAAAAAAAAAAAAAAAAPwAAAAAAAAAAAAAAAAAAAD8AAAAAAAAAAAAAAAAAAAA/
        AAAAAAAAAAAAAAAAAAAAPwAAAAAAAAAAAAAAAAAAAD8AAAAAAAAAAAAAAAAAAAA/AAAAAAAAAAAAAAAAAAAAPwAAAAAAAAAAAAAAAAAAAD8AAAAAAAAAAAAAAAAAAAA/
        AAAAAAAAAAAAAAAAAAAAPwAAAAAAAAAAAAAAAAAAAD8AAAAAAAAAAAAAAAAAAAA/AAAAAAAAAAAAAAAAAAAAPwAAAAAAAAAAAAAAAL70fT4AAAA/AAAAPwAAAD8AAAAA
        AAAAAImIiD0AAAA/AAAAAAAAAAAAAAAAAAAAPwAAAAAAAAAAAAAAAAAAAD8AAAAAAAAAAAAAAAAAAAA/AAAAAAAAAAAAAAAAAAAAPwAAAAAAAAAAAAAAAAAAAD8AAAAA
        AAAAAAAAAAAAAAA/AAAAAAAAAAAAAAAAAAAAPwAAAAAAAAAAAAAAAAAAAD8AAAAAAAAAAAAAAAAAAAA/AAAAAAAAAAAAAAAAAAAAPwAAAAAAAAAAAAAAAAAAAD8AAAAA
        AAAAAAAAAAAAAAA/AAAAAAAAAAAAAAAAAAAAPwAAAAAAAAAAAAAAAAAAAD8AAAAAAAAAAAAAAAAAAAA/AAAAAAAAAAAAAAAAvvR9PgAAAD8AAAA/AAAAPwAAAAAAAAAA
        iYiIPQAAAD8AAAAAAAAAAAAAAAAAAAA/AAAAAAAAAAAAAAAAAAAAPwAAAAAAAAAAAAAAAAAAAD8AAAAAAAAAAAAAAAAAAAA/AAAAAAAAAAAAAAAAAAAAPwAAAAAAAAAA
        AAAAAAAAAD8AAAAAAAAAAAAAAAAAAAA/AAAAAAAAAAAAAAAAAAAAPwAAAAAAAAAAAAAAAAAAAD8AAAAAAAAAAAAAAAAAAAA/AAAAAAAAAAAAAAAAAAAAPwAAAAAAAAAA
        AAAAAAAAAD8AAAAAAAAAAAAAAAAAAAA/AAAAAAAAAAAAAAAAAAAAPwAAAAAAAAAAAAAAAAAAAD8AAAAAAAAAAAAAAAAAAAAAmpmZPgAAAAAAAAAAAAAAAAAAgD8AAAAA
        mpmZPgAAAAAAAAAAAAAAAAAAgD8AAAAAmpmZPgAAAAAAAAAAAAAAAAAAgD8AAAAAmpmZPgAAAAAAAAAAAAAAAAAAgD8AAAAAmpmZPgAAAAAAAAAAAAAAAAAAgD8AAAAA
        mpmZPgAAAAAAAAAAAAAAAAAAgD8AAAAAAAAAAAAAAAAAAAAAAAAAAAAAAAAAAAAAAAAAAAAAAAAAAAAAAAAAAAAAAAAAAAAAAAAAAAAAAAAAAAAAAAAAAAAAAAAAAAAA
        AAAAAAAAAAAAAAAAAAAAAAAAAAAAAAAAAAAAAAAAAAAAAAAAAAAAAAAAAAAAAAAAAAAAAAAAAAAAAAAAAAAAAAAAAAAAAAAAAAAAAKuqKj3ZiZ09gShWPgAAAAAAAAAA
        v+eWPQAAAAAAAAA/AAAAAAAAAAAAAAAAAAAAAAAAAD8AAAAAAAAAAAAAAAAAAAAAAAAAPwAAAAAAAAAAAAAAAAAAAAAAAAAAAAAAAAAAAAAAAAAAAAAAAAAAAAAAAAAA
        AAAAAAAAAAAAAAAAAAAAAAAAAAAAAAAAAAAAAAAAAAAAAAAAAAAAAAAAAAAAAAAAAAAAAAAAAAAAAAAAAAAAAAAAAAAAAAAAAAAAAAAAAAAAAAAAAAAAAAAAAAAAAAAA
        AAAAAAAAAAAAAAAAAAAAAAAAAAAAAAAAAAAAAAAAAAAAAAAAAAAAAAAAAAAAAAAAAAAAAAAAAAAAAAAAAAAAAAAAAAAAAAAAAAAAAAAAAAAAAAAAAAAAAAAAAAAAAAAA
        AAAAAAAAAAAAAAAAAAAAAAAAAAAAAAAAAAAAAAAAAAAAAAAAAAAAAAAAAAAAAAAAAAAAAAAAAAAAAAAAAAAAAAAAAAAAAAAAAAAAAAAAAAAAAAAAAAAAAAAAAAAAAAAA
        AAAAAAAAAAAAAAAAAAAAAAAAAAAAAAAAAAAAAAAAAAAAAAAAAAAAAAAAAAAAAAAAAAAAAAAAAAAAAAAAAAAAAAAAAAAAAAAAAAAAAAAAAAAAAAAAAAAAPwAAAD8AAAA/
        AAAAPwAAAD8AAAA/AAAAPwAAAD8AAAAAAAAAAAAAAAAAAAAAAAAAAAAAAAAAAAAAAAAAAAAAAAAAAAAAAAAAAAAAAAAAAAAAAAAAAAAAAAAAAAAAAAAAAAAAAAAAAAAA
        AAAAAAAAAAAAAAAAAAAAAAAAAAAAAAAAAAAAAAAAAAAAAAAAAAAAAAAAAAAAAAAAAAAAAAAAAAAAAAAAAAAAAAAAAAAAAAAAAAAAAAAAAAAAAAAAAAAAAAAAAAAAAAAA
        AAAAAAAAAAAAAAAAAAAAAAAAAAAAAAAAAAAAAAAAAAAAAAAAAAAAAAAAAAAAAAAAAAAAAAAAAAAAAAAAAAAAAAAAAAAAAAAAAAAAAAAAAAAAAAAAAAAAAAAAAAAAAAAA
        AAAAAAAAAAAAAAAAAAAAAAAAAAAAAAAAAAAAAAAAAAAAAAAAAAAAAAAAAAAAAAAAAAAAAAAAAAAAAAAA
        Q2hpcEZyb250AENoaXBGcm9udAAQAAAA
      >
      PRESETNAME ChipFront
      FLOATPOS 36 32 641 529
      FXID {4C5A6810-F3ED-0645-A06D-6758F70CB097}
      WAK 0
    >
  >
  <TRACK {1B564899-9ACC-8C4B-8FBF-925A5A247A13}
    NAME ChipSide
    PEAKCOL 16576
    BEAT -1
    AUTOMODE 0
    VOLPAN 0.27070889955136 0 -1 -1 1
    MUTESOLO 0 0 0
    IPHASE 0
    ISBUS 0 0
    BUSCOMP 0 0
    SHOWINMIX 1 0.6667 0.5 1 0.5 0 0 0
    FREEMODE 0
    SEL 0
    REC 0 0 0 0 0 0 0
    VU 2
    TRACKHEIGHT 0 0
    INQ 0 0 0 0.5 100 0 0 100
    NCHAN 2
    FX 1
    TRACKID {1B564899-9ACC-8C4B-8FBF-925A5A247A13}
    PERF 0
    AUXRECV 4 0 1.03113579563571 0 0 0 0 2 0 -1:U 0 -1 ''
    MIDIOUT -1
    MAINSEND 1 0
    <FXCHAIN
      SHOW 0
      LASTSEL 0
      DOCKED 0
      BYPASS 0 0 0
      <VST "VST: FabFilter Volcano 2 (SC) (FabFilter)" "FabFilter Volcano 2 (SC).vst" 0 "" 1180054068
        NDJWRu9e7f4EAAAAAQAAAAAAAAACAAAAAAAAAAQAAAAAAAAACAAAAAAAAAAIAAAAAQAAAAAAAAACAAAAAAAAAAQAAAAAAAAACAAAAAAAAAAQAAAAAAAAACAAAAAAAAAA
        QAAAAAAAAACAAAAAAAAAANwLAAAAAAAAAAAQAA==
        776t3g3wrd4AAAA/AAAAPwAAAD8AAAA/AACAPwAAAAAAAIA/q6qqPsplFD8AAAA/TxqgPc3MzD0AAAAAAAAAAEKGIj8AAIA/AACAP0Isdj8AAAA/bbDgPZqZGT8AAAAA
        AAAAAOev3zwAAIA/AAAAAAAAgD8AAAA/AAAAAJqZGT8AAAAAAAAAAAAAAAAAAIA/AAAAAAAAgD8AAAA/AAAAAJqZGT8AAAAAAAAAAAAAAAAAAIA/AAAAAKuqqj6CdAA9
        EObJPZgn+j4AAIA/AAAAAAAAAACJiAg+AACAP7PDtD4AAIA/AAAAAAAAAAAAAAAAq6qqPgAAAACeFR0/AAAAAAAAgD8AAAAAAAAAPwAAAAAAAAAAAAAAAAAAAD8AAAAA
        AAAAAAAAAAAAAAA/AAAAAAAAAAAAAAAAAAAAPwAAAAAAAAAAAAAAAAAAAD8AAAAAAAAAAAAAAAAAAAA/AAAAAAAAAAAAAAAAAAAAPwAAAAAAAAAAAAAAAAAAAD8AAAAA
        AAAAAAAAAAAAAAA/AAAAAAAAAAAAAAAAAAAAPwAAAAAAAAAAAAAAAAAAAD8AAAAAAAAAAAAAAAAAAAA/AAAAAAAAAAAAAAAAAAAAPwAAAAAAAAAAAAAAAHwZED4AAAA/
        KKO3PQAAgD8AAAAAAAAAAImIiD3y0iU/AAAAAAAAgD8AAAAAdGjRPQAAAAAAAIA/AAAAAAAAAD8AAAAAAAAAAAAAAAAAAAA/AAAAAAAAAAAAAAAAAAAAPwAAAAAAAAAA
        AAAAAAAAAD8AAAAAAAAAAAAAAAAAAAA/AAAAAAAAAAAAAAAAAAAAPwAAAAAAAAAAAAAAAAAAAD8AAAAAAAAAAAAAAAAAAAA/AAAAAAAAAAAAAAAAAAAAPwAAAAAAAAAA
        AAAAAAAAAD8AAAAAAAAAAAAAAAAAAAA/AAAAAAAAAAAAAAAAAAAAPwAAAAAAAAAAAAAAAAAAAD8AAAAAAAAAAAAAAAAAAAA/AAAAAAAAAAAAAAAAvvR9PgAAAD8AAAA/
        AAAAPwAAAAAAAAAAiYiIPQAAAD8AAAAAAAAAAAAAAAAAAAA/AAAAAAAAAAAAAAAAAAAAPwAAAAAAAAAAAAAAAAAAAD8AAAAAAAAAAAAAAAAAAAA/AAAAAAAAAAAAAAAA
        AAAAPwAAAAAAAAAAAAAAAAAAAD8AAAAAAAAAAAAAAAAAAAA/AAAAAAAAAAAAAAAAAAAAPwAAAAAAAAAAAAAAAAAAAD8AAAAAAAAAAAAAAAAAAAA/AAAAAAAAAAAAAAAA
        AAAAPwAAAAAAAAAAAAAAAAAAAD8AAAAAAAAAAAAAAAAAAAA/AAAAAAAAAAAAAAAAAAAAPwAAAAAAAAAAAAAAAAAAAD8AAAAAAAAAAAAAAAC+9H0+AAAAPwAAAD8AAAA/
        AAAAAAAAAACJiIg9AAAAPwAAAAAAAAAAAAAAAAAAAD8AAAAAAAAAAAAAAAAAAAA/AAAAAAAAAAAAAAAAAAAAPwAAAAAAAAAAAAAAAAAAAD8AAAAAAAAAAAAAAAAAAAA/
        AAAAAAAAAAAAAAAAAAAAPwAAAAAAAAAAAAAAAAAAAD8AAAAAAAAAAAAAAAAAAAA/AAAAAAAAAAAAAAAAAAAAPwAAAAAAAAAAAAAAAAAAAD8AAAAAAAAAAAAAAAAAAAA/
        AAAAAAAAAAAAAAAAAAAAPwAAAAAAAAAAAAAAAAAAAD8AAAAAAAAAAAAAAAAAAAA/AAAAAAAAAAAAAAAAAAAAPwAAAAAAAAAAAAAAAL70fT4AAAA/AAAAPwAAAD8AAAAA
        AAAAAImIiD0AAAA/AAAAAAAAAAAAAAAAAAAAPwAAAAAAAAAAAAAAAAAAAD8AAAAAAAAAAAAAAAAAAAA/AAAAAAAAAAAAAAAAAAAAPwAAAAAAAAAAAAAAAAAAAD8AAAAA
        AAAAAAAAAAAAAAA/AAAAAAAAAAAAAAAAAAAAPwAAAAAAAAAAAAAAAAAAAD8AAAAAAAAAAAAAAAAAAAA/AAAAAAAAAAAAAAAAAAAAPwAAAAAAAAAAAAAAAAAAAD8AAAAA
        AAAAAAAAAAAAAAA/AAAAAAAAAAAAAAAAAAAAPwAAAAAAAAAAAAAAAAAAAD8AAAAAAAAAAAAAAAAAAAA/AAAAAAAAAAAAAAAAvvR9PgAAAD8AAAA/AAAAPwAAAAAAAAAA
        iYiIPQAAAD8AAAAAAAAAAAAAAAAAAAA/AAAAAAAAAAAAAAAAAAAAPwAAAAAAAAAAAAAAAAAAAD8AAAAAAAAAAAAAAAAAAAA/AAAAAAAAAAAAAAAAAAAAPwAAAAAAAAAA
        AAAAAAAAAD8AAAAAAAAAAAAAAAAAAAA/AAAAAAAAAAAAAAAAAAAAPwAAAAAAAAAAAAAAAAAAAD8AAAAAAAAAAAAAAAAAAAA/AAAAAAAAAAAAAAAAAAAAPwAAAAAAAAAA
        AAAAAAAAAD8AAAAAAAAAAAAAAAAAAAA/AAAAAAAAAAAAAAAAAAAAPwAAAAAAAAAAAAAAAAAAAD8AAAAAAAAAAAAAAAAAAAAAmpmZPgAAAAAAAAAAAAAAAAAAgD8AAAAA
        mpmZPgAAAAAAAAAAAAAAAAAAgD8AAAAAmpmZPgAAAAAAAAAAAAAAAAAAgD8AAAAAmpmZPgAAAAAAAAAAAAAAAAAAgD8AAAAAmpmZPgAAAAAAAAAAAAAAAAAAgD8AAAAA
        mpmZPgAAAAAAAAAAAAAAAAAAgD8AAAAAAAAAAAAAAAAAAAAAAAAAAAAAAAAAAAAAAAAAAAAAAAAAAAAAAAAAAAAAAAAAAAAAAAAAAAAAAAAAAAAAAAAAAAAAAAAAAAAA
        AAAAAAAAAAAAAAAAAAAAAAAAAAAAAAAAAAAAAAAAAAAAAAAAAAAAAAAAAAAAAAAAAAAAAAAAAAAAAAAAAAAAAAAAAAAAAAAAAAAAAKuqqj3ZiZ09gShWPgAAgD8AAAAA
        v+eWPdmJHT0WszE/AAAAAAAAAACSdiw8AAAAAAAAAD8AAAAAAAAAAAAAAAAAAAAAAAAAPwAAAAAAAAAAAAAAAAAAAAAAAAAAAAAAAAAAAAAAAAAAAAAAAAAAAAAAAAAA
        AAAAAAAAAAAAAAAAAAAAAAAAAAAAAAAAAAAAAAAAAAAAAAAAAAAAAAAAAAAAAAAAAAAAAAAAAAAAAAAAAAAAAAAAAAAAAAAAAAAAAAAAAAAAAAAAAAAAAAAAAAAAAAAA
        AAAAAAAAAAAAAAAAAAAAAAAAAAAAAAAAAAAAAAAAAAAAAAAAAAAAAAAAAAAAAAAAAAAAAAAAAAAAAAAAAAAAAAAAAAAAAAAAAAAAAAAAAAAAAAAAAAAAAAAAAAAAAAAA
        AAAAAAAAAAAAAAAAAAAAAAAAAAAAAAAAAAAAAAAAAAAAAAAAAAAAAAAAAAAAAAAAAAAAAAAAAAAAAAAAAAAAAAAAAAAAAAAAAAAAAAAAAAAAAAAAAAAAAAAAAAAAAAAA
        AAAAAAAAAAAAAAAAAAAAAAAAAAAAAAAAAAAAAAAAAAAAAAAAAAAAAAAAAAAAAAAAAAAAAAAAAAAAAAAAAAAAAAAAAAAAAAAAAAAAAAAAAAAAAAAAAAAAPwAAAD8AAAA/
        AAAAPwAAAD8AAAA/AAAAPwAAAD8AAAAAAAAAAAAAAAAAAAAAAAAAAAAAAAAAAAAAAAAAAAAAAAAAAAAAAAAAAAAAAAAAAAAAAAAAAAAAAAAAAAAAAAAAAAAAAAAAAAAA
        AAAAAAAAAAAAAAAAAAAAAAAAAAAAAAAAAAAAAAAAAAAAAAAAAAAAAAAAAAAAAAAAAAAAAAAAAAAAAAAAAAAAAAAAAAAAAAAAAAAAAAAAAAAAAAAAAAAAAAAAAAAAAAAA
        AAAAAAAAAAAAAAAAAAAAAAAAAAAAAAAAAAAAAAAAAAAAAAAAAAAAAAAAAAAAAAAAAAAAAAAAAAAAAAAAAAAAAAAAAAAAAAAAAAAAAAAAAAAAAAAAAAAAAAAAAAAAAAAA
        AAAAAAAAAAAAAAAAAAAAAAAAAAAAAAAAAAAAAAAAAAAAAAAAAAAAAAAAAAAAAAAAAAAAAAAAAAAAAAAA
        Q2hpcFNpZGUAQ2hpcFNpZGUAEAAAAA==
      >
      PRESETNAME ChipSide
      FLOATPOS 36 32 641 529
      FXID {20356A84-5CFD-6E4A-AA26-2A8A49CE7A76}
      WAK 0
    >
  >
  <TRACK {F24D69B1-6F62-8347-8B17-DF79198234D6}
    NAME "vst Gladiator"
    PEAKCOL 27222112
    BEAT -1
    AUTOMODE 0
    VOLPAN 0.31622776601684 0 -1 -1 1
    MUTESOLO 0 0 0
    IPHASE 0
    ISBUS 0 0
    BUSCOMP 2 0
    SHOWINMIX 1 0.6667 0.381818 1 0.5 0 0 0
    FREEMODE 0
    SEL 0
    REC 0 0 0 0 0 0 0
    VU 2
    TRACKHEIGHT 0 0
    INQ 0 0 0 0.5 100 0 0 100
    NCHAN 2
    FX 1
    TRACKID {F24D69B1-6F62-8347-8B17-DF79198234D6}
    PERF 0
    MIDIOUT -1
    MAINSEND 1 0
    <FXCHAIN
      WNDRECT 528 36 724 387
      SHOW 0
      LASTSEL 0
      DOCKED 0
      BYPASS 0 0 0
      <VST "VSTi: Gladiator (x86) (Tone2.com)" Gladiator.vst 0 "" 1412581196
        TEcyVO5e7f4AAAAAAgAAAAEAAAAAAAAAAgAAAAAAAABaBAAAAQAAAAAAEAA=
        Q2NuSwAAAGBGeENrAAAAAVQyR0wAAAABAAABB0luaXQAAAAAAAAAAAAAAAAAAAAAAAAAAAAAAAA9zMzNPMzMzTw0OVg9uFH0PXnbIz+AAAA7xJumPb52yT+AAAA7xJum
        AAAAAD6euFIAAAAAP4AAAD8AAAA/AAAAPwAAAAAAAAA9ffO2PdDlYDy8an8/RR64AAAAAD+AAAA8NDlYPZFocz71wo87RJumPhR64D4KPXE89cKQP4AAAD7o9cM/AAAA
        PwAAAAAAAAAAAAAAPwAAAD8AAAA/AAAAPtmZmj8AAAAAAAAAO+VgQj2ZmZk7gxJvPoqx7DtEm6Y+1wo6PUzMzD88KPY/L1wpAAAAAAAAAAA/MKPYP3MzMz8HrhQ+pmZm
        PwAAAAAAAAAAAAAAPwAAAAAAAAA+LhR5P09cKT9mZmYAAAAAPtmZ/T8AAAA/AAAAPwAAAD8AAAAAAAAAPwAAAD8AAAA/AAAAAAAAAD8AAAA/AAAAPwAAAAAAAAA7gxJv
        AAAAAAAAAAA/gAAAAAAAADuDEm8++uFHPseuFAAAAAAAAAAAPwAAAAAAAAA/gAAAAAAAAD+AAAAAAAAAPwAAAD8AAAA/AAAAPwAAAD8AAAA/AAAAPwAAAD8AAAA/AAAA
        PwAAAD8AAAA/EeuGPKPXCjqDEm88RJumAAAAAAAAAAAAAAAAPLxqfwAAAAAAAAAAAAAAAAAAAAAAAAAAAAAAAAAAAAAAAAAAAAAAAAAAAAAAAAAAAAAAAAAAAAAAAAAA
        AAAAAAAAAAA8E3S8AAAAADw0OVgAAAAAPBN0vAAAAAA8NDlYAAAAADwTdLwAAAAAPDQ5WAAAAAA8E3S8AAAAADw0OVgAAAAAPGVgQj2HKwI7AxJvPYcrAjtEm6Y7AxJv
        PLQ5WDyLQ5Y7AxJvOwMSbz0PXCk8zMzNPwAAAD8AAAA/CwjUPlPcsT9jT3M/AAAAAAAAADqDEm87o9cLAAAAAAAAAAAAAAAAPwAAADqDEm87RJumP4AAAAAAAAAAAAAA
        AAAAAAAAAAAAAAAAAAAAAAAAAAAAAAAAP4AAAAAAAAA/AAAAAAAAAD8AAAA/AAAAPwAAAD+AAAA/AAAAPwAAAD8AAAA/gAAAP4AAAAAAAAAAAAAAAAAAAD8AAAA+5mZm
        PwAAAD8KPXE+lHrhP4AAAAAAAAA94UewP4AAAD8j1wo/gAAAAAAAAAAAAAA/gAAAPwAAAAAAAAAAAAAAAAAAAAAAAAAAAAAAAAAAAAAAAAAAAAAAAAAAAAAAAAAAAAAA
        AAAAAD8AAAA/AAAAPwAAAD8AAAA/AAAAPwAAAAAAAAAAAAAAP4AAAAAAAAAAAAAAAAAAAAAAAAAAAAAAAAAAAAAAAAAAAAAAAAAAAAAAAAAAAAAAAAAAAAAAAAAAAAAA
        AAAAAAAAAAAAAAAAAAAAAAAAAAAAAAAAAAAAAAAAAAAAAAAAAAAAAAAAAAAAAAAAAAAAAAAAqqusrQ==
        AEluaXQAEAAAAA==
      >
      PRESETNAME Init
      FLOATPOS 32 36 317 200
      FXID {5CD8FEBD-51C9-2A49-9CE3-A544A6C72CEB}
      WAK 0
      BYPASS 1 0 0
      <VST "VST: 8-Bit Shaper (Xfer Records)" 8BitShaper.vst 0 "" 1148539762
        clN1RO5e7f4CAAAAAQAAAAAAAAACAAAAAAAAAAIAAAABAAAAAAAAAAIAAAAAAAAANAIAAAEAAAAAABAA
        ZmaGP20MlT7dQQw/AAAAPyQAdFwAAIA/AAAAAAAAUkAXAAAAMAAAABkAAAAaAAAAGgAAABoAAAAbAAAAGwAAABwAAAAcAAAAHAAAAB0AAAAdAAAAHgAAAB4AAAAfAAAA
        HwAAACAAAAAgAAAAIAAAACEAAAAhAAAAIQAAACIAAAAiAAAAIgAAACMAAAAjAAAAIwAAACQAAAAkAAAAJAAAACUAAAAlAAAAKAAAACgAAAApAAAAKQAAACoAAAA1AAAA
        KgAAACoAAAA2AAAAKgAAACoAAAAqAAAAKgAAACoAAAAqAAAAKgAAACsAAAArAAAAOQAAAC0AAAA0AAAAOgAAAC0AAAAtAAAAPAAAAC4AAAAuAAAALwAAADAAAAAwAAAA
        MQAAADEAAAAxAAAAMgAAADMAAAAzAAAAMwAAADcAAAA3AAAANwAAADgAAAA4AAAAOAAAADkAAAA5AAAAOQAAADoAAAA6AAAAOgAAADoAAAA6AAAAOwAAADsAAAA7AAAA
        PAAAADsAAAA7AAAAOwAAADwAAAA8AAAAPAAAADwAAAA9AAAAPQAAAD0AAAA9AAAAPQAAAD4AAAA+AAAAPwAAAEkAAABAAAAAQAAAAEgAAABAAAAAQQAAAEIAAABCAAAA
        QgAAAEMAAABDAAAAQwAAAEQAAABEAAAARQAAAE0AAABGAAAARwAAAEYAAABHAAAASAAAAEgAAABJAAAATwAAAAAAgD+rqqo+q6qqPh0Fwz6OAm0/
        AEluaXQgMQAQAAAA
      >
      PRESETNAME "Init 1"
      FLOATPOS 0 0 0 0
      FXID {9514B2DC-3C2E-9240-BEF6-0C72EF11EB6D}
      WAK 0
    >
  >
  <TRACK {FEB0D1BC-3E5A-5C43-A5C9-18484B0DE0BB}
    NAME "vst Gladiator"
    PEAKCOL 27222112
    BEAT -1
    AUTOMODE 0
    VOLPAN 0.45708818961488 0 -1 -1 1
    MUTESOLO 0 0 0
    IPHASE 0
    ISBUS 0 0
    BUSCOMP 2 0
    SHOWINMIX 1 0.6667 0.381818 1 0.5 0 0 0
    FREEMODE 0
    SEL 1
    REC 0 0 0 0 0 0 0
    VU 2
    TRACKHEIGHT 145 0
    INQ 0 0 0 0.5 100 0 0 100
    NCHAN 2
    FX 1
    TRACKID {FEB0D1BC-3E5A-5C43-A5C9-18484B0DE0BB}
    PERF 0
    MIDIOUT -1
    MAINSEND 1 0
    <FXCHAIN
      WNDRECT 528 36 724 387
      SHOW 0
      LASTSEL 0
      DOCKED 0
      BYPASS 0 0 0
      <VST "VSTi: Gladiator (x86) (Tone2.com)" Gladiator.vst 0 "" 1412581196
        TEcyVO5e7f4AAAAAAgAAAAEAAAAAAAAAAgAAAAAAAABaBAAAAQAAAIEAEAA=
        Q2NuSwAAAGBGeENrAAAAAVQyR0wAAAABAAABB0luaXQAAAAAAAAAAAAAAAAAAAAAAAAAAAAAAAA9zMzNPMzMzTw0OVg9uFH0PXnbIz+AAAA7xJumPb52yT+AAAA7xJum
        AAAAAD6euFIAAAAAP4AAAD8AAAA/AAAAPwAAAAAAAAA9ffO2PdDlYDy8an8/RR64AAAAAD+AAAA8NDlYPZFocz71wo87RJumPhR64D4KPXE89cKQP4AAAD7o9cM/AAAA
        PwAAAAAAAAAAAAAAPwAAAD8AAAA/AAAAPtmZmj8AAAAAAAAAO+VgQj4FHrk7gxJvPaPXCjuj1wo/cKPXPnXCjz88KPY/L1wpAAAAAAAAAAA+rhR9P4AAAD8AAAA/NcKP
        PwAAAAAAAAAAAAAAPwAAAAAAAAAAAAAAP09cKT9mZmYAAAAAPvXCjz8AAAA/AAAAPwAAAD8AAAAAAAAAPwAAAD8AAAA/AAAAAAAAAD8AAAA/AAAAPwAAAAAAAAA7gxJv
        AAAAAAAAAAA/gAAAAAAAADuDEm8/WFHrPseuFD+AAAAAAAAAPwAAAAAAAAA/gAAAAAAAAD+AAAAAAAAAPwAAAD8AAAA/AAAAPwAAAD8AAAA/AAAAPwAAAD8AAAA/AAAA
        PwAAAD8AAAA/EeuGPKPXCjqDEm88RJumPESbpgAAAAAAAAAAPLxqfwAAAAAAAAAAAAAAAAAAAAAAAAAAAAAAAAAAAAAAAAAAAAAAAAAAAAAAAAAAAAAAAAAAAAAAAAAA
        AAAAAAAAAAA8E3S8AAAAADw0OVgAAAAAPBN0vAAAAAA8NDlYAAAAADwTdLwAAAAAPDQ5WAAAAAA8E3S8AAAAADw0OVgAAAAAOwMSbz2HKwI7AxJvPYcrAjtEm6Y7AxJv
        O0SbpjyLQ5Y7AxJvOwMSbz0PXCk8zMzNPrT3LD8AAAA/CwjUP1YRqD6ae5Y/AAAAPJul5DqDEm86gxJvAAAAAAAAAAAAAAAAPwAAADqDEm87RJumP4AAAAAAAAAAAAAA
        AAAAAAAAAAAAAAAAAAAAAAAAAAAAAAAAP4AAAAAAAAA/AAAAAAAAAD8AAAA/AAAAPwAAAD+AAAA/AAAAPwAAAD8AAAA/gAAAP4AAAAAAAAAAAAAAAAAAAD8AAAA/gAAA
        PwAAAD8KPXE+lHrhP4AAAAAAAAA94UewP4AAAD8j1wo/gAAAAAAAAAAAAAA/gAAAPwAAAAAAAAAAAAAAAAAAAAAAAAAAAAAAAAAAAAAAAAAAAAAAAAAAAAAAAAAAAAAA
        AAAAAD8AAAA/AAAAPwAAAD8AAAA/AAAAPwAAAAAAAAAAAAAAP4AAAAAAAAAAAAAAAAAAAAAAAAAAAAAAAAAAAAAAAAAAAAAAAAAAAAAAAAAAAAAAAAAAAAAAAAAAAAAA
        AAAAAAAAAAAAAAAAAAAAAAAAAAAAAAAAAAAAAAAAAAAAAAAAAAAAAAAAAAAAAAAAAAAAAACBqqusrQ==
        AEluaXQAEAAAAA==
      >
      PRESETNAME Init
      FLOATPOS 551 56 986 798
      FXID {5CD8FEBD-51C9-2A49-9CE3-A544A6C72CEB}
      <PARMENV 48 0 1 0.5
        ACT 1
        VIS 1 0 1
        LANEHEIGHT 0 0
        ARM 1
        DEFSHAPE 0 -1 -1
        PT 0 0.93999999 0
        PT 15.95362309 0.91357186 5 0 0 0 0.22353908
        PT 17.5 0.74 5 0 0 0 -0.36586106
        PT 19 0.555 0
      >
      <PARMENV 67 0 1 0.5
        ACT 1
        VIS 1 0 1
        LANEHEIGHT 0 0
        ARM 1
        DEFSHAPE 0 -1 -1
        PT 0 0.48 0
        PT 15.87016298 0.48 0
        PT 16.35107701 0.51 0
      >
      WAK 0
    >
    <ITEM
      POSITION 0
      SNAPOFFS 0
      LENGTH 32
      LOOP 1
      ALLTAKES 0
      FADEIN 1 0 0 1 0 0
      FADEOUT 1 0 0 1 0 0
      MUTE 0
      COLOR 22774783 B
      SEL 0
      IGUID {1987B885-184C-4B48-A605-A77CAF461F26}
      IID 11
      NAME "b-lev synt - National_Anthems_-_Egypt.mid"
      VOLPAN 1 0 1 -1
      SOFFS 0 0
      PLAYRATE 1 1 0 -1 0 0.0025
      CHANMODE 0
      TAKECOLOR 22293945 B
      GUID {1ACE3B57-8140-214F-955F-64C5A8CA2CC4}
      <SOURCE MIDI
        HASDATA 1 384 QN
        POOLEDEVTS {F4599147-4820-4241-9573-CE749BCFE01B}
        <X 0 0 0 0 3 "b-lev synt"
          /wNiLWxldiBzeW50
        >
        e 288 9c 3c 7f 3
        e 96 9c 3c 00 -44
        e 0 9c 41 7f -4
        e 0 9c 39 7f 19
        e 0 9c 3c 7f 19
        e 0 9c 29 7f 37
        e 0 9c 35 7f 43
        e 192 9c 39 00 32
        e 0 9c 3c 00 36
        e 96 9c 41 00 13
        e 0 9c 29 00 56
        e 0 9c 35 00 66
        e 96 9c 39 7f 1
        e 0 9c 3e 7f 2
        e 0 9c 41 7f 7
        e 0 9c 26 7f 22
        e 0 9c 32 7f 27
        e 192 9c 39 00 25
        e 0 9c 3e 00 24
        e 0 9c 41 00 28
        e 96 9c 26 00 62
        e 0 9c 32 00 37
        e 0 9c 3c 7f -20
        e 96 9c 3c 00 -64
        e 0 9c 41 7f -22
        e 0 9c 3a 7f -2
        e 0 9c 3e 7f -1
        e 0 9c 2e 7f 3
        e 0 9c 22 7f 6
        e 192 9c 3a 00 -5
        e 0 9c 3e 00 3
        e 96 9c 2e 00 -10
        e 0 9c 22 00 9
        e 96 9c 41 00 -66
        e 0 9c 29 7f -23
        e 0 9c 35 7f -23
        e 0 9c 41 7f -18
        e 0 9c 39 7f -11
        e 0 9c 3c 7f -10
        e 96 9c 41 00 19
        e 0 9c 40 7f 17
        e 96 9c 39 00 15
        e 0 9c 3c 00 19
        e 0 9c 40 00 21
        e 96 9c 29 00 11
        e 0 9c 35 00 11
        e 0 9c 41 7f -39
        e 96 9c 41 00 -28
        e 0 9c 24 7f -12
        e 0 9c 30 7f -12
        e 0 9c 3c 7f -8
        e 0 9c 40 7f -8
        e 0 9c 43 7f 3
        e 96 9c 24 00 -26
        e 0 9c 30 00 -20
        e 96 9c 2b 7f -30
        e 0 9c 37 7f -27
        e 96 9c 2b 00 -35
        e 0 9c 37 00 -28
        e 96 9c 28 7f -29
        e 0 9c 34 7f -24
        e 96 9c 3c 00 -33
        e 0 9c 40 00 -19
        e 0 9c 28 00 -39
        e 0 9c 34 00 -39
        e 96 9c 43 00 11
        e 0 9c 24 7f -30
        e 0 9c 30 7f -27
        e 0 9c 3c 7f -4
        e 0 9c 40 7f -3
        e 0 9c 45 7f -2
        e 96 9c 24 00 -34
        e 0 9c 30 00 -57
        e 0 9c 3c 00 23
        e 96 9c 40 00 -50
        e 0 9c 45 00 -15
        e 0 9c 39 7f -19
        e 0 9c 3c 7f -18
        e 0 9c 35 7f -16
        e 0 9c 29 7f -16
        e 0 9c 41 7f -10
        e 96 9c 29 00 31
        e 96 9c 39 00 16
        e 0 9c 3c 00 22
        e 0 9c 35 00 -58
        e 96 9c 41 00 -10
        e 96 9c 45 7f 1
        e 192 9c 45 00 -22
        e 0 9c 46 7f -16
        e 192 9c 46 00 5
        e 0 9c 35 7f -17
        e 0 9c 29 7f -15
        e 0 9c 41 7f -12
        e 0 9c 45 7f -10
        e 0 9c 3c 7f -7
        e 0 9c 48 7f 1
        e 288 9c 35 00 -1
        e 0 9c 29 00 3
        e 0 9c 48 00 39
        e 96 9c 41 00 -39
        e 0 9c 45 00 -37
        e 0 9c 3c 00 -54
        e 0 9c 45 7f -37
        e 0 9c 2d 7f -15
        e 0 9c 39 7f -11
        e 0 9c 3d 7f -9
        e 96 9c 45 00 -132
        e 192 9c 2d 00 16
        e 0 9c 39 00 17
        e 0 9c 3d 00 7
        e 0 9c 43 7f -23
        e 96 9c 43 00 -18
        e 0 9c 3e 7f -42
        e 0 9c 29 7f -39
        e 0 9c 39 7f -38
        e 0 9c 41 7f -32
        e 0 9c 35 7f -31
        e 192 9c 41 00 5
        e 0 9c 45 7f -28
        e 96 9c 3e 00 -20
        e 0 9c 29 00 -11
        e 0 9c 39 00 6
        e 0 9c 35 00 7
        e 0 9c 45 00 7
        e 0 9c 43 7f 38
        e 96 9c 40 7f -43
        e 0 9c 3c 7f -34
        e 0 9c 24 7f -24
        e 0 9c 30 7f -23
        e 96 9c 43 00 64
        e 0 9c 45 7f 47
        e 96 9c 40 00 -38
        e 0 9c 3c 00 -19
        e 0 9c 24 00 -54
        e 0 9c 30 00 -63
        e 0 9c 3e 7f -43
        e 0 9c 39 7f -31
        e 0 9c 2d 7f -26
        e 0 9c 21 7f -24
        e 96 9c 45 00 65
        e 0 9c 39 00 -2
        e 96 9c 3e 00 -61
        e 0 9c 2d 00 -54
        e 0 9c 21 00 -60
        e 0 9c 3c 7f -43
        e 0 9c 39 7f -41
        e 0 9c 41 7f -36
        e 0 9c 29 7f -22
        e 0 9c 1d 7f -15
        e 288 9c 39 00 3
        e 0 9c 29 00 1
        e 0 9c 1d 00 15
        e 96 9c 3c 00 -73
        e 0 9c 41 00 -31
        e 0 9c 40 7f -43
        e 0 9c 24 7f -32
        e 0 9c 3a 7f -31
        e 0 9c 30 7f -31
        e 0 9c 37 7f -24
        e 192 9c 3a 00 -57
        e 0 9c 37 00 -58
        e 96 9c 40 00 -30
        e 0 9c 43 7f -30
        e 0 9c 40 7f -8
        e 0 9c 3a 7f -5
        e 96 9c 24 00 -61
        e 0 9c 30 00 -71
        e 0 9c 43 00 -59
        e 0 9c 40 00 -37
        e 0 9c 3a 00 -38
        e 0 9c 35 7f -35
        e 0 9c 41 7f -34
        e 0 9c 29 7f -32
        e 0 9c 3c 7f -18
        e 0 9c 39 7f -15
        e 384 9c 35 00 -10
        e 0 9c 29 00 -15
        e 0 9c 3c 00 1
        e 0 9c 39 00 7
        e 96 9c 41 00 -51
        e 192 9c 3c 7f 11
        e 96 9c 3c 00 -9
        e 0 9c 39 7f 6
        e 0 9c 41 7f 12
        e 0 9c 3c 7f 14
        e 0 9c 35 7f 18
        e 0 9c 29 7f 19
        e 96 9c 3c 00 -61
        e 192 9c 39 00 25
        e 96 9c 41 00 -36
        e 0 9c 35 00 -10
        e 0 9c 29 00 -19
        e 0 9c 41 7f -2
        e 0 9c 39 7f -2
        e 0 9c 3e 7f -1
        e 0 9c 32 7f 22
        e 0 9c 26 7f 23
        e 288 9c 41 00 3
        e 0 9c 39 00 -49
        e 0 9c 3e 00 -5
        e 0 9c 32 00 60
        e 0 9c 26 00 50
        e 0 9c 3c 7f -2
        e 96 9c 3c 00 -26
        e 0 9c 41 7f -14
        e 0 9c 22 7f -8
        e 0 9c 2e 7f -4
        e 0 9c 3a 7f 6
        e 0 9c 3e 7f 7
        e 288 9c 2e 00 39
        e 0 9c 3a 00 26
        e 0 9c 3e 00 45
        e 96 9c 41 00 -42
        e 0 9c 22 00 -37
        e 0 9c 39 7f -10
        e 0 9c 3c 7f -7
        e 0 9c 35 7f -7
        e 0 9c 29 7f -4
        e 0 9c 41 7f -3
        e 96 9c 41 00 41
        e 0 9c 40 7f 24
        e 96 9c 40 00 48
        e 96 9c 3c 00 36
        e 0 9c 35 00 23
        e 0 9c 29 00 25
        e 0 9c 41 7f -46
        e 96 9c 39 00 -56
        e 0 9c 41 00 -34
        e 0 9c 43 7f -22
        e 0 9c 24 7f -13
        e 0 9c 30 7f -12
        e 0 9c 3c 7f -2
        e 0 9c 40 7f -1
        e 192 9c 24 00 -38
        e 0 9c 30 00 -44
        e 0 9c 2b 7f -16
        e 0 9c 37 7f -11
        e 96 9c 2b 00 -2
        e 0 9c 37 00 5
        e 96 9c 28 7f -30
        e 0 9c 34 7f -29
        e 96 9c 3c 00 -22
        e 0 9c 40 00 -1
        e 0 9c 28 00 -1
        e 0 9c 34 00 5
        e 96 9c 43 00 -10
        e 0 9c 30 7f -30
        e 0 9c 45 7f -25
        e 0 9c 24 7f -25
        e 0 9c 40 7f -12
        e 0 9c 3c 7f -9
        e 96 9c 30 00 9
        e 96 9c 45 00 -13
        e 0 9c 24 00 -72
        e 0 9c 40 00 -16
        e 0 9c 3c 00 -38
        e 0 9c 29 7f -32
        e 0 9c 35 7f -31
        e 0 9c 41 7f -29
        e 0 9c 3c 7f 2
        e 0 9c 39 7f 3
        e 288 9c 29 00 -75
        e 0 9c 35 00 -65
        e 0 9c 41 00 -65
        e 0 9c 3c 00 4
        e 0 9c 39 00 8
        e 96 9c 45 7f -4
        e 192 9c 45 00 -16
        e 0 9c 46 7f -40
        e 192 9c 46 00 -23
        e 0 9c 45 7f -24
        e 0 9c 3c 7f -23
        e 0 9c 41 7f -23
        e 0 9c 35 7f -7
        e 0 9c 29 7f -1
        e 0 9c 48 7f 6
        e 288 9c 35 00 -7
        e 0 9c 29 00 6
        e 96 9c 45 00 -55
        e 0 9c 3c 00 -46
        e 0 9c 41 00 -34
        e 0 9c 48 00 29
        e 0 9c 3d 7f -24
        e 0 9c 39 7f -22
        e 0 9c 2d 7f -19
        e 0 9c 45 7f -17
        e 192 9c 2d 00 7
        e 96 9c 39 00 -16
        e 0 9c 45 00 13
        e 0 9c 43 7f -10
        e 96 9c 3d 00 -36
        e 0 9c 43 00 -3
        e 0 9c 3e 7f -24
        e 0 9c 29 7f -20
        e 0 9c 35 7f -20
        e 0 9c 39 7f -20
        e 0 9c 41 7f -12
        e 192 9c 41 00 23
        e 0 9c 45 7f -7
        e 96 9c 29 00 16
        e 0 9c 35 00 16
        e 0 9c 39 00 16
        e 96 9c 3e 00 -56
        e 0 9c 45 00 -42
        e 0 9c 40 7f -44
        e 0 9c 24 7f -42
        e 0 9c 30 7f -42
        e 0 9c 3c 7f -42
        e 0 9c 43 7f -16
        e 192 9c 24 00 -6
        e 0 9c 30 00 -6
        e 0 9c 3c 00 -6
        e 0 9c 43 00 -15
        e 0 9c 45 7f -35
        e 0 9c 3e 7f -9
        e 0 9c 21 7f -5
        e 0 9c 2d 7f -5
        e 0 9c 39 7f -5
        e 96 9c 40 00 -86
        e 0 9c 21 00 36
        e 0 9c 2d 00 36
        e 0 9c 39 00 36
        e 96 9c 3e 00 -32
        e 0 9c 3c 7f -2
        e 0 9c 1d 7f 1
        e 0 9c 29 7f 1
        e 0 9c 39 7f 1
        e 0 9c 41 7f 12
        e 96 9c 45 00 -80
        e 192 9c 1d 00 -13
        e 0 9c 29 00 -13
        e 0 9c 39 00 -13
        e 0 9c 41 00 52
        e 96 9c 3c 00 -34
        e 0 9c 3a 7f -13
        e 0 9c 24 7f -12
        e 0 9c 30 7f -12
        e 0 9c 37 7f -12
        e 0 9c 40 7f -8
        e 192 9c 3a 00
        e 0 9c 24 00 10
        e 0 9c 30 00 10
        e 0 9c 37 00 10
        e 96 9c 40 00 -11
        e 0 9c 43 7f -11
        e 0 9c 3a 7f -2
        e 0 9c 40 7f 2
        e 96 9c 43 00 9
        e 0 9c 3a 00 13
        e 0 9c 40 00 -2
        e 0 9c 35 7f -15
        e 0 9c 29 7f -12
        e 0 9c 39 7f -11
        e 0 9c 3c 7f -8
        e 0 9c 41 7f 8
        e 192 9c 35 00 19
        e 0 9c 29 00 10
        e 96 9c 39 00 -27
        e 0 9c 3c 00 -2
        e 0 9c 41 00 20
        e 96 9c 45 7f -8
        e 192 9c 45 00 -45
        e 96 9c 45 7f 4
        e 96 9c 45 00 -42
        e 0 9c 45 7f -21
        e 0 9c 35 7f -16
        e 0 9c 29 7f -15
        e 0 9c 30 7f -12
        e 96 9c 35 00 -41
        e 0 9c 29 00 -49
        e 0 9c 30 00 -55
        e 96 9c 41 7f -48
        e 0 9c 3e 7f 43
        e 96 9c 41 00 -86
        e 0 9c 3e 00 18
        e 96 9c 45 00 6
        e 0 9c 3c 7f -32
        e 0 9c 43 7f -3
        e 0 9c 35 7f 1
        e 0 9c 29 7f 2
        e 0 9c 30 7f 4
        e 96 9c 35 00 -35
        e 0 9c 29 00 -34
        e 0 9c 30 00 -46
        e 96 9c 43 00 -17
        e 0 9c 41 7f -30
        e 96 9c 3c 00 4
        e 96 9c 41 00 -36
        e 0 9c 30 7f -31
        e 0 9c 24 7f -29
        e 0 9c 43 7f -20
        e 0 9c 46 7f -19
        e 96 9c 30 00 -71
        e 0 9c 24 00 -68
        e 288 9c 43 00 -30
        e 0 9c 46 00 -41
        e 0 9c 45 7f -31
        e 0 9c 29 7f -25
        e 0 9c 35 7f -24
        e 0 9c 30 7f -22
        e 0 9c 3e 7f -18
        e 96 9c 29 00 -60
        e 0 9c 35 00 -60
        e 0 9c 30 00 -72
        e 192 9c 43 7f -3
        e 96 9c 45 00 -78
        e 0 9c 3e 00 29
        e 0 9c 43 00 -52
        e 0 9c 43 7f -20
        e 0 9c 30 7f -18
        e 0 9c 24 7f -12
        e 96 9c 30 00 -66
        e 0 9c 24 00 -56
        e 96 9c 37 7f 23
        e 0 9c 3c 7f 25
        e 0 9c 2b 7f 31
        e 96 9c 37 00 -25
        e 0 9c 3c 00 -25
        e 0 9c 2b 00 -32
        e 0 9c 40 7f 16
        e 96 9c 43 00 5
        e 0 9c 40 00 -35
        e 0 9c 28 7f -12
        e 0 9c 34 7f -10
        e 0 9c 43 7f 5
        e 96 9c 28 00 -61
        e 0 9c 34 00 -57
        e 0 9c 43 00 -42
        e 0 9c 40 7f 6
        e 96 9c 40 00 -38
        e 0 9c 43 7f -14
        e 0 9c 24 7f -8
        e 0 9c 30 7f -6
        e 96 9c 43 00 -61
        e 0 9c 24 00 -56
        e 0 9c 30 00 -56
        e 0 9c 48 7f -13
        e 96 9c 48 00 -44
        e 0 9c 43 7f -16
        e 0 9c 37 7f -9
        e 0 9c 2b 7f -7
        e 96 9c 43 00 -71
        e 0 9c 37 00 -61
        e 0 9c 2b 00 -57
        e 288 9c 46 7f -31
        e 0 9c 35 7f -23
        e 0 9c 29 7f -12
        e 192 9c 46 00 5
        e 0 9c 29 00 -6
        e 96 9c 35 00 -69
        e 0 9c 40 7f -43
        e 0 9c 46 7f -22
        e 0 9c 32 7f -10
        e 0 9c 26 7f
        e 96 9c 40 00 -56
        e 0 9c 46 00 -72
        e 0 9c 32 00 -32
        e 0 9c 26 00 -42
        e 0 9c 3a 7f -39
        e 0 9c 46 7f -36
        e 0 9c 3e 7f -35
        e 0 9c 22 7f -14
        e 0 9c 2e 7f -10
        e 96 9c 22 00 28
        e 0 9c 2e 00 23
        e 96 9c 3a 00 -9
        e 96 9c 3e 00 -39
        e 0 9c 3c 7f -38
        e 96 9c 46 00 -5
        e 0 9c 3c 00 -63
        e 0 9c 3e 7f -38
        e 0 9c 45 7f -30
        e 0 9c 35 7f -21
        e 0 9c 30 7f -18
        e 0 9c 29 7f -16
        e 96 9c 35 00 -39
        e 0 9c 30 00 -46
        e 0 9c 29 00 -39
        e 96 9c 45 00 -11
        e 0 9c 43 7f -22
        e 192 9c 3e 00 -28
        e 0 9c 43 00 17
        e 0 9c 2b 7f -16
        e 0 9c 37 7f -15
        e 0 9c 48 7f -13
        e 0 9c 30 7f -12
        e 0 9c 45 7f
        e 96 9c 2b 00 -51
        e 0 9c 37 00 -47
        e 0 9c 30 00 -53
        e 288 9c 48 00 -4
        e 0 9c 45 00 -18
        e 0 9c 46 7f -8
        e 0 9c 40 7f
        e 0 9c 2b 7f 6
        e 0 9c 37 7f 7
        e 0 9c 30 7f 10
        e 96 9c 2b 00 -28
        e 0 9c 37 00 -11
        e 0 9c 30 00 -36
        e 192 9c 46 00 4
        e 0 9c 45 7f 10
        e 96 9c 40 00 16
        e 0 9c 45 00 -26
        e 0 9c 45 7f
        e 0 9c 30 7f
        e 0 9c 29 7f
        e 0 9c 35 7f
        e 96 9c 30 00 -18
        e 0 9c 29 00 -10
        e 0 9c 35 00 -36
        e 96 9c 30 7f
        e 0 9c 3c 7f
        e 96 9c 30 00 -43
        e 0 9c 3c 00 -44
        e 0 9c 41 7f
        e 96 9c 45 00
        e 0 9c 41 00 -43
        e 0 9c 45 7f
        e 0 9c 2d 7f
        e 0 9c 39 7f
        e 96 9c 45 00 -30
        e 0 9c 2d 00 -49
        e 0 9c 39 00 -53
        e 0 9c 41 7f
        e 96 9c 41 00 -39
        e 0 9c 45 7f
        e 0 9c 35 7f
        e 0 9c 29 7f
        e 96 9c 45 00 -39
        e 0 9c 35 00 -53
        e 0 9c 29 00 -47
        e 0 9c 4a 7f
        e 96 9c 4a 00 -26
        e 0 9c 3c 7f
        e 0 9c 35 7f
        e 0 9c 30 7f
        e 0 9c 48 7f
        e 96 9c 3c 00 -12
        e 0 9c 35 00 -19
        e 0 9c 30 00 -6
        e 96 9c 48 00 33
        e 192 9c 45 7f 3
        e 192 9c 45 00 18
        e 96 9c 45 7f 19
        e 96 9c 45 00 -32
        e 0 9c 35 7f -1
        e 0 9c 30 7f 1
        e 0 9c 29 7f 3
        e 0 9c 45 7f 5
        e 96 9c 35 00 -11
        e 0 9c 30 00 -22
        e 0 9c 29 00 -10
        e 96 9c 41 7f -46
        e 96 9c 41 00 -65
        e 0 9c 3e 7f -34
        e 96 9c 45 00 1
        e 0 9c 3e 00 -25
        e 0 9c 43 7f -21
        e 0 9c 3c 7f -3
        e 0 9c 35 7f 11
        e 0 9c 30 7f 21
        e 0 9c 29 7f 22
        e 96 9c 35 00 -20
        e 0 9c 30 00 -17
        e 0 9c 29 00 3
        e 96 9c 43 00 -14
        e 0 9c 41 7f -25
        e 192 9c 3c 00 -35
        e 0 9c 41 00 -7
        e 0 9c 46 7f -16
        e 0 9c 24 7f -16
        e 0 9c 30 7f -13
        e 96 9c 24 00 -30
        e 0 9c 30 00 -41
        e 96 9c 43 7f -12
        e 192 9c 46 00 -1
        e 0 9c 43 00 -14
        e 0 9c 3e 7f -25
        e 0 9c 45 7f -21
        e 0 9c 29 7f -6
        e 0 9c 35 7f -4
        e 0 9c 30 7f -2
        e 96 9c 29 00 -36
        e 0 9c 35 00 -37
        e 0 9c 30 00 -46
        e 192 9c 45 00 -11
        e 0 9c 43 7f -4
        e 96 9c 3e 00 -41
        e 0 9c 43 00 -40
        e 0 9c 43 7f -5
        e 0 9c 37 7f 3
        e 0 9c 2b 7f 11
        e 0 9c 30 7f 11
        e 96 9c 37 00 -41
        e 0 9c 2b 00 -33
        e 0 9c 30 00 -54
        e 96 9c 2b 7f -2
        e 0 9c 30 7f -1
        e 0 9c 37 7f 2
        e 0 9c 3c 7f 13
        e 96 9c 2b 00 -42
        e 0 9c 30 00 -47
        e 0 9c 37 00 -51
        e 0 9c 3c 00 -42
        e 0 9c 40 7f -5
        e 96 9c 43 00 -9
        e 0 9c 40 00 -43
        e 0 9c 43 7f -9
        e 0 9c 34 7f 2
        e 0 9c 28 7f 3
        e 96 9c 43 00 -42
        e 0 9c 34 00 -50
        e 0 9c 28 00 -46
        e 96 9c 45 7f -18
        e 0 9c 40 7f -10
        e 0 9c 37 7f -1
        e 0 9c 30 7f 1
        e 0 9c 2b 7f 2
        e 96 9c 45 00 -22
        e 0 9c 40 00 -60
        e 0 9c 37 00 -54
        e 0 9c 30 00 -46
        e 0 9c 2b 00 -41
        e 0 9c 43 7f -42
        e 0 9c 46 7f -26
        e 96 9c 43 00 -84
        e 0 9c 46 00 -23
        e 0 9c 3c 7f -18
        e 0 9c 41 7f -18
        e 0 9c 48 7f -18
        e 0 9c 29 7f -6
        e 0 9c 35 7f -1
        e 192 9c 29 00 -33
        e 0 9c 35 00 -47
        e 96 9c 3c 00 -37
        e 0 9c 41 00 -37
        e 0 9c 48 00 -37
        e 96 9c 48 7f 7
        e 192 9c 48 00 -14
        e 96 9c 48 7f -11
        e 96 9c 48 00 -56
        e 0 9c 41 7f -28
        e 0 9c 3c 7f -24
        e 0 9c 48 7f -20
        e 0 9c 30 7f 5
        e 0 9c 29 7f 7
        e 96 9c 30 00 27
        e 0 9c 29 00 29
        e 192 9c 3c 00 2
        e 96 9c 41 00 -51
        e 0 9c 48 00 -4
        e 0 9c 3d 7f -47
        e 0 9c 2d 7f -29
        e 0 9c 21 7f -26
        e 0 9c 45 7f -24
        e 96 9c 2d 00 -18
        e 0 9c 21 00 6
        e 192 9c 45 00 -57
        e 0 9c 43 7f -30
        e 96 9c 3d 00 -73
        e 0 9c 43 00 -56
        e 0 9c 3e 7f -44
        e 0 9c 39 7f -43
        e 0 9c 41 7f -37
        e 0 9c 26 7f -26
        e 0 9c 32 7f -24
        e 192 9c 41 00 -6
        e 0 9c 45 7f -25
        e 96 9c 39 00 1
        e 0 9c 26 00 -68
        e 0 9c 32 00 -26
        e 96 9c 3e 00 -62
        e 0 9c 45 00 -2
        e 0 9c 3c 7f -34
        e 0 9c 40 7f -32
        e 0 9c 30 7f -16
        e 0 9c 24 7f -16
        e 0 9c 43 7f -6
        e 96 9c 30 00 -55
        e 0 9c 24 00 -44
        e 0 9c 3e 7f 45
        e 0 9c 39 7f 47
        e 96 9c 3c 00 -51
        e 0 9c 40 00 -63
        e 0 9c 43 00 -8
        e 0 9c 39 00 78
        e 0 9c 2d 7f -20
        e 0 9c 21 7f -14
        e 0 9c 45 7f -3
        e 96 9c 3e 00 46
        e 0 9c 2d 00 -45
        e 0 9c 21 00 -30
        e 96 9c 45 00 -22
        e 0 9c 29 7f -22
        e 0 9c 1d 7f -21
        e 0 9c 41 7f -11
        e 0 9c 39 7f -2
        e 0 9c 3c 7f -1
        e 192 9c 29 00 -45
        e 0 9c 1d 00 -52
        e 96 9c 39 00 28
        e 96 9c 41 00 -27
        e 0 9c 3c 00 -8
        e 0 9c 3a 7f -45
        e 0 9c 37 7f -43
        e 0 9c 40 7f -26
        e 0 9c 30 7f -22
        e 0 9c 24 7f -16
        e 96 9c 3a 00 -7
        e 0 9c 37 00 -19
        e 192 9c 40 00 -64
        e 0 9c 30 00 -12
        e 0 9c 24 00 19
        e 0 9c 3a 7f -45
        e 0 9c 40 7f -45
        e 0 9c 43 7f -45
        e 96 9c 3a 00 -41
        e 0 9c 40 00 -41
        e 0 9c 43 00 -41
        e 0 9c 35 7f -34
        e 0 9c 41 7f -32
        e 0 9c 29 7f -31
        e 0 9c 39 7f -30
        e 0 9c 3c 7f -28
        e 96 9c 39 00 -41
        e 0 9c 3c 00 -14
        e 96 9c 35 00 -69
        e 0 9c 29 00 -70
        e 0 9c 30 7f -22
        e 0 9c 43 7f -18
        e 0 9c 24 7f -17
        e 96 9c 43 00 -62
        e 0 9c 45 7f -22
        e 96 9c 41 00 -14
        e 0 9c 30 00 -48
        e 0 9c 24 00 -41
        e 0 9c 45 00 -67
        e 0 9c 46 7f -36
        e 0 9c 26 7f -11
        e 0 9c 32 7f -11
        e 96 9c 46 00 -69
        e 0 9c 48 7f -42
        e 96 9c 26 00 -40
        e 0 9c 32 00 -52
        e 0 9c 48 00 -83
        e 0 9c 4a 7f -48
        e 0 9c 28 7f -20
        e 0 9c 34 7f -20
        e 0 9c 4c 7f 45
        e 96 9c 4a 00 -91
        e 0 9c 4c 00 12
        e 0 9c 3c 7f -20
        e 0 9c 45 7f 45
        e 0 9c 41 7f 46
        e 96 9c 28 00 -44
        e 0 9c 34 00 -48
        e 0 9c 3c 00 -56
        e 0 9c 4d 7f -41
        e 0 9c 35 7f -18
        e 0 9c 29 7f -17
        e 192 9c 41 00 74
        e 96 9c 45 00 26
        e 0 9c 35 00 -3
        e 0 9c 29 00 -21
        e 96 9c 4d 00 -78
        e 0 9c 4d 7f -40
        e 0 9c 32 7f -39
        e 0 9c 26 7f -34
        e 0 9c 41 7f -28
        e 0 9c 3e 7f -25
        e 0 9c 39 7f -22
        e 96 9c 26 00 13
        e 96 9c 32 00 -80
        e 0 9c 41 00 -38
        e 0 9c 3e 00 7
        e 0 9c 39 00 15
        e 0 9c 3c 7f 45
        e 96 9c 4d 00 -64
        e 0 9c 3c 00 1
        e 0 9c 24 7f -30
        e 0 9c 30 7f -26
        e 0 9c 48 7f -9
        e 0 9c 3e 7f 44
        e 0 9c 41 7f 46
        e 96 9c 24 00 -72
        e 0 9c 30 00 -80
        e 0 9c 48 00 -52
        e 0 9c 3a 7f -48
        e 0 9c 2e 7f -37
        e 0 9c 22 7f -37
        e 0 9c 4d 7f -25
        e 192 9c 3e 00 28
        e 96 9c 41 00 3
        e 0 9c 3a 00 -62
        e 0 9c 2e 00 -11
        e 0 9c 4d 00 7
        e 96 9c 22 00 -56
        e 0 9c 4d 7f -45
        e 0 9c 3c 7f -39
        e 0 9c 35 7f -37
        e 0 9c 29 7f -35
        e 0 9c 39 7f -34
        e 0 9c 41 7f -13
        e 96 9c 41 00 -3
        e 0 9c 4c 7f -10
        e 0 9c 40 7f 13
        e 96 9c 4d 00 -87
        e 0 9c 4c 00 -31
        e 0 9c 40 00 -5
        e 0 9c 4d 7f 4
        e 0 9c 41 7f 36
        e 96 9c 3c 00 -43
        e 0 9c 35 00 -3
        e 0 9c 29 00 -5
        e 0 9c 39 00 -51
        e 0 9c 4d 00 8
        e 0 9c 41 00 31
        e 0 9c 4f 7f 45
        e 0 9c 30 7f 47
        e 96 9c 30 00 58
        e 0 9c 24 7f -48
        e 0 9c 43 7f -26
        e 0 9c 40 7f -10
        e 0 9c 3c 7f
        e 96 9c 24 00 -21
        e 96 9c 37 7f -36
        e 0 9c 2b 7f -35
        e 96 9c 37 00 -51
        e 0 9c 2b 00 -53
        e 96 9c 34 7f -39
        e 0 9c 28 7f -38
        e 96 9c 4f 00 58
        e 0 9c 40 00 -14
        e 0 9c 3c 00 -28
        e 0 9c 34 00 -52
        e 0 9c 28 00 -40
        e 96 9c 43 00 -6
        e 0 9c 30 7f -38
        e 0 9c 24 7f -36
        e 0 9c 51 7f -30
        e 0 9c 45 7f -22
        e 0 9c 40 7f -21
        e 0 9c 3c 7f -17
        e 96 9c 30 00 -24
        e 0 9c 24 00 1
        e 0 9c 40 00 -14
        e 0 9c 3c 00 -21
        e 96 9c 51 00 -63
        e 0 9c 45 00 -35
        e 0 9c 4d 7f -36
        e 0 9c 41 7f -27
        e 0 9c 35 7f -22
        e 0 9c 29 7f -20
        e 0 9c 3c 7f -19
        e 0 9c 39 7f -16
        e 192 9c 35 00 -9
        e 0 9c 29 00 -12
        e 96 9c 4d 00 -51
        e 0 9c 41 00 6
        e 0 9c 3c 00 -34
        e 0 9c 39 00 -49
        e 96 9c 45 7f 8
        e 0 9c 51 7f 9
        e 192 9c 45 00 -32
        e 0 9c 51 00 -20
        e 0 9c 46 7f -17
        e 0 9c 52 7f -15
        e 192 9c 46 00 -23
        e 0 9c 35 7f -16
        e 0 9c 41 7f -14
        e 0 9c 29 7f -12
        e 0 9c 45 7f -12
        e 0 9c 3c 7f -6
        e 0 9c 48 7f 3
        e 0 9c 54 7f 15
        e 96 9c 52 00 -61
        e 192 9c 35 00 6
        e 0 9c 29 00 8
        e 0 9c 3c 00 12
        e 0 9c 48 00 38
        e 96 9c 41 00 -61
        e 0 9c 45 00 -50
        e 0 9c 54 00 -32
        e 0 9c 51 7f -27
        e 0 9c 45 7f -21
        e 0 9c 39 7f -10
        e 0 9c 2d 7f -10
        e 0 9c 3d 7f 4
        e 288 9c 51 00 6
        e 0 9c 45 00 -9
        e 0 9c 39 00 -13
        e 0 9c 2d 00 -1
        e 0 9c 3d 00 44
        e 0 9c 43 7f -28
        e 0 9c 4f 7f -19
        e 96 9c 43 00 -16
        e 0 9c 4f 00 -54
        e 0 9c 41 7f -29
        e 0 9c 4d 7f -24
        e 0 9c 29 7f -23
        e 0 9c 35 7f -22
        e 0 9c 3e 7f -13
        e 0 9c 39 7f -7
        e 192 9c 41 00 -8
        e 0 9c 4d 00 -6
        e 0 9c 45 7f -41
        e 0 9c 51 7f -28
        e 96 9c 29 00 7
        e 0 9c 35 00 10
        e 0 9c 3e 00 3
        e 0 9c 39 00 -34
        e 0 9c 45 00 -8
        e 0 9c 43 7f 47
        e 96 9c 51 00 -74
        e 0 9c 40 7f -44
        e 0 9c 4f 7f -41
        e 0 9c 3c 7f -40
        e 0 9c 24 7f -18
        e 0 9c 30 7f -17
        e 96 9c 43 00 20
        e 0 9c 40 00 -31
        e 0 9c 3c 00 -25
        e 0 9c 45 7f 33
        e 0 9c 51 7f 45
        e 96 9c 4f 00 -78
        e 0 9c 24 00 -57
        e 0 9c 30 00 -64
        e 0 9c 39 7f -42
        e 0 9c 3e 7f -40
        e 0 9c 2d 7f -28
        e 0 9c 21 7f -24
        e 96 9c 45 00 50
        e 0 9c 51 00 54
        e 0 9c 39 00 -31
        e 0 9c 3e 00 -27
        e 96 9c 2d 00 -56
        e 0 9c 21 00 -57
        e 0 9c 39 7f -42
        e 0 9c 3c 7f -39
        e 0 9c 41 7f -36
        e 0 9c 4d 7f -24
        e 0 9c 29 7f -17
        e 0 9c 1d 7f -14
        e 288 9c 39 00 -72
        e 0 9c 3c 00 -62
        e 0 9c 29 00 14
        e 0 9c 1d 00 17
        e 96 9c 41 00 -9
        e 0 9c 4d 00 -15
        e 0 9c 4c 7f -17
        e 0 9c 40 7f -16
        e 0 9c 30 7f -16
        e 0 9c 24 7f -13
        e 0 9c 3a 7f -5
        e 0 9c 37 7f -4
        e 192 9c 3a 00 4
        e 0 9c 37 00 -3
        e 96 9c 4c 00 -59
        e 0 9c 40 00 -8
        e 0 9c 30 00 18
        e 0 9c 24 00 32
        e 0 9c 43 7f 9
        e 0 9c 4f 7f 11
        e 0 9c 3a 7f 17
        e 0 9c 40 7f 22
        e 96 9c 43 00 15
        e 0 9c 4f 00 12
        e 0 9c 3a 00 -10
        e 0 9c 40 00 21
        e 0 9c 4d 7f 39
        e 0 9c 29 7f 41
        e 0 9c 35 7f 44
        e 0 9c 41 7f 46
        e 96 9c 39 7f -47
        e 0 9c 3c 7f -46
        e 288 9c 4d 00 16
        e 0 9c 29 00 37
        e 0 9c 35 00 40
        e 0 9c 41 00 43
        e 96 9c 39 00 -55
        e 0 9c 3c 00 -73
        E 288 b0 7b 00
        GUID {2BE6F90F-1BB5-1146-8E17-483C7C61E640}
        IGNTEMPO 0 120 4 4
        SRCCOLOR 771
        VELLANE -1 108 6
        CFGEDITVIEW 0 13.62963 43 12 0 0 0 0 0 0.5
        KEYSNAP 0
        TRACKSEL 226
        EVTFILTER 0 -1 -1 -1 -1 0 0 0 0 -1 -1 -1 -1 0 -1 0 -1 -1
        CFGEDIT 1 1 0 0 0 0 1 0 1 1 1 0.25 0 187 878 778 0 0 2 3 0 0 0 0 0 -1 0 0 1 64
      >
      TAKE
      NAME "b-lev synt - National_Anthems_-_Egypt.mid"
      TAKEVOLPAN 0 1 -1
      SOFFS 0 0
      PLAYRATE 1 1 0 -1 0 0.0025
      CHANMODE 0
      GUID {D8CB1EB3-4912-554D-ACEE-6E03B0EDE5CB}
      <SOURCE MIDI
        HASDATA 1 384 QN
        POOLEDEVTS {9CD53240-E372-EB47-83B8-875BD88FB34C}
        <X 0 0 0 0 3 "b-lev synt"
          /wNiLWxldiBzeW50
        >
        e 291 9c 3c 7f
        e 49 9c 3c 00
        e 40 9c 41 7f
        e 23 9c 39 7f
        e 0 9c 3c 7f
        e 18 9c 29 7f
        e 6 9c 35 7f
        e 181 9c 39 00
        e 4 9c 3c 00
        e 73 9c 41 00
        e 43 9c 29 00
        e 10 9c 35 00
        e 31 9c 39 7f
        e 1 9c 3e 7f
        e 5 9c 41 7f
        e 15 9c 26 7f
        e 5 9c 32 7f
        e 189 9c 3e 00
        e 1 9c 39 00
        e 3 9c 41 00
        e 48 9c 3c 7f
        e 52 9c 3c 00
        e 5 9c 32 00
        e 25 9c 26 00
        e 12 9c 41 7f
        e 20 9c 3a 7f
        e 1 9c 3e 7f
        e 4 9c 2e 7f
        e 3 9c 22 7f
        e 181 9c 3a 00
        e 8 9c 3e 00
        e 83 9c 2e 00
        e 19 9c 22 00
        e 21 9c 41 00
        e 43 9c 29 7f
        e 0 9c 35 7f
        e 5 9c 41 7f
        e 7 9c 39 7f
        e 1 9c 3c 7f
        e 123 9c 40 7f
        e 2 9c 41 00
        e 92 9c 39 00
        e 4 9c 3c 00
        e 2 9c 40 00
        e 36 9c 41 7f
        e 50 9c 29 00
        e 0 9c 35 00
        e 57 9c 41 00
        e 16 9c 24 7f
        e 0 9c 30 7f
        e 4 9c 3c 7f
        e 0 9c 40 7f
        e 11 9c 43 7f
        e 67 9c 24 00
        e 6 9c 30 00
        e 86 9c 2b 7f
        e 3 9c 37 7f
        e 88 9c 2b 00
        e 7 9c 37 00
        e 95 9c 28 7f
        e 5 9c 34 7f
        e 81 9c 28 00
        e 0 9c 34 00
        e 6 9c 3c 00
        e 14 9c 40 00
        e 85 9c 24 7f
        e 3 9c 30 7f
        e 23 9c 3c 7f
        e 1 9c 40 7f
        e 1 9c 45 7f
        e 13 9c 43 00
        e 28 9c 30 00
        e 23 9c 24 00
        e 57 9c 3c 00
        e 23 9c 40 00
        e 31 9c 39 7f
        e 1 9c 3c 7f
        e 2 9c 35 7f
        e 0 9c 29 7f
        e 1 9c 45 00
        e 5 9c 41 7f
        e 137 9c 29 00
        e 7 9c 35 00
        e 74 9c 39 00
        e 6 9c 3c 00
        e 64 9c 41 00
        e 107 9c 45 7f
        e 169 9c 45 00
        e 6 9c 46 7f
        e 191 9c 35 7f
        e 2 9c 29 7f
        e 3 9c 41 7f
        e 2 9c 45 7f
        e 3 9c 3c 7f
        e 8 9c 48 7f
        e 4 9c 46 00
        e 282 9c 35 00
        e 4 9c 29 00
        e 36 9c 48 00
        e 3 9c 3c 00
        e 15 9c 41 00
        e 2 9c 45 00
        e 0 9c 45 7f
        e 1 9c 45 00
        e 21 9c 2d 7f
        e 4 9c 39 7f
        e 2 9c 3d 7f
        e 274 9c 43 7f
        e 30 9c 3d 00
        e 9 9c 2d 00
        e 1 9c 39 00
        e 37 9c 3e 7f
        e 0 9c 41 7f
        e 3 9c 29 7f
        e 1 9c 39 7f
        e 6 9c 41 00
        e 0 9c 41 7f
        e 1 9c 35 7f
        e 13 9c 43 00
        e 182 9c 45 7f
        e 33 9c 41 00
        e 71 9c 3e 00
        e 9 9c 29 00
        e 17 9c 39 00
        e 1 9c 35 00
        e 0 9c 45 00
        e 31 9c 43 7f
        e 15 9c 40 7f
        e 9 9c 3c 7f
        e 10 9c 24 7f
        e 1 9c 30 7f
        e 152 9c 30 00
        e 9 9c 24 00
        e 5 9c 45 7f
        e 6 9c 3e 7f
        e 5 9c 40 00
        e 6 9c 43 00
        e 1 9c 39 7f
        e 5 9c 2d 7f
        e 2 9c 21 7f
        e 5 9c 3c 00
        e 113 9c 39 00
        e 37 9c 3e 00
        e 1 9c 21 00
        e 6 9c 2d 00
        e 11 9c 3c 7f
        e 2 9c 39 7f
        e 5 9c 41 7f
        e 5 9c 45 00
        e 9 9c 29 7f
        e 7 9c 1d 7f
        e 304 9c 29 00
        e 2 9c 39 00
        e 12 9c 1d 00
        e 8 9c 3c 00
        e 30 9c 40 7f
        e 11 9c 24 7f
        e 1 9c 41 00
        e 0 9c 3a 7f
        e 0 9c 30 7f
        e 7 9c 37 7f
        e 158 9c 37 00
        e 1 9c 3a 00
        e 123 9c 40 00
        e 0 9c 43 7f
        e 22 9c 40 7f
        e 3 9c 3a 7f
        e 30 9c 30 00
        e 10 9c 24 00
        e 2 9c 43 00
        e 21 9c 3a 00
        e 1 9c 40 00
        e 2 9c 35 7f
        e 1 9c 41 7f
        e 2 9c 29 7f
        e 14 9c 3c 7f
        e 3 9c 39 7f
        e 384 9c 29 00
        e 5 9c 35 00
        e 11 9c 3c 00
        e 6 9c 39 00
        e 38 9c 41 00
        e 254 9c 3c 7f
        e 76 9c 3c 00
        e 13 9c 3c 7f
        e 2 9c 39 7f
        e 6 9c 41 7f
        e 2 9c 3c 00
        e 0 9c 3c 7f
        e 4 9c 35 7f
        e 1 9c 29 7f
        e 16 9c 3c 00
        e 278 9c 39 00
        e 35 9c 41 00
        e 17 9c 29 00
        e 9 9c 35 00
        e 8 9c 41 7f
        e 0 9c 39 7f
        e 1 9c 3e 7f
        e 23 9c 32 7f
        e 1 9c 26 7f
        e 216 9c 39 00
        e 44 9c 3e 00
        e 3 9c 3c 7f
        e 5 9c 41 00
        e 47 9c 26 00
        e 10 9c 32 00
        e 10 9c 3c 00
        e 12 9c 41 7f
        e 6 9c 22 7f
        e 4 9c 2e 7f
        e 10 9c 3a 7f
        e 1 9c 3e 7f
        e 307 9c 3a 00
        e 13 9c 2e 00
        e 6 9c 3e 00
        e 9 9c 41 00
        e 5 9c 22 00
        e 27 9c 39 7f
        e 3 9c 3c 7f
        e 0 9c 35 7f
        e 3 9c 29 7f
        e 1 9c 41 7f
        e 123 9c 40 7f
        e 17 9c 41 00
        e 103 9c 40 00
        e 2 9c 41 7f
        e 69 9c 35 00
        e 2 9c 29 00
        e 11 9c 3c 00
        e 4 9c 39 00
        e 22 9c 41 00
        e 12 9c 43 7f
        e 9 9c 24 7f
        e 1 9c 30 7f
        e 10 9c 3c 7f
        e 1 9c 40 7f
        e 149 9c 30 00
        e 6 9c 24 00
        e 22 9c 2b 7f
        e 5 9c 37 7f
        e 105 9c 2b 00
        e 7 9c 37 00
        e 61 9c 28 7f
        e 1 9c 34 7f
        e 103 9c 3c 00
        e 21 9c 40 00
        e 0 9c 28 00
        e 6 9c 34 00
        e 61 9c 30 7f
        e 5 9c 45 7f
        e 0 9c 24 7f
        e 13 9c 40 7f
        e 2 9c 43 00
        e 1 9c 3c 7f
        e 114 9c 30 00
        e 15 9c 24 00
        e 34 9c 3c 00
        e 6 9c 29 7f
        e 1 9c 35 7f
        e 2 9c 41 7f
        e 13 9c 40 00
        e 3 9c 45 00
        e 15 9c 3c 7f
        e 1 9c 39 7f
        e 210 9c 29 00
        e 10 9c 35 00
        e 0 9c 41 00
        e 69 9c 3c 00
        e 4 9c 39 00
        e 84 9c 45 7f
        e 156 9c 46 7f
        e 24 9c 45 00
        e 184 9c 45 7f
        e 1 9c 46 00
        e 0 9c 3c 7f
        e 0 9c 41 7f
        e 16 9c 35 7f
        e 6 9c 29 7f
        e 7 9c 48 7f
        e 275 9c 35 00
        e 13 9c 29 00
        e 35 9c 45 00
        e 9 9c 3c 00
        e 12 9c 41 00
        e 10 9c 3d 7f
        e 2 9c 39 7f
        e 3 9c 2d 7f
        e 2 9c 45 7f
        e 46 9c 48 00
        e 170 9c 2d 00
        e 73 9c 39 00
        e 6 9c 43 7f
        e 23 9c 45 00
        e 47 9c 3d 00
        e 12 9c 3e 7f
        e 4 9c 29 7f
        e 0 9c 35 7f
        e 0 9c 39 7f
        e 8 9c 41 7f
        e 9 9c 43 00
        e 188 9c 45 7f
        e 30 9c 41 00
        e 89 9c 29 00
        e 0 9c 35 00
        e 0 9c 39 00
        e 24 9c 3e 00
        e 12 9c 40 7f
        e 2 9c 45 00
        e 0 9c 24 7f
        e 0 9c 30 7f
        e 0 9c 3c 7f
        e 26 9c 43 7f
        e 173 9c 45 7f
        e 20 9c 43 00
        e 6 9c 3e 7f
        e 3 9c 24 00
        e 0 9c 30 00
        e 0 9c 3c 00
        e 1 9c 21 7f
        e 0 9c 2d 7f
        e 0 9c 39 7f
        e 15 9c 40 00
        e 122 9c 21 00
        e 0 9c 2d 00
        e 0 9c 39 00
        e 28 9c 3e 00
        e 30 9c 3c 7f
        e 3 9c 1d 7f
        e 0 9c 29 7f
        e 0 9c 39 7f
        e 11 9c 41 7f
        e 4 9c 45 00
        e 259 9c 1d 00
        e 0 9c 29 00
        e 0 9c 39 00
        e 65 9c 41 00
        e 10 9c 3c 00
        e 21 9c 3a 7f
        e 1 9c 24 7f
        e 0 9c 30 7f
        e 0 9c 37 7f
        e 4 9c 40 7f
        e 200 9c 3a 00
        e 10 9c 24 00
        e 0 9c 30 00
        e 0 9c 37 00
        e 75 9c 40 00
        e 0 9c 43 7f
        e 9 9c 3a 7f
        e 4 9c 40 7f
        e 79 9c 35 7f
        e 3 9c 29 7f
        e 1 9c 39 7f
        e 3 9c 3c 7f
        e 6 9c 40 00
        e 10 9c 41 7f
        e 1 9c 43 00
        e 4 9c 3a 00
        e 189 9c 29 00
        e 9 9c 35 00
        e 50 9c 39 00
        e 25 9c 3c 00
        e 22 9c 41 00
        e 68 9c 45 7f
        e 155 9c 45 00
        e 145 9c 45 7f
        e 50 9c 45 00
        e 21 9c 45 7f
        e 5 9c 35 7f
        e 1 9c 29 7f
        e 3 9c 30 7f
        e 53 9c 30 00
        e 6 9c 29 00
        e 8 9c 35 00
        e 89 9c 41 7f
        e 58 9c 41 00
        e 33 9c 3e 7f
        e 71 9c 3e 00
        e 46 9c 3c 7f
        e 29 9c 43 7f
        e 4 9c 35 7f
        e 1 9c 29 7f
        e 2 9c 30 7f
        e 2 9c 45 00
        e 44 9c 30 00
        e 11 9c 35 00
        e 1 9c 29 00
        e 100 9c 41 7f
        e 13 9c 43 00
        e 117 9c 3c 00
        e 56 9c 41 00
        e 5 9c 30 7f
        e 2 9c 24 7f
        e 9 9c 43 7f
        e 1 9c 46 7f
        e 44 9c 30 00
        e 3 9c 24 00
        e 315 9c 46 00
        e 10 9c 45 7f
        e 1 9c 43 00
        e 5 9c 29 7f
        e 1 9c 35 7f
        e 2 9c 30 7f
        e 4 9c 3e 7f
        e 42 9c 30 00
        e 12 9c 29 00
        e 0 9c 35 00
        e 249 9c 43 7f
        e 21 9c 45 00
        e 26 9c 43 00
        e 32 9c 43 7f
        e 2 9c 30 7f
        e 6 9c 24 7f
        e 41 9c 3e 00
        e 1 9c 30 00
        e 10 9c 24 00
        e 175 9c 37 7f
        e 2 9c 3c 7f
        e 6 9c 2b 7f
        e 33 9c 2b 00
        e 7 9c 37 00
        e 0 9c 3c 00
        e 41 9c 40 7f
        e 45 9c 40 00
        e 23 9c 28 7f
        e 2 9c 34 7f
        e 15 9c 43 00
        e 0 9c 43 7f
        e 30 9c 28 00
        e 4 9c 34 00
        e 15 9c 43 00
        e 48 9c 40 7f
        e 52 9c 40 00
        e 24 9c 43 7f
        e 6 9c 24 7f
        e 2 9c 30 7f
        e 41 9c 43 00
        e 5 9c 24 00
        e 0 9c 30 00
        e 43 9c 48 7f
        e 65 9c 48 00
        e 28 9c 43 7f
        e 7 9c 37 7f
        e 2 9c 2b 7f
        e 32 9c 43 00
        e 10 9c 37 00
        e 4 9c 2b 00
        e 314 9c 46 7f
        e 8 9c 35 7f
        e 11 9c 29 7f
        e 198 9c 29 00
        e 11 9c 46 00
        e 22 9c 35 00
        e 26 9c 40 7f
        e 21 9c 46 7f
        e 12 9c 32 7f
        e 10 9c 26 7f
        e 24 9c 46 00
        e 16 9c 40 00
        e 14 9c 26 00
        e 3 9c 3a 7f
        e 3 9c 46 7f
        e 1 9c 3e 7f
        e 3 9c 32 00
        e 18 9c 22 7f
        e 4 9c 2e 7f
        e 129 9c 2e 00
        e 5 9c 22 00
        e 59 9c 3a 00
        e 66 9c 3e 00
        e 1 9c 3c 7f
        e 71 9c 3c 00
        e 25 9c 3e 7f
        e 8 9c 45 7f
        e 9 9c 35 7f
        e 3 9c 30 7f
        e 2 9c 29 7f
        e 11 9c 46 00
        e 55 9c 30 00
        e 7 9c 35 00
        e 0 9c 29 00
        e 113 9c 43 7f
        e 11 9c 45 00
        e 175 9c 3e 00
        e 12 9c 2b 7f
        e 1 9c 37 7f
        e 2 9c 48 7f
        e 1 9c 30 7f
        e 12 9c 45 7f
        e 17 9c 43 00
        e 26 9c 30 00
        e 2 9c 2b 00
        e 4 9c 37 00
        e 317 9c 45 00
        e 10 9c 46 7f
        e 4 9c 48 00
        e 4 9c 40 7f
        e 6 9c 2b 7f
        e 1 9c 37 7f
        e 3 9c 30 7f
        e 50 9c 30 00
        e 8 9c 2b 00
        e 17 9c 37 00
        e 207 9c 46 00
        e 6 9c 45 7f
        e 60 9c 45 00
        e 26 9c 45 7f
        e 0 9c 30 7f
        e 0 9c 29 7f
        e 0 9c 35 7f
        e 16 9c 40 00
        e 44 9c 35 00
        e 18 9c 30 00
        e 8 9c 29 00
        e 106 9c 30 7f
        e 0 9c 3c 7f
        e 52 9c 3c 00
        e 1 9c 30 00
        e 43 9c 41 7f
        e 53 9c 41 00
        e 43 9c 45 00
        e 0 9c 45 7f
        e 0 9c 2d 7f
        e 0 9c 39 7f
        e 43 9c 39 00
        e 4 9c 2d 00
        e 19 9c 45 00
        e 30 9c 41 7f
        e 57 9c 41 00
        e 39 9c 45 7f
        e 0 9c 35 7f
        e 0 9c 29 7f
        e 43 9c 35 00
        e 6 9c 29 00
        e 8 9c 45 00
        e 39 9c 4a 7f
        e 70 9c 4a 00
        e 26 9c 3c 7f
        e 0 9c 35 7f
        e 0 9c 30 7f
        e 0 9c 48 7f
        e 77 9c 35 00
        e 7 9c 3c 00
        e 6 9c 30 00
        e 135 9c 48 00
        e 162 9c 45 7f
        e 207 9c 45 00
        e 97 9c 45 7f
        e 45 9c 45 00
        e 31 9c 35 7f
        e 2 9c 30 7f
        e 2 9c 29 7f
        e 2 9c 45 7f
        e 69 9c 30 00
        e 11 9c 35 00
        e 1 9c 29 00
        e 60 9c 41 7f
        e 77 9c 41 00
        e 31 9c 3e 7f
        e 105 9c 3e 00
        e 4 9c 43 7f
        e 18 9c 3c 7f
        e 4 9c 45 00
        e 10 9c 35 7f
        e 10 9c 30 7f
        e 1 9c 29 7f
        e 54 9c 35 00
        e 3 9c 30 00
        e 20 9c 29 00
        e 68 9c 41 7f
        e 11 9c 43 00
        e 171 9c 3c 00
        e 19 9c 46 7f
        e 0 9c 24 7f
        e 3 9c 30 7f
        e 6 9c 41 00
        e 62 9c 30 00
        e 11 9c 24 00
        e 114 9c 43 7f
        e 179 9c 3e 7f
        e 4 9c 45 7f
        e 7 9c 43 00
        e 8 9c 29 7f
        e 2 9c 35 7f
        e 2 9c 30 7f
        e 1 9c 46 00
        e 51 9c 30 00
        e 9 9c 35 00
        e 1 9c 29 00
        e 217 9c 45 00
        e 7 9c 43 7f
        e 59 9c 3e 00
        e 1 9c 43 00
        e 35 9c 43 7f
        e 8 9c 37 7f
        e 8 9c 2b 7f
        e 0 9c 30 7f
        e 31 9c 30 00
        e 13 9c 37 00
        e 8 9c 2b 00
        e 127 9c 2b 7f
        e 1 9c 30 7f
        e 3 9c 37 7f
        e 11 9c 3c 7f
        e 32 9c 37 00
        e 4 9c 30 00
        e 5 9c 2b 00
        e 0 9c 3c 00
        e 37 9c 40 7f
        e 58 9c 40 00
        e 34 9c 43 00
        e 0 9c 43 7f
        e 11 9c 34 7f
        e 1 9c 28 7f
        e 43 9c 34 00
        e 4 9c 28 00
        e 4 9c 43 00
        e 120 9c 45 7f
        e 8 9c 40 7f
        e 9 9c 37 7f
        e 2 9c 30 7f
        e 1 9c 2b 7f
        e 34 9c 40 00
        e 6 9c 37 00
        e 8 9c 30 00
        e 4 9c 43 7f
        e 1 9c 2b 00
        e 15 9c 46 7f
        e 4 9c 45 00
        e 34 9c 43 00
        e 61 9c 46 00
        e 5 9c 3c 7f
        e 0 9c 41 7f
        e 0 9c 48 7f
        e 12 9c 29 7f
        e 5 9c 35 7f
        e 146 9c 35 00
        e 14 9c 29 00
        e 92 9c 3c 00
        e 0 9c 41 00
        e 0 9c 48 00
        e 140 9c 48 7f
        e 171 9c 48 00
        e 99 9c 48 7f
        e 51 9c 48 00
        e 28 9c 41 7f
        e 4 9c 3c 7f
        e 4 9c 48 7f
        e 25 9c 30 7f
        e 2 9c 29 7f
        e 116 9c 30 00
        e 2 9c 29 00
        e 165 9c 3c 00
        e 43 9c 41 00
        e 4 9c 3d 7f
        e 18 9c 2d 7f
        e 3 9c 21 7f
        e 2 9c 45 7f
        e 20 9c 48 00
        e 82 9c 2d 00
        e 24 9c 21 00
        e 129 9c 45 00
        e 27 9c 43 7f
        e 53 9c 3d 00
        e 17 9c 43 00
        e 12 9c 3e 7f
        e 1 9c 39 7f
        e 6 9c 41 7f
        e 11 9c 26 7f
        e 2 9c 32 7f
        e 191 9c 45 7f
        e 19 9c 41 00
        e 34 9c 26 00
        e 42 9c 32 00
        e 27 9c 39 00
        e 33 9c 3e 00
        e 28 9c 3c 7f
        e 2 9c 40 7f
        e 16 9c 30 7f
        e 0 9c 24 7f
        e 10 9c 43 7f
        e 4 9c 45 00
        e 43 9c 30 00
        e 11 9c 24 00
        e 77 9c 40 00
        e 12 9c 3c 00
        e 0 9c 3e 7f
        e 2 9c 39 7f
        e 29 9c 2d 7f
        e 6 9c 21 7f
        e 6 9c 43 00
        e 5 9c 45 7f
        e 54 9c 2d 00
        e 15 9c 21 00
        e 12 9c 39 00
        e 64 9c 3e 00
        e 28 9c 45 00
        e 0 9c 29 7f
        e 1 9c 1d 7f
        e 10 9c 41 7f
        e 9 9c 39 7f
        e 1 9c 3c 7f
        e 141 9c 1d 00
        e 7 9c 29 00
        e 169 9c 39 00
        e 23 9c 3a 7f
        e 2 9c 37 7f
        e 16 9c 41 00
        e 1 9c 40 7f
        e 4 9c 30 7f
        e 6 9c 24 7f
        e 8 9c 3c 00
        e 85 9c 37 00
        e 12 9c 3a 00
        e 135 9c 40 00
        e 19 9c 3a 7f
        e 0 9c 40 7f
        e 0 9c 43 7f
        e 33 9c 30 00
        e 31 9c 24 00
        e 36 9c 3a 00
        e 0 9c 40 00
        e 0 9c 43 00
        e 7 9c 35 7f
        e 2 9c 41 7f
        e 1 9c 29 7f
        e 1 9c 39 7f
        e 2 9c 3c 7f
        e 83 9c 39 00
        e 27 9c 3c 00
        e 40 9c 29 00
        e 1 9c 35 00
        e 47 9c 30 7f
        e 4 9c 43 7f
        e 1 9c 24 7f
        e 51 9c 43 00
        e 40 9c 45 7f
        e 51 9c 45 00
        e 19 9c 30 00
        e 7 9c 24 00
        e 5 9c 46 7f
        e 22 9c 41 00
        e 3 9c 26 7f
        e 0 9c 32 7f
        e 38 9c 46 00
        e 27 9c 48 7f
        e 55 9c 48 00
        e 31 9c 32 00
        e 4 9c 4a 7f
        e 8 9c 26 00
        e 20 9c 28 7f
        e 0 9c 34 7f
        e 25 9c 4a 00
        e 40 9c 4c 7f
        e 31 9c 3c 7f
        e 32 9c 4c 00
        e 28 9c 3c 00
        e 5 9c 45 7f
        e 1 9c 41 7f
        e 2 9c 34 00
        e 4 9c 28 00
        e 3 9c 4d 7f
        e 23 9c 35 7f
        e 1 9c 29 7f
        e 283 9c 41 00
        e 1 9c 29 00
        e 18 9c 35 00
        e 21 9c 4d 00
        e 8 9c 45 00
        e 30 9c 4d 7f
        e 1 9c 32 7f
        e 5 9c 26 7f
        e 6 9c 41 7f
        e 3 9c 3e 7f
        e 3 9c 39 7f
        e 131 9c 26 00
        e 3 9c 32 00
        e 42 9c 41 00
        e 45 9c 3e 00
        e 8 9c 39 00
        e 17 9c 4d 00
        e 13 9c 3c 7f
        e 21 9c 24 7f
        e 4 9c 30 7f
        e 17 9c 48 7f
        e 10 9c 3c 00
        e 15 9c 30 00
        e 8 9c 24 00
        e 20 9c 48 00
        e 0 9c 3e 7f
        e 2 9c 41 7f
        e 2 9c 3a 7f
        e 11 9c 2e 7f
        e 0 9c 22 7f
        e 12 9c 4d 7f
        e 245 9c 3e 00
        e 6 9c 3a 00
        e 51 9c 2e 00
        e 14 9c 41 00
        e 4 9c 4d 00
        e 33 9c 22 00
        e 11 9c 4d 7f
        e 6 9c 3c 7f
        e 2 9c 35 7f
        e 2 9c 29 7f
        e 1 9c 39 7f
        e 21 9c 41 7f
        e 99 9c 4c 7f
        e 7 9c 41 00
        e 12 9c 4d 00
        e 4 9c 40 7f
        e 52 9c 4c 00
        e 26 9c 40 00
        e 9 9c 4d 7f
        e 32 9c 41 7f
        e 9 9c 39 00
        e 8 9c 3c 00
        e 38 9c 29 00
        e 2 9c 35 00
        e 11 9c 4d 00
        e 23 9c 41 00
        e 14 9c 4f 7f
        e 2 9c 30 7f
        e 1 9c 24 7f
        e 22 9c 43 7f
        e 16 9c 40 7f
        e 10 9c 3c 7f
        e 58 9c 30 00
        e 17 9c 24 00
        e 81 9c 37 7f
        e 1 9c 2b 7f
        e 78 9c 2b 00
        e 2 9c 37 00
        e 108 9c 34 7f
        e 1 9c 28 7f
        e 82 9c 34 00
        e 12 9c 28 00
        e 12 9c 3c 00
        e 14 9c 40 00
        e 72 9c 4f 00
        e 0 9c 30 7f
        e 2 9c 24 7f
        e 6 9c 51 7f
        e 8 9c 45 7f
        e 1 9c 40 7f
        e 4 9c 3c 7f
        e 11 9c 43 00
        e 78 9c 30 00
        e 3 9c 3c 00
        e 7 9c 40 00
        e 15 9c 24 00
        e 32 9c 51 00
        e 27 9c 4d 7f
        e 1 9c 45 00
        e 8 9c 41 7f
        e 5 9c 35 7f
        e 2 9c 29 7f
        e 1 9c 3c 7f
        e 3 9c 39 7f
        e 196 9c 29 00
        e 3 9c 35 00
        e 54 9c 4d 00
        e 2 9c 39 00
        e 15 9c 3c 00
        e 40 9c 41 00
        e 98 9c 45 7f
        e 1 9c 51 7f
        e 151 9c 45 00
        e 12 9c 51 00
        e 3 9c 46 7f
        e 2 9c 52 7f
        e 184 9c 46 00
        e 7 9c 35 7f
        e 2 9c 41 7f
        e 2 9c 29 7f
        e 0 9c 45 7f
        e 6 9c 3c 7f
        e 9 9c 48 7f
        e 12 9c 54 7f
        e 20 9c 52 00
        e 259 9c 35 00
        e 2 9c 29 00
        e 4 9c 3c 00
        e 23 9c 41 00
        e 3 9c 48 00
        e 8 9c 45 00
        e 18 9c 54 00
        e 5 9c 51 7f
        e 6 9c 45 7f
        e 11 9c 39 7f
        e 0 9c 2d 7f
        e 14 9c 3d 7f
        e 256 9c 43 7f
        e 9 9c 4f 7f
        e 6 9c 39 00
        e 4 9c 45 00
        e 8 9c 2d 00
        e 7 9c 51 00
        e 36 9c 4f 00
        e 2 9c 3d 00
        e 23 9c 41 7f
        e 5 9c 4d 7f
        e 1 9c 29 7f
        e 1 9c 35 7f
        e 6 9c 43 00
        e 3 9c 3e 7f
        e 6 9c 39 7f
        e 158 9c 45 7f
        e 13 9c 51 7f
        e 20 9c 41 00
        e 2 9c 4d 00
        e 68 9c 39 00
        e 26 9c 45 00
        e 11 9c 3e 00
        e 4 9c 29 00
        e 3 9c 35 00
        e 12 9c 51 00
        e 25 9c 43 7f
        e 5 9c 40 7f
        e 3 9c 4f 7f
        e 1 9c 3c 7f
        e 22 9c 24 7f
        e 1 9c 30 7f
        e 82 9c 40 00
        e 6 9c 3c 00
        e 43 9c 4f 00
        e 2 9c 43 00
        e 12 9c 30 00
        e 1 9c 45 7f
        e 6 9c 24 00
        e 6 9c 51 7f
        e 9 9c 39 7f
        e 2 9c 3e 7f
        e 12 9c 2d 7f
        e 4 9c 21 7f
        e 89 9c 39 00
        e 4 9c 3e 00
        e 66 9c 21 00
        e 1 9c 2d 00
        e 10 9c 45 00
        e 4 9c 51 00
        e 0 9c 39 7f
        e 3 9c 3c 7f
        e 3 9c 41 7f
        e 12 9c 4d 7f
        e 7 9c 29 7f
        e 3 9c 1d 7f
        e 230 9c 39 00
        e 10 9c 3c 00
        e 76 9c 29 00
        e 3 9c 1d 00
        e 62 9c 4c 7f
        e 1 9c 40 7f
        e 0 9c 30 7f
        e 1 9c 4d 00
        e 2 9c 24 7f
        e 4 9c 41 00
        e 4 9c 3a 7f
        e 1 9c 37 7f
        e 193 9c 37 00
        e 7 9c 3a 00
        e 33 9c 4c 00
        e 51 9c 40 00
        e 17 9c 43 7f
        e 2 9c 4f 7f
        e 6 9c 3a 7f
        e 1 9c 30 00
        e 4 9c 40 7f
        e 10 9c 24 00
        e 54 9c 3a 00
        e 22 9c 4f 00
        e 3 9c 43 00
        e 6 9c 40 00
        e 18 9c 4d 7f
        e 2 9c 29 7f
        e 3 9c 35 7f
        e 2 9c 41 7f
        e 3 9c 39 7f
        e 1 9c 3c 7f
        e 350 9c 4d 00
        e 7 9c 3c 00
        e 14 9c 29 00
        e 3 9c 35 00
        e 1 9c 39 00
        e 2 9c 41 00
        E 341 b0 7b 00
        GUID {1729026B-0FE9-9F4C-89F3-6574ED535013}
        IGNTEMPO 0 120 4 4
        SRCCOLOR 593
        VELLANE -1 86 6
        CFGEDITVIEW 0 22.530612 43 12 0 0 0 0 0 0.5
        KEYSNAP 0
        TRACKSEL 226
        EVTFILTER 0 -1 -1 -1 -1 0 0 0 0 -1 -1 -1 -1 0 -1 0 -1 -1
        CFGEDIT 1 1 0 0 0 0 1 0 1 1 1 0.25 0 187 878 778 0 0 2 3 0 0 0 0 0 -1 0 0 1 64
      >
    >
  >
  <EXTENSIONS
    <SWSAUTOCOLOR
      {00000000-0000-0000-0000-000000000000} 0 "" "" ""
    >
    <BR_CURSOR_POS 04
      0.00000000000000
    >
  >
>
