<REAPER_PROJECT 0.1 "5.20rc3/OSX64" 1462727725
  RIPPLE 0
  GROUPOVERRIDE 0 0 0
  AUTOXFADE 0
  ENVATTACH 1
  MIXERUIFLAGS 11 52
  PEAKGAIN 1
  FEEDBACK 0
  PANLAW 1
  PROJOFFS 0 0
  MAXPROJLEN 0 600
  GRID 174206 8 1 8 1 0 0
  TIMEMODE 6 0 -1 24 2
  PANMODE 3
  CURSOR 2
  ZOOM 13.70643207160672 0 0
  VZOOMEX 0
  USE_REC_CFG 0
  RECMODE 1
  SMPTESYNC 0 23.976024 100 40 1000 300 0 0 1
  MIDIEDITOR -171672382
  LOOP 1
  LOOPGRAN 0 4
  RECORD_PATH "" ""
  <RECORD_CFG
    ZXZhdxAA
  >
  <APPLYFX_CFG
  >
  RENDER_FILE "/Users/samenglander/_create/Reaper/Projects/Magee_ColorFlags/NewAnthems/Render/Thailand.mp3"
  RENDER_FMT 0 2 44100
  RENDER_1X 0
  RENDER_RANGE 2 0 0 18 1000
  RENDER_RESAMPLE 3 0 1
  RENDER_ADDTOPROJ 0
  RENDER_STEMS 0
  RENDER_DITHER 0
  TIMELOCKMODE 1
  TEMPOENVLOCKMODE 1
  ITEMMIX 1
  DEFPITCHMODE 589824
  TAKELANE 3
  SAMPLERATE 44100 0 0
  <RENDER_CFG
    bDNwbSAAAAABAAAABQAAAAAAAAAAAAAAQAEAAAAAAAA=
  >
  LOCK 1
  <METRONOME 6 2
    VOL 0.25 0.125
    FREQ 800 1600 1
    BEATLEN 4
    SAMPLES "" ""
    PATTERN 2863311530 2863311529
  >
  GLOBAL_AUTO -1
  TEMPO 120 4 4
  PLAYRATE 1 0 0.25 4
  SELECTION 18 2
  SELECTION2 18 2
  MASTERAUTOMODE 0
  MASTERTRACKHEIGHT 0
  MASTERPEAKCOL 16576
  MASTERMUTESOLO 0
  MASTERTRACKVIEW 0 1 0.5 0.5 0 0 0
  MASTERHWOUT 0 0 1 0 0 0 0 -1
  MASTER_NCH 2 2
  MASTER_VOLUME 1 0 -1 -1 1
  MASTER_FX 1
  MASTER_SEL 0
  <MASTERPLAYSPEEDENV
    ACT 0
    VIS 0 1 1
    LANEHEIGHT 0 0
    ARM 0
    DEFSHAPE 0 -1 -1
  >
  <TEMPOENVEX
    ACT 0
    VIS 1 0 1
    LANEHEIGHT 0 0
    ARM 0
    DEFSHAPE 1 -1 -1
  >
  <PROJBAY
  >
  <TRACK {4A6CD977-ADCC-3A4D-927C-BB2CEF4B0809}
    NAME Gladiator
    PEAKCOL 27222112
    BEAT -1
    AUTOMODE 0
    VOLPAN 1 0 -1 -1 1
    MUTESOLO 1 0 0
    IPHASE 0
    ISBUS 0 0
    BUSCOMP 2 0
    SHOWINMIX 1 1 0.5 1 0.5 0 0 0
    FREEMODE 0
    SEL 0
    REC 0 0 0 0 0 0 0
    VU 2
    TRACKHEIGHT 0 0
    INQ 0 0 0 0.5 100 0 0 100
    NCHAN 2
    FX 1
    TRACKID {4A6CD977-ADCC-3A4D-927C-BB2CEF4B0809}
    PERF 0
    MIDIOUT -1
    MAINSEND 1 0
    <FXCHAIN
      SHOW 0
      LASTSEL 0
      DOCKED 0
      BYPASS 0 0 0
      <VST "VSTi: Gladiator (Tone2.com)" Gladiator.vst 0 "" 1412581196
        TEcyVO5e7f4AAAAAAgAAAAEAAAAAAAAAAgAAAAAAAABaBAAAAQAAAAAAEAA=
        Q2NuSwAAAGBGeENrAAAAAVQyR0wAAAABAAABB0luaXQAAAAAAAAAAAAAAAAAAAAAAAAAAAAAAAA9zMzNPMzMzTw0OVg9uFH0PXnbIz+AAAA7xJumPb52yT+AAAA7xJum
        AAAAAD6mZmY+PXCkP4AAAD7FHrk/AAAAPwAAAAAAAAA9ffO2PdDlYDy8an8/RR64AAAAAD+AAAA8NDlYPZFocz71wo87RJumPbhR6D69cKQ+PXCkP4AAAD8AAAA/A9cL
        PwAAAAAAAAAAAAAAPwAAAD8AAAA/AAAAPtmZmj8AAAAAAAAAO+VgQj24UesAAAAAPk21xDtEm6Y/S4UeAAAAAAAAAAA+64UgPpR64T1hR7A+z1woPx64Uj49cKY/AAAA
        PwAAAAAAAAAAAAAAPwAAAAAAAAAAAAAAP4AAAD+AAAAAAAAAPxHrhT8AAAA/AAAAPwAAAD8AAAAAAAAAPwAAAD8AAAA/AAAAAAAAAD8AAAA/AAAAPwAAAAAAAAA6gxJv
        P1Cj1wAAAAA/gAAAAAAAADqDEm8/AAAAAAAAAAAAAAAAAAAAPwAAAAAAAAA/gAAAAAAAAD+AAAAAAAAAPwAAAD8AAAA/AAAAPwAAAD8AAAA/AAAAPwAAAD8AAAA/AAAA
        PwAAAD8AAAA/EeuGPKPXCjqDEm88RJumAAAAAAAAAAAAAAAAPLxqfwAAAAAAAAAAAAAAAAAAAAAAAAAAAAAAAAAAAAAAAAAAAAAAAAAAAAAAAAAAAAAAAAAAAAAAAAAA
        AAAAAAAAAAA8E3S8AAAAADw0OVgAAAAAPBN0vAAAAAA8NDlYAAAAADwTdLwAAAAAPDQ5WAAAAAA8E3S8AAAAADw0OVgAAAAAPGVgQj2HKwI8ZWBCOwMSbz2JN0w7AxJv
        PLQ5WDyLQ5Y8k3S8PVT99D0XjVA8zMzNPoAAAD9ywjU/AAAAP1GnuT8wjT4/HLCNAAAAADsDEm86gxJvAAAAAAAAAAAAAAAAPwAAADqDEm87RJumP4AAAAAAAAA/gAAA
        AAAAAD+AAAAAAAAAAAAAAAAAAAAAAAAAP4AAAAAAAAA/AAAAAAAAAD8AAAA/BR64PwAAAD+AAAA/AAAAPwAAAD8AAAA/gAAAP4AAAAAAAAAAAAAAAAAAAD8AAAA/gAAA
        PwAAAAAAAAA+vXCkAAAAAAAAAAA/gAAAP4AAAD8j1wo/gAAAAAAAAAAAAAA/gAAAPwAAAAAAAAAAAAAAAAAAAAAAAAAAAAAAAAAAAAAAAAAAAAAAAAAAAAAAAAAAAAAA
        AAAAAD8AAAA/AAAAPwAAAD8AAAA/AAAAPwAAAAAAAAAAAAAAP4AAAAAAAAAAAAAAAAAAAAAAAAAAAAAAAAAAAAAAAAAAAAAAAAAAAAAAAAAAAAAAAAAAAAAAAAAAAAAA
        AAAAAAAAAAAAAAAAAAAAAAAAAAAAAAAAAAAAAAAAAAAAAAAAAAAAAAAAAAAAAAAAAAAAAAAAqqusrQ==
        AAAQAAAA
      >
      FLOATPOS 500 379 987 799
      FXID {532372E3-5B0D-9345-A9C8-98A8EBAF9A7E}
      WAK 0
    >
    <ITEM
      POSITION 0
      SNAPOFFS 0
      LENGTH 33.5
      LOOP 1
      ALLTAKES 0
      FADEIN 1 0 0 1 0 0
      FADEOUT 1 0 0 1 0 0
      MUTE 0
      SEL 0
      YPOS 0.3 0.1
      IGUID {7A80E147-B085-6E4F-A718-A3AC5FAF7137}
      IID 2
      NAME "RH                   - National_Anthems_-_Thailand.mid"
      VOLPAN 1 0 1 -1
      SOFFS 0 0
      PLAYRATE 1 1 0 -1 0 0.0025
      CHANMODE 0
      GUID {04F096D0-42EE-5D4A-9BCC-70A2BE008C5E}
      <SOURCE MIDI
        HASDATA 1 192 QN
        POOLEDEVTS {4697D630-C5BD-974B-A74C-F5CCFCFEAC55}
        <X 0 0
          /wNSSCAgICAgICAgICAgICAgICAgIA==
        >
        e 528 91 37 7f
        e 34 81 37 40
        e 14 91 3c 7f
        e 130 81 3c 40
        e 14 91 40 7f
        e 34 81 40 40
        e 14 91 3c 7f
        e 0 91 40 7f
        e 0 91 43 7f
        e 178 81 3c 40
        e 0 81 40 40
        e 0 81 43 40
        e 14 91 40 7f
        e 0 91 43 7f
        e 130 81 40 40
        e 0 81 43 40
        e 14 91 40 7f
        e 0 91 43 7f
        e 34 81 40 40
        e 0 81 43 40
        e 14 91 41 7f
        e 0 91 45 7f
        e 130 81 45 40
        e 14 91 43 7f
        e 34 81 41 40
        e 0 81 43 40
        e 14 91 41 7f
        e 130 81 41 40
        e 14 91 45 7f
        e 34 81 45 40
        e 14 91 40 7f
        e 0 91 43 7f
        e 370 81 40 40
        e 0 81 43 40
        e 14 91 3c 7f
        e 0 91 40 7f
        e 178 81 3c 40
        e 0 81 40 40
        e 14 91 3c 7f
        e 0 91 40 7f
        e 130 81 40 40
        e 14 91 41 7f
        e 34 81 3c 40
        e 0 81 41 40
        e 14 91 3c 7f
        e 0 91 40 7f
        e 130 81 3c 40
        e 0 81 40 40
        e 14 91 3e 7f
        e 34 81 3e 40
        e 14 91 3b 7f
        e 0 91 3e 7f
        e 322 81 3b 40
        e 0 81 3e 40
        e 14 91 3b 7f
        e 0 91 3e 7f
        e 34 81 3b 40
        e 0 81 3e 40
        e 14 91 3b 7f
        e 0 91 3e 7f
        e 130 81 3b 40
        e 0 81 3e 40
        e 14 91 3b 7f
        e 0 91 40 7f
        e 34 81 3b 40
        e 0 81 40 40
        e 14 91 3b 7f
        e 0 91 3e 7f
        e 130 81 3b 40
        e 0 81 3e 40
        e 14 91 3c 7f
        e 34 81 3c 40
        e 14 91 3c 7f
        e 370 81 3c 40
        e 14 91 3c 7f
        e 130 81 3c 40
        e 14 91 40 7f
        e 34 81 40 40
        e 14 91 3c 7f
        e 0 91 40 7f
        e 0 91 43 7f
        e 178 81 3c 40
        e 0 81 40 40
        e 0 81 43 40
        e 14 91 40 7f
        e 0 91 43 7f
        e 178 81 40 40
        e 0 81 43 40
        e 14 91 41 7f
        e 0 91 45 7f
        e 130 81 45 40
        e 14 91 43 7f
        e 34 81 41 40
        e 0 81 43 40
        e 14 91 41 7f
        e 130 81 41 40
        e 14 91 45 7f
        e 34 81 45 40
        e 14 91 40 7f
        e 0 91 43 7f
        e 562 81 40 40
        e 0 81 43 40
        e 14 91 40 7f
        e 0 91 43 7f
        e 130 81 43 40
        e 14 91 45 7f
        e 34 81 40 40
        e 0 81 45 40
        e 14 91 3e 7f
        e 0 91 47 7f
        e 130 81 47 40
        e 14 91 43 7f
        e 34 81 3e 40
        e 0 81 43 40
        e 14 91 3e 7f
        e 0 91 43 7f
        e 0 91 4a 7f
        e 322 81 3e 40
        e 0 81 43 40
        e 0 81 4a 40
        e 14 91 3e 7f
        e 34 81 3e 40
        e 14 91 3c 7f
        e 0 91 3e 7f
        e 0 91 45 7f
        e 130 81 45 40
        e 14 91 47 7f
        e 34 81 3c 40
        e 0 81 3e 40
        e 0 81 47 40
        e 14 91 3c 7f
        e 0 91 3e 7f
        e 0 91 45 7f
        e 370 81 3c 40
        e 0 81 3e 40
        e 0 81 45 40
        e 14 91 3b 7f
        e 0 91 3e 7f
        e 0 91 43 7f
        e 82 81 3b 40
        e 0 81 3e 40
        e 0 81 43 40
        e 110 91 43 7f
        e 130 81 43 40
        e 14 91 45 7f
        e 34 81 45 40
        e 14 91 43 7f
        e 82 81 43 40
        e 14 91 41 7f
        e 82 81 41 40
        e 14 91 3e 7f
        e 370 81 3e 40
        e 14 91 41 7f
        e 130 81 41 40
        e 14 91 45 7f
        e 34 81 45 40
        e 14 91 43 7f
        e 82 81 43 40
        e 14 91 40 7f
        e 82 81 40 40
        e 14 91 3c 7f
        e 370 81 3c 40
        e 14 91 3c 7f
        e 130 81 3c 40
        e 14 91 40 7f
        e 34 81 40 40
        e 14 91 3e 7f
        e 178 81 3e 40
        e 14 91 3c 7f
        e 0 91 3e 7f
        e 130 81 3c 40
        e 0 81 3e 40
        e 14 91 3c 7f
        e 0 91 3e 7f
        e 34 81 3c 40
        e 0 81 3e 40
        e 14 91 3c 7f
        e 0 91 3e 7f
        e 0 91 45 7f
        e 178 81 3c 40
        e 0 81 3e 40
        e 0 81 45 40
        e 14 91 3c 7f
        e 0 91 42 7f
        e 0 91 47 7f
        e 130 81 47 40
        e 14 91 45 7f
        e 34 81 3c 40
        e 0 81 42 40
        e 0 81 45 40
        e 14 91 3b 7f
        e 0 91 3e 7f
        e 0 91 43 7f
        e 466 81 3b 40
        e 0 81 3e 40
        e 0 81 43 40
        e 62 91 3c 7f
        e 34 81 3c 40
        e 14 91 3c 7f
        e 130 81 3c 40
        e 14 91 40 7f
        e 34 81 40 40
        e 14 91 3c 7f
        e 0 91 40 7f
        e 0 91 43 7f
        e 178 81 3c 40
        e 0 81 40 40
        e 0 81 43 40
        e 14 91 3c 7f
        e 0 91 40 7f
        e 0 91 43 7f
        e 178 81 3c 40
        e 0 81 40 40
        e 0 81 43 40
        e 14 91 41 7f
        e 0 91 45 7f
        e 130 81 45 40
        e 14 91 47 7f
        e 34 81 41 40
        e 0 81 47 40
        e 14 91 45 7f
        e 0 91 48 7f
        e 130 81 48 40
        e 14 91 4a 7f
        e 34 81 45 40
        e 0 81 4a 40
        e 14 91 44 7f
        e 0 91 47 7f
        e 0 91 4c 7f
        e 514 81 44 40
        e 0 81 47 40
        e 0 81 4c 40
        e 14 91 40 7f
        e 0 91 47 7f
        e 0 91 4a 7f
        e 34 81 40 40
        e 0 81 47 40
        e 0 81 4a 40
        e 14 91 3f 7f
        e 0 91 45 7f
        e 0 91 48 7f
        e 130 81 3f 40
        e 0 81 45 40
        e 0 81 48 40
        e 14 91 3c 7f
        e 0 91 3f 7f
        e 0 91 45 7f
        e 34 81 3c 40
        e 0 81 3f 40
        e 0 81 45 40
        e 14 91 3c 7f
        e 0 91 40 7f
        e 0 91 43 7f
        e 130 81 43 40
        e 14 91 45 7f
        e 34 81 3c 40
        e 0 81 40 40
        e 0 81 45 40
        e 14 91 43 7f
        e 0 91 47 7f
        e 130 81 47 40
        e 14 91 48 7f
        e 34 81 43 40
        e 0 81 48 40
        e 14 91 41 7f
        e 0 91 43 7f
        e 0 91 4c 7f
        e 130 81 4c 40
        e 14 91 48 7f
        e 34 81 41 40
        e 0 81 43 40
        e 0 81 48 40
        e 14 91 41 7f
        e 0 91 43 7f
        e 0 91 4a 7f
        e 130 81 4a 40
        e 14 91 48 7f
        e 34 81 41 40
        e 0 81 43 40
        e 0 81 48 40
        e 14 91 40 7f
        e 0 91 43 7f
        e 0 91 48 7f
        e 466 81 40 40
        e 0 81 43 40
        e 0 81 48 40
        E 110 b0 7b 00
        GUID {226E9532-49BE-9B4D-8B73-AA183DD4B37B}
        IGNTEMPO 0 120 4 4
        SRCCOLOR 50
        VELLANE -1 86 6
        CFGEDITVIEW 6576.669833 229.869097 50 14 0 0 0 0 0 0.5
        KEYSNAP 0
        TRACKSEL 252 0 0 ""
        EVTFILTER 0 -1 -1 -1 -1 0 0 0 0 -1 -1 -1 -1 0 -1 0 -1 -1
        CFGEDIT 1 0 0 0 0 0 1 0 1 1 1 0.25 301 36 1280 633 0 0 2 3 0 0 0 0 0 0.5 0 0 1 64
      >
    >
  >
  <TRACK {CC74D01B-E218-4E4D-A490-FD01DDD0745B}
    NAME 8BitShaper1
    PEAKCOL 16576
    BEAT -1
    AUTOMODE 0
    VOLPAN 1 0 -1 -1 1
    MUTESOLO 1 0 0
    IPHASE 0
    ISBUS 0 0
    BUSCOMP 0 0
    SHOWINMIX 1 1 0.5 1 0.5 0 0 0
    FREEMODE 0
    SEL 0
    REC 0 0 0 0 0 0 0
    VU 2
    TRACKHEIGHT 0 0
    INQ 0 0 0 0.5 100 0 0 100
    NCHAN 2
    FX 1
    TRACKID {CC74D01B-E218-4E4D-A490-FD01DDD0745B}
    PERF 0
    MIDIOUT -1
    MAINSEND 1 0
    <FXCHAIN
      WNDRECT 528 36 724 387
      SHOW 0
      LASTSEL 0
      DOCKED 1
      BYPASS 0 0 0
      <VST "VSTi: chipsounds (Plogue Art et Technologie, Inc)" chipsounds.vst 0 "" 1347176271
        T0dMUO5e7f4AAAAABAAAAAEAAAAAAAAAAgAAAAAAAAAEAAAAAAAAAAgAAAAAAAAAzgIAAAEAAAAAABAA
        Q0VHUDcMAAB4nL2XXW+bMBSG7/srLK62ixIbAgQpSZUvpkjLGonsunKIS9EMZGCytr9+thMCtCk40zbfxD5+7HNeHyOfDO+eYwoOJMujNBlpSIcauBvfDCdZhH18ILUp
        Gxra+AbwNvQJY1ES5uBngWnEXvisBkKabjFdp5QPTUMDOcsIjjl2HMb42ZeWCaVpsJqONAtx82o5X94XbJXuiNwFFyyNMeMufZqykcbjyQM+4zqO6GGKuQ2BW0CEbz0P
        6Mk8Iwkj2UizYRnKpkikd6hD2TTQK+PnW4NoJx0mOCZiSx2si4yA2VO07/nLec+2Bgh8+rbxZ581sMXJj6XgIXQ1EDzhJCFULt9LvcjWADu5u0WVw/32IcNJSIT1bGTc
        lO/TnEh1ccGOnfzXA8U5l1weswx1haNEhsqJA6YFkUlq6mmC6Ay+E94EDVXQVAX7qqClCtqqoKMKDlRBVxVEUJlUzg1STg5Szg5STg/qys8aZzi+cNuQbTsfkV2KKrIr
        zop0Oj6KWpz1JFntm9Y19VErajR2tdrQK1RZyrKcrg+kQgd11GxF3caNdgeu+WFWkdk8ArON7VcsMrridWEVRb+TRcpH5kLjClY9ay6sDtjoZAdXxOBeccs7xW1wFhJ2
        evaCNNbXNA0LoosXX//q3etFTjJYe4LkqlmR83d5jhkG7GUvFBqmzc88j15FeoSaslDg/kiyi/Cxu+NLeKds3vHHKMcItrdFxzy8JLF31HitaPS/RP+l9qeiN1kUhiTz
        eQVFkoBknbKRYyC3lI0su6bbuKT7lFTv1OBEjBwPGsiCU8ebvlNizhzPvSRx5jQuyAKa3nvr/I3VhhZvE+ufWuE11jei4CVraz6HPVGynvqLx0cSsHMNC8sadhJvI5HQ
        t+VqWfV++b4sF+CARQeyPJfYx/GiKrkJ5S7IboO3onSVewx75Z+C8c1vCFfwvw==
        AAAQAAAA
      >
      FLOATPOS 404 36 871 509
      FXID {A0646B08-E711-BF49-8783-28316B119F0D}
      WAK 0
      BYPASS 0 0 0
      <VST "VST: 8-Bit Shaper (Xfer Records)" 8BitShaper.vst 0 "" 1148539762
        clN1RO5e7f4CAAAAAQAAAAAAAAACAAAAAAAAAAQAAAABAAAAAAAAAAIAAAAAAAAABAAAAAAAAAAIAAAAAAAAADQCAAABAAAAAAAQAA==
        ZmaGPx5sTj/gavQ+MrQ+PzwAAAAAAIA/FEMAIAAAAAAXAAAAMAAAABkAAAAaAAAAGgAAABoAAAAbAAAAGwAAABwAAAAcAAAAHAAAAB0AAAAdAAAAHgAAAB4AAAAfAAAA
        HwAAACAAAAAgAAAAIAAAACEAAAAhAAAAIQAAACIAAAAiAAAAIgAAACMAAAAjAAAAIwAAACQAAAAkAAAAJAAAACUAAAAlAAAAKAAAACgAAAApAAAAKQAAACoAAAA1AAAA
        KgAAACoAAAA2AAAAKgAAACoAAAAqAAAAKgAAACoAAAAqAAAAKgAAACsAAAArAAAAOQAAAC0AAAA0AAAAOgAAAC0AAAAtAAAAPAAAAC4AAAAuAAAALwAAADAAAAAwAAAA
        MQAAADEAAAAxAAAAMgAAADMAAAAzAAAAMwAAADcAAAA3AAAANwAAADgAAAA4AAAAOAAAADkAAAA5AAAAOQAAADoAAAA6AAAAOgAAADoAAAA6AAAAOwAAADsAAAA7AAAA
        PAAAADsAAAA7AAAAOwAAADwAAAA8AAAAPAAAADwAAAA9AAAAPQAAAD0AAAA9AAAAPQAAAD4AAAA+AAAAPwAAAEkAAABAAAAAQAAAAEgAAABAAAAAQQAAAEIAAABCAAAA
        QgAAAEMAAABDAAAAQwAAAEQAAABEAAAARQAAAE0AAABGAAAARwAAAEYAAABHAAAASAAAAEgAAABJAAAATwAAAAAAgD+rqqo+AACAP9VjzT4mXIw+
        AEluaXQgMQAQAAAA
      >
      PRESETNAME "Init 1"
      FLOATPOS 342 36 278 389
      FXID {A90868C7-B77C-BB4D-8208-740517688A17}
      WAK 0
    >
    <ITEM
      POSITION 0
      SNAPOFFS 0
      LENGTH 33.5
      LOOP 1
      ALLTAKES 0
      FADEIN 1 0 0 1 0 0
      FADEOUT 1 0 0 1 0 0
      MUTE 0
      SEL 0
      YPOS 0.3 0.1
      IGUID {B57D1003-6430-BE46-B4A8-280C344A87CA}
      IID 2
      NAME "RH                   - National_Anthems_-_Thailand.mid"
      VOLPAN 1 0 1 -1
      SOFFS 0 0
      PLAYRATE 1 1 0 -1 0 0.0025
      CHANMODE 0
      GUID {DFC18DC6-58C3-1243-9CEE-24A3905F8AF3}
      <SOURCE MIDI
        HASDATA 1 192 QN
        POOLEDEVTS {B2BE3DD6-EB96-4242-8B78-C24A741877DE}
        <X 0 0
          /wNSSCAgICAgICAgICAgICAgICAgIA==
        >
        e 528 91 37 7f
        e 34 81 37 40
        e 14 91 3c 7f
        e 130 81 3c 40
        e 14 91 40 7f
        e 34 81 40 40
        e 14 91 3c 7f
        e 0 91 40 7f
        e 0 91 43 7f
        e 178 81 3c 40
        e 0 81 40 40
        e 0 81 43 40
        e 14 91 40 7f
        e 0 91 43 7f
        e 130 81 40 40
        e 0 81 43 40
        e 14 91 40 7f
        e 0 91 43 7f
        e 34 81 40 40
        e 0 81 43 40
        e 14 91 41 7f
        e 0 91 45 7f
        e 130 81 45 40
        e 14 91 43 7f
        e 34 81 41 40
        e 0 81 43 40
        e 14 91 41 7f
        e 130 81 41 40
        e 14 91 45 7f
        e 34 81 45 40
        e 14 91 40 7f
        e 0 91 43 7f
        e 370 81 40 40
        e 0 81 43 40
        e 14 91 3c 7f
        e 0 91 40 7f
        e 178 81 3c 40
        e 0 81 40 40
        e 14 91 3c 7f
        e 0 91 40 7f
        e 130 81 40 40
        e 14 91 41 7f
        e 34 81 3c 40
        e 0 81 41 40
        e 14 91 3c 7f
        e 0 91 40 7f
        e 130 81 3c 40
        e 0 81 40 40
        e 14 91 3e 7f
        e 34 81 3e 40
        e 14 91 3b 7f
        e 0 91 3e 7f
        e 322 81 3b 40
        e 0 81 3e 40
        e 14 91 3b 7f
        e 0 91 3e 7f
        e 34 81 3b 40
        e 0 81 3e 40
        e 14 91 3b 7f
        e 0 91 3e 7f
        e 130 81 3b 40
        e 0 81 3e 40
        e 14 91 3b 7f
        e 0 91 40 7f
        e 34 81 3b 40
        e 0 81 40 40
        e 14 91 3b 7f
        e 0 91 3e 7f
        e 130 81 3b 40
        e 0 81 3e 40
        e 14 91 3c 7f
        e 34 81 3c 40
        e 14 91 3c 7f
        e 370 81 3c 40
        e 14 91 3c 7f
        e 130 81 3c 40
        e 14 91 40 7f
        e 34 81 40 40
        e 14 91 3c 7f
        e 0 91 40 7f
        e 0 91 43 7f
        e 178 81 3c 40
        e 0 81 40 40
        e 0 81 43 40
        e 14 91 40 7f
        e 0 91 43 7f
        e 178 81 40 40
        e 0 81 43 40
        e 14 91 41 7f
        e 0 91 45 7f
        e 130 81 45 40
        e 14 91 43 7f
        e 34 81 41 40
        e 0 81 43 40
        e 14 91 41 7f
        e 130 81 41 40
        e 14 91 45 7f
        e 34 81 45 40
        e 14 91 40 7f
        e 0 91 43 7f
        e 562 81 40 40
        e 0 81 43 40
        e 14 91 40 7f
        e 0 91 43 7f
        e 130 81 43 40
        e 14 91 45 7f
        e 34 81 40 40
        e 0 81 45 40
        e 14 91 3e 7f
        e 0 91 47 7f
        e 130 81 47 40
        e 14 91 43 7f
        e 34 81 3e 40
        e 0 81 43 40
        e 14 91 3e 7f
        e 0 91 43 7f
        e 0 91 4a 7f
        e 322 81 3e 40
        e 0 81 43 40
        e 0 81 4a 40
        e 14 91 3e 7f
        e 34 81 3e 40
        e 14 91 3c 7f
        e 0 91 3e 7f
        e 0 91 45 7f
        e 130 81 45 40
        e 14 91 47 7f
        e 34 81 3c 40
        e 0 81 3e 40
        e 0 81 47 40
        e 14 91 3c 7f
        e 0 91 3e 7f
        e 0 91 45 7f
        e 370 81 3c 40
        e 0 81 3e 40
        e 0 81 45 40
        e 14 91 3b 7f
        e 0 91 3e 7f
        e 0 91 43 7f
        e 82 81 3b 40
        e 0 81 3e 40
        e 0 81 43 40
        e 110 91 43 7f
        e 130 81 43 40
        e 14 91 45 7f
        e 34 81 45 40
        e 14 91 43 7f
        e 82 81 43 40
        e 14 91 41 7f
        e 82 81 41 40
        e 14 91 3e 7f
        e 370 81 3e 40
        e 14 91 41 7f
        e 130 81 41 40
        e 14 91 45 7f
        e 34 81 45 40
        e 14 91 43 7f
        e 82 81 43 40
        e 14 91 40 7f
        e 82 81 40 40
        e 14 91 3c 7f
        e 370 81 3c 40
        e 14 91 3c 7f
        e 130 81 3c 40
        e 14 91 40 7f
        e 34 81 40 40
        e 14 91 3e 7f
        e 178 81 3e 40
        e 14 91 3c 7f
        e 0 91 3e 7f
        e 130 81 3c 40
        e 0 81 3e 40
        e 14 91 3c 7f
        e 0 91 3e 7f
        e 34 81 3c 40
        e 0 81 3e 40
        e 14 91 3c 7f
        e 0 91 3e 7f
        e 0 91 45 7f
        e 178 81 3c 40
        e 0 81 3e 40
        e 0 81 45 40
        e 14 91 3c 7f
        e 0 91 42 7f
        e 0 91 47 7f
        e 130 81 47 40
        e 14 91 45 7f
        e 34 81 3c 40
        e 0 81 42 40
        e 0 81 45 40
        e 14 91 3b 7f
        e 0 91 3e 7f
        e 0 91 43 7f
        e 466 81 3b 40
        e 0 81 3e 40
        e 0 81 43 40
        e 62 91 3c 7f
        e 34 81 3c 40
        e 14 91 3c 7f
        e 130 81 3c 40
        e 14 91 40 7f
        e 34 81 40 40
        e 14 91 3c 7f
        e 0 91 40 7f
        e 0 91 43 7f
        e 178 81 3c 40
        e 0 81 40 40
        e 0 81 43 40
        e 14 91 3c 7f
        e 0 91 40 7f
        e 0 91 43 7f
        e 178 81 3c 40
        e 0 81 40 40
        e 0 81 43 40
        e 14 91 41 7f
        e 0 91 45 7f
        e 130 81 45 40
        e 14 91 47 7f
        e 34 81 41 40
        e 0 81 47 40
        e 14 91 45 7f
        e 0 91 48 7f
        e 130 81 48 40
        e 14 91 4a 7f
        e 34 81 45 40
        e 0 81 4a 40
        e 14 91 44 7f
        e 0 91 47 7f
        e 0 91 4c 7f
        e 514 81 44 40
        e 0 81 47 40
        e 0 81 4c 40
        e 14 91 40 7f
        e 0 91 47 7f
        e 0 91 4a 7f
        e 34 81 40 40
        e 0 81 47 40
        e 0 81 4a 40
        e 14 91 3f 7f
        e 0 91 45 7f
        e 0 91 48 7f
        e 130 81 3f 40
        e 0 81 45 40
        e 0 81 48 40
        e 14 91 3c 7f
        e 0 91 3f 7f
        e 0 91 45 7f
        e 34 81 3c 40
        e 0 81 3f 40
        e 0 81 45 40
        e 14 91 3c 7f
        e 0 91 40 7f
        e 0 91 43 7f
        e 130 81 43 40
        e 14 91 45 7f
        e 34 81 3c 40
        e 0 81 40 40
        e 0 81 45 40
        e 14 91 43 7f
        e 0 91 47 7f
        e 130 81 47 40
        e 14 91 48 7f
        e 34 81 43 40
        e 0 81 48 40
        e 14 91 41 7f
        e 0 91 43 7f
        e 0 91 4c 7f
        e 130 81 4c 40
        e 14 91 48 7f
        e 34 81 41 40
        e 0 81 43 40
        e 0 81 48 40
        e 14 91 41 7f
        e 0 91 43 7f
        e 0 91 4a 7f
        e 130 81 4a 40
        e 14 91 48 7f
        e 34 81 41 40
        e 0 81 43 40
        e 0 81 48 40
        e 14 91 40 7f
        e 0 91 43 7f
        e 0 91 48 7f
        e 466 81 40 40
        e 0 81 43 40
        e 0 81 48 40
        E 110 b0 7b 00
        GUID {226E9532-49BE-9B4D-8B73-AA183DD4B37B}
        IGNTEMPO 0 120 4 4
        SRCCOLOR 50
        VELLANE -1 86 6
        CFGEDITVIEW 6576.669833 229.869097 50 14 0 0 0 0 0 0.5
        KEYSNAP 0
        TRACKSEL 252 0 0 ""
        EVTFILTER 0 -1 -1 -1 -1 0 0 0 0 -1 -1 -1 -1 0 -1 0 -1 -1
        CFGEDIT 1 0 0 0 0 0 1 0 1 1 1 0.25 301 36 1280 633 0 0 2 3 0 0 0 0 0 0.5 0 0 1 64
      >
    >
  >
  <TRACK {B0448BAA-9F98-5543-9DF7-CDB8296564E0}
    NAME Full
    PEAKCOL 16576
    BEAT -1
    AUTOMODE 0
    VOLPAN 1 0 -1 -1 1
    MUTESOLO 1 0 0
    IPHASE 0
    ISBUS 0 0
    BUSCOMP 0 0
    SHOWINMIX 1 1 0.5 1 0.5 0 0 0
    FREEMODE 0
    SEL 0
    REC 0 0 0 0 0 0 0
    VU 2
    TRACKHEIGHT 0 0
    INQ 0 0 0 0.5 100 0 0 100
    NCHAN 2
    FX 1
    TRACKID {B0448BAA-9F98-5543-9DF7-CDB8296564E0}
    PERF 0
    MIDIOUT -1
    MAINSEND 1 0
    <FXCHAIN
      WNDRECT 528 36 724 387
      SHOW 0
      LASTSEL 0
      DOCKED 1
      BYPASS 0 0 0
      <VST "VSTi: chipsounds (Plogue Art et Technologie, Inc)" chipsounds.vst 0 "" 1347176271
        T0dMUO5e7f4AAAAABAAAAAEAAAAAAAAAAgAAAAAAAAAEAAAAAAAAAAgAAAAAAAAAkgMAAAEAAAAAABAA
        Q0VHUG8YAAB4nO1ZXW/aMBR976+w8rQ9NNjOF5GgFVCYkMaKFvZcmeDSaPlgicPW/fo5CWkSoI5pO61T6xds5/j6Hl87Odf0Ln8FPtjSOPGisK8gFSrg8uKsN4g94pAt
        rT0yIVYuzgAvPYcy5oXrBPxIie+xe/5UAWs/WhJ/Hvm8qWEFJCymJOCwohmQX07eM/D9yJ0N+4qBePdsejW9TtksWtHcCklZFBDGp3T8iPUV7k/i8ie2aWQ14hPeh8A5
        oNncauL6u+4RDRmN+4oJS1cWaZjPDlWYFwV0Sv+5aeCtcushCWhmUgXzNKZgdOdtOs70qmMaXQQ+fFk4o48KWJLw+5TjEYS2Atw7EobUz4dvcr66AtjBbJvlTUzCNbd+
        jh46Ge9KNlFC89FByopK8vPGJwnLLBU+5n7OiBeWfm6Jn9I8Qk0yTSB6AB6wbgKxLFCTBeqyQEMWaMoCLVlgVxZoywIRlEZKxwZJBwdJRwdJhwe1xWdOYhJIbaIK2TZ7
        hbRatnqFbCy9bhsiaH2dsCG0WncV60LoCb7WNxTShAtQp6VhIbS+pXQkhNZjhbpCaGOxxL7WF8sULpZV31aW2KrZ8FUUWKt5okXQbt2qJoxW15aG2vVoIVu8s6oYINx2
        DmxYWTZbsdVGwK1YLL1rbSh/bm1onmC3ewLWPuGNcAI5HgKtBbwg8ZqynURwo0Cd+9E6pWqmjtTPk2s1TWgMa1/sfNQoTbiGuSKMAHa/yUKCNZMHKPF+84aeUS9FFZ+P
        hiuPFNUVH8IrZZkUPxi+bGlS7BQcTyWN3hLpr9xdGnN159Ako6AmjG7eStgXsbde09jhepuGLo1baSMLZ1+7grZl12jjY7TRjvWuwPx1a00g5nU47lpon4g2sia2BGEE
        dWnsExat18myiP2EAj0voUBlQoGrhAI9M6PA7xnFe0bxv2QUTUbINC2Z3MOGRn6Z0J57YEs3M6HyormHIYRabfF8RM8bulD4NuIkTH4aIl2zhA7UI4XFuUfbWXqS8n66
        RtZP0MjtmvPva+R2nf7PNPLrkr0HAmCvjFuew2MU32WvkPTzRB/K3tqnqb5h1spUHzLg0JoMD5g8ruRKhWjyj4BhDAwtW8vRq+097u9eGcFjvY8VWZU6vr2lLju8/B4E
        Sy8L874sLa/LP32blgOIy7wtnT7czRftcXVXT30+BV0tyDJvcxO9TvlnwsXZH748z3Q=
        AAAQAAAA
      >
      FLOATPOS 234 131 871 509
      FXID {EB6E3C1B-C183-B049-9DEC-8687053F37E2}
      WAK 0
      BYPASS 0 0 0
      <VST "VST: 8-Bit Shaper (Xfer Records)" 8BitShaper.vst 0 "" 1148539762
        clN1RO5e7f4CAAAAAQAAAAAAAAACAAAAAAAAAAQAAAABAAAAAAAAAAIAAAAAAAAABAAAAAAAAAAIAAAAAAAAADQCAAABAAAAAAAQAA==
        ZmaGP20MlT7dQQw/AAAAPyQAL/8AAIA/Ly8v/y8vL/8XAAAAMAAAABkAAAAaAAAAGgAAABoAAAAbAAAAGwAAABwAAAAcAAAAHAAAAB0AAAAdAAAAHgAAAB4AAAAfAAAA
        HwAAACAAAAAgAAAAIAAAACEAAAAhAAAAIQAAACIAAAAiAAAAIgAAACMAAAAjAAAAIwAAACQAAAAkAAAAJAAAACUAAAAlAAAAKAAAACgAAAApAAAAKQAAACoAAAA1AAAA
        KgAAACoAAAA2AAAAKgAAACoAAAAqAAAAKgAAACoAAAAqAAAAKgAAACsAAAArAAAAOQAAAC0AAAA0AAAAOgAAAC0AAAAtAAAAPAAAAC4AAAAuAAAALwAAADAAAAAwAAAA
        MQAAADEAAAAxAAAAMgAAADMAAAAzAAAAMwAAADcAAAA3AAAANwAAADgAAAA4AAAAOAAAADkAAAA5AAAAOQAAADoAAAA6AAAAOgAAADoAAAA6AAAAOwAAADsAAAA7AAAA
        PAAAADsAAAA7AAAAOwAAADwAAAA8AAAAPAAAADwAAAA9AAAAPQAAAD0AAAA9AAAAPQAAAD4AAAA+AAAAPwAAAEkAAABAAAAAQAAAAEgAAABAAAAAQQAAAEIAAABCAAAA
        QgAAAEMAAABDAAAAQwAAAEQAAABEAAAARQAAAE0AAABGAAAARwAAAEYAAABHAAAASAAAAEgAAABJAAAATwAAAAAAgD+rqqo+q6qqPh0Fwz6OAm0/
        AEluaXQgMQAQAAAA
      >
      PRESETNAME "Init 1"
      FLOATPOS 404 36 278 389
      FXID {B05373F8-A2E3-654E-9174-7FC7813FD72D}
      WAK 0
      BYPASS 1 0 0
      <VST "VST: 8-Bit Shaper (Xfer Records)" 8BitShaper.vst 0 "" 1148539762
        clN1RO5e7f4CAAAAAQAAAAAAAAACAAAAAAAAAAIAAAABAAAAAAAAAAIAAAAAAAAANAIAAAEAAAAAABAA
        ZmaGP20MlT7dQQw/AAAAPyQAAAAAAIA/AAAAAAAAVEAXAAAAMAAAABkAAAAaAAAAGgAAABoAAAAbAAAAGwAAABwAAAAcAAAAHAAAAB0AAAAdAAAAHgAAAB4AAAAfAAAA
        HwAAACAAAAAgAAAAIAAAACEAAAAhAAAAIQAAACIAAAAiAAAAIgAAACMAAAAjAAAAIwAAACQAAAAkAAAAJAAAACUAAAAlAAAAKAAAACgAAAApAAAAKQAAACoAAAA1AAAA
        KgAAACoAAAA2AAAAKgAAACoAAAAqAAAAKgAAACoAAAAqAAAAKgAAACsAAAArAAAAOQAAAC0AAAA0AAAAOgAAAC0AAAAtAAAAPAAAAC4AAAAuAAAALwAAADAAAAAwAAAA
        MQAAADEAAAAxAAAAMgAAADMAAAAzAAAAMwAAADcAAAA3AAAANwAAADgAAAA4AAAAOAAAADkAAAA5AAAAOQAAADoAAAA6AAAAOgAAADoAAAA6AAAAOwAAADsAAAA7AAAA
        PAAAADsAAAA7AAAAOwAAADwAAAA8AAAAPAAAADwAAAA9AAAAPQAAAD0AAAA9AAAAPQAAAD4AAAA+AAAAPwAAAEkAAABAAAAAQAAAAEgAAABAAAAAQQAAAEIAAABCAAAA
        QgAAAEMAAABDAAAAQwAAAEQAAABEAAAARQAAAE0AAABGAAAARwAAAEYAAABHAAAASAAAAEgAAABJAAAATwAAAAAAgD+rqqo+q6qqPh0Fwz6OAm0/
        AEluaXQgMQAQAAAA
      >
      PRESETNAME "Init 1"
      FLOATPOS 0 0 0 0
      FXID {066D64F1-A0ED-3941-A0EE-654911877B2A}
      WAK 0
    >
    <ITEM
      POSITION 0
      SNAPOFFS 0
      LENGTH 33.5
      LOOP 1
      ALLTAKES 0
      FADEIN 1 0 0 1 0 0
      FADEOUT 1 0 0 1 0 0
      MUTE 1
      SEL 0
      YPOS 0.4 0.1
      IGUID {FB558167-4399-B14D-B963-C3987D6B38B0}
      IID 3
      NAME "LH                   - National_Anthems_-_Thailand.mid"
      VOLPAN 1 0 1 -1
      SOFFS 0 0
      PLAYRATE 1 1 0 -1 0 0.0025
      CHANMODE 0
      GUID {7D1A334B-4973-C444-9CA3-113DB64C72BC}
      <SOURCE MIDI
        HASDATA 1 192 QN
        POOLEDEVTS {58428777-3172-5C46-AA9E-5416E8CE368B}
        <X 0 0
          /wNMSCAgICAgICAgICAgICAgICAgIA==
        >
        e 768 90 24 7f
        e 0 90 30 7f
        e 178 80 24 40
        e 0 80 30 40
        e 14 90 24 7f
        e 0 90 30 7f
        e 0 90 37 7f
        e 0 90 3c 7f
        e 178 80 24 40
        e 0 80 30 40
        e 0 80 37 40
        e 0 80 3c 40
        e 14 90 24 7f
        e 0 90 30 7f
        e 178 80 24 40
        e 0 80 30 40
        e 14 90 24 7f
        e 0 90 30 7f
        e 0 90 39 7f
        e 0 90 3c 7f
        e 178 80 24 40
        e 0 80 30 40
        e 0 80 39 40
        e 0 80 3c 40
        e 14 90 24 7f
        e 0 90 30 7f
        e 178 80 24 40
        e 0 80 30 40
        e 14 90 30 7f
        e 0 90 37 7f
        e 0 90 3c 7f
        e 130 80 30 40
        e 0 80 37 40
        e 0 80 3c 40
        e 14 90 30 7f
        e 0 90 37 7f
        e 0 90 3c 7f
        e 34 80 30 40
        e 0 80 37 40
        e 0 80 3c 40
        e 14 90 30 7f
        e 0 90 37 7f
        e 0 90 3c 7f
        e 178 80 30 40
        e 0 80 37 40
        e 0 80 3c 40
        e 14 90 30 7f
        e 0 90 37 7f
        e 0 90 3c 7f
        e 178 80 30 40
        e 0 80 37 40
        e 0 80 3c 40
        e 14 90 2b 7f
        e 178 80 2b 40
        e 14 90 37 7f
        e 130 80 37 40
        e 14 90 37 7f
        e 34 80 37 40
        e 14 90 37 7f
        e 178 80 37 40
        e 14 90 37 7f
        e 178 80 37 40
        e 14 90 24 7f
        e 0 90 30 7f
        e 178 80 24 40
        e 0 80 30 40
        e 14 90 30 7f
        e 0 90 34 7f
        e 0 90 37 7f
        e 130 80 30 40
        e 0 80 34 40
        e 0 80 37 40
        e 14 90 30 7f
        e 0 90 34 7f
        e 0 90 37 7f
        e 34 80 30 40
        e 0 80 34 40
        e 0 80 37 40
        e 14 90 30 7f
        e 0 90 34 7f
        e 0 90 37 7f
        e 178 80 30 40
        e 0 80 34 40
        e 0 80 37 40
        e 14 90 30 7f
        e 0 90 34 7f
        e 0 90 37 7f
        e 178 80 30 40
        e 0 80 34 40
        e 0 80 37 40
        e 14 90 24 7f
        e 0 90 30 7f
        e 178 80 24 40
        e 0 80 30 40
        e 14 90 24 7f
        e 0 90 30 7f
        e 0 90 37 7f
        e 0 90 3c 7f
        e 178 80 24 40
        e 0 80 30 40
        e 0 80 37 40
        e 0 80 3c 40
        e 14 90 24 7f
        e 0 90 30 7f
        e 178 80 24 40
        e 0 80 30 40
        e 14 90 30 7f
        e 0 90 39 7f
        e 0 90 3c 7f
        e 178 80 30 40
        e 0 80 39 40
        e 0 80 3c 40
        e 14 90 24 7f
        e 0 90 30 7f
        e 178 80 24 40
        e 0 80 30 40
        e 14 90 30 7f
        e 0 90 37 7f
        e 0 90 3c 7f
        e 130 80 30 40
        e 0 80 37 40
        e 0 80 3c 40
        e 14 90 30 7f
        e 0 90 37 7f
        e 0 90 3c 7f
        e 34 80 30 40
        e 0 80 37 40
        e 0 80 3c 40
        e 14 90 30 7f
        e 0 90 37 7f
        e 0 90 3c 7f
        e 178 80 30 40
        e 0 80 37 40
        e 0 80 3c 40
        e 14 90 30 7f
        e 0 90 37 7f
        e 0 90 3c 7f
        e 178 80 30 40
        e 0 80 37 40
        e 0 80 3c 40
        e 14 90 26 7f
        e 0 90 32 7f
        e 178 80 26 40
        e 0 80 32 40
        e 14 90 32 7f
        e 0 90 37 7f
        e 0 90 3b 7f
        e 130 80 32 40
        e 0 80 37 40
        e 0 80 3b 40
        e 14 90 32 7f
        e 0 90 37 7f
        e 0 90 3b 7f
        e 34 80 32 40
        e 0 80 37 40
        e 0 80 3b 40
        e 14 90 32 7f
        e 0 90 37 7f
        e 0 90 3b 7f
        e 178 80 32 40
        e 0 80 37 40
        e 0 80 3b 40
        e 14 90 32 7f
        e 0 90 36 7f
        e 178 80 32 40
        e 0 80 36 40
        e 14 90 26 7f
        e 0 90 32 7f
        e 130 80 26 40
        e 0 80 32 40
        e 14 90 26 7f
        e 0 90 32 7f
        e 34 80 26 40
        e 0 80 32 40
        e 14 90 28 7f
        e 0 90 34 7f
        e 130 80 28 40
        e 0 80 34 40
        e 14 90 2a 7f
        e 0 90 36 7f
        e 34 80 2a 40
        e 0 80 36 40
        e 14 90 2b 7f
        e 0 90 37 7f
        e 82 80 2b 40
        e 0 80 37 40
        e 302 90 2b 7f
        e 178 80 2b 40
        e 14 90 35 7f
        e 0 90 37 7f
        e 0 90 3b 7f
        e 130 80 35 40
        e 0 80 37 40
        e 0 80 3b 40
        e 14 90 35 7f
        e 0 90 37 7f
        e 0 90 3b 7f
        e 34 80 35 40
        e 0 80 37 40
        e 0 80 3b 40
        e 14 90 35 7f
        e 0 90 37 7f
        e 0 90 3b 7f
        e 178 80 35 40
        e 0 80 37 40
        e 0 80 3b 40
        e 14 90 35 7f
        e 0 90 37 7f
        e 0 90 3b 7f
        e 178 80 35 40
        e 0 80 37 40
        e 0 80 3b 40
        e 14 90 24 7f
        e 0 90 30 7f
        e 178 80 24 40
        e 0 80 30 40
        e 14 90 30 7f
        e 0 90 34 7f
        e 0 90 37 7f
        e 130 80 30 40
        e 0 80 34 40
        e 0 80 37 40
        e 14 90 30 7f
        e 0 90 34 7f
        e 0 90 37 7f
        e 34 80 30 40
        e 0 80 34 40
        e 0 80 37 40
        e 14 90 30 7f
        e 0 90 34 7f
        e 0 90 37 7f
        e 178 80 30 40
        e 0 80 34 40
        e 0 80 37 40
        e 14 90 30 7f
        e 0 90 34 7f
        e 0 90 37 7f
        e 178 80 30 40
        e 0 80 34 40
        e 0 80 37 40
        e 14 90 2f 7f
        e 0 90 32 7f
        e 0 90 37 7f
        e 178 80 2f 40
        e 0 80 32 40
        e 0 80 37 40
        e 14 90 2d 7f
        e 0 90 3e 7f
        e 178 80 2d 40
        e 0 80 3e 40
        e 14 90 2a 7f
        e 0 90 36 7f
        e 178 80 2a 40
        e 0 80 36 40
        e 14 90 26 7f
        e 0 90 32 7f
        e 178 80 26 40
        e 0 80 32 40
        e 14 90 2b 7f
        e 178 80 2b 40
        e 14 90 2b 7f
        e 0 90 32 7f
        e 0 90 37 7f
        e 130 80 2b 40
        e 0 80 32 40
        e 0 80 37 40
        e 14 90 2b 7f
        e 0 90 32 7f
        e 0 90 37 7f
        e 34 80 2b 40
        e 0 80 32 40
        e 0 80 37 40
        e 14 90 2b 7f
        e 0 90 32 7f
        e 0 90 37 7f
        e 82 80 2b 40
        e 0 80 32 40
        e 0 80 37 40
        e 302 90 24 7f
        e 0 90 30 7f
        e 178 80 24 40
        e 0 80 30 40
        e 14 90 30 7f
        e 0 90 37 7f
        e 0 90 3c 7f
        e 178 80 30 40
        e 0 80 37 40
        e 0 80 3c 40
        e 14 90 29 7f
        e 0 90 35 7f
        e 178 80 29 40
        e 0 80 35 40
        e 14 90 35 7f
        e 0 90 39 7f
        e 0 90 3c 7f
        e 178 80 35 40
        e 0 80 39 40
        e 0 80 3c 40
        e 14 90 28 7f
        e 0 90 34 7f
        e 178 80 28 40
        e 0 80 34 40
        e 14 90 34 7f
        e 0 90 38 7f
        e 0 90 3b 7f
        e 0 90 40 7f
        e 130 80 34 40
        e 0 80 38 40
        e 0 80 3b 40
        e 0 80 40 40
        e 14 90 34 7f
        e 0 90 38 7f
        e 0 90 3b 7f
        e 0 90 40 7f
        e 34 80 34 40
        e 0 80 38 40
        e 0 80 3b 40
        e 0 80 40 40
        e 14 90 34 7f
        e 0 90 38 7f
        e 0 90 3b 7f
        e 0 90 40 7f
        e 178 80 34 40
        e 0 80 38 40
        e 0 80 3b 40
        e 0 80 40 40
        e 14 90 2a 7f
        e 0 90 36 7f
        e 178 80 2a 40
        e 0 80 36 40
        e 14 90 2b 7f
        e 0 90 37 7f
        e 178 80 2b 40
        e 0 80 37 40
        e 14 90 37 7f
        e 0 90 3c 7f
        e 0 90 40 7f
        e 178 80 37 40
        e 0 80 3c 40
        e 0 80 40 40
        e 14 90 2b 7f
        e 0 90 37 7f
        e 178 80 2b 40
        e 0 80 37 40
        e 14 90 37 7f
        e 0 90 3b 7f
        e 0 90 3e 7f
        e 178 80 37 40
        e 0 80 3b 40
        e 0 80 3e 40
        e 14 90 24 7f
        e 0 90 30 7f
        e 178 80 24 40
        e 0 80 30 40
        e 14 90 30 7f
        e 0 90 34 7f
        e 0 90 37 7f
        e 0 90 3c 7f
        e 130 80 30 40
        e 0 80 34 40
        e 0 80 37 40
        e 0 80 3c 40
        e 14 90 30 7f
        e 0 90 34 7f
        e 0 90 37 7f
        e 0 90 3c 7f
        e 34 80 30 40
        e 0 80 34 40
        e 0 80 37 40
        e 0 80 3c 40
        e 14 90 30 7f
        e 0 90 34 7f
        e 0 90 37 7f
        e 0 90 3c 7f
        e 82 80 30 40
        e 0 80 34 40
        e 0 80 37 40
        e 0 80 3c 40
        E 110 b0 7b 00
        GUID {4DD63A7D-1AB7-4148-B5E7-42BA74D8628C}
        IGNTEMPO 0 120 4 4
        SRCCOLOR 51
        VELLANE -1 86 6
        CFGEDITVIEW 3917.158136 54.160969 63 10 0 0 0 0 0 0.5
        KEYSNAP 0
        TRACKSEL 252 1 0 ""
        EVTFILTER 0 -1 -1 -1 -1 0 0 0 0 -1 -1 -1 -1 0 -1 0 -1 -1
        CFGEDIT 1 0 0 0 0 0 1 0 1 1 1 0.25 265 -43 1244 553 0 0 2 3 0 0 0 0 0 0.5 0 0 1 64
      >
    >
    <ITEM
      POSITION 0
      SNAPOFFS 0
      LENGTH 33.5
      LOOP 1
      ALLTAKES 0
      FADEIN 1 0 0 1 0 0
      FADEOUT 1 0 0 1 0 0
      MUTE 1
      SEL 0
      YPOS 0.2 0.1
      IGUID {02FCF7F7-D0B0-7C44-A3DD-B700208299AC}
      IID 1
      NAME "Melody               - National_Anthems_-_Thailand.mid"
      VOLPAN 1 0 1 -1
      SOFFS 0 0
      PLAYRATE 1 1 0 -1 0 0.0025
      CHANMODE 0
      GUID {B3839471-3978-8640-AB40-F60A7D072D37}
      <SOURCE MIDI
        HASDATA 1 192 QN
        POOLEDEVTS {0C9F036D-D7C5-1F43-89BC-084AE40E7AC3}
        <X 0 0
          /wNNZWxvZHkgICAgICAgICAgICAgIA==
        >
        <X 0 0
          /wEocCkgKGMpIFRoZSBTb2Z0d2FyZSBUb29sd29ya3M=
        >
        <X 0 0
          /wFCUE06MTE2LTEyMCE=
        >
        <X 0 0
          /wFDb3VudHJ5OiBUSEFJTEFORA==
        >
        <X 0 0
          /wFNdWx0aU1lZGlhIFdpbmRvd3MgVmVyc2lvbg==
        >
        <X 0 0
          /wFkYXRlOiA3LTI1LTkx
        >
        <X 0 0
          /wFyZXZpc2VkIDExLTI2LTkx
        >
        <X 0 0
          /wFlZGl0IGRhdGU6IDktNy05MQ==
        >
        <X 0 0
          /wFtbSBlZGl0IDktMTMtOTE=
        >
        e 528 90 37 7f
        e 48 80 37 40
        e 0 90 3c 7f
        e 144 80 3c 40
        e 0 90 40 7f
        e 48 80 40 40
        e 0 90 43 7f
        e 192 80 43 40
        e 0 90 43 7f
        e 144 80 43 40
        e 0 90 43 7f
        e 48 80 43 40
        e 0 90 45 7f
        e 144 80 45 40
        e 0 90 43 7f
        e 48 80 43 40
        e 0 90 41 7f
        e 144 80 41 40
        e 0 90 45 7f
        e 48 80 45 40
        e 0 90 43 7f
        e 384 80 43 40
        e 0 90 40 7f
        e 192 80 40 40
        e 0 90 40 7f
        e 144 80 40 40
        e 0 90 41 7f
        e 48 80 41 40
        e 0 90 40 7f
        e 144 80 40 40
        e 0 90 3e 7f
        e 48 80 3e 40
        e 0 90 3e 7f
        e 336 80 3e 40
        e 0 90 3e 7f
        e 48 80 3e 40
        e 0 90 3e 7f
        e 144 80 3e 40
        e 0 90 40 7f
        e 48 80 40 40
        e 0 90 3e 7f
        e 144 80 3e 40
        e 0 90 3c 7f
        e 48 80 3c 40
        e 0 90 3c 7f
        e 384 80 3c 40
        e 0 90 3c 7f
        e 144 80 3c 40
        e 0 90 40 7f
        e 48 80 40 40
        e 0 90 43 7f
        e 192 80 43 40
        e 0 90 43 7f
        e 192 80 43 40
        e 0 90 45 7f
        e 144 80 45 40
        e 0 90 43 7f
        e 48 80 43 40
        e 0 90 41 7f
        e 144 80 41 40
        e 0 90 45 7f
        e 48 80 45 40
        e 0 90 43 7f
        e 576 80 43 40
        e 0 90 43 7f
        e 144 80 43 40
        e 0 90 45 7f
        e 48 80 45 40
        e 0 90 47 7f
        e 144 80 47 40
        e 0 90 43 7f
        e 48 80 43 40
        e 0 90 4a 7f
        e 336 80 4a 40
        e 0 90 3e 7f
        e 48 80 3e 40
        e 0 90 45 7f
        e 144 80 45 40
        e 0 90 47 7f
        e 48 80 47 40
        e 0 90 45 7f
        e 384 80 45 40
        e 0 90 43 7f
        e 96 80 43 40
        e 96 90 43 7f
        e 144 80 43 40
        e 0 90 45 7f
        e 48 80 45 40
        e 0 90 43 7f
        e 96 80 43 40
        e 0 90 41 7f
        e 96 80 41 40
        e 0 90 3e 7f
        e 384 80 3e 40
        e 0 90 41 7f
        e 144 80 41 40
        e 0 90 45 7f
        e 48 80 45 40
        e 0 90 43 7f
        e 96 80 43 40
        e 0 90 40 7f
        e 96 80 40 40
        e 0 90 3c 7f
        e 384 80 3c 40
        e 0 90 3c 7f
        e 144 80 3c 40
        e 0 90 40 7f
        e 48 80 40 40
        e 0 90 3e 7f
        e 192 80 3e 40
        e 0 90 3e 7f
        e 144 80 3e 40
        e 0 90 3e 7f
        e 48 80 3e 40
        e 0 90 45 7f
        e 192 80 45 40
        e 0 90 47 7f
        e 144 80 47 40
        e 0 90 45 7f
        e 48 80 45 40
        e 0 90 43 7f
        e 480 80 43 40
        e 48 90 3c 7f
        e 48 80 3c 40
        e 0 90 3c 7f
        e 144 80 3c 40
        e 0 90 40 7f
        e 48 80 40 40
        e 0 90 43 7f
        e 192 80 43 40
        e 0 90 43 7f
        e 192 80 43 40
        e 0 90 45 7f
        e 144 80 45 40
        e 0 90 47 7f
        e 48 80 47 40
        e 0 90 48 7f
        e 144 80 48 40
        e 0 90 4a 7f
        e 48 80 4a 40
        e 0 90 4c 7f
        e 480 80 4c 40
        e 48 90 4a 7f
        e 48 80 4a 40
        e 0 90 48 7f
        e 144 80 48 40
        e 0 90 45 7f
        e 48 80 45 40
        e 0 90 43 7f
        e 144 80 43 40
        e 0 90 45 7f
        e 48 80 45 40
        e 0 90 47 7f
        e 144 80 47 40
        e 0 90 48 7f
        e 48 80 48 40
        e 0 90 4c 7f
        e 144 80 4c 40
        e 0 90 48 7f
        e 48 80 48 40
        e 0 90 4a 7f
        e 144 80 4a 40
        e 0 90 48 7f
        e 48 80 48 40
        e 0 90 48 7f
        e 480 80 48 40
        E 96 b0 7b 00
        GUID {1B7A544D-B783-0B4A-A30B-210A8C9C9B4D}
        IGNTEMPO 0 120 4 4
        SRCCOLOR 1936
        VELLANE -1 86 6
        CFGEDITVIEW 4775.220182 151.528696 63 10 0 0 0 0 0 0.5
        KEYSNAP 0
        TRACKSEL 252 0 0 ""
        EVTFILTER 0 -1 -1 -1 -1 0 0 0 0 -1 -1 -1 -1 0 -1 0 -1 -1
        CFGEDIT 1 0 0 0 0 0 1 0 1 1 1 0.25 265 -43 1244 553 0 0 2 3 0 0 0 0 0 0.5 0 0 1 64
      >
    >
    <ITEM
      POSITION 0
      SNAPOFFS 0
      LENGTH 33.5
      LOOP 1
      ALLTAKES 0
      FADEIN 1 0 0 1 0 0
      FADEOUT 1 0 0 1 0 0
      MUTE 0
      SEL 0
      YPOS 0.5 0.1
      IGUID {5718635C-1D26-6E4E-8BC5-B3AAA86FCF65}
      IID 4
      NAME "Bass                 - National_Anthems_-_Thailand.mid"
      VOLPAN 1 0 1 -1
      SOFFS 0 0
      PLAYRATE 1 1 0 -1 0 0.0025
      CHANMODE 0
      GUID {6261122E-2FBC-6545-8554-F42D00E71146}
      <SOURCE MIDI
        HASDATA 1 192 QN
        POOLEDEVTS {DF8A431B-B8F4-0D47-AE0F-2FA9406F22D3}
        <X 0 0
          /wNCYXNzICAgICAgICAgICAgICAgIA==
        >
        e 768 90 24 7f
        e 192 80 24 40
        e 0 90 30 7f
        e 192 80 30 40
        e 0 90 24 7f
        e 192 80 24 40
        e 0 90 30 7f
        e 192 80 30 40
        e 0 90 24 7f
        e 192 80 24 40
        e 0 90 30 7f
        e 144 80 30 40
        e 0 90 30 7f
        e 48 80 30 40
        e 0 90 30 7f
        e 192 80 30 40
        e 0 90 30 7f
        e 192 80 30 40
        e 0 90 2b 7f
        e 192 80 2b 40
        e 0 90 37 7f
        e 144 80 37 40
        e 0 90 37 7f
        e 48 80 37 40
        e 0 90 37 7f
        e 192 80 37 40
        e 0 90 37 7f
        e 192 80 37 40
        e 0 90 24 7f
        e 192 80 24 40
        e 0 90 30 7f
        e 144 80 30 40
        e 0 90 30 7f
        e 48 80 30 40
        e 0 90 30 7f
        e 192 80 30 40
        e 0 90 30 7f
        e 192 80 30 40
        e 0 90 24 7f
        e 192 80 24 40
        e 0 90 30 7f
        e 192 80 30 40
        e 0 90 24 7f
        e 192 80 24 40
        e 0 90 30 7f
        e 192 80 30 40
        e 0 90 24 7f
        e 192 80 24 40
        e 0 90 30 7f
        e 144 80 30 40
        e 0 90 30 7f
        e 48 80 30 40
        e 0 90 30 7f
        e 192 80 30 40
        e 0 90 30 7f
        e 192 80 30 40
        e 0 90 26 7f
        e 192 80 26 40
        e 0 90 32 7f
        e 144 80 32 40
        e 0 90 32 7f
        e 48 80 32 40
        e 0 90 32 7f
        e 192 80 32 40
        e 0 90 32 7f
        e 192 80 32 40
        e 0 90 26 7f
        e 144 80 26 40
        e 0 90 26 7f
        e 48 80 26 40
        e 0 90 28 7f
        e 144 80 28 40
        e 0 90 2a 7f
        e 48 80 2a 40
        e 0 90 2b 7f
        e 96 80 2b 40
        e 288 90 2b 7f
        e 192 80 2b 40
        e 0 90 37 7f
        e 192 80 37 40
        e 0 90 2b 7f
        e 192 80 2b 40
        e 0 90 37 7f
        e 192 80 37 40
        e 0 90 24 7f
        e 192 80 24 40
        e 0 90 30 7f
        e 192 80 30 40
        e 0 90 24 7f
        e 192 80 24 40
        e 0 90 30 7f
        e 192 80 30 40
        e 0 90 2f 7f
        e 192 80 2f 40
        e 0 90 2d 7f
        e 192 80 2d 40
        e 0 90 2a 7f
        e 192 80 2a 40
        e 0 90 26 7f
        e 192 80 26 40
        e 0 90 2b 7f
        e 192 80 2b 40
        e 0 90 37 7f
        e 144 80 37 40
        e 0 90 37 7f
        e 48 80 37 40
        e 0 90 37 7f
        e 96 80 37 40
        e 288 90 24 7f
        e 192 80 24 40
        e 0 90 30 7f
        e 192 80 30 40
        e 0 90 29 7f
        e 192 80 29 40
        e 0 90 35 7f
        e 192 80 35 40
        e 0 90 43 7f
        e 192 80 43 40
        e 0 90 34 7f
        e 144 80 34 40
        e 0 90 34 7f
        e 48 80 34 40
        e 0 90 34 7f
        e 192 80 34 40
        e 0 90 2a 7f
        e 192 80 2a 40
        e 0 90 2b 7f
        e 192 80 2b 40
        e 0 90 37 7f
        e 192 80 37 40
        e 0 90 2b 7f
        e 192 80 2b 40
        e 0 90 37 7f
        e 192 80 37 40
        e 0 90 24 7f
        e 192 80 24 40
        e 0 90 30 7f
        e 144 80 30 40
        e 0 90 30 7f
        e 48 80 30 40
        e 0 90 24 7f
        e 96 80 24 40
        E 96 b0 7b 00
        GUID {78C1A59E-8894-904F-93C7-8A761FE5543E}
        IGNTEMPO 0 120 4 4
        SRCCOLOR 52
        VELLANE -1 86 6
        CFGEDITVIEW -270.491971 56.318858 63 10 0 0 0 0 0 0.5
        KEYSNAP 0
        TRACKSEL 252 1 0 ""
        EVTFILTER 0 -1 -1 -1 -1 0 0 0 0 -1 -1 -1 -1 0 -1 0 -1 -1
        CFGEDIT 1 0 0 0 0 0 1 0 1 1 1 0.25 265 -43 1244 553 0 0 2 3 0 0 0 0 0 0.5 0 0 1 64
      >
    >
  >
  <TRACK {2BB5EACD-C1BC-284E-92F6-33B7023B768F}
    NAME "ch1,3 (send)"
    PEAKCOL 16576
    BEAT -1
    AUTOMODE 0
    VOLPAN 1 0 -1 -1 1
    MUTESOLO 0 0 0
    IPHASE 0
    ISBUS 0 0
    BUSCOMP 0 0
    SHOWINMIX 1 1 0.5 1 0.5 0 0 0
    FREEMODE 0
    SEL 0
    REC 0 0 0 0 0 0 0
    VU 2
    MIDICTL -1 1
    TRACKHEIGHT 140 0
    INQ 0 0 0 0.5 100 0 0 100
    NCHAN 2
    FX 1
    TRACKID {2BB5EACD-C1BC-284E-92F6-33B7023B768F}
    PERF 0
    MIDIOUT -1
    MAINSEND 1 0
    <FXCHAIN
      WNDRECT 528 36 724 387
      SHOW 1
      LASTSEL 0
      DOCKED 1
    >
    <ITEM
      POSITION 0
      SNAPOFFS 0
      LENGTH 33.5
      LOOP 1
      ALLTAKES 0
      FADEIN 1 0 0 1 0 0
      FADEOUT 1 0 0 1 0 0
      MUTE 0
      SEL 0
      YPOS 0.2 0.1
      IGUID {A6F88A61-EF99-9A4D-9A29-C8421D6EBFBB}
      IID 1
      NAME " "
      VOLPAN 1 0 1 -1
      SOFFS 0 0
      PLAYRATE 1 1 0 -1 0 0.0025
      CHANMODE 0
      GUID {B09419BD-5876-9B4D-AADD-E2B1B7AD9C14}
      <SOURCE MIDI
        HASDATA 1 192 QN
        POOLEDEVTS {15CDC69B-6570-A045-A6A7-D73D894A9709}
        <X 0 0
          /wNNZWxvZHkgICAgICAgICAgICAgIA==
        >
        <X 0 0
          /wEocCkgKGMpIFRoZSBTb2Z0d2FyZSBUb29sd29ya3M=
        >
        <X 0 0
          /wFCUE06MTE2LTEyMCE=
        >
        <X 0 0
          /wFDb3VudHJ5OiBUSEFJTEFORA==
        >
        <X 0 0
          /wFNdWx0aU1lZGlhIFdpbmRvd3MgVmVyc2lvbg==
        >
        <X 0 0
          /wFkYXRlOiA3LTI1LTkx
        >
        <X 0 0
          /wFyZXZpc2VkIDExLTI2LTkx
        >
        <X 0 0
          /wFlZGl0IGRhdGU6IDktNy05MQ==
        >
        <X 0 0
          /wFtbSBlZGl0IDktMTMtOTE=
        >
        E 528 90 37 7f
        E 48 80 37 40
        E 0 90 3c 7f
        E 144 80 3c 40
        E 0 90 40 7f
        E 48 80 40 40
        E 0 90 43 7f
        E 192 80 43 40
        E 0 90 43 7f
        E 144 80 43 40
        E 0 90 43 7f
        E 48 80 43 40
        E 0 90 45 7f
        E 144 80 45 40
        E 0 90 43 7f
        E 48 80 43 40
        E 0 90 41 7f
        E 144 80 41 40
        E 0 90 45 7f
        E 48 80 45 40
        E 0 90 43 7f
        E 384 80 43 40
        E 0 90 40 7f
        E 192 80 40 40
        E 0 90 40 7f
        E 144 80 40 40
        E 0 90 41 7f
        E 48 80 41 40
        E 0 90 40 7f
        E 144 80 40 40
        E 0 90 3e 7f
        E 48 80 3e 40
        E 0 90 3e 7f
        E 336 80 3e 40
        E 0 90 3e 7f
        E 48 80 3e 40
        E 0 90 3e 7f
        E 144 80 3e 40
        E 0 90 40 7f
        E 48 80 40 40
        E 0 90 3e 7f
        E 144 80 3e 40
        E 0 90 3c 7f
        E 48 80 3c 40
        E 0 90 3c 7f
        E 384 80 3c 40
        E 0 90 3c 7f
        E 144 80 3c 40
        E 0 90 40 7f
        E 48 80 40 40
        E 0 90 43 7f
        E 192 80 43 40
        E 0 90 43 7f
        E 192 80 43 40
        E 0 90 45 7f
        E 144 80 45 40
        E 0 90 43 7f
        E 48 80 43 40
        E 0 90 41 7f
        E 144 80 41 40
        E 0 90 45 7f
        E 48 80 45 40
        E 0 90 43 7f
        E 576 80 43 40
        E 0 90 43 7f
        E 144 80 43 40
        E 0 90 45 7f
        E 48 80 45 40
        E 0 90 47 7f
        E 144 80 47 40
        E 0 90 43 7f
        E 48 80 43 40
        E 0 90 4a 68
        E 336 80 4a 40
        E 0 90 3e 7f
        E 48 80 3e 40
        E 0 90 45 7f
        E 144 80 45 40
        E 0 90 47 7f
        E 48 80 47 40
        E 0 90 45 7f
        E 384 80 45 40
        E 0 90 43 7f
        E 96 80 43 40
        E 96 90 43 7f
        E 144 80 43 40
        E 0 90 45 7f
        E 48 80 45 40
        E 0 90 43 7f
        E 96 80 43 40
        E 0 90 41 7f
        E 96 80 41 40
        E 0 90 3e 7f
        E 384 80 3e 40
        E 0 90 41 7f
        E 144 80 41 40
        E 0 90 45 7f
        E 48 80 45 40
        E 0 90 43 7f
        E 96 80 43 40
        E 0 90 40 7f
        E 96 80 40 40
        E 0 90 3c 7f
        E 384 80 3c 40
        E 0 90 3c 7f
        E 144 80 3c 40
        E 0 90 40 7f
        E 48 80 40 40
        E 0 90 3e 7f
        E 192 80 3e 40
        E 0 90 3e 7f
        E 144 80 3e 40
        E 0 90 3e 7f
        E 48 80 3e 40
        E 0 90 45 7f
        E 192 80 45 40
        E 0 90 47 7f
        E 144 80 47 40
        E 0 90 45 7f
        E 48 80 45 40
        E 0 90 43 7f
        E 480 80 43 40
        E 48 90 3c 7f
        E 48 80 3c 40
        E 0 90 3c 7f
        E 144 80 3c 40
        E 0 90 40 7f
        E 48 80 40 40
        E 0 90 43 7f
        E 192 80 43 40
        E 0 90 43 7f
        E 192 80 43 40
        E 0 90 45 7f
        E 144 80 45 40
        E 0 90 47 7f
        E 48 80 47 40
        E 0 90 48 7f
        E 144 80 48 40
        E 0 90 4a 7f
        E 48 80 4a 40
        E 0 90 4c 7f
        E 480 80 4c 40
        E 48 90 4a 7f
        E 48 80 4a 40
        E 0 90 48 7f
        E 144 80 48 40
        E 0 90 45 7f
        E 48 80 45 40
        E 0 90 43 7f
        E 144 80 43 40
        E 0 90 45 7f
        E 48 80 45 40
        E 0 90 47 7f
        E 144 80 47 40
        E 0 90 48 7f
        E 48 80 48 40
        E 0 90 4c 7f
        E 144 80 4c 40
        E 0 90 48 7f
        E 48 80 48 40
        E 0 90 4a 7f
        E 144 80 4a 40
        E 0 90 48 7f
        E 48 80 48 40
        E 0 90 48 7f
        E 480 80 48 40
        E 96 b0 7b 00
        OUTCH 1
        GUID {1B7A544D-B783-0B4A-A30B-210A8C9C9B4D}
        IGNTEMPO 0 120 4 4
        SRCCOLOR 1936
        VELLANE -1 86 6
        CFGEDITVIEW 4949.490035 204.44588 54 10 0 0 0 0 0 0.5
        KEYSNAP 0
        TRACKSEL 252 0 0 ""
        EVTFILTER 0 -1 -1 -1 -1 0 0 0 0 -1 -1 -1 -1 0 -1 0 -1 -1
        CFGEDIT 1 0 0 0 0 0 1 0 1 1 1 0.25 265 4 1244 600 0 0 2 3 0 0 0 0 0 0.5 0 0 1 64
      >
    >
    <ITEM
      POSITION 0
      SNAPOFFS 0
      LENGTH 33.5
      LOOP 1
      ALLTAKES 0
      FADEIN 1 0 0 1 0 0
      FADEOUT 1 0 0 1 0 0
      MUTE 0
      SEL 0
      YPOS 0.5 0.1
      IGUID {EECE9DA8-3DDD-DE42-83B6-0E7EF5DC3939}
      IID 4
      NAME "Bass                 - National_Anthems_-_Thailand.mid"
      VOLPAN 1 0 1 -1
      SOFFS 0 0
      PLAYRATE 1 1 0 -1 0 0.0025
      CHANMODE 0
      GUID {14298BEA-DAE5-414A-9DFC-FFB5E07B9D3C}
      <SOURCE MIDI
        HASDATA 1 192 QN
        POOLEDEVTS {53FD2D7B-0F2D-8E4D-BC2B-87CF9B045B1A}
        <X 0 0
          /wNCYXNzICAgICAgICAgICAgICAgIA==
        >
        e 768 90 24 7f
        e 192 80 24 40
        e 0 90 30 7f
        e 192 80 30 40
        e 0 90 24 7f
        e 192 80 24 40
        e 0 90 30 7f
        e 192 80 30 40
        e 0 90 24 7f
        e 192 80 24 40
        e 0 90 30 7f
        e 144 80 30 40
        e 0 90 30 7f
        e 48 80 30 40
        e 0 90 30 7f
        e 192 80 30 40
        e 0 90 30 7f
        e 192 80 30 40
        e 0 90 2b 7f
        e 192 80 2b 40
        e 0 90 37 7f
        e 144 80 37 40
        e 0 90 37 7f
        e 48 80 37 40
        e 0 90 37 7f
        e 192 80 37 40
        e 0 90 37 7f
        e 192 80 37 40
        e 0 90 24 7f
        e 192 80 24 40
        e 0 90 30 7f
        e 144 80 30 40
        e 0 90 30 7f
        e 48 80 30 40
        e 0 90 30 7f
        e 192 80 30 40
        e 0 90 30 7f
        e 192 80 30 40
        e 0 90 24 7f
        e 192 80 24 40
        e 0 90 30 7f
        e 192 80 30 40
        e 0 90 24 7f
        e 192 80 24 40
        e 0 90 30 7f
        e 192 80 30 40
        e 0 90 24 7f
        e 192 80 24 40
        e 0 90 30 7f
        e 144 80 30 40
        e 0 90 30 7f
        e 48 80 30 40
        e 0 90 30 7f
        e 192 80 30 40
        e 0 90 30 7f
        e 192 80 30 40
        e 0 90 26 67
        e 192 80 26 40
        e 0 90 32 68
        e 144 80 32 40
        e 0 90 32 6c
        e 48 80 32 40
        e 0 90 32 6c
        e 192 80 32 40
        e 0 90 32 6c
        e 192 80 32 40
        e 0 90 26 7f
        e 144 80 26 40
        e 0 90 26 7f
        e 48 80 26 40
        e 0 90 28 7f
        e 144 80 28 40
        e 0 90 2a 7f
        e 48 80 2a 40
        e 0 90 2b 7f
        e 96 80 2b 40
        e 288 90 2b 7f
        e 192 80 2b 40
        e 0 90 37 7f
        e 192 80 37 40
        e 0 90 2b 7f
        e 192 80 2b 40
        e 0 90 37 7f
        e 192 80 37 40
        e 0 90 24 7f
        e 192 80 24 40
        e 0 90 30 7f
        e 192 80 30 40
        e 0 90 24 7f
        e 192 80 24 40
        e 0 90 30 7f
        e 192 80 30 40
        e 0 90 2f 7f
        e 192 80 2f 40
        e 0 90 2d 7f
        e 192 80 2d 40
        e 0 90 2a 7f
        e 192 80 2a 40
        e 0 90 26 7f
        e 192 80 26 40
        e 0 90 2b 7f
        e 192 80 2b 40
        e 0 90 37 7f
        e 144 80 37 40
        e 0 90 37 7f
        e 48 80 37 40
        e 0 90 37 7f
        e 96 80 37 40
        e 288 90 24 7f
        e 192 80 24 40
        e 0 90 30 7f
        e 192 80 30 40
        e 0 90 29 7f
        e 192 80 29 40
        e 0 90 35 7f
        e 192 80 35 40
        e 0 90 43 7f
        e 192 80 43 40
        e 0 90 34 7f
        e 144 80 34 40
        e 0 90 34 7f
        e 48 80 34 40
        e 0 90 34 7f
        e 192 80 34 40
        e 0 90 2a 7f
        e 192 80 2a 40
        e 0 90 2b 7f
        e 192 80 2b 40
        e 0 90 37 7f
        e 192 80 37 40
        e 0 90 2b 7f
        e 192 80 2b 40
        e 0 90 37 7f
        e 192 80 37 40
        e 0 90 24 7f
        e 192 80 24 40
        e 0 90 30 7f
        e 144 80 30 40
        e 0 90 30 7f
        e 48 80 30 40
        e 0 90 24 7f
        e 96 80 24 40
        E 96 b0 7b 00
        OUTCH 3
        GUID {78C1A59E-8894-904F-93C7-8A761FE5543E}
        IGNTEMPO 0 120 4 4
        SRCCOLOR 52
        VELLANE -1 86 6
        CFGEDITVIEW 4775.220182 151.528696 63 10 0 0 0 0 0 0.5
        KEYSNAP 0
        TRACKSEL 252 0 0 ""
        EVTFILTER 0 -1 -1 -1 -1 0 0 0 0 -1 -1 -1 -1 0 -1 0 -1 -1
        CFGEDIT 1 0 0 0 0 0 1 0 1 1 1 0.25 265 4 1244 600 0 0 2 3 0 0 0 0 0 0.5 0 0 1 64
      >
    >
  >
  <TRACK {3C494A2B-9670-9740-AD22-E42CC5065FE1}
    NAME "ch2,4 (send)"
    PEAKCOL 16576
    BEAT -1
    AUTOMODE 0
    VOLPAN 1 0 -1 -1 1
    MUTESOLO 0 0 0
    IPHASE 0
    ISBUS 0 0
    BUSCOMP 0 0
    SHOWINMIX 1 1 0.5 1 0.5 0 0 0
    FREEMODE 0
    SEL 1
    REC 0 0 0 0 0 0 0
    VU 2
    MIDICTL -1 1
    TRACKHEIGHT 192 0
    INQ 0 0 0 0.5 100 0 0 100
    NCHAN 2
    FX 1
    TRACKID {3C494A2B-9670-9740-AD22-E42CC5065FE1}
    PERF 0
    MIDIOUT -1
    MAINSEND 1 0
    <FXCHAIN
      WNDRECT 32 359 724 387
      SHOW 0
      LASTSEL 0
      DOCKED 0
    >
    <ITEM
      POSITION 0
      SNAPOFFS 0
      LENGTH 33.5
      LOOP 1
      ALLTAKES 0
      FADEIN 1 0 0 1 0 0
      FADEOUT 1 0 0 1 0 0
      MUTE 0
      SEL 1
      YPOS 0.3 0.1
      IGUID {8BF37CDB-F0C3-A74A-8352-36D65EEABF8E}
      IID 2
      NAME "RH                   - National_Anthems_-_Thailand.mid"
      VOLPAN 1 0 1 -1
      SOFFS 0 0
      PLAYRATE 1 1 0 -1 0 0.0025
      CHANMODE 0
      GUID {8ED4590F-264E-FA44-81B6-DE6C087C18AC}
      <SOURCE MIDI
        HASDATA 1 192 QN
        POOLEDEVTS {EA3A0980-5614-CC4B-8A59-18FAE3AA9110}
        <X 0 0
          /wNSSCAgICAgICAgICAgICAgICAgIA==
        >
        e 528 90 37 7f
        e 34 80 37 40
        e 14 90 3c 7f
        e 130 80 3c 40
        e 14 90 40 7f
        e 34 80 40 40
        e 14 90 3c 7f
        e 0 90 40 7f
        e 0 90 43 7f
        e 178 80 3c 40
        e 0 80 40 40
        e 0 80 43 40
        e 14 90 40 7f
        e 0 90 43 7f
        e 130 80 40 40
        e 0 80 43 40
        e 14 90 40 7f
        e 0 90 43 7f
        e 34 80 40 40
        e 0 80 43 40
        e 14 90 41 7f
        e 0 90 45 7f
        e 130 80 45 40
        e 14 90 43 7f
        e 34 80 41 40
        e 0 80 43 40
        e 14 90 41 7f
        e 130 80 41 40
        e 14 90 45 7f
        e 34 80 45 40
        e 14 90 40 7f
        e 0 90 43 7f
        e 370 80 40 40
        e 0 80 43 40
        e 14 90 3c 7f
        e 0 90 40 7f
        e 178 80 3c 40
        e 0 80 40 40
        e 14 90 3c 7f
        e 0 90 40 7f
        e 130 80 40 40
        e 14 90 41 7f
        e 34 80 3c 40
        e 0 80 41 40
        e 14 90 3c 7f
        e 0 90 40 7f
        e 130 80 3c 40
        e 0 80 40 40
        e 14 90 3e 7f
        e 34 80 3e 40
        e 14 90 3b 7f
        e 0 90 3e 7f
        e 322 80 3b 40
        e 0 80 3e 40
        e 14 90 3b 7f
        e 0 90 3e 7f
        e 34 80 3b 40
        e 0 80 3e 40
        e 14 90 3b 7f
        e 0 90 3e 7f
        e 130 80 3b 40
        e 0 80 3e 40
        e 14 90 3b 7f
        e 0 90 40 7f
        e 34 80 3b 40
        e 0 80 40 40
        e 14 90 3b 7f
        e 0 90 3e 7f
        e 130 80 3b 40
        e 0 80 3e 40
        e 14 90 3c 7f
        e 34 80 3c 40
        e 14 90 3c 7f
        e 370 80 3c 40
        e 14 90 3c 7f
        e 130 80 3c 40
        e 14 90 40 7f
        e 34 80 40 40
        e 14 90 3c 7f
        e 0 90 40 7f
        e 0 90 43 7f
        e 178 80 3c 40
        e 0 80 40 40
        e 0 80 43 40
        e 14 90 40 7f
        e 0 90 43 7f
        e 178 80 40 40
        e 0 80 43 40
        e 14 90 41 7f
        e 0 90 45 7f
        e 130 80 45 40
        e 14 90 43 7f
        e 34 80 41 40
        e 0 80 43 40
        e 14 90 41 7f
        e 130 80 41 40
        e 14 90 45 7f
        e 34 80 45 40
        e 14 90 40 7f
        e 0 90 43 7f
        e 562 80 40 40
        e 0 80 43 40
        e 14 90 40 7f
        e 0 90 43 7f
        e 130 80 43 40
        e 14 90 45 7f
        e 34 80 40 40
        e 0 80 45 40
        e 14 90 3e 7f
        e 0 90 47 7f
        e 130 80 47 40
        e 14 90 43 7f
        e 34 80 3e 40
        e 0 80 43 40
        e 14 90 3e 7f
        e 0 90 43 7f
        e 0 90 4a 7f
        e 322 80 3e 40
        e 0 80 43 40
        e 0 80 4a 40
        e 14 90 3e 7f
        e 34 80 3e 40
        e 14 90 3c 7f
        e 0 90 3e 7f
        e 0 90 45 7f
        e 130 80 45 40
        e 14 90 47 7f
        e 34 80 3c 40
        e 0 80 3e 40
        e 0 80 47 40
        e 14 90 3c 7f
        e 0 90 3e 7f
        e 0 90 45 7f
        e 370 80 3c 40
        e 0 80 3e 40
        e 0 80 45 40
        e 14 90 3b 7f
        e 0 90 3e 7f
        e 0 90 43 7f
        e 82 80 3b 40
        e 0 80 3e 40
        e 0 80 43 40
        e 110 90 43 7f
        e 130 80 43 40
        e 14 90 45 7f
        e 34 80 45 40
        e 14 90 43 7f
        e 82 80 43 40
        e 14 90 41 7f
        e 82 80 41 40
        e 14 90 3e 7f
        e 370 80 3e 40
        e 14 90 41 7f
        e 130 80 41 40
        e 14 90 45 7f
        e 34 80 45 40
        e 14 90 43 7f
        e 82 80 43 40
        e 14 90 40 7f
        e 82 80 40 40
        e 14 90 3c 7f
        e 370 80 3c 40
        e 14 90 3c 7f
        e 130 80 3c 40
        e 14 90 40 7f
        e 34 80 40 40
        e 14 90 3e 7f
        e 178 80 3e 40
        e 14 90 3c 7f
        e 0 90 3e 7f
        e 130 80 3c 40
        e 0 80 3e 40
        e 14 90 3c 7f
        e 0 90 3e 7f
        e 34 80 3c 40
        e 0 80 3e 40
        e 14 90 3c 7f
        e 0 90 3e 7f
        e 0 90 45 7f
        e 178 80 3c 40
        e 0 80 3e 40
        e 0 80 45 40
        e 14 90 3c 7f
        e 0 90 42 7f
        e 0 90 47 7f
        e 130 80 47 40
        e 14 90 45 7f
        e 34 80 3c 40
        e 0 80 42 40
        e 0 80 45 40
        e 14 90 3b 7f
        e 0 90 3e 7f
        e 0 90 43 7f
        e 466 80 3b 40
        e 0 80 3e 40
        e 0 80 43 40
        e 62 90 3c 7f
        e 34 80 3c 40
        e 14 90 3c 7f
        e 130 80 3c 40
        e 14 90 40 7f
        e 34 80 40 40
        e 14 90 3c 7f
        e 0 90 40 7f
        e 0 90 43 7f
        e 178 80 3c 40
        e 0 80 40 40
        e 0 80 43 40
        e 14 90 3c 7f
        e 0 90 40 7f
        e 0 90 43 7f
        e 178 80 3c 40
        e 0 80 40 40
        e 0 80 43 40
        e 14 90 41 7f
        e 0 90 45 7f
        e 130 80 45 40
        e 14 90 47 7f
        e 34 80 41 40
        e 0 80 47 40
        e 14 90 45 7f
        e 0 90 48 7f
        e 130 80 48 40
        e 14 90 4a 7f
        e 34 80 45 40
        e 0 80 4a 40
        e 14 90 44 7f
        e 0 90 47 7f
        e 0 90 4c 7f
        e 514 80 44 40
        e 0 80 47 40
        e 0 80 4c 40
        e 14 90 40 7f
        e 0 90 47 7f
        e 0 90 4a 7f
        e 34 80 40 40
        e 0 80 47 40
        e 0 80 4a 40
        e 14 90 3f 7f
        e 0 90 45 7f
        e 0 90 48 7f
        e 130 80 3f 40
        e 0 80 45 40
        e 0 80 48 40
        e 14 90 3c 7f
        e 0 90 3f 7f
        e 0 90 45 7f
        e 34 80 3c 40
        e 0 80 3f 40
        e 0 80 45 40
        e 14 90 3c 7f
        e 0 90 40 7f
        e 0 90 43 7f
        e 130 80 43 40
        e 14 90 45 7f
        e 34 80 3c 40
        e 0 80 40 40
        e 0 80 45 40
        e 14 90 43 7f
        e 0 90 47 7f
        e 130 80 47 40
        e 14 90 48 7f
        e 34 80 43 40
        e 0 80 48 40
        e 14 90 41 7f
        e 0 90 43 7f
        e 0 90 4c 7f
        e 130 80 4c 40
        e 14 90 48 7f
        e 34 80 41 40
        e 0 80 43 40
        e 0 80 48 40
        e 14 90 41 7f
        e 0 90 43 7f
        e 0 90 4a 7f
        e 130 80 4a 40
        e 14 90 48 7f
        e 34 80 41 40
        e 0 80 43 40
        e 0 80 48 40
        e 14 90 40 7f
        e 0 90 43 7f
        e 0 90 48 7f
        e 466 80 40 40
        e 0 80 43 40
        e 0 80 48 40
        E 110 b0 7b 00
        OUTCH 2
        GUID {226E9532-49BE-9B4D-8B73-AA183DD4B37B}
        IGNTEMPO 0 120 4 4
        SRCCOLOR 50
        VELLANE -1 86 6
        CFGEDITVIEW 5437.842273 283.121887 44 10 0 0 0 0 0 0.5
        KEYSNAP 0
        TRACKSEL 252 0 0 ""
        EVTFILTER 0 -1 -1 -1 -1 0 0 0 0 -1 -1 -1 -1 0 -1 0 -1 -1
        CFGEDIT 1 0 0 0 0 0 1 0 1 1 1 0.25 294 4 1273 601 0 0 2 3 0 0 0 0 0 0.5 0 0 1 64
      >
    >
    <ITEM
      POSITION 0
      SNAPOFFS 0
      LENGTH 33.5
      LOOP 1
      ALLTAKES 0
      FADEIN 1 0 0 1 0 0
      FADEOUT 1 0 0 1 0 0
      MUTE 0
      SEL 0
      YPOS 0.4 0.1
      IGUID {1545B0A6-E06D-1446-8265-E60FA92D4BDB}
      IID 3
      NAME "LH                   - National_Anthems_-_Thailand.mid"
      VOLPAN 1 0 1 -1
      SOFFS 0 0
      PLAYRATE 1 1 0 -1 0 0.0025
      CHANMODE 0
      GUID {6A14705D-DFFD-F447-A1EC-9CEEBFA283D9}
      <SOURCE MIDI
        HASDATA 1 192 QN
        POOLEDEVTS {3E75F283-CB54-7E49-A940-AE976A99BC79}
        <X 0 0
          /wNMSCAgICAgICAgICAgICAgICAgIA==
        >
        E 768 b0 4b 52
        e 0 90 24 7f
        e 0 90 30 7f
        e 178 80 24 40
        e 0 80 30 40
        e 14 90 24 7f
        e 0 90 30 7f
        e 0 90 37 7f
        e 0 90 3c 7f
        e 178 80 24 40
        e 0 80 30 40
        e 0 80 37 40
        e 0 80 3c 40
        e 14 90 24 7f
        e 0 90 30 7f
        E 144 b0 4b 5d
        e 34 80 24 40
        e 0 80 30 40
        e 14 90 24 7f
        e 0 90 30 7f
        e 0 90 39 7f
        e 0 90 3c 7f
        e 178 80 24 40
        e 0 80 30 40
        e 0 80 39 40
        e 0 80 3c 40
        e 14 90 24 7f
        e 0 90 30 7f
        e 178 80 24 40
        e 0 80 30 40
        e 14 90 30 7f
        e 0 90 37 7f
        e 0 90 3c 7f
        e 130 80 30 40
        e 0 80 37 40
        e 0 80 3c 40
        e 14 90 30 7f
        e 0 90 37 7f
        e 0 90 3c 7f
        e 34 80 30 40
        e 0 80 37 40
        e 0 80 3c 40
        e 14 90 30 7f
        e 0 90 37 7f
        e 0 90 3c 7f
        e 178 80 30 40
        e 0 80 37 40
        e 0 80 3c 40
        e 14 90 30 7f
        e 0 90 37 7f
        e 0 90 3c 7f
        e 178 80 30 40
        e 0 80 37 40
        e 0 80 3c 40
        e 14 90 2b 7f
        e 178 80 2b 40
        e 14 90 37 7f
        e 130 80 37 40
        e 14 90 37 7f
        e 34 80 37 40
        e 14 90 37 7f
        e 178 80 37 40
        e 14 90 37 7f
        e 178 80 37 40
        e 14 90 24 7f
        e 0 90 30 7f
        e 178 80 24 40
        e 0 80 30 40
        e 14 90 30 7f
        e 0 90 34 7f
        e 0 90 37 7f
        e 130 80 30 40
        e 0 80 34 40
        e 0 80 37 40
        e 14 90 30 7f
        e 0 90 34 7f
        e 0 90 37 7f
        e 34 80 30 40
        e 0 80 34 40
        e 0 80 37 40
        e 14 90 30 7f
        e 0 90 34 7f
        e 0 90 37 7f
        e 178 80 30 40
        e 0 80 34 40
        e 0 80 37 40
        e 14 90 30 7f
        e 0 90 34 7f
        e 0 90 37 7f
        e 178 80 30 40
        e 0 80 34 40
        e 0 80 37 40
        e 14 90 24 7f
        e 0 90 30 7f
        e 178 80 24 40
        e 0 80 30 40
        e 14 90 24 7f
        e 0 90 30 7f
        e 0 90 37 7f
        e 0 90 3c 7f
        e 178 80 24 40
        e 0 80 30 40
        e 0 80 37 40
        e 0 80 3c 40
        e 14 90 24 7f
        e 0 90 30 7f
        e 178 80 24 40
        e 0 80 30 40
        e 14 90 30 7f
        e 0 90 39 7f
        e 0 90 3c 7f
        e 178 80 30 40
        e 0 80 39 40
        e 0 80 3c 40
        e 14 90 24 7f
        e 0 90 30 7f
        e 178 80 24 40
        e 0 80 30 40
        e 14 90 30 7f
        e 0 90 37 7f
        e 0 90 3c 7f
        e 130 80 30 40
        e 0 80 37 40
        e 0 80 3c 40
        e 14 90 30 7f
        e 0 90 37 7f
        e 0 90 3c 7f
        e 34 80 30 40
        e 0 80 37 40
        e 0 80 3c 40
        e 14 90 30 7f
        e 0 90 37 7f
        e 0 90 3c 7f
        e 178 80 30 40
        e 0 80 37 40
        e 0 80 3c 40
        e 14 90 30 7f
        e 0 90 37 7f
        e 0 90 3c 7f
        e 178 80 30 40
        e 0 80 37 40
        e 0 80 3c 40
        e 14 90 26 7f
        e 0 90 32 7f
        e 178 80 26 40
        e 0 80 32 40
        e 14 90 32 75
        e 0 90 37 75
        e 0 90 3b 75
        e 130 80 32 40
        e 0 80 37 40
        e 0 80 3b 40
        e 14 90 32 7f
        e 0 90 37 7f
        e 0 90 3b 7f
        e 34 80 32 40
        e 0 80 37 40
        e 0 80 3b 40
        e 14 90 32 7f
        e 0 90 37 7f
        e 0 90 3b 7f
        e 178 80 32 40
        e 0 80 37 40
        e 0 80 3b 40
        e 14 90 32 7f
        e 0 90 36 7f
        e 178 80 32 40
        e 0 80 36 40
        e 14 90 26 7f
        e 0 90 32 7f
        e 130 80 26 40
        e 0 80 32 40
        e 14 90 26 7f
        e 0 90 32 7f
        e 34 80 26 40
        e 0 80 32 40
        e 14 90 28 7f
        e 0 90 34 7f
        e 130 80 28 40
        e 0 80 34 40
        e 14 90 2a 7f
        e 0 90 36 7f
        e 34 80 2a 40
        e 0 80 36 40
        e 14 90 2b 7f
        e 0 90 37 7f
        e 82 80 2b 40
        e 0 80 37 40
        e 302 90 2b 7f
        e 178 80 2b 40
        e 14 90 35 7f
        e 0 90 37 7f
        e 0 90 3b 7f
        e 130 80 35 40
        e 0 80 37 40
        e 0 80 3b 40
        e 14 90 35 7f
        e 0 90 37 7f
        e 0 90 3b 7f
        e 34 80 35 40
        e 0 80 37 40
        e 0 80 3b 40
        e 14 90 35 7f
        e 0 90 37 7f
        e 0 90 3b 7f
        e 178 80 35 40
        e 0 80 37 40
        e 0 80 3b 40
        e 14 90 35 7f
        e 0 90 37 7f
        e 0 90 3b 7f
        e 178 80 35 40
        e 0 80 37 40
        e 0 80 3b 40
        e 14 90 24 7f
        e 0 90 30 7f
        e 178 80 24 40
        e 0 80 30 40
        e 14 90 30 7f
        e 0 90 34 7f
        e 0 90 37 7f
        e 130 80 30 40
        e 0 80 34 40
        e 0 80 37 40
        e 14 90 30 7f
        e 0 90 34 7f
        e 0 90 37 7f
        e 34 80 30 40
        e 0 80 34 40
        e 0 80 37 40
        e 14 90 30 7f
        e 0 90 34 7f
        e 0 90 37 7f
        e 178 80 30 40
        e 0 80 34 40
        e 0 80 37 40
        e 14 90 30 7f
        e 0 90 34 7f
        e 0 90 37 7f
        e 178 80 30 40
        e 0 80 34 40
        e 0 80 37 40
        e 14 90 2f 7f
        e 0 90 32 7f
        e 0 90 37 7f
        e 178 80 2f 40
        e 0 80 32 40
        e 0 80 37 40
        e 14 90 2d 7f
        e 0 90 3e 7f
        e 178 80 2d 40
        e 0 80 3e 40
        e 14 90 2a 7f
        e 0 90 36 7f
        e 178 80 2a 40
        e 0 80 36 40
        e 14 90 26 7f
        e 0 90 32 7f
        e 178 80 26 40
        e 0 80 32 40
        e 14 90 2b 7f
        e 178 80 2b 40
        e 14 90 2b 7f
        e 0 90 32 7f
        e 0 90 37 7f
        e 130 80 2b 40
        e 0 80 32 40
        e 0 80 37 40
        e 14 90 2b 7f
        e 0 90 32 7f
        e 0 90 37 7f
        e 34 80 2b 40
        e 0 80 32 40
        e 0 80 37 40
        e 14 90 2b 7f
        e 0 90 32 7f
        e 0 90 37 7f
        e 82 80 2b 40
        e 0 80 32 40
        e 0 80 37 40
        e 302 90 24 7f
        e 0 90 30 7f
        e 178 80 24 40
        e 0 80 30 40
        e 14 90 30 7f
        e 0 90 37 7f
        e 0 90 3c 7f
        e 178 80 30 40
        e 0 80 37 40
        e 0 80 3c 40
        e 14 90 29 7f
        e 0 90 35 7f
        e 178 80 29 40
        e 0 80 35 40
        e 14 90 35 7f
        e 0 90 39 7f
        e 0 90 3c 7f
        e 178 80 35 40
        e 0 80 39 40
        e 0 80 3c 40
        e 14 90 28 7f
        e 0 90 34 7f
        e 178 80 28 40
        e 0 80 34 40
        e 14 90 34 7f
        e 0 90 38 7f
        e 0 90 3b 7f
        e 0 90 40 7f
        e 130 80 34 40
        e 0 80 38 40
        e 0 80 3b 40
        e 0 80 40 40
        e 14 90 34 7f
        e 0 90 38 7f
        e 0 90 3b 7f
        e 0 90 40 7f
        e 34 80 34 40
        e 0 80 38 40
        e 0 80 3b 40
        e 0 80 40 40
        e 14 90 34 7f
        e 0 90 38 7f
        e 0 90 3b 7f
        e 0 90 40 7f
        e 178 80 34 40
        e 0 80 38 40
        e 0 80 3b 40
        e 0 80 40 40
        e 14 90 2a 7f
        e 0 90 36 7f
        e 178 80 2a 40
        e 0 80 36 40
        e 14 90 2b 7f
        e 0 90 37 7f
        e 178 80 2b 40
        e 0 80 37 40
        e 14 90 37 7f
        e 0 90 3c 7f
        e 0 90 40 7f
        e 178 80 37 40
        e 0 80 3c 40
        e 0 80 40 40
        e 14 90 2b 7f
        e 0 90 37 7f
        e 178 80 2b 40
        e 0 80 37 40
        e 14 90 37 7f
        e 0 90 3b 7f
        e 0 90 3e 7f
        e 178 80 37 40
        e 0 80 3b 40
        e 0 80 3e 40
        e 14 90 24 7f
        e 0 90 30 7f
        e 178 80 24 40
        e 0 80 30 40
        e 14 90 30 7f
        e 0 90 34 7f
        e 0 90 37 7f
        e 0 90 3c 7f
        e 130 80 30 40
        e 0 80 34 40
        e 0 80 37 40
        e 0 80 3c 40
        e 14 90 30 7f
        e 0 90 34 7f
        e 0 90 37 7f
        e 0 90 3c 7f
        e 34 80 30 40
        e 0 80 34 40
        e 0 80 37 40
        e 0 80 3c 40
        e 14 90 30 7f
        e 0 90 34 7f
        e 0 90 37 7f
        e 0 90 3c 7f
        e 82 80 30 40
        e 0 80 34 40
        e 0 80 37 40
        e 0 80 3c 40
        E 110 b0 7b 00
        OUTCH 4
        GUID {4DD63A7D-1AB7-4148-B5E7-42BA74D8628C}
        IGNTEMPO 0 120 4 4
        SRCCOLOR 51
        VELLANE -1 169 6
        CFGEDITVIEW 4926.897987 159.468138 67 11 0 0 0 0 0 0.5
        KEYSNAP 0
        TRACKSEL 252 0 0 ""
        EVTFILTER 0 -1 -1 -1 -1 0 0 0 0 -1 -1 -1 -1 0 -1 0 -1 -1
        CFGEDIT 1 0 0 0 0 0 1 0 1 1 1 0.25 60 171 866 752 0 0 2 3 0 0 0 0 0 0.5 0 0 1 64
      >
    >
  >
  <TRACK {3CF13A00-0AFC-8542-AD98-73B6D91102DB}
    NAME "vst Plogue"
    PEAKCOL 26779488
    BEAT -1
    AUTOMODE 0
    VOLPAN 1 0 -1 -1 1
    MUTESOLO 0 0 0
    IPHASE 0
    ISBUS 0 0
    BUSCOMP 0 0
    SHOWINMIX 1 1 0.5 1 0.5 0 0 0
    FREEMODE 0
    SEL 0
    REC 0 0 0 1 0 0 0
    VU 2
    TRACKHEIGHT 0 0
    INQ 0 0 0 0.5 100 0 0 100
    NCHAN 4
    FX 1
    TRACKID {3CF13A00-0AFC-8542-AD98-73B6D91102DB}
    PERF 0
    AUXRECV 3 0 1 0 0 0 0 0 0 -1:U 128 -1 ''
    AUXRECV 3 0 1 0 0 0 0 0 0 -1:U 96 -1 ''
    AUXRECV 4 0 1 0 0 0 0 0 0 -1:U 0 -1 ''
    AUXRECV 4 0 1 0 1 0 0 0 0 -1:U 32 -1 ''
    MIDIOUT -1
    MAINSEND 0 0
    <FXCHAIN
      WNDRECT 528 36 724 387
      SHOW 0
      LASTSEL 0
      DOCKED 1
      BYPASS 0 0 0
      <VST "VSTi: chipsounds (Multi) (Plogue Art et Technologie, Inc) (32 out)" "chipsounds Multi.vst" 0 "" 1347241807
        T0dNUO5e7f4AAAAAIAAAAAEAAAAAAAAAAgAAAAAAAAAEAAAAAAAAAAgAAAAAAAAAEAAAAAAAAAAgAAAAAAAAAEAAAAAAAAAAgAAAAAAAAAAAAQAAAAAAAAACAAAAAAAA
        AAQAAAAAAAAACAAAAAAAAAAQAAAAAAAAACAAAAAAAAAAQAAAAAAAAACAAAAAAAAAAAABAAAAAAAAAAIAAAAAAAAABAAAAAAAAAAIAAAAAAAAABAAAAAAAAAAIAAAAAAA
        AABAAAAAAAAAAIAAAAAAAAAAAAEAAAAAAAAAAgAAAAAAAAAEAAAAAAAAAAgAAAAAAAAAEAAAAAAAAAAgAAAAAAAAAEAAAAAAAAAAgAAAAACjBAAAAQAAAAAAEAA=
        Q0VHUFQzAAB4nO2bW3PaOBTH3/MpNH7afaiR5PsMSYdL2GVms80s7OxjRxiFeuoL9YU2++lXtiHYYGS5prBprJfY4q8jHR2BfjqO+++/eS7Y0DByAv9WQjKUwPu7m/4g
        dMiMbGjhIx1i6e4GsNKf0Th2/FUEviTEdeJn9qkEVm6wIO5j4LJbBUsgikNKPCbLbz3ybZbVDFw3sB+Gt5KGWPXDdDz9kMQPwZJmVkgSBx6JWZczN4hvJTaeyGZaU00v
        iEtYFQLvAE27liPb3VaPqB/T8FbS4W4k88TPOocyzIoEervhM8vAWWbGfeLR1KQMHpOQgtEnZ92bTcc9XTMR+OXP+Wz0qwQWxP88ZXoEoSUB+xPxfepmzdeZu6YE4qPe
        1ouPIfFXzPo79FIZs6poHUQ0a+0lcX4Rff3okoi5q26nOBvnA3H83Tg3xE1oFqCyM2UhehEeeV0WYlGhIipURYWaqFAXFRqiQlNUaIkKERRWCscGCQcHCUcHCYcH1cXn
        kYTEE1pEe2Vd73tlMZampnGUpalXLa5UqfkCFfovhgkpXKlakvIGYBQn1VAwNpWT0uKyRybXank986Rm0arCnQHTEpZaxRAgiydF6n61IFy9CuYkXNF4+5NsB5786Aar
        hMrpZiT/MfkgJxENYeEXMms1SiK2ZYxJTED8vGYtMVZ0FsXI+ZfdqOkc7fYw1h/1lw7JL5esCbvYlUn+B8PzlrKLvdzHpk6jN+L0PHRWKxrO2O5OfZuGtW4jAyNr57Zm
        FNzGVW6jg3Fm98YkLapuTIalD0dQmVxrIrLo/8UcoCHDihmNUqfkKKbrn2j993spiR1CGWoHZagCyswOyjooeyNQVvYI6bohgm8W1LLjWD2+YUPVoX5mfNP4LjXAt7rQ
        nyA9TeWCVjGkmG+1Aep+JxTyrTYgPREmK8Lefm5x3SJk+0hNzDrY62CvDewhiJrSXvYrY7BZmNwrI2NiHbuCDaXMgBPGgKnWPJKy2nGVBYgvSpHVDKW0Yyh8+cRW3QYo
        ClsdQ3GFHUO9ssQW3+j1E1tdtqoDmA5gLp6tOuaXLlt1jtKYtNR2pKVUkJbWkVZHWm+EtF5htqoOtP5f2So+EjXJVnUpqLzV693BxJ2+FMGxc8gh5FzU6WumoCA6fOCY
        T81PkoIyXsAIyyCfR/AP2dCnIPSi3u8kXILZs2+fJCNtR0ZIb5mEOhMOnf/hXQ1gdTj0tnEI85Qlj/j//FQ0ymAIW5YAujDI4GZzUImduENFpUVicKXFZcJPUmFxIsN1
        INCWyGqtlqKlC8Mb1LlWNfEBlNJ0imIpJzkbKcXB6lzS/HH0ZsHiKPiPhy0oTrEW1IUnzYJmA60lrkXigWOz2iAbjKH42YOJi9Om8I8/GNbtHR1MXxumr+10O5jGmiYI
        05NtyfeHPB8Kh1UwfeIpb9pqa0uHGisDLQPkUUXt0NAqIL2RBX3Y2gJqa0Ez2lpQxy0tVNdiPCjbHW4PK8bB0Un0AHL/9ETt+PgVj4G3cNJleXjg2Frt//b3dNeA2LGz
        odOXF1Dy+/v9CynUZV3Q5ZwsspXKTPR7uzdm7m7+A0FQIes=
        AAAQAAAA
      >
      FLOATPOS 570 257 871 509
      FXID {C804D762-B992-A540-81BF-3D6C0F7FF19B}
      WAK 0
    >
  >
  <TRACK {97C14EE2-C273-C940-9D68-54C062C3CBCA}
    NAME ChipFront
    PEAKCOL 16576
    BEAT -1
    AUTOMODE 0
    VOLPAN 0.5228261849445 0 -1 -1 1
    MUTESOLO 0 0 0
    IPHASE 0
    ISBUS 0 0
    BUSCOMP 0 0
    SHOWINMIX 1 1 0.5 1 0.5 0 0 0
    FREEMODE 0
    SEL 0
    REC 0 0 0 0 0 0 0
    VU 2
    TRACKHEIGHT 25 0
    INQ 0 0 0 0.5 100 0 0 100
    NCHAN 2
    FX 1
    TRACKID {97C14EE2-C273-C940-9D68-54C062C3CBCA}
    PERF 0
    AUXRECV 5 0 1 0 0 0 0 0 0 -1:U 0 -1 ''
    MIDIOUT -1
    MAINSEND 1 0
    <FXCHAIN
      WNDRECT 528 36 724 387
      SHOW 0
      LASTSEL 0
      DOCKED 1
      BYPASS 0 0 0
      <VST "VST: FabFilter Volcano 2 (SC) (FabFilter)" "FabFilter Volcano 2 (SC).vst" 0 "" 1180054068
        NDJWRu9e7f4EAAAAAQAAAAAAAAACAAAAAAAAAAQAAAAAAAAACAAAAAAAAAAEAAAAAQAAAAAAAAACAAAAAAAAAAQAAAAAAAAACAAAAAAAAADcCwAAAAAAAAAAEAA=
        776t3g3wrd4AAAA/AAAAPwAAAD8AAAA/AACAPwAAAAAAAAAAq6qqPq2+aD8AAAA/ig0yPM3MzD0AAAAAAAAAAAAAAAAAAIA/AACAP0Isdj8AAAA/bbDgPZqZGT8AAAAA
        AAAAAOev3zwAAIA/AAAAAAAAgD8AAAA/AAAAAJqZGT8AAAAAAAAAAAAAAAAAAIA/AAAAAAAAgD8AAAA/AAAAAJqZGT8AAAAAAAAAAAAAAAAAAIA/AAAAAKuqqj4ATrI+
        AAAAPwAAAADBykk/XXRRPwAAAACJiIg9AACAP6oXiD4AAAAAAAAAAAAAAAAAAAAAAACAPwAAAAAAAAA/AAAAAAAAAAAAAAAAAAAAPwAAAAAAAAAAAAAAAAAAAD8AAAAA
        AAAAAAAAAAAAAAA/AAAAAAAAAAAAAAAAAAAAPwAAAAAAAAAAAAAAAAAAAD8AAAAAAAAAAAAAAAAAAAA/AAAAAAAAAAAAAAAAAAAAPwAAAAAAAAAAAAAAAAAAAD8AAAAA
        AAAAAAAAAAAAAAA/AAAAAAAAAAAAAAAAAAAAPwAAAAAAAAAAAAAAAAAAAD8AAAAAAAAAAAAAAAAAAAA/AAAAAAAAAAAAAAAAAAAAPwAAAAAAAAAAAAAAAHwZED4AAAA/
        KKO3PQAAgD8AAAAAAAAAAImIiD3y0iU/AAAAAAAAgD8AAAAAdGjRPQAAAAAAAIA/AAAAAAAAAD8AAAAAAAAAAAAAAAAAAAA/AAAAAAAAAAAAAAAAAAAAPwAAAAAAAAAA
        AAAAAAAAAD8AAAAAAAAAAAAAAAAAAAA/AAAAAAAAAAAAAAAAAAAAPwAAAAAAAAAAAAAAAAAAAD8AAAAAAAAAAAAAAAAAAAA/AAAAAAAAAAAAAAAAAAAAPwAAAAAAAAAA
        AAAAAAAAAD8AAAAAAAAAAAAAAAAAAAA/AAAAAAAAAAAAAAAAAAAAPwAAAAAAAAAAAAAAAAAAAD8AAAAAAAAAAAAAAAAAAAA/AAAAAAAAAAAAAAAAvvR9PgAAAD8AAAA/
        AAAAPwAAAAAAAAAAiYiIPQAAAD8AAAAAAAAAAAAAAAAAAAA/AAAAAAAAAAAAAAAAAAAAPwAAAAAAAAAAAAAAAAAAAD8AAAAAAAAAAAAAAAAAAAA/AAAAAAAAAAAAAAAA
        AAAAPwAAAAAAAAAAAAAAAAAAAD8AAAAAAAAAAAAAAAAAAAA/AAAAAAAAAAAAAAAAAAAAPwAAAAAAAAAAAAAAAAAAAD8AAAAAAAAAAAAAAAAAAAA/AAAAAAAAAAAAAAAA
        AAAAPwAAAAAAAAAAAAAAAAAAAD8AAAAAAAAAAAAAAAAAAAA/AAAAAAAAAAAAAAAAAAAAPwAAAAAAAAAAAAAAAAAAAD8AAAAAAAAAAAAAAAC+9H0+AAAAPwAAAD8AAAA/
        AAAAAAAAAACJiIg9AAAAPwAAAAAAAAAAAAAAAAAAAD8AAAAAAAAAAAAAAAAAAAA/AAAAAAAAAAAAAAAAAAAAPwAAAAAAAAAAAAAAAAAAAD8AAAAAAAAAAAAAAAAAAAA/
        AAAAAAAAAAAAAAAAAAAAPwAAAAAAAAAAAAAAAAAAAD8AAAAAAAAAAAAAAAAAAAA/AAAAAAAAAAAAAAAAAAAAPwAAAAAAAAAAAAAAAAAAAD8AAAAAAAAAAAAAAAAAAAA/
        AAAAAAAAAAAAAAAAAAAAPwAAAAAAAAAAAAAAAAAAAD8AAAAAAAAAAAAAAAAAAAA/AAAAAAAAAAAAAAAAAAAAPwAAAAAAAAAAAAAAAL70fT4AAAA/AAAAPwAAAD8AAAAA
        AAAAAImIiD0AAAA/AAAAAAAAAAAAAAAAAAAAPwAAAAAAAAAAAAAAAAAAAD8AAAAAAAAAAAAAAAAAAAA/AAAAAAAAAAAAAAAAAAAAPwAAAAAAAAAAAAAAAAAAAD8AAAAA
        AAAAAAAAAAAAAAA/AAAAAAAAAAAAAAAAAAAAPwAAAAAAAAAAAAAAAAAAAD8AAAAAAAAAAAAAAAAAAAA/AAAAAAAAAAAAAAAAAAAAPwAAAAAAAAAAAAAAAAAAAD8AAAAA
        AAAAAAAAAAAAAAA/AAAAAAAAAAAAAAAAAAAAPwAAAAAAAAAAAAAAAAAAAD8AAAAAAAAAAAAAAAAAAAA/AAAAAAAAAAAAAAAAvvR9PgAAAD8AAAA/AAAAPwAAAAAAAAAA
        iYiIPQAAAD8AAAAAAAAAAAAAAAAAAAA/AAAAAAAAAAAAAAAAAAAAPwAAAAAAAAAAAAAAAAAAAD8AAAAAAAAAAAAAAAAAAAA/AAAAAAAAAAAAAAAAAAAAPwAAAAAAAAAA
        AAAAAAAAAD8AAAAAAAAAAAAAAAAAAAA/AAAAAAAAAAAAAAAAAAAAPwAAAAAAAAAAAAAAAAAAAD8AAAAAAAAAAAAAAAAAAAA/AAAAAAAAAAAAAAAAAAAAPwAAAAAAAAAA
        AAAAAAAAAD8AAAAAAAAAAAAAAAAAAAA/AAAAAAAAAAAAAAAAAAAAPwAAAAAAAAAAAAAAAAAAAD8AAAAAAAAAAAAAAAAAAAAAmpmZPgAAAAAAAAAAAAAAAAAAgD8AAAAA
        mpmZPgAAAAAAAAAAAAAAAAAAgD8AAAAAmpmZPgAAAAAAAAAAAAAAAAAAgD8AAAAAmpmZPgAAAAAAAAAAAAAAAAAAgD8AAAAAmpmZPgAAAAAAAAAAAAAAAAAAgD8AAAAA
        mpmZPgAAAAAAAAAAAAAAAAAAgD8AAAAAAAAAAAAAAAAAAAAAAAAAAAAAAAAAAAAAAAAAAAAAAAAAAAAAAAAAAAAAAAAAAAAAAAAAAAAAAAAAAAAAAAAAAAAAAAAAAAAA
        AAAAAAAAAAAAAAAAAAAAAAAAAAAAAAAAAAAAAAAAAAAAAAAAAAAAAAAAAAAAAAAAAAAAAAAAAAAAAAAAAAAAAAAAAAAAAAAAAAAAAKuqKj3ZiZ09gShWPgAAAAAAAAAA
        v+eWPQAAAAAAAAA/AAAAAAAAAAAAAAAAAAAAAAAAAD8AAAAAAAAAAAAAAAAAAAAAAAAAPwAAAAAAAAAAAAAAAAAAAAAAAAAAAAAAAAAAAAAAAAAAAAAAAAAAAAAAAAAA
        AAAAAAAAAAAAAAAAAAAAAAAAAAAAAAAAAAAAAAAAAAAAAAAAAAAAAAAAAAAAAAAAAAAAAAAAAAAAAAAAAAAAAAAAAAAAAAAAAAAAAAAAAAAAAAAAAAAAAAAAAAAAAAAA
        AAAAAAAAAAAAAAAAAAAAAAAAAAAAAAAAAAAAAAAAAAAAAAAAAAAAAAAAAAAAAAAAAAAAAAAAAAAAAAAAAAAAAAAAAAAAAAAAAAAAAAAAAAAAAAAAAAAAAAAAAAAAAAAA
        AAAAAAAAAAAAAAAAAAAAAAAAAAAAAAAAAAAAAAAAAAAAAAAAAAAAAAAAAAAAAAAAAAAAAAAAAAAAAAAAAAAAAAAAAAAAAAAAAAAAAAAAAAAAAAAAAAAAAAAAAAAAAAAA
        AAAAAAAAAAAAAAAAAAAAAAAAAAAAAAAAAAAAAAAAAAAAAAAAAAAAAAAAAAAAAAAAAAAAAAAAAAAAAAAAAAAAAAAAAAAAAAAAAAAAAAAAAAAAAAAAAAAAPwAAAD8AAAA/
        AAAAPwAAAD8AAAA/AAAAPwAAAD8AAAAAAAAAAAAAAAAAAAAAAAAAAAAAAAAAAAAAAAAAAAAAAAAAAAAAAAAAAAAAAAAAAAAAAAAAAAAAAAAAAAAAAAAAAAAAAAAAAAAA
        AAAAAAAAAAAAAAAAAAAAAAAAAAAAAAAAAAAAAAAAAAAAAAAAAAAAAAAAAAAAAAAAAAAAAAAAAAAAAAAAAAAAAAAAAAAAAAAAAAAAAAAAAAAAAAAAAAAAAAAAAAAAAAAA
        AAAAAAAAAAAAAAAAAAAAAAAAAAAAAAAAAAAAAAAAAAAAAAAAAAAAAAAAAAAAAAAAAAAAAAAAAAAAAAAAAAAAAAAAAAAAAAAAAAAAAAAAAAAAAAAAAAAAAAAAAAAAAAAA
        AAAAAAAAAAAAAAAAAAAAAAAAAAAAAAAAAAAAAAAAAAAAAAAAAAAAAAAAAAAAAAAAAAAAAAAAAAAAAAAA
        Q2hpcEZyb250AENoaXBGcm9udAAQAAAA
      >
      PRESETNAME ChipFront
      FLOATPOS 353 147 927 529
      FXID {4C5A6810-F3ED-0645-A06D-6758F70CB097}
      WAK 0
    >
  >
  <TRACK {1B564899-9ACC-8C4B-8FBF-925A5A247A13}
    NAME ChipSide
    PEAKCOL 16576
    BEAT -1
    AUTOMODE 0
    VOLPAN 0.34264637489056 0 -1 -1 1
    MUTESOLO 0 0 0
    IPHASE 0
    ISBUS 0 0
    BUSCOMP 0 0
    SHOWINMIX 1 1 0.5 1 0.5 0 0 0
    FREEMODE 0
    SEL 0
    REC 0 0 0 0 0 0 0
    VU 2
    TRACKHEIGHT 0 0
    INQ 0 0 0 0.5 100 0 0 100
    NCHAN 2
    FX 1
    TRACKID {1B564899-9ACC-8C4B-8FBF-925A5A247A13}
    PERF 0
    AUXRECV 5 0 1.03113579563571 0 0 0 0 2 0 -1:U 0 -1 ''
    MIDIOUT -1
    MAINSEND 1 0
    <FXCHAIN
      SHOW 0
      LASTSEL 0
      DOCKED 0
      BYPASS 0 0 0
      <VST "VST: FabFilter Volcano 2 (SC) (FabFilter)" "FabFilter Volcano 2 (SC).vst" 0 "" 1180054068
        NDJWRu9e7f4EAAAAAQAAAAAAAAACAAAAAAAAAAQAAAAAAAAACAAAAAAAAAAIAAAAAQAAAAAAAAACAAAAAAAAAAQAAAAAAAAACAAAAAAAAAAQAAAAAAAAACAAAAAAAAAA
        QAAAAAAAAACAAAAAAAAAANwLAAAAAAAAAAAQAA==
        776t3g3wrd4AAAA/AAAAPwAAAD8AAAA/AACAPwAAAAAAAAA/q6qqPlxZMj8AAAA/oGk2P83MzD0AAAAAAAAAAAAAAAAAAIA/AACAP3g9Yz8AAAA/AAAAAJqZGT8AAAAA
        AAAAADvfBz8AAIA/AAAAAAAAgD8AAAA/AAAAAJqZGT8AAAAAAAAAAAAAAAAAAIA/AAAAAAAAgD8AAAA/AAAAAJqZGT8AAAAAAAAAAAAAAAAAAIA/AAAAAKuqqj6CdAA9
        AAAAP5gn+j4AAIA/jC46PgAAgD+JiIg993QuP+rf+D6rqqo+AAAAALj4fz5pt5I+AACAPwAAAAAAAAA/AAAAAAAAAAAAAAAAAAAAPwAAAAAAAAAAAAAAAAAAAD8AAAAA
        AAAAAAAAAAAAAAA/AAAAAAAAAAAAAAAAAAAAPwAAAAAAAAAAAAAAAAAAAD8AAAAAAAAAAAAAAAAAAAA/AAAAAAAAAAAAAAAAAAAAPwAAAAAAAAAAAAAAAAAAAD8AAAAA
        AAAAAAAAAAAAAAA/AAAAAAAAAAAAAAAAAAAAPwAAAAAAAAAAAAAAAAAAAD8AAAAAAAAAAAAAAAAAAAA/AAAAAAAAAAAAAAAAAAAAPwAAAAAAAAAAAAAAAHwZED4AAAA/
        KKO3PQAAgD8AAAAAAAAAAImIiD3y0iU/AAAAAAAAgD8AAAAAdGjRPQAAAAAAAIA/AAAAAAAAAD8AAAAAAAAAAAAAAAAAAAA/AAAAAAAAAAAAAAAAAAAAPwAAAAAAAAAA
        AAAAAAAAAD8AAAAAAAAAAAAAAAAAAAA/AAAAAAAAAAAAAAAAAAAAPwAAAAAAAAAAAAAAAAAAAD8AAAAAAAAAAAAAAAAAAAA/AAAAAAAAAAAAAAAAAAAAPwAAAAAAAAAA
        AAAAAAAAAD8AAAAAAAAAAAAAAAAAAAA/AAAAAAAAAAAAAAAAAAAAPwAAAAAAAAAAAAAAAAAAAD8AAAAAAAAAAAAAAAAAAAA/AAAAAAAAAAAAAAAAvvR9PgAAAD8AAAA/
        AAAAPwAAAAAAAAAAiYiIPQAAAD8AAAAAAAAAAAAAAAAAAAA/AAAAAAAAAAAAAAAAAAAAPwAAAAAAAAAAAAAAAAAAAD8AAAAAAAAAAAAAAAAAAAA/AAAAAAAAAAAAAAAA
        AAAAPwAAAAAAAAAAAAAAAAAAAD8AAAAAAAAAAAAAAAAAAAA/AAAAAAAAAAAAAAAAAAAAPwAAAAAAAAAAAAAAAAAAAD8AAAAAAAAAAAAAAAAAAAA/AAAAAAAAAAAAAAAA
        AAAAPwAAAAAAAAAAAAAAAAAAAD8AAAAAAAAAAAAAAAAAAAA/AAAAAAAAAAAAAAAAAAAAPwAAAAAAAAAAAAAAAAAAAD8AAAAAAAAAAAAAAAC+9H0+AAAAPwAAAD8AAAA/
        AAAAAAAAAACJiIg9AAAAPwAAAAAAAAAAAAAAAAAAAD8AAAAAAAAAAAAAAAAAAAA/AAAAAAAAAAAAAAAAAAAAPwAAAAAAAAAAAAAAAAAAAD8AAAAAAAAAAAAAAAAAAAA/
        AAAAAAAAAAAAAAAAAAAAPwAAAAAAAAAAAAAAAAAAAD8AAAAAAAAAAAAAAAAAAAA/AAAAAAAAAAAAAAAAAAAAPwAAAAAAAAAAAAAAAAAAAD8AAAAAAAAAAAAAAAAAAAA/
        AAAAAAAAAAAAAAAAAAAAPwAAAAAAAAAAAAAAAAAAAD8AAAAAAAAAAAAAAAAAAAA/AAAAAAAAAAAAAAAAAAAAPwAAAAAAAAAAAAAAAL70fT4AAAA/AAAAPwAAAD8AAAAA
        AAAAAImIiD0AAAA/AAAAAAAAAAAAAAAAAAAAPwAAAAAAAAAAAAAAAAAAAD8AAAAAAAAAAAAAAAAAAAA/AAAAAAAAAAAAAAAAAAAAPwAAAAAAAAAAAAAAAAAAAD8AAAAA
        AAAAAAAAAAAAAAA/AAAAAAAAAAAAAAAAAAAAPwAAAAAAAAAAAAAAAAAAAD8AAAAAAAAAAAAAAAAAAAA/AAAAAAAAAAAAAAAAAAAAPwAAAAAAAAAAAAAAAAAAAD8AAAAA
        AAAAAAAAAAAAAAA/AAAAAAAAAAAAAAAAAAAAPwAAAAAAAAAAAAAAAAAAAD8AAAAAAAAAAAAAAAAAAAA/AAAAAAAAAAAAAAAAvvR9PgAAAD8AAAA/AAAAPwAAAAAAAAAA
        iYiIPQAAAD8AAAAAAAAAAAAAAAAAAAA/AAAAAAAAAAAAAAAAAAAAPwAAAAAAAAAAAAAAAAAAAD8AAAAAAAAAAAAAAAAAAAA/AAAAAAAAAAAAAAAAAAAAPwAAAAAAAAAA
        AAAAAAAAAD8AAAAAAAAAAAAAAAAAAAA/AAAAAAAAAAAAAAAAAAAAPwAAAAAAAAAAAAAAAAAAAD8AAAAAAAAAAAAAAAAAAAA/AAAAAAAAAAAAAAAAAAAAPwAAAAAAAAAA
        AAAAAAAAAD8AAAAAAAAAAAAAAAAAAAA/AAAAAAAAAAAAAAAAAAAAPwAAAAAAAAAAAAAAAAAAAD8AAAAAAAAAAAAAAAAAAAAAmpmZPgAAAAAAAAAAAAAAAAAAgD8AAAAA
        mpmZPgAAAAAAAAAAAAAAAAAAgD8AAAAAmpmZPgAAAAAAAAAAAAAAAAAAgD8AAAAAmpmZPgAAAAAAAAAAAAAAAAAAgD8AAAAAmpmZPgAAAAAAAAAAAAAAAAAAgD8AAAAA
        mpmZPgAAAAAAAAAAAAAAAAAAgD8AAAAAAAAAAAAAAAAAAAAAAAAAAAAAAAAAAAAAAAAAAAAAAAAAAAAAAAAAAAAAAAAAAAAAAAAAAAAAAAAAAAAAAAAAAAAAAAAAAAAA
        AAAAAAAAAAAAAAAAAAAAAAAAAAAAAAAAAAAAAAAAAAAAAAAAAAAAAAAAAAAAAAAAAAAAAAAAAAAAAAAAAAAAAAAAAAAAAAAAAAAAAKuqKj3ZiR09AACAPwAAAAAAAAAA
        knYsPAAAAAAAAAA/AAAAAAAAAAAAAAAAAAAAAAAAAD8AAAAAAAAAAAAAAAAAAAAAAAAAPwAAAAAAAAAAAAAAAAAAAAAAAAAAAAAAAAAAAAAAAAAAAAAAAAAAAAAAAAAA
        AAAAAAAAAAAAAAAAAAAAAAAAAAAAAAAAAAAAAAAAAAAAAAAAAAAAAAAAAAAAAAAAAAAAAAAAAAAAAAAAAAAAAAAAAAAAAAAAAAAAAAAAAAAAAAAAAAAAAAAAAAAAAAAA
        AAAAAAAAAAAAAAAAAAAAAAAAAAAAAAAAAAAAAAAAAAAAAAAAAAAAAAAAAAAAAAAAAAAAAAAAAAAAAAAAAAAAAAAAAAAAAAAAAAAAAAAAAAAAAAAAAAAAAAAAAAAAAAAA
        AAAAAAAAAAAAAAAAAAAAAAAAAAAAAAAAAAAAAAAAAAAAAAAAAAAAAAAAAAAAAAAAAAAAAAAAAAAAAAAAAAAAAAAAAAAAAAAAAAAAAAAAAAAAAAAAAAAAAAAAAAAAAAAA
        AAAAAAAAAAAAAAAAAAAAAAAAAAAAAAAAAAAAAAAAAAAAAAAAAAAAAAAAAAAAAAAAAAAAAAAAAAAAAAAAAAAAAAAAAAAAAAAAAAAAAAAAAAAAAAAAAAAAPwAAAD8AAAA/
        AAAAPwAAAD8AAAA/AAAAPwAAAD8AAAAAAAAAAAAAAAAAAAAAAAAAAAAAAAAAAAAAAAAAAAAAAAAAAAAAAAAAAAAAAAAAAAAAAAAAAAAAAAAAAAAAAAAAAAAAAAAAAAAA
        AAAAAAAAAAAAAAAAAAAAAAAAAAAAAAAAAAAAAAAAAAAAAAAAAAAAAAAAAAAAAAAAAAAAAAAAAAAAAAAAAAAAAAAAAAAAAAAAAAAAAAAAAAAAAAAAAAAAAAAAAAAAAAAA
        AAAAAAAAAAAAAAAAAAAAAAAAAAAAAAAAAAAAAAAAAAAAAAAAAAAAAAAAAAAAAAAAAAAAAAAAAAAAAAAAAAAAAAAAAAAAAAAAAAAAAAAAAAAAAAAAAAAAAAAAAAAAAAAA
        AAAAAAAAAAAAAAAAAAAAAAAAAAAAAAAAAAAAAAAAAAAAAAAAAAAAAAAAAAAAAAAAAAAAAAAAAAAAAAAA
        Q2hpcFNpZGUAQ2hpcFNpZGUAEAAAAA==
      >
      PRESETNAME ChipSide
      FLOATPOS 250 243 927 529
      FXID {20356A84-5CFD-6E4A-AA26-2A8A49CE7A76}
      WAK 0
    >
  >
  <TRACK {7AC4452F-A8CC-2D45-AE3F-6BC0D8544244}
    NAME "41 Thailand"
    PEAKCOL 16576
    BEAT -1
    AUTOMODE 0
    VOLPAN 1 0 -1 -1 1
    MUTESOLO 1 0 0
    IPHASE 0
    ISBUS 0 0
    BUSCOMP 0 0
    SHOWINMIX 1 1 0.5 1 0.5 0 0 0
    FREEMODE 0
    SEL 0
    REC 0 0 0 0 0 0 0
    VU 2
    TRACKHEIGHT 0 0
    INQ 0 0 0 0.5 100 0 0 100
    NCHAN 2
    FX 1
    TRACKID {7AC4452F-A8CC-2D45-AE3F-6BC0D8544244}
    PERF 0
    MIDIOUT -1
    MAINSEND 1 0
    <ITEM
      POSITION 0
      SNAPOFFS 0
      LENGTH 43.77506829387922
      LOOP 1
      ALLTAKES 0
      FADEIN 1 0 0 1 0 0
      FADEOUT 1 0 0 1 0 0
      MUTE 0
      SEL 0
      IGUID {F4842A03-1CE1-ED4B-8B9D-D26C39D98A50}
      IID 14
      NAME "41 Thailand.mp3"
      VOLPAN 1 0 1 -1
      SOFFS 1.16024295880331
      PLAYRATE 1.0486547162258 1 0 -1 0 0.0025
      CHANMODE 0
      GUID {50C34DE0-F9EE-404B-AF1C-FDEBB36B0610}
      <SOURCE MP3
        FILE "41 Thailand.mp3" 1
      >
    >
  >
  <EXTENSIONS
    <SWSAUTOCOLOR
      {00000000-0000-0000-0000-000000000000} 0 "" "" ""
    >
    <BR_CURSOR_POS 00
      0.00000000000000
    >
    <BR_CURSOR_POS 04
      0.00000000000000
    >
  >
>
