<REAPER_PROJECT 0.1 "5.20rc3/OSX64" 1462686996
  RIPPLE 0
  GROUPOVERRIDE 0 0 0
  AUTOXFADE 0
  ENVATTACH 1
  MIXERUIFLAGS 11 52
  PEAKGAIN 1
  FEEDBACK 0
  PANLAW 1
  PROJOFFS 0 0
  MAXPROJLEN 0 600
  GRID 174206 8 1 8 1 0 0
  TIMEMODE 6 0 -1 24 2
  PANMODE 3
  CURSOR 0
  ZOOM 13.70643207160672 0 0
  VZOOMEX 0
  USE_REC_CFG 0
  RECMODE 1
  SMPTESYNC 0 23.976024 100 40 1000 300 0 0 1
  MIDIEDITOR -171672382
  LOOP 1
  LOOPGRAN 0 4
  RECORD_PATH "" ""
  <RECORD_CFG
    ZXZhdxAA
  >
  <APPLYFX_CFG
  >
  RENDER_FILE ""
  RENDER_PATTERN ""
  RENDER_FMT 0 2 0
  RENDER_1X 0
  RENDER_RANGE 1 0 0 18 1000
  RENDER_RESAMPLE 3 0 1
  RENDER_ADDTOPROJ 0
  RENDER_STEMS 0
  RENDER_DITHER 0
  TIMELOCKMODE 1
  TEMPOENVLOCKMODE 1
  ITEMMIX 1
  DEFPITCHMODE 589824
  TAKELANE 3
  SAMPLERATE 44100 0 0
  <RENDER_CFG
  >
  LOCK 1
  <METRONOME 6 2
    VOL 0.25 0.125
    FREQ 800 1600 1
    BEATLEN 4
    SAMPLES "" ""
    PATTERN 2863311530 2863311529
  >
  GLOBAL_AUTO -1
  TEMPO 120 4 4
  PLAYRATE 1 0 0.25 4
  SELECTION 0 0
  SELECTION2 0 0
  MASTERAUTOMODE 0
  MASTERTRACKHEIGHT 0
  MASTERPEAKCOL 16576
  MASTERMUTESOLO 0
  MASTERTRACKVIEW 0 0.6667 0.5 0.5 0 0 0
  MASTERHWOUT 0 0 1 0 0 0 0 -1
  MASTER_NCH 2 2
  MASTER_VOLUME 1 0 -1 -1 1
  MASTER_FX 1
  MASTER_SEL 0
  <MASTERPLAYSPEEDENV
    ACT 0
    VIS 0 1 1
    LANEHEIGHT 0 0
    ARM 0
    DEFSHAPE 0 -1 -1
  >
  <TEMPOENVEX
    ACT 0
    VIS 1 0 1
    LANEHEIGHT 0 0
    ARM 0
    DEFSHAPE 1 -1 -1
  >
  <PROJBAY
  >
  <TRACK {4A6CD977-ADCC-3A4D-927C-BB2CEF4B0809}
    NAME "vst Gladiator"
    PEAKCOL 27222112
    BEAT -1
    AUTOMODE 0
    VOLPAN 1 0 -1 -1 1
    MUTESOLO 0 0 0
    IPHASE 0
    ISBUS 0 0
    BUSCOMP 2 0
    SHOWINMIX 1 0.6667 0.5 1 0.5 0 0 0
    FREEMODE 0
    SEL 0
    REC 0 0 0 0 0 0 0
    VU 2
    TRACKHEIGHT 113 0
    INQ 0 0 0 0.5 100 0 0 100
    NCHAN 2
    FX 1
    TRACKID {4A6CD977-ADCC-3A4D-927C-BB2CEF4B0809}
    PERF 0
    MIDIOUT -1
    MAINSEND 1 0
    <FXCHAIN
      SHOW 0
      LASTSEL 0
      DOCKED 0
      BYPASS 0 0 0
      <VST "VSTi: Gladiator (Tone2.com)" Gladiator.vst 0 "" 1412581196
        TEcyVO5e7f4AAAAAAgAAAAEAAAAAAAAAAgAAAAAAAABaBAAAAQAAAAAAEAA=
        Q2NuSwAAAGBGeENrAAAAAVQyR0wAAAABAAABB0luaXQAAAAAAAAAAAAAAAAAAAAAAAAAAAAAAAA9zMzNPMzMzTw0OVg9uFH0PXnbIz+AAAA7xJumPb52yT+AAAA7xJum
        AAAAAD6mZmY+PXCkP4AAAD7FHrk/AAAAPwAAAAAAAAA9ffO2PdDlYDy8an8/RR64AAAAAD+AAAA8NDlYPZFocz71wo87RJumPbhR6D69cKQ+PXCkP4AAAD8AAAA/A9cL
        PwAAAAAAAAAAAAAAPwAAAD8AAAA/AAAAPtmZmj8AAAAAAAAAO+VgQj24UesAAAAAPk21xDtEm6Y/S4UeAAAAAAAAAAA+64UgPpR64T1hR7A+z1woPx64Uj49cKY/AAAA
        PwAAAAAAAAAAAAAAPwAAAAAAAAAAAAAAP4AAAD+AAAAAAAAAPxHrhT8AAAA/AAAAPwAAAD8AAAAAAAAAPwAAAD8AAAA/AAAAAAAAAD8AAAA/AAAAPwAAAAAAAAA6gxJv
        P1Cj1wAAAAA/gAAAAAAAADqDEm8/AAAAAAAAAAAAAAAAAAAAPwAAAAAAAAA/gAAAAAAAAD+AAAAAAAAAPwAAAD8AAAA/AAAAPwAAAD8AAAA/AAAAPwAAAD8AAAA/AAAA
        PwAAAD8AAAA/EeuGPKPXCjqDEm88RJumAAAAAAAAAAAAAAAAPLxqfwAAAAAAAAAAAAAAAAAAAAAAAAAAAAAAAAAAAAAAAAAAAAAAAAAAAAAAAAAAAAAAAAAAAAAAAAAA
        AAAAAAAAAAA8E3S8AAAAADw0OVgAAAAAPBN0vAAAAAA8NDlYAAAAADwTdLwAAAAAPDQ5WAAAAAA8E3S8AAAAADw0OVgAAAAAPGVgQj2HKwI8ZWBCOwMSbz2JN0w7AxJv
        PLQ5WDyLQ5Y8k3S8PVT99D0XjVA8zMzNPoAAAD9ywjU/AAAAP1GnuT8wjT4/HLCNAAAAADsDEm86gxJvAAAAAAAAAAAAAAAAPwAAADqDEm87RJumP4AAAAAAAAA/gAAA
        AAAAAD+AAAAAAAAAAAAAAAAAAAAAAAAAP4AAAAAAAAA/AAAAAAAAAD8AAAA/BR64PwAAAD+AAAA/AAAAPwAAAD8AAAA/gAAAP4AAAAAAAAAAAAAAAAAAAD8AAAA/gAAA
        PwAAAAAAAAA+vXCkAAAAAAAAAAA/gAAAP4AAAD8j1wo/gAAAAAAAAAAAAAA/gAAAPwAAAAAAAAAAAAAAAAAAAAAAAAAAAAAAAAAAAAAAAAAAAAAAAAAAAAAAAAAAAAAA
        AAAAAD8AAAA/AAAAPwAAAD8AAAA/AAAAPwAAAAAAAAAAAAAAP4AAAAAAAAAAAAAAAAAAAAAAAAAAAAAAAAAAAAAAAAAAAAAAAAAAAAAAAAAAAAAAAAAAAAAAAAAAAAAA
        AAAAAAAAAAAAAAAAAAAAAAAAAAAAAAAAAAAAAAAAAAAAAAAAAAAAAAAAAAAAAAAAAAAAAAAAqqusrQ==
        AAAQAAAA
      >
      FLOATPOS 500 379 987 799
      FXID {532372E3-5B0D-9345-A9C8-98A8EBAF9A7E}
      WAK 0
    >
    <ITEM
      POSITION 0
      SNAPOFFS 0
      LENGTH 33.5
      LOOP 1
      ALLTAKES 0
      FADEIN 1 0 0 1 0 0
      FADEOUT 1 0 0 1 0 0
      MUTE 0
      SEL 0
      YPOS 0.3 0.1
      IGUID {7A80E147-B085-6E4F-A718-A3AC5FAF7137}
      IID 2
      NAME "RH                   - National_Anthems_-_Thailand.mid"
      VOLPAN 1 0 1 -1
      SOFFS 0 0
      PLAYRATE 1 1 0 -1 0 0.0025
      CHANMODE 0
      GUID {04F096D0-42EE-5D4A-9BCC-70A2BE008C5E}
      <SOURCE MIDI
        HASDATA 1 192 QN
        POOLEDEVTS {4697D630-C5BD-974B-A74C-F5CCFCFEAC55}
        <X 0 0
          /wNSSCAgICAgICAgICAgICAgICAgIA==
        >
        e 528 91 37 7f
        e 34 81 37 40
        e 14 91 3c 7f
        e 130 81 3c 40
        e 14 91 40 7f
        e 34 81 40 40
        e 14 91 3c 7f
        e 0 91 40 7f
        e 0 91 43 7f
        e 178 81 3c 40
        e 0 81 40 40
        e 0 81 43 40
        e 14 91 40 7f
        e 0 91 43 7f
        e 130 81 40 40
        e 0 81 43 40
        e 14 91 40 7f
        e 0 91 43 7f
        e 34 81 40 40
        e 0 81 43 40
        e 14 91 41 7f
        e 0 91 45 7f
        e 130 81 45 40
        e 14 91 43 7f
        e 34 81 41 40
        e 0 81 43 40
        e 14 91 41 7f
        e 130 81 41 40
        e 14 91 45 7f
        e 34 81 45 40
        e 14 91 40 7f
        e 0 91 43 7f
        e 370 81 40 40
        e 0 81 43 40
        e 14 91 3c 7f
        e 0 91 40 7f
        e 178 81 3c 40
        e 0 81 40 40
        e 14 91 3c 7f
        e 0 91 40 7f
        e 130 81 40 40
        e 14 91 41 7f
        e 34 81 3c 40
        e 0 81 41 40
        e 14 91 3c 7f
        e 0 91 40 7f
        e 130 81 3c 40
        e 0 81 40 40
        e 14 91 3e 7f
        e 34 81 3e 40
        e 14 91 3b 7f
        e 0 91 3e 7f
        e 322 81 3b 40
        e 0 81 3e 40
        e 14 91 3b 7f
        e 0 91 3e 7f
        e 34 81 3b 40
        e 0 81 3e 40
        e 14 91 3b 7f
        e 0 91 3e 7f
        e 130 81 3b 40
        e 0 81 3e 40
        e 14 91 3b 7f
        e 0 91 40 7f
        e 34 81 3b 40
        e 0 81 40 40
        e 14 91 3b 7f
        e 0 91 3e 7f
        e 130 81 3b 40
        e 0 81 3e 40
        e 14 91 3c 7f
        e 34 81 3c 40
        e 14 91 3c 7f
        e 370 81 3c 40
        e 14 91 3c 7f
        e 130 81 3c 40
        e 14 91 40 7f
        e 34 81 40 40
        e 14 91 3c 7f
        e 0 91 40 7f
        e 0 91 43 7f
        e 178 81 3c 40
        e 0 81 40 40
        e 0 81 43 40
        e 14 91 40 7f
        e 0 91 43 7f
        e 178 81 40 40
        e 0 81 43 40
        e 14 91 41 7f
        e 0 91 45 7f
        e 130 81 45 40
        e 14 91 43 7f
        e 34 81 41 40
        e 0 81 43 40
        e 14 91 41 7f
        e 130 81 41 40
        e 14 91 45 7f
        e 34 81 45 40
        e 14 91 40 7f
        e 0 91 43 7f
        e 562 81 40 40
        e 0 81 43 40
        e 14 91 40 7f
        e 0 91 43 7f
        e 130 81 43 40
        e 14 91 45 7f
        e 34 81 40 40
        e 0 81 45 40
        e 14 91 3e 7f
        e 0 91 47 7f
        e 130 81 47 40
        e 14 91 43 7f
        e 34 81 3e 40
        e 0 81 43 40
        e 14 91 3e 7f
        e 0 91 43 7f
        e 0 91 4a 7f
        e 322 81 3e 40
        e 0 81 43 40
        e 0 81 4a 40
        e 14 91 3e 7f
        e 34 81 3e 40
        e 14 91 3c 7f
        e 0 91 3e 7f
        e 0 91 45 7f
        e 130 81 45 40
        e 14 91 47 7f
        e 34 81 3c 40
        e 0 81 3e 40
        e 0 81 47 40
        e 14 91 3c 7f
        e 0 91 3e 7f
        e 0 91 45 7f
        e 370 81 3c 40
        e 0 81 3e 40
        e 0 81 45 40
        e 14 91 3b 7f
        e 0 91 3e 7f
        e 0 91 43 7f
        e 82 81 3b 40
        e 0 81 3e 40
        e 0 81 43 40
        e 110 91 43 7f
        e 130 81 43 40
        e 14 91 45 7f
        e 34 81 45 40
        e 14 91 43 7f
        e 82 81 43 40
        e 14 91 41 7f
        e 82 81 41 40
        e 14 91 3e 7f
        e 370 81 3e 40
        e 14 91 41 7f
        e 130 81 41 40
        e 14 91 45 7f
        e 34 81 45 40
        e 14 91 43 7f
        e 82 81 43 40
        e 14 91 40 7f
        e 82 81 40 40
        e 14 91 3c 7f
        e 370 81 3c 40
        e 14 91 3c 7f
        e 130 81 3c 40
        e 14 91 40 7f
        e 34 81 40 40
        e 14 91 3e 7f
        e 178 81 3e 40
        e 14 91 3c 7f
        e 0 91 3e 7f
        e 130 81 3c 40
        e 0 81 3e 40
        e 14 91 3c 7f
        e 0 91 3e 7f
        e 34 81 3c 40
        e 0 81 3e 40
        e 14 91 3c 7f
        e 0 91 3e 7f
        e 0 91 45 7f
        e 178 81 3c 40
        e 0 81 3e 40
        e 0 81 45 40
        e 14 91 3c 7f
        e 0 91 42 7f
        e 0 91 47 7f
        e 130 81 47 40
        e 14 91 45 7f
        e 34 81 3c 40
        e 0 81 42 40
        e 0 81 45 40
        e 14 91 3b 7f
        e 0 91 3e 7f
        e 0 91 43 7f
        e 466 81 3b 40
        e 0 81 3e 40
        e 0 81 43 40
        e 62 91 3c 7f
        e 34 81 3c 40
        e 14 91 3c 7f
        e 130 81 3c 40
        e 14 91 40 7f
        e 34 81 40 40
        e 14 91 3c 7f
        e 0 91 40 7f
        e 0 91 43 7f
        e 178 81 3c 40
        e 0 81 40 40
        e 0 81 43 40
        e 14 91 3c 7f
        e 0 91 40 7f
        e 0 91 43 7f
        e 178 81 3c 40
        e 0 81 40 40
        e 0 81 43 40
        e 14 91 41 7f
        e 0 91 45 7f
        e 130 81 45 40
        e 14 91 47 7f
        e 34 81 41 40
        e 0 81 47 40
        e 14 91 45 7f
        e 0 91 48 7f
        e 130 81 48 40
        e 14 91 4a 7f
        e 34 81 45 40
        e 0 81 4a 40
        e 14 91 44 7f
        e 0 91 47 7f
        e 0 91 4c 7f
        e 514 81 44 40
        e 0 81 47 40
        e 0 81 4c 40
        e 14 91 40 7f
        e 0 91 47 7f
        e 0 91 4a 7f
        e 34 81 40 40
        e 0 81 47 40
        e 0 81 4a 40
        e 14 91 3f 7f
        e 0 91 45 7f
        e 0 91 48 7f
        e 130 81 3f 40
        e 0 81 45 40
        e 0 81 48 40
        e 14 91 3c 7f
        e 0 91 3f 7f
        e 0 91 45 7f
        e 34 81 3c 40
        e 0 81 3f 40
        e 0 81 45 40
        e 14 91 3c 7f
        e 0 91 40 7f
        e 0 91 43 7f
        e 130 81 43 40
        e 14 91 45 7f
        e 34 81 3c 40
        e 0 81 40 40
        e 0 81 45 40
        e 14 91 43 7f
        e 0 91 47 7f
        e 130 81 47 40
        e 14 91 48 7f
        e 34 81 43 40
        e 0 81 48 40
        e 14 91 41 7f
        e 0 91 43 7f
        e 0 91 4c 7f
        e 130 81 4c 40
        e 14 91 48 7f
        e 34 81 41 40
        e 0 81 43 40
        e 0 81 48 40
        e 14 91 41 7f
        e 0 91 43 7f
        e 0 91 4a 7f
        e 130 81 4a 40
        e 14 91 48 7f
        e 34 81 41 40
        e 0 81 43 40
        e 0 81 48 40
        e 14 91 40 7f
        e 0 91 43 7f
        e 0 91 48 7f
        e 466 81 40 40
        e 0 81 43 40
        e 0 81 48 40
        E 110 b0 7b 00
        GUID {226E9532-49BE-9B4D-8B73-AA183DD4B37B}
        IGNTEMPO 0 120 4 4
        SRCCOLOR 50
        VELLANE -1 86 6
        CFGEDITVIEW 6576.669833 229.869097 50 14 0 0 0 0 0 0.5
        KEYSNAP 0
        TRACKSEL 252 0 0 ""
        EVTFILTER 0 -1 -1 -1 -1 0 0 0 0 -1 -1 -1 -1 0 -1 0 -1 -1
        CFGEDIT 1 0 0 0 0 0 1 0 1 1 1 0.25 301 36 1280 633 0 0 2 3 0 0 0 0 0 0.5 0 0 1 64
      >
    >
  >
  <TRACK {CC74D01B-E218-4E4D-A490-FD01DDD0745B}
    NAME MoreBass
    PEAKCOL 16576
    BEAT -1
    AUTOMODE 0
    VOLPAN 1 0 -1 -1 1
    MUTESOLO 0 0 0
    IPHASE 0
    ISBUS 0 0
    BUSCOMP 0 0
    SHOWINMIX 1 0.6667 0.5 1 0.5 0 0 0
    FREEMODE 0
    SEL 1
    REC 0 0 0 0 0 0 0
    VU 2
    TRACKHEIGHT 176 0
    INQ 0 0 0 0.5 100 0 0 100
    NCHAN 2
    FX 1
    TRACKID {CC74D01B-E218-4E4D-A490-FD01DDD0745B}
    PERF 0
    MIDIOUT -1
    MAINSEND 1 0
    <FXCHAIN
      WNDRECT 528 36 724 387
      SHOW 0
      LASTSEL 0
      DOCKED 1
      BYPASS 0 0 0
      <VST "VSTi: chipsounds (Plogue Art et Technologie, Inc)" chipsounds.vst 0 "" 1347176271
        T0dMUO5e7f4AAAAABAAAAAEAAAAAAAAAAgAAAAAAAAAEAAAAAAAAAAgAAAAAAAAAzAIAAAEAAAAAABAA
        Q0VHUDYMAAB4nL2X32+bMBDH3/tXWDxtDyU2BAhS0irNjynSskYie64uxKVoBjIwWdu/fsYJBdIUnGmbHxL7/LHvvj6Qj+Htc8TQnqZZmMQjjehYQ7c3V8NxGoIHe1qb
        srGh3Vwh0YYe5TyMgwz9zIGF/EXMaihgyQbYKmFiaBoaynhKIRLYYRjBsyctY8YSf3k30iwizMvFdHGf82WypXIXyHkSARcuPZbwkSbiyXwx41pm0QMGwkbQNaKFbz3z
        2dE8oTGn6UizcRnKOo+ld6xj2TTUK+MXW6NwKx3GENFiSx2t8pSiyVO463mLac+2BgR9+rb2Jp81tIH4x6LgMXY15D9BHFMml++kXmJriB/dXZPK4W7zkEIc0ML6ZuTC
        lO2SjEp1Uc4PnezXA4NMSC6PWYa6hDCWoQpiDyynMklNPU2QvIHvhDdBQxU0VcG+KmipgrYq6KiCA1XQVQUJViaVc0OUk0OUs0OU00O68rOCFKIzTxuxbecjsktRRXbF
        WZFOx0tRi7OeJKt907qmPmlFjcauVht6gSpLWZbT9YJU6KCOmq2o23ii3YFrfphVYjaPwGxj+xVLjK54XVxF0e9kifKRudi4gFXPmourAzY62cEFMbgXPOWd4taQBpQf
        rz0/ifQVS4Kc6sWNr3+d3+t5RlNcu4LkqkmeiXt5ChwQf9kVCg3TFmeeha9Fego1ZaEg/NF4G8KhuxVLRKds88OfUY4Jbm+zjnl8TmLvoPFS0eR/if5L7U9Fr9MwCGjq
        iQqKxj5NO2UTxyBuKZtYdk23cU73aVLHxY8zxwax8J0zv3unxJw4c/ecxInT2GuGzfl76/TEamNLtLH1T634EuuJKHzO2prPYa8oWY/92eMj9flbDYvLGnYcbcIioafl
        aln1fvm+KBeAz8M9XRxKbFKOZ1XJTZlwQbdr2Mix2GLYK78Jbq5+A5BO79w=
        AAAQAAAA
      >
      FLOATPOS 404 36 871 509
      FXID {A0646B08-E711-BF49-8783-28316B119F0D}
      WAK 0
      BYPASS 0 0 0
      <VST "VST: 8-Bit Shaper (Xfer Records)" 8BitShaper.vst 0 "" 1148539762
        clN1RO5e7f4CAAAAAQAAAAAAAAACAAAAAAAAAAQAAAABAAAAAAAAAAIAAAAAAAAABAAAAAAAAAAIAAAAAAAAADQCAAABAAAAAAAQAA==
        ZmaGPx5sTj/gavQ+MrQ+PyYAAAAAAIA/AAAAAAAAZEAXAAAAMAAAABkAAAAaAAAAGgAAABoAAAAbAAAAGwAAABwAAAAcAAAAHAAAAB0AAAAdAAAAHgAAAB4AAAAfAAAA
        HwAAACAAAAAgAAAAIAAAACEAAAAhAAAAIQAAACIAAAAiAAAAIgAAACMAAAAjAAAAIwAAACQAAAAkAAAAJAAAACUAAAAlAAAAKAAAACgAAAApAAAAKQAAACoAAAA1AAAA
        KgAAACoAAAA2AAAAKgAAACoAAAAqAAAAKgAAACoAAAAqAAAAKgAAACsAAAArAAAAOQAAAC0AAAA0AAAAOgAAAC0AAAAtAAAAPAAAAC4AAAAuAAAALwAAADAAAAAwAAAA
        MQAAADEAAAAxAAAAMgAAADMAAAAzAAAAMwAAADcAAAA3AAAANwAAADgAAAA4AAAAOAAAADkAAAA5AAAAOQAAADoAAAA6AAAAOgAAADoAAAA6AAAAOwAAADsAAAA7AAAA
        PAAAADsAAAA7AAAAOwAAADwAAAA8AAAAPAAAADwAAAA9AAAAPQAAAD0AAAA9AAAAPQAAAD4AAAA+AAAAPwAAAEkAAABAAAAAQAAAAEgAAABAAAAAQQAAAEIAAABCAAAA
        QgAAAEMAAABDAAAAQwAAAEQAAABEAAAARQAAAE0AAABGAAAARwAAAEYAAABHAAAASAAAAEgAAABJAAAATwAAAAAAgD+rqqo+AACAP9VjzT4mXIw+
        AEluaXQgMQAQAAAA
      >
      PRESETNAME "Init 1"
      FLOATPOS 342 36 278 389
      FXID {A90868C7-B77C-BB4D-8208-740517688A17}
      WAK 0
    >
    <ITEM
      POSITION 0
      SNAPOFFS 0
      LENGTH 33.5
      LOOP 1
      ALLTAKES 0
      FADEIN 1 0 0 1 0 0
      FADEOUT 1 0 0 1 0 0
      MUTE 0
      SEL 0
      YPOS 0.3 0.1
      IGUID {B57D1003-6430-BE46-B4A8-280C344A87CA}
      IID 2
      NAME "RH                   - National_Anthems_-_Thailand.mid"
      VOLPAN 1 0 1 -1
      SOFFS 0 0
      PLAYRATE 1 1 0 -1 0 0.0025
      CHANMODE 0
      GUID {DFC18DC6-58C3-1243-9CEE-24A3905F8AF3}
      <SOURCE MIDI
        HASDATA 1 192 QN
        POOLEDEVTS {B2BE3DD6-EB96-4242-8B78-C24A741877DE}
        <X 0 0
          /wNSSCAgICAgICAgICAgICAgICAgIA==
        >
        e 528 91 37 7f
        e 34 81 37 40
        e 14 91 3c 7f
        e 130 81 3c 40
        e 14 91 40 7f
        e 34 81 40 40
        e 14 91 3c 7f
        e 0 91 40 7f
        e 0 91 43 7f
        e 178 81 3c 40
        e 0 81 40 40
        e 0 81 43 40
        e 14 91 40 7f
        e 0 91 43 7f
        e 130 81 40 40
        e 0 81 43 40
        e 14 91 40 7f
        e 0 91 43 7f
        e 34 81 40 40
        e 0 81 43 40
        e 14 91 41 7f
        e 0 91 45 7f
        e 130 81 45 40
        e 14 91 43 7f
        e 34 81 41 40
        e 0 81 43 40
        e 14 91 41 7f
        e 130 81 41 40
        e 14 91 45 7f
        e 34 81 45 40
        e 14 91 40 7f
        e 0 91 43 7f
        e 370 81 40 40
        e 0 81 43 40
        e 14 91 3c 7f
        e 0 91 40 7f
        e 178 81 3c 40
        e 0 81 40 40
        e 14 91 3c 7f
        e 0 91 40 7f
        e 130 81 40 40
        e 14 91 41 7f
        e 34 81 3c 40
        e 0 81 41 40
        e 14 91 3c 7f
        e 0 91 40 7f
        e 130 81 3c 40
        e 0 81 40 40
        e 14 91 3e 7f
        e 34 81 3e 40
        e 14 91 3b 7f
        e 0 91 3e 7f
        e 322 81 3b 40
        e 0 81 3e 40
        e 14 91 3b 7f
        e 0 91 3e 7f
        e 34 81 3b 40
        e 0 81 3e 40
        e 14 91 3b 7f
        e 0 91 3e 7f
        e 130 81 3b 40
        e 0 81 3e 40
        e 14 91 3b 7f
        e 0 91 40 7f
        e 34 81 3b 40
        e 0 81 40 40
        e 14 91 3b 7f
        e 0 91 3e 7f
        e 130 81 3b 40
        e 0 81 3e 40
        e 14 91 3c 7f
        e 34 81 3c 40
        e 14 91 3c 7f
        e 370 81 3c 40
        e 14 91 3c 7f
        e 130 81 3c 40
        e 14 91 40 7f
        e 34 81 40 40
        e 14 91 3c 7f
        e 0 91 40 7f
        e 0 91 43 7f
        e 178 81 3c 40
        e 0 81 40 40
        e 0 81 43 40
        e 14 91 40 7f
        e 0 91 43 7f
        e 178 81 40 40
        e 0 81 43 40
        e 14 91 41 7f
        e 0 91 45 7f
        e 130 81 45 40
        e 14 91 43 7f
        e 34 81 41 40
        e 0 81 43 40
        e 14 91 41 7f
        e 130 81 41 40
        e 14 91 45 7f
        e 34 81 45 40
        e 14 91 40 7f
        e 0 91 43 7f
        e 562 81 40 40
        e 0 81 43 40
        e 14 91 40 7f
        e 0 91 43 7f
        e 130 81 43 40
        e 14 91 45 7f
        e 34 81 40 40
        e 0 81 45 40
        e 14 91 3e 7f
        e 0 91 47 7f
        e 130 81 47 40
        e 14 91 43 7f
        e 34 81 3e 40
        e 0 81 43 40
        e 14 91 3e 7f
        e 0 91 43 7f
        e 0 91 4a 7f
        e 322 81 3e 40
        e 0 81 43 40
        e 0 81 4a 40
        e 14 91 3e 7f
        e 34 81 3e 40
        e 14 91 3c 7f
        e 0 91 3e 7f
        e 0 91 45 7f
        e 130 81 45 40
        e 14 91 47 7f
        e 34 81 3c 40
        e 0 81 3e 40
        e 0 81 47 40
        e 14 91 3c 7f
        e 0 91 3e 7f
        e 0 91 45 7f
        e 370 81 3c 40
        e 0 81 3e 40
        e 0 81 45 40
        e 14 91 3b 7f
        e 0 91 3e 7f
        e 0 91 43 7f
        e 82 81 3b 40
        e 0 81 3e 40
        e 0 81 43 40
        e 110 91 43 7f
        e 130 81 43 40
        e 14 91 45 7f
        e 34 81 45 40
        e 14 91 43 7f
        e 82 81 43 40
        e 14 91 41 7f
        e 82 81 41 40
        e 14 91 3e 7f
        e 370 81 3e 40
        e 14 91 41 7f
        e 130 81 41 40
        e 14 91 45 7f
        e 34 81 45 40
        e 14 91 43 7f
        e 82 81 43 40
        e 14 91 40 7f
        e 82 81 40 40
        e 14 91 3c 7f
        e 370 81 3c 40
        e 14 91 3c 7f
        e 130 81 3c 40
        e 14 91 40 7f
        e 34 81 40 40
        e 14 91 3e 7f
        e 178 81 3e 40
        e 14 91 3c 7f
        e 0 91 3e 7f
        e 130 81 3c 40
        e 0 81 3e 40
        e 14 91 3c 7f
        e 0 91 3e 7f
        e 34 81 3c 40
        e 0 81 3e 40
        e 14 91 3c 7f
        e 0 91 3e 7f
        e 0 91 45 7f
        e 178 81 3c 40
        e 0 81 3e 40
        e 0 81 45 40
        e 14 91 3c 7f
        e 0 91 42 7f
        e 0 91 47 7f
        e 130 81 47 40
        e 14 91 45 7f
        e 34 81 3c 40
        e 0 81 42 40
        e 0 81 45 40
        e 14 91 3b 7f
        e 0 91 3e 7f
        e 0 91 43 7f
        e 466 81 3b 40
        e 0 81 3e 40
        e 0 81 43 40
        e 62 91 3c 7f
        e 34 81 3c 40
        e 14 91 3c 7f
        e 130 81 3c 40
        e 14 91 40 7f
        e 34 81 40 40
        e 14 91 3c 7f
        e 0 91 40 7f
        e 0 91 43 7f
        e 178 81 3c 40
        e 0 81 40 40
        e 0 81 43 40
        e 14 91 3c 7f
        e 0 91 40 7f
        e 0 91 43 7f
        e 178 81 3c 40
        e 0 81 40 40
        e 0 81 43 40
        e 14 91 41 7f
        e 0 91 45 7f
        e 130 81 45 40
        e 14 91 47 7f
        e 34 81 41 40
        e 0 81 47 40
        e 14 91 45 7f
        e 0 91 48 7f
        e 130 81 48 40
        e 14 91 4a 7f
        e 34 81 45 40
        e 0 81 4a 40
        e 14 91 44 7f
        e 0 91 47 7f
        e 0 91 4c 7f
        e 514 81 44 40
        e 0 81 47 40
        e 0 81 4c 40
        e 14 91 40 7f
        e 0 91 47 7f
        e 0 91 4a 7f
        e 34 81 40 40
        e 0 81 47 40
        e 0 81 4a 40
        e 14 91 3f 7f
        e 0 91 45 7f
        e 0 91 48 7f
        e 130 81 3f 40
        e 0 81 45 40
        e 0 81 48 40
        e 14 91 3c 7f
        e 0 91 3f 7f
        e 0 91 45 7f
        e 34 81 3c 40
        e 0 81 3f 40
        e 0 81 45 40
        e 14 91 3c 7f
        e 0 91 40 7f
        e 0 91 43 7f
        e 130 81 43 40
        e 14 91 45 7f
        e 34 81 3c 40
        e 0 81 40 40
        e 0 81 45 40
        e 14 91 43 7f
        e 0 91 47 7f
        e 130 81 47 40
        e 14 91 48 7f
        e 34 81 43 40
        e 0 81 48 40
        e 14 91 41 7f
        e 0 91 43 7f
        e 0 91 4c 7f
        e 130 81 4c 40
        e 14 91 48 7f
        e 34 81 41 40
        e 0 81 43 40
        e 0 81 48 40
        e 14 91 41 7f
        e 0 91 43 7f
        e 0 91 4a 7f
        e 130 81 4a 40
        e 14 91 48 7f
        e 34 81 41 40
        e 0 81 43 40
        e 0 81 48 40
        e 14 91 40 7f
        e 0 91 43 7f
        e 0 91 48 7f
        e 466 81 40 40
        e 0 81 43 40
        e 0 81 48 40
        E 110 b0 7b 00
        GUID {226E9532-49BE-9B4D-8B73-AA183DD4B37B}
        IGNTEMPO 0 120 4 4
        SRCCOLOR 50
        VELLANE -1 86 6
        CFGEDITVIEW 6576.669833 229.869097 50 14 0 0 0 0 0 0.5
        KEYSNAP 0
        TRACKSEL 252 0 0 ""
        EVTFILTER 0 -1 -1 -1 -1 0 0 0 0 -1 -1 -1 -1 0 -1 0 -1 -1
        CFGEDIT 1 0 0 0 0 0 1 0 1 1 1 0.25 301 36 1280 633 0 0 2 3 0 0 0 0 0 0.5 0 0 1 64
      >
    >
  >
  <TRACK {9E2CAE92-CCC1-1F4A-BCF6-93DCFE473BDF}
    NAME "16th pulse (mix w/ send?)"
    PEAKCOL 16576
    BEAT -1
    AUTOMODE 0
    VOLPAN 1 0 -1 -1 1
    MUTESOLO 0 0 0
    IPHASE 0
    ISBUS 1 1
    BUSCOMP 0 0
    SHOWINMIX 1 0.6667 0.5 1 0.5 0 0 0
    FREEMODE 0
    SEL 0
    REC 0 0 0 0 0 0 0
    VU 2
    TRACKHEIGHT 0 0
    INQ 0 0 0 0.5 100 0 0 100
    NCHAN 4
    FX 1
    TRACKID {9E2CAE92-CCC1-1F4A-BCF6-93DCFE473BDF}
    PERF 0
    AUXRECV 3 0 1 0 0 0 0 0 0 -1:U 64 -1 ''
    AUXRECV 4 0 1 0 0 0 0 0 0 -1:U 32 -1 ''
    MIDIOUT -1
    MAINSEND 0 0
    <FXCHAIN
      WNDRECT 36 359 724 387
      SHOW 0
      LASTSEL 0
      DOCKED 0
      BYPASS 0 0 0
      <VST "VSTi: chipsounds (Plogue Art et Technologie, Inc)" chipsounds.vst 0 "" 1347176271
        T0dMUO5e7f4AAAAABAAAAAEAAAAAAAAAAgAAAAAAAAAEAAAAAAAAAAgAAAAAAAAAHAQAAAEAAAAAABAA
        Q0VHULcaAAB4nO1ZW2/bNhR+z68g9LQ9VCJ1tQA7he3Eg4F5DWbvuaBlVhGq20QqS/vrR0pWJPlC0XGLdWj4YpH6ePgdnkPpO/L4/XMSgydS0ChLJxrSoQbe396Mp0WE
        1/iJdG650NRubwBv4zVhLEpDCv4ucRyxL/yuBsI42+L4IYt51zI1QFlBcMJhdTfBz+tqZBrHWbCaTTQH8eHV8m75oWSrbEcqK7hkWYIZX3IdZ2yicT404Hd8u7rCMeZj
        CLwDRKyt0yDeD89Jykgx0VzYUNmUabU61GHVNGA0/LlpEO0q6ylOiDCpg4eyIGD+GOXGenlnuM4IgV/+2Kznv2pgi9PPS45HEPoaCB5xmpK4mp5X/toaYEer5duPBU5D
        bv0dehlkfIjmGSXV7KRk9QX952OMKROWao4VzxWO0obnE45LUkWo70wfiF6AR173gaYq0FIF2qpARxXoqgI9VeBIFeirAhFURirHBikHBylHBymHBw3F5wEXOFFKohY5
        tHqL9AZSvUX2tt72HRm0u0+mI7XapWraUugFXLsJhSzpBnTdskwptJtSNpJCu7FCIym0t1lyrt3NcqWb5XXTypNbdXtcZYH1+idaBh11rVrSaI18ZajfjRbypTlgdWPg
        QMu3vPNZ2GKROXRmfNiycAexbdKYg1hTOcN9qH7GfeheYHd0Ada/4OlxgXM8BNYAeIOLkLC9nAiyRH+Is7AkulBS+u+LD3pJSQE7b/dq1rykXO/cYYYB+5KLkJiWywNE
        o6+8YwvXGwHG1yPpLsL15Y5P4RdNW9Q/Jvy2re+iUft4qdPoZ3L6T06XFFwJrgkVLuiUkfxnCfumiMKQFGuuzUkakGLQbeSZ4s1Yu+35HbfNU26jvdf7BqtHs7eAJr+G
        9yMPHTpizb2Fr+AwgrYy9hWbNjZExXFYfKDrig/UFB9mW3ygK6sP8636eKs+/i/VR98j5Lpn1VTXIx861YeH4TrF9GxXCJVvWqc4Uqg3FM8z2t+xpSK5FydpodQT9JYn
        JdCNlCmvU4bO0qtU+us1sn2BRh7WnN9fIw/r9P9MI/9YsvdIABy0+4H78JSLb7JX6vR1og+Jp/Zlqm8mekL1IQfOvMXsyJPzSq5RiC5/CTjO1LHEXs5/2NHTfA/aHJ4a
        PddUVer9p08kYMcfyqfJNhJhPpSlzaf13/5aNhNwwKInsnz5jl/379vv+iTmS5DdBm9Fv/sEKgglbEXSEkS0gbOKqjz1ACPPHDLDlHIFjNnjRDOmeR5HQfWXAjXqiVxE
        RznNynTHR6q1qCExa9QpDPh48JkawrqO+VHPD56bR6zRSdbTIidhGGGWtYTjKL+CcMeiIUxdw+7cnnIGCSnwd9jWPfuMg+s1DuiPDZ5Utzdjo/lT6vbmXzeClUM=
        AAAQAAAA
      >
      FLOATPOS 409 269 871 509
      FXID {DC79668B-30D1-964C-A162-F245DBE294B0}
      WAK 0
      BYPASS 1 0 0
      <JS Delay/time_adjustment ""
        -10.000000 0.000000 -120.000000 0.000000 - - - - - - - - - - - - - - - - - - - - - - - - - - - - - - - - - - - - - - - - - - - - - - - - - - - - - - - - - - - - 
      >
      FLOATPOS 0 4 554 157
      FXID {40721658-5454-1743-9C6A-517A806DB8F9}
      WAK 0
    >
  >
  <TRACK {4FCA358B-3FAC-3749-9BC2-11E94F70145F}
    NAME 16ths
    PEAKCOL 16576
    BEAT -1
    AUTOMODE 0
    VOLPAN 1 0 -1 -1 1
    MUTESOLO 0 0 0
    IPHASE 0
    ISBUS 0 0
    BUSCOMP 0 0
    SHOWINMIX 1 0.6667 0.5 1 0.5 0 0 0
    FREEMODE 0
    SEL 0
    REC 0 0 0 0 0 0 0
    VU 2
    TRACKHEIGHT 81 0
    INQ 0 0 0 0.5 100 0 0 100
    NCHAN 2
    FX 1
    TRACKID {4FCA358B-3FAC-3749-9BC2-11E94F70145F}
    PERF 0
    MIDIOUT -1
    MAINSEND 0 0
  >
  <TRACK {B0448BAA-9F98-5543-9DF7-CDB8296564E0}
    NAME Full
    PEAKCOL 16576
    BEAT -1
    AUTOMODE 0
    VOLPAN 1 0 -1 -1 1
    MUTESOLO 0 0 0
    IPHASE 0
    ISBUS 2 -1
    BUSCOMP 0 0
    SHOWINMIX 1 0.6667 0.5 1 0.5 0 0 0
    FREEMODE 0
    SEL 0
    REC 0 0 0 0 0 0 0
    VU 2
    TRACKHEIGHT 162 0
    INQ 0 0 0 0.5 100 0 0 100
    NCHAN 2
    FX 1
    TRACKID {B0448BAA-9F98-5543-9DF7-CDB8296564E0}
    PERF 0
    MIDIOUT -1
    MAINSEND 0 0
    <FXCHAIN
      WNDRECT 528 36 724 387
      SHOW 0
      LASTSEL 0
      DOCKED 1
    >
    <ITEM
      POSITION 0
      SNAPOFFS 0
      LENGTH 33.5
      LOOP 1
      ALLTAKES 0
      FADEIN 1 0 0 1 0 0
      FADEOUT 1 0 0 1 0 0
      MUTE 1
      SEL 0
      YPOS 0.2 0.1
      IGUID {02FCF7F7-D0B0-7C44-A3DD-B700208299AC}
      IID 1
      NAME "Melody               - National_Anthems_-_Thailand.mid"
      VOLPAN 1 0 1 -1
      SOFFS 0 0
      PLAYRATE 1 1 0 -1 0 0.0025
      CHANMODE 0
      GUID {B3839471-3978-8640-AB40-F60A7D072D37}
      <SOURCE MIDI
        HASDATA 1 192 QN
        POOLEDEVTS {0C9F036D-D7C5-1F43-89BC-084AE40E7AC3}
        <X 0 0
          /wNNZWxvZHkgICAgICAgICAgICAgIA==
        >
        <X 0 0
          /wEocCkgKGMpIFRoZSBTb2Z0d2FyZSBUb29sd29ya3M=
        >
        <X 0 0
          /wFCUE06MTE2LTEyMCE=
        >
        <X 0 0
          /wFDb3VudHJ5OiBUSEFJTEFORA==
        >
        <X 0 0
          /wFNdWx0aU1lZGlhIFdpbmRvd3MgVmVyc2lvbg==
        >
        <X 0 0
          /wFkYXRlOiA3LTI1LTkx
        >
        <X 0 0
          /wFyZXZpc2VkIDExLTI2LTkx
        >
        <X 0 0
          /wFlZGl0IGRhdGU6IDktNy05MQ==
        >
        <X 0 0
          /wFtbSBlZGl0IDktMTMtOTE=
        >
        e 528 90 37 7f
        e 48 80 37 40
        e 0 90 3c 7f
        e 144 80 3c 40
        e 0 90 40 7f
        e 48 80 40 40
        e 0 90 43 7f
        e 192 80 43 40
        e 0 90 43 7f
        e 144 80 43 40
        e 0 90 43 7f
        e 48 80 43 40
        e 0 90 45 7f
        e 144 80 45 40
        e 0 90 43 7f
        e 48 80 43 40
        e 0 90 41 7f
        e 144 80 41 40
        e 0 90 45 7f
        e 48 80 45 40
        e 0 90 43 7f
        e 384 80 43 40
        e 0 90 40 7f
        e 192 80 40 40
        e 0 90 40 7f
        e 144 80 40 40
        e 0 90 41 7f
        e 48 80 41 40
        e 0 90 40 7f
        e 144 80 40 40
        e 0 90 3e 7f
        e 48 80 3e 40
        e 0 90 3e 7f
        e 336 80 3e 40
        e 0 90 3e 7f
        e 48 80 3e 40
        e 0 90 3e 7f
        e 144 80 3e 40
        e 0 90 40 7f
        e 48 80 40 40
        e 0 90 3e 7f
        e 144 80 3e 40
        e 0 90 3c 7f
        e 48 80 3c 40
        e 0 90 3c 7f
        e 384 80 3c 40
        e 0 90 3c 7f
        e 144 80 3c 40
        e 0 90 40 7f
        e 48 80 40 40
        e 0 90 43 7f
        e 192 80 43 40
        e 0 90 43 7f
        e 192 80 43 40
        e 0 90 45 7f
        e 144 80 45 40
        e 0 90 43 7f
        e 48 80 43 40
        e 0 90 41 7f
        e 144 80 41 40
        e 0 90 45 7f
        e 48 80 45 40
        e 0 90 43 7f
        e 576 80 43 40
        e 0 90 43 7f
        e 144 80 43 40
        e 0 90 45 7f
        e 48 80 45 40
        e 0 90 47 7f
        e 144 80 47 40
        e 0 90 43 7f
        e 48 80 43 40
        e 0 90 4a 7f
        e 336 80 4a 40
        e 0 90 3e 7f
        e 48 80 3e 40
        e 0 90 45 7f
        e 144 80 45 40
        e 0 90 47 7f
        e 48 80 47 40
        e 0 90 45 7f
        e 384 80 45 40
        e 0 90 43 7f
        e 96 80 43 40
        e 96 90 43 7f
        e 144 80 43 40
        e 0 90 45 7f
        e 48 80 45 40
        e 0 90 43 7f
        e 96 80 43 40
        e 0 90 41 7f
        e 96 80 41 40
        e 0 90 3e 7f
        e 384 80 3e 40
        e 0 90 41 7f
        e 144 80 41 40
        e 0 90 45 7f
        e 48 80 45 40
        e 0 90 43 7f
        e 96 80 43 40
        e 0 90 40 7f
        e 96 80 40 40
        e 0 90 3c 7f
        e 384 80 3c 40
        e 0 90 3c 7f
        e 144 80 3c 40
        e 0 90 40 7f
        e 48 80 40 40
        e 0 90 3e 7f
        e 192 80 3e 40
        e 0 90 3e 7f
        e 144 80 3e 40
        e 0 90 3e 7f
        e 48 80 3e 40
        e 0 90 45 7f
        e 192 80 45 40
        e 0 90 47 7f
        e 144 80 47 40
        e 0 90 45 7f
        e 48 80 45 40
        e 0 90 43 7f
        e 480 80 43 40
        e 48 90 3c 7f
        e 48 80 3c 40
        e 0 90 3c 7f
        e 144 80 3c 40
        e 0 90 40 7f
        e 48 80 40 40
        e 0 90 43 7f
        e 192 80 43 40
        e 0 90 43 7f
        e 192 80 43 40
        e 0 90 45 7f
        e 144 80 45 40
        e 0 90 47 7f
        e 48 80 47 40
        e 0 90 48 7f
        e 144 80 48 40
        e 0 90 4a 7f
        e 48 80 4a 40
        e 0 90 4c 7f
        e 480 80 4c 40
        e 48 90 4a 7f
        e 48 80 4a 40
        e 0 90 48 7f
        e 144 80 48 40
        e 0 90 45 7f
        e 48 80 45 40
        e 0 90 43 7f
        e 144 80 43 40
        e 0 90 45 7f
        e 48 80 45 40
        e 0 90 47 7f
        e 144 80 47 40
        e 0 90 48 7f
        e 48 80 48 40
        e 0 90 4c 7f
        e 144 80 4c 40
        e 0 90 48 7f
        e 48 80 48 40
        e 0 90 4a 7f
        e 144 80 4a 40
        e 0 90 48 7f
        e 48 80 48 40
        e 0 90 48 7f
        e 480 80 48 40
        E 96 b0 7b 00
        GUID {1B7A544D-B783-0B4A-A30B-210A8C9C9B4D}
        IGNTEMPO 0 120 4 4
        SRCCOLOR 1936
        VELLANE -1 86 6
        CFGEDITVIEW 0 0 50 15 0 0 0 0 0 0.5
        KEYSNAP 0
        TRACKSEL 252 0 0 ""
        EVTFILTER 0 -1 -1 -1 -1 0 0 0 0 -1 -1 -1 -1 0 -1 0 -1 -1
        CFGEDIT 1 0 0 0 0 0 1 0 1 1 1 0.25 285 20 1280 633 0 0 2 3 0 0 0 0 0 0.5 0 0 1 64
      >
    >
    <ITEM
      POSITION 0
      SNAPOFFS 0
      LENGTH 33.5
      LOOP 1
      ALLTAKES 0
      FADEIN 1 0 0 1 0 0
      FADEOUT 1 0 0 1 0 0
      MUTE 0
      SEL 0
      YPOS 0.5 0.1
      IGUID {5718635C-1D26-6E4E-8BC5-B3AAA86FCF65}
      IID 4
      NAME "Bass                 - National_Anthems_-_Thailand.mid"
      VOLPAN 1 0 1 -1
      SOFFS 0 0
      PLAYRATE 1 1 0 -1 0 0.0025
      CHANMODE 0
      GUID {6261122E-2FBC-6545-8554-F42D00E71146}
      <SOURCE MIDI
        HASDATA 1 192 QN
        POOLEDEVTS {DF8A431B-B8F4-0D47-AE0F-2FA9406F22D3}
        <X 0 0
          /wNCYXNzICAgICAgICAgICAgICAgIA==
        >
        e 768 93 24 7f
        e 192 83 24 40
        e 0 93 30 7f
        e 192 83 30 40
        e 0 93 24 7f
        e 192 83 24 40
        e 0 93 30 7f
        e 192 83 30 40
        e 0 93 24 7f
        e 192 83 24 40
        e 0 93 30 7f
        e 144 83 30 40
        e 0 93 30 7f
        e 48 83 30 40
        e 0 93 30 7f
        e 192 83 30 40
        e 0 93 30 7f
        e 192 83 30 40
        e 0 93 2b 7f
        e 192 83 2b 40
        e 0 93 37 7f
        e 144 83 37 40
        e 0 93 37 7f
        e 48 83 37 40
        e 0 93 37 7f
        e 192 83 37 40
        e 0 93 37 7f
        e 192 83 37 40
        e 0 93 24 7f
        e 192 83 24 40
        e 0 93 30 7f
        e 144 83 30 40
        e 0 93 30 7f
        e 48 83 30 40
        e 0 93 30 7f
        e 192 83 30 40
        e 0 93 30 7f
        e 192 83 30 40
        e 0 93 24 7f
        e 192 83 24 40
        e 0 93 30 7f
        e 192 83 30 40
        e 0 93 24 7f
        e 192 83 24 40
        e 0 93 30 7f
        e 192 83 30 40
        e 0 93 24 7f
        e 192 83 24 40
        e 0 93 30 7f
        e 144 83 30 40
        e 0 93 30 7f
        e 48 83 30 40
        e 0 93 30 7f
        e 192 83 30 40
        e 0 93 30 7f
        e 192 83 30 40
        e 0 93 26 7f
        e 192 83 26 40
        e 0 93 32 7f
        e 144 83 32 40
        e 0 93 32 7f
        e 48 83 32 40
        e 0 93 32 7f
        e 192 83 32 40
        e 0 93 32 7f
        e 192 83 32 40
        e 0 93 26 7f
        e 144 83 26 40
        e 0 93 26 7f
        e 48 83 26 40
        e 0 93 28 7f
        e 144 83 28 40
        e 0 93 2a 7f
        e 48 83 2a 40
        e 0 93 2b 7f
        e 96 83 2b 40
        e 288 93 2b 7f
        e 192 83 2b 40
        e 0 93 37 7f
        e 192 83 37 40
        e 0 93 2b 7f
        e 192 83 2b 40
        e 0 93 37 7f
        e 192 83 37 40
        e 0 93 24 7f
        e 192 83 24 40
        e 0 93 30 7f
        e 192 83 30 40
        e 0 93 24 7f
        e 192 83 24 40
        e 0 93 30 7f
        e 192 83 30 40
        e 0 93 2f 7f
        e 192 83 2f 40
        e 0 93 2d 7f
        e 192 83 2d 40
        e 0 93 2a 7f
        e 192 83 2a 40
        e 0 93 26 7f
        e 192 83 26 40
        e 0 93 2b 7f
        e 192 83 2b 40
        e 0 93 37 7f
        e 144 83 37 40
        e 0 93 37 7f
        e 48 83 37 40
        e 0 93 37 7f
        e 96 83 37 40
        e 288 93 24 7f
        e 192 83 24 40
        e 0 93 30 7f
        e 192 83 30 40
        e 0 93 29 7f
        e 192 83 29 40
        e 0 93 35 7f
        e 192 83 35 40
        e 0 93 43 7f
        e 192 83 43 40
        e 0 93 34 7f
        e 144 83 34 40
        e 0 93 34 7f
        e 48 83 34 40
        e 0 93 34 7f
        e 192 83 34 40
        e 0 93 2a 7f
        e 192 83 2a 40
        e 0 93 2b 7f
        e 192 83 2b 40
        e 0 93 37 7f
        e 192 83 37 40
        e 0 93 2b 7f
        e 192 83 2b 40
        e 0 93 37 7f
        e 192 83 37 40
        e 0 93 24 7f
        e 192 83 24 40
        e 0 93 30 7f
        e 144 83 30 40
        e 0 93 30 7f
        e 48 83 30 40
        e 0 93 24 7f
        e 96 83 24 40
        E 96 b0 7b 00
        GUID {78C1A59E-8894-904F-93C7-8A761FE5543E}
        IGNTEMPO 0 120 4 4
        SRCCOLOR 52
        VELLANE -1 86 6
        CFGEDITVIEW 5801.71685 155.52725 59 10 0 0 0 0 0 0.5
        KEYSNAP 0
        TRACKSEL 252 0 0 ""
        EVTFILTER 0 -1 -1 -1 -1 0 0 0 0 -1 -1 -1 -1 0 -1 0 -1 -1
        CFGEDIT 1 0 0 0 0 0 1 0 1 1 1 0.25 301 36 1280 633 0 0 2 3 0 0 0 0 0 0.5 0 0 1 64
      >
    >
    <ITEM
      POSITION 0
      SNAPOFFS 0
      LENGTH 33.5
      LOOP 1
      ALLTAKES 0
      FADEIN 1 0 0 1 0 0
      FADEOUT 1 0 0 1 0 0
      MUTE 1
      SEL 0
      YPOS 0.4 0.1
      IGUID {FB558167-4399-B14D-B963-C3987D6B38B0}
      IID 3
      NAME "LH                   - National_Anthems_-_Thailand.mid"
      VOLPAN 1 0 1 -1
      SOFFS 0 0
      PLAYRATE 1 1 0 -1 0 0.0025
      CHANMODE 0
      GUID {7D1A334B-4973-C444-9CA3-113DB64C72BC}
      <SOURCE MIDI
        HASDATA 1 192 QN
        POOLEDEVTS {58428777-3172-5C46-AA9E-5416E8CE368B}
        <X 0 0
          /wNMSCAgICAgICAgICAgICAgICAgIA==
        >
        e 768 92 24 7f
        e 0 92 30 7f
        e 178 82 24 40
        e 0 82 30 40
        e 14 92 24 7f
        e 0 92 30 7f
        e 0 92 37 7f
        e 0 92 3c 7f
        e 178 82 24 40
        e 0 82 30 40
        e 0 82 37 40
        e 0 82 3c 40
        e 14 92 24 7f
        e 0 92 30 7f
        e 178 82 24 40
        e 0 82 30 40
        e 14 92 24 7f
        e 0 92 30 7f
        e 0 92 39 7f
        e 0 92 3c 7f
        e 178 82 24 40
        e 0 82 30 40
        e 0 82 39 40
        e 0 82 3c 40
        e 14 92 24 7f
        e 0 92 30 7f
        e 178 82 24 40
        e 0 82 30 40
        e 14 92 30 7f
        e 0 92 37 7f
        e 0 92 3c 7f
        e 130 82 30 40
        e 0 82 37 40
        e 0 82 3c 40
        e 14 92 30 7f
        e 0 92 37 7f
        e 0 92 3c 7f
        e 34 82 30 40
        e 0 82 37 40
        e 0 82 3c 40
        e 14 92 30 7f
        e 0 92 37 7f
        e 0 92 3c 7f
        e 178 82 30 40
        e 0 82 37 40
        e 0 82 3c 40
        e 14 92 30 7f
        e 0 92 37 7f
        e 0 92 3c 7f
        e 178 82 30 40
        e 0 82 37 40
        e 0 82 3c 40
        e 14 92 2b 7f
        e 178 82 2b 40
        e 14 92 37 7f
        e 130 82 37 40
        e 14 92 37 7f
        e 34 82 37 40
        e 14 92 37 7f
        e 178 82 37 40
        e 14 92 37 7f
        e 178 82 37 40
        e 14 92 24 7f
        e 0 92 30 7f
        e 178 82 24 40
        e 0 82 30 40
        e 14 92 30 7f
        e 0 92 34 7f
        e 0 92 37 7f
        e 130 82 30 40
        e 0 82 34 40
        e 0 82 37 40
        e 14 92 30 7f
        e 0 92 34 7f
        e 0 92 37 7f
        e 34 82 30 40
        e 0 82 34 40
        e 0 82 37 40
        e 14 92 30 7f
        e 0 92 34 7f
        e 0 92 37 7f
        e 178 82 30 40
        e 0 82 34 40
        e 0 82 37 40
        e 14 92 30 7f
        e 0 92 34 7f
        e 0 92 37 7f
        e 178 82 30 40
        e 0 82 34 40
        e 0 82 37 40
        e 14 92 24 7f
        e 0 92 30 7f
        e 178 82 24 40
        e 0 82 30 40
        e 14 92 24 7f
        e 0 92 30 7f
        e 0 92 37 7f
        e 0 92 3c 7f
        e 178 82 24 40
        e 0 82 30 40
        e 0 82 37 40
        e 0 82 3c 40
        e 14 92 24 7f
        e 0 92 30 7f
        e 178 82 24 40
        e 0 82 30 40
        e 14 92 30 7f
        e 0 92 39 7f
        e 0 92 3c 7f
        e 178 82 30 40
        e 0 82 39 40
        e 0 82 3c 40
        e 14 92 24 7f
        e 0 92 30 7f
        e 178 82 24 40
        e 0 82 30 40
        e 14 92 30 7f
        e 0 92 37 7f
        e 0 92 3c 7f
        e 130 82 30 40
        e 0 82 37 40
        e 0 82 3c 40
        e 14 92 30 7f
        e 0 92 37 7f
        e 0 92 3c 7f
        e 34 82 30 40
        e 0 82 37 40
        e 0 82 3c 40
        e 14 92 30 7f
        e 0 92 37 7f
        e 0 92 3c 7f
        e 178 82 30 40
        e 0 82 37 40
        e 0 82 3c 40
        e 14 92 30 7f
        e 0 92 37 7f
        e 0 92 3c 7f
        e 178 82 30 40
        e 0 82 37 40
        e 0 82 3c 40
        e 14 92 26 7f
        e 0 92 32 7f
        e 178 82 26 40
        e 0 82 32 40
        e 14 92 32 7f
        e 0 92 37 7f
        e 0 92 3b 7f
        e 130 82 32 40
        e 0 82 37 40
        e 0 82 3b 40
        e 14 92 32 7f
        e 0 92 37 7f
        e 0 92 3b 7f
        e 34 82 32 40
        e 0 82 37 40
        e 0 82 3b 40
        e 14 92 32 7f
        e 0 92 37 7f
        e 0 92 3b 7f
        e 178 82 32 40
        e 0 82 37 40
        e 0 82 3b 40
        e 14 92 32 7f
        e 0 92 36 7f
        e 178 82 32 40
        e 0 82 36 40
        e 14 92 26 7f
        e 0 92 32 7f
        e 130 82 26 40
        e 0 82 32 40
        e 14 92 26 7f
        e 0 92 32 7f
        e 34 82 26 40
        e 0 82 32 40
        e 14 92 28 7f
        e 0 92 34 7f
        e 130 82 28 40
        e 0 82 34 40
        e 14 92 2a 7f
        e 0 92 36 7f
        e 34 82 2a 40
        e 0 82 36 40
        e 14 92 2b 7f
        e 0 92 37 7f
        e 82 82 2b 40
        e 0 82 37 40
        e 302 92 2b 7f
        e 178 82 2b 40
        e 14 92 35 7f
        e 0 92 37 7f
        e 0 92 3b 7f
        e 130 82 35 40
        e 0 82 37 40
        e 0 82 3b 40
        e 14 92 35 7f
        e 0 92 37 7f
        e 0 92 3b 7f
        e 34 82 35 40
        e 0 82 37 40
        e 0 82 3b 40
        e 14 92 35 7f
        e 0 92 37 7f
        e 0 92 3b 7f
        e 178 82 35 40
        e 0 82 37 40
        e 0 82 3b 40
        e 14 92 35 7f
        e 0 92 37 7f
        e 0 92 3b 7f
        e 178 82 35 40
        e 0 82 37 40
        e 0 82 3b 40
        e 14 92 24 7f
        e 0 92 30 7f
        e 178 82 24 40
        e 0 82 30 40
        e 14 92 30 7f
        e 0 92 34 7f
        e 0 92 37 7f
        e 130 82 30 40
        e 0 82 34 40
        e 0 82 37 40
        e 14 92 30 7f
        e 0 92 34 7f
        e 0 92 37 7f
        e 34 82 30 40
        e 0 82 34 40
        e 0 82 37 40
        e 14 92 30 7f
        e 0 92 34 7f
        e 0 92 37 7f
        e 178 82 30 40
        e 0 82 34 40
        e 0 82 37 40
        e 14 92 30 7f
        e 0 92 34 7f
        e 0 92 37 7f
        e 178 82 30 40
        e 0 82 34 40
        e 0 82 37 40
        e 14 92 2f 7f
        e 0 92 32 7f
        e 0 92 37 7f
        e 178 82 2f 40
        e 0 82 32 40
        e 0 82 37 40
        e 14 92 2d 7f
        e 0 92 3e 7f
        e 178 82 2d 40
        e 0 82 3e 40
        e 14 92 2a 7f
        e 0 92 36 7f
        e 178 82 2a 40
        e 0 82 36 40
        e 14 92 26 7f
        e 0 92 32 7f
        e 178 82 26 40
        e 0 82 32 40
        e 14 92 2b 7f
        e 178 82 2b 40
        e 14 92 2b 7f
        e 0 92 32 7f
        e 0 92 37 7f
        e 130 82 2b 40
        e 0 82 32 40
        e 0 82 37 40
        e 14 92 2b 7f
        e 0 92 32 7f
        e 0 92 37 7f
        e 34 82 2b 40
        e 0 82 32 40
        e 0 82 37 40
        e 14 92 2b 7f
        e 0 92 32 7f
        e 0 92 37 7f
        e 82 82 2b 40
        e 0 82 32 40
        e 0 82 37 40
        e 302 92 24 7f
        e 0 92 30 7f
        e 178 82 24 40
        e 0 82 30 40
        e 14 92 30 7f
        e 0 92 37 7f
        e 0 92 3c 7f
        e 178 82 30 40
        e 0 82 37 40
        e 0 82 3c 40
        e 14 92 29 7f
        e 0 92 35 7f
        e 178 82 29 40
        e 0 82 35 40
        e 14 92 35 7f
        e 0 92 39 7f
        e 0 92 3c 7f
        e 178 82 35 40
        e 0 82 39 40
        e 0 82 3c 40
        e 14 92 28 7f
        e 0 92 34 7f
        e 178 82 28 40
        e 0 82 34 40
        e 14 92 34 7f
        e 0 92 38 7f
        e 0 92 3b 7f
        e 0 92 40 7f
        e 130 82 34 40
        e 0 82 38 40
        e 0 82 3b 40
        e 0 82 40 40
        e 14 92 34 7f
        e 0 92 38 7f
        e 0 92 3b 7f
        e 0 92 40 7f
        e 34 82 34 40
        e 0 82 38 40
        e 0 82 3b 40
        e 0 82 40 40
        e 14 92 34 7f
        e 0 92 38 7f
        e 0 92 3b 7f
        e 0 92 40 7f
        e 178 82 34 40
        e 0 82 38 40
        e 0 82 3b 40
        e 0 82 40 40
        e 14 92 2a 7f
        e 0 92 36 7f
        e 178 82 2a 40
        e 0 82 36 40
        e 14 92 2b 7f
        e 0 92 37 7f
        e 178 82 2b 40
        e 0 82 37 40
        e 14 92 37 7f
        e 0 92 3c 7f
        e 0 92 40 7f
        e 178 82 37 40
        e 0 82 3c 40
        e 0 82 40 40
        e 14 92 2b 7f
        e 0 92 37 7f
        e 178 82 2b 40
        e 0 82 37 40
        e 14 92 37 7f
        e 0 92 3b 7f
        e 0 92 3e 7f
        e 178 82 37 40
        e 0 82 3b 40
        e 0 82 3e 40
        e 14 92 24 7f
        e 0 92 30 7f
        e 178 82 24 40
        e 0 82 30 40
        e 14 92 30 7f
        e 0 92 34 7f
        e 0 92 37 7f
        e 0 92 3c 7f
        e 130 82 30 40
        e 0 82 34 40
        e 0 82 37 40
        e 0 82 3c 40
        e 14 92 30 7f
        e 0 92 34 7f
        e 0 92 37 7f
        e 0 92 3c 7f
        e 34 82 30 40
        e 0 82 34 40
        e 0 82 37 40
        e 0 82 3c 40
        e 14 92 30 7f
        e 0 92 34 7f
        e 0 92 37 7f
        e 0 92 3c 7f
        e 82 82 30 40
        e 0 82 34 40
        e 0 82 37 40
        e 0 82 3c 40
        E 110 b0 7b 00
        GUID {4DD63A7D-1AB7-4148-B5E7-42BA74D8628C}
        IGNTEMPO 0 120 4 4
        SRCCOLOR 51
        VELLANE -1 86 6
        CFGEDITVIEW 3917.158136 54.160969 62 11 0 0 0 0 0 0.5
        KEYSNAP 0
        TRACKSEL 252 0 0 ""
        EVTFILTER 0 -1 -1 -1 -1 0 0 0 0 -1 -1 -1 -1 0 -1 0 -1 -1
        CFGEDIT 1 0 0 0 0 0 1 0 1 1 1 0.25 301 36 1280 633 0 0 2 3 0 0 0 0 0 0.5 0 0 1 64
      >
    >
  >
  <TRACK {5AFE27AD-822D-C34D-AFA1-36A455563115}
    NAME "Bass Return (global)"
    PEAKCOL 0
    BEAT -1
    AUTOMODE 0
    VOLPAN 0.8829554344746 0.024 -1 -1 1
    MUTESOLO 0 0 0
    IPHASE 0
    ISBUS 0 0
    BUSCOMP 0 0
    SHOWINMIX 1 0.6667 0.5 1 0.5 0 0 0
    FREEMODE 0
    SEL 0
    REC 0 0 0 0 0 0 0
    VU 2
    TRACKHEIGHT 0 0
    INQ 0 0 0 0.5 100 0 0 100
    NCHAN 2
    FX 1
    TRACKID {5AFE27AD-822D-C34D-AFA1-36A455563115}
    PERF 0
    AUXRECV 0 0 1 0 1 0 0 0 0 -1:U 0 -1 ''
    AUXRECV 2 0 1 0 0 0 0 0 0 -1:U 0 -1 ''
    AUXRECV 6 0 1 0 1 0 0 4 0 -1:U 0 -1 ''
    MIDIOUT -1
    MAINSEND 1 0
    <FXCHAIN
      SHOW 0
      LASTSEL 0
      DOCKED 0
      BYPASS 0 0 0
      <VST "VST: 8-Bit Shaper (Xfer Records)" 8BitShaper.vst 0 "" 1148539762
        clN1RO5e7f4CAAAAAQAAAAAAAAACAAAAAAAAAAIAAAABAAAAAAAAAAIAAAAAAAAANAIAAAEAAAAAABAA
        ZmaGP20MlT7dQQw/AAAAPyQAAAAAAIA/ADbfHgEAAAAXAAAAMAAAABkAAAAaAAAAGgAAABoAAAAbAAAAGwAAABwAAAAcAAAAHAAAAB0AAAAdAAAAHgAAAB4AAAAfAAAA
        HwAAACAAAAAgAAAAIAAAACEAAAAhAAAAIQAAACIAAAAiAAAAIgAAACMAAAAjAAAAIwAAACQAAAAkAAAAJAAAACUAAAAlAAAAKAAAACgAAAApAAAAKQAAACoAAAA1AAAA
        KgAAACoAAAA2AAAAKgAAACoAAAAqAAAAKgAAACoAAAAqAAAAKgAAACsAAAArAAAAOQAAAC0AAAA0AAAAOgAAAC0AAAAtAAAAPAAAAC4AAAAuAAAALwAAADAAAAAwAAAA
        MQAAADEAAAAxAAAAMgAAADMAAAAzAAAAMwAAADcAAAA3AAAANwAAADgAAAA4AAAAOAAAADkAAAA5AAAAOQAAADoAAAA6AAAAOgAAADoAAAA6AAAAOwAAADsAAAA7AAAA
        PAAAADsAAAA7AAAAOwAAADwAAAA8AAAAPAAAADwAAAA9AAAAPQAAAD0AAAA9AAAAPQAAAD4AAAA+AAAAPwAAAEkAAABAAAAAQAAAAEgAAABAAAAAQQAAAEIAAABCAAAA
        QgAAAEMAAABDAAAAQwAAAEQAAABEAAAARQAAAE0AAABGAAAARwAAAEYAAABHAAAASAAAAEgAAABJAAAATwAAAAAAgD+rqqo+q6qqPh0Fwz6OAm0/
        AEluaXQgMQAQAAAA
      >
      PRESETNAME "Init 1"
      FLOATPOS 32 39 278 389
      FXID {19A94086-1737-784E-A733-2897FDD09534}
      WAK 0
    >
  >
  <TRACK {3CF13A00-0AFC-8542-AD98-73B6D91102DB}
    NAME "vst Plogue"
    PEAKCOL 26779488
    BEAT -1
    AUTOMODE 0
    VOLPAN 1 0 -1 -1 1
    MUTESOLO 0 0 0
    IPHASE 0
    ISBUS 0 0
    BUSCOMP 0 0
    SHOWINMIX 1 0.6667 0.5 1 0.5 0 0 0
    FREEMODE 0
    SEL 0
    REC 0 0 0 1 0 0 0
    VU 2
    TRACKHEIGHT 0 0
    INQ 0 0 0 0.5 100 0 0 100
    NCHAN 8
    FX 1
    TRACKID {3CF13A00-0AFC-8542-AD98-73B6D91102DB}
    PERF 0
    AUXRECV 8 0 1 0 0 0 0 0 0 -1:U 32 -1 ''
    AUXRECV 8 0 1 0 0 0 0 0 0 -1:U 96 -1 ''
    AUXRECV 9 0 1 0 0 0 0 0 0 -1:U 64 -1 ''
    AUXRECV 9 0 1 0 0 0 0 0 0 -1:U 128 -1 ''
    AUXRECV 10 0 1 0 0 0 0 0 0 -1:U 160 -1 ''
    MIDIOUT -1
    MAINSEND 0 0
    <FXCHAIN
      SHOW 0
      LASTSEL 0
      DOCKED 0
      BYPASS 0 0 0
      <VST "VSTi: chipsounds (Multi) (Plogue Art et Technologie, Inc) (32 out)" "chipsounds Multi.vst" 0 "" 1347241807
        T0dNUO5e7f4AAAAAIAAAAAEAAAAAAAAAAgAAAAAAAAAEAAAAAAAAAAgAAAAAAAAAEAAAAAAAAAAgAAAAAAAAAEAAAAAAAAAAgAAAAAAAAAAAAQAAAAAAAAACAAAAAAAA
        AAQAAAAAAAAACAAAAAAAAAAQAAAAAAAAACAAAAAAAAAAQAAAAAAAAACAAAAAAAAAAAABAAAAAAAAAAIAAAAAAAAABAAAAAAAAAAIAAAAAAAAABAAAAAAAAAAIAAAAAAA
        AABAAAAAAAAAAIAAAAAAAAAAAAEAAAAAAAAAAgAAAAAAAAAEAAAAAAAAAAgAAAAAAAAAEAAAAAAAAAAgAAAAAAAAAEAAAAAAAAAAgAAAAADvBQAAAQAAAAAAEAA=
        Q0VHULU/AAB4nO2bXXOjNhSG7/MrGF+1F2sk8WVmnOz4I+56pulmau/0MqPYWocWg4tENumvrwATSzEWIiRtt4GLBOSXIx0dIT3o2MOPD9vQuCcJDeLovAf7oGd8vDgb
        jpIAL/A9ET5yAepdnBn8GC4IY0G0ocafKQ4D9sg/7RmbML7F4XUc8ksL9QzKEoK3XFZcbvHDIi8ZhWG8uhqf9xzIi6/m0/nnlF3Fa5JbwSmLt5jxKhdhzM57vD10xbWW
        n53gEPMiaHwwSFZ1n67CffGERIwk5z0XlC1ZplFeOeiD/OgZZtl8btkI1rnxCG9JZrJvXKcJMSZ3wc5czKem6wyg8cMvy8Xkx55xi6M/5lwPAeDNWN3hKCJhfvsud9fu
        Geyott3tTYKjDbf+AT4VMl5EdzEl+d3blBUn9NtNiCnLLBVtzNt5hYOobOc9DlOSB0h2RhbCJ+GR17IQ6QotXaGtK3R0ha6u0NMVDnSFvq4QAm2ldmygdnCgdnSgdnhg
        XXyucYK3WoPooKyr/aAUYzlwHIVS6nrbV0k9se+hpazflqRKq+IAhQOlVB55KulAtGop+2rga0t9sbOgr5JCS4yrAyzf8k5q7YMWourYLnGyIWw/0a7ibf86jDcp6WdL
        TP/n2ed+SkkChHkvv2uSUr4QTDHDBnvc8TsRslweRhr8xS/srD/LlYnXR6J1gIvTNb+Fn5THrPiHwOsesotm4WNTp+E7cXqZBJsNSRZ8zSbRiiS1bkMPQb902/EEt1GV
        23Dv9f4orr383Jp4M19yYgKs2b/VEXn0f+UOkITDwoLQzKk+ZWT3Pxr/QzPjq+eoBduhFqxArUGHWh1qvRPUkj2CrntySRY98oGTv2TVQxnybBe4rwxljtIlCcocW4lP
        YlMtT2m1bii/iLRem4lEMDv0GKobBHwer5meOtjqYKsNbEEAm9JW/pR7vBdml8e0VXSNZ42lghlnsEw7OJLy0mmVBYBkC29McdUMg9oxjF0yDDwwjN2OYUANw9QtQM0Z
        poaKOoZRd3jHME0ZxkO2nT1G1UrRI6jcVxE98pS0IXkEVR55NY/Fqc0q5V6RFCXuu0pq6zdA2qzKaAeelDZwSxz5tpIMPbEHLOUOlECGdQ3wpCGt7CwJIl11W8Uh4ELt
        TUAHqaTSHpyP1IF9KUNatdq6uVzU6u/b+sBtYFd/hPnAb/CQNXAOQsk7Sxk6HgNx9sq1KnFdv3WY3mF6K0xHVlNMz9+aC0wHCI3HR54cw/s0x3QAKjG9EvSdiWx3XGC6
        50GxdFaUTuTS/THR0c5O4H9jpLfaIT365zPA2khfQ+rdtqRS2CH9d5YBrjHaZYDFzuoywK2Pjna6DPALo/8+M8B2O9SyKlDL6VCrQ613glrfYQa4dvOuywB3GWCto4Ot
        LgP8X8gAe08Mg/pG0Y/Gb/iefI2TLTU/4WRtLB6j1UmIcZ5SwG7LDaNXIpfX/+5aDQt15PK+yUWZ9pI8Un6jX+omzi3IP5kilrx31KlXCXPUGTppkCiBREqSqveekD48
        If1Ul1c3+l6WepWi5SrpTRqArtKqo98AOaWtJDKJ3lwlar4dvYm517pvR75d7nXQQKufe/WhfuB4r+qPSC6uW1xOpl4t9ZsKAnVrRwfTHUy3gWnkOA1hulgfiq1LMPZm
        Onna8ihzpC5/6XeckSNnToXSsecc221mwa3IIDe0ANtacLy2FuxpSwvVpQiNKvPg4HnGW/cF5PLrV7Jix79bHm1vg2xYPn/h2Fsd/vRlXt6AVyy4J/PiV9WwvL48/Mqa
        hLwKsl7i22ykijNmQihhVyRKjYCWt7O8qepHxWDkgUuW/G+akLXxKWCUv+RgdnfeM0e7XRis8l96U7OwwN+Tgh2N02jNS/JKqamwb+5fwEbJjmw2QUxNqaY+5vPV7tnk
        f+QKauTKFv/usbsnH77wiZCalIci2oQ429Q3b1YJwYyYC7zdhYSal+UnxizIrosKJgdHyzpodovD7p63e2jyIF6cDc3yJ/kXZ38DNWk1fA==
        AAAQAAAA
      >
      FLOATPOS 275 269 871 509
      FXID {C804D762-B992-A540-81BF-3D6C0F7FF19B}
      WAK 0
    >
  >
  <TRACK {361291E9-E6AB-604E-AA43-746A4AF7FC9C}
    NAME "midi "
    PEAKCOL 16576
    BEAT -1
    AUTOMODE 0
    VOLPAN 1 0 -1 -1 1
    MUTESOLO 0 0 0
    IPHASE 0
    ISBUS 1 1
    BUSCOMP 1 0
    SHOWINMIX 1 0.6667 0.5 1 0.5 0 0 0
    FREEMODE 0
    SEL 0
    REC 0 0 0 0 0 0 0
    VU 2
    TRACKHEIGHT 0 0
    INQ 0 0 0 0.5 100 0 0 100
    NCHAN 2
    FX 1
    TRACKID {361291E9-E6AB-604E-AA43-746A4AF7FC9C}
    PERF 0
    MIDIOUT -1
    MAINSEND 1 0
  >
  <TRACK {2BB5EACD-C1BC-284E-92F6-33B7023B768F}
    NAME "ch1,3 (send)"
    PEAKCOL 16576
    BEAT -1
    AUTOMODE 0
    VOLPAN 1 0 -1 -1 1
    MUTESOLO 0 0 0
    IPHASE 0
    ISBUS 0 0
    BUSCOMP 0 0
    SHOWINMIX 1 0.6667 0.5 1 0.5 0 0 0
    FREEMODE 0
    SEL 0
    REC 0 0 0 0 0 0 0
    VU 2
    MIDICTL -1 1
    TRACKHEIGHT 25 0
    INQ 0 0 0 0.5 100 0 0 100
    NCHAN 2
    FX 1
    TRACKID {2BB5EACD-C1BC-284E-92F6-33B7023B768F}
    PERF 0
    MIDIOUT -1
    MAINSEND 1 0
    <FXCHAIN
      SHOW 0
      LASTSEL 0
      DOCKED 0
    >
    <ITEM
      POSITION 0
      SNAPOFFS 0
      LENGTH 33.5
      LOOP 1
      ALLTAKES 0
      FADEIN 1 0 0 1 0 0
      FADEOUT 1 0 0 1 0 0
      MUTE 0
      SEL 0
      YPOS 0.2 0.1
      IGUID {A6F88A61-EF99-9A4D-9A29-C8421D6EBFBB}
      IID 1
      NAME "Melody               - National_Anthems_-_Thailand.mid"
      VOLPAN 1 0 1 -1
      SOFFS 0 0
      PLAYRATE 1 1 0 -1 0 0.0025
      CHANMODE 0
      GUID {B09419BD-5876-9B4D-AADD-E2B1B7AD9C14}
      <SOURCE MIDI
        HASDATA 1 192 QN
        POOLEDEVTS {15CDC69B-6570-A045-A6A7-D73D894A9709}
        <X 0 0
          /wNNZWxvZHkgICAgICAgICAgICAgIA==
        >
        <X 0 0
          /wEocCkgKGMpIFRoZSBTb2Z0d2FyZSBUb29sd29ya3M=
        >
        <X 0 0
          /wFCUE06MTE2LTEyMCE=
        >
        <X 0 0
          /wFDb3VudHJ5OiBUSEFJTEFORA==
        >
        <X 0 0
          /wFNdWx0aU1lZGlhIFdpbmRvd3MgVmVyc2lvbg==
        >
        <X 0 0
          /wFkYXRlOiA3LTI1LTkx
        >
        <X 0 0
          /wFyZXZpc2VkIDExLTI2LTkx
        >
        <X 0 0
          /wFlZGl0IGRhdGU6IDktNy05MQ==
        >
        <X 0 0
          /wFtbSBlZGl0IDktMTMtOTE=
        >
        e 528 90 37 7f
        e 48 80 37 40
        e 0 90 3c 7f
        e 144 80 3c 40
        e 0 90 40 7f
        e 48 80 40 40
        e 0 90 43 7f
        e 192 80 43 40
        e 0 90 43 7f
        e 144 80 43 40
        e 0 90 43 7f
        e 48 80 43 40
        e 0 90 45 7f
        e 144 80 45 40
        e 0 90 43 7f
        e 48 80 43 40
        e 0 90 41 7f
        e 144 80 41 40
        e 0 90 45 7f
        e 48 80 45 40
        e 0 90 43 7f
        e 384 80 43 40
        e 0 90 40 7f
        e 192 80 40 40
        e 0 90 40 7f
        e 144 80 40 40
        e 0 90 41 7f
        e 48 80 41 40
        e 0 90 40 7f
        e 144 80 40 40
        e 0 90 3e 7f
        e 48 80 3e 40
        e 0 90 3e 7f
        e 336 80 3e 40
        e 0 90 3e 7f
        e 48 80 3e 40
        e 0 90 3e 7f
        e 144 80 3e 40
        e 0 90 40 7f
        e 48 80 40 40
        e 0 90 3e 7f
        e 144 80 3e 40
        e 0 90 3c 7f
        e 48 80 3c 40
        e 0 90 3c 7f
        e 384 80 3c 40
        e 0 90 3c 7f
        e 144 80 3c 40
        e 0 90 40 7f
        e 48 80 40 40
        e 0 90 43 7f
        e 192 80 43 40
        e 0 90 43 7f
        e 192 80 43 40
        e 0 90 45 7f
        e 144 80 45 40
        e 0 90 43 7f
        e 48 80 43 40
        e 0 90 41 7f
        e 144 80 41 40
        e 0 90 45 7f
        e 48 80 45 40
        e 0 90 43 7f
        e 576 80 43 40
        e 0 90 43 7f
        e 144 80 43 40
        e 0 90 45 7f
        e 48 80 45 40
        e 0 90 47 7f
        e 144 80 47 40
        e 0 90 43 7f
        e 48 80 43 40
        e 0 90 4a 7f
        e 336 80 4a 40
        e 0 90 3e 7f
        e 48 80 3e 40
        e 0 90 45 7f
        e 144 80 45 40
        e 0 90 47 7f
        e 48 80 47 40
        e 0 90 45 7f
        e 384 80 45 40
        e 0 90 43 7f
        e 96 80 43 40
        e 96 90 43 7f
        e 144 80 43 40
        e 0 90 45 7f
        e 48 80 45 40
        e 0 90 43 7f
        e 96 80 43 40
        e 0 90 41 7f
        e 96 80 41 40
        e 0 90 3e 7f
        e 384 80 3e 40
        e 0 90 41 7f
        e 144 80 41 40
        e 0 90 45 7f
        e 48 80 45 40
        e 0 90 43 7f
        e 96 80 43 40
        e 0 90 40 7f
        e 96 80 40 40
        e 0 90 3c 7f
        e 384 80 3c 40
        e 0 90 3c 7f
        e 144 80 3c 40
        e 0 90 40 7f
        e 48 80 40 40
        e 0 90 3e 7f
        e 192 80 3e 40
        e 0 90 3e 7f
        e 144 80 3e 40
        e 0 90 3e 7f
        e 48 80 3e 40
        e 0 90 45 7f
        e 192 80 45 40
        e 0 90 47 7f
        e 144 80 47 40
        e 0 90 45 7f
        e 48 80 45 40
        e 0 90 43 7f
        e 480 80 43 40
        e 48 90 3c 7f
        e 48 80 3c 40
        e 0 90 3c 7f
        e 144 80 3c 40
        e 0 90 40 7f
        e 48 80 40 40
        e 0 90 43 7f
        e 192 80 43 40
        e 0 90 43 7f
        e 192 80 43 40
        e 0 90 45 7f
        e 144 80 45 40
        e 0 90 47 7f
        e 48 80 47 40
        e 0 90 48 7f
        e 144 80 48 40
        e 0 90 4a 7f
        e 48 80 4a 40
        e 0 90 4c 7f
        e 480 80 4c 40
        e 48 90 4a 7f
        e 48 80 4a 40
        e 0 90 48 7f
        e 144 80 48 40
        e 0 90 45 7f
        e 48 80 45 40
        e 0 90 43 7f
        e 144 80 43 40
        e 0 90 45 7f
        e 48 80 45 40
        e 0 90 47 7f
        e 144 80 47 40
        e 0 90 48 7f
        e 48 80 48 40
        e 0 90 4c 7f
        e 144 80 4c 40
        e 0 90 48 7f
        e 48 80 48 40
        e 0 90 4a 7f
        e 144 80 4a 40
        e 0 90 48 7f
        e 48 80 48 40
        e 0 90 48 7f
        e 480 80 48 40
        E 96 b0 7b 00
        GUID {1B7A544D-B783-0B4A-A30B-210A8C9C9B4D}
        IGNTEMPO 0 120 4 4
        SRCCOLOR 1936
        VELLANE -1 86 6
        CFGEDITVIEW 0 0 50 15 0 0 0 0 0 0.5
        KEYSNAP 0
        TRACKSEL 252 0 0 ""
        EVTFILTER 0 -1 -1 -1 -1 0 0 0 0 -1 -1 -1 -1 0 -1 0 -1 -1
        CFGEDIT 1 0 0 0 0 0 1 0 1 1 1 0.25 285 20 1280 633 0 0 2 3 0 0 0 0 0 0.5 0 0 1 64
      >
    >
    <ITEM
      POSITION 0
      SNAPOFFS 0
      LENGTH 33.5
      LOOP 1
      ALLTAKES 0
      FADEIN 1 0 0 1 0 0
      FADEOUT 1 0 0 1 0 0
      MUTE 0
      SEL 0
      YPOS 0.5 0.1
      IGUID {EECE9DA8-3DDD-DE42-83B6-0E7EF5DC3939}
      IID 4
      NAME "Bass                 - National_Anthems_-_Thailand.mid"
      VOLPAN 1 0 1 -1
      SOFFS 0 0
      PLAYRATE 1 1 0 -1 0 0.0025
      CHANMODE 0
      GUID {14298BEA-DAE5-414A-9DFC-FFB5E07B9D3C}
      <SOURCE MIDI
        HASDATA 1 192 QN
        POOLEDEVTS {53FD2D7B-0F2D-8E4D-BC2B-87CF9B045B1A}
        <X 0 0
          /wNCYXNzICAgICAgICAgICAgICAgIA==
        >
        e 768 93 24 7f
        e 192 83 24 40
        e 0 93 30 7f
        e 192 83 30 40
        e 0 93 24 7f
        e 192 83 24 40
        e 0 93 30 7f
        e 192 83 30 40
        e 0 93 24 7f
        e 192 83 24 40
        e 0 93 30 7f
        e 144 83 30 40
        e 0 93 30 7f
        e 48 83 30 40
        e 0 93 30 7f
        e 192 83 30 40
        e 0 93 30 7f
        e 192 83 30 40
        e 0 93 2b 7f
        e 192 83 2b 40
        e 0 93 37 7f
        e 144 83 37 40
        e 0 93 37 7f
        e 48 83 37 40
        e 0 93 37 7f
        e 192 83 37 40
        e 0 93 37 7f
        e 192 83 37 40
        e 0 93 24 7f
        e 192 83 24 40
        e 0 93 30 7f
        e 144 83 30 40
        e 0 93 30 7f
        e 48 83 30 40
        e 0 93 30 7f
        e 192 83 30 40
        e 0 93 30 7f
        e 192 83 30 40
        e 0 93 24 7f
        e 192 83 24 40
        e 0 93 30 7f
        e 192 83 30 40
        e 0 93 24 7f
        e 192 83 24 40
        e 0 93 30 7f
        e 192 83 30 40
        e 0 93 24 7f
        e 192 83 24 40
        e 0 93 30 7f
        e 144 83 30 40
        e 0 93 30 7f
        e 48 83 30 40
        e 0 93 30 7f
        e 192 83 30 40
        e 0 93 30 7f
        e 192 83 30 40
        e 0 93 26 7f
        e 192 83 26 40
        e 0 93 32 7f
        e 144 83 32 40
        e 0 93 32 7f
        e 48 83 32 40
        e 0 93 32 7f
        e 192 83 32 40
        e 0 93 32 7f
        e 192 83 32 40
        e 0 93 26 7f
        e 144 83 26 40
        e 0 93 26 7f
        e 48 83 26 40
        e 0 93 28 7f
        e 144 83 28 40
        e 0 93 2a 7f
        e 48 83 2a 40
        e 0 93 2b 7f
        e 96 83 2b 40
        e 288 93 2b 7f
        e 192 83 2b 40
        e 0 93 37 7f
        e 192 83 37 40
        e 0 93 2b 7f
        e 192 83 2b 40
        e 0 93 37 7f
        e 192 83 37 40
        e 0 93 24 7f
        e 192 83 24 40
        e 0 93 30 7f
        e 192 83 30 40
        e 0 93 24 7f
        e 192 83 24 40
        e 0 93 30 7f
        e 192 83 30 40
        e 0 93 2f 7f
        e 192 83 2f 40
        e 0 93 2d 7f
        e 192 83 2d 40
        e 0 93 2a 7f
        e 192 83 2a 40
        e 0 93 26 7f
        e 192 83 26 40
        e 0 93 2b 7f
        e 192 83 2b 40
        e 0 93 37 7f
        e 144 83 37 40
        e 0 93 37 7f
        e 48 83 37 40
        e 0 93 37 7f
        e 96 83 37 40
        e 288 93 24 7f
        e 192 83 24 40
        e 0 93 30 7f
        e 192 83 30 40
        e 0 93 29 7f
        e 192 83 29 40
        e 0 93 35 7f
        e 192 83 35 40
        e 0 93 43 7f
        e 192 83 43 40
        e 0 93 34 7f
        e 144 83 34 40
        e 0 93 34 7f
        e 48 83 34 40
        e 0 93 34 7f
        e 192 83 34 40
        e 0 93 2a 7f
        e 192 83 2a 40
        e 0 93 2b 7f
        e 192 83 2b 40
        e 0 93 37 7f
        e 192 83 37 40
        e 0 93 2b 7f
        e 192 83 2b 40
        e 0 93 37 7f
        e 192 83 37 40
        e 0 93 24 7f
        e 192 83 24 40
        e 0 93 30 7f
        e 144 83 30 40
        e 0 93 30 7f
        e 48 83 30 40
        e 0 93 24 7f
        e 96 83 24 40
        E 96 b0 7b 00
        GUID {78C1A59E-8894-904F-93C7-8A761FE5543E}
        IGNTEMPO 0 120 4 4
        SRCCOLOR 52
        VELLANE -1 86 6
        CFGEDITVIEW 5801.71685 155.52725 59 10 0 0 0 0 0 0.5
        KEYSNAP 0
        TRACKSEL 252 0 0 ""
        EVTFILTER 0 -1 -1 -1 -1 0 0 0 0 -1 -1 -1 -1 0 -1 0 -1 -1
        CFGEDIT 1 0 0 0 0 0 1 0 1 1 1 0.25 301 36 1280 633 0 0 2 3 0 0 0 0 0 0.5 0 0 1 64
      >
    >
  >
  <TRACK {3C494A2B-9670-9740-AD22-E42CC5065FE1}
    NAME "ch2,4 (send)"
    PEAKCOL 16576
    BEAT -1
    AUTOMODE 0
    VOLPAN 1 0 -1 -1 1
    MUTESOLO 0 0 0
    IPHASE 0
    ISBUS 0 0
    BUSCOMP 0 0
    SHOWINMIX 1 0.6667 0.5 1 0.5 0 0 0
    FREEMODE 0
    SEL 0
    REC 0 0 0 0 0 0 0
    VU 2
    MIDICTL -1 1
    TRACKHEIGHT 25 0
    INQ 0 0 0 0.5 100 0 0 100
    NCHAN 2
    FX 1
    TRACKID {3C494A2B-9670-9740-AD22-E42CC5065FE1}
    PERF 0
    MIDIOUT -1
    MAINSEND 1 0
    <FXCHAIN
      WNDRECT 32 359 724 387
      SHOW 0
      LASTSEL 0
      DOCKED 0
    >
    <ITEM
      POSITION 0
      SNAPOFFS 0
      LENGTH 33.5
      LOOP 1
      ALLTAKES 0
      FADEIN 1 0 0 1 0 0
      FADEOUT 1 0 0 1 0 0
      MUTE 0
      SEL 0
      YPOS 0.3 0.1
      IGUID {8BF37CDB-F0C3-A74A-8352-36D65EEABF8E}
      IID 2
      NAME "RH                   - National_Anthems_-_Thailand.mid"
      VOLPAN 1 0 1 -1
      SOFFS 0 0
      PLAYRATE 1 1 0 -1 0 0.0025
      CHANMODE 0
      GUID {8ED4590F-264E-FA44-81B6-DE6C087C18AC}
      <SOURCE MIDI
        HASDATA 1 192 QN
        POOLEDEVTS {EA3A0980-5614-CC4B-8A59-18FAE3AA9110}
        <X 0 0
          /wNSSCAgICAgICAgICAgICAgICAgIA==
        >
        e 528 91 37 7f
        e 34 81 37 40
        e 14 91 3c 7f
        e 130 81 3c 40
        e 14 91 40 7f
        e 34 81 40 40
        e 14 91 3c 7f
        e 0 91 40 7f
        e 0 91 43 7f
        e 178 81 3c 40
        e 0 81 40 40
        e 0 81 43 40
        e 14 91 40 7f
        e 0 91 43 7f
        e 130 81 40 40
        e 0 81 43 40
        e 14 91 40 7f
        e 0 91 43 7f
        e 34 81 40 40
        e 0 81 43 40
        e 14 91 41 7f
        e 0 91 45 7f
        e 130 81 45 40
        e 14 91 43 7f
        e 34 81 41 40
        e 0 81 43 40
        e 14 91 41 7f
        e 130 81 41 40
        e 14 91 45 7f
        e 34 81 45 40
        e 14 91 40 7f
        e 0 91 43 7f
        e 370 81 40 40
        e 0 81 43 40
        e 14 91 3c 7f
        e 0 91 40 7f
        e 178 81 3c 40
        e 0 81 40 40
        e 14 91 3c 7f
        e 0 91 40 7f
        e 130 81 40 40
        e 14 91 41 7f
        e 34 81 3c 40
        e 0 81 41 40
        e 14 91 3c 7f
        e 0 91 40 7f
        e 130 81 3c 40
        e 0 81 40 40
        e 14 91 3e 7f
        e 34 81 3e 40
        e 14 91 3b 7f
        e 0 91 3e 7f
        e 322 81 3b 40
        e 0 81 3e 40
        e 14 91 3b 7f
        e 0 91 3e 7f
        e 34 81 3b 40
        e 0 81 3e 40
        e 14 91 3b 7f
        e 0 91 3e 7f
        e 130 81 3b 40
        e 0 81 3e 40
        e 14 91 3b 7f
        e 0 91 40 7f
        e 34 81 3b 40
        e 0 81 40 40
        e 14 91 3b 7f
        e 0 91 3e 7f
        e 130 81 3b 40
        e 0 81 3e 40
        e 14 91 3c 7f
        e 34 81 3c 40
        e 14 91 3c 7f
        e 370 81 3c 40
        e 14 91 3c 7f
        e 130 81 3c 40
        e 14 91 40 7f
        e 34 81 40 40
        e 14 91 3c 7f
        e 0 91 40 7f
        e 0 91 43 7f
        e 178 81 3c 40
        e 0 81 40 40
        e 0 81 43 40
        e 14 91 40 7f
        e 0 91 43 7f
        e 178 81 40 40
        e 0 81 43 40
        e 14 91 41 7f
        e 0 91 45 7f
        e 130 81 45 40
        e 14 91 43 7f
        e 34 81 41 40
        e 0 81 43 40
        e 14 91 41 7f
        e 130 81 41 40
        e 14 91 45 7f
        e 34 81 45 40
        e 14 91 40 7f
        e 0 91 43 7f
        e 562 81 40 40
        e 0 81 43 40
        e 14 91 40 7f
        e 0 91 43 7f
        e 130 81 43 40
        e 14 91 45 7f
        e 34 81 40 40
        e 0 81 45 40
        e 14 91 3e 7f
        e 0 91 47 7f
        e 130 81 47 40
        e 14 91 43 7f
        e 34 81 3e 40
        e 0 81 43 40
        e 14 91 3e 7f
        e 0 91 43 7f
        e 0 91 4a 7f
        e 322 81 3e 40
        e 0 81 43 40
        e 0 81 4a 40
        e 14 91 3e 7f
        e 34 81 3e 40
        e 14 91 3c 7f
        e 0 91 3e 7f
        e 0 91 45 7f
        e 130 81 45 40
        e 14 91 47 7f
        e 34 81 3c 40
        e 0 81 3e 40
        e 0 81 47 40
        e 14 91 3c 7f
        e 0 91 3e 7f
        e 0 91 45 7f
        e 370 81 3c 40
        e 0 81 3e 40
        e 0 81 45 40
        e 14 91 3b 7f
        e 0 91 3e 7f
        e 0 91 43 7f
        e 82 81 3b 40
        e 0 81 3e 40
        e 0 81 43 40
        e 110 91 43 7f
        e 130 81 43 40
        e 14 91 45 7f
        e 34 81 45 40
        e 14 91 43 7f
        e 82 81 43 40
        e 14 91 41 7f
        e 82 81 41 40
        e 14 91 3e 7f
        e 370 81 3e 40
        e 14 91 41 7f
        e 130 81 41 40
        e 14 91 45 7f
        e 34 81 45 40
        e 14 91 43 7f
        e 82 81 43 40
        e 14 91 40 7f
        e 82 81 40 40
        e 14 91 3c 7f
        e 370 81 3c 40
        e 14 91 3c 7f
        e 130 81 3c 40
        e 14 91 40 7f
        e 34 81 40 40
        e 14 91 3e 7f
        e 178 81 3e 40
        e 14 91 3c 7f
        e 0 91 3e 7f
        e 130 81 3c 40
        e 0 81 3e 40
        e 14 91 3c 7f
        e 0 91 3e 7f
        e 34 81 3c 40
        e 0 81 3e 40
        e 14 91 3c 7f
        e 0 91 3e 7f
        e 0 91 45 7f
        e 178 81 3c 40
        e 0 81 3e 40
        e 0 81 45 40
        e 14 91 3c 7f
        e 0 91 42 7f
        e 0 91 47 7f
        e 130 81 47 40
        e 14 91 45 7f
        e 34 81 3c 40
        e 0 81 42 40
        e 0 81 45 40
        e 14 91 3b 7f
        e 0 91 3e 7f
        e 0 91 43 7f
        e 466 81 3b 40
        e 0 81 3e 40
        e 0 81 43 40
        e 62 91 3c 7f
        e 34 81 3c 40
        e 14 91 3c 7f
        e 130 81 3c 40
        e 14 91 40 7f
        e 34 81 40 40
        e 14 91 3c 7f
        e 0 91 40 7f
        e 0 91 43 7f
        e 178 81 3c 40
        e 0 81 40 40
        e 0 81 43 40
        e 14 91 3c 7f
        e 0 91 40 7f
        e 0 91 43 7f
        e 178 81 3c 40
        e 0 81 40 40
        e 0 81 43 40
        e 14 91 41 7f
        e 0 91 45 7f
        e 130 81 45 40
        e 14 91 47 7f
        e 34 81 41 40
        e 0 81 47 40
        e 14 91 45 7f
        e 0 91 48 7f
        e 130 81 48 40
        e 14 91 4a 7f
        e 34 81 45 40
        e 0 81 4a 40
        e 14 91 44 7f
        e 0 91 47 7f
        e 0 91 4c 7f
        e 514 81 44 40
        e 0 81 47 40
        e 0 81 4c 40
        e 14 91 40 7f
        e 0 91 47 7f
        e 0 91 4a 7f
        e 34 81 40 40
        e 0 81 47 40
        e 0 81 4a 40
        e 14 91 3f 7f
        e 0 91 45 7f
        e 0 91 48 7f
        e 130 81 3f 40
        e 0 81 45 40
        e 0 81 48 40
        e 14 91 3c 7f
        e 0 91 3f 7f
        e 0 91 45 7f
        e 34 81 3c 40
        e 0 81 3f 40
        e 0 81 45 40
        e 14 91 3c 7f
        e 0 91 40 7f
        e 0 91 43 7f
        e 130 81 43 40
        e 14 91 45 7f
        e 34 81 3c 40
        e 0 81 40 40
        e 0 81 45 40
        e 14 91 43 7f
        e 0 91 47 7f
        e 130 81 47 40
        e 14 91 48 7f
        e 34 81 43 40
        e 0 81 48 40
        e 14 91 41 7f
        e 0 91 43 7f
        e 0 91 4c 7f
        e 130 81 4c 40
        e 14 91 48 7f
        e 34 81 41 40
        e 0 81 43 40
        e 0 81 48 40
        e 14 91 41 7f
        e 0 91 43 7f
        e 0 91 4a 7f
        e 130 81 4a 40
        e 14 91 48 7f
        e 34 81 41 40
        e 0 81 43 40
        e 0 81 48 40
        e 14 91 40 7f
        e 0 91 43 7f
        e 0 91 48 7f
        e 466 81 40 40
        e 0 81 43 40
        e 0 81 48 40
        E 110 b0 7b 00
        GUID {226E9532-49BE-9B4D-8B73-AA183DD4B37B}
        IGNTEMPO 0 120 4 4
        SRCCOLOR 50
        VELLANE -1 86 6
        CFGEDITVIEW 6576.669833 229.869097 50 14 0 0 0 0 0 0.5
        KEYSNAP 0
        TRACKSEL 252 0 0 ""
        EVTFILTER 0 -1 -1 -1 -1 0 0 0 0 -1 -1 -1 -1 0 -1 0 -1 -1
        CFGEDIT 1 0 0 0 0 0 1 0 1 1 1 0.25 301 36 1280 633 0 0 2 3 0 0 0 0 0 0.5 0 0 1 64
      >
    >
    <ITEM
      POSITION 0
      SNAPOFFS 0
      LENGTH 33.5
      LOOP 1
      ALLTAKES 0
      FADEIN 1 0 0 1 0 0
      FADEOUT 1 0 0 1 0 0
      MUTE 0
      SEL 0
      YPOS 0.4 0.1
      IGUID {1545B0A6-E06D-1446-8265-E60FA92D4BDB}
      IID 3
      NAME "LH                   - National_Anthems_-_Thailand.mid"
      VOLPAN 1 0 1 -1
      SOFFS 0 0
      PLAYRATE 1 1 0 -1 0 0.0025
      CHANMODE 0
      GUID {6A14705D-DFFD-F447-A1EC-9CEEBFA283D9}
      <SOURCE MIDI
        HASDATA 1 192 QN
        POOLEDEVTS {3E75F283-CB54-7E49-A940-AE976A99BC79}
        <X 0 0
          /wNMSCAgICAgICAgICAgICAgICAgIA==
        >
        e 768 92 24 7f
        e 0 92 30 7f
        e 178 82 24 40
        e 0 82 30 40
        e 14 92 24 7f
        e 0 92 30 7f
        e 0 92 37 7f
        e 0 92 3c 7f
        e 178 82 24 40
        e 0 82 30 40
        e 0 82 37 40
        e 0 82 3c 40
        e 14 92 24 7f
        e 0 92 30 7f
        e 178 82 24 40
        e 0 82 30 40
        e 14 92 24 7f
        e 0 92 30 7f
        e 0 92 39 7f
        e 0 92 3c 7f
        e 178 82 24 40
        e 0 82 30 40
        e 0 82 39 40
        e 0 82 3c 40
        e 14 92 24 7f
        e 0 92 30 7f
        e 178 82 24 40
        e 0 82 30 40
        e 14 92 30 7f
        e 0 92 37 7f
        e 0 92 3c 7f
        e 130 82 30 40
        e 0 82 37 40
        e 0 82 3c 40
        e 14 92 30 7f
        e 0 92 37 7f
        e 0 92 3c 7f
        e 34 82 30 40
        e 0 82 37 40
        e 0 82 3c 40
        e 14 92 30 7f
        e 0 92 37 7f
        e 0 92 3c 7f
        e 178 82 30 40
        e 0 82 37 40
        e 0 82 3c 40
        e 14 92 30 7f
        e 0 92 37 7f
        e 0 92 3c 7f
        e 178 82 30 40
        e 0 82 37 40
        e 0 82 3c 40
        e 14 92 2b 7f
        e 178 82 2b 40
        e 14 92 37 7f
        e 130 82 37 40
        e 14 92 37 7f
        e 34 82 37 40
        e 14 92 37 7f
        e 178 82 37 40
        e 14 92 37 7f
        e 178 82 37 40
        e 14 92 24 7f
        e 0 92 30 7f
        e 178 82 24 40
        e 0 82 30 40
        e 14 92 30 7f
        e 0 92 34 7f
        e 0 92 37 7f
        e 130 82 30 40
        e 0 82 34 40
        e 0 82 37 40
        e 14 92 30 7f
        e 0 92 34 7f
        e 0 92 37 7f
        e 34 82 30 40
        e 0 82 34 40
        e 0 82 37 40
        e 14 92 30 7f
        e 0 92 34 7f
        e 0 92 37 7f
        e 178 82 30 40
        e 0 82 34 40
        e 0 82 37 40
        e 14 92 30 7f
        e 0 92 34 7f
        e 0 92 37 7f
        e 178 82 30 40
        e 0 82 34 40
        e 0 82 37 40
        e 14 92 24 7f
        e 0 92 30 7f
        e 178 82 24 40
        e 0 82 30 40
        e 14 92 24 7f
        e 0 92 30 7f
        e 0 92 37 7f
        e 0 92 3c 7f
        e 178 82 24 40
        e 0 82 30 40
        e 0 82 37 40
        e 0 82 3c 40
        e 14 92 24 7f
        e 0 92 30 7f
        e 178 82 24 40
        e 0 82 30 40
        e 14 92 30 7f
        e 0 92 39 7f
        e 0 92 3c 7f
        e 178 82 30 40
        e 0 82 39 40
        e 0 82 3c 40
        e 14 92 24 7f
        e 0 92 30 7f
        e 178 82 24 40
        e 0 82 30 40
        e 14 92 30 7f
        e 0 92 37 7f
        e 0 92 3c 7f
        e 130 82 30 40
        e 0 82 37 40
        e 0 82 3c 40
        e 14 92 30 7f
        e 0 92 37 7f
        e 0 92 3c 7f
        e 34 82 30 40
        e 0 82 37 40
        e 0 82 3c 40
        e 14 92 30 7f
        e 0 92 37 7f
        e 0 92 3c 7f
        e 178 82 30 40
        e 0 82 37 40
        e 0 82 3c 40
        e 14 92 30 7f
        e 0 92 37 7f
        e 0 92 3c 7f
        e 178 82 30 40
        e 0 82 37 40
        e 0 82 3c 40
        e 14 92 26 7f
        e 0 92 32 7f
        e 178 82 26 40
        e 0 82 32 40
        e 14 92 32 7f
        e 0 92 37 7f
        e 0 92 3b 7f
        e 130 82 32 40
        e 0 82 37 40
        e 0 82 3b 40
        e 14 92 32 7f
        e 0 92 37 7f
        e 0 92 3b 7f
        e 34 82 32 40
        e 0 82 37 40
        e 0 82 3b 40
        e 14 92 32 7f
        e 0 92 37 7f
        e 0 92 3b 7f
        e 178 82 32 40
        e 0 82 37 40
        e 0 82 3b 40
        e 14 92 32 7f
        e 0 92 36 7f
        e 178 82 32 40
        e 0 82 36 40
        e 14 92 26 7f
        e 0 92 32 7f
        e 130 82 26 40
        e 0 82 32 40
        e 14 92 26 7f
        e 0 92 32 7f
        e 34 82 26 40
        e 0 82 32 40
        e 14 92 28 7f
        e 0 92 34 7f
        e 130 82 28 40
        e 0 82 34 40
        e 14 92 2a 7f
        e 0 92 36 7f
        e 34 82 2a 40
        e 0 82 36 40
        e 14 92 2b 7f
        e 0 92 37 7f
        e 82 82 2b 40
        e 0 82 37 40
        e 302 92 2b 7f
        e 178 82 2b 40
        e 14 92 35 7f
        e 0 92 37 7f
        e 0 92 3b 7f
        e 130 82 35 40
        e 0 82 37 40
        e 0 82 3b 40
        e 14 92 35 7f
        e 0 92 37 7f
        e 0 92 3b 7f
        e 34 82 35 40
        e 0 82 37 40
        e 0 82 3b 40
        e 14 92 35 7f
        e 0 92 37 7f
        e 0 92 3b 7f
        e 178 82 35 40
        e 0 82 37 40
        e 0 82 3b 40
        e 14 92 35 7f
        e 0 92 37 7f
        e 0 92 3b 7f
        e 178 82 35 40
        e 0 82 37 40
        e 0 82 3b 40
        e 14 92 24 7f
        e 0 92 30 7f
        e 178 82 24 40
        e 0 82 30 40
        e 14 92 30 7f
        e 0 92 34 7f
        e 0 92 37 7f
        e 130 82 30 40
        e 0 82 34 40
        e 0 82 37 40
        e 14 92 30 7f
        e 0 92 34 7f
        e 0 92 37 7f
        e 34 82 30 40
        e 0 82 34 40
        e 0 82 37 40
        e 14 92 30 7f
        e 0 92 34 7f
        e 0 92 37 7f
        e 178 82 30 40
        e 0 82 34 40
        e 0 82 37 40
        e 14 92 30 7f
        e 0 92 34 7f
        e 0 92 37 7f
        e 178 82 30 40
        e 0 82 34 40
        e 0 82 37 40
        e 14 92 2f 7f
        e 0 92 32 7f
        e 0 92 37 7f
        e 178 82 2f 40
        e 0 82 32 40
        e 0 82 37 40
        e 14 92 2d 7f
        e 0 92 3e 7f
        e 178 82 2d 40
        e 0 82 3e 40
        e 14 92 2a 7f
        e 0 92 36 7f
        e 178 82 2a 40
        e 0 82 36 40
        e 14 92 26 7f
        e 0 92 32 7f
        e 178 82 26 40
        e 0 82 32 40
        e 14 92 2b 7f
        e 178 82 2b 40
        e 14 92 2b 7f
        e 0 92 32 7f
        e 0 92 37 7f
        e 130 82 2b 40
        e 0 82 32 40
        e 0 82 37 40
        e 14 92 2b 7f
        e 0 92 32 7f
        e 0 92 37 7f
        e 34 82 2b 40
        e 0 82 32 40
        e 0 82 37 40
        e 14 92 2b 7f
        e 0 92 32 7f
        e 0 92 37 7f
        e 82 82 2b 40
        e 0 82 32 40
        e 0 82 37 40
        e 302 92 24 7f
        e 0 92 30 7f
        e 178 82 24 40
        e 0 82 30 40
        e 14 92 30 7f
        e 0 92 37 7f
        e 0 92 3c 7f
        e 178 82 30 40
        e 0 82 37 40
        e 0 82 3c 40
        e 14 92 29 7f
        e 0 92 35 7f
        e 178 82 29 40
        e 0 82 35 40
        e 14 92 35 7f
        e 0 92 39 7f
        e 0 92 3c 7f
        e 178 82 35 40
        e 0 82 39 40
        e 0 82 3c 40
        e 14 92 28 7f
        e 0 92 34 7f
        e 178 82 28 40
        e 0 82 34 40
        e 14 92 34 7f
        e 0 92 38 7f
        e 0 92 3b 7f
        e 0 92 40 7f
        e 130 82 34 40
        e 0 82 38 40
        e 0 82 3b 40
        e 0 82 40 40
        e 14 92 34 7f
        e 0 92 38 7f
        e 0 92 3b 7f
        e 0 92 40 7f
        e 34 82 34 40
        e 0 82 38 40
        e 0 82 3b 40
        e 0 82 40 40
        e 14 92 34 7f
        e 0 92 38 7f
        e 0 92 3b 7f
        e 0 92 40 7f
        e 178 82 34 40
        e 0 82 38 40
        e 0 82 3b 40
        e 0 82 40 40
        e 14 92 2a 7f
        e 0 92 36 7f
        e 178 82 2a 40
        e 0 82 36 40
        e 14 92 2b 7f
        e 0 92 37 7f
        e 178 82 2b 40
        e 0 82 37 40
        e 14 92 37 7f
        e 0 92 3c 7f
        e 0 92 40 7f
        e 178 82 37 40
        e 0 82 3c 40
        e 0 82 40 40
        e 14 92 2b 7f
        e 0 92 37 7f
        e 178 82 2b 40
        e 0 82 37 40
        e 14 92 37 7f
        e 0 92 3b 7f
        e 0 92 3e 7f
        e 178 82 37 40
        e 0 82 3b 40
        e 0 82 3e 40
        e 14 92 24 7f
        e 0 92 30 7f
        e 178 82 24 40
        e 0 82 30 40
        e 14 92 30 7f
        e 0 92 34 7f
        e 0 92 37 7f
        e 0 92 3c 7f
        e 130 82 30 40
        e 0 82 34 40
        e 0 82 37 40
        e 0 82 3c 40
        e 14 92 30 7f
        e 0 92 34 7f
        e 0 92 37 7f
        e 0 92 3c 7f
        e 34 82 30 40
        e 0 82 34 40
        e 0 82 37 40
        e 0 82 3c 40
        e 14 92 30 7f
        e 0 92 34 7f
        e 0 92 37 7f
        e 0 92 3c 7f
        e 82 82 30 40
        e 0 82 34 40
        e 0 82 37 40
        e 0 82 3c 40
        E 110 b0 7b 00
        GUID {4DD63A7D-1AB7-4148-B5E7-42BA74D8628C}
        IGNTEMPO 0 120 4 4
        SRCCOLOR 51
        VELLANE -1 86 6
        CFGEDITVIEW 3917.158136 54.160969 62 11 0 0 0 0 0 0.5
        KEYSNAP 0
        TRACKSEL 252 0 0 ""
        EVTFILTER 0 -1 -1 -1 -1 0 0 0 0 -1 -1 -1 -1 0 -1 0 -1 -1
        CFGEDIT 1 0 0 0 0 0 1 0 1 1 1 0.25 301 36 1280 633 0 0 2 3 0 0 0 0 0 0.5 0 0 1 64
      >
    >
  >
  <TRACK {EF869DFD-FA85-EE4D-A133-ABEE14D1B7D0}
    NAME "ch5 (send bass)"
    PEAKCOL 16576
    BEAT -1
    AUTOMODE 0
    VOLPAN 1 0 -1 -1 1
    MUTESOLO 1 0 0
    IPHASE 0
    ISBUS 2 -1
    BUSCOMP 0 0
    SHOWINMIX 1 0.6667 0.5 1 0.5 0 0 0
    FREEMODE 0
    SEL 0
    REC 0 0 0 0 0 0 0
    VU 2
    TRACKHEIGHT 0 0
    INQ 0 0 0 0.5 100 0 0 100
    NCHAN 2
    FX 1
    TRACKID {EF869DFD-FA85-EE4D-A133-ABEE14D1B7D0}
    PERF 0
    MIDIOUT -1
    MAINSEND 1 0
  >
  <TRACK {97C14EE2-C273-C940-9D68-54C062C3CBCA}
    NAME ChipFront
    PEAKCOL 16576
    BEAT -1
    AUTOMODE 0
    VOLPAN 1 0 -1 -1 1
    MUTESOLO 0 0 0
    IPHASE 0
    ISBUS 0 0
    BUSCOMP 0 0
    SHOWINMIX 1 0.6667 0.5 1 0.5 0 0 0
    FREEMODE 0
    SEL 0
    REC 0 0 0 0 0 0 0
    VU 2
    TRACKHEIGHT 0 0
    INQ 0 0 0 0.5 100 0 0 100
    NCHAN 4
    FX 1
    TRACKID {97C14EE2-C273-C940-9D68-54C062C3CBCA}
    PERF 0
    AUXRECV 6 0 1 0 0 0 0 0 0 -1:U 0 -1 ''
    MIDIOUT -1
    MAINSEND 1 0
    <FXCHAIN
      SHOW 0
      LASTSEL 0
      DOCKED 0
      BYPASS 0 0 0
      <VST "VST: FabFilter Volcano 2 (SC) (FabFilter)" "FabFilter Volcano 2 (SC).vst" 0 "" 1180054068
        NDJWRu9e7f4EAAAAAQAAAAAAAAACAAAAAAAAAAQAAAAAAAAACAAAAAAAAAAEAAAAAQAAAAAAAAACAAAAAAAAAAQAAAAAAAAACAAAAAAAAADcCwAAAAAAAAAAEAA=
        776t3g3wrd4AAAA/AAAAPwAAAD8AAAA/AACAPwAAAAAAAAA/q6qqPq2+aD8AAAA/ig0yPM3MzD0AAAAAAAAAAAAAAAAAAIA/AACAP0Isdj8AAAA/bbDgPZqZGT8AAAAA
        AAAAAOev3zwAAIA/AAAAAAAAgD8AAAA/AAAAAJqZGT8AAAAAAAAAAAAAAAAAAIA/AAAAAAAAgD8AAAA/AAAAAJqZGT8AAAAAAAAAAAAAAAAAAIA/AAAAAKuqqj4ATrI+
        AAAAPwAAAADBykk/XXRRPwAAAACJiIg9AACAP6oXiD4AAAAAAAAAAAAAAAAAAAAAAACAPwAAAAAAAAA/AAAAAAAAAAAAAAAAAAAAPwAAAAAAAAAAAAAAAAAAAD8AAAAA
        AAAAAAAAAAAAAAA/AAAAAAAAAAAAAAAAAAAAPwAAAAAAAAAAAAAAAAAAAD8AAAAAAAAAAAAAAAAAAAA/AAAAAAAAAAAAAAAAAAAAPwAAAAAAAAAAAAAAAAAAAD8AAAAA
        AAAAAAAAAAAAAAA/AAAAAAAAAAAAAAAAAAAAPwAAAAAAAAAAAAAAAAAAAD8AAAAAAAAAAAAAAAAAAAA/AAAAAAAAAAAAAAAAAAAAPwAAAAAAAAAAAAAAAHwZED4AAAA/
        KKO3PQAAgD8AAAAAAAAAAImIiD3y0iU/AAAAAAAAgD8AAAAAdGjRPQAAAAAAAIA/AAAAAAAAAD8AAAAAAAAAAAAAAAAAAAA/AAAAAAAAAAAAAAAAAAAAPwAAAAAAAAAA
        AAAAAAAAAD8AAAAAAAAAAAAAAAAAAAA/AAAAAAAAAAAAAAAAAAAAPwAAAAAAAAAAAAAAAAAAAD8AAAAAAAAAAAAAAAAAAAA/AAAAAAAAAAAAAAAAAAAAPwAAAAAAAAAA
        AAAAAAAAAD8AAAAAAAAAAAAAAAAAAAA/AAAAAAAAAAAAAAAAAAAAPwAAAAAAAAAAAAAAAAAAAD8AAAAAAAAAAAAAAAAAAAA/AAAAAAAAAAAAAAAAvvR9PgAAAD8AAAA/
        AAAAPwAAAAAAAAAAiYiIPQAAAD8AAAAAAAAAAAAAAAAAAAA/AAAAAAAAAAAAAAAAAAAAPwAAAAAAAAAAAAAAAAAAAD8AAAAAAAAAAAAAAAAAAAA/AAAAAAAAAAAAAAAA
        AAAAPwAAAAAAAAAAAAAAAAAAAD8AAAAAAAAAAAAAAAAAAAA/AAAAAAAAAAAAAAAAAAAAPwAAAAAAAAAAAAAAAAAAAD8AAAAAAAAAAAAAAAAAAAA/AAAAAAAAAAAAAAAA
        AAAAPwAAAAAAAAAAAAAAAAAAAD8AAAAAAAAAAAAAAAAAAAA/AAAAAAAAAAAAAAAAAAAAPwAAAAAAAAAAAAAAAAAAAD8AAAAAAAAAAAAAAAC+9H0+AAAAPwAAAD8AAAA/
        AAAAAAAAAACJiIg9AAAAPwAAAAAAAAAAAAAAAAAAAD8AAAAAAAAAAAAAAAAAAAA/AAAAAAAAAAAAAAAAAAAAPwAAAAAAAAAAAAAAAAAAAD8AAAAAAAAAAAAAAAAAAAA/
        AAAAAAAAAAAAAAAAAAAAPwAAAAAAAAAAAAAAAAAAAD8AAAAAAAAAAAAAAAAAAAA/AAAAAAAAAAAAAAAAAAAAPwAAAAAAAAAAAAAAAAAAAD8AAAAAAAAAAAAAAAAAAAA/
        AAAAAAAAAAAAAAAAAAAAPwAAAAAAAAAAAAAAAAAAAD8AAAAAAAAAAAAAAAAAAAA/AAAAAAAAAAAAAAAAAAAAPwAAAAAAAAAAAAAAAL70fT4AAAA/AAAAPwAAAD8AAAAA
        AAAAAImIiD0AAAA/AAAAAAAAAAAAAAAAAAAAPwAAAAAAAAAAAAAAAAAAAD8AAAAAAAAAAAAAAAAAAAA/AAAAAAAAAAAAAAAAAAAAPwAAAAAAAAAAAAAAAAAAAD8AAAAA
        AAAAAAAAAAAAAAA/AAAAAAAAAAAAAAAAAAAAPwAAAAAAAAAAAAAAAAAAAD8AAAAAAAAAAAAAAAAAAAA/AAAAAAAAAAAAAAAAAAAAPwAAAAAAAAAAAAAAAAAAAD8AAAAA
        AAAAAAAAAAAAAAA/AAAAAAAAAAAAAAAAAAAAPwAAAAAAAAAAAAAAAAAAAD8AAAAAAAAAAAAAAAAAAAA/AAAAAAAAAAAAAAAAvvR9PgAAAD8AAAA/AAAAPwAAAAAAAAAA
        iYiIPQAAAD8AAAAAAAAAAAAAAAAAAAA/AAAAAAAAAAAAAAAAAAAAPwAAAAAAAAAAAAAAAAAAAD8AAAAAAAAAAAAAAAAAAAA/AAAAAAAAAAAAAAAAAAAAPwAAAAAAAAAA
        AAAAAAAAAD8AAAAAAAAAAAAAAAAAAAA/AAAAAAAAAAAAAAAAAAAAPwAAAAAAAAAAAAAAAAAAAD8AAAAAAAAAAAAAAAAAAAA/AAAAAAAAAAAAAAAAAAAAPwAAAAAAAAAA
        AAAAAAAAAD8AAAAAAAAAAAAAAAAAAAA/AAAAAAAAAAAAAAAAAAAAPwAAAAAAAAAAAAAAAAAAAD8AAAAAAAAAAAAAAAAAAAAAmpmZPgAAAAAAAAAAAAAAAAAAgD8AAAAA
        mpmZPgAAAAAAAAAAAAAAAAAAgD8AAAAAmpmZPgAAAAAAAAAAAAAAAAAAgD8AAAAAmpmZPgAAAAAAAAAAAAAAAAAAgD8AAAAAmpmZPgAAAAAAAAAAAAAAAAAAgD8AAAAA
        mpmZPgAAAAAAAAAAAAAAAAAAgD8AAAAAAAAAAAAAAAAAAAAAAAAAAAAAAAAAAAAAAAAAAAAAAAAAAAAAAAAAAAAAAAAAAAAAAAAAAAAAAAAAAAAAAAAAAAAAAAAAAAAA
        AAAAAAAAAAAAAAAAAAAAAAAAAAAAAAAAAAAAAAAAAAAAAAAAAAAAAAAAAAAAAAAAAAAAAAAAAAAAAAAAAAAAAAAAAAAAAAAAAAAAAKuqKj3ZiZ09gShWPgAAAAAAAAAA
        v+eWPQAAAAAAAAA/AAAAAAAAAAAAAAAAAAAAAAAAAD8AAAAAAAAAAAAAAAAAAAAAAAAAPwAAAAAAAAAAAAAAAAAAAAAAAAAAAAAAAAAAAAAAAAAAAAAAAAAAAAAAAAAA
        AAAAAAAAAAAAAAAAAAAAAAAAAAAAAAAAAAAAAAAAAAAAAAAAAAAAAAAAAAAAAAAAAAAAAAAAAAAAAAAAAAAAAAAAAAAAAAAAAAAAAAAAAAAAAAAAAAAAAAAAAAAAAAAA
        AAAAAAAAAAAAAAAAAAAAAAAAAAAAAAAAAAAAAAAAAAAAAAAAAAAAAAAAAAAAAAAAAAAAAAAAAAAAAAAAAAAAAAAAAAAAAAAAAAAAAAAAAAAAAAAAAAAAAAAAAAAAAAAA
        AAAAAAAAAAAAAAAAAAAAAAAAAAAAAAAAAAAAAAAAAAAAAAAAAAAAAAAAAAAAAAAAAAAAAAAAAAAAAAAAAAAAAAAAAAAAAAAAAAAAAAAAAAAAAAAAAAAAAAAAAAAAAAAA
        AAAAAAAAAAAAAAAAAAAAAAAAAAAAAAAAAAAAAAAAAAAAAAAAAAAAAAAAAAAAAAAAAAAAAAAAAAAAAAAAAAAAAAAAAAAAAAAAAAAAAAAAAAAAAAAAAAAAPwAAAD8AAAA/
        AAAAPwAAAD8AAAA/AAAAPwAAAD8AAAAAAAAAAAAAAAAAAAAAAAAAAAAAAAAAAAAAAAAAAAAAAAAAAAAAAAAAAAAAAAAAAAAAAAAAAAAAAAAAAAAAAAAAAAAAAAAAAAAA
        AAAAAAAAAAAAAAAAAAAAAAAAAAAAAAAAAAAAAAAAAAAAAAAAAAAAAAAAAAAAAAAAAAAAAAAAAAAAAAAAAAAAAAAAAAAAAAAAAAAAAAAAAAAAAAAAAAAAAAAAAAAAAAAA
        AAAAAAAAAAAAAAAAAAAAAAAAAAAAAAAAAAAAAAAAAAAAAAAAAAAAAAAAAAAAAAAAAAAAAAAAAAAAAAAAAAAAAAAAAAAAAAAAAAAAAAAAAAAAAAAAAAAAAAAAAAAAAAAA
        AAAAAAAAAAAAAAAAAAAAAAAAAAAAAAAAAAAAAAAAAAAAAAAAAAAAAAAAAAAAAAAAAAAAAAAAAAAAAAAA
        Q2hpcEZyb250AENoaXBGcm9udAAQAAAA
      >
      PRESETNAME ChipFront
      FLOATPOS 36 32 641 529
      FXID {4C5A6810-F3ED-0645-A06D-6758F70CB097}
      WAK 0
    >
  >
  <TRACK {1B564899-9ACC-8C4B-8FBF-925A5A247A13}
    NAME ChipSide
    PEAKCOL 16576
    BEAT -1
    AUTOMODE 0
    VOLPAN 1 0 -1 -1 1
    MUTESOLO 0 0 0
    IPHASE 0
    ISBUS 0 0
    BUSCOMP 0 0
    SHOWINMIX 1 0.6667 0.5 1 0.5 0 0 0
    FREEMODE 0
    SEL 0
    REC 0 0 0 0 0 0 0
    VU 2
    TRACKHEIGHT 0 0
    INQ 0 0 0 0.5 100 0 0 100
    NCHAN 4
    FX 1
    TRACKID {1B564899-9ACC-8C4B-8FBF-925A5A247A13}
    PERF 0
    AUXRECV 6 0 1.03113579563571 0 0 0 0 2 0 -1:U 0 -1 ''
    MIDIOUT -1
    MAINSEND 1 0
    <FXCHAIN
      SHOW 0
      LASTSEL 0
      DOCKED 0
      BYPASS 0 0 0
      <VST "VST: FabFilter Volcano 2 (SC) (FabFilter)" "FabFilter Volcano 2 (SC).vst" 0 "" 1180054068
        NDJWRu9e7f4EAAAAAQAAAAAAAAACAAAAAAAAAAQAAAAAAAAACAAAAAAAAAAIAAAAAQAAAAAAAAACAAAAAAAAAAQAAAAAAAAACAAAAAAAAAAQAAAAAAAAACAAAAAAAAAA
        QAAAAAAAAACAAAAAAAAAANwLAAAAAAAAAAAQAA==
        776t3g3wrd4AAAA/AAAAPwAAAD8AAAA/AACAPwAAAAAAAIA/q6qqPsplFD8AAAA/TxqgPc3MzD0AAAAAAAAAAEKGIj8AAIA/AACAP0Isdj8AAAA/bbDgPZqZGT8AAAAA
        AAAAAOev3zwAAIA/AAAAAAAAgD8AAAA/AAAAAJqZGT8AAAAAAAAAAAAAAAAAAIA/AAAAAAAAgD8AAAA/AAAAAJqZGT8AAAAAAAAAAAAAAAAAAIA/AAAAAKuqqj6CdAA9
        EObJPZgn+j4AAIA/AAAAAAAAAACJiAg+AACAP7PDtD4AAIA/AAAAAAAAAAAAAAAAq6qqPgAAAACeFR0/AAAAAAAAgD8AAAAAAAAAPwAAAAAAAAAAAAAAAAAAAD8AAAAA
        AAAAAAAAAAAAAAA/AAAAAAAAAAAAAAAAAAAAPwAAAAAAAAAAAAAAAAAAAD8AAAAAAAAAAAAAAAAAAAA/AAAAAAAAAAAAAAAAAAAAPwAAAAAAAAAAAAAAAAAAAD8AAAAA
        AAAAAAAAAAAAAAA/AAAAAAAAAAAAAAAAAAAAPwAAAAAAAAAAAAAAAAAAAD8AAAAAAAAAAAAAAAAAAAA/AAAAAAAAAAAAAAAAAAAAPwAAAAAAAAAAAAAAAHwZED4AAAA/
        KKO3PQAAgD8AAAAAAAAAAImIiD3y0iU/AAAAAAAAgD8AAAAAdGjRPQAAAAAAAIA/AAAAAAAAAD8AAAAAAAAAAAAAAAAAAAA/AAAAAAAAAAAAAAAAAAAAPwAAAAAAAAAA
        AAAAAAAAAD8AAAAAAAAAAAAAAAAAAAA/AAAAAAAAAAAAAAAAAAAAPwAAAAAAAAAAAAAAAAAAAD8AAAAAAAAAAAAAAAAAAAA/AAAAAAAAAAAAAAAAAAAAPwAAAAAAAAAA
        AAAAAAAAAD8AAAAAAAAAAAAAAAAAAAA/AAAAAAAAAAAAAAAAAAAAPwAAAAAAAAAAAAAAAAAAAD8AAAAAAAAAAAAAAAAAAAA/AAAAAAAAAAAAAAAAvvR9PgAAAD8AAAA/
        AAAAPwAAAAAAAAAAiYiIPQAAAD8AAAAAAAAAAAAAAAAAAAA/AAAAAAAAAAAAAAAAAAAAPwAAAAAAAAAAAAAAAAAAAD8AAAAAAAAAAAAAAAAAAAA/AAAAAAAAAAAAAAAA
        AAAAPwAAAAAAAAAAAAAAAAAAAD8AAAAAAAAAAAAAAAAAAAA/AAAAAAAAAAAAAAAAAAAAPwAAAAAAAAAAAAAAAAAAAD8AAAAAAAAAAAAAAAAAAAA/AAAAAAAAAAAAAAAA
        AAAAPwAAAAAAAAAAAAAAAAAAAD8AAAAAAAAAAAAAAAAAAAA/AAAAAAAAAAAAAAAAAAAAPwAAAAAAAAAAAAAAAAAAAD8AAAAAAAAAAAAAAAC+9H0+AAAAPwAAAD8AAAA/
        AAAAAAAAAACJiIg9AAAAPwAAAAAAAAAAAAAAAAAAAD8AAAAAAAAAAAAAAAAAAAA/AAAAAAAAAAAAAAAAAAAAPwAAAAAAAAAAAAAAAAAAAD8AAAAAAAAAAAAAAAAAAAA/
        AAAAAAAAAAAAAAAAAAAAPwAAAAAAAAAAAAAAAAAAAD8AAAAAAAAAAAAAAAAAAAA/AAAAAAAAAAAAAAAAAAAAPwAAAAAAAAAAAAAAAAAAAD8AAAAAAAAAAAAAAAAAAAA/
        AAAAAAAAAAAAAAAAAAAAPwAAAAAAAAAAAAAAAAAAAD8AAAAAAAAAAAAAAAAAAAA/AAAAAAAAAAAAAAAAAAAAPwAAAAAAAAAAAAAAAL70fT4AAAA/AAAAPwAAAD8AAAAA
        AAAAAImIiD0AAAA/AAAAAAAAAAAAAAAAAAAAPwAAAAAAAAAAAAAAAAAAAD8AAAAAAAAAAAAAAAAAAAA/AAAAAAAAAAAAAAAAAAAAPwAAAAAAAAAAAAAAAAAAAD8AAAAA
        AAAAAAAAAAAAAAA/AAAAAAAAAAAAAAAAAAAAPwAAAAAAAAAAAAAAAAAAAD8AAAAAAAAAAAAAAAAAAAA/AAAAAAAAAAAAAAAAAAAAPwAAAAAAAAAAAAAAAAAAAD8AAAAA
        AAAAAAAAAAAAAAA/AAAAAAAAAAAAAAAAAAAAPwAAAAAAAAAAAAAAAAAAAD8AAAAAAAAAAAAAAAAAAAA/AAAAAAAAAAAAAAAAvvR9PgAAAD8AAAA/AAAAPwAAAAAAAAAA
        iYiIPQAAAD8AAAAAAAAAAAAAAAAAAAA/AAAAAAAAAAAAAAAAAAAAPwAAAAAAAAAAAAAAAAAAAD8AAAAAAAAAAAAAAAAAAAA/AAAAAAAAAAAAAAAAAAAAPwAAAAAAAAAA
        AAAAAAAAAD8AAAAAAAAAAAAAAAAAAAA/AAAAAAAAAAAAAAAAAAAAPwAAAAAAAAAAAAAAAAAAAD8AAAAAAAAAAAAAAAAAAAA/AAAAAAAAAAAAAAAAAAAAPwAAAAAAAAAA
        AAAAAAAAAD8AAAAAAAAAAAAAAAAAAAA/AAAAAAAAAAAAAAAAAAAAPwAAAAAAAAAAAAAAAAAAAD8AAAAAAAAAAAAAAAAAAAAAmpmZPgAAAAAAAAAAAAAAAAAAgD8AAAAA
        mpmZPgAAAAAAAAAAAAAAAAAAgD8AAAAAmpmZPgAAAAAAAAAAAAAAAAAAgD8AAAAAmpmZPgAAAAAAAAAAAAAAAAAAgD8AAAAAmpmZPgAAAAAAAAAAAAAAAAAAgD8AAAAA
        mpmZPgAAAAAAAAAAAAAAAAAAgD8AAAAAAAAAAAAAAAAAAAAAAAAAAAAAAAAAAAAAAAAAAAAAAAAAAAAAAAAAAAAAAAAAAAAAAAAAAAAAAAAAAAAAAAAAAAAAAAAAAAAA
        AAAAAAAAAAAAAAAAAAAAAAAAAAAAAAAAAAAAAAAAAAAAAAAAAAAAAAAAAAAAAAAAAAAAAAAAAAAAAAAAAAAAAAAAAAAAAAAAAAAAAKuqqj3ZiZ09gShWPgAAgD8AAAAA
        v+eWPdmJHT0WszE/AAAAAAAAAACSdiw8AAAAAAAAAD8AAAAAAAAAAAAAAAAAAAAAAAAAPwAAAAAAAAAAAAAAAAAAAAAAAAAAAAAAAAAAAAAAAAAAAAAAAAAAAAAAAAAA
        AAAAAAAAAAAAAAAAAAAAAAAAAAAAAAAAAAAAAAAAAAAAAAAAAAAAAAAAAAAAAAAAAAAAAAAAAAAAAAAAAAAAAAAAAAAAAAAAAAAAAAAAAAAAAAAAAAAAAAAAAAAAAAAA
        AAAAAAAAAAAAAAAAAAAAAAAAAAAAAAAAAAAAAAAAAAAAAAAAAAAAAAAAAAAAAAAAAAAAAAAAAAAAAAAAAAAAAAAAAAAAAAAAAAAAAAAAAAAAAAAAAAAAAAAAAAAAAAAA
        AAAAAAAAAAAAAAAAAAAAAAAAAAAAAAAAAAAAAAAAAAAAAAAAAAAAAAAAAAAAAAAAAAAAAAAAAAAAAAAAAAAAAAAAAAAAAAAAAAAAAAAAAAAAAAAAAAAAAAAAAAAAAAAA
        AAAAAAAAAAAAAAAAAAAAAAAAAAAAAAAAAAAAAAAAAAAAAAAAAAAAAAAAAAAAAAAAAAAAAAAAAAAAAAAAAAAAAAAAAAAAAAAAAAAAAAAAAAAAAAAAAAAAPwAAAD8AAAA/
        AAAAPwAAAD8AAAA/AAAAPwAAAD8AAAAAAAAAAAAAAAAAAAAAAAAAAAAAAAAAAAAAAAAAAAAAAAAAAAAAAAAAAAAAAAAAAAAAAAAAAAAAAAAAAAAAAAAAAAAAAAAAAAAA
        AAAAAAAAAAAAAAAAAAAAAAAAAAAAAAAAAAAAAAAAAAAAAAAAAAAAAAAAAAAAAAAAAAAAAAAAAAAAAAAAAAAAAAAAAAAAAAAAAAAAAAAAAAAAAAAAAAAAAAAAAAAAAAAA
        AAAAAAAAAAAAAAAAAAAAAAAAAAAAAAAAAAAAAAAAAAAAAAAAAAAAAAAAAAAAAAAAAAAAAAAAAAAAAAAAAAAAAAAAAAAAAAAAAAAAAAAAAAAAAAAAAAAAAAAAAAAAAAAA
        AAAAAAAAAAAAAAAAAAAAAAAAAAAAAAAAAAAAAAAAAAAAAAAAAAAAAAAAAAAAAAAAAAAAAAAAAAAAAAAA
        Q2hpcFNpZGUAQ2hpcFNpZGUAEAAAAA==
      >
      PRESETNAME ChipSide
      FLOATPOS 36 32 641 529
      FXID {20356A84-5CFD-6E4A-AA26-2A8A49CE7A76}
      WAK 0
    >
  >
  <TRACK {7AC4452F-A8CC-2D45-AE3F-6BC0D8544244}
    NAME "41 Thailand"
    PEAKCOL 16576
    BEAT -1
    AUTOMODE 0
    VOLPAN 1 0 -1 -1 1
    MUTESOLO 1 0 0
    IPHASE 0
    ISBUS 0 0
    BUSCOMP 0 0
    SHOWINMIX 1 0.6667 0.5 1 0.5 0 0 0
    FREEMODE 0
    SEL 0
    REC 0 0 0 0 0 0 0
    VU 2
    TRACKHEIGHT 0 0
    INQ 0 0 0 0.5 100 0 0 100
    NCHAN 2
    FX 1
    TRACKID {7AC4452F-A8CC-2D45-AE3F-6BC0D8544244}
    PERF 0
    MIDIOUT -1
    MAINSEND 1 0
    <ITEM
      POSITION 0
      SNAPOFFS 0
      LENGTH 43.77506829387922
      LOOP 1
      ALLTAKES 0
      FADEIN 1 0 0 1 0 0
      FADEOUT 1 0 0 1 0 0
      MUTE 0
      SEL 0
      IGUID {F4842A03-1CE1-ED4B-8B9D-D26C39D98A50}
      IID 14
      NAME "41 Thailand.mp3"
      VOLPAN 1 0 1 -1
      SOFFS 1.16024295880331
      PLAYRATE 1.0486547162258 1 0 -1 0 0.0025
      CHANMODE 0
      GUID {50C34DE0-F9EE-404B-AF1C-FDEBB36B0610}
      <SOURCE MP3
        FILE "41 Thailand.mp3" 1
      >
    >
  >
  <EXTENSIONS
    <SWSAUTOCOLOR
      {00000000-0000-0000-0000-000000000000} 0 "" "" ""
    >
    <BR_CURSOR_POS 00
      0.00000000000000
    >
    <BR_CURSOR_POS 04
      0.00000000000000
    >
  >
>
