<REAPER_PROJECT 0.1 "4.77/OSX64" 1423877656
  RIPPLE 0
  GROUPOVERRIDE 0 0 0
  AUTOXFADE 0
  ENVATTACH 1
  MIXERUIFLAGS 11 52
  PEAKGAIN 1
  FEEDBACK 0
  PANLAW 1
  PROJOFFS 0 0
  MAXPROJLEN 0 600
  GRID 174206 8 1 8 1 0 0
  TIMEMODE 6 0 -1 24 2
  PANMODE 3
  CURSOR 2
  ZOOM 7.50976429287058 0 0
  VZOOMEX 12
  USE_REC_CFG 0
  RECMODE 1
  SMPTESYNC 0 23.976024 100 40 1000 300 0 0 1
  LOOP 1
  LOOPGRAN 0 4
  RECORD_PATH "" ""
  <RECORD_CFG
    ZXZhdxAA
  >
  <APPLYFX_CFG
  >
  RENDER_FILE ""
  RENDER_PATTERN ""
  RENDER_FMT 0 2 0
  RENDER_1X 0
  RENDER_RANGE 1 0 0
  RENDER_RESAMPLE 3 0 1
  RENDER_ADDTOPROJ 0
  RENDER_STEMS 0
  RENDER_DITHER 0
  TIMELOCKMODE 1
  TEMPOENVLOCKMODE 1
  ITEMMIX 1
  DEFPITCHMODE 589824
  TAKELANE 3
  SAMPLERATE 44100 0 0
  <RENDER_CFG
  >
  LOCK 1
  <METRONOME 6 2
    VOL 0.25 0.125
    FREQ 800 1600 1
    BEATLEN 4
    SAMPLES "" ""
  >
  GLOBAL_AUTO -1
  TEMPO 120 4 4
  PLAYRATE 1 0 0.25 4
  SELECTION 2 42
  SELECTION2 2 42
  MASTERAUTOMODE 0
  MASTERTRACKHEIGHT 0
  MASTERPEAKCOL 16576
  MASTERMUTESOLO 0
  MASTERTRACKVIEW 0 0.6667 0.5 0.5 -1 -1 -1
  MASTERHWOUT 0 0 1 0 0 0 0 -1
  MASTER_NCH 2 2
  MASTER_VOLUME 1 0 -1 -1 1
  MASTER_FX 1
  MASTER_SEL 0
  <MASTERPLAYSPEEDENV
    ACT 0
    VIS 0 1 1
    LANEHEIGHT 0 0
    ARM 0
    DEFSHAPE 0 -1 -1
  >
  <TEMPOENVEX
    ACT 0
    VIS 1 0 1
    LANEHEIGHT 0 0
    ARM 0
    DEFSHAPE 1 -1 -1
  >
  MARKER 1 0 "" 0 0 1
  <PROJBAY
  >
  <TRACK {F23F8223-271A-294D-A229-F474D58B7A97}
    NAME "vst Gladiator"
    PEAKCOL 27222112
    BEAT -1
    AUTOMODE 0
    VOLPAN 1 0 -1 -1 1
    MUTESOLO 1 0 0
    IPHASE 0
    ISBUS 0 0
    BUSCOMP 2 0
    SHOWINMIX 1 0.6667 0.698113 1 0.5 -1 -1 -1
    FREEMODE 0
    SEL 0
    REC 0 0 0 0 0 0 0
    VU 2
    TRACKHEIGHT 0 0
    INQ 0 0 0 0.5 100 0 0 100
    NCHAN 2
    FX 1
    TRACKID {F23F8223-271A-294D-A229-F474D58B7A97}
    PERF 0
    MIDIOUT -1
    MAINSEND 1 0
    <FXCHAIN
      SHOW 0
      LASTSEL 0
      DOCKED 0
      BYPASS 0 0 0
      <VST "VSTi: Gladiator (Tone2.com)" Gladiator.vst 0 ""
        TEcyVO5e7f4AAAAAAgAAAAEAAAAAAAAAAgAAAAAAAABaBAAAAQAAAAAAEABDY25LAAAAYEZ4Q2sAAAABVDJHTAAAAAEAAAEHSW5pdAAAAAAAAAAAAAAAAAAAAAAAAAAA
        AAAAAD3MzM08zMzNPDQ5WD24UfQ9edsjP4AAADvEm6Y9vnbJP4AAADvEm6YAAAAAPqZmZj49cKQ/gAAAPsUeuT8AAAA/AAAAAAAAAD1987Y90OVgPLxqfz9FHrgAAAAA
        P4AAADw0OVg9kWhzPvXCjztEm6Y9uFHoPr1wpD49cKQ/gAAAPwAAAD8D1ws/AAAAAAAAAAAAAAA/AAAAPwAAAD8AAAA+2ZmaPwAAAAAAAAA75WBCPbhR6wAAAAA+TbXE
        O0Sbpj9LhR4AAAAAAAAAAD7rhSA+lHrhPWFHsD7PXCg/HrhSPj1wpj8AAAA/AAAAAAAAAAAAAAA/AAAAAAAAAAAAAAA/gAAAP4AAAAAAAAA/EeuFPwAAAD8AAAA/AAAA
        PwAAAAAAAAA/AAAAPwAAAD8AAAAAAAAAPwAAAD8AAAA/AAAAAAAAADqDEm8/UKPXAAAAAD+AAAAAAAAAOoMSbz8AAAAAAAAAAAAAAAAAAAA/AAAAAAAAAD+AAAAAAAAA
        P4AAAAAAAAA/AAAAPwAAAD8AAAA/AAAAPwAAAD8AAAA/AAAAPwAAAD8AAAA/AAAAPwAAAD8R64Y8o9cKOoMSbzxEm6YAAAAAAAAAAAAAAAA8vGp/AAAAAAAAAAAAAAAA
        AAAAAAAAAAAAAAAAAAAAAAAAAAAAAAAAAAAAAAAAAAAAAAAAAAAAAAAAAAAAAAAAAAAAADwTdLwAAAAAPDQ5WAAAAAA8E3S8AAAAADw0OVgAAAAAPBN0vAAAAAA8NDlY
        AAAAADwTdLwAAAAAPDQ5WAAAAAA8ZWBCPYcrAjxlYEI7AxJvPYk3TDsDEm88tDlYPItDljyTdLw9VP30PReNUDzMzM0+gAAAP3LCNT8AAAA/Uae5PzCNPj8csI0AAAAA
        OwMSbzqDEm8AAAAAAAAAAAAAAAA/AAAAOoMSbztEm6Y/gAAAAAAAAD+AAAAAAAAAP4AAAAAAAAAAAAAAAAAAAAAAAAA/gAAAAAAAAD8AAAAAAAAAPwAAAD8FHrg/AAAA
        P4AAAD8AAAA/AAAAPwAAAD+AAAA/gAAAAAAAAAAAAAAAAAAAPwAAAD+AAAA/AAAAAAAAAD69cKQAAAAAAAAAAD+AAAA/gAAAPyPXCj+AAAAAAAAAAAAAAD+AAAA/AAAA
        AAAAAAAAAAAAAAAAAAAAAAAAAAAAAAAAAAAAAAAAAAAAAAAAAAAAAAAAAAAAAAAAPwAAAD8AAAA/AAAAPwAAAD8AAAA/AAAAAAAAAAAAAAA/gAAAAAAAAAAAAAAAAAAA
        AAAAAAAAAAAAAAAAAAAAAAAAAAAAAAAAAAAAAAAAAAAAAAAAAAAAAAAAAAAAAAAAAAAAAAAAAAAAAAAAAAAAAAAAAAAAAAAAAAAAAAAAAAAAAAAAAAAAAAAAAAAAAAAA
        AACqq6ytAAAQAAAA
      >
      FLOATPOS 500 379 987 799
      FXID {532372E3-5B0D-9345-A9C8-98A8EBAF9A7E}
      WAK 0
    >
    <ITEM
      POSITION 0
      SNAPOFFS 0
      LENGTH 41.5
      LOOP 1
      ALLTAKES 0
      FADEIN 1 0 0 1 0 0
      FADEOUT 1 0 0 1 0 0
      MUTE 0
      SEL 0
      YPOS 0 0.166667
      IGUID {90A2B138-F036-1C47-8553-28BF6234F297}
      IID 1
      NAME "Melody               - National_Anthems_-_Luxembourg.mid"
      VOLPAN 1 0 1 -1
      SOFFS 0 0
      PLAYRATE 1 1 0 -1 0 0.0025
      CHANMODE 0
      GUID {4145347F-A47A-3A49-930C-08EBEE6BB5A3}
      <SOURCE MIDI
        HASDATA 1 192 QN
        POOLEDEVTS {10D61D50-38F9-1F4A-A943-FF07C4C79DD1}
        <X 0 0
          /wNNZWxvZHkgICAgICAgICAgICAgIA==
        >
        <X 0 0
          /wEocCkgKGMpIFRoZSBTb2Z0d2FyZSBUb29sd29ya3M=
        >
        <X 0 0
          /wFBbnRoZW0gTmFtZTogT3VyIE1vdGhlcmxhbmQ=
        >
        <X 0 0
          /wFDb3VudHJ5OiBMVVhFTUJPVVJH
        >
        <X 0 0
          /wFNdWx0aU1lZGlhIFdpbmRvd3MgVmVyc2lvbg==
        >
        <X 0 0
          /wFSb2IgV2FsbGFjZSBNdXNpYw==
        >
        <X 0 0
          /wFkYXRlOjctMjMtOTE=
        >
        <X 0 0
          /wFlZGl0IGRhdGU6IDktNy05MQ==
        >
        <X 0 0
          /wFuZXcgIzogezYwMn0gOTc5LTYyMDE=
        >
        <X 0 0
          /wFNVUxUSU1FRElBIFdJTkRPV1MgVkVSU0lPTg==
        >
        E 576 90 46 64
        E 178 80 46 40
        E 14 90 46 64
        E 274 80 46 40
        E 14 90 4b 64
        E 82 80 4b 40
        E 14 90 4b 64
        E 178 80 4b 40
        E 14 90 43 64
        E 178 80 43 40
        E 14 90 46 64
        E 178 80 46 40
        E 14 90 44 64
        E 178 80 44 40
        E 14 90 44 64
        E 274 80 44 40
        E 14 90 44 64
        E 82 80 44 40
        E 14 90 44 64
        E 178 80 44 40
        E 14 90 46 64
        E 82 80 46 40
        E 14 90 48 64
        E 82 80 48 40
        E 14 90 46 64
        E 274 80 46 40
        E 14 90 44 64
        E 82 80 44 40
        E 14 90 43 64
        E 370 80 43 40
        E 206 90 46 64
        E 178 80 46 40
        E 14 90 46 64
        E 274 80 46 40
        E 14 90 4b 64
        E 82 80 4b 40
        E 14 90 4b 64
        E 274 80 4b 40
        E 14 90 4a 64
        E 82 80 4a 40
        E 14 90 48 64
        E 178 80 48 40
        E 14 90 48 64
        E 178 80 48 40
        E 14 90 4d 64
        E 274 80 4d 40
        E 14 90 4b 64
        E 82 80 4b 40
        E 14 90 4a 64
        E 178 80 4a 40
        E 14 90 46 64
        E 178 80 46 40
        E 14 90 4a 64
        E 274 80 4a 40
        E 14 90 48 64
        E 82 80 48 40
        E 14 90 46 64
        E 562 80 46 40
        E 14 90 41 64
        E 178 80 41 40
        E 14 90 41 64
        E 274 80 41 40
        E 14 90 43 64
        E 82 80 43 40
        E 14 90 44 64
        E 178 80 44 40
        E 14 90 46 64
        E 178 80 46 40
        E 14 90 48 64
        E 178 80 48 40
        E 14 90 48 64
        E 178 80 48 40
        E 14 90 46 64
        E 274 80 46 40
        E 14 90 44 64
        E 82 80 44 40
        E 14 90 43 64
        E 178 80 43 40
        E 14 90 46 64
        E 178 80 46 40
        E 14 90 46 64
        E 178 80 46 40
        E 14 90 4b 64
        E 178 80 4b 40
        E 14 90 4a 64
        E 562 80 4a 40
        E 14 90 46 64
        E 178 80 46 40
        E 14 90 46 64
        E 178 80 46 40
        E 14 90 48 64
        E 82 80 48 40
        E 14 90 4a 64
        E 82 80 4a 40
        E 14 90 4b 64
        E 178 80 4b 40
        E 14 90 4d 64
        E 178 80 4d 40
        E 14 90 4f 64
        E 274 80 4f 40
        E 14 90 4d 64
        E 82 80 4d 40
        E 14 90 4b 64
        E 178 80 4b 40
        E 14 90 48 64
        E 178 80 48 40
        E 14 90 46 64
        E 274 80 46 40
        E 14 90 43 64
        E 82 80 43 40
        E 14 90 46 64
        E 178 80 46 40
        E 14 90 44 64
        E 178 80 44 40
        E 14 90 43 64
        E 562 80 43 40
        E 14 90 46 64
        E 178 80 46 40
        E 14 90 46 64
        E 178 80 46 40
        E 14 90 48 64
        E 82 80 48 40
        E 14 90 4a 64
        E 82 80 4a 40
        E 14 90 4b 64
        E 178 80 4b 40
        E 14 90 4d 64
        E 178 80 4d 40
        E 14 90 4f 64
        E 274 80 4f 40
        E 14 90 4d 64
        E 82 80 4d 40
        E 14 90 4b 64
        E 178 80 4b 40
        E 14 90 48 64
        E 178 80 48 40
        E 14 90 46 64
        E 274 80 46 40
        E 14 90 4b 64
        E 82 80 4b 40
        E 14 90 4a 64
        E 178 80 4a 40
        E 14 90 4d 64
        E 178 80 4d 40
        E 14 90 4b 64
        E 562 80 4b 40
        E 14 b0 7b 00
        GUID {890104AB-DDFA-3D41-8024-A4777AFA8A92}
        IGNTEMPO 0 120 4 4
        SRCCOLOR 433
        VELLANE -1 86 6
        CFGEDITVIEW 6714.155269 100.13766 47 25 0 0 0 0 0
        KEYSNAP 0 3 102304056070 0 "Natural minor"
        TRACKSEL 226 0 0 ""
        EVTFILTER 0 -1 -1 -1 -1 0 0 0 0 -1 -1 -1 -1 0 -1 0 -1 -1
        CFGEDIT 1 0 0 0 0 0 1 0 1 1 1 0.25 589 421 1837 1120 0 0 2 3 0 0 0 0 0 -1 0 0 1 64
      >
    >
  >
  <TRACK {A26B8C2D-9EE6-0440-AA6B-121F89FB50DD}
    NAME "16th pulse (mix w/ send?)"
    PEAKCOL 16576
    BEAT -1
    AUTOMODE 0
    VOLPAN 1 0 -1 -1 1
    MUTESOLO 0 0 0
    IPHASE 0
    ISBUS 0 0
    BUSCOMP 0 0
    SHOWINMIX 1 0.6667 0.698113 1 0.5 -1 -1 -1
    FREEMODE 0
    SEL 0
    REC 0 0 0 0 0 0 0
    VU 2
    TRACKHEIGHT 0 0
    INQ 0 0 0 0.5 100 0 0 100
    NCHAN 4
    FX 1
    TRACKID {A26B8C2D-9EE6-0440-AA6B-121F89FB50DD}
    PERF 0
    MIDIOUT -1
    MAINSEND 0 0
    <FXCHAIN
      WNDRECT 36 359 724 387
      SHOW 0
      LASTSEL 0
      DOCKED 0
      BYPASS 0 0 0
      <VST "VSTi: chipsounds (Plogue Art et Technologie, Inc)" chipsounds.vst 0 ""
        T0dMUO5e7f4AAAAABAAAAAEAAAAAAAAAAgAAAAAAAAAEAAAAAAAAAAgAAAAAAAAAJAMAAAEAAAAAABAAQ0VHUNMTAAB4nO1YXW+bMBR976+weNoeSmzzLSWp2qSZIi1r
        NLLnyiFuimYgA5O1+/UzJjTQpOB23aSp9Uvs6+N7fe4Fc+L+2V3EwJamWZjEAw3pUANnw5P+eRoSn2xpbcqGWBueANH6PuU8jNcZ+JETFvJ7MauBNUuWhM0TJoYG1kDG
        U0oiASuHEbnzpeWcsSSYXQw0CwnzbDqeXuV8lqyo9EJynkSEi5A+S/hAE/vJAjFjWXbRI4wIGwKngBax9SxgO/OIxpymA82G1VYWeSyjQx3KpoFetX/hGoQr6T0mES1c
        6mCepxSMbsNNz5+Oe7blIvDhy8IffdTAksTfpwKPIPQ0ENySOKZsoJ2KDW8kYVMD/CDcZnmdknhNC+CDkQtTtkkyKqNHOS95Zz+vGckEYWeXZLnRGQnjaqNbwnIqS9Rk
        0wSiB+AB7SYQqwINVaCpCrRUgbYq0FEFuqpATxWIoDJSuTZIuThIuTpIuTyoqz5zkpJI6SHaI7ui75H1WrqW1YJspN702qBOPffIaI1vNqCtXusPKHJboc0nrw3q1r0a
        rblyPWWoV08W8tqgyNzXFeHj9VqQdE357vQMkkifs2SdU734cOifJ1d6ntEU1s4yuWqUZ+J4HxNOAL/fiJUYG3Zx+oW/xMAsclR9b0Q8Gq9CUnZXYonoVG1S/mD4uq1J
        sVdyfC5p9JZIfxXbpan47vk0KyjoGaebt1L2RRqu1zT1hRShcUDTTtrIwciraFtOjTY+RhvtWO9aOXZk3xg5E69BYgSNyV9MRL9XiKbH+gm9ln7Ce/2EXiCgYE1A2e8C
        6l1A/S8CqskI2bajIrU8aMk/T91SCzumDe1uqXX8pXhCalmtUKernk+oMsts1U+NOrVrvXoCDKd1A/VKWe2ysOtdepGAU5FadQ23zy3urBjEHeV913BvXcP9mYJBED1X
        wsijwxFZmFweSpgyNY5x0TBMhLApsO4BVFjHxzxA3PTwL6XR5c0NDfjhBdN5tAyLFD/WQtWV1Kdv02oBCXi4pdPy/gtV48v9fRhlIgRdLchSzgsX/V51YTc8+Q17esX+
        AAAQAAAA
      >
      FLOATPOS 409 269 871 509
      FXID {DC79668B-30D1-964C-A162-F245DBE294B0}
      WAK 0
      BYPASS 1 0 0
      <JS Delay/time_adjustment ""
        -10.000000 0.000000 -120.000000 0.000000 - - - - - - - - - - - - - - - - - - - - - - - - - - - - - - - - - - - - - - - - - - - - - - - - - - - - - - - - - - - - 
      >
      FLOATPOS 1254 834 554 157
      FXID {40721658-5454-1743-9C6A-517A806DB8F9}
      WAK 0
    >
    <ITEM
      POSITION 0
      SNAPOFFS 0
      LENGTH 41.5
      LOOP 1
      ALLTAKES 0
      FADEIN 1 0 0 1 0 0
      FADEOUT 1 0 0 1 0 0
      MUTE 0
      SEL 1
      YPOS 0.833333 0.166667
      IGUID {E6BE63F2-C782-5F4E-ACAF-B30D453442F6}
      IID 6
      NAME "lh                   - National_Anthems_-_Luxembourg.mid"
      VOLPAN 1 0 1 -1
      SOFFS 0 0
      PLAYRATE 1 1 0 -1 0 0.0025
      CHANMODE 0
      GUID {AD977D88-3569-CA4A-A510-53EA4EDDA008}
      <SOURCE MIDI
        HASDATA 1 192 QN
        POOLEDEVTS {D4D93FBC-6D3F-2C42-9645-72EBE3AFA75C}
        <X 0 0
          /wNsaCAgICAgICAgICAgICAgICAgIA==
        >
        E 576 9d 33 64
        E 0 9d 37 64
        E 0 9d 3a 64
        E 178 8d 33 40
        E 0 8d 37 40
        E 0 8d 3a 40
        E 14 9d 33 64
        E 0 9d 3a 64
        E 0 9d 37 64
        E 274 8d 33 40
        E 0 8d 3a 40
        E 0 8d 37 40
        E 14 9d 33 64
        E 0 9d 37 64
        E 0 9d 3a 64
        E 82 8d 33 40
        E 0 8d 37 40
        E 0 8d 3a 40
        E 14 9d 3a 64
        E 0 9d 37 64
        E 0 9d 33 64
        E 178 8d 3a 40
        E 0 8d 37 40
        E 0 8d 33 40
        E 14 9d 33 64
        E 0 9d 3a 64
        E 0 9d 37 64
        E 178 8d 33 40
        E 0 8d 3a 40
        E 0 8d 37 40
        E 14 9d 3c 64
        E 0 9d 30 64
        E 178 8d 3c 40
        E 0 8d 30 40
        E 14 9d 30 64
        E 0 9d 3c 64
        E 178 8d 30 40
        E 0 8d 3c 40
        E 14 9d 30 64
        E 0 9d 3c 64
        E 274 8d 30 40
        E 0 8d 3c 40
        E 14 9d 35 64
        E 0 9d 38 64
        E 82 8d 35 40
        E 0 8d 38 40
        E 14 9d 38 64
        E 0 9d 35 64
        E 178 8d 38 40
        E 0 8d 35 40
        E 14 9d 35 64
        E 0 9d 38 64
        E 178 8d 35 40
        E 0 8d 38 40
        E 14 9d 2e 64
        E 0 9d 3a 64
        E 0 9d 35 64
        E 274 8d 2e 40
        E 0 8d 3a 40
        E 0 8d 35 40
        E 14 9d 2e 64
        E 0 9d 3a 64
        E 82 8d 2e 40
        E 0 8d 3a 40
        E 14 9d 3a 64
        E 0 9d 33 64
        E 370 8d 3a 40
        E 0 8d 33 40
        E 206 9d 33 64
        E 0 9d 3a 64
        E 0 9d 37 64
        E 178 8d 33 40
        E 0 8d 3a 40
        E 0 8d 37 40
        E 14 9d 3a 64
        E 0 9d 37 64
        E 0 9d 33 64
        E 274 8d 3a 40
        E 0 8d 37 40
        E 0 8d 33 40
        E 14 9d 3a 64
        E 0 9d 37 64
        E 0 9d 33 64
        E 82 8d 3a 40
        E 0 8d 37 40
        E 0 8d 33 40
        E 14 9d 33 64
        E 0 9d 3a 64
        E 0 9d 37 64
        E 178 8d 33 40
        E 0 8d 3a 40
        E 0 8d 37 40
        E 14 9d 33 64
        E 0 9d 3a 64
        E 0 9d 37 64
        E 178 8d 33 40
        E 0 8d 3a 40
        E 0 8d 37 40
        E 14 9d 39 64
        E 0 9d 35 64
        E 178 8d 39 40
        E 0 8d 35 40
        E 14 9d 33 64
        E 0 9d 39 64
        E 178 8d 33 40
        E 0 8d 39 40
        E 14 9d 3a 64
        E 0 9d 35 64
        E 0 9d 32 64
        E 274 8d 3a 40
        E 0 8d 35 40
        E 0 8d 32 40
        E 14 9d 33 64
        E 0 9d 37 64
        E 0 9d 3c 64
        E 82 8d 33 40
        E 0 8d 37 40
        E 0 8d 3c 40
        E 14 9d 3e 64
        E 0 9d 3a 64
        E 0 9d 35 64
        E 178 8d 3e 40
        E 0 8d 3a 40
        E 0 8d 35 40
        E 14 9d 3a 64
        E 0 9d 35 64
        E 0 9d 3e 64
        E 178 8d 3a 40
        E 0 8d 35 40
        E 0 8d 3e 40
        E 14 9d 3f 64
        E 0 9d 35 64
        E 274 8d 3f 40
        E 0 8d 35 40
        E 14 9d 35 64
        E 0 9d 3f 64
        E 82 8d 35 40
        E 0 8d 3f 40
        E 14 9d 2e 64
        E 0 9d 35 64
        E 0 9d 3a 64
        E 562 8d 2e 40
        E 0 8d 35 40
        E 0 8d 3a 40
        E 206 9d 2e 64
        E 82 8d 2e 40
        E 14 9d 3a 64
        E 82 8d 3a 40
        E 14 9d 2e 64
        E 82 8d 2e 40
        E 14 9d 3a 64
        E 82 8d 3a 40
        E 14 9d 2e 64
        E 82 8d 2e 40
        E 14 9d 3a 64
        E 82 8d 3a 40
        E 14 9d 2e 64
        E 82 8d 2e 40
        E 14 9d 3a 64
        E 82 8d 3a 40
        E 14 9d 2e 64
        E 82 8d 2e 40
        E 14 9d 3a 64
        E 82 8d 3a 40
        E 14 9d 2e 64
        E 82 8d 2e 40
        E 14 9d 3a 64
        E 82 8d 3a 40
        E 14 9d 30 64
        E 82 8d 30 40
        E 14 9d 3a 64
        E 82 8d 3a 40
        E 14 9d 32 64
        E 82 8d 32 40
        E 14 9d 3a 64
        E 82 8d 3a 40
        E 14 9d 33 64
        E 82 8d 33 40
        E 14 9d 3a 64
        E 82 8d 3a 40
        E 14 9d 33 64
        E 82 8d 33 40
        E 14 9d 3a 64
        E 82 8d 3a 40
        E 14 9d 37 64
        E 82 8d 37 40
        E 14 9d 3a 64
        E 82 8d 3a 40
        E 14 9d 33 64
        E 82 8d 33 40
        E 14 9d 3a 64
        E 82 8d 3a 40
        E 14 9d 2e 64
        E 0 9d 3a 64
        E 130 8d 2e 40
        E 0 8d 3a 40
        E 14 9d 2e 64
        E 0 9d 3a 64
        E 34 8d 2e 40
        E 0 8d 3a 40
        E 14 9d 3c 64
        E 0 9d 30 64
        E 82 8d 3c 40
        E 0 8d 30 40
        E 14 9d 3a 64
        E 0 9d 2e 64
        E 82 8d 3a 40
        E 0 8d 2e 40
        E 14 9d 39 64
        E 0 9d 2d 64
        E 82 8d 39 40
        E 0 8d 2d 40
        E 14 9d 38 64
        E 0 9d 2c 64
        E 82 8d 38 40
        E 0 8d 2c 40
        E 14 9d 37 64
        E 0 9d 2b 64
        E 82 8d 37 40
        E 0 8d 2b 40
        E 14 9d 35 64
        E 0 9d 29 64
        E 82 8d 35 40
        E 0 8d 29 40
        E 14 9d 27 64
        E 0 9d 33 64
        E 82 8d 27 40
        E 0 8d 33 40
        E 14 9d 3a 64
        E 0 9d 37 64
        E 82 8d 3a 40
        E 0 8d 37 40
        E 14 9d 38 64
        E 0 9d 3c 64
        E 82 8d 3c 40
        E 14 9d 3e 64
        E 0 9d 3a 64
        E 82 8d 38 40
        E 0 8d 3e 40
        E 0 8d 3a 40
        E 14 9d 33 64
        E 82 8d 33 40
        E 14 9d 3a 64
        E 0 9d 3f 64
        E 0 9d 37 64
        E 82 8d 3a 40
        E 0 8d 3f 40
        E 0 8d 37 40
        E 14 9d 2e 64
        E 82 8d 2e 40
        E 14 9d 3e 64
        E 0 9d 38 64
        E 0 9d 3a 64
        E 82 8d 3e 40
        E 0 8d 38 40
        E 0 8d 3a 40
        E 14 9d 33 64
        E 82 8d 33 40
        E 14 9d 3a 64
        E 0 9d 37 64
        E 0 9d 3f 64
        E 82 8d 3a 40
        E 0 8d 37 40
        E 0 8d 3f 40
        E 14 9d 3a 64
        E 0 9d 3f 64
        E 0 9d 37 64
        E 82 8d 3a 40
        E 0 8d 3f 40
        E 0 8d 37 40
        E 14 9d 3a 64
        E 0 9d 37 64
        E 0 9d 3f 64
        E 82 8d 3a 40
        E 0 8d 37 40
        E 0 8d 3f 40
        E 14 9d 33 64
        E 82 8d 33 40
        E 14 9d 3a 64
        E 0 9d 3f 64
        E 0 9d 37 64
        E 82 8d 3a 40
        E 0 8d 3f 40
        E 0 8d 37 40
        E 14 9d 2c 64
        E 82 8d 2c 40
        E 14 9d 33 64
        E 0 9d 30 64
        E 82 8d 33 40
        E 0 8d 30 40
        E 14 9d 2e 64
        E 82 8d 2e 40
        E 14 9d 33 64
        E 0 9d 37 64
        E 82 8d 33 40
        E 0 8d 37 40
        E 14 9d 33 64
        E 0 9d 37 64
        E 82 8d 33 40
        E 0 8d 37 40
        E 14 9d 33 64
        E 0 9d 37 64
        E 82 8d 33 40
        E 0 8d 37 40
        E 14 9d 2e 64
        E 82 8d 2e 40
        E 14 9d 35 64
        E 0 9d 38 64
        E 82 8d 35 40
        E 0 8d 38 40
        E 14 9d 2e 64
        E 82 8d 2e 40
        E 14 9d 38 64
        E 0 9d 35 64
        E 82 8d 38 40
        E 0 8d 35 40
        E 14 9d 2f 64
        E 82 8d 2f 40
        E 14 9d 35 64
        E 0 9d 32 64
        E 0 9d 37 64
        E 82 8d 35 40
        E 0 8d 32 40
        E 0 8d 37 40
        E 14 9d 35 64
        E 0 9d 32 64
        E 0 9d 37 64
        E 82 8d 35 40
        E 0 8d 32 40
        E 0 8d 37 40
        E 14 9d 35 64
        E 0 9d 32 64
        E 0 9d 37 64
        E 82 8d 35 40
        E 0 8d 32 40
        E 0 8d 37 40
        E 14 9d 30 64
        E 82 8d 30 40
        E 14 9d 33 64
        E 0 9d 37 64
        E 82 8d 33 40
        E 0 8d 37 40
        E 14 9d 32 64
        E 82 8d 32 40
        E 14 9d 38 64
        E 0 9d 3a 64
        E 0 9d 35 64
        E 82 8d 38 40
        E 0 8d 3a 40
        E 0 8d 35 40
        E 14 9d 33 64
        E 82 8d 33 40
        E 14 9d 3a 64
        E 0 9d 37 64
        E 82 8d 3a 40
        E 0 8d 37 40
        E 14 9d 3c 64
        E 0 9d 38 64
        E 82 8d 3c 40
        E 0 8d 38 40
        E 14 9d 3a 64
        E 0 9d 3e 64
        E 82 8d 3e 40
        E 14 9d 33 64
        E 82 8d 3a 40
        E 0 8d 33 40
        E 14 9d 3f 64
        E 0 9d 3a 64
        E 0 9d 37 64
        E 82 8d 3f 40
        E 0 8d 3a 40
        E 0 8d 37 40
        E 14 9d 2c 64
        E 82 8d 2c 40
        E 14 9d 38 64
        E 82 8d 38 40
        E 14 9d 2b 64
        E 82 8d 2b 40
        E 14 9d 32 64
        E 82 8d 32 40
        E 14 9d 37 64
        E 82 8d 37 40
        E 14 9d 2f 64
        E 82 8d 2f 40
        E 14 9d 30 64
        E 82 8d 30 40
        E 14 9d 33 64
        E 0 9d 37 64
        E 82 8d 33 40
        E 0 8d 37 40
        E 14 9d 2c 64
        E 82 8d 2c 40
        E 14 9d 33 64
        E 0 9d 38 64
        E 82 8d 33 40
        E 0 8d 38 40
        E 14 9d 2e 64
        E 82 8d 2e 40
        E 14 9d 33 64
        E 82 8d 33 40
        E 14 9d 37 64
        E 82 8d 37 40
        E 14 9d 3a 64
        E 82 8d 3a 40
        E 14 9d 2e 64
        E 82 8d 2e 40
        E 14 9d 3a 64
        E 82 8d 3a 40
        E 14 9d 38 64
        E 82 8d 38 40
        E 14 9d 35 64
        E 82 8d 35 40
        E 14 9d 33 64
        E 82 8d 33 40
        E 14 9d 2e 64
        E 82 8d 2e 40
        E 14 9d 2b 64
        E 82 8d 2b 40
        E 14 9d 2e 64
        E 82 8d 2e 40
        E 14 9d 27 64
        E 178 8d 27 40
        E 14 b0 7b 00
        GUID {D7D1A523-16ED-CE4C-BA31-F45CD6120C01}
        IGNTEMPO 0 120 4 4
        SRCCOLOR 438
        VELLANE -1 86 6
      >
    >
  >
  <TRACK {D84D9A18-9EB2-B147-888B-8DACBA3BBEF6}
    NAME "Bass Return (global)"
    PEAKCOL 0
    BEAT -1
    AUTOMODE 0
    VOLPAN 1 0 -1 -1 1
    MUTESOLO 0 0 0
    IPHASE 0
    ISBUS 0 0
    BUSCOMP 0 0
    SHOWINMIX 1 0.6667 0.698113 1 0.5 -1 -1 -1
    FREEMODE 0
    SEL 1
    REC 0 0 0 0 0 0 0
    VU 2
    TRACKHEIGHT 0 0
    INQ 0 0 0 0.5 100 0 0 100
    NCHAN 2
    FX 1
    TRACKID {D84D9A18-9EB2-B147-888B-8DACBA3BBEF6}
    PERF 0
    AUXRECV 0 0 1 0 1 0 0 0 0 -1 0 -1 ''
    AUXRECV 4 0 1 0 0 0 0 4 0 -1 0 -1 ''
    MIDIOUT -1
    MAINSEND 1 0
    <FXCHAIN
      SHOW 0
      LASTSEL 0
      DOCKED 0
      BYPASS 0 0 0
      <VST "VST: 8-Bit Shaper (Xfer Records)" 8BitShaper.vst 0 ""
        clN1RO5e7f4CAAAAAQAAAAAAAAACAAAAAAAAAAIAAAABAAAAAAAAAAIAAAAAAAAANAIAAAEAAAAAABAAZmaGP20MlT7dQQw/AAAAPyoAAAAAAIA/AAAAAAAAQEAXAAAA
        MAAAABkAAAAaAAAAGgAAABoAAAAbAAAAGwAAABwAAAAcAAAAHAAAAB0AAAAdAAAAHgAAAB4AAAAfAAAAHwAAACAAAAAgAAAAIAAAACEAAAAhAAAAIQAAACIAAAAiAAAA
        IgAAACMAAAAjAAAAIwAAACQAAAAkAAAAJAAAACUAAAAlAAAAKAAAACgAAAApAAAAKQAAACoAAAA1AAAAKgAAACoAAAA2AAAAKgAAACoAAAAqAAAAKgAAACoAAAAqAAAA
        KgAAACsAAAArAAAAOQAAAC0AAAA0AAAAOgAAAC0AAAAtAAAAPAAAAC4AAAAuAAAALwAAADAAAAAwAAAAMQAAADEAAAAxAAAAMgAAADMAAAAzAAAAMwAAADcAAAA3AAAA
        NwAAADgAAAA4AAAAOAAAADkAAAA5AAAAOQAAADoAAAA6AAAAOgAAADoAAAA6AAAAOwAAADsAAAA7AAAAPAAAADsAAAA7AAAAOwAAADwAAAA8AAAAPAAAADwAAAA9AAAA
        PQAAAD0AAAA9AAAAPQAAAD4AAAA+AAAAPwAAAEkAAABAAAAAQAAAAEgAAABAAAAAQQAAAEIAAABCAAAAQgAAAEMAAABDAAAAQwAAAEQAAABEAAAARQAAAE0AAABGAAAA
        RwAAAEYAAABHAAAASAAAAEgAAABJAAAATwAAAAAAgD+rqqo+q6qqPh0Fwz6OAm0/AEluaXQgMQAQAAAA
      >
      FLOATPOS 32 39 278 389
      FXID {19A94086-1737-784E-A733-2897FDD09534}
      WAK 0
    >
  >
  <TRACK {2E103EAF-0FA2-9942-87A1-30E1663A9F4B}
    NAME "--- 0 --- 0 --- 0 "
    PEAKCOL 16576
    BEAT -1
    AUTOMODE 0
    VOLPAN 1 0 -1 -1 1
    MUTESOLO 0 0 0
    IPHASE 0
    ISBUS 0 0
    BUSCOMP 0 0
    SHOWINMIX 1 0.6667 0.565574 0 0.5 -1 -1 -1
    FREEMODE 0
    SEL 0
    REC 0 0 0 0 0 0 0
    VU 2
    TRACKHEIGHT 0 0
    INQ 0 0 0 0.5 100 0 0 100
    NCHAN 2
    FX 1
    TRACKID {2E103EAF-0FA2-9942-87A1-30E1663A9F4B}
    PERF 0
    LAYOUTS "" Separator
    MIDIOUT -1
    MAINSEND 1 0
  >
  <TRACK {D4259754-8A5D-ED42-9EF0-7FA3B62785A4}
    NAME "vst Plogue"
    PEAKCOL 26779488
    BEAT -1
    AUTOMODE 0
    VOLPAN 1 0 -1 -1 1
    MUTESOLO 0 0 0
    IPHASE 0
    ISBUS 0 0
    BUSCOMP 0 0
    SHOWINMIX 1 0.6667 0.698113 1 0.5 -1 -1 -1
    FREEMODE 0
    SEL 0
    REC 0 0 0 1 0 0 0
    VU 2
    TRACKHEIGHT 0 0
    INQ 0 0 0 0.5 100 0 0 100
    NCHAN 8
    FX 1
    TRACKID {D4259754-8A5D-ED42-9EF0-7FA3B62785A4}
    PERF 0
    AUXRECV 1 0 1 0 0 0 0 0 4 -1 0 -1 ''
    AUXRECV 6 0 1 0 0 0 0 0 0 -1 32 -1 ''
    AUXRECV 6 0 1 0 0 0 0 0 0 -1 96 -1 ''
    AUXRECV 7 0 1 0 0 0 0 0 0 -1 64 -1 ''
    AUXRECV 7 0 1 0 0 0 0 0 0 -1 128 -1 ''
    AUXRECV 8 0 1 0 0 0 0 0 0 -1 160 -1 ''
    MIDIOUT -1
    MAINSEND 0 0
    <FXCHAIN
      WNDRECT 532 389 724 387
      SHOW 0
      LASTSEL 0
      DOCKED 0
      BYPASS 0 0 0
      <VST "VSTi: chipsounds (Multi) (Plogue Art et Technologie, Inc) (32 out)" "chipsounds Multi.vst" 0 ""
        T0dNUO5e7f4AAAAAIAAAAAEAAAAAAAAAAgAAAAAAAAAEAAAAAAAAAAgAAAAAAAAAEAAAAAAAAAAgAAAAAAAAAEAAAAAAAAAAgAAAAAAAAAAAAQAAAAAAAAACAAAAAAAA
        AAQAAAAAAAAACAAAAAAAAAAQAAAAAAAAACAAAAAAAAAAQAAAAAAAAACAAAAAAAAAAAABAAAAAAAAAAIAAAAAAAAABAAAAAAAAAAIAAAAAAAAABAAAAAAAAAAIAAAAAAA
        AABAAAAAAAAAAIAAAAAAAAAAAAEAAAAAAAAAAgAAAAAAAAAEAAAAAAAAAAgAAAAAAAAAEAAAAAAAAAAgAAAAAAAAAEAAAAAAAAAAgAAAAADqBQAAAQAAAAAAEABDRUdQ
        3D4AAHic7ZtBc6M2FMfv+RQMp/awRhIIzIyTHduJu5lpupnaOz1mFFvr0GJwkcgm/fQVYGxkYyHWyXa3gUNi5D9PenpC/KRnBu+fVqHxSBMWxNG5CXvANN5fnA2GSUCm
        5JFWvnIBMi/ODHEMppTzIFoy4++UhAF/Ft+axjKM70l4G4fi1EamwXhCyUrIitMVeZrmJcMwjOc3o3MTQ1F8c315/THlN/GC5lZIyuMV4aLKaRjzc1O0h80zrZd9ICER
        RdB4Z9Cs6h6bh5viMY04Tc5NF5QtmaVRXjnogfwwDatsvrBsBIvceERWNDPZM27ThBrjh2BtTa8vLRf3ofHTb7Pp+GfTuCfRX9dCDwHwTWP+QKKIhvnl69xd6JoGP6hu
        fX+XkGgpzL+D20Iuitg6ZjS/fJXy4gP7chcSJvx1Nn2cN/SGBFHZ0EcSpjSPkOyNLIRb4YHbshDpCm1doaMrxLpCV1fo6Qr7ukJfVwiBtlI7NlA7OFA7OlA7PLApPrck
        ISutQbRTNtW+U1Zj2cdYoZS63vFVUq/a99BW1u9IUqXV6gCFfaVUHnkqab9q1Vb2Vd/XlvrVzoK+SgqdXVwhqo/XjCRLyjez5zxe9W7DeJnSXvbc6P06+dhLGU1AZS7L
        rxqnTMzul4QTgz+vxZUI2a4IDQv+ESdO1kfl40bUR6NFQIqPC3GJ+FAek+IfAi97yC5ahY9tnYZvxOlZEiyXNJmKBzGN5jRpdBt6CPql29iruI3q3IZ77czPvUl22GNv
        4ktfjoE9+a86Io/+78IBmggAmFKWOdVjnK7/R+N/YGXQtM9P8DR+gnX81O/4qeOnN8JPskfQdT0d0vIBzpdOzaSFPMcF7guTFla6JJEWdpRMVG2q7SmtNg3lr8InHdCp
        EtSuF1BTYMXk3DDldATVEdQpBAUBbItQ+Z3riV6YXB0iVNE1nj2SCiYCrDJt/0AqSi/rLAAkW3hlNKsHE3QamDhbMNlxiXMal4AGLml6qLTnkgbS6bhE3eEdl7TlEhvb
        uG8fU1Y9gsoNkKpHnpIgJI+gyiOv4bY4tquk3NSp9H2jVWmrKMMSeFTaoq3V4ewoEc5rGs+1CNfUAE+KqqOUVsPqqttajautHCsSGGKkkko7YD5S9utXg6HdqG2aoKta
        /V1TH7gt7OqPMB/4Le6cFs5BKHlnK0MnYlCdknKtStzUbx17d+x9EnsjW5O9J5sD5Mvbgr0BQqPRgSeHRH6ZszcAtexdS+94LNsdFeztedJKYFKUjr399QE4LK3XTo4w
        fWtOt0/jdFRyuvPN8q/anN6A393+oVLYcfoPln9tMNrlX6ud1eVfa4+OYL6//OsWYLr86/eXf3VOwye7Bp9wh08dPr0RfPoB06+NG3Jd+rVLv24a2wGU0ulvlX7dEtTb
        Sb96Wy5BPaPoR+MP8kg/x8mKWR9IsjCmz9H8KJjgF/th/QvRyMv/GKyBbzoaeds0okxPSR4pf/cudZNgEeT7R6VV77E67ymhizqTJg0SJWRIyUz1HhHSByKkn5J6pRSp
        FC1XSWTSAHSVVrF+A+TUs+3bRzEX2tXGukp8fD16q+ZIm35u+Ho50n4LrX6O1If6gRO9qj8ihbjp4XI0RWqrVx8IND07OpjuYPoUmEYYt4Tp4vlQbEeCkTfRyaeWR5nL
        dMVCHuMhljOcldKRhw/ttrPg1mR6W1qAp1rA3qkWnMsTLdSXIjSszVeD/cy07gLk6vNnOueHr/cOV/dBNiz3Fxwbq4NfPl2XF5A5Dx7pdfHyMSzPr3YvI9NQVEEXM3Kf
        jdTqjJlQRvkNjVIjYOXlPG+q+lYxOH0Skpn4myZ0YXwIOBOLHMIfzk1ruF6HwTx/IZpZhQWxTgrWLE6jhSjJK2WWwr61WYANkzVdLoOYWVJNPSLmq/Xe5H/gCmrlyor8
        6fGHrQ+fxETILCZCES1Dkm3UW3fzhBJOrSlZrUPKrKvyG2MSZOdFBeOdo2UdLLsE84f9dg8sEcSLs4FVvrl+cfYv6icCGgAAEAAAAA==
      >
      FLOATPOS 129 268 871 509
      FXID {C804D762-B992-A540-81BF-3D6C0F7FF19B}
      WAK 0
    >
  >
  <TRACK {33AD5A6D-2EE0-8449-9F1A-2F36FB5D6DDB}
    NAME "midi "
    PEAKCOL 16576
    BEAT -1
    AUTOMODE 0
    VOLPAN 1 0 -1 -1 1
    MUTESOLO 0 0 0
    IPHASE 0
    ISBUS 1 1
    BUSCOMP 0 0
    SHOWINMIX 1 0.6667 0.698113 1 0.5 -1 -1 -1
    FREEMODE 0
    SEL 0
    REC 0 0 0 0 0 0 0
    VU 2
    TRACKHEIGHT 0 0
    INQ 0 0 0 0.5 100 0 0 100
    NCHAN 2
    FX 1
    TRACKID {33AD5A6D-2EE0-8449-9F1A-2F36FB5D6DDB}
    PERF 0
    MIDIOUT -1
    MAINSEND 1 0
  >
  <TRACK {F21395F9-F67E-E94E-A650-3CA2FF3EBDD0}
    NAME "ch1,3 (send)"
    PEAKCOL 16576
    BEAT -1
    AUTOMODE 0
    VOLPAN 1 0 -1 -1 1
    MUTESOLO 0 0 0
    IPHASE 0
    ISBUS 0 0
    BUSCOMP 0 0
    SHOWINMIX 1 0.6667 0.698113 1 0.5 -1 -1 -1
    FREEMODE 0
    SEL 0
    REC 0 0 0 0 0 0 0
    VU 2
    MIDICTL -1 1
    TRACKHEIGHT 0 0
    INQ 0 0 0 0.5 100 0 0 100
    NCHAN 2
    FX 1
    TRACKID {F21395F9-F67E-E94E-A650-3CA2FF3EBDD0}
    PERF 0
    MIDIOUT -1
    MAINSEND 1 0
    <FXCHAIN
      SHOW 0
      LASTSEL 0
      DOCKED 0
    >
    <ITEM
      POSITION 0
      SNAPOFFS 0
      LENGTH 41.5
      LOOP 1
      ALLTAKES 0
      FADEIN 1 0 0 1 0 0
      FADEOUT 1 0 0 1 0 0
      MUTE 0
      SEL 0
      YPOS 0 0.166667
      IGUID {E84A2DC6-AD29-5D45-B616-C7000AD6FDE9}
      IID 1
      NAME "Melody               - National_Anthems_-_Luxembourg.mid"
      VOLPAN 1 0 1 -1
      SOFFS 0 0
      PLAYRATE 1 1 0 -1 0 0.0025
      CHANMODE 0
      GUID {2381B72B-4E2D-7743-B3D1-887C9F97A44D}
      <SOURCE MIDI
        HASDATA 1 192 QN
        POOLEDEVTS {5CBE0A63-64D8-EE45-B600-D3F3A0C041E5}
        <X 0 0
          /wNNZWxvZHkgICAgICAgICAgICAgIA==
        >
        <X 0 0
          /wEocCkgKGMpIFRoZSBTb2Z0d2FyZSBUb29sd29ya3M=
        >
        <X 0 0
          /wFBbnRoZW0gTmFtZTogT3VyIE1vdGhlcmxhbmQ=
        >
        <X 0 0
          /wFDb3VudHJ5OiBMVVhFTUJPVVJH
        >
        <X 0 0
          /wFNdWx0aU1lZGlhIFdpbmRvd3MgVmVyc2lvbg==
        >
        <X 0 0
          /wFSb2IgV2FsbGFjZSBNdXNpYw==
        >
        <X 0 0
          /wFkYXRlOjctMjMtOTE=
        >
        <X 0 0
          /wFlZGl0IGRhdGU6IDktNy05MQ==
        >
        <X 0 0
          /wFuZXcgIzogezYwMn0gOTc5LTYyMDE=
        >
        <X 0 0
          /wFNVUxUSU1FRElBIFdJTkRPV1MgVkVSU0lPTg==
        >
        E 576 90 46 64
        E 178 80 46 40
        E 14 90 46 64
        E 274 80 46 40
        E 14 90 4b 64
        E 82 80 4b 40
        E 14 90 4b 64
        E 178 80 4b 40
        E 14 90 43 64
        E 178 80 43 40
        E 14 90 46 64
        E 178 80 46 40
        E 14 90 44 64
        E 178 80 44 40
        E 14 90 44 64
        E 274 80 44 40
        E 14 90 44 64
        E 82 80 44 40
        E 14 90 44 64
        E 178 80 44 40
        E 14 90 46 64
        E 82 80 46 40
        E 14 90 48 64
        E 82 80 48 40
        E 14 90 46 64
        E 274 80 46 40
        E 14 90 44 64
        E 82 80 44 40
        E 14 90 43 64
        E 370 80 43 40
        E 206 90 46 64
        E 178 80 46 40
        E 14 90 46 64
        E 274 80 46 40
        E 14 90 4b 64
        E 82 80 4b 40
        E 14 90 4b 64
        E 274 80 4b 40
        E 14 90 4a 64
        E 82 80 4a 40
        E 14 90 48 64
        E 178 80 48 40
        E 14 90 48 64
        E 178 80 48 40
        E 14 90 4d 64
        E 274 80 4d 40
        E 14 90 4b 64
        E 82 80 4b 40
        E 14 90 4a 64
        E 178 80 4a 40
        E 14 90 46 64
        E 178 80 46 40
        E 14 90 4a 64
        E 274 80 4a 40
        E 14 90 48 64
        E 82 80 48 40
        E 14 90 46 64
        E 562 80 46 40
        E 14 90 41 64
        E 178 80 41 40
        E 14 90 41 64
        E 274 80 41 40
        E 14 90 43 64
        E 82 80 43 40
        E 14 90 44 64
        E 178 80 44 40
        E 14 90 46 64
        E 178 80 46 40
        E 14 90 48 64
        E 178 80 48 40
        E 14 90 48 64
        E 178 80 48 40
        E 14 90 46 64
        E 274 80 46 40
        E 14 90 44 64
        E 82 80 44 40
        E 14 90 43 64
        E 178 80 43 40
        E 14 90 46 64
        E 178 80 46 40
        E 14 90 46 64
        E 178 80 46 40
        E 14 90 4b 64
        E 178 80 4b 40
        E 14 90 4a 64
        E 562 80 4a 40
        E 14 90 46 64
        E 178 80 46 40
        E 14 90 46 64
        E 178 80 46 40
        E 14 90 48 64
        E 82 80 48 40
        E 14 90 4a 64
        E 82 80 4a 40
        E 14 90 4b 64
        E 178 80 4b 40
        E 14 90 4d 64
        E 178 80 4d 40
        E 14 90 4f 64
        E 274 80 4f 40
        E 14 90 4d 64
        E 82 80 4d 40
        E 14 90 4b 64
        E 178 80 4b 40
        E 14 90 48 64
        E 178 80 48 40
        E 14 90 46 64
        E 274 80 46 40
        E 14 90 43 64
        E 82 80 43 40
        E 14 90 46 64
        E 178 80 46 40
        E 14 90 44 64
        E 178 80 44 40
        E 14 90 43 64
        E 562 80 43 40
        E 14 90 46 64
        E 178 80 46 40
        E 14 90 46 64
        E 178 80 46 40
        E 14 90 48 64
        E 82 80 48 40
        E 14 90 4a 64
        E 82 80 4a 40
        E 14 90 4b 64
        E 178 80 4b 40
        E 14 90 4d 64
        E 178 80 4d 40
        E 14 90 4f 64
        E 274 80 4f 40
        E 14 90 4d 64
        E 82 80 4d 40
        E 14 90 4b 64
        E 178 80 4b 40
        E 14 90 48 64
        E 178 80 48 40
        E 14 90 46 64
        E 274 80 46 40
        E 14 90 4b 64
        E 82 80 4b 40
        E 14 90 4a 64
        E 178 80 4a 40
        E 14 90 4d 64
        E 178 80 4d 40
        E 14 90 4b 64
        E 562 80 4b 40
        E 14 b0 7b 00
        GUID {890104AB-DDFA-3D41-8024-A4777AFA8A92}
        IGNTEMPO 0 120 4 4
        SRCCOLOR 433
        VELLANE -1 86 6
        CFGEDITVIEW 6714.155269 100.13766 47 25 0 0 0 0 0
        KEYSNAP 0 3 102304056070 0 "Natural minor"
        TRACKSEL 226 0 0 ""
        EVTFILTER 0 -1 -1 -1 -1 0 0 0 0 -1 -1 -1 -1 0 -1 0 -1 -1
        CFGEDIT 1 0 0 0 0 0 1 0 1 1 1 0.25 589 421 1837 1120 0 0 2 3 0 0 0 0 0 -1 0 0 1 64
      >
    >
    <ITEM
      POSITION 0
      SNAPOFFS 0
      LENGTH 41.5
      LOOP 1
      ALLTAKES 0
      FADEIN 1 0 0 1 0 0
      FADEOUT 1 0 0 1 0 0
      MUTE 0
      SEL 0
      YPOS 0.5 0.166667
      IGUID {1096253E-DFF3-FC42-824D-ACB524768053}
      IID 4
      NAME "BASS                 - National_Anthems_-_Luxembourg.mid"
      VOLPAN 1 0 1 -1
      SOFFS 0 0
      PLAYRATE 1 1 0 -1 0 0.0025
      CHANMODE 0
      GUID {3FA370BE-E402-0644-AA03-2DDF3476A4B5}
      <SOURCE MIDI
        HASDATA 1 192 QN
        POOLEDEVTS {7E67D2E1-36C4-F64A-AC97-3D04FB9D4C3A}
        <X 0 0
          /wNCQVNTICAgICAgICAgICAgICAgIA==
        >
        E 576 93 33 64
        E 178 83 33 40
        E 14 93 27 64
        E 274 83 27 40
        E 14 93 27 64
        E 82 83 27 40
        E 14 93 27 64
        E 178 83 27 40
        E 14 93 27 64
        E 178 83 27 40
        E 14 93 30 64
        E 178 83 30 40
        E 14 93 24 64
        E 178 83 24 40
        E 14 93 24 64
        E 274 83 24 40
        E 14 93 29 64
        E 82 83 29 40
        E 14 93 29 64
        E 178 83 29 40
        E 14 93 29 64
        E 178 83 29 40
        E 14 93 2e 64
        E 274 83 2e 40
        E 14 93 2e 64
        E 82 83 2e 40
        E 14 93 27 64
        E 370 83 27 40
        E 206 93 33 64
        E 178 83 33 40
        E 14 93 27 64
        E 274 83 27 40
        E 14 93 27 64
        E 82 83 27 40
        E 14 93 27 64
        E 178 83 27 40
        E 14 93 27 64
        E 178 83 27 40
        E 14 93 29 64
        E 178 83 29 40
        E 14 93 27 64
        E 178 83 27 40
        E 14 93 26 64
        E 274 83 26 40
        E 14 93 27 64
        E 82 83 27 40
        E 14 93 29 64
        E 178 83 29 40
        E 14 93 29 64
        E 178 83 29 40
        E 14 93 29 64
        E 274 83 29 40
        E 14 93 29 64
        E 82 83 29 40
        E 14 93 2e 64
        E 562 83 2e 40
        E 206 93 2e 64
        E 178 83 2e 40
        E 14 93 3a 64
        E 178 83 3a 40
        E 14 93 2e 64
        E 178 83 2e 40
        E 14 93 3a 64
        E 178 83 3a 40
        E 14 93 2e 64
        E 178 83 2e 40
        E 14 93 3a 64
        E 178 83 3a 40
        E 14 93 30 64
        E 178 83 30 40
        E 14 93 32 64
        E 178 83 32 40
        E 14 93 33 64
        E 178 83 33 40
        E 14 93 33 64
        E 178 83 33 40
        E 14 93 37 64
        E 178 83 37 40
        E 14 93 33 64
        E 178 83 33 40
        E 14 93 2e 64
        E 130 83 2e 40
        E 14 93 2e 64
        E 34 83 2e 40
        E 14 93 30 64
        E 82 83 30 40
        E 14 93 2e 64
        E 82 83 2e 40
        E 14 93 2d 64
        E 82 83 2d 40
        E 14 93 2c 64
        E 82 83 2c 40
        E 14 93 2b 64
        E 82 83 2b 40
        E 14 93 29 64
        E 82 83 29 40
        E 14 93 27 64
        E 178 83 27 40
        E 14 93 27 64
        E 178 83 27 40
        E 14 93 2e 64
        E 178 83 2e 40
        E 14 93 27 64
        E 178 83 27 40
        E 14 93 27 64
        E 178 83 27 40
        E 14 93 2e 64
        E 178 83 2e 40
        E 14 93 33 64
        E 178 83 33 40
        E 14 93 30 64
        E 178 83 30 40
        E 14 93 2e 64
        E 178 83 2e 40
        E 14 93 2e 64
        E 178 83 2e 40
        E 14 93 2e 64
        E 178 83 2e 40
        E 14 93 22 64
        E 178 83 22 40
        E 14 93 2f 64
        E 178 83 2f 40
        E 14 93 2f 64
        E 178 83 2f 40
        E 14 93 30 64
        E 178 83 30 40
        E 14 93 26 64
        E 178 83 26 40
        E 14 93 33 64
        E 178 83 33 40
        E 14 93 33 64
        E 178 83 33 40
        E 14 93 33 64
        E 178 83 33 40
        E 14 93 2c 64
        E 178 83 2c 40
        E 14 93 2b 64
        E 178 83 2b 40
        E 14 93 2f 64
        E 178 83 2f 40
        E 14 93 30 64
        E 178 83 30 40
        E 14 93 2c 64
        E 178 83 2c 40
        E 14 93 2e 64
        E 178 83 2e 40
        E 14 93 2e 64
        E 178 83 2e 40
        E 14 93 3a 64
        E 178 83 3a 40
        E 14 93 2e 64
        E 178 83 2e 40
        E 14 93 33 64
        E 82 83 33 40
        E 14 93 2e 64
        E 82 83 2e 40
        E 14 93 2b 64
        E 82 83 2b 40
        E 14 93 2e 64
        E 82 83 2e 40
        E 14 93 27 64
        E 178 83 27 40
        E 14 b0 7b 00
        GUID {A6FF1B89-7A9E-8843-B53A-CCE0F2FF31B5}
        IGNTEMPO 0 120 4 4
        SRCCOLOR 436
        VELLANE -1 86 6
      >
    >
  >
  <TRACK {6CCBCBB4-02B5-3C4F-AE95-8DD80AEC4A17}
    NAME "ch2,4 (send)"
    PEAKCOL 16576
    BEAT -1
    AUTOMODE 0
    VOLPAN 1 0 -1 -1 1
    MUTESOLO 0 0 0
    IPHASE 0
    ISBUS 0 0
    BUSCOMP 0 0
    SHOWINMIX 1 0.6667 0.698113 1 0.5 -1 -1 -1
    FREEMODE 0
    SEL 0
    REC 0 0 0 0 0 0 0
    VU 2
    MIDICTL -1 1
    TRACKHEIGHT 0 0
    INQ 0 0 0 0.5 100 0 0 100
    NCHAN 2
    FX 1
    TRACKID {6CCBCBB4-02B5-3C4F-AE95-8DD80AEC4A17}
    PERF 0
    MIDIOUT -1
    MAINSEND 1 0
    <FXCHAIN
      WNDRECT 32 359 724 387
      SHOW 0
      LASTSEL 0
      DOCKED 0
    >
    <ITEM
      POSITION 0
      SNAPOFFS 0
      LENGTH 41.5
      LOOP 1
      ALLTAKES 0
      FADEIN 1 0 0 1 0 0
      FADEOUT 1 0 0 1 0 0
      MUTE 0
      SEL 0
      YPOS 0.333333 0.166667
      IGUID {837FA484-8208-334A-B2EA-B8FE51D33976}
      IID 3
      NAME "LH                   - National_Anthems_-_Luxembourg.mid"
      VOLPAN 1 0 1 -1
      SOFFS 0 0
      PLAYRATE 1 1 0 -1 0 0.0025
      CHANMODE 0
      GUID {48548E5A-2480-624A-BFD5-FE1A02B5CCE5}
      <SOURCE MIDI
        HASDATA 1 192 QN
        POOLEDEVTS {1B43A325-7666-F74A-978F-F6F766E6A199}
        <X 0 0
          /wNMSCAgICAgICAgICAgICAgICAgIA==
        >
        E 576 92 33 64
        E 0 92 37 64
        E 0 92 3a 64
        E 178 82 33 40
        E 0 82 37 40
        E 0 82 3a 40
        E 14 92 33 64
        E 0 92 3a 64
        E 0 92 37 64
        E 274 82 33 40
        E 0 82 3a 40
        E 0 82 37 40
        E 14 92 33 64
        E 0 92 37 64
        E 0 92 3a 64
        E 82 82 33 40
        E 0 82 37 40
        E 0 82 3a 40
        E 14 92 3a 64
        E 0 92 37 64
        E 0 92 33 64
        E 178 82 3a 40
        E 0 82 37 40
        E 0 82 33 40
        E 14 92 33 64
        E 0 92 3a 64
        E 0 92 37 64
        E 178 82 33 40
        E 0 82 3a 40
        E 0 82 37 40
        E 14 92 3c 64
        E 0 92 30 64
        E 178 82 3c 40
        E 0 82 30 40
        E 14 92 30 64
        E 0 92 3c 64
        E 178 82 30 40
        E 0 82 3c 40
        E 14 92 30 64
        E 0 92 3c 64
        E 274 82 30 40
        E 0 82 3c 40
        E 14 92 35 64
        E 0 92 38 64
        E 82 82 35 40
        E 0 82 38 40
        E 14 92 38 64
        E 0 92 35 64
        E 178 82 38 40
        E 0 82 35 40
        E 14 92 35 64
        E 0 92 38 64
        E 178 82 35 40
        E 0 82 38 40
        E 14 92 2e 64
        E 0 92 3a 64
        E 0 92 35 64
        E 274 82 2e 40
        E 0 82 3a 40
        E 0 82 35 40
        E 14 92 2e 64
        E 0 92 3a 64
        E 82 82 2e 40
        E 0 82 3a 40
        E 14 92 3a 64
        E 0 92 33 64
        E 370 82 3a 40
        E 0 82 33 40
        E 206 92 33 64
        E 0 92 3a 64
        E 0 92 37 64
        E 178 82 33 40
        E 0 82 3a 40
        E 0 82 37 40
        E 14 92 3a 64
        E 0 92 37 64
        E 0 92 33 64
        E 274 82 3a 40
        E 0 82 37 40
        E 0 82 33 40
        E 14 92 3a 64
        E 0 92 37 64
        E 0 92 33 64
        E 82 82 3a 40
        E 0 82 37 40
        E 0 82 33 40
        E 14 92 33 64
        E 0 92 3a 64
        E 0 92 37 64
        E 178 82 33 40
        E 0 82 3a 40
        E 0 82 37 40
        E 14 92 33 64
        E 0 92 3a 64
        E 0 92 37 64
        E 178 82 33 40
        E 0 82 3a 40
        E 0 82 37 40
        E 14 92 39 64
        E 0 92 35 64
        E 178 82 39 40
        E 0 82 35 40
        E 14 92 33 64
        E 0 92 39 64
        E 178 82 33 40
        E 0 82 39 40
        E 14 92 3a 64
        E 0 92 35 64
        E 0 92 32 64
        E 274 82 3a 40
        E 0 82 35 40
        E 0 82 32 40
        E 14 92 33 64
        E 0 92 37 64
        E 0 92 3c 64
        E 82 82 33 40
        E 0 82 37 40
        E 0 82 3c 40
        E 14 92 3e 64
        E 0 92 3a 64
        E 0 92 35 64
        E 178 82 3e 40
        E 0 82 3a 40
        E 0 82 35 40
        E 14 92 3a 64
        E 0 92 35 64
        E 0 92 3e 64
        E 178 82 3a 40
        E 0 82 35 40
        E 0 82 3e 40
        E 14 92 3f 64
        E 0 92 35 64
        E 274 82 3f 40
        E 0 82 35 40
        E 14 92 35 64
        E 0 92 3f 64
        E 82 82 35 40
        E 0 82 3f 40
        E 14 92 2e 64
        E 0 92 35 64
        E 0 92 3a 64
        E 562 82 2e 40
        E 0 82 35 40
        E 0 82 3a 40
        E 206 92 2e 64
        E 82 82 2e 40
        E 14 92 3a 64
        E 82 82 3a 40
        E 14 92 2e 64
        E 82 82 2e 40
        E 14 92 3a 64
        E 82 82 3a 40
        E 14 92 2e 64
        E 82 82 2e 40
        E 14 92 3a 64
        E 82 82 3a 40
        E 14 92 2e 64
        E 82 82 2e 40
        E 14 92 3a 64
        E 82 82 3a 40
        E 14 92 2e 64
        E 82 82 2e 40
        E 14 92 3a 64
        E 82 82 3a 40
        E 14 92 2e 64
        E 82 82 2e 40
        E 14 92 3a 64
        E 82 82 3a 40
        E 14 92 30 64
        E 82 82 30 40
        E 14 92 3a 64
        E 82 82 3a 40
        E 14 92 32 64
        E 82 82 32 40
        E 14 92 3a 64
        E 82 82 3a 40
        E 14 92 33 64
        E 82 82 33 40
        E 14 92 3a 64
        E 82 82 3a 40
        E 14 92 33 64
        E 82 82 33 40
        E 14 92 3a 64
        E 82 82 3a 40
        E 14 92 37 64
        E 82 82 37 40
        E 14 92 3a 64
        E 82 82 3a 40
        E 14 92 33 64
        E 82 82 33 40
        E 14 92 3a 64
        E 82 82 3a 40
        E 14 92 2e 64
        E 0 92 3a 64
        E 130 82 2e 40
        E 0 82 3a 40
        E 14 92 2e 64
        E 0 92 3a 64
        E 34 82 2e 40
        E 0 82 3a 40
        E 14 92 3c 64
        E 0 92 30 64
        E 82 82 3c 40
        E 0 82 30 40
        E 14 92 3a 64
        E 0 92 2e 64
        E 82 82 3a 40
        E 0 82 2e 40
        E 14 92 39 64
        E 0 92 2d 64
        E 82 82 39 40
        E 0 82 2d 40
        E 14 92 38 64
        E 0 92 2c 64
        E 82 82 38 40
        E 0 82 2c 40
        E 14 92 37 64
        E 0 92 2b 64
        E 82 82 37 40
        E 0 82 2b 40
        E 14 92 35 64
        E 0 92 29 64
        E 82 82 35 40
        E 0 82 29 40
        E 14 92 27 64
        E 0 92 33 64
        E 82 82 27 40
        E 0 82 33 40
        E 14 92 3a 64
        E 0 92 37 64
        E 82 82 3a 40
        E 0 82 37 40
        E 14 92 38 64
        E 0 92 3c 64
        E 82 82 3c 40
        E 14 92 3e 64
        E 0 92 3a 64
        E 82 82 38 40
        E 0 82 3e 40
        E 0 82 3a 40
        E 14 92 33 64
        E 82 82 33 40
        E 14 92 3a 64
        E 0 92 3f 64
        E 0 92 37 64
        E 82 82 3a 40
        E 0 82 3f 40
        E 0 82 37 40
        E 14 92 2e 64
        E 82 82 2e 40
        E 14 92 3e 64
        E 0 92 38 64
        E 0 92 3a 64
        E 82 82 3e 40
        E 0 82 38 40
        E 0 82 3a 40
        E 14 92 33 64
        E 82 82 33 40
        E 14 92 3a 64
        E 0 92 37 64
        E 0 92 3f 64
        E 82 82 3a 40
        E 0 82 37 40
        E 0 82 3f 40
        E 14 92 3a 64
        E 0 92 3f 64
        E 0 92 37 64
        E 82 82 3a 40
        E 0 82 3f 40
        E 0 82 37 40
        E 14 92 3a 64
        E 0 92 37 64
        E 0 92 3f 64
        E 82 82 3a 40
        E 0 82 37 40
        E 0 82 3f 40
        E 14 92 33 64
        E 82 82 33 40
        E 14 92 3a 64
        E 0 92 3f 64
        E 0 92 37 64
        E 82 82 3a 40
        E 0 82 3f 40
        E 0 82 37 40
        E 14 92 2c 64
        E 82 82 2c 40
        E 14 92 33 64
        E 0 92 30 64
        E 82 82 33 40
        E 0 82 30 40
        E 14 92 2e 64
        E 82 82 2e 40
        E 14 92 33 64
        E 0 92 37 64
        E 82 82 33 40
        E 0 82 37 40
        E 14 92 33 64
        E 0 92 37 64
        E 82 82 33 40
        E 0 82 37 40
        E 14 92 33 64
        E 0 92 37 64
        E 82 82 33 40
        E 0 82 37 40
        E 14 92 2e 64
        E 82 82 2e 40
        E 14 92 35 64
        E 0 92 38 64
        E 82 82 35 40
        E 0 82 38 40
        E 14 92 2e 64
        E 82 82 2e 40
        E 14 92 38 64
        E 0 92 35 64
        E 82 82 38 40
        E 0 82 35 40
        E 14 92 2f 64
        E 82 82 2f 40
        E 14 92 35 64
        E 0 92 32 64
        E 0 92 37 64
        E 82 82 35 40
        E 0 82 32 40
        E 0 82 37 40
        E 14 92 35 64
        E 0 92 32 64
        E 0 92 37 64
        E 82 82 35 40
        E 0 82 32 40
        E 0 82 37 40
        E 14 92 35 64
        E 0 92 32 64
        E 0 92 37 64
        E 82 82 35 40
        E 0 82 32 40
        E 0 82 37 40
        E 14 92 30 64
        E 82 82 30 40
        E 14 92 33 64
        E 0 92 37 64
        E 82 82 33 40
        E 0 82 37 40
        E 14 92 32 64
        E 82 82 32 40
        E 14 92 38 64
        E 0 92 3a 64
        E 0 92 35 64
        E 82 82 38 40
        E 0 82 3a 40
        E 0 82 35 40
        E 14 92 33 64
        E 82 82 33 40
        E 14 92 3a 64
        E 0 92 37 64
        E 82 82 3a 40
        E 0 82 37 40
        E 14 92 3c 64
        E 0 92 38 64
        E 82 82 3c 40
        E 0 82 38 40
        E 14 92 3a 64
        E 0 92 3e 64
        E 82 82 3e 40
        E 14 92 33 64
        E 82 82 3a 40
        E 0 82 33 40
        E 14 92 3f 64
        E 0 92 3a 64
        E 0 92 37 64
        E 82 82 3f 40
        E 0 82 3a 40
        E 0 82 37 40
        E 14 92 2c 64
        E 82 82 2c 40
        E 14 92 38 64
        E 82 82 38 40
        E 14 92 2b 64
        E 82 82 2b 40
        E 14 92 32 64
        E 82 82 32 40
        E 14 92 37 64
        E 82 82 37 40
        E 14 92 2f 64
        E 82 82 2f 40
        E 14 92 30 64
        E 82 82 30 40
        E 14 92 33 64
        E 0 92 37 64
        E 82 82 33 40
        E 0 82 37 40
        E 14 92 2c 64
        E 82 82 2c 40
        E 14 92 33 64
        E 0 92 38 64
        E 82 82 33 40
        E 0 82 38 40
        E 14 92 2e 64
        E 82 82 2e 40
        E 14 92 33 64
        E 82 82 33 40
        E 14 92 37 64
        E 82 82 37 40
        E 14 92 3a 64
        E 82 82 3a 40
        E 14 92 2e 64
        E 82 82 2e 40
        E 14 92 3a 64
        E 82 82 3a 40
        E 14 92 38 64
        E 82 82 38 40
        E 14 92 35 64
        E 82 82 35 40
        E 14 92 33 64
        E 82 82 33 40
        E 14 92 2e 64
        E 82 82 2e 40
        E 14 92 2b 64
        E 82 82 2b 40
        E 14 92 2e 64
        E 82 82 2e 40
        E 14 92 27 64
        E 178 82 27 40
        E 14 b0 7b 00
        GUID {A246F63D-B5FF-7B41-ACD5-760B48F46798}
        IGNTEMPO 0 120 4 4
        SRCCOLOR 435
        VELLANE -1 86 6
      >
    >
    <ITEM
      POSITION 0
      SNAPOFFS 0
      LENGTH 41.5
      LOOP 1
      ALLTAKES 0
      FADEIN 1 0 0 1 0 0
      FADEOUT 1 0 0 1 0 0
      MUTE 0
      SEL 0
      YPOS 0.166667 0.166667
      IGUID {9CBB576F-8A0F-B441-878E-09D5076CDBA3}
      IID 2
      NAME "RH                   - National_Anthems_-_Luxembourg.mid"
      VOLPAN 1 0 1 -1
      SOFFS 0 0
      PLAYRATE 1 1 0 -1 0 0.0025
      CHANMODE 0
      GUID {1034E109-9030-CC43-A4E2-37E424F11F13}
      <SOURCE MIDI
        HASDATA 1 192 QN
        POOLEDEVTS {829A3730-3E32-864A-B4A8-FD0EEDBE0DC5}
        <X 0 0
          /wNSSCAgICAgICAgICAgICAgICAgIA==
        >
        E 576 91 46 64
        E 0 91 43 64
        E 178 81 46 40
        E 0 81 43 40
        E 14 91 43 64
        E 0 91 46 64
        E 274 81 43 40
        E 0 81 46 40
        E 14 91 43 64
        E 0 91 4b 64
        E 82 81 43 40
        E 0 81 4b 40
        E 14 91 4b 64
        E 0 91 43 64
        E 178 81 4b 40
        E 0 81 43 40
        E 14 91 3f 64
        E 0 91 43 64
        E 178 81 3f 40
        E 0 81 43 40
        E 14 91 3f 64
        E 0 91 46 64
        E 178 81 3f 40
        E 0 81 46 40
        E 14 91 44 64
        E 0 91 3f 64
        E 178 81 44 40
        E 0 81 3f 40
        E 14 91 44 64
        E 0 91 3f 64
        E 274 81 44 40
        E 0 81 3f 40
        E 14 91 3c 64
        E 0 91 44 64
        E 82 81 3c 40
        E 0 81 44 40
        E 14 91 3c 64
        E 0 91 44 64
        E 178 81 3c 40
        E 0 81 44 40
        E 14 91 46 64
        E 0 91 3c 64
        E 82 81 46 40
        E 14 91 48 64
        E 82 81 3c 40
        E 0 81 48 40
        E 14 91 3e 64
        E 0 91 46 64
        E 274 81 3e 40
        E 0 81 46 40
        E 14 91 44 64
        E 0 91 3e 64
        E 82 81 44 40
        E 0 81 3e 40
        E 14 91 43 64
        E 0 91 3f 64
        E 370 81 43 40
        E 0 81 3f 40
        E 206 91 46 64
        E 0 91 43 64
        E 178 81 46 40
        E 0 81 43 40
        E 14 91 46 64
        E 0 91 43 64
        E 34 81 43 40
        E 240 81 46 40
        E 14 91 43 64
        E 0 91 4b 64
        E 82 81 43 40
        E 0 81 4b 40
        E 14 91 43 64
        E 0 91 4b 64
        E 274 81 43 40
        E 0 81 4b 40
        E 14 91 43 64
        E 0 91 4a 64
        E 82 81 43 40
        E 0 81 4a 40
        E 14 91 41 64
        E 0 91 45 64
        E 0 91 48 64
        E 178 81 41 40
        E 0 81 45 40
        E 0 81 48 40
        E 14 91 41 64
        E 0 91 45 64
        E 0 91 48 64
        E 178 81 41 40
        E 0 81 45 40
        E 0 81 48 40
        E 14 91 41 64
        E 0 91 4d 64
        E 0 91 46 64
        E 274 81 41 40
        E 0 81 4d 40
        E 0 81 46 40
        E 14 91 4b 64
        E 0 91 43 64
        E 82 81 4b 40
        E 0 81 43 40
        E 14 91 4a 64
        E 0 91 41 64
        E 178 81 4a 40
        E 0 81 41 40
        E 14 91 46 64
        E 0 91 41 64
        E 178 81 46 40
        E 0 81 41 40
        E 14 91 41 64
        E 0 91 45 64
        E 0 91 4a 64
        E 274 81 41 40
        E 0 81 45 40
        E 0 81 4a 40
        E 14 91 45 64
        E 0 91 41 64
        E 0 91 48 64
        E 82 81 45 40
        E 0 81 41 40
        E 0 81 48 40
        E 14 91 3e 64
        E 0 91 46 64
        E 562 81 3e 40
        E 0 81 46 40
        E 14 91 41 64
        E 0 91 3e 64
        E 178 81 41 40
        E 0 81 3e 40
        E 14 91 3e 64
        E 0 91 41 64
        E 274 81 3e 40
        E 0 81 41 40
        E 14 91 3f 64
        E 0 91 43 64
        E 82 81 3f 40
        E 0 81 43 40
        E 14 91 41 64
        E 0 91 44 64
        E 178 81 41 40
        E 0 81 44 40
        E 14 91 43 64
        E 0 91 46 64
        E 178 81 43 40
        E 0 81 46 40
        E 14 91 44 64
        E 0 91 48 64
        E 178 81 44 40
        E 0 81 48 40
        E 14 91 44 64
        E 0 91 48 64
        E 178 81 44 40
        E 0 81 48 40
        E 14 91 43 64
        E 0 91 46 64
        E 274 81 43 40
        E 0 81 46 40
        E 14 91 41 64
        E 0 91 44 64
        E 82 81 41 40
        E 0 81 44 40
        E 14 91 3f 64
        E 0 91 43 64
        E 178 81 3f 40
        E 0 81 43 40
        E 14 91 46 64
        E 0 91 3f 64
        E 178 81 46 40
        E 0 81 3f 40
        E 14 91 3f 64
        E 0 91 46 64
        E 178 81 3f 40
        E 0 81 46 40
        E 14 91 43 64
        E 0 91 4b 64
        E 178 81 43 40
        E 0 81 4b 40
        E 14 91 41 64
        E 0 91 46 64
        E 0 91 4a 64
        E 562 81 41 40
        E 0 81 46 40
        E 0 81 4a 40
        E 14 91 3e 64
        E 0 91 44 64
        E 0 91 46 64
        E 178 81 3e 40
        E 0 81 44 40
        E 0 81 46 40
        E 14 91 43 64
        E 0 91 3f 64
        E 0 91 46 64
        E 178 81 43 40
        E 0 81 3f 40
        E 0 81 46 40
        E 14 91 44 64
        E 0 91 48 64
        E 82 81 44 40
        E 0 81 48 40
        E 14 91 41 64
        E 0 91 44 64
        E 0 91 4a 64
        E 82 81 41 40
        E 0 81 44 40
        E 0 81 4a 40
        E 14 91 46 64
        E 0 91 43 64
        E 0 91 4b 64
        E 178 81 46 40
        E 0 81 43 40
        E 0 81 4b 40
        E 14 91 4d 64
        E 0 91 46 64
        E 0 91 44 64
        E 178 81 4d 40
        E 0 81 46 40
        E 0 81 44 40
        E 14 91 46 64
        E 0 91 43 64
        E 0 91 4f 64
        E 274 81 46 40
        E 0 81 43 40
        E 0 81 4f 40
        E 14 91 44 64
        E 0 91 4d 64
        E 82 81 44 40
        E 0 81 4d 40
        E 14 91 43 64
        E 0 91 4b 64
        E 178 81 43 40
        E 0 81 4b 40
        E 14 91 44 64
        E 0 91 48 64
        E 0 91 3f 64
        E 178 81 44 40
        E 0 81 48 40
        E 0 81 3f 40
        E 14 91 3f 64
        E 0 91 43 64
        E 0 91 46 64
        E 274 81 3f 40
        E 0 81 43 40
        E 0 81 46 40
        E 14 91 43 64
        E 0 91 3f 64
        E 82 81 43 40
        E 0 81 3f 40
        E 14 91 46 64
        E 0 91 3e 64
        E 178 81 46 40
        E 0 81 3e 40
        E 14 91 3e 64
        E 0 91 44 64
        E 0 91 41 64
        E 178 81 3e 40
        E 0 81 44 40
        E 0 81 41 40
        E 14 91 3e 64
        E 0 91 41 64
        E 0 91 43 64
        E 370 81 3e 40
        E 0 81 41 40
        E 0 81 43 40
        E 14 91 3f 64
        E 0 91 3c 64
        E 178 81 3f 40
        E 0 81 3c 40
        E 14 91 44 64
        E 0 91 41 64
        E 0 91 46 64
        E 178 81 44 40
        E 0 81 41 40
        E 0 81 46 40
        E 14 91 43 64
        E 0 91 46 64
        E 0 91 3f 64
        E 178 81 43 40
        E 0 81 46 40
        E 0 81 3f 40
        E 14 91 48 64
        E 0 91 44 64
        E 82 81 48 40
        E 0 81 44 40
        E 14 91 41 64
        E 0 91 44 64
        E 0 91 4a 64
        E 82 81 41 40
        E 0 81 44 40
        E 0 81 4a 40
        E 14 91 4b 64
        E 0 91 46 64
        E 0 91 43 64
        E 178 81 4b 40
        E 0 81 46 40
        E 0 81 43 40
        E 14 91 4d 64
        E 0 91 48 64
        E 0 91 41 64
        E 178 81 4d 40
        E 0 81 48 40
        E 0 81 41 40
        E 14 91 4f 64
        E 0 91 47 64
        E 0 91 43 64
        E 0 91 4a 64
        E 274 81 4f 40
        E 0 81 47 40
        E 0 81 43 40
        E 0 81 4a 40
        E 14 91 43 64
        E 0 91 47 64
        E 0 91 4a 64
        E 0 91 4d 64
        E 82 81 43 40
        E 0 81 47 40
        E 0 81 4a 40
        E 0 81 4d 40
        E 14 91 4b 64
        E 0 91 3f 64
        E 0 91 43 64
        E 178 81 4b 40
        E 0 81 3f 40
        E 0 81 43 40
        E 14 91 44 64
        E 0 91 3f 64
        E 0 91 48 64
        E 178 81 44 40
        E 0 81 3f 40
        E 0 81 48 40
        E 14 91 43 64
        E 0 91 46 64
        E 0 91 3f 64
        E 274 81 43 40
        E 0 81 46 40
        E 14 91 46 64
        E 0 91 4b 64
        E 0 91 43 64
        E 82 81 3f 40
        E 0 81 46 40
        E 0 81 4b 40
        E 0 81 43 40
        E 14 91 4a 64
        E 0 91 41 64
        E 0 91 46 64
        E 178 81 4a 40
        E 0 81 41 40
        E 0 81 46 40
        E 14 91 44 64
        E 0 91 46 64
        E 0 91 4d 64
        E 178 81 44 40
        E 0 81 46 40
        E 0 81 4d 40
        E 14 91 43 64
        E 0 91 4b 64
        E 0 91 46 64
        E 562 81 43 40
        E 0 81 4b 40
        E 0 81 46 40
        E 14 b0 7b 00
        GUID {758F221A-BA07-814E-8EEF-9EEA5C92FAE3}
        IGNTEMPO 0 120 4 4
        SRCCOLOR 434
        VELLANE -1 86 6
      >
    >
  >
  <TRACK {BE34EA7E-2789-BE43-9D9C-227AFB60631D}
    NAME "ch5 (send bass)"
    PEAKCOL 16576
    BEAT -1
    AUTOMODE 0
    VOLPAN 1 0 -1 -1 1
    MUTESOLO 1 0 0
    IPHASE 0
    ISBUS 2 -1
    BUSCOMP 0 0
    SHOWINMIX 1 0.6667 0.698113 1 0.5 -1 -1 -1
    FREEMODE 0
    SEL 0
    REC 0 0 0 0 0 0 0
    VU 2
    TRACKHEIGHT 0 0
    INQ 0 0 0 0.5 100 0 0 100
    NCHAN 2
    FX 1
    TRACKID {BE34EA7E-2789-BE43-9D9C-227AFB60631D}
    PERF 0
    MIDIOUT -1
    MAINSEND 1 0
    <ITEM
      POSITION 0
      SNAPOFFS 0
      LENGTH 41.5
      LOOP 1
      ALLTAKES 0
      FADEIN 1 0 0 1 0 0
      FADEOUT 1 0 0 1 0 0
      MUTE 0
      SEL 0
      YPOS 0.833333 0.166667
      IGUID {256BD911-ADE5-2249-B1BB-3FF2F833D350}
      IID 6
      NAME "lh                   - National_Anthems_-_Luxembourg.mid"
      VOLPAN 1 0 1 -1
      SOFFS 0 0
      PLAYRATE 1 1 0 -1 0 0.0025
      CHANMODE 0
      GUID {E59FC391-6240-A54B-804A-746680415320}
      <SOURCE MIDI
        HASDATA 1 192 QN
        POOLEDEVTS {DAFBFA57-1ED8-BD4F-8167-053EB9ED9FDD}
        <X 0 0
          /wNsaCAgICAgICAgICAgICAgICAgIA==
        >
        E 576 9d 33 64
        E 0 9d 37 64
        E 0 9d 3a 64
        E 178 8d 33 40
        E 0 8d 37 40
        E 0 8d 3a 40
        E 14 9d 33 64
        E 0 9d 3a 64
        E 0 9d 37 64
        E 274 8d 33 40
        E 0 8d 3a 40
        E 0 8d 37 40
        E 14 9d 33 64
        E 0 9d 37 64
        E 0 9d 3a 64
        E 82 8d 33 40
        E 0 8d 37 40
        E 0 8d 3a 40
        E 14 9d 3a 64
        E 0 9d 37 64
        E 0 9d 33 64
        E 178 8d 3a 40
        E 0 8d 37 40
        E 0 8d 33 40
        E 14 9d 33 64
        E 0 9d 3a 64
        E 0 9d 37 64
        E 178 8d 33 40
        E 0 8d 3a 40
        E 0 8d 37 40
        E 14 9d 3c 64
        E 0 9d 30 64
        E 178 8d 3c 40
        E 0 8d 30 40
        E 14 9d 30 64
        E 0 9d 3c 64
        E 178 8d 30 40
        E 0 8d 3c 40
        E 14 9d 30 64
        E 0 9d 3c 64
        E 274 8d 30 40
        E 0 8d 3c 40
        E 14 9d 35 64
        E 0 9d 38 64
        E 82 8d 35 40
        E 0 8d 38 40
        E 14 9d 38 64
        E 0 9d 35 64
        E 178 8d 38 40
        E 0 8d 35 40
        E 14 9d 35 64
        E 0 9d 38 64
        E 178 8d 35 40
        E 0 8d 38 40
        E 14 9d 2e 64
        E 0 9d 3a 64
        E 0 9d 35 64
        E 274 8d 2e 40
        E 0 8d 3a 40
        E 0 8d 35 40
        E 14 9d 2e 64
        E 0 9d 3a 64
        E 82 8d 2e 40
        E 0 8d 3a 40
        E 14 9d 3a 64
        E 0 9d 33 64
        E 370 8d 3a 40
        E 0 8d 33 40
        E 206 9d 33 64
        E 0 9d 3a 64
        E 0 9d 37 64
        E 178 8d 33 40
        E 0 8d 3a 40
        E 0 8d 37 40
        E 14 9d 3a 64
        E 0 9d 37 64
        E 0 9d 33 64
        E 274 8d 3a 40
        E 0 8d 37 40
        E 0 8d 33 40
        E 14 9d 3a 64
        E 0 9d 37 64
        E 0 9d 33 64
        E 82 8d 3a 40
        E 0 8d 37 40
        E 0 8d 33 40
        E 14 9d 33 64
        E 0 9d 3a 64
        E 0 9d 37 64
        E 178 8d 33 40
        E 0 8d 3a 40
        E 0 8d 37 40
        E 14 9d 33 64
        E 0 9d 3a 64
        E 0 9d 37 64
        E 178 8d 33 40
        E 0 8d 3a 40
        E 0 8d 37 40
        E 14 9d 39 64
        E 0 9d 35 64
        E 178 8d 39 40
        E 0 8d 35 40
        E 14 9d 33 64
        E 0 9d 39 64
        E 178 8d 33 40
        E 0 8d 39 40
        E 14 9d 3a 64
        E 0 9d 35 64
        E 0 9d 32 64
        E 274 8d 3a 40
        E 0 8d 35 40
        E 0 8d 32 40
        E 14 9d 33 64
        E 0 9d 37 64
        E 0 9d 3c 64
        E 82 8d 33 40
        E 0 8d 37 40
        E 0 8d 3c 40
        E 14 9d 3e 64
        E 0 9d 3a 64
        E 0 9d 35 64
        E 178 8d 3e 40
        E 0 8d 3a 40
        E 0 8d 35 40
        E 14 9d 3a 64
        E 0 9d 35 64
        E 0 9d 3e 64
        E 178 8d 3a 40
        E 0 8d 35 40
        E 0 8d 3e 40
        E 14 9d 3f 64
        E 0 9d 35 64
        E 274 8d 3f 40
        E 0 8d 35 40
        E 14 9d 35 64
        E 0 9d 3f 64
        E 82 8d 35 40
        E 0 8d 3f 40
        E 14 9d 2e 64
        E 0 9d 35 64
        E 0 9d 3a 64
        E 562 8d 2e 40
        E 0 8d 35 40
        E 0 8d 3a 40
        E 206 9d 2e 64
        E 82 8d 2e 40
        E 14 9d 3a 64
        E 82 8d 3a 40
        E 14 9d 2e 64
        E 82 8d 2e 40
        E 14 9d 3a 64
        E 82 8d 3a 40
        E 14 9d 2e 64
        E 82 8d 2e 40
        E 14 9d 3a 64
        E 82 8d 3a 40
        E 14 9d 2e 64
        E 82 8d 2e 40
        E 14 9d 3a 64
        E 82 8d 3a 40
        E 14 9d 2e 64
        E 82 8d 2e 40
        E 14 9d 3a 64
        E 82 8d 3a 40
        E 14 9d 2e 64
        E 82 8d 2e 40
        E 14 9d 3a 64
        E 82 8d 3a 40
        E 14 9d 30 64
        E 82 8d 30 40
        E 14 9d 3a 64
        E 82 8d 3a 40
        E 14 9d 32 64
        E 82 8d 32 40
        E 14 9d 3a 64
        E 82 8d 3a 40
        E 14 9d 33 64
        E 82 8d 33 40
        E 14 9d 3a 64
        E 82 8d 3a 40
        E 14 9d 33 64
        E 82 8d 33 40
        E 14 9d 3a 64
        E 82 8d 3a 40
        E 14 9d 37 64
        E 82 8d 37 40
        E 14 9d 3a 64
        E 82 8d 3a 40
        E 14 9d 33 64
        E 82 8d 33 40
        E 14 9d 3a 64
        E 82 8d 3a 40
        E 14 9d 2e 64
        E 0 9d 3a 64
        E 130 8d 2e 40
        E 0 8d 3a 40
        E 14 9d 2e 64
        E 0 9d 3a 64
        E 34 8d 2e 40
        E 0 8d 3a 40
        E 14 9d 3c 64
        E 0 9d 30 64
        E 82 8d 3c 40
        E 0 8d 30 40
        E 14 9d 3a 64
        E 0 9d 2e 64
        E 82 8d 3a 40
        E 0 8d 2e 40
        E 14 9d 39 64
        E 0 9d 2d 64
        E 82 8d 39 40
        E 0 8d 2d 40
        E 14 9d 38 64
        E 0 9d 2c 64
        E 82 8d 38 40
        E 0 8d 2c 40
        E 14 9d 37 64
        E 0 9d 2b 64
        E 82 8d 37 40
        E 0 8d 2b 40
        E 14 9d 35 64
        E 0 9d 29 64
        E 82 8d 35 40
        E 0 8d 29 40
        E 14 9d 27 64
        E 0 9d 33 64
        E 82 8d 27 40
        E 0 8d 33 40
        E 14 9d 3a 64
        E 0 9d 37 64
        E 82 8d 3a 40
        E 0 8d 37 40
        E 14 9d 38 64
        E 0 9d 3c 64
        E 82 8d 3c 40
        E 14 9d 3e 64
        E 0 9d 3a 64
        E 82 8d 38 40
        E 0 8d 3e 40
        E 0 8d 3a 40
        E 14 9d 33 64
        E 82 8d 33 40
        E 14 9d 3a 64
        E 0 9d 3f 64
        E 0 9d 37 64
        E 82 8d 3a 40
        E 0 8d 3f 40
        E 0 8d 37 40
        E 14 9d 2e 64
        E 82 8d 2e 40
        E 14 9d 3e 64
        E 0 9d 38 64
        E 0 9d 3a 64
        E 82 8d 3e 40
        E 0 8d 38 40
        E 0 8d 3a 40
        E 14 9d 33 64
        E 82 8d 33 40
        E 14 9d 3a 64
        E 0 9d 37 64
        E 0 9d 3f 64
        E 82 8d 3a 40
        E 0 8d 37 40
        E 0 8d 3f 40
        E 14 9d 3a 64
        E 0 9d 3f 64
        E 0 9d 37 64
        E 82 8d 3a 40
        E 0 8d 3f 40
        E 0 8d 37 40
        E 14 9d 3a 64
        E 0 9d 37 64
        E 0 9d 3f 64
        E 82 8d 3a 40
        E 0 8d 37 40
        E 0 8d 3f 40
        E 14 9d 33 64
        E 82 8d 33 40
        E 14 9d 3a 64
        E 0 9d 3f 64
        E 0 9d 37 64
        E 82 8d 3a 40
        E 0 8d 3f 40
        E 0 8d 37 40
        E 14 9d 2c 64
        E 82 8d 2c 40
        E 14 9d 33 64
        E 0 9d 30 64
        E 82 8d 33 40
        E 0 8d 30 40
        E 14 9d 2e 64
        E 82 8d 2e 40
        E 14 9d 33 64
        E 0 9d 37 64
        E 82 8d 33 40
        E 0 8d 37 40
        E 14 9d 33 64
        E 0 9d 37 64
        E 82 8d 33 40
        E 0 8d 37 40
        E 14 9d 33 64
        E 0 9d 37 64
        E 82 8d 33 40
        E 0 8d 37 40
        E 14 9d 2e 64
        E 82 8d 2e 40
        E 14 9d 35 64
        E 0 9d 38 64
        E 82 8d 35 40
        E 0 8d 38 40
        E 14 9d 2e 64
        E 82 8d 2e 40
        E 14 9d 38 64
        E 0 9d 35 64
        E 82 8d 38 40
        E 0 8d 35 40
        E 14 9d 2f 64
        E 82 8d 2f 40
        E 14 9d 35 64
        E 0 9d 32 64
        E 0 9d 37 64
        E 82 8d 35 40
        E 0 8d 32 40
        E 0 8d 37 40
        E 14 9d 35 64
        E 0 9d 32 64
        E 0 9d 37 64
        E 82 8d 35 40
        E 0 8d 32 40
        E 0 8d 37 40
        E 14 9d 35 64
        E 0 9d 32 64
        E 0 9d 37 64
        E 82 8d 35 40
        E 0 8d 32 40
        E 0 8d 37 40
        E 14 9d 30 64
        E 82 8d 30 40
        E 14 9d 33 64
        E 0 9d 37 64
        E 82 8d 33 40
        E 0 8d 37 40
        E 14 9d 32 64
        E 82 8d 32 40
        E 14 9d 38 64
        E 0 9d 3a 64
        E 0 9d 35 64
        E 82 8d 38 40
        E 0 8d 3a 40
        E 0 8d 35 40
        E 14 9d 33 64
        E 82 8d 33 40
        E 14 9d 3a 64
        E 0 9d 37 64
        E 82 8d 3a 40
        E 0 8d 37 40
        E 14 9d 3c 64
        E 0 9d 38 64
        E 82 8d 3c 40
        E 0 8d 38 40
        E 14 9d 3a 64
        E 0 9d 3e 64
        E 82 8d 3e 40
        E 14 9d 33 64
        E 82 8d 3a 40
        E 0 8d 33 40
        E 14 9d 3f 64
        E 0 9d 3a 64
        E 0 9d 37 64
        E 82 8d 3f 40
        E 0 8d 3a 40
        E 0 8d 37 40
        E 14 9d 2c 64
        E 82 8d 2c 40
        E 14 9d 38 64
        E 82 8d 38 40
        E 14 9d 2b 64
        E 82 8d 2b 40
        E 14 9d 32 64
        E 82 8d 32 40
        E 14 9d 37 64
        E 82 8d 37 40
        E 14 9d 2f 64
        E 82 8d 2f 40
        E 14 9d 30 64
        E 82 8d 30 40
        E 14 9d 33 64
        E 0 9d 37 64
        E 82 8d 33 40
        E 0 8d 37 40
        E 14 9d 2c 64
        E 82 8d 2c 40
        E 14 9d 33 64
        E 0 9d 38 64
        E 82 8d 33 40
        E 0 8d 38 40
        E 14 9d 2e 64
        E 82 8d 2e 40
        E 14 9d 33 64
        E 82 8d 33 40
        E 14 9d 37 64
        E 82 8d 37 40
        E 14 9d 3a 64
        E 82 8d 3a 40
        E 14 9d 2e 64
        E 82 8d 2e 40
        E 14 9d 3a 64
        E 82 8d 3a 40
        E 14 9d 38 64
        E 82 8d 38 40
        E 14 9d 35 64
        E 82 8d 35 40
        E 14 9d 33 64
        E 82 8d 33 40
        E 14 9d 2e 64
        E 82 8d 2e 40
        E 14 9d 2b 64
        E 82 8d 2b 40
        E 14 9d 2e 64
        E 82 8d 2e 40
        E 14 9d 27 64
        E 178 8d 27 40
        E 14 b0 7b 00
        GUID {D7D1A523-16ED-CE4C-BA31-F45CD6120C01}
        IGNTEMPO 0 120 4 4
        SRCCOLOR 438
        VELLANE -1 86 6
      >
    >
  >
  <TRACK {B91E5163-8C2B-404F-8C78-0605AAF52936}
    NAME ChipFront
    PEAKCOL 16576
    BEAT -1
    AUTOMODE 0
    VOLPAN 1 0 -1 -1 1
    MUTESOLO 0 0 0
    IPHASE 0
    ISBUS 0 0
    BUSCOMP 0 0
    SHOWINMIX 1 0.6667 0.698113 1 0.5 -1 -1 -1
    FREEMODE 0
    SEL 0
    REC 0 0 0 0 0 0 0
    VU 2
    TRACKHEIGHT 0 0
    INQ 0 0 0 0.5 100 0 0 100
    NCHAN 4
    FX 1
    TRACKID {B91E5163-8C2B-404F-8C78-0605AAF52936}
    PERF 0
    AUXRECV 4 0 1 0 0 0 0 0 0 -1 0 -1 ''
    MIDIOUT -1
    MAINSEND 1 0
    <FXCHAIN
      SHOW 0
      LASTSEL 0
      DOCKED 0
      BYPASS 0 0 0
      <VST "VST: FabFilter Volcano 2 (SC) (FabFilter)" "FabFilter Volcano 2 (SC).vst" 0 ""
        NDJWRu9e7f4EAAAAAQAAAAAAAAACAAAAAAAAAAQAAAAAAAAACAAAAAAAAAAEAAAAAQAAAAAAAAACAAAAAAAAAAQAAAAAAAAACAAAAAAAAADcCwAAAAAAAAAAEADvvq3e
        DfCt3gAAAD8AAAA/AAAAPwAAAD8AAIA/AAAAAAAAAD+rqqo+rb5oPwAAAD+KDTI8zczMPQAAAAAAAAAAAAAAAAAAgD8AAIA/Qix2PwAAAD9tsOA9mpkZPwAAAAAAAAAA
        56/fPAAAgD8AAAAAAACAPwAAAD8AAAAAmpkZPwAAAAAAAAAAAAAAAAAAgD8AAAAAAACAPwAAAD8AAAAAmpkZPwAAAAAAAAAAAAAAAAAAgD8AAAAAq6qqPgBOsj4AAAA/
        AAAAAMHKST9ddFE/AAAAAImIiD0AAIA/qheIPgAAAAAAAAAAAAAAAAAAAAAAAIA/AAAAAAAAAD8AAAAAAAAAAAAAAAAAAAA/AAAAAAAAAAAAAAAAAAAAPwAAAAAAAAAA
        AAAAAAAAAD8AAAAAAAAAAAAAAAAAAAA/AAAAAAAAAAAAAAAAAAAAPwAAAAAAAAAAAAAAAAAAAD8AAAAAAAAAAAAAAAAAAAA/AAAAAAAAAAAAAAAAAAAAPwAAAAAAAAAA
        AAAAAAAAAD8AAAAAAAAAAAAAAAAAAAA/AAAAAAAAAAAAAAAAAAAAPwAAAAAAAAAAAAAAAAAAAD8AAAAAAAAAAAAAAAAAAAA/AAAAAAAAAAAAAAAAfBkQPgAAAD8oo7c9
        AACAPwAAAAAAAAAAiYiIPfLSJT8AAAAAAACAPwAAAAB0aNE9AAAAAAAAgD8AAAAAAAAAPwAAAAAAAAAAAAAAAAAAAD8AAAAAAAAAAAAAAAAAAAA/AAAAAAAAAAAAAAAA
        AAAAPwAAAAAAAAAAAAAAAAAAAD8AAAAAAAAAAAAAAAAAAAA/AAAAAAAAAAAAAAAAAAAAPwAAAAAAAAAAAAAAAAAAAD8AAAAAAAAAAAAAAAAAAAA/AAAAAAAAAAAAAAAA
        AAAAPwAAAAAAAAAAAAAAAAAAAD8AAAAAAAAAAAAAAAAAAAA/AAAAAAAAAAAAAAAAAAAAPwAAAAAAAAAAAAAAAAAAAD8AAAAAAAAAAAAAAAC+9H0+AAAAPwAAAD8AAAA/
        AAAAAAAAAACJiIg9AAAAPwAAAAAAAAAAAAAAAAAAAD8AAAAAAAAAAAAAAAAAAAA/AAAAAAAAAAAAAAAAAAAAPwAAAAAAAAAAAAAAAAAAAD8AAAAAAAAAAAAAAAAAAAA/
        AAAAAAAAAAAAAAAAAAAAPwAAAAAAAAAAAAAAAAAAAD8AAAAAAAAAAAAAAAAAAAA/AAAAAAAAAAAAAAAAAAAAPwAAAAAAAAAAAAAAAAAAAD8AAAAAAAAAAAAAAAAAAAA/
        AAAAAAAAAAAAAAAAAAAAPwAAAAAAAAAAAAAAAAAAAD8AAAAAAAAAAAAAAAAAAAA/AAAAAAAAAAAAAAAAAAAAPwAAAAAAAAAAAAAAAL70fT4AAAA/AAAAPwAAAD8AAAAA
        AAAAAImIiD0AAAA/AAAAAAAAAAAAAAAAAAAAPwAAAAAAAAAAAAAAAAAAAD8AAAAAAAAAAAAAAAAAAAA/AAAAAAAAAAAAAAAAAAAAPwAAAAAAAAAAAAAAAAAAAD8AAAAA
        AAAAAAAAAAAAAAA/AAAAAAAAAAAAAAAAAAAAPwAAAAAAAAAAAAAAAAAAAD8AAAAAAAAAAAAAAAAAAAA/AAAAAAAAAAAAAAAAAAAAPwAAAAAAAAAAAAAAAAAAAD8AAAAA
        AAAAAAAAAAAAAAA/AAAAAAAAAAAAAAAAAAAAPwAAAAAAAAAAAAAAAAAAAD8AAAAAAAAAAAAAAAAAAAA/AAAAAAAAAAAAAAAAvvR9PgAAAD8AAAA/AAAAPwAAAAAAAAAA
        iYiIPQAAAD8AAAAAAAAAAAAAAAAAAAA/AAAAAAAAAAAAAAAAAAAAPwAAAAAAAAAAAAAAAAAAAD8AAAAAAAAAAAAAAAAAAAA/AAAAAAAAAAAAAAAAAAAAPwAAAAAAAAAA
        AAAAAAAAAD8AAAAAAAAAAAAAAAAAAAA/AAAAAAAAAAAAAAAAAAAAPwAAAAAAAAAAAAAAAAAAAD8AAAAAAAAAAAAAAAAAAAA/AAAAAAAAAAAAAAAAAAAAPwAAAAAAAAAA
        AAAAAAAAAD8AAAAAAAAAAAAAAAAAAAA/AAAAAAAAAAAAAAAAAAAAPwAAAAAAAAAAAAAAAAAAAD8AAAAAAAAAAAAAAAC+9H0+AAAAPwAAAD8AAAA/AAAAAAAAAACJiIg9
        AAAAPwAAAAAAAAAAAAAAAAAAAD8AAAAAAAAAAAAAAAAAAAA/AAAAAAAAAAAAAAAAAAAAPwAAAAAAAAAAAAAAAAAAAD8AAAAAAAAAAAAAAAAAAAA/AAAAAAAAAAAAAAAA
        AAAAPwAAAAAAAAAAAAAAAAAAAD8AAAAAAAAAAAAAAAAAAAA/AAAAAAAAAAAAAAAAAAAAPwAAAAAAAAAAAAAAAAAAAD8AAAAAAAAAAAAAAAAAAAA/AAAAAAAAAAAAAAAA
        AAAAPwAAAAAAAAAAAAAAAAAAAD8AAAAAAAAAAAAAAAAAAAA/AAAAAAAAAAAAAAAAAAAAPwAAAAAAAAAAAAAAAAAAAACamZk+AAAAAAAAAAAAAAAAAACAPwAAAACamZk+
        AAAAAAAAAAAAAAAAAACAPwAAAACamZk+AAAAAAAAAAAAAAAAAACAPwAAAACamZk+AAAAAAAAAAAAAAAAAACAPwAAAACamZk+AAAAAAAAAAAAAAAAAACAPwAAAACamZk+
        AAAAAAAAAAAAAAAAAACAPwAAAAAAAAAAAAAAAAAAAAAAAAAAAAAAAAAAAAAAAAAAAAAAAAAAAAAAAAAAAAAAAAAAAAAAAAAAAAAAAAAAAAAAAAAAAAAAAAAAAAAAAAAA
        AAAAAAAAAAAAAAAAAAAAAAAAAAAAAAAAAAAAAAAAAAAAAAAAAAAAAAAAAAAAAAAAAAAAAAAAAAAAAAAAAAAAAAAAAAAAAAAAq6oqPdmJnT2BKFY+AAAAAAAAAAC/55Y9
        AAAAAAAAAD8AAAAAAAAAAAAAAAAAAAAAAAAAPwAAAAAAAAAAAAAAAAAAAAAAAAA/AAAAAAAAAAAAAAAAAAAAAAAAAAAAAAAAAAAAAAAAAAAAAAAAAAAAAAAAAAAAAAAA
        AAAAAAAAAAAAAAAAAAAAAAAAAAAAAAAAAAAAAAAAAAAAAAAAAAAAAAAAAAAAAAAAAAAAAAAAAAAAAAAAAAAAAAAAAAAAAAAAAAAAAAAAAAAAAAAAAAAAAAAAAAAAAAAA
        AAAAAAAAAAAAAAAAAAAAAAAAAAAAAAAAAAAAAAAAAAAAAAAAAAAAAAAAAAAAAAAAAAAAAAAAAAAAAAAAAAAAAAAAAAAAAAAAAAAAAAAAAAAAAAAAAAAAAAAAAAAAAAAA
        AAAAAAAAAAAAAAAAAAAAAAAAAAAAAAAAAAAAAAAAAAAAAAAAAAAAAAAAAAAAAAAAAAAAAAAAAAAAAAAAAAAAAAAAAAAAAAAAAAAAAAAAAAAAAAAAAAAAAAAAAAAAAAAA
        AAAAAAAAAAAAAAAAAAAAAAAAAAAAAAAAAAAAAAAAAAAAAAAAAAAAAAAAAAAAAAAAAAAAAAAAAAAAAAAAAAAAAAAAAAAAAAAAAAAAAAAAAAAAAAA/AAAAPwAAAD8AAAA/
        AAAAPwAAAD8AAAA/AAAAPwAAAAAAAAAAAAAAAAAAAAAAAAAAAAAAAAAAAAAAAAAAAAAAAAAAAAAAAAAAAAAAAAAAAAAAAAAAAAAAAAAAAAAAAAAAAAAAAAAAAAAAAAAA
        AAAAAAAAAAAAAAAAAAAAAAAAAAAAAAAAAAAAAAAAAAAAAAAAAAAAAAAAAAAAAAAAAAAAAAAAAAAAAAAAAAAAAAAAAAAAAAAAAAAAAAAAAAAAAAAAAAAAAAAAAAAAAAAA
        AAAAAAAAAAAAAAAAAAAAAAAAAAAAAAAAAAAAAAAAAAAAAAAAAAAAAAAAAAAAAAAAAAAAAAAAAAAAAAAAAAAAAAAAAAAAAAAAAAAAAAAAAAAAAAAAAAAAAAAAAAAAAAAA
        AAAAAAAAAAAAAAAAAAAAAAAAAAAAAAAAAAAAAAAAAAAAAAAAAAAAAAAAAAAAAAAAAAAAAAAAAABDaGlwRnJvbnQAQ2hpcEZyb250ABAAAAA=
      >
      FLOATPOS 36 32 641 529
      FXID {4C5A6810-F3ED-0645-A06D-6758F70CB097}
      WAK 0
    >
  >
  <TRACK {4E9F66C4-38E7-4946-B39F-214CBB1CFB8B}
    NAME ChipSide
    PEAKCOL 16576
    BEAT -1
    AUTOMODE 0
    VOLPAN 1 0 -1 -1 1
    MUTESOLO 0 0 0
    IPHASE 0
    ISBUS 0 0
    BUSCOMP 0 0
    SHOWINMIX 1 0.6667 0.698113 1 0.5 -1 -1 -1
    FREEMODE 0
    SEL 0
    REC 0 0 0 0 0 0 0
    VU 2
    TRACKHEIGHT 0 0
    INQ 0 0 0 0.5 100 0 0 100
    NCHAN 4
    FX 1
    TRACKID {4E9F66C4-38E7-4946-B39F-214CBB1CFB8B}
    PERF 0
    AUXRECV 4 0 1.03113579563571 0 0 0 0 2 0 -1 0 -1 ''
    MIDIOUT -1
    MAINSEND 1 0
    <FXCHAIN
      SHOW 0
      LASTSEL 0
      DOCKED 0
      BYPASS 0 0 0
      <VST "VST: FabFilter Volcano 2 (SC) (FabFilter)" "FabFilter Volcano 2 (SC).vst" 0 ""
        NDJWRu9e7f4EAAAAAQAAAAAAAAACAAAAAAAAAAQAAAAAAAAACAAAAAAAAAAIAAAAAQAAAAAAAAACAAAAAAAAAAQAAAAAAAAACAAAAAAAAAAQAAAAAAAAACAAAAAAAAAA
        QAAAAAAAAACAAAAAAAAAANwLAAAAAAAAAAAQAO++rd4N8K3eAAAAPwAAAD8AAAA/AAAAPwAAgD8AAAAAAACAP6uqqj7KZRQ/AAAAP08aoD3NzMw9AAAAAAAAAABChiI/
        AACAPwAAgD9CLHY/AAAAP22w4D2amRk/AAAAAAAAAADnr988AACAPwAAAAAAAIA/AAAAPwAAAACamRk/AAAAAAAAAAAAAAAAAACAPwAAAAAAAIA/AAAAPwAAAACamRk/
        AAAAAAAAAAAAAAAAAACAPwAAAACrqqo+gnQAPRDmyT2YJ/o+AACAPwAAAAAAAAAAiYgIPgAAgD+zw7Q+AACAPwAAAAAAAAAAAAAAAKuqqj4AAAAAnhUdPwAAAAAAAIA/
        AAAAAAAAAD8AAAAAAAAAAAAAAAAAAAA/AAAAAAAAAAAAAAAAAAAAPwAAAAAAAAAAAAAAAAAAAD8AAAAAAAAAAAAAAAAAAAA/AAAAAAAAAAAAAAAAAAAAPwAAAAAAAAAA
        AAAAAAAAAD8AAAAAAAAAAAAAAAAAAAA/AAAAAAAAAAAAAAAAAAAAPwAAAAAAAAAAAAAAAAAAAD8AAAAAAAAAAAAAAAAAAAA/AAAAAAAAAAAAAAAAAAAAPwAAAAAAAAAA
        AAAAAAAAAD8AAAAAAAAAAAAAAAB8GRA+AAAAPyijtz0AAIA/AAAAAAAAAACJiIg98tIlPwAAAAAAAIA/AAAAAHRo0T0AAAAAAACAPwAAAAAAAAA/AAAAAAAAAAAAAAAA
        AAAAPwAAAAAAAAAAAAAAAAAAAD8AAAAAAAAAAAAAAAAAAAA/AAAAAAAAAAAAAAAAAAAAPwAAAAAAAAAAAAAAAAAAAD8AAAAAAAAAAAAAAAAAAAA/AAAAAAAAAAAAAAAA
        AAAAPwAAAAAAAAAAAAAAAAAAAD8AAAAAAAAAAAAAAAAAAAA/AAAAAAAAAAAAAAAAAAAAPwAAAAAAAAAAAAAAAAAAAD8AAAAAAAAAAAAAAAAAAAA/AAAAAAAAAAAAAAAA
        AAAAPwAAAAAAAAAAAAAAAL70fT4AAAA/AAAAPwAAAD8AAAAAAAAAAImIiD0AAAA/AAAAAAAAAAAAAAAAAAAAPwAAAAAAAAAAAAAAAAAAAD8AAAAAAAAAAAAAAAAAAAA/
        AAAAAAAAAAAAAAAAAAAAPwAAAAAAAAAAAAAAAAAAAD8AAAAAAAAAAAAAAAAAAAA/AAAAAAAAAAAAAAAAAAAAPwAAAAAAAAAAAAAAAAAAAD8AAAAAAAAAAAAAAAAAAAA/
        AAAAAAAAAAAAAAAAAAAAPwAAAAAAAAAAAAAAAAAAAD8AAAAAAAAAAAAAAAAAAAA/AAAAAAAAAAAAAAAAAAAAPwAAAAAAAAAAAAAAAAAAAD8AAAAAAAAAAAAAAAAAAAA/
        AAAAAAAAAAAAAAAAvvR9PgAAAD8AAAA/AAAAPwAAAAAAAAAAiYiIPQAAAD8AAAAAAAAAAAAAAAAAAAA/AAAAAAAAAAAAAAAAAAAAPwAAAAAAAAAAAAAAAAAAAD8AAAAA
        AAAAAAAAAAAAAAA/AAAAAAAAAAAAAAAAAAAAPwAAAAAAAAAAAAAAAAAAAD8AAAAAAAAAAAAAAAAAAAA/AAAAAAAAAAAAAAAAAAAAPwAAAAAAAAAAAAAAAAAAAD8AAAAA
        AAAAAAAAAAAAAAA/AAAAAAAAAAAAAAAAAAAAPwAAAAAAAAAAAAAAAAAAAD8AAAAAAAAAAAAAAAAAAAA/AAAAAAAAAAAAAAAAAAAAPwAAAAAAAAAAAAAAAAAAAD8AAAAA
        AAAAAAAAAAC+9H0+AAAAPwAAAD8AAAA/AAAAAAAAAACJiIg9AAAAPwAAAAAAAAAAAAAAAAAAAD8AAAAAAAAAAAAAAAAAAAA/AAAAAAAAAAAAAAAAAAAAPwAAAAAAAAAA
        AAAAAAAAAD8AAAAAAAAAAAAAAAAAAAA/AAAAAAAAAAAAAAAAAAAAPwAAAAAAAAAAAAAAAAAAAD8AAAAAAAAAAAAAAAAAAAA/AAAAAAAAAAAAAAAAAAAAPwAAAAAAAAAA
        AAAAAAAAAD8AAAAAAAAAAAAAAAAAAAA/AAAAAAAAAAAAAAAAAAAAPwAAAAAAAAAAAAAAAAAAAD8AAAAAAAAAAAAAAAAAAAA/AAAAAAAAAAAAAAAAAAAAPwAAAAAAAAAA
        AAAAAL70fT4AAAA/AAAAPwAAAD8AAAAAAAAAAImIiD0AAAA/AAAAAAAAAAAAAAAAAAAAPwAAAAAAAAAAAAAAAAAAAD8AAAAAAAAAAAAAAAAAAAA/AAAAAAAAAAAAAAAA
        AAAAPwAAAAAAAAAAAAAAAAAAAD8AAAAAAAAAAAAAAAAAAAA/AAAAAAAAAAAAAAAAAAAAPwAAAAAAAAAAAAAAAAAAAD8AAAAAAAAAAAAAAAAAAAA/AAAAAAAAAAAAAAAA
        AAAAPwAAAAAAAAAAAAAAAAAAAD8AAAAAAAAAAAAAAAAAAAA/AAAAAAAAAAAAAAAAAAAAPwAAAAAAAAAAAAAAAAAAAD8AAAAAAAAAAAAAAAAAAAA/AAAAAAAAAAAAAAAA
        AAAAAJqZmT4AAAAAAAAAAAAAAAAAAIA/AAAAAJqZmT4AAAAAAAAAAAAAAAAAAIA/AAAAAJqZmT4AAAAAAAAAAAAAAAAAAIA/AAAAAJqZmT4AAAAAAAAAAAAAAAAAAIA/
        AAAAAJqZmT4AAAAAAAAAAAAAAAAAAIA/AAAAAJqZmT4AAAAAAAAAAAAAAAAAAIA/AAAAAAAAAAAAAAAAAAAAAAAAAAAAAAAAAAAAAAAAAAAAAAAAAAAAAAAAAAAAAAAA
        AAAAAAAAAAAAAAAAAAAAAAAAAAAAAAAAAAAAAAAAAAAAAAAAAAAAAAAAAAAAAAAAAAAAAAAAAAAAAAAAAAAAAAAAAAAAAAAAAAAAAAAAAAAAAAAAAAAAAAAAAAAAAAAA
        AAAAAAAAAACrqqo92YmdPYEoVj4AAIA/AAAAAL/nlj3ZiR09FrMxPwAAAAAAAAAAknYsPAAAAAAAAAA/AAAAAAAAAAAAAAAAAAAAAAAAAD8AAAAAAAAAAAAAAAAAAAAA
        AAAAAAAAAAAAAAAAAAAAAAAAAAAAAAAAAAAAAAAAAAAAAAAAAAAAAAAAAAAAAAAAAAAAAAAAAAAAAAAAAAAAAAAAAAAAAAAAAAAAAAAAAAAAAAAAAAAAAAAAAAAAAAAA
        AAAAAAAAAAAAAAAAAAAAAAAAAAAAAAAAAAAAAAAAAAAAAAAAAAAAAAAAAAAAAAAAAAAAAAAAAAAAAAAAAAAAAAAAAAAAAAAAAAAAAAAAAAAAAAAAAAAAAAAAAAAAAAAA
        AAAAAAAAAAAAAAAAAAAAAAAAAAAAAAAAAAAAAAAAAAAAAAAAAAAAAAAAAAAAAAAAAAAAAAAAAAAAAAAAAAAAAAAAAAAAAAAAAAAAAAAAAAAAAAAAAAAAAAAAAAAAAAAA
        AAAAAAAAAAAAAAAAAAAAAAAAAAAAAAAAAAAAAAAAAAAAAAAAAAAAAAAAAAAAAAAAAAAAAAAAAAAAAAAAAAAAAAAAAAAAAAAAAAAAAAAAAAAAAAAAAAAAAAAAAAAAAAAA
        AAAAAAAAAAAAAAAAAAAAAAAAAD8AAAA/AAAAPwAAAD8AAAA/AAAAPwAAAD8AAAA/AAAAAAAAAAAAAAAAAAAAAAAAAAAAAAAAAAAAAAAAAAAAAAAAAAAAAAAAAAAAAAAA
        AAAAAAAAAAAAAAAAAAAAAAAAAAAAAAAAAAAAAAAAAAAAAAAAAAAAAAAAAAAAAAAAAAAAAAAAAAAAAAAAAAAAAAAAAAAAAAAAAAAAAAAAAAAAAAAAAAAAAAAAAAAAAAAA
        AAAAAAAAAAAAAAAAAAAAAAAAAAAAAAAAAAAAAAAAAAAAAAAAAAAAAAAAAAAAAAAAAAAAAAAAAAAAAAAAAAAAAAAAAAAAAAAAAAAAAAAAAAAAAAAAAAAAAAAAAAAAAAAA
        AAAAAAAAAAAAAAAAAAAAAAAAAAAAAAAAAAAAAAAAAAAAAAAAAAAAAAAAAAAAAAAAAAAAAAAAAAAAAAAAAAAAAAAAAAAAAAAAAAAAAAAAAAAAAAAAAAAAAENoaXBTaWRl
        AENoaXBTaWRlABAAAAA=
      >
      FLOATPOS 36 32 641 529
      FXID {20356A84-5CFD-6E4A-AA26-2A8A49CE7A76}
      WAK 0
    >
  >
  <TRACK {99462CA5-3AFA-4046-97B6-9018EFC04DEE}
    NAME "04 Luxembourg"
    PEAKCOL 16576
    BEAT -1
    AUTOMODE 0
    VOLPAN 1 0 -1 -1 1
    MUTESOLO 1 0 0
    IPHASE 0
    ISBUS 0 0
    BUSCOMP 0 0
    SHOWINMIX 1 0.6667 0.5 1 0.5 -1 -1 -1
    FREEMODE 0
    SEL 0
    REC 0 0 0 0 0 0 0
    VU 2
    TRACKHEIGHT 0 0
    INQ 0 0 0 0.5 100 0 0 100
    NCHAN 2
    FX 1
    TRACKID {99462CA5-3AFA-4046-97B6-9018EFC04DEE}
    PERF 0
    MIDIOUT -1
    MAINSEND 1 0
    <ITEM
      POSITION 1.25345025520341
      SNAPOFFS 0
      LENGTH 44.74654974479649
      LOOP 1
      ALLTAKES 0
      FADEIN 1 0 0 1 0 0
      FADEOUT 1 0 0 1 0 0
      MUTE 0
      SEL 0
      IGUID {346E62D0-A65A-2343-8EC0-6457D1B4A806}
      IID 7
      NAME "04 Luxembourg.mp3"
      VOLPAN 1 0 1 -1
      SOFFS 0
      PLAYRATE 1.96365233001869 1 3 -1 0 0.0025
      CHANMODE 0
      GUID {89868D72-46CC-114B-B4AB-C5CC5F2BDBC6}
      <SOURCE MP3
        FILE "04 Luxembourg.mp3" 1
      >
    >
  >
  <EXTENSIONS
    <SWSAUTOCOLOR
      {00000000-0000-0000-0000-000000000000} 0 ""
      {99462CA5-3AFA-4046-97B6-9018EFC04DEE} 0 ""
    >
    <XENAKIOSCOMMANDS
      REFTRACK 0 5 1 "000000000000"
    >
    <BR_CURSOR_POS 04
      0.00000000000000
    >
  >
>
