<REAPER_PROJECT 0.1 "5.79pre3/OSX64" 1520440428
  RIPPLE 0
  GROUPOVERRIDE 0 0 0
  AUTOXFADE 0
  ENVATTACH 1
  POOLEDENVATTACH 0
  MIXERUIFLAGS 11 436
  PEAKGAIN 1
  FEEDBACK 0
  PANLAW 1
  PROJOFFS 0 0
  MAXPROJLEN 0 600
  GRID 174206 8 1 8 1 0 0 0
  TIMEMODE 6 0 -1 24 2
  PANMODE 3
  CURSOR 1.5
  ZOOM 7.34055083106344 0 0
  VZOOMEX 0
  USE_REC_CFG 0
  RECMODE 1
  SMPTESYNC 0 23.976024 100 40 1000 300 0 0 1 0 0
  MIDIEDITOR -116919545 0 0
  LOOP 1
  LOOPGRAN 0 4
  RECORD_PATH "" ""
  <RECORD_CFG
    ZXZhdxAA
  >
  <APPLYFX_CFG
  >
  RENDER_FILE "/Users/samenglander/_create/ColorFlagsAudio/Magee_Anthems/Luxembourg/stems/luxembourg.wav"
  RENDER_FMT 0 2 44100
  RENDER_1X 0
  RENDER_RANGE 3 0 0 18 1000
  RENDER_RESAMPLE 3 0 1
  RENDER_ADDTOPROJ 0
  RENDER_STEMS 8
  RENDER_DITHER 0
  TIMELOCKMODE 1
  TEMPOENVLOCKMODE 1
  ITEMMIX 1
  DEFPITCHMODE 589824
  TAKELANE 3
  SAMPLERATE 44100 0 0
  <RENDER_CFG
    ZXZhdxgAAA==
  >
  LOCK 1
  <METRONOME 6 2
    VOL 0.25 0.125
    FREQ 800 1600 1
    BEATLEN 4
    SAMPLES "" ""
    PATTERN 2863311530 2863311529
  >
  GLOBAL_AUTO -1
  TEMPO 120 4 4
  PLAYRATE 1 0 0.25 4
  SELECTION 1.5 41.5
  SELECTION2 1.5 41.5
  MASTERAUTOMODE 0
  MASTERTRACKHEIGHT 0
  MASTERPEAKCOL 16576
  MASTERMUTESOLO 0
  MASTERTRACKVIEW 0 0.6667 0.276119 0.5 0 0 0
  MASTERHWOUT 0 0 1 0 0 0 0 -1
  MASTER_NCH 2 2
  MASTER_VOLUME 1 0 -1 -1 1
  MASTER_FX 1
  MASTER_SEL 0
  <MASTERPLAYSPEEDENV
    ACT 0 -1
    VIS 0 1 1
    LANEHEIGHT 0 0
    ARM 0
    DEFSHAPE 0 -1 -1
  >
  <TEMPOENVEX
    ACT 0 -1
    VIS 1 0 1
    LANEHEIGHT 0 0
    ARM 0
    DEFSHAPE 1 -1 -1
  >
  MARKER 1 1.5 loop 1 31370253 1 B
  <REGIONRENDER 1
    TRACK {4E9F66C4-38E7-4946-B39F-214CBB1CFB8B}
    TRACK {B91E5163-8C2B-404F-8C78-0605AAF52936}
    TRACK {A26B8C2D-9EE6-0440-AA6B-121F89FB50DD}
    TRACK {F23F8223-271A-294D-A229-F474D58B7A97}
  >
  MARKER 1 41.5 "" 1 31370253 1 B
  <PROJBAY
  >
  <TRACK {F23F8223-271A-294D-A229-F474D58B7A97}
    NAME "vst Gladiator"
    PEAKCOL 27222112
    BEAT -1
    AUTOMODE 0
    VOLPAN 1 0 -1 -1 1
    MUTESOLO 0 0 0
    IPHASE 0
    ISBUS 0 0
    BUSCOMP 2 0
    SHOWINMIX 1 0.6667 0.276119 1 0.5 0 0 0
    FREEMODE 0
    SEL 0
    REC 0 0 0 0 0 0 0
    VU 2
    TRACKHEIGHT 0 0
    INQ 0 0 0 0.5 100 0 0 100
    NCHAN 2
    FX 1
    TRACKID {F23F8223-271A-294D-A229-F474D58B7A97}
    PERF 0
    MIDIOUT -1
    MAINSEND 1 0
    <FXCHAIN
      SHOW 0
      LASTSEL 0
      DOCKED 0
      BYPASS 0 0 0
      <VST "VSTi: Gladiator (Tone2.com)" Gladiator.vst 0 "" 1412581196
        TEcyVO5e7f4AAAAAAgAAAAEAAAAAAAAAAgAAAAAAAABaBAAAAQAAAAAAEAA=
        Q2NuSwAAAGBGeENrAAAAAVQyR0wAAAABAAABB0luaXQAAAAAAAAAAAAAAAAAAAAAAAAAAAAAAAA9zMzNPMzMzTw0OVg9uFH0PXnbIz+AAAA7xJumPb52yT+AAAA7xJum
        AAAAAD6mZmY+PXCkP4AAAD7FHrk/AAAAPwAAAAAAAAA9ffO2PdDlYDy8an8/RR64AAAAAD+AAAA8NDlYPZFocz71wo87RJumPbhR6D69cKQ+PXCkP4AAAD8AAAA/A9cL
        PwAAAAAAAAAAAAAAPwAAAD8AAAA/AAAAPtmZmj8AAAAAAAAAO+VgQj24UesAAAAAPk21xDtEm6Y/S4UeAAAAAAAAAAA+64UgPpR64T1hR7A+z1woPx64Uj49cKY/AAAA
        PwAAAAAAAAAAAAAAPwAAAAAAAAAAAAAAP4AAAD+AAAAAAAAAPxHrhT8AAAA/AAAAPwAAAD8AAAAAAAAAPwAAAD8AAAA/AAAAAAAAAD8AAAA/AAAAPwAAAAAAAAA6gxJv
        P1Cj1wAAAAA/gAAAAAAAADqDEm8/AAAAAAAAAAAAAAAAAAAAPwAAAAAAAAA/gAAAAAAAAD+AAAAAAAAAPwAAAD8AAAA/AAAAPwAAAD8AAAA/AAAAPwAAAD8AAAA/AAAA
        PwAAAD8AAAA/EeuGPKPXCjqDEm88RJumAAAAAAAAAAAAAAAAPLxqfwAAAAAAAAAAAAAAAAAAAAAAAAAAAAAAAAAAAAAAAAAAAAAAAAAAAAAAAAAAAAAAAAAAAAAAAAAA
        AAAAAAAAAAA8E3S8AAAAADw0OVgAAAAAPBN0vAAAAAA8NDlYAAAAADwTdLwAAAAAPDQ5WAAAAAA8E3S8AAAAADw0OVgAAAAAPGVgQj2HKwI8ZWBCOwMSbz2JN0w7AxJv
        PLQ5WDyLQ5Y8k3S8PVT99D0XjVA8zMzNPoAAAD9ywjU/AAAAP1GnuT8wjT4/HLCNAAAAADsDEm86gxJvAAAAAAAAAAAAAAAAPwAAADqDEm87RJumP4AAAAAAAAA/gAAA
        AAAAAD+AAAAAAAAAAAAAAAAAAAAAAAAAP4AAAAAAAAA/AAAAAAAAAD8AAAA/BR64PwAAAD+AAAA/AAAAPwAAAD8AAAA/gAAAP4AAAAAAAAAAAAAAAAAAAD8AAAA/gAAA
        PwAAAAAAAAA+vXCkAAAAAAAAAAA/gAAAP4AAAD8j1wo/gAAAAAAAAAAAAAA/gAAAPwAAAAAAAAAAAAAAAAAAAAAAAAAAAAAAAAAAAAAAAAAAAAAAAAAAAAAAAAAAAAAA
        AAAAAD8AAAA/AAAAPwAAAD8AAAA/AAAAPwAAAAAAAAAAAAAAP4AAAAAAAAAAAAAAAAAAAAAAAAAAAAAAAAAAAAAAAAAAAAAAAAAAAAAAAAAAAAAAAAAAAAAAAAAAAAAA
        AAAAAAAAAAAAAAAAAAAAAAAAAAAAAAAAAAAAAAAAAAAAAAAAAAAAAAAAAAAAAAAAAAAAAAAAqqusrQ==
        AEluaXQAEAAAAA==
      >
      PRESETNAME Init
      FLOATPOS 500 379 987 799
      FXID {532372E3-5B0D-9345-A9C8-98A8EBAF9A7E}
      WAK 0
    >
    <ITEM
      POSITION 0
      SNAPOFFS 0
      LENGTH 41.5
      LOOP 1
      ALLTAKES 0
      FADEIN 1 0 0 1 0 0
      FADEOUT 1 0 0 1 0 0
      MUTE 0
      SEL 0
      YPOS 0 0.166667
      IGUID {90A2B138-F036-1C47-8553-28BF6234F297}
      IID 1
      NAME "Melody               - National_Anthems_-_Luxembourg.mid"
      VOLPAN 1 0 1 -1
      SOFFS 0 0
      PLAYRATE 1 1 0 -1 0 0.0025
      CHANMODE 0
      GUID {4145347F-A47A-3A49-930C-08EBEE6BB5A3}
      <SOURCE MIDI
        HASDATA 1 192 QN
        POOLEDEVTS {10D61D50-38F9-1F4A-A943-FF07C4C79DD1}
        <X 0 0 0 0 3 "Melody              "
          /wNNZWxvZHkgICAgICAgICAgICAgIA==
        >
        <X 0 0 0 0 1 "(p) (c) The Software Toolworks"
          /wEocCkgKGMpIFRoZSBTb2Z0d2FyZSBUb29sd29ya3M=
        >
        <X 0 0 0 0 1 "Anthem Name: Our Motherland"
          /wFBbnRoZW0gTmFtZTogT3VyIE1vdGhlcmxhbmQ=
        >
        <X 0 0 0 0 1 "Country: LUXEMBOURG"
          /wFDb3VudHJ5OiBMVVhFTUJPVVJH
        >
        <X 0 0 0 0 1 "MultiMedia Windows Version"
          /wFNdWx0aU1lZGlhIFdpbmRvd3MgVmVyc2lvbg==
        >
        <X 0 0 0 0 1 "Rob Wallace Music"
          /wFSb2IgV2FsbGFjZSBNdXNpYw==
        >
        <X 0 0 0 0 1 date:7-23-91
          /wFkYXRlOjctMjMtOTE=
        >
        <X 0 0 0 0 1 "edit date: 9-7-91"
          /wFlZGl0IGRhdGU6IDktNy05MQ==
        >
        <X 0 0 0 0 1 "new #: {602} 979-6201"
          /wFuZXcgIzogezYwMn0gOTc5LTYyMDE=
        >
        <X 0 0 0 0 1 "MULTIMEDIA WINDOWS VERSION"
          /wFNVUxUSU1FRElBIFdJTkRPV1MgVkVSU0lPTg==
        >
        E 576 90 46 64
        E 178 80 46 40
        E 14 90 46 64
        E 274 80 46 40
        E 14 90 4b 64
        E 82 80 4b 40
        E 14 90 4b 64
        E 178 80 4b 40
        E 14 90 43 64
        E 178 80 43 40
        E 14 90 46 64
        E 178 80 46 40
        E 14 90 44 64
        E 178 80 44 40
        E 14 90 44 64
        E 274 80 44 40
        E 14 90 44 64
        E 82 80 44 40
        E 14 90 44 64
        E 178 80 44 40
        E 14 90 46 64
        E 82 80 46 40
        E 14 90 48 64
        E 82 80 48 40
        E 14 90 46 64
        E 274 80 46 40
        E 14 90 44 64
        E 82 80 44 40
        E 14 90 43 64
        E 370 80 43 40
        E 206 90 46 64
        E 178 80 46 40
        E 14 90 46 64
        E 274 80 46 40
        E 14 90 4b 64
        E 82 80 4b 40
        E 14 90 4b 64
        E 274 80 4b 40
        E 14 90 4a 64
        E 82 80 4a 40
        E 14 90 48 64
        E 178 80 48 40
        E 14 90 48 64
        E 178 80 48 40
        E 14 90 4d 64
        E 274 80 4d 40
        E 14 90 4b 64
        E 82 80 4b 40
        E 14 90 4a 64
        E 178 80 4a 40
        E 14 90 46 64
        E 178 80 46 40
        E 14 90 4a 64
        E 274 80 4a 40
        E 14 90 48 64
        E 82 80 48 40
        E 14 90 46 64
        E 562 80 46 40
        E 14 90 41 64
        E 178 80 41 40
        E 14 90 41 64
        E 274 80 41 40
        E 14 90 43 64
        E 82 80 43 40
        E 14 90 44 64
        E 178 80 44 40
        E 14 90 46 64
        E 178 80 46 40
        E 14 90 48 64
        E 178 80 48 40
        E 14 90 48 64
        E 178 80 48 40
        E 14 90 46 64
        E 274 80 46 40
        E 14 90 44 64
        E 82 80 44 40
        E 14 90 43 64
        E 178 80 43 40
        E 14 90 46 64
        E 178 80 46 40
        E 14 90 46 64
        E 178 80 46 40
        E 14 90 4b 64
        E 178 80 4b 40
        E 14 90 4a 64
        E 562 80 4a 40
        E 14 90 46 64
        E 178 80 46 40
        E 14 90 46 64
        E 178 80 46 40
        E 14 90 48 64
        E 82 80 48 40
        E 14 90 4a 64
        E 82 80 4a 40
        E 14 90 4b 64
        E 178 80 4b 40
        E 14 90 4d 64
        E 178 80 4d 40
        E 14 90 4f 64
        E 274 80 4f 40
        E 14 90 4d 64
        E 82 80 4d 40
        E 14 90 4b 64
        E 178 80 4b 40
        E 14 90 48 64
        E 178 80 48 40
        E 14 90 46 64
        E 274 80 46 40
        E 14 90 43 64
        E 82 80 43 40
        E 14 90 46 64
        E 178 80 46 40
        E 14 90 44 64
        E 178 80 44 40
        E 14 90 43 64
        E 562 80 43 40
        E 14 90 46 64
        E 178 80 46 40
        E 14 90 46 64
        E 178 80 46 40
        E 14 90 48 64
        E 82 80 48 40
        E 14 90 4a 64
        E 82 80 4a 40
        E 14 90 4b 64
        E 178 80 4b 40
        E 14 90 4d 64
        E 178 80 4d 40
        E 14 90 4f 64
        E 274 80 4f 40
        E 14 90 4d 64
        E 82 80 4d 40
        E 14 90 4b 64
        E 178 80 4b 40
        E 14 90 48 64
        E 178 80 48 40
        E 14 90 46 64
        E 274 80 46 40
        E 14 90 4b 64
        E 82 80 4b 40
        E 14 90 4a 64
        E 178 80 4a 40
        E 14 90 4d 64
        E 178 80 4d 40
        E 14 90 4b 64
        E 562 80 4b 40
        E 14 b0 7b 00
        GUID {890104AB-DDFA-3D41-8024-A4777AFA8A92}
        IGNTEMPO 0 120 4 4
        SRCCOLOR 433
        VELLANE -1 86 6
        CFGEDITVIEW 6714.155269 100.13766 47 25 0 0 0 0 0 0.5
        KEYSNAP 0
        TRACKSEL 226
        EVTFILTER 0 -1 -1 -1 -1 0 0 0 0 -1 -1 -1 -1 0 -1 0 -1 -1
        CFGEDIT 1 0 0 0 0 0 1 0 1 1 1 0.25 589 421 1837 1120 0 0 2 3 0 0 0 0 0 -1 0 0 1 64
      >
    >
  >
  <TRACK {A26B8C2D-9EE6-0440-AA6B-121F89FB50DD}
    NAME "16th pulse (mix w/ send?)"
    PEAKCOL 16576
    BEAT -1
    AUTOMODE 0
    VOLPAN 1 0 -1 -1 1
    MUTESOLO 0 0 0
    IPHASE 0
    ISBUS 0 0
    BUSCOMP 0 0
    SHOWINMIX 1 0.6667 0.276119 1 0.5 0 0 0
    FREEMODE 0
    SEL 0
    REC 0 0 0 0 0 0 0
    VU 2
    TRACKHEIGHT 0 0
    INQ 0 0 0 0.5 100 0 0 100
    NCHAN 2
    FX 1
    TRACKID {A26B8C2D-9EE6-0440-AA6B-121F89FB50DD}
    PERF 0
    MIDIOUT -1
    MAINSEND 1 0
    <FXCHAIN
      WNDRECT 36 359 724 387
      SHOW 0
      LASTSEL 0
      DOCKED 0
      BYPASS 0 0 0
      <VST "VSTi: chipsounds (Plogue Art et Technologie, Inc)" chipsounds.vst 0 "" 1347176271
        T0dMUO5e7f4AAAAABAAAAAEAAAAAAAAAAgAAAAAAAAAEAAAAAAAAAAgAAAAAAAAAuAMAAAEAAAAAABAA
        Q0VHUNMSAAB4nO1YS4/bNhC+768QdEoPkUnxDdgbbOx1YaDbLGD3HNAy4xWqhytRbtJf35FkxXSyXOV5aZcXU6MZznxDmd8HTl+9z7PgaKo6LYtZiCMUBq+ur6Y3VarX
        +micVwrzMDhU5a5J7GoBBoRUeH0VwJiujbVpsa+DvxqdpfYDvA2D2lZG52CehSQOg1y/X3eWmywrk7vXs5BhMN+tFqs3jb0rd6aL0o0tc20h5zor7SxErikzR5PNwrSA
        tZvcFDYMsvRo+mDwrBNYg4lupjMNNhy8DExbVVQn2ck8h0BTzUIOfvus3Ops0xRdnWCYDJAge5DuOluh83Z9HAX3TWWC+UN6mKxXiwlnEgcvft+s57+EwVYXf652p744
        fZMxoEwedFG0pb8EiIcygw7RMLDntIft20oXe3PysPBQdy9yZ1omFvbkjLS1NbbvW/3320zX0DBx2pQOxZ1OiwHFUWdN7zt5zAN/9EAej3jUg4x60FEPNurBRz3EqIcc
        9VCjHhiNu4x3FY+3FY/3FY83Fns7e68rnT+9xWcXb6Kzi9P+SDKGYGCFBKGSE1+M28yIqi4IUcElEe3B40nktDfCseoGiwnmsaTeIOoGkT4TI5xSLL0x3I2RfUxMJIQw
        f5DzkUUApi9PShlTqBX7wqSbi3SZEMYqRipW3hj19TEKXWDqqxMcw6FGY+82EbflQgqKMGNcccmlNxMmzncVMUQUEdBypbhA9JM+bHS1N/Z05CZlHt1n5b4xUctI0W/L
        N1FTmwo5Z1wXNW9q4IiFtjp4sB8OEMoEg3rq9B+YU+kcyIDaFLtU99MdhMBkGMv+J0Y/dlxCnPQYvxY0/p+A3lTpfm+qNdC2KRJTjcOmhJIBdswc2PFjsPEJ9Wn0z6Kb
        k7lYqgsQc0SWTwCZTlqd8KlkwD9JMsRnyYC/WzMgRzPwZ83wrBm+VTPgC5bDHA71dlCkEOFeTnAZQSHGgK0Ei6UkCnuZ0SXuWFAOFCIVZRyDTBjXIt5lL6QH8y7k3TmP
        HmG0Vz4cmBEo2b8wcRuo6EklIAGSyVvzhYghfcfH5RJzy+vlksBEKiGeKM/71/k+yfLTlYSrdM5751c2wIC+b+VZlPwwfuYu030RP7Oen8Fy+zk/950R5PWFYQms3frK
        z1zBunhsBRRfrjDC+1/+VfyHVNuF2Ll9984k1r0lGeRF34+bfJu2n8eIyhmuW379YzWsoxObHs2qv/7Bw/Ptx+ug2mSQ2ew2ejv8UaeT4cLq+upf18ahbg==
        AAAQAAAA
      >
      FLOATPOS 409 269 871 509
      FXID {DC79668B-30D1-964C-A162-F245DBE294B0}
      WAK 0
      BYPASS 0 0 0
      <VST "VST: 8-Bit Shaper (Xfer Records)" 8BitShaper.vst 0 "" 1148539762
        clN1RO5e7f4CAAAAAQAAAAAAAAACAAAAAAAAAAQAAAABAAAAAAAAAAIAAAAAAAAABAAAAAAAAAAIAAAAAAAAADQCAAABAAAAAAAQAA==
        ZmaGPwAAAD8AAAA/AAAAPzAA//8AAIA/L1VzZXJzL3MXAAAAMAAAABkAAAAaAAAAGgAAABoAAAAbAAAAGwAAABwAAAAcAAAAHAAAAB0AAAAdAAAAHgAAAB4AAAAfAAAA
        HwAAACAAAAAgAAAAIAAAACEAAAAhAAAAIQAAACIAAAAiAAAAIgAAACMAAAAjAAAAIwAAACQAAAAkAAAAJAAAACUAAAAlAAAAKAAAACgAAAApAAAAKQAAACoAAAA1AAAA
        KgAAACoAAAA2AAAAKgAAACoAAAAqAAAAKgAAACoAAAAqAAAAKgAAACsAAAArAAAAOQAAAC0AAAA0AAAAOgAAAC0AAAAtAAAAPAAAAC4AAAAuAAAALwAAADAAAAAwAAAA
        MQAAADEAAAAxAAAAMgAAADMAAAAzAAAAMwAAADcAAAA3AAAANwAAADgAAAA4AAAAOAAAADkAAAA5AAAAOQAAADoAAAA6AAAAOgAAADoAAAA6AAAAOwAAADsAAAA7AAAA
        PAAAADsAAAA7AAAAOwAAADwAAAA8AAAAPAAAADwAAAA9AAAAPQAAAD0AAAA9AAAAPQAAAD4AAAA+AAAAPwAAAEkAAABAAAAAQAAAAEgAAABAAAAAQQAAAEIAAABCAAAA
        QgAAAEMAAABDAAAAQwAAAEQAAABEAAAARQAAAE0AAABGAAAARwAAAEYAAABHAAAASAAAAEgAAABJAAAATwAAAAAAgD+rqio/q6qqPloPwD6icHs/
        AEluaXQgMQAQAAAA
      >
      PRESETNAME "Init 1"
      FLOATPOS 342 36 278 389
      FXID {3B54D9BC-468F-7F4F-A65A-9A565E9D80B8}
      WAK 0
    >
    <ITEM
      POSITION 0
      SNAPOFFS 0
      LENGTH 41.5
      LOOP 1
      ALLTAKES 0
      FADEIN 1 0 0 1 0 0
      FADEOUT 1 0 0 1 0 0
      MUTE 0
      SEL 0
      YPOS 0.833333 0.166667
      IGUID {E6BE63F2-C782-5F4E-ACAF-B30D453442F6}
      IID 6
      NAME "lh                   - National_Anthems_-_Luxembourg.mid"
      VOLPAN 1 0 1 -1
      SOFFS 0 0
      PLAYRATE 1 1 0 -1 0 0.0025
      CHANMODE 0
      GUID {AD977D88-3569-CA4A-A510-53EA4EDDA008}
      <SOURCE MIDI
        HASDATA 1 192 QN
        POOLEDEVTS {D4D93FBC-6D3F-2C42-9645-72EBE3AFA75C}
        <X 0 0 0 0 3 "lh                  "
          /wNsaCAgICAgICAgICAgICAgICAgIA==
        >
        E 576 9d 33 64
        E 0 9d 37 64
        E 0 9d 3a 64
        E 178 8d 33 40
        E 0 8d 37 40
        E 0 8d 3a 40
        E 14 9d 33 64
        E 0 9d 3a 64
        E 0 9d 37 64
        E 274 8d 33 40
        E 0 8d 3a 40
        E 0 8d 37 40
        E 14 9d 33 64
        E 0 9d 37 64
        E 0 9d 3a 64
        E 82 8d 33 40
        E 0 8d 37 40
        E 0 8d 3a 40
        E 14 9d 3a 64
        E 0 9d 37 64
        E 0 9d 33 64
        E 178 8d 3a 40
        E 0 8d 37 40
        E 0 8d 33 40
        E 14 9d 33 64
        E 0 9d 3a 64
        E 0 9d 37 64
        E 178 8d 33 40
        E 0 8d 3a 40
        E 0 8d 37 40
        E 14 9d 3c 64
        E 0 9d 30 64
        E 178 8d 3c 40
        E 0 8d 30 40
        E 14 9d 30 64
        E 0 9d 3c 64
        E 178 8d 30 40
        E 0 8d 3c 40
        E 14 9d 30 64
        E 0 9d 3c 64
        E 274 8d 30 40
        E 0 8d 3c 40
        E 14 9d 35 64
        E 0 9d 38 64
        E 82 8d 35 40
        E 0 8d 38 40
        E 14 9d 38 64
        E 0 9d 35 64
        E 178 8d 38 40
        E 0 8d 35 40
        E 14 9d 35 64
        E 0 9d 38 64
        E 178 8d 35 40
        E 0 8d 38 40
        E 14 9d 2e 64
        E 0 9d 3a 64
        E 0 9d 35 64
        E 274 8d 2e 40
        E 0 8d 3a 40
        E 0 8d 35 40
        E 14 9d 2e 64
        E 0 9d 3a 64
        E 82 8d 2e 40
        E 0 8d 3a 40
        E 14 9d 3a 64
        E 0 9d 33 64
        E 370 8d 3a 40
        E 0 8d 33 40
        E 206 9d 33 64
        E 0 9d 3a 64
        E 0 9d 37 64
        E 178 8d 33 40
        E 0 8d 3a 40
        E 0 8d 37 40
        E 14 9d 3a 64
        E 0 9d 37 64
        E 0 9d 33 64
        E 274 8d 3a 40
        E 0 8d 37 40
        E 0 8d 33 40
        E 14 9d 3a 64
        E 0 9d 37 64
        E 0 9d 33 64
        E 82 8d 3a 40
        E 0 8d 37 40
        E 0 8d 33 40
        E 14 9d 33 64
        E 0 9d 3a 64
        E 0 9d 37 64
        E 178 8d 33 40
        E 0 8d 3a 40
        E 0 8d 37 40
        E 14 9d 33 64
        E 0 9d 3a 64
        E 0 9d 37 64
        E 178 8d 33 40
        E 0 8d 3a 40
        E 0 8d 37 40
        E 14 9d 39 64
        E 0 9d 35 64
        E 178 8d 39 40
        E 0 8d 35 40
        E 14 9d 33 64
        E 0 9d 39 64
        E 178 8d 33 40
        E 0 8d 39 40
        E 14 9d 3a 64
        E 0 9d 35 64
        E 0 9d 32 64
        E 274 8d 3a 40
        E 0 8d 35 40
        E 0 8d 32 40
        E 14 9d 33 64
        E 0 9d 37 64
        E 0 9d 3c 64
        E 82 8d 33 40
        E 0 8d 37 40
        E 0 8d 3c 40
        E 14 9d 3e 64
        E 0 9d 3a 64
        E 0 9d 35 64
        E 178 8d 3e 40
        E 0 8d 3a 40
        E 0 8d 35 40
        E 14 9d 3a 64
        E 0 9d 35 64
        E 0 9d 3e 64
        E 178 8d 3a 40
        E 0 8d 35 40
        E 0 8d 3e 40
        E 14 9d 3f 64
        E 0 9d 35 64
        E 274 8d 3f 40
        E 0 8d 35 40
        E 14 9d 35 64
        E 0 9d 3f 64
        E 82 8d 35 40
        E 0 8d 3f 40
        E 14 9d 2e 64
        E 0 9d 35 64
        E 0 9d 3a 64
        E 562 8d 2e 40
        E 0 8d 35 40
        E 0 8d 3a 40
        E 206 9d 2e 64
        E 82 8d 2e 40
        E 14 9d 3a 64
        E 82 8d 3a 40
        E 14 9d 2e 64
        E 82 8d 2e 40
        E 14 9d 3a 64
        E 82 8d 3a 40
        E 14 9d 2e 64
        E 82 8d 2e 40
        E 14 9d 3a 64
        E 82 8d 3a 40
        E 14 9d 2e 64
        E 82 8d 2e 40
        E 14 9d 3a 64
        E 82 8d 3a 40
        E 14 9d 2e 64
        E 82 8d 2e 40
        E 14 9d 3a 64
        E 82 8d 3a 40
        E 14 9d 2e 64
        E 82 8d 2e 40
        E 14 9d 3a 64
        E 82 8d 3a 40
        E 14 9d 30 64
        E 82 8d 30 40
        E 14 9d 3a 64
        E 82 8d 3a 40
        E 14 9d 32 64
        E 82 8d 32 40
        E 14 9d 3a 64
        E 82 8d 3a 40
        E 14 9d 33 64
        E 82 8d 33 40
        E 14 9d 3a 64
        E 82 8d 3a 40
        E 14 9d 33 64
        E 82 8d 33 40
        E 14 9d 3a 64
        E 82 8d 3a 40
        E 14 9d 37 64
        E 82 8d 37 40
        E 14 9d 3a 64
        E 82 8d 3a 40
        E 14 9d 33 64
        E 82 8d 33 40
        E 14 9d 3a 64
        E 82 8d 3a 40
        E 14 9d 2e 64
        E 0 9d 3a 64
        E 130 8d 2e 40
        E 0 8d 3a 40
        E 14 9d 2e 64
        E 0 9d 3a 64
        E 34 8d 2e 40
        E 0 8d 3a 40
        E 14 9d 3c 64
        E 0 9d 30 64
        E 82 8d 3c 40
        E 0 8d 30 40
        E 14 9d 3a 64
        E 0 9d 2e 64
        E 82 8d 3a 40
        E 0 8d 2e 40
        E 14 9d 39 64
        E 0 9d 2d 64
        E 82 8d 39 40
        E 0 8d 2d 40
        E 14 9d 38 64
        E 0 9d 2c 64
        E 82 8d 38 40
        E 0 8d 2c 40
        E 14 9d 37 64
        E 0 9d 2b 64
        E 82 8d 37 40
        E 0 8d 2b 40
        E 14 9d 35 64
        E 0 9d 29 64
        E 82 8d 35 40
        E 0 8d 29 40
        E 14 9d 27 64
        E 0 9d 33 64
        E 82 8d 27 40
        E 0 8d 33 40
        E 14 9d 3a 64
        E 0 9d 37 64
        E 82 8d 3a 40
        E 0 8d 37 40
        E 14 9d 38 64
        E 0 9d 3c 64
        E 82 8d 3c 40
        E 14 9d 3e 64
        E 0 9d 3a 64
        E 82 8d 38 40
        E 0 8d 3e 40
        E 0 8d 3a 40
        E 14 9d 33 64
        E 82 8d 33 40
        E 14 9d 3a 64
        E 0 9d 3f 64
        E 0 9d 37 64
        E 82 8d 3a 40
        E 0 8d 3f 40
        E 0 8d 37 40
        E 14 9d 2e 64
        E 82 8d 2e 40
        E 14 9d 3e 64
        E 0 9d 38 64
        E 0 9d 3a 64
        E 82 8d 3e 40
        E 0 8d 38 40
        E 0 8d 3a 40
        E 14 9d 33 64
        E 82 8d 33 40
        E 14 9d 3a 64
        E 0 9d 37 64
        E 0 9d 3f 64
        E 82 8d 3a 40
        E 0 8d 37 40
        E 0 8d 3f 40
        E 14 9d 3a 64
        E 0 9d 3f 64
        E 0 9d 37 64
        E 82 8d 3a 40
        E 0 8d 3f 40
        E 0 8d 37 40
        E 14 9d 3a 64
        E 0 9d 37 64
        E 0 9d 3f 64
        E 82 8d 3a 40
        E 0 8d 37 40
        E 0 8d 3f 40
        E 14 9d 33 64
        E 82 8d 33 40
        E 14 9d 3a 64
        E 0 9d 3f 64
        E 0 9d 37 64
        E 82 8d 3a 40
        E 0 8d 3f 40
        E 0 8d 37 40
        E 14 9d 2c 64
        E 82 8d 2c 40
        E 14 9d 33 64
        E 0 9d 30 64
        E 82 8d 33 40
        E 0 8d 30 40
        E 14 9d 2e 64
        E 82 8d 2e 40
        E 14 9d 33 64
        E 0 9d 37 64
        E 82 8d 33 40
        E 0 8d 37 40
        E 14 9d 33 64
        E 0 9d 37 64
        E 82 8d 33 40
        E 0 8d 37 40
        E 14 9d 33 64
        E 0 9d 37 64
        E 82 8d 33 40
        E 0 8d 37 40
        E 14 9d 2e 64
        E 82 8d 2e 40
        E 14 9d 35 64
        E 0 9d 38 64
        E 82 8d 35 40
        E 0 8d 38 40
        E 14 9d 2e 64
        E 82 8d 2e 40
        E 14 9d 38 64
        E 0 9d 35 64
        E 82 8d 38 40
        E 0 8d 35 40
        E 14 9d 2f 64
        E 82 8d 2f 40
        E 14 9d 35 64
        E 0 9d 32 64
        E 0 9d 37 64
        E 82 8d 35 40
        E 0 8d 32 40
        E 0 8d 37 40
        E 14 9d 35 64
        E 0 9d 32 64
        E 0 9d 37 64
        E 82 8d 35 40
        E 0 8d 32 40
        E 0 8d 37 40
        E 14 9d 35 64
        E 0 9d 32 64
        E 0 9d 37 64
        E 82 8d 35 40
        E 0 8d 32 40
        E 0 8d 37 40
        E 14 9d 30 64
        E 82 8d 30 40
        E 14 9d 33 64
        E 0 9d 37 64
        E 82 8d 33 40
        E 0 8d 37 40
        E 14 9d 32 64
        E 82 8d 32 40
        E 14 9d 38 64
        E 0 9d 3a 64
        E 0 9d 35 64
        E 82 8d 38 40
        E 0 8d 3a 40
        E 0 8d 35 40
        E 14 9d 33 64
        E 82 8d 33 40
        E 14 9d 3a 64
        E 0 9d 37 64
        E 82 8d 3a 40
        E 0 8d 37 40
        E 14 9d 3c 64
        E 0 9d 38 64
        E 82 8d 3c 40
        E 0 8d 38 40
        E 14 9d 3a 64
        E 0 9d 3e 64
        E 82 8d 3e 40
        E 14 9d 33 64
        E 82 8d 3a 40
        E 0 8d 33 40
        E 14 9d 3f 64
        E 0 9d 3a 64
        E 0 9d 37 64
        E 82 8d 3f 40
        E 0 8d 3a 40
        E 0 8d 37 40
        E 14 9d 2c 64
        E 82 8d 2c 40
        E 14 9d 38 64
        E 82 8d 38 40
        E 14 9d 2b 64
        E 82 8d 2b 40
        E 14 9d 32 64
        E 82 8d 32 40
        E 14 9d 37 64
        E 82 8d 37 40
        E 14 9d 2f 64
        E 82 8d 2f 40
        E 14 9d 30 64
        E 82 8d 30 40
        E 14 9d 33 64
        E 0 9d 37 64
        E 82 8d 33 40
        E 0 8d 37 40
        E 14 9d 2c 64
        E 82 8d 2c 40
        E 14 9d 33 64
        E 0 9d 38 64
        E 82 8d 33 40
        E 0 8d 38 40
        E 14 9d 2e 64
        E 82 8d 2e 40
        E 14 9d 33 64
        E 82 8d 33 40
        E 14 9d 37 64
        E 82 8d 37 40
        E 14 9d 3a 64
        E 82 8d 3a 40
        E 14 9d 2e 64
        E 82 8d 2e 40
        E 14 9d 3a 64
        E 82 8d 3a 40
        E 14 9d 38 64
        E 82 8d 38 40
        E 14 9d 35 64
        E 82 8d 35 40
        E 14 9d 33 64
        E 82 8d 33 40
        E 14 9d 2e 64
        E 82 8d 2e 40
        E 14 9d 2b 64
        E 82 8d 2b 40
        E 14 9d 2e 64
        E 82 8d 2e 40
        E 14 9d 27 64
        E 178 8d 27 40
        E 14 b0 7b 00
        GUID {D7D1A523-16ED-CE4C-BA31-F45CD6120C01}
        IGNTEMPO 0 120 4 4
        SRCCOLOR 438
        VELLANE -1 86 6
      >
    >
  >
  <TRACK {D4259754-8A5D-ED42-9EF0-7FA3B62785A4}
    NAME "vst Plogue"
    PEAKCOL 26779488
    BEAT -1
    AUTOMODE 0
    VOLPAN 1 0 -1 -1 1
    MUTESOLO 0 0 0
    IPHASE 0
    ISBUS 0 0
    BUSCOMP 0 0
    SHOWINMIX 1 0.6667 0.276119 1 0.5 0 0 0
    FREEMODE 0
    SEL 0
    REC 0 0 0 1 0 0 0
    VU 2
    TRACKHEIGHT 0 0
    INQ 0 0 0 0.5 100 0 0 100
    NCHAN 4
    FX 1
    TRACKID {D4259754-8A5D-ED42-9EF0-7FA3B62785A4}
    PERF 0
    AUXRECV 3 0 1 0 0 0 0 0 0 -1:U 32 -1 ''
    AUXRECV 3 0 1 0 0 0 0 0 0 -1:U 96 -1 ''
    AUXRECV 4 0 1 0 0 0 0 0 0 -1:U 64 -1 ''
    AUXRECV 4 0 1 0 0 0 0 0 0 -1:U 128 -1 ''
    MIDIOUT -1
    MAINSEND 0 0
    <FXCHAIN
      WNDRECT 532 389 724 387
      SHOW 0
      LASTSEL 0
      DOCKED 0
      BYPASS 0 0 0
      <VST "VSTi: chipsounds (Multi) (Plogue Art et Technologie, Inc) (32 out)" "chipsounds Multi.vst" 0 "" 1347241807
        T0dNUO5e7f4AAAAAIAAAAAEAAAAAAAAAAgAAAAAAAAAEAAAAAAAAAAgAAAAAAAAAEAAAAAAAAAAgAAAAAAAAAEAAAAAAAAAAgAAAAAAAAAAAAQAAAAAAAAACAAAAAAAA
        AAQAAAAAAAAACAAAAAAAAAAQAAAAAAAAACAAAAAAAAAAQAAAAAAAAACAAAAAAAAAAAABAAAAAAAAAAIAAAAAAAAABAAAAAAAAAAIAAAAAAAAABAAAAAAAAAAIAAAAAAA
        AABAAAAAAAAAAIAAAAAAAAAAAAEAAAAAAAAAAgAAAAAAAAAEAAAAAAAAAAgAAAAAAAAAEAAAAAAAAAAgAAAAAAAAAEAAAAAAAAAAgAAAAADnBgAAAQAAAAAAEAA=
        Q0VHUFg7AAB4nO2b3VPjNhDA3/krPHlqH87W98cMcAOBtMyU3s2Emz7eiEQX3DpOajv0rn9913YCMkSxU2BKOfsBEmVXq13J2p+1yeH7r/MkuLVZHi/SowEO0SB4f3xw
        eJLFZmxurfORxmIQLLPFdDUpLs6gASE9OD4I4Doc26KI01ke/LkySVx8g08HQV5k1syh+WhAySCYm6/jquUkSRaTy9OjAcfQfHlxdvFhVVwuprbSMqtiMTcF2Bwni+Jo
        gNymxN7a5GgQp9D3am7TYhAk8a2tlUEyn0CvpbF8YhIDTTh4F9hyUGE+SdbNQ9Cz2dFAgMIsWVyb5GqVVsOEhmjjERgP4mnVlpp52T0Og4+rzAbDm3gZjS/OIsEVDn74
        9Wo8/HEQXJv0j4vpOixO2BSB4UxuTJqWI4feloukjA8Es7g3u7z+nJl0BmbeQQyWBbzJqw/mzsvFpIApuXMUl22rYt3w1+fE5BAvtp6TyotLE6cbL25NsqpDHG2TwHcS
        yCNBWiVoqwRrleCtEqJVQrZKqFYJ3SqBUbtIe1Rxe1hxe1xxe2CxN7IfTWbmu6f4XsRr6F7ECX+oOEdwYY0kZUpQn44bzJDpSgkxKRSV5a3iMeSEN8REVxcnFAuimFeJ
        uUq0tsSpYAwrr45wdVStQ6gCFe5XchZZCM7Uw1NKEQZjxT415dqilSWEsSZIE+3V0fvraNTwqR6dFBg2NUa800TdkEslGcKcCy2UUF5LmDrrKuSIaioh5FoLidiDOFyZ
        bGaL9ZY7WczDj8litrJhmZDCX0YfwlVuM+TscZXWcJVDijgzhQluim9LUOWSw3jy+G94zZSzIYPXNp3Gpn45BRV4sblG9T+CnvdquhjVPu7rNP5OnL7K4tnMZmNI2zad
        2KzdbUYZ3bhNuOM22eY2Xnu9vur3snpNh3KkG04MER3tcOQwKjnhITLgZ0UGvA0ZVI8MPTK8CmTAjSSHBezp5cWQRlR4U4KbEDTiHJKV5EQpqrE3Mbp5m0gmIIMozbjA
        QAkvhiK8E3twVnctIAtC+vUruT7QOlLtlONdvU+DhhfP5S5r3MfUzxaQg3x7To8FPRY8BQuEm2A7YUF1Q0sIwuj8MRbUkZH0tNEwAlgoZdUjUWg929YDIs0e/hVukGfF
        DXaHG/e0wZ6TNlALbXiT0R604SOWnjYeinx3tEE55QoypII7XGPlzbqOSyFeP7wLSbBkzJve3ewuWbczDN7wSK8fw6VginDlzZXSt9R9Jyr1mQVmFAFrMelVYh06bhyG
        VLChNRVIsx2nLrjLiN1TDLamNYrBBMHeuXU4zNuxdBcAW++1XAvEhH8yZWMFPNDqBHiCV8tGYqpgRndQIe/gght0Tph7WLMDu1zMrjN5K6O6rOZlZO1HNVeow2GhRqJL
        Tx2Wj0a6y13RZeQYowap1/FWCkkYiV+LIHd/It4Qg6A3Mj3p9qT7FNItD5b3I90qhdakiwg5PX3kyGP+PatIt0yi7bLVRfiw2e8p9FCaldhtHdWtw2ZrSzC3UzF9Viom
        Gypm/1HZrp2Kfczbn8E9iNjbo+LXUbbrq3R9le57hJT/U8Gq++y9IdraDgjsWQGBbgEE3gNCDwivAhDedJHOf2bSl+j6Et2LZZXuTr+hVLrT6b5E52MNeccaJAzqMAS/
        Qc7/ssjmefSzyabB+Fs66Qob/IW+RfxUwmgvzLUTho9SesJ4JPJqCQOvy1icEy24P226eQpppjsdsruWBBIE+EJRpCWS/rKMG4eQq7p6ojgjlEh/Hm1wydonophkjHhd
        wo3jBLnZRbRCYMufV92Tga5HJKQDApEOxQ653xlOtyobEqxxVOHXcqempJRqEcATmNKc+at++5bMMK0xCBOiKN1RmmnAk2B14QcYDdYx9ZZNO8GTWzPb8cWy56yaqS5C
        HapmGneINyaow0oCKe9m76uQhbSupCpNJMaC+m9Zgrx7fM+nPZ8+6aCO0D0Btf5uRH1Sh07lqEtlbXNtKmDwAA3XCW/WxZzWU8kf97tfD2JLzW/PHvBTe+DyqT2ws6f1
        0BXqz798sZPC/X3gBqPrBXcyv47L5dUC82tjhz99utj0YyZFfGsv6t89ks3787vfQeY2Act2emWuy63T3QEzm9vi0qarIM4r8fLbe5UHu++AoLBfQeQK/q4yOw1+josc
        nhxMcXM0iE6WyySeVD+8zKO6B3gGiZf5YpVOoaUymkc7+o/Wzzon2dLOZvEijxqWQgPb0PLBZv7IFbKXK3Pzuyxu7nz4BPtbHuUwM+ksMekUxvR5kllT2Ghs5svE5tH5
        5pNgFJfvawPDe0c3NvJShRc3D8d9GMEkHh8cRptfzR4f/ANyOnLS
        AAAQAAAA
      >
      FLOATPOS 129 268 871 509
      FXID {C804D762-B992-A540-81BF-3D6C0F7FF19B}
      WAK 0
    >
  >
  <TRACK {F21395F9-F67E-E94E-A650-3CA2FF3EBDD0}
    NAME "ch1,3 (send)"
    PEAKCOL 16576
    BEAT -1
    AUTOMODE 0
    VOLPAN 1 0 -1 -1 1
    MUTESOLO 0 0 0
    IPHASE 0
    ISBUS 0 0
    BUSCOMP 0 0
    SHOWINMIX 1 0.6667 0.276119 1 0.5 0 0 0
    FREEMODE 0
    SEL 0
    REC 0 0 0 0 0 0 0
    VU 2
    MIDICTL -1 1
    TRACKHEIGHT 0 0
    INQ 0 0 0 0.5 100 0 0 100
    NCHAN 2
    FX 1
    TRACKID {F21395F9-F67E-E94E-A650-3CA2FF3EBDD0}
    PERF 0
    MIDIOUT -1
    MAINSEND 1 0
    <FXCHAIN
      SHOW 0
      LASTSEL 0
      DOCKED 0
    >
    <ITEM
      POSITION 0
      SNAPOFFS 0
      LENGTH 41.5
      LOOP 1
      ALLTAKES 0
      FADEIN 1 0 0 1 0 0
      FADEOUT 1 0 0 1 0 0
      MUTE 0
      SEL 0
      YPOS 0 0.166667
      IGUID {E84A2DC6-AD29-5D45-B616-C7000AD6FDE9}
      IID 1
      NAME "Melody               - National_Anthems_-_Luxembourg.mid"
      VOLPAN 1 0 1 -1
      SOFFS 0 0
      PLAYRATE 1 1 0 -1 0 0.0025
      CHANMODE 0
      GUID {2381B72B-4E2D-7743-B3D1-887C9F97A44D}
      <SOURCE MIDI
        HASDATA 1 192 QN
        POOLEDEVTS {5CBE0A63-64D8-EE45-B600-D3F3A0C041E5}
        <X 0 0 0 0 3 "Melody              "
          /wNNZWxvZHkgICAgICAgICAgICAgIA==
        >
        <X 0 0 0 0 1 "(p) (c) The Software Toolworks"
          /wEocCkgKGMpIFRoZSBTb2Z0d2FyZSBUb29sd29ya3M=
        >
        <X 0 0 0 0 1 "Anthem Name: Our Motherland"
          /wFBbnRoZW0gTmFtZTogT3VyIE1vdGhlcmxhbmQ=
        >
        <X 0 0 0 0 1 "Country: LUXEMBOURG"
          /wFDb3VudHJ5OiBMVVhFTUJPVVJH
        >
        <X 0 0 0 0 1 "MultiMedia Windows Version"
          /wFNdWx0aU1lZGlhIFdpbmRvd3MgVmVyc2lvbg==
        >
        <X 0 0 0 0 1 "Rob Wallace Music"
          /wFSb2IgV2FsbGFjZSBNdXNpYw==
        >
        <X 0 0 0 0 1 date:7-23-91
          /wFkYXRlOjctMjMtOTE=
        >
        <X 0 0 0 0 1 "edit date: 9-7-91"
          /wFlZGl0IGRhdGU6IDktNy05MQ==
        >
        <X 0 0 0 0 1 "new #: {602} 979-6201"
          /wFuZXcgIzogezYwMn0gOTc5LTYyMDE=
        >
        <X 0 0 0 0 1 "MULTIMEDIA WINDOWS VERSION"
          /wFNVUxUSU1FRElBIFdJTkRPV1MgVkVSU0lPTg==
        >
        E 576 90 46 64
        E 178 80 46 40
        E 14 90 46 64
        E 274 80 46 40
        E 14 90 4b 64
        E 82 80 4b 40
        E 14 90 4b 64
        E 178 80 4b 40
        E 14 90 43 64
        E 178 80 43 40
        E 14 90 46 64
        E 178 80 46 40
        E 14 90 44 64
        E 178 80 44 40
        E 14 90 44 64
        E 274 80 44 40
        E 14 90 44 64
        E 82 80 44 40
        E 14 90 44 64
        E 178 80 44 40
        E 14 90 46 64
        E 82 80 46 40
        E 14 90 48 64
        E 82 80 48 40
        E 14 90 46 64
        E 274 80 46 40
        E 14 90 44 64
        E 82 80 44 40
        E 14 90 43 64
        E 370 80 43 40
        E 206 90 46 64
        E 178 80 46 40
        E 14 90 46 64
        E 274 80 46 40
        E 14 90 4b 64
        E 82 80 4b 40
        E 14 90 4b 64
        E 274 80 4b 40
        E 14 90 4a 64
        E 82 80 4a 40
        E 14 90 48 64
        E 178 80 48 40
        E 14 90 48 64
        E 178 80 48 40
        E 14 90 4d 64
        E 274 80 4d 40
        E 14 90 4b 64
        E 82 80 4b 40
        E 14 90 4a 64
        E 178 80 4a 40
        E 14 90 46 64
        E 178 80 46 40
        E 14 90 4a 64
        E 274 80 4a 40
        E 14 90 48 64
        E 82 80 48 40
        E 14 90 46 64
        E 562 80 46 40
        E 14 90 41 64
        E 178 80 41 40
        E 14 90 41 64
        E 274 80 41 40
        E 14 90 43 64
        E 82 80 43 40
        E 14 90 44 64
        E 178 80 44 40
        E 14 90 46 64
        E 178 80 46 40
        E 14 90 48 64
        E 178 80 48 40
        E 14 90 48 64
        E 178 80 48 40
        E 14 90 46 64
        E 274 80 46 40
        E 14 90 44 64
        E 82 80 44 40
        E 14 90 43 64
        E 178 80 43 40
        E 14 90 46 64
        E 178 80 46 40
        E 14 90 46 64
        E 178 80 46 40
        E 14 90 4b 64
        E 178 80 4b 40
        E 14 90 4a 64
        E 562 80 4a 40
        E 14 90 46 64
        E 178 80 46 40
        E 14 90 46 64
        E 178 80 46 40
        E 14 90 48 64
        E 82 80 48 40
        E 14 90 4a 64
        E 82 80 4a 40
        E 14 90 4b 64
        E 178 80 4b 40
        E 14 90 4d 64
        E 178 80 4d 40
        E 14 90 4f 64
        E 274 80 4f 40
        E 14 90 4d 64
        E 82 80 4d 40
        E 14 90 4b 64
        E 178 80 4b 40
        E 14 90 48 64
        E 178 80 48 40
        E 14 90 46 64
        E 274 80 46 40
        E 14 90 43 64
        E 82 80 43 40
        E 14 90 46 64
        E 178 80 46 40
        E 14 90 44 64
        E 178 80 44 40
        E 14 90 43 64
        E 562 80 43 40
        E 14 90 46 64
        E 178 80 46 40
        E 14 90 46 64
        E 178 80 46 40
        E 14 90 48 64
        E 82 80 48 40
        E 14 90 4a 64
        E 82 80 4a 40
        E 14 90 4b 64
        E 178 80 4b 40
        E 14 90 4d 64
        E 178 80 4d 40
        E 14 90 4f 64
        E 274 80 4f 40
        E 14 90 4d 64
        E 82 80 4d 40
        E 14 90 4b 64
        E 178 80 4b 40
        E 14 90 48 64
        E 178 80 48 40
        E 14 90 46 64
        E 274 80 46 40
        E 14 90 4b 64
        E 82 80 4b 40
        E 14 90 4a 64
        E 178 80 4a 40
        E 14 90 4d 64
        E 178 80 4d 40
        E 14 90 4b 64
        E 562 80 4b 40
        E 14 b0 7b 00
        GUID {890104AB-DDFA-3D41-8024-A4777AFA8A92}
        IGNTEMPO 0 120 4 4
        SRCCOLOR 433
        VELLANE -1 86 6
        CFGEDITVIEW 6714.155269 100.13766 47 25 0 0 0 0 0 0.5
        KEYSNAP 0
        TRACKSEL 226
        EVTFILTER 0 -1 -1 -1 -1 0 0 0 0 -1 -1 -1 -1 0 -1 0 -1 -1
        CFGEDIT 1 0 0 0 0 0 1 0 1 1 1 0.25 589 421 1837 1120 0 0 2 3 0 0 0 0 0 -1 0 0 1 64
      >
    >
    <ITEM
      POSITION 0
      SNAPOFFS 0
      LENGTH 41.5
      LOOP 1
      ALLTAKES 0
      FADEIN 1 0 0 1 0 0
      FADEOUT 1 0 0 1 0 0
      MUTE 0
      SEL 0
      YPOS 0.5 0.166667
      IGUID {1096253E-DFF3-FC42-824D-ACB524768053}
      IID 4
      NAME "BASS                 - National_Anthems_-_Luxembourg.mid"
      VOLPAN 1 0 1 -1
      SOFFS 0 0
      PLAYRATE 1 1 0 -1 0 0.0025
      CHANMODE 0
      GUID {3FA370BE-E402-0644-AA03-2DDF3476A4B5}
      <SOURCE MIDI
        HASDATA 1 192 QN
        POOLEDEVTS {7E67D2E1-36C4-F64A-AC97-3D04FB9D4C3A}
        <X 0 0 0 0 3 "BASS                "
          /wNCQVNTICAgICAgICAgICAgICAgIA==
        >
        E 576 93 33 64
        E 178 83 33 40
        E 14 93 27 64
        E 274 83 27 40
        E 14 93 27 64
        E 82 83 27 40
        E 14 93 27 64
        E 178 83 27 40
        E 14 93 27 64
        E 178 83 27 40
        E 14 93 30 64
        E 178 83 30 40
        E 14 93 24 64
        E 178 83 24 40
        E 14 93 24 64
        E 274 83 24 40
        E 14 93 29 64
        E 82 83 29 40
        E 14 93 29 64
        E 178 83 29 40
        E 14 93 29 64
        E 178 83 29 40
        E 14 93 2e 64
        E 274 83 2e 40
        E 14 93 2e 64
        E 82 83 2e 40
        E 14 93 27 64
        E 370 83 27 40
        E 206 93 33 64
        E 178 83 33 40
        E 14 93 27 64
        E 274 83 27 40
        E 14 93 27 64
        E 82 83 27 40
        E 14 93 27 64
        E 178 83 27 40
        E 14 93 27 64
        E 178 83 27 40
        E 14 93 29 64
        E 178 83 29 40
        E 14 93 27 64
        E 178 83 27 40
        E 14 93 26 64
        E 274 83 26 40
        E 14 93 27 64
        E 82 83 27 40
        E 14 93 29 64
        E 178 83 29 40
        E 14 93 29 64
        E 178 83 29 40
        E 14 93 29 64
        E 274 83 29 40
        E 14 93 29 64
        E 82 83 29 40
        E 14 93 2e 64
        E 562 83 2e 40
        E 206 93 2e 64
        E 178 83 2e 40
        E 14 93 3a 64
        E 178 83 3a 40
        E 14 93 2e 64
        E 178 83 2e 40
        E 14 93 3a 64
        E 178 83 3a 40
        E 14 93 2e 64
        E 178 83 2e 40
        E 14 93 3a 64
        E 178 83 3a 40
        E 14 93 30 64
        E 178 83 30 40
        E 14 93 32 64
        E 178 83 32 40
        E 14 93 33 64
        E 178 83 33 40
        E 14 93 33 64
        E 178 83 33 40
        E 14 93 37 64
        E 178 83 37 40
        E 14 93 33 64
        E 178 83 33 40
        E 14 93 2e 64
        E 130 83 2e 40
        E 14 93 2e 64
        E 34 83 2e 40
        E 14 93 30 64
        E 82 83 30 40
        E 14 93 2e 64
        E 82 83 2e 40
        E 14 93 2d 64
        E 82 83 2d 40
        E 14 93 2c 64
        E 82 83 2c 40
        E 14 93 2b 64
        E 82 83 2b 40
        E 14 93 29 64
        E 82 83 29 40
        E 14 93 27 64
        E 178 83 27 40
        E 14 93 27 64
        E 178 83 27 40
        E 14 93 2e 64
        E 178 83 2e 40
        E 14 93 27 64
        E 178 83 27 40
        E 14 93 27 64
        E 178 83 27 40
        E 14 93 2e 64
        E 178 83 2e 40
        E 14 93 33 64
        E 178 83 33 40
        E 14 93 30 64
        E 178 83 30 40
        E 14 93 2e 64
        E 178 83 2e 40
        E 14 93 2e 64
        E 178 83 2e 40
        E 14 93 2e 64
        E 178 83 2e 40
        E 14 93 22 64
        E 178 83 22 40
        E 14 93 2f 64
        E 178 83 2f 40
        E 14 93 2f 64
        E 178 83 2f 40
        E 14 93 30 64
        E 178 83 30 40
        E 14 93 26 64
        E 178 83 26 40
        E 14 93 33 64
        E 178 83 33 40
        E 14 93 33 64
        E 178 83 33 40
        E 14 93 33 64
        E 178 83 33 40
        E 14 93 2c 64
        E 178 83 2c 40
        E 14 93 2b 64
        E 178 83 2b 40
        E 14 93 2f 64
        E 178 83 2f 40
        E 14 93 30 64
        E 178 83 30 40
        E 14 93 2c 64
        E 178 83 2c 40
        E 14 93 2e 64
        E 178 83 2e 40
        E 14 93 2e 64
        E 178 83 2e 40
        E 14 93 3a 64
        E 178 83 3a 40
        E 14 93 2e 64
        E 178 83 2e 40
        E 14 93 33 64
        E 82 83 33 40
        E 14 93 2e 64
        E 82 83 2e 40
        E 14 93 2b 64
        E 82 83 2b 40
        E 14 93 2e 64
        E 82 83 2e 40
        E 14 93 27 64
        E 178 83 27 40
        E 14 b0 7b 00
        GUID {A6FF1B89-7A9E-8843-B53A-CCE0F2FF31B5}
        IGNTEMPO 0 120 4 4
        SRCCOLOR 436
        VELLANE -1 86 6
      >
    >
  >
  <TRACK {6CCBCBB4-02B5-3C4F-AE95-8DD80AEC4A17}
    NAME "ch2,4 (send)"
    PEAKCOL 16576
    BEAT -1
    AUTOMODE 0
    VOLPAN 1 0 -1 -1 1
    MUTESOLO 0 0 0
    IPHASE 0
    ISBUS 0 0
    BUSCOMP 0 0
    SHOWINMIX 1 0.6667 0.276119 1 0.5 0 0 0
    FREEMODE 0
    SEL 0
    REC 0 0 0 0 0 0 0
    VU 2
    MIDICTL -1 1
    TRACKHEIGHT 0 0
    INQ 0 0 0 0.5 100 0 0 100
    NCHAN 2
    FX 1
    TRACKID {6CCBCBB4-02B5-3C4F-AE95-8DD80AEC4A17}
    PERF 0
    MIDIOUT -1
    MAINSEND 1 0
    <FXCHAIN
      WNDRECT 32 359 724 387
      SHOW 0
      LASTSEL 0
      DOCKED 0
    >
    <ITEM
      POSITION 0
      SNAPOFFS 0
      LENGTH 41.5
      LOOP 1
      ALLTAKES 0
      FADEIN 1 0 0 1 0 0
      FADEOUT 1 0 0 1 0 0
      MUTE 0
      SEL 0
      YPOS 0.166667 0.166667
      IGUID {9CBB576F-8A0F-B441-878E-09D5076CDBA3}
      IID 2
      NAME "RH                   - National_Anthems_-_Luxembourg.mid"
      VOLPAN 1 0 1 -1
      SOFFS 0 0
      PLAYRATE 1 1 0 -1 0 0.0025
      CHANMODE 0
      GUID {1034E109-9030-CC43-A4E2-37E424F11F13}
      <SOURCE MIDI
        HASDATA 1 192 QN
        POOLEDEVTS {829A3730-3E32-864A-B4A8-FD0EEDBE0DC5}
        <X 0 0 0 0 3 "RH                  "
          /wNSSCAgICAgICAgICAgICAgICAgIA==
        >
        E 576 91 46 64
        E 0 91 43 64
        E 178 81 46 40
        E 0 81 43 40
        E 14 91 43 64
        E 0 91 46 64
        E 274 81 43 40
        E 0 81 46 40
        E 14 91 43 64
        E 0 91 4b 64
        E 82 81 43 40
        E 0 81 4b 40
        E 14 91 4b 64
        E 0 91 43 64
        E 178 81 4b 40
        E 0 81 43 40
        E 14 91 3f 64
        E 0 91 43 64
        E 178 81 3f 40
        E 0 81 43 40
        E 14 91 3f 64
        E 0 91 46 64
        E 178 81 3f 40
        E 0 81 46 40
        E 14 91 44 64
        E 0 91 3f 64
        E 178 81 44 40
        E 0 81 3f 40
        E 14 91 44 64
        E 0 91 3f 64
        E 274 81 44 40
        E 0 81 3f 40
        E 14 91 3c 64
        E 0 91 44 64
        E 82 81 3c 40
        E 0 81 44 40
        E 14 91 3c 64
        E 0 91 44 64
        E 178 81 3c 40
        E 0 81 44 40
        E 14 91 46 64
        E 0 91 3c 64
        E 82 81 46 40
        E 14 91 48 64
        E 82 81 3c 40
        E 0 81 48 40
        E 14 91 3e 64
        E 0 91 46 64
        E 274 81 3e 40
        E 0 81 46 40
        E 14 91 44 64
        E 0 91 3e 64
        E 82 81 44 40
        E 0 81 3e 40
        E 14 91 43 64
        E 0 91 3f 64
        E 370 81 43 40
        E 0 81 3f 40
        E 206 91 46 64
        E 0 91 43 64
        E 178 81 46 40
        E 0 81 43 40
        E 14 91 46 64
        E 0 91 43 64
        E 34 81 43 40
        E 240 81 46 40
        E 14 91 43 64
        E 0 91 4b 64
        E 82 81 43 40
        E 0 81 4b 40
        E 14 91 43 64
        E 0 91 4b 64
        E 274 81 43 40
        E 0 81 4b 40
        E 14 91 43 64
        E 0 91 4a 64
        E 82 81 43 40
        E 0 81 4a 40
        E 14 91 41 64
        E 0 91 45 64
        E 0 91 48 64
        E 178 81 41 40
        E 0 81 45 40
        E 0 81 48 40
        E 14 91 41 64
        E 0 91 45 64
        E 0 91 48 64
        E 178 81 41 40
        E 0 81 45 40
        E 0 81 48 40
        E 14 91 41 64
        E 0 91 4d 64
        E 0 91 46 64
        E 274 81 41 40
        E 0 81 4d 40
        E 0 81 46 40
        E 14 91 4b 64
        E 0 91 43 64
        E 82 81 4b 40
        E 0 81 43 40
        E 14 91 4a 64
        E 0 91 41 64
        E 178 81 4a 40
        E 0 81 41 40
        E 14 91 46 64
        E 0 91 41 64
        E 178 81 46 40
        E 0 81 41 40
        E 14 91 41 64
        E 0 91 45 64
        E 0 91 4a 64
        E 274 81 41 40
        E 0 81 45 40
        E 0 81 4a 40
        E 14 91 45 64
        E 0 91 41 64
        E 0 91 48 64
        E 82 81 45 40
        E 0 81 41 40
        E 0 81 48 40
        E 14 91 3e 64
        E 0 91 46 64
        E 562 81 3e 40
        E 0 81 46 40
        E 14 91 41 64
        E 0 91 3e 64
        E 178 81 41 40
        E 0 81 3e 40
        E 14 91 3e 64
        E 0 91 41 64
        E 274 81 3e 40
        E 0 81 41 40
        E 14 91 3f 64
        E 0 91 43 64
        E 82 81 3f 40
        E 0 81 43 40
        E 14 91 41 64
        E 0 91 44 64
        E 178 81 41 40
        E 0 81 44 40
        E 14 91 43 64
        E 0 91 46 64
        E 178 81 43 40
        E 0 81 46 40
        E 14 91 44 64
        E 0 91 48 64
        E 178 81 44 40
        E 0 81 48 40
        E 14 91 44 64
        E 0 91 48 64
        E 178 81 44 40
        E 0 81 48 40
        E 14 91 43 64
        E 0 91 46 64
        E 274 81 43 40
        E 0 81 46 40
        E 14 91 41 64
        E 0 91 44 64
        E 82 81 41 40
        E 0 81 44 40
        E 14 91 3f 64
        E 0 91 43 64
        E 178 81 3f 40
        E 0 81 43 40
        E 14 91 46 64
        E 0 91 3f 64
        E 178 81 46 40
        E 0 81 3f 40
        E 14 91 3f 64
        E 0 91 46 64
        E 178 81 3f 40
        E 0 81 46 40
        E 14 91 43 64
        E 0 91 4b 64
        E 178 81 43 40
        E 0 81 4b 40
        E 14 91 41 64
        E 0 91 46 64
        E 0 91 4a 64
        E 562 81 41 40
        E 0 81 46 40
        E 0 81 4a 40
        E 14 91 3e 64
        E 0 91 44 64
        E 0 91 46 64
        E 178 81 3e 40
        E 0 81 44 40
        E 0 81 46 40
        E 14 91 43 64
        E 0 91 3f 64
        E 0 91 46 64
        E 178 81 43 40
        E 0 81 3f 40
        E 0 81 46 40
        E 14 91 44 64
        E 0 91 48 64
        E 82 81 44 40
        E 0 81 48 40
        E 14 91 41 64
        E 0 91 44 64
        E 0 91 4a 64
        E 82 81 41 40
        E 0 81 44 40
        E 0 81 4a 40
        E 14 91 46 64
        E 0 91 43 64
        E 0 91 4b 64
        E 178 81 46 40
        E 0 81 43 40
        E 0 81 4b 40
        E 14 91 4d 64
        E 0 91 46 64
        E 0 91 44 64
        E 178 81 4d 40
        E 0 81 46 40
        E 0 81 44 40
        E 14 91 46 64
        E 0 91 43 64
        E 0 91 4f 64
        E 274 81 46 40
        E 0 81 43 40
        E 0 81 4f 40
        E 14 91 44 64
        E 0 91 4d 64
        E 82 81 44 40
        E 0 81 4d 40
        E 14 91 43 64
        E 0 91 4b 64
        E 178 81 43 40
        E 0 81 4b 40
        E 14 91 44 64
        E 0 91 48 64
        E 0 91 3f 64
        E 178 81 44 40
        E 0 81 48 40
        E 0 81 3f 40
        E 14 91 3f 64
        E 0 91 43 64
        E 0 91 46 64
        E 274 81 3f 40
        E 0 81 43 40
        E 0 81 46 40
        E 14 91 43 64
        E 0 91 3f 64
        E 82 81 43 40
        E 0 81 3f 40
        E 14 91 46 64
        E 0 91 3e 64
        E 178 81 46 40
        E 0 81 3e 40
        E 14 91 3e 64
        E 0 91 44 64
        E 0 91 41 64
        E 178 81 3e 40
        E 0 81 44 40
        E 0 81 41 40
        E 14 91 3e 64
        E 0 91 41 64
        E 0 91 43 64
        E 370 81 3e 40
        E 0 81 41 40
        E 0 81 43 40
        E 14 91 3f 64
        E 0 91 3c 64
        E 178 81 3f 40
        E 0 81 3c 40
        E 14 91 44 64
        E 0 91 41 64
        E 0 91 46 64
        E 178 81 44 40
        E 0 81 41 40
        E 0 81 46 40
        E 14 91 43 64
        E 0 91 46 64
        E 0 91 3f 64
        E 178 81 43 40
        E 0 81 46 40
        E 0 81 3f 40
        E 14 91 48 64
        E 0 91 44 64
        E 82 81 48 40
        E 0 81 44 40
        E 14 91 41 64
        E 0 91 44 64
        E 0 91 4a 64
        E 82 81 41 40
        E 0 81 44 40
        E 0 81 4a 40
        E 14 91 4b 64
        E 0 91 46 64
        E 0 91 43 64
        E 178 81 4b 40
        E 0 81 46 40
        E 0 81 43 40
        E 14 91 4d 64
        E 0 91 48 64
        E 0 91 41 64
        E 178 81 4d 40
        E 0 81 48 40
        E 0 81 41 40
        E 14 91 4f 64
        E 0 91 47 64
        E 0 91 43 64
        E 0 91 4a 64
        E 274 81 4f 40
        E 0 81 47 40
        E 0 81 43 40
        E 0 81 4a 40
        E 14 91 43 64
        E 0 91 47 64
        E 0 91 4a 64
        E 0 91 4d 64
        E 82 81 43 40
        E 0 81 47 40
        E 0 81 4a 40
        E 0 81 4d 40
        E 14 91 4b 64
        E 0 91 3f 64
        E 0 91 43 64
        E 178 81 4b 40
        E 0 81 3f 40
        E 0 81 43 40
        E 14 91 44 64
        E 0 91 3f 64
        E 0 91 48 64
        E 178 81 44 40
        E 0 81 3f 40
        E 0 81 48 40
        E 14 91 43 64
        E 0 91 46 64
        E 0 91 3f 64
        E 274 81 43 40
        E 0 81 46 40
        E 14 91 46 64
        E 0 91 4b 64
        E 0 91 43 64
        E 82 81 3f 40
        E 0 81 46 40
        E 0 81 4b 40
        E 0 81 43 40
        E 14 91 4a 64
        E 0 91 41 64
        E 0 91 46 64
        E 178 81 4a 40
        E 0 81 41 40
        E 0 81 46 40
        E 14 91 44 64
        E 0 91 46 64
        E 0 91 4d 64
        E 178 81 44 40
        E 0 81 46 40
        E 0 81 4d 40
        E 14 91 43 64
        E 0 91 4b 64
        E 0 91 46 64
        E 562 81 43 40
        E 0 81 4b 40
        E 0 81 46 40
        E 14 b0 7b 00
        GUID {758F221A-BA07-814E-8EEF-9EEA5C92FAE3}
        IGNTEMPO 0 120 4 4
        SRCCOLOR 434
        VELLANE -1 86 6
      >
    >
    <ITEM
      POSITION 0
      SNAPOFFS 0
      LENGTH 41.5
      LOOP 1
      ALLTAKES 0
      FADEIN 1 0 0 1 0 0
      FADEOUT 1 0 0 1 0 0
      MUTE 0
      SEL 1
      YPOS 0.333333 0.166667
      IGUID {837FA484-8208-334A-B2EA-B8FE51D33976}
      IID 3
      NAME "LH                   - National_Anthems_-_Luxembourg.mid"
      VOLPAN 1 0 1 -1
      SOFFS 0 0
      PLAYRATE 1 1 0 -1 0 0.0025
      CHANMODE 0
      GUID {48548E5A-2480-624A-BFD5-FE1A02B5CCE5}
      <SOURCE MIDI
        HASDATA 1 192 QN
        POOLEDEVTS {1B43A325-7666-F74A-978F-F6F766E6A199}
        <X 0 0 0 0 3 "LH                  "
          /wNMSCAgICAgICAgICAgICAgICAgIA==
        >
        E 576 92 33 64
        E 0 92 37 64
        E 0 92 3a 64
        E 178 82 33 40
        E 0 82 37 40
        E 0 82 3a 40
        E 14 92 33 64
        E 0 92 3a 64
        E 0 92 37 64
        E 274 82 33 40
        E 0 82 3a 40
        E 0 82 37 40
        E 14 92 33 64
        E 0 92 37 64
        E 0 92 3a 64
        E 82 82 33 40
        E 0 82 37 40
        E 0 82 3a 40
        E 14 92 3a 64
        E 0 92 37 64
        E 0 92 33 64
        E 178 82 3a 40
        E 0 82 37 40
        E 0 82 33 40
        E 14 92 33 64
        E 0 92 3a 64
        E 0 92 37 64
        E 178 82 33 40
        E 0 82 3a 40
        E 0 82 37 40
        E 14 92 3c 64
        E 0 92 30 64
        E 178 82 3c 40
        E 0 82 30 40
        E 14 92 30 64
        E 0 92 3c 64
        E 178 82 30 40
        E 0 82 3c 40
        E 14 92 30 64
        E 0 92 3c 64
        E 274 82 30 40
        E 0 82 3c 40
        E 14 92 35 64
        E 0 92 38 64
        E 82 82 35 40
        E 0 82 38 40
        E 14 92 38 64
        E 0 92 35 64
        E 178 82 38 40
        E 0 82 35 40
        E 14 92 35 64
        E 0 92 38 64
        E 178 82 35 40
        E 0 82 38 40
        E 14 92 2e 64
        E 0 92 3a 64
        E 0 92 35 64
        E 274 82 2e 40
        E 0 82 3a 40
        E 0 82 35 40
        E 14 92 2e 64
        E 0 92 3a 64
        E 82 82 2e 40
        E 0 82 3a 40
        E 14 92 3a 64
        E 0 92 33 64
        E 370 82 3a 40
        E 0 82 33 40
        E 206 92 33 64
        E 0 92 3a 64
        E 0 92 37 64
        E 178 82 33 40
        E 0 82 3a 40
        E 0 82 37 40
        E 14 92 3a 64
        E 0 92 37 64
        E 0 92 33 64
        E 274 82 3a 40
        E 0 82 37 40
        E 0 82 33 40
        E 14 92 3a 64
        E 0 92 37 64
        E 0 92 33 64
        E 82 82 3a 40
        E 0 82 37 40
        E 0 82 33 40
        E 14 92 33 64
        E 0 92 3a 64
        E 0 92 37 64
        E 178 82 33 40
        E 0 82 3a 40
        E 0 82 37 40
        E 14 92 33 64
        E 0 92 3a 64
        E 0 92 37 64
        E 178 82 33 40
        E 0 82 3a 40
        E 0 82 37 40
        E 14 92 39 64
        E 0 92 35 64
        E 178 82 39 40
        E 0 82 35 40
        E 14 92 33 64
        E 0 92 39 64
        E 178 82 33 40
        E 0 82 39 40
        E 14 92 3a 64
        E 0 92 35 64
        E 0 92 32 64
        E 274 82 3a 40
        E 0 82 35 40
        E 0 82 32 40
        E 14 92 33 64
        E 0 92 37 64
        E 0 92 3c 64
        E 82 82 33 40
        E 0 82 37 40
        E 0 82 3c 40
        E 14 92 3e 64
        E 0 92 3a 64
        E 0 92 35 64
        E 178 82 3e 40
        E 0 82 3a 40
        E 0 82 35 40
        E 14 92 3a 64
        E 0 92 35 64
        E 0 92 3e 64
        E 178 82 3a 40
        E 0 82 35 40
        E 0 82 3e 40
        E 14 92 3f 64
        E 0 92 35 64
        E 274 82 3f 40
        E 0 82 35 40
        E 14 92 35 64
        E 0 92 3f 64
        E 82 82 35 40
        E 0 82 3f 40
        E 14 92 2e 64
        E 0 92 35 64
        E 0 92 3a 64
        E 562 82 2e 40
        E 0 82 35 40
        E 0 82 3a 40
        E 206 92 2e 64
        E 82 82 2e 40
        E 14 92 3a 64
        E 82 82 3a 40
        E 14 92 2e 64
        E 82 82 2e 40
        E 14 92 3a 64
        E 82 82 3a 40
        E 14 92 2e 64
        E 82 82 2e 40
        E 14 92 3a 64
        E 82 82 3a 40
        E 14 92 2e 64
        E 82 82 2e 40
        E 14 92 3a 64
        E 82 82 3a 40
        E 14 92 2e 64
        E 82 82 2e 40
        E 14 92 3a 64
        E 82 82 3a 40
        E 14 92 2e 64
        E 82 82 2e 40
        E 14 92 3a 64
        E 82 82 3a 40
        E 14 92 30 64
        E 82 82 30 40
        E 14 92 3a 64
        E 82 82 3a 40
        E 14 92 32 64
        E 82 82 32 40
        E 14 92 3a 64
        E 82 82 3a 40
        E 14 92 33 64
        E 82 82 33 40
        E 14 92 3a 64
        E 82 82 3a 40
        E 14 92 33 64
        E 82 82 33 40
        E 14 92 3a 64
        E 82 82 3a 40
        E 14 92 37 64
        E 82 82 37 40
        E 14 92 3a 64
        E 82 82 3a 40
        E 14 92 33 64
        E 82 82 33 40
        E 14 92 3a 64
        E 82 82 3a 40
        E 14 92 2e 64
        E 0 92 3a 64
        E 130 82 2e 40
        E 0 82 3a 40
        E 14 92 2e 64
        E 0 92 3a 64
        E 34 82 2e 40
        E 0 82 3a 40
        E 14 92 3c 64
        E 0 92 30 64
        E 82 82 3c 40
        E 0 82 30 40
        E 14 92 3a 64
        E 0 92 2e 64
        E 82 82 3a 40
        E 0 82 2e 40
        E 14 92 39 64
        E 0 92 2d 64
        E 82 82 39 40
        E 0 82 2d 40
        E 14 92 38 64
        E 0 92 2c 64
        E 82 82 38 40
        E 0 82 2c 40
        E 14 92 37 64
        E 0 92 2b 64
        E 82 82 37 40
        E 0 82 2b 40
        E 14 92 35 64
        E 0 92 29 64
        E 82 82 35 40
        E 0 82 29 40
        E 14 92 27 64
        E 0 92 33 64
        E 82 82 27 40
        E 0 82 33 40
        E 14 92 3a 64
        E 0 92 37 64
        E 82 82 3a 40
        E 0 82 37 40
        E 14 92 38 64
        E 0 92 3c 64
        E 82 82 3c 40
        E 14 92 3e 64
        E 0 92 3a 64
        E 82 82 38 40
        E 0 82 3e 40
        E 0 82 3a 40
        E 14 92 33 64
        E 82 82 33 40
        E 14 92 3a 64
        E 0 92 3f 64
        E 0 92 37 64
        E 82 82 3a 40
        E 0 82 3f 40
        E 0 82 37 40
        E 14 92 2e 64
        E 82 82 2e 40
        E 14 92 3e 64
        E 0 92 38 64
        E 0 92 3a 64
        E 82 82 3e 40
        E 0 82 38 40
        E 0 82 3a 40
        E 14 92 33 64
        E 82 82 33 40
        E 14 92 3a 64
        E 0 92 37 64
        E 0 92 3f 64
        E 82 82 3a 40
        E 0 82 37 40
        E 0 82 3f 40
        E 14 92 3a 64
        E 0 92 3f 64
        E 0 92 37 64
        E 82 82 3a 40
        E 0 82 3f 40
        E 0 82 37 40
        E 14 92 3a 64
        E 0 92 37 64
        E 0 92 3f 64
        E 82 82 3a 40
        E 0 82 37 40
        E 0 82 3f 40
        E 14 92 33 64
        E 82 82 33 40
        E 14 92 3a 64
        E 0 92 3f 64
        E 0 92 37 64
        E 82 82 3a 40
        E 0 82 3f 40
        E 0 82 37 40
        E 14 92 2c 64
        E 82 82 2c 40
        E 14 92 33 64
        E 0 92 30 64
        E 82 82 33 40
        E 0 82 30 40
        E 14 92 2e 64
        E 82 82 2e 40
        E 14 92 33 64
        E 0 92 37 64
        E 82 82 33 40
        E 0 82 37 40
        E 14 92 33 64
        E 0 92 37 64
        E 82 82 33 40
        E 0 82 37 40
        E 14 92 33 64
        E 0 92 37 64
        E 82 82 33 40
        E 0 82 37 40
        E 14 92 2e 64
        E 82 82 2e 40
        E 14 92 35 64
        E 0 92 38 64
        E 82 82 35 40
        E 0 82 38 40
        E 14 92 2e 64
        E 82 82 2e 40
        E 14 92 38 64
        E 0 92 35 64
        E 82 82 38 40
        E 0 82 35 40
        E 14 92 2f 64
        E 82 82 2f 40
        E 14 92 35 64
        E 0 92 32 64
        E 0 92 37 64
        E 82 82 35 40
        E 0 82 32 40
        E 0 82 37 40
        E 14 92 35 64
        E 0 92 32 64
        E 0 92 37 64
        E 82 82 35 40
        E 0 82 32 40
        E 0 82 37 40
        E 14 92 35 64
        E 0 92 32 64
        E 0 92 37 64
        E 82 82 35 40
        E 0 82 32 40
        E 0 82 37 40
        E 14 92 30 64
        E 82 82 30 40
        E 14 92 33 64
        E 0 92 37 64
        E 82 82 33 40
        E 0 82 37 40
        E 14 92 32 64
        E 82 82 32 40
        E 14 92 38 64
        E 0 92 3a 64
        E 0 92 35 64
        E 82 82 38 40
        E 0 82 3a 40
        E 0 82 35 40
        E 14 92 33 64
        E 82 82 33 40
        E 14 92 3a 64
        E 0 92 37 64
        E 82 82 3a 40
        E 0 82 37 40
        E 14 92 3c 64
        E 0 92 38 64
        E 82 82 3c 40
        E 0 82 38 40
        E 14 92 3a 64
        E 0 92 3e 64
        E 82 82 3e 40
        E 14 92 33 64
        E 82 82 3a 40
        E 0 82 33 40
        E 14 92 3f 64
        E 0 92 3a 64
        E 0 92 37 64
        E 82 82 3f 40
        E 0 82 3a 40
        E 0 82 37 40
        E 14 92 2c 64
        E 82 82 2c 40
        E 14 92 38 64
        E 82 82 38 40
        E 14 92 2b 64
        E 82 82 2b 40
        E 14 92 32 64
        E 82 82 32 40
        E 14 92 37 64
        E 82 82 37 40
        E 14 92 2f 64
        E 82 82 2f 40
        E 14 92 30 64
        E 82 82 30 40
        E 14 92 33 64
        E 0 92 37 64
        E 82 82 33 40
        E 0 82 37 40
        E 14 92 2c 64
        E 82 82 2c 40
        E 14 92 33 64
        E 0 92 38 64
        E 82 82 33 40
        E 0 82 38 40
        E 14 92 2e 64
        E 82 82 2e 40
        E 14 92 33 64
        E 82 82 33 40
        E 14 92 37 64
        E 82 82 37 40
        E 14 92 3a 64
        E 82 82 3a 40
        E 14 92 2e 64
        E 82 82 2e 40
        E 14 92 3a 64
        E 82 82 3a 40
        E 14 92 38 64
        E 82 82 38 40
        E 14 92 35 64
        E 82 82 35 40
        E 14 92 33 64
        E 82 82 33 40
        E 14 92 2e 64
        E 82 82 2e 40
        E 14 92 2b 64
        E 82 82 2b 40
        E 14 92 2e 64
        E 82 82 2e 40
        E 14 92 27 64
        E 178 82 27 40
        E 14 b0 7b 00
        GUID {A246F63D-B5FF-7B41-ACD5-760B48F46798}
        IGNTEMPO 0 120 4 4
        SRCCOLOR 435
        VELLANE -1 86 6
      >
    >
  >
  <TRACK {B91E5163-8C2B-404F-8C78-0605AAF52936}
    NAME ChipFront
    PEAKCOL 16576
    BEAT -1
    AUTOMODE 0
    VOLPAN 1 0 -1 -1 1
    MUTESOLO 0 0 0
    IPHASE 0
    ISBUS 0 0
    BUSCOMP 0 0
    SHOWINMIX 1 0.6667 0.276119 1 0.5 0 0 0
    FREEMODE 0
    SEL 0
    REC 0 0 0 0 0 0 0
    VU 2
    TRACKHEIGHT 0 0
    INQ 0 0 0 0.5 100 0 0 100
    NCHAN 2
    FX 1
    TRACKID {B91E5163-8C2B-404F-8C78-0605AAF52936}
    PERF 0
    AUXRECV 2 0 1 0 0 0 0 0 0 -1:U 0 -1 ''
    MIDIOUT -1
    MAINSEND 1 0
    <FXCHAIN
      SHOW 0
      LASTSEL 0
      DOCKED 0
      BYPASS 1 0 0
      <VST "VST: FabFilter Volcano 2 (SC) (FabFilter)" "FabFilter Volcano 2 (SC).vst" 0 "" 1180054068
        NDJWRu9e7f4EAAAAAQAAAAAAAAACAAAAAAAAAAQAAAAAAAAACAAAAAAAAAAEAAAAAQAAAAAAAAACAAAAAAAAAAQAAAAAAAAACAAAAAAAAADcCwAAAAAAAAAAEAA=
        776t3g3wrd4AAAA/AAAAPwAAAD8AAAA/AACAPwAAAAAAAAA/q6qqPq2+aD8AAAA/ig0yPM3MzD0AAAAAAAAAAAAAAAAAAIA/AACAP0Isdj8AAAA/bbDgPZqZGT8AAAAA
        AAAAAOev3zwAAIA/AAAAAAAAgD8AAAA/AAAAAJqZGT8AAAAAAAAAAAAAAAAAAIA/AAAAAAAAgD8AAAA/AAAAAJqZGT8AAAAAAAAAAAAAAAAAAIA/AAAAAKuqqj4ATrI+
        AAAAPwAAAADBykk/XXRRPwAAAACJiIg9AACAP6oXiD4AAAAAAAAAAAAAAAAAAAAAAACAPwAAAAAAAAA/AAAAAAAAAAAAAAAAAAAAPwAAAAAAAAAAAAAAAAAAAD8AAAAA
        AAAAAAAAAAAAAAA/AAAAAAAAAAAAAAAAAAAAPwAAAAAAAAAAAAAAAAAAAD8AAAAAAAAAAAAAAAAAAAA/AAAAAAAAAAAAAAAAAAAAPwAAAAAAAAAAAAAAAAAAAD8AAAAA
        AAAAAAAAAAAAAAA/AAAAAAAAAAAAAAAAAAAAPwAAAAAAAAAAAAAAAAAAAD8AAAAAAAAAAAAAAAAAAAA/AAAAAAAAAAAAAAAAAAAAPwAAAAAAAAAAAAAAAHwZED4AAAA/
        KKO3PQAAgD8AAAAAAAAAAImIiD3y0iU/AAAAAAAAgD8AAAAAdGjRPQAAAAAAAIA/AAAAAAAAAD8AAAAAAAAAAAAAAAAAAAA/AAAAAAAAAAAAAAAAAAAAPwAAAAAAAAAA
        AAAAAAAAAD8AAAAAAAAAAAAAAAAAAAA/AAAAAAAAAAAAAAAAAAAAPwAAAAAAAAAAAAAAAAAAAD8AAAAAAAAAAAAAAAAAAAA/AAAAAAAAAAAAAAAAAAAAPwAAAAAAAAAA
        AAAAAAAAAD8AAAAAAAAAAAAAAAAAAAA/AAAAAAAAAAAAAAAAAAAAPwAAAAAAAAAAAAAAAAAAAD8AAAAAAAAAAAAAAAAAAAA/AAAAAAAAAAAAAAAAvvR9PgAAAD8AAAA/
        AAAAPwAAAAAAAAAAiYiIPQAAAD8AAAAAAAAAAAAAAAAAAAA/AAAAAAAAAAAAAAAAAAAAPwAAAAAAAAAAAAAAAAAAAD8AAAAAAAAAAAAAAAAAAAA/AAAAAAAAAAAAAAAA
        AAAAPwAAAAAAAAAAAAAAAAAAAD8AAAAAAAAAAAAAAAAAAAA/AAAAAAAAAAAAAAAAAAAAPwAAAAAAAAAAAAAAAAAAAD8AAAAAAAAAAAAAAAAAAAA/AAAAAAAAAAAAAAAA
        AAAAPwAAAAAAAAAAAAAAAAAAAD8AAAAAAAAAAAAAAAAAAAA/AAAAAAAAAAAAAAAAAAAAPwAAAAAAAAAAAAAAAAAAAD8AAAAAAAAAAAAAAAC+9H0+AAAAPwAAAD8AAAA/
        AAAAAAAAAACJiIg9AAAAPwAAAAAAAAAAAAAAAAAAAD8AAAAAAAAAAAAAAAAAAAA/AAAAAAAAAAAAAAAAAAAAPwAAAAAAAAAAAAAAAAAAAD8AAAAAAAAAAAAAAAAAAAA/
        AAAAAAAAAAAAAAAAAAAAPwAAAAAAAAAAAAAAAAAAAD8AAAAAAAAAAAAAAAAAAAA/AAAAAAAAAAAAAAAAAAAAPwAAAAAAAAAAAAAAAAAAAD8AAAAAAAAAAAAAAAAAAAA/
        AAAAAAAAAAAAAAAAAAAAPwAAAAAAAAAAAAAAAAAAAD8AAAAAAAAAAAAAAAAAAAA/AAAAAAAAAAAAAAAAAAAAPwAAAAAAAAAAAAAAAL70fT4AAAA/AAAAPwAAAD8AAAAA
        AAAAAImIiD0AAAA/AAAAAAAAAAAAAAAAAAAAPwAAAAAAAAAAAAAAAAAAAD8AAAAAAAAAAAAAAAAAAAA/AAAAAAAAAAAAAAAAAAAAPwAAAAAAAAAAAAAAAAAAAD8AAAAA
        AAAAAAAAAAAAAAA/AAAAAAAAAAAAAAAAAAAAPwAAAAAAAAAAAAAAAAAAAD8AAAAAAAAAAAAAAAAAAAA/AAAAAAAAAAAAAAAAAAAAPwAAAAAAAAAAAAAAAAAAAD8AAAAA
        AAAAAAAAAAAAAAA/AAAAAAAAAAAAAAAAAAAAPwAAAAAAAAAAAAAAAAAAAD8AAAAAAAAAAAAAAAAAAAA/AAAAAAAAAAAAAAAAvvR9PgAAAD8AAAA/AAAAPwAAAAAAAAAA
        iYiIPQAAAD8AAAAAAAAAAAAAAAAAAAA/AAAAAAAAAAAAAAAAAAAAPwAAAAAAAAAAAAAAAAAAAD8AAAAAAAAAAAAAAAAAAAA/AAAAAAAAAAAAAAAAAAAAPwAAAAAAAAAA
        AAAAAAAAAD8AAAAAAAAAAAAAAAAAAAA/AAAAAAAAAAAAAAAAAAAAPwAAAAAAAAAAAAAAAAAAAD8AAAAAAAAAAAAAAAAAAAA/AAAAAAAAAAAAAAAAAAAAPwAAAAAAAAAA
        AAAAAAAAAD8AAAAAAAAAAAAAAAAAAAA/AAAAAAAAAAAAAAAAAAAAPwAAAAAAAAAAAAAAAAAAAD8AAAAAAAAAAAAAAAAAAAAAmpmZPgAAAAAAAAAAAAAAAAAAgD8AAAAA
        mpmZPgAAAAAAAAAAAAAAAAAAgD8AAAAAmpmZPgAAAAAAAAAAAAAAAAAAgD8AAAAAmpmZPgAAAAAAAAAAAAAAAAAAgD8AAAAAmpmZPgAAAAAAAAAAAAAAAAAAgD8AAAAA
        mpmZPgAAAAAAAAAAAAAAAAAAgD8AAAAAAAAAAAAAAAAAAAAAAAAAAAAAAAAAAAAAAAAAAAAAAAAAAAAAAAAAAAAAAAAAAAAAAAAAAAAAAAAAAAAAAAAAAAAAAAAAAAAA
        AAAAAAAAAAAAAAAAAAAAAAAAAAAAAAAAAAAAAAAAAAAAAAAAAAAAAAAAAAAAAAAAAAAAAAAAAAAAAAAAAAAAAAAAAAAAAAAAAAAAAKuqKj3ZiZ09gShWPgAAAAAAAAAA
        v+eWPQAAAAAAAAA/AAAAAAAAAAAAAAAAAAAAAAAAAD8AAAAAAAAAAAAAAAAAAAAAAAAAPwAAAAAAAAAAAAAAAAAAAAAAAAAAAAAAAAAAAAAAAAAAAAAAAAAAAAAAAAAA
        AAAAAAAAAAAAAAAAAAAAAAAAAAAAAAAAAAAAAAAAAAAAAAAAAAAAAAAAAAAAAAAAAAAAAAAAAAAAAAAAAAAAAAAAAAAAAAAAAAAAAAAAAAAAAAAAAAAAAAAAAAAAAAAA
        AAAAAAAAAAAAAAAAAAAAAAAAAAAAAAAAAAAAAAAAAAAAAAAAAAAAAAAAAAAAAAAAAAAAAAAAAAAAAAAAAAAAAAAAAAAAAAAAAAAAAAAAAAAAAAAAAAAAAAAAAAAAAAAA
        AAAAAAAAAAAAAAAAAAAAAAAAAAAAAAAAAAAAAAAAAAAAAAAAAAAAAAAAAAAAAAAAAAAAAAAAAAAAAAAAAAAAAAAAAAAAAAAAAAAAAAAAAAAAAAAAAAAAAAAAAAAAAAAA
        AAAAAAAAAAAAAAAAAAAAAAAAAAAAAAAAAAAAAAAAAAAAAAAAAAAAAAAAAAAAAAAAAAAAAAAAAAAAAAAAAAAAAAAAAAAAAAAAAAAAAAAAAAAAAAAAAAAAPwAAAD8AAAA/
        AAAAPwAAAD8AAAA/AAAAPwAAAD8AAAAAAAAAAAAAAAAAAAAAAAAAAAAAAAAAAAAAAAAAAAAAAAAAAAAAAAAAAAAAAAAAAAAAAAAAAAAAAAAAAAAAAAAAAAAAAAAAAAAA
        AAAAAAAAAAAAAAAAAAAAAAAAAAAAAAAAAAAAAAAAAAAAAAAAAAAAAAAAAAAAAAAAAAAAAAAAAAAAAAAAAAAAAAAAAAAAAAAAAAAAAAAAAAAAAAAAAAAAAAAAAAAAAAAA
        AAAAAAAAAAAAAAAAAAAAAAAAAAAAAAAAAAAAAAAAAAAAAAAAAAAAAAAAAAAAAAAAAAAAAAAAAAAAAAAAAAAAAAAAAAAAAAAAAAAAAAAAAAAAAAAAAAAAAAAAAAAAAAAA
        AAAAAAAAAAAAAAAAAAAAAAAAAAAAAAAAAAAAAAAAAAAAAAAAAAAAAAAAAAAAAAAAAAAAAAAAAAAAAAAA
        Q2hpcEZyb250AENoaXBGcm9udAAQAAAA
      >
      PRESETNAME ChipFront
      FLOATPOS 36 32 641 529
      FXID {4C5A6810-F3ED-0645-A06D-6758F70CB097}
      WAK 0
    >
  >
  <TRACK {4E9F66C4-38E7-4946-B39F-214CBB1CFB8B}
    NAME ChipSide
    PEAKCOL 16576
    BEAT -1
    AUTOMODE 0
    VOLPAN 1 0 -1 -1 1
    MUTESOLO 0 0 0
    IPHASE 0
    ISBUS 0 0
    BUSCOMP 0 0
    SHOWINMIX 1 0.6667 0.276119 1 0.5 0 0 0
    FREEMODE 0
    SEL 0
    REC 0 0 0 0 0 0 0
    VU 2
    TRACKHEIGHT 0 0
    INQ 0 0 0 0.5 100 0 0 100
    NCHAN 2
    FX 1
    TRACKID {4E9F66C4-38E7-4946-B39F-214CBB1CFB8B}
    PERF 0
    AUXRECV 2 0 1.03113579563571 0 0 0 0 2 0 -1:U 0 -1 ''
    MIDIOUT -1
    MAINSEND 1 0
    <FXCHAIN
      SHOW 0
      LASTSEL 0
      DOCKED 0
      BYPASS 1 0 0
      <VST "VST: FabFilter Volcano 2 (SC) (FabFilter)" "FabFilter Volcano 2 (SC).vst" 0 "" 1180054068
        NDJWRu9e7f4EAAAAAQAAAAAAAAACAAAAAAAAAAQAAAAAAAAACAAAAAAAAAAIAAAAAQAAAAAAAAACAAAAAAAAAAQAAAAAAAAACAAAAAAAAAAQAAAAAAAAACAAAAAAAAAA
        QAAAAAAAAACAAAAAAAAAANwLAAAAAAAAAAAQAA==
        776t3g3wrd4AAAA/AAAAPwAAAD8AAAA/AACAPwAAAAAAAIA/q6qqPsplFD8AAAA/TxqgPc3MzD0AAAAAAAAAAEKGIj8AAIA/AACAP0Isdj8AAAA/bbDgPZqZGT8AAAAA
        AAAAAOev3zwAAIA/AAAAAAAAgD8AAAA/AAAAAJqZGT8AAAAAAAAAAAAAAAAAAIA/AAAAAAAAgD8AAAA/AAAAAJqZGT8AAAAAAAAAAAAAAAAAAIA/AAAAAKuqqj6CdAA9
        EObJPZgn+j4AAIA/AAAAAAAAAACJiAg+AACAP7PDtD4AAIA/AAAAAAAAAAAAAAAAq6qqPgAAAACeFR0/AAAAAAAAgD8AAAAAAAAAPwAAAAAAAAAAAAAAAAAAAD8AAAAA
        AAAAAAAAAAAAAAA/AAAAAAAAAAAAAAAAAAAAPwAAAAAAAAAAAAAAAAAAAD8AAAAAAAAAAAAAAAAAAAA/AAAAAAAAAAAAAAAAAAAAPwAAAAAAAAAAAAAAAAAAAD8AAAAA
        AAAAAAAAAAAAAAA/AAAAAAAAAAAAAAAAAAAAPwAAAAAAAAAAAAAAAAAAAD8AAAAAAAAAAAAAAAAAAAA/AAAAAAAAAAAAAAAAAAAAPwAAAAAAAAAAAAAAAHwZED4AAAA/
        KKO3PQAAgD8AAAAAAAAAAImIiD3y0iU/AAAAAAAAgD8AAAAAdGjRPQAAAAAAAIA/AAAAAAAAAD8AAAAAAAAAAAAAAAAAAAA/AAAAAAAAAAAAAAAAAAAAPwAAAAAAAAAA
        AAAAAAAAAD8AAAAAAAAAAAAAAAAAAAA/AAAAAAAAAAAAAAAAAAAAPwAAAAAAAAAAAAAAAAAAAD8AAAAAAAAAAAAAAAAAAAA/AAAAAAAAAAAAAAAAAAAAPwAAAAAAAAAA
        AAAAAAAAAD8AAAAAAAAAAAAAAAAAAAA/AAAAAAAAAAAAAAAAAAAAPwAAAAAAAAAAAAAAAAAAAD8AAAAAAAAAAAAAAAAAAAA/AAAAAAAAAAAAAAAAvvR9PgAAAD8AAAA/
        AAAAPwAAAAAAAAAAiYiIPQAAAD8AAAAAAAAAAAAAAAAAAAA/AAAAAAAAAAAAAAAAAAAAPwAAAAAAAAAAAAAAAAAAAD8AAAAAAAAAAAAAAAAAAAA/AAAAAAAAAAAAAAAA
        AAAAPwAAAAAAAAAAAAAAAAAAAD8AAAAAAAAAAAAAAAAAAAA/AAAAAAAAAAAAAAAAAAAAPwAAAAAAAAAAAAAAAAAAAD8AAAAAAAAAAAAAAAAAAAA/AAAAAAAAAAAAAAAA
        AAAAPwAAAAAAAAAAAAAAAAAAAD8AAAAAAAAAAAAAAAAAAAA/AAAAAAAAAAAAAAAAAAAAPwAAAAAAAAAAAAAAAAAAAD8AAAAAAAAAAAAAAAC+9H0+AAAAPwAAAD8AAAA/
        AAAAAAAAAACJiIg9AAAAPwAAAAAAAAAAAAAAAAAAAD8AAAAAAAAAAAAAAAAAAAA/AAAAAAAAAAAAAAAAAAAAPwAAAAAAAAAAAAAAAAAAAD8AAAAAAAAAAAAAAAAAAAA/
        AAAAAAAAAAAAAAAAAAAAPwAAAAAAAAAAAAAAAAAAAD8AAAAAAAAAAAAAAAAAAAA/AAAAAAAAAAAAAAAAAAAAPwAAAAAAAAAAAAAAAAAAAD8AAAAAAAAAAAAAAAAAAAA/
        AAAAAAAAAAAAAAAAAAAAPwAAAAAAAAAAAAAAAAAAAD8AAAAAAAAAAAAAAAAAAAA/AAAAAAAAAAAAAAAAAAAAPwAAAAAAAAAAAAAAAL70fT4AAAA/AAAAPwAAAD8AAAAA
        AAAAAImIiD0AAAA/AAAAAAAAAAAAAAAAAAAAPwAAAAAAAAAAAAAAAAAAAD8AAAAAAAAAAAAAAAAAAAA/AAAAAAAAAAAAAAAAAAAAPwAAAAAAAAAAAAAAAAAAAD8AAAAA
        AAAAAAAAAAAAAAA/AAAAAAAAAAAAAAAAAAAAPwAAAAAAAAAAAAAAAAAAAD8AAAAAAAAAAAAAAAAAAAA/AAAAAAAAAAAAAAAAAAAAPwAAAAAAAAAAAAAAAAAAAD8AAAAA
        AAAAAAAAAAAAAAA/AAAAAAAAAAAAAAAAAAAAPwAAAAAAAAAAAAAAAAAAAD8AAAAAAAAAAAAAAAAAAAA/AAAAAAAAAAAAAAAAvvR9PgAAAD8AAAA/AAAAPwAAAAAAAAAA
        iYiIPQAAAD8AAAAAAAAAAAAAAAAAAAA/AAAAAAAAAAAAAAAAAAAAPwAAAAAAAAAAAAAAAAAAAD8AAAAAAAAAAAAAAAAAAAA/AAAAAAAAAAAAAAAAAAAAPwAAAAAAAAAA
        AAAAAAAAAD8AAAAAAAAAAAAAAAAAAAA/AAAAAAAAAAAAAAAAAAAAPwAAAAAAAAAAAAAAAAAAAD8AAAAAAAAAAAAAAAAAAAA/AAAAAAAAAAAAAAAAAAAAPwAAAAAAAAAA
        AAAAAAAAAD8AAAAAAAAAAAAAAAAAAAA/AAAAAAAAAAAAAAAAAAAAPwAAAAAAAAAAAAAAAAAAAD8AAAAAAAAAAAAAAAAAAAAAmpmZPgAAAAAAAAAAAAAAAAAAgD8AAAAA
        mpmZPgAAAAAAAAAAAAAAAAAAgD8AAAAAmpmZPgAAAAAAAAAAAAAAAAAAgD8AAAAAmpmZPgAAAAAAAAAAAAAAAAAAgD8AAAAAmpmZPgAAAAAAAAAAAAAAAAAAgD8AAAAA
        mpmZPgAAAAAAAAAAAAAAAAAAgD8AAAAAAAAAAAAAAAAAAAAAAAAAAAAAAAAAAAAAAAAAAAAAAAAAAAAAAAAAAAAAAAAAAAAAAAAAAAAAAAAAAAAAAAAAAAAAAAAAAAAA
        AAAAAAAAAAAAAAAAAAAAAAAAAAAAAAAAAAAAAAAAAAAAAAAAAAAAAAAAAAAAAAAAAAAAAAAAAAAAAAAAAAAAAAAAAAAAAAAAAAAAAKuqqj3ZiZ09gShWPgAAgD8AAAAA
        v+eWPdmJHT0WszE/AAAAAAAAAACSdiw8AAAAAAAAAD8AAAAAAAAAAAAAAAAAAAAAAAAAPwAAAAAAAAAAAAAAAAAAAAAAAAAAAAAAAAAAAAAAAAAAAAAAAAAAAAAAAAAA
        AAAAAAAAAAAAAAAAAAAAAAAAAAAAAAAAAAAAAAAAAAAAAAAAAAAAAAAAAAAAAAAAAAAAAAAAAAAAAAAAAAAAAAAAAAAAAAAAAAAAAAAAAAAAAAAAAAAAAAAAAAAAAAAA
        AAAAAAAAAAAAAAAAAAAAAAAAAAAAAAAAAAAAAAAAAAAAAAAAAAAAAAAAAAAAAAAAAAAAAAAAAAAAAAAAAAAAAAAAAAAAAAAAAAAAAAAAAAAAAAAAAAAAAAAAAAAAAAAA
        AAAAAAAAAAAAAAAAAAAAAAAAAAAAAAAAAAAAAAAAAAAAAAAAAAAAAAAAAAAAAAAAAAAAAAAAAAAAAAAAAAAAAAAAAAAAAAAAAAAAAAAAAAAAAAAAAAAAAAAAAAAAAAAA
        AAAAAAAAAAAAAAAAAAAAAAAAAAAAAAAAAAAAAAAAAAAAAAAAAAAAAAAAAAAAAAAAAAAAAAAAAAAAAAAAAAAAAAAAAAAAAAAAAAAAAAAAAAAAAAAAAAAAPwAAAD8AAAA/
        AAAAPwAAAD8AAAA/AAAAPwAAAD8AAAAAAAAAAAAAAAAAAAAAAAAAAAAAAAAAAAAAAAAAAAAAAAAAAAAAAAAAAAAAAAAAAAAAAAAAAAAAAAAAAAAAAAAAAAAAAAAAAAAA
        AAAAAAAAAAAAAAAAAAAAAAAAAAAAAAAAAAAAAAAAAAAAAAAAAAAAAAAAAAAAAAAAAAAAAAAAAAAAAAAAAAAAAAAAAAAAAAAAAAAAAAAAAAAAAAAAAAAAAAAAAAAAAAAA
        AAAAAAAAAAAAAAAAAAAAAAAAAAAAAAAAAAAAAAAAAAAAAAAAAAAAAAAAAAAAAAAAAAAAAAAAAAAAAAAAAAAAAAAAAAAAAAAAAAAAAAAAAAAAAAAAAAAAAAAAAAAAAAAA
        AAAAAAAAAAAAAAAAAAAAAAAAAAAAAAAAAAAAAAAAAAAAAAAAAAAAAAAAAAAAAAAAAAAAAAAAAAAAAAAA
        Q2hpcFNpZGUAQ2hpcFNpZGUAEAAAAA==
      >
      PRESETNAME ChipSide
      FLOATPOS 36 32 641 529
      FXID {20356A84-5CFD-6E4A-AA26-2A8A49CE7A76}
      WAK 0
    >
  >
  <EXTENSIONS
    <SWSAUTOCOLOR
      {00000000-0000-0000-0000-000000000000} 0 "" "" ""
    >
    <XENAKIOSCOMMANDS
      REFTRACK 0 3 1 "0000000"
    >
    <BR_CURSOR_POS 04
      0.00000000000000
    >
  >
>
