<REAPER_PROJECT 0.1 "5.201/OSX64" 1464864043
  RIPPLE 0
  GROUPOVERRIDE 0 0 0
  AUTOXFADE 0
  ENVATTACH 1
  MIXERUIFLAGS 11 52
  PEAKGAIN 1
  FEEDBACK 0
  PANLAW 1
  PROJOFFS 0 0
  MAXPROJLEN 0 600
  GRID 174206 8 1 8 1 0 0
  TIMEMODE 6 0 -1 24 2
  PANMODE 3
  CURSOR 18
  ZOOM 20.47025059952123 0 0
  VZOOMEX 12
  USE_REC_CFG 0
  RECMODE 1
  SMPTESYNC 0 23.976024 100 40 1000 300 0 0 1
  MIDIEDITOR -116919545
  LOOP 1
  LOOPGRAN 0 4
  RECORD_PATH "" ""
  <RECORD_CFG
    ZXZhdxAA
  >
  <APPLYFX_CFG
  >
  RENDER_FILE ""
  RENDER_PATTERN ""
  RENDER_FMT 0 2 0
  RENDER_1X 0
  RENDER_RANGE 1 0 0 18 1000
  RENDER_RESAMPLE 3 0 1
  RENDER_ADDTOPROJ 0
  RENDER_STEMS 0
  RENDER_DITHER 0
  TIMELOCKMODE 1
  TEMPOENVLOCKMODE 1
  ITEMMIX 1
  DEFPITCHMODE 589824
  TAKELANE 3
  SAMPLERATE 44100 0 0
  <RENDER_CFG
  >
  LOCK 1
  <METRONOME 6 2
    VOL 0.25 0.125
    FREQ 800 1600 1
    BEATLEN 4
    SAMPLES "" ""
    PATTERN 2863311530 2863311529
  >
  GLOBAL_AUTO -1
  TEMPO 120 4 4
  PLAYRATE 1 0 0.25 4
  SELECTION 18 42
  SELECTION2 18 42
  MASTERAUTOMODE 0
  MASTERTRACKHEIGHT 0
  MASTERPEAKCOL 16576
  MASTERMUTESOLO 0
  MASTERTRACKVIEW 0 0.6667 0.5 0.5 0 0 0
  MASTERHWOUT 0 0 1 0 0 0 0 -1
  MASTER_NCH 2 2
  MASTER_VOLUME 1 0 -1 -1 1
  MASTER_FX 1
  MASTER_SEL 0
  <MASTERPLAYSPEEDENV
    ACT 0
    VIS 0 1 1
    LANEHEIGHT 0 0
    ARM 0
    DEFSHAPE 0 -1 -1
  >
  <TEMPOENVEX
    ACT 0
    VIS 1 0 1
    LANEHEIGHT 0 0
    ARM 0
    DEFSHAPE 1 -1 -1
  >
  MARKER 1 0 "" 0 0 1 B
  <PROJBAY
  >
  <TRACK {F23F8223-271A-294D-A229-F474D58B7A97}
    NAME "vst Gladiator"
    PEAKCOL 27222112
    BEAT -1
    AUTOMODE 0
    VOLPAN 0.42118287246328 0 -1 -1 1
    MUTESOLO 0 0 0
    IPHASE 0
    ISBUS 0 0
    BUSCOMP 2 0
    SHOWINMIX 1 0.6667 0.698113 1 0.5 0 0 0
    FREEMODE 0
    SEL 1
    REC 0 0 0 0 0 0 0
    VU 2
    TRACKHEIGHT 0 0
    INQ 0 0 0 0.5 100 0 0 100
    NCHAN 2
    FX 1
    TRACKID {F23F8223-271A-294D-A229-F474D58B7A97}
    PERF 0
    MIDIOUT -1
    MAINSEND 1 0
    <FXCHAIN
      SHOW 0
      LASTSEL 0
      DOCKED 0
      BYPASS 0 0 0
      <VST "VSTi: Gladiator (Tone2.com)" Gladiator.vst 0 "" 1412581196
        TEcyVO5e7f4AAAAAAgAAAAEAAAAAAAAAAgAAAAAAAABaBAAAAQAAAAAAEAA=
        Q2NuSwAAAGBGeENrAAAAAVQyR0wAAAABAAABB0luaXQAAAAAAAAAAAAAAAAAAAAAAAAAAAAAAAA9zMzNPMzMzTw0OVg9uFH0PXnbIz+AAAA7xJumPb52yT+AAAA7xJum
        AAAAAD6mZmY+PXCkP4AAAD7FHrk/AAAAPwAAAAAAAAA9ffO2PdDlYDy8an8/RR64AAAAAD+AAAA8NDlYPZFocz71wo87RJumPbhR6D69cKQ+PXCkP4AAAD8AAAA/A9cL
        PwAAAAAAAAAAAAAAPwAAAD8AAAA/AAAAPtmZmj8AAAAAAAAAO+VgQj24UesAAAAAPk21xDtEm6Y/S4UeAAAAAAAAAAA+64UgPpR64T1hR7A+z1woPx64Uj49cKY/AAAA
        PwAAAAAAAAAAAAAAPwAAAAAAAAAAAAAAP4AAAD+AAAAAAAAAPxHrhT8AAAA/AAAAPwAAAD8AAAAAAAAAPwAAAD8AAAA/AAAAAAAAAD8AAAA/AAAAPwAAAAAAAAA6gxJv
        P1Cj1wAAAAA/gAAAAAAAADqDEm8/AAAAAAAAAAAAAAAAAAAAPwAAAAAAAAA/gAAAAAAAAD+AAAAAAAAAPwAAAD8AAAA/AAAAPwAAAD8AAAA/AAAAPwAAAD8AAAA/AAAA
        PwAAAD8AAAA/EeuGPKPXCjqDEm88RJumAAAAAAAAAAAAAAAAPLxqfwAAAAAAAAAAAAAAAAAAAAAAAAAAAAAAAAAAAAAAAAAAAAAAAAAAAAAAAAAAAAAAAAAAAAAAAAAA
        AAAAAAAAAAA8E3S8AAAAADw0OVgAAAAAPBN0vAAAAAA8NDlYAAAAADwTdLwAAAAAPDQ5WAAAAAA8E3S8AAAAADw0OVgAAAAAPGVgQj2HKwI8ZWBCOwMSbz2JN0w7AxJv
        PLQ5WDyLQ5Y8k3S8PVT99D0XjVA8zMzNPoAAAD9ywjU/AAAAP1GnuT8wjT4/HLCNAAAAADsDEm86gxJvAAAAAAAAAAAAAAAAPwAAADqDEm87RJumP4AAAAAAAAA/gAAA
        AAAAAD+AAAAAAAAAAAAAAAAAAAAAAAAAP4AAAAAAAAA/AAAAAAAAAD8AAAA/BR64PwAAAD+AAAA/AAAAPwAAAD8AAAA/gAAAP4AAAAAAAAAAAAAAAAAAAD8AAAA/gAAA
        PwAAAAAAAAA+vXCkAAAAAAAAAAA/gAAAP4AAAD8j1wo/gAAAAAAAAAAAAAA/gAAAPwAAAAAAAAAAAAAAAAAAAAAAAAAAAAAAAAAAAAAAAAAAAAAAAAAAAAAAAAAAAAAA
        AAAAAD8AAAA/AAAAPwAAAD8AAAA/AAAAPwAAAAAAAAAAAAAAP4AAAAAAAAAAAAAAAAAAAAAAAAAAAAAAAAAAAAAAAAAAAAAAAAAAAAAAAAAAAAAAAAAAAAAAAAAAAAAA
        AAAAAAAAAAAAAAAAAAAAAAAAAAAAAAAAAAAAAAAAAAAAAAAAAAAAAAAAAAAAAAAAAAAAAAAAqqusrQ==
        AAAQAAAA
      >
      FLOATPOS 500 379 987 799
      FXID {532372E3-5B0D-9345-A9C8-98A8EBAF9A7E}
      WAK 0
    >
    <ITEM
      POSITION 0
      SNAPOFFS 0
      LENGTH 41.5
      LOOP 1
      ALLTAKES 0
      FADEIN 1 0 0 1 0 0
      FADEOUT 1 0 0 1 0 0
      MUTE 0
      SEL 0
      YPOS 0 0.166667
      IGUID {90A2B138-F036-1C47-8553-28BF6234F297}
      IID 1
      NAME "Melody               - National_Anthems_-_Luxembourg.mid"
      VOLPAN 1 0 1 -1
      SOFFS 0 0
      PLAYRATE 1 1 0 -1 0 0.0025
      CHANMODE 0
      GUID {4145347F-A47A-3A49-930C-08EBEE6BB5A3}
      <SOURCE MIDI
        HASDATA 1 192 QN
        POOLEDEVTS {10D61D50-38F9-1F4A-A943-FF07C4C79DD1}
        <X 0 0
          /wNNZWxvZHkgICAgICAgICAgICAgIA==
        >
        <X 0 0
          /wEocCkgKGMpIFRoZSBTb2Z0d2FyZSBUb29sd29ya3M=
        >
        <X 0 0
          /wFBbnRoZW0gTmFtZTogT3VyIE1vdGhlcmxhbmQ=
        >
        <X 0 0
          /wFDb3VudHJ5OiBMVVhFTUJPVVJH
        >
        <X 0 0
          /wFNdWx0aU1lZGlhIFdpbmRvd3MgVmVyc2lvbg==
        >
        <X 0 0
          /wFSb2IgV2FsbGFjZSBNdXNpYw==
        >
        <X 0 0
          /wFkYXRlOjctMjMtOTE=
        >
        <X 0 0
          /wFlZGl0IGRhdGU6IDktNy05MQ==
        >
        <X 0 0
          /wFuZXcgIzogezYwMn0gOTc5LTYyMDE=
        >
        <X 0 0
          /wFNVUxUSU1FRElBIFdJTkRPV1MgVkVSU0lPTg==
        >
        E 576 90 46 64
        E 178 80 46 40
        E 14 90 46 64
        E 274 80 46 40
        E 14 90 4b 64
        E 82 80 4b 40
        E 14 90 4b 64
        E 178 80 4b 40
        E 14 90 43 64
        E 178 80 43 40
        E 14 90 46 64
        E 178 80 46 40
        E 14 90 44 64
        E 178 80 44 40
        E 14 90 44 64
        E 274 80 44 40
        E 14 90 44 64
        E 82 80 44 40
        E 14 90 44 64
        E 178 80 44 40
        E 14 90 46 64
        E 82 80 46 40
        E 14 90 48 64
        E 82 80 48 40
        E 14 90 46 64
        E 274 80 46 40
        E 14 90 44 64
        E 82 80 44 40
        E 14 90 43 64
        E 370 80 43 40
        E 206 90 46 64
        E 178 80 46 40
        E 14 90 46 64
        E 274 80 46 40
        E 14 90 4b 64
        E 82 80 4b 40
        E 14 90 4b 64
        E 274 80 4b 40
        E 14 90 4a 64
        E 82 80 4a 40
        E 14 90 48 64
        E 178 80 48 40
        E 14 90 48 64
        E 178 80 48 40
        E 14 90 4d 64
        E 274 80 4d 40
        E 14 90 4b 64
        E 82 80 4b 40
        E 14 90 4a 64
        E 178 80 4a 40
        E 14 90 46 64
        E 178 80 46 40
        E 14 90 4a 64
        E 274 80 4a 40
        E 14 90 48 64
        E 82 80 48 40
        E 14 90 46 64
        E 562 80 46 40
        E 14 90 41 64
        E 178 80 41 40
        E 14 90 41 64
        E 274 80 41 40
        E 14 90 43 64
        E 82 80 43 40
        E 14 90 44 64
        E 178 80 44 40
        E 14 90 46 64
        E 178 80 46 40
        E 14 90 48 64
        E 178 80 48 40
        E 14 90 48 64
        E 178 80 48 40
        E 14 90 46 64
        E 274 80 46 40
        E 14 90 44 64
        E 82 80 44 40
        E 14 90 43 64
        E 178 80 43 40
        E 14 90 46 64
        E 178 80 46 40
        E 14 90 46 64
        E 178 80 46 40
        E 14 90 4b 64
        E 178 80 4b 40
        E 14 90 4a 64
        E 562 80 4a 40
        E 14 90 46 64
        E 178 80 46 40
        E 14 90 46 64
        E 178 80 46 40
        E 14 90 48 64
        E 82 80 48 40
        E 14 90 4a 64
        E 82 80 4a 40
        E 14 90 4b 64
        E 178 80 4b 40
        E 14 90 4d 64
        E 178 80 4d 40
        E 14 90 4f 64
        E 274 80 4f 40
        E 14 90 4d 64
        E 82 80 4d 40
        E 14 90 4b 64
        E 178 80 4b 40
        E 14 90 48 64
        E 178 80 48 40
        E 14 90 46 64
        E 274 80 46 40
        E 14 90 43 64
        E 82 80 43 40
        E 14 90 46 64
        E 178 80 46 40
        E 14 90 44 64
        E 178 80 44 40
        E 14 90 43 64
        E 562 80 43 40
        E 14 90 46 64
        E 178 80 46 40
        E 14 90 46 64
        E 178 80 46 40
        E 14 90 48 64
        E 82 80 48 40
        E 14 90 4a 64
        E 82 80 4a 40
        E 14 90 4b 64
        E 178 80 4b 40
        E 14 90 4d 64
        E 178 80 4d 40
        E 14 90 4f 64
        E 274 80 4f 40
        E 14 90 4d 64
        E 82 80 4d 40
        E 14 90 4b 64
        E 178 80 4b 40
        E 14 90 48 64
        E 178 80 48 40
        E 14 90 46 64
        E 274 80 46 40
        E 14 90 4b 64
        E 82 80 4b 40
        E 14 90 4a 64
        E 178 80 4a 40
        E 14 90 4d 64
        E 178 80 4d 40
        E 14 90 4b 64
        E 562 80 4b 40
        E 14 b0 7b 00
        GUID {890104AB-DDFA-3D41-8024-A4777AFA8A92}
        IGNTEMPO 0 120 4 4
        SRCCOLOR 433
        VELLANE -1 86 6
        CFGEDITVIEW 6714.155269 100.13766 47 25 0 0 0 0 0 0.5
        KEYSNAP 0
        TRACKSEL 226 0 0 ""
        EVTFILTER 0 -1 -1 -1 -1 0 0 0 0 -1 -1 -1 -1 0 -1 0 -1 -1
        CFGEDIT 1 0 0 0 0 0 1 0 1 1 1 0.25 589 421 1837 1120 0 0 2 3 0 0 0 0 0 -1 0 0 1 64
      >
    >
  >
  <TRACK {A26B8C2D-9EE6-0440-AA6B-121F89FB50DD}
    NAME "16th pulse (mix w/ send?)"
    PEAKCOL 16576
    BEAT -1
    AUTOMODE 0
    VOLPAN 0.45583759840005 0 -1 -1 1
    MUTESOLO 0 0 0
    IPHASE 0
    ISBUS 0 0
    BUSCOMP 0 0
    SHOWINMIX 1 0.6667 0.698113 1 0.5 0 0 0
    FREEMODE 0
    SEL 1
    REC 0 0 0 0 0 0 0
    VU 2
    TRACKHEIGHT 0 0
    INQ 0 0 0 0.5 100 0 0 100
    NCHAN 2
    FX 1
    TRACKID {A26B8C2D-9EE6-0440-AA6B-121F89FB50DD}
    PERF 0
    MIDIOUT -1
    MAINSEND 1 0
    <FXCHAIN
      WNDRECT 36 359 724 387
      SHOW 0
      LASTSEL 0
      DOCKED 0
      BYPASS 0 0 0
      <VST "VSTi: chipsounds (Plogue Art et Technologie, Inc)" chipsounds.vst 0 "" 1347176271
        T0dMUO5e7f4AAAAABAAAAAEAAAAAAAAAAgAAAAAAAAAEAAAAAAAAAAgAAAAAAAAAIwMAAAEAAAAAABAA
        Q0VHUNMTAAB4nO1YXW+bMBR976+weNoeSmy+kZJUbdJMkZY1Gtlz5RA3RTOQgcna/fpdIDTQpOB23aSp9Uv8cXzvPfeCOXH/7C7kaMuSNIijgUJUrKCz4Un/PAmoR7es
        tmRhTRmeIGh9jwkRROsU/cgoD8Q9rCpozeMl5fOYw1DXFJSKhNEQYOUwpHdeMXPOeezPLgaKSWB6Nh1PrzIxi1essEIzEYdUgEuPx2KgQDypDyum6eY9yinMEXSKWO5b
        TX2+mx6xSLBkoFi4CmWRRYV3rOKiKahXxQ+mUbAqrEc0ZLlJFc2zhKHRbbDpedNxzzIdgj58WXijjwpa0uj7FPAEYwjDv6VRxPhAOYWANwVhQ0HiwN1meZ3QaM1y4MOk
        gKl0E6es8B5mouSd/rzmNAXC9i7JRaAzGkRVoFvKM1aUqMmmCSQPwAPaTaAmC9RlgYYs0JQFWrJAWxboyAJdWSDB0kjp2hDp4hDp6hDp8pCu+sxpQkOph2iP7PK+R9Zr
        6ZhmC7KResNtg9r13BO91b/RgLZarT+gxGmFNp+8NqhTt6q35spxpaFuPVnEbYMSY19Xoh2v14ImayZ2p6cfh+qcx+uMqfmHQ/08uVKzlCW4dpYVu0ZZCsf7mAqKxP0G
        dmqabuWnX/ALBkaeo+p7A/5YtApo2V3BFuhUbVL+aPh1W5Nir+T4XNLkLZH+CuGyBL57HktzCmoq2OatlH2RBOs1SzyQIizyWdJJm9gacSvapl2jrR2jTXasd60c20Vf
        H9kTt0FihPXJX0xEv5eLpsf6ibyWftL2+om8QEDhmoCy3gXUu4D6XwRUkxGxLFtGarnYLP48dUstzTYsbHVLreMvxRNSy2yF2l31fEKVmUarfmrUqV3r1ROg260B1Ctl
        tsvCrnfpRQJORmrVNdw+t1pnxbDWUd53DffWNdyfKRiCyXMlTHF02JCFyeWhhClTY+sXjYkJCJsc6xxAYXZ8zALWmhb+pTS6vLlhvji8YDoPl0Ge4sdaqLqS+vRtWm2g
        vgi2bFref5FqfLm/D2McXLDVgi6LdTDR71UXdsOT37TyxgE=
        AAAQAAAA
      >
      FLOATPOS 409 269 871 509
      FXID {DC79668B-30D1-964C-A162-F245DBE294B0}
      WAK 0
      BYPASS 0 0 0
      <VST "VST: 8-Bit Shaper (Xfer Records)" 8BitShaper.vst 0 "" 1148539762
        clN1RO5e7f4CAAAAAQAAAAAAAAACAAAAAAAAAAQAAAABAAAAAAAAAAIAAAAAAAAABAAAAAAAAAAIAAAAAAAAADQCAAABAAAAAAAQAA==
        ZmaGPwAAAD8AAAA/AAAAPygAOgAAAIA/0wAAAFMAAAAXAAAAMAAAABkAAAAaAAAAGgAAABoAAAAbAAAAGwAAABwAAAAcAAAAHAAAAB0AAAAdAAAAHgAAAB4AAAAfAAAA
        HwAAACAAAAAgAAAAIAAAACEAAAAhAAAAIQAAACIAAAAiAAAAIgAAACMAAAAjAAAAIwAAACQAAAAkAAAAJAAAACUAAAAlAAAAKAAAACgAAAApAAAAKQAAACoAAAA1AAAA
        KgAAACoAAAA2AAAAKgAAACoAAAAqAAAAKgAAACoAAAAqAAAAKgAAACsAAAArAAAAOQAAAC0AAAA0AAAAOgAAAC0AAAAtAAAAPAAAAC4AAAAuAAAALwAAADAAAAAwAAAA
        MQAAADEAAAAxAAAAMgAAADMAAAAzAAAAMwAAADcAAAA3AAAANwAAADgAAAA4AAAAOAAAADkAAAA5AAAAOQAAADoAAAA6AAAAOgAAADoAAAA6AAAAOwAAADsAAAA7AAAA
        PAAAADsAAAA7AAAAOwAAADwAAAA8AAAAPAAAADwAAAA9AAAAPQAAAD0AAAA9AAAAPQAAAD4AAAA+AAAAPwAAAEkAAABAAAAAQAAAAEgAAABAAAAAQQAAAEIAAABCAAAA
        QgAAAEMAAABDAAAAQwAAAEQAAABEAAAARQAAAE0AAABGAAAARwAAAEYAAABHAAAASAAAAEgAAABJAAAATwAAAAAAgD+rqio/q6qqPloPwD6icHs/
        AEluaXQgMQAQAAAA
      >
      PRESETNAME "Init 1"
      FLOATPOS 342 36 278 389
      FXID {3B54D9BC-468F-7F4F-A65A-9A565E9D80B8}
      WAK 0
    >
    <ITEM
      POSITION 0
      SNAPOFFS 0
      LENGTH 41.5
      LOOP 1
      ALLTAKES 0
      FADEIN 1 0 0 1 0 0
      FADEOUT 1 0 0 1 0 0
      MUTE 0
      SEL 0
      YPOS 0.833333 0.166667
      IGUID {E6BE63F2-C782-5F4E-ACAF-B30D453442F6}
      IID 6
      NAME "lh                   - National_Anthems_-_Luxembourg.mid"
      VOLPAN 1 0 1 -1
      SOFFS 0 0
      PLAYRATE 1 1 0 -1 0 0.0025
      CHANMODE 0
      GUID {AD977D88-3569-CA4A-A510-53EA4EDDA008}
      <SOURCE MIDI
        HASDATA 1 192 QN
        POOLEDEVTS {D4D93FBC-6D3F-2C42-9645-72EBE3AFA75C}
        <X 0 0
          /wNsaCAgICAgICAgICAgICAgICAgIA==
        >
        E 576 9d 33 64
        E 0 9d 37 64
        E 0 9d 3a 64
        E 178 8d 33 40
        E 0 8d 37 40
        E 0 8d 3a 40
        E 14 9d 33 64
        E 0 9d 3a 64
        E 0 9d 37 64
        E 274 8d 33 40
        E 0 8d 3a 40
        E 0 8d 37 40
        E 14 9d 33 64
        E 0 9d 37 64
        E 0 9d 3a 64
        E 82 8d 33 40
        E 0 8d 37 40
        E 0 8d 3a 40
        E 14 9d 3a 64
        E 0 9d 37 64
        E 0 9d 33 64
        E 178 8d 3a 40
        E 0 8d 37 40
        E 0 8d 33 40
        E 14 9d 33 64
        E 0 9d 3a 64
        E 0 9d 37 64
        E 178 8d 33 40
        E 0 8d 3a 40
        E 0 8d 37 40
        E 14 9d 3c 64
        E 0 9d 30 64
        E 178 8d 3c 40
        E 0 8d 30 40
        E 14 9d 30 64
        E 0 9d 3c 64
        E 178 8d 30 40
        E 0 8d 3c 40
        E 14 9d 30 64
        E 0 9d 3c 64
        E 274 8d 30 40
        E 0 8d 3c 40
        E 14 9d 35 64
        E 0 9d 38 64
        E 82 8d 35 40
        E 0 8d 38 40
        E 14 9d 38 64
        E 0 9d 35 64
        E 178 8d 38 40
        E 0 8d 35 40
        E 14 9d 35 64
        E 0 9d 38 64
        E 178 8d 35 40
        E 0 8d 38 40
        E 14 9d 2e 64
        E 0 9d 3a 64
        E 0 9d 35 64
        E 274 8d 2e 40
        E 0 8d 3a 40
        E 0 8d 35 40
        E 14 9d 2e 64
        E 0 9d 3a 64
        E 82 8d 2e 40
        E 0 8d 3a 40
        E 14 9d 3a 64
        E 0 9d 33 64
        E 370 8d 3a 40
        E 0 8d 33 40
        E 206 9d 33 64
        E 0 9d 3a 64
        E 0 9d 37 64
        E 178 8d 33 40
        E 0 8d 3a 40
        E 0 8d 37 40
        E 14 9d 3a 64
        E 0 9d 37 64
        E 0 9d 33 64
        E 274 8d 3a 40
        E 0 8d 37 40
        E 0 8d 33 40
        E 14 9d 3a 64
        E 0 9d 37 64
        E 0 9d 33 64
        E 82 8d 3a 40
        E 0 8d 37 40
        E 0 8d 33 40
        E 14 9d 33 64
        E 0 9d 3a 64
        E 0 9d 37 64
        E 178 8d 33 40
        E 0 8d 3a 40
        E 0 8d 37 40
        E 14 9d 33 64
        E 0 9d 3a 64
        E 0 9d 37 64
        E 178 8d 33 40
        E 0 8d 3a 40
        E 0 8d 37 40
        E 14 9d 39 64
        E 0 9d 35 64
        E 178 8d 39 40
        E 0 8d 35 40
        E 14 9d 33 64
        E 0 9d 39 64
        E 178 8d 33 40
        E 0 8d 39 40
        E 14 9d 3a 64
        E 0 9d 35 64
        E 0 9d 32 64
        E 274 8d 3a 40
        E 0 8d 35 40
        E 0 8d 32 40
        E 14 9d 33 64
        E 0 9d 37 64
        E 0 9d 3c 64
        E 82 8d 33 40
        E 0 8d 37 40
        E 0 8d 3c 40
        E 14 9d 3e 64
        E 0 9d 3a 64
        E 0 9d 35 64
        E 178 8d 3e 40
        E 0 8d 3a 40
        E 0 8d 35 40
        E 14 9d 3a 64
        E 0 9d 35 64
        E 0 9d 3e 64
        E 178 8d 3a 40
        E 0 8d 35 40
        E 0 8d 3e 40
        E 14 9d 3f 64
        E 0 9d 35 64
        E 274 8d 3f 40
        E 0 8d 35 40
        E 14 9d 35 64
        E 0 9d 3f 64
        E 82 8d 35 40
        E 0 8d 3f 40
        E 14 9d 2e 64
        E 0 9d 35 64
        E 0 9d 3a 64
        E 562 8d 2e 40
        E 0 8d 35 40
        E 0 8d 3a 40
        E 206 9d 2e 64
        E 82 8d 2e 40
        E 14 9d 3a 64
        E 82 8d 3a 40
        E 14 9d 2e 64
        E 82 8d 2e 40
        E 14 9d 3a 64
        E 82 8d 3a 40
        E 14 9d 2e 64
        E 82 8d 2e 40
        E 14 9d 3a 64
        E 82 8d 3a 40
        E 14 9d 2e 64
        E 82 8d 2e 40
        E 14 9d 3a 64
        E 82 8d 3a 40
        E 14 9d 2e 64
        E 82 8d 2e 40
        E 14 9d 3a 64
        E 82 8d 3a 40
        E 14 9d 2e 64
        E 82 8d 2e 40
        E 14 9d 3a 64
        E 82 8d 3a 40
        E 14 9d 30 64
        E 82 8d 30 40
        E 14 9d 3a 64
        E 82 8d 3a 40
        E 14 9d 32 64
        E 82 8d 32 40
        E 14 9d 3a 64
        E 82 8d 3a 40
        E 14 9d 33 64
        E 82 8d 33 40
        E 14 9d 3a 64
        E 82 8d 3a 40
        E 14 9d 33 64
        E 82 8d 33 40
        E 14 9d 3a 64
        E 82 8d 3a 40
        E 14 9d 37 64
        E 82 8d 37 40
        E 14 9d 3a 64
        E 82 8d 3a 40
        E 14 9d 33 64
        E 82 8d 33 40
        E 14 9d 3a 64
        E 82 8d 3a 40
        E 14 9d 2e 64
        E 0 9d 3a 64
        E 130 8d 2e 40
        E 0 8d 3a 40
        E 14 9d 2e 64
        E 0 9d 3a 64
        E 34 8d 2e 40
        E 0 8d 3a 40
        E 14 9d 3c 64
        E 0 9d 30 64
        E 82 8d 3c 40
        E 0 8d 30 40
        E 14 9d 3a 64
        E 0 9d 2e 64
        E 82 8d 3a 40
        E 0 8d 2e 40
        E 14 9d 39 64
        E 0 9d 2d 64
        E 82 8d 39 40
        E 0 8d 2d 40
        E 14 9d 38 64
        E 0 9d 2c 64
        E 82 8d 38 40
        E 0 8d 2c 40
        E 14 9d 37 64
        E 0 9d 2b 64
        E 82 8d 37 40
        E 0 8d 2b 40
        E 14 9d 35 64
        E 0 9d 29 64
        E 82 8d 35 40
        E 0 8d 29 40
        E 14 9d 27 64
        E 0 9d 33 64
        E 82 8d 27 40
        E 0 8d 33 40
        E 14 9d 3a 64
        E 0 9d 37 64
        E 82 8d 3a 40
        E 0 8d 37 40
        E 14 9d 38 64
        E 0 9d 3c 64
        E 82 8d 3c 40
        E 14 9d 3e 64
        E 0 9d 3a 64
        E 82 8d 38 40
        E 0 8d 3e 40
        E 0 8d 3a 40
        E 14 9d 33 64
        E 82 8d 33 40
        E 14 9d 3a 64
        E 0 9d 3f 64
        E 0 9d 37 64
        E 82 8d 3a 40
        E 0 8d 3f 40
        E 0 8d 37 40
        E 14 9d 2e 64
        E 82 8d 2e 40
        E 14 9d 3e 64
        E 0 9d 38 64
        E 0 9d 3a 64
        E 82 8d 3e 40
        E 0 8d 38 40
        E 0 8d 3a 40
        E 14 9d 33 64
        E 82 8d 33 40
        E 14 9d 3a 64
        E 0 9d 37 64
        E 0 9d 3f 64
        E 82 8d 3a 40
        E 0 8d 37 40
        E 0 8d 3f 40
        E 14 9d 3a 64
        E 0 9d 3f 64
        E 0 9d 37 64
        E 82 8d 3a 40
        E 0 8d 3f 40
        E 0 8d 37 40
        E 14 9d 3a 64
        E 0 9d 37 64
        E 0 9d 3f 64
        E 82 8d 3a 40
        E 0 8d 37 40
        E 0 8d 3f 40
        E 14 9d 33 64
        E 82 8d 33 40
        E 14 9d 3a 64
        E 0 9d 3f 64
        E 0 9d 37 64
        E 82 8d 3a 40
        E 0 8d 3f 40
        E 0 8d 37 40
        E 14 9d 2c 64
        E 82 8d 2c 40
        E 14 9d 33 64
        E 0 9d 30 64
        E 82 8d 33 40
        E 0 8d 30 40
        E 14 9d 2e 64
        E 82 8d 2e 40
        E 14 9d 33 64
        E 0 9d 37 64
        E 82 8d 33 40
        E 0 8d 37 40
        E 14 9d 33 64
        E 0 9d 37 64
        E 82 8d 33 40
        E 0 8d 37 40
        E 14 9d 33 64
        E 0 9d 37 64
        E 82 8d 33 40
        E 0 8d 37 40
        E 14 9d 2e 64
        E 82 8d 2e 40
        E 14 9d 35 64
        E 0 9d 38 64
        E 82 8d 35 40
        E 0 8d 38 40
        E 14 9d 2e 64
        E 82 8d 2e 40
        E 14 9d 38 64
        E 0 9d 35 64
        E 82 8d 38 40
        E 0 8d 35 40
        E 14 9d 2f 64
        E 82 8d 2f 40
        E 14 9d 35 64
        E 0 9d 32 64
        E 0 9d 37 64
        E 82 8d 35 40
        E 0 8d 32 40
        E 0 8d 37 40
        E 14 9d 35 64
        E 0 9d 32 64
        E 0 9d 37 64
        E 82 8d 35 40
        E 0 8d 32 40
        E 0 8d 37 40
        E 14 9d 35 64
        E 0 9d 32 64
        E 0 9d 37 64
        E 82 8d 35 40
        E 0 8d 32 40
        E 0 8d 37 40
        E 14 9d 30 64
        E 82 8d 30 40
        E 14 9d 33 64
        E 0 9d 37 64
        E 82 8d 33 40
        E 0 8d 37 40
        E 14 9d 32 64
        E 82 8d 32 40
        E 14 9d 38 64
        E 0 9d 3a 64
        E 0 9d 35 64
        E 82 8d 38 40
        E 0 8d 3a 40
        E 0 8d 35 40
        E 14 9d 33 64
        E 82 8d 33 40
        E 14 9d 3a 64
        E 0 9d 37 64
        E 82 8d 3a 40
        E 0 8d 37 40
        E 14 9d 3c 64
        E 0 9d 38 64
        E 82 8d 3c 40
        E 0 8d 38 40
        E 14 9d 3a 64
        E 0 9d 3e 64
        E 82 8d 3e 40
        E 14 9d 33 64
        E 82 8d 3a 40
        E 0 8d 33 40
        E 14 9d 3f 64
        E 0 9d 3a 64
        E 0 9d 37 64
        E 82 8d 3f 40
        E 0 8d 3a 40
        E 0 8d 37 40
        E 14 9d 2c 64
        E 82 8d 2c 40
        E 14 9d 38 64
        E 82 8d 38 40
        E 14 9d 2b 64
        E 82 8d 2b 40
        E 14 9d 32 64
        E 82 8d 32 40
        E 14 9d 37 64
        E 82 8d 37 40
        E 14 9d 2f 64
        E 82 8d 2f 40
        E 14 9d 30 64
        E 82 8d 30 40
        E 14 9d 33 64
        E 0 9d 37 64
        E 82 8d 33 40
        E 0 8d 37 40
        E 14 9d 2c 64
        E 82 8d 2c 40
        E 14 9d 33 64
        E 0 9d 38 64
        E 82 8d 33 40
        E 0 8d 38 40
        E 14 9d 2e 64
        E 82 8d 2e 40
        E 14 9d 33 64
        E 82 8d 33 40
        E 14 9d 37 64
        E 82 8d 37 40
        E 14 9d 3a 64
        E 82 8d 3a 40
        E 14 9d 2e 64
        E 82 8d 2e 40
        E 14 9d 3a 64
        E 82 8d 3a 40
        E 14 9d 38 64
        E 82 8d 38 40
        E 14 9d 35 64
        E 82 8d 35 40
        E 14 9d 33 64
        E 82 8d 33 40
        E 14 9d 2e 64
        E 82 8d 2e 40
        E 14 9d 2b 64
        E 82 8d 2b 40
        E 14 9d 2e 64
        E 82 8d 2e 40
        E 14 9d 27 64
        E 178 8d 27 40
        E 14 b0 7b 00
        GUID {D7D1A523-16ED-CE4C-BA31-F45CD6120C01}
        IGNTEMPO 0 120 4 4
        SRCCOLOR 438
        VELLANE -1 86 6
      >
    >
  >
  <TRACK {D4259754-8A5D-ED42-9EF0-7FA3B62785A4}
    NAME "vst Plogue"
    PEAKCOL 26779488
    BEAT -1
    AUTOMODE 0
    VOLPAN 1 0 -1 -1 1
    MUTESOLO 0 0 0
    IPHASE 0
    ISBUS 0 0
    BUSCOMP 0 0
    SHOWINMIX 1 0.6667 0.698113 1 0.5 0 0 0
    FREEMODE 0
    SEL 1
    REC 0 0 0 1 0 0 0
    VU 2
    TRACKHEIGHT 0 0
    INQ 0 0 0 0.5 100 0 0 100
    NCHAN 4
    FX 1
    TRACKID {D4259754-8A5D-ED42-9EF0-7FA3B62785A4}
    PERF 0
    AUXRECV 3 0 1 0 0 0 0 0 0 -1:U 32 -1 ''
    AUXRECV 3 0 1 0 0 0 0 0 0 -1:U 96 -1 ''
    AUXRECV 4 0 1 0 0 0 0 0 0 -1:U 64 -1 ''
    AUXRECV 4 0 1 0 0 0 0 0 0 -1:U 128 -1 ''
    MIDIOUT -1
    MAINSEND 0 0
    <FXCHAIN
      WNDRECT 532 389 724 387
      SHOW 0
      LASTSEL 0
      DOCKED 0
      BYPASS 0 0 0
      <VST "VSTi: chipsounds (Multi) (Plogue Art et Technologie, Inc) (32 out)" "chipsounds Multi.vst" 0 "" 1347241807
        T0dNUO5e7f4AAAAAIAAAAAEAAAAAAAAAAgAAAAAAAAAEAAAAAAAAAAgAAAAAAAAAEAAAAAAAAAAgAAAAAAAAAEAAAAAAAAAAgAAAAAAAAAAAAQAAAAAAAAACAAAAAAAA
        AAQAAAAAAAAACAAAAAAAAAAQAAAAAAAAACAAAAAAAAAAQAAAAAAAAACAAAAAAAAAAAABAAAAAAAAAAIAAAAAAAAABAAAAAAAAAAIAAAAAAAAABAAAAAAAAAAIAAAAAAA
        AABAAAAAAAAAAIAAAAAAAAAAAAEAAAAAAAAAAgAAAAAAAAAEAAAAAAAAAAgAAAAAAAAAEAAAAAAAAAAgAAAAAAAAAEAAAAAAAAAAgAAAAADpBQAAAQAAAAAAEAA=
        Q0VHUNw+AAB4nO2bQXOjNhTH7/kUDKf2sEYSCMyMkx3bidvMNN1MnZ0edxRb69BicJFId/vpK8DEko2FiLPb3QYOiZH/POk9yeInPRi9/bSOrUeasShNzm04ALb19uJs
        NM4iMiePVPrKB8i+OLPEMZpTzqNkxay/chJH/LP41rZWcXpP4ts0Fqcusi3GM0rWQladrsmneVkyjuN0cTM5tzEUxTfXl9fvcn6TLmlpheQ8XRMuqpzHKT+3RXvYQmgR
        LD6QmIgiaL2xaFH1gC3ibfGUJpxm57YP6pbc5UlZORiA8rAtp26+sGxFy9J4Qta0MDmwbvOMWtOHaOPMry8dHw+h9cOvd/Ppj7Z1T5I/r4UeAhDa1uKBJAmNy8s3pbvQ
        ty1+UN3m/kNGkpUw/wY+FXJRxDYpo+Xl65xXH9jfH2LChL/eNsZlQ29IlNQNfSRxTsseUr1RhfBJeOC2KkSmQtdU6JkKsanQNxUGpsKhqTA0FUJgrDTuG2jcOdC4d6Bx
        98C2/rklGVkbDaKdsq32nVLuyyHGGqUSei/USQM59tDV1u8pUq1VeYDCoVaqjjyddChbdbWxGobG0lAOFgx1Uujt+hWi5v66I9mK8u3suUjXg9s4XeV0UNw3Br/M3g1y
        RjMgzWXlVdOcidn9knBi8c8bcSVCrl9M7NE/4sQrYlTfbkR9NFlGpPq4FJeID/Uxq/4h8LKH6qJT+djVafhKnL7LotWKZnNxI6bJgmatbsMAwbB2GweS26jJbbjXzvI8
        mBWHOw1mofLlFLiz/yoQZe//JhygmQCAOWWFUwPG6eZ/NP5HTgFN+/wET+Mn2MRPw56fen56JfykegR9PzAhrRDgcunUTloo8HzgvzBpYa1LCmlhT8tEclPdQGu1bSg/
        C59MQEcmqF0UUFvHism5ZcrpCaonqFMICgLYFaHKX24gojC7OkSoKjSBO1EKZgKsCu3wQCpKL5ssAKRa+MJo1gwm6DQw8Z7AZMcl3mlcAlq4pO2m0p1LWkin5xJ9wHsu
        6colLnbx0D2mlD2C2g0Q2aNASxCKR1DnUdDyszi2q6Td1JFi32pV2SoqsAQelXZoqzycPS3CSVzWZjWQO9XTS5Ve9bRSuVt9fVuxeVvluGKks6rsgIVIG9dng6Hbqm2b
        oGWt+a5pCPwOds1HWAjCDr+cDs5BqHjnartO9IE8JZVanbgtbj179+x9Ensjtyt7l8vbir0BQpPJgSeHRH5ZsjcAjezdSO94qtqdVOwdBEprZlXpNNhvIzgsbdbOjjB9
        Z053T+N0VHO699Xyr8ac3oLf/f6hVthz+neWf20x2udf5WD1+dfGoyeYby//Otseff71G8y/eqfhk9uAT7jHpx6fXgk+fYfp19b9sD792qdft43tAUrr9NdKvz4R1OtJ
        vwZPXIIGVhVH63fySD+m2Zo5P5Nsac0/J4ujYIJf7MH6F6KRl38YrIVvehp53TSiTU8pHmmfe1fCJFgEheFRqew91uc9FXTRZ9KUQaKFDCWZqd8jQuZAhMxTUsGz9rM6
        ZVOBryUyZQD6WqvPTJFC1w3do5gLXbmxvhYfvxy9yTnStscNv1yOdNhBa54jDaF5x4momo9IIW67uRxNkbr61QcCbfeOHqZ7mD4FphHGHWG6uj9U25FgEsxM8qn1Uecy
        fbGQx3iM1QynVDoJ8KHdbhb8hkxvRwvwVAs4ONWCd3miheZShMaN+Wqwn5k2XYBcffxIF/zw9d7x+j4qhuX+gmNrdfTT++v6ArLg0SO9rl4+RvX51e5lZBqLKujyjtwX
        yCbPmBlllN/QJLciVsqLp0fLpup/Khann4TkTvzNM7q0fo44E4scwh/ObWe82cTRonwhmjmVBbFOijYszZOlKCkrZY7GvrNdgI2zDV2topQ5Sk0DIuarzd7kf+AK6uTK
        mvwR8IcnH96LiZA5THRFsopJsVHvfFhklHDqzMl6E1PmXNXfWLOoOK8qmO4cretgxSWYP+y3e+SITrw4Gzn1m+sXZ/8CjFQBZA==
        AAAQAAAA
      >
      FLOATPOS 129 268 871 509
      FXID {C804D762-B992-A540-81BF-3D6C0F7FF19B}
      WAK 0
    >
  >
  <TRACK {F21395F9-F67E-E94E-A650-3CA2FF3EBDD0}
    NAME "ch1,3 (send)"
    PEAKCOL 16576
    BEAT -1
    AUTOMODE 0
    VOLPAN 1 0 -1 -1 1
    MUTESOLO 0 0 0
    IPHASE 0
    ISBUS 0 0
    BUSCOMP 0 0
    SHOWINMIX 1 0.6667 0.698113 1 0.5 0 0 0
    FREEMODE 0
    SEL 1
    REC 0 0 0 0 0 0 0
    VU 2
    MIDICTL -1 1
    TRACKHEIGHT 0 0
    INQ 0 0 0 0.5 100 0 0 100
    NCHAN 2
    FX 1
    TRACKID {F21395F9-F67E-E94E-A650-3CA2FF3EBDD0}
    PERF 0
    MIDIOUT -1
    MAINSEND 1 0
    <FXCHAIN
      SHOW 0
      LASTSEL 0
      DOCKED 0
    >
    <ITEM
      POSITION 0
      SNAPOFFS 0
      LENGTH 41.5
      LOOP 1
      ALLTAKES 0
      FADEIN 1 0 0 1 0 0
      FADEOUT 1 0 0 1 0 0
      MUTE 0
      SEL 0
      YPOS 0 0.166667
      IGUID {E84A2DC6-AD29-5D45-B616-C7000AD6FDE9}
      IID 1
      NAME "Melody               - National_Anthems_-_Luxembourg.mid"
      VOLPAN 1 0 1 -1
      SOFFS 0 0
      PLAYRATE 1 1 0 -1 0 0.0025
      CHANMODE 0
      GUID {2381B72B-4E2D-7743-B3D1-887C9F97A44D}
      <SOURCE MIDI
        HASDATA 1 192 QN
        POOLEDEVTS {5CBE0A63-64D8-EE45-B600-D3F3A0C041E5}
        <X 0 0
          /wNNZWxvZHkgICAgICAgICAgICAgIA==
        >
        <X 0 0
          /wEocCkgKGMpIFRoZSBTb2Z0d2FyZSBUb29sd29ya3M=
        >
        <X 0 0
          /wFBbnRoZW0gTmFtZTogT3VyIE1vdGhlcmxhbmQ=
        >
        <X 0 0
          /wFDb3VudHJ5OiBMVVhFTUJPVVJH
        >
        <X 0 0
          /wFNdWx0aU1lZGlhIFdpbmRvd3MgVmVyc2lvbg==
        >
        <X 0 0
          /wFSb2IgV2FsbGFjZSBNdXNpYw==
        >
        <X 0 0
          /wFkYXRlOjctMjMtOTE=
        >
        <X 0 0
          /wFlZGl0IGRhdGU6IDktNy05MQ==
        >
        <X 0 0
          /wFuZXcgIzogezYwMn0gOTc5LTYyMDE=
        >
        <X 0 0
          /wFNVUxUSU1FRElBIFdJTkRPV1MgVkVSU0lPTg==
        >
        E 576 90 46 64
        E 178 80 46 40
        E 14 90 46 64
        E 274 80 46 40
        E 14 90 4b 64
        E 82 80 4b 40
        E 14 90 4b 64
        E 178 80 4b 40
        E 14 90 43 64
        E 178 80 43 40
        E 14 90 46 64
        E 178 80 46 40
        E 14 90 44 64
        E 178 80 44 40
        E 14 90 44 64
        E 274 80 44 40
        E 14 90 44 64
        E 82 80 44 40
        E 14 90 44 64
        E 178 80 44 40
        E 14 90 46 64
        E 82 80 46 40
        E 14 90 48 64
        E 82 80 48 40
        E 14 90 46 64
        E 274 80 46 40
        E 14 90 44 64
        E 82 80 44 40
        E 14 90 43 64
        E 370 80 43 40
        E 206 90 46 64
        E 178 80 46 40
        E 14 90 46 64
        E 274 80 46 40
        E 14 90 4b 64
        E 82 80 4b 40
        E 14 90 4b 64
        E 274 80 4b 40
        E 14 90 4a 64
        E 82 80 4a 40
        E 14 90 48 64
        E 178 80 48 40
        E 14 90 48 64
        E 178 80 48 40
        E 14 90 4d 64
        E 274 80 4d 40
        E 14 90 4b 64
        E 82 80 4b 40
        E 14 90 4a 64
        E 178 80 4a 40
        E 14 90 46 64
        E 178 80 46 40
        E 14 90 4a 64
        E 274 80 4a 40
        E 14 90 48 64
        E 82 80 48 40
        E 14 90 46 64
        E 562 80 46 40
        E 14 90 41 64
        E 178 80 41 40
        E 14 90 41 64
        E 274 80 41 40
        E 14 90 43 64
        E 82 80 43 40
        E 14 90 44 64
        E 178 80 44 40
        E 14 90 46 64
        E 178 80 46 40
        E 14 90 48 64
        E 178 80 48 40
        E 14 90 48 64
        E 178 80 48 40
        E 14 90 46 64
        E 274 80 46 40
        E 14 90 44 64
        E 82 80 44 40
        E 14 90 43 64
        E 178 80 43 40
        E 14 90 46 64
        E 178 80 46 40
        E 14 90 46 64
        E 178 80 46 40
        E 14 90 4b 64
        E 178 80 4b 40
        E 14 90 4a 64
        E 562 80 4a 40
        E 14 90 46 64
        E 178 80 46 40
        E 14 90 46 64
        E 178 80 46 40
        E 14 90 48 64
        E 82 80 48 40
        E 14 90 4a 64
        E 82 80 4a 40
        E 14 90 4b 64
        E 178 80 4b 40
        E 14 90 4d 64
        E 178 80 4d 40
        E 14 90 4f 64
        E 274 80 4f 40
        E 14 90 4d 64
        E 82 80 4d 40
        E 14 90 4b 64
        E 178 80 4b 40
        E 14 90 48 64
        E 178 80 48 40
        E 14 90 46 64
        E 274 80 46 40
        E 14 90 43 64
        E 82 80 43 40
        E 14 90 46 64
        E 178 80 46 40
        E 14 90 44 64
        E 178 80 44 40
        E 14 90 43 64
        E 562 80 43 40
        E 14 90 46 64
        E 178 80 46 40
        E 14 90 46 64
        E 178 80 46 40
        E 14 90 48 64
        E 82 80 48 40
        E 14 90 4a 64
        E 82 80 4a 40
        E 14 90 4b 64
        E 178 80 4b 40
        E 14 90 4d 64
        E 178 80 4d 40
        E 14 90 4f 64
        E 274 80 4f 40
        E 14 90 4d 64
        E 82 80 4d 40
        E 14 90 4b 64
        E 178 80 4b 40
        E 14 90 48 64
        E 178 80 48 40
        E 14 90 46 64
        E 274 80 46 40
        E 14 90 4b 64
        E 82 80 4b 40
        E 14 90 4a 64
        E 178 80 4a 40
        E 14 90 4d 64
        E 178 80 4d 40
        E 14 90 4b 64
        E 562 80 4b 40
        E 14 b0 7b 00
        GUID {890104AB-DDFA-3D41-8024-A4777AFA8A92}
        IGNTEMPO 0 120 4 4
        SRCCOLOR 433
        VELLANE -1 86 6
        CFGEDITVIEW 6714.155269 100.13766 47 25 0 0 0 0 0 0.5
        KEYSNAP 0
        TRACKSEL 226 0 0 ""
        EVTFILTER 0 -1 -1 -1 -1 0 0 0 0 -1 -1 -1 -1 0 -1 0 -1 -1
        CFGEDIT 1 0 0 0 0 0 1 0 1 1 1 0.25 589 421 1837 1120 0 0 2 3 0 0 0 0 0 -1 0 0 1 64
      >
    >
    <ITEM
      POSITION 0
      SNAPOFFS 0
      LENGTH 41.5
      LOOP 1
      ALLTAKES 0
      FADEIN 1 0 0 1 0 0
      FADEOUT 1 0 0 1 0 0
      MUTE 0
      SEL 0
      YPOS 0.5 0.166667
      IGUID {1096253E-DFF3-FC42-824D-ACB524768053}
      IID 4
      NAME "BASS                 - National_Anthems_-_Luxembourg.mid"
      VOLPAN 1 0 1 -1
      SOFFS 0 0
      PLAYRATE 1 1 0 -1 0 0.0025
      CHANMODE 0
      GUID {3FA370BE-E402-0644-AA03-2DDF3476A4B5}
      <SOURCE MIDI
        HASDATA 1 192 QN
        POOLEDEVTS {7E67D2E1-36C4-F64A-AC97-3D04FB9D4C3A}
        <X 0 0
          /wNCQVNTICAgICAgICAgICAgICAgIA==
        >
        E 576 93 33 64
        E 178 83 33 40
        E 14 93 27 64
        E 274 83 27 40
        E 14 93 27 64
        E 82 83 27 40
        E 14 93 27 64
        E 178 83 27 40
        E 14 93 27 64
        E 178 83 27 40
        E 14 93 30 64
        E 178 83 30 40
        E 14 93 24 64
        E 178 83 24 40
        E 14 93 24 64
        E 274 83 24 40
        E 14 93 29 64
        E 82 83 29 40
        E 14 93 29 64
        E 178 83 29 40
        E 14 93 29 64
        E 178 83 29 40
        E 14 93 2e 64
        E 274 83 2e 40
        E 14 93 2e 64
        E 82 83 2e 40
        E 14 93 27 64
        E 370 83 27 40
        E 206 93 33 64
        E 178 83 33 40
        E 14 93 27 64
        E 274 83 27 40
        E 14 93 27 64
        E 82 83 27 40
        E 14 93 27 64
        E 178 83 27 40
        E 14 93 27 64
        E 178 83 27 40
        E 14 93 29 64
        E 178 83 29 40
        E 14 93 27 64
        E 178 83 27 40
        E 14 93 26 64
        E 274 83 26 40
        E 14 93 27 64
        E 82 83 27 40
        E 14 93 29 64
        E 178 83 29 40
        E 14 93 29 64
        E 178 83 29 40
        E 14 93 29 64
        E 274 83 29 40
        E 14 93 29 64
        E 82 83 29 40
        E 14 93 2e 64
        E 562 83 2e 40
        E 206 93 2e 64
        E 178 83 2e 40
        E 14 93 3a 64
        E 178 83 3a 40
        E 14 93 2e 64
        E 178 83 2e 40
        E 14 93 3a 64
        E 178 83 3a 40
        E 14 93 2e 64
        E 178 83 2e 40
        E 14 93 3a 64
        E 178 83 3a 40
        E 14 93 30 64
        E 178 83 30 40
        E 14 93 32 64
        E 178 83 32 40
        E 14 93 33 64
        E 178 83 33 40
        E 14 93 33 64
        E 178 83 33 40
        E 14 93 37 64
        E 178 83 37 40
        E 14 93 33 64
        E 178 83 33 40
        E 14 93 2e 64
        E 130 83 2e 40
        E 14 93 2e 64
        E 34 83 2e 40
        E 14 93 30 64
        E 82 83 30 40
        E 14 93 2e 64
        E 82 83 2e 40
        E 14 93 2d 64
        E 82 83 2d 40
        E 14 93 2c 64
        E 82 83 2c 40
        E 14 93 2b 64
        E 82 83 2b 40
        E 14 93 29 64
        E 82 83 29 40
        E 14 93 27 64
        E 178 83 27 40
        E 14 93 27 64
        E 178 83 27 40
        E 14 93 2e 64
        E 178 83 2e 40
        E 14 93 27 64
        E 178 83 27 40
        E 14 93 27 64
        E 178 83 27 40
        E 14 93 2e 64
        E 178 83 2e 40
        E 14 93 33 64
        E 178 83 33 40
        E 14 93 30 64
        E 178 83 30 40
        E 14 93 2e 64
        E 178 83 2e 40
        E 14 93 2e 64
        E 178 83 2e 40
        E 14 93 2e 64
        E 178 83 2e 40
        E 14 93 22 64
        E 178 83 22 40
        E 14 93 2f 64
        E 178 83 2f 40
        E 14 93 2f 64
        E 178 83 2f 40
        E 14 93 30 64
        E 178 83 30 40
        E 14 93 26 64
        E 178 83 26 40
        E 14 93 33 64
        E 178 83 33 40
        E 14 93 33 64
        E 178 83 33 40
        E 14 93 33 64
        E 178 83 33 40
        E 14 93 2c 64
        E 178 83 2c 40
        E 14 93 2b 64
        E 178 83 2b 40
        E 14 93 2f 64
        E 178 83 2f 40
        E 14 93 30 64
        E 178 83 30 40
        E 14 93 2c 64
        E 178 83 2c 40
        E 14 93 2e 64
        E 178 83 2e 40
        E 14 93 2e 64
        E 178 83 2e 40
        E 14 93 3a 64
        E 178 83 3a 40
        E 14 93 2e 64
        E 178 83 2e 40
        E 14 93 33 64
        E 82 83 33 40
        E 14 93 2e 64
        E 82 83 2e 40
        E 14 93 2b 64
        E 82 83 2b 40
        E 14 93 2e 64
        E 82 83 2e 40
        E 14 93 27 64
        E 178 83 27 40
        E 14 b0 7b 00
        GUID {A6FF1B89-7A9E-8843-B53A-CCE0F2FF31B5}
        IGNTEMPO 0 120 4 4
        SRCCOLOR 436
        VELLANE -1 86 6
      >
    >
  >
  <TRACK {6CCBCBB4-02B5-3C4F-AE95-8DD80AEC4A17}
    NAME "ch2,4 (send)"
    PEAKCOL 16576
    BEAT -1
    AUTOMODE 0
    VOLPAN 1 0 -1 -1 1
    MUTESOLO 0 0 0
    IPHASE 0
    ISBUS 0 0
    BUSCOMP 0 0
    SHOWINMIX 1 0.6667 0.698113 1 0.5 0 0 0
    FREEMODE 0
    SEL 1
    REC 0 0 0 0 0 0 0
    VU 2
    MIDICTL -1 1
    TRACKHEIGHT 0 0
    INQ 0 0 0 0.5 100 0 0 100
    NCHAN 2
    FX 1
    TRACKID {6CCBCBB4-02B5-3C4F-AE95-8DD80AEC4A17}
    PERF 0
    MIDIOUT -1
    MAINSEND 1 0
    <FXCHAIN
      WNDRECT 32 359 724 387
      SHOW 0
      LASTSEL 0
      DOCKED 0
    >
    <ITEM
      POSITION 0
      SNAPOFFS 0
      LENGTH 41.5
      LOOP 1
      ALLTAKES 0
      FADEIN 1 0 0 1 0 0
      FADEOUT 1 0 0 1 0 0
      MUTE 0
      SEL 0
      YPOS 0.166667 0.166667
      IGUID {9CBB576F-8A0F-B441-878E-09D5076CDBA3}
      IID 2
      NAME "RH                   - National_Anthems_-_Luxembourg.mid"
      VOLPAN 1 0 1 -1
      SOFFS 0 0
      PLAYRATE 1 1 0 -1 0 0.0025
      CHANMODE 0
      GUID {1034E109-9030-CC43-A4E2-37E424F11F13}
      <SOURCE MIDI
        HASDATA 1 192 QN
        POOLEDEVTS {829A3730-3E32-864A-B4A8-FD0EEDBE0DC5}
        <X 0 0
          /wNSSCAgICAgICAgICAgICAgICAgIA==
        >
        E 576 91 46 64
        E 0 91 43 64
        E 178 81 46 40
        E 0 81 43 40
        E 14 91 43 64
        E 0 91 46 64
        E 274 81 43 40
        E 0 81 46 40
        E 14 91 43 64
        E 0 91 4b 64
        E 82 81 43 40
        E 0 81 4b 40
        E 14 91 4b 64
        E 0 91 43 64
        E 178 81 4b 40
        E 0 81 43 40
        E 14 91 3f 64
        E 0 91 43 64
        E 178 81 3f 40
        E 0 81 43 40
        E 14 91 3f 64
        E 0 91 46 64
        E 178 81 3f 40
        E 0 81 46 40
        E 14 91 44 64
        E 0 91 3f 64
        E 178 81 44 40
        E 0 81 3f 40
        E 14 91 44 64
        E 0 91 3f 64
        E 274 81 44 40
        E 0 81 3f 40
        E 14 91 3c 64
        E 0 91 44 64
        E 82 81 3c 40
        E 0 81 44 40
        E 14 91 3c 64
        E 0 91 44 64
        E 178 81 3c 40
        E 0 81 44 40
        E 14 91 46 64
        E 0 91 3c 64
        E 82 81 46 40
        E 14 91 48 64
        E 82 81 3c 40
        E 0 81 48 40
        E 14 91 3e 64
        E 0 91 46 64
        E 274 81 3e 40
        E 0 81 46 40
        E 14 91 44 64
        E 0 91 3e 64
        E 82 81 44 40
        E 0 81 3e 40
        E 14 91 43 64
        E 0 91 3f 64
        E 370 81 43 40
        E 0 81 3f 40
        E 206 91 46 64
        E 0 91 43 64
        E 178 81 46 40
        E 0 81 43 40
        E 14 91 46 64
        E 0 91 43 64
        E 34 81 43 40
        E 240 81 46 40
        E 14 91 43 64
        E 0 91 4b 64
        E 82 81 43 40
        E 0 81 4b 40
        E 14 91 43 64
        E 0 91 4b 64
        E 274 81 43 40
        E 0 81 4b 40
        E 14 91 43 64
        E 0 91 4a 64
        E 82 81 43 40
        E 0 81 4a 40
        E 14 91 41 64
        E 0 91 45 64
        E 0 91 48 64
        E 178 81 41 40
        E 0 81 45 40
        E 0 81 48 40
        E 14 91 41 64
        E 0 91 45 64
        E 0 91 48 64
        E 178 81 41 40
        E 0 81 45 40
        E 0 81 48 40
        E 14 91 41 64
        E 0 91 4d 64
        E 0 91 46 64
        E 274 81 41 40
        E 0 81 4d 40
        E 0 81 46 40
        E 14 91 4b 64
        E 0 91 43 64
        E 82 81 4b 40
        E 0 81 43 40
        E 14 91 4a 64
        E 0 91 41 64
        E 178 81 4a 40
        E 0 81 41 40
        E 14 91 46 64
        E 0 91 41 64
        E 178 81 46 40
        E 0 81 41 40
        E 14 91 41 64
        E 0 91 45 64
        E 0 91 4a 64
        E 274 81 41 40
        E 0 81 45 40
        E 0 81 4a 40
        E 14 91 45 64
        E 0 91 41 64
        E 0 91 48 64
        E 82 81 45 40
        E 0 81 41 40
        E 0 81 48 40
        E 14 91 3e 64
        E 0 91 46 64
        E 562 81 3e 40
        E 0 81 46 40
        E 14 91 41 64
        E 0 91 3e 64
        E 178 81 41 40
        E 0 81 3e 40
        E 14 91 3e 64
        E 0 91 41 64
        E 274 81 3e 40
        E 0 81 41 40
        E 14 91 3f 64
        E 0 91 43 64
        E 82 81 3f 40
        E 0 81 43 40
        E 14 91 41 64
        E 0 91 44 64
        E 178 81 41 40
        E 0 81 44 40
        E 14 91 43 64
        E 0 91 46 64
        E 178 81 43 40
        E 0 81 46 40
        E 14 91 44 64
        E 0 91 48 64
        E 178 81 44 40
        E 0 81 48 40
        E 14 91 44 64
        E 0 91 48 64
        E 178 81 44 40
        E 0 81 48 40
        E 14 91 43 64
        E 0 91 46 64
        E 274 81 43 40
        E 0 81 46 40
        E 14 91 41 64
        E 0 91 44 64
        E 82 81 41 40
        E 0 81 44 40
        E 14 91 3f 64
        E 0 91 43 64
        E 178 81 3f 40
        E 0 81 43 40
        E 14 91 46 64
        E 0 91 3f 64
        E 178 81 46 40
        E 0 81 3f 40
        E 14 91 3f 64
        E 0 91 46 64
        E 178 81 3f 40
        E 0 81 46 40
        E 14 91 43 64
        E 0 91 4b 64
        E 178 81 43 40
        E 0 81 4b 40
        E 14 91 41 64
        E 0 91 46 64
        E 0 91 4a 64
        E 562 81 41 40
        E 0 81 46 40
        E 0 81 4a 40
        E 14 91 3e 64
        E 0 91 44 64
        E 0 91 46 64
        E 178 81 3e 40
        E 0 81 44 40
        E 0 81 46 40
        E 14 91 43 64
        E 0 91 3f 64
        E 0 91 46 64
        E 178 81 43 40
        E 0 81 3f 40
        E 0 81 46 40
        E 14 91 44 64
        E 0 91 48 64
        E 82 81 44 40
        E 0 81 48 40
        E 14 91 41 64
        E 0 91 44 64
        E 0 91 4a 64
        E 82 81 41 40
        E 0 81 44 40
        E 0 81 4a 40
        E 14 91 46 64
        E 0 91 43 64
        E 0 91 4b 64
        E 178 81 46 40
        E 0 81 43 40
        E 0 81 4b 40
        E 14 91 4d 64
        E 0 91 46 64
        E 0 91 44 64
        E 178 81 4d 40
        E 0 81 46 40
        E 0 81 44 40
        E 14 91 46 64
        E 0 91 43 64
        E 0 91 4f 64
        E 274 81 46 40
        E 0 81 43 40
        E 0 81 4f 40
        E 14 91 44 64
        E 0 91 4d 64
        E 82 81 44 40
        E 0 81 4d 40
        E 14 91 43 64
        E 0 91 4b 64
        E 178 81 43 40
        E 0 81 4b 40
        E 14 91 44 64
        E 0 91 48 64
        E 0 91 3f 64
        E 178 81 44 40
        E 0 81 48 40
        E 0 81 3f 40
        E 14 91 3f 64
        E 0 91 43 64
        E 0 91 46 64
        E 274 81 3f 40
        E 0 81 43 40
        E 0 81 46 40
        E 14 91 43 64
        E 0 91 3f 64
        E 82 81 43 40
        E 0 81 3f 40
        E 14 91 46 64
        E 0 91 3e 64
        E 178 81 46 40
        E 0 81 3e 40
        E 14 91 3e 64
        E 0 91 44 64
        E 0 91 41 64
        E 178 81 3e 40
        E 0 81 44 40
        E 0 81 41 40
        E 14 91 3e 64
        E 0 91 41 64
        E 0 91 43 64
        E 370 81 3e 40
        E 0 81 41 40
        E 0 81 43 40
        E 14 91 3f 64
        E 0 91 3c 64
        E 178 81 3f 40
        E 0 81 3c 40
        E 14 91 44 64
        E 0 91 41 64
        E 0 91 46 64
        E 178 81 44 40
        E 0 81 41 40
        E 0 81 46 40
        E 14 91 43 64
        E 0 91 46 64
        E 0 91 3f 64
        E 178 81 43 40
        E 0 81 46 40
        E 0 81 3f 40
        E 14 91 48 64
        E 0 91 44 64
        E 82 81 48 40
        E 0 81 44 40
        E 14 91 41 64
        E 0 91 44 64
        E 0 91 4a 64
        E 82 81 41 40
        E 0 81 44 40
        E 0 81 4a 40
        E 14 91 4b 64
        E 0 91 46 64
        E 0 91 43 64
        E 178 81 4b 40
        E 0 81 46 40
        E 0 81 43 40
        E 14 91 4d 64
        E 0 91 48 64
        E 0 91 41 64
        E 178 81 4d 40
        E 0 81 48 40
        E 0 81 41 40
        E 14 91 4f 64
        E 0 91 47 64
        E 0 91 43 64
        E 0 91 4a 64
        E 274 81 4f 40
        E 0 81 47 40
        E 0 81 43 40
        E 0 81 4a 40
        E 14 91 43 64
        E 0 91 47 64
        E 0 91 4a 64
        E 0 91 4d 64
        E 82 81 43 40
        E 0 81 47 40
        E 0 81 4a 40
        E 0 81 4d 40
        E 14 91 4b 64
        E 0 91 3f 64
        E 0 91 43 64
        E 178 81 4b 40
        E 0 81 3f 40
        E 0 81 43 40
        E 14 91 44 64
        E 0 91 3f 64
        E 0 91 48 64
        E 178 81 44 40
        E 0 81 3f 40
        E 0 81 48 40
        E 14 91 43 64
        E 0 91 46 64
        E 0 91 3f 64
        E 274 81 43 40
        E 0 81 46 40
        E 14 91 46 64
        E 0 91 4b 64
        E 0 91 43 64
        E 82 81 3f 40
        E 0 81 46 40
        E 0 81 4b 40
        E 0 81 43 40
        E 14 91 4a 64
        E 0 91 41 64
        E 0 91 46 64
        E 178 81 4a 40
        E 0 81 41 40
        E 0 81 46 40
        E 14 91 44 64
        E 0 91 46 64
        E 0 91 4d 64
        E 178 81 44 40
        E 0 81 46 40
        E 0 81 4d 40
        E 14 91 43 64
        E 0 91 4b 64
        E 0 91 46 64
        E 562 81 43 40
        E 0 81 4b 40
        E 0 81 46 40
        E 14 b0 7b 00
        GUID {758F221A-BA07-814E-8EEF-9EEA5C92FAE3}
        IGNTEMPO 0 120 4 4
        SRCCOLOR 434
        VELLANE -1 86 6
      >
    >
    <ITEM
      POSITION 0
      SNAPOFFS 0
      LENGTH 41.5
      LOOP 1
      ALLTAKES 0
      FADEIN 1 0 0 1 0 0
      FADEOUT 1 0 0 1 0 0
      MUTE 0
      SEL 0
      YPOS 0.333333 0.166667
      IGUID {837FA484-8208-334A-B2EA-B8FE51D33976}
      IID 3
      NAME "LH                   - National_Anthems_-_Luxembourg.mid"
      VOLPAN 1 0 1 -1
      SOFFS 0 0
      PLAYRATE 1 1 0 -1 0 0.0025
      CHANMODE 0
      GUID {48548E5A-2480-624A-BFD5-FE1A02B5CCE5}
      <SOURCE MIDI
        HASDATA 1 192 QN
        POOLEDEVTS {1B43A325-7666-F74A-978F-F6F766E6A199}
        <X 0 0
          /wNMSCAgICAgICAgICAgICAgICAgIA==
        >
        E 576 92 33 64
        E 0 92 37 64
        E 0 92 3a 64
        E 178 82 33 40
        E 0 82 37 40
        E 0 82 3a 40
        E 14 92 33 64
        E 0 92 3a 64
        E 0 92 37 64
        E 274 82 33 40
        E 0 82 3a 40
        E 0 82 37 40
        E 14 92 33 64
        E 0 92 37 64
        E 0 92 3a 64
        E 82 82 33 40
        E 0 82 37 40
        E 0 82 3a 40
        E 14 92 3a 64
        E 0 92 37 64
        E 0 92 33 64
        E 178 82 3a 40
        E 0 82 37 40
        E 0 82 33 40
        E 14 92 33 64
        E 0 92 3a 64
        E 0 92 37 64
        E 178 82 33 40
        E 0 82 3a 40
        E 0 82 37 40
        E 14 92 3c 64
        E 0 92 30 64
        E 178 82 3c 40
        E 0 82 30 40
        E 14 92 30 64
        E 0 92 3c 64
        E 178 82 30 40
        E 0 82 3c 40
        E 14 92 30 64
        E 0 92 3c 64
        E 274 82 30 40
        E 0 82 3c 40
        E 14 92 35 64
        E 0 92 38 64
        E 82 82 35 40
        E 0 82 38 40
        E 14 92 38 64
        E 0 92 35 64
        E 178 82 38 40
        E 0 82 35 40
        E 14 92 35 64
        E 0 92 38 64
        E 178 82 35 40
        E 0 82 38 40
        E 14 92 2e 64
        E 0 92 3a 64
        E 0 92 35 64
        E 274 82 2e 40
        E 0 82 3a 40
        E 0 82 35 40
        E 14 92 2e 64
        E 0 92 3a 64
        E 82 82 2e 40
        E 0 82 3a 40
        E 14 92 3a 64
        E 0 92 33 64
        E 370 82 3a 40
        E 0 82 33 40
        E 206 92 33 64
        E 0 92 3a 64
        E 0 92 37 64
        E 178 82 33 40
        E 0 82 3a 40
        E 0 82 37 40
        E 14 92 3a 64
        E 0 92 37 64
        E 0 92 33 64
        E 274 82 3a 40
        E 0 82 37 40
        E 0 82 33 40
        E 14 92 3a 64
        E 0 92 37 64
        E 0 92 33 64
        E 82 82 3a 40
        E 0 82 37 40
        E 0 82 33 40
        E 14 92 33 64
        E 0 92 3a 64
        E 0 92 37 64
        E 178 82 33 40
        E 0 82 3a 40
        E 0 82 37 40
        E 14 92 33 64
        E 0 92 3a 64
        E 0 92 37 64
        E 178 82 33 40
        E 0 82 3a 40
        E 0 82 37 40
        E 14 92 39 64
        E 0 92 35 64
        E 178 82 39 40
        E 0 82 35 40
        E 14 92 33 64
        E 0 92 39 64
        E 178 82 33 40
        E 0 82 39 40
        E 14 92 3a 64
        E 0 92 35 64
        E 0 92 32 64
        E 274 82 3a 40
        E 0 82 35 40
        E 0 82 32 40
        E 14 92 33 64
        E 0 92 37 64
        E 0 92 3c 64
        E 82 82 33 40
        E 0 82 37 40
        E 0 82 3c 40
        E 14 92 3e 64
        E 0 92 3a 64
        E 0 92 35 64
        E 178 82 3e 40
        E 0 82 3a 40
        E 0 82 35 40
        E 14 92 3a 64
        E 0 92 35 64
        E 0 92 3e 64
        E 178 82 3a 40
        E 0 82 35 40
        E 0 82 3e 40
        E 14 92 3f 64
        E 0 92 35 64
        E 274 82 3f 40
        E 0 82 35 40
        E 14 92 35 64
        E 0 92 3f 64
        E 82 82 35 40
        E 0 82 3f 40
        E 14 92 2e 64
        E 0 92 35 64
        E 0 92 3a 64
        E 562 82 2e 40
        E 0 82 35 40
        E 0 82 3a 40
        E 206 92 2e 64
        E 82 82 2e 40
        E 14 92 3a 64
        E 82 82 3a 40
        E 14 92 2e 64
        E 82 82 2e 40
        E 14 92 3a 64
        E 82 82 3a 40
        E 14 92 2e 64
        E 82 82 2e 40
        E 14 92 3a 64
        E 82 82 3a 40
        E 14 92 2e 64
        E 82 82 2e 40
        E 14 92 3a 64
        E 82 82 3a 40
        E 14 92 2e 64
        E 82 82 2e 40
        E 14 92 3a 64
        E 82 82 3a 40
        E 14 92 2e 64
        E 82 82 2e 40
        E 14 92 3a 64
        E 82 82 3a 40
        E 14 92 30 64
        E 82 82 30 40
        E 14 92 3a 64
        E 82 82 3a 40
        E 14 92 32 64
        E 82 82 32 40
        E 14 92 3a 64
        E 82 82 3a 40
        E 14 92 33 64
        E 82 82 33 40
        E 14 92 3a 64
        E 82 82 3a 40
        E 14 92 33 64
        E 82 82 33 40
        E 14 92 3a 64
        E 82 82 3a 40
        E 14 92 37 64
        E 82 82 37 40
        E 14 92 3a 64
        E 82 82 3a 40
        E 14 92 33 64
        E 82 82 33 40
        E 14 92 3a 64
        E 82 82 3a 40
        E 14 92 2e 64
        E 0 92 3a 64
        E 130 82 2e 40
        E 0 82 3a 40
        E 14 92 2e 64
        E 0 92 3a 64
        E 34 82 2e 40
        E 0 82 3a 40
        E 14 92 3c 64
        E 0 92 30 64
        E 82 82 3c 40
        E 0 82 30 40
        E 14 92 3a 64
        E 0 92 2e 64
        E 82 82 3a 40
        E 0 82 2e 40
        E 14 92 39 64
        E 0 92 2d 64
        E 82 82 39 40
        E 0 82 2d 40
        E 14 92 38 64
        E 0 92 2c 64
        E 82 82 38 40
        E 0 82 2c 40
        E 14 92 37 64
        E 0 92 2b 64
        E 82 82 37 40
        E 0 82 2b 40
        E 14 92 35 64
        E 0 92 29 64
        E 82 82 35 40
        E 0 82 29 40
        E 14 92 27 64
        E 0 92 33 64
        E 82 82 27 40
        E 0 82 33 40
        E 14 92 3a 64
        E 0 92 37 64
        E 82 82 3a 40
        E 0 82 37 40
        E 14 92 38 64
        E 0 92 3c 64
        E 82 82 3c 40
        E 14 92 3e 64
        E 0 92 3a 64
        E 82 82 38 40
        E 0 82 3e 40
        E 0 82 3a 40
        E 14 92 33 64
        E 82 82 33 40
        E 14 92 3a 64
        E 0 92 3f 64
        E 0 92 37 64
        E 82 82 3a 40
        E 0 82 3f 40
        E 0 82 37 40
        E 14 92 2e 64
        E 82 82 2e 40
        E 14 92 3e 64
        E 0 92 38 64
        E 0 92 3a 64
        E 82 82 3e 40
        E 0 82 38 40
        E 0 82 3a 40
        E 14 92 33 64
        E 82 82 33 40
        E 14 92 3a 64
        E 0 92 37 64
        E 0 92 3f 64
        E 82 82 3a 40
        E 0 82 37 40
        E 0 82 3f 40
        E 14 92 3a 64
        E 0 92 3f 64
        E 0 92 37 64
        E 82 82 3a 40
        E 0 82 3f 40
        E 0 82 37 40
        E 14 92 3a 64
        E 0 92 37 64
        E 0 92 3f 64
        E 82 82 3a 40
        E 0 82 37 40
        E 0 82 3f 40
        E 14 92 33 64
        E 82 82 33 40
        E 14 92 3a 64
        E 0 92 3f 64
        E 0 92 37 64
        E 82 82 3a 40
        E 0 82 3f 40
        E 0 82 37 40
        E 14 92 2c 64
        E 82 82 2c 40
        E 14 92 33 64
        E 0 92 30 64
        E 82 82 33 40
        E 0 82 30 40
        E 14 92 2e 64
        E 82 82 2e 40
        E 14 92 33 64
        E 0 92 37 64
        E 82 82 33 40
        E 0 82 37 40
        E 14 92 33 64
        E 0 92 37 64
        E 82 82 33 40
        E 0 82 37 40
        E 14 92 33 64
        E 0 92 37 64
        E 82 82 33 40
        E 0 82 37 40
        E 14 92 2e 64
        E 82 82 2e 40
        E 14 92 35 64
        E 0 92 38 64
        E 82 82 35 40
        E 0 82 38 40
        E 14 92 2e 64
        E 82 82 2e 40
        E 14 92 38 64
        E 0 92 35 64
        E 82 82 38 40
        E 0 82 35 40
        E 14 92 2f 64
        E 82 82 2f 40
        E 14 92 35 64
        E 0 92 32 64
        E 0 92 37 64
        E 82 82 35 40
        E 0 82 32 40
        E 0 82 37 40
        E 14 92 35 64
        E 0 92 32 64
        E 0 92 37 64
        E 82 82 35 40
        E 0 82 32 40
        E 0 82 37 40
        E 14 92 35 64
        E 0 92 32 64
        E 0 92 37 64
        E 82 82 35 40
        E 0 82 32 40
        E 0 82 37 40
        E 14 92 30 64
        E 82 82 30 40
        E 14 92 33 64
        E 0 92 37 64
        E 82 82 33 40
        E 0 82 37 40
        E 14 92 32 64
        E 82 82 32 40
        E 14 92 38 64
        E 0 92 3a 64
        E 0 92 35 64
        E 82 82 38 40
        E 0 82 3a 40
        E 0 82 35 40
        E 14 92 33 64
        E 82 82 33 40
        E 14 92 3a 64
        E 0 92 37 64
        E 82 82 3a 40
        E 0 82 37 40
        E 14 92 3c 64
        E 0 92 38 64
        E 82 82 3c 40
        E 0 82 38 40
        E 14 92 3a 64
        E 0 92 3e 64
        E 82 82 3e 40
        E 14 92 33 64
        E 82 82 3a 40
        E 0 82 33 40
        E 14 92 3f 64
        E 0 92 3a 64
        E 0 92 37 64
        E 82 82 3f 40
        E 0 82 3a 40
        E 0 82 37 40
        E 14 92 2c 64
        E 82 82 2c 40
        E 14 92 38 64
        E 82 82 38 40
        E 14 92 2b 64
        E 82 82 2b 40
        E 14 92 32 64
        E 82 82 32 40
        E 14 92 37 64
        E 82 82 37 40
        E 14 92 2f 64
        E 82 82 2f 40
        E 14 92 30 64
        E 82 82 30 40
        E 14 92 33 64
        E 0 92 37 64
        E 82 82 33 40
        E 0 82 37 40
        E 14 92 2c 64
        E 82 82 2c 40
        E 14 92 33 64
        E 0 92 38 64
        E 82 82 33 40
        E 0 82 38 40
        E 14 92 2e 64
        E 82 82 2e 40
        E 14 92 33 64
        E 82 82 33 40
        E 14 92 37 64
        E 82 82 37 40
        E 14 92 3a 64
        E 82 82 3a 40
        E 14 92 2e 64
        E 82 82 2e 40
        E 14 92 3a 64
        E 82 82 3a 40
        E 14 92 38 64
        E 82 82 38 40
        E 14 92 35 64
        E 82 82 35 40
        E 14 92 33 64
        E 82 82 33 40
        E 14 92 2e 64
        E 82 82 2e 40
        E 14 92 2b 64
        E 82 82 2b 40
        E 14 92 2e 64
        E 82 82 2e 40
        E 14 92 27 64
        E 178 82 27 40
        E 14 b0 7b 00
        GUID {A246F63D-B5FF-7B41-ACD5-760B48F46798}
        IGNTEMPO 0 120 4 4
        SRCCOLOR 435
        VELLANE -1 86 6
      >
    >
  >
  <TRACK {B91E5163-8C2B-404F-8C78-0605AAF52936}
    NAME ChipFront
    PEAKCOL 16576
    BEAT -1
    AUTOMODE 0
    VOLPAN 0.31622776601684 0 -1 -1 1
    MUTESOLO 0 0 0
    IPHASE 0
    ISBUS 0 0
    BUSCOMP 0 0
    SHOWINMIX 1 0.6667 0.698113 1 0.5 0 0 0
    FREEMODE 0
    SEL 1
    REC 0 0 0 0 0 0 0
    VU 2
    TRACKHEIGHT 0 0
    INQ 0 0 0 0.5 100 0 0 100
    NCHAN 2
    FX 1
    TRACKID {B91E5163-8C2B-404F-8C78-0605AAF52936}
    PERF 0
    AUXRECV 2 0 1 0 0 0 0 0 0 -1:U 0 -1 ''
    MIDIOUT -1
    MAINSEND 1 0
    <FXCHAIN
      SHOW 0
      LASTSEL 0
      DOCKED 0
      BYPASS 0 0 0
      <VST "VST: FabFilter Volcano 2 (SC) (FabFilter)" "FabFilter Volcano 2 (SC).vst" 0 "" 1180054068
        NDJWRu9e7f4EAAAAAQAAAAAAAAACAAAAAAAAAAQAAAAAAAAACAAAAAAAAAAEAAAAAQAAAAAAAAACAAAAAAAAAAQAAAAAAAAACAAAAAAAAADcCwAAAAAAAAAAEAA=
        776t3g3wrd4AAAA/AAAAPwAAAD8AAAA/AACAPwAAAAAAAAA/q6qqPq2+aD8AAAA/ig0yPM3MzD0AAAAAAAAAAAAAAAAAAIA/AACAP0Isdj8AAAA/bbDgPZqZGT8AAAAA
        AAAAAOev3zwAAIA/AAAAAAAAgD8AAAA/AAAAAJqZGT8AAAAAAAAAAAAAAAAAAIA/AAAAAAAAgD8AAAA/AAAAAJqZGT8AAAAAAAAAAAAAAAAAAIA/AAAAAKuqqj4ATrI+
        AAAAPwAAAADBykk/XXRRPwAAAACJiIg9AACAP6oXiD4AAAAAAAAAAAAAAAAAAAAAAACAPwAAAAAAAAA/AAAAAAAAAAAAAAAAAAAAPwAAAAAAAAAAAAAAAAAAAD8AAAAA
        AAAAAAAAAAAAAAA/AAAAAAAAAAAAAAAAAAAAPwAAAAAAAAAAAAAAAAAAAD8AAAAAAAAAAAAAAAAAAAA/AAAAAAAAAAAAAAAAAAAAPwAAAAAAAAAAAAAAAAAAAD8AAAAA
        AAAAAAAAAAAAAAA/AAAAAAAAAAAAAAAAAAAAPwAAAAAAAAAAAAAAAAAAAD8AAAAAAAAAAAAAAAAAAAA/AAAAAAAAAAAAAAAAAAAAPwAAAAAAAAAAAAAAAHwZED4AAAA/
        KKO3PQAAgD8AAAAAAAAAAImIiD3y0iU/AAAAAAAAgD8AAAAAdGjRPQAAAAAAAIA/AAAAAAAAAD8AAAAAAAAAAAAAAAAAAAA/AAAAAAAAAAAAAAAAAAAAPwAAAAAAAAAA
        AAAAAAAAAD8AAAAAAAAAAAAAAAAAAAA/AAAAAAAAAAAAAAAAAAAAPwAAAAAAAAAAAAAAAAAAAD8AAAAAAAAAAAAAAAAAAAA/AAAAAAAAAAAAAAAAAAAAPwAAAAAAAAAA
        AAAAAAAAAD8AAAAAAAAAAAAAAAAAAAA/AAAAAAAAAAAAAAAAAAAAPwAAAAAAAAAAAAAAAAAAAD8AAAAAAAAAAAAAAAAAAAA/AAAAAAAAAAAAAAAAvvR9PgAAAD8AAAA/
        AAAAPwAAAAAAAAAAiYiIPQAAAD8AAAAAAAAAAAAAAAAAAAA/AAAAAAAAAAAAAAAAAAAAPwAAAAAAAAAAAAAAAAAAAD8AAAAAAAAAAAAAAAAAAAA/AAAAAAAAAAAAAAAA
        AAAAPwAAAAAAAAAAAAAAAAAAAD8AAAAAAAAAAAAAAAAAAAA/AAAAAAAAAAAAAAAAAAAAPwAAAAAAAAAAAAAAAAAAAD8AAAAAAAAAAAAAAAAAAAA/AAAAAAAAAAAAAAAA
        AAAAPwAAAAAAAAAAAAAAAAAAAD8AAAAAAAAAAAAAAAAAAAA/AAAAAAAAAAAAAAAAAAAAPwAAAAAAAAAAAAAAAAAAAD8AAAAAAAAAAAAAAAC+9H0+AAAAPwAAAD8AAAA/
        AAAAAAAAAACJiIg9AAAAPwAAAAAAAAAAAAAAAAAAAD8AAAAAAAAAAAAAAAAAAAA/AAAAAAAAAAAAAAAAAAAAPwAAAAAAAAAAAAAAAAAAAD8AAAAAAAAAAAAAAAAAAAA/
        AAAAAAAAAAAAAAAAAAAAPwAAAAAAAAAAAAAAAAAAAD8AAAAAAAAAAAAAAAAAAAA/AAAAAAAAAAAAAAAAAAAAPwAAAAAAAAAAAAAAAAAAAD8AAAAAAAAAAAAAAAAAAAA/
        AAAAAAAAAAAAAAAAAAAAPwAAAAAAAAAAAAAAAAAAAD8AAAAAAAAAAAAAAAAAAAA/AAAAAAAAAAAAAAAAAAAAPwAAAAAAAAAAAAAAAL70fT4AAAA/AAAAPwAAAD8AAAAA
        AAAAAImIiD0AAAA/AAAAAAAAAAAAAAAAAAAAPwAAAAAAAAAAAAAAAAAAAD8AAAAAAAAAAAAAAAAAAAA/AAAAAAAAAAAAAAAAAAAAPwAAAAAAAAAAAAAAAAAAAD8AAAAA
        AAAAAAAAAAAAAAA/AAAAAAAAAAAAAAAAAAAAPwAAAAAAAAAAAAAAAAAAAD8AAAAAAAAAAAAAAAAAAAA/AAAAAAAAAAAAAAAAAAAAPwAAAAAAAAAAAAAAAAAAAD8AAAAA
        AAAAAAAAAAAAAAA/AAAAAAAAAAAAAAAAAAAAPwAAAAAAAAAAAAAAAAAAAD8AAAAAAAAAAAAAAAAAAAA/AAAAAAAAAAAAAAAAvvR9PgAAAD8AAAA/AAAAPwAAAAAAAAAA
        iYiIPQAAAD8AAAAAAAAAAAAAAAAAAAA/AAAAAAAAAAAAAAAAAAAAPwAAAAAAAAAAAAAAAAAAAD8AAAAAAAAAAAAAAAAAAAA/AAAAAAAAAAAAAAAAAAAAPwAAAAAAAAAA
        AAAAAAAAAD8AAAAAAAAAAAAAAAAAAAA/AAAAAAAAAAAAAAAAAAAAPwAAAAAAAAAAAAAAAAAAAD8AAAAAAAAAAAAAAAAAAAA/AAAAAAAAAAAAAAAAAAAAPwAAAAAAAAAA
        AAAAAAAAAD8AAAAAAAAAAAAAAAAAAAA/AAAAAAAAAAAAAAAAAAAAPwAAAAAAAAAAAAAAAAAAAD8AAAAAAAAAAAAAAAAAAAAAmpmZPgAAAAAAAAAAAAAAAAAAgD8AAAAA
        mpmZPgAAAAAAAAAAAAAAAAAAgD8AAAAAmpmZPgAAAAAAAAAAAAAAAAAAgD8AAAAAmpmZPgAAAAAAAAAAAAAAAAAAgD8AAAAAmpmZPgAAAAAAAAAAAAAAAAAAgD8AAAAA
        mpmZPgAAAAAAAAAAAAAAAAAAgD8AAAAAAAAAAAAAAAAAAAAAAAAAAAAAAAAAAAAAAAAAAAAAAAAAAAAAAAAAAAAAAAAAAAAAAAAAAAAAAAAAAAAAAAAAAAAAAAAAAAAA
        AAAAAAAAAAAAAAAAAAAAAAAAAAAAAAAAAAAAAAAAAAAAAAAAAAAAAAAAAAAAAAAAAAAAAAAAAAAAAAAAAAAAAAAAAAAAAAAAAAAAAKuqKj3ZiZ09gShWPgAAAAAAAAAA
        v+eWPQAAAAAAAAA/AAAAAAAAAAAAAAAAAAAAAAAAAD8AAAAAAAAAAAAAAAAAAAAAAAAAPwAAAAAAAAAAAAAAAAAAAAAAAAAAAAAAAAAAAAAAAAAAAAAAAAAAAAAAAAAA
        AAAAAAAAAAAAAAAAAAAAAAAAAAAAAAAAAAAAAAAAAAAAAAAAAAAAAAAAAAAAAAAAAAAAAAAAAAAAAAAAAAAAAAAAAAAAAAAAAAAAAAAAAAAAAAAAAAAAAAAAAAAAAAAA
        AAAAAAAAAAAAAAAAAAAAAAAAAAAAAAAAAAAAAAAAAAAAAAAAAAAAAAAAAAAAAAAAAAAAAAAAAAAAAAAAAAAAAAAAAAAAAAAAAAAAAAAAAAAAAAAAAAAAAAAAAAAAAAAA
        AAAAAAAAAAAAAAAAAAAAAAAAAAAAAAAAAAAAAAAAAAAAAAAAAAAAAAAAAAAAAAAAAAAAAAAAAAAAAAAAAAAAAAAAAAAAAAAAAAAAAAAAAAAAAAAAAAAAAAAAAAAAAAAA
        AAAAAAAAAAAAAAAAAAAAAAAAAAAAAAAAAAAAAAAAAAAAAAAAAAAAAAAAAAAAAAAAAAAAAAAAAAAAAAAAAAAAAAAAAAAAAAAAAAAAAAAAAAAAAAAAAAAAPwAAAD8AAAA/
        AAAAPwAAAD8AAAA/AAAAPwAAAD8AAAAAAAAAAAAAAAAAAAAAAAAAAAAAAAAAAAAAAAAAAAAAAAAAAAAAAAAAAAAAAAAAAAAAAAAAAAAAAAAAAAAAAAAAAAAAAAAAAAAA
        AAAAAAAAAAAAAAAAAAAAAAAAAAAAAAAAAAAAAAAAAAAAAAAAAAAAAAAAAAAAAAAAAAAAAAAAAAAAAAAAAAAAAAAAAAAAAAAAAAAAAAAAAAAAAAAAAAAAAAAAAAAAAAAA
        AAAAAAAAAAAAAAAAAAAAAAAAAAAAAAAAAAAAAAAAAAAAAAAAAAAAAAAAAAAAAAAAAAAAAAAAAAAAAAAAAAAAAAAAAAAAAAAAAAAAAAAAAAAAAAAAAAAAAAAAAAAAAAAA
        AAAAAAAAAAAAAAAAAAAAAAAAAAAAAAAAAAAAAAAAAAAAAAAAAAAAAAAAAAAAAAAAAAAAAAAAAAAAAAAA
        Q2hpcEZyb250AENoaXBGcm9udAAQAAAA
      >
      PRESETNAME ChipFront
      FLOATPOS 36 32 641 529
      FXID {4C5A6810-F3ED-0645-A06D-6758F70CB097}
      WAK 0
    >
  >
  <TRACK {4E9F66C4-38E7-4946-B39F-214CBB1CFB8B}
    NAME ChipSide
    PEAKCOL 16576
    BEAT -1
    AUTOMODE 0
    VOLPAN 0.3981071705535 0 -1 -1 1
    MUTESOLO 0 0 0
    IPHASE 0
    ISBUS 0 0
    BUSCOMP 0 0
    SHOWINMIX 1 0.6667 0.698113 1 0.5 0 0 0
    FREEMODE 0
    SEL 1
    REC 0 0 0 0 0 0 0
    VU 2
    TRACKHEIGHT 0 0
    INQ 0 0 0 0.5 100 0 0 100
    NCHAN 2
    FX 1
    TRACKID {4E9F66C4-38E7-4946-B39F-214CBB1CFB8B}
    PERF 0
    AUXRECV 2 0 1.03113579563571 0 0 0 0 2 0 -1:U 0 -1 ''
    MIDIOUT -1
    MAINSEND 1 0
    <FXCHAIN
      SHOW 0
      LASTSEL 0
      DOCKED 0
      BYPASS 0 0 0
      <VST "VST: FabFilter Volcano 2 (SC) (FabFilter)" "FabFilter Volcano 2 (SC).vst" 0 "" 1180054068
        NDJWRu9e7f4EAAAAAQAAAAAAAAACAAAAAAAAAAQAAAAAAAAACAAAAAAAAAAIAAAAAQAAAAAAAAACAAAAAAAAAAQAAAAAAAAACAAAAAAAAAAQAAAAAAAAACAAAAAAAAAA
        QAAAAAAAAACAAAAAAAAAANwLAAAAAAAAAAAQAA==
        776t3g3wrd4AAAA/AAAAPwAAAD8AAAA/AACAPwAAAAAAAIA/q6qqPsplFD8AAAA/TxqgPc3MzD0AAAAAAAAAAEKGIj8AAIA/AACAP0Isdj8AAAA/bbDgPZqZGT8AAAAA
        AAAAAOev3zwAAIA/AAAAAAAAgD8AAAA/AAAAAJqZGT8AAAAAAAAAAAAAAAAAAIA/AAAAAAAAgD8AAAA/AAAAAJqZGT8AAAAAAAAAAAAAAAAAAIA/AAAAAKuqqj6CdAA9
        EObJPZgn+j4AAIA/AAAAAAAAAACJiAg+AACAP7PDtD4AAIA/AAAAAAAAAAAAAAAAq6qqPgAAAACeFR0/AAAAAAAAgD8AAAAAAAAAPwAAAAAAAAAAAAAAAAAAAD8AAAAA
        AAAAAAAAAAAAAAA/AAAAAAAAAAAAAAAAAAAAPwAAAAAAAAAAAAAAAAAAAD8AAAAAAAAAAAAAAAAAAAA/AAAAAAAAAAAAAAAAAAAAPwAAAAAAAAAAAAAAAAAAAD8AAAAA
        AAAAAAAAAAAAAAA/AAAAAAAAAAAAAAAAAAAAPwAAAAAAAAAAAAAAAAAAAD8AAAAAAAAAAAAAAAAAAAA/AAAAAAAAAAAAAAAAAAAAPwAAAAAAAAAAAAAAAHwZED4AAAA/
        KKO3PQAAgD8AAAAAAAAAAImIiD3y0iU/AAAAAAAAgD8AAAAAdGjRPQAAAAAAAIA/AAAAAAAAAD8AAAAAAAAAAAAAAAAAAAA/AAAAAAAAAAAAAAAAAAAAPwAAAAAAAAAA
        AAAAAAAAAD8AAAAAAAAAAAAAAAAAAAA/AAAAAAAAAAAAAAAAAAAAPwAAAAAAAAAAAAAAAAAAAD8AAAAAAAAAAAAAAAAAAAA/AAAAAAAAAAAAAAAAAAAAPwAAAAAAAAAA
        AAAAAAAAAD8AAAAAAAAAAAAAAAAAAAA/AAAAAAAAAAAAAAAAAAAAPwAAAAAAAAAAAAAAAAAAAD8AAAAAAAAAAAAAAAAAAAA/AAAAAAAAAAAAAAAAvvR9PgAAAD8AAAA/
        AAAAPwAAAAAAAAAAiYiIPQAAAD8AAAAAAAAAAAAAAAAAAAA/AAAAAAAAAAAAAAAAAAAAPwAAAAAAAAAAAAAAAAAAAD8AAAAAAAAAAAAAAAAAAAA/AAAAAAAAAAAAAAAA
        AAAAPwAAAAAAAAAAAAAAAAAAAD8AAAAAAAAAAAAAAAAAAAA/AAAAAAAAAAAAAAAAAAAAPwAAAAAAAAAAAAAAAAAAAD8AAAAAAAAAAAAAAAAAAAA/AAAAAAAAAAAAAAAA
        AAAAPwAAAAAAAAAAAAAAAAAAAD8AAAAAAAAAAAAAAAAAAAA/AAAAAAAAAAAAAAAAAAAAPwAAAAAAAAAAAAAAAAAAAD8AAAAAAAAAAAAAAAC+9H0+AAAAPwAAAD8AAAA/
        AAAAAAAAAACJiIg9AAAAPwAAAAAAAAAAAAAAAAAAAD8AAAAAAAAAAAAAAAAAAAA/AAAAAAAAAAAAAAAAAAAAPwAAAAAAAAAAAAAAAAAAAD8AAAAAAAAAAAAAAAAAAAA/
        AAAAAAAAAAAAAAAAAAAAPwAAAAAAAAAAAAAAAAAAAD8AAAAAAAAAAAAAAAAAAAA/AAAAAAAAAAAAAAAAAAAAPwAAAAAAAAAAAAAAAAAAAD8AAAAAAAAAAAAAAAAAAAA/
        AAAAAAAAAAAAAAAAAAAAPwAAAAAAAAAAAAAAAAAAAD8AAAAAAAAAAAAAAAAAAAA/AAAAAAAAAAAAAAAAAAAAPwAAAAAAAAAAAAAAAL70fT4AAAA/AAAAPwAAAD8AAAAA
        AAAAAImIiD0AAAA/AAAAAAAAAAAAAAAAAAAAPwAAAAAAAAAAAAAAAAAAAD8AAAAAAAAAAAAAAAAAAAA/AAAAAAAAAAAAAAAAAAAAPwAAAAAAAAAAAAAAAAAAAD8AAAAA
        AAAAAAAAAAAAAAA/AAAAAAAAAAAAAAAAAAAAPwAAAAAAAAAAAAAAAAAAAD8AAAAAAAAAAAAAAAAAAAA/AAAAAAAAAAAAAAAAAAAAPwAAAAAAAAAAAAAAAAAAAD8AAAAA
        AAAAAAAAAAAAAAA/AAAAAAAAAAAAAAAAAAAAPwAAAAAAAAAAAAAAAAAAAD8AAAAAAAAAAAAAAAAAAAA/AAAAAAAAAAAAAAAAvvR9PgAAAD8AAAA/AAAAPwAAAAAAAAAA
        iYiIPQAAAD8AAAAAAAAAAAAAAAAAAAA/AAAAAAAAAAAAAAAAAAAAPwAAAAAAAAAAAAAAAAAAAD8AAAAAAAAAAAAAAAAAAAA/AAAAAAAAAAAAAAAAAAAAPwAAAAAAAAAA
        AAAAAAAAAD8AAAAAAAAAAAAAAAAAAAA/AAAAAAAAAAAAAAAAAAAAPwAAAAAAAAAAAAAAAAAAAD8AAAAAAAAAAAAAAAAAAAA/AAAAAAAAAAAAAAAAAAAAPwAAAAAAAAAA
        AAAAAAAAAD8AAAAAAAAAAAAAAAAAAAA/AAAAAAAAAAAAAAAAAAAAPwAAAAAAAAAAAAAAAAAAAD8AAAAAAAAAAAAAAAAAAAAAmpmZPgAAAAAAAAAAAAAAAAAAgD8AAAAA
        mpmZPgAAAAAAAAAAAAAAAAAAgD8AAAAAmpmZPgAAAAAAAAAAAAAAAAAAgD8AAAAAmpmZPgAAAAAAAAAAAAAAAAAAgD8AAAAAmpmZPgAAAAAAAAAAAAAAAAAAgD8AAAAA
        mpmZPgAAAAAAAAAAAAAAAAAAgD8AAAAAAAAAAAAAAAAAAAAAAAAAAAAAAAAAAAAAAAAAAAAAAAAAAAAAAAAAAAAAAAAAAAAAAAAAAAAAAAAAAAAAAAAAAAAAAAAAAAAA
        AAAAAAAAAAAAAAAAAAAAAAAAAAAAAAAAAAAAAAAAAAAAAAAAAAAAAAAAAAAAAAAAAAAAAAAAAAAAAAAAAAAAAAAAAAAAAAAAAAAAAKuqqj3ZiZ09gShWPgAAgD8AAAAA
        v+eWPdmJHT0WszE/AAAAAAAAAACSdiw8AAAAAAAAAD8AAAAAAAAAAAAAAAAAAAAAAAAAPwAAAAAAAAAAAAAAAAAAAAAAAAAAAAAAAAAAAAAAAAAAAAAAAAAAAAAAAAAA
        AAAAAAAAAAAAAAAAAAAAAAAAAAAAAAAAAAAAAAAAAAAAAAAAAAAAAAAAAAAAAAAAAAAAAAAAAAAAAAAAAAAAAAAAAAAAAAAAAAAAAAAAAAAAAAAAAAAAAAAAAAAAAAAA
        AAAAAAAAAAAAAAAAAAAAAAAAAAAAAAAAAAAAAAAAAAAAAAAAAAAAAAAAAAAAAAAAAAAAAAAAAAAAAAAAAAAAAAAAAAAAAAAAAAAAAAAAAAAAAAAAAAAAAAAAAAAAAAAA
        AAAAAAAAAAAAAAAAAAAAAAAAAAAAAAAAAAAAAAAAAAAAAAAAAAAAAAAAAAAAAAAAAAAAAAAAAAAAAAAAAAAAAAAAAAAAAAAAAAAAAAAAAAAAAAAAAAAAAAAAAAAAAAAA
        AAAAAAAAAAAAAAAAAAAAAAAAAAAAAAAAAAAAAAAAAAAAAAAAAAAAAAAAAAAAAAAAAAAAAAAAAAAAAAAAAAAAAAAAAAAAAAAAAAAAAAAAAAAAAAAAAAAAPwAAAD8AAAA/
        AAAAPwAAAD8AAAA/AAAAPwAAAD8AAAAAAAAAAAAAAAAAAAAAAAAAAAAAAAAAAAAAAAAAAAAAAAAAAAAAAAAAAAAAAAAAAAAAAAAAAAAAAAAAAAAAAAAAAAAAAAAAAAAA
        AAAAAAAAAAAAAAAAAAAAAAAAAAAAAAAAAAAAAAAAAAAAAAAAAAAAAAAAAAAAAAAAAAAAAAAAAAAAAAAAAAAAAAAAAAAAAAAAAAAAAAAAAAAAAAAAAAAAAAAAAAAAAAAA
        AAAAAAAAAAAAAAAAAAAAAAAAAAAAAAAAAAAAAAAAAAAAAAAAAAAAAAAAAAAAAAAAAAAAAAAAAAAAAAAAAAAAAAAAAAAAAAAAAAAAAAAAAAAAAAAAAAAAAAAAAAAAAAAA
        AAAAAAAAAAAAAAAAAAAAAAAAAAAAAAAAAAAAAAAAAAAAAAAAAAAAAAAAAAAAAAAAAAAAAAAAAAAAAAAA
        Q2hpcFNpZGUAQ2hpcFNpZGUAEAAAAA==
      >
      PRESETNAME ChipSide
      FLOATPOS 36 32 641 529
      FXID {20356A84-5CFD-6E4A-AA26-2A8A49CE7A76}
      WAK 0
    >
  >
  <TRACK {99462CA5-3AFA-4046-97B6-9018EFC04DEE}
    NAME "04 Luxembourg"
    PEAKCOL 16576
    BEAT -1
    AUTOMODE 0
    VOLPAN 1 0 -1 -1 1
    MUTESOLO 1 0 0
    IPHASE 0
    ISBUS 0 0
    BUSCOMP 0 0
    SHOWINMIX 1 0.6667 0.5 1 0.5 0 0 0
    FREEMODE 0
    SEL 1
    REC 0 0 0 0 0 0 0
    VU 2
    TRACKHEIGHT 0 0
    INQ 0 0 0 0.5 100 0 0 100
    NCHAN 2
    FX 1
    TRACKID {99462CA5-3AFA-4046-97B6-9018EFC04DEE}
    PERF 0
    MIDIOUT -1
    MAINSEND 1 0
    <ITEM
      POSITION 1.25345025520341
      SNAPOFFS 0
      LENGTH 44.74654974479649
      LOOP 1
      ALLTAKES 0
      FADEIN 1 0 0 1 0 0
      FADEOUT 1 0 0 1 0 0
      MUTE 0
      SEL 0
      IGUID {346E62D0-A65A-2343-8EC0-6457D1B4A806}
      IID 7
      NAME "04 Luxembourg.mp3"
      VOLPAN 1 0 1 -1
      SOFFS 0
      PLAYRATE 1.96365233001869 1 3 -1 0 0.0025
      CHANMODE 0
      GUID {89868D72-46CC-114B-B4AB-C5CC5F2BDBC6}
      <SOURCE MP3
        FILE "04 Luxembourg.mp3" 1
      >
    >
  >
  <EXTENSIONS
    <SWSAUTOCOLOR
      {00000000-0000-0000-0000-000000000000} 0 "" "" ""
      {99462CA5-3AFA-4046-97B6-9018EFC04DEE} 0 "" "" ""
    >
    <XENAKIOSCOMMANDS
      REFTRACK 0 3 1 "00000000"
    >
    <BR_CURSOR_POS 04
      0.00000000000000
    >
  >
>
