<REAPER_PROJECT 0.1 "4.77/OSX64" 1423875325
  RIPPLE 0
  GROUPOVERRIDE 0 0 0
  AUTOXFADE 0
  ENVATTACH 1
  MIXERUIFLAGS 11 52
  PEAKGAIN 1
  FEEDBACK 0
  PANLAW 1
  PROJOFFS 0 0
  MAXPROJLEN 0 600
  GRID 174206 8 1 8 1 0 0
  TIMEMODE 6 0 -1 24 2
  PANMODE 3
  CURSOR 0
  ZOOM 5.40878929323954 0 0
  VZOOMEX 9
  USE_REC_CFG 0
  RECMODE 1
  SMPTESYNC 0 23.976024 100 40 1000 300 0 0 1
  LOOP 1
  LOOPGRAN 0 4
  RECORD_PATH "" ""
  <RECORD_CFG
    ZXZhdxAA
  >
  <APPLYFX_CFG
  >
  RENDER_FILE ""
  RENDER_PATTERN ""
  RENDER_FMT 0 2 0
  RENDER_1X 0
  RENDER_RANGE 1 0 0
  RENDER_RESAMPLE 3 0 1
  RENDER_ADDTOPROJ 0
  RENDER_STEMS 0
  RENDER_DITHER 0
  TIMELOCKMODE 1
  TEMPOENVLOCKMODE 1
  ITEMMIX 1
  DEFPITCHMODE 589824
  TAKELANE 3
  SAMPLERATE 44100 0 0
  <RENDER_CFG
  >
  LOCK 1
  <METRONOME 6 2
    VOL 0.25 0.125
    FREQ 800 1600 1
    BEATLEN 4
    SAMPLES "" ""
  >
  GLOBAL_AUTO -1
  TEMPO 120 4 4
  PLAYRATE 1 0 0.25 4
  SELECTION 8.84179961118719 0
  SELECTION2 8.84179961118719 0
  MASTERAUTOMODE 0
  MASTERTRACKHEIGHT 0
  MASTERPEAKCOL 16576
  MASTERMUTESOLO 0
  MASTERTRACKVIEW 0 0.6667 0.5 0.5 -1 -1 -1
  MASTERHWOUT 0 0 1 0 0 0 0 -1
  MASTER_NCH 2 2
  MASTER_VOLUME 1 0 -1 -1 1
  MASTER_FX 1
  MASTER_SEL 0
  <MASTERPLAYSPEEDENV
    ACT 0
    VIS 0 1 1
    LANEHEIGHT 0 0
    ARM 0
    DEFSHAPE 0 -1 -1
  >
  <TEMPOENVEX
    ACT 0
    VIS 1 0 1
    LANEHEIGHT 0 0
    ARM 0
    DEFSHAPE 1 -1 -1
  >
  <PROJBAY
  >
  <TRACK {FD038F83-8B34-5049-A7DD-74A8AEC99DF9}
    NAME "09 Slovakia"
    PEAKCOL 16576
    BEAT -1
    AUTOMODE 0
    VOLPAN 1 0 -1 -1 1
    MUTESOLO 1 0 0
    IPHASE 0
    ISBUS 0 0
    BUSCOMP 0 0
    SHOWINMIX 1 0.6667 0.5 1 0.5 -1 -1 -1
    FREEMODE 0
    SEL 0
    REC 0 0 0 0 0 0 0
    VU 2
    TRACKHEIGHT 1 0
    INQ 0 0 0 0.5 100 0 0 100
    NCHAN 2
    FX 1
    TRACKID {FD038F83-8B34-5049-A7DD-74A8AEC99DF9}
    PERF 0
    MIDIOUT -1
    MAINSEND 1 0
    <ITEM
      POSITION 0
      SNAPOFFS 0
      LENGTH 49
      LOOP 1
      ALLTAKES 0
      FADEIN 1 0 0 1 0 0
      FADEOUT 1 0 0 1 0 0
      MUTE 0
      SEL 0
      IGUID {8E374FAD-EA5D-CF42-9607-2CD2D93420C2}
      IID 9
      NAME "09 Slovakia.mp3"
      VOLPAN 1 0 1 -1
      SOFFS 0.91131982386738
      PLAYRATE 1.26476190476191 1 0 -1 0 0.0025
      CHANMODE 0
      GUID {EA8E0D87-80DA-F949-B9FD-56B9868D110D}
      <SOURCE MP3
        FILE "09 Slovakia.mp3" 1
      >
    >
  >
  <TRACK {EC118F63-5628-C045-9C40-05B4A7A3D4BD}
    NAME ""
    PEAKCOL 16576
    BEAT -1
    AUTOMODE 0
    VOLPAN 1 0 -1 -1 1
    MUTESOLO 0 0 0
    IPHASE 0
    ISBUS 0 0
    BUSCOMP 0 0
    SHOWINMIX 1 0.6667 0.5 1 0.5 -1 -1 -1
    FREEMODE 0
    SEL 0
    REC 0 0 0 0 0 0 0
    VU 2
    TRACKHEIGHT 344 0
    INQ 0 0 0 0.5 100 0 0 100
    NCHAN 2
    FX 1
    TRACKID {EC118F63-5628-C045-9C40-05B4A7A3D4BD}
    PERF 0
    MIDIOUT -1
    MAINSEND 1 0
    <ITEM
      POSITION 0
      SNAPOFFS 0
      LENGTH 41.5
      LOOP 1
      ALLTAKES 0
      FADEIN 1 0 0 1 0 0
      FADEOUT 1 0 0 1 0 0
      MUTE 0
      SEL 0
      YPOS 0 0.05
      IGUID {2C790C21-0806-D44D-B7AB-559979285034}
      IID 1
      NAME "Pikola - National_Anthems_-_Slovakia2.mid"
      VOLPAN 1 0 1 -1
      SOFFS 0 0
      PLAYRATE 1 1 0 -1 0 0.0025
      CHANMODE 0
      TAKECOLOR 26173599
      GUID {682E6430-7396-364C-A4D1-4C078CF54BBF}
      <SOURCE MIDI
        HASDATA 1 240 QN
        POOLEDEVTS {AF82C34E-F0E0-314F-99FB-A3C607B3CB48}
        <X 0 0
          /wN1bnRpdGxlZA==
        >
        <X 0 0
          /wNQaWtvbGE=
        >
        E 0 90 4f 50
        E 96 90 4f 00
        E 24 90 51 50
        E 96 90 51 00
        E 24 90 52 50
        E 192 90 52 00
        E 48 90 52 50
        E 192 90 52 00
        E 48 90 52 50
        E 96 90 52 00
        E 24 90 52 50
        E 96 90 52 00
        E 24 90 51 50
        E 96 90 51 00
        E 24 90 52 50
        E 96 90 52 00
        E 24 90 54 50
        E 96 90 54 00
        E 24 90 52 50
        E 96 90 52 00
        E 24 90 51 50
        E 192 90 51 00
        E 48 90 4f 50
        E 192 90 4f 00
        E 48 90 52 50
        E 96 90 52 00
        E 24 90 54 50
        E 96 90 54 00
        E 24 90 56 50
        E 192 90 56 00
        E 48 90 56 50
        E 192 90 56 00
        E 48 90 56 50
        E 96 90 56 00
        E 24 90 56 50
        E 96 90 56 00
        E 24 90 54 50
        E 96 90 54 00
        E 24 90 56 50
        E 96 90 56 00
        E 24 90 57 50
        E 96 90 57 00
        E 24 90 56 50
        E 96 90 56 00
        E 24 90 54 50
        E 192 90 54 00
        E 48 90 52 50
        E 192 90 52 00
        E 48 90 56 50
        E 96 90 56 00
        E 24 90 56 50
        E 96 90 56 00
        E 24 90 56 50
        E 192 90 56 00
        E 48 90 54 50
        E 192 90 54 00
        E 48 90 54 50
        E 96 90 54 00
        E 24 90 54 50
        E 96 90 54 00
        E 24 90 54 50
        E 96 90 54 00
        E 24 90 56 50
        E 96 90 56 00
        E 24 90 54 50
        E 192 90 54 00
        E 48 90 52 50
        E 192 90 52 00
        E 48 90 52 50
        E 96 90 52 00
        E 24 90 52 50
        E 96 90 52 00
        E 24 90 51 50
        E 96 90 51 00
        E 24 90 52 50
        E 96 90 52 00
        E 24 90 54 50
        E 96 90 54 00
        E 24 90 52 50
        E 96 90 52 00
        E 24 90 51 50
        E 192 90 51 00
        E 48 90 4f 50
        E 192 90 4f 00
        E 48 90 56 50
        E 96 90 56 00
        E 24 90 56 50
        E 96 90 56 00
        E 24 90 56 50
        E 192 90 56 00
        E 48 90 54 50
        E 192 90 54 00
        E 48 90 54 50
        E 96 90 54 00
        E 24 90 54 50
        E 96 90 54 00
        E 24 90 54 50
        E 96 90 54 00
        E 24 90 56 50
        E 96 90 56 00
        E 24 90 54 50
        E 192 90 54 00
        E 48 90 52 50
        E 192 90 52 00
        E 48 90 52 50
        E 96 90 52 00
        E 24 90 52 50
        E 96 90 52 00
        E 24 90 51 50
        E 96 90 51 00
        E 24 90 52 50
        E 96 90 52 00
        E 24 90 54 50
        E 96 90 54 00
        E 24 90 52 50
        E 96 90 52 00
        E 24 90 51 50
        E 192 90 51 00
        E 48 90 4f 50
        E 192 90 4f 00
        E 48 90 4f 50
        E 96 90 4f 00
        E 24 90 51 50
        E 96 90 51 00
        E 24 90 52 50
        E 192 90 52 00
        E 48 90 52 50
        E 192 90 52 00
        E 48 90 52 50
        E 96 90 52 00
        E 24 90 52 50
        E 96 90 52 00
        E 24 90 51 50
        E 96 90 51 00
        E 24 90 52 50
        E 96 90 52 00
        E 24 90 54 50
        E 96 90 54 00
        E 24 90 52 50
        E 96 90 52 00
        E 24 90 51 50
        E 192 90 51 00
        E 48 90 4f 50
        E 192 90 4f 00
        E 48 90 52 50
        E 96 90 52 00
        E 24 90 54 50
        E 96 90 54 00
        E 24 90 56 50
        E 192 90 56 00
        E 48 90 56 50
        E 192 90 56 00
        E 48 90 56 50
        E 96 90 56 00
        E 24 90 56 50
        E 96 90 56 00
        E 24 90 54 50
        E 96 90 54 00
        E 24 90 56 50
        E 96 90 56 00
        E 24 90 57 50
        E 96 90 57 00
        E 24 90 56 50
        E 96 90 56 00
        E 24 90 54 50
        E 192 90 54 00
        E 48 90 52 50
        E 192 90 52 00
        E 48 90 56 50
        E 96 90 56 00
        E 24 90 56 50
        E 96 90 56 00
        E 24 90 56 50
        E 192 90 56 00
        E 48 90 54 50
        E 192 90 54 00
        E 48 90 54 50
        E 96 90 54 00
        E 24 90 54 50
        E 96 90 54 00
        E 24 90 54 50
        E 96 90 54 00
        E 24 90 56 50
        E 96 90 56 00
        E 24 90 54 50
        E 192 90 54 00
        E 48 90 52 50
        E 192 90 52 00
        E 48 90 52 50
        E 96 90 52 00
        E 24 90 52 50
        E 96 90 52 00
        E 24 90 51 50
        E 96 90 51 00
        E 24 90 52 50
        E 96 90 52 00
        E 24 90 54 50
        E 96 90 54 00
        E 24 90 52 50
        E 96 90 52 00
        E 24 90 51 50
        E 192 90 51 00
        E 48 90 4f 50
        E 192 90 4f 00
        E 48 90 56 50
        E 96 90 56 00
        E 24 90 56 50
        E 96 90 56 00
        E 24 90 56 50
        E 192 90 56 00
        E 48 90 54 50
        E 192 90 54 00
        E 48 90 54 50
        E 96 90 54 00
        E 24 90 54 50
        E 96 90 54 00
        E 24 90 54 50
        E 96 90 54 00
        E 24 90 56 50
        E 96 90 56 00
        E 24 90 54 50
        E 192 90 54 00
        E 48 90 52 50
        E 192 90 52 00
        E 48 90 52 50
        E 96 90 52 00
        E 24 90 52 50
        E 96 90 52 00
        E 24 90 51 50
        E 96 90 51 00
        E 24 90 52 50
        E 96 90 52 00
        E 24 90 54 50
        E 96 90 54 00
        E 24 90 52 50
        E 96 90 52 00
        E 24 90 51 50
        E 384 90 51 00
        E 96 90 4f 50
        E 598 90 4f 00
        E 122 b0 7b 00
        GUID {0A4326AB-A4D2-CE4E-B74E-5C445622C7FC}
        IGNTEMPO 0 120 4 4
        SRCCOLOR 235
        VELLANE -1 86 6
        CFGEDITVIEW 7924.677826 316.288498 39 19 0 0 0 0 0
        KEYSNAP 0 3 102304056070 0 "Natural minor"
        TRACKSEL 252 0 0 ""
        EVTFILTER 0 -1 -1 -1 -1 0 0 0 0 -1 -1 -1 -1 0 -1 0 -1 -1
        CFGEDIT 1 0 0 0 0 0 1 0 1 1 1 0.25 429 164 1280 633 0 0 2 3 0 0 0 0 0 -1 0 0 1 64
      >
      TAKE
      NAME "Pikola - National_Anthems_-_Slovakia2.mid"
      TAKEVOLPAN 0 1 -1
      SOFFS 0 0
      PLAYRATE 1 1 0 -1 0 0.0025
      CHANMODE 0
      GUID {AF80D0DA-78E4-7A41-AB07-AA428671FF16}
      <SOURCE MIDI
        HASDATA 1 240 QN
        POOLEDEVTS {2457CAE4-5A7E-3A4F-B0ED-8295DFFFF9A4}
        <X 0 0
          /wN1bnRpdGxlZA==
        >
        <X 0 0
          /wNQaWtvbGE=
        >
        E 0 90 4f 50
        E 96 90 4f 00
        E 24 90 51 50
        E 96 90 51 00
        E 24 90 52 50
        E 192 90 52 00
        E 48 90 52 50
        E 192 90 52 00
        E 48 90 52 50
        E 96 90 52 00
        E 24 90 52 50
        E 96 90 52 00
        E 24 90 51 50
        E 96 90 51 00
        E 24 90 52 50
        E 96 90 52 00
        E 24 90 54 50
        E 96 90 54 00
        E 24 90 52 50
        E 96 90 52 00
        E 24 90 51 50
        E 192 90 51 00
        E 48 90 4f 50
        E 192 90 4f 00
        E 48 90 52 50
        E 96 90 52 00
        E 24 90 54 50
        E 96 90 54 00
        E 24 90 56 50
        E 192 90 56 00
        E 48 90 56 50
        E 192 90 56 00
        E 48 90 56 50
        E 96 90 56 00
        E 24 90 56 50
        E 96 90 56 00
        E 24 90 54 50
        E 96 90 54 00
        E 24 90 56 50
        E 96 90 56 00
        E 24 90 57 50
        E 96 90 57 00
        E 24 90 56 50
        E 96 90 56 00
        E 24 90 54 50
        E 192 90 54 00
        E 48 90 52 50
        E 192 90 52 00
        E 48 90 56 50
        E 96 90 56 00
        E 24 90 56 50
        E 96 90 56 00
        E 24 90 56 50
        E 192 90 56 00
        E 48 90 54 50
        E 192 90 54 00
        E 48 90 54 50
        E 96 90 54 00
        E 24 90 54 50
        E 96 90 54 00
        E 24 90 54 50
        E 96 90 54 00
        E 24 90 56 50
        E 96 90 56 00
        E 24 90 54 50
        E 192 90 54 00
        E 48 90 52 50
        E 192 90 52 00
        E 48 90 52 50
        E 96 90 52 00
        E 24 90 52 50
        E 96 90 52 00
        E 24 90 51 50
        E 96 90 51 00
        E 24 90 52 50
        E 96 90 52 00
        E 24 90 54 50
        E 96 90 54 00
        E 24 90 52 50
        E 96 90 52 00
        E 24 90 51 50
        E 192 90 51 00
        E 48 90 4f 50
        E 192 90 4f 00
        E 48 90 56 50
        E 96 90 56 00
        E 24 90 56 50
        E 96 90 56 00
        E 24 90 56 50
        E 192 90 56 00
        E 48 90 54 50
        E 192 90 54 00
        E 48 90 54 50
        E 96 90 54 00
        E 24 90 54 50
        E 96 90 54 00
        E 24 90 54 50
        E 96 90 54 00
        E 24 90 56 50
        E 96 90 56 00
        E 24 90 54 50
        E 192 90 54 00
        E 48 90 52 50
        E 192 90 52 00
        E 48 90 52 50
        E 96 90 52 00
        E 24 90 52 50
        E 96 90 52 00
        E 24 90 51 50
        E 96 90 51 00
        E 24 90 52 50
        E 96 90 52 00
        E 24 90 54 50
        E 96 90 54 00
        E 24 90 52 50
        E 96 90 52 00
        E 24 90 51 50
        E 192 90 51 00
        E 48 90 4f 50
        E 192 90 4f 00
        E 48 90 4f 50
        E 96 90 4f 00
        E 24 90 51 50
        E 96 90 51 00
        E 24 90 52 50
        E 192 90 52 00
        E 48 90 52 50
        E 192 90 52 00
        E 48 90 52 50
        E 96 90 52 00
        E 24 90 52 50
        E 96 90 52 00
        E 24 90 51 50
        E 96 90 51 00
        E 24 90 52 50
        E 96 90 52 00
        E 24 90 54 50
        E 96 90 54 00
        E 24 90 52 50
        E 96 90 52 00
        E 24 90 51 50
        E 192 90 51 00
        E 48 90 4f 50
        E 192 90 4f 00
        E 48 90 52 50
        E 96 90 52 00
        E 24 90 54 50
        E 96 90 54 00
        E 24 90 56 50
        E 192 90 56 00
        E 48 90 56 50
        E 192 90 56 00
        E 48 90 56 50
        E 96 90 56 00
        E 24 90 56 50
        E 96 90 56 00
        E 24 90 54 50
        E 96 90 54 00
        E 24 90 56 50
        E 96 90 56 00
        E 24 90 57 50
        E 96 90 57 00
        E 24 90 56 50
        E 96 90 56 00
        E 24 90 54 50
        E 192 90 54 00
        E 48 90 52 50
        E 192 90 52 00
        E 48 90 56 50
        E 96 90 56 00
        E 24 90 56 50
        E 96 90 56 00
        E 24 90 56 50
        E 192 90 56 00
        E 48 90 54 50
        E 192 90 54 00
        E 48 90 54 50
        E 96 90 54 00
        E 24 90 54 50
        E 96 90 54 00
        E 24 90 54 50
        E 96 90 54 00
        E 24 90 56 50
        E 96 90 56 00
        E 24 90 54 50
        E 192 90 54 00
        E 48 90 52 50
        E 192 90 52 00
        E 48 90 52 50
        E 96 90 52 00
        E 24 90 52 50
        E 96 90 52 00
        E 24 90 51 50
        E 96 90 51 00
        E 24 90 52 50
        E 96 90 52 00
        E 24 90 54 50
        E 96 90 54 00
        E 24 90 52 50
        E 96 90 52 00
        E 24 90 51 50
        E 192 90 51 00
        E 48 90 4f 50
        E 192 90 4f 00
        E 48 90 56 50
        E 96 90 56 00
        E 24 90 56 50
        E 96 90 56 00
        E 24 90 56 50
        E 192 90 56 00
        E 48 90 54 50
        E 192 90 54 00
        E 48 90 54 50
        E 96 90 54 00
        E 24 90 54 50
        E 96 90 54 00
        E 24 90 54 50
        E 96 90 54 00
        E 24 90 56 50
        E 96 90 56 00
        E 24 90 54 50
        E 192 90 54 00
        E 48 90 52 50
        E 192 90 52 00
        E 48 90 52 50
        E 96 90 52 00
        E 24 90 52 50
        E 96 90 52 00
        E 24 90 51 50
        E 96 90 51 00
        E 24 90 52 50
        E 96 90 52 00
        E 24 90 54 50
        E 96 90 54 00
        E 24 90 52 50
        E 96 90 52 00
        E 24 90 51 50
        E 384 90 51 00
        E 96 90 4f 50
        E 598 90 4f 00
        E 122 b0 7b 00
        GUID {71574CC0-B50A-8741-94E7-2E3AA96149F7}
        IGNTEMPO 0 120 4 4
        SRCCOLOR 250
        VELLANE -1 86 6
      >
    >
    <ITEM
      POSITION 0
      SNAPOFFS 0
      LENGTH 41.5
      LOOP 1
      ALLTAKES 0
      FADEIN 1 0 0 1 0 0
      FADEOUT 1 0 0 1 0 0
      MUTE 0
      SEL 0
      YPOS 0.138489 0.05
      IGUID {50A2447D-2521-6443-A1D8-2D2294A5E30C}
      IID 7
      NAME "Fagot - National_Anthems_-_Slovakia2.mid"
      VOLPAN 1 0 1 -1
      SOFFS 0 0
      PLAYRATE 1 1 0 -1 0 0.0025
      CHANMODE 0
      TAKECOLOR 26173599
      GUID {F9718AE9-F8CD-7745-B62A-9ECB1A8CBBFD}
      <SOURCE MIDI
        HASDATA 1 240 QN
        POOLEDEVTS {406094D6-B08C-4D44-A79E-0E677051D982}
        <X 0 0
          /wNGYWdvdA==
        >
        E 0 90 37 50
        E 96 90 37 00
        E 24 90 32 50
        E 96 90 32 00
        E 24 90 2b 50
        E 192 90 2b 00
        E 48 90 37 50
        E 120 90 37 00
        E 0 90 35 50
        E 120 90 35 00
        E 0 90 33 50
        E 96 90 33 00
        E 24 90 32 50
        E 96 90 32 00
        E 24 90 30 50
        E 96 90 30 00
        E 24 90 2e 50
        E 96 90 2e 00
        E 24 90 2d 50
        E 96 90 2d 00
        E 24 90 2b 50
        E 96 90 2b 00
        E 24 90 32 50
        E 192 90 32 00
        E 48 90 32 50
        E 192 90 32 00
        E 48 90 2b 50
        E 96 90 2b 00
        E 24 90 29 50
        E 96 90 29 00
        E 24 90 2e 50
        E 192 90 2e 00
        E 48 90 3a 50
        E 120 90 3a 00
        E 0 90 39 50
        E 120 90 39 00
        E 0 90 37 50
        E 96 90 37 00
        E 24 90 35 50
        E 96 90 35 00
        E 24 90 33 50
        E 96 90 33 00
        E 24 90 32 50
        E 96 90 32 00
        E 24 90 30 50
        E 96 90 30 00
        E 24 90 2e 50
        E 96 90 2e 00
        E 24 90 35 50
        E 192 90 35 00
        E 48 90 35 50
        E 192 90 35 00
        E 48 90 2e 50
        E 96 90 2e 00
        E 24 90 30 50
        E 96 90 30 00
        E 24 90 32 50
        E 96 90 32 00
        E 24 90 33 50
        E 96 90 33 00
        E 24 90 35 50
        E 192 90 35 00
        E 48 90 35 50
        E 96 90 35 00
        E 24 90 33 50
        E 96 90 33 00
        E 24 90 32 50
        E 96 90 32 00
        E 24 90 34 50
        E 96 90 34 00
        E 24 90 36 50
        E 192 90 36 00
        E 48 90 37 50
        E 192 90 37 00
        E 48 90 2b 50
        E 96 90 2b 00
        E 24 90 2e 50
        E 96 90 2e 00
        E 24 90 30 50
        E 96 90 30 00
        E 24 90 2e 50
        E 96 90 2e 00
        E 24 90 2d 50
        E 96 90 2d 00
        E 24 90 2b 50
        E 96 90 2b 00
        E 24 90 32 50
        E 192 90 32 00
        E 48 90 2b 50
        E 192 90 2b 00
        E 48 90 2e 50
        E 96 90 2e 00
        E 24 90 30 50
        E 96 90 30 00
        E 24 90 32 50
        E 96 90 32 00
        E 24 90 33 50
        E 96 90 33 00
        E 24 90 35 50
        E 192 90 35 00
        E 48 90 35 50
        E 96 90 35 00
        E 24 90 33 50
        E 96 90 33 00
        E 24 90 32 50
        E 96 90 32 00
        E 24 90 34 50
        E 96 90 34 00
        E 24 90 36 50
        E 192 90 36 00
        E 48 90 37 50
        E 192 90 37 00
        E 48 90 2b 50
        E 96 90 2b 00
        E 24 90 2e 50
        E 96 90 2e 00
        E 24 90 30 50
        E 96 90 30 00
        E 24 90 2e 50
        E 96 90 2e 00
        E 24 90 2d 50
        E 96 90 2d 00
        E 24 90 2b 50
        E 96 90 2b 00
        E 24 90 32 50
        E 192 90 32 00
        E 48 90 2b 50
        E 192 90 2b 00
        E 48 90 37 50
        E 96 90 37 00
        E 24 90 32 50
        E 96 90 32 00
        E 24 90 2b 50
        E 192 90 2b 00
        E 48 90 37 50
        E 120 90 37 00
        E 0 90 35 50
        E 120 90 35 00
        E 0 90 33 50
        E 96 90 33 00
        E 24 90 32 50
        E 96 90 32 00
        E 24 90 30 50
        E 96 90 30 00
        E 24 90 2e 50
        E 96 90 2e 00
        E 24 90 2d 50
        E 96 90 2d 00
        E 24 90 2b 50
        E 96 90 2b 00
        E 24 90 32 50
        E 192 90 32 00
        E 48 90 32 50
        E 192 90 32 00
        E 48 90 2b 50
        E 96 90 2b 00
        E 24 90 29 50
        E 96 90 29 00
        E 24 90 2e 50
        E 192 90 2e 00
        E 48 90 3a 50
        E 120 90 3a 00
        E 0 90 39 50
        E 120 90 39 00
        E 0 90 37 50
        E 96 90 37 00
        E 24 90 35 50
        E 96 90 35 00
        E 24 90 33 50
        E 96 90 33 00
        E 24 90 32 50
        E 96 90 32 00
        E 24 90 30 50
        E 96 90 30 00
        E 24 90 2e 50
        E 96 90 2e 00
        E 24 90 35 50
        E 192 90 35 00
        E 48 90 35 50
        E 192 90 35 00
        E 48 90 2e 50
        E 96 90 2e 00
        E 24 90 30 50
        E 96 90 30 00
        E 24 90 32 50
        E 96 90 32 00
        E 24 90 33 50
        E 96 90 33 00
        E 24 90 35 50
        E 192 90 35 00
        E 48 90 35 50
        E 96 90 35 00
        E 24 90 33 50
        E 96 90 33 00
        E 24 90 32 50
        E 96 90 32 00
        E 24 90 34 50
        E 96 90 34 00
        E 24 90 36 50
        E 192 90 36 00
        E 48 90 37 50
        E 192 90 37 00
        E 48 90 2b 50
        E 96 90 2b 00
        E 24 90 2e 50
        E 96 90 2e 00
        E 24 90 30 50
        E 96 90 30 00
        E 24 90 2e 50
        E 96 90 2e 00
        E 24 90 2d 50
        E 96 90 2d 00
        E 24 90 2b 50
        E 96 90 2b 00
        E 24 90 32 50
        E 192 90 32 00
        E 48 90 2b 50
        E 192 90 2b 00
        E 48 90 2e 50
        E 96 90 2e 00
        E 24 90 30 50
        E 96 90 30 00
        E 24 90 32 50
        E 96 90 32 00
        E 24 90 33 50
        E 96 90 33 00
        E 24 90 35 50
        E 192 90 35 00
        E 48 90 35 50
        E 96 90 35 00
        E 24 90 33 50
        E 96 90 33 00
        E 24 90 32 50
        E 96 90 32 00
        E 24 90 34 50
        E 96 90 34 00
        E 24 90 36 50
        E 192 90 36 00
        E 48 90 37 50
        E 192 90 37 00
        E 48 90 2b 50
        E 96 90 2b 00
        E 24 90 2e 50
        E 96 90 2e 00
        E 24 90 30 50
        E 96 90 30 00
        E 24 90 2e 50
        E 96 90 2e 00
        E 24 90 2d 50
        E 96 90 2d 00
        E 24 90 30 50
        E 96 90 30 00
        E 24 90 32 50
        E 450 90 32 00
        E 30 90 2b 50
        E 598 90 2b 00
        E 122 b0 7b 00
        GUID {51C50F11-66A6-4A41-A0B3-7748738396B3}
        IGNTEMPO 0 120 4 4
        SRCCOLOR 241
        VELLANE -1 86 6
        CFGEDITVIEW 8580.611062 90.377764 45 16 0 0 0 0 0
        KEYSNAP 0 3 102304056070 0 "Natural minor"
        TRACKSEL 252 0 0 ""
        EVTFILTER 0 -1 -1 -1 -1 0 0 0 0 -1 -1 -1 -1 0 -1 0 -1 -1
        CFGEDIT 1 0 0 0 0 0 1 0 1 1 1 0.25 413 148 1280 633 0 0 2 3 0 0 0 0 0 -1 0 0 1 64
      >
      TAKE
      NAME "Fagot - National_Anthems_-_Slovakia2.mid"
      TAKEVOLPAN 0 1 -1
      SOFFS 0 0
      PLAYRATE 1 1 0 -1 0 0.0025
      CHANMODE 0
      GUID {497D72CE-11E5-2E48-85F9-3C0B6F21586C}
      <SOURCE MIDI
        HASDATA 1 240 QN
        POOLEDEVTS {FCF6E415-A011-2645-A2A1-460CE597D04A}
        <X 0 0
          /wNGYWdvdA==
        >
        E 0 90 37 50
        E 96 90 37 00
        E 24 90 32 50
        E 96 90 32 00
        E 24 90 2b 50
        E 192 90 2b 00
        E 48 90 37 50
        E 120 90 37 00
        E 0 90 35 50
        E 120 90 35 00
        E 0 90 33 50
        E 96 90 33 00
        E 24 90 32 50
        E 96 90 32 00
        E 24 90 30 50
        E 96 90 30 00
        E 24 90 2e 50
        E 96 90 2e 00
        E 24 90 2d 50
        E 96 90 2d 00
        E 24 90 2b 50
        E 96 90 2b 00
        E 24 90 32 50
        E 192 90 32 00
        E 48 90 32 50
        E 192 90 32 00
        E 48 90 2b 50
        E 96 90 2b 00
        E 24 90 29 50
        E 96 90 29 00
        E 24 90 2e 50
        E 192 90 2e 00
        E 48 90 3a 50
        E 120 90 3a 00
        E 0 90 39 50
        E 120 90 39 00
        E 0 90 37 50
        E 96 90 37 00
        E 24 90 35 50
        E 96 90 35 00
        E 24 90 33 50
        E 96 90 33 00
        E 24 90 32 50
        E 96 90 32 00
        E 24 90 30 50
        E 96 90 30 00
        E 24 90 2e 50
        E 96 90 2e 00
        E 24 90 35 50
        E 192 90 35 00
        E 48 90 35 50
        E 192 90 35 00
        E 48 90 2e 50
        E 96 90 2e 00
        E 24 90 30 50
        E 96 90 30 00
        E 24 90 32 50
        E 96 90 32 00
        E 24 90 33 50
        E 96 90 33 00
        E 24 90 35 50
        E 192 90 35 00
        E 48 90 35 50
        E 96 90 35 00
        E 24 90 33 50
        E 96 90 33 00
        E 24 90 32 50
        E 96 90 32 00
        E 24 90 34 50
        E 96 90 34 00
        E 24 90 36 50
        E 192 90 36 00
        E 48 90 37 50
        E 192 90 37 00
        E 48 90 2b 50
        E 96 90 2b 00
        E 24 90 2e 50
        E 96 90 2e 00
        E 24 90 30 50
        E 96 90 30 00
        E 24 90 2e 50
        E 96 90 2e 00
        E 24 90 2d 50
        E 96 90 2d 00
        E 24 90 2b 50
        E 96 90 2b 00
        E 24 90 32 50
        E 192 90 32 00
        E 48 90 2b 50
        E 192 90 2b 00
        E 48 90 2e 50
        E 96 90 2e 00
        E 24 90 30 50
        E 96 90 30 00
        E 24 90 32 50
        E 96 90 32 00
        E 24 90 33 50
        E 96 90 33 00
        E 24 90 35 50
        E 192 90 35 00
        E 48 90 35 50
        E 96 90 35 00
        E 24 90 33 50
        E 96 90 33 00
        E 24 90 32 50
        E 96 90 32 00
        E 24 90 34 50
        E 96 90 34 00
        E 24 90 36 50
        E 192 90 36 00
        E 48 90 37 50
        E 192 90 37 00
        E 48 90 2b 50
        E 96 90 2b 00
        E 24 90 2e 50
        E 96 90 2e 00
        E 24 90 30 50
        E 96 90 30 00
        E 24 90 2e 50
        E 96 90 2e 00
        E 24 90 2d 50
        E 96 90 2d 00
        E 24 90 2b 50
        E 96 90 2b 00
        E 24 90 32 50
        E 192 90 32 00
        E 48 90 2b 50
        E 192 90 2b 00
        E 48 90 37 50
        E 96 90 37 00
        E 24 90 32 50
        E 96 90 32 00
        E 24 90 2b 50
        E 192 90 2b 00
        E 48 90 37 50
        E 120 90 37 00
        E 0 90 35 50
        E 120 90 35 00
        E 0 90 33 50
        E 96 90 33 00
        E 24 90 32 50
        E 96 90 32 00
        E 24 90 30 50
        E 96 90 30 00
        E 24 90 2e 50
        E 96 90 2e 00
        E 24 90 2d 50
        E 96 90 2d 00
        E 24 90 2b 50
        E 96 90 2b 00
        E 24 90 32 50
        E 192 90 32 00
        E 48 90 32 50
        E 192 90 32 00
        E 48 90 2b 50
        E 96 90 2b 00
        E 24 90 29 50
        E 96 90 29 00
        E 24 90 2e 50
        E 192 90 2e 00
        E 48 90 3a 50
        E 120 90 3a 00
        E 0 90 39 50
        E 120 90 39 00
        E 0 90 37 50
        E 96 90 37 00
        E 24 90 35 50
        E 96 90 35 00
        E 24 90 33 50
        E 96 90 33 00
        E 24 90 32 50
        E 96 90 32 00
        E 24 90 30 50
        E 96 90 30 00
        E 24 90 2e 50
        E 96 90 2e 00
        E 24 90 35 50
        E 192 90 35 00
        E 48 90 35 50
        E 192 90 35 00
        E 48 90 2e 50
        E 96 90 2e 00
        E 24 90 30 50
        E 96 90 30 00
        E 24 90 32 50
        E 96 90 32 00
        E 24 90 33 50
        E 96 90 33 00
        E 24 90 35 50
        E 192 90 35 00
        E 48 90 35 50
        E 96 90 35 00
        E 24 90 33 50
        E 96 90 33 00
        E 24 90 32 50
        E 96 90 32 00
        E 24 90 34 50
        E 96 90 34 00
        E 24 90 36 50
        E 192 90 36 00
        E 48 90 37 50
        E 192 90 37 00
        E 48 90 2b 50
        E 96 90 2b 00
        E 24 90 2e 50
        E 96 90 2e 00
        E 24 90 30 50
        E 96 90 30 00
        E 24 90 2e 50
        E 96 90 2e 00
        E 24 90 2d 50
        E 96 90 2d 00
        E 24 90 2b 50
        E 96 90 2b 00
        E 24 90 32 50
        E 192 90 32 00
        E 48 90 2b 50
        E 192 90 2b 00
        E 48 90 2e 50
        E 96 90 2e 00
        E 24 90 30 50
        E 96 90 30 00
        E 24 90 32 50
        E 96 90 32 00
        E 24 90 33 50
        E 96 90 33 00
        E 24 90 35 50
        E 192 90 35 00
        E 48 90 35 50
        E 96 90 35 00
        E 24 90 33 50
        E 96 90 33 00
        E 24 90 32 50
        E 96 90 32 00
        E 24 90 34 50
        E 96 90 34 00
        E 24 90 36 50
        E 192 90 36 00
        E 48 90 37 50
        E 192 90 37 00
        E 48 90 2b 50
        E 96 90 2b 00
        E 24 90 2e 50
        E 96 90 2e 00
        E 24 90 30 50
        E 96 90 30 00
        E 24 90 2e 50
        E 96 90 2e 00
        E 24 90 2d 50
        E 96 90 2d 00
        E 24 90 30 50
        E 96 90 30 00
        E 24 90 32 50
        E 450 90 32 00
        E 30 90 2b 50
        E 598 90 2b 00
        E 122 b0 7b 00
        GUID {DB60DD1F-CA14-5B41-9DA8-208BCCDE894D}
        IGNTEMPO 0 120 4 4
        SRCCOLOR 251
        VELLANE -1 86 6
        CFGEDITVIEW 0 0 45 16 0 0 0 0 0
        KEYSNAP 0 3 102304056070 0 "Natural minor"
        TRACKSEL 252 0 0 ""
        EVTFILTER 0 -1 -1 -1 -1 0 0 0 0 -1 -1 -1 -1 0 -1 0 -1 -1
        CFGEDIT 1 0 0 0 0 0 1 0 1 1 1 0.25 413 148 1280 633 0 0 2 3 0 0 0 0 0 -1 0 0 1 64
      >
    >
    <ITEM
      POSITION 0
      SNAPOFFS 0
      LENGTH 41.5
      LOOP 1
      ALLTAKES 0
      FADEIN 1 0 0 1 0 0
      FADEOUT 1 0 0 1 0 0
      MUTE 0
      SEL 0
      YPOS 0.276978 0.05
      IGUID {D3BE6812-08E0-8F44-B227-FA88AAF0C820}
      IID 2
      NAME "Flauta1 - National_Anthems_-_Slovakia2.mid"
      VOLPAN 1 0 1 -1
      SOFFS 0 0
      PLAYRATE 1 1 0 -1 0 0.0025
      CHANMODE 0
      TAKECOLOR 26173599
      GUID {456B01C3-E1D1-D848-9B37-5E3CD436B1D2}
      <SOURCE MIDI
        HASDATA 1 240 QN
        POOLEDEVTS {76D14047-F117-0A43-8182-1D94FB43DB5D}
        <X 0 0
          /wNGbGF1dGEx
        >
        E 0 90 4f 50
        E 96 90 4f 00
        E 24 90 51 50
        E 96 90 51 00
        E 24 90 52 50
        E 192 90 52 00
        E 48 90 52 50
        E 192 90 52 00
        E 48 90 52 50
        E 96 90 52 00
        E 24 90 52 50
        E 96 90 52 00
        E 24 90 51 50
        E 96 90 51 00
        E 24 90 52 50
        E 96 90 52 00
        E 24 90 54 50
        E 96 90 54 00
        E 24 90 52 50
        E 96 90 52 00
        E 24 90 51 50
        E 192 90 51 00
        E 48 90 4f 50
        E 192 90 4f 00
        E 48 90 52 50
        E 96 90 52 00
        E 24 90 54 50
        E 96 90 54 00
        E 24 90 56 50
        E 192 90 56 00
        E 48 90 56 50
        E 192 90 56 00
        E 48 90 56 50
        E 96 90 56 00
        E 24 90 56 50
        E 96 90 56 00
        E 24 90 54 50
        E 96 90 54 00
        E 24 90 56 50
        E 96 90 56 00
        E 24 90 57 50
        E 96 90 57 00
        E 24 90 56 50
        E 96 90 56 00
        E 24 90 54 50
        E 192 90 54 00
        E 48 90 52 50
        E 192 90 52 00
        E 48 90 56 50
        E 96 90 56 00
        E 24 90 56 50
        E 96 90 56 00
        E 24 90 56 50
        E 192 90 56 00
        E 48 90 54 50
        E 192 90 54 00
        E 48 90 54 50
        E 96 90 54 00
        E 24 90 54 50
        E 96 90 54 00
        E 24 90 54 50
        E 96 90 54 00
        E 24 90 56 50
        E 96 90 56 00
        E 24 90 54 50
        E 192 90 54 00
        E 48 90 52 50
        E 192 90 52 00
        E 48 90 52 50
        E 96 90 52 00
        E 24 90 52 50
        E 96 90 52 00
        E 24 90 51 50
        E 96 90 51 00
        E 24 90 52 50
        E 96 90 52 00
        E 24 90 54 50
        E 96 90 54 00
        E 24 90 52 50
        E 96 90 52 00
        E 24 90 51 50
        E 192 90 51 00
        E 48 90 4f 50
        E 192 90 4f 00
        E 48 90 56 50
        E 96 90 56 00
        E 24 90 56 50
        E 96 90 56 00
        E 24 90 56 50
        E 192 90 56 00
        E 48 90 54 50
        E 192 90 54 00
        E 48 90 54 50
        E 96 90 54 00
        E 24 90 54 50
        E 96 90 54 00
        E 24 90 54 50
        E 96 90 54 00
        E 24 90 56 50
        E 96 90 56 00
        E 24 90 54 50
        E 192 90 54 00
        E 48 90 52 50
        E 192 90 52 00
        E 48 90 52 50
        E 96 90 52 00
        E 24 90 52 50
        E 96 90 52 00
        E 24 90 51 50
        E 96 90 51 00
        E 24 90 52 50
        E 96 90 52 00
        E 24 90 54 50
        E 96 90 54 00
        E 24 90 52 50
        E 96 90 52 00
        E 24 90 51 50
        E 192 90 51 00
        E 48 90 4f 50
        E 192 90 4f 00
        E 48 90 4f 50
        E 96 90 4f 00
        E 24 90 51 50
        E 96 90 51 00
        E 24 90 52 50
        E 192 90 52 00
        E 48 90 52 50
        E 192 90 52 00
        E 48 90 52 50
        E 96 90 52 00
        E 24 90 52 50
        E 96 90 52 00
        E 24 90 51 50
        E 96 90 51 00
        E 24 90 52 50
        E 96 90 52 00
        E 24 90 54 50
        E 96 90 54 00
        E 24 90 52 50
        E 96 90 52 00
        E 24 90 51 50
        E 192 90 51 00
        E 48 90 4f 50
        E 192 90 4f 00
        E 48 90 52 50
        E 96 90 52 00
        E 24 90 54 50
        E 96 90 54 00
        E 24 90 56 50
        E 192 90 56 00
        E 48 90 56 50
        E 192 90 56 00
        E 48 90 56 50
        E 96 90 56 00
        E 24 90 56 50
        E 96 90 56 00
        E 24 90 54 50
        E 96 90 54 00
        E 24 90 56 50
        E 96 90 56 00
        E 24 90 57 50
        E 96 90 57 00
        E 24 90 56 50
        E 96 90 56 00
        E 24 90 54 50
        E 192 90 54 00
        E 48 90 52 50
        E 192 90 52 00
        E 48 90 56 50
        E 96 90 56 00
        E 24 90 56 50
        E 96 90 56 00
        E 24 90 56 50
        E 192 90 56 00
        E 48 90 54 50
        E 192 90 54 00
        E 48 90 54 50
        E 96 90 54 00
        E 24 90 54 50
        E 96 90 54 00
        E 24 90 54 50
        E 96 90 54 00
        E 24 90 56 50
        E 96 90 56 00
        E 24 90 54 50
        E 192 90 54 00
        E 48 90 52 50
        E 192 90 52 00
        E 48 90 52 50
        E 96 90 52 00
        E 24 90 52 50
        E 96 90 52 00
        E 24 90 51 50
        E 96 90 51 00
        E 24 90 52 50
        E 96 90 52 00
        E 24 90 54 50
        E 96 90 54 00
        E 24 90 52 50
        E 96 90 52 00
        E 24 90 51 50
        E 192 90 51 00
        E 48 90 4f 50
        E 192 90 4f 00
        E 48 90 56 50
        E 96 90 56 00
        E 24 90 56 50
        E 96 90 56 00
        E 24 90 56 50
        E 192 90 56 00
        E 48 90 54 50
        E 192 90 54 00
        E 48 90 54 50
        E 96 90 54 00
        E 24 90 54 50
        E 96 90 54 00
        E 24 90 54 50
        E 96 90 54 00
        E 24 90 56 50
        E 96 90 56 00
        E 24 90 54 50
        E 192 90 54 00
        E 48 90 52 50
        E 192 90 52 00
        E 48 90 52 50
        E 96 90 52 00
        E 24 90 52 50
        E 96 90 52 00
        E 24 90 51 50
        E 96 90 51 00
        E 24 90 52 50
        E 96 90 52 00
        E 24 90 54 50
        E 96 90 54 00
        E 24 90 52 50
        E 96 90 52 00
        E 24 90 51 50
        E 384 90 51 00
        E 96 90 4f 50
        E 598 90 4f 00
        E 122 b0 7b 00
        GUID {5AF9F130-E090-D048-A069-95FF1D34EB60}
        IGNTEMPO 0 120 4 4
        SRCCOLOR 236
        VELLANE -1 86 6
        CFGEDITVIEW 8580.611062 90.377764 45 16 0 0 0 0 0
        KEYSNAP 0 3 102304056070 0 "Natural minor"
        TRACKSEL 252 0 0 ""
        EVTFILTER 0 -1 -1 -1 -1 0 0 0 0 -1 -1 -1 -1 0 -1 0 -1 -1
        CFGEDIT 1 0 0 0 0 0 1 0 1 1 1 0.25 413 148 1280 633 0 0 2 3 0 0 0 0 0 -1 0 0 1 64
      >
      TAKE
      NAME "Flauta1 - National_Anthems_-_Slovakia2.mid"
      TAKEVOLPAN 0 1 -1
      SOFFS 0 0
      PLAYRATE 1 1 0 -1 0 0.0025
      CHANMODE 0
      GUID {678988FD-0518-EE42-BBCE-7165F958D169}
      <SOURCE MIDI
        HASDATA 1 240 QN
        POOLEDEVTS {EDDB351C-5454-8A43-88DD-8BE6348EFDDB}
        <X 0 0
          /wNGbGF1dGEx
        >
        E 0 90 4f 50
        E 96 90 4f 00
        E 24 90 51 50
        E 96 90 51 00
        E 24 90 52 50
        E 192 90 52 00
        E 48 90 52 50
        E 192 90 52 00
        E 48 90 52 50
        E 96 90 52 00
        E 24 90 52 50
        E 96 90 52 00
        E 24 90 51 50
        E 96 90 51 00
        E 24 90 52 50
        E 96 90 52 00
        E 24 90 54 50
        E 96 90 54 00
        E 24 90 52 50
        E 96 90 52 00
        E 24 90 51 50
        E 192 90 51 00
        E 48 90 4f 50
        E 192 90 4f 00
        E 48 90 52 50
        E 96 90 52 00
        E 24 90 54 50
        E 96 90 54 00
        E 24 90 56 50
        E 192 90 56 00
        E 48 90 56 50
        E 192 90 56 00
        E 48 90 56 50
        E 96 90 56 00
        E 24 90 56 50
        E 96 90 56 00
        E 24 90 54 50
        E 96 90 54 00
        E 24 90 56 50
        E 96 90 56 00
        E 24 90 57 50
        E 96 90 57 00
        E 24 90 56 50
        E 96 90 56 00
        E 24 90 54 50
        E 192 90 54 00
        E 48 90 52 50
        E 192 90 52 00
        E 48 90 56 50
        E 96 90 56 00
        E 24 90 56 50
        E 96 90 56 00
        E 24 90 56 50
        E 192 90 56 00
        E 48 90 54 50
        E 192 90 54 00
        E 48 90 54 50
        E 96 90 54 00
        E 24 90 54 50
        E 96 90 54 00
        E 24 90 54 50
        E 96 90 54 00
        E 24 90 56 50
        E 96 90 56 00
        E 24 90 54 50
        E 192 90 54 00
        E 48 90 52 50
        E 192 90 52 00
        E 48 90 52 50
        E 96 90 52 00
        E 24 90 52 50
        E 96 90 52 00
        E 24 90 51 50
        E 96 90 51 00
        E 24 90 52 50
        E 96 90 52 00
        E 24 90 54 50
        E 96 90 54 00
        E 24 90 52 50
        E 96 90 52 00
        E 24 90 51 50
        E 192 90 51 00
        E 48 90 4f 50
        E 192 90 4f 00
        E 48 90 56 50
        E 96 90 56 00
        E 24 90 56 50
        E 96 90 56 00
        E 24 90 56 50
        E 192 90 56 00
        E 48 90 54 50
        E 192 90 54 00
        E 48 90 54 50
        E 96 90 54 00
        E 24 90 54 50
        E 96 90 54 00
        E 24 90 54 50
        E 96 90 54 00
        E 24 90 56 50
        E 96 90 56 00
        E 24 90 54 50
        E 192 90 54 00
        E 48 90 52 50
        E 192 90 52 00
        E 48 90 52 50
        E 96 90 52 00
        E 24 90 52 50
        E 96 90 52 00
        E 24 90 51 50
        E 96 90 51 00
        E 24 90 52 50
        E 96 90 52 00
        E 24 90 54 50
        E 96 90 54 00
        E 24 90 52 50
        E 96 90 52 00
        E 24 90 51 50
        E 192 90 51 00
        E 48 90 4f 50
        E 192 90 4f 00
        E 48 90 4f 50
        E 96 90 4f 00
        E 24 90 51 50
        E 96 90 51 00
        E 24 90 52 50
        E 192 90 52 00
        E 48 90 52 50
        E 192 90 52 00
        E 48 90 52 50
        E 96 90 52 00
        E 24 90 52 50
        E 96 90 52 00
        E 24 90 51 50
        E 96 90 51 00
        E 24 90 52 50
        E 96 90 52 00
        E 24 90 54 50
        E 96 90 54 00
        E 24 90 52 50
        E 96 90 52 00
        E 24 90 51 50
        E 192 90 51 00
        E 48 90 4f 50
        E 192 90 4f 00
        E 48 90 52 50
        E 96 90 52 00
        E 24 90 54 50
        E 96 90 54 00
        E 24 90 56 50
        E 192 90 56 00
        E 48 90 56 50
        E 192 90 56 00
        E 48 90 56 50
        E 96 90 56 00
        E 24 90 56 50
        E 96 90 56 00
        E 24 90 54 50
        E 96 90 54 00
        E 24 90 56 50
        E 96 90 56 00
        E 24 90 57 50
        E 96 90 57 00
        E 24 90 56 50
        E 96 90 56 00
        E 24 90 54 50
        E 192 90 54 00
        E 48 90 52 50
        E 192 90 52 00
        E 48 90 56 50
        E 96 90 56 00
        E 24 90 56 50
        E 96 90 56 00
        E 24 90 56 50
        E 192 90 56 00
        E 48 90 54 50
        E 192 90 54 00
        E 48 90 54 50
        E 96 90 54 00
        E 24 90 54 50
        E 96 90 54 00
        E 24 90 54 50
        E 96 90 54 00
        E 24 90 56 50
        E 96 90 56 00
        E 24 90 54 50
        E 192 90 54 00
        E 48 90 52 50
        E 192 90 52 00
        E 48 90 52 50
        E 96 90 52 00
        E 24 90 52 50
        E 96 90 52 00
        E 24 90 51 50
        E 96 90 51 00
        E 24 90 52 50
        E 96 90 52 00
        E 24 90 54 50
        E 96 90 54 00
        E 24 90 52 50
        E 96 90 52 00
        E 24 90 51 50
        E 192 90 51 00
        E 48 90 4f 50
        E 192 90 4f 00
        E 48 90 56 50
        E 96 90 56 00
        E 24 90 56 50
        E 96 90 56 00
        E 24 90 56 50
        E 192 90 56 00
        E 48 90 54 50
        E 192 90 54 00
        E 48 90 54 50
        E 96 90 54 00
        E 24 90 54 50
        E 96 90 54 00
        E 24 90 54 50
        E 96 90 54 00
        E 24 90 56 50
        E 96 90 56 00
        E 24 90 54 50
        E 192 90 54 00
        E 48 90 52 50
        E 192 90 52 00
        E 48 90 52 50
        E 96 90 52 00
        E 24 90 52 50
        E 96 90 52 00
        E 24 90 51 50
        E 96 90 51 00
        E 24 90 52 50
        E 96 90 52 00
        E 24 90 54 50
        E 96 90 54 00
        E 24 90 52 50
        E 96 90 52 00
        E 24 90 51 50
        E 384 90 51 00
        E 96 90 4f 50
        E 598 90 4f 00
        E 122 b0 7b 00
        GUID {C67F6FDC-720D-5A45-A503-3072473659E3}
        IGNTEMPO 0 120 4 4
        SRCCOLOR 252
        VELLANE -1 86 6
        CFGEDITVIEW 0 0 45 16 0 0 0 0 0
        KEYSNAP 0 3 102304056070 0 "Natural minor"
        TRACKSEL 252 0 0 ""
        EVTFILTER 0 -1 -1 -1 -1 0 0 0 0 -1 -1 -1 -1 0 -1 0 -1 -1
        CFGEDIT 1 0 0 0 0 0 1 0 1 1 1 0.25 413 148 1280 633 0 0 2 3 0 0 0 0 0 -1 0 0 1 64
      >
    >
    <ITEM
      POSITION 0
      SNAPOFFS 0
      LENGTH 41.5
      LOOP 1
      ALLTAKES 0
      FADEIN 1 0 0 1 0 0
      FADEOUT 1 0 0 1 0 0
      MUTE 0
      SEL 0
      YPOS 0.415468 0.05
      IGUID {E0823777-B759-2947-9EF4-F2D23BA43CF8}
      IID 3
      NAME "Flauta2 - National_Anthems_-_Slovakia2.mid"
      VOLPAN 1 0 1 -1
      SOFFS 0 0
      PLAYRATE 1 1 0 -1 0 0.0025
      CHANMODE 0
      TAKECOLOR 26173599
      GUID {1BA9190C-14C0-4549-A0B0-9130D22D37F7}
      <SOURCE MIDI
        HASDATA 1 240 QN
        POOLEDEVTS {550BF230-898B-2E40-94A2-0A5716786A62}
        <X 0 0
          /wNGbGF1dGEy
        >
        E 0 90 4f 50
        E 96 90 4f 00
        E 24 90 4e 50
        E 96 90 4e 00
        E 24 90 4f 50
        E 192 90 4f 00
        E 48 90 4f 50
        E 192 90 4f 00
        E 48 90 4f 50
        E 96 90 4f 00
        E 24 90 4f 50
        E 96 90 4f 00
        E 24 90 4f 50
        E 96 90 4f 00
        E 24 90 4f 50
        E 96 90 4f 00
        E 24 90 4e 50
        E 96 90 4e 00
        E 24 90 4f 50
        E 96 90 4f 00
        E 24 90 4e 50
        E 192 90 4e 00
        E 48 90 4f 50
        E 192 90 4f 00
        E 48 90 52 50
        E 96 90 52 00
        E 24 90 51 50
        E 96 90 51 00
        E 24 90 52 50
        E 192 90 52 00
        E 48 90 52 50
        E 192 90 52 00
        E 48 90 52 50
        E 96 90 52 00
        E 24 90 52 50
        E 96 90 52 00
        E 24 90 52 50
        E 96 90 52 00
        E 24 90 52 50
        E 96 90 52 00
        E 24 90 51 50
        E 96 90 51 00
        E 24 90 52 50
        E 96 90 52 00
        E 24 90 51 50
        E 192 90 51 00
        E 48 90 52 50
        E 192 90 52 00
        E 48 90 52 50
        E 96 90 52 00
        E 24 90 52 50
        E 96 90 52 00
        E 24 90 52 50
        E 192 90 52 00
        E 48 90 51 50
        E 192 90 51 00
        E 48 90 51 50
        E 96 90 51 00
        E 24 90 51 50
        E 96 90 51 00
        E 24 90 51 50
        E 96 90 51 00
        E 24 90 51 50
        E 96 90 51 00
        E 24 90 51 50
        E 192 90 51 00
        E 48 90 4f 50
        E 192 90 4f 00
        E 48 90 4f 50
        E 96 90 4f 00
        E 24 90 4f 50
        E 96 90 4f 00
        E 24 90 4f 50
        E 96 90 4f 00
        E 24 90 4f 50
        E 96 90 4f 00
        E 24 90 4e 50
        E 96 90 4e 00
        E 24 90 4f 50
        E 96 90 4f 00
        E 24 90 4e 50
        E 192 90 4e 00
        E 48 90 4f 50
        E 192 90 4f 00
        E 48 90 52 50
        E 96 90 52 00
        E 24 90 52 50
        E 96 90 52 00
        E 24 90 52 50
        E 192 90 52 00
        E 48 90 51 50
        E 192 90 51 00
        E 48 90 51 50
        E 96 90 51 00
        E 24 90 51 50
        E 96 90 51 00
        E 24 90 51 50
        E 96 90 51 00
        E 24 90 51 50
        E 96 90 51 00
        E 24 90 51 50
        E 192 90 51 00
        E 48 90 4f 50
        E 192 90 4f 00
        E 48 90 4f 50
        E 96 90 4f 00
        E 24 90 4f 50
        E 96 90 4f 00
        E 24 90 4f 50
        E 96 90 4f 00
        E 24 90 4f 50
        E 96 90 4f 00
        E 24 90 4e 50
        E 96 90 4e 00
        E 24 90 4f 50
        E 96 90 4f 00
        E 24 90 4e 50
        E 192 90 4e 00
        E 48 90 4f 50
        E 192 90 4f 00
        E 48 90 4f 50
        E 96 90 4f 00
        E 24 90 4e 50
        E 96 90 4e 00
        E 24 90 4f 50
        E 192 90 4f 00
        E 48 90 4f 50
        E 192 90 4f 00
        E 48 90 4f 50
        E 96 90 4f 00
        E 24 90 4f 50
        E 96 90 4f 00
        E 24 90 4f 50
        E 96 90 4f 00
        E 24 90 4f 50
        E 96 90 4f 00
        E 24 90 4e 50
        E 96 90 4e 00
        E 24 90 4f 50
        E 96 90 4f 00
        E 24 90 4e 50
        E 192 90 4e 00
        E 48 90 4f 50
        E 192 90 4f 00
        E 48 90 52 50
        E 96 90 52 00
        E 24 90 51 50
        E 96 90 51 00
        E 24 90 52 50
        E 192 90 52 00
        E 48 90 52 50
        E 192 90 52 00
        E 48 90 52 50
        E 96 90 52 00
        E 24 90 52 50
        E 96 90 52 00
        E 24 90 52 50
        E 96 90 52 00
        E 24 90 52 50
        E 96 90 52 00
        E 24 90 51 50
        E 96 90 51 00
        E 24 90 52 50
        E 96 90 52 00
        E 24 90 51 50
        E 192 90 51 00
        E 48 90 52 50
        E 192 90 52 00
        E 48 90 52 50
        E 96 90 52 00
        E 24 90 52 50
        E 96 90 52 00
        E 24 90 52 50
        E 192 90 52 00
        E 48 90 51 50
        E 192 90 51 00
        E 48 90 51 50
        E 96 90 51 00
        E 24 90 51 50
        E 96 90 51 00
        E 24 90 51 50
        E 96 90 51 00
        E 24 90 51 50
        E 96 90 51 00
        E 24 90 51 50
        E 192 90 51 00
        E 48 90 4f 50
        E 192 90 4f 00
        E 48 90 4f 50
        E 96 90 4f 00
        E 24 90 4f 50
        E 96 90 4f 00
        E 24 90 4f 50
        E 96 90 4f 00
        E 24 90 4f 50
        E 96 90 4f 00
        E 24 90 4e 50
        E 96 90 4e 00
        E 24 90 4f 50
        E 96 90 4f 00
        E 24 90 4e 50
        E 192 90 4e 00
        E 48 90 4f 50
        E 192 90 4f 00
        E 48 90 52 50
        E 96 90 52 00
        E 24 90 52 50
        E 96 90 52 00
        E 24 90 52 50
        E 192 90 52 00
        E 48 90 51 50
        E 192 90 51 00
        E 48 90 51 50
        E 96 90 51 00
        E 24 90 51 50
        E 96 90 51 00
        E 24 90 51 50
        E 96 90 51 00
        E 24 90 51 50
        E 96 90 51 00
        E 24 90 51 50
        E 192 90 51 00
        E 48 90 4f 50
        E 192 90 4f 00
        E 48 90 4f 50
        E 96 90 4f 00
        E 24 90 4f 50
        E 96 90 4f 00
        E 24 90 4f 50
        E 96 90 4f 00
        E 24 90 4f 50
        E 96 90 4f 00
        E 24 90 4e 50
        E 96 90 4e 00
        E 24 90 4f 50
        E 96 90 4f 00
        E 24 90 4e 50
        E 384 90 4e 00
        E 96 90 4f 50
        E 598 90 4f 00
        E 122 b0 7b 00
        GUID {2C66DFBC-5CC5-C947-B09A-B59DA6CF287F}
        IGNTEMPO 0 120 4 4
        SRCCOLOR 237
        VELLANE -1 86 6
        CFGEDITVIEW 8580.611062 90.377764 45 16 0 0 0 0 0
        KEYSNAP 0 3 102304056070 0 "Natural minor"
        TRACKSEL 252 0 0 ""
        EVTFILTER 0 -1 -1 -1 -1 0 0 0 0 -1 -1 -1 -1 0 -1 0 -1 -1
        CFGEDIT 1 0 0 0 0 0 1 0 1 1 1 0.25 413 148 1280 633 0 0 2 3 0 0 0 0 0 -1 0 0 1 64
      >
      TAKE
      NAME "Flauta2 - National_Anthems_-_Slovakia2.mid"
      TAKEVOLPAN 0 1 -1
      SOFFS 0 0
      PLAYRATE 1 1 0 -1 0 0.0025
      CHANMODE 0
      GUID {B41A7F29-5F04-AE4C-B3C7-5706F70C1C62}
      <SOURCE MIDI
        HASDATA 1 240 QN
        POOLEDEVTS {0AF41249-4D4D-A340-A318-9243C3A82576}
        <X 0 0
          /wNGbGF1dGEy
        >
        E 0 90 4f 50
        E 96 90 4f 00
        E 24 90 4e 50
        E 96 90 4e 00
        E 24 90 4f 50
        E 192 90 4f 00
        E 48 90 4f 50
        E 192 90 4f 00
        E 48 90 4f 50
        E 96 90 4f 00
        E 24 90 4f 50
        E 96 90 4f 00
        E 24 90 4f 50
        E 96 90 4f 00
        E 24 90 4f 50
        E 96 90 4f 00
        E 24 90 4e 50
        E 96 90 4e 00
        E 24 90 4f 50
        E 96 90 4f 00
        E 24 90 4e 50
        E 192 90 4e 00
        E 48 90 4f 50
        E 192 90 4f 00
        E 48 90 52 50
        E 96 90 52 00
        E 24 90 51 50
        E 96 90 51 00
        E 24 90 52 50
        E 192 90 52 00
        E 48 90 52 50
        E 192 90 52 00
        E 48 90 52 50
        E 96 90 52 00
        E 24 90 52 50
        E 96 90 52 00
        E 24 90 52 50
        E 96 90 52 00
        E 24 90 52 50
        E 96 90 52 00
        E 24 90 51 50
        E 96 90 51 00
        E 24 90 52 50
        E 96 90 52 00
        E 24 90 51 50
        E 192 90 51 00
        E 48 90 52 50
        E 192 90 52 00
        E 48 90 52 50
        E 96 90 52 00
        E 24 90 52 50
        E 96 90 52 00
        E 24 90 52 50
        E 192 90 52 00
        E 48 90 51 50
        E 192 90 51 00
        E 48 90 51 50
        E 96 90 51 00
        E 24 90 51 50
        E 96 90 51 00
        E 24 90 51 50
        E 96 90 51 00
        E 24 90 51 50
        E 96 90 51 00
        E 24 90 51 50
        E 192 90 51 00
        E 48 90 4f 50
        E 192 90 4f 00
        E 48 90 4f 50
        E 96 90 4f 00
        E 24 90 4f 50
        E 96 90 4f 00
        E 24 90 4f 50
        E 96 90 4f 00
        E 24 90 4f 50
        E 96 90 4f 00
        E 24 90 4e 50
        E 96 90 4e 00
        E 24 90 4f 50
        E 96 90 4f 00
        E 24 90 4e 50
        E 192 90 4e 00
        E 48 90 4f 50
        E 192 90 4f 00
        E 48 90 52 50
        E 96 90 52 00
        E 24 90 52 50
        E 96 90 52 00
        E 24 90 52 50
        E 192 90 52 00
        E 48 90 51 50
        E 192 90 51 00
        E 48 90 51 50
        E 96 90 51 00
        E 24 90 51 50
        E 96 90 51 00
        E 24 90 51 50
        E 96 90 51 00
        E 24 90 51 50
        E 96 90 51 00
        E 24 90 51 50
        E 192 90 51 00
        E 48 90 4f 50
        E 192 90 4f 00
        E 48 90 4f 50
        E 96 90 4f 00
        E 24 90 4f 50
        E 96 90 4f 00
        E 24 90 4f 50
        E 96 90 4f 00
        E 24 90 4f 50
        E 96 90 4f 00
        E 24 90 4e 50
        E 96 90 4e 00
        E 24 90 4f 50
        E 96 90 4f 00
        E 24 90 4e 50
        E 192 90 4e 00
        E 48 90 4f 50
        E 192 90 4f 00
        E 48 90 4f 50
        E 96 90 4f 00
        E 24 90 4e 50
        E 96 90 4e 00
        E 24 90 4f 50
        E 192 90 4f 00
        E 48 90 4f 50
        E 192 90 4f 00
        E 48 90 4f 50
        E 96 90 4f 00
        E 24 90 4f 50
        E 96 90 4f 00
        E 24 90 4f 50
        E 96 90 4f 00
        E 24 90 4f 50
        E 96 90 4f 00
        E 24 90 4e 50
        E 96 90 4e 00
        E 24 90 4f 50
        E 96 90 4f 00
        E 24 90 4e 50
        E 192 90 4e 00
        E 48 90 4f 50
        E 192 90 4f 00
        E 48 90 52 50
        E 96 90 52 00
        E 24 90 51 50
        E 96 90 51 00
        E 24 90 52 50
        E 192 90 52 00
        E 48 90 52 50
        E 192 90 52 00
        E 48 90 52 50
        E 96 90 52 00
        E 24 90 52 50
        E 96 90 52 00
        E 24 90 52 50
        E 96 90 52 00
        E 24 90 52 50
        E 96 90 52 00
        E 24 90 51 50
        E 96 90 51 00
        E 24 90 52 50
        E 96 90 52 00
        E 24 90 51 50
        E 192 90 51 00
        E 48 90 52 50
        E 192 90 52 00
        E 48 90 52 50
        E 96 90 52 00
        E 24 90 52 50
        E 96 90 52 00
        E 24 90 52 50
        E 192 90 52 00
        E 48 90 51 50
        E 192 90 51 00
        E 48 90 51 50
        E 96 90 51 00
        E 24 90 51 50
        E 96 90 51 00
        E 24 90 51 50
        E 96 90 51 00
        E 24 90 51 50
        E 96 90 51 00
        E 24 90 51 50
        E 192 90 51 00
        E 48 90 4f 50
        E 192 90 4f 00
        E 48 90 4f 50
        E 96 90 4f 00
        E 24 90 4f 50
        E 96 90 4f 00
        E 24 90 4f 50
        E 96 90 4f 00
        E 24 90 4f 50
        E 96 90 4f 00
        E 24 90 4e 50
        E 96 90 4e 00
        E 24 90 4f 50
        E 96 90 4f 00
        E 24 90 4e 50
        E 192 90 4e 00
        E 48 90 4f 50
        E 192 90 4f 00
        E 48 90 52 50
        E 96 90 52 00
        E 24 90 52 50
        E 96 90 52 00
        E 24 90 52 50
        E 192 90 52 00
        E 48 90 51 50
        E 192 90 51 00
        E 48 90 51 50
        E 96 90 51 00
        E 24 90 51 50
        E 96 90 51 00
        E 24 90 51 50
        E 96 90 51 00
        E 24 90 51 50
        E 96 90 51 00
        E 24 90 51 50
        E 192 90 51 00
        E 48 90 4f 50
        E 192 90 4f 00
        E 48 90 4f 50
        E 96 90 4f 00
        E 24 90 4f 50
        E 96 90 4f 00
        E 24 90 4f 50
        E 96 90 4f 00
        E 24 90 4f 50
        E 96 90 4f 00
        E 24 90 4e 50
        E 96 90 4e 00
        E 24 90 4f 50
        E 96 90 4f 00
        E 24 90 4e 50
        E 384 90 4e 00
        E 96 90 4f 50
        E 598 90 4f 00
        E 122 b0 7b 00
        GUID {B42C83F3-4B7B-3C4B-831F-3586F412CD67}
        IGNTEMPO 0 120 4 4
        SRCCOLOR 253
        VELLANE -1 86 6
        CFGEDITVIEW 0 0 45 16 0 0 0 0 0
        KEYSNAP 0 3 102304056070 0 "Natural minor"
        TRACKSEL 252 0 0 ""
        EVTFILTER 0 -1 -1 -1 -1 0 0 0 0 -1 -1 -1 -1 0 -1 0 -1 -1
        CFGEDIT 1 0 0 0 0 0 1 0 1 1 1 0.25 413 148 1280 633 0 0 2 3 0 0 0 0 0 -1 0 0 1 64
      >
    >
    <ITEM
      POSITION 0
      SNAPOFFS 0
      LENGTH 41.5
      LOOP 1
      ALLTAKES 0
      FADEIN 1 0 0 1 0 0
      FADEOUT 1 0 0 1 0 0
      MUTE 0
      SEL 0
      YPOS 0.553957 0.05
      IGUID {3CE0801B-F711-DD4E-875C-FA04D4242FDC}
      IID 5
      NAME "Hoboj2 - National_Anthems_-_Slovakia2.mid"
      VOLPAN 1 0 1 -1
      SOFFS 0 0
      PLAYRATE 1 1 0 -1 0 0.0025
      CHANMODE 0
      TAKECOLOR 26173599
      GUID {52828F8A-8F24-D440-BC16-75135519AAF8}
      <SOURCE MIDI
        HASDATA 1 240 QN
        POOLEDEVTS {AF50F0A8-DC6B-8144-A699-81881B93B8AF}
        <X 0 0
          /wNIb2JvajI=
        >
        E 0 90 4f 50
        E 96 90 4f 00
        E 24 90 4a 50
        E 96 90 4a 00
        E 24 90 4a 50
        E 192 90 4a 00
        E 48 90 4a 50
        E 192 90 4a 00
        E 48 90 4b 50
        E 96 90 4b 00
        E 24 90 4a 50
        E 96 90 4a 00
        E 24 90 4b 50
        E 96 90 4b 00
        E 24 90 4a 50
        E 96 90 4a 00
        E 24 90 4a 50
        E 96 90 4a 00
        E 24 90 4a 50
        E 96 90 4a 00
        E 24 90 4a 50
        E 192 90 4a 00
        E 48 90 46 50
        E 192 90 46 00
        E 48 90 4b 50
        E 96 90 4b 00
        E 24 90 48 50
        E 96 90 48 00
        E 24 90 4a 50
        E 192 90 4a 00
        E 48 90 4a 50
        E 192 90 4a 00
        E 48 90 4a 50
        E 96 90 4a 00
        E 24 90 4a 50
        E 96 90 4a 00
        E 24 90 48 50
        E 96 90 48 00
        E 24 90 4a 50
        E 96 90 4a 00
        E 24 90 4b 50
        E 96 90 4b 00
        E 24 90 4a 50
        E 96 90 4a 00
        E 24 90 48 50
        E 192 90 48 00
        E 48 90 4a 50
        E 192 90 4a 00
        E 48 90 4a 50
        E 96 90 4a 00
        E 24 90 4a 50
        E 96 90 4a 00
        E 24 90 4a 50
        E 192 90 4a 00
        E 48 90 48 50
        E 192 90 48 00
        E 48 90 4d 50
        E 96 90 4d 00
        E 24 90 4b 50
        E 96 90 4b 00
        E 24 90 4a 50
        E 96 90 4a 00
        E 24 90 45 50
        E 96 90 45 00
        E 24 90 45 50
        E 192 90 45 00
        E 48 90 46 50
        E 192 90 46 00
        E 48 90 46 50
        E 96 90 46 00
        E 24 90 46 50
        E 96 90 46 00
        E 24 90 45 50
        E 96 90 45 00
        E 24 90 46 50
        E 96 90 46 00
        E 24 90 48 50
        E 96 90 48 00
        E 24 90 46 50
        E 96 90 46 00
        E 24 90 45 50
        E 192 90 45 00
        E 48 90 46 50
        E 192 90 46 00
        E 48 90 4a 50
        E 96 90 4a 00
        E 24 90 4a 50
        E 96 90 4a 00
        E 24 90 4a 50
        E 192 90 4a 00
        E 48 90 48 50
        E 192 90 48 00
        E 48 90 4d 50
        E 96 90 4d 00
        E 24 90 4b 50
        E 96 90 4b 00
        E 24 90 4a 50
        E 96 90 4a 00
        E 24 90 45 50
        E 96 90 45 00
        E 24 90 45 50
        E 192 90 45 00
        E 48 90 46 50
        E 192 90 46 00
        E 48 90 46 50
        E 96 90 46 00
        E 24 90 46 50
        E 96 90 46 00
        E 24 90 45 50
        E 96 90 45 00
        E 24 90 46 50
        E 96 90 46 00
        E 24 90 48 50
        E 96 90 48 00
        E 24 90 46 50
        E 96 90 46 00
        E 24 90 45 50
        E 192 90 45 00
        E 48 90 46 50
        E 192 90 46 00
        E 48 90 4f 50
        E 96 90 4f 00
        E 24 90 4a 50
        E 96 90 4a 00
        E 24 90 4a 50
        E 192 90 4a 00
        E 48 90 4a 50
        E 192 90 4a 00
        E 48 90 4b 50
        E 96 90 4b 00
        E 24 90 4a 50
        E 96 90 4a 00
        E 24 90 4b 50
        E 96 90 4b 00
        E 24 90 4a 50
        E 96 90 4a 00
        E 24 90 4a 50
        E 96 90 4a 00
        E 24 90 4a 50
        E 96 90 4a 00
        E 24 90 4a 50
        E 192 90 4a 00
        E 48 90 46 50
        E 192 90 46 00
        E 48 90 4b 50
        E 96 90 4b 00
        E 24 90 48 50
        E 96 90 48 00
        E 24 90 4a 50
        E 192 90 4a 00
        E 48 90 4a 50
        E 192 90 4a 00
        E 48 90 4a 50
        E 96 90 4a 00
        E 24 90 4a 50
        E 96 90 4a 00
        E 24 90 48 50
        E 96 90 48 00
        E 24 90 4a 50
        E 96 90 4a 00
        E 24 90 4b 50
        E 96 90 4b 00
        E 24 90 4a 50
        E 96 90 4a 00
        E 24 90 48 50
        E 192 90 48 00
        E 48 90 4a 50
        E 192 90 4a 00
        E 48 90 4a 50
        E 96 90 4a 00
        E 24 90 4a 50
        E 96 90 4a 00
        E 24 90 4a 50
        E 192 90 4a 00
        E 48 90 48 50
        E 192 90 48 00
        E 48 90 4d 50
        E 96 90 4d 00
        E 24 90 4b 50
        E 96 90 4b 00
        E 24 90 4a 50
        E 96 90 4a 00
        E 24 90 45 50
        E 96 90 45 00
        E 24 90 45 50
        E 192 90 45 00
        E 48 90 46 50
        E 192 90 46 00
        E 48 90 46 50
        E 96 90 46 00
        E 24 90 46 50
        E 96 90 46 00
        E 24 90 45 50
        E 96 90 45 00
        E 24 90 46 50
        E 96 90 46 00
        E 24 90 48 50
        E 96 90 48 00
        E 24 90 46 50
        E 96 90 46 00
        E 24 90 45 50
        E 192 90 45 00
        E 48 90 46 50
        E 192 90 46 00
        E 48 90 4a 50
        E 96 90 4a 00
        E 24 90 4a 50
        E 96 90 4a 00
        E 24 90 4a 50
        E 192 90 4a 00
        E 48 90 48 50
        E 192 90 48 00
        E 48 90 4d 50
        E 96 90 4d 00
        E 24 90 4b 50
        E 96 90 4b 00
        E 24 90 4a 50
        E 96 90 4a 00
        E 24 90 45 50
        E 96 90 45 00
        E 24 90 45 50
        E 192 90 45 00
        E 48 90 46 50
        E 192 90 46 00
        E 48 90 46 50
        E 96 90 46 00
        E 24 90 46 50
        E 96 90 46 00
        E 24 90 45 50
        E 96 90 45 00
        E 24 90 46 50
        E 96 90 46 00
        E 24 90 48 50
        E 96 90 48 00
        E 24 90 46 50
        E 96 90 46 00
        E 24 90 45 50
        E 450 90 45 00
        E 30 90 43 50
        E 598 90 43 00
        E 122 b0 7b 00
        GUID {DD8E4837-F855-BD41-BEB8-C5185A427B58}
        IGNTEMPO 0 120 4 4
        SRCCOLOR 239
        VELLANE -1 86 6
        CFGEDITVIEW 7832.628972 189.863892 47 15 0 0 0 0 0
        KEYSNAP 0 3 102304056070 0 "Natural minor"
        TRACKSEL 252 0 0 ""
        EVTFILTER 0 -1 -1 -1 -1 0 0 0 0 -1 -1 -1 -1 0 -1 0 -1 -1
        CFGEDIT 1 0 0 0 0 0 1 0 1 1 1 0.25 413 148 1280 633 0 0 2 3 0 0 0 0 0 -1 0 0 1 64
      >
      TAKE
      NAME "Hoboj2 - National_Anthems_-_Slovakia2.mid"
      TAKEVOLPAN 0 1 -1
      SOFFS 0 0
      PLAYRATE 1 1 0 -1 0 0.0025
      CHANMODE 0
      GUID {797E0770-AAD3-9948-91A5-CDCCE1FFE253}
      <SOURCE MIDI
        HASDATA 1 240 QN
        POOLEDEVTS {EA1D8FD3-0B54-9741-A39B-DC7527EF5ECF}
        <X 0 0
          /wNIb2JvajI=
        >
        E 0 90 4f 50
        E 96 90 4f 00
        E 24 90 4a 50
        E 96 90 4a 00
        E 24 90 4a 50
        E 192 90 4a 00
        E 48 90 4a 50
        E 192 90 4a 00
        E 48 90 4b 50
        E 96 90 4b 00
        E 24 90 4a 50
        E 96 90 4a 00
        E 24 90 4b 50
        E 96 90 4b 00
        E 24 90 4a 50
        E 96 90 4a 00
        E 24 90 4a 50
        E 96 90 4a 00
        E 24 90 4a 50
        E 96 90 4a 00
        E 24 90 4a 50
        E 192 90 4a 00
        E 48 90 46 50
        E 192 90 46 00
        E 48 90 4b 50
        E 96 90 4b 00
        E 24 90 48 50
        E 96 90 48 00
        E 24 90 4a 50
        E 192 90 4a 00
        E 48 90 4a 50
        E 192 90 4a 00
        E 48 90 4a 50
        E 96 90 4a 00
        E 24 90 4a 50
        E 96 90 4a 00
        E 24 90 48 50
        E 96 90 48 00
        E 24 90 4a 50
        E 96 90 4a 00
        E 24 90 4b 50
        E 96 90 4b 00
        E 24 90 4a 50
        E 96 90 4a 00
        E 24 90 48 50
        E 192 90 48 00
        E 48 90 4a 50
        E 192 90 4a 00
        E 48 90 4a 50
        E 96 90 4a 00
        E 24 90 4a 50
        E 96 90 4a 00
        E 24 90 4a 50
        E 192 90 4a 00
        E 48 90 48 50
        E 192 90 48 00
        E 48 90 4d 50
        E 96 90 4d 00
        E 24 90 4b 50
        E 96 90 4b 00
        E 24 90 4a 50
        E 96 90 4a 00
        E 24 90 45 50
        E 96 90 45 00
        E 24 90 45 50
        E 192 90 45 00
        E 48 90 46 50
        E 192 90 46 00
        E 48 90 46 50
        E 96 90 46 00
        E 24 90 46 50
        E 96 90 46 00
        E 24 90 45 50
        E 96 90 45 00
        E 24 90 46 50
        E 96 90 46 00
        E 24 90 48 50
        E 96 90 48 00
        E 24 90 46 50
        E 96 90 46 00
        E 24 90 45 50
        E 192 90 45 00
        E 48 90 46 50
        E 192 90 46 00
        E 48 90 4a 50
        E 96 90 4a 00
        E 24 90 4a 50
        E 96 90 4a 00
        E 24 90 4a 50
        E 192 90 4a 00
        E 48 90 48 50
        E 192 90 48 00
        E 48 90 4d 50
        E 96 90 4d 00
        E 24 90 4b 50
        E 96 90 4b 00
        E 24 90 4a 50
        E 96 90 4a 00
        E 24 90 45 50
        E 96 90 45 00
        E 24 90 45 50
        E 192 90 45 00
        E 48 90 46 50
        E 192 90 46 00
        E 48 90 46 50
        E 96 90 46 00
        E 24 90 46 50
        E 96 90 46 00
        E 24 90 45 50
        E 96 90 45 00
        E 24 90 46 50
        E 96 90 46 00
        E 24 90 48 50
        E 96 90 48 00
        E 24 90 46 50
        E 96 90 46 00
        E 24 90 45 50
        E 192 90 45 00
        E 48 90 46 50
        E 192 90 46 00
        E 48 90 4f 50
        E 96 90 4f 00
        E 24 90 4a 50
        E 96 90 4a 00
        E 24 90 4a 50
        E 192 90 4a 00
        E 48 90 4a 50
        E 192 90 4a 00
        E 48 90 4b 50
        E 96 90 4b 00
        E 24 90 4a 50
        E 96 90 4a 00
        E 24 90 4b 50
        E 96 90 4b 00
        E 24 90 4a 50
        E 96 90 4a 00
        E 24 90 4a 50
        E 96 90 4a 00
        E 24 90 4a 50
        E 96 90 4a 00
        E 24 90 4a 50
        E 192 90 4a 00
        E 48 90 46 50
        E 192 90 46 00
        E 48 90 4b 50
        E 96 90 4b 00
        E 24 90 48 50
        E 96 90 48 00
        E 24 90 4a 50
        E 192 90 4a 00
        E 48 90 4a 50
        E 192 90 4a 00
        E 48 90 4a 50
        E 96 90 4a 00
        E 24 90 4a 50
        E 96 90 4a 00
        E 24 90 48 50
        E 96 90 48 00
        E 24 90 4a 50
        E 96 90 4a 00
        E 24 90 4b 50
        E 96 90 4b 00
        E 24 90 4a 50
        E 96 90 4a 00
        E 24 90 48 50
        E 192 90 48 00
        E 48 90 4a 50
        E 192 90 4a 00
        E 48 90 4a 50
        E 96 90 4a 00
        E 24 90 4a 50
        E 96 90 4a 00
        E 24 90 4a 50
        E 192 90 4a 00
        E 48 90 48 50
        E 192 90 48 00
        E 48 90 4d 50
        E 96 90 4d 00
        E 24 90 4b 50
        E 96 90 4b 00
        E 24 90 4a 50
        E 96 90 4a 00
        E 24 90 45 50
        E 96 90 45 00
        E 24 90 45 50
        E 192 90 45 00
        E 48 90 46 50
        E 192 90 46 00
        E 48 90 46 50
        E 96 90 46 00
        E 24 90 46 50
        E 96 90 46 00
        E 24 90 45 50
        E 96 90 45 00
        E 24 90 46 50
        E 96 90 46 00
        E 24 90 48 50
        E 96 90 48 00
        E 24 90 46 50
        E 96 90 46 00
        E 24 90 45 50
        E 192 90 45 00
        E 48 90 46 50
        E 192 90 46 00
        E 48 90 4a 50
        E 96 90 4a 00
        E 24 90 4a 50
        E 96 90 4a 00
        E 24 90 4a 50
        E 192 90 4a 00
        E 48 90 48 50
        E 192 90 48 00
        E 48 90 4d 50
        E 96 90 4d 00
        E 24 90 4b 50
        E 96 90 4b 00
        E 24 90 4a 50
        E 96 90 4a 00
        E 24 90 45 50
        E 96 90 45 00
        E 24 90 45 50
        E 192 90 45 00
        E 48 90 46 50
        E 192 90 46 00
        E 48 90 46 50
        E 96 90 46 00
        E 24 90 46 50
        E 96 90 46 00
        E 24 90 45 50
        E 96 90 45 00
        E 24 90 46 50
        E 96 90 46 00
        E 24 90 48 50
        E 96 90 48 00
        E 24 90 46 50
        E 96 90 46 00
        E 24 90 45 50
        E 450 90 45 00
        E 30 90 43 50
        E 598 90 43 00
        E 122 b0 7b 00
        GUID {23908CA9-0A67-D849-9F02-12FDF9AB2E00}
        IGNTEMPO 0 120 4 4
        SRCCOLOR 254
        VELLANE -1 86 6
        CFGEDITVIEW 0 0 47 15 0 0 0 0 0
        KEYSNAP 0 3 102304056070 0 "Natural minor"
        TRACKSEL 252 0 0 ""
        EVTFILTER 0 -1 -1 -1 -1 0 0 0 0 -1 -1 -1 -1 0 -1 0 -1 -1
        CFGEDIT 1 0 0 0 0 0 1 0 1 1 1 0.25 413 148 1280 633 0 0 2 3 0 0 0 0 0 -1 0 0 1 64
      >
    >
    <ITEM
      POSITION 0
      SNAPOFFS 0
      LENGTH 41.5
      LOOP 1
      ALLTAKES 0
      FADEIN 1 0 0 1 0 0
      FADEOUT 1 0 0 1 0 0
      MUTE 0
      SEL 0
      YPOS 0.692446 0.05
      IGUID {7AADA1B7-BBA9-A34D-8A9E-705A0018922E}
      IID 6
      NAME "Klarinet3 - National_Anthems_-_Slovakia2.mid"
      VOLPAN 1 0 1 -1
      SOFFS 0 0
      PLAYRATE 1 1 0 -1 0 0.0025
      CHANMODE 0
      TAKECOLOR 26173599
      GUID {9DB26045-0AC5-414D-9BF9-9F430EDB86FB}
      <SOURCE MIDI
        HASDATA 1 240 QN
        POOLEDEVTS {004BCF3F-85C3-3642-88B8-E55F8664B95D}
        <X 0 0
          /wNLbGFyaW5ldDM=
        >
        E 0 90 46 50
        E 96 90 46 00
        E 24 90 4a 50
        E 96 90 4a 00
        E 24 90 4a 50
        E 192 90 4a 00
        E 48 90 4a 50
        E 192 90 4a 00
        E 48 90 4b 50
        E 96 90 4b 00
        E 24 90 4a 50
        E 96 90 4a 00
        E 24 90 4b 50
        E 96 90 4b 00
        E 24 90 4a 50
        E 96 90 4a 00
        E 24 90 4a 50
        E 96 90 4a 00
        E 24 90 4a 50
        E 96 90 4a 00
        E 24 90 4a 50
        E 192 90 4a 00
        E 48 90 46 50
        E 192 90 46 00
        E 48 90 46 50
        E 96 90 46 00
        E 24 90 48 50
        E 96 90 48 00
        E 24 90 4a 50
        E 192 90 4a 00
        E 48 90 4a 50
        E 192 90 4a 00
        E 48 90 4a 50
        E 96 90 4a 00
        E 24 90 4a 50
        E 96 90 4a 00
        E 24 90 48 50
        E 96 90 48 00
        E 24 90 4a 50
        E 96 90 4a 00
        E 24 90 4b 50
        E 96 90 4b 00
        E 24 90 4a 50
        E 96 90 4a 00
        E 24 90 45 50
        E 192 90 45 00
        E 48 90 46 50
        E 192 90 46 00
        E 48 90 4a 50
        E 96 90 4a 00
        E 24 90 4a 50
        E 96 90 4a 00
        E 24 90 4a 50
        E 192 90 4a 00
        E 48 90 48 50
        E 192 90 48 00
        E 48 90 48 50
        E 96 90 48 00
        E 24 90 48 50
        E 96 90 48 00
        E 24 90 48 50
        E 96 90 48 00
        E 24 90 45 50
        E 96 90 45 00
        E 24 90 48 50
        E 192 90 48 00
        E 48 90 46 50
        E 192 90 46 00
        E 48 90 46 50
        E 96 90 46 00
        E 24 90 46 50
        E 96 90 46 00
        E 24 90 48 50
        E 96 90 48 00
        E 24 90 46 50
        E 96 90 46 00
        E 24 90 45 50
        E 96 90 45 00
        E 24 90 43 50
        E 96 90 43 00
        E 24 90 45 50
        E 192 90 45 00
        E 48 90 46 50
        E 192 90 46 00
        E 48 90 4a 50
        E 96 90 4a 00
        E 24 90 4a 50
        E 96 90 4a 00
        E 24 90 4a 50
        E 192 90 4a 00
        E 48 90 48 50
        E 192 90 48 00
        E 48 90 48 50
        E 96 90 48 00
        E 24 90 48 50
        E 96 90 48 00
        E 24 90 48 50
        E 96 90 48 00
        E 24 90 45 50
        E 96 90 45 00
        E 24 90 48 50
        E 192 90 48 00
        E 48 90 46 50
        E 192 90 46 00
        E 48 90 46 50
        E 96 90 46 00
        E 24 90 46 50
        E 96 90 46 00
        E 24 90 48 50
        E 96 90 48 00
        E 24 90 46 50
        E 96 90 46 00
        E 24 90 45 50
        E 96 90 45 00
        E 24 90 43 50
        E 96 90 43 00
        E 24 90 45 50
        E 192 90 45 00
        E 48 90 46 50
        E 192 90 46 00
        E 48 90 46 50
        E 96 90 46 00
        E 24 90 4a 50
        E 96 90 4a 00
        E 24 90 4a 50
        E 192 90 4a 00
        E 48 90 4a 50
        E 192 90 4a 00
        E 48 90 4b 50
        E 96 90 4b 00
        E 24 90 4a 50
        E 96 90 4a 00
        E 24 90 4b 50
        E 96 90 4b 00
        E 24 90 4a 50
        E 96 90 4a 00
        E 24 90 4a 50
        E 96 90 4a 00
        E 24 90 4a 50
        E 96 90 4a 00
        E 24 90 4a 50
        E 192 90 4a 00
        E 48 90 46 50
        E 192 90 46 00
        E 48 90 46 50
        E 96 90 46 00
        E 24 90 48 50
        E 96 90 48 00
        E 24 90 4a 50
        E 192 90 4a 00
        E 48 90 4a 50
        E 192 90 4a 00
        E 48 90 4a 50
        E 96 90 4a 00
        E 24 90 4a 50
        E 96 90 4a 00
        E 24 90 48 50
        E 96 90 48 00
        E 24 90 4a 50
        E 96 90 4a 00
        E 24 90 4b 50
        E 96 90 4b 00
        E 24 90 4a 50
        E 96 90 4a 00
        E 24 90 45 50
        E 192 90 45 00
        E 48 90 46 50
        E 192 90 46 00
        E 48 90 4a 50
        E 96 90 4a 00
        E 24 90 4a 50
        E 96 90 4a 00
        E 24 90 4a 50
        E 192 90 4a 00
        E 48 90 48 50
        E 192 90 48 00
        E 48 90 48 50
        E 96 90 48 00
        E 24 90 48 50
        E 96 90 48 00
        E 24 90 48 50
        E 96 90 48 00
        E 24 90 45 50
        E 96 90 45 00
        E 24 90 48 50
        E 192 90 48 00
        E 48 90 46 50
        E 192 90 46 00
        E 48 90 46 50
        E 96 90 46 00
        E 24 90 46 50
        E 96 90 46 00
        E 24 90 48 50
        E 96 90 48 00
        E 24 90 46 50
        E 96 90 46 00
        E 24 90 45 50
        E 96 90 45 00
        E 24 90 43 50
        E 96 90 43 00
        E 24 90 45 50
        E 192 90 45 00
        E 48 90 46 50
        E 192 90 46 00
        E 48 90 4a 50
        E 96 90 4a 00
        E 24 90 4a 50
        E 96 90 4a 00
        E 24 90 4a 50
        E 192 90 4a 00
        E 48 90 48 50
        E 192 90 48 00
        E 48 90 48 50
        E 96 90 48 00
        E 24 90 48 50
        E 96 90 48 00
        E 24 90 48 50
        E 96 90 48 00
        E 24 90 45 50
        E 96 90 45 00
        E 24 90 48 50
        E 192 90 48 00
        E 48 90 46 50
        E 192 90 46 00
        E 48 90 46 50
        E 96 90 46 00
        E 24 90 46 50
        E 96 90 46 00
        E 24 90 48 50
        E 96 90 48 00
        E 24 90 46 50
        E 96 90 46 00
        E 24 90 48 50
        E 96 90 48 00
        E 24 90 48 50
        E 96 90 48 00
        E 24 90 4a 50
        E 450 90 4a 00
        E 30 90 4a 50
        E 598 90 4a 00
        E 122 b0 7b 00
        GUID {8B553957-1BBE-8E49-BA3B-3AABB90F1D55}
        IGNTEMPO 0 120 4 4
        SRCCOLOR 240
        VELLANE -1 86 6
        CFGEDITVIEW 2622.940987 168.233955 51 22 0 0 0 0 0
        KEYSNAP 0 3 102304056070 0 "Natural minor"
        TRACKSEL 252 0 0 ""
        EVTFILTER 0 -1 -1 -1 -1 0 0 0 0 -1 -1 -1 -1 0 -1 0 -1 -1
        CFGEDIT 1 0 0 0 0 0 1 0 1 1 1 0.25 397 132 1280 633 0 0 2 3 0 0 0 0 0 -1 0 0 1 64
      >
      TAKE
      NAME "Klarinet3 - National_Anthems_-_Slovakia2.mid"
      TAKEVOLPAN 0 1 -1
      SOFFS 0 0
      PLAYRATE 1 1 0 -1 0 0.0025
      CHANMODE 0
      GUID {64897AAC-100C-8D46-B4AC-24B25A4A79B8}
      <SOURCE MIDI
        HASDATA 1 240 QN
        POOLEDEVTS {C49C21DD-5269-7443-8338-5F8F210AAEBD}
        <X 0 0
          /wNLbGFyaW5ldDM=
        >
        E 0 90 46 50
        E 96 90 46 00
        E 24 90 4a 50
        E 96 90 4a 00
        E 24 90 4a 50
        E 192 90 4a 00
        E 48 90 4a 50
        E 192 90 4a 00
        E 48 90 4b 50
        E 96 90 4b 00
        E 24 90 4a 50
        E 96 90 4a 00
        E 24 90 4b 50
        E 96 90 4b 00
        E 24 90 4a 50
        E 96 90 4a 00
        E 24 90 4a 50
        E 96 90 4a 00
        E 24 90 4a 50
        E 96 90 4a 00
        E 24 90 4a 50
        E 192 90 4a 00
        E 48 90 46 50
        E 192 90 46 00
        E 48 90 46 50
        E 96 90 46 00
        E 24 90 48 50
        E 96 90 48 00
        E 24 90 4a 50
        E 192 90 4a 00
        E 48 90 4a 50
        E 192 90 4a 00
        E 48 90 4a 50
        E 96 90 4a 00
        E 24 90 4a 50
        E 96 90 4a 00
        E 24 90 48 50
        E 96 90 48 00
        E 24 90 4a 50
        E 96 90 4a 00
        E 24 90 4b 50
        E 96 90 4b 00
        E 24 90 4a 50
        E 96 90 4a 00
        E 24 90 45 50
        E 192 90 45 00
        E 48 90 46 50
        E 192 90 46 00
        E 48 90 4a 50
        E 96 90 4a 00
        E 24 90 4a 50
        E 96 90 4a 00
        E 24 90 4a 50
        E 192 90 4a 00
        E 48 90 48 50
        E 192 90 48 00
        E 48 90 48 50
        E 96 90 48 00
        E 24 90 48 50
        E 96 90 48 00
        E 24 90 48 50
        E 96 90 48 00
        E 24 90 45 50
        E 96 90 45 00
        E 24 90 48 50
        E 192 90 48 00
        E 48 90 46 50
        E 192 90 46 00
        E 48 90 46 50
        E 96 90 46 00
        E 24 90 46 50
        E 96 90 46 00
        E 24 90 48 50
        E 96 90 48 00
        E 24 90 46 50
        E 96 90 46 00
        E 24 90 45 50
        E 96 90 45 00
        E 24 90 43 50
        E 96 90 43 00
        E 24 90 45 50
        E 192 90 45 00
        E 48 90 46 50
        E 192 90 46 00
        E 48 90 4a 50
        E 96 90 4a 00
        E 24 90 4a 50
        E 96 90 4a 00
        E 24 90 4a 50
        E 192 90 4a 00
        E 48 90 48 50
        E 192 90 48 00
        E 48 90 48 50
        E 96 90 48 00
        E 24 90 48 50
        E 96 90 48 00
        E 24 90 48 50
        E 96 90 48 00
        E 24 90 45 50
        E 96 90 45 00
        E 24 90 48 50
        E 192 90 48 00
        E 48 90 46 50
        E 192 90 46 00
        E 48 90 46 50
        E 96 90 46 00
        E 24 90 46 50
        E 96 90 46 00
        E 24 90 48 50
        E 96 90 48 00
        E 24 90 46 50
        E 96 90 46 00
        E 24 90 45 50
        E 96 90 45 00
        E 24 90 43 50
        E 96 90 43 00
        E 24 90 45 50
        E 192 90 45 00
        E 48 90 46 50
        E 192 90 46 00
        E 48 90 46 50
        E 96 90 46 00
        E 24 90 4a 50
        E 96 90 4a 00
        E 24 90 4a 50
        E 192 90 4a 00
        E 48 90 4a 50
        E 192 90 4a 00
        E 48 90 4b 50
        E 96 90 4b 00
        E 24 90 4a 50
        E 96 90 4a 00
        E 24 90 4b 50
        E 96 90 4b 00
        E 24 90 4a 50
        E 96 90 4a 00
        E 24 90 4a 50
        E 96 90 4a 00
        E 24 90 4a 50
        E 96 90 4a 00
        E 24 90 4a 50
        E 192 90 4a 00
        E 48 90 46 50
        E 192 90 46 00
        E 48 90 46 50
        E 96 90 46 00
        E 24 90 48 50
        E 96 90 48 00
        E 24 90 4a 50
        E 192 90 4a 00
        E 48 90 4a 50
        E 192 90 4a 00
        E 48 90 4a 50
        E 96 90 4a 00
        E 24 90 4a 50
        E 96 90 4a 00
        E 24 90 48 50
        E 96 90 48 00
        E 24 90 4a 50
        E 96 90 4a 00
        E 24 90 4b 50
        E 96 90 4b 00
        E 24 90 4a 50
        E 96 90 4a 00
        E 24 90 45 50
        E 192 90 45 00
        E 48 90 46 50
        E 192 90 46 00
        E 48 90 4a 50
        E 96 90 4a 00
        E 24 90 4a 50
        E 96 90 4a 00
        E 24 90 4a 50
        E 192 90 4a 00
        E 48 90 48 50
        E 192 90 48 00
        E 48 90 48 50
        E 96 90 48 00
        E 24 90 48 50
        E 96 90 48 00
        E 24 90 48 50
        E 96 90 48 00
        E 24 90 45 50
        E 96 90 45 00
        E 24 90 48 50
        E 192 90 48 00
        E 48 90 46 50
        E 192 90 46 00
        E 48 90 46 50
        E 96 90 46 00
        E 24 90 46 50
        E 96 90 46 00
        E 24 90 48 50
        E 96 90 48 00
        E 24 90 46 50
        E 96 90 46 00
        E 24 90 45 50
        E 96 90 45 00
        E 24 90 43 50
        E 96 90 43 00
        E 24 90 45 50
        E 192 90 45 00
        E 48 90 46 50
        E 192 90 46 00
        E 48 90 4a 50
        E 96 90 4a 00
        E 24 90 4a 50
        E 96 90 4a 00
        E 24 90 4a 50
        E 192 90 4a 00
        E 48 90 48 50
        E 192 90 48 00
        E 48 90 48 50
        E 96 90 48 00
        E 24 90 48 50
        E 96 90 48 00
        E 24 90 48 50
        E 96 90 48 00
        E 24 90 45 50
        E 96 90 45 00
        E 24 90 48 50
        E 192 90 48 00
        E 48 90 46 50
        E 192 90 46 00
        E 48 90 46 50
        E 96 90 46 00
        E 24 90 46 50
        E 96 90 46 00
        E 24 90 48 50
        E 96 90 48 00
        E 24 90 46 50
        E 96 90 46 00
        E 24 90 48 50
        E 96 90 48 00
        E 24 90 48 50
        E 96 90 48 00
        E 24 90 4a 50
        E 450 90 4a 00
        E 30 90 4a 50
        E 598 90 4a 00
        E 122 b0 7b 00
        GUID {A14311FA-A34E-704B-A9E0-0273B8604FBA}
        IGNTEMPO 0 120 4 4
        SRCCOLOR 255
        VELLANE -1 86 6
        CFGEDITVIEW 0 0 51 22 0 0 0 0 0
        KEYSNAP 0 3 102304056070 0 "Natural minor"
        TRACKSEL 252 0 0 ""
        EVTFILTER 0 -1 -1 -1 -1 0 0 0 0 -1 -1 -1 -1 0 -1 0 -1 -1
        CFGEDIT 1 0 0 0 0 0 1 0 1 1 1 0.25 397 132 1280 633 0 0 2 3 0 0 0 0 0 -1 0 0 1 64
      >
    >
    <ITEM
      POSITION 0
      SNAPOFFS 0
      LENGTH 41.5
      LOOP 1
      ALLTAKES 0
      FADEIN 1 0 0 1 0 0
      FADEOUT 1 0 0 1 0 0
      MUTE 0
      SEL 0
      YPOS 0.830935 0.05
      IGUID {A6F77253-11B2-9048-88E4-5C01CBFD4D3E}
      IID 8
      NAME "Trubkab1 - National_Anthems_-_Slovakia2.mid"
      VOLPAN 1 0 1 -1
      SOFFS 0 0
      PLAYRATE 1 1 0 -1 0 0.0025
      CHANMODE 0
      TAKECOLOR 26173599
      GUID {B5C7CA3D-342F-5448-848D-6F5AC6D77E3B}
      <SOURCE MIDI
        HASDATA 1 240 QN
        POOLEDEVTS {B4034EC1-33ED-784A-BB46-5EE2EDBC2FDC}
        <X 0 0
          /wNUcnVia2FiMQ==
        >
        E 0 90 3a 50
        E 96 90 3a 00
        E 24 90 3e 50
        E 96 90 3e 00
        E 24 90 3e 50
        E 192 90 3e 00
        E 48 90 3e 50
        E 192 90 3e 00
        E 48 90 43 50
        E 96 90 43 00
        E 24 90 41 50
        E 96 90 41 00
        E 24 90 3f 50
        E 96 90 3f 00
        E 24 90 3e 50
        E 96 90 3e 00
        E 24 90 3e 50
        E 96 90 3e 00
        E 24 90 3e 50
        E 96 90 3e 00
        E 24 90 3e 50
        E 192 90 3e 00
        E 48 90 3a 50
        E 192 90 3a 00
        E 48 90 3f 50
        E 96 90 3f 00
        E 24 90 41 50
        E 96 90 41 00
        E 24 90 41 50
        E 192 90 41 00
        E 48 90 41 50
        E 192 90 41 00
        E 48 90 41 50
        E 96 90 41 00
        E 24 90 43 50
        E 96 90 43 00
        E 24 90 43 50
        E 96 90 43 00
        E 24 90 41 50
        E 96 90 41 00
        E 24 90 41 50
        E 96 90 41 00
        E 24 90 41 50
        E 96 90 41 00
        E 24 90 41 50
        E 192 90 41 00
        E 48 90 41 50
        E 192 90 41 00
        E 48 90 41 50
        E 96 90 41 00
        E 24 90 41 50
        E 96 90 41 00
        E 24 90 41 50
        E 192 90 41 00
        E 48 90 41 50
        E 192 90 41 00
        E 48 90 45 50
        E 96 90 45 00
        E 24 90 43 50
        E 96 90 43 00
        E 24 90 42 50
        E 96 90 42 00
        E 24 90 42 50
        E 96 90 42 00
        E 24 90 3e 50
        E 192 90 3e 00
        E 48 90 3e 50
        E 192 90 3e 00
        E 48 90 3e 50
        E 96 90 3e 00
        E 24 90 3e 50
        E 96 90 3e 00
        E 24 90 3f 50
        E 96 90 3f 00
        E 24 90 3e 50
        E 96 90 3e 00
        E 24 90 42 50
        E 96 90 42 00
        E 24 90 43 50
        E 96 90 43 00
        E 24 90 3e 50
        E 192 90 3e 00
        E 48 90 3a 50
        E 192 90 3a 00
        E 48 90 41 50
        E 96 90 41 00
        E 24 90 41 50
        E 96 90 41 00
        E 24 90 41 50
        E 192 90 41 00
        E 48 90 41 50
        E 192 90 41 00
        E 48 90 45 50
        E 96 90 45 00
        E 24 90 43 50
        E 96 90 43 00
        E 24 90 42 50
        E 96 90 42 00
        E 24 90 42 50
        E 96 90 42 00
        E 24 90 3e 50
        E 192 90 3e 00
        E 48 90 3e 50
        E 192 90 3e 00
        E 48 90 3e 50
        E 96 90 3e 00
        E 24 90 3e 50
        E 96 90 3e 00
        E 24 90 3f 50
        E 96 90 3f 00
        E 24 90 3e 50
        E 96 90 3e 00
        E 24 90 42 50
        E 96 90 42 00
        E 24 90 43 50
        E 96 90 43 00
        E 24 90 3e 50
        E 192 90 3e 00
        E 48 90 3a 50
        E 192 90 3a 00
        E 48 90 3a 50
        E 96 90 3a 00
        E 24 90 3e 50
        E 96 90 3e 00
        E 24 90 3e 50
        E 192 90 3e 00
        E 48 90 3e 50
        E 192 90 3e 00
        E 48 90 43 50
        E 96 90 43 00
        E 24 90 41 50
        E 96 90 41 00
        E 24 90 3f 50
        E 96 90 3f 00
        E 24 90 3e 50
        E 96 90 3e 00
        E 24 90 3e 50
        E 96 90 3e 00
        E 24 90 3e 50
        E 96 90 3e 00
        E 24 90 3e 50
        E 192 90 3e 00
        E 48 90 3a 50
        E 192 90 3a 00
        E 48 90 3f 50
        E 96 90 3f 00
        E 24 90 41 50
        E 96 90 41 00
        E 24 90 41 50
        E 192 90 41 00
        E 48 90 41 50
        E 192 90 41 00
        E 48 90 41 50
        E 96 90 41 00
        E 24 90 43 50
        E 96 90 43 00
        E 24 90 43 50
        E 96 90 43 00
        E 24 90 41 50
        E 96 90 41 00
        E 24 90 41 50
        E 96 90 41 00
        E 24 90 41 50
        E 96 90 41 00
        E 24 90 41 50
        E 192 90 41 00
        E 48 90 41 50
        E 192 90 41 00
        E 48 90 41 50
        E 96 90 41 00
        E 24 90 41 50
        E 96 90 41 00
        E 24 90 41 50
        E 192 90 41 00
        E 48 90 41 50
        E 192 90 41 00
        E 48 90 45 50
        E 96 90 45 00
        E 24 90 43 50
        E 96 90 43 00
        E 24 90 42 50
        E 96 90 42 00
        E 24 90 42 50
        E 96 90 42 00
        E 24 90 3e 50
        E 192 90 3e 00
        E 48 90 3e 50
        E 192 90 3e 00
        E 48 90 3e 50
        E 96 90 3e 00
        E 24 90 3e 50
        E 96 90 3e 00
        E 24 90 3f 50
        E 96 90 3f 00
        E 24 90 3e 50
        E 96 90 3e 00
        E 24 90 42 50
        E 96 90 42 00
        E 24 90 43 50
        E 96 90 43 00
        E 24 90 3e 50
        E 192 90 3e 00
        E 48 90 3a 50
        E 192 90 3a 00
        E 48 90 41 50
        E 96 90 41 00
        E 24 90 41 50
        E 96 90 41 00
        E 24 90 41 50
        E 192 90 41 00
        E 48 90 41 50
        E 192 90 41 00
        E 48 90 45 50
        E 96 90 45 00
        E 24 90 43 50
        E 96 90 43 00
        E 24 90 42 50
        E 96 90 42 00
        E 24 90 42 50
        E 96 90 42 00
        E 24 90 3e 50
        E 192 90 3e 00
        E 48 90 3e 50
        E 192 90 3e 00
        E 48 90 3e 50
        E 96 90 3e 00
        E 24 90 3e 50
        E 96 90 3e 00
        E 24 90 3f 50
        E 96 90 3f 00
        E 24 90 3e 50
        E 96 90 3e 00
        E 24 90 42 50
        E 96 90 42 00
        E 24 90 43 50
        E 96 90 43 00
        E 24 90 42 50
        E 450 90 42 00
        E 30 90 43 50
        E 598 90 43 00
        E 122 b0 7b 00
        GUID {84A23A8F-CDAE-704E-B4EC-A0F74EA9B9E8}
        IGNTEMPO 0 120 4 4
        SRCCOLOR 242
        VELLANE -1 86 6
      >
      TAKE
      NAME "Trubkab1 - National_Anthems_-_Slovakia2.mid"
      TAKEVOLPAN 0 1 -1
      SOFFS 0 0
      PLAYRATE 1 1 0 -1 0 0.0025
      CHANMODE 0
      GUID {4B9FC7C4-0DA1-0143-B215-FC1E0C2390C1}
      <SOURCE MIDI
        HASDATA 1 240 QN
        POOLEDEVTS {AE7C9FC9-644C-FA45-AA71-B0E62156921E}
        <X 0 0
          /wNUcnVia2FiMQ==
        >
        E 0 90 3a 50
        E 96 90 3a 00
        E 24 90 3e 50
        E 96 90 3e 00
        E 24 90 3e 50
        E 192 90 3e 00
        E 48 90 3e 50
        E 192 90 3e 00
        E 48 90 43 50
        E 96 90 43 00
        E 24 90 41 50
        E 96 90 41 00
        E 24 90 3f 50
        E 96 90 3f 00
        E 24 90 3e 50
        E 96 90 3e 00
        E 24 90 3e 50
        E 96 90 3e 00
        E 24 90 3e 50
        E 96 90 3e 00
        E 24 90 3e 50
        E 192 90 3e 00
        E 48 90 3a 50
        E 192 90 3a 00
        E 48 90 3f 50
        E 96 90 3f 00
        E 24 90 41 50
        E 96 90 41 00
        E 24 90 41 50
        E 192 90 41 00
        E 48 90 41 50
        E 192 90 41 00
        E 48 90 41 50
        E 96 90 41 00
        E 24 90 43 50
        E 96 90 43 00
        E 24 90 43 50
        E 96 90 43 00
        E 24 90 41 50
        E 96 90 41 00
        E 24 90 41 50
        E 96 90 41 00
        E 24 90 41 50
        E 96 90 41 00
        E 24 90 41 50
        E 192 90 41 00
        E 48 90 41 50
        E 192 90 41 00
        E 48 90 41 50
        E 96 90 41 00
        E 24 90 41 50
        E 96 90 41 00
        E 24 90 41 50
        E 192 90 41 00
        E 48 90 41 50
        E 192 90 41 00
        E 48 90 45 50
        E 96 90 45 00
        E 24 90 43 50
        E 96 90 43 00
        E 24 90 42 50
        E 96 90 42 00
        E 24 90 42 50
        E 96 90 42 00
        E 24 90 3e 50
        E 192 90 3e 00
        E 48 90 3e 50
        E 192 90 3e 00
        E 48 90 3e 50
        E 96 90 3e 00
        E 24 90 3e 50
        E 96 90 3e 00
        E 24 90 3f 50
        E 96 90 3f 00
        E 24 90 3e 50
        E 96 90 3e 00
        E 24 90 42 50
        E 96 90 42 00
        E 24 90 43 50
        E 96 90 43 00
        E 24 90 3e 50
        E 192 90 3e 00
        E 48 90 3a 50
        E 192 90 3a 00
        E 48 90 41 50
        E 96 90 41 00
        E 24 90 41 50
        E 96 90 41 00
        E 24 90 41 50
        E 192 90 41 00
        E 48 90 41 50
        E 192 90 41 00
        E 48 90 45 50
        E 96 90 45 00
        E 24 90 43 50
        E 96 90 43 00
        E 24 90 42 50
        E 96 90 42 00
        E 24 90 42 50
        E 96 90 42 00
        E 24 90 3e 50
        E 192 90 3e 00
        E 48 90 3e 50
        E 192 90 3e 00
        E 48 90 3e 50
        E 96 90 3e 00
        E 24 90 3e 50
        E 96 90 3e 00
        E 24 90 3f 50
        E 96 90 3f 00
        E 24 90 3e 50
        E 96 90 3e 00
        E 24 90 42 50
        E 96 90 42 00
        E 24 90 43 50
        E 96 90 43 00
        E 24 90 3e 50
        E 192 90 3e 00
        E 48 90 3a 50
        E 192 90 3a 00
        E 48 90 3a 50
        E 96 90 3a 00
        E 24 90 3e 50
        E 96 90 3e 00
        E 24 90 3e 50
        E 192 90 3e 00
        E 48 90 3e 50
        E 192 90 3e 00
        E 48 90 43 50
        E 96 90 43 00
        E 24 90 41 50
        E 96 90 41 00
        E 24 90 3f 50
        E 96 90 3f 00
        E 24 90 3e 50
        E 96 90 3e 00
        E 24 90 3e 50
        E 96 90 3e 00
        E 24 90 3e 50
        E 96 90 3e 00
        E 24 90 3e 50
        E 192 90 3e 00
        E 48 90 3a 50
        E 192 90 3a 00
        E 48 90 3f 50
        E 96 90 3f 00
        E 24 90 41 50
        E 96 90 41 00
        E 24 90 41 50
        E 192 90 41 00
        E 48 90 41 50
        E 192 90 41 00
        E 48 90 41 50
        E 96 90 41 00
        E 24 90 43 50
        E 96 90 43 00
        E 24 90 43 50
        E 96 90 43 00
        E 24 90 41 50
        E 96 90 41 00
        E 24 90 41 50
        E 96 90 41 00
        E 24 90 41 50
        E 96 90 41 00
        E 24 90 41 50
        E 192 90 41 00
        E 48 90 41 50
        E 192 90 41 00
        E 48 90 41 50
        E 96 90 41 00
        E 24 90 41 50
        E 96 90 41 00
        E 24 90 41 50
        E 192 90 41 00
        E 48 90 41 50
        E 192 90 41 00
        E 48 90 45 50
        E 96 90 45 00
        E 24 90 43 50
        E 96 90 43 00
        E 24 90 42 50
        E 96 90 42 00
        E 24 90 42 50
        E 96 90 42 00
        E 24 90 3e 50
        E 192 90 3e 00
        E 48 90 3e 50
        E 192 90 3e 00
        E 48 90 3e 50
        E 96 90 3e 00
        E 24 90 3e 50
        E 96 90 3e 00
        E 24 90 3f 50
        E 96 90 3f 00
        E 24 90 3e 50
        E 96 90 3e 00
        E 24 90 42 50
        E 96 90 42 00
        E 24 90 43 50
        E 96 90 43 00
        E 24 90 3e 50
        E 192 90 3e 00
        E 48 90 3a 50
        E 192 90 3a 00
        E 48 90 41 50
        E 96 90 41 00
        E 24 90 41 50
        E 96 90 41 00
        E 24 90 41 50
        E 192 90 41 00
        E 48 90 41 50
        E 192 90 41 00
        E 48 90 45 50
        E 96 90 45 00
        E 24 90 43 50
        E 96 90 43 00
        E 24 90 42 50
        E 96 90 42 00
        E 24 90 42 50
        E 96 90 42 00
        E 24 90 3e 50
        E 192 90 3e 00
        E 48 90 3e 50
        E 192 90 3e 00
        E 48 90 3e 50
        E 96 90 3e 00
        E 24 90 3e 50
        E 96 90 3e 00
        E 24 90 3f 50
        E 96 90 3f 00
        E 24 90 3e 50
        E 96 90 3e 00
        E 24 90 42 50
        E 96 90 42 00
        E 24 90 43 50
        E 96 90 43 00
        E 24 90 42 50
        E 450 90 42 00
        E 30 90 43 50
        E 598 90 43 00
        E 122 b0 7b 00
        GUID {6BFE5646-B1D5-3F49-A1F9-C6E3AC06C117}
        IGNTEMPO 0 120 4 4
        SRCCOLOR 256
        VELLANE -1 86 6
      >
    >
    <ITEM
      POSITION 0
      SNAPOFFS 0
      LENGTH 41.5
      LOOP 1
      ALLTAKES 0
      FADEIN 1 0 0 1 0 0
      FADEOUT 1 0 0 1 0 0
      MUTE 0
      SEL 0
      YPOS 0.95 0.05
      IGUID {40A0A8D7-B5B0-FC40-9874-287EAE2962A4}
      IID 4
      NAME "Hoboj1 - National_Anthems_-_Slovakia2.mid"
      VOLPAN 1 0 1 -1
      SOFFS 0 0
      PLAYRATE 1 1 0 -1 0 0.0025
      CHANMODE 0
      TAKECOLOR 26173599
      GUID {F9FDAFB4-3888-7F4E-88FE-10DE2A3DB859}
      <SOURCE MIDI
        HASDATA 1 240 QN
        POOLEDEVTS {E1432283-CF84-564D-A0C3-25596A8292BF}
        <X 0 0
          /wNIb2JvajE=
        >
        E 0 90 4f 50
        E 96 90 4f 00
        E 24 90 4e 50
        E 96 90 4e 00
        E 24 90 4f 50
        E 192 90 4f 00
        E 48 90 4f 50
        E 192 90 4f 00
        E 48 90 4f 50
        E 96 90 4f 00
        E 24 90 4f 50
        E 96 90 4f 00
        E 24 90 4f 50
        E 96 90 4f 00
        E 24 90 4f 50
        E 96 90 4f 00
        E 24 90 4e 50
        E 96 90 4e 00
        E 24 90 4f 50
        E 96 90 4f 00
        E 24 90 4e 50
        E 192 90 4e 00
        E 48 90 4f 50
        E 192 90 4f 00
        E 48 90 4b 50
        E 96 90 4b 00
        E 24 90 4d 50
        E 96 90 4d 00
        E 24 90 4d 50
        E 192 90 4d 00
        E 48 90 4d 50
        E 192 90 4d 00
        E 48 90 4d 50
        E 96 90 4d 00
        E 24 90 4f 50
        E 96 90 4f 00
        E 24 90 4f 50
        E 96 90 4f 00
        E 24 90 4d 50
        E 96 90 4d 00
        E 24 90 4d 50
        E 96 90 4d 00
        E 24 90 4d 50
        E 96 90 4d 00
        E 24 90 4d 50
        E 192 90 4d 00
        E 48 90 4d 50
        E 192 90 4d 00
        E 48 90 4d 50
        E 96 90 4d 00
        E 24 90 4d 50
        E 96 90 4d 00
        E 24 90 4d 50
        E 192 90 4d 00
        E 48 90 4d 50
        E 192 90 4d 00
        E 48 90 51 50
        E 96 90 51 00
        E 24 90 4f 50
        E 96 90 4f 00
        E 24 90 4e 50
        E 96 90 4e 00
        E 24 90 4e 50
        E 96 90 4e 00
        E 24 90 4a 50
        E 192 90 4a 00
        E 48 90 4a 50
        E 192 90 4a 00
        E 48 90 4a 50
        E 96 90 4a 00
        E 24 90 4a 50
        E 96 90 4a 00
        E 24 90 4b 50
        E 96 90 4b 00
        E 24 90 4a 50
        E 96 90 4a 00
        E 24 90 4a 50
        E 96 90 4a 00
        E 24 90 4a 50
        E 96 90 4a 00
        E 24 90 4a 50
        E 192 90 4a 00
        E 48 90 4a 50
        E 192 90 4a 00
        E 48 90 4d 50
        E 96 90 4d 00
        E 24 90 4d 50
        E 96 90 4d 00
        E 24 90 4d 50
        E 192 90 4d 00
        E 48 90 4d 50
        E 192 90 4d 00
        E 48 90 51 50
        E 96 90 51 00
        E 24 90 4f 50
        E 96 90 4f 00
        E 24 90 4e 50
        E 96 90 4e 00
        E 24 90 4e 50
        E 96 90 4e 00
        E 24 90 4a 50
        E 192 90 4a 00
        E 48 90 4a 50
        E 192 90 4a 00
        E 48 90 4a 50
        E 96 90 4a 00
        E 24 90 4a 50
        E 96 90 4a 00
        E 24 90 4b 50
        E 96 90 4b 00
        E 24 90 4a 50
        E 96 90 4a 00
        E 24 90 4a 50
        E 96 90 4a 00
        E 24 90 4a 50
        E 96 90 4a 00
        E 24 90 4a 50
        E 192 90 4a 00
        E 48 90 4a 50
        E 192 90 4a 00
        E 48 90 4f 50
        E 96 90 4f 00
        E 24 90 4e 50
        E 96 90 4e 00
        E 24 90 4f 50
        E 192 90 4f 00
        E 48 90 4f 50
        E 192 90 4f 00
        E 48 90 4f 50
        E 96 90 4f 00
        E 24 90 4f 50
        E 96 90 4f 00
        E 24 90 4f 50
        E 96 90 4f 00
        E 24 90 4f 50
        E 96 90 4f 00
        E 24 90 4e 50
        E 96 90 4e 00
        E 24 90 4f 50
        E 96 90 4f 00
        E 24 90 4e 50
        E 192 90 4e 00
        E 48 90 4f 50
        E 192 90 4f 00
        E 48 90 4b 50
        E 96 90 4b 00
        E 24 90 4d 50
        E 96 90 4d 00
        E 24 90 4d 50
        E 192 90 4d 00
        E 48 90 4d 50
        E 192 90 4d 00
        E 48 90 4d 50
        E 96 90 4d 00
        E 24 90 4f 50
        E 96 90 4f 00
        E 24 90 4f 50
        E 96 90 4f 00
        E 24 90 4d 50
        E 96 90 4d 00
        E 24 90 4d 50
        E 96 90 4d 00
        E 24 90 4d 50
        E 96 90 4d 00
        E 24 90 4d 50
        E 192 90 4d 00
        E 48 90 4d 50
        E 192 90 4d 00
        E 48 90 4d 50
        E 96 90 4d 00
        E 24 90 4d 50
        E 96 90 4d 00
        E 24 90 4d 50
        E 192 90 4d 00
        E 48 90 4d 50
        E 192 90 4d 00
        E 48 90 51 50
        E 96 90 51 00
        E 24 90 4f 50
        E 96 90 4f 00
        E 24 90 4e 50
        E 96 90 4e 00
        E 24 90 4e 50
        E 96 90 4e 00
        E 24 90 4a 50
        E 192 90 4a 00
        E 48 90 4a 50
        E 192 90 4a 00
        E 48 90 4a 50
        E 96 90 4a 00
        E 24 90 4a 50
        E 96 90 4a 00
        E 24 90 4b 50
        E 96 90 4b 00
        E 24 90 4a 50
        E 96 90 4a 00
        E 24 90 4a 50
        E 96 90 4a 00
        E 24 90 4a 50
        E 96 90 4a 00
        E 24 90 4a 50
        E 192 90 4a 00
        E 48 90 4a 50
        E 192 90 4a 00
        E 48 90 4d 50
        E 96 90 4d 00
        E 24 90 4d 50
        E 96 90 4d 00
        E 24 90 4d 50
        E 192 90 4d 00
        E 48 90 4d 50
        E 192 90 4d 00
        E 48 90 51 50
        E 96 90 51 00
        E 24 90 4f 50
        E 96 90 4f 00
        E 24 90 4e 50
        E 96 90 4e 00
        E 24 90 4e 50
        E 96 90 4e 00
        E 24 90 4a 50
        E 192 90 4a 00
        E 48 90 4a 50
        E 192 90 4a 00
        E 48 90 4a 50
        E 96 90 4a 00
        E 24 90 4a 50
        E 96 90 4a 00
        E 24 90 4b 50
        E 96 90 4b 00
        E 24 90 4a 50
        E 96 90 4a 00
        E 24 90 4a 50
        E 96 90 4a 00
        E 24 90 4b 50
        E 96 90 4b 00
        E 24 90 4a 50
        E 192 90 4a 00
        E 48 90 48 50
        E 192 90 48 00
        E 48 90 46 50
        E 598 90 46 00
        E 122 b0 7b 00
        GUID {DBF138A9-73EC-AE46-BD2D-DF84AF9359B1}
        IGNTEMPO 0 120 4 4
        SRCCOLOR 238
        VELLANE -1 86 6
        CFGEDITVIEW 9508.77345 256.168576 45 16 0 0 0 0 0
        KEYSNAP 0 3 102304056070 0 "Natural minor"
        TRACKSEL 252 0 0 ""
        EVTFILTER 0 -1 -1 -1 -1 0 0 0 0 -1 -1 -1 -1 0 -1 0 -1 -1
        CFGEDIT 1 0 0 0 0 0 1 0 1 1 1 0.25 413 148 1280 633 0 0 2 3 0 0 0 0 0 -1 0 0 1 64
      >
      TAKE
      NAME "Hoboj1 - National_Anthems_-_Slovakia2.mid"
      TAKEVOLPAN 0 1 -1
      SOFFS 0 0
      PLAYRATE 1 1 0 -1 0 0.0025
      CHANMODE 0
      GUID {610602D2-CAD0-2345-A60E-C6B807416B49}
      <SOURCE MIDI
        HASDATA 1 240 QN
        POOLEDEVTS {5F2EA656-F0C9-0843-B4E7-6A24E3B6CD2B}
        <X 0 0
          /wNIb2JvajE=
        >
        E 0 90 4f 50
        E 96 90 4f 00
        E 24 90 4e 50
        E 96 90 4e 00
        E 24 90 4f 50
        E 192 90 4f 00
        E 48 90 4f 50
        E 192 90 4f 00
        E 48 90 4f 50
        E 96 90 4f 00
        E 24 90 4f 50
        E 96 90 4f 00
        E 24 90 4f 50
        E 96 90 4f 00
        E 24 90 4f 50
        E 96 90 4f 00
        E 24 90 4e 50
        E 96 90 4e 00
        E 24 90 4f 50
        E 96 90 4f 00
        E 24 90 4e 50
        E 192 90 4e 00
        E 48 90 4f 50
        E 192 90 4f 00
        E 48 90 4b 50
        E 96 90 4b 00
        E 24 90 4d 50
        E 96 90 4d 00
        E 24 90 4d 50
        E 192 90 4d 00
        E 48 90 4d 50
        E 192 90 4d 00
        E 48 90 4d 50
        E 96 90 4d 00
        E 24 90 4f 50
        E 96 90 4f 00
        E 24 90 4f 50
        E 96 90 4f 00
        E 24 90 4d 50
        E 96 90 4d 00
        E 24 90 4d 50
        E 96 90 4d 00
        E 24 90 4d 50
        E 96 90 4d 00
        E 24 90 4d 50
        E 192 90 4d 00
        E 48 90 4d 50
        E 192 90 4d 00
        E 48 90 4d 50
        E 96 90 4d 00
        E 24 90 4d 50
        E 96 90 4d 00
        E 24 90 4d 50
        E 192 90 4d 00
        E 48 90 4d 50
        E 192 90 4d 00
        E 48 90 51 50
        E 96 90 51 00
        E 24 90 4f 50
        E 96 90 4f 00
        E 24 90 4e 50
        E 96 90 4e 00
        E 24 90 4e 50
        E 96 90 4e 00
        E 24 90 4a 50
        E 192 90 4a 00
        E 48 90 4a 50
        E 192 90 4a 00
        E 48 90 4a 50
        E 96 90 4a 00
        E 24 90 4a 50
        E 96 90 4a 00
        E 24 90 4b 50
        E 96 90 4b 00
        E 24 90 4a 50
        E 96 90 4a 00
        E 24 90 4a 50
        E 96 90 4a 00
        E 24 90 4a 50
        E 96 90 4a 00
        E 24 90 4a 50
        E 192 90 4a 00
        E 48 90 4a 50
        E 192 90 4a 00
        E 48 90 4d 50
        E 96 90 4d 00
        E 24 90 4d 50
        E 96 90 4d 00
        E 24 90 4d 50
        E 192 90 4d 00
        E 48 90 4d 50
        E 192 90 4d 00
        E 48 90 51 50
        E 96 90 51 00
        E 24 90 4f 50
        E 96 90 4f 00
        E 24 90 4e 50
        E 96 90 4e 00
        E 24 90 4e 50
        E 96 90 4e 00
        E 24 90 4a 50
        E 192 90 4a 00
        E 48 90 4a 50
        E 192 90 4a 00
        E 48 90 4a 50
        E 96 90 4a 00
        E 24 90 4a 50
        E 96 90 4a 00
        E 24 90 4b 50
        E 96 90 4b 00
        E 24 90 4a 50
        E 96 90 4a 00
        E 24 90 4a 50
        E 96 90 4a 00
        E 24 90 4a 50
        E 96 90 4a 00
        E 24 90 4a 50
        E 192 90 4a 00
        E 48 90 4a 50
        E 192 90 4a 00
        E 48 90 4f 50
        E 96 90 4f 00
        E 24 90 4e 50
        E 96 90 4e 00
        E 24 90 4f 50
        E 192 90 4f 00
        E 48 90 4f 50
        E 192 90 4f 00
        E 48 90 4f 50
        E 96 90 4f 00
        E 24 90 4f 50
        E 96 90 4f 00
        E 24 90 4f 50
        E 96 90 4f 00
        E 24 90 4f 50
        E 96 90 4f 00
        E 24 90 4e 50
        E 96 90 4e 00
        E 24 90 4f 50
        E 96 90 4f 00
        E 24 90 4e 50
        E 192 90 4e 00
        E 48 90 4f 50
        E 192 90 4f 00
        E 48 90 4b 50
        E 96 90 4b 00
        E 24 90 4d 50
        E 96 90 4d 00
        E 24 90 4d 50
        E 192 90 4d 00
        E 48 90 4d 50
        E 192 90 4d 00
        E 48 90 4d 50
        E 96 90 4d 00
        E 24 90 4f 50
        E 96 90 4f 00
        E 24 90 4f 50
        E 96 90 4f 00
        E 24 90 4d 50
        E 96 90 4d 00
        E 24 90 4d 50
        E 96 90 4d 00
        E 24 90 4d 50
        E 96 90 4d 00
        E 24 90 4d 50
        E 192 90 4d 00
        E 48 90 4d 50
        E 192 90 4d 00
        E 48 90 4d 50
        E 96 90 4d 00
        E 24 90 4d 50
        E 96 90 4d 00
        E 24 90 4d 50
        E 192 90 4d 00
        E 48 90 4d 50
        E 192 90 4d 00
        E 48 90 51 50
        E 96 90 51 00
        E 24 90 4f 50
        E 96 90 4f 00
        E 24 90 4e 50
        E 96 90 4e 00
        E 24 90 4e 50
        E 96 90 4e 00
        E 24 90 4a 50
        E 192 90 4a 00
        E 48 90 4a 50
        E 192 90 4a 00
        E 48 90 4a 50
        E 96 90 4a 00
        E 24 90 4a 50
        E 96 90 4a 00
        E 24 90 4b 50
        E 96 90 4b 00
        E 24 90 4a 50
        E 96 90 4a 00
        E 24 90 4a 50
        E 96 90 4a 00
        E 24 90 4a 50
        E 96 90 4a 00
        E 24 90 4a 50
        E 192 90 4a 00
        E 48 90 4a 50
        E 192 90 4a 00
        E 48 90 4d 50
        E 96 90 4d 00
        E 24 90 4d 50
        E 96 90 4d 00
        E 24 90 4d 50
        E 192 90 4d 00
        E 48 90 4d 50
        E 192 90 4d 00
        E 48 90 51 50
        E 96 90 51 00
        E 24 90 4f 50
        E 96 90 4f 00
        E 24 90 4e 50
        E 96 90 4e 00
        E 24 90 4e 50
        E 96 90 4e 00
        E 24 90 4a 50
        E 192 90 4a 00
        E 48 90 4a 50
        E 192 90 4a 00
        E 48 90 4a 50
        E 96 90 4a 00
        E 24 90 4a 50
        E 96 90 4a 00
        E 24 90 4b 50
        E 96 90 4b 00
        E 24 90 4a 50
        E 96 90 4a 00
        E 24 90 4a 50
        E 96 90 4a 00
        E 24 90 4b 50
        E 96 90 4b 00
        E 24 90 4a 50
        E 192 90 4a 00
        E 48 90 48 50
        E 192 90 48 00
        E 48 90 46 50
        E 598 90 46 00
        E 122 b0 7b 00
        GUID {E35522C3-1C0D-2C40-804A-DA8AB46E1177}
        IGNTEMPO 0 120 4 4
        SRCCOLOR 257
        VELLANE -1 86 6
        CFGEDITVIEW 0 0 45 16 0 0 0 0 0
        KEYSNAP 0 3 102304056070 0 "Natural minor"
        TRACKSEL 252 0 0 ""
        EVTFILTER 0 -1 -1 -1 -1 0 0 0 0 -1 -1 -1 -1 0 -1 0 -1 -1
        CFGEDIT 1 0 0 0 0 0 1 0 1 1 1 0.25 413 148 1280 633 0 0 2 3 0 0 0 0 0 -1 0 0 1 64
      >
    >
  >
  <TRACK {F23F8223-271A-294D-A229-F474D58B7A97}
    NAME "vst Gladiator"
    PEAKCOL 27222112
    BEAT -1
    AUTOMODE 0
    VOLPAN 1 0 -1 -1 1
    MUTESOLO 0 0 0
    IPHASE 0
    ISBUS 0 0
    BUSCOMP 2 0
    SHOWINMIX 1 0.6667 0.698113 1 0.5 -1 -1 -1
    FREEMODE 0
    SEL 1
    REC 0 0 0 0 0 0 0
    VU 2
    TRACKHEIGHT 0 0
    INQ 0 0 0 0.5 100 0 0 100
    NCHAN 2
    FX 1
    TRACKID {F23F8223-271A-294D-A229-F474D58B7A97}
    PERF 0
    MIDIOUT -1
    MAINSEND 1 0
    <FXCHAIN
      SHOW 0
      LASTSEL 0
      DOCKED 0
      BYPASS 0 0 0
      <VST "VSTi: Gladiator (Tone2.com)" Gladiator.vst 0 ""
        TEcyVO5e7f4AAAAAAgAAAAEAAAAAAAAAAgAAAAAAAABaBAAAAQAAAAAAEABDY25LAAAAYEZ4Q2sAAAABVDJHTAAAAAEAAAEHSW5pdAAAAAAAAAAAAAAAAAAAAAAAAAAA
        AAAAAD3MzM08zMzNPDQ5WD24UfQ9edsjP4AAADvEm6Y9vnbJP4AAADvEm6YAAAAAPqZmZj49cKQ/gAAAPsUeuT8AAAA/AAAAAAAAAD1987Y90OVgPLxqfz9FHrgAAAAA
        P4AAADw0OVg9kWhzPvXCjztEm6Y9uFHoPr1wpD49cKQ/gAAAPwAAAD8D1ws/AAAAAAAAAAAAAAA/AAAAPwAAAD8AAAA+2ZmaPwAAAAAAAAA75WBCPbhR6wAAAAA+TbXE
        O0Sbpj9LhR4AAAAAAAAAAD7rhSA+lHrhPWFHsD7PXCg/HrhSPj1wpj8AAAA/AAAAAAAAAAAAAAA/AAAAAAAAAAAAAAA/gAAAP4AAAAAAAAA/EeuFPwAAAD8AAAA/AAAA
        PwAAAAAAAAA/AAAAPwAAAD8AAAAAAAAAPwAAAD8AAAA/AAAAAAAAADqDEm8/UKPXAAAAAD+AAAAAAAAAOoMSbz8AAAAAAAAAAAAAAAAAAAA/AAAAAAAAAD+AAAAAAAAA
        P4AAAAAAAAA/AAAAPwAAAD8AAAA/AAAAPwAAAD8AAAA/AAAAPwAAAD8AAAA/AAAAPwAAAD8R64Y8o9cKOoMSbzxEm6YAAAAAAAAAAAAAAAA8vGp/AAAAAAAAAAAAAAAA
        AAAAAAAAAAAAAAAAAAAAAAAAAAAAAAAAAAAAAAAAAAAAAAAAAAAAAAAAAAAAAAAAAAAAADwTdLwAAAAAPDQ5WAAAAAA8E3S8AAAAADw0OVgAAAAAPBN0vAAAAAA8NDlY
        AAAAADwTdLwAAAAAPDQ5WAAAAAA8ZWBCPYcrAjxlYEI7AxJvPYk3TDsDEm88tDlYPItDljyTdLw9VP30PReNUDzMzM0+gAAAP3LCNT8AAAA/Uae5PzCNPj8csI0AAAAA
        OwMSbzqDEm8AAAAAAAAAAAAAAAA/AAAAOoMSbztEm6Y/gAAAAAAAAD+AAAAAAAAAP4AAAAAAAAAAAAAAAAAAAAAAAAA/gAAAAAAAAD8AAAAAAAAAPwAAAD8FHrg/AAAA
        P4AAAD8AAAA/AAAAPwAAAD+AAAA/gAAAAAAAAAAAAAAAAAAAPwAAAD+AAAA/AAAAAAAAAD69cKQAAAAAAAAAAD+AAAA/gAAAPyPXCj+AAAAAAAAAAAAAAD+AAAA/AAAA
        AAAAAAAAAAAAAAAAAAAAAAAAAAAAAAAAAAAAAAAAAAAAAAAAAAAAAAAAAAAAAAAAPwAAAD8AAAA/AAAAPwAAAD8AAAA/AAAAAAAAAAAAAAA/gAAAAAAAAAAAAAAAAAAA
        AAAAAAAAAAAAAAAAAAAAAAAAAAAAAAAAAAAAAAAAAAAAAAAAAAAAAAAAAAAAAAAAAAAAAAAAAAAAAAAAAAAAAAAAAAAAAAAAAAAAAAAAAAAAAAAAAAAAAAAAAAAAAAAA
        AACqq6ytAAAQAAAA
      >
      FLOATPOS 500 379 987 799
      FXID {532372E3-5B0D-9345-A9C8-98A8EBAF9A7E}
      WAK 0
    >
    <ITEM
      POSITION 0
      SNAPOFFS 0
      LENGTH 41.5
      LOOP 1
      ALLTAKES 0
      FADEIN 1 0 0 1 0 0
      FADEOUT 1 0 0 1 0 0
      MUTE 0
      SEL 1
      YPOS 0.415468 0.05
      IGUID {49E6AECD-6D3D-DA42-9463-760354039E52}
      IID 3
      NAME "Flauta2 - National_Anthems_-_Slovakia2.mid"
      VOLPAN 1 0 1 -1
      SOFFS 0 0
      PLAYRATE 1 1 0 -1 0 0.0025
      CHANMODE 0
      TAKECOLOR 26173599
      GUID {66AAEDE7-E898-E640-ABA3-94564EAD528A}
      <SOURCE MIDI
        HASDATA 1 240 QN
        POOLEDEVTS {25CAB3AB-477C-854F-9190-D71DB3E69B68}
        <X 0 0
          /wNGbGF1dGEy
        >
        E 0 90 4f 50
        E 96 90 4f 00
        E 24 90 4e 50
        E 96 90 4e 00
        E 24 90 4f 50
        E 192 90 4f 00
        E 48 90 4f 50
        E 192 90 4f 00
        E 48 90 4f 50
        E 96 90 4f 00
        E 24 90 4f 50
        E 96 90 4f 00
        E 24 90 4f 50
        E 96 90 4f 00
        E 24 90 4f 50
        E 96 90 4f 00
        E 24 90 4e 50
        E 96 90 4e 00
        E 24 90 4f 50
        E 96 90 4f 00
        E 24 90 4e 50
        E 192 90 4e 00
        E 48 90 4f 50
        E 192 90 4f 00
        E 48 90 52 50
        E 96 90 52 00
        E 24 90 51 50
        E 96 90 51 00
        E 24 90 52 50
        E 192 90 52 00
        E 48 90 52 50
        E 192 90 52 00
        E 48 90 52 50
        E 96 90 52 00
        E 24 90 52 50
        E 96 90 52 00
        E 24 90 52 50
        E 96 90 52 00
        E 24 90 52 50
        E 96 90 52 00
        E 24 90 51 50
        E 96 90 51 00
        E 24 90 52 50
        E 96 90 52 00
        E 24 90 51 50
        E 192 90 51 00
        E 48 90 52 50
        E 192 90 52 00
        E 48 90 52 50
        E 96 90 52 00
        E 24 90 52 50
        E 96 90 52 00
        E 24 90 52 50
        E 192 90 52 00
        E 48 90 51 50
        E 192 90 51 00
        E 48 90 51 50
        E 96 90 51 00
        E 24 90 51 50
        E 96 90 51 00
        E 24 90 51 50
        E 96 90 51 00
        E 24 90 51 50
        E 96 90 51 00
        E 24 90 51 50
        E 192 90 51 00
        E 48 90 4f 50
        E 192 90 4f 00
        E 48 90 4f 50
        E 96 90 4f 00
        E 24 90 4f 50
        E 96 90 4f 00
        E 24 90 4f 50
        E 96 90 4f 00
        E 24 90 4f 50
        E 96 90 4f 00
        E 24 90 4e 50
        E 96 90 4e 00
        E 24 90 4f 50
        E 96 90 4f 00
        E 24 90 4e 50
        E 192 90 4e 00
        E 48 90 4f 50
        E 192 90 4f 00
        E 48 90 52 50
        E 96 90 52 00
        E 24 90 52 50
        E 96 90 52 00
        E 24 90 52 50
        E 192 90 52 00
        E 48 90 51 50
        E 192 90 51 00
        E 48 90 51 50
        E 96 90 51 00
        E 24 90 51 50
        E 96 90 51 00
        E 24 90 51 50
        E 96 90 51 00
        E 24 90 51 50
        E 96 90 51 00
        E 24 90 51 50
        E 192 90 51 00
        E 48 90 4f 50
        E 192 90 4f 00
        E 48 90 4f 50
        E 96 90 4f 00
        E 24 90 4f 50
        E 96 90 4f 00
        E 24 90 4f 50
        E 96 90 4f 00
        E 24 90 4f 50
        E 96 90 4f 00
        E 24 90 4e 50
        E 96 90 4e 00
        E 24 90 4f 50
        E 96 90 4f 00
        E 24 90 4e 50
        E 192 90 4e 00
        E 48 90 4f 50
        E 192 90 4f 00
        E 48 90 4f 50
        E 96 90 4f 00
        E 24 90 4e 50
        E 96 90 4e 00
        E 24 90 4f 50
        E 192 90 4f 00
        E 48 90 4f 50
        E 192 90 4f 00
        E 48 90 4f 50
        E 96 90 4f 00
        E 24 90 4f 50
        E 96 90 4f 00
        E 24 90 4f 50
        E 96 90 4f 00
        E 24 90 4f 50
        E 96 90 4f 00
        E 24 90 4e 50
        E 96 90 4e 00
        E 24 90 4f 50
        E 96 90 4f 00
        E 24 90 4e 50
        E 192 90 4e 00
        E 48 90 4f 50
        E 192 90 4f 00
        E 48 90 52 50
        E 96 90 52 00
        E 24 90 51 50
        E 96 90 51 00
        E 24 90 52 50
        E 192 90 52 00
        E 48 90 52 50
        E 192 90 52 00
        E 48 90 52 50
        E 96 90 52 00
        E 24 90 52 50
        E 96 90 52 00
        E 24 90 52 50
        E 96 90 52 00
        E 24 90 52 50
        E 96 90 52 00
        E 24 90 51 50
        E 96 90 51 00
        E 24 90 52 50
        E 96 90 52 00
        E 24 90 51 50
        E 192 90 51 00
        E 48 90 52 50
        E 192 90 52 00
        E 48 90 52 50
        E 96 90 52 00
        E 24 90 52 50
        E 96 90 52 00
        E 24 90 52 50
        E 192 90 52 00
        E 48 90 51 50
        E 192 90 51 00
        E 48 90 51 50
        E 96 90 51 00
        E 24 90 51 50
        E 96 90 51 00
        E 24 90 51 50
        E 96 90 51 00
        E 24 90 51 50
        E 96 90 51 00
        E 24 90 51 50
        E 192 90 51 00
        E 48 90 4f 50
        E 192 90 4f 00
        E 48 90 4f 50
        E 96 90 4f 00
        E 24 90 4f 50
        E 96 90 4f 00
        E 24 90 4f 50
        E 96 90 4f 00
        E 24 90 4f 50
        E 96 90 4f 00
        E 24 90 4e 50
        E 96 90 4e 00
        E 24 90 4f 50
        E 96 90 4f 00
        E 24 90 4e 50
        E 192 90 4e 00
        E 48 90 4f 50
        E 192 90 4f 00
        E 48 90 52 50
        E 96 90 52 00
        E 24 90 52 50
        E 96 90 52 00
        E 24 90 52 50
        E 192 90 52 00
        E 48 90 51 50
        E 192 90 51 00
        E 48 90 51 50
        E 96 90 51 00
        E 24 90 51 50
        E 96 90 51 00
        E 24 90 51 50
        E 96 90 51 00
        E 24 90 51 50
        E 96 90 51 00
        E 24 90 51 50
        E 192 90 51 00
        E 48 90 4f 50
        E 192 90 4f 00
        E 48 90 4f 50
        E 96 90 4f 00
        E 24 90 4f 50
        E 96 90 4f 00
        E 24 90 4f 50
        E 96 90 4f 00
        E 24 90 4f 50
        E 96 90 4f 00
        E 24 90 4e 50
        E 96 90 4e 00
        E 24 90 4f 50
        E 96 90 4f 00
        E 24 90 4e 50
        E 384 90 4e 00
        E 96 90 4f 50
        E 598 90 4f 00
        E 122 b0 7b 00
        GUID {2C66DFBC-5CC5-C947-B09A-B59DA6CF287F}
        IGNTEMPO 0 120 4 4
        SRCCOLOR 237
        VELLANE -1 86 6
        CFGEDITVIEW 8580.611062 90.377764 45 16 0 0 0 0 0
        KEYSNAP 0 3 102304056070 0 "Natural minor"
        TRACKSEL 252 0 0 ""
        EVTFILTER 0 -1 -1 -1 -1 0 0 0 0 -1 -1 -1 -1 0 -1 0 -1 -1
        CFGEDIT 1 0 0 0 0 0 1 0 1 1 1 0.25 413 148 1280 633 0 0 2 3 0 0 0 0 0 -1 0 0 1 64
      >
      TAKE
      NAME "Flauta2 - National_Anthems_-_Slovakia2.mid"
      TAKEVOLPAN 0 1 -1
      SOFFS 0 0
      PLAYRATE 1 1 0 -1 0 0.0025
      CHANMODE 0
      GUID {7245E1A9-FFBD-8C4A-849F-539C8CFB1B6B}
      <SOURCE MIDI
        HASDATA 1 240 QN
        POOLEDEVTS {832C9F2E-1B75-D041-9B6C-DB7D5302E75B}
        <X 0 0
          /wNGbGF1dGEy
        >
        E 0 90 4f 50
        E 96 90 4f 00
        E 24 90 4e 50
        E 96 90 4e 00
        E 24 90 4f 50
        E 192 90 4f 00
        E 48 90 4f 50
        E 192 90 4f 00
        E 48 90 4f 50
        E 96 90 4f 00
        E 24 90 4f 50
        E 96 90 4f 00
        E 24 90 4f 50
        E 96 90 4f 00
        E 24 90 4f 50
        E 96 90 4f 00
        E 24 90 4e 50
        E 96 90 4e 00
        E 24 90 4f 50
        E 96 90 4f 00
        E 24 90 4e 50
        E 192 90 4e 00
        E 48 90 4f 50
        E 192 90 4f 00
        E 48 90 52 50
        E 96 90 52 00
        E 24 90 51 50
        E 96 90 51 00
        E 24 90 52 50
        E 192 90 52 00
        E 48 90 52 50
        E 192 90 52 00
        E 48 90 52 50
        E 96 90 52 00
        E 24 90 52 50
        E 96 90 52 00
        E 24 90 52 50
        E 96 90 52 00
        E 24 90 52 50
        E 96 90 52 00
        E 24 90 51 50
        E 96 90 51 00
        E 24 90 52 50
        E 96 90 52 00
        E 24 90 51 50
        E 192 90 51 00
        E 48 90 52 50
        E 192 90 52 00
        E 48 90 52 50
        E 96 90 52 00
        E 24 90 52 50
        E 96 90 52 00
        E 24 90 52 50
        E 192 90 52 00
        E 48 90 51 50
        E 192 90 51 00
        E 48 90 51 50
        E 96 90 51 00
        E 24 90 51 50
        E 96 90 51 00
        E 24 90 51 50
        E 96 90 51 00
        E 24 90 51 50
        E 96 90 51 00
        E 24 90 51 50
        E 192 90 51 00
        E 48 90 4f 50
        E 192 90 4f 00
        E 48 90 4f 50
        E 96 90 4f 00
        E 24 90 4f 50
        E 96 90 4f 00
        E 24 90 4f 50
        E 96 90 4f 00
        E 24 90 4f 50
        E 96 90 4f 00
        E 24 90 4e 50
        E 96 90 4e 00
        E 24 90 4f 50
        E 96 90 4f 00
        E 24 90 4e 50
        E 192 90 4e 00
        E 48 90 4f 50
        E 192 90 4f 00
        E 48 90 52 50
        E 96 90 52 00
        E 24 90 52 50
        E 96 90 52 00
        E 24 90 52 50
        E 192 90 52 00
        E 48 90 51 50
        E 192 90 51 00
        E 48 90 51 50
        E 96 90 51 00
        E 24 90 51 50
        E 96 90 51 00
        E 24 90 51 50
        E 96 90 51 00
        E 24 90 51 50
        E 96 90 51 00
        E 24 90 51 50
        E 192 90 51 00
        E 48 90 4f 50
        E 192 90 4f 00
        E 48 90 4f 50
        E 96 90 4f 00
        E 24 90 4f 50
        E 96 90 4f 00
        E 24 90 4f 50
        E 96 90 4f 00
        E 24 90 4f 50
        E 96 90 4f 00
        E 24 90 4e 50
        E 96 90 4e 00
        E 24 90 4f 50
        E 96 90 4f 00
        E 24 90 4e 50
        E 192 90 4e 00
        E 48 90 4f 50
        E 192 90 4f 00
        E 48 90 4f 50
        E 96 90 4f 00
        E 24 90 4e 50
        E 96 90 4e 00
        E 24 90 4f 50
        E 192 90 4f 00
        E 48 90 4f 50
        E 192 90 4f 00
        E 48 90 4f 50
        E 96 90 4f 00
        E 24 90 4f 50
        E 96 90 4f 00
        E 24 90 4f 50
        E 96 90 4f 00
        E 24 90 4f 50
        E 96 90 4f 00
        E 24 90 4e 50
        E 96 90 4e 00
        E 24 90 4f 50
        E 96 90 4f 00
        E 24 90 4e 50
        E 192 90 4e 00
        E 48 90 4f 50
        E 192 90 4f 00
        E 48 90 52 50
        E 96 90 52 00
        E 24 90 51 50
        E 96 90 51 00
        E 24 90 52 50
        E 192 90 52 00
        E 48 90 52 50
        E 192 90 52 00
        E 48 90 52 50
        E 96 90 52 00
        E 24 90 52 50
        E 96 90 52 00
        E 24 90 52 50
        E 96 90 52 00
        E 24 90 52 50
        E 96 90 52 00
        E 24 90 51 50
        E 96 90 51 00
        E 24 90 52 50
        E 96 90 52 00
        E 24 90 51 50
        E 192 90 51 00
        E 48 90 52 50
        E 192 90 52 00
        E 48 90 52 50
        E 96 90 52 00
        E 24 90 52 50
        E 96 90 52 00
        E 24 90 52 50
        E 192 90 52 00
        E 48 90 51 50
        E 192 90 51 00
        E 48 90 51 50
        E 96 90 51 00
        E 24 90 51 50
        E 96 90 51 00
        E 24 90 51 50
        E 96 90 51 00
        E 24 90 51 50
        E 96 90 51 00
        E 24 90 51 50
        E 192 90 51 00
        E 48 90 4f 50
        E 192 90 4f 00
        E 48 90 4f 50
        E 96 90 4f 00
        E 24 90 4f 50
        E 96 90 4f 00
        E 24 90 4f 50
        E 96 90 4f 00
        E 24 90 4f 50
        E 96 90 4f 00
        E 24 90 4e 50
        E 96 90 4e 00
        E 24 90 4f 50
        E 96 90 4f 00
        E 24 90 4e 50
        E 192 90 4e 00
        E 48 90 4f 50
        E 192 90 4f 00
        E 48 90 52 50
        E 96 90 52 00
        E 24 90 52 50
        E 96 90 52 00
        E 24 90 52 50
        E 192 90 52 00
        E 48 90 51 50
        E 192 90 51 00
        E 48 90 51 50
        E 96 90 51 00
        E 24 90 51 50
        E 96 90 51 00
        E 24 90 51 50
        E 96 90 51 00
        E 24 90 51 50
        E 96 90 51 00
        E 24 90 51 50
        E 192 90 51 00
        E 48 90 4f 50
        E 192 90 4f 00
        E 48 90 4f 50
        E 96 90 4f 00
        E 24 90 4f 50
        E 96 90 4f 00
        E 24 90 4f 50
        E 96 90 4f 00
        E 24 90 4f 50
        E 96 90 4f 00
        E 24 90 4e 50
        E 96 90 4e 00
        E 24 90 4f 50
        E 96 90 4f 00
        E 24 90 4e 50
        E 384 90 4e 00
        E 96 90 4f 50
        E 598 90 4f 00
        E 122 b0 7b 00
        GUID {B42C83F3-4B7B-3C4B-831F-3586F412CD67}
        IGNTEMPO 0 120 4 4
        SRCCOLOR 253
        VELLANE -1 86 6
        CFGEDITVIEW 0 0 45 16 0 0 0 0 0
        KEYSNAP 0 3 102304056070 0 "Natural minor"
        TRACKSEL 252 0 0 ""
        EVTFILTER 0 -1 -1 -1 -1 0 0 0 0 -1 -1 -1 -1 0 -1 0 -1 -1
        CFGEDIT 1 0 0 0 0 0 1 0 1 1 1 0.25 413 148 1280 633 0 0 2 3 0 0 0 0 0 -1 0 0 1 64
      >
    >
    <ITEM
      POSITION 0
      SNAPOFFS 0
      LENGTH 41.5
      LOOP 1
      ALLTAKES 0
      FADEIN 1 0 0 1 0 0
      FADEOUT 1 0 0 1 0 0
      MUTE 0
      SEL 1
      YPOS 0.553957 0.05
      IGUID {B0AB5E71-2B03-F14D-8A97-C15905817A5B}
      IID 5
      NAME "Hoboj2 - National_Anthems_-_Slovakia2.mid"
      VOLPAN 1 0 1 -1
      SOFFS 0 0
      PLAYRATE 1 1 0 -1 0 0.0025
      CHANMODE 0
      TAKECOLOR 26173599
      GUID {5CCD8EC9-6374-144E-8B85-64C485BC96FE}
      <SOURCE MIDI
        HASDATA 1 240 QN
        POOLEDEVTS {C9428DA3-73F4-0642-975A-D2A744248D4C}
        <X 0 0
          /wNIb2JvajI=
        >
        E 0 90 4f 50
        E 96 90 4f 00
        E 24 90 4a 50
        E 96 90 4a 00
        E 24 90 4a 50
        E 192 90 4a 00
        E 48 90 4a 50
        E 192 90 4a 00
        E 48 90 4b 50
        E 96 90 4b 00
        E 24 90 4a 50
        E 96 90 4a 00
        E 24 90 4b 50
        E 96 90 4b 00
        E 24 90 4a 50
        E 96 90 4a 00
        E 24 90 4a 50
        E 96 90 4a 00
        E 24 90 4a 50
        E 96 90 4a 00
        E 24 90 4a 50
        E 192 90 4a 00
        E 48 90 46 50
        E 192 90 46 00
        E 48 90 4b 50
        E 96 90 4b 00
        E 24 90 48 50
        E 96 90 48 00
        E 24 90 4a 50
        E 192 90 4a 00
        E 48 90 4a 50
        E 192 90 4a 00
        E 48 90 4a 50
        E 96 90 4a 00
        E 24 90 4a 50
        E 96 90 4a 00
        E 24 90 48 50
        E 96 90 48 00
        E 24 90 4a 50
        E 96 90 4a 00
        E 24 90 4b 50
        E 96 90 4b 00
        E 24 90 4a 50
        E 96 90 4a 00
        E 24 90 48 50
        E 192 90 48 00
        E 48 90 4a 50
        E 192 90 4a 00
        E 48 90 4a 50
        E 96 90 4a 00
        E 24 90 4a 50
        E 96 90 4a 00
        E 24 90 4a 50
        E 192 90 4a 00
        E 48 90 48 50
        E 192 90 48 00
        E 48 90 4d 50
        E 96 90 4d 00
        E 24 90 4b 50
        E 96 90 4b 00
        E 24 90 4a 50
        E 96 90 4a 00
        E 24 90 45 50
        E 96 90 45 00
        E 24 90 45 50
        E 192 90 45 00
        E 48 90 46 50
        E 192 90 46 00
        E 48 90 46 50
        E 96 90 46 00
        E 24 90 46 50
        E 96 90 46 00
        E 24 90 45 50
        E 96 90 45 00
        E 24 90 46 50
        E 96 90 46 00
        E 24 90 48 50
        E 96 90 48 00
        E 24 90 46 50
        E 96 90 46 00
        E 24 90 45 50
        E 192 90 45 00
        E 48 90 46 50
        E 192 90 46 00
        E 48 90 4a 50
        E 96 90 4a 00
        E 24 90 4a 50
        E 96 90 4a 00
        E 24 90 4a 50
        E 192 90 4a 00
        E 48 90 48 50
        E 192 90 48 00
        E 48 90 4d 50
        E 96 90 4d 00
        E 24 90 4b 50
        E 96 90 4b 00
        E 24 90 4a 50
        E 96 90 4a 00
        E 24 90 45 50
        E 96 90 45 00
        E 24 90 45 50
        E 192 90 45 00
        E 48 90 46 50
        E 192 90 46 00
        E 48 90 46 50
        E 96 90 46 00
        E 24 90 46 50
        E 96 90 46 00
        E 24 90 45 50
        E 96 90 45 00
        E 24 90 46 50
        E 96 90 46 00
        E 24 90 48 50
        E 96 90 48 00
        E 24 90 46 50
        E 96 90 46 00
        E 24 90 45 50
        E 192 90 45 00
        E 48 90 46 50
        E 192 90 46 00
        E 48 90 4f 50
        E 96 90 4f 00
        E 24 90 4a 50
        E 96 90 4a 00
        E 24 90 4a 50
        E 192 90 4a 00
        E 48 90 4a 50
        E 192 90 4a 00
        E 48 90 4b 50
        E 96 90 4b 00
        E 24 90 4a 50
        E 96 90 4a 00
        E 24 90 4b 50
        E 96 90 4b 00
        E 24 90 4a 50
        E 96 90 4a 00
        E 24 90 4a 50
        E 96 90 4a 00
        E 24 90 4a 50
        E 96 90 4a 00
        E 24 90 4a 50
        E 192 90 4a 00
        E 48 90 46 50
        E 192 90 46 00
        E 48 90 4b 50
        E 96 90 4b 00
        E 24 90 48 50
        E 96 90 48 00
        E 24 90 4a 50
        E 192 90 4a 00
        E 48 90 4a 50
        E 192 90 4a 00
        E 48 90 4a 50
        E 96 90 4a 00
        E 24 90 4a 50
        E 96 90 4a 00
        E 24 90 48 50
        E 96 90 48 00
        E 24 90 4a 50
        E 96 90 4a 00
        E 24 90 4b 50
        E 96 90 4b 00
        E 24 90 4a 50
        E 96 90 4a 00
        E 24 90 48 50
        E 192 90 48 00
        E 48 90 4a 50
        E 192 90 4a 00
        E 48 90 4a 50
        E 96 90 4a 00
        E 24 90 4a 50
        E 96 90 4a 00
        E 24 90 4a 50
        E 192 90 4a 00
        E 48 90 48 50
        E 192 90 48 00
        E 48 90 4d 50
        E 96 90 4d 00
        E 24 90 4b 50
        E 96 90 4b 00
        E 24 90 4a 50
        E 96 90 4a 00
        E 24 90 45 50
        E 96 90 45 00
        E 24 90 45 50
        E 192 90 45 00
        E 48 90 46 50
        E 192 90 46 00
        E 48 90 46 50
        E 96 90 46 00
        E 24 90 46 50
        E 96 90 46 00
        E 24 90 45 50
        E 96 90 45 00
        E 24 90 46 50
        E 96 90 46 00
        E 24 90 48 50
        E 96 90 48 00
        E 24 90 46 50
        E 96 90 46 00
        E 24 90 45 50
        E 192 90 45 00
        E 48 90 46 50
        E 192 90 46 00
        E 48 90 4a 50
        E 96 90 4a 00
        E 24 90 4a 50
        E 96 90 4a 00
        E 24 90 4a 50
        E 192 90 4a 00
        E 48 90 48 50
        E 192 90 48 00
        E 48 90 4d 50
        E 96 90 4d 00
        E 24 90 4b 50
        E 96 90 4b 00
        E 24 90 4a 50
        E 96 90 4a 00
        E 24 90 45 50
        E 96 90 45 00
        E 24 90 45 50
        E 192 90 45 00
        E 48 90 46 50
        E 192 90 46 00
        E 48 90 46 50
        E 96 90 46 00
        E 24 90 46 50
        E 96 90 46 00
        E 24 90 45 50
        E 96 90 45 00
        E 24 90 46 50
        E 96 90 46 00
        E 24 90 48 50
        E 96 90 48 00
        E 24 90 46 50
        E 96 90 46 00
        E 24 90 45 50
        E 450 90 45 00
        E 30 90 43 50
        E 598 90 43 00
        E 122 b0 7b 00
        GUID {DD8E4837-F855-BD41-BEB8-C5185A427B58}
        IGNTEMPO 0 120 4 4
        SRCCOLOR 239
        VELLANE -1 86 6
        CFGEDITVIEW 7832.628972 189.863892 47 15 0 0 0 0 0
        KEYSNAP 0 3 102304056070 0 "Natural minor"
        TRACKSEL 252 0 0 ""
        EVTFILTER 0 -1 -1 -1 -1 0 0 0 0 -1 -1 -1 -1 0 -1 0 -1 -1
        CFGEDIT 1 0 0 0 0 0 1 0 1 1 1 0.25 413 148 1280 633 0 0 2 3 0 0 0 0 0 -1 0 0 1 64
      >
      TAKE
      NAME "Hoboj2 - National_Anthems_-_Slovakia2.mid"
      TAKEVOLPAN 0 1 -1
      SOFFS 0 0
      PLAYRATE 1 1 0 -1 0 0.0025
      CHANMODE 0
      GUID {609E0F02-66C3-F740-AED9-5790D6F0AA92}
      <SOURCE MIDI
        HASDATA 1 240 QN
        POOLEDEVTS {C69D714C-7ED3-4B4F-9B31-C3C5EE00AE38}
        <X 0 0
          /wNIb2JvajI=
        >
        E 0 90 4f 50
        E 96 90 4f 00
        E 24 90 4a 50
        E 96 90 4a 00
        E 24 90 4a 50
        E 192 90 4a 00
        E 48 90 4a 50
        E 192 90 4a 00
        E 48 90 4b 50
        E 96 90 4b 00
        E 24 90 4a 50
        E 96 90 4a 00
        E 24 90 4b 50
        E 96 90 4b 00
        E 24 90 4a 50
        E 96 90 4a 00
        E 24 90 4a 50
        E 96 90 4a 00
        E 24 90 4a 50
        E 96 90 4a 00
        E 24 90 4a 50
        E 192 90 4a 00
        E 48 90 46 50
        E 192 90 46 00
        E 48 90 4b 50
        E 96 90 4b 00
        E 24 90 48 50
        E 96 90 48 00
        E 24 90 4a 50
        E 192 90 4a 00
        E 48 90 4a 50
        E 192 90 4a 00
        E 48 90 4a 50
        E 96 90 4a 00
        E 24 90 4a 50
        E 96 90 4a 00
        E 24 90 48 50
        E 96 90 48 00
        E 24 90 4a 50
        E 96 90 4a 00
        E 24 90 4b 50
        E 96 90 4b 00
        E 24 90 4a 50
        E 96 90 4a 00
        E 24 90 48 50
        E 192 90 48 00
        E 48 90 4a 50
        E 192 90 4a 00
        E 48 90 4a 50
        E 96 90 4a 00
        E 24 90 4a 50
        E 96 90 4a 00
        E 24 90 4a 50
        E 192 90 4a 00
        E 48 90 48 50
        E 192 90 48 00
        E 48 90 4d 50
        E 96 90 4d 00
        E 24 90 4b 50
        E 96 90 4b 00
        E 24 90 4a 50
        E 96 90 4a 00
        E 24 90 45 50
        E 96 90 45 00
        E 24 90 45 50
        E 192 90 45 00
        E 48 90 46 50
        E 192 90 46 00
        E 48 90 46 50
        E 96 90 46 00
        E 24 90 46 50
        E 96 90 46 00
        E 24 90 45 50
        E 96 90 45 00
        E 24 90 46 50
        E 96 90 46 00
        E 24 90 48 50
        E 96 90 48 00
        E 24 90 46 50
        E 96 90 46 00
        E 24 90 45 50
        E 192 90 45 00
        E 48 90 46 50
        E 192 90 46 00
        E 48 90 4a 50
        E 96 90 4a 00
        E 24 90 4a 50
        E 96 90 4a 00
        E 24 90 4a 50
        E 192 90 4a 00
        E 48 90 48 50
        E 192 90 48 00
        E 48 90 4d 50
        E 96 90 4d 00
        E 24 90 4b 50
        E 96 90 4b 00
        E 24 90 4a 50
        E 96 90 4a 00
        E 24 90 45 50
        E 96 90 45 00
        E 24 90 45 50
        E 192 90 45 00
        E 48 90 46 50
        E 192 90 46 00
        E 48 90 46 50
        E 96 90 46 00
        E 24 90 46 50
        E 96 90 46 00
        E 24 90 45 50
        E 96 90 45 00
        E 24 90 46 50
        E 96 90 46 00
        E 24 90 48 50
        E 96 90 48 00
        E 24 90 46 50
        E 96 90 46 00
        E 24 90 45 50
        E 192 90 45 00
        E 48 90 46 50
        E 192 90 46 00
        E 48 90 4f 50
        E 96 90 4f 00
        E 24 90 4a 50
        E 96 90 4a 00
        E 24 90 4a 50
        E 192 90 4a 00
        E 48 90 4a 50
        E 192 90 4a 00
        E 48 90 4b 50
        E 96 90 4b 00
        E 24 90 4a 50
        E 96 90 4a 00
        E 24 90 4b 50
        E 96 90 4b 00
        E 24 90 4a 50
        E 96 90 4a 00
        E 24 90 4a 50
        E 96 90 4a 00
        E 24 90 4a 50
        E 96 90 4a 00
        E 24 90 4a 50
        E 192 90 4a 00
        E 48 90 46 50
        E 192 90 46 00
        E 48 90 4b 50
        E 96 90 4b 00
        E 24 90 48 50
        E 96 90 48 00
        E 24 90 4a 50
        E 192 90 4a 00
        E 48 90 4a 50
        E 192 90 4a 00
        E 48 90 4a 50
        E 96 90 4a 00
        E 24 90 4a 50
        E 96 90 4a 00
        E 24 90 48 50
        E 96 90 48 00
        E 24 90 4a 50
        E 96 90 4a 00
        E 24 90 4b 50
        E 96 90 4b 00
        E 24 90 4a 50
        E 96 90 4a 00
        E 24 90 48 50
        E 192 90 48 00
        E 48 90 4a 50
        E 192 90 4a 00
        E 48 90 4a 50
        E 96 90 4a 00
        E 24 90 4a 50
        E 96 90 4a 00
        E 24 90 4a 50
        E 192 90 4a 00
        E 48 90 48 50
        E 192 90 48 00
        E 48 90 4d 50
        E 96 90 4d 00
        E 24 90 4b 50
        E 96 90 4b 00
        E 24 90 4a 50
        E 96 90 4a 00
        E 24 90 45 50
        E 96 90 45 00
        E 24 90 45 50
        E 192 90 45 00
        E 48 90 46 50
        E 192 90 46 00
        E 48 90 46 50
        E 96 90 46 00
        E 24 90 46 50
        E 96 90 46 00
        E 24 90 45 50
        E 96 90 45 00
        E 24 90 46 50
        E 96 90 46 00
        E 24 90 48 50
        E 96 90 48 00
        E 24 90 46 50
        E 96 90 46 00
        E 24 90 45 50
        E 192 90 45 00
        E 48 90 46 50
        E 192 90 46 00
        E 48 90 4a 50
        E 96 90 4a 00
        E 24 90 4a 50
        E 96 90 4a 00
        E 24 90 4a 50
        E 192 90 4a 00
        E 48 90 48 50
        E 192 90 48 00
        E 48 90 4d 50
        E 96 90 4d 00
        E 24 90 4b 50
        E 96 90 4b 00
        E 24 90 4a 50
        E 96 90 4a 00
        E 24 90 45 50
        E 96 90 45 00
        E 24 90 45 50
        E 192 90 45 00
        E 48 90 46 50
        E 192 90 46 00
        E 48 90 46 50
        E 96 90 46 00
        E 24 90 46 50
        E 96 90 46 00
        E 24 90 45 50
        E 96 90 45 00
        E 24 90 46 50
        E 96 90 46 00
        E 24 90 48 50
        E 96 90 48 00
        E 24 90 46 50
        E 96 90 46 00
        E 24 90 45 50
        E 450 90 45 00
        E 30 90 43 50
        E 598 90 43 00
        E 122 b0 7b 00
        GUID {23908CA9-0A67-D849-9F02-12FDF9AB2E00}
        IGNTEMPO 0 120 4 4
        SRCCOLOR 254
        VELLANE -1 86 6
        CFGEDITVIEW 0 0 47 15 0 0 0 0 0
        KEYSNAP 0 3 102304056070 0 "Natural minor"
        TRACKSEL 252 0 0 ""
        EVTFILTER 0 -1 -1 -1 -1 0 0 0 0 -1 -1 -1 -1 0 -1 0 -1 -1
        CFGEDIT 1 0 0 0 0 0 1 0 1 1 1 0.25 413 148 1280 633 0 0 2 3 0 0 0 0 0 -1 0 0 1 64
      >
    >
    <ITEM
      POSITION 0
      SNAPOFFS 0
      LENGTH 41.5
      LOOP 1
      ALLTAKES 0
      FADEIN 1 0 0 1 0 0
      FADEOUT 1 0 0 1 0 0
      MUTE 0
      SEL 1
      YPOS 0.830935 0.05
      IGUID {A0ADB6BD-30A4-1446-9647-4680291FD456}
      IID 8
      NAME "Trubkab1 - National_Anthems_-_Slovakia2.mid"
      VOLPAN 1 0 1 -1
      SOFFS 0 0
      PLAYRATE 1 1 0 -1 0 0.0025
      CHANMODE 0
      TAKECOLOR 26173599
      GUID {C9275CF4-F200-2E41-AC9E-83E72FEBAF05}
      <SOURCE MIDI
        HASDATA 1 240 QN
        POOLEDEVTS {BC90BB91-2499-D541-BC45-DB3460A59EAA}
        <X 0 0
          /wNUcnVia2FiMQ==
        >
        E 0 90 3a 50
        E 96 90 3a 00
        E 24 90 3e 50
        E 96 90 3e 00
        E 24 90 3e 50
        E 192 90 3e 00
        E 48 90 3e 50
        E 192 90 3e 00
        E 48 90 43 50
        E 96 90 43 00
        E 24 90 41 50
        E 96 90 41 00
        E 24 90 3f 50
        E 96 90 3f 00
        E 24 90 3e 50
        E 96 90 3e 00
        E 24 90 3e 50
        E 96 90 3e 00
        E 24 90 3e 50
        E 96 90 3e 00
        E 24 90 3e 50
        E 192 90 3e 00
        E 48 90 3a 50
        E 192 90 3a 00
        E 48 90 3f 50
        E 96 90 3f 00
        E 24 90 41 50
        E 96 90 41 00
        E 24 90 41 50
        E 192 90 41 00
        E 48 90 41 50
        E 192 90 41 00
        E 48 90 41 50
        E 96 90 41 00
        E 24 90 43 50
        E 96 90 43 00
        E 24 90 43 50
        E 96 90 43 00
        E 24 90 41 50
        E 96 90 41 00
        E 24 90 41 50
        E 96 90 41 00
        E 24 90 41 50
        E 96 90 41 00
        E 24 90 41 50
        E 192 90 41 00
        E 48 90 41 50
        E 192 90 41 00
        E 48 90 41 50
        E 96 90 41 00
        E 24 90 41 50
        E 96 90 41 00
        E 24 90 41 50
        E 192 90 41 00
        E 48 90 41 50
        E 192 90 41 00
        E 48 90 45 50
        E 96 90 45 00
        E 24 90 43 50
        E 96 90 43 00
        E 24 90 42 50
        E 96 90 42 00
        E 24 90 42 50
        E 96 90 42 00
        E 24 90 3e 50
        E 192 90 3e 00
        E 48 90 3e 50
        E 192 90 3e 00
        E 48 90 3e 50
        E 96 90 3e 00
        E 24 90 3e 50
        E 96 90 3e 00
        E 24 90 3f 50
        E 96 90 3f 00
        E 24 90 3e 50
        E 96 90 3e 00
        E 24 90 42 50
        E 96 90 42 00
        E 24 90 43 50
        E 96 90 43 00
        E 24 90 3e 50
        E 192 90 3e 00
        E 48 90 3a 50
        E 192 90 3a 00
        E 48 90 41 50
        E 96 90 41 00
        E 24 90 41 50
        E 96 90 41 00
        E 24 90 41 50
        E 192 90 41 00
        E 48 90 41 50
        E 192 90 41 00
        E 48 90 45 50
        E 96 90 45 00
        E 24 90 43 50
        E 96 90 43 00
        E 24 90 42 50
        E 96 90 42 00
        E 24 90 42 50
        E 96 90 42 00
        E 24 90 3e 50
        E 192 90 3e 00
        E 48 90 3e 50
        E 192 90 3e 00
        E 48 90 3e 50
        E 96 90 3e 00
        E 24 90 3e 50
        E 96 90 3e 00
        E 24 90 3f 50
        E 96 90 3f 00
        E 24 90 3e 50
        E 96 90 3e 00
        E 24 90 42 50
        E 96 90 42 00
        E 24 90 43 50
        E 96 90 43 00
        E 24 90 3e 50
        E 192 90 3e 00
        E 48 90 3a 50
        E 192 90 3a 00
        E 48 90 3a 50
        E 96 90 3a 00
        E 24 90 3e 50
        E 96 90 3e 00
        E 24 90 3e 50
        E 192 90 3e 00
        E 48 90 3e 50
        E 192 90 3e 00
        E 48 90 43 50
        E 96 90 43 00
        E 24 90 41 50
        E 96 90 41 00
        E 24 90 3f 50
        E 96 90 3f 00
        E 24 90 3e 50
        E 96 90 3e 00
        E 24 90 3e 50
        E 96 90 3e 00
        E 24 90 3e 50
        E 96 90 3e 00
        E 24 90 3e 50
        E 192 90 3e 00
        E 48 90 3a 50
        E 192 90 3a 00
        E 48 90 3f 50
        E 96 90 3f 00
        E 24 90 41 50
        E 96 90 41 00
        E 24 90 41 50
        E 192 90 41 00
        E 48 90 41 50
        E 192 90 41 00
        E 48 90 41 50
        E 96 90 41 00
        E 24 90 43 50
        E 96 90 43 00
        E 24 90 43 50
        E 96 90 43 00
        E 24 90 41 50
        E 96 90 41 00
        E 24 90 41 50
        E 96 90 41 00
        E 24 90 41 50
        E 96 90 41 00
        E 24 90 41 50
        E 192 90 41 00
        E 48 90 41 50
        E 192 90 41 00
        E 48 90 41 50
        E 96 90 41 00
        E 24 90 41 50
        E 96 90 41 00
        E 24 90 41 50
        E 192 90 41 00
        E 48 90 41 50
        E 192 90 41 00
        E 48 90 45 50
        E 96 90 45 00
        E 24 90 43 50
        E 96 90 43 00
        E 24 90 42 50
        E 96 90 42 00
        E 24 90 42 50
        E 96 90 42 00
        E 24 90 3e 50
        E 192 90 3e 00
        E 48 90 3e 50
        E 192 90 3e 00
        E 48 90 3e 50
        E 96 90 3e 00
        E 24 90 3e 50
        E 96 90 3e 00
        E 24 90 3f 50
        E 96 90 3f 00
        E 24 90 3e 50
        E 96 90 3e 00
        E 24 90 42 50
        E 96 90 42 00
        E 24 90 43 50
        E 96 90 43 00
        E 24 90 3e 50
        E 192 90 3e 00
        E 48 90 3a 50
        E 192 90 3a 00
        E 48 90 41 50
        E 96 90 41 00
        E 24 90 41 50
        E 96 90 41 00
        E 24 90 41 50
        E 192 90 41 00
        E 48 90 41 50
        E 192 90 41 00
        E 48 90 45 50
        E 96 90 45 00
        E 24 90 43 50
        E 96 90 43 00
        E 24 90 42 50
        E 96 90 42 00
        E 24 90 42 50
        E 96 90 42 00
        E 24 90 3e 50
        E 192 90 3e 00
        E 48 90 3e 50
        E 192 90 3e 00
        E 48 90 3e 50
        E 96 90 3e 00
        E 24 90 3e 50
        E 96 90 3e 00
        E 24 90 3f 50
        E 96 90 3f 00
        E 24 90 3e 50
        E 96 90 3e 00
        E 24 90 42 50
        E 96 90 42 00
        E 24 90 43 50
        E 96 90 43 00
        E 24 90 42 50
        E 450 90 42 00
        E 30 90 43 50
        E 598 90 43 00
        E 122 b0 7b 00
        GUID {84A23A8F-CDAE-704E-B4EC-A0F74EA9B9E8}
        IGNTEMPO 0 120 4 4
        SRCCOLOR 242
        VELLANE -1 86 6
      >
      TAKE
      NAME "Trubkab1 - National_Anthems_-_Slovakia2.mid"
      TAKEVOLPAN 0 1 -1
      SOFFS 0 0
      PLAYRATE 1 1 0 -1 0 0.0025
      CHANMODE 0
      GUID {FE02646D-100F-C048-815E-4256A1F8A797}
      <SOURCE MIDI
        HASDATA 1 240 QN
        POOLEDEVTS {BD78486A-5590-924F-A986-696A32574DC4}
        <X 0 0
          /wNUcnVia2FiMQ==
        >
        E 0 90 3a 50
        E 96 90 3a 00
        E 24 90 3e 50
        E 96 90 3e 00
        E 24 90 3e 50
        E 192 90 3e 00
        E 48 90 3e 50
        E 192 90 3e 00
        E 48 90 43 50
        E 96 90 43 00
        E 24 90 41 50
        E 96 90 41 00
        E 24 90 3f 50
        E 96 90 3f 00
        E 24 90 3e 50
        E 96 90 3e 00
        E 24 90 3e 50
        E 96 90 3e 00
        E 24 90 3e 50
        E 96 90 3e 00
        E 24 90 3e 50
        E 192 90 3e 00
        E 48 90 3a 50
        E 192 90 3a 00
        E 48 90 3f 50
        E 96 90 3f 00
        E 24 90 41 50
        E 96 90 41 00
        E 24 90 41 50
        E 192 90 41 00
        E 48 90 41 50
        E 192 90 41 00
        E 48 90 41 50
        E 96 90 41 00
        E 24 90 43 50
        E 96 90 43 00
        E 24 90 43 50
        E 96 90 43 00
        E 24 90 41 50
        E 96 90 41 00
        E 24 90 41 50
        E 96 90 41 00
        E 24 90 41 50
        E 96 90 41 00
        E 24 90 41 50
        E 192 90 41 00
        E 48 90 41 50
        E 192 90 41 00
        E 48 90 41 50
        E 96 90 41 00
        E 24 90 41 50
        E 96 90 41 00
        E 24 90 41 50
        E 192 90 41 00
        E 48 90 41 50
        E 192 90 41 00
        E 48 90 45 50
        E 96 90 45 00
        E 24 90 43 50
        E 96 90 43 00
        E 24 90 42 50
        E 96 90 42 00
        E 24 90 42 50
        E 96 90 42 00
        E 24 90 3e 50
        E 192 90 3e 00
        E 48 90 3e 50
        E 192 90 3e 00
        E 48 90 3e 50
        E 96 90 3e 00
        E 24 90 3e 50
        E 96 90 3e 00
        E 24 90 3f 50
        E 96 90 3f 00
        E 24 90 3e 50
        E 96 90 3e 00
        E 24 90 42 50
        E 96 90 42 00
        E 24 90 43 50
        E 96 90 43 00
        E 24 90 3e 50
        E 192 90 3e 00
        E 48 90 3a 50
        E 192 90 3a 00
        E 48 90 41 50
        E 96 90 41 00
        E 24 90 41 50
        E 96 90 41 00
        E 24 90 41 50
        E 192 90 41 00
        E 48 90 41 50
        E 192 90 41 00
        E 48 90 45 50
        E 96 90 45 00
        E 24 90 43 50
        E 96 90 43 00
        E 24 90 42 50
        E 96 90 42 00
        E 24 90 42 50
        E 96 90 42 00
        E 24 90 3e 50
        E 192 90 3e 00
        E 48 90 3e 50
        E 192 90 3e 00
        E 48 90 3e 50
        E 96 90 3e 00
        E 24 90 3e 50
        E 96 90 3e 00
        E 24 90 3f 50
        E 96 90 3f 00
        E 24 90 3e 50
        E 96 90 3e 00
        E 24 90 42 50
        E 96 90 42 00
        E 24 90 43 50
        E 96 90 43 00
        E 24 90 3e 50
        E 192 90 3e 00
        E 48 90 3a 50
        E 192 90 3a 00
        E 48 90 3a 50
        E 96 90 3a 00
        E 24 90 3e 50
        E 96 90 3e 00
        E 24 90 3e 50
        E 192 90 3e 00
        E 48 90 3e 50
        E 192 90 3e 00
        E 48 90 43 50
        E 96 90 43 00
        E 24 90 41 50
        E 96 90 41 00
        E 24 90 3f 50
        E 96 90 3f 00
        E 24 90 3e 50
        E 96 90 3e 00
        E 24 90 3e 50
        E 96 90 3e 00
        E 24 90 3e 50
        E 96 90 3e 00
        E 24 90 3e 50
        E 192 90 3e 00
        E 48 90 3a 50
        E 192 90 3a 00
        E 48 90 3f 50
        E 96 90 3f 00
        E 24 90 41 50
        E 96 90 41 00
        E 24 90 41 50
        E 192 90 41 00
        E 48 90 41 50
        E 192 90 41 00
        E 48 90 41 50
        E 96 90 41 00
        E 24 90 43 50
        E 96 90 43 00
        E 24 90 43 50
        E 96 90 43 00
        E 24 90 41 50
        E 96 90 41 00
        E 24 90 41 50
        E 96 90 41 00
        E 24 90 41 50
        E 96 90 41 00
        E 24 90 41 50
        E 192 90 41 00
        E 48 90 41 50
        E 192 90 41 00
        E 48 90 41 50
        E 96 90 41 00
        E 24 90 41 50
        E 96 90 41 00
        E 24 90 41 50
        E 192 90 41 00
        E 48 90 41 50
        E 192 90 41 00
        E 48 90 45 50
        E 96 90 45 00
        E 24 90 43 50
        E 96 90 43 00
        E 24 90 42 50
        E 96 90 42 00
        E 24 90 42 50
        E 96 90 42 00
        E 24 90 3e 50
        E 192 90 3e 00
        E 48 90 3e 50
        E 192 90 3e 00
        E 48 90 3e 50
        E 96 90 3e 00
        E 24 90 3e 50
        E 96 90 3e 00
        E 24 90 3f 50
        E 96 90 3f 00
        E 24 90 3e 50
        E 96 90 3e 00
        E 24 90 42 50
        E 96 90 42 00
        E 24 90 43 50
        E 96 90 43 00
        E 24 90 3e 50
        E 192 90 3e 00
        E 48 90 3a 50
        E 192 90 3a 00
        E 48 90 41 50
        E 96 90 41 00
        E 24 90 41 50
        E 96 90 41 00
        E 24 90 41 50
        E 192 90 41 00
        E 48 90 41 50
        E 192 90 41 00
        E 48 90 45 50
        E 96 90 45 00
        E 24 90 43 50
        E 96 90 43 00
        E 24 90 42 50
        E 96 90 42 00
        E 24 90 42 50
        E 96 90 42 00
        E 24 90 3e 50
        E 192 90 3e 00
        E 48 90 3e 50
        E 192 90 3e 00
        E 48 90 3e 50
        E 96 90 3e 00
        E 24 90 3e 50
        E 96 90 3e 00
        E 24 90 3f 50
        E 96 90 3f 00
        E 24 90 3e 50
        E 96 90 3e 00
        E 24 90 42 50
        E 96 90 42 00
        E 24 90 43 50
        E 96 90 43 00
        E 24 90 42 50
        E 450 90 42 00
        E 30 90 43 50
        E 598 90 43 00
        E 122 b0 7b 00
        GUID {6BFE5646-B1D5-3F49-A1F9-C6E3AC06C117}
        IGNTEMPO 0 120 4 4
        SRCCOLOR 256
        VELLANE -1 86 6
      >
    >
  >
  <TRACK {A26B8C2D-9EE6-0440-AA6B-121F89FB50DD}
    NAME "16th pulse (mix w/ send?)"
    PEAKCOL 16576
    BEAT -1
    AUTOMODE 0
    VOLPAN 1 0 -1 -1 1
    MUTESOLO 1 0 0
    IPHASE 0
    ISBUS 0 0
    BUSCOMP 0 0
    SHOWINMIX 1 0.6667 0.698113 1 0.5 -1 -1 -1
    FREEMODE 0
    SEL 0
    REC 0 0 0 0 0 0 0
    VU 2
    TRACKHEIGHT 0 0
    INQ 0 0 0 0.5 100 0 0 100
    NCHAN 4
    FX 1
    TRACKID {A26B8C2D-9EE6-0440-AA6B-121F89FB50DD}
    PERF 0
    MIDIOUT -1
    MAINSEND 0 0
    <FXCHAIN
      WNDRECT 36 359 724 387
      SHOW 0
      LASTSEL 0
      DOCKED 0
      BYPASS 0 0 0
      <VST "VSTi: chipsounds (Plogue Art et Technologie, Inc)" chipsounds.vst 0 ""
        T0dMUO5e7f4AAAAABAAAAAEAAAAAAAAAAgAAAAAAAAAEAAAAAAAAAAgAAAAAAAAAJAMAAAEAAAAAABAAQ0VHUNMTAAB4nO1YXW+bMBR976+weNoeSmzzLSWp2qSZIi1r
        NLLnyiFuimYgA5O1+/UzJjTQpOB23aSp9Uvs6+N7fe4Fc+L+2V3EwJamWZjEAw3pUANnw5P+eRoSn2xpbcqGWBueANH6PuU8jNcZ+JETFvJ7MauBNUuWhM0TJoYG1kDG
        U0oiASuHEbnzpeWcsSSYXQw0CwnzbDqeXuV8lqyo9EJynkSEi5A+S/hAE/vJAjFjWXbRI4wIGwKngBax9SxgO/OIxpymA82G1VYWeSyjQx3KpoFetX/hGoQr6T0mES1c
        6mCepxSMbsNNz5+Oe7blIvDhy8IffdTAksTfpwKPIPQ0ENySOKZsoJ2KDW8kYVMD/CDcZnmdknhNC+CDkQtTtkkyKqNHOS95Zz+vGckEYWeXZLnRGQnjaqNbwnIqS9Rk
        0wSiB+AB7SYQqwINVaCpCrRUgbYq0FEFuqpATxWIoDJSuTZIuThIuTpIuTyoqz5zkpJI6SHaI7ui75H1WrqW1YJspN702qBOPffIaI1vNqCtXusPKHJboc0nrw3q1r0a
        rblyPWWoV08W8tqgyNzXFeHj9VqQdE357vQMkkifs2SdU734cOifJ1d6ntEU1s4yuWqUZ+J4HxNOAL/fiJUYG3Zx+oW/xMAsclR9b0Q8Gq9CUnZXYonoVG1S/mD4uq1J
        sVdyfC5p9JZIfxXbpan47vk0KyjoGaebt1L2RRqu1zT1hRShcUDTTtrIwciraFtOjTY+RhvtWO9aOXZk3xg5E69BYgSNyV9MRL9XiKbH+gm9ln7Ce/2EXiCgYE1A2e8C
        6l1A/S8CqskI2bajIrU8aMk/T91SCzumDe1uqXX8pXhCalmtUKernk+oMsts1U+NOrVrvXoCDKd1A/VKWe2ysOtdepGAU5FadQ23zy3urBjEHeV913BvXcP9mYJBED1X
        wsijwxFZmFweSpgyNY5x0TBMhLApsO4BVFjHxzxA3PTwL6XR5c0NDfjhBdN5tAyLFD/WQtWV1Kdv02oBCXi4pdPy/gtV48v9fRhlIgRdLchSzgsX/V51YTc8+Q17esX+
        AAAQAAAA
      >
      FLOATPOS 409 269 871 509
      FXID {DC79668B-30D1-964C-A162-F245DBE294B0}
      WAK 0
      BYPASS 1 0 0
      <JS Delay/time_adjustment ""
        -10.000000 0.000000 -120.000000 0.000000 - - - - - - - - - - - - - - - - - - - - - - - - - - - - - - - - - - - - - - - - - - - - - - - - - - - - - - - - - - - - 
      >
      FLOATPOS 1254 834 554 157
      FXID {40721658-5454-1743-9C6A-517A806DB8F9}
      WAK 0
    >
  >
  <TRACK {D84D9A18-9EB2-B147-888B-8DACBA3BBEF6}
    NAME "Bass Return (global)"
    PEAKCOL 0
    BEAT -1
    AUTOMODE 0
    VOLPAN 1 0 -1 -1 1
    MUTESOLO 0 0 0
    IPHASE 0
    ISBUS 0 0
    BUSCOMP 0 0
    SHOWINMIX 1 0.6667 0.698113 1 0.5 -1 -1 -1
    FREEMODE 0
    SEL 0
    REC 0 0 0 0 0 0 0
    VU 2
    TRACKHEIGHT 0 0
    INQ 0 0 0 0.5 100 0 0 100
    NCHAN 2
    FX 1
    TRACKID {D84D9A18-9EB2-B147-888B-8DACBA3BBEF6}
    PERF 0
    AUXRECV 2 0 1 0 1 0 0 0 0 -1 0 -1 ''
    AUXRECV 6 0 1 0 0 0 0 4 0 -1 0 -1 ''
    MIDIOUT -1
    MAINSEND 1 0
    <FXCHAIN
      SHOW 0
      LASTSEL 0
      DOCKED 0
      BYPASS 0 0 0
      <VST "VST: 8-Bit Shaper (Xfer Records)" 8BitShaper.vst 0 ""
        clN1RO5e7f4CAAAAAQAAAAAAAAACAAAAAAAAAAIAAAABAAAAAAAAAAIAAAAAAAAANAIAAAEAAAAAABAAZmaGP20MlT7dQQw/AAAAPyQABAUAAIA//38KAAAAABgXAAAA
        MAAAABkAAAAaAAAAGgAAABoAAAAbAAAAGwAAABwAAAAcAAAAHAAAAB0AAAAdAAAAHgAAAB4AAAAfAAAAHwAAACAAAAAgAAAAIAAAACEAAAAhAAAAIQAAACIAAAAiAAAA
        IgAAACMAAAAjAAAAIwAAACQAAAAkAAAAJAAAACUAAAAlAAAAKAAAACgAAAApAAAAKQAAACoAAAA1AAAAKgAAACoAAAA2AAAAKgAAACoAAAAqAAAAKgAAACoAAAAqAAAA
        KgAAACsAAAArAAAAOQAAAC0AAAA0AAAAOgAAAC0AAAAtAAAAPAAAAC4AAAAuAAAALwAAADAAAAAwAAAAMQAAADEAAAAxAAAAMgAAADMAAAAzAAAAMwAAADcAAAA3AAAA
        NwAAADgAAAA4AAAAOAAAADkAAAA5AAAAOQAAADoAAAA6AAAAOgAAADoAAAA6AAAAOwAAADsAAAA7AAAAPAAAADsAAAA7AAAAOwAAADwAAAA8AAAAPAAAADwAAAA9AAAA
        PQAAAD0AAAA9AAAAPQAAAD4AAAA+AAAAPwAAAEkAAABAAAAAQAAAAEgAAABAAAAAQQAAAEIAAABCAAAAQgAAAEMAAABDAAAAQwAAAEQAAABEAAAARQAAAE0AAABGAAAA
        RwAAAEYAAABHAAAASAAAAEgAAABJAAAATwAAAAAAgD+rqqo+q6qqPh0Fwz6OAm0/AEluaXQgMQAQAAAA
      >
      FLOATPOS 32 39 278 389
      FXID {19A94086-1737-784E-A733-2897FDD09534}
      WAK 0
    >
  >
  <TRACK {2E103EAF-0FA2-9942-87A1-30E1663A9F4B}
    NAME "--- 0 --- 0 --- 0 "
    PEAKCOL 16576
    BEAT -1
    AUTOMODE 0
    VOLPAN 1 0 -1 -1 1
    MUTESOLO 0 0 0
    IPHASE 0
    ISBUS 0 0
    BUSCOMP 0 0
    SHOWINMIX 1 0.6667 0.565574 0 0.5 -1 -1 -1
    FREEMODE 0
    SEL 0
    REC 0 0 0 0 0 0 0
    VU 2
    TRACKHEIGHT 0 0
    INQ 0 0 0 0.5 100 0 0 100
    NCHAN 2
    FX 1
    TRACKID {2E103EAF-0FA2-9942-87A1-30E1663A9F4B}
    PERF 0
    LAYOUTS "" Separator
    MIDIOUT -1
    MAINSEND 1 0
  >
  <TRACK {D4259754-8A5D-ED42-9EF0-7FA3B62785A4}
    NAME "vst Plogue"
    PEAKCOL 26779488
    BEAT -1
    AUTOMODE 0
    VOLPAN 1 0 -1 -1 1
    MUTESOLO 0 0 0
    IPHASE 0
    ISBUS 0 0
    BUSCOMP 0 0
    SHOWINMIX 1 0.6667 0.698113 1 0.5 -1 -1 -1
    FREEMODE 0
    SEL 0
    REC 0 0 0 1 0 0 0
    VU 2
    TRACKHEIGHT 0 0
    INQ 0 0 0 0.5 100 0 0 100
    NCHAN 8
    FX 1
    TRACKID {D4259754-8A5D-ED42-9EF0-7FA3B62785A4}
    PERF 0
    AUXRECV 3 0 1 0 0 0 0 0 4 -1 0 -1 ''
    AUXRECV 8 0 1 0 0 0 0 0 0 -1 32 -1 ''
    AUXRECV 8 0 1 0 0 0 0 0 0 -1 96 -1 ''
    AUXRECV 9 0 1 0 0 0 0 0 0 -1 64 -1 ''
    AUXRECV 9 0 1 0 0 0 0 0 0 -1 128 -1 ''
    AUXRECV 10 0 1 0 0 0 0 0 0 -1 160 -1 ''
    MIDIOUT -1
    MAINSEND 0 0
    <FXCHAIN
      SHOW 0
      LASTSEL 0
      DOCKED 0
      BYPASS 0 0 0
      <VST "VSTi: chipsounds (Multi) (Plogue Art et Technologie, Inc) (32 out)" "chipsounds Multi.vst" 0 ""
        T0dNUO5e7f4AAAAAIAAAAAEAAAAAAAAAAgAAAAAAAAAEAAAAAAAAAAgAAAAAAAAAEAAAAAAAAAAgAAAAAAAAAEAAAAAAAAAAgAAAAAAAAAAAAQAAAAAAAAACAAAAAAAA
        AAQAAAAAAAAACAAAAAAAAAAQAAAAAAAAACAAAAAAAAAAQAAAAAAAAACAAAAAAAAAAAABAAAAAAAAAAIAAAAAAAAABAAAAAAAAAAIAAAAAAAAABAAAAAAAAAAIAAAAAAA
        AABAAAAAAAAAAIAAAAAAAAAAAAEAAAAAAAAAAgAAAAAAAAAEAAAAAAAAAAgAAAAAAAAAEAAAAAAAAAAgAAAAAAAAAEAAAAAAAAAAgAAAAADeBQAAAQAAAAAAEABDRUdQ
        2j4AAHic7Ztdc6M2FIbv8ysYrtqLNUggMDNOdvwRdz3TdDO1d3qZUWzFocXgIpEm/fUVYGIpxkLESTvbwEUC8suRjo4sHumYwefHTWQ8kJSGSXxugp5tGp8vzgbDNMRz
        /ECEjzwbmhdnBj8Gc8JYGK+p8WeGo5A98U9NYx0ltzi6TiJ+6UDToCwleMNl5eUGP86LkmEUJcur0bmJAC++mk1mXzN2laxIYQVnLNlgxqucRwk7N3l76DLXovwER5gX
        AeOTQfKqe3QZ7YrHJGYkPTc9u2rJIouLyu2eXRymYVXN55aNcFUYj/GG5CZ7xnWWEmN8H26t+WxieagPjB9+WczHP5rGLY7/mHE9sO3ANJb3OI5JVNy+Ldx1TYMd1La9
        vUlxvObWP4HnQsaL6DahpLh7k7HyhP51E2HKcktlG4t2XuEwrtr5gKOMFAGSnZGF4Fl44LUshLpCR1fo6gqRrtDTFfq6wr6uMNAVAltbqR0boB0coB0doB0e0BSfa5zi
        jdYg2iubat8rxVj2EVIopa53A5XUF/seOMr6XUmqtCoOUNBXSuWRp5L2RauOsq/6gbY0EDsLBCopcPdxBbA+XgucrgnbTZ7LZNO7jpJ1Rnr5Y6P38/RrL6MktYW5rLhr
        nFE+uU8wwwZ72vI7IXQ8Hhoa/s0v3LyPqqcNr4/EqxCXpyt+Cz+pjmn5D9pve8guWqWPbZ0GH8TpRRqu1ySd8+cwiZckbXQb+BAEldvIF9yGdW6Dnde7o7z2i3Nn7E8D
        yYmx7Uz/q44oov8rd4CkHADmhOZO9Sgj2//R+B9YOTO9xCdwGj6BGnzqd/jU4dMHwSfZI+B5vg5oBTYqFk7NoAV917O9NwYtpHRJAi3kKpFIbKrjK602DeVX0ZMO54gA
        te8F2BRYPjc3TDkdQHUAdQpAARu0Jajim+vzXpheHhJU2TW+M5IKppyrcm3/QMpLJ3UWbChbeGcyq+cSeBqXuBWXgD2XuKdxid3AJU0PlfZc0kA6HZeoO7zjkrZc4iAH
        9Z1jStEjoNz/ED3ylQQheQRUHvkNX4tjm0rKPR2h7xutSjtFOZaAo9IWbRWHs6tEOL9pPNciXFMDfCmqrlIqhtVTt1WMq6McKxIYIqiSShtgAVT266vB0GnUNk3QolZ/
        0zSwvRZ29UdYYActvjktnANA8s5Rho7HQJySCq1K3NRvHXt37H0Se0OnLXsXy9uSvW0IR6MDTw6JfFKwt23XsnctvaOxbHdUsrfvA7F0WpaO5dLdMdbRTo8wfWtOd07j
        dPjvp1+1Ob0Bv7v9Q6Ww4/TvLP3aYLRLv4qd1aVfa4+OYLr06yuj/zHTr+5p+OTU4BPq8KnDpw+CT99h+rVxQ65Lv3bp111jO4BSOt2lX3WP1lziP3MJ7BllPxq/4Qdy
        l6Qban3B6cqYP8XLo2CCnvOv3okbO29EI2//Y7AGvulo5GPTiDI9JXmk/Nm71E2cRWAQHJWK3iN13lNCF3UmTRokSsiQkpnqPSKoD0RQPyX1TilSKVqeksikAegprSL9
        BsipZydwjmIucMTGekp8fD96E3OkTT83fL8cab+FVj9HGgD9wPFe1R+RXNz0cDmaInXUqw9oNz07OpjuYPoUmIYItYTp8vlQbkfaI3+qk0+tjiqX6fGFPEJDJGc4hdKR
        jw7ttrPg1WR6W1oAp1pA/qkW3MmJFupLIRzW5qvtl5lp3QXI5d0dWbLDl3uHm9swH5YvFxw7q4Ofvs2qG/CShQ9kVr56DKrry/2ryCTiVZDVAt/mI1WcMVNCCbsicWaE
        tLqdFU1Vf1UMRh65ZMH/ZilZGV9CRvkiB7P7c9MabrdRuCxeh6ZWaYGvk8ItTbJ4xUuKSqmlsG/tFmDDdEvW6zChllRTD/P5avti8j9wBbZyZYN/99n9sw/f+ERILcpD
        Ea8jnG/UWzfLlGBGrDnebCNCrcvqE2Ma5tdlBeO9o1UdNL8FsfuX7R5YPIgXZwOrem/94uwf99gDEgAAEAAAAA==
      >
      FLOATPOS 129 269 871 509
      FXID {C804D762-B992-A540-81BF-3D6C0F7FF19B}
      WAK 0
    >
  >
  <TRACK {33AD5A6D-2EE0-8449-9F1A-2F36FB5D6DDB}
    NAME "midi "
    PEAKCOL 16576
    BEAT -1
    AUTOMODE 0
    VOLPAN 1 0 -1 -1 1
    MUTESOLO 0 0 0
    IPHASE 0
    ISBUS 1 1
    BUSCOMP 1 0
    SHOWINMIX 1 0.6667 0.698113 1 0.5 -1 -1 -1
    FREEMODE 0
    SEL 0
    REC 0 0 0 0 0 0 0
    VU 2
    TRACKHEIGHT 0 0
    INQ 0 0 0 0.5 100 0 0 100
    NCHAN 2
    FX 1
    TRACKID {33AD5A6D-2EE0-8449-9F1A-2F36FB5D6DDB}
    PERF 0
    MIDIOUT -1
    MAINSEND 1 0
  >
  <TRACK {F21395F9-F67E-E94E-A650-3CA2FF3EBDD0}
    NAME "ch1,3 (send)"
    PEAKCOL 16576
    BEAT -1
    AUTOMODE 0
    VOLPAN 1 0 -1 -1 1
    MUTESOLO 0 0 0
    IPHASE 0
    ISBUS 0 0
    BUSCOMP 0 0
    SHOWINMIX 1 0.6667 0.698113 1 0.5 -1 -1 -1
    FREEMODE 0
    SEL 0
    REC 0 0 0 0 0 0 0
    VU 2
    MIDICTL -1 1
    TRACKHEIGHT 222 0
    INQ 0 0 0 0.5 100 0 0 100
    NCHAN 2
    FX 1
    TRACKID {F21395F9-F67E-E94E-A650-3CA2FF3EBDD0}
    PERF 0
    MIDIOUT -1
    MAINSEND 1 0
    <FXCHAIN
      SHOW 0
      LASTSEL 0
      DOCKED 0
    >
    <ITEM
      POSITION 0
      SNAPOFFS 0
      LENGTH 41.5
      LOOP 1
      ALLTAKES 0
      FADEIN 1 0 0 1 0 0
      FADEOUT 1 0 0 1 0 0
      MUTE 0
      SEL 0
      YPOS 0 0.05
      IGUID {AF828511-6A4C-7B4B-8907-FDD63E7F6669}
      IID 1
      NAME "Pikola - National_Anthems_-_Slovakia2.mid"
      VOLPAN 1 0 1 -1
      SOFFS 0 0
      PLAYRATE 1 1 0 -1 0 0.0025
      CHANMODE 0
      TAKECOLOR 26173599
      GUID {29435BB9-39B0-BC46-A786-619A016ECE6D}
      <SOURCE MIDI
        HASDATA 1 240 QN
        POOLEDEVTS {8E794C44-8ED2-1343-B142-0D017DC0C358}
        <X 0 0
          /wN1bnRpdGxlZA==
        >
        <X 0 0
          /wNQaWtvbGE=
        >
        E 0 90 4f 50
        E 96 90 4f 00
        E 24 90 51 50
        E 96 90 51 00
        E 24 90 52 50
        E 192 90 52 00
        E 48 90 52 50
        E 192 90 52 00
        E 48 90 52 50
        E 96 90 52 00
        E 24 90 52 50
        E 96 90 52 00
        E 24 90 51 50
        E 96 90 51 00
        E 24 90 52 50
        E 96 90 52 00
        E 24 90 54 50
        E 96 90 54 00
        E 24 90 52 50
        E 96 90 52 00
        E 24 90 51 50
        E 192 90 51 00
        E 48 90 4f 50
        E 192 90 4f 00
        E 48 90 52 50
        E 96 90 52 00
        E 24 90 54 50
        E 96 90 54 00
        E 24 90 56 50
        E 192 90 56 00
        E 48 90 56 50
        E 192 90 56 00
        E 48 90 56 50
        E 96 90 56 00
        E 24 90 56 50
        E 96 90 56 00
        E 24 90 54 50
        E 96 90 54 00
        E 24 90 56 50
        E 96 90 56 00
        E 24 90 57 50
        E 96 90 57 00
        E 24 90 56 50
        E 96 90 56 00
        E 24 90 54 50
        E 192 90 54 00
        E 48 90 52 50
        E 192 90 52 00
        E 48 90 56 50
        E 96 90 56 00
        E 24 90 56 50
        E 96 90 56 00
        E 24 90 56 50
        E 192 90 56 00
        E 48 90 54 50
        E 192 90 54 00
        E 48 90 54 50
        E 96 90 54 00
        E 24 90 54 50
        E 96 90 54 00
        E 24 90 54 50
        E 96 90 54 00
        E 24 90 56 50
        E 96 90 56 00
        E 24 90 54 50
        E 192 90 54 00
        E 48 90 52 50
        E 192 90 52 00
        E 48 90 52 50
        E 96 90 52 00
        E 24 90 52 50
        E 96 90 52 00
        E 24 90 51 50
        E 96 90 51 00
        E 24 90 52 50
        E 96 90 52 00
        E 24 90 54 50
        E 96 90 54 00
        E 24 90 52 50
        E 96 90 52 00
        E 24 90 51 50
        E 192 90 51 00
        E 48 90 4f 50
        E 192 90 4f 00
        E 48 90 56 50
        E 96 90 56 00
        E 24 90 56 50
        E 96 90 56 00
        E 24 90 56 50
        E 192 90 56 00
        E 48 90 54 50
        E 192 90 54 00
        E 48 90 54 50
        E 96 90 54 00
        E 24 90 54 50
        E 96 90 54 00
        E 24 90 54 50
        E 96 90 54 00
        E 24 90 56 50
        E 96 90 56 00
        E 24 90 54 50
        E 192 90 54 00
        E 48 90 52 50
        E 192 90 52 00
        E 48 90 52 50
        E 96 90 52 00
        E 24 90 52 50
        E 96 90 52 00
        E 24 90 51 50
        E 96 90 51 00
        E 24 90 52 50
        E 96 90 52 00
        E 24 90 54 50
        E 96 90 54 00
        E 24 90 52 50
        E 96 90 52 00
        E 24 90 51 50
        E 192 90 51 00
        E 48 90 4f 50
        E 192 90 4f 00
        E 48 90 4f 50
        E 96 90 4f 00
        E 24 90 51 50
        E 96 90 51 00
        E 24 90 52 50
        E 192 90 52 00
        E 48 90 52 50
        E 192 90 52 00
        E 48 90 52 50
        E 96 90 52 00
        E 24 90 52 50
        E 96 90 52 00
        E 24 90 51 50
        E 96 90 51 00
        E 24 90 52 50
        E 96 90 52 00
        E 24 90 54 50
        E 96 90 54 00
        E 24 90 52 50
        E 96 90 52 00
        E 24 90 51 50
        E 192 90 51 00
        E 48 90 4f 50
        E 192 90 4f 00
        E 48 90 52 50
        E 96 90 52 00
        E 24 90 54 50
        E 96 90 54 00
        E 24 90 56 50
        E 192 90 56 00
        E 48 90 56 50
        E 192 90 56 00
        E 48 90 56 50
        E 96 90 56 00
        E 24 90 56 50
        E 96 90 56 00
        E 24 90 54 50
        E 96 90 54 00
        E 24 90 56 50
        E 96 90 56 00
        E 24 90 57 50
        E 96 90 57 00
        E 24 90 56 50
        E 96 90 56 00
        E 24 90 54 50
        E 192 90 54 00
        E 48 90 52 50
        E 192 90 52 00
        E 48 90 56 50
        E 96 90 56 00
        E 24 90 56 50
        E 96 90 56 00
        E 24 90 56 50
        E 192 90 56 00
        E 48 90 54 50
        E 192 90 54 00
        E 48 90 54 50
        E 96 90 54 00
        E 24 90 54 50
        E 96 90 54 00
        E 24 90 54 50
        E 96 90 54 00
        E 24 90 56 50
        E 96 90 56 00
        E 24 90 54 50
        E 192 90 54 00
        E 48 90 52 50
        E 192 90 52 00
        E 48 90 52 50
        E 96 90 52 00
        E 24 90 52 50
        E 96 90 52 00
        E 24 90 51 50
        E 96 90 51 00
        E 24 90 52 50
        E 96 90 52 00
        E 24 90 54 50
        E 96 90 54 00
        E 24 90 52 50
        E 96 90 52 00
        E 24 90 51 50
        E 192 90 51 00
        E 48 90 4f 50
        E 192 90 4f 00
        E 48 90 56 50
        E 96 90 56 00
        E 24 90 56 50
        E 96 90 56 00
        E 24 90 56 50
        E 192 90 56 00
        E 48 90 54 50
        E 192 90 54 00
        E 48 90 54 50
        E 96 90 54 00
        E 24 90 54 50
        E 96 90 54 00
        E 24 90 54 50
        E 96 90 54 00
        E 24 90 56 50
        E 96 90 56 00
        E 24 90 54 50
        E 192 90 54 00
        E 48 90 52 50
        E 192 90 52 00
        E 48 90 52 50
        E 96 90 52 00
        E 24 90 52 50
        E 96 90 52 00
        E 24 90 51 50
        E 96 90 51 00
        E 24 90 52 50
        E 96 90 52 00
        E 24 90 54 50
        E 96 90 54 00
        E 24 90 52 50
        E 96 90 52 00
        E 24 90 51 50
        E 384 90 51 00
        E 96 90 4f 50
        E 598 90 4f 00
        E 122 b0 7b 00
        GUID {0A4326AB-A4D2-CE4E-B74E-5C445622C7FC}
        IGNTEMPO 0 120 4 4
        SRCCOLOR 235
        VELLANE -1 86 6
        CFGEDITVIEW 7924.677826 316.288498 39 19 0 0 0 0 0
        KEYSNAP 0 3 102304056070 0 "Natural minor"
        TRACKSEL 252 0 0 ""
        EVTFILTER 0 -1 -1 -1 -1 0 0 0 0 -1 -1 -1 -1 0 -1 0 -1 -1
        CFGEDIT 1 0 0 0 0 0 1 0 1 1 1 0.25 429 164 1280 633 0 0 2 3 0 0 0 0 0 -1 0 0 1 64
      >
      TAKE
      NAME "Pikola - National_Anthems_-_Slovakia2.mid"
      TAKEVOLPAN 0 1 -1
      SOFFS 0 0
      PLAYRATE 1 1 0 -1 0 0.0025
      CHANMODE 0
      GUID {74B33A3E-FBC2-4E4F-833E-E567EB60B8AA}
      <SOURCE MIDI
        HASDATA 1 240 QN
        POOLEDEVTS {0D90F102-B103-044B-8EB7-243032BD2D80}
        <X 0 0
          /wN1bnRpdGxlZA==
        >
        <X 0 0
          /wNQaWtvbGE=
        >
        E 0 90 4f 50
        E 96 90 4f 00
        E 24 90 51 50
        E 96 90 51 00
        E 24 90 52 50
        E 192 90 52 00
        E 48 90 52 50
        E 192 90 52 00
        E 48 90 52 50
        E 96 90 52 00
        E 24 90 52 50
        E 96 90 52 00
        E 24 90 51 50
        E 96 90 51 00
        E 24 90 52 50
        E 96 90 52 00
        E 24 90 54 50
        E 96 90 54 00
        E 24 90 52 50
        E 96 90 52 00
        E 24 90 51 50
        E 192 90 51 00
        E 48 90 4f 50
        E 192 90 4f 00
        E 48 90 52 50
        E 96 90 52 00
        E 24 90 54 50
        E 96 90 54 00
        E 24 90 56 50
        E 192 90 56 00
        E 48 90 56 50
        E 192 90 56 00
        E 48 90 56 50
        E 96 90 56 00
        E 24 90 56 50
        E 96 90 56 00
        E 24 90 54 50
        E 96 90 54 00
        E 24 90 56 50
        E 96 90 56 00
        E 24 90 57 50
        E 96 90 57 00
        E 24 90 56 50
        E 96 90 56 00
        E 24 90 54 50
        E 192 90 54 00
        E 48 90 52 50
        E 192 90 52 00
        E 48 90 56 50
        E 96 90 56 00
        E 24 90 56 50
        E 96 90 56 00
        E 24 90 56 50
        E 192 90 56 00
        E 48 90 54 50
        E 192 90 54 00
        E 48 90 54 50
        E 96 90 54 00
        E 24 90 54 50
        E 96 90 54 00
        E 24 90 54 50
        E 96 90 54 00
        E 24 90 56 50
        E 96 90 56 00
        E 24 90 54 50
        E 192 90 54 00
        E 48 90 52 50
        E 192 90 52 00
        E 48 90 52 50
        E 96 90 52 00
        E 24 90 52 50
        E 96 90 52 00
        E 24 90 51 50
        E 96 90 51 00
        E 24 90 52 50
        E 96 90 52 00
        E 24 90 54 50
        E 96 90 54 00
        E 24 90 52 50
        E 96 90 52 00
        E 24 90 51 50
        E 192 90 51 00
        E 48 90 4f 50
        E 192 90 4f 00
        E 48 90 56 50
        E 96 90 56 00
        E 24 90 56 50
        E 96 90 56 00
        E 24 90 56 50
        E 192 90 56 00
        E 48 90 54 50
        E 192 90 54 00
        E 48 90 54 50
        E 96 90 54 00
        E 24 90 54 50
        E 96 90 54 00
        E 24 90 54 50
        E 96 90 54 00
        E 24 90 56 50
        E 96 90 56 00
        E 24 90 54 50
        E 192 90 54 00
        E 48 90 52 50
        E 192 90 52 00
        E 48 90 52 50
        E 96 90 52 00
        E 24 90 52 50
        E 96 90 52 00
        E 24 90 51 50
        E 96 90 51 00
        E 24 90 52 50
        E 96 90 52 00
        E 24 90 54 50
        E 96 90 54 00
        E 24 90 52 50
        E 96 90 52 00
        E 24 90 51 50
        E 192 90 51 00
        E 48 90 4f 50
        E 192 90 4f 00
        E 48 90 4f 50
        E 96 90 4f 00
        E 24 90 51 50
        E 96 90 51 00
        E 24 90 52 50
        E 192 90 52 00
        E 48 90 52 50
        E 192 90 52 00
        E 48 90 52 50
        E 96 90 52 00
        E 24 90 52 50
        E 96 90 52 00
        E 24 90 51 50
        E 96 90 51 00
        E 24 90 52 50
        E 96 90 52 00
        E 24 90 54 50
        E 96 90 54 00
        E 24 90 52 50
        E 96 90 52 00
        E 24 90 51 50
        E 192 90 51 00
        E 48 90 4f 50
        E 192 90 4f 00
        E 48 90 52 50
        E 96 90 52 00
        E 24 90 54 50
        E 96 90 54 00
        E 24 90 56 50
        E 192 90 56 00
        E 48 90 56 50
        E 192 90 56 00
        E 48 90 56 50
        E 96 90 56 00
        E 24 90 56 50
        E 96 90 56 00
        E 24 90 54 50
        E 96 90 54 00
        E 24 90 56 50
        E 96 90 56 00
        E 24 90 57 50
        E 96 90 57 00
        E 24 90 56 50
        E 96 90 56 00
        E 24 90 54 50
        E 192 90 54 00
        E 48 90 52 50
        E 192 90 52 00
        E 48 90 56 50
        E 96 90 56 00
        E 24 90 56 50
        E 96 90 56 00
        E 24 90 56 50
        E 192 90 56 00
        E 48 90 54 50
        E 192 90 54 00
        E 48 90 54 50
        E 96 90 54 00
        E 24 90 54 50
        E 96 90 54 00
        E 24 90 54 50
        E 96 90 54 00
        E 24 90 56 50
        E 96 90 56 00
        E 24 90 54 50
        E 192 90 54 00
        E 48 90 52 50
        E 192 90 52 00
        E 48 90 52 50
        E 96 90 52 00
        E 24 90 52 50
        E 96 90 52 00
        E 24 90 51 50
        E 96 90 51 00
        E 24 90 52 50
        E 96 90 52 00
        E 24 90 54 50
        E 96 90 54 00
        E 24 90 52 50
        E 96 90 52 00
        E 24 90 51 50
        E 192 90 51 00
        E 48 90 4f 50
        E 192 90 4f 00
        E 48 90 56 50
        E 96 90 56 00
        E 24 90 56 50
        E 96 90 56 00
        E 24 90 56 50
        E 192 90 56 00
        E 48 90 54 50
        E 192 90 54 00
        E 48 90 54 50
        E 96 90 54 00
        E 24 90 54 50
        E 96 90 54 00
        E 24 90 54 50
        E 96 90 54 00
        E 24 90 56 50
        E 96 90 56 00
        E 24 90 54 50
        E 192 90 54 00
        E 48 90 52 50
        E 192 90 52 00
        E 48 90 52 50
        E 96 90 52 00
        E 24 90 52 50
        E 96 90 52 00
        E 24 90 51 50
        E 96 90 51 00
        E 24 90 52 50
        E 96 90 52 00
        E 24 90 54 50
        E 96 90 54 00
        E 24 90 52 50
        E 96 90 52 00
        E 24 90 51 50
        E 384 90 51 00
        E 96 90 4f 50
        E 598 90 4f 00
        E 122 b0 7b 00
        GUID {71574CC0-B50A-8741-94E7-2E3AA96149F7}
        IGNTEMPO 0 120 4 4
        SRCCOLOR 250
        VELLANE -1 86 6
      >
    >
    <ITEM
      POSITION 0
      SNAPOFFS 0
      LENGTH 41.5
      LOOP 1
      ALLTAKES 0
      FADEIN 1 0 0 1 0 0
      FADEOUT 1 0 0 1 0 0
      MUTE 0
      SEL 0
      YPOS 0.276978 0.05
      IGUID {AC96D7E8-9CD4-DF44-845E-B8CFEE64A068}
      IID 2
      NAME "Flauta1 - National_Anthems_-_Slovakia2.mid"
      VOLPAN 1 0 1 -1
      SOFFS 0 0
      PLAYRATE 1 1 0 -1 0 0.0025
      CHANMODE 0
      TAKECOLOR 26173599
      GUID {73ED8C39-F947-D04D-939E-7D4FC5674CB8}
      <SOURCE MIDI
        HASDATA 1 240 QN
        POOLEDEVTS {098B3185-DBE8-D344-BF44-CB707C86E01F}
        <X 0 0
          /wNGbGF1dGEx
        >
        E 0 90 4f 50
        E 96 90 4f 00
        E 24 90 51 50
        E 96 90 51 00
        E 24 90 52 50
        E 192 90 52 00
        E 48 90 52 50
        E 192 90 52 00
        E 48 90 52 50
        E 96 90 52 00
        E 24 90 52 50
        E 96 90 52 00
        E 24 90 51 50
        E 96 90 51 00
        E 24 90 52 50
        E 96 90 52 00
        E 24 90 54 50
        E 96 90 54 00
        E 24 90 52 50
        E 96 90 52 00
        E 24 90 51 50
        E 192 90 51 00
        E 48 90 4f 50
        E 192 90 4f 00
        E 48 90 52 50
        E 96 90 52 00
        E 24 90 54 50
        E 96 90 54 00
        E 24 90 56 50
        E 192 90 56 00
        E 48 90 56 50
        E 192 90 56 00
        E 48 90 56 50
        E 96 90 56 00
        E 24 90 56 50
        E 96 90 56 00
        E 24 90 54 50
        E 96 90 54 00
        E 24 90 56 50
        E 96 90 56 00
        E 24 90 57 50
        E 96 90 57 00
        E 24 90 56 50
        E 96 90 56 00
        E 24 90 54 50
        E 192 90 54 00
        E 48 90 52 50
        E 192 90 52 00
        E 48 90 56 50
        E 96 90 56 00
        E 24 90 56 50
        E 96 90 56 00
        E 24 90 56 50
        E 192 90 56 00
        E 48 90 54 50
        E 192 90 54 00
        E 48 90 54 50
        E 96 90 54 00
        E 24 90 54 50
        E 96 90 54 00
        E 24 90 54 50
        E 96 90 54 00
        E 24 90 56 50
        E 96 90 56 00
        E 24 90 54 50
        E 192 90 54 00
        E 48 90 52 50
        E 192 90 52 00
        E 48 90 52 50
        E 96 90 52 00
        E 24 90 52 50
        E 96 90 52 00
        E 24 90 51 50
        E 96 90 51 00
        E 24 90 52 50
        E 96 90 52 00
        E 24 90 54 50
        E 96 90 54 00
        E 24 90 52 50
        E 96 90 52 00
        E 24 90 51 50
        E 192 90 51 00
        E 48 90 4f 50
        E 192 90 4f 00
        E 48 90 56 50
        E 96 90 56 00
        E 24 90 56 50
        E 96 90 56 00
        E 24 90 56 50
        E 192 90 56 00
        E 48 90 54 50
        E 192 90 54 00
        E 48 90 54 50
        E 96 90 54 00
        E 24 90 54 50
        E 96 90 54 00
        E 24 90 54 50
        E 96 90 54 00
        E 24 90 56 50
        E 96 90 56 00
        E 24 90 54 50
        E 192 90 54 00
        E 48 90 52 50
        E 192 90 52 00
        E 48 90 52 50
        E 96 90 52 00
        E 24 90 52 50
        E 96 90 52 00
        E 24 90 51 50
        E 96 90 51 00
        E 24 90 52 50
        E 96 90 52 00
        E 24 90 54 50
        E 96 90 54 00
        E 24 90 52 50
        E 96 90 52 00
        E 24 90 51 50
        E 192 90 51 00
        E 48 90 4f 50
        E 192 90 4f 00
        E 48 90 4f 50
        E 96 90 4f 00
        E 24 90 51 50
        E 96 90 51 00
        E 24 90 52 50
        E 192 90 52 00
        E 48 90 52 50
        E 192 90 52 00
        E 48 90 52 50
        E 96 90 52 00
        E 24 90 52 50
        E 96 90 52 00
        E 24 90 51 50
        E 96 90 51 00
        E 24 90 52 50
        E 96 90 52 00
        E 24 90 54 50
        E 96 90 54 00
        E 24 90 52 50
        E 96 90 52 00
        E 24 90 51 50
        E 192 90 51 00
        E 48 90 4f 50
        E 192 90 4f 00
        E 48 90 52 50
        E 96 90 52 00
        E 24 90 54 50
        E 96 90 54 00
        E 24 90 56 50
        E 192 90 56 00
        E 48 90 56 50
        E 192 90 56 00
        E 48 90 56 50
        E 96 90 56 00
        E 24 90 56 50
        E 96 90 56 00
        E 24 90 54 50
        E 96 90 54 00
        E 24 90 56 50
        E 96 90 56 00
        E 24 90 57 50
        E 96 90 57 00
        E 24 90 56 50
        E 96 90 56 00
        E 24 90 54 50
        E 192 90 54 00
        E 48 90 52 50
        E 192 90 52 00
        E 48 90 56 50
        E 96 90 56 00
        E 24 90 56 50
        E 96 90 56 00
        E 24 90 56 50
        E 192 90 56 00
        E 48 90 54 50
        E 192 90 54 00
        E 48 90 54 50
        E 96 90 54 00
        E 24 90 54 50
        E 96 90 54 00
        E 24 90 54 50
        E 96 90 54 00
        E 24 90 56 50
        E 96 90 56 00
        E 24 90 54 50
        E 192 90 54 00
        E 48 90 52 50
        E 192 90 52 00
        E 48 90 52 50
        E 96 90 52 00
        E 24 90 52 50
        E 96 90 52 00
        E 24 90 51 50
        E 96 90 51 00
        E 24 90 52 50
        E 96 90 52 00
        E 24 90 54 50
        E 96 90 54 00
        E 24 90 52 50
        E 96 90 52 00
        E 24 90 51 50
        E 192 90 51 00
        E 48 90 4f 50
        E 192 90 4f 00
        E 48 90 56 50
        E 96 90 56 00
        E 24 90 56 50
        E 96 90 56 00
        E 24 90 56 50
        E 192 90 56 00
        E 48 90 54 50
        E 192 90 54 00
        E 48 90 54 50
        E 96 90 54 00
        E 24 90 54 50
        E 96 90 54 00
        E 24 90 54 50
        E 96 90 54 00
        E 24 90 56 50
        E 96 90 56 00
        E 24 90 54 50
        E 192 90 54 00
        E 48 90 52 50
        E 192 90 52 00
        E 48 90 52 50
        E 96 90 52 00
        E 24 90 52 50
        E 96 90 52 00
        E 24 90 51 50
        E 96 90 51 00
        E 24 90 52 50
        E 96 90 52 00
        E 24 90 54 50
        E 96 90 54 00
        E 24 90 52 50
        E 96 90 52 00
        E 24 90 51 50
        E 384 90 51 00
        E 96 90 4f 50
        E 598 90 4f 00
        E 122 b0 7b 00
        GUID {5AF9F130-E090-D048-A069-95FF1D34EB60}
        IGNTEMPO 0 120 4 4
        SRCCOLOR 236
        VELLANE -1 86 6
        CFGEDITVIEW 8580.611062 90.377764 45 16 0 0 0 0 0
        KEYSNAP 0 3 102304056070 0 "Natural minor"
        TRACKSEL 252 0 0 ""
        EVTFILTER 0 -1 -1 -1 -1 0 0 0 0 -1 -1 -1 -1 0 -1 0 -1 -1
        CFGEDIT 1 0 0 0 0 0 1 0 1 1 1 0.25 413 148 1280 633 0 0 2 3 0 0 0 0 0 -1 0 0 1 64
      >
      TAKE
      NAME "Flauta1 - National_Anthems_-_Slovakia2.mid"
      TAKEVOLPAN 0 1 -1
      SOFFS 0 0
      PLAYRATE 1 1 0 -1 0 0.0025
      CHANMODE 0
      GUID {712C7CA8-AA23-0C4D-A004-BDA009AB180F}
      <SOURCE MIDI
        HASDATA 1 240 QN
        POOLEDEVTS {0EC0C2F6-0C57-AD43-B0D7-AA0B7E650455}
        <X 0 0
          /wNGbGF1dGEx
        >
        E 0 90 4f 50
        E 96 90 4f 00
        E 24 90 51 50
        E 96 90 51 00
        E 24 90 52 50
        E 192 90 52 00
        E 48 90 52 50
        E 192 90 52 00
        E 48 90 52 50
        E 96 90 52 00
        E 24 90 52 50
        E 96 90 52 00
        E 24 90 51 50
        E 96 90 51 00
        E 24 90 52 50
        E 96 90 52 00
        E 24 90 54 50
        E 96 90 54 00
        E 24 90 52 50
        E 96 90 52 00
        E 24 90 51 50
        E 192 90 51 00
        E 48 90 4f 50
        E 192 90 4f 00
        E 48 90 52 50
        E 96 90 52 00
        E 24 90 54 50
        E 96 90 54 00
        E 24 90 56 50
        E 192 90 56 00
        E 48 90 56 50
        E 192 90 56 00
        E 48 90 56 50
        E 96 90 56 00
        E 24 90 56 50
        E 96 90 56 00
        E 24 90 54 50
        E 96 90 54 00
        E 24 90 56 50
        E 96 90 56 00
        E 24 90 57 50
        E 96 90 57 00
        E 24 90 56 50
        E 96 90 56 00
        E 24 90 54 50
        E 192 90 54 00
        E 48 90 52 50
        E 192 90 52 00
        E 48 90 56 50
        E 96 90 56 00
        E 24 90 56 50
        E 96 90 56 00
        E 24 90 56 50
        E 192 90 56 00
        E 48 90 54 50
        E 192 90 54 00
        E 48 90 54 50
        E 96 90 54 00
        E 24 90 54 50
        E 96 90 54 00
        E 24 90 54 50
        E 96 90 54 00
        E 24 90 56 50
        E 96 90 56 00
        E 24 90 54 50
        E 192 90 54 00
        E 48 90 52 50
        E 192 90 52 00
        E 48 90 52 50
        E 96 90 52 00
        E 24 90 52 50
        E 96 90 52 00
        E 24 90 51 50
        E 96 90 51 00
        E 24 90 52 50
        E 96 90 52 00
        E 24 90 54 50
        E 96 90 54 00
        E 24 90 52 50
        E 96 90 52 00
        E 24 90 51 50
        E 192 90 51 00
        E 48 90 4f 50
        E 192 90 4f 00
        E 48 90 56 50
        E 96 90 56 00
        E 24 90 56 50
        E 96 90 56 00
        E 24 90 56 50
        E 192 90 56 00
        E 48 90 54 50
        E 192 90 54 00
        E 48 90 54 50
        E 96 90 54 00
        E 24 90 54 50
        E 96 90 54 00
        E 24 90 54 50
        E 96 90 54 00
        E 24 90 56 50
        E 96 90 56 00
        E 24 90 54 50
        E 192 90 54 00
        E 48 90 52 50
        E 192 90 52 00
        E 48 90 52 50
        E 96 90 52 00
        E 24 90 52 50
        E 96 90 52 00
        E 24 90 51 50
        E 96 90 51 00
        E 24 90 52 50
        E 96 90 52 00
        E 24 90 54 50
        E 96 90 54 00
        E 24 90 52 50
        E 96 90 52 00
        E 24 90 51 50
        E 192 90 51 00
        E 48 90 4f 50
        E 192 90 4f 00
        E 48 90 4f 50
        E 96 90 4f 00
        E 24 90 51 50
        E 96 90 51 00
        E 24 90 52 50
        E 192 90 52 00
        E 48 90 52 50
        E 192 90 52 00
        E 48 90 52 50
        E 96 90 52 00
        E 24 90 52 50
        E 96 90 52 00
        E 24 90 51 50
        E 96 90 51 00
        E 24 90 52 50
        E 96 90 52 00
        E 24 90 54 50
        E 96 90 54 00
        E 24 90 52 50
        E 96 90 52 00
        E 24 90 51 50
        E 192 90 51 00
        E 48 90 4f 50
        E 192 90 4f 00
        E 48 90 52 50
        E 96 90 52 00
        E 24 90 54 50
        E 96 90 54 00
        E 24 90 56 50
        E 192 90 56 00
        E 48 90 56 50
        E 192 90 56 00
        E 48 90 56 50
        E 96 90 56 00
        E 24 90 56 50
        E 96 90 56 00
        E 24 90 54 50
        E 96 90 54 00
        E 24 90 56 50
        E 96 90 56 00
        E 24 90 57 50
        E 96 90 57 00
        E 24 90 56 50
        E 96 90 56 00
        E 24 90 54 50
        E 192 90 54 00
        E 48 90 52 50
        E 192 90 52 00
        E 48 90 56 50
        E 96 90 56 00
        E 24 90 56 50
        E 96 90 56 00
        E 24 90 56 50
        E 192 90 56 00
        E 48 90 54 50
        E 192 90 54 00
        E 48 90 54 50
        E 96 90 54 00
        E 24 90 54 50
        E 96 90 54 00
        E 24 90 54 50
        E 96 90 54 00
        E 24 90 56 50
        E 96 90 56 00
        E 24 90 54 50
        E 192 90 54 00
        E 48 90 52 50
        E 192 90 52 00
        E 48 90 52 50
        E 96 90 52 00
        E 24 90 52 50
        E 96 90 52 00
        E 24 90 51 50
        E 96 90 51 00
        E 24 90 52 50
        E 96 90 52 00
        E 24 90 54 50
        E 96 90 54 00
        E 24 90 52 50
        E 96 90 52 00
        E 24 90 51 50
        E 192 90 51 00
        E 48 90 4f 50
        E 192 90 4f 00
        E 48 90 56 50
        E 96 90 56 00
        E 24 90 56 50
        E 96 90 56 00
        E 24 90 56 50
        E 192 90 56 00
        E 48 90 54 50
        E 192 90 54 00
        E 48 90 54 50
        E 96 90 54 00
        E 24 90 54 50
        E 96 90 54 00
        E 24 90 54 50
        E 96 90 54 00
        E 24 90 56 50
        E 96 90 56 00
        E 24 90 54 50
        E 192 90 54 00
        E 48 90 52 50
        E 192 90 52 00
        E 48 90 52 50
        E 96 90 52 00
        E 24 90 52 50
        E 96 90 52 00
        E 24 90 51 50
        E 96 90 51 00
        E 24 90 52 50
        E 96 90 52 00
        E 24 90 54 50
        E 96 90 54 00
        E 24 90 52 50
        E 96 90 52 00
        E 24 90 51 50
        E 384 90 51 00
        E 96 90 4f 50
        E 598 90 4f 00
        E 122 b0 7b 00
        GUID {C67F6FDC-720D-5A45-A503-3072473659E3}
        IGNTEMPO 0 120 4 4
        SRCCOLOR 252
        VELLANE -1 86 6
        CFGEDITVIEW 0 0 45 16 0 0 0 0 0
        KEYSNAP 0 3 102304056070 0 "Natural minor"
        TRACKSEL 252 0 0 ""
        EVTFILTER 0 -1 -1 -1 -1 0 0 0 0 -1 -1 -1 -1 0 -1 0 -1 -1
        CFGEDIT 1 0 0 0 0 0 1 0 1 1 1 0.25 413 148 1280 633 0 0 2 3 0 0 0 0 0 -1 0 0 1 64
      >
    >
    <ITEM
      POSITION 0
      SNAPOFFS 0
      LENGTH 41.5
      LOOP 1
      ALLTAKES 0
      FADEIN 1 0 0 1 0 0
      FADEOUT 1 0 0 1 0 0
      MUTE 0
      SEL 0
      YPOS 0.95 0.05
      IGUID {C78E78D0-C612-804F-83DE-0442F3EAAC95}
      IID 4
      NAME "Hoboj1 - National_Anthems_-_Slovakia2.mid"
      VOLPAN 1 0 1 -1
      SOFFS 0 0
      PLAYRATE 1 1 0 -1 0 0.0025
      CHANMODE 0
      TAKECOLOR 26173599
      GUID {FEA35F86-F47B-204C-A9B9-B329A68917A5}
      <SOURCE MIDI
        HASDATA 1 240 QN
        POOLEDEVTS {037F97F8-23BD-3E4C-8537-554A22F8702D}
        <X 0 0
          /wNIb2JvajE=
        >
        E 0 90 4f 50
        E 96 90 4f 00
        E 24 90 4e 50
        E 96 90 4e 00
        E 24 90 4f 50
        E 192 90 4f 00
        E 48 90 4f 50
        E 192 90 4f 00
        E 48 90 4f 50
        E 96 90 4f 00
        E 24 90 4f 50
        E 96 90 4f 00
        E 24 90 4f 50
        E 96 90 4f 00
        E 24 90 4f 50
        E 96 90 4f 00
        E 24 90 4e 50
        E 96 90 4e 00
        E 24 90 4f 50
        E 96 90 4f 00
        E 24 90 4e 50
        E 192 90 4e 00
        E 48 90 4f 50
        E 192 90 4f 00
        E 48 90 4b 50
        E 96 90 4b 00
        E 24 90 4d 50
        E 96 90 4d 00
        E 24 90 4d 50
        E 192 90 4d 00
        E 48 90 4d 50
        E 192 90 4d 00
        E 48 90 4d 50
        E 96 90 4d 00
        E 24 90 4f 50
        E 96 90 4f 00
        E 24 90 4f 50
        E 96 90 4f 00
        E 24 90 4d 50
        E 96 90 4d 00
        E 24 90 4d 50
        E 96 90 4d 00
        E 24 90 4d 50
        E 96 90 4d 00
        E 24 90 4d 50
        E 192 90 4d 00
        E 48 90 4d 50
        E 192 90 4d 00
        E 48 90 4d 50
        E 96 90 4d 00
        E 24 90 4d 50
        E 96 90 4d 00
        E 24 90 4d 50
        E 192 90 4d 00
        E 48 90 4d 50
        E 192 90 4d 00
        E 48 90 51 50
        E 96 90 51 00
        E 24 90 4f 50
        E 96 90 4f 00
        E 24 90 4e 50
        E 96 90 4e 00
        E 24 90 4e 50
        E 96 90 4e 00
        E 24 90 4a 50
        E 192 90 4a 00
        E 48 90 4a 50
        E 192 90 4a 00
        E 48 90 4a 50
        E 96 90 4a 00
        E 24 90 4a 50
        E 96 90 4a 00
        E 24 90 4b 50
        E 96 90 4b 00
        E 24 90 4a 50
        E 96 90 4a 00
        E 24 90 4a 50
        E 96 90 4a 00
        E 24 90 4a 50
        E 96 90 4a 00
        E 24 90 4a 50
        E 192 90 4a 00
        E 48 90 4a 50
        E 192 90 4a 00
        E 48 90 4d 50
        E 96 90 4d 00
        E 24 90 4d 50
        E 96 90 4d 00
        E 24 90 4d 50
        E 192 90 4d 00
        E 48 90 4d 50
        E 192 90 4d 00
        E 48 90 51 50
        E 96 90 51 00
        E 24 90 4f 50
        E 96 90 4f 00
        E 24 90 4e 50
        E 96 90 4e 00
        E 24 90 4e 50
        E 96 90 4e 00
        E 24 90 4a 50
        E 192 90 4a 00
        E 48 90 4a 50
        E 192 90 4a 00
        E 48 90 4a 50
        E 96 90 4a 00
        E 24 90 4a 50
        E 96 90 4a 00
        E 24 90 4b 50
        E 96 90 4b 00
        E 24 90 4a 50
        E 96 90 4a 00
        E 24 90 4a 50
        E 96 90 4a 00
        E 24 90 4a 50
        E 96 90 4a 00
        E 24 90 4a 50
        E 192 90 4a 00
        E 48 90 4a 50
        E 192 90 4a 00
        E 48 90 4f 50
        E 96 90 4f 00
        E 24 90 4e 50
        E 96 90 4e 00
        E 24 90 4f 50
        E 192 90 4f 00
        E 48 90 4f 50
        E 192 90 4f 00
        E 48 90 4f 50
        E 96 90 4f 00
        E 24 90 4f 50
        E 96 90 4f 00
        E 24 90 4f 50
        E 96 90 4f 00
        E 24 90 4f 50
        E 96 90 4f 00
        E 24 90 4e 50
        E 96 90 4e 00
        E 24 90 4f 50
        E 96 90 4f 00
        E 24 90 4e 50
        E 192 90 4e 00
        E 48 90 4f 50
        E 192 90 4f 00
        E 48 90 4b 50
        E 96 90 4b 00
        E 24 90 4d 50
        E 96 90 4d 00
        E 24 90 4d 50
        E 192 90 4d 00
        E 48 90 4d 50
        E 192 90 4d 00
        E 48 90 4d 50
        E 96 90 4d 00
        E 24 90 4f 50
        E 96 90 4f 00
        E 24 90 4f 50
        E 96 90 4f 00
        E 24 90 4d 50
        E 96 90 4d 00
        E 24 90 4d 50
        E 96 90 4d 00
        E 24 90 4d 50
        E 96 90 4d 00
        E 24 90 4d 50
        E 192 90 4d 00
        E 48 90 4d 50
        E 192 90 4d 00
        E 48 90 4d 50
        E 96 90 4d 00
        E 24 90 4d 50
        E 96 90 4d 00
        E 24 90 4d 50
        E 192 90 4d 00
        E 48 90 4d 50
        E 192 90 4d 00
        E 48 90 51 50
        E 96 90 51 00
        E 24 90 4f 50
        E 96 90 4f 00
        E 24 90 4e 50
        E 96 90 4e 00
        E 24 90 4e 50
        E 96 90 4e 00
        E 24 90 4a 50
        E 192 90 4a 00
        E 48 90 4a 50
        E 192 90 4a 00
        E 48 90 4a 50
        E 96 90 4a 00
        E 24 90 4a 50
        E 96 90 4a 00
        E 24 90 4b 50
        E 96 90 4b 00
        E 24 90 4a 50
        E 96 90 4a 00
        E 24 90 4a 50
        E 96 90 4a 00
        E 24 90 4a 50
        E 96 90 4a 00
        E 24 90 4a 50
        E 192 90 4a 00
        E 48 90 4a 50
        E 192 90 4a 00
        E 48 90 4d 50
        E 96 90 4d 00
        E 24 90 4d 50
        E 96 90 4d 00
        E 24 90 4d 50
        E 192 90 4d 00
        E 48 90 4d 50
        E 192 90 4d 00
        E 48 90 51 50
        E 96 90 51 00
        E 24 90 4f 50
        E 96 90 4f 00
        E 24 90 4e 50
        E 96 90 4e 00
        E 24 90 4e 50
        E 96 90 4e 00
        E 24 90 4a 50
        E 192 90 4a 00
        E 48 90 4a 50
        E 192 90 4a 00
        E 48 90 4a 50
        E 96 90 4a 00
        E 24 90 4a 50
        E 96 90 4a 00
        E 24 90 4b 50
        E 96 90 4b 00
        E 24 90 4a 50
        E 96 90 4a 00
        E 24 90 4a 50
        E 96 90 4a 00
        E 24 90 4b 50
        E 96 90 4b 00
        E 24 90 4a 50
        E 192 90 4a 00
        E 48 90 48 50
        E 192 90 48 00
        E 48 90 46 50
        E 598 90 46 00
        E 122 b0 7b 00
        GUID {DBF138A9-73EC-AE46-BD2D-DF84AF9359B1}
        IGNTEMPO 0 120 4 4
        SRCCOLOR 238
        VELLANE -1 86 6
        CFGEDITVIEW 9508.77345 256.168576 45 16 0 0 0 0 0
        KEYSNAP 0 3 102304056070 0 "Natural minor"
        TRACKSEL 252 0 0 ""
        EVTFILTER 0 -1 -1 -1 -1 0 0 0 0 -1 -1 -1 -1 0 -1 0 -1 -1
        CFGEDIT 1 0 0 0 0 0 1 0 1 1 1 0.25 413 148 1280 633 0 0 2 3 0 0 0 0 0 -1 0 0 1 64
      >
      TAKE
      NAME "Hoboj1 - National_Anthems_-_Slovakia2.mid"
      TAKEVOLPAN 0 1 -1
      SOFFS 0 0
      PLAYRATE 1 1 0 -1 0 0.0025
      CHANMODE 0
      GUID {BDF0C52D-F412-1642-9B92-BFB4D4D3A52D}
      <SOURCE MIDI
        HASDATA 1 240 QN
        POOLEDEVTS {36EDD83B-5B45-2C48-8EC0-D84C69DEFB38}
        <X 0 0
          /wNIb2JvajE=
        >
        E 0 90 4f 50
        E 96 90 4f 00
        E 24 90 4e 50
        E 96 90 4e 00
        E 24 90 4f 50
        E 192 90 4f 00
        E 48 90 4f 50
        E 192 90 4f 00
        E 48 90 4f 50
        E 96 90 4f 00
        E 24 90 4f 50
        E 96 90 4f 00
        E 24 90 4f 50
        E 96 90 4f 00
        E 24 90 4f 50
        E 96 90 4f 00
        E 24 90 4e 50
        E 96 90 4e 00
        E 24 90 4f 50
        E 96 90 4f 00
        E 24 90 4e 50
        E 192 90 4e 00
        E 48 90 4f 50
        E 192 90 4f 00
        E 48 90 4b 50
        E 96 90 4b 00
        E 24 90 4d 50
        E 96 90 4d 00
        E 24 90 4d 50
        E 192 90 4d 00
        E 48 90 4d 50
        E 192 90 4d 00
        E 48 90 4d 50
        E 96 90 4d 00
        E 24 90 4f 50
        E 96 90 4f 00
        E 24 90 4f 50
        E 96 90 4f 00
        E 24 90 4d 50
        E 96 90 4d 00
        E 24 90 4d 50
        E 96 90 4d 00
        E 24 90 4d 50
        E 96 90 4d 00
        E 24 90 4d 50
        E 192 90 4d 00
        E 48 90 4d 50
        E 192 90 4d 00
        E 48 90 4d 50
        E 96 90 4d 00
        E 24 90 4d 50
        E 96 90 4d 00
        E 24 90 4d 50
        E 192 90 4d 00
        E 48 90 4d 50
        E 192 90 4d 00
        E 48 90 51 50
        E 96 90 51 00
        E 24 90 4f 50
        E 96 90 4f 00
        E 24 90 4e 50
        E 96 90 4e 00
        E 24 90 4e 50
        E 96 90 4e 00
        E 24 90 4a 50
        E 192 90 4a 00
        E 48 90 4a 50
        E 192 90 4a 00
        E 48 90 4a 50
        E 96 90 4a 00
        E 24 90 4a 50
        E 96 90 4a 00
        E 24 90 4b 50
        E 96 90 4b 00
        E 24 90 4a 50
        E 96 90 4a 00
        E 24 90 4a 50
        E 96 90 4a 00
        E 24 90 4a 50
        E 96 90 4a 00
        E 24 90 4a 50
        E 192 90 4a 00
        E 48 90 4a 50
        E 192 90 4a 00
        E 48 90 4d 50
        E 96 90 4d 00
        E 24 90 4d 50
        E 96 90 4d 00
        E 24 90 4d 50
        E 192 90 4d 00
        E 48 90 4d 50
        E 192 90 4d 00
        E 48 90 51 50
        E 96 90 51 00
        E 24 90 4f 50
        E 96 90 4f 00
        E 24 90 4e 50
        E 96 90 4e 00
        E 24 90 4e 50
        E 96 90 4e 00
        E 24 90 4a 50
        E 192 90 4a 00
        E 48 90 4a 50
        E 192 90 4a 00
        E 48 90 4a 50
        E 96 90 4a 00
        E 24 90 4a 50
        E 96 90 4a 00
        E 24 90 4b 50
        E 96 90 4b 00
        E 24 90 4a 50
        E 96 90 4a 00
        E 24 90 4a 50
        E 96 90 4a 00
        E 24 90 4a 50
        E 96 90 4a 00
        E 24 90 4a 50
        E 192 90 4a 00
        E 48 90 4a 50
        E 192 90 4a 00
        E 48 90 4f 50
        E 96 90 4f 00
        E 24 90 4e 50
        E 96 90 4e 00
        E 24 90 4f 50
        E 192 90 4f 00
        E 48 90 4f 50
        E 192 90 4f 00
        E 48 90 4f 50
        E 96 90 4f 00
        E 24 90 4f 50
        E 96 90 4f 00
        E 24 90 4f 50
        E 96 90 4f 00
        E 24 90 4f 50
        E 96 90 4f 00
        E 24 90 4e 50
        E 96 90 4e 00
        E 24 90 4f 50
        E 96 90 4f 00
        E 24 90 4e 50
        E 192 90 4e 00
        E 48 90 4f 50
        E 192 90 4f 00
        E 48 90 4b 50
        E 96 90 4b 00
        E 24 90 4d 50
        E 96 90 4d 00
        E 24 90 4d 50
        E 192 90 4d 00
        E 48 90 4d 50
        E 192 90 4d 00
        E 48 90 4d 50
        E 96 90 4d 00
        E 24 90 4f 50
        E 96 90 4f 00
        E 24 90 4f 50
        E 96 90 4f 00
        E 24 90 4d 50
        E 96 90 4d 00
        E 24 90 4d 50
        E 96 90 4d 00
        E 24 90 4d 50
        E 96 90 4d 00
        E 24 90 4d 50
        E 192 90 4d 00
        E 48 90 4d 50
        E 192 90 4d 00
        E 48 90 4d 50
        E 96 90 4d 00
        E 24 90 4d 50
        E 96 90 4d 00
        E 24 90 4d 50
        E 192 90 4d 00
        E 48 90 4d 50
        E 192 90 4d 00
        E 48 90 51 50
        E 96 90 51 00
        E 24 90 4f 50
        E 96 90 4f 00
        E 24 90 4e 50
        E 96 90 4e 00
        E 24 90 4e 50
        E 96 90 4e 00
        E 24 90 4a 50
        E 192 90 4a 00
        E 48 90 4a 50
        E 192 90 4a 00
        E 48 90 4a 50
        E 96 90 4a 00
        E 24 90 4a 50
        E 96 90 4a 00
        E 24 90 4b 50
        E 96 90 4b 00
        E 24 90 4a 50
        E 96 90 4a 00
        E 24 90 4a 50
        E 96 90 4a 00
        E 24 90 4a 50
        E 96 90 4a 00
        E 24 90 4a 50
        E 192 90 4a 00
        E 48 90 4a 50
        E 192 90 4a 00
        E 48 90 4d 50
        E 96 90 4d 00
        E 24 90 4d 50
        E 96 90 4d 00
        E 24 90 4d 50
        E 192 90 4d 00
        E 48 90 4d 50
        E 192 90 4d 00
        E 48 90 51 50
        E 96 90 51 00
        E 24 90 4f 50
        E 96 90 4f 00
        E 24 90 4e 50
        E 96 90 4e 00
        E 24 90 4e 50
        E 96 90 4e 00
        E 24 90 4a 50
        E 192 90 4a 00
        E 48 90 4a 50
        E 192 90 4a 00
        E 48 90 4a 50
        E 96 90 4a 00
        E 24 90 4a 50
        E 96 90 4a 00
        E 24 90 4b 50
        E 96 90 4b 00
        E 24 90 4a 50
        E 96 90 4a 00
        E 24 90 4a 50
        E 96 90 4a 00
        E 24 90 4b 50
        E 96 90 4b 00
        E 24 90 4a 50
        E 192 90 4a 00
        E 48 90 48 50
        E 192 90 48 00
        E 48 90 46 50
        E 598 90 46 00
        E 122 b0 7b 00
        GUID {E35522C3-1C0D-2C40-804A-DA8AB46E1177}
        IGNTEMPO 0 120 4 4
        SRCCOLOR 257
        VELLANE -1 86 6
        CFGEDITVIEW 0 0 45 16 0 0 0 0 0
        KEYSNAP 0 3 102304056070 0 "Natural minor"
        TRACKSEL 252 0 0 ""
        EVTFILTER 0 -1 -1 -1 -1 0 0 0 0 -1 -1 -1 -1 0 -1 0 -1 -1
        CFGEDIT 1 0 0 0 0 0 1 0 1 1 1 0.25 413 148 1280 633 0 0 2 3 0 0 0 0 0 -1 0 0 1 64
      >
    >
  >
  <TRACK {6CCBCBB4-02B5-3C4F-AE95-8DD80AEC4A17}
    NAME "ch2,4 (send)"
    PEAKCOL 16576
    BEAT -1
    AUTOMODE 0
    VOLPAN 1 0 -1 -1 1
    MUTESOLO 0 0 0
    IPHASE 0
    ISBUS 0 0
    BUSCOMP 0 0
    SHOWINMIX 1 0.6667 0.698113 1 0.5 -1 -1 -1
    FREEMODE 0
    SEL 0
    REC 0 0 0 0 0 0 0
    VU 2
    MIDICTL -1 1
    TRACKHEIGHT 0 0
    INQ 0 0 0 0.5 100 0 0 100
    NCHAN 2
    FX 1
    TRACKID {6CCBCBB4-02B5-3C4F-AE95-8DD80AEC4A17}
    PERF 0
    MIDIOUT -1
    MAINSEND 1 0
    <FXCHAIN
      WNDRECT 32 359 724 387
      SHOW 0
      LASTSEL 0
      DOCKED 0
    >
    <ITEM
      POSITION 0
      SNAPOFFS 0
      LENGTH 41.5
      LOOP 1
      ALLTAKES 0
      FADEIN 1 0 0 1 0 0
      FADEOUT 1 0 0 1 0 0
      MUTE 0
      SEL 0
      YPOS 0.138489 0.05
      IGUID {9024884E-9DA3-DB41-A769-7127C6236468}
      IID 7
      NAME "Fagot - National_Anthems_-_Slovakia2.mid"
      VOLPAN 1 0 1 -1
      SOFFS 0 0
      PLAYRATE 1 1 0 -1 0 0.0025
      CHANMODE 0
      TAKECOLOR 26173599
      GUID {20BC0E56-6F2E-0D46-A898-0C83F3432EA5}
      <SOURCE MIDI
        HASDATA 1 240 QN
        POOLEDEVTS {B05E2F2D-A7FB-5340-9714-844FC9E7EC4E}
        <X 0 0
          /wNGYWdvdA==
        >
        E 0 90 37 50
        E 96 90 37 00
        E 24 90 32 50
        E 96 90 32 00
        E 24 90 2b 50
        E 192 90 2b 00
        E 48 90 37 50
        E 120 90 37 00
        E 0 90 35 50
        E 120 90 35 00
        E 0 90 33 50
        E 96 90 33 00
        E 24 90 32 50
        E 96 90 32 00
        E 24 90 30 50
        E 96 90 30 00
        E 24 90 2e 50
        E 96 90 2e 00
        E 24 90 2d 50
        E 96 90 2d 00
        E 24 90 2b 50
        E 96 90 2b 00
        E 24 90 32 50
        E 192 90 32 00
        E 48 90 32 50
        E 192 90 32 00
        E 48 90 2b 50
        E 96 90 2b 00
        E 24 90 29 50
        E 96 90 29 00
        E 24 90 2e 50
        E 192 90 2e 00
        E 48 90 3a 50
        E 120 90 3a 00
        E 0 90 39 50
        E 120 90 39 00
        E 0 90 37 50
        E 96 90 37 00
        E 24 90 35 50
        E 96 90 35 00
        E 24 90 33 50
        E 96 90 33 00
        E 24 90 32 50
        E 96 90 32 00
        E 24 90 30 50
        E 96 90 30 00
        E 24 90 2e 50
        E 96 90 2e 00
        E 24 90 35 50
        E 192 90 35 00
        E 48 90 35 50
        E 192 90 35 00
        E 48 90 2e 50
        E 96 90 2e 00
        E 24 90 30 50
        E 96 90 30 00
        E 24 90 32 50
        E 96 90 32 00
        E 24 90 33 50
        E 96 90 33 00
        E 24 90 35 50
        E 192 90 35 00
        E 48 90 35 50
        E 96 90 35 00
        E 24 90 33 50
        E 96 90 33 00
        E 24 90 32 50
        E 96 90 32 00
        E 24 90 34 50
        E 96 90 34 00
        E 24 90 36 50
        E 192 90 36 00
        E 48 90 37 50
        E 192 90 37 00
        E 48 90 2b 50
        E 96 90 2b 00
        E 24 90 2e 50
        E 96 90 2e 00
        E 24 90 30 50
        E 96 90 30 00
        E 24 90 2e 50
        E 96 90 2e 00
        E 24 90 2d 50
        E 96 90 2d 00
        E 24 90 2b 50
        E 96 90 2b 00
        E 24 90 32 50
        E 192 90 32 00
        E 48 90 2b 50
        E 192 90 2b 00
        E 48 90 2e 50
        E 96 90 2e 00
        E 24 90 30 50
        E 96 90 30 00
        E 24 90 32 50
        E 96 90 32 00
        E 24 90 33 50
        E 96 90 33 00
        E 24 90 35 50
        E 192 90 35 00
        E 48 90 35 50
        E 96 90 35 00
        E 24 90 33 50
        E 96 90 33 00
        E 24 90 32 50
        E 96 90 32 00
        E 24 90 34 50
        E 96 90 34 00
        E 24 90 36 50
        E 192 90 36 00
        E 48 90 37 50
        E 192 90 37 00
        E 48 90 2b 50
        E 96 90 2b 00
        E 24 90 2e 50
        E 96 90 2e 00
        E 24 90 30 50
        E 96 90 30 00
        E 24 90 2e 50
        E 96 90 2e 00
        E 24 90 2d 50
        E 96 90 2d 00
        E 24 90 2b 50
        E 96 90 2b 00
        E 24 90 32 50
        E 192 90 32 00
        E 48 90 2b 50
        E 192 90 2b 00
        E 48 90 37 50
        E 96 90 37 00
        E 24 90 32 50
        E 96 90 32 00
        E 24 90 2b 50
        E 192 90 2b 00
        E 48 90 37 50
        E 120 90 37 00
        E 0 90 35 50
        E 120 90 35 00
        E 0 90 33 50
        E 96 90 33 00
        E 24 90 32 50
        E 96 90 32 00
        E 24 90 30 50
        E 96 90 30 00
        E 24 90 2e 50
        E 96 90 2e 00
        E 24 90 2d 50
        E 96 90 2d 00
        E 24 90 2b 50
        E 96 90 2b 00
        E 24 90 32 50
        E 192 90 32 00
        E 48 90 32 50
        E 192 90 32 00
        E 48 90 2b 50
        E 96 90 2b 00
        E 24 90 29 50
        E 96 90 29 00
        E 24 90 2e 50
        E 192 90 2e 00
        E 48 90 3a 50
        E 120 90 3a 00
        E 0 90 39 50
        E 120 90 39 00
        E 0 90 37 50
        E 96 90 37 00
        E 24 90 35 50
        E 96 90 35 00
        E 24 90 33 50
        E 96 90 33 00
        E 24 90 32 50
        E 96 90 32 00
        E 24 90 30 50
        E 96 90 30 00
        E 24 90 2e 50
        E 96 90 2e 00
        E 24 90 35 50
        E 192 90 35 00
        E 48 90 35 50
        E 192 90 35 00
        E 48 90 2e 50
        E 96 90 2e 00
        E 24 90 30 50
        E 96 90 30 00
        E 24 90 32 50
        E 96 90 32 00
        E 24 90 33 50
        E 96 90 33 00
        E 24 90 35 50
        E 192 90 35 00
        E 48 90 35 50
        E 96 90 35 00
        E 24 90 33 50
        E 96 90 33 00
        E 24 90 32 50
        E 96 90 32 00
        E 24 90 34 50
        E 96 90 34 00
        E 24 90 36 50
        E 192 90 36 00
        E 48 90 37 50
        E 192 90 37 00
        E 48 90 2b 50
        E 96 90 2b 00
        E 24 90 2e 50
        E 96 90 2e 00
        E 24 90 30 50
        E 96 90 30 00
        E 24 90 2e 50
        E 96 90 2e 00
        E 24 90 2d 50
        E 96 90 2d 00
        E 24 90 2b 50
        E 96 90 2b 00
        E 24 90 32 50
        E 192 90 32 00
        E 48 90 2b 50
        E 192 90 2b 00
        E 48 90 2e 50
        E 96 90 2e 00
        E 24 90 30 50
        E 96 90 30 00
        E 24 90 32 50
        E 96 90 32 00
        E 24 90 33 50
        E 96 90 33 00
        E 24 90 35 50
        E 192 90 35 00
        E 48 90 35 50
        E 96 90 35 00
        E 24 90 33 50
        E 96 90 33 00
        E 24 90 32 50
        E 96 90 32 00
        E 24 90 34 50
        E 96 90 34 00
        E 24 90 36 50
        E 192 90 36 00
        E 48 90 37 50
        E 192 90 37 00
        E 48 90 2b 50
        E 96 90 2b 00
        E 24 90 2e 50
        E 96 90 2e 00
        E 24 90 30 50
        E 96 90 30 00
        E 24 90 2e 50
        E 96 90 2e 00
        E 24 90 2d 50
        E 96 90 2d 00
        E 24 90 30 50
        E 96 90 30 00
        E 24 90 32 50
        E 450 90 32 00
        E 30 90 2b 50
        E 598 90 2b 00
        E 122 b0 7b 00
        GUID {51C50F11-66A6-4A41-A0B3-7748738396B3}
        IGNTEMPO 0 120 4 4
        SRCCOLOR 241
        VELLANE -1 86 6
        CFGEDITVIEW 8580.611062 90.377764 45 16 0 0 0 0 0
        KEYSNAP 0 3 102304056070 0 "Natural minor"
        TRACKSEL 252 0 0 ""
        EVTFILTER 0 -1 -1 -1 -1 0 0 0 0 -1 -1 -1 -1 0 -1 0 -1 -1
        CFGEDIT 1 0 0 0 0 0 1 0 1 1 1 0.25 413 148 1280 633 0 0 2 3 0 0 0 0 0 -1 0 0 1 64
      >
      TAKE
      NAME "Fagot - National_Anthems_-_Slovakia2.mid"
      TAKEVOLPAN 0 1 -1
      SOFFS 0 0
      PLAYRATE 1 1 0 -1 0 0.0025
      CHANMODE 0
      GUID {F20B76CF-33E1-F042-94AE-B3E6CEDE29AC}
      <SOURCE MIDI
        HASDATA 1 240 QN
        POOLEDEVTS {D0A276DB-9117-5A4A-AE42-89FF11295B34}
        <X 0 0
          /wNGYWdvdA==
        >
        E 0 90 37 50
        E 96 90 37 00
        E 24 90 32 50
        E 96 90 32 00
        E 24 90 2b 50
        E 192 90 2b 00
        E 48 90 37 50
        E 120 90 37 00
        E 0 90 35 50
        E 120 90 35 00
        E 0 90 33 50
        E 96 90 33 00
        E 24 90 32 50
        E 96 90 32 00
        E 24 90 30 50
        E 96 90 30 00
        E 24 90 2e 50
        E 96 90 2e 00
        E 24 90 2d 50
        E 96 90 2d 00
        E 24 90 2b 50
        E 96 90 2b 00
        E 24 90 32 50
        E 192 90 32 00
        E 48 90 32 50
        E 192 90 32 00
        E 48 90 2b 50
        E 96 90 2b 00
        E 24 90 29 50
        E 96 90 29 00
        E 24 90 2e 50
        E 192 90 2e 00
        E 48 90 3a 50
        E 120 90 3a 00
        E 0 90 39 50
        E 120 90 39 00
        E 0 90 37 50
        E 96 90 37 00
        E 24 90 35 50
        E 96 90 35 00
        E 24 90 33 50
        E 96 90 33 00
        E 24 90 32 50
        E 96 90 32 00
        E 24 90 30 50
        E 96 90 30 00
        E 24 90 2e 50
        E 96 90 2e 00
        E 24 90 35 50
        E 192 90 35 00
        E 48 90 35 50
        E 192 90 35 00
        E 48 90 2e 50
        E 96 90 2e 00
        E 24 90 30 50
        E 96 90 30 00
        E 24 90 32 50
        E 96 90 32 00
        E 24 90 33 50
        E 96 90 33 00
        E 24 90 35 50
        E 192 90 35 00
        E 48 90 35 50
        E 96 90 35 00
        E 24 90 33 50
        E 96 90 33 00
        E 24 90 32 50
        E 96 90 32 00
        E 24 90 34 50
        E 96 90 34 00
        E 24 90 36 50
        E 192 90 36 00
        E 48 90 37 50
        E 192 90 37 00
        E 48 90 2b 50
        E 96 90 2b 00
        E 24 90 2e 50
        E 96 90 2e 00
        E 24 90 30 50
        E 96 90 30 00
        E 24 90 2e 50
        E 96 90 2e 00
        E 24 90 2d 50
        E 96 90 2d 00
        E 24 90 2b 50
        E 96 90 2b 00
        E 24 90 32 50
        E 192 90 32 00
        E 48 90 2b 50
        E 192 90 2b 00
        E 48 90 2e 50
        E 96 90 2e 00
        E 24 90 30 50
        E 96 90 30 00
        E 24 90 32 50
        E 96 90 32 00
        E 24 90 33 50
        E 96 90 33 00
        E 24 90 35 50
        E 192 90 35 00
        E 48 90 35 50
        E 96 90 35 00
        E 24 90 33 50
        E 96 90 33 00
        E 24 90 32 50
        E 96 90 32 00
        E 24 90 34 50
        E 96 90 34 00
        E 24 90 36 50
        E 192 90 36 00
        E 48 90 37 50
        E 192 90 37 00
        E 48 90 2b 50
        E 96 90 2b 00
        E 24 90 2e 50
        E 96 90 2e 00
        E 24 90 30 50
        E 96 90 30 00
        E 24 90 2e 50
        E 96 90 2e 00
        E 24 90 2d 50
        E 96 90 2d 00
        E 24 90 2b 50
        E 96 90 2b 00
        E 24 90 32 50
        E 192 90 32 00
        E 48 90 2b 50
        E 192 90 2b 00
        E 48 90 37 50
        E 96 90 37 00
        E 24 90 32 50
        E 96 90 32 00
        E 24 90 2b 50
        E 192 90 2b 00
        E 48 90 37 50
        E 120 90 37 00
        E 0 90 35 50
        E 120 90 35 00
        E 0 90 33 50
        E 96 90 33 00
        E 24 90 32 50
        E 96 90 32 00
        E 24 90 30 50
        E 96 90 30 00
        E 24 90 2e 50
        E 96 90 2e 00
        E 24 90 2d 50
        E 96 90 2d 00
        E 24 90 2b 50
        E 96 90 2b 00
        E 24 90 32 50
        E 192 90 32 00
        E 48 90 32 50
        E 192 90 32 00
        E 48 90 2b 50
        E 96 90 2b 00
        E 24 90 29 50
        E 96 90 29 00
        E 24 90 2e 50
        E 192 90 2e 00
        E 48 90 3a 50
        E 120 90 3a 00
        E 0 90 39 50
        E 120 90 39 00
        E 0 90 37 50
        E 96 90 37 00
        E 24 90 35 50
        E 96 90 35 00
        E 24 90 33 50
        E 96 90 33 00
        E 24 90 32 50
        E 96 90 32 00
        E 24 90 30 50
        E 96 90 30 00
        E 24 90 2e 50
        E 96 90 2e 00
        E 24 90 35 50
        E 192 90 35 00
        E 48 90 35 50
        E 192 90 35 00
        E 48 90 2e 50
        E 96 90 2e 00
        E 24 90 30 50
        E 96 90 30 00
        E 24 90 32 50
        E 96 90 32 00
        E 24 90 33 50
        E 96 90 33 00
        E 24 90 35 50
        E 192 90 35 00
        E 48 90 35 50
        E 96 90 35 00
        E 24 90 33 50
        E 96 90 33 00
        E 24 90 32 50
        E 96 90 32 00
        E 24 90 34 50
        E 96 90 34 00
        E 24 90 36 50
        E 192 90 36 00
        E 48 90 37 50
        E 192 90 37 00
        E 48 90 2b 50
        E 96 90 2b 00
        E 24 90 2e 50
        E 96 90 2e 00
        E 24 90 30 50
        E 96 90 30 00
        E 24 90 2e 50
        E 96 90 2e 00
        E 24 90 2d 50
        E 96 90 2d 00
        E 24 90 2b 50
        E 96 90 2b 00
        E 24 90 32 50
        E 192 90 32 00
        E 48 90 2b 50
        E 192 90 2b 00
        E 48 90 2e 50
        E 96 90 2e 00
        E 24 90 30 50
        E 96 90 30 00
        E 24 90 32 50
        E 96 90 32 00
        E 24 90 33 50
        E 96 90 33 00
        E 24 90 35 50
        E 192 90 35 00
        E 48 90 35 50
        E 96 90 35 00
        E 24 90 33 50
        E 96 90 33 00
        E 24 90 32 50
        E 96 90 32 00
        E 24 90 34 50
        E 96 90 34 00
        E 24 90 36 50
        E 192 90 36 00
        E 48 90 37 50
        E 192 90 37 00
        E 48 90 2b 50
        E 96 90 2b 00
        E 24 90 2e 50
        E 96 90 2e 00
        E 24 90 30 50
        E 96 90 30 00
        E 24 90 2e 50
        E 96 90 2e 00
        E 24 90 2d 50
        E 96 90 2d 00
        E 24 90 30 50
        E 96 90 30 00
        E 24 90 32 50
        E 450 90 32 00
        E 30 90 2b 50
        E 598 90 2b 00
        E 122 b0 7b 00
        GUID {DB60DD1F-CA14-5B41-9DA8-208BCCDE894D}
        IGNTEMPO 0 120 4 4
        SRCCOLOR 251
        VELLANE -1 86 6
        CFGEDITVIEW 0 0 45 16 0 0 0 0 0
        KEYSNAP 0 3 102304056070 0 "Natural minor"
        TRACKSEL 252 0 0 ""
        EVTFILTER 0 -1 -1 -1 -1 0 0 0 0 -1 -1 -1 -1 0 -1 0 -1 -1
        CFGEDIT 1 0 0 0 0 0 1 0 1 1 1 0.25 413 148 1280 633 0 0 2 3 0 0 0 0 0 -1 0 0 1 64
      >
    >
    <ITEM
      POSITION 0
      SNAPOFFS 0
      LENGTH 41.5
      LOOP 1
      ALLTAKES 0
      FADEIN 1 0 0 1 0 0
      FADEOUT 1 0 0 1 0 0
      MUTE 0
      SEL 0
      YPOS 0.692446 0.05
      IGUID {50ABBC6D-2455-7740-BB68-52A666DB718A}
      IID 6
      NAME "Klarinet3 - National_Anthems_-_Slovakia2.mid"
      VOLPAN 1 0 1 -1
      SOFFS 0 0
      PLAYRATE 1 1 0 -1 0 0.0025
      CHANMODE 0
      TAKECOLOR 26173599
      GUID {4D28995D-FD08-194B-8A06-1A93C6185F74}
      <SOURCE MIDI
        HASDATA 1 240 QN
        POOLEDEVTS {8C94F1B2-485B-484D-B031-E8E7B54F1A43}
        <X 0 0
          /wNLbGFyaW5ldDM=
        >
        E 0 90 46 50
        E 96 90 46 00
        E 24 90 4a 50
        E 96 90 4a 00
        E 24 90 4a 50
        E 192 90 4a 00
        E 48 90 4a 50
        E 192 90 4a 00
        E 48 90 4b 50
        E 96 90 4b 00
        E 24 90 4a 50
        E 96 90 4a 00
        E 24 90 4b 50
        E 96 90 4b 00
        E 24 90 4a 50
        E 96 90 4a 00
        E 24 90 4a 50
        E 96 90 4a 00
        E 24 90 4a 50
        E 96 90 4a 00
        E 24 90 4a 50
        E 192 90 4a 00
        E 48 90 46 50
        E 192 90 46 00
        E 48 90 46 50
        E 96 90 46 00
        E 24 90 48 50
        E 96 90 48 00
        E 24 90 4a 50
        E 192 90 4a 00
        E 48 90 4a 50
        E 192 90 4a 00
        E 48 90 4a 50
        E 96 90 4a 00
        E 24 90 4a 50
        E 96 90 4a 00
        E 24 90 48 50
        E 96 90 48 00
        E 24 90 4a 50
        E 96 90 4a 00
        E 24 90 4b 50
        E 96 90 4b 00
        E 24 90 4a 50
        E 96 90 4a 00
        E 24 90 45 50
        E 192 90 45 00
        E 48 90 46 50
        E 192 90 46 00
        E 48 90 4a 50
        E 96 90 4a 00
        E 24 90 4a 50
        E 96 90 4a 00
        E 24 90 4a 50
        E 192 90 4a 00
        E 48 90 48 50
        E 192 90 48 00
        E 48 90 48 50
        E 96 90 48 00
        E 24 90 48 50
        E 96 90 48 00
        E 24 90 48 50
        E 96 90 48 00
        E 24 90 45 50
        E 96 90 45 00
        E 24 90 48 50
        E 192 90 48 00
        E 48 90 46 50
        E 192 90 46 00
        E 48 90 46 50
        E 96 90 46 00
        E 24 90 46 50
        E 96 90 46 00
        E 24 90 48 50
        E 96 90 48 00
        E 24 90 46 50
        E 96 90 46 00
        E 24 90 45 50
        E 96 90 45 00
        E 24 90 43 50
        E 96 90 43 00
        E 24 90 45 50
        E 192 90 45 00
        E 48 90 46 50
        E 192 90 46 00
        E 48 90 4a 50
        E 96 90 4a 00
        E 24 90 4a 50
        E 96 90 4a 00
        E 24 90 4a 50
        E 192 90 4a 00
        E 48 90 48 50
        E 192 90 48 00
        E 48 90 48 50
        E 96 90 48 00
        E 24 90 48 50
        E 96 90 48 00
        E 24 90 48 50
        E 96 90 48 00
        E 24 90 45 50
        E 96 90 45 00
        E 24 90 48 50
        E 192 90 48 00
        E 48 90 46 50
        E 192 90 46 00
        E 48 90 46 50
        E 96 90 46 00
        E 24 90 46 50
        E 96 90 46 00
        E 24 90 48 50
        E 96 90 48 00
        E 24 90 46 50
        E 96 90 46 00
        E 24 90 45 50
        E 96 90 45 00
        E 24 90 43 50
        E 96 90 43 00
        E 24 90 45 50
        E 192 90 45 00
        E 48 90 46 50
        E 192 90 46 00
        E 48 90 46 50
        E 96 90 46 00
        E 24 90 4a 50
        E 96 90 4a 00
        E 24 90 4a 50
        E 192 90 4a 00
        E 48 90 4a 50
        E 192 90 4a 00
        E 48 90 4b 50
        E 96 90 4b 00
        E 24 90 4a 50
        E 96 90 4a 00
        E 24 90 4b 50
        E 96 90 4b 00
        E 24 90 4a 50
        E 96 90 4a 00
        E 24 90 4a 50
        E 96 90 4a 00
        E 24 90 4a 50
        E 96 90 4a 00
        E 24 90 4a 50
        E 192 90 4a 00
        E 48 90 46 50
        E 192 90 46 00
        E 48 90 46 50
        E 96 90 46 00
        E 24 90 48 50
        E 96 90 48 00
        E 24 90 4a 50
        E 192 90 4a 00
        E 48 90 4a 50
        E 192 90 4a 00
        E 48 90 4a 50
        E 96 90 4a 00
        E 24 90 4a 50
        E 96 90 4a 00
        E 24 90 48 50
        E 96 90 48 00
        E 24 90 4a 50
        E 96 90 4a 00
        E 24 90 4b 50
        E 96 90 4b 00
        E 24 90 4a 50
        E 96 90 4a 00
        E 24 90 45 50
        E 192 90 45 00
        E 48 90 46 50
        E 192 90 46 00
        E 48 90 4a 50
        E 96 90 4a 00
        E 24 90 4a 50
        E 96 90 4a 00
        E 24 90 4a 50
        E 192 90 4a 00
        E 48 90 48 50
        E 192 90 48 00
        E 48 90 48 50
        E 96 90 48 00
        E 24 90 48 50
        E 96 90 48 00
        E 24 90 48 50
        E 96 90 48 00
        E 24 90 45 50
        E 96 90 45 00
        E 24 90 48 50
        E 192 90 48 00
        E 48 90 46 50
        E 192 90 46 00
        E 48 90 46 50
        E 96 90 46 00
        E 24 90 46 50
        E 96 90 46 00
        E 24 90 48 50
        E 96 90 48 00
        E 24 90 46 50
        E 96 90 46 00
        E 24 90 45 50
        E 96 90 45 00
        E 24 90 43 50
        E 96 90 43 00
        E 24 90 45 50
        E 192 90 45 00
        E 48 90 46 50
        E 192 90 46 00
        E 48 90 4a 50
        E 96 90 4a 00
        E 24 90 4a 50
        E 96 90 4a 00
        E 24 90 4a 50
        E 192 90 4a 00
        E 48 90 48 50
        E 192 90 48 00
        E 48 90 48 50
        E 96 90 48 00
        E 24 90 48 50
        E 96 90 48 00
        E 24 90 48 50
        E 96 90 48 00
        E 24 90 45 50
        E 96 90 45 00
        E 24 90 48 50
        E 192 90 48 00
        E 48 90 46 50
        E 192 90 46 00
        E 48 90 46 50
        E 96 90 46 00
        E 24 90 46 50
        E 96 90 46 00
        E 24 90 48 50
        E 96 90 48 00
        E 24 90 46 50
        E 96 90 46 00
        E 24 90 48 50
        E 96 90 48 00
        E 24 90 48 50
        E 96 90 48 00
        E 24 90 4a 50
        E 450 90 4a 00
        E 30 90 4a 50
        E 598 90 4a 00
        E 122 b0 7b 00
        GUID {8B553957-1BBE-8E49-BA3B-3AABB90F1D55}
        IGNTEMPO 0 120 4 4
        SRCCOLOR 240
        VELLANE -1 86 6
        CFGEDITVIEW 2622.940987 168.233955 51 22 0 0 0 0 0
        KEYSNAP 0 3 102304056070 0 "Natural minor"
        TRACKSEL 252 0 0 ""
        EVTFILTER 0 -1 -1 -1 -1 0 0 0 0 -1 -1 -1 -1 0 -1 0 -1 -1
        CFGEDIT 1 0 0 0 0 0 1 0 1 1 1 0.25 397 132 1280 633 0 0 2 3 0 0 0 0 0 -1 0 0 1 64
      >
      TAKE
      NAME "Klarinet3 - National_Anthems_-_Slovakia2.mid"
      TAKEVOLPAN 0 1 -1
      SOFFS 0 0
      PLAYRATE 1 1 0 -1 0 0.0025
      CHANMODE 0
      GUID {D938A690-84A9-F541-9F97-476A7CC59ECA}
      <SOURCE MIDI
        HASDATA 1 240 QN
        POOLEDEVTS {01F8DA54-87D0-F048-B4A5-64A536FC9099}
        <X 0 0
          /wNLbGFyaW5ldDM=
        >
        E 0 90 46 50
        E 96 90 46 00
        E 24 90 4a 50
        E 96 90 4a 00
        E 24 90 4a 50
        E 192 90 4a 00
        E 48 90 4a 50
        E 192 90 4a 00
        E 48 90 4b 50
        E 96 90 4b 00
        E 24 90 4a 50
        E 96 90 4a 00
        E 24 90 4b 50
        E 96 90 4b 00
        E 24 90 4a 50
        E 96 90 4a 00
        E 24 90 4a 50
        E 96 90 4a 00
        E 24 90 4a 50
        E 96 90 4a 00
        E 24 90 4a 50
        E 192 90 4a 00
        E 48 90 46 50
        E 192 90 46 00
        E 48 90 46 50
        E 96 90 46 00
        E 24 90 48 50
        E 96 90 48 00
        E 24 90 4a 50
        E 192 90 4a 00
        E 48 90 4a 50
        E 192 90 4a 00
        E 48 90 4a 50
        E 96 90 4a 00
        E 24 90 4a 50
        E 96 90 4a 00
        E 24 90 48 50
        E 96 90 48 00
        E 24 90 4a 50
        E 96 90 4a 00
        E 24 90 4b 50
        E 96 90 4b 00
        E 24 90 4a 50
        E 96 90 4a 00
        E 24 90 45 50
        E 192 90 45 00
        E 48 90 46 50
        E 192 90 46 00
        E 48 90 4a 50
        E 96 90 4a 00
        E 24 90 4a 50
        E 96 90 4a 00
        E 24 90 4a 50
        E 192 90 4a 00
        E 48 90 48 50
        E 192 90 48 00
        E 48 90 48 50
        E 96 90 48 00
        E 24 90 48 50
        E 96 90 48 00
        E 24 90 48 50
        E 96 90 48 00
        E 24 90 45 50
        E 96 90 45 00
        E 24 90 48 50
        E 192 90 48 00
        E 48 90 46 50
        E 192 90 46 00
        E 48 90 46 50
        E 96 90 46 00
        E 24 90 46 50
        E 96 90 46 00
        E 24 90 48 50
        E 96 90 48 00
        E 24 90 46 50
        E 96 90 46 00
        E 24 90 45 50
        E 96 90 45 00
        E 24 90 43 50
        E 96 90 43 00
        E 24 90 45 50
        E 192 90 45 00
        E 48 90 46 50
        E 192 90 46 00
        E 48 90 4a 50
        E 96 90 4a 00
        E 24 90 4a 50
        E 96 90 4a 00
        E 24 90 4a 50
        E 192 90 4a 00
        E 48 90 48 50
        E 192 90 48 00
        E 48 90 48 50
        E 96 90 48 00
        E 24 90 48 50
        E 96 90 48 00
        E 24 90 48 50
        E 96 90 48 00
        E 24 90 45 50
        E 96 90 45 00
        E 24 90 48 50
        E 192 90 48 00
        E 48 90 46 50
        E 192 90 46 00
        E 48 90 46 50
        E 96 90 46 00
        E 24 90 46 50
        E 96 90 46 00
        E 24 90 48 50
        E 96 90 48 00
        E 24 90 46 50
        E 96 90 46 00
        E 24 90 45 50
        E 96 90 45 00
        E 24 90 43 50
        E 96 90 43 00
        E 24 90 45 50
        E 192 90 45 00
        E 48 90 46 50
        E 192 90 46 00
        E 48 90 46 50
        E 96 90 46 00
        E 24 90 4a 50
        E 96 90 4a 00
        E 24 90 4a 50
        E 192 90 4a 00
        E 48 90 4a 50
        E 192 90 4a 00
        E 48 90 4b 50
        E 96 90 4b 00
        E 24 90 4a 50
        E 96 90 4a 00
        E 24 90 4b 50
        E 96 90 4b 00
        E 24 90 4a 50
        E 96 90 4a 00
        E 24 90 4a 50
        E 96 90 4a 00
        E 24 90 4a 50
        E 96 90 4a 00
        E 24 90 4a 50
        E 192 90 4a 00
        E 48 90 46 50
        E 192 90 46 00
        E 48 90 46 50
        E 96 90 46 00
        E 24 90 48 50
        E 96 90 48 00
        E 24 90 4a 50
        E 192 90 4a 00
        E 48 90 4a 50
        E 192 90 4a 00
        E 48 90 4a 50
        E 96 90 4a 00
        E 24 90 4a 50
        E 96 90 4a 00
        E 24 90 48 50
        E 96 90 48 00
        E 24 90 4a 50
        E 96 90 4a 00
        E 24 90 4b 50
        E 96 90 4b 00
        E 24 90 4a 50
        E 96 90 4a 00
        E 24 90 45 50
        E 192 90 45 00
        E 48 90 46 50
        E 192 90 46 00
        E 48 90 4a 50
        E 96 90 4a 00
        E 24 90 4a 50
        E 96 90 4a 00
        E 24 90 4a 50
        E 192 90 4a 00
        E 48 90 48 50
        E 192 90 48 00
        E 48 90 48 50
        E 96 90 48 00
        E 24 90 48 50
        E 96 90 48 00
        E 24 90 48 50
        E 96 90 48 00
        E 24 90 45 50
        E 96 90 45 00
        E 24 90 48 50
        E 192 90 48 00
        E 48 90 46 50
        E 192 90 46 00
        E 48 90 46 50
        E 96 90 46 00
        E 24 90 46 50
        E 96 90 46 00
        E 24 90 48 50
        E 96 90 48 00
        E 24 90 46 50
        E 96 90 46 00
        E 24 90 45 50
        E 96 90 45 00
        E 24 90 43 50
        E 96 90 43 00
        E 24 90 45 50
        E 192 90 45 00
        E 48 90 46 50
        E 192 90 46 00
        E 48 90 4a 50
        E 96 90 4a 00
        E 24 90 4a 50
        E 96 90 4a 00
        E 24 90 4a 50
        E 192 90 4a 00
        E 48 90 48 50
        E 192 90 48 00
        E 48 90 48 50
        E 96 90 48 00
        E 24 90 48 50
        E 96 90 48 00
        E 24 90 48 50
        E 96 90 48 00
        E 24 90 45 50
        E 96 90 45 00
        E 24 90 48 50
        E 192 90 48 00
        E 48 90 46 50
        E 192 90 46 00
        E 48 90 46 50
        E 96 90 46 00
        E 24 90 46 50
        E 96 90 46 00
        E 24 90 48 50
        E 96 90 48 00
        E 24 90 46 50
        E 96 90 46 00
        E 24 90 48 50
        E 96 90 48 00
        E 24 90 48 50
        E 96 90 48 00
        E 24 90 4a 50
        E 450 90 4a 00
        E 30 90 4a 50
        E 598 90 4a 00
        E 122 b0 7b 00
        GUID {A14311FA-A34E-704B-A9E0-0273B8604FBA}
        IGNTEMPO 0 120 4 4
        SRCCOLOR 255
        VELLANE -1 86 6
        CFGEDITVIEW 0 0 51 22 0 0 0 0 0
        KEYSNAP 0 3 102304056070 0 "Natural minor"
        TRACKSEL 252 0 0 ""
        EVTFILTER 0 -1 -1 -1 -1 0 0 0 0 -1 -1 -1 -1 0 -1 0 -1 -1
        CFGEDIT 1 0 0 0 0 0 1 0 1 1 1 0.25 397 132 1280 633 0 0 2 3 0 0 0 0 0 -1 0 0 1 64
      >
    >
  >
  <TRACK {BE34EA7E-2789-BE43-9D9C-227AFB60631D}
    NAME "ch5 (send bass)"
    PEAKCOL 16576
    BEAT -1
    AUTOMODE 0
    VOLPAN 1 0 -1 -1 1
    MUTESOLO 0 0 0
    IPHASE 0
    ISBUS 2 -1
    BUSCOMP 0 0
    SHOWINMIX 1 0.6667 0.698113 1 0.5 -1 -1 -1
    FREEMODE 0
    SEL 0
    REC 0 0 0 0 0 0 0
    VU 2
    TRACKHEIGHT 0 0
    INQ 0 0 0 0.5 100 0 0 100
    NCHAN 2
    FX 1
    TRACKID {BE34EA7E-2789-BE43-9D9C-227AFB60631D}
    PERF 0
    MIDIOUT -1
    MAINSEND 1 0
  >
  <TRACK {B91E5163-8C2B-404F-8C78-0605AAF52936}
    NAME ChipFront
    PEAKCOL 16576
    BEAT -1
    AUTOMODE 0
    VOLPAN 1 0 -1 -1 1
    MUTESOLO 0 0 0
    IPHASE 0
    ISBUS 0 0
    BUSCOMP 0 0
    SHOWINMIX 1 0.6667 0.698113 1 0.5 -1 -1 -1
    FREEMODE 0
    SEL 0
    REC 0 0 0 0 0 0 0
    VU 2
    TRACKHEIGHT 0 0
    INQ 0 0 0 0.5 100 0 0 100
    NCHAN 4
    FX 1
    TRACKID {B91E5163-8C2B-404F-8C78-0605AAF52936}
    PERF 0
    AUXRECV 6 0 1 0 0 0 0 0 0 -1 0 -1 ''
    MIDIOUT -1
    MAINSEND 1 0
    <FXCHAIN
      SHOW 0
      LASTSEL 0
      DOCKED 0
      BYPASS 0 0 0
      <VST "VST: FabFilter Volcano 2 (SC) (FabFilter)" "FabFilter Volcano 2 (SC).vst" 0 ""
        NDJWRu9e7f4EAAAAAQAAAAAAAAACAAAAAAAAAAQAAAAAAAAACAAAAAAAAAAEAAAAAQAAAAAAAAACAAAAAAAAAAQAAAAAAAAACAAAAAAAAADcCwAAAAAAAAAAEADvvq3e
        DfCt3gAAAD8AAAA/AAAAPwAAAD8AAIA/AAAAAAAAAD+rqqo+rb5oPwAAAD+KDTI8zczMPQAAAAAAAAAAAAAAAAAAgD8AAIA/Qix2PwAAAD9tsOA9mpkZPwAAAAAAAAAA
        56/fPAAAgD8AAAAAAACAPwAAAD8AAAAAmpkZPwAAAAAAAAAAAAAAAAAAgD8AAAAAAACAPwAAAD8AAAAAmpkZPwAAAAAAAAAAAAAAAAAAgD8AAAAAq6qqPgBOsj4AAAA/
        AAAAAMHKST9ddFE/AAAAAImIiD0AAIA/qheIPgAAAAAAAAAAAAAAAAAAAAAAAIA/AAAAAAAAAD8AAAAAAAAAAAAAAAAAAAA/AAAAAAAAAAAAAAAAAAAAPwAAAAAAAAAA
        AAAAAAAAAD8AAAAAAAAAAAAAAAAAAAA/AAAAAAAAAAAAAAAAAAAAPwAAAAAAAAAAAAAAAAAAAD8AAAAAAAAAAAAAAAAAAAA/AAAAAAAAAAAAAAAAAAAAPwAAAAAAAAAA
        AAAAAAAAAD8AAAAAAAAAAAAAAAAAAAA/AAAAAAAAAAAAAAAAAAAAPwAAAAAAAAAAAAAAAAAAAD8AAAAAAAAAAAAAAAAAAAA/AAAAAAAAAAAAAAAAfBkQPgAAAD8oo7c9
        AACAPwAAAAAAAAAAiYiIPfLSJT8AAAAAAACAPwAAAAB0aNE9AAAAAAAAgD8AAAAAAAAAPwAAAAAAAAAAAAAAAAAAAD8AAAAAAAAAAAAAAAAAAAA/AAAAAAAAAAAAAAAA
        AAAAPwAAAAAAAAAAAAAAAAAAAD8AAAAAAAAAAAAAAAAAAAA/AAAAAAAAAAAAAAAAAAAAPwAAAAAAAAAAAAAAAAAAAD8AAAAAAAAAAAAAAAAAAAA/AAAAAAAAAAAAAAAA
        AAAAPwAAAAAAAAAAAAAAAAAAAD8AAAAAAAAAAAAAAAAAAAA/AAAAAAAAAAAAAAAAAAAAPwAAAAAAAAAAAAAAAAAAAD8AAAAAAAAAAAAAAAC+9H0+AAAAPwAAAD8AAAA/
        AAAAAAAAAACJiIg9AAAAPwAAAAAAAAAAAAAAAAAAAD8AAAAAAAAAAAAAAAAAAAA/AAAAAAAAAAAAAAAAAAAAPwAAAAAAAAAAAAAAAAAAAD8AAAAAAAAAAAAAAAAAAAA/
        AAAAAAAAAAAAAAAAAAAAPwAAAAAAAAAAAAAAAAAAAD8AAAAAAAAAAAAAAAAAAAA/AAAAAAAAAAAAAAAAAAAAPwAAAAAAAAAAAAAAAAAAAD8AAAAAAAAAAAAAAAAAAAA/
        AAAAAAAAAAAAAAAAAAAAPwAAAAAAAAAAAAAAAAAAAD8AAAAAAAAAAAAAAAAAAAA/AAAAAAAAAAAAAAAAAAAAPwAAAAAAAAAAAAAAAL70fT4AAAA/AAAAPwAAAD8AAAAA
        AAAAAImIiD0AAAA/AAAAAAAAAAAAAAAAAAAAPwAAAAAAAAAAAAAAAAAAAD8AAAAAAAAAAAAAAAAAAAA/AAAAAAAAAAAAAAAAAAAAPwAAAAAAAAAAAAAAAAAAAD8AAAAA
        AAAAAAAAAAAAAAA/AAAAAAAAAAAAAAAAAAAAPwAAAAAAAAAAAAAAAAAAAD8AAAAAAAAAAAAAAAAAAAA/AAAAAAAAAAAAAAAAAAAAPwAAAAAAAAAAAAAAAAAAAD8AAAAA
        AAAAAAAAAAAAAAA/AAAAAAAAAAAAAAAAAAAAPwAAAAAAAAAAAAAAAAAAAD8AAAAAAAAAAAAAAAAAAAA/AAAAAAAAAAAAAAAAvvR9PgAAAD8AAAA/AAAAPwAAAAAAAAAA
        iYiIPQAAAD8AAAAAAAAAAAAAAAAAAAA/AAAAAAAAAAAAAAAAAAAAPwAAAAAAAAAAAAAAAAAAAD8AAAAAAAAAAAAAAAAAAAA/AAAAAAAAAAAAAAAAAAAAPwAAAAAAAAAA
        AAAAAAAAAD8AAAAAAAAAAAAAAAAAAAA/AAAAAAAAAAAAAAAAAAAAPwAAAAAAAAAAAAAAAAAAAD8AAAAAAAAAAAAAAAAAAAA/AAAAAAAAAAAAAAAAAAAAPwAAAAAAAAAA
        AAAAAAAAAD8AAAAAAAAAAAAAAAAAAAA/AAAAAAAAAAAAAAAAAAAAPwAAAAAAAAAAAAAAAAAAAD8AAAAAAAAAAAAAAAC+9H0+AAAAPwAAAD8AAAA/AAAAAAAAAACJiIg9
        AAAAPwAAAAAAAAAAAAAAAAAAAD8AAAAAAAAAAAAAAAAAAAA/AAAAAAAAAAAAAAAAAAAAPwAAAAAAAAAAAAAAAAAAAD8AAAAAAAAAAAAAAAAAAAA/AAAAAAAAAAAAAAAA
        AAAAPwAAAAAAAAAAAAAAAAAAAD8AAAAAAAAAAAAAAAAAAAA/AAAAAAAAAAAAAAAAAAAAPwAAAAAAAAAAAAAAAAAAAD8AAAAAAAAAAAAAAAAAAAA/AAAAAAAAAAAAAAAA
        AAAAPwAAAAAAAAAAAAAAAAAAAD8AAAAAAAAAAAAAAAAAAAA/AAAAAAAAAAAAAAAAAAAAPwAAAAAAAAAAAAAAAAAAAACamZk+AAAAAAAAAAAAAAAAAACAPwAAAACamZk+
        AAAAAAAAAAAAAAAAAACAPwAAAACamZk+AAAAAAAAAAAAAAAAAACAPwAAAACamZk+AAAAAAAAAAAAAAAAAACAPwAAAACamZk+AAAAAAAAAAAAAAAAAACAPwAAAACamZk+
        AAAAAAAAAAAAAAAAAACAPwAAAAAAAAAAAAAAAAAAAAAAAAAAAAAAAAAAAAAAAAAAAAAAAAAAAAAAAAAAAAAAAAAAAAAAAAAAAAAAAAAAAAAAAAAAAAAAAAAAAAAAAAAA
        AAAAAAAAAAAAAAAAAAAAAAAAAAAAAAAAAAAAAAAAAAAAAAAAAAAAAAAAAAAAAAAAAAAAAAAAAAAAAAAAAAAAAAAAAAAAAAAAq6oqPdmJnT2BKFY+AAAAAAAAAAC/55Y9
        AAAAAAAAAD8AAAAAAAAAAAAAAAAAAAAAAAAAPwAAAAAAAAAAAAAAAAAAAAAAAAA/AAAAAAAAAAAAAAAAAAAAAAAAAAAAAAAAAAAAAAAAAAAAAAAAAAAAAAAAAAAAAAAA
        AAAAAAAAAAAAAAAAAAAAAAAAAAAAAAAAAAAAAAAAAAAAAAAAAAAAAAAAAAAAAAAAAAAAAAAAAAAAAAAAAAAAAAAAAAAAAAAAAAAAAAAAAAAAAAAAAAAAAAAAAAAAAAAA
        AAAAAAAAAAAAAAAAAAAAAAAAAAAAAAAAAAAAAAAAAAAAAAAAAAAAAAAAAAAAAAAAAAAAAAAAAAAAAAAAAAAAAAAAAAAAAAAAAAAAAAAAAAAAAAAAAAAAAAAAAAAAAAAA
        AAAAAAAAAAAAAAAAAAAAAAAAAAAAAAAAAAAAAAAAAAAAAAAAAAAAAAAAAAAAAAAAAAAAAAAAAAAAAAAAAAAAAAAAAAAAAAAAAAAAAAAAAAAAAAAAAAAAAAAAAAAAAAAA
        AAAAAAAAAAAAAAAAAAAAAAAAAAAAAAAAAAAAAAAAAAAAAAAAAAAAAAAAAAAAAAAAAAAAAAAAAAAAAAAAAAAAAAAAAAAAAAAAAAAAAAAAAAAAAAA/AAAAPwAAAD8AAAA/
        AAAAPwAAAD8AAAA/AAAAPwAAAAAAAAAAAAAAAAAAAAAAAAAAAAAAAAAAAAAAAAAAAAAAAAAAAAAAAAAAAAAAAAAAAAAAAAAAAAAAAAAAAAAAAAAAAAAAAAAAAAAAAAAA
        AAAAAAAAAAAAAAAAAAAAAAAAAAAAAAAAAAAAAAAAAAAAAAAAAAAAAAAAAAAAAAAAAAAAAAAAAAAAAAAAAAAAAAAAAAAAAAAAAAAAAAAAAAAAAAAAAAAAAAAAAAAAAAAA
        AAAAAAAAAAAAAAAAAAAAAAAAAAAAAAAAAAAAAAAAAAAAAAAAAAAAAAAAAAAAAAAAAAAAAAAAAAAAAAAAAAAAAAAAAAAAAAAAAAAAAAAAAAAAAAAAAAAAAAAAAAAAAAAA
        AAAAAAAAAAAAAAAAAAAAAAAAAAAAAAAAAAAAAAAAAAAAAAAAAAAAAAAAAAAAAAAAAAAAAAAAAABDaGlwRnJvbnQAQ2hpcEZyb250ABAAAAA=
      >
      FLOATPOS 36 32 641 529
      FXID {4C5A6810-F3ED-0645-A06D-6758F70CB097}
      WAK 0
    >
  >
  <TRACK {4E9F66C4-38E7-4946-B39F-214CBB1CFB8B}
    NAME ChipSide
    PEAKCOL 16576
    BEAT -1
    AUTOMODE 0
    VOLPAN 1 0 -1 -1 1
    MUTESOLO 0 0 0
    IPHASE 0
    ISBUS 0 0
    BUSCOMP 0 0
    SHOWINMIX 1 0.6667 0.698113 1 0.5 -1 -1 -1
    FREEMODE 0
    SEL 0
    REC 0 0 0 0 0 0 0
    VU 2
    TRACKHEIGHT 0 0
    INQ 0 0 0 0.5 100 0 0 100
    NCHAN 4
    FX 1
    TRACKID {4E9F66C4-38E7-4946-B39F-214CBB1CFB8B}
    PERF 0
    AUXRECV 6 0 1.03113579563571 0 0 0 0 2 0 -1 0 -1 ''
    MIDIOUT -1
    MAINSEND 1 0
    <FXCHAIN
      SHOW 0
      LASTSEL 0
      DOCKED 0
      BYPASS 0 0 0
      <VST "VST: FabFilter Volcano 2 (SC) (FabFilter)" "FabFilter Volcano 2 (SC).vst" 0 ""
        NDJWRu9e7f4EAAAAAQAAAAAAAAACAAAAAAAAAAQAAAAAAAAACAAAAAAAAAAIAAAAAQAAAAAAAAACAAAAAAAAAAQAAAAAAAAACAAAAAAAAAAQAAAAAAAAACAAAAAAAAAA
        QAAAAAAAAACAAAAAAAAAANwLAAAAAAAAAAAQAO++rd4N8K3eAAAAPwAAAD8AAAA/AAAAPwAAgD8AAAAAAACAP6uqqj7KZRQ/AAAAP08aoD3NzMw9AAAAAAAAAABChiI/
        AACAPwAAgD9CLHY/AAAAP22w4D2amRk/AAAAAAAAAADnr988AACAPwAAAAAAAIA/AAAAPwAAAACamRk/AAAAAAAAAAAAAAAAAACAPwAAAAAAAIA/AAAAPwAAAACamRk/
        AAAAAAAAAAAAAAAAAACAPwAAAACrqqo+gnQAPRDmyT2YJ/o+AACAPwAAAAAAAAAAiYgIPgAAgD+zw7Q+AACAPwAAAAAAAAAAAAAAAKuqqj4AAAAAnhUdPwAAAAAAAIA/
        AAAAAAAAAD8AAAAAAAAAAAAAAAAAAAA/AAAAAAAAAAAAAAAAAAAAPwAAAAAAAAAAAAAAAAAAAD8AAAAAAAAAAAAAAAAAAAA/AAAAAAAAAAAAAAAAAAAAPwAAAAAAAAAA
        AAAAAAAAAD8AAAAAAAAAAAAAAAAAAAA/AAAAAAAAAAAAAAAAAAAAPwAAAAAAAAAAAAAAAAAAAD8AAAAAAAAAAAAAAAAAAAA/AAAAAAAAAAAAAAAAAAAAPwAAAAAAAAAA
        AAAAAAAAAD8AAAAAAAAAAAAAAAB8GRA+AAAAPyijtz0AAIA/AAAAAAAAAACJiIg98tIlPwAAAAAAAIA/AAAAAHRo0T0AAAAAAACAPwAAAAAAAAA/AAAAAAAAAAAAAAAA
        AAAAPwAAAAAAAAAAAAAAAAAAAD8AAAAAAAAAAAAAAAAAAAA/AAAAAAAAAAAAAAAAAAAAPwAAAAAAAAAAAAAAAAAAAD8AAAAAAAAAAAAAAAAAAAA/AAAAAAAAAAAAAAAA
        AAAAPwAAAAAAAAAAAAAAAAAAAD8AAAAAAAAAAAAAAAAAAAA/AAAAAAAAAAAAAAAAAAAAPwAAAAAAAAAAAAAAAAAAAD8AAAAAAAAAAAAAAAAAAAA/AAAAAAAAAAAAAAAA
        AAAAPwAAAAAAAAAAAAAAAL70fT4AAAA/AAAAPwAAAD8AAAAAAAAAAImIiD0AAAA/AAAAAAAAAAAAAAAAAAAAPwAAAAAAAAAAAAAAAAAAAD8AAAAAAAAAAAAAAAAAAAA/
        AAAAAAAAAAAAAAAAAAAAPwAAAAAAAAAAAAAAAAAAAD8AAAAAAAAAAAAAAAAAAAA/AAAAAAAAAAAAAAAAAAAAPwAAAAAAAAAAAAAAAAAAAD8AAAAAAAAAAAAAAAAAAAA/
        AAAAAAAAAAAAAAAAAAAAPwAAAAAAAAAAAAAAAAAAAD8AAAAAAAAAAAAAAAAAAAA/AAAAAAAAAAAAAAAAAAAAPwAAAAAAAAAAAAAAAAAAAD8AAAAAAAAAAAAAAAAAAAA/
        AAAAAAAAAAAAAAAAvvR9PgAAAD8AAAA/AAAAPwAAAAAAAAAAiYiIPQAAAD8AAAAAAAAAAAAAAAAAAAA/AAAAAAAAAAAAAAAAAAAAPwAAAAAAAAAAAAAAAAAAAD8AAAAA
        AAAAAAAAAAAAAAA/AAAAAAAAAAAAAAAAAAAAPwAAAAAAAAAAAAAAAAAAAD8AAAAAAAAAAAAAAAAAAAA/AAAAAAAAAAAAAAAAAAAAPwAAAAAAAAAAAAAAAAAAAD8AAAAA
        AAAAAAAAAAAAAAA/AAAAAAAAAAAAAAAAAAAAPwAAAAAAAAAAAAAAAAAAAD8AAAAAAAAAAAAAAAAAAAA/AAAAAAAAAAAAAAAAAAAAPwAAAAAAAAAAAAAAAAAAAD8AAAAA
        AAAAAAAAAAC+9H0+AAAAPwAAAD8AAAA/AAAAAAAAAACJiIg9AAAAPwAAAAAAAAAAAAAAAAAAAD8AAAAAAAAAAAAAAAAAAAA/AAAAAAAAAAAAAAAAAAAAPwAAAAAAAAAA
        AAAAAAAAAD8AAAAAAAAAAAAAAAAAAAA/AAAAAAAAAAAAAAAAAAAAPwAAAAAAAAAAAAAAAAAAAD8AAAAAAAAAAAAAAAAAAAA/AAAAAAAAAAAAAAAAAAAAPwAAAAAAAAAA
        AAAAAAAAAD8AAAAAAAAAAAAAAAAAAAA/AAAAAAAAAAAAAAAAAAAAPwAAAAAAAAAAAAAAAAAAAD8AAAAAAAAAAAAAAAAAAAA/AAAAAAAAAAAAAAAAAAAAPwAAAAAAAAAA
        AAAAAL70fT4AAAA/AAAAPwAAAD8AAAAAAAAAAImIiD0AAAA/AAAAAAAAAAAAAAAAAAAAPwAAAAAAAAAAAAAAAAAAAD8AAAAAAAAAAAAAAAAAAAA/AAAAAAAAAAAAAAAA
        AAAAPwAAAAAAAAAAAAAAAAAAAD8AAAAAAAAAAAAAAAAAAAA/AAAAAAAAAAAAAAAAAAAAPwAAAAAAAAAAAAAAAAAAAD8AAAAAAAAAAAAAAAAAAAA/AAAAAAAAAAAAAAAA
        AAAAPwAAAAAAAAAAAAAAAAAAAD8AAAAAAAAAAAAAAAAAAAA/AAAAAAAAAAAAAAAAAAAAPwAAAAAAAAAAAAAAAAAAAD8AAAAAAAAAAAAAAAAAAAA/AAAAAAAAAAAAAAAA
        AAAAAJqZmT4AAAAAAAAAAAAAAAAAAIA/AAAAAJqZmT4AAAAAAAAAAAAAAAAAAIA/AAAAAJqZmT4AAAAAAAAAAAAAAAAAAIA/AAAAAJqZmT4AAAAAAAAAAAAAAAAAAIA/
        AAAAAJqZmT4AAAAAAAAAAAAAAAAAAIA/AAAAAJqZmT4AAAAAAAAAAAAAAAAAAIA/AAAAAAAAAAAAAAAAAAAAAAAAAAAAAAAAAAAAAAAAAAAAAAAAAAAAAAAAAAAAAAAA
        AAAAAAAAAAAAAAAAAAAAAAAAAAAAAAAAAAAAAAAAAAAAAAAAAAAAAAAAAAAAAAAAAAAAAAAAAAAAAAAAAAAAAAAAAAAAAAAAAAAAAAAAAAAAAAAAAAAAAAAAAAAAAAAA
        AAAAAAAAAACrqqo92YmdPYEoVj4AAIA/AAAAAL/nlj3ZiR09FrMxPwAAAAAAAAAAknYsPAAAAAAAAAA/AAAAAAAAAAAAAAAAAAAAAAAAAD8AAAAAAAAAAAAAAAAAAAAA
        AAAAAAAAAAAAAAAAAAAAAAAAAAAAAAAAAAAAAAAAAAAAAAAAAAAAAAAAAAAAAAAAAAAAAAAAAAAAAAAAAAAAAAAAAAAAAAAAAAAAAAAAAAAAAAAAAAAAAAAAAAAAAAAA
        AAAAAAAAAAAAAAAAAAAAAAAAAAAAAAAAAAAAAAAAAAAAAAAAAAAAAAAAAAAAAAAAAAAAAAAAAAAAAAAAAAAAAAAAAAAAAAAAAAAAAAAAAAAAAAAAAAAAAAAAAAAAAAAA
        AAAAAAAAAAAAAAAAAAAAAAAAAAAAAAAAAAAAAAAAAAAAAAAAAAAAAAAAAAAAAAAAAAAAAAAAAAAAAAAAAAAAAAAAAAAAAAAAAAAAAAAAAAAAAAAAAAAAAAAAAAAAAAAA
        AAAAAAAAAAAAAAAAAAAAAAAAAAAAAAAAAAAAAAAAAAAAAAAAAAAAAAAAAAAAAAAAAAAAAAAAAAAAAAAAAAAAAAAAAAAAAAAAAAAAAAAAAAAAAAAAAAAAAAAAAAAAAAAA
        AAAAAAAAAAAAAAAAAAAAAAAAAD8AAAA/AAAAPwAAAD8AAAA/AAAAPwAAAD8AAAA/AAAAAAAAAAAAAAAAAAAAAAAAAAAAAAAAAAAAAAAAAAAAAAAAAAAAAAAAAAAAAAAA
        AAAAAAAAAAAAAAAAAAAAAAAAAAAAAAAAAAAAAAAAAAAAAAAAAAAAAAAAAAAAAAAAAAAAAAAAAAAAAAAAAAAAAAAAAAAAAAAAAAAAAAAAAAAAAAAAAAAAAAAAAAAAAAAA
        AAAAAAAAAAAAAAAAAAAAAAAAAAAAAAAAAAAAAAAAAAAAAAAAAAAAAAAAAAAAAAAAAAAAAAAAAAAAAAAAAAAAAAAAAAAAAAAAAAAAAAAAAAAAAAAAAAAAAAAAAAAAAAAA
        AAAAAAAAAAAAAAAAAAAAAAAAAAAAAAAAAAAAAAAAAAAAAAAAAAAAAAAAAAAAAAAAAAAAAAAAAAAAAAAAAAAAAAAAAAAAAAAAAAAAAAAAAAAAAAAAAAAAAENoaXBTaWRl
        AENoaXBTaWRlABAAAAA=
      >
      FLOATPOS 36 32 641 529
      FXID {20356A84-5CFD-6E4A-AA26-2A8A49CE7A76}
      WAK 0
    >
  >
  <EXTENSIONS
    <SWSAUTOCOLOR
      {00000000-0000-0000-0000-000000000000} 0 ""
    >
    <XENAKIOSCOMMANDS
      REFTRACK 0 7 1 "0000000000000"
    >
    <BR_CURSOR_POS 04
      0.00000000000000
    >
  >
>
