<REAPER_PROJECT 0.1 "5.65pre18/OSX64" 1512140616
  RIPPLE 0
  GROUPOVERRIDE 0 0 0
  AUTOXFADE 0
  ENVATTACH 1
  POOLEDENVATTACH 0
  MIXERUIFLAGS 11 436
  PEAKGAIN 1
  FEEDBACK 0
  PANLAW 1
  PROJOFFS 0 0
  MAXPROJLEN 0 600
  GRID 174206 8 1 8 1 0 0 0
  TIMEMODE 6 0 -1 24 2
  PANMODE 3
  CURSOR 0
  ZOOM 5.40878929323954 0 0
  VZOOMEX 0
  USE_REC_CFG 0
  RECMODE 1
  SMPTESYNC 0 23.976024 100 40 1000 300 0 0 1 0 0
  MIDIEDITOR -116919545 0 0
  LOOP 1
  LOOPGRAN 0 4
  RECORD_PATH "" ""
  <RECORD_CFG
    ZXZhdxAA
  >
  <APPLYFX_CFG
  >
  RENDER_FILE ""
  RENDER_PATTERN slovakia2_1
  RENDER_FMT 0 2 44100
  RENDER_1X 0
  RENDER_RANGE 2 0 0 18 1000
  RENDER_RESAMPLE 3 0 1
  RENDER_ADDTOPROJ 0
  RENDER_STEMS 0
  RENDER_DITHER 0
  TIMELOCKMODE 1
  TEMPOENVLOCKMODE 1
  ITEMMIX 1
  DEFPITCHMODE 589824
  TAKELANE 3
  SAMPLERATE 44100 0 0
  <RENDER_CFG
    bDNwbSAAAAABAAAABQAAAAAAAAAAAAAAQAEAAAAAAAA=
  >
  LOCK 1
  <METRONOME 6 2
    VOL 0.25 0.125
    FREQ 800 1600 1
    BEATLEN 4
    SAMPLES "" ""
    PATTERN 2863311530 2863311529
  >
  GLOBAL_AUTO -1
  TEMPO 120 4 4
  PLAYRATE 1 0 0.25 4
  SELECTION 0 41.5
  SELECTION2 0 41.5
  MASTERAUTOMODE 0
  MASTERTRACKHEIGHT 63
  MASTERPEAKCOL 16576
  MASTERMUTESOLO 0
  MASTERTRACKVIEW 0 0.6667 0.5 0.111111 0 0 0
  MASTERHWOUT 0 0 1 0 0 0 0 -1
  MASTER_NCH 2 2
  MASTER_VOLUME 1 0 -1 -1 1
  MASTER_FX 1
  MASTER_SEL 0
  <MASTERPLAYSPEEDENV
    ACT 0 -1
    VIS 0 1 1
    LANEHEIGHT 0 0
    ARM 0
    DEFSHAPE 0 -1 -1
  >
  <TEMPOENVEX
    ACT 0 -1
    VIS 1 0 1
    LANEHEIGHT 0 0
    ARM 0
    DEFSHAPE 1 -1 -1
  >
  <PROJBAY
  >
  <TRACK {EC118F63-5628-C045-9C40-05B4A7A3D4BD}
    NAME midi
    PEAKCOL 16576
    BEAT -1
    AUTOMODE 0
    VOLPAN 1 0 -1 -1 1
    MUTESOLO 1 0 0
    IPHASE 0
    ISBUS 0 0
    BUSCOMP 0 0
    SHOWINMIX 1 0.6667 0.5 1 0.111111 0 0 0
    FREEMODE 0
    SEL 0
    REC 0 0 0 0 0 0 0
    VU 2
    TRACKHEIGHT 222 0
    INQ 0 0 0 0.5 100 0 0 100
    NCHAN 2
    FX 1
    TRACKID {EC118F63-5628-C045-9C40-05B4A7A3D4BD}
    PERF 0
    MIDIOUT -1
    MAINSEND 1 0
    <FXCHAIN
      WNDRECT 528 36 724 387
      SHOW 0
      LASTSEL 0
      DOCKED 1
    >
    <ITEM
      POSITION 0
      SNAPOFFS 0
      LENGTH 41.5
      LOOP 1
      ALLTAKES 0
      FADEIN 1 0 0 1 0 0
      FADEOUT 1 0 0 1 0 0
      MUTE 0
      SEL 0
      YPOS 0 0.05
      IGUID {2C790C21-0806-D44D-B7AB-559979285034}
      IID 1
      NAME "Pikola - National_Anthems_-_Slovakia2.mid"
      VOLPAN 1 0 1 -1
      SOFFS 0 0
      PLAYRATE 1 1 0 -1 0 0.0025
      CHANMODE 0
      TAKECOLOR 26173599 B
      GUID {682E6430-7396-364C-A4D1-4C078CF54BBF}
      <SOURCE MIDI
        HASDATA 1 240 QN
        POOLEDEVTS {AF82C34E-F0E0-314F-99FB-A3C607B3CB48}
        <X 0 0 0 0 3 untitled
          /wN1bnRpdGxlZA==
        >
        <X 0 0 0 0 3 Pikola
          /wNQaWtvbGE=
        >
        E 0 90 4f 50
        E 96 90 4f 00
        E 24 90 51 50
        E 96 90 51 00
        E 24 90 52 50
        E 192 90 52 00
        E 48 90 52 50
        E 192 90 52 00
        E 48 90 52 50
        E 96 90 52 00
        E 24 90 52 50
        E 96 90 52 00
        E 24 90 51 50
        E 96 90 51 00
        E 24 90 52 50
        E 96 90 52 00
        E 24 90 54 50
        E 96 90 54 00
        E 24 90 52 50
        E 96 90 52 00
        E 24 90 51 50
        E 192 90 51 00
        E 48 90 4f 50
        E 192 90 4f 00
        E 48 90 52 50
        E 96 90 52 00
        E 24 90 54 50
        E 96 90 54 00
        E 24 90 56 50
        E 192 90 56 00
        E 48 90 56 50
        E 192 90 56 00
        E 48 90 56 50
        E 96 90 56 00
        E 24 90 56 50
        E 96 90 56 00
        E 24 90 54 50
        E 96 90 54 00
        E 24 90 56 50
        E 96 90 56 00
        E 24 90 57 50
        E 96 90 57 00
        E 24 90 56 50
        E 96 90 56 00
        E 24 90 54 50
        E 192 90 54 00
        E 48 90 52 50
        E 192 90 52 00
        E 48 90 56 50
        E 96 90 56 00
        E 24 90 56 50
        E 96 90 56 00
        E 24 90 56 50
        E 192 90 56 00
        E 48 90 54 50
        E 192 90 54 00
        E 48 90 54 50
        E 96 90 54 00
        E 24 90 54 50
        E 96 90 54 00
        E 24 90 54 50
        E 96 90 54 00
        E 24 90 56 50
        E 96 90 56 00
        E 24 90 54 50
        E 192 90 54 00
        E 48 90 52 50
        E 192 90 52 00
        E 48 90 52 50
        E 96 90 52 00
        E 24 90 52 50
        E 96 90 52 00
        E 24 90 51 50
        E 96 90 51 00
        E 24 90 52 50
        E 96 90 52 00
        E 24 90 54 50
        E 96 90 54 00
        E 24 90 52 50
        E 96 90 52 00
        E 24 90 51 50
        E 192 90 51 00
        E 48 90 4f 50
        E 192 90 4f 00
        E 48 90 56 50
        E 96 90 56 00
        E 24 90 56 50
        E 96 90 56 00
        E 24 90 56 50
        E 192 90 56 00
        E 48 90 54 50
        E 192 90 54 00
        E 48 90 54 50
        E 96 90 54 00
        E 24 90 54 50
        E 96 90 54 00
        E 24 90 54 50
        E 96 90 54 00
        E 24 90 56 50
        E 96 90 56 00
        E 24 90 54 50
        E 192 90 54 00
        E 48 90 52 50
        E 192 90 52 00
        E 48 90 52 50
        E 96 90 52 00
        E 24 90 52 50
        E 96 90 52 00
        E 24 90 51 50
        E 96 90 51 00
        E 24 90 52 50
        E 96 90 52 00
        E 24 90 54 50
        E 96 90 54 00
        E 24 90 52 50
        E 96 90 52 00
        E 24 90 51 50
        E 192 90 51 00
        E 48 90 4f 50
        E 192 90 4f 00
        E 48 90 4f 50
        E 96 90 4f 00
        E 24 90 51 50
        E 96 90 51 00
        E 24 90 52 50
        E 192 90 52 00
        E 48 90 52 50
        E 192 90 52 00
        E 48 90 52 50
        E 96 90 52 00
        E 24 90 52 50
        E 96 90 52 00
        E 24 90 51 50
        E 96 90 51 00
        E 24 90 52 50
        E 96 90 52 00
        E 24 90 54 50
        E 96 90 54 00
        E 24 90 52 50
        E 96 90 52 00
        E 24 90 51 50
        E 192 90 51 00
        E 48 90 4f 50
        E 192 90 4f 00
        E 48 90 52 50
        E 96 90 52 00
        E 24 90 54 50
        E 96 90 54 00
        E 24 90 56 50
        E 192 90 56 00
        E 48 90 56 50
        E 192 90 56 00
        E 48 90 56 50
        E 96 90 56 00
        E 24 90 56 50
        E 96 90 56 00
        E 24 90 54 50
        E 96 90 54 00
        E 24 90 56 50
        E 96 90 56 00
        E 24 90 57 50
        E 96 90 57 00
        E 24 90 56 50
        E 96 90 56 00
        E 24 90 54 50
        E 192 90 54 00
        E 48 90 52 50
        E 192 90 52 00
        E 48 90 56 50
        E 96 90 56 00
        E 24 90 56 50
        E 96 90 56 00
        E 24 90 56 50
        E 192 90 56 00
        E 48 90 54 50
        E 192 90 54 00
        E 48 90 54 50
        E 96 90 54 00
        E 24 90 54 50
        E 96 90 54 00
        E 24 90 54 50
        E 96 90 54 00
        E 24 90 56 50
        E 96 90 56 00
        E 24 90 54 50
        E 192 90 54 00
        E 48 90 52 50
        E 192 90 52 00
        E 48 90 52 50
        E 96 90 52 00
        E 24 90 52 50
        E 96 90 52 00
        E 24 90 51 50
        E 96 90 51 00
        E 24 90 52 50
        E 96 90 52 00
        E 24 90 54 50
        E 96 90 54 00
        E 24 90 52 50
        E 96 90 52 00
        E 24 90 51 50
        E 192 90 51 00
        E 48 90 4f 50
        E 192 90 4f 00
        E 48 90 56 50
        E 96 90 56 00
        E 24 90 56 50
        E 96 90 56 00
        E 24 90 56 50
        E 192 90 56 00
        E 48 90 54 50
        E 192 90 54 00
        E 48 90 54 50
        E 96 90 54 00
        E 24 90 54 50
        E 96 90 54 00
        E 24 90 54 50
        E 96 90 54 00
        E 24 90 56 50
        E 96 90 56 00
        E 24 90 54 50
        E 192 90 54 00
        E 48 90 52 50
        E 192 90 52 00
        E 48 90 52 50
        E 96 90 52 00
        E 24 90 52 50
        E 96 90 52 00
        E 24 90 51 50
        E 96 90 51 00
        E 24 90 52 50
        E 96 90 52 00
        E 24 90 54 50
        E 96 90 54 00
        E 24 90 52 50
        E 96 90 52 00
        E 24 90 51 50
        E 384 90 51 00
        E 96 90 4f 50
        E 598 90 4f 00
        E 122 b0 7b 00
        GUID {0A4326AB-A4D2-CE4E-B74E-5C445622C7FC}
        IGNTEMPO 0 120 4 4
        SRCCOLOR 235
        VELLANE -1 86 6
        CFGEDITVIEW 7924.677826 316.288498 39 19 0 0 0 0 0 0.5
        KEYSNAP 0
        TRACKSEL 252
        EVTFILTER 0 -1 -1 -1 -1 0 0 0 0 -1 -1 -1 -1 0 -1 0 -1 -1
        CFGEDIT 1 0 0 0 0 0 1 0 1 1 1 0.25 429 164 1280 633 0 0 2 3 0 0 0 0 0 -1 0 0 1 64
      >
      TAKE
      NAME "Pikola - National_Anthems_-_Slovakia2.mid"
      TAKEVOLPAN 0 1 -1
      SOFFS 0 0
      PLAYRATE 1 1 0 -1 0 0.0025
      CHANMODE 0
      GUID {AF80D0DA-78E4-7A41-AB07-AA428671FF16}
      <SOURCE MIDI
        HASDATA 1 240 QN
        POOLEDEVTS {2457CAE4-5A7E-3A4F-B0ED-8295DFFFF9A4}
        <X 0 0 0 0 3 untitled
          /wN1bnRpdGxlZA==
        >
        <X 0 0 0 0 3 Pikola
          /wNQaWtvbGE=
        >
        E 0 90 4f 50
        E 96 90 4f 00
        E 24 90 51 50
        E 96 90 51 00
        E 24 90 52 50
        E 192 90 52 00
        E 48 90 52 50
        E 192 90 52 00
        E 48 90 52 50
        E 96 90 52 00
        E 24 90 52 50
        E 96 90 52 00
        E 24 90 51 50
        E 96 90 51 00
        E 24 90 52 50
        E 96 90 52 00
        E 24 90 54 50
        E 96 90 54 00
        E 24 90 52 50
        E 96 90 52 00
        E 24 90 51 50
        E 192 90 51 00
        E 48 90 4f 50
        E 192 90 4f 00
        E 48 90 52 50
        E 96 90 52 00
        E 24 90 54 50
        E 96 90 54 00
        E 24 90 56 50
        E 192 90 56 00
        E 48 90 56 50
        E 192 90 56 00
        E 48 90 56 50
        E 96 90 56 00
        E 24 90 56 50
        E 96 90 56 00
        E 24 90 54 50
        E 96 90 54 00
        E 24 90 56 50
        E 96 90 56 00
        E 24 90 57 50
        E 96 90 57 00
        E 24 90 56 50
        E 96 90 56 00
        E 24 90 54 50
        E 192 90 54 00
        E 48 90 52 50
        E 192 90 52 00
        E 48 90 56 50
        E 96 90 56 00
        E 24 90 56 50
        E 96 90 56 00
        E 24 90 56 50
        E 192 90 56 00
        E 48 90 54 50
        E 192 90 54 00
        E 48 90 54 50
        E 96 90 54 00
        E 24 90 54 50
        E 96 90 54 00
        E 24 90 54 50
        E 96 90 54 00
        E 24 90 56 50
        E 96 90 56 00
        E 24 90 54 50
        E 192 90 54 00
        E 48 90 52 50
        E 192 90 52 00
        E 48 90 52 50
        E 96 90 52 00
        E 24 90 52 50
        E 96 90 52 00
        E 24 90 51 50
        E 96 90 51 00
        E 24 90 52 50
        E 96 90 52 00
        E 24 90 54 50
        E 96 90 54 00
        E 24 90 52 50
        E 96 90 52 00
        E 24 90 51 50
        E 192 90 51 00
        E 48 90 4f 50
        E 192 90 4f 00
        E 48 90 56 50
        E 96 90 56 00
        E 24 90 56 50
        E 96 90 56 00
        E 24 90 56 50
        E 192 90 56 00
        E 48 90 54 50
        E 192 90 54 00
        E 48 90 54 50
        E 96 90 54 00
        E 24 90 54 50
        E 96 90 54 00
        E 24 90 54 50
        E 96 90 54 00
        E 24 90 56 50
        E 96 90 56 00
        E 24 90 54 50
        E 192 90 54 00
        E 48 90 52 50
        E 192 90 52 00
        E 48 90 52 50
        E 96 90 52 00
        E 24 90 52 50
        E 96 90 52 00
        E 24 90 51 50
        E 96 90 51 00
        E 24 90 52 50
        E 96 90 52 00
        E 24 90 54 50
        E 96 90 54 00
        E 24 90 52 50
        E 96 90 52 00
        E 24 90 51 50
        E 192 90 51 00
        E 48 90 4f 50
        E 192 90 4f 00
        E 48 90 4f 50
        E 96 90 4f 00
        E 24 90 51 50
        E 96 90 51 00
        E 24 90 52 50
        E 192 90 52 00
        E 48 90 52 50
        E 192 90 52 00
        E 48 90 52 50
        E 96 90 52 00
        E 24 90 52 50
        E 96 90 52 00
        E 24 90 51 50
        E 96 90 51 00
        E 24 90 52 50
        E 96 90 52 00
        E 24 90 54 50
        E 96 90 54 00
        E 24 90 52 50
        E 96 90 52 00
        E 24 90 51 50
        E 192 90 51 00
        E 48 90 4f 50
        E 192 90 4f 00
        E 48 90 52 50
        E 96 90 52 00
        E 24 90 54 50
        E 96 90 54 00
        E 24 90 56 50
        E 192 90 56 00
        E 48 90 56 50
        E 192 90 56 00
        E 48 90 56 50
        E 96 90 56 00
        E 24 90 56 50
        E 96 90 56 00
        E 24 90 54 50
        E 96 90 54 00
        E 24 90 56 50
        E 96 90 56 00
        E 24 90 57 50
        E 96 90 57 00
        E 24 90 56 50
        E 96 90 56 00
        E 24 90 54 50
        E 192 90 54 00
        E 48 90 52 50
        E 192 90 52 00
        E 48 90 56 50
        E 96 90 56 00
        E 24 90 56 50
        E 96 90 56 00
        E 24 90 56 50
        E 192 90 56 00
        E 48 90 54 50
        E 192 90 54 00
        E 48 90 54 50
        E 96 90 54 00
        E 24 90 54 50
        E 96 90 54 00
        E 24 90 54 50
        E 96 90 54 00
        E 24 90 56 50
        E 96 90 56 00
        E 24 90 54 50
        E 192 90 54 00
        E 48 90 52 50
        E 192 90 52 00
        E 48 90 52 50
        E 96 90 52 00
        E 24 90 52 50
        E 96 90 52 00
        E 24 90 51 50
        E 96 90 51 00
        E 24 90 52 50
        E 96 90 52 00
        E 24 90 54 50
        E 96 90 54 00
        E 24 90 52 50
        E 96 90 52 00
        E 24 90 51 50
        E 192 90 51 00
        E 48 90 4f 50
        E 192 90 4f 00
        E 48 90 56 50
        E 96 90 56 00
        E 24 90 56 50
        E 96 90 56 00
        E 24 90 56 50
        E 192 90 56 00
        E 48 90 54 50
        E 192 90 54 00
        E 48 90 54 50
        E 96 90 54 00
        E 24 90 54 50
        E 96 90 54 00
        E 24 90 54 50
        E 96 90 54 00
        E 24 90 56 50
        E 96 90 56 00
        E 24 90 54 50
        E 192 90 54 00
        E 48 90 52 50
        E 192 90 52 00
        E 48 90 52 50
        E 96 90 52 00
        E 24 90 52 50
        E 96 90 52 00
        E 24 90 51 50
        E 96 90 51 00
        E 24 90 52 50
        E 96 90 52 00
        E 24 90 54 50
        E 96 90 54 00
        E 24 90 52 50
        E 96 90 52 00
        E 24 90 51 50
        E 384 90 51 00
        E 96 90 4f 50
        E 598 90 4f 00
        E 122 b0 7b 00
        GUID {71574CC0-B50A-8741-94E7-2E3AA96149F7}
        IGNTEMPO 0 120 4 4
        SRCCOLOR 250
        VELLANE -1 86 6
      >
    >
    <ITEM
      POSITION 0
      SNAPOFFS 0
      LENGTH 41.5
      LOOP 1
      ALLTAKES 0
      FADEIN 1 0 0 1 0 0
      FADEOUT 1 0 0 1 0 0
      MUTE 0
      SEL 0
      YPOS 0.138489 0.05
      IGUID {50A2447D-2521-6443-A1D8-2D2294A5E30C}
      IID 7
      NAME "Fagot - National_Anthems_-_Slovakia2.mid"
      VOLPAN 1 0 1 -1
      SOFFS 0 0
      PLAYRATE 1 1 0 -1 0 0.0025
      CHANMODE 0
      TAKECOLOR 26173599 B
      GUID {F9718AE9-F8CD-7745-B62A-9ECB1A8CBBFD}
      <SOURCE MIDI
        HASDATA 1 240 QN
        POOLEDEVTS {406094D6-B08C-4D44-A79E-0E677051D982}
        <X 0 0 0 0 3 Fagot
          /wNGYWdvdA==
        >
        E 0 90 37 50
        E 96 90 37 00
        E 24 90 32 50
        E 96 90 32 00
        E 24 90 2b 50
        E 192 90 2b 00
        E 48 90 37 50
        E 120 90 37 00
        E 0 90 35 50
        E 120 90 35 00
        E 0 90 33 50
        E 96 90 33 00
        E 24 90 32 50
        E 96 90 32 00
        E 24 90 30 50
        E 96 90 30 00
        E 24 90 2e 50
        E 96 90 2e 00
        E 24 90 2d 50
        E 96 90 2d 00
        E 24 90 2b 50
        E 96 90 2b 00
        E 24 90 32 50
        E 192 90 32 00
        E 48 90 32 50
        E 192 90 32 00
        E 48 90 2b 50
        E 96 90 2b 00
        E 24 90 29 50
        E 96 90 29 00
        E 24 90 2e 50
        E 192 90 2e 00
        E 48 90 3a 50
        E 120 90 3a 00
        E 0 90 39 50
        E 120 90 39 00
        E 0 90 37 50
        E 96 90 37 00
        E 24 90 35 50
        E 96 90 35 00
        E 24 90 33 50
        E 96 90 33 00
        E 24 90 32 50
        E 96 90 32 00
        E 24 90 30 50
        E 96 90 30 00
        E 24 90 2e 50
        E 96 90 2e 00
        E 24 90 35 50
        E 192 90 35 00
        E 48 90 35 50
        E 192 90 35 00
        E 48 90 2e 50
        E 96 90 2e 00
        E 24 90 30 50
        E 96 90 30 00
        E 24 90 32 50
        E 96 90 32 00
        E 24 90 33 50
        E 96 90 33 00
        E 24 90 35 50
        E 192 90 35 00
        E 48 90 35 50
        E 96 90 35 00
        E 24 90 33 50
        E 96 90 33 00
        E 24 90 32 50
        E 96 90 32 00
        E 24 90 34 50
        E 96 90 34 00
        E 24 90 36 50
        E 192 90 36 00
        E 48 90 37 50
        E 192 90 37 00
        E 48 90 2b 50
        E 96 90 2b 00
        E 24 90 2e 50
        E 96 90 2e 00
        E 24 90 30 50
        E 96 90 30 00
        E 24 90 2e 50
        E 96 90 2e 00
        E 24 90 2d 50
        E 96 90 2d 00
        E 24 90 2b 50
        E 96 90 2b 00
        E 24 90 32 50
        E 192 90 32 00
        E 48 90 2b 50
        E 192 90 2b 00
        E 48 90 2e 50
        E 96 90 2e 00
        E 24 90 30 50
        E 96 90 30 00
        E 24 90 32 50
        E 96 90 32 00
        E 24 90 33 50
        E 96 90 33 00
        E 24 90 35 50
        E 192 90 35 00
        E 48 90 35 50
        E 96 90 35 00
        E 24 90 33 50
        E 96 90 33 00
        E 24 90 32 50
        E 96 90 32 00
        E 24 90 34 50
        E 96 90 34 00
        E 24 90 36 50
        E 192 90 36 00
        E 48 90 37 50
        E 192 90 37 00
        E 48 90 2b 50
        E 96 90 2b 00
        E 24 90 2e 50
        E 96 90 2e 00
        E 24 90 30 50
        E 96 90 30 00
        E 24 90 2e 50
        E 96 90 2e 00
        E 24 90 2d 50
        E 96 90 2d 00
        E 24 90 2b 50
        E 96 90 2b 00
        E 24 90 32 50
        E 192 90 32 00
        E 48 90 2b 50
        E 192 90 2b 00
        E 48 90 37 50
        E 96 90 37 00
        E 24 90 32 50
        E 96 90 32 00
        E 24 90 2b 50
        E 192 90 2b 00
        E 48 90 37 50
        E 120 90 37 00
        E 0 90 35 50
        E 120 90 35 00
        E 0 90 33 50
        E 96 90 33 00
        E 24 90 32 50
        E 96 90 32 00
        E 24 90 30 50
        E 96 90 30 00
        E 24 90 2e 50
        E 96 90 2e 00
        E 24 90 2d 50
        E 96 90 2d 00
        E 24 90 2b 50
        E 96 90 2b 00
        E 24 90 32 50
        E 192 90 32 00
        E 48 90 32 50
        E 192 90 32 00
        E 48 90 2b 50
        E 96 90 2b 00
        E 24 90 29 50
        E 96 90 29 00
        E 24 90 2e 50
        E 192 90 2e 00
        E 48 90 3a 50
        E 120 90 3a 00
        E 0 90 39 50
        E 120 90 39 00
        E 0 90 37 50
        E 96 90 37 00
        E 24 90 35 50
        E 96 90 35 00
        E 24 90 33 50
        E 96 90 33 00
        E 24 90 32 50
        E 96 90 32 00
        E 24 90 30 50
        E 96 90 30 00
        E 24 90 2e 50
        E 96 90 2e 00
        E 24 90 35 50
        E 192 90 35 00
        E 48 90 35 50
        E 192 90 35 00
        E 48 90 2e 50
        E 96 90 2e 00
        E 24 90 30 50
        E 96 90 30 00
        E 24 90 32 50
        E 96 90 32 00
        E 24 90 33 50
        E 96 90 33 00
        E 24 90 35 50
        E 192 90 35 00
        E 48 90 35 50
        E 96 90 35 00
        E 24 90 33 50
        E 96 90 33 00
        E 24 90 32 50
        E 96 90 32 00
        E 24 90 34 50
        E 96 90 34 00
        E 24 90 36 50
        E 192 90 36 00
        E 48 90 37 50
        E 192 90 37 00
        E 48 90 2b 50
        E 96 90 2b 00
        E 24 90 2e 50
        E 96 90 2e 00
        E 24 90 30 50
        E 96 90 30 00
        E 24 90 2e 50
        E 96 90 2e 00
        E 24 90 2d 50
        E 96 90 2d 00
        E 24 90 2b 50
        E 96 90 2b 00
        E 24 90 32 50
        E 192 90 32 00
        E 48 90 2b 50
        E 192 90 2b 00
        E 48 90 2e 50
        E 96 90 2e 00
        E 24 90 30 50
        E 96 90 30 00
        E 24 90 32 50
        E 96 90 32 00
        E 24 90 33 50
        E 96 90 33 00
        E 24 90 35 50
        E 192 90 35 00
        E 48 90 35 50
        E 96 90 35 00
        E 24 90 33 50
        E 96 90 33 00
        E 24 90 32 50
        E 96 90 32 00
        E 24 90 34 50
        E 96 90 34 00
        E 24 90 36 50
        E 192 90 36 00
        E 48 90 37 50
        E 192 90 37 00
        E 48 90 2b 50
        E 96 90 2b 00
        E 24 90 2e 50
        E 96 90 2e 00
        E 24 90 30 50
        E 96 90 30 00
        E 24 90 2e 50
        E 96 90 2e 00
        E 24 90 2d 50
        E 96 90 2d 00
        E 24 90 30 50
        E 96 90 30 00
        E 24 90 32 50
        E 450 90 32 00
        E 30 90 2b 50
        E 598 90 2b 00
        E 122 b0 7b 00
        GUID {51C50F11-66A6-4A41-A0B3-7748738396B3}
        IGNTEMPO 0 120 4 4
        SRCCOLOR 241
        VELLANE -1 86 6
        CFGEDITVIEW 8580.611062 90.377764 45 16 0 0 0 0 0 0.5
        KEYSNAP 0
        TRACKSEL 252
        EVTFILTER 0 -1 -1 -1 -1 0 0 0 0 -1 -1 -1 -1 0 -1 0 -1 -1
        CFGEDIT 1 0 0 0 0 0 1 0 1 1 1 0.25 413 148 1280 633 0 0 2 3 0 0 0 0 0 -1 0 0 1 64
      >
      TAKE
      NAME "Fagot - National_Anthems_-_Slovakia2.mid"
      TAKEVOLPAN 0 1 -1
      SOFFS 0 0
      PLAYRATE 1 1 0 -1 0 0.0025
      CHANMODE 0
      GUID {497D72CE-11E5-2E48-85F9-3C0B6F21586C}
      <SOURCE MIDI
        HASDATA 1 240 QN
        POOLEDEVTS {FCF6E415-A011-2645-A2A1-460CE597D04A}
        <X 0 0 0 0 3 Fagot
          /wNGYWdvdA==
        >
        E 0 90 37 50
        E 96 90 37 00
        E 24 90 32 50
        E 96 90 32 00
        E 24 90 2b 50
        E 192 90 2b 00
        E 48 90 37 50
        E 120 90 37 00
        E 0 90 35 50
        E 120 90 35 00
        E 0 90 33 50
        E 96 90 33 00
        E 24 90 32 50
        E 96 90 32 00
        E 24 90 30 50
        E 96 90 30 00
        E 24 90 2e 50
        E 96 90 2e 00
        E 24 90 2d 50
        E 96 90 2d 00
        E 24 90 2b 50
        E 96 90 2b 00
        E 24 90 32 50
        E 192 90 32 00
        E 48 90 32 50
        E 192 90 32 00
        E 48 90 2b 50
        E 96 90 2b 00
        E 24 90 29 50
        E 96 90 29 00
        E 24 90 2e 50
        E 192 90 2e 00
        E 48 90 3a 50
        E 120 90 3a 00
        E 0 90 39 50
        E 120 90 39 00
        E 0 90 37 50
        E 96 90 37 00
        E 24 90 35 50
        E 96 90 35 00
        E 24 90 33 50
        E 96 90 33 00
        E 24 90 32 50
        E 96 90 32 00
        E 24 90 30 50
        E 96 90 30 00
        E 24 90 2e 50
        E 96 90 2e 00
        E 24 90 35 50
        E 192 90 35 00
        E 48 90 35 50
        E 192 90 35 00
        E 48 90 2e 50
        E 96 90 2e 00
        E 24 90 30 50
        E 96 90 30 00
        E 24 90 32 50
        E 96 90 32 00
        E 24 90 33 50
        E 96 90 33 00
        E 24 90 35 50
        E 192 90 35 00
        E 48 90 35 50
        E 96 90 35 00
        E 24 90 33 50
        E 96 90 33 00
        E 24 90 32 50
        E 96 90 32 00
        E 24 90 34 50
        E 96 90 34 00
        E 24 90 36 50
        E 192 90 36 00
        E 48 90 37 50
        E 192 90 37 00
        E 48 90 2b 50
        E 96 90 2b 00
        E 24 90 2e 50
        E 96 90 2e 00
        E 24 90 30 50
        E 96 90 30 00
        E 24 90 2e 50
        E 96 90 2e 00
        E 24 90 2d 50
        E 96 90 2d 00
        E 24 90 2b 50
        E 96 90 2b 00
        E 24 90 32 50
        E 192 90 32 00
        E 48 90 2b 50
        E 192 90 2b 00
        E 48 90 2e 50
        E 96 90 2e 00
        E 24 90 30 50
        E 96 90 30 00
        E 24 90 32 50
        E 96 90 32 00
        E 24 90 33 50
        E 96 90 33 00
        E 24 90 35 50
        E 192 90 35 00
        E 48 90 35 50
        E 96 90 35 00
        E 24 90 33 50
        E 96 90 33 00
        E 24 90 32 50
        E 96 90 32 00
        E 24 90 34 50
        E 96 90 34 00
        E 24 90 36 50
        E 192 90 36 00
        E 48 90 37 50
        E 192 90 37 00
        E 48 90 2b 50
        E 96 90 2b 00
        E 24 90 2e 50
        E 96 90 2e 00
        E 24 90 30 50
        E 96 90 30 00
        E 24 90 2e 50
        E 96 90 2e 00
        E 24 90 2d 50
        E 96 90 2d 00
        E 24 90 2b 50
        E 96 90 2b 00
        E 24 90 32 50
        E 192 90 32 00
        E 48 90 2b 50
        E 192 90 2b 00
        E 48 90 37 50
        E 96 90 37 00
        E 24 90 32 50
        E 96 90 32 00
        E 24 90 2b 50
        E 192 90 2b 00
        E 48 90 37 50
        E 120 90 37 00
        E 0 90 35 50
        E 120 90 35 00
        E 0 90 33 50
        E 96 90 33 00
        E 24 90 32 50
        E 96 90 32 00
        E 24 90 30 50
        E 96 90 30 00
        E 24 90 2e 50
        E 96 90 2e 00
        E 24 90 2d 50
        E 96 90 2d 00
        E 24 90 2b 50
        E 96 90 2b 00
        E 24 90 32 50
        E 192 90 32 00
        E 48 90 32 50
        E 192 90 32 00
        E 48 90 2b 50
        E 96 90 2b 00
        E 24 90 29 50
        E 96 90 29 00
        E 24 90 2e 50
        E 192 90 2e 00
        E 48 90 3a 50
        E 120 90 3a 00
        E 0 90 39 50
        E 120 90 39 00
        E 0 90 37 50
        E 96 90 37 00
        E 24 90 35 50
        E 96 90 35 00
        E 24 90 33 50
        E 96 90 33 00
        E 24 90 32 50
        E 96 90 32 00
        E 24 90 30 50
        E 96 90 30 00
        E 24 90 2e 50
        E 96 90 2e 00
        E 24 90 35 50
        E 192 90 35 00
        E 48 90 35 50
        E 192 90 35 00
        E 48 90 2e 50
        E 96 90 2e 00
        E 24 90 30 50
        E 96 90 30 00
        E 24 90 32 50
        E 96 90 32 00
        E 24 90 33 50
        E 96 90 33 00
        E 24 90 35 50
        E 192 90 35 00
        E 48 90 35 50
        E 96 90 35 00
        E 24 90 33 50
        E 96 90 33 00
        E 24 90 32 50
        E 96 90 32 00
        E 24 90 34 50
        E 96 90 34 00
        E 24 90 36 50
        E 192 90 36 00
        E 48 90 37 50
        E 192 90 37 00
        E 48 90 2b 50
        E 96 90 2b 00
        E 24 90 2e 50
        E 96 90 2e 00
        E 24 90 30 50
        E 96 90 30 00
        E 24 90 2e 50
        E 96 90 2e 00
        E 24 90 2d 50
        E 96 90 2d 00
        E 24 90 2b 50
        E 96 90 2b 00
        E 24 90 32 50
        E 192 90 32 00
        E 48 90 2b 50
        E 192 90 2b 00
        E 48 90 2e 50
        E 96 90 2e 00
        E 24 90 30 50
        E 96 90 30 00
        E 24 90 32 50
        E 96 90 32 00
        E 24 90 33 50
        E 96 90 33 00
        E 24 90 35 50
        E 192 90 35 00
        E 48 90 35 50
        E 96 90 35 00
        E 24 90 33 50
        E 96 90 33 00
        E 24 90 32 50
        E 96 90 32 00
        E 24 90 34 50
        E 96 90 34 00
        E 24 90 36 50
        E 192 90 36 00
        E 48 90 37 50
        E 192 90 37 00
        E 48 90 2b 50
        E 96 90 2b 00
        E 24 90 2e 50
        E 96 90 2e 00
        E 24 90 30 50
        E 96 90 30 00
        E 24 90 2e 50
        E 96 90 2e 00
        E 24 90 2d 50
        E 96 90 2d 00
        E 24 90 30 50
        E 96 90 30 00
        E 24 90 32 50
        E 450 90 32 00
        E 30 90 2b 50
        E 598 90 2b 00
        E 122 b0 7b 00
        GUID {DB60DD1F-CA14-5B41-9DA8-208BCCDE894D}
        IGNTEMPO 0 120 4 4
        SRCCOLOR 251
        VELLANE -1 86 6
        CFGEDITVIEW 0 0 45 16 0 0 0 0 0 0.5
        KEYSNAP 0
        TRACKSEL 252
        EVTFILTER 0 -1 -1 -1 -1 0 0 0 0 -1 -1 -1 -1 0 -1 0 -1 -1
        CFGEDIT 1 0 0 0 0 0 1 0 1 1 1 0.25 413 148 1280 633 0 0 2 3 0 0 0 0 0 -1 0 0 1 64
      >
    >
    <ITEM
      POSITION 0
      SNAPOFFS 0
      LENGTH 41.5
      LOOP 1
      ALLTAKES 0
      FADEIN 1 0 0 1 0 0
      FADEOUT 1 0 0 1 0 0
      MUTE 0
      SEL 0
      YPOS 0.276978 0.05
      IGUID {D3BE6812-08E0-8F44-B227-FA88AAF0C820}
      IID 2
      NAME "Flauta1 - National_Anthems_-_Slovakia2.mid"
      VOLPAN 1 0 1 -1
      SOFFS 0 0
      PLAYRATE 1 1 0 -1 0 0.0025
      CHANMODE 0
      TAKECOLOR 26173599 B
      GUID {456B01C3-E1D1-D848-9B37-5E3CD436B1D2}
      <SOURCE MIDI
        HASDATA 1 240 QN
        POOLEDEVTS {76D14047-F117-0A43-8182-1D94FB43DB5D}
        <X 0 0 0 0 3 Flauta1
          /wNGbGF1dGEx
        >
        E 0 90 4f 50
        E 96 90 4f 00
        E 24 90 51 50
        E 96 90 51 00
        E 24 90 52 50
        E 192 90 52 00
        E 48 90 52 50
        E 192 90 52 00
        E 48 90 52 50
        E 96 90 52 00
        E 24 90 52 50
        E 96 90 52 00
        E 24 90 51 50
        E 96 90 51 00
        E 24 90 52 50
        E 96 90 52 00
        E 24 90 54 50
        E 96 90 54 00
        E 24 90 52 50
        E 96 90 52 00
        E 24 90 51 50
        E 192 90 51 00
        E 48 90 4f 50
        E 192 90 4f 00
        E 48 90 52 50
        E 96 90 52 00
        E 24 90 54 50
        E 96 90 54 00
        E 24 90 56 50
        E 192 90 56 00
        E 48 90 56 50
        E 192 90 56 00
        E 48 90 56 50
        E 96 90 56 00
        E 24 90 56 50
        E 96 90 56 00
        E 24 90 54 50
        E 96 90 54 00
        E 24 90 56 50
        E 96 90 56 00
        E 24 90 57 50
        E 96 90 57 00
        E 24 90 56 50
        E 96 90 56 00
        E 24 90 54 50
        E 192 90 54 00
        E 48 90 52 50
        E 192 90 52 00
        E 48 90 56 50
        E 96 90 56 00
        E 24 90 56 50
        E 96 90 56 00
        E 24 90 56 50
        E 192 90 56 00
        E 48 90 54 50
        E 192 90 54 00
        E 48 90 54 50
        E 96 90 54 00
        E 24 90 54 50
        E 96 90 54 00
        E 24 90 54 50
        E 96 90 54 00
        E 24 90 56 50
        E 96 90 56 00
        E 24 90 54 50
        E 192 90 54 00
        E 48 90 52 50
        E 192 90 52 00
        E 48 90 52 50
        E 96 90 52 00
        E 24 90 52 50
        E 96 90 52 00
        E 24 90 51 50
        E 96 90 51 00
        E 24 90 52 50
        E 96 90 52 00
        E 24 90 54 50
        E 96 90 54 00
        E 24 90 52 50
        E 96 90 52 00
        E 24 90 51 50
        E 192 90 51 00
        E 48 90 4f 50
        E 192 90 4f 00
        E 48 90 56 50
        E 96 90 56 00
        E 24 90 56 50
        E 96 90 56 00
        E 24 90 56 50
        E 192 90 56 00
        E 48 90 54 50
        E 192 90 54 00
        E 48 90 54 50
        E 96 90 54 00
        E 24 90 54 50
        E 96 90 54 00
        E 24 90 54 50
        E 96 90 54 00
        E 24 90 56 50
        E 96 90 56 00
        E 24 90 54 50
        E 192 90 54 00
        E 48 90 52 50
        E 192 90 52 00
        E 48 90 52 50
        E 96 90 52 00
        E 24 90 52 50
        E 96 90 52 00
        E 24 90 51 50
        E 96 90 51 00
        E 24 90 52 50
        E 96 90 52 00
        E 24 90 54 50
        E 96 90 54 00
        E 24 90 52 50
        E 96 90 52 00
        E 24 90 51 50
        E 192 90 51 00
        E 48 90 4f 50
        E 192 90 4f 00
        E 48 90 4f 50
        E 96 90 4f 00
        E 24 90 51 50
        E 96 90 51 00
        E 24 90 52 50
        E 192 90 52 00
        E 48 90 52 50
        E 192 90 52 00
        E 48 90 52 50
        E 96 90 52 00
        E 24 90 52 50
        E 96 90 52 00
        E 24 90 51 50
        E 96 90 51 00
        E 24 90 52 50
        E 96 90 52 00
        E 24 90 54 50
        E 96 90 54 00
        E 24 90 52 50
        E 96 90 52 00
        E 24 90 51 50
        E 192 90 51 00
        E 48 90 4f 50
        E 192 90 4f 00
        E 48 90 52 50
        E 96 90 52 00
        E 24 90 54 50
        E 96 90 54 00
        E 24 90 56 50
        E 192 90 56 00
        E 48 90 56 50
        E 192 90 56 00
        E 48 90 56 50
        E 96 90 56 00
        E 24 90 56 50
        E 96 90 56 00
        E 24 90 54 50
        E 96 90 54 00
        E 24 90 56 50
        E 96 90 56 00
        E 24 90 57 50
        E 96 90 57 00
        E 24 90 56 50
        E 96 90 56 00
        E 24 90 54 50
        E 192 90 54 00
        E 48 90 52 50
        E 192 90 52 00
        E 48 90 56 50
        E 96 90 56 00
        E 24 90 56 50
        E 96 90 56 00
        E 24 90 56 50
        E 192 90 56 00
        E 48 90 54 50
        E 192 90 54 00
        E 48 90 54 50
        E 96 90 54 00
        E 24 90 54 50
        E 96 90 54 00
        E 24 90 54 50
        E 96 90 54 00
        E 24 90 56 50
        E 96 90 56 00
        E 24 90 54 50
        E 192 90 54 00
        E 48 90 52 50
        E 192 90 52 00
        E 48 90 52 50
        E 96 90 52 00
        E 24 90 52 50
        E 96 90 52 00
        E 24 90 51 50
        E 96 90 51 00
        E 24 90 52 50
        E 96 90 52 00
        E 24 90 54 50
        E 96 90 54 00
        E 24 90 52 50
        E 96 90 52 00
        E 24 90 51 50
        E 192 90 51 00
        E 48 90 4f 50
        E 192 90 4f 00
        E 48 90 56 50
        E 96 90 56 00
        E 24 90 56 50
        E 96 90 56 00
        E 24 90 56 50
        E 192 90 56 00
        E 48 90 54 50
        E 192 90 54 00
        E 48 90 54 50
        E 96 90 54 00
        E 24 90 54 50
        E 96 90 54 00
        E 24 90 54 50
        E 96 90 54 00
        E 24 90 56 50
        E 96 90 56 00
        E 24 90 54 50
        E 192 90 54 00
        E 48 90 52 50
        E 192 90 52 00
        E 48 90 52 50
        E 96 90 52 00
        E 24 90 52 50
        E 96 90 52 00
        E 24 90 51 50
        E 96 90 51 00
        E 24 90 52 50
        E 96 90 52 00
        E 24 90 54 50
        E 96 90 54 00
        E 24 90 52 50
        E 96 90 52 00
        E 24 90 51 50
        E 384 90 51 00
        E 96 90 4f 50
        E 598 90 4f 00
        E 122 b0 7b 00
        GUID {5AF9F130-E090-D048-A069-95FF1D34EB60}
        IGNTEMPO 0 120 4 4
        SRCCOLOR 236
        VELLANE -1 86 6
        CFGEDITVIEW 8580.611062 90.377764 45 16 0 0 0 0 0 0.5
        KEYSNAP 0
        TRACKSEL 252
        EVTFILTER 0 -1 -1 -1 -1 0 0 0 0 -1 -1 -1 -1 0 -1 0 -1 -1
        CFGEDIT 1 0 0 0 0 0 1 0 1 1 1 0.25 413 148 1280 633 0 0 2 3 0 0 0 0 0 -1 0 0 1 64
      >
      TAKE
      NAME "Flauta1 - National_Anthems_-_Slovakia2.mid"
      TAKEVOLPAN 0 1 -1
      SOFFS 0 0
      PLAYRATE 1 1 0 -1 0 0.0025
      CHANMODE 0
      GUID {678988FD-0518-EE42-BBCE-7165F958D169}
      <SOURCE MIDI
        HASDATA 1 240 QN
        POOLEDEVTS {EDDB351C-5454-8A43-88DD-8BE6348EFDDB}
        <X 0 0 0 0 3 Flauta1
          /wNGbGF1dGEx
        >
        E 0 90 4f 50
        E 96 90 4f 00
        E 24 90 51 50
        E 96 90 51 00
        E 24 90 52 50
        E 192 90 52 00
        E 48 90 52 50
        E 192 90 52 00
        E 48 90 52 50
        E 96 90 52 00
        E 24 90 52 50
        E 96 90 52 00
        E 24 90 51 50
        E 96 90 51 00
        E 24 90 52 50
        E 96 90 52 00
        E 24 90 54 50
        E 96 90 54 00
        E 24 90 52 50
        E 96 90 52 00
        E 24 90 51 50
        E 192 90 51 00
        E 48 90 4f 50
        E 192 90 4f 00
        E 48 90 52 50
        E 96 90 52 00
        E 24 90 54 50
        E 96 90 54 00
        E 24 90 56 50
        E 192 90 56 00
        E 48 90 56 50
        E 192 90 56 00
        E 48 90 56 50
        E 96 90 56 00
        E 24 90 56 50
        E 96 90 56 00
        E 24 90 54 50
        E 96 90 54 00
        E 24 90 56 50
        E 96 90 56 00
        E 24 90 57 50
        E 96 90 57 00
        E 24 90 56 50
        E 96 90 56 00
        E 24 90 54 50
        E 192 90 54 00
        E 48 90 52 50
        E 192 90 52 00
        E 48 90 56 50
        E 96 90 56 00
        E 24 90 56 50
        E 96 90 56 00
        E 24 90 56 50
        E 192 90 56 00
        E 48 90 54 50
        E 192 90 54 00
        E 48 90 54 50
        E 96 90 54 00
        E 24 90 54 50
        E 96 90 54 00
        E 24 90 54 50
        E 96 90 54 00
        E 24 90 56 50
        E 96 90 56 00
        E 24 90 54 50
        E 192 90 54 00
        E 48 90 52 50
        E 192 90 52 00
        E 48 90 52 50
        E 96 90 52 00
        E 24 90 52 50
        E 96 90 52 00
        E 24 90 51 50
        E 96 90 51 00
        E 24 90 52 50
        E 96 90 52 00
        E 24 90 54 50
        E 96 90 54 00
        E 24 90 52 50
        E 96 90 52 00
        E 24 90 51 50
        E 192 90 51 00
        E 48 90 4f 50
        E 192 90 4f 00
        E 48 90 56 50
        E 96 90 56 00
        E 24 90 56 50
        E 96 90 56 00
        E 24 90 56 50
        E 192 90 56 00
        E 48 90 54 50
        E 192 90 54 00
        E 48 90 54 50
        E 96 90 54 00
        E 24 90 54 50
        E 96 90 54 00
        E 24 90 54 50
        E 96 90 54 00
        E 24 90 56 50
        E 96 90 56 00
        E 24 90 54 50
        E 192 90 54 00
        E 48 90 52 50
        E 192 90 52 00
        E 48 90 52 50
        E 96 90 52 00
        E 24 90 52 50
        E 96 90 52 00
        E 24 90 51 50
        E 96 90 51 00
        E 24 90 52 50
        E 96 90 52 00
        E 24 90 54 50
        E 96 90 54 00
        E 24 90 52 50
        E 96 90 52 00
        E 24 90 51 50
        E 192 90 51 00
        E 48 90 4f 50
        E 192 90 4f 00
        E 48 90 4f 50
        E 96 90 4f 00
        E 24 90 51 50
        E 96 90 51 00
        E 24 90 52 50
        E 192 90 52 00
        E 48 90 52 50
        E 192 90 52 00
        E 48 90 52 50
        E 96 90 52 00
        E 24 90 52 50
        E 96 90 52 00
        E 24 90 51 50
        E 96 90 51 00
        E 24 90 52 50
        E 96 90 52 00
        E 24 90 54 50
        E 96 90 54 00
        E 24 90 52 50
        E 96 90 52 00
        E 24 90 51 50
        E 192 90 51 00
        E 48 90 4f 50
        E 192 90 4f 00
        E 48 90 52 50
        E 96 90 52 00
        E 24 90 54 50
        E 96 90 54 00
        E 24 90 56 50
        E 192 90 56 00
        E 48 90 56 50
        E 192 90 56 00
        E 48 90 56 50
        E 96 90 56 00
        E 24 90 56 50
        E 96 90 56 00
        E 24 90 54 50
        E 96 90 54 00
        E 24 90 56 50
        E 96 90 56 00
        E 24 90 57 50
        E 96 90 57 00
        E 24 90 56 50
        E 96 90 56 00
        E 24 90 54 50
        E 192 90 54 00
        E 48 90 52 50
        E 192 90 52 00
        E 48 90 56 50
        E 96 90 56 00
        E 24 90 56 50
        E 96 90 56 00
        E 24 90 56 50
        E 192 90 56 00
        E 48 90 54 50
        E 192 90 54 00
        E 48 90 54 50
        E 96 90 54 00
        E 24 90 54 50
        E 96 90 54 00
        E 24 90 54 50
        E 96 90 54 00
        E 24 90 56 50
        E 96 90 56 00
        E 24 90 54 50
        E 192 90 54 00
        E 48 90 52 50
        E 192 90 52 00
        E 48 90 52 50
        E 96 90 52 00
        E 24 90 52 50
        E 96 90 52 00
        E 24 90 51 50
        E 96 90 51 00
        E 24 90 52 50
        E 96 90 52 00
        E 24 90 54 50
        E 96 90 54 00
        E 24 90 52 50
        E 96 90 52 00
        E 24 90 51 50
        E 192 90 51 00
        E 48 90 4f 50
        E 192 90 4f 00
        E 48 90 56 50
        E 96 90 56 00
        E 24 90 56 50
        E 96 90 56 00
        E 24 90 56 50
        E 192 90 56 00
        E 48 90 54 50
        E 192 90 54 00
        E 48 90 54 50
        E 96 90 54 00
        E 24 90 54 50
        E 96 90 54 00
        E 24 90 54 50
        E 96 90 54 00
        E 24 90 56 50
        E 96 90 56 00
        E 24 90 54 50
        E 192 90 54 00
        E 48 90 52 50
        E 192 90 52 00
        E 48 90 52 50
        E 96 90 52 00
        E 24 90 52 50
        E 96 90 52 00
        E 24 90 51 50
        E 96 90 51 00
        E 24 90 52 50
        E 96 90 52 00
        E 24 90 54 50
        E 96 90 54 00
        E 24 90 52 50
        E 96 90 52 00
        E 24 90 51 50
        E 384 90 51 00
        E 96 90 4f 50
        E 598 90 4f 00
        E 122 b0 7b 00
        GUID {C67F6FDC-720D-5A45-A503-3072473659E3}
        IGNTEMPO 0 120 4 4
        SRCCOLOR 252
        VELLANE -1 86 6
        CFGEDITVIEW 0 0 45 16 0 0 0 0 0 0.5
        KEYSNAP 0
        TRACKSEL 252
        EVTFILTER 0 -1 -1 -1 -1 0 0 0 0 -1 -1 -1 -1 0 -1 0 -1 -1
        CFGEDIT 1 0 0 0 0 0 1 0 1 1 1 0.25 413 148 1280 633 0 0 2 3 0 0 0 0 0 -1 0 0 1 64
      >
    >
    <ITEM
      POSITION 0
      SNAPOFFS 0
      LENGTH 41.5
      LOOP 1
      ALLTAKES 0
      FADEIN 1 0 0 1 0 0
      FADEOUT 1 0 0 1 0 0
      MUTE 0
      SEL 0
      YPOS 0.415468 0.05
      IGUID {E0823777-B759-2947-9EF4-F2D23BA43CF8}
      IID 3
      NAME "Flauta2 - National_Anthems_-_Slovakia2.mid"
      VOLPAN 1 0 1 -1
      SOFFS 0 0
      PLAYRATE 1 1 0 -1 0 0.0025
      CHANMODE 0
      TAKECOLOR 26173599 B
      GUID {1BA9190C-14C0-4549-A0B0-9130D22D37F7}
      <SOURCE MIDI
        HASDATA 1 240 QN
        POOLEDEVTS {550BF230-898B-2E40-94A2-0A5716786A62}
        <X 0 0 0 0 3 Flauta2
          /wNGbGF1dGEy
        >
        E 0 90 4f 50
        E 96 90 4f 00
        E 24 90 4e 50
        E 96 90 4e 00
        E 24 90 4f 50
        E 192 90 4f 00
        E 48 90 4f 50
        E 192 90 4f 00
        E 48 90 4f 50
        E 96 90 4f 00
        E 24 90 4f 50
        E 96 90 4f 00
        E 24 90 4f 50
        E 96 90 4f 00
        E 24 90 4f 50
        E 96 90 4f 00
        E 24 90 4e 50
        E 96 90 4e 00
        E 24 90 4f 50
        E 96 90 4f 00
        E 24 90 4e 50
        E 192 90 4e 00
        E 48 90 4f 50
        E 192 90 4f 00
        E 48 90 52 50
        E 96 90 52 00
        E 24 90 51 50
        E 96 90 51 00
        E 24 90 52 50
        E 192 90 52 00
        E 48 90 52 50
        E 192 90 52 00
        E 48 90 52 50
        E 96 90 52 00
        E 24 90 52 50
        E 96 90 52 00
        E 24 90 52 50
        E 96 90 52 00
        E 24 90 52 50
        E 96 90 52 00
        E 24 90 51 50
        E 96 90 51 00
        E 24 90 52 50
        E 96 90 52 00
        E 24 90 51 50
        E 192 90 51 00
        E 48 90 52 50
        E 192 90 52 00
        E 48 90 52 50
        E 96 90 52 00
        E 24 90 52 50
        E 96 90 52 00
        E 24 90 52 50
        E 192 90 52 00
        E 48 90 51 50
        E 192 90 51 00
        E 48 90 51 50
        E 96 90 51 00
        E 24 90 51 50
        E 96 90 51 00
        E 24 90 51 50
        E 96 90 51 00
        E 24 90 51 50
        E 96 90 51 00
        E 24 90 51 50
        E 192 90 51 00
        E 48 90 4f 50
        E 192 90 4f 00
        E 48 90 4f 50
        E 96 90 4f 00
        E 24 90 4f 50
        E 96 90 4f 00
        E 24 90 4f 50
        E 96 90 4f 00
        E 24 90 4f 50
        E 96 90 4f 00
        E 24 90 4e 50
        E 96 90 4e 00
        E 24 90 4f 50
        E 96 90 4f 00
        E 24 90 4e 50
        E 192 90 4e 00
        E 48 90 4f 50
        E 192 90 4f 00
        E 48 90 52 50
        E 96 90 52 00
        E 24 90 52 50
        E 96 90 52 00
        E 24 90 52 50
        E 192 90 52 00
        E 48 90 51 50
        E 192 90 51 00
        E 48 90 51 50
        E 96 90 51 00
        E 24 90 51 50
        E 96 90 51 00
        E 24 90 51 50
        E 96 90 51 00
        E 24 90 51 50
        E 96 90 51 00
        E 24 90 51 50
        E 192 90 51 00
        E 48 90 4f 50
        E 192 90 4f 00
        E 48 90 4f 50
        E 96 90 4f 00
        E 24 90 4f 50
        E 96 90 4f 00
        E 24 90 4f 50
        E 96 90 4f 00
        E 24 90 4f 50
        E 96 90 4f 00
        E 24 90 4e 50
        E 96 90 4e 00
        E 24 90 4f 50
        E 96 90 4f 00
        E 24 90 4e 50
        E 192 90 4e 00
        E 48 90 4f 50
        E 192 90 4f 00
        E 48 90 4f 50
        E 96 90 4f 00
        E 24 90 4e 50
        E 96 90 4e 00
        E 24 90 4f 50
        E 192 90 4f 00
        E 48 90 4f 50
        E 192 90 4f 00
        E 48 90 4f 50
        E 96 90 4f 00
        E 24 90 4f 50
        E 96 90 4f 00
        E 24 90 4f 50
        E 96 90 4f 00
        E 24 90 4f 50
        E 96 90 4f 00
        E 24 90 4e 50
        E 96 90 4e 00
        E 24 90 4f 50
        E 96 90 4f 00
        E 24 90 4e 50
        E 192 90 4e 00
        E 48 90 4f 50
        E 192 90 4f 00
        E 48 90 52 50
        E 96 90 52 00
        E 24 90 51 50
        E 96 90 51 00
        E 24 90 52 50
        E 192 90 52 00
        E 48 90 52 50
        E 192 90 52 00
        E 48 90 52 50
        E 96 90 52 00
        E 24 90 52 50
        E 96 90 52 00
        E 24 90 52 50
        E 96 90 52 00
        E 24 90 52 50
        E 96 90 52 00
        E 24 90 51 50
        E 96 90 51 00
        E 24 90 52 50
        E 96 90 52 00
        E 24 90 51 50
        E 192 90 51 00
        E 48 90 52 50
        E 192 90 52 00
        E 48 90 52 50
        E 96 90 52 00
        E 24 90 52 50
        E 96 90 52 00
        E 24 90 52 50
        E 192 90 52 00
        E 48 90 51 50
        E 192 90 51 00
        E 48 90 51 50
        E 96 90 51 00
        E 24 90 51 50
        E 96 90 51 00
        E 24 90 51 50
        E 96 90 51 00
        E 24 90 51 50
        E 96 90 51 00
        E 24 90 51 50
        E 192 90 51 00
        E 48 90 4f 50
        E 192 90 4f 00
        E 48 90 4f 50
        E 96 90 4f 00
        E 24 90 4f 50
        E 96 90 4f 00
        E 24 90 4f 50
        E 96 90 4f 00
        E 24 90 4f 50
        E 96 90 4f 00
        E 24 90 4e 50
        E 96 90 4e 00
        E 24 90 4f 50
        E 96 90 4f 00
        E 24 90 4e 50
        E 192 90 4e 00
        E 48 90 4f 50
        E 192 90 4f 00
        E 48 90 52 50
        E 96 90 52 00
        E 24 90 52 50
        E 96 90 52 00
        E 24 90 52 50
        E 192 90 52 00
        E 48 90 51 50
        E 192 90 51 00
        E 48 90 51 50
        E 96 90 51 00
        E 24 90 51 50
        E 96 90 51 00
        E 24 90 51 50
        E 96 90 51 00
        E 24 90 51 50
        E 96 90 51 00
        E 24 90 51 50
        E 192 90 51 00
        E 48 90 4f 50
        E 192 90 4f 00
        E 48 90 4f 50
        E 96 90 4f 00
        E 24 90 4f 50
        E 96 90 4f 00
        E 24 90 4f 50
        E 96 90 4f 00
        E 24 90 4f 50
        E 96 90 4f 00
        E 24 90 4e 50
        E 96 90 4e 00
        E 24 90 4f 50
        E 96 90 4f 00
        E 24 90 4e 50
        E 384 90 4e 00
        E 96 90 4f 50
        E 598 90 4f 00
        E 122 b0 7b 00
        GUID {2C66DFBC-5CC5-C947-B09A-B59DA6CF287F}
        IGNTEMPO 0 120 4 4
        SRCCOLOR 237
        VELLANE -1 86 6
        CFGEDITVIEW 8580.611062 90.377764 45 16 0 0 0 0 0 0.5
        KEYSNAP 0
        TRACKSEL 252
        EVTFILTER 0 -1 -1 -1 -1 0 0 0 0 -1 -1 -1 -1 0 -1 0 -1 -1
        CFGEDIT 1 0 0 0 0 0 1 0 1 1 1 0.25 413 148 1280 633 0 0 2 3 0 0 0 0 0 -1 0 0 1 64
      >
      TAKE
      NAME "Flauta2 - National_Anthems_-_Slovakia2.mid"
      TAKEVOLPAN 0 1 -1
      SOFFS 0 0
      PLAYRATE 1 1 0 -1 0 0.0025
      CHANMODE 0
      GUID {B41A7F29-5F04-AE4C-B3C7-5706F70C1C62}
      <SOURCE MIDI
        HASDATA 1 240 QN
        POOLEDEVTS {0AF41249-4D4D-A340-A318-9243C3A82576}
        <X 0 0 0 0 3 Flauta2
          /wNGbGF1dGEy
        >
        E 0 90 4f 50
        E 96 90 4f 00
        E 24 90 4e 50
        E 96 90 4e 00
        E 24 90 4f 50
        E 192 90 4f 00
        E 48 90 4f 50
        E 192 90 4f 00
        E 48 90 4f 50
        E 96 90 4f 00
        E 24 90 4f 50
        E 96 90 4f 00
        E 24 90 4f 50
        E 96 90 4f 00
        E 24 90 4f 50
        E 96 90 4f 00
        E 24 90 4e 50
        E 96 90 4e 00
        E 24 90 4f 50
        E 96 90 4f 00
        E 24 90 4e 50
        E 192 90 4e 00
        E 48 90 4f 50
        E 192 90 4f 00
        E 48 90 52 50
        E 96 90 52 00
        E 24 90 51 50
        E 96 90 51 00
        E 24 90 52 50
        E 192 90 52 00
        E 48 90 52 50
        E 192 90 52 00
        E 48 90 52 50
        E 96 90 52 00
        E 24 90 52 50
        E 96 90 52 00
        E 24 90 52 50
        E 96 90 52 00
        E 24 90 52 50
        E 96 90 52 00
        E 24 90 51 50
        E 96 90 51 00
        E 24 90 52 50
        E 96 90 52 00
        E 24 90 51 50
        E 192 90 51 00
        E 48 90 52 50
        E 192 90 52 00
        E 48 90 52 50
        E 96 90 52 00
        E 24 90 52 50
        E 96 90 52 00
        E 24 90 52 50
        E 192 90 52 00
        E 48 90 51 50
        E 192 90 51 00
        E 48 90 51 50
        E 96 90 51 00
        E 24 90 51 50
        E 96 90 51 00
        E 24 90 51 50
        E 96 90 51 00
        E 24 90 51 50
        E 96 90 51 00
        E 24 90 51 50
        E 192 90 51 00
        E 48 90 4f 50
        E 192 90 4f 00
        E 48 90 4f 50
        E 96 90 4f 00
        E 24 90 4f 50
        E 96 90 4f 00
        E 24 90 4f 50
        E 96 90 4f 00
        E 24 90 4f 50
        E 96 90 4f 00
        E 24 90 4e 50
        E 96 90 4e 00
        E 24 90 4f 50
        E 96 90 4f 00
        E 24 90 4e 50
        E 192 90 4e 00
        E 48 90 4f 50
        E 192 90 4f 00
        E 48 90 52 50
        E 96 90 52 00
        E 24 90 52 50
        E 96 90 52 00
        E 24 90 52 50
        E 192 90 52 00
        E 48 90 51 50
        E 192 90 51 00
        E 48 90 51 50
        E 96 90 51 00
        E 24 90 51 50
        E 96 90 51 00
        E 24 90 51 50
        E 96 90 51 00
        E 24 90 51 50
        E 96 90 51 00
        E 24 90 51 50
        E 192 90 51 00
        E 48 90 4f 50
        E 192 90 4f 00
        E 48 90 4f 50
        E 96 90 4f 00
        E 24 90 4f 50
        E 96 90 4f 00
        E 24 90 4f 50
        E 96 90 4f 00
        E 24 90 4f 50
        E 96 90 4f 00
        E 24 90 4e 50
        E 96 90 4e 00
        E 24 90 4f 50
        E 96 90 4f 00
        E 24 90 4e 50
        E 192 90 4e 00
        E 48 90 4f 50
        E 192 90 4f 00
        E 48 90 4f 50
        E 96 90 4f 00
        E 24 90 4e 50
        E 96 90 4e 00
        E 24 90 4f 50
        E 192 90 4f 00
        E 48 90 4f 50
        E 192 90 4f 00
        E 48 90 4f 50
        E 96 90 4f 00
        E 24 90 4f 50
        E 96 90 4f 00
        E 24 90 4f 50
        E 96 90 4f 00
        E 24 90 4f 50
        E 96 90 4f 00
        E 24 90 4e 50
        E 96 90 4e 00
        E 24 90 4f 50
        E 96 90 4f 00
        E 24 90 4e 50
        E 192 90 4e 00
        E 48 90 4f 50
        E 192 90 4f 00
        E 48 90 52 50
        E 96 90 52 00
        E 24 90 51 50
        E 96 90 51 00
        E 24 90 52 50
        E 192 90 52 00
        E 48 90 52 50
        E 192 90 52 00
        E 48 90 52 50
        E 96 90 52 00
        E 24 90 52 50
        E 96 90 52 00
        E 24 90 52 50
        E 96 90 52 00
        E 24 90 52 50
        E 96 90 52 00
        E 24 90 51 50
        E 96 90 51 00
        E 24 90 52 50
        E 96 90 52 00
        E 24 90 51 50
        E 192 90 51 00
        E 48 90 52 50
        E 192 90 52 00
        E 48 90 52 50
        E 96 90 52 00
        E 24 90 52 50
        E 96 90 52 00
        E 24 90 52 50
        E 192 90 52 00
        E 48 90 51 50
        E 192 90 51 00
        E 48 90 51 50
        E 96 90 51 00
        E 24 90 51 50
        E 96 90 51 00
        E 24 90 51 50
        E 96 90 51 00
        E 24 90 51 50
        E 96 90 51 00
        E 24 90 51 50
        E 192 90 51 00
        E 48 90 4f 50
        E 192 90 4f 00
        E 48 90 4f 50
        E 96 90 4f 00
        E 24 90 4f 50
        E 96 90 4f 00
        E 24 90 4f 50
        E 96 90 4f 00
        E 24 90 4f 50
        E 96 90 4f 00
        E 24 90 4e 50
        E 96 90 4e 00
        E 24 90 4f 50
        E 96 90 4f 00
        E 24 90 4e 50
        E 192 90 4e 00
        E 48 90 4f 50
        E 192 90 4f 00
        E 48 90 52 50
        E 96 90 52 00
        E 24 90 52 50
        E 96 90 52 00
        E 24 90 52 50
        E 192 90 52 00
        E 48 90 51 50
        E 192 90 51 00
        E 48 90 51 50
        E 96 90 51 00
        E 24 90 51 50
        E 96 90 51 00
        E 24 90 51 50
        E 96 90 51 00
        E 24 90 51 50
        E 96 90 51 00
        E 24 90 51 50
        E 192 90 51 00
        E 48 90 4f 50
        E 192 90 4f 00
        E 48 90 4f 50
        E 96 90 4f 00
        E 24 90 4f 50
        E 96 90 4f 00
        E 24 90 4f 50
        E 96 90 4f 00
        E 24 90 4f 50
        E 96 90 4f 00
        E 24 90 4e 50
        E 96 90 4e 00
        E 24 90 4f 50
        E 96 90 4f 00
        E 24 90 4e 50
        E 384 90 4e 00
        E 96 90 4f 50
        E 598 90 4f 00
        E 122 b0 7b 00
        GUID {B42C83F3-4B7B-3C4B-831F-3586F412CD67}
        IGNTEMPO 0 120 4 4
        SRCCOLOR 253
        VELLANE -1 86 6
        CFGEDITVIEW 0 0 45 16 0 0 0 0 0 0.5
        KEYSNAP 0
        TRACKSEL 252
        EVTFILTER 0 -1 -1 -1 -1 0 0 0 0 -1 -1 -1 -1 0 -1 0 -1 -1
        CFGEDIT 1 0 0 0 0 0 1 0 1 1 1 0.25 413 148 1280 633 0 0 2 3 0 0 0 0 0 -1 0 0 1 64
      >
    >
    <ITEM
      POSITION 0
      SNAPOFFS 0
      LENGTH 41.5
      LOOP 1
      ALLTAKES 0
      FADEIN 1 0 0 1 0 0
      FADEOUT 1 0 0 1 0 0
      MUTE 0
      SEL 0
      YPOS 0.553957 0.05
      IGUID {3CE0801B-F711-DD4E-875C-FA04D4242FDC}
      IID 5
      NAME "Hoboj2 - National_Anthems_-_Slovakia2.mid"
      VOLPAN 1 0 1 -1
      SOFFS 0 0
      PLAYRATE 1 1 0 -1 0 0.0025
      CHANMODE 0
      TAKECOLOR 26173599 B
      GUID {52828F8A-8F24-D440-BC16-75135519AAF8}
      <SOURCE MIDI
        HASDATA 1 240 QN
        POOLEDEVTS {AF50F0A8-DC6B-8144-A699-81881B93B8AF}
        <X 0 0 0 0 3 Hoboj2
          /wNIb2JvajI=
        >
        E 0 90 4f 50
        E 96 90 4f 00
        E 24 90 4a 50
        E 96 90 4a 00
        E 24 90 4a 50
        E 192 90 4a 00
        E 48 90 4a 50
        E 192 90 4a 00
        E 48 90 4b 50
        E 96 90 4b 00
        E 24 90 4a 50
        E 96 90 4a 00
        E 24 90 4b 50
        E 96 90 4b 00
        E 24 90 4a 50
        E 96 90 4a 00
        E 24 90 4a 50
        E 96 90 4a 00
        E 24 90 4a 50
        E 96 90 4a 00
        E 24 90 4a 50
        E 192 90 4a 00
        E 48 90 46 50
        E 192 90 46 00
        E 48 90 4b 50
        E 96 90 4b 00
        E 24 90 48 50
        E 96 90 48 00
        E 24 90 4a 50
        E 192 90 4a 00
        E 48 90 4a 50
        E 192 90 4a 00
        E 48 90 4a 50
        E 96 90 4a 00
        E 24 90 4a 50
        E 96 90 4a 00
        E 24 90 48 50
        E 96 90 48 00
        E 24 90 4a 50
        E 96 90 4a 00
        E 24 90 4b 50
        E 96 90 4b 00
        E 24 90 4a 50
        E 96 90 4a 00
        E 24 90 48 50
        E 192 90 48 00
        E 48 90 4a 50
        E 192 90 4a 00
        E 48 90 4a 50
        E 96 90 4a 00
        E 24 90 4a 50
        E 96 90 4a 00
        E 24 90 4a 50
        E 192 90 4a 00
        E 48 90 48 50
        E 192 90 48 00
        E 48 90 4d 50
        E 96 90 4d 00
        E 24 90 4b 50
        E 96 90 4b 00
        E 24 90 4a 50
        E 96 90 4a 00
        E 24 90 45 50
        E 96 90 45 00
        E 24 90 45 50
        E 192 90 45 00
        E 48 90 46 50
        E 192 90 46 00
        E 48 90 46 50
        E 96 90 46 00
        E 24 90 46 50
        E 96 90 46 00
        E 24 90 45 50
        E 96 90 45 00
        E 24 90 46 50
        E 96 90 46 00
        E 24 90 48 50
        E 96 90 48 00
        E 24 90 46 50
        E 96 90 46 00
        E 24 90 45 50
        E 192 90 45 00
        E 48 90 46 50
        E 192 90 46 00
        E 48 90 4a 50
        E 96 90 4a 00
        E 24 90 4a 50
        E 96 90 4a 00
        E 24 90 4a 50
        E 192 90 4a 00
        E 48 90 48 50
        E 192 90 48 00
        E 48 90 4d 50
        E 96 90 4d 00
        E 24 90 4b 50
        E 96 90 4b 00
        E 24 90 4a 50
        E 96 90 4a 00
        E 24 90 45 50
        E 96 90 45 00
        E 24 90 45 50
        E 192 90 45 00
        E 48 90 46 50
        E 192 90 46 00
        E 48 90 46 50
        E 96 90 46 00
        E 24 90 46 50
        E 96 90 46 00
        E 24 90 45 50
        E 96 90 45 00
        E 24 90 46 50
        E 96 90 46 00
        E 24 90 48 50
        E 96 90 48 00
        E 24 90 46 50
        E 96 90 46 00
        E 24 90 45 50
        E 192 90 45 00
        E 48 90 46 50
        E 192 90 46 00
        E 48 90 4f 50
        E 96 90 4f 00
        E 24 90 4a 50
        E 96 90 4a 00
        E 24 90 4a 50
        E 192 90 4a 00
        E 48 90 4a 50
        E 192 90 4a 00
        E 48 90 4b 50
        E 96 90 4b 00
        E 24 90 4a 50
        E 96 90 4a 00
        E 24 90 4b 50
        E 96 90 4b 00
        E 24 90 4a 50
        E 96 90 4a 00
        E 24 90 4a 50
        E 96 90 4a 00
        E 24 90 4a 50
        E 96 90 4a 00
        E 24 90 4a 50
        E 192 90 4a 00
        E 48 90 46 50
        E 192 90 46 00
        E 48 90 4b 50
        E 96 90 4b 00
        E 24 90 48 50
        E 96 90 48 00
        E 24 90 4a 50
        E 192 90 4a 00
        E 48 90 4a 50
        E 192 90 4a 00
        E 48 90 4a 50
        E 96 90 4a 00
        E 24 90 4a 50
        E 96 90 4a 00
        E 24 90 48 50
        E 96 90 48 00
        E 24 90 4a 50
        E 96 90 4a 00
        E 24 90 4b 50
        E 96 90 4b 00
        E 24 90 4a 50
        E 96 90 4a 00
        E 24 90 48 50
        E 192 90 48 00
        E 48 90 4a 50
        E 192 90 4a 00
        E 48 90 4a 50
        E 96 90 4a 00
        E 24 90 4a 50
        E 96 90 4a 00
        E 24 90 4a 50
        E 192 90 4a 00
        E 48 90 48 50
        E 192 90 48 00
        E 48 90 4d 50
        E 96 90 4d 00
        E 24 90 4b 50
        E 96 90 4b 00
        E 24 90 4a 50
        E 96 90 4a 00
        E 24 90 45 50
        E 96 90 45 00
        E 24 90 45 50
        E 192 90 45 00
        E 48 90 46 50
        E 192 90 46 00
        E 48 90 46 50
        E 96 90 46 00
        E 24 90 46 50
        E 96 90 46 00
        E 24 90 45 50
        E 96 90 45 00
        E 24 90 46 50
        E 96 90 46 00
        E 24 90 48 50
        E 96 90 48 00
        E 24 90 46 50
        E 96 90 46 00
        E 24 90 45 50
        E 192 90 45 00
        E 48 90 46 50
        E 192 90 46 00
        E 48 90 4a 50
        E 96 90 4a 00
        E 24 90 4a 50
        E 96 90 4a 00
        E 24 90 4a 50
        E 192 90 4a 00
        E 48 90 48 50
        E 192 90 48 00
        E 48 90 4d 50
        E 96 90 4d 00
        E 24 90 4b 50
        E 96 90 4b 00
        E 24 90 4a 50
        E 96 90 4a 00
        E 24 90 45 50
        E 96 90 45 00
        E 24 90 45 50
        E 192 90 45 00
        E 48 90 46 50
        E 192 90 46 00
        E 48 90 46 50
        E 96 90 46 00
        E 24 90 46 50
        E 96 90 46 00
        E 24 90 45 50
        E 96 90 45 00
        E 24 90 46 50
        E 96 90 46 00
        E 24 90 48 50
        E 96 90 48 00
        E 24 90 46 50
        E 96 90 46 00
        E 24 90 45 50
        E 450 90 45 00
        E 30 90 43 50
        E 598 90 43 00
        E 122 b0 7b 00
        GUID {DD8E4837-F855-BD41-BEB8-C5185A427B58}
        IGNTEMPO 0 120 4 4
        SRCCOLOR 239
        VELLANE -1 86 6
        CFGEDITVIEW 7832.628972 189.863892 47 15 0 0 0 0 0 0.5
        KEYSNAP 0
        TRACKSEL 252
        EVTFILTER 0 -1 -1 -1 -1 0 0 0 0 -1 -1 -1 -1 0 -1 0 -1 -1
        CFGEDIT 1 0 0 0 0 0 1 0 1 1 1 0.25 413 148 1280 633 0 0 2 3 0 0 0 0 0 -1 0 0 1 64
      >
      TAKE
      NAME "Hoboj2 - National_Anthems_-_Slovakia2.mid"
      TAKEVOLPAN 0 1 -1
      SOFFS 0 0
      PLAYRATE 1 1 0 -1 0 0.0025
      CHANMODE 0
      GUID {797E0770-AAD3-9948-91A5-CDCCE1FFE253}
      <SOURCE MIDI
        HASDATA 1 240 QN
        POOLEDEVTS {EA1D8FD3-0B54-9741-A39B-DC7527EF5ECF}
        <X 0 0 0 0 3 Hoboj2
          /wNIb2JvajI=
        >
        E 0 90 4f 50
        E 96 90 4f 00
        E 24 90 4a 50
        E 96 90 4a 00
        E 24 90 4a 50
        E 192 90 4a 00
        E 48 90 4a 50
        E 192 90 4a 00
        E 48 90 4b 50
        E 96 90 4b 00
        E 24 90 4a 50
        E 96 90 4a 00
        E 24 90 4b 50
        E 96 90 4b 00
        E 24 90 4a 50
        E 96 90 4a 00
        E 24 90 4a 50
        E 96 90 4a 00
        E 24 90 4a 50
        E 96 90 4a 00
        E 24 90 4a 50
        E 192 90 4a 00
        E 48 90 46 50
        E 192 90 46 00
        E 48 90 4b 50
        E 96 90 4b 00
        E 24 90 48 50
        E 96 90 48 00
        E 24 90 4a 50
        E 192 90 4a 00
        E 48 90 4a 50
        E 192 90 4a 00
        E 48 90 4a 50
        E 96 90 4a 00
        E 24 90 4a 50
        E 96 90 4a 00
        E 24 90 48 50
        E 96 90 48 00
        E 24 90 4a 50
        E 96 90 4a 00
        E 24 90 4b 50
        E 96 90 4b 00
        E 24 90 4a 50
        E 96 90 4a 00
        E 24 90 48 50
        E 192 90 48 00
        E 48 90 4a 50
        E 192 90 4a 00
        E 48 90 4a 50
        E 96 90 4a 00
        E 24 90 4a 50
        E 96 90 4a 00
        E 24 90 4a 50
        E 192 90 4a 00
        E 48 90 48 50
        E 192 90 48 00
        E 48 90 4d 50
        E 96 90 4d 00
        E 24 90 4b 50
        E 96 90 4b 00
        E 24 90 4a 50
        E 96 90 4a 00
        E 24 90 45 50
        E 96 90 45 00
        E 24 90 45 50
        E 192 90 45 00
        E 48 90 46 50
        E 192 90 46 00
        E 48 90 46 50
        E 96 90 46 00
        E 24 90 46 50
        E 96 90 46 00
        E 24 90 45 50
        E 96 90 45 00
        E 24 90 46 50
        E 96 90 46 00
        E 24 90 48 50
        E 96 90 48 00
        E 24 90 46 50
        E 96 90 46 00
        E 24 90 45 50
        E 192 90 45 00
        E 48 90 46 50
        E 192 90 46 00
        E 48 90 4a 50
        E 96 90 4a 00
        E 24 90 4a 50
        E 96 90 4a 00
        E 24 90 4a 50
        E 192 90 4a 00
        E 48 90 48 50
        E 192 90 48 00
        E 48 90 4d 50
        E 96 90 4d 00
        E 24 90 4b 50
        E 96 90 4b 00
        E 24 90 4a 50
        E 96 90 4a 00
        E 24 90 45 50
        E 96 90 45 00
        E 24 90 45 50
        E 192 90 45 00
        E 48 90 46 50
        E 192 90 46 00
        E 48 90 46 50
        E 96 90 46 00
        E 24 90 46 50
        E 96 90 46 00
        E 24 90 45 50
        E 96 90 45 00
        E 24 90 46 50
        E 96 90 46 00
        E 24 90 48 50
        E 96 90 48 00
        E 24 90 46 50
        E 96 90 46 00
        E 24 90 45 50
        E 192 90 45 00
        E 48 90 46 50
        E 192 90 46 00
        E 48 90 4f 50
        E 96 90 4f 00
        E 24 90 4a 50
        E 96 90 4a 00
        E 24 90 4a 50
        E 192 90 4a 00
        E 48 90 4a 50
        E 192 90 4a 00
        E 48 90 4b 50
        E 96 90 4b 00
        E 24 90 4a 50
        E 96 90 4a 00
        E 24 90 4b 50
        E 96 90 4b 00
        E 24 90 4a 50
        E 96 90 4a 00
        E 24 90 4a 50
        E 96 90 4a 00
        E 24 90 4a 50
        E 96 90 4a 00
        E 24 90 4a 50
        E 192 90 4a 00
        E 48 90 46 50
        E 192 90 46 00
        E 48 90 4b 50
        E 96 90 4b 00
        E 24 90 48 50
        E 96 90 48 00
        E 24 90 4a 50
        E 192 90 4a 00
        E 48 90 4a 50
        E 192 90 4a 00
        E 48 90 4a 50
        E 96 90 4a 00
        E 24 90 4a 50
        E 96 90 4a 00
        E 24 90 48 50
        E 96 90 48 00
        E 24 90 4a 50
        E 96 90 4a 00
        E 24 90 4b 50
        E 96 90 4b 00
        E 24 90 4a 50
        E 96 90 4a 00
        E 24 90 48 50
        E 192 90 48 00
        E 48 90 4a 50
        E 192 90 4a 00
        E 48 90 4a 50
        E 96 90 4a 00
        E 24 90 4a 50
        E 96 90 4a 00
        E 24 90 4a 50
        E 192 90 4a 00
        E 48 90 48 50
        E 192 90 48 00
        E 48 90 4d 50
        E 96 90 4d 00
        E 24 90 4b 50
        E 96 90 4b 00
        E 24 90 4a 50
        E 96 90 4a 00
        E 24 90 45 50
        E 96 90 45 00
        E 24 90 45 50
        E 192 90 45 00
        E 48 90 46 50
        E 192 90 46 00
        E 48 90 46 50
        E 96 90 46 00
        E 24 90 46 50
        E 96 90 46 00
        E 24 90 45 50
        E 96 90 45 00
        E 24 90 46 50
        E 96 90 46 00
        E 24 90 48 50
        E 96 90 48 00
        E 24 90 46 50
        E 96 90 46 00
        E 24 90 45 50
        E 192 90 45 00
        E 48 90 46 50
        E 192 90 46 00
        E 48 90 4a 50
        E 96 90 4a 00
        E 24 90 4a 50
        E 96 90 4a 00
        E 24 90 4a 50
        E 192 90 4a 00
        E 48 90 48 50
        E 192 90 48 00
        E 48 90 4d 50
        E 96 90 4d 00
        E 24 90 4b 50
        E 96 90 4b 00
        E 24 90 4a 50
        E 96 90 4a 00
        E 24 90 45 50
        E 96 90 45 00
        E 24 90 45 50
        E 192 90 45 00
        E 48 90 46 50
        E 192 90 46 00
        E 48 90 46 50
        E 96 90 46 00
        E 24 90 46 50
        E 96 90 46 00
        E 24 90 45 50
        E 96 90 45 00
        E 24 90 46 50
        E 96 90 46 00
        E 24 90 48 50
        E 96 90 48 00
        E 24 90 46 50
        E 96 90 46 00
        E 24 90 45 50
        E 450 90 45 00
        E 30 90 43 50
        E 598 90 43 00
        E 122 b0 7b 00
        GUID {23908CA9-0A67-D849-9F02-12FDF9AB2E00}
        IGNTEMPO 0 120 4 4
        SRCCOLOR 254
        VELLANE -1 86 6
        CFGEDITVIEW 0 0 47 15 0 0 0 0 0 0.5
        KEYSNAP 0
        TRACKSEL 252
        EVTFILTER 0 -1 -1 -1 -1 0 0 0 0 -1 -1 -1 -1 0 -1 0 -1 -1
        CFGEDIT 1 0 0 0 0 0 1 0 1 1 1 0.25 413 148 1280 633 0 0 2 3 0 0 0 0 0 -1 0 0 1 64
      >
    >
    <ITEM
      POSITION 0
      SNAPOFFS 0
      LENGTH 41.5
      LOOP 1
      ALLTAKES 0
      FADEIN 1 0 0 1 0 0
      FADEOUT 1 0 0 1 0 0
      MUTE 0
      SEL 0
      YPOS 0.692446 0.05
      IGUID {7AADA1B7-BBA9-A34D-8A9E-705A0018922E}
      IID 6
      NAME "Klarinet3 - National_Anthems_-_Slovakia2.mid"
      VOLPAN 1 0 1 -1
      SOFFS 0 0
      PLAYRATE 1 1 0 -1 0 0.0025
      CHANMODE 0
      TAKECOLOR 26173599 B
      GUID {9DB26045-0AC5-414D-9BF9-9F430EDB86FB}
      <SOURCE MIDI
        HASDATA 1 240 QN
        POOLEDEVTS {004BCF3F-85C3-3642-88B8-E55F8664B95D}
        <X 0 0 0 0 3 Klarinet3
          /wNLbGFyaW5ldDM=
        >
        E 0 90 46 50
        E 96 90 46 00
        E 24 90 4a 50
        E 96 90 4a 00
        E 24 90 4a 50
        E 192 90 4a 00
        E 48 90 4a 50
        E 192 90 4a 00
        E 48 90 4b 50
        E 96 90 4b 00
        E 24 90 4a 50
        E 96 90 4a 00
        E 24 90 4b 50
        E 96 90 4b 00
        E 24 90 4a 50
        E 96 90 4a 00
        E 24 90 4a 50
        E 96 90 4a 00
        E 24 90 4a 50
        E 96 90 4a 00
        E 24 90 4a 50
        E 192 90 4a 00
        E 48 90 46 50
        E 192 90 46 00
        E 48 90 46 50
        E 96 90 46 00
        E 24 90 48 50
        E 96 90 48 00
        E 24 90 4a 50
        E 192 90 4a 00
        E 48 90 4a 50
        E 192 90 4a 00
        E 48 90 4a 50
        E 96 90 4a 00
        E 24 90 4a 50
        E 96 90 4a 00
        E 24 90 48 50
        E 96 90 48 00
        E 24 90 4a 50
        E 96 90 4a 00
        E 24 90 4b 50
        E 96 90 4b 00
        E 24 90 4a 50
        E 96 90 4a 00
        E 24 90 45 50
        E 192 90 45 00
        E 48 90 46 50
        E 192 90 46 00
        E 48 90 4a 50
        E 96 90 4a 00
        E 24 90 4a 50
        E 96 90 4a 00
        E 24 90 4a 50
        E 192 90 4a 00
        E 48 90 48 50
        E 192 90 48 00
        E 48 90 48 50
        E 96 90 48 00
        E 24 90 48 50
        E 96 90 48 00
        E 24 90 48 50
        E 96 90 48 00
        E 24 90 45 50
        E 96 90 45 00
        E 24 90 48 50
        E 192 90 48 00
        E 48 90 46 50
        E 192 90 46 00
        E 48 90 46 50
        E 96 90 46 00
        E 24 90 46 50
        E 96 90 46 00
        E 24 90 48 50
        E 96 90 48 00
        E 24 90 46 50
        E 96 90 46 00
        E 24 90 45 50
        E 96 90 45 00
        E 24 90 43 50
        E 96 90 43 00
        E 24 90 45 50
        E 192 90 45 00
        E 48 90 46 50
        E 192 90 46 00
        E 48 90 4a 50
        E 96 90 4a 00
        E 24 90 4a 50
        E 96 90 4a 00
        E 24 90 4a 50
        E 192 90 4a 00
        E 48 90 48 50
        E 192 90 48 00
        E 48 90 48 50
        E 96 90 48 00
        E 24 90 48 50
        E 96 90 48 00
        E 24 90 48 50
        E 96 90 48 00
        E 24 90 45 50
        E 96 90 45 00
        E 24 90 48 50
        E 192 90 48 00
        E 48 90 46 50
        E 192 90 46 00
        E 48 90 46 50
        E 96 90 46 00
        E 24 90 46 50
        E 96 90 46 00
        E 24 90 48 50
        E 96 90 48 00
        E 24 90 46 50
        E 96 90 46 00
        E 24 90 45 50
        E 96 90 45 00
        E 24 90 43 50
        E 96 90 43 00
        E 24 90 45 50
        E 192 90 45 00
        E 48 90 46 50
        E 192 90 46 00
        E 48 90 46 50
        E 96 90 46 00
        E 24 90 4a 50
        E 96 90 4a 00
        E 24 90 4a 50
        E 192 90 4a 00
        E 48 90 4a 50
        E 192 90 4a 00
        E 48 90 4b 50
        E 96 90 4b 00
        E 24 90 4a 50
        E 96 90 4a 00
        E 24 90 4b 50
        E 96 90 4b 00
        E 24 90 4a 50
        E 96 90 4a 00
        E 24 90 4a 50
        E 96 90 4a 00
        E 24 90 4a 50
        E 96 90 4a 00
        E 24 90 4a 50
        E 192 90 4a 00
        E 48 90 46 50
        E 192 90 46 00
        E 48 90 46 50
        E 96 90 46 00
        E 24 90 48 50
        E 96 90 48 00
        E 24 90 4a 50
        E 192 90 4a 00
        E 48 90 4a 50
        E 192 90 4a 00
        E 48 90 4a 50
        E 96 90 4a 00
        E 24 90 4a 50
        E 96 90 4a 00
        E 24 90 48 50
        E 96 90 48 00
        E 24 90 4a 50
        E 96 90 4a 00
        E 24 90 4b 50
        E 96 90 4b 00
        E 24 90 4a 50
        E 96 90 4a 00
        E 24 90 45 50
        E 192 90 45 00
        E 48 90 46 50
        E 192 90 46 00
        E 48 90 4a 50
        E 96 90 4a 00
        E 24 90 4a 50
        E 96 90 4a 00
        E 24 90 4a 50
        E 192 90 4a 00
        E 48 90 48 50
        E 192 90 48 00
        E 48 90 48 50
        E 96 90 48 00
        E 24 90 48 50
        E 96 90 48 00
        E 24 90 48 50
        E 96 90 48 00
        E 24 90 45 50
        E 96 90 45 00
        E 24 90 48 50
        E 192 90 48 00
        E 48 90 46 50
        E 192 90 46 00
        E 48 90 46 50
        E 96 90 46 00
        E 24 90 46 50
        E 96 90 46 00
        E 24 90 48 50
        E 96 90 48 00
        E 24 90 46 50
        E 96 90 46 00
        E 24 90 45 50
        E 96 90 45 00
        E 24 90 43 50
        E 96 90 43 00
        E 24 90 45 50
        E 192 90 45 00
        E 48 90 46 50
        E 192 90 46 00
        E 48 90 4a 50
        E 96 90 4a 00
        E 24 90 4a 50
        E 96 90 4a 00
        E 24 90 4a 50
        E 192 90 4a 00
        E 48 90 48 50
        E 192 90 48 00
        E 48 90 48 50
        E 96 90 48 00
        E 24 90 48 50
        E 96 90 48 00
        E 24 90 48 50
        E 96 90 48 00
        E 24 90 45 50
        E 96 90 45 00
        E 24 90 48 50
        E 192 90 48 00
        E 48 90 46 50
        E 192 90 46 00
        E 48 90 46 50
        E 96 90 46 00
        E 24 90 46 50
        E 96 90 46 00
        E 24 90 48 50
        E 96 90 48 00
        E 24 90 46 50
        E 96 90 46 00
        E 24 90 48 50
        E 96 90 48 00
        E 24 90 48 50
        E 96 90 48 00
        E 24 90 4a 50
        E 450 90 4a 00
        E 30 90 4a 50
        E 598 90 4a 00
        E 122 b0 7b 00
        GUID {8B553957-1BBE-8E49-BA3B-3AABB90F1D55}
        IGNTEMPO 0 120 4 4
        SRCCOLOR 240
        VELLANE -1 86 6
        CFGEDITVIEW 2622.940987 168.233955 51 22 0 0 0 0 0 0.5
        KEYSNAP 0
        TRACKSEL 252
        EVTFILTER 0 -1 -1 -1 -1 0 0 0 0 -1 -1 -1 -1 0 -1 0 -1 -1
        CFGEDIT 1 0 0 0 0 0 1 0 1 1 1 0.25 397 132 1280 633 0 0 2 3 0 0 0 0 0 -1 0 0 1 64
      >
      TAKE
      NAME "Klarinet3 - National_Anthems_-_Slovakia2.mid"
      TAKEVOLPAN 0 1 -1
      SOFFS 0 0
      PLAYRATE 1 1 0 -1 0 0.0025
      CHANMODE 0
      GUID {64897AAC-100C-8D46-B4AC-24B25A4A79B8}
      <SOURCE MIDI
        HASDATA 1 240 QN
        POOLEDEVTS {C49C21DD-5269-7443-8338-5F8F210AAEBD}
        <X 0 0 0 0 3 Klarinet3
          /wNLbGFyaW5ldDM=
        >
        E 0 90 46 50
        E 96 90 46 00
        E 24 90 4a 50
        E 96 90 4a 00
        E 24 90 4a 50
        E 192 90 4a 00
        E 48 90 4a 50
        E 192 90 4a 00
        E 48 90 4b 50
        E 96 90 4b 00
        E 24 90 4a 50
        E 96 90 4a 00
        E 24 90 4b 50
        E 96 90 4b 00
        E 24 90 4a 50
        E 96 90 4a 00
        E 24 90 4a 50
        E 96 90 4a 00
        E 24 90 4a 50
        E 96 90 4a 00
        E 24 90 4a 50
        E 192 90 4a 00
        E 48 90 46 50
        E 192 90 46 00
        E 48 90 46 50
        E 96 90 46 00
        E 24 90 48 50
        E 96 90 48 00
        E 24 90 4a 50
        E 192 90 4a 00
        E 48 90 4a 50
        E 192 90 4a 00
        E 48 90 4a 50
        E 96 90 4a 00
        E 24 90 4a 50
        E 96 90 4a 00
        E 24 90 48 50
        E 96 90 48 00
        E 24 90 4a 50
        E 96 90 4a 00
        E 24 90 4b 50
        E 96 90 4b 00
        E 24 90 4a 50
        E 96 90 4a 00
        E 24 90 45 50
        E 192 90 45 00
        E 48 90 46 50
        E 192 90 46 00
        E 48 90 4a 50
        E 96 90 4a 00
        E 24 90 4a 50
        E 96 90 4a 00
        E 24 90 4a 50
        E 192 90 4a 00
        E 48 90 48 50
        E 192 90 48 00
        E 48 90 48 50
        E 96 90 48 00
        E 24 90 48 50
        E 96 90 48 00
        E 24 90 48 50
        E 96 90 48 00
        E 24 90 45 50
        E 96 90 45 00
        E 24 90 48 50
        E 192 90 48 00
        E 48 90 46 50
        E 192 90 46 00
        E 48 90 46 50
        E 96 90 46 00
        E 24 90 46 50
        E 96 90 46 00
        E 24 90 48 50
        E 96 90 48 00
        E 24 90 46 50
        E 96 90 46 00
        E 24 90 45 50
        E 96 90 45 00
        E 24 90 43 50
        E 96 90 43 00
        E 24 90 45 50
        E 192 90 45 00
        E 48 90 46 50
        E 192 90 46 00
        E 48 90 4a 50
        E 96 90 4a 00
        E 24 90 4a 50
        E 96 90 4a 00
        E 24 90 4a 50
        E 192 90 4a 00
        E 48 90 48 50
        E 192 90 48 00
        E 48 90 48 50
        E 96 90 48 00
        E 24 90 48 50
        E 96 90 48 00
        E 24 90 48 50
        E 96 90 48 00
        E 24 90 45 50
        E 96 90 45 00
        E 24 90 48 50
        E 192 90 48 00
        E 48 90 46 50
        E 192 90 46 00
        E 48 90 46 50
        E 96 90 46 00
        E 24 90 46 50
        E 96 90 46 00
        E 24 90 48 50
        E 96 90 48 00
        E 24 90 46 50
        E 96 90 46 00
        E 24 90 45 50
        E 96 90 45 00
        E 24 90 43 50
        E 96 90 43 00
        E 24 90 45 50
        E 192 90 45 00
        E 48 90 46 50
        E 192 90 46 00
        E 48 90 46 50
        E 96 90 46 00
        E 24 90 4a 50
        E 96 90 4a 00
        E 24 90 4a 50
        E 192 90 4a 00
        E 48 90 4a 50
        E 192 90 4a 00
        E 48 90 4b 50
        E 96 90 4b 00
        E 24 90 4a 50
        E 96 90 4a 00
        E 24 90 4b 50
        E 96 90 4b 00
        E 24 90 4a 50
        E 96 90 4a 00
        E 24 90 4a 50
        E 96 90 4a 00
        E 24 90 4a 50
        E 96 90 4a 00
        E 24 90 4a 50
        E 192 90 4a 00
        E 48 90 46 50
        E 192 90 46 00
        E 48 90 46 50
        E 96 90 46 00
        E 24 90 48 50
        E 96 90 48 00
        E 24 90 4a 50
        E 192 90 4a 00
        E 48 90 4a 50
        E 192 90 4a 00
        E 48 90 4a 50
        E 96 90 4a 00
        E 24 90 4a 50
        E 96 90 4a 00
        E 24 90 48 50
        E 96 90 48 00
        E 24 90 4a 50
        E 96 90 4a 00
        E 24 90 4b 50
        E 96 90 4b 00
        E 24 90 4a 50
        E 96 90 4a 00
        E 24 90 45 50
        E 192 90 45 00
        E 48 90 46 50
        E 192 90 46 00
        E 48 90 4a 50
        E 96 90 4a 00
        E 24 90 4a 50
        E 96 90 4a 00
        E 24 90 4a 50
        E 192 90 4a 00
        E 48 90 48 50
        E 192 90 48 00
        E 48 90 48 50
        E 96 90 48 00
        E 24 90 48 50
        E 96 90 48 00
        E 24 90 48 50
        E 96 90 48 00
        E 24 90 45 50
        E 96 90 45 00
        E 24 90 48 50
        E 192 90 48 00
        E 48 90 46 50
        E 192 90 46 00
        E 48 90 46 50
        E 96 90 46 00
        E 24 90 46 50
        E 96 90 46 00
        E 24 90 48 50
        E 96 90 48 00
        E 24 90 46 50
        E 96 90 46 00
        E 24 90 45 50
        E 96 90 45 00
        E 24 90 43 50
        E 96 90 43 00
        E 24 90 45 50
        E 192 90 45 00
        E 48 90 46 50
        E 192 90 46 00
        E 48 90 4a 50
        E 96 90 4a 00
        E 24 90 4a 50
        E 96 90 4a 00
        E 24 90 4a 50
        E 192 90 4a 00
        E 48 90 48 50
        E 192 90 48 00
        E 48 90 48 50
        E 96 90 48 00
        E 24 90 48 50
        E 96 90 48 00
        E 24 90 48 50
        E 96 90 48 00
        E 24 90 45 50
        E 96 90 45 00
        E 24 90 48 50
        E 192 90 48 00
        E 48 90 46 50
        E 192 90 46 00
        E 48 90 46 50
        E 96 90 46 00
        E 24 90 46 50
        E 96 90 46 00
        E 24 90 48 50
        E 96 90 48 00
        E 24 90 46 50
        E 96 90 46 00
        E 24 90 48 50
        E 96 90 48 00
        E 24 90 48 50
        E 96 90 48 00
        E 24 90 4a 50
        E 450 90 4a 00
        E 30 90 4a 50
        E 598 90 4a 00
        E 122 b0 7b 00
        GUID {A14311FA-A34E-704B-A9E0-0273B8604FBA}
        IGNTEMPO 0 120 4 4
        SRCCOLOR 255
        VELLANE -1 86 6
        CFGEDITVIEW 0 0 51 22 0 0 0 0 0 0.5
        KEYSNAP 0
        TRACKSEL 252
        EVTFILTER 0 -1 -1 -1 -1 0 0 0 0 -1 -1 -1 -1 0 -1 0 -1 -1
        CFGEDIT 1 0 0 0 0 0 1 0 1 1 1 0.25 397 132 1280 633 0 0 2 3 0 0 0 0 0 -1 0 0 1 64
      >
    >
    <ITEM
      POSITION 0
      SNAPOFFS 0
      LENGTH 41.5
      LOOP 1
      ALLTAKES 0
      FADEIN 1 0 0 1 0 0
      FADEOUT 1 0 0 1 0 0
      MUTE 0
      SEL 0
      YPOS 0.830935 0.05
      IGUID {A6F77253-11B2-9048-88E4-5C01CBFD4D3E}
      IID 8
      NAME "Trubkab1 - National_Anthems_-_Slovakia2.mid"
      VOLPAN 1 0 1 -1
      SOFFS 0 0
      PLAYRATE 1 1 0 -1 0 0.0025
      CHANMODE 0
      TAKECOLOR 26173599 B
      GUID {B5C7CA3D-342F-5448-848D-6F5AC6D77E3B}
      <SOURCE MIDI
        HASDATA 1 240 QN
        POOLEDEVTS {B4034EC1-33ED-784A-BB46-5EE2EDBC2FDC}
        <X 0 0 0 0 3 Trubkab1
          /wNUcnVia2FiMQ==
        >
        E 0 90 3a 50
        E 96 90 3a 00
        E 24 90 3e 50
        E 96 90 3e 00
        E 24 90 3e 50
        E 192 90 3e 00
        E 48 90 3e 50
        E 192 90 3e 00
        E 48 90 43 50
        E 96 90 43 00
        E 24 90 41 50
        E 96 90 41 00
        E 24 90 3f 50
        E 96 90 3f 00
        E 24 90 3e 50
        E 96 90 3e 00
        E 24 90 3e 50
        E 96 90 3e 00
        E 24 90 3e 50
        E 96 90 3e 00
        E 24 90 3e 50
        E 192 90 3e 00
        E 48 90 3a 50
        E 192 90 3a 00
        E 48 90 3f 50
        E 96 90 3f 00
        E 24 90 41 50
        E 96 90 41 00
        E 24 90 41 50
        E 192 90 41 00
        E 48 90 41 50
        E 192 90 41 00
        E 48 90 41 50
        E 96 90 41 00
        E 24 90 43 50
        E 96 90 43 00
        E 24 90 43 50
        E 96 90 43 00
        E 24 90 41 50
        E 96 90 41 00
        E 24 90 41 50
        E 96 90 41 00
        E 24 90 41 50
        E 96 90 41 00
        E 24 90 41 50
        E 192 90 41 00
        E 48 90 41 50
        E 192 90 41 00
        E 48 90 41 50
        E 96 90 41 00
        E 24 90 41 50
        E 96 90 41 00
        E 24 90 41 50
        E 192 90 41 00
        E 48 90 41 50
        E 192 90 41 00
        E 48 90 45 50
        E 96 90 45 00
        E 24 90 43 50
        E 96 90 43 00
        E 24 90 42 50
        E 96 90 42 00
        E 24 90 42 50
        E 96 90 42 00
        E 24 90 3e 50
        E 192 90 3e 00
        E 48 90 3e 50
        E 192 90 3e 00
        E 48 90 3e 50
        E 96 90 3e 00
        E 24 90 3e 50
        E 96 90 3e 00
        E 24 90 3f 50
        E 96 90 3f 00
        E 24 90 3e 50
        E 96 90 3e 00
        E 24 90 42 50
        E 96 90 42 00
        E 24 90 43 50
        E 96 90 43 00
        E 24 90 3e 50
        E 192 90 3e 00
        E 48 90 3a 50
        E 192 90 3a 00
        E 48 90 41 50
        E 96 90 41 00
        E 24 90 41 50
        E 96 90 41 00
        E 24 90 41 50
        E 192 90 41 00
        E 48 90 41 50
        E 192 90 41 00
        E 48 90 45 50
        E 96 90 45 00
        E 24 90 43 50
        E 96 90 43 00
        E 24 90 42 50
        E 96 90 42 00
        E 24 90 42 50
        E 96 90 42 00
        E 24 90 3e 50
        E 192 90 3e 00
        E 48 90 3e 50
        E 192 90 3e 00
        E 48 90 3e 50
        E 96 90 3e 00
        E 24 90 3e 50
        E 96 90 3e 00
        E 24 90 3f 50
        E 96 90 3f 00
        E 24 90 3e 50
        E 96 90 3e 00
        E 24 90 42 50
        E 96 90 42 00
        E 24 90 43 50
        E 96 90 43 00
        E 24 90 3e 50
        E 192 90 3e 00
        E 48 90 3a 50
        E 192 90 3a 00
        E 48 90 3a 50
        E 96 90 3a 00
        E 24 90 3e 50
        E 96 90 3e 00
        E 24 90 3e 50
        E 192 90 3e 00
        E 48 90 3e 50
        E 192 90 3e 00
        E 48 90 43 50
        E 96 90 43 00
        E 24 90 41 50
        E 96 90 41 00
        E 24 90 3f 50
        E 96 90 3f 00
        E 24 90 3e 50
        E 96 90 3e 00
        E 24 90 3e 50
        E 96 90 3e 00
        E 24 90 3e 50
        E 96 90 3e 00
        E 24 90 3e 50
        E 192 90 3e 00
        E 48 90 3a 50
        E 192 90 3a 00
        E 48 90 3f 50
        E 96 90 3f 00
        E 24 90 41 50
        E 96 90 41 00
        E 24 90 41 50
        E 192 90 41 00
        E 48 90 41 50
        E 192 90 41 00
        E 48 90 41 50
        E 96 90 41 00
        E 24 90 43 50
        E 96 90 43 00
        E 24 90 43 50
        E 96 90 43 00
        E 24 90 41 50
        E 96 90 41 00
        E 24 90 41 50
        E 96 90 41 00
        E 24 90 41 50
        E 96 90 41 00
        E 24 90 41 50
        E 192 90 41 00
        E 48 90 41 50
        E 192 90 41 00
        E 48 90 41 50
        E 96 90 41 00
        E 24 90 41 50
        E 96 90 41 00
        E 24 90 41 50
        E 192 90 41 00
        E 48 90 41 50
        E 192 90 41 00
        E 48 90 45 50
        E 96 90 45 00
        E 24 90 43 50
        E 96 90 43 00
        E 24 90 42 50
        E 96 90 42 00
        E 24 90 42 50
        E 96 90 42 00
        E 24 90 3e 50
        E 192 90 3e 00
        E 48 90 3e 50
        E 192 90 3e 00
        E 48 90 3e 50
        E 96 90 3e 00
        E 24 90 3e 50
        E 96 90 3e 00
        E 24 90 3f 50
        E 96 90 3f 00
        E 24 90 3e 50
        E 96 90 3e 00
        E 24 90 42 50
        E 96 90 42 00
        E 24 90 43 50
        E 96 90 43 00
        E 24 90 3e 50
        E 192 90 3e 00
        E 48 90 3a 50
        E 192 90 3a 00
        E 48 90 41 50
        E 96 90 41 00
        E 24 90 41 50
        E 96 90 41 00
        E 24 90 41 50
        E 192 90 41 00
        E 48 90 41 50
        E 192 90 41 00
        E 48 90 45 50
        E 96 90 45 00
        E 24 90 43 50
        E 96 90 43 00
        E 24 90 42 50
        E 96 90 42 00
        E 24 90 42 50
        E 96 90 42 00
        E 24 90 3e 50
        E 192 90 3e 00
        E 48 90 3e 50
        E 192 90 3e 00
        E 48 90 3e 50
        E 96 90 3e 00
        E 24 90 3e 50
        E 96 90 3e 00
        E 24 90 3f 50
        E 96 90 3f 00
        E 24 90 3e 50
        E 96 90 3e 00
        E 24 90 42 50
        E 96 90 42 00
        E 24 90 43 50
        E 96 90 43 00
        E 24 90 42 50
        E 450 90 42 00
        E 30 90 43 50
        E 598 90 43 00
        E 122 b0 7b 00
        GUID {84A23A8F-CDAE-704E-B4EC-A0F74EA9B9E8}
        IGNTEMPO 0 120 4 4
        SRCCOLOR 242
        VELLANE -1 86 6
        CFGEDITVIEW 9508.77345 256.168576 45 16 0 0 0 0 0 0.5
        KEYSNAP 0
        TRACKSEL 252
        EVTFILTER 0 -1 -1 -1 -1 0 0 0 0 -1 -1 -1 -1 0 -1 0 -1 -1
        CFGEDIT 1 0 0 0 0 0 1 0 1 1 1 0.25 413 148 1280 633 0 0 2 3 0 0 0 0 0 -1 0 0 1 64
      >
      TAKE
      NAME "Trubkab1 - National_Anthems_-_Slovakia2.mid"
      TAKEVOLPAN 0 1 -1
      SOFFS 0 0
      PLAYRATE 1 1 0 -1 0 0.0025
      CHANMODE 0
      GUID {4B9FC7C4-0DA1-0143-B215-FC1E0C2390C1}
      <SOURCE MIDI
        HASDATA 1 240 QN
        POOLEDEVTS {AE7C9FC9-644C-FA45-AA71-B0E62156921E}
        <X 0 0 0 0 3 Trubkab1
          /wNUcnVia2FiMQ==
        >
        E 0 90 3a 50
        E 96 90 3a 00
        E 24 90 3e 50
        E 96 90 3e 00
        E 24 90 3e 50
        E 192 90 3e 00
        E 48 90 3e 50
        E 192 90 3e 00
        E 48 90 43 50
        E 96 90 43 00
        E 24 90 41 50
        E 96 90 41 00
        E 24 90 3f 50
        E 96 90 3f 00
        E 24 90 3e 50
        E 96 90 3e 00
        E 24 90 3e 50
        E 96 90 3e 00
        E 24 90 3e 50
        E 96 90 3e 00
        E 24 90 3e 50
        E 192 90 3e 00
        E 48 90 3a 50
        E 192 90 3a 00
        E 48 90 3f 50
        E 96 90 3f 00
        E 24 90 41 50
        E 96 90 41 00
        E 24 90 41 50
        E 192 90 41 00
        E 48 90 41 50
        E 192 90 41 00
        E 48 90 41 50
        E 96 90 41 00
        E 24 90 43 50
        E 96 90 43 00
        E 24 90 43 50
        E 96 90 43 00
        E 24 90 41 50
        E 96 90 41 00
        E 24 90 41 50
        E 96 90 41 00
        E 24 90 41 50
        E 96 90 41 00
        E 24 90 41 50
        E 192 90 41 00
        E 48 90 41 50
        E 192 90 41 00
        E 48 90 41 50
        E 96 90 41 00
        E 24 90 41 50
        E 96 90 41 00
        E 24 90 41 50
        E 192 90 41 00
        E 48 90 41 50
        E 192 90 41 00
        E 48 90 45 50
        E 96 90 45 00
        E 24 90 43 50
        E 96 90 43 00
        E 24 90 42 50
        E 96 90 42 00
        E 24 90 42 50
        E 96 90 42 00
        E 24 90 3e 50
        E 192 90 3e 00
        E 48 90 3e 50
        E 192 90 3e 00
        E 48 90 3e 50
        E 96 90 3e 00
        E 24 90 3e 50
        E 96 90 3e 00
        E 24 90 3f 50
        E 96 90 3f 00
        E 24 90 3e 50
        E 96 90 3e 00
        E 24 90 42 50
        E 96 90 42 00
        E 24 90 43 50
        E 96 90 43 00
        E 24 90 3e 50
        E 192 90 3e 00
        E 48 90 3a 50
        E 192 90 3a 00
        E 48 90 41 50
        E 96 90 41 00
        E 24 90 41 50
        E 96 90 41 00
        E 24 90 41 50
        E 192 90 41 00
        E 48 90 41 50
        E 192 90 41 00
        E 48 90 45 50
        E 96 90 45 00
        E 24 90 43 50
        E 96 90 43 00
        E 24 90 42 50
        E 96 90 42 00
        E 24 90 42 50
        E 96 90 42 00
        E 24 90 3e 50
        E 192 90 3e 00
        E 48 90 3e 50
        E 192 90 3e 00
        E 48 90 3e 50
        E 96 90 3e 00
        E 24 90 3e 50
        E 96 90 3e 00
        E 24 90 3f 50
        E 96 90 3f 00
        E 24 90 3e 50
        E 96 90 3e 00
        E 24 90 42 50
        E 96 90 42 00
        E 24 90 43 50
        E 96 90 43 00
        E 24 90 3e 50
        E 192 90 3e 00
        E 48 90 3a 50
        E 192 90 3a 00
        E 48 90 3a 50
        E 96 90 3a 00
        E 24 90 3e 50
        E 96 90 3e 00
        E 24 90 3e 50
        E 192 90 3e 00
        E 48 90 3e 50
        E 192 90 3e 00
        E 48 90 43 50
        E 96 90 43 00
        E 24 90 41 50
        E 96 90 41 00
        E 24 90 3f 50
        E 96 90 3f 00
        E 24 90 3e 50
        E 96 90 3e 00
        E 24 90 3e 50
        E 96 90 3e 00
        E 24 90 3e 50
        E 96 90 3e 00
        E 24 90 3e 50
        E 192 90 3e 00
        E 48 90 3a 50
        E 192 90 3a 00
        E 48 90 3f 50
        E 96 90 3f 00
        E 24 90 41 50
        E 96 90 41 00
        E 24 90 41 50
        E 192 90 41 00
        E 48 90 41 50
        E 192 90 41 00
        E 48 90 41 50
        E 96 90 41 00
        E 24 90 43 50
        E 96 90 43 00
        E 24 90 43 50
        E 96 90 43 00
        E 24 90 41 50
        E 96 90 41 00
        E 24 90 41 50
        E 96 90 41 00
        E 24 90 41 50
        E 96 90 41 00
        E 24 90 41 50
        E 192 90 41 00
        E 48 90 41 50
        E 192 90 41 00
        E 48 90 41 50
        E 96 90 41 00
        E 24 90 41 50
        E 96 90 41 00
        E 24 90 41 50
        E 192 90 41 00
        E 48 90 41 50
        E 192 90 41 00
        E 48 90 45 50
        E 96 90 45 00
        E 24 90 43 50
        E 96 90 43 00
        E 24 90 42 50
        E 96 90 42 00
        E 24 90 42 50
        E 96 90 42 00
        E 24 90 3e 50
        E 192 90 3e 00
        E 48 90 3e 50
        E 192 90 3e 00
        E 48 90 3e 50
        E 96 90 3e 00
        E 24 90 3e 50
        E 96 90 3e 00
        E 24 90 3f 50
        E 96 90 3f 00
        E 24 90 3e 50
        E 96 90 3e 00
        E 24 90 42 50
        E 96 90 42 00
        E 24 90 43 50
        E 96 90 43 00
        E 24 90 3e 50
        E 192 90 3e 00
        E 48 90 3a 50
        E 192 90 3a 00
        E 48 90 41 50
        E 96 90 41 00
        E 24 90 41 50
        E 96 90 41 00
        E 24 90 41 50
        E 192 90 41 00
        E 48 90 41 50
        E 192 90 41 00
        E 48 90 45 50
        E 96 90 45 00
        E 24 90 43 50
        E 96 90 43 00
        E 24 90 42 50
        E 96 90 42 00
        E 24 90 42 50
        E 96 90 42 00
        E 24 90 3e 50
        E 192 90 3e 00
        E 48 90 3e 50
        E 192 90 3e 00
        E 48 90 3e 50
        E 96 90 3e 00
        E 24 90 3e 50
        E 96 90 3e 00
        E 24 90 3f 50
        E 96 90 3f 00
        E 24 90 3e 50
        E 96 90 3e 00
        E 24 90 42 50
        E 96 90 42 00
        E 24 90 43 50
        E 96 90 43 00
        E 24 90 42 50
        E 450 90 42 00
        E 30 90 43 50
        E 598 90 43 00
        E 122 b0 7b 00
        GUID {6BFE5646-B1D5-3F49-A1F9-C6E3AC06C117}
        IGNTEMPO 0 120 4 4
        SRCCOLOR 256
        VELLANE -1 86 6
        CFGEDITVIEW 0 0 45 16 0 0 0 0 0 0.5
        KEYSNAP 0
        TRACKSEL 252
        EVTFILTER 0 -1 -1 -1 -1 0 0 0 0 -1 -1 -1 -1 0 -1 0 -1 -1
        CFGEDIT 1 0 0 0 0 0 1 0 1 1 1 0.25 413 148 1280 633 0 0 2 3 0 0 0 0 0 -1 0 0 1 64
      >
    >
    <ITEM
      POSITION 0
      SNAPOFFS 0
      LENGTH 41.5
      LOOP 1
      ALLTAKES 0
      FADEIN 1 0 0 1 0 0
      FADEOUT 1 0 0 1 0 0
      MUTE 0
      SEL 0
      YPOS 0.95 0.05
      IGUID {40A0A8D7-B5B0-FC40-9874-287EAE2962A4}
      IID 4
      NAME "Hoboj1 - National_Anthems_-_Slovakia2.mid"
      VOLPAN 1 0 1 -1
      SOFFS 0 0
      PLAYRATE 1 1 0 -1 0 0.0025
      CHANMODE 0
      TAKECOLOR 26173599 B
      GUID {F9FDAFB4-3888-7F4E-88FE-10DE2A3DB859}
      <SOURCE MIDI
        HASDATA 1 240 QN
        POOLEDEVTS {E1432283-CF84-564D-A0C3-25596A8292BF}
        <X 0 0 0 0 3 Hoboj1
          /wNIb2JvajE=
        >
        E 0 90 4f 50
        E 96 90 4f 00
        E 24 90 4e 50
        E 96 90 4e 00
        E 24 90 4f 50
        E 192 90 4f 00
        E 48 90 4f 50
        E 192 90 4f 00
        E 48 90 4f 50
        E 96 90 4f 00
        E 24 90 4f 50
        E 96 90 4f 00
        E 24 90 4f 50
        E 96 90 4f 00
        E 24 90 4f 50
        E 96 90 4f 00
        E 24 90 4e 50
        E 96 90 4e 00
        E 24 90 4f 50
        E 96 90 4f 00
        E 24 90 4e 50
        E 192 90 4e 00
        E 48 90 4f 50
        E 192 90 4f 00
        E 48 90 4b 50
        E 96 90 4b 00
        E 24 90 4d 50
        E 96 90 4d 00
        E 24 90 4d 50
        E 192 90 4d 00
        E 48 90 4d 50
        E 192 90 4d 00
        E 48 90 4d 50
        E 96 90 4d 00
        E 24 90 4f 50
        E 96 90 4f 00
        E 24 90 4f 50
        E 96 90 4f 00
        E 24 90 4d 50
        E 96 90 4d 00
        E 24 90 4d 50
        E 96 90 4d 00
        E 24 90 4d 50
        E 96 90 4d 00
        E 24 90 4d 50
        E 192 90 4d 00
        E 48 90 4d 50
        E 192 90 4d 00
        E 48 90 4d 50
        E 96 90 4d 00
        E 24 90 4d 50
        E 96 90 4d 00
        E 24 90 4d 50
        E 192 90 4d 00
        E 48 90 4d 50
        E 192 90 4d 00
        E 48 90 51 50
        E 96 90 51 00
        E 24 90 4f 50
        E 96 90 4f 00
        E 24 90 4e 50
        E 96 90 4e 00
        E 24 90 4e 50
        E 96 90 4e 00
        E 24 90 4a 50
        E 192 90 4a 00
        E 48 90 4a 50
        E 192 90 4a 00
        E 48 90 4a 50
        E 96 90 4a 00
        E 24 90 4a 50
        E 96 90 4a 00
        E 24 90 4b 50
        E 96 90 4b 00
        E 24 90 4a 50
        E 96 90 4a 00
        E 24 90 4a 50
        E 96 90 4a 00
        E 24 90 4a 50
        E 96 90 4a 00
        E 24 90 4a 50
        E 192 90 4a 00
        E 48 90 4a 50
        E 192 90 4a 00
        E 48 90 4d 50
        E 96 90 4d 00
        E 24 90 4d 50
        E 96 90 4d 00
        E 24 90 4d 50
        E 192 90 4d 00
        E 48 90 4d 50
        E 192 90 4d 00
        E 48 90 51 50
        E 96 90 51 00
        E 24 90 4f 50
        E 96 90 4f 00
        E 24 90 4e 50
        E 96 90 4e 00
        E 24 90 4e 50
        E 96 90 4e 00
        E 24 90 4a 50
        E 192 90 4a 00
        E 48 90 4a 50
        E 192 90 4a 00
        E 48 90 4a 50
        E 96 90 4a 00
        E 24 90 4a 50
        E 96 90 4a 00
        E 24 90 4b 50
        E 96 90 4b 00
        E 24 90 4a 50
        E 96 90 4a 00
        E 24 90 4a 50
        E 96 90 4a 00
        E 24 90 4a 50
        E 96 90 4a 00
        E 24 90 4a 50
        E 192 90 4a 00
        E 48 90 4a 50
        E 192 90 4a 00
        E 48 90 4f 50
        E 96 90 4f 00
        E 24 90 4e 50
        E 96 90 4e 00
        E 24 90 4f 50
        E 192 90 4f 00
        E 48 90 4f 50
        E 192 90 4f 00
        E 48 90 4f 50
        E 96 90 4f 00
        E 24 90 4f 50
        E 96 90 4f 00
        E 24 90 4f 50
        E 96 90 4f 00
        E 24 90 4f 50
        E 96 90 4f 00
        E 24 90 4e 50
        E 96 90 4e 00
        E 24 90 4f 50
        E 96 90 4f 00
        E 24 90 4e 50
        E 192 90 4e 00
        E 48 90 4f 50
        E 192 90 4f 00
        E 48 90 4b 50
        E 96 90 4b 00
        E 24 90 4d 50
        E 96 90 4d 00
        E 24 90 4d 50
        E 192 90 4d 00
        E 48 90 4d 50
        E 192 90 4d 00
        E 48 90 4d 50
        E 96 90 4d 00
        E 24 90 4f 50
        E 96 90 4f 00
        E 24 90 4f 50
        E 96 90 4f 00
        E 24 90 4d 50
        E 96 90 4d 00
        E 24 90 4d 50
        E 96 90 4d 00
        E 24 90 4d 50
        E 96 90 4d 00
        E 24 90 4d 50
        E 192 90 4d 00
        E 48 90 4d 50
        E 192 90 4d 00
        E 48 90 4d 50
        E 96 90 4d 00
        E 24 90 4d 50
        E 96 90 4d 00
        E 24 90 4d 50
        E 192 90 4d 00
        E 48 90 4d 50
        E 192 90 4d 00
        E 48 90 51 50
        E 96 90 51 00
        E 24 90 4f 50
        E 96 90 4f 00
        E 24 90 4e 50
        E 96 90 4e 00
        E 24 90 4e 50
        E 96 90 4e 00
        E 24 90 4a 50
        E 192 90 4a 00
        E 48 90 4a 50
        E 192 90 4a 00
        E 48 90 4a 50
        E 96 90 4a 00
        E 24 90 4a 50
        E 96 90 4a 00
        E 24 90 4b 50
        E 96 90 4b 00
        E 24 90 4a 50
        E 96 90 4a 00
        E 24 90 4a 50
        E 96 90 4a 00
        E 24 90 4a 50
        E 96 90 4a 00
        E 24 90 4a 50
        E 192 90 4a 00
        E 48 90 4a 50
        E 192 90 4a 00
        E 48 90 4d 50
        E 96 90 4d 00
        E 24 90 4d 50
        E 96 90 4d 00
        E 24 90 4d 50
        E 192 90 4d 00
        E 48 90 4d 50
        E 192 90 4d 00
        E 48 90 51 50
        E 96 90 51 00
        E 24 90 4f 50
        E 96 90 4f 00
        E 24 90 4e 50
        E 96 90 4e 00
        E 24 90 4e 50
        E 96 90 4e 00
        E 24 90 4a 50
        E 192 90 4a 00
        E 48 90 4a 50
        E 192 90 4a 00
        E 48 90 4a 50
        E 96 90 4a 00
        E 24 90 4a 50
        E 96 90 4a 00
        E 24 90 4b 50
        E 96 90 4b 00
        E 24 90 4a 50
        E 96 90 4a 00
        E 24 90 4a 50
        E 96 90 4a 00
        E 24 90 4b 50
        E 96 90 4b 00
        E 24 90 4a 50
        E 192 90 4a 00
        E 48 90 48 50
        E 192 90 48 00
        E 48 90 46 50
        E 598 90 46 00
        E 122 b0 7b 00
        GUID {DBF138A9-73EC-AE46-BD2D-DF84AF9359B1}
        IGNTEMPO 0 120 4 4
        SRCCOLOR 238
        VELLANE -1 86 6
        CFGEDITVIEW 9508.77345 256.168576 45 16 0 0 0 0 0 0.5
        KEYSNAP 0
        TRACKSEL 252
        EVTFILTER 0 -1 -1 -1 -1 0 0 0 0 -1 -1 -1 -1 0 -1 0 -1 -1
        CFGEDIT 1 0 0 0 0 0 1 0 1 1 1 0.25 413 148 1280 633 0 0 2 3 0 0 0 0 0 -1 0 0 1 64
      >
      TAKE
      NAME "Hoboj1 - National_Anthems_-_Slovakia2.mid"
      TAKEVOLPAN 0 1 -1
      SOFFS 0 0
      PLAYRATE 1 1 0 -1 0 0.0025
      CHANMODE 0
      GUID {610602D2-CAD0-2345-A60E-C6B807416B49}
      <SOURCE MIDI
        HASDATA 1 240 QN
        POOLEDEVTS {5F2EA656-F0C9-0843-B4E7-6A24E3B6CD2B}
        <X 0 0 0 0 3 Hoboj1
          /wNIb2JvajE=
        >
        E 0 90 4f 50
        E 96 90 4f 00
        E 24 90 4e 50
        E 96 90 4e 00
        E 24 90 4f 50
        E 192 90 4f 00
        E 48 90 4f 50
        E 192 90 4f 00
        E 48 90 4f 50
        E 96 90 4f 00
        E 24 90 4f 50
        E 96 90 4f 00
        E 24 90 4f 50
        E 96 90 4f 00
        E 24 90 4f 50
        E 96 90 4f 00
        E 24 90 4e 50
        E 96 90 4e 00
        E 24 90 4f 50
        E 96 90 4f 00
        E 24 90 4e 50
        E 192 90 4e 00
        E 48 90 4f 50
        E 192 90 4f 00
        E 48 90 4b 50
        E 96 90 4b 00
        E 24 90 4d 50
        E 96 90 4d 00
        E 24 90 4d 50
        E 192 90 4d 00
        E 48 90 4d 50
        E 192 90 4d 00
        E 48 90 4d 50
        E 96 90 4d 00
        E 24 90 4f 50
        E 96 90 4f 00
        E 24 90 4f 50
        E 96 90 4f 00
        E 24 90 4d 50
        E 96 90 4d 00
        E 24 90 4d 50
        E 96 90 4d 00
        E 24 90 4d 50
        E 96 90 4d 00
        E 24 90 4d 50
        E 192 90 4d 00
        E 48 90 4d 50
        E 192 90 4d 00
        E 48 90 4d 50
        E 96 90 4d 00
        E 24 90 4d 50
        E 96 90 4d 00
        E 24 90 4d 50
        E 192 90 4d 00
        E 48 90 4d 50
        E 192 90 4d 00
        E 48 90 51 50
        E 96 90 51 00
        E 24 90 4f 50
        E 96 90 4f 00
        E 24 90 4e 50
        E 96 90 4e 00
        E 24 90 4e 50
        E 96 90 4e 00
        E 24 90 4a 50
        E 192 90 4a 00
        E 48 90 4a 50
        E 192 90 4a 00
        E 48 90 4a 50
        E 96 90 4a 00
        E 24 90 4a 50
        E 96 90 4a 00
        E 24 90 4b 50
        E 96 90 4b 00
        E 24 90 4a 50
        E 96 90 4a 00
        E 24 90 4a 50
        E 96 90 4a 00
        E 24 90 4a 50
        E 96 90 4a 00
        E 24 90 4a 50
        E 192 90 4a 00
        E 48 90 4a 50
        E 192 90 4a 00
        E 48 90 4d 50
        E 96 90 4d 00
        E 24 90 4d 50
        E 96 90 4d 00
        E 24 90 4d 50
        E 192 90 4d 00
        E 48 90 4d 50
        E 192 90 4d 00
        E 48 90 51 50
        E 96 90 51 00
        E 24 90 4f 50
        E 96 90 4f 00
        E 24 90 4e 50
        E 96 90 4e 00
        E 24 90 4e 50
        E 96 90 4e 00
        E 24 90 4a 50
        E 192 90 4a 00
        E 48 90 4a 50
        E 192 90 4a 00
        E 48 90 4a 50
        E 96 90 4a 00
        E 24 90 4a 50
        E 96 90 4a 00
        E 24 90 4b 50
        E 96 90 4b 00
        E 24 90 4a 50
        E 96 90 4a 00
        E 24 90 4a 50
        E 96 90 4a 00
        E 24 90 4a 50
        E 96 90 4a 00
        E 24 90 4a 50
        E 192 90 4a 00
        E 48 90 4a 50
        E 192 90 4a 00
        E 48 90 4f 50
        E 96 90 4f 00
        E 24 90 4e 50
        E 96 90 4e 00
        E 24 90 4f 50
        E 192 90 4f 00
        E 48 90 4f 50
        E 192 90 4f 00
        E 48 90 4f 50
        E 96 90 4f 00
        E 24 90 4f 50
        E 96 90 4f 00
        E 24 90 4f 50
        E 96 90 4f 00
        E 24 90 4f 50
        E 96 90 4f 00
        E 24 90 4e 50
        E 96 90 4e 00
        E 24 90 4f 50
        E 96 90 4f 00
        E 24 90 4e 50
        E 192 90 4e 00
        E 48 90 4f 50
        E 192 90 4f 00
        E 48 90 4b 50
        E 96 90 4b 00
        E 24 90 4d 50
        E 96 90 4d 00
        E 24 90 4d 50
        E 192 90 4d 00
        E 48 90 4d 50
        E 192 90 4d 00
        E 48 90 4d 50
        E 96 90 4d 00
        E 24 90 4f 50
        E 96 90 4f 00
        E 24 90 4f 50
        E 96 90 4f 00
        E 24 90 4d 50
        E 96 90 4d 00
        E 24 90 4d 50
        E 96 90 4d 00
        E 24 90 4d 50
        E 96 90 4d 00
        E 24 90 4d 50
        E 192 90 4d 00
        E 48 90 4d 50
        E 192 90 4d 00
        E 48 90 4d 50
        E 96 90 4d 00
        E 24 90 4d 50
        E 96 90 4d 00
        E 24 90 4d 50
        E 192 90 4d 00
        E 48 90 4d 50
        E 192 90 4d 00
        E 48 90 51 50
        E 96 90 51 00
        E 24 90 4f 50
        E 96 90 4f 00
        E 24 90 4e 50
        E 96 90 4e 00
        E 24 90 4e 50
        E 96 90 4e 00
        E 24 90 4a 50
        E 192 90 4a 00
        E 48 90 4a 50
        E 192 90 4a 00
        E 48 90 4a 50
        E 96 90 4a 00
        E 24 90 4a 50
        E 96 90 4a 00
        E 24 90 4b 50
        E 96 90 4b 00
        E 24 90 4a 50
        E 96 90 4a 00
        E 24 90 4a 50
        E 96 90 4a 00
        E 24 90 4a 50
        E 96 90 4a 00
        E 24 90 4a 50
        E 192 90 4a 00
        E 48 90 4a 50
        E 192 90 4a 00
        E 48 90 4d 50
        E 96 90 4d 00
        E 24 90 4d 50
        E 96 90 4d 00
        E 24 90 4d 50
        E 192 90 4d 00
        E 48 90 4d 50
        E 192 90 4d 00
        E 48 90 51 50
        E 96 90 51 00
        E 24 90 4f 50
        E 96 90 4f 00
        E 24 90 4e 50
        E 96 90 4e 00
        E 24 90 4e 50
        E 96 90 4e 00
        E 24 90 4a 50
        E 192 90 4a 00
        E 48 90 4a 50
        E 192 90 4a 00
        E 48 90 4a 50
        E 96 90 4a 00
        E 24 90 4a 50
        E 96 90 4a 00
        E 24 90 4b 50
        E 96 90 4b 00
        E 24 90 4a 50
        E 96 90 4a 00
        E 24 90 4a 50
        E 96 90 4a 00
        E 24 90 4b 50
        E 96 90 4b 00
        E 24 90 4a 50
        E 192 90 4a 00
        E 48 90 48 50
        E 192 90 48 00
        E 48 90 46 50
        E 598 90 46 00
        E 122 b0 7b 00
        GUID {E35522C3-1C0D-2C40-804A-DA8AB46E1177}
        IGNTEMPO 0 120 4 4
        SRCCOLOR 257
        VELLANE -1 86 6
        CFGEDITVIEW 0 0 45 16 0 0 0 0 0 0.5
        KEYSNAP 0
        TRACKSEL 252
        EVTFILTER 0 -1 -1 -1 -1 0 0 0 0 -1 -1 -1 -1 0 -1 0 -1 -1
        CFGEDIT 1 0 0 0 0 0 1 0 1 1 1 0.25 413 148 1280 633 0 0 2 3 0 0 0 0 0 -1 0 0 1 64
      >
    >
  >
  <TRACK {2E103EAF-0FA2-9942-87A1-30E1663A9F4B}
    NAME "--- 0 --- 0 --- 0 "
    PEAKCOL 16576
    BEAT -1
    AUTOMODE 0
    VOLPAN 1 0 -1 -1 1
    MUTESOLO 0 0 0
    IPHASE 0
    ISBUS 0 0
    BUSCOMP 0 0
    SHOWINMIX 1 0.6667 0.565574 0 0.111111 0 0 0
    FREEMODE 0
    SEL 0
    REC 0 0 0 0 0 0 0
    VU 2
    TRACKHEIGHT 63 0
    INQ 0 0 0 0.5 100 0 0 100
    NCHAN 2
    FX 1
    TRACKID {2E103EAF-0FA2-9942-87A1-30E1663A9F4B}
    PERF 0
    LAYOUTS "" Separator
    MIDIOUT -1
    MAINSEND 1 0
  >
  <TRACK {4A6CD977-ADCC-3A4D-927C-BB2CEF4B0809}
    NAME "vst Gladiator"
    PEAKCOL 27222112
    BEAT -1
    AUTOMODE 0
    VOLPAN 0.43690161405325 0 -1 -1 1
    MUTESOLO 0 2 0
    IPHASE 0
    ISBUS 0 0
    BUSCOMP 2 0
    SHOWINMIX 1 0.6667 0.5 1 0.111111 0 0 0
    FREEMODE 0
    SEL 1
    REC 0 0 0 0 0 0 0
    VU 2
    TRACKHEIGHT 171 0
    INQ 0 0 0 0.5 100 0 0 100
    NCHAN 2
    FX 1
    TRACKID {4A6CD977-ADCC-3A4D-927C-BB2CEF4B0809}
    PERF 0
    MIDIOUT -1
    MAINSEND 1 0
    <FXCHAIN
      WNDRECT 528 36 724 387
      SHOW 1
      LASTSEL 0
      DOCKED 1
      BYPASS 0 0 0
      <VST "VSTi: Gladiator (Tone2.com)" Gladiator.vst 0 "" 1412581196
        TEcyVO5e7f4AAAAAAgAAAAEAAAAAAAAAAgAAAAAAAABaBAAAAQAAAAAAEAA=
        Q2NuSwAAAGBGeENrAAAAAVQyR0wAAAABAAABB0luaXQAAAAAAAAAAAAAAAAAAAAAAAAAAAAAAAA9zMzNPMzMzTw0OVg9uFH0PXnbIz+AAAA7xJumPb52yT+AAAA7xJum
        AAAAAD6mZmY+PXCkP4AAAD7FHrk/AAAAPwAAAAAAAAA9ffO2PdDlYDy8an8/RR64AAAAAD+AAAA8NDlYPZFocz71wo87RJumPbhR6D69cKQ+PXCkP4AAAD8AAAA/A9cL
        PwAAAAAAAAAAAAAAPwAAAD8AAAA/AAAAPtmZmj8AAAAAAAAAO+VgQj24UesAAAAAPk21xDtEm6Y/S4UeAAAAAAAAAAA+64UgPpR64T1hR7A+z1woPx64Uj49cKY/AAAA
        PwAAAAAAAAAAAAAAPwAAAAAAAAAAAAAAP4AAAD+AAAAAAAAAPxHrhT8AAAA/AAAAPwAAAD8AAAAAAAAAPwAAAD8AAAA/AAAAAAAAAD8AAAA/AAAAPwAAAAAAAAA6gxJv
        P1Cj1wAAAAA/gAAAAAAAADqDEm8/AAAAAAAAAAAAAAAAAAAAPwAAAAAAAAA/gAAAAAAAAD+AAAAAAAAAPwAAAD8AAAA/AAAAPwAAAD8AAAA/AAAAPwAAAD8AAAA/AAAA
        PwAAAD8AAAA/EeuGPKPXCjqDEm88RJumAAAAAAAAAAAAAAAAPLxqfwAAAAAAAAAAAAAAAAAAAAAAAAAAAAAAAAAAAAAAAAAAAAAAAAAAAAAAAAAAAAAAAAAAAAAAAAAA
        AAAAAAAAAAA8E3S8AAAAADw0OVgAAAAAPBN0vAAAAAA8NDlYAAAAADwTdLwAAAAAPDQ5WAAAAAA8E3S8AAAAADw0OVgAAAAAPGVgQj2HKwI8ZWBCOwMSbz2JN0w7AxJv
        PLQ5WDyLQ5Y8k3S8PVT99D0XjVA8zMzNPoAAAD9ywjU/AAAAP1GnuT8wjT4/HLCNAAAAADsDEm87xJumAAAAAAAAAAAAAAAAPwAAADqDEm87RJumP4AAAAAAAAA/gAAA
        AAAAAD+AAAAAAAAAAAAAAAAAAAAAAAAAP4AAAAAAAAA/AAAAAAAAAD8AAAA/BR64PwAAAD+AAAA/AAAAPwAAAD8AAAA/gAAAP4AAAAAAAAAAAAAAAAAAAD8AAAA/gAAA
        PwAAAAAAAAA+vXCkAAAAAAAAAAA/gAAAP4AAAD8j1wo/gAAAAAAAAAAAAAA/gAAAPwAAAAAAAAAAAAAAAAAAAAAAAAAAAAAAAAAAAAAAAAAAAAAAAAAAAAAAAAAAAAAA
        AAAAAD8AAAA/AAAAPwAAAD8AAAA/AAAAPwAAAAAAAAAAAAAAP4AAAAAAAAAAAAAAAAAAAAAAAAAAAAAAAAAAAAAAAAAAAAAAAAAAAAAAAAAAAAAAAAAAAAAAAAAAAAAA
        AAAAAAAAAAAAAAAAAAAAAAAAAAAAAAAAAAAAAAAAAAAAAAAAAAAAAAAAAAAAAAAAAAAAAAAAqqusrQ==
        AEluaXQAEAAAAA==
      >
      PRESETNAME Init
      FLOATPOS 294 4 986 773
      FXID {532372E3-5B0D-9345-A9C8-98A8EBAF9A7E}
      WAK 0
    >
    <ITEM
      POSITION 0
      SNAPOFFS 0
      LENGTH 41.5
      LOOP 1
      ALLTAKES 0
      FADEIN 1 0 0 1 0 0
      FADEOUT 1 0 0 1 0 0
      MUTE 1
      SEL 0
      YPOS 0.415468 0.05
      IGUID {49E6AECD-6D3D-DA42-9463-760354039E52}
      IID 3
      NAME "Flauta2 - National_Anthems_-_Slovakia2.mid"
      VOLPAN 1 0 1 -1
      SOFFS 0 0
      PLAYRATE 1 1 0 -1 0 0.0025
      CHANMODE 0
      TAKECOLOR 26173599 B
      GUID {66AAEDE7-E898-E640-ABA3-94564EAD528A}
      <SOURCE MIDI
        HASDATA 1 240 QN
        POOLEDEVTS {25CAB3AB-477C-854F-9190-D71DB3E69B68}
        <X 0 0 0 0 3 Flauta2
          /wNGbGF1dGEy
        >
        E 0 90 4f 50
        E 96 90 4f 00
        E 24 90 4e 50
        E 96 90 4e 00
        E 24 90 4f 50
        E 192 90 4f 00
        E 48 90 4f 50
        E 192 90 4f 00
        E 48 90 4f 50
        E 96 90 4f 00
        E 24 90 4f 50
        E 96 90 4f 00
        E 24 90 4f 50
        E 96 90 4f 00
        E 24 90 4f 50
        E 96 90 4f 00
        E 24 90 4e 50
        E 96 90 4e 00
        E 24 90 4f 50
        E 96 90 4f 00
        E 24 90 4e 50
        E 192 90 4e 00
        E 48 90 4f 50
        E 192 90 4f 00
        E 48 90 52 50
        E 96 90 52 00
        E 24 90 51 50
        E 96 90 51 00
        E 24 90 52 50
        E 192 90 52 00
        E 48 90 52 50
        E 192 90 52 00
        E 48 90 52 50
        E 96 90 52 00
        E 24 90 52 50
        E 96 90 52 00
        E 24 90 52 50
        E 96 90 52 00
        E 24 90 52 50
        E 96 90 52 00
        E 24 90 51 50
        E 96 90 51 00
        E 24 90 52 50
        E 96 90 52 00
        E 24 90 51 50
        E 192 90 51 00
        E 48 90 52 50
        E 192 90 52 00
        E 48 90 52 50
        E 96 90 52 00
        E 24 90 52 50
        E 96 90 52 00
        E 24 90 52 50
        E 192 90 52 00
        E 48 90 51 50
        E 192 90 51 00
        E 48 90 51 50
        E 96 90 51 00
        E 24 90 51 50
        E 96 90 51 00
        E 24 90 51 50
        E 96 90 51 00
        E 24 90 51 50
        E 96 90 51 00
        E 24 90 51 50
        E 192 90 51 00
        E 48 90 4f 50
        E 192 90 4f 00
        E 48 90 4f 50
        E 96 90 4f 00
        E 24 90 4f 50
        E 96 90 4f 00
        E 24 90 4f 50
        E 96 90 4f 00
        E 24 90 4f 50
        E 96 90 4f 00
        E 24 90 4e 50
        E 96 90 4e 00
        E 24 90 4f 50
        E 96 90 4f 00
        E 24 90 4e 50
        E 192 90 4e 00
        E 48 90 4f 50
        E 192 90 4f 00
        E 48 90 52 50
        E 96 90 52 00
        E 24 90 52 50
        E 96 90 52 00
        E 24 90 52 50
        E 192 90 52 00
        E 48 90 51 50
        E 192 90 51 00
        E 48 90 51 50
        E 96 90 51 00
        E 24 90 51 50
        E 96 90 51 00
        E 24 90 51 50
        E 96 90 51 00
        E 24 90 51 50
        E 96 90 51 00
        E 24 90 51 50
        E 192 90 51 00
        E 48 90 4f 50
        E 192 90 4f 00
        E 48 90 4f 50
        E 96 90 4f 00
        E 24 90 4f 50
        E 96 90 4f 00
        E 24 90 4f 50
        E 96 90 4f 00
        E 24 90 4f 50
        E 96 90 4f 00
        E 24 90 4e 50
        E 96 90 4e 00
        E 24 90 4f 50
        E 96 90 4f 00
        E 24 90 4e 50
        E 192 90 4e 00
        E 48 90 4f 50
        E 192 90 4f 00
        E 48 90 4f 50
        E 96 90 4f 00
        E 24 90 4e 50
        E 96 90 4e 00
        E 24 90 4f 50
        E 192 90 4f 00
        E 48 90 4f 50
        E 192 90 4f 00
        E 48 90 4f 50
        E 96 90 4f 00
        E 24 90 4f 50
        E 96 90 4f 00
        E 24 90 4f 50
        E 96 90 4f 00
        E 24 90 4f 50
        E 96 90 4f 00
        E 24 90 4e 50
        E 96 90 4e 00
        E 24 90 4f 50
        E 96 90 4f 00
        E 24 90 4e 50
        E 192 90 4e 00
        E 48 90 4f 50
        E 192 90 4f 00
        E 48 90 52 50
        E 96 90 52 00
        E 24 90 51 50
        E 96 90 51 00
        E 24 90 52 50
        E 192 90 52 00
        E 48 90 52 50
        E 192 90 52 00
        E 48 90 52 50
        E 96 90 52 00
        E 24 90 52 50
        E 96 90 52 00
        E 24 90 52 50
        E 96 90 52 00
        E 24 90 52 50
        E 96 90 52 00
        E 24 90 51 50
        E 96 90 51 00
        E 24 90 52 50
        E 96 90 52 00
        E 24 90 51 50
        E 192 90 51 00
        E 48 90 52 50
        E 192 90 52 00
        E 48 90 52 50
        E 96 90 52 00
        E 24 90 52 50
        E 96 90 52 00
        E 24 90 52 50
        E 192 90 52 00
        E 48 90 51 50
        E 192 90 51 00
        E 48 90 51 50
        E 96 90 51 00
        E 24 90 51 50
        E 96 90 51 00
        E 24 90 51 50
        E 96 90 51 00
        E 24 90 51 50
        E 96 90 51 00
        E 24 90 51 50
        E 192 90 51 00
        E 48 90 4f 50
        E 192 90 4f 00
        E 48 90 4f 50
        E 96 90 4f 00
        E 24 90 4f 50
        E 96 90 4f 00
        E 24 90 4f 50
        E 96 90 4f 00
        E 24 90 4f 50
        E 96 90 4f 00
        E 24 90 4e 50
        E 96 90 4e 00
        E 24 90 4f 50
        E 96 90 4f 00
        E 24 90 4e 50
        E 192 90 4e 00
        E 48 90 4f 50
        E 192 90 4f 00
        E 48 90 52 50
        E 96 90 52 00
        E 24 90 52 50
        E 96 90 52 00
        E 24 90 52 50
        E 192 90 52 00
        E 48 90 51 50
        E 192 90 51 00
        E 48 90 51 50
        E 96 90 51 00
        E 24 90 51 50
        E 96 90 51 00
        E 24 90 51 50
        E 96 90 51 00
        E 24 90 51 50
        E 96 90 51 00
        E 24 90 51 50
        E 192 90 51 00
        E 48 90 4f 50
        E 192 90 4f 00
        E 48 90 4f 50
        E 96 90 4f 00
        E 24 90 4f 50
        E 96 90 4f 00
        E 24 90 4f 50
        E 96 90 4f 00
        E 24 90 4f 50
        E 96 90 4f 00
        E 24 90 4e 50
        E 96 90 4e 00
        E 24 90 4f 50
        E 96 90 4f 00
        E 24 90 4e 50
        E 384 90 4e 00
        E 96 90 4f 50
        E 598 90 4f 00
        E 122 b0 7b 00
        GUID {2C66DFBC-5CC5-C947-B09A-B59DA6CF287F}
        IGNTEMPO 0 120 4 4
        SRCCOLOR 237
        VELLANE -1 86 6
        CFGEDITVIEW 8580.611062 90.377764 45 16 0 0 0 0 0 0.5
        KEYSNAP 0
        TRACKSEL 252
        EVTFILTER 0 -1 -1 -1 -1 0 0 0 0 -1 -1 -1 -1 0 -1 0 -1 -1
        CFGEDIT 1 0 0 0 0 0 1 0 1 1 1 0.25 413 148 1280 633 0 0 2 3 0 0 0 0 0 -1 0 0 1 64
      >
      TAKE
      NAME "Flauta2 - National_Anthems_-_Slovakia2.mid"
      TAKEVOLPAN 0 1 -1
      SOFFS 0 0
      PLAYRATE 1 1 0 -1 0 0.0025
      CHANMODE 0
      GUID {7245E1A9-FFBD-8C4A-849F-539C8CFB1B6B}
      <SOURCE MIDI
        HASDATA 1 240 QN
        POOLEDEVTS {832C9F2E-1B75-D041-9B6C-DB7D5302E75B}
        <X 0 0 0 0 3 Flauta2
          /wNGbGF1dGEy
        >
        E 0 90 4f 50
        E 96 90 4f 00
        E 24 90 4e 50
        E 96 90 4e 00
        E 24 90 4f 50
        E 192 90 4f 00
        E 48 90 4f 50
        E 192 90 4f 00
        E 48 90 4f 50
        E 96 90 4f 00
        E 24 90 4f 50
        E 96 90 4f 00
        E 24 90 4f 50
        E 96 90 4f 00
        E 24 90 4f 50
        E 96 90 4f 00
        E 24 90 4e 50
        E 96 90 4e 00
        E 24 90 4f 50
        E 96 90 4f 00
        E 24 90 4e 50
        E 192 90 4e 00
        E 48 90 4f 50
        E 192 90 4f 00
        E 48 90 52 50
        E 96 90 52 00
        E 24 90 51 50
        E 96 90 51 00
        E 24 90 52 50
        E 192 90 52 00
        E 48 90 52 50
        E 192 90 52 00
        E 48 90 52 50
        E 96 90 52 00
        E 24 90 52 50
        E 96 90 52 00
        E 24 90 52 50
        E 96 90 52 00
        E 24 90 52 50
        E 96 90 52 00
        E 24 90 51 50
        E 96 90 51 00
        E 24 90 52 50
        E 96 90 52 00
        E 24 90 51 50
        E 192 90 51 00
        E 48 90 52 50
        E 192 90 52 00
        E 48 90 52 50
        E 96 90 52 00
        E 24 90 52 50
        E 96 90 52 00
        E 24 90 52 50
        E 192 90 52 00
        E 48 90 51 50
        E 192 90 51 00
        E 48 90 51 50
        E 96 90 51 00
        E 24 90 51 50
        E 96 90 51 00
        E 24 90 51 50
        E 96 90 51 00
        E 24 90 51 50
        E 96 90 51 00
        E 24 90 51 50
        E 192 90 51 00
        E 48 90 4f 50
        E 192 90 4f 00
        E 48 90 4f 50
        E 96 90 4f 00
        E 24 90 4f 50
        E 96 90 4f 00
        E 24 90 4f 50
        E 96 90 4f 00
        E 24 90 4f 50
        E 96 90 4f 00
        E 24 90 4e 50
        E 96 90 4e 00
        E 24 90 4f 50
        E 96 90 4f 00
        E 24 90 4e 50
        E 192 90 4e 00
        E 48 90 4f 50
        E 192 90 4f 00
        E 48 90 52 50
        E 96 90 52 00
        E 24 90 52 50
        E 96 90 52 00
        E 24 90 52 50
        E 192 90 52 00
        E 48 90 51 50
        E 192 90 51 00
        E 48 90 51 50
        E 96 90 51 00
        E 24 90 51 50
        E 96 90 51 00
        E 24 90 51 50
        E 96 90 51 00
        E 24 90 51 50
        E 96 90 51 00
        E 24 90 51 50
        E 192 90 51 00
        E 48 90 4f 50
        E 192 90 4f 00
        E 48 90 4f 50
        E 96 90 4f 00
        E 24 90 4f 50
        E 96 90 4f 00
        E 24 90 4f 50
        E 96 90 4f 00
        E 24 90 4f 50
        E 96 90 4f 00
        E 24 90 4e 50
        E 96 90 4e 00
        E 24 90 4f 50
        E 96 90 4f 00
        E 24 90 4e 50
        E 192 90 4e 00
        E 48 90 4f 50
        E 192 90 4f 00
        E 48 90 4f 50
        E 96 90 4f 00
        E 24 90 4e 50
        E 96 90 4e 00
        E 24 90 4f 50
        E 192 90 4f 00
        E 48 90 4f 50
        E 192 90 4f 00
        E 48 90 4f 50
        E 96 90 4f 00
        E 24 90 4f 50
        E 96 90 4f 00
        E 24 90 4f 50
        E 96 90 4f 00
        E 24 90 4f 50
        E 96 90 4f 00
        E 24 90 4e 50
        E 96 90 4e 00
        E 24 90 4f 50
        E 96 90 4f 00
        E 24 90 4e 50
        E 192 90 4e 00
        E 48 90 4f 50
        E 192 90 4f 00
        E 48 90 52 50
        E 96 90 52 00
        E 24 90 51 50
        E 96 90 51 00
        E 24 90 52 50
        E 192 90 52 00
        E 48 90 52 50
        E 192 90 52 00
        E 48 90 52 50
        E 96 90 52 00
        E 24 90 52 50
        E 96 90 52 00
        E 24 90 52 50
        E 96 90 52 00
        E 24 90 52 50
        E 96 90 52 00
        E 24 90 51 50
        E 96 90 51 00
        E 24 90 52 50
        E 96 90 52 00
        E 24 90 51 50
        E 192 90 51 00
        E 48 90 52 50
        E 192 90 52 00
        E 48 90 52 50
        E 96 90 52 00
        E 24 90 52 50
        E 96 90 52 00
        E 24 90 52 50
        E 192 90 52 00
        E 48 90 51 50
        E 192 90 51 00
        E 48 90 51 50
        E 96 90 51 00
        E 24 90 51 50
        E 96 90 51 00
        E 24 90 51 50
        E 96 90 51 00
        E 24 90 51 50
        E 96 90 51 00
        E 24 90 51 50
        E 192 90 51 00
        E 48 90 4f 50
        E 192 90 4f 00
        E 48 90 4f 50
        E 96 90 4f 00
        E 24 90 4f 50
        E 96 90 4f 00
        E 24 90 4f 50
        E 96 90 4f 00
        E 24 90 4f 50
        E 96 90 4f 00
        E 24 90 4e 50
        E 96 90 4e 00
        E 24 90 4f 50
        E 96 90 4f 00
        E 24 90 4e 50
        E 192 90 4e 00
        E 48 90 4f 50
        E 192 90 4f 00
        E 48 90 52 50
        E 96 90 52 00
        E 24 90 52 50
        E 96 90 52 00
        E 24 90 52 50
        E 192 90 52 00
        E 48 90 51 50
        E 192 90 51 00
        E 48 90 51 50
        E 96 90 51 00
        E 24 90 51 50
        E 96 90 51 00
        E 24 90 51 50
        E 96 90 51 00
        E 24 90 51 50
        E 96 90 51 00
        E 24 90 51 50
        E 192 90 51 00
        E 48 90 4f 50
        E 192 90 4f 00
        E 48 90 4f 50
        E 96 90 4f 00
        E 24 90 4f 50
        E 96 90 4f 00
        E 24 90 4f 50
        E 96 90 4f 00
        E 24 90 4f 50
        E 96 90 4f 00
        E 24 90 4e 50
        E 96 90 4e 00
        E 24 90 4f 50
        E 96 90 4f 00
        E 24 90 4e 50
        E 384 90 4e 00
        E 96 90 4f 50
        E 598 90 4f 00
        E 122 b0 7b 00
        GUID {B42C83F3-4B7B-3C4B-831F-3586F412CD67}
        IGNTEMPO 0 120 4 4
        SRCCOLOR 253
        VELLANE -1 86 6
        CFGEDITVIEW 0 0 45 16 0 0 0 0 0 0.5
        KEYSNAP 0
        TRACKSEL 252
        EVTFILTER 0 -1 -1 -1 -1 0 0 0 0 -1 -1 -1 -1 0 -1 0 -1 -1
        CFGEDIT 1 0 0 0 0 0 1 0 1 1 1 0.25 413 148 1280 633 0 0 2 3 0 0 0 0 0 -1 0 0 1 64
      >
    >
    <ITEM
      POSITION 0
      SNAPOFFS 0
      LENGTH 41.5
      LOOP 1
      ALLTAKES 0
      FADEIN 1 0 0 1 0 0
      FADEOUT 1 0 0 1 0 0
      MUTE 1
      SEL 0
      YPOS 0.553957 0.05
      IGUID {B0AB5E71-2B03-F14D-8A97-C15905817A5B}
      IID 5
      NAME "Hoboj2 - National_Anthems_-_Slovakia2.mid"
      VOLPAN 1 0 1 -1
      SOFFS 0 0
      PLAYRATE 1 1 0 -1 0 0.0025
      CHANMODE 0
      TAKECOLOR 26173599 B
      GUID {5CCD8EC9-6374-144E-8B85-64C485BC96FE}
      <SOURCE MIDI
        HASDATA 1 240 QN
        POOLEDEVTS {C9428DA3-73F4-0642-975A-D2A744248D4C}
        <X 0 0 0 0 3 Hoboj2
          /wNIb2JvajI=
        >
        E 0 90 4f 50
        E 96 90 4f 00
        E 24 90 4a 50
        E 96 90 4a 00
        E 24 90 4a 50
        E 192 90 4a 00
        E 48 90 4a 50
        E 192 90 4a 00
        E 48 90 4b 50
        E 96 90 4b 00
        E 24 90 4a 50
        E 96 90 4a 00
        E 24 90 4b 50
        E 96 90 4b 00
        E 24 90 4a 50
        E 96 90 4a 00
        E 24 90 4a 50
        E 96 90 4a 00
        E 24 90 4a 50
        E 96 90 4a 00
        E 24 90 4a 50
        E 192 90 4a 00
        E 48 90 46 50
        E 192 90 46 00
        E 48 90 4b 50
        E 96 90 4b 00
        E 24 90 48 50
        E 96 90 48 00
        E 24 90 4a 50
        E 192 90 4a 00
        E 48 90 4a 50
        E 192 90 4a 00
        E 48 90 4a 50
        E 96 90 4a 00
        E 24 90 4a 50
        E 96 90 4a 00
        E 24 90 48 50
        E 96 90 48 00
        E 24 90 4a 50
        E 96 90 4a 00
        E 24 90 4b 50
        E 96 90 4b 00
        E 24 90 4a 50
        E 96 90 4a 00
        E 24 90 48 50
        E 192 90 48 00
        E 48 90 4a 50
        E 192 90 4a 00
        E 48 90 4a 50
        E 96 90 4a 00
        E 24 90 4a 50
        E 96 90 4a 00
        E 24 90 4a 50
        E 192 90 4a 00
        E 48 90 48 50
        E 192 90 48 00
        E 48 90 4d 50
        E 96 90 4d 00
        E 24 90 4b 50
        E 96 90 4b 00
        E 24 90 4a 50
        E 96 90 4a 00
        E 24 90 45 50
        E 96 90 45 00
        E 24 90 45 50
        E 192 90 45 00
        E 48 90 46 50
        E 192 90 46 00
        E 48 90 46 50
        E 96 90 46 00
        E 24 90 46 50
        E 96 90 46 00
        E 24 90 45 50
        E 96 90 45 00
        E 24 90 46 50
        E 96 90 46 00
        E 24 90 48 50
        E 96 90 48 00
        E 24 90 46 50
        E 96 90 46 00
        E 24 90 45 50
        E 192 90 45 00
        E 48 90 46 50
        E 192 90 46 00
        E 48 90 4a 50
        E 96 90 4a 00
        E 24 90 4a 50
        E 96 90 4a 00
        E 24 90 4a 50
        E 192 90 4a 00
        E 48 90 48 50
        E 192 90 48 00
        E 48 90 4d 50
        E 96 90 4d 00
        E 24 90 4b 50
        E 96 90 4b 00
        E 24 90 4a 50
        E 96 90 4a 00
        E 24 90 45 50
        E 96 90 45 00
        E 24 90 45 50
        E 192 90 45 00
        E 48 90 46 50
        E 192 90 46 00
        E 48 90 46 50
        E 96 90 46 00
        E 24 90 46 50
        E 96 90 46 00
        E 24 90 45 50
        E 96 90 45 00
        E 24 90 46 50
        E 96 90 46 00
        E 24 90 48 50
        E 96 90 48 00
        E 24 90 46 50
        E 96 90 46 00
        E 24 90 45 50
        E 192 90 45 00
        E 48 90 46 50
        E 192 90 46 00
        E 48 90 4f 50
        E 96 90 4f 00
        E 24 90 4a 50
        E 96 90 4a 00
        E 24 90 4a 50
        E 192 90 4a 00
        E 48 90 4a 50
        E 192 90 4a 00
        E 48 90 4b 50
        E 96 90 4b 00
        E 24 90 4a 50
        E 96 90 4a 00
        E 24 90 4b 50
        E 96 90 4b 00
        E 24 90 4a 50
        E 96 90 4a 00
        E 24 90 4a 50
        E 96 90 4a 00
        E 24 90 4a 50
        E 96 90 4a 00
        E 24 90 4a 50
        E 192 90 4a 00
        E 48 90 46 50
        E 192 90 46 00
        E 48 90 4b 50
        E 96 90 4b 00
        E 24 90 48 50
        E 96 90 48 00
        E 24 90 4a 50
        E 192 90 4a 00
        E 48 90 4a 50
        E 192 90 4a 00
        E 48 90 4a 50
        E 96 90 4a 00
        E 24 90 4a 50
        E 96 90 4a 00
        E 24 90 48 50
        E 96 90 48 00
        E 24 90 4a 50
        E 96 90 4a 00
        E 24 90 4b 50
        E 96 90 4b 00
        E 24 90 4a 50
        E 96 90 4a 00
        E 24 90 48 50
        E 192 90 48 00
        E 48 90 4a 50
        E 192 90 4a 00
        E 48 90 4a 50
        E 96 90 4a 00
        E 24 90 4a 50
        E 96 90 4a 00
        E 24 90 4a 50
        E 192 90 4a 00
        E 48 90 48 50
        E 192 90 48 00
        E 48 90 4d 50
        E 96 90 4d 00
        E 24 90 4b 50
        E 96 90 4b 00
        E 24 90 4a 50
        E 96 90 4a 00
        E 24 90 45 50
        E 96 90 45 00
        E 24 90 45 50
        E 192 90 45 00
        E 48 90 46 50
        E 192 90 46 00
        E 48 90 46 50
        E 96 90 46 00
        E 24 90 46 50
        E 96 90 46 00
        E 24 90 45 50
        E 96 90 45 00
        E 24 90 46 50
        E 96 90 46 00
        E 24 90 48 50
        E 96 90 48 00
        E 24 90 46 50
        E 96 90 46 00
        E 24 90 45 50
        E 192 90 45 00
        E 48 90 46 50
        E 192 90 46 00
        E 48 90 4a 50
        E 96 90 4a 00
        E 24 90 4a 50
        E 96 90 4a 00
        E 24 90 4a 50
        E 192 90 4a 00
        E 48 90 48 50
        E 192 90 48 00
        E 48 90 4d 50
        E 96 90 4d 00
        E 24 90 4b 50
        E 96 90 4b 00
        E 24 90 4a 50
        E 96 90 4a 00
        E 24 90 45 50
        E 96 90 45 00
        E 24 90 45 50
        E 192 90 45 00
        E 48 90 46 50
        E 192 90 46 00
        E 48 90 46 50
        E 96 90 46 00
        E 24 90 46 50
        E 96 90 46 00
        E 24 90 45 50
        E 96 90 45 00
        E 24 90 46 50
        E 96 90 46 00
        E 24 90 48 50
        E 96 90 48 00
        E 24 90 46 50
        E 96 90 46 00
        E 24 90 45 50
        E 450 90 45 00
        E 30 90 43 50
        E 598 90 43 00
        E 122 b0 7b 00
        GUID {DD8E4837-F855-BD41-BEB8-C5185A427B58}
        IGNTEMPO 0 120 4 4
        SRCCOLOR 239
        VELLANE -1 86 6
        CFGEDITVIEW 7832.628972 189.863892 47 15 0 0 0 0 0 0.5
        KEYSNAP 0
        TRACKSEL 252
        EVTFILTER 0 -1 -1 -1 -1 0 0 0 0 -1 -1 -1 -1 0 -1 0 -1 -1
        CFGEDIT 1 0 0 0 0 0 1 0 1 1 1 0.25 413 148 1280 633 0 0 2 3 0 0 0 0 0 -1 0 0 1 64
      >
      TAKE
      NAME "Hoboj2 - National_Anthems_-_Slovakia2.mid"
      TAKEVOLPAN 0 1 -1
      SOFFS 0 0
      PLAYRATE 1 1 0 -1 0 0.0025
      CHANMODE 0
      GUID {609E0F02-66C3-F740-AED9-5790D6F0AA92}
      <SOURCE MIDI
        HASDATA 1 240 QN
        POOLEDEVTS {C69D714C-7ED3-4B4F-9B31-C3C5EE00AE38}
        <X 0 0 0 0 3 Hoboj2
          /wNIb2JvajI=
        >
        E 0 90 4f 50
        E 96 90 4f 00
        E 24 90 4a 50
        E 96 90 4a 00
        E 24 90 4a 50
        E 192 90 4a 00
        E 48 90 4a 50
        E 192 90 4a 00
        E 48 90 4b 50
        E 96 90 4b 00
        E 24 90 4a 50
        E 96 90 4a 00
        E 24 90 4b 50
        E 96 90 4b 00
        E 24 90 4a 50
        E 96 90 4a 00
        E 24 90 4a 50
        E 96 90 4a 00
        E 24 90 4a 50
        E 96 90 4a 00
        E 24 90 4a 50
        E 192 90 4a 00
        E 48 90 46 50
        E 192 90 46 00
        E 48 90 4b 50
        E 96 90 4b 00
        E 24 90 48 50
        E 96 90 48 00
        E 24 90 4a 50
        E 192 90 4a 00
        E 48 90 4a 50
        E 192 90 4a 00
        E 48 90 4a 50
        E 96 90 4a 00
        E 24 90 4a 50
        E 96 90 4a 00
        E 24 90 48 50
        E 96 90 48 00
        E 24 90 4a 50
        E 96 90 4a 00
        E 24 90 4b 50
        E 96 90 4b 00
        E 24 90 4a 50
        E 96 90 4a 00
        E 24 90 48 50
        E 192 90 48 00
        E 48 90 4a 50
        E 192 90 4a 00
        E 48 90 4a 50
        E 96 90 4a 00
        E 24 90 4a 50
        E 96 90 4a 00
        E 24 90 4a 50
        E 192 90 4a 00
        E 48 90 48 50
        E 192 90 48 00
        E 48 90 4d 50
        E 96 90 4d 00
        E 24 90 4b 50
        E 96 90 4b 00
        E 24 90 4a 50
        E 96 90 4a 00
        E 24 90 45 50
        E 96 90 45 00
        E 24 90 45 50
        E 192 90 45 00
        E 48 90 46 50
        E 192 90 46 00
        E 48 90 46 50
        E 96 90 46 00
        E 24 90 46 50
        E 96 90 46 00
        E 24 90 45 50
        E 96 90 45 00
        E 24 90 46 50
        E 96 90 46 00
        E 24 90 48 50
        E 96 90 48 00
        E 24 90 46 50
        E 96 90 46 00
        E 24 90 45 50
        E 192 90 45 00
        E 48 90 46 50
        E 192 90 46 00
        E 48 90 4a 50
        E 96 90 4a 00
        E 24 90 4a 50
        E 96 90 4a 00
        E 24 90 4a 50
        E 192 90 4a 00
        E 48 90 48 50
        E 192 90 48 00
        E 48 90 4d 50
        E 96 90 4d 00
        E 24 90 4b 50
        E 96 90 4b 00
        E 24 90 4a 50
        E 96 90 4a 00
        E 24 90 45 50
        E 96 90 45 00
        E 24 90 45 50
        E 192 90 45 00
        E 48 90 46 50
        E 192 90 46 00
        E 48 90 46 50
        E 96 90 46 00
        E 24 90 46 50
        E 96 90 46 00
        E 24 90 45 50
        E 96 90 45 00
        E 24 90 46 50
        E 96 90 46 00
        E 24 90 48 50
        E 96 90 48 00
        E 24 90 46 50
        E 96 90 46 00
        E 24 90 45 50
        E 192 90 45 00
        E 48 90 46 50
        E 192 90 46 00
        E 48 90 4f 50
        E 96 90 4f 00
        E 24 90 4a 50
        E 96 90 4a 00
        E 24 90 4a 50
        E 192 90 4a 00
        E 48 90 4a 50
        E 192 90 4a 00
        E 48 90 4b 50
        E 96 90 4b 00
        E 24 90 4a 50
        E 96 90 4a 00
        E 24 90 4b 50
        E 96 90 4b 00
        E 24 90 4a 50
        E 96 90 4a 00
        E 24 90 4a 50
        E 96 90 4a 00
        E 24 90 4a 50
        E 96 90 4a 00
        E 24 90 4a 50
        E 192 90 4a 00
        E 48 90 46 50
        E 192 90 46 00
        E 48 90 4b 50
        E 96 90 4b 00
        E 24 90 48 50
        E 96 90 48 00
        E 24 90 4a 50
        E 192 90 4a 00
        E 48 90 4a 50
        E 192 90 4a 00
        E 48 90 4a 50
        E 96 90 4a 00
        E 24 90 4a 50
        E 96 90 4a 00
        E 24 90 48 50
        E 96 90 48 00
        E 24 90 4a 50
        E 96 90 4a 00
        E 24 90 4b 50
        E 96 90 4b 00
        E 24 90 4a 50
        E 96 90 4a 00
        E 24 90 48 50
        E 192 90 48 00
        E 48 90 4a 50
        E 192 90 4a 00
        E 48 90 4a 50
        E 96 90 4a 00
        E 24 90 4a 50
        E 96 90 4a 00
        E 24 90 4a 50
        E 192 90 4a 00
        E 48 90 48 50
        E 192 90 48 00
        E 48 90 4d 50
        E 96 90 4d 00
        E 24 90 4b 50
        E 96 90 4b 00
        E 24 90 4a 50
        E 96 90 4a 00
        E 24 90 45 50
        E 96 90 45 00
        E 24 90 45 50
        E 192 90 45 00
        E 48 90 46 50
        E 192 90 46 00
        E 48 90 46 50
        E 96 90 46 00
        E 24 90 46 50
        E 96 90 46 00
        E 24 90 45 50
        E 96 90 45 00
        E 24 90 46 50
        E 96 90 46 00
        E 24 90 48 50
        E 96 90 48 00
        E 24 90 46 50
        E 96 90 46 00
        E 24 90 45 50
        E 192 90 45 00
        E 48 90 46 50
        E 192 90 46 00
        E 48 90 4a 50
        E 96 90 4a 00
        E 24 90 4a 50
        E 96 90 4a 00
        E 24 90 4a 50
        E 192 90 4a 00
        E 48 90 48 50
        E 192 90 48 00
        E 48 90 4d 50
        E 96 90 4d 00
        E 24 90 4b 50
        E 96 90 4b 00
        E 24 90 4a 50
        E 96 90 4a 00
        E 24 90 45 50
        E 96 90 45 00
        E 24 90 45 50
        E 192 90 45 00
        E 48 90 46 50
        E 192 90 46 00
        E 48 90 46 50
        E 96 90 46 00
        E 24 90 46 50
        E 96 90 46 00
        E 24 90 45 50
        E 96 90 45 00
        E 24 90 46 50
        E 96 90 46 00
        E 24 90 48 50
        E 96 90 48 00
        E 24 90 46 50
        E 96 90 46 00
        E 24 90 45 50
        E 450 90 45 00
        E 30 90 43 50
        E 598 90 43 00
        E 122 b0 7b 00
        GUID {23908CA9-0A67-D849-9F02-12FDF9AB2E00}
        IGNTEMPO 0 120 4 4
        SRCCOLOR 254
        VELLANE -1 86 6
        CFGEDITVIEW 0 0 47 15 0 0 0 0 0 0.5
        KEYSNAP 0
        TRACKSEL 252
        EVTFILTER 0 -1 -1 -1 -1 0 0 0 0 -1 -1 -1 -1 0 -1 0 -1 -1
        CFGEDIT 1 0 0 0 0 0 1 0 1 1 1 0.25 413 148 1280 633 0 0 2 3 0 0 0 0 0 -1 0 0 1 64
      >
    >
    <ITEM
      POSITION 0
      SNAPOFFS 0
      LENGTH 41.5
      LOOP 1
      ALLTAKES 0
      FADEIN 1 0 0 1 0 0
      FADEOUT 1 0 0 1 0 0
      MUTE 1
      SEL 0
      YPOS 0.830935 0.05
      IGUID {A0ADB6BD-30A4-1446-9647-4680291FD456}
      IID 8
      NAME "Trubkab1 - National_Anthems_-_Slovakia2.mid"
      VOLPAN 1 0 1 -1
      SOFFS 0 0
      PLAYRATE 1 1 0 -1 0 0.0025
      CHANMODE 0
      TAKECOLOR 26173599 B
      GUID {C9275CF4-F200-2E41-AC9E-83E72FEBAF05}
      <SOURCE MIDI
        HASDATA 1 240 QN
        POOLEDEVTS {BC90BB91-2499-D541-BC45-DB3460A59EAA}
        <X 0 0 0 0 3 Trubkab1
          /wNUcnVia2FiMQ==
        >
        E 0 90 3a 50
        E 96 90 3a 00
        E 24 90 3e 50
        E 96 90 3e 00
        E 24 90 3e 50
        E 192 90 3e 00
        E 48 90 3e 50
        E 192 90 3e 00
        E 48 90 43 50
        E 96 90 43 00
        E 24 90 41 50
        E 96 90 41 00
        E 24 90 3f 50
        E 96 90 3f 00
        E 24 90 3e 50
        E 96 90 3e 00
        E 24 90 3e 50
        E 96 90 3e 00
        E 24 90 3e 50
        E 96 90 3e 00
        E 24 90 3e 50
        E 192 90 3e 00
        E 48 90 3a 50
        E 192 90 3a 00
        E 48 90 3f 50
        E 96 90 3f 00
        E 24 90 41 50
        E 96 90 41 00
        E 24 90 41 50
        E 192 90 41 00
        E 48 90 41 50
        E 192 90 41 00
        E 48 90 41 50
        E 96 90 41 00
        E 24 90 43 50
        E 96 90 43 00
        E 24 90 43 50
        E 96 90 43 00
        E 24 90 41 50
        E 96 90 41 00
        E 24 90 41 50
        E 96 90 41 00
        E 24 90 41 50
        E 96 90 41 00
        E 24 90 41 50
        E 192 90 41 00
        E 48 90 41 50
        E 192 90 41 00
        E 48 90 41 50
        E 96 90 41 00
        E 24 90 41 50
        E 96 90 41 00
        E 24 90 41 50
        E 192 90 41 00
        E 48 90 41 50
        E 192 90 41 00
        E 48 90 45 50
        E 96 90 45 00
        E 24 90 43 50
        E 96 90 43 00
        E 24 90 42 50
        E 96 90 42 00
        E 24 90 42 50
        E 96 90 42 00
        E 24 90 3e 50
        E 192 90 3e 00
        E 48 90 3e 50
        E 192 90 3e 00
        E 48 90 3e 50
        E 96 90 3e 00
        E 24 90 3e 50
        E 96 90 3e 00
        E 24 90 3f 50
        E 96 90 3f 00
        E 24 90 3e 50
        E 96 90 3e 00
        E 24 90 42 50
        E 96 90 42 00
        E 24 90 43 50
        E 96 90 43 00
        E 24 90 3e 50
        E 192 90 3e 00
        E 48 90 3a 50
        E 192 90 3a 00
        E 48 90 41 50
        E 96 90 41 00
        E 24 90 41 50
        E 96 90 41 00
        E 24 90 41 50
        E 192 90 41 00
        E 48 90 41 50
        E 192 90 41 00
        E 48 90 45 50
        E 96 90 45 00
        E 24 90 43 50
        E 96 90 43 00
        E 24 90 42 50
        E 96 90 42 00
        E 24 90 42 50
        E 96 90 42 00
        E 24 90 3e 50
        E 192 90 3e 00
        E 48 90 3e 50
        E 192 90 3e 00
        E 48 90 3e 50
        E 96 90 3e 00
        E 24 90 3e 50
        E 96 90 3e 00
        E 24 90 3f 50
        E 96 90 3f 00
        E 24 90 3e 50
        E 96 90 3e 00
        E 24 90 42 50
        E 96 90 42 00
        E 24 90 43 50
        E 96 90 43 00
        E 24 90 3e 50
        E 192 90 3e 00
        E 48 90 3a 50
        E 192 90 3a 00
        E 48 90 3a 50
        E 96 90 3a 00
        E 24 90 3e 50
        E 96 90 3e 00
        E 24 90 3e 50
        E 192 90 3e 00
        E 48 90 3e 50
        E 192 90 3e 00
        E 48 90 43 50
        E 96 90 43 00
        E 24 90 41 50
        E 96 90 41 00
        E 24 90 3f 50
        E 96 90 3f 00
        E 24 90 3e 50
        E 96 90 3e 00
        E 24 90 3e 50
        E 96 90 3e 00
        E 24 90 3e 50
        E 96 90 3e 00
        E 24 90 3e 50
        E 192 90 3e 00
        E 48 90 3a 50
        E 192 90 3a 00
        E 48 90 3f 50
        E 96 90 3f 00
        E 24 90 41 50
        E 96 90 41 00
        E 24 90 41 50
        E 192 90 41 00
        E 48 90 41 50
        E 192 90 41 00
        E 48 90 41 50
        E 96 90 41 00
        E 24 90 43 50
        E 96 90 43 00
        E 24 90 43 50
        E 96 90 43 00
        E 24 90 41 50
        E 96 90 41 00
        E 24 90 41 50
        E 96 90 41 00
        E 24 90 41 50
        E 96 90 41 00
        E 24 90 41 50
        E 192 90 41 00
        E 48 90 41 50
        E 192 90 41 00
        E 48 90 41 50
        E 96 90 41 00
        E 24 90 41 50
        E 96 90 41 00
        E 24 90 41 50
        E 192 90 41 00
        E 48 90 41 50
        E 192 90 41 00
        E 48 90 45 50
        E 96 90 45 00
        E 24 90 43 50
        E 96 90 43 00
        E 24 90 42 50
        E 96 90 42 00
        E 24 90 42 50
        E 96 90 42 00
        E 24 90 3e 50
        E 192 90 3e 00
        E 48 90 3e 50
        E 192 90 3e 00
        E 48 90 3e 50
        E 96 90 3e 00
        E 24 90 3e 50
        E 96 90 3e 00
        E 24 90 3f 50
        E 96 90 3f 00
        E 24 90 3e 50
        E 96 90 3e 00
        E 24 90 42 50
        E 96 90 42 00
        E 24 90 43 50
        E 96 90 43 00
        E 24 90 3e 50
        E 192 90 3e 00
        E 48 90 3a 50
        E 192 90 3a 00
        E 48 90 41 50
        E 96 90 41 00
        E 24 90 41 50
        E 96 90 41 00
        E 24 90 41 50
        E 192 90 41 00
        E 48 90 41 50
        E 192 90 41 00
        E 48 90 45 50
        E 96 90 45 00
        E 24 90 43 50
        E 96 90 43 00
        E 24 90 42 50
        E 96 90 42 00
        E 24 90 42 50
        E 96 90 42 00
        E 24 90 3e 50
        E 192 90 3e 00
        E 48 90 3e 50
        E 192 90 3e 00
        E 48 90 3e 50
        E 96 90 3e 00
        E 24 90 3e 50
        E 96 90 3e 00
        E 24 90 3f 50
        E 96 90 3f 00
        E 24 90 3e 50
        E 96 90 3e 00
        E 24 90 42 50
        E 96 90 42 00
        E 24 90 43 50
        E 96 90 43 00
        E 24 90 42 50
        E 450 90 42 00
        E 30 90 43 50
        E 598 90 43 00
        E 122 b0 7b 00
        GUID {84A23A8F-CDAE-704E-B4EC-A0F74EA9B9E8}
        IGNTEMPO 0 120 4 4
        SRCCOLOR 242
        VELLANE -1 86 6
      >
      TAKE
      NAME "Trubkab1 - National_Anthems_-_Slovakia2.mid"
      TAKEVOLPAN 0 1 -1
      SOFFS 0 0
      PLAYRATE 1 1 0 -1 0 0.0025
      CHANMODE 0
      GUID {FE02646D-100F-C048-815E-4256A1F8A797}
      <SOURCE MIDI
        HASDATA 1 240 QN
        POOLEDEVTS {BD78486A-5590-924F-A986-696A32574DC4}
        <X 0 0 0 0 3 Trubkab1
          /wNUcnVia2FiMQ==
        >
        E 0 90 3a 50
        E 96 90 3a 00
        E 24 90 3e 50
        E 96 90 3e 00
        E 24 90 3e 50
        E 192 90 3e 00
        E 48 90 3e 50
        E 192 90 3e 00
        E 48 90 43 50
        E 96 90 43 00
        E 24 90 41 50
        E 96 90 41 00
        E 24 90 3f 50
        E 96 90 3f 00
        E 24 90 3e 50
        E 96 90 3e 00
        E 24 90 3e 50
        E 96 90 3e 00
        E 24 90 3e 50
        E 96 90 3e 00
        E 24 90 3e 50
        E 192 90 3e 00
        E 48 90 3a 50
        E 192 90 3a 00
        E 48 90 3f 50
        E 96 90 3f 00
        E 24 90 41 50
        E 96 90 41 00
        E 24 90 41 50
        E 192 90 41 00
        E 48 90 41 50
        E 192 90 41 00
        E 48 90 41 50
        E 96 90 41 00
        E 24 90 43 50
        E 96 90 43 00
        E 24 90 43 50
        E 96 90 43 00
        E 24 90 41 50
        E 96 90 41 00
        E 24 90 41 50
        E 96 90 41 00
        E 24 90 41 50
        E 96 90 41 00
        E 24 90 41 50
        E 192 90 41 00
        E 48 90 41 50
        E 192 90 41 00
        E 48 90 41 50
        E 96 90 41 00
        E 24 90 41 50
        E 96 90 41 00
        E 24 90 41 50
        E 192 90 41 00
        E 48 90 41 50
        E 192 90 41 00
        E 48 90 45 50
        E 96 90 45 00
        E 24 90 43 50
        E 96 90 43 00
        E 24 90 42 50
        E 96 90 42 00
        E 24 90 42 50
        E 96 90 42 00
        E 24 90 3e 50
        E 192 90 3e 00
        E 48 90 3e 50
        E 192 90 3e 00
        E 48 90 3e 50
        E 96 90 3e 00
        E 24 90 3e 50
        E 96 90 3e 00
        E 24 90 3f 50
        E 96 90 3f 00
        E 24 90 3e 50
        E 96 90 3e 00
        E 24 90 42 50
        E 96 90 42 00
        E 24 90 43 50
        E 96 90 43 00
        E 24 90 3e 50
        E 192 90 3e 00
        E 48 90 3a 50
        E 192 90 3a 00
        E 48 90 41 50
        E 96 90 41 00
        E 24 90 41 50
        E 96 90 41 00
        E 24 90 41 50
        E 192 90 41 00
        E 48 90 41 50
        E 192 90 41 00
        E 48 90 45 50
        E 96 90 45 00
        E 24 90 43 50
        E 96 90 43 00
        E 24 90 42 50
        E 96 90 42 00
        E 24 90 42 50
        E 96 90 42 00
        E 24 90 3e 50
        E 192 90 3e 00
        E 48 90 3e 50
        E 192 90 3e 00
        E 48 90 3e 50
        E 96 90 3e 00
        E 24 90 3e 50
        E 96 90 3e 00
        E 24 90 3f 50
        E 96 90 3f 00
        E 24 90 3e 50
        E 96 90 3e 00
        E 24 90 42 50
        E 96 90 42 00
        E 24 90 43 50
        E 96 90 43 00
        E 24 90 3e 50
        E 192 90 3e 00
        E 48 90 3a 50
        E 192 90 3a 00
        E 48 90 3a 50
        E 96 90 3a 00
        E 24 90 3e 50
        E 96 90 3e 00
        E 24 90 3e 50
        E 192 90 3e 00
        E 48 90 3e 50
        E 192 90 3e 00
        E 48 90 43 50
        E 96 90 43 00
        E 24 90 41 50
        E 96 90 41 00
        E 24 90 3f 50
        E 96 90 3f 00
        E 24 90 3e 50
        E 96 90 3e 00
        E 24 90 3e 50
        E 96 90 3e 00
        E 24 90 3e 50
        E 96 90 3e 00
        E 24 90 3e 50
        E 192 90 3e 00
        E 48 90 3a 50
        E 192 90 3a 00
        E 48 90 3f 50
        E 96 90 3f 00
        E 24 90 41 50
        E 96 90 41 00
        E 24 90 41 50
        E 192 90 41 00
        E 48 90 41 50
        E 192 90 41 00
        E 48 90 41 50
        E 96 90 41 00
        E 24 90 43 50
        E 96 90 43 00
        E 24 90 43 50
        E 96 90 43 00
        E 24 90 41 50
        E 96 90 41 00
        E 24 90 41 50
        E 96 90 41 00
        E 24 90 41 50
        E 96 90 41 00
        E 24 90 41 50
        E 192 90 41 00
        E 48 90 41 50
        E 192 90 41 00
        E 48 90 41 50
        E 96 90 41 00
        E 24 90 41 50
        E 96 90 41 00
        E 24 90 41 50
        E 192 90 41 00
        E 48 90 41 50
        E 192 90 41 00
        E 48 90 45 50
        E 96 90 45 00
        E 24 90 43 50
        E 96 90 43 00
        E 24 90 42 50
        E 96 90 42 00
        E 24 90 42 50
        E 96 90 42 00
        E 24 90 3e 50
        E 192 90 3e 00
        E 48 90 3e 50
        E 192 90 3e 00
        E 48 90 3e 50
        E 96 90 3e 00
        E 24 90 3e 50
        E 96 90 3e 00
        E 24 90 3f 50
        E 96 90 3f 00
        E 24 90 3e 50
        E 96 90 3e 00
        E 24 90 42 50
        E 96 90 42 00
        E 24 90 43 50
        E 96 90 43 00
        E 24 90 3e 50
        E 192 90 3e 00
        E 48 90 3a 50
        E 192 90 3a 00
        E 48 90 41 50
        E 96 90 41 00
        E 24 90 41 50
        E 96 90 41 00
        E 24 90 41 50
        E 192 90 41 00
        E 48 90 41 50
        E 192 90 41 00
        E 48 90 45 50
        E 96 90 45 00
        E 24 90 43 50
        E 96 90 43 00
        E 24 90 42 50
        E 96 90 42 00
        E 24 90 42 50
        E 96 90 42 00
        E 24 90 3e 50
        E 192 90 3e 00
        E 48 90 3e 50
        E 192 90 3e 00
        E 48 90 3e 50
        E 96 90 3e 00
        E 24 90 3e 50
        E 96 90 3e 00
        E 24 90 3f 50
        E 96 90 3f 00
        E 24 90 3e 50
        E 96 90 3e 00
        E 24 90 42 50
        E 96 90 42 00
        E 24 90 43 50
        E 96 90 43 00
        E 24 90 42 50
        E 450 90 42 00
        E 30 90 43 50
        E 598 90 43 00
        E 122 b0 7b 00
        GUID {6BFE5646-B1D5-3F49-A1F9-C6E3AC06C117}
        IGNTEMPO 0 120 4 4
        SRCCOLOR 256
        VELLANE -1 86 6
      >
    >
    <ITEM
      POSITION 0
      SNAPOFFS 0
      LENGTH 41.5
      LOOP 1
      ALLTAKES 0
      FADEIN 1 0 0 1 0 0
      FADEOUT 1 0 0 1 0 0
      MUTE 0
      SEL 1
      YPOS 0.138489 0.05
      IGUID {B9774496-2BE8-CB4D-B9EA-4D452DB808AC}
      IID 7
      NAME "Fagot - National_Anthems_-_Slovakia2.mid"
      VOLPAN 1 0 1 -1
      SOFFS 0 0
      PLAYRATE 1 1 0 -1 0 0.0025
      CHANMODE 0
      TAKECOLOR 26173599 B
      GUID {CDAF1CD4-5A5A-5145-89F5-FFC7CA719B57}
      <SOURCE MIDI
        HASDATA 1 240 QN
        POOLEDEVTS {6EC56AAC-2FA6-0A4D-8D8D-806EA3272E0D}
        <X 0 0 0 0 3 Fagot
          /wNGYWdvdA==
        >
        E 0 90 37 50
        E 96 90 37 00
        E 24 90 32 50
        E 96 90 32 00
        E 24 90 2b 50
        E 192 90 2b 00
        E 48 90 37 50
        E 120 90 37 00
        E 0 90 35 50
        E 120 90 35 00
        E 0 90 33 50
        E 96 90 33 00
        E 24 90 32 50
        E 96 90 32 00
        E 24 90 30 50
        E 96 90 30 00
        E 24 90 2e 50
        E 96 90 2e 00
        E 24 90 2d 50
        E 96 90 2d 00
        E 24 90 2b 50
        E 96 90 2b 00
        E 24 90 32 50
        E 192 90 32 00
        E 48 90 32 50
        E 192 90 32 00
        E 48 90 2b 50
        E 96 90 2b 00
        E 24 90 29 50
        E 96 90 29 00
        E 24 90 2e 50
        E 192 90 2e 00
        E 48 90 3a 50
        E 120 90 3a 00
        E 0 90 39 50
        E 120 90 39 00
        E 0 90 37 50
        E 96 90 37 00
        E 24 90 35 50
        E 96 90 35 00
        E 24 90 33 50
        E 96 90 33 00
        E 24 90 32 50
        E 96 90 32 00
        E 24 90 30 50
        E 96 90 30 00
        E 24 90 2e 50
        E 96 90 2e 00
        E 24 90 35 50
        E 192 90 35 00
        E 48 90 35 50
        E 192 90 35 00
        E 48 90 2e 50
        E 96 90 2e 00
        E 24 90 30 50
        E 96 90 30 00
        E 24 90 32 50
        E 96 90 32 00
        E 24 90 33 50
        E 96 90 33 00
        E 24 90 35 50
        E 192 90 35 00
        E 48 90 35 50
        E 96 90 35 00
        E 24 90 33 50
        E 96 90 33 00
        E 24 90 32 50
        E 96 90 32 00
        E 24 90 34 50
        E 96 90 34 00
        E 24 90 36 50
        E 192 90 36 00
        E 48 90 37 50
        E 192 90 37 00
        E 48 90 2b 50
        E 96 90 2b 00
        E 24 90 2e 50
        E 96 90 2e 00
        E 24 90 30 50
        E 96 90 30 00
        E 24 90 2e 50
        E 96 90 2e 00
        E 24 90 2d 50
        E 96 90 2d 00
        E 24 90 2b 50
        E 96 90 2b 00
        E 24 90 32 50
        E 192 90 32 00
        E 48 90 2b 50
        E 192 90 2b 00
        E 48 90 2e 50
        E 96 90 2e 00
        E 24 90 30 50
        E 96 90 30 00
        E 24 90 32 50
        E 96 90 32 00
        E 24 90 33 50
        E 96 90 33 00
        E 24 90 35 50
        E 192 90 35 00
        E 48 90 35 50
        E 96 90 35 00
        E 24 90 33 50
        E 96 90 33 00
        E 24 90 32 50
        E 96 90 32 00
        E 24 90 34 50
        E 96 90 34 00
        E 24 90 36 50
        E 192 90 36 00
        E 48 90 37 50
        E 192 90 37 00
        E 48 90 2b 50
        E 96 90 2b 00
        E 24 90 2e 50
        E 96 90 2e 00
        E 24 90 30 50
        E 96 90 30 00
        E 24 90 2e 50
        E 96 90 2e 00
        E 24 90 2d 50
        E 96 90 2d 00
        E 24 90 2b 50
        E 96 90 2b 00
        E 24 90 32 50
        E 192 90 32 00
        E 48 90 2b 50
        E 192 90 2b 00
        E 48 90 37 50
        E 96 90 37 00
        E 24 90 32 50
        E 96 90 32 00
        E 24 90 2b 50
        E 192 90 2b 00
        E 48 90 37 50
        E 120 90 37 00
        E 0 90 35 50
        E 120 90 35 00
        E 0 90 33 50
        E 96 90 33 00
        E 24 90 32 50
        E 96 90 32 00
        E 24 90 30 50
        E 96 90 30 00
        E 24 90 2e 50
        E 96 90 2e 00
        E 24 90 2d 50
        E 96 90 2d 00
        E 24 90 2b 50
        E 96 90 2b 00
        E 24 90 32 50
        E 192 90 32 00
        E 48 90 32 50
        E 192 90 32 00
        E 48 90 2b 50
        E 96 90 2b 00
        E 24 90 29 50
        E 96 90 29 00
        E 24 90 2e 50
        E 192 90 2e 00
        E 48 90 3a 50
        E 120 90 3a 00
        E 0 90 39 50
        E 120 90 39 00
        E 0 90 37 50
        E 96 90 37 00
        E 24 90 35 50
        E 96 90 35 00
        E 24 90 33 50
        E 96 90 33 00
        E 24 90 32 50
        E 96 90 32 00
        E 24 90 30 50
        E 96 90 30 00
        E 24 90 2e 50
        E 96 90 2e 00
        E 24 90 35 50
        E 192 90 35 00
        E 48 90 35 50
        E 192 90 35 00
        E 48 90 2e 50
        E 96 90 2e 00
        E 24 90 30 50
        E 96 90 30 00
        E 24 90 32 50
        E 96 90 32 00
        E 24 90 33 50
        E 96 90 33 00
        E 24 90 35 50
        E 192 90 35 00
        E 48 90 35 50
        E 96 90 35 00
        E 24 90 33 50
        E 96 90 33 00
        E 24 90 32 50
        E 96 90 32 00
        E 24 90 34 50
        E 96 90 34 00
        E 24 90 36 50
        E 192 90 36 00
        E 48 90 37 50
        E 192 90 37 00
        E 48 90 2b 50
        E 96 90 2b 00
        E 24 90 2e 50
        E 96 90 2e 00
        E 24 90 30 50
        E 96 90 30 00
        E 24 90 2e 50
        E 96 90 2e 00
        E 24 90 2d 50
        E 96 90 2d 00
        E 24 90 2b 50
        E 96 90 2b 00
        E 24 90 32 50
        E 192 90 32 00
        E 48 90 2b 50
        E 192 90 2b 00
        E 48 90 2e 50
        E 96 90 2e 00
        E 24 90 30 50
        E 96 90 30 00
        E 24 90 32 50
        E 96 90 32 00
        E 24 90 33 50
        E 96 90 33 00
        E 24 90 35 50
        E 192 90 35 00
        E 48 90 35 50
        E 96 90 35 00
        E 24 90 33 50
        E 96 90 33 00
        E 24 90 32 50
        E 96 90 32 00
        E 24 90 34 50
        E 96 90 34 00
        E 24 90 36 50
        E 192 90 36 00
        E 48 90 37 50
        E 192 90 37 00
        E 48 90 2b 50
        E 96 90 2b 00
        E 24 90 2e 50
        E 96 90 2e 00
        E 24 90 30 50
        E 96 90 30 00
        E 24 90 2e 50
        E 96 90 2e 00
        E 24 90 2d 50
        E 96 90 2d 00
        E 24 90 30 50
        E 96 90 30 00
        E 24 90 32 50
        E 450 90 32 00
        E 30 90 2b 50
        E 598 90 2b 00
        E 122 b0 7b 00
        GUID {51C50F11-66A6-4A41-A0B3-7748738396B3}
        IGNTEMPO 0 120 4 4
        SRCCOLOR 241
        VELLANE -1 86 6
        CFGEDITVIEW 8580.611062 90.377764 45 16 0 0 0 0 0 0.5
        KEYSNAP 0
        TRACKSEL 252
        EVTFILTER 0 -1 -1 -1 -1 0 0 0 0 -1 -1 -1 -1 0 -1 0 -1 -1
        CFGEDIT 1 0 0 0 0 0 1 0 1 1 1 0.25 413 148 1280 633 0 0 2 3 0 0 0 0 0 -1 0 0 1 64
      >
      TAKE
      NAME "Fagot - National_Anthems_-_Slovakia2.mid"
      TAKEVOLPAN 0 1 -1
      SOFFS 0 0
      PLAYRATE 1 1 0 -1 0 0.0025
      CHANMODE 0
      GUID {97D6937C-F722-0F4A-B74A-CCE9817C11AA}
      <SOURCE MIDI
        HASDATA 1 240 QN
        POOLEDEVTS {AEDFFF12-FB47-D34C-A18C-086D3B1B7853}
        <X 0 0 0 0 3 Fagot
          /wNGYWdvdA==
        >
        E 0 90 37 50
        E 96 90 37 00
        E 24 90 32 50
        E 96 90 32 00
        E 24 90 2b 50
        E 192 90 2b 00
        E 48 90 37 50
        E 120 90 37 00
        E 0 90 35 50
        E 120 90 35 00
        E 0 90 33 50
        E 96 90 33 00
        E 24 90 32 50
        E 96 90 32 00
        E 24 90 30 50
        E 96 90 30 00
        E 24 90 2e 50
        E 96 90 2e 00
        E 24 90 2d 50
        E 96 90 2d 00
        E 24 90 2b 50
        E 96 90 2b 00
        E 24 90 32 50
        E 192 90 32 00
        E 48 90 32 50
        E 192 90 32 00
        E 48 90 2b 50
        E 96 90 2b 00
        E 24 90 29 50
        E 96 90 29 00
        E 24 90 2e 50
        E 192 90 2e 00
        E 48 90 3a 50
        E 120 90 3a 00
        E 0 90 39 50
        E 120 90 39 00
        E 0 90 37 50
        E 96 90 37 00
        E 24 90 35 50
        E 96 90 35 00
        E 24 90 33 50
        E 96 90 33 00
        E 24 90 32 50
        E 96 90 32 00
        E 24 90 30 50
        E 96 90 30 00
        E 24 90 2e 50
        E 96 90 2e 00
        E 24 90 35 50
        E 192 90 35 00
        E 48 90 35 50
        E 192 90 35 00
        E 48 90 2e 50
        E 96 90 2e 00
        E 24 90 30 50
        E 96 90 30 00
        E 24 90 32 50
        E 96 90 32 00
        E 24 90 33 50
        E 96 90 33 00
        E 24 90 35 50
        E 192 90 35 00
        E 48 90 35 50
        E 96 90 35 00
        E 24 90 33 50
        E 96 90 33 00
        E 24 90 32 50
        E 96 90 32 00
        E 24 90 34 50
        E 96 90 34 00
        E 24 90 36 50
        E 192 90 36 00
        E 48 90 37 50
        E 192 90 37 00
        E 48 90 2b 50
        E 96 90 2b 00
        E 24 90 2e 50
        E 96 90 2e 00
        E 24 90 30 50
        E 96 90 30 00
        E 24 90 2e 50
        E 96 90 2e 00
        E 24 90 2d 50
        E 96 90 2d 00
        E 24 90 2b 50
        E 96 90 2b 00
        E 24 90 32 50
        E 192 90 32 00
        E 48 90 2b 50
        E 192 90 2b 00
        E 48 90 2e 50
        E 96 90 2e 00
        E 24 90 30 50
        E 96 90 30 00
        E 24 90 32 50
        E 96 90 32 00
        E 24 90 33 50
        E 96 90 33 00
        E 24 90 35 50
        E 192 90 35 00
        E 48 90 35 50
        E 96 90 35 00
        E 24 90 33 50
        E 96 90 33 00
        E 24 90 32 50
        E 96 90 32 00
        E 24 90 34 50
        E 96 90 34 00
        E 24 90 36 50
        E 192 90 36 00
        E 48 90 37 50
        E 192 90 37 00
        E 48 90 2b 50
        E 96 90 2b 00
        E 24 90 2e 50
        E 96 90 2e 00
        E 24 90 30 50
        E 96 90 30 00
        E 24 90 2e 50
        E 96 90 2e 00
        E 24 90 2d 50
        E 96 90 2d 00
        E 24 90 2b 50
        E 96 90 2b 00
        E 24 90 32 50
        E 192 90 32 00
        E 48 90 2b 50
        E 192 90 2b 00
        E 48 90 37 50
        E 96 90 37 00
        E 24 90 32 50
        E 96 90 32 00
        E 24 90 2b 50
        E 192 90 2b 00
        E 48 90 37 50
        E 120 90 37 00
        E 0 90 35 50
        E 120 90 35 00
        E 0 90 33 50
        E 96 90 33 00
        E 24 90 32 50
        E 96 90 32 00
        E 24 90 30 50
        E 96 90 30 00
        E 24 90 2e 50
        E 96 90 2e 00
        E 24 90 2d 50
        E 96 90 2d 00
        E 24 90 2b 50
        E 96 90 2b 00
        E 24 90 32 50
        E 192 90 32 00
        E 48 90 32 50
        E 192 90 32 00
        E 48 90 2b 50
        E 96 90 2b 00
        E 24 90 29 50
        E 96 90 29 00
        E 24 90 2e 50
        E 192 90 2e 00
        E 48 90 3a 50
        E 120 90 3a 00
        E 0 90 39 50
        E 120 90 39 00
        E 0 90 37 50
        E 96 90 37 00
        E 24 90 35 50
        E 96 90 35 00
        E 24 90 33 50
        E 96 90 33 00
        E 24 90 32 50
        E 96 90 32 00
        E 24 90 30 50
        E 96 90 30 00
        E 24 90 2e 50
        E 96 90 2e 00
        E 24 90 35 50
        E 192 90 35 00
        E 48 90 35 50
        E 192 90 35 00
        E 48 90 2e 50
        E 96 90 2e 00
        E 24 90 30 50
        E 96 90 30 00
        E 24 90 32 50
        E 96 90 32 00
        E 24 90 33 50
        E 96 90 33 00
        E 24 90 35 50
        E 192 90 35 00
        E 48 90 35 50
        E 96 90 35 00
        E 24 90 33 50
        E 96 90 33 00
        E 24 90 32 50
        E 96 90 32 00
        E 24 90 34 50
        E 96 90 34 00
        E 24 90 36 50
        E 192 90 36 00
        E 48 90 37 50
        E 192 90 37 00
        E 48 90 2b 50
        E 96 90 2b 00
        E 24 90 2e 50
        E 96 90 2e 00
        E 24 90 30 50
        E 96 90 30 00
        E 24 90 2e 50
        E 96 90 2e 00
        E 24 90 2d 50
        E 96 90 2d 00
        E 24 90 2b 50
        E 96 90 2b 00
        E 24 90 32 50
        E 192 90 32 00
        E 48 90 2b 50
        E 192 90 2b 00
        E 48 90 2e 50
        E 96 90 2e 00
        E 24 90 30 50
        E 96 90 30 00
        E 24 90 32 50
        E 96 90 32 00
        E 24 90 33 50
        E 96 90 33 00
        E 24 90 35 50
        E 192 90 35 00
        E 48 90 35 50
        E 96 90 35 00
        E 24 90 33 50
        E 96 90 33 00
        E 24 90 32 50
        E 96 90 32 00
        E 24 90 34 50
        E 96 90 34 00
        E 24 90 36 50
        E 192 90 36 00
        E 48 90 37 50
        E 192 90 37 00
        E 48 90 2b 50
        E 96 90 2b 00
        E 24 90 2e 50
        E 96 90 2e 00
        E 24 90 30 50
        E 96 90 30 00
        E 24 90 2e 50
        E 96 90 2e 00
        E 24 90 2d 50
        E 96 90 2d 00
        E 24 90 30 50
        E 96 90 30 00
        E 24 90 32 50
        E 450 90 32 00
        E 30 90 2b 50
        E 598 90 2b 00
        E 122 b0 7b 00
        GUID {DB60DD1F-CA14-5B41-9DA8-208BCCDE894D}
        IGNTEMPO 0 120 4 4
        SRCCOLOR 251
        VELLANE -1 86 6
        CFGEDITVIEW 0 0 45 16 0 0 0 0 0 0.5
        KEYSNAP 0
        TRACKSEL 252
        EVTFILTER 0 -1 -1 -1 -1 0 0 0 0 -1 -1 -1 -1 0 -1 0 -1 -1
        CFGEDIT 1 0 0 0 0 0 1 0 1 1 1 0.25 413 148 1280 633 0 0 2 3 0 0 0 0 0 -1 0 0 1 64
      >
    >
  >
  <TRACK {9E2CAE92-CCC1-1F4A-BCF6-93DCFE473BDF}
    NAME "16th pulse (mix w/ send?)"
    PEAKCOL 16576
    BEAT -1
    AUTOMODE 0
    VOLPAN 0.47829056409258 0 -1 -1 1
    MUTESOLO 0 2 0
    IPHASE 0
    ISBUS 0 0
    BUSCOMP 0 0
    SHOWINMIX 1 0.6667 0.5 1 0.111111 0 0 0
    FREEMODE 0
    SEL 0
    REC 0 0 0 0 0 0 0
    VU 2
    TRACKHEIGHT 63 0
    INQ 0 0 0 0.5 100 0 0 100
    NCHAN 2
    FX 1
    TRACKID {9E2CAE92-CCC1-1F4A-BCF6-93DCFE473BDF}
    PERF 0
    MIDIOUT -1
    MAINSEND 1 0
    <FXCHAIN
      WNDRECT 36 359 724 387
      SHOW 0
      LASTSEL 0
      DOCKED 0
      BYPASS 0 0 0
      <VST "VSTi: chipsounds (Plogue Art et Technologie, Inc)" chipsounds.vst 0 "" 1347176271
        T0dMUO5e7f4AAAAABAAAAAEAAAAAAAAAAgAAAAAAAAAEAAAAAAAAAAgAAAAAAAAAxQQAAAEAAAAAABAA
        Q0VHUBYfAAB4nO1ZUW/bOAx+768w/HT3MFuSJcsCkg5p2hwCXG8F0nseVEdLjTl2Zsu5bb/+aDtplLSK3Xa9DbjwJTZDUuRniSbpwfuvy9RZq6JM8mzoYg+5zvvzs8Go
        SORMrpXxl8Ch66yKfF7FenoJDISEe37mAA1mSuskW5TOl0qmif4G/7pOqQsll8AeugFxnaX8Oms4ozTN4+uLocswsK+nl9MPlb7O56rRkpXOl1LDmrM010MXmaxUrVU6
        dJMMbFdLlWnXSZO1apVBsoxrR1lzJVMJPOy8c1TtlVfG6YY9BkVVDN0Q5BZpfifT2ypr/ASGvw0JVneSecPL5LK2jz3npiqUM75PVv5seumHLMLOb3/dzsa/u86dzD5P
        5xtcDNwiAlHG9zLLatfB2ipPASDqOnq36uruYyGzBazyDjBYabgp6+sat80NSC3zWMND2YVa8yq9YfzzMZWlri23ITRhXMsk24axlmnVguw/JYEfJJBFgnRKBJ0StFOC
        dUqEnRK8UyLqlBCdEhh1i3Sjirthxd244m5gsRXZG1nI5fFHvBOxLrQT4bbNthMxsfMonNmaKA+jgNeJxqJk4OARZhWjplggGqJhwFhErDp9fDa2hIdJa5eRAIckolYs
        zEAD3CqBPKeUWAPl2EQHtUohJQEnNQYWJWK6FzWIIo4ZYYzb3duDNGiVKOYkIMwKBDcBDluAIxYKGkXM7p6x/TzeroQF4gGNQrtSuBdTu01IEFG4jqxKxuH2IJoWviiK
        CIWnZo0qMtfaIIGxIEgQYdURz9cRaC+m1jseYnibUPv+DHD3BhVoZ9q6twTaWbIuJxDps1yPXCBQ2MdS1EdI9MkrfTzHBAU2qVtZLJTevPTjfOndpPmiUl5dE3l/Tj54
        VakKZLxkG61xVUKVcim1dO71txWoMs7A3zL5Dtc0pEZNAFipbJ7I9nIOOnCxpUn7Q9CJTnSiX4X2c4TfJonnZg18yhonOtH/h16aNW6LZLFQxUx9qVQWq6I7b9CABg95
        gxtpgzyVNvCBn03lyieITCCRXEX88H8UjPlE9AgYI3os6IFfz1UORyz4h45Y8HbEQnYjFmydsaAXTFjIacJymrC8dMJidvZwXsKQNwcHmnwUhNae0WztBWIMekzOSBQF
        AlubnL0pCKchYiISlIWYh/bW+ZmTG+sMhlufnGXKwWjT3AMgkYB0ZDdsDiyQoJveHnGBeL+BRdAi3jlt2htYECz6rWQ9Oq8bNJitvXWYY7b2R9rot2jtj0wS/ovW/k2a
        9uil1fej1+cBXfV4k6Kf1HO8OOgfRD+nZMIB61kzTTaELuq7umbCDF3wycWjSOw107a+gpQMNGJBjeX4l+U+4W/fGu/q0ycVa/Nj2rasah/gaHmX1I+ro7jbfpX74+/p
        1o6MdbJW091Xwub+6uG+VCmsrOa38q7OFmZGKVSp9LXKKicpt+K6ieD4jnK0+goiF7IsoYCU+n7o+qPVKk3i5utk6beKUIomqzKvsjlwmrVK/4hZv92ZDvDjz6VfW/ck
        nODVQR585DV+0utRsVKLRSJ1vnM4TVavcNiw6NemXuOdDVPwYKkK+QawbrzPQbhd48D9gQ+b6vxs4G+/eZ+f/Qt9Nmq4
        AAAQAAAA
      >
      FLOATPOS 409 269 870 508
      FXID {DC79668B-30D1-964C-A162-F245DBE294B0}
      WAK 0
      BYPASS 1 0 0
      <VST "VST: 8-Bit Shaper (Xfer Records)" 8BitShaper.vst 0 "" 1148539762
        clN1RO5e7f4CAAAAAQAAAAAAAAACAAAAAAAAAAQAAAABAAAAAAAAAAIAAAAAAAAABAAAAAAAAAAIAAAAAAAAADQCAAABAAAAAAAQAA==
        ZmaGP20MlT7dQQw/AAAAPyQAAAAAAIA/EAAAAAAAAAAXAAAAMAAAABkAAAAaAAAAGgAAABoAAAAbAAAAGwAAABwAAAAcAAAAHAAAAB0AAAAdAAAAHgAAAB4AAAAfAAAA
        HwAAACAAAAAgAAAAIAAAACEAAAAhAAAAIQAAACIAAAAiAAAAIgAAACMAAAAjAAAAIwAAACQAAAAkAAAAJAAAACUAAAAlAAAAKAAAACgAAAApAAAAKQAAACoAAAA1AAAA
        KgAAACoAAAA2AAAAKgAAACoAAAAqAAAAKgAAACoAAAAqAAAAKgAAACsAAAArAAAAOQAAAC0AAAA0AAAAOgAAAC0AAAAtAAAAPAAAAC4AAAAuAAAALwAAADAAAAAwAAAA
        MQAAADEAAAAxAAAAMgAAADMAAAAzAAAAMwAAADcAAAA3AAAANwAAADgAAAA4AAAAOAAAADkAAAA5AAAAOQAAADoAAAA6AAAAOgAAADoAAAA6AAAAOwAAADsAAAA7AAAA
        PAAAADsAAAA7AAAAOwAAADwAAAA8AAAAPAAAADwAAAA9AAAAPQAAAD0AAAA9AAAAPQAAAD4AAAA+AAAAPwAAAEkAAABAAAAAQAAAAEgAAABAAAAAQQAAAEIAAABCAAAA
        QgAAAEMAAABDAAAAQwAAAEQAAABEAAAARQAAAE0AAABGAAAARwAAAEYAAABHAAAASAAAAEgAAABJAAAATwAAAAAAgD+rqqo+q6qqPh0Fwz6OAm0/
        AEluaXQgMQAQAAAA
      >
      PRESETNAME "Init 1"
      FLOATPOS 0 0 0 0
      FXID {7C5EA558-A8D3-5646-B743-4BD73C6ED9CF}
      WAK 0
    >
    <ITEM
      POSITION 0
      SNAPOFFS 0
      LENGTH 41.5
      LOOP 1
      ALLTAKES 0
      FADEIN 1 0 0 1 0 0
      FADEOUT 1 0 0 1 0 0
      MUTE 0
      SEL 0
      YPOS 0.830935 0.05
      IGUID {BE999908-7FE8-034A-93FB-297A4DBFD853}
      IID 8
      NAME "Trubkab1 - National_Anthems_-_Slovakia2.mid"
      VOLPAN 1 0 1 -1
      SOFFS 0 0
      PLAYRATE 1 1 0 -1 0 0.0025
      CHANMODE 0
      TAKECOLOR 26173599 B
      GUID {DDAAE037-B98B-1C4C-8203-C8344552BF14}
      <SOURCE MIDI
        HASDATA 1 240 QN
        POOLEDEVTS {16D2194B-3B03-1A4D-A2D2-536C6A5A1B83}
        <X 0 0 0 0 3 Trubkab1
          /wNUcnVia2FiMQ==
        >
        E 0 90 3a 50
        E 96 90 3a 00
        E 24 90 3e 50
        E 96 90 3e 00
        E 24 90 3e 50
        E 192 90 3e 00
        E 48 90 3e 50
        E 192 90 3e 00
        E 48 90 43 50
        E 96 90 43 00
        E 24 90 41 50
        E 96 90 41 00
        E 24 90 3f 50
        E 96 90 3f 00
        E 24 90 3e 50
        E 96 90 3e 00
        E 24 90 3e 50
        E 96 90 3e 00
        E 24 90 3e 50
        E 96 90 3e 00
        E 24 90 3e 50
        E 192 90 3e 00
        E 48 90 3a 50
        E 192 90 3a 00
        E 48 90 3f 50
        E 96 90 3f 00
        E 24 90 41 50
        E 96 90 41 00
        E 24 90 41 50
        E 192 90 41 00
        E 48 90 41 50
        E 192 90 41 00
        E 48 90 41 50
        E 96 90 41 00
        E 24 90 43 50
        E 96 90 43 00
        E 24 90 43 50
        E 96 90 43 00
        E 24 90 41 50
        E 96 90 41 00
        E 24 90 41 50
        E 96 90 41 00
        E 24 90 41 50
        E 96 90 41 00
        E 24 90 41 50
        E 192 90 41 00
        E 48 90 41 50
        E 192 90 41 00
        E 48 90 41 50
        E 96 90 41 00
        E 24 90 41 50
        E 96 90 41 00
        E 24 90 41 50
        E 192 90 41 00
        E 48 90 41 50
        E 192 90 41 00
        E 48 90 45 50
        E 96 90 45 00
        E 24 90 43 50
        E 96 90 43 00
        E 24 90 42 50
        E 96 90 42 00
        E 24 90 42 50
        E 96 90 42 00
        E 24 90 3e 50
        E 192 90 3e 00
        E 48 90 3e 50
        E 192 90 3e 00
        E 48 90 3e 50
        E 96 90 3e 00
        E 24 90 3e 50
        E 96 90 3e 00
        E 24 90 3f 50
        E 96 90 3f 00
        E 24 90 3e 50
        E 96 90 3e 00
        E 24 90 42 50
        E 96 90 42 00
        E 24 90 43 50
        E 96 90 43 00
        E 24 90 3e 50
        E 192 90 3e 00
        E 48 90 3a 50
        E 192 90 3a 00
        E 48 90 41 50
        E 96 90 41 00
        E 24 90 41 50
        E 96 90 41 00
        E 24 90 41 50
        E 192 90 41 00
        E 48 90 41 50
        E 192 90 41 00
        E 48 90 45 50
        E 96 90 45 00
        E 24 90 43 50
        E 96 90 43 00
        E 24 90 42 50
        E 96 90 42 00
        E 24 90 42 50
        E 96 90 42 00
        E 24 90 3e 50
        E 192 90 3e 00
        E 48 90 3e 50
        E 192 90 3e 00
        E 48 90 3e 50
        E 96 90 3e 00
        E 24 90 3e 50
        E 96 90 3e 00
        E 24 90 3f 50
        E 96 90 3f 00
        E 24 90 3e 50
        E 96 90 3e 00
        E 24 90 42 50
        E 96 90 42 00
        E 24 90 43 50
        E 96 90 43 00
        E 24 90 3e 50
        E 192 90 3e 00
        E 48 90 3a 50
        E 192 90 3a 00
        E 48 90 3a 50
        E 96 90 3a 00
        E 24 90 3e 50
        E 96 90 3e 00
        E 24 90 3e 50
        E 192 90 3e 00
        E 48 90 3e 50
        E 192 90 3e 00
        E 48 90 43 50
        E 96 90 43 00
        E 24 90 41 50
        E 96 90 41 00
        E 24 90 3f 50
        E 96 90 3f 00
        E 24 90 3e 50
        E 96 90 3e 00
        E 24 90 3e 50
        E 96 90 3e 00
        E 24 90 3e 50
        E 96 90 3e 00
        E 24 90 3e 50
        E 192 90 3e 00
        E 48 90 3a 50
        E 192 90 3a 00
        E 48 90 3f 50
        E 96 90 3f 00
        E 24 90 41 50
        E 96 90 41 00
        E 24 90 41 50
        E 192 90 41 00
        E 48 90 41 50
        E 192 90 41 00
        E 48 90 41 50
        E 96 90 41 00
        E 24 90 43 50
        E 96 90 43 00
        E 24 90 43 50
        E 96 90 43 00
        E 24 90 41 50
        E 96 90 41 00
        E 24 90 41 50
        E 96 90 41 00
        E 24 90 41 50
        E 96 90 41 00
        E 24 90 41 50
        E 192 90 41 00
        E 48 90 41 50
        E 192 90 41 00
        E 48 90 41 50
        E 96 90 41 00
        E 24 90 41 50
        E 96 90 41 00
        E 24 90 41 50
        E 192 90 41 00
        E 48 90 41 50
        E 192 90 41 00
        E 48 90 45 50
        E 96 90 45 00
        E 24 90 43 50
        E 96 90 43 00
        E 24 90 42 50
        E 96 90 42 00
        E 24 90 42 50
        E 96 90 42 00
        E 24 90 3e 50
        E 192 90 3e 00
        E 48 90 3e 50
        E 192 90 3e 00
        E 48 90 3e 50
        E 96 90 3e 00
        E 24 90 3e 50
        E 96 90 3e 00
        E 24 90 3f 50
        E 96 90 3f 00
        E 24 90 3e 50
        E 96 90 3e 00
        E 24 90 42 50
        E 96 90 42 00
        E 24 90 43 50
        E 96 90 43 00
        E 24 90 3e 50
        E 192 90 3e 00
        E 48 90 3a 50
        E 192 90 3a 00
        E 48 90 41 50
        E 96 90 41 00
        E 24 90 41 50
        E 96 90 41 00
        E 24 90 41 50
        E 192 90 41 00
        E 48 90 41 50
        E 192 90 41 00
        E 48 90 45 50
        E 96 90 45 00
        E 24 90 43 50
        E 96 90 43 00
        E 24 90 42 50
        E 96 90 42 00
        E 24 90 42 50
        E 96 90 42 00
        E 24 90 3e 50
        E 192 90 3e 00
        E 48 90 3e 50
        E 192 90 3e 00
        E 48 90 3e 50
        E 96 90 3e 00
        E 24 90 3e 50
        E 96 90 3e 00
        E 24 90 3f 50
        E 96 90 3f 00
        E 24 90 3e 50
        E 96 90 3e 00
        E 24 90 42 50
        E 96 90 42 00
        E 24 90 43 50
        E 96 90 43 00
        E 24 90 42 50
        E 450 90 42 00
        E 30 90 43 50
        E 598 90 43 00
        E 122 b0 7b 00
        GUID {84A23A8F-CDAE-704E-B4EC-A0F74EA9B9E8}
        IGNTEMPO 0 120 4 4
        SRCCOLOR 242
        VELLANE -1 86 6
      >
      TAKE
      NAME "Trubkab1 - National_Anthems_-_Slovakia2.mid"
      TAKEVOLPAN 0 1 -1
      SOFFS 0 0
      PLAYRATE 1 1 0 -1 0 0.0025
      CHANMODE 0
      GUID {75F3FCAB-A103-754E-818B-2F180EA91C8A}
      <SOURCE MIDI
        HASDATA 1 240 QN
        POOLEDEVTS {180373EB-CB24-2D4A-A147-C5B7769AA3E9}
        <X 0 0 0 0 3 Trubkab1
          /wNUcnVia2FiMQ==
        >
        E 0 90 3a 50
        E 96 90 3a 00
        E 24 90 3e 50
        E 96 90 3e 00
        E 24 90 3e 50
        E 192 90 3e 00
        E 48 90 3e 50
        E 192 90 3e 00
        E 48 90 43 50
        E 96 90 43 00
        E 24 90 41 50
        E 96 90 41 00
        E 24 90 3f 50
        E 96 90 3f 00
        E 24 90 3e 50
        E 96 90 3e 00
        E 24 90 3e 50
        E 96 90 3e 00
        E 24 90 3e 50
        E 96 90 3e 00
        E 24 90 3e 50
        E 192 90 3e 00
        E 48 90 3a 50
        E 192 90 3a 00
        E 48 90 3f 50
        E 96 90 3f 00
        E 24 90 41 50
        E 96 90 41 00
        E 24 90 41 50
        E 192 90 41 00
        E 48 90 41 50
        E 192 90 41 00
        E 48 90 41 50
        E 96 90 41 00
        E 24 90 43 50
        E 96 90 43 00
        E 24 90 43 50
        E 96 90 43 00
        E 24 90 41 50
        E 96 90 41 00
        E 24 90 41 50
        E 96 90 41 00
        E 24 90 41 50
        E 96 90 41 00
        E 24 90 41 50
        E 192 90 41 00
        E 48 90 41 50
        E 192 90 41 00
        E 48 90 41 50
        E 96 90 41 00
        E 24 90 41 50
        E 96 90 41 00
        E 24 90 41 50
        E 192 90 41 00
        E 48 90 41 50
        E 192 90 41 00
        E 48 90 45 50
        E 96 90 45 00
        E 24 90 43 50
        E 96 90 43 00
        E 24 90 42 50
        E 96 90 42 00
        E 24 90 42 50
        E 96 90 42 00
        E 24 90 3e 50
        E 192 90 3e 00
        E 48 90 3e 50
        E 192 90 3e 00
        E 48 90 3e 50
        E 96 90 3e 00
        E 24 90 3e 50
        E 96 90 3e 00
        E 24 90 3f 50
        E 96 90 3f 00
        E 24 90 3e 50
        E 96 90 3e 00
        E 24 90 42 50
        E 96 90 42 00
        E 24 90 43 50
        E 96 90 43 00
        E 24 90 3e 50
        E 192 90 3e 00
        E 48 90 3a 50
        E 192 90 3a 00
        E 48 90 41 50
        E 96 90 41 00
        E 24 90 41 50
        E 96 90 41 00
        E 24 90 41 50
        E 192 90 41 00
        E 48 90 41 50
        E 192 90 41 00
        E 48 90 45 50
        E 96 90 45 00
        E 24 90 43 50
        E 96 90 43 00
        E 24 90 42 50
        E 96 90 42 00
        E 24 90 42 50
        E 96 90 42 00
        E 24 90 3e 50
        E 192 90 3e 00
        E 48 90 3e 50
        E 192 90 3e 00
        E 48 90 3e 50
        E 96 90 3e 00
        E 24 90 3e 50
        E 96 90 3e 00
        E 24 90 3f 50
        E 96 90 3f 00
        E 24 90 3e 50
        E 96 90 3e 00
        E 24 90 42 50
        E 96 90 42 00
        E 24 90 43 50
        E 96 90 43 00
        E 24 90 3e 50
        E 192 90 3e 00
        E 48 90 3a 50
        E 192 90 3a 00
        E 48 90 3a 50
        E 96 90 3a 00
        E 24 90 3e 50
        E 96 90 3e 00
        E 24 90 3e 50
        E 192 90 3e 00
        E 48 90 3e 50
        E 192 90 3e 00
        E 48 90 43 50
        E 96 90 43 00
        E 24 90 41 50
        E 96 90 41 00
        E 24 90 3f 50
        E 96 90 3f 00
        E 24 90 3e 50
        E 96 90 3e 00
        E 24 90 3e 50
        E 96 90 3e 00
        E 24 90 3e 50
        E 96 90 3e 00
        E 24 90 3e 50
        E 192 90 3e 00
        E 48 90 3a 50
        E 192 90 3a 00
        E 48 90 3f 50
        E 96 90 3f 00
        E 24 90 41 50
        E 96 90 41 00
        E 24 90 41 50
        E 192 90 41 00
        E 48 90 41 50
        E 192 90 41 00
        E 48 90 41 50
        E 96 90 41 00
        E 24 90 43 50
        E 96 90 43 00
        E 24 90 43 50
        E 96 90 43 00
        E 24 90 41 50
        E 96 90 41 00
        E 24 90 41 50
        E 96 90 41 00
        E 24 90 41 50
        E 96 90 41 00
        E 24 90 41 50
        E 192 90 41 00
        E 48 90 41 50
        E 192 90 41 00
        E 48 90 41 50
        E 96 90 41 00
        E 24 90 41 50
        E 96 90 41 00
        E 24 90 41 50
        E 192 90 41 00
        E 48 90 41 50
        E 192 90 41 00
        E 48 90 45 50
        E 96 90 45 00
        E 24 90 43 50
        E 96 90 43 00
        E 24 90 42 50
        E 96 90 42 00
        E 24 90 42 50
        E 96 90 42 00
        E 24 90 3e 50
        E 192 90 3e 00
        E 48 90 3e 50
        E 192 90 3e 00
        E 48 90 3e 50
        E 96 90 3e 00
        E 24 90 3e 50
        E 96 90 3e 00
        E 24 90 3f 50
        E 96 90 3f 00
        E 24 90 3e 50
        E 96 90 3e 00
        E 24 90 42 50
        E 96 90 42 00
        E 24 90 43 50
        E 96 90 43 00
        E 24 90 3e 50
        E 192 90 3e 00
        E 48 90 3a 50
        E 192 90 3a 00
        E 48 90 41 50
        E 96 90 41 00
        E 24 90 41 50
        E 96 90 41 00
        E 24 90 41 50
        E 192 90 41 00
        E 48 90 41 50
        E 192 90 41 00
        E 48 90 45 50
        E 96 90 45 00
        E 24 90 43 50
        E 96 90 43 00
        E 24 90 42 50
        E 96 90 42 00
        E 24 90 42 50
        E 96 90 42 00
        E 24 90 3e 50
        E 192 90 3e 00
        E 48 90 3e 50
        E 192 90 3e 00
        E 48 90 3e 50
        E 96 90 3e 00
        E 24 90 3e 50
        E 96 90 3e 00
        E 24 90 3f 50
        E 96 90 3f 00
        E 24 90 3e 50
        E 96 90 3e 00
        E 24 90 42 50
        E 96 90 42 00
        E 24 90 43 50
        E 96 90 43 00
        E 24 90 42 50
        E 450 90 42 00
        E 30 90 43 50
        E 598 90 43 00
        E 122 b0 7b 00
        GUID {6BFE5646-B1D5-3F49-A1F9-C6E3AC06C117}
        IGNTEMPO 0 120 4 4
        SRCCOLOR 256
        VELLANE -1 86 6
      >
    >
    <ITEM
      POSITION 0
      SNAPOFFS 0
      LENGTH 41.5
      LOOP 1
      ALLTAKES 0
      FADEIN 1 0 0 1 0 0
      FADEOUT 1 0 0 1 0 0
      MUTE 0
      SEL 0
      YPOS 0.138489 0.05
      IGUID {F4D47B58-8CA7-0A48-8FF6-6FA0C28D3B02}
      IID 7
      NAME "Fagot - National_Anthems_-_Slovakia2.mid"
      VOLPAN 1.8125 0 1 -1
      SOFFS 0 0
      PLAYRATE 1 1 0 -1 0 0.0025
      CHANMODE 0
      TAKECOLOR 26173599 B
      GUID {D0D3E43A-B6EF-C04D-9A0F-56FC2F7520CA}
      <SOURCE MIDI
        HASDATA 1 240 QN
        POOLEDEVTS {1CE11F62-571A-0544-A8BB-B085C40D2CC8}
        <X 0 0 0 0 3 Fagot
          /wNGYWdvdA==
        >
        E 0 90 37 50
        E 96 90 37 00
        E 24 90 32 50
        E 96 90 32 00
        E 24 90 2b 50
        E 192 90 2b 00
        E 48 90 37 50
        E 120 90 37 00
        E 0 90 35 50
        E 120 90 35 00
        E 0 90 33 50
        E 96 90 33 00
        E 24 90 32 50
        E 96 90 32 00
        E 24 90 30 50
        E 96 90 30 00
        E 24 90 2e 50
        E 96 90 2e 00
        E 24 90 2d 50
        E 96 90 2d 00
        E 24 90 2b 50
        E 96 90 2b 00
        E 24 90 32 50
        E 192 90 32 00
        E 48 90 32 50
        E 192 90 32 00
        E 48 90 2b 50
        E 96 90 2b 00
        E 24 90 29 50
        E 96 90 29 00
        E 24 90 2e 50
        E 192 90 2e 00
        E 48 90 3a 50
        E 120 90 3a 00
        E 0 90 39 50
        E 120 90 39 00
        E 0 90 37 50
        E 96 90 37 00
        E 24 90 35 50
        E 96 90 35 00
        E 24 90 33 50
        E 96 90 33 00
        E 24 90 32 50
        E 96 90 32 00
        E 24 90 30 50
        E 96 90 30 00
        E 24 90 2e 50
        E 96 90 2e 00
        E 24 90 35 50
        E 192 90 35 00
        E 48 90 35 50
        E 192 90 35 00
        E 48 90 2e 50
        E 96 90 2e 00
        E 24 90 30 50
        E 96 90 30 00
        E 24 90 32 50
        E 96 90 32 00
        E 24 90 33 50
        E 96 90 33 00
        E 24 90 35 50
        E 192 90 35 00
        E 48 90 35 50
        E 96 90 35 00
        E 24 90 33 50
        E 96 90 33 00
        E 24 90 32 50
        E 96 90 32 00
        E 24 90 34 50
        E 96 90 34 00
        E 24 90 36 50
        E 192 90 36 00
        E 48 90 37 50
        E 192 90 37 00
        E 48 90 2b 50
        E 96 90 2b 00
        E 24 90 2e 50
        E 96 90 2e 00
        E 24 90 30 50
        E 96 90 30 00
        E 24 90 2e 50
        E 96 90 2e 00
        E 24 90 2d 50
        E 96 90 2d 00
        E 24 90 2b 50
        E 96 90 2b 00
        E 24 90 32 50
        E 192 90 32 00
        E 48 90 2b 50
        E 192 90 2b 00
        E 48 90 2e 50
        E 96 90 2e 00
        E 24 90 30 50
        E 96 90 30 00
        E 24 90 32 50
        E 96 90 32 00
        E 24 90 33 50
        E 96 90 33 00
        E 24 90 35 50
        E 192 90 35 00
        E 48 90 35 50
        E 96 90 35 00
        E 24 90 33 50
        E 96 90 33 00
        E 24 90 32 50
        E 96 90 32 00
        E 24 90 34 50
        E 96 90 34 00
        E 24 90 36 50
        E 192 90 36 00
        E 48 90 37 50
        E 192 90 37 00
        E 48 90 2b 50
        E 96 90 2b 00
        E 24 90 2e 50
        E 96 90 2e 00
        E 24 90 30 50
        E 96 90 30 00
        E 24 90 2e 50
        E 96 90 2e 00
        E 24 90 2d 50
        E 96 90 2d 00
        E 24 90 2b 50
        E 96 90 2b 00
        E 24 90 32 50
        E 192 90 32 00
        E 48 90 2b 50
        E 192 90 2b 00
        E 48 90 37 50
        E 96 90 37 00
        E 24 90 32 50
        E 96 90 32 00
        E 24 90 2b 50
        E 192 90 2b 00
        E 48 90 37 50
        E 120 90 37 00
        E 0 90 35 50
        E 120 90 35 00
        E 0 90 33 50
        E 96 90 33 00
        E 24 90 32 50
        E 96 90 32 00
        E 24 90 30 50
        E 96 90 30 00
        E 24 90 2e 50
        E 96 90 2e 00
        E 24 90 2d 50
        E 96 90 2d 00
        E 24 90 2b 50
        E 96 90 2b 00
        E 24 90 32 50
        E 192 90 32 00
        E 48 90 32 50
        E 192 90 32 00
        E 48 90 2b 50
        E 96 90 2b 00
        E 24 90 29 50
        E 96 90 29 00
        E 24 90 2e 50
        E 192 90 2e 00
        E 48 90 3a 50
        E 120 90 3a 00
        E 0 90 39 50
        E 120 90 39 00
        E 0 90 37 50
        E 96 90 37 00
        E 24 90 35 50
        E 96 90 35 00
        E 24 90 33 50
        E 96 90 33 00
        E 24 90 32 50
        E 96 90 32 00
        E 24 90 30 50
        E 96 90 30 00
        E 24 90 2e 50
        E 96 90 2e 00
        E 24 90 35 50
        E 192 90 35 00
        E 48 90 35 50
        E 192 90 35 00
        E 48 90 2e 50
        E 96 90 2e 00
        E 24 90 30 50
        E 96 90 30 00
        E 24 90 32 50
        E 96 90 32 00
        E 24 90 33 50
        E 96 90 33 00
        E 24 90 35 50
        E 192 90 35 00
        E 48 90 35 50
        E 96 90 35 00
        E 24 90 33 50
        E 96 90 33 00
        E 24 90 32 50
        E 96 90 32 00
        E 24 90 34 50
        E 96 90 34 00
        E 24 90 36 50
        E 192 90 36 00
        E 48 90 37 50
        E 192 90 37 00
        E 48 90 2b 50
        E 96 90 2b 00
        E 24 90 2e 50
        E 96 90 2e 00
        E 24 90 30 50
        E 96 90 30 00
        E 24 90 2e 50
        E 96 90 2e 00
        E 24 90 2d 50
        E 96 90 2d 00
        E 24 90 2b 50
        E 96 90 2b 00
        E 24 90 32 50
        E 192 90 32 00
        E 48 90 2b 50
        E 192 90 2b 00
        E 48 90 2e 50
        E 96 90 2e 00
        E 24 90 30 50
        E 96 90 30 00
        E 24 90 32 50
        E 96 90 32 00
        E 24 90 33 50
        E 96 90 33 00
        E 24 90 35 50
        E 192 90 35 00
        E 48 90 35 50
        E 96 90 35 00
        E 24 90 33 50
        E 96 90 33 00
        E 24 90 32 50
        E 96 90 32 00
        E 24 90 34 50
        E 96 90 34 00
        E 24 90 36 50
        E 192 90 36 00
        E 48 90 37 50
        E 192 90 37 00
        E 48 90 2b 50
        E 96 90 2b 00
        E 24 90 2e 50
        E 96 90 2e 00
        E 24 90 30 50
        E 96 90 30 00
        E 24 90 2e 50
        E 96 90 2e 00
        E 24 90 2d 50
        E 96 90 2d 00
        E 24 90 30 50
        E 96 90 30 00
        E 24 90 32 50
        E 450 90 32 00
        E 30 90 2b 50
        E 598 90 2b 00
        E 122 b0 7b 00
        GUID {51C50F11-66A6-4A41-A0B3-7748738396B3}
        IGNTEMPO 0 120 4 4
        SRCCOLOR 241
        VELLANE -1 86 6
        CFGEDITVIEW 8580.611062 90.377764 45 16 0 0 0 0 0 0.5
        KEYSNAP 0
        TRACKSEL 252
        EVTFILTER 0 -1 -1 -1 -1 0 0 0 0 -1 -1 -1 -1 0 -1 0 -1 -1
        CFGEDIT 1 0 0 0 0 0 1 0 1 1 1 0.25 413 148 1280 633 0 0 2 3 0 0 0 0 0 -1 0 0 1 64
      >
      TAKE
      NAME "Fagot - National_Anthems_-_Slovakia2.mid"
      TAKEVOLPAN 0 1 -1
      SOFFS 0 0
      PLAYRATE 1 1 0 -1 0 0.0025
      CHANMODE 0
      GUID {8491E257-BB59-EA4E-9604-6730423872EE}
      <SOURCE MIDI
        HASDATA 1 240 QN
        POOLEDEVTS {990F02D7-59A2-6A47-81E6-3AD0A6F4017C}
        <X 0 0 0 0 3 Fagot
          /wNGYWdvdA==
        >
        E 0 90 37 50
        E 96 90 37 00
        E 24 90 32 50
        E 96 90 32 00
        E 24 90 2b 50
        E 192 90 2b 00
        E 48 90 37 50
        E 120 90 37 00
        E 0 90 35 50
        E 120 90 35 00
        E 0 90 33 50
        E 96 90 33 00
        E 24 90 32 50
        E 96 90 32 00
        E 24 90 30 50
        E 96 90 30 00
        E 24 90 2e 50
        E 96 90 2e 00
        E 24 90 2d 50
        E 96 90 2d 00
        E 24 90 2b 50
        E 96 90 2b 00
        E 24 90 32 50
        E 192 90 32 00
        E 48 90 32 50
        E 192 90 32 00
        E 48 90 2b 50
        E 96 90 2b 00
        E 24 90 29 50
        E 96 90 29 00
        E 24 90 2e 50
        E 192 90 2e 00
        E 48 90 3a 50
        E 120 90 3a 00
        E 0 90 39 50
        E 120 90 39 00
        E 0 90 37 50
        E 96 90 37 00
        E 24 90 35 50
        E 96 90 35 00
        E 24 90 33 50
        E 96 90 33 00
        E 24 90 32 50
        E 96 90 32 00
        E 24 90 30 50
        E 96 90 30 00
        E 24 90 2e 50
        E 96 90 2e 00
        E 24 90 35 50
        E 192 90 35 00
        E 48 90 35 50
        E 192 90 35 00
        E 48 90 2e 50
        E 96 90 2e 00
        E 24 90 30 50
        E 96 90 30 00
        E 24 90 32 50
        E 96 90 32 00
        E 24 90 33 50
        E 96 90 33 00
        E 24 90 35 50
        E 192 90 35 00
        E 48 90 35 50
        E 96 90 35 00
        E 24 90 33 50
        E 96 90 33 00
        E 24 90 32 50
        E 96 90 32 00
        E 24 90 34 50
        E 96 90 34 00
        E 24 90 36 50
        E 192 90 36 00
        E 48 90 37 50
        E 192 90 37 00
        E 48 90 2b 50
        E 96 90 2b 00
        E 24 90 2e 50
        E 96 90 2e 00
        E 24 90 30 50
        E 96 90 30 00
        E 24 90 2e 50
        E 96 90 2e 00
        E 24 90 2d 50
        E 96 90 2d 00
        E 24 90 2b 50
        E 96 90 2b 00
        E 24 90 32 50
        E 192 90 32 00
        E 48 90 2b 50
        E 192 90 2b 00
        E 48 90 2e 50
        E 96 90 2e 00
        E 24 90 30 50
        E 96 90 30 00
        E 24 90 32 50
        E 96 90 32 00
        E 24 90 33 50
        E 96 90 33 00
        E 24 90 35 50
        E 192 90 35 00
        E 48 90 35 50
        E 96 90 35 00
        E 24 90 33 50
        E 96 90 33 00
        E 24 90 32 50
        E 96 90 32 00
        E 24 90 34 50
        E 96 90 34 00
        E 24 90 36 50
        E 192 90 36 00
        E 48 90 37 50
        E 192 90 37 00
        E 48 90 2b 50
        E 96 90 2b 00
        E 24 90 2e 50
        E 96 90 2e 00
        E 24 90 30 50
        E 96 90 30 00
        E 24 90 2e 50
        E 96 90 2e 00
        E 24 90 2d 50
        E 96 90 2d 00
        E 24 90 2b 50
        E 96 90 2b 00
        E 24 90 32 50
        E 192 90 32 00
        E 48 90 2b 50
        E 192 90 2b 00
        E 48 90 37 50
        E 96 90 37 00
        E 24 90 32 50
        E 96 90 32 00
        E 24 90 2b 50
        E 192 90 2b 00
        E 48 90 37 50
        E 120 90 37 00
        E 0 90 35 50
        E 120 90 35 00
        E 0 90 33 50
        E 96 90 33 00
        E 24 90 32 50
        E 96 90 32 00
        E 24 90 30 50
        E 96 90 30 00
        E 24 90 2e 50
        E 96 90 2e 00
        E 24 90 2d 50
        E 96 90 2d 00
        E 24 90 2b 50
        E 96 90 2b 00
        E 24 90 32 50
        E 192 90 32 00
        E 48 90 32 50
        E 192 90 32 00
        E 48 90 2b 50
        E 96 90 2b 00
        E 24 90 29 50
        E 96 90 29 00
        E 24 90 2e 50
        E 192 90 2e 00
        E 48 90 3a 50
        E 120 90 3a 00
        E 0 90 39 50
        E 120 90 39 00
        E 0 90 37 50
        E 96 90 37 00
        E 24 90 35 50
        E 96 90 35 00
        E 24 90 33 50
        E 96 90 33 00
        E 24 90 32 50
        E 96 90 32 00
        E 24 90 30 50
        E 96 90 30 00
        E 24 90 2e 50
        E 96 90 2e 00
        E 24 90 35 50
        E 192 90 35 00
        E 48 90 35 50
        E 192 90 35 00
        E 48 90 2e 50
        E 96 90 2e 00
        E 24 90 30 50
        E 96 90 30 00
        E 24 90 32 50
        E 96 90 32 00
        E 24 90 33 50
        E 96 90 33 00
        E 24 90 35 50
        E 192 90 35 00
        E 48 90 35 50
        E 96 90 35 00
        E 24 90 33 50
        E 96 90 33 00
        E 24 90 32 50
        E 96 90 32 00
        E 24 90 34 50
        E 96 90 34 00
        E 24 90 36 50
        E 192 90 36 00
        E 48 90 37 50
        E 192 90 37 00
        E 48 90 2b 50
        E 96 90 2b 00
        E 24 90 2e 50
        E 96 90 2e 00
        E 24 90 30 50
        E 96 90 30 00
        E 24 90 2e 50
        E 96 90 2e 00
        E 24 90 2d 50
        E 96 90 2d 00
        E 24 90 2b 50
        E 96 90 2b 00
        E 24 90 32 50
        E 192 90 32 00
        E 48 90 2b 50
        E 192 90 2b 00
        E 48 90 2e 50
        E 96 90 2e 00
        E 24 90 30 50
        E 96 90 30 00
        E 24 90 32 50
        E 96 90 32 00
        E 24 90 33 50
        E 96 90 33 00
        E 24 90 35 50
        E 192 90 35 00
        E 48 90 35 50
        E 96 90 35 00
        E 24 90 33 50
        E 96 90 33 00
        E 24 90 32 50
        E 96 90 32 00
        E 24 90 34 50
        E 96 90 34 00
        E 24 90 36 50
        E 192 90 36 00
        E 48 90 37 50
        E 192 90 37 00
        E 48 90 2b 50
        E 96 90 2b 00
        E 24 90 2e 50
        E 96 90 2e 00
        E 24 90 30 50
        E 96 90 30 00
        E 24 90 2e 50
        E 96 90 2e 00
        E 24 90 2d 50
        E 96 90 2d 00
        E 24 90 30 50
        E 96 90 30 00
        E 24 90 32 50
        E 450 90 32 00
        E 30 90 2b 50
        E 598 90 2b 00
        E 122 b0 7b 00
        GUID {DB60DD1F-CA14-5B41-9DA8-208BCCDE894D}
        IGNTEMPO 0 120 4 4
        SRCCOLOR 251
        VELLANE -1 86 6
        CFGEDITVIEW 0 0 45 16 0 0 0 0 0 0.5
        KEYSNAP 0
        TRACKSEL 252
        EVTFILTER 0 -1 -1 -1 -1 0 0 0 0 -1 -1 -1 -1 0 -1 0 -1 -1
        CFGEDIT 1 0 0 0 0 0 1 0 1 1 1 0.25 413 148 1280 633 0 0 2 3 0 0 0 0 0 -1 0 0 1 64
      >
    >
  >
  <TRACK {3CF13A00-0AFC-8542-AD98-73B6D91102DB}
    NAME "vst Plogue"
    PEAKCOL 26779488
    BEAT -1
    AUTOMODE 0
    VOLPAN 1 0 -1 -1 1
    MUTESOLO 0 0 0
    IPHASE 0
    ISBUS 0 0
    BUSCOMP 0 0
    SHOWINMIX 1 0.6667 0.5 1 0.111111 0 0 0
    FREEMODE 0
    SEL 0
    REC 0 0 0 1 0 0 0
    VU 2
    TRACKHEIGHT 63 0
    INQ 0 0 0 0.5 100 0 0 100
    NCHAN 4
    FX 1
    TRACKID {3CF13A00-0AFC-8542-AD98-73B6D91102DB}
    PERF 0
    AUXRECV 6 0 1 0 0 0 0 0 0 -1:U 32 -1 ''
    AUXRECV 6 0 1 0 0 0 0 0 0 -1:U 96 -1 ''
    AUXRECV 7 0 1 0 0 0 0 0 0 -1:U 64 -1 ''
    AUXRECV 7 0 1 0 0 0 0 0 0 -1:U 128 -1 ''
    MIDIOUT -1
    MAINSEND 0 0
    <FXCHAIN
      SHOW 0
      LASTSEL 0
      DOCKED 0
      BYPASS 0 0 0
      <VST "VSTi: chipsounds (Multi) (Plogue Art et Technologie, Inc) (32 out)" "chipsounds Multi.vst" 0 "" 1347241807
        T0dNUO5e7f4AAAAAIAAAAAEAAAAAAAAAAgAAAAAAAAAEAAAAAAAAAAgAAAAAAAAAEAAAAAAAAAAgAAAAAAAAAEAAAAAAAAAAgAAAAAAAAAAAAQAAAAAAAAACAAAAAAAA
        AAQAAAAAAAAACAAAAAAAAAAQAAAAAAAAACAAAAAAAAAAQAAAAAAAAACAAAAAAAAAAAABAAAAAAAAAAIAAAAAAAAABAAAAAAAAAAIAAAAAAAAABAAAAAAAAAAIAAAAAAA
        AABAAAAAAAAAAIAAAAAAAAAAAAEAAAAAAAAAAgAAAAAAAAAEAAAAAAAAAAgAAAAAAAAAEAAAAAAAAAAgAAAAAAAAAEAAAAAAAAAAgAAAAADyBgAAAQAAAAAAEAA=
        Q0VHUMk6AAB4nO1bXW/bNhR9768Q/LQ9VOL3B5CkSJx4C7CsBZxijwVjs442WfYkOWv363cl2QmVmJaMeGjaSA+tTN97yXNF8RzyxkfvvsyT4M5mebxIjwc4RIPg3cmb
        o9MsNmNzZ52vNBaDYJktpqtJcXkODQjpwcmbAK6jsS2KOJ3lwd8rk8TFV/h2EORFZs0cmo8HlAyCufkyrlpOk2QxuTo7HnAMzVeX55fvV8XVYmorL7MqFnNTQJ/jZFEc
        D5DblNg7mxwP4hRir+Y2LQZBEt/Z2hks8wlE5dWNSQw04eBtYMtBhfkkWTcPwc9mxwMBdrNkcWOS61VaDRMaog0i6DyIp1VbauZleBwGH1aZDYa38TIaX55Hgisc/PT7
        9Xj48yC4Melfl9N1Wpy0KQIgJ7cmTcuRQ7TlIoH8sEFQPPS6vPmUmXQGvbyFFCwL+JBXX8yd28WkgCdyjxOXbati3fDPp8TkRRm3BlCBuDJxugFxZ5JVneFomwW+t0Ae
        C9JqQVstWKsFb7UQrRay1UK1WuhWC4zaTdqzitvTitvzitsTi72Z/WAyM9/9iB9MvB09mDjpDxW8jXBhjSRlSlCfj5vMkOnKCTEpFJXlsuPpyElviImuLk4oFkQxrxNz
        nWjdE6eCMay8PsL1UbUPoQpcuN/JmWQhgKmHp5QiDMaKfW7K7YtWPSGMNUGaaK+P3t9HowamenRSYFjTGPE+JuqmXEDKCSZcwgNTCj2CdG2ymS3Wi+dkMQ8/JIvZyoYl
        tYS/jd6Hq9xmyFmuKq/hKofF/twUJrgtvi7BlUsOIPL4X7hnyllaAYBNp7Gpb6fgAjeba1T/R9BhrybEqMa4L2j8SkBfZ/FsZrMxELBNJzZrh80ooxvYhDuwyTbYeI16
        fdWfZXVPh3KkGyCGiI52ADmKSsZ/TP74oOSPt5C/6sm/J/8XQf64QVdYCFm9NwxpRIWXRhwEoUacA+1ITpSiGnspzmVgIplAXCvNuMDA9/+bqOCdVARndWghlAYi9Tu5
        GGidqXa94p29z6P/fVjZFQAP6fETPrCJb/noue5gXCf0vlzHa66DlounXFdnRtKzRsMIGLC0VU9MofV8WwREmhFaOLT7rPiBZN924UAOKhzYRjjgB+HADikcUItw8PLK
        HsLBJz564fDY5NUJB0kYQ0qX+2lGBPdSlgMpxOsdtZAES8a8TO0StWTdDhZ4A5Fe742lYIpw5eVK6ZvqvmOO+iABM4pANjHpp3fXiXbcqbMOo2kca1RiQ2sqkGY7zk9w
        F5jueQRbqzWKoQuCvRNCurmh9YGE4kIzpbhX4jnizTsa6eYPrfOnMahOiqg/sjtxBK8mm8QwLil3yEJ35sATqmab5lRIRv3zxn0MnDD38e5Qb67wrvmuVbW6ks8LXPsV
        n2vU4SBQI9ElUocJpZHu8nJ1GTnGqKHd63yDUJYwEr8XQe4yR7wpBkNvZl6bNOoOut8l+GC7u4Ty0Hi/XULFxPUuARFydvYEyNO9w3m1S0Bo6y5h6z6DD5txzyBC2a3E
        buuobh02W1uSuV1c04OKa/KtS3Lt4tonnftTuUcZ+/HE9csoyfUVuL4C951Tb683vssKHDso19MtXM97ru+5/kVw/Q9dgfMfz/T1t77+9o2Zrq+/fbezYrtskPeygYRB
        DS74A+j78yKb59GvJpsG46/ppKtu4PcFOHHQQ4LnioX2qlu7WPAJjl4sPDF5sWIBr4sanBMtuJ8BXa2ANNOdjr4b5IaA3pRWFGmJpPBXidyaC1d1TUNxRiiRfh5tSIw1
        JqKYZIx4IeHGJl9ulk6tEPTl51V3v9714IJ0UDOkQwlCemfjnoWtxuMUrHGA0LEcxteHIrCZUpozf3WOdxhPs55IdSnMMCGK0h0FE+qiEKwux4DcgnlMvTXRTuLJrWTt
        +AOwQ9ayVBejDrUsjTvkGxPUYSaBlXex99WtQloXPJUmEmNB/a8sQd41/rUpke6ge1Hug904fiJ0T1Ve/w1Dff6EzuSoS71rc23qUrAXhuuUN6tVTuuZ5E/j7hdBbKnE
        7RkBPzcCl8+NwM6fF6GrqL/4/NlOCvcHeRsZXU+40/lNXE6vFjG/7uzol4+XmzhmUsR39rL+oSHefL64/+FhbhPo2U6vzU05Ad0VMLO5La5sugrifONeVAh2vwFBYb+A
        yTX8u8rsNPg1LnLYOZji9ngQnS6XSTypfumYR3UE2IPEy3yxSqfQUnWaRzviR+u9zmm2tLNZvMijRk+hgWVo+WgxfwKF7AVlbv6Uxe09ho+wvuVRDk8mnSUmncKYPk0y
        awobjc18mdg8uth8E4zi8nPdwfAB6KaPvHThxe3jcR9F8BBP3hxFm5+pnrz5D50vUoA=
        AAAQAAAA
      >
      FLOATPOS 275 269 871 509
      FXID {C804D762-B992-A540-81BF-3D6C0F7FF19B}
      WAK 0
    >
  >
  <TRACK {361291E9-E6AB-604E-AA43-746A4AF7FC9C}
    NAME "midi "
    PEAKCOL 16576
    BEAT -1
    AUTOMODE 0
    VOLPAN 1 0 -1 -1 1
    MUTESOLO 0 0 0
    IPHASE 0
    ISBUS 1 1
    BUSCOMP 1 0
    SHOWINMIX 1 0.6667 0.5 1 0.111111 0 0 0
    FREEMODE 0
    SEL 0
    REC 0 0 0 0 0 0 0
    VU 2
    TRACKHEIGHT 63 0
    INQ 0 0 0 0.5 100 0 0 100
    NCHAN 2
    FX 1
    TRACKID {361291E9-E6AB-604E-AA43-746A4AF7FC9C}
    PERF 0
    MIDIOUT -1
    MAINSEND 1 0
  >
  <TRACK {2BB5EACD-C1BC-284E-92F6-33B7023B768F}
    NAME "ch1,3 (send)"
    PEAKCOL 16576
    BEAT -1
    AUTOMODE 0
    VOLPAN 1 0 -1 -1 1
    MUTESOLO 0 0 0
    IPHASE 0
    ISBUS 0 0
    BUSCOMP 0 0
    SHOWINMIX 1 0.6667 0.5 1 0.111111 0 0 0
    FREEMODE 0
    SEL 0
    REC 0 0 0 0 0 0 0
    VU 2
    MIDICTL -1 1
    TRACKHEIGHT 63 0
    INQ 0 0 0 0.5 100 0 0 100
    NCHAN 2
    FX 1
    TRACKID {2BB5EACD-C1BC-284E-92F6-33B7023B768F}
    PERF 0
    MIDIOUT -1
    MAINSEND 1 0
    <FXCHAIN
      SHOW 0
      LASTSEL 0
      DOCKED 0
    >
    <ITEM
      POSITION 0
      SNAPOFFS 0
      LENGTH 41.5
      LOOP 1
      ALLTAKES 0
      FADEIN 1 0 0 1 0 0
      FADEOUT 1 0 0 1 0 0
      MUTE 0
      SEL 0
      YPOS 0 0.05
      IGUID {AF828511-6A4C-7B4B-8907-FDD63E7F6669}
      IID 1
      NAME "Pikola - National_Anthems_-_Slovakia2.mid"
      VOLPAN 1 0 1 -1
      SOFFS 0 0
      PLAYRATE 1 1 0 -1 0 0.0025
      CHANMODE 0
      TAKECOLOR 26173599 B
      GUID {29435BB9-39B0-BC46-A786-619A016ECE6D}
      <SOURCE MIDI
        HASDATA 1 240 QN
        POOLEDEVTS {8E794C44-8ED2-1343-B142-0D017DC0C358}
        <X 0 0 0 0 3 untitled
          /wN1bnRpdGxlZA==
        >
        <X 0 0 0 0 3 Pikola
          /wNQaWtvbGE=
        >
        E 0 90 4f 50
        E 96 90 4f 00
        E 24 90 51 50
        E 96 90 51 00
        E 24 90 52 50
        E 192 90 52 00
        E 48 90 52 50
        E 192 90 52 00
        E 48 90 52 50
        E 96 90 52 00
        E 24 90 52 50
        E 96 90 52 00
        E 24 90 51 50
        E 96 90 51 00
        E 24 90 52 50
        E 96 90 52 00
        E 24 90 54 50
        E 96 90 54 00
        E 24 90 52 50
        E 96 90 52 00
        E 24 90 51 50
        E 192 90 51 00
        E 48 90 4f 50
        E 192 90 4f 00
        E 48 90 52 50
        E 96 90 52 00
        E 24 90 54 50
        E 96 90 54 00
        E 24 90 56 50
        E 192 90 56 00
        E 48 90 56 50
        E 192 90 56 00
        E 48 90 56 50
        E 96 90 56 00
        E 24 90 56 50
        E 96 90 56 00
        E 24 90 54 50
        E 96 90 54 00
        E 24 90 56 50
        E 96 90 56 00
        E 24 90 57 50
        E 96 90 57 00
        E 24 90 56 50
        E 96 90 56 00
        E 24 90 54 50
        E 192 90 54 00
        E 48 90 52 50
        E 192 90 52 00
        E 48 90 56 50
        E 96 90 56 00
        E 24 90 56 50
        E 96 90 56 00
        E 24 90 56 50
        E 192 90 56 00
        E 48 90 54 50
        E 192 90 54 00
        E 48 90 54 50
        E 96 90 54 00
        E 24 90 54 50
        E 96 90 54 00
        E 24 90 54 50
        E 96 90 54 00
        E 24 90 56 50
        E 96 90 56 00
        E 24 90 54 50
        E 192 90 54 00
        E 48 90 52 50
        E 192 90 52 00
        E 48 90 52 50
        E 96 90 52 00
        E 24 90 52 50
        E 96 90 52 00
        E 24 90 51 50
        E 96 90 51 00
        E 24 90 52 50
        E 96 90 52 00
        E 24 90 54 50
        E 96 90 54 00
        E 24 90 52 50
        E 96 90 52 00
        E 24 90 51 50
        E 192 90 51 00
        E 48 90 4f 50
        E 192 90 4f 00
        E 48 90 56 50
        E 96 90 56 00
        E 24 90 56 50
        E 96 90 56 00
        E 24 90 56 50
        E 192 90 56 00
        E 48 90 54 50
        E 192 90 54 00
        E 48 90 54 50
        E 96 90 54 00
        E 24 90 54 50
        E 96 90 54 00
        E 24 90 54 50
        E 96 90 54 00
        E 24 90 56 50
        E 96 90 56 00
        E 24 90 54 50
        E 192 90 54 00
        E 48 90 52 50
        E 192 90 52 00
        E 48 90 52 50
        E 96 90 52 00
        E 24 90 52 50
        E 96 90 52 00
        E 24 90 51 50
        E 96 90 51 00
        E 24 90 52 50
        E 96 90 52 00
        E 24 90 54 50
        E 96 90 54 00
        E 24 90 52 50
        E 96 90 52 00
        E 24 90 51 50
        E 192 90 51 00
        E 48 90 4f 50
        E 192 90 4f 00
        E 48 90 4f 50
        E 96 90 4f 00
        E 24 90 51 50
        E 96 90 51 00
        E 24 90 52 50
        E 192 90 52 00
        E 48 90 52 50
        E 192 90 52 00
        E 48 90 52 50
        E 96 90 52 00
        E 24 90 52 50
        E 96 90 52 00
        E 24 90 51 50
        E 96 90 51 00
        E 24 90 52 50
        E 96 90 52 00
        E 24 90 54 50
        E 96 90 54 00
        E 24 90 52 50
        E 96 90 52 00
        E 24 90 51 50
        E 192 90 51 00
        E 48 90 4f 50
        E 192 90 4f 00
        E 48 90 52 50
        E 96 90 52 00
        E 24 90 54 50
        E 96 90 54 00
        E 24 90 56 50
        E 192 90 56 00
        E 48 90 56 50
        E 192 90 56 00
        E 48 90 56 50
        E 96 90 56 00
        E 24 90 56 50
        E 96 90 56 00
        E 24 90 54 50
        E 96 90 54 00
        E 24 90 56 50
        E 96 90 56 00
        E 24 90 57 50
        E 96 90 57 00
        E 24 90 56 50
        E 96 90 56 00
        E 24 90 54 50
        E 192 90 54 00
        E 48 90 52 50
        E 192 90 52 00
        E 48 90 56 50
        E 96 90 56 00
        E 24 90 56 50
        E 96 90 56 00
        E 24 90 56 50
        E 192 90 56 00
        E 48 90 54 50
        E 192 90 54 00
        E 48 90 54 50
        E 96 90 54 00
        E 24 90 54 50
        E 96 90 54 00
        E 24 90 54 50
        E 96 90 54 00
        E 24 90 56 50
        E 96 90 56 00
        E 24 90 54 50
        E 192 90 54 00
        E 48 90 52 50
        E 192 90 52 00
        E 48 90 52 50
        E 96 90 52 00
        E 24 90 52 50
        E 96 90 52 00
        E 24 90 51 50
        E 96 90 51 00
        E 24 90 52 50
        E 96 90 52 00
        E 24 90 54 50
        E 96 90 54 00
        E 24 90 52 50
        E 96 90 52 00
        E 24 90 51 50
        E 192 90 51 00
        E 48 90 4f 50
        E 192 90 4f 00
        E 48 90 56 50
        E 96 90 56 00
        E 24 90 56 50
        E 96 90 56 00
        E 24 90 56 50
        E 192 90 56 00
        E 48 90 54 50
        E 192 90 54 00
        E 48 90 54 50
        E 96 90 54 00
        E 24 90 54 50
        E 96 90 54 00
        E 24 90 54 50
        E 96 90 54 00
        E 24 90 56 50
        E 96 90 56 00
        E 24 90 54 50
        E 192 90 54 00
        E 48 90 52 50
        E 192 90 52 00
        E 48 90 52 50
        E 96 90 52 00
        E 24 90 52 50
        E 96 90 52 00
        E 24 90 51 50
        E 96 90 51 00
        E 24 90 52 50
        E 96 90 52 00
        E 24 90 54 50
        E 96 90 54 00
        E 24 90 52 50
        E 96 90 52 00
        E 24 90 51 50
        E 384 90 51 00
        E 96 90 4f 50
        E 598 90 4f 00
        E 122 b0 7b 00
        GUID {0A4326AB-A4D2-CE4E-B74E-5C445622C7FC}
        IGNTEMPO 0 120 4 4
        SRCCOLOR 235
        VELLANE -1 86 6
        CFGEDITVIEW 7924.677826 316.288498 39 19 0 0 0 0 0 0.5
        KEYSNAP 0
        TRACKSEL 252
        EVTFILTER 0 -1 -1 -1 -1 0 0 0 0 -1 -1 -1 -1 0 -1 0 -1 -1
        CFGEDIT 1 0 0 0 0 0 1 0 1 1 1 0.25 429 164 1280 633 0 0 2 3 0 0 0 0 0 -1 0 0 1 64
      >
      TAKE
      NAME "Pikola - National_Anthems_-_Slovakia2.mid"
      TAKEVOLPAN 0 1 -1
      SOFFS 0 0
      PLAYRATE 1 1 0 -1 0 0.0025
      CHANMODE 0
      GUID {74B33A3E-FBC2-4E4F-833E-E567EB60B8AA}
      <SOURCE MIDI
        HASDATA 1 240 QN
        POOLEDEVTS {0D90F102-B103-044B-8EB7-243032BD2D80}
        <X 0 0 0 0 3 untitled
          /wN1bnRpdGxlZA==
        >
        <X 0 0 0 0 3 Pikola
          /wNQaWtvbGE=
        >
        E 0 90 4f 50
        E 96 90 4f 00
        E 24 90 51 50
        E 96 90 51 00
        E 24 90 52 50
        E 192 90 52 00
        E 48 90 52 50
        E 192 90 52 00
        E 48 90 52 50
        E 96 90 52 00
        E 24 90 52 50
        E 96 90 52 00
        E 24 90 51 50
        E 96 90 51 00
        E 24 90 52 50
        E 96 90 52 00
        E 24 90 54 50
        E 96 90 54 00
        E 24 90 52 50
        E 96 90 52 00
        E 24 90 51 50
        E 192 90 51 00
        E 48 90 4f 50
        E 192 90 4f 00
        E 48 90 52 50
        E 96 90 52 00
        E 24 90 54 50
        E 96 90 54 00
        E 24 90 56 50
        E 192 90 56 00
        E 48 90 56 50
        E 192 90 56 00
        E 48 90 56 50
        E 96 90 56 00
        E 24 90 56 50
        E 96 90 56 00
        E 24 90 54 50
        E 96 90 54 00
        E 24 90 56 50
        E 96 90 56 00
        E 24 90 57 50
        E 96 90 57 00
        E 24 90 56 50
        E 96 90 56 00
        E 24 90 54 50
        E 192 90 54 00
        E 48 90 52 50
        E 192 90 52 00
        E 48 90 56 50
        E 96 90 56 00
        E 24 90 56 50
        E 96 90 56 00
        E 24 90 56 50
        E 192 90 56 00
        E 48 90 54 50
        E 192 90 54 00
        E 48 90 54 50
        E 96 90 54 00
        E 24 90 54 50
        E 96 90 54 00
        E 24 90 54 50
        E 96 90 54 00
        E 24 90 56 50
        E 96 90 56 00
        E 24 90 54 50
        E 192 90 54 00
        E 48 90 52 50
        E 192 90 52 00
        E 48 90 52 50
        E 96 90 52 00
        E 24 90 52 50
        E 96 90 52 00
        E 24 90 51 50
        E 96 90 51 00
        E 24 90 52 50
        E 96 90 52 00
        E 24 90 54 50
        E 96 90 54 00
        E 24 90 52 50
        E 96 90 52 00
        E 24 90 51 50
        E 192 90 51 00
        E 48 90 4f 50
        E 192 90 4f 00
        E 48 90 56 50
        E 96 90 56 00
        E 24 90 56 50
        E 96 90 56 00
        E 24 90 56 50
        E 192 90 56 00
        E 48 90 54 50
        E 192 90 54 00
        E 48 90 54 50
        E 96 90 54 00
        E 24 90 54 50
        E 96 90 54 00
        E 24 90 54 50
        E 96 90 54 00
        E 24 90 56 50
        E 96 90 56 00
        E 24 90 54 50
        E 192 90 54 00
        E 48 90 52 50
        E 192 90 52 00
        E 48 90 52 50
        E 96 90 52 00
        E 24 90 52 50
        E 96 90 52 00
        E 24 90 51 50
        E 96 90 51 00
        E 24 90 52 50
        E 96 90 52 00
        E 24 90 54 50
        E 96 90 54 00
        E 24 90 52 50
        E 96 90 52 00
        E 24 90 51 50
        E 192 90 51 00
        E 48 90 4f 50
        E 192 90 4f 00
        E 48 90 4f 50
        E 96 90 4f 00
        E 24 90 51 50
        E 96 90 51 00
        E 24 90 52 50
        E 192 90 52 00
        E 48 90 52 50
        E 192 90 52 00
        E 48 90 52 50
        E 96 90 52 00
        E 24 90 52 50
        E 96 90 52 00
        E 24 90 51 50
        E 96 90 51 00
        E 24 90 52 50
        E 96 90 52 00
        E 24 90 54 50
        E 96 90 54 00
        E 24 90 52 50
        E 96 90 52 00
        E 24 90 51 50
        E 192 90 51 00
        E 48 90 4f 50
        E 192 90 4f 00
        E 48 90 52 50
        E 96 90 52 00
        E 24 90 54 50
        E 96 90 54 00
        E 24 90 56 50
        E 192 90 56 00
        E 48 90 56 50
        E 192 90 56 00
        E 48 90 56 50
        E 96 90 56 00
        E 24 90 56 50
        E 96 90 56 00
        E 24 90 54 50
        E 96 90 54 00
        E 24 90 56 50
        E 96 90 56 00
        E 24 90 57 50
        E 96 90 57 00
        E 24 90 56 50
        E 96 90 56 00
        E 24 90 54 50
        E 192 90 54 00
        E 48 90 52 50
        E 192 90 52 00
        E 48 90 56 50
        E 96 90 56 00
        E 24 90 56 50
        E 96 90 56 00
        E 24 90 56 50
        E 192 90 56 00
        E 48 90 54 50
        E 192 90 54 00
        E 48 90 54 50
        E 96 90 54 00
        E 24 90 54 50
        E 96 90 54 00
        E 24 90 54 50
        E 96 90 54 00
        E 24 90 56 50
        E 96 90 56 00
        E 24 90 54 50
        E 192 90 54 00
        E 48 90 52 50
        E 192 90 52 00
        E 48 90 52 50
        E 96 90 52 00
        E 24 90 52 50
        E 96 90 52 00
        E 24 90 51 50
        E 96 90 51 00
        E 24 90 52 50
        E 96 90 52 00
        E 24 90 54 50
        E 96 90 54 00
        E 24 90 52 50
        E 96 90 52 00
        E 24 90 51 50
        E 192 90 51 00
        E 48 90 4f 50
        E 192 90 4f 00
        E 48 90 56 50
        E 96 90 56 00
        E 24 90 56 50
        E 96 90 56 00
        E 24 90 56 50
        E 192 90 56 00
        E 48 90 54 50
        E 192 90 54 00
        E 48 90 54 50
        E 96 90 54 00
        E 24 90 54 50
        E 96 90 54 00
        E 24 90 54 50
        E 96 90 54 00
        E 24 90 56 50
        E 96 90 56 00
        E 24 90 54 50
        E 192 90 54 00
        E 48 90 52 50
        E 192 90 52 00
        E 48 90 52 50
        E 96 90 52 00
        E 24 90 52 50
        E 96 90 52 00
        E 24 90 51 50
        E 96 90 51 00
        E 24 90 52 50
        E 96 90 52 00
        E 24 90 54 50
        E 96 90 54 00
        E 24 90 52 50
        E 96 90 52 00
        E 24 90 51 50
        E 384 90 51 00
        E 96 90 4f 50
        E 598 90 4f 00
        E 122 b0 7b 00
        GUID {71574CC0-B50A-8741-94E7-2E3AA96149F7}
        IGNTEMPO 0 120 4 4
        SRCCOLOR 250
        VELLANE -1 86 6
      >
    >
    <ITEM
      POSITION 0
      SNAPOFFS 0
      LENGTH 41.5
      LOOP 1
      ALLTAKES 0
      FADEIN 1 0 0 1 0 0
      FADEOUT 1 0 0 1 0 0
      MUTE 0
      SEL 0
      YPOS 0.276978 0.05
      IGUID {AC96D7E8-9CD4-DF44-845E-B8CFEE64A068}
      IID 2
      NAME "Flauta1 - National_Anthems_-_Slovakia2.mid"
      VOLPAN 1 0 1 -1
      SOFFS 0 0
      PLAYRATE 1 1 0 -1 0 0.0025
      CHANMODE 0
      TAKECOLOR 26173599 B
      GUID {73ED8C39-F947-D04D-939E-7D4FC5674CB8}
      <SOURCE MIDI
        HASDATA 1 240 QN
        POOLEDEVTS {098B3185-DBE8-D344-BF44-CB707C86E01F}
        <X 0 0 0 0 3 Flauta1
          /wNGbGF1dGEx
        >
        E 0 90 4f 50
        E 96 90 4f 00
        E 24 90 51 50
        E 96 90 51 00
        E 24 90 52 50
        E 192 90 52 00
        E 48 90 52 50
        E 192 90 52 00
        E 48 90 52 50
        E 96 90 52 00
        E 24 90 52 50
        E 96 90 52 00
        E 24 90 51 50
        E 96 90 51 00
        E 24 90 52 50
        E 96 90 52 00
        E 24 90 54 50
        E 96 90 54 00
        E 24 90 52 50
        E 96 90 52 00
        E 24 90 51 50
        E 192 90 51 00
        E 48 90 4f 50
        E 192 90 4f 00
        E 48 90 52 50
        E 96 90 52 00
        E 24 90 54 50
        E 96 90 54 00
        E 24 90 56 50
        E 192 90 56 00
        E 48 90 56 50
        E 192 90 56 00
        E 48 90 56 50
        E 96 90 56 00
        E 24 90 56 50
        E 96 90 56 00
        E 24 90 54 50
        E 96 90 54 00
        E 24 90 56 50
        E 96 90 56 00
        E 24 90 57 50
        E 96 90 57 00
        E 24 90 56 50
        E 96 90 56 00
        E 24 90 54 50
        E 192 90 54 00
        E 48 90 52 50
        E 192 90 52 00
        E 48 90 56 50
        E 96 90 56 00
        E 24 90 56 50
        E 96 90 56 00
        E 24 90 56 50
        E 192 90 56 00
        E 48 90 54 50
        E 192 90 54 00
        E 48 90 54 50
        E 96 90 54 00
        E 24 90 54 50
        E 96 90 54 00
        E 24 90 54 50
        E 96 90 54 00
        E 24 90 56 50
        E 96 90 56 00
        E 24 90 54 50
        E 192 90 54 00
        E 48 90 52 50
        E 192 90 52 00
        E 48 90 52 50
        E 96 90 52 00
        E 24 90 52 50
        E 96 90 52 00
        E 24 90 51 50
        E 96 90 51 00
        E 24 90 52 50
        E 96 90 52 00
        E 24 90 54 50
        E 96 90 54 00
        E 24 90 52 50
        E 96 90 52 00
        E 24 90 51 50
        E 192 90 51 00
        E 48 90 4f 50
        E 192 90 4f 00
        E 48 90 56 50
        E 96 90 56 00
        E 24 90 56 50
        E 96 90 56 00
        E 24 90 56 50
        E 192 90 56 00
        E 48 90 54 50
        E 192 90 54 00
        E 48 90 54 50
        E 96 90 54 00
        E 24 90 54 50
        E 96 90 54 00
        E 24 90 54 50
        E 96 90 54 00
        E 24 90 56 50
        E 96 90 56 00
        E 24 90 54 50
        E 192 90 54 00
        E 48 90 52 50
        E 192 90 52 00
        E 48 90 52 50
        E 96 90 52 00
        E 24 90 52 50
        E 96 90 52 00
        E 24 90 51 50
        E 96 90 51 00
        E 24 90 52 50
        E 96 90 52 00
        E 24 90 54 50
        E 96 90 54 00
        E 24 90 52 50
        E 96 90 52 00
        E 24 90 51 50
        E 192 90 51 00
        E 48 90 4f 50
        E 192 90 4f 00
        E 48 90 4f 50
        E 96 90 4f 00
        E 24 90 51 50
        E 96 90 51 00
        E 24 90 52 50
        E 192 90 52 00
        E 48 90 52 50
        E 192 90 52 00
        E 48 90 52 50
        E 96 90 52 00
        E 24 90 52 50
        E 96 90 52 00
        E 24 90 51 50
        E 96 90 51 00
        E 24 90 52 50
        E 96 90 52 00
        E 24 90 54 50
        E 96 90 54 00
        E 24 90 52 50
        E 96 90 52 00
        E 24 90 51 50
        E 192 90 51 00
        E 48 90 4f 50
        E 192 90 4f 00
        E 48 90 52 50
        E 96 90 52 00
        E 24 90 54 50
        E 96 90 54 00
        E 24 90 56 50
        E 192 90 56 00
        E 48 90 56 50
        E 192 90 56 00
        E 48 90 56 50
        E 96 90 56 00
        E 24 90 56 50
        E 96 90 56 00
        E 24 90 54 50
        E 96 90 54 00
        E 24 90 56 50
        E 96 90 56 00
        E 24 90 57 50
        E 96 90 57 00
        E 24 90 56 50
        E 96 90 56 00
        E 24 90 54 50
        E 192 90 54 00
        E 48 90 52 50
        E 192 90 52 00
        E 48 90 56 50
        E 96 90 56 00
        E 24 90 56 50
        E 96 90 56 00
        E 24 90 56 50
        E 192 90 56 00
        E 48 90 54 50
        E 192 90 54 00
        E 48 90 54 50
        E 96 90 54 00
        E 24 90 54 50
        E 96 90 54 00
        E 24 90 54 50
        E 96 90 54 00
        E 24 90 56 50
        E 96 90 56 00
        E 24 90 54 50
        E 192 90 54 00
        E 48 90 52 50
        E 192 90 52 00
        E 48 90 52 50
        E 96 90 52 00
        E 24 90 52 50
        E 96 90 52 00
        E 24 90 51 50
        E 96 90 51 00
        E 24 90 52 50
        E 96 90 52 00
        E 24 90 54 50
        E 96 90 54 00
        E 24 90 52 50
        E 96 90 52 00
        E 24 90 51 50
        E 192 90 51 00
        E 48 90 4f 50
        E 192 90 4f 00
        E 48 90 56 50
        E 96 90 56 00
        E 24 90 56 50
        E 96 90 56 00
        E 24 90 56 50
        E 192 90 56 00
        E 48 90 54 50
        E 192 90 54 00
        E 48 90 54 50
        E 96 90 54 00
        E 24 90 54 50
        E 96 90 54 00
        E 24 90 54 50
        E 96 90 54 00
        E 24 90 56 50
        E 96 90 56 00
        E 24 90 54 50
        E 192 90 54 00
        E 48 90 52 50
        E 192 90 52 00
        E 48 90 52 50
        E 96 90 52 00
        E 24 90 52 50
        E 96 90 52 00
        E 24 90 51 50
        E 96 90 51 00
        E 24 90 52 50
        E 96 90 52 00
        E 24 90 54 50
        E 96 90 54 00
        E 24 90 52 50
        E 96 90 52 00
        E 24 90 51 50
        E 384 90 51 00
        E 96 90 4f 50
        E 598 90 4f 00
        E 122 b0 7b 00
        GUID {5AF9F130-E090-D048-A069-95FF1D34EB60}
        IGNTEMPO 0 120 4 4
        SRCCOLOR 236
        VELLANE -1 86 6
        CFGEDITVIEW 8580.611062 90.377764 45 16 0 0 0 0 0 0.5
        KEYSNAP 0
        TRACKSEL 252
        EVTFILTER 0 -1 -1 -1 -1 0 0 0 0 -1 -1 -1 -1 0 -1 0 -1 -1
        CFGEDIT 1 0 0 0 0 0 1 0 1 1 1 0.25 413 148 1280 633 0 0 2 3 0 0 0 0 0 -1 0 0 1 64
      >
      TAKE
      NAME "Flauta1 - National_Anthems_-_Slovakia2.mid"
      TAKEVOLPAN 0 1 -1
      SOFFS 0 0
      PLAYRATE 1 1 0 -1 0 0.0025
      CHANMODE 0
      GUID {712C7CA8-AA23-0C4D-A004-BDA009AB180F}
      <SOURCE MIDI
        HASDATA 1 240 QN
        POOLEDEVTS {0EC0C2F6-0C57-AD43-B0D7-AA0B7E650455}
        <X 0 0 0 0 3 Flauta1
          /wNGbGF1dGEx
        >
        E 0 90 4f 50
        E 96 90 4f 00
        E 24 90 51 50
        E 96 90 51 00
        E 24 90 52 50
        E 192 90 52 00
        E 48 90 52 50
        E 192 90 52 00
        E 48 90 52 50
        E 96 90 52 00
        E 24 90 52 50
        E 96 90 52 00
        E 24 90 51 50
        E 96 90 51 00
        E 24 90 52 50
        E 96 90 52 00
        E 24 90 54 50
        E 96 90 54 00
        E 24 90 52 50
        E 96 90 52 00
        E 24 90 51 50
        E 192 90 51 00
        E 48 90 4f 50
        E 192 90 4f 00
        E 48 90 52 50
        E 96 90 52 00
        E 24 90 54 50
        E 96 90 54 00
        E 24 90 56 50
        E 192 90 56 00
        E 48 90 56 50
        E 192 90 56 00
        E 48 90 56 50
        E 96 90 56 00
        E 24 90 56 50
        E 96 90 56 00
        E 24 90 54 50
        E 96 90 54 00
        E 24 90 56 50
        E 96 90 56 00
        E 24 90 57 50
        E 96 90 57 00
        E 24 90 56 50
        E 96 90 56 00
        E 24 90 54 50
        E 192 90 54 00
        E 48 90 52 50
        E 192 90 52 00
        E 48 90 56 50
        E 96 90 56 00
        E 24 90 56 50
        E 96 90 56 00
        E 24 90 56 50
        E 192 90 56 00
        E 48 90 54 50
        E 192 90 54 00
        E 48 90 54 50
        E 96 90 54 00
        E 24 90 54 50
        E 96 90 54 00
        E 24 90 54 50
        E 96 90 54 00
        E 24 90 56 50
        E 96 90 56 00
        E 24 90 54 50
        E 192 90 54 00
        E 48 90 52 50
        E 192 90 52 00
        E 48 90 52 50
        E 96 90 52 00
        E 24 90 52 50
        E 96 90 52 00
        E 24 90 51 50
        E 96 90 51 00
        E 24 90 52 50
        E 96 90 52 00
        E 24 90 54 50
        E 96 90 54 00
        E 24 90 52 50
        E 96 90 52 00
        E 24 90 51 50
        E 192 90 51 00
        E 48 90 4f 50
        E 192 90 4f 00
        E 48 90 56 50
        E 96 90 56 00
        E 24 90 56 50
        E 96 90 56 00
        E 24 90 56 50
        E 192 90 56 00
        E 48 90 54 50
        E 192 90 54 00
        E 48 90 54 50
        E 96 90 54 00
        E 24 90 54 50
        E 96 90 54 00
        E 24 90 54 50
        E 96 90 54 00
        E 24 90 56 50
        E 96 90 56 00
        E 24 90 54 50
        E 192 90 54 00
        E 48 90 52 50
        E 192 90 52 00
        E 48 90 52 50
        E 96 90 52 00
        E 24 90 52 50
        E 96 90 52 00
        E 24 90 51 50
        E 96 90 51 00
        E 24 90 52 50
        E 96 90 52 00
        E 24 90 54 50
        E 96 90 54 00
        E 24 90 52 50
        E 96 90 52 00
        E 24 90 51 50
        E 192 90 51 00
        E 48 90 4f 50
        E 192 90 4f 00
        E 48 90 4f 50
        E 96 90 4f 00
        E 24 90 51 50
        E 96 90 51 00
        E 24 90 52 50
        E 192 90 52 00
        E 48 90 52 50
        E 192 90 52 00
        E 48 90 52 50
        E 96 90 52 00
        E 24 90 52 50
        E 96 90 52 00
        E 24 90 51 50
        E 96 90 51 00
        E 24 90 52 50
        E 96 90 52 00
        E 24 90 54 50
        E 96 90 54 00
        E 24 90 52 50
        E 96 90 52 00
        E 24 90 51 50
        E 192 90 51 00
        E 48 90 4f 50
        E 192 90 4f 00
        E 48 90 52 50
        E 96 90 52 00
        E 24 90 54 50
        E 96 90 54 00
        E 24 90 56 50
        E 192 90 56 00
        E 48 90 56 50
        E 192 90 56 00
        E 48 90 56 50
        E 96 90 56 00
        E 24 90 56 50
        E 96 90 56 00
        E 24 90 54 50
        E 96 90 54 00
        E 24 90 56 50
        E 96 90 56 00
        E 24 90 57 50
        E 96 90 57 00
        E 24 90 56 50
        E 96 90 56 00
        E 24 90 54 50
        E 192 90 54 00
        E 48 90 52 50
        E 192 90 52 00
        E 48 90 56 50
        E 96 90 56 00
        E 24 90 56 50
        E 96 90 56 00
        E 24 90 56 50
        E 192 90 56 00
        E 48 90 54 50
        E 192 90 54 00
        E 48 90 54 50
        E 96 90 54 00
        E 24 90 54 50
        E 96 90 54 00
        E 24 90 54 50
        E 96 90 54 00
        E 24 90 56 50
        E 96 90 56 00
        E 24 90 54 50
        E 192 90 54 00
        E 48 90 52 50
        E 192 90 52 00
        E 48 90 52 50
        E 96 90 52 00
        E 24 90 52 50
        E 96 90 52 00
        E 24 90 51 50
        E 96 90 51 00
        E 24 90 52 50
        E 96 90 52 00
        E 24 90 54 50
        E 96 90 54 00
        E 24 90 52 50
        E 96 90 52 00
        E 24 90 51 50
        E 192 90 51 00
        E 48 90 4f 50
        E 192 90 4f 00
        E 48 90 56 50
        E 96 90 56 00
        E 24 90 56 50
        E 96 90 56 00
        E 24 90 56 50
        E 192 90 56 00
        E 48 90 54 50
        E 192 90 54 00
        E 48 90 54 50
        E 96 90 54 00
        E 24 90 54 50
        E 96 90 54 00
        E 24 90 54 50
        E 96 90 54 00
        E 24 90 56 50
        E 96 90 56 00
        E 24 90 54 50
        E 192 90 54 00
        E 48 90 52 50
        E 192 90 52 00
        E 48 90 52 50
        E 96 90 52 00
        E 24 90 52 50
        E 96 90 52 00
        E 24 90 51 50
        E 96 90 51 00
        E 24 90 52 50
        E 96 90 52 00
        E 24 90 54 50
        E 96 90 54 00
        E 24 90 52 50
        E 96 90 52 00
        E 24 90 51 50
        E 384 90 51 00
        E 96 90 4f 50
        E 598 90 4f 00
        E 122 b0 7b 00
        GUID {C67F6FDC-720D-5A45-A503-3072473659E3}
        IGNTEMPO 0 120 4 4
        SRCCOLOR 252
        VELLANE -1 86 6
        CFGEDITVIEW 0 0 45 16 0 0 0 0 0 0.5
        KEYSNAP 0
        TRACKSEL 252
        EVTFILTER 0 -1 -1 -1 -1 0 0 0 0 -1 -1 -1 -1 0 -1 0 -1 -1
        CFGEDIT 1 0 0 0 0 0 1 0 1 1 1 0.25 413 148 1280 633 0 0 2 3 0 0 0 0 0 -1 0 0 1 64
      >
    >
    <ITEM
      POSITION 0
      SNAPOFFS 0
      LENGTH 41.5
      LOOP 1
      ALLTAKES 0
      FADEIN 1 0 0 1 0 0
      FADEOUT 1 0 0 1 0 0
      MUTE 0
      SEL 0
      YPOS 0.95 0.05
      IGUID {C78E78D0-C612-804F-83DE-0442F3EAAC95}
      IID 4
      NAME "Hoboj1 - National_Anthems_-_Slovakia2.mid"
      VOLPAN 1 0 1 -1
      SOFFS 0 0
      PLAYRATE 1 1 0 -1 0 0.0025
      CHANMODE 0
      TAKECOLOR 26173599 B
      GUID {FEA35F86-F47B-204C-A9B9-B329A68917A5}
      <SOURCE MIDI
        HASDATA 1 240 QN
        POOLEDEVTS {037F97F8-23BD-3E4C-8537-554A22F8702D}
        <X 0 0 0 0 3 Hoboj1
          /wNIb2JvajE=
        >
        E 0 90 4f 50
        E 96 90 4f 00
        E 24 90 4e 50
        E 96 90 4e 00
        E 24 90 4f 50
        E 192 90 4f 00
        E 48 90 4f 50
        E 192 90 4f 00
        E 48 90 4f 50
        E 96 90 4f 00
        E 24 90 4f 50
        E 96 90 4f 00
        E 24 90 4f 50
        E 96 90 4f 00
        E 24 90 4f 50
        E 96 90 4f 00
        E 24 90 4e 50
        E 96 90 4e 00
        E 24 90 4f 50
        E 96 90 4f 00
        E 24 90 4e 50
        E 192 90 4e 00
        E 48 90 4f 50
        E 192 90 4f 00
        E 48 90 4b 50
        E 96 90 4b 00
        E 24 90 4d 50
        E 96 90 4d 00
        E 24 90 4d 50
        E 192 90 4d 00
        E 48 90 4d 50
        E 192 90 4d 00
        E 48 90 4d 50
        E 96 90 4d 00
        E 24 90 4f 50
        E 96 90 4f 00
        E 24 90 4f 50
        E 96 90 4f 00
        E 24 90 4d 50
        E 96 90 4d 00
        E 24 90 4d 50
        E 96 90 4d 00
        E 24 90 4d 50
        E 96 90 4d 00
        E 24 90 4d 50
        E 192 90 4d 00
        E 48 90 4d 50
        E 192 90 4d 00
        E 48 90 4d 50
        E 96 90 4d 00
        E 24 90 4d 50
        E 96 90 4d 00
        E 24 90 4d 50
        E 192 90 4d 00
        E 48 90 4d 50
        E 192 90 4d 00
        E 48 90 51 50
        E 96 90 51 00
        E 24 90 4f 50
        E 96 90 4f 00
        E 24 90 4e 50
        E 96 90 4e 00
        E 24 90 4e 50
        E 96 90 4e 00
        E 24 90 4a 50
        E 192 90 4a 00
        E 48 90 4a 50
        E 192 90 4a 00
        E 48 90 4a 50
        E 96 90 4a 00
        E 24 90 4a 50
        E 96 90 4a 00
        E 24 90 4b 50
        E 96 90 4b 00
        E 24 90 4a 50
        E 96 90 4a 00
        E 24 90 4a 50
        E 96 90 4a 00
        E 24 90 4a 50
        E 96 90 4a 00
        E 24 90 4a 50
        E 192 90 4a 00
        E 48 90 4a 50
        E 192 90 4a 00
        E 48 90 4d 50
        E 96 90 4d 00
        E 24 90 4d 50
        E 96 90 4d 00
        E 24 90 4d 50
        E 192 90 4d 00
        E 48 90 4d 50
        E 192 90 4d 00
        E 48 90 51 50
        E 96 90 51 00
        E 24 90 4f 50
        E 96 90 4f 00
        E 24 90 4e 50
        E 96 90 4e 00
        E 24 90 4e 50
        E 96 90 4e 00
        E 24 90 4a 50
        E 192 90 4a 00
        E 48 90 4a 50
        E 192 90 4a 00
        E 48 90 4a 50
        E 96 90 4a 00
        E 24 90 4a 50
        E 96 90 4a 00
        E 24 90 4b 50
        E 96 90 4b 00
        E 24 90 4a 50
        E 96 90 4a 00
        E 24 90 4a 50
        E 96 90 4a 00
        E 24 90 4a 50
        E 96 90 4a 00
        E 24 90 4a 50
        E 192 90 4a 00
        E 48 90 4a 50
        E 192 90 4a 00
        E 48 90 4f 50
        E 96 90 4f 00
        E 24 90 4e 50
        E 96 90 4e 00
        E 24 90 4f 50
        E 192 90 4f 00
        E 48 90 4f 50
        E 192 90 4f 00
        E 48 90 4f 50
        E 96 90 4f 00
        E 24 90 4f 50
        E 96 90 4f 00
        E 24 90 4f 50
        E 96 90 4f 00
        E 24 90 4f 50
        E 96 90 4f 00
        E 24 90 4e 50
        E 96 90 4e 00
        E 24 90 4f 50
        E 96 90 4f 00
        E 24 90 4e 50
        E 192 90 4e 00
        E 48 90 4f 50
        E 192 90 4f 00
        E 48 90 4b 50
        E 96 90 4b 00
        E 24 90 4d 50
        E 96 90 4d 00
        E 24 90 4d 50
        E 192 90 4d 00
        E 48 90 4d 50
        E 192 90 4d 00
        E 48 90 4d 50
        E 96 90 4d 00
        E 24 90 4f 50
        E 96 90 4f 00
        E 24 90 4f 50
        E 96 90 4f 00
        E 24 90 4d 50
        E 96 90 4d 00
        E 24 90 4d 50
        E 96 90 4d 00
        E 24 90 4d 50
        E 96 90 4d 00
        E 24 90 4d 50
        E 192 90 4d 00
        E 48 90 4d 50
        E 192 90 4d 00
        E 48 90 4d 50
        E 96 90 4d 00
        E 24 90 4d 50
        E 96 90 4d 00
        E 24 90 4d 50
        E 192 90 4d 00
        E 48 90 4d 50
        E 192 90 4d 00
        E 48 90 51 50
        E 96 90 51 00
        E 24 90 4f 50
        E 96 90 4f 00
        E 24 90 4e 50
        E 96 90 4e 00
        E 24 90 4e 50
        E 96 90 4e 00
        E 24 90 4a 50
        E 192 90 4a 00
        E 48 90 4a 50
        E 192 90 4a 00
        E 48 90 4a 50
        E 96 90 4a 00
        E 24 90 4a 50
        E 96 90 4a 00
        E 24 90 4b 50
        E 96 90 4b 00
        E 24 90 4a 50
        E 96 90 4a 00
        E 24 90 4a 50
        E 96 90 4a 00
        E 24 90 4a 50
        E 96 90 4a 00
        E 24 90 4a 50
        E 192 90 4a 00
        E 48 90 4a 50
        E 192 90 4a 00
        E 48 90 4d 50
        E 96 90 4d 00
        E 24 90 4d 50
        E 96 90 4d 00
        E 24 90 4d 50
        E 192 90 4d 00
        E 48 90 4d 50
        E 192 90 4d 00
        E 48 90 51 50
        E 96 90 51 00
        E 24 90 4f 50
        E 96 90 4f 00
        E 24 90 4e 50
        E 96 90 4e 00
        E 24 90 4e 50
        E 96 90 4e 00
        E 24 90 4a 50
        E 192 90 4a 00
        E 48 90 4a 50
        E 192 90 4a 00
        E 48 90 4a 50
        E 96 90 4a 00
        E 24 90 4a 50
        E 96 90 4a 00
        E 24 90 4b 50
        E 96 90 4b 00
        E 24 90 4a 50
        E 96 90 4a 00
        E 24 90 4a 50
        E 96 90 4a 00
        E 24 90 4b 50
        E 96 90 4b 00
        E 24 90 4a 50
        E 192 90 4a 00
        E 48 90 48 50
        E 192 90 48 00
        E 48 90 46 50
        E 598 90 46 00
        E 122 b0 7b 00
        GUID {DBF138A9-73EC-AE46-BD2D-DF84AF9359B1}
        IGNTEMPO 0 120 4 4
        SRCCOLOR 238
        VELLANE -1 86 6
        CFGEDITVIEW 9508.77345 256.168576 45 16 0 0 0 0 0 0.5
        KEYSNAP 0
        TRACKSEL 252
        EVTFILTER 0 -1 -1 -1 -1 0 0 0 0 -1 -1 -1 -1 0 -1 0 -1 -1
        CFGEDIT 1 0 0 0 0 0 1 0 1 1 1 0.25 413 148 1280 633 0 0 2 3 0 0 0 0 0 -1 0 0 1 64
      >
      TAKE
      NAME "Hoboj1 - National_Anthems_-_Slovakia2.mid"
      TAKEVOLPAN 0 1 -1
      SOFFS 0 0
      PLAYRATE 1 1 0 -1 0 0.0025
      CHANMODE 0
      GUID {BDF0C52D-F412-1642-9B92-BFB4D4D3A52D}
      <SOURCE MIDI
        HASDATA 1 240 QN
        POOLEDEVTS {36EDD83B-5B45-2C48-8EC0-D84C69DEFB38}
        <X 0 0 0 0 3 Hoboj1
          /wNIb2JvajE=
        >
        E 0 90 4f 50
        E 96 90 4f 00
        E 24 90 4e 50
        E 96 90 4e 00
        E 24 90 4f 50
        E 192 90 4f 00
        E 48 90 4f 50
        E 192 90 4f 00
        E 48 90 4f 50
        E 96 90 4f 00
        E 24 90 4f 50
        E 96 90 4f 00
        E 24 90 4f 50
        E 96 90 4f 00
        E 24 90 4f 50
        E 96 90 4f 00
        E 24 90 4e 50
        E 96 90 4e 00
        E 24 90 4f 50
        E 96 90 4f 00
        E 24 90 4e 50
        E 192 90 4e 00
        E 48 90 4f 50
        E 192 90 4f 00
        E 48 90 4b 50
        E 96 90 4b 00
        E 24 90 4d 50
        E 96 90 4d 00
        E 24 90 4d 50
        E 192 90 4d 00
        E 48 90 4d 50
        E 192 90 4d 00
        E 48 90 4d 50
        E 96 90 4d 00
        E 24 90 4f 50
        E 96 90 4f 00
        E 24 90 4f 50
        E 96 90 4f 00
        E 24 90 4d 50
        E 96 90 4d 00
        E 24 90 4d 50
        E 96 90 4d 00
        E 24 90 4d 50
        E 96 90 4d 00
        E 24 90 4d 50
        E 192 90 4d 00
        E 48 90 4d 50
        E 192 90 4d 00
        E 48 90 4d 50
        E 96 90 4d 00
        E 24 90 4d 50
        E 96 90 4d 00
        E 24 90 4d 50
        E 192 90 4d 00
        E 48 90 4d 50
        E 192 90 4d 00
        E 48 90 51 50
        E 96 90 51 00
        E 24 90 4f 50
        E 96 90 4f 00
        E 24 90 4e 50
        E 96 90 4e 00
        E 24 90 4e 50
        E 96 90 4e 00
        E 24 90 4a 50
        E 192 90 4a 00
        E 48 90 4a 50
        E 192 90 4a 00
        E 48 90 4a 50
        E 96 90 4a 00
        E 24 90 4a 50
        E 96 90 4a 00
        E 24 90 4b 50
        E 96 90 4b 00
        E 24 90 4a 50
        E 96 90 4a 00
        E 24 90 4a 50
        E 96 90 4a 00
        E 24 90 4a 50
        E 96 90 4a 00
        E 24 90 4a 50
        E 192 90 4a 00
        E 48 90 4a 50
        E 192 90 4a 00
        E 48 90 4d 50
        E 96 90 4d 00
        E 24 90 4d 50
        E 96 90 4d 00
        E 24 90 4d 50
        E 192 90 4d 00
        E 48 90 4d 50
        E 192 90 4d 00
        E 48 90 51 50
        E 96 90 51 00
        E 24 90 4f 50
        E 96 90 4f 00
        E 24 90 4e 50
        E 96 90 4e 00
        E 24 90 4e 50
        E 96 90 4e 00
        E 24 90 4a 50
        E 192 90 4a 00
        E 48 90 4a 50
        E 192 90 4a 00
        E 48 90 4a 50
        E 96 90 4a 00
        E 24 90 4a 50
        E 96 90 4a 00
        E 24 90 4b 50
        E 96 90 4b 00
        E 24 90 4a 50
        E 96 90 4a 00
        E 24 90 4a 50
        E 96 90 4a 00
        E 24 90 4a 50
        E 96 90 4a 00
        E 24 90 4a 50
        E 192 90 4a 00
        E 48 90 4a 50
        E 192 90 4a 00
        E 48 90 4f 50
        E 96 90 4f 00
        E 24 90 4e 50
        E 96 90 4e 00
        E 24 90 4f 50
        E 192 90 4f 00
        E 48 90 4f 50
        E 192 90 4f 00
        E 48 90 4f 50
        E 96 90 4f 00
        E 24 90 4f 50
        E 96 90 4f 00
        E 24 90 4f 50
        E 96 90 4f 00
        E 24 90 4f 50
        E 96 90 4f 00
        E 24 90 4e 50
        E 96 90 4e 00
        E 24 90 4f 50
        E 96 90 4f 00
        E 24 90 4e 50
        E 192 90 4e 00
        E 48 90 4f 50
        E 192 90 4f 00
        E 48 90 4b 50
        E 96 90 4b 00
        E 24 90 4d 50
        E 96 90 4d 00
        E 24 90 4d 50
        E 192 90 4d 00
        E 48 90 4d 50
        E 192 90 4d 00
        E 48 90 4d 50
        E 96 90 4d 00
        E 24 90 4f 50
        E 96 90 4f 00
        E 24 90 4f 50
        E 96 90 4f 00
        E 24 90 4d 50
        E 96 90 4d 00
        E 24 90 4d 50
        E 96 90 4d 00
        E 24 90 4d 50
        E 96 90 4d 00
        E 24 90 4d 50
        E 192 90 4d 00
        E 48 90 4d 50
        E 192 90 4d 00
        E 48 90 4d 50
        E 96 90 4d 00
        E 24 90 4d 50
        E 96 90 4d 00
        E 24 90 4d 50
        E 192 90 4d 00
        E 48 90 4d 50
        E 192 90 4d 00
        E 48 90 51 50
        E 96 90 51 00
        E 24 90 4f 50
        E 96 90 4f 00
        E 24 90 4e 50
        E 96 90 4e 00
        E 24 90 4e 50
        E 96 90 4e 00
        E 24 90 4a 50
        E 192 90 4a 00
        E 48 90 4a 50
        E 192 90 4a 00
        E 48 90 4a 50
        E 96 90 4a 00
        E 24 90 4a 50
        E 96 90 4a 00
        E 24 90 4b 50
        E 96 90 4b 00
        E 24 90 4a 50
        E 96 90 4a 00
        E 24 90 4a 50
        E 96 90 4a 00
        E 24 90 4a 50
        E 96 90 4a 00
        E 24 90 4a 50
        E 192 90 4a 00
        E 48 90 4a 50
        E 192 90 4a 00
        E 48 90 4d 50
        E 96 90 4d 00
        E 24 90 4d 50
        E 96 90 4d 00
        E 24 90 4d 50
        E 192 90 4d 00
        E 48 90 4d 50
        E 192 90 4d 00
        E 48 90 51 50
        E 96 90 51 00
        E 24 90 4f 50
        E 96 90 4f 00
        E 24 90 4e 50
        E 96 90 4e 00
        E 24 90 4e 50
        E 96 90 4e 00
        E 24 90 4a 50
        E 192 90 4a 00
        E 48 90 4a 50
        E 192 90 4a 00
        E 48 90 4a 50
        E 96 90 4a 00
        E 24 90 4a 50
        E 96 90 4a 00
        E 24 90 4b 50
        E 96 90 4b 00
        E 24 90 4a 50
        E 96 90 4a 00
        E 24 90 4a 50
        E 96 90 4a 00
        E 24 90 4b 50
        E 96 90 4b 00
        E 24 90 4a 50
        E 192 90 4a 00
        E 48 90 48 50
        E 192 90 48 00
        E 48 90 46 50
        E 598 90 46 00
        E 122 b0 7b 00
        GUID {E35522C3-1C0D-2C40-804A-DA8AB46E1177}
        IGNTEMPO 0 120 4 4
        SRCCOLOR 257
        VELLANE -1 86 6
        CFGEDITVIEW 0 0 45 16 0 0 0 0 0 0.5
        KEYSNAP 0
        TRACKSEL 252
        EVTFILTER 0 -1 -1 -1 -1 0 0 0 0 -1 -1 -1 -1 0 -1 0 -1 -1
        CFGEDIT 1 0 0 0 0 0 1 0 1 1 1 0.25 413 148 1280 633 0 0 2 3 0 0 0 0 0 -1 0 0 1 64
      >
    >
  >
  <TRACK {3C494A2B-9670-9740-AD22-E42CC5065FE1}
    NAME "ch2,4 (send)"
    PEAKCOL 16576
    BEAT -1
    AUTOMODE 0
    VOLPAN 1 0 -1 -1 1
    MUTESOLO 0 0 0
    IPHASE 0
    ISBUS 2 -1
    BUSCOMP 0 0
    SHOWINMIX 1 0.6667 0.5 1 0.111111 0 0 0
    FREEMODE 0
    SEL 0
    REC 0 0 0 0 0 0 0
    VU 2
    MIDICTL -1 1
    TRACKHEIGHT 63 0
    INQ 0 0 0 0.5 100 0 0 100
    NCHAN 2
    FX 1
    TRACKID {3C494A2B-9670-9740-AD22-E42CC5065FE1}
    PERF 0
    MIDIOUT -1
    MAINSEND 1 0
    <FXCHAIN
      WNDRECT 32 359 724 387
      SHOW 0
      LASTSEL 0
      DOCKED 0
    >
    <ITEM
      POSITION 0
      SNAPOFFS 0
      LENGTH 41.5
      LOOP 1
      ALLTAKES 0
      FADEIN 1 0 0 1 0 0
      FADEOUT 1 0 0 1 0 0
      MUTE 0
      SEL 0
      YPOS 0.138489 0.05
      IGUID {9024884E-9DA3-DB41-A769-7127C6236468}
      IID 7
      NAME "Fagot - National_Anthems_-_Slovakia2.mid"
      VOLPAN 1 0 1 -1
      SOFFS 0 0
      PLAYRATE 1 1 0 -1 0 0.0025
      CHANMODE 0
      TAKECOLOR 26173599 B
      GUID {20BC0E56-6F2E-0D46-A898-0C83F3432EA5}
      <SOURCE MIDI
        HASDATA 1 240 QN
        POOLEDEVTS {B05E2F2D-A7FB-5340-9714-844FC9E7EC4E}
        <X 0 0 0 0 3 Fagot
          /wNGYWdvdA==
        >
        E 0 90 37 50
        E 96 90 37 00
        E 24 90 32 50
        E 96 90 32 00
        E 24 90 2b 50
        E 192 90 2b 00
        E 48 90 37 50
        E 120 90 37 00
        E 0 90 35 50
        E 120 90 35 00
        E 0 90 33 50
        E 96 90 33 00
        E 24 90 32 50
        E 96 90 32 00
        E 24 90 30 50
        E 96 90 30 00
        E 24 90 2e 50
        E 96 90 2e 00
        E 24 90 2d 50
        E 96 90 2d 00
        E 24 90 2b 50
        E 96 90 2b 00
        E 24 90 32 50
        E 192 90 32 00
        E 48 90 32 50
        E 192 90 32 00
        E 48 90 2b 50
        E 96 90 2b 00
        E 24 90 29 50
        E 96 90 29 00
        E 24 90 2e 50
        E 192 90 2e 00
        E 48 90 3a 50
        E 120 90 3a 00
        E 0 90 39 50
        E 120 90 39 00
        E 0 90 37 50
        E 96 90 37 00
        E 24 90 35 50
        E 96 90 35 00
        E 24 90 33 50
        E 96 90 33 00
        E 24 90 32 50
        E 96 90 32 00
        E 24 90 30 50
        E 96 90 30 00
        E 24 90 2e 50
        E 96 90 2e 00
        E 24 90 35 50
        E 192 90 35 00
        E 48 90 35 50
        E 192 90 35 00
        E 48 90 2e 50
        E 96 90 2e 00
        E 24 90 30 50
        E 96 90 30 00
        E 24 90 32 50
        E 96 90 32 00
        E 24 90 33 50
        E 96 90 33 00
        E 24 90 35 50
        E 192 90 35 00
        E 48 90 35 50
        E 96 90 35 00
        E 24 90 33 50
        E 96 90 33 00
        E 24 90 32 50
        E 96 90 32 00
        E 24 90 34 50
        E 96 90 34 00
        E 24 90 36 50
        E 192 90 36 00
        E 48 90 37 50
        E 192 90 37 00
        E 48 90 2b 50
        E 96 90 2b 00
        E 24 90 2e 50
        E 96 90 2e 00
        E 24 90 30 50
        E 96 90 30 00
        E 24 90 2e 50
        E 96 90 2e 00
        E 24 90 2d 50
        E 96 90 2d 00
        E 24 90 2b 50
        E 96 90 2b 00
        E 24 90 32 50
        E 192 90 32 00
        E 48 90 2b 50
        E 192 90 2b 00
        E 48 90 2e 50
        E 96 90 2e 00
        E 24 90 30 50
        E 96 90 30 00
        E 24 90 32 50
        E 96 90 32 00
        E 24 90 33 50
        E 96 90 33 00
        E 24 90 35 50
        E 192 90 35 00
        E 48 90 35 50
        E 96 90 35 00
        E 24 90 33 50
        E 96 90 33 00
        E 24 90 32 50
        E 96 90 32 00
        E 24 90 34 50
        E 96 90 34 00
        E 24 90 36 50
        E 192 90 36 00
        E 48 90 37 50
        E 192 90 37 00
        E 48 90 2b 50
        E 96 90 2b 00
        E 24 90 2e 50
        E 96 90 2e 00
        E 24 90 30 50
        E 96 90 30 00
        E 24 90 2e 50
        E 96 90 2e 00
        E 24 90 2d 50
        E 96 90 2d 00
        E 24 90 2b 50
        E 96 90 2b 00
        E 24 90 32 50
        E 192 90 32 00
        E 48 90 2b 50
        E 192 90 2b 00
        E 48 90 37 50
        E 96 90 37 00
        E 24 90 32 50
        E 96 90 32 00
        E 24 90 2b 50
        E 192 90 2b 00
        E 48 90 37 50
        E 120 90 37 00
        E 0 90 35 50
        E 120 90 35 00
        E 0 90 33 50
        E 96 90 33 00
        E 24 90 32 50
        E 96 90 32 00
        E 24 90 30 50
        E 96 90 30 00
        E 24 90 2e 50
        E 96 90 2e 00
        E 24 90 2d 50
        E 96 90 2d 00
        E 24 90 2b 50
        E 96 90 2b 00
        E 24 90 32 50
        E 192 90 32 00
        E 48 90 32 50
        E 192 90 32 00
        E 48 90 2b 50
        E 96 90 2b 00
        E 24 90 29 50
        E 96 90 29 00
        E 24 90 2e 50
        E 192 90 2e 00
        E 48 90 3a 50
        E 120 90 3a 00
        E 0 90 39 50
        E 120 90 39 00
        E 0 90 37 50
        E 96 90 37 00
        E 24 90 35 50
        E 96 90 35 00
        E 24 90 33 50
        E 96 90 33 00
        E 24 90 32 50
        E 96 90 32 00
        E 24 90 30 50
        E 96 90 30 00
        E 24 90 2e 50
        E 96 90 2e 00
        E 24 90 35 50
        E 192 90 35 00
        E 48 90 35 50
        E 192 90 35 00
        E 48 90 2e 50
        E 96 90 2e 00
        E 24 90 30 50
        E 96 90 30 00
        E 24 90 32 50
        E 96 90 32 00
        E 24 90 33 50
        E 96 90 33 00
        E 24 90 35 50
        E 192 90 35 00
        E 48 90 35 50
        E 96 90 35 00
        E 24 90 33 50
        E 96 90 33 00
        E 24 90 32 50
        E 96 90 32 00
        E 24 90 34 50
        E 96 90 34 00
        E 24 90 36 50
        E 192 90 36 00
        E 48 90 37 50
        E 192 90 37 00
        E 48 90 2b 50
        E 96 90 2b 00
        E 24 90 2e 50
        E 96 90 2e 00
        E 24 90 30 50
        E 96 90 30 00
        E 24 90 2e 50
        E 96 90 2e 00
        E 24 90 2d 50
        E 96 90 2d 00
        E 24 90 2b 50
        E 96 90 2b 00
        E 24 90 32 50
        E 192 90 32 00
        E 48 90 2b 50
        E 192 90 2b 00
        E 48 90 2e 50
        E 96 90 2e 00
        E 24 90 30 50
        E 96 90 30 00
        E 24 90 32 50
        E 96 90 32 00
        E 24 90 33 50
        E 96 90 33 00
        E 24 90 35 50
        E 192 90 35 00
        E 48 90 35 50
        E 96 90 35 00
        E 24 90 33 50
        E 96 90 33 00
        E 24 90 32 50
        E 96 90 32 00
        E 24 90 34 50
        E 96 90 34 00
        E 24 90 36 50
        E 192 90 36 00
        E 48 90 37 50
        E 192 90 37 00
        E 48 90 2b 50
        E 96 90 2b 00
        E 24 90 2e 50
        E 96 90 2e 00
        E 24 90 30 50
        E 96 90 30 00
        E 24 90 2e 50
        E 96 90 2e 00
        E 24 90 2d 50
        E 96 90 2d 00
        E 24 90 30 50
        E 96 90 30 00
        E 24 90 32 50
        E 450 90 32 00
        E 30 90 2b 50
        E 598 90 2b 00
        E 122 b0 7b 00
        GUID {51C50F11-66A6-4A41-A0B3-7748738396B3}
        IGNTEMPO 0 120 4 4
        SRCCOLOR 241
        VELLANE -1 86 6
        CFGEDITVIEW 8580.611062 90.377764 45 16 0 0 0 0 0 0.5
        KEYSNAP 0
        TRACKSEL 252
        EVTFILTER 0 -1 -1 -1 -1 0 0 0 0 -1 -1 -1 -1 0 -1 0 -1 -1
        CFGEDIT 1 0 0 0 0 0 1 0 1 1 1 0.25 413 148 1280 633 0 0 2 3 0 0 0 0 0 -1 0 0 1 64
      >
      TAKE
      NAME "Fagot - National_Anthems_-_Slovakia2.mid"
      TAKEVOLPAN 0 1 -1
      SOFFS 0 0
      PLAYRATE 1 1 0 -1 0 0.0025
      CHANMODE 0
      GUID {F20B76CF-33E1-F042-94AE-B3E6CEDE29AC}
      <SOURCE MIDI
        HASDATA 1 240 QN
        POOLEDEVTS {D0A276DB-9117-5A4A-AE42-89FF11295B34}
        <X 0 0 0 0 3 Fagot
          /wNGYWdvdA==
        >
        E 0 90 37 50
        E 96 90 37 00
        E 24 90 32 50
        E 96 90 32 00
        E 24 90 2b 50
        E 192 90 2b 00
        E 48 90 37 50
        E 120 90 37 00
        E 0 90 35 50
        E 120 90 35 00
        E 0 90 33 50
        E 96 90 33 00
        E 24 90 32 50
        E 96 90 32 00
        E 24 90 30 50
        E 96 90 30 00
        E 24 90 2e 50
        E 96 90 2e 00
        E 24 90 2d 50
        E 96 90 2d 00
        E 24 90 2b 50
        E 96 90 2b 00
        E 24 90 32 50
        E 192 90 32 00
        E 48 90 32 50
        E 192 90 32 00
        E 48 90 2b 50
        E 96 90 2b 00
        E 24 90 29 50
        E 96 90 29 00
        E 24 90 2e 50
        E 192 90 2e 00
        E 48 90 3a 50
        E 120 90 3a 00
        E 0 90 39 50
        E 120 90 39 00
        E 0 90 37 50
        E 96 90 37 00
        E 24 90 35 50
        E 96 90 35 00
        E 24 90 33 50
        E 96 90 33 00
        E 24 90 32 50
        E 96 90 32 00
        E 24 90 30 50
        E 96 90 30 00
        E 24 90 2e 50
        E 96 90 2e 00
        E 24 90 35 50
        E 192 90 35 00
        E 48 90 35 50
        E 192 90 35 00
        E 48 90 2e 50
        E 96 90 2e 00
        E 24 90 30 50
        E 96 90 30 00
        E 24 90 32 50
        E 96 90 32 00
        E 24 90 33 50
        E 96 90 33 00
        E 24 90 35 50
        E 192 90 35 00
        E 48 90 35 50
        E 96 90 35 00
        E 24 90 33 50
        E 96 90 33 00
        E 24 90 32 50
        E 96 90 32 00
        E 24 90 34 50
        E 96 90 34 00
        E 24 90 36 50
        E 192 90 36 00
        E 48 90 37 50
        E 192 90 37 00
        E 48 90 2b 50
        E 96 90 2b 00
        E 24 90 2e 50
        E 96 90 2e 00
        E 24 90 30 50
        E 96 90 30 00
        E 24 90 2e 50
        E 96 90 2e 00
        E 24 90 2d 50
        E 96 90 2d 00
        E 24 90 2b 50
        E 96 90 2b 00
        E 24 90 32 50
        E 192 90 32 00
        E 48 90 2b 50
        E 192 90 2b 00
        E 48 90 2e 50
        E 96 90 2e 00
        E 24 90 30 50
        E 96 90 30 00
        E 24 90 32 50
        E 96 90 32 00
        E 24 90 33 50
        E 96 90 33 00
        E 24 90 35 50
        E 192 90 35 00
        E 48 90 35 50
        E 96 90 35 00
        E 24 90 33 50
        E 96 90 33 00
        E 24 90 32 50
        E 96 90 32 00
        E 24 90 34 50
        E 96 90 34 00
        E 24 90 36 50
        E 192 90 36 00
        E 48 90 37 50
        E 192 90 37 00
        E 48 90 2b 50
        E 96 90 2b 00
        E 24 90 2e 50
        E 96 90 2e 00
        E 24 90 30 50
        E 96 90 30 00
        E 24 90 2e 50
        E 96 90 2e 00
        E 24 90 2d 50
        E 96 90 2d 00
        E 24 90 2b 50
        E 96 90 2b 00
        E 24 90 32 50
        E 192 90 32 00
        E 48 90 2b 50
        E 192 90 2b 00
        E 48 90 37 50
        E 96 90 37 00
        E 24 90 32 50
        E 96 90 32 00
        E 24 90 2b 50
        E 192 90 2b 00
        E 48 90 37 50
        E 120 90 37 00
        E 0 90 35 50
        E 120 90 35 00
        E 0 90 33 50
        E 96 90 33 00
        E 24 90 32 50
        E 96 90 32 00
        E 24 90 30 50
        E 96 90 30 00
        E 24 90 2e 50
        E 96 90 2e 00
        E 24 90 2d 50
        E 96 90 2d 00
        E 24 90 2b 50
        E 96 90 2b 00
        E 24 90 32 50
        E 192 90 32 00
        E 48 90 32 50
        E 192 90 32 00
        E 48 90 2b 50
        E 96 90 2b 00
        E 24 90 29 50
        E 96 90 29 00
        E 24 90 2e 50
        E 192 90 2e 00
        E 48 90 3a 50
        E 120 90 3a 00
        E 0 90 39 50
        E 120 90 39 00
        E 0 90 37 50
        E 96 90 37 00
        E 24 90 35 50
        E 96 90 35 00
        E 24 90 33 50
        E 96 90 33 00
        E 24 90 32 50
        E 96 90 32 00
        E 24 90 30 50
        E 96 90 30 00
        E 24 90 2e 50
        E 96 90 2e 00
        E 24 90 35 50
        E 192 90 35 00
        E 48 90 35 50
        E 192 90 35 00
        E 48 90 2e 50
        E 96 90 2e 00
        E 24 90 30 50
        E 96 90 30 00
        E 24 90 32 50
        E 96 90 32 00
        E 24 90 33 50
        E 96 90 33 00
        E 24 90 35 50
        E 192 90 35 00
        E 48 90 35 50
        E 96 90 35 00
        E 24 90 33 50
        E 96 90 33 00
        E 24 90 32 50
        E 96 90 32 00
        E 24 90 34 50
        E 96 90 34 00
        E 24 90 36 50
        E 192 90 36 00
        E 48 90 37 50
        E 192 90 37 00
        E 48 90 2b 50
        E 96 90 2b 00
        E 24 90 2e 50
        E 96 90 2e 00
        E 24 90 30 50
        E 96 90 30 00
        E 24 90 2e 50
        E 96 90 2e 00
        E 24 90 2d 50
        E 96 90 2d 00
        E 24 90 2b 50
        E 96 90 2b 00
        E 24 90 32 50
        E 192 90 32 00
        E 48 90 2b 50
        E 192 90 2b 00
        E 48 90 2e 50
        E 96 90 2e 00
        E 24 90 30 50
        E 96 90 30 00
        E 24 90 32 50
        E 96 90 32 00
        E 24 90 33 50
        E 96 90 33 00
        E 24 90 35 50
        E 192 90 35 00
        E 48 90 35 50
        E 96 90 35 00
        E 24 90 33 50
        E 96 90 33 00
        E 24 90 32 50
        E 96 90 32 00
        E 24 90 34 50
        E 96 90 34 00
        E 24 90 36 50
        E 192 90 36 00
        E 48 90 37 50
        E 192 90 37 00
        E 48 90 2b 50
        E 96 90 2b 00
        E 24 90 2e 50
        E 96 90 2e 00
        E 24 90 30 50
        E 96 90 30 00
        E 24 90 2e 50
        E 96 90 2e 00
        E 24 90 2d 50
        E 96 90 2d 00
        E 24 90 30 50
        E 96 90 30 00
        E 24 90 32 50
        E 450 90 32 00
        E 30 90 2b 50
        E 598 90 2b 00
        E 122 b0 7b 00
        GUID {DB60DD1F-CA14-5B41-9DA8-208BCCDE894D}
        IGNTEMPO 0 120 4 4
        SRCCOLOR 251
        VELLANE -1 86 6
        CFGEDITVIEW 0 0 45 16 0 0 0 0 0 0.5
        KEYSNAP 0
        TRACKSEL 252
        EVTFILTER 0 -1 -1 -1 -1 0 0 0 0 -1 -1 -1 -1 0 -1 0 -1 -1
        CFGEDIT 1 0 0 0 0 0 1 0 1 1 1 0.25 413 148 1280 633 0 0 2 3 0 0 0 0 0 -1 0 0 1 64
      >
    >
    <ITEM
      POSITION 0
      SNAPOFFS 0
      LENGTH 41.5
      LOOP 1
      ALLTAKES 0
      FADEIN 1 0 0 1 0 0
      FADEOUT 1 0 0 1 0 0
      MUTE 0
      SEL 0
      YPOS 0.692446 0.05
      IGUID {50ABBC6D-2455-7740-BB68-52A666DB718A}
      IID 6
      NAME "Klarinet3 - National_Anthems_-_Slovakia2.mid"
      VOLPAN 1 0 1 -1
      SOFFS 0 0
      PLAYRATE 1 1 0 -1 0 0.0025
      CHANMODE 0
      TAKECOLOR 26173599 B
      GUID {4D28995D-FD08-194B-8A06-1A93C6185F74}
      <SOURCE MIDI
        HASDATA 1 240 QN
        POOLEDEVTS {8C94F1B2-485B-484D-B031-E8E7B54F1A43}
        <X 0 0 0 0 3 Klarinet3
          /wNLbGFyaW5ldDM=
        >
        E 0 90 46 50
        E 96 90 46 00
        E 24 90 4a 50
        E 96 90 4a 00
        E 24 90 4a 50
        E 192 90 4a 00
        E 48 90 4a 50
        E 192 90 4a 00
        E 48 90 4b 50
        E 96 90 4b 00
        E 24 90 4a 50
        E 96 90 4a 00
        E 24 90 4b 50
        E 96 90 4b 00
        E 24 90 4a 50
        E 96 90 4a 00
        E 24 90 4a 50
        E 96 90 4a 00
        E 24 90 4a 50
        E 96 90 4a 00
        E 24 90 4a 50
        E 192 90 4a 00
        E 48 90 46 50
        E 192 90 46 00
        E 48 90 46 50
        E 96 90 46 00
        E 24 90 48 50
        E 96 90 48 00
        E 24 90 4a 50
        E 192 90 4a 00
        E 48 90 4a 50
        E 192 90 4a 00
        E 48 90 4a 50
        E 96 90 4a 00
        E 24 90 4a 50
        E 96 90 4a 00
        E 24 90 48 50
        E 96 90 48 00
        E 24 90 4a 50
        E 96 90 4a 00
        E 24 90 4b 50
        E 96 90 4b 00
        E 24 90 4a 50
        E 96 90 4a 00
        E 24 90 45 50
        E 192 90 45 00
        E 48 90 46 50
        E 192 90 46 00
        E 48 90 4a 50
        E 96 90 4a 00
        E 24 90 4a 50
        E 96 90 4a 00
        E 24 90 4a 50
        E 192 90 4a 00
        E 48 90 48 50
        E 192 90 48 00
        E 48 90 48 50
        E 96 90 48 00
        E 24 90 48 50
        E 96 90 48 00
        E 24 90 48 50
        E 96 90 48 00
        E 24 90 45 50
        E 96 90 45 00
        E 24 90 48 50
        E 192 90 48 00
        E 48 90 46 50
        E 192 90 46 00
        E 48 90 46 50
        E 96 90 46 00
        E 24 90 46 50
        E 96 90 46 00
        E 24 90 48 50
        E 96 90 48 00
        E 24 90 46 50
        E 96 90 46 00
        E 24 90 45 50
        E 96 90 45 00
        E 24 90 43 50
        E 96 90 43 00
        E 24 90 45 50
        E 192 90 45 00
        E 48 90 46 50
        E 192 90 46 00
        E 48 90 4a 50
        E 96 90 4a 00
        E 24 90 4a 50
        E 96 90 4a 00
        E 24 90 4a 50
        E 192 90 4a 00
        E 48 90 48 50
        E 192 90 48 00
        E 48 90 48 50
        E 96 90 48 00
        E 24 90 48 50
        E 96 90 48 00
        E 24 90 48 50
        E 96 90 48 00
        E 24 90 45 50
        E 96 90 45 00
        E 24 90 48 50
        E 192 90 48 00
        E 48 90 46 50
        E 192 90 46 00
        E 48 90 46 50
        E 96 90 46 00
        E 24 90 46 50
        E 96 90 46 00
        E 24 90 48 50
        E 96 90 48 00
        E 24 90 46 50
        E 96 90 46 00
        E 24 90 45 50
        E 96 90 45 00
        E 24 90 43 50
        E 96 90 43 00
        E 24 90 45 50
        E 192 90 45 00
        E 48 90 46 50
        E 192 90 46 00
        E 48 90 46 50
        E 96 90 46 00
        E 24 90 4a 50
        E 96 90 4a 00
        E 24 90 4a 50
        E 192 90 4a 00
        E 48 90 4a 50
        E 192 90 4a 00
        E 48 90 4b 50
        E 96 90 4b 00
        E 24 90 4a 50
        E 96 90 4a 00
        E 24 90 4b 50
        E 96 90 4b 00
        E 24 90 4a 50
        E 96 90 4a 00
        E 24 90 4a 50
        E 96 90 4a 00
        E 24 90 4a 50
        E 96 90 4a 00
        E 24 90 4a 50
        E 192 90 4a 00
        E 48 90 46 50
        E 192 90 46 00
        E 48 90 46 50
        E 96 90 46 00
        E 24 90 48 50
        E 96 90 48 00
        E 24 90 4a 50
        E 192 90 4a 00
        E 48 90 4a 50
        E 192 90 4a 00
        E 48 90 4a 50
        E 96 90 4a 00
        E 24 90 4a 50
        E 96 90 4a 00
        E 24 90 48 50
        E 96 90 48 00
        E 24 90 4a 50
        E 96 90 4a 00
        E 24 90 4b 50
        E 96 90 4b 00
        E 24 90 4a 50
        E 96 90 4a 00
        E 24 90 45 50
        E 192 90 45 00
        E 48 90 46 50
        E 192 90 46 00
        E 48 90 4a 50
        E 96 90 4a 00
        E 24 90 4a 50
        E 96 90 4a 00
        E 24 90 4a 50
        E 192 90 4a 00
        E 48 90 48 50
        E 192 90 48 00
        E 48 90 48 50
        E 96 90 48 00
        E 24 90 48 50
        E 96 90 48 00
        E 24 90 48 50
        E 96 90 48 00
        E 24 90 45 50
        E 96 90 45 00
        E 24 90 48 50
        E 192 90 48 00
        E 48 90 46 50
        E 192 90 46 00
        E 48 90 46 50
        E 96 90 46 00
        E 24 90 46 50
        E 96 90 46 00
        E 24 90 48 50
        E 96 90 48 00
        E 24 90 46 50
        E 96 90 46 00
        E 24 90 45 50
        E 96 90 45 00
        E 24 90 43 50
        E 96 90 43 00
        E 24 90 45 50
        E 192 90 45 00
        E 48 90 46 50
        E 192 90 46 00
        E 48 90 4a 50
        E 96 90 4a 00
        E 24 90 4a 50
        E 96 90 4a 00
        E 24 90 4a 50
        E 192 90 4a 00
        E 48 90 48 50
        E 192 90 48 00
        E 48 90 48 50
        E 96 90 48 00
        E 24 90 48 50
        E 96 90 48 00
        E 24 90 48 50
        E 96 90 48 00
        E 24 90 45 50
        E 96 90 45 00
        E 24 90 48 50
        E 192 90 48 00
        E 48 90 46 50
        E 192 90 46 00
        E 48 90 46 50
        E 96 90 46 00
        E 24 90 46 50
        E 96 90 46 00
        E 24 90 48 50
        E 96 90 48 00
        E 24 90 46 50
        E 96 90 46 00
        E 24 90 48 50
        E 96 90 48 00
        E 24 90 48 50
        E 96 90 48 00
        E 24 90 4a 50
        E 450 90 4a 00
        E 30 90 4a 50
        E 598 90 4a 00
        E 122 b0 7b 00
        GUID {8B553957-1BBE-8E49-BA3B-3AABB90F1D55}
        IGNTEMPO 0 120 4 4
        SRCCOLOR 240
        VELLANE -1 86 6
        CFGEDITVIEW 2622.940987 168.233955 51 22 0 0 0 0 0 0.5
        KEYSNAP 0
        TRACKSEL 252
        EVTFILTER 0 -1 -1 -1 -1 0 0 0 0 -1 -1 -1 -1 0 -1 0 -1 -1
        CFGEDIT 1 0 0 0 0 0 1 0 1 1 1 0.25 397 132 1280 633 0 0 2 3 0 0 0 0 0 -1 0 0 1 64
      >
      TAKE
      NAME "Klarinet3 - National_Anthems_-_Slovakia2.mid"
      TAKEVOLPAN 0 1 -1
      SOFFS 0 0
      PLAYRATE 1 1 0 -1 0 0.0025
      CHANMODE 0
      GUID {D938A690-84A9-F541-9F97-476A7CC59ECA}
      <SOURCE MIDI
        HASDATA 1 240 QN
        POOLEDEVTS {01F8DA54-87D0-F048-B4A5-64A536FC9099}
        <X 0 0 0 0 3 Klarinet3
          /wNLbGFyaW5ldDM=
        >
        E 0 90 46 50
        E 96 90 46 00
        E 24 90 4a 50
        E 96 90 4a 00
        E 24 90 4a 50
        E 192 90 4a 00
        E 48 90 4a 50
        E 192 90 4a 00
        E 48 90 4b 50
        E 96 90 4b 00
        E 24 90 4a 50
        E 96 90 4a 00
        E 24 90 4b 50
        E 96 90 4b 00
        E 24 90 4a 50
        E 96 90 4a 00
        E 24 90 4a 50
        E 96 90 4a 00
        E 24 90 4a 50
        E 96 90 4a 00
        E 24 90 4a 50
        E 192 90 4a 00
        E 48 90 46 50
        E 192 90 46 00
        E 48 90 46 50
        E 96 90 46 00
        E 24 90 48 50
        E 96 90 48 00
        E 24 90 4a 50
        E 192 90 4a 00
        E 48 90 4a 50
        E 192 90 4a 00
        E 48 90 4a 50
        E 96 90 4a 00
        E 24 90 4a 50
        E 96 90 4a 00
        E 24 90 48 50
        E 96 90 48 00
        E 24 90 4a 50
        E 96 90 4a 00
        E 24 90 4b 50
        E 96 90 4b 00
        E 24 90 4a 50
        E 96 90 4a 00
        E 24 90 45 50
        E 192 90 45 00
        E 48 90 46 50
        E 192 90 46 00
        E 48 90 4a 50
        E 96 90 4a 00
        E 24 90 4a 50
        E 96 90 4a 00
        E 24 90 4a 50
        E 192 90 4a 00
        E 48 90 48 50
        E 192 90 48 00
        E 48 90 48 50
        E 96 90 48 00
        E 24 90 48 50
        E 96 90 48 00
        E 24 90 48 50
        E 96 90 48 00
        E 24 90 45 50
        E 96 90 45 00
        E 24 90 48 50
        E 192 90 48 00
        E 48 90 46 50
        E 192 90 46 00
        E 48 90 46 50
        E 96 90 46 00
        E 24 90 46 50
        E 96 90 46 00
        E 24 90 48 50
        E 96 90 48 00
        E 24 90 46 50
        E 96 90 46 00
        E 24 90 45 50
        E 96 90 45 00
        E 24 90 43 50
        E 96 90 43 00
        E 24 90 45 50
        E 192 90 45 00
        E 48 90 46 50
        E 192 90 46 00
        E 48 90 4a 50
        E 96 90 4a 00
        E 24 90 4a 50
        E 96 90 4a 00
        E 24 90 4a 50
        E 192 90 4a 00
        E 48 90 48 50
        E 192 90 48 00
        E 48 90 48 50
        E 96 90 48 00
        E 24 90 48 50
        E 96 90 48 00
        E 24 90 48 50
        E 96 90 48 00
        E 24 90 45 50
        E 96 90 45 00
        E 24 90 48 50
        E 192 90 48 00
        E 48 90 46 50
        E 192 90 46 00
        E 48 90 46 50
        E 96 90 46 00
        E 24 90 46 50
        E 96 90 46 00
        E 24 90 48 50
        E 96 90 48 00
        E 24 90 46 50
        E 96 90 46 00
        E 24 90 45 50
        E 96 90 45 00
        E 24 90 43 50
        E 96 90 43 00
        E 24 90 45 50
        E 192 90 45 00
        E 48 90 46 50
        E 192 90 46 00
        E 48 90 46 50
        E 96 90 46 00
        E 24 90 4a 50
        E 96 90 4a 00
        E 24 90 4a 50
        E 192 90 4a 00
        E 48 90 4a 50
        E 192 90 4a 00
        E 48 90 4b 50
        E 96 90 4b 00
        E 24 90 4a 50
        E 96 90 4a 00
        E 24 90 4b 50
        E 96 90 4b 00
        E 24 90 4a 50
        E 96 90 4a 00
        E 24 90 4a 50
        E 96 90 4a 00
        E 24 90 4a 50
        E 96 90 4a 00
        E 24 90 4a 50
        E 192 90 4a 00
        E 48 90 46 50
        E 192 90 46 00
        E 48 90 46 50
        E 96 90 46 00
        E 24 90 48 50
        E 96 90 48 00
        E 24 90 4a 50
        E 192 90 4a 00
        E 48 90 4a 50
        E 192 90 4a 00
        E 48 90 4a 50
        E 96 90 4a 00
        E 24 90 4a 50
        E 96 90 4a 00
        E 24 90 48 50
        E 96 90 48 00
        E 24 90 4a 50
        E 96 90 4a 00
        E 24 90 4b 50
        E 96 90 4b 00
        E 24 90 4a 50
        E 96 90 4a 00
        E 24 90 45 50
        E 192 90 45 00
        E 48 90 46 50
        E 192 90 46 00
        E 48 90 4a 50
        E 96 90 4a 00
        E 24 90 4a 50
        E 96 90 4a 00
        E 24 90 4a 50
        E 192 90 4a 00
        E 48 90 48 50
        E 192 90 48 00
        E 48 90 48 50
        E 96 90 48 00
        E 24 90 48 50
        E 96 90 48 00
        E 24 90 48 50
        E 96 90 48 00
        E 24 90 45 50
        E 96 90 45 00
        E 24 90 48 50
        E 192 90 48 00
        E 48 90 46 50
        E 192 90 46 00
        E 48 90 46 50
        E 96 90 46 00
        E 24 90 46 50
        E 96 90 46 00
        E 24 90 48 50
        E 96 90 48 00
        E 24 90 46 50
        E 96 90 46 00
        E 24 90 45 50
        E 96 90 45 00
        E 24 90 43 50
        E 96 90 43 00
        E 24 90 45 50
        E 192 90 45 00
        E 48 90 46 50
        E 192 90 46 00
        E 48 90 4a 50
        E 96 90 4a 00
        E 24 90 4a 50
        E 96 90 4a 00
        E 24 90 4a 50
        E 192 90 4a 00
        E 48 90 48 50
        E 192 90 48 00
        E 48 90 48 50
        E 96 90 48 00
        E 24 90 48 50
        E 96 90 48 00
        E 24 90 48 50
        E 96 90 48 00
        E 24 90 45 50
        E 96 90 45 00
        E 24 90 48 50
        E 192 90 48 00
        E 48 90 46 50
        E 192 90 46 00
        E 48 90 46 50
        E 96 90 46 00
        E 24 90 46 50
        E 96 90 46 00
        E 24 90 48 50
        E 96 90 48 00
        E 24 90 46 50
        E 96 90 46 00
        E 24 90 48 50
        E 96 90 48 00
        E 24 90 48 50
        E 96 90 48 00
        E 24 90 4a 50
        E 450 90 4a 00
        E 30 90 4a 50
        E 598 90 4a 00
        E 122 b0 7b 00
        GUID {A14311FA-A34E-704B-A9E0-0273B8604FBA}
        IGNTEMPO 0 120 4 4
        SRCCOLOR 255
        VELLANE -1 86 6
        CFGEDITVIEW 0 0 51 22 0 0 0 0 0 0.5
        KEYSNAP 0
        TRACKSEL 252
        EVTFILTER 0 -1 -1 -1 -1 0 0 0 0 -1 -1 -1 -1 0 -1 0 -1 -1
        CFGEDIT 1 0 0 0 0 0 1 0 1 1 1 0.25 397 132 1280 633 0 0 2 3 0 0 0 0 0 -1 0 0 1 64
      >
    >
  >
  <TRACK {97C14EE2-C273-C940-9D68-54C062C3CBCA}
    NAME ChipFront
    PEAKCOL 16576
    BEAT -1
    AUTOMODE 0
    VOLPAN 0.3981071705535 0 -1 -1 1
    MUTESOLO 0 0 0
    IPHASE 0
    ISBUS 0 0
    BUSCOMP 0 0
    SHOWINMIX 1 0.6667 0.5 1 0.111111 0 0 0
    FREEMODE 0
    SEL 0
    REC 0 0 0 0 0 0 0
    VU 2
    TRACKHEIGHT 63 0
    INQ 0 0 0 0.5 100 0 0 100
    NCHAN 2
    FX 1
    TRACKID {97C14EE2-C273-C940-9D68-54C062C3CBCA}
    PERF 0
    AUXRECV 4 0 1 0 0 0 0 0 0 -1:U 0 -1 ''
    MIDIOUT -1
    MAINSEND 1 0
    <FXCHAIN
      SHOW 0
      LASTSEL 0
      DOCKED 0
      BYPASS 0 0 0
      <VST "VST: FabFilter Volcano 2 (SC) (FabFilter)" "FabFilter Volcano 2 (SC).vst" 0 "" 1180054068
        NDJWRu9e7f4EAAAAAQAAAAAAAAACAAAAAAAAAAQAAAAAAAAACAAAAAAAAAAEAAAAAQAAAAAAAAACAAAAAAAAAAQAAAAAAAAACAAAAAAAAADcCwAAAAAAAAAAEAA=
        776t3g3wrd4AAAA/AAAAPwAAAD8AAAA/AACAPwAAAAAAAAA/q6qqPq2+aD8AAAA/ig0yPM3MzD0AAAAAAAAAAAAAAAAAAIA/AACAP0Isdj8AAAA/bbDgPZqZGT8AAAAA
        AAAAAOev3zwAAIA/AAAAAAAAgD8AAAA/AAAAAJqZGT8AAAAAAAAAAAAAAAAAAIA/AAAAAAAAgD8AAAA/AAAAAJqZGT8AAAAAAAAAAAAAAAAAAIA/AAAAAKuqqj4ATrI+
        AAAAPwAAAADBykk/XXRRPwAAAACJiIg9AACAP6oXiD4AAAAAAAAAAAAAAAAAAAAAAACAPwAAAAAAAAA/AAAAAAAAAAAAAAAAAAAAPwAAAAAAAAAAAAAAAAAAAD8AAAAA
        AAAAAAAAAAAAAAA/AAAAAAAAAAAAAAAAAAAAPwAAAAAAAAAAAAAAAAAAAD8AAAAAAAAAAAAAAAAAAAA/AAAAAAAAAAAAAAAAAAAAPwAAAAAAAAAAAAAAAAAAAD8AAAAA
        AAAAAAAAAAAAAAA/AAAAAAAAAAAAAAAAAAAAPwAAAAAAAAAAAAAAAAAAAD8AAAAAAAAAAAAAAAAAAAA/AAAAAAAAAAAAAAAAAAAAPwAAAAAAAAAAAAAAAHwZED4AAAA/
        KKO3PQAAgD8AAAAAAAAAAImIiD3y0iU/AAAAAAAAgD8AAAAAdGjRPQAAAAAAAIA/AAAAAAAAAD8AAAAAAAAAAAAAAAAAAAA/AAAAAAAAAAAAAAAAAAAAPwAAAAAAAAAA
        AAAAAAAAAD8AAAAAAAAAAAAAAAAAAAA/AAAAAAAAAAAAAAAAAAAAPwAAAAAAAAAAAAAAAAAAAD8AAAAAAAAAAAAAAAAAAAA/AAAAAAAAAAAAAAAAAAAAPwAAAAAAAAAA
        AAAAAAAAAD8AAAAAAAAAAAAAAAAAAAA/AAAAAAAAAAAAAAAAAAAAPwAAAAAAAAAAAAAAAAAAAD8AAAAAAAAAAAAAAAAAAAA/AAAAAAAAAAAAAAAAvvR9PgAAAD8AAAA/
        AAAAPwAAAAAAAAAAiYiIPQAAAD8AAAAAAAAAAAAAAAAAAAA/AAAAAAAAAAAAAAAAAAAAPwAAAAAAAAAAAAAAAAAAAD8AAAAAAAAAAAAAAAAAAAA/AAAAAAAAAAAAAAAA
        AAAAPwAAAAAAAAAAAAAAAAAAAD8AAAAAAAAAAAAAAAAAAAA/AAAAAAAAAAAAAAAAAAAAPwAAAAAAAAAAAAAAAAAAAD8AAAAAAAAAAAAAAAAAAAA/AAAAAAAAAAAAAAAA
        AAAAPwAAAAAAAAAAAAAAAAAAAD8AAAAAAAAAAAAAAAAAAAA/AAAAAAAAAAAAAAAAAAAAPwAAAAAAAAAAAAAAAAAAAD8AAAAAAAAAAAAAAAC+9H0+AAAAPwAAAD8AAAA/
        AAAAAAAAAACJiIg9AAAAPwAAAAAAAAAAAAAAAAAAAD8AAAAAAAAAAAAAAAAAAAA/AAAAAAAAAAAAAAAAAAAAPwAAAAAAAAAAAAAAAAAAAD8AAAAAAAAAAAAAAAAAAAA/
        AAAAAAAAAAAAAAAAAAAAPwAAAAAAAAAAAAAAAAAAAD8AAAAAAAAAAAAAAAAAAAA/AAAAAAAAAAAAAAAAAAAAPwAAAAAAAAAAAAAAAAAAAD8AAAAAAAAAAAAAAAAAAAA/
        AAAAAAAAAAAAAAAAAAAAPwAAAAAAAAAAAAAAAAAAAD8AAAAAAAAAAAAAAAAAAAA/AAAAAAAAAAAAAAAAAAAAPwAAAAAAAAAAAAAAAL70fT4AAAA/AAAAPwAAAD8AAAAA
        AAAAAImIiD0AAAA/AAAAAAAAAAAAAAAAAAAAPwAAAAAAAAAAAAAAAAAAAD8AAAAAAAAAAAAAAAAAAAA/AAAAAAAAAAAAAAAAAAAAPwAAAAAAAAAAAAAAAAAAAD8AAAAA
        AAAAAAAAAAAAAAA/AAAAAAAAAAAAAAAAAAAAPwAAAAAAAAAAAAAAAAAAAD8AAAAAAAAAAAAAAAAAAAA/AAAAAAAAAAAAAAAAAAAAPwAAAAAAAAAAAAAAAAAAAD8AAAAA
        AAAAAAAAAAAAAAA/AAAAAAAAAAAAAAAAAAAAPwAAAAAAAAAAAAAAAAAAAD8AAAAAAAAAAAAAAAAAAAA/AAAAAAAAAAAAAAAAvvR9PgAAAD8AAAA/AAAAPwAAAAAAAAAA
        iYiIPQAAAD8AAAAAAAAAAAAAAAAAAAA/AAAAAAAAAAAAAAAAAAAAPwAAAAAAAAAAAAAAAAAAAD8AAAAAAAAAAAAAAAAAAAA/AAAAAAAAAAAAAAAAAAAAPwAAAAAAAAAA
        AAAAAAAAAD8AAAAAAAAAAAAAAAAAAAA/AAAAAAAAAAAAAAAAAAAAPwAAAAAAAAAAAAAAAAAAAD8AAAAAAAAAAAAAAAAAAAA/AAAAAAAAAAAAAAAAAAAAPwAAAAAAAAAA
        AAAAAAAAAD8AAAAAAAAAAAAAAAAAAAA/AAAAAAAAAAAAAAAAAAAAPwAAAAAAAAAAAAAAAAAAAD8AAAAAAAAAAAAAAAAAAAAAmpmZPgAAAAAAAAAAAAAAAAAAgD8AAAAA
        mpmZPgAAAAAAAAAAAAAAAAAAgD8AAAAAmpmZPgAAAAAAAAAAAAAAAAAAgD8AAAAAmpmZPgAAAAAAAAAAAAAAAAAAgD8AAAAAmpmZPgAAAAAAAAAAAAAAAAAAgD8AAAAA
        mpmZPgAAAAAAAAAAAAAAAAAAgD8AAAAAAAAAAAAAAAAAAAAAAAAAAAAAAAAAAAAAAAAAAAAAAAAAAAAAAAAAAAAAAAAAAAAAAAAAAAAAAAAAAAAAAAAAAAAAAAAAAAAA
        AAAAAAAAAAAAAAAAAAAAAAAAAAAAAAAAAAAAAAAAAAAAAAAAAAAAAAAAAAAAAAAAAAAAAAAAAAAAAAAAAAAAAAAAAAAAAAAAAAAAAKuqKj3ZiZ09gShWPgAAAAAAAAAA
        v+eWPQAAAAAAAAA/AAAAAAAAAAAAAAAAAAAAAAAAAD8AAAAAAAAAAAAAAAAAAAAAAAAAPwAAAAAAAAAAAAAAAAAAAAAAAAAAAAAAAAAAAAAAAAAAAAAAAAAAAAAAAAAA
        AAAAAAAAAAAAAAAAAAAAAAAAAAAAAAAAAAAAAAAAAAAAAAAAAAAAAAAAAAAAAAAAAAAAAAAAAAAAAAAAAAAAAAAAAAAAAAAAAAAAAAAAAAAAAAAAAAAAAAAAAAAAAAAA
        AAAAAAAAAAAAAAAAAAAAAAAAAAAAAAAAAAAAAAAAAAAAAAAAAAAAAAAAAAAAAAAAAAAAAAAAAAAAAAAAAAAAAAAAAAAAAAAAAAAAAAAAAAAAAAAAAAAAAAAAAAAAAAAA
        AAAAAAAAAAAAAAAAAAAAAAAAAAAAAAAAAAAAAAAAAAAAAAAAAAAAAAAAAAAAAAAAAAAAAAAAAAAAAAAAAAAAAAAAAAAAAAAAAAAAAAAAAAAAAAAAAAAAAAAAAAAAAAAA
        AAAAAAAAAAAAAAAAAAAAAAAAAAAAAAAAAAAAAAAAAAAAAAAAAAAAAAAAAAAAAAAAAAAAAAAAAAAAAAAAAAAAAAAAAAAAAAAAAAAAAAAAAAAAAAAAAAAAPwAAAD8AAAA/
        AAAAPwAAAD8AAAA/AAAAPwAAAD8AAAAAAAAAAAAAAAAAAAAAAAAAAAAAAAAAAAAAAAAAAAAAAAAAAAAAAAAAAAAAAAAAAAAAAAAAAAAAAAAAAAAAAAAAAAAAAAAAAAAA
        AAAAAAAAAAAAAAAAAAAAAAAAAAAAAAAAAAAAAAAAAAAAAAAAAAAAAAAAAAAAAAAAAAAAAAAAAAAAAAAAAAAAAAAAAAAAAAAAAAAAAAAAAAAAAAAAAAAAAAAAAAAAAAAA
        AAAAAAAAAAAAAAAAAAAAAAAAAAAAAAAAAAAAAAAAAAAAAAAAAAAAAAAAAAAAAAAAAAAAAAAAAAAAAAAAAAAAAAAAAAAAAAAAAAAAAAAAAAAAAAAAAAAAAAAAAAAAAAAA
        AAAAAAAAAAAAAAAAAAAAAAAAAAAAAAAAAAAAAAAAAAAAAAAAAAAAAAAAAAAAAAAAAAAAAAAAAAAAAAAA
        Q2hpcEZyb250AENoaXBGcm9udAAQAAAA
      >
      PRESETNAME ChipFront
      FLOATPOS 36 32 641 529
      FXID {4C5A6810-F3ED-0645-A06D-6758F70CB097}
      WAK 0
    >
  >
  <TRACK {1B564899-9ACC-8C4B-8FBF-925A5A247A13}
    NAME ChipSide
    PEAKCOL 16576
    BEAT -1
    AUTOMODE 0
    VOLPAN 0.3981071705535 0 -1 -1 1
    MUTESOLO 0 0 0
    IPHASE 0
    ISBUS 0 0
    BUSCOMP 0 0
    SHOWINMIX 1 0.6667 0.5 1 0.111111 0 0 0
    FREEMODE 0
    SEL 0
    REC 0 0 0 0 0 0 0
    VU 2
    TRACKHEIGHT 63 0
    INQ 0 0 0 0.5 100 0 0 100
    NCHAN 2
    FX 1
    TRACKID {1B564899-9ACC-8C4B-8FBF-925A5A247A13}
    PERF 0
    AUXRECV 4 0 1.03113579563571 0 0 0 0 2 0 -1:U 0 -1 ''
    MIDIOUT -1
    MAINSEND 1 0
    <FXCHAIN
      SHOW 0
      LASTSEL 0
      DOCKED 0
      BYPASS 0 0 0
      <VST "VST: FabFilter Volcano 2 (SC) (FabFilter)" "FabFilter Volcano 2 (SC).vst" 0 "" 1180054068
        NDJWRu9e7f4EAAAAAQAAAAAAAAACAAAAAAAAAAQAAAAAAAAACAAAAAAAAAAIAAAAAQAAAAAAAAACAAAAAAAAAAQAAAAAAAAACAAAAAAAAAAQAAAAAAAAACAAAAAAAAAA
        QAAAAAAAAACAAAAAAAAAANwLAAAAAAAAAAAQAA==
        776t3g3wrd4AAAA/AAAAPwAAAD8AAAA/AACAPwAAAAAAAIA/q6qqPsplFD8AAAA/TxqgPc3MzD0AAAAAAAAAAEKGIj8AAIA/AACAP0Isdj8AAAA/bbDgPZqZGT8AAAAA
        AAAAAOev3zwAAIA/AAAAAAAAgD8AAAA/AAAAAJqZGT8AAAAAAAAAAAAAAAAAAIA/AAAAAAAAgD8AAAA/AAAAAJqZGT8AAAAAAAAAAAAAAAAAAIA/AAAAAKuqqj6CdAA9
        EObJPZgn+j4AAIA/AAAAAAAAAACJiAg+AACAP7PDtD4AAIA/AAAAAAAAAAAAAAAAq6qqPgAAAACeFR0/AAAAAAAAgD8AAAAAAAAAPwAAAAAAAAAAAAAAAAAAAD8AAAAA
        AAAAAAAAAAAAAAA/AAAAAAAAAAAAAAAAAAAAPwAAAAAAAAAAAAAAAAAAAD8AAAAAAAAAAAAAAAAAAAA/AAAAAAAAAAAAAAAAAAAAPwAAAAAAAAAAAAAAAAAAAD8AAAAA
        AAAAAAAAAAAAAAA/AAAAAAAAAAAAAAAAAAAAPwAAAAAAAAAAAAAAAAAAAD8AAAAAAAAAAAAAAAAAAAA/AAAAAAAAAAAAAAAAAAAAPwAAAAAAAAAAAAAAAHwZED4AAAA/
        KKO3PQAAgD8AAAAAAAAAAImIiD3y0iU/AAAAAAAAgD8AAAAAdGjRPQAAAAAAAIA/AAAAAAAAAD8AAAAAAAAAAAAAAAAAAAA/AAAAAAAAAAAAAAAAAAAAPwAAAAAAAAAA
        AAAAAAAAAD8AAAAAAAAAAAAAAAAAAAA/AAAAAAAAAAAAAAAAAAAAPwAAAAAAAAAAAAAAAAAAAD8AAAAAAAAAAAAAAAAAAAA/AAAAAAAAAAAAAAAAAAAAPwAAAAAAAAAA
        AAAAAAAAAD8AAAAAAAAAAAAAAAAAAAA/AAAAAAAAAAAAAAAAAAAAPwAAAAAAAAAAAAAAAAAAAD8AAAAAAAAAAAAAAAAAAAA/AAAAAAAAAAAAAAAAvvR9PgAAAD8AAAA/
        AAAAPwAAAAAAAAAAiYiIPQAAAD8AAAAAAAAAAAAAAAAAAAA/AAAAAAAAAAAAAAAAAAAAPwAAAAAAAAAAAAAAAAAAAD8AAAAAAAAAAAAAAAAAAAA/AAAAAAAAAAAAAAAA
        AAAAPwAAAAAAAAAAAAAAAAAAAD8AAAAAAAAAAAAAAAAAAAA/AAAAAAAAAAAAAAAAAAAAPwAAAAAAAAAAAAAAAAAAAD8AAAAAAAAAAAAAAAAAAAA/AAAAAAAAAAAAAAAA
        AAAAPwAAAAAAAAAAAAAAAAAAAD8AAAAAAAAAAAAAAAAAAAA/AAAAAAAAAAAAAAAAAAAAPwAAAAAAAAAAAAAAAAAAAD8AAAAAAAAAAAAAAAC+9H0+AAAAPwAAAD8AAAA/
        AAAAAAAAAACJiIg9AAAAPwAAAAAAAAAAAAAAAAAAAD8AAAAAAAAAAAAAAAAAAAA/AAAAAAAAAAAAAAAAAAAAPwAAAAAAAAAAAAAAAAAAAD8AAAAAAAAAAAAAAAAAAAA/
        AAAAAAAAAAAAAAAAAAAAPwAAAAAAAAAAAAAAAAAAAD8AAAAAAAAAAAAAAAAAAAA/AAAAAAAAAAAAAAAAAAAAPwAAAAAAAAAAAAAAAAAAAD8AAAAAAAAAAAAAAAAAAAA/
        AAAAAAAAAAAAAAAAAAAAPwAAAAAAAAAAAAAAAAAAAD8AAAAAAAAAAAAAAAAAAAA/AAAAAAAAAAAAAAAAAAAAPwAAAAAAAAAAAAAAAL70fT4AAAA/AAAAPwAAAD8AAAAA
        AAAAAImIiD0AAAA/AAAAAAAAAAAAAAAAAAAAPwAAAAAAAAAAAAAAAAAAAD8AAAAAAAAAAAAAAAAAAAA/AAAAAAAAAAAAAAAAAAAAPwAAAAAAAAAAAAAAAAAAAD8AAAAA
        AAAAAAAAAAAAAAA/AAAAAAAAAAAAAAAAAAAAPwAAAAAAAAAAAAAAAAAAAD8AAAAAAAAAAAAAAAAAAAA/AAAAAAAAAAAAAAAAAAAAPwAAAAAAAAAAAAAAAAAAAD8AAAAA
        AAAAAAAAAAAAAAA/AAAAAAAAAAAAAAAAAAAAPwAAAAAAAAAAAAAAAAAAAD8AAAAAAAAAAAAAAAAAAAA/AAAAAAAAAAAAAAAAvvR9PgAAAD8AAAA/AAAAPwAAAAAAAAAA
        iYiIPQAAAD8AAAAAAAAAAAAAAAAAAAA/AAAAAAAAAAAAAAAAAAAAPwAAAAAAAAAAAAAAAAAAAD8AAAAAAAAAAAAAAAAAAAA/AAAAAAAAAAAAAAAAAAAAPwAAAAAAAAAA
        AAAAAAAAAD8AAAAAAAAAAAAAAAAAAAA/AAAAAAAAAAAAAAAAAAAAPwAAAAAAAAAAAAAAAAAAAD8AAAAAAAAAAAAAAAAAAAA/AAAAAAAAAAAAAAAAAAAAPwAAAAAAAAAA
        AAAAAAAAAD8AAAAAAAAAAAAAAAAAAAA/AAAAAAAAAAAAAAAAAAAAPwAAAAAAAAAAAAAAAAAAAD8AAAAAAAAAAAAAAAAAAAAAmpmZPgAAAAAAAAAAAAAAAAAAgD8AAAAA
        mpmZPgAAAAAAAAAAAAAAAAAAgD8AAAAAmpmZPgAAAAAAAAAAAAAAAAAAgD8AAAAAmpmZPgAAAAAAAAAAAAAAAAAAgD8AAAAAmpmZPgAAAAAAAAAAAAAAAAAAgD8AAAAA
        mpmZPgAAAAAAAAAAAAAAAAAAgD8AAAAAAAAAAAAAAAAAAAAAAAAAAAAAAAAAAAAAAAAAAAAAAAAAAAAAAAAAAAAAAAAAAAAAAAAAAAAAAAAAAAAAAAAAAAAAAAAAAAAA
        AAAAAAAAAAAAAAAAAAAAAAAAAAAAAAAAAAAAAAAAAAAAAAAAAAAAAAAAAAAAAAAAAAAAAAAAAAAAAAAAAAAAAAAAAAAAAAAAAAAAAKuqqj3ZiZ09gShWPgAAgD8AAAAA
        v+eWPdmJHT0WszE/AAAAAAAAAACSdiw8AAAAAAAAAD8AAAAAAAAAAAAAAAAAAAAAAAAAPwAAAAAAAAAAAAAAAAAAAAAAAAAAAAAAAAAAAAAAAAAAAAAAAAAAAAAAAAAA
        AAAAAAAAAAAAAAAAAAAAAAAAAAAAAAAAAAAAAAAAAAAAAAAAAAAAAAAAAAAAAAAAAAAAAAAAAAAAAAAAAAAAAAAAAAAAAAAAAAAAAAAAAAAAAAAAAAAAAAAAAAAAAAAA
        AAAAAAAAAAAAAAAAAAAAAAAAAAAAAAAAAAAAAAAAAAAAAAAAAAAAAAAAAAAAAAAAAAAAAAAAAAAAAAAAAAAAAAAAAAAAAAAAAAAAAAAAAAAAAAAAAAAAAAAAAAAAAAAA
        AAAAAAAAAAAAAAAAAAAAAAAAAAAAAAAAAAAAAAAAAAAAAAAAAAAAAAAAAAAAAAAAAAAAAAAAAAAAAAAAAAAAAAAAAAAAAAAAAAAAAAAAAAAAAAAAAAAAAAAAAAAAAAAA
        AAAAAAAAAAAAAAAAAAAAAAAAAAAAAAAAAAAAAAAAAAAAAAAAAAAAAAAAAAAAAAAAAAAAAAAAAAAAAAAAAAAAAAAAAAAAAAAAAAAAAAAAAAAAAAAAAAAAPwAAAD8AAAA/
        AAAAPwAAAD8AAAA/AAAAPwAAAD8AAAAAAAAAAAAAAAAAAAAAAAAAAAAAAAAAAAAAAAAAAAAAAAAAAAAAAAAAAAAAAAAAAAAAAAAAAAAAAAAAAAAAAAAAAAAAAAAAAAAA
        AAAAAAAAAAAAAAAAAAAAAAAAAAAAAAAAAAAAAAAAAAAAAAAAAAAAAAAAAAAAAAAAAAAAAAAAAAAAAAAAAAAAAAAAAAAAAAAAAAAAAAAAAAAAAAAAAAAAAAAAAAAAAAAA
        AAAAAAAAAAAAAAAAAAAAAAAAAAAAAAAAAAAAAAAAAAAAAAAAAAAAAAAAAAAAAAAAAAAAAAAAAAAAAAAAAAAAAAAAAAAAAAAAAAAAAAAAAAAAAAAAAAAAAAAAAAAAAAAA
        AAAAAAAAAAAAAAAAAAAAAAAAAAAAAAAAAAAAAAAAAAAAAAAAAAAAAAAAAAAAAAAAAAAAAAAAAAAAAAAA
        Q2hpcFNpZGUAQ2hpcFNpZGUAEAAAAA==
      >
      PRESETNAME ChipSide
      FLOATPOS 36 32 641 529
      FXID {20356A84-5CFD-6E4A-AA26-2A8A49CE7A76}
      WAK 0
    >
  >
  <EXTENSIONS
    <SWSAUTOCOLOR
      {00000000-0000-0000-0000-000000000000} 0 "" "" ""
    >
    <BR_CURSOR_POS 04
      0.00000000000000
    >
  >
>
