<REAPER_PROJECT 0.1 "4.77/OSX64" 1423875715
  RIPPLE 0
  GROUPOVERRIDE 0 0 0
  AUTOXFADE 0
  ENVATTACH 1
  MIXERUIFLAGS 11 52
  PEAKGAIN 1
  FEEDBACK 0
  PANLAW 1
  PROJOFFS 0 0
  MAXPROJLEN 0 600
  GRID 174206 8 1 8 1 0 0
  TIMEMODE 6 0 -1 24 2
  PANMODE 3
  CURSOR 0
  ZOOM 16.15055828898458 0 0
  VZOOMEX 15
  USE_REC_CFG 0
  RECMODE 1
  SMPTESYNC 0 23.976024 100 40 1000 300 0 0 1
  LOOP 1
  LOOPGRAN 0 4
  RECORD_PATH "" ""
  <RECORD_CFG
    ZXZhdxAA
  >
  <APPLYFX_CFG
  >
  RENDER_FILE ""
  RENDER_PATTERN ""
  RENDER_FMT 0 2 0
  RENDER_1X 0
  RENDER_RANGE 1 0 0
  RENDER_RESAMPLE 3 0 1
  RENDER_ADDTOPROJ 0
  RENDER_STEMS 0
  RENDER_DITHER 0
  TIMELOCKMODE 1
  TEMPOENVLOCKMODE 1
  ITEMMIX 1
  DEFPITCHMODE 589824
  TAKELANE 3
  SAMPLERATE 44100 0 0
  <RENDER_CFG
  >
  LOCK 1
  <METRONOME 6 2
    VOL 0.25 0.125
    FREQ 800 1600 1
    BEATLEN 4
    SAMPLES "" ""
  >
  GLOBAL_AUTO -1
  SELECTIONSET 9 "Selection set 10"
  TEMPO 120 4 4
  PLAYRATE 1 0 0.25 4
  SELECTION 0 40
  SELECTION2 0 40
  MASTERAUTOMODE 0
  MASTERTRACKHEIGHT 0
  MASTERPEAKCOL 16576
  MASTERMUTESOLO 0
  MASTERTRACKVIEW 0 0.6667 0.5 0.5 -1 -1 -1
  MASTERHWOUT 0 0 1 0 0 0 0 -1
  MASTER_NCH 2 2
  MASTER_VOLUME 1 0 -1 -1 1
  MASTER_FX 1
  MASTER_SEL 0
  <MASTERPLAYSPEEDENV
    ACT 0
    VIS 0 1 1
    LANEHEIGHT 0 0
    ARM 0
    DEFSHAPE 0 -1 -1
  >
  <TEMPOENVEX
    ACT 0
    VIS 1 0 1
    LANEHEIGHT 0 0
    ARM 0
    DEFSHAPE 1 -1 -1
  >
  <SCREENSET
    <SET
      POS 0
      NAME "Untitled View State (2014/11/27 21:01)"
      MASK -1
      CURSORPOS 0
      SCROLLX 0 0
      TRACKSCALE 16.15055829
      SCROLLY 0
      VZOOM 10
      TRACKHEIGHT {8751D64D-1703-0245-8AC9-9769FDECC3FE} 0 0 0 0.6667 0.5 0.5 0 -1 -1 -1 0
      TRACKHEIGHT {F4CC3575-1D7D-424F-8F4B-C71B325A2484} 0 1 0 0.6667 0.5 0.5 0 -1 -1 -1 1
      TRACKHEIGHT {65BF5D08-DF3D-EA42-ADEF-5C04FE4BCE10} 0 1 0 0.6667 0.5 0.5 0 -1 -1 -1 1
      TRACKHEIGHT {533E5558-895F-AD41-AFED-94D097E72BF2} 0 1 0 0.6667 0.5 0.5 0 -1 -1 -1 1
      TRACKHEIGHT {DC881F95-51DF-D54C-8E6E-A00A3A62AB60} 459 1 0 0.6667 0.5 0.5 0 -1 -1 -1 1
    >
    <SET
      POS 9
      NAME "Untitled View State (2014/11/27 21:01)"
      MASK -1
      CURSORPOS 8
      SCROLLX 0 0
      TRACKSCALE 100
      SCROLLY 0
      VZOOM 4
      TRACKHEIGHT {8751D64D-1703-0245-8AC9-9769FDECC3FE} 194 1 0 0.6667 0.5 0.5 0 -1 -1 -1 1
      TRACKHEIGHT {F4CC3575-1D7D-424F-8F4B-C71B325A2484} 0 0 0 0.6667 0.5 0.5 0 -1 -1 -1 0
      TRACKHEIGHT {65BF5D08-DF3D-EA42-ADEF-5C04FE4BCE10} 0 0 0 0.6667 0.5 0.5 0 -1 -1 -1 0
      TRACKHEIGHT {533E5558-895F-AD41-AFED-94D097E72BF2} 0 0 0 0.6667 0.5 0.5 0 -1 -1 -1 0
      TRACKHEIGHT {DC881F95-51DF-D54C-8E6E-A00A3A62AB60} 0 0 0 0.6667 0.5 0.5 0 -1 -1 -1 0
    >
  >
  <PROJBAY
  >
  <TRACK {8751D64D-1703-0245-8AC9-9769FDECC3FE}
    NAME ""
    PEAKCOL 16576
    BEAT -1
    AUTOMODE 0
    VOLPAN 1 0 -1 -1 1
    MUTESOLO 0 0 0
    IPHASE 0
    ISBUS 0 0
    BUSCOMP 0 0
    SHOWINMIX 0 0.6667 0.5 0 0.5 -1 -1 -1
    FREEMODE 0
    SEL 0
    REC 0 0 0 0 0 0 0
    VU 2
    TRACKHEIGHT 0 0
    INQ 0 0 0 0.5 100 0 0 100
    NCHAN 2
    FX 1
    TRACKID {8751D64D-1703-0245-8AC9-9769FDECC3FE}
    PERF 0
    MIDIOUT -1
    MAINSEND 1 0
    <ITEM
      POSITION 0
      SNAPOFFS 0
      LENGTH 2
      LOOP 1
      ALLTAKES 0
      FADEIN 1 0 0 1 0 0
      FADEOUT 1 0 0 1 0 0
      MUTE 0
      SEL 0
      IGUID {7122B959-8231-ED43-955E-2786099A23DB}
      IID 12
      NAME cursor
      VOLPAN 1 0 1 -1
      SOFFS 0 0
      PLAYRATE 1 1 0 -1 0 0.0025
      CHANMODE 0
      GUID {739798FC-DC41-2943-952E-538935740FF9}
      <SOURCE MIDI
        HASDATA 1 960 QN
        POOLEDEVTS {45C44F82-A6CA-E645-97A9-F51228939815}
        E 3840 b0 7b 00
        GUID {FF9BDD25-6D86-C54B-9F82-107649B91356}
        IGNTEMPO 0 120 4 4
        SRCCOLOR 293
        VELLANE -1 86 6
      >
      TAKE
      NAME item
      TAKEVOLPAN 0 1 -1
      SOFFS 0 0
      PLAYRATE 1 1 0 -1 0 0.0025
      CHANMODE 0
      GUID {6698ACDA-04B0-4B49-9A91-4E5D9E3273C3}
      <SOURCE MIDI
        HASDATA 1 960 QN
        POOLEDEVTS {3BEC6E52-3FE3-F642-9824-B74FF8679400}
        E 3840 b0 7b 00
        GUID {F2C21D6C-D2C8-004F-BA94-9DFCCB0C3114}
        IGNTEMPO 0 120 4 4
        SRCCOLOR 294
        VELLANE -1 86 6
      >
      TAKE
      NAME cursor_item_FNG
      TAKEVOLPAN 0 1 -1
      SOFFS 0 0
      PLAYRATE 1 1 0 -1 0 0.0025
      CHANMODE 0
      GUID {67C71629-A2A5-4E4E-9598-09BDC26E3B23}
      <SOURCE MIDI
        HASDATA 1 960 QN
        POOLEDEVTS {4F5F4D63-1AA3-2C42-AA63-448C634EB1AE}
        E 3840 b0 7b 00
        GUID {EA0398BD-A122-6B43-AD24-4A8587C51195}
        IGNTEMPO 0 120 4 4
        SRCCOLOR 295
        VELLANE -1 86 6
      >
      TAKE
      NAME cursor_item_XEN
      TAKEVOLPAN 0 1 -1
      SOFFS 0 0
      PLAYRATE 1 1 0 -1 0 0.0025
      CHANMODE 0
      GUID {E4E69E95-3596-AA4D-AF1A-9D963B7C14B8}
      <SOURCE MIDI
        HASDATA 1 960 QN
        POOLEDEVTS {E2989032-176D-EE44-B8F1-DAFA5AE84DE3}
        E 3840 b0 7b 00
        GUID {6069F8D0-187C-5045-B9F3-AF8E55BC5CE8}
        IGNTEMPO 0 120 4 4
        SRCCOLOR 292
        VELLANE 31 86 6
      >
    >
  >
  <TRACK {F3878D93-55B4-4944-A4BF-4AA9BB7FBCBE}
    NAME ""
    PEAKCOL 16576
    BEAT -1
    AUTOMODE 0
    VOLPAN 1 0 -1 -1 1
    MUTESOLO 0 0 0
    IPHASE 0
    ISBUS 0 0
    BUSCOMP 0 0
    SHOWINMIX 1 0.6667 0.5 1 0.5 -1 -1 -1
    FREEMODE 0
    SEL 1
    REC 0 0 0 0 0 0 0
    VU 2
    TRACKHEIGHT 1 0
    INQ 0 0 0 0.5 100 0 0 100
    NCHAN 2
    FX 1
    TRACKID {F3878D93-55B4-4944-A4BF-4AA9BB7FBCBE}
    PERF 0
    MIDIOUT -1
    MAINSEND 1 0
    <ITEM
      POSITION 0
      SNAPOFFS 0
      LENGTH 40
      LOOP 1
      ALLTAKES 0
      FADEIN 1 0 0 1 0 0
      FADEOUT 1 0 0 1 0 0
      MUTE 0
      SEL 0
      YPOS 0.637363 0.05
      IGUID {B1E1E12D-E103-5E49-A991-053CE1F1F908}
      IID 5
      NAME "strings (hi) - National_Anthems_-_Singapore.mid"
      VOLPAN 1 0 1 -1
      SOFFS 0 0
      PLAYRATE 1 1 0 -1 0 0.0025
      CHANMODE 0
      GUID {EC87255F-CC7D-BA4F-9F29-93E28A747EFA}
      <SOURCE MIDI
        HASDATA 1 480 QN
        POOLEDEVTS {262EAAFF-4FF5-0944-AA66-34ACE47F81A4}
        <X 0 0
          /wNzdHJpbmdzIChoaSk=
        >
        <X 0 0
          /wRTb3VuZCBDYW52YXM=
        >
        E 3091 94 48 4e
        E 9 94 3c 57
        E 216 84 48 0d
        E 11 94 4d 52
        E 2 84 3c 21
        E 3 94 41 5a
        E 244 94 4f 5f
        E 4 94 43 65
        E 15 84 41 2a
        E 3 84 4d 01
        E 213 84 43 3b
        E 2 84 4f 33
        E 0 94 45 4f
        E 13 94 51 4d
        E 420 84 51 41
        E 5 84 45 2b
        E 57 94 45 65
        E 2 94 51 4e
        E 382 84 45 29
        E 13 84 51 34
        E 86 94 51 4e
        E 0 94 45 5f
        E 211 94 43 6a
        E 9 94 4f 4e
        E 6 84 51 33
        E 15 84 45 2b
        E 176 84 43 0e
        E 39 94 41 4f
        E 10 94 4d 47
        E 5 84 4f 27
        E 215 84 41 2d
        E 3 94 40 4f
        E 2 94 4c 55
        E 8 84 4d 23
        E 249 94 4d 55
        E 5 94 41 62
        E 2 84 4c 19
        E 3 84 40 2c
        E 365 84 41 47
        E 17 84 4d 3e
        E 79 94 4d 4d
        E 11 94 41 57
        E 395 84 4d 3c
        E 13 84 41 2d
        E 64 94 4d 5f
        E 15 94 41 6a
        E 205 94 40 5d
        E 7 84 41 22
        E 13 94 4c 55
        E 23 84 4d 21
        E 195 84 40 01
        E 1 94 3e 5f
        E 3 94 4a 57
        E 5 84 4c 3c
        E 227 84 3e 1b
        E 0 84 4a 3f
        E 9 94 48 52
        E 1 94 3c 4d
        E 240 94 3e 5a
        E 2 84 3c 3b
        E 22 94 4a 57
        E 1 84 48 2b
        E 477 84 4a 38
        E 11 94 48 47
        E 5 94 3c 4d
        E 4 84 3e 35
        E 485 84 3c 46
        E 54 84 48 01
        E 133 94 4d 5d
        E 1 94 41 5f
        E 233 94 4f 52
        E 1 94 43 67
        E 5 84 4d 20
        E 4 84 41 43
        E 230 84 4f 36
        E 11 94 41 5a
        E 5 94 4d 55
        E 1 84 43 30
        E 235 84 41 2d
        E 15 94 40 4b
        E 4 84 4d 36
        E 1 94 4c 57
        E 1016 84 40 2e
        E 30 84 4c 3e
        E 157 94 3c 62
        E 4 94 48 4a
        E 218 84 3c 2b
        E 12 94 4c 5a
        E 0 94 40 5a
        E 10 84 48 17
        E 222 94 41 4e
        E 3 94 4d 52
        E 2 84 4c 16
        E 8 84 40 23
        E 237 84 4d 42
        E 4 84 41 3c
        E 1 94 43 65
        E 5 94 4f 4d
        E 457 94 40 5d
        E 2 84 4f 3f
        E 1 94 4c 57
        E 17 84 43 20
        E 438 84 40 3c
        E 7 94 4d 5a
        E 1 94 41 5f
        E 24 84 4c 18
        E 455 84 4d 3c
        E 5 94 43 5f
        E 3 94 4f 52
        E 11 84 41 43
        E 470 84 43 40
        E 7 94 51 52
        E 2 94 45 55
        E 4 84 4f 32
        E 242 84 45 1d
        E 10 84 51 01
        E 99 94 4a 57
        E 10 94 56 5a
        E 130 84 56 3f
        E 6 84 4a 29
        E 2 94 48 3d
        E 1 94 54 57
        E 1283 84 48 15
        E 10 84 54 33
        E 119 94 45 57
        E 7 94 51 55
        E 232 84 45 28
        E 7 84 51 1f
        E 112 94 45 5a
        E 15 94 51 55
        E 116 94 54 5f
        E 17 94 48 4f
        E 2 84 45 45
        E 13 84 51 08
        E 553 84 48 14
        E 94 84 54 15
        E 22 94 3c 5a
        E 20 94 48 4e
        E 205 94 40 5d
        E 2 84 3c 39
        E 14 94 4c 57
        E 29 84 48 23
        E 200 94 4f 55
        E 6 94 43 62
        E 3 84 4c 26
        E 8 84 40 3b
        E 223 94 41 55
        E 20 94 4d 55
        E 1 84 43 3e
        E 24 84 4f 42
        E 1281 84 41 33
        E 18 84 4d 25
        E 158 94 41 57
        E 5 94 4d 62
        E 200 84 41 46
        E 15 84 4d 27
        E 91 94 41 57
        E 14 94 4d 5a
        E 141 84 41 4c
        E 3 94 52 62
        E 0 94 46 6a
        E 2 84 4d 12
        E 462 94 56 57
        E 9 94 4a 57
        E 3 84 52 0d
        E 13 84 46 33
        E 376 84 4a 35
        E 2 84 56 3b
        E 69 94 56 52
        E 3 94 4a 57
        E 484 94 48 5a
        E 5 94 54 57
        E 6 84 4a 3c
        E 5 84 56 20
        E 289 84 48 01
        E 26 94 47 5a
        E 2 94 53 4d
        E 9 84 54 33
        E 140 94 54 5a
        E 4 84 47 20
        E 3 94 48 52
        E 13 84 53 30
        E 987 84 48 26
        E 34 84 54 49
        E 151 94 3c 67
        E 10 94 48 5a
        E 213 84 3c 3c
        E 9 94 40 5f
        E 8 94 4c 5f
        E 9 84 48 07
        E 227 94 41 57
        E 3 94 4d 55
        E 7 84 40 26
        E 3 84 4c 01
        E 225 84 4d 39
        E 10 94 43 65
        E 8 84 41 31
        E 2 94 4f 52
        E 465 84 4f 2b
        E 1 94 40 57
        E 5 94 4c 3f
        E 10 84 43 1f
        E 450 94 4d 5d
        E 1 94 41 65
        E 6 84 40 33
        E 10 84 4c 14
        E 463 94 43 65
        E 2 94 4f 52
        E 18 84 4d 17
        E 0 84 41 39
        E 461 94 51 55
        E 4 94 45 57
        E 16 84 4f 3a
        E 4 84 43 21
        E 1185 84 45 07
        E 19 84 51 10
        E 204 94 41 65
        E 3 94 4d 57
        E 263 84 41 34
        E 32 84 4d 31
        E 56 94 41 62
        E 5 94 4d 5a
        E 146 94 52 62
        E 12 84 4d 17
        E 5 94 46 6a
        E 13 84 41 40
        E 449 94 56 55
        E 8 94 4a 4e
        E 18 84 46 34
        E 1 84 52 26
        E 407 84 4a 34
        E 4 84 56 49
        E 65 94 4a 5f
        E 8 94 56 4e
        E 463 94 48 5a
        E 7 94 54 5d
        E 7 84 56 35
        E 2 84 4a 22
        E 288 84 54 3f
        E 12 94 47 5a
        E 3 84 48 2b
        E 0 94 53 4e
        E 162 94 54 62
        E 7 94 48 57
        E 5 84 53 3d
        E 1 84 47 38
        E 1348 84 48 01
        E 29 84 54 38
        E 543 94 45 65
        E 11 94 51 57
        E 301 94 43 6a
        E 10 84 51 36
        E 5 84 45 1e
        E 3 94 4f 55
        E 128 84 43 37
        E 2 94 41 62
        E 7 84 4f 35
        E 2 94 4d 55
        E 538 84 41 43
        E 38 84 4d 1f
        E 110 94 41 65
        E 17 94 4d 5a
        E 218 94 45 5f
        E 6 94 51 57
        E 4 84 41 32
        E 5 84 4d 01
        E 241 94 46 5d
        E 1 84 45 01
        E 3 94 52 5f
        E 3 84 51 01
        E 225 84 46 34
        E 10 94 48 57
        E 2 94 54 57
        E 21 84 52 01
        E 1679 84 48 3c
        E 15 84 54 4e
        E 232 94 54 6d
        E 1 94 48 65
        E 307 84 48 28
        E 4 84 54 41
        E 7 94 4a 57
        E 4 94 56 4e
        E 140 94 48 62
        E 5 94 54 67
        E 3 84 4a 41
        E 7 84 56 43
        E 689 94 46 6f
        E 7 94 52 67
        E 24 84 48 33
        E 30 84 54 30
        E 191 84 46 2d
        E 3 94 51 5d
        E 1 94 45 65
        E 11 84 52 1a
        E 232 94 43 6f
        E 2 84 45 30
        E 7 84 51 3b
        E 5 94 4f 5f
        E 234 84 43 34
        E 4 94 41 5f
        E 2 84 4f 36
        E 0 94 4d 5a
        E 1464 84 41 60
        E 6 84 4d 64
        E 453 b0 7b 00
        GUID {F174EFE4-3E5C-544C-B521-75B1DF0B3B5C}
        IGNTEMPO 0 120 4 4
        SRCCOLOR 259
        VELLANE -1 86 6
      >
    >
    <ITEM
      POSITION 0
      SNAPOFFS 0
      LENGTH 40
      LOOP 1
      ALLTAKES 0
      FADEIN 1 0 0 1 0 0
      FADEOUT 1 0 0 1 0 0
      MUTE 0
      SEL 0
      YPOS 0.796703 0.05
      IGUID {1C522B69-4950-1140-9E28-D816C30A89C6}
      IID 6
      NAME "strings (mid) - National_Anthems_-_Singapore.mid"
      VOLPAN 1 0 1 -1
      SOFFS 0 0
      PLAYRATE 1 1 0 -1 0 0.0025
      CHANMODE 0
      GUID {ACFC6398-7720-0542-9494-525E9F41B08D}
      <SOURCE MIDI
        HASDATA 1 480 QN
        POOLEDEVTS {CBF9D4D0-6063-7F48-8CB6-6B1114A9A286}
        <X 0 0
          /wNzdHJpbmdzIChtaWQp
        >
        <X 0 0
          /wRTb3VuZCBDYW52YXM=
        >
        E 0 95 41 6d
        E 459 85 41 4f
        E 1 95 3c 5f
        E 206 95 41 6a
        E 18 85 3c 2d
        E 207 95 45 6a
        E 12 85 41 44
        E 225 95 41 6a
        E 6 85 45 45
        E 228 95 45 6f
        E 34 85 41 01
        E 207 95 4a 6d
        E 25 85 45 24
        E 219 85 4a 4e
        E 3 95 48 6a
        E 1035 85 48 4e
        E 231 95 3c 5d
        E 219 95 41 65
        E 3 85 3c 01
        E 226 85 41 3e
        E 1 95 43 57
        E 238 85 43 47
        E 28 95 3c 5a
        E 5 95 39 4e
        E 364 85 39 2e
        E 94 95 3d 65
        E 7 95 39 4e
        E 10 85 3c 27
        E 344 85 39 23
        E 121 95 3e 55
        E 4 85 3d 1c
        E 5 95 39 4a
        E 799 85 39 15
        E 144 95 39 57
        E 10 85 3e 1a
        E 399 85 39 31
        E 75 95 39 5f
        E 384 85 39 36
        E 89 95 39 57
        E 382 85 39 24
        E 102 95 39 4d
        E 472 85 39 01
        E 5 95 3a 6a
        E 486 95 37 57
        E 12 85 3a 27
        E 469 95 39 62
        E 10 85 37 2a
        E 416 85 39 34
        E 44 95 39 55
        E 464 85 39 42
        E 47 95 39 5f
        E 99 85 39 26
        E 7 95 3c 57
        E 885 85 3c 26
        E 189 95 3c 65
        E 516 95 3e 5f
        E 27 85 3c 11
        E 189 95 40 62
        E 9 85 3e 21
        E 442 95 3c 5f
        E 21 85 40 26
        E 467 95 3e 65
        E 7 85 3c 37
        E 477 95 40 65
        E 16 85 3e 40
        E 453 85 40 43
        E 8 95 41 5d
        E 428 85 41 1d
        E 72 95 41 4f
        E 1 95 45 5a
        E 684 85 41 0c
        E 9 85 45 27
        E 10 95 3c 5a
        E 212 95 41 65
        E 20 85 3c 4a
        E 210 95 43 6a
        E 32 85 41 33
        E 220 85 43 36
        E 4 95 41 57
        E 2 95 3c 48
        E 526 95 45 5a
        E 23 85 3c 32
        E 665 85 45 2a
        E 1 95 3c 4a
        E 10 85 41 3a
        E 624 85 3c 1d
        E 78 95 3c 4a
        E 4 95 39 52
        E 1345 85 3c 42
        E 2 85 39 3d
        E 627 95 41 52
        E 2 95 3e 4f
        E 372 85 41 21
        E 76 95 46 4d
        E 2 95 41 3d
        E 43 85 3e 40
        E 802 85 46 1e
        E 82 95 45 5a
        E 65 85 41 34
        E 291 95 44 5a
        E 11 85 45 26
        E 146 95 45 5a
        E 21 85 44 31
        E 1062 85 45 2c
        E 107 95 3c 57
        E 258 95 40 47
        E 30 85 3c 01
        E 201 85 40 16
        E 0 95 41 3f
        E 211 85 41 38
        E 29 95 40 57
        E 464 95 3c 5a
        E 27 85 40 28
        E 439 95 3e 5f
        E 35 85 3c 1e
        E 455 95 40 5f
        E 15 85 3e 09
        E 440 85 40 2b
        E 12 95 41 57
        E 1 95 3c 4a
        E 1359 85 3c 01
        E 6 85 41 3f
        E 71 95 41 57
        E 214 85 41 40
        E 108 95 41 52
        E 137 85 41 28
        E 40 95 41 45
        E 15 95 3e 4e
        E 484 95 46 4e
        E 18 85 3e 21
        E 839 85 46 2e
        E 74 95 45 5d
        E 156 85 41 19
        E 175 95 44 4f
        E 7 85 45 26
        E 161 85 44 3d
        E 5 95 45 57
        E 8 95 41 4e
        E 748 85 45 36
        E 49 95 45 48
        E 351 85 41 41
        E 192 85 45 01
        E 84 95 3c 65
        E 446 85 3c 2f
        E 37 95 3c 4f
        E 622 95 41 65
        E 409 85 41 43
        E 29 95 39 4d
        E 282 85 3c 01
        E 346 85 39 2d
        E 243 95 3c 57
        E 0 95 45 55
        E 1599 85 45 21
        E 15 85 3c 1e
        E 304 95 46 5f
        E 7 95 40 57
        E 970 95 3c 4f
        E 36 85 46 37
        E 122 85 40 0d
        E 314 95 40 4f
        E 450 95 39 47
        E 26 85 40 3c
        E 1456 85 3c 58
        E 6 85 39 54
        E 466 b0 7b 00
        GUID {BF42AB19-29D9-6E4A-91BF-6C250523BFB1}
        IGNTEMPO 0 120 4 4
        SRCCOLOR 260
        VELLANE -1 86 6
      >
    >
    <ITEM
      POSITION 0
      SNAPOFFS 0
      LENGTH 40
      LOOP 1
      ALLTAKES 0
      FADEIN 1 0 0 1 0 0
      FADEOUT 1 0 0 1 0 0
      MUTE 0
      SEL 0
      YPOS 0.95 0.05
      IGUID {FF5FEE55-254A-7740-A9A9-329013A13B8C}
      IID 7
      NAME "strings (bass) - National_Anthems_-_Singapore.mid"
      VOLPAN 1 0 1 -1
      SOFFS 0 0
      PLAYRATE 1 1 0 -1 0 0.0025
      CHANMODE 0
      GUID {5E038836-0466-524F-BF63-431026F2508F}
      <SOURCE MIDI
        HASDATA 1 480 QN
        POOLEDEVTS {F05CA8BC-A22A-424B-9307-04D15EC67F68}
        <X 0 0
          /wNzdHJpbmdzIChiYXNzKQ==
        >
        <X 0 0
          /wRTb3VuZCBDYW52YXM=
        >
        E 0 96 1d 4f
        E 1871 96 24 4f
        E 35 86 1d 2c
        E 1215 86 24 50
        E 688 96 29 65
        E 484 86 29 44
        E 16 96 28 57
        E 493 96 26 4f
        E 4 86 28 3c
        E 460 96 29 65
        E 11 86 26 3e
        E 469 96 26 57
        E 5 86 29 2b
        E 475 96 29 62
        E 14 86 26 39
        E 462 96 21 57
        E 14 86 29 47
        E 477 96 29 5d
        E 5 86 21 44
        E 457 96 22 65
        E 14 86 29 44
        E 467 96 24 67
        E 5 86 22 3a
        E 490 96 1d 4d
        E 25 86 24 12
        E 702 86 1d 11
        E 238 96 24 5f
        E 220 96 2b 41
        E 3 86 24 4c
        E 187 86 2b 25
        E 38 96 28 5a
        E 152 86 28 36
        E 82 96 26 5f
        E 184 86 26 01
        E 76 96 24 57
        E 511 86 24 55
        E 457 96 24 57
        E 360 86 24 2a
        E 80 96 24 55
        E 404 86 24 36
        E 89 96 24 5a
        E 398 86 24 39
        E 87 96 24 57
        E 483 86 24 20
        E 11 96 1d 57
        E 473 96 24 57
        E 1 86 1d 3e
        E 496 96 1d 4a
        E 19 86 24 2a
        E 501 86 1d 40
        E 420 96 24 57
        E 374 86 24 1f
        E 99 96 24 4f
        E 410 86 24 2e
        E 94 96 24 5a
        E 364 86 24 3f
        E 103 96 24 57
        E 454 96 29 6a
        E 30 86 24 01
        E 453 86 29 14
        E 12 96 24 5f
        E 487 96 1d 55
        E 2 86 24 36
        E 507 86 1d 4f
        E 494 96 22 5d
        E 863 86 22 40
        E 81 96 22 65
        E 451 86 22 29
        E 14 96 24 57
        E 552 86 24 25
        E 157 96 1d 57
        E 218 86 1d 3b
        E 14 96 21 62
        E 223 86 21 33
        E 10 96 22 5a
        E 274 86 22 35
        E 1 96 24 5f
        E 536 86 24 4d
        E 408 96 24 4f
        E 390 86 24 2a
        E 84 96 24 55
        E 414 86 24 23
        E 91 96 24 55
        E 318 86 24 16
        E 154 96 24 45
        E 384 86 24 01
        E 80 96 1d 19
        E 220 86 1d 01
        E 8 96 29 5d
        E 132 86 29 32
        E 105 96 24 57
        E 156 86 24 1f
        E 95 96 21 6a
        E 156 86 21 21
        E 104 96 1d 55
        E 258 86 1d 2a
        E 210 96 1d 57
        E 425 86 1d 36
        E 40 96 22 5a
        E 409 86 22 32
        E 96 96 22 57
        E 394 86 22 3c
        E 108 96 22 5d
        E 429 86 22 1f
        E 11 96 24 55
        E 483 86 24 32
        E 3 96 29 62
        E 166 86 29 05
        E 77 96 1d 47
        E 164 86 1d 06
        E 74 96 21 65
        E 143 86 21 31
        E 72 96 22 67
        E 123 86 22 1e
        E 141 96 24 57
        E 293 86 24 0a
        E 187 96 24 57
        E 487 96 29 65
        E 4 86 24 27
        E 236 86 29 34
        E 249 96 24 57
        E 306 86 24 01
        E 172 96 29 65
        E 467 86 29 43
        E 493 96 29 6a
        E 178 86 29 1a
        E 53 96 24 55
        E 204 86 24 02
        E 34 96 29 67
        E 170 86 29 01
        E 71 96 2b 4f
        E 151 86 2b 18
        E 86 96 2d 57
        E 159 86 2d 27
        E 62 96 2e 5a
        E 142 86 2e 29
        E 103 96 30 5f
        E 145 86 30 0b
        E 121 96 32 55
        E 142 86 32 14
        E 104 96 30 57
        E 395 86 30 01
        E 90 96 24 5f
        E 373 86 24 41
        E 98 96 24 57
        E 392 86 24 2c
        E 73 96 24 55
        E 503 86 24 2a
        E 1 96 29 5d
        E 352 86 29 16
        E 114 96 24 62
        E 323 86 24 08
        E 141 96 1d 65
        E 558 86 1d 63
        E 438 b0 7b 00
        GUID {80B3548F-EEFA-6944-8BA7-A599BDDB094B}
        IGNTEMPO 0 120 4 4
        SRCCOLOR 261
        VELLANE -1 86 6
      >
    >
  >
  <TRACK {F23F8223-271A-294D-A229-F474D58B7A97}
    NAME "vst Gladiator"
    PEAKCOL 27222112
    BEAT -1
    AUTOMODE 0
    VOLPAN 1 0 -1 -1 1
    MUTESOLO 0 2 0
    IPHASE 0
    ISBUS 0 0
    BUSCOMP 2 0
    SHOWINMIX 1 0.6667 0.698113 1 0.5 -1 -1 -1
    FREEMODE 0
    SEL 0
    REC 0 0 0 0 0 0 0
    VU 2
    TRACKHEIGHT 0 0
    INQ 0 0 0 0.5 100 0 0 100
    NCHAN 2
    FX 1
    TRACKID {F23F8223-271A-294D-A229-F474D58B7A97}
    PERF 0
    MIDIOUT -1
    MAINSEND 1 0
    <FXCHAIN
      SHOW 0
      LASTSEL 0
      DOCKED 0
      BYPASS 0 0 0
      <VST "VSTi: Gladiator (Tone2.com)" Gladiator.vst 0 ""
        TEcyVO5e7f4AAAAAAgAAAAEAAAAAAAAAAgAAAAAAAABaBAAAAQAAAAAAEABDY25LAAAAYEZ4Q2sAAAABVDJHTAAAAAEAAAEHSW5pdAAAAAAAAAAAAAAAAAAAAAAAAAAA
        AAAAAD3MzM08zMzNPDQ5WD24UfQ9edsjP4AAADvEm6Y9vnbJP4AAADvEm6YAAAAAPqZmZj49cKQ/gAAAPsUeuT8AAAA/AAAAAAAAAD1987Y90OVgPLxqfz9FHrgAAAAA
        P4AAADw0OVg9kWhzPvXCjztEm6Y9uFHoPr1wpD49cKQ/gAAAPwAAAD8D1ws/AAAAAAAAAAAAAAA/AAAAPwAAAD8AAAA+2ZmaPwAAAAAAAAA75WBCPbhR6wAAAAA+TbXE
        O0Sbpj9LhR4AAAAAAAAAAD7rhSA+lHrhPWFHsD7PXCg/HrhSPj1wpj8AAAA/AAAAAAAAAAAAAAA/AAAAAAAAAAAAAAA/gAAAP4AAAAAAAAA/EeuFPwAAAD8AAAA/AAAA
        PwAAAAAAAAA/AAAAPwAAAD8AAAAAAAAAPwAAAD8AAAA/AAAAAAAAADqDEm8/UKPXAAAAAD+AAAAAAAAAOoMSbz8AAAAAAAAAAAAAAAAAAAA/AAAAAAAAAD+AAAAAAAAA
        P4AAAAAAAAA/AAAAPwAAAD8AAAA/AAAAPwAAAD8AAAA/AAAAPwAAAD8AAAA/AAAAPwAAAD8R64Y8o9cKOoMSbzxEm6YAAAAAAAAAAAAAAAA8vGp/AAAAAAAAAAAAAAAA
        AAAAAAAAAAAAAAAAAAAAAAAAAAAAAAAAAAAAAAAAAAAAAAAAAAAAAAAAAAAAAAAAAAAAADwTdLwAAAAAPDQ5WAAAAAA8E3S8AAAAADw0OVgAAAAAPBN0vAAAAAA8NDlY
        AAAAADwTdLwAAAAAPDQ5WAAAAAA8ZWBCPYcrAjxlYEI7AxJvPYk3TDsDEm88tDlYPItDljyTdLw9VP30PReNUDzMzM0+gAAAP3LCNT8AAAA/Uae5PzCNPj8csI0AAAAA
        OwMSbzqDEm8AAAAAAAAAAAAAAAA/AAAAOoMSbztEm6Y/gAAAAAAAAD+AAAAAAAAAP4AAAAAAAAAAAAAAAAAAAAAAAAA/gAAAAAAAAD8AAAAAAAAAPwAAAD8FHrg/AAAA
        P4AAAD8AAAA/AAAAPwAAAD+AAAA/gAAAAAAAAAAAAAAAAAAAPwAAAD+AAAA/AAAAAAAAAD69cKQAAAAAAAAAAD+AAAA/gAAAPyPXCj+AAAAAAAAAAAAAAD+AAAA/AAAA
        AAAAAAAAAAAAAAAAAAAAAAAAAAAAAAAAAAAAAAAAAAAAAAAAAAAAAAAAAAAAAAAAPwAAAD8AAAA/AAAAPwAAAD8AAAA/AAAAAAAAAAAAAAA/gAAAAAAAAAAAAAAAAAAA
        AAAAAAAAAAAAAAAAAAAAAAAAAAAAAAAAAAAAAAAAAAAAAAAAAAAAAAAAAAAAAAAAAAAAAAAAAAAAAAAAAAAAAAAAAAAAAAAAAAAAAAAAAAAAAAAAAAAAAAAAAAAAAAAA
        AACqq6ytAAAQAAAA
      >
      FLOATPOS 500 379 987 799
      FXID {532372E3-5B0D-9345-A9C8-98A8EBAF9A7E}
      WAK 0
    >
    <ITEM
      POSITION 0
      SNAPOFFS 0
      LENGTH 40
      LOOP 1
      ALLTAKES 0
      FADEIN 1 0 0 1 0 0
      FADEOUT 1 0 0 1 0 0
      MUTE 0
      SEL 1
      YPOS 0 0.05
      IGUID {2B8AAA9D-A678-DF4D-A44F-3FB8D5D1FC55}
      IID 1
      NAME "trumpet(s) - National_Anthems_-_Singapore.mid"
      VOLPAN 1 0 1 -1
      SOFFS 0 0
      PLAYRATE 1 1 0 -1 0 0.0025
      CHANMODE 0
      TAKECOLOR 26173599
      GUID {E7545D47-369D-6A4E-9079-722AD8302829}
      <SOURCE MIDI
        HASDATA 1 480 QN
        POOLEDEVTS {F6B161F8-85FB-AB4F-A983-441B68A01318}
        <X 0 0
          /wN0cnVtcGV0KHMp
        >
        <X 0 0
          /wRTb3VuZCBDYW52YXM=
        >
        e 0 90 41 7f
        e 376 80 41 23
        e 104 90 3c 7f -36
        e 176 80 3c 01 -36
        e 64 90 41 7f -43
        e 165 80 41 2a -43
        e 75 90 45 7f -54
        e 199 80 45 21 -54
        e 41 90 41 7f -49
        e 202 80 41 06 -49
        e 38 90 45 7f -52
        e 164 80 45 04 -52
        e 76 90 4a 7f -50
        e 207 80 4a 30 -50
        e 33 90 48 7f -37
        e 171 80 48 49 -37
        e 69 90 48 7f -41
        e 56 80 48 4b -41
        e 64 90 48 7f -50
        e 65 80 48 4f -50
        e 55 90 48 7f -38
        e 101 80 48 46 -38
        e 139 90 48 7f -37
        e 114 80 48 47 -37
        e 126 90 48 7f -8
        e 164 80 48 4b -8
        e 76 90 3c 7f 8
        e 158 80 3c 27 8
        e 82 90 41 7f 11
        e 141 80 41 32 11
        e 99 90 43 7f -2
        e 140 80 43 27 -2
        e 100 90 45 7f 7
        e 381 80 45 30 7
        e 99 90 45 7f -11
        e 399 80 45 2a -11
        e 81 90 45 7f -10
        e 187 80 45 20 -10
        e 53 90 43 7f -23
        e 210 80 43 0b -23
        e 30 90 41 7f -27
        e 191 80 41 1b -27
        e 49 90 40 7f -29
        e 196 80 40 30 -29
        e 44 90 41 7f -22
        e 397 80 41 37 -22
        e 83 90 41 7f -27
        e 412 80 41 32 -27
        e 68 90 41 7f -2
        e 162 80 41 31 -2
        e 78 90 40 7f -22
        e 215 80 40 01 -22
        e 25 90 3e 7f -24
        e 181 80 3e 17 -24
        e 59 90 3c 7f -31
        e 200 80 3c 28 -31
        e 40 90 3e 7f -24
        e 419 80 3e 32 -24
        e 61 90 3c 7f -20
        e 401 80 3c 2a -20
        e 79 90 3c 7f -18
        e 169 80 3c 08 -18
        e 71 90 41 7f -21
        e 170 80 41 31 -21
        e 70 90 43 7f -24
        e 160 80 43 24 -24
        e 80 90 41 7f -26
        e 160 80 41 2d -26
        e 80 90 40 7f -15
        e 1077 80 40 4e -15
        e 123 90 3c 7f 19
        e 187 80 3c 1f 19
        e 53 90 40 7f -2
        e 168 80 40 26 -2
        e 72 90 41 7f -17
        e 169 80 41 22 -17
        e 71 90 43 7f -3
        e 403 80 43 26 -3
        e 77 90 40 7f -22
        e 414 80 40 0d -22
        e 66 90 41 7f -41
        e 432 80 41 23 -41
        e 48 90 43 7f -29
        e 399 80 43 2b -29
        e 81 90 45 7f -14
        e 201 80 45 1d -14
        e 159 90 4a 7f -29
        e 116 80 4a 29 -29
        e 4 90 48 7f -6
        e 1264 80 48 3d -6
        e 176 90 45 7f -8
        e 163 80 45 36 -8
        e 197 90 45 7f -45
        e 108 80 45 25 -45
        e 12 90 48 7f -5
        e 630 80 48 12 -5
        e 90 90 3c 7f -15
        e 163 80 3c 25 -15
        e 77 90 40 7f -17
        e 183 80 40 24 -17
        e 57 90 43 7f -21
        e 139 80 43 31 -21
        e 101 90 41 7f -20
        e 1248 80 41 1d -20
        e 192 90 41 7f 14
        e 180 80 41 27 14
        e 180 90 41 7f -29
        e 107 80 41 36 -29
        e 13 90 46 7f -2
        e 410 80 46 44 -2
        e 70 90 4a 7f -20
        e 368 80 4a 2b -20
        e 112 90 4a 7f -35
        e 437 80 4a 21 -35
        e 43 90 48 7f -14
        e 227 80 48 2c -14
        e 133 90 47 7f -39
        e 97 80 47 3b -39
        e 23 90 48 7f -19
        e 1102 80 48 4a -19
        e 98 90 3c 7f 11
        e 162 80 3c 22 11
        e 78 90 40 7f -2
        e 151 80 40 28 -2
        e 89 90 41 7f -21
        e 151 80 41 2c -21
        e 89 90 43 7f -23
        e 441 80 43 02 -23
        e 39 90 40 7f -17
        e 412 80 40 12 -17
        e 68 90 41 7f -24
        e 412 80 41 1e -24
        e 68 90 43 7f -22
        e 415 80 43 2b -22
        e 65 90 45 7f -24
        e 1274 80 45 1a -24
        e 166 90 41 7f -3
        e 211 80 41 33 -3
        e 149 90 41 7f -35
        e 107 80 41 2f -35
        e 13 90 46 7f -4
        e 425 80 46 49 -4
        e 55 90 4a 7f -12
        e 419 80 4a 42 -12
        e 61 90 4a 7f -23
        e 468 80 4a 25 -23
        e 12 90 48 7f -13
        e 259 80 48 29 -13
        e 101 90 47 7f -28
        e 120 90 48 7f -6
        e 2 80 47 2e -28
        e 1451 80 48 4f -6
        e 467 90 45 7f 24
        e 266 80 45 2b 24
        e 94 90 43 7f -21
        e 98 80 43 2b -21
        e 22 90 41 7f
        e 621 80 41 34
        e 99 90 41 7f -2
        e 187 80 41 35 -2
        e 53 90 45 7f
        e 171 80 45 30
        e 69 90 46 7f -11
        e 178 80 46 34 -11
        e 62 90 48 7f 3
        e 1633 80 48 0a 3
        e 287 90 48 7f -4
        e 243 80 48 2a -4
        e 117 90 4a 7f -36
        e 116 80 4a 35 -36
        e 4 90 48 7f -9
        e 657 80 48 1a -9
        e 63 90 46 7f
        e 167 80 46 38
        e 73 90 45 7f -12
        e 179 80 45 26 -12
        e 61 90 43 7f -4
        e 162 80 43 3e -4
        e 78 90 41 7f -7
        e 1481 80 41 53 -7
        E 439 b0 7b 00
        GUID {2071E105-3A7C-C14C-BA55-98DAD389130A}
        IGNTEMPO 0 120 4 4
        SRCCOLOR 255
        VELLANE -1 86 6
        CFGEDITVIEW -1920 20.090909 52 28 0 0 0 0 0
        KEYSNAP 0 3 102304056070 0 "Natural minor"
        TRACKSEL 226 0 0 ""
        EVTFILTER 0 -1 -1 -1 -1 0 0 0 0 -1 -1 -1 -1 0 -1 0 -1 -1
        CFGEDIT 1 0 0 0 0 0 1 0 1 1 1 0.25 0 31 1280 778 0 0 2 3 0 0 0 0 0 -1 0 0 1 64
      >
      TAKE
      NAME "trumpet(s) - National_Anthems_-_Singapore.mid"
      TAKEVOLPAN 0 1 -1
      SOFFS 0 0
      PLAYRATE 1 1 0 -1 0 0.0025
      CHANMODE 0
      GUID {3E44BE48-D0E1-BD4A-B37A-EA5318086D9B}
      <SOURCE MIDI
        HASDATA 1 480 QN
        POOLEDEVTS {52539986-4992-274A-8E3D-F7DCF1089B53}
        <X 0 0
          /wN0cnVtcGV0KHMp
        >
        <X 0 0
          /wRTb3VuZCBDYW52YXM=
        >
        e 0 90 41 6d
        e 376 80 41 23
        e 68 90 3c 5d
        e 176 80 3c 01
        e 57 90 41 67
        e 165 80 41 2a
        e 64 90 45 65
        e 199 80 45 21
        e 46 90 41 6a
        e 202 80 41 06
        e 35 90 45 6d
        e 164 80 45 04
        e 78 90 4a 62
        e 207 80 4a 30
        e 46 90 48 65
        e 171 80 48 49
        e 65 90 48 62
        e 56 80 48 4b
        e 55 90 48 67
        e 65 80 48 4f
        e 67 90 48 67
        e 101 80 48 46
        e 140 90 48 6a
        e 114 80 48 47
        e 155 90 48 6d
        e 164 80 48 4b
        e 92 90 3c 5d
        e 158 80 3c 27
        e 85 90 41 6d
        e 141 80 41 32
        e 86 90 43 73
        e 140 80 43 27
        e 109 90 45 6d
        e 381 80 45 30
        e 81 90 45 6f
        e 399 80 45 2a
        e 82 90 45 6d
        e 187 80 45 20
        e 40 90 43 6d
        e 210 80 43 0b
        e 26 90 41 62
        e 191 80 41 1b
        e 47 90 40 62
        e 196 80 40 30
        e 51 90 41 6a
        e 397 80 41 37
        e 78 90 41 6a
        e 412 80 41 32
        e 93 90 41 6f
        e 162 80 41 31
        e 58 90 40 65
        e 215 80 40 01
        e 23 90 3e 65
        e 181 80 3e 17
        e 52 90 3c 65
        e 200 80 3c 28
        e 47 90 3e 6a
        e 419 80 3e 32
        e 65 90 3c 65
        e 401 80 3c 2a
        e 81 90 3c 67
        e 169 80 3c 08
        e 68 90 41 6f
        e 170 80 41 31
        e 67 90 43 73
        e 160 80 43 24
        e 78 90 41 62
        e 160 80 41 2d
        e 91 90 40 67
        e 1077 80 40 4e
        e 157 90 3c 65
        e 187 80 3c 1f
        e 32 90 40 6d
        e 168 80 40 26
        e 57 90 41 6d
        e 169 80 41 22
        e 85 90 43 6f
        e 403 80 43 26
        e 58 90 40 6a
        e 414 80 40 0d
        e 47 90 41 6f
        e 432 80 41 23
        e 60 90 43 6f
        e 399 80 43 2b
        e 96 90 45 6a
        e 201 80 45 1d
        e 144 90 4a 6d
        e 116 80 4a 29
        e 27 90 48 6d
        e 1264 80 48 3d
        e 174 90 45 6f
        e 163 80 45 36
        e 160 90 45 5f
        e 108 80 45 25
        e 52 90 48 73
        e 630 80 48 12
        e 80 90 3c 5f
        e 163 80 3c 25
        e 75 90 40 6f
        e 183 80 40 24
        e 53 90 43 77
        e 139 80 43 31
        e 102 90 41 6a
        e 1248 80 41 1d
        e 226 90 41 6d
        e 180 80 41 27
        e 137 90 41 67
        e 107 80 41 36
        e 40 90 46 77
        e 410 80 46 44
        e 52 90 4a 6a
        e 368 80 4a 2b
        e 97 90 4a 6a
        e 437 80 4a 21
        e 64 90 48 6a
        e 227 80 48 2c
        e 108 90 47 62
        e 97 80 47 3b
        e 43 90 48 6a
        e 1102 80 48 4a
        e 128 90 3c 5f
        e 162 80 3c 22
        e 65 90 40 6d
        e 151 80 40 28
        e 70 90 41 6d
        e 151 80 41 2c
        e 87 90 43 73
        e 441 80 43 02
        e 45 90 40 6d
        e 412 80 40 12
        e 61 90 41 6a
        e 412 80 41 1e
        e 70 90 43 77
        e 415 80 43 2b
        e 63 90 45 6d
        e 1274 80 45 1a
        e 187 90 41 6f
        e 211 80 41 33
        e 117 90 41 6a
        e 107 80 41 2f
        e 44 90 46 73
        e 425 80 46 49
        e 47 90 4a 67
        e 419 80 4a 42
        e 50 90 4a 6d
        e 468 80 4a 25
        e 22 90 48 6d
        e 259 80 48 29
        e 86 90 47 67
        e 122 80 47 2e
        e 20 90 48 6f
        e 1453 80 48 4f
        e 497 90 45 73
        e 266 80 45 2b
        e 49 90 43 6f
        e 98 80 43 2b
        e 43 90 41 73
        e 621 80 41 34
        e 97 90 41 6f
        e 187 80 41 35
        e 55 90 45 6f
        e 171 80 45 30
        e 58 90 46 73
        e 178 80 46 34
        e 76 90 48 6d
        e 1633 80 48 0a
        e 280 90 48 6f
        e 243 80 48 2a
        e 85 90 4a 6a
        e 116 80 4a 35
        e 31 90 48 6f
        e 657 80 48 1a
        e 72 90 46 73
        e 167 80 46 38
        e 61 90 45 6f
        e 179 80 45 26
        e 69 90 43 77
        e 162 80 43 3e
        e 75 90 41 73
        e 1481 80 41 53
        E 446 b0 7b 00
        GUID {FFA67578-E8A1-B746-BFD5-EC3ED093CC7F}
        IGNTEMPO 0 120 4 4
        SRCCOLOR 296
        VELLANE -1 86 6
        CFGEDITVIEW 0 0 52 28 0 0 0 0 0
        KEYSNAP 0 3 102304056070 0 "Natural minor"
        TRACKSEL 226 0 0 ""
        EVTFILTER 0 -1 -1 -1 -1 0 0 0 0 -1 -1 -1 -1 0 -1 0 -1 -1
        CFGEDIT 1 0 0 0 0 0 1 0 1 1 1 0.25 0 31 1280 778 0 0 2 3 0 0 0 0 0 -1 0 0 1 64
      >
    >
  >
  <TRACK {A26B8C2D-9EE6-0440-AA6B-121F89FB50DD}
    NAME "16th pulse (mix w/ send?)"
    PEAKCOL 16576
    BEAT -1
    AUTOMODE 0
    VOLPAN 1 0 -1 -1 1
    MUTESOLO 1 0 0
    IPHASE 0
    ISBUS 0 0
    BUSCOMP 0 0
    SHOWINMIX 1 0.6667 0.698113 1 0.5 -1 -1 -1
    FREEMODE 0
    SEL 0
    REC 0 0 0 0 0 0 0
    VU 2
    TRACKHEIGHT 0 0
    INQ 0 0 0 0.5 100 0 0 100
    NCHAN 4
    FX 1
    TRACKID {A26B8C2D-9EE6-0440-AA6B-121F89FB50DD}
    PERF 0
    MIDIOUT -1
    MAINSEND 0 0
    <FXCHAIN
      WNDRECT 36 359 724 387
      SHOW 0
      LASTSEL 0
      DOCKED 0
      BYPASS 0 0 0
      <VST "VSTi: chipsounds (Plogue Art et Technologie, Inc)" chipsounds.vst 0 ""
        T0dMUO5e7f4AAAAABAAAAAEAAAAAAAAAAgAAAAAAAAAEAAAAAAAAAAgAAAAAAAAAJAMAAAEAAAAAABAAQ0VHUNMTAAB4nO1YXW+bMBR976+weNoeSmzzLSWp2qSZIi1r
        NLLnyiFuimYgA5O1+/UzJjTQpOB23aSp9Uvs6+N7fe4Fc+L+2V3EwJamWZjEAw3pUANnw5P+eRoSn2xpbcqGWBueANH6PuU8jNcZ+JETFvJ7MauBNUuWhM0TJoYG1kDG
        U0oiASuHEbnzpeWcsSSYXQw0CwnzbDqeXuV8lqyo9EJynkSEi5A+S/hAE/vJAjFjWXbRI4wIGwKngBax9SxgO/OIxpymA82G1VYWeSyjQx3KpoFetX/hGoQr6T0mES1c
        6mCepxSMbsNNz5+Oe7blIvDhy8IffdTAksTfpwKPIPQ0ENySOKZsoJ2KDW8kYVMD/CDcZnmdknhNC+CDkQtTtkkyKqNHOS95Zz+vGckEYWeXZLnRGQnjaqNbwnIqS9Rk
        0wSiB+AB7SYQqwINVaCpCrRUgbYq0FEFuqpATxWIoDJSuTZIuThIuTpIuTyoqz5zkpJI6SHaI7ui75H1WrqW1YJspN702qBOPffIaI1vNqCtXusPKHJboc0nrw3q1r0a
        rblyPWWoV08W8tqgyNzXFeHj9VqQdE357vQMkkifs2SdU734cOifJ1d6ntEU1s4yuWqUZ+J4HxNOAL/fiJUYG3Zx+oW/xMAsclR9b0Q8Gq9CUnZXYonoVG1S/mD4uq1J
        sVdyfC5p9JZIfxXbpan47vk0KyjoGaebt1L2RRqu1zT1hRShcUDTTtrIwciraFtOjTY+RhvtWO9aOXZk3xg5E69BYgSNyV9MRL9XiKbH+gm9ln7Ce/2EXiCgYE1A2e8C
        6l1A/S8CqskI2bajIrU8aMk/T91SCzumDe1uqXX8pXhCalmtUKernk+oMsts1U+NOrVrvXoCDKd1A/VKWe2ysOtdepGAU5FadQ23zy3urBjEHeV913BvXcP9mYJBED1X
        wsijwxFZmFweSpgyNY5x0TBMhLApsO4BVFjHxzxA3PTwL6XR5c0NDfjhBdN5tAyLFD/WQtWV1Kdv02oBCXi4pdPy/gtV48v9fRhlIgRdLchSzgsX/V51YTc8+Q17esX+
        AAAQAAAA
      >
      FLOATPOS 409 269 871 509
      FXID {DC79668B-30D1-964C-A162-F245DBE294B0}
      WAK 0
      BYPASS 1 0 0
      <JS Delay/time_adjustment ""
        -10.000000 0.000000 -120.000000 0.000000 - - - - - - - - - - - - - - - - - - - - - - - - - - - - - - - - - - - - - - - - - - - - - - - - - - - - - - - - - - - - 
      >
      FLOATPOS 1254 834 554 157
      FXID {40721658-5454-1743-9C6A-517A806DB8F9}
      WAK 0
    >
  >
  <TRACK {D84D9A18-9EB2-B147-888B-8DACBA3BBEF6}
    NAME "Bass Return (global)"
    PEAKCOL 0
    BEAT -1
    AUTOMODE 0
    VOLPAN 1 0 -1 -1 1
    MUTESOLO 0 0 0
    IPHASE 0
    ISBUS 0 0
    BUSCOMP 0 0
    SHOWINMIX 1 0.6667 0.698113 1 0.5 -1 -1 -1
    FREEMODE 0
    SEL 0
    REC 0 0 0 0 0 0 0
    VU 2
    TRACKHEIGHT 0 0
    INQ 0 0 0 0.5 100 0 0 100
    NCHAN 2
    FX 1
    TRACKID {D84D9A18-9EB2-B147-888B-8DACBA3BBEF6}
    PERF 0
    AUXRECV 2 0 1 0 1 0 0 0 0 -1 0 -1 ''
    AUXRECV 6 0 1 0 0 0 0 4 0 -1 0 -1 ''
    MIDIOUT -1
    MAINSEND 1 0
    <FXCHAIN
      SHOW 0
      LASTSEL 0
      DOCKED 0
      BYPASS 0 0 0
      <VST "VST: 8-Bit Shaper (Xfer Records)" 8BitShaper.vst 0 ""
        clN1RO5e7f4CAAAAAQAAAAAAAAACAAAAAAAAAAIAAAABAAAAAAAAAAIAAAAAAAAANAIAAAEAAAAAABAAZmaGP20MlT7dQQw/AAAAPyQABAUAAIA//38KAAAAABgXAAAA
        MAAAABkAAAAaAAAAGgAAABoAAAAbAAAAGwAAABwAAAAcAAAAHAAAAB0AAAAdAAAAHgAAAB4AAAAfAAAAHwAAACAAAAAgAAAAIAAAACEAAAAhAAAAIQAAACIAAAAiAAAA
        IgAAACMAAAAjAAAAIwAAACQAAAAkAAAAJAAAACUAAAAlAAAAKAAAACgAAAApAAAAKQAAACoAAAA1AAAAKgAAACoAAAA2AAAAKgAAACoAAAAqAAAAKgAAACoAAAAqAAAA
        KgAAACsAAAArAAAAOQAAAC0AAAA0AAAAOgAAAC0AAAAtAAAAPAAAAC4AAAAuAAAALwAAADAAAAAwAAAAMQAAADEAAAAxAAAAMgAAADMAAAAzAAAAMwAAADcAAAA3AAAA
        NwAAADgAAAA4AAAAOAAAADkAAAA5AAAAOQAAADoAAAA6AAAAOgAAADoAAAA6AAAAOwAAADsAAAA7AAAAPAAAADsAAAA7AAAAOwAAADwAAAA8AAAAPAAAADwAAAA9AAAA
        PQAAAD0AAAA9AAAAPQAAAD4AAAA+AAAAPwAAAEkAAABAAAAAQAAAAEgAAABAAAAAQQAAAEIAAABCAAAAQgAAAEMAAABDAAAAQwAAAEQAAABEAAAARQAAAE0AAABGAAAA
        RwAAAEYAAABHAAAASAAAAEgAAABJAAAATwAAAAAAgD+rqqo+q6qqPh0Fwz6OAm0/AEluaXQgMQAQAAAA
      >
      FLOATPOS 32 39 278 389
      FXID {19A94086-1737-784E-A733-2897FDD09534}
      WAK 0
    >
  >
  <TRACK {2E103EAF-0FA2-9942-87A1-30E1663A9F4B}
    NAME "--- 0 --- 0 --- 0 "
    PEAKCOL 16576
    BEAT -1
    AUTOMODE 0
    VOLPAN 1 0 -1 -1 1
    MUTESOLO 0 0 0
    IPHASE 0
    ISBUS 0 0
    BUSCOMP 0 0
    SHOWINMIX 1 0.6667 0.565574 0 0.5 -1 -1 -1
    FREEMODE 0
    SEL 0
    REC 0 0 0 0 0 0 0
    VU 2
    TRACKHEIGHT 0 0
    INQ 0 0 0 0.5 100 0 0 100
    NCHAN 2
    FX 1
    TRACKID {2E103EAF-0FA2-9942-87A1-30E1663A9F4B}
    PERF 0
    LAYOUTS "" Separator
    MIDIOUT -1
    MAINSEND 1 0
  >
  <TRACK {D4259754-8A5D-ED42-9EF0-7FA3B62785A4}
    NAME "vst Plogue"
    PEAKCOL 26779488
    BEAT -1
    AUTOMODE 0
    VOLPAN 1 0 -1 -1 1
    MUTESOLO 0 0 0
    IPHASE 0
    ISBUS 0 0
    BUSCOMP 0 0
    SHOWINMIX 1 0.6667 0.698113 1 0.5 -1 -1 -1
    FREEMODE 0
    SEL 0
    REC 0 0 0 1 0 0 0
    VU 2
    TRACKHEIGHT 0 0
    INQ 0 0 0 0.5 100 0 0 100
    NCHAN 8
    FX 1
    TRACKID {D4259754-8A5D-ED42-9EF0-7FA3B62785A4}
    PERF 0
    AUXRECV 3 0 1 0 0 0 0 0 4 -1 0 -1 ''
    AUXRECV 8 0 1 0 0 0 0 0 0 -1 32 -1 ''
    AUXRECV 8 0 1 0 0 0 0 0 0 -1 96 -1 ''
    AUXRECV 9 0 1 0 0 0 0 0 0 -1 64 -1 ''
    AUXRECV 9 0 1 0 0 0 0 0 0 -1 128 -1 ''
    AUXRECV 10 0 1 0 0 0 0 0 0 -1 160 -1 ''
    MIDIOUT -1
    MAINSEND 0 0
    <FXCHAIN
      WNDRECT 532 389 724 387
      SHOW 0
      LASTSEL 0
      DOCKED 0
      BYPASS 0 0 0
      <VST "VSTi: chipsounds (Multi) (Plogue Art et Technologie, Inc) (32 out)" "chipsounds Multi.vst" 0 ""
        T0dNUO5e7f4AAAAAIAAAAAEAAAAAAAAAAgAAAAAAAAAEAAAAAAAAAAgAAAAAAAAAEAAAAAAAAAAgAAAAAAAAAEAAAAAAAAAAgAAAAAAAAAAAAQAAAAAAAAACAAAAAAAA
        AAQAAAAAAAAACAAAAAAAAAAQAAAAAAAAACAAAAAAAAAAQAAAAAAAAACAAAAAAAAAAAABAAAAAAAAAAIAAAAAAAAABAAAAAAAAAAIAAAAAAAAABAAAAAAAAAAIAAAAAAA
        AABAAAAAAAAAAIAAAAAAAAAAAAEAAAAAAAAAAgAAAAAAAAAEAAAAAAAAAAgAAAAAAAAAEAAAAAAAAAAgAAAAAAAAAEAAAAAAAAAAgAAAAAD3BQAAAQAAAAAAEABDRUdQ
        jD8AAHic7ZtBc6M2FMfv+RQMp/awRhIIzIyTHduJu5lpupk6Oz1mFFvr0GJwkUiTfvoKCDaysRBL0mYbOOwa+c+Tnp4s/aQXRh8f16HxQBMWxNGpCQfAND6enYzGSUDm
        5IFWvnIBMs9ODHGN5pTzIFox48+UhAF/Et+axiqM70h4HYfi1kamwXhCyVrIits1eZznJeMwjBdXk1MTQ1F8dXl++TnlV/GS5lZIyuM14aLKeRjzU1O0hy0y7TD7QEIi
        iqDxwaBZ1QO2CJ+LpzTiNDk1XVC25CaN8srBAOSXaVhl84VlI1jmxiOyppnJgXGdJtSY3gcba355brl4CI0ffrmZT380jTsS/XEp9BAA3zQW9ySKaJg/vsndha5p8IPq
        Nne3CYlWwvwHuC3koohtYkbzx9cpLz6wv25DwoS/znMf5w29IkFUNvSBhCnNIyR7IwvhVnjgtixEukJbV+joCrGu0NUVerrCoa7Q1xVCoK3Ujg3UDg7Ujg7UDg9sis81
        SchaaxDtlE2175TVWA4xViilrnd8ldSr9j20lfU7klRptTpA4VAplUeeSjqsWrWVfTX0taV+tbOgr5JCuxpX5DjAd45qnZ0WovrY3pBkRfnzTLuI14PrMF6ldJCtMYOf
        Z58HKaMJqMx7+VPTlImV4JxwYvCnjXgSIdsVYWTB3+LGyfqzXJpEfTRaBqT4uBSPiA/lNSv+Q+BlL9lFq/CxrdPwnTh9kwSrFU3mYtGm0YImjW5DD0G/dBt7FbdRndtw
        r535vTfLLnvqzXzpyymwZ/9VR+TR/1U4QBMBC3PKMqcGjNPN/2j8j6wMsPZZC3ZjLVjHWsOetXrWeiesJXsEXdfToTIf4Hyb1UxlyHNc4L4wlWGlSxKVYUfJT9Wm2p7S
        atNQ/ibUkqEIQ98d4i5QVCWzXY+hpkEgJvKG6amnrZ62utAWBLAtbuW/ck/0wuziELeKrvHsiVQwExCWaYcHUlF6XmcBINnCK2NcPcSgbhDjbCFmxzBON4YBDQzTtAC1
        Z5gGKuoZRt3hPcO0ZRgb23hoH1NWPYLKg5WqR56SNiSPoMojr+Fncey0SnlYVOn7RqvSEVSGMPCotEVbq8PZUeKe1zSea3GvqQGeFFVHKa2G1VW3tRpXWzlWJIjESCWV
        TtZ8pOzXbwZDu1HbNEFXtfqnsT5wW9jVH2E+8Fv8clo4B6Hkna0MnYhBdUrKtSpxU7/17N2zdyf2RrYme8+eL5BvhQv2BghNJgeeHBL5ec7eANSydy2946lsd1Kwt+dJ
        O4FZUTr19vcH4LC0Xjs7wvStOd3uxumo5HTnX8vranN6A373Z41KYc/p31let8Fon9etdlaf1+189bTz9vK6W9jp87pvL6/rdEMtuwa1cI9aPWq9E9T6DtO6jYd3fVq3
        T+tqXT1svcG07pa23k9a19syDBoYRT8av5EH+jVO1sz6RJKlMX+KFkchBr/YiwAvRC4v/wdpDSzUk8v7Jhdl2kvySPl3+lI3CW5Bvn985a4u3Op8qoQ56gydNEiUQCIl
        SdVnT0gfnpB+quuVUq9StFwlvUkD0FVaxfoNkFPatm8fRWKZ3lwlar4evVVzr01/8vh6uddhC61+7tWH+oETvao/IoW4aXE5mnq11TsVBJrWjh6me5juAtMI45YwXawP
        xdElmHgznTxteZU5Ulds+jEeYzlzWimdePjQbjsLbk0GuaUF2NUC9rpacM47WqgvRWhcmwcH+xlv3Q3IxdevdMEPX0cer++CbFjubzierY5++nJZPkAWPHigl8XL0rC8
        v9i9PE1DUQVd3pC7bKRWZ8yEMsqvaJQaASsf53lT1T8Vg9NHIbkR/6YJXRqfAs7EJofw+1PTGm82YbDIX+BmVmFB7JOCDYvTaClK8kqZpbBvPW/AxsmGrlZBzCyppgER
        89Vmb/I/cAW1cmVNfvf4/daHL2IiZBYToYhWIckO9a3bRUIJp9acrDchZdZF+Y0xC7L7ooLpztGyDpY9gvn9frtHlgji2cnIKt+0Pzv5B5TNKp0AABAAAAA=
      >
      FLOATPOS 129 268 871 509
      FXID {C804D762-B992-A540-81BF-3D6C0F7FF19B}
      WAK 0
    >
  >
  <TRACK {33AD5A6D-2EE0-8449-9F1A-2F36FB5D6DDB}
    NAME "midi "
    PEAKCOL 16576
    BEAT -1
    AUTOMODE 0
    VOLPAN 1 0 -1 -1 1
    MUTESOLO 0 0 0
    IPHASE 0
    ISBUS 1 1
    BUSCOMP 1 0
    SHOWINMIX 1 0.6667 0.698113 1 0.5 -1 -1 -1
    FREEMODE 0
    SEL 0
    REC 0 0 0 0 0 0 0
    VU 2
    TRACKHEIGHT 0 0
    INQ 0 0 0 0.5 100 0 0 100
    NCHAN 2
    FX 1
    TRACKID {33AD5A6D-2EE0-8449-9F1A-2F36FB5D6DDB}
    PERF 0
    MIDIOUT -1
    MAINSEND 1 0
    <FXCHAIN
      WNDRECT 532 389 724 387
      SHOW 0
      LASTSEL 0
      DOCKED 0
    >
  >
  <TRACK {F21395F9-F67E-E94E-A650-3CA2FF3EBDD0}
    NAME "ch1,3 (send)"
    PEAKCOL 16576
    BEAT -1
    AUTOMODE 0
    VOLPAN 1 0 -1 -1 1
    MUTESOLO 0 0 0
    IPHASE 0
    ISBUS 0 0
    BUSCOMP 2 0
    SHOWINMIX 1 0.6667 0.698113 1 0.5 -1 -1 -1
    FREEMODE 0
    SEL 0
    REC 0 0 0 0 0 0 0
    VU 2
    MIDICTL -1 1
    TRACKHEIGHT 0 0
    INQ 0 0 0 0.5 100 0 0 100
    NCHAN 2
    FX 1
    TRACKID {F21395F9-F67E-E94E-A650-3CA2FF3EBDD0}
    PERF 0
    MIDIOUT -1
    MAINSEND 1 0
    <FXCHAIN
      SHOW 0
      LASTSEL 0
      DOCKED 0
    >
    <ITEM
      POSITION 0
      SNAPOFFS 0
      LENGTH 40
      LOOP 1
      ALLTAKES 0
      FADEIN 1 0 0 1 0 0
      FADEOUT 1 0 0 1 0 0
      MUTE 0
      SEL 0
      YPOS 0 0.05
      IGUID {1A46110C-7424-D74C-B1F4-C4A939D091B8}
      IID 1
      NAME "trumpet(s) - National_Anthems_-_Singapore.mid"
      VOLPAN 1 0 1 -1
      SOFFS 0 0
      PLAYRATE 1 1 0 -1 0 0.0025
      CHANMODE 0
      TAKECOLOR 26173599
      GUID {C3DC0CBB-1D09-4444-9B9D-CF273B081363}
      <SOURCE MIDI
        HASDATA 1 480 QN
        POOLEDEVTS {50E2F818-E150-8A4A-BAD3-42817BD49E1F}
        <X 0 0
          /wN0cnVtcGV0KHMp
        >
        <X 0 0
          /wRTb3VuZCBDYW52YXM=
        >
        e 0 90 41 7f
        e 376 80 41 23
        e 104 90 3c 7f -36
        e 176 80 3c 01 -36
        e 64 90 41 7f -43
        e 165 80 41 2a -43
        e 75 90 45 7f -54
        e 199 80 45 21 -54
        e 41 90 41 7f -49
        e 202 80 41 06 -49
        e 38 90 45 7f -52
        e 164 80 45 04 -52
        e 76 90 4a 7f -50
        e 207 80 4a 30 -50
        e 33 90 48 7f -37
        e 171 80 48 49 -37
        e 69 90 48 7f -41
        e 56 80 48 4b -41
        e 64 90 48 7f -50
        e 65 80 48 4f -50
        e 55 90 48 7f -38
        e 101 80 48 46 -38
        e 139 90 48 7f -37
        e 114 80 48 47 -37
        e 126 90 48 7f -8
        e 164 80 48 4b -8
        e 76 90 3c 7f 8
        e 158 80 3c 27 8
        e 82 90 41 7f 11
        e 141 80 41 32 11
        e 99 90 43 7f -2
        e 140 80 43 27 -2
        e 100 90 45 7f 7
        e 381 80 45 30 7
        e 99 90 45 7f -11
        e 399 80 45 2a -11
        e 81 90 45 7f -10
        e 187 80 45 20 -10
        e 53 90 43 7f -23
        e 210 80 43 0b -23
        e 30 90 41 7f -27
        e 191 80 41 1b -27
        e 49 90 40 7f -29
        e 196 80 40 30 -29
        e 44 90 41 7f -22
        e 397 80 41 37 -22
        e 83 90 41 7f -27
        e 412 80 41 32 -27
        e 68 90 41 7f -2
        e 162 80 41 31 -2
        e 78 90 40 7f -22
        e 215 80 40 01 -22
        e 25 90 3e 7f -24
        e 181 80 3e 17 -24
        e 59 90 3c 7f -31
        e 200 80 3c 28 -31
        e 40 90 3e 7f -24
        e 419 80 3e 32 -24
        e 61 90 3c 7f -20
        e 401 80 3c 2a -20
        e 79 90 3c 7f -18
        e 169 80 3c 08 -18
        e 71 90 41 7f -21
        e 170 80 41 31 -21
        e 70 90 43 7f -24
        e 160 80 43 24 -24
        e 80 90 41 7f -26
        e 160 80 41 2d -26
        e 80 90 40 7f -15
        e 1077 80 40 4e -15
        e 123 90 3c 7f 19
        e 187 80 3c 1f 19
        e 53 90 40 7f -2
        e 168 80 40 26 -2
        e 72 90 41 7f -17
        e 169 80 41 22 -17
        e 71 90 43 7f -3
        e 403 80 43 26 -3
        e 77 90 40 7f -22
        e 414 80 40 0d -22
        e 66 90 41 7f -41
        e 432 80 41 23 -41
        e 48 90 43 7f -29
        e 399 80 43 2b -29
        e 81 90 45 7f -14
        e 201 80 45 1d -14
        e 159 90 4a 7f -29
        e 116 80 4a 29 -29
        e 4 90 48 7f -6
        e 1264 80 48 3d -6
        e 176 90 45 7f -8
        e 163 80 45 36 -8
        e 197 90 45 7f -45
        e 108 80 45 25 -45
        e 12 90 48 7f -5
        e 630 80 48 12 -5
        e 90 90 3c 7f -15
        e 163 80 3c 25 -15
        e 77 90 40 7f -17
        e 183 80 40 24 -17
        e 57 90 43 7f -21
        e 139 80 43 31 -21
        e 101 90 41 7f -20
        e 1248 80 41 1d -20
        e 192 90 41 7f 14
        e 180 80 41 27 14
        e 180 90 41 7f -29
        e 107 80 41 36 -29
        e 13 90 46 7f -2
        e 410 80 46 44 -2
        e 70 90 4a 7f -20
        e 368 80 4a 2b -20
        e 112 90 4a 7f -35
        e 437 80 4a 21 -35
        e 43 90 48 7f -14
        e 227 80 48 2c -14
        e 133 90 47 7f -39
        e 97 80 47 3b -39
        e 23 90 48 7f -19
        e 1102 80 48 4a -19
        e 98 90 3c 7f 11
        e 162 80 3c 22 11
        e 78 90 40 7f -2
        e 151 80 40 28 -2
        e 89 90 41 7f -21
        e 151 80 41 2c -21
        e 89 90 43 7f -23
        e 441 80 43 02 -23
        e 39 90 40 7f -17
        e 412 80 40 12 -17
        e 68 90 41 7f -24
        e 412 80 41 1e -24
        e 68 90 43 7f -22
        e 415 80 43 2b -22
        e 65 90 45 7f -24
        e 1274 80 45 1a -24
        e 166 90 41 7f -3
        e 211 80 41 33 -3
        e 149 90 41 7f -35
        e 107 80 41 2f -35
        e 13 90 46 7f -4
        e 425 80 46 49 -4
        e 55 90 4a 7f -12
        e 419 80 4a 42 -12
        e 61 90 4a 7f -23
        e 468 80 4a 25 -23
        e 12 90 48 7f -13
        e 259 80 48 29 -13
        e 101 90 47 7f -28
        e 120 90 48 7f -6
        e 2 80 47 2e -28
        e 1451 80 48 4f -6
        e 467 90 45 7f 24
        e 266 80 45 2b 24
        e 94 90 43 7f -21
        e 98 80 43 2b -21
        e 22 90 41 7f
        e 621 80 41 34
        e 99 90 41 7f -2
        e 187 80 41 35 -2
        e 53 90 45 7f
        e 171 80 45 30
        e 69 90 46 7f -11
        e 178 80 46 34 -11
        e 62 90 48 7f 3
        e 1633 80 48 0a 3
        e 287 90 48 7f -4
        e 243 80 48 2a -4
        e 117 90 4a 7f -36
        e 116 80 4a 35 -36
        e 4 90 48 7f -9
        e 657 80 48 1a -9
        e 63 90 46 7f
        e 167 80 46 38
        e 73 90 45 7f -12
        e 179 80 45 26 -12
        e 61 90 43 7f -4
        e 162 80 43 3e -4
        e 78 90 41 7f -7
        e 1481 80 41 53 -7
        E 439 b0 7b 00
        GUID {2071E105-3A7C-C14C-BA55-98DAD389130A}
        IGNTEMPO 0 120 4 4
        SRCCOLOR 255
        VELLANE -1 86 6
        CFGEDITVIEW -1920 20.090909 52 28 0 0 0 0 0
        KEYSNAP 0 3 102304056070 0 "Natural minor"
        TRACKSEL 226 0 0 ""
        EVTFILTER 0 -1 -1 -1 -1 0 0 0 0 -1 -1 -1 -1 0 -1 0 -1 -1
        CFGEDIT 1 0 0 0 0 0 1 0 1 1 1 0.25 0 31 1280 778 0 0 2 3 0 0 0 0 0 -1 0 0 1 64
      >
      TAKE
      NAME "trumpet(s) - National_Anthems_-_Singapore.mid"
      TAKEVOLPAN 0 1 -1
      SOFFS 0 0
      PLAYRATE 1 1 0 -1 0 0.0025
      CHANMODE 0
      GUID {A9B6704B-732C-594C-902A-BEEEB9A6A6A2}
      <SOURCE MIDI
        HASDATA 1 480 QN
        POOLEDEVTS {55B1E8AB-218C-0A44-B077-9CFA29BA07AF}
        <X 0 0
          /wN0cnVtcGV0KHMp
        >
        <X 0 0
          /wRTb3VuZCBDYW52YXM=
        >
        e 0 90 41 6d
        e 376 80 41 23
        e 68 90 3c 5d
        e 176 80 3c 01
        e 57 90 41 67
        e 165 80 41 2a
        e 64 90 45 65
        e 199 80 45 21
        e 46 90 41 6a
        e 202 80 41 06
        e 35 90 45 6d
        e 164 80 45 04
        e 78 90 4a 62
        e 207 80 4a 30
        e 46 90 48 65
        e 171 80 48 49
        e 65 90 48 62
        e 56 80 48 4b
        e 55 90 48 67
        e 65 80 48 4f
        e 67 90 48 67
        e 101 80 48 46
        e 140 90 48 6a
        e 114 80 48 47
        e 155 90 48 6d
        e 164 80 48 4b
        e 92 90 3c 5d
        e 158 80 3c 27
        e 85 90 41 6d
        e 141 80 41 32
        e 86 90 43 73
        e 140 80 43 27
        e 109 90 45 6d
        e 381 80 45 30
        e 81 90 45 6f
        e 399 80 45 2a
        e 82 90 45 6d
        e 187 80 45 20
        e 40 90 43 6d
        e 210 80 43 0b
        e 26 90 41 62
        e 191 80 41 1b
        e 47 90 40 62
        e 196 80 40 30
        e 51 90 41 6a
        e 397 80 41 37
        e 78 90 41 6a
        e 412 80 41 32
        e 93 90 41 6f
        e 162 80 41 31
        e 58 90 40 65
        e 215 80 40 01
        e 23 90 3e 65
        e 181 80 3e 17
        e 52 90 3c 65
        e 200 80 3c 28
        e 47 90 3e 6a
        e 419 80 3e 32
        e 65 90 3c 65
        e 401 80 3c 2a
        e 81 90 3c 67
        e 169 80 3c 08
        e 68 90 41 6f
        e 170 80 41 31
        e 67 90 43 73
        e 160 80 43 24
        e 78 90 41 62
        e 160 80 41 2d
        e 91 90 40 67
        e 1077 80 40 4e
        e 157 90 3c 65
        e 187 80 3c 1f
        e 32 90 40 6d
        e 168 80 40 26
        e 57 90 41 6d
        e 169 80 41 22
        e 85 90 43 6f
        e 403 80 43 26
        e 58 90 40 6a
        e 414 80 40 0d
        e 47 90 41 6f
        e 432 80 41 23
        e 60 90 43 6f
        e 399 80 43 2b
        e 96 90 45 6a
        e 201 80 45 1d
        e 144 90 4a 6d
        e 116 80 4a 29
        e 27 90 48 6d
        e 1264 80 48 3d
        e 174 90 45 6f
        e 163 80 45 36
        e 160 90 45 5f
        e 108 80 45 25
        e 52 90 48 73
        e 630 80 48 12
        e 80 90 3c 5f
        e 163 80 3c 25
        e 75 90 40 6f
        e 183 80 40 24
        e 53 90 43 77
        e 139 80 43 31
        e 102 90 41 6a
        e 1248 80 41 1d
        e 226 90 41 6d
        e 180 80 41 27
        e 137 90 41 67
        e 107 80 41 36
        e 40 90 46 77
        e 410 80 46 44
        e 52 90 4a 6a
        e 368 80 4a 2b
        e 97 90 4a 6a
        e 437 80 4a 21
        e 64 90 48 6a
        e 227 80 48 2c
        e 108 90 47 62
        e 97 80 47 3b
        e 43 90 48 6a
        e 1102 80 48 4a
        e 128 90 3c 5f
        e 162 80 3c 22
        e 65 90 40 6d
        e 151 80 40 28
        e 70 90 41 6d
        e 151 80 41 2c
        e 87 90 43 73
        e 441 80 43 02
        e 45 90 40 6d
        e 412 80 40 12
        e 61 90 41 6a
        e 412 80 41 1e
        e 70 90 43 77
        e 415 80 43 2b
        e 63 90 45 6d
        e 1274 80 45 1a
        e 187 90 41 6f
        e 211 80 41 33
        e 117 90 41 6a
        e 107 80 41 2f
        e 44 90 46 73
        e 425 80 46 49
        e 47 90 4a 67
        e 419 80 4a 42
        e 50 90 4a 6d
        e 468 80 4a 25
        e 22 90 48 6d
        e 259 80 48 29
        e 86 90 47 67
        e 122 80 47 2e
        e 20 90 48 6f
        e 1453 80 48 4f
        e 497 90 45 73
        e 266 80 45 2b
        e 49 90 43 6f
        e 98 80 43 2b
        e 43 90 41 73
        e 621 80 41 34
        e 97 90 41 6f
        e 187 80 41 35
        e 55 90 45 6f
        e 171 80 45 30
        e 58 90 46 73
        e 178 80 46 34
        e 76 90 48 6d
        e 1633 80 48 0a
        e 280 90 48 6f
        e 243 80 48 2a
        e 85 90 4a 6a
        e 116 80 4a 35
        e 31 90 48 6f
        e 657 80 48 1a
        e 72 90 46 73
        e 167 80 46 38
        e 61 90 45 6f
        e 179 80 45 26
        e 69 90 43 77
        e 162 80 43 3e
        e 75 90 41 73
        e 1481 80 41 53
        E 446 b0 7b 00
        GUID {FFA67578-E8A1-B746-BFD5-EC3ED093CC7F}
        IGNTEMPO 0 120 4 4
        SRCCOLOR 296
        VELLANE -1 86 6
        CFGEDITVIEW 0 0 52 28 0 0 0 0 0
        KEYSNAP 0 3 102304056070 0 "Natural minor"
        TRACKSEL 226 0 0 ""
        EVTFILTER 0 -1 -1 -1 -1 0 0 0 0 -1 -1 -1 -1 0 -1 0 -1 -1
        CFGEDIT 1 0 0 0 0 0 1 0 1 1 1 0.25 0 31 1280 778 0 0 2 3 0 0 0 0 0 -1 0 0 1 64
      >
    >
    <ITEM
      POSITION 0
      SNAPOFFS 0
      LENGTH 40
      LOOP 1
      ALLTAKES 0
      FADEIN 1 0 0 1 0 0
      FADEOUT 1 0 0 1 0 0
      MUTE 0
      SEL 0
      YPOS 0.478022 0.05
      IGUID {5FC75C69-C35D-1343-8635-ADFF892BE838}
      IID 3
      NAME "trombone(s) - National_Anthems_-_Singapore.mid"
      VOLPAN 1 0 1 -1
      SOFFS 0 0
      PLAYRATE 1 1 0 -1 0 0.0025
      CHANMODE 0
      TAKECOLOR 26173599
      GUID {92C9112D-520C-874D-ABAF-E3C05816F8F1}
      <SOURCE MIDI
        HASDATA 1 480 QN
        POOLEDEVTS {88199D18-0E3A-A240-A7BB-6D297F5149E6}
        <X 0 0
          /wN0cm9tYm9uZShzKQ==
        >
        <X 0 0
          /wRTb3VuZCBDYW52YXM=
        >
        e 0 92 35 7f
        e 846 82 35 37
        e 114 92 35 7f -51
        e 375 82 35 2f -51
        e 105 92 35 7f -49
        e 453 82 35 0b -49
        e 27 92 30 7f -45
        e 206 82 30 42 -45
        e 34 92 30 7f -25
        e 55 82 30 4b -25
        e 65 92 30 7f -42
        e 59 82 30 4a -42
        e 61 92 30 7f -51
        e 120 82 30 34 -39
        e 0 92 30 7f 48
        e 153 82 30 37 48
        e 207 92 30 7f -50
        e 492 82 30 55 -50
        e 468 92 35 7f -4
        e 325 82 35 35 -4
        e 155 92 34 7f -26
        e 344 82 34 01 -26
        e 136 92 32 7f -19
        e 394 82 32 01 -19
        e 86 92 39 7f -8
        e 405 82 39 18 -8
        e 75 92 32 7f -42
        e 440 82 32 01 -42
        e 40 92 35 7f -30
        e 478 82 35 01 -30
        e 2 92 2d 7f -33
        e 480 92 39 7f -7
        e 1 82 2d 01 -33
        e 369 82 39 01 -7
        e 110 92 3a 7f -25
        e 425 82 3a 02 -25
        e 55 92 34 7f -20
        e 0 92 37 7f -23
        e 434 82 34 09 -20
        e 28 82 37 38 -23
        e 18 92 35 7f -45
        e 453 82 35 01 -45
        e 27 92 29 7f -18
        e 468 82 29 04 -18
        e 252 92 37 7f -43
        e 157 82 37 2e -43
        e 83 92 34 7f -48
        e 144 82 34 2b -48
        e 96 92 32 7f -37
        e 141 82 32 1b -37
        e 99 92 30 7f -27
        e 514 82 30 51 -27
        e 446 92 30 7f
        e 342 82 30 01
        e 138 92 30 7f -21
        e 351 82 30 13 -21
        e 129 92 30 7f -11
        e 309 82 30 01 -11
        e 171 92 30 7f -26
        e 381 82 30 1c -26
        e 99 92 35 7f -31
        e 352 82 35 2c -31
        e 128 92 30 7f -35
        e 437 82 30 1c -35
        e 43 92 35 7f -23
        e 506 82 35 4e -23
        e 454 92 30 7f -27
        e 308 82 30 01 -27
        e 172 92 30 7f -24
        e 313 82 30 1a -24
        e 167 92 30 7f -31
        e 346 82 30 01 -31
        e 134 92 3a 7f -39
        e 346 82 3a 1e -39
        e 134 92 39 7f -40
        e 480 92 30 7f -25
        e 15 82 39 01 -40
        e 443 82 30 01 -25
        e 22 92 35 7f -15
        e 480 92 35 00
        e 0 92 35 7f
        e 3 82 35 47
        e 477 92 2e 7f -12
        e 358 82 2e 21 -12
        e 122 92 3a 7f -22
        e 377 82 3a 29 -22
        e 103 92 2e 7f -27
        e 427 82 2e 01 -27
        e 53 92 30 7f -37
        e 467 82 30 01 -37
        e 13 92 35 7f -46
        e 190 82 35 29 -46
        e 50 92 29 7f -22
        e 187 82 29 37 -22
        e 53 92 2d 7f -31
        e 161 82 2d 1f -31
        e 79 92 2e 7f -37
        e 181 82 2e 28 -37
        e 59 92 30 7f -25
        e 423 82 30 45 -25
        e 537 92 30 7f -40
        e 339 82 30 16 -40
        e 141 92 30 7f -39
        e 334 82 30 0b -39
        e 146 92 24 7f -26
        e 378 82 24 01 -26
        e 102 92 30 7f -36
        e 312 82 30 30 -36
        e 48 92 29 7f 56
        e 190 82 29 0b 56
        e 170 92 35 7f -35
        e 155 82 35 45 -35
        e 85 92 30 7f -32
        e 142 82 30 33 -32
        e 98 92 2d 7f -39
        e 163 82 2d 01 -39
        e 77 92 29 7f -30
        e 314 82 29 01 -30
        e 166 92 35 7f -8
        e 280 82 35 1c -8
        e 200 92 2e 7f -25
        e 401 82 2e 01 -25
        e 79 92 3a 7f -23
        e 326 82 3a 2d -23
        e 154 92 3a 7f -30
        e 480 92 3c 7f -19
        e 5 82 3a 01 -30
        e 382 82 3c 01 -19
        e 93 92 35 7f -38
        e 100 82 35 5d -38
        e 140 92 29 7f -36
        e 157 82 29 29 -36
        e 83 92 2d 7f -39
        e 153 82 2d 38 -39
        e 87 92 2e 7f -30
        e 141 82 2e 16 -30
        e 99 92 30 7f -39
        e 305 82 30 21 -39
        e 175 92 30 7f -34
        e 361 82 30 20 -34
        e 119 92 35 7f -12
        e 282 82 35 1e -12
        e 198 92 30 7f -35
        e 365 82 30 01 -35
        e 115 92 35 7f -17
        e 497 82 35 49 -17
        e 463 92 35 7f -20
        e 155 82 35 20 -20
        e 85 92 30 7f -27
        e 160 82 30 3a -27
        e 80 92 35 7f -37
        e 169 82 35 2c -37
        e 71 92 37 7f -35
        e 144 82 37 01 -35
        e 96 92 39 7f -39
        e 176 82 39 27 -39
        e 64 92 3a 7f -48
        e 165 82 3a 2b -48
        e 75 92 3c 7f -36
        e 158 82 3c 2a -36
        e 82 92 3e 7f -22
        e 149 82 3e 24 -22
        e 91 92 3c 7f -4
        e 367 82 3c 01 -4
        e 113 92 30 7f 10
        e 349 82 30 0c 10
        e 131 92 30 7f -18
        e 343 82 30 01 -18
        e 137 92 30 7f -31
        e 352 82 30 01 -31
        e 128 92 35 7f -22
        e 279 82 35 17 -22
        e 201 92 30 7f -23
        e 295 82 30 31 -23
        e 185 92 29 7f -35
        e 559 82 29 5a -35
        E 401 b0 7b 00
        GUID {4E5418D2-1773-744E-9A5B-810E7D2CD63B}
        IGNTEMPO 0 120 4 4
        SRCCOLOR 257
        VELLANE -1 86 6
        CFGEDITVIEW -1920 19.727273 64 16 0 0 0 0 0
        KEYSNAP 0 3 102304056070 0 "Natural minor"
        TRACKSEL 226 0 0 ""
        EVTFILTER 0 -1 -1 -1 -1 0 0 0 0 -1 -1 -1 -1 0 -1 0 -1 -1
        CFGEDIT 1 0 0 0 0 0 1 0 1 1 1 0.25 16 47 1280 778 0 0 2 3 0 0 0 0 0 -1 0 0 1 64
      >
      TAKE
      NAME "trombone(s) - National_Anthems_-_Singapore.mid"
      TAKEVOLPAN 0 1 -1
      SOFFS 0 0
      PLAYRATE 1 1 0 -1 0 0.0025
      CHANMODE 0
      GUID {08257284-6415-9144-A365-79BC23EA86C7}
      <SOURCE MIDI
        HASDATA 1 480 QN
        POOLEDEVTS {9AEF017E-BD84-8245-A984-9FD6A303610F}
        <X 0 0
          /wN0cm9tYm9uZShzKQ==
        >
        <X 0 0
          /wRTb3VuZCBDYW52YXM=
        >
        E 0 92 35 67
        E 846 82 35 37
        E 63 92 35 6f
        E 375 82 35 2f
        E 107 92 35 6a
        E 453 82 35 0b
        E 31 92 30 67
        E 206 82 30 42
        E 54 92 30 67
        E 55 82 30 4b
        E 48 92 30 65
        E 59 82 30 4a
        E 52 92 30 65
        E 132 82 30 34
        E 87 92 30 57
        E 153 82 30 37
        E 109 92 30 57
        E 492 82 30 55
        E 514 92 35 65
        E 325 82 35 35
        E 133 92 34 5f
        E 344 82 34 01
        E 143 92 32 5f
        E 394 82 32 01
        E 97 92 39 5d
        E 405 82 39 18
        E 41 92 32 65
        E 440 82 32 01
        E 52 92 35 57
        E 477 92 2d 5f
        E 1 82 35 01
        E 480 82 2d 01
        E 25 92 39 3b
        E 370 82 39 01
        E 92 92 3a 62
        E 425 82 3a 02
        E 57 92 37 4e
        E 3 92 34 5d
        E 434 82 34 09
        E 21 92 35 62
        E 4 82 37 38
        E 449 82 35 01
        E 54 92 29 48
        E 468 82 29 04
        E 227 92 37 55
        E 157 82 37 2e
        E 78 92 34 6a
        E 144 82 34 2b
        E 107 92 32 67
        E 141 82 32 1b
        E 109 92 30 65
        E 514 82 30 51
        E 473 92 30 5f
        E 342 82 30 01
        E 117 92 30 55
        E 351 82 30 13
        E 139 92 30 4f
        E 309 82 30 01
        E 156 92 30 4e
        E 381 82 30 1c
        E 94 92 35 65
        E 352 82 35 2c
        E 124 92 30 4f
        E 437 82 30 1c
        E 55 92 35 5d
        E 506 82 35 4e
        E 450 92 30 5f
        E 308 82 30 01
        E 175 92 30 57
        E 313 82 30 1a
        E 160 92 30 5f
        E 346 82 30 01
        E 126 92 3a 65
        E 346 82 3a 1e
        E 133 92 39 65
        E 495 82 39 01
        E 0 92 30 57
        E 458 82 30 01
        E 32 92 35 57
        E 495 92 35 65
        E 3 82 35 47
        E 312 82 35 25
        E 153 92 2e 6f
        E 358 82 2e 21
        E 112 92 3a 65
        E 377 82 3a 29
        E 98 92 2e 6d
        E 427 82 2e 01
        E 43 92 30 65
        E 467 82 30 01
        E 4 92 35 65
        E 190 82 35 29
        E 74 92 29 65
        E 187 82 29 37
        E 44 92 2d 6f
        E 161 82 2d 1f
        E 73 92 2e 6a
        E 181 82 2e 28
        E 71 92 30 5f
        E 423 82 30 45
        E 522 92 30 5f
        E 339 82 30 16
        E 142 92 30 55
        E 334 82 30 0b
        E 159 92 24 65
        E 378 82 24 01
        E 92 92 30 55
        E 312 82 30 30
        E 140 92 29 57
        E 190 82 29 0b
        E 79 92 35 6a
        E 155 82 35 45
        E 88 92 30 5f
        E 142 82 30 33
        E 91 92 2d 5d
        E 163 82 2d 01
        E 86 92 29 5a
        E 314 82 29 01
        E 188 92 35 62
        E 280 82 35 1c
        E 183 92 2e 65
        E 401 82 2e 01
        E 81 92 3a 55
        E 326 82 3a 2d
        E 147 92 3a 5a
        E 485 82 3a 01
        E 6 92 3c 4f
        E 387 82 3c 01
        E 74 92 35 65
        E 100 82 35 5d
        E 142 92 29 57
        E 157 82 29 29
        E 80 92 2d 5a
        E 153 82 2d 38
        E 96 92 2e 67
        E 141 82 2e 16
        E 90 92 30 5d
        E 305 82 30 21
        E 180 92 30 5a
        E 361 82 30 20
        E 141 92 35 65
        E 282 82 35 1e
        E 175 92 30 55
        E 365 82 30 01
        E 133 92 35 62
        E 497 82 35 49
        E 460 92 35 6a
        E 155 82 35 20
        E 78 92 30 62
        E 160 82 30 3a
        E 70 92 35 65
        E 169 82 35 2c
        E 73 92 37 5f
        E 144 82 37 01
        E 92 92 39 62
        E 176 82 39 27
        E 55 92 3a 62
        E 165 82 3a 2b
        E 87 92 3c 5f
        E 158 82 3c 2a
        E 96 92 3e 65
        E 149 82 3e 24
        E 109 92 3c 5f
        E 367 82 3c 01
        E 127 92 30 5d
        E 349 82 30 0c
        E 103 92 30 57
        E 343 82 30 01
        E 124 92 30 57
        E 352 82 30 01
        E 137 92 35 6f
        E 279 82 35 17
        E 200 92 30 65
        E 295 82 30 31
        E 173 92 29 62
        E 559 82 29 5a
        E 436 b0 7b 00
        GUID {4364FF4A-CB87-3247-9B22-B27A9988290B}
        IGNTEMPO 0 120 4 4
        SRCCOLOR 298
        VELLANE -1 86 6
      >
    >
  >
  <TRACK {6CCBCBB4-02B5-3C4F-AE95-8DD80AEC4A17}
    NAME "ch2,4 (send)"
    PEAKCOL 16576
    BEAT -1
    AUTOMODE 0
    VOLPAN 1 0 -1 -1 1
    MUTESOLO 0 0 0
    IPHASE 0
    ISBUS 0 0
    BUSCOMP 0 0
    SHOWINMIX 1 0.6667 0.698113 1 0.5 -1 -1 -1
    FREEMODE 0
    SEL 0
    REC 0 0 0 0 0 0 0
    VU 2
    MIDICTL -1 1
    TRACKHEIGHT 0 0
    INQ 0 0 0 0.5 100 0 0 100
    NCHAN 2
    FX 1
    TRACKID {6CCBCBB4-02B5-3C4F-AE95-8DD80AEC4A17}
    PERF 0
    MIDIOUT -1
    MAINSEND 1 0
    <FXCHAIN
      WNDRECT 32 359 724 387
      SHOW 0
      LASTSEL 0
      DOCKED 0
    >
    <ITEM
      POSITION 0
      SNAPOFFS 0
      LENGTH 40
      LOOP 1
      ALLTAKES 0
      FADEIN 1 0 0 1 0 0
      FADEOUT 1 0 0 1 0 0
      MUTE 0
      SEL 0
      YPOS 0.159341 0.05
      IGUID {94C786C6-25A1-4C4B-8C78-199CAD284906}
      IID 2
      SELSET 512
      NAME "fr. horn(s) - National_Anthems_-_Singapore.mid"
      VOLPAN 1 0 1 -1
      SOFFS 0 0
      PLAYRATE 1 1 0 -1 0 0.0025
      CHANMODE 0
      TAKECOLOR 26173599
      GUID {149BC284-A718-8F48-9B35-65769571E54C}
      <SOURCE MIDI
        HASDATA 1 480 QN
        POOLEDEVTS {6FBD2978-96DF-1544-861D-C61CD008C9DE}
        <X 0 0
          /wNmci4gaG9ybihzKQ==
        >
        <X 0 0
          /wRTb3VuZCBDYW52YXM=
        >
        e 0 91 39 7f 6
        e 0 91 3c 7f
        e 772 81 39 30 6
        e 24 81 3c 08
        e 164 91 3c 7f -42
        e 469 81 3c 21 -42
        e 11 91 39 7f -42
        e 433 81 39 01 -42
        e 47 91 3c 7f -51
        e 180 81 3c 36 -51
        e 60 91 3c 7f -36
        e 62 81 3c 3b -36
        e 58 91 3c 7f -40
        e 67 81 3c 39 -40
        e 53 91 3c 7f -37
        e 112 81 3c 2f -37
        e 128 91 3c 7f -57
        e 120 81 3c 25 -47
        e 0 91 3c 7f 58
        e 131 81 3c 22 58
        e 229 91 3c 7f -40
        e 191 81 3c 05 -40
        e 49 91 41 7f -30
        e 151 81 41 2d -30
        e 89 91 43 7f -19
        e 184 81 43 18 -19
        e 56 91 39 7f -1
        e 0 91 3c 7f -5
        e 309 81 39 01 -1
        e 82 81 3c 21 -5
        e 89 91 39 7f 4
        e 0 91 3d 7f -17
        e 304 81 39 01 4
        e 77 81 3d 13 -17
        e 99 91 39 7f -13
        e 0 91 3e 7f -20
        e 662 81 39 0c -13
        e 204 81 3e 2b -20
        e 94 91 39 7f -41
        e 401 81 39 1f -41
        e 79 91 39 7f -25
        e 467 81 39 01 -25
        e 493 91 39 7f -6
        e 381 81 39 01 -6
        e 99 91 3a 7f -6
        e 453 81 3a 01 -6
        e 27 91 37 7f
        e 443 81 37 01
        e 37 91 39 7f -2
        e 372 81 39 1b -2
        e 108 91 39 7f -1
        e 397 81 39 01 -1
        e 83 91 3c 7f 10
        e 975 81 3c 01 10
        e 225 91 3c 7f -6
        e 480 91 3e 7f 2
        e 29 81 3c 01 -6
        e 172 81 3e 01 2
        e 39 91 40 7f -9
        e 440 81 40 01 -9
        e 40 91 3c 7f -31
        e 468 81 3c 01 -31
        e 12 91 3e 7f -25
        e 429 81 3e 1a -25
        e 51 91 40 7f -44
        e 466 81 40 25 -44
        e 14 91 41 7f -41
        e 377 81 41 1b -41
        e 103 91 41 7f -26
        e 0 91 45 7f -28
        e 524 81 41 23 -26
        e 128 81 45 1e -28
        e 68 91 3c 7f -40
        e 232 81 3c 01 -40
        e 8 91 41 7f -46
        e 224 81 41 36 -46
        e 16 91 43 7f -29
        e 194 81 43 2a -29
        e 46 91 3c 7f -6
        e 0 91 41 7f -15
        e 330 81 41 08 -15
        e 137 81 3c 01 -6
        e 13 91 41 7f -19
        e 0 91 45 7f -3
        e 680 81 41 04 -19
        e 12 81 45 01 -3
        e 28 91 3c 7f -15
        e 608 81 3c 3a -15
        e 112 91 39 7f -27
        e 0 91 3c 7f -40
        e 1220 81 39 01 -27
        e 62 81 3c 23 -40
        e 158 91 41 7f 7
        e 161 81 41 3e 7
        e 199 91 41 7f -33
        e 70 81 41 37 -33
        e 50 91 3e 7f 25
        e 0 91 41 7f 17
        e 308 81 41 01 17
        e 126 81 3e 01 25
        e 46 91 41 7f -1
        e 0 91 46 7f -9
        e 369 81 46 32 -9
        e 3 81 41 40 -1
        e 108 91 41 7f -12
        e 0 91 46 7f -27
        e 357 81 46 28 -27
        e 103 81 41 0c -12
        e 20 91 45 7f -28
        e 297 81 45 01 -28
        e 63 91 44 7f -55
        e 120 91 45 7f -19
        e 29 81 44 2c -55
        e 1037 81 45 29 -19
        e 134 91 3c 7f 9
        e 213 81 3c 01 9
        e 27 91 40 7f 4
        e 173 81 40 01 4
        e 67 91 41 7f -10
        e 182 81 41 01 -10
        e 58 91 40 7f -19
        e 450 81 40 05 -19
        e 30 91 3c 7f -19
        e 462 81 3c 01 -19
        e 18 91 3e 7f -23
        e 386 81 3e 01 -23
        e 94 91 40 7f -50
        e 411 81 40 01 -50
        e 69 91 3c 7f -43
        e 0 91 41 7f -54
        e 365 81 3c 01 -43
        e 97 81 41 2c -54
        e 18 91 3c 7f -23
        e 480 91 41 7f -53
        e 18 81 3c 0f -23
        e 405 81 41 35 -53
        e 57 91 41 7f -34
        e 205 81 41 36 -34
        e 155 91 41 7f -46
        e 62 81 41 3e -46
        e 58 91 3e 7f -17
        e 0 91 41 7f 4
        e 310 81 41 1b 4
        e 132 81 3e 01 -17
        e 38 91 41 7f -25
        e 0 91 46 7f -25
        e 370 81 41 2a -25
        e 0 81 46 0c -25
        e 110 91 41 7f -17
        e 0 91 46 7f -30
        e 378 81 46 1f -30
        e 102 91 45 7f -4
        e 42 81 41 11 -17
        e 204 81 45 01 -4
        e 114 91 44 7f -50
        e 120 91 41 7f -9
        e 0 91 45 7f -15
        e 2 81 44 39 -50
        e 1221 81 41 01 -9
        e 50 81 45 0e -15
        e 167 91 3c 7f -14
        e 385 81 3c 01 -14
        e 95 91 3c 7f -3
        e 380 81 3c 3d -3
        e 100 91 39 7f -4
        e 0 91 3c 7f -11
        e 942 81 39 01 -4
        e 26 81 3c 3d -11
        e 472 91 3c 7f -4
        e 0 91 45 7f 11
        e 1581 81 45 43 11
        e 16 81 3c 4e -4
        e 323 91 40 7f -10
        e 0 91 46 7f -11
        e 404 81 40 14 -10
        e 1 81 46 35 -11
        e 75 91 40 7f -9
        e 0 91 46 7f -27
        e 480 91 3c 7f -3
        e 43 81 46 35 -27
        e 14 81 40 01 -9
        e 356 81 3c 3b -3
        e 67 91 3c 7f -22
        e 0 91 40 7f -11
        e 328 81 3c 01 -22
        e 147 81 40 3e -11
        e 5 91 39 7f -23
        e 0 91 3c 7f -32
        e 1492 81 39 53 -23
        e 11 81 3c 52 -32
        E 417 b0 7b 00
        GUID {55564767-FB5C-2945-BED6-7F1798324299}
        IGNTEMPO 0 120 4 4
        SRCCOLOR 256
        VELLANE -1 86 6
        CFGEDITVIEW -1920 19.727273 56 26 0 0 0 0 0
        KEYSNAP 0 3 102304056070 0 "Natural minor"
        TRACKSEL 226 0 0 ""
        EVTFILTER 0 -1 -1 -1 -1 0 0 0 0 -1 -1 -1 -1 0 -1 0 -1 -1
        CFGEDIT 1 0 0 0 0 0 1 0 1 1 1 0.25 16 47 1280 778 0 0 2 3 0 0 0 0 0 -1 0 0 1 64
      >
      TAKE
      NAME "fr. horn(s) - National_Anthems_-_Singapore.mid"
      TAKEVOLPAN 0 1 -1
      SOFFS 0 0
      PLAYRATE 1 1 0 -1 0 0.0025
      CHANMODE 0
      GUID {3BF6DA7B-1D5B-794D-AE0D-35F42B7B400D}
      <SOURCE MIDI
        HASDATA 1 480 QN
        POOLEDEVTS {A88BD74A-CF97-9E4E-A046-58E0B4D6125B}
        <X 0 0
          /wNmci4gaG9ybihzKQ==
        >
        <X 0 0
          /wRTb3VuZCBDYW52YXM=
        >
        E 0 91 3c 47
        E 6 91 39 44
        E 772 81 39 30
        E 18 81 3c 08
        E 122 91 3c 57
        E 469 81 3c 21
        E 11 91 39 4b
        E 433 81 39 01
        E 38 91 3c 55
        E 180 81 3c 36
        E 75 91 3c 5a
        E 62 81 3c 3b
        E 54 91 3c 5d
        E 67 81 3c 39
        E 56 91 3c 5f
        E 112 81 3c 2f
        E 108 91 3c 55
        E 130 81 3c 25
        E 105 91 3c 52
        E 131 81 3c 22
        E 131 91 3c 5d
        E 191 81 3c 05
        E 59 91 41 5d
        E 151 81 41 2d
        E 100 91 43 65
        E 184 81 43 18
        E 70 91 3c 5a
        E 4 91 39 47
        E 309 81 39 01
        E 78 81 3c 21
        E 77 91 3d 4f
        E 21 91 39 45
        E 304 81 39 01
        E 56 81 3d 13
        E 96 91 3e 4f
        E 7 91 39 33
        E 662 81 39 0c
        E 197 81 3e 2b
        E 73 91 39 57
        E 401 81 39 1f
        E 95 91 39 4b
        E 467 81 39 01
        E 512 91 39 47
        E 381 81 39 01
        E 99 91 3a 47
        E 453 81 3a 01
        E 33 91 37 3b
        E 443 81 37 01
        E 35 91 39 31
        E 372 81 39 1b
        E 109 91 39 41
        E 397 81 39 01
        E 94 91 3c 4a
        E 975 81 3c 01
        E 209 91 3c 4d
        E 488 91 3e 47
        E 21 81 3c 01
        E 180 81 3e 01
        E 28 91 40 45
        E 440 81 40 01
        E 18 91 3c 4b
        E 468 81 3c 01
        E 18 91 3e 45
        E 429 81 3e 1a
        E 32 91 40 33
        E 466 81 40 25
        E 17 91 41 3d
        E 377 81 41 1b
        E 116 91 45 33
        E 2 91 41 2b
        E 524 81 41 23
        E 126 81 45 1e
        E 56 91 3c 5f
        E 232 81 3c 01
        E 2 91 41 65
        E 224 81 41 36
        E 33 91 43 65
        E 194 81 43 2a
        E 60 91 41 5d
        E 9 91 3c 3d
        E 321 81 41 08
        E 146 81 3c 01
        E 0 91 41 4d
        E 16 91 45 45
        E 664 81 41 04
        E 28 81 45 01
        E 16 91 3c 4b
        E 608 81 3c 3a
        E 87 91 3c 4a
        E 13 91 39 2f
        E 1220 81 39 01
        E 49 81 3c 23
        E 205 91 41 65
        E 161 81 41 3e
        E 159 91 41 5f
        E 70 81 41 37
        E 100 91 41 5d
        E 8 91 3e 47
        E 300 81 41 01
        E 134 81 3e 01
        E 12 91 46 4b
        E 8 91 41 47
        E 361 81 46 32
        E 11 81 41 40
        E 82 91 46 4e
        E 15 91 41 4f
        E 342 81 46 28
        E 118 81 41 0c
        E 4 91 45 5d
        E 297 81 45 01
        E 36 91 44 4f
        E 149 81 44 2c
        E 7 91 45 55
        E 1066 81 45 29
        E 162 91 3c 47
        E 213 81 3c 01
        E 22 91 40 4b
        E 173 81 40 01
        E 53 91 41 4a
        E 182 81 41 01
        E 49 91 40 57
        E 450 81 40 05
        E 30 91 3c 47
        E 462 81 3c 01
        E 14 91 3e 4a
        E 386 81 3e 01
        E 67 91 40 4a
        E 411 81 40 01
        E 65 91 41 4f
        E 11 91 3c 41
        E 365 81 3c 01
        E 86 81 41 2c
        E 49 91 3c 1f
        E 450 91 41 4a
        E 48 81 3c 0f
        E 375 81 41 35
        E 76 91 41 52
        E 205 81 41 36
        E 143 91 41 55
        E 62 81 41 3e
        E 87 91 3e 55
        E 21 91 41 3f
        E 310 81 41 1b
        E 111 81 3e 01
        E 30 91 46 5d
        E 0 91 41 4a
        E 370 81 46 0c
        E 0 81 41 2a
        E 105 91 46 48
        E 13 91 41 4f
        E 365 81 46 1f
        E 128 91 45 5f
        E 29 81 41 11
        E 217 81 45 01
        E 68 91 44 55
        E 122 81 44 39
        E 33 91 45 55
        E 6 91 41 4e
        E 1223 81 41 01
        E 44 81 45 0e
        E 168 91 3c 57
        E 385 81 3c 01
        E 106 91 3c 55
        E 380 81 3c 3d
        E 92 91 3c 47
        E 7 91 39 3b
        E 942 81 39 01
        E 19 81 3c 3d
        E 479 91 3c 27
        E 15 91 45 42
        E 1581 81 45 43
        E 1 81 3c 4e
        E 316 91 46 4b
        E 1 91 40 4f
        E 404 81 46 35
        E 0 81 40 14
        E 59 91 46 47
        E 18 91 40 42
        E 486 91 3c 4f
        E 19 81 46 35
        E 32 81 40 01
        E 362 81 3c 3b
        E 48 91 3c 4b
        E 11 91 40 47
        E 317 81 3c 01
        E 142 91 3c 4b
        E 9 91 39 48
        E 7 81 40 3e
        E 1485 81 39 53
        E 2 81 3c 52
        E 449 b0 7b 00
        GUID {E3C1733B-D198-0F46-8559-E6A0F425674A}
        IGNTEMPO 0 120 4 4
        SRCCOLOR 297
        VELLANE -1 86 6
      >
    >
    <ITEM
      POSITION 0
      SNAPOFFS 0
      LENGTH 40
      LOOP 1
      ALLTAKES 0
      FADEIN 1 0 0 1 0 0
      FADEOUT 1 0 0 1 0 0
      MUTE 0
      SEL 0
      YPOS 0.318681 0.05
      IGUID {B2688AD8-7E51-744B-9310-5C5DB41203B7}
      IID 4
      NAME "tuba(s) - National_Anthems_-_Singapore.mid"
      VOLPAN 1 0 1 -1
      SOFFS 0 0
      PLAYRATE 1 1 0 -1 0 0.0025
      CHANMODE 0
      TAKECOLOR 26173599
      GUID {179B74F7-9985-4B4F-974A-627AA03A923A}
      <SOURCE MIDI
        HASDATA 1 480 QN
        POOLEDEVTS {6F642990-B8B5-F54B-BC3C-DB4C083906CA}
        <X 0 0
          /wN0dWJhKHMp
        >
        <X 0 0
          /wRTb3VuZCBDYW52YXM=
        >
        e 0 93 1d 7f
        e 867 83 1d 3e
        e 93 93 1d 7f -57
        e 420 83 1d 44 -57
        e 60 93 1d 7f -50
        e 480 93 24 7f -19
        e 13 83 1d 2a -50
        e 176 83 24 4d -19
        e 51 93 24 7f -31
        e 67 83 24 50 -31
        e 53 93 24 7f -43
        e 64 83 24 52 -43
        e 56 93 24 7f -48
        e 100 83 24 3c -48
        e 140 93 24 7f -59
        e 131 83 24 3d -59
        e 109 93 24 7f -48
        e 525 83 24 55 -48
        e 435 93 29 7f 12
        e 333 83 29 1d 12
        e 147 93 28 7f -20
        e 392 83 28 2c -20
        e 88 93 26 7f -13
        e 368 83 26 03 -13
        e 112 93 29 7f -8
        e 350 83 29 01 -8
        e 130 93 26 7f -19
        e 392 83 26 10 -19
        e 88 93 29 7f -18
        e 401 83 29 01 -18
        e 79 93 21 7f -27
        e 473 83 21 48 -27
        e 7 93 29 7f 2
        e 440 83 29 1c 2
        e 40 93 22 7f 2
        e 417 83 22 22 2
        e 63 93 24 7f -20
        e 465 83 24 01 -20
        e 15 93 1d 7f -19
        e 405 83 1d 33 -19
        e 75 93 1d 7f -14
        e 274 83 1d 01 -14
        e 206 93 24 7f -36
        e 240 93 2b 7f -26
        e 4 83 24 2b -36
        e 162 83 2b 28 -26
        e 74 93 28 7f -27
        e 160 83 28 40 -27
        e 80 93 26 7f -19
        e 166 83 26 24 -19
        e 74 93 24 7f -13
        e 490 83 24 4e -13
        e 470 93 24 7f -23
        e 376 83 24 01 -23
        e 104 93 24 7f -12
        e 339 83 24 13 -12
        e 141 93 24 7f -29
        e 357 83 24 01 -29
        e 123 93 24 7f -37
        e 436 83 24 01 -37
        e 44 93 29 7f -30
        e 356 83 29 1f -30
        e 124 93 24 7f -18
        e 406 83 24 38 -18
        e 74 93 29 7f -25
        e 506 83 29 4a -25
        e 454 93 24 7f -19
        e 338 83 24 17 -19
        e 142 93 24 7f -11
        e 359 83 24 22 -11
        e 121 93 24 7f -24
        e 338 83 24 34 -24
        e 142 93 24 7f -16
        e 313 83 24 1a -16
        e 167 93 29 7f -18
        e 341 83 29 34 -18
        e 139 93 24 7f -12
        e 378 83 24 19 -12
        e 102 93 1d 7f -2
        e 374 83 1d 46 -2
        e 106 93 29 7f 21
        e 407 83 29 20 21
        e 73 93 22 7f 17
        e 368 83 22 0e 17
        e 112 93 22 7f 10
        e 368 83 22 38 10
        e 112 93 22 7f -11
        e 383 83 22 2d -11
        e 97 93 24 7f -30
        e 480 93 1d 7f -21
        e 2 83 24 17 -30
        e 146 83 1d 44 -21
        e 92 93 1d 7f -22
        e 171 83 1d 42 -22
        e 69 93 21 7f -26
        e 176 83 21 42 -26
        e 64 93 22 7f -18
        e 163 83 22 47 -18
        e 77 93 24 7f -10
        e 502 83 24 48 -10
        e 458 93 24 7f -27
        e 378 83 24 01 -27
        e 102 93 24 7f -22
        e 387 83 24 01 -22
        e 93 93 24 7f -18
        e 376 83 24 43 -18
        e 104 93 24 7f -29
        e 471 83 24 24 -29
        e 9 93 29 7f -35
        e 159 83 29 44 -35
        e 81 93 29 7f -9
        e 145 83 29 3a -9
        e 95 93 24 7f -19
        e 160 83 24 29 -19
        e 80 93 21 7f -27
        e 171 83 21 2c -27
        e 69 93 1d 7f -20
        e 325 83 1d 30 -20
        e 155 93 29 7f -33
        e 457 83 29 1b -33
        e 23 93 22 7f -15
        e 367 83 22 40 -15
        e 113 93 22 7f -6
        e 419 83 22 4d -6
        e 61 93 22 7f 1
        e 382 83 22 31 1
        e 98 93 24 7f -23
        e 413 83 24 10 -23
        e 67 93 1d 7f -25
        e 129 83 1d 20 -25
        e 111 93 1d 7f -27
        e 173 83 1d 31 -27
        e 67 93 21 7f -22
        e 171 83 21 2f -22
        e 69 93 22 7f -17
        e 164 83 22 2e -17
        e 76 93 24 7f -17
        e 328 83 24 2b -17
        e 152 93 24 7f -16
        e 395 83 24 47 -16
        e 85 93 29 7f -9
        e 326 83 29 23 -9
        e 154 93 24 7f -9
        e 389 83 24 20 -9
        e 91 93 29 7f -7
        e 521 83 29 44 -7
        e 439 93 29 7f -18
        e 151 83 29 35 -18
        e 89 93 24 7f -27
        e 180 83 24 28 -27
        e 60 93 29 7f -20
        e 146 83 29 28 -20
        e 94 93 2b 7f -16
        e 154 83 2b 2e -16
        e 86 93 2d 7f -21
        e 149 83 2d 37 -21
        e 91 93 2e 7f -33
        e 151 83 2e 22 -33
        e 89 93 30 7f -13
        e 160 83 30 29 -13
        e 80 93 32 7f -10
        e 130 83 32 2a -10
        e 110 93 30 7f 3
        e 402 83 30 15 3
        e 78 93 24 7f 23
        e 358 83 24 4c 23
        e 122 93 24 7f -11
        e 377 83 24 29 -11
        e 103 93 24 7f -18
        e 328 83 24 16 -18
        e 152 93 29 7f -19
        e 347 83 29 1a -19
        e 133 93 24 7f -27
        e 359 83 24 28 -27
        e 121 93 1d 7f -19
        e 537 83 1d 66 -19
        E 423 b0 7b 00
        GUID {4FD719B4-2902-6443-91A9-BFBCF6CA93FA}
        IGNTEMPO 0 120 4 4
        SRCCOLOR 258
        VELLANE -1 86 6
        CFGEDITVIEW 27623.413872 290.665845 76 19 0 0 0 0 0
        KEYSNAP 0 3 102304056070 0 "Natural minor"
        TRACKSEL 226 0 0 ""
        EVTFILTER 0 -1 -1 -1 -1 0 0 0 0 -1 -1 -1 -1 0 -1 0 -1 -1
        CFGEDIT 1 0 0 0 0 0 1 0 1 1 1 0.25 32 63 1280 778 0 0 2 3 0 0 0 0 0 -1 0 0 1 64
      >
      TAKE
      NAME "tuba(s) - National_Anthems_-_Singapore.mid"
      TAKEVOLPAN 0 1 -1
      SOFFS 0 0
      PLAYRATE 1 1 0 -1 0 0.0025
      CHANMODE 0
      GUID {E02BCECF-6219-294E-80BF-CB2CEB3F8507}
      <SOURCE MIDI
        HASDATA 1 480 QN
        POOLEDEVTS {56315424-0261-6E48-BD95-593D93C61FDB}
        <X 0 0
          /wN0dWJhKHMp
        >
        <X 0 0
          /wRTb3VuZCBDYW52YXM=
        >
        E 0 93 1d 77
        E 867 83 1d 3e
        E 36 93 1d 6f
        E 420 83 1d 44
        E 67 93 1d 6f
        E 493 83 1d 2a
        E 18 93 24 6f
        E 189 83 24 4d
        E 39 93 24 6a
        E 67 83 24 50
        E 41 93 24 6d
        E 64 83 24 52
        E 51 93 24 73
        E 100 83 24 3c
        E 129 93 24 73
        E 131 83 24 3d
        E 120 93 24 73
        E 525 83 24 55
        E 495 93 29 6f
        E 333 83 29 1d
        E 115 93 28 6a
        E 392 83 28 2c
        E 95 93 26 6d
        E 368 83 26 03
        E 117 93 29 73
        E 350 83 29 01
        E 119 93 26 6a
        E 392 83 26 10
        E 89 93 29 6f
        E 401 83 29 01
        E 70 93 21 73
        E 473 83 21 48
        E 36 93 29 73
        E 440 83 29 1c
        E 40 93 22 6f
        E 417 83 22 22
        E 41 93 24 6a
        E 465 83 24 01
        E 16 93 1d 6d
        E 405 83 1d 33
        E 80 93 1d 6a
        E 274 83 1d 01
        E 184 93 24 6a
        E 244 83 24 2b
        E 6 93 2b 5f
        E 166 83 2b 28
        E 73 93 28 6f
        E 160 83 28 40
        E 88 93 26 6a
        E 166 83 26 24
        E 80 93 24 6f
        E 490 83 24 4e
        E 460 93 24 6d
        E 376 83 24 01
        E 115 93 24 67
        E 339 83 24 13
        E 124 93 24 67
        E 357 83 24 01
        E 115 93 24 67
        E 436 83 24 01
        E 51 93 29 73
        E 356 83 29 1f
        E 136 93 24 62
        E 406 83 24 38
        E 67 93 29 73
        E 506 83 29 4a
        E 460 93 24 6d
        E 338 83 24 17
        E 150 93 24 65
        E 359 83 24 22
        E 108 93 24 5f
        E 338 83 24 34
        E 150 93 24 6a
        E 313 83 24 1a
        E 165 93 29 77
        E 341 83 29 34
        E 145 93 24 6d
        E 378 83 24 19
        E 112 93 1d 77
        E 374 83 1d 46
        E 129 93 29 6f
        E 407 83 29 20
        E 69 93 22 6f
        E 368 83 22 0e
        E 105 93 22 6f
        E 368 83 22 38
        E 91 93 22 6f
        E 383 83 22 2d
        E 78 93 24 6d
        E 482 83 24 17
        E 7 93 1d 6f
        E 148 83 1d 44
        E 91 93 1d 6f
        E 171 83 1d 42
        E 65 93 21 6f
        E 176 83 21 42
        E 72 93 22 6f
        E 163 83 22 47
        E 85 93 24 6f
        E 502 83 24 48
        E 441 93 24 67
        E 378 83 24 01
        E 107 93 24 65
        E 387 83 24 01
        E 97 93 24 65
        E 376 83 24 43
        E 93 93 24 65
        E 471 83 24 24
        E 3 93 29 73
        E 159 83 29 44
        E 107 93 29 73
        E 145 83 29 3a
        E 85 93 24 6f
        E 160 83 24 29
        E 72 93 21 6f
        E 171 83 21 2c
        E 76 93 1d 6a
        E 325 83 1d 30
        E 142 93 29 73
        E 457 83 29 1b
        E 41 93 22 6f
        E 367 83 22 40
        E 122 93 22 73
        E 419 83 22 4d
        E 68 93 22 73
        E 382 83 22 31
        E 74 93 24 6a
        E 413 83 24 10
        E 65 93 1d 6d
        E 129 83 1d 20
        E 109 93 1d 6f
        E 173 83 1d 31
        E 72 93 21 6f
        E 171 83 21 2f
        E 74 93 22 6f
        E 164 83 22 2e
        E 76 93 24 6d
        E 328 83 24 2b
        E 153 93 24 6f
        E 395 83 24 47
        E 92 93 29 77
        E 326 83 29 23
        E 154 93 24 6a
        E 389 83 24 20
        E 93 93 29 6f
        E 521 83 29 44
        E 428 93 29 77
        E 151 83 29 35
        E 80 93 24 6a
        E 180 83 24 28
        E 67 93 29 73
        E 146 83 29 28
        E 98 93 2b 65
        E 154 83 2b 2e
        E 81 93 2d 6a
        E 149 83 2d 37
        E 79 93 2e 6f
        E 151 83 2e 22
        E 109 93 30 65
        E 160 83 30 29
        E 83 93 32 67
        E 130 83 32 2a
        E 123 93 30 6f
        E 402 83 30 15
        E 98 93 24 6f
        E 358 83 24 4c
        E 88 93 24 6a
        E 377 83 24 29
        E 96 93 24 6d
        E 328 83 24 16
        E 151 93 29 73
        E 347 83 29 1a
        E 125 93 24 6f
        E 359 83 24 28
        E 129 93 1d 73
        E 537 83 1d 66
        E 442 b0 7b 00
        GUID {2477E7C9-97A7-ED4A-BD38-E2987C5F4AF7}
        IGNTEMPO 0 120 4 4
        SRCCOLOR 299
        VELLANE -1 86 6
      >
    >
  >
  <TRACK {BE34EA7E-2789-BE43-9D9C-227AFB60631D}
    NAME "ch5 (send bass)"
    PEAKCOL 16576
    BEAT -1
    AUTOMODE 0
    VOLPAN 1 0 -1 -1 1
    MUTESOLO 0 0 0
    IPHASE 0
    ISBUS 2 -1
    BUSCOMP 0 0
    SHOWINMIX 1 0.6667 0.698113 1 0.5 -1 -1 -1
    FREEMODE 0
    SEL 0
    REC 0 0 0 0 0 0 0
    VU 2
    TRACKHEIGHT 0 0
    INQ 0 0 0 0.5 100 0 0 100
    NCHAN 2
    FX 1
    TRACKID {BE34EA7E-2789-BE43-9D9C-227AFB60631D}
    PERF 0
    MIDIOUT -1
    MAINSEND 1 0
  >
  <TRACK {B91E5163-8C2B-404F-8C78-0605AAF52936}
    NAME ChipFront
    PEAKCOL 16576
    BEAT -1
    AUTOMODE 0
    VOLPAN 1 0 -1 -1 1
    MUTESOLO 0 0 0
    IPHASE 0
    ISBUS 0 0
    BUSCOMP 0 0
    SHOWINMIX 1 0.6667 0.698113 1 0.5 -1 -1 -1
    FREEMODE 0
    SEL 0
    REC 0 0 0 0 0 0 0
    VU 2
    TRACKHEIGHT 0 0
    INQ 0 0 0 0.5 100 0 0 100
    NCHAN 4
    FX 1
    TRACKID {B91E5163-8C2B-404F-8C78-0605AAF52936}
    PERF 0
    AUXRECV 6 0 1 0 0 0 0 0 0 -1 0 -1 ''
    MIDIOUT -1
    MAINSEND 1 0
    <FXCHAIN
      SHOW 0
      LASTSEL 0
      DOCKED 0
      BYPASS 0 0 0
      <VST "VST: FabFilter Volcano 2 (SC) (FabFilter)" "FabFilter Volcano 2 (SC).vst" 0 ""
        NDJWRu9e7f4EAAAAAQAAAAAAAAACAAAAAAAAAAQAAAAAAAAACAAAAAAAAAAEAAAAAQAAAAAAAAACAAAAAAAAAAQAAAAAAAAACAAAAAAAAADcCwAAAAAAAAAAEADvvq3e
        DfCt3gAAAD8AAAA/AAAAPwAAAD8AAIA/AAAAAAAAAD+rqqo+rb5oPwAAAD+KDTI8zczMPQAAAAAAAAAAAAAAAAAAgD8AAIA/Qix2PwAAAD9tsOA9mpkZPwAAAAAAAAAA
        56/fPAAAgD8AAAAAAACAPwAAAD8AAAAAmpkZPwAAAAAAAAAAAAAAAAAAgD8AAAAAAACAPwAAAD8AAAAAmpkZPwAAAAAAAAAAAAAAAAAAgD8AAAAAq6qqPgBOsj4AAAA/
        AAAAAMHKST9ddFE/AAAAAImIiD0AAIA/qheIPgAAAAAAAAAAAAAAAAAAAAAAAIA/AAAAAAAAAD8AAAAAAAAAAAAAAAAAAAA/AAAAAAAAAAAAAAAAAAAAPwAAAAAAAAAA
        AAAAAAAAAD8AAAAAAAAAAAAAAAAAAAA/AAAAAAAAAAAAAAAAAAAAPwAAAAAAAAAAAAAAAAAAAD8AAAAAAAAAAAAAAAAAAAA/AAAAAAAAAAAAAAAAAAAAPwAAAAAAAAAA
        AAAAAAAAAD8AAAAAAAAAAAAAAAAAAAA/AAAAAAAAAAAAAAAAAAAAPwAAAAAAAAAAAAAAAAAAAD8AAAAAAAAAAAAAAAAAAAA/AAAAAAAAAAAAAAAAfBkQPgAAAD8oo7c9
        AACAPwAAAAAAAAAAiYiIPfLSJT8AAAAAAACAPwAAAAB0aNE9AAAAAAAAgD8AAAAAAAAAPwAAAAAAAAAAAAAAAAAAAD8AAAAAAAAAAAAAAAAAAAA/AAAAAAAAAAAAAAAA
        AAAAPwAAAAAAAAAAAAAAAAAAAD8AAAAAAAAAAAAAAAAAAAA/AAAAAAAAAAAAAAAAAAAAPwAAAAAAAAAAAAAAAAAAAD8AAAAAAAAAAAAAAAAAAAA/AAAAAAAAAAAAAAAA
        AAAAPwAAAAAAAAAAAAAAAAAAAD8AAAAAAAAAAAAAAAAAAAA/AAAAAAAAAAAAAAAAAAAAPwAAAAAAAAAAAAAAAAAAAD8AAAAAAAAAAAAAAAC+9H0+AAAAPwAAAD8AAAA/
        AAAAAAAAAACJiIg9AAAAPwAAAAAAAAAAAAAAAAAAAD8AAAAAAAAAAAAAAAAAAAA/AAAAAAAAAAAAAAAAAAAAPwAAAAAAAAAAAAAAAAAAAD8AAAAAAAAAAAAAAAAAAAA/
        AAAAAAAAAAAAAAAAAAAAPwAAAAAAAAAAAAAAAAAAAD8AAAAAAAAAAAAAAAAAAAA/AAAAAAAAAAAAAAAAAAAAPwAAAAAAAAAAAAAAAAAAAD8AAAAAAAAAAAAAAAAAAAA/
        AAAAAAAAAAAAAAAAAAAAPwAAAAAAAAAAAAAAAAAAAD8AAAAAAAAAAAAAAAAAAAA/AAAAAAAAAAAAAAAAAAAAPwAAAAAAAAAAAAAAAL70fT4AAAA/AAAAPwAAAD8AAAAA
        AAAAAImIiD0AAAA/AAAAAAAAAAAAAAAAAAAAPwAAAAAAAAAAAAAAAAAAAD8AAAAAAAAAAAAAAAAAAAA/AAAAAAAAAAAAAAAAAAAAPwAAAAAAAAAAAAAAAAAAAD8AAAAA
        AAAAAAAAAAAAAAA/AAAAAAAAAAAAAAAAAAAAPwAAAAAAAAAAAAAAAAAAAD8AAAAAAAAAAAAAAAAAAAA/AAAAAAAAAAAAAAAAAAAAPwAAAAAAAAAAAAAAAAAAAD8AAAAA
        AAAAAAAAAAAAAAA/AAAAAAAAAAAAAAAAAAAAPwAAAAAAAAAAAAAAAAAAAD8AAAAAAAAAAAAAAAAAAAA/AAAAAAAAAAAAAAAAvvR9PgAAAD8AAAA/AAAAPwAAAAAAAAAA
        iYiIPQAAAD8AAAAAAAAAAAAAAAAAAAA/AAAAAAAAAAAAAAAAAAAAPwAAAAAAAAAAAAAAAAAAAD8AAAAAAAAAAAAAAAAAAAA/AAAAAAAAAAAAAAAAAAAAPwAAAAAAAAAA
        AAAAAAAAAD8AAAAAAAAAAAAAAAAAAAA/AAAAAAAAAAAAAAAAAAAAPwAAAAAAAAAAAAAAAAAAAD8AAAAAAAAAAAAAAAAAAAA/AAAAAAAAAAAAAAAAAAAAPwAAAAAAAAAA
        AAAAAAAAAD8AAAAAAAAAAAAAAAAAAAA/AAAAAAAAAAAAAAAAAAAAPwAAAAAAAAAAAAAAAAAAAD8AAAAAAAAAAAAAAAC+9H0+AAAAPwAAAD8AAAA/AAAAAAAAAACJiIg9
        AAAAPwAAAAAAAAAAAAAAAAAAAD8AAAAAAAAAAAAAAAAAAAA/AAAAAAAAAAAAAAAAAAAAPwAAAAAAAAAAAAAAAAAAAD8AAAAAAAAAAAAAAAAAAAA/AAAAAAAAAAAAAAAA
        AAAAPwAAAAAAAAAAAAAAAAAAAD8AAAAAAAAAAAAAAAAAAAA/AAAAAAAAAAAAAAAAAAAAPwAAAAAAAAAAAAAAAAAAAD8AAAAAAAAAAAAAAAAAAAA/AAAAAAAAAAAAAAAA
        AAAAPwAAAAAAAAAAAAAAAAAAAD8AAAAAAAAAAAAAAAAAAAA/AAAAAAAAAAAAAAAAAAAAPwAAAAAAAAAAAAAAAAAAAACamZk+AAAAAAAAAAAAAAAAAACAPwAAAACamZk+
        AAAAAAAAAAAAAAAAAACAPwAAAACamZk+AAAAAAAAAAAAAAAAAACAPwAAAACamZk+AAAAAAAAAAAAAAAAAACAPwAAAACamZk+AAAAAAAAAAAAAAAAAACAPwAAAACamZk+
        AAAAAAAAAAAAAAAAAACAPwAAAAAAAAAAAAAAAAAAAAAAAAAAAAAAAAAAAAAAAAAAAAAAAAAAAAAAAAAAAAAAAAAAAAAAAAAAAAAAAAAAAAAAAAAAAAAAAAAAAAAAAAAA
        AAAAAAAAAAAAAAAAAAAAAAAAAAAAAAAAAAAAAAAAAAAAAAAAAAAAAAAAAAAAAAAAAAAAAAAAAAAAAAAAAAAAAAAAAAAAAAAAq6oqPdmJnT2BKFY+AAAAAAAAAAC/55Y9
        AAAAAAAAAD8AAAAAAAAAAAAAAAAAAAAAAAAAPwAAAAAAAAAAAAAAAAAAAAAAAAA/AAAAAAAAAAAAAAAAAAAAAAAAAAAAAAAAAAAAAAAAAAAAAAAAAAAAAAAAAAAAAAAA
        AAAAAAAAAAAAAAAAAAAAAAAAAAAAAAAAAAAAAAAAAAAAAAAAAAAAAAAAAAAAAAAAAAAAAAAAAAAAAAAAAAAAAAAAAAAAAAAAAAAAAAAAAAAAAAAAAAAAAAAAAAAAAAAA
        AAAAAAAAAAAAAAAAAAAAAAAAAAAAAAAAAAAAAAAAAAAAAAAAAAAAAAAAAAAAAAAAAAAAAAAAAAAAAAAAAAAAAAAAAAAAAAAAAAAAAAAAAAAAAAAAAAAAAAAAAAAAAAAA
        AAAAAAAAAAAAAAAAAAAAAAAAAAAAAAAAAAAAAAAAAAAAAAAAAAAAAAAAAAAAAAAAAAAAAAAAAAAAAAAAAAAAAAAAAAAAAAAAAAAAAAAAAAAAAAAAAAAAAAAAAAAAAAAA
        AAAAAAAAAAAAAAAAAAAAAAAAAAAAAAAAAAAAAAAAAAAAAAAAAAAAAAAAAAAAAAAAAAAAAAAAAAAAAAAAAAAAAAAAAAAAAAAAAAAAAAAAAAAAAAA/AAAAPwAAAD8AAAA/
        AAAAPwAAAD8AAAA/AAAAPwAAAAAAAAAAAAAAAAAAAAAAAAAAAAAAAAAAAAAAAAAAAAAAAAAAAAAAAAAAAAAAAAAAAAAAAAAAAAAAAAAAAAAAAAAAAAAAAAAAAAAAAAAA
        AAAAAAAAAAAAAAAAAAAAAAAAAAAAAAAAAAAAAAAAAAAAAAAAAAAAAAAAAAAAAAAAAAAAAAAAAAAAAAAAAAAAAAAAAAAAAAAAAAAAAAAAAAAAAAAAAAAAAAAAAAAAAAAA
        AAAAAAAAAAAAAAAAAAAAAAAAAAAAAAAAAAAAAAAAAAAAAAAAAAAAAAAAAAAAAAAAAAAAAAAAAAAAAAAAAAAAAAAAAAAAAAAAAAAAAAAAAAAAAAAAAAAAAAAAAAAAAAAA
        AAAAAAAAAAAAAAAAAAAAAAAAAAAAAAAAAAAAAAAAAAAAAAAAAAAAAAAAAAAAAAAAAAAAAAAAAABDaGlwRnJvbnQAQ2hpcEZyb250ABAAAAA=
      >
      FLOATPOS 36 32 641 529
      FXID {4C5A6810-F3ED-0645-A06D-6758F70CB097}
      WAK 0
    >
  >
  <TRACK {4E9F66C4-38E7-4946-B39F-214CBB1CFB8B}
    NAME ChipSide
    PEAKCOL 16576
    BEAT -1
    AUTOMODE 0
    VOLPAN 1 0 -1 -1 1
    MUTESOLO 0 0 0
    IPHASE 0
    ISBUS 0 0
    BUSCOMP 0 0
    SHOWINMIX 1 0.6667 0.698113 1 0.5 -1 -1 -1
    FREEMODE 0
    SEL 0
    REC 0 0 0 0 0 0 0
    VU 2
    TRACKHEIGHT 0 0
    INQ 0 0 0 0.5 100 0 0 100
    NCHAN 4
    FX 1
    TRACKID {4E9F66C4-38E7-4946-B39F-214CBB1CFB8B}
    PERF 0
    AUXRECV 6 0 1.03113579563571 0 0 0 0 2 0 -1 0 -1 ''
    MIDIOUT -1
    MAINSEND 1 0
    <FXCHAIN
      SHOW 0
      LASTSEL 0
      DOCKED 0
      BYPASS 0 0 0
      <VST "VST: FabFilter Volcano 2 (SC) (FabFilter)" "FabFilter Volcano 2 (SC).vst" 0 ""
        NDJWRu9e7f4EAAAAAQAAAAAAAAACAAAAAAAAAAQAAAAAAAAACAAAAAAAAAAIAAAAAQAAAAAAAAACAAAAAAAAAAQAAAAAAAAACAAAAAAAAAAQAAAAAAAAACAAAAAAAAAA
        QAAAAAAAAACAAAAAAAAAANwLAAAAAAAAAAAQAO++rd4N8K3eAAAAPwAAAD8AAAA/AAAAPwAAgD8AAAAAAACAP6uqqj7KZRQ/AAAAP08aoD3NzMw9AAAAAAAAAABChiI/
        AACAPwAAgD9CLHY/AAAAP22w4D2amRk/AAAAAAAAAADnr988AACAPwAAAAAAAIA/AAAAPwAAAACamRk/AAAAAAAAAAAAAAAAAACAPwAAAAAAAIA/AAAAPwAAAACamRk/
        AAAAAAAAAAAAAAAAAACAPwAAAACrqqo+gnQAPRDmyT2YJ/o+AACAPwAAAAAAAAAAiYgIPgAAgD+zw7Q+AACAPwAAAAAAAAAAAAAAAKuqqj4AAAAAnhUdPwAAAAAAAIA/
        AAAAAAAAAD8AAAAAAAAAAAAAAAAAAAA/AAAAAAAAAAAAAAAAAAAAPwAAAAAAAAAAAAAAAAAAAD8AAAAAAAAAAAAAAAAAAAA/AAAAAAAAAAAAAAAAAAAAPwAAAAAAAAAA
        AAAAAAAAAD8AAAAAAAAAAAAAAAAAAAA/AAAAAAAAAAAAAAAAAAAAPwAAAAAAAAAAAAAAAAAAAD8AAAAAAAAAAAAAAAAAAAA/AAAAAAAAAAAAAAAAAAAAPwAAAAAAAAAA
        AAAAAAAAAD8AAAAAAAAAAAAAAAB8GRA+AAAAPyijtz0AAIA/AAAAAAAAAACJiIg98tIlPwAAAAAAAIA/AAAAAHRo0T0AAAAAAACAPwAAAAAAAAA/AAAAAAAAAAAAAAAA
        AAAAPwAAAAAAAAAAAAAAAAAAAD8AAAAAAAAAAAAAAAAAAAA/AAAAAAAAAAAAAAAAAAAAPwAAAAAAAAAAAAAAAAAAAD8AAAAAAAAAAAAAAAAAAAA/AAAAAAAAAAAAAAAA
        AAAAPwAAAAAAAAAAAAAAAAAAAD8AAAAAAAAAAAAAAAAAAAA/AAAAAAAAAAAAAAAAAAAAPwAAAAAAAAAAAAAAAAAAAD8AAAAAAAAAAAAAAAAAAAA/AAAAAAAAAAAAAAAA
        AAAAPwAAAAAAAAAAAAAAAL70fT4AAAA/AAAAPwAAAD8AAAAAAAAAAImIiD0AAAA/AAAAAAAAAAAAAAAAAAAAPwAAAAAAAAAAAAAAAAAAAD8AAAAAAAAAAAAAAAAAAAA/
        AAAAAAAAAAAAAAAAAAAAPwAAAAAAAAAAAAAAAAAAAD8AAAAAAAAAAAAAAAAAAAA/AAAAAAAAAAAAAAAAAAAAPwAAAAAAAAAAAAAAAAAAAD8AAAAAAAAAAAAAAAAAAAA/
        AAAAAAAAAAAAAAAAAAAAPwAAAAAAAAAAAAAAAAAAAD8AAAAAAAAAAAAAAAAAAAA/AAAAAAAAAAAAAAAAAAAAPwAAAAAAAAAAAAAAAAAAAD8AAAAAAAAAAAAAAAAAAAA/
        AAAAAAAAAAAAAAAAvvR9PgAAAD8AAAA/AAAAPwAAAAAAAAAAiYiIPQAAAD8AAAAAAAAAAAAAAAAAAAA/AAAAAAAAAAAAAAAAAAAAPwAAAAAAAAAAAAAAAAAAAD8AAAAA
        AAAAAAAAAAAAAAA/AAAAAAAAAAAAAAAAAAAAPwAAAAAAAAAAAAAAAAAAAD8AAAAAAAAAAAAAAAAAAAA/AAAAAAAAAAAAAAAAAAAAPwAAAAAAAAAAAAAAAAAAAD8AAAAA
        AAAAAAAAAAAAAAA/AAAAAAAAAAAAAAAAAAAAPwAAAAAAAAAAAAAAAAAAAD8AAAAAAAAAAAAAAAAAAAA/AAAAAAAAAAAAAAAAAAAAPwAAAAAAAAAAAAAAAAAAAD8AAAAA
        AAAAAAAAAAC+9H0+AAAAPwAAAD8AAAA/AAAAAAAAAACJiIg9AAAAPwAAAAAAAAAAAAAAAAAAAD8AAAAAAAAAAAAAAAAAAAA/AAAAAAAAAAAAAAAAAAAAPwAAAAAAAAAA
        AAAAAAAAAD8AAAAAAAAAAAAAAAAAAAA/AAAAAAAAAAAAAAAAAAAAPwAAAAAAAAAAAAAAAAAAAD8AAAAAAAAAAAAAAAAAAAA/AAAAAAAAAAAAAAAAAAAAPwAAAAAAAAAA
        AAAAAAAAAD8AAAAAAAAAAAAAAAAAAAA/AAAAAAAAAAAAAAAAAAAAPwAAAAAAAAAAAAAAAAAAAD8AAAAAAAAAAAAAAAAAAAA/AAAAAAAAAAAAAAAAAAAAPwAAAAAAAAAA
        AAAAAL70fT4AAAA/AAAAPwAAAD8AAAAAAAAAAImIiD0AAAA/AAAAAAAAAAAAAAAAAAAAPwAAAAAAAAAAAAAAAAAAAD8AAAAAAAAAAAAAAAAAAAA/AAAAAAAAAAAAAAAA
        AAAAPwAAAAAAAAAAAAAAAAAAAD8AAAAAAAAAAAAAAAAAAAA/AAAAAAAAAAAAAAAAAAAAPwAAAAAAAAAAAAAAAAAAAD8AAAAAAAAAAAAAAAAAAAA/AAAAAAAAAAAAAAAA
        AAAAPwAAAAAAAAAAAAAAAAAAAD8AAAAAAAAAAAAAAAAAAAA/AAAAAAAAAAAAAAAAAAAAPwAAAAAAAAAAAAAAAAAAAD8AAAAAAAAAAAAAAAAAAAA/AAAAAAAAAAAAAAAA
        AAAAAJqZmT4AAAAAAAAAAAAAAAAAAIA/AAAAAJqZmT4AAAAAAAAAAAAAAAAAAIA/AAAAAJqZmT4AAAAAAAAAAAAAAAAAAIA/AAAAAJqZmT4AAAAAAAAAAAAAAAAAAIA/
        AAAAAJqZmT4AAAAAAAAAAAAAAAAAAIA/AAAAAJqZmT4AAAAAAAAAAAAAAAAAAIA/AAAAAAAAAAAAAAAAAAAAAAAAAAAAAAAAAAAAAAAAAAAAAAAAAAAAAAAAAAAAAAAA
        AAAAAAAAAAAAAAAAAAAAAAAAAAAAAAAAAAAAAAAAAAAAAAAAAAAAAAAAAAAAAAAAAAAAAAAAAAAAAAAAAAAAAAAAAAAAAAAAAAAAAAAAAAAAAAAAAAAAAAAAAAAAAAAA
        AAAAAAAAAACrqqo92YmdPYEoVj4AAIA/AAAAAL/nlj3ZiR09FrMxPwAAAAAAAAAAknYsPAAAAAAAAAA/AAAAAAAAAAAAAAAAAAAAAAAAAD8AAAAAAAAAAAAAAAAAAAAA
        AAAAAAAAAAAAAAAAAAAAAAAAAAAAAAAAAAAAAAAAAAAAAAAAAAAAAAAAAAAAAAAAAAAAAAAAAAAAAAAAAAAAAAAAAAAAAAAAAAAAAAAAAAAAAAAAAAAAAAAAAAAAAAAA
        AAAAAAAAAAAAAAAAAAAAAAAAAAAAAAAAAAAAAAAAAAAAAAAAAAAAAAAAAAAAAAAAAAAAAAAAAAAAAAAAAAAAAAAAAAAAAAAAAAAAAAAAAAAAAAAAAAAAAAAAAAAAAAAA
        AAAAAAAAAAAAAAAAAAAAAAAAAAAAAAAAAAAAAAAAAAAAAAAAAAAAAAAAAAAAAAAAAAAAAAAAAAAAAAAAAAAAAAAAAAAAAAAAAAAAAAAAAAAAAAAAAAAAAAAAAAAAAAAA
        AAAAAAAAAAAAAAAAAAAAAAAAAAAAAAAAAAAAAAAAAAAAAAAAAAAAAAAAAAAAAAAAAAAAAAAAAAAAAAAAAAAAAAAAAAAAAAAAAAAAAAAAAAAAAAAAAAAAAAAAAAAAAAAA
        AAAAAAAAAAAAAAAAAAAAAAAAAD8AAAA/AAAAPwAAAD8AAAA/AAAAPwAAAD8AAAA/AAAAAAAAAAAAAAAAAAAAAAAAAAAAAAAAAAAAAAAAAAAAAAAAAAAAAAAAAAAAAAAA
        AAAAAAAAAAAAAAAAAAAAAAAAAAAAAAAAAAAAAAAAAAAAAAAAAAAAAAAAAAAAAAAAAAAAAAAAAAAAAAAAAAAAAAAAAAAAAAAAAAAAAAAAAAAAAAAAAAAAAAAAAAAAAAAA
        AAAAAAAAAAAAAAAAAAAAAAAAAAAAAAAAAAAAAAAAAAAAAAAAAAAAAAAAAAAAAAAAAAAAAAAAAAAAAAAAAAAAAAAAAAAAAAAAAAAAAAAAAAAAAAAAAAAAAAAAAAAAAAAA
        AAAAAAAAAAAAAAAAAAAAAAAAAAAAAAAAAAAAAAAAAAAAAAAAAAAAAAAAAAAAAAAAAAAAAAAAAAAAAAAAAAAAAAAAAAAAAAAAAAAAAAAAAAAAAAAAAAAAAENoaXBTaWRl
        AENoaXBTaWRlABAAAAA=
      >
      FLOATPOS 36 32 641 529
      FXID {20356A84-5CFD-6E4A-AA26-2A8A49CE7A76}
      WAK 0
    >
  >
  <EXTENSIONS
    <SWSAUTOCOLOR
      {00000000-0000-0000-0000-000000000000} 0 ""
    >
    <XENAKIOSCOMMANDS
      REFTRACK 0 7 1 "0020000000000"
    >
    <BR_CURSOR_POS 04
      0.00000000000000
    >
  >
>
