<REAPER_PROJECT 0.1 "5.71pre7/OSX64" 1515077410
  RIPPLE 0
  GROUPOVERRIDE 0 0 0
  AUTOXFADE 0
  ENVATTACH 1
  POOLEDENVATTACH 0
  MIXERUIFLAGS 11 52
  PEAKGAIN 1
  FEEDBACK 0
  PANLAW 1
  PROJOFFS 0 0
  MAXPROJLEN 0 600
  GRID 174206 8 1 8 1 0 0 0
  TIMEMODE 6 0 -1 24 2
  PANMODE 3
  CURSOR 0
  ZOOM 10.05347725700505 0 0
  VZOOMEX 0
  USE_REC_CFG 0
  RECMODE 1
  SMPTESYNC 0 23.976024 100 40 1000 300 0 0 1 0 0
  MIDIEDITOR -116919545 0 0
  LOOP 1
  LOOPGRAN 0 4
  RECORD_PATH "" ""
  <RECORD_CFG
    ZXZhdxAA
  >
  <APPLYFX_CFG
  >
  RENDER_FILE "/Users/samenglander/_dev/colorflags/anthems/croatia_1.mp3"
  RENDER_FMT 0 2 44100
  RENDER_1X 0
  RENDER_RANGE 2 0 0 18 1000
  RENDER_RESAMPLE 3 0 1
  RENDER_ADDTOPROJ 0
  RENDER_STEMS 0
  RENDER_DITHER 0
  TIMELOCKMODE 1
  TEMPOENVLOCKMODE 1
  ITEMMIX 1
  DEFPITCHMODE 589824
  TAKELANE 3
  SAMPLERATE 44100 0 0
  <RENDER_CFG
    bDNwbSAAAAABAAAABQAAAAAAAAAAAAAAQAEAAAAAAAA=
  >
  LOCK 1
  <METRONOME 6 2
    VOL 0.25 0.125
    FREQ 800 1600 1
    BEATLEN 4
    SAMPLES "" ""
    PATTERN 2863311530 2863311529
  >
  GLOBAL_AUTO -1
  TEMPO 120 4 4
  PLAYRATE 1 0 0.25 4
  SELECTION 0 32
  SELECTION2 0 32
  MASTERAUTOMODE 0
  MASTERTRACKHEIGHT 0
  MASTERPEAKCOL 16576
  MASTERMUTESOLO 0
  MASTERTRACKVIEW 0 0.6667 0.5 0.5 0 0 0
  MASTERHWOUT 0 0 1 0 0 0 0 -1
  MASTER_NCH 2 2
  MASTER_VOLUME 1 0 -1 -1 1
  MASTER_FX 1
  MASTER_SEL 0
  <MASTERPLAYSPEEDENV
    ACT 0 -1
    VIS 0 1 1
    LANEHEIGHT 0 0
    ARM 0
    DEFSHAPE 0 -1 -1
  >
  <TEMPOENVEX
    ACT 0 -1
    VIS 1 0 1
    LANEHEIGHT 0 0
    ARM 0
    DEFSHAPE 1 -1 -1
  >
  <PROJBAY
  >
  <TRACK {EF5D3F13-F511-B849-BC2B-074C11880156}
    NAME Midi
    PEAKCOL 16576
    BEAT -1
    AUTOMODE 0
    VOLPAN 1 0 -1 -1 1
    MUTESOLO 0 0 0
    IPHASE 0
    ISBUS 0 0
    BUSCOMP 0 0
    SHOWINMIX 1 0.6667 0.5 1 0.5 0 0 0
    FREEMODE 0
    SEL 0
    REC 0 0 0 0 0 0 0
    VU 2
    TRACKHEIGHT 0 0
    INQ 0 0 0 0.5 100 0 0 100
    NCHAN 2
    FX 1
    TRACKID {EF5D3F13-F511-B849-BC2B-074C11880156}
    PERF 0
    MIDIOUT -1
    MAINSEND 1 0
    <ITEM
      POSITION 0
      SNAPOFFS 0
      LENGTH 32
      LOOP 1
      ALLTAKES 0
      FADEIN 1 0 0 1 0 0
      FADEOUT 1 0 0 1 0 0
      MUTE 0
      SEL 0
      YPOS 0.242424 0.05
      IGUID {9F466646-4F21-6745-8D7F-283A67A2DB7F}
      IID 3
      NAME "RH Keys              - National_Anthems_-_Croatia.mid"
      VOLPAN 1 0 1 -1
      SOFFS 0 0
      PLAYRATE 1 1 0 -1 0 0.0025
      CHANMODE 0
      TAKECOLOR 26173599 B
      GUID {8E3861DA-702F-F74E-ACF8-08CBB73486A6}
      <SOURCE MIDI
        HASDATA 1 192 QN
        POOLEDEVTS {DE06EE5C-91D3-A147-8074-E51112A6EACA}
        <X 0 0 0 0 3 "RH Keys             "
          /wNSSCBLZXlzICAgICAgICAgICAgIA==
        >
        e 0 90 41 63
        e 0 90 46 63
        e 0 90 4a 63
        e 178 80 41 40
        e 0 80 46 40
        e 0 80 4a 40
        e 14 90 41 63
        e 0 90 46 63
        e 0 90 4a 63
        e 178 80 41 40
        e 0 80 46 40
        e 0 80 4a 40
        e 14 90 41 63
        e 0 90 46 63
        e 0 90 4a 63
        e 178 80 41 40
        e 0 80 46 40
        e 0 80 4a 40
        e 110 90 3f 63
        e 0 90 41 63
        e 0 90 48 63
        e 82 80 3f 40
        e 0 80 41 40
        e 0 80 48 40
        e 14 90 3f 63
        e 0 90 41 63
        e 0 90 48 63
        e 82 80 3f 40
        e 0 80 41 40
        e 0 80 48 40
        e 14 90 3e 63
        e 0 90 41 63
        e 0 90 46 63
        e 82 80 3e 40
        e 0 80 41 40
        e 0 80 46 40
        e 14 90 3e 63
        e 0 90 41 63
        e 0 90 46 63
        e 178 80 3e 40
        e 0 80 41 40
        e 0 80 46 40
        e 14 90 3a 63
        e 0 90 3e 63
        e 0 90 41 63
        e 370 80 3a 40
        e 0 80 3e 40
        e 0 80 41 40
        e 14 90 3c 63
        e 0 90 3f 63
        e 82 80 3c 40
        e 0 80 3f 40
        e 14 90 3b 63
        e 0 90 3e 63
        e 82 80 3b 40
        e 0 80 3e 40
        e 14 90 3c 63
        e 0 90 3f 63
        e 82 80 3c 40
        e 0 80 3f 40
        e 14 90 3e 63
        e 0 90 41 63
        e 82 80 3e 40
        e 0 80 41 40
        e 14 90 3a 63
        e 0 90 3f 63
        e 0 90 43 63
        e 370 80 3a 40
        e 0 80 3f 40
        e 0 80 43 40
        e 14 90 3e 63
        e 0 90 41 63
        e 82 80 3e 40
        e 0 80 41 40
        e 14 90 3c 63
        e 0 90 3f 63
        e 82 80 3c 40
        e 0 80 3f 40
        e 14 90 3a 63
        e 0 90 3e 63
        e 82 80 3a 40
        e 0 80 3e 40
        e 14 90 3c 63
        e 0 90 3f 63
        e 82 80 3c 40
        e 0 80 3f 40
        e 14 90 3a 63
        e 0 90 3e 63
        e 0 90 41 63
        e 370 80 3a 40
        e 0 80 3e 40
        e 0 80 41 40
        e 14 90 41 63
        e 0 90 46 63
        e 0 90 4a 63
        e 178 80 41 40
        e 0 80 46 40
        e 0 80 4a 40
        e 14 90 41 63
        e 0 90 46 63
        e 0 90 4a 63
        e 178 80 41 40
        e 0 80 46 40
        e 0 80 4a 40
        e 14 90 41 63
        e 0 90 46 63
        e 0 90 4a 63
        e 274 80 41 40
        e 0 80 46 40
        e 0 80 4a 40
        e 14 90 3f 63
        e 0 90 41 63
        e 0 90 48 63
        e 82 80 3f 40
        e 0 80 41 40
        e 0 80 48 40
        e 14 90 3f 63
        e 0 90 41 63
        e 0 90 48 63
        e 82 80 3f 40
        e 0 80 41 40
        e 0 80 48 40
        e 14 90 3e 63
        e 0 90 41 63
        e 0 90 46 63
        e 82 80 3e 40
        e 0 80 41 40
        e 0 80 46 40
        e 14 90 3e 63
        e 0 90 41 63
        e 0 90 46 63
        e 178 80 3e 40
        e 0 80 41 40
        e 0 80 46 40
        e 14 90 3a 63
        e 0 90 3e 63
        e 0 90 41 63
        e 370 80 3a 40
        e 0 80 3e 40
        e 0 80 41 40
        e 14 90 3c 63
        e 0 90 3f 63
        e 82 80 3c 40
        e 0 80 3f 40
        e 14 90 3b 63
        e 0 90 3e 63
        e 82 80 3b 40
        e 0 80 3e 40
        e 14 90 3c 63
        e 0 90 3f 63
        e 82 80 3c 40
        e 0 80 3f 40
        e 14 90 3e 63
        e 0 90 41 63
        e 82 80 3e 40
        e 0 80 41 40
        e 14 90 3a 63
        e 0 90 3f 63
        e 0 90 43 63
        e 370 80 3a 40
        e 0 80 3f 40
        e 0 80 43 40
        e 14 90 3c 63
        e 0 90 3f 63
        e 0 90 45 63
        e 82 80 3c 40
        e 0 80 3f 40
        e 0 80 45 40
        e 14 90 3c 63
        e 0 90 3f 63
        e 0 90 45 63
        e 82 80 3c 40
        e 0 80 3f 40
        e 0 80 45 40
        e 14 90 3f 63
        e 0 90 41 63
        e 0 90 48 63
        e 178 80 3f 40
        e 0 80 41 40
        e 0 80 48 40
        e 14 90 3e 63
        e 0 90 41 63
        e 0 90 46 63
        e 370 80 3e 40
        e 0 80 41 40
        e 0 80 46 40
        e 14 90 3c 63
        e 0 90 41 63
        e 0 90 45 63
        e 178 80 3c 40
        e 0 80 41 40
        e 0 80 45 40
        e 14 90 3c 63
        e 0 90 41 63
        e 0 90 45 63
        e 178 80 3c 40
        e 0 80 41 40
        e 0 80 45 40
        e 14 90 3c 63
        e 0 90 41 63
        e 0 90 45 63
        e 274 80 3c 40
        e 0 80 41 40
        e 0 80 45 40
        e 14 90 3a 63
        e 0 90 3c 63
        e 0 90 43 63
        e 82 80 3a 40
        e 0 80 3c 40
        e 0 80 43 40
        e 14 90 3c 63
        e 0 90 41 63
        e 0 90 45 63
        e 178 80 3c 40
        e 0 80 41 40
        e 0 80 45 40
        e 14 90 3c 63
        e 0 90 3f 63
        e 0 90 41 63
        e 0 90 45 63
        e 82 80 3c 40
        e 0 80 3f 40
        e 0 80 41 40
        e 0 80 45 40
        e 14 90 3e 63
        e 0 90 43 63
        e 0 90 46 63
        e 82 80 3e 40
        e 0 80 43 40
        e 0 80 46 40
        e 14 90 3c 63
        e 0 90 41 63
        e 0 90 45 63
        e 0 90 48 63
        e 274 80 3c 40
        e 0 80 41 40
        e 0 80 45 40
        e 0 80 48 40
        e 14 90 3c 63
        e 0 90 41 63
        e 0 90 45 63
        e 82 80 3c 40
        e 0 80 41 40
        e 0 80 45 40
        e 14 90 41 63
        e 0 90 45 63
        e 0 90 48 63
        e 82 80 41 40
        e 0 80 45 40
        e 0 80 48 40
        e 14 90 41 63
        e 0 90 45 63
        e 0 90 48 63
        e 82 80 41 40
        e 0 80 45 40
        e 0 80 48 40
        e 14 90 41 63
        e 0 90 45 63
        e 0 90 48 63
        e 82 80 41 40
        e 0 80 45 40
        e 0 80 48 40
        e 14 90 41 63
        e 0 90 45 63
        e 0 90 48 63
        e 82 80 41 40
        e 0 80 45 40
        e 0 80 48 40
        e 14 90 42 63
        e 0 90 45 63
        e 0 90 48 63
        e 178 80 42 40
        e 0 80 45 40
        e 0 80 48 40
        e 14 90 3e 63
        e 0 90 43 63
        e 0 90 46 63
        e 178 80 3e 40
        e 0 80 43 40
        e 0 80 46 40
        e 14 90 3c 63
        e 0 90 41 63
        e 0 90 45 63
        e 178 80 3c 40
        e 0 80 41 40
        e 0 80 45 40
        e 14 90 3a 63
        e 0 90 40 63
        e 0 90 43 63
        e 178 80 3a 40
        e 0 80 40 40
        e 0 80 43 40
        e 14 90 39 63
        e 0 90 3c 63
        e 0 90 41 63
        e 370 80 39 40
        e 0 80 3c 40
        e 0 80 41 40
        e 14 90 41 63
        e 0 90 46 63
        e 0 90 4a 63
        e 178 80 41 40
        e 0 80 46 40
        e 0 80 4a 40
        e 14 90 41 63
        e 0 90 46 63
        e 0 90 4a 63
        e 178 80 41 40
        e 0 80 46 40
        e 0 80 4a 40
        e 14 90 41 63
        e 0 90 46 63
        e 0 90 4a 63
        e 274 80 41 40
        e 0 80 46 40
        e 0 80 4a 40
        e 14 90 3f 63
        e 0 90 41 63
        e 0 90 48 63
        e 82 80 3f 40
        e 0 80 41 40
        e 0 80 48 40
        e 14 90 3f 63
        e 0 90 41 63
        e 0 90 48 63
        e 82 80 3f 40
        e 0 80 41 40
        e 0 80 48 40
        e 14 90 3e 63
        e 0 90 41 63
        e 0 90 46 63
        e 82 80 3e 40
        e 0 80 41 40
        e 0 80 46 40
        e 14 90 3e 63
        e 0 90 41 63
        e 0 90 46 63
        e 178 80 3e 40
        e 0 80 41 40
        e 0 80 46 40
        e 14 90 3a 63
        e 0 90 3e 63
        e 0 90 41 63
        e 370 80 3a 40
        e 0 80 3e 40
        e 0 80 41 40
        e 14 90 3c 63
        e 0 90 3f 63
        e 82 80 3c 40
        e 0 80 3f 40
        e 14 90 3b 63
        e 0 90 3e 63
        e 82 80 3b 40
        e 0 80 3e 40
        e 14 90 3c 63
        e 0 90 3f 63
        e 82 80 3c 40
        e 0 80 3f 40
        e 14 90 3e 63
        e 0 90 41 63
        e 82 80 3e 40
        e 0 80 41 40
        e 14 90 3a 63
        e 0 90 3f 63
        e 0 90 43 63
        e 370 80 3a 40
        e 0 80 3f 40
        e 0 80 43 40
        e 14 90 3c 63
        e 0 90 41 63
        e 0 90 45 63
        e 82 80 3c 40
        e 0 80 41 40
        e 0 80 45 40
        e 14 90 3c 63
        e 0 90 41 63
        e 0 90 45 63
        e 82 80 3c 40
        e 0 80 41 40
        e 0 80 45 40
        e 14 90 3f 63
        e 0 90 41 63
        e 0 90 48 63
        e 178 80 3f 40
        e 0 80 41 40
        e 0 80 48 40
        e 14 90 3e 63
        e 0 90 41 63
        e 0 90 46 63
        e 370 80 3e 40
        e 0 80 41 40
        e 0 80 46 40
        E 14 b0 7b 00
        GUID {0B58148B-53FE-4947-90DE-3A705AAFDE5A}
        IGNTEMPO 0 120 4 4
        SRCCOLOR 846
        VELLANE -1 86 6
        CFGEDITVIEW -585.6 25.871833 54 13 0 0 0 0 0 0.5
        KEYSNAP 0
        TRACKSEL 226
        EVTFILTER 0 -1 -1 -1 -1 0 1 0 0 -1 -1 -1 -1 0 -1 0 -1 -1
        CFGEDIT 1 0 0 0 0 0 1 0 1 1 1 0.25 16 63 1280 778 0 0 2 3 0 0 0 0 0 0.5 0 0 1 64
      >
      TAKE
      NAME "RH Keys              - National_Anthems_-_Croatia.mid"
      TAKEVOLPAN 0 1 -1
      SOFFS 0 0
      PLAYRATE 1 1 0 -1 0 0.0025
      CHANMODE 0
      GUID {7390608D-E4C7-824E-A38A-9519B5FFADF1}
      <SOURCE MIDI
        HASDATA 1 192 QN
        POOLEDEVTS {CF05CB68-8886-054F-8CAC-9ADA8A496F2B}
        <X 0 0 0 0 3 "RH Keys             "
          /wNSSCBLZXlzICAgICAgICAgICAgIA==
        >
        e 0 90 41 63
        e 0 90 46 63
        e 0 90 4a 63
        e 178 80 41 40
        e 0 80 46 40
        e 0 80 4a 40
        e 14 90 41 63
        e 0 90 46 63
        e 0 90 4a 63
        e 178 80 41 40
        e 0 80 46 40
        e 0 80 4a 40
        e 14 90 41 63
        e 0 90 46 63
        e 0 90 4a 63
        e 178 80 41 40
        e 0 80 46 40
        e 0 80 4a 40
        e 110 90 3f 63
        e 0 90 41 63
        e 0 90 48 63
        e 82 80 3f 40
        e 0 80 41 40
        e 0 80 48 40
        e 14 90 3f 63
        e 0 90 41 63
        e 0 90 48 63
        e 82 80 3f 40
        e 0 80 41 40
        e 0 80 48 40
        e 14 90 3e 63
        e 0 90 41 63
        e 0 90 46 63
        e 82 80 3e 40
        e 0 80 41 40
        e 0 80 46 40
        e 14 90 3e 63
        e 0 90 41 63
        e 0 90 46 63
        e 178 80 3e 40
        e 0 80 41 40
        e 0 80 46 40
        e 14 90 3a 63
        e 0 90 3e 63
        e 0 90 41 63
        e 370 80 3a 40
        e 0 80 3e 40
        e 0 80 41 40
        e 14 90 3c 63
        e 0 90 3f 63
        e 82 80 3c 40
        e 0 80 3f 40
        e 14 90 3b 63
        e 0 90 3e 63
        e 82 80 3b 40
        e 0 80 3e 40
        e 14 90 3c 63
        e 0 90 3f 63
        e 82 80 3c 40
        e 0 80 3f 40
        e 14 90 3e 63
        e 0 90 41 63
        e 82 80 3e 40
        e 0 80 41 40
        e 14 90 3a 63
        e 0 90 3f 63
        e 0 90 43 63
        e 370 80 3a 40
        e 0 80 3f 40
        e 0 80 43 40
        e 14 90 3e 63
        e 0 90 41 63
        e 82 80 3e 40
        e 0 80 41 40
        e 14 90 3c 63
        e 0 90 3f 63
        e 82 80 3c 40
        e 0 80 3f 40
        e 14 90 3a 63
        e 0 90 3e 63
        e 82 80 3a 40
        e 0 80 3e 40
        e 14 90 3c 63
        e 0 90 3f 63
        e 82 80 3c 40
        e 0 80 3f 40
        e 14 90 3a 63
        e 0 90 3e 63
        e 0 90 41 63
        e 370 80 3a 40
        e 0 80 3e 40
        e 0 80 41 40
        e 14 90 41 63
        e 0 90 46 63
        e 0 90 4a 63
        e 178 80 41 40
        e 0 80 46 40
        e 0 80 4a 40
        e 14 90 41 63
        e 0 90 46 63
        e 0 90 4a 63
        e 178 80 41 40
        e 0 80 46 40
        e 0 80 4a 40
        e 14 90 41 63
        e 0 90 46 63
        e 0 90 4a 63
        e 274 80 41 40
        e 0 80 46 40
        e 0 80 4a 40
        e 14 90 3f 63
        e 0 90 41 63
        e 0 90 48 63
        e 82 80 3f 40
        e 0 80 41 40
        e 0 80 48 40
        e 14 90 3f 63
        e 0 90 41 63
        e 0 90 48 63
        e 82 80 3f 40
        e 0 80 41 40
        e 0 80 48 40
        e 14 90 3e 63
        e 0 90 41 63
        e 0 90 46 63
        e 82 80 3e 40
        e 0 80 41 40
        e 0 80 46 40
        e 14 90 3e 63
        e 0 90 41 63
        e 0 90 46 63
        e 178 80 3e 40
        e 0 80 41 40
        e 0 80 46 40
        e 14 90 3a 63
        e 0 90 3e 63
        e 0 90 41 63
        e 370 80 3a 40
        e 0 80 3e 40
        e 0 80 41 40
        e 14 90 3c 63
        e 0 90 3f 63
        e 82 80 3c 40
        e 0 80 3f 40
        e 14 90 3b 63
        e 0 90 3e 63
        e 82 80 3b 40
        e 0 80 3e 40
        e 14 90 3c 63
        e 0 90 3f 63
        e 82 80 3c 40
        e 0 80 3f 40
        e 14 90 3e 63
        e 0 90 41 63
        e 82 80 3e 40
        e 0 80 41 40
        e 14 90 3a 63
        e 0 90 3f 63
        e 0 90 43 63
        e 370 80 3a 40
        e 0 80 3f 40
        e 0 80 43 40
        e 14 90 3c 63
        e 0 90 3f 63
        e 0 90 45 63
        e 82 80 3c 40
        e 0 80 3f 40
        e 0 80 45 40
        e 14 90 3c 63
        e 0 90 3f 63
        e 0 90 45 63
        e 82 80 3c 40
        e 0 80 3f 40
        e 0 80 45 40
        e 14 90 3f 63
        e 0 90 41 63
        e 0 90 48 63
        e 178 80 3f 40
        e 0 80 41 40
        e 0 80 48 40
        e 14 90 3e 63
        e 0 90 41 63
        e 0 90 46 63
        e 370 80 3e 40
        e 0 80 41 40
        e 0 80 46 40
        e 14 90 3c 63
        e 0 90 41 63
        e 0 90 45 63
        e 178 80 3c 40
        e 0 80 41 40
        e 0 80 45 40
        e 14 90 3c 63
        e 0 90 41 63
        e 0 90 45 63
        e 178 80 3c 40
        e 0 80 41 40
        e 0 80 45 40
        e 14 90 3c 63
        e 0 90 41 63
        e 0 90 45 63
        e 274 80 3c 40
        e 0 80 41 40
        e 0 80 45 40
        e 14 90 3a 63
        e 0 90 3c 63
        e 0 90 43 63
        e 82 80 3a 40
        e 0 80 3c 40
        e 0 80 43 40
        e 14 90 3c 63
        e 0 90 41 63
        e 0 90 45 63
        e 178 80 3c 40
        e 0 80 41 40
        e 0 80 45 40
        e 14 90 3c 63
        e 0 90 3f 63
        e 0 90 41 63
        e 0 90 45 63
        e 82 80 3c 40
        e 0 80 3f 40
        e 0 80 41 40
        e 0 80 45 40
        e 14 90 3e 63
        e 0 90 43 63
        e 0 90 46 63
        e 82 80 3e 40
        e 0 80 43 40
        e 0 80 46 40
        e 14 90 3c 63
        e 0 90 41 63
        e 0 90 45 63
        e 0 90 48 63
        e 274 80 3c 40
        e 0 80 41 40
        e 0 80 45 40
        e 0 80 48 40
        e 14 90 3c 63
        e 0 90 41 63
        e 0 90 45 63
        e 82 80 3c 40
        e 0 80 41 40
        e 0 80 45 40
        e 14 90 41 63
        e 0 90 45 63
        e 0 90 48 63
        e 82 80 41 40
        e 0 80 45 40
        e 0 80 48 40
        e 14 90 41 63
        e 0 90 45 63
        e 0 90 48 63
        e 82 80 41 40
        e 0 80 45 40
        e 0 80 48 40
        e 14 90 41 63
        e 0 90 45 63
        e 0 90 48 63
        e 82 80 41 40
        e 0 80 45 40
        e 0 80 48 40
        e 14 90 41 63
        e 0 90 45 63
        e 0 90 48 63
        e 82 80 41 40
        e 0 80 45 40
        e 0 80 48 40
        e 14 90 42 63
        e 0 90 45 63
        e 0 90 48 63
        e 178 80 42 40
        e 0 80 45 40
        e 0 80 48 40
        e 14 90 3e 63
        e 0 90 43 63
        e 0 90 46 63
        e 178 80 3e 40
        e 0 80 43 40
        e 0 80 46 40
        e 14 90 3c 63
        e 0 90 41 63
        e 0 90 45 63
        e 178 80 3c 40
        e 0 80 41 40
        e 0 80 45 40
        e 14 90 3a 63
        e 0 90 40 63
        e 0 90 43 63
        e 178 80 3a 40
        e 0 80 40 40
        e 0 80 43 40
        e 14 90 39 63
        e 0 90 3c 63
        e 0 90 41 63
        e 370 80 39 40
        e 0 80 3c 40
        e 0 80 41 40
        e 14 90 41 63
        e 0 90 46 63
        e 0 90 4a 63
        e 178 80 41 40
        e 0 80 46 40
        e 0 80 4a 40
        e 14 90 41 63
        e 0 90 46 63
        e 0 90 4a 63
        e 178 80 41 40
        e 0 80 46 40
        e 0 80 4a 40
        e 14 90 41 63
        e 0 90 46 63
        e 0 90 4a 63
        e 274 80 41 40
        e 0 80 46 40
        e 0 80 4a 40
        e 14 90 3f 63
        e 0 90 41 63
        e 0 90 48 63
        e 82 80 3f 40
        e 0 80 41 40
        e 0 80 48 40
        e 14 90 3f 63
        e 0 90 41 63
        e 0 90 48 63
        e 82 80 3f 40
        e 0 80 41 40
        e 0 80 48 40
        e 14 90 3e 63
        e 0 90 41 63
        e 0 90 46 63
        e 82 80 3e 40
        e 0 80 41 40
        e 0 80 46 40
        e 14 90 3e 63
        e 0 90 41 63
        e 0 90 46 63
        e 178 80 3e 40
        e 0 80 41 40
        e 0 80 46 40
        e 14 90 3a 63
        e 0 90 3e 63
        e 0 90 41 63
        e 370 80 3a 40
        e 0 80 3e 40
        e 0 80 41 40
        e 14 90 3c 63
        e 0 90 3f 63
        e 82 80 3c 40
        e 0 80 3f 40
        e 14 90 3b 63
        e 0 90 3e 63
        e 82 80 3b 40
        e 0 80 3e 40
        e 14 90 3c 63
        e 0 90 3f 63
        e 82 80 3c 40
        e 0 80 3f 40
        e 14 90 3e 63
        e 0 90 41 63
        e 82 80 3e 40
        e 0 80 41 40
        e 14 90 3a 63
        e 0 90 3f 63
        e 0 90 43 63
        e 370 80 3a 40
        e 0 80 3f 40
        e 0 80 43 40
        e 14 90 3c 63
        e 0 90 41 63
        e 0 90 45 63
        e 82 80 3c 40
        e 0 80 41 40
        e 0 80 45 40
        e 14 90 3c 63
        e 0 90 41 63
        e 0 90 45 63
        e 82 80 3c 40
        e 0 80 41 40
        e 0 80 45 40
        e 14 90 3f 63
        e 0 90 41 63
        e 0 90 48 63
        e 178 80 3f 40
        e 0 80 41 40
        e 0 80 48 40
        e 14 90 3e 63
        e 0 90 41 63
        e 0 90 46 63
        e 370 80 3e 40
        e 0 80 41 40
        e 0 80 46 40
        E 14 b0 7b 00
        GUID {4BA5B440-8D1E-5046-80C3-353D8BCE677B}
        IGNTEMPO 0 120 4 4
        SRCCOLOR 888
        VELLANE -1 86 6
        CFGEDITVIEW 0 0 54 13 0 0 0 0 0 0.5
        KEYSNAP 0
        TRACKSEL 226
        EVTFILTER 0 -1 -1 -1 -1 0 1 0 0 -1 -1 -1 -1 0 -1 0 -1 -1
        CFGEDIT 1 0 0 0 0 0 1 0 1 1 1 0.25 16 63 1280 778 0 0 2 3 0 0 0 0 0 0.5 0 0 1 64
      >
    >
    <ITEM
      POSITION 0
      SNAPOFFS 0
      LENGTH 32
      LOOP 1
      ALLTAKES 0
      FADEIN 1 0 0 1 0 0
      FADEOUT 1 0 0 1 0 0
      MUTE 0
      SEL 0
      YPOS 0 0.05
      IGUID {8659F414-4BC2-1F43-BBF5-09E1B1465E46}
      IID 1
      NAME "Melody               - National_Anthems_-_Croatia.mid"
      VOLPAN 1 0 1 -1
      SOFFS 0 0
      PLAYRATE 1 1 0 -1 0 0.0025
      CHANMODE 0
      TAKECOLOR 26173599 B
      GUID {7E4CC5FE-5B32-DB42-831C-9686191CDEA0}
      <SOURCE MIDI
        HASDATA 1 192 QN
        POOLEDEVTS {4EEA1932-138C-B94D-A5D7-E3B315925124}
        <X 0 0 0 0 3 "Melody              "
          /wNNZWxvZHkgICAgICAgICAgICAgIA==
        >
        <X 0 0 0 0 1 "THE SOFTWARE TOOLWORKS"
          /wFUSEUgU09GVFdBUkUgVE9PTFdPUktT
        >
        <X 0 0 0 0 1 "WORLD ATLAS"
          /wFXT1JMRCBBVExBUw==
        >
        <X 0 0 0 0 1 "MultiMedia Windows Version"
          /wFNdWx0aU1lZGlhIFdpbmRvd3MgVmVyc2lvbg==
        >
        <X 0 0 0 0 1 "Country: Croatia"
          /wFDb3VudHJ5OiBDcm9hdGlh
        >
        <X 0 0 0 0 1 "Anthem Name:"
          /wFBbnRoZW0gTmFtZTo=
        >
        <X 0 0 0 0 1 "(p) (c) The Software Toolworks 1992"
          /wEocCkgKGMpIFRoZSBTb2Z0d2FyZSBUb29sd29ya3MgMTk5Mg==
        >
        <X 0 0 0 0 1 notes:
          /wFub3Rlczo=
        >
        <X 0 0 0 0 1 "date: 7-11-92"
          /wFkYXRlOiA3LTExLTky
        >
        <X 0 0 0 0 1 "edit date:"
          /wFlZGl0IGRhdGU6
        >
        <X 0 0 0 0 1 "This file provided by:"
          /wFUaGlzIGZpbGUgcHJvdmlkZWQgYnk6
        >
        <X 0 0 0 0 1 "Wallace Music & Sound, Inc."
          /wFXYWxsYWNlIE11c2ljICYgU291bmQsIEluYy4=
        >
        <X 0 0 0 0 1 "(602) 979-6210"
          /wEoNjAyKSA5NzktNjIxMA==
        >
        e 0 90 4a 73
        e 175 80 4a 40
        e 18 90 4a 73
        e 177 80 4a 40
        e 21 90 4a 74
        e 268 80 4a 40
        e 6 90 48 75
        e 90 80 48 40
        e 18 90 48 75
        e 83 80 48 40
        e 4 90 46 76
        e 84 80 46 40
        e 15 90 46 76
        e 175 80 46 40
        e 8 90 41 77
        e 383 80 41 40
        e 5 90 3f 78
        e 90 90 3e 78
        e 5 80 3f 40
        e 94 90 3f 79
        e 8 80 3e 40
        e 93 80 3f 40
        e 3 90 41 79
        e 95 90 43 79
        e 4 80 41 40
        e 41 90 45 7a
        e 3 80 43 40
        e 35 80 45 40
        e 1 90 43 7a
        e 313 80 43 40
        e 3 90 41 7b
        e 77 90 3f 7b
        e 5 80 41 40
        e 89 90 3e 7b
        e 5 80 3f 40
        e 93 90 3f 7c
        e 7 80 3e 40
        e 84 80 3f 40
        e 0 90 41 7c
        e 18 80 41 40
        e 3 90 43 7c
        e 19 90 41 7c
        e 12 80 43 40
        e 6 90 3f 7c
        e 5 80 41 40
        e 13 80 3f 40
        e 8 90 41 7c
        e 311 80 41 40
        e 3 90 4a 73
        e 180 80 4a 40
        e 16 90 4a 73
        e 177 80 4a 40
        e 13 90 4a 74
        e 280 80 4a 40
        e 3 90 48 75
        e 84 80 48 40
        e 17 90 48 75
        e 81 80 48 40
        e 2 90 46 76
        e 88 80 46 40
        e 21 90 46 76
        e 180 80 46 40
        e 1 90 41 77
        e 384 90 3f 78
        e 6 80 41 40
        e 87 90 3e 78
        e 1 80 3f 40
        e 104 90 3f 79
        e 12 80 3e 40
        e 81 80 3f 40
        e 2 90 41 79
        e 101 80 41 40
        e 2 90 43 79
        e 384 90 45 7b
        e 7 80 43 40
        e 70 80 45 40
        e 20 90 45 7b
        e 87 80 45 40
        e 4 90 48 7b
        e 192 90 46 7c
        e 7 80 48 40
        e 336 80 46 40
        e 40 90 45 7f
        e 174 80 45 40
        e 21 90 45 7f
        e 179 80 45 40
        e 18 90 45 7f
        e 271 80 45 40
        e 6 90 43 7f
        e 94 90 45 7f
        e 6 80 43 40
        e 171 80 45 40
        e 17 90 45 7f
        e 88 80 45 40
        e 4 90 46 7f
        e 92 90 48 7f
        e 7 80 46 40
        e 279 80 48 40
        e 6 90 45 7f
        e 97 80 45 40
        e 2 90 48 7f
        e 68 80 48 40
        e 20 90 48 7f
        e 89 80 48 40
        e 16 90 48 7f
        e 72 80 48 40
        e 24 90 48 7f
        e 78 80 48 40
        e 23 90 48 7f
        e 181 80 48 40
        e 3 90 46 7f
        e 206 90 45 7f
        e 3 80 46 40
        e 173 90 43 7f
        e 3 80 45 40
        e 200 90 41 7f
        e 4 80 43 40
        e 375 80 41 40
        e 13 90 4a 73
        e 158 80 4a 40
        e 14 90 4a 73
        e 185 80 4a 40
        e 18 90 4a 74
        e 272 80 4a 40
        e 11 90 48 75
        e 89 80 48 40
        e 15 90 48 75
        e 83 80 48 40
        e 3 90 46 76
        e 84 80 46 40
        e 18 90 46 76
        e 177 80 46 40
        e 2 90 41 77
        e 399 90 3f 78
        e 8 80 41 40
        e 77 90 3e 78
        e 4 80 3f 40
        e 94 90 3f 79
        e 12 80 3e 40
        e 87 80 3f 40
        e 5 90 41 79
        e 100 90 43 79
        e 3 80 41 40
        e 352 80 43 40
        e 14 90 45 7b
        e 86 80 45 40
        e 24 90 45 7b
        e 86 80 45 40
        e 8 90 48 7b
        e 182 80 48 40
        e 1 90 46 7c
        e 16 80 46 40
        e 4 90 48 7c
        e 15 90 46 7c
        e 7 80 48 40
        e 18 90 45 7c
        e 1 80 46 40
        e 22 90 46 7c
        e 8 80 45 40
        e 296 80 46 40
        E 1 b0 7b 00
        OUTCH 1
        GUID {B05C63B1-99AA-4B4E-977D-F0394B1351DA}
        IGNTEMPO 0 120 4 4
        SRCCOLOR 844
        VELLANE -1 86 6
        CFGEDITVIEW -614.4 24.659091 52 30 0 0 0 0 0 0.5
        KEYSNAP 0
        TRACKSEL 226
        EVTFILTER 0 -1 -1 -1 -1 0 1 0 0 -1 -1 -1 -1 0 -1 0 -1 -1
        CFGEDIT 1 0 0 0 0 0 1 0 1 1 1 0.25 16 63 1280 778 0 0 2 3 0 0 0 0 0 0.5 0 0 1 64
      >
      TAKE
      NAME "Melody               - National_Anthems_-_Croatia.mid"
      TAKEVOLPAN 0 1 -1
      SOFFS 0 0
      PLAYRATE 1 1 0 -1 0 0.0025
      CHANMODE 0
      GUID {5F8C9913-F903-144D-B131-C8F2AE8870E9}
      <SOURCE MIDI
        HASDATA 1 192 QN
        POOLEDEVTS {61916300-ADBA-AD44-8CAD-88C9D677221C}
        <X 0 0 0 0 3 "Melody              "
          /wNNZWxvZHkgICAgICAgICAgICAgIA==
        >
        <X 0 0 0 0 1 "THE SOFTWARE TOOLWORKS"
          /wFUSEUgU09GVFdBUkUgVE9PTFdPUktT
        >
        <X 0 0 0 0 1 "WORLD ATLAS"
          /wFXT1JMRCBBVExBUw==
        >
        <X 0 0 0 0 1 "MultiMedia Windows Version"
          /wFNdWx0aU1lZGlhIFdpbmRvd3MgVmVyc2lvbg==
        >
        <X 0 0 0 0 1 "Country: Croatia"
          /wFDb3VudHJ5OiBDcm9hdGlh
        >
        <X 0 0 0 0 1 "Anthem Name:"
          /wFBbnRoZW0gTmFtZTo=
        >
        <X 0 0 0 0 1 "(p) (c) The Software Toolworks 1992"
          /wEocCkgKGMpIFRoZSBTb2Z0d2FyZSBUb29sd29ya3MgMTk5Mg==
        >
        <X 0 0 0 0 1 notes:
          /wFub3Rlczo=
        >
        <X 0 0 0 0 1 "date: 7-11-92"
          /wFkYXRlOiA3LTExLTky
        >
        <X 0 0 0 0 1 "edit date:"
          /wFlZGl0IGRhdGU6
        >
        <X 0 0 0 0 1 "This file provided by:"
          /wFUaGlzIGZpbGUgcHJvdmlkZWQgYnk6
        >
        <X 0 0 0 0 1 "Wallace Music & Sound, Inc."
          /wFXYWxsYWNlIE11c2ljICYgU291bmQsIEluYy4=
        >
        <X 0 0 0 0 1 "(602) 979-6210"
          /wEoNjAyKSA5NzktNjIxMA==
        >
        e 0 90 4a 73
        e 175 80 4a 40
        e 18 90 4a 73
        e 177 80 4a 40
        e 21 90 4a 74
        e 268 80 4a 40
        e 6 90 48 75
        e 90 80 48 40
        e 18 90 48 75
        e 83 80 48 40
        e 4 90 46 76
        e 84 80 46 40
        e 15 90 46 76
        e 175 80 46 40
        e 8 90 41 77
        e 383 80 41 40
        e 5 90 3f 78
        e 90 90 3e 78
        e 5 80 3f 40
        e 94 90 3f 79
        e 8 80 3e 40
        e 93 80 3f 40
        e 3 90 41 79
        e 95 90 43 79
        e 4 80 41 40
        e 41 90 45 7a
        e 3 80 43 40
        e 35 80 45 40
        e 1 90 43 7a
        e 313 80 43 40
        e 3 90 41 7b
        e 77 90 3f 7b
        e 5 80 41 40
        e 89 90 3e 7b
        e 5 80 3f 40
        e 93 90 3f 7c
        e 7 80 3e 40
        e 84 80 3f 40
        e 0 90 41 7c
        e 18 80 41 40
        e 3 90 43 7c
        e 19 90 41 7c
        e 12 80 43 40
        e 6 90 3f 7c
        e 5 80 41 40
        e 13 80 3f 40
        e 8 90 41 7c
        e 311 80 41 40
        e 3 90 4a 73
        e 180 80 4a 40
        e 16 90 4a 73
        e 177 80 4a 40
        e 13 90 4a 74
        e 280 80 4a 40
        e 3 90 48 75
        e 84 80 48 40
        e 17 90 48 75
        e 81 80 48 40
        e 2 90 46 76
        e 88 80 46 40
        e 21 90 46 76
        e 180 80 46 40
        e 1 90 41 77
        e 384 90 3f 78
        e 6 80 41 40
        e 87 90 3e 78
        e 1 80 3f 40
        e 104 90 3f 79
        e 12 80 3e 40
        e 81 80 3f 40
        e 2 90 41 79
        e 101 80 41 40
        e 2 90 43 79
        e 384 90 45 7b
        e 7 80 43 40
        e 70 80 45 40
        e 20 90 45 7b
        e 87 80 45 40
        e 4 90 48 7b
        e 192 90 46 7c
        e 7 80 48 40
        e 336 80 46 40
        e 40 90 45 7f
        e 174 80 45 40
        e 21 90 45 7f
        e 179 80 45 40
        e 18 90 45 7f
        e 271 80 45 40
        e 6 90 43 7f
        e 94 90 45 7f
        e 6 80 43 40
        e 171 80 45 40
        e 17 90 45 7f
        e 88 80 45 40
        e 4 90 46 7f
        e 92 90 48 7f
        e 7 80 46 40
        e 279 80 48 40
        e 6 90 45 7f
        e 97 80 45 40
        e 2 90 48 7f
        e 68 80 48 40
        e 20 90 48 7f
        e 89 80 48 40
        e 16 90 48 7f
        e 72 80 48 40
        e 24 90 48 7f
        e 78 80 48 40
        e 23 90 48 7f
        e 181 80 48 40
        e 3 90 46 7f
        e 206 90 45 7f
        e 3 80 46 40
        e 173 90 43 7f
        e 3 80 45 40
        e 200 90 41 7f
        e 4 80 43 40
        e 375 80 41 40
        e 13 90 4a 73
        e 158 80 4a 40
        e 14 90 4a 73
        e 185 80 4a 40
        e 18 90 4a 74
        e 272 80 4a 40
        e 11 90 48 75
        e 89 80 48 40
        e 15 90 48 75
        e 83 80 48 40
        e 3 90 46 76
        e 84 80 46 40
        e 18 90 46 76
        e 177 80 46 40
        e 2 90 41 77
        e 399 90 3f 78
        e 8 80 41 40
        e 77 90 3e 78
        e 4 80 3f 40
        e 94 90 3f 79
        e 12 80 3e 40
        e 87 80 3f 40
        e 5 90 41 79
        e 100 90 43 79
        e 3 80 41 40
        e 352 80 43 40
        e 14 90 45 7b
        e 86 80 45 40
        e 24 90 45 7b
        e 86 80 45 40
        e 8 90 48 7b
        e 182 80 48 40
        e 1 90 46 7c
        e 16 80 46 40
        e 4 90 48 7c
        e 15 90 46 7c
        e 7 80 48 40
        e 18 90 45 7c
        e 1 80 46 40
        e 22 90 46 7c
        e 8 80 45 40
        e 296 80 46 40
        E 1 b0 7b 00
        OUTCH 1
        GUID {930CF56E-69D0-7846-AD99-4EDE994564A0}
        IGNTEMPO 0 120 4 4
        SRCCOLOR 889
        VELLANE -1 86 6
        CFGEDITVIEW 0 0 52 30 0 0 0 0 0 0.5
        KEYSNAP 0
        TRACKSEL 226
        EVTFILTER 0 -1 -1 -1 -1 0 1 0 0 -1 -1 -1 -1 0 -1 0 -1 -1
        CFGEDIT 1 0 0 0 0 0 1 0 1 1 1 0.25 16 63 1280 778 0 0 2 3 0 0 0 0 0 0.5 0 0 1 64
      >
    >
    <ITEM
      POSITION 0
      SNAPOFFS 0
      LENGTH 32
      LOOP 1
      ALLTAKES 0
      FADEIN 1 0 0 1 0 0
      FADEOUT 1 0 0 1 0 0
      MUTE 0
      SEL 0
      YPOS 0.484848 0.05
      IGUID {32C80BFD-E509-C744-B0DB-FC11BD10FF15}
      IID 5
      NAME "Bass                 - National_Anthems_-_Croatia.mid"
      VOLPAN 1 0 1 -1
      SOFFS 0 0
      PLAYRATE 1 1 0 -1 0 0.0025
      CHANMODE 0
      TAKECOLOR 26173599 B
      GUID {6F32B829-0051-D14C-B3BF-C7A8B5553E44}
      <SOURCE MIDI
        HASDATA 1 192 QN
        POOLEDEVTS {81120CEF-5A52-224D-9CEA-9FB55BA1F103}
        <X 0 0 0 0 3 "Bass                "
          /wNCYXNzICAgICAgICAgICAgICAgIA==
        >
        e 0 90 22 78
        e 178 80 22 40
        e 14 90 26 78
        e 178 80 26 40
        e 14 90 29 78
        e 274 80 29 40
        e 14 90 29 78
        e 82 80 29 40
        e 14 90 29 78
        e 82 80 29 40
        e 14 90 22 78
        e 82 80 22 40
        e 14 90 22 78
        e 178 80 22 40
        e 14 90 22 78
        e 370 80 22 40
        e 14 90 29 78
        e 178 80 29 40
        e 14 90 29 78
        e 178 80 29 40
        e 14 90 29 78
        e 370 80 29 40
        e 14 90 22 78
        e 178 80 22 40
        e 14 90 22 78
        e 178 80 22 40
        e 14 90 22 78
        e 370 80 22 40
        e 14 90 22 78
        e 178 80 22 40
        e 14 90 26 78
        e 178 80 26 40
        e 14 90 29 78
        e 274 80 29 40
        e 14 90 29 78
        e 82 80 29 40
        e 14 90 29 78
        e 82 80 29 40
        e 14 90 22 78
        e 82 80 22 40
        e 14 90 22 78
        e 178 80 22 40
        e 14 90 22 78
        e 370 80 22 40
        e 14 90 29 78
        e 178 80 29 40
        e 14 90 29 78
        e 178 80 29 40
        e 14 90 29 78
        e 370 80 29 40
        e 14 90 29 78
        e 178 80 29 40
        e 14 90 29 78
        e 178 80 29 40
        e 14 90 22 78
        e 370 80 22 40
        e 14 90 1d 78
        e 178 80 1d 40
        e 14 90 21 78
        e 178 80 21 40
        e 14 90 24 78
        e 274 80 24 40
        e 14 90 24 78
        e 82 80 24 40
        e 14 90 29 78
        e 178 80 29 40
        e 14 90 29 78
        e 178 80 29 40
        e 14 90 29 78
        e 370 80 29 40
        e 14 90 29 78
        e 178 80 29 40
        e 14 90 27 78
        e 178 80 27 40
        e 14 90 26 78
        e 178 80 26 40
        e 14 90 2b 78
        e 178 80 2b 40
        e 14 90 24 78
        e 178 80 24 40
        e 14 90 24 78
        e 178 80 24 40
        e 14 90 29 78
        e 370 80 29 40
        e 14 90 22 78
        e 178 80 22 40
        e 14 90 26 78
        e 178 80 26 40
        e 14 90 29 78
        e 274 80 29 40
        e 14 90 29 78
        e 82 80 29 40
        e 14 90 29 78
        e 82 80 29 40
        e 14 90 22 78
        e 82 80 22 40
        e 14 90 22 78
        e 178 80 22 40
        e 14 90 22 78
        e 370 80 22 40
        e 14 90 29 78
        e 178 80 29 40
        e 14 90 29 78
        e 178 80 29 40
        e 14 90 29 78
        e 370 80 29 40
        e 14 90 29 78
        e 178 80 29 40
        e 14 90 21 78
        e 178 80 21 40
        e 14 90 22 78
        e 370 80 22 40
        E 14 b0 7b 00
        GUID {FD55B8CA-FB13-B54E-A68D-B035BEF6D39E}
        IGNTEMPO 0 120 4 4
        SRCCOLOR 848
        VELLANE -1 86 6
        CFGEDITVIEW -585.6 25.871833 54 13 0 0 0 0 0 0.5
        KEYSNAP 0
        TRACKSEL 226
        EVTFILTER 0 -1 -1 -1 -1 0 1 0 0 -1 -1 -1 -1 0 -1 0 -1 -1
        CFGEDIT 1 0 0 0 0 0 1 0 1 1 1 0.25 16 63 1280 778 0 0 2 3 0 0 0 0 0 0.5 0 0 1 64
      >
      TAKE
      NAME "Bass                 - National_Anthems_-_Croatia.mid"
      TAKEVOLPAN 0 1 -1
      SOFFS 0 0
      PLAYRATE 1 1 0 -1 0 0.0025
      CHANMODE 0
      GUID {6054674B-7A8E-6544-A38B-37206140C0BB}
      <SOURCE MIDI
        HASDATA 1 192 QN
        POOLEDEVTS {26C3983D-265D-7D41-B187-96D869101939}
        <X 0 0 0 0 3 "Bass                "
          /wNCYXNzICAgICAgICAgICAgICAgIA==
        >
        e 0 90 22 78
        e 178 80 22 40
        e 14 90 26 78
        e 178 80 26 40
        e 14 90 29 78
        e 274 80 29 40
        e 14 90 29 78
        e 82 80 29 40
        e 14 90 29 78
        e 82 80 29 40
        e 14 90 22 78
        e 82 80 22 40
        e 14 90 22 78
        e 178 80 22 40
        e 14 90 22 78
        e 370 80 22 40
        e 14 90 29 78
        e 178 80 29 40
        e 14 90 29 78
        e 178 80 29 40
        e 14 90 29 78
        e 370 80 29 40
        e 14 90 22 78
        e 178 80 22 40
        e 14 90 22 78
        e 178 80 22 40
        e 14 90 22 78
        e 370 80 22 40
        e 14 90 22 78
        e 178 80 22 40
        e 14 90 26 78
        e 178 80 26 40
        e 14 90 29 78
        e 274 80 29 40
        e 14 90 29 78
        e 82 80 29 40
        e 14 90 29 78
        e 82 80 29 40
        e 14 90 22 78
        e 82 80 22 40
        e 14 90 22 78
        e 178 80 22 40
        e 14 90 22 78
        e 370 80 22 40
        e 14 90 29 78
        e 178 80 29 40
        e 14 90 29 78
        e 178 80 29 40
        e 14 90 29 78
        e 370 80 29 40
        e 14 90 29 78
        e 178 80 29 40
        e 14 90 29 78
        e 178 80 29 40
        e 14 90 22 78
        e 370 80 22 40
        e 14 90 1d 78
        e 178 80 1d 40
        e 14 90 21 78
        e 178 80 21 40
        e 14 90 24 78
        e 274 80 24 40
        e 14 90 24 78
        e 82 80 24 40
        e 14 90 29 78
        e 178 80 29 40
        e 14 90 29 78
        e 178 80 29 40
        e 14 90 29 78
        e 370 80 29 40
        e 14 90 29 78
        e 178 80 29 40
        e 14 90 27 78
        e 178 80 27 40
        e 14 90 26 78
        e 178 80 26 40
        e 14 90 2b 78
        e 178 80 2b 40
        e 14 90 24 78
        e 178 80 24 40
        e 14 90 24 78
        e 178 80 24 40
        e 14 90 29 78
        e 370 80 29 40
        e 14 90 22 78
        e 178 80 22 40
        e 14 90 26 78
        e 178 80 26 40
        e 14 90 29 78
        e 274 80 29 40
        e 14 90 29 78
        e 82 80 29 40
        e 14 90 29 78
        e 82 80 29 40
        e 14 90 22 78
        e 82 80 22 40
        e 14 90 22 78
        e 178 80 22 40
        e 14 90 22 78
        e 370 80 22 40
        e 14 90 29 78
        e 178 80 29 40
        e 14 90 29 78
        e 178 80 29 40
        e 14 90 29 78
        e 370 80 29 40
        e 14 90 29 78
        e 178 80 29 40
        e 14 90 21 78
        e 178 80 21 40
        e 14 90 22 78
        e 370 80 22 40
        E 14 b0 7b 00
        GUID {DD11CC15-A6FD-BA4C-9E17-1EC489E1EF2A}
        IGNTEMPO 0 120 4 4
        SRCCOLOR 890
        VELLANE -1 86 6
        CFGEDITVIEW 0 0 54 13 0 0 0 0 0 0.5
        KEYSNAP 0
        TRACKSEL 226
        EVTFILTER 0 -1 -1 -1 -1 0 1 0 0 -1 -1 -1 -1 0 -1 0 -1 -1
        CFGEDIT 1 0 0 0 0 0 1 0 1 1 1 0.25 16 63 1280 778 0 0 2 3 0 0 0 0 0 0.5 0 0 1 64
      >
    >
  >
  <TRACK {4A6CD977-ADCC-3A4D-927C-BB2CEF4B0809}
    NAME "vst Gladiator"
    PEAKCOL 27222112
    BEAT -1
    AUTOMODE 0
    VOLPAN 0.46976747615165 0 -1 -1 1
    MUTESOLO 0 0 0
    IPHASE 0
    ISBUS 0 0
    BUSCOMP 2 0
    SHOWINMIX 1 0.6667 0.5 1 0.5 0 0 0
    FREEMODE 0
    SEL 0
    REC 0 0 0 0 0 0 0
    VU 2
    TRACKHEIGHT 0 0
    INQ 0 0 0 0.5 100 0 0 100
    NCHAN 2
    FX 1
    TRACKID {4A6CD977-ADCC-3A4D-927C-BB2CEF4B0809}
    PERF 0
    MIDIOUT -1
    MAINSEND 1 0
    <FXCHAIN
      SHOW 0
      LASTSEL 0
      DOCKED 0
      BYPASS 0 0 0
      <VST "VSTi: Gladiator (Tone2.com)" Gladiator.vst 0 "" 1412581196
        TEcyVO5e7f4AAAAAAgAAAAEAAAAAAAAAAgAAAAAAAABaBAAAAQAAAAAAEAA=
        Q2NuSwAAAGBGeENrAAAAAVQyR0wAAAABAAABB0luaXQAAAAAAAAAAAAAAAAAAAAAAAAAAAAAAAA9zMzNPMzMzTw0OVg9uFH0PXnbIz+AAAA7xJumPb52yT+AAAA7xJum
        AAAAAD6mZmY+PXCkP4AAAD7FHrk/AAAAPwAAAAAAAAA9ffO2PdDlYDy8an8/RR64AAAAAD+AAAA8NDlYPZFocz71wo87RJumPbhR6D69cKQ+PXCkP4AAAD8AAAA/A9cL
        PwAAAAAAAAAAAAAAPwAAAD8AAAA/AAAAPtmZmj8AAAAAAAAAO+VgQj24UesAAAAAPk21xDtEm6Y/S4UeAAAAAAAAAAA+64UgPpR64T1hR7A+z1woPx64Uj49cKY/AAAA
        PwAAAAAAAAAAAAAAPwAAAAAAAAAAAAAAP4AAAD+AAAAAAAAAPxHrhT8AAAA/AAAAPwAAAD8AAAAAAAAAPwAAAD8AAAA/AAAAAAAAAD8AAAA/AAAAPwAAAAAAAAA6gxJv
        P1Cj1wAAAAA/gAAAAAAAADqDEm8/AAAAAAAAAAAAAAAAAAAAPwAAAAAAAAA/gAAAAAAAAD+AAAAAAAAAPwAAAD8AAAA/AAAAPwAAAD8AAAA/AAAAPwAAAD8AAAA/AAAA
        PwAAAD8AAAA/EeuGPKPXCjqDEm88RJumAAAAAAAAAAAAAAAAPLxqfwAAAAAAAAAAAAAAAAAAAAAAAAAAAAAAAAAAAAAAAAAAAAAAAAAAAAAAAAAAAAAAAAAAAAAAAAAA
        AAAAAAAAAAA8E3S8AAAAADw0OVgAAAAAPBN0vAAAAAA8NDlYAAAAADwTdLwAAAAAPDQ5WAAAAAA8E3S8AAAAADw0OVgAAAAAPGVgQj2HKwI8ZWBCOwMSbz2JN0w7AxJv
        PLQ5WDyLQ5Y8k3S8PVT99D0XjVA8zMzNPoAAAD9ywjU/AAAAP1GnuT8wjT4/HLCNAAAAADsDEm86gxJvAAAAAAAAAAAAAAAAPwAAADqDEm87RJumP4AAAAAAAAA/gAAA
        AAAAAD+AAAAAAAAAAAAAAAAAAAAAAAAAP4AAAAAAAAA/AAAAAAAAAD8AAAA/BR64PwAAAD+AAAA/AAAAPwAAAD8AAAA/gAAAP4AAAAAAAAAAAAAAAAAAAD8AAAA/gAAA
        PwAAAAAAAAA+vXCkAAAAAAAAAAA/gAAAP4AAAD8j1wo/gAAAAAAAAAAAAAA/gAAAPwAAAAAAAAAAAAAAAAAAAAAAAAAAAAAAAAAAAAAAAAAAAAAAAAAAAAAAAAAAAAAA
        AAAAAD8AAAA/AAAAPwAAAD8AAAA/AAAAPwAAAAAAAAAAAAAAP4AAAAAAAAAAAAAAAAAAAAAAAAAAAAAAAAAAAAAAAAAAAAAAAAAAAAAAAAAAAAAAAAAAAAAAAAAAAAAA
        AAAAAAAAAAAAAAAAAAAAAAAAAAAAAAAAAAAAAAAAAAAAAAAAAAAAAAAAAAAAAAAAAAAAAAAAqqusrQ==
        AEluaXQAEAAAAA==
      >
      PRESETNAME Init
      FLOATPOS 500 379 987 799
      FXID {532372E3-5B0D-9345-A9C8-98A8EBAF9A7E}
      WAK 0
    >
    <ITEM
      POSITION 0
      SNAPOFFS 0
      LENGTH 32
      LOOP 1
      ALLTAKES 0
      FADEIN 1 0 0 1 0 0
      FADEOUT 1 0 0 1 0 0
      MUTE 0
      SEL 0
      YPOS 0 0.05
      IGUID {052986CB-0A4D-CE4A-A8C0-A00CDE1BAA97}
      IID 1
      NAME "Melody               - National_Anthems_-_Croatia.mid"
      VOLPAN 1 0 1 -1
      SOFFS 0 0
      PLAYRATE 1 1 0 -1 0 0.0025
      CHANMODE 0
      TAKECOLOR 26173599 B
      GUID {CCA29507-1B29-6D4C-A165-316134A53761}
      <SOURCE MIDI
        HASDATA 1 192 QN
        POOLEDEVTS {FFFD681C-CCD6-954C-8BE8-5EF484C69EB2}
        <X 0 0 0 0 3 "Melody              "
          /wNNZWxvZHkgICAgICAgICAgICAgIA==
        >
        <X 0 0 0 0 1 "THE SOFTWARE TOOLWORKS"
          /wFUSEUgU09GVFdBUkUgVE9PTFdPUktT
        >
        <X 0 0 0 0 1 "WORLD ATLAS"
          /wFXT1JMRCBBVExBUw==
        >
        <X 0 0 0 0 1 "MultiMedia Windows Version"
          /wFNdWx0aU1lZGlhIFdpbmRvd3MgVmVyc2lvbg==
        >
        <X 0 0 0 0 1 "Country: Croatia"
          /wFDb3VudHJ5OiBDcm9hdGlh
        >
        <X 0 0 0 0 1 "Anthem Name:"
          /wFBbnRoZW0gTmFtZTo=
        >
        <X 0 0 0 0 1 "(p) (c) The Software Toolworks 1992"
          /wEocCkgKGMpIFRoZSBTb2Z0d2FyZSBUb29sd29ya3MgMTk5Mg==
        >
        <X 0 0 0 0 1 notes:
          /wFub3Rlczo=
        >
        <X 0 0 0 0 1 "date: 7-11-92"
          /wFkYXRlOiA3LTExLTky
        >
        <X 0 0 0 0 1 "edit date:"
          /wFlZGl0IGRhdGU6
        >
        <X 0 0 0 0 1 "This file provided by:"
          /wFUaGlzIGZpbGUgcHJvdmlkZWQgYnk6
        >
        <X 0 0 0 0 1 "Wallace Music & Sound, Inc."
          /wFXYWxsYWNlIE11c2ljICYgU291bmQsIEluYy4=
        >
        <X 0 0 0 0 1 "(602) 979-6210"
          /wEoNjAyKSA5NzktNjIxMA==
        >
        e 0 90 4a 73
        e 175 80 4a 40
        e 18 90 4a 73
        e 177 80 4a 40
        e 21 90 4a 74
        e 268 80 4a 40
        e 6 90 48 75
        e 90 80 48 40
        e 18 90 48 75
        e 83 80 48 40
        e 4 90 46 76
        e 84 80 46 40
        e 15 90 46 76
        e 175 80 46 40
        e 8 90 41 77
        e 383 80 41 40
        e 5 90 3f 78
        e 90 90 3e 78
        e 5 80 3f 40
        e 94 90 3f 79
        e 8 80 3e 40
        e 93 80 3f 40
        e 3 90 41 79
        e 95 90 43 79
        e 4 80 41 40
        e 41 90 45 7a
        e 3 80 43 40
        e 35 80 45 40
        e 1 90 43 7a
        e 313 80 43 40
        e 3 90 41 7b
        e 77 90 3f 7b
        e 5 80 41 40
        e 89 90 3e 7b
        e 5 80 3f 40
        e 93 90 3f 7c
        e 7 80 3e 40
        e 84 80 3f 40
        e 0 90 41 7c
        e 18 80 41 40
        e 3 90 43 7c
        e 19 90 41 7c
        e 12 80 43 40
        e 6 90 3f 7c
        e 5 80 41 40
        e 13 80 3f 40
        e 8 90 41 7c
        e 311 80 41 40
        e 3 90 4a 73
        e 180 80 4a 40
        e 16 90 4a 73
        e 177 80 4a 40
        e 13 90 4a 74
        e 280 80 4a 40
        e 3 90 48 75
        e 84 80 48 40
        e 17 90 48 75
        e 81 80 48 40
        e 2 90 46 76
        e 88 80 46 40
        e 21 90 46 76
        e 180 80 46 40
        e 1 90 41 77
        e 384 90 3f 78
        e 6 80 41 40
        e 87 90 3e 78
        e 1 80 3f 40
        e 104 90 3f 79
        e 12 80 3e 40
        e 81 80 3f 40
        e 2 90 41 79
        e 101 80 41 40
        e 2 90 43 79
        e 384 90 45 7b
        e 7 80 43 40
        e 70 80 45 40
        e 20 90 45 7b
        e 87 80 45 40
        e 4 90 48 7b
        e 192 90 46 7c
        e 7 80 48 40
        e 336 80 46 40
        e 40 90 45 7f
        e 174 80 45 40
        e 21 90 45 7f
        e 179 80 45 40
        e 18 90 45 7f
        e 271 80 45 40
        e 6 90 43 7f
        e 94 90 45 7f
        e 6 80 43 40
        e 171 80 45 40
        e 17 90 45 7f
        e 88 80 45 40
        e 4 90 46 7f
        e 92 90 48 7f
        e 7 80 46 40
        e 279 80 48 40
        e 6 90 45 7f
        e 97 80 45 40
        e 2 90 48 7f
        e 68 80 48 40
        e 20 90 48 7f
        e 89 80 48 40
        e 16 90 48 7f
        e 72 80 48 40
        e 24 90 48 7f
        e 78 80 48 40
        e 23 90 48 7f
        e 181 80 48 40
        e 3 90 46 7f
        e 206 90 45 7f
        e 3 80 46 40
        e 173 90 43 7f
        e 3 80 45 40
        e 200 90 41 7f
        e 4 80 43 40
        e 375 80 41 40
        e 13 90 4a 73
        e 158 80 4a 40
        e 14 90 4a 73
        e 185 80 4a 40
        e 18 90 4a 74
        e 272 80 4a 40
        e 11 90 48 75
        e 89 80 48 40
        e 15 90 48 75
        e 83 80 48 40
        e 3 90 46 76
        e 84 80 46 40
        e 18 90 46 76
        e 177 80 46 40
        e 2 90 41 77
        e 399 90 3f 78
        e 8 80 41 40
        e 77 90 3e 78
        e 4 80 3f 40
        e 94 90 3f 79
        e 12 80 3e 40
        e 87 80 3f 40
        e 5 90 41 79
        e 100 90 43 79
        e 3 80 41 40
        e 352 80 43 40
        e 14 90 45 7b
        e 86 80 45 40
        e 24 90 45 7b
        e 86 80 45 40
        e 8 90 48 7b
        e 182 80 48 40
        e 1 90 46 7c
        e 16 80 46 40
        e 4 90 48 7c
        e 15 90 46 7c
        e 7 80 48 40
        e 18 90 45 7c
        e 1 80 46 40
        e 22 90 46 7c
        e 8 80 45 40
        e 296 80 46 40
        E 1 b0 7b 00
        OUTCH 1
        GUID {B05C63B1-99AA-4B4E-977D-F0394B1351DA}
        IGNTEMPO 0 120 4 4
        SRCCOLOR 844
        VELLANE -1 86 6
        CFGEDITVIEW -614.4 24.659091 52 30 0 0 0 0 0 0.5
        KEYSNAP 0
        TRACKSEL 226
        EVTFILTER 0 -1 -1 -1 -1 0 1 0 0 -1 -1 -1 -1 0 -1 0 -1 -1
        CFGEDIT 1 0 0 0 0 0 1 0 1 1 1 0.25 16 63 1280 778 0 0 2 3 0 0 0 0 0 0.5 0 0 1 64
      >
      TAKE
      NAME "Melody               - National_Anthems_-_Croatia.mid"
      TAKEVOLPAN 0 1 -1
      SOFFS 0 0
      PLAYRATE 1 1 0 -1 0 0.0025
      CHANMODE 0
      GUID {6CA07116-2738-0A4B-BFD0-ADB68D8D0AD8}
      <SOURCE MIDI
        HASDATA 1 192 QN
        POOLEDEVTS {F13BFF3B-9B1E-CB47-814F-C9D2091701C2}
        <X 0 0 0 0 3 "Melody              "
          /wNNZWxvZHkgICAgICAgICAgICAgIA==
        >
        <X 0 0 0 0 1 "THE SOFTWARE TOOLWORKS"
          /wFUSEUgU09GVFdBUkUgVE9PTFdPUktT
        >
        <X 0 0 0 0 1 "WORLD ATLAS"
          /wFXT1JMRCBBVExBUw==
        >
        <X 0 0 0 0 1 "MultiMedia Windows Version"
          /wFNdWx0aU1lZGlhIFdpbmRvd3MgVmVyc2lvbg==
        >
        <X 0 0 0 0 1 "Country: Croatia"
          /wFDb3VudHJ5OiBDcm9hdGlh
        >
        <X 0 0 0 0 1 "Anthem Name:"
          /wFBbnRoZW0gTmFtZTo=
        >
        <X 0 0 0 0 1 "(p) (c) The Software Toolworks 1992"
          /wEocCkgKGMpIFRoZSBTb2Z0d2FyZSBUb29sd29ya3MgMTk5Mg==
        >
        <X 0 0 0 0 1 notes:
          /wFub3Rlczo=
        >
        <X 0 0 0 0 1 "date: 7-11-92"
          /wFkYXRlOiA3LTExLTky
        >
        <X 0 0 0 0 1 "edit date:"
          /wFlZGl0IGRhdGU6
        >
        <X 0 0 0 0 1 "This file provided by:"
          /wFUaGlzIGZpbGUgcHJvdmlkZWQgYnk6
        >
        <X 0 0 0 0 1 "Wallace Music & Sound, Inc."
          /wFXYWxsYWNlIE11c2ljICYgU291bmQsIEluYy4=
        >
        <X 0 0 0 0 1 "(602) 979-6210"
          /wEoNjAyKSA5NzktNjIxMA==
        >
        e 0 90 4a 73
        e 175 80 4a 40
        e 18 90 4a 73
        e 177 80 4a 40
        e 21 90 4a 74
        e 268 80 4a 40
        e 6 90 48 75
        e 90 80 48 40
        e 18 90 48 75
        e 83 80 48 40
        e 4 90 46 76
        e 84 80 46 40
        e 15 90 46 76
        e 175 80 46 40
        e 8 90 41 77
        e 383 80 41 40
        e 5 90 3f 78
        e 90 90 3e 78
        e 5 80 3f 40
        e 94 90 3f 79
        e 8 80 3e 40
        e 93 80 3f 40
        e 3 90 41 79
        e 95 90 43 79
        e 4 80 41 40
        e 41 90 45 7a
        e 3 80 43 40
        e 35 80 45 40
        e 1 90 43 7a
        e 313 80 43 40
        e 3 90 41 7b
        e 77 90 3f 7b
        e 5 80 41 40
        e 89 90 3e 7b
        e 5 80 3f 40
        e 93 90 3f 7c
        e 7 80 3e 40
        e 84 80 3f 40
        e 0 90 41 7c
        e 18 80 41 40
        e 3 90 43 7c
        e 19 90 41 7c
        e 12 80 43 40
        e 6 90 3f 7c
        e 5 80 41 40
        e 13 80 3f 40
        e 8 90 41 7c
        e 311 80 41 40
        e 3 90 4a 73
        e 180 80 4a 40
        e 16 90 4a 73
        e 177 80 4a 40
        e 13 90 4a 74
        e 280 80 4a 40
        e 3 90 48 75
        e 84 80 48 40
        e 17 90 48 75
        e 81 80 48 40
        e 2 90 46 76
        e 88 80 46 40
        e 21 90 46 76
        e 180 80 46 40
        e 1 90 41 77
        e 384 90 3f 78
        e 6 80 41 40
        e 87 90 3e 78
        e 1 80 3f 40
        e 104 90 3f 79
        e 12 80 3e 40
        e 81 80 3f 40
        e 2 90 41 79
        e 101 80 41 40
        e 2 90 43 79
        e 384 90 45 7b
        e 7 80 43 40
        e 70 80 45 40
        e 20 90 45 7b
        e 87 80 45 40
        e 4 90 48 7b
        e 192 90 46 7c
        e 7 80 48 40
        e 336 80 46 40
        e 40 90 45 7f
        e 174 80 45 40
        e 21 90 45 7f
        e 179 80 45 40
        e 18 90 45 7f
        e 271 80 45 40
        e 6 90 43 7f
        e 94 90 45 7f
        e 6 80 43 40
        e 171 80 45 40
        e 17 90 45 7f
        e 88 80 45 40
        e 4 90 46 7f
        e 92 90 48 7f
        e 7 80 46 40
        e 279 80 48 40
        e 6 90 45 7f
        e 97 80 45 40
        e 2 90 48 7f
        e 68 80 48 40
        e 20 90 48 7f
        e 89 80 48 40
        e 16 90 48 7f
        e 72 80 48 40
        e 24 90 48 7f
        e 78 80 48 40
        e 23 90 48 7f
        e 181 80 48 40
        e 3 90 46 7f
        e 206 90 45 7f
        e 3 80 46 40
        e 173 90 43 7f
        e 3 80 45 40
        e 200 90 41 7f
        e 4 80 43 40
        e 375 80 41 40
        e 13 90 4a 73
        e 158 80 4a 40
        e 14 90 4a 73
        e 185 80 4a 40
        e 18 90 4a 74
        e 272 80 4a 40
        e 11 90 48 75
        e 89 80 48 40
        e 15 90 48 75
        e 83 80 48 40
        e 3 90 46 76
        e 84 80 46 40
        e 18 90 46 76
        e 177 80 46 40
        e 2 90 41 77
        e 399 90 3f 78
        e 8 80 41 40
        e 77 90 3e 78
        e 4 80 3f 40
        e 94 90 3f 79
        e 12 80 3e 40
        e 87 80 3f 40
        e 5 90 41 79
        e 100 90 43 79
        e 3 80 41 40
        e 352 80 43 40
        e 14 90 45 7b
        e 86 80 45 40
        e 24 90 45 7b
        e 86 80 45 40
        e 8 90 48 7b
        e 182 80 48 40
        e 1 90 46 7c
        e 16 80 46 40
        e 4 90 48 7c
        e 15 90 46 7c
        e 7 80 48 40
        e 18 90 45 7c
        e 1 80 46 40
        e 22 90 46 7c
        e 8 80 45 40
        e 296 80 46 40
        E 1 b0 7b 00
        OUTCH 1
        GUID {930CF56E-69D0-7846-AD99-4EDE994564A0}
        IGNTEMPO 0 120 4 4
        SRCCOLOR 889
        VELLANE -1 86 6
        CFGEDITVIEW 0 0 52 30 0 0 0 0 0 0.5
        KEYSNAP 0
        TRACKSEL 226
        EVTFILTER 0 -1 -1 -1 -1 0 1 0 0 -1 -1 -1 -1 0 -1 0 -1 -1
        CFGEDIT 1 0 0 0 0 0 1 0 1 1 1 0.25 16 63 1280 778 0 0 2 3 0 0 0 0 0 0.5 0 0 1 64
      >
    >
  >
  <TRACK {9E2CAE92-CCC1-1F4A-BCF6-93DCFE473BDF}
    NAME "16th pulse (mix w/ send?)"
    PEAKCOL 16576
    BEAT -1
    AUTOMODE 0
    VOLPAN 1 0 -1 -1 1
    MUTESOLO 0 0 0
    IPHASE 0
    ISBUS 1 1
    BUSCOMP 0 0
    SHOWINMIX 1 0.6667 0.5 1 0.5 0 0 0
    FREEMODE 0
    SEL 0
    REC 0 0 0 0 0 0 0
    VU 2
    TRACKHEIGHT 0 0
    INQ 0 0 0 0.5 100 0 0 100
    NCHAN 4
    FX 1
    TRACKID {9E2CAE92-CCC1-1F4A-BCF6-93DCFE473BDF}
    PERF 0
    AUXRECV 3 0 1 0 0 0 0 0 0 -1:U 64 -1 ''
    AUXRECV 4 0 1 0 0 0 0 0 0 -1:U 32 -1 ''
    MIDIOUT -1
    MAINSEND 0 0
    <FXCHAIN
      WNDRECT 36 359 724 387
      SHOW 0
      LASTSEL 0
      DOCKED 0
      BYPASS 0 0 0
      <VST "VSTi: chipsounds (Multi) (Plogue Art et Technologie, Inc) (32 out)" "chipsounds Multi.vst" 0 "" 1347241807
        T0dNUO5e7f4AAAAAIAAAAAEAAAAAAAAAAgAAAAAAAAAEAAAAAAAAAAgAAAAAAAAAEAAAAAAAAAAgAAAAAAAAAEAAAAAAAAAAgAAAAAAAAAAAAQAAAAAAAAACAAAAAAAA
        AAQAAAAAAAAACAAAAAAAAAAQAAAAAAAAACAAAAAAAAAAQAAAAAAAAACAAAAAAAAAAAABAAAAAAAAAAIAAAAAAAAABAAAAAAAAAAIAAAAAAAAABAAAAAAAAAAIAAAAAAA
        AABAAAAAAAAAAIAAAAAAAAAAAAEAAAAAAAAAAgAAAAAAAAAEAAAAAAAAAAgAAAAAAAAAEAAAAAAAAAAgAAAAAAAAAEAAAAAAAAAAgAAAAADhBAAAAQAAAAAAEAA=
        Q0VHUHwfAAB4nO1Z3W/bOAx/719h+OnuYbYkS5YENB3StBkCXG8F0nseVEdLjTl2Zsu57v76o+2kUT8Up1+3ARe+xFZIkfyZokn6+OPtIvNWuqzSIh/4OEC+9/Hk6HhY
        pmqqVtr6S+LY95ZlMasTMzmDBYSkf3LkAR1PtTFpPq+877XKUvMD/vW9ypRaLWB54EfE9xbqdtquDLOsSC5OBz7DsHwxOZt8rs1FMdOtlKpNsVAGdE6zwgx8ZC9leqWz
        gZ/msHe90LnxvSxd6U4YOKukMZTS5kplCtaw98HTjVVBlWTr5REI6nLgxyAxz4prlV3VeWsnLIQbl0C7l87atVwtmv1x4F3WpfZGN+kynE7OwpgJ7P3259V09LvvXav8
        22S2xsXCTRDwMrlRed6YDrstiwwAAhvNVuvy+kup8jlo+QAYLA3cVO0fC+uySAw8kjtHOSzVZn3/95dMVabZtrO/9eFCpfnGh5XK6g7h8CkOfMeBHByklyPq5aC9HKyX
        I+7l4L0copdD9nJg1M/SjyruhxX344r7gcVOZC9VqRa7H/GWxaloy8JdwbZlsbELqGSoIcpjEfEmyziELBwCwpxs1GaLZEs0jhgTxCmzj81WSASYdPsyEuGYCOrEwnY0
        wp0Q8HNKidNRjm10UCcUUxJx0mDgECK2eaJFFHHMCGPcbd49SKNOiGJOIsKcQHAb4LgDWLBYUiGY2zwr/ALeacIS8YiK2C0U3/OpCxMSCQrXwilkHe4AvOngE0IQCk/N
        6ZWwda2RwFgSJIl0ysjny0h0z6fOOh5jeJVQd3xGdkjAC06I5n2MaIx3xJFEW107mLZbO/VLRPoPiER7JAeJ4n12EvswyX0SzT6WY4IiF9eVKufarEuApFgEl1kxr3XQ
        VEjBH+PPQV3pEllv3VZqVFdQs5wpo7wb82MJoowzsLdK/4FrGlOrQgCsdD5LVXc5Axm42NC4+yHoQAc60K9C93NE2CWJ52YNfMgaBzrQ/4demjWuynQ+1+VUf691nuiy
        P2/QiEZ3eYNbaYM8lTbwAzvbUpaPERlDIjkX/OH/KBrxsdzDYYzoLqePw2bK8nDggt904II3AxeyHbjgt5y4kMPE5TBxeenExW7r4LjEMW/PDTT9KIqdPaTd6kvEGPSc
        nBEhIomdPc69qQinMWJSSMpizGN3K/3MSY5zJsOdT84x9WC0bfYBECEhG7k3tgcYSNJ1r4+4RHy/AUbUId47fbo3wCBY7qfJeXReN3iwO3vncMfu7Hd00e/R2e8YJPwX
        nf279OzipcX3o7fnAzrf40WKflLL8WKn34h+TsWEI7ZnyTReEzpt7pqSCTN0ysenjzxxl0yb8gpSMtCQRQ2Wo1929Ql79y3xzr9+1Ymxv6ytq6ru+Q0X12nztHpKu80X
        uk9/TTbbqMSkKz3ZfjFs78/v7iudgWI9u1LXzb2dUEpdaXOh89pLqw27aR3YHVCe0bfAcqqqCspHZW4GfjhcLrM0ab9UVmEnCIVouqyKOp/BSqurCndsG3aB6cF68q0K
        m90DBQd4+SANPrIaP2n1sFzq+TxVptganKXLVxhs7Rg2W73GOhemYMFCl+odYF1bXwBzp6PHfP1kSHxSZZkalQfbgN0EQ5aVBejBG9u30RpCuJ4cHYebL+snR/8CgZiJ
        cQ==
        AAAQAAAA
      >
      FLOATPOS 32 36 870 508
      FXID {107A0810-14EA-B14B-8D5E-B6D069535C20}
      WAK 0
      BYPASS 1 0 0
      <JS Delay/time_adjustment ""
        -10.000000 0.000000 -120.000000 0.000000 - - - - - - - - - - - - - - - - - - - - - - - - - - - - - - - - - - - - - - - - - - - - - - - - - - - - - - - - - - - - 
      >
      FLOATPOS 0 4 554 157
      FXID {40721658-5454-1743-9C6A-517A806DB8F9}
      WAK 0
    >
  >
  <TRACK {4FCA358B-3FAC-3749-9BC2-11E94F70145F}
    NAME 16ths
    PEAKCOL 16576
    BEAT -1
    AUTOMODE 0
    VOLPAN 1 0 -1 -1 1
    MUTESOLO 0 0 0
    IPHASE 0
    ISBUS 0 0
    BUSCOMP 0 0
    SHOWINMIX 1 0.6667 0.5 1 0.5 0 0 0
    FREEMODE 0
    SEL 0
    REC 0 0 0 0 0 0 0
    VU 2
    TRACKHEIGHT 0 0
    INQ 0 0 0 0.5 100 0 0 100
    NCHAN 2
    FX 1
    TRACKID {4FCA358B-3FAC-3749-9BC2-11E94F70145F}
    PERF 0
    MIDIOUT -1
    MAINSEND 0 0
  >
  <TRACK {B0448BAA-9F98-5543-9DF7-CDB8296564E0}
    NAME Full
    PEAKCOL 16576
    BEAT -1
    AUTOMODE 0
    VOLPAN 1 0 -1 -1 1
    MUTESOLO 0 0 0
    IPHASE 0
    ISBUS 2 -1
    BUSCOMP 0 0
    SHOWINMIX 1 0.6667 0.5 1 0.5 0 0 0
    FREEMODE 0
    SEL 0
    REC 0 0 0 0 0 0 0
    VU 2
    TRACKHEIGHT 0 0
    INQ 0 0 0 0.5 100 0 0 100
    NCHAN 2
    FX 1
    TRACKID {B0448BAA-9F98-5543-9DF7-CDB8296564E0}
    PERF 0
    MIDIOUT -1
    MAINSEND 0 0
    <ITEM
      POSITION 0
      SNAPOFFS 0
      LENGTH 32
      LOOP 1
      ALLTAKES 0
      FADEIN 1 0 0 1 0 0
      FADEOUT 1 0 0 1 0 0
      MUTE 0
      SEL 1
      YPOS 0.484848 0.05
      IGUID {09E079B9-E3E7-9740-AC59-0F3376306FA2}
      IID 5
      NAME "Bass                 - National_Anthems_-_Croatia.mid"
      VOLPAN 1 0 1 -1
      SOFFS 0 0
      PLAYRATE 1 1 0 -1 0 0.0025
      CHANMODE 0
      TAKECOLOR 26173599 B
      GUID {E1AB15F1-92A4-B346-9DBE-7DAD47861E60}
      <SOURCE MIDI
        HASDATA 1 192 QN
        POOLEDEVTS {9853A017-0918-9141-8A2D-055CA2847A8E}
        <X 0 0 0 0 3 "Bass                "
          /wNCYXNzICAgICAgICAgICAgICAgIA==
        >
        e 0 90 22 78
        e 178 80 22 40
        e 14 90 26 78
        e 178 80 26 40
        e 14 90 29 78
        e 274 80 29 40
        e 14 90 29 78
        e 82 80 29 40
        e 14 90 29 78
        e 82 80 29 40
        e 14 90 22 78
        e 82 80 22 40
        e 14 90 22 78
        e 178 80 22 40
        e 14 90 22 78
        e 370 80 22 40
        e 14 90 29 78
        e 178 80 29 40
        e 14 90 29 78
        e 178 80 29 40
        e 14 90 29 78
        e 370 80 29 40
        e 14 90 22 78
        e 178 80 22 40
        e 14 90 22 78
        e 178 80 22 40
        e 14 90 22 78
        e 370 80 22 40
        e 14 90 22 78
        e 178 80 22 40
        e 14 90 26 78
        e 178 80 26 40
        e 14 90 29 78
        e 274 80 29 40
        e 14 90 29 78
        e 82 80 29 40
        e 14 90 29 78
        e 82 80 29 40
        e 14 90 22 78
        e 82 80 22 40
        e 14 90 22 78
        e 178 80 22 40
        e 14 90 22 78
        e 370 80 22 40
        e 14 90 29 78
        e 178 80 29 40
        e 14 90 29 78
        e 178 80 29 40
        e 14 90 29 78
        e 370 80 29 40
        e 14 90 29 78
        e 178 80 29 40
        e 14 90 29 78
        e 178 80 29 40
        e 14 90 22 78
        e 370 80 22 40
        e 14 90 1d 78
        e 178 80 1d 40
        e 14 90 21 78
        e 178 80 21 40
        e 14 90 24 78
        e 274 80 24 40
        e 14 90 24 78
        e 82 80 24 40
        e 14 90 29 78
        e 178 80 29 40
        e 14 90 29 78
        e 178 80 29 40
        e 14 90 29 78
        e 370 80 29 40
        e 14 90 29 78
        e 178 80 29 40
        e 14 90 27 78
        e 178 80 27 40
        e 14 90 26 78
        e 178 80 26 40
        e 14 90 2b 78
        e 178 80 2b 40
        e 14 90 24 78
        e 178 80 24 40
        e 14 90 24 78
        e 178 80 24 40
        e 14 90 29 78
        e 370 80 29 40
        e 14 90 22 78
        e 178 80 22 40
        e 14 90 26 78
        e 178 80 26 40
        e 14 90 29 78
        e 274 80 29 40
        e 14 90 29 78
        e 82 80 29 40
        e 14 90 29 78
        e 82 80 29 40
        e 14 90 22 78
        e 82 80 22 40
        e 14 90 22 78
        e 178 80 22 40
        e 14 90 22 78
        e 370 80 22 40
        e 14 90 29 78
        e 178 80 29 40
        e 14 90 29 78
        e 178 80 29 40
        e 14 90 29 78
        e 370 80 29 40
        e 14 90 29 78
        e 178 80 29 40
        e 14 90 21 78
        e 178 80 21 40
        e 14 90 22 78
        e 370 80 22 40
        E 14 b0 7b 00
        GUID {FD55B8CA-FB13-B54E-A68D-B035BEF6D39E}
        IGNTEMPO 0 120 4 4
        SRCCOLOR 848
        VELLANE -1 86 6
        CFGEDITVIEW -585.6 25.871833 54 13 0 0 0 0 0 0.5
        KEYSNAP 0
        TRACKSEL 226
        EVTFILTER 0 -1 -1 -1 -1 0 1 0 0 -1 -1 -1 -1 0 -1 0 -1 -1
        CFGEDIT 1 0 0 0 0 0 1 0 1 1 1 0.25 16 63 1280 778 0 0 2 3 0 0 0 0 0 0.5 0 0 1 64
      >
      TAKE
      NAME "Bass                 - National_Anthems_-_Croatia.mid"
      TAKEVOLPAN 0 1 -1
      SOFFS 0 0
      PLAYRATE 1 1 0 -1 0 0.0025
      CHANMODE 0
      GUID {09044C5F-FB4A-2040-BFF7-7967A8E0C8D3}
      <SOURCE MIDI
        HASDATA 1 192 QN
        POOLEDEVTS {6B571434-1482-8846-AACB-F295C6B0D769}
        <X 0 0 0 0 3 "Bass                "
          /wNCYXNzICAgICAgICAgICAgICAgIA==
        >
        e 0 90 22 78
        e 178 80 22 40
        e 14 90 26 78
        e 178 80 26 40
        e 14 90 29 78
        e 274 80 29 40
        e 14 90 29 78
        e 82 80 29 40
        e 14 90 29 78
        e 82 80 29 40
        e 14 90 22 78
        e 82 80 22 40
        e 14 90 22 78
        e 178 80 22 40
        e 14 90 22 78
        e 370 80 22 40
        e 14 90 29 78
        e 178 80 29 40
        e 14 90 29 78
        e 178 80 29 40
        e 14 90 29 78
        e 370 80 29 40
        e 14 90 22 78
        e 178 80 22 40
        e 14 90 22 78
        e 178 80 22 40
        e 14 90 22 78
        e 370 80 22 40
        e 14 90 22 78
        e 178 80 22 40
        e 14 90 26 78
        e 178 80 26 40
        e 14 90 29 78
        e 274 80 29 40
        e 14 90 29 78
        e 82 80 29 40
        e 14 90 29 78
        e 82 80 29 40
        e 14 90 22 78
        e 82 80 22 40
        e 14 90 22 78
        e 178 80 22 40
        e 14 90 22 78
        e 370 80 22 40
        e 14 90 29 78
        e 178 80 29 40
        e 14 90 29 78
        e 178 80 29 40
        e 14 90 29 78
        e 370 80 29 40
        e 14 90 29 78
        e 178 80 29 40
        e 14 90 29 78
        e 178 80 29 40
        e 14 90 22 78
        e 370 80 22 40
        e 14 90 1d 78
        e 178 80 1d 40
        e 14 90 21 78
        e 178 80 21 40
        e 14 90 24 78
        e 274 80 24 40
        e 14 90 24 78
        e 82 80 24 40
        e 14 90 29 78
        e 178 80 29 40
        e 14 90 29 78
        e 178 80 29 40
        e 14 90 29 78
        e 370 80 29 40
        e 14 90 29 78
        e 178 80 29 40
        e 14 90 27 78
        e 178 80 27 40
        e 14 90 26 78
        e 178 80 26 40
        e 14 90 2b 78
        e 178 80 2b 40
        e 14 90 24 78
        e 178 80 24 40
        e 14 90 24 78
        e 178 80 24 40
        e 14 90 29 78
        e 370 80 29 40
        e 14 90 22 78
        e 178 80 22 40
        e 14 90 26 78
        e 178 80 26 40
        e 14 90 29 78
        e 274 80 29 40
        e 14 90 29 78
        e 82 80 29 40
        e 14 90 29 78
        e 82 80 29 40
        e 14 90 22 78
        e 82 80 22 40
        e 14 90 22 78
        e 178 80 22 40
        e 14 90 22 78
        e 370 80 22 40
        e 14 90 29 78
        e 178 80 29 40
        e 14 90 29 78
        e 178 80 29 40
        e 14 90 29 78
        e 370 80 29 40
        e 14 90 29 78
        e 178 80 29 40
        e 14 90 21 78
        e 178 80 21 40
        e 14 90 22 78
        e 370 80 22 40
        E 14 b0 7b 00
        GUID {DD11CC15-A6FD-BA4C-9E17-1EC489E1EF2A}
        IGNTEMPO 0 120 4 4
        SRCCOLOR 890
        VELLANE -1 86 6
        CFGEDITVIEW 0 0 54 13 0 0 0 0 0 0.5
        KEYSNAP 0
        TRACKSEL 226
        EVTFILTER 0 -1 -1 -1 -1 0 1 0 0 -1 -1 -1 -1 0 -1 0 -1 -1
        CFGEDIT 1 0 0 0 0 0 1 0 1 1 1 0.25 16 63 1280 778 0 0 2 3 0 0 0 0 0 0.5 0 0 1 64
      >
    >
  >
  <TRACK {5AFE27AD-822D-C34D-AFA1-36A455563115}
    NAME "Bass Return (global)"
    PEAKCOL 0
    BEAT -1
    AUTOMODE 0
    VOLPAN 0.7917101393281 0.024 -1 -1 1
    MUTESOLO 0 0 0
    IPHASE 0
    ISBUS 0 0
    BUSCOMP 0 0
    SHOWINMIX 1 0.6667 0.5 1 0.5 0 0 0
    FREEMODE 0
    SEL 0
    REC 0 0 0 0 0 0 0
    VU 2
    TRACKHEIGHT 0 0
    INQ 0 0 0 0.5 100 0 0 100
    NCHAN 2
    FX 1
    TRACKID {5AFE27AD-822D-C34D-AFA1-36A455563115}
    PERF 0
    AUXRECV 1 0 1 0 1 0 0 0 0 -1:U 0 -1 ''
    AUXRECV 2 0 1 0 0 0 0 0 0 -1:U 0 -1 ''
    AUXRECV 6 0 1 0 1 0 0 4 0 -1:U 0 -1 ''
    MIDIOUT -1
    MAINSEND 1 0
    <FXCHAIN
      SHOW 0
      LASTSEL 0
      DOCKED 0
      BYPASS 0 0 0
      <VST "VST: 8-Bit Shaper (Xfer Records)" 8BitShaper.vst 0 "" 1148539762
        clN1RO5e7f4CAAAAAQAAAAAAAAACAAAAAAAAAAIAAAABAAAAAAAAAAIAAAAAAAAANAIAAAEAAAAAABAA
        ZmaGP20MlT7dQQw/AAAAPyQAeHQAAIA/ZCBNaXhlciAXAAAAMAAAABkAAAAaAAAAGgAAABoAAAAbAAAAGwAAABwAAAAcAAAAHAAAAB0AAAAdAAAAHgAAAB4AAAAfAAAA
        HwAAACAAAAAgAAAAIAAAACEAAAAhAAAAIQAAACIAAAAiAAAAIgAAACMAAAAjAAAAIwAAACQAAAAkAAAAJAAAACUAAAAlAAAAKAAAACgAAAApAAAAKQAAACoAAAA1AAAA
        KgAAACoAAAA2AAAAKgAAACoAAAAqAAAAKgAAACoAAAAqAAAAKgAAACsAAAArAAAAOQAAAC0AAAA0AAAAOgAAAC0AAAAtAAAAPAAAAC4AAAAuAAAALwAAADAAAAAwAAAA
        MQAAADEAAAAxAAAAMgAAADMAAAAzAAAAMwAAADcAAAA3AAAANwAAADgAAAA4AAAAOAAAADkAAAA5AAAAOQAAADoAAAA6AAAAOgAAADoAAAA6AAAAOwAAADsAAAA7AAAA
        PAAAADsAAAA7AAAAOwAAADwAAAA8AAAAPAAAADwAAAA9AAAAPQAAAD0AAAA9AAAAPQAAAD4AAAA+AAAAPwAAAEkAAABAAAAAQAAAAEgAAABAAAAAQQAAAEIAAABCAAAA
        QgAAAEMAAABDAAAAQwAAAEQAAABEAAAARQAAAE0AAABGAAAARwAAAEYAAABHAAAASAAAAEgAAABJAAAATwAAAAAAgD+rqqo+q6qqPh0Fwz6OAm0/
        AEluaXQgMQAQAAAA
      >
      PRESETNAME "Init 1"
      FLOATPOS 32 39 278 389
      FXID {19A94086-1737-784E-A733-2897FDD09534}
      WAK 0
    >
  >
  <TRACK {3CF13A00-0AFC-8542-AD98-73B6D91102DB}
    NAME "vst Plogue"
    PEAKCOL 26779488
    BEAT -1
    AUTOMODE 0
    VOLPAN 1 0 -1 -1 1
    MUTESOLO 0 0 0
    IPHASE 0
    ISBUS 0 0
    BUSCOMP 0 0
    SHOWINMIX 1 0.6667 0.5 1 0.5 0 0 0
    FREEMODE 0
    SEL 0
    REC 0 0 0 1 0 0 0
    VU 2
    TRACKHEIGHT 0 0
    INQ 0 0 0 0.5 100 0 0 100
    NCHAN 8
    FX 1
    TRACKID {3CF13A00-0AFC-8542-AD98-73B6D91102DB}
    PERF 0
    AUXRECV 8 0 1 0 0 0 0 0 0 -1:U 32 -1 ''
    AUXRECV 8 0 1 0 0 0 0 0 0 -1:U 96 -1 ''
    AUXRECV 9 0 1 0 0 0 0 0 0 -1:U 64 -1 ''
    AUXRECV 9 0 1 0 0 0 0 0 0 -1:U 128 -1 ''
    AUXRECV 10 0 1 0 0 0 0 0 0 -1:U 160 -1 ''
    MIDIOUT -1
    MAINSEND 0 0
    <FXCHAIN
      SHOW 0
      LASTSEL 0
      DOCKED 0
      BYPASS 0 0 0
      <VST "VSTi: chipsounds (Multi) (Plogue Art et Technologie, Inc) (32 out)" "chipsounds Multi.vst" 0 "" 1347241807
        T0dNUO5e7f4AAAAAIAAAAAEAAAAAAAAAAgAAAAAAAAAEAAAAAAAAAAgAAAAAAAAAEAAAAAAAAAAgAAAAAAAAAEAAAAAAAAAAgAAAAAAAAAAAAQAAAAAAAAACAAAAAAAA
        AAQAAAAAAAAACAAAAAAAAAAQAAAAAAAAACAAAAAAAAAAQAAAAAAAAACAAAAAAAAAAAABAAAAAAAAAAIAAAAAAAAABAAAAAAAAAAIAAAAAAAAABAAAAAAAAAAIAAAAAAA
        AABAAAAAAAAAAIAAAAAAAAAAAAEAAAAAAAAAAgAAAAAAAAAEAAAAAAAAAAgAAAAAAAAAEAAAAAAAAAAgAAAAAAAAAEAAAAAAAAAAgAAAAABPBwAAAQAAAAAAEAA=
        Q0VHUCVIAAB4nO1c3W/bNhB/718h+Gl7qMXvDyBJkTh1F2BZCzjFHgvGZh1tsuxJctbur99JshIqMS25cdG01T0kNn135J3o4/3uCB+9+rSIg1ubZtEyOR7gIRoEr05e
        HJ2mkZmYW+t8pLEYBKt0OVtP84tzGEBID05eBEBHE5vnUTLPgn/WJo7yz/DpIMjy1JoFDB8PKBkEC/NpUo6cxvFyenl2POAYhi8vzi/ervPL5cyWUmadLxcmhzkn8TI/
        HiB3KLa3Nj4eRAnoXi9skg+COLq1lTBwZlPQyssXJjYwhIOXgS0WNcym8WZ4BHI2PR4I4JvHy2sTX62TcpkwENYWweRBNCvHErMo1ONh8G6d2mB0E63CycV5KLjCwS9/
        XE1Gvw6Ca5P8fTHbuMVxmyJg5PTGJEmxctC2WsbgHzYI8vtZV9cfUpPMYZaX4IJVDm+y8oOF83I5zeGJ3NmJKYyt883Avx9ik+WF3sqA0ohLEyW1EbcmXlceDrdx4DsO
        5OEgrRy0lYO1cvBWDtHKIVs5VCuHbuXAqJ2l3au43a243a+43bHY69l3JjWL3Y/4nsU70T2L4/6hgm8jENZIUqYE9cm4zhwyXQohJoWisgg7nokc9w4x0SVxQrEginmF
        mCtEq5k4FYxh5ZURroyqZAhVIML9Qs4mG4Ix1fKUUoTBWrFPTLlz0XImhLEmSBPtldH7y2jUsKlanRQYYhoj3sdEXZdrTCk4ACkmpBK8KXRl0rnNN7FzulwM38XL+doO
        i5Nl+Pv47XCd2RQ50aqUGq0ziPXnJjfBTf55BaJccrAhi/6D10wwJ7SCATaZRaZ6OQMZeFHTuPpHUE899fRcqBkjwipI7Bs1cB81eurp56EvjRpXaTSf23QCCNAmU5u2
        xw1GGa3jBuFO2CDbwgZ+sM7yvRwXREdyrBsfjhAd7zDkKCwg50P0iQ+KPvEW9Kl69Nmjz2eBPnEDL2EhZPm9YUgjKrw4hriABHEOuEdyohTV2IuxXAhIJBOIa6UZFxgA
        51dDtbwTjOWsUi2E0oDk/EKuDbTyVDtg9u7ep+HPJiyUEkC45IyVDwJ5ParRvXv8iBOyMV/4+DphX+h9wz6vwj6kj68fh/2SiKRnjYExHAYFr3rECqPn2zQg0tTQcpzs
        dFCPwXvq6WelHoP31FNP+9He0JUcFLqyGrrie+jKDgldUQt09SKbPaCrD/720PUhy08HXSVhDCldtBQZEdwLXR2ThnjTVBSSYMmYFyu6UFGybr1V3rBIb9qDUjBFuPKi
        Nenb6r5Ob9VLxYwiAO5M+gGmK0Q7NitZh9U0Orsl3NWaCqTZjhYy7mKm25Jlm3oBxTAFwd4NIV3f0Konq7jQTCnuLTI45QPvaqTrP7Txn8aIa4qoX7O7cQQvN5vEsC4p
        dxQm3J0DT6jcbZpTIRn17xv3MXDC3MfrNarRwdZVvthaN3GLDl7Dtb/m4DJ1uAuhkeiiqcOG0kh3+XJ1WTnGqFE9qvytFJKwEr8UQW6YI14XA6PXM1+lIqG+MbT4JoDq
        ezX6acW54t5Mp+LceEOoPImr4hwi5OzskSGPS3bnZXEOoa3Fua3lPT5q6j0DDcW0slEqHFejI/mwgLh/ck0PmlyTb30rsT259qXOfV/ogcd+vOT6edxK7C8h9pcQv++T
        t083vt4VkLt04/BXQNhBj3q65ajn/VHfH/XP4qj/oa+A+Ksz/QWQw14A6Y/3/nj3mf1FV33ujvfneNVne9og79IGMgwqNwR/wvH9cZkusvA3k86Cyedk2jVv4Hf9N3HQ
        GsFTk4X2plt7suBLOPpk4RHLs00W8KanwTnRgvtPQDdXQJrpTpVvdyaBBIFUQVGkJZLC3yRyWy5cVS0NxRmhRPrP0UaKsbGJKCYZI16TcAPjyzqKaIVgLv+56sL1rnUL
        0iGbIR06ENK7G/fsazUep2CN+kHHbhjf1EQATCnNmb85xzusp9lOpLpIzDAhitId/RLqWiFY1Y2BdAv2MfW2RDslT24ja8cN5EO2slQXpg6tLI07+BsT1GEnAZc32Pva
        VkNa9TuVJhJjQf1fWYK8Mb7PT/v89EnlJ0L3TFCrKwxV/QmdyXGXdldNdVsKsDDQKW82q5zRM8kf691Pg9jSiNtTA36qBi6fqoGdP01D16T+9cePdpq7P0lSp9HVhjtd
        XEfF9mpJ5jeTHb15f1HrMdM8urUX1U+t4Pr967ufXslsDDPb2ZW5LjagGwFTm9n80ibrIMpq8by0YPc3IMjtJ2C5gr/r1M6C36I8A+Rg8pvjQXi6WsXRtPytlyysNAAG
        iVbZcp3MYKScNAt36A83WOc0Xdn5PFpmYWOmoYEwtHoQzB+ZQvYyZWH+kvnNnQ3vIb5lYQZPJpnHJpnBmj5MU2tyG07MYhXbLHxdfxKMo+J9NcHo3tB6jqwQ4flN27pt
        Vj8xd91vTJpGuUmG9xukWvGZieN0CV7C9arvd0cI2+PkxVFY/wTQyYv/AWE63fY=
        AAAQAAAA
      >
      FLOATPOS 32 36 870 508
      FXID {3F8BFB78-F332-584A-90DC-60580D71D8A4}
      WAK 0
    >
  >
  <TRACK {361291E9-E6AB-604E-AA43-746A4AF7FC9C}
    NAME "midi "
    PEAKCOL 16576
    BEAT -1
    AUTOMODE 0
    VOLPAN 1 0 -1 -1 1
    MUTESOLO 0 0 0
    IPHASE 0
    ISBUS 1 1
    BUSCOMP 1 0
    SHOWINMIX 1 0.6667 0.5 1 0.5 0 0 0
    FREEMODE 0
    SEL 0
    REC 0 0 0 0 0 0 0
    VU 2
    TRACKHEIGHT 0 0
    INQ 0 0 0 0.5 100 0 0 100
    NCHAN 2
    FX 1
    TRACKID {361291E9-E6AB-604E-AA43-746A4AF7FC9C}
    PERF 0
    MIDIOUT -1
    MAINSEND 1 0
  >
  <TRACK {2BB5EACD-C1BC-284E-92F6-33B7023B768F}
    NAME "ch1,3 (send)"
    PEAKCOL 16576
    BEAT -1
    AUTOMODE 0
    VOLPAN 1 0 -1 -1 1
    MUTESOLO 0 0 0
    IPHASE 0
    ISBUS 0 0
    BUSCOMP 0 0
    SHOWINMIX 1 0.6667 0.5 1 0.5 0 0 0
    FREEMODE 0
    SEL 0
    REC 0 0 0 0 0 0 0
    VU 2
    MIDICTL -1 1
    TRACKHEIGHT 0 0
    INQ 0 0 0 0.5 100 0 0 100
    NCHAN 2
    FX 1
    TRACKID {2BB5EACD-C1BC-284E-92F6-33B7023B768F}
    PERF 0
    MIDIOUT -1
    MAINSEND 1 0
    <FXCHAIN
      SHOW 0
      LASTSEL 0
      DOCKED 0
    >
    <ITEM
      POSITION 0
      SNAPOFFS 0
      LENGTH 32
      LOOP 1
      ALLTAKES 0
      FADEIN 1 0 0 1 0 0
      FADEOUT 1 0 0 1 0 0
      MUTE 0
      SEL 0
      YPOS 0 0.05
      IGUID {E9C76411-5E17-2448-9C1F-672B3C2DC40F}
      IID 1
      NAME "Melody               - National_Anthems_-_Croatia.mid"
      VOLPAN 1 0 1 -1
      SOFFS 0 0
      PLAYRATE 1 1 0 -1 0 0.0025
      CHANMODE 0
      TAKECOLOR 26173599 B
      GUID {C6CEA26D-BF5A-9442-93EC-759A92BEFDFB}
      <SOURCE MIDI
        HASDATA 1 192 QN
        POOLEDEVTS {5E8BE484-0154-3E44-9F44-211DE1AB3ECB}
        <X 0 0 0 0 3 "Melody              "
          /wNNZWxvZHkgICAgICAgICAgICAgIA==
        >
        <X 0 0 0 0 1 "THE SOFTWARE TOOLWORKS"
          /wFUSEUgU09GVFdBUkUgVE9PTFdPUktT
        >
        <X 0 0 0 0 1 "WORLD ATLAS"
          /wFXT1JMRCBBVExBUw==
        >
        <X 0 0 0 0 1 "MultiMedia Windows Version"
          /wFNdWx0aU1lZGlhIFdpbmRvd3MgVmVyc2lvbg==
        >
        <X 0 0 0 0 1 "Country: Croatia"
          /wFDb3VudHJ5OiBDcm9hdGlh
        >
        <X 0 0 0 0 1 "Anthem Name:"
          /wFBbnRoZW0gTmFtZTo=
        >
        <X 0 0 0 0 1 "(p) (c) The Software Toolworks 1992"
          /wEocCkgKGMpIFRoZSBTb2Z0d2FyZSBUb29sd29ya3MgMTk5Mg==
        >
        <X 0 0 0 0 1 notes:
          /wFub3Rlczo=
        >
        <X 0 0 0 0 1 "date: 7-11-92"
          /wFkYXRlOiA3LTExLTky
        >
        <X 0 0 0 0 1 "edit date:"
          /wFlZGl0IGRhdGU6
        >
        <X 0 0 0 0 1 "This file provided by:"
          /wFUaGlzIGZpbGUgcHJvdmlkZWQgYnk6
        >
        <X 0 0 0 0 1 "Wallace Music & Sound, Inc."
          /wFXYWxsYWNlIE11c2ljICYgU291bmQsIEluYy4=
        >
        <X 0 0 0 0 1 "(602) 979-6210"
          /wEoNjAyKSA5NzktNjIxMA==
        >
        e 0 90 4a 73
        e 175 80 4a 40
        e 18 90 4a 73
        e 177 80 4a 40
        e 21 90 4a 74
        e 268 80 4a 40
        e 6 90 48 75
        e 90 80 48 40
        e 18 90 48 75
        e 83 80 48 40
        e 4 90 46 76
        e 84 80 46 40
        e 15 90 46 76
        e 175 80 46 40
        e 8 90 41 77
        e 383 80 41 40
        e 5 90 3f 78
        e 90 90 3e 78
        e 5 80 3f 40
        e 94 90 3f 79
        e 8 80 3e 40
        e 93 80 3f 40
        e 3 90 41 79
        e 95 90 43 79
        e 4 80 41 40
        e 41 90 45 7a
        e 3 80 43 40
        e 35 80 45 40
        e 1 90 43 7a
        e 313 80 43 40
        e 3 90 41 7b
        e 77 90 3f 7b
        e 5 80 41 40
        e 89 90 3e 7b
        e 5 80 3f 40
        e 93 90 3f 7c
        e 7 80 3e 40
        e 84 80 3f 40
        e 0 90 41 7c
        e 18 80 41 40
        e 3 90 43 7c
        e 19 90 41 7c
        e 12 80 43 40
        e 6 90 3f 7c
        e 5 80 41 40
        e 13 80 3f 40
        e 8 90 41 7c
        e 311 80 41 40
        e 3 90 4a 73
        e 180 80 4a 40
        e 16 90 4a 73
        e 177 80 4a 40
        e 13 90 4a 74
        e 280 80 4a 40
        e 3 90 48 75
        e 84 80 48 40
        e 17 90 48 75
        e 81 80 48 40
        e 2 90 46 76
        e 88 80 46 40
        e 21 90 46 76
        e 180 80 46 40
        e 1 90 41 77
        e 384 90 3f 78
        e 6 80 41 40
        e 87 90 3e 78
        e 1 80 3f 40
        e 104 90 3f 79
        e 12 80 3e 40
        e 81 80 3f 40
        e 2 90 41 79
        e 101 80 41 40
        e 2 90 43 79
        e 384 90 45 7b
        e 7 80 43 40
        e 70 80 45 40
        e 20 90 45 7b
        e 87 80 45 40
        e 4 90 48 7b
        e 192 90 46 7c
        e 7 80 48 40
        e 336 80 46 40
        e 40 90 45 7f
        e 174 80 45 40
        e 21 90 45 7f
        e 179 80 45 40
        e 18 90 45 7f
        e 271 80 45 40
        e 6 90 43 7f
        e 94 90 45 7f
        e 6 80 43 40
        e 171 80 45 40
        e 17 90 45 7f
        e 88 80 45 40
        e 4 90 46 7f
        e 92 90 48 7f
        e 7 80 46 40
        e 279 80 48 40
        e 6 90 45 7f
        e 97 80 45 40
        e 2 90 48 7f
        e 68 80 48 40
        e 20 90 48 7f
        e 89 80 48 40
        e 16 90 48 7f
        e 72 80 48 40
        e 24 90 48 7f
        e 78 80 48 40
        e 23 90 48 7f
        e 181 80 48 40
        e 3 90 46 7f
        e 206 90 45 7f
        e 3 80 46 40
        e 173 90 43 7f
        e 3 80 45 40
        e 200 90 41 7f
        e 4 80 43 40
        e 375 80 41 40
        e 13 90 4a 73
        e 158 80 4a 40
        e 14 90 4a 73
        e 185 80 4a 40
        e 18 90 4a 74
        e 272 80 4a 40
        e 11 90 48 75
        e 89 80 48 40
        e 15 90 48 75
        e 83 80 48 40
        e 3 90 46 76
        e 84 80 46 40
        e 18 90 46 76
        e 177 80 46 40
        e 2 90 41 77
        e 399 90 3f 78
        e 8 80 41 40
        e 77 90 3e 78
        e 4 80 3f 40
        e 94 90 3f 79
        e 12 80 3e 40
        e 87 80 3f 40
        e 5 90 41 79
        e 100 90 43 79
        e 3 80 41 40
        e 352 80 43 40
        e 14 90 45 7b
        e 86 80 45 40
        e 24 90 45 7b
        e 86 80 45 40
        e 8 90 48 7b
        e 182 80 48 40
        e 1 90 46 7c
        e 16 80 46 40
        e 4 90 48 7c
        e 15 90 46 7c
        e 7 80 48 40
        e 18 90 45 7c
        e 1 80 46 40
        e 22 90 46 7c
        e 8 80 45 40
        e 296 80 46 40
        E 1 b0 7b 00
        OUTCH 1
        GUID {B05C63B1-99AA-4B4E-977D-F0394B1351DA}
        IGNTEMPO 0 120 4 4
        SRCCOLOR 844
        VELLANE -1 86 6
        CFGEDITVIEW -614.4 24.659091 52 30 0 0 0 0 0 0.5
        KEYSNAP 0
        TRACKSEL 226
        EVTFILTER 0 -1 -1 -1 -1 0 1 0 0 -1 -1 -1 -1 0 -1 0 -1 -1
        CFGEDIT 1 0 0 0 0 0 1 0 1 1 1 0.25 16 63 1280 778 0 0 2 3 0 0 0 0 0 0.5 0 0 1 64
      >
      TAKE
      NAME "Melody               - National_Anthems_-_Croatia.mid"
      TAKEVOLPAN 0 1 -1
      SOFFS 0 0
      PLAYRATE 1 1 0 -1 0 0.0025
      CHANMODE 0
      GUID {4401FE61-EF20-314B-91C2-EB3FBD03FE3B}
      <SOURCE MIDI
        HASDATA 1 192 QN
        POOLEDEVTS {9FE2F638-78F1-4347-8023-18649E2D230E}
        <X 0 0 0 0 3 "Melody              "
          /wNNZWxvZHkgICAgICAgICAgICAgIA==
        >
        <X 0 0 0 0 1 "THE SOFTWARE TOOLWORKS"
          /wFUSEUgU09GVFdBUkUgVE9PTFdPUktT
        >
        <X 0 0 0 0 1 "WORLD ATLAS"
          /wFXT1JMRCBBVExBUw==
        >
        <X 0 0 0 0 1 "MultiMedia Windows Version"
          /wFNdWx0aU1lZGlhIFdpbmRvd3MgVmVyc2lvbg==
        >
        <X 0 0 0 0 1 "Country: Croatia"
          /wFDb3VudHJ5OiBDcm9hdGlh
        >
        <X 0 0 0 0 1 "Anthem Name:"
          /wFBbnRoZW0gTmFtZTo=
        >
        <X 0 0 0 0 1 "(p) (c) The Software Toolworks 1992"
          /wEocCkgKGMpIFRoZSBTb2Z0d2FyZSBUb29sd29ya3MgMTk5Mg==
        >
        <X 0 0 0 0 1 notes:
          /wFub3Rlczo=
        >
        <X 0 0 0 0 1 "date: 7-11-92"
          /wFkYXRlOiA3LTExLTky
        >
        <X 0 0 0 0 1 "edit date:"
          /wFlZGl0IGRhdGU6
        >
        <X 0 0 0 0 1 "This file provided by:"
          /wFUaGlzIGZpbGUgcHJvdmlkZWQgYnk6
        >
        <X 0 0 0 0 1 "Wallace Music & Sound, Inc."
          /wFXYWxsYWNlIE11c2ljICYgU291bmQsIEluYy4=
        >
        <X 0 0 0 0 1 "(602) 979-6210"
          /wEoNjAyKSA5NzktNjIxMA==
        >
        e 0 90 4a 73
        e 175 80 4a 40
        e 18 90 4a 73
        e 177 80 4a 40
        e 21 90 4a 74
        e 268 80 4a 40
        e 6 90 48 75
        e 90 80 48 40
        e 18 90 48 75
        e 83 80 48 40
        e 4 90 46 76
        e 84 80 46 40
        e 15 90 46 76
        e 175 80 46 40
        e 8 90 41 77
        e 383 80 41 40
        e 5 90 3f 78
        e 90 90 3e 78
        e 5 80 3f 40
        e 94 90 3f 79
        e 8 80 3e 40
        e 93 80 3f 40
        e 3 90 41 79
        e 95 90 43 79
        e 4 80 41 40
        e 41 90 45 7a
        e 3 80 43 40
        e 35 80 45 40
        e 1 90 43 7a
        e 313 80 43 40
        e 3 90 41 7b
        e 77 90 3f 7b
        e 5 80 41 40
        e 89 90 3e 7b
        e 5 80 3f 40
        e 93 90 3f 7c
        e 7 80 3e 40
        e 84 80 3f 40
        e 0 90 41 7c
        e 18 80 41 40
        e 3 90 43 7c
        e 19 90 41 7c
        e 12 80 43 40
        e 6 90 3f 7c
        e 5 80 41 40
        e 13 80 3f 40
        e 8 90 41 7c
        e 311 80 41 40
        e 3 90 4a 73
        e 180 80 4a 40
        e 16 90 4a 73
        e 177 80 4a 40
        e 13 90 4a 74
        e 280 80 4a 40
        e 3 90 48 75
        e 84 80 48 40
        e 17 90 48 75
        e 81 80 48 40
        e 2 90 46 76
        e 88 80 46 40
        e 21 90 46 76
        e 180 80 46 40
        e 1 90 41 77
        e 384 90 3f 78
        e 6 80 41 40
        e 87 90 3e 78
        e 1 80 3f 40
        e 104 90 3f 79
        e 12 80 3e 40
        e 81 80 3f 40
        e 2 90 41 79
        e 101 80 41 40
        e 2 90 43 79
        e 384 90 45 7b
        e 7 80 43 40
        e 70 80 45 40
        e 20 90 45 7b
        e 87 80 45 40
        e 4 90 48 7b
        e 192 90 46 7c
        e 7 80 48 40
        e 336 80 46 40
        e 40 90 45 7f
        e 174 80 45 40
        e 21 90 45 7f
        e 179 80 45 40
        e 18 90 45 7f
        e 271 80 45 40
        e 6 90 43 7f
        e 94 90 45 7f
        e 6 80 43 40
        e 171 80 45 40
        e 17 90 45 7f
        e 88 80 45 40
        e 4 90 46 7f
        e 92 90 48 7f
        e 7 80 46 40
        e 279 80 48 40
        e 6 90 45 7f
        e 97 80 45 40
        e 2 90 48 7f
        e 68 80 48 40
        e 20 90 48 7f
        e 89 80 48 40
        e 16 90 48 7f
        e 72 80 48 40
        e 24 90 48 7f
        e 78 80 48 40
        e 23 90 48 7f
        e 181 80 48 40
        e 3 90 46 7f
        e 206 90 45 7f
        e 3 80 46 40
        e 173 90 43 7f
        e 3 80 45 40
        e 200 90 41 7f
        e 4 80 43 40
        e 375 80 41 40
        e 13 90 4a 73
        e 158 80 4a 40
        e 14 90 4a 73
        e 185 80 4a 40
        e 18 90 4a 74
        e 272 80 4a 40
        e 11 90 48 75
        e 89 80 48 40
        e 15 90 48 75
        e 83 80 48 40
        e 3 90 46 76
        e 84 80 46 40
        e 18 90 46 76
        e 177 80 46 40
        e 2 90 41 77
        e 399 90 3f 78
        e 8 80 41 40
        e 77 90 3e 78
        e 4 80 3f 40
        e 94 90 3f 79
        e 12 80 3e 40
        e 87 80 3f 40
        e 5 90 41 79
        e 100 90 43 79
        e 3 80 41 40
        e 352 80 43 40
        e 14 90 45 7b
        e 86 80 45 40
        e 24 90 45 7b
        e 86 80 45 40
        e 8 90 48 7b
        e 182 80 48 40
        e 1 90 46 7c
        e 16 80 46 40
        e 4 90 48 7c
        e 15 90 46 7c
        e 7 80 48 40
        e 18 90 45 7c
        e 1 80 46 40
        e 22 90 46 7c
        e 8 80 45 40
        e 296 80 46 40
        E 1 b0 7b 00
        OUTCH 1
        GUID {930CF56E-69D0-7846-AD99-4EDE994564A0}
        IGNTEMPO 0 120 4 4
        SRCCOLOR 889
        VELLANE -1 86 6
        CFGEDITVIEW 0 0 52 30 0 0 0 0 0 0.5
        KEYSNAP 0
        TRACKSEL 226
        EVTFILTER 0 -1 -1 -1 -1 0 1 0 0 -1 -1 -1 -1 0 -1 0 -1 -1
        CFGEDIT 1 0 0 0 0 0 1 0 1 1 1 0.25 16 63 1280 778 0 0 2 3 0 0 0 0 0 0.5 0 0 1 64
      >
    >
  >
  <TRACK {3C494A2B-9670-9740-AD22-E42CC5065FE1}
    NAME "ch2,4 (send)"
    PEAKCOL 16576
    BEAT -1
    AUTOMODE 0
    VOLPAN 1 0 -1 -1 1
    MUTESOLO 0 0 0
    IPHASE 0
    ISBUS 0 0
    BUSCOMP 0 0
    SHOWINMIX 1 0.6667 0.5 1 0.5 0 0 0
    FREEMODE 0
    SEL 0
    REC 0 0 0 0 0 0 0
    VU 2
    MIDICTL -1 1
    TRACKHEIGHT 0 0
    INQ 0 0 0 0.5 100 0 0 100
    NCHAN 2
    FX 1
    TRACKID {3C494A2B-9670-9740-AD22-E42CC5065FE1}
    PERF 0
    MIDIOUT -1
    MAINSEND 1 0
    <FXCHAIN
      WNDRECT 32 359 724 387
      SHOW 0
      LASTSEL 0
      DOCKED 0
    >
    <ITEM
      POSITION 0
      SNAPOFFS 0
      LENGTH 32
      LOOP 1
      ALLTAKES 0
      FADEIN 1 0 0 1 0 0
      FADEOUT 1 0 0 1 0 0
      MUTE 0
      SEL 0
      YPOS 0.242424 0.05
      IGUID {E3CC3C8B-FEA7-E841-99A1-0C39900A33A2}
      IID 3
      NAME "RH Keys              - National_Anthems_-_Croatia.mid"
      VOLPAN 1 0 1 -1
      SOFFS 0 0
      PLAYRATE 1 1 0 -1 0 0.0025
      CHANMODE 0
      TAKECOLOR 26173599 B
      GUID {046C75E7-C6FC-7549-8D8F-62FD96589B48}
      <SOURCE MIDI
        HASDATA 1 192 QN
        POOLEDEVTS {2ADDB55C-7C05-0042-9433-0AEA0177460E}
        <X 0 0 0 0 3 "RH Keys             "
          /wNSSCBLZXlzICAgICAgICAgICAgIA==
        >
        e 0 90 41 63
        e 0 90 46 63
        e 0 90 4a 63
        e 178 80 41 40
        e 0 80 46 40
        e 0 80 4a 40
        e 14 90 41 63
        e 0 90 46 63
        e 0 90 4a 63
        e 178 80 41 40
        e 0 80 46 40
        e 0 80 4a 40
        e 14 90 41 63
        e 0 90 46 63
        e 0 90 4a 63
        e 178 80 41 40
        e 0 80 46 40
        e 0 80 4a 40
        e 110 90 3f 63
        e 0 90 41 63
        e 0 90 48 63
        e 82 80 3f 40
        e 0 80 41 40
        e 0 80 48 40
        e 14 90 3f 63
        e 0 90 41 63
        e 0 90 48 63
        e 82 80 3f 40
        e 0 80 41 40
        e 0 80 48 40
        e 14 90 3e 63
        e 0 90 41 63
        e 0 90 46 63
        e 82 80 3e 40
        e 0 80 41 40
        e 0 80 46 40
        e 14 90 3e 63
        e 0 90 41 63
        e 0 90 46 63
        e 178 80 3e 40
        e 0 80 41 40
        e 0 80 46 40
        e 14 90 3a 63
        e 0 90 3e 63
        e 0 90 41 63
        e 370 80 3a 40
        e 0 80 3e 40
        e 0 80 41 40
        e 14 90 3c 63
        e 0 90 3f 63
        e 82 80 3c 40
        e 0 80 3f 40
        e 14 90 3b 63
        e 0 90 3e 63
        e 82 80 3b 40
        e 0 80 3e 40
        e 14 90 3c 63
        e 0 90 3f 63
        e 82 80 3c 40
        e 0 80 3f 40
        e 14 90 3e 63
        e 0 90 41 63
        e 82 80 3e 40
        e 0 80 41 40
        e 14 90 3a 63
        e 0 90 3f 63
        e 0 90 43 63
        e 370 80 3a 40
        e 0 80 3f 40
        e 0 80 43 40
        e 14 90 3e 63
        e 0 90 41 63
        e 82 80 3e 40
        e 0 80 41 40
        e 14 90 3c 63
        e 0 90 3f 63
        e 82 80 3c 40
        e 0 80 3f 40
        e 14 90 3a 63
        e 0 90 3e 63
        e 82 80 3a 40
        e 0 80 3e 40
        e 14 90 3c 63
        e 0 90 3f 63
        e 82 80 3c 40
        e 0 80 3f 40
        e 14 90 3a 63
        e 0 90 3e 63
        e 0 90 41 63
        e 370 80 3a 40
        e 0 80 3e 40
        e 0 80 41 40
        e 14 90 41 63
        e 0 90 46 63
        e 0 90 4a 63
        e 178 80 41 40
        e 0 80 46 40
        e 0 80 4a 40
        e 14 90 41 63
        e 0 90 46 63
        e 0 90 4a 63
        e 178 80 41 40
        e 0 80 46 40
        e 0 80 4a 40
        e 14 90 41 63
        e 0 90 46 63
        e 0 90 4a 63
        e 274 80 41 40
        e 0 80 46 40
        e 0 80 4a 40
        e 14 90 3f 63
        e 0 90 41 63
        e 0 90 48 63
        e 82 80 3f 40
        e 0 80 41 40
        e 0 80 48 40
        e 14 90 3f 63
        e 0 90 41 63
        e 0 90 48 63
        e 82 80 3f 40
        e 0 80 41 40
        e 0 80 48 40
        e 14 90 3e 63
        e 0 90 41 63
        e 0 90 46 63
        e 82 80 3e 40
        e 0 80 41 40
        e 0 80 46 40
        e 14 90 3e 63
        e 0 90 41 63
        e 0 90 46 63
        e 178 80 3e 40
        e 0 80 41 40
        e 0 80 46 40
        e 14 90 3a 63
        e 0 90 3e 63
        e 0 90 41 63
        e 370 80 3a 40
        e 0 80 3e 40
        e 0 80 41 40
        e 14 90 3c 63
        e 0 90 3f 63
        e 82 80 3c 40
        e 0 80 3f 40
        e 14 90 3b 63
        e 0 90 3e 63
        e 82 80 3b 40
        e 0 80 3e 40
        e 14 90 3c 63
        e 0 90 3f 63
        e 82 80 3c 40
        e 0 80 3f 40
        e 14 90 3e 63
        e 0 90 41 63
        e 82 80 3e 40
        e 0 80 41 40
        e 14 90 3a 63
        e 0 90 3f 63
        e 0 90 43 63
        e 370 80 3a 40
        e 0 80 3f 40
        e 0 80 43 40
        e 14 90 3c 63
        e 0 90 3f 63
        e 0 90 45 63
        e 82 80 3c 40
        e 0 80 3f 40
        e 0 80 45 40
        e 14 90 3c 63
        e 0 90 3f 63
        e 0 90 45 63
        e 82 80 3c 40
        e 0 80 3f 40
        e 0 80 45 40
        e 14 90 3f 63
        e 0 90 41 63
        e 0 90 48 63
        e 178 80 3f 40
        e 0 80 41 40
        e 0 80 48 40
        e 14 90 3e 63
        e 0 90 41 63
        e 0 90 46 63
        e 370 80 3e 40
        e 0 80 41 40
        e 0 80 46 40
        e 14 90 3c 63
        e 0 90 41 63
        e 0 90 45 63
        e 178 80 3c 40
        e 0 80 41 40
        e 0 80 45 40
        e 14 90 3c 63
        e 0 90 41 63
        e 0 90 45 63
        e 178 80 3c 40
        e 0 80 41 40
        e 0 80 45 40
        e 14 90 3c 63
        e 0 90 41 63
        e 0 90 45 63
        e 274 80 3c 40
        e 0 80 41 40
        e 0 80 45 40
        e 14 90 3a 63
        e 0 90 3c 63
        e 0 90 43 63
        e 82 80 3a 40
        e 0 80 3c 40
        e 0 80 43 40
        e 14 90 3c 63
        e 0 90 41 63
        e 0 90 45 63
        e 178 80 3c 40
        e 0 80 41 40
        e 0 80 45 40
        e 14 90 3c 63
        e 0 90 3f 63
        e 0 90 41 63
        e 0 90 45 63
        e 82 80 3c 40
        e 0 80 3f 40
        e 0 80 41 40
        e 0 80 45 40
        e 14 90 3e 63
        e 0 90 43 63
        e 0 90 46 63
        e 82 80 3e 40
        e 0 80 43 40
        e 0 80 46 40
        e 14 90 3c 63
        e 0 90 41 63
        e 0 90 45 63
        e 0 90 48 63
        e 274 80 3c 40
        e 0 80 41 40
        e 0 80 45 40
        e 0 80 48 40
        e 14 90 3c 63
        e 0 90 41 63
        e 0 90 45 63
        e 82 80 3c 40
        e 0 80 41 40
        e 0 80 45 40
        e 14 90 41 63
        e 0 90 45 63
        e 0 90 48 63
        e 82 80 41 40
        e 0 80 45 40
        e 0 80 48 40
        e 14 90 41 63
        e 0 90 45 63
        e 0 90 48 63
        e 82 80 41 40
        e 0 80 45 40
        e 0 80 48 40
        e 14 90 41 63
        e 0 90 45 63
        e 0 90 48 63
        e 82 80 41 40
        e 0 80 45 40
        e 0 80 48 40
        e 14 90 41 63
        e 0 90 45 63
        e 0 90 48 63
        e 82 80 41 40
        e 0 80 45 40
        e 0 80 48 40
        e 14 90 42 63
        e 0 90 45 63
        e 0 90 48 63
        e 178 80 42 40
        e 0 80 45 40
        e 0 80 48 40
        e 14 90 3e 63
        e 0 90 43 63
        e 0 90 46 63
        e 178 80 3e 40
        e 0 80 43 40
        e 0 80 46 40
        e 14 90 3c 63
        e 0 90 41 63
        e 0 90 45 63
        e 178 80 3c 40
        e 0 80 41 40
        e 0 80 45 40
        e 14 90 3a 63
        e 0 90 40 63
        e 0 90 43 63
        e 178 80 3a 40
        e 0 80 40 40
        e 0 80 43 40
        e 14 90 39 63
        e 0 90 3c 63
        e 0 90 41 63
        e 370 80 39 40
        e 0 80 3c 40
        e 0 80 41 40
        e 14 90 41 63
        e 0 90 46 63
        e 0 90 4a 63
        e 178 80 41 40
        e 0 80 46 40
        e 0 80 4a 40
        e 14 90 41 63
        e 0 90 46 63
        e 0 90 4a 63
        e 178 80 41 40
        e 0 80 46 40
        e 0 80 4a 40
        e 14 90 41 63
        e 0 90 46 63
        e 0 90 4a 63
        e 274 80 41 40
        e 0 80 46 40
        e 0 80 4a 40
        e 14 90 3f 63
        e 0 90 41 63
        e 0 90 48 63
        e 82 80 3f 40
        e 0 80 41 40
        e 0 80 48 40
        e 14 90 3f 63
        e 0 90 41 63
        e 0 90 48 63
        e 82 80 3f 40
        e 0 80 41 40
        e 0 80 48 40
        e 14 90 3e 63
        e 0 90 41 63
        e 0 90 46 63
        e 82 80 3e 40
        e 0 80 41 40
        e 0 80 46 40
        e 14 90 3e 63
        e 0 90 41 63
        e 0 90 46 63
        e 178 80 3e 40
        e 0 80 41 40
        e 0 80 46 40
        e 14 90 3a 63
        e 0 90 3e 63
        e 0 90 41 63
        e 370 80 3a 40
        e 0 80 3e 40
        e 0 80 41 40
        e 14 90 3c 63
        e 0 90 3f 63
        e 82 80 3c 40
        e 0 80 3f 40
        e 14 90 3b 63
        e 0 90 3e 63
        e 82 80 3b 40
        e 0 80 3e 40
        e 14 90 3c 63
        e 0 90 3f 63
        e 82 80 3c 40
        e 0 80 3f 40
        e 14 90 3e 63
        e 0 90 41 63
        e 82 80 3e 40
        e 0 80 41 40
        e 14 90 3a 63
        e 0 90 3f 63
        e 0 90 43 63
        e 370 80 3a 40
        e 0 80 3f 40
        e 0 80 43 40
        e 14 90 3c 63
        e 0 90 41 63
        e 0 90 45 63
        e 82 80 3c 40
        e 0 80 41 40
        e 0 80 45 40
        e 14 90 3c 63
        e 0 90 41 63
        e 0 90 45 63
        e 82 80 3c 40
        e 0 80 41 40
        e 0 80 45 40
        e 14 90 3f 63
        e 0 90 41 63
        e 0 90 48 63
        e 178 80 3f 40
        e 0 80 41 40
        e 0 80 48 40
        e 14 90 3e 63
        e 0 90 41 63
        e 0 90 46 63
        e 370 80 3e 40
        e 0 80 41 40
        e 0 80 46 40
        E 14 b0 7b 00
        GUID {0B58148B-53FE-4947-90DE-3A705AAFDE5A}
        IGNTEMPO 0 120 4 4
        SRCCOLOR 846
        VELLANE -1 86 6
        CFGEDITVIEW -585.6 25.871833 54 13 0 0 0 0 0 0.5
        KEYSNAP 0
        TRACKSEL 226
        EVTFILTER 0 -1 -1 -1 -1 0 1 0 0 -1 -1 -1 -1 0 -1 0 -1 -1
        CFGEDIT 1 0 0 0 0 0 1 0 1 1 1 0.25 16 63 1280 778 0 0 2 3 0 0 0 0 0 0.5 0 0 1 64
      >
      TAKE
      NAME "RH Keys              - National_Anthems_-_Croatia.mid"
      TAKEVOLPAN 0 1 -1
      SOFFS 0 0
      PLAYRATE 1 1 0 -1 0 0.0025
      CHANMODE 0
      GUID {4894426C-0EFC-7646-B1C2-B8EB9FE46D77}
      <SOURCE MIDI
        HASDATA 1 192 QN
        POOLEDEVTS {F2DF1DAD-F95C-E74D-8886-9723518530F3}
        <X 0 0 0 0 3 "RH Keys             "
          /wNSSCBLZXlzICAgICAgICAgICAgIA==
        >
        e 0 90 41 63
        e 0 90 46 63
        e 0 90 4a 63
        e 178 80 41 40
        e 0 80 46 40
        e 0 80 4a 40
        e 14 90 41 63
        e 0 90 46 63
        e 0 90 4a 63
        e 178 80 41 40
        e 0 80 46 40
        e 0 80 4a 40
        e 14 90 41 63
        e 0 90 46 63
        e 0 90 4a 63
        e 178 80 41 40
        e 0 80 46 40
        e 0 80 4a 40
        e 110 90 3f 63
        e 0 90 41 63
        e 0 90 48 63
        e 82 80 3f 40
        e 0 80 41 40
        e 0 80 48 40
        e 14 90 3f 63
        e 0 90 41 63
        e 0 90 48 63
        e 82 80 3f 40
        e 0 80 41 40
        e 0 80 48 40
        e 14 90 3e 63
        e 0 90 41 63
        e 0 90 46 63
        e 82 80 3e 40
        e 0 80 41 40
        e 0 80 46 40
        e 14 90 3e 63
        e 0 90 41 63
        e 0 90 46 63
        e 178 80 3e 40
        e 0 80 41 40
        e 0 80 46 40
        e 14 90 3a 63
        e 0 90 3e 63
        e 0 90 41 63
        e 370 80 3a 40
        e 0 80 3e 40
        e 0 80 41 40
        e 14 90 3c 63
        e 0 90 3f 63
        e 82 80 3c 40
        e 0 80 3f 40
        e 14 90 3b 63
        e 0 90 3e 63
        e 82 80 3b 40
        e 0 80 3e 40
        e 14 90 3c 63
        e 0 90 3f 63
        e 82 80 3c 40
        e 0 80 3f 40
        e 14 90 3e 63
        e 0 90 41 63
        e 82 80 3e 40
        e 0 80 41 40
        e 14 90 3a 63
        e 0 90 3f 63
        e 0 90 43 63
        e 370 80 3a 40
        e 0 80 3f 40
        e 0 80 43 40
        e 14 90 3e 63
        e 0 90 41 63
        e 82 80 3e 40
        e 0 80 41 40
        e 14 90 3c 63
        e 0 90 3f 63
        e 82 80 3c 40
        e 0 80 3f 40
        e 14 90 3a 63
        e 0 90 3e 63
        e 82 80 3a 40
        e 0 80 3e 40
        e 14 90 3c 63
        e 0 90 3f 63
        e 82 80 3c 40
        e 0 80 3f 40
        e 14 90 3a 63
        e 0 90 3e 63
        e 0 90 41 63
        e 370 80 3a 40
        e 0 80 3e 40
        e 0 80 41 40
        e 14 90 41 63
        e 0 90 46 63
        e 0 90 4a 63
        e 178 80 41 40
        e 0 80 46 40
        e 0 80 4a 40
        e 14 90 41 63
        e 0 90 46 63
        e 0 90 4a 63
        e 178 80 41 40
        e 0 80 46 40
        e 0 80 4a 40
        e 14 90 41 63
        e 0 90 46 63
        e 0 90 4a 63
        e 274 80 41 40
        e 0 80 46 40
        e 0 80 4a 40
        e 14 90 3f 63
        e 0 90 41 63
        e 0 90 48 63
        e 82 80 3f 40
        e 0 80 41 40
        e 0 80 48 40
        e 14 90 3f 63
        e 0 90 41 63
        e 0 90 48 63
        e 82 80 3f 40
        e 0 80 41 40
        e 0 80 48 40
        e 14 90 3e 63
        e 0 90 41 63
        e 0 90 46 63
        e 82 80 3e 40
        e 0 80 41 40
        e 0 80 46 40
        e 14 90 3e 63
        e 0 90 41 63
        e 0 90 46 63
        e 178 80 3e 40
        e 0 80 41 40
        e 0 80 46 40
        e 14 90 3a 63
        e 0 90 3e 63
        e 0 90 41 63
        e 370 80 3a 40
        e 0 80 3e 40
        e 0 80 41 40
        e 14 90 3c 63
        e 0 90 3f 63
        e 82 80 3c 40
        e 0 80 3f 40
        e 14 90 3b 63
        e 0 90 3e 63
        e 82 80 3b 40
        e 0 80 3e 40
        e 14 90 3c 63
        e 0 90 3f 63
        e 82 80 3c 40
        e 0 80 3f 40
        e 14 90 3e 63
        e 0 90 41 63
        e 82 80 3e 40
        e 0 80 41 40
        e 14 90 3a 63
        e 0 90 3f 63
        e 0 90 43 63
        e 370 80 3a 40
        e 0 80 3f 40
        e 0 80 43 40
        e 14 90 3c 63
        e 0 90 3f 63
        e 0 90 45 63
        e 82 80 3c 40
        e 0 80 3f 40
        e 0 80 45 40
        e 14 90 3c 63
        e 0 90 3f 63
        e 0 90 45 63
        e 82 80 3c 40
        e 0 80 3f 40
        e 0 80 45 40
        e 14 90 3f 63
        e 0 90 41 63
        e 0 90 48 63
        e 178 80 3f 40
        e 0 80 41 40
        e 0 80 48 40
        e 14 90 3e 63
        e 0 90 41 63
        e 0 90 46 63
        e 370 80 3e 40
        e 0 80 41 40
        e 0 80 46 40
        e 14 90 3c 63
        e 0 90 41 63
        e 0 90 45 63
        e 178 80 3c 40
        e 0 80 41 40
        e 0 80 45 40
        e 14 90 3c 63
        e 0 90 41 63
        e 0 90 45 63
        e 178 80 3c 40
        e 0 80 41 40
        e 0 80 45 40
        e 14 90 3c 63
        e 0 90 41 63
        e 0 90 45 63
        e 274 80 3c 40
        e 0 80 41 40
        e 0 80 45 40
        e 14 90 3a 63
        e 0 90 3c 63
        e 0 90 43 63
        e 82 80 3a 40
        e 0 80 3c 40
        e 0 80 43 40
        e 14 90 3c 63
        e 0 90 41 63
        e 0 90 45 63
        e 178 80 3c 40
        e 0 80 41 40
        e 0 80 45 40
        e 14 90 3c 63
        e 0 90 3f 63
        e 0 90 41 63
        e 0 90 45 63
        e 82 80 3c 40
        e 0 80 3f 40
        e 0 80 41 40
        e 0 80 45 40
        e 14 90 3e 63
        e 0 90 43 63
        e 0 90 46 63
        e 82 80 3e 40
        e 0 80 43 40
        e 0 80 46 40
        e 14 90 3c 63
        e 0 90 41 63
        e 0 90 45 63
        e 0 90 48 63
        e 274 80 3c 40
        e 0 80 41 40
        e 0 80 45 40
        e 0 80 48 40
        e 14 90 3c 63
        e 0 90 41 63
        e 0 90 45 63
        e 82 80 3c 40
        e 0 80 41 40
        e 0 80 45 40
        e 14 90 41 63
        e 0 90 45 63
        e 0 90 48 63
        e 82 80 41 40
        e 0 80 45 40
        e 0 80 48 40
        e 14 90 41 63
        e 0 90 45 63
        e 0 90 48 63
        e 82 80 41 40
        e 0 80 45 40
        e 0 80 48 40
        e 14 90 41 63
        e 0 90 45 63
        e 0 90 48 63
        e 82 80 41 40
        e 0 80 45 40
        e 0 80 48 40
        e 14 90 41 63
        e 0 90 45 63
        e 0 90 48 63
        e 82 80 41 40
        e 0 80 45 40
        e 0 80 48 40
        e 14 90 42 63
        e 0 90 45 63
        e 0 90 48 63
        e 178 80 42 40
        e 0 80 45 40
        e 0 80 48 40
        e 14 90 3e 63
        e 0 90 43 63
        e 0 90 46 63
        e 178 80 3e 40
        e 0 80 43 40
        e 0 80 46 40
        e 14 90 3c 63
        e 0 90 41 63
        e 0 90 45 63
        e 178 80 3c 40
        e 0 80 41 40
        e 0 80 45 40
        e 14 90 3a 63
        e 0 90 40 63
        e 0 90 43 63
        e 178 80 3a 40
        e 0 80 40 40
        e 0 80 43 40
        e 14 90 39 63
        e 0 90 3c 63
        e 0 90 41 63
        e 370 80 39 40
        e 0 80 3c 40
        e 0 80 41 40
        e 14 90 41 63
        e 0 90 46 63
        e 0 90 4a 63
        e 178 80 41 40
        e 0 80 46 40
        e 0 80 4a 40
        e 14 90 41 63
        e 0 90 46 63
        e 0 90 4a 63
        e 178 80 41 40
        e 0 80 46 40
        e 0 80 4a 40
        e 14 90 41 63
        e 0 90 46 63
        e 0 90 4a 63
        e 274 80 41 40
        e 0 80 46 40
        e 0 80 4a 40
        e 14 90 3f 63
        e 0 90 41 63
        e 0 90 48 63
        e 82 80 3f 40
        e 0 80 41 40
        e 0 80 48 40
        e 14 90 3f 63
        e 0 90 41 63
        e 0 90 48 63
        e 82 80 3f 40
        e 0 80 41 40
        e 0 80 48 40
        e 14 90 3e 63
        e 0 90 41 63
        e 0 90 46 63
        e 82 80 3e 40
        e 0 80 41 40
        e 0 80 46 40
        e 14 90 3e 63
        e 0 90 41 63
        e 0 90 46 63
        e 178 80 3e 40
        e 0 80 41 40
        e 0 80 46 40
        e 14 90 3a 63
        e 0 90 3e 63
        e 0 90 41 63
        e 370 80 3a 40
        e 0 80 3e 40
        e 0 80 41 40
        e 14 90 3c 63
        e 0 90 3f 63
        e 82 80 3c 40
        e 0 80 3f 40
        e 14 90 3b 63
        e 0 90 3e 63
        e 82 80 3b 40
        e 0 80 3e 40
        e 14 90 3c 63
        e 0 90 3f 63
        e 82 80 3c 40
        e 0 80 3f 40
        e 14 90 3e 63
        e 0 90 41 63
        e 82 80 3e 40
        e 0 80 41 40
        e 14 90 3a 63
        e 0 90 3f 63
        e 0 90 43 63
        e 370 80 3a 40
        e 0 80 3f 40
        e 0 80 43 40
        e 14 90 3c 63
        e 0 90 41 63
        e 0 90 45 63
        e 82 80 3c 40
        e 0 80 41 40
        e 0 80 45 40
        e 14 90 3c 63
        e 0 90 41 63
        e 0 90 45 63
        e 82 80 3c 40
        e 0 80 41 40
        e 0 80 45 40
        e 14 90 3f 63
        e 0 90 41 63
        e 0 90 48 63
        e 178 80 3f 40
        e 0 80 41 40
        e 0 80 48 40
        e 14 90 3e 63
        e 0 90 41 63
        e 0 90 46 63
        e 370 80 3e 40
        e 0 80 41 40
        e 0 80 46 40
        E 14 b0 7b 00
        GUID {4BA5B440-8D1E-5046-80C3-353D8BCE677B}
        IGNTEMPO 0 120 4 4
        SRCCOLOR 888
        VELLANE -1 86 6
        CFGEDITVIEW 0 0 54 13 0 0 0 0 0 0.5
        KEYSNAP 0
        TRACKSEL 226
        EVTFILTER 0 -1 -1 -1 -1 0 1 0 0 -1 -1 -1 -1 0 -1 0 -1 -1
        CFGEDIT 1 0 0 0 0 0 1 0 1 1 1 0.25 16 63 1280 778 0 0 2 3 0 0 0 0 0 0.5 0 0 1 64
      >
    >
  >
  <TRACK {EF869DFD-FA85-EE4D-A133-ABEE14D1B7D0}
    NAME "ch5 (send bass)"
    PEAKCOL 16576
    BEAT -1
    AUTOMODE 0
    VOLPAN 1 0 -1 -1 1
    MUTESOLO 0 0 0
    IPHASE 0
    ISBUS 2 -1
    BUSCOMP 0 0
    SHOWINMIX 1 0.6667 0.5 1 0.5 0 0 0
    FREEMODE 0
    SEL 0
    REC 0 0 0 0 0 0 0
    VU 2
    TRACKHEIGHT 0 0
    INQ 0 0 0 0.5 100 0 0 100
    NCHAN 2
    FX 1
    TRACKID {EF869DFD-FA85-EE4D-A133-ABEE14D1B7D0}
    PERF 0
    MIDIOUT -1
    MAINSEND 1 0
  >
  <TRACK {97C14EE2-C273-C940-9D68-54C062C3CBCA}
    NAME ChipFront
    PEAKCOL 16576
    BEAT -1
    AUTOMODE 0
    VOLPAN 0.49866990604774 0 -1 -1 1
    MUTESOLO 0 0 0
    IPHASE 0
    ISBUS 0 0
    BUSCOMP 0 0
    SHOWINMIX 1 0.6667 0.5 1 0.5 0 0 0
    FREEMODE 0
    SEL 0
    REC 0 0 0 0 0 0 0
    VU 2
    TRACKHEIGHT 0 0
    INQ 0 0 0 0.5 100 0 0 100
    NCHAN 2
    FX 1
    TRACKID {97C14EE2-C273-C940-9D68-54C062C3CBCA}
    PERF 0
    AUXRECV 6 0 1 0 0 0 0 0 0 -1:U 0 -1 ''
    MIDIOUT -1
    MAINSEND 1 0
    <FXCHAIN
      SHOW 0
      LASTSEL 0
      DOCKED 0
      BYPASS 0 0 0
      <VST "VST: FabFilter Volcano 2 (SC) (FabFilter)" "FabFilter Volcano 2 (SC).vst" 0 "" 1180054068
        NDJWRu9e7f4EAAAAAQAAAAAAAAACAAAAAAAAAAQAAAAAAAAACAAAAAAAAAAEAAAAAQAAAAAAAAACAAAAAAAAAAQAAAAAAAAACAAAAAAAAADcCwAAAAAAAAAAEAA=
        776t3g3wrd4AAAA/AAAAPwAAAD8AAAA/AACAPwAAAAAAAAA/q6qqPq2+aD8AAAA/ig0yPM3MzD0AAAAAAAAAAAAAAAAAAIA/AACAP0Isdj8AAAA/bbDgPZqZGT8AAAAA
        AAAAAOev3zwAAIA/AAAAAAAAgD8AAAA/AAAAAJqZGT8AAAAAAAAAAAAAAAAAAIA/AAAAAAAAgD8AAAA/AAAAAJqZGT8AAAAAAAAAAAAAAAAAAIA/AAAAAKuqqj4ATrI+
        AAAAPwAAAADBykk/XXRRPwAAAACJiIg9AACAP6oXiD4AAAAAAAAAAAAAAAAAAAAAAACAPwAAAAAAAAA/AAAAAAAAAAAAAAAAAAAAPwAAAAAAAAAAAAAAAAAAAD8AAAAA
        AAAAAAAAAAAAAAA/AAAAAAAAAAAAAAAAAAAAPwAAAAAAAAAAAAAAAAAAAD8AAAAAAAAAAAAAAAAAAAA/AAAAAAAAAAAAAAAAAAAAPwAAAAAAAAAAAAAAAAAAAD8AAAAA
        AAAAAAAAAAAAAAA/AAAAAAAAAAAAAAAAAAAAPwAAAAAAAAAAAAAAAAAAAD8AAAAAAAAAAAAAAAAAAAA/AAAAAAAAAAAAAAAAAAAAPwAAAAAAAAAAAAAAAHwZED4AAAA/
        KKO3PQAAgD8AAAAAAAAAAImIiD3y0iU/AAAAAAAAgD8AAAAAdGjRPQAAAAAAAIA/AAAAAAAAAD8AAAAAAAAAAAAAAAAAAAA/AAAAAAAAAAAAAAAAAAAAPwAAAAAAAAAA
        AAAAAAAAAD8AAAAAAAAAAAAAAAAAAAA/AAAAAAAAAAAAAAAAAAAAPwAAAAAAAAAAAAAAAAAAAD8AAAAAAAAAAAAAAAAAAAA/AAAAAAAAAAAAAAAAAAAAPwAAAAAAAAAA
        AAAAAAAAAD8AAAAAAAAAAAAAAAAAAAA/AAAAAAAAAAAAAAAAAAAAPwAAAAAAAAAAAAAAAAAAAD8AAAAAAAAAAAAAAAAAAAA/AAAAAAAAAAAAAAAAvvR9PgAAAD8AAAA/
        AAAAPwAAAAAAAAAAiYiIPQAAAD8AAAAAAAAAAAAAAAAAAAA/AAAAAAAAAAAAAAAAAAAAPwAAAAAAAAAAAAAAAAAAAD8AAAAAAAAAAAAAAAAAAAA/AAAAAAAAAAAAAAAA
        AAAAPwAAAAAAAAAAAAAAAAAAAD8AAAAAAAAAAAAAAAAAAAA/AAAAAAAAAAAAAAAAAAAAPwAAAAAAAAAAAAAAAAAAAD8AAAAAAAAAAAAAAAAAAAA/AAAAAAAAAAAAAAAA
        AAAAPwAAAAAAAAAAAAAAAAAAAD8AAAAAAAAAAAAAAAAAAAA/AAAAAAAAAAAAAAAAAAAAPwAAAAAAAAAAAAAAAAAAAD8AAAAAAAAAAAAAAAC+9H0+AAAAPwAAAD8AAAA/
        AAAAAAAAAACJiIg9AAAAPwAAAAAAAAAAAAAAAAAAAD8AAAAAAAAAAAAAAAAAAAA/AAAAAAAAAAAAAAAAAAAAPwAAAAAAAAAAAAAAAAAAAD8AAAAAAAAAAAAAAAAAAAA/
        AAAAAAAAAAAAAAAAAAAAPwAAAAAAAAAAAAAAAAAAAD8AAAAAAAAAAAAAAAAAAAA/AAAAAAAAAAAAAAAAAAAAPwAAAAAAAAAAAAAAAAAAAD8AAAAAAAAAAAAAAAAAAAA/
        AAAAAAAAAAAAAAAAAAAAPwAAAAAAAAAAAAAAAAAAAD8AAAAAAAAAAAAAAAAAAAA/AAAAAAAAAAAAAAAAAAAAPwAAAAAAAAAAAAAAAL70fT4AAAA/AAAAPwAAAD8AAAAA
        AAAAAImIiD0AAAA/AAAAAAAAAAAAAAAAAAAAPwAAAAAAAAAAAAAAAAAAAD8AAAAAAAAAAAAAAAAAAAA/AAAAAAAAAAAAAAAAAAAAPwAAAAAAAAAAAAAAAAAAAD8AAAAA
        AAAAAAAAAAAAAAA/AAAAAAAAAAAAAAAAAAAAPwAAAAAAAAAAAAAAAAAAAD8AAAAAAAAAAAAAAAAAAAA/AAAAAAAAAAAAAAAAAAAAPwAAAAAAAAAAAAAAAAAAAD8AAAAA
        AAAAAAAAAAAAAAA/AAAAAAAAAAAAAAAAAAAAPwAAAAAAAAAAAAAAAAAAAD8AAAAAAAAAAAAAAAAAAAA/AAAAAAAAAAAAAAAAvvR9PgAAAD8AAAA/AAAAPwAAAAAAAAAA
        iYiIPQAAAD8AAAAAAAAAAAAAAAAAAAA/AAAAAAAAAAAAAAAAAAAAPwAAAAAAAAAAAAAAAAAAAD8AAAAAAAAAAAAAAAAAAAA/AAAAAAAAAAAAAAAAAAAAPwAAAAAAAAAA
        AAAAAAAAAD8AAAAAAAAAAAAAAAAAAAA/AAAAAAAAAAAAAAAAAAAAPwAAAAAAAAAAAAAAAAAAAD8AAAAAAAAAAAAAAAAAAAA/AAAAAAAAAAAAAAAAAAAAPwAAAAAAAAAA
        AAAAAAAAAD8AAAAAAAAAAAAAAAAAAAA/AAAAAAAAAAAAAAAAAAAAPwAAAAAAAAAAAAAAAAAAAD8AAAAAAAAAAAAAAAAAAAAAmpmZPgAAAAAAAAAAAAAAAAAAgD8AAAAA
        mpmZPgAAAAAAAAAAAAAAAAAAgD8AAAAAmpmZPgAAAAAAAAAAAAAAAAAAgD8AAAAAmpmZPgAAAAAAAAAAAAAAAAAAgD8AAAAAmpmZPgAAAAAAAAAAAAAAAAAAgD8AAAAA
        mpmZPgAAAAAAAAAAAAAAAAAAgD8AAAAAAAAAAAAAAAAAAAAAAAAAAAAAAAAAAAAAAAAAAAAAAAAAAAAAAAAAAAAAAAAAAAAAAAAAAAAAAAAAAAAAAAAAAAAAAAAAAAAA
        AAAAAAAAAAAAAAAAAAAAAAAAAAAAAAAAAAAAAAAAAAAAAAAAAAAAAAAAAAAAAAAAAAAAAAAAAAAAAAAAAAAAAAAAAAAAAAAAAAAAAKuqKj3ZiZ09gShWPgAAAAAAAAAA
        v+eWPQAAAAAAAAA/AAAAAAAAAAAAAAAAAAAAAAAAAD8AAAAAAAAAAAAAAAAAAAAAAAAAPwAAAAAAAAAAAAAAAAAAAAAAAAAAAAAAAAAAAAAAAAAAAAAAAAAAAAAAAAAA
        AAAAAAAAAAAAAAAAAAAAAAAAAAAAAAAAAAAAAAAAAAAAAAAAAAAAAAAAAAAAAAAAAAAAAAAAAAAAAAAAAAAAAAAAAAAAAAAAAAAAAAAAAAAAAAAAAAAAAAAAAAAAAAAA
        AAAAAAAAAAAAAAAAAAAAAAAAAAAAAAAAAAAAAAAAAAAAAAAAAAAAAAAAAAAAAAAAAAAAAAAAAAAAAAAAAAAAAAAAAAAAAAAAAAAAAAAAAAAAAAAAAAAAAAAAAAAAAAAA
        AAAAAAAAAAAAAAAAAAAAAAAAAAAAAAAAAAAAAAAAAAAAAAAAAAAAAAAAAAAAAAAAAAAAAAAAAAAAAAAAAAAAAAAAAAAAAAAAAAAAAAAAAAAAAAAAAAAAAAAAAAAAAAAA
        AAAAAAAAAAAAAAAAAAAAAAAAAAAAAAAAAAAAAAAAAAAAAAAAAAAAAAAAAAAAAAAAAAAAAAAAAAAAAAAAAAAAAAAAAAAAAAAAAAAAAAAAAAAAAAAAAAAAPwAAAD8AAAA/
        AAAAPwAAAD8AAAA/AAAAPwAAAD8AAAAAAAAAAAAAAAAAAAAAAAAAAAAAAAAAAAAAAAAAAAAAAAAAAAAAAAAAAAAAAAAAAAAAAAAAAAAAAAAAAAAAAAAAAAAAAAAAAAAA
        AAAAAAAAAAAAAAAAAAAAAAAAAAAAAAAAAAAAAAAAAAAAAAAAAAAAAAAAAAAAAAAAAAAAAAAAAAAAAAAAAAAAAAAAAAAAAAAAAAAAAAAAAAAAAAAAAAAAAAAAAAAAAAAA
        AAAAAAAAAAAAAAAAAAAAAAAAAAAAAAAAAAAAAAAAAAAAAAAAAAAAAAAAAAAAAAAAAAAAAAAAAAAAAAAAAAAAAAAAAAAAAAAAAAAAAAAAAAAAAAAAAAAAAAAAAAAAAAAA
        AAAAAAAAAAAAAAAAAAAAAAAAAAAAAAAAAAAAAAAAAAAAAAAAAAAAAAAAAAAAAAAAAAAAAAAAAAAAAAAA
        Q2hpcEZyb250AENoaXBGcm9udAAQAAAA
      >
      PRESETNAME ChipFront
      FLOATPOS 36 32 641 529
      FXID {4C5A6810-F3ED-0645-A06D-6758F70CB097}
      WAK 0
    >
  >
  <TRACK {1B564899-9ACC-8C4B-8FBF-925A5A247A13}
    NAME ChipSide
    PEAKCOL 16576
    BEAT -1
    AUTOMODE 0
    VOLPAN 0.49866990604774 0 -1 -1 1
    MUTESOLO 0 0 0
    IPHASE 0
    ISBUS 0 0
    BUSCOMP 0 0
    SHOWINMIX 1 0.6667 0.5 1 0.5 0 0 0
    FREEMODE 0
    SEL 0
    REC 0 0 0 0 0 0 0
    VU 2
    TRACKHEIGHT 0 0
    INQ 0 0 0 0.5 100 0 0 100
    NCHAN 2
    FX 1
    TRACKID {1B564899-9ACC-8C4B-8FBF-925A5A247A13}
    PERF 0
    AUXRECV 6 0 1.03113579563571 0 0 0 0 2 0 -1:U 0 -1 ''
    MIDIOUT -1
    MAINSEND 1 0
    <FXCHAIN
      SHOW 0
      LASTSEL 0
      DOCKED 0
      BYPASS 0 0 0
      <VST "VST: FabFilter Volcano 2 (SC) (FabFilter)" "FabFilter Volcano 2 (SC).vst" 0 "" 1180054068
        NDJWRu9e7f4EAAAAAQAAAAAAAAACAAAAAAAAAAQAAAAAAAAACAAAAAAAAAAIAAAAAQAAAAAAAAACAAAAAAAAAAQAAAAAAAAACAAAAAAAAAAQAAAAAAAAACAAAAAAAAAA
        QAAAAAAAAACAAAAAAAAAANwLAAAAAAAAAAAQAA==
        776t3g3wrd4AAAA/AAAAPwAAAD8AAAA/AACAPwAAAAAAAIA/q6qqPsplFD8AAAA/TxqgPc3MzD0AAAAAAAAAAEKGIj8AAIA/AACAP0Isdj8AAAA/bbDgPZqZGT8AAAAA
        AAAAAOev3zwAAIA/AAAAAAAAgD8AAAA/AAAAAJqZGT8AAAAAAAAAAAAAAAAAAIA/AAAAAAAAgD8AAAA/AAAAAJqZGT8AAAAAAAAAAAAAAAAAAIA/AAAAAKuqqj6CdAA9
        EObJPZgn+j4AAIA/AAAAAAAAAACJiAg+AACAP7PDtD4AAIA/AAAAAAAAAAAAAAAAq6qqPgAAAACeFR0/AAAAAAAAgD8AAAAAAAAAPwAAAAAAAAAAAAAAAAAAAD8AAAAA
        AAAAAAAAAAAAAAA/AAAAAAAAAAAAAAAAAAAAPwAAAAAAAAAAAAAAAAAAAD8AAAAAAAAAAAAAAAAAAAA/AAAAAAAAAAAAAAAAAAAAPwAAAAAAAAAAAAAAAAAAAD8AAAAA
        AAAAAAAAAAAAAAA/AAAAAAAAAAAAAAAAAAAAPwAAAAAAAAAAAAAAAAAAAD8AAAAAAAAAAAAAAAAAAAA/AAAAAAAAAAAAAAAAAAAAPwAAAAAAAAAAAAAAAHwZED4AAAA/
        KKO3PQAAgD8AAAAAAAAAAImIiD3y0iU/AAAAAAAAgD8AAAAAdGjRPQAAAAAAAIA/AAAAAAAAAD8AAAAAAAAAAAAAAAAAAAA/AAAAAAAAAAAAAAAAAAAAPwAAAAAAAAAA
        AAAAAAAAAD8AAAAAAAAAAAAAAAAAAAA/AAAAAAAAAAAAAAAAAAAAPwAAAAAAAAAAAAAAAAAAAD8AAAAAAAAAAAAAAAAAAAA/AAAAAAAAAAAAAAAAAAAAPwAAAAAAAAAA
        AAAAAAAAAD8AAAAAAAAAAAAAAAAAAAA/AAAAAAAAAAAAAAAAAAAAPwAAAAAAAAAAAAAAAAAAAD8AAAAAAAAAAAAAAAAAAAA/AAAAAAAAAAAAAAAAvvR9PgAAAD8AAAA/
        AAAAPwAAAAAAAAAAiYiIPQAAAD8AAAAAAAAAAAAAAAAAAAA/AAAAAAAAAAAAAAAAAAAAPwAAAAAAAAAAAAAAAAAAAD8AAAAAAAAAAAAAAAAAAAA/AAAAAAAAAAAAAAAA
        AAAAPwAAAAAAAAAAAAAAAAAAAD8AAAAAAAAAAAAAAAAAAAA/AAAAAAAAAAAAAAAAAAAAPwAAAAAAAAAAAAAAAAAAAD8AAAAAAAAAAAAAAAAAAAA/AAAAAAAAAAAAAAAA
        AAAAPwAAAAAAAAAAAAAAAAAAAD8AAAAAAAAAAAAAAAAAAAA/AAAAAAAAAAAAAAAAAAAAPwAAAAAAAAAAAAAAAAAAAD8AAAAAAAAAAAAAAAC+9H0+AAAAPwAAAD8AAAA/
        AAAAAAAAAACJiIg9AAAAPwAAAAAAAAAAAAAAAAAAAD8AAAAAAAAAAAAAAAAAAAA/AAAAAAAAAAAAAAAAAAAAPwAAAAAAAAAAAAAAAAAAAD8AAAAAAAAAAAAAAAAAAAA/
        AAAAAAAAAAAAAAAAAAAAPwAAAAAAAAAAAAAAAAAAAD8AAAAAAAAAAAAAAAAAAAA/AAAAAAAAAAAAAAAAAAAAPwAAAAAAAAAAAAAAAAAAAD8AAAAAAAAAAAAAAAAAAAA/
        AAAAAAAAAAAAAAAAAAAAPwAAAAAAAAAAAAAAAAAAAD8AAAAAAAAAAAAAAAAAAAA/AAAAAAAAAAAAAAAAAAAAPwAAAAAAAAAAAAAAAL70fT4AAAA/AAAAPwAAAD8AAAAA
        AAAAAImIiD0AAAA/AAAAAAAAAAAAAAAAAAAAPwAAAAAAAAAAAAAAAAAAAD8AAAAAAAAAAAAAAAAAAAA/AAAAAAAAAAAAAAAAAAAAPwAAAAAAAAAAAAAAAAAAAD8AAAAA
        AAAAAAAAAAAAAAA/AAAAAAAAAAAAAAAAAAAAPwAAAAAAAAAAAAAAAAAAAD8AAAAAAAAAAAAAAAAAAAA/AAAAAAAAAAAAAAAAAAAAPwAAAAAAAAAAAAAAAAAAAD8AAAAA
        AAAAAAAAAAAAAAA/AAAAAAAAAAAAAAAAAAAAPwAAAAAAAAAAAAAAAAAAAD8AAAAAAAAAAAAAAAAAAAA/AAAAAAAAAAAAAAAAvvR9PgAAAD8AAAA/AAAAPwAAAAAAAAAA
        iYiIPQAAAD8AAAAAAAAAAAAAAAAAAAA/AAAAAAAAAAAAAAAAAAAAPwAAAAAAAAAAAAAAAAAAAD8AAAAAAAAAAAAAAAAAAAA/AAAAAAAAAAAAAAAAAAAAPwAAAAAAAAAA
        AAAAAAAAAD8AAAAAAAAAAAAAAAAAAAA/AAAAAAAAAAAAAAAAAAAAPwAAAAAAAAAAAAAAAAAAAD8AAAAAAAAAAAAAAAAAAAA/AAAAAAAAAAAAAAAAAAAAPwAAAAAAAAAA
        AAAAAAAAAD8AAAAAAAAAAAAAAAAAAAA/AAAAAAAAAAAAAAAAAAAAPwAAAAAAAAAAAAAAAAAAAD8AAAAAAAAAAAAAAAAAAAAAmpmZPgAAAAAAAAAAAAAAAAAAgD8AAAAA
        mpmZPgAAAAAAAAAAAAAAAAAAgD8AAAAAmpmZPgAAAAAAAAAAAAAAAAAAgD8AAAAAmpmZPgAAAAAAAAAAAAAAAAAAgD8AAAAAmpmZPgAAAAAAAAAAAAAAAAAAgD8AAAAA
        mpmZPgAAAAAAAAAAAAAAAAAAgD8AAAAAAAAAAAAAAAAAAAAAAAAAAAAAAAAAAAAAAAAAAAAAAAAAAAAAAAAAAAAAAAAAAAAAAAAAAAAAAAAAAAAAAAAAAAAAAAAAAAAA
        AAAAAAAAAAAAAAAAAAAAAAAAAAAAAAAAAAAAAAAAAAAAAAAAAAAAAAAAAAAAAAAAAAAAAAAAAAAAAAAAAAAAAAAAAAAAAAAAAAAAAKuqqj3ZiZ09gShWPgAAgD8AAAAA
        v+eWPdmJHT0WszE/AAAAAAAAAACSdiw8AAAAAAAAAD8AAAAAAAAAAAAAAAAAAAAAAAAAPwAAAAAAAAAAAAAAAAAAAAAAAAAAAAAAAAAAAAAAAAAAAAAAAAAAAAAAAAAA
        AAAAAAAAAAAAAAAAAAAAAAAAAAAAAAAAAAAAAAAAAAAAAAAAAAAAAAAAAAAAAAAAAAAAAAAAAAAAAAAAAAAAAAAAAAAAAAAAAAAAAAAAAAAAAAAAAAAAAAAAAAAAAAAA
        AAAAAAAAAAAAAAAAAAAAAAAAAAAAAAAAAAAAAAAAAAAAAAAAAAAAAAAAAAAAAAAAAAAAAAAAAAAAAAAAAAAAAAAAAAAAAAAAAAAAAAAAAAAAAAAAAAAAAAAAAAAAAAAA
        AAAAAAAAAAAAAAAAAAAAAAAAAAAAAAAAAAAAAAAAAAAAAAAAAAAAAAAAAAAAAAAAAAAAAAAAAAAAAAAAAAAAAAAAAAAAAAAAAAAAAAAAAAAAAAAAAAAAAAAAAAAAAAAA
        AAAAAAAAAAAAAAAAAAAAAAAAAAAAAAAAAAAAAAAAAAAAAAAAAAAAAAAAAAAAAAAAAAAAAAAAAAAAAAAAAAAAAAAAAAAAAAAAAAAAAAAAAAAAAAAAAAAAPwAAAD8AAAA/
        AAAAPwAAAD8AAAA/AAAAPwAAAD8AAAAAAAAAAAAAAAAAAAAAAAAAAAAAAAAAAAAAAAAAAAAAAAAAAAAAAAAAAAAAAAAAAAAAAAAAAAAAAAAAAAAAAAAAAAAAAAAAAAAA
        AAAAAAAAAAAAAAAAAAAAAAAAAAAAAAAAAAAAAAAAAAAAAAAAAAAAAAAAAAAAAAAAAAAAAAAAAAAAAAAAAAAAAAAAAAAAAAAAAAAAAAAAAAAAAAAAAAAAAAAAAAAAAAAA
        AAAAAAAAAAAAAAAAAAAAAAAAAAAAAAAAAAAAAAAAAAAAAAAAAAAAAAAAAAAAAAAAAAAAAAAAAAAAAAAAAAAAAAAAAAAAAAAAAAAAAAAAAAAAAAAAAAAAAAAAAAAAAAAA
        AAAAAAAAAAAAAAAAAAAAAAAAAAAAAAAAAAAAAAAAAAAAAAAAAAAAAAAAAAAAAAAAAAAAAAAAAAAAAAAA
        Q2hpcFNpZGUAQ2hpcFNpZGUAEAAAAA==
      >
      PRESETNAME ChipSide
      FLOATPOS 36 32 641 529
      FXID {20356A84-5CFD-6E4A-AA26-2A8A49CE7A76}
      WAK 0
    >
  >
  <EXTENSIONS
    <SWSAUTOCOLOR
      {00000000-0000-0000-0000-000000000000} 0 "" "" ""
    >
    <BR_CURSOR_POS 04
      0.00000000000000
    >
  >
>
