<REAPER_PROJECT 0.1 "5.50repre3/OSX64" 1504444058
  RIPPLE 0
  GROUPOVERRIDE 1 0 0
  AUTOXFADE 0
  ENVATTACH 1
  POOLEDENVATTACH 0
  MIXERUIFLAGS 11 436
  PEAKGAIN 1
  FEEDBACK 0
  PANLAW 1
  PROJOFFS 0 0
  MAXPROJLEN 0 600
  GRID 174206 8 1 8 1 0 0 0
  TIMEMODE 6 0 -1 24 2
  PANMODE 3
  CURSOR 0
  ZOOM 28.04803651357516 0 0
  VZOOMEX 0
  USE_REC_CFG 0
  RECMODE 1
  SMPTESYNC 0 23.976024 100 40 1000 300 0 0 1 0 0
  MIDIEDITOR -116919545 0 0
  LOOP 1
  LOOPGRAN 0 4
  RECORD_PATH "" ""
  <RECORD_CFG
    ZXZhdxAA
  >
  <APPLYFX_CFG
  >
  RENDER_FILE ""
  RENDER_PATTERN ""
  RENDER_FMT 0 2 0
  RENDER_1X 0
  RENDER_RANGE 1 0 0 18 1000
  RENDER_RESAMPLE 3 0 1
  RENDER_ADDTOPROJ 0
  RENDER_STEMS 0
  RENDER_DITHER 0
  TIMELOCKMODE 1
  TEMPOENVLOCKMODE 1
  ITEMMIX 1
  DEFPITCHMODE 589824
  TAKELANE 3
  SAMPLERATE 44100 0 0
  <RENDER_CFG
  >
  LOCK 1
  <METRONOME 6 2
    VOL 0.25 0.125
    FREQ 800 1600 1
    BEATLEN 4
    SAMPLES "" ""
    PATTERN 2863311530 2863311529
  >
  GLOBAL_AUTO -1
  SELECTIONSET 9 "Selection set 10"
  TEMPO 120 4 4
  PLAYRATE 1 0 0.25 4
  SELECTION 36 0
  SELECTION2 36 0
  MASTERAUTOMODE 0
  MASTERTRACKHEIGHT 0
  MASTERPEAKCOL 16576
  MASTERMUTESOLO 0
  MASTERTRACKVIEW 0 0.6667 0.5 0.5 0 0 0
  MASTERHWOUT 0 0 1 0 0 0 0 -1
  MASTER_NCH 2 2
  MASTER_VOLUME 1 0 -1 -1 1
  MASTER_FX 1
  MASTER_SEL 0
  <MASTERPLAYSPEEDENV
    ACT 0
    VIS 0 1 1
    LANEHEIGHT 0 0
    ARM 0
    DEFSHAPE 0 -1 -1
  >
  <TEMPOENVEX
    ACT 0
    VIS 1 0 1
    LANEHEIGHT 0 0
    ARM 0
    DEFSHAPE 1 -1 -1
  >
  <SCREENSET
    <SET
      POS 0
      NAME "Untitled View State (2014/12/19 10:17)"
      MASK -1
      CURSORPOS 0
      SCROLLX 0 0
      TRACKSCALE 35.22727273
      SCROLLY 0
      VZOOM 9
      TRACKHEIGHT {F4CC3575-1D7D-424F-8F4B-C71B325A2484} 0 1 0 0.6667 0.5 0.5 0 -1 -1 -1 1
      TRACKHEIGHT {E3130754-F6DC-CE48-8A0F-B88955C7F0EE} 0 1 0 0.6667 0.5 0.5 0 -1 -1 -1 1
    >
    <SET
      POS 9
      NAME "Untitled View State (2014/12/19 10:17)"
      MASK -1
      CURSORPOS 0
      SCROLLX 0 0
      TRACKSCALE 35.22727273
      SCROLLY 0
      VZOOM 3
      TRACKHEIGHT {F4CC3575-1D7D-424F-8F4B-C71B325A2484} 88 1 0 0.6667 0.5 0.5 0 -1 -1 -1 1
      TRACKHEIGHT {E3130754-F6DC-CE48-8A0F-B88955C7F0EE} 0 0 0 0.6667 0.5 0.5 0 -1 -1 -1 0
    >
  >
  <PROJBAY
  >
  <TRACK {9E17E555-29E7-C94F-935F-3FC54FE1F2ED}
    NAME Midi
    PEAKCOL 16576
    BEAT -1
    AUTOMODE 0
    VOLPAN 1 0 -1 -1 1
    MUTESOLO 0 0 0
    IPHASE 0
    ISBUS 0 0
    BUSCOMP 0 0
    SHOWINMIX 1 0.6667 0.5 1 0.5 0 0 0
    FREEMODE 0
    SEL 0
    REC 0 0 0 0 0 0 0
    VU 2
    TRACKHEIGHT 0 0
    INQ 0 0 0 0.5 100 0 0 100
    NCHAN 2
    FX 1
    TRACKID {9E17E555-29E7-C94F-935F-3FC54FE1F2ED}
    PERF 0
    MIDIOUT -1
    MAINSEND 1 0
    <ITEM
      POSITION 0
      SNAPOFFS 0
      LENGTH 36
      LOOP 1
      ALLTAKES 0
      FADEIN 1 0 0 1 0 0
      FADEOUT 1 0 0 1 0 0
      MUTE 0
      SEL 0
      YPOS 0.166667 0.166667
      IGUID {4453DE81-0307-2543-8987-309060CBB11C}
      IID 2
      NAME "R.H.                 - National_Anthems_-_Cyprus.mid"
      VOLPAN 1 0 1 -1
      SOFFS 1 2
      PLAYRATE 1 1 0 -1 0 0.0025
      CHANMODE 0
      TAKECOLOR 26173599 B
      GUID {84B6A9EC-2273-844F-90CE-02C388C7B4A8}
      <SOURCE MIDI
        HASDATA 1 192 QN
        POOLEDEVTS {B2EB2509-1569-A04C-9511-C6758119DBD9}
        <X 0 0 0 0 3 "R.H.                "
          /wNSLkguICAgICAgICAgICAgICAgIA==
        >
        E 384 91 41 64
        E 0 91 45 64
        E 128 81 41 40
        E 0 81 45 40
        E 16 91 46 64
        E 0 91 43 64
        E 32 81 46 40
        E 0 81 43 40
        E 16 91 45 64
        E 0 91 48 64
        E 320 81 45 40
        E 0 81 48 40
        E 16 91 46 64
        E 0 91 43 64
        E 32 81 46 40
        E 0 81 43 40
        E 16 91 45 64
        E 0 91 41 64
        E 128 81 45 40
        E 0 81 41 40
        E 16 91 46 64
        E 0 91 43 64
        E 32 81 46 40
        E 0 81 43 40
        E 16 91 48 64
        E 0 91 45 64
        E 176 81 48 40
        E 0 81 45 40
        E 16 91 45 64
        E 0 91 41 64
        E 80 81 45 40
        E 0 81 41 40
        E 112 91 46 64
        E 0 91 43 64
        E 128 81 46 40
        E 0 81 43 40
        E 16 91 45 64
        E 0 91 48 64
        E 32 81 45 40
        E 0 81 48 40
        E 16 91 4a 64
        E 0 91 46 64
        E 320 81 4a 40
        E 0 81 46 40
        E 16 91 46 64
        E 0 91 4a 64
        E 32 81 46 40
        E 0 81 4a 40
        E 16 91 48 64
        E 0 91 4c 64
        E 128 81 48 40
        E 0 81 4c 40
        E 16 91 48 64
        E 0 91 4c 64
        E 32 81 48 40
        E 0 81 4c 40
        E 16 91 4d 64
        E 0 91 45 64
        E 272 81 4d 40
        E 0 81 45 40
        E 112 91 40 64
        E 0 91 43 64
        E 128 81 40 40
        E 0 81 43 40
        E 16 91 45 64
        E 0 91 41 64
        E 32 81 45 40
        E 0 81 41 40
        E 16 91 46 64
        E 0 91 43 64
        E 320 81 46 40
        E 0 81 43 40
        E 16 91 45 64
        E 0 91 41 64
        E 32 81 45 40
        E 0 81 41 40
        E 16 91 43 64
        E 0 91 40 64
        E 128 81 43 40
        E 0 81 40 40
        E 16 91 41 64
        E 0 91 45 64
        E 32 81 41 40
        E 0 81 45 40
        E 16 91 46 64
        E 0 91 43 64
        E 176 81 46 40
        E 0 81 43 40
        E 16 91 40 64
        E 0 91 43 64
        E 80 81 40 40
        E 0 81 43 40
        E 112 91 48 64
        E 128 81 48 40
        E 16 91 48 64
        E 32 81 48 40
        E 16 91 4c 64
        E 0 91 48 64
        E 320 81 4c 40
        E 0 81 48 40
        E 16 91 4a 64
        E 0 91 46 64
        E 32 81 4a 40
        E 0 81 46 40
        E 16 91 45 64
        E 0 91 48 64
        E 128 81 45 40
        E 0 81 48 40
        E 16 91 46 64
        E 0 91 43 64
        E 32 81 46 40
        E 0 81 43 40
        E 16 91 41 64
        E 0 91 45 64
        E 272 81 41 40
        E 0 81 45 40
        E 112 91 45 64
        E 128 81 45 40
        E 16 91 45 64
        E 32 81 45 40
        E 16 91 41 64
        E 0 91 45 64
        E 0 91 4a 64
        E 320 81 4a 40
        E 16 91 4d 64
        E 32 81 41 40
        E 0 81 45 40
        E 0 81 4d 40
        E 16 91 45 64
        E 0 91 43 64
        E 0 91 4c 64
        E 128 81 4c 40
        E 16 91 49 64
        E 32 81 45 40
        E 0 81 43 40
        E 0 81 49 40
        E 16 91 45 64
        E 0 91 4a 64
        E 0 91 41 64
        E 176 81 45 40
        E 0 81 4a 40
        E 16 91 45 64
        E 80 81 45 40
        E 96 81 41 40
        E 16 91 45 64
        E 128 81 45 40
        E 16 91 45 64
        E 32 81 45 40
        E 16 91 45 64
        E 0 91 4a 64
        E 0 91 41 64
        E 320 81 4a 40
        E 16 91 4d 64
        E 32 81 45 40
        E 0 81 41 40
        E 0 81 4d 40
        E 16 91 45 64
        E 0 91 4c 64
        E 0 91 43 64
        E 128 81 4c 40
        E 16 91 49 64
        E 32 81 45 40
        E 0 81 43 40
        E 0 81 49 40
        E 16 91 45 64
        E 0 91 41 64
        E 0 91 4a 64
        E 272 81 45 40
        E 0 81 41 40
        E 0 81 4a 40
        E 112 91 48 64
        E 128 81 48 40
        E 16 91 48 64
        E 32 81 48 40
        E 16 91 48 64
        E 176 81 48 40
        E 16 91 4c 64
        E 0 91 46 64
        E 0 91 48 64
        E 176 81 4c 40
        E 0 81 46 40
        E 0 81 48 40
        E 16 91 48 64
        E 0 91 46 64
        E 128 81 48 40
        E 0 81 46 40
        E 16 91 46 64
        E 0 91 48 64
        E 32 81 46 40
        E 0 81 48 40
        E 16 91 45 64
        E 0 91 48 64
        E 176 81 45 40
        E 0 81 48 40
        E 16 91 4d 64
        E 0 91 48 64
        E 0 91 45 64
        E 176 81 4d 40
        E 0 81 48 40
        E 0 81 45 40
        E 16 91 45 64
        E 0 91 48 64
        E 128 81 45 40
        E 0 81 48 40
        E 16 91 48 64
        E 0 91 45 64
        E 32 81 48 40
        E 0 81 45 40
        E 16 91 48 64
        E 0 91 46 64
        E 176 81 48 40
        E 0 81 46 40
        E 16 91 46 64
        E 0 91 4c 64
        E 0 91 43 64
        E 80 81 46 40
        E 0 81 4c 40
        E 0 81 43 40
        E 64 91 48 64
        E 32 81 48 40
        E 16 91 4a 64
        E 128 81 4a 40
        E 16 91 4c 64
        E 32 81 4c 40
        E 16 91 45 64
        E 0 91 4d 64
        E 272 81 45 40
        E 0 81 4d 40
        E 112 91 45 64
        E 0 91 4d 64
        E 128 81 45 40
        E 0 81 4d 40
        E 16 91 4c 64
        E 0 91 48 64
        E 32 81 4c 40
        E 0 81 48 40
        E 16 91 48 64
        E 0 91 4c 64
        E 176 81 48 40
        E 0 81 4c 40
        E 16 91 46 64
        E 0 91 4a 64
        E 80 81 46 40
        E 0 81 4a 40
        E 112 91 46 64
        E 0 91 4a 64
        E 128 81 46 40
        E 0 81 4a 40
        E 16 91 48 64
        E 0 91 45 64
        E 32 81 48 40
        E 0 81 45 40
        E 16 91 45 64
        E 0 91 48 64
        E 176 81 45 40
        E 0 81 48 40
        E 16 91 46 64
        E 0 91 43 64
        E 80 81 46 40
        E 0 81 43 40
        E 112 91 46 64
        E 0 91 4a 64
        E 128 81 46 40
        E 0 81 4a 40
        E 16 91 4a 64
        E 0 91 46 64
        E 32 81 4a 40
        E 0 81 46 40
        E 16 91 45 64
        E 0 91 48 64
        E 320 81 45 40
        E 0 81 48 40
        E 16 91 41 64
        E 0 91 45 64
        E 32 81 41 40
        E 0 81 45 40
        E 16 91 46 64
        E 0 91 43 64
        E 128 81 46 40
        E 0 81 43 40
        E 16 91 43 64
        E 0 91 40 64
        E 32 81 43 40
        E 0 81 40 40
        E 16 91 46 64
        E 0 91 43 64
        E 176 81 46 40
        E 0 81 43 40
        E 16 91 41 64
        E 0 91 45 64
        E 80 81 41 40
        E 0 81 45 40
        E 112 91 4d 64
        E 0 91 45 64
        E 128 81 4d 40
        E 0 81 45 40
        E 16 91 4c 64
        E 0 91 48 64
        E 32 81 4c 40
        E 0 81 48 40
        E 16 91 48 64
        E 0 91 4c 64
        E 176 81 48 40
        E 0 81 4c 40
        E 16 91 46 64
        E 0 91 4a 64
        E 80 81 46 40
        E 0 81 4a 40
        E 112 91 4a 64
        E 0 91 46 64
        E 128 81 4a 40
        E 0 81 46 40
        E 16 91 45 64
        E 0 91 48 64
        E 32 81 45 40
        E 0 81 48 40
        E 16 91 45 64
        E 0 91 48 64
        E 176 81 45 40
        E 0 81 48 40
        E 16 91 46 64
        E 0 91 43 64
        E 80 81 46 40
        E 0 81 43 40
        E 112 91 46 64
        E 0 91 4a 64
        E 128 81 46 40
        E 0 81 4a 40
        E 16 91 4a 64
        E 0 91 46 64
        E 32 81 4a 40
        E 0 81 46 40
        E 16 91 45 64
        E 0 91 48 64
        E 320 81 45 40
        E 0 81 48 40
        E 16 91 45 64
        E 0 91 41 64
        E 32 81 45 40
        E 0 81 41 40
        E 16 91 46 64
        E 0 91 43 64
        E 128 81 46 40
        E 0 81 43 40
        E 16 91 40 64
        E 0 91 43 64
        E 32 81 40 40
        E 0 81 43 40
        E 16 91 41 64
        E 176 81 41 40
        E 16 91 45 64
        E 0 91 4d 64
        E 0 91 48 64
        E 80 81 45 40
        E 0 81 4d 40
        E 0 81 48 40
        E 112 b0 7b 00
        GUID {60B9579C-44E1-C145-A4C2-AEF4230DC61A}
        IGNTEMPO 0 120 4 4
        SRCCOLOR 629
        VELLANE -1 86 6
      >
      TAKE
      NAME "R.H.                 - National_Anthems_-_Cyprus.mid"
      TAKEVOLPAN 0 1 -1
      SOFFS 1 2
      PLAYRATE 1 1 0 -1 0 0.0025
      CHANMODE 0
      GUID {CE8574A5-4F61-CD45-972E-EEB89B56786A}
      <SOURCE MIDI
        HASDATA 1 192 QN
        POOLEDEVTS {7FEC3FF8-1F33-AF47-9FF5-38C683AE1ECF}
        <X 0 0 0 0 3 "R.H.                "
          /wNSLkguICAgICAgICAgICAgICAgIA==
        >
        E 384 91 41 64
        E 0 91 45 64
        E 128 81 41 40
        E 0 81 45 40
        E 16 91 46 64
        E 0 91 43 64
        E 32 81 46 40
        E 0 81 43 40
        E 16 91 45 64
        E 0 91 48 64
        E 320 81 45 40
        E 0 81 48 40
        E 16 91 46 64
        E 0 91 43 64
        E 32 81 46 40
        E 0 81 43 40
        E 16 91 45 64
        E 0 91 41 64
        E 128 81 45 40
        E 0 81 41 40
        E 16 91 46 64
        E 0 91 43 64
        E 32 81 46 40
        E 0 81 43 40
        E 16 91 48 64
        E 0 91 45 64
        E 176 81 48 40
        E 0 81 45 40
        E 16 91 45 64
        E 0 91 41 64
        E 80 81 45 40
        E 0 81 41 40
        E 112 91 46 64
        E 0 91 43 64
        E 128 81 46 40
        E 0 81 43 40
        E 16 91 45 64
        E 0 91 48 64
        E 32 81 45 40
        E 0 81 48 40
        E 16 91 4a 64
        E 0 91 46 64
        E 320 81 4a 40
        E 0 81 46 40
        E 16 91 46 64
        E 0 91 4a 64
        E 32 81 46 40
        E 0 81 4a 40
        E 16 91 48 64
        E 0 91 4c 64
        E 128 81 48 40
        E 0 81 4c 40
        E 16 91 48 64
        E 0 91 4c 64
        E 32 81 48 40
        E 0 81 4c 40
        E 16 91 4d 64
        E 0 91 45 64
        E 272 81 4d 40
        E 0 81 45 40
        E 112 91 40 64
        E 0 91 43 64
        E 128 81 40 40
        E 0 81 43 40
        E 16 91 45 64
        E 0 91 41 64
        E 32 81 45 40
        E 0 81 41 40
        E 16 91 46 64
        E 0 91 43 64
        E 320 81 46 40
        E 0 81 43 40
        E 16 91 45 64
        E 0 91 41 64
        E 32 81 45 40
        E 0 81 41 40
        E 16 91 43 64
        E 0 91 40 64
        E 128 81 43 40
        E 0 81 40 40
        E 16 91 41 64
        E 0 91 45 64
        E 32 81 41 40
        E 0 81 45 40
        E 16 91 46 64
        E 0 91 43 64
        E 176 81 46 40
        E 0 81 43 40
        E 16 91 40 64
        E 0 91 43 64
        E 80 81 40 40
        E 0 81 43 40
        E 112 91 48 64
        E 128 81 48 40
        E 16 91 48 64
        E 32 81 48 40
        E 16 91 4c 64
        E 0 91 48 64
        E 320 81 4c 40
        E 0 81 48 40
        E 16 91 4a 64
        E 0 91 46 64
        E 32 81 4a 40
        E 0 81 46 40
        E 16 91 45 64
        E 0 91 48 64
        E 128 81 45 40
        E 0 81 48 40
        E 16 91 46 64
        E 0 91 43 64
        E 32 81 46 40
        E 0 81 43 40
        E 16 91 41 64
        E 0 91 45 64
        E 272 81 41 40
        E 0 81 45 40
        E 112 91 45 64
        E 128 81 45 40
        E 16 91 45 64
        E 32 81 45 40
        E 16 91 41 64
        E 0 91 45 64
        E 0 91 4a 64
        E 320 81 4a 40
        E 16 91 4d 64
        E 32 81 41 40
        E 0 81 45 40
        E 0 81 4d 40
        E 16 91 45 64
        E 0 91 43 64
        E 0 91 4c 64
        E 128 81 4c 40
        E 16 91 49 64
        E 32 81 45 40
        E 0 81 43 40
        E 0 81 49 40
        E 16 91 45 64
        E 0 91 4a 64
        E 0 91 41 64
        E 176 81 45 40
        E 0 81 4a 40
        E 16 91 45 64
        E 80 81 45 40
        E 96 81 41 40
        E 16 91 45 64
        E 128 81 45 40
        E 16 91 45 64
        E 32 81 45 40
        E 16 91 45 64
        E 0 91 4a 64
        E 0 91 41 64
        E 320 81 4a 40
        E 16 91 4d 64
        E 32 81 45 40
        E 0 81 41 40
        E 0 81 4d 40
        E 16 91 45 64
        E 0 91 4c 64
        E 0 91 43 64
        E 128 81 4c 40
        E 16 91 49 64
        E 32 81 45 40
        E 0 81 43 40
        E 0 81 49 40
        E 16 91 45 64
        E 0 91 41 64
        E 0 91 4a 64
        E 272 81 45 40
        E 0 81 41 40
        E 0 81 4a 40
        E 112 91 48 64
        E 128 81 48 40
        E 16 91 48 64
        E 32 81 48 40
        E 16 91 48 64
        E 176 81 48 40
        E 16 91 4c 64
        E 0 91 46 64
        E 0 91 48 64
        E 176 81 4c 40
        E 0 81 46 40
        E 0 81 48 40
        E 16 91 48 64
        E 0 91 46 64
        E 128 81 48 40
        E 0 81 46 40
        E 16 91 46 64
        E 0 91 48 64
        E 32 81 46 40
        E 0 81 48 40
        E 16 91 45 64
        E 0 91 48 64
        E 176 81 45 40
        E 0 81 48 40
        E 16 91 4d 64
        E 0 91 48 64
        E 0 91 45 64
        E 176 81 4d 40
        E 0 81 48 40
        E 0 81 45 40
        E 16 91 45 64
        E 0 91 48 64
        E 128 81 45 40
        E 0 81 48 40
        E 16 91 48 64
        E 0 91 45 64
        E 32 81 48 40
        E 0 81 45 40
        E 16 91 48 64
        E 0 91 46 64
        E 176 81 48 40
        E 0 81 46 40
        E 16 91 46 64
        E 0 91 4c 64
        E 0 91 43 64
        E 80 81 46 40
        E 0 81 4c 40
        E 0 81 43 40
        E 64 91 48 64
        E 32 81 48 40
        E 16 91 4a 64
        E 128 81 4a 40
        E 16 91 4c 64
        E 32 81 4c 40
        E 16 91 45 64
        E 0 91 4d 64
        E 272 81 45 40
        E 0 81 4d 40
        E 112 91 45 64
        E 0 91 4d 64
        E 128 81 45 40
        E 0 81 4d 40
        E 16 91 4c 64
        E 0 91 48 64
        E 32 81 4c 40
        E 0 81 48 40
        E 16 91 48 64
        E 0 91 4c 64
        E 176 81 48 40
        E 0 81 4c 40
        E 16 91 46 64
        E 0 91 4a 64
        E 80 81 46 40
        E 0 81 4a 40
        E 112 91 46 64
        E 0 91 4a 64
        E 128 81 46 40
        E 0 81 4a 40
        E 16 91 48 64
        E 0 91 45 64
        E 32 81 48 40
        E 0 81 45 40
        E 16 91 45 64
        E 0 91 48 64
        E 176 81 45 40
        E 0 81 48 40
        E 16 91 46 64
        E 0 91 43 64
        E 80 81 46 40
        E 0 81 43 40
        E 112 91 46 64
        E 0 91 4a 64
        E 128 81 46 40
        E 0 81 4a 40
        E 16 91 4a 64
        E 0 91 46 64
        E 32 81 4a 40
        E 0 81 46 40
        E 16 91 45 64
        E 0 91 48 64
        E 320 81 45 40
        E 0 81 48 40
        E 16 91 41 64
        E 0 91 45 64
        E 32 81 41 40
        E 0 81 45 40
        E 16 91 46 64
        E 0 91 43 64
        E 128 81 46 40
        E 0 81 43 40
        E 16 91 43 64
        E 0 91 40 64
        E 32 81 43 40
        E 0 81 40 40
        E 16 91 46 64
        E 0 91 43 64
        E 176 81 46 40
        E 0 81 43 40
        E 16 91 41 64
        E 0 91 45 64
        E 80 81 41 40
        E 0 81 45 40
        E 112 91 4d 64
        E 0 91 45 64
        E 128 81 4d 40
        E 0 81 45 40
        E 16 91 4c 64
        E 0 91 48 64
        E 32 81 4c 40
        E 0 81 48 40
        E 16 91 48 64
        E 0 91 4c 64
        E 176 81 48 40
        E 0 81 4c 40
        E 16 91 46 64
        E 0 91 4a 64
        E 80 81 46 40
        E 0 81 4a 40
        E 112 91 4a 64
        E 0 91 46 64
        E 128 81 4a 40
        E 0 81 46 40
        E 16 91 45 64
        E 0 91 48 64
        E 32 81 45 40
        E 0 81 48 40
        E 16 91 45 64
        E 0 91 48 64
        E 176 81 45 40
        E 0 81 48 40
        E 16 91 46 64
        E 0 91 43 64
        E 80 81 46 40
        E 0 81 43 40
        E 112 91 46 64
        E 0 91 4a 64
        E 128 81 46 40
        E 0 81 4a 40
        E 16 91 4a 64
        E 0 91 46 64
        E 32 81 4a 40
        E 0 81 46 40
        E 16 91 45 64
        E 0 91 48 64
        E 320 81 45 40
        E 0 81 48 40
        E 16 91 45 64
        E 0 91 41 64
        E 32 81 45 40
        E 0 81 41 40
        E 16 91 46 64
        E 0 91 43 64
        E 128 81 46 40
        E 0 81 43 40
        E 16 91 40 64
        E 0 91 43 64
        E 32 81 40 40
        E 0 81 43 40
        E 16 91 41 64
        E 176 81 41 40
        E 16 91 45 64
        E 0 91 4d 64
        E 0 91 48 64
        E 80 81 45 40
        E 0 81 4d 40
        E 0 81 48 40
        E 112 b0 7b 00
        GUID {6A3F475A-AE83-CD41-8D32-FB4790CE30BC}
        IGNTEMPO 0 120 4 4
        SRCCOLOR 682
        VELLANE -1 108 6
      >
    >
    <ITEM
      POSITION 0
      SNAPOFFS 0
      LENGTH 36
      LOOP 1
      ALLTAKES 0
      FADEIN 1 0 0 1 0 0
      FADEOUT 1 0 0 1 0 0
      MUTE 0
      SEL 0
      YPOS 0.333333 0.166667
      IGUID {68E1AD85-E1A0-C345-8332-919A66D5D670}
      IID 3
      NAME "L.H.                 - National_Anthems_-_Cyprus.mid"
      VOLPAN 1 0 1 -1
      SOFFS 1 2
      PLAYRATE 1 1 0 -1 0 0.0025
      CHANMODE 0
      TAKECOLOR 26173599 B
      GUID {F1794CFE-5D82-4141-B63A-8177DF6DD8B3}
      <SOURCE MIDI
        HASDATA 1 192 QN
        POOLEDEVTS {109C4EA0-5D4E-EA4A-B394-F38178645E2C}
        <X 0 0 0 0 3 "L.H.                "
          /wNMLkguICAgICAgICAgICAgICAgIA==
        >
        E 576 92 35 64
        E 0 92 29 64
        E 80 82 35 40
        E 0 82 29 40
        E 16 92 3c 64
        E 0 92 39 64
        E 0 92 35 64
        E 32 82 3c 40
        E 0 82 39 40
        E 0 82 35 40
        E 16 92 39 64
        E 0 92 3c 64
        E 0 92 35 64
        E 32 82 39 40
        E 0 82 3c 40
        E 0 82 35 40
        E 16 92 35 64
        E 0 92 3c 64
        E 0 92 39 64
        E 80 82 35 40
        E 0 82 3c 40
        E 0 82 39 40
        E 16 92 3c 64
        E 0 92 35 64
        E 0 92 39 64
        E 80 82 3c 40
        E 0 82 35 40
        E 0 82 39 40
        E 16 92 35 64
        E 0 92 3c 64
        E 0 92 39 64
        E 80 82 35 40
        E 0 82 3c 40
        E 0 82 39 40
        E 16 92 3c 64
        E 0 92 35 64
        E 0 92 39 64
        E 80 82 3c 40
        E 0 82 35 40
        E 0 82 39 40
        E 16 92 29 64
        E 80 82 29 40
        E 16 92 35 64
        E 0 92 3c 64
        E 0 92 39 64
        E 32 82 35 40
        E 0 82 3c 40
        E 0 82 39 40
        E 16 92 3c 64
        E 0 92 39 64
        E 0 92 35 64
        E 32 82 3c 40
        E 0 82 39 40
        E 0 82 35 40
        E 16 92 3c 64
        E 0 92 35 64
        E 0 92 39 64
        E 80 82 3c 40
        E 0 82 35 40
        E 0 82 39 40
        E 16 92 35 64
        E 0 92 39 64
        E 0 92 3c 64
        E 80 82 35 40
        E 0 82 39 40
        E 0 82 3c 40
        E 16 92 39 64
        E 0 92 3c 64
        E 0 92 35 64
        E 80 82 39 40
        E 0 82 3c 40
        E 0 82 35 40
        E 16 92 39 64
        E 0 92 3c 64
        E 0 92 35 64
        E 80 82 39 40
        E 0 82 3c 40
        E 0 82 35 40
        E 16 92 2e 64
        E 80 82 2e 40
        E 16 92 3a 64
        E 0 92 37 64
        E 0 92 32 64
        E 32 82 3a 40
        E 0 82 37 40
        E 0 82 32 40
        E 16 92 32 64
        E 0 92 37 64
        E 0 92 3a 64
        E 32 82 32 40
        E 0 82 37 40
        E 0 82 3a 40
        E 16 92 37 64
        E 0 92 3a 64
        E 0 92 32 64
        E 80 82 37 40
        E 0 82 3a 40
        E 0 82 32 40
        E 16 92 3a 64
        E 0 92 32 64
        E 0 92 37 64
        E 80 82 3a 40
        E 0 82 32 40
        E 0 82 37 40
        E 16 92 24 64
        E 0 92 30 64
        E 80 82 24 40
        E 0 82 30 40
        E 16 92 3c 64
        E 0 92 34 64
        E 80 82 3c 40
        E 0 82 34 40
        E 16 92 29 64
        E 80 82 29 40
        E 16 92 3c 64
        E 0 92 35 64
        E 0 92 39 64
        E 32 82 3c 40
        E 0 82 35 40
        E 0 82 39 40
        E 16 92 35 64
        E 0 92 39 64
        E 0 92 3c 64
        E 32 82 35 40
        E 0 82 39 40
        E 0 82 3c 40
        E 16 92 3c 64
        E 0 92 35 64
        E 0 92 39 64
        E 80 82 3c 40
        E 0 82 35 40
        E 0 82 39 40
        E 16 92 39 64
        E 0 92 35 64
        E 0 92 3c 64
        E 80 82 39 40
        E 0 82 35 40
        E 0 82 3c 40
        E 208 92 24 64
        E 0 92 30 64
        E 80 82 24 40
        E 0 82 30 40
        E 16 92 3c 64
        E 0 92 3a 64
        E 0 92 34 64
        E 0 92 37 64
        E 32 82 3c 40
        E 0 82 3a 40
        E 0 82 34 40
        E 0 82 37 40
        E 16 92 3a 64
        E 0 92 34 64
        E 0 92 3c 64
        E 0 92 37 64
        E 32 82 3a 40
        E 0 82 34 40
        E 0 82 3c 40
        E 0 82 37 40
        E 16 92 34 64
        E 0 92 3c 64
        E 0 92 3a 64
        E 0 92 37 64
        E 80 82 34 40
        E 0 82 3c 40
        E 0 82 3a 40
        E 0 82 37 40
        E 16 92 34 64
        E 0 92 3a 64
        E 0 92 3c 64
        E 0 92 37 64
        E 80 82 34 40
        E 0 82 3a 40
        E 0 82 3c 40
        E 0 82 37 40
        E 16 92 3a 64
        E 0 92 34 64
        E 0 92 3c 64
        E 0 92 37 64
        E 80 82 3a 40
        E 0 82 34 40
        E 0 82 3c 40
        E 0 82 37 40
        E 16 92 3a 64
        E 0 92 34 64
        E 0 92 3c 64
        E 0 92 37 64
        E 80 82 3a 40
        E 0 82 34 40
        E 0 82 3c 40
        E 0 82 37 40
        E 16 92 30 64
        E 0 92 24 64
        E 80 82 30 40
        E 0 82 24 40
        E 16 92 34 64
        E 0 92 3a 64
        E 0 92 3c 64
        E 0 92 37 64
        E 32 82 34 40
        E 0 82 3a 40
        E 0 82 3c 40
        E 0 82 37 40
        E 16 92 3a 64
        E 0 92 34 64
        E 0 92 37 64
        E 0 92 3c 64
        E 32 82 3a 40
        E 0 82 34 40
        E 0 82 37 40
        E 0 82 3c 40
        E 16 92 3a 64
        E 0 92 34 64
        E 0 92 37 64
        E 0 92 3c 64
        E 80 82 3a 40
        E 0 82 34 40
        E 0 82 37 40
        E 0 82 3c 40
        E 16 92 34 64
        E 0 92 3a 64
        E 0 92 37 64
        E 0 92 3c 64
        E 80 82 34 40
        E 0 82 3a 40
        E 0 82 37 40
        E 0 82 3c 40
        E 16 92 3a 64
        E 0 92 34 64
        E 0 92 3c 64
        E 0 92 37 64
        E 80 82 3a 40
        E 0 82 34 40
        E 0 82 3c 40
        E 0 82 37 40
        E 16 92 3a 64
        E 0 92 34 64
        E 0 92 3c 64
        E 0 92 37 64
        E 80 82 3a 40
        E 0 82 34 40
        E 0 82 3c 40
        E 0 82 37 40
        E 16 92 24 64
        E 0 92 30 64
        E 80 82 24 40
        E 0 82 30 40
        E 16 92 3a 64
        E 0 92 34 64
        E 0 92 3c 64
        E 0 92 37 64
        E 32 82 3a 40
        E 0 82 34 40
        E 0 82 3c 40
        E 0 82 37 40
        E 16 92 34 64
        E 0 92 3a 64
        E 0 92 37 64
        E 0 92 3c 64
        E 32 82 34 40
        E 0 82 3a 40
        E 0 82 37 40
        E 0 82 3c 40
        E 16 92 3a 64
        E 0 92 34 64
        E 0 92 3c 64
        E 0 92 37 64
        E 80 82 3a 40
        E 0 82 34 40
        E 0 82 3c 40
        E 0 82 37 40
        E 16 92 3a 64
        E 0 92 34 64
        E 0 92 37 64
        E 0 92 3c 64
        E 80 82 3a 40
        E 0 82 34 40
        E 0 82 37 40
        E 0 82 3c 40
        E 16 92 3a 64
        E 0 92 3c 64
        E 0 92 34 64
        E 0 92 37 64
        E 80 82 3a 40
        E 0 82 3c 40
        E 0 82 34 40
        E 0 82 37 40
        E 16 92 3a 64
        E 0 92 34 64
        E 0 92 3c 64
        E 0 92 37 64
        E 80 82 3a 40
        E 0 82 34 40
        E 0 82 3c 40
        E 0 82 37 40
        E 16 92 29 64
        E 80 82 29 40
        E 16 92 35 64
        E 0 92 3c 64
        E 0 92 39 64
        E 32 82 35 40
        E 0 82 3c 40
        E 0 82 39 40
        E 16 92 35 64
        E 0 92 39 64
        E 0 92 3c 64
        E 32 82 35 40
        E 0 82 39 40
        E 0 82 3c 40
        E 16 92 39 64
        E 0 92 35 64
        E 0 92 3c 64
        E 176 82 39 40
        E 0 82 35 40
        E 0 82 3c 40
        E 208 92 26 64
        E 80 82 26 40
        E 16 92 32 64
        E 0 92 39 64
        E 0 92 35 64
        E 32 82 32 40
        E 0 82 39 40
        E 0 82 35 40
        E 16 92 32 64
        E 0 92 35 64
        E 0 92 39 64
        E 32 82 32 40
        E 0 82 35 40
        E 0 82 39 40
        E 16 92 32 64
        E 0 92 35 64
        E 0 92 39 64
        E 80 82 32 40
        E 0 82 35 40
        E 0 82 39 40
        E 16 92 32 64
        E 0 92 35 64
        E 0 92 39 64
        E 80 82 32 40
        E 0 82 35 40
        E 0 82 39 40
        E 16 92 2d 64
        E 80 82 2d 40
        E 16 92 39 64
        E 0 92 34 64
        E 0 92 37 64
        E 80 82 39 40
        E 0 82 34 40
        E 0 82 37 40
        E 16 92 26 64
        E 80 82 26 40
        E 16 92 32 64
        E 0 92 39 64
        E 0 92 35 64
        E 32 82 32 40
        E 0 82 39 40
        E 0 82 35 40
        E 16 92 32 64
        E 0 92 39 64
        E 0 92 35 64
        E 32 82 32 40
        E 0 82 39 40
        E 0 82 35 40
        E 16 92 32 64
        E 0 92 35 64
        E 0 92 39 64
        E 80 82 32 40
        E 0 82 35 40
        E 0 82 39 40
        E 16 92 32 64
        E 0 92 35 64
        E 0 92 39 64
        E 80 82 32 40
        E 0 82 35 40
        E 0 82 39 40
        E 16 92 32 64
        E 0 92 35 64
        E 0 92 39 64
        E 80 82 32 40
        E 0 82 35 40
        E 0 82 39 40
        E 16 92 32 64
        E 0 92 35 64
        E 0 92 39 64
        E 80 82 32 40
        E 0 82 35 40
        E 0 82 39 40
        E 16 92 26 64
        E 80 82 26 40
        E 16 92 32 64
        E 0 92 39 64
        E 0 92 35 64
        E 32 82 32 40
        E 0 82 39 40
        E 0 82 35 40
        E 16 92 32 64
        E 0 92 39 64
        E 0 92 35 64
        E 32 82 32 40
        E 0 82 39 40
        E 0 82 35 40
        E 16 92 32 64
        E 0 92 39 64
        E 0 92 35 64
        E 80 82 32 40
        E 0 82 39 40
        E 0 82 35 40
        E 16 92 35 64
        E 0 92 32 64
        E 0 92 39 64
        E 80 82 35 40
        E 0 82 32 40
        E 0 82 39 40
        E 16 92 2d 64
        E 80 82 2d 40
        E 16 92 34 64
        E 0 92 39 64
        E 0 92 37 64
        E 80 82 34 40
        E 0 82 39 40
        E 0 82 37 40
        E 16 92 26 64
        E 80 82 26 40
        E 16 92 39 64
        E 0 92 32 64
        E 0 92 35 64
        E 32 82 39 40
        E 0 82 32 40
        E 0 82 35 40
        E 16 92 35 64
        E 0 92 32 64
        E 0 92 39 64
        E 32 82 35 40
        E 0 82 32 40
        E 0 82 39 40
        E 16 92 39 64
        E 0 92 32 64
        E 0 92 35 64
        E 80 82 39 40
        E 0 82 32 40
        E 0 82 35 40
        E 304 92 3a 64
        E 0 92 34 64
        E 80 82 3a 40
        E 0 82 34 40
        E 112 92 30 64
        E 0 92 3a 64
        E 0 92 34 64
        E 80 82 30 40
        E 0 82 3a 40
        E 0 82 34 40
        E 16 92 30 64
        E 80 82 30 40
        E 16 92 3a 64
        E 0 92 34 64
        E 80 82 3a 40
        E 0 82 34 40
        E 16 92 30 64
        E 80 82 30 40
        E 16 92 39 64
        E 0 92 35 64
        E 80 82 39 40
        E 0 82 35 40
        E 16 92 30 64
        E 80 82 30 40
        E 16 92 35 64
        E 0 92 39 64
        E 80 82 35 40
        E 0 82 39 40
        E 16 92 30 64
        E 80 82 30 40
        E 16 92 35 64
        E 0 92 39 64
        E 80 82 35 40
        E 0 82 39 40
        E 16 92 30 64
        E 80 82 30 40
        E 16 92 3a 64
        E 0 92 34 64
        E 80 82 3a 40
        E 0 82 34 40
        E 16 92 30 64
        E 80 82 30 40
        E 16 92 3a 64
        E 0 92 34 64
        E 80 82 3a 40
        E 0 82 34 40
        E 16 92 30 64
        E 80 82 30 40
        E 16 92 3a 64
        E 0 92 34 64
        E 80 82 3a 40
        E 0 82 34 40
        E 16 92 30 64
        E 80 82 30 40
        E 16 92 29 64
        E 80 82 29 40
        E 16 92 30 64
        E 0 92 39 64
        E 0 92 35 64
        E 32 82 30 40
        E 0 82 39 40
        E 0 82 35 40
        E 16 92 30 64
        E 0 92 39 64
        E 0 92 35 64
        E 32 82 30 40
        E 0 82 39 40
        E 0 82 35 40
        E 16 92 30 64
        E 0 92 39 64
        E 0 92 35 64
        E 80 82 30 40
        E 0 82 39 40
        E 0 82 35 40
        E 304 92 2e 64
        E 80 82 2e 40
        E 16 92 3a 64
        E 0 92 32 64
        E 0 92 35 64
        E 32 82 3a 40
        E 0 82 32 40
        E 0 82 35 40
        E 16 92 3a 64
        E 0 92 32 64
        E 0 92 35 64
        E 32 82 3a 40
        E 0 82 32 40
        E 0 82 35 40
        E 16 92 3a 64
        E 0 92 32 64
        E 0 92 35 64
        E 80 82 3a 40
        E 0 82 32 40
        E 0 82 35 40
        E 16 92 3a 64
        E 0 92 32 64
        E 0 92 35 64
        E 80 82 3a 40
        E 0 82 32 40
        E 0 82 35 40
        E 16 92 26 64
        E 80 82 26 40
        E 16 92 36 64
        E 0 92 39 64
        E 0 92 32 64
        E 80 82 36 40
        E 0 82 39 40
        E 0 82 32 40
        E 16 92 2b 64
        E 80 82 2b 40
        E 16 92 32 64
        E 0 92 2e 64
        E 0 92 37 64
        E 32 82 32 40
        E 0 82 2e 40
        E 0 82 37 40
        E 16 92 37 64
        E 0 92 2e 64
        E 0 92 32 64
        E 32 82 37 40
        E 0 82 2e 40
        E 0 82 32 40
        E 16 92 32 64
        E 0 92 2e 64
        E 0 92 37 64
        E 80 82 32 40
        E 0 82 2e 40
        E 0 82 37 40
        E 16 92 32 64
        E 0 92 37 64
        E 0 92 2e 64
        E 80 82 32 40
        E 0 82 37 40
        E 0 82 2e 40
        E 16 92 2e 64
        E 80 82 2e 40
        E 16 92 37 64
        E 0 92 32 64
        E 80 82 37 40
        E 0 82 32 40
        E 16 92 30 64
        E 80 82 30 40
        E 16 92 35 64
        E 0 92 39 64
        E 32 82 35 40
        E 0 82 39 40
        E 16 92 35 64
        E 0 92 39 64
        E 32 82 35 40
        E 0 82 39 40
        E 16 92 39 64
        E 0 92 35 64
        E 80 82 39 40
        E 0 82 35 40
        E 16 92 35 64
        E 0 92 39 64
        E 80 82 35 40
        E 0 82 39 40
        E 16 92 30 64
        E 80 82 30 40
        E 16 92 3a 64
        E 0 92 34 64
        E 0 92 37 64
        E 80 82 3a 40
        E 0 82 34 40
        E 0 82 37 40
        E 16 92 29 64
        E 80 82 29 40
        E 16 92 30 64
        E 0 92 35 64
        E 0 92 39 64
        E 32 82 30 40
        E 0 82 35 40
        E 0 82 39 40
        E 16 92 30 64
        E 0 92 35 64
        E 0 92 39 64
        E 32 82 30 40
        E 0 82 35 40
        E 0 82 39 40
        E 16 92 30 64
        E 0 92 35 64
        E 0 92 39 64
        E 80 82 30 40
        E 0 82 35 40
        E 0 82 39 40
        E 16 92 30 64
        E 0 92 35 64
        E 0 92 39 64
        E 80 82 30 40
        E 0 82 35 40
        E 0 82 39 40
        E 16 92 30 64
        E 0 92 35 64
        E 0 92 39 64
        E 80 82 30 40
        E 0 82 35 40
        E 0 82 39 40
        E 16 92 30 64
        E 0 92 39 64
        E 0 92 35 64
        E 80 82 30 40
        E 0 82 39 40
        E 0 82 35 40
        E 16 92 2e 64
        E 80 82 2e 40
        E 16 92 3a 64
        E 0 92 32 64
        E 0 92 35 64
        E 32 82 3a 40
        E 0 82 32 40
        E 0 82 35 40
        E 16 92 32 64
        E 0 92 3a 64
        E 0 92 35 64
        E 32 82 32 40
        E 0 82 3a 40
        E 0 82 35 40
        E 16 92 32 64
        E 0 92 3a 64
        E 0 92 35 64
        E 80 82 32 40
        E 0 82 3a 40
        E 0 82 35 40
        E 16 92 32 64
        E 0 92 3a 64
        E 0 92 35 64
        E 80 82 32 40
        E 0 82 3a 40
        E 0 82 35 40
        E 16 92 26 64
        E 80 82 26 40
        E 16 92 39 64
        E 0 92 36 64
        E 0 92 32 64
        E 80 82 39 40
        E 0 82 36 40
        E 0 82 32 40
        E 16 92 2b 64
        E 80 82 2b 40
        E 16 92 2e 64
        E 0 92 37 64
        E 0 92 32 64
        E 32 82 2e 40
        E 0 82 37 40
        E 0 82 32 40
        E 16 92 32 64
        E 0 92 2e 64
        E 0 92 37 64
        E 32 82 32 40
        E 0 82 2e 40
        E 0 82 37 40
        E 16 92 2e 64
        E 0 92 37 64
        E 0 92 32 64
        E 80 82 2e 40
        E 0 82 37 40
        E 0 82 32 40
        E 16 92 2e 64
        E 0 92 37 64
        E 0 92 32 64
        E 80 82 2e 40
        E 0 82 37 40
        E 0 82 32 40
        E 16 92 2e 64
        E 80 82 2e 40
        E 16 92 37 64
        E 0 92 32 64
        E 80 82 37 40
        E 0 82 32 40
        E 16 92 30 64
        E 80 82 30 40
        E 16 92 35 64
        E 0 92 39 64
        E 32 82 35 40
        E 0 82 39 40
        E 16 92 35 64
        E 0 92 39 64
        E 32 82 35 40
        E 0 82 39 40
        E 16 92 35 64
        E 0 92 39 64
        E 80 82 35 40
        E 0 82 39 40
        E 16 92 35 64
        E 0 92 39 64
        E 80 82 35 40
        E 0 82 39 40
        E 16 92 30 64
        E 80 82 30 40
        E 16 92 3a 64
        E 0 92 37 64
        E 80 82 3a 40
        E 0 82 37 40
        E 16 92 35 64
        E 0 92 39 64
        E 176 82 35 40
        E 0 82 39 40
        E 16 92 29 64
        E 0 92 35 64
        E 80 82 29 40
        E 0 82 35 40
        E 112 b0 7b 00
        GUID {E1646D04-DB3C-D348-8FD9-EEAE54FB9607}
        IGNTEMPO 0 120 4 4
        SRCCOLOR 630
        VELLANE -1 86 6
      >
      TAKE
      NAME "L.H.                 - National_Anthems_-_Cyprus.mid"
      TAKEVOLPAN 0 1 -1
      SOFFS 1 2
      PLAYRATE 1 1 0 -1 0 0.0025
      CHANMODE 0
      GUID {BE25C70F-EC0E-6142-AE55-A9B50802B3E7}
      <SOURCE MIDI
        HASDATA 1 192 QN
        POOLEDEVTS {F7247B2C-DA96-9A4B-90CE-04898E70CE76}
        <X 0 0 0 0 3 "L.H.                "
          /wNMLkguICAgICAgICAgICAgICAgIA==
        >
        E 576 92 35 64
        E 0 92 29 64
        E 80 82 35 40
        E 0 82 29 40
        E 16 92 3c 64
        E 0 92 39 64
        E 0 92 35 64
        E 32 82 3c 40
        E 0 82 39 40
        E 0 82 35 40
        E 16 92 39 64
        E 0 92 3c 64
        E 0 92 35 64
        E 32 82 39 40
        E 0 82 3c 40
        E 0 82 35 40
        E 16 92 35 64
        E 0 92 3c 64
        E 0 92 39 64
        E 80 82 35 40
        E 0 82 3c 40
        E 0 82 39 40
        E 16 92 3c 64
        E 0 92 35 64
        E 0 92 39 64
        E 80 82 3c 40
        E 0 82 35 40
        E 0 82 39 40
        E 16 92 35 64
        E 0 92 3c 64
        E 0 92 39 64
        E 80 82 35 40
        E 0 82 3c 40
        E 0 82 39 40
        E 16 92 3c 64
        E 0 92 35 64
        E 0 92 39 64
        E 80 82 3c 40
        E 0 82 35 40
        E 0 82 39 40
        E 16 92 29 64
        E 80 82 29 40
        E 16 92 35 64
        E 0 92 3c 64
        E 0 92 39 64
        E 32 82 35 40
        E 0 82 3c 40
        E 0 82 39 40
        E 16 92 3c 64
        E 0 92 39 64
        E 0 92 35 64
        E 32 82 3c 40
        E 0 82 39 40
        E 0 82 35 40
        E 16 92 3c 64
        E 0 92 35 64
        E 0 92 39 64
        E 80 82 3c 40
        E 0 82 35 40
        E 0 82 39 40
        E 16 92 35 64
        E 0 92 39 64
        E 0 92 3c 64
        E 80 82 35 40
        E 0 82 39 40
        E 0 82 3c 40
        E 16 92 39 64
        E 0 92 3c 64
        E 0 92 35 64
        E 80 82 39 40
        E 0 82 3c 40
        E 0 82 35 40
        E 16 92 39 64
        E 0 92 3c 64
        E 0 92 35 64
        E 80 82 39 40
        E 0 82 3c 40
        E 0 82 35 40
        E 16 92 2e 64
        E 80 82 2e 40
        E 16 92 3a 64
        E 0 92 37 64
        E 0 92 32 64
        E 32 82 3a 40
        E 0 82 37 40
        E 0 82 32 40
        E 16 92 32 64
        E 0 92 37 64
        E 0 92 3a 64
        E 32 82 32 40
        E 0 82 37 40
        E 0 82 3a 40
        E 16 92 37 64
        E 0 92 3a 64
        E 0 92 32 64
        E 80 82 37 40
        E 0 82 3a 40
        E 0 82 32 40
        E 16 92 3a 64
        E 0 92 32 64
        E 0 92 37 64
        E 80 82 3a 40
        E 0 82 32 40
        E 0 82 37 40
        E 16 92 24 64
        E 0 92 30 64
        E 80 82 24 40
        E 0 82 30 40
        E 16 92 3c 64
        E 0 92 34 64
        E 80 82 3c 40
        E 0 82 34 40
        E 16 92 29 64
        E 80 82 29 40
        E 16 92 3c 64
        E 0 92 35 64
        E 0 92 39 64
        E 32 82 3c 40
        E 0 82 35 40
        E 0 82 39 40
        E 16 92 35 64
        E 0 92 39 64
        E 0 92 3c 64
        E 32 82 35 40
        E 0 82 39 40
        E 0 82 3c 40
        E 16 92 3c 64
        E 0 92 35 64
        E 0 92 39 64
        E 80 82 3c 40
        E 0 82 35 40
        E 0 82 39 40
        E 16 92 39 64
        E 0 92 35 64
        E 0 92 3c 64
        E 80 82 39 40
        E 0 82 35 40
        E 0 82 3c 40
        E 208 92 24 64
        E 0 92 30 64
        E 80 82 24 40
        E 0 82 30 40
        E 16 92 3c 64
        E 0 92 3a 64
        E 0 92 34 64
        E 0 92 37 64
        E 32 82 3c 40
        E 0 82 3a 40
        E 0 82 34 40
        E 0 82 37 40
        E 16 92 3a 64
        E 0 92 34 64
        E 0 92 3c 64
        E 0 92 37 64
        E 32 82 3a 40
        E 0 82 34 40
        E 0 82 3c 40
        E 0 82 37 40
        E 16 92 34 64
        E 0 92 3c 64
        E 0 92 3a 64
        E 0 92 37 64
        E 80 82 34 40
        E 0 82 3c 40
        E 0 82 3a 40
        E 0 82 37 40
        E 16 92 34 64
        E 0 92 3a 64
        E 0 92 3c 64
        E 0 92 37 64
        E 80 82 34 40
        E 0 82 3a 40
        E 0 82 3c 40
        E 0 82 37 40
        E 16 92 3a 64
        E 0 92 34 64
        E 0 92 3c 64
        E 0 92 37 64
        E 80 82 3a 40
        E 0 82 34 40
        E 0 82 3c 40
        E 0 82 37 40
        E 16 92 3a 64
        E 0 92 34 64
        E 0 92 3c 64
        E 0 92 37 64
        E 80 82 3a 40
        E 0 82 34 40
        E 0 82 3c 40
        E 0 82 37 40
        E 16 92 30 64
        E 0 92 24 64
        E 80 82 30 40
        E 0 82 24 40
        E 16 92 34 64
        E 0 92 3a 64
        E 0 92 3c 64
        E 0 92 37 64
        E 32 82 34 40
        E 0 82 3a 40
        E 0 82 3c 40
        E 0 82 37 40
        E 16 92 3a 64
        E 0 92 34 64
        E 0 92 37 64
        E 0 92 3c 64
        E 32 82 3a 40
        E 0 82 34 40
        E 0 82 37 40
        E 0 82 3c 40
        E 16 92 3a 64
        E 0 92 34 64
        E 0 92 37 64
        E 0 92 3c 64
        E 80 82 3a 40
        E 0 82 34 40
        E 0 82 37 40
        E 0 82 3c 40
        E 16 92 34 64
        E 0 92 3a 64
        E 0 92 37 64
        E 0 92 3c 64
        E 80 82 34 40
        E 0 82 3a 40
        E 0 82 37 40
        E 0 82 3c 40
        E 16 92 3a 64
        E 0 92 34 64
        E 0 92 3c 64
        E 0 92 37 64
        E 80 82 3a 40
        E 0 82 34 40
        E 0 82 3c 40
        E 0 82 37 40
        E 16 92 3a 64
        E 0 92 34 64
        E 0 92 3c 64
        E 0 92 37 64
        E 80 82 3a 40
        E 0 82 34 40
        E 0 82 3c 40
        E 0 82 37 40
        E 16 92 24 64
        E 0 92 30 64
        E 80 82 24 40
        E 0 82 30 40
        E 16 92 3a 64
        E 0 92 34 64
        E 0 92 3c 64
        E 0 92 37 64
        E 32 82 3a 40
        E 0 82 34 40
        E 0 82 3c 40
        E 0 82 37 40
        E 16 92 34 64
        E 0 92 3a 64
        E 0 92 37 64
        E 0 92 3c 64
        E 32 82 34 40
        E 0 82 3a 40
        E 0 82 37 40
        E 0 82 3c 40
        E 16 92 3a 64
        E 0 92 34 64
        E 0 92 3c 64
        E 0 92 37 64
        E 80 82 3a 40
        E 0 82 34 40
        E 0 82 3c 40
        E 0 82 37 40
        E 16 92 3a 64
        E 0 92 34 64
        E 0 92 37 64
        E 0 92 3c 64
        E 80 82 3a 40
        E 0 82 34 40
        E 0 82 37 40
        E 0 82 3c 40
        E 16 92 3a 64
        E 0 92 3c 64
        E 0 92 34 64
        E 0 92 37 64
        E 80 82 3a 40
        E 0 82 3c 40
        E 0 82 34 40
        E 0 82 37 40
        E 16 92 3a 64
        E 0 92 34 64
        E 0 92 3c 64
        E 0 92 37 64
        E 80 82 3a 40
        E 0 82 34 40
        E 0 82 3c 40
        E 0 82 37 40
        E 16 92 29 64
        E 80 82 29 40
        E 16 92 35 64
        E 0 92 3c 64
        E 0 92 39 64
        E 32 82 35 40
        E 0 82 3c 40
        E 0 82 39 40
        E 16 92 35 64
        E 0 92 39 64
        E 0 92 3c 64
        E 32 82 35 40
        E 0 82 39 40
        E 0 82 3c 40
        E 16 92 39 64
        E 0 92 35 64
        E 0 92 3c 64
        E 176 82 39 40
        E 0 82 35 40
        E 0 82 3c 40
        E 208 92 26 64
        E 80 82 26 40
        E 16 92 32 64
        E 0 92 39 64
        E 0 92 35 64
        E 32 82 32 40
        E 0 82 39 40
        E 0 82 35 40
        E 16 92 32 64
        E 0 92 35 64
        E 0 92 39 64
        E 32 82 32 40
        E 0 82 35 40
        E 0 82 39 40
        E 16 92 32 64
        E 0 92 35 64
        E 0 92 39 64
        E 80 82 32 40
        E 0 82 35 40
        E 0 82 39 40
        E 16 92 32 64
        E 0 92 35 64
        E 0 92 39 64
        E 80 82 32 40
        E 0 82 35 40
        E 0 82 39 40
        E 16 92 2d 64
        E 80 82 2d 40
        E 16 92 39 64
        E 0 92 34 64
        E 0 92 37 64
        E 80 82 39 40
        E 0 82 34 40
        E 0 82 37 40
        E 16 92 26 64
        E 80 82 26 40
        E 16 92 32 64
        E 0 92 39 64
        E 0 92 35 64
        E 32 82 32 40
        E 0 82 39 40
        E 0 82 35 40
        E 16 92 32 64
        E 0 92 39 64
        E 0 92 35 64
        E 32 82 32 40
        E 0 82 39 40
        E 0 82 35 40
        E 16 92 32 64
        E 0 92 35 64
        E 0 92 39 64
        E 80 82 32 40
        E 0 82 35 40
        E 0 82 39 40
        E 16 92 32 64
        E 0 92 35 64
        E 0 92 39 64
        E 80 82 32 40
        E 0 82 35 40
        E 0 82 39 40
        E 16 92 32 64
        E 0 92 35 64
        E 0 92 39 64
        E 80 82 32 40
        E 0 82 35 40
        E 0 82 39 40
        E 16 92 32 64
        E 0 92 35 64
        E 0 92 39 64
        E 80 82 32 40
        E 0 82 35 40
        E 0 82 39 40
        E 16 92 26 64
        E 80 82 26 40
        E 16 92 32 64
        E 0 92 39 64
        E 0 92 35 64
        E 32 82 32 40
        E 0 82 39 40
        E 0 82 35 40
        E 16 92 32 64
        E 0 92 39 64
        E 0 92 35 64
        E 32 82 32 40
        E 0 82 39 40
        E 0 82 35 40
        E 16 92 32 64
        E 0 92 39 64
        E 0 92 35 64
        E 80 82 32 40
        E 0 82 39 40
        E 0 82 35 40
        E 16 92 35 64
        E 0 92 32 64
        E 0 92 39 64
        E 80 82 35 40
        E 0 82 32 40
        E 0 82 39 40
        E 16 92 2d 64
        E 80 82 2d 40
        E 16 92 34 64
        E 0 92 39 64
        E 0 92 37 64
        E 80 82 34 40
        E 0 82 39 40
        E 0 82 37 40
        E 16 92 26 64
        E 80 82 26 40
        E 16 92 39 64
        E 0 92 32 64
        E 0 92 35 64
        E 32 82 39 40
        E 0 82 32 40
        E 0 82 35 40
        E 16 92 35 64
        E 0 92 32 64
        E 0 92 39 64
        E 32 82 35 40
        E 0 82 32 40
        E 0 82 39 40
        E 16 92 39 64
        E 0 92 32 64
        E 0 92 35 64
        E 80 82 39 40
        E 0 82 32 40
        E 0 82 35 40
        E 304 92 3a 64
        E 0 92 34 64
        E 80 82 3a 40
        E 0 82 34 40
        E 112 92 30 64
        E 0 92 3a 64
        E 0 92 34 64
        E 80 82 30 40
        E 0 82 3a 40
        E 0 82 34 40
        E 16 92 30 64
        E 80 82 30 40
        E 16 92 3a 64
        E 0 92 34 64
        E 80 82 3a 40
        E 0 82 34 40
        E 16 92 30 64
        E 80 82 30 40
        E 16 92 39 64
        E 0 92 35 64
        E 80 82 39 40
        E 0 82 35 40
        E 16 92 30 64
        E 80 82 30 40
        E 16 92 35 64
        E 0 92 39 64
        E 80 82 35 40
        E 0 82 39 40
        E 16 92 30 64
        E 80 82 30 40
        E 16 92 35 64
        E 0 92 39 64
        E 80 82 35 40
        E 0 82 39 40
        E 16 92 30 64
        E 80 82 30 40
        E 16 92 3a 64
        E 0 92 34 64
        E 80 82 3a 40
        E 0 82 34 40
        E 16 92 30 64
        E 80 82 30 40
        E 16 92 3a 64
        E 0 92 34 64
        E 80 82 3a 40
        E 0 82 34 40
        E 16 92 30 64
        E 80 82 30 40
        E 16 92 3a 64
        E 0 92 34 64
        E 80 82 3a 40
        E 0 82 34 40
        E 16 92 30 64
        E 80 82 30 40
        E 16 92 29 64
        E 80 82 29 40
        E 16 92 30 64
        E 0 92 39 64
        E 0 92 35 64
        E 32 82 30 40
        E 0 82 39 40
        E 0 82 35 40
        E 16 92 30 64
        E 0 92 39 64
        E 0 92 35 64
        E 32 82 30 40
        E 0 82 39 40
        E 0 82 35 40
        E 16 92 30 64
        E 0 92 39 64
        E 0 92 35 64
        E 80 82 30 40
        E 0 82 39 40
        E 0 82 35 40
        E 304 92 2e 64
        E 80 82 2e 40
        E 16 92 3a 64
        E 0 92 32 64
        E 0 92 35 64
        E 32 82 3a 40
        E 0 82 32 40
        E 0 82 35 40
        E 16 92 3a 64
        E 0 92 32 64
        E 0 92 35 64
        E 32 82 3a 40
        E 0 82 32 40
        E 0 82 35 40
        E 16 92 3a 64
        E 0 92 32 64
        E 0 92 35 64
        E 80 82 3a 40
        E 0 82 32 40
        E 0 82 35 40
        E 16 92 3a 64
        E 0 92 32 64
        E 0 92 35 64
        E 80 82 3a 40
        E 0 82 32 40
        E 0 82 35 40
        E 16 92 26 64
        E 80 82 26 40
        E 16 92 36 64
        E 0 92 39 64
        E 0 92 32 64
        E 80 82 36 40
        E 0 82 39 40
        E 0 82 32 40
        E 16 92 2b 64
        E 80 82 2b 40
        E 16 92 32 64
        E 0 92 2e 64
        E 0 92 37 64
        E 32 82 32 40
        E 0 82 2e 40
        E 0 82 37 40
        E 16 92 37 64
        E 0 92 2e 64
        E 0 92 32 64
        E 32 82 37 40
        E 0 82 2e 40
        E 0 82 32 40
        E 16 92 32 64
        E 0 92 2e 64
        E 0 92 37 64
        E 80 82 32 40
        E 0 82 2e 40
        E 0 82 37 40
        E 16 92 32 64
        E 0 92 37 64
        E 0 92 2e 64
        E 80 82 32 40
        E 0 82 37 40
        E 0 82 2e 40
        E 16 92 2e 64
        E 80 82 2e 40
        E 16 92 37 64
        E 0 92 32 64
        E 80 82 37 40
        E 0 82 32 40
        E 16 92 30 64
        E 80 82 30 40
        E 16 92 35 64
        E 0 92 39 64
        E 32 82 35 40
        E 0 82 39 40
        E 16 92 35 64
        E 0 92 39 64
        E 32 82 35 40
        E 0 82 39 40
        E 16 92 39 64
        E 0 92 35 64
        E 80 82 39 40
        E 0 82 35 40
        E 16 92 35 64
        E 0 92 39 64
        E 80 82 35 40
        E 0 82 39 40
        E 16 92 30 64
        E 80 82 30 40
        E 16 92 3a 64
        E 0 92 34 64
        E 0 92 37 64
        E 80 82 3a 40
        E 0 82 34 40
        E 0 82 37 40
        E 16 92 29 64
        E 80 82 29 40
        E 16 92 30 64
        E 0 92 35 64
        E 0 92 39 64
        E 32 82 30 40
        E 0 82 35 40
        E 0 82 39 40
        E 16 92 30 64
        E 0 92 35 64
        E 0 92 39 64
        E 32 82 30 40
        E 0 82 35 40
        E 0 82 39 40
        E 16 92 30 64
        E 0 92 35 64
        E 0 92 39 64
        E 80 82 30 40
        E 0 82 35 40
        E 0 82 39 40
        E 16 92 30 64
        E 0 92 35 64
        E 0 92 39 64
        E 80 82 30 40
        E 0 82 35 40
        E 0 82 39 40
        E 16 92 30 64
        E 0 92 35 64
        E 0 92 39 64
        E 80 82 30 40
        E 0 82 35 40
        E 0 82 39 40
        E 16 92 30 64
        E 0 92 39 64
        E 0 92 35 64
        E 80 82 30 40
        E 0 82 39 40
        E 0 82 35 40
        E 16 92 2e 64
        E 80 82 2e 40
        E 16 92 3a 64
        E 0 92 32 64
        E 0 92 35 64
        E 32 82 3a 40
        E 0 82 32 40
        E 0 82 35 40
        E 16 92 32 64
        E 0 92 3a 64
        E 0 92 35 64
        E 32 82 32 40
        E 0 82 3a 40
        E 0 82 35 40
        E 16 92 32 64
        E 0 92 3a 64
        E 0 92 35 64
        E 80 82 32 40
        E 0 82 3a 40
        E 0 82 35 40
        E 16 92 32 64
        E 0 92 3a 64
        E 0 92 35 64
        E 80 82 32 40
        E 0 82 3a 40
        E 0 82 35 40
        E 16 92 26 64
        E 80 82 26 40
        E 16 92 39 64
        E 0 92 36 64
        E 0 92 32 64
        E 80 82 39 40
        E 0 82 36 40
        E 0 82 32 40
        E 16 92 2b 64
        E 80 82 2b 40
        E 16 92 2e 64
        E 0 92 37 64
        E 0 92 32 64
        E 32 82 2e 40
        E 0 82 37 40
        E 0 82 32 40
        E 16 92 32 64
        E 0 92 2e 64
        E 0 92 37 64
        E 32 82 32 40
        E 0 82 2e 40
        E 0 82 37 40
        E 16 92 2e 64
        E 0 92 37 64
        E 0 92 32 64
        E 80 82 2e 40
        E 0 82 37 40
        E 0 82 32 40
        E 16 92 2e 64
        E 0 92 37 64
        E 0 92 32 64
        E 80 82 2e 40
        E 0 82 37 40
        E 0 82 32 40
        E 16 92 2e 64
        E 80 82 2e 40
        E 16 92 37 64
        E 0 92 32 64
        E 80 82 37 40
        E 0 82 32 40
        E 16 92 30 64
        E 80 82 30 40
        E 16 92 35 64
        E 0 92 39 64
        E 32 82 35 40
        E 0 82 39 40
        E 16 92 35 64
        E 0 92 39 64
        E 32 82 35 40
        E 0 82 39 40
        E 16 92 35 64
        E 0 92 39 64
        E 80 82 35 40
        E 0 82 39 40
        E 16 92 35 64
        E 0 92 39 64
        E 80 82 35 40
        E 0 82 39 40
        E 16 92 30 64
        E 80 82 30 40
        E 16 92 3a 64
        E 0 92 37 64
        E 80 82 3a 40
        E 0 82 37 40
        E 16 92 35 64
        E 0 92 39 64
        E 176 82 35 40
        E 0 82 39 40
        E 16 92 29 64
        E 0 92 35 64
        E 80 82 29 40
        E 0 82 35 40
        E 112 b0 7b 00
        GUID {3D1A3879-5EC1-F541-A48D-A174F8CFADBC}
        IGNTEMPO 0 120 4 4
        SRCCOLOR 683
        VELLANE -1 108 6
      >
    >
    <ITEM
      POSITION 0
      SNAPOFFS 0
      LENGTH 36
      LOOP 1
      ALLTAKES 0
      FADEIN 1 0 0 1 0 0
      FADEOUT 1 0 0 1 0 0
      MUTE 0
      SEL 0
      YPOS 0.666667 0.166667
      IGUID {D056CC99-8F71-6844-BE26-23FD3C9DE12B}
      IID 5
      NAME "RH                   - National_Anthems_-_Cyprus.mid"
      VOLPAN 1 0 1 -1
      SOFFS 1 2
      PLAYRATE 1 1 0 -1 0 0.0025
      CHANMODE 0
      TAKECOLOR 26173599 B
      GUID {65D07931-56E3-EB4D-B2C1-9CF21F56E52B}
      <SOURCE MIDI
        HASDATA 1 192 QN
        POOLEDEVTS {13649FBF-28A0-5346-883F-6B1C57A23F88}
        <X 0 0 0 0 3 "RH                  "
          /wNSSCAgICAgICAgICAgICAgICAgIA==
        >
        E 384 9c 41 7f
        E 0 9c 45 7f
        E 128 8c 41 40
        E 0 8c 45 40
        E 16 9c 46 7f
        E 0 9c 43 7f
        E 32 8c 46 40
        E 0 8c 43 40
        E 16 9c 45 7f
        E 0 9c 48 7f
        E 320 8c 45 40
        E 0 8c 48 40
        E 16 9c 46 7f
        E 0 9c 43 7f
        E 32 8c 46 40
        E 0 8c 43 40
        E 16 9c 45 7f
        E 0 9c 41 7f
        E 128 8c 45 40
        E 0 8c 41 40
        E 16 9c 46 7f
        E 0 9c 43 7f
        E 32 8c 46 40
        E 0 8c 43 40
        E 16 9c 48 7f
        E 0 9c 45 7f
        E 176 8c 48 40
        E 0 8c 45 40
        E 16 9c 45 7f
        E 0 9c 41 7f
        E 80 8c 45 40
        E 0 8c 41 40
        E 112 9c 46 7f
        E 0 9c 43 7f
        E 128 8c 46 40
        E 0 8c 43 40
        E 16 9c 45 7f
        E 0 9c 48 7f
        E 32 8c 45 40
        E 0 8c 48 40
        E 16 9c 4a 7f
        E 0 9c 46 7f
        E 320 8c 4a 40
        E 0 8c 46 40
        E 16 9c 46 7f
        E 0 9c 4a 7f
        E 32 8c 46 40
        E 0 8c 4a 40
        E 16 9c 48 7f
        E 0 9c 4c 7f
        E 128 8c 48 40
        E 0 8c 4c 40
        E 16 9c 48 7f
        E 0 9c 4c 7f
        E 32 8c 48 40
        E 0 8c 4c 40
        E 16 9c 4d 7f
        E 0 9c 45 7f
        E 272 8c 4d 40
        E 0 8c 45 40
        E 112 9c 40 7f
        E 0 9c 43 7f
        E 128 8c 40 40
        E 0 8c 43 40
        E 16 9c 45 7f
        E 0 9c 41 7f
        E 32 8c 45 40
        E 0 8c 41 40
        E 16 9c 46 7f
        E 0 9c 43 7f
        E 320 8c 46 40
        E 0 8c 43 40
        E 16 9c 45 7f
        E 0 9c 41 7f
        E 32 8c 45 40
        E 0 8c 41 40
        E 16 9c 43 7f
        E 0 9c 40 7f
        E 128 8c 43 40
        E 0 8c 40 40
        E 16 9c 41 7f
        E 0 9c 45 7f
        E 32 8c 41 40
        E 0 8c 45 40
        E 16 9c 46 7f
        E 0 9c 43 7f
        E 176 8c 46 40
        E 0 8c 43 40
        E 16 9c 40 7f
        E 0 9c 43 7f
        E 80 8c 40 40
        E 0 8c 43 40
        E 112 9c 48 7f
        E 128 8c 48 40
        E 16 9c 48 7f
        E 32 8c 48 40
        E 16 9c 4c 7f
        E 0 9c 48 7f
        E 320 8c 4c 40
        E 0 8c 48 40
        E 16 9c 4a 7f
        E 0 9c 46 7f
        E 32 8c 4a 40
        E 0 8c 46 40
        E 16 9c 45 7f
        E 0 9c 48 7f
        E 128 8c 45 40
        E 0 8c 48 40
        E 16 9c 46 7f
        E 0 9c 43 7f
        E 32 8c 46 40
        E 0 8c 43 40
        E 16 9c 41 7f
        E 0 9c 45 7f
        E 272 8c 41 40
        E 0 8c 45 40
        E 112 9c 45 7f
        E 128 8c 45 40
        E 16 9c 45 7f
        E 32 8c 45 40
        E 16 9c 41 7f
        E 0 9c 45 7f
        E 0 9c 4a 7f
        E 320 8c 4a 40
        E 16 9c 4d 7f
        E 32 8c 41 40
        E 0 8c 45 40
        E 0 8c 4d 40
        E 16 9c 45 7f
        E 0 9c 43 7f
        E 0 9c 4c 7f
        E 128 8c 4c 40
        E 16 9c 49 7f
        E 32 8c 45 40
        E 0 8c 43 40
        E 0 8c 49 40
        E 16 9c 45 7f
        E 0 9c 4a 7f
        E 0 9c 41 7f
        E 176 8c 45 40
        E 0 8c 4a 40
        E 16 9c 45 7f
        E 80 8c 45 40
        E 96 8c 41 40
        E 16 9c 45 7f
        E 128 8c 45 40
        E 16 9c 45 7f
        E 32 8c 45 40
        E 16 9c 45 7f
        E 0 9c 4a 7f
        E 0 9c 41 7f
        E 320 8c 4a 40
        E 16 9c 4d 7f
        E 32 8c 45 40
        E 0 8c 41 40
        E 0 8c 4d 40
        E 16 9c 45 7f
        E 0 9c 4c 7f
        E 0 9c 43 7f
        E 128 8c 4c 40
        E 16 9c 49 7f
        E 32 8c 45 40
        E 0 8c 43 40
        E 0 8c 49 40
        E 16 9c 45 7f
        E 0 9c 41 7f
        E 0 9c 4a 7f
        E 272 8c 45 40
        E 0 8c 41 40
        E 0 8c 4a 40
        E 112 9c 48 7f
        E 128 8c 48 40
        E 16 9c 48 7f
        E 32 8c 48 40
        E 16 9c 48 7f
        E 176 8c 48 40
        E 16 9c 4c 7f
        E 0 9c 46 7f
        E 0 9c 48 7f
        E 176 8c 4c 40
        E 0 8c 46 40
        E 0 8c 48 40
        E 16 9c 48 7f
        E 0 9c 46 7f
        E 128 8c 48 40
        E 0 8c 46 40
        E 16 9c 46 7f
        E 0 9c 48 7f
        E 32 8c 46 40
        E 0 8c 48 40
        E 16 9c 45 7f
        E 0 9c 48 7f
        E 176 8c 45 40
        E 0 8c 48 40
        E 16 9c 4d 7f
        E 0 9c 48 7f
        E 0 9c 45 7f
        E 176 8c 4d 40
        E 0 8c 48 40
        E 0 8c 45 40
        E 16 9c 45 7f
        E 0 9c 48 7f
        E 128 8c 45 40
        E 0 8c 48 40
        E 16 9c 48 7f
        E 0 9c 45 7f
        E 32 8c 48 40
        E 0 8c 45 40
        E 16 9c 48 7f
        E 0 9c 46 7f
        E 176 8c 48 40
        E 0 8c 46 40
        E 16 9c 46 7f
        E 0 9c 4c 7f
        E 0 9c 43 7f
        E 80 8c 46 40
        E 0 8c 4c 40
        E 0 8c 43 40
        E 64 9c 48 7f
        E 32 8c 48 40
        E 16 9c 4a 7f
        E 128 8c 4a 40
        E 16 9c 4c 7f
        E 32 8c 4c 40
        E 16 9c 45 7f
        E 0 9c 4d 7f
        E 272 8c 45 40
        E 0 8c 4d 40
        E 112 9c 45 7f
        E 0 9c 4d 7f
        E 128 8c 45 40
        E 0 8c 4d 40
        E 16 9c 4c 7f
        E 0 9c 48 7f
        E 32 8c 4c 40
        E 0 8c 48 40
        E 16 9c 48 7f
        E 0 9c 4c 7f
        E 176 8c 48 40
        E 0 8c 4c 40
        E 16 9c 46 7f
        E 0 9c 4a 7f
        E 80 8c 46 40
        E 0 8c 4a 40
        E 112 9c 46 7f
        E 0 9c 4a 7f
        E 128 8c 46 40
        E 0 8c 4a 40
        E 16 9c 48 7f
        E 0 9c 45 7f
        E 32 8c 48 40
        E 0 8c 45 40
        E 16 9c 45 7f
        E 0 9c 48 7f
        E 176 8c 45 40
        E 0 8c 48 40
        E 16 9c 46 7f
        E 0 9c 43 7f
        E 80 8c 46 40
        E 0 8c 43 40
        E 112 9c 46 7f
        E 0 9c 4a 7f
        E 128 8c 46 40
        E 0 8c 4a 40
        E 16 9c 4a 7f
        E 0 9c 46 7f
        E 32 8c 4a 40
        E 0 8c 46 40
        E 16 9c 45 7f
        E 0 9c 48 7f
        E 320 8c 45 40
        E 0 8c 48 40
        E 16 9c 41 7f
        E 0 9c 45 7f
        E 32 8c 41 40
        E 0 8c 45 40
        E 16 9c 46 7f
        E 0 9c 43 7f
        E 128 8c 46 40
        E 0 8c 43 40
        E 16 9c 43 7f
        E 0 9c 40 7f
        E 32 8c 43 40
        E 0 8c 40 40
        E 16 9c 46 7f
        E 0 9c 43 7f
        E 176 8c 46 40
        E 0 8c 43 40
        E 16 9c 41 7f
        E 0 9c 45 7f
        E 80 8c 41 40
        E 0 8c 45 40
        E 112 9c 4d 7f
        E 0 9c 45 7f
        E 128 8c 4d 40
        E 0 8c 45 40
        E 16 9c 4c 7f
        E 0 9c 48 7f
        E 32 8c 4c 40
        E 0 8c 48 40
        E 16 9c 48 7f
        E 0 9c 4c 7f
        E 176 8c 48 40
        E 0 8c 4c 40
        E 16 9c 46 7f
        E 0 9c 4a 7f
        E 80 8c 46 40
        E 0 8c 4a 40
        E 112 9c 4a 7f
        E 0 9c 46 7f
        E 128 8c 4a 40
        E 0 8c 46 40
        E 16 9c 45 7f
        E 0 9c 48 7f
        E 32 8c 45 40
        E 0 8c 48 40
        E 16 9c 45 7f
        E 0 9c 48 7f
        E 176 8c 45 40
        E 0 8c 48 40
        E 16 9c 46 7f
        E 0 9c 43 7f
        E 80 8c 46 40
        E 0 8c 43 40
        E 112 9c 46 7f
        E 0 9c 4a 7f
        E 128 8c 46 40
        E 0 8c 4a 40
        E 16 9c 4a 7f
        E 0 9c 46 7f
        E 32 8c 4a 40
        E 0 8c 46 40
        E 16 9c 45 7f
        E 0 9c 48 7f
        E 320 8c 45 40
        E 0 8c 48 40
        E 16 9c 45 7f
        E 0 9c 41 7f
        E 32 8c 45 40
        E 0 8c 41 40
        E 16 9c 46 7f
        E 0 9c 43 7f
        E 128 8c 46 40
        E 0 8c 43 40
        E 16 9c 40 7f
        E 0 9c 43 7f
        E 32 8c 40 40
        E 0 8c 43 40
        E 16 9c 41 7f
        E 176 8c 41 40
        E 16 9c 45 7f
        E 0 9c 4d 7f
        E 0 9c 48 7f
        E 80 8c 45 40
        E 0 8c 4d 40
        E 0 8c 48 40
        E 112 b0 7b 00
        GUID {53F9FFA6-D51C-D44F-BEEB-7DEC1BC6B7C6}
        IGNTEMPO 0 120 4 4
        SRCCOLOR 632
        VELLANE -1 86 6
        CFGEDITVIEW -128.330323 35.227273 74 12 0 0 0 0 0 0.5
        KEYSNAP 0
        TRACKSEL 226
        EVTFILTER 0 -1 -1 -1 -1 0 0 0 0 -1 -1 -1 -1 0 -1 0 -1 -1
        CFGEDIT 1 1 0 0 0 0 1 0 1 1 1 0.25 474 462 1014 762 1 0 1 3 0 0 0 0 0 -1 0 0 1 64
      >
      TAKE
      NAME "RH                   - National_Anthems_-_Cyprus.mid"
      TAKEVOLPAN 0 1 -1
      SOFFS 1 2
      PLAYRATE 1 1 0 -1 0 0.0025
      CHANMODE 0
      GUID {4573E33E-208D-5E4C-B0A3-E7EB7DEC3E20}
      <SOURCE MIDI
        HASDATA 1 192 QN
        POOLEDEVTS {E1BEBB88-94AA-094B-8C40-40A7ACF6B244}
        <X 0 0 0 0 3 "RH                  "
          /wNSSCAgICAgICAgICAgICAgICAgIA==
        >
        E 384 9c 41 7f
        E 0 9c 45 7f
        E 128 8c 41 40
        E 0 8c 45 40
        E 16 9c 46 7f
        E 0 9c 43 7f
        E 32 8c 46 40
        E 0 8c 43 40
        E 16 9c 45 7f
        E 0 9c 48 7f
        E 320 8c 45 40
        E 0 8c 48 40
        E 16 9c 46 7f
        E 0 9c 43 7f
        E 32 8c 46 40
        E 0 8c 43 40
        E 16 9c 45 7f
        E 0 9c 41 7f
        E 128 8c 45 40
        E 0 8c 41 40
        E 16 9c 46 7f
        E 0 9c 43 7f
        E 32 8c 46 40
        E 0 8c 43 40
        E 16 9c 48 7f
        E 0 9c 45 7f
        E 176 8c 48 40
        E 0 8c 45 40
        E 16 9c 45 7f
        E 0 9c 41 7f
        E 80 8c 45 40
        E 0 8c 41 40
        E 112 9c 46 7f
        E 0 9c 43 7f
        E 128 8c 46 40
        E 0 8c 43 40
        E 16 9c 45 7f
        E 0 9c 48 7f
        E 32 8c 45 40
        E 0 8c 48 40
        E 16 9c 4a 7f
        E 0 9c 46 7f
        E 320 8c 4a 40
        E 0 8c 46 40
        E 16 9c 46 7f
        E 0 9c 4a 7f
        E 32 8c 46 40
        E 0 8c 4a 40
        E 16 9c 48 7f
        E 0 9c 4c 7f
        E 128 8c 48 40
        E 0 8c 4c 40
        E 16 9c 48 7f
        E 0 9c 4c 7f
        E 32 8c 48 40
        E 0 8c 4c 40
        E 16 9c 4d 7f
        E 0 9c 45 7f
        E 272 8c 4d 40
        E 0 8c 45 40
        E 112 9c 40 7f
        E 0 9c 43 7f
        E 128 8c 40 40
        E 0 8c 43 40
        E 16 9c 45 7f
        E 0 9c 41 7f
        E 32 8c 45 40
        E 0 8c 41 40
        E 16 9c 46 7f
        E 0 9c 43 7f
        E 320 8c 46 40
        E 0 8c 43 40
        E 16 9c 45 7f
        E 0 9c 41 7f
        E 32 8c 45 40
        E 0 8c 41 40
        E 16 9c 43 7f
        E 0 9c 40 7f
        E 128 8c 43 40
        E 0 8c 40 40
        E 16 9c 41 7f
        E 0 9c 45 7f
        E 32 8c 41 40
        E 0 8c 45 40
        E 16 9c 46 7f
        E 0 9c 43 7f
        E 176 8c 46 40
        E 0 8c 43 40
        E 16 9c 40 7f
        E 0 9c 43 7f
        E 80 8c 40 40
        E 0 8c 43 40
        E 112 9c 48 7f
        E 128 8c 48 40
        E 16 9c 48 7f
        E 32 8c 48 40
        E 16 9c 4c 7f
        E 0 9c 48 7f
        E 320 8c 4c 40
        E 0 8c 48 40
        E 16 9c 4a 7f
        E 0 9c 46 7f
        E 32 8c 4a 40
        E 0 8c 46 40
        E 16 9c 45 7f
        E 0 9c 48 7f
        E 128 8c 45 40
        E 0 8c 48 40
        E 16 9c 46 7f
        E 0 9c 43 7f
        E 32 8c 46 40
        E 0 8c 43 40
        E 16 9c 41 7f
        E 0 9c 45 7f
        E 272 8c 41 40
        E 0 8c 45 40
        E 112 9c 45 7f
        E 128 8c 45 40
        E 16 9c 45 7f
        E 32 8c 45 40
        E 16 9c 41 7f
        E 0 9c 45 7f
        E 0 9c 4a 7f
        E 320 8c 4a 40
        E 16 9c 4d 7f
        E 32 8c 41 40
        E 0 8c 45 40
        E 0 8c 4d 40
        E 16 9c 45 7f
        E 0 9c 43 7f
        E 0 9c 4c 7f
        E 128 8c 4c 40
        E 16 9c 49 7f
        E 32 8c 45 40
        E 0 8c 43 40
        E 0 8c 49 40
        E 16 9c 45 7f
        E 0 9c 4a 7f
        E 0 9c 41 7f
        E 176 8c 45 40
        E 0 8c 4a 40
        E 16 9c 45 7f
        E 80 8c 45 40
        E 96 8c 41 40
        E 16 9c 45 7f
        E 128 8c 45 40
        E 16 9c 45 7f
        E 32 8c 45 40
        E 16 9c 45 7f
        E 0 9c 4a 7f
        E 0 9c 41 7f
        E 320 8c 4a 40
        E 16 9c 4d 7f
        E 32 8c 45 40
        E 0 8c 41 40
        E 0 8c 4d 40
        E 16 9c 45 7f
        E 0 9c 4c 7f
        E 0 9c 43 7f
        E 128 8c 4c 40
        E 16 9c 49 7f
        E 32 8c 45 40
        E 0 8c 43 40
        E 0 8c 49 40
        E 16 9c 45 7f
        E 0 9c 41 7f
        E 0 9c 4a 7f
        E 272 8c 45 40
        E 0 8c 41 40
        E 0 8c 4a 40
        E 112 9c 48 7f
        E 128 8c 48 40
        E 16 9c 48 7f
        E 32 8c 48 40
        E 16 9c 48 7f
        E 176 8c 48 40
        E 16 9c 4c 7f
        E 0 9c 46 7f
        E 0 9c 48 7f
        E 176 8c 4c 40
        E 0 8c 46 40
        E 0 8c 48 40
        E 16 9c 48 7f
        E 0 9c 46 7f
        E 128 8c 48 40
        E 0 8c 46 40
        E 16 9c 46 7f
        E 0 9c 48 7f
        E 32 8c 46 40
        E 0 8c 48 40
        E 16 9c 45 7f
        E 0 9c 48 7f
        E 176 8c 45 40
        E 0 8c 48 40
        E 16 9c 4d 7f
        E 0 9c 48 7f
        E 0 9c 45 7f
        E 176 8c 4d 40
        E 0 8c 48 40
        E 0 8c 45 40
        E 16 9c 45 7f
        E 0 9c 48 7f
        E 128 8c 45 40
        E 0 8c 48 40
        E 16 9c 48 7f
        E 0 9c 45 7f
        E 32 8c 48 40
        E 0 8c 45 40
        E 16 9c 48 7f
        E 0 9c 46 7f
        E 176 8c 48 40
        E 0 8c 46 40
        E 16 9c 46 7f
        E 0 9c 4c 7f
        E 0 9c 43 7f
        E 80 8c 46 40
        E 0 8c 4c 40
        E 0 8c 43 40
        E 64 9c 48 7f
        E 32 8c 48 40
        E 16 9c 4a 7f
        E 128 8c 4a 40
        E 16 9c 4c 7f
        E 32 8c 4c 40
        E 16 9c 45 7f
        E 0 9c 4d 7f
        E 272 8c 45 40
        E 0 8c 4d 40
        E 112 9c 45 7f
        E 0 9c 4d 7f
        E 128 8c 45 40
        E 0 8c 4d 40
        E 16 9c 4c 7f
        E 0 9c 48 7f
        E 32 8c 4c 40
        E 0 8c 48 40
        E 16 9c 48 7f
        E 0 9c 4c 7f
        E 176 8c 48 40
        E 0 8c 4c 40
        E 16 9c 46 7f
        E 0 9c 4a 7f
        E 80 8c 46 40
        E 0 8c 4a 40
        E 112 9c 46 7f
        E 0 9c 4a 7f
        E 128 8c 46 40
        E 0 8c 4a 40
        E 16 9c 48 7f
        E 0 9c 45 7f
        E 32 8c 48 40
        E 0 8c 45 40
        E 16 9c 45 7f
        E 0 9c 48 7f
        E 176 8c 45 40
        E 0 8c 48 40
        E 16 9c 46 7f
        E 0 9c 43 7f
        E 80 8c 46 40
        E 0 8c 43 40
        E 112 9c 46 7f
        E 0 9c 4a 7f
        E 128 8c 46 40
        E 0 8c 4a 40
        E 16 9c 4a 7f
        E 0 9c 46 7f
        E 32 8c 4a 40
        E 0 8c 46 40
        E 16 9c 45 7f
        E 0 9c 48 7f
        E 320 8c 45 40
        E 0 8c 48 40
        E 16 9c 41 7f
        E 0 9c 45 7f
        E 32 8c 41 40
        E 0 8c 45 40
        E 16 9c 46 7f
        E 0 9c 43 7f
        E 128 8c 46 40
        E 0 8c 43 40
        E 16 9c 43 7f
        E 0 9c 40 7f
        E 32 8c 43 40
        E 0 8c 40 40
        E 16 9c 46 7f
        E 0 9c 43 7f
        E 176 8c 46 40
        E 0 8c 43 40
        E 16 9c 41 7f
        E 0 9c 45 7f
        E 80 8c 41 40
        E 0 8c 45 40
        E 112 9c 4d 7f
        E 0 9c 45 7f
        E 128 8c 4d 40
        E 0 8c 45 40
        E 16 9c 4c 7f
        E 0 9c 48 7f
        E 32 8c 4c 40
        E 0 8c 48 40
        E 16 9c 48 7f
        E 0 9c 4c 7f
        E 176 8c 48 40
        E 0 8c 4c 40
        E 16 9c 46 7f
        E 0 9c 4a 7f
        E 80 8c 46 40
        E 0 8c 4a 40
        E 112 9c 4a 7f
        E 0 9c 46 7f
        E 128 8c 4a 40
        E 0 8c 46 40
        E 16 9c 45 7f
        E 0 9c 48 7f
        E 32 8c 45 40
        E 0 8c 48 40
        E 16 9c 45 7f
        E 0 9c 48 7f
        E 176 8c 45 40
        E 0 8c 48 40
        E 16 9c 46 7f
        E 0 9c 43 7f
        E 80 8c 46 40
        E 0 8c 43 40
        E 112 9c 46 7f
        E 0 9c 4a 7f
        E 128 8c 46 40
        E 0 8c 4a 40
        E 16 9c 4a 7f
        E 0 9c 46 7f
        E 32 8c 4a 40
        E 0 8c 46 40
        E 16 9c 45 7f
        E 0 9c 48 7f
        E 320 8c 45 40
        E 0 8c 48 40
        E 16 9c 45 7f
        E 0 9c 41 7f
        E 32 8c 45 40
        E 0 8c 41 40
        E 16 9c 46 7f
        E 0 9c 43 7f
        E 128 8c 46 40
        E 0 8c 43 40
        E 16 9c 40 7f
        E 0 9c 43 7f
        E 32 8c 40 40
        E 0 8c 43 40
        E 16 9c 41 7f
        E 176 8c 41 40
        E 16 9c 45 7f
        E 0 9c 4d 7f
        E 0 9c 48 7f
        E 80 8c 45 40
        E 0 8c 4d 40
        E 0 8c 48 40
        E 112 b0 7b 00
        GUID {CA63CB63-1AA0-5F40-A22C-F6AED4E11300}
        IGNTEMPO 0 120 4 4
        SRCCOLOR 684
        VELLANE -1 86 6
        CFGEDITVIEW 0 0 74 12 0 0 0 0 0 0.5
        KEYSNAP 0
        TRACKSEL 226
        EVTFILTER 0 -1 -1 -1 -1 0 0 0 0 -1 -1 -1 -1 0 -1 0 -1 -1
        CFGEDIT 1 1 0 0 0 0 1 0 1 1 1 0.25 474 462 1014 762 1 0 1 3 0 0 0 0 0 -1 0 0 1 64
      >
    >
    <ITEM
      POSITION 0
      SNAPOFFS 0
      LENGTH 36
      LOOP 1
      ALLTAKES 0
      FADEIN 1 0 0 1 0 0
      FADEOUT 1 0 0 1 0 0
      MUTE 0
      SEL 0
      YPOS 0.833333 0.166667
      IGUID {24B3DE55-8575-6B47-A722-30AC9DED9F12}
      IID 6
      NAME "LH                   - National_Anthems_-_Cyprus.mid"
      VOLPAN 1 0 1 -1
      SOFFS 1 2
      PLAYRATE 1 1 0 -1 0 0.0025
      CHANMODE 0
      TAKECOLOR 26173599 B
      GUID {811F8F2A-CF33-1F4A-8E5C-E2C86F5C6932}
      <SOURCE MIDI
        HASDATA 1 192 QN
        POOLEDEVTS {AF839BA5-1A31-8041-9520-467587BF00EE}
        <X 0 0 0 0 3 "LH                  "
          /wNMSCAgICAgICAgICAgICAgICAgIA==
        >
        E 576 9d 35 64
        E 0 9d 29 64
        E 80 8d 35 40
        E 0 8d 29 40
        E 16 9d 3c 64
        E 0 9d 39 64
        E 0 9d 35 64
        E 32 8d 3c 40
        E 0 8d 39 40
        E 0 8d 35 40
        E 16 9d 39 64
        E 0 9d 3c 64
        E 0 9d 35 64
        E 32 8d 39 40
        E 0 8d 3c 40
        E 0 8d 35 40
        E 16 9d 35 64
        E 0 9d 3c 64
        E 0 9d 39 64
        E 80 8d 35 40
        E 0 8d 3c 40
        E 0 8d 39 40
        E 16 9d 3c 64
        E 0 9d 35 64
        E 0 9d 39 64
        E 80 8d 3c 40
        E 0 8d 35 40
        E 0 8d 39 40
        E 16 9d 35 64
        E 0 9d 3c 64
        E 0 9d 39 64
        E 80 8d 35 40
        E 0 8d 3c 40
        E 0 8d 39 40
        E 16 9d 3c 64
        E 0 9d 35 64
        E 0 9d 39 64
        E 80 8d 3c 40
        E 0 8d 35 40
        E 0 8d 39 40
        E 16 9d 29 64
        E 80 8d 29 40
        E 16 9d 35 64
        E 0 9d 3c 64
        E 0 9d 39 64
        E 32 8d 35 40
        E 0 8d 3c 40
        E 0 8d 39 40
        E 16 9d 3c 64
        E 0 9d 39 64
        E 0 9d 35 64
        E 32 8d 3c 40
        E 0 8d 39 40
        E 0 8d 35 40
        E 16 9d 3c 64
        E 0 9d 35 64
        E 0 9d 39 64
        E 80 8d 3c 40
        E 0 8d 35 40
        E 0 8d 39 40
        E 16 9d 35 64
        E 0 9d 39 64
        E 0 9d 3c 64
        E 80 8d 35 40
        E 0 8d 39 40
        E 0 8d 3c 40
        E 16 9d 39 64
        E 0 9d 3c 64
        E 0 9d 35 64
        E 80 8d 39 40
        E 0 8d 3c 40
        E 0 8d 35 40
        E 16 9d 39 64
        E 0 9d 3c 64
        E 0 9d 35 64
        E 80 8d 39 40
        E 0 8d 3c 40
        E 0 8d 35 40
        E 16 9d 2e 64
        E 80 8d 2e 40
        E 16 9d 3a 64
        E 0 9d 37 64
        E 0 9d 32 64
        E 32 8d 3a 40
        E 0 8d 37 40
        E 0 8d 32 40
        E 16 9d 32 64
        E 0 9d 37 64
        E 0 9d 3a 64
        E 32 8d 32 40
        E 0 8d 37 40
        E 0 8d 3a 40
        E 16 9d 37 64
        E 0 9d 3a 64
        E 0 9d 32 64
        E 80 8d 37 40
        E 0 8d 3a 40
        E 0 8d 32 40
        E 16 9d 3a 64
        E 0 9d 32 64
        E 0 9d 37 64
        E 80 8d 3a 40
        E 0 8d 32 40
        E 0 8d 37 40
        E 16 9d 24 64
        E 0 9d 30 64
        E 80 8d 24 40
        E 0 8d 30 40
        E 16 9d 3c 64
        E 0 9d 34 64
        E 80 8d 3c 40
        E 0 8d 34 40
        E 16 9d 29 64
        E 80 8d 29 40
        E 16 9d 3c 64
        E 0 9d 35 64
        E 0 9d 39 64
        E 32 8d 3c 40
        E 0 8d 35 40
        E 0 8d 39 40
        E 16 9d 35 64
        E 0 9d 39 64
        E 0 9d 3c 64
        E 32 8d 35 40
        E 0 8d 39 40
        E 0 8d 3c 40
        E 16 9d 3c 64
        E 0 9d 35 64
        E 0 9d 39 64
        E 80 8d 3c 40
        E 0 8d 35 40
        E 0 8d 39 40
        E 16 9d 39 64
        E 0 9d 35 64
        E 0 9d 3c 64
        E 80 8d 39 40
        E 0 8d 35 40
        E 0 8d 3c 40
        E 208 9d 24 64
        E 0 9d 30 64
        E 80 8d 24 40
        E 0 8d 30 40
        E 16 9d 3c 64
        E 0 9d 3a 64
        E 0 9d 34 64
        E 0 9d 37 64
        E 32 8d 3c 40
        E 0 8d 3a 40
        E 0 8d 34 40
        E 0 8d 37 40
        E 16 9d 3a 64
        E 0 9d 34 64
        E 0 9d 3c 64
        E 0 9d 37 64
        E 32 8d 3a 40
        E 0 8d 34 40
        E 0 8d 3c 40
        E 0 8d 37 40
        E 16 9d 34 64
        E 0 9d 3c 64
        E 0 9d 3a 64
        E 0 9d 37 64
        E 80 8d 34 40
        E 0 8d 3c 40
        E 0 8d 3a 40
        E 0 8d 37 40
        E 16 9d 34 64
        E 0 9d 3a 64
        E 0 9d 3c 64
        E 0 9d 37 64
        E 80 8d 34 40
        E 0 8d 3a 40
        E 0 8d 3c 40
        E 0 8d 37 40
        E 16 9d 3a 64
        E 0 9d 34 64
        E 0 9d 3c 64
        E 0 9d 37 64
        E 80 8d 3a 40
        E 0 8d 34 40
        E 0 8d 3c 40
        E 0 8d 37 40
        E 16 9d 3a 64
        E 0 9d 34 64
        E 0 9d 3c 64
        E 0 9d 37 64
        E 80 8d 3a 40
        E 0 8d 34 40
        E 0 8d 3c 40
        E 0 8d 37 40
        E 16 9d 30 64
        E 0 9d 24 64
        E 80 8d 30 40
        E 0 8d 24 40
        E 16 9d 34 64
        E 0 9d 3a 64
        E 0 9d 3c 64
        E 0 9d 37 64
        E 32 8d 34 40
        E 0 8d 3a 40
        E 0 8d 3c 40
        E 0 8d 37 40
        E 16 9d 3a 64
        E 0 9d 34 64
        E 0 9d 37 64
        E 0 9d 3c 64
        E 32 8d 3a 40
        E 0 8d 34 40
        E 0 8d 37 40
        E 0 8d 3c 40
        E 16 9d 3a 64
        E 0 9d 34 64
        E 0 9d 37 64
        E 0 9d 3c 64
        E 80 8d 3a 40
        E 0 8d 34 40
        E 0 8d 37 40
        E 0 8d 3c 40
        E 16 9d 34 64
        E 0 9d 3a 64
        E 0 9d 37 64
        E 0 9d 3c 64
        E 80 8d 34 40
        E 0 8d 3a 40
        E 0 8d 37 40
        E 0 8d 3c 40
        E 16 9d 3a 64
        E 0 9d 34 64
        E 0 9d 3c 64
        E 0 9d 37 64
        E 80 8d 3a 40
        E 0 8d 34 40
        E 0 8d 3c 40
        E 0 8d 37 40
        E 16 9d 3a 64
        E 0 9d 34 64
        E 0 9d 3c 64
        E 0 9d 37 64
        E 80 8d 3a 40
        E 0 8d 34 40
        E 0 8d 3c 40
        E 0 8d 37 40
        E 16 9d 24 64
        E 0 9d 30 64
        E 80 8d 24 40
        E 0 8d 30 40
        E 16 9d 3a 64
        E 0 9d 34 64
        E 0 9d 3c 64
        E 0 9d 37 64
        E 32 8d 3a 40
        E 0 8d 34 40
        E 0 8d 3c 40
        E 0 8d 37 40
        E 16 9d 34 64
        E 0 9d 3a 64
        E 0 9d 37 64
        E 0 9d 3c 64
        E 32 8d 34 40
        E 0 8d 3a 40
        E 0 8d 37 40
        E 0 8d 3c 40
        E 16 9d 3a 64
        E 0 9d 34 64
        E 0 9d 3c 64
        E 0 9d 37 64
        E 80 8d 3a 40
        E 0 8d 34 40
        E 0 8d 3c 40
        E 0 8d 37 40
        E 16 9d 3a 64
        E 0 9d 34 64
        E 0 9d 37 64
        E 0 9d 3c 64
        E 80 8d 3a 40
        E 0 8d 34 40
        E 0 8d 37 40
        E 0 8d 3c 40
        E 16 9d 3a 64
        E 0 9d 3c 64
        E 0 9d 34 64
        E 0 9d 37 64
        E 80 8d 3a 40
        E 0 8d 3c 40
        E 0 8d 34 40
        E 0 8d 37 40
        E 16 9d 3a 64
        E 0 9d 34 64
        E 0 9d 3c 64
        E 0 9d 37 64
        E 80 8d 3a 40
        E 0 8d 34 40
        E 0 8d 3c 40
        E 0 8d 37 40
        E 16 9d 29 64
        E 80 8d 29 40
        E 16 9d 35 64
        E 0 9d 3c 64
        E 0 9d 39 64
        E 32 8d 35 40
        E 0 8d 3c 40
        E 0 8d 39 40
        E 16 9d 35 64
        E 0 9d 39 64
        E 0 9d 3c 64
        E 32 8d 35 40
        E 0 8d 39 40
        E 0 8d 3c 40
        E 16 9d 39 64
        E 0 9d 35 64
        E 0 9d 3c 64
        E 176 8d 39 40
        E 0 8d 35 40
        E 0 8d 3c 40
        E 208 9d 26 64
        E 80 8d 26 40
        E 16 9d 32 64
        E 0 9d 39 64
        E 0 9d 35 64
        E 32 8d 32 40
        E 0 8d 39 40
        E 0 8d 35 40
        E 16 9d 32 64
        E 0 9d 35 64
        E 0 9d 39 64
        E 32 8d 32 40
        E 0 8d 35 40
        E 0 8d 39 40
        E 16 9d 32 64
        E 0 9d 35 64
        E 0 9d 39 64
        E 80 8d 32 40
        E 0 8d 35 40
        E 0 8d 39 40
        E 16 9d 32 64
        E 0 9d 35 64
        E 0 9d 39 64
        E 80 8d 32 40
        E 0 8d 35 40
        E 0 8d 39 40
        E 16 9d 2d 64
        E 80 8d 2d 40
        E 16 9d 39 64
        E 0 9d 34 64
        E 0 9d 37 64
        E 80 8d 39 40
        E 0 8d 34 40
        E 0 8d 37 40
        E 16 9d 26 64
        E 80 8d 26 40
        E 16 9d 32 64
        E 0 9d 39 64
        E 0 9d 35 64
        E 32 8d 32 40
        E 0 8d 39 40
        E 0 8d 35 40
        E 16 9d 32 64
        E 0 9d 39 64
        E 0 9d 35 64
        E 32 8d 32 40
        E 0 8d 39 40
        E 0 8d 35 40
        E 16 9d 32 64
        E 0 9d 35 64
        E 0 9d 39 64
        E 80 8d 32 40
        E 0 8d 35 40
        E 0 8d 39 40
        E 16 9d 32 64
        E 0 9d 35 64
        E 0 9d 39 64
        E 80 8d 32 40
        E 0 8d 35 40
        E 0 8d 39 40
        E 16 9d 32 64
        E 0 9d 35 64
        E 0 9d 39 64
        E 80 8d 32 40
        E 0 8d 35 40
        E 0 8d 39 40
        E 16 9d 32 64
        E 0 9d 35 64
        E 0 9d 39 64
        E 80 8d 32 40
        E 0 8d 35 40
        E 0 8d 39 40
        E 16 9d 26 64
        E 80 8d 26 40
        E 16 9d 32 64
        E 0 9d 39 64
        E 0 9d 35 64
        E 32 8d 32 40
        E 0 8d 39 40
        E 0 8d 35 40
        E 16 9d 32 64
        E 0 9d 39 64
        E 0 9d 35 64
        E 32 8d 32 40
        E 0 8d 39 40
        E 0 8d 35 40
        E 16 9d 32 64
        E 0 9d 39 64
        E 0 9d 35 64
        E 80 8d 32 40
        E 0 8d 39 40
        E 0 8d 35 40
        E 16 9d 35 64
        E 0 9d 32 64
        E 0 9d 39 64
        E 80 8d 35 40
        E 0 8d 32 40
        E 0 8d 39 40
        E 16 9d 2d 64
        E 80 8d 2d 40
        E 16 9d 34 64
        E 0 9d 39 64
        E 0 9d 37 64
        E 80 8d 34 40
        E 0 8d 39 40
        E 0 8d 37 40
        E 16 9d 26 64
        E 80 8d 26 40
        E 16 9d 39 64
        E 0 9d 32 64
        E 0 9d 35 64
        E 32 8d 39 40
        E 0 8d 32 40
        E 0 8d 35 40
        E 16 9d 35 64
        E 0 9d 32 64
        E 0 9d 39 64
        E 32 8d 35 40
        E 0 8d 32 40
        E 0 8d 39 40
        E 16 9d 39 64
        E 0 9d 32 64
        E 0 9d 35 64
        E 80 8d 39 40
        E 0 8d 32 40
        E 0 8d 35 40
        E 304 9d 3a 64
        E 0 9d 34 64
        E 80 8d 3a 40
        E 0 8d 34 40
        E 112 9d 30 64
        E 0 9d 3a 64
        E 0 9d 34 64
        E 80 8d 30 40
        E 0 8d 3a 40
        E 0 8d 34 40
        E 16 9d 30 64
        E 80 8d 30 40
        E 16 9d 3a 64
        E 0 9d 34 64
        E 80 8d 3a 40
        E 0 8d 34 40
        E 16 9d 30 64
        E 80 8d 30 40
        E 16 9d 39 64
        E 0 9d 35 64
        E 80 8d 39 40
        E 0 8d 35 40
        E 16 9d 30 64
        E 80 8d 30 40
        E 16 9d 35 64
        E 0 9d 39 64
        E 80 8d 35 40
        E 0 8d 39 40
        E 16 9d 30 64
        E 80 8d 30 40
        E 16 9d 35 64
        E 0 9d 39 64
        E 80 8d 35 40
        E 0 8d 39 40
        E 16 9d 30 64
        E 80 8d 30 40
        E 16 9d 3a 64
        E 0 9d 34 64
        E 80 8d 3a 40
        E 0 8d 34 40
        E 16 9d 30 64
        E 80 8d 30 40
        E 16 9d 3a 64
        E 0 9d 34 64
        E 80 8d 3a 40
        E 0 8d 34 40
        E 16 9d 30 64
        E 80 8d 30 40
        E 16 9d 3a 64
        E 0 9d 34 64
        E 80 8d 3a 40
        E 0 8d 34 40
        E 16 9d 30 64
        E 80 8d 30 40
        E 16 9d 29 64
        E 80 8d 29 40
        E 16 9d 30 64
        E 0 9d 39 64
        E 0 9d 35 64
        E 32 8d 30 40
        E 0 8d 39 40
        E 0 8d 35 40
        E 16 9d 30 64
        E 0 9d 39 64
        E 0 9d 35 64
        E 32 8d 30 40
        E 0 8d 39 40
        E 0 8d 35 40
        E 16 9d 30 64
        E 0 9d 39 64
        E 0 9d 35 64
        E 80 8d 30 40
        E 0 8d 39 40
        E 0 8d 35 40
        E 304 9d 2e 64
        E 80 8d 2e 40
        E 16 9d 3a 64
        E 0 9d 32 64
        E 0 9d 35 64
        E 32 8d 3a 40
        E 0 8d 32 40
        E 0 8d 35 40
        E 16 9d 3a 64
        E 0 9d 32 64
        E 0 9d 35 64
        E 32 8d 3a 40
        E 0 8d 32 40
        E 0 8d 35 40
        E 16 9d 3a 64
        E 0 9d 32 64
        E 0 9d 35 64
        E 80 8d 3a 40
        E 0 8d 32 40
        E 0 8d 35 40
        E 16 9d 3a 64
        E 0 9d 32 64
        E 0 9d 35 64
        E 80 8d 3a 40
        E 0 8d 32 40
        E 0 8d 35 40
        E 16 9d 26 64
        E 80 8d 26 40
        E 16 9d 36 64
        E 0 9d 39 64
        E 0 9d 32 64
        E 80 8d 36 40
        E 0 8d 39 40
        E 0 8d 32 40
        E 16 9d 2b 64
        E 80 8d 2b 40
        E 16 9d 32 64
        E 0 9d 2e 64
        E 0 9d 37 64
        E 32 8d 32 40
        E 0 8d 2e 40
        E 0 8d 37 40
        E 16 9d 37 64
        E 0 9d 2e 64
        E 0 9d 32 64
        E 32 8d 37 40
        E 0 8d 2e 40
        E 0 8d 32 40
        E 16 9d 32 64
        E 0 9d 2e 64
        E 0 9d 37 64
        E 80 8d 32 40
        E 0 8d 2e 40
        E 0 8d 37 40
        E 16 9d 32 64
        E 0 9d 37 64
        E 0 9d 2e 64
        E 80 8d 32 40
        E 0 8d 37 40
        E 0 8d 2e 40
        E 16 9d 2e 64
        E 80 8d 2e 40
        E 16 9d 37 64
        E 0 9d 32 64
        E 80 8d 37 40
        E 0 8d 32 40
        E 16 9d 30 64
        E 80 8d 30 40
        E 16 9d 35 64
        E 0 9d 39 64
        E 32 8d 35 40
        E 0 8d 39 40
        E 16 9d 35 64
        E 0 9d 39 64
        E 32 8d 35 40
        E 0 8d 39 40
        E 16 9d 39 64
        E 0 9d 35 64
        E 80 8d 39 40
        E 0 8d 35 40
        E 16 9d 35 64
        E 0 9d 39 64
        E 80 8d 35 40
        E 0 8d 39 40
        E 16 9d 30 64
        E 80 8d 30 40
        E 16 9d 3a 64
        E 0 9d 34 64
        E 0 9d 37 64
        E 80 8d 3a 40
        E 0 8d 34 40
        E 0 8d 37 40
        E 16 9d 29 64
        E 80 8d 29 40
        E 16 9d 30 64
        E 0 9d 35 64
        E 0 9d 39 64
        E 32 8d 30 40
        E 0 8d 35 40
        E 0 8d 39 40
        E 16 9d 30 64
        E 0 9d 35 64
        E 0 9d 39 64
        E 32 8d 30 40
        E 0 8d 35 40
        E 0 8d 39 40
        E 16 9d 30 64
        E 0 9d 35 64
        E 0 9d 39 64
        E 80 8d 30 40
        E 0 8d 35 40
        E 0 8d 39 40
        E 16 9d 30 64
        E 0 9d 35 64
        E 0 9d 39 64
        E 80 8d 30 40
        E 0 8d 35 40
        E 0 8d 39 40
        E 16 9d 30 64
        E 0 9d 35 64
        E 0 9d 39 64
        E 80 8d 30 40
        E 0 8d 35 40
        E 0 8d 39 40
        E 16 9d 30 64
        E 0 9d 39 64
        E 0 9d 35 64
        E 80 8d 30 40
        E 0 8d 39 40
        E 0 8d 35 40
        E 16 9d 2e 64
        E 80 8d 2e 40
        E 16 9d 3a 64
        E 0 9d 32 64
        E 0 9d 35 64
        E 32 8d 3a 40
        E 0 8d 32 40
        E 0 8d 35 40
        E 16 9d 32 64
        E 0 9d 3a 64
        E 0 9d 35 64
        E 32 8d 32 40
        E 0 8d 3a 40
        E 0 8d 35 40
        E 16 9d 32 64
        E 0 9d 3a 64
        E 0 9d 35 64
        E 80 8d 32 40
        E 0 8d 3a 40
        E 0 8d 35 40
        E 16 9d 32 64
        E 0 9d 3a 64
        E 0 9d 35 64
        E 80 8d 32 40
        E 0 8d 3a 40
        E 0 8d 35 40
        E 16 9d 26 64
        E 80 8d 26 40
        E 16 9d 39 64
        E 0 9d 36 64
        E 0 9d 32 64
        E 80 8d 39 40
        E 0 8d 36 40
        E 0 8d 32 40
        E 16 9d 2b 64
        E 80 8d 2b 40
        E 16 9d 2e 64
        E 0 9d 37 64
        E 0 9d 32 64
        E 32 8d 2e 40
        E 0 8d 37 40
        E 0 8d 32 40
        E 16 9d 32 64
        E 0 9d 2e 64
        E 0 9d 37 64
        E 32 8d 32 40
        E 0 8d 2e 40
        E 0 8d 37 40
        E 16 9d 2e 64
        E 0 9d 37 64
        E 0 9d 32 64
        E 80 8d 2e 40
        E 0 8d 37 40
        E 0 8d 32 40
        E 16 9d 2e 64
        E 0 9d 37 64
        E 0 9d 32 64
        E 80 8d 2e 40
        E 0 8d 37 40
        E 0 8d 32 40
        E 16 9d 2e 64
        E 80 8d 2e 40
        E 16 9d 37 64
        E 0 9d 32 64
        E 80 8d 37 40
        E 0 8d 32 40
        E 16 9d 30 64
        E 80 8d 30 40
        E 16 9d 35 64
        E 0 9d 39 64
        E 32 8d 35 40
        E 0 8d 39 40
        E 16 9d 35 64
        E 0 9d 39 64
        E 32 8d 35 40
        E 0 8d 39 40
        E 16 9d 35 64
        E 0 9d 39 64
        E 80 8d 35 40
        E 0 8d 39 40
        E 16 9d 35 64
        E 0 9d 39 64
        E 80 8d 35 40
        E 0 8d 39 40
        E 16 9d 30 64
        E 80 8d 30 40
        E 16 9d 3a 64
        E 0 9d 37 64
        E 80 8d 3a 40
        E 0 8d 37 40
        E 16 9d 35 64
        E 0 9d 39 64
        E 176 8d 35 40
        E 0 8d 39 40
        E 16 9d 29 64
        E 0 9d 35 64
        E 80 8d 29 40
        E 0 8d 35 40
        E 112 b0 7b 00
        GUID {B7FE2E4D-40C8-674B-B02E-C27458712B46}
        IGNTEMPO 0 120 4 4
        SRCCOLOR 633
        VELLANE -1 86 6
        CFGEDITVIEW -128.330323 35.227273 74 12 0 0 0 0 0 0.5
        KEYSNAP 0
        TRACKSEL 226
        EVTFILTER 0 -1 -1 -1 -1 0 0 0 0 -1 -1 -1 -1 0 -1 0 -1 -1
        CFGEDIT 1 1 0 0 0 0 1 0 1 1 1 0.25 474 462 1014 762 1 0 1 3 0 0 0 0 0 -1 0 0 1 64
      >
      TAKE
      NAME "LH                   - National_Anthems_-_Cyprus.mid"
      TAKEVOLPAN 0 1 -1
      SOFFS 1 2
      PLAYRATE 1 1 0 -1 0 0.0025
      CHANMODE 0
      GUID {27A45885-768C-F744-BF4B-CB071A10FFA2}
      <SOURCE MIDI
        HASDATA 1 192 QN
        POOLEDEVTS {4B132723-3FE2-EE40-BBED-75D524C587A9}
        <X 0 0 0 0 3 "LH                  "
          /wNMSCAgICAgICAgICAgICAgICAgIA==
        >
        E 576 9d 35 64
        E 0 9d 29 64
        E 80 8d 35 40
        E 0 8d 29 40
        E 16 9d 3c 64
        E 0 9d 39 64
        E 0 9d 35 64
        E 32 8d 3c 40
        E 0 8d 39 40
        E 0 8d 35 40
        E 16 9d 39 64
        E 0 9d 3c 64
        E 0 9d 35 64
        E 32 8d 39 40
        E 0 8d 3c 40
        E 0 8d 35 40
        E 16 9d 35 64
        E 0 9d 3c 64
        E 0 9d 39 64
        E 80 8d 35 40
        E 0 8d 3c 40
        E 0 8d 39 40
        E 16 9d 3c 64
        E 0 9d 35 64
        E 0 9d 39 64
        E 80 8d 3c 40
        E 0 8d 35 40
        E 0 8d 39 40
        E 16 9d 35 64
        E 0 9d 3c 64
        E 0 9d 39 64
        E 80 8d 35 40
        E 0 8d 3c 40
        E 0 8d 39 40
        E 16 9d 3c 64
        E 0 9d 35 64
        E 0 9d 39 64
        E 80 8d 3c 40
        E 0 8d 35 40
        E 0 8d 39 40
        E 16 9d 29 64
        E 80 8d 29 40
        E 16 9d 35 64
        E 0 9d 3c 64
        E 0 9d 39 64
        E 32 8d 35 40
        E 0 8d 3c 40
        E 0 8d 39 40
        E 16 9d 3c 64
        E 0 9d 39 64
        E 0 9d 35 64
        E 32 8d 3c 40
        E 0 8d 39 40
        E 0 8d 35 40
        E 16 9d 3c 64
        E 0 9d 35 64
        E 0 9d 39 64
        E 80 8d 3c 40
        E 0 8d 35 40
        E 0 8d 39 40
        E 16 9d 35 64
        E 0 9d 39 64
        E 0 9d 3c 64
        E 80 8d 35 40
        E 0 8d 39 40
        E 0 8d 3c 40
        E 16 9d 39 64
        E 0 9d 3c 64
        E 0 9d 35 64
        E 80 8d 39 40
        E 0 8d 3c 40
        E 0 8d 35 40
        E 16 9d 39 64
        E 0 9d 3c 64
        E 0 9d 35 64
        E 80 8d 39 40
        E 0 8d 3c 40
        E 0 8d 35 40
        E 16 9d 2e 64
        E 80 8d 2e 40
        E 16 9d 3a 64
        E 0 9d 37 64
        E 0 9d 32 64
        E 32 8d 3a 40
        E 0 8d 37 40
        E 0 8d 32 40
        E 16 9d 32 64
        E 0 9d 37 64
        E 0 9d 3a 64
        E 32 8d 32 40
        E 0 8d 37 40
        E 0 8d 3a 40
        E 16 9d 37 64
        E 0 9d 3a 64
        E 0 9d 32 64
        E 80 8d 37 40
        E 0 8d 3a 40
        E 0 8d 32 40
        E 16 9d 3a 64
        E 0 9d 32 64
        E 0 9d 37 64
        E 80 8d 3a 40
        E 0 8d 32 40
        E 0 8d 37 40
        E 16 9d 24 64
        E 0 9d 30 64
        E 80 8d 24 40
        E 0 8d 30 40
        E 16 9d 3c 64
        E 0 9d 34 64
        E 80 8d 3c 40
        E 0 8d 34 40
        E 16 9d 29 64
        E 80 8d 29 40
        E 16 9d 3c 64
        E 0 9d 35 64
        E 0 9d 39 64
        E 32 8d 3c 40
        E 0 8d 35 40
        E 0 8d 39 40
        E 16 9d 35 64
        E 0 9d 39 64
        E 0 9d 3c 64
        E 32 8d 35 40
        E 0 8d 39 40
        E 0 8d 3c 40
        E 16 9d 3c 64
        E 0 9d 35 64
        E 0 9d 39 64
        E 80 8d 3c 40
        E 0 8d 35 40
        E 0 8d 39 40
        E 16 9d 39 64
        E 0 9d 35 64
        E 0 9d 3c 64
        E 80 8d 39 40
        E 0 8d 35 40
        E 0 8d 3c 40
        E 208 9d 24 64
        E 0 9d 30 64
        E 80 8d 24 40
        E 0 8d 30 40
        E 16 9d 3c 64
        E 0 9d 3a 64
        E 0 9d 34 64
        E 0 9d 37 64
        E 32 8d 3c 40
        E 0 8d 3a 40
        E 0 8d 34 40
        E 0 8d 37 40
        E 16 9d 3a 64
        E 0 9d 34 64
        E 0 9d 3c 64
        E 0 9d 37 64
        E 32 8d 3a 40
        E 0 8d 34 40
        E 0 8d 3c 40
        E 0 8d 37 40
        E 16 9d 34 64
        E 0 9d 3c 64
        E 0 9d 3a 64
        E 0 9d 37 64
        E 80 8d 34 40
        E 0 8d 3c 40
        E 0 8d 3a 40
        E 0 8d 37 40
        E 16 9d 34 64
        E 0 9d 3a 64
        E 0 9d 3c 64
        E 0 9d 37 64
        E 80 8d 34 40
        E 0 8d 3a 40
        E 0 8d 3c 40
        E 0 8d 37 40
        E 16 9d 3a 64
        E 0 9d 34 64
        E 0 9d 3c 64
        E 0 9d 37 64
        E 80 8d 3a 40
        E 0 8d 34 40
        E 0 8d 3c 40
        E 0 8d 37 40
        E 16 9d 3a 64
        E 0 9d 34 64
        E 0 9d 3c 64
        E 0 9d 37 64
        E 80 8d 3a 40
        E 0 8d 34 40
        E 0 8d 3c 40
        E 0 8d 37 40
        E 16 9d 30 64
        E 0 9d 24 64
        E 80 8d 30 40
        E 0 8d 24 40
        E 16 9d 34 64
        E 0 9d 3a 64
        E 0 9d 3c 64
        E 0 9d 37 64
        E 32 8d 34 40
        E 0 8d 3a 40
        E 0 8d 3c 40
        E 0 8d 37 40
        E 16 9d 3a 64
        E 0 9d 34 64
        E 0 9d 37 64
        E 0 9d 3c 64
        E 32 8d 3a 40
        E 0 8d 34 40
        E 0 8d 37 40
        E 0 8d 3c 40
        E 16 9d 3a 64
        E 0 9d 34 64
        E 0 9d 37 64
        E 0 9d 3c 64
        E 80 8d 3a 40
        E 0 8d 34 40
        E 0 8d 37 40
        E 0 8d 3c 40
        E 16 9d 34 64
        E 0 9d 3a 64
        E 0 9d 37 64
        E 0 9d 3c 64
        E 80 8d 34 40
        E 0 8d 3a 40
        E 0 8d 37 40
        E 0 8d 3c 40
        E 16 9d 3a 64
        E 0 9d 34 64
        E 0 9d 3c 64
        E 0 9d 37 64
        E 80 8d 3a 40
        E 0 8d 34 40
        E 0 8d 3c 40
        E 0 8d 37 40
        E 16 9d 3a 64
        E 0 9d 34 64
        E 0 9d 3c 64
        E 0 9d 37 64
        E 80 8d 3a 40
        E 0 8d 34 40
        E 0 8d 3c 40
        E 0 8d 37 40
        E 16 9d 24 64
        E 0 9d 30 64
        E 80 8d 24 40
        E 0 8d 30 40
        E 16 9d 3a 64
        E 0 9d 34 64
        E 0 9d 3c 64
        E 0 9d 37 64
        E 32 8d 3a 40
        E 0 8d 34 40
        E 0 8d 3c 40
        E 0 8d 37 40
        E 16 9d 34 64
        E 0 9d 3a 64
        E 0 9d 37 64
        E 0 9d 3c 64
        E 32 8d 34 40
        E 0 8d 3a 40
        E 0 8d 37 40
        E 0 8d 3c 40
        E 16 9d 3a 64
        E 0 9d 34 64
        E 0 9d 3c 64
        E 0 9d 37 64
        E 80 8d 3a 40
        E 0 8d 34 40
        E 0 8d 3c 40
        E 0 8d 37 40
        E 16 9d 3a 64
        E 0 9d 34 64
        E 0 9d 37 64
        E 0 9d 3c 64
        E 80 8d 3a 40
        E 0 8d 34 40
        E 0 8d 37 40
        E 0 8d 3c 40
        E 16 9d 3a 64
        E 0 9d 3c 64
        E 0 9d 34 64
        E 0 9d 37 64
        E 80 8d 3a 40
        E 0 8d 3c 40
        E 0 8d 34 40
        E 0 8d 37 40
        E 16 9d 3a 64
        E 0 9d 34 64
        E 0 9d 3c 64
        E 0 9d 37 64
        E 80 8d 3a 40
        E 0 8d 34 40
        E 0 8d 3c 40
        E 0 8d 37 40
        E 16 9d 29 64
        E 80 8d 29 40
        E 16 9d 35 64
        E 0 9d 3c 64
        E 0 9d 39 64
        E 32 8d 35 40
        E 0 8d 3c 40
        E 0 8d 39 40
        E 16 9d 35 64
        E 0 9d 39 64
        E 0 9d 3c 64
        E 32 8d 35 40
        E 0 8d 39 40
        E 0 8d 3c 40
        E 16 9d 39 64
        E 0 9d 35 64
        E 0 9d 3c 64
        E 176 8d 39 40
        E 0 8d 35 40
        E 0 8d 3c 40
        E 208 9d 26 64
        E 80 8d 26 40
        E 16 9d 32 64
        E 0 9d 39 64
        E 0 9d 35 64
        E 32 8d 32 40
        E 0 8d 39 40
        E 0 8d 35 40
        E 16 9d 32 64
        E 0 9d 35 64
        E 0 9d 39 64
        E 32 8d 32 40
        E 0 8d 35 40
        E 0 8d 39 40
        E 16 9d 32 64
        E 0 9d 35 64
        E 0 9d 39 64
        E 80 8d 32 40
        E 0 8d 35 40
        E 0 8d 39 40
        E 16 9d 32 64
        E 0 9d 35 64
        E 0 9d 39 64
        E 80 8d 32 40
        E 0 8d 35 40
        E 0 8d 39 40
        E 16 9d 2d 64
        E 80 8d 2d 40
        E 16 9d 39 64
        E 0 9d 34 64
        E 0 9d 37 64
        E 80 8d 39 40
        E 0 8d 34 40
        E 0 8d 37 40
        E 16 9d 26 64
        E 80 8d 26 40
        E 16 9d 32 64
        E 0 9d 39 64
        E 0 9d 35 64
        E 32 8d 32 40
        E 0 8d 39 40
        E 0 8d 35 40
        E 16 9d 32 64
        E 0 9d 39 64
        E 0 9d 35 64
        E 32 8d 32 40
        E 0 8d 39 40
        E 0 8d 35 40
        E 16 9d 32 64
        E 0 9d 35 64
        E 0 9d 39 64
        E 80 8d 32 40
        E 0 8d 35 40
        E 0 8d 39 40
        E 16 9d 32 64
        E 0 9d 35 64
        E 0 9d 39 64
        E 80 8d 32 40
        E 0 8d 35 40
        E 0 8d 39 40
        E 16 9d 32 64
        E 0 9d 35 64
        E 0 9d 39 64
        E 80 8d 32 40
        E 0 8d 35 40
        E 0 8d 39 40
        E 16 9d 32 64
        E 0 9d 35 64
        E 0 9d 39 64
        E 80 8d 32 40
        E 0 8d 35 40
        E 0 8d 39 40
        E 16 9d 26 64
        E 80 8d 26 40
        E 16 9d 32 64
        E 0 9d 39 64
        E 0 9d 35 64
        E 32 8d 32 40
        E 0 8d 39 40
        E 0 8d 35 40
        E 16 9d 32 64
        E 0 9d 39 64
        E 0 9d 35 64
        E 32 8d 32 40
        E 0 8d 39 40
        E 0 8d 35 40
        E 16 9d 32 64
        E 0 9d 39 64
        E 0 9d 35 64
        E 80 8d 32 40
        E 0 8d 39 40
        E 0 8d 35 40
        E 16 9d 35 64
        E 0 9d 32 64
        E 0 9d 39 64
        E 80 8d 35 40
        E 0 8d 32 40
        E 0 8d 39 40
        E 16 9d 2d 64
        E 80 8d 2d 40
        E 16 9d 34 64
        E 0 9d 39 64
        E 0 9d 37 64
        E 80 8d 34 40
        E 0 8d 39 40
        E 0 8d 37 40
        E 16 9d 26 64
        E 80 8d 26 40
        E 16 9d 39 64
        E 0 9d 32 64
        E 0 9d 35 64
        E 32 8d 39 40
        E 0 8d 32 40
        E 0 8d 35 40
        E 16 9d 35 64
        E 0 9d 32 64
        E 0 9d 39 64
        E 32 8d 35 40
        E 0 8d 32 40
        E 0 8d 39 40
        E 16 9d 39 64
        E 0 9d 32 64
        E 0 9d 35 64
        E 80 8d 39 40
        E 0 8d 32 40
        E 0 8d 35 40
        E 304 9d 3a 64
        E 0 9d 34 64
        E 80 8d 3a 40
        E 0 8d 34 40
        E 112 9d 30 64
        E 0 9d 3a 64
        E 0 9d 34 64
        E 80 8d 30 40
        E 0 8d 3a 40
        E 0 8d 34 40
        E 16 9d 30 64
        E 80 8d 30 40
        E 16 9d 3a 64
        E 0 9d 34 64
        E 80 8d 3a 40
        E 0 8d 34 40
        E 16 9d 30 64
        E 80 8d 30 40
        E 16 9d 39 64
        E 0 9d 35 64
        E 80 8d 39 40
        E 0 8d 35 40
        E 16 9d 30 64
        E 80 8d 30 40
        E 16 9d 35 64
        E 0 9d 39 64
        E 80 8d 35 40
        E 0 8d 39 40
        E 16 9d 30 64
        E 80 8d 30 40
        E 16 9d 35 64
        E 0 9d 39 64
        E 80 8d 35 40
        E 0 8d 39 40
        E 16 9d 30 64
        E 80 8d 30 40
        E 16 9d 3a 64
        E 0 9d 34 64
        E 80 8d 3a 40
        E 0 8d 34 40
        E 16 9d 30 64
        E 80 8d 30 40
        E 16 9d 3a 64
        E 0 9d 34 64
        E 80 8d 3a 40
        E 0 8d 34 40
        E 16 9d 30 64
        E 80 8d 30 40
        E 16 9d 3a 64
        E 0 9d 34 64
        E 80 8d 3a 40
        E 0 8d 34 40
        E 16 9d 30 64
        E 80 8d 30 40
        E 16 9d 29 64
        E 80 8d 29 40
        E 16 9d 30 64
        E 0 9d 39 64
        E 0 9d 35 64
        E 32 8d 30 40
        E 0 8d 39 40
        E 0 8d 35 40
        E 16 9d 30 64
        E 0 9d 39 64
        E 0 9d 35 64
        E 32 8d 30 40
        E 0 8d 39 40
        E 0 8d 35 40
        E 16 9d 30 64
        E 0 9d 39 64
        E 0 9d 35 64
        E 80 8d 30 40
        E 0 8d 39 40
        E 0 8d 35 40
        E 304 9d 2e 64
        E 80 8d 2e 40
        E 16 9d 3a 64
        E 0 9d 32 64
        E 0 9d 35 64
        E 32 8d 3a 40
        E 0 8d 32 40
        E 0 8d 35 40
        E 16 9d 3a 64
        E 0 9d 32 64
        E 0 9d 35 64
        E 32 8d 3a 40
        E 0 8d 32 40
        E 0 8d 35 40
        E 16 9d 3a 64
        E 0 9d 32 64
        E 0 9d 35 64
        E 80 8d 3a 40
        E 0 8d 32 40
        E 0 8d 35 40
        E 16 9d 3a 64
        E 0 9d 32 64
        E 0 9d 35 64
        E 80 8d 3a 40
        E 0 8d 32 40
        E 0 8d 35 40
        E 16 9d 26 64
        E 80 8d 26 40
        E 16 9d 36 64
        E 0 9d 39 64
        E 0 9d 32 64
        E 80 8d 36 40
        E 0 8d 39 40
        E 0 8d 32 40
        E 16 9d 2b 64
        E 80 8d 2b 40
        E 16 9d 32 64
        E 0 9d 2e 64
        E 0 9d 37 64
        E 32 8d 32 40
        E 0 8d 2e 40
        E 0 8d 37 40
        E 16 9d 37 64
        E 0 9d 2e 64
        E 0 9d 32 64
        E 32 8d 37 40
        E 0 8d 2e 40
        E 0 8d 32 40
        E 16 9d 32 64
        E 0 9d 2e 64
        E 0 9d 37 64
        E 80 8d 32 40
        E 0 8d 2e 40
        E 0 8d 37 40
        E 16 9d 32 64
        E 0 9d 37 64
        E 0 9d 2e 64
        E 80 8d 32 40
        E 0 8d 37 40
        E 0 8d 2e 40
        E 16 9d 2e 64
        E 80 8d 2e 40
        E 16 9d 37 64
        E 0 9d 32 64
        E 80 8d 37 40
        E 0 8d 32 40
        E 16 9d 30 64
        E 80 8d 30 40
        E 16 9d 35 64
        E 0 9d 39 64
        E 32 8d 35 40
        E 0 8d 39 40
        E 16 9d 35 64
        E 0 9d 39 64
        E 32 8d 35 40
        E 0 8d 39 40
        E 16 9d 39 64
        E 0 9d 35 64
        E 80 8d 39 40
        E 0 8d 35 40
        E 16 9d 35 64
        E 0 9d 39 64
        E 80 8d 35 40
        E 0 8d 39 40
        E 16 9d 30 64
        E 80 8d 30 40
        E 16 9d 3a 64
        E 0 9d 34 64
        E 0 9d 37 64
        E 80 8d 3a 40
        E 0 8d 34 40
        E 0 8d 37 40
        E 16 9d 29 64
        E 80 8d 29 40
        E 16 9d 30 64
        E 0 9d 35 64
        E 0 9d 39 64
        E 32 8d 30 40
        E 0 8d 35 40
        E 0 8d 39 40
        E 16 9d 30 64
        E 0 9d 35 64
        E 0 9d 39 64
        E 32 8d 30 40
        E 0 8d 35 40
        E 0 8d 39 40
        E 16 9d 30 64
        E 0 9d 35 64
        E 0 9d 39 64
        E 80 8d 30 40
        E 0 8d 35 40
        E 0 8d 39 40
        E 16 9d 30 64
        E 0 9d 35 64
        E 0 9d 39 64
        E 80 8d 30 40
        E 0 8d 35 40
        E 0 8d 39 40
        E 16 9d 30 64
        E 0 9d 35 64
        E 0 9d 39 64
        E 80 8d 30 40
        E 0 8d 35 40
        E 0 8d 39 40
        E 16 9d 30 64
        E 0 9d 39 64
        E 0 9d 35 64
        E 80 8d 30 40
        E 0 8d 39 40
        E 0 8d 35 40
        E 16 9d 2e 64
        E 80 8d 2e 40
        E 16 9d 3a 64
        E 0 9d 32 64
        E 0 9d 35 64
        E 32 8d 3a 40
        E 0 8d 32 40
        E 0 8d 35 40
        E 16 9d 32 64
        E 0 9d 3a 64
        E 0 9d 35 64
        E 32 8d 32 40
        E 0 8d 3a 40
        E 0 8d 35 40
        E 16 9d 32 64
        E 0 9d 3a 64
        E 0 9d 35 64
        E 80 8d 32 40
        E 0 8d 3a 40
        E 0 8d 35 40
        E 16 9d 32 64
        E 0 9d 3a 64
        E 0 9d 35 64
        E 80 8d 32 40
        E 0 8d 3a 40
        E 0 8d 35 40
        E 16 9d 26 64
        E 80 8d 26 40
        E 16 9d 39 64
        E 0 9d 36 64
        E 0 9d 32 64
        E 80 8d 39 40
        E 0 8d 36 40
        E 0 8d 32 40
        E 16 9d 2b 64
        E 80 8d 2b 40
        E 16 9d 2e 64
        E 0 9d 37 64
        E 0 9d 32 64
        E 32 8d 2e 40
        E 0 8d 37 40
        E 0 8d 32 40
        E 16 9d 32 64
        E 0 9d 2e 64
        E 0 9d 37 64
        E 32 8d 32 40
        E 0 8d 2e 40
        E 0 8d 37 40
        E 16 9d 2e 64
        E 0 9d 37 64
        E 0 9d 32 64
        E 80 8d 2e 40
        E 0 8d 37 40
        E 0 8d 32 40
        E 16 9d 2e 64
        E 0 9d 37 64
        E 0 9d 32 64
        E 80 8d 2e 40
        E 0 8d 37 40
        E 0 8d 32 40
        E 16 9d 2e 64
        E 80 8d 2e 40
        E 16 9d 37 64
        E 0 9d 32 64
        E 80 8d 37 40
        E 0 8d 32 40
        E 16 9d 30 64
        E 80 8d 30 40
        E 16 9d 35 64
        E 0 9d 39 64
        E 32 8d 35 40
        E 0 8d 39 40
        E 16 9d 35 64
        E 0 9d 39 64
        E 32 8d 35 40
        E 0 8d 39 40
        E 16 9d 35 64
        E 0 9d 39 64
        E 80 8d 35 40
        E 0 8d 39 40
        E 16 9d 35 64
        E 0 9d 39 64
        E 80 8d 35 40
        E 0 8d 39 40
        E 16 9d 30 64
        E 80 8d 30 40
        E 16 9d 3a 64
        E 0 9d 37 64
        E 80 8d 3a 40
        E 0 8d 37 40
        E 16 9d 35 64
        E 0 9d 39 64
        E 176 8d 35 40
        E 0 8d 39 40
        E 16 9d 29 64
        E 0 9d 35 64
        E 80 8d 29 40
        E 0 8d 35 40
        E 112 b0 7b 00
        GUID {33DBB517-59EC-804D-A850-1FB65744AB88}
        IGNTEMPO 0 120 4 4
        SRCCOLOR 685
        VELLANE -1 86 6
        CFGEDITVIEW 0 0 74 12 0 0 0 0 0 0.5
        KEYSNAP 0
        TRACKSEL 226
        EVTFILTER 0 -1 -1 -1 -1 0 0 0 0 -1 -1 -1 -1 0 -1 0 -1 -1
        CFGEDIT 1 1 0 0 0 0 1 0 1 1 1 0.25 474 462 1014 762 1 0 1 3 0 0 0 0 0 -1 0 0 1 64
      >
    >
    <ITEM
      POSITION 0
      SNAPOFFS 0
      LENGTH 36
      LOOP 1
      ALLTAKES 0
      FADEIN 1 0 0 1 0 0
      FADEOUT 1 0 0 1 0 0
      MUTE 0
      SEL 0
      YPOS 0.5 0.166667
      IGUID {9EF5A03B-0114-0E47-8223-35CC288DD903}
      IID 4
      NAME "BASS                 - National_Anthems_-_Cyprus.mid"
      VOLPAN 1 0 1 -1
      SOFFS 1 2
      PLAYRATE 1 1 0 -1 0 0.0025
      CHANMODE 0
      TAKECOLOR 26173599 B
      GUID {A68241D0-507A-234D-AFCF-0A947728EDBB}
      <SOURCE MIDI
        HASDATA 1 192 QN
        POOLEDEVTS {01320539-FCB6-E54C-B7D8-7F6714A37787}
        <X 0 0 0 0 3 "BASS                "
          /wNCQVNTICAgICAgICAgICAgICAgIA==
        >
        E 576 93 29 64
        E 80 83 29 40
        E 112 93 2d 64
        E 80 83 2d 40
        E 112 93 30 64
        E 80 83 30 40
        E 112 93 29 64
        E 80 83 29 40
        E 112 93 2d 64
        E 80 83 2d 40
        E 112 93 30 64
        E 80 83 30 40
        E 112 93 2e 64
        E 80 83 2e 40
        E 112 93 32 64
        E 80 83 32 40
        E 112 93 30 64
        E 80 83 30 40
        E 112 93 29 64
        E 80 83 29 40
        E 112 93 2d 64
        E 80 83 2d 40
        E 112 93 30 64
        E 80 83 30 40
        E 112 93 24 64
        E 80 83 24 40
        E 112 93 30 64
        E 80 83 30 40
        E 112 93 30 64
        E 80 83 30 40
        E 112 93 24 64
        E 80 83 24 40
        E 112 93 30 64
        E 80 83 30 40
        E 112 93 30 64
        E 80 83 30 40
        E 112 93 24 64
        E 80 83 24 40
        E 112 93 30 64
        E 80 83 30 40
        E 112 93 30 64
        E 80 83 30 40
        E 112 93 29 64
        E 80 83 29 40
        E 112 93 2d 64
        E 80 83 2d 40
        E 112 93 30 64
        E 176 83 30 40
        E 16 93 32 64
        E 80 83 32 40
        E 112 93 2d 64
        E 80 83 2d 40
        E 112 93 32 64
        E 80 83 32 40
        E 112 93 32 64
        E 0 93 26 64
        E 80 83 32 40
        E 0 83 26 40
        E 112 93 2d 64
        E 80 83 2d 40
        E 112 93 32 64
        E 80 83 32 40
        E 112 93 26 64
        E 80 83 26 40
        E 112 93 2d 64
        E 80 83 2d 40
        E 112 93 2d 64
        E 80 83 2d 40
        E 112 93 32 64
        E 80 83 32 40
        E 112 93 32 64
        E 80 83 32 40
        E 304 93 24 64
        E 80 83 24 40
        E 112 93 24 64
        E 80 83 24 40
        E 112 93 24 64
        E 80 83 24 40
        E 112 93 29 64
        E 80 83 29 40
        E 112 93 29 64
        E 80 83 29 40
        E 112 93 29 64
        E 80 83 29 40
        E 112 93 30 64
        E 80 83 30 40
        E 112 93 24 64
        E 80 83 24 40
        E 112 93 30 64
        E 80 83 30 40
        E 112 93 29 64
        E 80 83 29 40
        E 112 93 35 64
        E 80 83 35 40
        E 304 93 2e 64
        E 80 83 2e 40
        E 112 93 32 64
        E 80 83 32 40
        E 112 93 26 64
        E 80 83 26 40
        E 112 93 2b 64
        E 80 83 2b 40
        E 112 93 32 64
        E 80 83 32 40
        E 112 93 2e 64
        E 80 83 2e 40
        E 112 93 30 64
        E 80 83 30 40
        E 112 93 24 64
        E 80 83 24 40
        E 112 93 30 64
        E 80 83 30 40
        E 112 93 29 64
        E 80 83 29 40
        E 112 93 30 64
        E 80 83 30 40
        E 112 93 35 64
        E 80 83 35 40
        E 112 93 2e 64
        E 80 83 2e 40
        E 112 93 32 64
        E 80 83 32 40
        E 112 93 26 64
        E 80 83 26 40
        E 112 93 2b 64
        E 80 83 2b 40
        E 112 93 32 64
        E 80 83 32 40
        E 112 93 2e 64
        E 80 83 2e 40
        E 112 93 30 64
        E 80 83 30 40
        E 112 93 24 64
        E 80 83 24 40
        E 112 93 30 64
        E 80 83 30 40
        E 112 93 29 64
        E 176 83 29 40
        E 16 93 35 64
        E 80 83 35 40
        E 112 b0 7b 00
        GUID {137B982D-D8F7-E143-A0A6-4C0A78A259E5}
        IGNTEMPO 0 120 4 4
        SRCCOLOR 631
        VELLANE -1 86 6
        CFGEDITVIEW -128.330323 35.227273 74 12 0 0 0 0 0 0.5
        KEYSNAP 0
        TRACKSEL 226
        EVTFILTER 0 -1 -1 -1 -1 0 0 0 0 -1 -1 -1 -1 0 -1 0 -1 -1
        CFGEDIT 1 1 0 0 0 0 1 0 1 1 1 0.25 474 462 1014 762 1 0 1 3 0 0 0 0 0 -1 0 0 1 64
      >
      TAKE
      NAME "BASS                 - National_Anthems_-_Cyprus.mid"
      TAKEVOLPAN 0 1 -1
      SOFFS 1 2
      PLAYRATE 1 1 0 -1 0 0.0025
      CHANMODE 0
      GUID {576F150E-1F15-944D-8AD1-F953609A4ABF}
      <SOURCE MIDI
        HASDATA 1 192 QN
        POOLEDEVTS {84BFD156-77E9-6A41-8A0C-BC6C784202C8}
        <X 0 0 0 0 3 "BASS                "
          /wNCQVNTICAgICAgICAgICAgICAgIA==
        >
        E 576 93 29 64
        E 80 83 29 40
        E 112 93 2d 64
        E 80 83 2d 40
        E 112 93 30 64
        E 80 83 30 40
        E 112 93 29 64
        E 80 83 29 40
        E 112 93 2d 64
        E 80 83 2d 40
        E 112 93 30 64
        E 80 83 30 40
        E 112 93 2e 64
        E 80 83 2e 40
        E 112 93 32 64
        E 80 83 32 40
        E 112 93 30 64
        E 80 83 30 40
        E 112 93 29 64
        E 80 83 29 40
        E 112 93 2d 64
        E 80 83 2d 40
        E 112 93 30 64
        E 80 83 30 40
        E 112 93 24 64
        E 80 83 24 40
        E 112 93 30 64
        E 80 83 30 40
        E 112 93 30 64
        E 80 83 30 40
        E 112 93 24 64
        E 80 83 24 40
        E 112 93 30 64
        E 80 83 30 40
        E 112 93 30 64
        E 80 83 30 40
        E 112 93 24 64
        E 80 83 24 40
        E 112 93 30 64
        E 80 83 30 40
        E 112 93 30 64
        E 80 83 30 40
        E 112 93 29 64
        E 80 83 29 40
        E 112 93 2d 64
        E 80 83 2d 40
        E 112 93 30 64
        E 176 83 30 40
        E 16 93 32 64
        E 80 83 32 40
        E 112 93 2d 64
        E 80 83 2d 40
        E 112 93 32 64
        E 80 83 32 40
        E 112 93 32 64
        E 0 93 26 64
        E 80 83 32 40
        E 0 83 26 40
        E 112 93 2d 64
        E 80 83 2d 40
        E 112 93 32 64
        E 80 83 32 40
        E 112 93 26 64
        E 80 83 26 40
        E 112 93 2d 64
        E 80 83 2d 40
        E 112 93 2d 64
        E 80 83 2d 40
        E 112 93 32 64
        E 80 83 32 40
        E 112 93 32 64
        E 80 83 32 40
        E 304 93 24 64
        E 80 83 24 40
        E 112 93 24 64
        E 80 83 24 40
        E 112 93 24 64
        E 80 83 24 40
        E 112 93 29 64
        E 80 83 29 40
        E 112 93 29 64
        E 80 83 29 40
        E 112 93 29 64
        E 80 83 29 40
        E 112 93 30 64
        E 80 83 30 40
        E 112 93 24 64
        E 80 83 24 40
        E 112 93 30 64
        E 80 83 30 40
        E 112 93 29 64
        E 80 83 29 40
        E 112 93 35 64
        E 80 83 35 40
        E 304 93 2e 64
        E 80 83 2e 40
        E 112 93 32 64
        E 80 83 32 40
        E 112 93 26 64
        E 80 83 26 40
        E 112 93 2b 64
        E 80 83 2b 40
        E 112 93 32 64
        E 80 83 32 40
        E 112 93 2e 64
        E 80 83 2e 40
        E 112 93 30 64
        E 80 83 30 40
        E 112 93 24 64
        E 80 83 24 40
        E 112 93 30 64
        E 80 83 30 40
        E 112 93 29 64
        E 80 83 29 40
        E 112 93 30 64
        E 80 83 30 40
        E 112 93 35 64
        E 80 83 35 40
        E 112 93 2e 64
        E 80 83 2e 40
        E 112 93 32 64
        E 80 83 32 40
        E 112 93 26 64
        E 80 83 26 40
        E 112 93 2b 64
        E 80 83 2b 40
        E 112 93 32 64
        E 80 83 32 40
        E 112 93 2e 64
        E 80 83 2e 40
        E 112 93 30 64
        E 80 83 30 40
        E 112 93 24 64
        E 80 83 24 40
        E 112 93 30 64
        E 80 83 30 40
        E 112 93 29 64
        E 176 83 29 40
        E 16 93 35 64
        E 80 83 35 40
        E 112 b0 7b 00
        GUID {85508E77-5419-E546-9686-0D8489C5C8FB}
        IGNTEMPO 0 120 4 4
        SRCCOLOR 686
        VELLANE -1 86 6
        CFGEDITVIEW 0 0 74 12 0 0 0 0 0 0.5
        KEYSNAP 0
        TRACKSEL 226
        EVTFILTER 0 -1 -1 -1 -1 0 0 0 0 -1 -1 -1 -1 0 -1 0 -1 -1
        CFGEDIT 1 1 0 0 0 0 1 0 1 1 1 0.25 474 462 1014 762 1 0 1 3 0 0 0 0 0 -1 0 0 1 64
      >
    >
    <ITEM
      POSITION 0
      SNAPOFFS 0
      LENGTH 36
      LOOP 1
      ALLTAKES 0
      FADEIN 1 0 0 1 0 0
      FADEOUT 1 0 0 1 0 0
      MUTE 0
      SEL 0
      YPOS 0 0.166667
      IGUID {EC4ECA2A-1900-1642-9891-1C8074B348AC}
      IID 1
      NAME "MELODY               - National_Anthems_-_Cyprus.mid"
      VOLPAN 1 0 1 -1
      SOFFS 1 2
      PLAYRATE 1 1 0 -1 0 0.0025
      CHANMODE 0
      TAKECOLOR 26173599 B
      GUID {733AA04A-1644-FF4D-936B-9784E2F3C154}
      <SOURCE MIDI
        HASDATA 1 192 QN
        POOLEDEVTS {FA58D8AD-7557-C24D-9342-AE1C5B84AF2D}
        <X 0 0 0 0 3 "MELODY              "
          /wNNRUxPRFkgICAgICAgICAgICAgIA==
        >
        <X 0 0 0 0 1 "THE SOFTWARE TOOLWORKS"
          /wFUSEUgU09GVFdBUkUgVE9PTFdPUktT
        >
        <X 0 0 0 0 1 "WORLD ATLAS"
          /wFXT1JMRCBBVExBUw==
        >
        <X 0 0 0 0 1 "MultiMedia Windows Version"
          /wFNdWx0aU1lZGlhIFdpbmRvd3MgVmVyc2lvbg==
        >
        <X 0 0 0 0 1 "Country: GREECE"
          /wFDb3VudHJ5OiBHUkVFQ0U=
        >
        <X 0 0 0 0 1 "Anthem Name:"
          /wFBbnRoZW0gTmFtZTo=
        >
        <X 0 0 0 0 1 "(p) (c) The Software Toolworks 1991"
          /wEocCkgKGMpIFRoZSBTb2Z0d2FyZSBUb29sd29ya3MgMTk5MQ==
        >
        <X 0 0 0 0 1 "date: 9-9-91"
          /wFkYXRlOiA5LTktOTE=
        >
        <X 0 0 0 0 1 "MMWIN EDIT DATE:9-12-91"
          /wFNTVdJTiBFRElUIERBVEU6OS0xMi05MQ==
        >
        <X 0 0 0 0 1 "revised 11-26-91"
          /wFyZXZpc2VkIDExLTI2LTkx
        >
        <X 0 0 0 0 1 "This file provided by:"
          /wFUaGlzIGZpbGUgcHJvdmlkZWQgYnk6
        >
        <X 0 0 0 0 1 "Rob Wallace Music"
          /wFSb2IgV2FsbGFjZSBNdXNpYw==
        >
        <X 0 0 0 0 1 "(602) 979-6201"
          /wEoNjAyKSA5NzktNjIwMQ==
        >
        E 384 90 51 64
        E 128 80 51 40
        E 16 90 52 64
        E 32 80 52 40
        E 16 90 54 64
        E 320 80 54 40
        E 16 90 52 64
        E 32 80 52 40
        E 16 90 51 64
        E 128 80 51 40
        E 16 90 52 64
        E 32 80 52 40
        E 16 90 54 64
        E 176 80 54 40
        E 16 90 51 64
        E 176 80 51 40
        E 16 90 52 64
        E 128 80 52 40
        E 16 90 54 64
        E 32 80 54 40
        E 16 90 56 64
        E 320 80 56 40
        E 16 90 56 64
        E 32 80 56 40
        E 16 90 58 64
        E 128 80 58 40
        E 16 90 58 64
        E 32 80 58 40
        E 16 90 59 64
        E 272 80 59 40
        E 112 90 4f 64
        E 128 80 4f 40
        E 16 90 51 64
        E 32 80 51 40
        E 16 90 52 64
        E 320 80 52 40
        E 16 90 51 64
        E 32 80 51 40
        E 16 90 4f 64
        E 128 80 4f 40
        E 16 90 51 64
        E 32 80 51 40
        E 16 90 52 64
        E 176 80 52 40
        E 16 90 4f 64
        E 80 80 4f 40
        E 112 90 54 64
        E 128 80 54 40
        E 16 90 54 64
        E 32 80 54 40
        E 16 90 58 64
        E 320 80 58 40
        E 16 90 56 64
        E 32 80 56 40
        E 16 90 54 64
        E 128 80 54 40
        E 16 90 52 64
        E 32 80 52 40
        E 16 90 51 64
        E 272 80 51 40
        E 112 90 51 64
        E 128 80 51 40
        E 16 90 51 64
        E 32 80 51 40
        E 16 90 56 64
        E 320 80 56 40
        E 16 90 59 64
        E 32 80 59 40
        E 16 90 58 64
        E 128 80 58 40
        E 16 90 55 64
        E 32 80 55 40
        E 16 90 56 64
        E 176 80 56 40
        E 16 90 51 64
        E 80 80 51 40
        E 112 90 51 64
        E 128 80 51 40
        E 16 90 51 64
        E 32 80 51 40
        E 16 90 56 64
        E 320 80 56 40
        E 16 90 59 64
        E 32 80 59 40
        E 16 90 58 64
        E 128 80 58 40
        E 16 90 55 64
        E 32 80 55 40
        E 16 90 56 64
        E 272 80 56 40
        E 112 90 54 64
        E 128 80 54 40
        E 16 90 54 64
        E 32 80 54 40
        E 16 90 54 64
        E 176 80 54 40
        E 16 90 58 64
        E 80 80 58 40
        E 112 90 54 64
        E 128 80 54 40
        E 16 90 54 64
        E 32 80 54 40
        E 16 90 54 64
        E 176 80 54 40
        E 16 90 59 64
        E 80 80 59 40
        E 112 90 54 64
        E 128 80 54 40
        E 16 90 54 64
        E 32 80 54 40
        E 16 90 54 64
        E 176 80 54 40
        E 16 90 58 64
        E 80 80 58 40
        E 64 90 54 64
        E 32 80 54 40
        E 16 90 56 64
        E 128 80 56 40
        E 16 90 58 64
        E 32 80 58 40
        E 16 90 59 64
        E 272 80 59 40
        E 112 90 59 64
        E 128 80 59 40
        E 16 90 58 64
        E 32 80 58 40
        E 16 90 58 64
        E 176 80 58 40
        E 16 90 56 64
        E 80 80 56 40
        E 112 90 56 64
        E 128 80 56 40
        E 16 90 54 64
        E 32 80 54 40
        E 16 90 54 64
        E 176 80 54 40
        E 16 90 52 64
        E 80 80 52 40
        E 112 90 56 64
        E 128 80 56 40
        E 16 90 56 64
        E 32 80 56 40
        E 16 90 54 64
        E 320 80 54 40
        E 16 90 51 64
        E 32 80 51 40
        E 16 90 52 64
        E 128 80 52 40
        E 16 90 4f 64
        E 32 80 4f 40
        E 16 90 52 64
        E 176 80 52 40
        E 16 90 51 64
        E 80 80 51 40
        E 112 90 59 64
        E 128 80 59 40
        E 16 90 58 64
        E 32 80 58 40
        E 16 90 58 64
        E 176 80 58 40
        E 16 90 56 64
        E 80 80 56 40
        E 112 90 56 64
        E 128 80 56 40
        E 16 90 54 64
        E 32 80 54 40
        E 16 90 54 64
        E 176 80 54 40
        E 16 90 52 64
        E 80 80 52 40
        E 112 90 56 64
        E 128 80 56 40
        E 16 90 56 64
        E 32 80 56 40
        E 16 90 54 64
        E 320 80 54 40
        E 16 90 51 64
        E 32 80 51 40
        E 16 90 52 64
        E 128 80 52 40
        E 16 90 4f 64
        E 32 80 4f 40
        E 16 90 4d 64
        E 272 80 4d 40
        E 112 b0 7b 00
        GUID {B4D62134-6B05-EC4A-B488-3EE16BC5F2C2}
        IGNTEMPO 0 120 4 4
        SRCCOLOR 628
        VELLANE -1 86 6
        CFGEDITVIEW -128.330323 35.227273 74 12 0 0 0 0 0 0.5
        KEYSNAP 0
        TRACKSEL 226
        EVTFILTER 0 -1 -1 -1 -1 0 0 0 0 -1 -1 -1 -1 0 -1 0 -1 -1
        CFGEDIT 1 1 0 0 0 0 1 0 1 1 1 0.25 474 462 1014 762 1 0 1 3 0 0 0 0 0 -1 0 0 1 64
      >
      TAKE
      NAME "MELODY               - National_Anthems_-_Cyprus.mid"
      TAKEVOLPAN 0 1 -1
      SOFFS 1 2
      PLAYRATE 1 1 0 -1 0 0.0025
      CHANMODE 0
      GUID {7DC7ACAC-DB05-1D47-AC60-216347E70D49}
      <SOURCE MIDI
        HASDATA 1 192 QN
        POOLEDEVTS {499DFD56-AC05-2C47-AFFF-A645F12D8669}
        <X 0 0 0 0 3 "MELODY              "
          /wNNRUxPRFkgICAgICAgICAgICAgIA==
        >
        <X 0 0 0 0 1 "THE SOFTWARE TOOLWORKS"
          /wFUSEUgU09GVFdBUkUgVE9PTFdPUktT
        >
        <X 0 0 0 0 1 "WORLD ATLAS"
          /wFXT1JMRCBBVExBUw==
        >
        <X 0 0 0 0 1 "MultiMedia Windows Version"
          /wFNdWx0aU1lZGlhIFdpbmRvd3MgVmVyc2lvbg==
        >
        <X 0 0 0 0 1 "Country: GREECE"
          /wFDb3VudHJ5OiBHUkVFQ0U=
        >
        <X 0 0 0 0 1 "Anthem Name:"
          /wFBbnRoZW0gTmFtZTo=
        >
        <X 0 0 0 0 1 "(p) (c) The Software Toolworks 1991"
          /wEocCkgKGMpIFRoZSBTb2Z0d2FyZSBUb29sd29ya3MgMTk5MQ==
        >
        <X 0 0 0 0 1 "date: 9-9-91"
          /wFkYXRlOiA5LTktOTE=
        >
        <X 0 0 0 0 1 "MMWIN EDIT DATE:9-12-91"
          /wFNTVdJTiBFRElUIERBVEU6OS0xMi05MQ==
        >
        <X 0 0 0 0 1 "revised 11-26-91"
          /wFyZXZpc2VkIDExLTI2LTkx
        >
        <X 0 0 0 0 1 "This file provided by:"
          /wFUaGlzIGZpbGUgcHJvdmlkZWQgYnk6
        >
        <X 0 0 0 0 1 "Rob Wallace Music"
          /wFSb2IgV2FsbGFjZSBNdXNpYw==
        >
        <X 0 0 0 0 1 "(602) 979-6201"
          /wEoNjAyKSA5NzktNjIwMQ==
        >
        E 384 90 51 64
        E 128 80 51 40
        E 16 90 52 64
        E 32 80 52 40
        E 16 90 54 64
        E 320 80 54 40
        E 16 90 52 64
        E 32 80 52 40
        E 16 90 51 64
        E 128 80 51 40
        E 16 90 52 64
        E 32 80 52 40
        E 16 90 54 64
        E 176 80 54 40
        E 16 90 51 64
        E 176 80 51 40
        E 16 90 52 64
        E 128 80 52 40
        E 16 90 54 64
        E 32 80 54 40
        E 16 90 56 64
        E 320 80 56 40
        E 16 90 56 64
        E 32 80 56 40
        E 16 90 58 64
        E 128 80 58 40
        E 16 90 58 64
        E 32 80 58 40
        E 16 90 59 64
        E 272 80 59 40
        E 112 90 4f 64
        E 128 80 4f 40
        E 16 90 51 64
        E 32 80 51 40
        E 16 90 52 64
        E 320 80 52 40
        E 16 90 51 64
        E 32 80 51 40
        E 16 90 4f 64
        E 128 80 4f 40
        E 16 90 51 64
        E 32 80 51 40
        E 16 90 52 64
        E 176 80 52 40
        E 16 90 4f 64
        E 80 80 4f 40
        E 112 90 54 64
        E 128 80 54 40
        E 16 90 54 64
        E 32 80 54 40
        E 16 90 58 64
        E 320 80 58 40
        E 16 90 56 64
        E 32 80 56 40
        E 16 90 54 64
        E 128 80 54 40
        E 16 90 52 64
        E 32 80 52 40
        E 16 90 51 64
        E 272 80 51 40
        E 112 90 51 64
        E 128 80 51 40
        E 16 90 51 64
        E 32 80 51 40
        E 16 90 56 64
        E 320 80 56 40
        E 16 90 59 64
        E 32 80 59 40
        E 16 90 58 64
        E 128 80 58 40
        E 16 90 55 64
        E 32 80 55 40
        E 16 90 56 64
        E 176 80 56 40
        E 16 90 51 64
        E 80 80 51 40
        E 112 90 51 64
        E 128 80 51 40
        E 16 90 51 64
        E 32 80 51 40
        E 16 90 56 64
        E 320 80 56 40
        E 16 90 59 64
        E 32 80 59 40
        E 16 90 58 64
        E 128 80 58 40
        E 16 90 55 64
        E 32 80 55 40
        E 16 90 56 64
        E 272 80 56 40
        E 112 90 54 64
        E 128 80 54 40
        E 16 90 54 64
        E 32 80 54 40
        E 16 90 54 64
        E 176 80 54 40
        E 16 90 58 64
        E 80 80 58 40
        E 112 90 54 64
        E 128 80 54 40
        E 16 90 54 64
        E 32 80 54 40
        E 16 90 54 64
        E 176 80 54 40
        E 16 90 59 64
        E 80 80 59 40
        E 112 90 54 64
        E 128 80 54 40
        E 16 90 54 64
        E 32 80 54 40
        E 16 90 54 64
        E 176 80 54 40
        E 16 90 58 64
        E 80 80 58 40
        E 64 90 54 64
        E 32 80 54 40
        E 16 90 56 64
        E 128 80 56 40
        E 16 90 58 64
        E 32 80 58 40
        E 16 90 59 64
        E 272 80 59 40
        E 112 90 59 64
        E 128 80 59 40
        E 16 90 58 64
        E 32 80 58 40
        E 16 90 58 64
        E 176 80 58 40
        E 16 90 56 64
        E 80 80 56 40
        E 112 90 56 64
        E 128 80 56 40
        E 16 90 54 64
        E 32 80 54 40
        E 16 90 54 64
        E 176 80 54 40
        E 16 90 52 64
        E 80 80 52 40
        E 112 90 56 64
        E 128 80 56 40
        E 16 90 56 64
        E 32 80 56 40
        E 16 90 54 64
        E 320 80 54 40
        E 16 90 51 64
        E 32 80 51 40
        E 16 90 52 64
        E 128 80 52 40
        E 16 90 4f 64
        E 32 80 4f 40
        E 16 90 52 64
        E 176 80 52 40
        E 16 90 51 64
        E 80 80 51 40
        E 112 90 59 64
        E 128 80 59 40
        E 16 90 58 64
        E 32 80 58 40
        E 16 90 58 64
        E 176 80 58 40
        E 16 90 56 64
        E 80 80 56 40
        E 112 90 56 64
        E 128 80 56 40
        E 16 90 54 64
        E 32 80 54 40
        E 16 90 54 64
        E 176 80 54 40
        E 16 90 52 64
        E 80 80 52 40
        E 112 90 56 64
        E 128 80 56 40
        E 16 90 56 64
        E 32 80 56 40
        E 16 90 54 64
        E 320 80 54 40
        E 16 90 51 64
        E 32 80 51 40
        E 16 90 52 64
        E 128 80 52 40
        E 16 90 4f 64
        E 32 80 4f 40
        E 16 90 4d 64
        E 272 80 4d 40
        E 112 b0 7b 00
        GUID {D2E0210A-8BF3-2048-8B9C-E33150BDB4E1}
        IGNTEMPO 0 120 4 4
        SRCCOLOR 687
        VELLANE -1 86 6
        CFGEDITVIEW 0 0 74 12 0 0 0 0 0 0.5
        KEYSNAP 0
        TRACKSEL 226
        EVTFILTER 0 -1 -1 -1 -1 0 0 0 0 -1 -1 -1 -1 0 -1 0 -1 -1
        CFGEDIT 1 1 0 0 0 0 1 0 1 1 1 0.25 474 462 1014 762 1 0 1 3 0 0 0 0 0 -1 0 0 1 64
      >
    >
  >
  <TRACK {3ACE96EE-12C5-854F-8381-544885B9F024}
    NAME ""
    PEAKCOL 16576
    BEAT -1
    AUTOMODE 0
    VOLPAN 1 0 -1 -1 1
    MUTESOLO 0 0 0
    IPHASE 0
    ISBUS 0 0
    BUSCOMP 0 0
    SHOWINMIX 1 0.6667 0.5 1 0.5 0 0 0
    FREEMODE 0
    SEL 1
    REC 0 0 0 0 0 0 0
    VU 2
    TRACKHEIGHT 152 0
    INQ 0 0 0 0.5 100 0 0 100
    NCHAN 2
    FX 1
    TRACKID {3ACE96EE-12C5-854F-8381-544885B9F024}
    PERF 0
    MIDIOUT -1
    MAINSEND 1 0
    <FXCHAIN
      WNDRECT 528 36 724 387
      SHOW 1
      LASTSEL 0
      DOCKED 1
    >
  >
  <TRACK {4A6CD977-ADCC-3A4D-927C-BB2CEF4B0809}
    NAME "vst Gladiator"
    PEAKCOL 27222112
    BEAT -1
    AUTOMODE 0
    VOLPAN 0.35372574155057 0 -1 -1 1
    MUTESOLO 0 0 0
    IPHASE 0
    ISBUS 0 0
    BUSCOMP 2 0
    SHOWINMIX 1 0.6667 0.5 1 0.5 0 0 0
    FREEMODE 0
    SEL 0
    REC 0 0 0 0 0 0 0
    VU 2
    TRACKHEIGHT 0 0
    INQ 0 0 0 0.5 100 0 0 100
    NCHAN 2
    FX 1
    TRACKID {4A6CD977-ADCC-3A4D-927C-BB2CEF4B0809}
    PERF 0
    MIDIOUT -1
    MAINSEND 1 0
    <FXCHAIN
      SHOW 0
      LASTSEL 0
      DOCKED 0
      BYPASS 0 0 0
      <VST "VSTi: Gladiator (Tone2.com)" Gladiator.vst 0 "" 1412581196
        TEcyVO5e7f4AAAAAAgAAAAEAAAAAAAAAAgAAAAAAAABaBAAAAQAAAAAAEAA=
        Q2NuSwAAAGBGeENrAAAAAVQyR0wAAAABAAABB0luaXQAAAAAAAAAAAAAAAAAAAAAAAAAAAAAAAA9zMzNPMzMzTw0OVg9uFH0PXnbIz+AAAA7xJumPb52yT+AAAA7xJum
        AAAAAD6mZmY+PXCkP4AAAD7FHrk/AAAAPwAAAAAAAAA9ffO2PdDlYDy8an8/RR64AAAAAD+AAAA8NDlYPZFocz71wo87RJumPbhR6D69cKQ+PXCkP4AAAD8AAAA/A9cL
        PwAAAAAAAAAAAAAAPwAAAD8AAAA/AAAAPtmZmj8AAAAAAAAAO+VgQj24UesAAAAAPk21xDtEm6Y/S4UeAAAAAAAAAAA+64UgPpR64T1hR7A+z1woPx64Uj49cKY/AAAA
        PwAAAAAAAAAAAAAAPwAAAAAAAAAAAAAAP4AAAD+AAAAAAAAAPxHrhT8AAAA/AAAAPwAAAD8AAAAAAAAAPwAAAD8AAAA/AAAAAAAAAD8AAAA/AAAAPwAAAAAAAAA6gxJv
        P1Cj1wAAAAA/gAAAAAAAADqDEm8/AAAAAAAAAAAAAAAAAAAAPwAAAAAAAAA/gAAAAAAAAD+AAAAAAAAAPwAAAD8AAAA/AAAAPwAAAD8AAAA/AAAAPwAAAD8AAAA/AAAA
        PwAAAD8AAAA/EeuGPKPXCjqDEm88RJumAAAAAAAAAAAAAAAAPLxqfwAAAAAAAAAAAAAAAAAAAAAAAAAAAAAAAAAAAAAAAAAAAAAAAAAAAAAAAAAAAAAAAAAAAAAAAAAA
        AAAAAAAAAAA8E3S8AAAAADw0OVgAAAAAPBN0vAAAAAA8NDlYAAAAADwTdLwAAAAAPDQ5WAAAAAA8E3S8AAAAADw0OVgAAAAAPGVgQj2HKwI8ZWBCOwMSbz2JN0w7AxJv
        PLQ5WDyLQ5Y8k3S8PVT99D0XjVA8zMzNPoAAAD9ywjU/AAAAP1GnuT8wjT4/HLCNAAAAADsDEm86gxJvAAAAAAAAAAAAAAAAPwAAADqDEm87RJumP4AAAAAAAAA/gAAA
        AAAAAD+AAAAAAAAAAAAAAAAAAAAAAAAAP4AAAAAAAAA/AAAAAAAAAD8AAAA/BR64PwAAAD+AAAA/AAAAPwAAAD8AAAA/gAAAP4AAAAAAAAAAAAAAAAAAAD8AAAA/gAAA
        PwAAAAAAAAA+vXCkAAAAAAAAAAA/gAAAP4AAAD8j1wo/gAAAAAAAAAAAAAA/gAAAPwAAAAAAAAAAAAAAAAAAAAAAAAAAAAAAAAAAAAAAAAAAAAAAAAAAAAAAAAAAAAAA
        AAAAAD8AAAA/AAAAPwAAAD8AAAA/AAAAPwAAAAAAAAAAAAAAP4AAAAAAAAAAAAAAAAAAAAAAAAAAAAAAAAAAAAAAAAAAAAAAAAAAAAAAAAAAAAAAAAAAAAAAAAAAAAAA
        AAAAAAAAAAAAAAAAAAAAAAAAAAAAAAAAAAAAAAAAAAAAAAAAAAAAAAAAAAAAAAAAAAAAAAAAqqusrQ==
        AEluaXQAEAAAAA==
      >
      PRESETNAME Init
      FLOATPOS 500 379 987 799
      FXID {532372E3-5B0D-9345-A9C8-98A8EBAF9A7E}
      WAK 0
    >
    <ITEM
      POSITION 0
      SNAPOFFS 0
      LENGTH 36
      LOOP 1
      ALLTAKES 0
      FADEIN 1 0 0 1 0 0
      FADEOUT 1 0 0 1 0 0
      MUTE 0
      SEL 0
      YPOS 0 0.25
      IGUID {4060C924-EAB0-424D-A8F0-5C7A0C6D4124}
      IID 1
      NAME "MELODY               - National_Anthems_-_Cyprus.mid"
      VOLPAN 1 0 1 -1
      SOFFS 1 2
      PLAYRATE 1 1 0 -1 0 0.0025
      CHANMODE 0
      TAKECOLOR 26173599 B
      GUID {2BA0EC90-7C36-AE45-93FB-D962994FF2F6}
      <SOURCE MIDI
        HASDATA 1 192 QN
        POOLEDEVTS {105B7F2D-AD9D-E44B-A638-3430974F43EE}
        <X 0 0 0 0 3 "MELODY              "
          /wNNRUxPRFkgICAgICAgICAgICAgIA==
        >
        <X 0 0 0 0 1 "THE SOFTWARE TOOLWORKS"
          /wFUSEUgU09GVFdBUkUgVE9PTFdPUktT
        >
        <X 0 0 0 0 1 "WORLD ATLAS"
          /wFXT1JMRCBBVExBUw==
        >
        <X 0 0 0 0 1 "MultiMedia Windows Version"
          /wFNdWx0aU1lZGlhIFdpbmRvd3MgVmVyc2lvbg==
        >
        <X 0 0 0 0 1 "Country: GREECE"
          /wFDb3VudHJ5OiBHUkVFQ0U=
        >
        <X 0 0 0 0 1 "Anthem Name:"
          /wFBbnRoZW0gTmFtZTo=
        >
        <X 0 0 0 0 1 "(p) (c) The Software Toolworks 1991"
          /wEocCkgKGMpIFRoZSBTb2Z0d2FyZSBUb29sd29ya3MgMTk5MQ==
        >
        <X 0 0 0 0 1 "date: 9-9-91"
          /wFkYXRlOiA5LTktOTE=
        >
        <X 0 0 0 0 1 "MMWIN EDIT DATE:9-12-91"
          /wFNTVdJTiBFRElUIERBVEU6OS0xMi05MQ==
        >
        <X 0 0 0 0 1 "revised 11-26-91"
          /wFyZXZpc2VkIDExLTI2LTkx
        >
        <X 0 0 0 0 1 "This file provided by:"
          /wFUaGlzIGZpbGUgcHJvdmlkZWQgYnk6
        >
        <X 0 0 0 0 1 "Rob Wallace Music"
          /wFSb2IgV2FsbGFjZSBNdXNpYw==
        >
        <X 0 0 0 0 1 "(602) 979-6201"
          /wEoNjAyKSA5NzktNjIwMQ==
        >
        e 384 90 51 64
        e 128 80 51 40
        e 16 90 52 64
        e 32 80 52 40
        e 16 90 54 64
        e 320 80 54 40
        e 16 90 52 64
        e 32 80 52 40
        e 16 90 51 64
        e 128 80 51 40
        e 16 90 52 64
        e 32 80 52 40
        e 16 90 54 64
        e 176 80 54 40
        e 16 90 51 64
        e 176 80 51 40
        e 16 90 52 64
        e 128 80 52 40
        e 16 90 54 64
        e 32 80 54 40
        e 16 90 56 64
        e 320 80 56 40
        e 16 90 56 64
        e 32 80 56 40
        e 16 90 58 64
        e 128 80 58 40
        e 16 90 58 64
        e 32 80 58 40
        e 16 90 59 64
        e 272 80 59 40
        e 112 90 4f 64
        e 128 80 4f 40
        e 16 90 51 64
        e 32 80 51 40
        e 16 90 52 64
        e 320 80 52 40
        e 16 90 51 64
        e 32 80 51 40
        e 16 90 4f 64
        e 128 80 4f 40
        e 16 90 51 64
        e 32 80 51 40
        e 16 90 52 64
        e 176 80 52 40
        e 16 90 4f 64
        e 80 80 4f 40
        e 112 90 54 64
        e 128 80 54 40
        e 16 90 54 64
        e 32 80 54 40
        e 16 90 58 64
        e 320 80 58 40
        e 16 90 56 64
        e 32 80 56 40
        e 16 90 54 64
        e 128 80 54 40
        e 16 90 52 64
        e 32 80 52 40
        e 16 90 51 64
        e 272 80 51 40
        e 112 90 51 64
        e 128 80 51 40
        e 16 90 51 64
        e 32 80 51 40
        e 16 90 56 64
        e 320 80 56 40
        e 16 90 59 64
        e 32 80 59 40
        e 16 90 58 64
        e 128 80 58 40
        e 16 90 55 64
        e 32 80 55 40
        e 16 90 56 64
        e 176 80 56 40
        e 16 90 51 64
        e 80 80 51 40
        e 112 90 51 64
        e 128 80 51 40
        e 16 90 51 64
        e 32 80 51 40
        e 16 90 56 64
        e 320 80 56 40
        e 16 90 59 64
        e 32 80 59 40
        e 16 90 58 64
        e 128 80 58 40
        e 16 90 55 64
        e 32 80 55 40
        e 16 90 56 64
        e 272 80 56 40
        e 112 90 54 64
        e 128 80 54 40
        e 16 90 54 64
        e 32 80 54 40
        e 16 90 54 64
        e 176 80 54 40
        e 16 90 58 64
        e 80 80 58 40
        e 112 90 54 64
        e 128 80 54 40
        e 16 90 54 64
        e 32 80 54 40
        e 16 90 54 64
        e 176 80 54 40
        e 16 90 59 64
        e 80 80 59 40
        e 112 90 54 64
        e 128 80 54 40
        e 16 90 54 64
        e 32 80 54 40
        e 16 90 54 64
        e 176 80 54 40
        e 16 90 58 64
        e 80 80 58 40
        e 64 90 54 64
        e 32 80 54 40
        e 16 90 56 64
        e 128 80 56 40
        e 16 90 58 64
        e 32 80 58 40
        e 16 90 59 64
        e 272 80 59 40
        e 112 90 59 64
        e 128 80 59 40
        e 16 90 58 64
        e 32 80 58 40
        e 16 90 58 64
        e 176 80 58 40
        e 16 90 56 64
        e 80 80 56 40
        e 112 90 56 64
        e 128 80 56 40
        e 16 90 54 64
        e 32 80 54 40
        e 16 90 54 64
        e 176 80 54 40
        e 16 90 52 64
        e 80 80 52 40
        e 112 90 56 64
        e 128 80 56 40
        e 16 90 56 64
        e 32 80 56 40
        e 16 90 54 64
        e 320 80 54 40
        e 16 90 51 64
        e 32 80 51 40
        e 16 90 52 64
        e 128 80 52 40
        e 16 90 4f 64
        e 32 80 4f 40
        e 16 90 52 64
        e 176 80 52 40
        e 16 90 51 64
        e 80 80 51 40
        e 112 90 59 64
        e 128 80 59 40
        e 16 90 58 64
        e 32 80 58 40
        e 16 90 58 64
        e 176 80 58 40
        e 16 90 56 64
        e 80 80 56 40
        e 112 90 56 64
        e 128 80 56 40
        e 16 90 54 64
        e 32 80 54 40
        e 16 90 54 64
        e 176 80 54 40
        e 16 90 52 64
        e 80 80 52 40
        e 112 90 56 64
        e 128 80 56 40
        e 16 90 56 64
        e 32 80 56 40
        e 16 90 54 64
        e 320 80 54 40
        e 16 90 51 64
        e 32 80 51 40
        e 16 90 52 64
        e 128 80 52 40
        e 16 90 4f 64
        e 32 80 4f 40
        e 16 90 4d 64
        e 272 80 4d 40
        E 112 b0 7b 00
        GUID {B4D62134-6B05-EC4A-B488-3EE16BC5F2C2}
        IGNTEMPO 0 120 4 4
        SRCCOLOR 628
        VELLANE -1 86 6
        CFGEDITVIEW -985.079792 28.048037 74 12 0 0 0 0 0 0.5
        KEYSNAP 0
        TRACKSEL 226
        EVTFILTER 0 -1 -1 -1 -1 0 0 0 0 -1 -1 -1 -1 0 -1 0 -1 -1
        CFGEDIT 1 1 0 0 0 0 1 0 1 1 1 0.25 474 462 1014 762 1 0 1 3 0 0 0 0 0 -1 0 0 1 64
      >
      TAKE
      NAME "MELODY               - National_Anthems_-_Cyprus.mid"
      TAKEVOLPAN 0 1 -1
      SOFFS 1 2
      PLAYRATE 1 1 0 -1 0 0.0025
      CHANMODE 0
      GUID {D3555890-7FDE-B240-9439-3717DC8FFD18}
      <SOURCE MIDI
        HASDATA 1 192 QN
        POOLEDEVTS {F766886C-CE4C-ED49-B7AE-B8F9936A07CD}
        <X 0 0 0 0 3 "MELODY              "
          /wNNRUxPRFkgICAgICAgICAgICAgIA==
        >
        <X 0 0 0 0 1 "THE SOFTWARE TOOLWORKS"
          /wFUSEUgU09GVFdBUkUgVE9PTFdPUktT
        >
        <X 0 0 0 0 1 "WORLD ATLAS"
          /wFXT1JMRCBBVExBUw==
        >
        <X 0 0 0 0 1 "MultiMedia Windows Version"
          /wFNdWx0aU1lZGlhIFdpbmRvd3MgVmVyc2lvbg==
        >
        <X 0 0 0 0 1 "Country: GREECE"
          /wFDb3VudHJ5OiBHUkVFQ0U=
        >
        <X 0 0 0 0 1 "Anthem Name:"
          /wFBbnRoZW0gTmFtZTo=
        >
        <X 0 0 0 0 1 "(p) (c) The Software Toolworks 1991"
          /wEocCkgKGMpIFRoZSBTb2Z0d2FyZSBUb29sd29ya3MgMTk5MQ==
        >
        <X 0 0 0 0 1 "date: 9-9-91"
          /wFkYXRlOiA5LTktOTE=
        >
        <X 0 0 0 0 1 "MMWIN EDIT DATE:9-12-91"
          /wFNTVdJTiBFRElUIERBVEU6OS0xMi05MQ==
        >
        <X 0 0 0 0 1 "revised 11-26-91"
          /wFyZXZpc2VkIDExLTI2LTkx
        >
        <X 0 0 0 0 1 "This file provided by:"
          /wFUaGlzIGZpbGUgcHJvdmlkZWQgYnk6
        >
        <X 0 0 0 0 1 "Rob Wallace Music"
          /wFSb2IgV2FsbGFjZSBNdXNpYw==
        >
        <X 0 0 0 0 1 "(602) 979-6201"
          /wEoNjAyKSA5NzktNjIwMQ==
        >
        E 384 90 51 64
        E 128 80 51 40
        E 16 90 52 64
        E 32 80 52 40
        E 16 90 54 64
        E 320 80 54 40
        E 16 90 52 64
        E 32 80 52 40
        E 16 90 51 64
        E 128 80 51 40
        E 16 90 52 64
        E 32 80 52 40
        E 16 90 54 64
        E 176 80 54 40
        E 16 90 51 64
        E 176 80 51 40
        E 16 90 52 64
        E 128 80 52 40
        E 16 90 54 64
        E 32 80 54 40
        E 16 90 56 64
        E 320 80 56 40
        E 16 90 56 64
        E 32 80 56 40
        E 16 90 58 64
        E 128 80 58 40
        E 16 90 58 64
        E 32 80 58 40
        E 16 90 59 64
        E 272 80 59 40
        E 112 90 4f 64
        E 128 80 4f 40
        E 16 90 51 64
        E 32 80 51 40
        E 16 90 52 64
        E 320 80 52 40
        E 16 90 51 64
        E 32 80 51 40
        E 16 90 4f 64
        E 128 80 4f 40
        E 16 90 51 64
        E 32 80 51 40
        E 16 90 52 64
        E 176 80 52 40
        E 16 90 4f 64
        E 80 80 4f 40
        E 112 90 54 64
        E 128 80 54 40
        E 16 90 54 64
        E 32 80 54 40
        E 16 90 58 64
        E 320 80 58 40
        E 16 90 56 64
        E 32 80 56 40
        E 16 90 54 64
        E 128 80 54 40
        E 16 90 52 64
        E 32 80 52 40
        E 16 90 51 64
        E 272 80 51 40
        E 112 90 51 64
        E 128 80 51 40
        E 16 90 51 64
        E 32 80 51 40
        E 16 90 56 64
        E 320 80 56 40
        E 16 90 59 64
        E 32 80 59 40
        E 16 90 58 64
        E 128 80 58 40
        E 16 90 55 64
        E 32 80 55 40
        E 16 90 56 64
        E 176 80 56 40
        E 16 90 51 64
        E 80 80 51 40
        E 112 90 51 64
        E 128 80 51 40
        E 16 90 51 64
        E 32 80 51 40
        E 16 90 56 64
        E 320 80 56 40
        E 16 90 59 64
        E 32 80 59 40
        E 16 90 58 64
        E 128 80 58 40
        E 16 90 55 64
        E 32 80 55 40
        E 16 90 56 64
        E 272 80 56 40
        E 112 90 54 64
        E 128 80 54 40
        E 16 90 54 64
        E 32 80 54 40
        E 16 90 54 64
        E 176 80 54 40
        E 16 90 58 64
        E 80 80 58 40
        E 112 90 54 64
        E 128 80 54 40
        E 16 90 54 64
        E 32 80 54 40
        E 16 90 54 64
        E 176 80 54 40
        E 16 90 59 64
        E 80 80 59 40
        E 112 90 54 64
        E 128 80 54 40
        E 16 90 54 64
        E 32 80 54 40
        E 16 90 54 64
        E 176 80 54 40
        E 16 90 58 64
        E 80 80 58 40
        E 64 90 54 64
        E 32 80 54 40
        E 16 90 56 64
        E 128 80 56 40
        E 16 90 58 64
        E 32 80 58 40
        E 16 90 59 64
        E 272 80 59 40
        E 112 90 59 64
        E 128 80 59 40
        E 16 90 58 64
        E 32 80 58 40
        E 16 90 58 64
        E 176 80 58 40
        E 16 90 56 64
        E 80 80 56 40
        E 112 90 56 64
        E 128 80 56 40
        E 16 90 54 64
        E 32 80 54 40
        E 16 90 54 64
        E 176 80 54 40
        E 16 90 52 64
        E 80 80 52 40
        E 112 90 56 64
        E 128 80 56 40
        E 16 90 56 64
        E 32 80 56 40
        E 16 90 54 64
        E 320 80 54 40
        E 16 90 51 64
        E 32 80 51 40
        E 16 90 52 64
        E 128 80 52 40
        E 16 90 4f 64
        E 32 80 4f 40
        E 16 90 52 64
        E 176 80 52 40
        E 16 90 51 64
        E 80 80 51 40
        E 112 90 59 64
        E 128 80 59 40
        E 16 90 58 64
        E 32 80 58 40
        E 16 90 58 64
        E 176 80 58 40
        E 16 90 56 64
        E 80 80 56 40
        E 112 90 56 64
        E 128 80 56 40
        E 16 90 54 64
        E 32 80 54 40
        E 16 90 54 64
        E 176 80 54 40
        E 16 90 52 64
        E 80 80 52 40
        E 112 90 56 64
        E 128 80 56 40
        E 16 90 56 64
        E 32 80 56 40
        E 16 90 54 64
        E 320 80 54 40
        E 16 90 51 64
        E 32 80 51 40
        E 16 90 52 64
        E 128 80 52 40
        E 16 90 4f 64
        E 32 80 4f 40
        E 16 90 4d 64
        E 272 80 4d 40
        E 112 b0 7b 00
        GUID {D2E0210A-8BF3-2048-8B9C-E33150BDB4E1}
        IGNTEMPO 0 120 4 4
        SRCCOLOR 687
        VELLANE -1 86 6
        CFGEDITVIEW 0 0 74 12 0 0 0 0 0 0.5
        KEYSNAP 0
        TRACKSEL 226
        EVTFILTER 0 -1 -1 -1 -1 0 0 0 0 -1 -1 -1 -1 0 -1 0 -1 -1
        CFGEDIT 1 1 0 0 0 0 1 0 1 1 1 0.25 474 462 1014 762 1 0 1 3 0 0 0 0 0 -1 0 0 1 64
      >
    >
  >
  <TRACK {9E2CAE92-CCC1-1F4A-BCF6-93DCFE473BDF}
    NAME "16th pulse (mix w/ send?)"
    PEAKCOL 16576
    BEAT -1
    AUTOMODE 0
    VOLPAN 0.35597541245898 0 -1 -1 1
    MUTESOLO 0 0 0
    IPHASE 0
    ISBUS 0 0
    BUSCOMP 0 0
    SHOWINMIX 1 0.6667 0.5 1 0.5 0 0 0
    FREEMODE 0
    SEL 0
    REC 0 0 0 0 0 0 0
    VU 2
    TRACKHEIGHT 0 0
    INQ 0 0 0 0.5 100 0 0 100
    NCHAN 2
    FX 1
    TRACKID {9E2CAE92-CCC1-1F4A-BCF6-93DCFE473BDF}
    PERF 0
    MIDIOUT -1
    MAINSEND 1 0
    <FXCHAIN
      WNDRECT 36 359 724 387
      SHOW 0
      LASTSEL 0
      DOCKED 0
      BYPASS 1 0 0
      <VST "VSTi: BlueARP.x64 (graywolf2004)" BlueARP.x64.vst 0 "" 929322872
        eFdkN+5e7f4AAAAAAgAAAAEAAAAAAAAAAgAAAAAAAACMkwAAAQAAAAAAEAA=
        dGZmcAAAAQAOAAEBAQAAAAACCP8FAAAAAAAAAAD///8QDw8PAAAAAAAAAAAAAAAA////FwAAAAAAAAAAAAAAAAAAAP///xMAAAAAAAAAAAAAAAAAAAD///8JCQoKAAAA
        AAAAAAAAAAAA////NgAAAAAAAAAAAAAAAAAAAP///z4/AAAAAAAAAAAAAAAAAAD///8hISEiAAAAAAAAAAAAAAAA////GxsAAAAAAAAAAAAAAAAAAP///wAAAAAAAAAA
        AAAAAAAAAAD///8AAAAAAAAAAAAAAAAAAAAA////AAAAAAAAAAAAAAAAAAAAAP///wAAAAAAAAAAAAAAAAAAAAD///8AAAAAAAAAAAAAAAAAAAAA////AAAAAAAAAAAA
        AAAAAAAAAP///wAAAAAAAAAAAAAAAAAAAAD///8AAAAAAAAAAAAAAAAAAAAOEFoDAAAAfwB/AEAAAQABAAAAAAAAAAAAfwAAAAAAAAAAAAAAAAAAAAAAAAAAAAAAAAAA
        AAAAAAAAAAAAAAAAAAAAAAAAAAAAAAAAAAAAAAAAAAAAAAAAAAAAAAAAAAAAAAAAAAAAAAAAAAAAAAAAAAAAAAAAAAAAAAAAAAAAAAAAAAAAAAAAAAAAAAAAAAAAAAAA
        AAAAAAAICAgICAgICAgICAgICAgICAgICAgICAgICAgICAgICAgICAgICAgICAgICAgICAgICAgICAgICAgICAgICAgIAQEBAQEBAQEBAQEBAQEBAQEBAQEBAQEBAQEB
        AQEBAQEBAQEBAQEBAQEBAQEBAQEBAQEBAQEBAQEBAQEBAQEBAQQEBAQEBAQEBAQEBAQEBAQEBAQEBAQEBAQEBAQEBAQEBAQEBAQEBAQEBAQEBAQEBAQEBAQEBAQEBAQE
        BAQEBARgYGBgYGBgYGBgYGBgYGBgYGBgYGBgYGBgYGBgYGBgYGBgYGBgYGBgYGBgYGBgYGBgYGBgYGBgYGBgYGBgYGBgAAAAAAAAAAAAAAAAAAAAAAAAAAAAAAAAAAAA
        AAAAAAAAAAAAAAAAAAAAAAAAAAAAAAAAAAAAAAAAAAAAAAAAAAAAAAAAAAAAAAAAAAAAAAAAAAAAAAAAAAAAAAAAAAAAAAAAAAAAAAAAAAAAAAAAAAAAAAAAAAAAAAAA
        AAAAAAAtIEluaXRpYWwgcHJvZ3JhbSAtAP9/AAAEzMQlAQAAAfSwYiABAAAAAAABADABAAAOEDIDAAcAfwB/AEAAAQABAAAAAAAAAAAAfwAAAAAAAAAAAAAAAAAAAAAA
        AAAAAAAAAAAAAAAAAAAAAAAAAAAAAAAAAAAAAAAAAAAAAAAAAAAAAAAAAAAAAAAAAAAAAAAAAAAAAAAAAAAAAAAAAAAAAAAAAAAAAAAAAAAAAAAAAAAAAAAAAAAAAAAA
        AAAAAAAAAAAAAAAAAAAICAgICAgICAgICAgICAgICAgICAgICAgICAgICAgICAgICAgICAgICAgICAgICAgICAgICAgICAgICAgICAgIAQEBAQEBAQEBAQEBAQEBAQEB
        AQEBAQEBAQEBAQEBAQEBAQEBAQEBAQEBAQEBAQEBAQEBAQEBAQEBAQEBAQEBAQQIECAECBAgBAgQIAQIECAEBAQEBAQEBAQEBAQEBAQEBAQEBAQEBAQEBAQEBAQEBAQE
        BAQEBAQEBAQEBAQEBARgYGBgYGBgYGBgYGBgYGBgYGBgYGBgYGBgYGBgYGBgYGBgYGBgYGBgYGBgYGBgYGBgYGBgYGBgYGBgYGBgYGBgAAAAAAAAAAAAAAAAAAAAAAAA
        AAAAAAAAAAAAAAAAAAAAAAAAAAAAAAAAAAAAAAAAAAAAAAAAAAAAAAAAAAAAAAAAAAAAAAAAAAAAAAAAAAAAAAAAAAAAAAAAAAAAAAAAAAAAAAAAAAAAAAAAAAAAAAAA
        AAAAAAAAAAAAAAAAAABTaW1wbGUgNGsgVXAAAAAAkCm+X/9/AACweMQlAQAAAAQqvl//fwAA9LBiIAEAAAAOEDIDAAcAfwB/AEAAAQABAAAAAAAAAAAAfwAAAAAAAAAA
        AAAAAAAAAAAAAAAAAAAAAAAAAAAAAAAAAAAAAAAAAAAAAAAAAAAAAAAAAAAAAAAAAAAAAAAAAAAAAAAAAAAAAAAAAAAAAAAAAAAAAAAAAAAAAAAAAAAAAAAAAAAAAAAA
        AAAAAAAAAAAAAAAAAAAAAAAAAAAAAAAICAgICAgICAgICAgICAgICAgICAgICAgICAgICAgICAgICAgICAgICAgICAgICAgICAgICAgICAgICAgICAgIAQEBAQEBAQEB
        AQEBAQEBAQEBAQEBAQEBAQEBAQEBAQEBAQEBAQEBAQEBAQEBAQEBAQEBAQEBAQEBAQEBAQEBASAQCAQgEAgEIBAIBCAQCAQEBAQEBAQEBAQEBAQEBAQEBAQEBAQEBAQE
        BAQEBAQEBAQEBAQEBAQEBAQEBAQEBARgYGBgYGBgYGBgYGBgYGBgYGBgYGBgYGBgYGBgYGBgYGBgYGBgYGBgYGBgYGBgYGBgYGBgYGBgYGBgYGBgYGBgAAAAAAAAAAAA
        AAAAAAAAAAAAAAAAAAAAAAAAAAAAAAAAAAAAAAAAAAAAAAAAAAAAAAAAAAAAAAAAAAAAAAAAAAAAAAAAAAAAAAAAAAAAAAAAAAAAAAAAAAAAAAAAAAAAAAAAAAAAAAAA
        AAAAAAAAAAAAAAAAAAAAAAAAAAAAAABTaW1wbGUgNGsgRG93bgAAkCm+X/9/AACweMQlAQAAAAQqvl//fwAA9LBiIAEAAAAOEDIDAAcAfwB/AEAAAQABAAAAAAAAAAAA
        fwAAAAAAAAAAAAAAAAAAAAAAAAAAAAAAAAAAAAAAAAAAAAAAAAAAAAAAAAAAAAAAAAAAAAAAAAAAAAAAAAAAAAAAAAAAAAAAAAAAAAAAAAAAAAAAAAAAAAAAAAAAAAAA
        AAAAAAAAAAAAAAAAAAAAAAAAAAAAAAAAAAAAAAAAAAAICAgICAgICAgICAgICAgICAgICAgICAgICAgICAgICAgICAgICAgICAgICAgICAgICAgICAgICAgICAgICAgI
        AQEBAQEBAQEBAQEBAQEBAQEBAQEBAQEBAQEBAQEBAQEBAQEBAQEBAQEBAQEBAQEBAQEBAQEBAQEBAQEBAQEBAQQIEAQIEAQIEAQIEAQIEAgEBAQEBAQEBAQEBAQEBAQE
        BAQEBAQEBAQEBAQEBAQEBAQEBAQEBAQEBAQEBAQEBARgYGBgYGBgYGBgYGBgYGBgYGBgYGBgYGBgYGBgYGBgYGBgYGBgYGBgYGBgYGBgYGBgYGBgYGBgYGBgYGBgYGBg
        AAAAAAAAAAAAAAAAAAAAAAAAAAAAAAAAAAAAAAAAAAAAAAAAAAAAAAAAAAAAAAAAAAAAAAAAAAAAAAAAAAAAAAAAAAAAAAAAAAAAAAAAAAAAAAAAAAAAAAAAAAAAAAAA
        AAAAAAAAAAAAAAAAAAAAAAAAAAAAAAAAAAAAAAAAAABTaW1wbGUgM2sgVXAAAAAAkCm+X/9/AACweMQlAQAAAAQqvl//fwAA9LBiIAEAAAAOEDIDAAcAfwB/AEAAAQAB
        AAAAAAAAAAAAfwAAAAAAAAAAAAAAAAAAAAAAAAAAAAAAAAAAAAAAAAAAAAAAAAAAAAAAAAAAAAAAAAAAAAAAAAAAAAAAAAAAAAAAAAAAAAAAAAAAAAAAAAAAAAAAAAAA
        AAAAAAAAAAAAAAAAAAAAAAAAAAAAAAAAAAAAAAAAAAAAAAAAAAAAAAAICAgICAgICAgICAgICAgICAgICAgICAgICAgICAgICAgICAgICAgICAgICAgICAgICAgICAgI
        CAgICAgICAgIAQEBAQEBAQEBAQEBAQEBAQEBAQEBAQEBAQEBAQEBAQEBAQEBAQEBAQEBAQEBAQEBAQEBAQEBAQEBAQEBAQEBARAIBBAIBBAIBBAIBBAIBAgEBAQEBAQE
        BAQEBAQEBAQEBAQEBAQEBAQEBAQEBAQEBAQEBAQEBAQEBAQEBAQEBARgYGBgYGBgYGBgYGBgYGBgYGBgYGBgYGBgYGBgYGBgYGBgYGBgYGBgYGBgYGBgYGBgYGBgYGBg
        YGBgYGBgYGBgAAAAAAAAAAAAAAAAAAAAAAAAAAAAAAAAAAAAAAAAAAAAAAAAAAAAAAAAAAAAAAAAAAAAAAAAAAAAAAAAAAAAAAAAAAAAAAAAAAAAAAAAAAAAAAAAAAAA
        AAAAAAAAAAAAAAAAAAAAAAAAAAAAAAAAAAAAAAAAAAAAAAAAAAAAAABTaW1wbGUgM2sgRG93bgAAkCm+X/9/AACweMQlAQAAAAQqvl//fwAA9LBiIAEAAAAOCFoDAAAA
        fwB/AEAAAQABAAAAAAAAAAAAfwAAAAAAAAAAAAAAAAAAAAAAAAAAAAAAAAAAAAAAAAAAAAAAAAAAAAAAAAAAAAAAAAAAAAAAAAAAAAAAAAAAAAAAAAAAAAAAAAAAAAAA
        AAAAAAAAAAAAAAAAAAAAAAAAAAAAAAAAAAAAAAAAAAAAAAAAAAAAAAAAAAAAAAAAAAAICAQICAgECAgICAgICAgICAgICAgICAgICAgICAgICAgICAgICAgICAgICAgI
        CAgICAgICAgICAgICAgICAgIBAAEAAQABAABAQEBAQEBAQEBAQEBAQEBAQEBAQEBAQEBAQEBAQEBAQEBAQEBAQEBAQEBAQEBAQEBAQEBAQEBAQQEBAQEBAQEBAQEBAQE
        BAQEBAQEBAQEBAQEBAQEBAQEBAQEBAQEBAQEBAQEBAQEBAQEBAQEBAQEBAQEBAQEBAQwYGBgMGBgYGBgYGBgYGBgYGBgYGBgYGBgYGBgYGBgYGBgYGBgYGBgYGBgYGBg
        YGBgYGBgYGBgYGBgYGBgYGBgAAAAAAAAAAAAAAAAAAAAAAAAAAAAAAAAAAAAAAAAAAAAAAAAAAAAAAAAAAAAAAAAAAAAAAAAAAAAAAAAAAAAAAAAAAAAAAAAAAAAAAAA
        AAAAAAAAAAAAAAAAAAAAAAAAAAAAAAAAAAAAAAAAAAAAAAAAAAAAAAAAAAAAAAAAAABDaG9yZCBEZWFkbWF1NSBwbHVja3MgdmFyMQAlAQAAAAQqvl//fwAA9LBiIAEA
        AAAOCFoDAAAAfwB/AEAAAQABAAAAAAAAAAAAfwEAAAAAAAAAAAAAAAAAAAAAAAAAAAAAAAAAAAAAAAAAAAAAAAAAAAAAAAAAAAAAAAAAAAAAAAAAAAAAAAAAAAAAAAAA
        AAAAAAAAAAAAAAAAAAAAAAAAAAAAAAAAAAAAAAAAAAAAAAAAAAAAAAAAAAAAAAAAAAAAAAAAAAAAAAAMCA4IDAgOCAgICAgICAgICAgICAgICAgICAgICAgICAgICAgI
        CAgICAgICAgICAgICAgICAgICAgICAgICAgIBAAEAAQABAABAQEBAQEBAQEBAQEBAQEBAQEBAQEBAQEBAQEBAQEBAQEBAQEBAQEBAQEBAQEBAQEBAQEBAQEBAQQEBAQE
        BAQEBAQEBAQEBAQEBAQEBAQEBAQEBAQEBAQEBAQEBAQEBAQEBAQEBAQEBAQEBAQEBAQEBAQEBAQEBAQwYGBgMGBgYGBgYGBgYGBgYGBgYGBgYGBgYGBgYGBgYGBgYGBg
        YGBgYGBgYGBgYGBgYGBgYGBgYGBgYGBgYGBgAAAAAAAAAAAAAAAAAAAAAAAAAAAAAAAAAAAAAAAAAAAAAAAAAAAAAAAAAAAAAAAAAAAAAAAAAAAAAAAAAAAAAAAAAAAA
        AAAAAAAAAAAAAAAAAAAAAAAAAAAAAAAAAAAAAAAAAAAAAAAAAAAAAAAAAAAAAAAAAAAAAAAAAAAAAABDaG9yZCBEZWFkbWF1NSBwbHVja3MgdmFyMgAlAQAAAAQqvl//
        fwAA9LBiIAEAAAAOEEoDAAAAfwB/AEAAAQABAAAAAAAAAAAAfwEAAAAAAAAAAAAAAAAAAAAAAAAAAAAAAAAAAAAAAAAAAAAAAAAAAAAAAAAAAAAAAAAAAAAAAAAAAAAA
        AAAAAAAAAAAAAAAAAAAAAAAAAAAAAAAAAAAAAAAAAAAAAAAAAAAAAAAAAAAAAAAAAAAAAAAAAAAAAAAAAAAAAAAAAAAICAgMCAgICAgMCAgICAwICAgICAgICAgICAgI
        CAgICAgICAgICAgICAgICAgICAgICAgICAgICAgICAgICAgIBAAABAAABAAABAAABAAEAAEBAQEBAQEBAQEBAQEBAQEBAQEBAQEBAQEBAQEBAQEBAQEBAQEBAQEBAQEB
        AQEBAQQEBAQEBAQEBAQEBAQEBAQEBAQEBAQEBAQEBAQEBAQEBAQEBAQEBAQEBAQEBAQEBAQEBAQEBAQEBAQEBAQEBARgYGBgYGBgYGBgYGBgYGBgYGBgYGBgYGBgYGBg
        YGBgYGBgYGBgYGBgYGBgYGBgYGBgYGBgYGBgYGBgYGBgYGBgAAAAAAAAAAAAAAAAAAAAAAAAAAAAAAAAAAAAAAAAAAAAAAAAAAAAAAAAAAAAAAAAAAAAAAAAAAAAAAAA
        AAAAAAAAAAAAAAAAAAAAAAAAAAAAAAAAAAAAAAAAAAAAAAAAAAAAAAAAAAAAAAAAAAAAAAAAAAAAAAAAAAAAAAAAAABQb2x5cGhvbmljIG9jdC4gUGx1Y2tzIHZhcjEA
        AQAAAAQqvl//fwAA9LBiIAEAAAAOEEoDAAAAfwB/AEAAAQABAAAAAAAAAAAAfwEAAAAAAAAAAAAAAAAAAAAAAAAAAAAAAAAAAAAAAAAAAAAAAAAAAAAAAAAAAAAAAAAA
        AAAAAAAAAAAAAAAAAAAAAAAAAAAAAAAAAAAAAAAAAAAAAAAAAAAAAAAAAAAAAAAAAAAAAAAAAAAAAAAAAAAAAAAAAAAAAAAAAAAAAAAMCAgOCAgMCAgOCAgMCA4ICAgI
        CAgICAgICAgICAgICAgICAgICAgICAgICAgICAgICAgICAgICAgICAgICAgIBAAABAAABAAABAAABAAEAAEBAQEBAQEBAQEBAQEBAQEBAQEBAQEBAQEBAQEBAQEBAQEB
        AQEBAQEBAQEBAQEBAQQEBAQEBAQEBAQEBAQEBAQEBAQEBAQEBAQEBAQEBAQEBAQEBAQEBAQEBAQEBAQEBAQEBAQEBAQEBAQEBAQEBARgYGBgYGBgYGBgYGBgYGBgYGBg
        YGBgYGBgYGBgYGBgYGBgYGBgYGBgYGBgYGBgYGBgYGBgYGBgYGBgYGBgYGBgAAAAAAAAAAAAAAAAAAAAAAAAAAAAAAAAAAAAAAAAAAAAAAAAAAAAAAAAAAAAAAAAAAAA
        AAAAAAAAAAAAAAAAAAAAAAAAAAAAAAAAAAAAAAAAAAAAAAAAAAAAAAAAAAAAAAAAAAAAAAAAAAAAAAAAAAAAAAAAAAAAAAAAAAAAAABQb2x5cGhvbmljIG9jdC4gUGx1
        Y2tzIHZhcjIAAQAAAAQqvl//fwAA9LBiIAEAAAAOEDQDAAAAfwB/AEAAAQABAAAAAAAAAAAAfwEAAAAAAAAAAAAAAAAAAAAAAAAAAAAAAAAAAAAAAAAAAAAAAAAAAAAA
        AAAAAAAAAAAAAAAAAAAAAAAAAAAAAAAAAAAAAAAAAAAAAAAAAAAAAAAAAAAAAAAAAAAAAAAAAAAAAAAAAAAAAAAAAAAAAAAAAAAAAAAAAAAAAAAAAAAMCAgOCAgMCAgO
        CAgMCA4ICAgICAgICAgICAgICAgICAgICAgICAgICAgICAgICAgICAgICAgICAgICAgICAgIBAICBAICBAICBAICBAIEAgEBAQEBAQEBAQEBAQEBAQEBAQEBAQEBAQEB
        AQEBAQEBAQEBAQEBAQEBAQEBAQEBAQQEBAQEBAQEBAQEBAQEBAQEBAQEBAQEBAQEBAQEBAQEBAQEBAQEBAQEBAQEBAQEBAQEBAQEBAQEBAQEBAQEBARgYGBgYGBgYGBg
        YGBgYGBgYGBgYGBgYGBgYGBgYGBgYGBgYGBgYGBgYGBgYGBgYGBgYGBgYGBgYGBgYGBgYGBgAAAAAAAAAAAAAAAAAAAAAAAAAAAAAAAAAAAAAAAAAAAAAAAAAAAAAAAA
        AAAAAAAAAAAAAAAAAAAAAAAAAAAAAAAAAAAAAAAAAAAAAAAAAAAAAAAAAAAAAAAAAAAAAAAAAAAAAAAAAAAAAAAAAAAAAAAAAAAAAAAAAAAAAAAAAABQb2x5cGhvbmlj
        IG9jdC4gUGx1Y2tzIHZhcjMAAQAAAAQqvl//fwAA9LBiIAEAAAAOEDIDAAAAfwB/AEAAAQABAAAAAAAAAAAAfwAAAAAAAAAAAAAAAAAAAAAAAAAAAAAAAAAAAAAAAAAA
        AAAAAAAAAAAAAAAAAAAAAAAAAAAAAAAAAAAAAAAAAAAAAAAAAAAAAAAAAAAAAAAAAAAAAAAAAAAAAAAAAAAAAAAAAAAAAAAAAAAAAAAAAAAAAAAAAAAAAAAAAAAAAAAI
        CAgICAgICAgICAgICAgICAgICAgICAgICAgICAgICAgICAgICAgICAgICAgICAgICAgICAgICAgICAgICAgIBAQABAQABAQABAQABAAEAAEBAQEBAQEBAQEBAQEBAQEB
        AQEBAQEBAQEBAQEBAQEBAQEBAQEBAQEBAQEBAQEBAQQEBAQEBAQEBAQEBAQEBAQEBAQEBAQEBAQEBAQEBAQEBAQEBAQEBAQEBAQEBAQEBAQEBAQEBAQEBAQEBAQEBARg
        YGBgYGBgYGBgYGBgYGBgYGBgYGBgYGBgYGBgYGBgYGBgYGBgYGBgYGBgYGBgYGBgYGBgYGBgYGBgYGBgYGBgAAAAAAAAAAAAAAAAAAAAAAAAAAAAAAAAAAAAAAAAAAAA
        AAAAAAAAAAAAAAAAAAAAAAAAAAAAAAAAAAAAAAAAAAAAAAAAAAAAAAAAAAAAAAAAAAAAAAAAAAAAAAAAAAAAAAAAAAAAAAAAAAAAAAAAAAAAAAAAAAAAAAAAAAAAAABB
        cnAgQ2hvcmQgR2F0ZWQgMDEAX/9/AACweMQlAQAAAAQqvl//fwAA9LBiIAEAAAAOEDIDAAAAfwB/AEAAAQABAAAAAAAAAAAAfwAAAAAAAAAAAAAAAAAAAAAAAAAAAAAA
        AAAAAAAAAAAAAAAAAAAAAAAAAAAAAAAAAAAAAAAAAAAAAAAAAAAAAAAAAAAAAAAAAAAAAAAAAAAAAAAAAAAAAAAAAAAAAAAAAAAAAAAAAAAAAAAAAAAAAAAAAAAAAAAA
        AAAAAAAAAAAICAgICAgICAgICAgICAgICAgICAgICAgICAgICAgICAgICAgICAgICAgICAgICAgICAgICAgICAgICAgICAgIBAAEAAQABAAEAAQAAAQABAEBAQEBAQEB
        AQEBAQEBAQEBAQEBAQEBAQEBAQEBAQEBAQEBAQEBAQEBAQEBAQEBAQQEBAQEBAQEBAQEBAQEBAQEBAQEBAQEBAQEBAQEBAQEBAQEBAQEBAQEBAQEBAQEBAQEBAQEBAQE
        BAQEBAQEBARgYGBgYGBgYGBgYGBgYGBgYGBgYGBgYGBgYGBgYGBgYGBgYGBgYGBgYGBgYGBgYGBgYGBgYGBgYGBgYGBgYGBgAAAAAAAAAAAAAAAAAAAAAAAAAAAAAAAA
        AAAAAAAAAAAAAAAAAAAAAAAAAAAAAAAAAAAAAAAAAAAAAAAAAAAAAAAAAAAAAAAAAAAAAAAAAAAAAAAAAAAAAAAAAAAAAAAAAAAAAAAAAAAAAAAAAAAAAAAAAAAAAAAA
        AAAAAAAAAABBcnAgQ2hvcmQgR2F0ZWQgMDIAX/9/AACweMQlAQAAAAQqvl//fwAA9LBiIAEAAAAOEDIDAAAAfwB/AEAAAQABAAAAAAAAAAAAfwAAAAAAAAAAAAAAAAAA
        AAAAAAAAAAAAAAAAAAAAAAAAAAAAAAAAAAAAAAAAAAAAAAAAAAAAAAAAAAAAAAAAAAAAAAAAAAAAAAAAAAAAAAAAAAAAAAAAAAAAAAAAAAAAAAAAAAAAAAAAAAAAAAAA
        AAAAAAAAAAAAAAAAAAAAAAAICAgICAgICAgICAgICAgICAgICAgICAgICAgICAgICAgICAgICAgICAgICAgICAgICAgICAgICAgICAgICAgIBAQABAQABAQABAQABAAE
        AAEBAQEBAQEBAQEBAQEBAQEBAQEBAQEBAQEBAQEBAQEBAQEBAQEBAQEBAQEBAQEBAQQEBAQEBAQEBAQEBAQEBAQEBAQEBAQEBAQEBAQEBAQEBAQEBAQEBAQEBAQEBAQE
        BAQEBAQEBAQEBAQEBAQEBARgYGBgYGBgYGBgYGBgYGBgYGBgYGBgYGBgYGBgYGBgYGBgYGBgYGBgYGBgYGBgYGBgYGBgYGBgYGBgYGBgYGBgAAAAAAAAAAAAAAAAAAAA
        AAAAAAAAAAAAAAAAAAAAAAAAAAAAAAAAAAAAAAAAAAAAAAAAAAAAAAAAAAAAAAAAAAAAAAAAAAAAAAAAAAAAAAAAAAAAAAAAAAAAAAAAAAAAAAAAAAAAAAAAAAAAAAAA
        AAAAAAAAAAAAAAAAAAAAAABBcnAgQ2hvcmQgR2F0ZWQgMDMAX/9/AACweMQlAQAAAAQqvl//fwAA9LBiIAEAAAAOEDIDAAkAfwB/AUAAAQABAAAAAAAAAAAAfwAAAAAA
        AAAAAAAAAAAAAAAAAAAAAAAAAAAAAAAAAAAAAAAAAAAAAAAAAAAAAAAAAAAAAAAAAAAAAAAAAAAAAAAAAAAAAAAAAAAAAAAAAAAAAAAAAAAAAAAAAAAAAAAAAAAAAAAA
        AAAAAAAAAAAAAAAAAAAAAAAAAAAAAAAAAAAICAgICAgICAgICAgICAgICAgICAgICAgICAgICAgICAgICAgICAgICAgICAgICAgICAgICAgICAgICAgICAgIAQEBAQEB
        AQEBAQEBAQEBAQEBAQEBAQEBAQEBAQEBAQEBAQEBAQEBAQEBAQEBAQEBAQEBAQEBAQEBAQEBAQEBARAIBBAIBBAIBBAEEAgEEAgEBAQEBAQEBAQEBAQEBAQEBAQEBAQE
        BAQEBAQEBAQEBAQEBAQEBAQEBAQEBAQEBARgYGBgYGBgYGBgYGBgYGBgYGBgYGBgYGBgYGBgYGBgYGBgYGBgYGBgYGBgYGBgYGBgYGBgYGBgYGBgYGBgYGBgAAAAAAAA
        AAAAAAAAAAAAAAAAAAAAAAAAAAAAAAAAAAAAAAAAAAAAAAAAAAAAAAAAAAAAAAAAAAAAAAAAAAAAAAAAAAAAAAAAAAAAAAAAAAAAAAAAAAAAAAAAAAAAAAAAAAAAAAAA
        AAAAAAAAAAAAAAAAAAAAAAAAAAAAAAAAAABBcnAgM2sgU1NhdyAwMSAoUmFtbXN0ZWluKQAlAQAAAAQqvl//fwAA9LBiIAEAAAAOCDoDAAQAfwB/AEAAAQABAAAAAAAA
        AAAAfwAAAAAAAAAAAAAAAAAAAAAAAAAAAAAAAAAAAAAAAAAAAAAAAAAAAAAAAAAAAAAAAAAAAAAAAAAAAAAAAAAAAAAAAAAAAAAAAAAAAAAAAAAAAAAAAAAAAAAAAAAA
        AAAAAAAAAAAAAAAAAAAAAAAAAAAAAAAAAAAAAAAAAAAAAAAECAgECAgECAgICAgICAgICAgICAgICAgICAgICAgICAgICAgICAgICAgICAgICAgICAgICAgICAgICAgI
        CAgIAQABAQEBAQEAAAAAAAAAAAEBAQEBAQEBAQEBAQEBAQEBAQEBAQEBAQEBAQEBAQEBAQEBAQEBAQEBAQEBAQEBAQQEEAQECAQQBAQEBAQEBAQEBAQEBAQEBAQEBAQE
        BAQEBAQEBAQEBAQEBAQEBAQEBAQEBAQEBAQEBAQEBAQEBARgYGBgYGBgYGBgYGBgYGBgYGBgYGBgYGBgYGBgYGBgYGBgYGBgYGBgYGBgYGBgYGBgYGBgYGBgYGBgYGBg
        YGBgAAAAAAAAAAAAAAAAAAAAAAAAAAAAAAAAAAAAAAAAAAAAAAAAAAAAAAAAAAAAAAAAAAAAAAAAAAAAAAAAAAAAAAAAAAAAAAAAAAAAAAAAAAAAAAAAAAAAAAAAAAAA
        AAAAAAAAAAAAAAAAAAAAAAAAAAAAAAAAAAAAAAAAAAAAAABBcnAgM2sgU3VwZXJTYXcgMDIAX/9/AACweMQlAQAAAAQqvl//fwAA9LBiIAEAAAAOCDoDAAQAfwB/AEAA
        AQABAAAAAAAAAAAAfwAAAAAAAAAAAAAAAAAAAAAAAAAAAAAAAAAAAAAAAAAAAAAAAAAAAAAAAAAAAAAAAAAAAAAAAAAAAAAAAAAAAAAAAAAAAAAAAAAAAAAAAAAAAAAA
        AAAAAAAAAAAAAAAAAAAAAAAAAAAAAAAAAAAAAAAAAAAAAAAAAAAAAAAAAAAECAgECAQICAgICAgICAgICAgICAgICAgICAgICAgICAgICAgICAgICAgICAgICAgICAgI
        CAgICAgICAgICAgIAQEBAQEBAQEAAAAAAAAAAAEBAQEBAQEBAQEBAQEBAQEBAQEBAQEBAQEBAQEBAQEBAQEBAQEBAQEBAQEBAQEBAQQQCAQEBAgQBAQEBAQEBAQEBAQE
        BAQEBAQEBAQEBAQEBAQEBAQEBAQEBAQEBAQEBAQEBAQEBAQEBAQEBAQEBARgYGBgYGBgYGBgYGBgYGBgYGBgYGBgYGBgYGBgYGBgYGBgYGBgYGBgYGBgYGBgYGBgYGBg
        YGBgYGBgYGBgYGBgAAAAAAAAAAAAAAAAAAAAAAAAAAAAAAAAAAAAAAAAAAAAAAAAAAAAAAAAAAAAAAAAAAAAAAAAAAAAAAAAAAAAAAAAAAAAAAAAAAAAAAAAAAAAAAAA
        AAAAAAAAAAAAAAAAAAAAAAAAAAAAAAAAAAAAAAAAAAAAAAAAAAAAAAAAAABBcnAgM2sgU3VwZXJTYXcgMDMAX/9/AACweMQlAQAAAAQqvl//fwAA9LBiIAEAAAAOEDoD
        AAgAfwB/AEAAAQABAAAAAAAAAAAAfwAAAAAAAAAAAAAAAAAAAAAAAAAAAAAAAAAAAAAAAAAAAAAAAAAAAAAAAAAAAAAAAAAAAAAAAAAAAAAAAAAAAAAAAAAAAAAAAAAA
        AAAAAAEAAAAAAAAAAAAAAAAAAAAAAAAAAAAAAAAAAAAAAAAAAAAAAAAAAAAAAAAAAAAAAAAICAQIBAgICAgIBAgICAQICAgICAgICAgICAgICAgICAgICAgICAgICAgI
        CAgICAgICAgICAgICAgICAgICAgIAQIBAAEAAQIBAgEAAQIBAQEBAQEBAQEBAQEBAQEBAQEBAQEBAQEBAQEBAQEBAQEBAQEBAQEBAQEBAQEBAQEBAQQEBAQEBAQECAQE
        BAQEBAQEBAQEBAQEBAQEBAQEBAQEBAQEBAQEBAQEBAQEBAQEBAQEBAQEBAQEBAQEBAQEBARgYGBgYGBgYGBgYGBgYGBgYGBgYGBgYGBgYGBgYGBgYGBgYGBgYGBgYGBg
        YGBgYGBgYGBgYGBgYGBgYGBgYGBgAAAAAAAAAAAAAAAAAAAAAAAAAAAAAAAAAAAAAAAAAAAAAAAAAAAAAAAAAAAAAAAAAAAAAAAAAAAAAAAAAAAAAAAAAAAAAAAAAAAA
        AAAAAAAAAAAAAAAAAAAAAAAAAAAAAAAAAAAAAAAAAAAAAAAAAAAAAAAAAAAAAAAAAAAAAABBcnAgMmsgU3VwZXJTYXcgMDQAX/9/AACweMQlAQAAAAQqvl//fwAA9LBi
        IAEAAAAOEDoDAAUAfwB/AEAAAQABAAAAAAAAAAAAfwAAAAAAAAAAAAAAAAAAAAAAAAAAAAAAAAAAAAAAAAAAAAAAAAAAAAAAAAAAAAAAAAAAAAAAAAAAAAAAAAAAAAAA
        AAAAAAAAAAAAAAAAAAAAAAAAAAAAAAAAAAAAAAAAAAAAAAAAAAAAAAAAAAAAAAAAAAAAAAAAAAAAAAAAAAAIBAgIBAgICAgECAgECAgECAgICAgICAgICAgICAgICAgI
        CAgICAgICAgICAgICAgICAgICAgICAgICAgICAgIAQEBAQEBAQEBAQEBAQEBAQEBAQEBAQEBAQEBAQEBAQEBAQEBAQEBAQEBAQEBAQEBAQEBAQEBAQEBAQEBAQEBAQgE
        BBAEBBAECAQEEAQEEAQEBAQEBAQEBAQEBAQEBAQEBAQEBAQEBAQEBAQEBAQEBAQEBAQEBAQEBAQEBAQEBARgYGBgYGBgYGBgYGBgYGBgYGBgYGBgYGBgYGBgYGBgYGBg
        YGBgYGBgYGBgYGBgYGBgYGBgYGBgYGBgYGBgYGBgAAAAAAAAAAAAAAAAAAAAAAAAAAAAAAAAAAAAAAAAAAAAAAAAAAAAAAAAAAAAAAAAAAAAAAAAAAAAAAAAAAAAAAAA
        AAAAAAAAAAAAAAAAAAAAAAAAAAAAAAAAAAAAAAAAAAAAAAAAAAAAAAAAAAAAAAAAAAAAAAAAAAAAAAAAAABBcnAgMmsgU3VwZXJTYXcgMDUAX/9/AACweMQlAQAAAAQq
        vl//fwAA9LBiIAEAAAAOBDgDAAAAfwB/AEAAAQABAAAAAAAAAAAAfwAAAAAAAAAAAAAAAAAAAAAAAAAAAAAAAAAAAAAAAAAAAAAAAAAAAAAAAAAAAAAAAAAAAAAAAAAA
        AAAAAAAAAAAAAAAAAAAAAAAAAAAAAAAAAAAAAAAAAAAAAAAAAAAAAAAAAAAAAAAAAAAAAAAAAAAAAAAAAAAAAAAAAAAAAAAICAgICAgICAgICAgICAgICAgICAgICAgI
        CAgICAgICAgICAgICAgICAgICAgICAgICAgICAgICAgICAgICAgIAQEEAQEBAQEBAQEBAQEBAQEBAQEBAQEBAQEBAQEBAQEBAQEBAQEBAQEBAQEBAQEBAQEBAQEBAQEB
        AQEBAQEBAQQIBAgEBAQEBAQEBAQEBAQEBAQEBAQEBAQEBAQEBAQEBAQEBAQEBAQEBAQEBAQEBAQEBAQEBAQEBAQEBAQEBARgYGBgYGBgYGBgYGBgYGBgYGBgYGBgYGBg
        YGBgYGBgYGBgYGBgYGBgYGBgYGBgYGBgYGBgYGBgYGBgYGBgYGBgAAAAAAAAAAAAAAAAAAAAAAAAAAAAAAAAAAAAAAAAAAAAAAAAAAAAAAAAAAAAAAAAAAAAAAAAAAAA
        AAAAAAAAAAAAAAAAAAAAAAAAAAAAAAAAAAAAAAAAAAAAAAAAAAAAAAAAAAAAAAAAAAAAAAAAAAAAAAAAAAAAAAAAAAAAAABBcnAgM2sgQmVuYXNzaSBJbGx1c2lvbgCw
        eMQlAQAAAAQqvl//fwAA9LBiIAEAAAAOEDIDAAcAfwB/AEAAAQABAAAAAAAAAAAAfwAAAAAAAAAAAAAAAAAAAAAAAAAAAAAAAAAAAAAAAAAAAAAAAAAAAAAAAAAAAAAA
        AAAAAAAAAAAAAAAAAAAAAAAAAAAAAAAAAAAAAAAAAAAAAAAAAAAAAAAAAAAAAAAAAAAAAAAAAAAAAAAAAAAAAAAAAAAAAAAAAAAAAAAAAAAECAgECAgICAQICAQICAQI
        CAgICAgICAgICAgICAgICAgICAgICAgICAgICAgICAgICAgICAgICAgICAgICAgIAQEBAQEBAQEBAQEBAQEBAQEBAQEBAQEBAQEBAQEBAQEBAQEBAQEBAQEBAQEBAQEB
        AQEBAQEBAQEBAQEBAQEBAQQIEAQQCBAgBCAQBAQIBBAEBAQEBAQEBAQEBAQEBAQEBAQEBAQEBAQEBAQEBAQEBAQEBAQEBAQEBAQEBAQEBARgYGBgYGBgYGBgYGBgYGBg
        YGBgYGBgYGBgYGBgYGBgYGBgYGBgYGBgYGBgYGBgYGBgYGBgYGBgYGBgYGBgYGBgAAAAAAAAAAAAAAAAAAAAAAAAAAAAAAAAAAAAAAAAAAAAAAAAAAAAAAAAAAAAAAAA
        AAAAAAAAAAAAAAAAAAAAAAAAAAAAAAAAAAAAAAAAAAAAAAAAAAAAAAAAAAAAAAAAAAAAAAAAAAAAAAAAAAAAAAAAAAAAAAAAAAAAAAAAAABBcnAgNGsgU1NhdyAwNyAo
        WVQgSW50cm8pAMQlAQAAAAQqvl//fwAA9LBiIAEAAAAOID0DAAcAfwB/AEAAAQABAAAAAAAAAAAAfwAAAAAAAAAAAAAAAAAAAAAAAAAAAAAAAAAAAAAAAAAAAAAAAAAA
        AAAAAAAAAAAAAAAAAAAAAAAAAAAAAAAAAAAAAAAAAAAAAAAAAAAAAAAAAAAAAAAAAAAAAAAAAAAAAAAAAAAAAAAAAAAAAAAAAAAAAAAAAAAAAAAAAAAAAAAIBAgECAQI
        BAgECAQIBAgECAQIBAgECAQIBAgECAQICAgICAgICAgICAgICAgICAgICAgICAgICAgICAgICAgIAQEBAQEBAQEBAQEBAQEBAQEBAQEBAQEBAQEBAQEBAQEBAQEBAQEB
        AQEBAQEBAQEBAQEBAQEBAQEBAQEBAQEBAQQECAQQBAQECAQQBAQECAQQBAQECAQQBAQECAQQBBAIBAQEBAQEBAQEBAQEBAQEBAQEBAQEBAQEBAQEBAQEBARgYGBgYGBg
        YGBgYGBgYGBgYGBgYGBgYGBgYGBgYGBgYGBgYGBgYGBgYGBgYGBgYGBgYGBgYGBgYGBgYGBgYGBgAAAAAAAAAAAAAAAAAAAAAAAAAAAAAAAAAAAAAAAAAAAAAAAAAAAA
        AAAAAAAAAAAAAAAAAAAAAAAAAAAAAAAAAAAAAAAAAAAAAAAAAAAAAAAAAAAAAAAAAAAAAAAAAAAAAAAAAAAAAAAAAAAAAAAAAAAAAAAAAAAAAAAAAAAAAABBcnAgM2sg
        U1NhdyAwOCAoMzIgc3RlcHMpAMQlAQAAAAQqvl//fwAA9LBiIAEAAAAOEEUDAAQAfwB/AEAAAQABAAAAAAAAAAAAfwAAAAAAAAAAAAAAAAAAAAAAAAAAAAAAAAAAAAAA
        AAAAAAAAAAAAAAAAAAAAAAAAAAAAAAAAAAAAAAAAAAAAAAAAAAAAAAAAAAAAAAAAAAAAAAAAAAAAAAAAAAAAAAAAAAAAAAAAAAAAAAAAAAAAAAAAAAAAAAAAAAAAAAAA
        AAAEBAgEBAgEBAgEBAgEBAgECAgICAgICAgICAgICAgICAgICAgICAgICAgICAgICAgICAgICAgICAgICAgICAgIAQABAAEBAAEBAAEBAAEBAAEBAQEBAQEBAQEBAQEB
        AQEBAQEBAQEBAQEBAQEBAQEBAQEBAQEBAQEBAQEBAQEBAQQECAQECAQECAQECAQECAQEBAQEBAQEBAQEBAQEBAQEBAQEBAQEBAQEBAQEBAQEBAQEBAQEBAQEBAQEBAQE
        BARgYGBgYGBgYGBgYGBgYGBgYGBgYGBgYGBgYGBgYGBgYGBgYGBgYGBgYGBgYGBgYGBgYGBgYGBgYGBgYGBgYGBgAAAAAAAAAAAAAAAAAAAAAAAAAAAAAAAAAAAAAAAA
        AAAAAAAAAAAAAAAAAAAAAAAAAAAAAAAAAAAAAAAAAAAAAAAAAAAAAAAAAAAAAAAAAAAAAAAAAAAAAAAAAAAAAAAAAAAAAAAAAAAAAAAAAAAAAAAAAAAAAAAAAAAAAAAA
        AABBcnAgMmsgQ29tbXVuaWNhdGlvbiB2MQCweMQlAQAAAAQqvl//fwAA9LBiIAEAAAAOEDwDAAQAfwB/AEAAAQABAAAAAAAAAAAAfwAAAAAAAAAAAAAAAAAAAAAAAAAA
        AAAAAAAAAAAAAAAAAAAAAAAAAAAAAAAAAAAAAAAAAAAAAAAAAAAAAAAAAAAAAAAAAAAAAAAAAAAAAAAAAAAAAAAAAAAAAAAAAAAAAAAAAAAAAAAAAAAAAAAAAAAAAAAA
        AAAAAAAAAAAAAAACBAgCBAgCBAgCBAgCBAgECAgICAgICAgICAgICAgICAgICAgICAgICAgICAgICAgICAgICAgICAgICAgICAgIAQEBAQEBAQEBAQEBAQEBAQEBAQEB
        AQEBAQEBAQEBAQEBAQEBAQEBAQEBAQEBAQEBAQEBAQEBAQEBAQEBAQEBAQQECAQECAQECAQECAQECAQEBAQEBAQEBAQEBAQEBAQEBAQEBAQEBAQEBAQEBAQEBAQEBAQE
        BAQEBAQEBAQEBARgYGBgYGBgYGBgYGBgYGBgYGBgYGBgYGBgYGBgYGBgYGBgYGBgYGBgYGBgYGBgYGBgYGBgYGBgYGBgYGBgYGBgAAAAAAAAAAAAAAAAAAAAAAAAAAAA
        AAAAAAAAAAAAAAAAAAAAAAAAAAAAAAAAAAAAAAAAAAAAAAAAAAAAAAAAAAAAAAAAAAAAAAAAAAAAAAAAAAAAAAAAAAAAAAAAAAAAAAAAAAAAAAAAAAAAAAAAAAAAAAAA
        AAAAAAAAAAAAAABBcnAgMmsgQ29tbXVuaWNhdGlvbiB2MgCweMQlAQAAAAQqvl//fwAA9LBiIAEAAAAOED0DAAAAfwB/AEAAAQABAAAAAAAAAAAAfwAAAAAAAAAAAAAA
        AAAAAAAAAAAAAAAAAAAAAAAAAAAAAAAAAAAAAAAAAAAAAAAAAAAAAAAAAAAAAAAAAAAAAAAAAAAAAAAAAAAAAAAAAAAAAAAAAAAAAAAAAAAAAAAAAAAAAAAAAAAAAAAA
        AAAAAAAAAAAAAAAAAAAAAAAAAAAIAgQIAgQIBAgCBAgEAggECAIIAggCBAgCBAgCCAIEAggICAgICAgICAgICAgICAgICAgICAgICAgICAgICAgIAQEBAQEBAQEBAQEB
        AQEBAQEBAQEBAQEBAQEBAQEBAQEBAQEBAQEBAQEBAQEBAQEBAQEBAQEBAQEBAQEBAQEBAQgEBBAEBBAECAQEEAQEEAQIBAQQBAQQBAQEEAQEEAQEBAQEBAQEBAQEBAQE
        BAQEBAQEBAQEBAQEBAQEBAQEBARgYGBgYGBgYGBgYGBgYGBgYGBgYGBgYGBgYGBgYGBgYGBgYGBgYGBgYGBgYGBgYGBgYGBgYGBgYGBgYGBgYGBgAAAAAAAAAAAAAAAA
        AAAAAAAAAAAAAAAAAAAAAAAAAAAAAAAAAAAAAAAAAAAAAAAAAAAAAAAAAAAAAAAAAAAAAAAAAAAAAAAAAAAAAAAAAAAAAAAAAAAAAAAAAAAAAAAAAAAAAAAAAAAAAAAA
        AAAAAAAAAAAAAAAAAAAAAAAAAABBcnAgMmsgU3VwZXJTYXcgMTEgKEJlbmFzc2kpAAAAAAQqvl//fwAA9LBiIAEAAAAOEDUDAAcAfwB/AEAAAQABAAAAAAAAAAAAfwAA
        AAAAAAAAAAAAAAAAAAAAAAAAAAAAAAAAAAAAAAAAAAAAAAAAAAAAAAAAAAAAAAAAAAAAAAAAAAAAAAAAAAAAAAAAAAAAAAAAAAAAAAAAAAAAAAAAAAAAAAAAAAAAAAAA
        AAAAAAAAAAAAAAAAAAAAAAAAAAAAAAAAAAAAAAAIAggCCAIECAIECAIIAgQCCAgICAgICAgICAgICAgICAgICAgICAgICAgICAgICAgICAgICAgICAgICAgICAgIAQEB
        AQEBAQEBAQEBAQEBAQEBAQEBAQEBAQEBAQEBAQEBAQEBAQEBAQEBAQEBAQEBAQEBAQEBAQEBAQEBAQEBARAECAQIBAQQBAQIBAgEBAQEBAQEBAQEBAQEBAQEBAQEBAQE
        BAQEBAQEBAQEBAQEBAQEBAQEBAQEBAQEBAQEBARgYGBgYGBgYGBgYGBgYGBgYGBgYGBgYGBgYGBgYGBgYGBgYGBgYGBgYGBgYGBgYGBgYGBgYGBgYGBgYGBgYGBgAAAA
        AAAAAAAAAAAAAAAAAAAAAAAAAAAAAAAAAAAAAAAAAAAAAAAAAAAAAAAAAAAAAAAAAAAAAAAAAAAAAAAAAAAAAAAAAAAAAAAAAAAAAAAAAAAAAAAAAAAAAAAAAAAAAAAA
        AAAAAAAAAAAAAAAAAAAAAAAAAAAAAAAAAAAAAABBcnAgMmsgU3VwZXJTYXcgMTIAX/9/AACweMQlAQAAAAQqvl//fwAA9LBiIAEAAAAOEGQDAAQAfwB/AE0AAQABCQAA
        AAAAAAAAfwAAAAAAAAAAAAAAAAAAAAAAAAAAAAAAAAAAAAAAAAAAAAAAAAAAAAAAAAAAAAAAAAAAAAAAAAAAAAAAAAAAAAAAAAAAAAAAAAAAAAAAAAAAAAAAAAAAAAAA
        AAAAAAAAAAAAAAAAAAAAAAAAAAAAAAAAAAAAAAAAAAAAAAAAAAAECAQECAQEBAQIBAQIBAgECAgICAgICAgICAgICAgICAgICAgICAgICAgICAgICAgICAgICAgICAgI
        CAgICAgIAQEBAQEAAQEAAQEAAQEBAQEBAQEBAQEBAQEBAQEBAQEBAQEBAQEBAQEBAQEBAQEBAQEBAQEBAQEBAQEBAQEBAQQIBCAIBBAEBAgEBAgEEAQEBAQEBAQEBAQE
        BAQEBAQEBAQEBAQEBAQEBAQEBAQEBAQEBAQEBAQEBAQEBAQEBARwUEBgUFB/YEBQYGBwYFBwYGBgYGBgYGBgYGBgYGBgYGBgYGBgYGBgYGBgYGBgYGBgYGBgYGBgYGBg
        YGBgYGBgAAAAAAAAAAAAAAAAAAAAAAAAAAAAAAAAAAAAAAAAAAAAAAAAAAAAAAAAAAAAAAAAAAAAAAAAAAAAAAAAAAAAAAAAAAAAAAAAAAAAAAAAAAAAAAAAAAAAAAAA
        AAAAAAAAAAAAAAAAAAAAAAAAAAAAAAAAAAAAAAAAAAAAAAAAAABBcnAgMmsgU3VwZXJTYXcgMTMgKHBocmVhcXVlKQAAAAQqvl//fwAA9LBiIAEAAAAOCB8FAAEAfwB/
        AEAAAQABAAAAAAAAAAAAfwAAAAAAAAAAAAAAAAAAAAAAAAAAAAAAAAAAAAAAAAAAAAAAAAAAAAAAAAAAAAAAAAAAAAAAAAAAAAAAAAAAAAAAAAAAAAAAAAAAAAAAAAAA
        AAAAAAAAAAAAAAAAAAAAAAAAAAAAAAAAAAAAAAAAAAAAAAAAAAAAAAAAAAAAAAAICAgICAgICAgICAgICAgICAgICAgICAgICAgICAgICAgICAgICAgICAgICAgICAgI
        CAgICAgICAgICAgICAgIAQEBAQEBAQEBAQEBAQEBAQEBAQEBAQEBAQEBAQEBAQEBAQEBAQEBAQEBAQEBAQEBAQEBAQEBAQEBAQEBAQEBARAECAQQBAgEBAQEBAQEBAQE
        BAQEBAQEBAQEBAQEBAQEBAQEBAQEBAQEBAQEBAQEBAQEBAQEBAQEBAQEBAQEBARgYGBQYGBgUGBgYGBgYGBgYGBgYGBgYGBgYGBgYGBgYGBgYGBgYGBgYGBgYGBgYGBg
        YGBgYGBgYGBgYGBgYGBgAAAAAAAAAAAAAAAAAAAAAAAAAAAAAAAAAAAAAAAAAAAAAAAAAAAAAAAAAAAAAAAAAAAAAAAAAAAAAAAAAAAAAAAAAAAAAAAAAAAAAAAAAAAA
        AAAAAAAAAAAAAAAAAAAAAAAAAAAAAAAAAAAAAAAAAAAAAAAAAAAAAAAAAAAAAABBcnAgM2sgQmVsbHMgMDEAkCm+X/9/AACweMQlAQAAAAQqvl//fwAA9LBiIAEAAAAO
        CB8FAAAAfwB/AEAAAQABAAAAAAAAAAAAfwAAAAAAAAAAAAAAAAAAAAAAAAAAAAAAAAAAAAAAAAAAAAAAAAAAAAAAAAAAAAAAAAAAAAAAAAAAAAAAAAAAAAAAAAAAAAAA
        AAAAAAAAAAAAAAAAAAAAAAAAAAAAAAAAAAAAAAAAAAAAAAAAAAAAAAAAAAAAAAAAAAAAAAAAAAAICAgICAgICAgICAgICAgICAgICAgICAgICAgICAgICAgICAgICAgI
        CAgICAgICAgICAgICAgICAgICAgICAgIAQEBAQEBAQEBAQEBAQEBAQEBAQEBAQEBAQEBAQEBAQEBAQEBAQEBAQEBAQEBAQEBAQEBAQEBAQEBAQEBAQEBARAIBBAIBBAI
        BAQEBAQEBAQEBAQEBAQEBAQEBAQEBAQEBAQEBAQEBAQEBAQEBAQEBAQEBAQEBAQEBAQEBAQEBARgYGBgYGBgYGBgYGBgYGBgYGBgYGBgYGBgYGBgYGBgYGBgYGBgYGBg
        YGBgYGBgYGBgYGBgYGBgYGBgYGBgYGBgAAAAAAAAAAAAAAAAAAAAAAAAAAAAAAAAAAAAAAAAAAAAAAAAAAAAAAAAAAAAAAAAAAAAAAAAAAAAAAAAAAAAAAAAAAAAAAAA
        AAAAAAAAAAAAAAAAAAAAAAAAAAAAAAAAAAAAAAAAAAAAAAAAAAAAAAAAAAAAAAAAAAAAAAAAAABBcnAgM2sgQmVsbHMgMDIAkCm+X/9/AACweMQlAQAAAAQqvl//fwAA
        9LBiIAEAAAAOCE0FAAgAfwB/AE0AAQABAAAAAAAAAAAAfwAAAAAAAAAAAAAAAAAAAAAAAAAAAAAAAAAAAAAAAAAAAAAAAAAAAAAAAAAAAAAAAAAAAAAAAAAAAAAAAAAA
        AAAAAAAAAAAAAAAAAAAAAAAAAAAAAAAAAAAAAAAAAAAAAAAAAAAAAAAAAAAAAAAAAAAAAAAAAAAAAAAAAAAAAAAECAgIBAgIEAgICAgICAgICAgICAgICAgICAgICAgI
        CAgICAgICAgICAgICAgICAgICAgICAgICAgICAgICAgIAQEBAQEBAQEBAQEBAQEBAQEBAQEBAQEBAQEBAQEBAQEBAQEBAQEBAQEBAQEBAQEBAQEBAQEBAQEBAQEBAQEB
        AQQECBAEBAgEBAQEBAQEBAQEBAQEBAQEBAQEBAQEBAQEBAQEBAQEBAQEBAQEBAQEBAQEBAQEBAQEBAQEBAQEBARgYGBgYGBgYGBgYGBgYGBgYGBgYGBgYGBgYGBgYGBg
        YGBgYGBgYGBgYGBgYGBgYGBgYGBgYGBgYGBgYGBgYGBgAAAAAAAAAAAAAAAAAAAAAAAAAAAAAAAAAAAAAAAAAAAAAAAAAAAAAAAAAAAAAAAAAAAAAAAAAAAAAAAAAAAA
        AAAAAAAAAAAAAAAAAAAAAAAAAAAAAAAAAAAAAAAAAAAAAAAAAAAAAAAAAAAAAAAAAAAAAAAAAAAAAAAAAAAAAABBcnAgMmsgU29mdEJlbGxzIDAxAP9/AACweMQlAQAA
        AAQqvl//fwAA9LBiIAEAAAAOCEIFAAgAfwB/AEAAAQABAAAAAAAAAAAAfwAAAAAAAAAAAAAAAAAAAAAAAAAAAAAAAAAAAAAAAAAAAAAAAAAAAAAAAAAAAAAAAAAAAAAA
        AAAAAAAAAAAAAAAAAAAAAAAAAAAAAAAAAAAAAAAAAAAAAAAAAAAAAAAAAAAAAAAAAAAAAAAAAAAAAAAAAAAAAAAAAAAAAAAAAAAEEAgIBBAICAgICAgICAgICAgICAgI
        CAgICAgICAgICAgICAgICAgICAgICAgICAgICAgICAgICAgICAgICAgIAQEBAQEBAQEBAQEBAQEBAQEBAQEBAQEBAQEBAQEBAQEBAQEBAQEBAQEBAQEBAQEBAQEBAQEB
        AQEBAQEBAQEBAQQEBAgEBAQQBAQEBAQEBAQEBAQEBAQEBAQEBAQEBAQEBAQEBAQEBAQEBAQEBAQEBAQEBAQEBAQEBAQEBAQEBARgYGBgYGBgYGBgYGBgYGBgYGBgYGBg
        YGBgYGBgYGBgYGBgYGBgYGBgYGBgYGBgYGBgYGBgYGBgYGBgYGBgYGBgAAAAAAAAAAAAAAAAAAAAAAAAAAAAAAAAAAAAAAAAAAAAAAAAAAAAAAAAAAAAAAAAAAAAAAAA
        AAAAAAAAAAAAAAAAAAAAAAAAAAAAAAAAAAAAAAAAAAAAAAAAAAAAAAAAAAAAAAAAAAAAAAAAAAAAAAAAAAAAAAAAAAAAAAAAAABBcnAgMmsgU29mdEJlbGxzIDAyAP9/
        AACweMQlAQAAAAQqvl//fwAA9LBiIAEAAAAOEEgDAAAAfwB/AEAAAQABAAAAAAAAAAAAfwAAAAAAAAAAAAAAAAAAAAAAAAAAAAAAAAAAAAAAAAAAAAAAAAAAAAAAAAAA
        AAAAAAAAAAAAAAAAAAAAAAAAAAAAAAAAAAAAAAAAAAAAAQAAAAAAAAAAAAAAAAAAAAAAAAAAAAAAAAAAAAAAAAAAAAAAAAAAAAAAAAAAAAAAAAAECAQECAQICAgECAgI
        BAgICAgICAgICAgICAgICAgICAgICAgICAgICAgICAgICAgICAgICAgICAgICAgICAgIAQABAAABAwABAQABAAEDAAEBAQEBAQEBAQEBAQEBAQEBAQEBAQEBAQEBAQEB
        AQEBAQEBAQEBAQEBAQEBAQEBAQQEBAQEBAQEBAQEBAQEBAQEBAQEBAQEBAQEBAQEBAQEBAQEBAQEBAQEBAQEBAQEBAQEBAQEBAQEBAQEBAQEBARgYGBgYGBgYGBgYGBg
        YGBgYGBgYGBgYGBgYGBgYGBgYGBgYGBgYGBgYGBgYGBgYGBgYGBgYGBgYGBgYGBgYGBgAAAAAAAAAAAAAAAAAAAAAAAAAAAAAAAAAAAAAAAAAAAAAAAAAAAAAAAAAAAA
        AAAAAAAAAAAAAAAAAAAAAAAAAAAAAAAAAAAAAAAAAAAAAAAAAAAAAAAAAAAAAAAAAAAAAAAAAAAAAAAAAAAAAAAAAAAAAAAAAAAAAAAAAAAAAABTZXEgMmsgQWNpZE1v
        bm8gMDEAX/9/AACweMQlAQAAAAQqvl//fwAA9LBiIAEAAAAOEEIDAAUAfwB/AEAAAQABAAAAAAAAAAAAfwAAAAAAAAAAAAAAAAAAAAAAAAAAAAAAAAAAAAAAAAAAAAAA
        AAAAAAAAAAAAAAAAAAAAAAAAAAAAAAAAAAAAAAAAAAAAAAAHAAAAAAAAAAAAAAAAAAAAAAAAAAAAAAAAAAAAAAAAAAAAAAAAAAAAAAAAAAAAAAAAAAAAAAAAAAAECAgE
        CAgIBAgEBAgECAgECAgICAgICAgICAgICAgICAgICAgICAgICAgICAgICAgICAgICAgICAgICAgICAgIAQAAAQAAAQMAAQMAAQIBAwEBAQEBAQEBAQEBAQEBAQEBAQEB
        AQEBAQEBAQEBAQEBAQEBAQEBAQEBAQEBAQEBAQQEBAQEBAQEBAQIBAQEBAgEBAQEBAQEBAQEBAQEBAQEBAQEBAQEBAQEBAQEBAQEBAQEBAQEBAQEBAQEBAQEBARgYGBg
        YGBgYGBgYGBgYGBgYGBgYGBgYGBgYGBgYGBgYGBgYGBgYGBgYGBgYGBgYGBgYGBgYGBgYGBgYGBgYGBgAAAAAAAAAAAAAAAAAAAAAAAAAAAAAAAAAAAAAAAAAAAAAAAA
        AAAAAAAAAAAAAAAAAAAAAAAAAAAAAAAAAAAAAAAAAAAAAAAAAAAAAAAAAAAAAAAAAAAAAAAAAAAAAAAAAAAAAAAAAAAAAAAAAAAAAAAAAAAAAAAAAAAAAAAAAABTZXEg
        MmsgQWNpZE1vbm8gMDIAX/9/AACweMQlAQAAAAQqvl//fwAA9LBiIAEAAAAOEDoDAAAAfwB/AEAAAQABAAAAAAAAAAAAfwAAAAAAAAAAAAAAAAAAAAAAAAAAAAAAAAAA
        AAAAAAAAAAAAAAAAAAAAAAAAAAAAAAAAAAAAAAAAAAAAAAAAAAAAAAAAAAAAAAAAAAAAAAAAAAAAAAAAAAAAAAAAAAAAAAAAAAAAAAAAAAAAAAAAAAAAAAAAAAAAAAAA
        AAAAAAAIBAgQBAgICAQICAgECAQICAgICAgICAgICAgICAgICAgICAgICAgICAgICAgICAgICAgICAgICAgICAgICAgIAQEBAwEBAwMBAwEDAQIBAQEBAQEBAQEBAQEB
        AQEBAQEBAQEBAQEBAQEBAQEBAQEBAQEBAQEBAQEBAQEBAQEBAQQEBAQEBAgEBAQECAQEBAgEBAQEBAQEBAQEBAQEBAQEBAQEBAQEBAQEBAQEBAQEBAQEBAQEBAQEBAQE
        BAQEBARgYGBgYGBgYGBgYGBgYGBgYGBgYGBgYGBgYGBgYGBgYGBgYGBgYGBgYGBgYGBgYGBgYGBgYGBgYGBgYGBgYGBgAAAAAAAAAAAAAAAAAAAAAAAAAAAAAAAAAAAA
        AAAAAAAAAAAAAAAAAAAAAAAAAAAAAAAAAAAAAAAAAAAAAAAAAAAAAAAAAAAAAAAAAAAAAAAAAAAAAAAAAAAAAAAAAAAAAAAAAAAAAAAAAAAAAAAAAAAAAAAAAAAAAAAA
        AAAAAABTZXEgMmsgQWNpZE1vbm8gMDMAX/9/AACweMQlAQAAAAQqvl//fwAA9LBiIAEAAAAOEDoDAAAAfwB/AEAAAQABAAAAAAAAAAAAfwAAAAAAAAAAAAAAAAAAAAAA
        AAAAAAAAAAAAAAAAAAAAAAAAAAAAAAAAAAAAAAAAAAAAAAAAAAAAAAAAAAAAAAAAAAAAAAAAAAAAAAAAAQAAAAAAAAAAAAAAAAAAAAAAAAAAAAAAAAAAAAAAAAAAAAAA
        AAAAAAAAAAAAAAAAAAAIEAgECAgECAgIBAgECAgECAgICAgICAgICAgICAgICAgICAgICAgICAgICAgICAgICAgICAgICAgICAgICAgIAQEDAQEDAQMBAwEBAQEBAQEB
        AQEBAQEBAQEBAQEBAQEBAQEBAQEBAQEBAQEBAQEBAQEBAQEBAQEBAQEBAQEBAQQEBAQIBAQEBAgEBAQIBAQEBAQEBAQEBAQEBAQEBAQEBAQEBAQEBAQEBAQEBAQEBAQE
        BAQEBAQEBAQEBAQEBARgYGBgYGBgYGBgYGBgYGBgYGBgYGBgYGBgYGBgYGBgYGBgYGBgYGBgYGBgYGBgYGBgYGBgYGBgYGBgYGBgYGBgAAAAAAAAAAAAAAAAAAAAAAAA
        AAAAAAAAAAAAAAAAAAAAAAAAAAAAAAAAAAAAAAAAAAAAAAAAAAAAAAAAAAAAAAAAAAAAAAAAAAAAAAAAAAAAAAAAAAAAAAAAAAAAAAAAAAAAAAAAAAAAAAAAAAAAAAAA
        AAAAAAAAAAAAAAAAAABTZXEgMmsgQWNpZE1vbm8gMDQAX/9/AACweMQlAQAAAAQqvl//fwAA9LBiIAEAAAAOBEgDAAAAfwB/AEAAAQABAAAAAAAAAAAAfwAAAAAAAAAA
        AAAAAAAAAAAAAAAAAAAAAAAAAAAAAAAAAAAAAAAAAAAAAAAAAAAAAAAAAAAAAAAAAAAAAAAAAAAAAAAAAAAAAAAAAAAAAAAAAAAAAAAAAAAAAAAAAAAAAAAAAAAAAAAA
        AAAAAAAAAAAAAAAAAAAAAAAAAAAAAAAEBAgICAgICAgICAgICAgICAgICAgICAgICAgICAgICAgICAgICAgICAgICAgICAgICAgICAgICAgICAgICAgIAQIBAQEBAQEB
        AQEBAQEBAQEBAQEBAQEBAQEBAQEBAQEBAQEBAQEBAQEBAQEBAQEBAQEBAQEBAQEBAQEBAQEBAQQEBAQEBAQEBAQEBAQEBAQEBAQEBAQEBAQEBAQEBAQEBAQEBAQEBAQE
        BAQEBAQEBAQEBAQEBAQEBAQEBAQEBARgYGBgYGBgYGBgYGBgYGBgYGBgYGBgYGBgYGBgYGBgYGBgYGBgYGBgYGBgYGBgYGBgYGBgYGBgYGBgYGBgYGBgAAAAAAAAAAAA
        AAAAAAAAAAAAAAAAAAAAAAAAAAAAAAAAAAAAAAAAAAAAAAAAAAAAAAAAAAAAAAAAAAAAAAAAAAAAAAAAAAAAAAAAAAAAAAAAAAAAAAAAAAAAAAAAAAAAAAAAAAAAAAAA
        AAAAAAAAAAAAAAAAAAAAAAAAAAAAAABCYXNzIDFrIFNpbXBsZSAwMQC+X/9/AACweMQlAQAAAAQqvl//fwAA9LBiIAEAAAAOBEgDAAAAfwB/AEAAAQABAAAAAAAAAAAA
        fwAAAAAAAAAAAAAAAAAAAAAAAAAAAAAAAAAAAAAAAAAAAAAAAAAAAAAAAAAAAAAAAAAAAAAAAAAAAAAAAAAAAAAAAAAAAAAAAAAAAAAAAAAAAAAAAAAAAAAAAAAAAAAA
        AAAAAAAAAAAAAAAAAAAAAAAAAAAAAAAAAAAAAAAAAAAEBAgICAgICAgICAgICAgICAgICAgICAgICAgICAgICAgICAgICAgICAgICAgICAgICAgICAgICAgICAgICAgI
        AQEBAQEBAQEBAQEBAQEBAQEBAQEBAQEBAQEBAQEBAQEBAQEBAQEBAQEBAQEBAQEBAQEBAQEBAQEBAQEBAQEBAQQEBAQEBAQEBAQEBAQEBAQEBAQEBAQEBAQEBAQEBAQE
        BAQEBAQEBAQEBAQEBAQEBAQEBAQEBAQEBAQEBAQEBARgYGBgYGBgYGBgYGBgYGBgYGBgYGBgYGBgYGBgYGBgYGBgYGBgYGBgYGBgYGBgYGBgYGBgYGBgYGBgYGBgYGBg
        AAAAAAAAAAAAAAAAAAAAAAAAAAAAAAAAAAAAAAAAAAAAAAAAAAAAAAAAAAAAAAAAAAAAAAAAAAAAAAAAAAAAAAAAAAAAAAAAAAAAAAAAAAAAAAAAAAAAAAAAAAAAAAAA
        AAAAAAAAAAAAAAAAAAAAAAAAAAAAAAAAAAAAAAAAAABCYXNzIDFrIFNpbXBsZSAwMgC+X/9/AACweMQlAQAAAAQqvl//fwAA9LBiIAEAAAAOBEgDAAAAfwB/AEAAAQAB
        AAAAAAAAAAAAfwAAAAAAAAAAAAAAAAAAAAAAAAAAAAAAAAAAAAAAAAAAAAAAAAAAAAAAAAAAAAAAAAAAAAAAAAAAAAAAAAAAAAAAAAAAAAAAAAAAAAAAAAAAAAAAAAAA
        AAAAAAAAAAAAAAAAAAAAAAAAAAAAAAAAAAAAAAAAAAAAAAAAAAAAAAAEBAgICAgICAgICAgICAgICAgICAgICAgICAgICAgICAgICAgICAgICAgICAgICAgICAgICAgI
        CAgICAgICAgIAQIBAgEBAQEBAQEBAQEBAQEBAQEBAQEBAQEBAQEBAQEBAQEBAQEBAQEBAQEBAQEBAQEBAQEBAQEBAQEBAQEBAQQEBAQEBAQEBAQEBAQEBAQEBAQEBAQE
        BAQEBAQEBAQEBAQEBAQEBAQEBAQEBAQEBAQEBAQEBAQEBAQEBAQEBARgYGBgYGBgYGBgYGBgYGBgYGBgYGBgYGBgYGBgYGBgYGBgYGBgYGBgYGBgYGBgYGBgYGBgYGBg
        YGBgYGBgYGBgAAAAAAAAAAAAAAAAAAAAAAAAAAAAAAAAAAAAAAAAAAAAAAAAAAAAAAAAAAAAAAAAAAAAAAAAAAAAAAAAAAAAAAAAAAAAAAAAAAAAAAAAAAAAAAAAAAAA
        AAAAAAAAAAAAAAAAAAAAAAAAAAAAAAAAAAAAAAAAAAAAAAAAAAAAAABCYXNzIDFrIFNpbXBsZSAwMwC+X/9/AACweMQlAQAAAAQqvl//fwAA9LBiIAEAAAAOBEgDAAAA
        fwB/AEAAAQABAAAAAAAAAAAAfwAAAAAAAAAAAAAAAAAAAAAAAAAAAAAAAAAAAAAAAAAAAAAAAAAAAAAAAAAAAAAAAAAAAAAAAAAAAAAAAAAAAAAAAAAAAAAAAAAAAAAA
        AAAAAAAAAAAAAAAAAAAAAAAAAAAAAAAAAAAAAAAAAAAAAAAAAAAAAAAAAAAAAAAAAAAICAgICAgICAgICAgICAgICAgICAgICAgICAgICAgICAgICAgICAgICAgICAgI
        CAgICAgICAgICAgICAgICAgIAAABAAEBAQEBAQEBAQEBAQEBAQEBAQEBAQEBAQEBAQEBAQEBAQEBAQEBAQEBAQEBAQEBAQEBAQEBAQEBAQEBAQQEBAQEBAQEBAQEBAQE
        BAQEBAQEBAQEBAQEBAQEBAQEBAQEBAQEBAQEBAQEBAQEBAQEBAQEBAQEBAQEBAQEBARgYGBgYGBgYGBgYGBgYGBgYGBgYGBgYGBgYGBgYGBgYGBgYGBgYGBgYGBgYGBg
        YGBgYGBgYGBgYGBgYGBgYGBgAAAAAAAAAAAAAAAAAAAAAAAAAAAAAAAAAAAAAAAAAAAAAAAAAAAAAAAAAAAAAAAAAAAAAAAAAAAAAAAAAAAAAAAAAAAAAAAAAAAAAAAA
        AAAAAAAAAAAAAAAAAAAAAAAAAAAAAAAAAAAAAAAAAAAAAAAAAAAAAAAAAAAAAAAAAABCYXNzIDFrIFNpbXBsZSAwNAC+X/9/AACweMQlAQAAAAQqvl//fwAA9LBiIAEA
        AAAOCGQDAAAAfwB/AEAAAQABAAAAAAAAAAAAfwAAAAAAAAAAAAAAAAAAAAAAAAAAAAAAAAAAAAAAAAAAAAAAAAAAAAAAAAAAAAAAAAAAAAAAAAAAAAAAAAAAAAAAAAAA
        AAAAAAAAAAAAAAAAAAAAAAAAAAAAAAAAAAAAAAAAAAAAAAAAAAAAAAAAAAAAAAAAAAAAAAAAAAAAAAAICAgICAgICAgICAgICAgICAgICAgICAgICAgICAgICAgICAgI
        CAgICAgICAgICAgICAgICAgICAgICAgICAgIAAAAAQAAAQIAAAABAAABAgEBAQEBAQEBAQEBAQEBAQEBAQEBAQEBAQEBAQEBAQEBAQEBAQEBAQEBAQEBAQEBAQQEBAQE
        BAQEBAQEBAQEBAQEBAQEBAQEBAQEBAQEBAQEBAQEBAQEBAQEBAQEBAQEBAQEBAQEBAQEBAQEBAQEBARgYGBgYGBgYGBgYGBgYGBgYGBgYGBgYGBgYGBgYGBgYGBgYGBg
        YGBgYGBgYGBgYGBgYGBgYGBgYGBgYGBgYGBgAAAAAAAAAAAAAAAAAAAAAAAAAAAAAAAAAAAAAAAAAAAAAAAAAAAAAAAAAAAAAAAAAAAAAAAAAAAAAAAAAAAAAAAAAAAA
        AAAAAAAAAAAAAAAAAAAAAAAAAAAAAAAAAAAAAAAAAAAAAAAAAAAAAAAAAAAAAAAAAAAAAAAAAAAAAABCYXNzIDFrIERyaWZ0IG9mZmJlYXQAAACweMQlAQAAAAQqvl//
        fwAA9LBiIAEAAAAOCF8DAAAAfwB/AEAAAQABAAAAAAAAAAAAfwAAAAAAAAAAAAAAAAAAAAAAAAAAAAAAAAAAAAAAAAAAAAAAAAAAAAAAAAAAAAAAAAAAAAAAAAAAAAAA
        AAAAAAAAAAAAAAAAAAAAAAAAAAAAAAAAAAAAAAAAAAAAAAAAAAAAAAAAAAAAAAAAAAAAAAAAAAAAAAAAAAAAAAAAAAAICAgICAgICAgICAgICAgICAgICAgICAgICAgI
        CAgICAgICAgICAgICAgICAgICAgICAgICAgICAgICAgICAgIAAEAAQAAAQIBAQEBAQEBAQEBAQEBAQEBAQEBAQEBAQEBAQEBAQEBAQEBAQEBAQEBAQEBAQEBAQEBAQEB
        AQEBAQQEBAQEBAQEBAQEBAQEBAQEBAQEBAQEBAQEBAQEBAQEBAQEBAQEBAQEBAQEBAQEBAQEBAQEBAQEBAQEBAQEBARgYGBgYGBgYGBgYGBgYGBgQEBAQEBAQEBAQEBA
        QEBAQEBAQEBAQEBAQEBAQEBAQEBAQEBAQEBAQEBAQEBAQEBAAAAAAAAAAAAAAAAAAAAAAAAAAAAAAAAAAAAAAAAAAAAAAAAAAAAAAAAAAAAAAAAAAAAAAAAAAAAAAAAA
        AAAAAAAAAAAAAAAAAAAAAAAAAAAAAAAAAAAAAAAAAAAAAAAAAAAAAAAAAAAAAAAAAAAAAAAAAAAAAAAAAAAAAAAAAABCYXNzIDFrIFRyaXBsZSBkcmlmdCBvZmZiZWF0
        AAAAAAQqvl//fwAA9LBiIAEAAAAOEEgDAAAAfwB/AEAAAQABAAAAAAAAAAAAfwAAAAAAAAAAAAAAAAAAAAAAAAAAAAAAAAAAAAAAAAAAAAAAAAAAAAAAAAAAAAAAAAAA
        AAAAAAAAAAAAAAAAAAAAAAAAAAAAAAAAAAAAAAAAAAAAAAAAAAAAAAAAAAAAAAAAAAAAAAAAAAAAAAAAAAAAAAAAAAAAAAAAAAAAAAAICAgICAgICAgICAgICAgICAgI
        CAgICAgICAgICAgICAgICAgICAgICAgICAgICAgICAgICAgICAgICAgICAgIAQEAAQEAAQEAAQEAAQABAAEBAQEBAQEBAQEBAQEBAQEBAQEBAQEBAQEBAQEBAQEBAQEB
        AQEBAQEBAQEBAQEBAQQEBAQEBAQEBAQEBAQEBAQEBAQEBAQEBAQEBAQEBAQEBAQEBAQEBAQEBAQEBAQEBAQEBAQEBAQEBAQEBAQEBARgYGBgYGBgYGBgYGBgYGBgYGBg
        YGBgYGBgYGBgYGBgYGBgYGBgYGBgYGBgYGBgYGBgYGBgYGBgYGBgYGBgYGBgAAAAAAAAAAAAAAAAAAAAAAAAAAAAAAAAAAAAAAAAAAAAAAAAAAAAAAAAAAAAAAAAAAAA
        AAAAAAAAAAAAAAAAAAAAAAAAAAAAAAAAAAAAAAAAAAAAAAAAAAAAAAAAAAAAAAAAAAAAAAAAAAAAAAAAAAAAAAAAAAAAAAAAAAAAAABCYXNzIDFrIFRlY2hubyAwMQC+
        X/9/AACweMQlAQAAAAQqvl//fwAA9LBiIAEAAAAOIEgDAAAAfwB/AEAAAQABAAAAAAAAAAAAfwAAAAAAAAAAAAAAAAAAAAAAAAAAAAAAAAAAAAAAAAAAAAAAAAAAAAAA
        AAAAAAAAAAAAAAAAAAAAAAAAAAAAAAAAAAAAAAAAAAAAAAAAAAAAAAAAAAAAAAAAAAAAAAAAAAAAAAAAAAAAAAAAAAAAAAAAAAAAAAAAAAAAAAAAAAAICAgICAgICAgI
        CAgICAgICAgICAgICAgICAgICAgICAgICAgICAgICAgICAgICAgICAgICAgICAgICAgICAgIAAABAAAAAQAAAAEAAAABAAAAAQAAAAEAAAABAAABAAEBAQEBAQEBAQEB
        AQEBAQEBAQEBAQEBAQEBAQEBAQEBAQQEBAQEBAQEBAQEBAQEBAQEBAQEBAQEBAQEBAQEBAQEBAQEBAQEBAQEBAQEBAQEBAQEBAQEBAQEBAQEBAQEBARgYGBgYGBgYGBg
        YGBgYGBgYGBgYGBgYGBgYGBgYGBgYGBgYGBgYGBgYGBgYGBgYGBgYGBgYGBgYGBgYGBgYGBgAAAAAAAAAAAAAAAAAAAAAAAAAAAAAAAAAAAAAAAAAAAAAAAAAAAAAAAA
        AAAAAAAAAAAAAAAAAAAAAAAAAAAAAAAAAAAAAAAAAAAAAAAAAAAAAAAAAAAAAAAAAAAAAAAAAAAAAAAAAAAAAAAAAAAAAAAAAAAAAAAAAAAAAAAAAABCYXNzIDFrIFRl
        Y2hubyAwMiAoMzIgc3RlcHMpAAAAAAQqvl//fwAA9LBiIAEAAAAOEE8DAAQAfwB/AEAAAQABAAAAAAAAAAAAfwAAAAAAAAAAAAAAAAAAAAAAAAAAAAAAAAAAAAAAAAAA
        AAAAAAAAAAAAAAAAAAAAAAAAAAAAAAAAAAAAAAAAAAAAAAAAAAAAAAAAAAAAAAAAAAAAAAAAAAAAAAAAAAAAAAAAAAAAAAAAAAAAAAAAAAAAAAAAAAAAAAAAAAAAAAAI
        CAgICAgICAgICAgICAgICAgICAgICAgICAgICAgICAgICAgICAgICAgICAgICAgICAgICAgICAgICAgICAgIAQEBAQEAAQABAAEAAQABAAEBAQEBAQEBAQEBAQEBAQEB
        AQEBAQEBAQEBAQEBAQEBAQEBAQEBAQEBAQEBAQEBAQQEBAQEBAQEBAQEBAQECAQEBAQEBAQEBAQEBAQEBAQEBAQEBAQEBAQEBAQEBAQEBAQEBAQEBAQEBAQEBAQEBARg
        YGBgYGBgYGBgYGBgYGBgYGBgYGBgYGBgYGBgYGBgYGBgYGBgYGBgYGBgYGBgYGBgYGBgYGBgYGBgYGBgYGBgAAAAAAAAAAAAAAAAAAAAAAAAAAAAAAAAAAAAAAAAAAAA
        AAAAAAAAAAAAAAAAAAAAAAAAAAAAAAAAAAAAAAAAAAAAAAAAAAAAAAAAAAAAAAAAAAAAAAAAAAAAAAAAAAAAAAAAAAAAAAAAAAAAAAAAAAAAAAAAAAAAAAAAAAAAAABC
        YXNzIDJrIFRlY2hubyAwMwC+X/9/AACweMQlAQAAAAQqvl//fwAA9LBiIAEAAAAOEEQDAAQAfwB/AEAAAQABAAAAAAAAAAAAfwAAAAAAAAAAAAAAAAAAAAAAAAAAAAAA
        AAAAAAAAAAAAAAAAAAAAAAAAAAAAAAAAAAAAAAAAAAAAAAAAAAAAAAAAAAAAAAAAAAAAAAAAAAAAAAAAAAAAAAAAAAAAAAAAAAAAAAAAAAAAAAAAAAAAAAAAAAAAAAAA
        AAAAAAAAAAAICAgICAgICAgICBAICAgICAgICAgICAgICAgICAgICAgICAgICAgICAgICAgICAgICAgICAgICAgICAgICAgIAQABAAAAAQAAAQIBAQIAAAEBAQEBAQEB
        AQEBAQEBAQEBAQEBAQEBAQEBAQEBAQEBAQEBAQEBAQEBAQEBAQEBAQQEBAQEBAQEBAQEBAQEBAQEBAQEBAQEBAQEBAQEBAQEBAQEBAQEBAQEBAQEBAQEBAQEBAQEBAQE
        BAQEBAQEBARgYGBgYGBgYGBgYGBgYGBgYGBgYGBgYGBgYGBgYGBgYGBgYGBgYGBgYGBgYGBgYGBgYGBgYGBgYGBgYGBgYGBgAAAAAAAAAAAAAAAAAAAAAAAAAAAAAAAA
        AAAAAAAAAAAAAAAAAAAAAAAAAAAAAAAAAAAAAAAAAAAAAAAAAAAAAAAAAAAAAAAAAAAAAAAAAAAAAAAAAAAAAAAAAAAAAAAAAAAAAAAAAAAAAAAAAAAAAAAAAAAAAAAA
        AAAAAAAAAABCYXNzIDNrIENvbXBsZXggMS0xAP9/AACweMQlAQAAAAQqvl//fwAA9LBiIAEAAAAODEUEAAQAfwB/AEAAAQABAAAAAAAAAAAAfwAAAAAAAAAAAAAAAAAA
        AAAAAAAAAAAAAAAAAAAAAAAAAAAAAAAAAAAAAAAAAAAAAAAAAAAAAAAAAAAAAAAAAAAAAAAAAAAAAAAAAAAAAAAAAAAAAAAAAAAAAAAAAAAAAAAAAAAAAAAAAAAAAAAA
        AAAAAAAAAAAAAAAAAAAAAAAICAgICAgICAgICAgICAgICAgICAgICAgICAgICAgICAgICAgICAgICAgICAgICAgICAgICAgICAgICAgICAgIAQIBAgECAQIBAgECAQEB
        AQEBAQEBAQEBAQEBAQEBAQEBAQEBAQEBAQEBAQEBAQEBAQEBAQEBAQEBAQEBAQEBAQgICAgICBAQEBAQEAQEBAQEBAQEBAQEBAQEBAQEBAQEBAQEBAQEBAQEBAQEBAQE
        BAQEBAQEBAQEBAQEBAQEBARgYGBgYGBgYGBgYGBgYGBgYGBgYGBgYGBgYGBgYGBgYGBgYGBgYGBgYGBgYGBgYGBgYGBgYGBgYGBgYGBgYGBgAAAAAAAAAAAAAAAAAAAA
        AAAAAAAAAAAAAAAAAAAAAAAAAAAAAAAAAAAAAAAAAAAAAAAAAAAAAAAAAAAAAAAAAAAAAAAAAAAAAAAAAAAAAAAAAAAAAAAAAAAAAAAAAAAAAAAAAAAAAAAAAAAAAAAA
        AAAAAAAAAAAAAAAAAAAAAABCYXNzIDNrIENvbXBsZXggMS0yAP9/AACweMQlAQAAAAQqvl//fwAA9LBiIAEAAAAODE0EAAQAfwB/AEAAAQABAAAAAAAAAAAAfwAAAAAA
        AAAAAAAAAAAAAAAAAAAAAAAAAAAAAAAAAAAAAAAAAAAAAAAAAAAAAAAAAAAAAAAAAAAAAAAAAAAAAAAAAAAAAAAAAAAAAAAAAAAAAAAAAAAAAAAAAAAAAAAAAAAAAAAA
        AAAAAAAAAAAAAAAAAAAAAAAAAAAAAAAAAAAICAgICAgICAgICAgICAgICAgICAgICAgICAgICAgICAgICAgICAgICAgICAgICAgICAgICAgICAgICAgICAgIAQEBAQEB
        AQEBAQEBAQEBAQEBAQEBAQEBAQEBAQEBAQEBAQEBAQEBAQEBAQEBAQEBAQEBAQEBAQEBAQEBAQEBAQgICAgICBAQEBAQEAQEBAQEBAQEBAQEBAQEBAQEBAQEBAQEBAQE
        BAQEBAQEBAQEBAQEBAQEBAQEBAQEBAQEBARgYGBgYGBgYGBgYGBgYGBgYGBgYGBgYGBgYGBgYGBgYGBgYGBgYGBgYGBgYGBgYGBgYGBgYGBgYGBgYGBgYGBgAAAAAAAA
        AAAAAAAAAAAAAAAAAAAAAAAAAAAAAAAAAAAAAAAAAAAAAAAAAAAAAAAAAAAAAAAAAAAAAAAAAAAAAAAAAAAAAAAAAAAAAAAAAAAAAAAAAAAAAAAAAAAAAAAAAAAAAAAA
        AAAAAAAAAAAAAAAAAAAAAAAAAAAAAAAAAABCYXNzIDNrIENvbXBsZXggMS0zAP9/AACweMQlAQAAAAQqvl//fwAA9LBiIAEAAAAOCE0DAAAAfwB/AEAAAQABAAAAAAAA
        AAAAfwAAAAAAAAAAAAAAAAAAAAAAAAAAAAAAAAAAAAAAAAAAAAAAAAAAAAAAAAAAAAAAAAAAAAAAAAAAAAAAAAAAAAAAAAAAAAAAAAAAAAAAAAAAAAAAAAAAAAAAAAAA
        AAAAAAAAAAAAAAAAAAAAAAAAAAAAAAAAAAAAAAAAAAAAAAAICAgICAgICAgICAgICAgICAgICAgICAgICAgICAgICAgICAgICAgICAgICAgICAgICAgICAgICAgICAgI
        CAgIAAABAQAAAQABAQEBAQEBAQEBAQEBAQEBAQEBAQEBAQEBAQEBAQEBAQEBAQEBAQEBAQEBAQEBAQEBAQEBAQEBAQQEBAQEBAQEBAQEBAQEBAQEBAQEBAQEBAQEBAQE
        BAQEBAQEBAQEBAQEBAQEBAQEBAQEBAQEBAQEBAQEBAQEBARgYGBgYGBgYGBgYGBgYGBgYGBgYGBgYGBgYGBgYGBgYGBgYGBgYGBgYGBgYGBgYGBgYGBgYGBgYGBgYGBg
        YGBgAAAAAAAAAAAAAAAAAAAAAAAAAAAAAAAAAAAAAAAAAAAAAAAAAAAAAAAAAAAAAAAAAAAAAAAAAAAAAAAAAAAAAAAAAAAAAAAAAAAAAAAAAAAAAAAAAAAAAAAAAAAA
        AAAAAAAAAAAAAAAAAAAAAAAAAAAAAAAAAAAAAAAAAAAAAABCYXNzIDFrIFRyYW5jZSAwMQC+X/9/AACweMQlAQAAAAQqvl//fwAA9LBiIAEAAAAOCEMDAAAAfwB/AEAA
        AQABAAAAAAAAAAAAfwAAAAAAAAAAAAAAAAAAAAAAAAAAAAAAAAAAAAAAAAAAAAAAAAAAAAAAAAAAAAAAAAAAAAAAAAAAAAAAAAAAAAAAAAAAAAAAAAAAAAAAAAAAAAAA
        AAAAAAAAAAAAAAAAAAAAAAAAAAAAAAAAAAAAAAAAAAAAAAAAAAAAAAAAAAAIEAgQCAgQCAgICAgICAgICAgICAgICAgICAgICAgICAgICAgICAgICAgICAgICAgICAgI
        CAgICAgICAgICAgIAAEBAQABAQEBAQEBAQEBAQEBAQEBAQEBAQEBAQEBAQEBAQEBAQEBAQEBAQEBAQEBAQEBAQEBAQEBAQEBAQEBAQQEBAQEBAQEBAQEBAQEBAQEBAQE
        BAQEBAQEBAQEBAQEBAQEBAQEBAQEBAQEBAQEBAQEBAQEBAQEBAQEBAQEBARgYGBgYGBgYGBgYGBgYGBgYGBgYGBgYGBgYGBgYGBgYGBgYGBgYGBgYGBgYGBgYGBgYGBg
        YGBgYGBgYGBgYGBgAAAAAAAAAAAAAAAAAAAAAAAAAAAAAAAAAAAAAAAAAAAAAAAAAAAAAAAAAAAAAAAAAAAAAAAAAAAAAAAAAAAAAAAAAAAAAAAAAAAAAAAAAAAAAAAA
        AAAAAAAAAAAAAAAAAAAAAAAAAAAAAAAAAAAAAAAAAAAAAAAAAAAAAAAAAABCYXNzIDFrIFRyYW5jZSAwMgC+X/9/AACweMQlAQAAAAQqvl//fwAA9LBiIAEAAAAOEDID
        AAEAfwB/AkAAAQABAAAAAAAAAAAAfwAAAAAAAAAAAAAAAAAAAAAAAAAAAAAAAAAAAAAAAAAAAAAAAAAAAAAAAAAAAAAAAAAAAAAAAAAAAAAAAAAAAAAAAAAAAAAAAAAA
        AAAAAAAAAAAAAAAAAAAAAAAAAAAAAAAAAAAAAAAAAAAAAAAAAAAAAAAAAAAAAAAAAAAAAAAQCBAQCAgQCBAIEBAICBAICAgICAgICAgICAgICAgICAgICAgICAgICAgI
        CAgICAgICAgICAgICAgICAgICAgIAQIBAQECAQEBAgEBAQIBAQEBAQEBAQEBAQEBAQEBAQEBAQEBAQEBAQEBAQEBAQEBAQEBAQEBAQEBAQEBAQEBAQgEBAQEBAQEBAQE
        BAQEBAQEBAQEBAQEBAQEBAQEBAQEBAQEBAQEBAQEBAQEBAQEBAQEBAQEBAQEBAQEBAQEBARgYGBgYGBgYGBgYGBgYGBgYGBgYGBgYGBgYGBgYGBgYGBgYGBgYGBgYGBg
        YGBgYGBgYGBgYGBgYGBgYGBgYGBgAAAAAAAAAAAAAAAAAAAAAAAAAAAAAAAAAAAAAAAAAAAAAAAAAAAAAAAAAAAAAAAAAAAAAAAAAAAAAAAAAAAAAAAAAAAAAAAAAAAA
        AAAAAAAAAAAAAAAAAAAAAAAAAAAAAAAAAAAAAAAAAAAAAAAAAAAAAAAAAAAAAAAAAAAAAABCYXNzIDJrIFRyYW5jZSAwMwC+X/9/AACweMQlAQAAAAQqvl//fwAA9LBi
        IAEAAAAOEF0DAAQAfwB/AkAAAQABAAAAAAAAAAAAfwAAAAAAAAAAAAAAAAAAAAAAAAAAAAAAAAAAAAAAAAAAAAAAAAAAAAAAAAAAAAAAAAAAAAAAAAAAAAAAAAAAAAAA
        AAAAAAAAAAAAAAAAAAAAAAAAAAAAAAAAAAAAAAAAAAAAAAAAAAAAAAAAAAAAAAAAAAAAAAAAAAAAAAAAAAAICAgICAgICAgICAgICAgICAgICAgICAgICAgICAgICAgI
        CAgICAgICAgICAgICAgICAgICAgICAgICAgICAgIAQABAAEAAQABAAEAAQABAAEBAQEBAQEBAQEBAQEBAQEBAQEBAQEBAQEBAQEBAQEBAQEBAQEBAQEBAQEBAQEBAQQE
        BAQEBAQEBAQEBAgEBAQEBAQEBAQEBAQEBAQEBAQEBAQEBAQEBAQEBAQEBAQEBAQEBAQEBAQEBAQEBAQEBARgYGBgYGBgYGBgYGBgYGBgYGBgYGBgYGBgYGBgYGBgYGBg
        YGBgYGBgYGBgYGBgYGBgYGBgYGBgYGBgYGBgYGBgAAAAAAAAAAAAAAAAAAAAAAAAAAAAAAAAAAAAAAAAAAAAAAAAAAAAAAAAAAAAAAAAAAAAAAAAAAAAAAAAAAAAAAAA
        AAAAAAAAAAAAAAAAAAAAAAAAAAAAAAAAAAAAAAAAAAAAAAAAAAAAAAAAAAAAAAAAAAAAAAAAAAAAAAAAAABCYXNzIDJrIERNIFF1ZXN0aW9uIG9mIHRpbWUAAQAAAAQq
        vl//fwAA9LBiIAEAAAAOEFEDAAAAfwB/AEAAAQABAAAAAAAAAAAAfwAAAAAAAAAAAAAAAAAAAAAAAAAAAAAAAAAAAAAAAAAAAAAAAAAAAAAAAAAAAAAAAAAAAAAAAAAA
        AAAAAAAAAAAAAAAAAAAAAAAAAAAAAAAAAAAAAAAAAAAAAAAAAAAAAAAAAAAAAAAAAAAAAAAAAAAAAAAAAAAAAAAAAAAAAAAIEAgQEBAQCBAQCBAQEAgQCAgICAgICAgI
        CAgICAgICAgICAgICAgICAgICAgICAgICAgICAgICAgICAgICAgIAQABAAECAAEAAAEAAQIBAAEBAQEBAQEBAQEBAQEBAQEBAQEBAQEBAQEBAQEBAQEBAQEBAQEBAQEB
        AQEBAQEBAQQEBAQEBAQEBAQEBAQEBAQEBAQEBAQEBAQEBAQEBAQEBAQEBAQEBAQEBAQEBAQEBAQEBAQEBAQEBAQEBAQEBARgYGBgYGBgYGBgYGBgYGBgYGBgYGBgYGBg
        YGBgYGBgYGBgYGBgYGBgYGBgYGBgYGBgYGBgYGBgYGBgYGBgYGBgAAAAAAAAAAAAAAAAAAAAAAAAAAAAAAAAAAAAAAAAAAAAAAAAAAAAAAAAAAAAAAAAAAAAAAAAAAAA
        AAAAAAAAAAAAAAAAAAAAAAAAAAAAAAAAAAAAAAAAAAAAAAAAAAAAAAAAAAAAAAAAAAAAAAAAAAAAAAAAAAAAAAAAAAAAAABCYXNzIDFrIEJlbmFzc2kgLSBJbGx1c2lv
        bgAlAQAAAAQqvl//fwAA9LBiIAEAAAAOEFQDAAAAfwB/AEAAAQABAAAAAAAAAAAAfwAAAAAAAAAAAAAAAAAAAAAAAAAAAAAAAAAAAAAAAAAAAAAAAAAAAAAAAAAAAAAA
        AAAAAAAAAAAAAAAAAAAAAAAAAAAAAAAAAAAAAAAAAAAAAAAAAAAAAAAAAAAAAAAAAAAAAAAAAAAAAAAAAAAAAAAAAAAAAAAAAAAAAAAAAAAIEAgIEBAIEBAQCBAQEAgQ
        CAgICAgICAgICAgICAgICAgICAgICAgICAgICAgICAgICAgICAgICAgICAgICAgIAQABAQEAAQABAAEAAQABAAEBAQEBAQEBAQEBAQEBAQEBAQEBAQEBAQEBAQEBAQEB
        AQEBAQEBAQEBAQEBAQEBAQQEBAQEBAQEBAQEBAQEBAQEBAQEBAQEBAQEBAQEBAQEBAQEBAQEBAQEBAQEBAQEBAQEBAQEBAQEBAQEBAQEBARgYGBgYGBgYGBgYGBgYGBg
        YGBgYGBgYGBgYGBgYGBgYGBgYGBgYGBgYGBgYGBgYGBgYGBgYGBgYGBgYGBgYGBgAAAAAAAAAAAAAAAAAAAAAAAAAAAAAAAAAAAAAAAAAAAAAAAAAAAAAAAAAAAAAAAA
        AAAAAAAAAAAAAAAAAAAAAAAAAAAAAAAAAAAAAAAAAAAAAAAAAAAAAAAAAAAAAAAAAAAAAAAAAAAAAAAAAAAAAAAAAAAAAAAAAAAAAAAAAABCYXNzIDFrIFF1ZWVuIC0g
        QnJlYWsgZnJlZQAlAQAAAAQqvl//fwAA9LBiIAEAAAAOIEwDAAAAfwB/AEAAAQABAAAAAAAAAAAAfwAAAAAAAAAAAAAAAAAAAAAAAAAAAAAAAAAAAAAAAAAAAAAAAAAA
        AAAAAAAAAAAAAAAAAAAAAAAAAAAAAAAAAAAAAAAAAAAAAAAAAAAAAAAAAAAAAAAAAAAAAAAAAAAAAAAAAAAAAAAAAAAAAAAAAAAAAAAAAAAAAAAAAAAAAAAICBAICBAI
        CBAICBAICBAICBAgCBAgCBAgCBAgCBAgEAgICAgICAgICAgICAgICAgICAgICAgICAgICAgICAgIAQABAAEBAAEBAAEBAAEBAAEBAQEBAQEBAQEBAQEBAQEBAQEBAQEB
        AQEBAQEBAQEBAQEBAQEBAQEBAQEBAQEBAQQEBAQEBAQEBAQEBAQEBAQEBAQEBAQEBAQEBAQEBAQEBAQEBAQEBAQEBAQEBAQEBAQEBAQEBAQEBAQEBAQEBARgYGBgYGBg
        YGBgYGBgYGBgYGBgYGBgYGBgYGBgYGBgYGBgYGBgYGBgYGBgYGBgYGBgYGBgYGBgYGBgYGBgYGBgAAAAAAAAAAAAAAAAAAAAAAAAAAAAAAAAAAAAAAAAAAAAAAAAAAAA
        AAAAAAAAAAAAAAAAAAAAAAAAAAAAAAAAAAAAAAAAAAAAAAAAAAAAAAAAAAAAAAAAAAAAAAAAAAAAAAAAAAAAAAAAAAAAAAAAAAAAAAAAAAAAAAAAAAAAAABCYXNzIDFr
        IFF1ZWVuIC0gTGl2aW5nIG9uIG15IG93bgAqvl//fwAA9LBiIAEAAAAOEC4DAAAAfwB/AEAAAQABAAAGBAAAAAAAfwAAAAAAAAAAAAAAAAAAAAAAAAAAAAAAAAAAAAAA
        AAAAAAAAAAAAAAAAAAAAAAAAAAAAAAAAAAAAAAAAAAAAAAAAAgAEAAMAAAIDAAMAAwQAAAAAAAAAAAAAAAAAAAAAAAAAAAAAAAAAAAAAAAAAAAAAAAAAAAAAAAAAAAAA
        AAAEAggECAQICAIICAQIBAgICAgICAgICAgICAgICAgICAgICAgICAgICAgICAgICAgICAgICAgICAgICAgICAgIAQABAAEAAQEAAQABAQAAAQEBAQEBAQEBAQEBAQEB
        AQEBAQEBAQEBAQEBAQEBAQEBAQEBAQEBAQEBAQEBAQEBAQQEBAQEBAQEBAQEBAQEBAQEBAQEBAQEBAQEBAQEBAQEBAQEBAQEBAQEBAQEBAQEBAQEBAQEBAQEBAQEBAQE
        BARgYGBgYGBgYGBgYGBgYGBgYGBgYGBgYGBgYGBgYGBgYGBgYGBgYGBgYGBgYGBgYGBgYGBgYGBgYGBgYGBgYGBgAAAAAAAAAAAAAAAAAAAAAAAAAAAAAAAAAAAAAAAA
        AAAAAAAAAAAAAAAAAAAAAAAAAAAAAAAAAAAAAAAAAAAAAAAAAAAAAAAAAAAAAAAAAAAAAAAAAAAAAAAAAAAAAAAAAAAAAAAAAAAAAAAAAAAAAAAAAAAAAAAAAAAAAAAA
        AABTZXEgMWsgRm9yY2VTY2FsZSBFbSAwMQCweMQlAQAAAAQqvl//fwAA9LBiIAEAAAAOCEIDAAAAfwB/AEAAAQABAAAGBAAAAAAAfwAAAAAAAAAAAAAAAAAAAAAAAAAA
        AAAAAAAAAAAAAAAAAAAAAAAAAAAAAAAAAAAAAAAAAAAAAAAAAAAAAAAAAAAAAAIAAAQAAAAAAAAAAAAAAAAAAAAAAAAAAAAAAAAAAAAAAAAAAAAAAAAAAAAAAAAAAAAA
        AAAAAAAAAAAAAAAICAQIBAQICAgICAgICAgICAgICAgICAgICAgICAgICAgICAgICAgICAgICAgICAgICAgICAgICAgICAgICAgIAQIBAQEBAQIBAQEBAQEBAQEBAQEB
        AQEBAQEBAQEBAQEBAQEBAQEBAQEBAQEBAQEBAQEBAQEBAQEBAQEBAQEBAQQEBAQEBAQEBAQEBAQEBAQEBAQEBAQEBAQEBAQEBAQEBAQEBAQEBAQEBAQEBAQEBAQEBAQE
        BAQEBAQEBAQEBARgYGBgYGBgYGBgYGBgYGBgYGBgYGBgYGBgYGBgYGBgYGBgYGBgYGBgYGBgYGBgYGBgYGBgYGBgYGBgYGBgYGBgAAAAAAAAAAAAAAAAAAAAAAAAAAAA
        AAAAAAAAAAAAAAAAAAAAAAAAAAAAAAAAAAAAAAAAAAAAAAAAAAAAAAAAAAAAAAAAAAAAAAAAAAAAAAAAAAAAAAAAAAAAAAAAAAAAAAAAAAAAAAAAAAAAAAAAAAAAAAAA
        AAAAAAAAAAAAAABTZXEgMWsgRm9yY2VTY2FsZSBFbSAwMgCweMQlAQAAAAQqvl//fwAA9LBiIAEAAAAOEEcDAAAAfwB/AEUAAQABAAAGBAAAAAAAfwAAAAAAAAAAAAAA
        AAAAAAAAAAAAAAAAAAAAAAAAAAAAAAAAAAAAAAAAAAAAAAAAAAAAAAAAAAAAAAAAAAAAAAAAAAIABAAAAAIAAAACAAMAAAAAAAAAAAAAAAAAAAAAAAAAAAAAAAAAAAAA
        AAAAAAAAAAAAAAAAAAAAAAAAAAAICAgICAgICAgICAgICAgICAgICAgICAgICAgICAgICAgICAgICAgICAgICAgICAgICAgICAgICAgICAgICAgIAAEAAQABAAABAQAA
        AQEAAQEBAQEBAQEBAQEBAQEBAQEBAQEBAQEBAQEBAQEBAQEBAQEBAQEBAQEBAQEBAQEBAQQEBAQEBAQEBAQEBAQEBAQEBAQEBAQEBAQEBAQEBAQEBAQEBAQEBAQEBAQE
        BAQEBAQEBAQEBAQEBAQEBAQEBARgYGBgYGBgYGBgYGBgYGBgYGBgYGBgYGBgYGBgYGBgYGBgYGBgYGBgYGBgYGBgYGBgYGBgYGBgYGBgYGBgYGBgAAAAAAAAAAAAAAAA
        AAAAAAAAAAAAAAAAAAAAAAAAAAAAAAAAAAAAAAAAAAAAAAAAAAAAAAAAAAAAAAAAAAAAAAAAAAAAAAAAAAAAAAAAAAAAAAAAAAAAAAAAAAAAAAAAAAAAAAAAAAAAAAAA
        AAAAAAAAAAAAAAAAAAAAAAAAAABTZXEgMWsgRm9yY2VTY2FsZSBFbSAwMwCweMQlAQAAAAQqvl//fwAA9LBiIAEAAAAOEGQDAAQAfwB/AEAAAQABAAAGBAAAAAAAfwAA
        AAAAAAAAAAAAAAAAAAAAAAAAAAAAAAAAAAAAAAAAAAAAAAAAAAAAAAAAAAAAAAAAAAAAAAAAAAAAAAAAAAAAAAAGAAAAAAAFAAAEAAAAAAAAAAAAAAAAAAAAAAAAAAAA
        AAAAAAAAAAAAAAAAAAAAAAAAAAAAAAAAAAAAAAAECAQECAQECAQECAQECAQICAgICAgICAgICAgICAgICAgICAgICAgICAgICAgICAgICAgICAgICAgICAgICAgIAQEA
        AQEAAQEAAQEAAQEAAQEBAQEBAQEBAQEBAQEBAQEBAQEBAQEBAQEBAQEBAQEBAQEBAQEBAQEBAQEBAQEBAQQIBAQEBAQIBAQIBAQIBAQEBAQEBAQEBAQEBAQEBAQEBAQE
        BAQEBAQEBAQEBAQEBAQEBAQEBAQEBAQEBAQEBARgYGBgYGBgYGBgYGBgYGBgYGBgYGBgYGBgYGBgYGBgYGBgYGBgYGBgYGBgYGBgYGBgYGBgYGBgYGBgYGBgYGBgAAAA
        AAAAAAAAAAAAAAAAAAAAAAAAAAAAAAAAAAAAAAAAAAAAAAAAAAAAAAAAAAAAAAAAAAAAAAAAAAAAAAAAAAAAAAAAAAAAAAAAAAAAAAAAAAAAAAAAAAAAAAAAAAAAAAAA
        AAAAAAAAAAAAAAAAAAAAAAAAAAAAAAAAAAAAAABTZXEgMmsgRm9yY2VTY2FsZSBFbSAwNCAoRStHKQAAAAQqvl//fwAA9LBiIAEAAAAOCEMDAAQAfwB/AEAAAQABAAAA
        AAAAAAAAfwAAAAAAAAAAAAAAAAAAAAAAAAAAAAAAAAAAAAAAAAAAAAAAAAAAAAAAAAAAAAAAAAAAAAAAAAAAAAAAAAAAAAAAAAAAAAcAAAAAAAAAAAAAAAAAAAAAAAAA
        AAAAAAAAAAAAAAAAAAAAAAAAAAAAAAAAAAAAAAAAAAAAAAAAAAAICAgIBAQICAgICAgICAgICAgICAgICAgICAgICAgICAgICAgICAgICAgICAgICAgICAgICAgICAgI
        CAgICAgIAQIBAQEBAQIBAQEBAQEBAQEBAQEBAQEBAQEBAQEBAQEBAQEBAQEBAQEBAQEBAQEBAQEBAQEBAQEBAQEBAQEBAQQEBAgEBAQEBAQEBAQEBAQEBAQEBAQEBAQE
        BAQEBAQEBAQEBAQEBAQEBAQEBAQEBAQEBAQEBAQEBAQEBAQEBARgYGBgYGBgYGBgYGBgYGBgYGBgYGBgYGBgYGBgYGBgYGBgYGBgYGBgYGBgYGBgYGBgYGBgYGBgYGBg
        YGBgYGBgAAAAAAAAAAAAAAAAAAAAAAAAAAAAAAAAAAAAAAAAAAAAAAAAAAAAAAAAAAAAAAAAAAAAAAAAAAAAAAAAAAAAAAAAAAAAAAAAAAAAAAAAAAAAAAAAAAAAAAAA
        AAAAAAAAAAAAAAAAAAAAAAAAAAAAAAAAAAAAAAAAAAAAAAAAAABTZXEgMmsgSGFybW9uaWMxIChBK0MvQyMpAMQlAQAAAAQqvl//fwAA9LBiIAEAAAAOCEMDAAEAfwB/
        AEAAAQABAAAAAAAAAAAAfwAAAAAAAAAAAAAAAAAAAAAAAAAAAAAAAAAAAAAAAAAAAAAAAAAAAAAAAAAAAAAAAAAAAAAAAAAAAAAAAAAAAAAABwUABwUAAAAAAAAAAAAA
        AAAAAAAAAAAAAAAAAAAAAAAAAAAAAAAAAAAAAAAAAAAAAAAAAAAAAAAAAAAAAAAECAgIBAgICAgICAgICAgICAgICAgICAgICAgICAgICAgICAgICAgICAgICAgICAgI
        CAgICAgICAgICAgICAgIAQEBAQEBAQEBAQEBAQEBAQEBAQEBAQEBAQEBAQEBAQEBAQEBAQEBAQEBAQEBAQEBAQEBAQEBAQEBAQEBAQEBAQQIBAgEBAgEBAQEBAQEBAQE
        BAQEBAQEBAQEBAQEBAQEBAQEBAQEBAQEBAQEBAQEBAQEBAQEBAQEBAQEBAQEBARgYGBgYGBgYGBgYGBgYGBgYGBgYGBgYGBgYGBgYGBgYGBgYGBgYGBgYGBgYGBgYGBg
        YGBgYGBgYGBgYGBgYGBgAAAAAAAAAAAAAAAAAAAAAAAAAAAAAAAAAAAAAAAAAAAAAAAAAAAAAAAAAAAAAAAAAAAAAAAAAAAAAAAAAAAAAAAAAAAAAAAAAAAAAAAAAAAA
        AAAAAAAAAAAAAAAAAAAAAAAAAAAAAAAAAAAAAAAAAAAAAAAAAAAAAAAAAAAAAABTZXEgMmsgSGFybW9uaWMyIChBK0MvQyMpAMQlAQAAAAQqvl//fwAA9LBiIAEAAAAO
        CEcDAAEAfwB/AEAAAQABAAAAAAAAAAAAfwAAAAAAAAAAAAAAAAAAAAAAAAAAAAAAAAAAAAAAAAAAAAAAAAAAAAAAAAAAAAAAAAAAAAAAAAAAAAAAAAAAAAAABwcAAAAH
        AAAAAAAAAAAAAAAAAAAAAAAAAAAAAAAAAAAAAAAAAAAAAAAAAAAAAAAAAAAAAAAAAAAAAAAAAAAECAgICAQICAgICAgICAgICAgICAgICAgICAgICAgICAgICAgICAgI
        CAgICAgICAgICAgICAgICAgICAgICAgIAQEBAQEBAQEBAQEBAQEBAQEBAQEBAQEBAQEBAQEBAQEBAQEBAQEBAQEBAQEBAQEBAQEBAQEBAQEBAQEBAQEBAQQIBAgEBAgE
        BAQEBAQEBAQEBAQEBAQEBAQEBAQEBAQEBAQEBAQEBAQEBAQEBAQEBAQEBAQEBAQEBAQEBAQEBARgYGBgYGBgYGBgYGBgYGBgYGBgYGBgYGBgYGBgYGBgYGBgYGBgYGBg
        YGBgYGBgYGBgYGBgYGBgYGBgYGBgYGBgAAAAAAAAAAAAAAAAAAAAAAAAAAAAAAAAAAAAAAAAAAAAAAAAAAAAAAAAAAAAAAAAAAAAAAAAAAAAAAAAAAAAAAAAAAAAAAAA
        AAAAAAAAAAAAAAAAAAAAAAAAAAAAAAAAAAAAAAAAAAAAAAAAAAAAAAAAAAAAAAAAAAAAAAAAAABTZXEgMmsgSGFybW9uaWMzIChBK0MvQyMpAMQlAQAAAAQqvl//fwAA
        9LBiIAEAAAAOCEIDAAEAfwB/AEAAAQABAAAAAAAAAAAAfwAAAAAAAAAAAAAAAAAAAAAAAAAAAAAAAAAAAAAAAAAAAAAAAAAAAAAAAAAAAAAAAAAAAAAAAAAAAAAAAAAA
        AAAAAAcAAAAAAAAAAAAAAAAAAAAAAAAAAAAAAAAAAAAAAAAAAAAAAAAAAAAAAAAAAAAAAAAAAAAAAAAAAAAAAAAIBAgIBAgEBAgICAgICAgICAgICAgICAgICAgICAgI
        CAgICAgICAgICAgICAgICAgICAgICAgICAgICAgICAgIAQEBAQEBAQEBAQEBAQEBAQEBAQEBAQEBAQEBAQEBAQEBAQEBAQEBAQEBAQEBAQEBAQEBAQEBAQEBAQEBAQEB
        AQQECAQECAQEBAQEBAQEBAQEBAQEBAQEBAQEBAQEBAQEBAQEBAQEBAQEBAQEBAQEBAQEBAQEBAQEBAQEBAQEBARgYGBgYGBgYGBgYGBgYGBgYGBgYGBgYGBgYGBgYGBg
        YGBgYGBgYGBgYGBgYGBgYGBgYGBgYGBgYGBgYGBgYGBgAAAAAAAAAAAAAAAAAAAAAAAAAAAAAAAAAAAAAAAAAAAAAAAAAAAAAAAAAAAAAAAAAAAAAAAAAAAAAAAAAAAA
        AAAAAAAAAAAAAAAAAAAAAAAAAAAAAAAAAAAAAAAAAAAAAAAAAAAAAAAAAAAAAAAAAAAAAAAAAAAAAAAAAAAAAABTZXEgMmsgSGFybW9uaWM0IChBK0MvQyMpAMQlAQAA
        AAQqvl//fwAA9LBiIAEAAAAOID0DAAAAfwB/AEAAAQABAAAAAAAAAAAAfwAAAAAAAAAAAAAAAAAAAAAAAAAAAAAAAAAAAAAAAAAAAAAAAAAAAAAAAAAAAAAAAAAAAAAA
        AAAAAAAAAAAAAAAA/v4AAP7+AAAAAAAAAAAAAP7+AAD+/gAAAAAAAAAAAAAAAAAAAAAAAAAAAAAAAAAAAAAAAAAAAAAAAAAAAAAICAgICAgICAgICAgICAgICAgICAgI
        CAgICAQEBAgEBAgICAgICAgICAgICAgICAgICAgICAgICAgICAgICAgIAQEBAQEBAQEBAQAAAQEAAAEBAQEBAQEBAQEBAQEBAAABAQEBAQEBAQEBAQEBAQEBAQEBAQEB
        AQEBAQEBAQEBAQQEBAQEBAQEBAQEBAgIBAQEBAQEBAQEBAQEBAQEBAQEBAQEBAQEBAQEBAQEBAQEBAQEBAQEBAQEBAQEBAQEBARgYGBgYGBgYGBgYGBgYGBgYGBgYGBg
        YGBgYGBgYGBgYGBgYGBgYGBgYGBgYGBgYGBgYGBgYGBgYGBgYGBgYGBgAAAAAAAAAAAAAAAAAAAAAAAAAAAAAAAAAAAAAAAAAAAAAAAAAAAAAAAAAAAAAAAAAAAAAAAA
        AAAAAAAAAAAAAAAAAAAAAAAAAAAAAAAAAAAAAAAAAAAAAAAAAAAAAAAAAAAAAAAAAAAAAAAAAAAAAAAAAAAAAAAAAAAAAAAAAABTZXEgMmsgS3JhZnR3ZXJrMSAoRCtG
        KQCweMQlAQAAAAQqvl//fwAA9LBiIAEAAAAOIGQDAAAAfwB/AD4AAQABAAAAAAAAAAAAfwAAAAAAAAAAAAAAAAAAAAAAAAAAAAAAAAAAAAAAAAAAAAAAAAAAAAAAAAAA
        AAAAAAAAAAAAAAAAAAAAAAAAAAAAAAAAAAAAAwAAAAAAAAADAAAABQAKAAcAAAAAAAAAAAAAAAAAAAAAAAAAAAAAAAAAAAAAAAAAAAAAAAAAAAAICAgICAgICAgICAgI
        CAgICAgICAgICAgICAgICAgICAgICAgICAgICAgICAgICAgICAgICAgICAgICAgICAgIAQAAAAEAAQABAAEAAAAAAAEAAAABAAEAAQAAAAAAAAABAQEBAQEBAQEBAQEB
        AQEBAQEBAQEBAQEBAQEBAQEBAQQEBAQEBAQEBAQEBAQEBAQEBAQEBAQEBAQEBAQEBAQEBAQEBAQEBAQEBAQEBAQEBAQEBAQEBAQEBAQEBAQEBARgYGBgYGBgYGBgYGBg
        YGBgYGBgYGBgYGBgYGBgYGBgYGBgYGBgYGBgYGBgYGBgYGBgYGBgYGBgYGBgYGBgYGBgAAAAAAAAAAAAAAAAAAAAAAAAAAAAAAAAAAAAAAAAAAAAAAAAAAAAAAAAAAAA
        AAAAAAAAAAAAAAAAAAAAAAAAAAAAAAAAAAAAAAAAAAAAAAAAAAAAAAAAAAAAAAAAAAAAAAAAAAAAAAAAAAAAAAAAAAAAAAAAAAAAAAAAAAAAAABTZXEgMmsgS3JhZnR3
        ZXJrMiAoQSwgQykAeMQlAQAAAAQqvl//fwAA9LBiIAEAAAAOIGQDAAAAfwB/AEAAAQABAAAAAAAAAAAAfwAAAAAAAAAAAAAAAAAAAAAAAAAAAAAAAAAAAAAAAAAAAAAA
        AAAAAAAAAAAAAAAAAAAAAAAAAAAAAAAAAAAAAAAAAAAAAPsAAAD7AAAAAAAAAAAAAgAAAAAAAAAAAPsAAAAAAAAAAAAAAAAAAAAAAAAAAAAAAAAAAAAAAAAAAAAICAgI
        CAgICAgICAgICAgICAgICAgICAgICAgICAgICAgICAgICAgICAgICAgICAgICAgICAgICAgICAgICAgIAQAAAAEAAQABAAEAAAABAAEAAAABAAEAAAAAAAAAAQABAQEB
        AQEBAQEBAQEBAQEBAQEBAQEBAQEBAQEBAQEBAQQEBAQEBAQEBAQEBAQEBAQIBAQEBAQEBAQEBAQEBAQEBAQEBAQEBAQEBAQEBAQEBAQEBAQEBAQEBAQEBAQEBARgYGBg
        YGBgYGBgYGBgYGBgYGBgYGBgYGBgYGBgYGBgYGBgYGBgYGBgYGBgYGBgYGBgYGBgYGBgYGBgYGBgYGBgAAAAAAAAAAAAAAAAAAAAAAAAAAAAAAAAAAAAAAAAAAAAAAAA
        AAAAAAAAAAAAAAAAAAAAAAAAAAAAAAAAAAAAAAAAAAAAAAAAAAAAAAAAAAAAAAAAAAAAAAAAAAAAAAAAAAAAAAAAAAAAAAAAAAAAAAAAAAAAAAAAAAAAAAAAAABTZXEg
        MmsgS3JhZnR3ZXJrMyAoQStDLCBGK0EpAAAAAAQqvl//fwAA9LBiIAEAAAA=
        AC0gSW5pdGlhbCBwcm9ncmFtIC0AEAAAAA==
      >
      PRESETNAME "- Initial program -"
      FLOATPOS 203 36 810 615
      FXID {007FB9B4-58B7-9343-9460-2E23A6E78A60}
      WAK 0
      BYPASS 0 0 0
      <VST "VSTi: chipsounds (Plogue Art et Technologie, Inc)" chipsounds.vst 0 "" 1347176271
        T0dMUO5e7f4AAAAABAAAAAEAAAAAAAAAAgAAAAAAAAAEAAAAAAAAAAgAAAAAAAAAHAQAAAEAAAAAABAA
        Q0VHULcaAAB4nO1ZW2/bNhR+z68g9LQ9VCJ1tQA7he3Eg4F5DWbvuaBlVhGq20QqS/vrR0pWJPlC0XGLdWj4YpH6ePgdnkPpO/L4/XMSgydS0ChLJxrSoQbe396Mp0WE
        1/iJdG650NRubwBv4zVhLEpDCv4ucRyxL/yuBsI42+L4IYt51zI1QFlBcMJhdTfBz+tqZBrHWbCaTTQH8eHV8m75oWSrbEcqK7hkWYIZX3IdZ2yicT404Hd8u7rCMeZj
        CLwDRKyt0yDeD89Jykgx0VzYUNmUabU61GHVNGA0/LlpEO0q6ylOiDCpg4eyIGD+GOXGenlnuM4IgV/+2Kznv2pgi9PPS45HEPoaCB5xmpK4mp5X/toaYEer5duPBU5D
        bv0dehlkfIjmGSXV7KRk9QX952OMKROWao4VzxWO0obnE45LUkWo70wfiF6AR173gaYq0FIF2qpARxXoqgI9VeBIFeirAhFURirHBikHBylHBymHBw3F5wEXOFFKohY5
        tHqL9AZSvUX2tt72HRm0u0+mI7XapWraUugFXLsJhSzpBnTdskwptJtSNpJCu7FCIym0t1lyrt3NcqWb5XXTypNbdXtcZYH1+idaBh11rVrSaI18ZajfjRbypTlgdWPg
        QMu3vPNZ2GKROXRmfNiycAexbdKYg1hTOcN9qH7GfeheYHd0Ada/4OlxgXM8BNYAeIOLkLC9nAiyRH+Is7AkulBS+u+LD3pJSQE7b/dq1rykXO/cYYYB+5KLkJiWywNE
        o6+8YwvXGwHG1yPpLsL15Y5P4RdNW9Q/Jvy2re+iUft4qdPoZ3L6T06XFFwJrgkVLuiUkfxnCfumiMKQFGuuzUkakGLQbeSZ4s1Yu+35HbfNU26jvdf7BqtHs7eAJr+G
        9yMPHTpizb2Fr+AwgrYy9hWbNjZExXFYfKDrig/UFB9mW3ygK6sP8636eKs+/i/VR98j5Lpn1VTXIx861YeH4TrF9GxXCJVvWqc4Uqg3FM8z2t+xpSK5FydpodQT9JYn
        JdCNlCmvU4bO0qtU+us1sn2BRh7WnN9fIw/r9P9MI/9YsvdIABy0+4H78JSLb7JX6vR1og+Jp/Zlqm8mekL1IQfOvMXsyJPzSq5RiC5/CTjO1LHEXs5/2NHTfA/aHJ4a
        PddUVer9p08kYMcfyqfJNhJhPpSlzaf13/5aNhNwwKInsnz5jl/379vv+iTmS5DdBm9Fv/sEKgglbEXSEkS0gbOKqjz1ACPPHDLDlHIFjNnjRDOmeR5HQfWXAjXqiVxE
        RznNynTHR6q1qCExa9QpDPh48JkawrqO+VHPD56bR6zRSdbTIidhGGGWtYTjKL+CcMeiIUxdw+7cnnIGCSnwd9jWPfuMg+s1DuiPDZ5Utzdjo/lT6vbmXzeClUM=
        AAAQAAAA
      >
      FLOATPOS 409 269 871 509
      FXID {DC79668B-30D1-964C-A162-F245DBE294B0}
      WAK 0
      BYPASS 0 0 0
      <VST "VST: 8-Bit Shaper (Xfer Records)" 8BitShaper.vst 0 "" 1148539762
        clN1RO5e7f4CAAAAAQAAAAAAAAACAAAAAAAAAAQAAAABAAAAAAAAAAIAAAAAAAAABAAAAAAAAAAIAAAAAAAAADQCAAABAAAAAAAQAA==
        ZmaGP20MlT7dQQw/AAAAP3QAAAAAAIA/AAAAAAAAAAAXAAAAMAAAABkAAAAaAAAAGgAAABoAAAAbAAAAGwAAABwAAAAcAAAAHAAAAB0AAAAdAAAAHgAAAB4AAAAfAAAA
        HwAAACAAAAAgAAAAIAAAACEAAAAhAAAAIQAAACIAAAAiAAAAIgAAACMAAAAjAAAAIwAAACQAAAAkAAAAJAAAACUAAAAlAAAAKAAAACgAAAApAAAAKQAAACoAAAA1AAAA
        KgAAACoAAAA2AAAAKgAAACoAAAAqAAAAKgAAACoAAAAqAAAAKgAAACsAAAArAAAAOQAAAC0AAAA0AAAAOgAAAC0AAAAtAAAAPAAAAC4AAAAuAAAALwAAADAAAAAwAAAA
        MQAAADEAAAAxAAAAMgAAADMAAAAzAAAAMwAAADcAAAA3AAAANwAAADgAAAA4AAAAOAAAADkAAAA5AAAAOQAAADoAAAA6AAAAOgAAADoAAAA6AAAAOwAAADsAAAA7AAAA
        PAAAADsAAAA7AAAAOwAAADwAAAA8AAAAPAAAADwAAAA9AAAAPQAAAD0AAAA9AAAAPQAAAD4AAAA+AAAAPwAAAEkAAABAAAAAQAAAAEgAAABAAAAAQQAAAEIAAABCAAAA
        QgAAAEMAAABDAAAAQwAAAEQAAABEAAAARQAAAE0AAABGAAAARwAAAEYAAABHAAAASAAAAEgAAABJAAAATwAAAAAAgD+rqqo+q6qqPh0Fwz6OAm0/
        AEluaXQgMQAQAAAA
      >
      PRESETNAME "Init 1"
      FLOATPOS 0 0 0 0
      FXID {8D41C7C8-FDD9-0B46-8F32-7407BD5E7789}
      WAK 0
    >
    <ITEM
      POSITION 0
      SNAPOFFS 0
      LENGTH 36
      LOOP 1
      ALLTAKES 0
      FADEIN 1 0 0 1 0 0
      FADEOUT 1 0 0 1 0 0
      MUTE 0
      SEL 0
      YPOS 0.25 0.25
      IGUID {29F6604D-2A06-5949-9E53-0B5AA70894F2}
      IID 4
      NAME "BASS                 - National_Anthems_-_Cyprus.mid"
      VOLPAN 1 0 1 -1
      SOFFS 1 2
      PLAYRATE 1 1 0 -1 0 0.0025
      CHANMODE 0
      TAKECOLOR 26173599 B
      GUID {C374BC66-404D-C342-8AD0-F8A32595A67F}
      <SOURCE MIDI
        HASDATA 1 192 QN
        POOLEDEVTS {8B0869D9-E1A8-5847-BAC3-C3F8AEBFECE5}
        <X 0 0 0 0 3 "BASS                "
          /wNCQVNTICAgICAgICAgICAgICAgIA==
        >
        e 576 90 29 64
        e 80 80 29 40
        e 112 90 2d 64
        e 80 80 2d 40
        e 112 90 30 64
        e 80 80 30 40
        e 112 90 29 64
        e 80 80 29 40
        e 112 90 2d 64
        e 80 80 2d 40
        e 112 90 30 64
        e 80 80 30 40
        e 112 90 2e 64
        e 80 80 2e 40
        e 112 90 32 64
        e 80 80 32 40
        e 112 90 30 64
        e 80 80 30 40
        e 112 90 29 64
        e 80 80 29 40
        e 112 90 2d 64
        e 80 80 2d 40
        e 112 90 30 64
        e 80 80 30 40
        e 112 90 24 64
        e 80 80 24 40
        e 112 90 30 64
        e 80 80 30 40
        e 112 90 30 64
        e 80 80 30 40
        e 112 90 24 64
        e 80 80 24 40
        e 112 90 30 64
        e 80 80 30 40
        e 112 90 30 64
        e 80 80 30 40
        e 112 90 24 64
        e 80 80 24 40
        e 112 90 30 64
        e 80 80 30 40
        e 112 90 30 64
        e 80 80 30 40
        e 112 90 29 64
        e 80 80 29 40
        e 112 90 2d 64
        e 80 80 2d 40
        e 112 90 30 64
        e 176 80 30 40
        e 16 90 32 64
        e 80 80 32 40
        e 112 90 2d 64
        e 80 80 2d 40
        e 112 90 32 64
        e 80 80 32 40
        e 112 90 32 64
        e 0 90 26 64
        e 80 80 32 40
        e 0 80 26 40
        e 112 90 2d 64
        e 80 80 2d 40
        e 112 90 32 64
        e 80 80 32 40
        e 112 90 26 64
        e 80 80 26 40
        e 112 90 2d 64
        e 80 80 2d 40
        e 112 90 2d 64
        e 80 80 2d 40
        e 112 90 32 64
        e 80 80 32 40
        e 112 90 32 64
        e 80 80 32 40
        e 304 90 24 64
        e 80 80 24 40
        e 112 90 24 64
        e 80 80 24 40
        e 112 90 24 64
        e 80 80 24 40
        e 112 90 29 64
        e 80 80 29 40
        e 112 90 29 64
        e 80 80 29 40
        e 112 90 29 64
        e 80 80 29 40
        e 112 90 30 64
        e 80 80 30 40
        e 112 90 24 64
        e 80 80 24 40
        e 112 90 30 64
        e 80 80 30 40
        e 112 90 29 64
        e 80 80 29 40
        e 112 90 35 64
        e 80 80 35 40
        e 304 90 2e 64
        e 80 80 2e 40
        e 112 90 32 64
        e 80 80 32 40
        e 112 90 26 64
        e 80 80 26 40
        e 112 90 2b 64
        e 80 80 2b 40
        e 112 90 32 64
        e 80 80 32 40
        e 112 90 2e 64
        e 80 80 2e 40
        e 112 90 30 64
        e 80 80 30 40
        e 112 90 24 64
        e 80 80 24 40
        e 112 90 30 64
        e 80 80 30 40
        e 112 90 29 64
        e 80 80 29 40
        e 112 90 30 64
        e 80 80 30 40
        e 112 90 35 64
        e 80 80 35 40
        e 112 90 2e 64
        e 80 80 2e 40
        e 112 90 32 64
        e 80 80 32 40
        e 112 90 26 64
        e 80 80 26 40
        e 112 90 2b 64
        e 80 80 2b 40
        e 112 90 32 64
        e 80 80 32 40
        e 112 90 2e 64
        e 80 80 2e 40
        e 112 90 30 64
        e 80 80 30 40
        e 112 90 24 64
        e 80 80 24 40
        e 112 90 30 64
        e 80 80 30 40
        e 112 90 29 64
        e 176 80 29 40
        e 16 90 35 64
        e 80 80 35 40
        E 112 b0 7b 00
        GUID {137B982D-D8F7-E143-A0A6-4C0A78A259E5}
        IGNTEMPO 0 120 4 4
        SRCCOLOR 631
        VELLANE -1 86 6
        CFGEDITVIEW -985.079792 28.048037 74 12 0 0 0 0 0 0.5
        KEYSNAP 0
        TRACKSEL 226
        EVTFILTER 0 -1 -1 -1 -1 0 0 0 0 -1 -1 -1 -1 0 -1 0 -1 -1
        CFGEDIT 1 1 0 0 0 0 1 0 1 1 1 0.25 474 462 1014 762 1 0 1 3 0 0 0 0 0 -1 0 0 1 64
      >
      TAKE
      NAME "BASS                 - National_Anthems_-_Cyprus.mid"
      TAKEVOLPAN 0 1 -1
      SOFFS 1 2
      PLAYRATE 1 1 0 -1 0 0.0025
      CHANMODE 0
      GUID {33514960-33ED-D34C-99BF-53FE98B9FC5B}
      <SOURCE MIDI
        HASDATA 1 192 QN
        POOLEDEVTS {F4636896-A030-364B-83AB-7F2907C0CC04}
        <X 0 0 0 0 3 "BASS                "
          /wNCQVNTICAgICAgICAgICAgICAgIA==
        >
        E 576 93 29 64
        E 80 83 29 40
        E 112 93 2d 64
        E 80 83 2d 40
        E 112 93 30 64
        E 80 83 30 40
        E 112 93 29 64
        E 80 83 29 40
        E 112 93 2d 64
        E 80 83 2d 40
        E 112 93 30 64
        E 80 83 30 40
        E 112 93 2e 64
        E 80 83 2e 40
        E 112 93 32 64
        E 80 83 32 40
        E 112 93 30 64
        E 80 83 30 40
        E 112 93 29 64
        E 80 83 29 40
        E 112 93 2d 64
        E 80 83 2d 40
        E 112 93 30 64
        E 80 83 30 40
        E 112 93 24 64
        E 80 83 24 40
        E 112 93 30 64
        E 80 83 30 40
        E 112 93 30 64
        E 80 83 30 40
        E 112 93 24 64
        E 80 83 24 40
        E 112 93 30 64
        E 80 83 30 40
        E 112 93 30 64
        E 80 83 30 40
        E 112 93 24 64
        E 80 83 24 40
        E 112 93 30 64
        E 80 83 30 40
        E 112 93 30 64
        E 80 83 30 40
        E 112 93 29 64
        E 80 83 29 40
        E 112 93 2d 64
        E 80 83 2d 40
        E 112 93 30 64
        E 176 83 30 40
        E 16 93 32 64
        E 80 83 32 40
        E 112 93 2d 64
        E 80 83 2d 40
        E 112 93 32 64
        E 80 83 32 40
        E 112 93 32 64
        E 0 93 26 64
        E 80 83 32 40
        E 0 83 26 40
        E 112 93 2d 64
        E 80 83 2d 40
        E 112 93 32 64
        E 80 83 32 40
        E 112 93 26 64
        E 80 83 26 40
        E 112 93 2d 64
        E 80 83 2d 40
        E 112 93 2d 64
        E 80 83 2d 40
        E 112 93 32 64
        E 80 83 32 40
        E 112 93 32 64
        E 80 83 32 40
        E 304 93 24 64
        E 80 83 24 40
        E 112 93 24 64
        E 80 83 24 40
        E 112 93 24 64
        E 80 83 24 40
        E 112 93 29 64
        E 80 83 29 40
        E 112 93 29 64
        E 80 83 29 40
        E 112 93 29 64
        E 80 83 29 40
        E 112 93 30 64
        E 80 83 30 40
        E 112 93 24 64
        E 80 83 24 40
        E 112 93 30 64
        E 80 83 30 40
        E 112 93 29 64
        E 80 83 29 40
        E 112 93 35 64
        E 80 83 35 40
        E 304 93 2e 64
        E 80 83 2e 40
        E 112 93 32 64
        E 80 83 32 40
        E 112 93 26 64
        E 80 83 26 40
        E 112 93 2b 64
        E 80 83 2b 40
        E 112 93 32 64
        E 80 83 32 40
        E 112 93 2e 64
        E 80 83 2e 40
        E 112 93 30 64
        E 80 83 30 40
        E 112 93 24 64
        E 80 83 24 40
        E 112 93 30 64
        E 80 83 30 40
        E 112 93 29 64
        E 80 83 29 40
        E 112 93 30 64
        E 80 83 30 40
        E 112 93 35 64
        E 80 83 35 40
        E 112 93 2e 64
        E 80 83 2e 40
        E 112 93 32 64
        E 80 83 32 40
        E 112 93 26 64
        E 80 83 26 40
        E 112 93 2b 64
        E 80 83 2b 40
        E 112 93 32 64
        E 80 83 32 40
        E 112 93 2e 64
        E 80 83 2e 40
        E 112 93 30 64
        E 80 83 30 40
        E 112 93 24 64
        E 80 83 24 40
        E 112 93 30 64
        E 80 83 30 40
        E 112 93 29 64
        E 176 83 29 40
        E 16 93 35 64
        E 80 83 35 40
        E 112 b0 7b 00
        GUID {85508E77-5419-E546-9686-0D8489C5C8FB}
        IGNTEMPO 0 120 4 4
        SRCCOLOR 686
        VELLANE -1 86 6
        CFGEDITVIEW 0 0 74 12 0 0 0 0 0 0.5
        KEYSNAP 0
        TRACKSEL 226
        EVTFILTER 0 -1 -1 -1 -1 0 0 0 0 -1 -1 -1 -1 0 -1 0 -1 -1
        CFGEDIT 1 1 0 0 0 0 1 0 1 1 1 0.25 474 462 1014 762 1 0 1 3 0 0 0 0 0 -1 0 0 1 64
      >
    >
  >
  <TRACK {3CF13A00-0AFC-8542-AD98-73B6D91102DB}
    NAME "vst Plogue"
    PEAKCOL 26779488
    BEAT -1
    AUTOMODE 0
    VOLPAN 0.96450352403557 0 -1 -1 1
    MUTESOLO 0 0 0
    IPHASE 0
    ISBUS 0 0
    BUSCOMP 0 0
    SHOWINMIX 1 0.6667 0.5 1 0.5 0 0 0
    FREEMODE 0
    SEL 0
    REC 0 0 0 1 0 0 0
    VU 2
    TRACKHEIGHT 0 0
    INQ 0 0 0 0.5 100 0 0 100
    NCHAN 4
    FX 1
    TRACKID {3CF13A00-0AFC-8542-AD98-73B6D91102DB}
    PERF 0
    AUXRECV 5 0 1 0 0 0 0 0 0 -1:U 32 -1 ''
    AUXRECV 5 0 1 0 0 0 0 0 0 -1:U 96 -1 ''
    AUXRECV 6 0 1 0 0 0 0 0 0 -1:U 64 -1 ''
    AUXRECV 6 0 1 0 0 0 0 0 0 -1:U 128 -1 ''
    MIDIOUT -1
    MAINSEND 0 0
    <FXCHAIN
      SHOW 0
      LASTSEL 0
      DOCKED 0
      BYPASS 0 0 0
      <VST "VSTi: chipsounds (Multi) (Plogue Art et Technologie, Inc) (32 out)" "chipsounds Multi.vst" 0 "" 1347241807
        T0dNUO5e7f4AAAAAIAAAAAEAAAAAAAAAAgAAAAAAAAAEAAAAAAAAAAgAAAAAAAAAEAAAAAAAAAAgAAAAAAAAAEAAAAAAAAAAgAAAAAAAAAAAAQAAAAAAAAACAAAAAAAA
        AAQAAAAAAAAACAAAAAAAAAAQAAAAAAAAACAAAAAAAAAAQAAAAAAAAACAAAAAAAAAAAABAAAAAAAAAAIAAAAAAAAABAAAAAAAAAAIAAAAAAAAABAAAAAAAAAAIAAAAAAA
        AABAAAAAAAAAAIAAAAAAAAAAAAEAAAAAAAAAAgAAAAAAAAAEAAAAAAAAAAgAAAAAAAAAEAAAAAAAAAAgAAAAAAAAAEAAAAAAAAAAgAAAAADsBQAAAQAAAAAAEAA=
        Q0VHUF0/AAB4nO2bW3OjNhTH3/MpGJ7ahzVIXGRmnOz4Enc903QztXf6mFFsrUPLxUUim/TTV4CJUYyFCEnbbeAhAfnPkY6OED/p2KOPD2Gg3ZOE+nF0roOBqWsfL85G
        48THS3xPKh+5JtQvzjR+jJaEMT/aUu3PFAc+e+Sf6to2iG9xcB0H/NKCukZZQnDIZcVliB+Weck4COL11eRcdwAvvlrMFp9TdhVvSG4FpywOMeNVLoOYneu8PXTNtTbI
        TnCAeRHQPmgkq3pA18G+eEoiRpJz3TXLlqzSKK/cHJj5oWtG2XxuWfM3ufEIhyQzOdCu04Ro0zt/ZywXM8N1hkD74ZfVcvqjrt3i6I8F1wPT9HRtfYejiAT57bvcXVvX
        2FFtu9ubBEdbbv0DeCpkvIjuYkryu8OUFSf0202AKcssFW3M23mF/ahs5z0OUpIHSHRGFIIn4ZHXohCqCi1Voa0qdFSFrqoQqQqHqkJPVQhMZaVybIBycIBydIByeEBT
        fK5xgkOlQXRQNtV+UFZjOXQciVLoetuTSVG174Elrd8WpFKr1QEKhlKpOPJk0mHVqiXtq6GnLPWqnQU8mRTYh7gCWB+vFU62hO0nz3UcDq6DeJuSQfbaGPw8/zxIKUnM
        ylyW3zVNKZ/cZ5hhjT3u+J0QWm42r/t/8Qs766PybcPrI9HGx8Xpht/CT8pjXvyD5useootG4WNbp8E7cXqV+NstSZb8PUyiNUka3QYIAq9020EVt2Gd22Dv9f4orlF+
        bk3R3BOcmJrW/N/qiDz6v3IHSMIBYElo5tSAMrL7H43/kZEx03N8At3wCdTg07DHpx6f3gk+iR4B10UqoOWZTr5wagYtiGzXdF8ZtBypSwJoObYUiapNtZDUatNQfhE9
        AQsKflmedTIAKkxUha1Dj8GmQcDn8YbpqYetHra6wBYwQVvayp9yxHthfnlMW0XXIGsiFMw5g2Xa4ZGUl87qLJhQtPDGFFfPMLAbw9glw4ADw9jdGMZsYJimF1B7hmmg
        op5h5B3eM0xbhkHQtrPHqF5Z9QhI90qqHiEpbQgeAZlHqOGxOLUBJd3/EaLEfZdJbfUGCBtQGe2Ak9IWblVHvi0lQ1TtAUu6q1Qhw6YGIGFISztLgEhX3tbqEHCB8sae
        A2VSYV/Ng/LAvpQhrUZt01xe1arvxXqm28Ku+gjzTK/FQ9bCOQAE7yxp6HgMqrNXrpWJm/qtx/Qe0zthOrTaYnq+ai4w3YRwMjny5BjeZzmmm2YtpteCvjMV7U4KTEcI
        VEvnRelULN0fUxXt/AT+t0Z6qxvSw38+q6uM9A2k3m9LSoU90n9nWd0Go31Wt9pZfVa39ugJps/qvjD67zOra3fDJ6sGn5wen3p8eif49B1mdRs35Pqsbp/VVTp62Oqz
        uv+FrC56Yhg40Ip+1H7D9+RrnITU+ISTjbZ8jNYnIcZ5Suu6HTeBXolcXv/7aA0s1JPL+yYXaSpL8Ej6zXuhmzi3QO9k2lfw3pGnUwXMkWfdhEEiBRIh8SnfT4Lq8ATV
        01eoafS9LJ0qRMuV0pswAF2pVUe9AWKaWkpkAr25UtR8O3qr5lObvvH4dvnUYQutej7VA+qB472qPiK5uOnlcjKdaslXKtBsenf0MN3DdBeYho7TEqaL90OxdWlO0Fwl
        91oeZd7T5Yt+xxk7Yja0UjpBzrHddhbcmqxwSwugqwUHdbVgzzpaqC+FcFyb2zafZ7FVFyCXX7+SNTv+ffE4vPWzYfl8wbG3Ovrpy6K8Aa+Zf08Wxa+fQXl9efg1NAl4
        FWSzwrfZSK3OmAmhhF2RKNV8Wt7O8qbKHxWNkQcuWfG/aUI22iefUb7IwezuXDfGu13gr/NfZFOjsMDXSf6Oxmm04SV5pdSQ2Df2C7BxsiPbrR9TQ6hpgPl8tXs2+R+5
        Alu5EuLfEbt78uELnwipQXkoom2As01942adEMyIscThLiDUuCw/0eZ+dl1UMD04WtZBs1scdve83SODB/HibGSUP52/OPsbLrUhNw==
        AAAQAAAA
      >
      FLOATPOS 275 269 871 509
      FXID {C804D762-B992-A540-81BF-3D6C0F7FF19B}
      WAK 0
    >
  >
  <TRACK {2BB5EACD-C1BC-284E-92F6-33B7023B768F}
    NAME "ch1,3 (send)"
    PEAKCOL 16576
    BEAT -1
    AUTOMODE 0
    VOLPAN 0.96450352403557 0 -1 -1 1
    MUTESOLO 0 0 0
    IPHASE 0
    ISBUS 0 0
    BUSCOMP 0 0
    SHOWINMIX 1 0.6667 0.5 1 0.5 0 0 0
    FREEMODE 0
    SEL 0
    REC 0 0 0 0 0 0 0
    VU 2
    MIDICTL -1 1
    TRACKHEIGHT 0 0
    INQ 0 0 0 0.5 100 0 0 100
    NCHAN 2
    FX 1
    TRACKID {2BB5EACD-C1BC-284E-92F6-33B7023B768F}
    PERF 0
    MIDIOUT -1
    MAINSEND 1 0
    <FXCHAIN
      SHOW 0
      LASTSEL 0
      DOCKED 0
    >
    <ITEM
      POSITION 0
      SNAPOFFS 0
      LENGTH 36
      LOOP 1
      ALLTAKES 0
      FADEIN 1 0 0 1 0 0
      FADEOUT 1 0 0 1 0 0
      MUTE 0
      SEL 0
      YPOS 0.75 0.25
      IGUID {C88CF961-B2D3-CF4F-BEB7-5030610CFF10}
      IID 3
      NAME "L.H.                 - National_Anthems_-_Cyprus.mid"
      VOLPAN 1 0 1 -1
      SOFFS 1 2
      PLAYRATE 1 1 0 -1 0 0.0025
      CHANMODE 0
      TAKECOLOR 26173599 B
      GUID {B8E7D98A-FBF7-8043-A489-039902547A6B}
      <SOURCE MIDI
        HASDATA 1 192 QN
        POOLEDEVTS {6ADC231D-6537-8045-AD39-FEBEEF259038}
        <X 0 0 0 0 3 "L.H.                "
          /wNMLkguICAgICAgICAgICAgICAgIA==
        >
        E 576 92 35 64
        E 0 92 29 64
        E 80 82 35 40
        E 0 82 29 40
        E 16 92 3c 64
        E 0 92 39 64
        E 0 92 35 64
        E 32 82 3c 40
        E 0 82 39 40
        E 0 82 35 40
        E 16 92 39 64
        E 0 92 3c 64
        E 0 92 35 64
        E 32 82 39 40
        E 0 82 3c 40
        E 0 82 35 40
        E 16 92 35 64
        E 0 92 3c 64
        E 0 92 39 64
        E 80 82 35 40
        E 0 82 3c 40
        E 0 82 39 40
        E 16 92 3c 64
        E 0 92 35 64
        E 0 92 39 64
        E 80 82 3c 40
        E 0 82 35 40
        E 0 82 39 40
        E 16 92 35 64
        E 0 92 3c 64
        E 0 92 39 64
        E 80 82 35 40
        E 0 82 3c 40
        E 0 82 39 40
        E 16 92 3c 64
        E 0 92 35 64
        E 0 92 39 64
        E 80 82 3c 40
        E 0 82 35 40
        E 0 82 39 40
        E 16 92 29 64
        E 80 82 29 40
        E 16 92 35 64
        E 0 92 3c 64
        E 0 92 39 64
        E 32 82 35 40
        E 0 82 3c 40
        E 0 82 39 40
        E 16 92 3c 64
        E 0 92 39 64
        E 0 92 35 64
        E 32 82 3c 40
        E 0 82 39 40
        E 0 82 35 40
        E 16 92 3c 64
        E 0 92 35 64
        E 0 92 39 64
        E 80 82 3c 40
        E 0 82 35 40
        E 0 82 39 40
        E 16 92 35 64
        E 0 92 39 64
        E 0 92 3c 64
        E 80 82 35 40
        E 0 82 39 40
        E 0 82 3c 40
        E 16 92 39 64
        E 0 92 3c 64
        E 0 92 35 64
        E 80 82 39 40
        E 0 82 3c 40
        E 0 82 35 40
        E 16 92 39 64
        E 0 92 3c 64
        E 0 92 35 64
        E 80 82 39 40
        E 0 82 3c 40
        E 0 82 35 40
        E 16 92 2e 64
        E 80 82 2e 40
        E 16 92 3a 64
        E 0 92 37 64
        E 0 92 32 64
        E 32 82 3a 40
        E 0 82 37 40
        E 0 82 32 40
        E 16 92 32 64
        E 0 92 37 64
        E 0 92 3a 64
        E 32 82 32 40
        E 0 82 37 40
        E 0 82 3a 40
        E 16 92 37 64
        E 0 92 3a 64
        E 0 92 32 64
        E 80 82 37 40
        E 0 82 3a 40
        E 0 82 32 40
        E 16 92 3a 64
        E 0 92 32 64
        E 0 92 37 64
        E 80 82 3a 40
        E 0 82 32 40
        E 0 82 37 40
        E 16 92 24 64
        E 0 92 30 64
        E 80 82 24 40
        E 0 82 30 40
        E 16 92 3c 64
        E 0 92 34 64
        E 80 82 3c 40
        E 0 82 34 40
        E 16 92 29 64
        E 80 82 29 40
        E 16 92 3c 64
        E 0 92 35 64
        E 0 92 39 64
        E 32 82 3c 40
        E 0 82 35 40
        E 0 82 39 40
        E 16 92 35 64
        E 0 92 39 64
        E 0 92 3c 64
        E 32 82 35 40
        E 0 82 39 40
        E 0 82 3c 40
        E 16 92 3c 64
        E 0 92 35 64
        E 0 92 39 64
        E 80 82 3c 40
        E 0 82 35 40
        E 0 82 39 40
        E 16 92 39 64
        E 0 92 35 64
        E 0 92 3c 64
        E 80 82 39 40
        E 0 82 35 40
        E 0 82 3c 40
        E 208 92 24 64
        E 0 92 30 64
        E 80 82 24 40
        E 0 82 30 40
        E 16 92 3c 64
        E 0 92 3a 64
        E 0 92 34 64
        E 0 92 37 64
        E 32 82 3c 40
        E 0 82 3a 40
        E 0 82 34 40
        E 0 82 37 40
        E 16 92 3a 64
        E 0 92 34 64
        E 0 92 3c 64
        E 0 92 37 64
        E 32 82 3a 40
        E 0 82 34 40
        E 0 82 3c 40
        E 0 82 37 40
        E 16 92 34 64
        E 0 92 3c 64
        E 0 92 3a 64
        E 0 92 37 64
        E 80 82 34 40
        E 0 82 3c 40
        E 0 82 3a 40
        E 0 82 37 40
        E 16 92 34 64
        E 0 92 3a 64
        E 0 92 3c 64
        E 0 92 37 64
        E 80 82 34 40
        E 0 82 3a 40
        E 0 82 3c 40
        E 0 82 37 40
        E 16 92 3a 64
        E 0 92 34 64
        E 0 92 3c 64
        E 0 92 37 64
        E 80 82 3a 40
        E 0 82 34 40
        E 0 82 3c 40
        E 0 82 37 40
        E 16 92 3a 64
        E 0 92 34 64
        E 0 92 3c 64
        E 0 92 37 64
        E 80 82 3a 40
        E 0 82 34 40
        E 0 82 3c 40
        E 0 82 37 40
        E 16 92 30 64
        E 0 92 24 64
        E 80 82 30 40
        E 0 82 24 40
        E 16 92 34 64
        E 0 92 3a 64
        E 0 92 3c 64
        E 0 92 37 64
        E 32 82 34 40
        E 0 82 3a 40
        E 0 82 3c 40
        E 0 82 37 40
        E 16 92 3a 64
        E 0 92 34 64
        E 0 92 37 64
        E 0 92 3c 64
        E 32 82 3a 40
        E 0 82 34 40
        E 0 82 37 40
        E 0 82 3c 40
        E 16 92 3a 64
        E 0 92 34 64
        E 0 92 37 64
        E 0 92 3c 64
        E 80 82 3a 40
        E 0 82 34 40
        E 0 82 37 40
        E 0 82 3c 40
        E 16 92 34 64
        E 0 92 3a 64
        E 0 92 37 64
        E 0 92 3c 64
        E 80 82 34 40
        E 0 82 3a 40
        E 0 82 37 40
        E 0 82 3c 40
        E 16 92 3a 64
        E 0 92 34 64
        E 0 92 3c 64
        E 0 92 37 64
        E 80 82 3a 40
        E 0 82 34 40
        E 0 82 3c 40
        E 0 82 37 40
        E 16 92 3a 64
        E 0 92 34 64
        E 0 92 3c 64
        E 0 92 37 64
        E 80 82 3a 40
        E 0 82 34 40
        E 0 82 3c 40
        E 0 82 37 40
        E 16 92 24 64
        E 0 92 30 64
        E 80 82 24 40
        E 0 82 30 40
        E 16 92 3a 64
        E 0 92 34 64
        E 0 92 3c 64
        E 0 92 37 64
        E 32 82 3a 40
        E 0 82 34 40
        E 0 82 3c 40
        E 0 82 37 40
        E 16 92 34 64
        E 0 92 3a 64
        E 0 92 37 64
        E 0 92 3c 64
        E 32 82 34 40
        E 0 82 3a 40
        E 0 82 37 40
        E 0 82 3c 40
        E 16 92 3a 64
        E 0 92 34 64
        E 0 92 3c 64
        E 0 92 37 64
        E 80 82 3a 40
        E 0 82 34 40
        E 0 82 3c 40
        E 0 82 37 40
        E 16 92 3a 64
        E 0 92 34 64
        E 0 92 37 64
        E 0 92 3c 64
        E 80 82 3a 40
        E 0 82 34 40
        E 0 82 37 40
        E 0 82 3c 40
        E 16 92 3a 64
        E 0 92 3c 64
        E 0 92 34 64
        E 0 92 37 64
        E 80 82 3a 40
        E 0 82 3c 40
        E 0 82 34 40
        E 0 82 37 40
        E 16 92 3a 64
        E 0 92 34 64
        E 0 92 3c 64
        E 0 92 37 64
        E 80 82 3a 40
        E 0 82 34 40
        E 0 82 3c 40
        E 0 82 37 40
        E 16 92 29 64
        E 80 82 29 40
        E 16 92 35 64
        E 0 92 3c 64
        E 0 92 39 64
        E 32 82 35 40
        E 0 82 3c 40
        E 0 82 39 40
        E 16 92 35 64
        E 0 92 39 64
        E 0 92 3c 64
        E 32 82 35 40
        E 0 82 39 40
        E 0 82 3c 40
        E 16 92 39 64
        E 0 92 35 64
        E 0 92 3c 64
        E 176 82 39 40
        E 0 82 35 40
        E 0 82 3c 40
        E 208 92 26 64
        E 80 82 26 40
        E 16 92 32 64
        E 0 92 39 64
        E 0 92 35 64
        E 32 82 32 40
        E 0 82 39 40
        E 0 82 35 40
        E 16 92 32 64
        E 0 92 35 64
        E 0 92 39 64
        E 32 82 32 40
        E 0 82 35 40
        E 0 82 39 40
        E 16 92 32 64
        E 0 92 35 64
        E 0 92 39 64
        E 80 82 32 40
        E 0 82 35 40
        E 0 82 39 40
        E 16 92 32 64
        E 0 92 35 64
        E 0 92 39 64
        E 80 82 32 40
        E 0 82 35 40
        E 0 82 39 40
        E 16 92 2d 64
        E 80 82 2d 40
        E 16 92 39 64
        E 0 92 34 64
        E 0 92 37 64
        E 80 82 39 40
        E 0 82 34 40
        E 0 82 37 40
        E 16 92 26 64
        E 80 82 26 40
        E 16 92 32 64
        E 0 92 39 64
        E 0 92 35 64
        E 32 82 32 40
        E 0 82 39 40
        E 0 82 35 40
        E 16 92 32 64
        E 0 92 39 64
        E 0 92 35 64
        E 32 82 32 40
        E 0 82 39 40
        E 0 82 35 40
        E 16 92 32 64
        E 0 92 35 64
        E 0 92 39 64
        E 80 82 32 40
        E 0 82 35 40
        E 0 82 39 40
        E 16 92 32 64
        E 0 92 35 64
        E 0 92 39 64
        E 80 82 32 40
        E 0 82 35 40
        E 0 82 39 40
        E 16 92 32 64
        E 0 92 35 64
        E 0 92 39 64
        E 80 82 32 40
        E 0 82 35 40
        E 0 82 39 40
        E 16 92 32 64
        E 0 92 35 64
        E 0 92 39 64
        E 80 82 32 40
        E 0 82 35 40
        E 0 82 39 40
        E 16 92 26 64
        E 80 82 26 40
        E 16 92 32 64
        E 0 92 39 64
        E 0 92 35 64
        E 32 82 32 40
        E 0 82 39 40
        E 0 82 35 40
        E 16 92 32 64
        E 0 92 39 64
        E 0 92 35 64
        E 32 82 32 40
        E 0 82 39 40
        E 0 82 35 40
        E 16 92 32 64
        E 0 92 39 64
        E 0 92 35 64
        E 80 82 32 40
        E 0 82 39 40
        E 0 82 35 40
        E 16 92 35 64
        E 0 92 32 64
        E 0 92 39 64
        E 80 82 35 40
        E 0 82 32 40
        E 0 82 39 40
        E 16 92 2d 64
        E 80 82 2d 40
        E 16 92 34 64
        E 0 92 39 64
        E 0 92 37 64
        E 80 82 34 40
        E 0 82 39 40
        E 0 82 37 40
        E 16 92 26 64
        E 80 82 26 40
        E 16 92 39 64
        E 0 92 32 64
        E 0 92 35 64
        E 32 82 39 40
        E 0 82 32 40
        E 0 82 35 40
        E 16 92 35 64
        E 0 92 32 64
        E 0 92 39 64
        E 32 82 35 40
        E 0 82 32 40
        E 0 82 39 40
        E 16 92 39 64
        E 0 92 32 64
        E 0 92 35 64
        E 80 82 39 40
        E 0 82 32 40
        E 0 82 35 40
        E 304 92 3a 64
        E 0 92 34 64
        E 80 82 3a 40
        E 0 82 34 40
        E 112 92 30 64
        E 0 92 3a 64
        E 0 92 34 64
        E 80 82 30 40
        E 0 82 3a 40
        E 0 82 34 40
        E 16 92 30 64
        E 80 82 30 40
        E 16 92 3a 64
        E 0 92 34 64
        E 80 82 3a 40
        E 0 82 34 40
        E 16 92 30 64
        E 80 82 30 40
        E 16 92 39 64
        E 0 92 35 64
        E 80 82 39 40
        E 0 82 35 40
        E 16 92 30 64
        E 80 82 30 40
        E 16 92 35 64
        E 0 92 39 64
        E 80 82 35 40
        E 0 82 39 40
        E 16 92 30 64
        E 80 82 30 40
        E 16 92 35 64
        E 0 92 39 64
        E 80 82 35 40
        E 0 82 39 40
        E 16 92 30 64
        E 80 82 30 40
        E 16 92 3a 64
        E 0 92 34 64
        E 80 82 3a 40
        E 0 82 34 40
        E 16 92 30 64
        E 80 82 30 40
        E 16 92 3a 64
        E 0 92 34 64
        E 80 82 3a 40
        E 0 82 34 40
        E 16 92 30 64
        E 80 82 30 40
        E 16 92 3a 64
        E 0 92 34 64
        E 80 82 3a 40
        E 0 82 34 40
        E 16 92 30 64
        E 80 82 30 40
        E 16 92 29 64
        E 80 82 29 40
        E 16 92 30 64
        E 0 92 39 64
        E 0 92 35 64
        E 32 82 30 40
        E 0 82 39 40
        E 0 82 35 40
        E 16 92 30 64
        E 0 92 39 64
        E 0 92 35 64
        E 32 82 30 40
        E 0 82 39 40
        E 0 82 35 40
        E 16 92 30 64
        E 0 92 39 64
        E 0 92 35 64
        E 80 82 30 40
        E 0 82 39 40
        E 0 82 35 40
        E 304 92 2e 64
        E 80 82 2e 40
        E 16 92 3a 64
        E 0 92 32 64
        E 0 92 35 64
        E 32 82 3a 40
        E 0 82 32 40
        E 0 82 35 40
        E 16 92 3a 64
        E 0 92 32 64
        E 0 92 35 64
        E 32 82 3a 40
        E 0 82 32 40
        E 0 82 35 40
        E 16 92 3a 64
        E 0 92 32 64
        E 0 92 35 64
        E 80 82 3a 40
        E 0 82 32 40
        E 0 82 35 40
        E 16 92 3a 64
        E 0 92 32 64
        E 0 92 35 64
        E 80 82 3a 40
        E 0 82 32 40
        E 0 82 35 40
        E 16 92 26 64
        E 80 82 26 40
        E 16 92 36 64
        E 0 92 39 64
        E 0 92 32 64
        E 80 82 36 40
        E 0 82 39 40
        E 0 82 32 40
        E 16 92 2b 64
        E 80 82 2b 40
        E 16 92 32 64
        E 0 92 2e 64
        E 0 92 37 64
        E 32 82 32 40
        E 0 82 2e 40
        E 0 82 37 40
        E 16 92 37 64
        E 0 92 2e 64
        E 0 92 32 64
        E 32 82 37 40
        E 0 82 2e 40
        E 0 82 32 40
        E 16 92 32 64
        E 0 92 2e 64
        E 0 92 37 64
        E 80 82 32 40
        E 0 82 2e 40
        E 0 82 37 40
        E 16 92 32 64
        E 0 92 37 64
        E 0 92 2e 64
        E 80 82 32 40
        E 0 82 37 40
        E 0 82 2e 40
        E 16 92 2e 64
        E 80 82 2e 40
        E 16 92 37 64
        E 0 92 32 64
        E 80 82 37 40
        E 0 82 32 40
        E 16 92 30 64
        E 80 82 30 40
        E 16 92 35 64
        E 0 92 39 64
        E 32 82 35 40
        E 0 82 39 40
        E 16 92 35 64
        E 0 92 39 64
        E 32 82 35 40
        E 0 82 39 40
        E 16 92 39 64
        E 0 92 35 64
        E 80 82 39 40
        E 0 82 35 40
        E 16 92 35 64
        E 0 92 39 64
        E 80 82 35 40
        E 0 82 39 40
        E 16 92 30 64
        E 80 82 30 40
        E 16 92 3a 64
        E 0 92 34 64
        E 0 92 37 64
        E 80 82 3a 40
        E 0 82 34 40
        E 0 82 37 40
        E 16 92 29 64
        E 80 82 29 40
        E 16 92 30 64
        E 0 92 35 64
        E 0 92 39 64
        E 32 82 30 40
        E 0 82 35 40
        E 0 82 39 40
        E 16 92 30 64
        E 0 92 35 64
        E 0 92 39 64
        E 32 82 30 40
        E 0 82 35 40
        E 0 82 39 40
        E 16 92 30 64
        E 0 92 35 64
        E 0 92 39 64
        E 80 82 30 40
        E 0 82 35 40
        E 0 82 39 40
        E 16 92 30 64
        E 0 92 35 64
        E 0 92 39 64
        E 80 82 30 40
        E 0 82 35 40
        E 0 82 39 40
        E 16 92 30 64
        E 0 92 35 64
        E 0 92 39 64
        E 80 82 30 40
        E 0 82 35 40
        E 0 82 39 40
        E 16 92 30 64
        E 0 92 39 64
        E 0 92 35 64
        E 80 82 30 40
        E 0 82 39 40
        E 0 82 35 40
        E 16 92 2e 64
        E 80 82 2e 40
        E 16 92 3a 64
        E 0 92 32 64
        E 0 92 35 64
        E 32 82 3a 40
        E 0 82 32 40
        E 0 82 35 40
        E 16 92 32 64
        E 0 92 3a 64
        E 0 92 35 64
        E 32 82 32 40
        E 0 82 3a 40
        E 0 82 35 40
        E 16 92 32 64
        E 0 92 3a 64
        E 0 92 35 64
        E 80 82 32 40
        E 0 82 3a 40
        E 0 82 35 40
        E 16 92 32 64
        E 0 92 3a 64
        E 0 92 35 64
        E 80 82 32 40
        E 0 82 3a 40
        E 0 82 35 40
        E 16 92 26 64
        E 80 82 26 40
        E 16 92 39 64
        E 0 92 36 64
        E 0 92 32 64
        E 80 82 39 40
        E 0 82 36 40
        E 0 82 32 40
        E 16 92 2b 64
        E 80 82 2b 40
        E 16 92 2e 64
        E 0 92 37 64
        E 0 92 32 64
        E 32 82 2e 40
        E 0 82 37 40
        E 0 82 32 40
        E 16 92 32 64
        E 0 92 2e 64
        E 0 92 37 64
        E 32 82 32 40
        E 0 82 2e 40
        E 0 82 37 40
        E 16 92 2e 64
        E 0 92 37 64
        E 0 92 32 64
        E 80 82 2e 40
        E 0 82 37 40
        E 0 82 32 40
        E 16 92 2e 64
        E 0 92 37 64
        E 0 92 32 64
        E 80 82 2e 40
        E 0 82 37 40
        E 0 82 32 40
        E 16 92 2e 64
        E 80 82 2e 40
        E 16 92 37 64
        E 0 92 32 64
        E 80 82 37 40
        E 0 82 32 40
        E 16 92 30 64
        E 80 82 30 40
        E 16 92 35 64
        E 0 92 39 64
        E 32 82 35 40
        E 0 82 39 40
        E 16 92 35 64
        E 0 92 39 64
        E 32 82 35 40
        E 0 82 39 40
        E 16 92 35 64
        E 0 92 39 64
        E 80 82 35 40
        E 0 82 39 40
        E 16 92 35 64
        E 0 92 39 64
        E 80 82 35 40
        E 0 82 39 40
        E 16 92 30 64
        E 80 82 30 40
        E 16 92 3a 64
        E 0 92 37 64
        E 80 82 3a 40
        E 0 82 37 40
        E 16 92 35 64
        E 0 92 39 64
        E 176 82 35 40
        E 0 82 39 40
        E 16 92 29 64
        E 0 92 35 64
        E 80 82 29 40
        E 0 82 35 40
        E 112 b0 7b 00
        GUID {E1646D04-DB3C-D348-8FD9-EEAE54FB9607}
        IGNTEMPO 0 120 4 4
        SRCCOLOR 630
        VELLANE -1 86 6
      >
      TAKE
      NAME "L.H.                 - National_Anthems_-_Cyprus.mid"
      TAKEVOLPAN 0 1 -1
      SOFFS 1 2
      PLAYRATE 1 1 0 -1 0 0.0025
      CHANMODE 0
      GUID {A913D01F-D081-9741-A5F4-09E4284CA7FE}
      <SOURCE MIDI
        HASDATA 1 192 QN
        POOLEDEVTS {325251B5-3179-C847-B222-80F9C279C28D}
        <X 0 0 0 0 3 "L.H.                "
          /wNMLkguICAgICAgICAgICAgICAgIA==
        >
        E 576 92 35 64
        E 0 92 29 64
        E 80 82 35 40
        E 0 82 29 40
        E 16 92 3c 64
        E 0 92 39 64
        E 0 92 35 64
        E 32 82 3c 40
        E 0 82 39 40
        E 0 82 35 40
        E 16 92 39 64
        E 0 92 3c 64
        E 0 92 35 64
        E 32 82 39 40
        E 0 82 3c 40
        E 0 82 35 40
        E 16 92 35 64
        E 0 92 3c 64
        E 0 92 39 64
        E 80 82 35 40
        E 0 82 3c 40
        E 0 82 39 40
        E 16 92 3c 64
        E 0 92 35 64
        E 0 92 39 64
        E 80 82 3c 40
        E 0 82 35 40
        E 0 82 39 40
        E 16 92 35 64
        E 0 92 3c 64
        E 0 92 39 64
        E 80 82 35 40
        E 0 82 3c 40
        E 0 82 39 40
        E 16 92 3c 64
        E 0 92 35 64
        E 0 92 39 64
        E 80 82 3c 40
        E 0 82 35 40
        E 0 82 39 40
        E 16 92 29 64
        E 80 82 29 40
        E 16 92 35 64
        E 0 92 3c 64
        E 0 92 39 64
        E 32 82 35 40
        E 0 82 3c 40
        E 0 82 39 40
        E 16 92 3c 64
        E 0 92 39 64
        E 0 92 35 64
        E 32 82 3c 40
        E 0 82 39 40
        E 0 82 35 40
        E 16 92 3c 64
        E 0 92 35 64
        E 0 92 39 64
        E 80 82 3c 40
        E 0 82 35 40
        E 0 82 39 40
        E 16 92 35 64
        E 0 92 39 64
        E 0 92 3c 64
        E 80 82 35 40
        E 0 82 39 40
        E 0 82 3c 40
        E 16 92 39 64
        E 0 92 3c 64
        E 0 92 35 64
        E 80 82 39 40
        E 0 82 3c 40
        E 0 82 35 40
        E 16 92 39 64
        E 0 92 3c 64
        E 0 92 35 64
        E 80 82 39 40
        E 0 82 3c 40
        E 0 82 35 40
        E 16 92 2e 64
        E 80 82 2e 40
        E 16 92 3a 64
        E 0 92 37 64
        E 0 92 32 64
        E 32 82 3a 40
        E 0 82 37 40
        E 0 82 32 40
        E 16 92 32 64
        E 0 92 37 64
        E 0 92 3a 64
        E 32 82 32 40
        E 0 82 37 40
        E 0 82 3a 40
        E 16 92 37 64
        E 0 92 3a 64
        E 0 92 32 64
        E 80 82 37 40
        E 0 82 3a 40
        E 0 82 32 40
        E 16 92 3a 64
        E 0 92 32 64
        E 0 92 37 64
        E 80 82 3a 40
        E 0 82 32 40
        E 0 82 37 40
        E 16 92 24 64
        E 0 92 30 64
        E 80 82 24 40
        E 0 82 30 40
        E 16 92 3c 64
        E 0 92 34 64
        E 80 82 3c 40
        E 0 82 34 40
        E 16 92 29 64
        E 80 82 29 40
        E 16 92 3c 64
        E 0 92 35 64
        E 0 92 39 64
        E 32 82 3c 40
        E 0 82 35 40
        E 0 82 39 40
        E 16 92 35 64
        E 0 92 39 64
        E 0 92 3c 64
        E 32 82 35 40
        E 0 82 39 40
        E 0 82 3c 40
        E 16 92 3c 64
        E 0 92 35 64
        E 0 92 39 64
        E 80 82 3c 40
        E 0 82 35 40
        E 0 82 39 40
        E 16 92 39 64
        E 0 92 35 64
        E 0 92 3c 64
        E 80 82 39 40
        E 0 82 35 40
        E 0 82 3c 40
        E 208 92 24 64
        E 0 92 30 64
        E 80 82 24 40
        E 0 82 30 40
        E 16 92 3c 64
        E 0 92 3a 64
        E 0 92 34 64
        E 0 92 37 64
        E 32 82 3c 40
        E 0 82 3a 40
        E 0 82 34 40
        E 0 82 37 40
        E 16 92 3a 64
        E 0 92 34 64
        E 0 92 3c 64
        E 0 92 37 64
        E 32 82 3a 40
        E 0 82 34 40
        E 0 82 3c 40
        E 0 82 37 40
        E 16 92 34 64
        E 0 92 3c 64
        E 0 92 3a 64
        E 0 92 37 64
        E 80 82 34 40
        E 0 82 3c 40
        E 0 82 3a 40
        E 0 82 37 40
        E 16 92 34 64
        E 0 92 3a 64
        E 0 92 3c 64
        E 0 92 37 64
        E 80 82 34 40
        E 0 82 3a 40
        E 0 82 3c 40
        E 0 82 37 40
        E 16 92 3a 64
        E 0 92 34 64
        E 0 92 3c 64
        E 0 92 37 64
        E 80 82 3a 40
        E 0 82 34 40
        E 0 82 3c 40
        E 0 82 37 40
        E 16 92 3a 64
        E 0 92 34 64
        E 0 92 3c 64
        E 0 92 37 64
        E 80 82 3a 40
        E 0 82 34 40
        E 0 82 3c 40
        E 0 82 37 40
        E 16 92 30 64
        E 0 92 24 64
        E 80 82 30 40
        E 0 82 24 40
        E 16 92 34 64
        E 0 92 3a 64
        E 0 92 3c 64
        E 0 92 37 64
        E 32 82 34 40
        E 0 82 3a 40
        E 0 82 3c 40
        E 0 82 37 40
        E 16 92 3a 64
        E 0 92 34 64
        E 0 92 37 64
        E 0 92 3c 64
        E 32 82 3a 40
        E 0 82 34 40
        E 0 82 37 40
        E 0 82 3c 40
        E 16 92 3a 64
        E 0 92 34 64
        E 0 92 37 64
        E 0 92 3c 64
        E 80 82 3a 40
        E 0 82 34 40
        E 0 82 37 40
        E 0 82 3c 40
        E 16 92 34 64
        E 0 92 3a 64
        E 0 92 37 64
        E 0 92 3c 64
        E 80 82 34 40
        E 0 82 3a 40
        E 0 82 37 40
        E 0 82 3c 40
        E 16 92 3a 64
        E 0 92 34 64
        E 0 92 3c 64
        E 0 92 37 64
        E 80 82 3a 40
        E 0 82 34 40
        E 0 82 3c 40
        E 0 82 37 40
        E 16 92 3a 64
        E 0 92 34 64
        E 0 92 3c 64
        E 0 92 37 64
        E 80 82 3a 40
        E 0 82 34 40
        E 0 82 3c 40
        E 0 82 37 40
        E 16 92 24 64
        E 0 92 30 64
        E 80 82 24 40
        E 0 82 30 40
        E 16 92 3a 64
        E 0 92 34 64
        E 0 92 3c 64
        E 0 92 37 64
        E 32 82 3a 40
        E 0 82 34 40
        E 0 82 3c 40
        E 0 82 37 40
        E 16 92 34 64
        E 0 92 3a 64
        E 0 92 37 64
        E 0 92 3c 64
        E 32 82 34 40
        E 0 82 3a 40
        E 0 82 37 40
        E 0 82 3c 40
        E 16 92 3a 64
        E 0 92 34 64
        E 0 92 3c 64
        E 0 92 37 64
        E 80 82 3a 40
        E 0 82 34 40
        E 0 82 3c 40
        E 0 82 37 40
        E 16 92 3a 64
        E 0 92 34 64
        E 0 92 37 64
        E 0 92 3c 64
        E 80 82 3a 40
        E 0 82 34 40
        E 0 82 37 40
        E 0 82 3c 40
        E 16 92 3a 64
        E 0 92 3c 64
        E 0 92 34 64
        E 0 92 37 64
        E 80 82 3a 40
        E 0 82 3c 40
        E 0 82 34 40
        E 0 82 37 40
        E 16 92 3a 64
        E 0 92 34 64
        E 0 92 3c 64
        E 0 92 37 64
        E 80 82 3a 40
        E 0 82 34 40
        E 0 82 3c 40
        E 0 82 37 40
        E 16 92 29 64
        E 80 82 29 40
        E 16 92 35 64
        E 0 92 3c 64
        E 0 92 39 64
        E 32 82 35 40
        E 0 82 3c 40
        E 0 82 39 40
        E 16 92 35 64
        E 0 92 39 64
        E 0 92 3c 64
        E 32 82 35 40
        E 0 82 39 40
        E 0 82 3c 40
        E 16 92 39 64
        E 0 92 35 64
        E 0 92 3c 64
        E 176 82 39 40
        E 0 82 35 40
        E 0 82 3c 40
        E 208 92 26 64
        E 80 82 26 40
        E 16 92 32 64
        E 0 92 39 64
        E 0 92 35 64
        E 32 82 32 40
        E 0 82 39 40
        E 0 82 35 40
        E 16 92 32 64
        E 0 92 35 64
        E 0 92 39 64
        E 32 82 32 40
        E 0 82 35 40
        E 0 82 39 40
        E 16 92 32 64
        E 0 92 35 64
        E 0 92 39 64
        E 80 82 32 40
        E 0 82 35 40
        E 0 82 39 40
        E 16 92 32 64
        E 0 92 35 64
        E 0 92 39 64
        E 80 82 32 40
        E 0 82 35 40
        E 0 82 39 40
        E 16 92 2d 64
        E 80 82 2d 40
        E 16 92 39 64
        E 0 92 34 64
        E 0 92 37 64
        E 80 82 39 40
        E 0 82 34 40
        E 0 82 37 40
        E 16 92 26 64
        E 80 82 26 40
        E 16 92 32 64
        E 0 92 39 64
        E 0 92 35 64
        E 32 82 32 40
        E 0 82 39 40
        E 0 82 35 40
        E 16 92 32 64
        E 0 92 39 64
        E 0 92 35 64
        E 32 82 32 40
        E 0 82 39 40
        E 0 82 35 40
        E 16 92 32 64
        E 0 92 35 64
        E 0 92 39 64
        E 80 82 32 40
        E 0 82 35 40
        E 0 82 39 40
        E 16 92 32 64
        E 0 92 35 64
        E 0 92 39 64
        E 80 82 32 40
        E 0 82 35 40
        E 0 82 39 40
        E 16 92 32 64
        E 0 92 35 64
        E 0 92 39 64
        E 80 82 32 40
        E 0 82 35 40
        E 0 82 39 40
        E 16 92 32 64
        E 0 92 35 64
        E 0 92 39 64
        E 80 82 32 40
        E 0 82 35 40
        E 0 82 39 40
        E 16 92 26 64
        E 80 82 26 40
        E 16 92 32 64
        E 0 92 39 64
        E 0 92 35 64
        E 32 82 32 40
        E 0 82 39 40
        E 0 82 35 40
        E 16 92 32 64
        E 0 92 39 64
        E 0 92 35 64
        E 32 82 32 40
        E 0 82 39 40
        E 0 82 35 40
        E 16 92 32 64
        E 0 92 39 64
        E 0 92 35 64
        E 80 82 32 40
        E 0 82 39 40
        E 0 82 35 40
        E 16 92 35 64
        E 0 92 32 64
        E 0 92 39 64
        E 80 82 35 40
        E 0 82 32 40
        E 0 82 39 40
        E 16 92 2d 64
        E 80 82 2d 40
        E 16 92 34 64
        E 0 92 39 64
        E 0 92 37 64
        E 80 82 34 40
        E 0 82 39 40
        E 0 82 37 40
        E 16 92 26 64
        E 80 82 26 40
        E 16 92 39 64
        E 0 92 32 64
        E 0 92 35 64
        E 32 82 39 40
        E 0 82 32 40
        E 0 82 35 40
        E 16 92 35 64
        E 0 92 32 64
        E 0 92 39 64
        E 32 82 35 40
        E 0 82 32 40
        E 0 82 39 40
        E 16 92 39 64
        E 0 92 32 64
        E 0 92 35 64
        E 80 82 39 40
        E 0 82 32 40
        E 0 82 35 40
        E 304 92 3a 64
        E 0 92 34 64
        E 80 82 3a 40
        E 0 82 34 40
        E 112 92 30 64
        E 0 92 3a 64
        E 0 92 34 64
        E 80 82 30 40
        E 0 82 3a 40
        E 0 82 34 40
        E 16 92 30 64
        E 80 82 30 40
        E 16 92 3a 64
        E 0 92 34 64
        E 80 82 3a 40
        E 0 82 34 40
        E 16 92 30 64
        E 80 82 30 40
        E 16 92 39 64
        E 0 92 35 64
        E 80 82 39 40
        E 0 82 35 40
        E 16 92 30 64
        E 80 82 30 40
        E 16 92 35 64
        E 0 92 39 64
        E 80 82 35 40
        E 0 82 39 40
        E 16 92 30 64
        E 80 82 30 40
        E 16 92 35 64
        E 0 92 39 64
        E 80 82 35 40
        E 0 82 39 40
        E 16 92 30 64
        E 80 82 30 40
        E 16 92 3a 64
        E 0 92 34 64
        E 80 82 3a 40
        E 0 82 34 40
        E 16 92 30 64
        E 80 82 30 40
        E 16 92 3a 64
        E 0 92 34 64
        E 80 82 3a 40
        E 0 82 34 40
        E 16 92 30 64
        E 80 82 30 40
        E 16 92 3a 64
        E 0 92 34 64
        E 80 82 3a 40
        E 0 82 34 40
        E 16 92 30 64
        E 80 82 30 40
        E 16 92 29 64
        E 80 82 29 40
        E 16 92 30 64
        E 0 92 39 64
        E 0 92 35 64
        E 32 82 30 40
        E 0 82 39 40
        E 0 82 35 40
        E 16 92 30 64
        E 0 92 39 64
        E 0 92 35 64
        E 32 82 30 40
        E 0 82 39 40
        E 0 82 35 40
        E 16 92 30 64
        E 0 92 39 64
        E 0 92 35 64
        E 80 82 30 40
        E 0 82 39 40
        E 0 82 35 40
        E 304 92 2e 64
        E 80 82 2e 40
        E 16 92 3a 64
        E 0 92 32 64
        E 0 92 35 64
        E 32 82 3a 40
        E 0 82 32 40
        E 0 82 35 40
        E 16 92 3a 64
        E 0 92 32 64
        E 0 92 35 64
        E 32 82 3a 40
        E 0 82 32 40
        E 0 82 35 40
        E 16 92 3a 64
        E 0 92 32 64
        E 0 92 35 64
        E 80 82 3a 40
        E 0 82 32 40
        E 0 82 35 40
        E 16 92 3a 64
        E 0 92 32 64
        E 0 92 35 64
        E 80 82 3a 40
        E 0 82 32 40
        E 0 82 35 40
        E 16 92 26 64
        E 80 82 26 40
        E 16 92 36 64
        E 0 92 39 64
        E 0 92 32 64
        E 80 82 36 40
        E 0 82 39 40
        E 0 82 32 40
        E 16 92 2b 64
        E 80 82 2b 40
        E 16 92 32 64
        E 0 92 2e 64
        E 0 92 37 64
        E 32 82 32 40
        E 0 82 2e 40
        E 0 82 37 40
        E 16 92 37 64
        E 0 92 2e 64
        E 0 92 32 64
        E 32 82 37 40
        E 0 82 2e 40
        E 0 82 32 40
        E 16 92 32 64
        E 0 92 2e 64
        E 0 92 37 64
        E 80 82 32 40
        E 0 82 2e 40
        E 0 82 37 40
        E 16 92 32 64
        E 0 92 37 64
        E 0 92 2e 64
        E 80 82 32 40
        E 0 82 37 40
        E 0 82 2e 40
        E 16 92 2e 64
        E 80 82 2e 40
        E 16 92 37 64
        E 0 92 32 64
        E 80 82 37 40
        E 0 82 32 40
        E 16 92 30 64
        E 80 82 30 40
        E 16 92 35 64
        E 0 92 39 64
        E 32 82 35 40
        E 0 82 39 40
        E 16 92 35 64
        E 0 92 39 64
        E 32 82 35 40
        E 0 82 39 40
        E 16 92 39 64
        E 0 92 35 64
        E 80 82 39 40
        E 0 82 35 40
        E 16 92 35 64
        E 0 92 39 64
        E 80 82 35 40
        E 0 82 39 40
        E 16 92 30 64
        E 80 82 30 40
        E 16 92 3a 64
        E 0 92 34 64
        E 0 92 37 64
        E 80 82 3a 40
        E 0 82 34 40
        E 0 82 37 40
        E 16 92 29 64
        E 80 82 29 40
        E 16 92 30 64
        E 0 92 35 64
        E 0 92 39 64
        E 32 82 30 40
        E 0 82 35 40
        E 0 82 39 40
        E 16 92 30 64
        E 0 92 35 64
        E 0 92 39 64
        E 32 82 30 40
        E 0 82 35 40
        E 0 82 39 40
        E 16 92 30 64
        E 0 92 35 64
        E 0 92 39 64
        E 80 82 30 40
        E 0 82 35 40
        E 0 82 39 40
        E 16 92 30 64
        E 0 92 35 64
        E 0 92 39 64
        E 80 82 30 40
        E 0 82 35 40
        E 0 82 39 40
        E 16 92 30 64
        E 0 92 35 64
        E 0 92 39 64
        E 80 82 30 40
        E 0 82 35 40
        E 0 82 39 40
        E 16 92 30 64
        E 0 92 39 64
        E 0 92 35 64
        E 80 82 30 40
        E 0 82 39 40
        E 0 82 35 40
        E 16 92 2e 64
        E 80 82 2e 40
        E 16 92 3a 64
        E 0 92 32 64
        E 0 92 35 64
        E 32 82 3a 40
        E 0 82 32 40
        E 0 82 35 40
        E 16 92 32 64
        E 0 92 3a 64
        E 0 92 35 64
        E 32 82 32 40
        E 0 82 3a 40
        E 0 82 35 40
        E 16 92 32 64
        E 0 92 3a 64
        E 0 92 35 64
        E 80 82 32 40
        E 0 82 3a 40
        E 0 82 35 40
        E 16 92 32 64
        E 0 92 3a 64
        E 0 92 35 64
        E 80 82 32 40
        E 0 82 3a 40
        E 0 82 35 40
        E 16 92 26 64
        E 80 82 26 40
        E 16 92 39 64
        E 0 92 36 64
        E 0 92 32 64
        E 80 82 39 40
        E 0 82 36 40
        E 0 82 32 40
        E 16 92 2b 64
        E 80 82 2b 40
        E 16 92 2e 64
        E 0 92 37 64
        E 0 92 32 64
        E 32 82 2e 40
        E 0 82 37 40
        E 0 82 32 40
        E 16 92 32 64
        E 0 92 2e 64
        E 0 92 37 64
        E 32 82 32 40
        E 0 82 2e 40
        E 0 82 37 40
        E 16 92 2e 64
        E 0 92 37 64
        E 0 92 32 64
        E 80 82 2e 40
        E 0 82 37 40
        E 0 82 32 40
        E 16 92 2e 64
        E 0 92 37 64
        E 0 92 32 64
        E 80 82 2e 40
        E 0 82 37 40
        E 0 82 32 40
        E 16 92 2e 64
        E 80 82 2e 40
        E 16 92 37 64
        E 0 92 32 64
        E 80 82 37 40
        E 0 82 32 40
        E 16 92 30 64
        E 80 82 30 40
        E 16 92 35 64
        E 0 92 39 64
        E 32 82 35 40
        E 0 82 39 40
        E 16 92 35 64
        E 0 92 39 64
        E 32 82 35 40
        E 0 82 39 40
        E 16 92 35 64
        E 0 92 39 64
        E 80 82 35 40
        E 0 82 39 40
        E 16 92 35 64
        E 0 92 39 64
        E 80 82 35 40
        E 0 82 39 40
        E 16 92 30 64
        E 80 82 30 40
        E 16 92 3a 64
        E 0 92 37 64
        E 80 82 3a 40
        E 0 82 37 40
        E 16 92 35 64
        E 0 92 39 64
        E 176 82 35 40
        E 0 82 39 40
        E 16 92 29 64
        E 0 92 35 64
        E 80 82 29 40
        E 0 82 35 40
        E 112 b0 7b 00
        GUID {3D1A3879-5EC1-F541-A48D-A174F8CFADBC}
        IGNTEMPO 0 120 4 4
        SRCCOLOR 683
        VELLANE -1 108 6
      >
    >
  >
  <TRACK {3C494A2B-9670-9740-AD22-E42CC5065FE1}
    NAME "ch2,4 (send)"
    PEAKCOL 16576
    BEAT -1
    AUTOMODE 0
    VOLPAN 0.96450352403557 0 -1 -1 1
    MUTESOLO 0 0 0
    IPHASE 0
    ISBUS 0 0
    BUSCOMP 0 0
    SHOWINMIX 1 0.6667 0.5 1 0.5 0 0 0
    FREEMODE 0
    SEL 0
    REC 0 0 0 0 0 0 0
    VU 2
    MIDICTL -1 1
    TRACKHEIGHT 0 0
    INQ 0 0 0 0.5 100 0 0 100
    NCHAN 2
    FX 1
    TRACKID {3C494A2B-9670-9740-AD22-E42CC5065FE1}
    PERF 0
    MIDIOUT -1
    MAINSEND 1 0
    <FXCHAIN
      WNDRECT 32 359 724 387
      SHOW 0
      LASTSEL 0
      DOCKED 0
    >
    <ITEM
      POSITION 0
      SNAPOFFS 0
      LENGTH 36
      LOOP 1
      ALLTAKES 0
      FADEIN 1 0 0 1 0 0
      FADEOUT 1 0 0 1 0 0
      MUTE 0
      SEL 0
      YPOS 0.5 0.25
      IGUID {E26AABC4-46CF-9F46-8B78-6439157C92DA}
      IID 2
      NAME "R.H.                 - National_Anthems_-_Cyprus.mid"
      VOLPAN 1 0 1 -1
      SOFFS 1 2
      PLAYRATE 1 1 0 -1 0 0.0025
      CHANMODE 0
      TAKECOLOR 26173599 B
      GUID {58A6E3A9-3C3B-0C48-92EF-9B17D84E6BAF}
      <SOURCE MIDI
        HASDATA 1 192 QN
        POOLEDEVTS {B5C49110-3949-0142-8DAD-A7ADD536E615}
        <X 0 0 0 0 3 "R.H.                "
          /wNSLkguICAgICAgICAgICAgICAgIA==
        >
        e 384 91 41 64
        e 0 91 45 64
        e 128 81 41 40
        e 0 81 45 40
        e 16 91 46 64
        e 0 91 43 64
        e 32 81 46 40
        e 0 81 43 40
        e 16 91 45 64
        e 0 91 48 64
        e 320 81 45 40
        e 0 81 48 40
        e 16 91 46 64
        e 0 91 43 64
        e 32 81 46 40
        e 0 81 43 40
        e 16 91 45 64
        e 0 91 41 64
        e 128 81 45 40
        e 0 81 41 40
        e 16 91 46 64
        e 0 91 43 64
        e 32 81 46 40
        e 0 81 43 40
        e 16 91 48 64
        e 0 91 45 64
        e 176 81 48 40
        e 0 81 45 40
        e 16 91 45 64
        e 0 91 41 64
        e 80 81 45 40
        e 0 81 41 40
        e 112 91 46 64
        e 0 91 43 64
        e 128 81 46 40
        e 0 81 43 40
        e 16 91 45 64
        e 0 91 48 64
        e 32 81 45 40
        e 0 81 48 40
        e 16 91 4a 64
        e 0 91 46 64
        e 320 81 4a 40
        e 0 81 46 40
        e 16 91 46 64
        e 0 91 4a 64
        e 32 81 46 40
        e 0 81 4a 40
        e 16 91 48 64
        e 0 91 4c 64
        e 128 81 48 40
        e 0 81 4c 40
        e 16 91 48 64
        e 0 91 4c 64
        e 32 81 48 40
        e 0 81 4c 40
        e 16 91 4d 64
        e 0 91 45 64
        e 272 81 4d 40
        e 0 81 45 40
        e 112 91 40 64
        e 0 91 43 64
        e 128 81 40 40
        e 0 81 43 40
        e 16 91 45 64
        e 0 91 41 64
        e 32 81 45 40
        e 0 81 41 40
        e 16 91 46 64
        e 0 91 43 64
        e 320 81 46 40
        e 0 81 43 40
        e 16 91 45 64
        e 0 91 41 64
        e 32 81 45 40
        e 0 81 41 40
        e 16 91 43 64
        e 0 91 40 64
        e 128 81 43 40
        e 0 81 40 40
        e 16 91 41 64
        e 0 91 45 64
        e 32 81 41 40
        e 0 81 45 40
        e 16 91 46 64
        e 0 91 43 64
        e 176 81 46 40
        e 0 81 43 40
        e 16 91 40 64
        e 0 91 43 64
        e 80 81 40 40
        e 0 81 43 40
        e 112 91 48 64
        e 128 81 48 40
        e 16 91 48 64
        e 32 81 48 40
        e 16 91 4c 64
        e 0 91 48 64
        e 320 81 4c 40
        e 0 81 48 40
        e 16 91 4a 64
        e 0 91 46 64
        e 32 81 4a 40
        e 0 81 46 40
        e 16 91 45 64
        e 0 91 48 64
        e 128 81 45 40
        e 0 81 48 40
        e 16 91 46 64
        e 0 91 43 64
        e 32 81 46 40
        e 0 81 43 40
        e 16 91 41 64
        e 0 91 45 64
        e 272 81 41 40
        e 0 81 45 40
        e 112 91 45 64
        e 128 81 45 40
        e 16 91 45 64
        e 32 81 45 40
        e 16 91 41 64
        e 0 91 45 64
        e 0 91 4a 64
        e 320 81 4a 40
        e 16 91 4d 64
        e 32 81 41 40
        e 0 81 45 40
        e 0 81 4d 40
        e 16 91 45 64
        e 0 91 43 64
        e 0 91 4c 64
        e 128 81 4c 40
        e 16 91 49 64
        e 32 81 45 40
        e 0 81 43 40
        e 0 81 49 40
        e 16 91 45 64
        e 0 91 4a 64
        e 0 91 41 64
        e 176 81 45 40
        e 0 81 4a 40
        e 16 91 45 64
        e 80 81 45 40
        e 96 81 41 40
        e 16 91 45 64
        e 128 81 45 40
        e 16 91 45 64
        e 32 81 45 40
        e 16 91 45 64
        e 0 91 4a 64
        e 0 91 41 64
        e 320 81 4a 40
        e 16 91 4d 64
        e 32 81 45 40
        e 0 81 41 40
        e 0 81 4d 40
        e 16 91 45 64
        e 0 91 4c 64
        e 0 91 43 64
        e 128 81 4c 40
        e 16 91 49 64
        e 32 81 45 40
        e 0 81 43 40
        e 0 81 49 40
        e 16 91 45 64
        e 0 91 41 64
        e 0 91 4a 64
        e 272 81 45 40
        e 0 81 41 40
        e 0 81 4a 40
        e 112 91 48 64
        e 128 81 48 40
        e 16 91 48 64
        e 32 81 48 40
        e 16 91 48 64
        e 176 81 48 40
        e 16 91 4c 64
        e 0 91 46 64
        e 0 91 48 64
        e 176 81 4c 40
        e 0 81 46 40
        e 0 81 48 40
        e 16 91 48 64
        e 0 91 46 64
        e 128 81 48 40
        e 0 81 46 40
        e 16 91 46 64
        e 0 91 48 64
        e 32 81 46 40
        e 0 81 48 40
        e 16 91 45 64
        e 0 91 48 64
        e 176 81 45 40
        e 0 81 48 40
        e 16 91 4d 64
        e 0 91 48 64
        e 0 91 45 64
        e 176 81 4d 40
        e 0 81 48 40
        e 0 81 45 40
        e 16 91 45 64
        e 0 91 48 64
        e 128 81 45 40
        e 0 81 48 40
        e 16 91 48 64
        e 0 91 45 64
        e 32 81 48 40
        e 0 81 45 40
        e 16 91 48 64
        e 0 91 46 64
        e 176 81 48 40
        e 0 81 46 40
        e 16 91 46 64
        e 0 91 4c 64
        e 0 91 43 64
        e 80 81 46 40
        e 0 81 4c 40
        e 0 81 43 40
        e 64 91 48 64
        e 32 81 48 40
        e 16 91 4a 64
        e 128 81 4a 40
        e 16 91 4c 64
        e 32 81 4c 40
        e 16 91 45 64
        e 0 91 4d 64
        e 272 81 45 40
        e 0 81 4d 40
        e 112 91 45 64
        e 0 91 4d 64
        e 128 81 45 40
        e 0 81 4d 40
        e 16 91 4c 64
        e 0 91 48 64
        e 32 81 4c 40
        e 0 81 48 40
        e 16 91 48 64
        e 0 91 4c 64
        e 176 81 48 40
        e 0 81 4c 40
        e 16 91 46 64
        e 0 91 4a 64
        e 80 81 46 40
        e 0 81 4a 40
        e 112 91 46 64
        e 0 91 4a 64
        e 128 81 46 40
        e 0 81 4a 40
        e 16 91 48 64
        e 0 91 45 64
        e 32 81 48 40
        e 0 81 45 40
        e 16 91 45 64
        e 0 91 48 64
        e 176 81 45 40
        e 0 81 48 40
        e 16 91 46 64
        e 0 91 43 64
        e 80 81 46 40
        e 0 81 43 40
        e 112 91 46 64
        e 0 91 4a 64
        e 128 81 46 40
        e 0 81 4a 40
        e 16 91 4a 64
        e 0 91 46 64
        e 32 81 4a 40
        e 0 81 46 40
        e 16 91 45 64
        e 0 91 48 64
        e 320 81 45 40
        e 0 81 48 40
        e 16 91 41 64
        e 0 91 45 64
        e 32 81 41 40
        e 0 81 45 40
        e 16 91 46 64
        e 0 91 43 64
        e 128 81 46 40
        e 0 81 43 40
        e 16 91 43 64
        e 0 91 40 64
        e 32 81 43 40
        e 0 81 40 40
        e 16 91 46 64
        e 0 91 43 64
        e 176 81 46 40
        e 0 81 43 40
        e 16 91 41 64
        e 0 91 45 64
        e 80 81 41 40
        e 0 81 45 40
        e 112 91 4d 64
        e 0 91 45 64
        e 128 81 4d 40
        e 0 81 45 40
        e 16 91 4c 64
        e 0 91 48 64
        e 32 81 4c 40
        e 0 81 48 40
        e 16 91 48 64
        e 0 91 4c 64
        e 176 81 48 40
        e 0 81 4c 40
        e 16 91 46 64
        e 0 91 4a 64
        e 80 81 46 40
        e 0 81 4a 40
        e 112 91 4a 64
        e 0 91 46 64
        e 128 81 4a 40
        e 0 81 46 40
        e 16 91 45 64
        e 0 91 48 64
        e 32 81 45 40
        e 0 81 48 40
        e 16 91 45 64
        e 0 91 48 64
        e 176 81 45 40
        e 0 81 48 40
        e 16 91 46 64
        e 0 91 43 64
        e 80 81 46 40
        e 0 81 43 40
        e 112 91 46 64
        e 0 91 4a 64
        e 128 81 46 40
        e 0 81 4a 40
        e 16 91 4a 64
        e 0 91 46 64
        e 32 81 4a 40
        e 0 81 46 40
        e 16 91 45 64
        e 0 91 48 64
        e 320 81 45 40
        e 0 81 48 40
        e 16 91 45 64
        e 0 91 41 64
        e 32 81 45 40
        e 0 81 41 40
        e 16 91 46 64
        e 0 91 43 64
        e 128 81 46 40
        e 0 81 43 40
        e 16 91 40 64
        e 0 91 43 64
        e 32 81 40 40
        e 0 81 43 40
        e 16 91 41 64
        e 176 81 41 40
        e 16 91 45 64
        e 0 91 4d 64
        e 0 91 48 64
        e 80 81 45 40
        e 0 81 4d 40
        e 0 81 48 40
        E 112 b0 7b 00
        GUID {60B9579C-44E1-C145-A4C2-AEF4230DC61A}
        IGNTEMPO 0 120 4 4
        SRCCOLOR 629
        VELLANE -1 86 6
        CFGEDITVIEW -1669.619688 28.048037 50 12 0 0 0 0 0 0.5
        KEYSNAP 0
        TRACKSEL 226
        EVTFILTER 0 -1 -1 -1 -1 0 0 0 0 -1 -1 -1 -1 0 -1 0 -1 -1
        CFGEDIT 1 1 0 0 0 0 1 0 1 1 1 0.25 0 187 878 778 0 0 1 3 0 0 0 0 0 -1 0 0 1 64
      >
      TAKE
      NAME "R.H.                 - National_Anthems_-_Cyprus.mid"
      TAKEVOLPAN 0 1 -1
      SOFFS 1 2
      PLAYRATE 1 1 0 -1 0 0.0025
      CHANMODE 0
      GUID {736FD69A-434F-D247-945F-EC8AF47C21B6}
      <SOURCE MIDI
        HASDATA 1 192 QN
        POOLEDEVTS {8DC536F3-727B-8840-9A7F-48FEC2304BDF}
        <X 0 0 0 0 3 "R.H.                "
          /wNSLkguICAgICAgICAgICAgICAgIA==
        >
        E 384 91 41 64
        E 0 91 45 64
        E 128 81 41 40
        E 0 81 45 40
        E 16 91 46 64
        E 0 91 43 64
        E 32 81 46 40
        E 0 81 43 40
        E 16 91 45 64
        E 0 91 48 64
        E 320 81 45 40
        E 0 81 48 40
        E 16 91 46 64
        E 0 91 43 64
        E 32 81 46 40
        E 0 81 43 40
        E 16 91 45 64
        E 0 91 41 64
        E 128 81 45 40
        E 0 81 41 40
        E 16 91 46 64
        E 0 91 43 64
        E 32 81 46 40
        E 0 81 43 40
        E 16 91 48 64
        E 0 91 45 64
        E 176 81 48 40
        E 0 81 45 40
        E 16 91 45 64
        E 0 91 41 64
        E 80 81 45 40
        E 0 81 41 40
        E 112 91 46 64
        E 0 91 43 64
        E 128 81 46 40
        E 0 81 43 40
        E 16 91 45 64
        E 0 91 48 64
        E 32 81 45 40
        E 0 81 48 40
        E 16 91 4a 64
        E 0 91 46 64
        E 320 81 4a 40
        E 0 81 46 40
        E 16 91 46 64
        E 0 91 4a 64
        E 32 81 46 40
        E 0 81 4a 40
        E 16 91 48 64
        E 0 91 4c 64
        E 128 81 48 40
        E 0 81 4c 40
        E 16 91 48 64
        E 0 91 4c 64
        E 32 81 48 40
        E 0 81 4c 40
        E 16 91 4d 64
        E 0 91 45 64
        E 272 81 4d 40
        E 0 81 45 40
        E 112 91 40 64
        E 0 91 43 64
        E 128 81 40 40
        E 0 81 43 40
        E 16 91 45 64
        E 0 91 41 64
        E 32 81 45 40
        E 0 81 41 40
        E 16 91 46 64
        E 0 91 43 64
        E 320 81 46 40
        E 0 81 43 40
        E 16 91 45 64
        E 0 91 41 64
        E 32 81 45 40
        E 0 81 41 40
        E 16 91 43 64
        E 0 91 40 64
        E 128 81 43 40
        E 0 81 40 40
        E 16 91 41 64
        E 0 91 45 64
        E 32 81 41 40
        E 0 81 45 40
        E 16 91 46 64
        E 0 91 43 64
        E 176 81 46 40
        E 0 81 43 40
        E 16 91 40 64
        E 0 91 43 64
        E 80 81 40 40
        E 0 81 43 40
        E 112 91 48 64
        E 128 81 48 40
        E 16 91 48 64
        E 32 81 48 40
        E 16 91 4c 64
        E 0 91 48 64
        E 320 81 4c 40
        E 0 81 48 40
        E 16 91 4a 64
        E 0 91 46 64
        E 32 81 4a 40
        E 0 81 46 40
        E 16 91 45 64
        E 0 91 48 64
        E 128 81 45 40
        E 0 81 48 40
        E 16 91 46 64
        E 0 91 43 64
        E 32 81 46 40
        E 0 81 43 40
        E 16 91 41 64
        E 0 91 45 64
        E 272 81 41 40
        E 0 81 45 40
        E 112 91 45 64
        E 128 81 45 40
        E 16 91 45 64
        E 32 81 45 40
        E 16 91 41 64
        E 0 91 45 64
        E 0 91 4a 64
        E 320 81 4a 40
        E 16 91 4d 64
        E 32 81 41 40
        E 0 81 45 40
        E 0 81 4d 40
        E 16 91 45 64
        E 0 91 43 64
        E 0 91 4c 64
        E 128 81 4c 40
        E 16 91 49 64
        E 32 81 45 40
        E 0 81 43 40
        E 0 81 49 40
        E 16 91 45 64
        E 0 91 4a 64
        E 0 91 41 64
        E 176 81 45 40
        E 0 81 4a 40
        E 16 91 45 64
        E 80 81 45 40
        E 96 81 41 40
        E 16 91 45 64
        E 128 81 45 40
        E 16 91 45 64
        E 32 81 45 40
        E 16 91 45 64
        E 0 91 4a 64
        E 0 91 41 64
        E 320 81 4a 40
        E 16 91 4d 64
        E 32 81 45 40
        E 0 81 41 40
        E 0 81 4d 40
        E 16 91 45 64
        E 0 91 4c 64
        E 0 91 43 64
        E 128 81 4c 40
        E 16 91 49 64
        E 32 81 45 40
        E 0 81 43 40
        E 0 81 49 40
        E 16 91 45 64
        E 0 91 41 64
        E 0 91 4a 64
        E 272 81 45 40
        E 0 81 41 40
        E 0 81 4a 40
        E 112 91 48 64
        E 128 81 48 40
        E 16 91 48 64
        E 32 81 48 40
        E 16 91 48 64
        E 176 81 48 40
        E 16 91 4c 64
        E 0 91 46 64
        E 0 91 48 64
        E 176 81 4c 40
        E 0 81 46 40
        E 0 81 48 40
        E 16 91 48 64
        E 0 91 46 64
        E 128 81 48 40
        E 0 81 46 40
        E 16 91 46 64
        E 0 91 48 64
        E 32 81 46 40
        E 0 81 48 40
        E 16 91 45 64
        E 0 91 48 64
        E 176 81 45 40
        E 0 81 48 40
        E 16 91 4d 64
        E 0 91 48 64
        E 0 91 45 64
        E 176 81 4d 40
        E 0 81 48 40
        E 0 81 45 40
        E 16 91 45 64
        E 0 91 48 64
        E 128 81 45 40
        E 0 81 48 40
        E 16 91 48 64
        E 0 91 45 64
        E 32 81 48 40
        E 0 81 45 40
        E 16 91 48 64
        E 0 91 46 64
        E 176 81 48 40
        E 0 81 46 40
        E 16 91 46 64
        E 0 91 4c 64
        E 0 91 43 64
        E 80 81 46 40
        E 0 81 4c 40
        E 0 81 43 40
        E 64 91 48 64
        E 32 81 48 40
        E 16 91 4a 64
        E 128 81 4a 40
        E 16 91 4c 64
        E 32 81 4c 40
        E 16 91 45 64
        E 0 91 4d 64
        E 272 81 45 40
        E 0 81 4d 40
        E 112 91 45 64
        E 0 91 4d 64
        E 128 81 45 40
        E 0 81 4d 40
        E 16 91 4c 64
        E 0 91 48 64
        E 32 81 4c 40
        E 0 81 48 40
        E 16 91 48 64
        E 0 91 4c 64
        E 176 81 48 40
        E 0 81 4c 40
        E 16 91 46 64
        E 0 91 4a 64
        E 80 81 46 40
        E 0 81 4a 40
        E 112 91 46 64
        E 0 91 4a 64
        E 128 81 46 40
        E 0 81 4a 40
        E 16 91 48 64
        E 0 91 45 64
        E 32 81 48 40
        E 0 81 45 40
        E 16 91 45 64
        E 0 91 48 64
        E 176 81 45 40
        E 0 81 48 40
        E 16 91 46 64
        E 0 91 43 64
        E 80 81 46 40
        E 0 81 43 40
        E 112 91 46 64
        E 0 91 4a 64
        E 128 81 46 40
        E 0 81 4a 40
        E 16 91 4a 64
        E 0 91 46 64
        E 32 81 4a 40
        E 0 81 46 40
        E 16 91 45 64
        E 0 91 48 64
        E 320 81 45 40
        E 0 81 48 40
        E 16 91 41 64
        E 0 91 45 64
        E 32 81 41 40
        E 0 81 45 40
        E 16 91 46 64
        E 0 91 43 64
        E 128 81 46 40
        E 0 81 43 40
        E 16 91 43 64
        E 0 91 40 64
        E 32 81 43 40
        E 0 81 40 40
        E 16 91 46 64
        E 0 91 43 64
        E 176 81 46 40
        E 0 81 43 40
        E 16 91 41 64
        E 0 91 45 64
        E 80 81 41 40
        E 0 81 45 40
        E 112 91 4d 64
        E 0 91 45 64
        E 128 81 4d 40
        E 0 81 45 40
        E 16 91 4c 64
        E 0 91 48 64
        E 32 81 4c 40
        E 0 81 48 40
        E 16 91 48 64
        E 0 91 4c 64
        E 176 81 48 40
        E 0 81 4c 40
        E 16 91 46 64
        E 0 91 4a 64
        E 80 81 46 40
        E 0 81 4a 40
        E 112 91 4a 64
        E 0 91 46 64
        E 128 81 4a 40
        E 0 81 46 40
        E 16 91 45 64
        E 0 91 48 64
        E 32 81 45 40
        E 0 81 48 40
        E 16 91 45 64
        E 0 91 48 64
        E 176 81 45 40
        E 0 81 48 40
        E 16 91 46 64
        E 0 91 43 64
        E 80 81 46 40
        E 0 81 43 40
        E 112 91 46 64
        E 0 91 4a 64
        E 128 81 46 40
        E 0 81 4a 40
        E 16 91 4a 64
        E 0 91 46 64
        E 32 81 4a 40
        E 0 81 46 40
        E 16 91 45 64
        E 0 91 48 64
        E 320 81 45 40
        E 0 81 48 40
        E 16 91 45 64
        E 0 91 41 64
        E 32 81 45 40
        E 0 81 41 40
        E 16 91 46 64
        E 0 91 43 64
        E 128 81 46 40
        E 0 81 43 40
        E 16 91 40 64
        E 0 91 43 64
        E 32 81 40 40
        E 0 81 43 40
        E 16 91 41 64
        E 176 81 41 40
        E 16 91 45 64
        E 0 91 4d 64
        E 0 91 48 64
        E 80 81 45 40
        E 0 81 4d 40
        E 0 81 48 40
        E 112 b0 7b 00
        GUID {6A3F475A-AE83-CD41-8D32-FB4790CE30BC}
        IGNTEMPO 0 120 4 4
        SRCCOLOR 682
        VELLANE -1 108 6
      >
    >
  >
  <TRACK {97C14EE2-C273-C940-9D68-54C062C3CBCA}
    NAME ChipFront
    PEAKCOL 16576
    BEAT -1
    AUTOMODE 0
    VOLPAN 0.38397576894268 0 -1 -1 1
    MUTESOLO 0 0 0
    IPHASE 0
    ISBUS 0 0
    BUSCOMP 0 0
    SHOWINMIX 1 0.6667 0.5 1 0.5 0 0 0
    FREEMODE 0
    SEL 0
    REC 0 0 0 0 0 0 0
    VU 2
    TRACKHEIGHT 0 0
    INQ 0 0 0 0.5 100 0 0 100
    NCHAN 2
    FX 1
    TRACKID {97C14EE2-C273-C940-9D68-54C062C3CBCA}
    PERF 0
    AUXRECV 4 0 1 0 0 0 0 0 0 -1:U 0 -1 ''
    MIDIOUT -1
    MAINSEND 1 0
    <FXCHAIN
      SHOW 0
      LASTSEL 0
      DOCKED 0
      BYPASS 0 0 0
      <VST "VST: FabFilter Volcano 2 (SC) (FabFilter)" "FabFilter Volcano 2 (SC).vst" 0 "" 1180054068
        NDJWRu9e7f4EAAAAAQAAAAAAAAACAAAAAAAAAAQAAAAAAAAACAAAAAAAAAAEAAAAAQAAAAAAAAACAAAAAAAAAAQAAAAAAAAACAAAAAAAAADcCwAAAAAAAAAAEAA=
        776t3g3wrd4AAAA/AAAAPwAAAD8AAAA/AACAPwAAAAAAAAA/q6qqPq2+aD8AAAA/ig0yPM3MzD0AAAAAAAAAAAAAAAAAAIA/AACAP0Isdj8AAAA/bbDgPZqZGT8AAAAA
        AAAAAOev3zwAAIA/AAAAAAAAgD8AAAA/AAAAAJqZGT8AAAAAAAAAAAAAAAAAAIA/AAAAAAAAgD8AAAA/AAAAAJqZGT8AAAAAAAAAAAAAAAAAAIA/AAAAAKuqqj4ATrI+
        AAAAPwAAAADBykk/XXRRPwAAAACJiIg9AACAP6oXiD4AAAAAAAAAAAAAAAAAAAAAAACAPwAAAAAAAAA/AAAAAAAAAAAAAAAAAAAAPwAAAAAAAAAAAAAAAAAAAD8AAAAA
        AAAAAAAAAAAAAAA/AAAAAAAAAAAAAAAAAAAAPwAAAAAAAAAAAAAAAAAAAD8AAAAAAAAAAAAAAAAAAAA/AAAAAAAAAAAAAAAAAAAAPwAAAAAAAAAAAAAAAAAAAD8AAAAA
        AAAAAAAAAAAAAAA/AAAAAAAAAAAAAAAAAAAAPwAAAAAAAAAAAAAAAAAAAD8AAAAAAAAAAAAAAAAAAAA/AAAAAAAAAAAAAAAAAAAAPwAAAAAAAAAAAAAAAHwZED4AAAA/
        KKO3PQAAgD8AAAAAAAAAAImIiD3y0iU/AAAAAAAAgD8AAAAAdGjRPQAAAAAAAIA/AAAAAAAAAD8AAAAAAAAAAAAAAAAAAAA/AAAAAAAAAAAAAAAAAAAAPwAAAAAAAAAA
        AAAAAAAAAD8AAAAAAAAAAAAAAAAAAAA/AAAAAAAAAAAAAAAAAAAAPwAAAAAAAAAAAAAAAAAAAD8AAAAAAAAAAAAAAAAAAAA/AAAAAAAAAAAAAAAAAAAAPwAAAAAAAAAA
        AAAAAAAAAD8AAAAAAAAAAAAAAAAAAAA/AAAAAAAAAAAAAAAAAAAAPwAAAAAAAAAAAAAAAAAAAD8AAAAAAAAAAAAAAAAAAAA/AAAAAAAAAAAAAAAAvvR9PgAAAD8AAAA/
        AAAAPwAAAAAAAAAAiYiIPQAAAD8AAAAAAAAAAAAAAAAAAAA/AAAAAAAAAAAAAAAAAAAAPwAAAAAAAAAAAAAAAAAAAD8AAAAAAAAAAAAAAAAAAAA/AAAAAAAAAAAAAAAA
        AAAAPwAAAAAAAAAAAAAAAAAAAD8AAAAAAAAAAAAAAAAAAAA/AAAAAAAAAAAAAAAAAAAAPwAAAAAAAAAAAAAAAAAAAD8AAAAAAAAAAAAAAAAAAAA/AAAAAAAAAAAAAAAA
        AAAAPwAAAAAAAAAAAAAAAAAAAD8AAAAAAAAAAAAAAAAAAAA/AAAAAAAAAAAAAAAAAAAAPwAAAAAAAAAAAAAAAAAAAD8AAAAAAAAAAAAAAAC+9H0+AAAAPwAAAD8AAAA/
        AAAAAAAAAACJiIg9AAAAPwAAAAAAAAAAAAAAAAAAAD8AAAAAAAAAAAAAAAAAAAA/AAAAAAAAAAAAAAAAAAAAPwAAAAAAAAAAAAAAAAAAAD8AAAAAAAAAAAAAAAAAAAA/
        AAAAAAAAAAAAAAAAAAAAPwAAAAAAAAAAAAAAAAAAAD8AAAAAAAAAAAAAAAAAAAA/AAAAAAAAAAAAAAAAAAAAPwAAAAAAAAAAAAAAAAAAAD8AAAAAAAAAAAAAAAAAAAA/
        AAAAAAAAAAAAAAAAAAAAPwAAAAAAAAAAAAAAAAAAAD8AAAAAAAAAAAAAAAAAAAA/AAAAAAAAAAAAAAAAAAAAPwAAAAAAAAAAAAAAAL70fT4AAAA/AAAAPwAAAD8AAAAA
        AAAAAImIiD0AAAA/AAAAAAAAAAAAAAAAAAAAPwAAAAAAAAAAAAAAAAAAAD8AAAAAAAAAAAAAAAAAAAA/AAAAAAAAAAAAAAAAAAAAPwAAAAAAAAAAAAAAAAAAAD8AAAAA
        AAAAAAAAAAAAAAA/AAAAAAAAAAAAAAAAAAAAPwAAAAAAAAAAAAAAAAAAAD8AAAAAAAAAAAAAAAAAAAA/AAAAAAAAAAAAAAAAAAAAPwAAAAAAAAAAAAAAAAAAAD8AAAAA
        AAAAAAAAAAAAAAA/AAAAAAAAAAAAAAAAAAAAPwAAAAAAAAAAAAAAAAAAAD8AAAAAAAAAAAAAAAAAAAA/AAAAAAAAAAAAAAAAvvR9PgAAAD8AAAA/AAAAPwAAAAAAAAAA
        iYiIPQAAAD8AAAAAAAAAAAAAAAAAAAA/AAAAAAAAAAAAAAAAAAAAPwAAAAAAAAAAAAAAAAAAAD8AAAAAAAAAAAAAAAAAAAA/AAAAAAAAAAAAAAAAAAAAPwAAAAAAAAAA
        AAAAAAAAAD8AAAAAAAAAAAAAAAAAAAA/AAAAAAAAAAAAAAAAAAAAPwAAAAAAAAAAAAAAAAAAAD8AAAAAAAAAAAAAAAAAAAA/AAAAAAAAAAAAAAAAAAAAPwAAAAAAAAAA
        AAAAAAAAAD8AAAAAAAAAAAAAAAAAAAA/AAAAAAAAAAAAAAAAAAAAPwAAAAAAAAAAAAAAAAAAAD8AAAAAAAAAAAAAAAAAAAAAmpmZPgAAAAAAAAAAAAAAAAAAgD8AAAAA
        mpmZPgAAAAAAAAAAAAAAAAAAgD8AAAAAmpmZPgAAAAAAAAAAAAAAAAAAgD8AAAAAmpmZPgAAAAAAAAAAAAAAAAAAgD8AAAAAmpmZPgAAAAAAAAAAAAAAAAAAgD8AAAAA
        mpmZPgAAAAAAAAAAAAAAAAAAgD8AAAAAAAAAAAAAAAAAAAAAAAAAAAAAAAAAAAAAAAAAAAAAAAAAAAAAAAAAAAAAAAAAAAAAAAAAAAAAAAAAAAAAAAAAAAAAAAAAAAAA
        AAAAAAAAAAAAAAAAAAAAAAAAAAAAAAAAAAAAAAAAAAAAAAAAAAAAAAAAAAAAAAAAAAAAAAAAAAAAAAAAAAAAAAAAAAAAAAAAAAAAAKuqKj3ZiZ09gShWPgAAAAAAAAAA
        v+eWPQAAAAAAAAA/AAAAAAAAAAAAAAAAAAAAAAAAAD8AAAAAAAAAAAAAAAAAAAAAAAAAPwAAAAAAAAAAAAAAAAAAAAAAAAAAAAAAAAAAAAAAAAAAAAAAAAAAAAAAAAAA
        AAAAAAAAAAAAAAAAAAAAAAAAAAAAAAAAAAAAAAAAAAAAAAAAAAAAAAAAAAAAAAAAAAAAAAAAAAAAAAAAAAAAAAAAAAAAAAAAAAAAAAAAAAAAAAAAAAAAAAAAAAAAAAAA
        AAAAAAAAAAAAAAAAAAAAAAAAAAAAAAAAAAAAAAAAAAAAAAAAAAAAAAAAAAAAAAAAAAAAAAAAAAAAAAAAAAAAAAAAAAAAAAAAAAAAAAAAAAAAAAAAAAAAAAAAAAAAAAAA
        AAAAAAAAAAAAAAAAAAAAAAAAAAAAAAAAAAAAAAAAAAAAAAAAAAAAAAAAAAAAAAAAAAAAAAAAAAAAAAAAAAAAAAAAAAAAAAAAAAAAAAAAAAAAAAAAAAAAAAAAAAAAAAAA
        AAAAAAAAAAAAAAAAAAAAAAAAAAAAAAAAAAAAAAAAAAAAAAAAAAAAAAAAAAAAAAAAAAAAAAAAAAAAAAAAAAAAAAAAAAAAAAAAAAAAAAAAAAAAAAAAAAAAPwAAAD8AAAA/
        AAAAPwAAAD8AAAA/AAAAPwAAAD8AAAAAAAAAAAAAAAAAAAAAAAAAAAAAAAAAAAAAAAAAAAAAAAAAAAAAAAAAAAAAAAAAAAAAAAAAAAAAAAAAAAAAAAAAAAAAAAAAAAAA
        AAAAAAAAAAAAAAAAAAAAAAAAAAAAAAAAAAAAAAAAAAAAAAAAAAAAAAAAAAAAAAAAAAAAAAAAAAAAAAAAAAAAAAAAAAAAAAAAAAAAAAAAAAAAAAAAAAAAAAAAAAAAAAAA
        AAAAAAAAAAAAAAAAAAAAAAAAAAAAAAAAAAAAAAAAAAAAAAAAAAAAAAAAAAAAAAAAAAAAAAAAAAAAAAAAAAAAAAAAAAAAAAAAAAAAAAAAAAAAAAAAAAAAAAAAAAAAAAAA
        AAAAAAAAAAAAAAAAAAAAAAAAAAAAAAAAAAAAAAAAAAAAAAAAAAAAAAAAAAAAAAAAAAAAAAAAAAAAAAAA
        Q2hpcEZyb250AENoaXBGcm9udAAQAAAA
      >
      PRESETNAME ChipFront
      FLOATPOS 36 32 641 529
      FXID {4C5A6810-F3ED-0645-A06D-6758F70CB097}
      WAK 0
    >
  >
  <TRACK {1B564899-9ACC-8C4B-8FBF-925A5A247A13}
    NAME ChipSide
    PEAKCOL 16576
    BEAT -1
    AUTOMODE 0
    VOLPAN 0.36508838063238 0 -1 -1 1
    MUTESOLO 0 0 0
    IPHASE 0
    ISBUS 0 0
    BUSCOMP 0 0
    SHOWINMIX 1 0.6667 0.5 1 0.5 0 0 0
    FREEMODE 0
    SEL 0
    REC 0 0 0 0 0 0 0
    VU 2
    TRACKHEIGHT 0 0
    INQ 0 0 0 0.5 100 0 0 100
    NCHAN 2
    FX 1
    TRACKID {1B564899-9ACC-8C4B-8FBF-925A5A247A13}
    PERF 0
    AUXRECV 4 0 1.03113579563571 0 0 0 0 2 0 -1:U 0 -1 ''
    MIDIOUT -1
    MAINSEND 1 0
    <FXCHAIN
      SHOW 0
      LASTSEL 0
      DOCKED 0
      BYPASS 0 0 0
      <VST "VST: FabFilter Volcano 2 (SC) (FabFilter)" "FabFilter Volcano 2 (SC).vst" 0 "" 1180054068
        NDJWRu9e7f4EAAAAAQAAAAAAAAACAAAAAAAAAAQAAAAAAAAACAAAAAAAAAAIAAAAAQAAAAAAAAACAAAAAAAAAAQAAAAAAAAACAAAAAAAAAAQAAAAAAAAACAAAAAAAAAA
        QAAAAAAAAACAAAAAAAAAANwLAAAAAAAAAAAQAA==
        776t3g3wrd4AAAA/AAAAPwAAAD8AAAA/AACAPwAAAAAAAIA/q6qqPsplFD8AAAA/TxqgPc3MzD0AAAAAAAAAAEKGIj8AAIA/AACAP0Isdj8AAAA/bbDgPZqZGT8AAAAA
        AAAAAOev3zwAAIA/AAAAAAAAgD8AAAA/AAAAAJqZGT8AAAAAAAAAAAAAAAAAAIA/AAAAAAAAgD8AAAA/AAAAAJqZGT8AAAAAAAAAAAAAAAAAAIA/AAAAAKuqqj6CdAA9
        EObJPZgn+j4AAIA/AAAAAAAAAACJiAg+AACAP7PDtD4AAIA/AAAAAAAAAAAAAAAAq6qqPgAAAACeFR0/AAAAAAAAgD8AAAAAAAAAPwAAAAAAAAAAAAAAAAAAAD8AAAAA
        AAAAAAAAAAAAAAA/AAAAAAAAAAAAAAAAAAAAPwAAAAAAAAAAAAAAAAAAAD8AAAAAAAAAAAAAAAAAAAA/AAAAAAAAAAAAAAAAAAAAPwAAAAAAAAAAAAAAAAAAAD8AAAAA
        AAAAAAAAAAAAAAA/AAAAAAAAAAAAAAAAAAAAPwAAAAAAAAAAAAAAAAAAAD8AAAAAAAAAAAAAAAAAAAA/AAAAAAAAAAAAAAAAAAAAPwAAAAAAAAAAAAAAAHwZED4AAAA/
        KKO3PQAAgD8AAAAAAAAAAImIiD3y0iU/AAAAAAAAgD8AAAAAdGjRPQAAAAAAAIA/AAAAAAAAAD8AAAAAAAAAAAAAAAAAAAA/AAAAAAAAAAAAAAAAAAAAPwAAAAAAAAAA
        AAAAAAAAAD8AAAAAAAAAAAAAAAAAAAA/AAAAAAAAAAAAAAAAAAAAPwAAAAAAAAAAAAAAAAAAAD8AAAAAAAAAAAAAAAAAAAA/AAAAAAAAAAAAAAAAAAAAPwAAAAAAAAAA
        AAAAAAAAAD8AAAAAAAAAAAAAAAAAAAA/AAAAAAAAAAAAAAAAAAAAPwAAAAAAAAAAAAAAAAAAAD8AAAAAAAAAAAAAAAAAAAA/AAAAAAAAAAAAAAAAvvR9PgAAAD8AAAA/
        AAAAPwAAAAAAAAAAiYiIPQAAAD8AAAAAAAAAAAAAAAAAAAA/AAAAAAAAAAAAAAAAAAAAPwAAAAAAAAAAAAAAAAAAAD8AAAAAAAAAAAAAAAAAAAA/AAAAAAAAAAAAAAAA
        AAAAPwAAAAAAAAAAAAAAAAAAAD8AAAAAAAAAAAAAAAAAAAA/AAAAAAAAAAAAAAAAAAAAPwAAAAAAAAAAAAAAAAAAAD8AAAAAAAAAAAAAAAAAAAA/AAAAAAAAAAAAAAAA
        AAAAPwAAAAAAAAAAAAAAAAAAAD8AAAAAAAAAAAAAAAAAAAA/AAAAAAAAAAAAAAAAAAAAPwAAAAAAAAAAAAAAAAAAAD8AAAAAAAAAAAAAAAC+9H0+AAAAPwAAAD8AAAA/
        AAAAAAAAAACJiIg9AAAAPwAAAAAAAAAAAAAAAAAAAD8AAAAAAAAAAAAAAAAAAAA/AAAAAAAAAAAAAAAAAAAAPwAAAAAAAAAAAAAAAAAAAD8AAAAAAAAAAAAAAAAAAAA/
        AAAAAAAAAAAAAAAAAAAAPwAAAAAAAAAAAAAAAAAAAD8AAAAAAAAAAAAAAAAAAAA/AAAAAAAAAAAAAAAAAAAAPwAAAAAAAAAAAAAAAAAAAD8AAAAAAAAAAAAAAAAAAAA/
        AAAAAAAAAAAAAAAAAAAAPwAAAAAAAAAAAAAAAAAAAD8AAAAAAAAAAAAAAAAAAAA/AAAAAAAAAAAAAAAAAAAAPwAAAAAAAAAAAAAAAL70fT4AAAA/AAAAPwAAAD8AAAAA
        AAAAAImIiD0AAAA/AAAAAAAAAAAAAAAAAAAAPwAAAAAAAAAAAAAAAAAAAD8AAAAAAAAAAAAAAAAAAAA/AAAAAAAAAAAAAAAAAAAAPwAAAAAAAAAAAAAAAAAAAD8AAAAA
        AAAAAAAAAAAAAAA/AAAAAAAAAAAAAAAAAAAAPwAAAAAAAAAAAAAAAAAAAD8AAAAAAAAAAAAAAAAAAAA/AAAAAAAAAAAAAAAAAAAAPwAAAAAAAAAAAAAAAAAAAD8AAAAA
        AAAAAAAAAAAAAAA/AAAAAAAAAAAAAAAAAAAAPwAAAAAAAAAAAAAAAAAAAD8AAAAAAAAAAAAAAAAAAAA/AAAAAAAAAAAAAAAAvvR9PgAAAD8AAAA/AAAAPwAAAAAAAAAA
        iYiIPQAAAD8AAAAAAAAAAAAAAAAAAAA/AAAAAAAAAAAAAAAAAAAAPwAAAAAAAAAAAAAAAAAAAD8AAAAAAAAAAAAAAAAAAAA/AAAAAAAAAAAAAAAAAAAAPwAAAAAAAAAA
        AAAAAAAAAD8AAAAAAAAAAAAAAAAAAAA/AAAAAAAAAAAAAAAAAAAAPwAAAAAAAAAAAAAAAAAAAD8AAAAAAAAAAAAAAAAAAAA/AAAAAAAAAAAAAAAAAAAAPwAAAAAAAAAA
        AAAAAAAAAD8AAAAAAAAAAAAAAAAAAAA/AAAAAAAAAAAAAAAAAAAAPwAAAAAAAAAAAAAAAAAAAD8AAAAAAAAAAAAAAAAAAAAAmpmZPgAAAAAAAAAAAAAAAAAAgD8AAAAA
        mpmZPgAAAAAAAAAAAAAAAAAAgD8AAAAAmpmZPgAAAAAAAAAAAAAAAAAAgD8AAAAAmpmZPgAAAAAAAAAAAAAAAAAAgD8AAAAAmpmZPgAAAAAAAAAAAAAAAAAAgD8AAAAA
        mpmZPgAAAAAAAAAAAAAAAAAAgD8AAAAAAAAAAAAAAAAAAAAAAAAAAAAAAAAAAAAAAAAAAAAAAAAAAAAAAAAAAAAAAAAAAAAAAAAAAAAAAAAAAAAAAAAAAAAAAAAAAAAA
        AAAAAAAAAAAAAAAAAAAAAAAAAAAAAAAAAAAAAAAAAAAAAAAAAAAAAAAAAAAAAAAAAAAAAAAAAAAAAAAAAAAAAAAAAAAAAAAAAAAAAKuqqj3ZiZ09gShWPgAAgD8AAAAA
        v+eWPdmJHT0WszE/AAAAAAAAAACSdiw8AAAAAAAAAD8AAAAAAAAAAAAAAAAAAAAAAAAAPwAAAAAAAAAAAAAAAAAAAAAAAAAAAAAAAAAAAAAAAAAAAAAAAAAAAAAAAAAA
        AAAAAAAAAAAAAAAAAAAAAAAAAAAAAAAAAAAAAAAAAAAAAAAAAAAAAAAAAAAAAAAAAAAAAAAAAAAAAAAAAAAAAAAAAAAAAAAAAAAAAAAAAAAAAAAAAAAAAAAAAAAAAAAA
        AAAAAAAAAAAAAAAAAAAAAAAAAAAAAAAAAAAAAAAAAAAAAAAAAAAAAAAAAAAAAAAAAAAAAAAAAAAAAAAAAAAAAAAAAAAAAAAAAAAAAAAAAAAAAAAAAAAAAAAAAAAAAAAA
        AAAAAAAAAAAAAAAAAAAAAAAAAAAAAAAAAAAAAAAAAAAAAAAAAAAAAAAAAAAAAAAAAAAAAAAAAAAAAAAAAAAAAAAAAAAAAAAAAAAAAAAAAAAAAAAAAAAAAAAAAAAAAAAA
        AAAAAAAAAAAAAAAAAAAAAAAAAAAAAAAAAAAAAAAAAAAAAAAAAAAAAAAAAAAAAAAAAAAAAAAAAAAAAAAAAAAAAAAAAAAAAAAAAAAAAAAAAAAAAAAAAAAAPwAAAD8AAAA/
        AAAAPwAAAD8AAAA/AAAAPwAAAD8AAAAAAAAAAAAAAAAAAAAAAAAAAAAAAAAAAAAAAAAAAAAAAAAAAAAAAAAAAAAAAAAAAAAAAAAAAAAAAAAAAAAAAAAAAAAAAAAAAAAA
        AAAAAAAAAAAAAAAAAAAAAAAAAAAAAAAAAAAAAAAAAAAAAAAAAAAAAAAAAAAAAAAAAAAAAAAAAAAAAAAAAAAAAAAAAAAAAAAAAAAAAAAAAAAAAAAAAAAAAAAAAAAAAAAA
        AAAAAAAAAAAAAAAAAAAAAAAAAAAAAAAAAAAAAAAAAAAAAAAAAAAAAAAAAAAAAAAAAAAAAAAAAAAAAAAAAAAAAAAAAAAAAAAAAAAAAAAAAAAAAAAAAAAAAAAAAAAAAAAA
        AAAAAAAAAAAAAAAAAAAAAAAAAAAAAAAAAAAAAAAAAAAAAAAAAAAAAAAAAAAAAAAAAAAAAAAAAAAAAAAA
        Q2hpcFNpZGUAQ2hpcFNpZGUAEAAAAA==
      >
      PRESETNAME ChipSide
      FLOATPOS 36 32 641 529
      FXID {20356A84-5CFD-6E4A-AA26-2A8A49CE7A76}
      WAK 0
    >
  >
  <EXTENSIONS
    <SWSAUTOCOLOR
      {00000000-0000-0000-0000-000000000000} 0 "" "" ""
    >
  >
>
