<REAPER_PROJECT 0.1 "5.79pre3/OSX64" 1520612121
  RIPPLE 0
  GROUPOVERRIDE 1 0 0
  AUTOXFADE 0
  ENVATTACH 1
  POOLEDENVATTACH 0
  MIXERUIFLAGS 11 436
  PEAKGAIN 1
  FEEDBACK 0
  PANLAW 1
  PROJOFFS 0 0
  MAXPROJLEN 0 600
  GRID 174206 8 1 8 1 0 0 0
  TIMEMODE 6 0 -1 24 2
  PANMODE 3
  CURSOR 0
  ZOOM 26.39833333333333 0 0
  VZOOMEX 0
  USE_REC_CFG 0
  RECMODE 1
  SMPTESYNC 0 23.976024 100 40 1000 300 0 0 1 0 0
  MIDIEDITOR -116919545 0 0
  LOOP 1
  LOOPGRAN 0 4
  RECORD_PATH "" ""
  <RECORD_CFG
    ZXZhdxAA
  >
  <APPLYFX_CFG
  >
  RENDER_FILE "/Users/samenglander/_create/ColorFlagsAudio/Magee_Anthems/Cyprus/stems/cyprus.wav"
  RENDER_FMT 0 2 44100
  RENDER_1X 0
  RENDER_RANGE 3 0 0 18 1000
  RENDER_RESAMPLE 3 0 1
  RENDER_ADDTOPROJ 0
  RENDER_STEMS 8
  RENDER_DITHER 0
  TIMELOCKMODE 1
  TEMPOENVLOCKMODE 1
  ITEMMIX 1
  DEFPITCHMODE 589824
  TAKELANE 3
  SAMPLERATE 44100 0 0
  <RENDER_CFG
    ZXZhdxAAAA==
  >
  LOCK 1
  <METRONOME 6 2
    VOL 0.25 0.125
    FREQ 800 1600 1
    BEATLEN 4
    SAMPLES "" ""
    PATTERN 2863311530 2863311529
  >
  GLOBAL_AUTO -1
  SELECTIONSET 9 "Selection set 10"
  TEMPO 120 4 4
  PLAYRATE 1 0 0.25 4
  SELECTION 36 0
  SELECTION2 36 0
  MASTERAUTOMODE 0
  MASTERTRACKHEIGHT 0
  MASTERPEAKCOL 16576
  MASTERMUTESOLO 0
  MASTERTRACKVIEW 0 0.6667 0.5 0.5 0 0 0
  MASTERHWOUT 0 0 1 0 0 0 0 -1
  MASTER_NCH 2 2
  MASTER_VOLUME 1 0 -1 -1 1
  MASTER_FX 1
  MASTER_SEL 0
  <MASTERPLAYSPEEDENV
    ACT 0 -1
    VIS 0 1 1
    LANEHEIGHT 0 0
    ARM 0
    DEFSHAPE 0 -1 -1
  >
  <TEMPOENVEX
    ACT 0 -1
    VIS 1 0 1
    LANEHEIGHT 0 0
    ARM 0
    DEFSHAPE 1 -1 -1
  >
  MARKER 1 0 loop 1 32087066 1 B
  <REGIONRENDER 1
    TRACK {1B564899-9ACC-8C4B-8FBF-925A5A247A13}
    TRACK {97C14EE2-C273-C940-9D68-54C062C3CBCA}
    TRACK {9E2CAE92-CCC1-1F4A-BCF6-93DCFE473BDF}
    TRACK {4A6CD977-ADCC-3A4D-927C-BB2CEF4B0809}
  >
  MARKER 1 36 "" 1 32087066 1 B
  <SCREENSET
    <SET
      POS 0
      NAME "Untitled View State (2014/12/19 10:17)"
      MASK -1
      CURSORPOS 0
      SCROLLX 0 0
      TRACKSCALE 35.22727273
      SCROLLY 0
      VZOOM 9
      TRACKHEIGHT {F4CC3575-1D7D-424F-8F4B-C71B325A2484} 0 1 0 0.6667 0.5 0.5 0 -1 -1 -1 1
      TRACKHEIGHT {E3130754-F6DC-CE48-8A0F-B88955C7F0EE} 0 1 0 0.6667 0.5 0.5 0 -1 -1 -1 1
    >
    <SET
      POS 9
      NAME "Untitled View State (2014/12/19 10:17)"
      MASK -1
      CURSORPOS 0
      SCROLLX 0 0
      TRACKSCALE 35.22727273
      SCROLLY 0
      VZOOM 3
      TRACKHEIGHT {F4CC3575-1D7D-424F-8F4B-C71B325A2484} 88 1 0 0.6667 0.5 0.5 0 -1 -1 -1 1
      TRACKHEIGHT {E3130754-F6DC-CE48-8A0F-B88955C7F0EE} 0 0 0 0.6667 0.5 0.5 0 -1 -1 -1 0
    >
  >
  <PROJBAY
  >
  <TRACK {9E17E555-29E7-C94F-935F-3FC54FE1F2ED}
    NAME Midi
    PEAKCOL 16576
    BEAT -1
    AUTOMODE 0
    VOLPAN 1 0 -1 -1 1
    MUTESOLO 0 0 0
    IPHASE 0
    ISBUS 0 0
    BUSCOMP 0 0
    SHOWINMIX 1 0.6667 0.5 1 0.5 0 0 0
    FREEMODE 0
    SEL 0
    REC 0 0 0 0 0 0 0
    VU 2
    TRACKHEIGHT 0 0
    INQ 0 0 0 0.5 100 0 0 100
    NCHAN 2
    FX 1
    TRACKID {9E17E555-29E7-C94F-935F-3FC54FE1F2ED}
    PERF 0
    MIDIOUT -1
    MAINSEND 1 0
    <ITEM
      POSITION 0
      SNAPOFFS 0
      LENGTH 36
      LOOP 1
      ALLTAKES 0
      FADEIN 1 0 0 1 0 0
      FADEOUT 1 0 0 1 0 0
      MUTE 0
      SEL 0
      YPOS 0.166667 0.166667
      IGUID {4453DE81-0307-2543-8987-309060CBB11C}
      IID 2
      NAME "R.H.                 - National_Anthems_-_Cyprus.mid"
      VOLPAN 1 0 1 -1
      SOFFS 1 2
      PLAYRATE 1 1 0 -1 0 0.0025
      CHANMODE 0
      TAKECOLOR 26173599 B
      GUID {84B6A9EC-2273-844F-90CE-02C388C7B4A8}
      <SOURCE MIDI
        HASDATA 1 192 QN
        POOLEDEVTS {B2EB2509-1569-A04C-9511-C6758119DBD9}
        <X 0 0 0 0 3 "R.H.                "
          /wNSLkguICAgICAgICAgICAgICAgIA==
        >
        E 384 91 41 64
        E 0 91 45 64
        E 128 81 41 40
        E 0 81 45 40
        E 16 91 46 64
        E 0 91 43 64
        E 32 81 46 40
        E 0 81 43 40
        E 16 91 45 64
        E 0 91 48 64
        E 320 81 45 40
        E 0 81 48 40
        E 16 91 46 64
        E 0 91 43 64
        E 32 81 46 40
        E 0 81 43 40
        E 16 91 45 64
        E 0 91 41 64
        E 128 81 45 40
        E 0 81 41 40
        E 16 91 46 64
        E 0 91 43 64
        E 32 81 46 40
        E 0 81 43 40
        E 16 91 48 64
        E 0 91 45 64
        E 176 81 48 40
        E 0 81 45 40
        E 16 91 45 64
        E 0 91 41 64
        E 80 81 45 40
        E 0 81 41 40
        E 112 91 46 64
        E 0 91 43 64
        E 128 81 46 40
        E 0 81 43 40
        E 16 91 45 64
        E 0 91 48 64
        E 32 81 45 40
        E 0 81 48 40
        E 16 91 4a 64
        E 0 91 46 64
        E 320 81 4a 40
        E 0 81 46 40
        E 16 91 46 64
        E 0 91 4a 64
        E 32 81 46 40
        E 0 81 4a 40
        E 16 91 48 64
        E 0 91 4c 64
        E 128 81 48 40
        E 0 81 4c 40
        E 16 91 48 64
        E 0 91 4c 64
        E 32 81 48 40
        E 0 81 4c 40
        E 16 91 4d 64
        E 0 91 45 64
        E 272 81 4d 40
        E 0 81 45 40
        E 112 91 40 64
        E 0 91 43 64
        E 128 81 40 40
        E 0 81 43 40
        E 16 91 45 64
        E 0 91 41 64
        E 32 81 45 40
        E 0 81 41 40
        E 16 91 46 64
        E 0 91 43 64
        E 320 81 46 40
        E 0 81 43 40
        E 16 91 45 64
        E 0 91 41 64
        E 32 81 45 40
        E 0 81 41 40
        E 16 91 43 64
        E 0 91 40 64
        E 128 81 43 40
        E 0 81 40 40
        E 16 91 41 64
        E 0 91 45 64
        E 32 81 41 40
        E 0 81 45 40
        E 16 91 46 64
        E 0 91 43 64
        E 176 81 46 40
        E 0 81 43 40
        E 16 91 40 64
        E 0 91 43 64
        E 80 81 40 40
        E 0 81 43 40
        E 112 91 48 64
        E 128 81 48 40
        E 16 91 48 64
        E 32 81 48 40
        E 16 91 4c 64
        E 0 91 48 64
        E 320 81 4c 40
        E 0 81 48 40
        E 16 91 4a 64
        E 0 91 46 64
        E 32 81 4a 40
        E 0 81 46 40
        E 16 91 45 64
        E 0 91 48 64
        E 128 81 45 40
        E 0 81 48 40
        E 16 91 46 64
        E 0 91 43 64
        E 32 81 46 40
        E 0 81 43 40
        E 16 91 41 64
        E 0 91 45 64
        E 272 81 41 40
        E 0 81 45 40
        E 112 91 45 64
        E 128 81 45 40
        E 16 91 45 64
        E 32 81 45 40
        E 16 91 41 64
        E 0 91 45 64
        E 0 91 4a 64
        E 320 81 4a 40
        E 16 91 4d 64
        E 32 81 41 40
        E 0 81 45 40
        E 0 81 4d 40
        E 16 91 45 64
        E 0 91 43 64
        E 0 91 4c 64
        E 128 81 4c 40
        E 16 91 49 64
        E 32 81 45 40
        E 0 81 43 40
        E 0 81 49 40
        E 16 91 45 64
        E 0 91 4a 64
        E 0 91 41 64
        E 176 81 45 40
        E 0 81 4a 40
        E 16 91 45 64
        E 80 81 45 40
        E 96 81 41 40
        E 16 91 45 64
        E 128 81 45 40
        E 16 91 45 64
        E 32 81 45 40
        E 16 91 45 64
        E 0 91 4a 64
        E 0 91 41 64
        E 320 81 4a 40
        E 16 91 4d 64
        E 32 81 45 40
        E 0 81 41 40
        E 0 81 4d 40
        E 16 91 45 64
        E 0 91 4c 64
        E 0 91 43 64
        E 128 81 4c 40
        E 16 91 49 64
        E 32 81 45 40
        E 0 81 43 40
        E 0 81 49 40
        E 16 91 45 64
        E 0 91 41 64
        E 0 91 4a 64
        E 272 81 45 40
        E 0 81 41 40
        E 0 81 4a 40
        E 112 91 48 64
        E 128 81 48 40
        E 16 91 48 64
        E 32 81 48 40
        E 16 91 48 64
        E 176 81 48 40
        E 16 91 4c 64
        E 0 91 46 64
        E 0 91 48 64
        E 176 81 4c 40
        E 0 81 46 40
        E 0 81 48 40
        E 16 91 48 64
        E 0 91 46 64
        E 128 81 48 40
        E 0 81 46 40
        E 16 91 46 64
        E 0 91 48 64
        E 32 81 46 40
        E 0 81 48 40
        E 16 91 45 64
        E 0 91 48 64
        E 176 81 45 40
        E 0 81 48 40
        E 16 91 4d 64
        E 0 91 48 64
        E 0 91 45 64
        E 176 81 4d 40
        E 0 81 48 40
        E 0 81 45 40
        E 16 91 45 64
        E 0 91 48 64
        E 128 81 45 40
        E 0 81 48 40
        E 16 91 48 64
        E 0 91 45 64
        E 32 81 48 40
        E 0 81 45 40
        E 16 91 48 64
        E 0 91 46 64
        E 176 81 48 40
        E 0 81 46 40
        E 16 91 46 64
        E 0 91 4c 64
        E 0 91 43 64
        E 80 81 46 40
        E 0 81 4c 40
        E 0 81 43 40
        E 64 91 48 64
        E 32 81 48 40
        E 16 91 4a 64
        E 128 81 4a 40
        E 16 91 4c 64
        E 32 81 4c 40
        E 16 91 45 64
        E 0 91 4d 64
        E 272 81 45 40
        E 0 81 4d 40
        E 112 91 45 64
        E 0 91 4d 64
        E 128 81 45 40
        E 0 81 4d 40
        E 16 91 4c 64
        E 0 91 48 64
        E 32 81 4c 40
        E 0 81 48 40
        E 16 91 48 64
        E 0 91 4c 64
        E 176 81 48 40
        E 0 81 4c 40
        E 16 91 46 64
        E 0 91 4a 64
        E 80 81 46 40
        E 0 81 4a 40
        E 112 91 46 64
        E 0 91 4a 64
        E 128 81 46 40
        E 0 81 4a 40
        E 16 91 48 64
        E 0 91 45 64
        E 32 81 48 40
        E 0 81 45 40
        E 16 91 45 64
        E 0 91 48 64
        E 176 81 45 40
        E 0 81 48 40
        E 16 91 46 64
        E 0 91 43 64
        E 80 81 46 40
        E 0 81 43 40
        E 112 91 46 64
        E 0 91 4a 64
        E 128 81 46 40
        E 0 81 4a 40
        E 16 91 4a 64
        E 0 91 46 64
        E 32 81 4a 40
        E 0 81 46 40
        E 16 91 45 64
        E 0 91 48 64
        E 320 81 45 40
        E 0 81 48 40
        E 16 91 41 64
        E 0 91 45 64
        E 32 81 41 40
        E 0 81 45 40
        E 16 91 46 64
        E 0 91 43 64
        E 128 81 46 40
        E 0 81 43 40
        E 16 91 43 64
        E 0 91 40 64
        E 32 81 43 40
        E 0 81 40 40
        E 16 91 46 64
        E 0 91 43 64
        E 176 81 46 40
        E 0 81 43 40
        E 16 91 41 64
        E 0 91 45 64
        E 80 81 41 40
        E 0 81 45 40
        E 112 91 4d 64
        E 0 91 45 64
        E 128 81 4d 40
        E 0 81 45 40
        E 16 91 4c 64
        E 0 91 48 64
        E 32 81 4c 40
        E 0 81 48 40
        E 16 91 48 64
        E 0 91 4c 64
        E 176 81 48 40
        E 0 81 4c 40
        E 16 91 46 64
        E 0 91 4a 64
        E 80 81 46 40
        E 0 81 4a 40
        E 112 91 4a 64
        E 0 91 46 64
        E 128 81 4a 40
        E 0 81 46 40
        E 16 91 45 64
        E 0 91 48 64
        E 32 81 45 40
        E 0 81 48 40
        E 16 91 45 64
        E 0 91 48 64
        E 176 81 45 40
        E 0 81 48 40
        E 16 91 46 64
        E 0 91 43 64
        E 80 81 46 40
        E 0 81 43 40
        E 112 91 46 64
        E 0 91 4a 64
        E 128 81 46 40
        E 0 81 4a 40
        E 16 91 4a 64
        E 0 91 46 64
        E 32 81 4a 40
        E 0 81 46 40
        E 16 91 45 64
        E 0 91 48 64
        E 320 81 45 40
        E 0 81 48 40
        E 16 91 45 64
        E 0 91 41 64
        E 32 81 45 40
        E 0 81 41 40
        E 16 91 46 64
        E 0 91 43 64
        E 128 81 46 40
        E 0 81 43 40
        E 16 91 40 64
        E 0 91 43 64
        E 32 81 40 40
        E 0 81 43 40
        E 16 91 41 64
        E 176 81 41 40
        E 16 91 45 64
        E 0 91 4d 64
        E 0 91 48 64
        E 80 81 45 40
        E 0 81 4d 40
        E 0 81 48 40
        E 112 b0 7b 00
        GUID {60B9579C-44E1-C145-A4C2-AEF4230DC61A}
        IGNTEMPO 0 120 4 4
        SRCCOLOR 629
        VELLANE -1 86 6
      >
      TAKE
      NAME "R.H.                 - National_Anthems_-_Cyprus.mid"
      TAKEVOLPAN 0 1 -1
      SOFFS 1 2
      PLAYRATE 1 1 0 -1 0 0.0025
      CHANMODE 0
      GUID {CE8574A5-4F61-CD45-972E-EEB89B56786A}
      <SOURCE MIDI
        HASDATA 1 192 QN
        POOLEDEVTS {7FEC3FF8-1F33-AF47-9FF5-38C683AE1ECF}
        <X 0 0 0 0 3 "R.H.                "
          /wNSLkguICAgICAgICAgICAgICAgIA==
        >
        E 384 91 41 64
        E 0 91 45 64
        E 128 81 41 40
        E 0 81 45 40
        E 16 91 46 64
        E 0 91 43 64
        E 32 81 46 40
        E 0 81 43 40
        E 16 91 45 64
        E 0 91 48 64
        E 320 81 45 40
        E 0 81 48 40
        E 16 91 46 64
        E 0 91 43 64
        E 32 81 46 40
        E 0 81 43 40
        E 16 91 45 64
        E 0 91 41 64
        E 128 81 45 40
        E 0 81 41 40
        E 16 91 46 64
        E 0 91 43 64
        E 32 81 46 40
        E 0 81 43 40
        E 16 91 48 64
        E 0 91 45 64
        E 176 81 48 40
        E 0 81 45 40
        E 16 91 45 64
        E 0 91 41 64
        E 80 81 45 40
        E 0 81 41 40
        E 112 91 46 64
        E 0 91 43 64
        E 128 81 46 40
        E 0 81 43 40
        E 16 91 45 64
        E 0 91 48 64
        E 32 81 45 40
        E 0 81 48 40
        E 16 91 4a 64
        E 0 91 46 64
        E 320 81 4a 40
        E 0 81 46 40
        E 16 91 46 64
        E 0 91 4a 64
        E 32 81 46 40
        E 0 81 4a 40
        E 16 91 48 64
        E 0 91 4c 64
        E 128 81 48 40
        E 0 81 4c 40
        E 16 91 48 64
        E 0 91 4c 64
        E 32 81 48 40
        E 0 81 4c 40
        E 16 91 4d 64
        E 0 91 45 64
        E 272 81 4d 40
        E 0 81 45 40
        E 112 91 40 64
        E 0 91 43 64
        E 128 81 40 40
        E 0 81 43 40
        E 16 91 45 64
        E 0 91 41 64
        E 32 81 45 40
        E 0 81 41 40
        E 16 91 46 64
        E 0 91 43 64
        E 320 81 46 40
        E 0 81 43 40
        E 16 91 45 64
        E 0 91 41 64
        E 32 81 45 40
        E 0 81 41 40
        E 16 91 43 64
        E 0 91 40 64
        E 128 81 43 40
        E 0 81 40 40
        E 16 91 41 64
        E 0 91 45 64
        E 32 81 41 40
        E 0 81 45 40
        E 16 91 46 64
        E 0 91 43 64
        E 176 81 46 40
        E 0 81 43 40
        E 16 91 40 64
        E 0 91 43 64
        E 80 81 40 40
        E 0 81 43 40
        E 112 91 48 64
        E 128 81 48 40
        E 16 91 48 64
        E 32 81 48 40
        E 16 91 4c 64
        E 0 91 48 64
        E 320 81 4c 40
        E 0 81 48 40
        E 16 91 4a 64
        E 0 91 46 64
        E 32 81 4a 40
        E 0 81 46 40
        E 16 91 45 64
        E 0 91 48 64
        E 128 81 45 40
        E 0 81 48 40
        E 16 91 46 64
        E 0 91 43 64
        E 32 81 46 40
        E 0 81 43 40
        E 16 91 41 64
        E 0 91 45 64
        E 272 81 41 40
        E 0 81 45 40
        E 112 91 45 64
        E 128 81 45 40
        E 16 91 45 64
        E 32 81 45 40
        E 16 91 41 64
        E 0 91 45 64
        E 0 91 4a 64
        E 320 81 4a 40
        E 16 91 4d 64
        E 32 81 41 40
        E 0 81 45 40
        E 0 81 4d 40
        E 16 91 45 64
        E 0 91 43 64
        E 0 91 4c 64
        E 128 81 4c 40
        E 16 91 49 64
        E 32 81 45 40
        E 0 81 43 40
        E 0 81 49 40
        E 16 91 45 64
        E 0 91 4a 64
        E 0 91 41 64
        E 176 81 45 40
        E 0 81 4a 40
        E 16 91 45 64
        E 80 81 45 40
        E 96 81 41 40
        E 16 91 45 64
        E 128 81 45 40
        E 16 91 45 64
        E 32 81 45 40
        E 16 91 45 64
        E 0 91 4a 64
        E 0 91 41 64
        E 320 81 4a 40
        E 16 91 4d 64
        E 32 81 45 40
        E 0 81 41 40
        E 0 81 4d 40
        E 16 91 45 64
        E 0 91 4c 64
        E 0 91 43 64
        E 128 81 4c 40
        E 16 91 49 64
        E 32 81 45 40
        E 0 81 43 40
        E 0 81 49 40
        E 16 91 45 64
        E 0 91 41 64
        E 0 91 4a 64
        E 272 81 45 40
        E 0 81 41 40
        E 0 81 4a 40
        E 112 91 48 64
        E 128 81 48 40
        E 16 91 48 64
        E 32 81 48 40
        E 16 91 48 64
        E 176 81 48 40
        E 16 91 4c 64
        E 0 91 46 64
        E 0 91 48 64
        E 176 81 4c 40
        E 0 81 46 40
        E 0 81 48 40
        E 16 91 48 64
        E 0 91 46 64
        E 128 81 48 40
        E 0 81 46 40
        E 16 91 46 64
        E 0 91 48 64
        E 32 81 46 40
        E 0 81 48 40
        E 16 91 45 64
        E 0 91 48 64
        E 176 81 45 40
        E 0 81 48 40
        E 16 91 4d 64
        E 0 91 48 64
        E 0 91 45 64
        E 176 81 4d 40
        E 0 81 48 40
        E 0 81 45 40
        E 16 91 45 64
        E 0 91 48 64
        E 128 81 45 40
        E 0 81 48 40
        E 16 91 48 64
        E 0 91 45 64
        E 32 81 48 40
        E 0 81 45 40
        E 16 91 48 64
        E 0 91 46 64
        E 176 81 48 40
        E 0 81 46 40
        E 16 91 46 64
        E 0 91 4c 64
        E 0 91 43 64
        E 80 81 46 40
        E 0 81 4c 40
        E 0 81 43 40
        E 64 91 48 64
        E 32 81 48 40
        E 16 91 4a 64
        E 128 81 4a 40
        E 16 91 4c 64
        E 32 81 4c 40
        E 16 91 45 64
        E 0 91 4d 64
        E 272 81 45 40
        E 0 81 4d 40
        E 112 91 45 64
        E 0 91 4d 64
        E 128 81 45 40
        E 0 81 4d 40
        E 16 91 4c 64
        E 0 91 48 64
        E 32 81 4c 40
        E 0 81 48 40
        E 16 91 48 64
        E 0 91 4c 64
        E 176 81 48 40
        E 0 81 4c 40
        E 16 91 46 64
        E 0 91 4a 64
        E 80 81 46 40
        E 0 81 4a 40
        E 112 91 46 64
        E 0 91 4a 64
        E 128 81 46 40
        E 0 81 4a 40
        E 16 91 48 64
        E 0 91 45 64
        E 32 81 48 40
        E 0 81 45 40
        E 16 91 45 64
        E 0 91 48 64
        E 176 81 45 40
        E 0 81 48 40
        E 16 91 46 64
        E 0 91 43 64
        E 80 81 46 40
        E 0 81 43 40
        E 112 91 46 64
        E 0 91 4a 64
        E 128 81 46 40
        E 0 81 4a 40
        E 16 91 4a 64
        E 0 91 46 64
        E 32 81 4a 40
        E 0 81 46 40
        E 16 91 45 64
        E 0 91 48 64
        E 320 81 45 40
        E 0 81 48 40
        E 16 91 41 64
        E 0 91 45 64
        E 32 81 41 40
        E 0 81 45 40
        E 16 91 46 64
        E 0 91 43 64
        E 128 81 46 40
        E 0 81 43 40
        E 16 91 43 64
        E 0 91 40 64
        E 32 81 43 40
        E 0 81 40 40
        E 16 91 46 64
        E 0 91 43 64
        E 176 81 46 40
        E 0 81 43 40
        E 16 91 41 64
        E 0 91 45 64
        E 80 81 41 40
        E 0 81 45 40
        E 112 91 4d 64
        E 0 91 45 64
        E 128 81 4d 40
        E 0 81 45 40
        E 16 91 4c 64
        E 0 91 48 64
        E 32 81 4c 40
        E 0 81 48 40
        E 16 91 48 64
        E 0 91 4c 64
        E 176 81 48 40
        E 0 81 4c 40
        E 16 91 46 64
        E 0 91 4a 64
        E 80 81 46 40
        E 0 81 4a 40
        E 112 91 4a 64
        E 0 91 46 64
        E 128 81 4a 40
        E 0 81 46 40
        E 16 91 45 64
        E 0 91 48 64
        E 32 81 45 40
        E 0 81 48 40
        E 16 91 45 64
        E 0 91 48 64
        E 176 81 45 40
        E 0 81 48 40
        E 16 91 46 64
        E 0 91 43 64
        E 80 81 46 40
        E 0 81 43 40
        E 112 91 46 64
        E 0 91 4a 64
        E 128 81 46 40
        E 0 81 4a 40
        E 16 91 4a 64
        E 0 91 46 64
        E 32 81 4a 40
        E 0 81 46 40
        E 16 91 45 64
        E 0 91 48 64
        E 320 81 45 40
        E 0 81 48 40
        E 16 91 45 64
        E 0 91 41 64
        E 32 81 45 40
        E 0 81 41 40
        E 16 91 46 64
        E 0 91 43 64
        E 128 81 46 40
        E 0 81 43 40
        E 16 91 40 64
        E 0 91 43 64
        E 32 81 40 40
        E 0 81 43 40
        E 16 91 41 64
        E 176 81 41 40
        E 16 91 45 64
        E 0 91 4d 64
        E 0 91 48 64
        E 80 81 45 40
        E 0 81 4d 40
        E 0 81 48 40
        E 112 b0 7b 00
        GUID {6A3F475A-AE83-CD41-8D32-FB4790CE30BC}
        IGNTEMPO 0 120 4 4
        SRCCOLOR 682
        VELLANE -1 108 6
      >
    >
    <ITEM
      POSITION 0
      SNAPOFFS 0
      LENGTH 36
      LOOP 1
      ALLTAKES 0
      FADEIN 1 0 0 1 0 0
      FADEOUT 1 0 0 1 0 0
      MUTE 0
      SEL 0
      YPOS 0.333333 0.166667
      IGUID {68E1AD85-E1A0-C345-8332-919A66D5D670}
      IID 3
      NAME "L.H.                 - National_Anthems_-_Cyprus.mid"
      VOLPAN 1 0 1 -1
      SOFFS 1 2
      PLAYRATE 1 1 0 -1 0 0.0025
      CHANMODE 0
      TAKECOLOR 26173599 B
      GUID {F1794CFE-5D82-4141-B63A-8177DF6DD8B3}
      <SOURCE MIDI
        HASDATA 1 192 QN
        POOLEDEVTS {109C4EA0-5D4E-EA4A-B394-F38178645E2C}
        <X 0 0 0 0 3 "L.H.                "
          /wNMLkguICAgICAgICAgICAgICAgIA==
        >
        E 576 92 35 64
        E 0 92 29 64
        E 80 82 35 40
        E 0 82 29 40
        E 16 92 3c 64
        E 0 92 39 64
        E 0 92 35 64
        E 32 82 3c 40
        E 0 82 39 40
        E 0 82 35 40
        E 16 92 39 64
        E 0 92 3c 64
        E 0 92 35 64
        E 32 82 39 40
        E 0 82 3c 40
        E 0 82 35 40
        E 16 92 35 64
        E 0 92 3c 64
        E 0 92 39 64
        E 80 82 35 40
        E 0 82 3c 40
        E 0 82 39 40
        E 16 92 3c 64
        E 0 92 35 64
        E 0 92 39 64
        E 80 82 3c 40
        E 0 82 35 40
        E 0 82 39 40
        E 16 92 35 64
        E 0 92 3c 64
        E 0 92 39 64
        E 80 82 35 40
        E 0 82 3c 40
        E 0 82 39 40
        E 16 92 3c 64
        E 0 92 35 64
        E 0 92 39 64
        E 80 82 3c 40
        E 0 82 35 40
        E 0 82 39 40
        E 16 92 29 64
        E 80 82 29 40
        E 16 92 35 64
        E 0 92 3c 64
        E 0 92 39 64
        E 32 82 35 40
        E 0 82 3c 40
        E 0 82 39 40
        E 16 92 3c 64
        E 0 92 39 64
        E 0 92 35 64
        E 32 82 3c 40
        E 0 82 39 40
        E 0 82 35 40
        E 16 92 3c 64
        E 0 92 35 64
        E 0 92 39 64
        E 80 82 3c 40
        E 0 82 35 40
        E 0 82 39 40
        E 16 92 35 64
        E 0 92 39 64
        E 0 92 3c 64
        E 80 82 35 40
        E 0 82 39 40
        E 0 82 3c 40
        E 16 92 39 64
        E 0 92 3c 64
        E 0 92 35 64
        E 80 82 39 40
        E 0 82 3c 40
        E 0 82 35 40
        E 16 92 39 64
        E 0 92 3c 64
        E 0 92 35 64
        E 80 82 39 40
        E 0 82 3c 40
        E 0 82 35 40
        E 16 92 2e 64
        E 80 82 2e 40
        E 16 92 3a 64
        E 0 92 37 64
        E 0 92 32 64
        E 32 82 3a 40
        E 0 82 37 40
        E 0 82 32 40
        E 16 92 32 64
        E 0 92 37 64
        E 0 92 3a 64
        E 32 82 32 40
        E 0 82 37 40
        E 0 82 3a 40
        E 16 92 37 64
        E 0 92 3a 64
        E 0 92 32 64
        E 80 82 37 40
        E 0 82 3a 40
        E 0 82 32 40
        E 16 92 3a 64
        E 0 92 32 64
        E 0 92 37 64
        E 80 82 3a 40
        E 0 82 32 40
        E 0 82 37 40
        E 16 92 24 64
        E 0 92 30 64
        E 80 82 24 40
        E 0 82 30 40
        E 16 92 3c 64
        E 0 92 34 64
        E 80 82 3c 40
        E 0 82 34 40
        E 16 92 29 64
        E 80 82 29 40
        E 16 92 3c 64
        E 0 92 35 64
        E 0 92 39 64
        E 32 82 3c 40
        E 0 82 35 40
        E 0 82 39 40
        E 16 92 35 64
        E 0 92 39 64
        E 0 92 3c 64
        E 32 82 35 40
        E 0 82 39 40
        E 0 82 3c 40
        E 16 92 3c 64
        E 0 92 35 64
        E 0 92 39 64
        E 80 82 3c 40
        E 0 82 35 40
        E 0 82 39 40
        E 16 92 39 64
        E 0 92 35 64
        E 0 92 3c 64
        E 80 82 39 40
        E 0 82 35 40
        E 0 82 3c 40
        E 208 92 24 64
        E 0 92 30 64
        E 80 82 24 40
        E 0 82 30 40
        E 16 92 3c 64
        E 0 92 3a 64
        E 0 92 34 64
        E 0 92 37 64
        E 32 82 3c 40
        E 0 82 3a 40
        E 0 82 34 40
        E 0 82 37 40
        E 16 92 3a 64
        E 0 92 34 64
        E 0 92 3c 64
        E 0 92 37 64
        E 32 82 3a 40
        E 0 82 34 40
        E 0 82 3c 40
        E 0 82 37 40
        E 16 92 34 64
        E 0 92 3c 64
        E 0 92 3a 64
        E 0 92 37 64
        E 80 82 34 40
        E 0 82 3c 40
        E 0 82 3a 40
        E 0 82 37 40
        E 16 92 34 64
        E 0 92 3a 64
        E 0 92 3c 64
        E 0 92 37 64
        E 80 82 34 40
        E 0 82 3a 40
        E 0 82 3c 40
        E 0 82 37 40
        E 16 92 3a 64
        E 0 92 34 64
        E 0 92 3c 64
        E 0 92 37 64
        E 80 82 3a 40
        E 0 82 34 40
        E 0 82 3c 40
        E 0 82 37 40
        E 16 92 3a 64
        E 0 92 34 64
        E 0 92 3c 64
        E 0 92 37 64
        E 80 82 3a 40
        E 0 82 34 40
        E 0 82 3c 40
        E 0 82 37 40
        E 16 92 30 64
        E 0 92 24 64
        E 80 82 30 40
        E 0 82 24 40
        E 16 92 34 64
        E 0 92 3a 64
        E 0 92 3c 64
        E 0 92 37 64
        E 32 82 34 40
        E 0 82 3a 40
        E 0 82 3c 40
        E 0 82 37 40
        E 16 92 3a 64
        E 0 92 34 64
        E 0 92 37 64
        E 0 92 3c 64
        E 32 82 3a 40
        E 0 82 34 40
        E 0 82 37 40
        E 0 82 3c 40
        E 16 92 3a 64
        E 0 92 34 64
        E 0 92 37 64
        E 0 92 3c 64
        E 80 82 3a 40
        E 0 82 34 40
        E 0 82 37 40
        E 0 82 3c 40
        E 16 92 34 64
        E 0 92 3a 64
        E 0 92 37 64
        E 0 92 3c 64
        E 80 82 34 40
        E 0 82 3a 40
        E 0 82 37 40
        E 0 82 3c 40
        E 16 92 3a 64
        E 0 92 34 64
        E 0 92 3c 64
        E 0 92 37 64
        E 80 82 3a 40
        E 0 82 34 40
        E 0 82 3c 40
        E 0 82 37 40
        E 16 92 3a 64
        E 0 92 34 64
        E 0 92 3c 64
        E 0 92 37 64
        E 80 82 3a 40
        E 0 82 34 40
        E 0 82 3c 40
        E 0 82 37 40
        E 16 92 24 64
        E 0 92 30 64
        E 80 82 24 40
        E 0 82 30 40
        E 16 92 3a 64
        E 0 92 34 64
        E 0 92 3c 64
        E 0 92 37 64
        E 32 82 3a 40
        E 0 82 34 40
        E 0 82 3c 40
        E 0 82 37 40
        E 16 92 34 64
        E 0 92 3a 64
        E 0 92 37 64
        E 0 92 3c 64
        E 32 82 34 40
        E 0 82 3a 40
        E 0 82 37 40
        E 0 82 3c 40
        E 16 92 3a 64
        E 0 92 34 64
        E 0 92 3c 64
        E 0 92 37 64
        E 80 82 3a 40
        E 0 82 34 40
        E 0 82 3c 40
        E 0 82 37 40
        E 16 92 3a 64
        E 0 92 34 64
        E 0 92 37 64
        E 0 92 3c 64
        E 80 82 3a 40
        E 0 82 34 40
        E 0 82 37 40
        E 0 82 3c 40
        E 16 92 3a 64
        E 0 92 3c 64
        E 0 92 34 64
        E 0 92 37 64
        E 80 82 3a 40
        E 0 82 3c 40
        E 0 82 34 40
        E 0 82 37 40
        E 16 92 3a 64
        E 0 92 34 64
        E 0 92 3c 64
        E 0 92 37 64
        E 80 82 3a 40
        E 0 82 34 40
        E 0 82 3c 40
        E 0 82 37 40
        E 16 92 29 64
        E 80 82 29 40
        E 16 92 35 64
        E 0 92 3c 64
        E 0 92 39 64
        E 32 82 35 40
        E 0 82 3c 40
        E 0 82 39 40
        E 16 92 35 64
        E 0 92 39 64
        E 0 92 3c 64
        E 32 82 35 40
        E 0 82 39 40
        E 0 82 3c 40
        E 16 92 39 64
        E 0 92 35 64
        E 0 92 3c 64
        E 176 82 39 40
        E 0 82 35 40
        E 0 82 3c 40
        E 208 92 26 64
        E 80 82 26 40
        E 16 92 32 64
        E 0 92 39 64
        E 0 92 35 64
        E 32 82 32 40
        E 0 82 39 40
        E 0 82 35 40
        E 16 92 32 64
        E 0 92 35 64
        E 0 92 39 64
        E 32 82 32 40
        E 0 82 35 40
        E 0 82 39 40
        E 16 92 32 64
        E 0 92 35 64
        E 0 92 39 64
        E 80 82 32 40
        E 0 82 35 40
        E 0 82 39 40
        E 16 92 32 64
        E 0 92 35 64
        E 0 92 39 64
        E 80 82 32 40
        E 0 82 35 40
        E 0 82 39 40
        E 16 92 2d 64
        E 80 82 2d 40
        E 16 92 39 64
        E 0 92 34 64
        E 0 92 37 64
        E 80 82 39 40
        E 0 82 34 40
        E 0 82 37 40
        E 16 92 26 64
        E 80 82 26 40
        E 16 92 32 64
        E 0 92 39 64
        E 0 92 35 64
        E 32 82 32 40
        E 0 82 39 40
        E 0 82 35 40
        E 16 92 32 64
        E 0 92 39 64
        E 0 92 35 64
        E 32 82 32 40
        E 0 82 39 40
        E 0 82 35 40
        E 16 92 32 64
        E 0 92 35 64
        E 0 92 39 64
        E 80 82 32 40
        E 0 82 35 40
        E 0 82 39 40
        E 16 92 32 64
        E 0 92 35 64
        E 0 92 39 64
        E 80 82 32 40
        E 0 82 35 40
        E 0 82 39 40
        E 16 92 32 64
        E 0 92 35 64
        E 0 92 39 64
        E 80 82 32 40
        E 0 82 35 40
        E 0 82 39 40
        E 16 92 32 64
        E 0 92 35 64
        E 0 92 39 64
        E 80 82 32 40
        E 0 82 35 40
        E 0 82 39 40
        E 16 92 26 64
        E 80 82 26 40
        E 16 92 32 64
        E 0 92 39 64
        E 0 92 35 64
        E 32 82 32 40
        E 0 82 39 40
        E 0 82 35 40
        E 16 92 32 64
        E 0 92 39 64
        E 0 92 35 64
        E 32 82 32 40
        E 0 82 39 40
        E 0 82 35 40
        E 16 92 32 64
        E 0 92 39 64
        E 0 92 35 64
        E 80 82 32 40
        E 0 82 39 40
        E 0 82 35 40
        E 16 92 35 64
        E 0 92 32 64
        E 0 92 39 64
        E 80 82 35 40
        E 0 82 32 40
        E 0 82 39 40
        E 16 92 2d 64
        E 80 82 2d 40
        E 16 92 34 64
        E 0 92 39 64
        E 0 92 37 64
        E 80 82 34 40
        E 0 82 39 40
        E 0 82 37 40
        E 16 92 26 64
        E 80 82 26 40
        E 16 92 39 64
        E 0 92 32 64
        E 0 92 35 64
        E 32 82 39 40
        E 0 82 32 40
        E 0 82 35 40
        E 16 92 35 64
        E 0 92 32 64
        E 0 92 39 64
        E 32 82 35 40
        E 0 82 32 40
        E 0 82 39 40
        E 16 92 39 64
        E 0 92 32 64
        E 0 92 35 64
        E 80 82 39 40
        E 0 82 32 40
        E 0 82 35 40
        E 304 92 3a 64
        E 0 92 34 64
        E 80 82 3a 40
        E 0 82 34 40
        E 112 92 30 64
        E 0 92 3a 64
        E 0 92 34 64
        E 80 82 30 40
        E 0 82 3a 40
        E 0 82 34 40
        E 16 92 30 64
        E 80 82 30 40
        E 16 92 3a 64
        E 0 92 34 64
        E 80 82 3a 40
        E 0 82 34 40
        E 16 92 30 64
        E 80 82 30 40
        E 16 92 39 64
        E 0 92 35 64
        E 80 82 39 40
        E 0 82 35 40
        E 16 92 30 64
        E 80 82 30 40
        E 16 92 35 64
        E 0 92 39 64
        E 80 82 35 40
        E 0 82 39 40
        E 16 92 30 64
        E 80 82 30 40
        E 16 92 35 64
        E 0 92 39 64
        E 80 82 35 40
        E 0 82 39 40
        E 16 92 30 64
        E 80 82 30 40
        E 16 92 3a 64
        E 0 92 34 64
        E 80 82 3a 40
        E 0 82 34 40
        E 16 92 30 64
        E 80 82 30 40
        E 16 92 3a 64
        E 0 92 34 64
        E 80 82 3a 40
        E 0 82 34 40
        E 16 92 30 64
        E 80 82 30 40
        E 16 92 3a 64
        E 0 92 34 64
        E 80 82 3a 40
        E 0 82 34 40
        E 16 92 30 64
        E 80 82 30 40
        E 16 92 29 64
        E 80 82 29 40
        E 16 92 30 64
        E 0 92 39 64
        E 0 92 35 64
        E 32 82 30 40
        E 0 82 39 40
        E 0 82 35 40
        E 16 92 30 64
        E 0 92 39 64
        E 0 92 35 64
        E 32 82 30 40
        E 0 82 39 40
        E 0 82 35 40
        E 16 92 30 64
        E 0 92 39 64
        E 0 92 35 64
        E 80 82 30 40
        E 0 82 39 40
        E 0 82 35 40
        E 304 92 2e 64
        E 80 82 2e 40
        E 16 92 3a 64
        E 0 92 32 64
        E 0 92 35 64
        E 32 82 3a 40
        E 0 82 32 40
        E 0 82 35 40
        E 16 92 3a 64
        E 0 92 32 64
        E 0 92 35 64
        E 32 82 3a 40
        E 0 82 32 40
        E 0 82 35 40
        E 16 92 3a 64
        E 0 92 32 64
        E 0 92 35 64
        E 80 82 3a 40
        E 0 82 32 40
        E 0 82 35 40
        E 16 92 3a 64
        E 0 92 32 64
        E 0 92 35 64
        E 80 82 3a 40
        E 0 82 32 40
        E 0 82 35 40
        E 16 92 26 64
        E 80 82 26 40
        E 16 92 36 64
        E 0 92 39 64
        E 0 92 32 64
        E 80 82 36 40
        E 0 82 39 40
        E 0 82 32 40
        E 16 92 2b 64
        E 80 82 2b 40
        E 16 92 32 64
        E 0 92 2e 64
        E 0 92 37 64
        E 32 82 32 40
        E 0 82 2e 40
        E 0 82 37 40
        E 16 92 37 64
        E 0 92 2e 64
        E 0 92 32 64
        E 32 82 37 40
        E 0 82 2e 40
        E 0 82 32 40
        E 16 92 32 64
        E 0 92 2e 64
        E 0 92 37 64
        E 80 82 32 40
        E 0 82 2e 40
        E 0 82 37 40
        E 16 92 32 64
        E 0 92 37 64
        E 0 92 2e 64
        E 80 82 32 40
        E 0 82 37 40
        E 0 82 2e 40
        E 16 92 2e 64
        E 80 82 2e 40
        E 16 92 37 64
        E 0 92 32 64
        E 80 82 37 40
        E 0 82 32 40
        E 16 92 30 64
        E 80 82 30 40
        E 16 92 35 64
        E 0 92 39 64
        E 32 82 35 40
        E 0 82 39 40
        E 16 92 35 64
        E 0 92 39 64
        E 32 82 35 40
        E 0 82 39 40
        E 16 92 39 64
        E 0 92 35 64
        E 80 82 39 40
        E 0 82 35 40
        E 16 92 35 64
        E 0 92 39 64
        E 80 82 35 40
        E 0 82 39 40
        E 16 92 30 64
        E 80 82 30 40
        E 16 92 3a 64
        E 0 92 34 64
        E 0 92 37 64
        E 80 82 3a 40
        E 0 82 34 40
        E 0 82 37 40
        E 16 92 29 64
        E 80 82 29 40
        E 16 92 30 64
        E 0 92 35 64
        E 0 92 39 64
        E 32 82 30 40
        E 0 82 35 40
        E 0 82 39 40
        E 16 92 30 64
        E 0 92 35 64
        E 0 92 39 64
        E 32 82 30 40
        E 0 82 35 40
        E 0 82 39 40
        E 16 92 30 64
        E 0 92 35 64
        E 0 92 39 64
        E 80 82 30 40
        E 0 82 35 40
        E 0 82 39 40
        E 16 92 30 64
        E 0 92 35 64
        E 0 92 39 64
        E 80 82 30 40
        E 0 82 35 40
        E 0 82 39 40
        E 16 92 30 64
        E 0 92 35 64
        E 0 92 39 64
        E 80 82 30 40
        E 0 82 35 40
        E 0 82 39 40
        E 16 92 30 64
        E 0 92 39 64
        E 0 92 35 64
        E 80 82 30 40
        E 0 82 39 40
        E 0 82 35 40
        E 16 92 2e 64
        E 80 82 2e 40
        E 16 92 3a 64
        E 0 92 32 64
        E 0 92 35 64
        E 32 82 3a 40
        E 0 82 32 40
        E 0 82 35 40
        E 16 92 32 64
        E 0 92 3a 64
        E 0 92 35 64
        E 32 82 32 40
        E 0 82 3a 40
        E 0 82 35 40
        E 16 92 32 64
        E 0 92 3a 64
        E 0 92 35 64
        E 80 82 32 40
        E 0 82 3a 40
        E 0 82 35 40
        E 16 92 32 64
        E 0 92 3a 64
        E 0 92 35 64
        E 80 82 32 40
        E 0 82 3a 40
        E 0 82 35 40
        E 16 92 26 64
        E 80 82 26 40
        E 16 92 39 64
        E 0 92 36 64
        E 0 92 32 64
        E 80 82 39 40
        E 0 82 36 40
        E 0 82 32 40
        E 16 92 2b 64
        E 80 82 2b 40
        E 16 92 2e 64
        E 0 92 37 64
        E 0 92 32 64
        E 32 82 2e 40
        E 0 82 37 40
        E 0 82 32 40
        E 16 92 32 64
        E 0 92 2e 64
        E 0 92 37 64
        E 32 82 32 40
        E 0 82 2e 40
        E 0 82 37 40
        E 16 92 2e 64
        E 0 92 37 64
        E 0 92 32 64
        E 80 82 2e 40
        E 0 82 37 40
        E 0 82 32 40
        E 16 92 2e 64
        E 0 92 37 64
        E 0 92 32 64
        E 80 82 2e 40
        E 0 82 37 40
        E 0 82 32 40
        E 16 92 2e 64
        E 80 82 2e 40
        E 16 92 37 64
        E 0 92 32 64
        E 80 82 37 40
        E 0 82 32 40
        E 16 92 30 64
        E 80 82 30 40
        E 16 92 35 64
        E 0 92 39 64
        E 32 82 35 40
        E 0 82 39 40
        E 16 92 35 64
        E 0 92 39 64
        E 32 82 35 40
        E 0 82 39 40
        E 16 92 35 64
        E 0 92 39 64
        E 80 82 35 40
        E 0 82 39 40
        E 16 92 35 64
        E 0 92 39 64
        E 80 82 35 40
        E 0 82 39 40
        E 16 92 30 64
        E 80 82 30 40
        E 16 92 3a 64
        E 0 92 37 64
        E 80 82 3a 40
        E 0 82 37 40
        E 16 92 35 64
        E 0 92 39 64
        E 176 82 35 40
        E 0 82 39 40
        E 16 92 29 64
        E 0 92 35 64
        E 80 82 29 40
        E 0 82 35 40
        E 112 b0 7b 00
        GUID {E1646D04-DB3C-D348-8FD9-EEAE54FB9607}
        IGNTEMPO 0 120 4 4
        SRCCOLOR 630
        VELLANE -1 86 6
      >
      TAKE
      NAME "L.H.                 - National_Anthems_-_Cyprus.mid"
      TAKEVOLPAN 0 1 -1
      SOFFS 1 2
      PLAYRATE 1 1 0 -1 0 0.0025
      CHANMODE 0
      GUID {BE25C70F-EC0E-6142-AE55-A9B50802B3E7}
      <SOURCE MIDI
        HASDATA 1 192 QN
        POOLEDEVTS {F7247B2C-DA96-9A4B-90CE-04898E70CE76}
        <X 0 0 0 0 3 "L.H.                "
          /wNMLkguICAgICAgICAgICAgICAgIA==
        >
        E 576 92 35 64
        E 0 92 29 64
        E 80 82 35 40
        E 0 82 29 40
        E 16 92 3c 64
        E 0 92 39 64
        E 0 92 35 64
        E 32 82 3c 40
        E 0 82 39 40
        E 0 82 35 40
        E 16 92 39 64
        E 0 92 3c 64
        E 0 92 35 64
        E 32 82 39 40
        E 0 82 3c 40
        E 0 82 35 40
        E 16 92 35 64
        E 0 92 3c 64
        E 0 92 39 64
        E 80 82 35 40
        E 0 82 3c 40
        E 0 82 39 40
        E 16 92 3c 64
        E 0 92 35 64
        E 0 92 39 64
        E 80 82 3c 40
        E 0 82 35 40
        E 0 82 39 40
        E 16 92 35 64
        E 0 92 3c 64
        E 0 92 39 64
        E 80 82 35 40
        E 0 82 3c 40
        E 0 82 39 40
        E 16 92 3c 64
        E 0 92 35 64
        E 0 92 39 64
        E 80 82 3c 40
        E 0 82 35 40
        E 0 82 39 40
        E 16 92 29 64
        E 80 82 29 40
        E 16 92 35 64
        E 0 92 3c 64
        E 0 92 39 64
        E 32 82 35 40
        E 0 82 3c 40
        E 0 82 39 40
        E 16 92 3c 64
        E 0 92 39 64
        E 0 92 35 64
        E 32 82 3c 40
        E 0 82 39 40
        E 0 82 35 40
        E 16 92 3c 64
        E 0 92 35 64
        E 0 92 39 64
        E 80 82 3c 40
        E 0 82 35 40
        E 0 82 39 40
        E 16 92 35 64
        E 0 92 39 64
        E 0 92 3c 64
        E 80 82 35 40
        E 0 82 39 40
        E 0 82 3c 40
        E 16 92 39 64
        E 0 92 3c 64
        E 0 92 35 64
        E 80 82 39 40
        E 0 82 3c 40
        E 0 82 35 40
        E 16 92 39 64
        E 0 92 3c 64
        E 0 92 35 64
        E 80 82 39 40
        E 0 82 3c 40
        E 0 82 35 40
        E 16 92 2e 64
        E 80 82 2e 40
        E 16 92 3a 64
        E 0 92 37 64
        E 0 92 32 64
        E 32 82 3a 40
        E 0 82 37 40
        E 0 82 32 40
        E 16 92 32 64
        E 0 92 37 64
        E 0 92 3a 64
        E 32 82 32 40
        E 0 82 37 40
        E 0 82 3a 40
        E 16 92 37 64
        E 0 92 3a 64
        E 0 92 32 64
        E 80 82 37 40
        E 0 82 3a 40
        E 0 82 32 40
        E 16 92 3a 64
        E 0 92 32 64
        E 0 92 37 64
        E 80 82 3a 40
        E 0 82 32 40
        E 0 82 37 40
        E 16 92 24 64
        E 0 92 30 64
        E 80 82 24 40
        E 0 82 30 40
        E 16 92 3c 64
        E 0 92 34 64
        E 80 82 3c 40
        E 0 82 34 40
        E 16 92 29 64
        E 80 82 29 40
        E 16 92 3c 64
        E 0 92 35 64
        E 0 92 39 64
        E 32 82 3c 40
        E 0 82 35 40
        E 0 82 39 40
        E 16 92 35 64
        E 0 92 39 64
        E 0 92 3c 64
        E 32 82 35 40
        E 0 82 39 40
        E 0 82 3c 40
        E 16 92 3c 64
        E 0 92 35 64
        E 0 92 39 64
        E 80 82 3c 40
        E 0 82 35 40
        E 0 82 39 40
        E 16 92 39 64
        E 0 92 35 64
        E 0 92 3c 64
        E 80 82 39 40
        E 0 82 35 40
        E 0 82 3c 40
        E 208 92 24 64
        E 0 92 30 64
        E 80 82 24 40
        E 0 82 30 40
        E 16 92 3c 64
        E 0 92 3a 64
        E 0 92 34 64
        E 0 92 37 64
        E 32 82 3c 40
        E 0 82 3a 40
        E 0 82 34 40
        E 0 82 37 40
        E 16 92 3a 64
        E 0 92 34 64
        E 0 92 3c 64
        E 0 92 37 64
        E 32 82 3a 40
        E 0 82 34 40
        E 0 82 3c 40
        E 0 82 37 40
        E 16 92 34 64
        E 0 92 3c 64
        E 0 92 3a 64
        E 0 92 37 64
        E 80 82 34 40
        E 0 82 3c 40
        E 0 82 3a 40
        E 0 82 37 40
        E 16 92 34 64
        E 0 92 3a 64
        E 0 92 3c 64
        E 0 92 37 64
        E 80 82 34 40
        E 0 82 3a 40
        E 0 82 3c 40
        E 0 82 37 40
        E 16 92 3a 64
        E 0 92 34 64
        E 0 92 3c 64
        E 0 92 37 64
        E 80 82 3a 40
        E 0 82 34 40
        E 0 82 3c 40
        E 0 82 37 40
        E 16 92 3a 64
        E 0 92 34 64
        E 0 92 3c 64
        E 0 92 37 64
        E 80 82 3a 40
        E 0 82 34 40
        E 0 82 3c 40
        E 0 82 37 40
        E 16 92 30 64
        E 0 92 24 64
        E 80 82 30 40
        E 0 82 24 40
        E 16 92 34 64
        E 0 92 3a 64
        E 0 92 3c 64
        E 0 92 37 64
        E 32 82 34 40
        E 0 82 3a 40
        E 0 82 3c 40
        E 0 82 37 40
        E 16 92 3a 64
        E 0 92 34 64
        E 0 92 37 64
        E 0 92 3c 64
        E 32 82 3a 40
        E 0 82 34 40
        E 0 82 37 40
        E 0 82 3c 40
        E 16 92 3a 64
        E 0 92 34 64
        E 0 92 37 64
        E 0 92 3c 64
        E 80 82 3a 40
        E 0 82 34 40
        E 0 82 37 40
        E 0 82 3c 40
        E 16 92 34 64
        E 0 92 3a 64
        E 0 92 37 64
        E 0 92 3c 64
        E 80 82 34 40
        E 0 82 3a 40
        E 0 82 37 40
        E 0 82 3c 40
        E 16 92 3a 64
        E 0 92 34 64
        E 0 92 3c 64
        E 0 92 37 64
        E 80 82 3a 40
        E 0 82 34 40
        E 0 82 3c 40
        E 0 82 37 40
        E 16 92 3a 64
        E 0 92 34 64
        E 0 92 3c 64
        E 0 92 37 64
        E 80 82 3a 40
        E 0 82 34 40
        E 0 82 3c 40
        E 0 82 37 40
        E 16 92 24 64
        E 0 92 30 64
        E 80 82 24 40
        E 0 82 30 40
        E 16 92 3a 64
        E 0 92 34 64
        E 0 92 3c 64
        E 0 92 37 64
        E 32 82 3a 40
        E 0 82 34 40
        E 0 82 3c 40
        E 0 82 37 40
        E 16 92 34 64
        E 0 92 3a 64
        E 0 92 37 64
        E 0 92 3c 64
        E 32 82 34 40
        E 0 82 3a 40
        E 0 82 37 40
        E 0 82 3c 40
        E 16 92 3a 64
        E 0 92 34 64
        E 0 92 3c 64
        E 0 92 37 64
        E 80 82 3a 40
        E 0 82 34 40
        E 0 82 3c 40
        E 0 82 37 40
        E 16 92 3a 64
        E 0 92 34 64
        E 0 92 37 64
        E 0 92 3c 64
        E 80 82 3a 40
        E 0 82 34 40
        E 0 82 37 40
        E 0 82 3c 40
        E 16 92 3a 64
        E 0 92 3c 64
        E 0 92 34 64
        E 0 92 37 64
        E 80 82 3a 40
        E 0 82 3c 40
        E 0 82 34 40
        E 0 82 37 40
        E 16 92 3a 64
        E 0 92 34 64
        E 0 92 3c 64
        E 0 92 37 64
        E 80 82 3a 40
        E 0 82 34 40
        E 0 82 3c 40
        E 0 82 37 40
        E 16 92 29 64
        E 80 82 29 40
        E 16 92 35 64
        E 0 92 3c 64
        E 0 92 39 64
        E 32 82 35 40
        E 0 82 3c 40
        E 0 82 39 40
        E 16 92 35 64
        E 0 92 39 64
        E 0 92 3c 64
        E 32 82 35 40
        E 0 82 39 40
        E 0 82 3c 40
        E 16 92 39 64
        E 0 92 35 64
        E 0 92 3c 64
        E 176 82 39 40
        E 0 82 35 40
        E 0 82 3c 40
        E 208 92 26 64
        E 80 82 26 40
        E 16 92 32 64
        E 0 92 39 64
        E 0 92 35 64
        E 32 82 32 40
        E 0 82 39 40
        E 0 82 35 40
        E 16 92 32 64
        E 0 92 35 64
        E 0 92 39 64
        E 32 82 32 40
        E 0 82 35 40
        E 0 82 39 40
        E 16 92 32 64
        E 0 92 35 64
        E 0 92 39 64
        E 80 82 32 40
        E 0 82 35 40
        E 0 82 39 40
        E 16 92 32 64
        E 0 92 35 64
        E 0 92 39 64
        E 80 82 32 40
        E 0 82 35 40
        E 0 82 39 40
        E 16 92 2d 64
        E 80 82 2d 40
        E 16 92 39 64
        E 0 92 34 64
        E 0 92 37 64
        E 80 82 39 40
        E 0 82 34 40
        E 0 82 37 40
        E 16 92 26 64
        E 80 82 26 40
        E 16 92 32 64
        E 0 92 39 64
        E 0 92 35 64
        E 32 82 32 40
        E 0 82 39 40
        E 0 82 35 40
        E 16 92 32 64
        E 0 92 39 64
        E 0 92 35 64
        E 32 82 32 40
        E 0 82 39 40
        E 0 82 35 40
        E 16 92 32 64
        E 0 92 35 64
        E 0 92 39 64
        E 80 82 32 40
        E 0 82 35 40
        E 0 82 39 40
        E 16 92 32 64
        E 0 92 35 64
        E 0 92 39 64
        E 80 82 32 40
        E 0 82 35 40
        E 0 82 39 40
        E 16 92 32 64
        E 0 92 35 64
        E 0 92 39 64
        E 80 82 32 40
        E 0 82 35 40
        E 0 82 39 40
        E 16 92 32 64
        E 0 92 35 64
        E 0 92 39 64
        E 80 82 32 40
        E 0 82 35 40
        E 0 82 39 40
        E 16 92 26 64
        E 80 82 26 40
        E 16 92 32 64
        E 0 92 39 64
        E 0 92 35 64
        E 32 82 32 40
        E 0 82 39 40
        E 0 82 35 40
        E 16 92 32 64
        E 0 92 39 64
        E 0 92 35 64
        E 32 82 32 40
        E 0 82 39 40
        E 0 82 35 40
        E 16 92 32 64
        E 0 92 39 64
        E 0 92 35 64
        E 80 82 32 40
        E 0 82 39 40
        E 0 82 35 40
        E 16 92 35 64
        E 0 92 32 64
        E 0 92 39 64
        E 80 82 35 40
        E 0 82 32 40
        E 0 82 39 40
        E 16 92 2d 64
        E 80 82 2d 40
        E 16 92 34 64
        E 0 92 39 64
        E 0 92 37 64
        E 80 82 34 40
        E 0 82 39 40
        E 0 82 37 40
        E 16 92 26 64
        E 80 82 26 40
        E 16 92 39 64
        E 0 92 32 64
        E 0 92 35 64
        E 32 82 39 40
        E 0 82 32 40
        E 0 82 35 40
        E 16 92 35 64
        E 0 92 32 64
        E 0 92 39 64
        E 32 82 35 40
        E 0 82 32 40
        E 0 82 39 40
        E 16 92 39 64
        E 0 92 32 64
        E 0 92 35 64
        E 80 82 39 40
        E 0 82 32 40
        E 0 82 35 40
        E 304 92 3a 64
        E 0 92 34 64
        E 80 82 3a 40
        E 0 82 34 40
        E 112 92 30 64
        E 0 92 3a 64
        E 0 92 34 64
        E 80 82 30 40
        E 0 82 3a 40
        E 0 82 34 40
        E 16 92 30 64
        E 80 82 30 40
        E 16 92 3a 64
        E 0 92 34 64
        E 80 82 3a 40
        E 0 82 34 40
        E 16 92 30 64
        E 80 82 30 40
        E 16 92 39 64
        E 0 92 35 64
        E 80 82 39 40
        E 0 82 35 40
        E 16 92 30 64
        E 80 82 30 40
        E 16 92 35 64
        E 0 92 39 64
        E 80 82 35 40
        E 0 82 39 40
        E 16 92 30 64
        E 80 82 30 40
        E 16 92 35 64
        E 0 92 39 64
        E 80 82 35 40
        E 0 82 39 40
        E 16 92 30 64
        E 80 82 30 40
        E 16 92 3a 64
        E 0 92 34 64
        E 80 82 3a 40
        E 0 82 34 40
        E 16 92 30 64
        E 80 82 30 40
        E 16 92 3a 64
        E 0 92 34 64
        E 80 82 3a 40
        E 0 82 34 40
        E 16 92 30 64
        E 80 82 30 40
        E 16 92 3a 64
        E 0 92 34 64
        E 80 82 3a 40
        E 0 82 34 40
        E 16 92 30 64
        E 80 82 30 40
        E 16 92 29 64
        E 80 82 29 40
        E 16 92 30 64
        E 0 92 39 64
        E 0 92 35 64
        E 32 82 30 40
        E 0 82 39 40
        E 0 82 35 40
        E 16 92 30 64
        E 0 92 39 64
        E 0 92 35 64
        E 32 82 30 40
        E 0 82 39 40
        E 0 82 35 40
        E 16 92 30 64
        E 0 92 39 64
        E 0 92 35 64
        E 80 82 30 40
        E 0 82 39 40
        E 0 82 35 40
        E 304 92 2e 64
        E 80 82 2e 40
        E 16 92 3a 64
        E 0 92 32 64
        E 0 92 35 64
        E 32 82 3a 40
        E 0 82 32 40
        E 0 82 35 40
        E 16 92 3a 64
        E 0 92 32 64
        E 0 92 35 64
        E 32 82 3a 40
        E 0 82 32 40
        E 0 82 35 40
        E 16 92 3a 64
        E 0 92 32 64
        E 0 92 35 64
        E 80 82 3a 40
        E 0 82 32 40
        E 0 82 35 40
        E 16 92 3a 64
        E 0 92 32 64
        E 0 92 35 64
        E 80 82 3a 40
        E 0 82 32 40
        E 0 82 35 40
        E 16 92 26 64
        E 80 82 26 40
        E 16 92 36 64
        E 0 92 39 64
        E 0 92 32 64
        E 80 82 36 40
        E 0 82 39 40
        E 0 82 32 40
        E 16 92 2b 64
        E 80 82 2b 40
        E 16 92 32 64
        E 0 92 2e 64
        E 0 92 37 64
        E 32 82 32 40
        E 0 82 2e 40
        E 0 82 37 40
        E 16 92 37 64
        E 0 92 2e 64
        E 0 92 32 64
        E 32 82 37 40
        E 0 82 2e 40
        E 0 82 32 40
        E 16 92 32 64
        E 0 92 2e 64
        E 0 92 37 64
        E 80 82 32 40
        E 0 82 2e 40
        E 0 82 37 40
        E 16 92 32 64
        E 0 92 37 64
        E 0 92 2e 64
        E 80 82 32 40
        E 0 82 37 40
        E 0 82 2e 40
        E 16 92 2e 64
        E 80 82 2e 40
        E 16 92 37 64
        E 0 92 32 64
        E 80 82 37 40
        E 0 82 32 40
        E 16 92 30 64
        E 80 82 30 40
        E 16 92 35 64
        E 0 92 39 64
        E 32 82 35 40
        E 0 82 39 40
        E 16 92 35 64
        E 0 92 39 64
        E 32 82 35 40
        E 0 82 39 40
        E 16 92 39 64
        E 0 92 35 64
        E 80 82 39 40
        E 0 82 35 40
        E 16 92 35 64
        E 0 92 39 64
        E 80 82 35 40
        E 0 82 39 40
        E 16 92 30 64
        E 80 82 30 40
        E 16 92 3a 64
        E 0 92 34 64
        E 0 92 37 64
        E 80 82 3a 40
        E 0 82 34 40
        E 0 82 37 40
        E 16 92 29 64
        E 80 82 29 40
        E 16 92 30 64
        E 0 92 35 64
        E 0 92 39 64
        E 32 82 30 40
        E 0 82 35 40
        E 0 82 39 40
        E 16 92 30 64
        E 0 92 35 64
        E 0 92 39 64
        E 32 82 30 40
        E 0 82 35 40
        E 0 82 39 40
        E 16 92 30 64
        E 0 92 35 64
        E 0 92 39 64
        E 80 82 30 40
        E 0 82 35 40
        E 0 82 39 40
        E 16 92 30 64
        E 0 92 35 64
        E 0 92 39 64
        E 80 82 30 40
        E 0 82 35 40
        E 0 82 39 40
        E 16 92 30 64
        E 0 92 35 64
        E 0 92 39 64
        E 80 82 30 40
        E 0 82 35 40
        E 0 82 39 40
        E 16 92 30 64
        E 0 92 39 64
        E 0 92 35 64
        E 80 82 30 40
        E 0 82 39 40
        E 0 82 35 40
        E 16 92 2e 64
        E 80 82 2e 40
        E 16 92 3a 64
        E 0 92 32 64
        E 0 92 35 64
        E 32 82 3a 40
        E 0 82 32 40
        E 0 82 35 40
        E 16 92 32 64
        E 0 92 3a 64
        E 0 92 35 64
        E 32 82 32 40
        E 0 82 3a 40
        E 0 82 35 40
        E 16 92 32 64
        E 0 92 3a 64
        E 0 92 35 64
        E 80 82 32 40
        E 0 82 3a 40
        E 0 82 35 40
        E 16 92 32 64
        E 0 92 3a 64
        E 0 92 35 64
        E 80 82 32 40
        E 0 82 3a 40
        E 0 82 35 40
        E 16 92 26 64
        E 80 82 26 40
        E 16 92 39 64
        E 0 92 36 64
        E 0 92 32 64
        E 80 82 39 40
        E 0 82 36 40
        E 0 82 32 40
        E 16 92 2b 64
        E 80 82 2b 40
        E 16 92 2e 64
        E 0 92 37 64
        E 0 92 32 64
        E 32 82 2e 40
        E 0 82 37 40
        E 0 82 32 40
        E 16 92 32 64
        E 0 92 2e 64
        E 0 92 37 64
        E 32 82 32 40
        E 0 82 2e 40
        E 0 82 37 40
        E 16 92 2e 64
        E 0 92 37 64
        E 0 92 32 64
        E 80 82 2e 40
        E 0 82 37 40
        E 0 82 32 40
        E 16 92 2e 64
        E 0 92 37 64
        E 0 92 32 64
        E 80 82 2e 40
        E 0 82 37 40
        E 0 82 32 40
        E 16 92 2e 64
        E 80 82 2e 40
        E 16 92 37 64
        E 0 92 32 64
        E 80 82 37 40
        E 0 82 32 40
        E 16 92 30 64
        E 80 82 30 40
        E 16 92 35 64
        E 0 92 39 64
        E 32 82 35 40
        E 0 82 39 40
        E 16 92 35 64
        E 0 92 39 64
        E 32 82 35 40
        E 0 82 39 40
        E 16 92 35 64
        E 0 92 39 64
        E 80 82 35 40
        E 0 82 39 40
        E 16 92 35 64
        E 0 92 39 64
        E 80 82 35 40
        E 0 82 39 40
        E 16 92 30 64
        E 80 82 30 40
        E 16 92 3a 64
        E 0 92 37 64
        E 80 82 3a 40
        E 0 82 37 40
        E 16 92 35 64
        E 0 92 39 64
        E 176 82 35 40
        E 0 82 39 40
        E 16 92 29 64
        E 0 92 35 64
        E 80 82 29 40
        E 0 82 35 40
        E 112 b0 7b 00
        GUID {3D1A3879-5EC1-F541-A48D-A174F8CFADBC}
        IGNTEMPO 0 120 4 4
        SRCCOLOR 683
        VELLANE -1 108 6
      >
    >
    <ITEM
      POSITION 0
      SNAPOFFS 0
      LENGTH 36
      LOOP 1
      ALLTAKES 0
      FADEIN 1 0 0 1 0 0
      FADEOUT 1 0 0 1 0 0
      MUTE 0
      SEL 0
      YPOS 0.666667 0.166667
      IGUID {D056CC99-8F71-6844-BE26-23FD3C9DE12B}
      IID 5
      NAME "RH                   - National_Anthems_-_Cyprus.mid"
      VOLPAN 1 0 1 -1
      SOFFS 1 2
      PLAYRATE 1 1 0 -1 0 0.0025
      CHANMODE 0
      TAKECOLOR 26173599 B
      GUID {65D07931-56E3-EB4D-B2C1-9CF21F56E52B}
      <SOURCE MIDI
        HASDATA 1 192 QN
        POOLEDEVTS {13649FBF-28A0-5346-883F-6B1C57A23F88}
        <X 0 0 0 0 3 "RH                  "
          /wNSSCAgICAgICAgICAgICAgICAgIA==
        >
        E 384 9c 41 7f
        E 0 9c 45 7f
        E 128 8c 41 40
        E 0 8c 45 40
        E 16 9c 46 7f
        E 0 9c 43 7f
        E 32 8c 46 40
        E 0 8c 43 40
        E 16 9c 45 7f
        E 0 9c 48 7f
        E 320 8c 45 40
        E 0 8c 48 40
        E 16 9c 46 7f
        E 0 9c 43 7f
        E 32 8c 46 40
        E 0 8c 43 40
        E 16 9c 45 7f
        E 0 9c 41 7f
        E 128 8c 45 40
        E 0 8c 41 40
        E 16 9c 46 7f
        E 0 9c 43 7f
        E 32 8c 46 40
        E 0 8c 43 40
        E 16 9c 48 7f
        E 0 9c 45 7f
        E 176 8c 48 40
        E 0 8c 45 40
        E 16 9c 45 7f
        E 0 9c 41 7f
        E 80 8c 45 40
        E 0 8c 41 40
        E 112 9c 46 7f
        E 0 9c 43 7f
        E 128 8c 46 40
        E 0 8c 43 40
        E 16 9c 45 7f
        E 0 9c 48 7f
        E 32 8c 45 40
        E 0 8c 48 40
        E 16 9c 4a 7f
        E 0 9c 46 7f
        E 320 8c 4a 40
        E 0 8c 46 40
        E 16 9c 46 7f
        E 0 9c 4a 7f
        E 32 8c 46 40
        E 0 8c 4a 40
        E 16 9c 48 7f
        E 0 9c 4c 7f
        E 128 8c 48 40
        E 0 8c 4c 40
        E 16 9c 48 7f
        E 0 9c 4c 7f
        E 32 8c 48 40
        E 0 8c 4c 40
        E 16 9c 4d 7f
        E 0 9c 45 7f
        E 272 8c 4d 40
        E 0 8c 45 40
        E 112 9c 40 7f
        E 0 9c 43 7f
        E 128 8c 40 40
        E 0 8c 43 40
        E 16 9c 45 7f
        E 0 9c 41 7f
        E 32 8c 45 40
        E 0 8c 41 40
        E 16 9c 46 7f
        E 0 9c 43 7f
        E 320 8c 46 40
        E 0 8c 43 40
        E 16 9c 45 7f
        E 0 9c 41 7f
        E 32 8c 45 40
        E 0 8c 41 40
        E 16 9c 43 7f
        E 0 9c 40 7f
        E 128 8c 43 40
        E 0 8c 40 40
        E 16 9c 41 7f
        E 0 9c 45 7f
        E 32 8c 41 40
        E 0 8c 45 40
        E 16 9c 46 7f
        E 0 9c 43 7f
        E 176 8c 46 40
        E 0 8c 43 40
        E 16 9c 40 7f
        E 0 9c 43 7f
        E 80 8c 40 40
        E 0 8c 43 40
        E 112 9c 48 7f
        E 128 8c 48 40
        E 16 9c 48 7f
        E 32 8c 48 40
        E 16 9c 4c 7f
        E 0 9c 48 7f
        E 320 8c 4c 40
        E 0 8c 48 40
        E 16 9c 4a 7f
        E 0 9c 46 7f
        E 32 8c 4a 40
        E 0 8c 46 40
        E 16 9c 45 7f
        E 0 9c 48 7f
        E 128 8c 45 40
        E 0 8c 48 40
        E 16 9c 46 7f
        E 0 9c 43 7f
        E 32 8c 46 40
        E 0 8c 43 40
        E 16 9c 41 7f
        E 0 9c 45 7f
        E 272 8c 41 40
        E 0 8c 45 40
        E 112 9c 45 7f
        E 128 8c 45 40
        E 16 9c 45 7f
        E 32 8c 45 40
        E 16 9c 41 7f
        E 0 9c 45 7f
        E 0 9c 4a 7f
        E 320 8c 4a 40
        E 16 9c 4d 7f
        E 32 8c 41 40
        E 0 8c 45 40
        E 0 8c 4d 40
        E 16 9c 45 7f
        E 0 9c 43 7f
        E 0 9c 4c 7f
        E 128 8c 4c 40
        E 16 9c 49 7f
        E 32 8c 45 40
        E 0 8c 43 40
        E 0 8c 49 40
        E 16 9c 45 7f
        E 0 9c 4a 7f
        E 0 9c 41 7f
        E 176 8c 45 40
        E 0 8c 4a 40
        E 16 9c 45 7f
        E 80 8c 45 40
        E 96 8c 41 40
        E 16 9c 45 7f
        E 128 8c 45 40
        E 16 9c 45 7f
        E 32 8c 45 40
        E 16 9c 45 7f
        E 0 9c 4a 7f
        E 0 9c 41 7f
        E 320 8c 4a 40
        E 16 9c 4d 7f
        E 32 8c 45 40
        E 0 8c 41 40
        E 0 8c 4d 40
        E 16 9c 45 7f
        E 0 9c 4c 7f
        E 0 9c 43 7f
        E 128 8c 4c 40
        E 16 9c 49 7f
        E 32 8c 45 40
        E 0 8c 43 40
        E 0 8c 49 40
        E 16 9c 45 7f
        E 0 9c 41 7f
        E 0 9c 4a 7f
        E 272 8c 45 40
        E 0 8c 41 40
        E 0 8c 4a 40
        E 112 9c 48 7f
        E 128 8c 48 40
        E 16 9c 48 7f
        E 32 8c 48 40
        E 16 9c 48 7f
        E 176 8c 48 40
        E 16 9c 4c 7f
        E 0 9c 46 7f
        E 0 9c 48 7f
        E 176 8c 4c 40
        E 0 8c 46 40
        E 0 8c 48 40
        E 16 9c 48 7f
        E 0 9c 46 7f
        E 128 8c 48 40
        E 0 8c 46 40
        E 16 9c 46 7f
        E 0 9c 48 7f
        E 32 8c 46 40
        E 0 8c 48 40
        E 16 9c 45 7f
        E 0 9c 48 7f
        E 176 8c 45 40
        E 0 8c 48 40
        E 16 9c 4d 7f
        E 0 9c 48 7f
        E 0 9c 45 7f
        E 176 8c 4d 40
        E 0 8c 48 40
        E 0 8c 45 40
        E 16 9c 45 7f
        E 0 9c 48 7f
        E 128 8c 45 40
        E 0 8c 48 40
        E 16 9c 48 7f
        E 0 9c 45 7f
        E 32 8c 48 40
        E 0 8c 45 40
        E 16 9c 48 7f
        E 0 9c 46 7f
        E 176 8c 48 40
        E 0 8c 46 40
        E 16 9c 46 7f
        E 0 9c 4c 7f
        E 0 9c 43 7f
        E 80 8c 46 40
        E 0 8c 4c 40
        E 0 8c 43 40
        E 64 9c 48 7f
        E 32 8c 48 40
        E 16 9c 4a 7f
        E 128 8c 4a 40
        E 16 9c 4c 7f
        E 32 8c 4c 40
        E 16 9c 45 7f
        E 0 9c 4d 7f
        E 272 8c 45 40
        E 0 8c 4d 40
        E 112 9c 45 7f
        E 0 9c 4d 7f
        E 128 8c 45 40
        E 0 8c 4d 40
        E 16 9c 4c 7f
        E 0 9c 48 7f
        E 32 8c 4c 40
        E 0 8c 48 40
        E 16 9c 48 7f
        E 0 9c 4c 7f
        E 176 8c 48 40
        E 0 8c 4c 40
        E 16 9c 46 7f
        E 0 9c 4a 7f
        E 80 8c 46 40
        E 0 8c 4a 40
        E 112 9c 46 7f
        E 0 9c 4a 7f
        E 128 8c 46 40
        E 0 8c 4a 40
        E 16 9c 48 7f
        E 0 9c 45 7f
        E 32 8c 48 40
        E 0 8c 45 40
        E 16 9c 45 7f
        E 0 9c 48 7f
        E 176 8c 45 40
        E 0 8c 48 40
        E 16 9c 46 7f
        E 0 9c 43 7f
        E 80 8c 46 40
        E 0 8c 43 40
        E 112 9c 46 7f
        E 0 9c 4a 7f
        E 128 8c 46 40
        E 0 8c 4a 40
        E 16 9c 4a 7f
        E 0 9c 46 7f
        E 32 8c 4a 40
        E 0 8c 46 40
        E 16 9c 45 7f
        E 0 9c 48 7f
        E 320 8c 45 40
        E 0 8c 48 40
        E 16 9c 41 7f
        E 0 9c 45 7f
        E 32 8c 41 40
        E 0 8c 45 40
        E 16 9c 46 7f
        E 0 9c 43 7f
        E 128 8c 46 40
        E 0 8c 43 40
        E 16 9c 43 7f
        E 0 9c 40 7f
        E 32 8c 43 40
        E 0 8c 40 40
        E 16 9c 46 7f
        E 0 9c 43 7f
        E 176 8c 46 40
        E 0 8c 43 40
        E 16 9c 41 7f
        E 0 9c 45 7f
        E 80 8c 41 40
        E 0 8c 45 40
        E 112 9c 4d 7f
        E 0 9c 45 7f
        E 128 8c 4d 40
        E 0 8c 45 40
        E 16 9c 4c 7f
        E 0 9c 48 7f
        E 32 8c 4c 40
        E 0 8c 48 40
        E 16 9c 48 7f
        E 0 9c 4c 7f
        E 176 8c 48 40
        E 0 8c 4c 40
        E 16 9c 46 7f
        E 0 9c 4a 7f
        E 80 8c 46 40
        E 0 8c 4a 40
        E 112 9c 4a 7f
        E 0 9c 46 7f
        E 128 8c 4a 40
        E 0 8c 46 40
        E 16 9c 45 7f
        E 0 9c 48 7f
        E 32 8c 45 40
        E 0 8c 48 40
        E 16 9c 45 7f
        E 0 9c 48 7f
        E 176 8c 45 40
        E 0 8c 48 40
        E 16 9c 46 7f
        E 0 9c 43 7f
        E 80 8c 46 40
        E 0 8c 43 40
        E 112 9c 46 7f
        E 0 9c 4a 7f
        E 128 8c 46 40
        E 0 8c 4a 40
        E 16 9c 4a 7f
        E 0 9c 46 7f
        E 32 8c 4a 40
        E 0 8c 46 40
        E 16 9c 45 7f
        E 0 9c 48 7f
        E 320 8c 45 40
        E 0 8c 48 40
        E 16 9c 45 7f
        E 0 9c 41 7f
        E 32 8c 45 40
        E 0 8c 41 40
        E 16 9c 46 7f
        E 0 9c 43 7f
        E 128 8c 46 40
        E 0 8c 43 40
        E 16 9c 40 7f
        E 0 9c 43 7f
        E 32 8c 40 40
        E 0 8c 43 40
        E 16 9c 41 7f
        E 176 8c 41 40
        E 16 9c 45 7f
        E 0 9c 4d 7f
        E 0 9c 48 7f
        E 80 8c 45 40
        E 0 8c 4d 40
        E 0 8c 48 40
        E 112 b0 7b 00
        GUID {53F9FFA6-D51C-D44F-BEEB-7DEC1BC6B7C6}
        IGNTEMPO 0 120 4 4
        SRCCOLOR 632
        VELLANE -1 86 6
        CFGEDITVIEW -128.330323 35.227273 74 12 0 0 0 0 0 0.5
        KEYSNAP 0
        TRACKSEL 226
        EVTFILTER 0 -1 -1 -1 -1 0 0 0 0 -1 -1 -1 -1 0 -1 0 -1 -1
        CFGEDIT 1 1 0 0 0 0 1 0 1 1 1 0.25 474 462 1014 762 1 0 1 3 0 0 0 0 0 -1 0 0 1 64
      >
      TAKE
      NAME "RH                   - National_Anthems_-_Cyprus.mid"
      TAKEVOLPAN 0 1 -1
      SOFFS 1 2
      PLAYRATE 1 1 0 -1 0 0.0025
      CHANMODE 0
      GUID {4573E33E-208D-5E4C-B0A3-E7EB7DEC3E20}
      <SOURCE MIDI
        HASDATA 1 192 QN
        POOLEDEVTS {E1BEBB88-94AA-094B-8C40-40A7ACF6B244}
        <X 0 0 0 0 3 "RH                  "
          /wNSSCAgICAgICAgICAgICAgICAgIA==
        >
        E 384 9c 41 7f
        E 0 9c 45 7f
        E 128 8c 41 40
        E 0 8c 45 40
        E 16 9c 46 7f
        E 0 9c 43 7f
        E 32 8c 46 40
        E 0 8c 43 40
        E 16 9c 45 7f
        E 0 9c 48 7f
        E 320 8c 45 40
        E 0 8c 48 40
        E 16 9c 46 7f
        E 0 9c 43 7f
        E 32 8c 46 40
        E 0 8c 43 40
        E 16 9c 45 7f
        E 0 9c 41 7f
        E 128 8c 45 40
        E 0 8c 41 40
        E 16 9c 46 7f
        E 0 9c 43 7f
        E 32 8c 46 40
        E 0 8c 43 40
        E 16 9c 48 7f
        E 0 9c 45 7f
        E 176 8c 48 40
        E 0 8c 45 40
        E 16 9c 45 7f
        E 0 9c 41 7f
        E 80 8c 45 40
        E 0 8c 41 40
        E 112 9c 46 7f
        E 0 9c 43 7f
        E 128 8c 46 40
        E 0 8c 43 40
        E 16 9c 45 7f
        E 0 9c 48 7f
        E 32 8c 45 40
        E 0 8c 48 40
        E 16 9c 4a 7f
        E 0 9c 46 7f
        E 320 8c 4a 40
        E 0 8c 46 40
        E 16 9c 46 7f
        E 0 9c 4a 7f
        E 32 8c 46 40
        E 0 8c 4a 40
        E 16 9c 48 7f
        E 0 9c 4c 7f
        E 128 8c 48 40
        E 0 8c 4c 40
        E 16 9c 48 7f
        E 0 9c 4c 7f
        E 32 8c 48 40
        E 0 8c 4c 40
        E 16 9c 4d 7f
        E 0 9c 45 7f
        E 272 8c 4d 40
        E 0 8c 45 40
        E 112 9c 40 7f
        E 0 9c 43 7f
        E 128 8c 40 40
        E 0 8c 43 40
        E 16 9c 45 7f
        E 0 9c 41 7f
        E 32 8c 45 40
        E 0 8c 41 40
        E 16 9c 46 7f
        E 0 9c 43 7f
        E 320 8c 46 40
        E 0 8c 43 40
        E 16 9c 45 7f
        E 0 9c 41 7f
        E 32 8c 45 40
        E 0 8c 41 40
        E 16 9c 43 7f
        E 0 9c 40 7f
        E 128 8c 43 40
        E 0 8c 40 40
        E 16 9c 41 7f
        E 0 9c 45 7f
        E 32 8c 41 40
        E 0 8c 45 40
        E 16 9c 46 7f
        E 0 9c 43 7f
        E 176 8c 46 40
        E 0 8c 43 40
        E 16 9c 40 7f
        E 0 9c 43 7f
        E 80 8c 40 40
        E 0 8c 43 40
        E 112 9c 48 7f
        E 128 8c 48 40
        E 16 9c 48 7f
        E 32 8c 48 40
        E 16 9c 4c 7f
        E 0 9c 48 7f
        E 320 8c 4c 40
        E 0 8c 48 40
        E 16 9c 4a 7f
        E 0 9c 46 7f
        E 32 8c 4a 40
        E 0 8c 46 40
        E 16 9c 45 7f
        E 0 9c 48 7f
        E 128 8c 45 40
        E 0 8c 48 40
        E 16 9c 46 7f
        E 0 9c 43 7f
        E 32 8c 46 40
        E 0 8c 43 40
        E 16 9c 41 7f
        E 0 9c 45 7f
        E 272 8c 41 40
        E 0 8c 45 40
        E 112 9c 45 7f
        E 128 8c 45 40
        E 16 9c 45 7f
        E 32 8c 45 40
        E 16 9c 41 7f
        E 0 9c 45 7f
        E 0 9c 4a 7f
        E 320 8c 4a 40
        E 16 9c 4d 7f
        E 32 8c 41 40
        E 0 8c 45 40
        E 0 8c 4d 40
        E 16 9c 45 7f
        E 0 9c 43 7f
        E 0 9c 4c 7f
        E 128 8c 4c 40
        E 16 9c 49 7f
        E 32 8c 45 40
        E 0 8c 43 40
        E 0 8c 49 40
        E 16 9c 45 7f
        E 0 9c 4a 7f
        E 0 9c 41 7f
        E 176 8c 45 40
        E 0 8c 4a 40
        E 16 9c 45 7f
        E 80 8c 45 40
        E 96 8c 41 40
        E 16 9c 45 7f
        E 128 8c 45 40
        E 16 9c 45 7f
        E 32 8c 45 40
        E 16 9c 45 7f
        E 0 9c 4a 7f
        E 0 9c 41 7f
        E 320 8c 4a 40
        E 16 9c 4d 7f
        E 32 8c 45 40
        E 0 8c 41 40
        E 0 8c 4d 40
        E 16 9c 45 7f
        E 0 9c 4c 7f
        E 0 9c 43 7f
        E 128 8c 4c 40
        E 16 9c 49 7f
        E 32 8c 45 40
        E 0 8c 43 40
        E 0 8c 49 40
        E 16 9c 45 7f
        E 0 9c 41 7f
        E 0 9c 4a 7f
        E 272 8c 45 40
        E 0 8c 41 40
        E 0 8c 4a 40
        E 112 9c 48 7f
        E 128 8c 48 40
        E 16 9c 48 7f
        E 32 8c 48 40
        E 16 9c 48 7f
        E 176 8c 48 40
        E 16 9c 4c 7f
        E 0 9c 46 7f
        E 0 9c 48 7f
        E 176 8c 4c 40
        E 0 8c 46 40
        E 0 8c 48 40
        E 16 9c 48 7f
        E 0 9c 46 7f
        E 128 8c 48 40
        E 0 8c 46 40
        E 16 9c 46 7f
        E 0 9c 48 7f
        E 32 8c 46 40
        E 0 8c 48 40
        E 16 9c 45 7f
        E 0 9c 48 7f
        E 176 8c 45 40
        E 0 8c 48 40
        E 16 9c 4d 7f
        E 0 9c 48 7f
        E 0 9c 45 7f
        E 176 8c 4d 40
        E 0 8c 48 40
        E 0 8c 45 40
        E 16 9c 45 7f
        E 0 9c 48 7f
        E 128 8c 45 40
        E 0 8c 48 40
        E 16 9c 48 7f
        E 0 9c 45 7f
        E 32 8c 48 40
        E 0 8c 45 40
        E 16 9c 48 7f
        E 0 9c 46 7f
        E 176 8c 48 40
        E 0 8c 46 40
        E 16 9c 46 7f
        E 0 9c 4c 7f
        E 0 9c 43 7f
        E 80 8c 46 40
        E 0 8c 4c 40
        E 0 8c 43 40
        E 64 9c 48 7f
        E 32 8c 48 40
        E 16 9c 4a 7f
        E 128 8c 4a 40
        E 16 9c 4c 7f
        E 32 8c 4c 40
        E 16 9c 45 7f
        E 0 9c 4d 7f
        E 272 8c 45 40
        E 0 8c 4d 40
        E 112 9c 45 7f
        E 0 9c 4d 7f
        E 128 8c 45 40
        E 0 8c 4d 40
        E 16 9c 4c 7f
        E 0 9c 48 7f
        E 32 8c 4c 40
        E 0 8c 48 40
        E 16 9c 48 7f
        E 0 9c 4c 7f
        E 176 8c 48 40
        E 0 8c 4c 40
        E 16 9c 46 7f
        E 0 9c 4a 7f
        E 80 8c 46 40
        E 0 8c 4a 40
        E 112 9c 46 7f
        E 0 9c 4a 7f
        E 128 8c 46 40
        E 0 8c 4a 40
        E 16 9c 48 7f
        E 0 9c 45 7f
        E 32 8c 48 40
        E 0 8c 45 40
        E 16 9c 45 7f
        E 0 9c 48 7f
        E 176 8c 45 40
        E 0 8c 48 40
        E 16 9c 46 7f
        E 0 9c 43 7f
        E 80 8c 46 40
        E 0 8c 43 40
        E 112 9c 46 7f
        E 0 9c 4a 7f
        E 128 8c 46 40
        E 0 8c 4a 40
        E 16 9c 4a 7f
        E 0 9c 46 7f
        E 32 8c 4a 40
        E 0 8c 46 40
        E 16 9c 45 7f
        E 0 9c 48 7f
        E 320 8c 45 40
        E 0 8c 48 40
        E 16 9c 41 7f
        E 0 9c 45 7f
        E 32 8c 41 40
        E 0 8c 45 40
        E 16 9c 46 7f
        E 0 9c 43 7f
        E 128 8c 46 40
        E 0 8c 43 40
        E 16 9c 43 7f
        E 0 9c 40 7f
        E 32 8c 43 40
        E 0 8c 40 40
        E 16 9c 46 7f
        E 0 9c 43 7f
        E 176 8c 46 40
        E 0 8c 43 40
        E 16 9c 41 7f
        E 0 9c 45 7f
        E 80 8c 41 40
        E 0 8c 45 40
        E 112 9c 4d 7f
        E 0 9c 45 7f
        E 128 8c 4d 40
        E 0 8c 45 40
        E 16 9c 4c 7f
        E 0 9c 48 7f
        E 32 8c 4c 40
        E 0 8c 48 40
        E 16 9c 48 7f
        E 0 9c 4c 7f
        E 176 8c 48 40
        E 0 8c 4c 40
        E 16 9c 46 7f
        E 0 9c 4a 7f
        E 80 8c 46 40
        E 0 8c 4a 40
        E 112 9c 4a 7f
        E 0 9c 46 7f
        E 128 8c 4a 40
        E 0 8c 46 40
        E 16 9c 45 7f
        E 0 9c 48 7f
        E 32 8c 45 40
        E 0 8c 48 40
        E 16 9c 45 7f
        E 0 9c 48 7f
        E 176 8c 45 40
        E 0 8c 48 40
        E 16 9c 46 7f
        E 0 9c 43 7f
        E 80 8c 46 40
        E 0 8c 43 40
        E 112 9c 46 7f
        E 0 9c 4a 7f
        E 128 8c 46 40
        E 0 8c 4a 40
        E 16 9c 4a 7f
        E 0 9c 46 7f
        E 32 8c 4a 40
        E 0 8c 46 40
        E 16 9c 45 7f
        E 0 9c 48 7f
        E 320 8c 45 40
        E 0 8c 48 40
        E 16 9c 45 7f
        E 0 9c 41 7f
        E 32 8c 45 40
        E 0 8c 41 40
        E 16 9c 46 7f
        E 0 9c 43 7f
        E 128 8c 46 40
        E 0 8c 43 40
        E 16 9c 40 7f
        E 0 9c 43 7f
        E 32 8c 40 40
        E 0 8c 43 40
        E 16 9c 41 7f
        E 176 8c 41 40
        E 16 9c 45 7f
        E 0 9c 4d 7f
        E 0 9c 48 7f
        E 80 8c 45 40
        E 0 8c 4d 40
        E 0 8c 48 40
        E 112 b0 7b 00
        GUID {CA63CB63-1AA0-5F40-A22C-F6AED4E11300}
        IGNTEMPO 0 120 4 4
        SRCCOLOR 684
        VELLANE -1 86 6
        CFGEDITVIEW 0 0 74 12 0 0 0 0 0 0.5
        KEYSNAP 0
        TRACKSEL 226
        EVTFILTER 0 -1 -1 -1 -1 0 0 0 0 -1 -1 -1 -1 0 -1 0 -1 -1
        CFGEDIT 1 1 0 0 0 0 1 0 1 1 1 0.25 474 462 1014 762 1 0 1 3 0 0 0 0 0 -1 0 0 1 64
      >
    >
    <ITEM
      POSITION 0
      SNAPOFFS 0
      LENGTH 36
      LOOP 1
      ALLTAKES 0
      FADEIN 1 0 0 1 0 0
      FADEOUT 1 0 0 1 0 0
      MUTE 0
      SEL 0
      YPOS 0.833333 0.166667
      IGUID {24B3DE55-8575-6B47-A722-30AC9DED9F12}
      IID 6
      NAME "LH                   - National_Anthems_-_Cyprus.mid"
      VOLPAN 1 0 1 -1
      SOFFS 1 2
      PLAYRATE 1 1 0 -1 0 0.0025
      CHANMODE 0
      TAKECOLOR 26173599 B
      GUID {811F8F2A-CF33-1F4A-8E5C-E2C86F5C6932}
      <SOURCE MIDI
        HASDATA 1 192 QN
        POOLEDEVTS {AF839BA5-1A31-8041-9520-467587BF00EE}
        <X 0 0 0 0 3 "LH                  "
          /wNMSCAgICAgICAgICAgICAgICAgIA==
        >
        E 576 9d 35 64
        E 0 9d 29 64
        E 80 8d 35 40
        E 0 8d 29 40
        E 16 9d 3c 64
        E 0 9d 39 64
        E 0 9d 35 64
        E 32 8d 3c 40
        E 0 8d 39 40
        E 0 8d 35 40
        E 16 9d 39 64
        E 0 9d 3c 64
        E 0 9d 35 64
        E 32 8d 39 40
        E 0 8d 3c 40
        E 0 8d 35 40
        E 16 9d 35 64
        E 0 9d 3c 64
        E 0 9d 39 64
        E 80 8d 35 40
        E 0 8d 3c 40
        E 0 8d 39 40
        E 16 9d 3c 64
        E 0 9d 35 64
        E 0 9d 39 64
        E 80 8d 3c 40
        E 0 8d 35 40
        E 0 8d 39 40
        E 16 9d 35 64
        E 0 9d 3c 64
        E 0 9d 39 64
        E 80 8d 35 40
        E 0 8d 3c 40
        E 0 8d 39 40
        E 16 9d 3c 64
        E 0 9d 35 64
        E 0 9d 39 64
        E 80 8d 3c 40
        E 0 8d 35 40
        E 0 8d 39 40
        E 16 9d 29 64
        E 80 8d 29 40
        E 16 9d 35 64
        E 0 9d 3c 64
        E 0 9d 39 64
        E 32 8d 35 40
        E 0 8d 3c 40
        E 0 8d 39 40
        E 16 9d 3c 64
        E 0 9d 39 64
        E 0 9d 35 64
        E 32 8d 3c 40
        E 0 8d 39 40
        E 0 8d 35 40
        E 16 9d 3c 64
        E 0 9d 35 64
        E 0 9d 39 64
        E 80 8d 3c 40
        E 0 8d 35 40
        E 0 8d 39 40
        E 16 9d 35 64
        E 0 9d 39 64
        E 0 9d 3c 64
        E 80 8d 35 40
        E 0 8d 39 40
        E 0 8d 3c 40
        E 16 9d 39 64
        E 0 9d 3c 64
        E 0 9d 35 64
        E 80 8d 39 40
        E 0 8d 3c 40
        E 0 8d 35 40
        E 16 9d 39 64
        E 0 9d 3c 64
        E 0 9d 35 64
        E 80 8d 39 40
        E 0 8d 3c 40
        E 0 8d 35 40
        E 16 9d 2e 64
        E 80 8d 2e 40
        E 16 9d 3a 64
        E 0 9d 37 64
        E 0 9d 32 64
        E 32 8d 3a 40
        E 0 8d 37 40
        E 0 8d 32 40
        E 16 9d 32 64
        E 0 9d 37 64
        E 0 9d 3a 64
        E 32 8d 32 40
        E 0 8d 37 40
        E 0 8d 3a 40
        E 16 9d 37 64
        E 0 9d 3a 64
        E 0 9d 32 64
        E 80 8d 37 40
        E 0 8d 3a 40
        E 0 8d 32 40
        E 16 9d 3a 64
        E 0 9d 32 64
        E 0 9d 37 64
        E 80 8d 3a 40
        E 0 8d 32 40
        E 0 8d 37 40
        E 16 9d 24 64
        E 0 9d 30 64
        E 80 8d 24 40
        E 0 8d 30 40
        E 16 9d 3c 64
        E 0 9d 34 64
        E 80 8d 3c 40
        E 0 8d 34 40
        E 16 9d 29 64
        E 80 8d 29 40
        E 16 9d 3c 64
        E 0 9d 35 64
        E 0 9d 39 64
        E 32 8d 3c 40
        E 0 8d 35 40
        E 0 8d 39 40
        E 16 9d 35 64
        E 0 9d 39 64
        E 0 9d 3c 64
        E 32 8d 35 40
        E 0 8d 39 40
        E 0 8d 3c 40
        E 16 9d 3c 64
        E 0 9d 35 64
        E 0 9d 39 64
        E 80 8d 3c 40
        E 0 8d 35 40
        E 0 8d 39 40
        E 16 9d 39 64
        E 0 9d 35 64
        E 0 9d 3c 64
        E 80 8d 39 40
        E 0 8d 35 40
        E 0 8d 3c 40
        E 208 9d 24 64
        E 0 9d 30 64
        E 80 8d 24 40
        E 0 8d 30 40
        E 16 9d 3c 64
        E 0 9d 3a 64
        E 0 9d 34 64
        E 0 9d 37 64
        E 32 8d 3c 40
        E 0 8d 3a 40
        E 0 8d 34 40
        E 0 8d 37 40
        E 16 9d 3a 64
        E 0 9d 34 64
        E 0 9d 3c 64
        E 0 9d 37 64
        E 32 8d 3a 40
        E 0 8d 34 40
        E 0 8d 3c 40
        E 0 8d 37 40
        E 16 9d 34 64
        E 0 9d 3c 64
        E 0 9d 3a 64
        E 0 9d 37 64
        E 80 8d 34 40
        E 0 8d 3c 40
        E 0 8d 3a 40
        E 0 8d 37 40
        E 16 9d 34 64
        E 0 9d 3a 64
        E 0 9d 3c 64
        E 0 9d 37 64
        E 80 8d 34 40
        E 0 8d 3a 40
        E 0 8d 3c 40
        E 0 8d 37 40
        E 16 9d 3a 64
        E 0 9d 34 64
        E 0 9d 3c 64
        E 0 9d 37 64
        E 80 8d 3a 40
        E 0 8d 34 40
        E 0 8d 3c 40
        E 0 8d 37 40
        E 16 9d 3a 64
        E 0 9d 34 64
        E 0 9d 3c 64
        E 0 9d 37 64
        E 80 8d 3a 40
        E 0 8d 34 40
        E 0 8d 3c 40
        E 0 8d 37 40
        E 16 9d 30 64
        E 0 9d 24 64
        E 80 8d 30 40
        E 0 8d 24 40
        E 16 9d 34 64
        E 0 9d 3a 64
        E 0 9d 3c 64
        E 0 9d 37 64
        E 32 8d 34 40
        E 0 8d 3a 40
        E 0 8d 3c 40
        E 0 8d 37 40
        E 16 9d 3a 64
        E 0 9d 34 64
        E 0 9d 37 64
        E 0 9d 3c 64
        E 32 8d 3a 40
        E 0 8d 34 40
        E 0 8d 37 40
        E 0 8d 3c 40
        E 16 9d 3a 64
        E 0 9d 34 64
        E 0 9d 37 64
        E 0 9d 3c 64
        E 80 8d 3a 40
        E 0 8d 34 40
        E 0 8d 37 40
        E 0 8d 3c 40
        E 16 9d 34 64
        E 0 9d 3a 64
        E 0 9d 37 64
        E 0 9d 3c 64
        E 80 8d 34 40
        E 0 8d 3a 40
        E 0 8d 37 40
        E 0 8d 3c 40
        E 16 9d 3a 64
        E 0 9d 34 64
        E 0 9d 3c 64
        E 0 9d 37 64
        E 80 8d 3a 40
        E 0 8d 34 40
        E 0 8d 3c 40
        E 0 8d 37 40
        E 16 9d 3a 64
        E 0 9d 34 64
        E 0 9d 3c 64
        E 0 9d 37 64
        E 80 8d 3a 40
        E 0 8d 34 40
        E 0 8d 3c 40
        E 0 8d 37 40
        E 16 9d 24 64
        E 0 9d 30 64
        E 80 8d 24 40
        E 0 8d 30 40
        E 16 9d 3a 64
        E 0 9d 34 64
        E 0 9d 3c 64
        E 0 9d 37 64
        E 32 8d 3a 40
        E 0 8d 34 40
        E 0 8d 3c 40
        E 0 8d 37 40
        E 16 9d 34 64
        E 0 9d 3a 64
        E 0 9d 37 64
        E 0 9d 3c 64
        E 32 8d 34 40
        E 0 8d 3a 40
        E 0 8d 37 40
        E 0 8d 3c 40
        E 16 9d 3a 64
        E 0 9d 34 64
        E 0 9d 3c 64
        E 0 9d 37 64
        E 80 8d 3a 40
        E 0 8d 34 40
        E 0 8d 3c 40
        E 0 8d 37 40
        E 16 9d 3a 64
        E 0 9d 34 64
        E 0 9d 37 64
        E 0 9d 3c 64
        E 80 8d 3a 40
        E 0 8d 34 40
        E 0 8d 37 40
        E 0 8d 3c 40
        E 16 9d 3a 64
        E 0 9d 3c 64
        E 0 9d 34 64
        E 0 9d 37 64
        E 80 8d 3a 40
        E 0 8d 3c 40
        E 0 8d 34 40
        E 0 8d 37 40
        E 16 9d 3a 64
        E 0 9d 34 64
        E 0 9d 3c 64
        E 0 9d 37 64
        E 80 8d 3a 40
        E 0 8d 34 40
        E 0 8d 3c 40
        E 0 8d 37 40
        E 16 9d 29 64
        E 80 8d 29 40
        E 16 9d 35 64
        E 0 9d 3c 64
        E 0 9d 39 64
        E 32 8d 35 40
        E 0 8d 3c 40
        E 0 8d 39 40
        E 16 9d 35 64
        E 0 9d 39 64
        E 0 9d 3c 64
        E 32 8d 35 40
        E 0 8d 39 40
        E 0 8d 3c 40
        E 16 9d 39 64
        E 0 9d 35 64
        E 0 9d 3c 64
        E 176 8d 39 40
        E 0 8d 35 40
        E 0 8d 3c 40
        E 208 9d 26 64
        E 80 8d 26 40
        E 16 9d 32 64
        E 0 9d 39 64
        E 0 9d 35 64
        E 32 8d 32 40
        E 0 8d 39 40
        E 0 8d 35 40
        E 16 9d 32 64
        E 0 9d 35 64
        E 0 9d 39 64
        E 32 8d 32 40
        E 0 8d 35 40
        E 0 8d 39 40
        E 16 9d 32 64
        E 0 9d 35 64
        E 0 9d 39 64
        E 80 8d 32 40
        E 0 8d 35 40
        E 0 8d 39 40
        E 16 9d 32 64
        E 0 9d 35 64
        E 0 9d 39 64
        E 80 8d 32 40
        E 0 8d 35 40
        E 0 8d 39 40
        E 16 9d 2d 64
        E 80 8d 2d 40
        E 16 9d 39 64
        E 0 9d 34 64
        E 0 9d 37 64
        E 80 8d 39 40
        E 0 8d 34 40
        E 0 8d 37 40
        E 16 9d 26 64
        E 80 8d 26 40
        E 16 9d 32 64
        E 0 9d 39 64
        E 0 9d 35 64
        E 32 8d 32 40
        E 0 8d 39 40
        E 0 8d 35 40
        E 16 9d 32 64
        E 0 9d 39 64
        E 0 9d 35 64
        E 32 8d 32 40
        E 0 8d 39 40
        E 0 8d 35 40
        E 16 9d 32 64
        E 0 9d 35 64
        E 0 9d 39 64
        E 80 8d 32 40
        E 0 8d 35 40
        E 0 8d 39 40
        E 16 9d 32 64
        E 0 9d 35 64
        E 0 9d 39 64
        E 80 8d 32 40
        E 0 8d 35 40
        E 0 8d 39 40
        E 16 9d 32 64
        E 0 9d 35 64
        E 0 9d 39 64
        E 80 8d 32 40
        E 0 8d 35 40
        E 0 8d 39 40
        E 16 9d 32 64
        E 0 9d 35 64
        E 0 9d 39 64
        E 80 8d 32 40
        E 0 8d 35 40
        E 0 8d 39 40
        E 16 9d 26 64
        E 80 8d 26 40
        E 16 9d 32 64
        E 0 9d 39 64
        E 0 9d 35 64
        E 32 8d 32 40
        E 0 8d 39 40
        E 0 8d 35 40
        E 16 9d 32 64
        E 0 9d 39 64
        E 0 9d 35 64
        E 32 8d 32 40
        E 0 8d 39 40
        E 0 8d 35 40
        E 16 9d 32 64
        E 0 9d 39 64
        E 0 9d 35 64
        E 80 8d 32 40
        E 0 8d 39 40
        E 0 8d 35 40
        E 16 9d 35 64
        E 0 9d 32 64
        E 0 9d 39 64
        E 80 8d 35 40
        E 0 8d 32 40
        E 0 8d 39 40
        E 16 9d 2d 64
        E 80 8d 2d 40
        E 16 9d 34 64
        E 0 9d 39 64
        E 0 9d 37 64
        E 80 8d 34 40
        E 0 8d 39 40
        E 0 8d 37 40
        E 16 9d 26 64
        E 80 8d 26 40
        E 16 9d 39 64
        E 0 9d 32 64
        E 0 9d 35 64
        E 32 8d 39 40
        E 0 8d 32 40
        E 0 8d 35 40
        E 16 9d 35 64
        E 0 9d 32 64
        E 0 9d 39 64
        E 32 8d 35 40
        E 0 8d 32 40
        E 0 8d 39 40
        E 16 9d 39 64
        E 0 9d 32 64
        E 0 9d 35 64
        E 80 8d 39 40
        E 0 8d 32 40
        E 0 8d 35 40
        E 304 9d 3a 64
        E 0 9d 34 64
        E 80 8d 3a 40
        E 0 8d 34 40
        E 112 9d 30 64
        E 0 9d 3a 64
        E 0 9d 34 64
        E 80 8d 30 40
        E 0 8d 3a 40
        E 0 8d 34 40
        E 16 9d 30 64
        E 80 8d 30 40
        E 16 9d 3a 64
        E 0 9d 34 64
        E 80 8d 3a 40
        E 0 8d 34 40
        E 16 9d 30 64
        E 80 8d 30 40
        E 16 9d 39 64
        E 0 9d 35 64
        E 80 8d 39 40
        E 0 8d 35 40
        E 16 9d 30 64
        E 80 8d 30 40
        E 16 9d 35 64
        E 0 9d 39 64
        E 80 8d 35 40
        E 0 8d 39 40
        E 16 9d 30 64
        E 80 8d 30 40
        E 16 9d 35 64
        E 0 9d 39 64
        E 80 8d 35 40
        E 0 8d 39 40
        E 16 9d 30 64
        E 80 8d 30 40
        E 16 9d 3a 64
        E 0 9d 34 64
        E 80 8d 3a 40
        E 0 8d 34 40
        E 16 9d 30 64
        E 80 8d 30 40
        E 16 9d 3a 64
        E 0 9d 34 64
        E 80 8d 3a 40
        E 0 8d 34 40
        E 16 9d 30 64
        E 80 8d 30 40
        E 16 9d 3a 64
        E 0 9d 34 64
        E 80 8d 3a 40
        E 0 8d 34 40
        E 16 9d 30 64
        E 80 8d 30 40
        E 16 9d 29 64
        E 80 8d 29 40
        E 16 9d 30 64
        E 0 9d 39 64
        E 0 9d 35 64
        E 32 8d 30 40
        E 0 8d 39 40
        E 0 8d 35 40
        E 16 9d 30 64
        E 0 9d 39 64
        E 0 9d 35 64
        E 32 8d 30 40
        E 0 8d 39 40
        E 0 8d 35 40
        E 16 9d 30 64
        E 0 9d 39 64
        E 0 9d 35 64
        E 80 8d 30 40
        E 0 8d 39 40
        E 0 8d 35 40
        E 304 9d 2e 64
        E 80 8d 2e 40
        E 16 9d 3a 64
        E 0 9d 32 64
        E 0 9d 35 64
        E 32 8d 3a 40
        E 0 8d 32 40
        E 0 8d 35 40
        E 16 9d 3a 64
        E 0 9d 32 64
        E 0 9d 35 64
        E 32 8d 3a 40
        E 0 8d 32 40
        E 0 8d 35 40
        E 16 9d 3a 64
        E 0 9d 32 64
        E 0 9d 35 64
        E 80 8d 3a 40
        E 0 8d 32 40
        E 0 8d 35 40
        E 16 9d 3a 64
        E 0 9d 32 64
        E 0 9d 35 64
        E 80 8d 3a 40
        E 0 8d 32 40
        E 0 8d 35 40
        E 16 9d 26 64
        E 80 8d 26 40
        E 16 9d 36 64
        E 0 9d 39 64
        E 0 9d 32 64
        E 80 8d 36 40
        E 0 8d 39 40
        E 0 8d 32 40
        E 16 9d 2b 64
        E 80 8d 2b 40
        E 16 9d 32 64
        E 0 9d 2e 64
        E 0 9d 37 64
        E 32 8d 32 40
        E 0 8d 2e 40
        E 0 8d 37 40
        E 16 9d 37 64
        E 0 9d 2e 64
        E 0 9d 32 64
        E 32 8d 37 40
        E 0 8d 2e 40
        E 0 8d 32 40
        E 16 9d 32 64
        E 0 9d 2e 64
        E 0 9d 37 64
        E 80 8d 32 40
        E 0 8d 2e 40
        E 0 8d 37 40
        E 16 9d 32 64
        E 0 9d 37 64
        E 0 9d 2e 64
        E 80 8d 32 40
        E 0 8d 37 40
        E 0 8d 2e 40
        E 16 9d 2e 64
        E 80 8d 2e 40
        E 16 9d 37 64
        E 0 9d 32 64
        E 80 8d 37 40
        E 0 8d 32 40
        E 16 9d 30 64
        E 80 8d 30 40
        E 16 9d 35 64
        E 0 9d 39 64
        E 32 8d 35 40
        E 0 8d 39 40
        E 16 9d 35 64
        E 0 9d 39 64
        E 32 8d 35 40
        E 0 8d 39 40
        E 16 9d 39 64
        E 0 9d 35 64
        E 80 8d 39 40
        E 0 8d 35 40
        E 16 9d 35 64
        E 0 9d 39 64
        E 80 8d 35 40
        E 0 8d 39 40
        E 16 9d 30 64
        E 80 8d 30 40
        E 16 9d 3a 64
        E 0 9d 34 64
        E 0 9d 37 64
        E 80 8d 3a 40
        E 0 8d 34 40
        E 0 8d 37 40
        E 16 9d 29 64
        E 80 8d 29 40
        E 16 9d 30 64
        E 0 9d 35 64
        E 0 9d 39 64
        E 32 8d 30 40
        E 0 8d 35 40
        E 0 8d 39 40
        E 16 9d 30 64
        E 0 9d 35 64
        E 0 9d 39 64
        E 32 8d 30 40
        E 0 8d 35 40
        E 0 8d 39 40
        E 16 9d 30 64
        E 0 9d 35 64
        E 0 9d 39 64
        E 80 8d 30 40
        E 0 8d 35 40
        E 0 8d 39 40
        E 16 9d 30 64
        E 0 9d 35 64
        E 0 9d 39 64
        E 80 8d 30 40
        E 0 8d 35 40
        E 0 8d 39 40
        E 16 9d 30 64
        E 0 9d 35 64
        E 0 9d 39 64
        E 80 8d 30 40
        E 0 8d 35 40
        E 0 8d 39 40
        E 16 9d 30 64
        E 0 9d 39 64
        E 0 9d 35 64
        E 80 8d 30 40
        E 0 8d 39 40
        E 0 8d 35 40
        E 16 9d 2e 64
        E 80 8d 2e 40
        E 16 9d 3a 64
        E 0 9d 32 64
        E 0 9d 35 64
        E 32 8d 3a 40
        E 0 8d 32 40
        E 0 8d 35 40
        E 16 9d 32 64
        E 0 9d 3a 64
        E 0 9d 35 64
        E 32 8d 32 40
        E 0 8d 3a 40
        E 0 8d 35 40
        E 16 9d 32 64
        E 0 9d 3a 64
        E 0 9d 35 64
        E 80 8d 32 40
        E 0 8d 3a 40
        E 0 8d 35 40
        E 16 9d 32 64
        E 0 9d 3a 64
        E 0 9d 35 64
        E 80 8d 32 40
        E 0 8d 3a 40
        E 0 8d 35 40
        E 16 9d 26 64
        E 80 8d 26 40
        E 16 9d 39 64
        E 0 9d 36 64
        E 0 9d 32 64
        E 80 8d 39 40
        E 0 8d 36 40
        E 0 8d 32 40
        E 16 9d 2b 64
        E 80 8d 2b 40
        E 16 9d 2e 64
        E 0 9d 37 64
        E 0 9d 32 64
        E 32 8d 2e 40
        E 0 8d 37 40
        E 0 8d 32 40
        E 16 9d 32 64
        E 0 9d 2e 64
        E 0 9d 37 64
        E 32 8d 32 40
        E 0 8d 2e 40
        E 0 8d 37 40
        E 16 9d 2e 64
        E 0 9d 37 64
        E 0 9d 32 64
        E 80 8d 2e 40
        E 0 8d 37 40
        E 0 8d 32 40
        E 16 9d 2e 64
        E 0 9d 37 64
        E 0 9d 32 64
        E 80 8d 2e 40
        E 0 8d 37 40
        E 0 8d 32 40
        E 16 9d 2e 64
        E 80 8d 2e 40
        E 16 9d 37 64
        E 0 9d 32 64
        E 80 8d 37 40
        E 0 8d 32 40
        E 16 9d 30 64
        E 80 8d 30 40
        E 16 9d 35 64
        E 0 9d 39 64
        E 32 8d 35 40
        E 0 8d 39 40
        E 16 9d 35 64
        E 0 9d 39 64
        E 32 8d 35 40
        E 0 8d 39 40
        E 16 9d 35 64
        E 0 9d 39 64
        E 80 8d 35 40
        E 0 8d 39 40
        E 16 9d 35 64
        E 0 9d 39 64
        E 80 8d 35 40
        E 0 8d 39 40
        E 16 9d 30 64
        E 80 8d 30 40
        E 16 9d 3a 64
        E 0 9d 37 64
        E 80 8d 3a 40
        E 0 8d 37 40
        E 16 9d 35 64
        E 0 9d 39 64
        E 176 8d 35 40
        E 0 8d 39 40
        E 16 9d 29 64
        E 0 9d 35 64
        E 80 8d 29 40
        E 0 8d 35 40
        E 112 b0 7b 00
        GUID {B7FE2E4D-40C8-674B-B02E-C27458712B46}
        IGNTEMPO 0 120 4 4
        SRCCOLOR 633
        VELLANE -1 86 6
        CFGEDITVIEW -128.330323 35.227273 74 12 0 0 0 0 0 0.5
        KEYSNAP 0
        TRACKSEL 226
        EVTFILTER 0 -1 -1 -1 -1 0 0 0 0 -1 -1 -1 -1 0 -1 0 -1 -1
        CFGEDIT 1 1 0 0 0 0 1 0 1 1 1 0.25 474 462 1014 762 1 0 1 3 0 0 0 0 0 -1 0 0 1 64
      >
      TAKE
      NAME "LH                   - National_Anthems_-_Cyprus.mid"
      TAKEVOLPAN 0 1 -1
      SOFFS 1 2
      PLAYRATE 1 1 0 -1 0 0.0025
      CHANMODE 0
      GUID {27A45885-768C-F744-BF4B-CB071A10FFA2}
      <SOURCE MIDI
        HASDATA 1 192 QN
        POOLEDEVTS {4B132723-3FE2-EE40-BBED-75D524C587A9}
        <X 0 0 0 0 3 "LH                  "
          /wNMSCAgICAgICAgICAgICAgICAgIA==
        >
        E 576 9d 35 64
        E 0 9d 29 64
        E 80 8d 35 40
        E 0 8d 29 40
        E 16 9d 3c 64
        E 0 9d 39 64
        E 0 9d 35 64
        E 32 8d 3c 40
        E 0 8d 39 40
        E 0 8d 35 40
        E 16 9d 39 64
        E 0 9d 3c 64
        E 0 9d 35 64
        E 32 8d 39 40
        E 0 8d 3c 40
        E 0 8d 35 40
        E 16 9d 35 64
        E 0 9d 3c 64
        E 0 9d 39 64
        E 80 8d 35 40
        E 0 8d 3c 40
        E 0 8d 39 40
        E 16 9d 3c 64
        E 0 9d 35 64
        E 0 9d 39 64
        E 80 8d 3c 40
        E 0 8d 35 40
        E 0 8d 39 40
        E 16 9d 35 64
        E 0 9d 3c 64
        E 0 9d 39 64
        E 80 8d 35 40
        E 0 8d 3c 40
        E 0 8d 39 40
        E 16 9d 3c 64
        E 0 9d 35 64
        E 0 9d 39 64
        E 80 8d 3c 40
        E 0 8d 35 40
        E 0 8d 39 40
        E 16 9d 29 64
        E 80 8d 29 40
        E 16 9d 35 64
        E 0 9d 3c 64
        E 0 9d 39 64
        E 32 8d 35 40
        E 0 8d 3c 40
        E 0 8d 39 40
        E 16 9d 3c 64
        E 0 9d 39 64
        E 0 9d 35 64
        E 32 8d 3c 40
        E 0 8d 39 40
        E 0 8d 35 40
        E 16 9d 3c 64
        E 0 9d 35 64
        E 0 9d 39 64
        E 80 8d 3c 40
        E 0 8d 35 40
        E 0 8d 39 40
        E 16 9d 35 64
        E 0 9d 39 64
        E 0 9d 3c 64
        E 80 8d 35 40
        E 0 8d 39 40
        E 0 8d 3c 40
        E 16 9d 39 64
        E 0 9d 3c 64
        E 0 9d 35 64
        E 80 8d 39 40
        E 0 8d 3c 40
        E 0 8d 35 40
        E 16 9d 39 64
        E 0 9d 3c 64
        E 0 9d 35 64
        E 80 8d 39 40
        E 0 8d 3c 40
        E 0 8d 35 40
        E 16 9d 2e 64
        E 80 8d 2e 40
        E 16 9d 3a 64
        E 0 9d 37 64
        E 0 9d 32 64
        E 32 8d 3a 40
        E 0 8d 37 40
        E 0 8d 32 40
        E 16 9d 32 64
        E 0 9d 37 64
        E 0 9d 3a 64
        E 32 8d 32 40
        E 0 8d 37 40
        E 0 8d 3a 40
        E 16 9d 37 64
        E 0 9d 3a 64
        E 0 9d 32 64
        E 80 8d 37 40
        E 0 8d 3a 40
        E 0 8d 32 40
        E 16 9d 3a 64
        E 0 9d 32 64
        E 0 9d 37 64
        E 80 8d 3a 40
        E 0 8d 32 40
        E 0 8d 37 40
        E 16 9d 24 64
        E 0 9d 30 64
        E 80 8d 24 40
        E 0 8d 30 40
        E 16 9d 3c 64
        E 0 9d 34 64
        E 80 8d 3c 40
        E 0 8d 34 40
        E 16 9d 29 64
        E 80 8d 29 40
        E 16 9d 3c 64
        E 0 9d 35 64
        E 0 9d 39 64
        E 32 8d 3c 40
        E 0 8d 35 40
        E 0 8d 39 40
        E 16 9d 35 64
        E 0 9d 39 64
        E 0 9d 3c 64
        E 32 8d 35 40
        E 0 8d 39 40
        E 0 8d 3c 40
        E 16 9d 3c 64
        E 0 9d 35 64
        E 0 9d 39 64
        E 80 8d 3c 40
        E 0 8d 35 40
        E 0 8d 39 40
        E 16 9d 39 64
        E 0 9d 35 64
        E 0 9d 3c 64
        E 80 8d 39 40
        E 0 8d 35 40
        E 0 8d 3c 40
        E 208 9d 24 64
        E 0 9d 30 64
        E 80 8d 24 40
        E 0 8d 30 40
        E 16 9d 3c 64
        E 0 9d 3a 64
        E 0 9d 34 64
        E 0 9d 37 64
        E 32 8d 3c 40
        E 0 8d 3a 40
        E 0 8d 34 40
        E 0 8d 37 40
        E 16 9d 3a 64
        E 0 9d 34 64
        E 0 9d 3c 64
        E 0 9d 37 64
        E 32 8d 3a 40
        E 0 8d 34 40
        E 0 8d 3c 40
        E 0 8d 37 40
        E 16 9d 34 64
        E 0 9d 3c 64
        E 0 9d 3a 64
        E 0 9d 37 64
        E 80 8d 34 40
        E 0 8d 3c 40
        E 0 8d 3a 40
        E 0 8d 37 40
        E 16 9d 34 64
        E 0 9d 3a 64
        E 0 9d 3c 64
        E 0 9d 37 64
        E 80 8d 34 40
        E 0 8d 3a 40
        E 0 8d 3c 40
        E 0 8d 37 40
        E 16 9d 3a 64
        E 0 9d 34 64
        E 0 9d 3c 64
        E 0 9d 37 64
        E 80 8d 3a 40
        E 0 8d 34 40
        E 0 8d 3c 40
        E 0 8d 37 40
        E 16 9d 3a 64
        E 0 9d 34 64
        E 0 9d 3c 64
        E 0 9d 37 64
        E 80 8d 3a 40
        E 0 8d 34 40
        E 0 8d 3c 40
        E 0 8d 37 40
        E 16 9d 30 64
        E 0 9d 24 64
        E 80 8d 30 40
        E 0 8d 24 40
        E 16 9d 34 64
        E 0 9d 3a 64
        E 0 9d 3c 64
        E 0 9d 37 64
        E 32 8d 34 40
        E 0 8d 3a 40
        E 0 8d 3c 40
        E 0 8d 37 40
        E 16 9d 3a 64
        E 0 9d 34 64
        E 0 9d 37 64
        E 0 9d 3c 64
        E 32 8d 3a 40
        E 0 8d 34 40
        E 0 8d 37 40
        E 0 8d 3c 40
        E 16 9d 3a 64
        E 0 9d 34 64
        E 0 9d 37 64
        E 0 9d 3c 64
        E 80 8d 3a 40
        E 0 8d 34 40
        E 0 8d 37 40
        E 0 8d 3c 40
        E 16 9d 34 64
        E 0 9d 3a 64
        E 0 9d 37 64
        E 0 9d 3c 64
        E 80 8d 34 40
        E 0 8d 3a 40
        E 0 8d 37 40
        E 0 8d 3c 40
        E 16 9d 3a 64
        E 0 9d 34 64
        E 0 9d 3c 64
        E 0 9d 37 64
        E 80 8d 3a 40
        E 0 8d 34 40
        E 0 8d 3c 40
        E 0 8d 37 40
        E 16 9d 3a 64
        E 0 9d 34 64
        E 0 9d 3c 64
        E 0 9d 37 64
        E 80 8d 3a 40
        E 0 8d 34 40
        E 0 8d 3c 40
        E 0 8d 37 40
        E 16 9d 24 64
        E 0 9d 30 64
        E 80 8d 24 40
        E 0 8d 30 40
        E 16 9d 3a 64
        E 0 9d 34 64
        E 0 9d 3c 64
        E 0 9d 37 64
        E 32 8d 3a 40
        E 0 8d 34 40
        E 0 8d 3c 40
        E 0 8d 37 40
        E 16 9d 34 64
        E 0 9d 3a 64
        E 0 9d 37 64
        E 0 9d 3c 64
        E 32 8d 34 40
        E 0 8d 3a 40
        E 0 8d 37 40
        E 0 8d 3c 40
        E 16 9d 3a 64
        E 0 9d 34 64
        E 0 9d 3c 64
        E 0 9d 37 64
        E 80 8d 3a 40
        E 0 8d 34 40
        E 0 8d 3c 40
        E 0 8d 37 40
        E 16 9d 3a 64
        E 0 9d 34 64
        E 0 9d 37 64
        E 0 9d 3c 64
        E 80 8d 3a 40
        E 0 8d 34 40
        E 0 8d 37 40
        E 0 8d 3c 40
        E 16 9d 3a 64
        E 0 9d 3c 64
        E 0 9d 34 64
        E 0 9d 37 64
        E 80 8d 3a 40
        E 0 8d 3c 40
        E 0 8d 34 40
        E 0 8d 37 40
        E 16 9d 3a 64
        E 0 9d 34 64
        E 0 9d 3c 64
        E 0 9d 37 64
        E 80 8d 3a 40
        E 0 8d 34 40
        E 0 8d 3c 40
        E 0 8d 37 40
        E 16 9d 29 64
        E 80 8d 29 40
        E 16 9d 35 64
        E 0 9d 3c 64
        E 0 9d 39 64
        E 32 8d 35 40
        E 0 8d 3c 40
        E 0 8d 39 40
        E 16 9d 35 64
        E 0 9d 39 64
        E 0 9d 3c 64
        E 32 8d 35 40
        E 0 8d 39 40
        E 0 8d 3c 40
        E 16 9d 39 64
        E 0 9d 35 64
        E 0 9d 3c 64
        E 176 8d 39 40
        E 0 8d 35 40
        E 0 8d 3c 40
        E 208 9d 26 64
        E 80 8d 26 40
        E 16 9d 32 64
        E 0 9d 39 64
        E 0 9d 35 64
        E 32 8d 32 40
        E 0 8d 39 40
        E 0 8d 35 40
        E 16 9d 32 64
        E 0 9d 35 64
        E 0 9d 39 64
        E 32 8d 32 40
        E 0 8d 35 40
        E 0 8d 39 40
        E 16 9d 32 64
        E 0 9d 35 64
        E 0 9d 39 64
        E 80 8d 32 40
        E 0 8d 35 40
        E 0 8d 39 40
        E 16 9d 32 64
        E 0 9d 35 64
        E 0 9d 39 64
        E 80 8d 32 40
        E 0 8d 35 40
        E 0 8d 39 40
        E 16 9d 2d 64
        E 80 8d 2d 40
        E 16 9d 39 64
        E 0 9d 34 64
        E 0 9d 37 64
        E 80 8d 39 40
        E 0 8d 34 40
        E 0 8d 37 40
        E 16 9d 26 64
        E 80 8d 26 40
        E 16 9d 32 64
        E 0 9d 39 64
        E 0 9d 35 64
        E 32 8d 32 40
        E 0 8d 39 40
        E 0 8d 35 40
        E 16 9d 32 64
        E 0 9d 39 64
        E 0 9d 35 64
        E 32 8d 32 40
        E 0 8d 39 40
        E 0 8d 35 40
        E 16 9d 32 64
        E 0 9d 35 64
        E 0 9d 39 64
        E 80 8d 32 40
        E 0 8d 35 40
        E 0 8d 39 40
        E 16 9d 32 64
        E 0 9d 35 64
        E 0 9d 39 64
        E 80 8d 32 40
        E 0 8d 35 40
        E 0 8d 39 40
        E 16 9d 32 64
        E 0 9d 35 64
        E 0 9d 39 64
        E 80 8d 32 40
        E 0 8d 35 40
        E 0 8d 39 40
        E 16 9d 32 64
        E 0 9d 35 64
        E 0 9d 39 64
        E 80 8d 32 40
        E 0 8d 35 40
        E 0 8d 39 40
        E 16 9d 26 64
        E 80 8d 26 40
        E 16 9d 32 64
        E 0 9d 39 64
        E 0 9d 35 64
        E 32 8d 32 40
        E 0 8d 39 40
        E 0 8d 35 40
        E 16 9d 32 64
        E 0 9d 39 64
        E 0 9d 35 64
        E 32 8d 32 40
        E 0 8d 39 40
        E 0 8d 35 40
        E 16 9d 32 64
        E 0 9d 39 64
        E 0 9d 35 64
        E 80 8d 32 40
        E 0 8d 39 40
        E 0 8d 35 40
        E 16 9d 35 64
        E 0 9d 32 64
        E 0 9d 39 64
        E 80 8d 35 40
        E 0 8d 32 40
        E 0 8d 39 40
        E 16 9d 2d 64
        E 80 8d 2d 40
        E 16 9d 34 64
        E 0 9d 39 64
        E 0 9d 37 64
        E 80 8d 34 40
        E 0 8d 39 40
        E 0 8d 37 40
        E 16 9d 26 64
        E 80 8d 26 40
        E 16 9d 39 64
        E 0 9d 32 64
        E 0 9d 35 64
        E 32 8d 39 40
        E 0 8d 32 40
        E 0 8d 35 40
        E 16 9d 35 64
        E 0 9d 32 64
        E 0 9d 39 64
        E 32 8d 35 40
        E 0 8d 32 40
        E 0 8d 39 40
        E 16 9d 39 64
        E 0 9d 32 64
        E 0 9d 35 64
        E 80 8d 39 40
        E 0 8d 32 40
        E 0 8d 35 40
        E 304 9d 3a 64
        E 0 9d 34 64
        E 80 8d 3a 40
        E 0 8d 34 40
        E 112 9d 30 64
        E 0 9d 3a 64
        E 0 9d 34 64
        E 80 8d 30 40
        E 0 8d 3a 40
        E 0 8d 34 40
        E 16 9d 30 64
        E 80 8d 30 40
        E 16 9d 3a 64
        E 0 9d 34 64
        E 80 8d 3a 40
        E 0 8d 34 40
        E 16 9d 30 64
        E 80 8d 30 40
        E 16 9d 39 64
        E 0 9d 35 64
        E 80 8d 39 40
        E 0 8d 35 40
        E 16 9d 30 64
        E 80 8d 30 40
        E 16 9d 35 64
        E 0 9d 39 64
        E 80 8d 35 40
        E 0 8d 39 40
        E 16 9d 30 64
        E 80 8d 30 40
        E 16 9d 35 64
        E 0 9d 39 64
        E 80 8d 35 40
        E 0 8d 39 40
        E 16 9d 30 64
        E 80 8d 30 40
        E 16 9d 3a 64
        E 0 9d 34 64
        E 80 8d 3a 40
        E 0 8d 34 40
        E 16 9d 30 64
        E 80 8d 30 40
        E 16 9d 3a 64
        E 0 9d 34 64
        E 80 8d 3a 40
        E 0 8d 34 40
        E 16 9d 30 64
        E 80 8d 30 40
        E 16 9d 3a 64
        E 0 9d 34 64
        E 80 8d 3a 40
        E 0 8d 34 40
        E 16 9d 30 64
        E 80 8d 30 40
        E 16 9d 29 64
        E 80 8d 29 40
        E 16 9d 30 64
        E 0 9d 39 64
        E 0 9d 35 64
        E 32 8d 30 40
        E 0 8d 39 40
        E 0 8d 35 40
        E 16 9d 30 64
        E 0 9d 39 64
        E 0 9d 35 64
        E 32 8d 30 40
        E 0 8d 39 40
        E 0 8d 35 40
        E 16 9d 30 64
        E 0 9d 39 64
        E 0 9d 35 64
        E 80 8d 30 40
        E 0 8d 39 40
        E 0 8d 35 40
        E 304 9d 2e 64
        E 80 8d 2e 40
        E 16 9d 3a 64
        E 0 9d 32 64
        E 0 9d 35 64
        E 32 8d 3a 40
        E 0 8d 32 40
        E 0 8d 35 40
        E 16 9d 3a 64
        E 0 9d 32 64
        E 0 9d 35 64
        E 32 8d 3a 40
        E 0 8d 32 40
        E 0 8d 35 40
        E 16 9d 3a 64
        E 0 9d 32 64
        E 0 9d 35 64
        E 80 8d 3a 40
        E 0 8d 32 40
        E 0 8d 35 40
        E 16 9d 3a 64
        E 0 9d 32 64
        E 0 9d 35 64
        E 80 8d 3a 40
        E 0 8d 32 40
        E 0 8d 35 40
        E 16 9d 26 64
        E 80 8d 26 40
        E 16 9d 36 64
        E 0 9d 39 64
        E 0 9d 32 64
        E 80 8d 36 40
        E 0 8d 39 40
        E 0 8d 32 40
        E 16 9d 2b 64
        E 80 8d 2b 40
        E 16 9d 32 64
        E 0 9d 2e 64
        E 0 9d 37 64
        E 32 8d 32 40
        E 0 8d 2e 40
        E 0 8d 37 40
        E 16 9d 37 64
        E 0 9d 2e 64
        E 0 9d 32 64
        E 32 8d 37 40
        E 0 8d 2e 40
        E 0 8d 32 40
        E 16 9d 32 64
        E 0 9d 2e 64
        E 0 9d 37 64
        E 80 8d 32 40
        E 0 8d 2e 40
        E 0 8d 37 40
        E 16 9d 32 64
        E 0 9d 37 64
        E 0 9d 2e 64
        E 80 8d 32 40
        E 0 8d 37 40
        E 0 8d 2e 40
        E 16 9d 2e 64
        E 80 8d 2e 40
        E 16 9d 37 64
        E 0 9d 32 64
        E 80 8d 37 40
        E 0 8d 32 40
        E 16 9d 30 64
        E 80 8d 30 40
        E 16 9d 35 64
        E 0 9d 39 64
        E 32 8d 35 40
        E 0 8d 39 40
        E 16 9d 35 64
        E 0 9d 39 64
        E 32 8d 35 40
        E 0 8d 39 40
        E 16 9d 39 64
        E 0 9d 35 64
        E 80 8d 39 40
        E 0 8d 35 40
        E 16 9d 35 64
        E 0 9d 39 64
        E 80 8d 35 40
        E 0 8d 39 40
        E 16 9d 30 64
        E 80 8d 30 40
        E 16 9d 3a 64
        E 0 9d 34 64
        E 0 9d 37 64
        E 80 8d 3a 40
        E 0 8d 34 40
        E 0 8d 37 40
        E 16 9d 29 64
        E 80 8d 29 40
        E 16 9d 30 64
        E 0 9d 35 64
        E 0 9d 39 64
        E 32 8d 30 40
        E 0 8d 35 40
        E 0 8d 39 40
        E 16 9d 30 64
        E 0 9d 35 64
        E 0 9d 39 64
        E 32 8d 30 40
        E 0 8d 35 40
        E 0 8d 39 40
        E 16 9d 30 64
        E 0 9d 35 64
        E 0 9d 39 64
        E 80 8d 30 40
        E 0 8d 35 40
        E 0 8d 39 40
        E 16 9d 30 64
        E 0 9d 35 64
        E 0 9d 39 64
        E 80 8d 30 40
        E 0 8d 35 40
        E 0 8d 39 40
        E 16 9d 30 64
        E 0 9d 35 64
        E 0 9d 39 64
        E 80 8d 30 40
        E 0 8d 35 40
        E 0 8d 39 40
        E 16 9d 30 64
        E 0 9d 39 64
        E 0 9d 35 64
        E 80 8d 30 40
        E 0 8d 39 40
        E 0 8d 35 40
        E 16 9d 2e 64
        E 80 8d 2e 40
        E 16 9d 3a 64
        E 0 9d 32 64
        E 0 9d 35 64
        E 32 8d 3a 40
        E 0 8d 32 40
        E 0 8d 35 40
        E 16 9d 32 64
        E 0 9d 3a 64
        E 0 9d 35 64
        E 32 8d 32 40
        E 0 8d 3a 40
        E 0 8d 35 40
        E 16 9d 32 64
        E 0 9d 3a 64
        E 0 9d 35 64
        E 80 8d 32 40
        E 0 8d 3a 40
        E 0 8d 35 40
        E 16 9d 32 64
        E 0 9d 3a 64
        E 0 9d 35 64
        E 80 8d 32 40
        E 0 8d 3a 40
        E 0 8d 35 40
        E 16 9d 26 64
        E 80 8d 26 40
        E 16 9d 39 64
        E 0 9d 36 64
        E 0 9d 32 64
        E 80 8d 39 40
        E 0 8d 36 40
        E 0 8d 32 40
        E 16 9d 2b 64
        E 80 8d 2b 40
        E 16 9d 2e 64
        E 0 9d 37 64
        E 0 9d 32 64
        E 32 8d 2e 40
        E 0 8d 37 40
        E 0 8d 32 40
        E 16 9d 32 64
        E 0 9d 2e 64
        E 0 9d 37 64
        E 32 8d 32 40
        E 0 8d 2e 40
        E 0 8d 37 40
        E 16 9d 2e 64
        E 0 9d 37 64
        E 0 9d 32 64
        E 80 8d 2e 40
        E 0 8d 37 40
        E 0 8d 32 40
        E 16 9d 2e 64
        E 0 9d 37 64
        E 0 9d 32 64
        E 80 8d 2e 40
        E 0 8d 37 40
        E 0 8d 32 40
        E 16 9d 2e 64
        E 80 8d 2e 40
        E 16 9d 37 64
        E 0 9d 32 64
        E 80 8d 37 40
        E 0 8d 32 40
        E 16 9d 30 64
        E 80 8d 30 40
        E 16 9d 35 64
        E 0 9d 39 64
        E 32 8d 35 40
        E 0 8d 39 40
        E 16 9d 35 64
        E 0 9d 39 64
        E 32 8d 35 40
        E 0 8d 39 40
        E 16 9d 35 64
        E 0 9d 39 64
        E 80 8d 35 40
        E 0 8d 39 40
        E 16 9d 35 64
        E 0 9d 39 64
        E 80 8d 35 40
        E 0 8d 39 40
        E 16 9d 30 64
        E 80 8d 30 40
        E 16 9d 3a 64
        E 0 9d 37 64
        E 80 8d 3a 40
        E 0 8d 37 40
        E 16 9d 35 64
        E 0 9d 39 64
        E 176 8d 35 40
        E 0 8d 39 40
        E 16 9d 29 64
        E 0 9d 35 64
        E 80 8d 29 40
        E 0 8d 35 40
        E 112 b0 7b 00
        GUID {33DBB517-59EC-804D-A850-1FB65744AB88}
        IGNTEMPO 0 120 4 4
        SRCCOLOR 685
        VELLANE -1 86 6
        CFGEDITVIEW 0 0 74 12 0 0 0 0 0 0.5
        KEYSNAP 0
        TRACKSEL 226
        EVTFILTER 0 -1 -1 -1 -1 0 0 0 0 -1 -1 -1 -1 0 -1 0 -1 -1
        CFGEDIT 1 1 0 0 0 0 1 0 1 1 1 0.25 474 462 1014 762 1 0 1 3 0 0 0 0 0 -1 0 0 1 64
      >
    >
    <ITEM
      POSITION 0
      SNAPOFFS 0
      LENGTH 36
      LOOP 1
      ALLTAKES 0
      FADEIN 1 0 0 1 0 0
      FADEOUT 1 0 0 1 0 0
      MUTE 0
      SEL 0
      YPOS 0.5 0.166667
      IGUID {9EF5A03B-0114-0E47-8223-35CC288DD903}
      IID 4
      NAME "BASS                 - National_Anthems_-_Cyprus.mid"
      VOLPAN 1 0 1 -1
      SOFFS 1 2
      PLAYRATE 1 1 0 -1 0 0.0025
      CHANMODE 0
      TAKECOLOR 26173599 B
      GUID {A68241D0-507A-234D-AFCF-0A947728EDBB}
      <SOURCE MIDI
        HASDATA 1 192 QN
        POOLEDEVTS {01320539-FCB6-E54C-B7D8-7F6714A37787}
        <X 0 0 0 0 3 "BASS                "
          /wNCQVNTICAgICAgICAgICAgICAgIA==
        >
        E 576 93 29 64
        E 80 83 29 40
        E 112 93 2d 64
        E 80 83 2d 40
        E 112 93 30 64
        E 80 83 30 40
        E 112 93 29 64
        E 80 83 29 40
        E 112 93 2d 64
        E 80 83 2d 40
        E 112 93 30 64
        E 80 83 30 40
        E 112 93 2e 64
        E 80 83 2e 40
        E 112 93 32 64
        E 80 83 32 40
        E 112 93 30 64
        E 80 83 30 40
        E 112 93 29 64
        E 80 83 29 40
        E 112 93 2d 64
        E 80 83 2d 40
        E 112 93 30 64
        E 80 83 30 40
        E 112 93 24 64
        E 80 83 24 40
        E 112 93 30 64
        E 80 83 30 40
        E 112 93 30 64
        E 80 83 30 40
        E 112 93 24 64
        E 80 83 24 40
        E 112 93 30 64
        E 80 83 30 40
        E 112 93 30 64
        E 80 83 30 40
        E 112 93 24 64
        E 80 83 24 40
        E 112 93 30 64
        E 80 83 30 40
        E 112 93 30 64
        E 80 83 30 40
        E 112 93 29 64
        E 80 83 29 40
        E 112 93 2d 64
        E 80 83 2d 40
        E 112 93 30 64
        E 176 83 30 40
        E 16 93 32 64
        E 80 83 32 40
        E 112 93 2d 64
        E 80 83 2d 40
        E 112 93 32 64
        E 80 83 32 40
        E 112 93 32 64
        E 0 93 26 64
        E 80 83 32 40
        E 0 83 26 40
        E 112 93 2d 64
        E 80 83 2d 40
        E 112 93 32 64
        E 80 83 32 40
        E 112 93 26 64
        E 80 83 26 40
        E 112 93 2d 64
        E 80 83 2d 40
        E 112 93 2d 64
        E 80 83 2d 40
        E 112 93 32 64
        E 80 83 32 40
        E 112 93 32 64
        E 80 83 32 40
        E 304 93 24 64
        E 80 83 24 40
        E 112 93 24 64
        E 80 83 24 40
        E 112 93 24 64
        E 80 83 24 40
        E 112 93 29 64
        E 80 83 29 40
        E 112 93 29 64
        E 80 83 29 40
        E 112 93 29 64
        E 80 83 29 40
        E 112 93 30 64
        E 80 83 30 40
        E 112 93 24 64
        E 80 83 24 40
        E 112 93 30 64
        E 80 83 30 40
        E 112 93 29 64
        E 80 83 29 40
        E 112 93 35 64
        E 80 83 35 40
        E 304 93 2e 64
        E 80 83 2e 40
        E 112 93 32 64
        E 80 83 32 40
        E 112 93 26 64
        E 80 83 26 40
        E 112 93 2b 64
        E 80 83 2b 40
        E 112 93 32 64
        E 80 83 32 40
        E 112 93 2e 64
        E 80 83 2e 40
        E 112 93 30 64
        E 80 83 30 40
        E 112 93 24 64
        E 80 83 24 40
        E 112 93 30 64
        E 80 83 30 40
        E 112 93 29 64
        E 80 83 29 40
        E 112 93 30 64
        E 80 83 30 40
        E 112 93 35 64
        E 80 83 35 40
        E 112 93 2e 64
        E 80 83 2e 40
        E 112 93 32 64
        E 80 83 32 40
        E 112 93 26 64
        E 80 83 26 40
        E 112 93 2b 64
        E 80 83 2b 40
        E 112 93 32 64
        E 80 83 32 40
        E 112 93 2e 64
        E 80 83 2e 40
        E 112 93 30 64
        E 80 83 30 40
        E 112 93 24 64
        E 80 83 24 40
        E 112 93 30 64
        E 80 83 30 40
        E 112 93 29 64
        E 176 83 29 40
        E 16 93 35 64
        E 80 83 35 40
        E 112 b0 7b 00
        GUID {137B982D-D8F7-E143-A0A6-4C0A78A259E5}
        IGNTEMPO 0 120 4 4
        SRCCOLOR 631
        VELLANE -1 86 6
        CFGEDITVIEW -128.330323 35.227273 74 12 0 0 0 0 0 0.5
        KEYSNAP 0
        TRACKSEL 226
        EVTFILTER 0 -1 -1 -1 -1 0 0 0 0 -1 -1 -1 -1 0 -1 0 -1 -1
        CFGEDIT 1 1 0 0 0 0 1 0 1 1 1 0.25 474 462 1014 762 1 0 1 3 0 0 0 0 0 -1 0 0 1 64
      >
      TAKE
      NAME "BASS                 - National_Anthems_-_Cyprus.mid"
      TAKEVOLPAN 0 1 -1
      SOFFS 1 2
      PLAYRATE 1 1 0 -1 0 0.0025
      CHANMODE 0
      GUID {576F150E-1F15-944D-8AD1-F953609A4ABF}
      <SOURCE MIDI
        HASDATA 1 192 QN
        POOLEDEVTS {84BFD156-77E9-6A41-8A0C-BC6C784202C8}
        <X 0 0 0 0 3 "BASS                "
          /wNCQVNTICAgICAgICAgICAgICAgIA==
        >
        E 576 93 29 64
        E 80 83 29 40
        E 112 93 2d 64
        E 80 83 2d 40
        E 112 93 30 64
        E 80 83 30 40
        E 112 93 29 64
        E 80 83 29 40
        E 112 93 2d 64
        E 80 83 2d 40
        E 112 93 30 64
        E 80 83 30 40
        E 112 93 2e 64
        E 80 83 2e 40
        E 112 93 32 64
        E 80 83 32 40
        E 112 93 30 64
        E 80 83 30 40
        E 112 93 29 64
        E 80 83 29 40
        E 112 93 2d 64
        E 80 83 2d 40
        E 112 93 30 64
        E 80 83 30 40
        E 112 93 24 64
        E 80 83 24 40
        E 112 93 30 64
        E 80 83 30 40
        E 112 93 30 64
        E 80 83 30 40
        E 112 93 24 64
        E 80 83 24 40
        E 112 93 30 64
        E 80 83 30 40
        E 112 93 30 64
        E 80 83 30 40
        E 112 93 24 64
        E 80 83 24 40
        E 112 93 30 64
        E 80 83 30 40
        E 112 93 30 64
        E 80 83 30 40
        E 112 93 29 64
        E 80 83 29 40
        E 112 93 2d 64
        E 80 83 2d 40
        E 112 93 30 64
        E 176 83 30 40
        E 16 93 32 64
        E 80 83 32 40
        E 112 93 2d 64
        E 80 83 2d 40
        E 112 93 32 64
        E 80 83 32 40
        E 112 93 32 64
        E 0 93 26 64
        E 80 83 32 40
        E 0 83 26 40
        E 112 93 2d 64
        E 80 83 2d 40
        E 112 93 32 64
        E 80 83 32 40
        E 112 93 26 64
        E 80 83 26 40
        E 112 93 2d 64
        E 80 83 2d 40
        E 112 93 2d 64
        E 80 83 2d 40
        E 112 93 32 64
        E 80 83 32 40
        E 112 93 32 64
        E 80 83 32 40
        E 304 93 24 64
        E 80 83 24 40
        E 112 93 24 64
        E 80 83 24 40
        E 112 93 24 64
        E 80 83 24 40
        E 112 93 29 64
        E 80 83 29 40
        E 112 93 29 64
        E 80 83 29 40
        E 112 93 29 64
        E 80 83 29 40
        E 112 93 30 64
        E 80 83 30 40
        E 112 93 24 64
        E 80 83 24 40
        E 112 93 30 64
        E 80 83 30 40
        E 112 93 29 64
        E 80 83 29 40
        E 112 93 35 64
        E 80 83 35 40
        E 304 93 2e 64
        E 80 83 2e 40
        E 112 93 32 64
        E 80 83 32 40
        E 112 93 26 64
        E 80 83 26 40
        E 112 93 2b 64
        E 80 83 2b 40
        E 112 93 32 64
        E 80 83 32 40
        E 112 93 2e 64
        E 80 83 2e 40
        E 112 93 30 64
        E 80 83 30 40
        E 112 93 24 64
        E 80 83 24 40
        E 112 93 30 64
        E 80 83 30 40
        E 112 93 29 64
        E 80 83 29 40
        E 112 93 30 64
        E 80 83 30 40
        E 112 93 35 64
        E 80 83 35 40
        E 112 93 2e 64
        E 80 83 2e 40
        E 112 93 32 64
        E 80 83 32 40
        E 112 93 26 64
        E 80 83 26 40
        E 112 93 2b 64
        E 80 83 2b 40
        E 112 93 32 64
        E 80 83 32 40
        E 112 93 2e 64
        E 80 83 2e 40
        E 112 93 30 64
        E 80 83 30 40
        E 112 93 24 64
        E 80 83 24 40
        E 112 93 30 64
        E 80 83 30 40
        E 112 93 29 64
        E 176 83 29 40
        E 16 93 35 64
        E 80 83 35 40
        E 112 b0 7b 00
        GUID {85508E77-5419-E546-9686-0D8489C5C8FB}
        IGNTEMPO 0 120 4 4
        SRCCOLOR 686
        VELLANE -1 86 6
        CFGEDITVIEW 0 0 74 12 0 0 0 0 0 0.5
        KEYSNAP 0
        TRACKSEL 226
        EVTFILTER 0 -1 -1 -1 -1 0 0 0 0 -1 -1 -1 -1 0 -1 0 -1 -1
        CFGEDIT 1 1 0 0 0 0 1 0 1 1 1 0.25 474 462 1014 762 1 0 1 3 0 0 0 0 0 -1 0 0 1 64
      >
    >
    <ITEM
      POSITION 0
      SNAPOFFS 0
      LENGTH 36
      LOOP 1
      ALLTAKES 0
      FADEIN 1 0 0 1 0 0
      FADEOUT 1 0 0 1 0 0
      MUTE 0
      SEL 0
      YPOS 0 0.166667
      IGUID {EC4ECA2A-1900-1642-9891-1C8074B348AC}
      IID 1
      NAME "MELODY               - National_Anthems_-_Cyprus.mid"
      VOLPAN 1 0 1 -1
      SOFFS 1 2
      PLAYRATE 1 1 0 -1 0 0.0025
      CHANMODE 0
      TAKECOLOR 26173599 B
      GUID {733AA04A-1644-FF4D-936B-9784E2F3C154}
      <SOURCE MIDI
        HASDATA 1 192 QN
        POOLEDEVTS {FA58D8AD-7557-C24D-9342-AE1C5B84AF2D}
        <X 0 0 0 0 3 "MELODY              "
          /wNNRUxPRFkgICAgICAgICAgICAgIA==
        >
        <X 0 0 0 0 1 "THE SOFTWARE TOOLWORKS"
          /wFUSEUgU09GVFdBUkUgVE9PTFdPUktT
        >
        <X 0 0 0 0 1 "WORLD ATLAS"
          /wFXT1JMRCBBVExBUw==
        >
        <X 0 0 0 0 1 "MultiMedia Windows Version"
          /wFNdWx0aU1lZGlhIFdpbmRvd3MgVmVyc2lvbg==
        >
        <X 0 0 0 0 1 "Country: GREECE"
          /wFDb3VudHJ5OiBHUkVFQ0U=
        >
        <X 0 0 0 0 1 "Anthem Name:"
          /wFBbnRoZW0gTmFtZTo=
        >
        <X 0 0 0 0 1 "(p) (c) The Software Toolworks 1991"
          /wEocCkgKGMpIFRoZSBTb2Z0d2FyZSBUb29sd29ya3MgMTk5MQ==
        >
        <X 0 0 0 0 1 "date: 9-9-91"
          /wFkYXRlOiA5LTktOTE=
        >
        <X 0 0 0 0 1 "MMWIN EDIT DATE:9-12-91"
          /wFNTVdJTiBFRElUIERBVEU6OS0xMi05MQ==
        >
        <X 0 0 0 0 1 "revised 11-26-91"
          /wFyZXZpc2VkIDExLTI2LTkx
        >
        <X 0 0 0 0 1 "This file provided by:"
          /wFUaGlzIGZpbGUgcHJvdmlkZWQgYnk6
        >
        <X 0 0 0 0 1 "Rob Wallace Music"
          /wFSb2IgV2FsbGFjZSBNdXNpYw==
        >
        <X 0 0 0 0 1 "(602) 979-6201"
          /wEoNjAyKSA5NzktNjIwMQ==
        >
        E 384 90 51 64
        E 128 80 51 40
        E 16 90 52 64
        E 32 80 52 40
        E 16 90 54 64
        E 320 80 54 40
        E 16 90 52 64
        E 32 80 52 40
        E 16 90 51 64
        E 128 80 51 40
        E 16 90 52 64
        E 32 80 52 40
        E 16 90 54 64
        E 176 80 54 40
        E 16 90 51 64
        E 176 80 51 40
        E 16 90 52 64
        E 128 80 52 40
        E 16 90 54 64
        E 32 80 54 40
        E 16 90 56 64
        E 320 80 56 40
        E 16 90 56 64
        E 32 80 56 40
        E 16 90 58 64
        E 128 80 58 40
        E 16 90 58 64
        E 32 80 58 40
        E 16 90 59 64
        E 272 80 59 40
        E 112 90 4f 64
        E 128 80 4f 40
        E 16 90 51 64
        E 32 80 51 40
        E 16 90 52 64
        E 320 80 52 40
        E 16 90 51 64
        E 32 80 51 40
        E 16 90 4f 64
        E 128 80 4f 40
        E 16 90 51 64
        E 32 80 51 40
        E 16 90 52 64
        E 176 80 52 40
        E 16 90 4f 64
        E 80 80 4f 40
        E 112 90 54 64
        E 128 80 54 40
        E 16 90 54 64
        E 32 80 54 40
        E 16 90 58 64
        E 320 80 58 40
        E 16 90 56 64
        E 32 80 56 40
        E 16 90 54 64
        E 128 80 54 40
        E 16 90 52 64
        E 32 80 52 40
        E 16 90 51 64
        E 272 80 51 40
        E 112 90 51 64
        E 128 80 51 40
        E 16 90 51 64
        E 32 80 51 40
        E 16 90 56 64
        E 320 80 56 40
        E 16 90 59 64
        E 32 80 59 40
        E 16 90 58 64
        E 128 80 58 40
        E 16 90 55 64
        E 32 80 55 40
        E 16 90 56 64
        E 176 80 56 40
        E 16 90 51 64
        E 80 80 51 40
        E 112 90 51 64
        E 128 80 51 40
        E 16 90 51 64
        E 32 80 51 40
        E 16 90 56 64
        E 320 80 56 40
        E 16 90 59 64
        E 32 80 59 40
        E 16 90 58 64
        E 128 80 58 40
        E 16 90 55 64
        E 32 80 55 40
        E 16 90 56 64
        E 272 80 56 40
        E 112 90 54 64
        E 128 80 54 40
        E 16 90 54 64
        E 32 80 54 40
        E 16 90 54 64
        E 176 80 54 40
        E 16 90 58 64
        E 80 80 58 40
        E 112 90 54 64
        E 128 80 54 40
        E 16 90 54 64
        E 32 80 54 40
        E 16 90 54 64
        E 176 80 54 40
        E 16 90 59 64
        E 80 80 59 40
        E 112 90 54 64
        E 128 80 54 40
        E 16 90 54 64
        E 32 80 54 40
        E 16 90 54 64
        E 176 80 54 40
        E 16 90 58 64
        E 80 80 58 40
        E 64 90 54 64
        E 32 80 54 40
        E 16 90 56 64
        E 128 80 56 40
        E 16 90 58 64
        E 32 80 58 40
        E 16 90 59 64
        E 272 80 59 40
        E 112 90 59 64
        E 128 80 59 40
        E 16 90 58 64
        E 32 80 58 40
        E 16 90 58 64
        E 176 80 58 40
        E 16 90 56 64
        E 80 80 56 40
        E 112 90 56 64
        E 128 80 56 40
        E 16 90 54 64
        E 32 80 54 40
        E 16 90 54 64
        E 176 80 54 40
        E 16 90 52 64
        E 80 80 52 40
        E 112 90 56 64
        E 128 80 56 40
        E 16 90 56 64
        E 32 80 56 40
        E 16 90 54 64
        E 320 80 54 40
        E 16 90 51 64
        E 32 80 51 40
        E 16 90 52 64
        E 128 80 52 40
        E 16 90 4f 64
        E 32 80 4f 40
        E 16 90 52 64
        E 176 80 52 40
        E 16 90 51 64
        E 80 80 51 40
        E 112 90 59 64
        E 128 80 59 40
        E 16 90 58 64
        E 32 80 58 40
        E 16 90 58 64
        E 176 80 58 40
        E 16 90 56 64
        E 80 80 56 40
        E 112 90 56 64
        E 128 80 56 40
        E 16 90 54 64
        E 32 80 54 40
        E 16 90 54 64
        E 176 80 54 40
        E 16 90 52 64
        E 80 80 52 40
        E 112 90 56 64
        E 128 80 56 40
        E 16 90 56 64
        E 32 80 56 40
        E 16 90 54 64
        E 320 80 54 40
        E 16 90 51 64
        E 32 80 51 40
        E 16 90 52 64
        E 128 80 52 40
        E 16 90 4f 64
        E 32 80 4f 40
        E 16 90 4d 64
        E 272 80 4d 40
        E 112 b0 7b 00
        GUID {B4D62134-6B05-EC4A-B488-3EE16BC5F2C2}
        IGNTEMPO 0 120 4 4
        SRCCOLOR 628
        VELLANE -1 86 6
        CFGEDITVIEW -128.330323 35.227273 74 12 0 0 0 0 0 0.5
        KEYSNAP 0
        TRACKSEL 226
        EVTFILTER 0 -1 -1 -1 -1 0 0 0 0 -1 -1 -1 -1 0 -1 0 -1 -1
        CFGEDIT 1 1 0 0 0 0 1 0 1 1 1 0.25 474 462 1014 762 1 0 1 3 0 0 0 0 0 -1 0 0 1 64
      >
      TAKE
      NAME "MELODY               - National_Anthems_-_Cyprus.mid"
      TAKEVOLPAN 0 1 -1
      SOFFS 1 2
      PLAYRATE 1 1 0 -1 0 0.0025
      CHANMODE 0
      GUID {7DC7ACAC-DB05-1D47-AC60-216347E70D49}
      <SOURCE MIDI
        HASDATA 1 192 QN
        POOLEDEVTS {499DFD56-AC05-2C47-AFFF-A645F12D8669}
        <X 0 0 0 0 3 "MELODY              "
          /wNNRUxPRFkgICAgICAgICAgICAgIA==
        >
        <X 0 0 0 0 1 "THE SOFTWARE TOOLWORKS"
          /wFUSEUgU09GVFdBUkUgVE9PTFdPUktT
        >
        <X 0 0 0 0 1 "WORLD ATLAS"
          /wFXT1JMRCBBVExBUw==
        >
        <X 0 0 0 0 1 "MultiMedia Windows Version"
          /wFNdWx0aU1lZGlhIFdpbmRvd3MgVmVyc2lvbg==
        >
        <X 0 0 0 0 1 "Country: GREECE"
          /wFDb3VudHJ5OiBHUkVFQ0U=
        >
        <X 0 0 0 0 1 "Anthem Name:"
          /wFBbnRoZW0gTmFtZTo=
        >
        <X 0 0 0 0 1 "(p) (c) The Software Toolworks 1991"
          /wEocCkgKGMpIFRoZSBTb2Z0d2FyZSBUb29sd29ya3MgMTk5MQ==
        >
        <X 0 0 0 0 1 "date: 9-9-91"
          /wFkYXRlOiA5LTktOTE=
        >
        <X 0 0 0 0 1 "MMWIN EDIT DATE:9-12-91"
          /wFNTVdJTiBFRElUIERBVEU6OS0xMi05MQ==
        >
        <X 0 0 0 0 1 "revised 11-26-91"
          /wFyZXZpc2VkIDExLTI2LTkx
        >
        <X 0 0 0 0 1 "This file provided by:"
          /wFUaGlzIGZpbGUgcHJvdmlkZWQgYnk6
        >
        <X 0 0 0 0 1 "Rob Wallace Music"
          /wFSb2IgV2FsbGFjZSBNdXNpYw==
        >
        <X 0 0 0 0 1 "(602) 979-6201"
          /wEoNjAyKSA5NzktNjIwMQ==
        >
        E 384 90 51 64
        E 128 80 51 40
        E 16 90 52 64
        E 32 80 52 40
        E 16 90 54 64
        E 320 80 54 40
        E 16 90 52 64
        E 32 80 52 40
        E 16 90 51 64
        E 128 80 51 40
        E 16 90 52 64
        E 32 80 52 40
        E 16 90 54 64
        E 176 80 54 40
        E 16 90 51 64
        E 176 80 51 40
        E 16 90 52 64
        E 128 80 52 40
        E 16 90 54 64
        E 32 80 54 40
        E 16 90 56 64
        E 320 80 56 40
        E 16 90 56 64
        E 32 80 56 40
        E 16 90 58 64
        E 128 80 58 40
        E 16 90 58 64
        E 32 80 58 40
        E 16 90 59 64
        E 272 80 59 40
        E 112 90 4f 64
        E 128 80 4f 40
        E 16 90 51 64
        E 32 80 51 40
        E 16 90 52 64
        E 320 80 52 40
        E 16 90 51 64
        E 32 80 51 40
        E 16 90 4f 64
        E 128 80 4f 40
        E 16 90 51 64
        E 32 80 51 40
        E 16 90 52 64
        E 176 80 52 40
        E 16 90 4f 64
        E 80 80 4f 40
        E 112 90 54 64
        E 128 80 54 40
        E 16 90 54 64
        E 32 80 54 40
        E 16 90 58 64
        E 320 80 58 40
        E 16 90 56 64
        E 32 80 56 40
        E 16 90 54 64
        E 128 80 54 40
        E 16 90 52 64
        E 32 80 52 40
        E 16 90 51 64
        E 272 80 51 40
        E 112 90 51 64
        E 128 80 51 40
        E 16 90 51 64
        E 32 80 51 40
        E 16 90 56 64
        E 320 80 56 40
        E 16 90 59 64
        E 32 80 59 40
        E 16 90 58 64
        E 128 80 58 40
        E 16 90 55 64
        E 32 80 55 40
        E 16 90 56 64
        E 176 80 56 40
        E 16 90 51 64
        E 80 80 51 40
        E 112 90 51 64
        E 128 80 51 40
        E 16 90 51 64
        E 32 80 51 40
        E 16 90 56 64
        E 320 80 56 40
        E 16 90 59 64
        E 32 80 59 40
        E 16 90 58 64
        E 128 80 58 40
        E 16 90 55 64
        E 32 80 55 40
        E 16 90 56 64
        E 272 80 56 40
        E 112 90 54 64
        E 128 80 54 40
        E 16 90 54 64
        E 32 80 54 40
        E 16 90 54 64
        E 176 80 54 40
        E 16 90 58 64
        E 80 80 58 40
        E 112 90 54 64
        E 128 80 54 40
        E 16 90 54 64
        E 32 80 54 40
        E 16 90 54 64
        E 176 80 54 40
        E 16 90 59 64
        E 80 80 59 40
        E 112 90 54 64
        E 128 80 54 40
        E 16 90 54 64
        E 32 80 54 40
        E 16 90 54 64
        E 176 80 54 40
        E 16 90 58 64
        E 80 80 58 40
        E 64 90 54 64
        E 32 80 54 40
        E 16 90 56 64
        E 128 80 56 40
        E 16 90 58 64
        E 32 80 58 40
        E 16 90 59 64
        E 272 80 59 40
        E 112 90 59 64
        E 128 80 59 40
        E 16 90 58 64
        E 32 80 58 40
        E 16 90 58 64
        E 176 80 58 40
        E 16 90 56 64
        E 80 80 56 40
        E 112 90 56 64
        E 128 80 56 40
        E 16 90 54 64
        E 32 80 54 40
        E 16 90 54 64
        E 176 80 54 40
        E 16 90 52 64
        E 80 80 52 40
        E 112 90 56 64
        E 128 80 56 40
        E 16 90 56 64
        E 32 80 56 40
        E 16 90 54 64
        E 320 80 54 40
        E 16 90 51 64
        E 32 80 51 40
        E 16 90 52 64
        E 128 80 52 40
        E 16 90 4f 64
        E 32 80 4f 40
        E 16 90 52 64
        E 176 80 52 40
        E 16 90 51 64
        E 80 80 51 40
        E 112 90 59 64
        E 128 80 59 40
        E 16 90 58 64
        E 32 80 58 40
        E 16 90 58 64
        E 176 80 58 40
        E 16 90 56 64
        E 80 80 56 40
        E 112 90 56 64
        E 128 80 56 40
        E 16 90 54 64
        E 32 80 54 40
        E 16 90 54 64
        E 176 80 54 40
        E 16 90 52 64
        E 80 80 52 40
        E 112 90 56 64
        E 128 80 56 40
        E 16 90 56 64
        E 32 80 56 40
        E 16 90 54 64
        E 320 80 54 40
        E 16 90 51 64
        E 32 80 51 40
        E 16 90 52 64
        E 128 80 52 40
        E 16 90 4f 64
        E 32 80 4f 40
        E 16 90 4d 64
        E 272 80 4d 40
        E 112 b0 7b 00
        GUID {D2E0210A-8BF3-2048-8B9C-E33150BDB4E1}
        IGNTEMPO 0 120 4 4
        SRCCOLOR 687
        VELLANE -1 86 6
        CFGEDITVIEW 0 0 74 12 0 0 0 0 0 0.5
        KEYSNAP 0
        TRACKSEL 226
        EVTFILTER 0 -1 -1 -1 -1 0 0 0 0 -1 -1 -1 -1 0 -1 0 -1 -1
        CFGEDIT 1 1 0 0 0 0 1 0 1 1 1 0.25 474 462 1014 762 1 0 1 3 0 0 0 0 0 -1 0 0 1 64
      >
    >
  >
  <TRACK {3ACE96EE-12C5-854F-8381-544885B9F024}
    NAME ""
    PEAKCOL 16576
    BEAT -1
    AUTOMODE 0
    VOLPAN 1 0 -1 -1 1
    MUTESOLO 0 0 0
    IPHASE 0
    ISBUS 0 0
    BUSCOMP 0 0
    SHOWINMIX 1 0.6667 0.5 1 0.5 0 0 0
    FREEMODE 0
    SEL 0
    REC 0 0 0 0 0 0 0
    VU 2
    TRACKHEIGHT 152 0
    INQ 0 0 0 0.5 100 0 0 100
    NCHAN 2
    FX 1
    TRACKID {3ACE96EE-12C5-854F-8381-544885B9F024}
    PERF 0
    MIDIOUT -1
    MAINSEND 1 0
    <FXCHAIN
      WNDRECT 528 36 724 387
      SHOW 1
      LASTSEL 0
      DOCKED 1
    >
  >
  <TRACK {4A6CD977-ADCC-3A4D-927C-BB2CEF4B0809}
    NAME "vst Gladiator"
    PEAKCOL 27222112
    BEAT -1
    AUTOMODE 0
    VOLPAN 1 0 -1 -1 1
    MUTESOLO 0 0 0
    IPHASE 0
    ISBUS 0 0
    BUSCOMP 2 0
    SHOWINMIX 1 0.6667 0.5 1 0.5 0 0 0
    FREEMODE 0
    SEL 0
    REC 0 0 0 0 0 0 0
    VU 2
    TRACKHEIGHT 0 0
    INQ 0 0 0 0.5 100 0 0 100
    NCHAN 2
    FX 1
    TRACKID {4A6CD977-ADCC-3A4D-927C-BB2CEF4B0809}
    PERF 0
    MIDIOUT -1
    MAINSEND 1 0
    <FXCHAIN
      SHOW 0
      LASTSEL 0
      DOCKED 0
      BYPASS 0 0 0
      <VST "VSTi: Gladiator (Tone2.com)" Gladiator.vst 0 "" 1412581196
        TEcyVO5e7f4AAAAAAgAAAAEAAAAAAAAAAgAAAAAAAABaBAAAAQAAAAAAEAA=
        Q2NuSwAAAGBGeENrAAAAAVQyR0wAAAABAAABB0luaXQAAAAAAAAAAAAAAAAAAAAAAAAAAAAAAAA9zMzNPMzMzTw0OVg9uFH0PXnbIz+AAAA7xJumPb52yT+AAAA7xJum
        AAAAAD6mZmY+PXCkP4AAAD7FHrk/AAAAPwAAAAAAAAA9ffO2PdDlYDy8an8/RR64AAAAAD+AAAA8NDlYPZFocz71wo87RJumPbhR6D69cKQ+PXCkP4AAAD8AAAA/A9cL
        PwAAAAAAAAAAAAAAPwAAAD8AAAA/AAAAPtmZmj8AAAAAAAAAO+VgQj24UesAAAAAPk21xDtEm6Y/S4UeAAAAAAAAAAA+64UgPpR64T1hR7A+z1woPx64Uj49cKY/AAAA
        PwAAAAAAAAAAAAAAPwAAAAAAAAAAAAAAP4AAAD+AAAAAAAAAPxHrhT8AAAA/AAAAPwAAAD8AAAAAAAAAPwAAAD8AAAA/AAAAAAAAAD8AAAA/AAAAPwAAAAAAAAA6gxJv
        P1Cj1wAAAAA/gAAAAAAAADqDEm8/AAAAAAAAAAAAAAAAAAAAPwAAAAAAAAA/gAAAAAAAAD+AAAAAAAAAPwAAAD8AAAA/AAAAPwAAAD8AAAA/AAAAPwAAAD8AAAA/AAAA
        PwAAAD8AAAA/EeuGPKPXCjqDEm88RJumAAAAAAAAAAAAAAAAPLxqfwAAAAAAAAAAAAAAAAAAAAAAAAAAAAAAAAAAAAAAAAAAAAAAAAAAAAAAAAAAAAAAAAAAAAAAAAAA
        AAAAAAAAAAA8E3S8AAAAADw0OVgAAAAAPBN0vAAAAAA8NDlYAAAAADwTdLwAAAAAPDQ5WAAAAAA8E3S8AAAAADw0OVgAAAAAPGVgQj2HKwI8ZWBCOwMSbz2JN0w7AxJv
        PLQ5WDyLQ5Y8k3S8PVT99D0XjVA8zMzNPoAAAD9ywjU/AAAAP1GnuT8wjT4/HLCNAAAAADsDEm86gxJvAAAAAAAAAAAAAAAAPwAAADqDEm87RJumP4AAAAAAAAA/gAAA
        AAAAAD+AAAAAAAAAAAAAAAAAAAAAAAAAP4AAAAAAAAA/AAAAAAAAAD8AAAA/BR64PwAAAD+AAAA/AAAAPwAAAD8AAAA/gAAAP4AAAAAAAAAAAAAAAAAAAD8AAAA/gAAA
        PwAAAAAAAAA+vXCkAAAAAAAAAAA/gAAAP4AAAD8j1wo/gAAAAAAAAAAAAAA/gAAAPwAAAAAAAAAAAAAAAAAAAAAAAAAAAAAAAAAAAAAAAAAAAAAAAAAAAAAAAAAAAAAA
        AAAAAD8AAAA/AAAAPwAAAD8AAAA/AAAAPwAAAAAAAAAAAAAAP4AAAAAAAAAAAAAAAAAAAAAAAAAAAAAAAAAAAAAAAAAAAAAAAAAAAAAAAAAAAAAAAAAAAAAAAAAAAAAA
        AAAAAAAAAAAAAAAAAAAAAAAAAAAAAAAAAAAAAAAAAAAAAAAAAAAAAAAAAAAAAAAAAAAAAAAAqqusrQ==
        AEluaXQAEAAAAA==
      >
      PRESETNAME Init
      FLOATPOS 500 379 987 799
      FXID {532372E3-5B0D-9345-A9C8-98A8EBAF9A7E}
      WAK 0
    >
    <ITEM
      POSITION 0
      SNAPOFFS 0
      LENGTH 36
      LOOP 1
      ALLTAKES 0
      FADEIN 1 0 0 1 0 0
      FADEOUT 1 0 0 1 0 0
      MUTE 0
      SEL 0
      YPOS 0 0.25
      IGUID {4060C924-EAB0-424D-A8F0-5C7A0C6D4124}
      IID 1
      NAME "MELODY               - National_Anthems_-_Cyprus.mid"
      VOLPAN 1 0 1 -1
      SOFFS 1 2
      PLAYRATE 1 1 0 -1 0 0.0025
      CHANMODE 0
      TAKECOLOR 26173599 B
      GUID {2BA0EC90-7C36-AE45-93FB-D962994FF2F6}
      <SOURCE MIDI
        HASDATA 1 192 QN
        POOLEDEVTS {105B7F2D-AD9D-E44B-A638-3430974F43EE}
        <X 0 0 0 0 3 "MELODY              "
          /wNNRUxPRFkgICAgICAgICAgICAgIA==
        >
        <X 0 0 0 0 1 "THE SOFTWARE TOOLWORKS"
          /wFUSEUgU09GVFdBUkUgVE9PTFdPUktT
        >
        <X 0 0 0 0 1 "WORLD ATLAS"
          /wFXT1JMRCBBVExBUw==
        >
        <X 0 0 0 0 1 "MultiMedia Windows Version"
          /wFNdWx0aU1lZGlhIFdpbmRvd3MgVmVyc2lvbg==
        >
        <X 0 0 0 0 1 "Country: GREECE"
          /wFDb3VudHJ5OiBHUkVFQ0U=
        >
        <X 0 0 0 0 1 "Anthem Name:"
          /wFBbnRoZW0gTmFtZTo=
        >
        <X 0 0 0 0 1 "(p) (c) The Software Toolworks 1991"
          /wEocCkgKGMpIFRoZSBTb2Z0d2FyZSBUb29sd29ya3MgMTk5MQ==
        >
        <X 0 0 0 0 1 "date: 9-9-91"
          /wFkYXRlOiA5LTktOTE=
        >
        <X 0 0 0 0 1 "MMWIN EDIT DATE:9-12-91"
          /wFNTVdJTiBFRElUIERBVEU6OS0xMi05MQ==
        >
        <X 0 0 0 0 1 "revised 11-26-91"
          /wFyZXZpc2VkIDExLTI2LTkx
        >
        <X 0 0 0 0 1 "This file provided by:"
          /wFUaGlzIGZpbGUgcHJvdmlkZWQgYnk6
        >
        <X 0 0 0 0 1 "Rob Wallace Music"
          /wFSb2IgV2FsbGFjZSBNdXNpYw==
        >
        <X 0 0 0 0 1 "(602) 979-6201"
          /wEoNjAyKSA5NzktNjIwMQ==
        >
        e 384 90 51 64
        e 128 80 51 40
        e 16 90 52 64
        e 32 80 52 40
        e 16 90 54 64
        e 320 80 54 40
        e 16 90 52 64
        e 32 80 52 40
        e 16 90 51 64
        e 128 80 51 40
        e 16 90 52 64
        e 32 80 52 40
        e 16 90 54 64
        e 176 80 54 40
        e 16 90 51 64
        e 176 80 51 40
        e 16 90 52 64
        e 128 80 52 40
        e 16 90 54 64
        e 32 80 54 40
        e 16 90 56 64
        e 320 80 56 40
        e 16 90 56 64
        e 32 80 56 40
        e 16 90 58 64
        e 128 80 58 40
        e 16 90 58 64
        e 32 80 58 40
        e 16 90 59 64
        e 272 80 59 40
        e 112 90 4f 64
        e 128 80 4f 40
        e 16 90 51 64
        e 32 80 51 40
        e 16 90 52 64
        e 320 80 52 40
        e 16 90 51 64
        e 32 80 51 40
        e 16 90 4f 64
        e 128 80 4f 40
        e 16 90 51 64
        e 32 80 51 40
        e 16 90 52 64
        e 176 80 52 40
        e 16 90 4f 64
        e 80 80 4f 40
        e 112 90 54 64
        e 128 80 54 40
        e 16 90 54 64
        e 32 80 54 40
        e 16 90 58 64
        e 320 80 58 40
        e 16 90 56 64
        e 32 80 56 40
        e 16 90 54 64
        e 128 80 54 40
        e 16 90 52 64
        e 32 80 52 40
        e 16 90 51 64
        e 272 80 51 40
        e 112 90 51 64
        e 128 80 51 40
        e 16 90 51 64
        e 32 80 51 40
        e 16 90 56 64
        e 320 80 56 40
        e 16 90 59 64
        e 32 80 59 40
        e 16 90 58 64
        e 128 80 58 40
        e 16 90 55 64
        e 32 80 55 40
        e 16 90 56 64
        e 176 80 56 40
        e 16 90 51 64
        e 80 80 51 40
        e 112 90 51 64
        e 128 80 51 40
        e 16 90 51 64
        e 32 80 51 40
        e 16 90 56 64
        e 320 80 56 40
        e 16 90 59 64
        e 32 80 59 40
        e 16 90 58 64
        e 128 80 58 40
        e 16 90 55 64
        e 32 80 55 40
        e 16 90 56 64
        e 272 80 56 40
        e 112 90 54 64
        e 128 80 54 40
        e 16 90 54 64
        e 32 80 54 40
        e 16 90 54 64
        e 176 80 54 40
        e 16 90 58 64
        e 80 80 58 40
        e 112 90 54 64
        e 128 80 54 40
        e 16 90 54 64
        e 32 80 54 40
        e 16 90 54 64
        e 176 80 54 40
        e 16 90 59 64
        e 80 80 59 40
        e 112 90 54 64
        e 128 80 54 40
        e 16 90 54 64
        e 32 80 54 40
        e 16 90 54 64
        e 176 80 54 40
        e 16 90 58 64
        e 80 80 58 40
        e 64 90 54 64
        e 32 80 54 40
        e 16 90 56 64
        e 128 80 56 40
        e 16 90 58 64
        e 32 80 58 40
        e 16 90 59 64
        e 272 80 59 40
        e 112 90 59 64
        e 128 80 59 40
        e 16 90 58 64
        e 32 80 58 40
        e 16 90 58 64
        e 176 80 58 40
        e 16 90 56 64
        e 80 80 56 40
        e 112 90 56 64
        e 128 80 56 40
        e 16 90 54 64
        e 32 80 54 40
        e 16 90 54 64
        e 176 80 54 40
        e 16 90 52 64
        e 80 80 52 40
        e 112 90 56 64
        e 128 80 56 40
        e 16 90 56 64
        e 32 80 56 40
        e 16 90 54 64
        e 320 80 54 40
        e 16 90 51 64
        e 32 80 51 40
        e 16 90 52 64
        e 128 80 52 40
        e 16 90 4f 64
        e 32 80 4f 40
        e 16 90 52 64
        e 176 80 52 40
        e 16 90 51 64
        e 80 80 51 40
        e 112 90 59 64
        e 128 80 59 40
        e 16 90 58 64
        e 32 80 58 40
        e 16 90 58 64
        e 176 80 58 40
        e 16 90 56 64
        e 80 80 56 40
        e 112 90 56 64
        e 128 80 56 40
        e 16 90 54 64
        e 32 80 54 40
        e 16 90 54 64
        e 176 80 54 40
        e 16 90 52 64
        e 80 80 52 40
        e 112 90 56 64
        e 128 80 56 40
        e 16 90 56 64
        e 32 80 56 40
        e 16 90 54 64
        e 320 80 54 40
        e 16 90 51 64
        e 32 80 51 40
        e 16 90 52 64
        e 128 80 52 40
        e 16 90 4f 64
        e 32 80 4f 40
        e 16 90 4d 64
        e 272 80 4d 40
        E 112 b0 7b 00
        GUID {B4D62134-6B05-EC4A-B488-3EE16BC5F2C2}
        IGNTEMPO 0 120 4 4
        SRCCOLOR 628
        VELLANE -1 86 6
        CFGEDITVIEW -985.079792 28.048037 74 12 0 0 0 0 0 0.5
        KEYSNAP 0
        TRACKSEL 226
        EVTFILTER 0 -1 -1 -1 -1 0 0 0 0 -1 -1 -1 -1 0 -1 0 -1 -1
        CFGEDIT 1 1 0 0 0 0 1 0 1 1 1 0.25 474 462 1014 762 1 0 1 3 0 0 0 0 0 -1 0 0 1 64
      >
      TAKE
      NAME "MELODY               - National_Anthems_-_Cyprus.mid"
      TAKEVOLPAN 0 1 -1
      SOFFS 1 2
      PLAYRATE 1 1 0 -1 0 0.0025
      CHANMODE 0
      GUID {D3555890-7FDE-B240-9439-3717DC8FFD18}
      <SOURCE MIDI
        HASDATA 1 192 QN
        POOLEDEVTS {F766886C-CE4C-ED49-B7AE-B8F9936A07CD}
        <X 0 0 0 0 3 "MELODY              "
          /wNNRUxPRFkgICAgICAgICAgICAgIA==
        >
        <X 0 0 0 0 1 "THE SOFTWARE TOOLWORKS"
          /wFUSEUgU09GVFdBUkUgVE9PTFdPUktT
        >
        <X 0 0 0 0 1 "WORLD ATLAS"
          /wFXT1JMRCBBVExBUw==
        >
        <X 0 0 0 0 1 "MultiMedia Windows Version"
          /wFNdWx0aU1lZGlhIFdpbmRvd3MgVmVyc2lvbg==
        >
        <X 0 0 0 0 1 "Country: GREECE"
          /wFDb3VudHJ5OiBHUkVFQ0U=
        >
        <X 0 0 0 0 1 "Anthem Name:"
          /wFBbnRoZW0gTmFtZTo=
        >
        <X 0 0 0 0 1 "(p) (c) The Software Toolworks 1991"
          /wEocCkgKGMpIFRoZSBTb2Z0d2FyZSBUb29sd29ya3MgMTk5MQ==
        >
        <X 0 0 0 0 1 "date: 9-9-91"
          /wFkYXRlOiA5LTktOTE=
        >
        <X 0 0 0 0 1 "MMWIN EDIT DATE:9-12-91"
          /wFNTVdJTiBFRElUIERBVEU6OS0xMi05MQ==
        >
        <X 0 0 0 0 1 "revised 11-26-91"
          /wFyZXZpc2VkIDExLTI2LTkx
        >
        <X 0 0 0 0 1 "This file provided by:"
          /wFUaGlzIGZpbGUgcHJvdmlkZWQgYnk6
        >
        <X 0 0 0 0 1 "Rob Wallace Music"
          /wFSb2IgV2FsbGFjZSBNdXNpYw==
        >
        <X 0 0 0 0 1 "(602) 979-6201"
          /wEoNjAyKSA5NzktNjIwMQ==
        >
        E 384 90 51 64
        E 128 80 51 40
        E 16 90 52 64
        E 32 80 52 40
        E 16 90 54 64
        E 320 80 54 40
        E 16 90 52 64
        E 32 80 52 40
        E 16 90 51 64
        E 128 80 51 40
        E 16 90 52 64
        E 32 80 52 40
        E 16 90 54 64
        E 176 80 54 40
        E 16 90 51 64
        E 176 80 51 40
        E 16 90 52 64
        E 128 80 52 40
        E 16 90 54 64
        E 32 80 54 40
        E 16 90 56 64
        E 320 80 56 40
        E 16 90 56 64
        E 32 80 56 40
        E 16 90 58 64
        E 128 80 58 40
        E 16 90 58 64
        E 32 80 58 40
        E 16 90 59 64
        E 272 80 59 40
        E 112 90 4f 64
        E 128 80 4f 40
        E 16 90 51 64
        E 32 80 51 40
        E 16 90 52 64
        E 320 80 52 40
        E 16 90 51 64
        E 32 80 51 40
        E 16 90 4f 64
        E 128 80 4f 40
        E 16 90 51 64
        E 32 80 51 40
        E 16 90 52 64
        E 176 80 52 40
        E 16 90 4f 64
        E 80 80 4f 40
        E 112 90 54 64
        E 128 80 54 40
        E 16 90 54 64
        E 32 80 54 40
        E 16 90 58 64
        E 320 80 58 40
        E 16 90 56 64
        E 32 80 56 40
        E 16 90 54 64
        E 128 80 54 40
        E 16 90 52 64
        E 32 80 52 40
        E 16 90 51 64
        E 272 80 51 40
        E 112 90 51 64
        E 128 80 51 40
        E 16 90 51 64
        E 32 80 51 40
        E 16 90 56 64
        E 320 80 56 40
        E 16 90 59 64
        E 32 80 59 40
        E 16 90 58 64
        E 128 80 58 40
        E 16 90 55 64
        E 32 80 55 40
        E 16 90 56 64
        E 176 80 56 40
        E 16 90 51 64
        E 80 80 51 40
        E 112 90 51 64
        E 128 80 51 40
        E 16 90 51 64
        E 32 80 51 40
        E 16 90 56 64
        E 320 80 56 40
        E 16 90 59 64
        E 32 80 59 40
        E 16 90 58 64
        E 128 80 58 40
        E 16 90 55 64
        E 32 80 55 40
        E 16 90 56 64
        E 272 80 56 40
        E 112 90 54 64
        E 128 80 54 40
        E 16 90 54 64
        E 32 80 54 40
        E 16 90 54 64
        E 176 80 54 40
        E 16 90 58 64
        E 80 80 58 40
        E 112 90 54 64
        E 128 80 54 40
        E 16 90 54 64
        E 32 80 54 40
        E 16 90 54 64
        E 176 80 54 40
        E 16 90 59 64
        E 80 80 59 40
        E 112 90 54 64
        E 128 80 54 40
        E 16 90 54 64
        E 32 80 54 40
        E 16 90 54 64
        E 176 80 54 40
        E 16 90 58 64
        E 80 80 58 40
        E 64 90 54 64
        E 32 80 54 40
        E 16 90 56 64
        E 128 80 56 40
        E 16 90 58 64
        E 32 80 58 40
        E 16 90 59 64
        E 272 80 59 40
        E 112 90 59 64
        E 128 80 59 40
        E 16 90 58 64
        E 32 80 58 40
        E 16 90 58 64
        E 176 80 58 40
        E 16 90 56 64
        E 80 80 56 40
        E 112 90 56 64
        E 128 80 56 40
        E 16 90 54 64
        E 32 80 54 40
        E 16 90 54 64
        E 176 80 54 40
        E 16 90 52 64
        E 80 80 52 40
        E 112 90 56 64
        E 128 80 56 40
        E 16 90 56 64
        E 32 80 56 40
        E 16 90 54 64
        E 320 80 54 40
        E 16 90 51 64
        E 32 80 51 40
        E 16 90 52 64
        E 128 80 52 40
        E 16 90 4f 64
        E 32 80 4f 40
        E 16 90 52 64
        E 176 80 52 40
        E 16 90 51 64
        E 80 80 51 40
        E 112 90 59 64
        E 128 80 59 40
        E 16 90 58 64
        E 32 80 58 40
        E 16 90 58 64
        E 176 80 58 40
        E 16 90 56 64
        E 80 80 56 40
        E 112 90 56 64
        E 128 80 56 40
        E 16 90 54 64
        E 32 80 54 40
        E 16 90 54 64
        E 176 80 54 40
        E 16 90 52 64
        E 80 80 52 40
        E 112 90 56 64
        E 128 80 56 40
        E 16 90 56 64
        E 32 80 56 40
        E 16 90 54 64
        E 320 80 54 40
        E 16 90 51 64
        E 32 80 51 40
        E 16 90 52 64
        E 128 80 52 40
        E 16 90 4f 64
        E 32 80 4f 40
        E 16 90 4d 64
        E 272 80 4d 40
        E 112 b0 7b 00
        GUID {D2E0210A-8BF3-2048-8B9C-E33150BDB4E1}
        IGNTEMPO 0 120 4 4
        SRCCOLOR 687
        VELLANE -1 86 6
        CFGEDITVIEW 0 0 74 12 0 0 0 0 0 0.5
        KEYSNAP 0
        TRACKSEL 226
        EVTFILTER 0 -1 -1 -1 -1 0 0 0 0 -1 -1 -1 -1 0 -1 0 -1 -1
        CFGEDIT 1 1 0 0 0 0 1 0 1 1 1 0.25 474 462 1014 762 1 0 1 3 0 0 0 0 0 -1 0 0 1 64
      >
    >
  >
  <TRACK {9E2CAE92-CCC1-1F4A-BCF6-93DCFE473BDF}
    NAME "16th pulse (mix w/ send?)"
    PEAKCOL 16576
    BEAT -1
    AUTOMODE 0
    VOLPAN 1 0 -1 -1 1
    MUTESOLO 0 0 0
    IPHASE 0
    ISBUS 0 0
    BUSCOMP 0 0
    SHOWINMIX 1 0.6667 0.5 1 0.5 0 0 0
    FREEMODE 0
    SEL 0
    REC 0 0 0 0 0 0 0
    VU 2
    TRACKHEIGHT 0 0
    INQ 0 0 0 0.5 100 0 0 100
    NCHAN 2
    FX 1
    TRACKID {9E2CAE92-CCC1-1F4A-BCF6-93DCFE473BDF}
    PERF 0
    MIDIOUT -1
    MAINSEND 1 0
    <FXCHAIN
      WNDRECT 36 359 724 387
      SHOW 0
      LASTSEL 0
      DOCKED 0
      BYPASS 1 0 0
      <VST "VSTi: BlueARP.x64 (graywolf2004)" BlueARP.x64.vst 0 "" 929322872
        eFdkN+5e7f4AAAAAAgAAAAEAAAAAAAAAAgAAAAAAAAAODwEAAQAAAAAAEAA=
        YmJuawYPAQBmaXhwFAAAABAAAQEBAAAAAAII/wUAAAAAAAAAZnBncCIAAAAPEFoEAAAAfwB/AEAAAQABAAAAAAAAAAAAfwAAAAEAAAAAY2hucAQAAAAA////Y2hucwgA
        AAAPDg4O/////2NobnAEAAAAAP///2NobnMIAAAAFv////////9jaG5wBAAAAAD///9jaG5zCAAAABL/////////Y2hucAQAAAAA////Y2hucwgAAAAICAkJ/////2No
        bnAEAAAAAP///2NobnMIAAAANf////////9jaG5wBAAAAAD///9jaG5zCAAAAD0+////////Y2hucAQAAAAA////Y2hucwgAAAAgICAh/////2NobnAEAAAAAP///2No
        bnMIAAAAGhr///////9jaG5wBAAAAAD///9jaG5zCAAAAP//////////Y2hucAQAAAAA////Y2hucwgAAAD//////////2NobnAEAAAAAP///2NobnMIAAAA////////
        //9jaG5wBAAAAAD///9jaG5zCAAAAP//////////Y2hucAQAAAAA////Y2hucwgAAAD//////////2NobnAEAAAAAP///2NobnMIAAAA//////////9jaG5wBAAAAAD/
        //9jaG5zCAAAAP//////////Y2hucAQAAAAA////Y2hucwgAAAD//////////3Byb2cSAgAAcHJncCIAAAAQEFoEAAEAfwB/AEAAAQABAAAAAAAAAAAAfwAAAAAAAAAA
        cGdubTAAAAAtIEluaXRpYWwgcHJvZ3JhbSAtAP9/AAAEzMQlAQAAAfSwYiABAAAAAAABADABAABzdHAwQAAAAAAAAAAAAAAAAAAAAAAAAAAAAAAAAAAAAAAAAAAAAAAA
        AAAAAAAAAAAAAAAAAAAAAAAAAAAAAAAAAAAAAAAAAABzdHAxQAAAAAgICAgICAgICAgICAgICAgICAgICAgICAgICAgICAgICAgICAgICAgICAgICAgICAgICAgICAgI
        CAgICAgICAhzdHAyQAAAAAEBAQEBAQEBAQEBAQEBAQEBAQEBAQEBAQEBAQEBAQEBAQEBAQEBAQEBAQEBAQEBAQEBAQEBAQEBAQEBAQEBAQFzdHAzQAAAAAQEBAQEBAQE
        BAQEBAQEBAQEBAQEBAQEBAQEBAQEBAQEBAQEBAQEBAQEBAQEBAQEBAQEBAQEBAQEBAQEBAQEBARzdHA0QAAAAGBgYGBgYGBgYGBgYGBgYGBgYGBgYGBgYGBgYGBgYGBg
        YGBgYGBgYGBgYGBgYGBgYGBgYGBgYGBgYGBgYGBgYGBzdHA1QAAAAAAAAAAAAAAAAAAAAAAAAAAAAAAAAAAAAAAAAAAAAAAAAAAAAAAAAAAAAAAAAAAAAAAAAAAAAAAA
        AAAAAAAAAABwcm9nEgIAAHByZ3AiAAAAEBAyBAADAH8AfwBAAAEAAQAAAAAAAAAAAH8AAAAAAAAAAHBnbm0wAAAAU2ltcGxlIDRrIFVwAAAAAJApvl//fwAAsHjEJQEA
        AAAEKr5f/38AAPSwYiABAAAAc3RwMEAAAAAAAAAAAAAAAAAAAAAAAAAAAAAAAAAAAAAAAAAAAAAAAAAAAAAAAAAAAAAAAAAAAAAAAAAAAAAAAAAAAAAAAAAAc3RwMUAA
        AAAICAgICAgICAgICAgICAgICAgICAgICAgICAgICAgICAgICAgICAgICAgICAgICAgICAgICAgICAgICAgICAgIc3RwMkAAAAABAQEBAQEBAQEBAQEBAQEBAQEBAQEB
        AQEBAQEBAQEBAQEBAQEBAQEBAQEBAQEBAQEBAQEBAQEBAQEBAQEBAQEBc3RwM0AAAAAECBAgBAgQIAQIECAECBAgBAQEBAQEBAQEBAQEBAQEBAQEBAQEBAQEBAQEBAQE
        BAQEBAQEBAQEBAQEBAQEBAQEc3RwNEAAAABgYGBgYGBgYGBgYGBgYGBgYGBgYGBgYGBgYGBgYGBgYGBgYGBgYGBgYGBgYGBgYGBgYGBgYGBgYGBgYGBgYGBgc3RwNUAA
        AAAAAAAAAAAAAAAAAAAAAAAAAAAAAAAAAAAAAAAAAAAAAAAAAAAAAAAAAAAAAAAAAAAAAAAAAAAAAAAAAAAAAAAAcHJvZxICAABwcmdwIgAAABAQMgQAAwB/AH8AQAAB
        AAEAAAAAAAAAAAB/AAAAAAAAAABwZ25tMAAAAFNpbXBsZSA0ayBEb3duAACQKb5f/38AALB4xCUBAAAABCq+X/9/AAD0sGIgAQAAAHN0cDBAAAAAAAAAAAAAAAAAAAAA
        AAAAAAAAAAAAAAAAAAAAAAAAAAAAAAAAAAAAAAAAAAAAAAAAAAAAAAAAAAAAAAAAAAAAAHN0cDFAAAAACAgICAgICAgICAgICAgICAgICAgICAgICAgICAgICAgICAgI
        CAgICAgICAgICAgICAgICAgICAgICAgICAgICHN0cDJAAAAAAQEBAQEBAQEBAQEBAQEBAQEBAQEBAQEBAQEBAQEBAQEBAQEBAQEBAQEBAQEBAQEBAQEBAQEBAQEBAQEB
        AQEBAXN0cDNAAAAAIBAIBCAQCAQgEAgEIBAIBAQEBAQEBAQEBAQEBAQEBAQEBAQEBAQEBAQEBAQEBAQEBAQEBAQEBAQEBAQEBAQEBHN0cDRAAAAAYGBgYGBgYGBgYGBg
        YGBgYGBgYGBgYGBgYGBgYGBgYGBgYGBgYGBgYGBgYGBgYGBgYGBgYGBgYGBgYGBgYGBgYHN0cDVAAAAAAAAAAAAAAAAAAAAAAAAAAAAAAAAAAAAAAAAAAAAAAAAAAAAA
        AAAAAAAAAAAAAAAAAAAAAAAAAAAAAAAAAAAAAHByb2cSAgAAcHJncCIAAAAQEDIEAAMAfwB/AEAAAQABAAAAAAAAAAAAfwAAAAAAAAAAcGdubTAAAABTaW1wbGUgM2sg
        VXAAAAAAkCm+X/9/AACweMQlAQAAAAQqvl//fwAA9LBiIAEAAABzdHAwQAAAAAAAAAAAAAAAAAAAAAAAAAAAAAAAAAAAAAAAAAAAAAAAAAAAAAAAAAAAAAAAAAAAAAAA
        AAAAAAAAAAAAAAAAAABzdHAxQAAAAAgICAgICAgICAgICAgICAgICAgICAgICAgICAgICAgICAgICAgICAgICAgICAgICAgICAgICAgICAgICAgICAhzdHAyQAAAAAEB
        AQEBAQEBAQEBAQEBAQEBAQEBAQEBAQEBAQEBAQEBAQEBAQEBAQEBAQEBAQEBAQEBAQEBAQEBAQEBAQEBAQFzdHAzQAAAAAQIEAQIEAQIEAQIEAQIEAgEBAQEBAQEBAQE
        BAQEBAQEBAQEBAQEBAQEBAQEBAQEBAQEBAQEBAQEBAQEBAQEBARzdHA0QAAAAGBgYGBgYGBgYGBgYGBgYGBgYGBgYGBgYGBgYGBgYGBgYGBgYGBgYGBgYGBgYGBgYGBg
        YGBgYGBgYGBgYGBgYGBzdHA1QAAAAAAAAAAAAAAAAAAAAAAAAAAAAAAAAAAAAAAAAAAAAAAAAAAAAAAAAAAAAAAAAAAAAAAAAAAAAAAAAAAAAAAAAABwcm9nEgIAAHBy
        Z3AiAAAAEBAyBAADAH8AfwBAAAEAAQAAAAAAAAAAAH8AAAAAAAAAAHBnbm0wAAAAU2ltcGxlIDNrIERvd24AAJApvl//fwAAsHjEJQEAAAAEKr5f/38AAPSwYiABAAAA
        c3RwMEAAAAAAAAAAAAAAAAAAAAAAAAAAAAAAAAAAAAAAAAAAAAAAAAAAAAAAAAAAAAAAAAAAAAAAAAAAAAAAAAAAAAAAAAAAc3RwMUAAAAAICAgICAgICAgICAgICAgI
        CAgICAgICAgICAgICAgICAgICAgICAgICAgICAgICAgICAgICAgICAgICAgICAgIc3RwMkAAAAABAQEBAQEBAQEBAQEBAQEBAQEBAQEBAQEBAQEBAQEBAQEBAQEBAQEB
        AQEBAQEBAQEBAQEBAQEBAQEBAQEBAQEBc3RwM0AAAAAQCAQQCAQQCAQQCAQQCAQIBAQEBAQEBAQEBAQEBAQEBAQEBAQEBAQEBAQEBAQEBAQEBAQEBAQEBAQEBAQEBAQE
        c3RwNEAAAABgYGBgYGBgYGBgYGBgYGBgYGBgYGBgYGBgYGBgYGBgYGBgYGBgYGBgYGBgYGBgYGBgYGBgYGBgYGBgYGBgYGBgc3RwNUAAAAAAAAAAAAAAAAAAAAAAAAAA
        AAAAAAAAAAAAAAAAAAAAAAAAAAAAAAAAAAAAAAAAAAAAAAAAAAAAAAAAAAAAAAAAcHJvZxICAABwcmdwIgAAABAIWgQAAQB/AH8AQAABAAEAAAAAAAAAAAB/AAAAAAAA
        AABwZ25tMAAAAENob3JkIERlYWRtYXU1IHBsdWNrcyB2YXIxACUBAAAABCq+X/9/AAD0sGIgAQAAAHN0cDBAAAAAAAAAAAAAAAAAAAAAAAAAAAAAAAAAAAAAAAAAAAAA
        AAAAAAAAAAAAAAAAAAAAAAAAAAAAAAAAAAAAAAAAAAAAAHN0cDFAAAAACAgECAgIBAgICAgICAgICAgICAgICAgICAgICAgICAgICAgICAgICAgICAgICAgICAgICAgI
        CAgICAgICAgICHN0cDJAAAAABAAEAAQABAABAQEBAQEBAQEBAQEBAQEBAQEBAQEBAQEBAQEBAQEBAQEBAQEBAQEBAQEBAQEBAQEBAQEBAQEBAXN0cDNAAAAABAQEBAQE
        BAQEBAQEBAQEBAQEBAQEBAQEBAQEBAQEBAQEBAQEBAQEBAQEBAQEBAQEBAQEBAQEBAQEBAQEBAQEBHN0cDRAAAAAMGBgYDBgYGBgYGBgYGBgYGBgYGBgYGBgYGBgYGBg
        YGBgYGBgYGBgYGBgYGBgYGBgYGBgYGBgYGBgYGBgYGBgYHN0cDVAAAAAAAAAAAAAAAAAAAAAAAAAAAAAAAAAAAAAAAAAAAAAAAAAAAAAAAAAAAAAAAAAAAAAAAAAAAAA
        AAAAAAAAAAAAAHByb2cSAgAAcHJncCIAAAAQCFoEAAEAfwB/AEAAAQABAAAAAAAAAAAAfwEAAAAAAAAAcGdubTAAAABDaG9yZCBEZWFkbWF1NSBwbHVja3MgdmFyMgAl
        AQAAAAQqvl//fwAA9LBiIAEAAABzdHAwQAAAAAAAAAAAAAAAAAAAAAAAAAAAAAAAAAAAAAAAAAAAAAAAAAAAAAAAAAAAAAAAAAAAAAAAAAAAAAAAAAAAAAAAAABzdHAx
        QAAAAAwIDggMCA4ICAgICAgICAgICAgICAgICAgICAgICAgICAgICAgICAgICAgICAgICAgICAgICAgICAgICAgICAhzdHAyQAAAAAQABAAEAAQAAQEBAQEBAQEBAQEB
        AQEBAQEBAQEBAQEBAQEBAQEBAQEBAQEBAQEBAQEBAQEBAQEBAQEBAQEBAQFzdHAzQAAAAAQEBAQEBAQEBAQEBAQEBAQEBAQEBAQEBAQEBAQEBAQEBAQEBAQEBAQEBAQE
        BAQEBAQEBAQEBAQEBAQEBAQEBARzdHA0QAAAADBgYGAwYGBgYGBgYGBgYGBgYGBgYGBgYGBgYGBgYGBgYGBgYGBgYGBgYGBgYGBgYGBgYGBgYGBgYGBgYGBgYGBzdHA1
        QAAAAAAAAAAAAAAAAAAAAAAAAAAAAAAAAAAAAAAAAAAAAAAAAAAAAAAAAAAAAAAAAAAAAAAAAAAAAAAAAAAAAAAAAABwcm9nEgIAAHByZ3AiAAAAEBBKBAABAH8AfwBA
        AAEAAQAAAAAAAAAAAH8BAAAAAAAAAHBnbm0wAAAAUG9seXBob25pYyBvY3QuIFBsdWNrcyB2YXIxAAEAAAAEKr5f/38AAPSwYiABAAAAc3RwMEAAAAAAAAAAAAAAAAAA
        AAAAAAAAAAAAAAAAAAAAAAAAAAAAAAAAAAAAAAAAAAAAAAAAAAAAAAAAAAAAAAAAAAAAAAAAc3RwMUAAAAAICAgMCAgICAgMCAgICAwICAgICAgICAgICAgICAgICAgI
        CAgICAgICAgICAgICAgICAgICAgICAgICAgICAgIc3RwMkAAAAAEAAAEAAAEAAAEAAAEAAQAAQEBAQEBAQEBAQEBAQEBAQEBAQEBAQEBAQEBAQEBAQEBAQEBAQEBAQEB
        AQEBAQEBc3RwM0AAAAAEBAQEBAQEBAQEBAQEBAQEBAQEBAQEBAQEBAQEBAQEBAQEBAQEBAQEBAQEBAQEBAQEBAQEBAQEBAQEBAQEBAQEc3RwNEAAAABgYGBgYGBgYGBg
        YGBgYGBgYGBgYGBgYGBgYGBgYGBgYGBgYGBgYGBgYGBgYGBgYGBgYGBgYGBgYGBgYGBgYGBgc3RwNUAAAAAAAAAAAAAAAAAAAAAAAAAAAAAAAAAAAAAAAAAAAAAAAAAA
        AAAAAAAAAAAAAAAAAAAAAAAAAAAAAAAAAAAAAAAAcHJvZxICAABwcmdwIgAAABAQSgQAAQB/AH8AQAABAAEAAAAAAAAAAAB/AQAAAAAAAABwZ25tMAAAAFBvbHlwaG9u
        aWMgb2N0LiBQbHVja3MgdmFyMgABAAAABCq+X/9/AAD0sGIgAQAAAHN0cDBAAAAAAAAAAAAAAAAAAAAAAAAAAAAAAAAAAAAAAAAAAAAAAAAAAAAAAAAAAAAAAAAAAAAA
        AAAAAAAAAAAAAAAAAAAAAHN0cDFAAAAADAgIDggIDAgIDggIDAgOCAgICAgICAgICAgICAgICAgICAgICAgICAgICAgICAgICAgICAgICAgICAgICAgICHN0cDJAAAAA
        BAAABAAABAAABAAABAAEAAEBAQEBAQEBAQEBAQEBAQEBAQEBAQEBAQEBAQEBAQEBAQEBAQEBAQEBAQEBAQEBAXN0cDNAAAAABAQEBAQEBAQEBAQEBAQEBAQEBAQEBAQE
        BAQEBAQEBAQEBAQEBAQEBAQEBAQEBAQEBAQEBAQEBAQEBAQEBAQEBHN0cDRAAAAAYGBgYGBgYGBgYGBgYGBgYGBgYGBgYGBgYGBgYGBgYGBgYGBgYGBgYGBgYGBgYGBg
        YGBgYGBgYGBgYGBgYGBgYHN0cDVAAAAAAAAAAAAAAAAAAAAAAAAAAAAAAAAAAAAAAAAAAAAAAAAAAAAAAAAAAAAAAAAAAAAAAAAAAAAAAAAAAAAAAAAAAHByb2cSAgAA
        cHJncCIAAAAQEDQEAAEAfwB/AEAAAQABAAAAAAAAAAAAfwEAAAAAAAAAcGdubTAAAABQb2x5cGhvbmljIG9jdC4gUGx1Y2tzIHZhcjMAAQAAAAQqvl//fwAA9LBiIAEA
        AABzdHAwQAAAAAAAAAAAAAAAAAAAAAAAAAAAAAAAAAAAAAAAAAAAAAAAAAAAAAAAAAAAAAAAAAAAAAAAAAAAAAAAAAAAAAAAAABzdHAxQAAAAAwICA4ICAwICA4ICAwI
        DggICAgICAgICAgICAgICAgICAgICAgICAgICAgICAgICAgICAgICAgICAgICAgICAhzdHAyQAAAAAQCAgQCAgQCAgQCAgQCBAIBAQEBAQEBAQEBAQEBAQEBAQEBAQEB
        AQEBAQEBAQEBAQEBAQEBAQEBAQEBAQEBAQFzdHAzQAAAAAQEBAQEBAQEBAQEBAQEBAQEBAQEBAQEBAQEBAQEBAQEBAQEBAQEBAQEBAQEBAQEBAQEBAQEBAQEBAQEBAQE
        BARzdHA0QAAAAGBgYGBgYGBgYGBgYGBgYGBgYGBgYGBgYGBgYGBgYGBgYGBgYGBgYGBgYGBgYGBgYGBgYGBgYGBgYGBgYGBgYGBzdHA1QAAAAAAAAAAAAAAAAAAAAAAA
        AAAAAAAAAAAAAAAAAAAAAAAAAAAAAAAAAAAAAAAAAAAAAAAAAAAAAAAAAAAAAAAAAABwcm9nEgIAAHByZ3AiAAAAEBAyBAABAH8AfwBAAAEAAQAAAAAAAAAAAH8AAAAA
        AAAAAHBnbm0wAAAAQXJwIENob3JkIEdhdGVkIDAxAF//fwAAsHjEJQEAAAAEKr5f/38AAPSwYiABAAAAc3RwMEAAAAAAAAAAAAAAAAAAAAAAAAAAAAAAAAAAAAAAAAAA
        AAAAAAAAAAAAAAAAAAAAAAAAAAAAAAAAAAAAAAAAAAAAAAAAc3RwMUAAAAAICAgICAgICAgICAgICAgICAgICAgICAgICAgICAgICAgICAgICAgICAgICAgICAgICAgI
        CAgICAgICAgICAgIc3RwMkAAAAAEBAAEBAAEBAAEBAAEAAQAAQEBAQEBAQEBAQEBAQEBAQEBAQEBAQEBAQEBAQEBAQEBAQEBAQEBAQEBAQEBAQEBc3RwM0AAAAAEBAQE
        BAQEBAQEBAQEBAQEBAQEBAQEBAQEBAQEBAQEBAQEBAQEBAQEBAQEBAQEBAQEBAQEBAQEBAQEBAQEBAQEc3RwNEAAAABgYGBgYGBgYGBgYGBgYGBgYGBgYGBgYGBgYGBg
        YGBgYGBgYGBgYGBgYGBgYGBgYGBgYGBgYGBgYGBgYGBgYGBgc3RwNUAAAAAAAAAAAAAAAAAAAAAAAAAAAAAAAAAAAAAAAAAAAAAAAAAAAAAAAAAAAAAAAAAAAAAAAAAA
        AAAAAAAAAAAAAAAAcHJvZxICAABwcmdwIgAAABAQMgQAAQB/AH8AQAABAAEAAAAAAAAAAAB/AAAAAAAAAABwZ25tMAAAAEFycCBDaG9yZCBHYXRlZCAwMgBf/38AALB4
        xCUBAAAABCq+X/9/AAD0sGIgAQAAAHN0cDBAAAAAAAAAAAAAAAAAAAAAAAAAAAAAAAAAAAAAAAAAAAAAAAAAAAAAAAAAAAAAAAAAAAAAAAAAAAAAAAAAAAAAAAAAAHN0
        cDFAAAAACAgICAgICAgICAgICAgICAgICAgICAgICAgICAgICAgICAgICAgICAgICAgICAgICAgICAgICAgICAgICAgICHN0cDJAAAAABAAEAAQABAAEAAQAAAQABAEB
        AQEBAQEBAQEBAQEBAQEBAQEBAQEBAQEBAQEBAQEBAQEBAQEBAQEBAQEBAQEBAXN0cDNAAAAABAQEBAQEBAQEBAQEBAQEBAQEBAQEBAQEBAQEBAQEBAQEBAQEBAQEBAQE
        BAQEBAQEBAQEBAQEBAQEBAQEBAQEBHN0cDRAAAAAYGBgYGBgYGBgYGBgYGBgYGBgYGBgYGBgYGBgYGBgYGBgYGBgYGBgYGBgYGBgYGBgYGBgYGBgYGBgYGBgYGBgYHN0
        cDVAAAAAAAAAAAAAAAAAAAAAAAAAAAAAAAAAAAAAAAAAAAAAAAAAAAAAAAAAAAAAAAAAAAAAAAAAAAAAAAAAAAAAAAAAAHByb2cSAgAAcHJncCIAAAAQEDIEAAEAfwB/
        AEAAAQABAAAAAAAAAAAAfwAAAAAAAAAAcGdubTAAAABBcnAgQ2hvcmQgR2F0ZWQgMDMAX/9/AACweMQlAQAAAAQqvl//fwAA9LBiIAEAAABzdHAwQAAAAAAAAAAAAAAA
        AAAAAAAAAAAAAAAAAAAAAAAAAAAAAAAAAAAAAAAAAAAAAAAAAAAAAAAAAAAAAAAAAAAAAAAAAABzdHAxQAAAAAgICAgICAgICAgICAgICAgICAgICAgICAgICAgICAgI
        CAgICAgICAgICAgICAgICAgICAgICAgICAgICAgICAhzdHAyQAAAAAQEAAQEAAQEAAQEAAQABAABAQEBAQEBAQEBAQEBAQEBAQEBAQEBAQEBAQEBAQEBAQEBAQEBAQEB
        AQEBAQEBAQFzdHAzQAAAAAQEBAQEBAQEBAQEBAQEBAQEBAQEBAQEBAQEBAQEBAQEBAQEBAQEBAQEBAQEBAQEBAQEBAQEBAQEBAQEBAQEBARzdHA0QAAAAGBgYGBgYGBg
        YGBgYGBgYGBgYGBgYGBgYGBgYGBgYGBgYGBgYGBgYGBgYGBgYGBgYGBgYGBgYGBgYGBgYGBgYGBzdHA1QAAAAAAAAAAAAAAAAAAAAAAAAAAAAAAAAAAAAAAAAAAAAAAA
        AAAAAAAAAAAAAAAAAAAAAAAAAAAAAAAAAAAAAAAAAABwcm9nEgIAAHByZ3AiAAAAEBAyBAADAH8AfwFAAAEAAQAAAAAAAAAAAH8AAAEAAAAAAHBnbm0wAAAAQXJwIDNr
        IFNTYXcgMDEgKFJhbW1zdGVpbikAJQEAAAAEKr5f/38AAPSwYiABAAAAc3RwMEAAAAAAAAAAAAAAAAAAAAAAAAAAAAAAAAAAAAAAAAAAAAAAAAAAAAAAAAAAAAAAAAAA
        AAAAAAAAAAAAAAAAAAAAAAAAc3RwMUAAAAAICAgICAgICAgICAgICAgICAgICAgICAgICAgICAgICAgICAgICAgICAgICAgICAgICAgICAgICAgICAgICAgIc3RwMkAA
        AAABAQEBAQEBAQEBAQEBAQEBAQEBAQEBAQEBAQEBAQEBAQEBAQEBAQEBAQEBAQEBAQEBAQEBAQEBAQEBAQEBAQEBc3RwM0AAAAAQCAQQCAQQCAQQBBAIBBAIBAQEBAQE
        BAQEBAQEBAQEBAQEBAQEBAQEBAQEBAQEBAQEBAQEBAQEBAQEBAQEBAQEc3RwNEAAAABgYGBgYGBgYGBgYGBgYGBgYGBgYGBgYGBgYGBgYGBgYGBgYGBgYGBgYGBgYGBg
        YGBgYGBgYGBgYGBgYGBgYGBgc3RwNUAAAAAAAAAAAAAAAAAAAAAAAAAAAAAAAAAAAAAAAAAAAAAAAAAAAAAAAAAAAAAAAAAAAAAAAAAAAAAAAAAAAAAAAAAAcHJvZxIC
        AABwcmdwIgAAABAIOgQAAgB/AH8AQAABAAEAAAAAAAAAAAB/AAAAAAAAAABwZ25tMAAAAEFycCAzayBTdXBlclNhdyAwMgBf/38AALB4xCUBAAAABCq+X/9/AAD0sGIg
        AQAAAHN0cDBAAAAAAAAAAAAAAAAAAAAAAAAAAAAAAAAAAAAAAAAAAAAAAAAAAAAAAAAAAAAAAAAAAAAAAAAAAAAAAAAAAAAAAAAAAHN0cDFAAAAABAgIBAgIBAgICAgI
        CAgICAgICAgICAgICAgICAgICAgICAgICAgICAgICAgICAgICAgICAgICAgICAgICAgICHN0cDJAAAAAAQABAQEBAQEAAAAAAAAAAAEBAQEBAQEBAQEBAQEBAQEBAQEB
        AQEBAQEBAQEBAQEBAQEBAQEBAQEBAQEBAQEBAXN0cDNAAAAABAQQBAQIBBAEBAQEBAQEBAQEBAQEBAQEBAQEBAQEBAQEBAQEBAQEBAQEBAQEBAQEBAQEBAQEBAQEBAQE
        BAQEBHN0cDRAAAAAYGBgYGBgYGBgYGBgYGBgYGBgYGBgYGBgYGBgYGBgYGBgYGBgYGBgYGBgYGBgYGBgYGBgYGBgYGBgYGBgYGBgYHN0cDVAAAAAAAAAAAAAAAAAAAAA
        AAAAAAAAAAAAAAAAAAAAAAAAAAAAAAAAAAAAAAAAAAAAAAAAAAAAAAAAAAAAAAAAAAAAAHByb2cSAgAAcHJncCIAAAAQCDoEAAIAfwB/AEAAAQABAAAAAAAAAAAAfwAA
        AAAAAAAAcGdubTAAAABBcnAgM2sgU3VwZXJTYXcgMDMAX/9/AACweMQlAQAAAAQqvl//fwAA9LBiIAEAAABzdHAwQAAAAAAAAAAAAAAAAAAAAAAAAAAAAAAAAAAAAAAA
        AAAAAAAAAAAAAAAAAAAAAAAAAAAAAAAAAAAAAAAAAAAAAAAAAABzdHAxQAAAAAQICAQIBAgICAgICAgICAgICAgICAgICAgICAgICAgICAgICAgICAgICAgICAgICAgI
        CAgICAgICAgICAgICAhzdHAyQAAAAAEBAQEBAQEBAAAAAAAAAAABAQEBAQEBAQEBAQEBAQEBAQEBAQEBAQEBAQEBAQEBAQEBAQEBAQEBAQEBAQEBAQFzdHAzQAAAAAQQ
        CAQEBAgQBAQEBAQEBAQEBAQEBAQEBAQEBAQEBAQEBAQEBAQEBAQEBAQEBAQEBAQEBAQEBAQEBAQEBAQEBARzdHA0QAAAAGBgYGBgYGBgYGBgYGBgYGBgYGBgYGBgYGBg
        YGBgYGBgYGBgYGBgYGBgYGBgYGBgYGBgYGBgYGBgYGBgYGBgYGBzdHA1QAAAAAAAAAAAAAAAAAAAAAAAAAAAAAAAAAAAAAAAAAAAAAAAAAAAAAAAAAAAAAAAAAAAAAAA
        AAAAAAAAAAAAAAAAAABwcm9nEgIAAHByZ3AiAAAAEBA6BAADAH8AfwBAAAEAAQAAAAAAAAAAAH8AAAIAAAAAAHBnbm0wAAAAQXJwIDJrIFN1cGVyU2F3IDA0AF//fwAA
        sHjEJQEAAAAEKr5f/38AAPSwYiABAAAAc3RwMEAAAAAAAAAAAAAAAAAAAAAAAAABAAAAAAAAAAAAAAAAAAAAAAAAAAAAAAAAAAAAAAAAAAAAAAAAAAAAAAAAAAAAAAAA
        c3RwMUAAAAAICAQIBAgICAgIBAgICAQICAgICAgICAgICAgICAgICAgICAgICAgICAgICAgICAgICAgICAgICAgICAgICAgIc3RwMkAAAAABAgEAAQABAgECAQABAgEB
        AQEBAQEBAQEBAQEBAQEBAQEBAQEBAQEBAQEBAQEBAQEBAQEBAQEBAQEBAQEBAQEBc3RwM0AAAAAEBAQEBAQEBAgEBAQEBAQEBAQEBAQEBAQEBAQEBAQEBAQEBAQEBAQE
        BAQEBAQEBAQEBAQEBAQEBAQEBAQEBAQEc3RwNEAAAABgYGBgYGBgYGBgYGBgYGBgYGBgYGBgYGBgYGBgYGBgYGBgYGBgYGBgYGBgYGBgYGBgYGBgYGBgYGBgYGBgYGBg
        c3RwNUAAAAAAAAAAAAAAAAAAAAAAAAAAAAAAAAAAAAAAAAAAAAAAAAAAAAAAAAAAAAAAAAAAAAAAAAAAAAAAAAAAAAAAAAAAcHJvZxICAABwcmdwIgAAABAQOgQAAgB/
        AH8AQAABAAEAAAAAAAAAAAB/AAACAAAAAABwZ25tMAAAAEFycCAyayBTdXBlclNhdyAwNQBf/38AALB4xCUBAAAABCq+X/9/AAD0sGIgAQAAAHN0cDBAAAAAAAAAAAAA
        AAAAAAAAAAAAAAAAAAAAAAAAAAAAAAAAAAAAAAAAAAAAAAAAAAAAAAAAAAAAAAAAAAAAAAAAAAAAAHN0cDFAAAAACAQICAQICAgIBAgIBAgIBAgICAgICAgICAgICAgI
        CAgICAgICAgICAgICAgICAgICAgICAgICAgICAgICAgICHN0cDJAAAAAAQEBAQEBAQEBAQEBAQEBAQEBAQEBAQEBAQEBAQEBAQEBAQEBAQEBAQEBAQEBAQEBAQEBAQEB
        AQEBAQEBAQEBAXN0cDNAAAAACAQEEAQEEAQIBAQQBAQQBAQEBAQEBAQEBAQEBAQEBAQEBAQEBAQEBAQEBAQEBAQEBAQEBAQEBAQEBAQEBAQEBHN0cDRAAAAAYGBgYGBg
        YGBgYGBgYGBgYGBgYGBgYGBgYGBgYGBgYGBgYGBgYGBgYGBgYGBgYGBgYGBgYGBgYGBgYGBgYGBgYHN0cDVAAAAAAAAAAAAAAAAAAAAAAAAAAAAAAAAAAAAAAAAAAAAA
        AAAAAAAAAAAAAAAAAAAAAAAAAAAAAAAAAAAAAAAAAAAAAHByb2cSAgAAcHJncCIAAAAQBDgEAAEAfwB/AEAAAQABAAAAAAAAAAAAfwAAAAAAAAAAcGdubTAAAABBcnAg
        M2sgQmVuYXNzaSBJbGx1c2lvbgCweMQlAQAAAAQqvl//fwAA9LBiIAEAAABzdHAwQAAAAAAAAAAAAAAAAAAAAAAAAAAAAAAAAAAAAAAAAAAAAAAAAAAAAAAAAAAAAAAA
        AAAAAAAAAAAAAAAAAAAAAAAAAABzdHAxQAAAAAgICAgICAgICAgICAgICAgICAgICAgICAgICAgICAgICAgICAgICAgICAgICAgICAgICAgICAgICAgICAgICAhzdHAy
        QAAAAAEBBAEBAQEBAQEBAQEBAQEBAQEBAQEBAQEBAQEBAQEBAQEBAQEBAQEBAQEBAQEBAQEBAQEBAQEBAQEBAQEBAQFzdHAzQAAAAAQIBAgEBAQEBAQEBAQEBAQEBAQE
        BAQEBAQEBAQEBAQEBAQEBAQEBAQEBAQEBAQEBAQEBAQEBAQEBAQEBAQEBARzdHA0QAAAAGBgYGBgYGBgYGBgYGBgYGBgYGBgYGBgYGBgYGBgYGBgYGBgYGBgYGBgYGBg
        YGBgYGBgYGBgYGBgYGBgYGBgYGBzdHA1QAAAAAAAAAAAAAAAAAAAAAAAAAAAAAAAAAAAAAAAAAAAAAAAAAAAAAAAAAAAAAAAAAAAAAAAAAAAAAAAAAAAAAAAAABwcm9n
        EgIAAHByZ3AiAAAAEBAyBAADAH8AfwBAAAEAAQAAAAAAAAAAAH8AAAAAAAAAAHBnbm0wAAAAQXJwIDRrIFNTYXcgMDcgKFlUIEludHJvKQDEJQEAAAAEKr5f/38AAPSw
        YiABAAAAc3RwMEAAAAAAAAAAAAAAAAAAAAAAAAAAAAAAAAAAAAAAAAAAAAAAAAAAAAAAAAAAAAAAAAAAAAAAAAAAAAAAAAAAAAAAAAAAc3RwMUAAAAAECAgECAgICAQI
        CAQICAQICAgICAgICAgICAgICAgICAgICAgICAgICAgICAgICAgICAgICAgICAgICAgICAgIc3RwMkAAAAABAQEBAQEBAQEBAQEBAQEBAQEBAQEBAQEBAQEBAQEBAQEB
        AQEBAQEBAQEBAQEBAQEBAQEBAQEBAQEBAQEBAQEBc3RwM0AAAAAECBAEEAgQIAQgEAQECAQQBAQEBAQEBAQEBAQEBAQEBAQEBAQEBAQEBAQEBAQEBAQEBAQEBAQEBAQE
        BAQEBAQEc3RwNEAAAABgYGBgYGBgYGBgYGBgYGBgYGBgYGBgYGBgYGBgYGBgYGBgYGBgYGBgYGBgYGBgYGBgYGBgYGBgYGBgYGBgYGBgc3RwNUAAAAAAAAAAAAAAAAAA
        AAAAAAAAAAAAAAAAAAAAAAAAAAAAAAAAAAAAAAAAAAAAAAAAAAAAAAAAAAAAAAAAAAAAAAAAcHJvZxICAABwcmdwIgAAABAgPQQAAwB/AH8AQAABAAEAAAAAAAAAAAB/
        AAAAAAAAAABwZ25tMAAAAEFycCAzayBTU2F3IDA4ICgzMiBzdGVwcykAxCUBAAAABCq+X/9/AAD0sGIgAQAAAHN0cDBAAAAAAAAAAAAAAAAAAAAAAAAAAAAAAAAAAAAA
        AAAAAAAAAAAAAAAAAAAAAAAAAAAAAAAAAAAAAAAAAAAAAAAAAAAAAHN0cDFAAAAACAQIBAgECAQIBAgECAQIBAgECAQIBAgECAQIBAgECAgICAgICAgICAgICAgICAgI
        CAgICAgICAgICAgICAgICHN0cDJAAAAAAQEBAQEBAQEBAQEBAQEBAQEBAQEBAQEBAQEBAQEBAQEBAQEBAQEBAQEBAQEBAQEBAQEBAQEBAQEBAQEBAQEBAXN0cDNAAAAA
        BAQIBBAEBAQIBBAEBAQIBBAEBAQIBBAEBAQIBBAEEAgEBAQEBAQEBAQEBAQEBAQEBAQEBAQEBAQEBAQEBAQEBHN0cDRAAAAAYGBgYGBgYGBgYGBgYGBgYGBgYGBgYGBg
        YGBgYGBgYGBgYGBgYGBgYGBgYGBgYGBgYGBgYGBgYGBgYGBgYGBgYHN0cDVAAAAAAAAAAAAAAAAAAAAAAAAAAAAAAAAAAAAAAAAAAAAAAAAAAAAAAAAAAAAAAAAAAAAA
        AAAAAAAAAAAAAAAAAAAAAHByb2cSAgAAcHJncCIAAAAQEEUEAAIAfwB/AEAAAQABAAAAAAAAAAAAfwAAAAAAAAAAcGdubTAAAABBcnAgMmsgQ29tbXVuaWNhdGlvbiB2
        MQCweMQlAQAAAAQqvl//fwAA9LBiIAEAAABzdHAwQAAAAAAAAAAAAAAAAAAAAAAAAAAAAAAAAAAAAAAAAAAAAAAAAAAAAAAAAAAAAAAAAAAAAAAAAAAAAAAAAAAAAAAA
        AABzdHAxQAAAAAQECAQECAQECAQECAQECAQICAgICAgICAgICAgICAgICAgICAgICAgICAgICAgICAgICAgICAgICAgICAgICAhzdHAyQAAAAAEAAQABAQABAQABAQAB
        AQABAQEBAQEBAQEBAQEBAQEBAQEBAQEBAQEBAQEBAQEBAQEBAQEBAQEBAQEBAQEBAQFzdHAzQAAAAAQECAQECAQECAQECAQECAQEBAQEBAQEBAQEBAQEBAQEBAQEBAQE
        BAQEBAQEBAQEBAQEBAQEBAQEBAQEBAQEBARzdHA0QAAAAGBgYGBgYGBgYGBgYGBgYGBgYGBgYGBgYGBgYGBgYGBgYGBgYGBgYGBgYGBgYGBgYGBgYGBgYGBgYGBgYGBg
        YGBzdHA1QAAAAAAAAAAAAAAAAAAAAAAAAAAAAAAAAAAAAAAAAAAAAAAAAAAAAAAAAAAAAAAAAAAAAAAAAAAAAAAAAAAAAAAAAABwcm9nEgIAAHByZ3AiAAAAEBA8BAAC
        AH8AfwBAAAEAAQAAAAAAAAAAAH8AAAAAAAAAAHBnbm0wAAAAQXJwIDJrIENvbW11bmljYXRpb24gdjIAsHjEJQEAAAAEKr5f/38AAPSwYiABAAAAc3RwMEAAAAAAAAAA
        AAAAAAAAAAAAAAAAAAAAAAAAAAAAAAAAAAAAAAAAAAAAAAAAAAAAAAAAAAAAAAAAAAAAAAAAAAAAAAAAc3RwMUAAAAACBAgCBAgCBAgCBAgCBAgECAgICAgICAgICAgI
        CAgICAgICAgICAgICAgICAgICAgICAgICAgICAgICAgICAgIc3RwMkAAAAABAQEBAQEBAQEBAQEBAQEBAQEBAQEBAQEBAQEBAQEBAQEBAQEBAQEBAQEBAQEBAQEBAQEB
        AQEBAQEBAQEBAQEBc3RwM0AAAAAEBAgEBAgEBAgEBAgEBAgEBAQEBAQEBAQEBAQEBAQEBAQEBAQEBAQEBAQEBAQEBAQEBAQEBAQEBAQEBAQEBAQEc3RwNEAAAABgYGBg
        YGBgYGBgYGBgYGBgYGBgYGBgYGBgYGBgYGBgYGBgYGBgYGBgYGBgYGBgYGBgYGBgYGBgYGBgYGBgYGBgc3RwNUAAAAAAAAAAAAAAAAAAAAAAAAAAAAAAAAAAAAAAAAAA
        AAAAAAAAAAAAAAAAAAAAAAAAAAAAAAAAAAAAAAAAAAAAAAAAcHJvZxICAABwcmdwIgAAABAQPQQAAQB/AH8AQAABAAEAAAAAAAAAAAB/AAAAAAAAAABwZ25tMAAAAEFy
        cCAyayBTdXBlclNhdyAxMSAoQmVuYXNzaSkAAAAABCq+X/9/AAD0sGIgAQAAAHN0cDBAAAAAAAAAAAAAAAAAAAAAAAAAAAAAAAAAAAAAAAAAAAAAAAAAAAAAAAAAAAAA
        AAAAAAAAAAAAAAAAAAAAAAAAAAAAAHN0cDFAAAAACAIECAIECAQIAgQIBAIIBAgCCAIIAgQIAgQIAggCBAIICAgICAgICAgICAgICAgICAgICAgICAgICAgICAgICHN0
        cDJAAAAAAQEBAQEBAQEBAQEBAQEBAQEBAQEBAQEBAQEBAQEBAQEBAQEBAQEBAQEBAQEBAQEBAQEBAQEBAQEBAQEBAQEBAXN0cDNAAAAACAQEEAQEEAQIBAQQBAQQBAgE
        BBAEBBAEBAQQBAQQBAQEBAQEBAQEBAQEBAQEBAQEBAQEBAQEBAQEBAQEBAQEBHN0cDRAAAAAYGBgYGBgYGBgYGBgYGBgYGBgYGBgYGBgYGBgYGBgYGBgYGBgYGBgYGBg
        YGBgYGBgYGBgYGBgYGBgYGBgYGBgYHN0cDVAAAAAAAAAAAAAAAAAAAAAAAAAAAAAAAAAAAAAAAAAAAAAAAAAAAAAAAAAAAAAAAAAAAAAAAAAAAAAAAAAAAAAAAAAAHBy
        b2cSAgAAcHJncCIAAAAQEDUEAAMAfwB/AEAAAQABAAAAAAAAAAAAfwAAAAAAAAAAcGdubTAAAABBcnAgMmsgU3VwZXJTYXcgMTIAX/9/AACweMQlAQAAAAQqvl//fwAA
        9LBiIAEAAABzdHAwQAAAAAAAAAAAAAAAAAAAAAAAAAAAAAAAAAAAAAAAAAAAAAAAAAAAAAAAAAAAAAAAAAAAAAAAAAAAAAAAAAAAAAAAAABzdHAxQAAAAAgCCAIIAgQI
        AgQIAggCBAIICAgICAgICAgICAgICAgICAgICAgICAgICAgICAgICAgICAgICAgICAgICAgICAhzdHAyQAAAAAEBAQEBAQEBAQEBAQEBAQEBAQEBAQEBAQEBAQEBAQEB
        AQEBAQEBAQEBAQEBAQEBAQEBAQEBAQEBAQEBAQEBAQFzdHAzQAAAABAECAQIBAQQBAQIBAgEBAQEBAQEBAQEBAQEBAQEBAQEBAQEBAQEBAQEBAQEBAQEBAQEBAQEBAQE
        BAQEBAQEBARzdHA0QAAAAGBgYGBgYGBgYGBgYGBgYGBgYGBgYGBgYGBgYGBgYGBgYGBgYGBgYGBgYGBgYGBgYGBgYGBgYGBgYGBgYGBgYGBzdHA1QAAAAAAAAAAAAAAA
        AAAAAAAAAAAAAAAAAAAAAAAAAAAAAAAAAAAAAAAAAAAAAAAAAAAAAAAAAAAAAAAAAAAAAAAAAABwcm9nEgIAAHByZ3AiAAAAEBBkBAACAH8AfwBNAAEAAQkAAAAAAAAA
        AH8AAAAAAAAAAHBnbm0wAAAAQXJwIDJrIFN1cGVyU2F3IDEzIChwaHJlYXF1ZSkAAAAEKr5f/38AAPSwYiABAAAAc3RwMEAAAAAAAAAAAAAAAAAAAAAAAAAAAAAAAAAA
        AAAAAAAAAAAAAAAAAAAAAAAAAAAAAAAAAAAAAAAAAAAAAAAAAAAAAAAAc3RwMUAAAAAECAQECAQEBAQIBAQIBAgECAgICAgICAgICAgICAgICAgICAgICAgICAgICAgI
        CAgICAgICAgICAgICAgICAgIc3RwMkAAAAABAQEBAQABAQABAQABAQEBAQEBAQEBAQEBAQEBAQEBAQEBAQEBAQEBAQEBAQEBAQEBAQEBAQEBAQEBAQEBAQEBc3RwM0AA
        AAAECAQgCAQQBAQIBAQIBBAEBAQEBAQEBAQEBAQEBAQEBAQEBAQEBAQEBAQEBAQEBAQEBAQEBAQEBAQEBAQEBAQEc3RwNEAAAABwUEBgUFB/YEBQYGBwYFBwYGBgYGBg
        YGBgYGBgYGBgYGBgYGBgYGBgYGBgYGBgYGBgYGBgYGBgYGBgYGBgYGBgc3RwNUAAAAAAAAAAAAAAAAAAAAAAAAAAAAAAAAAAAAAAAAAAAAAAAAAAAAAAAAAAAAAAAAAA
        AAAAAAAAAAAAAAAAAAAAAAAAcHJvZxICAABwcmdwIgAAABAIHwYAAQB/AH8AQAABAAEAAAAAAAAAAAB/AAAAAAAAAABwZ25tMAAAAEFycCAzayBCZWxscyAwMQCQKb5f
        /38AALB4xCUBAAAABCq+X/9/AAD0sGIgAQAAAHN0cDBAAAAAAAAAAAAAAAAAAAAAAAAAAAAAAAAAAAAAAAAAAAAAAAAAAAAAAAAAAAAAAAAAAAAAAAAAAAAAAAAAAAAA
        AAAAAHN0cDFAAAAACAgICAgICAgICAgICAgICAgICAgICAgICAgICAgICAgICAgICAgICAgICAgICAgICAgICAgICAgICAgICAgICHN0cDJAAAAAAQEBAQEBAQEBAQEB
        AQEBAQEBAQEBAQEBAQEBAQEBAQEBAQEBAQEBAQEBAQEBAQEBAQEBAQEBAQEBAQEBAQEBAXN0cDNAAAAAEAQIBBAECAQEBAQEBAQEBAQEBAQEBAQEBAQEBAQEBAQEBAQE
        BAQEBAQEBAQEBAQEBAQEBAQEBAQEBAQEBAQEBHN0cDRAAAAAYGBgUGBgYFBgYGBgYGBgYGBgYGBgYGBgYGBgYGBgYGBgYGBgYGBgYGBgYGBgYGBgYGBgYGBgYGBgYGBg
        YGBgYHN0cDVAAAAAAAAAAAAAAAAAAAAAAAAAAAAAAAAAAAAAAAAAAAAAAAAAAAAAAAAAAAAAAAAAAAAAAAAAAAAAAAAAAAAAAAAAAHByb2cSAgAAcHJncCIAAAAQCB8G
        AAEAfwB/AEAAAQABAAAAAAAAAAAAfwAAAAAAAAAAcGdubTAAAABBcnAgM2sgQmVsbHMgMDIAkCm+X/9/AACweMQlAQAAAAQqvl//fwAA9LBiIAEAAABzdHAwQAAAAAAA
        AAAAAAAAAAAAAAAAAAAAAAAAAAAAAAAAAAAAAAAAAAAAAAAAAAAAAAAAAAAAAAAAAAAAAAAAAAAAAAAAAABzdHAxQAAAAAgICAgICAgICAgICAgICAgICAgICAgICAgI
        CAgICAgICAgICAgICAgICAgICAgICAgICAgICAgICAgICAgICAhzdHAyQAAAAAEBAQEBAQEBAQEBAQEBAQEBAQEBAQEBAQEBAQEBAQEBAQEBAQEBAQEBAQEBAQEBAQEB
        AQEBAQEBAQEBAQEBAQFzdHAzQAAAABAIBBAIBBAIBAQEBAQEBAQEBAQEBAQEBAQEBAQEBAQEBAQEBAQEBAQEBAQEBAQEBAQEBAQEBAQEBAQEBAQEBARzdHA0QAAAAGBg
        YGBgYGBgYGBgYGBgYGBgYGBgYGBgYGBgYGBgYGBgYGBgYGBgYGBgYGBgYGBgYGBgYGBgYGBgYGBgYGBgYGBzdHA1QAAAAAAAAAAAAAAAAAAAAAAAAAAAAAAAAAAAAAAA
        AAAAAAAAAAAAAAAAAAAAAAAAAAAAAAAAAAAAAAAAAAAAAAAAAABwcm9nEgIAAHByZ3AiAAAAEAhNBgADAH8AfwBNAAEAAQAAAAAAAAAAAH8AAAIAAAAAAHBnbm0wAAAA
        QXJwIDJrIFNvZnRCZWxscyAwMQD/fwAAsHjEJQEAAAAEKr5f/38AAPSwYiABAAAAc3RwMEAAAAAAAAAAAAAAAAAAAAAAAAAAAAAAAAAAAAAAAAAAAAAAAAAAAAAAAAAA
        AAAAAAAAAAAAAAAAAAAAAAAAAAAAAAAAc3RwMUAAAAAECAgIBAgIEAgICAgICAgICAgICAgICAgICAgICAgICAgICAgICAgICAgICAgICAgICAgICAgICAgICAgICAgI
        c3RwMkAAAAABAQEBAQEBAQEBAQEBAQEBAQEBAQEBAQEBAQEBAQEBAQEBAQEBAQEBAQEBAQEBAQEBAQEBAQEBAQEBAQEBAQEBc3RwM0AAAAAEBAgQBAQIBAQEBAQEBAQE
        BAQEBAQEBAQEBAQEBAQEBAQEBAQEBAQEBAQEBAQEBAQEBAQEBAQEBAQEBAQEBAQEc3RwNEAAAABgYGBgYGBgYGBgYGBgYGBgYGBgYGBgYGBgYGBgYGBgYGBgYGBgYGBg
        YGBgYGBgYGBgYGBgYGBgYGBgYGBgYGBgc3RwNUAAAAAAAAAAAAAAAAAAAAAAAAAAAAAAAAAAAAAAAAAAAAAAAAAAAAAAAAAAAAAAAAAAAAAAAAAAAAAAAAAAAAAAAAAA
        cHJvZxICAABwcmdwIgAAABAIQgYAAwB/AH8AQAABAAEAAAAAAAAAAAB/AAACAAAAAABwZ25tMAAAAEFycCAyayBTb2Z0QmVsbHMgMDIA/38AALB4xCUBAAAABCq+X/9/
        AAD0sGIgAQAAAHN0cDBAAAAAAAAAAAAAAAAAAAAAAAAAAAAAAAAAAAAAAAAAAAAAAAAAAAAAAAAAAAAAAAAAAAAAAAAAAAAAAAAAAAAAAAAAAHN0cDFAAAAABBAICAQQ
        CAgICAgICAgICAgICAgICAgICAgICAgICAgICAgICAgICAgICAgICAgICAgICAgICAgICAgICAgICHN0cDJAAAAAAQEBAQEBAQEBAQEBAQEBAQEBAQEBAQEBAQEBAQEB
        AQEBAQEBAQEBAQEBAQEBAQEBAQEBAQEBAQEBAQEBAQEBAXN0cDNAAAAABAQECAQEBBAEBAQEBAQEBAQEBAQEBAQEBAQEBAQEBAQEBAQEBAQEBAQEBAQEBAQEBAQEBAQE
        BAQEBAQEBAQEBHN0cDRAAAAAYGBgYGBgYGBgYGBgYGBgYGBgYGBgYGBgYGBgYGBgYGBgYGBgYGBgYGBgYGBgYGBgYGBgYGBgYGBgYGBgYGBgYHN0cDVAAAAAAAAAAAAA
        AAAAAAAAAAAAAAAAAAAAAAAAAAAAAAAAAAAAAAAAAAAAAAAAAAAAAAAAAAAAAAAAAAAAAAAAAAAAAHByb2cSAgAAcHJncCIAAAAQEEgEAAEAfwB/AEAAAQABAAAAAAAA
        AAAAfwAAAAAAAAAAcGdubTAAAABTZXEgMmsgQWNpZE1vbm8gMDEAX/9/AACweMQlAQAAAAQqvl//fwAA9LBiIAEAAABzdHAwQAAAAAAAAAAAAAAAAAAAAAAAAQAAAAAA
        AAAAAAAAAAAAAAAAAAAAAAAAAAAAAAAAAAAAAAAAAAAAAAAAAAAAAAAAAABzdHAxQAAAAAQIBAQIBAgICAQICAgECAgICAgICAgICAgICAgICAgICAgICAgICAgICAgI
        CAgICAgICAgICAgICAgICAgICAhzdHAyQAAAAAEAAQAAAQMAAQEAAQABAwABAQEBAQEBAQEBAQEBAQEBAQEBAQEBAQEBAQEBAQEBAQEBAQEBAQEBAQEBAQEBAQFzdHAz
        QAAAAAQEBAQEBAQEBAQEBAQEBAQEBAQEBAQEBAQEBAQEBAQEBAQEBAQEBAQEBAQEBAQEBAQEBAQEBAQEBAQEBAQEBARzdHA0QAAAAGBgYGBgYGBgYGBgYGBgYGBgYGBg
        YGBgYGBgYGBgYGBgYGBgYGBgYGBgYGBgYGBgYGBgYGBgYGBgYGBgYGBgYGBzdHA1QAAAAAAAAAAAAAAAAAAAAAAAAAAAAAAAAAAAAAAAAAAAAAAAAAAAAAAAAAAAAAAA
        AAAAAAAAAAAAAAAAAAAAAAAAAABwcm9nEgIAAHByZ3AiAAAAEBBCBAACAH8AfwBAAAEAAQAAAAAAAAAAAH8AAAIAAAAAAHBnbm0wAAAAU2VxIDJrIEFjaWRNb25vIDAy
        AF//fwAAsHjEJQEAAAAEKr5f/38AAPSwYiABAAAAc3RwMEAAAAAAAAAAAAAABwAAAAAAAAAAAAAAAAAAAAAAAAAAAAAAAAAAAAAAAAAAAAAAAAAAAAAAAAAAAAAAAAAA
        AAAAAAAAc3RwMUAAAAAECAgECAgIBAgEBAgECAgECAgICAgICAgICAgICAgICAgICAgICAgICAgICAgICAgICAgICAgICAgICAgICAgIc3RwMkAAAAABAAABAAABAwAB
        AwABAgEDAQEBAQEBAQEBAQEBAQEBAQEBAQEBAQEBAQEBAQEBAQEBAQEBAQEBAQEBAQEBAQEBc3RwM0AAAAAEBAQEBAQEBAQECAQEBAQIBAQEBAQEBAQEBAQEBAQEBAQE
        BAQEBAQEBAQEBAQEBAQEBAQEBAQEBAQEBAQEBAQEc3RwNEAAAABgYGBgYGBgYGBgYGBgYGBgYGBgYGBgYGBgYGBgYGBgYGBgYGBgYGBgYGBgYGBgYGBgYGBgYGBgYGBg
        YGBgYGBgc3RwNUAAAAAAAAAAAAAAAAAAAAAAAAAAAAAAAAAAAAAAAAAAAAAAAAAAAAAAAAAAAAAAAAAAAAAAAAAAAAAAAAAAAAAAAAAAcHJvZxICAABwcmdwIgAAABAQ
        OgQAAQB/AH8AQAABAAEAAAAAAAAAAAB/AAAAAAAAAABwZ25tMAAAAFNlcSAyayBBY2lkTW9ubyAwMwBf/38AALB4xCUBAAAABCq+X/9/AAD0sGIgAQAAAHN0cDBAAAAA
        AAAAAAAAAAAAAAAAAAAAAAAAAAAAAAAAAAAAAAAAAAAAAAAAAAAAAAAAAAAAAAAAAAAAAAAAAAAAAAAAAAAAAHN0cDFAAAAACAQIEAQICAgECAgIBAgECAgICAgICAgI
        CAgICAgICAgICAgICAgICAgICAgICAgICAgICAgICAgICAgICAgICHN0cDJAAAAAAQEBAwEBAwMBAwEDAQIBAQEBAQEBAQEBAQEBAQEBAQEBAQEBAQEBAQEBAQEBAQEB
        AQEBAQEBAQEBAQEBAQEBAXN0cDNAAAAABAQEBAQECAQEBAQIBAQECAQEBAQEBAQEBAQEBAQEBAQEBAQEBAQEBAQEBAQEBAQEBAQEBAQEBAQEBAQEBAQEBHN0cDRAAAAA
        YGBgYGBgYGBgYGBgYGBgYGBgYGBgYGBgYGBgYGBgYGBgYGBgYGBgYGBgYGBgYGBgYGBgYGBgYGBgYGBgYGBgYHN0cDVAAAAAAAAAAAAAAAAAAAAAAAAAAAAAAAAAAAAA
        AAAAAAAAAAAAAAAAAAAAAAAAAAAAAAAAAAAAAAAAAAAAAAAAAAAAAHByb2cSAgAAcHJncCIAAAAQEDoEAAEAfwB/AEAAAQABAAAAAAAAAAAAfwAAAAAAAAAAcGdubTAA
        AABTZXEgMmsgQWNpZE1vbm8gMDQAX/9/AACweMQlAQAAAAQqvl//fwAA9LBiIAEAAABzdHAwQAAAAAAAAAAAAAAAAAAAAAAAAQAAAAAAAAAAAAAAAAAAAAAAAAAAAAAA
        AAAAAAAAAAAAAAAAAAAAAAAAAAAAAAAAAABzdHAxQAAAAAgQCAQICAQICAgECAQICAQICAgICAgICAgICAgICAgICAgICAgICAgICAgICAgICAgICAgICAgICAgICAgI
        CAhzdHAyQAAAAAEBAwEBAwEDAQMBAQEBAQEBAQEBAQEBAQEBAQEBAQEBAQEBAQEBAQEBAQEBAQEBAQEBAQEBAQEBAQEBAQEBAQFzdHAzQAAAAAQEBAQIBAQEBAgEBAQI
        BAQEBAQEBAQEBAQEBAQEBAQEBAQEBAQEBAQEBAQEBAQEBAQEBAQEBAQEBAQEBAQEBARzdHA0QAAAAGBgYGBgYGBgYGBgYGBgYGBgYGBgYGBgYGBgYGBgYGBgYGBgYGBg
        YGBgYGBgYGBgYGBgYGBgYGBgYGBgYGBgYGBzdHA1QAAAAAAAAAAAAAAAAAAAAAAAAAAAAAAAAAAAAAAAAAAAAAAAAAAAAAAAAAAAAAAAAAAAAAAAAAAAAAAAAAAAAAAA
        AABwcm9nEgIAAHByZ3AiAAAAEARIBAABAH8AfwBAAAEAAQAAAAAAAAAAAH8AAAAAAAAAAHBnbm0wAAAAQmFzcyAxayBTaW1wbGUgMDEAvl//fwAAsHjEJQEAAAAEKr5f
        /38AAPSwYiABAAAAc3RwMEAAAAAAAAAAAAAAAAAAAAAAAAAAAAAAAAAAAAAAAAAAAAAAAAAAAAAAAAAAAAAAAAAAAAAAAAAAAAAAAAAAAAAAAAAAc3RwMUAAAAAEBAgI
        CAgICAgICAgICAgICAgICAgICAgICAgICAgICAgICAgICAgICAgICAgICAgICAgICAgICAgICAgICAgIc3RwMkAAAAABAgEBAQEBAQEBAQEBAQEBAQEBAQEBAQEBAQEB
        AQEBAQEBAQEBAQEBAQEBAQEBAQEBAQEBAQEBAQEBAQEBAQEBc3RwM0AAAAAEBAQEBAQEBAQEBAQEBAQEBAQEBAQEBAQEBAQEBAQEBAQEBAQEBAQEBAQEBAQEBAQEBAQE
        BAQEBAQEBAQEBAQEc3RwNEAAAABgYGBgYGBgYGBgYGBgYGBgYGBgYGBgYGBgYGBgYGBgYGBgYGBgYGBgYGBgYGBgYGBgYGBgYGBgYGBgYGBgYGBgc3RwNUAAAAAAAAAA
        AAAAAAAAAAAAAAAAAAAAAAAAAAAAAAAAAAAAAAAAAAAAAAAAAAAAAAAAAAAAAAAAAAAAAAAAAAAAAAAAcHJvZxICAABwcmdwIgAAABAESAQAAQB/AH8AQAABAAEAAAAA
        AAAAAAB/AAAAAAAAAABwZ25tMAAAAEJhc3MgMWsgU2ltcGxlIDAyAL5f/38AALB4xCUBAAAABCq+X/9/AAD0sGIgAQAAAHN0cDBAAAAAAAAAAAAAAAAAAAAAAAAAAAAA
        AAAAAAAAAAAAAAAAAAAAAAAAAAAAAAAAAAAAAAAAAAAAAAAAAAAAAAAAAAAAAHN0cDFAAAAABAQICAgICAgICAgICAgICAgICAgICAgICAgICAgICAgICAgICAgICAgI
        CAgICAgICAgICAgICAgICAgICAgICHN0cDJAAAAAAQEBAQEBAQEBAQEBAQEBAQEBAQEBAQEBAQEBAQEBAQEBAQEBAQEBAQEBAQEBAQEBAQEBAQEBAQEBAQEBAQEBAXN0
        cDNAAAAABAQEBAQEBAQEBAQEBAQEBAQEBAQEBAQEBAQEBAQEBAQEBAQEBAQEBAQEBAQEBAQEBAQEBAQEBAQEBAQEBAQEBHN0cDRAAAAAYGBgYGBgYGBgYGBgYGBgYGBg
        YGBgYGBgYGBgYGBgYGBgYGBgYGBgYGBgYGBgYGBgYGBgYGBgYGBgYGBgYGBgYHN0cDVAAAAAAAAAAAAAAAAAAAAAAAAAAAAAAAAAAAAAAAAAAAAAAAAAAAAAAAAAAAAA
        AAAAAAAAAAAAAAAAAAAAAAAAAAAAAHByb2cSAgAAcHJncCIAAAAQBEgEAAEAfwB/AEAAAQABAAAAAAAAAAAAfwAAAAAAAAAAcGdubTAAAABCYXNzIDFrIFNpbXBsZSAw
        MwC+X/9/AACweMQlAQAAAAQqvl//fwAA9LBiIAEAAABzdHAwQAAAAAAAAAAAAAAAAAAAAAAAAAAAAAAAAAAAAAAAAAAAAAAAAAAAAAAAAAAAAAAAAAAAAAAAAAAAAAAA
        AAAAAAAAAABzdHAxQAAAAAQECAgICAgICAgICAgICAgICAgICAgICAgICAgICAgICAgICAgICAgICAgICAgICAgICAgICAgICAgICAgICAhzdHAyQAAAAAECAQIBAQEB
        AQEBAQEBAQEBAQEBAQEBAQEBAQEBAQEBAQEBAQEBAQEBAQEBAQEBAQEBAQEBAQEBAQEBAQEBAQFzdHAzQAAAAAQEBAQEBAQEBAQEBAQEBAQEBAQEBAQEBAQEBAQEBAQE
        BAQEBAQEBAQEBAQEBAQEBAQEBAQEBAQEBAQEBAQEBARzdHA0QAAAAGBgYGBgYGBgYGBgYGBgYGBgYGBgYGBgYGBgYGBgYGBgYGBgYGBgYGBgYGBgYGBgYGBgYGBgYGBg
        YGBgYGBgYGBzdHA1QAAAAAAAAAAAAAAAAAAAAAAAAAAAAAAAAAAAAAAAAAAAAAAAAAAAAAAAAAAAAAAAAAAAAAAAAAAAAAAAAAAAAAAAAABwcm9nEgIAAHByZ3AiAAAA
        EARIBAABAH8AfwBAAAEAAQAAAAAAAAAAAH8AAAAAAAAAAHBnbm0wAAAAQmFzcyAxayBTaW1wbGUgMDQAvl//fwAAsHjEJQEAAAAEKr5f/38AAPSwYiABAAAAc3RwMEAA
        AAAAAAAAAAAAAAAAAAAAAAAAAAAAAAAAAAAAAAAAAAAAAAAAAAAAAAAAAAAAAAAAAAAAAAAAAAAAAAAAAAAAAAAAc3RwMUAAAAAICAgICAgICAgICAgICAgICAgICAgI
        CAgICAgICAgICAgICAgICAgICAgICAgICAgICAgICAgICAgICAgICAgIc3RwMkAAAAAAAAEAAQEBAQEBAQEBAQEBAQEBAQEBAQEBAQEBAQEBAQEBAQEBAQEBAQEBAQEB
        AQEBAQEBAQEBAQEBAQEBAQEBc3RwM0AAAAAEBAQEBAQEBAQEBAQEBAQEBAQEBAQEBAQEBAQEBAQEBAQEBAQEBAQEBAQEBAQEBAQEBAQEBAQEBAQEBAQEBAQEc3RwNEAA
        AABgYGBgYGBgYGBgYGBgYGBgYGBgYGBgYGBgYGBgYGBgYGBgYGBgYGBgYGBgYGBgYGBgYGBgYGBgYGBgYGBgYGBgc3RwNUAAAAAAAAAAAAAAAAAAAAAAAAAAAAAAAAAA
        AAAAAAAAAAAAAAAAAAAAAAAAAAAAAAAAAAAAAAAAAAAAAAAAAAAAAAAAcHJvZxICAABwcmdwIgAAABAIZAQAAQB/AH8AQAABAAEAAAAAAAAAAAB/AAAAAAAAAABwZ25t
        MAAAAEJhc3MgMWsgRHJpZnQgb2ZmYmVhdAAAALB4xCUBAAAABCq+X/9/AAD0sGIgAQAAAHN0cDBAAAAAAAAAAAAAAAAAAAAAAAAAAAAAAAAAAAAAAAAAAAAAAAAAAAAA
        AAAAAAAAAAAAAAAAAAAAAAAAAAAAAAAAAAAAAHN0cDFAAAAACAgICAgICAgICAgICAgICAgICAgICAgICAgICAgICAgICAgICAgICAgICAgICAgICAgICAgICAgICAgI
        CAgICHN0cDJAAAAAAAAAAQAAAQIAAAABAAABAgEBAQEBAQEBAQEBAQEBAQEBAQEBAQEBAQEBAQEBAQEBAQEBAQEBAQEBAQEBAQEBAXN0cDNAAAAABAQEBAQEBAQEBAQE
        BAQEBAQEBAQEBAQEBAQEBAQEBAQEBAQEBAQEBAQEBAQEBAQEBAQEBAQEBAQEBAQEBAQEBHN0cDRAAAAAYGBgYGBgYGBgYGBgYGBgYGBgYGBgYGBgYGBgYGBgYGBgYGBg
        YGBgYGBgYGBgYGBgYGBgYGBgYGBgYGBgYGBgYHN0cDVAAAAAAAAAAAAAAAAAAAAAAAAAAAAAAAAAAAAAAAAAAAAAAAAAAAAAAAAAAAAAAAAAAAAAAAAAAAAAAAAAAAAA
        AAAAAHByb2cSAgAAcHJncCIAAAAQCF8EAAEAfwB/AEAAAQABAAAAAAAAAAAAfwAAAAAAAAAAcGdubTAAAABCYXNzIDFrIFRyaXBsZSBkcmlmdCBvZmZiZWF0AAAAAAQq
        vl//fwAA9LBiIAEAAABzdHAwQAAAAAAAAAAAAAAAAAAAAAAAAAAAAAAAAAAAAAAAAAAAAAAAAAAAAAAAAAAAAAAAAAAAAAAAAAAAAAAAAAAAAAAAAABzdHAxQAAAAAgI
        CAgICAgICAgICAgICAgICAgICAgICAgICAgICAgICAgICAgICAgICAgICAgICAgICAgICAgICAgICAgICAhzdHAyQAAAAAABAAEAAAECAQEBAQEBAQEBAQEBAQEBAQEB
        AQEBAQEBAQEBAQEBAQEBAQEBAQEBAQEBAQEBAQEBAQEBAQEBAQFzdHAzQAAAAAQEBAQEBAQEBAQEBAQEBAQEBAQEBAQEBAQEBAQEBAQEBAQEBAQEBAQEBAQEBAQEBAQE
        BAQEBAQEBAQEBAQEBARzdHA0QAAAAGBgYGBgYGBgYGBgYGBgYGBAQEBAQEBAQEBAQEBAQEBAQEBAQEBAQEBAQEBAQEBAQEBAQEBAQEBAQEBAQEBAQEBzdHA1QAAAAAAA
        AAAAAAAAAAAAAAAAAAAAAAAAAAAAAAAAAAAAAAAAAAAAAAAAAAAAAAAAAAAAAAAAAAAAAAAAAAAAAAAAAABwcm9nEgIAAHByZ3AiAAAAEBBIBAABAH8AfwBAAAEAAQAA
        AAAAAAAAAH8AAAAAAAAAAHBnbm0wAAAAQmFzcyAxayBUZWNobm8gMDEAvl//fwAAsHjEJQEAAAAEKr5f/38AAPSwYiABAAAAc3RwMEAAAAAAAAAAAAAAAAAAAAAAAAAA
        AAAAAAAAAAAAAAAAAAAAAAAAAAAAAAAAAAAAAAAAAAAAAAAAAAAAAAAAAAAAAAAAc3RwMUAAAAAICAgICAgICAgICAgICAgICAgICAgICAgICAgICAgICAgICAgICAgI
        CAgICAgICAgICAgICAgICAgICAgICAgIc3RwMkAAAAABAQABAQABAQABAQABAAEAAQEBAQEBAQEBAQEBAQEBAQEBAQEBAQEBAQEBAQEBAQEBAQEBAQEBAQEBAQEBAQEB
        c3RwM0AAAAAEBAQEBAQEBAQEBAQEBAQEBAQEBAQEBAQEBAQEBAQEBAQEBAQEBAQEBAQEBAQEBAQEBAQEBAQEBAQEBAQEBAQEc3RwNEAAAABgYGBgYGBgYGBgYGBgYGBg
        YGBgYGBgYGBgYGBgYGBgYGBgYGBgYGBgYGBgYGBgYGBgYGBgYGBgYGBgYGBgYGBgc3RwNUAAAAAAAAAAAAAAAAAAAAAAAAAAAAAAAAAAAAAAAAAAAAAAAAAAAAAAAAAA
        AAAAAAAAAAAAAAAAAAAAAAAAAAAAAAAAcHJvZxICAABwcmdwIgAAABAgSAQAAQB/AH8AQAABAAEAAAAAAAAAAAB/AAAAAAAAAABwZ25tMAAAAEJhc3MgMWsgVGVjaG5v
        IDAyICgzMiBzdGVwcykAAAAABCq+X/9/AAD0sGIgAQAAAHN0cDBAAAAAAAAAAAAAAAAAAAAAAAAAAAAAAAAAAAAAAAAAAAAAAAAAAAAAAAAAAAAAAAAAAAAAAAAAAAAA
        AAAAAAAAAAAAAHN0cDFAAAAACAgICAgICAgICAgICAgICAgICAgICAgICAgICAgICAgICAgICAgICAgICAgICAgICAgICAgICAgICAgICAgICHN0cDJAAAAAAAABAAAA
        AQAAAAEAAAABAAAAAQAAAAEAAAABAAABAAEBAQEBAQEBAQEBAQEBAQEBAQEBAQEBAQEBAQEBAQEBAXN0cDNAAAAABAQEBAQEBAQEBAQEBAQEBAQEBAQEBAQEBAQEBAQE
        BAQEBAQEBAQEBAQEBAQEBAQEBAQEBAQEBAQEBAQEBAQEBHN0cDRAAAAAYGBgYGBgYGBgYGBgYGBgYGBgYGBgYGBgYGBgYGBgYGBgYGBgYGBgYGBgYGBgYGBgYGBgYGBg
        YGBgYGBgYGBgYHN0cDVAAAAAAAAAAAAAAAAAAAAAAAAAAAAAAAAAAAAAAAAAAAAAAAAAAAAAAAAAAAAAAAAAAAAAAAAAAAAAAAAAAAAAAAAAAHByb2cSAgAAcHJncCIA
        AAAQEE8EAAIAfwB/AEAAAQABAAAAAAAAAAAAfwAAAAAAAAAAcGdubTAAAABCYXNzIDJrIFRlY2hubyAwMwC+X/9/AACweMQlAQAAAAQqvl//fwAA9LBiIAEAAABzdHAw
        QAAAAAAAAAAAAAAAAAAAAAAAAAAAAAAAAAAAAAAAAAAAAAAAAAAAAAAAAAAAAAAAAAAAAAAAAAAAAAAAAAAAAAAAAABzdHAxQAAAAAgICAgICAgICAgICAgICAgICAgI
        CAgICAgICAgICAgICAgICAgICAgICAgICAgICAgICAgICAgICAgICAgICAhzdHAyQAAAAAEBAQEBAAEAAQABAAEAAQABAQEBAQEBAQEBAQEBAQEBAQEBAQEBAQEBAQEB
        AQEBAQEBAQEBAQEBAQEBAQEBAQFzdHAzQAAAAAQEBAQEBAQEBAQEBAQECAQEBAQEBAQEBAQEBAQEBAQEBAQEBAQEBAQEBAQEBAQEBAQEBAQEBAQEBAQEBAQEBARzdHA0
        QAAAAGBgYGBgYGBgYGBgYGBgYGBgYGBgYGBgYGBgYGBgYGBgYGBgYGBgYGBgYGBgYGBgYGBgYGBgYGBgYGBgYGBgYGBzdHA1QAAAAAAAAAAAAAAAAAAAAAAAAAAAAAAA
        AAAAAAAAAAAAAAAAAAAAAAAAAAAAAAAAAAAAAAAAAAAAAAAAAAAAAAAAAABwcm9nEgIAAHByZ3AiAAAAEBBEBAACAH8AfwBAAAEAAQAAAAAAAAAAAH8AAAAAAAAAAHBn
        bm0wAAAAQmFzcyAzayBDb21wbGV4IDEtMQD/fwAAsHjEJQEAAAAEKr5f/38AAPSwYiABAAAAc3RwMEAAAAAAAAAAAAAAAAAAAAAAAAAAAAAAAAAAAAAAAAAAAAAAAAAA
        AAAAAAAAAAAAAAAAAAAAAAAAAAAAAAAAAAAAAAAAc3RwMUAAAAAICAgICAgICAgICBAICAgICAgICAgICAgICAgICAgICAgICAgICAgICAgICAgICAgICAgICAgICAgI
        CAgICAgIc3RwMkAAAAABAAEAAAABAAABAgEBAgAAAQEBAQEBAQEBAQEBAQEBAQEBAQEBAQEBAQEBAQEBAQEBAQEBAQEBAQEBAQEBAQEBc3RwM0AAAAAEBAQEBAQEBAQE
        BAQEBAQEBAQEBAQEBAQEBAQEBAQEBAQEBAQEBAQEBAQEBAQEBAQEBAQEBAQEBAQEBAQEBAQEc3RwNEAAAABgYGBgYGBgYGBgYGBgYGBgYGBgYGBgYGBgYGBgYGBgYGBg
        YGBgYGBgYGBgYGBgYGBgYGBgYGBgYGBgYGBgYGBgc3RwNUAAAAAAAAAAAAAAAAAAAAAAAAAAAAAAAAAAAAAAAAAAAAAAAAAAAAAAAAAAAAAAAAAAAAAAAAAAAAAAAAAA
        AAAAAAAAcHJvZxICAABwcmdwIgAAABAMRQUAAgB/AH8AQAABAAEAAAAAAAAAAAB/AAAAAAAAAABwZ25tMAAAAEJhc3MgM2sgQ29tcGxleCAxLTIA/38AALB4xCUBAAAA
        BCq+X/9/AAD0sGIgAQAAAHN0cDBAAAAAAAAAAAAAAAAAAAAAAAAAAAAAAAAAAAAAAAAAAAAAAAAAAAAAAAAAAAAAAAAAAAAAAAAAAAAAAAAAAAAAAAAAAHN0cDFAAAAA
        CAgICAgICAgICAgICAgICAgICAgICAgICAgICAgICAgICAgICAgICAgICAgICAgICAgICAgICAgICAgICAgICHN0cDJAAAAAAQIBAgECAQIBAgECAQEBAQEBAQEBAQEB
        AQEBAQEBAQEBAQEBAQEBAQEBAQEBAQEBAQEBAQEBAQEBAQEBAQEBAXN0cDNAAAAACAgICAgIEBAQEBAQBAQEBAQEBAQEBAQEBAQEBAQEBAQEBAQEBAQEBAQEBAQEBAQE
        BAQEBAQEBAQEBAQEBAQEBHN0cDRAAAAAYGBgYGBgYGBgYGBgYGBgYGBgYGBgYGBgYGBgYGBgYGBgYGBgYGBgYGBgYGBgYGBgYGBgYGBgYGBgYGBgYGBgYHN0cDVAAAAA
        AAAAAAAAAAAAAAAAAAAAAAAAAAAAAAAAAAAAAAAAAAAAAAAAAAAAAAAAAAAAAAAAAAAAAAAAAAAAAAAAAAAAAHByb2cSAgAAcHJncCIAAAAQDE0FAAIAfwB/AEAAAQAB
        AAAAAAAAAAAAfwAAAAAAAAAAcGdubTAAAABCYXNzIDNrIENvbXBsZXggMS0zAP9/AACweMQlAQAAAAQqvl//fwAA9LBiIAEAAABzdHAwQAAAAAAAAAAAAAAAAAAAAAAA
        AAAAAAAAAAAAAAAAAAAAAAAAAAAAAAAAAAAAAAAAAAAAAAAAAAAAAAAAAAAAAAAAAABzdHAxQAAAAAgICAgICAgICAgICAgICAgICAgICAgICAgICAgICAgICAgICAgI
        CAgICAgICAgICAgICAgICAgICAgICAgICAhzdHAyQAAAAAEBAQEBAQEBAQEBAQEBAQEBAQEBAQEBAQEBAQEBAQEBAQEBAQEBAQEBAQEBAQEBAQEBAQEBAQEBAQEBAQEB
        AQFzdHAzQAAAAAgICAgICBAQEBAQEAQEBAQEBAQEBAQEBAQEBAQEBAQEBAQEBAQEBAQEBAQEBAQEBAQEBAQEBAQEBAQEBAQEBARzdHA0QAAAAGBgYGBgYGBgYGBgYGBg
        YGBgYGBgYGBgYGBgYGBgYGBgYGBgYGBgYGBgYGBgYGBgYGBgYGBgYGBgYGBgYGBgYGBzdHA1QAAAAAAAAAAAAAAAAAAAAAAAAAAAAAAAAAAAAAAAAAAAAAAAAAAAAAAA
        AAAAAAAAAAAAAAAAAAAAAAAAAAAAAAAAAABwcm9nEgIAAHByZ3AiAAAAEAhNBAABAH8AfwBAAAEAAQAAAAAAAAAAAH8AAAAAAAAAAHBnbm0wAAAAQmFzcyAxayBUcmFu
        Y2UgMDEAvl//fwAAsHjEJQEAAAAEKr5f/38AAPSwYiABAAAAc3RwMEAAAAAAAAAAAAAAAAAAAAAAAAAAAAAAAAAAAAAAAAAAAAAAAAAAAAAAAAAAAAAAAAAAAAAAAAAA
        AAAAAAAAAAAAAAAAc3RwMUAAAAAICAgICAgICAgICAgICAgICAgICAgICAgICAgICAgICAgICAgICAgICAgICAgICAgICAgICAgICAgICAgICAgIc3RwMkAAAAAAAAEB
        AAABAAEBAQEBAQEBAQEBAQEBAQEBAQEBAQEBAQEBAQEBAQEBAQEBAQEBAQEBAQEBAQEBAQEBAQEBAQEBc3RwM0AAAAAEBAQEBAQEBAQEBAQEBAQEBAQEBAQEBAQEBAQE
        BAQEBAQEBAQEBAQEBAQEBAQEBAQEBAQEBAQEBAQEBAQEBAQEc3RwNEAAAABgYGBgYGBgYGBgYGBgYGBgYGBgYGBgYGBgYGBgYGBgYGBgYGBgYGBgYGBgYGBgYGBgYGBg
        YGBgYGBgYGBgYGBgc3RwNUAAAAAAAAAAAAAAAAAAAAAAAAAAAAAAAAAAAAAAAAAAAAAAAAAAAAAAAAAAAAAAAAAAAAAAAAAAAAAAAAAAAAAAAAAAcHJvZxICAABwcmdw
        IgAAABAIQwQAAQB/AH8AQAABAAEAAAAAAAAAAAB/AAAAAAAAAABwZ25tMAAAAEJhc3MgMWsgVHJhbmNlIDAyAL5f/38AALB4xCUBAAAABCq+X/9/AAD0sGIgAQAAAHN0
        cDBAAAAAAAAAAAAAAAAAAAAAAAAAAAAAAAAAAAAAAAAAAAAAAAAAAAAAAAAAAAAAAAAAAAAAAAAAAAAAAAAAAAAAAAAAAHN0cDFAAAAACBAIEAgIEAgICAgICAgICAgI
        CAgICAgICAgICAgICAgICAgICAgICAgICAgICAgICAgICAgICAgICAgICAgICHN0cDJAAAAAAAEBAQABAQEBAQEBAQEBAQEBAQEBAQEBAQEBAQEBAQEBAQEBAQEBAQEB
        AQEBAQEBAQEBAQEBAQEBAQEBAQEBAXN0cDNAAAAABAQEBAQEBAQEBAQEBAQEBAQEBAQEBAQEBAQEBAQEBAQEBAQEBAQEBAQEBAQEBAQEBAQEBAQEBAQEBAQEBAQEBHN0
        cDRAAAAAYGBgYGBgYGBgYGBgYGBgYGBgYGBgYGBgYGBgYGBgYGBgYGBgYGBgYGBgYGBgYGBgYGBgYGBgYGBgYGBgYGBgYHN0cDVAAAAAAAAAAAAAAAAAAAAAAAAAAAAA
        AAAAAAAAAAAAAAAAAAAAAAAAAAAAAAAAAAAAAAAAAAAAAAAAAAAAAAAAAAAAAHByb2cSAgAAcHJncCIAAAAQEDIEAAEAfwB/AkAAAQABAAAAAAAAAAAAfwAAAAAAAAAA
        cGdubTAAAABCYXNzIDJrIFRyYW5jZSAwMwC+X/9/AACweMQlAQAAAAQqvl//fwAA9LBiIAEAAABzdHAwQAAAAAAAAAAAAAAAAAAAAAAAAAAAAAAAAAAAAAAAAAAAAAAA
        AAAAAAAAAAAAAAAAAAAAAAAAAAAAAAAAAAAAAAAAAABzdHAxQAAAABAIEBAICBAIEAgQEAgIEAgICAgICAgICAgICAgICAgICAgICAgICAgICAgICAgICAgICAgICAgI
        CAgICAgICAhzdHAyQAAAAAECAQEBAgEBAQIBAQECAQEBAQEBAQEBAQEBAQEBAQEBAQEBAQEBAQEBAQEBAQEBAQEBAQEBAQEBAQEBAQEBAQFzdHAzQAAAAAgEBAQEBAQE
        BAQEBAQEBAQEBAQEBAQEBAQEBAQEBAQEBAQEBAQEBAQEBAQEBAQEBAQEBAQEBAQEBAQEBAQEBARzdHA0QAAAAGBgYGBgYGBgYGBgYGBgYGBgYGBgYGBgYGBgYGBgYGBg
        YGBgYGBgYGBgYGBgYGBgYGBgYGBgYGBgYGBgYGBgYGBzdHA1QAAAAAAAAAAAAAAAAAAAAAAAAAAAAAAAAAAAAAAAAAAAAAAAAAAAAAAAAAAAAAAAAAAAAAAAAAAAAAAA
        AAAAAAAAAABwcm9nEgIAAHByZ3AiAAAAEBBdBAACAH8AfwJAAAEAAQAAAAAAAAAAAH8AAAAAAAAAAHBnbm0wAAAAQmFzcyAyayBETSBRdWVzdGlvbiBvZiB0aW1lAAEA
        AAAEKr5f/38AAPSwYiABAAAAc3RwMEAAAAAAAAAAAAAAAAAAAAAAAAAAAAAAAAAAAAAAAAAAAAAAAAAAAAAAAAAAAAAAAAAAAAAAAAAAAAAAAAAAAAAAAAAAc3RwMUAA
        AAAICAgICAgICAgICAgICAgICAgICAgICAgICAgICAgICAgICAgICAgICAgICAgICAgICAgICAgICAgICAgICAgIc3RwMkAAAAABAAEAAQABAAEAAQABAAEAAQEBAQEB
        AQEBAQEBAQEBAQEBAQEBAQEBAQEBAQEBAQEBAQEBAQEBAQEBAQEBAQEBc3RwM0AAAAAEBAQEBAQEBAQEBAQIBAQEBAQEBAQEBAQEBAQEBAQEBAQEBAQEBAQEBAQEBAQE
        BAQEBAQEBAQEBAQEBAQEBAQEc3RwNEAAAABgYGBgYGBgYGBgYGBgYGBgYGBgYGBgYGBgYGBgYGBgYGBgYGBgYGBgYGBgYGBgYGBgYGBgYGBgYGBgYGBgYGBgc3RwNUAA
        AAAAAAAAAAAAAAAAAAAAAAAAAAAAAAAAAAAAAAAAAAAAAAAAAAAAAAAAAAAAAAAAAAAAAAAAAAAAAAAAAAAAAAAAcHJvZxICAABwcmdwIgAAABAQUQQAAQB/AH8AQAAB
        AAEAAAAAAAAAAAB/AAAAAAAAAABwZ25tMAAAAEJhc3MgMWsgQmVuYXNzaSAtIElsbHVzaW9uACUBAAAABCq+X/9/AAD0sGIgAQAAAHN0cDBAAAAAAAAAAAAAAAAAAAAA
        AAAAAAAAAAAAAAAAAAAAAAAAAAAAAAAAAAAAAAAAAAAAAAAAAAAAAAAAAAAAAAAAAAAAAHN0cDFAAAAACBAIEBAQEAgQEAgQEBAIEAgICAgICAgICAgICAgICAgICAgI
        CAgICAgICAgICAgICAgICAgICAgICAgICAgICHN0cDJAAAAAAQABAAECAAEAAAEAAQIBAAEBAQEBAQEBAQEBAQEBAQEBAQEBAQEBAQEBAQEBAQEBAQEBAQEBAQEBAQEB
        AQEBAXN0cDNAAAAABAQEBAQEBAQEBAQEBAQEBAQEBAQEBAQEBAQEBAQEBAQEBAQEBAQEBAQEBAQEBAQEBAQEBAQEBAQEBAQEBAQEBHN0cDRAAAAAYGBgYGBgYGBgYGBg
        YGBgYGBgYGBgYGBgYGBgYGBgYGBgYGBgYGBgYGBgYGBgYGBgYGBgYGBgYGBgYGBgYGBgYHN0cDVAAAAAAAAAAAAAAAAAAAAAAAAAAAAAAAAAAAAAAAAAAAAAAAAAAAAA
        AAAAAAAAAAAAAAAAAAAAAAAAAAAAAAAAAAAAAHByb2cSAgAAcHJncCIAAAAQEFQEAAEAfwB/AEAAAQABAAAAAAAAAAAAfwAAAAAAAAAAcGdubTAAAABCYXNzIDFrIFF1
        ZWVuIC0gQnJlYWsgZnJlZQAlAQAAAAQqvl//fwAA9LBiIAEAAABzdHAwQAAAAAAAAAAAAAAAAAAAAAAAAAAAAAAAAAAAAAAAAAAAAAAAAAAAAAAAAAAAAAAAAAAAAAAA
        AAAAAAAAAAAAAAAAAABzdHAxQAAAAAgQCAgQEAgQEBAIEBAQCBAICAgICAgICAgICAgICAgICAgICAgICAgICAgICAgICAgICAgICAgICAgICAgICAhzdHAyQAAAAAEA
        AQEBAAEAAQABAAEAAQABAQEBAQEBAQEBAQEBAQEBAQEBAQEBAQEBAQEBAQEBAQEBAQEBAQEBAQEBAQEBAQFzdHAzQAAAAAQEBAQEBAQEBAQEBAQEBAQEBAQEBAQEBAQE
        BAQEBAQEBAQEBAQEBAQEBAQEBAQEBAQEBAQEBAQEBAQEBAQEBARzdHA0QAAAAGBgYGBgYGBgYGBgYGBgYGBgYGBgYGBgYGBgYGBgYGBgYGBgYGBgYGBgYGBgYGBgYGBg
        YGBgYGBgYGBgYGBgYGBzdHA1QAAAAAAAAAAAAAAAAAAAAAAAAAAAAAAAAAAAAAAAAAAAAAAAAAAAAAAAAAAAAAAAAAAAAAAAAAAAAAAAAAAAAAAAAABwcm9nEgIAAHBy
        Z3AiAAAAECBMBAABAH8AfwBAAAEAAQAAAAAAAAAAAH8AAAAAAAAAAHBnbm0wAAAAQmFzcyAxayBRdWVlbiAtIExpdmluZyBvbiBteSBvd24AKr5f/38AAPSwYiABAAAA
        c3RwMEAAAAAAAAAAAAAAAAAAAAAAAAAAAAAAAAAAAAAAAAAAAAAAAAAAAAAAAAAAAAAAAAAAAAAAAAAAAAAAAAAAAAAAAAAAc3RwMUAAAAAICBAICBAICBAICBAICBAI
        CBAgCBAgCBAgCBAgCBAgEAgICAgICAgICAgICAgICAgICAgICAgICAgICAgICAgIc3RwMkAAAAABAAEAAQEAAQEAAQEAAQEAAQEBAQEBAQEBAQEBAQEBAQEBAQEBAQEB
        AQEBAQEBAQEBAQEBAQEBAQEBAQEBAQEBc3RwM0AAAAAEBAQEBAQEBAQEBAQEBAQEBAQEBAQEBAQEBAQEBAQEBAQEBAQEBAQEBAQEBAQEBAQEBAQEBAQEBAQEBAQEBAQE
        c3RwNEAAAABgYGBgYGBgYGBgYGBgYGBgYGBgYGBgYGBgYGBgYGBgYGBgYGBgYGBgYGBgYGBgYGBgYGBgYGBgYGBgYGBgYGBgc3RwNUAAAAAAAAAAAAAAAAAAAAAAAAAA
        AAAAAAAAAAAAAAAAAAAAAAAAAAAAAAAAAAAAAAAAAAAAAAAAAAAAAAAAAAAAAAAAcHJvZxICAABwcmdwIgAAABAQLgQAAQB/AH8AQAABAAEAAAYDAAAAAAB/AAAAAAAA
        AABwZ25tMAAAAFNlcSAxayBGb3JjZVNjYWxlIEVtIDAxALB4xCUBAAAABCq+X/9/AAD0sGIgAQAAAHN0cDBAAAAAAAACAAQAAwAAAgMAAwADBAAAAAAAAAAAAAAAAAAA
        AAAAAAAAAAAAAAAAAAAAAAAAAAAAAAAAAAAAAAAAAAAAAHN0cDFAAAAABAIIBAgECAgCCAgECAQICAgICAgICAgICAgICAgICAgICAgICAgICAgICAgICAgICAgICAgI
        CAgICAgICAgICHN0cDJAAAAAAQABAAEAAQEAAQABAQAAAQEBAQEBAQEBAQEBAQEBAQEBAQEBAQEBAQEBAQEBAQEBAQEBAQEBAQEBAQEBAQEBAXN0cDNAAAAABAQEBAQE
        BAQEBAQEBAQEBAQEBAQEBAQEBAQEBAQEBAQEBAQEBAQEBAQEBAQEBAQEBAQEBAQEBAQEBAQEBAQEBHN0cDRAAAAAYGBgYGBgYGBgYGBgYGBgYGBgYGBgYGBgYGBgYGBg
        YGBgYGBgYGBgYGBgYGBgYGBgYGBgYGBgYGBgYGBgYGBgYHN0cDVAAAAAAAAAAAAAAAAAAAAAAAAAAAAAAAAAAAAAAAAAAAAAAAAAAAAAAAAAAAAAAAAAAAAAAAAAAAAA
        AAAAAAAAAAAAAHByb2cSAgAAcHJncCIAAAAQCEIEAAEAfwB/AEAAAQABAAAGAwAAAAAAfwAAAAAAAAAAcGdubTAAAABTZXEgMWsgRm9yY2VTY2FsZSBFbSAwMgCweMQl
        AQAAAAQqvl//fwAA9LBiIAEAAABzdHAwQAAAAAAAAAIAAAQAAAAAAAAAAAAAAAAAAAAAAAAAAAAAAAAAAAAAAAAAAAAAAAAAAAAAAAAAAAAAAAAAAAAAAAAAAABzdHAx
        QAAAAAgIBAgEBAgICAgICAgICAgICAgICAgICAgICAgICAgICAgICAgICAgICAgICAgICAgICAgICAgICAgICAgICAhzdHAyQAAAAAECAQEBAQECAQEBAQEBAQEBAQEB
        AQEBAQEBAQEBAQEBAQEBAQEBAQEBAQEBAQEBAQEBAQEBAQEBAQEBAQEBAQFzdHAzQAAAAAQEBAQEBAQEBAQEBAQEBAQEBAQEBAQEBAQEBAQEBAQEBAQEBAQEBAQEBAQE
        BAQEBAQEBAQEBAQEBAQEBAQEBARzdHA0QAAAAGBgYGBgYGBgYGBgYGBgYGBgYGBgYGBgYGBgYGBgYGBgYGBgYGBgYGBgYGBgYGBgYGBgYGBgYGBgYGBgYGBgYGBzdHA1
        QAAAAAAAAAAAAAAAAAAAAAAAAAAAAAAAAAAAAAAAAAAAAAAAAAAAAAAAAAAAAAAAAAAAAAAAAAAAAAAAAAAAAAAAAABwcm9nEgIAAHByZ3AiAAAAEBBHBAABAH8AfwBF
        AAEAAQAABgMAAAAAAH8AAAAAAAAAAHBnbm0wAAAAU2VxIDFrIEZvcmNlU2NhbGUgRW0gMDMAsHjEJQEAAAAEKr5f/38AAPSwYiABAAAAc3RwMEAAAAAAAAACAAQAAAAC
        AAAAAgADAAAAAAAAAAAAAAAAAAAAAAAAAAAAAAAAAAAAAAAAAAAAAAAAAAAAAAAAAAAAAAAAc3RwMUAAAAAICAgICAgICAgICAgICAgICAgICAgICAgICAgICAgICAgI
        CAgICAgICAgICAgICAgICAgICAgICAgICAgICAgIc3RwMkAAAAAAAQABAAEAAAEBAAABAQABAQEBAQEBAQEBAQEBAQEBAQEBAQEBAQEBAQEBAQEBAQEBAQEBAQEBAQEB
        AQEBAQEBc3RwM0AAAAAEBAQEBAQEBAQEBAQEBAQEBAQEBAQEBAQEBAQEBAQEBAQEBAQEBAQEBAQEBAQEBAQEBAQEBAQEBAQEBAQEBAQEc3RwNEAAAABgYGBgYGBgYGBg
        YGBgYGBgYGBgYGBgYGBgYGBgYGBgYGBgYGBgYGBgYGBgYGBgYGBgYGBgYGBgYGBgYGBgYGBgc3RwNUAAAAAAAAAAAAAAAAAAAAAAAAAAAAAAAAAAAAAAAAAAAAAAAAAA
        AAAAAAAAAAAAAAAAAAAAAAAAAAAAAAAAAAAAAAAAcHJvZxICAABwcmdwIgAAABAQZAQAAgB/AH8AQAABAAEAAAYDAAAAAAB/AAAAAAAAAABwZ25tMAAAAFNlcSAyayBG
        b3JjZVNjYWxlIEVtIDA0IChFK0cpAAAABCq+X/9/AAD0sGIgAQAAAHN0cDBAAAAAAAAAAAYAAAAAAAUAAAQAAAAAAAAAAAAAAAAAAAAAAAAAAAAAAAAAAAAAAAAAAAAA
        AAAAAAAAAAAAAAAAAAAAAHN0cDFAAAAABAgEBAgEBAgEBAgEBAgECAgICAgICAgICAgICAgICAgICAgICAgICAgICAgICAgICAgICAgICAgICAgICAgICHN0cDJAAAAA
        AQEAAQEAAQEAAQEAAQEAAQEBAQEBAQEBAQEBAQEBAQEBAQEBAQEBAQEBAQEBAQEBAQEBAQEBAQEBAQEBAQEBAXN0cDNAAAAABAgEBAQEBAgEBAgEBAgEBAQEBAQEBAQE
        BAQEBAQEBAQEBAQEBAQEBAQEBAQEBAQEBAQEBAQEBAQEBAQEBAQEBHN0cDRAAAAAYGBgYGBgYGBgYGBgYGBgYGBgYGBgYGBgYGBgYGBgYGBgYGBgYGBgYGBgYGBgYGBg
        YGBgYGBgYGBgYGBgYGBgYHN0cDVAAAAAAAAAAAAAAAAAAAAAAAAAAAAAAAAAAAAAAAAAAAAAAAAAAAAAAAAAAAAAAAAAAAAAAAAAAAAAAAAAAAAAAAAAAHByb2cSAgAA
        cHJncCIAAAAQCEMEAAIAfwB/AEAAAQABAAAAAAAAAAAAfwAAAAAAAAAAcGdubTAAAABTZXEgMmsgSGFybW9uaWMxIChBK0MvQyMpAMQlAQAAAAQqvl//fwAA9LBiIAEA
        AABzdHAwQAAAAAAAAAAAAAcAAAAAAAAAAAAAAAAAAAAAAAAAAAAAAAAAAAAAAAAAAAAAAAAAAAAAAAAAAAAAAAAAAAAAAAAAAABzdHAxQAAAAAgICAgEBAgICAgICAgI
        CAgICAgICAgICAgICAgICAgICAgICAgICAgICAgICAgICAgICAgICAgICAgICAgICAhzdHAyQAAAAAECAQEBAQECAQEBAQEBAQEBAQEBAQEBAQEBAQEBAQEBAQEBAQEB
        AQEBAQEBAQEBAQEBAQEBAQEBAQEBAQEBAQFzdHAzQAAAAAQEBAgEBAQEBAQEBAQEBAQEBAQEBAQEBAQEBAQEBAQEBAQEBAQEBAQEBAQEBAQEBAQEBAQEBAQEBAQEBAQE
        BARzdHA0QAAAAGBgYGBgYGBgYGBgYGBgYGBgYGBgYGBgYGBgYGBgYGBgYGBgYGBgYGBgYGBgYGBgYGBgYGBgYGBgYGBgYGBgYGBzdHA1QAAAAAAAAAAAAAAAAAAAAAAA
        AAAAAAAAAAAAAAAAAAAAAAAAAAAAAAAAAAAAAAAAAAAAAAAAAAAAAAAAAAAAAAAAAABwcm9nEgIAAHByZ3AiAAAAEAhDBAABAH8AfwBAAAEAAQAAAAAAAAAAAH8AAAAA
        AAAAAHBnbm0wAAAAU2VxIDJrIEhhcm1vbmljMiAoQStDL0MjKQDEJQEAAAAEKr5f/38AAPSwYiABAAAAc3RwMEAAAAAAAAcFAAcFAAAAAAAAAAAAAAAAAAAAAAAAAAAA
        AAAAAAAAAAAAAAAAAAAAAAAAAAAAAAAAAAAAAAAAAAAAAAAAc3RwMUAAAAAECAgIBAgICAgICAgICAgICAgICAgICAgICAgICAgICAgICAgICAgICAgICAgICAgICAgI
        CAgICAgICAgICAgIc3RwMkAAAAABAQEBAQEBAQEBAQEBAQEBAQEBAQEBAQEBAQEBAQEBAQEBAQEBAQEBAQEBAQEBAQEBAQEBAQEBAQEBAQEBAQEBc3RwM0AAAAAECAQI
        BAQIBAQEBAQEBAQEBAQEBAQEBAQEBAQEBAQEBAQEBAQEBAQEBAQEBAQEBAQEBAQEBAQEBAQEBAQEBAQEc3RwNEAAAABgYGBgYGBgYGBgYGBgYGBgYGBgYGBgYGBgYGBg
        YGBgYGBgYGBgYGBgYGBgYGBgYGBgYGBgYGBgYGBgYGBgYGBgc3RwNUAAAAAAAAAAAAAAAAAAAAAAAAAAAAAAAAAAAAAAAAAAAAAAAAAAAAAAAAAAAAAAAAAAAAAAAAAA
        AAAAAAAAAAAAAAAAcHJvZxICAABwcmdwIgAAABAIRwQAAQB/AH8AQAABAAEAAAAAAAAAAAB/AAAAAAAAAABwZ25tMAAAAFNlcSAyayBIYXJtb25pYzMgKEErQy9DIykA
        xCUBAAAABCq+X/9/AAD0sGIgAQAAAHN0cDBAAAAAAAAHBwAAAAcAAAAAAAAAAAAAAAAAAAAAAAAAAAAAAAAAAAAAAAAAAAAAAAAAAAAAAAAAAAAAAAAAAAAAAAAAAHN0
        cDFAAAAABAgICAgECAgICAgICAgICAgICAgICAgICAgICAgICAgICAgICAgICAgICAgICAgICAgICAgICAgICAgICAgICHN0cDJAAAAAAQEBAQEBAQEBAQEBAQEBAQEB
        AQEBAQEBAQEBAQEBAQEBAQEBAQEBAQEBAQEBAQEBAQEBAQEBAQEBAQEBAQEBAXN0cDNAAAAABAgECAQECAQEBAQEBAQEBAQEBAQEBAQEBAQEBAQEBAQEBAQEBAQEBAQE
        BAQEBAQEBAQEBAQEBAQEBAQEBAQEBHN0cDRAAAAAYGBgYGBgYGBgYGBgYGBgYGBgYGBgYGBgYGBgYGBgYGBgYGBgYGBgYGBgYGBgYGBgYGBgYGBgYGBgYGBgYGBgYHN0
        cDVAAAAAAAAAAAAAAAAAAAAAAAAAAAAAAAAAAAAAAAAAAAAAAAAAAAAAAAAAAAAAAAAAAAAAAAAAAAAAAAAAAAAAAAAAAHByb2cSAgAAcHJncCIAAAAQCEIEAAEAfwB/
        AEAAAQABAAAAAAAAAAAAfwAAAAAAAAAAcGdubTAAAABTZXEgMmsgSGFybW9uaWM0IChBK0MvQyMpAMQlAQAAAAQqvl//fwAA9LBiIAEAAABzdHAwQAAAAAAAAAcAAAAA
        AAAAAAAAAAAAAAAAAAAAAAAAAAAAAAAAAAAAAAAAAAAAAAAAAAAAAAAAAAAAAAAAAAAAAAAAAABzdHAxQAAAAAgECAgECAQECAgICAgICAgICAgICAgICAgICAgICAgI
        CAgICAgICAgICAgICAgICAgICAgICAgICAgICAgICAhzdHAyQAAAAAEBAQEBAQEBAQEBAQEBAQEBAQEBAQEBAQEBAQEBAQEBAQEBAQEBAQEBAQEBAQEBAQEBAQEBAQEB
        AQEBAQEBAQFzdHAzQAAAAAQECAQECAQEBAQEBAQEBAQEBAQEBAQEBAQEBAQEBAQEBAQEBAQEBAQEBAQEBAQEBAQEBAQEBAQEBAQEBAQEBARzdHA0QAAAAGBgYGBgYGBg
        YGBgYGBgYGBgYGBgYGBgYGBgYGBgYGBgYGBgYGBgYGBgYGBgYGBgYGBgYGBgYGBgYGBgYGBgYGBzdHA1QAAAAAAAAAAAAAAAAAAAAAAAAAAAAAAAAAAAAAAAAAAAAAAA
        AAAAAAAAAAAAAAAAAAAAAAAAAAAAAAAAAAAAAAAAAABwcm9nEgIAAHByZ3AiAAAAECA9BAABAH8AfwBAAAEAAQAAAAAAAAAAAH8AAAAAAAAAAHBnbm0wAAAAU2VxIDJr
        IEtyYWZ0d2VyazEgKEQrRikAsHjEJQEAAAAEKr5f/38AAPSwYiABAAAAc3RwMEAAAAAAAP7+AAD+/gAAAAAAAAAAAAD+/gAA/v4AAAAAAAAAAAAAAAAAAAAAAAAAAAAA
        AAAAAAAAAAAAAAAAAAAAAAAAc3RwMUAAAAAICAgICAgICAgICAgICAgICAgICAgICAgICAQEBAgEBAgICAgICAgICAgICAgICAgICAgICAgICAgICAgICAgIc3RwMkAA
        AAABAQEBAQEBAQEBAAABAQAAAQEBAQEBAQEBAQEBAQEAAAEBAQEBAQEBAQEBAQEBAQEBAQEBAQEBAQEBAQEBAQEBc3RwM0AAAAAEBAQEBAQEBAQEBAQICAQEBAQEBAQE
        BAQEBAQEBAQEBAQEBAQEBAQEBAQEBAQEBAQEBAQEBAQEBAQEBAQEBAQEc3RwNEAAAABgYGBgYGBgYGBgYGBgYGBgYGBgYGBgYGBgYGBgYGBgYGBgYGBgYGBgYGBgYGBg
        YGBgYGBgYGBgYGBgYGBgYGBgc3RwNUAAAAAAAAAAAAAAAAAAAAAAAAAAAAAAAAAAAAAAAAAAAAAAAAAAAAAAAAAAAAAAAAAAAAAAAAAAAAAAAAAAAAAAAAAAcHJvZxIC
        AABwcmdwIgAAABAgZAQAAQB/AH8APgABAAEAAAAAAAAAAAB/AAAAAAAAAABwZ25tMAAAAFNlcSAyayBLcmFmdHdlcmsyIChBLCBDKQB4xCUBAAAABCq+X/9/AAD0sGIg
        AQAAAHN0cDBAAAAAAAAAAAAAAAADAAAAAAAAAAMAAAAFAAoABwAAAAAAAAAAAAAAAAAAAAAAAAAAAAAAAAAAAAAAAAAAAAAAAAAAAHN0cDFAAAAACAgICAgICAgICAgI
        CAgICAgICAgICAgICAgICAgICAgICAgICAgICAgICAgICAgICAgICAgICAgICAgICAgICHN0cDJAAAAAAQAAAAEAAQABAAEAAAAAAAEAAAABAAEAAQAAAAAAAAABAQEB
        AQEBAQEBAQEBAQEBAQEBAQEBAQEBAQEBAQEBAXN0cDNAAAAABAQEBAQEBAQEBAQEBAQEBAQEBAQEBAQEBAQEBAQEBAQEBAQEBAQEBAQEBAQEBAQEBAQEBAQEBAQEBAQE
        BAQEBHN0cDRAAAAAYGBgYGBgYGBgYGBgYGBgYGBgYGBgYGBgYGBgYGBgYGBgYGBgYGBgYGBgYGBgYGBgYGBgYGBgYGBgYGBgYGBgYHN0cDVAAAAAAAAAAAAAAAAAAAAA
        AAAAAAAAAAAAAAAAAAAAAAAAAAAAAAAAAAAAAAAAAAAAAAAAAAAAAAAAAAAAAAAAAAAAAHByb2cSAgAAcHJncCIAAAAQIGQEAAEAfwB/AEAAAQABAAAAAAAAAAAAfwAA
        AAAAAAAAcGdubTAAAABTZXEgMmsgS3JhZnR3ZXJrMyAoQStDLCBGK0EpAAAAAAQqvl//fwAA9LBiIAEAAABzdHAwQAAAAAAAAAAAAPsAAAD7AAAAAAAAAAAAAgAAAAAA
        AAAAAPsAAAAAAAAAAAAAAAAAAAAAAAAAAAAAAAAAAAAAAAAAAABzdHAxQAAAAAgICAgICAgICAgICAgICAgICAgICAgICAgICAgICAgICAgICAgICAgICAgICAgICAgI
        CAgICAgICAgICAgICAhzdHAyQAAAAAEAAAABAAEAAQABAAAAAQABAAAAAQABAAAAAAAAAAEAAQEBAQEBAQEBAQEBAQEBAQEBAQEBAQEBAQEBAQEBAQFzdHAzQAAAAAQE
        BAQEBAQEBAQEBAQEBAQIBAQEBAQEBAQEBAQEBAQEBAQEBAQEBAQEBAQEBAQEBAQEBAQEBAQEBAQEBAQEBARzdHA0QAAAAGBgYGBgYGBgYGBgYGBgYGBgYGBgYGBgYGBg
        YGBgYGBgYGBgYGBgYGBgYGBgYGBgYGBgYGBgYGBgYGBgYGBgYGBzdHA1QAAAAAAAAAAAAAAAAAAAAAAAAAAAAAAAAAAAAAAAAAAAAAAAAAAAAAAAAAAAAAAAAAAAAAAA
        AAAAAAAAAAAAAAAAAABwcm9nEgIAAHByZ3AiAAAAECBkBAABAH8AfwBAAAEAAQAAAAAAAAAAAH8AAAAAAAAAAHBnbm0wAAAAU2VxIDJrIEtyYWZ0d2VyazMgKEErQywg
        RitBKQAAAAAEKr5f/38AAPSwYiABAAAAc3RwMEAAAAAAAAAAAAD7AAAA+wAAAAAAAAAAAAIAAAAAAAAAAAD7AAAAAAAAAAAAAAAAAAAAAAAAAAAAAAAAAAAAAAAAAAAA
        c3RwMUAAAAAICAgICAgICAgICAgICAgICAgICAgICAgICAgICAgICAgICAgICAgICAgICAgICAgICAgICAgICAgICAgICAgIc3RwMkAAAAABAAAAAQABAAEAAQAAAAEA
        AQAAAAEAAQAAAAAAAAABAAEBAQEBAQEBAQEBAQEBAQEBAQEBAQEBAQEBAQEBAQEBc3RwM0AAAAAEBAQEBAQEBAQEBAQEBAQECAQEBAQEBAQEBAQEBAQEBAQEBAQEBAQE
        BAQEBAQEBAQEBAQEBAQEBAQEBAQEBAQEc3RwNEAAAABgYGBgYGBgYGBgYGBgYGBgYGBgYGBgYGBgYGBgYGBgYGBgYGBgYGBgYGBgYGBgYGBgYGBgYGBgYGBgYGBgYGBg
        c3RwNUAAAAAAAAAAAAAAAAAAAAAAAAAAAAAAAAAAAAAAAAAAAAAAAAAAAAAAAAAAAAAAAAAAAAAAAAAAAAAAAAAAAAAAAAAAcHJvZxICAABwcmdwIgAAABAgZAQAAQB/
        AH8AQAABAAEAAAAAAAAAAAB/AAAAAAAAAABwZ25tMAAAAFNlcSAyayBLcmFmdHdlcmszIChBK0MsIEYrQSkAAAAABCq+X/9/AAD0sGIgAQAAAHN0cDBAAAAAAAAAAAAA
        +wAAAPsAAAAAAAAAAAACAAAAAAAAAAAA+wAAAAAAAAAAAAAAAAAAAAAAAAAAAAAAAAAAAAAAAAAAAHN0cDFAAAAACAgICAgICAgICAgICAgICAgICAgICAgICAgICAgI
        CAgICAgICAgICAgICAgICAgICAgICAgICAgICAgICAgICHN0cDJAAAAAAQAAAAEAAQABAAEAAAABAAEAAAABAAEAAAAAAAAAAQABAQEBAQEBAQEBAQEBAQEBAQEBAQEB
        AQEBAQEBAQEBAXN0cDNAAAAABAQEBAQEBAQEBAQEBAQEBAgEBAQEBAQEBAQEBAQEBAQEBAQEBAQEBAQEBAQEBAQEBAQEBAQEBAQEBAQEBAQEBHN0cDRAAAAAYGBgYGBg
        YGBgYGBgYGBgYGBgYGBgYGBgYGBgYGBgYGBgYGBgYGBgYGBgYGBgYGBgYGBgYGBgYGBgYGBgYGBgYHN0cDVAAAAAAAAAAAAAAAAAAAAAAAAAAAAAAAAAAAAAAAAAAAAA
        AAAAAAAAAAAAAAAAAAAAAAAAAAAAAAAAAAAAAAAAAAAAAHByb2cSAgAAcHJncCIAAAAQIGQEAAEAfwB/AEAAAQABAAAAAAAAAAAAfwAAAAAAAAAAcGdubTAAAABTZXEg
        MmsgS3JhZnR3ZXJrMyAoQStDLCBGK0EpAAAAAAQqvl//fwAA9LBiIAEAAABzdHAwQAAAAAAAAAAAAPsAAAD7AAAAAAAAAAAAAgAAAAAAAAAAAPsAAAAAAAAAAAAAAAAA
        AAAAAAAAAAAAAAAAAAAAAAAAAABzdHAxQAAAAAgICAgICAgICAgICAgICAgICAgICAgICAgICAgICAgICAgICAgICAgICAgICAgICAgICAgICAgICAgICAgICAhzdHAy
        QAAAAAEAAAABAAEAAQABAAAAAQABAAAAAQABAAAAAAAAAAEAAQEBAQEBAQEBAQEBAQEBAQEBAQEBAQEBAQEBAQEBAQFzdHAzQAAAAAQEBAQEBAQEBAQEBAQEBAQIBAQE
        BAQEBAQEBAQEBAQEBAQEBAQEBAQEBAQEBAQEBAQEBAQEBAQEBAQEBAQEBARzdHA0QAAAAGBgYGBgYGBgYGBgYGBgYGBgYGBgYGBgYGBgYGBgYGBgYGBgYGBgYGBgYGBg
        YGBgYGBgYGBgYGBgYGBgYGBgYGBzdHA1QAAAAAAAAAAAAAAAAAAAAAAAAAAAAAAAAAAAAAAAAAAAAAAAAAAAAAAAAAAAAAAAAAAAAAAAAAAAAAAAAAAAAAAAAABwcm9n
        EgIAAHByZ3AiAAAAECBkBAABAH8AfwBAAAEAAQAAAAAAAAAAAH8AAAAAAAAAAHBnbm0wAAAAU2VxIDJrIEtyYWZ0d2VyazMgKEErQywgRitBKQAAAAAEKr5f/38AAPSw
        YiABAAAAc3RwMEAAAAAAAAAAAAD7AAAA+wAAAAAAAAAAAAIAAAAAAAAAAAD7AAAAAAAAAAAAAAAAAAAAAAAAAAAAAAAAAAAAAAAAAAAAc3RwMUAAAAAICAgICAgICAgI
        CAgICAgICAgICAgICAgICAgICAgICAgICAgICAgICAgICAgICAgICAgICAgICAgICAgICAgIc3RwMkAAAAABAAAAAQABAAEAAQAAAAEAAQAAAAEAAQAAAAAAAAABAAEB
        AQEBAQEBAQEBAQEBAQEBAQEBAQEBAQEBAQEBAQEBc3RwM0AAAAAEBAQEBAQEBAQEBAQEBAQECAQEBAQEBAQEBAQEBAQEBAQEBAQEBAQEBAQEBAQEBAQEBAQEBAQEBAQE
        BAQEBAQEc3RwNEAAAABgYGBgYGBgYGBgYGBgYGBgYGBgYGBgYGBgYGBgYGBgYGBgYGBgYGBgYGBgYGBgYGBgYGBgYGBgYGBgYGBgYGBgc3RwNUAAAAAAAAAAAAAAAAAA
        AAAAAAAAAAAAAAAAAAAAAAAAAAAAAAAAAAAAAAAAAAAAAAAAAAAAAAAAAAAAAAAAAAAAAAAAcHJvZxICAABwcmdwIgAAABAgZAQAAQB/AH8AQAABAAEAAAAAAAAAAAB/
        AAAAAAAAAABwZ25tMAAAAFNlcSAyayBLcmFmdHdlcmszIChBK0MsIEYrQSkAAAAABCq+X/9/AAD0sGIgAQAAAHN0cDBAAAAAAAAAAAAA+wAAAPsAAAAAAAAAAAACAAAA
        AAAAAAAA+wAAAAAAAAAAAAAAAAAAAAAAAAAAAAAAAAAAAAAAAAAAAHN0cDFAAAAACAgICAgICAgICAgICAgICAgICAgICAgICAgICAgICAgICAgICAgICAgICAgICAgI
        CAgICAgICAgICAgICAgICHN0cDJAAAAAAQAAAAEAAQABAAEAAAABAAEAAAABAAEAAAAAAAAAAQABAQEBAQEBAQEBAQEBAQEBAQEBAQEBAQEBAQEBAQEBAXN0cDNAAAAA
        BAQEBAQEBAQEBAQEBAQEBAgEBAQEBAQEBAQEBAQEBAQEBAQEBAQEBAQEBAQEBAQEBAQEBAQEBAQEBAQEBAQEBHN0cDRAAAAAYGBgYGBgYGBgYGBgYGBgYGBgYGBgYGBg
        YGBgYGBgYGBgYGBgYGBgYGBgYGBgYGBgYGBgYGBgYGBgYGBgYGBgYHN0cDVAAAAAAAAAAAAAAAAAAAAAAAAAAAAAAAAAAAAAAAAAAAAAAAAAAAAAAAAAAAAAAAAAAAAA
        AAAAAAAAAAAAAAAAAAAAAHByb2cSAgAAcHJncCIAAAAQIGQEAAEAfwB/AEAAAQABAAAAAAAAAAAAfwAAAAAAAAAAcGdubTAAAABTZXEgMmsgS3JhZnR3ZXJrMyAoQStD
        LCBGK0EpAAAAAAQqvl//fwAA9LBiIAEAAABzdHAwQAAAAAAAAAAAAPsAAAD7AAAAAAAAAAAAAgAAAAAAAAAAAPsAAAAAAAAAAAAAAAAAAAAAAAAAAAAAAAAAAAAAAAAA
        AABzdHAxQAAAAAgICAgICAgICAgICAgICAgICAgICAgICAgICAgICAgICAgICAgICAgICAgICAgICAgICAgICAgICAgICAgICAhzdHAyQAAAAAEAAAABAAEAAQABAAAA
        AQABAAAAAQABAAAAAAAAAAEAAQEBAQEBAQEBAQEBAQEBAQEBAQEBAQEBAQEBAQEBAQFzdHAzQAAAAAQEBAQEBAQEBAQEBAQEBAQIBAQEBAQEBAQEBAQEBAQEBAQEBAQE
        BAQEBAQEBAQEBAQEBAQEBAQEBAQEBAQEBARzdHA0QAAAAGBgYGBgYGBgYGBgYGBgYGBgYGBgYGBgYGBgYGBgYGBgYGBgYGBgYGBgYGBgYGBgYGBgYGBgYGBgYGBgYGBg
        YGBzdHA1QAAAAAAAAAAAAAAAAAAAAAAAAAAAAAAAAAAAAAAAAAAAAAAAAAAAAAAAAAAAAAAAAAAAAAAAAAAAAAAAAAAAAAAAAABwcm9nEgIAAHByZ3AiAAAAECBkBAAB
        AH8AfwBAAAEAAQAAAAAAAAAAAH8AAAAAAAAAAHBnbm0wAAAAU2VxIDJrIEtyYWZ0d2VyazMgKEErQywgRitBKQAAAAAEKr5f/38AAPSwYiABAAAAc3RwMEAAAAAAAAAA
        AAD7AAAA+wAAAAAAAAAAAAIAAAAAAAAAAAD7AAAAAAAAAAAAAAAAAAAAAAAAAAAAAAAAAAAAAAAAAAAAc3RwMUAAAAAICAgICAgICAgICAgICAgICAgICAgICAgICAgI
        CAgICAgICAgICAgICAgICAgICAgICAgICAgICAgICAgICAgIc3RwMkAAAAABAAAAAQABAAEAAQAAAAEAAQAAAAEAAQAAAAAAAAABAAEBAQEBAQEBAQEBAQEBAQEBAQEB
        AQEBAQEBAQEBAQEBc3RwM0AAAAAEBAQEBAQEBAQEBAQEBAQECAQEBAQEBAQEBAQEBAQEBAQEBAQEBAQEBAQEBAQEBAQEBAQEBAQEBAQEBAQEBAQEc3RwNEAAAABgYGBg
        YGBgYGBgYGBgYGBgYGBgYGBgYGBgYGBgYGBgYGBgYGBgYGBgYGBgYGBgYGBgYGBgYGBgYGBgYGBgYGBgc3RwNUAAAAAAAAAAAAAAAAAAAAAAAAAAAAAAAAAAAAAAAAAA
        AAAAAAAAAAAAAAAAAAAAAAAAAAAAAAAAAAAAAAAAAAAAAAAAcHJvZxICAABwcmdwIgAAABAgZAQAAQB/AH8AQAABAAEAAAAAAAAAAAB/AAAAAAAAAABwZ25tMAAAAFNl
        cSAyayBLcmFmdHdlcmszIChBK0MsIEYrQSkAAAAABCq+X/9/AAD0sGIgAQAAAHN0cDBAAAAAAAAAAAAA+wAAAPsAAAAAAAAAAAACAAAAAAAAAAAA+wAAAAAAAAAAAAAA
        AAAAAAAAAAAAAAAAAAAAAAAAAAAAAHN0cDFAAAAACAgICAgICAgICAgICAgICAgICAgICAgICAgICAgICAgICAgICAgICAgICAgICAgICAgICAgICAgICAgICAgICHN0
        cDJAAAAAAQAAAAEAAQABAAEAAAABAAEAAAABAAEAAAAAAAAAAQABAQEBAQEBAQEBAQEBAQEBAQEBAQEBAQEBAQEBAQEBAXN0cDNAAAAABAQEBAQEBAQEBAQEBAQEBAgE
        BAQEBAQEBAQEBAQEBAQEBAQEBAQEBAQEBAQEBAQEBAQEBAQEBAQEBAQEBAQEBHN0cDRAAAAAYGBgYGBgYGBgYGBgYGBgYGBgYGBgYGBgYGBgYGBgYGBgYGBgYGBgYGBg
        YGBgYGBgYGBgYGBgYGBgYGBgYGBgYHN0cDVAAAAAAAAAAAAAAAAAAAAAAAAAAAAAAAAAAAAAAAAAAAAAAAAAAAAAAAAAAAAAAAAAAAAAAAAAAAAAAAAAAAAAAAAAAHBy
        b2cSAgAAcHJncCIAAAAQIGQEAAEAfwB/AEAAAQABAAAAAAAAAAAAfwAAAAAAAAAAcGdubTAAAABTZXEgMmsgS3JhZnR3ZXJrMyAoQStDLCBGK0EpAAAAAAQqvl//fwAA
        9LBiIAEAAABzdHAwQAAAAAAAAAAAAPsAAAD7AAAAAAAAAAAAAgAAAAAAAAAAAPsAAAAAAAAAAAAAAAAAAAAAAAAAAAAAAAAAAAAAAAAAAABzdHAxQAAAAAgICAgICAgI
        CAgICAgICAgICAgICAgICAgICAgICAgICAgICAgICAgICAgICAgICAgICAgICAgICAgICAgICAhzdHAyQAAAAAEAAAABAAEAAQABAAAAAQABAAAAAQABAAAAAAAAAAEA
        AQEBAQEBAQEBAQEBAQEBAQEBAQEBAQEBAQEBAQEBAQFzdHAzQAAAAAQEBAQEBAQEBAQEBAQEBAQIBAQEBAQEBAQEBAQEBAQEBAQEBAQEBAQEBAQEBAQEBAQEBAQEBAQE
        BAQEBAQEBARzdHA0QAAAAGBgYGBgYGBgYGBgYGBgYGBgYGBgYGBgYGBgYGBgYGBgYGBgYGBgYGBgYGBgYGBgYGBgYGBgYGBgYGBgYGBgYGBzdHA1QAAAAAAAAAAAAAAA
        AAAAAAAAAAAAAAAAAAAAAAAAAAAAAAAAAAAAAAAAAAAAAAAAAAAAAAAAAAAAAAAAAAAAAAAAAABwcm9nEgIAAHByZ3AiAAAAECBkBAABAH8AfwBAAAEAAQAAAAAAAAAA
        AH8AAAAAAAAAAHBnbm0wAAAAU2VxIDJrIEtyYWZ0d2VyazMgKEErQywgRitBKQAAAAAEKr5f/38AAPSwYiABAAAAc3RwMEAAAAAAAAAAAAD7AAAA+wAAAAAAAAAAAAIA
        AAAAAAAAAAD7AAAAAAAAAAAAAAAAAAAAAAAAAAAAAAAAAAAAAAAAAAAAc3RwMUAAAAAICAgICAgICAgICAgICAgICAgICAgICAgICAgICAgICAgICAgICAgICAgICAgI
        CAgICAgICAgICAgICAgICAgIc3RwMkAAAAABAAAAAQABAAEAAQAAAAEAAQAAAAEAAQAAAAAAAAABAAEBAQEBAQEBAQEBAQEBAQEBAQEBAQEBAQEBAQEBAQEBc3RwM0AA
        AAAEBAQEBAQEBAQEBAQEBAQECAQEBAQEBAQEBAQEBAQEBAQEBAQEBAQEBAQEBAQEBAQEBAQEBAQEBAQEBAQEBAQEc3RwNEAAAABgYGBgYGBgYGBgYGBgYGBgYGBgYGBg
        YGBgYGBgYGBgYGBgYGBgYGBgYGBgYGBgYGBgYGBgYGBgYGBgYGBgYGBgc3RwNUAAAAAAAAAAAAAAAAAAAAAAAAAAAAAAAAAAAAAAAAAAAAAAAAAAAAAAAAAAAAAAAAAA
        AAAAAAAAAAAAAAAAAAAAAAAAcHJvZxICAABwcmdwIgAAABAgZAQAAQB/AH8AQAABAAEAAAAAAAAAAAB/AAAAAAAAAABwZ25tMAAAAFNlcSAyayBLcmFmdHdlcmszIChB
        K0MsIEYrQSkAAAAABCq+X/9/AAD0sGIgAQAAAHN0cDBAAAAAAAAAAAAA+wAAAPsAAAAAAAAAAAACAAAAAAAAAAAA+wAAAAAAAAAAAAAAAAAAAAAAAAAAAAAAAAAAAAAA
        AAAAAHN0cDFAAAAACAgICAgICAgICAgICAgICAgICAgICAgICAgICAgICAgICAgICAgICAgICAgICAgICAgICAgICAgICAgICAgICHN0cDJAAAAAAQAAAAEAAQABAAEA
        AAABAAEAAAABAAEAAAAAAAAAAQABAQEBAQEBAQEBAQEBAQEBAQEBAQEBAQEBAQEBAQEBAXN0cDNAAAAABAQEBAQEBAQEBAQEBAQEBAgEBAQEBAQEBAQEBAQEBAQEBAQE
        BAQEBAQEBAQEBAQEBAQEBAQEBAQEBAQEBAQEBHN0cDRAAAAAYGBgYGBgYGBgYGBgYGBgYGBgYGBgYGBgYGBgYGBgYGBgYGBgYGBgYGBgYGBgYGBgYGBgYGBgYGBgYGBg
        YGBgYHN0cDVAAAAAAAAAAAAAAAAAAAAAAAAAAAAAAAAAAAAAAAAAAAAAAAAAAAAAAAAAAAAAAAAAAAAAAAAAAAAAAAAAAAAAAAAAAHByb2cSAgAAcHJncCIAAAAQIGQE
        AAEAfwB/AEAAAQABAAAAAAAAAAAAfwAAAAAAAAAAcGdubTAAAABTZXEgMmsgS3JhZnR3ZXJrMyAoQStDLCBGK0EpAAAAAAQqvl//fwAA9LBiIAEAAABzdHAwQAAAAAAA
        AAAAAPsAAAD7AAAAAAAAAAAAAgAAAAAAAAAAAPsAAAAAAAAAAAAAAAAAAAAAAAAAAAAAAAAAAAAAAAAAAABzdHAxQAAAAAgICAgICAgICAgICAgICAgICAgICAgICAgI
        CAgICAgICAgICAgICAgICAgICAgICAgICAgICAgICAgICAgICAhzdHAyQAAAAAEAAAABAAEAAQABAAAAAQABAAAAAQABAAAAAAAAAAEAAQEBAQEBAQEBAQEBAQEBAQEB
        AQEBAQEBAQEBAQEBAQFzdHAzQAAAAAQEBAQEBAQEBAQEBAQEBAQIBAQEBAQEBAQEBAQEBAQEBAQEBAQEBAQEBAQEBAQEBAQEBAQEBAQEBAQEBAQEBARzdHA0QAAAAGBg
        YGBgYGBgYGBgYGBgYGBgYGBgYGBgYGBgYGBgYGBgYGBgYGBgYGBgYGBgYGBgYGBgYGBgYGBgYGBgYGBgYGBzdHA1QAAAAAAAAAAAAAAAAAAAAAAAAAAAAAAAAAAAAAAA
        AAAAAAAAAAAAAAAAAAAAAAAAAAAAAAAAAAAAAAAAAAAAAAAAAABwcm9nEgIAAHByZ3AiAAAAECBkBAABAH8AfwBAAAEAAQAAAAAAAAAAAH8AAAAAAAAAAHBnbm0wAAAA
        U2VxIDJrIEtyYWZ0d2VyazMgKEErQywgRitBKQAAAAAEKr5f/38AAPSwYiABAAAAc3RwMEAAAAAAAAAAAAD7AAAA+wAAAAAAAAAAAAIAAAAAAAAAAAD7AAAAAAAAAAAA
        AAAAAAAAAAAAAAAAAAAAAAAAAAAAAAAAc3RwMUAAAAAICAgICAgICAgICAgICAgICAgICAgICAgICAgICAgICAgICAgICAgICAgICAgICAgICAgICAgICAgICAgICAgI
        c3RwMkAAAAABAAAAAQABAAEAAQAAAAEAAQAAAAEAAQAAAAAAAAABAAEBAQEBAQEBAQEBAQEBAQEBAQEBAQEBAQEBAQEBAQEBc3RwM0AAAAAEBAQEBAQEBAQEBAQEBAQE
        CAQEBAQEBAQEBAQEBAQEBAQEBAQEBAQEBAQEBAQEBAQEBAQEBAQEBAQEBAQEBAQEc3RwNEAAAABgYGBgYGBgYGBgYGBgYGBgYGBgYGBgYGBgYGBgYGBgYGBgYGBgYGBg
        YGBgYGBgYGBgYGBgYGBgYGBgYGBgYGBgc3RwNUAAAAAAAAAAAAAAAAAAAAAAAAAAAAAAAAAAAAAAAAAAAAAAAAAAAAAAAAAAAAAAAAAAAAAAAAAAAAAAAAAAAAAAAAAA
        cHJvZxICAABwcmdwIgAAABAgZAQAAQB/AH8AQAABAAEAAAAAAAAAAAB/AAAAAAAAAABwZ25tMAAAAFNlcSAyayBLcmFmdHdlcmszIChBK0MsIEYrQSkAAAAABCq+X/9/
        AAD0sGIgAQAAAHN0cDBAAAAAAAAAAAAA+wAAAPsAAAAAAAAAAAACAAAAAAAAAAAA+wAAAAAAAAAAAAAAAAAAAAAAAAAAAAAAAAAAAAAAAAAAAHN0cDFAAAAACAgICAgI
        CAgICAgICAgICAgICAgICAgICAgICAgICAgICAgICAgICAgICAgICAgICAgICAgICAgICAgICAgICHN0cDJAAAAAAQAAAAEAAQABAAEAAAABAAEAAAABAAEAAAAAAAAA
        AQABAQEBAQEBAQEBAQEBAQEBAQEBAQEBAQEBAQEBAQEBAXN0cDNAAAAABAQEBAQEBAQEBAQEBAQEBAgEBAQEBAQEBAQEBAQEBAQEBAQEBAQEBAQEBAQEBAQEBAQEBAQE
        BAQEBAQEBAQEBHN0cDRAAAAAYGBgYGBgYGBgYGBgYGBgYGBgYGBgYGBgYGBgYGBgYGBgYGBgYGBgYGBgYGBgYGBgYGBgYGBgYGBgYGBgYGBgYHN0cDVAAAAAAAAAAAAA
        AAAAAAAAAAAAAAAAAAAAAAAAAAAAAAAAAAAAAAAAAAAAAAAAAAAAAAAAAAAAAAAAAAAAAAAAAAAAAHByb2cSAgAAcHJncCIAAAAQIGQEAAEAfwB/AEAAAQABAAAAAAAA
        AAAAfwAAAAAAAAAAcGdubTAAAABTZXEgMmsgS3JhZnR3ZXJrMyAoQStDLCBGK0EpAAAAAAQqvl//fwAA9LBiIAEAAABzdHAwQAAAAAAAAAAAAPsAAAD7AAAAAAAAAAAA
        AgAAAAAAAAAAAPsAAAAAAAAAAAAAAAAAAAAAAAAAAAAAAAAAAAAAAAAAAABzdHAxQAAAAAgICAgICAgICAgICAgICAgICAgICAgICAgICAgICAgICAgICAgICAgICAgI
        CAgICAgICAgICAgICAgICAgICAhzdHAyQAAAAAEAAAABAAEAAQABAAAAAQABAAAAAQABAAAAAAAAAAEAAQEBAQEBAQEBAQEBAQEBAQEBAQEBAQEBAQEBAQEBAQFzdHAz
        QAAAAAQEBAQEBAQEBAQEBAQEBAQIBAQEBAQEBAQEBAQEBAQEBAQEBAQEBAQEBAQEBAQEBAQEBAQEBAQEBAQEBAQEBARzdHA0QAAAAGBgYGBgYGBgYGBgYGBgYGBgYGBg
        YGBgYGBgYGBgYGBgYGBgYGBgYGBgYGBgYGBgYGBgYGBgYGBgYGBgYGBgYGBzdHA1QAAAAAAAAAAAAAAAAAAAAAAAAAAAAAAAAAAAAAAAAAAAAAAAAAAAAAAAAAAAAAAA
        AAAAAAAAAAAAAAAAAAAAAAAAAABwcm9nEgIAAHByZ3AiAAAAECBkBAABAH8AfwBAAAEAAQAAAAAAAAAAAH8AAAAAAAAAAHBnbm0wAAAAU2VxIDJrIEtyYWZ0d2VyazMg
        KEErQywgRitBKQAAAAAEKr5f/38AAPSwYiABAAAAc3RwMEAAAAAAAAAAAAD7AAAA+wAAAAAAAAAAAAIAAAAAAAAAAAD7AAAAAAAAAAAAAAAAAAAAAAAAAAAAAAAAAAAA
        AAAAAAAAc3RwMUAAAAAICAgICAgICAgICAgICAgICAgICAgICAgICAgICAgICAgICAgICAgICAgICAgICAgICAgICAgICAgICAgICAgIc3RwMkAAAAABAAAAAQABAAEA
        AQAAAAEAAQAAAAEAAQAAAAAAAAABAAEBAQEBAQEBAQEBAQEBAQEBAQEBAQEBAQEBAQEBAQEBc3RwM0AAAAAEBAQEBAQEBAQEBAQEBAQECAQEBAQEBAQEBAQEBAQEBAQE
        BAQEBAQEBAQEBAQEBAQEBAQEBAQEBAQEBAQEBAQEc3RwNEAAAABgYGBgYGBgYGBgYGBgYGBgYGBgYGBgYGBgYGBgYGBgYGBgYGBgYGBgYGBgYGBgYGBgYGBgYGBgYGBg
        YGBgYGBgc3RwNUAAAAAAAAAAAAAAAAAAAAAAAAAAAAAAAAAAAAAAAAAAAAAAAAAAAAAAAAAAAAAAAAAAAAAAAAAAAAAAAAAAAAAAAAAAcHJvZxICAABwcmdwIgAAABAg
        ZAQAAQB/AH8AQAABAAEAAAAAAAAAAAB/AAAAAAAAAABwZ25tMAAAAFNlcSAyayBLcmFmdHdlcmszIChBK0MsIEYrQSkAAAAABCq+X/9/AAD0sGIgAQAAAHN0cDBAAAAA
        AAAAAAAA+wAAAPsAAAAAAAAAAAACAAAAAAAAAAAA+wAAAAAAAAAAAAAAAAAAAAAAAAAAAAAAAAAAAAAAAAAAAHN0cDFAAAAACAgICAgICAgICAgICAgICAgICAgICAgI
        CAgICAgICAgICAgICAgICAgICAgICAgICAgICAgICAgICAgICAgICHN0cDJAAAAAAQAAAAEAAQABAAEAAAABAAEAAAABAAEAAAAAAAAAAQABAQEBAQEBAQEBAQEBAQEB
        AQEBAQEBAQEBAQEBAQEBAXN0cDNAAAAABAQEBAQEBAQEBAQEBAQEBAgEBAQEBAQEBAQEBAQEBAQEBAQEBAQEBAQEBAQEBAQEBAQEBAQEBAQEBAQEBAQEBHN0cDRAAAAA
        YGBgYGBgYGBgYGBgYGBgYGBgYGBgYGBgYGBgYGBgYGBgYGBgYGBgYGBgYGBgYGBgYGBgYGBgYGBgYGBgYGBgYHN0cDVAAAAAAAAAAAAAAAAAAAAAAAAAAAAAAAAAAAAA
        AAAAAAAAAAAAAAAAAAAAAAAAAAAAAAAAAAAAAAAAAAAAAAAAAAAAAHByb2cSAgAAcHJncCIAAAAQIGQEAAEAfwB/AEAAAQABAAAAAAAAAAAAfwAAAAAAAAAAcGdubTAA
        AABTZXEgMmsgS3JhZnR3ZXJrMyAoQStDLCBGK0EpAAAAAAQqvl//fwAA9LBiIAEAAABzdHAwQAAAAAAAAAAAAPsAAAD7AAAAAAAAAAAAAgAAAAAAAAAAAPsAAAAAAAAA
        AAAAAAAAAAAAAAAAAAAAAAAAAAAAAAAAAABzdHAxQAAAAAgICAgICAgICAgICAgICAgICAgICAgICAgICAgICAgICAgICAgICAgICAgICAgICAgICAgICAgICAgICAgI
        CAhzdHAyQAAAAAEAAAABAAEAAQABAAAAAQABAAAAAQABAAAAAAAAAAEAAQEBAQEBAQEBAQEBAQEBAQEBAQEBAQEBAQEBAQEBAQFzdHAzQAAAAAQEBAQEBAQEBAQEBAQE
        BAQIBAQEBAQEBAQEBAQEBAQEBAQEBAQEBAQEBAQEBAQEBAQEBAQEBAQEBAQEBAQEBARzdHA0QAAAAGBgYGBgYGBgYGBgYGBgYGBgYGBgYGBgYGBgYGBgYGBgYGBgYGBg
        YGBgYGBgYGBgYGBgYGBgYGBgYGBgYGBgYGBzdHA1QAAAAAAAAAAAAAAAAAAAAAAAAAAAAAAAAAAAAAAAAAAAAAAAAAAAAAAAAAAAAAAAAAAAAAAAAAAAAAAAAAAAAAAA
        AABwcm9nEgIAAHByZ3AiAAAAECBkBAABAH8AfwBAAAEAAQAAAAAAAAAAAH8AAAAAAAAAAHBnbm0wAAAAU2VxIDJrIEtyYWZ0d2VyazMgKEErQywgRitBKQAAAAAEKr5f
        /38AAPSwYiABAAAAc3RwMEAAAAAAAAAAAAD7AAAA+wAAAAAAAAAAAAIAAAAAAAAAAAD7AAAAAAAAAAAAAAAAAAAAAAAAAAAAAAAAAAAAAAAAAAAAc3RwMUAAAAAICAgI
        CAgICAgICAgICAgICAgICAgICAgICAgICAgICAgICAgICAgICAgICAgICAgICAgICAgICAgICAgICAgIc3RwMkAAAAABAAAAAQABAAEAAQAAAAEAAQAAAAEAAQAAAAAA
        AAABAAEBAQEBAQEBAQEBAQEBAQEBAQEBAQEBAQEBAQEBAQEBc3RwM0AAAAAEBAQEBAQEBAQEBAQEBAQECAQEBAQEBAQEBAQEBAQEBAQEBAQEBAQEBAQEBAQEBAQEBAQE
        BAQEBAQEBAQEBAQEc3RwNEAAAABgYGBgYGBgYGBgYGBgYGBgYGBgYGBgYGBgYGBgYGBgYGBgYGBgYGBgYGBgYGBgYGBgYGBgYGBgYGBgYGBgYGBgc3RwNUAAAAAAAAAA
        AAAAAAAAAAAAAAAAAAAAAAAAAAAAAAAAAAAAAAAAAAAAAAAAAAAAAAAAAAAAAAAAAAAAAAAAAAAAAAAAcHJvZxICAABwcmdwIgAAABAgZAQAAQB/AH8AQAABAAEAAAAA
        AAAAAAB/AAAAAAAAAABwZ25tMAAAAFNlcSAyayBLcmFmdHdlcmszIChBK0MsIEYrQSkAAAAABCq+X/9/AAD0sGIgAQAAAHN0cDBAAAAAAAAAAAAA+wAAAPsAAAAAAAAA
        AAACAAAAAAAAAAAA+wAAAAAAAAAAAAAAAAAAAAAAAAAAAAAAAAAAAAAAAAAAAHN0cDFAAAAACAgICAgICAgICAgICAgICAgICAgICAgICAgICAgICAgICAgICAgICAgI
        CAgICAgICAgICAgICAgICAgICAgICHN0cDJAAAAAAQAAAAEAAQABAAEAAAABAAEAAAABAAEAAAAAAAAAAQABAQEBAQEBAQEBAQEBAQEBAQEBAQEBAQEBAQEBAQEBAXN0
        cDNAAAAABAQEBAQEBAQEBAQEBAQEBAgEBAQEBAQEBAQEBAQEBAQEBAQEBAQEBAQEBAQEBAQEBAQEBAQEBAQEBAQEBAQEBHN0cDRAAAAAYGBgYGBgYGBgYGBgYGBgYGBg
        YGBgYGBgYGBgYGBgYGBgYGBgYGBgYGBgYGBgYGBgYGBgYGBgYGBgYGBgYGBgYHN0cDVAAAAAAAAAAAAAAAAAAAAAAAAAAAAAAAAAAAAAAAAAAAAAAAAAAAAAAAAAAAAA
        AAAAAAAAAAAAAAAAAAAAAAAAAAAAAHByb2cSAgAAcHJncCIAAAAQIGQEAAEAfwB/AEAAAQABAAAAAAAAAAAAfwAAAAAAAAAAcGdubTAAAABTZXEgMmsgS3JhZnR3ZXJr
        MyAoQStDLCBGK0EpAAAAAAQqvl//fwAA9LBiIAEAAABzdHAwQAAAAAAAAAAAAPsAAAD7AAAAAAAAAAAAAgAAAAAAAAAAAPsAAAAAAAAAAAAAAAAAAAAAAAAAAAAAAAAA
        AAAAAAAAAABzdHAxQAAAAAgICAgICAgICAgICAgICAgICAgICAgICAgICAgICAgICAgICAgICAgICAgICAgICAgICAgICAgICAgICAgICAhzdHAyQAAAAAEAAAABAAEA
        AQABAAAAAQABAAAAAQABAAAAAAAAAAEAAQEBAQEBAQEBAQEBAQEBAQEBAQEBAQEBAQEBAQEBAQFzdHAzQAAAAAQEBAQEBAQEBAQEBAQEBAQIBAQEBAQEBAQEBAQEBAQE
        BAQEBAQEBAQEBAQEBAQEBAQEBAQEBAQEBAQEBAQEBARzdHA0QAAAAGBgYGBgYGBgYGBgYGBgYGBgYGBgYGBgYGBgYGBgYGBgYGBgYGBgYGBgYGBgYGBgYGBgYGBgYGBg
        YGBgYGBgYGBzdHA1QAAAAAAAAAAAAAAAAAAAAAAAAAAAAAAAAAAAAAAAAAAAAAAAAAAAAAAAAAAAAAAAAAAAAAAAAAAAAAAAAAAAAAAAAABwcm9nEgIAAHByZ3AiAAAA
        ECBkBAABAH8AfwBAAAEAAQAAAAAAAAAAAH8AAAAAAAAAAHBnbm0wAAAAU2VxIDJrIEtyYWZ0d2VyazMgKEErQywgRitBKQAAAAAEKr5f/38AAPSwYiABAAAAc3RwMEAA
        AAAAAAAAAAD7AAAA+wAAAAAAAAAAAAIAAAAAAAAAAAD7AAAAAAAAAAAAAAAAAAAAAAAAAAAAAAAAAAAAAAAAAAAAc3RwMUAAAAAICAgICAgICAgICAgICAgICAgICAgI
        CAgICAgICAgICAgICAgICAgICAgICAgICAgICAgICAgICAgICAgICAgIc3RwMkAAAAABAAAAAQABAAEAAQAAAAEAAQAAAAEAAQAAAAAAAAABAAEBAQEBAQEBAQEBAQEB
        AQEBAQEBAQEBAQEBAQEBAQEBc3RwM0AAAAAEBAQEBAQEBAQEBAQEBAQECAQEBAQEBAQEBAQEBAQEBAQEBAQEBAQEBAQEBAQEBAQEBAQEBAQEBAQEBAQEBAQEc3RwNEAA
        AABgYGBgYGBgYGBgYGBgYGBgYGBgYGBgYGBgYGBgYGBgYGBgYGBgYGBgYGBgYGBgYGBgYGBgYGBgYGBgYGBgYGBgc3RwNUAAAAAAAAAAAAAAAAAAAAAAAAAAAAAAAAAA
        AAAAAAAAAAAAAAAAAAAAAAAAAAAAAAAAAAAAAAAAAAAAAAAAAAAAAAAAcHJvZxICAABwcmdwIgAAABAgZAQAAQB/AH8AQAABAAEAAAAAAAAAAAB/AAAAAAAAAABwZ25t
        MAAAAFNlcSAyayBLcmFmdHdlcmszIChBK0MsIEYrQSkAAAAABCq+X/9/AAD0sGIgAQAAAHN0cDBAAAAAAAAAAAAA+wAAAPsAAAAAAAAAAAACAAAAAAAAAAAA+wAAAAAA
        AAAAAAAAAAAAAAAAAAAAAAAAAAAAAAAAAAAAAHN0cDFAAAAACAgICAgICAgICAgICAgICAgICAgICAgICAgICAgICAgICAgICAgICAgICAgICAgICAgICAgICAgICAgI
        CAgICHN0cDJAAAAAAQAAAAEAAQABAAEAAAABAAEAAAABAAEAAAAAAAAAAQABAQEBAQEBAQEBAQEBAQEBAQEBAQEBAQEBAQEBAQEBAXN0cDNAAAAABAQEBAQEBAQEBAQE
        BAQEBAgEBAQEBAQEBAQEBAQEBAQEBAQEBAQEBAQEBAQEBAQEBAQEBAQEBAQEBAQEBAQEBHN0cDRAAAAAYGBgYGBgYGBgYGBgYGBgYGBgYGBgYGBgYGBgYGBgYGBgYGBg
        YGBgYGBgYGBgYGBgYGBgYGBgYGBgYGBgYGBgYHN0cDVAAAAAAAAAAAAAAAAAAAAAAAAAAAAAAAAAAAAAAAAAAAAAAAAAAAAAAAAAAAAAAAAAAAAAAAAAAAAAAAAAAAAA
        AAAAAHByb2cSAgAAcHJncCIAAAAQIGQEAAEAfwB/AEAAAQABAAAAAAAAAAAAfwAAAAAAAAAAcGdubTAAAABTZXEgMmsgS3JhZnR3ZXJrMyAoQStDLCBGK0EpAAAAAAQq
        vl//fwAA9LBiIAEAAABzdHAwQAAAAAAAAAAAAPsAAAD7AAAAAAAAAAAAAgAAAAAAAAAAAPsAAAAAAAAAAAAAAAAAAAAAAAAAAAAAAAAAAAAAAAAAAABzdHAxQAAAAAgI
        CAgICAgICAgICAgICAgICAgICAgICAgICAgICAgICAgICAgICAgICAgICAgICAgICAgICAgICAgICAgICAhzdHAyQAAAAAEAAAABAAEAAQABAAAAAQABAAAAAQABAAAA
        AAAAAAEAAQEBAQEBAQEBAQEBAQEBAQEBAQEBAQEBAQEBAQEBAQFzdHAzQAAAAAQEBAQEBAQEBAQEBAQEBAQIBAQEBAQEBAQEBAQEBAQEBAQEBAQEBAQEBAQEBAQEBAQE
        BAQEBAQEBAQEBAQEBARzdHA0QAAAAGBgYGBgYGBgYGBgYGBgYGBgYGBgYGBgYGBgYGBgYGBgYGBgYGBgYGBgYGBgYGBgYGBgYGBgYGBgYGBgYGBgYGBzdHA1QAAAAAAA
        AAAAAAAAAAAAAAAAAAAAAAAAAAAAAAAAAAAAAAAAAAAAAAAAAAAAAAAAAAAAAAAAAAAAAAAAAAAAAAAAAABwcm9nEgIAAHByZ3AiAAAAECBkBAABAH8AfwBAAAEAAQAA
        AAAAAAAAAH8AAAAAAAAAAHBnbm0wAAAAU2VxIDJrIEtyYWZ0d2VyazMgKEErQywgRitBKQAAAAAEKr5f/38AAPSwYiABAAAAc3RwMEAAAAAAAAAAAAD7AAAA+wAAAAAA
        AAAAAAIAAAAAAAAAAAD7AAAAAAAAAAAAAAAAAAAAAAAAAAAAAAAAAAAAAAAAAAAAc3RwMUAAAAAICAgICAgICAgICAgICAgICAgICAgICAgICAgICAgICAgICAgICAgI
        CAgICAgICAgICAgICAgICAgICAgICAgIc3RwMkAAAAABAAAAAQABAAEAAQAAAAEAAQAAAAEAAQAAAAAAAAABAAEBAQEBAQEBAQEBAQEBAQEBAQEBAQEBAQEBAQEBAQEB
        c3RwM0AAAAAEBAQEBAQEBAQEBAQEBAQECAQEBAQEBAQEBAQEBAQEBAQEBAQEBAQEBAQEBAQEBAQEBAQEBAQEBAQEBAQEBAQEc3RwNEAAAABgYGBgYGBgYGBgYGBgYGBg
        YGBgYGBgYGBgYGBgYGBgYGBgYGBgYGBgYGBgYGBgYGBgYGBgYGBgYGBgYGBgYGBgc3RwNUAAAAAAAAAAAAAAAAAAAAAAAAAAAAAAAAAAAAAAAAAAAAAAAAAAAAAAAAAA
        AAAAAAAAAAAAAAAAAAAAAAAAAAAAAAAAcHJvZxICAABwcmdwIgAAABAgZAQAAQB/AH8AQAABAAEAAAAAAAAAAAB/AAAAAAAAAABwZ25tMAAAAFNlcSAyayBLcmFmdHdl
        cmszIChBK0MsIEYrQSkAAAAABCq+X/9/AAD0sGIgAQAAAHN0cDBAAAAAAAAAAAAA+wAAAPsAAAAAAAAAAAACAAAAAAAAAAAA+wAAAAAAAAAAAAAAAAAAAAAAAAAAAAAA
        AAAAAAAAAAAAAHN0cDFAAAAACAgICAgICAgICAgICAgICAgICAgICAgICAgICAgICAgICAgICAgICAgICAgICAgICAgICAgICAgICAgICAgICHN0cDJAAAAAAQAAAAEA
        AQABAAEAAAABAAEAAAABAAEAAAAAAAAAAQABAQEBAQEBAQEBAQEBAQEBAQEBAQEBAQEBAQEBAQEBAXN0cDNAAAAABAQEBAQEBAQEBAQEBAQEBAgEBAQEBAQEBAQEBAQE
        BAQEBAQEBAQEBAQEBAQEBAQEBAQEBAQEBAQEBAQEBAQEBHN0cDRAAAAAYGBgYGBgYGBgYGBgYGBgYGBgYGBgYGBgYGBgYGBgYGBgYGBgYGBgYGBgYGBgYGBgYGBgYGBg
        YGBgYGBgYGBgYHN0cDVAAAAAAAAAAAAAAAAAAAAAAAAAAAAAAAAAAAAAAAAAAAAAAAAAAAAAAAAAAAAAAAAAAAAAAAAAAAAAAAAAAAAAAAAAAHByb2cSAgAAcHJncCIA
        AAAQIGQEAAEAfwB/AEAAAQABAAAAAAAAAAAAfwAAAAAAAAAAcGdubTAAAABTZXEgMmsgS3JhZnR3ZXJrMyAoQStDLCBGK0EpAAAAAAQqvl//fwAA9LBiIAEAAABzdHAw
        QAAAAAAAAAAAAPsAAAD7AAAAAAAAAAAAAgAAAAAAAAAAAPsAAAAAAAAAAAAAAAAAAAAAAAAAAAAAAAAAAAAAAAAAAABzdHAxQAAAAAgICAgICAgICAgICAgICAgICAgI
        CAgICAgICAgICAgICAgICAgICAgICAgICAgICAgICAgICAgICAgICAgICAhzdHAyQAAAAAEAAAABAAEAAQABAAAAAQABAAAAAQABAAAAAAAAAAEAAQEBAQEBAQEBAQEB
        AQEBAQEBAQEBAQEBAQEBAQEBAQFzdHAzQAAAAAQEBAQEBAQEBAQEBAQEBAQIBAQEBAQEBAQEBAQEBAQEBAQEBAQEBAQEBAQEBAQEBAQEBAQEBAQEBAQEBAQEBARzdHA0
        QAAAAGBgYGBgYGBgYGBgYGBgYGBgYGBgYGBgYGBgYGBgYGBgYGBgYGBgYGBgYGBgYGBgYGBgYGBgYGBgYGBgYGBgYGBzdHA1QAAAAAAAAAAAAAAAAAAAAAAAAAAAAAAA
        AAAAAAAAAAAAAAAAAAAAAAAAAAAAAAAAAAAAAAAAAAAAAAAAAAAAAAAAAABwcm9nEgIAAHByZ3AiAAAAECBkBAABAH8AfwBAAAEAAQAAAAAAAAAAAH8AAAAAAAAAAHBn
        bm0wAAAAU2VxIDJrIEtyYWZ0d2VyazMgKEErQywgRitBKQAAAAAEKr5f/38AAPSwYiABAAAAc3RwMEAAAAAAAAAAAAD7AAAA+wAAAAAAAAAAAAIAAAAAAAAAAAD7AAAA
        AAAAAAAAAAAAAAAAAAAAAAAAAAAAAAAAAAAAAAAAc3RwMUAAAAAICAgICAgICAgICAgICAgICAgICAgICAgICAgICAgICAgICAgICAgICAgICAgICAgICAgICAgICAgI
        CAgICAgIc3RwMkAAAAABAAAAAQABAAEAAQAAAAEAAQAAAAEAAQAAAAAAAAABAAEBAQEBAQEBAQEBAQEBAQEBAQEBAQEBAQEBAQEBAQEBc3RwM0AAAAAEBAQEBAQEBAQE
        BAQEBAQECAQEBAQEBAQEBAQEBAQEBAQEBAQEBAQEBAQEBAQEBAQEBAQEBAQEBAQEBAQEBAQEc3RwNEAAAABgYGBgYGBgYGBgYGBgYGBgYGBgYGBgYGBgYGBgYGBgYGBg
        YGBgYGBgYGBgYGBgYGBgYGBgYGBgYGBgYGBgYGBgc3RwNUAAAAAAAAAAAAAAAAAAAAAAAAAAAAAAAAAAAAAAAAAAAAAAAAAAAAAAAAAAAAAAAAAAAAAAAAAAAAAAAAAA
        AAAAAAAAcHJvZxICAABwcmdwIgAAABAgZAQAAQB/AH8AQAABAAEAAAAAAAAAAAB/AAAAAAAAAABwZ25tMAAAAFNlcSAyayBLcmFmdHdlcmszIChBK0MsIEYrQSkAAAAA
        BCq+X/9/AAD0sGIgAQAAAHN0cDBAAAAAAAAAAAAA+wAAAPsAAAAAAAAAAAACAAAAAAAAAAAA+wAAAAAAAAAAAAAAAAAAAAAAAAAAAAAAAAAAAAAAAAAAAHN0cDFAAAAA
        CAgICAgICAgICAgICAgICAgICAgICAgICAgICAgICAgICAgICAgICAgICAgICAgICAgICAgICAgICAgICAgICHN0cDJAAAAAAQAAAAEAAQABAAEAAAABAAEAAAABAAEA
        AAAAAAAAAQABAQEBAQEBAQEBAQEBAQEBAQEBAQEBAQEBAQEBAQEBAXN0cDNAAAAABAQEBAQEBAQEBAQEBAQEBAgEBAQEBAQEBAQEBAQEBAQEBAQEBAQEBAQEBAQEBAQE
        BAQEBAQEBAQEBAQEBAQEBHN0cDRAAAAAYGBgYGBgYGBgYGBgYGBgYGBgYGBgYGBgYGBgYGBgYGBgYGBgYGBgYGBgYGBgYGBgYGBgYGBgYGBgYGBgYGBgYHN0cDVAAAAA
        AAAAAAAAAAAAAAAAAAAAAAAAAAAAAAAAAAAAAAAAAAAAAAAAAAAAAAAAAAAAAAAAAAAAAAAAAAAAAAAAAAAAAHByb2cSAgAAcHJncCIAAAAQIGQEAAEAfwB/AEAAAQAB
        AAAAAAAAAAAAfwAAAAAAAAAAcGdubTAAAABTZXEgMmsgS3JhZnR3ZXJrMyAoQStDLCBGK0EpAAAAAAQqvl//fwAA9LBiIAEAAABzdHAwQAAAAAAAAAAAAPsAAAD7AAAA
        AAAAAAAAAgAAAAAAAAAAAPsAAAAAAAAAAAAAAAAAAAAAAAAAAAAAAAAAAAAAAAAAAABzdHAxQAAAAAgICAgICAgICAgICAgICAgICAgICAgICAgICAgICAgICAgICAgI
        CAgICAgICAgICAgICAgICAgICAgICAgICAhzdHAyQAAAAAEAAAABAAEAAQABAAAAAQABAAAAAQABAAAAAAAAAAEAAQEBAQEBAQEBAQEBAQEBAQEBAQEBAQEBAQEBAQEB
        AQFzdHAzQAAAAAQEBAQEBAQEBAQEBAQEBAQIBAQEBAQEBAQEBAQEBAQEBAQEBAQEBAQEBAQEBAQEBAQEBAQEBAQEBAQEBAQEBARzdHA0QAAAAGBgYGBgYGBgYGBgYGBg
        YGBgYGBgYGBgYGBgYGBgYGBgYGBgYGBgYGBgYGBgYGBgYGBgYGBgYGBgYGBgYGBgYGBzdHA1QAAAAAAAAAAAAAAAAAAAAAAAAAAAAAAAAAAAAAAAAAAAAAAAAAAAAAAA
        AAAAAAAAAAAAAAAAAAAAAAAAAAAAAAAAAABwcm9nEgIAAHByZ3AiAAAAECBkBAABAH8AfwBAAAEAAQAAAAAAAAAAAH8AAAAAAAAAAHBnbm0wAAAAU2VxIDJrIEtyYWZ0
        d2VyazMgKEErQywgRitBKQAAAAAEKr5f/38AAPSwYiABAAAAc3RwMEAAAAAAAAAAAAD7AAAA+wAAAAAAAAAAAAIAAAAAAAAAAAD7AAAAAAAAAAAAAAAAAAAAAAAAAAAA
        AAAAAAAAAAAAAAAAc3RwMUAAAAAICAgICAgICAgICAgICAgICAgICAgICAgICAgICAgICAgICAgICAgICAgICAgICAgICAgICAgICAgICAgICAgIc3RwMkAAAAABAAAA
        AQABAAEAAQAAAAEAAQAAAAEAAQAAAAAAAAABAAEBAQEBAQEBAQEBAQEBAQEBAQEBAQEBAQEBAQEBAQEBc3RwM0AAAAAEBAQEBAQEBAQEBAQEBAQECAQEBAQEBAQEBAQE
        BAQEBAQEBAQEBAQEBAQEBAQEBAQEBAQEBAQEBAQEBAQEBAQEc3RwNEAAAABgYGBgYGBgYGBgYGBgYGBgYGBgYGBgYGBgYGBgYGBgYGBgYGBgYGBgYGBgYGBgYGBgYGBg
        YGBgYGBgYGBgYGBgc3RwNUAAAAAAAAAAAAAAAAAAAAAAAAAAAAAAAAAAAAAAAAAAAAAAAAAAAAAAAAAAAAAAAAAAAAAAAAAAAAAAAAAAAAAAAAAAcHJvZxICAABwcmdw
        IgAAABAgZAQAAQB/AH8AQAABAAEAAAAAAAAAAAB/AAAAAAAAAABwZ25tMAAAAFNlcSAyayBLcmFmdHdlcmszIChBK0MsIEYrQSkAAAAABCq+X/9/AAD0sGIgAQAAAHN0
        cDBAAAAAAAAAAAAA+wAAAPsAAAAAAAAAAAACAAAAAAAAAAAA+wAAAAAAAAAAAAAAAAAAAAAAAAAAAAAAAAAAAAAAAAAAAHN0cDFAAAAACAgICAgICAgICAgICAgICAgI
        CAgICAgICAgICAgICAgICAgICAgICAgICAgICAgICAgICAgICAgICAgICAgICHN0cDJAAAAAAQAAAAEAAQABAAEAAAABAAEAAAABAAEAAAAAAAAAAQABAQEBAQEBAQEB
        AQEBAQEBAQEBAQEBAQEBAQEBAQEBAXN0cDNAAAAABAQEBAQEBAQEBAQEBAQEBAgEBAQEBAQEBAQEBAQEBAQEBAQEBAQEBAQEBAQEBAQEBAQEBAQEBAQEBAQEBAQEBHN0
        cDRAAAAAYGBgYGBgYGBgYGBgYGBgYGBgYGBgYGBgYGBgYGBgYGBgYGBgYGBgYGBgYGBgYGBgYGBgYGBgYGBgYGBgYGBgYHN0cDVAAAAAAAAAAAAAAAAAAAAAAAAAAAAA
        AAAAAAAAAAAAAAAAAAAAAAAAAAAAAAAAAAAAAAAAAAAAAAAAAAAAAAAAAAAAAHByb2cSAgAAcHJncCIAAAAQIGQEAAEAfwB/AEAAAQABAAAAAAAAAAAAfwAAAAAAAAAA
        cGdubTAAAABTZXEgMmsgS3JhZnR3ZXJrMyAoQStDLCBGK0EpAAAAAAQqvl//fwAA9LBiIAEAAABzdHAwQAAAAAAAAAAAAPsAAAD7AAAAAAAAAAAAAgAAAAAAAAAAAPsA
        AAAAAAAAAAAAAAAAAAAAAAAAAAAAAAAAAAAAAAAAAABzdHAxQAAAAAgICAgICAgICAgICAgICAgICAgICAgICAgICAgICAgICAgICAgICAgICAgICAgICAgICAgICAgI
        CAgICAgICAhzdHAyQAAAAAEAAAABAAEAAQABAAAAAQABAAAAAQABAAAAAAAAAAEAAQEBAQEBAQEBAQEBAQEBAQEBAQEBAQEBAQEBAQEBAQFzdHAzQAAAAAQEBAQEBAQE
        BAQEBAQEBAQIBAQEBAQEBAQEBAQEBAQEBAQEBAQEBAQEBAQEBAQEBAQEBAQEBAQEBAQEBAQEBARzdHA0QAAAAGBgYGBgYGBgYGBgYGBgYGBgYGBgYGBgYGBgYGBgYGBg
        YGBgYGBgYGBgYGBgYGBgYGBgYGBgYGBgYGBgYGBgYGBzdHA1QAAAAAAAAAAAAAAAAAAAAAAAAAAAAAAAAAAAAAAAAAAAAAAAAAAAAAAAAAAAAAAAAAAAAAAAAAAAAAAA
        AAAAAAAAAABwcm9nEgIAAHByZ3AiAAAAECBkBAABAH8AfwBAAAEAAQAAAAAAAAAAAH8AAAAAAAAAAHBnbm0wAAAAU2VxIDJrIEtyYWZ0d2VyazMgKEErQywgRitBKQAA
        AAAEKr5f/38AAPSwYiABAAAAc3RwMEAAAAAAAAAAAAD7AAAA+wAAAAAAAAAAAAIAAAAAAAAAAAD7AAAAAAAAAAAAAAAAAAAAAAAAAAAAAAAAAAAAAAAAAAAAc3RwMUAA
        AAAICAgICAgICAgICAgICAgICAgICAgICAgICAgICAgICAgICAgICAgICAgICAgICAgICAgICAgICAgICAgICAgIc3RwMkAAAAABAAAAAQABAAEAAQAAAAEAAQAAAAEA
        AQAAAAAAAAABAAEBAQEBAQEBAQEBAQEBAQEBAQEBAQEBAQEBAQEBAQEBc3RwM0AAAAAEBAQEBAQEBAQEBAQEBAQECAQEBAQEBAQEBAQEBAQEBAQEBAQEBAQEBAQEBAQE
        BAQEBAQEBAQEBAQEBAQEBAQEc3RwNEAAAABgYGBgYGBgYGBgYGBgYGBgYGBgYGBgYGBgYGBgYGBgYGBgYGBgYGBgYGBgYGBgYGBgYGBgYGBgYGBgYGBgYGBgc3RwNUAA
        AAAAAAAAAAAAAAAAAAAAAAAAAAAAAAAAAAAAAAAAAAAAAAAAAAAAAAAAAAAAAAAAAAAAAAAAAAAAAAAAAAAAAAAAcHJvZxICAABwcmdwIgAAABAgZAQAAQB/AH8AQAAB
        AAEAAAAAAAAAAAB/AAAAAAAAAABwZ25tMAAAAFNlcSAyayBLcmFmdHdlcmszIChBK0MsIEYrQSkAAAAABCq+X/9/AAD0sGIgAQAAAHN0cDBAAAAAAAAAAAAA+wAAAPsA
        AAAAAAAAAAACAAAAAAAAAAAA+wAAAAAAAAAAAAAAAAAAAAAAAAAAAAAAAAAAAAAAAAAAAHN0cDFAAAAACAgICAgICAgICAgICAgICAgICAgICAgICAgICAgICAgICAgI
        CAgICAgICAgICAgICAgICAgICAgICAgICAgICHN0cDJAAAAAAQAAAAEAAQABAAEAAAABAAEAAAABAAEAAAAAAAAAAQABAQEBAQEBAQEBAQEBAQEBAQEBAQEBAQEBAQEB
        AQEBAXN0cDNAAAAABAQEBAQEBAQEBAQEBAQEBAgEBAQEBAQEBAQEBAQEBAQEBAQEBAQEBAQEBAQEBAQEBAQEBAQEBAQEBAQEBAQEBHN0cDRAAAAAYGBgYGBgYGBgYGBg
        YGBgYGBgYGBgYGBgYGBgYGBgYGBgYGBgYGBgYGBgYGBgYGBgYGBgYGBgYGBgYGBgYGBgYHN0cDVAAAAAAAAAAAAAAAAAAAAAAAAAAAAAAAAAAAAAAAAAAAAAAAAAAAAA
        AAAAAAAAAAAAAAAAAAAAAAAAAAAAAAAAAAAAAHByb2cSAgAAcHJncCIAAAAQIGQEAAEAfwB/AEAAAQABAAAAAAAAAAAAfwAAAAAAAAAAcGdubTAAAABTZXEgMmsgS3Jh
        ZnR3ZXJrMyAoQStDLCBGK0EpAAAAAAQqvl//fwAA9LBiIAEAAABzdHAwQAAAAAAAAAAAAPsAAAD7AAAAAAAAAAAAAgAAAAAAAAAAAPsAAAAAAAAAAAAAAAAAAAAAAAAA
        AAAAAAAAAAAAAAAAAABzdHAxQAAAAAgICAgICAgICAgICAgICAgICAgICAgICAgICAgICAgICAgICAgICAgICAgICAgICAgICAgICAgICAgICAgICAhzdHAyQAAAAAEA
        AAABAAEAAQABAAAAAQABAAAAAQABAAAAAAAAAAEAAQEBAQEBAQEBAQEBAQEBAQEBAQEBAQEBAQEBAQEBAQFzdHAzQAAAAAQEBAQEBAQEBAQEBAQEBAQIBAQEBAQEBAQE
        BAQEBAQEBAQEBAQEBAQEBAQEBAQEBAQEBAQEBAQEBAQEBAQEBARzdHA0QAAAAGBgYGBgYGBgYGBgYGBgYGBgYGBgYGBgYGBgYGBgYGBgYGBgYGBgYGBgYGBgYGBgYGBg
        YGBgYGBgYGBgYGBgYGBzdHA1QAAAAAAAAAAAAAAAAAAAAAAAAAAAAAAAAAAAAAAAAAAAAAAAAAAAAAAAAAAAAAAAAAAAAAAAAAAAAAAAAAAAAAAAAABwcm9nEgIAAHBy
        Z3AiAAAAECBkBAABAH8AfwBAAAEAAQAAAAAAAAAAAH8AAAAAAAAAAHBnbm0wAAAAU2VxIDJrIEtyYWZ0d2VyazMgKEErQywgRitBKQAAAAAEKr5f/38AAPSwYiABAAAA
        c3RwMEAAAAAAAAAAAAD7AAAA+wAAAAAAAAAAAAIAAAAAAAAAAAD7AAAAAAAAAAAAAAAAAAAAAAAAAAAAAAAAAAAAAAAAAAAAc3RwMUAAAAAICAgICAgICAgICAgICAgI
        CAgICAgICAgICAgICAgICAgICAgICAgICAgICAgICAgICAgICAgICAgICAgICAgIc3RwMkAAAAABAAAAAQABAAEAAQAAAAEAAQAAAAEAAQAAAAAAAAABAAEBAQEBAQEB
        AQEBAQEBAQEBAQEBAQEBAQEBAQEBAQEBc3RwM0AAAAAEBAQEBAQEBAQEBAQEBAQECAQEBAQEBAQEBAQEBAQEBAQEBAQEBAQEBAQEBAQEBAQEBAQEBAQEBAQEBAQEBAQE
        c3RwNEAAAABgYGBgYGBgYGBgYGBgYGBgYGBgYGBgYGBgYGBgYGBgYGBgYGBgYGBgYGBgYGBgYGBgYGBgYGBgYGBgYGBgYGBgc3RwNUAAAAAAAAAAAAAAAAAAAAAAAAAA
        AAAAAAAAAAAAAAAAAAAAAAAAAAAAAAAAAAAAAAAAAAAAAAAAAAAAAAAAAAAAAAAAcHJvZxICAABwcmdwIgAAABAgZAQAAQB/AH8AQAABAAEAAAAAAAAAAAB/AAAAAAAA
        AABwZ25tMAAAAFNlcSAyayBLcmFmdHdlcmszIChBK0MsIEYrQSkAAAAABCq+X/9/AAD0sGIgAQAAAHN0cDBAAAAAAAAAAAAA+wAAAPsAAAAAAAAAAAACAAAAAAAAAAAA
        +wAAAAAAAAAAAAAAAAAAAAAAAAAAAAAAAAAAAAAAAAAAAHN0cDFAAAAACAgICAgICAgICAgICAgICAgICAgICAgICAgICAgICAgICAgICAgICAgICAgICAgICAgICAgI
        CAgICAgICAgICHN0cDJAAAAAAQAAAAEAAQABAAEAAAABAAEAAAABAAEAAAAAAAAAAQABAQEBAQEBAQEBAQEBAQEBAQEBAQEBAQEBAQEBAQEBAXN0cDNAAAAABAQEBAQE
        BAQEBAQEBAQEBAgEBAQEBAQEBAQEBAQEBAQEBAQEBAQEBAQEBAQEBAQEBAQEBAQEBAQEBAQEBAQEBHN0cDRAAAAAYGBgYGBgYGBgYGBgYGBgYGBgYGBgYGBgYGBgYGBg
        YGBgYGBgYGBgYGBgYGBgYGBgYGBgYGBgYGBgYGBgYGBgYHN0cDVAAAAAAAAAAAAAAAAAAAAAAAAAAAAAAAAAAAAAAAAAAAAAAAAAAAAAAAAAAAAAAAAAAAAAAAAAAAAA
        AAAAAAAAAAAAAHByb2cSAgAAcHJncCIAAAAQIGQEAAEAfwB/AEAAAQABAAAAAAAAAAAAfwAAAAAAAAAAcGdubTAAAABTZXEgMmsgS3JhZnR3ZXJrMyAoQStDLCBGK0Ep
        AAAAAAQqvl//fwAA9LBiIAEAAABzdHAwQAAAAAAAAAAAAPsAAAD7AAAAAAAAAAAAAgAAAAAAAAAAAPsAAAAAAAAAAAAAAAAAAAAAAAAAAAAAAAAAAAAAAAAAAABzdHAx
        QAAAAAgICAgICAgICAgICAgICAgICAgICAgICAgICAgICAgICAgICAgICAgICAgICAgICAgICAgICAgICAgICAgICAhzdHAyQAAAAAEAAAABAAEAAQABAAAAAQABAAAA
        AQABAAAAAAAAAAEAAQEBAQEBAQEBAQEBAQEBAQEBAQEBAQEBAQEBAQEBAQFzdHAzQAAAAAQEBAQEBAQEBAQEBAQEBAQIBAQEBAQEBAQEBAQEBAQEBAQEBAQEBAQEBAQE
        BAQEBAQEBAQEBAQEBAQEBAQEBARzdHA0QAAAAGBgYGBgYGBgYGBgYGBgYGBgYGBgYGBgYGBgYGBgYGBgYGBgYGBgYGBgYGBgYGBgYGBgYGBgYGBgYGBgYGBgYGBzdHA1
        QAAAAAAAAAAAAAAAAAAAAAAAAAAAAAAAAAAAAAAAAAAAAAAAAAAAAAAAAAAAAAAAAAAAAAAAAAAAAAAAAAAAAAAAAABwcm9nEgIAAHByZ3AiAAAAECBkBAABAH8AfwBA
        AAEAAQAAAAAAAAAAAH8AAAAAAAAAAHBnbm0wAAAAU2VxIDJrIEtyYWZ0d2VyazMgKEErQywgRitBKQAAAAAEKr5f/38AAPSwYiABAAAAc3RwMEAAAAAAAAAAAAD7AAAA
        +wAAAAAAAAAAAAIAAAAAAAAAAAD7AAAAAAAAAAAAAAAAAAAAAAAAAAAAAAAAAAAAAAAAAAAAc3RwMUAAAAAICAgICAgICAgICAgICAgICAgICAgICAgICAgICAgICAgI
        CAgICAgICAgICAgICAgICAgICAgICAgICAgICAgIc3RwMkAAAAABAAAAAQABAAEAAQAAAAEAAQAAAAEAAQAAAAAAAAABAAEBAQEBAQEBAQEBAQEBAQEBAQEBAQEBAQEB
        AQEBAQEBc3RwM0AAAAAEBAQEBAQEBAQEBAQEBAQECAQEBAQEBAQEBAQEBAQEBAQEBAQEBAQEBAQEBAQEBAQEBAQEBAQEBAQEBAQEBAQEc3RwNEAAAABgYGBgYGBgYGBg
        YGBgYGBgYGBgYGBgYGBgYGBgYGBgYGBgYGBgYGBgYGBgYGBgYGBgYGBgYGBgYGBgYGBgYGBgc3RwNUAAAAAAAAAAAAAAAAAAAAAAAAAAAAAAAAAAAAAAAAAAAAAAAAAA
        AAAAAAAAAAAAAAAAAAAAAAAAAAAAAAAAAAAAAAAAcHJvZxICAABwcmdwIgAAABAgZAQAAQB/AH8AQAABAAEAAAAAAAAAAAB/AAAAAAAAAABwZ25tMAAAAFNlcSAyayBL
        cmFmdHdlcmszIChBK0MsIEYrQSkAAAAABCq+X/9/AAD0sGIgAQAAAHN0cDBAAAAAAAAAAAAA+wAAAPsAAAAAAAAAAAACAAAAAAAAAAAA+wAAAAAAAAAAAAAAAAAAAAAA
        AAAAAAAAAAAAAAAAAAAAAHN0cDFAAAAACAgICAgICAgICAgICAgICAgICAgICAgICAgICAgICAgICAgICAgICAgICAgICAgICAgICAgICAgICAgICAgICHN0cDJAAAAA
        AQAAAAEAAQABAAEAAAABAAEAAAABAAEAAAAAAAAAAQABAQEBAQEBAQEBAQEBAQEBAQEBAQEBAQEBAQEBAQEBAXN0cDNAAAAABAQEBAQEBAQEBAQEBAQEBAgEBAQEBAQE
        BAQEBAQEBAQEBAQEBAQEBAQEBAQEBAQEBAQEBAQEBAQEBAQEBAQEBHN0cDRAAAAAYGBgYGBgYGBgYGBgYGBgYGBgYGBgYGBgYGBgYGBgYGBgYGBgYGBgYGBgYGBgYGBg
        YGBgYGBgYGBgYGBgYGBgYHN0cDVAAAAAAAAAAAAAAAAAAAAAAAAAAAAAAAAAAAAAAAAAAAAAAAAAAAAAAAAAAAAAAAAAAAAAAAAAAAAAAAAAAAAAAAAAAHByb2cSAgAA
        cHJncCIAAAAQIGQEAAEAfwB/AEAAAQABAAAAAAAAAAAAfwAAAAAAAAAAcGdubTAAAABTZXEgMmsgS3JhZnR3ZXJrMyAoQStDLCBGK0EpAAAAAAQqvl//fwAA9LBiIAEA
        AABzdHAwQAAAAAAAAAAAAPsAAAD7AAAAAAAAAAAAAgAAAAAAAAAAAPsAAAAAAAAAAAAAAAAAAAAAAAAAAAAAAAAAAAAAAAAAAABzdHAxQAAAAAgICAgICAgICAgICAgI
        CAgICAgICAgICAgICAgICAgICAgICAgICAgICAgICAgICAgICAgICAgICAgICAgICAhzdHAyQAAAAAEAAAABAAEAAQABAAAAAQABAAAAAQABAAAAAAAAAAEAAQEBAQEB
        AQEBAQEBAQEBAQEBAQEBAQEBAQEBAQEBAQFzdHAzQAAAAAQEBAQEBAQEBAQEBAQEBAQIBAQEBAQEBAQEBAQEBAQEBAQEBAQEBAQEBAQEBAQEBAQEBAQEBAQEBAQEBAQE
        BARzdHA0QAAAAGBgYGBgYGBgYGBgYGBgYGBgYGBgYGBgYGBgYGBgYGBgYGBgYGBgYGBgYGBgYGBgYGBgYGBgYGBgYGBgYGBgYGBzdHA1QAAAAAAAAAAAAAAAAAAAAAAA
        AAAAAAAAAAAAAAAAAAAAAAAAAAAAAAAAAAAAAAAAAAAAAAAAAAAAAAAAAAAAAAAAAABwcm9nEgIAAHByZ3AiAAAAECBkBAABAH8AfwBAAAEAAQAAAAAAAAAAAH8AAAAA
        AAAAAHBnbm0wAAAAU2VxIDJrIEtyYWZ0d2VyazMgKEErQywgRitBKQAAAAAEKr5f/38AAPSwYiABAAAAc3RwMEAAAAAAAAAAAAD7AAAA+wAAAAAAAAAAAAIAAAAAAAAA
        AAD7AAAAAAAAAAAAAAAAAAAAAAAAAAAAAAAAAAAAAAAAAAAAc3RwMUAAAAAICAgICAgICAgICAgICAgICAgICAgICAgICAgICAgICAgICAgICAgICAgICAgICAgICAgI
        CAgICAgICAgICAgIc3RwMkAAAAABAAAAAQABAAEAAQAAAAEAAQAAAAEAAQAAAAAAAAABAAEBAQEBAQEBAQEBAQEBAQEBAQEBAQEBAQEBAQEBAQEBc3RwM0AAAAAEBAQE
        BAQEBAQEBAQEBAQECAQEBAQEBAQEBAQEBAQEBAQEBAQEBAQEBAQEBAQEBAQEBAQEBAQEBAQEBAQEBAQEc3RwNEAAAABgYGBgYGBgYGBgYGBgYGBgYGBgYGBgYGBgYGBg
        YGBgYGBgYGBgYGBgYGBgYGBgYGBgYGBgYGBgYGBgYGBgYGBgc3RwNUAAAAAAAAAAAAAAAAAAAAAAAAAAAAAAAAAAAAAAAAAAAAAAAAAAAAAAAAAAAAAAAAAAAAAAAAAA
        AAAAAAAAAAAAAAAAcHJvZxICAABwcmdwIgAAABAgZAQAAQB/AH8AQAABAAEAAAAAAAAAAAB/AAAAAAAAAABwZ25tMAAAAFNlcSAyayBLcmFmdHdlcmszIChBK0MsIEYr
        QSkAAAAABCq+X/9/AAD0sGIgAQAAAHN0cDBAAAAAAAAAAAAA+wAAAPsAAAAAAAAAAAACAAAAAAAAAAAA+wAAAAAAAAAAAAAAAAAAAAAAAAAAAAAAAAAAAAAAAAAAAHN0
        cDFAAAAACAgICAgICAgICAgICAgICAgICAgICAgICAgICAgICAgICAgICAgICAgICAgICAgICAgICAgICAgICAgICAgICHN0cDJAAAAAAQAAAAEAAQABAAEAAAABAAEA
        AAABAAEAAAAAAAAAAQABAQEBAQEBAQEBAQEBAQEBAQEBAQEBAQEBAQEBAQEBAXN0cDNAAAAABAQEBAQEBAQEBAQEBAQEBAgEBAQEBAQEBAQEBAQEBAQEBAQEBAQEBAQE
        BAQEBAQEBAQEBAQEBAQEBAQEBAQEBHN0cDRAAAAAYGBgYGBgYGBgYGBgYGBgYGBgYGBgYGBgYGBgYGBgYGBgYGBgYGBgYGBgYGBgYGBgYGBgYGBgYGBgYGBgYGBgYHN0
        cDVAAAAAAAAAAAAAAAAAAAAAAAAAAAAAAAAAAAAAAAAAAAAAAAAAAAAAAAAAAAAAAAAAAAAAAAAAAAAAAAAAAAAAAAAAAHByb2cSAgAAcHJncCIAAAAQIGQEAAEAfwB/
        AEAAAQABAAAAAAAAAAAAfwAAAAAAAAAAcGdubTAAAABTZXEgMmsgS3JhZnR3ZXJrMyAoQStDLCBGK0EpAAAAAAQqvl//fwAA9LBiIAEAAABzdHAwQAAAAAAAAAAAAPsA
        AAD7AAAAAAAAAAAAAgAAAAAAAAAAAPsAAAAAAAAAAAAAAAAAAAAAAAAAAAAAAAAAAAAAAAAAAABzdHAxQAAAAAgICAgICAgICAgICAgICAgICAgICAgICAgICAgICAgI
        CAgICAgICAgICAgICAgICAgICAgICAgICAgICAgICAhzdHAyQAAAAAEAAAABAAEAAQABAAAAAQABAAAAAQABAAAAAAAAAAEAAQEBAQEBAQEBAQEBAQEBAQEBAQEBAQEB
        AQEBAQEBAQFzdHAzQAAAAAQEBAQEBAQEBAQEBAQEBAQIBAQEBAQEBAQEBAQEBAQEBAQEBAQEBAQEBAQEBAQEBAQEBAQEBAQEBAQEBAQEBARzdHA0QAAAAGBgYGBgYGBg
        YGBgYGBgYGBgYGBgYGBgYGBgYGBgYGBgYGBgYGBgYGBgYGBgYGBgYGBgYGBgYGBgYGBgYGBgYGBzdHA1QAAAAAAAAAAAAAAAAAAAAAAAAAAAAAAAAAAAAAAAAAAAAAAA
        AAAAAAAAAAAAAAAAAAAAAAAAAAAAAAAAAAAAAAAAAABwcm9nEgIAAHByZ3AiAAAAECBkBAABAH8AfwBAAAEAAQAAAAAAAAAAAH8AAAAAAAAAAHBnbm0wAAAAU2VxIDJr
        IEtyYWZ0d2VyazMgKEErQywgRitBKQAAAAAEKr5f/38AAPSwYiABAAAAc3RwMEAAAAAAAAAAAAD7AAAA+wAAAAAAAAAAAAIAAAAAAAAAAAD7AAAAAAAAAAAAAAAAAAAA
        AAAAAAAAAAAAAAAAAAAAAAAAc3RwMUAAAAAICAgICAgICAgICAgICAgICAgICAgICAgICAgICAgICAgICAgICAgICAgICAgICAgICAgICAgICAgICAgICAgIc3RwMkAA
        AAABAAAAAQABAAEAAQAAAAEAAQAAAAEAAQAAAAAAAAABAAEBAQEBAQEBAQEBAQEBAQEBAQEBAQEBAQEBAQEBAQEBc3RwM0AAAAAEBAQEBAQEBAQEBAQEBAQECAQEBAQE
        BAQEBAQEBAQEBAQEBAQEBAQEBAQEBAQEBAQEBAQEBAQEBAQEBAQEBAQEc3RwNEAAAABgYGBgYGBgYGBgYGBgYGBgYGBgYGBgYGBgYGBgYGBgYGBgYGBgYGBgYGBgYGBg
        YGBgYGBgYGBgYGBgYGBgYGBgc3RwNUAAAAAAAAAAAAAAAAAAAAAAAAAAAAAAAAAAAAAAAAAAAAAAAAAAAAAAAAAAAAAAAAAAAAAAAAAAAAAAAAAAAAAAAAAAcHJvZxIC
        AABwcmdwIgAAABAgZAQAAQB/AH8AQAABAAEAAAAAAAAAAAB/AAAAAAAAAABwZ25tMAAAAFNlcSAyayBLcmFmdHdlcmszIChBK0MsIEYrQSkAAAAABCq+X/9/AAD0sGIg
        AQAAAHN0cDBAAAAAAAAAAAAA+wAAAPsAAAAAAAAAAAACAAAAAAAAAAAA+wAAAAAAAAAAAAAAAAAAAAAAAAAAAAAAAAAAAAAAAAAAAHN0cDFAAAAACAgICAgICAgICAgI
        CAgICAgICAgICAgICAgICAgICAgICAgICAgICAgICAgICAgICAgICAgICAgICAgICAgICHN0cDJAAAAAAQAAAAEAAQABAAEAAAABAAEAAAABAAEAAAAAAAAAAQABAQEB
        AQEBAQEBAQEBAQEBAQEBAQEBAQEBAQEBAQEBAXN0cDNAAAAABAQEBAQEBAQEBAQEBAQEBAgEBAQEBAQEBAQEBAQEBAQEBAQEBAQEBAQEBAQEBAQEBAQEBAQEBAQEBAQE
        BAQEBHN0cDRAAAAAYGBgYGBgYGBgYGBgYGBgYGBgYGBgYGBgYGBgYGBgYGBgYGBgYGBgYGBgYGBgYGBgYGBgYGBgYGBgYGBgYGBgYHN0cDVAAAAAAAAAAAAAAAAAAAAA
        AAAAAAAAAAAAAAAAAAAAAAAAAAAAAAAAAAAAAAAAAAAAAAAAAAAAAAAAAAAAAAAAAAAAAHByb2cSAgAAcHJncCIAAAAQIGQEAAEAfwB/AEAAAQABAAAAAAAAAAAAfwAA
        AAAAAAAAcGdubTAAAABTZXEgMmsgS3JhZnR3ZXJrMyAoQStDLCBGK0EpAAAAAAQqvl//fwAA9LBiIAEAAABzdHAwQAAAAAAAAAAAAPsAAAD7AAAAAAAAAAAAAgAAAAAA
        AAAAAPsAAAAAAAAAAAAAAAAAAAAAAAAAAAAAAAAAAAAAAAAAAABzdHAxQAAAAAgICAgICAgICAgICAgICAgICAgICAgICAgICAgICAgICAgICAgICAgICAgICAgICAgI
        CAgICAgICAgICAgICAhzdHAyQAAAAAEAAAABAAEAAQABAAAAAQABAAAAAQABAAAAAAAAAAEAAQEBAQEBAQEBAQEBAQEBAQEBAQEBAQEBAQEBAQEBAQFzdHAzQAAAAAQE
        BAQEBAQEBAQEBAQEBAQIBAQEBAQEBAQEBAQEBAQEBAQEBAQEBAQEBAQEBAQEBAQEBAQEBAQEBAQEBAQEBARzdHA0QAAAAGBgYGBgYGBgYGBgYGBgYGBgYGBgYGBgYGBg
        YGBgYGBgYGBgYGBgYGBgYGBgYGBgYGBgYGBgYGBgYGBgYGBgYGBzdHA1QAAAAAAAAAAAAAAAAAAAAAAAAAAAAAAAAAAAAAAAAAAAAAAAAAAAAAAAAAAAAAAAAAAAAAAA
        AAAAAAAAAAAAAAAAAABwcm9nEgIAAHByZ3AiAAAAECBkBAABAH8AfwBAAAEAAQAAAAAAAAAAAH8AAAAAAAAAAHBnbm0wAAAAU2VxIDJrIEtyYWZ0d2VyazMgKEErQywg
        RitBKQAAAAAEKr5f/38AAPSwYiABAAAAc3RwMEAAAAAAAAAAAAD7AAAA+wAAAAAAAAAAAAIAAAAAAAAAAAD7AAAAAAAAAAAAAAAAAAAAAAAAAAAAAAAAAAAAAAAAAAAA
        c3RwMUAAAAAICAgICAgICAgICAgICAgICAgICAgICAgICAgICAgICAgICAgICAgICAgICAgICAgICAgICAgICAgICAgICAgIc3RwMkAAAAABAAAAAQABAAEAAQAAAAEA
        AQAAAAEAAQAAAAAAAAABAAEBAQEBAQEBAQEBAQEBAQEBAQEBAQEBAQEBAQEBAQEBc3RwM0AAAAAEBAQEBAQEBAQEBAQEBAQECAQEBAQEBAQEBAQEBAQEBAQEBAQEBAQE
        BAQEBAQEBAQEBAQEBAQEBAQEBAQEBAQEc3RwNEAAAABgYGBgYGBgYGBgYGBgYGBgYGBgYGBgYGBgYGBgYGBgYGBgYGBgYGBgYGBgYGBgYGBgYGBgYGBgYGBgYGBgYGBg
        c3RwNUAAAAAAAAAAAAAAAAAAAAAAAAAAAAAAAAAAAAAAAAAAAAAAAAAAAAAAAAAAAAAAAAAAAAAAAAAAAAAAAAAAAAAAAAAAcHJvZxICAABwcmdwIgAAABAgZAQAAQB/
        AH8AQAABAAEAAAAAAAAAAAB/AAAAAAAAAABwZ25tMAAAAFNlcSAyayBLcmFmdHdlcmszIChBK0MsIEYrQSkAAAAABCq+X/9/AAD0sGIgAQAAAHN0cDBAAAAAAAAAAAAA
        +wAAAPsAAAAAAAAAAAACAAAAAAAAAAAA+wAAAAAAAAAAAAAAAAAAAAAAAAAAAAAAAAAAAAAAAAAAAHN0cDFAAAAACAgICAgICAgICAgICAgICAgICAgICAgICAgICAgI
        CAgICAgICAgICAgICAgICAgICAgICAgICAgICAgICAgICHN0cDJAAAAAAQAAAAEAAQABAAEAAAABAAEAAAABAAEAAAAAAAAAAQABAQEBAQEBAQEBAQEBAQEBAQEBAQEB
        AQEBAQEBAQEBAXN0cDNAAAAABAQEBAQEBAQEBAQEBAQEBAgEBAQEBAQEBAQEBAQEBAQEBAQEBAQEBAQEBAQEBAQEBAQEBAQEBAQEBAQEBAQEBHN0cDRAAAAAYGBgYGBg
        YGBgYGBgYGBgYGBgYGBgYGBgYGBgYGBgYGBgYGBgYGBgYGBgYGBgYGBgYGBgYGBgYGBgYGBgYGBgYHN0cDVAAAAAAAAAAAAAAAAAAAAAAAAAAAAAAAAAAAAAAAAAAAAA
        AAAAAAAAAAAAAAAAAAAAAAAAAAAAAAAAAAAAAAAAAAAAAHByb2cSAgAAcHJncCIAAAAQIGQEAAEAfwB/AEAAAQABAAAAAAAAAAAAfwAAAAAAAAAAcGdubTAAAABTZXEg
        MmsgS3JhZnR3ZXJrMyAoQStDLCBGK0EpAAAAAAQqvl//fwAA9LBiIAEAAABzdHAwQAAAAAAAAAAAAPsAAAD7AAAAAAAAAAAAAgAAAAAAAAAAAPsAAAAAAAAAAAAAAAAA
        AAAAAAAAAAAAAAAAAAAAAAAAAABzdHAxQAAAAAgICAgICAgICAgICAgICAgICAgICAgICAgICAgICAgICAgICAgICAgICAgICAgICAgICAgICAgICAgICAgICAhzdHAy
        QAAAAAEAAAABAAEAAQABAAAAAQABAAAAAQABAAAAAAAAAAEAAQEBAQEBAQEBAQEBAQEBAQEBAQEBAQEBAQEBAQEBAQFzdHAzQAAAAAQEBAQEBAQEBAQEBAQEBAQIBAQE
        BAQEBAQEBAQEBAQEBAQEBAQEBAQEBAQEBAQEBAQEBAQEBAQEBAQEBAQEBARzdHA0QAAAAGBgYGBgYGBgYGBgYGBgYGBgYGBgYGBgYGBgYGBgYGBgYGBgYGBgYGBgYGBg
        YGBgYGBgYGBgYGBgYGBgYGBgYGBzdHA1QAAAAAAAAAAAAAAAAAAAAAAAAAAAAAAAAAAAAAAAAAAAAAAAAAAAAAAAAAAAAAAAAAAAAAAAAAAAAAAAAAAAAAAAAABwcm9n
        EgIAAHByZ3AiAAAAECBkBAABAH8AfwBAAAEAAQAAAAAAAAAAAH8AAAAAAAAAAHBnbm0wAAAAU2VxIDJrIEtyYWZ0d2VyazMgKEErQywgRitBKQAAAAAEKr5f/38AAPSw
        YiABAAAAc3RwMEAAAAAAAAAAAAD7AAAA+wAAAAAAAAAAAAIAAAAAAAAAAAD7AAAAAAAAAAAAAAAAAAAAAAAAAAAAAAAAAAAAAAAAAAAAc3RwMUAAAAAICAgICAgICAgI
        CAgICAgICAgICAgICAgICAgICAgICAgICAgICAgICAgICAgICAgICAgICAgICAgICAgICAgIc3RwMkAAAAABAAAAAQABAAEAAQAAAAEAAQAAAAEAAQAAAAAAAAABAAEB
        AQEBAQEBAQEBAQEBAQEBAQEBAQEBAQEBAQEBAQEBc3RwM0AAAAAEBAQEBAQEBAQEBAQEBAQECAQEBAQEBAQEBAQEBAQEBAQEBAQEBAQEBAQEBAQEBAQEBAQEBAQEBAQE
        BAQEBAQEc3RwNEAAAABgYGBgYGBgYGBgYGBgYGBgYGBgYGBgYGBgYGBgYGBgYGBgYGBgYGBgYGBgYGBgYGBgYGBgYGBgYGBgYGBgYGBgc3RwNUAAAAAAAAAAAAAAAAAA
        AAAAAAAAAAAAAAAAAAAAAAAAAAAAAAAAAAAAAAAAAAAAAAAAAAAAAAAAAAAAAAAAAAAAAAAAcHJvZxICAABwcmdwIgAAABAgZAQAAQB/AH8AQAABAAEAAAAAAAAAAAB/
        AAAAAAAAAABwZ25tMAAAAFNlcSAyayBLcmFmdHdlcmszIChBK0MsIEYrQSkAAAAABCq+X/9/AAD0sGIgAQAAAHN0cDBAAAAAAAAAAAAA+wAAAPsAAAAAAAAAAAACAAAA
        AAAAAAAA+wAAAAAAAAAAAAAAAAAAAAAAAAAAAAAAAAAAAAAAAAAAAHN0cDFAAAAACAgICAgICAgICAgICAgICAgICAgICAgICAgICAgICAgICAgICAgICAgICAgICAgI
        CAgICAgICAgICAgICAgICHN0cDJAAAAAAQAAAAEAAQABAAEAAAABAAEAAAABAAEAAAAAAAAAAQABAQEBAQEBAQEBAQEBAQEBAQEBAQEBAQEBAQEBAQEBAXN0cDNAAAAA
        BAQEBAQEBAQEBAQEBAQEBAgEBAQEBAQEBAQEBAQEBAQEBAQEBAQEBAQEBAQEBAQEBAQEBAQEBAQEBAQEBAQEBHN0cDRAAAAAYGBgYGBgYGBgYGBgYGBgYGBgYGBgYGBg
        YGBgYGBgYGBgYGBgYGBgYGBgYGBgYGBgYGBgYGBgYGBgYGBgYGBgYHN0cDVAAAAAAAAAAAAAAAAAAAAAAAAAAAAAAAAAAAAAAAAAAAAAAAAAAAAAAAAAAAAAAAAAAAAA
        AAAAAAAAAAAAAAAAAAAAAHByb2cSAgAAcHJncCIAAAAQIGQEAAEAfwB/AEAAAQABAAAAAAAAAAAAfwAAAAAAAAAAcGdubTAAAABTZXEgMmsgS3JhZnR3ZXJrMyAoQStD
        LCBGK0EpAAAAAAQqvl//fwAA9LBiIAEAAABzdHAwQAAAAAAAAAAAAPsAAAD7AAAAAAAAAAAAAgAAAAAAAAAAAPsAAAAAAAAAAAAAAAAAAAAAAAAAAAAAAAAAAAAAAAAA
        AABzdHAxQAAAAAgICAgICAgICAgICAgICAgICAgICAgICAgICAgICAgICAgICAgICAgICAgICAgICAgICAgICAgICAgICAgICAhzdHAyQAAAAAEAAAABAAEAAQABAAAA
        AQABAAAAAQABAAAAAAAAAAEAAQEBAQEBAQEBAQEBAQEBAQEBAQEBAQEBAQEBAQEBAQFzdHAzQAAAAAQEBAQEBAQEBAQEBAQEBAQIBAQEBAQEBAQEBAQEBAQEBAQEBAQE
        BAQEBAQEBAQEBAQEBAQEBAQEBAQEBAQEBARzdHA0QAAAAGBgYGBgYGBgYGBgYGBgYGBgYGBgYGBgYGBgYGBgYGBgYGBgYGBgYGBgYGBgYGBgYGBgYGBgYGBgYGBgYGBg
        YGBzdHA1QAAAAAAAAAAAAAAAAAAAAAAAAAAAAAAAAAAAAAAAAAAAAAAAAAAAAAAAAAAAAAAAAAAAAAAAAAAAAAAAAAAAAAAAAABwcm9nEgIAAHByZ3AiAAAAECBkBAAB
        AH8AfwBAAAEAAQAAAAAAAAAAAH8AAAAAAAAAAHBnbm0wAAAAU2VxIDJrIEtyYWZ0d2VyazMgKEErQywgRitBKQAAAAAEKr5f/38AAPSwYiABAAAAc3RwMEAAAAAAAAAA
        AAD7AAAA+wAAAAAAAAAAAAIAAAAAAAAAAAD7AAAAAAAAAAAAAAAAAAAAAAAAAAAAAAAAAAAAAAAAAAAAc3RwMUAAAAAICAgICAgICAgICAgICAgICAgICAgICAgICAgI
        CAgICAgICAgICAgICAgICAgICAgICAgICAgICAgICAgICAgIc3RwMkAAAAABAAAAAQABAAEAAQAAAAEAAQAAAAEAAQAAAAAAAAABAAEBAQEBAQEBAQEBAQEBAQEBAQEB
        AQEBAQEBAQEBAQEBc3RwM0AAAAAEBAQEBAQEBAQEBAQEBAQECAQEBAQEBAQEBAQEBAQEBAQEBAQEBAQEBAQEBAQEBAQEBAQEBAQEBAQEBAQEBAQEc3RwNEAAAABgYGBg
        YGBgYGBgYGBgYGBgYGBgYGBgYGBgYGBgYGBgYGBgYGBgYGBgYGBgYGBgYGBgYGBgYGBgYGBgYGBgYGBgc3RwNUAAAAAAAAAAAAAAAAAAAAAAAAAAAAAAAAAAAAAAAAAA
        AAAAAAAAAAAAAAAAAAAAAAAAAAAAAAAAAAAAAAAAAAAAAAAAcHJvZxICAABwcmdwIgAAABAgZAQAAQB/AH8AQAABAAEAAAAAAAAAAAB/AAAAAAAAAABwZ25tMAAAAFNl
        cSAyayBLcmFmdHdlcmszIChBK0MsIEYrQSkAAAAABCq+X/9/AAD0sGIgAQAAAHN0cDBAAAAAAAAAAAAA+wAAAPsAAAAAAAAAAAACAAAAAAAAAAAA+wAAAAAAAAAAAAAA
        AAAAAAAAAAAAAAAAAAAAAAAAAAAAAHN0cDFAAAAACAgICAgICAgICAgICAgICAgICAgICAgICAgICAgICAgICAgICAgICAgICAgICAgICAgICAgICAgICAgICAgICHN0
        cDJAAAAAAQAAAAEAAQABAAEAAAABAAEAAAABAAEAAAAAAAAAAQABAQEBAQEBAQEBAQEBAQEBAQEBAQEBAQEBAQEBAQEBAXN0cDNAAAAABAQEBAQEBAQEBAQEBAQEBAgE
        BAQEBAQEBAQEBAQEBAQEBAQEBAQEBAQEBAQEBAQEBAQEBAQEBAQEBAQEBAQEBHN0cDRAAAAAYGBgYGBgYGBgYGBgYGBgYGBgYGBgYGBgYGBgYGBgYGBgYGBgYGBgYGBg
        YGBgYGBgYGBgYGBgYGBgYGBgYGBgYHN0cDVAAAAAAAAAAAAAAAAAAAAAAAAAAAAAAAAAAAAAAAAAAAAAAAAAAAAAAAAAAAAAAAAAAAAAAAAAAAAAAAAAAAAAAAAAAHBy
        b2cSAgAAcHJncCIAAAAQIGQEAAEAfwB/AEAAAQABAAAAAAAAAAAAfwAAAAAAAAAAcGdubTAAAABTZXEgMmsgS3JhZnR3ZXJrMyAoQStDLCBGK0EpAAAAAAQqvl//fwAA
        9LBiIAEAAABzdHAwQAAAAAAAAAAAAPsAAAD7AAAAAAAAAAAAAgAAAAAAAAAAAPsAAAAAAAAAAAAAAAAAAAAAAAAAAAAAAAAAAAAAAAAAAABzdHAxQAAAAAgICAgICAgI
        CAgICAgICAgICAgICAgICAgICAgICAgICAgICAgICAgICAgICAgICAgICAgICAgICAgICAgICAhzdHAyQAAAAAEAAAABAAEAAQABAAAAAQABAAAAAQABAAAAAAAAAAEA
        AQEBAQEBAQEBAQEBAQEBAQEBAQEBAQEBAQEBAQEBAQFzdHAzQAAAAAQEBAQEBAQEBAQEBAQEBAQIBAQEBAQEBAQEBAQEBAQEBAQEBAQEBAQEBAQEBAQEBAQEBAQEBAQE
        BAQEBAQEBARzdHA0QAAAAGBgYGBgYGBgYGBgYGBgYGBgYGBgYGBgYGBgYGBgYGBgYGBgYGBgYGBgYGBgYGBgYGBgYGBgYGBgYGBgYGBgYGBzdHA1QAAAAAAAAAAAAAAA
        AAAAAAAAAAAAAAAAAAAAAAAAAAAAAAAAAAAAAAAAAAAAAAAAAAAAAAAAAAAAAAAAAAAAAAAAAABwcm9nEgIAAHByZ3AiAAAAECBkBAABAH8AfwBAAAEAAQAAAAAAAAAA
        AH8AAAAAAAAAAHBnbm0wAAAAU2VxIDJrIEtyYWZ0d2VyazMgKEErQywgRitBKQAAAAAEKr5f/38AAPSwYiABAAAAc3RwMEAAAAAAAAAAAAD7AAAA+wAAAAAAAAAAAAIA
        AAAAAAAAAAD7AAAAAAAAAAAAAAAAAAAAAAAAAAAAAAAAAAAAAAAAAAAAc3RwMUAAAAAICAgICAgICAgICAgICAgICAgICAgICAgICAgICAgICAgICAgICAgICAgICAgI
        CAgICAgICAgICAgICAgICAgIc3RwMkAAAAABAAAAAQABAAEAAQAAAAEAAQAAAAEAAQAAAAAAAAABAAEBAQEBAQEBAQEBAQEBAQEBAQEBAQEBAQEBAQEBAQEBc3RwM0AA
        AAAEBAQEBAQEBAQEBAQEBAQECAQEBAQEBAQEBAQEBAQEBAQEBAQEBAQEBAQEBAQEBAQEBAQEBAQEBAQEBAQEBAQEc3RwNEAAAABgYGBgYGBgYGBgYGBgYGBgYGBgYGBg
        YGBgYGBgYGBgYGBgYGBgYGBgYGBgYGBgYGBgYGBgYGBgYGBgYGBgYGBgc3RwNUAAAAAAAAAAAAAAAAAAAAAAAAAAAAAAAAAAAAAAAAAAAAAAAAAAAAAAAAAAAAAAAAAA
        AAAAAAAAAAAAAAAAAAAAAAAAcHJvZxICAABwcmdwIgAAABAgZAQAAQB/AH8AQAABAAEAAAAAAAAAAAB/AAAAAAAAAABwZ25tMAAAAFNlcSAyayBLcmFmdHdlcmszIChB
        K0MsIEYrQSkAAAAABCq+X/9/AAD0sGIgAQAAAHN0cDBAAAAAAAAAAAAA+wAAAPsAAAAAAAAAAAACAAAAAAAAAAAA+wAAAAAAAAAAAAAAAAAAAAAAAAAAAAAAAAAAAAAA
        AAAAAHN0cDFAAAAACAgICAgICAgICAgICAgICAgICAgICAgICAgICAgICAgICAgICAgICAgICAgICAgICAgICAgICAgICAgICAgICHN0cDJAAAAAAQAAAAEAAQABAAEA
        AAABAAEAAAABAAEAAAAAAAAAAQABAQEBAQEBAQEBAQEBAQEBAQEBAQEBAQEBAQEBAQEBAXN0cDNAAAAABAQEBAQEBAQEBAQEBAQEBAgEBAQEBAQEBAQEBAQEBAQEBAQE
        BAQEBAQEBAQEBAQEBAQEBAQEBAQEBAQEBAQEBHN0cDRAAAAAYGBgYGBgYGBgYGBgYGBgYGBgYGBgYGBgYGBgYGBgYGBgYGBgYGBgYGBgYGBgYGBgYGBgYGBgYGBgYGBg
        YGBgYHN0cDVAAAAAAAAAAAAAAAAAAAAAAAAAAAAAAAAAAAAAAAAAAAAAAAAAAAAAAAAAAAAAAAAAAAAAAAAAAAAAAAAAAAAAAAAAAHByb2cSAgAAcHJncCIAAAAQIGQE
        AAEAfwB/AEAAAQABAAAAAAAAAAAAfwAAAAAAAAAAcGdubTAAAABTZXEgMmsgS3JhZnR3ZXJrMyAoQStDLCBGK0EpAAAAAAQqvl//fwAA9LBiIAEAAABzdHAwQAAAAAAA
        AAAAAPsAAAD7AAAAAAAAAAAAAgAAAAAAAAAAAPsAAAAAAAAAAAAAAAAAAAAAAAAAAAAAAAAAAAAAAAAAAABzdHAxQAAAAAgICAgICAgICAgICAgICAgICAgICAgICAgI
        CAgICAgICAgICAgICAgICAgICAgICAgICAgICAgICAgICAgICAhzdHAyQAAAAAEAAAABAAEAAQABAAAAAQABAAAAAQABAAAAAAAAAAEAAQEBAQEBAQEBAQEBAQEBAQEB
        AQEBAQEBAQEBAQEBAQFzdHAzQAAAAAQEBAQEBAQEBAQEBAQEBAQIBAQEBAQEBAQEBAQEBAQEBAQEBAQEBAQEBAQEBAQEBAQEBAQEBAQEBAQEBAQEBARzdHA0QAAAAGBg
        YGBgYGBgYGBgYGBgYGBgYGBgYGBgYGBgYGBgYGBgYGBgYGBgYGBgYGBgYGBgYGBgYGBgYGBgYGBgYGBgYGBzdHA1QAAAAAAAAAAAAAAAAAAAAAAAAAAAAAAAAAAAAAAA
        AAAAAAAAAAAAAAAAAAAAAAAAAAAAAAAAAAAAAAAAAAAAAAAAAABwcm9nEgIAAHByZ3AiAAAAECBkBAABAH8AfwBAAAEAAQAAAAAAAAAAAH8AAAAAAAAAAHBnbm0wAAAA
        U2VxIDJrIEtyYWZ0d2VyazMgKEErQywgRitBKQAAAAAEKr5f/38AAPSwYiABAAAAc3RwMEAAAAAAAAAAAAD7AAAA+wAAAAAAAAAAAAIAAAAAAAAAAAD7AAAAAAAAAAAA
        AAAAAAAAAAAAAAAAAAAAAAAAAAAAAAAAc3RwMUAAAAAICAgICAgICAgICAgICAgICAgICAgICAgICAgICAgICAgICAgICAgICAgICAgICAgICAgICAgICAgICAgICAgI
        c3RwMkAAAAABAAAAAQABAAEAAQAAAAEAAQAAAAEAAQAAAAAAAAABAAEBAQEBAQEBAQEBAQEBAQEBAQEBAQEBAQEBAQEBAQEBc3RwM0AAAAAEBAQEBAQEBAQEBAQEBAQE
        CAQEBAQEBAQEBAQEBAQEBAQEBAQEBAQEBAQEBAQEBAQEBAQEBAQEBAQEBAQEBAQEc3RwNEAAAABgYGBgYGBgYGBgYGBgYGBgYGBgYGBgYGBgYGBgYGBgYGBgYGBgYGBg
        YGBgYGBgYGBgYGBgYGBgYGBgYGBgYGBgc3RwNUAAAAAAAAAAAAAAAAAAAAAAAAAAAAAAAAAAAAAAAAAAAAAAAAAAAAAAAAAAAAAAAAAAAAAAAAAAAAAAAAAAAAAAAAAA
        cHJvZxICAABwcmdwIgAAABAgZAQAAQB/AH8AQAABAAEAAAAAAAAAAAB/AAAAAAAAAABwZ25tMAAAAFNlcSAyayBLcmFmdHdlcmszIChBK0MsIEYrQSkAAAAABCq+X/9/
        AAD0sGIgAQAAAHN0cDBAAAAAAAAAAAAA+wAAAPsAAAAAAAAAAAACAAAAAAAAAAAA+wAAAAAAAAAAAAAAAAAAAAAAAAAAAAAAAAAAAAAAAAAAAHN0cDFAAAAACAgICAgI
        CAgICAgICAgICAgICAgICAgICAgICAgICAgICAgICAgICAgICAgICAgICAgICAgICAgICAgICAgICHN0cDJAAAAAAQAAAAEAAQABAAEAAAABAAEAAAABAAEAAAAAAAAA
        AQABAQEBAQEBAQEBAQEBAQEBAQEBAQEBAQEBAQEBAQEBAXN0cDNAAAAABAQEBAQEBAQEBAQEBAQEBAgEBAQEBAQEBAQEBAQEBAQEBAQEBAQEBAQEBAQEBAQEBAQEBAQE
        BAQEBAQEBAQEBHN0cDRAAAAAYGBgYGBgYGBgYGBgYGBgYGBgYGBgYGBgYGBgYGBgYGBgYGBgYGBgYGBgYGBgYGBgYGBgYGBgYGBgYGBgYGBgYHN0cDVAAAAAAAAAAAAA
        AAAAAAAAAAAAAAAAAAAAAAAAAAAAAAAAAAAAAAAAAAAAAAAAAAAAAAAAAAAAAAAAAAAAAAAAAAAAAHByb2cSAgAAcHJncCIAAAAQIGQEAAEAfwB/AEAAAQABAAAAAAAA
        AAAAfwAAAAAAAAAAcGdubTAAAABTZXEgMmsgS3JhZnR3ZXJrMyAoQStDLCBGK0EpAAAAAAQqvl//fwAA9LBiIAEAAABzdHAwQAAAAAAAAAAAAPsAAAD7AAAAAAAAAAAA
        AgAAAAAAAAAAAPsAAAAAAAAAAAAAAAAAAAAAAAAAAAAAAAAAAAAAAAAAAABzdHAxQAAAAAgICAgICAgICAgICAgICAgICAgICAgICAgICAgICAgICAgICAgICAgICAgI
        CAgICAgICAgICAgICAgICAgICAhzdHAyQAAAAAEAAAABAAEAAQABAAAAAQABAAAAAQABAAAAAAAAAAEAAQEBAQEBAQEBAQEBAQEBAQEBAQEBAQEBAQEBAQEBAQFzdHAz
        QAAAAAQEBAQEBAQEBAQEBAQEBAQIBAQEBAQEBAQEBAQEBAQEBAQEBAQEBAQEBAQEBAQEBAQEBAQEBAQEBAQEBAQEBARzdHA0QAAAAGBgYGBgYGBgYGBgYGBgYGBgYGBg
        YGBgYGBgYGBgYGBgYGBgYGBgYGBgYGBgYGBgYGBgYGBgYGBgYGBgYGBgYGBzdHA1QAAAAAAAAAAAAAAAAAAAAAAAAAAAAAAAAAAAAAAAAAAAAAAAAAAAAAAAAAAAAAAA
        AAAAAAAAAAAAAAAAAAAAAAAAAABwcm9nEgIAAHByZ3AiAAAAECBkBAABAH8AfwBAAAEAAQAAAAAAAAAAAH8AAAAAAAAAAHBnbm0wAAAAU2VxIDJrIEtyYWZ0d2VyazMg
        KEErQywgRitBKQAAAAAEKr5f/38AAPSwYiABAAAAc3RwMEAAAAAAAAAAAAD7AAAA+wAAAAAAAAAAAAIAAAAAAAAAAAD7AAAAAAAAAAAAAAAAAAAAAAAAAAAAAAAAAAAA
        AAAAAAAAc3RwMUAAAAAICAgICAgICAgICAgICAgICAgICAgICAgICAgICAgICAgICAgICAgICAgICAgICAgICAgICAgICAgICAgICAgIc3RwMkAAAAABAAAAAQABAAEA
        AQAAAAEAAQAAAAEAAQAAAAAAAAABAAEBAQEBAQEBAQEBAQEBAQEBAQEBAQEBAQEBAQEBAQEBc3RwM0AAAAAEBAQEBAQEBAQEBAQEBAQECAQEBAQEBAQEBAQEBAQEBAQE
        BAQEBAQEBAQEBAQEBAQEBAQEBAQEBAQEBAQEBAQEc3RwNEAAAABgYGBgYGBgYGBgYGBgYGBgYGBgYGBgYGBgYGBgYGBgYGBgYGBgYGBgYGBgYGBgYGBgYGBgYGBgYGBg
        YGBgYGBgc3RwNUAAAAAAAAAAAAAAAAAAAAAAAAAAAAAAAAAAAAAAAAAAAAAAAAAAAAAAAAAAAAAAAAAAAAAAAAAAAAAAAAAAAAAAAAAA
        AC0gSW5pdGlhbCBwcm9ncmFtIC0AEAAAAA==
      >
      PRESETNAME "- Initial program -"
      FLOATPOS 203 36 810 615
      FXID {007FB9B4-58B7-9343-9460-2E23A6E78A60}
      WAK 0
      BYPASS 0 0 0
      <VST "VSTi: chipsounds (Multi) (Plogue Art et Technologie, Inc) (32 out)" "chipsounds Multi.vst" 0 "" 1347241807
        T0dNUO5e7f4AAAAAIAAAAAEAAAAAAAAAAgAAAAAAAAAEAAAAAAAAAAgAAAAAAAAAEAAAAAAAAAAgAAAAAAAAAEAAAAAAAAAAgAAAAAAAAAAAAQAAAAAAAAACAAAAAAAA
        AAQAAAAAAAAACAAAAAAAAAAQAAAAAAAAACAAAAAAAAAAQAAAAAAAAACAAAAAAAAAAAABAAAAAAAAAAIAAAAAAAAABAAAAAAAAAAIAAAAAAAAABAAAAAAAAAAIAAAAAAA
        AABAAAAAAAAAAIAAAAAAAAAAAAEAAAAAAAAAAgAAAAAAAAAEAAAAAAAAAAgAAAAAAAAAEAAAAAAAAAAgAAAAAAAAAEAAAAAAAAAAgAAAAADtBAAAAQAAAAAAEAA=
        Q0VHULQfAAB4nO1ZS2/bOBC+51cIOu0eKvEpkkCcIs/CwGYbwNlzwdisI1SWXInKpvvrdyRZMZ2EkfPaFljPxRI9Q37zaTTkjPY/3i6y4MaUVVrkoxBHKAw+HuztH5ap
        nugb4/ylcBIGy7KY1VM7PoEBhFR4sBeA7E+MtWk+r4Lvtc5S+wP+DYPKlkYvYHgUUhIGC307aUcOs6yYnh+NQo5h+Hx8Mv5c2/NiZlorXdtioS2sOckKOwqRO5SZG5ON
        wjSHueuFyW0YZOmN6YxBs5o2QDlprnSmYQwHHwLToIqqabYaPgZDU47CBCzmWXGls8s6b3HCQNy7BKsH6awdy/WimR9HwUVdmuD4Ol3Gk/FJnHCJg9/+vJwc/x4GVzr/
        Np6teHF4kwTgTK91njfQYbZlkQFBLAzsetXl1ZdS53NY5QNwsLRwU7V/LJzLYmrhkawdbUit7Wrg7y+Zrmwzb+dA68S5TvPeiRud1R3F8WMa+E4DeTTIoAYd1GCDGnxQ
        IxnUEIMaclBDDWpgNKwyzCoephUP84qHicVeZi90qRdPP+K1inehtYrwBdtaxeUuYoqjRphIJBVNmvEYOTxEhHvVmKtGVSssoZxL4rXZBrMTEhEm3bycUJwQybxcuI5S
        3BmBvmCMeB0V2GUHdUYJI1SQhgOPEXHhyZZRJDAnnAs/vA1KaWfEsCCUcC8RwiU46QiWPFFMSu6H54RfJLqVsEKCMpn4jZINn7owIVQyuJZeI+fljsCbjj4pJWHw1Lxe
        SXetFRMYK4IUUV4b9XwbhTZ86tCJBMNewvzxSd2QEFIwhDlQnshEelfC1A0JjqiiAiEOoSTgGfvxrQF6I1ShNR4vaIXI8Ful0BYZRaFkm5nkNkpqm+y0DXJMEPVpXepy
        buzq4DAtFtFFVsxrEzXnquiPs89RXZkSOVt1a3VcV3DSOdFWB9f2xxJMueCAt0r/gWuWMOdcAVyZfJbq7nIGNnDRy1n3Q9BOdrKTX0U2c0TcJYnnZg28yxo72cn/R16a
        NS7LdD435cR8r00+NeVw3mCU0bu8IZy0QR5LG7iDd7YS1J5/xRkicI1OpcD3HaHH4kxt4TBG7Cmn9+OmN3O/TYPftE2D+zYNWbdp8Jv2aciuT7Pr07y0T+MWg/C+JFDQ
        NcKQQjTx1oNuNagQ51CpCk6kpAp7i5yNXopgCZSPUjGeYJH4C/Bn9n+8nRzhfXKeXglnbYsACJEK0pF/YrftgRRbdQiQUEhs1/agHeODPauNtgfBaruVvK/O69oVbmnv
        bQm5pf0TZfR7lPZPdBL+i9L+fTZSTPlzd9KjfifFHB2Js6MHO6R/J+13XXhRQQ45bQ71x7/s6CN4f0qRJH9yjfQmTj+3n/Ripx+c7O7J6aud3jjjnX79aqbW/SDXH6s6
        Pg4XV2nzYg4c7vove5/+Gvfz6KlNb8x4/aWxvT+9u69MBiub2aW+au7djFKaythzk9dBWvXqtvXg6dwRWHMLKke6quAAqe31KIwPl8ssnbZfOKu4M4SjaLqsijqfwUi7
        VhU/MW3cPeoAxqffqriZPdIQG8t7efABavwo6sNyaebzVNtiDThLl68A7MwYN1O9Bp2PU0CwMKV+B1pX6AtQ7tYYgG8eDYlPuixTq/NoHbB9MGRZWcA6uMe+jtYYwvVg
        bz/uv8gf7P0LmwiWrA==
        AAAQAAAA
      >
      FLOATPOS 32 36 870 508
      FXID {77EA0577-23A1-DF43-A26E-92C6C9E7B560}
      WAK 0
      BYPASS 0 0 0
      <VST "VST: 8-Bit Shaper (Xfer Records)" 8BitShaper.vst 0 "" 1148539762
        clN1RO5e7f4CAAAAAQAAAAAAAAACAAAAAAAAAAQAAAABAAAAAAAAAAIAAAAAAAAABAAAAAAAAAAIAAAAAAAAADQCAAABAAAAAAAQAA==
        ZmaGP20MlT7dQQw/AAAAPyQA//8AAIA/MDEwMDAwMDAXAAAAMAAAABkAAAAaAAAAGgAAABoAAAAbAAAAGwAAABwAAAAcAAAAHAAAAB0AAAAdAAAAHgAAAB4AAAAfAAAA
        HwAAACAAAAAgAAAAIAAAACEAAAAhAAAAIQAAACIAAAAiAAAAIgAAACMAAAAjAAAAIwAAACQAAAAkAAAAJAAAACUAAAAlAAAAKAAAACgAAAApAAAAKQAAACoAAAA1AAAA
        KgAAACoAAAA2AAAAKgAAACoAAAAqAAAAKgAAACoAAAAqAAAAKgAAACsAAAArAAAAOQAAAC0AAAA0AAAAOgAAAC0AAAAtAAAAPAAAAC4AAAAuAAAALwAAADAAAAAwAAAA
        MQAAADEAAAAxAAAAMgAAADMAAAAzAAAAMwAAADcAAAA3AAAANwAAADgAAAA4AAAAOAAAADkAAAA5AAAAOQAAADoAAAA6AAAAOgAAADoAAAA6AAAAOwAAADsAAAA7AAAA
        PAAAADsAAAA7AAAAOwAAADwAAAA8AAAAPAAAADwAAAA9AAAAPQAAAD0AAAA9AAAAPQAAAD4AAAA+AAAAPwAAAEkAAABAAAAAQAAAAEgAAABAAAAAQQAAAEIAAABCAAAA
        QgAAAEMAAABDAAAAQwAAAEQAAABEAAAARQAAAE0AAABGAAAARwAAAEYAAABHAAAASAAAAEgAAABJAAAATwAAAAAAgD+rqqo+q6qqPh0Fwz6OAm0/
        AEluaXQgMQAQAAAA
      >
      PRESETNAME "Init 1"
      FLOATPOS 0 0 0 0
      FXID {8D41C7C8-FDD9-0B46-8F32-7407BD5E7789}
      WAK 0
    >
    <ITEM
      POSITION 0
      SNAPOFFS 0
      LENGTH 36
      LOOP 1
      ALLTAKES 0
      FADEIN 1 0 0 1 0 0
      FADEOUT 1 0 0 1 0 0
      MUTE 0
      SEL 0
      YPOS 0.25 0.25
      IGUID {29F6604D-2A06-5949-9E53-0B5AA70894F2}
      IID 4
      NAME "BASS                 - National_Anthems_-_Cyprus.mid"
      VOLPAN 1 0 1 -1
      SOFFS 1 2
      PLAYRATE 1 1 0 -1 0 0.0025
      CHANMODE 0
      TAKECOLOR 26173599 B
      GUID {C374BC66-404D-C342-8AD0-F8A32595A67F}
      <SOURCE MIDI
        HASDATA 1 192 QN
        POOLEDEVTS {8B0869D9-E1A8-5847-BAC3-C3F8AEBFECE5}
        <X 0 0 0 0 3 "BASS                "
          /wNCQVNTICAgICAgICAgICAgICAgIA==
        >
        e 576 90 29 64
        e 80 80 29 40
        e 112 90 2d 64
        e 80 80 2d 40
        e 112 90 30 64
        e 80 80 30 40
        e 112 90 29 64
        e 80 80 29 40
        e 112 90 2d 64
        e 80 80 2d 40
        e 112 90 30 64
        e 80 80 30 40
        e 112 90 2e 64
        e 80 80 2e 40
        e 112 90 32 64
        e 80 80 32 40
        e 112 90 30 64
        e 80 80 30 40
        e 112 90 29 64
        e 80 80 29 40
        e 112 90 2d 64
        e 80 80 2d 40
        e 112 90 30 64
        e 80 80 30 40
        e 112 90 24 64
        e 80 80 24 40
        e 112 90 30 64
        e 80 80 30 40
        e 112 90 30 64
        e 80 80 30 40
        e 112 90 24 64
        e 80 80 24 40
        e 112 90 30 64
        e 80 80 30 40
        e 112 90 30 64
        e 80 80 30 40
        e 112 90 24 64
        e 80 80 24 40
        e 112 90 30 64
        e 80 80 30 40
        e 112 90 30 64
        e 80 80 30 40
        e 112 90 29 64
        e 80 80 29 40
        e 112 90 2d 64
        e 80 80 2d 40
        e 112 90 30 64
        e 176 80 30 40
        e 16 90 32 64
        e 80 80 32 40
        e 112 90 2d 64
        e 80 80 2d 40
        e 112 90 32 64
        e 80 80 32 40
        e 112 90 32 64
        e 0 90 26 64
        e 80 80 32 40
        e 0 80 26 40
        e 112 90 2d 64
        e 80 80 2d 40
        e 112 90 32 64
        e 80 80 32 40
        e 112 90 26 64
        e 80 80 26 40
        e 112 90 2d 64
        e 80 80 2d 40
        e 112 90 2d 64
        e 80 80 2d 40
        e 112 90 32 64
        e 80 80 32 40
        e 112 90 32 64
        e 80 80 32 40
        e 304 90 24 64
        e 80 80 24 40
        e 112 90 24 64
        e 80 80 24 40
        e 112 90 24 64
        e 80 80 24 40
        e 112 90 29 64
        e 80 80 29 40
        e 112 90 29 64
        e 80 80 29 40
        e 112 90 29 64
        e 80 80 29 40
        e 112 90 30 64
        e 80 80 30 40
        e 112 90 24 64
        e 80 80 24 40
        e 112 90 30 64
        e 80 80 30 40
        e 112 90 29 64
        e 80 80 29 40
        e 112 90 35 64
        e 80 80 35 40
        e 304 90 2e 64
        e 80 80 2e 40
        e 112 90 32 64
        e 80 80 32 40
        e 112 90 26 64
        e 80 80 26 40
        e 112 90 2b 64
        e 80 80 2b 40
        e 112 90 32 64
        e 80 80 32 40
        e 112 90 2e 64
        e 80 80 2e 40
        e 112 90 30 64
        e 80 80 30 40
        e 112 90 24 64
        e 80 80 24 40
        e 112 90 30 64
        e 80 80 30 40
        e 112 90 29 64
        e 80 80 29 40
        e 112 90 30 64
        e 80 80 30 40
        e 112 90 35 64
        e 80 80 35 40
        e 112 90 2e 64
        e 80 80 2e 40
        e 112 90 32 64
        e 80 80 32 40
        e 112 90 26 64
        e 80 80 26 40
        e 112 90 2b 64
        e 80 80 2b 40
        e 112 90 32 64
        e 80 80 32 40
        e 112 90 2e 64
        e 80 80 2e 40
        e 112 90 30 64
        e 80 80 30 40
        e 112 90 24 64
        e 80 80 24 40
        e 112 90 30 64
        e 80 80 30 40
        e 112 90 29 64
        e 176 80 29 40
        e 16 90 35 64
        e 80 80 35 40
        E 112 b0 7b 00
        GUID {137B982D-D8F7-E143-A0A6-4C0A78A259E5}
        IGNTEMPO 0 120 4 4
        SRCCOLOR 631
        VELLANE -1 86 6
        CFGEDITVIEW -985.079792 28.048037 74 12 0 0 0 0 0 0.5
        KEYSNAP 0
        TRACKSEL 226
        EVTFILTER 0 -1 -1 -1 -1 0 0 0 0 -1 -1 -1 -1 0 -1 0 -1 -1
        CFGEDIT 1 1 0 0 0 0 1 0 1 1 1 0.25 474 462 1014 762 1 0 1 3 0 0 0 0 0 -1 0 0 1 64
      >
      TAKE
      NAME "BASS                 - National_Anthems_-_Cyprus.mid"
      TAKEVOLPAN 0 1 -1
      SOFFS 1 2
      PLAYRATE 1 1 0 -1 0 0.0025
      CHANMODE 0
      GUID {33514960-33ED-D34C-99BF-53FE98B9FC5B}
      <SOURCE MIDI
        HASDATA 1 192 QN
        POOLEDEVTS {F4636896-A030-364B-83AB-7F2907C0CC04}
        <X 0 0 0 0 3 "BASS                "
          /wNCQVNTICAgICAgICAgICAgICAgIA==
        >
        E 576 93 29 64
        E 80 83 29 40
        E 112 93 2d 64
        E 80 83 2d 40
        E 112 93 30 64
        E 80 83 30 40
        E 112 93 29 64
        E 80 83 29 40
        E 112 93 2d 64
        E 80 83 2d 40
        E 112 93 30 64
        E 80 83 30 40
        E 112 93 2e 64
        E 80 83 2e 40
        E 112 93 32 64
        E 80 83 32 40
        E 112 93 30 64
        E 80 83 30 40
        E 112 93 29 64
        E 80 83 29 40
        E 112 93 2d 64
        E 80 83 2d 40
        E 112 93 30 64
        E 80 83 30 40
        E 112 93 24 64
        E 80 83 24 40
        E 112 93 30 64
        E 80 83 30 40
        E 112 93 30 64
        E 80 83 30 40
        E 112 93 24 64
        E 80 83 24 40
        E 112 93 30 64
        E 80 83 30 40
        E 112 93 30 64
        E 80 83 30 40
        E 112 93 24 64
        E 80 83 24 40
        E 112 93 30 64
        E 80 83 30 40
        E 112 93 30 64
        E 80 83 30 40
        E 112 93 29 64
        E 80 83 29 40
        E 112 93 2d 64
        E 80 83 2d 40
        E 112 93 30 64
        E 176 83 30 40
        E 16 93 32 64
        E 80 83 32 40
        E 112 93 2d 64
        E 80 83 2d 40
        E 112 93 32 64
        E 80 83 32 40
        E 112 93 32 64
        E 0 93 26 64
        E 80 83 32 40
        E 0 83 26 40
        E 112 93 2d 64
        E 80 83 2d 40
        E 112 93 32 64
        E 80 83 32 40
        E 112 93 26 64
        E 80 83 26 40
        E 112 93 2d 64
        E 80 83 2d 40
        E 112 93 2d 64
        E 80 83 2d 40
        E 112 93 32 64
        E 80 83 32 40
        E 112 93 32 64
        E 80 83 32 40
        E 304 93 24 64
        E 80 83 24 40
        E 112 93 24 64
        E 80 83 24 40
        E 112 93 24 64
        E 80 83 24 40
        E 112 93 29 64
        E 80 83 29 40
        E 112 93 29 64
        E 80 83 29 40
        E 112 93 29 64
        E 80 83 29 40
        E 112 93 30 64
        E 80 83 30 40
        E 112 93 24 64
        E 80 83 24 40
        E 112 93 30 64
        E 80 83 30 40
        E 112 93 29 64
        E 80 83 29 40
        E 112 93 35 64
        E 80 83 35 40
        E 304 93 2e 64
        E 80 83 2e 40
        E 112 93 32 64
        E 80 83 32 40
        E 112 93 26 64
        E 80 83 26 40
        E 112 93 2b 64
        E 80 83 2b 40
        E 112 93 32 64
        E 80 83 32 40
        E 112 93 2e 64
        E 80 83 2e 40
        E 112 93 30 64
        E 80 83 30 40
        E 112 93 24 64
        E 80 83 24 40
        E 112 93 30 64
        E 80 83 30 40
        E 112 93 29 64
        E 80 83 29 40
        E 112 93 30 64
        E 80 83 30 40
        E 112 93 35 64
        E 80 83 35 40
        E 112 93 2e 64
        E 80 83 2e 40
        E 112 93 32 64
        E 80 83 32 40
        E 112 93 26 64
        E 80 83 26 40
        E 112 93 2b 64
        E 80 83 2b 40
        E 112 93 32 64
        E 80 83 32 40
        E 112 93 2e 64
        E 80 83 2e 40
        E 112 93 30 64
        E 80 83 30 40
        E 112 93 24 64
        E 80 83 24 40
        E 112 93 30 64
        E 80 83 30 40
        E 112 93 29 64
        E 176 83 29 40
        E 16 93 35 64
        E 80 83 35 40
        E 112 b0 7b 00
        GUID {85508E77-5419-E546-9686-0D8489C5C8FB}
        IGNTEMPO 0 120 4 4
        SRCCOLOR 686
        VELLANE -1 86 6
        CFGEDITVIEW 0 0 74 12 0 0 0 0 0 0.5
        KEYSNAP 0
        TRACKSEL 226
        EVTFILTER 0 -1 -1 -1 -1 0 0 0 0 -1 -1 -1 -1 0 -1 0 -1 -1
        CFGEDIT 1 1 0 0 0 0 1 0 1 1 1 0.25 474 462 1014 762 1 0 1 3 0 0 0 0 0 -1 0 0 1 64
      >
    >
  >
  <TRACK {3CF13A00-0AFC-8542-AD98-73B6D91102DB}
    NAME "vst Plogue"
    PEAKCOL 26779488
    BEAT -1
    AUTOMODE 0
    VOLPAN 1 0 -1 -1 1
    MUTESOLO 0 0 0
    IPHASE 0
    ISBUS 0 0
    BUSCOMP 0 0
    SHOWINMIX 1 0.6667 0.5 1 0.5 0 0 0
    FREEMODE 0
    SEL 0
    REC 0 0 0 1 0 0 0
    VU 2
    TRACKHEIGHT 0 0
    INQ 0 0 0 0.5 100 0 0 100
    NCHAN 4
    FX 1
    TRACKID {3CF13A00-0AFC-8542-AD98-73B6D91102DB}
    PERF 0
    AUXRECV 5 0 1 0 0 0 0 0 0 -1:U 32 -1 ''
    AUXRECV 5 0 1 0 0 0 0 0 0 -1:U 96 -1 ''
    AUXRECV 6 0 1 0 0 0 0 0 0 -1:U 64 -1 ''
    AUXRECV 6 0 1 0 0 0 0 0 0 -1:U 128 -1 ''
    MIDIOUT -1
    MAINSEND 0 0
    <FXCHAIN
      SHOW 0
      LASTSEL 0
      DOCKED 0
      BYPASS 0 0 0
      <VST "VSTi: chipsounds (Multi) (Plogue Art et Technologie, Inc) (32 out)" "chipsounds Multi.vst" 0 "" 1347241807
        T0dNUO5e7f4AAAAAIAAAAAEAAAAAAAAAAgAAAAAAAAAEAAAAAAAAAAgAAAAAAAAAEAAAAAAAAAAgAAAAAAAAAEAAAAAAAAAAgAAAAAAAAAAAAQAAAAAAAAACAAAAAAAA
        AAQAAAAAAAAACAAAAAAAAAAQAAAAAAAAACAAAAAAAAAAQAAAAAAAAACAAAAAAAAAAAABAAAAAAAAAAIAAAAAAAAABAAAAAAAAAAIAAAAAAAAABAAAAAAAAAAIAAAAAAA
        AABAAAAAAAAAAIAAAAAAAAAAAAEAAAAAAAAAAgAAAAAAAAAEAAAAAAAAAAgAAAAAAAAAEAAAAAAAAAAgAAAAAAAAAEAAAAAAAAAAgAAAAABIBwAAAQAAAAAAEAA=
        Q0VHUPtIAAB4nO1c3W/bNhB/z18h+Gl7qMTvDyBJkTh1F2BZCzjFHgvGZh1tsuxJctbur99JshMqMS25SdG00T0kMn1H8k706ffjETp8/XmeBDc2y+NFejTAIRoEr48P
        Dk+y2IzNjXW+0lgMgmW2mK4mxfkZNCCkB8cHAcjh2BZFnM7y4J+VSeLiC3w7CPIis2YOzUcDSgbB3HweVy0nSbKYXJweDTiG5ovzs/N3q+JiMbWVlVkVi7kpYMxxsiiO
        BshtSuyNTY4GcQp9r+Y2LQZBEt/Y2hg08wn0yll5YRIDTTh4FdhyUmE+SdbNQ7Cz2dFAgMEsWVyZ5HKVVtOEhmjjEQwexNOqLTXzsnscBu9XmQ2G1/EyGp+fRYIrHPzy
        x+V4+OsguDLp3+fTdVicsCkCTk6uTZqWM4felosE4gNzLO5GXV59zEw6g1FeQQiWBXzIqy/mzuViUsAdufUTU2hbFeuGfz8mJi/KfmsHKicuTJxunLgxyaqOcLRNA99q
        II8GadWgrRqsVYO3aohWDdmqoVo1dKsGRu0q7VHF7WHF7XHF7YHF3si+N5mZ777Fdyrege5UnPCHinMEgjWSlClBfTZuMEOmKyPEpFBUlmnHM5AT3hATXQknFAuimNeI
        uUa0HolTwRhWXhvh2qjahlAFJtxv5CyyEJypp6eUIgzmin1myh2LViMhjDVBmmivjd7fRqOGT/XspMCQ0xjx3ibqhlwqyRDmXGihhPKOhKmzrkKOqKYSQq61kIjdi8Ol
        yWa2WGfcyWIevk8Ws5UNy+dR+PvoXbjKbYacHFdZDVc5PCHOTGGC6+LLEky55DCfPP4PrplgTkIGt206jU19OQUbuNjIqP5HUC+99PJcpJkjojpJ7Js1cJ81eunl5cjX
        Zo3LLJ7NbDYG3mjTic3a8wajjG7yBuFO2iDb0gaupzdaS/1ZVtd0KEe64cQQ0dEORw6jkqje56z4STkr3sJZVc9Ze876LDgrbrAsLIBUlMKQRlR4OYnLSDTiHNiS5EQp
        qrGXmbnEkUgmgMIozbjAQFO/GRfmncgvZ3XXAmgY8D+/kesDrSPVTrO9q/dxrPWbk0mX7N7F1E9uAcL5ck7PS3vppZem9Ly0l1562U++Dy8VLsPrxEsrSCkhiYzePOSl
        lRBJTxsNI2Crpa56oAqtZ9t6QKTZw1fxXfKkfJdt+C6+47vsKfkuauG7Xjq0B9/1ceae795XeXF8VxLGkNJl9ZIRwb2kyXEpxOv6pZAES8a8BNPll5J1K+Pyhkd6XYmU
        ginClZetSd9S9xWV67ItZhQB22fSTzBdI9qxLso6zKZRRK44stZUIM12VKtxFzfd6i9bbzJQDEMQ7F0Q0o0Nrcu/Csg3U4p7dyacPQfvbKQbP7SOn8ZA0Smi/p7dhSN4
        tdgkhnlJuWM3w105cIeq1aY5FZJR/7pxbwMnzL29O/YP3P2iGlC3bra4mw5ex7V/z8FV6nDsQiPRpacOC0oj3eXH1WXmGKPGllMdb6WQhJn4rQhy0xzxhhgUvZH5Jls2
        6jtzr+/COH9Upx8HmMsjOvsB5upJXANmRMjp6QNHHsLoswowI7QVMG+F3HzY7PcUeiiHldhtHdWtw2ZrSzC3g2v6pOCafO8DkO3g2ged+2LSvYj9fOD6eRyA7M879ucd
        e5DyQpz+8U+bsCcFCHQLQOA9QOgBwrMACD/1aRP/nk5/1uQZnDXp6z8tAepB008EmrZjDXmLNUgY1M4Ff8Iz/9Mim+fRbyabBuMv6aQr2OC3pT7xpNsRj0UY7fW9doTh
        Qyk9wnig8mwRBl6XTzgnWnD/Y9N9TiHNdKdNdnckgQQBfKEo0hJJ4a9HudUdrurqieKMUCL9z9EGLln7RBSTjBGvS7ixnbCGDwgmiWAs/3PV3RnoukVCOkAg0qHYIb2r
        cc8SWuN2CtbYquhYeOPr7RdgYEpz5q8D8g7zaVYuaxiECVGU7ijNNMCTYHXhBzAarGPqrb52Ak9uzWzHCemnrJqpLkodqmYad4g3JqjDSgItb7L3VchCWpdWlSYSY0H9
        P1mCvDm+h18vAH7tdPqRe1aE7klF6tMS9aYVOpWjLpW1jWwqYECgQU54sy7mtJ5K/rDf/XoQW2p+e/aAH9sDl4/tgZ09roeuoP7Np092UrgvWtnA6HrBncyv4nJ5tYD5
        9WCHbz+cb/oxkyK+sef1C2Tw5vOb2xfK5DaBke300lyVC9DNgJnNbXFh01UQ5xvzovJg9y8gKOxnULmEv6vMToPf4iIH5mCK66NBdLJcJvGkeoNNHtU9AAeJl/lilU6h
        pRo0j3b0H625zkm2tLNZvMijxkihgTS0vJfMH7hC9nJlbv6SxfWtDx8gv+VRDncmnSUmncKcPk4yawobjc18mdg8erP5JhjF5ed6gOGdo5sx8tKEF9dt87b55o65835r
        siwuTBreLZB6xqcmSbIFRAlvZn23OiJYHscHh9HmxUbHB/8Dp5EPuQ==
        AAAQAAAA
      >
      FLOATPOS 903 139 870 508
      FXID {5FCFCE60-B038-2A46-8077-8B519372EF2A}
      WAK 0
    >
  >
  <TRACK {2BB5EACD-C1BC-284E-92F6-33B7023B768F}
    NAME "ch1,3 (send)"
    PEAKCOL 16576
    BEAT -1
    AUTOMODE 0
    VOLPAN 0.96450352403557 0 -1 -1 1
    MUTESOLO 0 0 0
    IPHASE 0
    ISBUS 0 0
    BUSCOMP 0 0
    SHOWINMIX 1 0.6667 0.5 1 0.5 0 0 0
    FREEMODE 0
    SEL 0
    REC 0 0 0 0 0 0 0
    VU 2
    MIDICTL -1 1
    TRACKHEIGHT 0 0
    INQ 0 0 0 0.5 100 0 0 100
    NCHAN 2
    FX 1
    TRACKID {2BB5EACD-C1BC-284E-92F6-33B7023B768F}
    PERF 0
    MIDIOUT -1
    MAINSEND 1 0
    <FXCHAIN
      SHOW 0
      LASTSEL 0
      DOCKED 0
    >
    <ITEM
      POSITION 0
      SNAPOFFS 0
      LENGTH 36
      LOOP 1
      ALLTAKES 0
      FADEIN 1 0 0 1 0 0
      FADEOUT 1 0 0 1 0 0
      MUTE 0
      SEL 0
      YPOS 0.75 0.25
      IGUID {C88CF961-B2D3-CF4F-BEB7-5030610CFF10}
      IID 3
      NAME "L.H.                 - National_Anthems_-_Cyprus.mid"
      VOLPAN 1 0 1 -1
      SOFFS 1 2
      PLAYRATE 1 1 0 -1 0 0.0025
      CHANMODE 0
      TAKECOLOR 26173599 B
      GUID {B8E7D98A-FBF7-8043-A489-039902547A6B}
      <SOURCE MIDI
        HASDATA 1 192 QN
        POOLEDEVTS {6ADC231D-6537-8045-AD39-FEBEEF259038}
        <X 0 0 0 0 3 "L.H.                "
          /wNMLkguICAgICAgICAgICAgICAgIA==
        >
        E 576 92 35 64
        E 0 92 29 64
        E 80 82 35 40
        E 0 82 29 40
        E 16 92 3c 64
        E 0 92 39 64
        E 0 92 35 64
        E 32 82 3c 40
        E 0 82 39 40
        E 0 82 35 40
        E 16 92 39 64
        E 0 92 3c 64
        E 0 92 35 64
        E 32 82 39 40
        E 0 82 3c 40
        E 0 82 35 40
        E 16 92 35 64
        E 0 92 3c 64
        E 0 92 39 64
        E 80 82 35 40
        E 0 82 3c 40
        E 0 82 39 40
        E 16 92 3c 64
        E 0 92 35 64
        E 0 92 39 64
        E 80 82 3c 40
        E 0 82 35 40
        E 0 82 39 40
        E 16 92 35 64
        E 0 92 3c 64
        E 0 92 39 64
        E 80 82 35 40
        E 0 82 3c 40
        E 0 82 39 40
        E 16 92 3c 64
        E 0 92 35 64
        E 0 92 39 64
        E 80 82 3c 40
        E 0 82 35 40
        E 0 82 39 40
        E 16 92 29 64
        E 80 82 29 40
        E 16 92 35 64
        E 0 92 3c 64
        E 0 92 39 64
        E 32 82 35 40
        E 0 82 3c 40
        E 0 82 39 40
        E 16 92 3c 64
        E 0 92 39 64
        E 0 92 35 64
        E 32 82 3c 40
        E 0 82 39 40
        E 0 82 35 40
        E 16 92 3c 64
        E 0 92 35 64
        E 0 92 39 64
        E 80 82 3c 40
        E 0 82 35 40
        E 0 82 39 40
        E 16 92 35 64
        E 0 92 39 64
        E 0 92 3c 64
        E 80 82 35 40
        E 0 82 39 40
        E 0 82 3c 40
        E 16 92 39 64
        E 0 92 3c 64
        E 0 92 35 64
        E 80 82 39 40
        E 0 82 3c 40
        E 0 82 35 40
        E 16 92 39 64
        E 0 92 3c 64
        E 0 92 35 64
        E 80 82 39 40
        E 0 82 3c 40
        E 0 82 35 40
        E 16 92 2e 64
        E 80 82 2e 40
        E 16 92 3a 64
        E 0 92 37 64
        E 0 92 32 64
        E 32 82 3a 40
        E 0 82 37 40
        E 0 82 32 40
        E 16 92 32 64
        E 0 92 37 64
        E 0 92 3a 64
        E 32 82 32 40
        E 0 82 37 40
        E 0 82 3a 40
        E 16 92 37 64
        E 0 92 3a 64
        E 0 92 32 64
        E 80 82 37 40
        E 0 82 3a 40
        E 0 82 32 40
        E 16 92 3a 64
        E 0 92 32 64
        E 0 92 37 64
        E 80 82 3a 40
        E 0 82 32 40
        E 0 82 37 40
        E 16 92 24 64
        E 0 92 30 64
        E 80 82 24 40
        E 0 82 30 40
        E 16 92 3c 64
        E 0 92 34 64
        E 80 82 3c 40
        E 0 82 34 40
        E 16 92 29 64
        E 80 82 29 40
        E 16 92 3c 64
        E 0 92 35 64
        E 0 92 39 64
        E 32 82 3c 40
        E 0 82 35 40
        E 0 82 39 40
        E 16 92 35 64
        E 0 92 39 64
        E 0 92 3c 64
        E 32 82 35 40
        E 0 82 39 40
        E 0 82 3c 40
        E 16 92 3c 64
        E 0 92 35 64
        E 0 92 39 64
        E 80 82 3c 40
        E 0 82 35 40
        E 0 82 39 40
        E 16 92 39 64
        E 0 92 35 64
        E 0 92 3c 64
        E 80 82 39 40
        E 0 82 35 40
        E 0 82 3c 40
        E 208 92 24 64
        E 0 92 30 64
        E 80 82 24 40
        E 0 82 30 40
        E 16 92 3c 64
        E 0 92 3a 64
        E 0 92 34 64
        E 0 92 37 64
        E 32 82 3c 40
        E 0 82 3a 40
        E 0 82 34 40
        E 0 82 37 40
        E 16 92 3a 64
        E 0 92 34 64
        E 0 92 3c 64
        E 0 92 37 64
        E 32 82 3a 40
        E 0 82 34 40
        E 0 82 3c 40
        E 0 82 37 40
        E 16 92 34 64
        E 0 92 3c 64
        E 0 92 3a 64
        E 0 92 37 64
        E 80 82 34 40
        E 0 82 3c 40
        E 0 82 3a 40
        E 0 82 37 40
        E 16 92 34 64
        E 0 92 3a 64
        E 0 92 3c 64
        E 0 92 37 64
        E 80 82 34 40
        E 0 82 3a 40
        E 0 82 3c 40
        E 0 82 37 40
        E 16 92 3a 64
        E 0 92 34 64
        E 0 92 3c 64
        E 0 92 37 64
        E 80 82 3a 40
        E 0 82 34 40
        E 0 82 3c 40
        E 0 82 37 40
        E 16 92 3a 64
        E 0 92 34 64
        E 0 92 3c 64
        E 0 92 37 64
        E 80 82 3a 40
        E 0 82 34 40
        E 0 82 3c 40
        E 0 82 37 40
        E 16 92 30 64
        E 0 92 24 64
        E 80 82 30 40
        E 0 82 24 40
        E 16 92 34 64
        E 0 92 3a 64
        E 0 92 3c 64
        E 0 92 37 64
        E 32 82 34 40
        E 0 82 3a 40
        E 0 82 3c 40
        E 0 82 37 40
        E 16 92 3a 64
        E 0 92 34 64
        E 0 92 37 64
        E 0 92 3c 64
        E 32 82 3a 40
        E 0 82 34 40
        E 0 82 37 40
        E 0 82 3c 40
        E 16 92 3a 64
        E 0 92 34 64
        E 0 92 37 64
        E 0 92 3c 64
        E 80 82 3a 40
        E 0 82 34 40
        E 0 82 37 40
        E 0 82 3c 40
        E 16 92 34 64
        E 0 92 3a 64
        E 0 92 37 64
        E 0 92 3c 64
        E 80 82 34 40
        E 0 82 3a 40
        E 0 82 37 40
        E 0 82 3c 40
        E 16 92 3a 64
        E 0 92 34 64
        E 0 92 3c 64
        E 0 92 37 64
        E 80 82 3a 40
        E 0 82 34 40
        E 0 82 3c 40
        E 0 82 37 40
        E 16 92 3a 64
        E 0 92 34 64
        E 0 92 3c 64
        E 0 92 37 64
        E 80 82 3a 40
        E 0 82 34 40
        E 0 82 3c 40
        E 0 82 37 40
        E 16 92 24 64
        E 0 92 30 64
        E 80 82 24 40
        E 0 82 30 40
        E 16 92 3a 64
        E 0 92 34 64
        E 0 92 3c 64
        E 0 92 37 64
        E 32 82 3a 40
        E 0 82 34 40
        E 0 82 3c 40
        E 0 82 37 40
        E 16 92 34 64
        E 0 92 3a 64
        E 0 92 37 64
        E 0 92 3c 64
        E 32 82 34 40
        E 0 82 3a 40
        E 0 82 37 40
        E 0 82 3c 40
        E 16 92 3a 64
        E 0 92 34 64
        E 0 92 3c 64
        E 0 92 37 64
        E 80 82 3a 40
        E 0 82 34 40
        E 0 82 3c 40
        E 0 82 37 40
        E 16 92 3a 64
        E 0 92 34 64
        E 0 92 37 64
        E 0 92 3c 64
        E 80 82 3a 40
        E 0 82 34 40
        E 0 82 37 40
        E 0 82 3c 40
        E 16 92 3a 64
        E 0 92 3c 64
        E 0 92 34 64
        E 0 92 37 64
        E 80 82 3a 40
        E 0 82 3c 40
        E 0 82 34 40
        E 0 82 37 40
        E 16 92 3a 64
        E 0 92 34 64
        E 0 92 3c 64
        E 0 92 37 64
        E 80 82 3a 40
        E 0 82 34 40
        E 0 82 3c 40
        E 0 82 37 40
        E 16 92 29 64
        E 80 82 29 40
        E 16 92 35 64
        E 0 92 3c 64
        E 0 92 39 64
        E 32 82 35 40
        E 0 82 3c 40
        E 0 82 39 40
        E 16 92 35 64
        E 0 92 39 64
        E 0 92 3c 64
        E 32 82 35 40
        E 0 82 39 40
        E 0 82 3c 40
        E 16 92 39 64
        E 0 92 35 64
        E 0 92 3c 64
        E 176 82 39 40
        E 0 82 35 40
        E 0 82 3c 40
        E 208 92 26 64
        E 80 82 26 40
        E 16 92 32 64
        E 0 92 39 64
        E 0 92 35 64
        E 32 82 32 40
        E 0 82 39 40
        E 0 82 35 40
        E 16 92 32 64
        E 0 92 35 64
        E 0 92 39 64
        E 32 82 32 40
        E 0 82 35 40
        E 0 82 39 40
        E 16 92 32 64
        E 0 92 35 64
        E 0 92 39 64
        E 80 82 32 40
        E 0 82 35 40
        E 0 82 39 40
        E 16 92 32 64
        E 0 92 35 64
        E 0 92 39 64
        E 80 82 32 40
        E 0 82 35 40
        E 0 82 39 40
        E 16 92 2d 64
        E 80 82 2d 40
        E 16 92 39 64
        E 0 92 34 64
        E 0 92 37 64
        E 80 82 39 40
        E 0 82 34 40
        E 0 82 37 40
        E 16 92 26 64
        E 80 82 26 40
        E 16 92 32 64
        E 0 92 39 64
        E 0 92 35 64
        E 32 82 32 40
        E 0 82 39 40
        E 0 82 35 40
        E 16 92 32 64
        E 0 92 39 64
        E 0 92 35 64
        E 32 82 32 40
        E 0 82 39 40
        E 0 82 35 40
        E 16 92 32 64
        E 0 92 35 64
        E 0 92 39 64
        E 80 82 32 40
        E 0 82 35 40
        E 0 82 39 40
        E 16 92 32 64
        E 0 92 35 64
        E 0 92 39 64
        E 80 82 32 40
        E 0 82 35 40
        E 0 82 39 40
        E 16 92 32 64
        E 0 92 35 64
        E 0 92 39 64
        E 80 82 32 40
        E 0 82 35 40
        E 0 82 39 40
        E 16 92 32 64
        E 0 92 35 64
        E 0 92 39 64
        E 80 82 32 40
        E 0 82 35 40
        E 0 82 39 40
        E 16 92 26 64
        E 80 82 26 40
        E 16 92 32 64
        E 0 92 39 64
        E 0 92 35 64
        E 32 82 32 40
        E 0 82 39 40
        E 0 82 35 40
        E 16 92 32 64
        E 0 92 39 64
        E 0 92 35 64
        E 32 82 32 40
        E 0 82 39 40
        E 0 82 35 40
        E 16 92 32 64
        E 0 92 39 64
        E 0 92 35 64
        E 80 82 32 40
        E 0 82 39 40
        E 0 82 35 40
        E 16 92 35 64
        E 0 92 32 64
        E 0 92 39 64
        E 80 82 35 40
        E 0 82 32 40
        E 0 82 39 40
        E 16 92 2d 64
        E 80 82 2d 40
        E 16 92 34 64
        E 0 92 39 64
        E 0 92 37 64
        E 80 82 34 40
        E 0 82 39 40
        E 0 82 37 40
        E 16 92 26 64
        E 80 82 26 40
        E 16 92 39 64
        E 0 92 32 64
        E 0 92 35 64
        E 32 82 39 40
        E 0 82 32 40
        E 0 82 35 40
        E 16 92 35 64
        E 0 92 32 64
        E 0 92 39 64
        E 32 82 35 40
        E 0 82 32 40
        E 0 82 39 40
        E 16 92 39 64
        E 0 92 32 64
        E 0 92 35 64
        E 80 82 39 40
        E 0 82 32 40
        E 0 82 35 40
        E 304 92 3a 64
        E 0 92 34 64
        E 80 82 3a 40
        E 0 82 34 40
        E 112 92 30 64
        E 0 92 3a 64
        E 0 92 34 64
        E 80 82 30 40
        E 0 82 3a 40
        E 0 82 34 40
        E 16 92 30 64
        E 80 82 30 40
        E 16 92 3a 64
        E 0 92 34 64
        E 80 82 3a 40
        E 0 82 34 40
        E 16 92 30 64
        E 80 82 30 40
        E 16 92 39 64
        E 0 92 35 64
        E 80 82 39 40
        E 0 82 35 40
        E 16 92 30 64
        E 80 82 30 40
        E 16 92 35 64
        E 0 92 39 64
        E 80 82 35 40
        E 0 82 39 40
        E 16 92 30 64
        E 80 82 30 40
        E 16 92 35 64
        E 0 92 39 64
        E 80 82 35 40
        E 0 82 39 40
        E 16 92 30 64
        E 80 82 30 40
        E 16 92 3a 64
        E 0 92 34 64
        E 80 82 3a 40
        E 0 82 34 40
        E 16 92 30 64
        E 80 82 30 40
        E 16 92 3a 64
        E 0 92 34 64
        E 80 82 3a 40
        E 0 82 34 40
        E 16 92 30 64
        E 80 82 30 40
        E 16 92 3a 64
        E 0 92 34 64
        E 80 82 3a 40
        E 0 82 34 40
        E 16 92 30 64
        E 80 82 30 40
        E 16 92 29 64
        E 80 82 29 40
        E 16 92 30 64
        E 0 92 39 64
        E 0 92 35 64
        E 32 82 30 40
        E 0 82 39 40
        E 0 82 35 40
        E 16 92 30 64
        E 0 92 39 64
        E 0 92 35 64
        E 32 82 30 40
        E 0 82 39 40
        E 0 82 35 40
        E 16 92 30 64
        E 0 92 39 64
        E 0 92 35 64
        E 80 82 30 40
        E 0 82 39 40
        E 0 82 35 40
        E 304 92 2e 64
        E 80 82 2e 40
        E 16 92 3a 64
        E 0 92 32 64
        E 0 92 35 64
        E 32 82 3a 40
        E 0 82 32 40
        E 0 82 35 40
        E 16 92 3a 64
        E 0 92 32 64
        E 0 92 35 64
        E 32 82 3a 40
        E 0 82 32 40
        E 0 82 35 40
        E 16 92 3a 64
        E 0 92 32 64
        E 0 92 35 64
        E 80 82 3a 40
        E 0 82 32 40
        E 0 82 35 40
        E 16 92 3a 64
        E 0 92 32 64
        E 0 92 35 64
        E 80 82 3a 40
        E 0 82 32 40
        E 0 82 35 40
        E 16 92 26 64
        E 80 82 26 40
        E 16 92 36 64
        E 0 92 39 64
        E 0 92 32 64
        E 80 82 36 40
        E 0 82 39 40
        E 0 82 32 40
        E 16 92 2b 64
        E 80 82 2b 40
        E 16 92 32 64
        E 0 92 2e 64
        E 0 92 37 64
        E 32 82 32 40
        E 0 82 2e 40
        E 0 82 37 40
        E 16 92 37 64
        E 0 92 2e 64
        E 0 92 32 64
        E 32 82 37 40
        E 0 82 2e 40
        E 0 82 32 40
        E 16 92 32 64
        E 0 92 2e 64
        E 0 92 37 64
        E 80 82 32 40
        E 0 82 2e 40
        E 0 82 37 40
        E 16 92 32 64
        E 0 92 37 64
        E 0 92 2e 64
        E 80 82 32 40
        E 0 82 37 40
        E 0 82 2e 40
        E 16 92 2e 64
        E 80 82 2e 40
        E 16 92 37 64
        E 0 92 32 64
        E 80 82 37 40
        E 0 82 32 40
        E 16 92 30 64
        E 80 82 30 40
        E 16 92 35 64
        E 0 92 39 64
        E 32 82 35 40
        E 0 82 39 40
        E 16 92 35 64
        E 0 92 39 64
        E 32 82 35 40
        E 0 82 39 40
        E 16 92 39 64
        E 0 92 35 64
        E 80 82 39 40
        E 0 82 35 40
        E 16 92 35 64
        E 0 92 39 64
        E 80 82 35 40
        E 0 82 39 40
        E 16 92 30 64
        E 80 82 30 40
        E 16 92 3a 64
        E 0 92 34 64
        E 0 92 37 64
        E 80 82 3a 40
        E 0 82 34 40
        E 0 82 37 40
        E 16 92 29 64
        E 80 82 29 40
        E 16 92 30 64
        E 0 92 35 64
        E 0 92 39 64
        E 32 82 30 40
        E 0 82 35 40
        E 0 82 39 40
        E 16 92 30 64
        E 0 92 35 64
        E 0 92 39 64
        E 32 82 30 40
        E 0 82 35 40
        E 0 82 39 40
        E 16 92 30 64
        E 0 92 35 64
        E 0 92 39 64
        E 80 82 30 40
        E 0 82 35 40
        E 0 82 39 40
        E 16 92 30 64
        E 0 92 35 64
        E 0 92 39 64
        E 80 82 30 40
        E 0 82 35 40
        E 0 82 39 40
        E 16 92 30 64
        E 0 92 35 64
        E 0 92 39 64
        E 80 82 30 40
        E 0 82 35 40
        E 0 82 39 40
        E 16 92 30 64
        E 0 92 39 64
        E 0 92 35 64
        E 80 82 30 40
        E 0 82 39 40
        E 0 82 35 40
        E 16 92 2e 64
        E 80 82 2e 40
        E 16 92 3a 64
        E 0 92 32 64
        E 0 92 35 64
        E 32 82 3a 40
        E 0 82 32 40
        E 0 82 35 40
        E 16 92 32 64
        E 0 92 3a 64
        E 0 92 35 64
        E 32 82 32 40
        E 0 82 3a 40
        E 0 82 35 40
        E 16 92 32 64
        E 0 92 3a 64
        E 0 92 35 64
        E 80 82 32 40
        E 0 82 3a 40
        E 0 82 35 40
        E 16 92 32 64
        E 0 92 3a 64
        E 0 92 35 64
        E 80 82 32 40
        E 0 82 3a 40
        E 0 82 35 40
        E 16 92 26 64
        E 80 82 26 40
        E 16 92 39 64
        E 0 92 36 64
        E 0 92 32 64
        E 80 82 39 40
        E 0 82 36 40
        E 0 82 32 40
        E 16 92 2b 64
        E 80 82 2b 40
        E 16 92 2e 64
        E 0 92 37 64
        E 0 92 32 64
        E 32 82 2e 40
        E 0 82 37 40
        E 0 82 32 40
        E 16 92 32 64
        E 0 92 2e 64
        E 0 92 37 64
        E 32 82 32 40
        E 0 82 2e 40
        E 0 82 37 40
        E 16 92 2e 64
        E 0 92 37 64
        E 0 92 32 64
        E 80 82 2e 40
        E 0 82 37 40
        E 0 82 32 40
        E 16 92 2e 64
        E 0 92 37 64
        E 0 92 32 64
        E 80 82 2e 40
        E 0 82 37 40
        E 0 82 32 40
        E 16 92 2e 64
        E 80 82 2e 40
        E 16 92 37 64
        E 0 92 32 64
        E 80 82 37 40
        E 0 82 32 40
        E 16 92 30 64
        E 80 82 30 40
        E 16 92 35 64
        E 0 92 39 64
        E 32 82 35 40
        E 0 82 39 40
        E 16 92 35 64
        E 0 92 39 64
        E 32 82 35 40
        E 0 82 39 40
        E 16 92 35 64
        E 0 92 39 64
        E 80 82 35 40
        E 0 82 39 40
        E 16 92 35 64
        E 0 92 39 64
        E 80 82 35 40
        E 0 82 39 40
        E 16 92 30 64
        E 80 82 30 40
        E 16 92 3a 64
        E 0 92 37 64
        E 80 82 3a 40
        E 0 82 37 40
        E 16 92 35 64
        E 0 92 39 64
        E 176 82 35 40
        E 0 82 39 40
        E 16 92 29 64
        E 0 92 35 64
        E 80 82 29 40
        E 0 82 35 40
        E 112 b0 7b 00
        GUID {E1646D04-DB3C-D348-8FD9-EEAE54FB9607}
        IGNTEMPO 0 120 4 4
        SRCCOLOR 630
        VELLANE -1 86 6
      >
      TAKE
      NAME "L.H.                 - National_Anthems_-_Cyprus.mid"
      TAKEVOLPAN 0 1 -1
      SOFFS 1 2
      PLAYRATE 1 1 0 -1 0 0.0025
      CHANMODE 0
      GUID {A913D01F-D081-9741-A5F4-09E4284CA7FE}
      <SOURCE MIDI
        HASDATA 1 192 QN
        POOLEDEVTS {325251B5-3179-C847-B222-80F9C279C28D}
        <X 0 0 0 0 3 "L.H.                "
          /wNMLkguICAgICAgICAgICAgICAgIA==
        >
        E 576 92 35 64
        E 0 92 29 64
        E 80 82 35 40
        E 0 82 29 40
        E 16 92 3c 64
        E 0 92 39 64
        E 0 92 35 64
        E 32 82 3c 40
        E 0 82 39 40
        E 0 82 35 40
        E 16 92 39 64
        E 0 92 3c 64
        E 0 92 35 64
        E 32 82 39 40
        E 0 82 3c 40
        E 0 82 35 40
        E 16 92 35 64
        E 0 92 3c 64
        E 0 92 39 64
        E 80 82 35 40
        E 0 82 3c 40
        E 0 82 39 40
        E 16 92 3c 64
        E 0 92 35 64
        E 0 92 39 64
        E 80 82 3c 40
        E 0 82 35 40
        E 0 82 39 40
        E 16 92 35 64
        E 0 92 3c 64
        E 0 92 39 64
        E 80 82 35 40
        E 0 82 3c 40
        E 0 82 39 40
        E 16 92 3c 64
        E 0 92 35 64
        E 0 92 39 64
        E 80 82 3c 40
        E 0 82 35 40
        E 0 82 39 40
        E 16 92 29 64
        E 80 82 29 40
        E 16 92 35 64
        E 0 92 3c 64
        E 0 92 39 64
        E 32 82 35 40
        E 0 82 3c 40
        E 0 82 39 40
        E 16 92 3c 64
        E 0 92 39 64
        E 0 92 35 64
        E 32 82 3c 40
        E 0 82 39 40
        E 0 82 35 40
        E 16 92 3c 64
        E 0 92 35 64
        E 0 92 39 64
        E 80 82 3c 40
        E 0 82 35 40
        E 0 82 39 40
        E 16 92 35 64
        E 0 92 39 64
        E 0 92 3c 64
        E 80 82 35 40
        E 0 82 39 40
        E 0 82 3c 40
        E 16 92 39 64
        E 0 92 3c 64
        E 0 92 35 64
        E 80 82 39 40
        E 0 82 3c 40
        E 0 82 35 40
        E 16 92 39 64
        E 0 92 3c 64
        E 0 92 35 64
        E 80 82 39 40
        E 0 82 3c 40
        E 0 82 35 40
        E 16 92 2e 64
        E 80 82 2e 40
        E 16 92 3a 64
        E 0 92 37 64
        E 0 92 32 64
        E 32 82 3a 40
        E 0 82 37 40
        E 0 82 32 40
        E 16 92 32 64
        E 0 92 37 64
        E 0 92 3a 64
        E 32 82 32 40
        E 0 82 37 40
        E 0 82 3a 40
        E 16 92 37 64
        E 0 92 3a 64
        E 0 92 32 64
        E 80 82 37 40
        E 0 82 3a 40
        E 0 82 32 40
        E 16 92 3a 64
        E 0 92 32 64
        E 0 92 37 64
        E 80 82 3a 40
        E 0 82 32 40
        E 0 82 37 40
        E 16 92 24 64
        E 0 92 30 64
        E 80 82 24 40
        E 0 82 30 40
        E 16 92 3c 64
        E 0 92 34 64
        E 80 82 3c 40
        E 0 82 34 40
        E 16 92 29 64
        E 80 82 29 40
        E 16 92 3c 64
        E 0 92 35 64
        E 0 92 39 64
        E 32 82 3c 40
        E 0 82 35 40
        E 0 82 39 40
        E 16 92 35 64
        E 0 92 39 64
        E 0 92 3c 64
        E 32 82 35 40
        E 0 82 39 40
        E 0 82 3c 40
        E 16 92 3c 64
        E 0 92 35 64
        E 0 92 39 64
        E 80 82 3c 40
        E 0 82 35 40
        E 0 82 39 40
        E 16 92 39 64
        E 0 92 35 64
        E 0 92 3c 64
        E 80 82 39 40
        E 0 82 35 40
        E 0 82 3c 40
        E 208 92 24 64
        E 0 92 30 64
        E 80 82 24 40
        E 0 82 30 40
        E 16 92 3c 64
        E 0 92 3a 64
        E 0 92 34 64
        E 0 92 37 64
        E 32 82 3c 40
        E 0 82 3a 40
        E 0 82 34 40
        E 0 82 37 40
        E 16 92 3a 64
        E 0 92 34 64
        E 0 92 3c 64
        E 0 92 37 64
        E 32 82 3a 40
        E 0 82 34 40
        E 0 82 3c 40
        E 0 82 37 40
        E 16 92 34 64
        E 0 92 3c 64
        E 0 92 3a 64
        E 0 92 37 64
        E 80 82 34 40
        E 0 82 3c 40
        E 0 82 3a 40
        E 0 82 37 40
        E 16 92 34 64
        E 0 92 3a 64
        E 0 92 3c 64
        E 0 92 37 64
        E 80 82 34 40
        E 0 82 3a 40
        E 0 82 3c 40
        E 0 82 37 40
        E 16 92 3a 64
        E 0 92 34 64
        E 0 92 3c 64
        E 0 92 37 64
        E 80 82 3a 40
        E 0 82 34 40
        E 0 82 3c 40
        E 0 82 37 40
        E 16 92 3a 64
        E 0 92 34 64
        E 0 92 3c 64
        E 0 92 37 64
        E 80 82 3a 40
        E 0 82 34 40
        E 0 82 3c 40
        E 0 82 37 40
        E 16 92 30 64
        E 0 92 24 64
        E 80 82 30 40
        E 0 82 24 40
        E 16 92 34 64
        E 0 92 3a 64
        E 0 92 3c 64
        E 0 92 37 64
        E 32 82 34 40
        E 0 82 3a 40
        E 0 82 3c 40
        E 0 82 37 40
        E 16 92 3a 64
        E 0 92 34 64
        E 0 92 37 64
        E 0 92 3c 64
        E 32 82 3a 40
        E 0 82 34 40
        E 0 82 37 40
        E 0 82 3c 40
        E 16 92 3a 64
        E 0 92 34 64
        E 0 92 37 64
        E 0 92 3c 64
        E 80 82 3a 40
        E 0 82 34 40
        E 0 82 37 40
        E 0 82 3c 40
        E 16 92 34 64
        E 0 92 3a 64
        E 0 92 37 64
        E 0 92 3c 64
        E 80 82 34 40
        E 0 82 3a 40
        E 0 82 37 40
        E 0 82 3c 40
        E 16 92 3a 64
        E 0 92 34 64
        E 0 92 3c 64
        E 0 92 37 64
        E 80 82 3a 40
        E 0 82 34 40
        E 0 82 3c 40
        E 0 82 37 40
        E 16 92 3a 64
        E 0 92 34 64
        E 0 92 3c 64
        E 0 92 37 64
        E 80 82 3a 40
        E 0 82 34 40
        E 0 82 3c 40
        E 0 82 37 40
        E 16 92 24 64
        E 0 92 30 64
        E 80 82 24 40
        E 0 82 30 40
        E 16 92 3a 64
        E 0 92 34 64
        E 0 92 3c 64
        E 0 92 37 64
        E 32 82 3a 40
        E 0 82 34 40
        E 0 82 3c 40
        E 0 82 37 40
        E 16 92 34 64
        E 0 92 3a 64
        E 0 92 37 64
        E 0 92 3c 64
        E 32 82 34 40
        E 0 82 3a 40
        E 0 82 37 40
        E 0 82 3c 40
        E 16 92 3a 64
        E 0 92 34 64
        E 0 92 3c 64
        E 0 92 37 64
        E 80 82 3a 40
        E 0 82 34 40
        E 0 82 3c 40
        E 0 82 37 40
        E 16 92 3a 64
        E 0 92 34 64
        E 0 92 37 64
        E 0 92 3c 64
        E 80 82 3a 40
        E 0 82 34 40
        E 0 82 37 40
        E 0 82 3c 40
        E 16 92 3a 64
        E 0 92 3c 64
        E 0 92 34 64
        E 0 92 37 64
        E 80 82 3a 40
        E 0 82 3c 40
        E 0 82 34 40
        E 0 82 37 40
        E 16 92 3a 64
        E 0 92 34 64
        E 0 92 3c 64
        E 0 92 37 64
        E 80 82 3a 40
        E 0 82 34 40
        E 0 82 3c 40
        E 0 82 37 40
        E 16 92 29 64
        E 80 82 29 40
        E 16 92 35 64
        E 0 92 3c 64
        E 0 92 39 64
        E 32 82 35 40
        E 0 82 3c 40
        E 0 82 39 40
        E 16 92 35 64
        E 0 92 39 64
        E 0 92 3c 64
        E 32 82 35 40
        E 0 82 39 40
        E 0 82 3c 40
        E 16 92 39 64
        E 0 92 35 64
        E 0 92 3c 64
        E 176 82 39 40
        E 0 82 35 40
        E 0 82 3c 40
        E 208 92 26 64
        E 80 82 26 40
        E 16 92 32 64
        E 0 92 39 64
        E 0 92 35 64
        E 32 82 32 40
        E 0 82 39 40
        E 0 82 35 40
        E 16 92 32 64
        E 0 92 35 64
        E 0 92 39 64
        E 32 82 32 40
        E 0 82 35 40
        E 0 82 39 40
        E 16 92 32 64
        E 0 92 35 64
        E 0 92 39 64
        E 80 82 32 40
        E 0 82 35 40
        E 0 82 39 40
        E 16 92 32 64
        E 0 92 35 64
        E 0 92 39 64
        E 80 82 32 40
        E 0 82 35 40
        E 0 82 39 40
        E 16 92 2d 64
        E 80 82 2d 40
        E 16 92 39 64
        E 0 92 34 64
        E 0 92 37 64
        E 80 82 39 40
        E 0 82 34 40
        E 0 82 37 40
        E 16 92 26 64
        E 80 82 26 40
        E 16 92 32 64
        E 0 92 39 64
        E 0 92 35 64
        E 32 82 32 40
        E 0 82 39 40
        E 0 82 35 40
        E 16 92 32 64
        E 0 92 39 64
        E 0 92 35 64
        E 32 82 32 40
        E 0 82 39 40
        E 0 82 35 40
        E 16 92 32 64
        E 0 92 35 64
        E 0 92 39 64
        E 80 82 32 40
        E 0 82 35 40
        E 0 82 39 40
        E 16 92 32 64
        E 0 92 35 64
        E 0 92 39 64
        E 80 82 32 40
        E 0 82 35 40
        E 0 82 39 40
        E 16 92 32 64
        E 0 92 35 64
        E 0 92 39 64
        E 80 82 32 40
        E 0 82 35 40
        E 0 82 39 40
        E 16 92 32 64
        E 0 92 35 64
        E 0 92 39 64
        E 80 82 32 40
        E 0 82 35 40
        E 0 82 39 40
        E 16 92 26 64
        E 80 82 26 40
        E 16 92 32 64
        E 0 92 39 64
        E 0 92 35 64
        E 32 82 32 40
        E 0 82 39 40
        E 0 82 35 40
        E 16 92 32 64
        E 0 92 39 64
        E 0 92 35 64
        E 32 82 32 40
        E 0 82 39 40
        E 0 82 35 40
        E 16 92 32 64
        E 0 92 39 64
        E 0 92 35 64
        E 80 82 32 40
        E 0 82 39 40
        E 0 82 35 40
        E 16 92 35 64
        E 0 92 32 64
        E 0 92 39 64
        E 80 82 35 40
        E 0 82 32 40
        E 0 82 39 40
        E 16 92 2d 64
        E 80 82 2d 40
        E 16 92 34 64
        E 0 92 39 64
        E 0 92 37 64
        E 80 82 34 40
        E 0 82 39 40
        E 0 82 37 40
        E 16 92 26 64
        E 80 82 26 40
        E 16 92 39 64
        E 0 92 32 64
        E 0 92 35 64
        E 32 82 39 40
        E 0 82 32 40
        E 0 82 35 40
        E 16 92 35 64
        E 0 92 32 64
        E 0 92 39 64
        E 32 82 35 40
        E 0 82 32 40
        E 0 82 39 40
        E 16 92 39 64
        E 0 92 32 64
        E 0 92 35 64
        E 80 82 39 40
        E 0 82 32 40
        E 0 82 35 40
        E 304 92 3a 64
        E 0 92 34 64
        E 80 82 3a 40
        E 0 82 34 40
        E 112 92 30 64
        E 0 92 3a 64
        E 0 92 34 64
        E 80 82 30 40
        E 0 82 3a 40
        E 0 82 34 40
        E 16 92 30 64
        E 80 82 30 40
        E 16 92 3a 64
        E 0 92 34 64
        E 80 82 3a 40
        E 0 82 34 40
        E 16 92 30 64
        E 80 82 30 40
        E 16 92 39 64
        E 0 92 35 64
        E 80 82 39 40
        E 0 82 35 40
        E 16 92 30 64
        E 80 82 30 40
        E 16 92 35 64
        E 0 92 39 64
        E 80 82 35 40
        E 0 82 39 40
        E 16 92 30 64
        E 80 82 30 40
        E 16 92 35 64
        E 0 92 39 64
        E 80 82 35 40
        E 0 82 39 40
        E 16 92 30 64
        E 80 82 30 40
        E 16 92 3a 64
        E 0 92 34 64
        E 80 82 3a 40
        E 0 82 34 40
        E 16 92 30 64
        E 80 82 30 40
        E 16 92 3a 64
        E 0 92 34 64
        E 80 82 3a 40
        E 0 82 34 40
        E 16 92 30 64
        E 80 82 30 40
        E 16 92 3a 64
        E 0 92 34 64
        E 80 82 3a 40
        E 0 82 34 40
        E 16 92 30 64
        E 80 82 30 40
        E 16 92 29 64
        E 80 82 29 40
        E 16 92 30 64
        E 0 92 39 64
        E 0 92 35 64
        E 32 82 30 40
        E 0 82 39 40
        E 0 82 35 40
        E 16 92 30 64
        E 0 92 39 64
        E 0 92 35 64
        E 32 82 30 40
        E 0 82 39 40
        E 0 82 35 40
        E 16 92 30 64
        E 0 92 39 64
        E 0 92 35 64
        E 80 82 30 40
        E 0 82 39 40
        E 0 82 35 40
        E 304 92 2e 64
        E 80 82 2e 40
        E 16 92 3a 64
        E 0 92 32 64
        E 0 92 35 64
        E 32 82 3a 40
        E 0 82 32 40
        E 0 82 35 40
        E 16 92 3a 64
        E 0 92 32 64
        E 0 92 35 64
        E 32 82 3a 40
        E 0 82 32 40
        E 0 82 35 40
        E 16 92 3a 64
        E 0 92 32 64
        E 0 92 35 64
        E 80 82 3a 40
        E 0 82 32 40
        E 0 82 35 40
        E 16 92 3a 64
        E 0 92 32 64
        E 0 92 35 64
        E 80 82 3a 40
        E 0 82 32 40
        E 0 82 35 40
        E 16 92 26 64
        E 80 82 26 40
        E 16 92 36 64
        E 0 92 39 64
        E 0 92 32 64
        E 80 82 36 40
        E 0 82 39 40
        E 0 82 32 40
        E 16 92 2b 64
        E 80 82 2b 40
        E 16 92 32 64
        E 0 92 2e 64
        E 0 92 37 64
        E 32 82 32 40
        E 0 82 2e 40
        E 0 82 37 40
        E 16 92 37 64
        E 0 92 2e 64
        E 0 92 32 64
        E 32 82 37 40
        E 0 82 2e 40
        E 0 82 32 40
        E 16 92 32 64
        E 0 92 2e 64
        E 0 92 37 64
        E 80 82 32 40
        E 0 82 2e 40
        E 0 82 37 40
        E 16 92 32 64
        E 0 92 37 64
        E 0 92 2e 64
        E 80 82 32 40
        E 0 82 37 40
        E 0 82 2e 40
        E 16 92 2e 64
        E 80 82 2e 40
        E 16 92 37 64
        E 0 92 32 64
        E 80 82 37 40
        E 0 82 32 40
        E 16 92 30 64
        E 80 82 30 40
        E 16 92 35 64
        E 0 92 39 64
        E 32 82 35 40
        E 0 82 39 40
        E 16 92 35 64
        E 0 92 39 64
        E 32 82 35 40
        E 0 82 39 40
        E 16 92 39 64
        E 0 92 35 64
        E 80 82 39 40
        E 0 82 35 40
        E 16 92 35 64
        E 0 92 39 64
        E 80 82 35 40
        E 0 82 39 40
        E 16 92 30 64
        E 80 82 30 40
        E 16 92 3a 64
        E 0 92 34 64
        E 0 92 37 64
        E 80 82 3a 40
        E 0 82 34 40
        E 0 82 37 40
        E 16 92 29 64
        E 80 82 29 40
        E 16 92 30 64
        E 0 92 35 64
        E 0 92 39 64
        E 32 82 30 40
        E 0 82 35 40
        E 0 82 39 40
        E 16 92 30 64
        E 0 92 35 64
        E 0 92 39 64
        E 32 82 30 40
        E 0 82 35 40
        E 0 82 39 40
        E 16 92 30 64
        E 0 92 35 64
        E 0 92 39 64
        E 80 82 30 40
        E 0 82 35 40
        E 0 82 39 40
        E 16 92 30 64
        E 0 92 35 64
        E 0 92 39 64
        E 80 82 30 40
        E 0 82 35 40
        E 0 82 39 40
        E 16 92 30 64
        E 0 92 35 64
        E 0 92 39 64
        E 80 82 30 40
        E 0 82 35 40
        E 0 82 39 40
        E 16 92 30 64
        E 0 92 39 64
        E 0 92 35 64
        E 80 82 30 40
        E 0 82 39 40
        E 0 82 35 40
        E 16 92 2e 64
        E 80 82 2e 40
        E 16 92 3a 64
        E 0 92 32 64
        E 0 92 35 64
        E 32 82 3a 40
        E 0 82 32 40
        E 0 82 35 40
        E 16 92 32 64
        E 0 92 3a 64
        E 0 92 35 64
        E 32 82 32 40
        E 0 82 3a 40
        E 0 82 35 40
        E 16 92 32 64
        E 0 92 3a 64
        E 0 92 35 64
        E 80 82 32 40
        E 0 82 3a 40
        E 0 82 35 40
        E 16 92 32 64
        E 0 92 3a 64
        E 0 92 35 64
        E 80 82 32 40
        E 0 82 3a 40
        E 0 82 35 40
        E 16 92 26 64
        E 80 82 26 40
        E 16 92 39 64
        E 0 92 36 64
        E 0 92 32 64
        E 80 82 39 40
        E 0 82 36 40
        E 0 82 32 40
        E 16 92 2b 64
        E 80 82 2b 40
        E 16 92 2e 64
        E 0 92 37 64
        E 0 92 32 64
        E 32 82 2e 40
        E 0 82 37 40
        E 0 82 32 40
        E 16 92 32 64
        E 0 92 2e 64
        E 0 92 37 64
        E 32 82 32 40
        E 0 82 2e 40
        E 0 82 37 40
        E 16 92 2e 64
        E 0 92 37 64
        E 0 92 32 64
        E 80 82 2e 40
        E 0 82 37 40
        E 0 82 32 40
        E 16 92 2e 64
        E 0 92 37 64
        E 0 92 32 64
        E 80 82 2e 40
        E 0 82 37 40
        E 0 82 32 40
        E 16 92 2e 64
        E 80 82 2e 40
        E 16 92 37 64
        E 0 92 32 64
        E 80 82 37 40
        E 0 82 32 40
        E 16 92 30 64
        E 80 82 30 40
        E 16 92 35 64
        E 0 92 39 64
        E 32 82 35 40
        E 0 82 39 40
        E 16 92 35 64
        E 0 92 39 64
        E 32 82 35 40
        E 0 82 39 40
        E 16 92 35 64
        E 0 92 39 64
        E 80 82 35 40
        E 0 82 39 40
        E 16 92 35 64
        E 0 92 39 64
        E 80 82 35 40
        E 0 82 39 40
        E 16 92 30 64
        E 80 82 30 40
        E 16 92 3a 64
        E 0 92 37 64
        E 80 82 3a 40
        E 0 82 37 40
        E 16 92 35 64
        E 0 92 39 64
        E 176 82 35 40
        E 0 82 39 40
        E 16 92 29 64
        E 0 92 35 64
        E 80 82 29 40
        E 0 82 35 40
        E 112 b0 7b 00
        GUID {3D1A3879-5EC1-F541-A48D-A174F8CFADBC}
        IGNTEMPO 0 120 4 4
        SRCCOLOR 683
        VELLANE -1 108 6
      >
    >
  >
  <TRACK {3C494A2B-9670-9740-AD22-E42CC5065FE1}
    NAME "ch2,4 (send)"
    PEAKCOL 16576
    BEAT -1
    AUTOMODE 0
    VOLPAN 0.96450352403557 0 -1 -1 1
    MUTESOLO 0 0 0
    IPHASE 0
    ISBUS 0 0
    BUSCOMP 0 0
    SHOWINMIX 1 0.6667 0.5 1 0.5 0 0 0
    FREEMODE 0
    SEL 0
    REC 0 0 0 0 0 0 0
    VU 2
    MIDICTL -1 1
    TRACKHEIGHT 0 0
    INQ 0 0 0 0.5 100 0 0 100
    NCHAN 2
    FX 1
    TRACKID {3C494A2B-9670-9740-AD22-E42CC5065FE1}
    PERF 0
    MIDIOUT -1
    MAINSEND 1 0
    <FXCHAIN
      WNDRECT 32 359 724 387
      SHOW 0
      LASTSEL 0
      DOCKED 0
    >
    <ITEM
      POSITION 0
      SNAPOFFS 0
      LENGTH 36
      LOOP 1
      ALLTAKES 0
      FADEIN 1 0 0 1 0 0
      FADEOUT 1 0 0 1 0 0
      MUTE 0
      SEL 0
      YPOS 0.5 0.25
      IGUID {E26AABC4-46CF-9F46-8B78-6439157C92DA}
      IID 2
      NAME "R.H.                 - National_Anthems_-_Cyprus.mid"
      VOLPAN 1 0 1 -1
      SOFFS 1 2
      PLAYRATE 1 1 0 -1 0 0.0025
      CHANMODE 0
      TAKECOLOR 26173599 B
      GUID {58A6E3A9-3C3B-0C48-92EF-9B17D84E6BAF}
      <SOURCE MIDI
        HASDATA 1 192 QN
        POOLEDEVTS {B5C49110-3949-0142-8DAD-A7ADD536E615}
        <X 0 0 0 0 3 "R.H.                "
          /wNSLkguICAgICAgICAgICAgICAgIA==
        >
        e 384 91 41 64
        e 0 91 45 64
        e 128 81 41 40
        e 0 81 45 40
        e 16 91 46 64
        e 0 91 43 64
        e 32 81 46 40
        e 0 81 43 40
        e 16 91 45 64
        e 0 91 48 64
        e 320 81 45 40
        e 0 81 48 40
        e 16 91 46 64
        e 0 91 43 64
        e 32 81 46 40
        e 0 81 43 40
        e 16 91 45 64
        e 0 91 41 64
        e 128 81 45 40
        e 0 81 41 40
        e 16 91 46 64
        e 0 91 43 64
        e 32 81 46 40
        e 0 81 43 40
        e 16 91 48 64
        e 0 91 45 64
        e 176 81 48 40
        e 0 81 45 40
        e 16 91 45 64
        e 0 91 41 64
        e 80 81 45 40
        e 0 81 41 40
        e 112 91 46 64
        e 0 91 43 64
        e 128 81 46 40
        e 0 81 43 40
        e 16 91 45 64
        e 0 91 48 64
        e 32 81 45 40
        e 0 81 48 40
        e 16 91 4a 64
        e 0 91 46 64
        e 320 81 4a 40
        e 0 81 46 40
        e 16 91 46 64
        e 0 91 4a 64
        e 32 81 46 40
        e 0 81 4a 40
        e 16 91 48 64
        e 0 91 4c 64
        e 128 81 48 40
        e 0 81 4c 40
        e 16 91 48 64
        e 0 91 4c 64
        e 32 81 48 40
        e 0 81 4c 40
        e 16 91 4d 64
        e 0 91 45 64
        e 272 81 4d 40
        e 0 81 45 40
        e 112 91 40 64
        e 0 91 43 64
        e 128 81 40 40
        e 0 81 43 40
        e 16 91 45 64
        e 0 91 41 64
        e 32 81 45 40
        e 0 81 41 40
        e 16 91 46 64
        e 0 91 43 64
        e 320 81 46 40
        e 0 81 43 40
        e 16 91 45 64
        e 0 91 41 64
        e 32 81 45 40
        e 0 81 41 40
        e 16 91 43 64
        e 0 91 40 64
        e 128 81 43 40
        e 0 81 40 40
        e 16 91 41 64
        e 0 91 45 64
        e 32 81 41 40
        e 0 81 45 40
        e 16 91 46 64
        e 0 91 43 64
        e 176 81 46 40
        e 0 81 43 40
        e 16 91 40 64
        e 0 91 43 64
        e 80 81 40 40
        e 0 81 43 40
        e 112 91 48 64
        e 128 81 48 40
        e 16 91 48 64
        e 32 81 48 40
        e 16 91 4c 64
        e 0 91 48 64
        e 320 81 4c 40
        e 0 81 48 40
        e 16 91 4a 64
        e 0 91 46 64
        e 32 81 4a 40
        e 0 81 46 40
        e 16 91 45 64
        e 0 91 48 64
        e 128 81 45 40
        e 0 81 48 40
        e 16 91 46 64
        e 0 91 43 64
        e 32 81 46 40
        e 0 81 43 40
        e 16 91 41 64
        e 0 91 45 64
        e 272 81 41 40
        e 0 81 45 40
        e 112 91 45 64
        e 128 81 45 40
        e 16 91 45 64
        e 32 81 45 40
        e 16 91 41 64
        e 0 91 45 64
        e 0 91 4a 64
        e 320 81 4a 40
        e 16 91 4d 64
        e 32 81 41 40
        e 0 81 45 40
        e 0 81 4d 40
        e 16 91 45 64
        e 0 91 43 64
        e 0 91 4c 64
        e 128 81 4c 40
        e 16 91 49 64
        e 32 81 45 40
        e 0 81 43 40
        e 0 81 49 40
        e 16 91 45 64
        e 0 91 4a 64
        e 0 91 41 64
        e 176 81 45 40
        e 0 81 4a 40
        e 16 91 45 64
        e 80 81 45 40
        e 96 81 41 40
        e 16 91 45 64
        e 128 81 45 40
        e 16 91 45 64
        e 32 81 45 40
        e 16 91 45 64
        e 0 91 4a 64
        e 0 91 41 64
        e 320 81 4a 40
        e 16 91 4d 64
        e 32 81 45 40
        e 0 81 41 40
        e 0 81 4d 40
        e 16 91 45 64
        e 0 91 4c 64
        e 0 91 43 64
        e 128 81 4c 40
        e 16 91 49 64
        e 32 81 45 40
        e 0 81 43 40
        e 0 81 49 40
        e 16 91 45 64
        e 0 91 41 64
        e 0 91 4a 64
        e 272 81 45 40
        e 0 81 41 40
        e 0 81 4a 40
        e 112 91 48 64
        e 128 81 48 40
        e 16 91 48 64
        e 32 81 48 40
        e 16 91 48 64
        e 176 81 48 40
        e 16 91 4c 64
        e 0 91 46 64
        e 0 91 48 64
        e 176 81 4c 40
        e 0 81 46 40
        e 0 81 48 40
        e 16 91 48 64
        e 0 91 46 64
        e 128 81 48 40
        e 0 81 46 40
        e 16 91 46 64
        e 0 91 48 64
        e 32 81 46 40
        e 0 81 48 40
        e 16 91 45 64
        e 0 91 48 64
        e 176 81 45 40
        e 0 81 48 40
        e 16 91 4d 64
        e 0 91 48 64
        e 0 91 45 64
        e 176 81 4d 40
        e 0 81 48 40
        e 0 81 45 40
        e 16 91 45 64
        e 0 91 48 64
        e 128 81 45 40
        e 0 81 48 40
        e 16 91 48 64
        e 0 91 45 64
        e 32 81 48 40
        e 0 81 45 40
        e 16 91 48 64
        e 0 91 46 64
        e 176 81 48 40
        e 0 81 46 40
        e 16 91 46 64
        e 0 91 4c 64
        e 0 91 43 64
        e 80 81 46 40
        e 0 81 4c 40
        e 0 81 43 40
        e 64 91 48 64
        e 32 81 48 40
        e 16 91 4a 64
        e 128 81 4a 40
        e 16 91 4c 64
        e 32 81 4c 40
        e 16 91 45 64
        e 0 91 4d 64
        e 272 81 45 40
        e 0 81 4d 40
        e 112 91 45 64
        e 0 91 4d 64
        e 128 81 45 40
        e 0 81 4d 40
        e 16 91 4c 64
        e 0 91 48 64
        e 32 81 4c 40
        e 0 81 48 40
        e 16 91 48 64
        e 0 91 4c 64
        e 176 81 48 40
        e 0 81 4c 40
        e 16 91 46 64
        e 0 91 4a 64
        e 80 81 46 40
        e 0 81 4a 40
        e 112 91 46 64
        e 0 91 4a 64
        e 128 81 46 40
        e 0 81 4a 40
        e 16 91 48 64
        e 0 91 45 64
        e 32 81 48 40
        e 0 81 45 40
        e 16 91 45 64
        e 0 91 48 64
        e 176 81 45 40
        e 0 81 48 40
        e 16 91 46 64
        e 0 91 43 64
        e 80 81 46 40
        e 0 81 43 40
        e 112 91 46 64
        e 0 91 4a 64
        e 128 81 46 40
        e 0 81 4a 40
        e 16 91 4a 64
        e 0 91 46 64
        e 32 81 4a 40
        e 0 81 46 40
        e 16 91 45 64
        e 0 91 48 64
        e 320 81 45 40
        e 0 81 48 40
        e 16 91 41 64
        e 0 91 45 64
        e 32 81 41 40
        e 0 81 45 40
        e 16 91 46 64
        e 0 91 43 64
        e 128 81 46 40
        e 0 81 43 40
        e 16 91 43 64
        e 0 91 40 64
        e 32 81 43 40
        e 0 81 40 40
        e 16 91 46 64
        e 0 91 43 64
        e 176 81 46 40
        e 0 81 43 40
        e 16 91 41 64
        e 0 91 45 64
        e 80 81 41 40
        e 0 81 45 40
        e 112 91 4d 64
        e 0 91 45 64
        e 128 81 4d 40
        e 0 81 45 40
        e 16 91 4c 64
        e 0 91 48 64
        e 32 81 4c 40
        e 0 81 48 40
        e 16 91 48 64
        e 0 91 4c 64
        e 176 81 48 40
        e 0 81 4c 40
        e 16 91 46 64
        e 0 91 4a 64
        e 80 81 46 40
        e 0 81 4a 40
        e 112 91 4a 64
        e 0 91 46 64
        e 128 81 4a 40
        e 0 81 46 40
        e 16 91 45 64
        e 0 91 48 64
        e 32 81 45 40
        e 0 81 48 40
        e 16 91 45 64
        e 0 91 48 64
        e 176 81 45 40
        e 0 81 48 40
        e 16 91 46 64
        e 0 91 43 64
        e 80 81 46 40
        e 0 81 43 40
        e 112 91 46 64
        e 0 91 4a 64
        e 128 81 46 40
        e 0 81 4a 40
        e 16 91 4a 64
        e 0 91 46 64
        e 32 81 4a 40
        e 0 81 46 40
        e 16 91 45 64
        e 0 91 48 64
        e 320 81 45 40
        e 0 81 48 40
        e 16 91 45 64
        e 0 91 41 64
        e 32 81 45 40
        e 0 81 41 40
        e 16 91 46 64
        e 0 91 43 64
        e 128 81 46 40
        e 0 81 43 40
        e 16 91 40 64
        e 0 91 43 64
        e 32 81 40 40
        e 0 81 43 40
        e 16 91 41 64
        e 176 81 41 40
        e 16 91 45 64
        e 0 91 4d 64
        e 0 91 48 64
        e 80 81 45 40
        e 0 81 4d 40
        e 0 81 48 40
        E 112 b0 7b 00
        GUID {60B9579C-44E1-C145-A4C2-AEF4230DC61A}
        IGNTEMPO 0 120 4 4
        SRCCOLOR 629
        VELLANE -1 86 6
        CFGEDITVIEW -1669.619688 28.048037 50 12 0 0 0 0 0 0.5
        KEYSNAP 0
        TRACKSEL 226
        EVTFILTER 0 -1 -1 -1 -1 0 0 0 0 -1 -1 -1 -1 0 -1 0 -1 -1
        CFGEDIT 1 1 0 0 0 0 1 0 1 1 1 0.25 0 187 878 778 0 0 1 3 0 0 0 0 0 -1 0 0 1 64
      >
      TAKE
      NAME "R.H.                 - National_Anthems_-_Cyprus.mid"
      TAKEVOLPAN 0 1 -1
      SOFFS 1 2
      PLAYRATE 1 1 0 -1 0 0.0025
      CHANMODE 0
      GUID {736FD69A-434F-D247-945F-EC8AF47C21B6}
      <SOURCE MIDI
        HASDATA 1 192 QN
        POOLEDEVTS {8DC536F3-727B-8840-9A7F-48FEC2304BDF}
        <X 0 0 0 0 3 "R.H.                "
          /wNSLkguICAgICAgICAgICAgICAgIA==
        >
        E 384 91 41 64
        E 0 91 45 64
        E 128 81 41 40
        E 0 81 45 40
        E 16 91 46 64
        E 0 91 43 64
        E 32 81 46 40
        E 0 81 43 40
        E 16 91 45 64
        E 0 91 48 64
        E 320 81 45 40
        E 0 81 48 40
        E 16 91 46 64
        E 0 91 43 64
        E 32 81 46 40
        E 0 81 43 40
        E 16 91 45 64
        E 0 91 41 64
        E 128 81 45 40
        E 0 81 41 40
        E 16 91 46 64
        E 0 91 43 64
        E 32 81 46 40
        E 0 81 43 40
        E 16 91 48 64
        E 0 91 45 64
        E 176 81 48 40
        E 0 81 45 40
        E 16 91 45 64
        E 0 91 41 64
        E 80 81 45 40
        E 0 81 41 40
        E 112 91 46 64
        E 0 91 43 64
        E 128 81 46 40
        E 0 81 43 40
        E 16 91 45 64
        E 0 91 48 64
        E 32 81 45 40
        E 0 81 48 40
        E 16 91 4a 64
        E 0 91 46 64
        E 320 81 4a 40
        E 0 81 46 40
        E 16 91 46 64
        E 0 91 4a 64
        E 32 81 46 40
        E 0 81 4a 40
        E 16 91 48 64
        E 0 91 4c 64
        E 128 81 48 40
        E 0 81 4c 40
        E 16 91 48 64
        E 0 91 4c 64
        E 32 81 48 40
        E 0 81 4c 40
        E 16 91 4d 64
        E 0 91 45 64
        E 272 81 4d 40
        E 0 81 45 40
        E 112 91 40 64
        E 0 91 43 64
        E 128 81 40 40
        E 0 81 43 40
        E 16 91 45 64
        E 0 91 41 64
        E 32 81 45 40
        E 0 81 41 40
        E 16 91 46 64
        E 0 91 43 64
        E 320 81 46 40
        E 0 81 43 40
        E 16 91 45 64
        E 0 91 41 64
        E 32 81 45 40
        E 0 81 41 40
        E 16 91 43 64
        E 0 91 40 64
        E 128 81 43 40
        E 0 81 40 40
        E 16 91 41 64
        E 0 91 45 64
        E 32 81 41 40
        E 0 81 45 40
        E 16 91 46 64
        E 0 91 43 64
        E 176 81 46 40
        E 0 81 43 40
        E 16 91 40 64
        E 0 91 43 64
        E 80 81 40 40
        E 0 81 43 40
        E 112 91 48 64
        E 128 81 48 40
        E 16 91 48 64
        E 32 81 48 40
        E 16 91 4c 64
        E 0 91 48 64
        E 320 81 4c 40
        E 0 81 48 40
        E 16 91 4a 64
        E 0 91 46 64
        E 32 81 4a 40
        E 0 81 46 40
        E 16 91 45 64
        E 0 91 48 64
        E 128 81 45 40
        E 0 81 48 40
        E 16 91 46 64
        E 0 91 43 64
        E 32 81 46 40
        E 0 81 43 40
        E 16 91 41 64
        E 0 91 45 64
        E 272 81 41 40
        E 0 81 45 40
        E 112 91 45 64
        E 128 81 45 40
        E 16 91 45 64
        E 32 81 45 40
        E 16 91 41 64
        E 0 91 45 64
        E 0 91 4a 64
        E 320 81 4a 40
        E 16 91 4d 64
        E 32 81 41 40
        E 0 81 45 40
        E 0 81 4d 40
        E 16 91 45 64
        E 0 91 43 64
        E 0 91 4c 64
        E 128 81 4c 40
        E 16 91 49 64
        E 32 81 45 40
        E 0 81 43 40
        E 0 81 49 40
        E 16 91 45 64
        E 0 91 4a 64
        E 0 91 41 64
        E 176 81 45 40
        E 0 81 4a 40
        E 16 91 45 64
        E 80 81 45 40
        E 96 81 41 40
        E 16 91 45 64
        E 128 81 45 40
        E 16 91 45 64
        E 32 81 45 40
        E 16 91 45 64
        E 0 91 4a 64
        E 0 91 41 64
        E 320 81 4a 40
        E 16 91 4d 64
        E 32 81 45 40
        E 0 81 41 40
        E 0 81 4d 40
        E 16 91 45 64
        E 0 91 4c 64
        E 0 91 43 64
        E 128 81 4c 40
        E 16 91 49 64
        E 32 81 45 40
        E 0 81 43 40
        E 0 81 49 40
        E 16 91 45 64
        E 0 91 41 64
        E 0 91 4a 64
        E 272 81 45 40
        E 0 81 41 40
        E 0 81 4a 40
        E 112 91 48 64
        E 128 81 48 40
        E 16 91 48 64
        E 32 81 48 40
        E 16 91 48 64
        E 176 81 48 40
        E 16 91 4c 64
        E 0 91 46 64
        E 0 91 48 64
        E 176 81 4c 40
        E 0 81 46 40
        E 0 81 48 40
        E 16 91 48 64
        E 0 91 46 64
        E 128 81 48 40
        E 0 81 46 40
        E 16 91 46 64
        E 0 91 48 64
        E 32 81 46 40
        E 0 81 48 40
        E 16 91 45 64
        E 0 91 48 64
        E 176 81 45 40
        E 0 81 48 40
        E 16 91 4d 64
        E 0 91 48 64
        E 0 91 45 64
        E 176 81 4d 40
        E 0 81 48 40
        E 0 81 45 40
        E 16 91 45 64
        E 0 91 48 64
        E 128 81 45 40
        E 0 81 48 40
        E 16 91 48 64
        E 0 91 45 64
        E 32 81 48 40
        E 0 81 45 40
        E 16 91 48 64
        E 0 91 46 64
        E 176 81 48 40
        E 0 81 46 40
        E 16 91 46 64
        E 0 91 4c 64
        E 0 91 43 64
        E 80 81 46 40
        E 0 81 4c 40
        E 0 81 43 40
        E 64 91 48 64
        E 32 81 48 40
        E 16 91 4a 64
        E 128 81 4a 40
        E 16 91 4c 64
        E 32 81 4c 40
        E 16 91 45 64
        E 0 91 4d 64
        E 272 81 45 40
        E 0 81 4d 40
        E 112 91 45 64
        E 0 91 4d 64
        E 128 81 45 40
        E 0 81 4d 40
        E 16 91 4c 64
        E 0 91 48 64
        E 32 81 4c 40
        E 0 81 48 40
        E 16 91 48 64
        E 0 91 4c 64
        E 176 81 48 40
        E 0 81 4c 40
        E 16 91 46 64
        E 0 91 4a 64
        E 80 81 46 40
        E 0 81 4a 40
        E 112 91 46 64
        E 0 91 4a 64
        E 128 81 46 40
        E 0 81 4a 40
        E 16 91 48 64
        E 0 91 45 64
        E 32 81 48 40
        E 0 81 45 40
        E 16 91 45 64
        E 0 91 48 64
        E 176 81 45 40
        E 0 81 48 40
        E 16 91 46 64
        E 0 91 43 64
        E 80 81 46 40
        E 0 81 43 40
        E 112 91 46 64
        E 0 91 4a 64
        E 128 81 46 40
        E 0 81 4a 40
        E 16 91 4a 64
        E 0 91 46 64
        E 32 81 4a 40
        E 0 81 46 40
        E 16 91 45 64
        E 0 91 48 64
        E 320 81 45 40
        E 0 81 48 40
        E 16 91 41 64
        E 0 91 45 64
        E 32 81 41 40
        E 0 81 45 40
        E 16 91 46 64
        E 0 91 43 64
        E 128 81 46 40
        E 0 81 43 40
        E 16 91 43 64
        E 0 91 40 64
        E 32 81 43 40
        E 0 81 40 40
        E 16 91 46 64
        E 0 91 43 64
        E 176 81 46 40
        E 0 81 43 40
        E 16 91 41 64
        E 0 91 45 64
        E 80 81 41 40
        E 0 81 45 40
        E 112 91 4d 64
        E 0 91 45 64
        E 128 81 4d 40
        E 0 81 45 40
        E 16 91 4c 64
        E 0 91 48 64
        E 32 81 4c 40
        E 0 81 48 40
        E 16 91 48 64
        E 0 91 4c 64
        E 176 81 48 40
        E 0 81 4c 40
        E 16 91 46 64
        E 0 91 4a 64
        E 80 81 46 40
        E 0 81 4a 40
        E 112 91 4a 64
        E 0 91 46 64
        E 128 81 4a 40
        E 0 81 46 40
        E 16 91 45 64
        E 0 91 48 64
        E 32 81 45 40
        E 0 81 48 40
        E 16 91 45 64
        E 0 91 48 64
        E 176 81 45 40
        E 0 81 48 40
        E 16 91 46 64
        E 0 91 43 64
        E 80 81 46 40
        E 0 81 43 40
        E 112 91 46 64
        E 0 91 4a 64
        E 128 81 46 40
        E 0 81 4a 40
        E 16 91 4a 64
        E 0 91 46 64
        E 32 81 4a 40
        E 0 81 46 40
        E 16 91 45 64
        E 0 91 48 64
        E 320 81 45 40
        E 0 81 48 40
        E 16 91 45 64
        E 0 91 41 64
        E 32 81 45 40
        E 0 81 41 40
        E 16 91 46 64
        E 0 91 43 64
        E 128 81 46 40
        E 0 81 43 40
        E 16 91 40 64
        E 0 91 43 64
        E 32 81 40 40
        E 0 81 43 40
        E 16 91 41 64
        E 176 81 41 40
        E 16 91 45 64
        E 0 91 4d 64
        E 0 91 48 64
        E 80 81 45 40
        E 0 81 4d 40
        E 0 81 48 40
        E 112 b0 7b 00
        GUID {6A3F475A-AE83-CD41-8D32-FB4790CE30BC}
        IGNTEMPO 0 120 4 4
        SRCCOLOR 682
        VELLANE -1 108 6
      >
    >
  >
  <TRACK {97C14EE2-C273-C940-9D68-54C062C3CBCA}
    NAME ChipFront
    PEAKCOL 16576
    BEAT -1
    AUTOMODE 0
    VOLPAN 1 0 -1 -1 1
    MUTESOLO 0 0 0
    IPHASE 0
    ISBUS 0 0
    BUSCOMP 0 0
    SHOWINMIX 1 0.6667 0.5 1 0.5 0 0 0
    FREEMODE 0
    SEL 0
    REC 0 0 0 0 0 0 0
    VU 2
    TRACKHEIGHT 0 0
    INQ 0 0 0 0.5 100 0 0 100
    NCHAN 2
    FX 1
    TRACKID {97C14EE2-C273-C940-9D68-54C062C3CBCA}
    PERF 0
    AUXRECV 4 0 1 0 0 0 0 0 0 -1:U 0 -1 ''
    MIDIOUT -1
    MAINSEND 1 0
    <FXCHAIN
      SHOW 0
      LASTSEL 0
      DOCKED 0
      BYPASS 1 0 0
      <VST "VST: FabFilter Volcano 2 (SC) (FabFilter)" "FabFilter Volcano 2 (SC).vst" 0 "" 1180054068
        NDJWRu9e7f4EAAAAAQAAAAAAAAACAAAAAAAAAAQAAAAAAAAACAAAAAAAAAAEAAAAAQAAAAAAAAACAAAAAAAAAAQAAAAAAAAACAAAAAAAAADcCwAAAAAAAAAAEAA=
        776t3g3wrd4AAAA/AAAAPwAAAD8AAAA/AACAPwAAAAAAAIA/q6qqPvv6LD8AAAA/TxqgPc3MzD0AAAAAAAAAAEKGIj8AAIA/AACAP0Isdj8AAAA/bbDgPZqZGT8AAAAA
        AAAAAOev3zwAAIA/AAAAAAAAgD8AAAA/AAAAAJqZGT8AAAAAAAAAAAAAAAAAAIA/AAAAAAAAgD8AAAA/AAAAAJqZGT8AAAAAAAAAAAAAAAAAAIA/AAAAAKuqqj6CdAA9
        EObJPZgn+j4AAIA/AAAAAAAAAACJiAg+AACAP7PDtD4AAIA/AAAAAAAAAAAAAAAAq6qqPgAAAACeFR0/AAAAAAAAgD8AAAAAAAAAPwAAAAAAAAAAAAAAAAAAAD8AAAAA
        AAAAAAAAAAAAAAA/AAAAAAAAAAAAAAAAAAAAPwAAAAAAAAAAAAAAAAAAAD8AAAAAAAAAAAAAAAAAAAA/AAAAAAAAAAAAAAAAAAAAPwAAAAAAAAAAAAAAAAAAAD8AAAAA
        AAAAAAAAAAAAAAA/AAAAAAAAAAAAAAAAAAAAPwAAAAAAAAAAAAAAAAAAAD8AAAAAAAAAAAAAAAAAAAA/AAAAAAAAAAAAAAAAAAAAPwAAAAAAAAAAAAAAAHwZED4AAAA/
        KKO3PQAAgD8AAAAAAAAAAImIiD3y0iU/AAAAAAAAgD8AAAAAdGjRPQAAAAAAAIA/AAAAAAAAAD8AAAAAAAAAAAAAAAAAAAA/AAAAAAAAAAAAAAAAAAAAPwAAAAAAAAAA
        AAAAAAAAAD8AAAAAAAAAAAAAAAAAAAA/AAAAAAAAAAAAAAAAAAAAPwAAAAAAAAAAAAAAAAAAAD8AAAAAAAAAAAAAAAAAAAA/AAAAAAAAAAAAAAAAAAAAPwAAAAAAAAAA
        AAAAAAAAAD8AAAAAAAAAAAAAAAAAAAA/AAAAAAAAAAAAAAAAAAAAPwAAAAAAAAAAAAAAAAAAAD8AAAAAAAAAAAAAAAAAAAA/AAAAAAAAAAAAAAAAvvR9PgAAAD8AAAA/
        AAAAPwAAAAAAAAAAiYiIPQAAAD8AAAAAAAAAAAAAAAAAAAA/AAAAAAAAAAAAAAAAAAAAPwAAAAAAAAAAAAAAAAAAAD8AAAAAAAAAAAAAAAAAAAA/AAAAAAAAAAAAAAAA
        AAAAPwAAAAAAAAAAAAAAAAAAAD8AAAAAAAAAAAAAAAAAAAA/AAAAAAAAAAAAAAAAAAAAPwAAAAAAAAAAAAAAAAAAAD8AAAAAAAAAAAAAAAAAAAA/AAAAAAAAAAAAAAAA
        AAAAPwAAAAAAAAAAAAAAAAAAAD8AAAAAAAAAAAAAAAAAAAA/AAAAAAAAAAAAAAAAAAAAPwAAAAAAAAAAAAAAAAAAAD8AAAAAAAAAAAAAAAC+9H0+AAAAPwAAAD8AAAA/
        AAAAAAAAAACJiIg9AAAAPwAAAAAAAAAAAAAAAAAAAD8AAAAAAAAAAAAAAAAAAAA/AAAAAAAAAAAAAAAAAAAAPwAAAAAAAAAAAAAAAAAAAD8AAAAAAAAAAAAAAAAAAAA/
        AAAAAAAAAAAAAAAAAAAAPwAAAAAAAAAAAAAAAAAAAD8AAAAAAAAAAAAAAAAAAAA/AAAAAAAAAAAAAAAAAAAAPwAAAAAAAAAAAAAAAAAAAD8AAAAAAAAAAAAAAAAAAAA/
        AAAAAAAAAAAAAAAAAAAAPwAAAAAAAAAAAAAAAAAAAD8AAAAAAAAAAAAAAAAAAAA/AAAAAAAAAAAAAAAAAAAAPwAAAAAAAAAAAAAAAL70fT4AAAA/AAAAPwAAAD8AAAAA
        AAAAAImIiD0AAAA/AAAAAAAAAAAAAAAAAAAAPwAAAAAAAAAAAAAAAAAAAD8AAAAAAAAAAAAAAAAAAAA/AAAAAAAAAAAAAAAAAAAAPwAAAAAAAAAAAAAAAAAAAD8AAAAA
        AAAAAAAAAAAAAAA/AAAAAAAAAAAAAAAAAAAAPwAAAAAAAAAAAAAAAAAAAD8AAAAAAAAAAAAAAAAAAAA/AAAAAAAAAAAAAAAAAAAAPwAAAAAAAAAAAAAAAAAAAD8AAAAA
        AAAAAAAAAAAAAAA/AAAAAAAAAAAAAAAAAAAAPwAAAAAAAAAAAAAAAAAAAD8AAAAAAAAAAAAAAAAAAAA/AAAAAAAAAAAAAAAAvvR9PgAAAD8AAAA/AAAAPwAAAAAAAAAA
        iYiIPQAAAD8AAAAAAAAAAAAAAAAAAAA/AAAAAAAAAAAAAAAAAAAAPwAAAAAAAAAAAAAAAAAAAD8AAAAAAAAAAAAAAAAAAAA/AAAAAAAAAAAAAAAAAAAAPwAAAAAAAAAA
        AAAAAAAAAD8AAAAAAAAAAAAAAAAAAAA/AAAAAAAAAAAAAAAAAAAAPwAAAAAAAAAAAAAAAAAAAD8AAAAAAAAAAAAAAAAAAAA/AAAAAAAAAAAAAAAAAAAAPwAAAAAAAAAA
        AAAAAAAAAD8AAAAAAAAAAAAAAAAAAAA/AAAAAAAAAAAAAAAAAAAAPwAAAAAAAAAAAAAAAAAAAD8AAAAAAAAAAAAAAAAAAAAAmpmZPgAAAAAAAAAAAAAAAAAAgD8AAAAA
        mpmZPgAAAAAAAAAAAAAAAAAAgD8AAAAAmpmZPgAAAAAAAAAAAAAAAAAAgD8AAAAAmpmZPgAAAAAAAAAAAAAAAAAAgD8AAAAAmpmZPgAAAAAAAAAAAAAAAAAAgD8AAAAA
        mpmZPgAAAAAAAAAAAAAAAAAAgD8AAAAAAAAAAAAAAAAAAAAAAAAAAAAAAAAAAAAAAAAAAAAAAAAAAAAAAAAAAAAAAAAAAAAAAAAAAAAAAAAAAAAAAAAAAAAAAAAAAAAA
        AAAAAAAAAAAAAAAAAAAAAAAAAAAAAAAAAAAAAAAAAAAAAAAAAAAAAAAAAAAAAAAAAAAAAAAAAAAAAAAAAAAAAAAAAAAAAAAAAAAAAKuqqj3ZiZ09gShWPgAAgD8AAAAA
        v+eWPdmJHT0WszE/AAAAAAAAAACSdiw8AAAAAAAAAD8AAAAAAAAAAAAAAAAAAAAAAAAAPwAAAAAAAAAAAAAAAAAAAAAAAAAAAAAAAAAAAAAAAAAAAAAAAAAAAAAAAAAA
        AAAAAAAAAAAAAAAAAAAAAAAAAAAAAAAAAAAAAAAAAAAAAAAAAAAAAAAAAAAAAAAAAAAAAAAAAAAAAAAAAAAAAAAAAAAAAAAAAAAAAAAAAAAAAAAAAAAAAAAAAAAAAAAA
        AAAAAAAAAAAAAAAAAAAAAAAAAAAAAAAAAAAAAAAAAAAAAAAAAAAAAAAAAAAAAAAAAAAAAAAAAAAAAAAAAAAAAAAAAAAAAAAAAAAAAAAAAAAAAAAAAAAAAAAAAAAAAAAA
        AAAAAAAAAAAAAAAAAAAAAAAAAAAAAAAAAAAAAAAAAAAAAAAAAAAAAAAAAAAAAAAAAAAAAAAAAAAAAAAAAAAAAAAAAAAAAAAAAAAAAAAAAAAAAAAAAAAAAAAAAAAAAAAA
        AAAAAAAAAAAAAAAAAAAAAAAAAAAAAAAAAAAAAAAAAAAAAAAAAAAAAAAAAAAAAAAAAAAAAAAAAAAAAAAAAAAAAAAAAAAAAAAAAAAAAAAAAAAAAAAAAAAAPwAAAD8AAAA/
        AAAAPwAAAD8AAAA/AAAAPwAAAD8AAAAAAAAAAAAAAAAAAAAAAAAAAAAAAAAAAAAAAAAAAAAAAAAAAAAAAAAAAAAAAAAAAAAAAAAAAAAAAAAAAAAAAAAAAAAAAAAAAAAA
        AAAAAAAAAAAAAAAAAAAAAAAAAAAAAAAAAAAAAAAAAAAAAAAAAAAAAAAAAAAAAAAAAAAAAAAAAAAAAAAAAAAAAAAAAAAAAAAAAAAAAAAAAAAAAAAAAAAAAAAAAAAAAAAA
        AAAAAAAAAAAAAAAAAAAAAAAAAAAAAAAAAAAAAAAAAAAAAAAAAAAAAAAAAAAAAAAAAAAAAAAAAAAAAAAAAAAAAAAAAAAAAAAAAAAAAAAAAAAAAAAAAAAAAAAAAAAAAAAA
        AAAAAAAAAAAAAAAAAAAAAAAAAAAAAAAAAAAAAAAAAAAAAAAAAAAAAAAAAAAAAAAAAAAAAAAAAAAAAAAA
        Q2hpcEZyb250AENoaXBGcm9udAAQAAAA
      >
      PRESETNAME ChipFront
      FLOATPOS 318 187 926 528
      FXID {4C5A6810-F3ED-0645-A06D-6758F70CB097}
      WAK 0
    >
  >
  <TRACK {1B564899-9ACC-8C4B-8FBF-925A5A247A13}
    NAME ChipSide
    PEAKCOL 16576
    BEAT -1
    AUTOMODE 0
    VOLPAN 1 0 -1 -1 1
    MUTESOLO 0 0 0
    IPHASE 0
    ISBUS 0 0
    BUSCOMP 0 0
    SHOWINMIX 1 0.6667 0.5 1 0.5 0 0 0
    FREEMODE 0
    SEL 0
    REC 0 0 0 0 0 0 0
    VU 2
    TRACKHEIGHT 0 0
    INQ 0 0 0 0.5 100 0 0 100
    NCHAN 2
    FX 1
    TRACKID {1B564899-9ACC-8C4B-8FBF-925A5A247A13}
    PERF 0
    AUXRECV 4 0 1.03113579563571 0 0 0 0 2 0 -1:U 0 -1 ''
    MIDIOUT -1
    MAINSEND 1 0
    <FXCHAIN
      SHOW 0
      LASTSEL 0
      DOCKED 0
    >
  >
  <EXTENSIONS
    <SWSAUTOCOLOR
      {00000000-0000-0000-0000-000000000000} 0 "" "" ""
    >
  >
>
