<REAPER_PROJECT 0.1 "5.65pre18/OSX64" 1512139524
  <NOTES 0
    |Look at STEMS track
    |	- Using crossfade, mix 2 stems of Bass Track
  >
  RIPPLE 0
  GROUPOVERRIDE 0 0 0
  AUTOXFADE 0
  ENVATTACH 1
  POOLEDENVATTACH 0
  MIXERUIFLAGS 11 436
  PEAKGAIN 1
  FEEDBACK 0
  PANLAW 1
  PROJOFFS 0 0
  MAXPROJLEN 0 600
  GRID 174206 8 1 8 1 0 0 0
  TIMEMODE 6 0 -1 24 2
  PANMODE 3
  CURSOR 5.5
  ZOOM 28.2924053131069 0 0
  VZOOMEX 0
  USE_REC_CFG 0
  RECMODE 1
  SMPTESYNC 0 23.976024 100 40 1000 300 0 0 1 0 0
  MIDIEDITOR -116919545 0 0
  LOOP 1
  LOOPGRAN 0 4
  RECORD_PATH "" ""
  <RECORD_CFG
    ZXZhdxAAAA==
  >
  <APPLYFX_CFG
  >
  RENDER_FILE "/Users/samenglander/_dev/colorflags/anthems/sanmarino_1.mp3"
  RENDER_FMT 0 2 44100
  RENDER_1X 0
  RENDER_RANGE 2 0 0 18 1000
  RENDER_RESAMPLE 3 0 1
  RENDER_ADDTOPROJ 0
  RENDER_STEMS 0
  RENDER_DITHER 0
  TIMELOCKMODE 1
  TEMPOENVLOCKMODE 1
  ITEMMIX 1
  DEFPITCHMODE 589824
  TAKELANE 3
  SAMPLERATE 44100 0 0
  <RENDER_CFG
    bDNwbSAAAAABAAAABQAAAAAAAAAAAAAAQAEAAAAAAAA=
  >
  LOCK 0
  <METRONOME 6 2
    VOL 0.25 0.125
    FREQ 800 1600 1
    BEATLEN 4
    SAMPLES "" ""
    PATTERN 2863311530 2863311529
  >
  GLOBAL_AUTO -1
  SELECTIONSET 9 "Selection set 10"
  TEMPO 120 4 4
  PLAYRATE 1 0 0.25 4
  SELECTION 16 0
  SELECTION2 16 0
  MASTERAUTOMODE 0
  MASTERTRACKHEIGHT 39
  MASTERPEAKCOL 16576
  MASTERMUTESOLO 0
  MASTERTRACKVIEW 0 0.6667 0.5 0.5 0 0 0
  MASTERHWOUT 0 0 1 0 0 0 0 -1
  MASTER_NCH 2 2
  MASTER_VOLUME 1 0 -1 -1 1
  MASTER_FX 1
  MASTER_SEL 0
  <MASTERPLAYSPEEDENV
    ACT 0 -1
    VIS 0 1 1
    LANEHEIGHT 0 0
    ARM 0
    DEFSHAPE 0 -1 -1
  >
  <TEMPOENVEX
    ACT 0 -1
    VIS 1 0 1
    LANEHEIGHT 0 0
    ARM 0
    DEFSHAPE 1 -1 -1
  >
  <SCREENSET
    <SET
      POS 0
      NAME "Untitled View State (2014/11/27 21:14)"
      MASK -1
      CURSORPOS 0
      SCROLLX 0 0
      TRACKSCALE 15.29090414
      SCROLLY 0
      VZOOM 5
      TRACKHEIGHT {8751D64D-1703-0245-8AC9-9769FDECC3FE} 0 0 0 0.6667 0.5 0.5 0 -1 -1 -1 0
      TRACKHEIGHT {F4CC3575-1D7D-424F-8F4B-C71B325A2484} 0 1 0 0.6667 0.5 0.5 0 -1 -1 -1 1
      TRACKHEIGHT {65BF5D08-DF3D-EA42-ADEF-5C04FE4BCE10} 0 1 0 0.6667 0.5 0.5 0 -1 -1 -1 1
      TRACKHEIGHT {533E5558-895F-AD41-AFED-94D097E72BF2} 0 1 0 0.6667 0.5 0.5 0 -1 -1 -1 1
      TRACKHEIGHT {EC6C04A1-D335-4F4D-95CB-A641489C8C07} 1 1 0 0.6667 0.5 0.5 0 -1 -1 -1 1
    >
    <SET
      POS 9
      NAME "Untitled View State (2014/11/27 21:14)"
      MASK -1
      CURSORPOS 0
      SCROLLX 0 0
      TRACKSCALE 15.29090414
      SCROLLY 0
      VZOOM 6
      TRACKHEIGHT {8751D64D-1703-0245-8AC9-9769FDECC3FE} 194 1 0 0.6667 0.5 0.5 0 -1 -1 -1 1
      TRACKHEIGHT {F4CC3575-1D7D-424F-8F4B-C71B325A2484} 88 0 0 0.6667 0.5 0.5 0 -1 -1 -1 0
      TRACKHEIGHT {65BF5D08-DF3D-EA42-ADEF-5C04FE4BCE10} 88 0 0 0.6667 0.5 0.5 0 -1 -1 -1 0
      TRACKHEIGHT {533E5558-895F-AD41-AFED-94D097E72BF2} 88 0 0 0.6667 0.5 0.5 0 -1 -1 -1 0
      TRACKHEIGHT {EC6C04A1-D335-4F4D-95CB-A641489C8C07} 212 0 0 0.6667 0.5 0.5 0 -1 -1 -1 0
    >
  >
  <PROJBAY
  >
  <TRACK {8751D64D-1703-0245-8AC9-9769FDECC3FE}
    NAME ""
    PEAKCOL 16576
    BEAT -1
    AUTOMODE 0
    VOLPAN 1 0 -1 -1 1
    MUTESOLO 0 0 0
    IPHASE 0
    ISBUS 0 0
    BUSCOMP 0 0
    SHOWINMIX 0 0.6667 0.5 0 0.5 0 0 0
    FREEMODE 0
    SEL 0
    REC 0 0 0 0 0 0 0
    VU 2
    TRACKHEIGHT 39 0
    INQ 0 0 0 0.5 100 0 0 100
    NCHAN 2
    FX 1
    TRACKID {8751D64D-1703-0245-8AC9-9769FDECC3FE}
    PERF 0
    MIDIOUT -1
    MAINSEND 1 0
    <ITEM
      POSITION 0
      SNAPOFFS 0
      LENGTH 2
      LOOP 1
      ALLTAKES 0
      FADEIN 1 0 0 1 0 0
      FADEOUT 1 0 0 1 0 0
      MUTE 0
      SEL 0
      IGUID {7122B959-8231-ED43-955E-2786099A23DB}
      IID 12
      NAME cursor
      VOLPAN 1 0 1 -1
      SOFFS 0 0
      PLAYRATE 1 1 0 -1 0 0.0025
      CHANMODE 0
      GUID {739798FC-DC41-2943-952E-538935740FF9}
      <SOURCE MIDI
        HASDATA 1 960 QN
        POOLEDEVTS {F00ED334-C869-A94D-BE36-7B787A32082F}
        E 3840 b0 7b 00
        GUID {FF9BDD25-6D86-C54B-9F82-107649B91356}
        IGNTEMPO 0 120 4 4
        SRCCOLOR 293
        VELLANE -1 86 6
      >
      TAKE
      NAME item
      TAKEVOLPAN 0 1 -1
      SOFFS 0 0
      PLAYRATE 1 1 0 -1 0 0.0025
      CHANMODE 0
      GUID {6698ACDA-04B0-4B49-9A91-4E5D9E3273C3}
      <SOURCE MIDI
        HASDATA 1 960 QN
        POOLEDEVTS {EDDB7C93-F439-724F-92B2-F59B628EED5D}
        E 3840 b0 7b 00
        GUID {F2C21D6C-D2C8-004F-BA94-9DFCCB0C3114}
        IGNTEMPO 0 120 4 4
        SRCCOLOR 294
        VELLANE -1 86 6
      >
      TAKE
      NAME cursor_item_FNG
      TAKEVOLPAN 0 1 -1
      SOFFS 0 0
      PLAYRATE 1 1 0 -1 0 0.0025
      CHANMODE 0
      GUID {67C71629-A2A5-4E4E-9598-09BDC26E3B23}
      <SOURCE MIDI
        HASDATA 1 960 QN
        POOLEDEVTS {9DF79F93-D23F-714F-BD31-B0B5BDE2AEE8}
        E 3840 b0 7b 00
        GUID {EA0398BD-A122-6B43-AD24-4A8587C51195}
        IGNTEMPO 0 120 4 4
        SRCCOLOR 295
        VELLANE -1 86 6
      >
      TAKE
      NAME cursor_item_XEN
      TAKEVOLPAN 0 1 -1
      SOFFS 0 0
      PLAYRATE 1 1 0 -1 0 0.0025
      CHANMODE 0
      GUID {E4E69E95-3596-AA4D-AF1A-9D963B7C14B8}
      <SOURCE MIDI
        HASDATA 1 960 QN
        POOLEDEVTS {182B3DEB-E020-0E45-B22E-4FF9AB836964}
        E 3840 b0 7b 00
        GUID {6069F8D0-187C-5045-B9F3-AF8E55BC5CE8}
        IGNTEMPO 0 120 4 4
        SRCCOLOR 292
        VELLANE 31 86 6
      >
    >
  >
  <TRACK {2E103EAF-0FA2-9942-87A1-30E1663A9F4B}
    NAME "--- 0 --- 0 --- 0 "
    PEAKCOL 16576
    BEAT -1
    AUTOMODE 0
    VOLPAN 1 0 -1 -1 1
    MUTESOLO 0 0 0
    IPHASE 0
    ISBUS 0 0
    BUSCOMP 0 0
    SHOWINMIX 1 0.6667 0.565574 0 0.5 0 0 0
    FREEMODE 0
    SEL 0
    REC 0 0 0 0 0 0 0
    VU 2
    TRACKHEIGHT 39 0
    INQ 0 0 0 0.5 100 0 0 100
    NCHAN 2
    FX 1
    TRACKID {2E103EAF-0FA2-9942-87A1-30E1663A9F4B}
    PERF 0
    LAYOUTS "" Separator
    MIDIOUT -1
    MAINSEND 1 0
  >
  <TRACK {3F21518C-A9BD-D04E-87E2-7F3BDD3BF4C4}
    NAME midi
    PEAKCOL 16576
    BEAT -1
    AUTOMODE 0
    VOLPAN 1 0 -1 -1 1
    MUTESOLO 1 0 0
    IPHASE 0
    ISBUS 0 0
    BUSCOMP 0 0
    SHOWINMIX 1 0.6667 0.5 1 0.5 0 0 0
    FREEMODE 0
    SEL 0
    REC 0 0 0 0 0 0 0
    VU 2
    TRACKHEIGHT 39 0
    INQ 0 0 0 0.5 100 0 0 100
    NCHAN 2
    FX 1
    TRACKID {3F21518C-A9BD-D04E-87E2-7F3BDD3BF4C4}
    PERF 0
    MIDIOUT -1
    MAINSEND 1 0
    <ITEM
      POSITION 0
      SNAPOFFS 0
      LENGTH 37.5
      LOOP 1
      ALLTAKES 0
      FADEIN 1 0 0 1 0 0
      FADEOUT 1 0 0 1 0 0
      MUTE 0
      SEL 0
      YPOS 0 0.05
      IGUID {04D7D5C7-36E9-904E-BECE-B4BAFB8687B2}
      IID 1
      NAME "trumpet(s) - National_Anthems_-_San_Marino.mid"
      VOLPAN 1 0 1 -1
      SOFFS 0 0
      PLAYRATE 1 1 0 -1 0 0.0025
      CHANMODE 0
      TAKECOLOR 26173599 B
      GUID {237F356A-AB50-754E-81B1-C06450C949C8}
      <SOURCE MIDI
        HASDATA 1 480 QN
        POOLEDEVTS {31623651-6741-0847-8098-EF6C93C625BF}
        <X 0 0 0 0 3 trumpet(s)
          /wN0cnVtcGV0KHMp
        >
        <X 0 0 0 0 4 "Sound Canvas"
          /wRTb3VuZCBDYW52YXM=
        >
        e 0 90 4a 7f
        e 451 80 4a 30
        e 29 90 47 7f 3
        e 422 80 47 0c 3
        e 58 90 43 7f 10
        e 377 80 43 03 10
        e 103 90 45 7f -6
        e 195 80 45 0f -6
        e 45 90 47 7f -7
        e 151 80 47 19 -7
        e 89 90 4c 7f -7
        e 439 80 4c 1a -7
        e 41 90 4a 7f -9
        e 416 80 4a 1a -9
        e 64 90 45 7f -4
        e 398 80 45 24 -4
        e 82 90 47 7f -18
        e 458 80 47 15 -18
        e 22 90 4a 7f -24
        e 460 80 4a 26 -24
        e 20 90 48 7f -5
        e 128 80 48 39 -5
        e 32 90 47 7f -13
        e 139 80 47 2e -13
        e 21 90 48 7f -16
        e 145 80 48 23 -16
        e 15 90 47 7f 3
        e 409 80 47 0a 3
        e 71 90 4a 7f -8
        e 423 80 4a 27 -8
        e 57 90 4c 7f 3
        e 432 80 4c 41 3
        e 48 90 4a 7f 13
        e 473 80 4a 41 13
        e 7 90 47 7f 5
        e 142 80 47 30 5
        e 18 90 45 7f -21
        e 149 80 45 20 -21
        e 11 90 43 7f -18
        e 114 80 43 3c -18
        e 46 90 43 7f 13
        e 354 80 43 35 13
        e 126 90 4a 7f 6
        e 441 80 4a 2e 6
        e 39 90 47 7f 21
        e 428 80 47 01 21
        e 52 90 43 7f -15
        e 466 80 43 0c -15
        e 14 90 45 7f -5
        e 214 80 45 0b -5
        e 26 90 47 7f -13
        e 191 80 47 01 -13
        e 49 90 4c 7f -1
        e 441 80 4c 1d -1
        e 39 90 4a 7f 2
        e 435 80 4a 27 2
        e 45 90 45 7f -6
        e 449 80 45 14 -6
        e 31 90 47 7f -30
        e 426 80 47 17 -30
        e 54 90 4a 7f -5
        e 434 80 4a 2c -5
        e 46 90 48 7f -13
        e 129 80 48 34 -13
        e 31 90 47 7f -28
        e 131 80 47 30 -28
        e 29 90 48 7f -25
        e 121 80 48 2f -25
        e 39 90 47 7f -1
        e 405 80 47 02 -1
        e 75 90 4a 7f -6
        e 398 80 4a 26 -6
        e 82 90 4c 7f -6
        e 426 80 4c 2d -6
        e 54 90 4a 7f 6
        e 458 80 4a 3a 6
        e 22 90 47 7f -5
        e 147 80 47 3a -5
        e 13 90 45 7f -13
        e 115 80 45 2c -13
        e 45 90 43 7f -28
        e 94 80 43 29 -28
        e 66 90 43 7f -3
        e 351 80 43 16 -3
        e 129 90 48 7f -7
        e 463 80 48 0f -7
        e 17 90 45 7f 11
        e 416 80 45 01 11
        e 64 90 41 7f -6
        e 873 80 41 01 -6
        e 87 90 47 7f -9
        e 395 80 47 3e -9
        e 85 90 47 7f -23
        e 199 80 47 29 -23
        e 41 90 48 7f -15
        e 203 80 48 30 -15
        e 37 90 47 7f -12
        e 415 80 47 1f -12
        e 65 90 45 7f -26
        e 421 80 45 0e -26
        e 59 90 43 7f -18
        e 401 80 43 23 -18
        e 79 90 47 7f -24
        e 414 80 47 32 -24
        e 66 90 45 7f -31
        e 439 80 45 1d -31
        e 41 90 43 7f -27
        e 411 80 43 07 -27
        e 69 90 48 7f -13
        e 384 80 48 3c -13
        e 96 90 48 7f -23
        e 214 80 48 32 -23
        e 26 90 45 7f -12
        e 177 80 45 1d -12
        e 63 90 47 7f -10
        e 199 80 47 1d -10
        e 41 90 45 7f -4
        e 150 80 45 08 -4
        e 90 90 43 7f -1
        e 382 80 43 3e -1
        e 98 90 41 7f -7
        e 391 80 41 16 -7
        e 89 90 45 7f -2
        e 200 80 45 30 -2
        e 40 90 43 7f 1
        e 164 80 43 0d 1
        e 76 90 4a 7f -5
        e 455 80 4a 2c -5
        e 25 90 47 7f -5
        e 402 80 47 01 -5
        e 78 90 43 7f -17
        e 431 80 43 01 -17
        e 49 90 47 7f -11
        e 139 80 47 2d -11
        e 21 90 45 7f -4
        e 126 80 45 20 -4
        e 34 90 43 7f
        e 123 80 43 14
        e 37 90 48 7f 7
        e 425 80 48 24 7
        e 55 90 45 7f -21
        e 393 80 45 25 -21
        e 87 90 47 7f -11
        e 413 80 47 2e -11
        e 67 90 47 7f 9
        e 406 80 47 2a 9
        e 74 90 48 7f 19
        e 147 80 48 2a 19
        e 13 90 47 7f 1
        e 153 80 47 21 1
        e 7 90 45 7f 11
        e 107 80 45 3d 11
        e 53 90 45 7f 15
        e 140 80 45 2e 15
        e 100 90 45 7f 24
        e 137 80 45 37 24
        e 103 90 43 7f 22
        e 401 80 43 24 22
        e 79 90 42 7f -2
        e 453 80 42 01 -2
        e 27 90 40 7f 9
        e 476 80 40 27 9
        e 4 90 3e 7f 21
        e 366 80 3e 2e 21
        e 114 90 3e 7f
        e 975 80 3e 55
        e 1825 90 4f 7f -35
        e 37 80 4f 48 -35
        e 43 90 4f 7f -10
        e 419 80 4f 46 -10
        e 61 90 4f 7f -14
        e 424 80 4f 40 -14
        e 56 90 4f 7f -17
        e 427 80 4f 45 -17
        e 53 90 4f 7f -19
        e 421 80 4f 48 -19
        e 59 90 4f 7f -33
        e 169 80 4f 3c -33
        E 311 b0 7b 00
        GUID {2ECCC3F2-3404-AC41-8F43-FA41DE611391}
        IGNTEMPO 0 120 4 4
        SRCCOLOR 359
        VELLANE -1 86 6
        CFGEDITVIEW 0 0 52 17 0 0 0 0 0 0.5
        KEYSNAP 0
        TRACKSEL 226
        EVTFILTER 0 -1 -1 -1 -1 0 0 0 0 -1 -1 -1 -1 0 -1 0 -1 -1
        CFGEDIT 1 0 0 0 0 0 1 0 1 1 1 0.16666667 32 63 1280 778 0 0 2 3 0 0 0 0 0 -1 0 0 1 64
      >
      TAKE
      NAME "trumpet(s) - National_Anthems_-_San_Marino.mid"
      TAKEVOLPAN 0 1 -1
      SOFFS 0 0
      PLAYRATE 1 1 0 -1 0 0.0025
      CHANMODE 0
      GUID {E8F4185F-14E9-0A4D-A88F-FAC1F972A1D5}
      <SOURCE MIDI
        HASDATA 1 480 QN
        POOLEDEVTS {26C8AC57-8670-4A48-8FE3-F56341A9992C}
        <X 0 0 0 0 3 trumpet(s)
          /wN0cnVtcGV0KHMp
        >
        <X 0 0 0 0 4 "Sound Canvas"
          /wRTb3VuZCBDYW52YXM=
        >
        e 0 90 4a 7f
        e 451 80 4a 30
        e 32 90 47 7f
        e 422 80 47 0c
        e 65 90 43 7f
        e 377 80 43 03
        e 87 90 45 7f
        e 195 80 45 0f
        e 44 90 47 7f
        e 151 80 47 19
        e 89 90 4c 7f
        e 439 80 4c 1a
        e 39 90 4a 7f
        e 416 80 4a 1a
        e 69 90 45 7f
        e 398 80 45 24
        e 68 90 47 7f
        e 458 80 47 15
        e 16 90 4a 7f
        e 460 80 4a 26
        e 39 90 48 7f
        e 128 80 48 39
        e 24 90 47 7f
        e 139 80 47 2e
        e 18 90 48 7f
        e 145 80 48 23
        e 34 90 47 7f
        e 409 80 47 0a
        e 60 90 4a 7f
        e 423 80 4a 27
        e 68 90 4c 7f
        e 432 80 4c 41
        e 58 90 4a 7f
        e 472 90 47 7f
        e 1 80 4a 41
        e 133 90 45 7f
        e 8 80 47 30
        e 141 80 45 20
        e 14 90 43 7f
        e 114 80 43 3c
        e 77 90 43 7f
        e 354 80 43 35
        e 119 90 4a 7f
        e 441 80 4a 2e
        e 54 90 47 7f
        e 428 80 47 01
        e 16 90 43 7f
        e 466 80 43 0c
        e 24 90 45 7f
        e 214 80 45 0b
        e 18 90 47 7f
        e 191 80 47 01
        e 61 90 4c 7f
        e 441 80 4c 1d
        e 42 90 4a 7f
        e 435 80 4a 27
        e 37 90 45 7f
        e 449 80 45 14
        e 7 90 47 7f
        e 426 80 47 17
        e 79 90 4a 7f
        e 434 80 4a 2c
        e 38 90 48 7f
        e 129 80 48 34
        e 16 90 47 7f
        e 131 80 47 30
        e 32 90 48 7f
        e 121 80 48 2f
        e 63 90 47 7f
        e 405 80 47 02
        e 70 90 4a 7f
        e 398 80 4a 26
        e 82 90 4c 7f
        e 426 80 4c 2d
        e 66 90 4a 7f
        e 458 80 4a 3a
        e 11 90 47 7f
        e 147 80 47 3a
        e 5 90 45 7f
        e 115 80 45 2c
        e 30 90 43 7f
        e 94 80 43 29
        e 91 90 43 7f
        e 351 80 43 16
        e 125 90 48 7f
        e 463 80 48 0f
        e 35 90 45 7f
        e 416 80 45 01
        e 47 90 41 7f
        e 873 80 41 01
        e 84 90 47 7f
        e 395 80 47 3e
        e 71 90 47 7f
        e 199 80 47 29
        e 49 90 48 7f
        e 203 80 48 30
        e 40 90 47 7f
        e 415 80 47 1f
        e 51 90 45 7f
        e 421 80 45 0e
        e 67 90 43 7f
        e 401 80 43 23
        e 73 90 47 7f
        e 414 80 47 32
        e 59 90 45 7f
        e 439 80 45 1d
        e 45 90 43 7f
        e 411 80 43 07
        e 83 90 48 7f
        e 384 80 48 3c
        e 86 90 48 7f
        e 214 80 48 32
        e 37 90 45 7f
        e 177 80 45 1d
        e 65 90 47 7f
        e 199 80 47 1d
        e 47 90 45 7f
        e 150 80 45 08
        e 93 90 43 7f
        e 382 80 43 3e
        e 92 90 41 7f
        e 391 80 41 16
        e 94 90 45 7f
        e 200 80 45 30
        e 43 90 43 7f
        e 164 80 43 0d
        e 70 90 4a 7f
        e 455 80 4a 2c
        e 25 90 47 7f
        e 402 80 47 01
        e 66 90 43 7f
        e 431 80 43 01
        e 55 90 47 7f
        e 139 80 47 2d
        e 28 90 45 7f
        e 126 80 45 20
        e 38 90 43 7f
        e 123 80 43 14
        e 44 90 48 7f
        e 425 80 48 24
        e 27 90 45 7f
        e 393 80 45 25
        e 97 90 47 7f
        e 413 80 47 2e
        e 87 90 47 7f
        e 406 80 47 2a
        e 84 90 48 7f
        e 142 90 47 7f
        e 5 80 48 2a
        e 148 80 47 21
        e 17 90 45 7f
        e 107 80 45 3d
        e 57 90 45 7f
        e 140 80 45 2e
        e 109 90 45 7f
        e 137 80 45 37
        e 101 90 43 7f
        e 401 80 43 24
        e 55 90 42 7f
        e 453 80 42 01
        e 38 90 40 7f
        e 476 80 40 27
        e 16 90 3e 7f
        e 366 80 3e 2e
        e 93 90 3e 7f
        e 975 80 3e 55
        e 1790 90 4f 7f
        e 37 80 4f 48
        e 68 90 4f 7f
        e 419 80 4f 46
        e 57 90 4f 7f
        e 424 80 4f 40
        e 53 90 4f 7f
        e 427 80 4f 45
        e 51 90 4f 7f
        e 421 80 4f 48
        e 45 90 4f 7f
        e 169 80 4f 3c
        E 344 b0 7b 00
        GUID {E141F808-6184-1C41-85D3-C201BF86E287}
        IGNTEMPO 0 120 4 4
        SRCCOLOR 363
        VELLANE -1 86 6
        CFGEDITVIEW 0 0 52 17 0 0 0 0 0 0.5
        KEYSNAP 0
        TRACKSEL 226
        EVTFILTER 0 -1 -1 -1 -1 0 0 0 0 -1 -1 -1 -1 0 -1 0 -1 -1
        CFGEDIT 1 0 0 0 0 0 1 0 1 1 1 0.25 32 63 1280 778 0 0 2 3 0 0 0 0 0 -1 0 0 1 64
      >
    >
    <ITEM
      POSITION 0
      SNAPOFFS 0
      LENGTH 37.5
      LOOP 1
      ALLTAKES 0
      FADEIN 1 0 0 1 0 0
      FADEOUT 1 0 0 1 0 0
      MUTE 0
      SEL 0
      YPOS 0.504202 0.05
      IGUID {C331D626-E71C-B242-9C00-E0219A375702}
      IID 5
      NAME "strings (hi) - National_Anthems_-_San_Marino.mid"
      VOLPAN 1 0 1 -1
      SOFFS 0 0
      PLAYRATE 1 1 0 -1 0 0.0025
      CHANMODE 0
      GUID {CFFB5DA6-E041-364A-AE7D-AC57D8E75F07}
      <SOURCE MIDI
        HASDATA 1 480 QN
        POOLEDEVTS {A2302336-70C0-A043-A218-EDE5B25DDAC9}
        <X 0 0 0 0 3 "strings (hi)"
          /wNzdHJpbmdzIChoaSk=
        >
        <X 0 0 0 0 4 "Sound Canvas"
          /wRTb3VuZCBDYW52YXM=
        >
        E 0 94 4a 57
        E 10 94 56 4f
        E 436 84 4a 01
        E 12 94 47 55
        E 1 94 53 55
        E 9 84 56 3c
        E 465 84 53 37
        E 7 94 43 52
        E 3 94 4f 4e
        E 1 84 47 07
        E 466 84 43 2b
        E 28 84 4f 01
        E 10 94 45 55
        E 2 94 51 55
        E 197 84 45 29
        E 11 84 51 1b
        E 5 94 47 55
        E 8 94 53 4e
        E 185 84 47 43
        E 14 84 53 01
        E 51 94 4c 4e
        E 7 94 58 4b
        E 418 84 4c 26
        E 14 94 4a 55
        E 20 94 56 4f
        E 11 84 58 39
        E 384 84 4a 01
        E 80 94 45 57
        E 4 94 51 55
        E 15 84 56 0c
        E 438 84 45 26
        E 8 94 47 4f
        E 1 94 53 47
        E 15 84 51 24
        E 395 84 47 01
        E 8 84 53 0f
        E 80 94 4a 57
        E 4 94 56 57
        E 424 94 48 4f
        E 6 94 54 57
        E 7 84 4a 1e
        E 21 84 56 2c
        E 115 84 48 19
        E 14 94 47 52
        E 4 84 54 48
        E 12 94 53 5a
        E 135 84 47 32
        E 13 84 53 2f
        E 5 94 48 4b
        E 4 94 54 42
        E 180 84 54 40
        E 6 94 47 52
        E 5 94 53 4f
        E 14 84 48 01
        E 425 84 53 01
        E 46 84 47 3f
        E 9 94 4a 52
        E 1 94 56 4a
        E 432 84 56 03
        E 15 84 4a 2d
        E 30 94 4c 4e
        E 1 94 58 5a
        E 450 84 58 49
        E 7 84 4c 35
        E 10 94 4a 4f
        E 1 94 56 4e
        E 168 94 48 14
        E 45 84 48 3b
        E 263 84 4a 21
        E 14 94 47 65
        E 13 94 53 57
        E 13 84 56 3b
        E 121 84 53 38
        E 4 84 47 34
        E 3 94 45 57
        E 4 94 51 4b
        E 118 84 45 2b
        E 3 84 51 29
        E 4 94 43 65
        E 6 94 4f 55
        E 90 84 43 2a
        E 14 84 4f 20
        E 65 94 43 55
        E 11 94 4f 4b
        E 320 84 43 42
        E 32 84 4f 02
        E 152 94 56 5a
        E 5 94 4a 4f
        E 460 84 4a 0f
        E 14 84 56 3b
        E 5 94 47 4f
        E 10 94 53 3d
        E 456 94 43 65
        E 1 94 4f 55
        E 2 84 53 25
        E 14 84 47 0f
        E 399 84 4f 18
        E 1 84 43 2a
        E 80 94 51 5a
        E 1 94 45 5d
        E 196 84 45 1d
        E 7 84 51 01
        E 9 94 53 4e
        E 3 94 47 55
        E 225 84 53 01
        E 0 84 47 33
        E 24 94 4c 57
        E 7 94 58 4e
        E 447 84 4c 3f
        E 3 94 4a 55
        E 16 94 56 4e
        E 16 84 58 3a
        E 373 84 4a 03
        E 25 84 56 25
        E 47 94 45 4d
        E 0 94 51 4e
        E 463 84 51 01
        E 6 94 53 4b
        E 3 84 45 2b
        E 9 94 47 4b
        E 397 84 47 19
        E 3 84 53 1c
        E 109 94 4a 57
        E 0 94 56 55
        E 399 84 4a 08
        E 28 84 56 44
        E 19 94 54 4e
        E 4 94 48 52
        E 152 84 54 39
        E 3 84 48 1a
        E 3 94 47 57
        E 7 94 53 55
        E 134 84 47 3a
        E 7 94 48 4a
        E 4 94 54 57
        E 4 84 53 28
        E 149 84 54 3d
        E 2 84 48 01
        E 14 94 47 4f
        E 9 94 53 55
        E 406 84 53 01
        E 56 84 47 01
        E 36 94 56 4b
        E 1 94 4a 4a
        E 394 84 4a 1c
        E 10 84 56 01
        E 72 94 4c 4f
        E 5 94 58 4e
        E 425 84 4c 11
        E 23 84 58 37
        E 35 94 56 42
        E 3 94 4a 4e
        E 370 84 4a 31
        E 76 84 56 1f
        E 11 94 47 5a
        E 12 94 53 4f
        E 129 84 47 23
        E 7 84 53 29
        E 6 94 45 52
        E 8 94 51 4f
        E 117 84 51 2c
        E 8 84 45 33
        E 3 94 4f 4b
        E 1 94 43 5f
        E 91 84 43 3c
        E 11 84 4f 1b
        E 87 94 43 4e
        E 10 94 4f 4e
        E 349 84 43 43
        E 15 84 4f 20
        E 7821 94 41 6a
        E 0 94 4d 5f
        E 434 84 4d 01
        E 3 84 41 42
        E 12 94 45 5a
        E 3 94 51 4f
        E 224 94 43 6a
        E 6 84 51 33
        E 2 84 45 2d
        E 15 94 4f 4f
        E 202 84 43 42
        E 44 84 4f 11
        E 16 94 56 5f
        E 2 94 4a 4b
        E 428 94 47 5a
        E 9 84 56 2d
        E 1 94 53 4a
        E 2 84 4a 01
        E 468 84 53 44
        E 8 94 43 6a
        E 1 84 47 2e
        E 3 94 4f 57
        E 372 84 4f 01
        E 59 84 43 01
        E 37 94 53 5d
        E 2 94 47 5f
        E 169 94 45 5a
        E 1 94 51 55
        E 6 84 53 2e
        E 17 84 47 0f
        E 122 84 51 2b
        E 4 84 45 43
        E 5 94 43 6a
        E 11 94 4f 5f
        E 153 84 43 42
        E 10 94 48 55
        E 12 94 54 5a
        E 8 84 4f 10
        E 448 84 54 3d
        E 5 84 48 06
        E 9 94 45 52
        E 6 94 51 4a
        E 361 84 51 11
        E 3 84 45 24
        E 104 94 53 4f
        E 12 94 47 57
        E 417 84 53 3b
        E 0 84 47 2c
        E 47 94 47 52
        E 1 94 53 4d
        E 461 84 53 0c
        E 20 84 47 46
        E 12 94 48 52
        E 6 94 54 5a
        E 156 94 47 5f
        E 3 84 48 1a
        E 12 94 53 4f
        E 14 84 54 01
        E 142 94 45 5a
        E 7 84 53 3a
        E 5 94 51 55
        E 3 84 47 1c
        E 95 84 51 2f
        E 4 84 45 29
        E 56 94 51 4e
        E 1 94 45 57
        E 167 84 45 30
        E 12 84 51 33
        E 57 94 45 5f
        E 8 94 51 4b
        E 221 84 45 04
        E 12 84 51 3b
        E 1 94 43 5a
        E 11 94 4f 52
        E 411 84 43 10
        E 25 84 4f 01
        E 16 94 42 5a
        E 4 94 4e 4e
        E 455 84 42 28
        E 16 94 40 5d
        E 5 94 4c 4b
        E 27 84 4e 2e
        E 451 84 40 11
        E 9 94 3e 4a
        E 6 94 4a 57
        E 26 84 4c 33
        E 389 84 3e 2d
        E 5 84 4a 34
        E 56 94 3e 5a
        E 8 94 4a 4b
        E 1467 84 3e 42
        E 0 84 4a 34
        E 1262 94 4f 5f
        E 5 94 5b 5a
        E 61 84 5b 40
        E 2 84 4f 3e
        E 50 94 4f 55
        E 6 94 5b 4f
        E 418 84 4f 2c
        E 6 84 5b 28
        E 49 94 4f 48
        E 9 94 5b 47
        E 414 84 5b 3d
        E 2 84 4f 36
        E 66 94 4f 4e
        E 5 94 5b 44
        E 416 84 4f 40
        E 6 84 5b 3c
        E 60 94 5b 57
        E 2 94 4f 4b
        E 419 84 4f 40
        E 7 84 5b 37
        E 52 94 4f 55
        E 9 94 5b 4e
        E 126 84 5b 1e
        E 20 84 4f 3e
        E 332 b0 7b 00
        GUID {9C47157B-3C33-1341-9B26-4982F9BB9996}
        IGNTEMPO 0 120 4 4
        SRCCOLOR 274
        VELLANE -1 86 6
      >
    >
    <ITEM
      POSITION 0
      SNAPOFFS 0
      LENGTH 37.5
      LOOP 1
      ALLTAKES 0
      FADEIN 1 0 0 1 0 0
      FADEOUT 1 0 0 1 0 0
      MUTE 0
      SEL 0
      YPOS 0.672269 0.05
      IGUID {FD482184-5DF8-1244-9C80-925A15AAE3C8}
      IID 6
      NAME "strings (mid) - National_Anthems_-_San_Marino.mid"
      VOLPAN 1 0 1 -1
      SOFFS 0 0
      PLAYRATE 1 1 0 -1 0 0.0025
      CHANMODE 0
      GUID {562921E3-B064-3743-8945-01BAA24CDD45}
      <SOURCE MIDI
        HASDATA 1 480 QN
        POOLEDEVTS {9BB8A20C-BD27-4348-90E6-C7D6BE4047E9}
        <X 0 0 0 0 3 "strings (mid)"
          /wNzdHJpbmdzIChtaWQp
        >
        <X 0 0 0 0 4 "Sound Canvas"
          /wRTb3VuZCBDYW52YXM=
        >
        E 0 95 47 4b
        E 0 95 3e 57
        E 3 95 43 5a
        E 366 85 3e 09
        E 13 85 43 28
        E 80 95 3e 4b
        E 9 95 3b 57
        E 8 95 43 4e
        E 21 85 47 01
        E 337 85 3e 01
        E 61 85 3b 2b
        E 73 85 43 01
        E 8 95 3b 4f
        E 7 95 37 4d
        E 5 95 40 55
        E 403 85 3b 10
        E 41 85 37 32
        E 14 95 39 67
        E 2 85 40 1a
        E 219 95 3b 55
        E 8 85 39 1b
        E 240 95 45 52
        E 2 85 3b 53
        E 4 95 40 52
        E 383 85 45 28
        E 19 85 40 2f
        E 51 95 42 55
        E 3 95 3e 4f
        E 3 95 45 45
        E 371 85 42 0d
        E 39 85 45 20
        E 39 85 3e 02
        E 23 95 42 62
        E 14 95 3c 4b
        E 437 85 42 3f
        E 5 85 3c 26
        E 13 95 43 5d
        E 11 95 3b 48
        E 351 85 43 3a
        E 42 85 3b 1b
        E 89 95 3e 4f
        E 9 95 43 62
        E 3 95 47 47
        E 378 85 43 15
        E 53 85 3e 20
        E 40 85 47 1e
        E 6 95 43 65
        E 1 95 3c 57
        E 102 85 3c 29
        E 3 85 43 31
        E 54 95 3c 5d
        E 5 95 43 5f
        E 80 85 3c 28
        E 11 85 43 3b
        E 46 95 3c 5d
        E 14 95 43 5f
        E 88 85 43 39
        E 14 85 3c 27
        E 54 95 43 5f
        E 5 95 3b 4e
        E 7 95 3e 4f
        E 361 85 3e 18
        E 3 85 43 2d
        E 23 85 3b 28
        E 64 95 3e 4f
        E 3 95 43 57
        E 8 95 47 4a
        E 383 85 43 2f
        E 16 85 47 31
        E 47 85 3e 21
        E 53 95 40 4e
        E 1 95 43 4e
        E 1 95 48 45
        E 343 85 43 1d
        E 77 85 48 41
        E 1 85 40 26
        E 39 95 47 55
        E 0 95 3e 5a
        E 5 95 43 57
        E 378 85 47 01
        E 25 85 3e 27
        E 3 85 43 3c
        E 72 95 3e 5a
        E 13 95 43 6d
        E 135 85 43 39
        E 5 85 3e 18
        E 5 95 42 5d
        E 5 95 3c 57
        E 80 85 3c 38
        E 48 85 42 2e
        E 24 95 3e 57
        E 1 95 3c 55
        E 90 85 3e 23
        E 2 85 3c 40
        E 90 95 3b 42
        E 1 95 3e 4b
        E 333 85 3e 2c
        E 31 85 3b 2d
        E 121 95 3e 4a
        E 12 95 43 4b
        E 1 95 47 41
        E 367 85 43 36
        E 23 85 3e 2a
        E 77 85 47 01
        E 5 95 3e 4a
        E 3 95 3b 48
        E 3 95 43 47
        E 344 85 3b 1f
        E 42 85 3e 28
        E 48 85 43 01
        E 21 95 3b 4f
        E 13 95 40 2f
        E 0 95 37 25
        E 443 85 37 20
        E 8 85 3b 06
        E 8 85 40 07
        E 24 95 39 65
        E 208 85 39 31
        E 14 95 3b 5d
        E 239 95 40 4e
        E 3 95 45 4e
        E 8 85 3b 3e
        E 372 85 45 2a
        E 42 85 40 1f
        E 36 95 3e 55
        E 10 95 42 55
        E 0 95 45 48
        E 386 85 42 22
        E 23 85 3e 29
        E 2 85 45 1e
        E 83 95 3c 55
        E 1 95 42 52
        E 435 85 42 3d
        E 18 85 3c 01
        E 3 95 43 5d
        E 45 95 3b 11
        E 297 85 43 3d
        E 42 85 3b 31
        E 98 95 3e 45
        E 10 95 47 41
        E 1 95 43 57
        E 383 85 43 13
        E 44 85 47 24
        E 33 85 3e 19
        E 27 95 43 5d
        E 3 95 3c 5a
        E 97 85 3c 33
        E 6 85 43 32
        E 48 95 3c 5a
        E 10 95 43 62
        E 75 85 3c 38
        E 5 85 43 32
        E 55 95 3c 57
        E 8 95 43 5a
        E 83 85 43 3a
        E 19 85 3c 24
        E 66 95 43 5f
        E 4 95 3b 4e
        E 6 95 3e 4d
        E 394 85 43 2b
        E 3 85 3e 1e
        E 25 85 3b 2c
        E 51 95 3e 4e
        E 8 95 43 5a
        E 3 95 47 4f
        E 366 85 47 37
        E 26 85 43 37
        E 11 85 3e 25
        E 68 95 40 4e
        E 8 95 48 45
        E 1 95 43 4b
        E 348 85 48 40
        E 24 85 43 24
        E 30 85 40 2c
        E 53 95 3e 57
        E 4 95 47 47
        E 4 95 43 57
        E 233 85 3e 43
        E 95 95 3c 41
        E 24 85 3c 2d
        E 51 85 47 39
        E 0 85 43 37
        E 74 95 3e 5f
        E 15 95 43 67
        E 134 85 3e 16
        E 11 95 3c 52
        E 7 95 42 5a
        E 4 85 43 21
        E 79 85 3c 37
        E 32 85 42 3a
        E 26 95 3e 57
        E 1 95 3c 5d
        E 120 85 3e 1c
        E 9 85 3c 23
        E 55 95 3e 57
        E 1 95 3b 57
        E 352 85 3b 3c
        E 7 85 3e 2c
        E 7813 95 3e 5d
        E 6 95 35 5f
        E 7 95 39 3b
        E 401 85 3e 15
        E 0 85 39 0b
        E 42 85 35 3d
        E 43 95 3b 3d
        E 0 95 3e 5a
        E 4 95 41 4f
        E 138 85 3e 1d
        E 20 85 41 42
        E 12 85 3b 30
        E 47 95 3e 52
        E 1 95 37 4e
        E 150 85 3e 0b
        E 53 85 37 41
        E 39 95 40 4a
        E 5 95 41 48
        E 5 95 3e 4e
        E 48 85 40 38
        E 350 85 41 4d
        E 8 85 3e 08
        E 68 95 43 6a
        E 2 95 3e 5d
        E 28 95 41 57
        E 364 85 3e 19
        E 12 85 41 27
        E 1 85 43 2d
        E 64 95 40 55
        E 4 95 3b 2f
        E 399 85 3b 27
        E 3 85 40 2d
        E 63 95 40 55
        E 0 95 3b 57
        E 79 85 3b 35
        E 17 85 40 28
        E 48 95 3b 55
        E 7 95 40 55
        E 67 85 3b 3d
        E 4 85 40 3a
        E 68 95 40 57
        E 6 95 3b 55
        E 84 85 40 38
        E 52 85 3b 43
        E 55 95 47 4f
        E 3 95 40 4f
        E 377 85 40 15
        E 42 85 47 32
        E 36 95 3c 48
        E 5 95 40 4b
        E 365 85 40 17
        E 46 85 3c 3c
        E 65 95 45 3d
        E 1 95 40 4a
        E 425 85 45 1a
        E 12 85 40 01
        E 17 95 3e 4a
        E 13 95 43 4e
        E 432 85 43 31
        E 41 85 3e 10
        E 39 95 40 5a
        E 1 95 43 65
        E 94 85 43 3a
        E 4 85 40 2a
        E 60 95 40 55
        E 7 95 43 5f
        E 88 85 40 34
        E 3 85 43 3a
        E 56 95 40 5a
        E 9 95 43 65
        E 92 85 43 2e
        E 1 85 40 27
        E 75 95 3c 55
        E 5 95 42 55
        E 213 85 3c 3f
        E 15 95 39 5a
        E 142 85 39 4c
        E 10 85 42 28
        E 125 95 3b 5d
        E 4 95 37 11
        E 6 95 3e 47
        E 339 85 3b 39
        E 2 85 37 41
        E 9 85 3e 48
        E 94 95 3a 52
        E 5 95 3e 45
        E 26 85 3a 50
        E 3 95 39 57
        E 10 95 36 52
        E 339 85 3e 3b
        E 3 85 39 4b
        E 3 85 36 54
        E 84 95 37 48
        E 6 95 34 57
        E 1 95 3c 4e
        E 413 85 3c 19
        E 11 85 34 3c
        E 22 85 37 1b
        E 18 95 36 41
        E 5 95 32 55
        E 17 95 3c 55
        E 355 85 32 01
        E 55 85 36 2e
        E 25 85 3c 06
        E 32 95 32 37
        E 0 95 3b 35
        E 0 95 37 2f
        E 858 85 37 29
        E 8 85 32 37
        E 4 85 3b 1b
        E 78 95 3b 47
        E 4 95 37 42
        E 3 95 32 42
        E 377 85 32 2e
        E 2 85 37 25
        E 10 85 3b 3b
        E 77 95 3b 48
        E 1 95 37 41
        E 1 95 32 4b
        E 397 85 37 29
        E 1 85 3b 24
        E 21 85 32 37
        E 66 95 3b 41
        E 3 95 32 4b
        E 3 95 37 47
        E 582 85 32 40
        E 44 85 37 45
        E 35 85 3b 2a
        E 164 95 3b 65
        E 2 95 43 67
        E 3 95 3e 6a
        E 67 85 3b 43
        E 6 85 3e 3a
        E 1 85 43 41
        E 49 95 3b 5d
        E 6 95 43 65
        E 1 95 3e 5f
        E 419 85 3b 49
        E 1 85 43 51
        E 3 85 3e 3b
        E 32 95 43 6f
        E 6 95 3b 5f
        E 6 95 3e 57
        E 400 85 43 4d
        E 12 85 3e 2b
        E 5 85 3b 1e
        E 38 95 3b 4b
        E 4 95 3e 4f
        E 2 95 43 65
        E 430 85 43 47
        E 4 85 3e 2c
        E 9 85 3b 2c
        E 37 95 43 6a
        E 4 95 3b 5d
        E 4 95 3e 5d
        E 383 85 3e 1c
        E 30 85 43 29
        E 6 85 3b 35
        E 66 95 47 6d
        E 1 95 43 6d
        E 4 95 3e 65
        E 148 85 3e 0d
        E 4 85 43 2b
        E 5 85 47 35
        E 343 b0 7b 00
        GUID {5F6D10BE-0844-4444-BA93-EB96F29AAACE}
        IGNTEMPO 0 120 4 4
        SRCCOLOR 275
        VELLANE -1 86 6
      >
    >
    <ITEM
      POSITION 0
      SNAPOFFS 0
      LENGTH 37.5
      LOOP 1
      ALLTAKES 0
      FADEIN 1 0 0 1 0 0
      FADEOUT 1 0 0 1 0 0
      MUTE 0
      SEL 0
      YPOS 0.840336 0.05
      IGUID {73AB3DB4-54B1-7341-960C-1B56C18EB6FB}
      IID 7
      NAME "strings (bass) - National_Anthems_-_San_Marino.mid"
      VOLPAN 1 0 1 -1
      SOFFS 0 0
      PLAYRATE 1 1 0 -1 0 0.0025
      CHANMODE 0
      GUID {96790E68-54FA-8649-BE63-4EC2093255D8}
      <SOURCE MIDI
        HASDATA 1 480 QN
        POOLEDEVTS {432BDAEC-562A-5741-9D9F-F2DFE3AC346B}
        <X 0 0 0 0 3 "strings (bass)"
          /wNzdHJpbmdzIChiYXNzKQ==
        >
        <X 0 0 0 0 4 "Sound Canvas"
          /wRTb3VuZCBDYW52YXM=
        >
        E 0 96 2b 42
        E 458 86 2b 2b
        E 7 96 2a 4f
        E 448 86 2a 19
        E 46 96 28 5d
        E 874 86 28 01
        E 95 96 24 4e
        E 444 86 24 16
        E 27 96 26 4e
        E 391 86 26 33
        E 80 96 26 55
        E 471 96 1f 5a
        E 31 86 26 16
        E 370 86 1f 18
        E 103 96 1f 57
        E 388 86 1f 01
        E 45 96 21 52
        E 495 96 23 5a
        E 10 86 21 10
        E 480 86 23 20
        E 11 96 1f 55
        E 484 96 24 5a
        E 6 86 1f 44
        E 461 96 2b 4a
        E 1 86 24 32
        E 478 86 2b 3e
        E 10 96 26 57
        E 497 86 26 26
        E 1 96 1f 4f
        E 327 86 1f 45
        E 135 96 2b 52
        E 477 96 2a 5a
        E 13 86 2b 20
        E 431 86 2a 1e
        E 43 96 28 5f
        E 884 86 28 08
        E 81 96 24 4f
        E 478 96 26 52
        E 18 86 24 0e
        E 393 86 26 40
        E 68 96 26 5a
        E 469 96 1f 4f
        E 25 86 26 12
        E 329 86 1f 33
        E 112 96 1f 5d
        E 416 86 1f 35
        E 53 96 21 5f
        E 460 86 21 3c
        E 44 96 23 5f
        E 458 86 23 01
        E 21 96 1f 65
        E 448 86 1f 23
        E 37 96 24 62
        E 459 86 24 29
        E 13 96 2b 5a
        E 475 86 2b 34
        E 12 96 26 5f
        E 471 96 1f 5f
        E 23 86 26 37
        E 408 86 1f 45
        E 7739 96 26 65
        E 474 86 26 2b
        E 12 96 24 5f
        E 468 86 24 29
        E 16 96 23 6a
        E 939 86 23 2c
        E 14 96 28 62
        E 967 96 21 62
        E 14 86 28 35
        E 819 86 21 01
        E 122 96 1f 65
        E 163 86 1f 32
        E 35 96 21 62
        E 192 86 21 2b
        E 53 96 23 62
        E 188 86 23 01
        E 60 96 1f 65
        E 192 86 1f 17
        E 74 96 24 5a
        E 489 86 24 13
        E 8 96 26 57
        E 474 86 26 25
        E 2 96 1f 52
        E 6623 86 1f 2f
        E 92 96 1f 6d
        E 151 86 1f 3d
        E 327 b0 7b 00
        GUID {37056A69-45EC-E246-869D-2675098CDAD6}
        IGNTEMPO 0 120 4 4
        SRCCOLOR 276
        VELLANE -1 86 6
      >
    >
    <ITEM
      POSITION 0
      SNAPOFFS 0
      LENGTH 37.5
      LOOP 1
      ALLTAKES 0
      FADEIN 1 0 0 1 0 0
      FADEOUT 1 0 0 1 0 0
      MUTE 1
      SEL 0
      YPOS 0.95 0.05
      IGUID {18D66A1E-AE3C-2346-AFC0-27DCC6EA3238}
      IID 2
      SELSET 512
      NAME "fr. horn(s) - National_Anthems_-_San_Marino.mid"
      VOLPAN 1 0 1 -1
      SOFFS 0 0
      PLAYRATE 1 1 0 -1 0 0.0025
      CHANMODE 0
      GUID {541A48E3-9829-934A-A399-07FE7FB94834}
      <SOURCE MIDI
        HASDATA 1 480 QN
        POOLEDEVTS {DA98E865-C268-A04B-812B-5B0338DE81D4}
        <X 0 0 0 0 3 "fr. horn(s)"
          /wNmci4gaG9ybihzKQ==
        >
        <X 0 0 0 0 4 "Sound Canvas"
          /wRTb3VuZCBDYW52YXM=
        >
        e 0 91 3e 7f
        e 8 91 43 7f
        e 5 91 47 7f
        e 316 81 43 2a
        e 89 81 3e 27
        e 64 81 47 37
        e 14 91 3b 7f
        e 4 91 43 7f
        e 3 91 3e 7f
        e 342 81 3b 01
        e 12 81 43 11
        e 27 81 3e 02
        e 72 91 37 7f
        e 3 91 40 7f
        e 2 91 3b 7f
        e 396 81 3b 3f
        e 42 81 37 2c
        e 24 81 40 36
        e 37 91 39 7f
        e 213 81 39 21
        e 10 91 3b 7f
        e 222 81 3b 46
        e 23 91 45 7f
        e 3 91 40 7f
        e 364 81 45 01
        e 64 81 40 24
        e 14 91 3e 7f
        e 12 91 42 7f
        e 10 91 45 7f
        e 355 81 42 03
        e 39 81 3e 03
        e 24 81 45 34
        e 42 91 3c 7f
        e 1 91 42 7f
        e 447 81 42 40
        e 10 81 3c 01
        e 14 91 43 7f
        e 5 91 3b 7f
        e 333 81 43 2c
        e 51 81 3b 27
        e 72 91 3e 7f
        e 18 91 43 7f
        e 2 91 47 7f
        e 376 81 43 25
        e 29 81 3e 2b
        e 18 81 47 3b
        e 61 91 43 7f
        e 2 91 3c 7f
        e 91 81 3c 34
        e 7 81 43 34
        e 52 91 43 7f
        e 2 91 3c 7f
        e 79 81 3c 31
        e 3 81 43 3d
        e 62 91 3c 7f
        e 1 91 43 7f
        e 100 81 43 33
        e 11 81 3c 29
        e 62 91 43 7f
        e 5 91 3b 7f
        e 7 91 3e 7f
        e 390 81 3e 2f
        e 18 81 43 22
        e 1 81 3b 3a
        e 73 91 43 7f
        e 1 91 47 7f
        e 4 91 3e 7f
        e 399 81 47 3f
        e 1 81 3e 3b
        e 12 81 43 3b
        e 85 91 40 7f
        e 2 91 43 7f
        e 8 91 48 7f
        e 366 81 48 1c
        e 20 81 43 29
        e 13 81 40 24
        e 82 91 3e 7f
        e 3 91 47 7f
        e 4 91 43 7f
        e 340 81 3e 30
        e 22 81 43 34
        e 42 81 47 36
        e 53 91 3e 7f
        e 10 91 43 7f
        e 110 81 3e 30
        e 26 91 3c 7f
        e 7 91 42 7f
        e 9 81 43 2b
        e 62 81 3c 3a
        e 19 81 42 41
        e 52 91 3c 7f
        e 16 91 3e 7f
        e 72 81 3c 1c
        e 18 81 3e 24
        e 70 91 3b 7f
        e 4 91 3e 7f
        e 369 81 3e 36
        e 15 81 3b 39
        e 92 91 3e 7f
        e 8 91 47 7f
        e 3 91 43 7f
        e 393 81 43 3a
        e 14 81 3e 28
        e 31 81 47 39
        e 44 91 3e 7f
        e 5 91 43 7f
        e 8 91 3b 7f
        e 332 81 3e 26
        e 20 81 3b 47
        e 130 91 37 7f
        e 1 81 43 2b
        e 5 91 3b 7f
        e 1 91 40 7f
        e 416 81 3b 01
        e 15 81 37 23
        e 35 81 40 1c
        e 6 91 39 7f
        e 175 81 39 26
        e 34 91 3b 7f
        e 226 81 3b 24
        e 22 91 45 7f
        e 3 91 40 7f
        e 352 81 45 1c
        e 60 81 40 2c
        e 50 91 3e 7f
        e 6 91 42 7f
        e 5 91 45 7f
        e 350 81 42 25
        e 86 81 45 23
        e 13 81 3e 0b
        e 16 91 3c 7f
        e 7 91 42 7f
        e 458 81 42 3c
        e 23 81 3c 1e
        e 9 91 43 7f
        e 5 91 3b 7f
        e 324 81 43 2b
        e 37 81 3b 2b
        e 91 91 3e 7f
        e 5 91 47 7f
        e 6 91 43 7f
        e 373 81 43 01
        e 39 81 3e 26
        e 19 81 47 29
        e 41 91 3c 7f
        e 10 91 43 7f
        e 73 81 3c 3b
        e 9 81 43 34
        e 59 91 3c 7f
        e 14 91 43 7f
        e 63 81 3c 34
        e 18 81 43 35
        e 51 91 3c 7f
        e 22 91 43 7f
        e 85 81 43 38
        e 6 81 3c 2c
        e 84 91 43 7f
        e 4 91 3b 7f
        e 6 91 3e 7f
        e 348 81 3e 27
        e 10 81 43 33
        e 16 81 3b 2f
        e 73 91 3e 7f
        e 10 91 47 7f
        e 1 91 43 7f
        e 355 81 47 3f
        e 6 81 43 23
        e 55 81 3e 30
        e 73 91 40 7f
        e 0 91 43 7f
        e 0 91 48 7f
        e 374 81 48 3f
        e 11 81 43 0f
        e 21 81 40 27
        e 82 91 43 7f
        e 2 91 47 7f
        e 1 91 3e 7f
        e 362 81 3e 35
        e 7 81 43 2d
        e 12 81 47 33
        e 71 91 3e 7f
        e 5 91 43 7f
        e 127 81 43 24
        e 10 91 3c 7f
        e 1 91 42 7f
        e 24 81 3e 01
        e 44 81 3c 35
        e 16 81 42 23
        e 70 91 3e 7f
        e 47 91 3c 7f
        e 40 81 3c 1c
        e 1 81 3e 38
        e 100 91 3b 7f
        e 11 91 3e 7f
        e 388 81 3e 29
        e 10 81 3b 2a
        e 86 91 3c 7f
        e 0 91 41 7f
        e 418 81 3c 27
        e 11 81 41 35
        e 55 91 39 7f
        e 3 91 3c 7f
        e 380 81 39 2a
        e 29 81 3c 34
        e 81 91 39 7f
        e 3 91 3e 7f
        e 752 81 3e 20
        e 77 81 39 2a
        e 129 91 45 7f
        e 4 91 41 7f
        e 1 91 3b 7f
        e 377 81 3b 36
        e 19 81 45 34
        e 18 81 41 25
        e 30 91 44 7f
        e 18 91 40 7f
        e 5 91 3b 7f
        e 207 81 3b 27
        e 5 81 40 1c
        e 5 81 44 22
        e 11 91 3c 7f
        e 168 81 3c 2e
        e 68 91 3c 7f
        e 20 91 40 7f
        e 380 81 3c 33
        e 19 81 40 30
        e 57 91 3c 7f
        e 9 91 40 7f
        e 376 81 40 23
        e 3 81 3c 1c
        e 101 91 40 7f
        e 1 91 3b 7f
        e 376 81 3b 31
        e 5 81 40 1c
        e 89 91 3b 7f
        e 6 91 40 7f
        e 4 91 43 7f
        e 377 81 40 01
        e 31 81 43 1e
        e 20 81 3b 28
        e 29 91 3c 7f
        e 17 91 40 7f
        e 377 81 40 38
        e 18 81 3c 2e
        e 79 91 3b 7f
        e 0 91 40 7f
        e 332 81 40 03
        e 72 81 3b 16
        e 60 91 40 7f
        e 1 91 3c 7f
        e 0 91 45 7f
        e 411 81 3c 32
        e 4 81 45 21
        e 17 81 40 22
        e 68 91 3c 7f
        e 8 91 45 7f
        e 3 91 40 7f
        e 149 81 45 39
        e 2 81 3c 33
        e 16 81 40 2c
        e 65 91 40 7f
        e 6 91 39 7f
        e 2 91 3c 7f
        e 145 81 40 2a
        e 19 81 39 2e
        e 0 81 3c 28
        e 90 91 3b 7f
        e 7 91 40 7f
        e 4 91 43 7f
        e 123 81 40 28
        e 27 81 43 37
        e 3 81 3b 2f
        e 68 91 40 7f
        e 1 91 39 7f
        e 159 81 40 2b
        e 28 81 39 24
        e 53 91 37 7f
        e 5 91 40 7f
        e 351 81 37 37
        e 6 81 40 11
        e 103 91 39 7f
        e 1 91 35 7f
        e 6 91 3e 7f
        e 375 81 39 3e
        e 7 81 35 2d
        e 17 81 3e 3e
        e 92 91 41 7f
        e 2 91 3c 7f
        e 1 91 45 7f
        e 1 91 3e 7f
        e 64 81 3e 1e
        e 93 81 41 34
        e 6 81 45 33
        e 19 81 3c 40
        e 55 91 41 7f
        e 9 91 3b 7f
        e 132 81 41 29
        e 0 81 3b 44
        e 108 91 41 7f
        e 2 91 43 7f
        e 23 91 3e 7f
        e 349 81 41 30
        e 6 81 43 3f
        e 0 81 3e 21
        e 77 91 3e 7f
        e 2 91 41 7f
        e 0 91 43 7f
        e 369 81 43 3c
        e 16 81 3e 33
        e 2 81 41 2a
        e 89 91 3b 7f
        e 7 91 40 7f
        e 371 81 3b 1f
        e 12 81 40 38
        e 80 91 40 7f
        e 7 91 3b 7f
        e 81 81 3b 29
        e 1 81 40 33
        e 71 91 40 7f
        e 6 91 3b 7f
        e 70 81 3b 37
        e 6 81 40 36
        e 66 91 3b 7f
        e 6 91 40 7f
        e 77 81 40 2d
        e 39 81 3b 46
        e 88 91 47 7f
        e 3 91 40 7f
        e 403 81 40 2c
        e 6 81 47 46
        e 69 91 3c 7f
        e 4 91 40 7f
        e 290 81 3c 4b
        e 2 81 40 4f
        e 176 91 40 7f
        e 3 91 45 7f
        e 337 81 40 21
        e 72 81 45 29
        e 36 91 43 7f
        e 3 91 3e 7f
        e 347 81 3e 2e
        e 6 81 43 1f
        e 154 91 40 7f
        e 0 91 43 7f
        e 89 81 43 37
        e 1 81 40 32
        e 55 91 40 7f
        e 0 91 43 7f
        e 53 81 43 3a
        e 4 81 40 31
        e 77 91 40 7f
        e 1 91 43 7f
        e 93 81 43 23
        e 4 81 40 31
        e 70 91 42 7f
        e 10 91 3c 7f
        e 179 81 3c 1c
        e 8 81 42 3b
        e 58 91 39 7f
        e 159 81 39 04
        e 108 91 37 7f
        e 6 91 3b 7f
        e 5 91 3e 7f
        e 370 81 37 4c
        e 21 81 3e 29
        e 1 81 3b 37
        e 83 91 36 7f
        e 3 91 39 7f
        e 8 91 3e 7f
        e 376 81 39 01
        e 9 81 36 1e
        e 11 81 3e 01
        e 62 91 34 7f
        e 7 91 3c 7f
        e 2 91 37 7f
        e 389 81 34 49
        e 10 81 37 1f
        e 3 81 3c 2f
        e 41 91 36 7f
        e 6 91 32 7f
        e 6 91 39 7f
        e 7 91 3c 7f
        e 337 81 32 47
        e 90 81 39 2a
        e 12 81 3c 29
        e 6 81 36 1f
        e 40 91 32 7f
        e 15 91 3b 7f
        e 7 91 37 7f
        e 854 81 32 40
        e 54 81 37 4e
        e 2 81 3b 51
        e 43 91 3b 7f
        e 2 91 37 7f
        e 5 91 32 7f
        e 335 81 32 26
        e 6 81 3b 0f
        e 7 81 37 1c
        e 102 91 3b 7f
        e 4 91 32 7f
        e 0 91 37 7f
        e 349 81 37 01
        e 14 81 3b 15
        e 1 81 32 36
        e 101 91 32 7f
        e 3 91 3b 7f
        e 2 91 37 7f
        e 695 81 37 29
        e 2 81 3b 35
        e 1 81 32 49
        e 130 91 4a 7f
        e 1 91 43 7f
        e 0 91 47 7f
        e 55 81 43 3b
        e 0 81 47 3b
        e 2 81 4a 43
        e 68 91 4a 7f
        e 3 91 47 7f
        e 2 91 43 7f
        e 401 81 43 2a
        e 1 81 47 2a
        e 3 81 4a 29
        e 66 91 4a 7f
        e 2 91 43 7f
        e 0 91 47 7f
        e 414 81 43 1b
        e 0 81 47 21
        e 4 81 4a 21
        e 65 91 4a 7f
        e 2 91 43 7f
        e 0 91 47 7f
        e 413 81 43 1c
        e 0 81 47 28
        e 2 81 4a 29
        e 81 91 4a 7f
        e 1 91 47 7f
        e 3 91 43 7f
        e 390 81 4a 1f
        e 3 81 47 32
        e 2 81 43 36
        e 57 91 4a 7f
        e 1 91 47 7f
        e 2 91 43 7f
        e 149 81 43 23
        e 1 81 4a 28
        e 3 81 47 1c
        E 349 b0 7b 00
        GUID {156F6350-A4FA-6C43-80C7-17DB98FD54F5}
        IGNTEMPO 0 120 4 4
        SRCCOLOR 375
        VELLANE -1 86 6
        CFGEDITVIEW 0 0 52 17 0 0 0 0 0 0.5
        KEYSNAP 0
        TRACKSEL 226
        EVTFILTER 0 -1 -1 -1 -1 0 0 0 0 -1 -1 -1 -1 0 -1 0 -1 -1
        CFGEDIT 1 0 0 0 0 0 1 0 1 1 1 0.25 32 63 1280 778 0 0 2 3 0 0 0 0 0 -1 0 0 1 64
      >
    >
  >
  <TRACK {4A6CD977-ADCC-3A4D-927C-BB2CEF4B0809}
    NAME "vst Gladiator"
    PEAKCOL 27222112
    BEAT -1
    AUTOMODE 0
    VOLPAN 0.31622776601684 0 -1 -1 1
    MUTESOLO 0 0 0
    IPHASE 0
    ISBUS 0 0
    BUSCOMP 2 0
    SHOWINMIX 1 0.6667 0.5 1 0.5 0 0 0
    FREEMODE 0
    SEL 0
    REC 0 0 0 0 0 0 0
    VU 2
    TRACKHEIGHT 39 0
    INQ 0 0 0 0.5 100 0 0 100
    NCHAN 2
    FX 1
    TRACKID {4A6CD977-ADCC-3A4D-927C-BB2CEF4B0809}
    PERF 0
    MIDIOUT -1
    MAINSEND 1 0
    <FXCHAIN
      SHOW 0
      LASTSEL 0
      DOCKED 0
      BYPASS 0 0 0
      <VST "VSTi: Gladiator (Tone2.com)" Gladiator.vst 0 "" 1412581196
        TEcyVO5e7f4AAAAAAgAAAAEAAAAAAAAAAgAAAAAAAABaBAAAAQAAAAAAEAA=
        Q2NuSwAAAGBGeENrAAAAAVQyR0wAAAABAAABB0luaXQAAAAAAAAAAAAAAAAAAAAAAAAAAAAAAAA9zMzNPMzMzTw0OVg9uFH0PXnbIz+AAAA7xJumPb52yT+AAAA7xJum
        AAAAAD6mZmY+PXCkP4AAAD7FHrk/AAAAPwAAAAAAAAA9ffO2PdDlYDy8an8/RR64AAAAAD+AAAA8NDlYPZFocz71wo87RJumPbhR6D69cKQ+PXCkP4AAAD8AAAA/A9cL
        PwAAAAAAAAAAAAAAPwAAAD8AAAA/AAAAPtmZmj8AAAAAAAAAO+VgQj24UesAAAAAPk21xDtEm6Y/S4UeAAAAAAAAAAA+64UgPpR64T1hR7A+z1woPx64Uj49cKY/AAAA
        PwAAAAAAAAAAAAAAPwAAAAAAAAAAAAAAP4AAAD+AAAAAAAAAPxHrhT8AAAA/AAAAPwAAAD8AAAAAAAAAPwAAAD8AAAA/AAAAAAAAAD8AAAA/AAAAPwAAAAAAAAA6gxJv
        P1Cj1wAAAAA/gAAAAAAAADqDEm8/AAAAAAAAAAAAAAAAAAAAPwAAAAAAAAA/gAAAAAAAAD+AAAAAAAAAPwAAAD8AAAA/AAAAPwAAAD8AAAA/AAAAPwAAAD8AAAA/AAAA
        PwAAAD8AAAA/EeuGPKPXCjqDEm88RJumAAAAAAAAAAAAAAAAPLxqfwAAAAAAAAAAAAAAAAAAAAAAAAAAAAAAAAAAAAAAAAAAAAAAAAAAAAAAAAAAAAAAAAAAAAAAAAAA
        AAAAAAAAAAA8E3S8AAAAADw0OVgAAAAAPBN0vAAAAAA8NDlYAAAAADwTdLwAAAAAPDQ5WAAAAAA8E3S8AAAAADw0OVgAAAAAPGVgQj2HKwI8ZWBCOwMSbz2JN0w7AxJv
        PLQ5WDyLQ5Y8k3S8PVT99D0XjVA8zMzNPoAAAD9ywjU/AAAAP1GnuT8wjT4/HLCNAAAAADsDEm86gxJvAAAAAAAAAAAAAAAAPwAAADqDEm87RJumP4AAAAAAAAA/gAAA
        AAAAAD+AAAAAAAAAAAAAAAAAAAAAAAAAP4AAAAAAAAA/AAAAAAAAAD8AAAA/BR64PwAAAD+AAAA/AAAAPwAAAD8AAAA/gAAAP4AAAAAAAAAAAAAAAAAAAD8AAAA/gAAA
        PwAAAAAAAAA+vXCkAAAAAAAAAAA/gAAAP4AAAD8j1wo/gAAAAAAAAAAAAAA/gAAAPwAAAAAAAAAAAAAAAAAAAAAAAAAAAAAAAAAAAAAAAAAAAAAAAAAAAAAAAAAAAAAA
        AAAAAD8AAAA/AAAAPwAAAD8AAAA/AAAAPwAAAAAAAAAAAAAAP4AAAAAAAAAAAAAAAAAAAAAAAAAAAAAAAAAAAAAAAAAAAAAAAAAAAAAAAAAAAAAAAAAAAAAAAAAAAAAA
        AAAAAAAAAAAAAAAAAAAAAAAAAAAAAAAAAAAAAAAAAAAAAAAAAAAAAAAAAAAAAAAAAAAAAAAAqqusrQ==
        AEluaXQAEAAAAA==
      >
      PRESETNAME Init
      FLOATPOS 500 379 987 799
      FXID {532372E3-5B0D-9345-A9C8-98A8EBAF9A7E}
      WAK 0
    >
    <ITEM
      POSITION 0
      SNAPOFFS 0
      LENGTH 37.5
      LOOP 1
      ALLTAKES 0
      FADEIN 1 0 0 1 0 0
      FADEOUT 1 0 0 1 0 0
      MUTE 0
      SEL 0
      YPOS 0 0.05
      IGUID {73AAF152-4895-DB4F-B2A0-8F01AFE4C82E}
      IID 1
      NAME "trumpet(s) - National_Anthems_-_San_Marino.mid"
      VOLPAN 1 0 1 -1
      SOFFS 0 0
      PLAYRATE 1 1 0 -1 0 0.0025
      CHANMODE 0
      TAKECOLOR 26173599 B
      GUID {A240D99C-45FB-EA49-8FDC-A8856A54A3C1}
      <SOURCE MIDI
        HASDATA 1 480 QN
        POOLEDEVTS {58C44EEA-F512-1044-858D-362DFB795244}
        <X 0 0 0 0 3 trumpet(s)
          /wN0cnVtcGV0KHMp
        >
        <X 0 0 0 0 4 "Sound Canvas"
          /wRTb3VuZCBDYW52YXM=
        >
        e 0 90 4a 7f
        e 451 80 4a 30
        e 29 90 47 7f 3
        e 422 80 47 0c 3
        e 58 90 43 7f 10
        e 377 80 43 03 10
        e 103 90 45 7f -6
        e 195 80 45 0f -6
        e 45 90 47 7f -7
        e 151 80 47 19 -7
        e 89 90 4c 7f -7
        e 439 80 4c 1a -7
        e 41 90 4a 7f -9
        e 416 80 4a 1a -9
        e 64 90 45 7f -4
        e 398 80 45 24 -4
        e 82 90 47 7f -18
        e 458 80 47 15 -18
        e 22 90 4a 7f -24
        e 460 80 4a 26 -24
        e 20 90 48 7f -5
        e 128 80 48 39 -5
        e 32 90 47 7f -13
        e 139 80 47 2e -13
        e 21 90 48 7f -16
        e 145 80 48 23 -16
        e 15 90 47 7f 3
        e 409 80 47 0a 3
        e 71 90 4a 7f -8
        e 423 80 4a 27 -8
        e 57 90 4c 7f 3
        e 432 80 4c 41 3
        e 48 90 4a 7f 13
        e 473 80 4a 41 13
        e 7 90 47 7f 5
        e 142 80 47 30 5
        e 18 90 45 7f -21
        e 149 80 45 20 -21
        e 11 90 43 7f -18
        e 114 80 43 3c -18
        e 46 90 43 7f 13
        e 354 80 43 35 13
        e 126 90 4a 7f 6
        e 441 80 4a 2e 6
        e 39 90 47 7f 21
        e 428 80 47 01 21
        e 52 90 43 7f -15
        e 466 80 43 0c -15
        e 14 90 45 7f -5
        e 214 80 45 0b -5
        e 26 90 47 7f -13
        e 191 80 47 01 -13
        e 49 90 4c 7f -1
        e 441 80 4c 1d -1
        e 39 90 4a 7f 2
        e 435 80 4a 27 2
        e 45 90 45 7f -6
        e 449 80 45 14 -6
        e 31 90 47 7f -30
        e 426 80 47 17 -30
        e 54 90 4a 7f -5
        e 434 80 4a 2c -5
        e 46 90 48 7f -13
        e 129 80 48 34 -13
        e 31 90 47 7f -28
        e 131 80 47 30 -28
        e 29 90 48 7f -25
        e 121 80 48 2f -25
        e 39 90 47 7f -1
        e 405 80 47 02 -1
        e 75 90 4a 7f -6
        e 398 80 4a 26 -6
        e 82 90 4c 7f -6
        e 426 80 4c 2d -6
        e 54 90 4a 7f 6
        e 458 80 4a 3a 6
        e 22 90 47 7f -5
        e 147 80 47 3a -5
        e 13 90 45 7f -13
        e 115 80 45 2c -13
        e 45 90 43 7f -28
        e 94 80 43 29 -28
        e 66 90 43 7f -3
        e 351 80 43 16 -3
        e 129 90 48 7f -7
        e 463 80 48 0f -7
        e 17 90 45 7f 11
        e 416 80 45 01 11
        e 64 90 41 7f -6
        e 873 80 41 01 -6
        e 87 90 47 7f -9
        e 395 80 47 3e -9
        e 85 90 47 7f -23
        e 199 80 47 29 -23
        e 41 90 48 7f -15
        e 203 80 48 30 -15
        e 37 90 47 7f -12
        e 415 80 47 1f -12
        e 65 90 45 7f -26
        e 421 80 45 0e -26
        e 59 90 43 7f -18
        e 401 80 43 23 -18
        e 79 90 47 7f -24
        e 414 80 47 32 -24
        e 66 90 45 7f -31
        e 439 80 45 1d -31
        e 41 90 43 7f -27
        e 411 80 43 07 -27
        e 69 90 48 7f -13
        e 384 80 48 3c -13
        e 96 90 48 7f -23
        e 214 80 48 32 -23
        e 26 90 45 7f -12
        e 177 80 45 1d -12
        e 63 90 47 7f -10
        e 199 80 47 1d -10
        e 41 90 45 7f -4
        e 150 80 45 08 -4
        e 90 90 43 7f -1
        e 382 80 43 3e -1
        e 98 90 41 7f -7
        e 391 80 41 16 -7
        e 89 90 45 7f -2
        e 200 80 45 30 -2
        e 40 90 43 7f 1
        e 164 80 43 0d 1
        e 76 90 4a 7f -5
        e 455 80 4a 2c -5
        e 25 90 47 7f -5
        e 402 80 47 01 -5
        e 78 90 43 7f -17
        e 431 80 43 01 -17
        e 49 90 47 7f -11
        e 139 80 47 2d -11
        e 21 90 45 7f -4
        e 126 80 45 20 -4
        e 34 90 43 7f
        e 123 80 43 14
        e 37 90 48 7f 7
        e 425 80 48 24 7
        e 55 90 45 7f -21
        e 393 80 45 25 -21
        e 87 90 47 7f -11
        e 413 80 47 2e -11
        e 67 90 47 7f 9
        e 406 80 47 2a 9
        e 74 90 48 7f 19
        e 147 80 48 2a 19
        e 13 90 47 7f 1
        e 153 80 47 21 1
        e 7 90 45 7f 11
        e 107 80 45 3d 11
        e 53 90 45 7f 15
        e 140 80 45 2e 15
        e 100 90 45 7f 24
        e 137 80 45 37 24
        e 103 90 43 7f 22
        e 401 80 43 24 22
        e 79 90 42 7f -2
        e 453 80 42 01 -2
        e 27 90 40 7f 9
        e 476 80 40 27 9
        e 4 90 3e 7f 21
        e 366 80 3e 2e 21
        e 114 90 3e 7f
        e 975 80 3e 55
        e 1825 90 4f 7f -35
        e 37 80 4f 48 -35
        e 43 90 4f 7f -10
        e 419 80 4f 46 -10
        e 61 90 4f 7f -14
        e 424 80 4f 40 -14
        e 56 90 4f 7f -17
        e 427 80 4f 45 -17
        e 53 90 4f 7f -19
        e 421 80 4f 48 -19
        e 59 90 4f 7f -33
        e 169 80 4f 3c -33
        E 311 b0 7b 00
        GUID {2ECCC3F2-3404-AC41-8F43-FA41DE611391}
        IGNTEMPO 0 120 4 4
        SRCCOLOR 359
        VELLANE -1 86 6
        CFGEDITVIEW 0 0 52 17 0 0 0 0 0 0.5
        KEYSNAP 0
        TRACKSEL 226
        EVTFILTER 0 -1 -1 -1 -1 0 0 0 0 -1 -1 -1 -1 0 -1 0 -1 -1
        CFGEDIT 1 0 0 0 0 0 1 0 1 1 1 0.16666667 32 63 1280 778 0 0 2 3 0 0 0 0 0 -1 0 0 1 64
      >
      TAKE
      NAME "trumpet(s) - National_Anthems_-_San_Marino.mid"
      TAKEVOLPAN 0 1 -1
      SOFFS 0 0
      PLAYRATE 1 1 0 -1 0 0.0025
      CHANMODE 0
      GUID {15E88ADF-C65D-7043-A335-019A67DA1FC7}
      <SOURCE MIDI
        HASDATA 1 480 QN
        POOLEDEVTS {EBEED348-A31C-FD4B-BA7E-20E221472532}
        <X 0 0 0 0 3 trumpet(s)
          /wN0cnVtcGV0KHMp
        >
        <X 0 0 0 0 4 "Sound Canvas"
          /wRTb3VuZCBDYW52YXM=
        >
        e 0 90 4a 7f
        e 451 80 4a 30
        e 32 90 47 7f
        e 422 80 47 0c
        e 65 90 43 7f
        e 377 80 43 03
        e 87 90 45 7f
        e 195 80 45 0f
        e 44 90 47 7f
        e 151 80 47 19
        e 89 90 4c 7f
        e 439 80 4c 1a
        e 39 90 4a 7f
        e 416 80 4a 1a
        e 69 90 45 7f
        e 398 80 45 24
        e 68 90 47 7f
        e 458 80 47 15
        e 16 90 4a 7f
        e 460 80 4a 26
        e 39 90 48 7f
        e 128 80 48 39
        e 24 90 47 7f
        e 139 80 47 2e
        e 18 90 48 7f
        e 145 80 48 23
        e 34 90 47 7f
        e 409 80 47 0a
        e 60 90 4a 7f
        e 423 80 4a 27
        e 68 90 4c 7f
        e 432 80 4c 41
        e 58 90 4a 7f
        e 472 90 47 7f
        e 1 80 4a 41
        e 133 90 45 7f
        e 8 80 47 30
        e 141 80 45 20
        e 14 90 43 7f
        e 114 80 43 3c
        e 77 90 43 7f
        e 354 80 43 35
        e 119 90 4a 7f
        e 441 80 4a 2e
        e 54 90 47 7f
        e 428 80 47 01
        e 16 90 43 7f
        e 466 80 43 0c
        e 24 90 45 7f
        e 214 80 45 0b
        e 18 90 47 7f
        e 191 80 47 01
        e 61 90 4c 7f
        e 441 80 4c 1d
        e 42 90 4a 7f
        e 435 80 4a 27
        e 37 90 45 7f
        e 449 80 45 14
        e 7 90 47 7f
        e 426 80 47 17
        e 79 90 4a 7f
        e 434 80 4a 2c
        e 38 90 48 7f
        e 129 80 48 34
        e 16 90 47 7f
        e 131 80 47 30
        e 32 90 48 7f
        e 121 80 48 2f
        e 63 90 47 7f
        e 405 80 47 02
        e 70 90 4a 7f
        e 398 80 4a 26
        e 82 90 4c 7f
        e 426 80 4c 2d
        e 66 90 4a 7f
        e 458 80 4a 3a
        e 11 90 47 7f
        e 147 80 47 3a
        e 5 90 45 7f
        e 115 80 45 2c
        e 30 90 43 7f
        e 94 80 43 29
        e 91 90 43 7f
        e 351 80 43 16
        e 125 90 48 7f
        e 463 80 48 0f
        e 35 90 45 7f
        e 416 80 45 01
        e 47 90 41 7f
        e 873 80 41 01
        e 84 90 47 7f
        e 395 80 47 3e
        e 71 90 47 7f
        e 199 80 47 29
        e 49 90 48 7f
        e 203 80 48 30
        e 40 90 47 7f
        e 415 80 47 1f
        e 51 90 45 7f
        e 421 80 45 0e
        e 67 90 43 7f
        e 401 80 43 23
        e 73 90 47 7f
        e 414 80 47 32
        e 59 90 45 7f
        e 439 80 45 1d
        e 45 90 43 7f
        e 411 80 43 07
        e 83 90 48 7f
        e 384 80 48 3c
        e 86 90 48 7f
        e 214 80 48 32
        e 37 90 45 7f
        e 177 80 45 1d
        e 65 90 47 7f
        e 199 80 47 1d
        e 47 90 45 7f
        e 150 80 45 08
        e 93 90 43 7f
        e 382 80 43 3e
        e 92 90 41 7f
        e 391 80 41 16
        e 94 90 45 7f
        e 200 80 45 30
        e 43 90 43 7f
        e 164 80 43 0d
        e 70 90 4a 7f
        e 455 80 4a 2c
        e 25 90 47 7f
        e 402 80 47 01
        e 66 90 43 7f
        e 431 80 43 01
        e 55 90 47 7f
        e 139 80 47 2d
        e 28 90 45 7f
        e 126 80 45 20
        e 38 90 43 7f
        e 123 80 43 14
        e 44 90 48 7f
        e 425 80 48 24
        e 27 90 45 7f
        e 393 80 45 25
        e 97 90 47 7f
        e 413 80 47 2e
        e 87 90 47 7f
        e 406 80 47 2a
        e 84 90 48 7f
        e 142 90 47 7f
        e 5 80 48 2a
        e 148 80 47 21
        e 17 90 45 7f
        e 107 80 45 3d
        e 57 90 45 7f
        e 140 80 45 2e
        e 109 90 45 7f
        e 137 80 45 37
        e 101 90 43 7f
        e 401 80 43 24
        e 55 90 42 7f
        e 453 80 42 01
        e 38 90 40 7f
        e 476 80 40 27
        e 16 90 3e 7f
        e 366 80 3e 2e
        e 93 90 3e 7f
        e 975 80 3e 55
        e 1790 90 4f 7f
        e 37 80 4f 48
        e 68 90 4f 7f
        e 419 80 4f 46
        e 57 90 4f 7f
        e 424 80 4f 40
        e 53 90 4f 7f
        e 427 80 4f 45
        e 51 90 4f 7f
        e 421 80 4f 48
        e 45 90 4f 7f
        e 169 80 4f 3c
        E 344 b0 7b 00
        GUID {E141F808-6184-1C41-85D3-C201BF86E287}
        IGNTEMPO 0 120 4 4
        SRCCOLOR 363
        VELLANE -1 86 6
        CFGEDITVIEW 0 0 52 17 0 0 0 0 0 0.5
        KEYSNAP 0
        TRACKSEL 226
        EVTFILTER 0 -1 -1 -1 -1 0 0 0 0 -1 -1 -1 -1 0 -1 0 -1 -1
        CFGEDIT 1 0 0 0 0 0 1 0 1 1 1 0.25 32 63 1280 778 0 0 2 3 0 0 0 0 0 -1 0 0 1 64
      >
    >
  >
  <TRACK {9E2CAE92-CCC1-1F4A-BCF6-93DCFE473BDF}
    NAME "16th pulse (mix w/ send?)"
    PEAKCOL 16576
    BEAT -1
    AUTOMODE 0
    VOLPAN 0.4237703951579 0 -1 -1 1
    MUTESOLO 0 0 0
    IPHASE 0
    ISBUS 0 0
    BUSCOMP 0 0
    SHOWINMIX 1 0.6667 0.5 1 0.5 0 0 0
    FREEMODE 0
    SEL 0
    REC 0 0 0 0 0 0 0
    VU 2
    TRACKHEIGHT 39 0
    INQ 0 0 0 0.5 100 0 0 100
    NCHAN 2
    FX 1
    TRACKID {9E2CAE92-CCC1-1F4A-BCF6-93DCFE473BDF}
    PERF 0
    MIDIOUT -1
    MAINSEND 1 0
    <FXCHAIN
      WNDRECT 36 359 724 387
      SHOW 0
      LASTSEL 0
      DOCKED 0
      BYPASS 0 0 0
      <VST "VSTi: chipsounds (Plogue Art et Technologie, Inc)" chipsounds.vst 0 "" 1347176271
        T0dMUO5e7f4AAAAABAAAAAEAAAAAAAAAAgAAAAAAAAAEAAAAAAAAAAgAAAAAAAAAvAQAAAEAAAAAABAA
        Q0VHUBEfAAB4nO1ZS2/jNhC+51cIOrWHlUiKFEXAzsJx4sJA0w3g9LxgZK4jrF4rUeluf31Hkh3TSWg5r3aBei6m6Hl+okYzo9HH71nq3KmqTop87GIPuc7H05PRpErk
        Qt4p4y+BQ9cpq2LZxHp+DhsICff0xAEaLZTWSb6qnW+NTBP9A/51nVpXSmawPXYD4jqZ/L7odiZpWsSXZ2OXYdi+nJ/PPzX6sliqTko2usikBpuLtNBjF5lbqbpT6dhN
        ctDdZCrXrpMmd6oXBs46bh2lUbuSqYQ97HxwVOuVV8fpensKgqoauyFIrNLiRqbXTd75CRv+JiSw7iTLbi+XWasfe85VUylnepuU/mJ+7ocsws4vf1wvpr+6zo3Mv86X
        a1wM3CICUca3Ms9b10FbWaQAEHUdvbVa3nyuZL4CKx8Ag1LDRd39kRnLItZwS+4DhSizRq+v//qcylq3anv/uxguZZJvYriTadMj7D/Fge85kIWDDHIEgxx0kIMNcoSD
        HHyQIxrkEIMcGA2zDKOKh2HFw7jiYWCxFdkrWcls/y3eslgNbVm47bBtWUzsPCoYaonyMAp4m2UsQgYOHmFWNmqyBaIjGgaMRcQqc4jPxpHwMOn1MhLgkETUioUZaIB7
        IeDnlBJroByb6KBeKKQk4KTFwCJETPeiDlHEMSOMcbt7O5AGvRDFnASEWYHgJsBhD3DEQki7EbO7Zxw/j/eWsEA8oFFoFwp3YuqPCQkiCuvIKmQ83B5E08MXRRGhcNes
        UUWmrTUSGAuCBBFWGfF8GYF2Yuq94yGGVwm1n88ADx9QgbaqrWdLoK0mqzmByCHmDsgFAoWHaIoOYRKH5JVDPMcEBTaua1mtlF6/8eMi867SYtUory2IvN9nn7ymVhUy
        XrKd1LSpoUQ5l1o6t/pHCaKMM/C3Tv6GNQ2pURAAVipfJrJfLkEGFhua9T8EHelIR/pZaDdH+H2SeG7WwMescaQj/X/opVnjukpWK1Ut1LdG5bGqhvMGDWhwnze4kTbI
        U2kD9+7N1oS6ypXPEIE1uog4fhhIMOUzcUDAGNF9QY/8dqjycL6C33S+gjfzFbKdr+C3HLCQ44DlOGB56YDFbOzhcQlD3j030OOjILS2jGZnLxBj0GJyRqIoENja4+wM
        QTgNERORoCzEPLR3zs8c3FhHMNx65yxDDka73h4AiQRkI7tic16BBF239ogLxA+bVwQ94oPDpp15BcHiMEvWR+d1cwazs7fOcszOfk8X/R6d/Z5Bwr/R2b9L9R39x8X3
        m7Qczx1UvDjoRyXDA7p436BfVzHhgD23ZDprr9qSCTN0xmdnjyKxl0yb8gpSMtCEBS2W05929wl/Dy3xLr58UbE2P6Stq6r+/k2ym6S9WwOl3eaD3G9/zjdqZKyTOzXf
        fiDsri/ur2uVgmG1vJY37bWZUCpVK32p8sZJ6g277gLYf6Acrb4Dy5msaygfpb4du/6kLNMk7j5M1n4vCIVoUtZFky9hp7NV+3vU+v3BdGA//lr7rXZPwgNcPkiDj7zG
        T3o9qUq1WiVSF1uH06R8hcOGRr9V9RrvbJiCB5mq5DvAuva+AObexgP3Rz4cqtOTkb/53H168g+8P2qT
        AAAQAAAA
      >
      FLOATPOS 409 269 870 508
      FXID {DC79668B-30D1-964C-A162-F245DBE294B0}
      WAK 0
      BYPASS 0 0 0
      <VST "VST: 8-Bit Shaper (Xfer Records)" 8BitShaper.vst 0 "" 1148539762
        clN1RO5e7f4CAAAAAQAAAAAAAAACAAAAAAAAAAQAAAABAAAAAAAAAAIAAAAAAAAABAAAAAAAAAAIAAAAAAAAADQCAAABAAAAAAAQAA==
        ZmaGPwAAAD8AAAA/AAAAPyUA//8AAIA/AAAAAAAAAAAXAAAAMAAAABkAAAAaAAAAGgAAABoAAAAbAAAAGwAAABwAAAAcAAAAHAAAAB0AAAAdAAAAHgAAAB4AAAAfAAAA
        HwAAACAAAAAgAAAAIAAAACEAAAAhAAAAIQAAACIAAAAiAAAAIgAAACMAAAAjAAAAIwAAACQAAAAkAAAAJAAAACUAAAAlAAAAKAAAACgAAAApAAAAKQAAACoAAAA1AAAA
        KgAAACoAAAA2AAAAKgAAACoAAAAqAAAAKgAAACoAAAAqAAAAKgAAACsAAAArAAAAOQAAAC0AAAA0AAAAOgAAAC0AAAAtAAAAPAAAAC4AAAAuAAAALwAAADAAAAAwAAAA
        MQAAADEAAAAxAAAAMgAAADMAAAAzAAAAMwAAADcAAAA3AAAANwAAADgAAAA4AAAAOAAAADkAAAA5AAAAOQAAADoAAAA6AAAAOgAAADoAAAA6AAAAOwAAADsAAAA7AAAA
        PAAAADsAAAA7AAAAOwAAADwAAAA8AAAAPAAAADwAAAA9AAAAPQAAAD0AAAA9AAAAPQAAAD4AAAA+AAAAPwAAAEkAAABAAAAAQAAAAEgAAABAAAAAQQAAAEIAAABCAAAA
        QgAAAEMAAABDAAAAQwAAAEQAAABEAAAARQAAAE0AAABGAAAARwAAAEYAAABHAAAASAAAAEgAAABJAAAATwAAAAAAgD8AAAAAAAAAAB0Fwz48imM/
        AEluaXQgMQAQAAAA
      >
      PRESETNAME "Init 1"
      FLOATPOS 776 36 277 388
      FXID {2A4641D4-6D4C-F546-AD2C-E170D52A0701}
      WAK 0
    >
    <ITEM
      POSITION 0
      SNAPOFFS 0
      LENGTH 37.5
      LOOP 1
      ALLTAKES 0
      FADEIN 1 0 0 1 0 0
      FADEOUT 1 0 0 1 0 0
      MUTE 0
      SEL 0
      YPOS 0.336134 0.05
      IGUID {E0AB11AF-309C-7149-8712-33F6FE72020B}
      IID 4
      NAME "tuba(s) - National_Anthems_-_San_Marino.mid"
      VOLPAN 1 0 1 -1
      SOFFS 0 0
      PLAYRATE 1 1 0 -1 0 0.0025
      CHANMODE 0
      TAKECOLOR 26173599 B
      GUID {1534C76D-FA17-B048-A827-C63756EEADD7}
      <SOURCE MIDI
        HASDATA 1 480 QN
        POOLEDEVTS {F47FDE61-D1D7-F540-84B2-8D7D05D72B93}
        <X 0 0 0 0 3 tuba(s)
          /wN0dWJhKHMp
        >
        <X 0 0 0 0 4 "Sound Canvas"
          /wRTb3VuZCBDYW52YXM=
        >
        e 0 90 1f 7f
        e 428 80 1f 00
        e 52 90 1e 7f 15
        e 412 80 1e 00 15
        e 68 90 1c 7f -3
        e 903 80 1c 00 -3
        e 57 90 24 7f 2
        e 420 80 24 00 2
        e 60 90 26 7f -5
        e 415 80 26 00 -5
        e 65 90 26 7f 2
        e 414 80 26 00 2
        e 66 90 1f 7f -8
        e 387 80 1f 00 -8
        e 93 90 1f 7f -15
        e 419 80 1f 00 -15
        e 61 90 21 7f -31
        e 460 80 21 00 -31
        e 20 90 23 7f -3
        e 432 80 23 00 -3
        e 48 90 1f 7f 9
        e 431 80 1f 00 9
        e 49 90 24 7f 6
        e 416 80 24 00 6
        e 64 90 2b 7f 13
        e 385 80 2b 00 13
        e 95 90 26 7f -15
        e 420 80 26 00 -15
        e 60 90 1f 7f -5
        e 426 80 1f 00 -5
        e 54 90 1f 7f
        e 478 80 1f 00
        e 2 90 1e 7f 4
        e 435 80 1e 00 4
        e 45 90 1c 7f
        e 882 80 1c 00
        e 78 90 24 7f -4
        e 452 80 24 00 -4
        e 28 90 26 7f 7
        e 393 80 26 00 7
        e 87 90 26 7f 3
        e 433 80 26 00 3
        e 47 90 1f 7f
        e 345 80 1f 00
        e 135 90 1f 7f -12
        e 446 80 1f 00 -12
        e 34 90 21 7f -5
        e 390 80 21 00 -5
        e 90 90 23 7f -14
        e 419 80 23 00 -14
        e 61 90 1f 7f -12
        e 438 80 1f 00 -12
        e 42 90 24 7f
        e 412 80 24 00
        e 68 90 2b 7f -2
        e 422 80 2b 00 -2
        e 58 90 26 7f 4
        e 431 80 26 00 4
        e 49 90 1f 7f -4
        e 357 80 1f 00 -4
        e 123 90 2d 7f -4
        e 456 80 2d 00 -4
        e 24 90 29 7f 2
        e 431 80 29 00 2
        e 49 90 26 7f 17
        e 824 80 26 00 17
        e 136 90 26 7f -13
        e 432 80 26 00 -13
        e 48 90 28 7f 5
        e 433 80 28 00 5
        e 47 90 21 7f 1
        e 797 80 21 00 1
        e 83 90 28 7f 38
        e 481 80 28 00 38
        e 79 90 1f 7f -3
        e 438 80 1f 00 -3
        e 42 90 21 7f -7
        e 419 80 21 00 -7
        e 61 90 23 7f -14
        e 422 80 23 00 -14
        e 58 90 21 7f -17
        e 949 80 21 00 -17
        e 11 90 28 7f 2
        e 829 80 28 00 2
        e 131 90 26 7f -24
        e 466 80 26 00 -24
        e 14 90 24 7f -5
        e 399 80 24 00 -5
        e 81 90 23 7f -23
        e 881 80 23 00 -23
        e 79 90 28 7f -17
        e 920 80 28 00 -17
        e 40 90 21 7f -8
        e 841 80 21 00 -8
        e 39 90 1f 7f 33
        e 197 80 1f 00 33
        e 123 90 21 7f -30
        e 159 80 21 00 -30
        e 81 90 23 7f -33
        e 153 80 23 00 -33
        e 87 90 1f 7f -35
        e 166 80 1f 00 -35
        e 74 90 24 7f -19
        e 450 80 24 00 -19
        e 30 90 26 7f 7
        e 467 80 26 00 7
        e 13 90 1f 7f
        e 430 80 1f 00
        e 50 90 1f 7f 1
        e 436 80 1f 00 1
        e 44 90 1f 7f -7
        e 436 80 1f 00 -7
        e 44 90 1f 7f 7
        e 423 80 1f 00 7
        e 57 90 1f 7f 8
        e 919 80 1f 00 8
        e 41 90 1f 7f 6
        e 424 80 1f 00 6
        e 56 90 1f 7f -3
        e 424 80 1f 00 -3
        e 56 90 1f 7f 2
        e 438 80 1f 00 2
        e 42 90 1f 7f 16
        e 407 80 1f 00 16
        e 73 90 1f 7f -13
        e 427 80 1f 00 -13
        e 53 90 1f 7f -15
        e 429 80 1f 00 -15
        e 51 90 1f 7f
        e 398 80 1f 00
        e 82 90 1f 7f -18
        e 422 80 1f 00 -18
        e 58 90 1f 7f -20
        e 141 80 1f 00 -20
        E 339 b0 7b 00
        GUID {D6692967-5029-A94B-B86A-8470DB161E8D}
        IGNTEMPO 0 120 4 4
        SRCCOLOR 362
        VELLANE -1 86 6
        CFGEDITVIEW -1800 20.266667 81 22 0 0 0 0 0 0.5
        KEYSNAP 0
        TRACKSEL 226
        EVTFILTER 0 -1 -1 -1 -1 0 0 0 0 -1 -1 -1 -1 0 -1 0 -1 -1
        CFGEDIT 1 0 0 0 0 0 1 0 1 1 1 0.16666667 48 78 1280 777 0 0 2 3 0 0 0 0 0 -1 0 0 1 64
      >
      TAKE
      NAME "tuba(s) - National_Anthems_-_San_Marino.mid"
      TAKEVOLPAN 0 1 -1
      SOFFS 0 0
      PLAYRATE 1 1 0 -1 0 0.0025
      CHANMODE 0
      GUID {7F70E16D-1712-9C42-907C-795BD547DD96}
      <SOURCE MIDI
        HASDATA 1 480 QN
        POOLEDEVTS {BF605DAB-6139-6F4A-BAD5-00E63E6BCFB4}
        <X 0 0 0 0 3 tuba(s)
          /wN0dWJhKHMp
        >
        <X 0 0 0 0 4 "Sound Canvas"
          /wRTb3VuZCBDYW52YXM=
        >
        e 0 93 1f 7f
        e 428 83 1f 1b
        e 67 93 1e 7f
        e 412 83 1e 36
        e 50 93 1c 7f
        e 903 83 1c 01
        e 62 93 24 7f
        e 420 83 24 3a
        e 53 93 26 7f
        e 415 83 26 3f
        e 72 93 26 7f
        e 414 83 26 01
        e 56 93 1f 7f
        e 387 83 1f 3d
        e 86 93 1f 7f
        e 419 83 1f 2c
        e 45 93 21 7f
        e 460 83 21 28
        e 48 93 23 7f
        e 432 83 23 2a
        e 60 93 1f 7f
        e 431 83 1f 28
        e 46 93 24 7f
        e 416 83 24 01
        e 71 93 2b 7f
        e 385 83 2b 03
        e 67 93 26 7f
        e 420 83 26 10
        e 70 93 1f 7f
        e 426 83 1f 25
        e 59 93 1f 7f
        e 478 83 1f 01
        e 6 93 1e 7f
        e 435 83 1e 26
        e 41 93 1c 7f
        e 882 83 1c 21
        e 74 93 24 7f
        e 452 83 24 2c
        e 39 93 26 7f
        e 393 83 26 3b
        e 83 93 26 7f
        e 433 83 26 10
        e 44 93 1f 7f
        e 345 83 1f 31
        e 123 93 1f 7f
        e 446 83 1f 38
        e 41 93 21 7f
        e 390 83 21 3d
        e 81 93 23 7f
        e 419 83 23 12
        e 63 93 1f 7f
        e 438 83 1f 26
        e 54 93 24 7f
        e 412 83 24 0d
        e 66 93 2b 7f
        e 422 83 2b 23
        e 64 93 26 7f
        e 431 83 26 17
        e 41 93 1f 7f
        e 357 83 1f 2b
        e 123 93 2d 7f
        e 456 83 2d 1c
        e 30 93 29 7f
        e 431 83 29 36
        e 64 93 26 7f
        e 824 83 26 3a
        e 106 93 26 7f
        e 432 83 26 41
        e 66 93 28 7f
        e 433 83 28 23
        e 43 93 21 7f
        e 797 83 21 3a
        e 120 93 28 7f
        e 481 83 28 3d
        e 38 93 1f 7f
        e 438 83 1f 2d
        e 38 93 21 7f
        e 419 83 21 2c
        e 54 93 23 7f
        e 422 83 23 3d
        e 55 93 21 7f
        e 949 83 21 1d
        e 30 93 28 7f
        e 829 83 28 15
        e 105 93 26 7f
        e 466 83 26 2b
        e 33 93 24 7f
        e 399 83 24 31
        e 63 93 23 7f
        e 881 83 23 31
        e 85 93 28 7f
        e 920 83 28 12
        e 49 93 21 7f
        e 841 83 21 0f
        e 80 93 1f 7f
        e 197 83 1f 30
        e 60 93 21 7f
        e 159 83 21 39
        e 78 93 23 7f
        e 153 83 23 2d
        e 85 93 1f 7f
        e 166 83 1f 30
        e 90 93 24 7f
        e 450 83 24 21
        e 56 93 26 7f
        e 467 83 26 01
        e 6 93 1f 7f
        e 430 83 1f 33
        e 51 93 1f 7f
        e 436 83 1f 42
        e 36 93 1f 7f
        e 436 83 1f 44
        e 58 93 1f 7f
        e 423 83 1f 42
        e 58 93 1f 7f
        e 919 83 1f 30
        e 39 93 1f 7f
        e 424 83 1f 34
        e 47 93 1f 7f
        e 424 83 1f 41
        e 61 93 1f 7f
        e 438 83 1f 2d
        e 56 93 1f 7f
        e 407 83 1f 40
        e 44 93 1f 7f
        e 427 83 1f 32
        e 51 93 1f 7f
        e 429 83 1f 43
        e 66 93 1f 7f
        e 398 83 1f 35
        e 64 93 1f 7f
        e 422 83 1f 4c
        e 56 93 1f 7f
        e 141 83 1f 52
        E 359 b0 7b 00
        GUID {82EFC49F-6A53-CB4E-A31A-728CABA9F808}
        IGNTEMPO 0 120 4 4
        SRCCOLOR 366
        VELLANE -1 86 6
        CFGEDITVIEW 0 0 81 22 0 0 0 0 0 0.5
        KEYSNAP 0
        TRACKSEL 226
        EVTFILTER 0 -1 -1 -1 -1 0 0 0 0 -1 -1 -1 -1 0 -1 0 -1 -1
        CFGEDIT 1 0 0 0 0 0 1 0 1 1 1 0.125 48 79 1280 778 0 0 2 3 0 0 0 0 0 -1 0 0 1 64
      >
    >
  >
  <TRACK {3CF13A00-0AFC-8542-AD98-73B6D91102DB}
    NAME "vst Plogue"
    PEAKCOL 26779488
    BEAT -1
    AUTOMODE 0
    VOLPAN 1 0 -1 -1 1
    MUTESOLO 0 0 0
    IPHASE 0
    ISBUS 0 0
    BUSCOMP 0 0
    SHOWINMIX 1 0.6667 0.5 1 0.5 0 0 0
    FREEMODE 0
    SEL 0
    REC 0 0 0 1 0 0 0
    VU 2
    TRACKHEIGHT 39 0
    INQ 0 0 0 0.5 100 0 0 100
    NCHAN 4
    FX 1
    TRACKID {3CF13A00-0AFC-8542-AD98-73B6D91102DB}
    PERF 0
    AUXRECV 6 0 1 0 0 0 0 0 0 -1:U 32 -1 ''
    AUXRECV 6 0 1 0 0 0 0 0 0 -1:U 96 -1 ''
    AUXRECV 7 0 1 0 0 0 0 0 0 -1:U 64 -1 ''
    AUXRECV 7 0 1 0 0 0 0 0 0 -1:U 128 -1 ''
    MIDIOUT -1
    MAINSEND 0 0
    <FXCHAIN
      WNDRECT 528 156 724 387
      SHOW 0
      LASTSEL 0
      DOCKED 1
      BYPASS 0 0 0
      <VST "VSTi: chipsounds (Multi) (Plogue Art et Technologie, Inc) (32 out)" "chipsounds Multi.vst" 0 "" 1347241807
        T0dNUO5e7f4AAAAAIAAAAAEAAAAAAAAAAgAAAAAAAAAEAAAAAAAAAAgAAAAAAAAAEAAAAAAAAAAgAAAAAAAAAEAAAAAAAAAAgAAAAAAAAAAAAQAAAAAAAAACAAAAAAAA
        AAQAAAAAAAAACAAAAAAAAAAQAAAAAAAAACAAAAAAAAAAQAAAAAAAAACAAAAAAAAAAAABAAAAAAAAAAIAAAAAAAAABAAAAAAAAAAIAAAAAAAAABAAAAAAAAAAIAAAAAAA
        AABAAAAAAAAAAIAAAAAAAAAAAAEAAAAAAAAAAgAAAAAAAAAEAAAAAAAAAAgAAAAAAAAAEAAAAAAAAAAgAAAAAAAAAEAAAAAAAAAAgAAAAABrBgAAAQAAAAAAEAA=
        Q0VHUHw/AAB4nO1b3XPaRhB/z1+h0VP7EHHfHzN2MgZCy0zceAZ3+pg5g0I0FcIVwo3713elA/tkc0gUOnES3Qvo2N27XZ12f7srzt5+WaTBXZyvkmV2HuIIhcHbN6/O
        LvLETMxd7PyksQiD23w5W0+L8RAmENLhm1cBjLNJXBRJNl8Ff61NmhT38GsYrIo8NguYPg8pCYOF+TKpZi7SdDm97J+HHMP05Xg4/rAuLpezuOIy62K5MAWsOUmXxXmI
        3Kk0vovT8zDJQPZ6EWdFGKTJXWyZgXI1BamclF9MamAKB6+DuNxUtJqmm+kB8MX5eSiAYZ4ub0x6vc6qbcJEb6sRLB4ks2ouM4tSPI6Cq3UeB4PPyW1vMh72BFc4+Om3
        68ng5zC4Mdmf49nGLI7ZFIHtTD+bLCt3DtJulynYh4VB8bjq7c3H3GRzWOU1mOC2gItV9cPC+bqcFnBHHvQsjbdYF5uJvz+mZlWUcq0ClRKXJsm2StyZdG0t3NtFgR8o
        kIeCNFLQRgrWSMEbKUQjhWykUI0UupECo2aSZqviZrPiZrviZsNir2WvTG4W+2/xI4l3oUcSx/yR4hzBwBpJypSgPh7XmBHTFRNiUigqS7fjWcgxb4SJrgYnFAuimJeJ
        uUzUrsSpYAwrL49weZTlIVQBC/czOYcsAmXs9pRShMFesY9NuWvRaiWEsSZIE+3l0YfzaFTTye5OCgw+jRHvbaLY50muTT6Pi42vnC4X0VW6nK/j6DpP5vM4n4AXjrNp
        nDv+qeIbrFfg3YemMMHn4v4WmBllcE5WyT/wnXDHl8K24myWmKw6fDNgKb0yqo/qWo7KQQdypGs/DhAd1bfds/tuoUgZEqP3ow/RehXnuFkNLrneqsEEc/RAu/TYjpH9
        IKgb3ejGSxkn8Rqo8xrd6MaPM/Z4jbNemWI+zTbxSbNNvCPbVF222WWbLyLbxLX8CAshq2eGIY2o8OYtjgaRRpxDniM5UYpq7M2p3JSPSCYQ10ozLjAkmP9bFstbpa2c
        WdFCKA2Zm5/J1YFaSzUnyN7Te1y+uScNdBPMR2v4E0rALIdmlEdBKvWVEdVXyT6/VaWPqx0INzLuqx2MNgNVj6IEI4zePa8dWMtI2q9NjBCt6gzqGSnMDndJQKQuoaEm
        sRsnkJPiBLbFCfgRJ7BT4gTUgBO8YeQAnODDGh1OeEryw+EESRhDSpf1WkYE94YsR6UIbyq2QhIsGfMGZjcuS9aucM1rGulN7VUKpghX3lgpm2NuvYxuC9WYUQQoiUl/
        NHeZaMtKMGuxm1rZvMIWWlOBNNtTn8dt1HTr3WwDziiGJQj2Hgjp2obagrfiQjOluBfRyRZAR7r2Qxv7aQwgkyLql+weHMGrwyYx7EvKPSjQPTlwh6rTpjkVklH/uXFv
        AyfMvb170JuLsy0gaASpLuTzKq79iM8latFo0ki0kdTiQGmk2zxcbXaOMapBdWtvpZCEnfi5CHLdHPGaGAi9lukAcweYjwHMZVPyMMBcRWILmBEh/f4zRZ7D6GEFmBHa
        CZh3Qm4+qMvtg4RyWVlr/Y3s7EA+bQgeXoSjJwXX5Gu/8tEMrn3QuSvCPbHY9weuX8YrH90bHt/wGx4dvOjghU/t//QuzwO8OOZdnt2hnZ00tNMdoZ13ob0L7S8itH/X
        /TV/NabrrnXdNbvZLprvVbrrrvlQgnxACSQKrBmCPyBaf1rmi1XvV5PPgsl9Nm0LE/hDe02ctARwLDZo7qk1YwMfvuiwwTOSF4sN8KZlwTnRgvsDngsNkGa6VWHbXUkg
        QQAZKIq0RFL4e0BuR4Ur27FQnBFKpD9s1hDFRieimGSMeFXCtRRebr2IVpD8E39cdbPxtmUJ0gK8kBYNBuk9jQe2rWq3U7BaeaBls4tvSh6QOynNmb/3xlvsp94tpLrE
        YZgQRemedgh1tRDMNlsAXcE5pt6OZyvw5Pap9rzNdcpOlWpD1KJTpXELe2OCWpwkoPI6e19XKqK2nak0kRgL6n9kCfL6+A6fdvj0qGoToQcCVPuGgi03ob4ctelmbce2
        6wSpL4wLXu9FObN9yZ/LPUyC2NFnO1ACPlYCl8dKYMPjJLQF9e8+fYqnhft37i2MtgfuYnGTlMerAcxvFjv75ffxVo6ZFsldPH78m3p1/e7hehWnsHI8uzY3FuGDjLPe
        9p/1b179C1Qo8lI=
        AAAQAAAA
      >
      FLOATPOS 275 269 871 509
      FXID {C804D762-B992-A540-81BF-3D6C0F7FF19B}
      WAK 0
    >
  >
  <TRACK {2BB5EACD-C1BC-284E-92F6-33B7023B768F}
    NAME "ch1,3 (send)"
    PEAKCOL 16576
    BEAT -1
    AUTOMODE 0
    VOLPAN 1 0 -1 -1 1
    MUTESOLO 0 0 0
    IPHASE 0
    ISBUS 0 0
    BUSCOMP 0 0
    SHOWINMIX 1 0.6667 0.5 1 0.5 0 0 0
    FREEMODE 0
    SEL 0
    REC 0 0 0 0 0 0 0
    VU 2
    MIDICTL -1 1
    TRACKHEIGHT 39 0
    INQ 0 0 0 0.5 100 0 0 100
    NCHAN 2
    FX 1
    TRACKID {2BB5EACD-C1BC-284E-92F6-33B7023B768F}
    PERF 0
    MIDIOUT -1
    MAINSEND 1 0
    <FXCHAIN
      SHOW 0
      LASTSEL 0
      DOCKED 0
    >
    <ITEM
      POSITION 0
      SNAPOFFS 0
      LENGTH 37.5
      LOOP 1
      ALLTAKES 0
      FADEIN 1 0 0 1 0 0
      FADEOUT 1 0 0 1 0 0
      MUTE 1
      SEL 0
      YPOS 0 0.05
      IGUID {78E7A151-1D72-F845-A573-234150858E2C}
      IID 1
      NAME "trumpet(s) - National_Anthems_-_San_Marino.mid"
      VOLPAN 1 0 1 -1
      SOFFS 0 0
      PLAYRATE 1 1 0 -1 0 0.0025
      CHANMODE 0
      TAKECOLOR 26173599 B
      GUID {8883ED61-7643-2A43-B455-7D5BECDF21B0}
      <SOURCE MIDI
        HASDATA 1 480 QN
        POOLEDEVTS {A2BDA60F-EAF3-2C4E-B6DB-890B3BEE5945}
        <X 0 0 0 0 3 trumpet(s)
          /wN0cnVtcGV0KHMp
        >
        <X 0 0 0 0 4 "Sound Canvas"
          /wRTb3VuZCBDYW52YXM=
        >
        e 0 90 4a 7f
        e 451 80 4a 30
        e 29 90 47 7f 3
        e 422 80 47 0c 3
        e 58 90 43 7f 10
        e 377 80 43 03 10
        e 103 90 45 7f -6
        e 195 80 45 0f -6
        e 45 90 47 7f -7
        e 151 80 47 19 -7
        e 89 90 4c 7f -7
        e 439 80 4c 1a -7
        e 41 90 4a 7f -9
        e 416 80 4a 1a -9
        e 64 90 45 7f -4
        e 398 80 45 24 -4
        e 82 90 47 7f -18
        e 458 80 47 15 -18
        e 22 90 4a 7f -24
        e 460 80 4a 26 -24
        e 20 90 48 7f -5
        e 128 80 48 39 -5
        e 32 90 47 7f -13
        e 139 80 47 2e -13
        e 21 90 48 7f -16
        e 145 80 48 23 -16
        e 15 90 47 7f 3
        e 409 80 47 0a 3
        e 71 90 4a 7f -8
        e 423 80 4a 27 -8
        e 57 90 4c 7f 3
        e 432 80 4c 41 3
        e 48 90 4a 7f 13
        e 473 80 4a 41 13
        e 7 90 47 7f 5
        e 142 80 47 30 5
        e 18 90 45 7f -21
        e 149 80 45 20 -21
        e 11 90 43 7f -18
        e 114 80 43 3c -18
        e 46 90 43 7f 13
        e 354 80 43 35 13
        e 126 90 4a 7f 6
        e 441 80 4a 2e 6
        e 39 90 47 7f 21
        e 428 80 47 01 21
        e 52 90 43 7f -15
        e 466 80 43 0c -15
        e 14 90 45 7f -5
        e 214 80 45 0b -5
        e 26 90 47 7f -13
        e 191 80 47 01 -13
        e 49 90 4c 7f -1
        e 441 80 4c 1d -1
        e 39 90 4a 7f 2
        e 435 80 4a 27 2
        e 45 90 45 7f -6
        e 449 80 45 14 -6
        e 31 90 47 7f -30
        e 426 80 47 17 -30
        e 54 90 4a 7f -5
        e 434 80 4a 2c -5
        e 46 90 48 7f -13
        e 129 80 48 34 -13
        e 31 90 47 7f -28
        e 131 80 47 30 -28
        e 29 90 48 7f -25
        e 121 80 48 2f -25
        e 39 90 47 7f -1
        e 405 80 47 02 -1
        e 75 90 4a 7f -6
        e 398 80 4a 26 -6
        e 82 90 4c 7f -6
        e 426 80 4c 2d -6
        e 54 90 4a 7f 6
        e 458 80 4a 3a 6
        e 22 90 47 7f -5
        e 147 80 47 3a -5
        e 13 90 45 7f -13
        e 115 80 45 2c -13
        e 45 90 43 7f -28
        e 94 80 43 29 -28
        e 66 90 43 7f -3
        e 351 80 43 16 -3
        e 129 90 48 7f -7
        e 463 80 48 0f -7
        e 17 90 45 7f 11
        e 416 80 45 01 11
        e 64 90 41 7f -6
        e 873 80 41 01 -6
        e 87 90 47 7f -9
        e 395 80 47 3e -9
        e 85 90 47 7f -23
        e 199 80 47 29 -23
        e 41 90 48 7f -15
        e 203 80 48 30 -15
        e 37 90 47 7f -12
        e 415 80 47 1f -12
        e 65 90 45 7f -26
        e 421 80 45 0e -26
        e 59 90 43 7f -18
        e 401 80 43 23 -18
        e 79 90 47 7f -24
        e 414 80 47 32 -24
        e 66 90 45 7f -31
        e 439 80 45 1d -31
        e 41 90 43 7f -27
        e 411 80 43 07 -27
        e 69 90 48 7f -13
        e 384 80 48 3c -13
        e 96 90 48 7f -23
        e 214 80 48 32 -23
        e 26 90 45 7f -12
        e 177 80 45 1d -12
        e 63 90 47 7f -10
        e 199 80 47 1d -10
        e 41 90 45 7f -4
        e 150 80 45 08 -4
        e 90 90 43 7f -1
        e 382 80 43 3e -1
        e 98 90 41 7f -7
        e 391 80 41 16 -7
        e 89 90 45 7f -2
        e 200 80 45 30 -2
        e 40 90 43 7f 1
        e 164 80 43 0d 1
        e 76 90 4a 7f -5
        e 455 80 4a 2c -5
        e 25 90 47 7f -5
        e 402 80 47 01 -5
        e 78 90 43 7f -17
        e 431 80 43 01 -17
        e 49 90 47 7f -11
        e 139 80 47 2d -11
        e 21 90 45 7f -4
        e 126 80 45 20 -4
        e 34 90 43 7f
        e 123 80 43 14
        e 37 90 48 7f 7
        e 425 80 48 24 7
        e 55 90 45 7f -21
        e 393 80 45 25 -21
        e 87 90 47 7f -11
        e 413 80 47 2e -11
        e 67 90 47 7f 9
        e 406 80 47 2a 9
        e 74 90 48 7f 19
        e 147 80 48 2a 19
        e 13 90 47 7f 1
        e 153 80 47 21 1
        e 7 90 45 7f 11
        e 107 80 45 3d 11
        e 53 90 45 7f 15
        e 140 80 45 2e 15
        e 100 90 45 7f 24
        e 137 80 45 37 24
        e 103 90 43 7f 22
        e 401 80 43 24 22
        e 79 90 42 7f -2
        e 453 80 42 01 -2
        e 27 90 40 7f 9
        e 476 80 40 27 9
        e 4 90 3e 7f 21
        e 366 80 3e 2e 21
        e 114 90 3e 7f
        e 975 80 3e 55
        e 1825 90 4f 7f -35
        e 37 80 4f 48 -35
        e 43 90 4f 7f -10
        e 419 80 4f 46 -10
        e 61 90 4f 7f -14
        e 424 80 4f 40 -14
        e 56 90 4f 7f -17
        e 427 80 4f 45 -17
        e 53 90 4f 7f -19
        e 421 80 4f 48 -19
        e 59 90 4f 7f -33
        e 169 80 4f 3c -33
        E 311 b0 7b 00
        GUID {2ECCC3F2-3404-AC41-8F43-FA41DE611391}
        IGNTEMPO 0 120 4 4
        SRCCOLOR 359
        VELLANE -1 86 6
        CFGEDITVIEW 6659.676697 1563.537797 54 22 0 0 0 0 0 0.5
        KEYSNAP 0
        TRACKSEL 226
        EVTFILTER 0 -1 -1 -1 -1 0 0 0 0 -1 -1 -1 -1 0 -1 0 -1 -1
        CFGEDIT 1 0 0 0 0 0 1 0 1 1 1 0.25 32 63 1280 778 0 0 2 3 0 0 0 0 0 -1 0 0 1 64
      >
      TAKE
      NAME "trumpet(s) - National_Anthems_-_San_Marino.mid"
      TAKEVOLPAN 0 1 -1
      SOFFS 0 0
      PLAYRATE 1 1 0 -1 0 0.0025
      CHANMODE 0
      GUID {3E474809-6772-0D4E-9949-B9703E12E3EB}
      <SOURCE MIDI
        HASDATA 1 480 QN
        POOLEDEVTS {56061CEA-F561-2641-9FBB-E54EBDDCCCA2}
        <X 0 0 0 0 3 trumpet(s)
          /wN0cnVtcGV0KHMp
        >
        <X 0 0 0 0 4 "Sound Canvas"
          /wRTb3VuZCBDYW52YXM=
        >
        e 0 90 4a 7f
        e 451 80 4a 30
        e 32 90 47 7f
        e 422 80 47 0c
        e 65 90 43 7f
        e 377 80 43 03
        e 87 90 45 7f
        e 195 80 45 0f
        e 44 90 47 7f
        e 151 80 47 19
        e 89 90 4c 7f
        e 439 80 4c 1a
        e 39 90 4a 7f
        e 416 80 4a 1a
        e 69 90 45 7f
        e 398 80 45 24
        e 68 90 47 7f
        e 458 80 47 15
        e 16 90 4a 7f
        e 460 80 4a 26
        e 39 90 48 7f
        e 128 80 48 39
        e 24 90 47 7f
        e 139 80 47 2e
        e 18 90 48 7f
        e 145 80 48 23
        e 34 90 47 7f
        e 409 80 47 0a
        e 60 90 4a 7f
        e 423 80 4a 27
        e 68 90 4c 7f
        e 432 80 4c 41
        e 58 90 4a 7f
        e 472 90 47 7f
        e 1 80 4a 41
        e 133 90 45 7f
        e 8 80 47 30
        e 141 80 45 20
        e 14 90 43 7f
        e 114 80 43 3c
        e 77 90 43 7f
        e 354 80 43 35
        e 119 90 4a 7f
        e 441 80 4a 2e
        e 54 90 47 7f
        e 428 80 47 01
        e 16 90 43 7f
        e 466 80 43 0c
        e 24 90 45 7f
        e 214 80 45 0b
        e 18 90 47 7f
        e 191 80 47 01
        e 61 90 4c 7f
        e 441 80 4c 1d
        e 42 90 4a 7f
        e 435 80 4a 27
        e 37 90 45 7f
        e 449 80 45 14
        e 7 90 47 7f
        e 426 80 47 17
        e 79 90 4a 7f
        e 434 80 4a 2c
        e 38 90 48 7f
        e 129 80 48 34
        e 16 90 47 7f
        e 131 80 47 30
        e 32 90 48 7f
        e 121 80 48 2f
        e 63 90 47 7f
        e 405 80 47 02
        e 70 90 4a 7f
        e 398 80 4a 26
        e 82 90 4c 7f
        e 426 80 4c 2d
        e 66 90 4a 7f
        e 458 80 4a 3a
        e 11 90 47 7f
        e 147 80 47 3a
        e 5 90 45 7f
        e 115 80 45 2c
        e 30 90 43 7f
        e 94 80 43 29
        e 91 90 43 7f
        e 351 80 43 16
        e 125 90 48 7f
        e 463 80 48 0f
        e 35 90 45 7f
        e 416 80 45 01
        e 47 90 41 7f
        e 873 80 41 01
        e 84 90 47 7f
        e 395 80 47 3e
        e 71 90 47 7f
        e 199 80 47 29
        e 49 90 48 7f
        e 203 80 48 30
        e 40 90 47 7f
        e 415 80 47 1f
        e 51 90 45 7f
        e 421 80 45 0e
        e 67 90 43 7f
        e 401 80 43 23
        e 73 90 47 7f
        e 414 80 47 32
        e 59 90 45 7f
        e 439 80 45 1d
        e 45 90 43 7f
        e 411 80 43 07
        e 83 90 48 7f
        e 384 80 48 3c
        e 86 90 48 7f
        e 214 80 48 32
        e 37 90 45 7f
        e 177 80 45 1d
        e 65 90 47 7f
        e 199 80 47 1d
        e 47 90 45 7f
        e 150 80 45 08
        e 93 90 43 7f
        e 382 80 43 3e
        e 92 90 41 7f
        e 391 80 41 16
        e 94 90 45 7f
        e 200 80 45 30
        e 43 90 43 7f
        e 164 80 43 0d
        e 70 90 4a 7f
        e 455 80 4a 2c
        e 25 90 47 7f
        e 402 80 47 01
        e 66 90 43 7f
        e 431 80 43 01
        e 55 90 47 7f
        e 139 80 47 2d
        e 28 90 45 7f
        e 126 80 45 20
        e 38 90 43 7f
        e 123 80 43 14
        e 44 90 48 7f
        e 425 80 48 24
        e 27 90 45 7f
        e 393 80 45 25
        e 97 90 47 7f
        e 413 80 47 2e
        e 87 90 47 7f
        e 406 80 47 2a
        e 84 90 48 7f
        e 142 90 47 7f
        e 5 80 48 2a
        e 148 80 47 21
        e 17 90 45 7f
        e 107 80 45 3d
        e 57 90 45 7f
        e 140 80 45 2e
        e 109 90 45 7f
        e 137 80 45 37
        e 101 90 43 7f
        e 401 80 43 24
        e 55 90 42 7f
        e 453 80 42 01
        e 38 90 40 7f
        e 476 80 40 27
        e 16 90 3e 7f
        e 366 80 3e 2e
        e 93 90 3e 7f
        e 975 80 3e 55
        e 1790 90 4f 7f
        e 37 80 4f 48
        e 68 90 4f 7f
        e 419 80 4f 46
        e 57 90 4f 7f
        e 424 80 4f 40
        e 53 90 4f 7f
        e 427 80 4f 45
        e 51 90 4f 7f
        e 421 80 4f 48
        e 45 90 4f 7f
        e 169 80 4f 3c
        E 344 b0 7b 00
        GUID {E141F808-6184-1C41-85D3-C201BF86E287}
        IGNTEMPO 0 120 4 4
        SRCCOLOR 363
        VELLANE -1 86 6
        CFGEDITVIEW 0 0 81 22 0 0 0 0 0 0.5
        KEYSNAP 0
        TRACKSEL 226
        EVTFILTER 0 -1 -1 -1 -1 0 0 0 0 -1 -1 -1 -1 0 -1 0 -1 -1
        CFGEDIT 1 0 0 0 0 0 1 0 1 1 1 0.125 48 79 1280 778 0 0 2 3 0 0 0 0 0 -1 0 0 1 64
      >
    >
    <ITEM
      POSITION 0
      SNAPOFFS 0
      LENGTH 15.96011397867309
      LOOP 1
      ALLTAKES 0
      FADEIN 1 0 0 1 0 0
      FADEOUT 1 0 0 1 0 0
      MUTE 0
      COLOR 29720836 B
      SEL 0
      IGUID {E5308F5F-254D-F64F-ABF7-B77DDBDDA404}
      IID 47
      NAME "fr. horn(s) - National_Anthems_-_San_Marino-glued"
      VOLPAN 1 0 1 -1
      SOFFS 0 0
      PLAYRATE 1 1 0 -1 0 0.0025
      CHANMODE 0
      GUID {65B003D0-0938-4E43-B89F-DE15BC4650C8}
      <SOURCE MIDI
        HASDATA 1 960 QN
        POOLEDEVTS {AEE44412-7285-2F44-B80D-75D54D785F24}
        <X 0 0 0 0 3 "fr. horn(s)"
          /wNmci4gaG9ybihzKQ==
        >
        <X 0 0 0 0 4 "Sound Canvas"
          /wRTb3VuZCBDYW52YXM=
        >
        E 0 91 3e 7f
        E 0 91 43 7f
        E 0 91 47 7f
        E 642 81 43 2a
        E 194 81 3e 27
        E 102 81 47 37
        E 22 91 3b 7f
        E 0 91 3e 7f
        E 0 91 43 7f
        E 698 81 3b 01
        E 16 81 43 11
        E 48 81 3e 02
        E 198 91 37 7f
        E 0 91 3b 7f
        E 0 91 40 7f
        E 792 81 3b 3f
        E 94 81 37 2c
        E 42 81 40 36
        E 32 91 39 7f
        E 426 81 39 21
        E 54 91 3b 7f
        E 444 81 3b 46
        E 36 91 40 7f
        E 0 91 45 7f
        E 734 81 45 01
        E 122 81 40 24
        E 104 91 3e 7f
        E 0 91 42 7f
        E 0 91 45 7f
        E 730 81 42 03
        E 102 81 3e 03
        E 4 81 45 34
        E 124 91 3c 7f
        E 0 91 42 7f
        E 894 81 42 40
        E 22 81 3c 01
        E 44 91 3b 7f
        E 0 91 43 7f
        E 676 81 43 2c
        E 92 81 3b 27
        E 192 91 3e 7f
        E 0 91 43 7f
        E 0 91 47 7f
        E 690 81 3e 2b
        E 66 81 43 25
        E 90 81 47 3b
        E 58 91 43 7f
        E 4 91 3c 7f
        E 182 81 3c 34
        E 14 81 43 34
        E 104 91 43 7f
        E 4 91 3c 7f
        E 158 81 3c 31
        E 6 81 43 3d
        E 124 91 3c 7f
        E 2 91 43 7f
        E 200 81 43 33
        E 22 81 3c 29
        <X 78 0 0 0 3 "fr. horn(s)"
          /wNmci4gaG9ybihzKQ==
        >
        <X 0 0 0 0 4 "Sound Canvas"
          /wRTb3VuZCBDYW52YXM=
        >
        E 0 91 3e 7f
        E 0 81 3e 00
        E 118 91 3b 7f
        E 0 91 3e 7f
        E 0 91 43 7f
        E 780 81 3e 2f
        E 52 81 3b 3a
        E 8 81 43 22
        E 120 91 3e 7f
        E 0 91 43 7f
        E 0 91 47 7f
        E 800 81 3e 3b
        E 6 81 47 3f
        E 28 81 43 3b
        E 126 91 40 7f
        E 0 91 43 7f
        E 0 91 48 7f
        E 732 81 48 1c
        E 56 81 43 29
        E 30 81 40 24
        E 142 91 3e 7f
        E 0 91 43 7f
        E 0 91 47 7f
        E 694 81 3e 30
        E 30 81 43 34
        E 92 81 47 36
        <X 70 0 0 0 3 "fr. horn(s)"
          /wNmci4gaG9ybihzKQ==
        >
        <X 0 0 0 0 4 "Sound Canvas"
          /wRTb3VuZCBDYW52YXM=
        >
        E 0 91 3e 7f
        E 0 91 43 7f
        E 0 91 47 7f
        E 1 81 3e 00
        E 0 81 43 00
        E 0 81 47 00
        E 63 91 3e 7f
        E 20 91 43 7f
        E 220 81 3e 30
        E 52 91 3c 7f
        E 14 91 42 7f
        E 18 81 43 2b
        E 124 81 3c 3a
        E 38 81 42 41
        E 104 91 3c 7f
        E 32 91 3e 7f
        E 144 81 3c 1c
        E 36 81 3e 24
        E 168 91 3b 7f
        E 0 91 3e 7f
        E 738 81 3e 36
        E 38 81 3b 39
        E 184 91 3e 7f
        E 0 91 43 7f
        E 0 91 47 7f
        E 786 81 43 3a
        E 50 81 3e 28
        E 46 81 47 39
        E 78 91 3b 7f
        E 0 91 3e 7f
        E 0 91 43 7f
        E 690 81 3e 26
        E 14 81 3b 47
        E 220 81 43 2b
        E 36 91 37 7f
        E 0 91 3b 7f
        E 0 91 40 7f
        E 834 81 3b 01
        E 42 81 37 23
        E 56 81 40 1c
        E 28 91 39 7f
        E 350 81 39 26
        E 130 91 3b 7f
        E 452 81 3b 24
        E 28 91 40 7f
        E 0 91 45 7f
        E 710 81 45 1c
        E 114 81 40 2c
        E 136 91 3e 7f
        E 0 91 42 7f
        E 0 91 45 7f
        E 710 81 42 25
        E 162 81 45 23
        E 48 81 3e 0b
        E 40 91 3c 7f
        E 0 91 42 7f
        E 916 81 42 3c
        E 44 91 3b 7f
        E 0 91 43 7f
        E 16 81 3c 1e
        E 642 81 43 2b
        E 64 81 3b 2b
        E 238 91 3e 7f
        E 0 91 43 7f
        E 0 91 47 7f
        E 746 81 43 01
        E 100 81 3e 26
        <X 20 0 0 0 3 "fr. horn(s)"
          /wNmci4gaG9ybihzKQ==
        >
        <X 0 0 0 0 4 "Sound Canvas"
          /wRTb3VuZCBDYW52YXM=
        >
        E 0 81 47 29
        E 0 91 3e 7f
        E 0 91 43 7f
        E 0 91 47 7f
        E 0 81 3e 00
        E 0 81 43 00
        E 0 81 47 00
        E 30 91 3c 7f
        E 20 91 43 7f
        E 146 81 3c 3b
        E 18 81 43 34
        E 118 91 3c 7f
        E 28 91 43 7f
        E 126 81 3c 34
        E 36 81 43 35
        E 102 91 3c 7f
        E 44 91 43 7f
        E 170 81 43 38
        E 12 81 3c 2c
        <X 148 0 0 0 3 "fr. horn(s)"
          /wNmci4gaG9ybihzKQ==
        >
        <X 0 0 0 0 4 "Sound Canvas"
          /wRTb3VuZCBDYW52YXM=
        >
        E 0 91 3e 7f
        E 1 81 3e 00
        E 55 91 3b 7f
        E 0 91 3e 7f
        E 0 91 43 7f
        E 696 81 3e 27
        E 40 81 43 33
        E 24 81 3b 2f
        E 200 91 3e 7f
        E 0 91 43 7f
        E 0 91 47 7f
        E 712 81 47 3f
        E 10 81 43 23
        E 132 81 3e 30
        E 106 91 40 7f
        E 0 91 43 7f
        E 0 91 48 7f
        E 748 81 48 3f
        E 22 81 43 0f
        E 42 81 40 27
        E 148 91 3e 7f
        E 0 91 43 7f
        E 0 91 47 7f
        E 724 81 3e 35
        E 20 81 43 2d
        E 20 81 47 33
        E 196 91 3e 7f
        E 0 91 43 7f
        E 254 81 43 24
        E 66 91 3c 7f
        E 0 91 42 7f
        E 14 81 3e 01
        E 124 81 3c 35
        E 30 81 42 23
        E 152 91 3c 7f
        E 0 91 3e 7f
        E 176 81 3c 1c
        E 0 81 3e 38
        E 144 91 3b 7f
        E 0 91 3e 7f
        E 776 81 3e 29
        E 42 81 3b 2a
        E 65 b0 7b 00
        GUID {2E75A98C-55C7-0B49-9F07-116F4DB76246}
        IGNTEMPO 0 120 4 4
        SRCCOLOR 426
        VELLANE -1 86 6
        CFGEDITVIEW 0 34.586219 55 12 0 -1 0 0 0 0.5
        KEYSNAP 0
        TRACKSEL 226
        EVTFILTER 0 -1 -1 -1 -1 0 0 0 0 -1 -1 -1 -1 0 -1 0 -1 -1
        CFGEDIT 1 0 0 0 0 0 1 0 1 1 1 0.25 48 78 1280 777 0 0 2 3 0 0 0 0 0 -1 0 0 1 64
      >
    >
  >
  <TRACK {3C494A2B-9670-9740-AD22-E42CC5065FE1}
    NAME "ch2,4 (send)"
    PEAKCOL 16576
    BEAT -1
    AUTOMODE 0
    VOLPAN 1 0 -1 -1 1
    MUTESOLO 0 0 0
    IPHASE 0
    ISBUS 0 0
    BUSCOMP 0 0
    SHOWINMIX 1 0.6667 0.5 1 0.5 0 0 0
    FREEMODE 0
    SEL 0
    REC 0 0 0 0 0 0 0
    VU 2
    MIDICTL -1 1
    TRACKHEIGHT 39 0
    INQ 0 0 0 0.5 100 0 0 100
    NCHAN 2
    FX 1
    TRACKID {3C494A2B-9670-9740-AD22-E42CC5065FE1}
    PERF 0
    MIDIOUT -1
    MAINSEND 1 0
    <FXCHAIN
      WNDRECT 32 359 724 387
      SHOW 0
      LASTSEL 0
      DOCKED 0
    >
    <ITEM
      POSITION 0
      SNAPOFFS 0
      LENGTH 37.5
      LOOP 1
      ALLTAKES 0
      FADEIN 1 0 0 1 0 0
      FADEOUT 1 0 0 1 0 0
      MUTE 0
      SEL 0
      YPOS 0.168067 0.05
      IGUID {ECDF7DF3-719F-344A-897E-BC4C1DF93FCF}
      IID 3
      NAME "trombone(s) - National_Anthems_-_San_Marino.mid"
      VOLPAN 1 0 1 -1
      SOFFS 0 0
      PLAYRATE 1 1 0 -1 0 0.0025
      CHANMODE 0
      TAKECOLOR 26173599 B
      GUID {5B7F3049-63E1-E241-A121-C0BDC626F5CF}
      <SOURCE MIDI
        HASDATA 1 480 QN
        POOLEDEVTS {D13061F9-F519-9C40-BD84-3B6BDF178300}
        <X 0 0 0 0 3 trombone(s)
          /wN0cm9tYm9uZShzKQ==
        >
        <X 0 0 0 0 4 "Sound Canvas"
          /wRTb3VuZCBDYW52YXM=
        >
        e 0 92 37 7f
        e 416 82 37 1d
        e 64 92 36 7f -8
        e 445 82 36 0e -8
        e 35 92 34 7f 4
        e 864 82 34 0b 4
        e 96 92 30 7f -5
        e 392 82 30 38 -5
        e 88 92 32 7f -27
        e 414 82 32 37 -27
        e 66 92 32 7f -15
        e 472 82 32 01 -15
        e 8 92 2b 7f -6
        e 370 82 2b 24 -6
        e 110 92 2b 7f -8
        e 408 82 2b 01 -8
        e 72 92 2d 7f -31
        e 442 82 2d 0f -31
        e 38 92 2f 7f -12
        e 420 82 2f 01 -12
        e 60 92 2b 7f 8
        e 445 82 2b 32 8
        e 35 92 30 7f 10
        e 392 82 30 19 10
        e 88 92 34 7f -11
        e 473 82 34 08 -11
        e 7 92 32 7f 8
        e 447 82 32 01 8
        e 33 92 2b 7f 10
        e 338 82 2b 30 10
        e 142 92 37 7f
        e 438 82 37 1d
        e 42 92 36 7f -17
        e 417 82 36 06 -17
        e 63 92 34 7f
        e 851 82 34 11
        e 109 92 30 7f 3
        e 430 82 30 1d 3
        e 50 92 32 7f 3
        e 408 82 32 1f 3
        e 72 92 32 7f 6
        e 427 82 32 2e 6
        e 53 92 2b 7f 1
        e 376 82 2b 2e 1
        e 104 92 2b 7f -16
        e 423 82 2b 14 -16
        e 57 92 2d 7f -13
        e 419 82 2d 18 -13
        e 61 92 2f 7f -14
        e 442 82 2f 01 -14
        e 38 92 2b 7f -7
        e 408 82 2b 10 -7
        e 72 92 30 7f -5
        e 389 82 30 3f -5
        e 91 92 37 7f 10
        e 414 82 37 03 10
        e 66 92 32 7f -9
        e 461 82 32 14 -9
        e 19 92 2b 7f -1
        e 336 82 2b 3f -1
        e 144 92 39 7f -5
        e 435 82 39 01 -5
        e 45 92 35 7f 1
        e 447 82 35 01 1
        e 33 92 32 7f 10
        e 814 82 32 3c 10
        e 146 92 32 7f -11
        e 450 82 32 16 -11
        e 30 92 34 7f -17
        e 480 92 2d 7f 10
        e 36 82 34 36 -17
        e 749 82 2d 37 10
        e 175 92 34 7f -28
        e 464 82 34 16 -28
        e 16 92 2b 7f -14
        e 415 82 2b 01 -14
        e 65 92 2d 7f -28
        e 442 82 2d 18 -28
        e 38 92 2f 7f -24
        e 452 82 2f 09 -24
        e 28 92 2d 7f -17
        e 960 82 2d 1a -17
        e 0 92 34 7f -10
        e 851 82 34 1b -10
        e 109 92 32 7f -16
        e 473 82 32 21 -16
        e 7 92 30 7f -7
        e 444 82 30 33 -7
        e 36 92 2f 7f -2
        e 931 82 2f 14 -2
        e 29 92 34 7f -15
        e 929 82 34 07 -15
        e 31 92 2d 7f -18
        e 845 82 2d 0c -18
        e 35 92 2b 7f 30
        e 198 82 2b 41 30
        e 122 92 2d 7f -39
        e 160 92 2f 7f 26
        e 5 82 2d 35 -39
        e 189 82 2f 0d 26
        e 126 92 2b 7f -38
        e 177 82 2b 0d -38
        e 63 92 30 7f -17
        e 449 82 30 0f -17
        e 31 92 32 7f 5
        e 383 82 32 1a 5
        e 97 92 2b 7f 3
        e 363 82 2b 39 3
        e 117 92 2b 7f -7
        e 415 82 2b 2c -7
        e 65 92 2b 7f 1
        e 355 82 2b 35 1
        e 125 92 2b 7f -17
        e 390 82 2b 2f -17
        e 90 92 2b 7f 12
        e 820 82 2b 10 12
        e 140 92 2b 7f -14
        e 359 82 2b 1c -14
        e 121 92 2b 7f -20
        e 322 82 2b 0a -20
        e 158 92 2b 7f -24
        e 336 82 2b 01 -24
        e 144 92 2b 7f -24
        e 315 82 2b 0d -24
        e 165 92 2b 7f -26
        e 371 82 2b 15 -26
        e 109 92 2b 7f -8
        e 340 82 2b 14 -8
        e 140 92 2b 7f -29
        e 392 82 2b 02 -29
        e 88 92 2b 7f -8
        e 333 82 2b 15 -8
        e 147 92 2b 7f -24
        e 168 82 2b 3a -24
        E 312 b0 7b 00
        GUID {179D9742-5C0E-BA4F-B953-E63A21A8F4B7}
        IGNTEMPO 0 120 4 4
        SRCCOLOR 361
        VELLANE -1 86 6
        CFGEDITVIEW -1800 20.654545 69 26 0 0 0 0 0 0.5
        KEYSNAP 0
        TRACKSEL 226
        EVTFILTER 0 -1 -1 -1 -1 0 0 0 0 -1 -1 -1 -1 0 -1 0 -1 -1
        CFGEDIT 1 0 0 0 0 0 1 0 1 1 1 0.16666667 32 63 1280 778 0 0 2 3 0 0 0 0 0 -1 0 1 1 64
      >
      TAKE
      NAME "trombone(s) - National_Anthems_-_San_Marino.mid"
      TAKEVOLPAN 0 1 -1
      SOFFS 0 0
      PLAYRATE 1 1 0 -1 0 0.0025
      CHANMODE 0
      GUID {3519AC30-F540-CF4A-B873-79DE805997F2}
      <SOURCE MIDI
        HASDATA 1 480 QN
        POOLEDEVTS {E37D70FF-9C7B-2443-AE5D-CAF075FA49A1}
        <X 0 0 0 0 3 trombone(s)
          /wN0cm9tYm9uZShzKQ==
        >
        <X 0 0 0 0 4 "Sound Canvas"
          /wRTb3VuZCBDYW52YXM=
        >
        e 0 92 37 7f
        e 416 82 37 1d
        e 56 92 36 7f
        e 445 82 36 0e
        e 47 92 34 7f
        e 864 82 34 0b
        e 87 92 30 7f
        e 392 82 30 38
        e 66 92 32 7f
        e 414 82 32 37
        e 78 92 32 7f
        e 472 82 32 01
        e 17 92 2b 7f
        e 370 82 2b 24
        e 108 92 2b 7f
        e 408 82 2b 01
        e 49 92 2d 7f
        e 442 82 2d 0f
        e 57 92 2f 7f
        e 420 82 2f 01
        e 80 92 2b 7f
        e 445 82 2b 32
        e 37 92 30 7f
        e 392 82 30 19
        e 67 92 34 7f
        e 473 82 34 08
        e 26 92 32 7f
        e 447 82 32 01
        e 35 92 2b 7f
        e 338 82 2b 30
        e 132 92 37 7f
        e 438 82 37 1d
        e 25 92 36 7f
        e 417 82 36 06
        e 80 92 34 7f
        e 851 82 34 11
        e 112 92 30 7f
        e 430 82 30 1d
        e 50 92 32 7f
        e 408 82 32 1f
        e 75 92 32 7f
        e 427 82 32 2e
        e 48 92 2b 7f
        e 376 82 2b 2e
        e 87 92 2b 7f
        e 423 82 2b 14
        e 60 92 2d 7f
        e 419 82 2d 18
        e 60 92 2f 7f
        e 442 82 2f 01
        e 45 92 2b 7f
        e 408 82 2b 10
        e 74 92 30 7f
        e 389 82 30 3f
        e 106 92 37 7f
        e 414 82 37 03
        e 47 92 32 7f
        e 461 82 32 14
        e 27 92 2b 7f
        e 336 82 2b 3f
        e 140 92 39 7f
        e 435 82 39 01
        e 51 92 35 7f
        e 447 82 35 01
        e 42 92 32 7f
        e 814 82 32 3c
        e 125 92 32 7f
        e 450 82 32 16
        e 24 92 34 7f
        e 507 92 2d 7f
        e 9 82 34 36
        e 776 82 2d 37
        e 137 92 34 7f
        e 464 82 34 16
        e 30 92 2b 7f
        e 415 82 2b 01
        e 51 92 2d 7f
        e 442 82 2d 18
        e 42 92 2f 7f
        e 452 82 2f 09
        e 35 92 2d 7f
        e 960 82 2d 1a
        e 7 92 34 7f
        e 851 82 34 1b
        e 103 92 32 7f
        e 473 82 32 21
        e 16 92 30 7f
        e 444 82 30 33
        e 41 92 2f 7f
        e 931 82 2f 14
        e 16 92 34 7f
        e 929 82 34 07
        e 28 92 2d 7f
        e 845 82 2d 0c
        e 83 92 2b 7f
        e 198 82 2b 41
        e 53 92 2d 7f
        e 165 82 2d 35
        e 60 92 2f 7f
        e 194 82 2f 0d
        e 62 92 2b 7f
        e 177 82 2b 0d
        e 84 92 30 7f
        e 449 82 30 0f
        e 53 92 32 7f
        e 383 82 32 1a
        e 95 92 2b 7f
        e 363 82 2b 39
        e 107 92 2b 7f
        e 415 82 2b 2c
        e 73 92 2b 7f
        e 355 82 2b 35
        e 107 92 2b 7f
        e 390 82 2b 2f
        e 119 92 2b 7f
        e 820 82 2b 10
        e 114 92 2b 7f
        e 359 82 2b 1c
        e 115 92 2b 7f
        e 322 82 2b 0a
        e 154 92 2b 7f
        e 336 82 2b 01
        e 144 92 2b 7f
        e 315 82 2b 0d
        e 163 92 2b 7f
        e 371 82 2b 15
        e 127 92 2b 7f
        e 340 82 2b 14
        e 119 92 2b 7f
        e 392 82 2b 02
        e 109 92 2b 7f
        e 333 82 2b 15
        e 131 92 2b 7f
        e 168 82 2b 3a
        E 336 b0 7b 00
        GUID {9349E2D2-78B9-FC42-BCC9-33252B82948A}
        IGNTEMPO 0 120 4 4
        SRCCOLOR 365
        VELLANE -1 86 6
        CFGEDITVIEW 0 0 69 26 0 0 0 0 0 0.5
        KEYSNAP 0
        TRACKSEL 226
        EVTFILTER 0 -1 -1 -1 -1 0 0 0 0 -1 -1 -1 -1 0 -1 0 -1 -1
        CFGEDIT 1 0 0 0 0 0 1 0 1 1 1 0.125 32 63 1280 778 0 0 2 3 0 0 0 0 1 -1 0 1 1 64
      >
    >
    <ITEM
      POSITION 0
      SNAPOFFS 0
      LENGTH 37.5
      LOOP 1
      ALLTAKES 0
      FADEIN 1 0 0 1 0 0
      FADEOUT 1 0 0 1 0 0
      MUTE 0
      SEL 0
      YPOS 0.336134 0.05
      IGUID {C9114827-6967-6348-A934-9A5FED3A427B}
      IID 4
      NAME "tuba(s) - National_Anthems_-_San_Marino.mid"
      VOLPAN 1 0 1 -1
      SOFFS 0 0
      PLAYRATE 1 1 0 -1 0 0.0025
      CHANMODE 0
      TAKECOLOR 26173599 B
      GUID {0146BA5C-FED6-CD4A-A4C7-593C96AFCA93}
      <SOURCE MIDI
        HASDATA 1 480 QN
        POOLEDEVTS {48195AC9-72D2-5941-AD02-B33F2937B9CE}
        <X 0 0 0 0 3 tuba(s)
          /wN0dWJhKHMp
        >
        <X 0 0 0 0 4 "Sound Canvas"
          /wRTb3VuZCBDYW52YXM=
        >
        e 0 93 1f 7f
        e 428 83 1f 1b
        e 52 93 1e 7f 15
        e 412 83 1e 36 15
        e 68 93 1c 7f -3
        e 903 83 1c 01 -3
        e 57 93 24 7f 2
        e 420 83 24 3a 2
        e 60 93 26 7f -5
        e 415 83 26 3f -5
        e 65 93 26 7f 2
        e 414 83 26 01 2
        e 66 93 1f 7f -8
        e 387 83 1f 3d -8
        e 93 93 1f 7f -15
        e 419 83 1f 2c -15
        e 61 93 21 7f -31
        e 460 83 21 28 -31
        e 20 93 23 7f -3
        e 432 83 23 2a -3
        e 48 93 1f 7f 9
        e 431 83 1f 28 9
        e 49 93 24 7f 6
        e 416 83 24 01 6
        e 64 93 2b 7f 13
        e 385 83 2b 03 13
        e 95 93 26 7f -15
        e 420 83 26 10 -15
        e 60 93 1f 7f -5
        e 426 83 1f 25 -5
        e 54 93 1f 7f
        e 478 83 1f 01
        e 2 93 1e 7f 4
        e 435 83 1e 26 4
        e 45 93 1c 7f
        e 882 83 1c 21
        e 78 93 24 7f -4
        e 452 83 24 2c -4
        e 28 93 26 7f 7
        e 393 83 26 3b 7
        e 87 93 26 7f 3
        e 433 83 26 10 3
        e 47 93 1f 7f
        e 345 83 1f 31
        e 135 93 1f 7f -12
        e 446 83 1f 38 -12
        e 34 93 21 7f -5
        e 390 83 21 3d -5
        e 90 93 23 7f -14
        e 419 83 23 12 -14
        e 61 93 1f 7f -12
        e 438 83 1f 26 -12
        e 42 93 24 7f
        e 412 83 24 0d
        e 68 93 2b 7f -2
        e 422 83 2b 23 -2
        e 58 93 26 7f 4
        e 431 83 26 17 4
        e 49 93 1f 7f -4
        e 357 83 1f 2b -4
        e 123 93 2d 7f -4
        e 456 83 2d 1c -4
        e 24 93 29 7f 2
        e 431 83 29 36 2
        e 49 93 26 7f 17
        e 824 83 26 3a 17
        e 136 93 26 7f -13
        e 432 83 26 41 -13
        e 48 93 28 7f 5
        e 433 83 28 23 5
        e 47 93 21 7f 1
        e 797 83 21 3a 1
        e 83 93 28 7f 38
        e 481 83 28 3d 38
        e 79 93 1f 7f -3
        e 438 83 1f 2d -3
        e 42 93 21 7f -7
        e 419 83 21 2c -7
        e 61 93 23 7f -14
        e 422 83 23 3d -14
        e 58 93 21 7f -17
        e 949 83 21 1d -17
        e 11 93 28 7f 2
        e 829 83 28 15 2
        e 131 93 26 7f -24
        e 466 83 26 2b -24
        e 14 93 24 7f -5
        e 399 83 24 31 -5
        e 81 93 23 7f -23
        e 881 83 23 31 -23
        e 79 93 28 7f -17
        e 920 83 28 12 -17
        e 40 93 21 7f -8
        e 841 83 21 0f -8
        e 39 93 1f 7f 33
        e 197 83 1f 30 33
        e 123 93 21 7f -30
        e 159 83 21 39 -30
        e 81 93 23 7f -33
        e 153 83 23 2d -33
        e 87 93 1f 7f -35
        e 166 83 1f 30 -35
        e 74 93 24 7f -19
        e 450 83 24 21 -19
        e 30 93 26 7f 7
        e 467 83 26 01 7
        e 13 93 1f 7f
        e 430 83 1f 33
        e 50 93 1f 7f 1
        e 436 83 1f 42 1
        e 44 93 1f 7f -7
        e 436 83 1f 44 -7
        e 44 93 1f 7f 7
        e 423 83 1f 42 7
        e 57 93 1f 7f 8
        e 919 83 1f 30 8
        e 41 93 1f 7f 6
        e 424 83 1f 34 6
        e 56 93 1f 7f -3
        e 424 83 1f 41 -3
        e 56 93 1f 7f 2
        e 438 83 1f 2d 2
        e 42 93 1f 7f 16
        e 407 83 1f 40 16
        e 73 93 1f 7f -13
        e 427 83 1f 32 -13
        e 53 93 1f 7f -15
        e 429 83 1f 43 -15
        e 51 93 1f 7f
        e 398 83 1f 35
        e 82 93 1f 7f -18
        e 422 83 1f 4c -18
        e 58 93 1f 7f -20
        e 141 83 1f 52 -20
        E 339 b0 7b 00
        GUID {D6692967-5029-A94B-B86A-8470DB161E8D}
        IGNTEMPO 0 120 4 4
        SRCCOLOR 362
        VELLANE -1 86 6
        CFGEDITVIEW -1800 20.266667 81 22 0 0 0 0 0 0.5
        KEYSNAP 0
        TRACKSEL 226
        EVTFILTER 0 -1 -1 -1 -1 0 0 0 0 -1 -1 -1 -1 0 -1 0 -1 -1
        CFGEDIT 1 0 0 0 0 0 1 0 1 1 1 0.16666667 48 78 1280 777 0 0 2 3 0 0 0 0 0 -1 0 0 1 64
      >
      TAKE
      NAME "tuba(s) - National_Anthems_-_San_Marino.mid"
      TAKEVOLPAN 0 1 -1
      SOFFS 0 0
      PLAYRATE 1 1 0 -1 0 0.0025
      CHANMODE 0
      GUID {2DCD038C-D095-3446-A4D0-958BDC26781E}
      <SOURCE MIDI
        HASDATA 1 480 QN
        POOLEDEVTS {A9A81F0B-FA57-8A4B-9200-469358BA3D21}
        <X 0 0 0 0 3 tuba(s)
          /wN0dWJhKHMp
        >
        <X 0 0 0 0 4 "Sound Canvas"
          /wRTb3VuZCBDYW52YXM=
        >
        e 0 93 1f 7f
        e 428 83 1f 1b
        e 67 93 1e 7f
        e 412 83 1e 36
        e 50 93 1c 7f
        e 903 83 1c 01
        e 62 93 24 7f
        e 420 83 24 3a
        e 53 93 26 7f
        e 415 83 26 3f
        e 72 93 26 7f
        e 414 83 26 01
        e 56 93 1f 7f
        e 387 83 1f 3d
        e 86 93 1f 7f
        e 419 83 1f 2c
        e 45 93 21 7f
        e 460 83 21 28
        e 48 93 23 7f
        e 432 83 23 2a
        e 60 93 1f 7f
        e 431 83 1f 28
        e 46 93 24 7f
        e 416 83 24 01
        e 71 93 2b 7f
        e 385 83 2b 03
        e 67 93 26 7f
        e 420 83 26 10
        e 70 93 1f 7f
        e 426 83 1f 25
        e 59 93 1f 7f
        e 478 83 1f 01
        e 6 93 1e 7f
        e 435 83 1e 26
        e 41 93 1c 7f
        e 882 83 1c 21
        e 74 93 24 7f
        e 452 83 24 2c
        e 39 93 26 7f
        e 393 83 26 3b
        e 83 93 26 7f
        e 433 83 26 10
        e 44 93 1f 7f
        e 345 83 1f 31
        e 123 93 1f 7f
        e 446 83 1f 38
        e 41 93 21 7f
        e 390 83 21 3d
        e 81 93 23 7f
        e 419 83 23 12
        e 63 93 1f 7f
        e 438 83 1f 26
        e 54 93 24 7f
        e 412 83 24 0d
        e 66 93 2b 7f
        e 422 83 2b 23
        e 64 93 26 7f
        e 431 83 26 17
        e 41 93 1f 7f
        e 357 83 1f 2b
        e 123 93 2d 7f
        e 456 83 2d 1c
        e 30 93 29 7f
        e 431 83 29 36
        e 64 93 26 7f
        e 824 83 26 3a
        e 106 93 26 7f
        e 432 83 26 41
        e 66 93 28 7f
        e 433 83 28 23
        e 43 93 21 7f
        e 797 83 21 3a
        e 120 93 28 7f
        e 481 83 28 3d
        e 38 93 1f 7f
        e 438 83 1f 2d
        e 38 93 21 7f
        e 419 83 21 2c
        e 54 93 23 7f
        e 422 83 23 3d
        e 55 93 21 7f
        e 949 83 21 1d
        e 30 93 28 7f
        e 829 83 28 15
        e 105 93 26 7f
        e 466 83 26 2b
        e 33 93 24 7f
        e 399 83 24 31
        e 63 93 23 7f
        e 881 83 23 31
        e 85 93 28 7f
        e 920 83 28 12
        e 49 93 21 7f
        e 841 83 21 0f
        e 80 93 1f 7f
        e 197 83 1f 30
        e 60 93 21 7f
        e 159 83 21 39
        e 78 93 23 7f
        e 153 83 23 2d
        e 85 93 1f 7f
        e 166 83 1f 30
        e 90 93 24 7f
        e 450 83 24 21
        e 56 93 26 7f
        e 467 83 26 01
        e 6 93 1f 7f
        e 430 83 1f 33
        e 51 93 1f 7f
        e 436 83 1f 42
        e 36 93 1f 7f
        e 436 83 1f 44
        e 58 93 1f 7f
        e 423 83 1f 42
        e 58 93 1f 7f
        e 919 83 1f 30
        e 39 93 1f 7f
        e 424 83 1f 34
        e 47 93 1f 7f
        e 424 83 1f 41
        e 61 93 1f 7f
        e 438 83 1f 2d
        e 56 93 1f 7f
        e 407 83 1f 40
        e 44 93 1f 7f
        e 427 83 1f 32
        e 51 93 1f 7f
        e 429 83 1f 43
        e 66 93 1f 7f
        e 398 83 1f 35
        e 64 93 1f 7f
        e 422 83 1f 4c
        e 56 93 1f 7f
        e 141 83 1f 52
        E 359 b0 7b 00
        GUID {82EFC49F-6A53-CB4E-A31A-728CABA9F808}
        IGNTEMPO 0 120 4 4
        SRCCOLOR 366
        VELLANE -1 86 6
        CFGEDITVIEW 0 0 81 22 0 0 0 0 0 0.5
        KEYSNAP 0
        TRACKSEL 226
        EVTFILTER 0 -1 -1 -1 -1 0 0 0 0 -1 -1 -1 -1 0 -1 0 -1 -1
        CFGEDIT 1 0 0 0 0 0 1 0 1 1 1 0.125 48 79 1280 778 0 0 2 3 0 0 0 0 0 -1 0 0 1 64
      >
    >
  >
  <TRACK {97C14EE2-C273-C940-9D68-54C062C3CBCA}
    NAME ChipFront
    PEAKCOL 16576
    BEAT -1
    AUTOMODE 0
    VOLPAN 0.31622776601684 0 -1 -1 1
    MUTESOLO 0 0 0
    IPHASE 0
    ISBUS 0 0
    BUSCOMP 0 0
    SHOWINMIX 1 0.6667 0.5 1 0.5 0 0 0
    FREEMODE 0
    SEL 0
    REC 0 0 0 0 0 0 0
    VU 2
    TRACKHEIGHT 39 0
    INQ 0 0 0 0.5 100 0 0 100
    NCHAN 2
    FX 1
    TRACKID {97C14EE2-C273-C940-9D68-54C062C3CBCA}
    PERF 0
    AUXRECV 5 0 1 0 0 0 0 0 0 -1:U 0 -1 ''
    MIDIOUT -1
    MAINSEND 1 0
    <FXCHAIN
      SHOW 0
      LASTSEL 0
      DOCKED 0
      BYPASS 0 0 0
      <VST "VST: FabFilter Volcano 2 (SC) (FabFilter)" "FabFilter Volcano 2 (SC).vst" 0 "" 1180054068
        NDJWRu9e7f4EAAAAAQAAAAAAAAACAAAAAAAAAAQAAAAAAAAACAAAAAAAAAAEAAAAAQAAAAAAAAACAAAAAAAAAAQAAAAAAAAACAAAAAAAAADcCwAAAAAAAAAAEAA=
        776t3g3wrd4AAAA/AAAAPwAAAD8AAAA/AACAPwAAAAAAAAA/q6qqPq2+aD8AAAA/ig0yPM3MzD0AAAAAAAAAAAAAAAAAAIA/AACAP0Isdj8AAAA/bbDgPZqZGT8AAAAA
        AAAAAOev3zwAAIA/AAAAAAAAgD8AAAA/AAAAAJqZGT8AAAAAAAAAAAAAAAAAAIA/AAAAAAAAgD8AAAA/AAAAAJqZGT8AAAAAAAAAAAAAAAAAAIA/AAAAAKuqqj4ATrI+
        AAAAPwAAAADBykk/XXRRPwAAAACJiIg9AACAP6oXiD4AAAAAAAAAAAAAAAAAAAAAAACAPwAAAAAAAAA/AAAAAAAAAAAAAAAAAAAAPwAAAAAAAAAAAAAAAAAAAD8AAAAA
        AAAAAAAAAAAAAAA/AAAAAAAAAAAAAAAAAAAAPwAAAAAAAAAAAAAAAAAAAD8AAAAAAAAAAAAAAAAAAAA/AAAAAAAAAAAAAAAAAAAAPwAAAAAAAAAAAAAAAAAAAD8AAAAA
        AAAAAAAAAAAAAAA/AAAAAAAAAAAAAAAAAAAAPwAAAAAAAAAAAAAAAAAAAD8AAAAAAAAAAAAAAAAAAAA/AAAAAAAAAAAAAAAAAAAAPwAAAAAAAAAAAAAAAHwZED4AAAA/
        KKO3PQAAgD8AAAAAAAAAAImIiD3y0iU/AAAAAAAAgD8AAAAAdGjRPQAAAAAAAIA/AAAAAAAAAD8AAAAAAAAAAAAAAAAAAAA/AAAAAAAAAAAAAAAAAAAAPwAAAAAAAAAA
        AAAAAAAAAD8AAAAAAAAAAAAAAAAAAAA/AAAAAAAAAAAAAAAAAAAAPwAAAAAAAAAAAAAAAAAAAD8AAAAAAAAAAAAAAAAAAAA/AAAAAAAAAAAAAAAAAAAAPwAAAAAAAAAA
        AAAAAAAAAD8AAAAAAAAAAAAAAAAAAAA/AAAAAAAAAAAAAAAAAAAAPwAAAAAAAAAAAAAAAAAAAD8AAAAAAAAAAAAAAAAAAAA/AAAAAAAAAAAAAAAAvvR9PgAAAD8AAAA/
        AAAAPwAAAAAAAAAAiYiIPQAAAD8AAAAAAAAAAAAAAAAAAAA/AAAAAAAAAAAAAAAAAAAAPwAAAAAAAAAAAAAAAAAAAD8AAAAAAAAAAAAAAAAAAAA/AAAAAAAAAAAAAAAA
        AAAAPwAAAAAAAAAAAAAAAAAAAD8AAAAAAAAAAAAAAAAAAAA/AAAAAAAAAAAAAAAAAAAAPwAAAAAAAAAAAAAAAAAAAD8AAAAAAAAAAAAAAAAAAAA/AAAAAAAAAAAAAAAA
        AAAAPwAAAAAAAAAAAAAAAAAAAD8AAAAAAAAAAAAAAAAAAAA/AAAAAAAAAAAAAAAAAAAAPwAAAAAAAAAAAAAAAAAAAD8AAAAAAAAAAAAAAAC+9H0+AAAAPwAAAD8AAAA/
        AAAAAAAAAACJiIg9AAAAPwAAAAAAAAAAAAAAAAAAAD8AAAAAAAAAAAAAAAAAAAA/AAAAAAAAAAAAAAAAAAAAPwAAAAAAAAAAAAAAAAAAAD8AAAAAAAAAAAAAAAAAAAA/
        AAAAAAAAAAAAAAAAAAAAPwAAAAAAAAAAAAAAAAAAAD8AAAAAAAAAAAAAAAAAAAA/AAAAAAAAAAAAAAAAAAAAPwAAAAAAAAAAAAAAAAAAAD8AAAAAAAAAAAAAAAAAAAA/
        AAAAAAAAAAAAAAAAAAAAPwAAAAAAAAAAAAAAAAAAAD8AAAAAAAAAAAAAAAAAAAA/AAAAAAAAAAAAAAAAAAAAPwAAAAAAAAAAAAAAAL70fT4AAAA/AAAAPwAAAD8AAAAA
        AAAAAImIiD0AAAA/AAAAAAAAAAAAAAAAAAAAPwAAAAAAAAAAAAAAAAAAAD8AAAAAAAAAAAAAAAAAAAA/AAAAAAAAAAAAAAAAAAAAPwAAAAAAAAAAAAAAAAAAAD8AAAAA
        AAAAAAAAAAAAAAA/AAAAAAAAAAAAAAAAAAAAPwAAAAAAAAAAAAAAAAAAAD8AAAAAAAAAAAAAAAAAAAA/AAAAAAAAAAAAAAAAAAAAPwAAAAAAAAAAAAAAAAAAAD8AAAAA
        AAAAAAAAAAAAAAA/AAAAAAAAAAAAAAAAAAAAPwAAAAAAAAAAAAAAAAAAAD8AAAAAAAAAAAAAAAAAAAA/AAAAAAAAAAAAAAAAvvR9PgAAAD8AAAA/AAAAPwAAAAAAAAAA
        iYiIPQAAAD8AAAAAAAAAAAAAAAAAAAA/AAAAAAAAAAAAAAAAAAAAPwAAAAAAAAAAAAAAAAAAAD8AAAAAAAAAAAAAAAAAAAA/AAAAAAAAAAAAAAAAAAAAPwAAAAAAAAAA
        AAAAAAAAAD8AAAAAAAAAAAAAAAAAAAA/AAAAAAAAAAAAAAAAAAAAPwAAAAAAAAAAAAAAAAAAAD8AAAAAAAAAAAAAAAAAAAA/AAAAAAAAAAAAAAAAAAAAPwAAAAAAAAAA
        AAAAAAAAAD8AAAAAAAAAAAAAAAAAAAA/AAAAAAAAAAAAAAAAAAAAPwAAAAAAAAAAAAAAAAAAAD8AAAAAAAAAAAAAAAAAAAAAmpmZPgAAAAAAAAAAAAAAAAAAgD8AAAAA
        mpmZPgAAAAAAAAAAAAAAAAAAgD8AAAAAmpmZPgAAAAAAAAAAAAAAAAAAgD8AAAAAmpmZPgAAAAAAAAAAAAAAAAAAgD8AAAAAmpmZPgAAAAAAAAAAAAAAAAAAgD8AAAAA
        mpmZPgAAAAAAAAAAAAAAAAAAgD8AAAAAAAAAAAAAAAAAAAAAAAAAAAAAAAAAAAAAAAAAAAAAAAAAAAAAAAAAAAAAAAAAAAAAAAAAAAAAAAAAAAAAAAAAAAAAAAAAAAAA
        AAAAAAAAAAAAAAAAAAAAAAAAAAAAAAAAAAAAAAAAAAAAAAAAAAAAAAAAAAAAAAAAAAAAAAAAAAAAAAAAAAAAAAAAAAAAAAAAAAAAAKuqKj3ZiZ09gShWPgAAAAAAAAAA
        v+eWPQAAAAAAAAA/AAAAAAAAAAAAAAAAAAAAAAAAAD8AAAAAAAAAAAAAAAAAAAAAAAAAPwAAAAAAAAAAAAAAAAAAAAAAAAAAAAAAAAAAAAAAAAAAAAAAAAAAAAAAAAAA
        AAAAAAAAAAAAAAAAAAAAAAAAAAAAAAAAAAAAAAAAAAAAAAAAAAAAAAAAAAAAAAAAAAAAAAAAAAAAAAAAAAAAAAAAAAAAAAAAAAAAAAAAAAAAAAAAAAAAAAAAAAAAAAAA
        AAAAAAAAAAAAAAAAAAAAAAAAAAAAAAAAAAAAAAAAAAAAAAAAAAAAAAAAAAAAAAAAAAAAAAAAAAAAAAAAAAAAAAAAAAAAAAAAAAAAAAAAAAAAAAAAAAAAAAAAAAAAAAAA
        AAAAAAAAAAAAAAAAAAAAAAAAAAAAAAAAAAAAAAAAAAAAAAAAAAAAAAAAAAAAAAAAAAAAAAAAAAAAAAAAAAAAAAAAAAAAAAAAAAAAAAAAAAAAAAAAAAAAAAAAAAAAAAAA
        AAAAAAAAAAAAAAAAAAAAAAAAAAAAAAAAAAAAAAAAAAAAAAAAAAAAAAAAAAAAAAAAAAAAAAAAAAAAAAAAAAAAAAAAAAAAAAAAAAAAAAAAAAAAAAAAAAAAPwAAAD8AAAA/
        AAAAPwAAAD8AAAA/AAAAPwAAAD8AAAAAAAAAAAAAAAAAAAAAAAAAAAAAAAAAAAAAAAAAAAAAAAAAAAAAAAAAAAAAAAAAAAAAAAAAAAAAAAAAAAAAAAAAAAAAAAAAAAAA
        AAAAAAAAAAAAAAAAAAAAAAAAAAAAAAAAAAAAAAAAAAAAAAAAAAAAAAAAAAAAAAAAAAAAAAAAAAAAAAAAAAAAAAAAAAAAAAAAAAAAAAAAAAAAAAAAAAAAAAAAAAAAAAAA
        AAAAAAAAAAAAAAAAAAAAAAAAAAAAAAAAAAAAAAAAAAAAAAAAAAAAAAAAAAAAAAAAAAAAAAAAAAAAAAAAAAAAAAAAAAAAAAAAAAAAAAAAAAAAAAAAAAAAAAAAAAAAAAAA
        AAAAAAAAAAAAAAAAAAAAAAAAAAAAAAAAAAAAAAAAAAAAAAAAAAAAAAAAAAAAAAAAAAAAAAAAAAAAAAAA
        Q2hpcEZyb250AENoaXBGcm9udAAQAAAA
      >
      PRESETNAME ChipFront
      FLOATPOS 36 32 641 529
      FXID {4C5A6810-F3ED-0645-A06D-6758F70CB097}
      WAK 0
    >
  >
  <TRACK {1B564899-9ACC-8C4B-8FBF-925A5A247A13}
    NAME ChipSide
    PEAKCOL 16576
    BEAT -1
    AUTOMODE 0
    VOLPAN 0.44668359215096 0 -1 -1 1
    MUTESOLO 0 0 0
    IPHASE 0
    ISBUS 0 0
    BUSCOMP 0 0
    SHOWINMIX 1 0.6667 0.5 1 0.5 0 0 0
    FREEMODE 0
    SEL 0
    REC 0 0 0 0 0 0 0
    VU 2
    TRACKHEIGHT 39 0
    INQ 0 0 0 0.5 100 0 0 100
    NCHAN 2
    FX 1
    TRACKID {1B564899-9ACC-8C4B-8FBF-925A5A247A13}
    PERF 0
    AUXRECV 5 0 1.03113579563571 0 0 0 0 2 0 -1:U 0 -1 ''
    MIDIOUT -1
    MAINSEND 1 0
    <FXCHAIN
      SHOW 0
      LASTSEL 0
      DOCKED 0
      BYPASS 0 0 0
      <VST "VST: FabFilter Volcano 2 (SC) (FabFilter)" "FabFilter Volcano 2 (SC).vst" 0 "" 1180054068
        NDJWRu9e7f4EAAAAAQAAAAAAAAACAAAAAAAAAAQAAAAAAAAACAAAAAAAAAAIAAAAAQAAAAAAAAACAAAAAAAAAAQAAAAAAAAACAAAAAAAAAAQAAAAAAAAACAAAAAAAAAA
        QAAAAAAAAACAAAAAAAAAANwLAAAAAAAAAAAQAA==
        776t3g3wrd4AAAA/AAAAPwAAAD8AAAA/AACAPwAAAAAAAIA/q6qqPsplFD8AAAA/TxqgPc3MzD0AAAAAAAAAAEKGIj8AAIA/AACAP0Isdj8AAAA/bbDgPZqZGT8AAAAA
        AAAAAOev3zwAAIA/AAAAAAAAgD8AAAA/AAAAAJqZGT8AAAAAAAAAAAAAAAAAAIA/AAAAAAAAgD8AAAA/AAAAAJqZGT8AAAAAAAAAAAAAAAAAAIA/AAAAAKuqqj6CdAA9
        EObJPZgn+j4AAIA/AAAAAAAAAACJiAg+AACAP7PDtD4AAIA/AAAAAAAAAAAAAAAAq6qqPgAAAACeFR0/AAAAAAAAgD8AAAAAAAAAPwAAAAAAAAAAAAAAAAAAAD8AAAAA
        AAAAAAAAAAAAAAA/AAAAAAAAAAAAAAAAAAAAPwAAAAAAAAAAAAAAAAAAAD8AAAAAAAAAAAAAAAAAAAA/AAAAAAAAAAAAAAAAAAAAPwAAAAAAAAAAAAAAAAAAAD8AAAAA
        AAAAAAAAAAAAAAA/AAAAAAAAAAAAAAAAAAAAPwAAAAAAAAAAAAAAAAAAAD8AAAAAAAAAAAAAAAAAAAA/AAAAAAAAAAAAAAAAAAAAPwAAAAAAAAAAAAAAAHwZED4AAAA/
        KKO3PQAAgD8AAAAAAAAAAImIiD3y0iU/AAAAAAAAgD8AAAAAdGjRPQAAAAAAAIA/AAAAAAAAAD8AAAAAAAAAAAAAAAAAAAA/AAAAAAAAAAAAAAAAAAAAPwAAAAAAAAAA
        AAAAAAAAAD8AAAAAAAAAAAAAAAAAAAA/AAAAAAAAAAAAAAAAAAAAPwAAAAAAAAAAAAAAAAAAAD8AAAAAAAAAAAAAAAAAAAA/AAAAAAAAAAAAAAAAAAAAPwAAAAAAAAAA
        AAAAAAAAAD8AAAAAAAAAAAAAAAAAAAA/AAAAAAAAAAAAAAAAAAAAPwAAAAAAAAAAAAAAAAAAAD8AAAAAAAAAAAAAAAAAAAA/AAAAAAAAAAAAAAAAvvR9PgAAAD8AAAA/
        AAAAPwAAAAAAAAAAiYiIPQAAAD8AAAAAAAAAAAAAAAAAAAA/AAAAAAAAAAAAAAAAAAAAPwAAAAAAAAAAAAAAAAAAAD8AAAAAAAAAAAAAAAAAAAA/AAAAAAAAAAAAAAAA
        AAAAPwAAAAAAAAAAAAAAAAAAAD8AAAAAAAAAAAAAAAAAAAA/AAAAAAAAAAAAAAAAAAAAPwAAAAAAAAAAAAAAAAAAAD8AAAAAAAAAAAAAAAAAAAA/AAAAAAAAAAAAAAAA
        AAAAPwAAAAAAAAAAAAAAAAAAAD8AAAAAAAAAAAAAAAAAAAA/AAAAAAAAAAAAAAAAAAAAPwAAAAAAAAAAAAAAAAAAAD8AAAAAAAAAAAAAAAC+9H0+AAAAPwAAAD8AAAA/
        AAAAAAAAAACJiIg9AAAAPwAAAAAAAAAAAAAAAAAAAD8AAAAAAAAAAAAAAAAAAAA/AAAAAAAAAAAAAAAAAAAAPwAAAAAAAAAAAAAAAAAAAD8AAAAAAAAAAAAAAAAAAAA/
        AAAAAAAAAAAAAAAAAAAAPwAAAAAAAAAAAAAAAAAAAD8AAAAAAAAAAAAAAAAAAAA/AAAAAAAAAAAAAAAAAAAAPwAAAAAAAAAAAAAAAAAAAD8AAAAAAAAAAAAAAAAAAAA/
        AAAAAAAAAAAAAAAAAAAAPwAAAAAAAAAAAAAAAAAAAD8AAAAAAAAAAAAAAAAAAAA/AAAAAAAAAAAAAAAAAAAAPwAAAAAAAAAAAAAAAL70fT4AAAA/AAAAPwAAAD8AAAAA
        AAAAAImIiD0AAAA/AAAAAAAAAAAAAAAAAAAAPwAAAAAAAAAAAAAAAAAAAD8AAAAAAAAAAAAAAAAAAAA/AAAAAAAAAAAAAAAAAAAAPwAAAAAAAAAAAAAAAAAAAD8AAAAA
        AAAAAAAAAAAAAAA/AAAAAAAAAAAAAAAAAAAAPwAAAAAAAAAAAAAAAAAAAD8AAAAAAAAAAAAAAAAAAAA/AAAAAAAAAAAAAAAAAAAAPwAAAAAAAAAAAAAAAAAAAD8AAAAA
        AAAAAAAAAAAAAAA/AAAAAAAAAAAAAAAAAAAAPwAAAAAAAAAAAAAAAAAAAD8AAAAAAAAAAAAAAAAAAAA/AAAAAAAAAAAAAAAAvvR9PgAAAD8AAAA/AAAAPwAAAAAAAAAA
        iYiIPQAAAD8AAAAAAAAAAAAAAAAAAAA/AAAAAAAAAAAAAAAAAAAAPwAAAAAAAAAAAAAAAAAAAD8AAAAAAAAAAAAAAAAAAAA/AAAAAAAAAAAAAAAAAAAAPwAAAAAAAAAA
        AAAAAAAAAD8AAAAAAAAAAAAAAAAAAAA/AAAAAAAAAAAAAAAAAAAAPwAAAAAAAAAAAAAAAAAAAD8AAAAAAAAAAAAAAAAAAAA/AAAAAAAAAAAAAAAAAAAAPwAAAAAAAAAA
        AAAAAAAAAD8AAAAAAAAAAAAAAAAAAAA/AAAAAAAAAAAAAAAAAAAAPwAAAAAAAAAAAAAAAAAAAD8AAAAAAAAAAAAAAAAAAAAAmpmZPgAAAAAAAAAAAAAAAAAAgD8AAAAA
        mpmZPgAAAAAAAAAAAAAAAAAAgD8AAAAAmpmZPgAAAAAAAAAAAAAAAAAAgD8AAAAAmpmZPgAAAAAAAAAAAAAAAAAAgD8AAAAAmpmZPgAAAAAAAAAAAAAAAAAAgD8AAAAA
        mpmZPgAAAAAAAAAAAAAAAAAAgD8AAAAAAAAAAAAAAAAAAAAAAAAAAAAAAAAAAAAAAAAAAAAAAAAAAAAAAAAAAAAAAAAAAAAAAAAAAAAAAAAAAAAAAAAAAAAAAAAAAAAA
        AAAAAAAAAAAAAAAAAAAAAAAAAAAAAAAAAAAAAAAAAAAAAAAAAAAAAAAAAAAAAAAAAAAAAAAAAAAAAAAAAAAAAAAAAAAAAAAAAAAAAKuqqj3ZiZ09gShWPgAAgD8AAAAA
        v+eWPdmJHT0WszE/AAAAAAAAAACSdiw8AAAAAAAAAD8AAAAAAAAAAAAAAAAAAAAAAAAAPwAAAAAAAAAAAAAAAAAAAAAAAAAAAAAAAAAAAAAAAAAAAAAAAAAAAAAAAAAA
        AAAAAAAAAAAAAAAAAAAAAAAAAAAAAAAAAAAAAAAAAAAAAAAAAAAAAAAAAAAAAAAAAAAAAAAAAAAAAAAAAAAAAAAAAAAAAAAAAAAAAAAAAAAAAAAAAAAAAAAAAAAAAAAA
        AAAAAAAAAAAAAAAAAAAAAAAAAAAAAAAAAAAAAAAAAAAAAAAAAAAAAAAAAAAAAAAAAAAAAAAAAAAAAAAAAAAAAAAAAAAAAAAAAAAAAAAAAAAAAAAAAAAAAAAAAAAAAAAA
        AAAAAAAAAAAAAAAAAAAAAAAAAAAAAAAAAAAAAAAAAAAAAAAAAAAAAAAAAAAAAAAAAAAAAAAAAAAAAAAAAAAAAAAAAAAAAAAAAAAAAAAAAAAAAAAAAAAAAAAAAAAAAAAA
        AAAAAAAAAAAAAAAAAAAAAAAAAAAAAAAAAAAAAAAAAAAAAAAAAAAAAAAAAAAAAAAAAAAAAAAAAAAAAAAAAAAAAAAAAAAAAAAAAAAAAAAAAAAAAAAAAAAAPwAAAD8AAAA/
        AAAAPwAAAD8AAAA/AAAAPwAAAD8AAAAAAAAAAAAAAAAAAAAAAAAAAAAAAAAAAAAAAAAAAAAAAAAAAAAAAAAAAAAAAAAAAAAAAAAAAAAAAAAAAAAAAAAAAAAAAAAAAAAA
        AAAAAAAAAAAAAAAAAAAAAAAAAAAAAAAAAAAAAAAAAAAAAAAAAAAAAAAAAAAAAAAAAAAAAAAAAAAAAAAAAAAAAAAAAAAAAAAAAAAAAAAAAAAAAAAAAAAAAAAAAAAAAAAA
        AAAAAAAAAAAAAAAAAAAAAAAAAAAAAAAAAAAAAAAAAAAAAAAAAAAAAAAAAAAAAAAAAAAAAAAAAAAAAAAAAAAAAAAAAAAAAAAAAAAAAAAAAAAAAAAAAAAAAAAAAAAAAAAA
        AAAAAAAAAAAAAAAAAAAAAAAAAAAAAAAAAAAAAAAAAAAAAAAAAAAAAAAAAAAAAAAAAAAAAAAAAAAAAAAA
        Q2hpcFNpZGUAQ2hpcFNpZGUAEAAAAA==
      >
      PRESETNAME ChipSide
      FLOATPOS 36 32 641 529
      FXID {20356A84-5CFD-6E4A-AA26-2A8A49CE7A76}
      WAK 0
    >
  >
  <TRACK {DF9275E0-87BA-E149-BC29-C05E26C30FBB}
    NAME "STEMS(see notes)"
    PEAKCOL 16576
    BEAT -1
    AUTOMODE 0
    VOLPAN 0.4237703951579 0 -1 -1 1
    MUTESOLO 1 0 0
    IPHASE 0
    ISBUS 0 0
    BUSCOMP 0 0
    SHOWINMIX 1 0.6667 0.5 1 0.5 0 0 0
    FREEMODE 0
    SEL 1
    REC 0 0 0 0 0 0 0
    VU 2
    TRACKHEIGHT 128 0
    INQ 0 0 0 0.5 100 0 0 100
    NCHAN 2
    FX 1
    TRACKID {DF9275E0-87BA-E149-BC29-C05E26C30FBB}
    PERF 0
    MIDIOUT -1
    MAINSEND 1 0
    <FXCHAIN
      WNDRECT 86 36 724 387
      SHOW 1
      LASTSEL 0
      DOCKED 1
    >
    <ITEM
      POSITION 0
      SNAPOFFS 0
      LENGTH 16
      LOOP 0
      ALLTAKES 0
      FADEIN 1 0 0 1 0 0
      FADEOUT 1 0 0 1 0 0
      MUTE 0
      SEL 0
      IGUID {229C66D8-2B8D-214E-ABFE-EAB597311743}
      IID 52
      NAME "16th pulse (mix w/ send?) - stem"
      VOLPAN 1 0 1 -1
      SOFFS 0
      PLAYRATE 1 1 0 -1 0 0.0025
      CHANMODE 0
      GUID {2BB25336-8323-6E4C-879E-F6C0AE8074FE}
      <SOURCE WAVE
        FILE "SanMarinoMix_stems_16th pulse (mix w/ send_)-001.wav"
      >
    >
    <ITEM
      POSITION 0
      SNAPOFFS 0
      LENGTH 16
      LOOP 0
      ALLTAKES 0
      FADEIN 1 0 0 1 0 0
      FADEOUT 1 0 0 1 0 0
      MUTE 0
      SEL 0
      IGUID {46EEF276-AD71-924B-B974-DD31A7B94ABC}
      IID 51
      NAME "16th pulse (mix w/ send?) - stem"
      VOLPAN 1 0 1 -1
      SOFFS 0
      PLAYRATE 1 1 0 -1 0 0.0025
      CHANMODE 0
      GUID {8AF4C955-2800-9B47-A6EE-E39423F75295}
      <SOURCE WAVE
        FILE "SanMarinoMix_stems_16th pulse (mix w/ send_).wav"
      >
    >
  >
  <EXTENSIONS
    <SWSAUTOCOLOR
      {00000000-0000-0000-0000-000000000000} 0 "" "" ""
    >
    <BR_CURSOR_POS 04
      0.00000000000000
    >
  >
  <EXTSTATE
  >
>
