<REAPER_PROJECT 0.1 "4.731/OSX64" 1413827305
  RIPPLE 0
  GROUPOVERRIDE 0 0 0
  AUTOXFADE 0
  ENVATTACH 1
  MIXERUIFLAGS 11 52
  PEAKGAIN 1
  FEEDBACK 0
  PANLAW 1
  PROJOFFS 0 0
  MAXPROJLEN 0 600
  GRID 174206 8 1 8 1 0 0
  TIMEMODE 6 0 -1
  PANMODE 3
  CURSOR 0
  ZOOM 5.81798452372978 0 0
  VZOOMEX 0
  USE_REC_CFG 0
  RECMODE 1
  SMPTESYNC 0 23.976024 100 40 1000 300 0 0 1
  LOOP 1
  LOOPGRAN 0 4
  RECORD_PATH "" ""
  <RECORD_CFG
    ZXZhdxAA
  >
  <APPLYFX_CFG
  >
  RENDER_FILE ""
  RENDER_PATTERN ""
  RENDER_FMT 0 2 0
  RENDER_1X 0
  RENDER_RANGE 1 0 0
  RENDER_RESAMPLE 3 0 1
  RENDER_ADDTOPROJ 0
  RENDER_STEMS 0
  RENDER_DITHER 0
  TIMELOCKMODE 1
  TEMPOENVLOCKMODE 1
  ITEMMIX 0
  DEFPITCHMODE 589824
  TAKELANE 3
  SAMPLERATE 44100 0 0
  <RENDER_CFG
  >
  LOCK 1
  <METRONOME 6 2
    VOL 0.25 0.125
    FREQ 800 1600 1
    BEATLEN 4
    SAMPLES "" ""
  >
  GLOBAL_AUTO -1
  TEMPO 120 4 4
  PLAYRATE 1 0 0.25 4
  SELECTION 0 0
  SELECTION2 0 0
  MASTERAUTOMODE 0
  MASTERTRACKHEIGHT 0
  MASTERPEAKCOL 16576
  MASTERMUTESOLO 0
  MASTERTRACKVIEW 0 0.6667 0.5 0.5 -1 -1 -1
  MASTERHWOUT 0 0 1 0 0 0 0 -1
  MASTER_NCH 2 2
  MASTER_VOLUME 1 0 -1 -1 1
  MASTER_FX 1
  MASTER_SEL 0
  <MASTERPLAYSPEEDENV
    ACT 0
    VIS 0 1 1
    LANEHEIGHT 0 0
    ARM 0
    DEFSHAPE 0 -1 -1
  >
  <TEMPOENVEX
    ACT 0
    VIS 1 0 1
    LANEHEIGHT 0 0
    ARM 0
    DEFSHAPE 1 -1 -1
  >
  <PROJBAY
  >
  <TRACK {07C1617A-F9F5-0B4C-B742-123701E9C4F8}
    NAME ""
    PEAKCOL 16576
    BEAT -1
    AUTOMODE 0
    VOLPAN 1 0 -1 -1 1
    MUTESOLO 1 0 0
    IPHASE 0
    ISBUS 0 0
    BUSCOMP 0 0
    SHOWINMIX 1 0.6667 0.5 1 0.5 -1 -1 -1
    FREEMODE 0
    SEL 0
    REC 0 0 0 0 0 0 0
    VU 2
    TRACKHEIGHT 0 0
    INQ 0 0 0 0.5 100 0 0 100
    NCHAN 2
    FX 1
    TRACKID {07C1617A-F9F5-0B4C-B742-123701E9C4F8}
    PERF 0
    MIDIOUT -1
    MAINSEND 1 0
    <ITEM
      POSITION 0
      SNAPOFFS 0
      LENGTH 41.5
      LOOP 1
      ALLTAKES 0
      FADEIN 1 0 0 1 0 0
      FADEOUT 1 0 0 1 0 0
      MUTE 0
      SEL 0
      YPOS 0 0.083333
      IGUID {724491C2-1EF3-8149-A5DA-9C9A1727CF1D}
      IID 3
      NAME "trombone(s) - National_Anthems_-_Israel.mid"
      VOLPAN 1 0 1 -1
      SOFFS 0 0
      PLAYRATE 1 1 0 -1 0 0.0025
      CHANMODE 0
      GUID {E109ACC4-EDCF-9548-B078-EC5246371AD4}
      <SOURCE MIDI
        HASDATA 1 480 QN
        POOLEDEVTS {2F2CE3A4-D481-9849-9192-E806A5D8EA0D}
        <X 0 0
          /wN0cm9tYm9uZShzKQ==
        >
        <X 0 0
          /wRTb3VuZCBDYW52YXM=
        >
        E 0 92 28 53
        E 468 82 28 2b
        E 5 92 34 34
        E 872 82 34 3c
        E 85 92 34 48
        E 917 82 34 37
        E 50 92 34 50
        E 948 82 34 3e
        E 9 92 32 48
        E 485 92 30 41
        E 8 82 32 49
        E 470 92 36 5f
        E 288 82 30 01
        E 189 92 2f 50
        E 470 82 36 3c
        E 10 92 34 4c
        E 376 82 2f 3d
        E 100 92 2f 59
        E 461 82 34 07
        E 15 92 33 54
        E 484 92 34 50
        E 25 82 2f 4f
        E 6 82 33 52
        E 455 92 28 49
        E 21 82 34 43
        E 434 82 28 51
        E 503 92 3c 4b
        E 471 92 37 41
        E 2 82 3c 33
        E 467 82 37 0f
        E 5 92 38 2c
        E 492 92 39 47
        E 41 82 38 31
        E 428 82 39 01
        E 9 92 36 54
        E 478 92 37 47
        E 12 82 36 1e
        E 959 92 36 4b
        E 44 82 37 08
        E 905 82 36 33
        E 1 92 34 50
        E 748 82 34 40
        E 3 92 32 49
        E 118 82 32 48
        E 103 92 39 54
        E 0 92 30 55
        E 387 82 39 36
        E 49 82 30 27
        E 34 92 2f 4c
        E 2 92 39 50
        E 430 82 39 01
        E 48 82 2f 3c
        E 0 92 34 53
        E 2 92 37 45
        E 831 82 34 26
        E 9 82 37 01
        E 116 92 40 57
        E 2 92 30 51
        E 425 82 40 38
        E 57 92 40 54
        E 15 82 30 45
        E 399 82 40 2c
        E 70 92 40 54
        E 0 92 3c 49
        E 408 82 3c 19
        E 14 82 40 4b
        E 63 92 3c 4b
        E 1 92 39 53
        E 369 82 39 32
        E 49 82 3c 20
        E 59 92 3e 53
        E 0 92 39 49
        E 347 82 39 20
        E 92 82 3e 01
        E 33 92 32 48
        E 2 92 39 54
        E 469 82 39 45
        E 8 92 37 4b
        E 3 82 32 2e
        E 775 82 37 52
        E 192 92 3c 4d
        E 236 92 3b 4c
        E 2 82 3c 2c
        E 241 82 3b 3e
        E 1 92 3c 47
        E 235 92 30 3f
        E 1 82 3c 2c
        E 234 92 32 45
        E 7 82 30 27
        E 194 82 32 3b
        E 32 92 34 48
        E 239 92 36 5d
        E 25 82 34 44
        E 205 82 36 4c
        E 7 92 37 50
        E 222 82 37 0d
        E 15 92 39 50
        E 242 92 36 5f
        E 31 82 39 35
        E 209 92 37 50
        E 3 82 36 3c
        E 227 82 37 3c
        E 13 92 39 59
        E 238 82 39 2b
        E 6 92 3e 59
        E 975 82 3e 4f
        E 471 92 3b 55
        E 239 92 39 4b
        E 10 82 3b 01
        E 231 92 37 45
        E 10 82 39 01
        E 202 82 37 01
        E 22 92 36 5f
        E 216 82 36 2b
        E 24 92 34 50
        E 349 82 34 43
        E 135 92 36 63
        E 0 92 30 43
        E 432 82 36 1f
        E 4 82 30 2d
        E 44 92 32 45
        E 3 92 39 57
        E 387 82 39 16
        E 92 92 37 45
        E 747 82 32 4a
        E 57 82 37 2a
        E 157 92 34 55
        E 478 82 34 3c
        E 6 92 3b 41
        E 1 92 36 5b
        E 393 82 3b 09
        E 49 82 36 4c
        E 38 92 34 5b
        E 3 92 3b 4c
        E 376 82 3b 27
        E 63 82 34 45
        E 40 92 3b 51
        E 3 92 34 4f
        E 372 82 3b 20
        E 22 82 34 51
        E 84 92 39 53
        E 3 92 34 51
        E 357 82 39 20
        E 45 82 34 01
        E 61 92 33 50
        E 3 92 39 4c
        E 365 82 39 38
        E 36 82 33 3c
        E 70 92 37 43
        E 2 92 34 41
        E 230 82 37 41
        E 8 92 36 51
        E 192 82 36 4a
        E 38 92 37 3f
        E 245 92 3b 50
        E 7 82 37 2b
        E 204 82 34 01
        E 30 82 3b 36
        E 4 92 36 49
        E 0 92 39 55
        E 245 92 3b 4d
        E 7 82 39 02
        E 208 82 36 3e
        E 42 92 36 4d
        E 5 92 3c 51
        E 48 82 3b 41
        E 378 82 3c 42
        E 17 82 36 32
        E 22 92 37 49
        E 0 92 3b 49
        E 363 82 37 25
        E 119 92 3d 51
        E 2 92 37 47
        E 10 82 3b 42
        E 331 82 37 2a
        E 94 82 3d 41
        E 39 92 3e 57
        E 1 92 39 51
        E 449 82 39 01
        E 46 92 37 4f
        E 233 92 39 4f
        E 10 82 37 08
        E 210 82 39 4a
        E 17 92 3b 51
        E 236 92 2f 4b
        E 1 92 37 53
        E 15 82 3b 40
        E 113 82 3e 02
        E 102 82 2f 3e
        E 2 82 37 2e
        E 2 92 31 5f
        E 5 92 39 5d
        E 215 82 31 46
        E 14 82 39 1c
        E 1 92 32 51
        E 7 92 3b 5d
        E 245 92 34 47
        E 0 92 39 53
        E 3 82 3b 49
        E 23 82 32 4a
        E 441 82 39 3f
        E 7 92 36 57
        E 3 82 34 1f
        E 0 92 3b 4b
        E 425 82 3b 43
        E 58 92 3b 54
        E 1 92 37 47
        E 11 82 36 49
        E 463 82 3b 27
        E 0 82 37 0f
        E 5 92 34 50
        E 1 92 3a 4d
        E 342 82 34 21
        E 115 82 3a 26
        E 22 92 34 4f
        E 2 92 39 5b
        E 379 82 39 21
        E 77 82 34 01
        E 17 92 33 5d
        E 1 92 39 51
        E 453 82 39 40
        E 11 82 33 03
        E 19 92 3b 54
        E 0 92 34 45
        E 1963 82 3b 52
        E 118 82 34 5e
        E 326 b0 7b 00
        GUID {1ED6CD53-27AA-924E-A2D5-09765F5C11C2}
        IGNTEMPO 0 120 4 4
        SRCCOLOR 474
        VELLANE -1 86 6
      >
    >
    <ITEM
      POSITION 0
      SNAPOFFS 0
      LENGTH 41.5
      LOOP 1
      ALLTAKES 0
      FADEIN 1 0 0 1 0 0
      FADEOUT 1 0 0 1 0 0
      MUTE 0
      SEL 0
      YPOS 0.083333 0.083333
      IGUID {745E7B31-D085-F54F-B822-5E697A2B6F2C}
      IID 4
      NAME "tuba(s) - National_Anthems_-_Israel.mid"
      VOLPAN 1 0 1 -1
      SOFFS 0 0
      PLAYRATE 1 1 0 -1 0 0.0025
      CHANMODE 0
      GUID {BA859500-E602-8F4F-916B-A4DFC63036F0}
      <SOURCE MIDI
        HASDATA 1 480 QN
        POOLEDEVTS {A45FAE2C-AFA2-784C-B489-3BC4379522CC}
        <X 0 0
          /wN0dWJhKHMp
        >
        <X 0 0
          /wRTb3VuZCBDYW52YXM=
        >
        E 475 93 28 54
        E 875 83 28 2e
        E 76 93 28 3f
        E 900 83 28 23
        E 69 93 28 50
        E 958 83 28 27
        E 0 93 26 53
        E 468 83 26 01
        E 20 93 24 4c
        E 951 83 24 28
        E 8 93 23 53
        E 855 83 23 2d
        E 95 93 23 45
        E 964 93 28 4d
        E 18 83 23 39
        E 462 93 1c 47
        E 10 83 28 24
        E 451 83 1c 4f
        E 493 93 30 3d
        E 459 83 30 1a
        E 12 93 2b 3b
        E 484 93 2c 43
        E 1 83 2b 01
        E 460 83 2c 2d
        E 21 93 2d 4f
        E 479 83 2d 24
        E 2 93 2a 49
        E 482 93 2b 3f
        E 4 83 2a 3a
        E 975 93 26 51
        E 39 83 2b 2f
        E 901 83 26 27
        E 6 93 28 3f
        E 709 83 28 25
        E 9 93 26 51
        E 217 83 26 28
        E 31 93 24 45
        E 469 83 24 1d
        E 10 93 23 45
        E 477 93 28 3b
        E 1 83 23 31
        E 736 83 28 3b
        E 228 93 24 49
        E 1902 83 24 2c
        E 11 93 2a 51
        E 447 83 2a 21
        E 33 93 26 48
        E 477 93 2b 3f
        E 5 83 26 24
        E 939 83 2b 4e
        E 739 93 24 5b
        E 201 83 24 20
        E 33 93 23 57
        E 208 83 23 43
        E 27 93 24 49
        E 227 83 24 08
        E 4 93 26 54
        E 239 83 26 50
        E 0 93 28 5b
        E 218 83 28 21
        E 21 93 2a 68
        E 239 83 2a 33
        E 1 93 26 53
        E 220 83 26 48
        E 16 93 28 49
        E 244 93 2a 5d
        E 17 83 28 1b
        E 227 83 2a 43
        E 0 93 2b 50
        E 241 93 2a 5b
        E 1 83 2b 17
        E 240 93 2b 51
        E 4 83 2a 11
        E 231 83 2b 21
        E 9 93 2d 48
        E 216 83 2d 1b
        E 27 93 2f 49
        E 245 93 2d 55
        E 15 83 2f 4f
        E 225 93 2b 47
        E 9 83 2d 2d
        E 217 83 2b 01
        E 11 93 2a 63
        E 246 93 28 53
        E 13 83 2a 4f
        E 225 83 28 22
        E 2 93 26 5f
        E 243 93 24 53
        E 16 83 26 01
        E 219 93 23 57
        E 2 83 24 01
        E 216 83 23 38
        E 24 93 21 48
        E 1 93 24 51
        E 281 83 24 4d
        E 202 83 21 4a
        E 0 93 1e 54
        E 421 83 1e 40
        E 54 93 1f 61
        E 227 83 1f 48
        E 11 93 21 5f
        E 221 83 21 39
        E 20 93 23 59
        E 470 83 23 19
        E 12 93 25 5f
        E 474 83 25 04
        E 7 93 27 68
        E 483 83 27 3e
        E 1 93 28 5d
        E 485 83 28 23
        E 3 93 26 5b
        E 449 83 26 22
        E 32 93 24 5d
        E 444 83 24 28
        E 30 93 23 61
        E 455 83 23 2b
        E 21 93 24 59
        E 862 83 24 2c
        E 87 93 26 57
        E 409 83 26 37
        E 76 93 26 51
        E 488 93 28 59
        E 7 83 26 50
        E 418 83 28 2b
        E 61 93 28 51
        E 466 83 28 0e
        E 10 93 2a 5b
        E 451 83 2a 3e
        E 20 93 28 53
        E 243 93 2a 57
        E 21 83 28 28
        E 218 83 2a 55
        E 2 93 2b 54
        E 189 83 2b 04
        E 49 93 1f 63
        E 208 83 1f 46
        E 30 93 21 59
        E 230 83 21 48
        E 10 93 23 53
        E 244 83 23 01
        E 1 93 25 68
        E 480 93 27 63
        E 8 83 25 16
        E 477 93 28 61
        E 3 83 27 4c
        E 233 83 28 38
        E 2 93 26 57
        E 213 83 26 2a
        E 30 93 24 59
        E 375 83 24 27
        E 102 93 24 51
        E 462 83 24 29
        E 14 93 23 59
        E 492 93 1c 70
        E 8 83 23 3c
        E 1929 83 1c 53
        E 456 b0 7b 00
        GUID {DF9D26BB-DA8E-5046-ABB7-54D78FB46B03}
        IGNTEMPO 0 120 4 4
        SRCCOLOR 475
        VELLANE -1 86 6
      >
    >
    <ITEM
      POSITION 0
      SNAPOFFS 0
      LENGTH 41.5
      LOOP 1
      ALLTAKES 0
      FADEIN 1 0 0 1 0 0
      FADEOUT 1 0 0 1 0 0
      MUTE 0
      SEL 0
      YPOS 0.166667 0.083333
      IGUID {413E36A3-989C-BC4F-B2E5-8DDB1700CEC9}
      IID 5
      NAME "strings (hi) - National_Anthems_-_Israel.mid"
      VOLPAN 1 0 1 -1
      SOFFS 0 0
      PLAYRATE 1 1 0 -1 0 0.0025
      CHANMODE 0
      GUID {9D0C8B08-F937-0944-9284-D7A04F9709A3}
      <SOURCE MIDI
        HASDATA 1 480 QN
        POOLEDEVTS {5FBA01B0-0E39-F94C-9E94-AF1246F855C6}
        <X 0 0
          /wNzdHJpbmdzIChoaSk=
        >
        <X 0 0
          /wRTb3VuZCBDYW52YXM=
        >
        E 0 94 40 49
        E 230 84 40 19
        E 2 94 42 4e
        E 227 84 42 43
        E 8 94 43 52
        E 234 84 43 1b
        E 4 94 45 43
        E 243 94 47 4e
        E 22 84 45 3f
        E 396 84 47 35
        E 59 94 47 4b
        E 434 84 47 27
        E 49 94 48 4b
        E 231 84 48 4b
        E 7 94 47 53
        E 221 84 47 01
        E 18 94 48 4d
        E 243 94 4c 51
        E 29 84 48 25
        E 211 94 47 53
        E 2 84 4c 3a
        E 917 84 47 21
        E 46 94 45 47
        E 405 84 45 36
        E 70 94 45 57
        E 169 84 45 3f
        E 69 94 45 4e
        E 216 84 45 31
        E 21 94 43 56
        E 431 84 43 35
        E 57 94 43 59
        E 455 84 43 15
        E 28 94 42 56
        E 240 94 40 51
        E 12 84 42 2a
        E 171 84 40 13
        E 52 94 42 5b
        E 235 94 43 61
        E 1 84 42 22
        E 240 84 43 3f
        E 1 94 40 57
        E 587 84 40 4b
        E 138 94 3b 47
        E 246 94 40 5a
        E 16 84 3b 01
        E 215 84 40 36
        E 2 94 42 51
        E 222 84 42 44
        E 12 94 43 56
        E 239 94 45 61
        E 10 84 43 11
        E 234 94 47 59
        E 11 84 45 40
        E 380 94 47 43
        E 18 84 47 2b
        E 459 84 47 1c
        E 90 94 48 59
        E 229 84 48 4b
        E 10 94 47 5a
        E 238 94 48 5b
        E 19 84 47 1d
        E 229 94 4c 4f
        E 32 84 48 31
        E 208 84 4c 41
        E 1 94 47 47
        E 817 84 47 0e
        E 142 94 45 5d
        E 455 84 45 41
        E 29 94 45 63
        E 174 84 45 3e
        E 61 94 45 5b
        E 229 84 45 34
        E 9 94 43 5b
        E 427 84 43 3b
        E 54 94 43 61
        E 474 84 43 41
        E 4 94 42 57
        E 247 94 40 57
        E 21 84 42 3f
        E 218 94 42 61
        E 14 84 40 18
        E 223 94 43 61
        E 14 84 42 44
        E 226 84 43 32
        E 3 94 40 53
        E 853 84 40 13
        E 109 94 40 63
        E 6 94 4c 4f
        E 448 84 4c 40
        E 8 84 40 19
        E 6 94 58 4e
        E 6 94 4c 6e
        E 405 84 58 41
        E 12 84 4c 36
        E 54 94 58 4b
        E 8 94 4c 57
        E 431 84 58 43
        E 12 84 4c 3e
        E 29 94 58 4f
        E 14 94 4c 61
        E 479 94 56 55
        E 9 94 4a 5f
        E 7 84 4c 44
        E 6 84 58 4b
        E 216 84 56 24
        E 1 94 58 5b
        E 4 84 4a 51
        E 1 94 4c 5b
        E 229 84 4c 3e
        E 1 94 56 57
        E 8 94 4a 63
        E 1 84 58 3a
        E 228 84 4a 37
        E 4 94 54 59
        E 1 94 48 5a
        E 19 84 56 1a
        E 223 94 53 53
        E 1 94 47 5b
        E 13 84 48 3b
        E 9 84 54 4b
        E 840 84 53 01
        E 15 84 47 01
        E 80 94 4c 4e
        E 8 94 40 76
        E 465 84 40 01
        E 11 94 58 51
        E 2 94 4c 69
        E 12 84 4c 40
        E 403 84 58 4b
        E 9 84 4c 46
        E 50 94 58 61
        E 8 94 4c 5d
        E 399 84 4c 4a
        E 8 84 58 3c
        E 58 94 58 59
        E 1 94 4c 5f
        E 353 84 58 35
        E 93 84 4c 3a
        E 14 94 56 4b
        E 0 94 51 3f
        E 2 94 4a 67
        E 237 94 58 4b
        E 5 94 4c 59
        E 3 84 56 3c
        E 17 84 4a 42
        E 202 84 4c 44
        E 13 94 56 52
        E 3 94 4a 5a
        E 28 84 58 41
        E 49 94 54 45
        E 157 84 56 34
        E 7 94 48 57
        E 20 84 4a 42
        E 62 84 51 0a
        E 62 84 54 4d
        E 95 94 53 55
        E 0 94 4f 30
        E 14 84 48 4a
        E 16 94 47 67
        E 820 84 4f 01
        E 9 84 47 01
        E 102 94 4f 55
        E 1 94 56 52
        E 13 94 4a 6b
        E 22 84 53 43
        E 398 84 56 4d
        E 39 84 4a 4d
        E 24 94 56 52
        E 6 94 4a 63
        E 170 84 56 46
        E 5 84 4a 41
        E 61 94 56 41
        E 2 94 4a 5d
        E 186 84 4f 40
        E 52 94 43 71
        E 3 94 4f 3a
        E 9 84 4a 44
        E 28 84 56 3b
        E 392 84 4f 41
        E 4 84 43 40
        E 45 94 4f 4d
        E 3 94 43 6b
        E 480 84 4f 30
        E 1 94 51 5b
        E 4 84 43 38
        E 5 94 45 6b
        E 230 94 53 56
        E 7 94 47 63
        E 11 84 45 25
        E 7 84 51 2e
        E 166 84 47 27
        E 43 84 53 35
        E 5 94 54 56
        E 4 94 48 55
        E 235 94 56 37
        E 3 94 4a 67
        E 13 84 54 2a
        E 6 84 48 47
        E 179 84 4a 13
        E 44 94 53 49
        E 0 94 47 5f
        E 28 84 56 49
        E 393 84 47 1b
        E 55 94 45 67
        E 1 94 51 5d
        E 14 84 53 49
        E 220 84 51 43
        E 1 84 45 32
        E 2 94 4f 53
        E 3 94 43 61
        E 240 94 51 4e
        E 4 84 43 32
        E 0 94 45 61
        E 9 84 4f 2c
        E 390 84 51 3f
        E 22 84 45 3b
        E 49 94 51 4f
        E 8 94 45 65
        E 476 94 4f 52
        E 8 84 51 34
        E 3 94 43 61
        E 11 84 45 38
        E 406 84 4f 3c
        E 17 84 43 49
        E 38 94 4f 53
        E 13 94 43 65
        E 281 84 43 41
        E 22 84 4f 42
        E 52 94 4f 4d
        E 2 94 43 69
        E 119 94 4e 5d
        E 5 94 42 65
        E 16 84 4f 2a
        E 5 84 43 49
        E 210 84 42 35
        E 3 94 4c 51
        E 4 94 40 5b
        E 15 84 4e 3e
        E 214 94 4e 5a
        E 7 84 40 1b
        E 0 94 42 71
        E 30 84 4c 2a
        E 185 84 42 3d
        E 16 94 4f 51
        E 3 94 43 67
        E 10 84 4e 47
        E 227 84 43 3c
        E 5 94 4c 52
        E 1 94 40 65
        E 25 84 4f 3a
        E 786 84 4c 01
        E 49 84 40 02
        E 88 94 51 5a
        E 4 94 45 69
        E 413 84 51 32
        E 25 84 45 42
        E 35 94 51 51
        E 8 94 45 63
        E 180 84 51 37
        E 35 84 45 40
        E 17 94 51 4f
        E 14 94 45 65
        E 229 94 4f 53
        E 11 84 45 3d
        E 0 94 43 6e
        E 6 84 51 1d
        E 427 84 43 47
        E 23 84 4f 37
        E 26 94 4f 4d
        E 0 94 43 6e
        E 358 84 4f 2a
        E 58 84 43 42
        E 63 94 4e 47
        E 0 94 51 4e
        E 6 94 45 67
        E 201 84 51 27
        E 17 84 45 25
        E 11 94 53 37
        E 2 94 47 69
        E 185 84 47 38
        E 1 84 53 36
        E 54 94 48 5d
        E 5 94 54 4d
        E 1 84 4e 60
        E 2 94 4f 4f
        E 211 84 54 3c
        E 19 94 56 4e
        E 1 94 4a 57
        E 11 84 48 3d
        E 192 84 4f 14
        E 37 94 47 5d
        E 6 94 4f 32
        E 1 94 53 51
        E 1 84 4a 49
        E 30 84 56 4d
        E 373 84 47 39
        E 69 94 45 61
        E 1 94 51 5b
        E 4 84 53 3d
        E 93 84 4f 06
        E 136 84 45 42
        E 0 94 4f 4b
        E 6 84 51 34
        E 1 94 43 6e
        E 236 84 43 32
        E 1 94 51 56
        E 4 94 45 65
        E 21 84 4f 4b
        E 409 84 51 41
        E 4 84 45 41
        E 42 94 51 4b
        E 5 94 45 61
        E 189 84 51 44
        E 47 94 51 4b
        E 234 84 51 37
        E 2 94 4f 55
        E 14 94 43 69
        E 8 84 45 2b
        E 410 84 43 4b
        E 7 84 4f 3b
        E 48 94 4f 51
        E 3 94 43 67
        E 287 84 43 43
        E 8 84 4f 36
        E 62 94 43 67
        E 4 94 4f 47
        E 119 94 42 61
        E 1 94 4e 5b
        E 8 84 43 3d
        E 9 84 4f 38
        E 213 84 42 4e
        E 4 94 40 5a
        E 5 84 4e 46
        E 0 94 4c 5a
        E 233 94 42 6b
        E 1 94 4e 63
        E 14 84 40 1d
        E 6 84 4c 33
        E 219 94 43 69
        E 4 94 4f 56
        E 2 84 42 23
        E 19 84 4e 4b
        E 220 94 40 61
        E 1 94 4c 57
        E 4 84 43 28
        E 19 84 4f 2f
        E 1889 84 4c 66
        E 28 84 40 65
        E 466 b0 7b 00
        GUID {012170C1-D97E-BC40-808F-AD9600E173AC}
        IGNTEMPO 0 120 4 4
        SRCCOLOR 476
        VELLANE -1 86 6
      >
    >
    <ITEM
      POSITION 0
      SNAPOFFS 0
      LENGTH 41.5
      LOOP 1
      ALLTAKES 0
      FADEIN 1 0 0 1 0 0
      FADEOUT 1 0 0 1 0 0
      MUTE 0
      SEL 0
      YPOS 0.25 0.083333
      IGUID {F4B12C00-7757-D94E-B3B8-0AA4F593DFB1}
      IID 6
      NAME "strings (mid) - National_Anthems_-_Israel.mid"
      VOLPAN 1 0 1 -1
      SOFFS 0 0
      PLAYRATE 1 1 0 -1 0 0.0025
      CHANMODE 0
      GUID {0FB29A92-0726-6B4F-8B38-0DFA73C65220}
      <SOURCE MIDI
        HASDATA 1 480 QN
        POOLEDEVTS {6B410F77-CB52-514F-94F3-971E7B146718}
        <X 0 0
          /wNzdHJpbmdzIChtaWQp
        >
        <X 0 0
          /wRTb3VuZCBDYW52YXM=
        >
        E 471 95 34 56
        E 239 95 36 5d
        E 24 85 34 42
        E 216 95 37 52
        E 22 85 36 3e
        E 933 95 39 57
        E 15 85 37 42
        E 952 95 3b 4b
        E 41 85 39 45
        E 919 95 37 4f
        E 14 85 3b 1d
        E 447 85 37 10
        E 11 95 36 37
        E 5 95 39 53
        E 481 95 3b 47
        E 7 85 39 23
        E 476 95 34 55
        E 33 85 36 2a
        E 456 95 39 5a
        E 32 85 3b 3b
        E 437 95 33 4e
        E 27 85 34 4c
        E 436 85 33 4b
        E 11 85 39 25
        E 5 95 34 55
        E 0 95 37 4e
        E 982 85 37 58
        E 7 85 34 5f
        E 451 95 40 5a
        E 474 95 3e 63
        E 6 85 40 28
        E 472 95 41 5b
        E 23 85 3e 2c
        E 471 95 40 5a
        E 40 85 41 45
        E 1398 95 3e 55
        E 12 85 40 3d
        E 952 95 3c 61
        E 20 85 3e 33
        E 921 85 3c 28
        E 9 95 3b 5b
        E 482 95 39 5b
        E 12 85 3b 3d
        E 949 95 37 49
        E 24 85 39 4a
        E 898 85 37 47
        E 47 95 40 61
        E 477 95 48 56
        E 1 95 43 56
        E 468 95 3c 5d
        E 472 85 43 4d
        E 7 95 39 3f
        E 1 95 45 65
        E 415 85 45 47
        E 64 85 40 37
        E 11 95 45 63
        E 1 95 3e 5a
        E 18 85 48 4d
        E 55 85 3c 21
        E 347 85 39 3c
        E 21 85 3e 0c
        E 45 95 39 76
        E 1 95 42 5b
        E 42 85 45 4f
        E 427 95 40 56
        E 6 95 43 61
        E 10 85 39 4f
        E 2 85 42 3d
        E 1 95 37 6b
        E 218 95 42 63
        E 9 85 43 4c
        E 208 85 40 40
        E 17 95 40 61
        E 13 85 42 43
        E 225 95 3e 67
        E 8 85 40 4d
        E 189 85 37 4b
        E 46 95 3c 65
        E 15 95 39 63
        E 18 95 40 5b
        E 1 85 3e 5e
        E 208 85 39 35
        E 1 95 36 71
        E 3 95 3b 5d
        E 28 85 3c 37
        E 175 85 36 4a
        E 27 95 37 57
        E 8 95 3c 55
        E 3 85 3b 4f
        E 228 95 39 65
        E 8 85 37 2b
        E 11 95 30 52
        E 35 85 3c 37
        E 191 95 3e 61
        E 5 85 39 49
        E 2 85 30 45
        E 0 95 32 71
        E 236 95 34 63
        E 2 85 32 4b
        E 230 95 36 6e
        E 8 85 34 4a
        E 231 95 37 65
        E 9 85 36 4e
        E 137 85 3e 12
        E 16 85 40 01
        E 38 85 37 55
        E 39 95 45 67
        E 6 95 39 67
        E 219 85 39 2d
        E 11 95 36 71
        E 205 85 36 4e
        E 27 95 37 5a
        E 239 95 39 6b
        E 8 85 37 3d
        E 236 85 45 47
        E 1 95 43 6b
        E 5 95 40 59
        E 0 95 3e 5a
        E 4 85 39 4a
        E 53 85 40 55
        E 867 85 43 43
        E 37 95 43 5b
        E 5 85 3e 46
        E 489 95 3b 67
        E 240 95 39 6e
        E 11 85 3b 0c
        E 225 85 39 46
        E 0 95 37 5b
        E 237 95 36 6b
        E 7 85 37 26
        E 242 95 34 69
        E 30 85 36 13
        E 317 85 43 01
        E 136 95 36 6b
        E 3 85 34 45
        E 0 95 42 63
        E 474 95 45 55
        E 4 95 39 6e
        E 2 85 36 4b
        E 13 85 42 36
        E 452 85 39 26
        E 5 85 45 33
        E 2 95 43 4d
        E 8 95 37 63
        E 848 85 37 0e
        E 65 85 43 01
        E 38 95 34 69
        E 20 95 40 43
        E 462 85 34 54
        E 0 95 3b 5d
        E 1325 85 40 01
        E 119 85 3b 01
        E 0 95 42 57
        E 2 95 39 65
        E 240 95 40 56
        E 7 85 42 22
        E 231 95 42 5d
        E 20 85 40 26
        E 209 85 42 3e
        E 7 95 43 5f
        E 72 85 39 0b
        E 164 95 37 5f
        E 7 95 40 49
        E 15 85 43 21
        E 216 85 37 3e
        E 1 95 36 6e
        E 216 85 36 49
        E 19 95 37 5a
        E 244 95 3b 5f
        E 7 85 37 4c
        E 29 85 40 27
        E 209 95 39 61
        E 4 85 3b 33
        E 236 95 3b 5d
        E 18 85 39 3c
        E 222 95 3c 56
        E 6 85 3b 49
        E 476 95 3b 56
        E 5 85 3c 2a
        E 471 85 3b 01
        E 3 95 3d 69
        E 494 95 3e 6b
        E 3 95 42 5d
        E 7 95 39 5b
        E 22 85 3d 49
        E 406 85 42 23
        E 31 95 43 67
        E 21 95 37 52
        E 11 85 39 44
        E 191 85 37 2f
        E 17 95 39 5a
        E 4 95 45 5b
        E 5 85 3e 24
        E 3 85 43 45
        E 222 95 3b 56
        E 8 85 39 46
        E 0 85 45 3e
        E 1 95 43 5d
        E 6 95 3e 5a
        E 227 95 37 57
        E 19 85 3b 35
        E 218 95 39 5d
        E 37 85 37 2a
        E 136 85 43 44
        E 66 95 3b 55
        E 17 85 39 47
        E 59 85 3e 37
        E 165 85 3b 52
        E 4 95 34 52
        E 3 95 39 65
        E 460 85 39 15
        E 10 95 36 5d
        E 14 85 34 3d
        E 2 95 3b 5a
        E 458 95 37 4b
        E 14 85 36 3e
        E 447 85 3b 34
        E 28 95 34 52
        E 14 95 3a 53
        E 27 85 37 31
        E 462 95 39 5f
        E 28 85 3a 1d
        E 400 85 39 40
        E 40 95 3b 55
        E 2 95 33 57
        E 1 95 39 5d
        E 39 85 34 28
        E 381 85 3b 2a
        E 56 85 33 59
        E 0 95 3b 4d
        E 7 95 34 63
        E 0 95 37 63
        E 13 85 39 43
        E 1897 85 34 62
        E 0 85 37 62
        E 37 85 3b 62
        E 449 b0 7b 00
        GUID {0CA5C83B-FECD-7342-AD23-748FC2C23F63}
        IGNTEMPO 0 120 4 4
        SRCCOLOR 477
        VELLANE -1 86 6
      >
    >
    <ITEM
      POSITION 0
      SNAPOFFS 0
      LENGTH 41.5
      LOOP 1
      ALLTAKES 0
      FADEIN 1 0 0 1 0 0
      FADEOUT 1 0 0 1 0 0
      MUTE 0
      SEL 0
      YPOS 0.333333 0.083333
      IGUID {A1AF142A-6B70-7B42-9701-EFBB7DF6B468}
      IID 7
      NAME "strings (bass) - National_Anthems_-_Israel.mid"
      VOLPAN 1 0 1 -1
      SOFFS 0 0
      PLAYRATE 1 1 0 -1 0 0.0025
      CHANMODE 0
      GUID {3A2E927D-D1AA-6D40-A3EA-5E1B1061B70E}
      <SOURCE MIDI
        HASDATA 1 480 QN
        POOLEDEVTS {CC3789E6-5F35-2D4A-BA53-C91A25086849}
        <X 0 0
          /wNzdHJpbmdzIChiYXNzKQ==
        >
        <X 0 0
          /wRTb3VuZCBDYW52YXM=
        >
        E 0 96 28 4b
        E 474 96 34 47
        E 14 86 28 0e
        E 868 86 34 24
        E 71 96 34 4e
        E 865 86 34 35
        E 96 96 34 56
        E 962 96 32 5b
        E 13 86 34 3c
        E 474 96 30 4f
        E 5 86 32 01
        E 466 96 36 4f
        E 463 86 30 01
        E 23 96 2f 57
        E 473 96 34 52
        E 6 86 36 3d
        E 954 86 34 29
        E 4 96 33 57
        E 486 96 34 61
        E 2 86 33 40
        E 26 86 2f 47
        E 453 96 28 4f
        E 20 86 34 4e
        E 443 86 28 53
        E 488 96 3c 4d
        E 467 86 3c 1e
        E 4 96 37 43
        E 480 86 37 01
        E 0 96 38 49
        E 485 96 39 59
        E 19 86 38 13
        E 469 96 36 5d
        E 21 86 39 27
        E 459 96 37 3a
        E 16 86 36 0a
        E 879 86 37 01
        E 70 96 36 4e
        E 3 96 32 53
        E 956 96 34 43
        E 10 86 32 33
        E 1 86 36 49
        E 704 86 34 40
        E 4 96 32 49
        E 237 96 30 52
        E 4 86 32 29
        E 459 86 30 06
        E 14 96 2f 59
        E 486 96 34 4d
        E 17 86 2f 49
        E 864 86 34 41
        E 86 96 30 49
        E 0 96 24 51
        E 1834 86 24 41
        E 72 86 30 45
        E 6 96 36 41
        E 481 96 32 52
        E 29 86 36 45
        E 439 86 32 4d
        E 8 96 37 2b
        E 825 86 37 30
        E 136 96 3c 53
        E 240 96 3b 41
        E 17 86 3c 23
        E 211 86 3b 40
        E 8 96 3c 4b
        E 243 96 30 47
        E 9 86 3c 13
        E 225 96 32 47
        E 1 96 2f 3a
        E 4 86 30 01
        E 232 96 34 53
        E 4 96 30 49
        E 16 86 2f 45
        E 3 86 32 3b
        E 195 86 34 16
        E 16 96 32 41
        E 5 96 36 69
        E 7 86 30 29
        E 223 86 36 38
        E 8 96 34 4d
        E 1 86 32 22
        E 0 96 37 45
        E 164 86 37 5a
        E 6 86 34 5e
        E 89 96 36 6b
        E 161 86 36 0c
        E 50 96 32 4e
        E 241 96 34 59
        E 1 86 32 45
        E 232 86 34 1b
        E 1 96 36 5d
        E 244 96 37 53
        E 8 86 36 45
        E 232 96 36 57
        E 18 86 37 12
        E 226 96 37 4d
        E 13 86 36 2b
        E 229 96 39 49
        E 5 86 37 14
        E 241 96 3b 4b
        E 10 86 39 37
        E 236 96 39 51
        E 16 86 3b 40
        E 225 96 37 49
        E 2 86 39 29
        E 242 96 36 57
        E 15 86 37 1f
        E 227 96 34 57
        E 4 86 36 4e
        E 236 96 32 5a
        E 4 86 34 29
        E 242 96 30 4d
        E 14 86 32 29
        E 205 86 30 02
        E 12 96 2f 56
        E 239 86 2f 3b
        E 4 96 30 4b
        E 2 96 2d 4b
        E 338 86 30 3c
        E 48 86 2d 4e
        E 98 96 32 65
        E 7 96 2a 3b
        E 375 86 2a 32
        E 82 86 32 54
        E 9 96 2b 52
        E 234 96 2d 4b
        E 9 86 2b 28
        E 232 86 2d 45
        E 3 96 2f 45
        E 351 86 2f 0a
        E 127 96 31 4f
        E 2 96 34 41
        E 363 86 34 4d
        E 117 96 33 4d
        E 1 96 36 56
        E 18 86 31 36
        E 425 86 36 4a
        E 39 96 34 45
        E 18 86 33 21
        E 460 96 32 51
        E 295 86 34 01
        E 189 86 32 3f
        E 1 96 30 3f
        E 0 96 34 33
        E 458 86 34 01
        E 9 86 30 01
        E 14 96 33 4e
        E 4 96 2f 43
        E 386 86 33 01
        E 41 86 2f 14
        E 40 96 34 4b
        E 1 96 30 43
        E 892 86 34 0c
        E 10 86 30 01
        E 44 96 36 53
        E 2 96 32 4b
        E 433 86 32 30
        E 1 86 36 48
        E 50 96 36 4d
        E 1 96 32 41
        E 487 96 37 4d
        E 2 96 34 47
        E 17 86 36 34
        E 18 86 32 01
        E 370 86 34 43
        E 10 86 37 44
        E 61 96 34 41
        E 4 96 37 41
        E 473 86 37 01
        E 9 96 36 4f
        E 1 96 39 45
        E 19 86 34 1c
        E 456 86 36 09
        E 7 86 39 34
        E 0 96 34 3f
        E 1 96 37 49
        E 215 86 37 20
        E 18 96 36 4f
        E 1 96 39 4b
        E 32 86 34 29
        E 198 86 39 30
        E 10 96 3b 23
        E 6 96 37 49
        E 23 86 36 36
        E 197 86 3b 4b
        E 3 86 37 17
        E 15 96 2b 6e
        E 201 86 2b 45
        E 31 96 2d 5d
        E 242 96 2f 4f
        E 2 86 2d 46
        E 244 96 31 5a
        E 2 96 34 41
        E 22 86 2f 23
        E 450 86 34 01
        E 2 96 36 4b
        E 1 96 33 51
        E 11 86 31 2d
        E 430 86 33 41
        E 39 96 34 56
        E 2 86 36 40
        E 239 96 32 51
        E 25 86 34 48
        E 219 96 31 5a
        E 1 96 34 43
        E 5 86 32 01
        E 377 86 34 1a
        E 88 86 31 35
        E 3 96 30 57
        E 0 96 34 41
        E 367 86 34 24
        E 81 86 30 01
        E 34 96 33 4e
        E 2 96 2f 52
        E 470 86 33 36
        E 10 96 28 55
        E 0 96 34 3d
        E 1929 86 34 64
        E 3 86 2f 5d
        E 6 86 28 5f
        E 465 b0 7b 00
        GUID {9293BD73-4412-9D44-9356-3482E1173103}
        IGNTEMPO 0 120 4 4
        SRCCOLOR 478
        VELLANE -1 86 6
      >
    >
    <ITEM
      POSITION 0
      SNAPOFFS 0
      LENGTH 41.5
      LOOP 1
      ALLTAKES 0
      FADEIN 1 0 0 1 0 0
      FADEOUT 1 0 0 1 0 0
      MUTE 0
      SEL 0
      YPOS 0.583333 0.083333
      IGUID {A07CDA27-516E-5041-A34E-F86BD454BC40}
      IID 12
      NAME "bass trmb - National_Anthems_-_Israel.mid"
      VOLPAN 1 0 1 -1
      SOFFS 0 0
      PLAYRATE 1 1 0 -1 0 0.0025
      CHANMODE 0
      GUID {9502A556-2284-3046-9FD2-E8FC1AB48337}
      <SOURCE MIDI
        HASDATA 1 480 QN
        POOLEDEVTS {D41ED10C-9E56-D543-93BC-72A883CBBEFC}
        <X 0 0
          /wNiYXNzIHRybWI=
        >
        <X 0 0
          /wRTb3VuZCBDYW52YXM=
        >
        E 8146 92 3c 46
        E 468 82 3c 1d
        E 3 92 37 3d
        E 484 92 38 47
        E 1 82 37 27
        E 486 82 38 3a
        E 0 92 39 47
        E 479 82 39 21
        E 3 92 36 4b
        E 477 92 37 3f
        E 2 82 36 1a
        E 940 82 37 01
        E 31 92 32 4d
        E 940 82 32 29
        E 12 92 34 39
        E 686 82 34 29
        E 39 92 32 3d
        E 206 82 32 0f
        E 31 92 30 49
        E 450 82 30 3b
        E 31 92 2f 49
        E 474 92 34 3d
        E 10 82 2f 2c
        E 803 82 34 04
        E 148 92 30 45
        E 1926 82 30 43
        E 0 92 36 42
        E 464 82 36 01
        E 14 92 32 49
        E 471 82 32 1e
        E 7 92 37 31
        E 893 82 37 43
        E 790 92 30 42
        E 218 82 30 27
        E 21 92 2f 4a
        E 210 82 2f 3c
        E 22 92 30 43
        E 239 92 32 4e
        E 20 82 30 01
        E 152 82 32 23
        E 58 92 34 4d
        E 167 82 34 59
        E 98 92 36 4e
        E 195 82 36 41
        E 21 92 32 4a
        E 223 82 32 39
        E 10 92 34 46
        E 232 82 34 27
        E 8 92 36 51
        E 247 92 37 42
        E 9 82 36 46
        E 230 92 36 47
        E 14 82 37 12
        E 234 92 37 3f
        E 29 82 36 13
        E 217 92 39 41
        E 7 82 37 10
        E 209 82 39 32
        E 23 92 3b 35
        E 243 92 39 41
        E 5 82 3b 3a
        E 232 82 39 1c
        E 4 92 37 41
        E 232 82 37 01
        E 8 92 36 4e
        E 240 82 36 47
        E 2 92 34 39
        E 241 92 32 46
        E 21 82 34 23
        E 221 92 30 3d
        E 21 82 32 01
        E 203 82 30 2d
        E 15 92 2f 4a
        E 247 92 2d 49
        E 2 82 2f 24
        E 424 82 2d 01
        E 48 92 2a 4b
        E 443 82 2a 09
        E 36 92 2b 53
        E 230 82 2b 3b
        E 6 92 2d 4b
        E 234 82 2d 2a
        E 7 92 2f 4d
        E 433 82 2f 01
        E 48 92 31 55
        E 472 82 31 35
        E 7 92 33 59
        E 477 82 33 1e
        E 14 92 34 55
        E 461 82 34 0c
        E 17 92 32 4b
        E 459 82 32 01
        E 29 92 30 4a
        E 431 82 30 01
        E 39 92 2f 4b
        E 461 82 2f 3b
        E 12 92 30 49
        E 907 82 30 12
        E 48 92 32 46
        E 414 82 32 23
        E 74 92 32 53
        E 487 92 34 4b
        E 11 82 32 3b
        E 410 82 34 38
        E 62 92 34 47
        E 454 82 34 23
        E 16 92 36 4e
        E 439 82 36 01
        E 42 92 34 41
        E 237 92 36 51
        E 9 82 34 01
        E 234 82 36 55
        E 0 92 37 3f
        E 182 82 37 01
        E 56 92 2b 4e
        E 237 82 2b 40
        E 7 92 2d 57
        E 216 82 2d 42
        E 20 92 2f 4b
        E 243 92 31 57
        E 5 82 2f 02
        E 477 82 31 23
        E 1 92 33 55
        E 446 82 33 17
        E 35 92 34 46
        E 244 92 32 3f
        E 6 82 34 28
        E 202 82 32 1d
        E 32 92 31 4e
        E 441 82 31 3d
        E 33 92 30 49
        E 417 82 30 1a
        E 60 92 2f 46
        E 436 82 2f 01
        E 38 92 28 4d
        E 1959 82 28 61
        E 450 b0 7b 00
        GUID {37752971-FF01-404F-8718-36A5515DA7DB}
        IGNTEMPO 0 120 4 4
        SRCCOLOR 483
        VELLANE -1 86 6
      >
    >
    <ITEM
      POSITION 0
      SNAPOFFS 0
      LENGTH 41
      LOOP 1
      ALLTAKES 0
      FADEIN 1 0 0 1 0 0
      FADEOUT 1 0 0 1 0 0
      MUTE 0
      SEL 0
      YPOS 0.75 0.083333
      IGUID {DE96946C-CA72-1C46-86D6-0109748745AD}
      IID 2
      NAME "fr. horn(s) - National_Anthems_-_Israel.mid"
      VOLPAN 1 0 1 -1
      SOFFS 0 0
      PLAYRATE 1 1 0 -1 0 0.0025
      CHANMODE 0
      GUID {D9A67993-1D35-B640-9301-54A94D68C966}
      <SOURCE MIDI
        HASDATA 1 480 QN
        POOLEDEVTS {7AC20A3D-6484-304D-AD74-37174A1E9A42}
        <X 0 0
          /wNmci4gaG9ybihzKQ==
        >
        <X 0 0
          /wRTb3VuZCBDYW52YXM=
        >
        E 472 91 34 4b
        E 236 91 36 56
        E 13 81 34 30
        E 187 81 36 27
        E 34 91 37 3a
        E 969 91 39 4b
        E 17 81 37 10
        E 941 91 3b 3a
        E 4 81 39 10
        E 961 91 37 4b
        E 12 81 3b 01
        E 459 81 37 01
        E 0 91 39 51
        E 478 91 3b 4f
        E 7 81 39 29
        E 954 91 39 47
        E 20 81 3b 18
        E 943 91 37 4e
        E 22 81 39 06
        E 856 81 37 47
        E 561 91 40 4f
        E 466 81 40 28
        E 5 91 3e 59
        E 483 91 41 56
        E 27 81 3e 04
        E 461 91 40 4d
        E 20 81 41 35
        E 1421 91 3e 4d
        E 16 81 40 11
        E 937 81 3e 27
        E 3 91 3c 45
        E 957 81 3c 20
        E 5 91 3b 4f
        E 489 91 39 4d
        E 9 81 3b 2d
        E 389 81 39 39
        E 75 91 39 49
        E 478 91 37 4d
        E 6 81 39 17
        E 972 81 37 4a
        E 473 91 43 49
        E 385 81 43 40
        E 93 91 43 4b
        E 476 91 40 53
        E 6 81 43 25
        E 479 91 45 4e
        E 19 81 40 1c
        E 441 81 45 3d
        E 12 91 42 5d
        E 464 81 42 13
        E 17 91 43 5b
        E 240 91 42 63
        E 14 81 43 43
        E 210 81 42 33
        E 13 91 40 5a
        E 232 81 40 39
        E 8 91 3e 52
        E 243 81 3e 35
        E 10 91 40 57
        E 471 91 4c 51
        E 42 81 40 01
        E 368 81 4c 49
        E 64 91 4c 55
        E 407 81 4c 47
        E 74 91 4c 56
        E 347 81 4c 31
        E 132 91 45 4f
        E 0 91 4a 51
        E 241 81 4a 3d
        E 2 91 4c 3f
        E 228 81 4c 42
        E 6 91 4a 55
        E 243 91 48 52
        E 5 81 4a 4b
        E 168 81 45 43
        E 49 81 48 3f
        E 23 91 47 57
        E 2 91 43 45
        E 803 81 43 23
        E 124 81 47 27
        E 32 91 4a 4f
        E 0 91 43 57
        E 402 81 4a 3b
        E 81 91 4a 5a
        E 150 81 4a 3f
        E 83 91 4a 4e
        E 162 81 43 25
        E 84 91 43 59
        E 27 81 4a 1a
        E 370 81 43 3a
        E 86 91 43 55
        E 379 81 43 45
        E 103 91 45 5b
        E 233 91 47 5a
        E 1 81 45 2b
        E 237 91 48 51
        E 10 81 47 01
        E 230 91 4a 47
        E 7 81 48 36
        E 237 91 47 5f
        E 7 81 4a 4a
        E 447 81 47 43
        E 25 91 45 4e
        E 225 81 45 46
        E 12 91 43 5d
        E 228 81 43 2a
        E 15 91 40 4f
        E 3 91 45 53
        E 393 81 45 39
        E 84 91 45 4e
        E 487 81 45 3f
        E 1 91 43 51
        E 369 81 43 3e
        E 102 91 43 5b
        E 201 81 43 2d
        E 82 91 43 55
        E 127 81 43 3b
        E 25 81 40 26
        E 50 91 42 56
        E 233 91 40 52
        E 8 81 42 20
        E 231 91 42 5d
        E 24 81 40 2d
        E 215 91 43 5a
        E 3 81 42 34
        E 227 81 43 46
        E 11 91 40 53
        E 839 81 40 35
        E 155 91 39 55
        E 203 81 39 30
        E 19 91 3b 4e
        E 228 81 3b 01
        E 13 91 3c 4f
        E 449 81 3c 41
        E 19 91 3b 59
        E 477 91 3d 5a
        E 3 81 3b 17
        E 461 81 3d 37
        E 16 91 3e 59
        E 905 81 3e 3e
        E 58 91 3e 4d
        E 893 81 3e 01
        E 84 91 39 55
        E 474 91 3b 57
        E 10 81 39 11
        E 912 81 3b 01
        E 28 91 3a 53
        E 455 81 3a 39
        E 21 91 39 52
        E 404 81 39 38
        E 78 91 3b 57
        E 484 91 3b 5b
        E 13 81 3b 37
        E 1659 81 3b 5c
        E 252 b0 7b 00
        GUID {1A15F516-AE8D-5E4C-9290-FC9BC64570F8}
        IGNTEMPO 0 120 4 4
        SRCCOLOR 473
        VELLANE -1 86 6
      >
    >
  >
  <TRACK {F4CC3575-1D7D-424F-8F4B-C71B325A2484}
    NAME ""
    PEAKCOL 16576
    BEAT -1
    AUTOMODE 0
    VOLPAN 1 0 -1 -1 1
    MUTESOLO 0 0 0
    IPHASE 0
    ISBUS 1 1
    BUSCOMP 0 0
    SHOWINMIX 1 0.6667 0.5 1 0.5 -1 -1 -1
    FREEMODE 0
    SEL 0
    REC 0 0 0 0 0 0 0
    VU 2
    TRACKHEIGHT 0 0
    INQ 0 0 0 0.5 100 0 0 100
    NCHAN 2
    FX 1
    TRACKID {F4CC3575-1D7D-424F-8F4B-C71B325A2484}
    PERF 0
    MIDIOUT -1
    MAINSEND 1 0
    <FXCHAIN
      SHOW 0
      LASTSEL 0
      DOCKED 0
      BYPASS 0 0 0
      <VST "VSTi: chipsounds (Plogue Art et Technologie, Inc)" chipsounds.vst 0 ""
        T0dMUO5e7f4AAAAAAgAAAAEAAAAAAAAAAgAAAAAAAABCAgAAAQAAAAAAEABDRUdQFAgAAHic5VVRb9owEH7nV1h+2h6axAFCkYCK0TIhDRUNJu2tOpJras1xWOywtr9+
        jpNQGJ3qSdvT7sV358939/lk3+jqMRNkj4XiuRxT5gWUXE06o2nBYQ17PNqKgpBOOsTIaI1ac5kq8r0EwfWT2aUkFfkWxCoXxuyGlChdIGQGVpsZPK6tZypEHi8/jGmf
        Gfdycb24LfUyT9BGgVLnGWiTci1yPaamHhWbHbuCAONh5IJgldlTsWjcM5QaizGNgraQTSlt7sALrFDit9WbwIQnNraEDKuQHlmVBZLZA9/54TT46n9eVQt5V0rBM64x
        eU/JFuS3RVIVEwwpiR9AShRjemHK3lnaLKJEn+Xdbe8KkClWyINTG5fa5QptGVmpa0X9uBOgLO+6WlvxErhsK96DKNF26pTWKZAdgGf8T4GhK7DrCuy5AvuuwMgVOHAF
        XroCh65AFjgjnXvDnJvDnLvDnNvD3urPCgrImvTHlfbZMLrs/xbbe8Gy8PXIGyhS1M3jjPPMW4k8LdGrfiXv0/zWKxUWxy/EnpqVyvwd16CB6KedORmG3chctuLPxuhV
        PW8/M5MPZcKhVhNzxCitzOslDP6unFL0a45/Spr9J6Q3BU9TLNbmn0cZY/EmbTYI2bCl3R8c0Q5fo80a1o3U9sDq3dlgPjwhMQu68394ESO/mkiNfnN/j7E+H1HTbMur
        m/h1CrVD7eOXRXsAYs33uDjMz9q+eZmnKEwKTDawrYeXiTHy24k/6fwE6rQE5QAAEAAAAA==
      >
      FLOATPOS 404 36 871 509
      FXID {8431A072-55F4-FD4E-8B7D-D2D9F1493C94}
      WAK 0
    >
    <ITEM
      POSITION 0
      SNAPOFFS 0
      LENGTH 41
      LOOP 1
      ALLTAKES 0
      FADEIN 1 0 0 1 0 0
      FADEOUT 1 0 0 1 0 0
      MUTE 0
      SEL 0
      YPOS 0.666667 0.083333
      IGUID {498B3677-A312-1E45-9708-F20358508957}
      IID 1
      NAME "trumpet(s) - National_Anthems_-_Israel.mid"
      VOLPAN 1 0 1 -1
      SOFFS 0 0
      PLAYRATE 1 1 0 -1 0 0.0025
      CHANMODE 0
      GUID {7BC78F73-1B65-DD40-B03A-4F9A58ED5CB2}
      <SOURCE MIDI
        HASDATA 1 480 QN
        POOLEDEVTS {9178FF5A-EFD6-2A48-9A0B-BAED2BA8C512}
        <X 0 0
          /wN0cnVtcGV0KHMp
        >
        <X 0 0
          /wRTb3VuZCBDYW52YXM=
        >
        E 0 90 40 5c
        E 236 90 42 74
        E 3 80 40 3f
        E 235 80 42 32
        E 1 90 43 6f
        E 196 80 43 31
        E 42 90 45 61
        E 130 80 45 23
        E 112 90 47 67
        E 383 80 47 23
        E 91 90 47 6b
        E 387 80 47 61
        E 100 90 48 5f
        E 232 80 48 46
        E 7 90 47 63
        E 117 80 47 2d
        E 122 90 48 5b
        E 238 90 4c 5f
        E 22 80 48 3c
        E 92 80 4c 30
        E 127 90 47 5d
        E 837 80 47 42
        E 125 90 45 67
        E 416 80 45 39
        E 60 90 45 6d
        E 149 80 45 34
        E 91 90 45 69
        E 164 80 45 23
        E 72 90 43 74
        E 411 80 43 2e
        E 70 90 43 6d
        E 396 80 43 28
        E 86 90 42 71
        E 225 80 42 3b
        E 12 90 40 58
        E 166 80 40 20
        E 76 90 42 71
        E 240 90 43 6f
        E 10 80 42 3c
        E 148 80 43 34
        E 83 90 40 6d
        E 587 80 40 4c
        E 139 90 3b 5f
        E 174 80 3b 1f
        E 59 90 40 6d
        E 233 80 40 28
        E 7 90 42 6f
        E 199 80 42 39
        E 72 90 43 67
        E 199 90 45 69
        E 37 80 43 23
        E 134 80 45 09
        E 72 90 47 60
        E 442 80 47 49
        E 43 90 47 61
        E 432 80 47 2a
        E 51 90 48 63
        E 222 80 48 4a
        E 13 90 47 5d
        E 185 80 47 2d
        E 55 90 48 5d
        E 237 80 48 3e
        E 0 90 4c 60
        E 148 80 4c 44
        E 94 90 47 65
        E 830 80 47 3a
        E 138 90 45 6d
        E 421 80 45 39
        E 62 90 45 6d
        E 146 80 45 3f
        E 92 90 45 6b
        E 162 80 45 2a
        E 78 90 43 71
        E 407 80 43 35
        E 75 90 43 74
        E 425 80 43 36
        E 62 90 42 74
        E 211 80 42 3e
        E 23 90 40 61
        E 189 80 40 2e
        E 52 90 42 71
        E 223 80 42 01
        E 11 90 43 71
        E 137 80 43 34
        E 108 90 40 60
        E 812 80 40 27
        E 154 90 40 6d
        E 412 80 40 0c
        E 64 90 4c 71
        E 382 80 4c 20
        E 103 90 4c 67
        E 353 80 4c 42
        E 120 90 4c 6d
        E 374 80 4c 2c
        E 107 90 4a 67
        E 224 80 4a 32
        E 14 90 4c 5b
        E 143 80 4c 39
        E 97 90 4a 65
        E 220 80 4a 35
        E 19 90 48 58
        E 141 80 48 28
        E 100 90 47 63
        E 958 80 47 09
        E 12 90 40 59
        E 454 80 40 22
        E 11 90 4c 6b
        E 357 80 4c 2b
        E 123 90 4c 65
        E 364 80 4c 25
        E 114 90 4c 65
        E 395 80 4c 39
        E 86 90 4a 60
        E 217 80 4a 24
        E 25 90 4c 60
        E 160 80 4c 2e
        E 80 90 4a 63
        E 209 80 4a 36
        E 29 90 48 61
        E 132 80 48 1c
        E 106 90 47 69
        E 828 80 47 38
        E 142 90 4a 6f
        E 358 80 4a 16
        E 119 90 4a 6f
        E 166 80 4a 46
        E 77 90 4a 67
        E 179 80 4a 3c
        E 58 90 43 74
        E 391 80 43 35
        E 88 90 43 71
        E 399 80 43 2c
        E 85 90 45 6f
        E 237 90 47 69
        E 3 80 45 01
        E 168 80 47 17
        E 70 90 48 60
        E 220 80 48 44
        E 14 90 4a 60
        E 149 80 4a 2a
        E 93 90 47 65
        E 390 80 47 17
        E 95 90 45 69
        E 219 80 45 3a
        E 17 90 43 67
        E 161 80 43 2c
        E 81 90 45 65
        E 386 80 45 29
        E 97 90 45 63
        E 407 80 45 0d
        E 68 90 43 71
        E 404 80 43 3f
        E 76 90 43 71
        E 256 80 43 2e
        E 103 90 43 69
        E 120 90 42 69
        E 4 80 43 35
        E 220 80 42 47
        E 12 90 40 60
        E 207 80 40 2a
        E 33 90 42 6f
        E 218 80 42 2e
        E 17 90 43 6b
        E 223 80 43 1c
        E 27 90 40 69
        E 847 80 40 1a
        E 125 90 45 6d
        E 388 80 45 33
        E 86 90 45 67
        E 150 80 45 34
        E 86 90 45 65
        E 141 80 45 25
        E 99 90 43 71
        E 384 80 43 3c
        E 93 90 43 6f
        E 387 80 43 4c
        E 102 90 45 69
        E 235 90 47 67
        E 1 80 45 1b
        E 164 80 47 35
        E 77 90 48 63
        E 222 80 48 31
        E 16 90 4a 6d
        E 122 80 4a 1d
        E 117 90 47 59
        E 472 80 47 1f
        E 10 90 45 65
        E 217 80 45 3d
        E 21 90 43 74
        E 125 80 43 51
        E 127 90 45 74
        E 382 80 45 34
        E 87 90 45 69
        E 130 80 45 3e
        E 113 90 45 69
        E 154 80 45 1c
        E 83 90 43 6f
        E 383 80 43 3a
        E 90 90 43 6d
        E 245 80 43 27
        E 120 90 43 6d
        E 116 90 42 6f
        E 2 80 43 40
        E 213 80 42 34
        E 22 90 40 61
        E 176 80 40 2f
        E 66 90 42 74
        E 233 80 42 2b
        E 7 90 43 77
        E 150 80 43 30
        E 96 90 40 69
        E 1925 80 40 65
        E 1 b0 7b 00
        GUID {D9AB79C0-9436-CE4E-95CA-47261285F2CC}
        IGNTEMPO 0 120 4 4
        SRCCOLOR 472
        VELLANE -1 86 6
      >
    >
  >
  <TRACK {65BF5D08-DF3D-EA42-ADEF-5C04FE4BCE10}
    NAME ""
    PEAKCOL 16576
    BEAT -1
    AUTOMODE 0
    VOLPAN 1 0 -1 -1 1
    MUTESOLO 0 0 0
    IPHASE 0
    ISBUS 0 0
    BUSCOMP 0 0
    SHOWINMIX 1 0.6667 0.5 1 0.5 -1 -1 -1
    FREEMODE 0
    SEL 0
    REC 0 0 0 0 0 0 0
    VU 2
    TRACKHEIGHT 0 0
    INQ 0 0 0 0.5 100 0 0 100
    NCHAN 2
    FX 1
    TRACKID {65BF5D08-DF3D-EA42-ADEF-5C04FE4BCE10}
    PERF 0
    MIDIOUT -1
    MAINSEND 1 0
  >
  <TRACK {533E5558-895F-AD41-AFED-94D097E72BF2}
    NAME ""
    PEAKCOL 16576
    BEAT -1
    AUTOMODE 0
    VOLPAN 1 0 -1 -1 1
    MUTESOLO 0 0 0
    IPHASE 0
    ISBUS 2 -1
    BUSCOMP 0 0
    SHOWINMIX 1 0.6667 0.5 1 0.5 -1 -1 -1
    FREEMODE 0
    SEL 0
    REC 0 0 0 0 0 0 0
    VU 2
    TRACKHEIGHT 0 0
    INQ 0 0 0 0.5 100 0 0 100
    NCHAN 2
    FX 1
    TRACKID {533E5558-895F-AD41-AFED-94D097E72BF2}
    PERF 0
    MIDIOUT -1
    MAINSEND 1 0
  >
  <TRACK {71C79E63-5A69-554D-871D-6EEC8B27A9A2}
    NAME "14 Israel"
    PEAKCOL 16576
    BEAT -1
    AUTOMODE 0
    VOLPAN 1 0 -1 -1 1
    MUTESOLO 0 0 0
    IPHASE 0
    ISBUS 0 0
    BUSCOMP 0 0
    SHOWINMIX 1 0.6667 0.5 1 0.5 -1 -1 -1
    FREEMODE 0
    SEL 1
    REC 0 0 0 0 0 0 0
    VU 2
    TRACKHEIGHT 168 0
    INQ 0 0 0 0.5 100 0 0 100
    NCHAN 2
    FX 1
    TRACKID {71C79E63-5A69-554D-871D-6EEC8B27A9A2}
    PERF 0
    MIDIOUT -1
    MAINSEND 1 0
    <ITEM
      POSITION 0
      SNAPOFFS 0
      LENGTH 44.96085689107382
      LOOP 1
      ALLTAKES 0
      FADEIN 1 0 0 1 0 0
      FADEOUT 1 0 0 1 0 0
      MUTE 0
      SEL 1
      IGUID {EBC9F27A-3F24-2248-8304-80E0D4CAD918}
      IID 17
      NAME "14 Israel.mp3"
      VOLPAN 1 0 1 -1
      SOFFS 0.40750566893424
      PLAYRATE 1.930865 1 -3 -1 0 0.0025
      CHANMODE 0
      GUID {53393EE2-DD92-F74C-9AA8-BFBC34A03CE5}
      <SOURCE MP3
        FILE "14 Israel.mp3" 1
      >
    >
  >
  <EXTENSIONS
    <SWSAUTOCOLOR
      {00000000-0000-0000-0000-000000000000} 0 ""
      {07C1617A-F9F5-0B4C-B742-123701E9C4F8} 0 ""
      {F4CC3575-1D7D-424F-8F4B-C71B325A2484} 0 ""
      {65BF5D08-DF3D-EA42-ADEF-5C04FE4BCE10} 0 ""
      {533E5558-895F-AD41-AFED-94D097E72BF2} 0 ""
      {71C79E63-5A69-554D-871D-6EEC8B27A9A2} 0 ""
    >
  >
>
