<REAPER_PROJECT 0.1 "5.201/OSX64" 1464869131
  <NOTES 1
    |Glad: pan/filter/space
    |	- pan R horns
    |	- pan L trombone & tuba
  >
  RIPPLE 0
  GROUPOVERRIDE 0 0 0
  AUTOXFADE 0
  ENVATTACH 1
  MIXERUIFLAGS 11 52
  PEAKGAIN 1
  FEEDBACK 0
  PANLAW 1
  PROJOFFS 0 0
  MAXPROJLEN 0 600
  GRID 174206 8 1 8 1 0 0
  TIMEMODE 6 0 -1 24 2
  PANMODE 3
  CURSOR 0
  ZOOM 5.95209997700538 0 0
  VZOOMEX 0
  USE_REC_CFG 0
  RECMODE 1
  SMPTESYNC 0 23.976024 100 40 1000 300 0 0 1
  MIDIEDITOR -171672382
  LOOP 1
  LOOPGRAN 0 4
  RECORD_PATH "" ""
  <RECORD_CFG
    ZXZhdxAAAA==
  >
  <APPLYFX_CFG
  >
  RENDER_FILE "/Users/samenglander/_dev/colorflags/anthems/Israel.mp3"
  RENDER_FMT 0 2 44100
  RENDER_1X 0
  RENDER_RANGE 2 0 0 18 1000
  RENDER_RESAMPLE 3 0 1
  RENDER_ADDTOPROJ 0
  RENDER_STEMS 0
  RENDER_DITHER 0
  TIMELOCKMODE 1
  TEMPOENVLOCKMODE 1
  ITEMMIX 1
  DEFPITCHMODE 589824
  TAKELANE 3
  SAMPLERATE 44100 0 0
  <RENDER_CFG
    bDNwbSAAAAABAAAABQAAAAAAAAAAAAAAQAEAAAAAAAA=
  >
  LOCK 1
  <METRONOME 6 2
    VOL 0.25 0.125
    FREQ 800 1600 1
    BEATLEN 4
    SAMPLES "" ""
    PATTERN 2863311530 2863311529
  >
  GLOBAL_AUTO -1
  TEMPO 120 4 4
  PLAYRATE 1 0 0.25 4
  SELECTION 40 0
  SELECTION2 40 0
  MASTERAUTOMODE 0
  MASTERTRACKHEIGHT 0
  MASTERPEAKCOL 16576
  MASTERMUTESOLO 0
  MASTERTRACKVIEW 0 0.6667 0.5 0.5 0 0 0
  MASTERHWOUT 0 0 1 0 0 0 0 -1
  MASTER_NCH 2 2
  MASTER_VOLUME 1 0 -1 -1 1
  MASTER_FX 1
  MASTER_SEL 0
  <MASTERPLAYSPEEDENV
    ACT 0
    VIS 0 1 1
    LANEHEIGHT 0 0
    ARM 0
    DEFSHAPE 0 -1 -1
  >
  <TEMPOENVEX
    ACT 0
    VIS 1 0 1
    LANEHEIGHT 0 0
    ARM 0
    DEFSHAPE 1 -1 -1
  >
  <PROJBAY
  >
  <TRACK {F4CC3575-1D7D-424F-8F4B-C71B325A2484}
    NAME ""
    PEAKCOL 16576
    BEAT -1
    AUTOMODE 0
    VOLPAN 1 0 -1 -1 1
    MUTESOLO 1 0 0
    IPHASE 0
    ISBUS 0 0
    BUSCOMP 0 0
    SHOWINMIX 1 0.6667 0.5 1 0.5 0 0 0
    FREEMODE 0
    SEL 0
    REC 0 0 0 0 0 0 0
    VU 2
    TRACKHEIGHT 155 0
    INQ 0 0 0 0.5 100 0 0 100
    NCHAN 2
    FX 1
    TRACKID {F4CC3575-1D7D-424F-8F4B-C71B325A2484}
    PERF 0
    MIDIOUT -1
    MAINSEND 1 0
    <FXCHAIN
      SHOW 0
      LASTSEL 0
      DOCKED 0
      BYPASS 0 0 0
      <VST "VSTi: chipsounds (Plogue Art et Technologie, Inc)" chipsounds.vst 0 "" 1347176271
        T0dMUO5e7f4AAAAAAgAAAAEAAAAAAAAAAgAAAAAAAABCAgAAAQAAAAAAEAA=
        Q0VHUBQIAAB4nOVV3W/aMBB/56+w/LQ9NIkD5UMCKkbLhDRUNJi0t+pIrqk1x2G2w9r+9XMcQmF0qidtT7sX311+9/HzKb7h1WMuyA6V5oUcURZElFyNW8OJ4rCCHR59
        6kYxHbeIleEKjeEy0+R7CYKbJ/uVkkwUGxDLQlizHVOijULILaw2c3hcOc9EiCJZfBjRS2bdi/n1/LY0iyJFlwVKU+RgbMmVKMyI2n50UlWvThBgPYxcEKwqBzoRe/cU
        pUE1ot2oaWRdSlc7CiInlIRN9zYx4anLLSHHKmVAlqVCMn3g2zCeRF/Dz8vqIO9KKXjODabvKdmA/Da3cSyKBpQkDyAlihG9sG1vHe2qS3NWd7u5UyAzrJAHp7EuvS00
        ujby0tSK/nEnQDvedbeu4wVw2XS8A1Gim9QprVMgOwDP+J8CY19g2xfY8QVe+gK7vsCeL7DvCxz4AlnkjfSeDfMeDvOeDvMeD3trPktQkO/LH3fa6fdZf/BbbOcFy+LX
        M69BZWj2P2dS5MFSFFmJQfUqBZ9mt0GpUR3/IS5qWmr7dlyDAWKetjYyjttde9maP1ujU828ecxsPZQph1pNbYhVGpnVRxz9XTmlGNYc/5Q0+09IrxXPMlQr+86jTFC9
        SZv1YjZoaF/2jmjHr9Fme9Z7qe2e09vT3mxwQmIatWf/8CKGYbWR9vrN/T0m5nxFTfINr27i1y3ULLWPX+ZNACSG73B+2J+1ffOyT1HYEpiuYVMvL5tjGDYbf9z6CSY7
        BO8=
        AAAQAAAA
      >
      FLOATPOS 404 36 871 509
      FXID {8431A072-55F4-FD4E-8B7D-D2D9F1493C94}
      WAK 0
    >
    <ITEM
      POSITION 0
      SNAPOFFS 0
      LENGTH 41.5
      LOOP 1
      ALLTAKES 0
      FADEIN 1 0 0 1 0 0
      FADEOUT 1 0 0 1 0 0
      MUTE 0
      SEL 0
      YPOS 0.083333 0.083333
      IGUID {745E7B31-D085-F54F-B822-5E697A2B6F2C}
      IID 4
      NAME "tuba(s) - National_Anthems_-_Israel.mid"
      VOLPAN 1 0 1 -1
      SOFFS 0 0
      PLAYRATE 1 1 0 -1 0 0.0025
      CHANMODE 0
      TAKECOLOR 26173599 B
      GUID {BA859500-E602-8F4F-916B-A4DFC63036F0}
      <SOURCE MIDI
        HASDATA 1 480 QN
        POOLEDEVTS {A45FAE2C-AFA2-784C-B489-3BC4379522CC}
        <X 0 0
          /wN0dWJhKHMp
        >
        <X 0 0
          /wRTb3VuZCBDYW52YXM=
        >
        e 476 93 28 54 -1
        e 875 83 28 2e -1
        e 79 93 28 3f -4
        e 900 83 28 23 -4
        e 66 93 28 50 -1
        e 958 83 28 27 -1
        e 1 93 26 53 -2
        e 468 83 26 01 -2
        e 18 93 24 4c
        e 951 83 24 28
        e 8 93 23 53
        e 855 83 23 2d
        e 98 93 23 45 -3
        e 963 93 28 4d -2
        e 19 83 23 39 -3
        e 461 93 1c 47 -2
        e 10 83 28 24 -2
        e 451 83 1c 4f -2
        e 494 93 30 3d -3
        e 459 83 30 1a -3
        e 15 93 2b 3b -6
        e 483 93 2c 43 -5
        e 2 83 2b 01 -6
        e 459 83 2c 2d -5
        e 20 93 2d 4f -4
        e 479 83 2d 24 -4
        e 2 93 2a 49 -4
        e 481 93 2b 3f -3
        e 5 83 2a 3a -4
        e 969 93 26 51 2
        e 44 83 2b 2f -3
        e 896 83 26 27 2
        e 10 93 28 3f -2
        e 709 83 28 25 -2
        e 9 93 26 51 -2
        e 217 83 26 28 -2
        e 29 93 24 45
        e 469 83 24 1d
        e 11 93 23 45 -1
        e 477 93 28 3b -1
        e 1 83 23 31 -1
        e 736 83 28 3b -1
        e 227 93 24 49
        e 1902 83 24 2c
        e 13 93 2a 51 -2
        e 447 83 2a 21 -2
        e 33 93 26 48 -2
        e 478 93 2b 3f -3
        e 4 83 26 24 -2
        e 940 83 2b 4e -3
        e 738 93 24 5b -2
        e 201 83 24 20 -2
        e 35 93 23 57 -4
        e 208 83 23 43 -4
        e 28 93 24 49 -5
        e 227 83 24 08 -5
        e 6 93 26 54 -7
        e 239 83 26 50 -7
        e 1 93 28 5b -8
        e 218 83 28 21 -8
        e 21 93 2a 68 -8
        e 239 83 2a 33 -8
        e 1 93 26 53 -8
        e 220 83 26 48 -8
        e 17 93 28 49 -9
        e 243 93 2a 5d -8
        e 18 83 28 1b -9
        e 225 93 2b 50 -7
        e 1 83 2a 43 -8
        e 239 93 2a 5b -6
        e 2 83 2b 17 -7
        e 239 93 2b 51 -6
        e 4 83 2a 11 -6
        e 231 83 2b 21 -6
        e 8 93 2d 48 -5
        e 216 83 2d 1b -5
        e 26 93 2f 49 -4
        e 244 93 2d 55 -3
        e 16 83 2f 4f -4
        e 224 93 2b 47 -3
        e 9 83 2d 2d -3
        e 217 83 2b 01 -3
        e 12 93 2a 63 -4
        e 244 93 28 53 -2
        e 15 83 2a 4f -4
        e 223 83 28 22 -2
        e 2 93 26 5f -2
        e 242 93 24 53 -1
        e 17 83 26 01 -2
        e 220 83 24 01 -1
        e 0 93 23 57 -3
        e 218 83 23 38 -3
        e 23 93 21 48 -2
        e 1 93 24 51 -2
        e 281 83 24 4d -2
        e 201 93 1e 54 -1
        e 1 83 21 4a -2
        e 420 83 1e 40 -1
        e 55 93 1f 61 -2
        e 227 83 1f 48 -2
        e 12 93 21 5f -3
        e 221 83 21 39 -3
        e 20 93 23 59 -3
        e 470 83 23 19 -3
        e 11 93 25 5f -2
        e 474 83 25 04 -2
        e 7 93 27 68 -2
        e 483 83 27 3e -2
        e 0 93 28 5d -1
        e 485 83 28 23 -1
        e 1 93 26 5b 1
        e 449 83 26 22 1
        e 31 93 24 5d 2
        e 444 83 24 28 2
        e 32 93 23 61
        e 455 83 23 2b
        e 22 93 24 59 -1
        e 862 83 24 2c -1
        e 90 93 26 57 -4
        e 409 83 26 37 -4
        e 75 93 26 51 -3
        e 486 93 28 59 -1
        e 9 83 26 50 -3
        e 416 83 28 2b -1
        e 59 93 28 51 1
        e 466 83 28 0e 1
        e 11 93 2a 5b
        e 451 83 2a 3e
        e 22 93 28 53 -2
        e 243 93 2a 57 -2
        e 21 83 28 28 -2
        e 218 83 2a 55 -2
        e 1 93 2b 54 -1
        e 189 83 2b 04 -1
        e 50 93 1f 63 -2
        e 208 83 1f 46 -2
        e 30 93 21 59 -2
        e 230 83 21 48 -2
        e 10 93 23 53 -2
        e 244 83 23 01 -2
        e 0 93 25 68 -1
        e 480 93 27 63 -1
        e 8 83 25 16 -1
        e 476 93 28 61
        e 4 83 27 4c -1
        e 232 83 28 38
        e 2 93 26 57
        e 213 83 26 2a
        e 29 93 24 59 1
        e 375 83 24 27 1
        e 103 93 24 51
        e 462 83 24 29
        e 15 93 23 59 -1
        e 489 93 1c 70 2
        e 11 83 23 3c -1
        e 1926 83 1c 53 2
        E 458 b0 7b 00
        GUID {DF9D26BB-DA8E-5046-ABB7-54D78FB46B03}
        IGNTEMPO 0 120 4 4
        SRCCOLOR 475
        VELLANE -1 86 6
        CFGEDITVIEW 9757.785979 50.873974 62 16 0 0 0 0 0 0.5
        KEYSNAP 0
        TRACKSEL 226 1 0 ""
        EVTFILTER 0 -1 -1 -1 -1 0 0 0 0 -1 -1 -1 -1 0 -1 0 -1 -1
        CFGEDIT 1 0 0 0 0 0 1 0 1 1 1 0.25 48 95 1280 778 0 0 2 3 0 0 0 0 0 -1 0 0 0.27 64
      >
      TAKE
      NAME "tuba(s) - National_Anthems_-_Israel.mid"
      TAKEVOLPAN 0 1 -1
      SOFFS 0 0
      PLAYRATE 1 1 0 -1 0 0.0025
      CHANMODE 0
      GUID {DFFD0DFB-215A-9446-A282-5772AFDD5AB2}
      <SOURCE MIDI
        HASDATA 1 480 QN
        POOLEDEVTS {5EED086B-7B06-134B-9798-388DC58D6F64}
        <X 0 0
          /wN0dWJhKHMp
        >
        <X 0 0
          /wRTb3VuZCBDYW52YXM=
        >
        E 475 93 28 54
        E 875 83 28 2e
        E 76 93 28 3f
        E 900 83 28 23
        E 69 93 28 50
        E 958 83 28 27
        E 0 93 26 53
        E 468 83 26 01
        E 20 93 24 4c
        E 951 83 24 28
        E 8 93 23 53
        E 855 83 23 2d
        E 95 93 23 45
        E 964 93 28 4d
        E 18 83 23 39
        E 462 93 1c 47
        E 10 83 28 24
        E 451 83 1c 4f
        E 493 93 30 3d
        E 459 83 30 1a
        E 12 93 2b 3b
        E 484 93 2c 43
        E 1 83 2b 01
        E 460 83 2c 2d
        E 21 93 2d 4f
        E 479 83 2d 24
        E 2 93 2a 49
        E 482 93 2b 3f
        E 4 83 2a 3a
        E 975 93 26 51
        E 39 83 2b 2f
        E 901 83 26 27
        E 6 93 28 3f
        E 709 83 28 25
        E 9 93 26 51
        E 217 83 26 28
        E 31 93 24 45
        E 469 83 24 1d
        E 10 93 23 45
        E 477 93 28 3b
        E 1 83 23 31
        E 736 83 28 3b
        E 228 93 24 49
        E 1902 83 24 2c
        E 11 93 2a 51
        E 447 83 2a 21
        E 33 93 26 48
        E 477 93 2b 3f
        E 5 83 26 24
        E 939 83 2b 4e
        E 739 93 24 5b
        E 201 83 24 20
        E 33 93 23 57
        E 208 83 23 43
        E 27 93 24 49
        E 227 83 24 08
        E 4 93 26 54
        E 239 83 26 50
        E 0 93 28 5b
        E 218 83 28 21
        E 21 93 2a 68
        E 239 83 2a 33
        E 1 93 26 53
        E 220 83 26 48
        E 16 93 28 49
        E 244 93 2a 5d
        E 17 83 28 1b
        E 227 83 2a 43
        E 0 93 2b 50
        E 241 93 2a 5b
        E 1 83 2b 17
        E 240 93 2b 51
        E 4 83 2a 11
        E 231 83 2b 21
        E 9 93 2d 48
        E 216 83 2d 1b
        E 27 93 2f 49
        E 245 93 2d 55
        E 15 83 2f 4f
        E 225 93 2b 47
        E 9 83 2d 2d
        E 217 83 2b 01
        E 11 93 2a 63
        E 246 93 28 53
        E 13 83 2a 4f
        E 225 83 28 22
        E 2 93 26 5f
        E 243 93 24 53
        E 16 83 26 01
        E 219 93 23 57
        E 2 83 24 01
        E 216 83 23 38
        E 24 93 21 48
        E 1 93 24 51
        E 281 83 24 4d
        E 202 83 21 4a
        E 0 93 1e 54
        E 421 83 1e 40
        E 54 93 1f 61
        E 227 83 1f 48
        E 11 93 21 5f
        E 221 83 21 39
        E 20 93 23 59
        E 470 83 23 19
        E 12 93 25 5f
        E 474 83 25 04
        E 7 93 27 68
        E 483 83 27 3e
        E 1 93 28 5d
        E 485 83 28 23
        E 3 93 26 5b
        E 449 83 26 22
        E 32 93 24 5d
        E 444 83 24 28
        E 30 93 23 61
        E 455 83 23 2b
        E 21 93 24 59
        E 862 83 24 2c
        E 87 93 26 57
        E 409 83 26 37
        E 76 93 26 51
        E 488 93 28 59
        E 7 83 26 50
        E 418 83 28 2b
        E 61 93 28 51
        E 466 83 28 0e
        E 10 93 2a 5b
        E 451 83 2a 3e
        E 20 93 28 53
        E 243 93 2a 57
        E 21 83 28 28
        E 218 83 2a 55
        E 2 93 2b 54
        E 189 83 2b 04
        E 49 93 1f 63
        E 208 83 1f 46
        E 30 93 21 59
        E 230 83 21 48
        E 10 93 23 53
        E 244 83 23 01
        E 1 93 25 68
        E 480 93 27 63
        E 8 83 25 16
        E 477 93 28 61
        E 3 83 27 4c
        E 233 83 28 38
        E 2 93 26 57
        E 213 83 26 2a
        E 30 93 24 59
        E 375 83 24 27
        E 102 93 24 51
        E 462 83 24 29
        E 14 93 23 59
        E 492 93 1c 70
        E 8 83 23 3c
        E 1929 83 1c 53
        E 456 b0 7b 00
        GUID {31EB99C7-0758-4F4A-8746-E888BF9AE036}
        IGNTEMPO 0 120 4 4
        SRCCOLOR 13488
        VELLANE -1 86 6
        CFGEDITVIEW 0 0 50 22 0 0 0 0 0 0.5
        KEYSNAP 0
        TRACKSEL 226 0 0 ""
        EVTFILTER 0 -1 -1 -1 -1 0 0 0 0 -1 -1 -1 -1 0 -1 0 -1 -1
        CFGEDIT 1 0 0 0 0 0 1 0 1 1 1 0.25 166 130 1414 829 0 0 2 3 0 0 0 0 0 -1 0 0 1 64
      >
    >
    <ITEM
      POSITION 0
      SNAPOFFS 0
      LENGTH 41.5
      LOOP 1
      ALLTAKES 0
      FADEIN 1 0 0 1 0 0
      FADEOUT 1 0 0 1 0 0
      MUTE 0
      SEL 0
      YPOS 0 0.083333
      IGUID {724491C2-1EF3-8149-A5DA-9C9A1727CF1D}
      IID 3
      NAME "trombone(s) - National_Anthems_-_Israel.mid"
      VOLPAN 1 0 1 -1
      SOFFS 0 0
      PLAYRATE 1 1 0 -1 0 0.0025
      CHANMODE 0
      TAKECOLOR 26173599 B
      GUID {E109ACC4-EDCF-9548-B078-EC5246371AD4}
      <SOURCE MIDI
        HASDATA 1 480 QN
        POOLEDEVTS {2F2CE3A4-D481-9849-9192-E806A5D8EA0D}
        <X 0 0
          /wN0cm9tYm9uZShzKQ==
        >
        <X 0 0
          /wRTb3VuZCBDYW52YXM=
        >
        e 0 92 28 53
        e 468 82 28 2b
        e 7 92 34 34 -2
        e 872 82 34 3c -2
        e 86 92 34 48 -3
        e 917 82 34 37 -3
        e 48 92 34 50 -1
        e 948 82 34 3e -1
        e 10 92 32 48 -2
        e 483 92 30 41
        e 10 82 32 49 -2
        e 469 92 36 5f -1
        e 287 82 30 01
        e 191 92 2f 50 -2
        e 469 82 36 3c -1
        e 11 92 34 4c -2
        e 376 82 2f 3d -2
        e 101 92 2f 59 -3
        e 460 82 34 07 -2
        e 17 92 33 54 -4
        e 483 92 34 50 -3
        e 25 82 2f 4f -3
        e 7 82 33 52 -4
        e 452 92 28 49 -1
        e 23 82 34 43 -3
        e 432 82 28 51 -1
        e 504 92 3c 4b -2
        e 473 82 3c 33 -2
        e 0 92 37 41 -4
        e 469 82 37 0f -4
        e 7 92 38 2c -6
        e 488 92 39 47 -2
        e 45 82 38 31 -6
        e 424 82 39 01 -2
        e 10 92 36 54 -3
        e 479 92 37 47 -4
        e 11 82 36 1e -3
        e 957 92 36 4b -1
        e 47 82 37 08 -4
        e 902 82 36 33 -1
        e 3 92 34 50 -3
        e 743 92 32 49 5
        e 5 82 34 40 -3
        e 113 82 32 48 5
        e 108 92 30 55
        e 0 92 39 54
        e 387 82 39 36
        e 49 82 30 27
        e 37 92 2f 4c -3
        e 1 92 39 50 -2
        e 430 82 39 01 -2
        e 49 82 2f 3c -3
        e 0 92 34 53 -3
        e 1 92 37 45 -2
        e 832 82 34 26 -3
        e 8 82 37 01 -2
        e 117 92 40 57 -3
        e 2 92 30 51 -3
        e 425 82 40 38 -3
        e 56 92 40 54 -2
        e 16 82 30 45 -3
        e 398 82 40 2c -2
        e 69 92 3c 49 -1
        e 0 92 40 54 -1
        e 408 82 3c 19 -1
        e 14 82 40 4b -1
        e 62 92 3c 4b
        e 0 92 39 53 1
        e 369 82 39 32 1
        e 50 82 3c 20
        e 59 92 39 49
        e 0 92 3e 53
        e 347 82 39 20
        e 92 82 3e 01
        e 35 92 32 48 -2
        e 2 92 39 54 -2
        e 469 82 39 45 -2
        e 9 92 37 4b -3
        e 2 82 32 2e -2
        e 776 82 37 52 -3
        e 189 92 3c 4d
        e 237 92 3b 4c -1
        e 1 82 3c 2c
        e 242 82 3b 3e -1
        e 0 92 3c 47
        e 236 82 3c 2c
        e 0 92 30 3f -1
        e 237 92 32 45 -3
        e 5 82 30 27 -1
        e 196 82 32 3b -3
        e 34 92 34 48 -5
        e 239 92 36 5d -5
        e 25 82 34 44 -5
        e 205 82 36 4c -5
        e 8 92 37 50 -6
        e 222 82 37 0d -6
        e 15 92 39 50 -6
        e 242 92 36 5f -6
        e 31 82 39 35 -6
        e 209 92 37 50 -6
        e 3 82 36 3c -6
        e 227 82 37 3c -6
        e 12 92 39 59 -5
        e 238 82 39 2b -5
        e 5 92 3e 59 -4
        e 975 82 3e 4f -4
        e 469 92 3b 55 -2
        e 240 92 39 4b -3
        e 9 82 3b 01 -2
        e 231 92 37 45 -2
        e 11 82 39 01 -3
        e 201 82 37 01 -2
        e 24 92 36 5f -4
        e 216 82 36 2b -4
        e 24 92 34 50 -4
        e 349 82 34 43 -4
        e 134 92 30 43 -3
        e 0 92 36 63 -3
        e 432 82 36 1f -3
        e 4 82 30 2d -3
        e 44 92 32 45 -3
        e 2 92 39 57 -2
        e 387 82 39 16 -2
        e 92 92 37 45 -2
        e 748 82 32 4a -3
        e 56 82 37 2a -2
        e 157 92 34 55 -2
        e 478 82 34 3c -2
        e 5 92 3b 41 -1
        e 1 92 36 5b -1
        e 393 82 3b 09 -1
        e 49 82 36 4c -1
        e 38 92 34 5b -1
        e 2 92 3b 4c
        e 376 82 3b 27
        e 64 82 34 45 -1
        e 39 92 3b 51
        e 2 92 34 4f 1
        e 373 82 3b 20
        e 21 82 34 51 1
        e 85 92 39 53
        e 2 92 34 51 1
        e 358 82 39 20
        e 44 82 34 01 1
        e 66 92 33 50 -4
        e 2 92 39 4c -3
        e 365 82 39 38 -3
        e 37 82 33 3c -4
        e 71 92 37 43 -5
        e 2 92 34 41 -5
        e 230 82 37 41 -5
        e 8 92 36 51 -5
        e 192 82 36 4a -5
        e 41 92 37 3f -8
        e 244 92 3b 50 -7
        e 8 82 37 2b -8
        e 201 82 34 01 -5
        e 32 82 3b 36 -7
        e 2 92 36 49 -5
        e 0 92 39 55 -5
        e 244 92 3b 4d -4
        e 8 82 39 02 -5
        e 208 82 36 3e -5
        e 36 92 36 4d 1
        e 4 92 3c 51 2
        e 54 82 3b 41 -4
        e 372 82 3c 42 2
        e 18 82 36 32 1
        e 25 92 37 49 -2
        e 0 92 3b 49 -2
        e 363 82 37 25 -2
        e 119 92 3d 51 -2
        e 1 92 37 47 -1
        e 11 82 3b 42 -2
        e 330 82 37 2a -1
        e 95 82 3d 41 -2
        e 40 92 3e 57 -3
        e 0 92 39 51 -2
        e 449 82 39 01 -2
        e 42 92 37 4f 2
        e 235 92 39 4f
        e 8 82 37 08 2
        e 212 82 39 4a
        e 18 92 3b 51 -1
        e 237 92 2f 4b -2
        e 1 92 37 53 -2
        e 14 82 3b 40 -1
        e 115 82 3e 02 -3
        e 101 82 2f 3e -2
        e 2 82 37 2e -2
        e 4 92 31 5f -4
        e 3 92 39 5d -2
        e 217 82 31 46 -4
        e 12 82 39 1c -2
        e 4 92 32 51 -5
        e 5 92 3b 5d -3
        e 244 92 34 47 -2
        e 0 92 39 53 -2
        e 4 82 3b 49 -3
        e 25 82 32 4a -5
        e 438 82 39 3f -2
        e 8 92 36 57 -3
        e 2 82 34 1f -2
        e 0 92 3b 4b -2
        e 425 82 3b 43 -2
        e 58 92 3b 54 -2
        e 0 92 37 47 -1
        e 13 82 36 49 -3
        e 461 82 37 0f -1
        e 1 82 3b 27 -2
        e 5 92 34 50 -2
        e 0 92 3a 4d -1
        e 343 82 34 21 -2
        e 114 82 3a 26 -1
        e 23 92 34 4f -2
        e 1 92 39 5b -1
        e 379 82 39 21 -1
        e 78 82 34 01 -2
        e 18 92 33 5d -3
        e 1 92 39 51 -3
        e 453 82 39 40 -3
        e 11 82 33 03 -3
        e 18 92 34 45 -2
        e 0 92 3b 54 -2
        e 1963 82 3b 52 -2
        e 118 82 34 5e -2
        E 324 b0 7b 00
        GUID {1ED6CD53-27AA-924E-A2D5-09765F5C11C2}
        IGNTEMPO 0 120 4 4
        SRCCOLOR 474
        VELLANE -1 86 6
        CFGEDITVIEW -1992 18.313253 62 16 0 0 0 0 0 0.5
        KEYSNAP 0
        TRACKSEL 226 0 0 ""
        EVTFILTER 0 -1 -1 -1 -1 0 0 0 0 -1 -1 -1 -1 0 -1 0 -1 -1
        CFGEDIT 1 0 0 0 0 0 1 0 1 1 1 0.25 48 95 1280 778 0 0 2 3 0 0 0 0 0 -1 0 0 0.27 64
      >
      TAKE
      NAME "trombone(s) - National_Anthems_-_Israel.mid"
      TAKEVOLPAN 0 1 -1
      SOFFS 0 0
      PLAYRATE 1 1 0 -1 0 0.0025
      CHANMODE 0
      GUID {38181CA5-9444-4547-90A2-0D8CC812F234}
      <SOURCE MIDI
        HASDATA 1 480 QN
        POOLEDEVTS {01FB60B2-049D-B14C-88E3-06ACD8D00D2F}
        <X 0 0
          /wN0cm9tYm9uZShzKQ==
        >
        <X 0 0
          /wRTb3VuZCBDYW52YXM=
        >
        E 0 92 28 53
        E 468 82 28 2b
        E 5 92 34 34
        E 872 82 34 3c
        E 85 92 34 48
        E 917 82 34 37
        E 50 92 34 50
        E 948 82 34 3e
        E 9 92 32 48
        E 485 92 30 41
        E 8 82 32 49
        E 470 92 36 5f
        E 288 82 30 01
        E 189 92 2f 50
        E 470 82 36 3c
        E 10 92 34 4c
        E 376 82 2f 3d
        E 100 92 2f 59
        E 461 82 34 07
        E 15 92 33 54
        E 484 92 34 50
        E 25 82 2f 4f
        E 6 82 33 52
        E 455 92 28 49
        E 21 82 34 43
        E 434 82 28 51
        E 503 92 3c 4b
        E 471 92 37 41
        E 2 82 3c 33
        E 467 82 37 0f
        E 5 92 38 2c
        E 492 92 39 47
        E 41 82 38 31
        E 428 82 39 01
        E 9 92 36 54
        E 478 92 37 47
        E 12 82 36 1e
        E 959 92 36 4b
        E 44 82 37 08
        E 905 82 36 33
        E 1 92 34 50
        E 748 82 34 40
        E 3 92 32 49
        E 118 82 32 48
        E 103 92 39 54
        E 0 92 30 55
        E 387 82 39 36
        E 49 82 30 27
        E 34 92 2f 4c
        E 2 92 39 50
        E 430 82 39 01
        E 48 82 2f 3c
        E 0 92 34 53
        E 2 92 37 45
        E 831 82 34 26
        E 9 82 37 01
        E 116 92 40 57
        E 2 92 30 51
        E 425 82 40 38
        E 57 92 40 54
        E 15 82 30 45
        E 399 82 40 2c
        E 70 92 40 54
        E 0 92 3c 49
        E 408 82 3c 19
        E 14 82 40 4b
        E 63 92 3c 4b
        E 1 92 39 53
        E 369 82 39 32
        E 49 82 3c 20
        E 59 92 3e 53
        E 0 92 39 49
        E 347 82 39 20
        E 92 82 3e 01
        E 33 92 32 48
        E 2 92 39 54
        E 469 82 39 45
        E 8 92 37 4b
        E 3 82 32 2e
        E 775 82 37 52
        E 192 92 3c 4d
        E 236 92 3b 4c
        E 2 82 3c 2c
        E 241 82 3b 3e
        E 1 92 3c 47
        E 235 92 30 3f
        E 1 82 3c 2c
        E 234 92 32 45
        E 7 82 30 27
        E 194 82 32 3b
        E 32 92 34 48
        E 239 92 36 5d
        E 25 82 34 44
        E 205 82 36 4c
        E 7 92 37 50
        E 222 82 37 0d
        E 15 92 39 50
        E 242 92 36 5f
        E 31 82 39 35
        E 209 92 37 50
        E 3 82 36 3c
        E 227 82 37 3c
        E 13 92 39 59
        E 238 82 39 2b
        E 6 92 3e 59
        E 975 82 3e 4f
        E 471 92 3b 55
        E 239 92 39 4b
        E 10 82 3b 01
        E 231 92 37 45
        E 10 82 39 01
        E 202 82 37 01
        E 22 92 36 5f
        E 216 82 36 2b
        E 24 92 34 50
        E 349 82 34 43
        E 135 92 36 63
        E 0 92 30 43
        E 432 82 36 1f
        E 4 82 30 2d
        E 44 92 32 45
        E 3 92 39 57
        E 387 82 39 16
        E 92 92 37 45
        E 747 82 32 4a
        E 57 82 37 2a
        E 157 92 34 55
        E 478 82 34 3c
        E 6 92 3b 41
        E 1 92 36 5b
        E 393 82 3b 09
        E 49 82 36 4c
        E 38 92 34 5b
        E 3 92 3b 4c
        E 376 82 3b 27
        E 63 82 34 45
        E 40 92 3b 51
        E 3 92 34 4f
        E 372 82 3b 20
        E 22 82 34 51
        E 84 92 39 53
        E 3 92 34 51
        E 357 82 39 20
        E 45 82 34 01
        E 61 92 33 50
        E 3 92 39 4c
        E 365 82 39 38
        E 36 82 33 3c
        E 70 92 37 43
        E 2 92 34 41
        E 230 82 37 41
        E 8 92 36 51
        E 192 82 36 4a
        E 38 92 37 3f
        E 245 92 3b 50
        E 7 82 37 2b
        E 204 82 34 01
        E 30 82 3b 36
        E 4 92 36 49
        E 0 92 39 55
        E 245 92 3b 4d
        E 7 82 39 02
        E 208 82 36 3e
        E 42 92 36 4d
        E 5 92 3c 51
        E 48 82 3b 41
        E 378 82 3c 42
        E 17 82 36 32
        E 22 92 37 49
        E 0 92 3b 49
        E 363 82 37 25
        E 119 92 3d 51
        E 2 92 37 47
        E 10 82 3b 42
        E 331 82 37 2a
        E 94 82 3d 41
        E 39 92 3e 57
        E 1 92 39 51
        E 449 82 39 01
        E 46 92 37 4f
        E 233 92 39 4f
        E 10 82 37 08
        E 210 82 39 4a
        E 17 92 3b 51
        E 236 92 2f 4b
        E 1 92 37 53
        E 15 82 3b 40
        E 113 82 3e 02
        E 102 82 2f 3e
        E 2 82 37 2e
        E 2 92 31 5f
        E 5 92 39 5d
        E 215 82 31 46
        E 14 82 39 1c
        E 1 92 32 51
        E 7 92 3b 5d
        E 245 92 34 47
        E 0 92 39 53
        E 3 82 3b 49
        E 23 82 32 4a
        E 441 82 39 3f
        E 7 92 36 57
        E 3 82 34 1f
        E 0 92 3b 4b
        E 425 82 3b 43
        E 58 92 3b 54
        E 1 92 37 47
        E 11 82 36 49
        E 463 82 3b 27
        E 0 82 37 0f
        E 5 92 34 50
        E 1 92 3a 4d
        E 342 82 34 21
        E 115 82 3a 26
        E 22 92 34 4f
        E 2 92 39 5b
        E 379 82 39 21
        E 77 82 34 01
        E 17 92 33 5d
        E 1 92 39 51
        E 453 82 39 40
        E 11 82 33 03
        E 19 92 3b 54
        E 0 92 34 45
        E 1963 82 3b 52
        E 118 82 34 5e
        E 326 b0 7b 00
        GUID {F8F5028B-534D-514A-9787-9C85B35D74E9}
        IGNTEMPO 0 120 4 4
        SRCCOLOR 13489
        VELLANE -1 86 6
      >
    >
    <ITEM
      POSITION 0
      SNAPOFFS 0
      LENGTH 41.5
      LOOP 1
      ALLTAKES 0
      FADEIN 1 0 0 1 0 0
      FADEOUT 1 0 0 1 0 0
      MUTE 0
      SEL 0
      YPOS 0.083333 0.083333
      IGUID {2D476E03-FC7B-A446-87A9-4B5293DE0A30}
      IID 4
      NAME "tuba(s) - National_Anthems_-_Israel.mid"
      VOLPAN 1 0 1 -1
      SOFFS 0 0
      PLAYRATE 1 1 0 -1 0 0.0025
      CHANMODE 0
      TAKECOLOR 26173599 B
      GUID {B083B86C-4A93-884E-B792-860699E1BEA4}
      <SOURCE MIDI
        HASDATA 1 480 QN
        POOLEDEVTS {AF569627-201A-474A-B2E0-38A867E660A0}
        <X 0 0
          /wN0dWJhKHMp
        >
        <X 0 0
          /wRTb3VuZCBDYW52YXM=
        >
        e 476 93 28 54 -1
        e 875 83 28 2e -1
        e 79 93 28 3f -4
        e 900 83 28 23 -4
        e 66 93 28 50 -1
        e 958 83 28 27 -1
        e 1 93 26 53 -2
        e 468 83 26 01 -2
        e 18 93 24 4c
        e 951 83 24 28
        e 8 93 23 53
        e 855 83 23 2d
        e 98 93 23 45 -3
        e 963 93 28 4d -2
        e 19 83 23 39 -3
        e 461 93 1c 47 -2
        e 10 83 28 24 -2
        e 451 83 1c 4f -2
        e 494 93 30 3d -3
        e 459 83 30 1a -3
        e 15 93 2b 3b -6
        e 483 93 2c 43 -5
        e 2 83 2b 01 -6
        e 459 83 2c 2d -5
        e 20 93 2d 4f -4
        e 479 83 2d 24 -4
        e 2 93 2a 49 -4
        e 481 93 2b 3f -3
        e 5 83 2a 3a -4
        e 969 93 26 51 2
        e 44 83 2b 2f -3
        e 896 83 26 27 2
        e 10 93 28 3f -2
        e 709 83 28 25 -2
        e 9 93 26 51 -2
        e 217 83 26 28 -2
        e 29 93 24 45
        e 469 83 24 1d
        e 11 93 23 45 -1
        e 477 93 28 3b -1
        e 1 83 23 31 -1
        e 736 83 28 3b -1
        e 227 93 24 49
        e 1902 83 24 2c
        e 13 93 2a 51 -2
        e 447 83 2a 21 -2
        e 33 93 26 48 -2
        e 478 93 2b 3f -3
        e 4 83 26 24 -2
        e 940 83 2b 4e -3
        e 738 93 24 5b -2
        e 201 83 24 20 -2
        e 35 93 23 57 -4
        e 208 83 23 43 -4
        e 28 93 24 49 -5
        e 227 83 24 08 -5
        e 6 93 26 54 -7
        e 239 83 26 50 -7
        e 1 93 28 5b -8
        e 218 83 28 21 -8
        e 21 93 2a 68 -8
        e 239 83 2a 33 -8
        e 1 93 26 53 -8
        e 220 83 26 48 -8
        e 17 93 28 49 -9
        e 243 93 2a 5d -8
        e 18 83 28 1b -9
        e 225 93 2b 50 -7
        e 1 83 2a 43 -8
        e 239 93 2a 5b -6
        e 2 83 2b 17 -7
        e 239 93 2b 51 -6
        e 4 83 2a 11 -6
        e 231 83 2b 21 -6
        e 8 93 2d 48 -5
        e 216 83 2d 1b -5
        e 26 93 2f 49 -4
        e 244 93 2d 55 -3
        e 16 83 2f 4f -4
        e 224 93 2b 47 -3
        e 9 83 2d 2d -3
        e 217 83 2b 01 -3
        e 12 93 2a 63 -4
        e 244 93 28 53 -2
        e 15 83 2a 4f -4
        e 223 83 28 22 -2
        e 2 93 26 5f -2
        e 242 93 24 53 -1
        e 17 83 26 01 -2
        e 220 83 24 01 -1
        e 0 93 23 57 -3
        e 218 83 23 38 -3
        e 23 93 21 48 -2
        e 1 93 24 51 -2
        e 281 83 24 4d -2
        e 201 93 1e 54 -1
        e 1 83 21 4a -2
        e 420 83 1e 40 -1
        e 55 93 1f 61 -2
        e 227 83 1f 48 -2
        e 12 93 21 5f -3
        e 221 83 21 39 -3
        e 20 93 23 59 -3
        e 470 83 23 19 -3
        e 11 93 25 5f -2
        e 474 83 25 04 -2
        e 7 93 27 68 -2
        e 483 83 27 3e -2
        e 0 93 28 5d -1
        e 485 83 28 23 -1
        e 1 93 26 5b 1
        e 449 83 26 22 1
        e 31 93 24 5d 2
        e 444 83 24 28 2
        e 32 93 23 61
        e 455 83 23 2b
        e 22 93 24 59 -1
        e 862 83 24 2c -1
        e 90 93 26 57 -4
        e 409 83 26 37 -4
        e 75 93 26 51 -3
        e 486 93 28 59 -1
        e 9 83 26 50 -3
        e 416 83 28 2b -1
        e 59 93 28 51 1
        e 466 83 28 0e 1
        e 11 93 2a 5b
        e 451 83 2a 3e
        e 22 93 28 53 -2
        e 243 93 2a 57 -2
        e 21 83 28 28 -2
        e 218 83 2a 55 -2
        e 1 93 2b 54 -1
        e 189 83 2b 04 -1
        e 50 93 1f 63 -2
        e 208 83 1f 46 -2
        e 30 93 21 59 -2
        e 230 83 21 48 -2
        e 10 93 23 53 -2
        e 244 83 23 01 -2
        e 0 93 25 68 -1
        e 480 93 27 63 -1
        e 8 83 25 16 -1
        e 476 93 28 61
        e 4 83 27 4c -1
        e 232 83 28 38
        e 2 93 26 57
        e 213 83 26 2a
        e 29 93 24 59 1
        e 375 83 24 27 1
        e 103 93 24 51
        e 462 83 24 29
        e 15 93 23 59 -1
        e 489 93 1c 70 2
        e 11 83 23 3c -1
        e 1926 83 1c 53 2
        E 458 b0 7b 00
        GUID {DF9D26BB-DA8E-5046-ABB7-54D78FB46B03}
        IGNTEMPO 0 120 4 4
        SRCCOLOR 475
        VELLANE -1 86 6
        CFGEDITVIEW 9757.785979 50.873974 62 16 0 0 0 0 0 0.5
        KEYSNAP 0
        TRACKSEL 226 0 0 ""
        EVTFILTER 0 -1 -1 -1 -1 0 0 0 0 -1 -1 -1 -1 0 -1 0 -1 -1
        CFGEDIT 1 0 0 0 0 0 1 0 1 1 1 0.25 48 95 1280 778 0 0 2 3 0 0 0 0 0 -1 0 0 0.27 64
      >
      TAKE
      NAME "tuba(s) - National_Anthems_-_Israel.mid"
      TAKEVOLPAN 0 1 -1
      SOFFS 0 0
      PLAYRATE 1 1 0 -1 0 0.0025
      CHANMODE 0
      GUID {30DEDC03-4F9B-4944-B5AA-B06DEEFB74EA}
      <SOURCE MIDI
        HASDATA 1 480 QN
        POOLEDEVTS {80FF4E1E-5DC4-5748-9395-EA12ED45C07D}
        <X 0 0
          /wN0dWJhKHMp
        >
        <X 0 0
          /wRTb3VuZCBDYW52YXM=
        >
        E 475 93 28 54
        E 875 83 28 2e
        E 76 93 28 3f
        E 900 83 28 23
        E 69 93 28 50
        E 958 83 28 27
        E 0 93 26 53
        E 468 83 26 01
        E 20 93 24 4c
        E 951 83 24 28
        E 8 93 23 53
        E 855 83 23 2d
        E 95 93 23 45
        E 964 93 28 4d
        E 18 83 23 39
        E 462 93 1c 47
        E 10 83 28 24
        E 451 83 1c 4f
        E 493 93 30 3d
        E 459 83 30 1a
        E 12 93 2b 3b
        E 484 93 2c 43
        E 1 83 2b 01
        E 460 83 2c 2d
        E 21 93 2d 4f
        E 479 83 2d 24
        E 2 93 2a 49
        E 482 93 2b 3f
        E 4 83 2a 3a
        E 975 93 26 51
        E 39 83 2b 2f
        E 901 83 26 27
        E 6 93 28 3f
        E 709 83 28 25
        E 9 93 26 51
        E 217 83 26 28
        E 31 93 24 45
        E 469 83 24 1d
        E 10 93 23 45
        E 477 93 28 3b
        E 1 83 23 31
        E 736 83 28 3b
        E 228 93 24 49
        E 1902 83 24 2c
        E 11 93 2a 51
        E 447 83 2a 21
        E 33 93 26 48
        E 477 93 2b 3f
        E 5 83 26 24
        E 939 83 2b 4e
        E 739 93 24 5b
        E 201 83 24 20
        E 33 93 23 57
        E 208 83 23 43
        E 27 93 24 49
        E 227 83 24 08
        E 4 93 26 54
        E 239 83 26 50
        E 0 93 28 5b
        E 218 83 28 21
        E 21 93 2a 68
        E 239 83 2a 33
        E 1 93 26 53
        E 220 83 26 48
        E 16 93 28 49
        E 244 93 2a 5d
        E 17 83 28 1b
        E 227 83 2a 43
        E 0 93 2b 50
        E 241 93 2a 5b
        E 1 83 2b 17
        E 240 93 2b 51
        E 4 83 2a 11
        E 231 83 2b 21
        E 9 93 2d 48
        E 216 83 2d 1b
        E 27 93 2f 49
        E 245 93 2d 55
        E 15 83 2f 4f
        E 225 93 2b 47
        E 9 83 2d 2d
        E 217 83 2b 01
        E 11 93 2a 63
        E 246 93 28 53
        E 13 83 2a 4f
        E 225 83 28 22
        E 2 93 26 5f
        E 243 93 24 53
        E 16 83 26 01
        E 219 93 23 57
        E 2 83 24 01
        E 216 83 23 38
        E 24 93 21 48
        E 1 93 24 51
        E 281 83 24 4d
        E 202 83 21 4a
        E 0 93 1e 54
        E 421 83 1e 40
        E 54 93 1f 61
        E 227 83 1f 48
        E 11 93 21 5f
        E 221 83 21 39
        E 20 93 23 59
        E 470 83 23 19
        E 12 93 25 5f
        E 474 83 25 04
        E 7 93 27 68
        E 483 83 27 3e
        E 1 93 28 5d
        E 485 83 28 23
        E 3 93 26 5b
        E 449 83 26 22
        E 32 93 24 5d
        E 444 83 24 28
        E 30 93 23 61
        E 455 83 23 2b
        E 21 93 24 59
        E 862 83 24 2c
        E 87 93 26 57
        E 409 83 26 37
        E 76 93 26 51
        E 488 93 28 59
        E 7 83 26 50
        E 418 83 28 2b
        E 61 93 28 51
        E 466 83 28 0e
        E 10 93 2a 5b
        E 451 83 2a 3e
        E 20 93 28 53
        E 243 93 2a 57
        E 21 83 28 28
        E 218 83 2a 55
        E 2 93 2b 54
        E 189 83 2b 04
        E 49 93 1f 63
        E 208 83 1f 46
        E 30 93 21 59
        E 230 83 21 48
        E 10 93 23 53
        E 244 83 23 01
        E 1 93 25 68
        E 480 93 27 63
        E 8 83 25 16
        E 477 93 28 61
        E 3 83 27 4c
        E 233 83 28 38
        E 2 93 26 57
        E 213 83 26 2a
        E 30 93 24 59
        E 375 83 24 27
        E 102 93 24 51
        E 462 83 24 29
        E 14 93 23 59
        E 492 93 1c 70
        E 8 83 23 3c
        E 1929 83 1c 53
        E 456 b0 7b 00
        GUID {31EB99C7-0758-4F4A-8746-E888BF9AE036}
        IGNTEMPO 0 120 4 4
        SRCCOLOR 13488
        VELLANE -1 86 6
        CFGEDITVIEW 0 0 50 22 0 0 0 0 0 0.5
        KEYSNAP 0
        TRACKSEL 226 0 0 ""
        EVTFILTER 0 -1 -1 -1 -1 0 0 0 0 -1 -1 -1 -1 0 -1 0 -1 -1
        CFGEDIT 1 0 0 0 0 0 1 0 1 1 1 0.25 166 130 1414 829 0 0 2 3 0 0 0 0 0 -1 0 0 1 64
      >
    >
    <ITEM
      POSITION 0
      SNAPOFFS 0
      LENGTH 41.5
      LOOP 1
      ALLTAKES 0
      FADEIN 1 0 0 1 0 0
      FADEOUT 1 0 0 1 0 0
      MUTE 0
      SEL 0
      YPOS 0 0.083333
      IGUID {149394A6-13EF-644D-B8E7-09B715A04730}
      IID 3
      NAME "trombone(s) - National_Anthems_-_Israel.mid"
      VOLPAN 1 0 1 -1
      SOFFS 0 0
      PLAYRATE 1 1 0 -1 0 0.0025
      CHANMODE 0
      TAKECOLOR 26173599 B
      GUID {09577967-E0B3-9249-BEB7-AE864670F93F}
      <SOURCE MIDI
        HASDATA 1 480 QN
        POOLEDEVTS {1771722B-077E-7B42-A395-FDC46008D27F}
        <X 0 0
          /wN0cm9tYm9uZShzKQ==
        >
        <X 0 0
          /wRTb3VuZCBDYW52YXM=
        >
        e 0 92 28 53
        e 468 82 28 2b
        e 7 92 34 34 -2
        e 872 82 34 3c -2
        e 86 92 34 48 -3
        e 917 82 34 37 -3
        e 48 92 34 50 -1
        e 948 82 34 3e -1
        e 10 92 32 48 -2
        e 483 92 30 41
        e 10 82 32 49 -2
        e 469 92 36 5f -1
        e 287 82 30 01
        e 191 92 2f 50 -2
        e 469 82 36 3c -1
        e 11 92 34 4c -2
        e 376 82 2f 3d -2
        e 101 92 2f 59 -3
        e 460 82 34 07 -2
        e 17 92 33 54 -4
        e 483 92 34 50 -3
        e 25 82 2f 4f -3
        e 7 82 33 52 -4
        e 452 92 28 49 -1
        e 23 82 34 43 -3
        e 432 82 28 51 -1
        e 504 92 3c 4b -2
        e 473 82 3c 33 -2
        e 0 92 37 41 -4
        e 469 82 37 0f -4
        e 7 92 38 2c -6
        e 488 92 39 47 -2
        e 45 82 38 31 -6
        e 424 82 39 01 -2
        e 10 92 36 54 -3
        e 479 92 37 47 -4
        e 11 82 36 1e -3
        e 957 92 36 4b -1
        e 47 82 37 08 -4
        e 902 82 36 33 -1
        e 3 92 34 50 -3
        e 743 92 32 49 5
        e 5 82 34 40 -3
        e 113 82 32 48 5
        e 108 92 30 55
        e 0 92 39 54
        e 387 82 39 36
        e 49 82 30 27
        e 37 92 2f 4c -3
        e 1 92 39 50 -2
        e 430 82 39 01 -2
        e 49 82 2f 3c -3
        e 0 92 34 53 -3
        e 1 92 37 45 -2
        e 832 82 34 26 -3
        e 8 82 37 01 -2
        e 117 92 40 57 -3
        e 2 92 30 51 -3
        e 425 82 40 38 -3
        e 56 92 40 54 -2
        e 16 82 30 45 -3
        e 398 82 40 2c -2
        e 69 92 3c 49 -1
        e 0 92 40 54 -1
        e 408 82 3c 19 -1
        e 14 82 40 4b -1
        e 62 92 3c 4b
        e 0 92 39 53 1
        e 369 82 39 32 1
        e 50 82 3c 20
        e 59 92 39 49
        e 0 92 3e 53
        e 347 82 39 20
        e 92 82 3e 01
        e 35 92 32 48 -2
        e 2 92 39 54 -2
        e 469 82 39 45 -2
        e 9 92 37 4b -3
        e 2 82 32 2e -2
        e 776 82 37 52 -3
        e 189 92 3c 4d
        e 237 92 3b 4c -1
        e 1 82 3c 2c
        e 242 82 3b 3e -1
        e 0 92 3c 47
        e 236 82 3c 2c
        e 0 92 30 3f -1
        e 237 92 32 45 -3
        e 5 82 30 27 -1
        e 196 82 32 3b -3
        e 34 92 34 48 -5
        e 239 92 36 5d -5
        e 25 82 34 44 -5
        e 205 82 36 4c -5
        e 8 92 37 50 -6
        e 222 82 37 0d -6
        e 15 92 39 50 -6
        e 242 92 36 5f -6
        e 31 82 39 35 -6
        e 209 92 37 50 -6
        e 3 82 36 3c -6
        e 227 82 37 3c -6
        e 12 92 39 59 -5
        e 238 82 39 2b -5
        e 5 92 3e 59 -4
        e 975 82 3e 4f -4
        e 469 92 3b 55 -2
        e 240 92 39 4b -3
        e 9 82 3b 01 -2
        e 231 92 37 45 -2
        e 11 82 39 01 -3
        e 201 82 37 01 -2
        e 24 92 36 5f -4
        e 216 82 36 2b -4
        e 24 92 34 50 -4
        e 349 82 34 43 -4
        e 134 92 30 43 -3
        e 0 92 36 63 -3
        e 432 82 36 1f -3
        e 4 82 30 2d -3
        e 44 92 32 45 -3
        e 2 92 39 57 -2
        e 387 82 39 16 -2
        e 92 92 37 45 -2
        e 748 82 32 4a -3
        e 56 82 37 2a -2
        e 157 92 34 55 -2
        e 478 82 34 3c -2
        e 5 92 3b 41 -1
        e 1 92 36 5b -1
        e 393 82 3b 09 -1
        e 49 82 36 4c -1
        e 38 92 34 5b -1
        e 2 92 3b 4c
        e 376 82 3b 27
        e 64 82 34 45 -1
        e 39 92 3b 51
        e 2 92 34 4f 1
        e 373 82 3b 20
        e 21 82 34 51 1
        e 85 92 39 53
        e 2 92 34 51 1
        e 358 82 39 20
        e 44 82 34 01 1
        e 66 92 33 50 -4
        e 2 92 39 4c -3
        e 365 82 39 38 -3
        e 37 82 33 3c -4
        e 71 92 37 43 -5
        e 2 92 34 41 -5
        e 230 82 37 41 -5
        e 8 92 36 51 -5
        e 192 82 36 4a -5
        e 41 92 37 3f -8
        e 244 92 3b 50 -7
        e 8 82 37 2b -8
        e 201 82 34 01 -5
        e 32 82 3b 36 -7
        e 2 92 36 49 -5
        e 0 92 39 55 -5
        e 244 92 3b 4d -4
        e 8 82 39 02 -5
        e 208 82 36 3e -5
        e 36 92 36 4d 1
        e 4 92 3c 51 2
        e 54 82 3b 41 -4
        e 372 82 3c 42 2
        e 18 82 36 32 1
        e 25 92 37 49 -2
        e 0 92 3b 49 -2
        e 363 82 37 25 -2
        e 119 92 3d 51 -2
        e 1 92 37 47 -1
        e 11 82 3b 42 -2
        e 330 82 37 2a -1
        e 95 82 3d 41 -2
        e 40 92 3e 57 -3
        e 0 92 39 51 -2
        e 449 82 39 01 -2
        e 42 92 37 4f 2
        e 235 92 39 4f
        e 8 82 37 08 2
        e 212 82 39 4a
        e 18 92 3b 51 -1
        e 237 92 2f 4b -2
        e 1 92 37 53 -2
        e 14 82 3b 40 -1
        e 115 82 3e 02 -3
        e 101 82 2f 3e -2
        e 2 82 37 2e -2
        e 4 92 31 5f -4
        e 3 92 39 5d -2
        e 217 82 31 46 -4
        e 12 82 39 1c -2
        e 4 92 32 51 -5
        e 5 92 3b 5d -3
        e 244 92 34 47 -2
        e 0 92 39 53 -2
        e 4 82 3b 49 -3
        e 25 82 32 4a -5
        e 438 82 39 3f -2
        e 8 92 36 57 -3
        e 2 82 34 1f -2
        e 0 92 3b 4b -2
        e 425 82 3b 43 -2
        e 58 92 3b 54 -2
        e 0 92 37 47 -1
        e 13 82 36 49 -3
        e 461 82 37 0f -1
        e 1 82 3b 27 -2
        e 5 92 34 50 -2
        e 0 92 3a 4d -1
        e 343 82 34 21 -2
        e 114 82 3a 26 -1
        e 23 92 34 4f -2
        e 1 92 39 5b -1
        e 379 82 39 21 -1
        e 78 82 34 01 -2
        e 18 92 33 5d -3
        e 1 92 39 51 -3
        e 453 82 39 40 -3
        e 11 82 33 03 -3
        e 18 92 34 45 -2
        e 0 92 3b 54 -2
        e 1963 82 3b 52 -2
        e 118 82 34 5e -2
        E 324 b0 7b 00
        GUID {1ED6CD53-27AA-924E-A2D5-09765F5C11C2}
        IGNTEMPO 0 120 4 4
        SRCCOLOR 474
        VELLANE -1 86 6
        CFGEDITVIEW -1992 18.313253 62 16 0 0 0 0 0 0.5
        KEYSNAP 0
        TRACKSEL 226 0 0 ""
        EVTFILTER 0 -1 -1 -1 -1 0 0 0 0 -1 -1 -1 -1 0 -1 0 -1 -1
        CFGEDIT 1 0 0 0 0 0 1 0 1 1 1 0.25 48 95 1280 778 0 0 2 3 0 0 0 0 0 -1 0 0 0.27 64
      >
      TAKE
      NAME "trombone(s) - National_Anthems_-_Israel.mid"
      TAKEVOLPAN 0 1 -1
      SOFFS 0 0
      PLAYRATE 1 1 0 -1 0 0.0025
      CHANMODE 0
      GUID {A70BD188-EC54-D743-ADA3-2A4273091946}
      <SOURCE MIDI
        HASDATA 1 480 QN
        POOLEDEVTS {F4A71F8E-D568-954A-A95D-3A9D91615463}
        <X 0 0
          /wN0cm9tYm9uZShzKQ==
        >
        <X 0 0
          /wRTb3VuZCBDYW52YXM=
        >
        E 0 92 28 53
        E 468 82 28 2b
        E 5 92 34 34
        E 872 82 34 3c
        E 85 92 34 48
        E 917 82 34 37
        E 50 92 34 50
        E 948 82 34 3e
        E 9 92 32 48
        E 485 92 30 41
        E 8 82 32 49
        E 470 92 36 5f
        E 288 82 30 01
        E 189 92 2f 50
        E 470 82 36 3c
        E 10 92 34 4c
        E 376 82 2f 3d
        E 100 92 2f 59
        E 461 82 34 07
        E 15 92 33 54
        E 484 92 34 50
        E 25 82 2f 4f
        E 6 82 33 52
        E 455 92 28 49
        E 21 82 34 43
        E 434 82 28 51
        E 503 92 3c 4b
        E 471 92 37 41
        E 2 82 3c 33
        E 467 82 37 0f
        E 5 92 38 2c
        E 492 92 39 47
        E 41 82 38 31
        E 428 82 39 01
        E 9 92 36 54
        E 478 92 37 47
        E 12 82 36 1e
        E 959 92 36 4b
        E 44 82 37 08
        E 905 82 36 33
        E 1 92 34 50
        E 748 82 34 40
        E 3 92 32 49
        E 118 82 32 48
        E 103 92 39 54
        E 0 92 30 55
        E 387 82 39 36
        E 49 82 30 27
        E 34 92 2f 4c
        E 2 92 39 50
        E 430 82 39 01
        E 48 82 2f 3c
        E 0 92 34 53
        E 2 92 37 45
        E 831 82 34 26
        E 9 82 37 01
        E 116 92 40 57
        E 2 92 30 51
        E 425 82 40 38
        E 57 92 40 54
        E 15 82 30 45
        E 399 82 40 2c
        E 70 92 40 54
        E 0 92 3c 49
        E 408 82 3c 19
        E 14 82 40 4b
        E 63 92 3c 4b
        E 1 92 39 53
        E 369 82 39 32
        E 49 82 3c 20
        E 59 92 3e 53
        E 0 92 39 49
        E 347 82 39 20
        E 92 82 3e 01
        E 33 92 32 48
        E 2 92 39 54
        E 469 82 39 45
        E 8 92 37 4b
        E 3 82 32 2e
        E 775 82 37 52
        E 192 92 3c 4d
        E 236 92 3b 4c
        E 2 82 3c 2c
        E 241 82 3b 3e
        E 1 92 3c 47
        E 235 92 30 3f
        E 1 82 3c 2c
        E 234 92 32 45
        E 7 82 30 27
        E 194 82 32 3b
        E 32 92 34 48
        E 239 92 36 5d
        E 25 82 34 44
        E 205 82 36 4c
        E 7 92 37 50
        E 222 82 37 0d
        E 15 92 39 50
        E 242 92 36 5f
        E 31 82 39 35
        E 209 92 37 50
        E 3 82 36 3c
        E 227 82 37 3c
        E 13 92 39 59
        E 238 82 39 2b
        E 6 92 3e 59
        E 975 82 3e 4f
        E 471 92 3b 55
        E 239 92 39 4b
        E 10 82 3b 01
        E 231 92 37 45
        E 10 82 39 01
        E 202 82 37 01
        E 22 92 36 5f
        E 216 82 36 2b
        E 24 92 34 50
        E 349 82 34 43
        E 135 92 36 63
        E 0 92 30 43
        E 432 82 36 1f
        E 4 82 30 2d
        E 44 92 32 45
        E 3 92 39 57
        E 387 82 39 16
        E 92 92 37 45
        E 747 82 32 4a
        E 57 82 37 2a
        E 157 92 34 55
        E 478 82 34 3c
        E 6 92 3b 41
        E 1 92 36 5b
        E 393 82 3b 09
        E 49 82 36 4c
        E 38 92 34 5b
        E 3 92 3b 4c
        E 376 82 3b 27
        E 63 82 34 45
        E 40 92 3b 51
        E 3 92 34 4f
        E 372 82 3b 20
        E 22 82 34 51
        E 84 92 39 53
        E 3 92 34 51
        E 357 82 39 20
        E 45 82 34 01
        E 61 92 33 50
        E 3 92 39 4c
        E 365 82 39 38
        E 36 82 33 3c
        E 70 92 37 43
        E 2 92 34 41
        E 230 82 37 41
        E 8 92 36 51
        E 192 82 36 4a
        E 38 92 37 3f
        E 245 92 3b 50
        E 7 82 37 2b
        E 204 82 34 01
        E 30 82 3b 36
        E 4 92 36 49
        E 0 92 39 55
        E 245 92 3b 4d
        E 7 82 39 02
        E 208 82 36 3e
        E 42 92 36 4d
        E 5 92 3c 51
        E 48 82 3b 41
        E 378 82 3c 42
        E 17 82 36 32
        E 22 92 37 49
        E 0 92 3b 49
        E 363 82 37 25
        E 119 92 3d 51
        E 2 92 37 47
        E 10 82 3b 42
        E 331 82 37 2a
        E 94 82 3d 41
        E 39 92 3e 57
        E 1 92 39 51
        E 449 82 39 01
        E 46 92 37 4f
        E 233 92 39 4f
        E 10 82 37 08
        E 210 82 39 4a
        E 17 92 3b 51
        E 236 92 2f 4b
        E 1 92 37 53
        E 15 82 3b 40
        E 113 82 3e 02
        E 102 82 2f 3e
        E 2 82 37 2e
        E 2 92 31 5f
        E 5 92 39 5d
        E 215 82 31 46
        E 14 82 39 1c
        E 1 92 32 51
        E 7 92 3b 5d
        E 245 92 34 47
        E 0 92 39 53
        E 3 82 3b 49
        E 23 82 32 4a
        E 441 82 39 3f
        E 7 92 36 57
        E 3 82 34 1f
        E 0 92 3b 4b
        E 425 82 3b 43
        E 58 92 3b 54
        E 1 92 37 47
        E 11 82 36 49
        E 463 82 3b 27
        E 0 82 37 0f
        E 5 92 34 50
        E 1 92 3a 4d
        E 342 82 34 21
        E 115 82 3a 26
        E 22 92 34 4f
        E 2 92 39 5b
        E 379 82 39 21
        E 77 82 34 01
        E 17 92 33 5d
        E 1 92 39 51
        E 453 82 39 40
        E 11 82 33 03
        E 19 92 3b 54
        E 0 92 34 45
        E 1963 82 3b 52
        E 118 82 34 5e
        E 326 b0 7b 00
        GUID {F8F5028B-534D-514A-9787-9C85B35D74E9}
        IGNTEMPO 0 120 4 4
        SRCCOLOR 13489
        VELLANE -1 86 6
      >
    >
    <ITEM
      POSITION 0
      SNAPOFFS 0
      LENGTH 41
      LOOP 1
      ALLTAKES 0
      FADEIN 1 0 0 1 0 0
      FADEOUT 1 0 0 1 0 0
      MUTE 0
      SEL 0
      YPOS 0.666667 0.083333
      IGUID {498B3677-A312-1E45-9708-F20358508957}
      IID 1
      NAME "trumpet(s) - National_Anthems_-_Israel.mid"
      VOLPAN 1 0 1 -1
      SOFFS 0 0
      PLAYRATE 1 1 0 -1 0 0.0025
      CHANMODE 0
      TAKECOLOR 26173599 B
      GUID {7BC78F73-1B65-DD40-B03A-4F9A58ED5CB2}
      <SOURCE MIDI
        HASDATA 1 480 QN
        POOLEDEVTS {9178FF5A-EFD6-2A48-9A0B-BAED2BA8C512}
        <X 0 0
          /wN0cnVtcGV0KHMp
        >
        <X 0 0
          /wRTb3VuZCBDYW52YXM=
        >
        e 0 90 40 5c
        e 237 90 42 74 -1
        e 2 80 40 3f
        e 236 80 42 32 -1
        e 1 90 43 6f -1
        e 196 80 43 31 -1
        e 43 90 45 61 -2
        e 130 80 45 23 -2
        e 111 90 47 67 -1
        e 383 80 47 23 -1
        e 93 90 47 6b -3
        e 387 80 47 61 -3
        e 98 90 48 5f -1
        e 232 80 48 46 -1
        e 7 90 47 63 -1
        e 117 80 47 2d -1
        e 123 90 48 5b -2
        e 238 90 4c 5f -2
        e 22 80 48 3c -2
        e 92 80 4c 30 -2
        e 127 90 47 5d -2
        e 837 80 47 42 -2
        e 124 90 45 67 -1
        e 416 80 45 39 -1
        e 61 90 45 6d -2
        e 149 80 45 34 -2
        e 91 90 45 69 -2
        e 164 80 45 23 -2
        e 74 90 43 74 -4
        e 411 80 43 2e -4
        e 69 90 43 6d -3
        e 396 80 43 28 -3
        e 86 90 42 71 -3
        e 225 80 42 3b -3
        e 13 90 40 58 -4
        e 166 80 40 20 -4
        e 75 90 42 71 -3
        e 240 90 43 6f -3
        e 10 80 42 3c -3
        e 148 80 43 34 -3
        e 83 90 40 6d -3
        e 587 80 40 4c -3
        e 137 90 3b 5f -1
        e 174 80 3b 1f -1
        e 61 90 40 6d -3
        e 233 80 40 28 -3
        e 7 90 42 6f -3
        e 199 80 42 39 -3
        e 64 90 43 67 5
        e 210 90 45 69 -6
        e 26 80 43 23 5
        e 145 80 45 09 -6
        e 71 90 47 60 -5
        e 442 80 47 49 -5
        e 42 90 47 61 -4
        e 432 80 47 2a -4
        e 50 90 48 63 -3
        e 222 80 48 4a -3
        e 14 90 47 5d -4
        e 185 80 47 2d -4
        e 55 90 48 5d -4
        e 237 80 48 3e -4
        e 1 90 4c 60 -5
        e 148 80 4c 44 -5
        e 93 90 47 65 -4
        e 830 80 47 3a -4
        e 136 90 45 6d -2
        e 421 80 45 39 -2
        e 61 90 45 6d -1
        e 146 80 45 3f -1
        e 93 90 45 6b -2
        e 162 80 45 2a -2
        e 78 90 43 71 -2
        e 407 80 43 35 -2
        e 74 90 43 74 -1
        e 425 80 43 36 -1
        e 60 90 42 74 1
        e 211 80 42 3e 1
        e 25 90 40 61 -1
        e 189 80 40 2e -1
        e 52 90 42 71 -1
        e 223 80 42 01 -1
        e 12 90 43 71 -2
        e 137 80 43 34 -2
        e 107 90 40 60 -1
        e 812 80 40 27 -1
        e 152 90 40 6d 1
        e 412 80 40 0c 1
        e 66 90 4c 71 -1
        e 382 80 4c 20 -1
        e 101 90 4c 67 1
        e 353 80 4c 42 1
        e 122 90 4c 6d -1
        e 374 80 4c 2c -1
        e 107 90 4a 67 -1
        e 224 80 4a 32 -1
        e 14 90 4c 5b -1
        e 143 80 4c 39 -1
        e 97 90 4a 65 -1
        e 220 80 4a 35 -1
        e 20 90 48 58 -2
        e 141 80 48 28 -2
        e 99 90 47 63 -1
        e 958 80 47 09 -1
        e 10 90 40 59 1
        e 454 80 40 22 1
        e 15 90 4c 6b -3
        e 357 80 4c 2b -3
        e 123 90 4c 65 -3
        e 364 80 4c 25 -3
        e 114 90 4c 65 -3
        e 395 80 4c 39 -3
        e 86 90 4a 60 -3
        e 217 80 4a 24 -3
        e 24 90 4c 60 -2
        e 160 80 4c 2e -2
        e 80 90 4a 63 -2
        e 209 80 4a 36 -2
        e 30 90 48 61 -3
        e 132 80 48 1c -3
        e 107 90 47 69 -4
        e 828 80 47 38 -4
        e 139 90 4a 6f -1
        e 358 80 4a 16 -1
        e 120 90 4a 6f -2
        e 166 80 4a 46 -2
        e 76 90 4a 67 -1
        e 179 80 4a 3c -1
        e 59 90 43 74 -2
        e 391 80 43 35 -2
        e 88 90 43 71 -2
        e 399 80 43 2c -2
        e 84 90 45 6f -1
        e 238 90 47 69 -2
        e 2 80 45 01 -1
        e 169 80 47 17 -2
        e 69 90 48 60 -1
        e 220 80 48 44 -1
        e 16 90 4a 60 -3
        e 149 80 4a 2a -3
        e 92 90 47 65 -2
        e 390 80 47 17 -2
        e 94 90 45 69 -1
        e 219 80 45 3a -1
        e 18 90 43 67 -2
        e 161 80 43 2c -2
        e 81 90 45 65 -2
        e 386 80 45 29 -2
        e 96 90 45 63 -1
        e 407 80 45 0d -1
        e 69 90 43 71 -2
        e 404 80 43 3f -2
        e 76 90 43 71 -2
        e 256 80 43 2e -2
        e 103 90 43 69 -2
        e 120 90 42 69 -2
        e 4 80 43 35 -2
        e 220 80 42 47 -2
        e 14 90 40 60 -4
        e 207 80 40 2a -4
        e 33 90 42 6f -4
        e 218 80 42 2e -4
        e 18 90 43 6b -5
        e 223 80 43 1c -5
        e 24 90 40 69 -2
        e 847 80 40 1a -2
        e 122 90 45 6d 1
        e 388 80 45 33 1
        e 88 90 45 67 -1
        e 150 80 45 34 -1
        e 87 90 45 65 -2
        e 141 80 45 25 -2
        e 99 90 43 71 -2
        e 384 80 43 3c -2
        e 93 90 43 6f -2
        e 387 80 43 4c -2
        e 100 90 45 69
        e 236 80 45 1b
        e 0 90 47 67 -1
        e 165 80 47 35 -1
        e 77 90 48 63 -1
        e 222 80 48 31 -1
        e 16 90 4a 6d -1
        e 122 80 4a 1d -1
        e 118 90 47 59 -2
        e 472 80 47 1f -2
        e 9 90 45 65 -1
        e 217 80 45 3d -1
        e 22 90 43 74 -2
        e 125 80 43 51 -2
        e 123 90 45 74 2
        e 382 80 45 34 2
        e 90 90 45 69 -1
        e 130 80 45 3e -1
        e 113 90 45 69 -1
        e 154 80 45 1c -1
        e 83 90 43 6f -1
        e 383 80 43 3a -1
        e 92 90 43 6d -3
        e 245 80 43 27 -3
        e 119 90 43 6d -2
        e 117 90 42 6f -3
        e 1 80 43 40 -2
        e 214 80 42 34 -3
        e 23 90 40 61 -4
        e 176 80 40 2f -4
        e 65 90 42 74 -3
        e 233 80 42 2b -3
        e 7 90 43 77 -3
        e 150 80 43 30 -3
        e 95 90 40 69 -2
        e 1924 80 40 65 -1
        E 0 b0 7b 00
        GUID {D9AB79C0-9436-CE4E-95CA-47261285F2CC}
        IGNTEMPO 0 120 4 4
        SRCCOLOR 472
        VELLANE -1 86 6
        CFGEDITVIEW -1968 18.891353 62 16 0 0 0 0 0 0.5
        KEYSNAP 0
        TRACKSEL 226 1 0 ""
        EVTFILTER 0 -1 -1 -1 -1 0 0 0 0 -1 -1 -1 -1 0 -1 0 -1 -1
        CFGEDIT 1 0 0 0 0 0 1 0 1 1 1 0.25 48 95 1280 778 0 0 2 3 0 0 0 0 0 -1 0 0 0.27 64
      >
      TAKE
      NAME "trumpet(s) - National_Anthems_-_Israel.mid"
      TAKEVOLPAN 0 1 -1
      SOFFS 0 0
      PLAYRATE 1 1 0 -1 0 0.0025
      CHANMODE 0
      GUID {70E0A844-95D5-994F-AABD-51618E4B488B}
      <SOURCE MIDI
        HASDATA 1 480 QN
        POOLEDEVTS {22A9EBCC-683B-8A42-8566-DA1569B92FBA}
        <X 0 0
          /wN0cnVtcGV0KHMp
        >
        <X 0 0
          /wRTb3VuZCBDYW52YXM=
        >
        e 0 90 40 5c
        e 236 90 42 74
        e 3 80 40 3f
        e 235 80 42 32
        e 1 90 43 6f
        e 196 80 43 31
        e 42 90 45 61
        e 130 80 45 23
        e 112 90 47 67
        e 383 80 47 23
        e 91 90 47 6b
        e 387 80 47 61
        e 100 90 48 5f
        e 232 80 48 46
        e 7 90 47 63
        e 117 80 47 2d
        e 122 90 48 5b
        e 238 90 4c 5f
        e 22 80 48 3c
        e 92 80 4c 30
        e 127 90 47 5d
        e 837 80 47 42
        e 125 90 45 67
        e 416 80 45 39
        e 60 90 45 6d
        e 149 80 45 34
        e 91 90 45 69
        e 164 80 45 23
        e 72 90 43 74
        e 411 80 43 2e
        e 70 90 43 6d
        e 396 80 43 28
        e 86 90 42 71
        e 225 80 42 3b
        e 12 90 40 58
        e 166 80 40 20
        e 76 90 42 71
        e 240 90 43 6f
        e 10 80 42 3c
        e 148 80 43 34
        e 83 90 40 6d
        e 587 80 40 4c
        e 139 90 3b 5f
        e 174 80 3b 1f
        e 59 90 40 6d
        e 233 80 40 28
        e 7 90 42 6f
        e 199 80 42 39
        e 72 90 43 67
        e 199 90 45 69
        e 37 80 43 23
        e 134 80 45 09
        e 72 90 47 60
        e 442 80 47 49
        e 43 90 47 61
        e 432 80 47 2a
        e 51 90 48 63
        e 222 80 48 4a
        e 13 90 47 5d
        e 185 80 47 2d
        e 55 90 48 5d
        e 237 80 48 3e
        e 0 90 4c 60
        e 148 80 4c 44
        e 94 90 47 65
        e 830 80 47 3a
        e 138 90 45 6d
        e 421 80 45 39
        e 62 90 45 6d
        e 146 80 45 3f
        e 92 90 45 6b
        e 162 80 45 2a
        e 78 90 43 71
        e 407 80 43 35
        e 75 90 43 74
        e 425 80 43 36
        e 62 90 42 74
        e 211 80 42 3e
        e 23 90 40 61
        e 189 80 40 2e
        e 52 90 42 71
        e 223 80 42 01
        e 11 90 43 71
        e 137 80 43 34
        e 108 90 40 60
        e 812 80 40 27
        e 154 90 40 6d
        e 412 80 40 0c
        e 64 90 4c 71
        e 382 80 4c 20
        e 103 90 4c 67
        e 353 80 4c 42
        e 120 90 4c 6d
        e 374 80 4c 2c
        e 107 90 4a 67
        e 224 80 4a 32
        e 14 90 4c 5b
        e 143 80 4c 39
        e 97 90 4a 65
        e 220 80 4a 35
        e 19 90 48 58
        e 141 80 48 28
        e 100 90 47 63
        e 958 80 47 09
        e 12 90 40 59
        e 454 80 40 22
        e 11 90 4c 6b
        e 357 80 4c 2b
        e 123 90 4c 65
        e 364 80 4c 25
        e 114 90 4c 65
        e 395 80 4c 39
        e 86 90 4a 60
        e 217 80 4a 24
        e 25 90 4c 60
        e 160 80 4c 2e
        e 80 90 4a 63
        e 209 80 4a 36
        e 29 90 48 61
        e 132 80 48 1c
        e 106 90 47 69
        e 828 80 47 38
        e 142 90 4a 6f
        e 358 80 4a 16
        e 119 90 4a 6f
        e 166 80 4a 46
        e 77 90 4a 67
        e 179 80 4a 3c
        e 58 90 43 74
        e 391 80 43 35
        e 88 90 43 71
        e 399 80 43 2c
        e 85 90 45 6f
        e 237 90 47 69
        e 3 80 45 01
        e 168 80 47 17
        e 70 90 48 60
        e 220 80 48 44
        e 14 90 4a 60
        e 149 80 4a 2a
        e 93 90 47 65
        e 390 80 47 17
        e 95 90 45 69
        e 219 80 45 3a
        e 17 90 43 67
        e 161 80 43 2c
        e 81 90 45 65
        e 386 80 45 29
        e 97 90 45 63
        e 407 80 45 0d
        e 68 90 43 71
        e 404 80 43 3f
        e 76 90 43 71
        e 256 80 43 2e
        e 103 90 43 69
        e 120 90 42 69
        e 4 80 43 35
        e 220 80 42 47
        e 12 90 40 60
        e 207 80 40 2a
        e 33 90 42 6f
        e 218 80 42 2e
        e 17 90 43 6b
        e 223 80 43 1c
        e 27 90 40 69
        e 847 80 40 1a
        e 125 90 45 6d
        e 388 80 45 33
        e 86 90 45 67
        e 150 80 45 34
        e 86 90 45 65
        e 141 80 45 25
        e 99 90 43 71
        e 384 80 43 3c
        e 93 90 43 6f
        e 387 80 43 4c
        e 102 90 45 69
        e 235 90 47 67
        e 1 80 45 1b
        e 164 80 47 35
        e 77 90 48 63
        e 222 80 48 31
        e 16 90 4a 6d
        e 122 80 4a 1d
        e 117 90 47 59
        e 472 80 47 1f
        e 10 90 45 65
        e 217 80 45 3d
        e 21 90 43 74
        e 125 80 43 51
        e 127 90 45 74
        e 382 80 45 34
        e 87 90 45 69
        e 130 80 45 3e
        e 113 90 45 69
        e 154 80 45 1c
        e 83 90 43 6f
        e 383 80 43 3a
        e 90 90 43 6d
        e 245 80 43 27
        e 120 90 43 6d
        e 116 90 42 6f
        e 2 80 43 40
        e 213 80 42 34
        e 22 90 40 61
        e 176 80 40 2f
        e 66 90 42 74
        e 233 80 42 2b
        e 7 90 43 77
        e 150 80 43 30
        e 96 90 40 69
        e 1925 80 40 65
        E 1 b0 7b 00
        GUID {D956EC1E-285C-4C47-92D1-3F456EC7F884}
        IGNTEMPO 0 120 4 4
        SRCCOLOR 13490
        VELLANE -1 86 6
        CFGEDITVIEW 0 0 50 22 0 0 0 0 0 0.5
        KEYSNAP 0
        TRACKSEL 226 0 0 ""
        EVTFILTER 0 -1 -1 -1 -1 0 0 0 0 -1 -1 -1 -1 0 -1 0 -1 -1
        CFGEDIT 1 0 0 0 0 0 1 0 1 1 1 0.25 166 130 1414 829 0 0 2 3 0 0 0 0 0 -1 0 0 1 64
      >
    >
    <ITEM
      POSITION 0
      SNAPOFFS 0
      LENGTH 41
      LOOP 1
      ALLTAKES 0
      FADEIN 1 0 0 1 0 0
      FADEOUT 1 0 0 1 0 0
      MUTE 0
      SEL 0
      YPOS 0.75 0.083333
      IGUID {DE96946C-CA72-1C46-86D6-0109748745AD}
      IID 2
      NAME "fr. horn(s) - National_Anthems_-_Israel.mid"
      VOLPAN 1 0 1 -1
      SOFFS 0 0
      PLAYRATE 1 1 0 -1 0 0.0025
      CHANMODE 0
      TAKECOLOR 26173599 B
      GUID {D9A67993-1D35-B640-9301-54A94D68C966}
      <SOURCE MIDI
        HASDATA 1 480 QN
        POOLEDEVTS {7AC20A3D-6484-304D-AD74-37174A1E9A42}
        <X 0 0
          /wNmci4gaG9ybihzKQ==
        >
        <X 0 0
          /wRTb3VuZCBDYW52YXM=
        >
        e 474 91 34 4b -2
        e 237 91 36 56 -3
        e 12 81 34 30 -2
        e 188 81 36 27 -3
        e 36 91 37 3a -5
        e 966 91 39 4b -2
        e 20 81 37 10 -5
        e 939 91 3b 3a -3
        e 3 81 39 10 -2
        e 961 91 37 4b -2
        e 13 81 3b 01 -3
        e 458 81 37 01 -2
        e 2 91 39 51 -4
        e 479 91 3b 4f -5
        e 6 81 39 29 -4
        e 954 91 39 47 -4
        e 21 81 3b 18 -5
        e 942 91 37 4e -4
        e 22 81 39 06 -4
        e 856 81 37 47 -4
        e 561 91 40 4f -4
        e 466 81 40 28 -4
        e 7 91 3e 59 -6
        e 482 91 41 56 -5
        e 28 81 3e 04 -6
        e 458 91 40 4d -3
        e 22 81 41 35 -5
        e 1419 91 3e 4d -3
        e 16 81 40 11 -3
        e 937 81 3e 27 -3
        e 4 91 3c 45 -4
        e 957 81 3c 20 -4
        e 5 91 3b 4f -4
        e 486 91 39 4d -1
        e 12 81 3b 2d -4
        e 386 81 39 39 -1
        e 77 91 39 49 -3
        e 479 91 37 4d -4
        e 5 81 39 17 -3
        e 973 81 37 4a -4
        e 470 91 43 49 -1
        e 385 81 43 40 -1
        e 93 91 43 4b -1
        e 477 91 40 53 -2
        e 5 81 43 25 -1
        e 479 91 45 4e -1
        e 20 81 40 1c -2
        e 440 81 45 3d -1
        e 14 91 42 5d -3
        e 464 81 42 13 -3
        e 17 91 43 5b -3
        e 240 91 42 63 -3
        e 14 81 43 43 -3
        e 210 81 42 33 -3
        e 14 91 40 5a -4
        e 232 81 40 39 -4
        e 8 91 3e 52 -4
        e 243 81 3e 35 -4
        e 6 91 40 57
        e 473 91 4c 51 -2
        e 40 81 40 01
        e 370 81 4c 49 -2
        e 66 91 4c 55 -4
        e 407 81 4c 47 -4
        e 74 91 4c 56 -4
        e 347 81 4c 31 -4
        e 132 91 45 4f -4
        e 0 91 4a 51 -4
        e 241 81 4a 3d -4
        e 1 91 4c 3f -3
        e 228 81 4c 42 -3
        e 8 91 4a 55 -5
        e 242 91 48 52 -4
        e 6 81 4a 4b -5
        e 167 81 45 43 -4
        e 49 81 48 3f -4
        e 22 91 47 57 -3
        e 1 91 43 45 -2
        e 803 81 43 23 -2
        e 125 81 47 27 -3
        e 31 91 43 57 -2
        e 0 91 4a 4f -2
        e 402 81 4a 3b -2
        e 81 91 4a 5a -2
        e 150 81 4a 3f -2
        e 85 91 4a 4e -4
        e 160 81 43 25 -2
        e 84 91 43 59 -2
        e 29 81 4a 1a -4
        e 368 81 43 3a -2
        e 85 91 43 55 -1
        e 379 81 43 45 -1
        e 103 91 45 5b -1
        e 234 81 45 2b -1
        e 0 91 47 5a -2
        e 239 91 48 51 -3
        e 9 81 47 01 -2
        e 231 91 4a 47 -3
        e 7 81 48 36 -3
        e 236 91 47 5f -2
        e 8 81 4a 4a -3
        e 446 81 47 43 -2
        e 25 91 45 4e -2
        e 225 81 45 46 -2
        e 13 91 43 5d -3
        e 228 81 43 2a -3
        e 14 91 40 4f -2
        e 2 91 45 53 -1
        e 393 81 45 39 -1
        e 85 91 45 4e -2
        e 486 91 43 51
        e 1 81 45 3f -2
        e 368 81 43 3e
        e 104 91 43 5b -2
        e 201 81 43 2d -2
        e 71 91 43 55 9
        e 127 81 43 3b 9
        e 36 81 40 26 -2
        e 49 91 42 56 -1
        e 235 91 40 52 -3
        e 6 81 42 20 -1
        e 233 91 42 5d -3
        e 24 81 40 2d -3
        e 216 91 43 5a -4
        e 2 81 42 34 -3
        e 228 81 43 46 -4
        e 10 91 40 53 -3
        e 839 81 40 35 -3
        e 146 91 39 55 6
        e 203 81 39 30 6
        e 24 91 3b 4e 1
        e 228 81 3b 01 1
        e 13 91 3c 4f 1
        e 449 81 3c 41 1
        e 22 91 3b 59 -2
        e 478 91 3d 5a -3
        e 2 81 3b 17 -2
        e 462 81 3d 37 -3
        e 16 91 3e 59 -3
        e 905 81 3e 3e -3
        e 57 91 3e 4d -2
        e 893 81 3e 01 -2
        e 79 91 39 55 3
        e 476 91 3b 57 1
        e 8 81 39 11 3
        e 914 81 3b 01 1
        e 31 91 3a 53 -2
        e 455 81 3a 39 -2
        e 22 91 39 52 -3
        e 404 81 39 38 -3
        e 77 91 3b 57 -2
        e 483 91 3b 00 -1
        e 0 91 3b 5b -1
        e 13 81 3b 37 -1
        E 1910 b0 7b 00
        GUID {1A15F516-AE8D-5E4C-9290-FC9BC64570F8}
        IGNTEMPO 0 120 4 4
        SRCCOLOR 473
        VELLANE -1 86 6
        CFGEDITVIEW 7142.581956 38.165981 62 16 0 0 0 0 0 0.5
        KEYSNAP 0
        TRACKSEL 226 1 0 ""
        EVTFILTER 0 -1 -1 -1 -1 0 0 0 0 -1 -1 -1 -1 0 -1 0 -1 -1
        CFGEDIT 1 0 0 0 0 0 1 0 1 1 1 0.25 48 95 1280 778 0 0 2 3 0 0 0 0 0 -1 0 0 0.27 64
      >
      TAKE
      NAME "fr. horn(s) - National_Anthems_-_Israel.mid"
      TAKEVOLPAN 0 1 -1
      SOFFS 0 0
      PLAYRATE 1 1 0 -1 0 0.0025
      CHANMODE 0
      GUID {48FCB200-4826-C948-928A-BB9DC81244D8}
      <SOURCE MIDI
        HASDATA 1 480 QN
        POOLEDEVTS {C746D941-4B22-1144-8816-014E825D0DBB}
        <X 0 0
          /wNmci4gaG9ybihzKQ==
        >
        <X 0 0
          /wRTb3VuZCBDYW52YXM=
        >
        E 472 91 34 4b
        E 236 91 36 56
        E 13 81 34 30
        E 187 81 36 27
        E 34 91 37 3a
        E 969 91 39 4b
        E 17 81 37 10
        E 941 91 3b 3a
        E 4 81 39 10
        E 961 91 37 4b
        E 12 81 3b 01
        E 459 81 37 01
        E 0 91 39 51
        E 478 91 3b 4f
        E 7 81 39 29
        E 954 91 39 47
        E 20 81 3b 18
        E 943 91 37 4e
        E 22 81 39 06
        E 856 81 37 47
        E 561 91 40 4f
        E 466 81 40 28
        E 5 91 3e 59
        E 483 91 41 56
        E 27 81 3e 04
        E 461 91 40 4d
        E 20 81 41 35
        E 1421 91 3e 4d
        E 16 81 40 11
        E 937 81 3e 27
        E 3 91 3c 45
        E 957 81 3c 20
        E 5 91 3b 4f
        E 489 91 39 4d
        E 9 81 3b 2d
        E 389 81 39 39
        E 75 91 39 49
        E 478 91 37 4d
        E 6 81 39 17
        E 972 81 37 4a
        E 473 91 43 49
        E 385 81 43 40
        E 93 91 43 4b
        E 476 91 40 53
        E 6 81 43 25
        E 479 91 45 4e
        E 19 81 40 1c
        E 441 81 45 3d
        E 12 91 42 5d
        E 464 81 42 13
        E 17 91 43 5b
        E 240 91 42 63
        E 14 81 43 43
        E 210 81 42 33
        E 13 91 40 5a
        E 232 81 40 39
        E 8 91 3e 52
        E 243 81 3e 35
        E 10 91 40 57
        E 471 91 4c 51
        E 42 81 40 01
        E 368 81 4c 49
        E 64 91 4c 55
        E 407 81 4c 47
        E 74 91 4c 56
        E 347 81 4c 31
        E 132 91 45 4f
        E 0 91 4a 51
        E 241 81 4a 3d
        E 2 91 4c 3f
        E 228 81 4c 42
        E 6 91 4a 55
        E 243 91 48 52
        E 5 81 4a 4b
        E 168 81 45 43
        E 49 81 48 3f
        E 23 91 47 57
        E 2 91 43 45
        E 803 81 43 23
        E 124 81 47 27
        E 32 91 4a 4f
        E 0 91 43 57
        E 402 81 4a 3b
        E 81 91 4a 5a
        E 150 81 4a 3f
        E 83 91 4a 4e
        E 162 81 43 25
        E 84 91 43 59
        E 27 81 4a 1a
        E 370 81 43 3a
        E 86 91 43 55
        E 379 81 43 45
        E 103 91 45 5b
        E 233 91 47 5a
        E 1 81 45 2b
        E 237 91 48 51
        E 10 81 47 01
        E 230 91 4a 47
        E 7 81 48 36
        E 237 91 47 5f
        E 7 81 4a 4a
        E 447 81 47 43
        E 25 91 45 4e
        E 225 81 45 46
        E 12 91 43 5d
        E 228 81 43 2a
        E 15 91 40 4f
        E 3 91 45 53
        E 393 81 45 39
        E 84 91 45 4e
        E 487 81 45 3f
        E 1 91 43 51
        E 369 81 43 3e
        E 102 91 43 5b
        E 201 81 43 2d
        E 82 91 43 55
        E 127 81 43 3b
        E 25 81 40 26
        E 50 91 42 56
        E 233 91 40 52
        E 8 81 42 20
        E 231 91 42 5d
        E 24 81 40 2d
        E 215 91 43 5a
        E 3 81 42 34
        E 227 81 43 46
        E 11 91 40 53
        E 839 81 40 35
        E 155 91 39 55
        E 203 81 39 30
        E 19 91 3b 4e
        E 228 81 3b 01
        E 13 91 3c 4f
        E 449 81 3c 41
        E 19 91 3b 59
        E 477 91 3d 5a
        E 3 81 3b 17
        E 461 81 3d 37
        E 16 91 3e 59
        E 905 81 3e 3e
        E 58 91 3e 4d
        E 893 81 3e 01
        E 84 91 39 55
        E 474 91 3b 57
        E 10 81 39 11
        E 912 81 3b 01
        E 28 91 3a 53
        E 455 81 3a 39
        E 21 91 39 52
        E 404 81 39 38
        E 78 91 3b 57
        E 484 91 3b 5b
        E 13 81 3b 37
        E 1659 81 3b 5c
        E 252 b0 7b 00
        GUID {6912AD15-410F-4344-851B-B5065FBDB0D8}
        IGNTEMPO 0 120 4 4
        SRCCOLOR 13491
        VELLANE -1 86 6
        CFGEDITVIEW 0 0 50 22 0 0 0 0 0 0.5
        KEYSNAP 0
        TRACKSEL 226 0 0 ""
        EVTFILTER 0 -1 -1 -1 -1 0 0 0 0 -1 -1 -1 -1 0 -1 0 -1 -1
        CFGEDIT 1 0 0 0 0 0 1 0 1 1 1 0.25 166 130 1414 829 0 0 2 3 0 0 0 0 0 -1 0 0 1 64
      >
    >
    <ITEM
      POSITION 0
      SNAPOFFS 0
      LENGTH 41
      LOOP 1
      ALLTAKES 0
      FADEIN 1 0 0 1 0 0
      FADEOUT 1 0 0 1 0 0
      MUTE 0
      SEL 0
      YPOS 0.666667 0.083333
      IGUID {EA7D54B9-1A84-DE4B-AFE3-6E54B7DC9FF5}
      IID 1
      NAME "trumpet(s) - National_Anthems_-_Israel.mid"
      VOLPAN 1 0 1 -1
      SOFFS 0 0
      PLAYRATE 1 1 0 -1 0 0.0025
      CHANMODE 0
      TAKECOLOR 26173599 B
      GUID {61A8DE46-17DF-C54B-878E-E78F6EEB26F7}
      <SOURCE MIDI
        HASDATA 1 480 QN
        POOLEDEVTS {E5306E96-FB54-174C-80C1-A5930B1D4389}
        <X 0 0
          /wN0cnVtcGV0KHMp
        >
        <X 0 0
          /wRTb3VuZCBDYW52YXM=
        >
        e 0 90 40 5c
        e 237 90 42 74 -1
        e 2 80 40 3f
        e 236 80 42 32 -1
        e 1 90 43 6f -1
        e 196 80 43 31 -1
        e 43 90 45 61 -2
        e 130 80 45 23 -2
        e 111 90 47 67 -1
        e 383 80 47 23 -1
        e 93 90 47 6b -3
        e 387 80 47 61 -3
        e 98 90 48 5f -1
        e 232 80 48 46 -1
        e 7 90 47 63 -1
        e 117 80 47 2d -1
        e 123 90 48 5b -2
        e 238 90 4c 5f -2
        e 22 80 48 3c -2
        e 92 80 4c 30 -2
        e 127 90 47 5d -2
        e 837 80 47 42 -2
        e 124 90 45 67 -1
        e 416 80 45 39 -1
        e 61 90 45 6d -2
        e 149 80 45 34 -2
        e 91 90 45 69 -2
        e 164 80 45 23 -2
        e 74 90 43 74 -4
        e 411 80 43 2e -4
        e 69 90 43 6d -3
        e 396 80 43 28 -3
        e 86 90 42 71 -3
        e 225 80 42 3b -3
        e 13 90 40 58 -4
        e 166 80 40 20 -4
        e 75 90 42 71 -3
        e 240 90 43 6f -3
        e 10 80 42 3c -3
        e 148 80 43 34 -3
        e 83 90 40 6d -3
        e 587 80 40 4c -3
        e 137 90 3b 5f -1
        e 174 80 3b 1f -1
        e 61 90 40 6d -3
        e 233 80 40 28 -3
        e 7 90 42 6f -3
        e 199 80 42 39 -3
        e 64 90 43 67 5
        e 210 90 45 69 -6
        e 26 80 43 23 5
        e 145 80 45 09 -6
        e 71 90 47 60 -5
        e 442 80 47 49 -5
        e 42 90 47 61 -4
        e 432 80 47 2a -4
        e 50 90 48 63 -3
        e 222 80 48 4a -3
        e 14 90 47 5d -4
        e 185 80 47 2d -4
        e 55 90 48 5d -4
        e 237 80 48 3e -4
        e 1 90 4c 60 -5
        e 148 80 4c 44 -5
        e 93 90 47 65 -4
        e 830 80 47 3a -4
        e 136 90 45 6d -2
        e 421 80 45 39 -2
        e 61 90 45 6d -1
        e 146 80 45 3f -1
        e 93 90 45 6b -2
        e 162 80 45 2a -2
        e 78 90 43 71 -2
        e 407 80 43 35 -2
        e 74 90 43 74 -1
        e 425 80 43 36 -1
        e 60 90 42 74 1
        e 211 80 42 3e 1
        e 25 90 40 61 -1
        e 189 80 40 2e -1
        e 52 90 42 71 -1
        e 223 80 42 01 -1
        e 12 90 43 71 -2
        e 137 80 43 34 -2
        e 107 90 40 60 -1
        e 812 80 40 27 -1
        e 152 90 40 6d 1
        e 412 80 40 0c 1
        e 66 90 4c 71 -1
        e 382 80 4c 20 -1
        e 101 90 4c 67 1
        e 353 80 4c 42 1
        e 122 90 4c 6d -1
        e 374 80 4c 2c -1
        e 107 90 4a 67 -1
        e 224 80 4a 32 -1
        e 14 90 4c 5b -1
        e 143 80 4c 39 -1
        e 97 90 4a 65 -1
        e 220 80 4a 35 -1
        e 20 90 48 58 -2
        e 141 80 48 28 -2
        e 99 90 47 63 -1
        e 958 80 47 09 -1
        e 10 90 40 59 1
        e 454 80 40 22 1
        e 15 90 4c 6b -3
        e 357 80 4c 2b -3
        e 123 90 4c 65 -3
        e 364 80 4c 25 -3
        e 114 90 4c 65 -3
        e 395 80 4c 39 -3
        e 86 90 4a 60 -3
        e 217 80 4a 24 -3
        e 24 90 4c 60 -2
        e 160 80 4c 2e -2
        e 80 90 4a 63 -2
        e 209 80 4a 36 -2
        e 30 90 48 61 -3
        e 132 80 48 1c -3
        e 107 90 47 69 -4
        e 828 80 47 38 -4
        e 139 90 4a 6f -1
        e 358 80 4a 16 -1
        e 120 90 4a 6f -2
        e 166 80 4a 46 -2
        e 76 90 4a 67 -1
        e 179 80 4a 3c -1
        e 59 90 43 74 -2
        e 391 80 43 35 -2
        e 88 90 43 71 -2
        e 399 80 43 2c -2
        e 84 90 45 6f -1
        e 238 90 47 69 -2
        e 2 80 45 01 -1
        e 169 80 47 17 -2
        e 69 90 48 60 -1
        e 220 80 48 44 -1
        e 16 90 4a 60 -3
        e 149 80 4a 2a -3
        e 92 90 47 65 -2
        e 390 80 47 17 -2
        e 94 90 45 69 -1
        e 219 80 45 3a -1
        e 18 90 43 67 -2
        e 161 80 43 2c -2
        e 81 90 45 65 -2
        e 386 80 45 29 -2
        e 96 90 45 63 -1
        e 407 80 45 0d -1
        e 69 90 43 71 -2
        e 404 80 43 3f -2
        e 76 90 43 71 -2
        e 256 80 43 2e -2
        e 103 90 43 69 -2
        e 120 90 42 69 -2
        e 4 80 43 35 -2
        e 220 80 42 47 -2
        e 14 90 40 60 -4
        e 207 80 40 2a -4
        e 33 90 42 6f -4
        e 218 80 42 2e -4
        e 18 90 43 6b -5
        e 223 80 43 1c -5
        e 24 90 40 69 -2
        e 847 80 40 1a -2
        e 122 90 45 6d 1
        e 388 80 45 33 1
        e 88 90 45 67 -1
        e 150 80 45 34 -1
        e 87 90 45 65 -2
        e 141 80 45 25 -2
        e 99 90 43 71 -2
        e 384 80 43 3c -2
        e 93 90 43 6f -2
        e 387 80 43 4c -2
        e 100 90 45 69
        e 236 80 45 1b
        e 0 90 47 67 -1
        e 165 80 47 35 -1
        e 77 90 48 63 -1
        e 222 80 48 31 -1
        e 16 90 4a 6d -1
        e 122 80 4a 1d -1
        e 118 90 47 59 -2
        e 472 80 47 1f -2
        e 9 90 45 65 -1
        e 217 80 45 3d -1
        e 22 90 43 74 -2
        e 125 80 43 51 -2
        e 123 90 45 74 2
        e 382 80 45 34 2
        e 90 90 45 69 -1
        e 130 80 45 3e -1
        e 113 90 45 69 -1
        e 154 80 45 1c -1
        e 83 90 43 6f -1
        e 383 80 43 3a -1
        e 92 90 43 6d -3
        e 245 80 43 27 -3
        e 119 90 43 6d -2
        e 117 90 42 6f -3
        e 1 80 43 40 -2
        e 214 80 42 34 -3
        e 23 90 40 61 -4
        e 176 80 40 2f -4
        e 65 90 42 74 -3
        e 233 80 42 2b -3
        e 7 90 43 77 -3
        e 150 80 43 30 -3
        e 95 90 40 69 -2
        e 1924 80 40 65 -1
        E 0 b0 7b 00
        GUID {D9AB79C0-9436-CE4E-95CA-47261285F2CC}
        IGNTEMPO 0 120 4 4
        SRCCOLOR 472
        VELLANE -1 86 6
        CFGEDITVIEW -1968 18.891353 62 16 0 0 0 0 0 0.5
        KEYSNAP 0
        TRACKSEL 226 0 0 ""
        EVTFILTER 0 -1 -1 -1 -1 0 0 0 0 -1 -1 -1 -1 0 -1 0 -1 -1
        CFGEDIT 1 0 0 0 0 0 1 0 1 1 1 0.25 48 95 1280 778 0 0 2 3 0 0 0 0 0 -1 0 0 0.27 64
      >
      TAKE
      NAME "trumpet(s) - National_Anthems_-_Israel.mid"
      TAKEVOLPAN 0 1 -1
      SOFFS 0 0
      PLAYRATE 1 1 0 -1 0 0.0025
      CHANMODE 0
      GUID {C4647D52-DB78-774F-93D9-01A407260A93}
      <SOURCE MIDI
        HASDATA 1 480 QN
        POOLEDEVTS {5426348F-D5EE-7A4C-B360-FE855642C2EA}
        <X 0 0
          /wN0cnVtcGV0KHMp
        >
        <X 0 0
          /wRTb3VuZCBDYW52YXM=
        >
        e 0 90 40 5c
        e 236 90 42 74
        e 3 80 40 3f
        e 235 80 42 32
        e 1 90 43 6f
        e 196 80 43 31
        e 42 90 45 61
        e 130 80 45 23
        e 112 90 47 67
        e 383 80 47 23
        e 91 90 47 6b
        e 387 80 47 61
        e 100 90 48 5f
        e 232 80 48 46
        e 7 90 47 63
        e 117 80 47 2d
        e 122 90 48 5b
        e 238 90 4c 5f
        e 22 80 48 3c
        e 92 80 4c 30
        e 127 90 47 5d
        e 837 80 47 42
        e 125 90 45 67
        e 416 80 45 39
        e 60 90 45 6d
        e 149 80 45 34
        e 91 90 45 69
        e 164 80 45 23
        e 72 90 43 74
        e 411 80 43 2e
        e 70 90 43 6d
        e 396 80 43 28
        e 86 90 42 71
        e 225 80 42 3b
        e 12 90 40 58
        e 166 80 40 20
        e 76 90 42 71
        e 240 90 43 6f
        e 10 80 42 3c
        e 148 80 43 34
        e 83 90 40 6d
        e 587 80 40 4c
        e 139 90 3b 5f
        e 174 80 3b 1f
        e 59 90 40 6d
        e 233 80 40 28
        e 7 90 42 6f
        e 199 80 42 39
        e 72 90 43 67
        e 199 90 45 69
        e 37 80 43 23
        e 134 80 45 09
        e 72 90 47 60
        e 442 80 47 49
        e 43 90 47 61
        e 432 80 47 2a
        e 51 90 48 63
        e 222 80 48 4a
        e 13 90 47 5d
        e 185 80 47 2d
        e 55 90 48 5d
        e 237 80 48 3e
        e 0 90 4c 60
        e 148 80 4c 44
        e 94 90 47 65
        e 830 80 47 3a
        e 138 90 45 6d
        e 421 80 45 39
        e 62 90 45 6d
        e 146 80 45 3f
        e 92 90 45 6b
        e 162 80 45 2a
        e 78 90 43 71
        e 407 80 43 35
        e 75 90 43 74
        e 425 80 43 36
        e 62 90 42 74
        e 211 80 42 3e
        e 23 90 40 61
        e 189 80 40 2e
        e 52 90 42 71
        e 223 80 42 01
        e 11 90 43 71
        e 137 80 43 34
        e 108 90 40 60
        e 812 80 40 27
        e 154 90 40 6d
        e 412 80 40 0c
        e 64 90 4c 71
        e 382 80 4c 20
        e 103 90 4c 67
        e 353 80 4c 42
        e 120 90 4c 6d
        e 374 80 4c 2c
        e 107 90 4a 67
        e 224 80 4a 32
        e 14 90 4c 5b
        e 143 80 4c 39
        e 97 90 4a 65
        e 220 80 4a 35
        e 19 90 48 58
        e 141 80 48 28
        e 100 90 47 63
        e 958 80 47 09
        e 12 90 40 59
        e 454 80 40 22
        e 11 90 4c 6b
        e 357 80 4c 2b
        e 123 90 4c 65
        e 364 80 4c 25
        e 114 90 4c 65
        e 395 80 4c 39
        e 86 90 4a 60
        e 217 80 4a 24
        e 25 90 4c 60
        e 160 80 4c 2e
        e 80 90 4a 63
        e 209 80 4a 36
        e 29 90 48 61
        e 132 80 48 1c
        e 106 90 47 69
        e 828 80 47 38
        e 142 90 4a 6f
        e 358 80 4a 16
        e 119 90 4a 6f
        e 166 80 4a 46
        e 77 90 4a 67
        e 179 80 4a 3c
        e 58 90 43 74
        e 391 80 43 35
        e 88 90 43 71
        e 399 80 43 2c
        e 85 90 45 6f
        e 237 90 47 69
        e 3 80 45 01
        e 168 80 47 17
        e 70 90 48 60
        e 220 80 48 44
        e 14 90 4a 60
        e 149 80 4a 2a
        e 93 90 47 65
        e 390 80 47 17
        e 95 90 45 69
        e 219 80 45 3a
        e 17 90 43 67
        e 161 80 43 2c
        e 81 90 45 65
        e 386 80 45 29
        e 97 90 45 63
        e 407 80 45 0d
        e 68 90 43 71
        e 404 80 43 3f
        e 76 90 43 71
        e 256 80 43 2e
        e 103 90 43 69
        e 120 90 42 69
        e 4 80 43 35
        e 220 80 42 47
        e 12 90 40 60
        e 207 80 40 2a
        e 33 90 42 6f
        e 218 80 42 2e
        e 17 90 43 6b
        e 223 80 43 1c
        e 27 90 40 69
        e 847 80 40 1a
        e 125 90 45 6d
        e 388 80 45 33
        e 86 90 45 67
        e 150 80 45 34
        e 86 90 45 65
        e 141 80 45 25
        e 99 90 43 71
        e 384 80 43 3c
        e 93 90 43 6f
        e 387 80 43 4c
        e 102 90 45 69
        e 235 90 47 67
        e 1 80 45 1b
        e 164 80 47 35
        e 77 90 48 63
        e 222 80 48 31
        e 16 90 4a 6d
        e 122 80 4a 1d
        e 117 90 47 59
        e 472 80 47 1f
        e 10 90 45 65
        e 217 80 45 3d
        e 21 90 43 74
        e 125 80 43 51
        e 127 90 45 74
        e 382 80 45 34
        e 87 90 45 69
        e 130 80 45 3e
        e 113 90 45 69
        e 154 80 45 1c
        e 83 90 43 6f
        e 383 80 43 3a
        e 90 90 43 6d
        e 245 80 43 27
        e 120 90 43 6d
        e 116 90 42 6f
        e 2 80 43 40
        e 213 80 42 34
        e 22 90 40 61
        e 176 80 40 2f
        e 66 90 42 74
        e 233 80 42 2b
        e 7 90 43 77
        e 150 80 43 30
        e 96 90 40 69
        e 1925 80 40 65
        E 1 b0 7b 00
        GUID {D956EC1E-285C-4C47-92D1-3F456EC7F884}
        IGNTEMPO 0 120 4 4
        SRCCOLOR 13490
        VELLANE -1 86 6
        CFGEDITVIEW 0 0 50 22 0 0 0 0 0 0.5
        KEYSNAP 0
        TRACKSEL 226 0 0 ""
        EVTFILTER 0 -1 -1 -1 -1 0 0 0 0 -1 -1 -1 -1 0 -1 0 -1 -1
        CFGEDIT 1 0 0 0 0 0 1 0 1 1 1 0.25 166 130 1414 829 0 0 2 3 0 0 0 0 0 -1 0 0 1 64
      >
    >
    <ITEM
      POSITION 0
      SNAPOFFS 0
      LENGTH 41
      LOOP 1
      ALLTAKES 0
      FADEIN 1 0 0 1 0 0
      FADEOUT 1 0 0 1 0 0
      MUTE 0
      SEL 0
      YPOS 0.75 0.083333
      IGUID {E084452C-63BE-784B-ADAB-DB8177DE6731}
      IID 2
      NAME "fr. horn(s) - National_Anthems_-_Israel.mid"
      VOLPAN 1 0 1 -1
      SOFFS 0 0
      PLAYRATE 1 1 0 -1 0 0.0025
      CHANMODE 0
      TAKECOLOR 26173599 B
      GUID {703257A4-6071-CC45-B122-A5CD805B48B2}
      <SOURCE MIDI
        HASDATA 1 480 QN
        POOLEDEVTS {6DDC4E15-8E70-7C4A-83B4-40039E97923B}
        <X 0 0
          /wNmci4gaG9ybihzKQ==
        >
        <X 0 0
          /wRTb3VuZCBDYW52YXM=
        >
        e 474 91 34 4b -2
        e 237 91 36 56 -3
        e 12 81 34 30 -2
        e 188 81 36 27 -3
        e 36 91 37 3a -5
        e 966 91 39 4b -2
        e 20 81 37 10 -5
        e 939 91 3b 3a -3
        e 3 81 39 10 -2
        e 961 91 37 4b -2
        e 13 81 3b 01 -3
        e 458 81 37 01 -2
        e 2 91 39 51 -4
        e 479 91 3b 4f -5
        e 6 81 39 29 -4
        e 954 91 39 47 -4
        e 21 81 3b 18 -5
        e 942 91 37 4e -4
        e 22 81 39 06 -4
        e 856 81 37 47 -4
        e 561 91 40 4f -4
        e 466 81 40 28 -4
        e 7 91 3e 59 -6
        e 482 91 41 56 -5
        e 28 81 3e 04 -6
        e 458 91 40 4d -3
        e 22 81 41 35 -5
        e 1419 91 3e 4d -3
        e 16 81 40 11 -3
        e 937 81 3e 27 -3
        e 4 91 3c 45 -4
        e 957 81 3c 20 -4
        e 5 91 3b 4f -4
        e 486 91 39 4d -1
        e 12 81 3b 2d -4
        e 386 81 39 39 -1
        e 77 91 39 49 -3
        e 479 91 37 4d -4
        e 5 81 39 17 -3
        e 973 81 37 4a -4
        e 470 91 43 49 -1
        e 385 81 43 40 -1
        e 93 91 43 4b -1
        e 477 91 40 53 -2
        e 5 81 43 25 -1
        e 479 91 45 4e -1
        e 20 81 40 1c -2
        e 440 81 45 3d -1
        e 14 91 42 5d -3
        e 464 81 42 13 -3
        e 17 91 43 5b -3
        e 240 91 42 63 -3
        e 14 81 43 43 -3
        e 210 81 42 33 -3
        e 14 91 40 5a -4
        e 232 81 40 39 -4
        e 8 91 3e 52 -4
        e 243 81 3e 35 -4
        e 6 91 40 57
        e 473 91 4c 51 -2
        e 40 81 40 01
        e 370 81 4c 49 -2
        e 66 91 4c 55 -4
        e 407 81 4c 47 -4
        e 74 91 4c 56 -4
        e 347 81 4c 31 -4
        e 132 91 45 4f -4
        e 0 91 4a 51 -4
        e 241 81 4a 3d -4
        e 1 91 4c 3f -3
        e 228 81 4c 42 -3
        e 8 91 4a 55 -5
        e 242 91 48 52 -4
        e 6 81 4a 4b -5
        e 167 81 45 43 -4
        e 49 81 48 3f -4
        e 22 91 47 57 -3
        e 1 91 43 45 -2
        e 803 81 43 23 -2
        e 125 81 47 27 -3
        e 31 91 43 57 -2
        e 0 91 4a 4f -2
        e 402 81 4a 3b -2
        e 81 91 4a 5a -2
        e 150 81 4a 3f -2
        e 85 91 4a 4e -4
        e 160 81 43 25 -2
        e 84 91 43 59 -2
        e 29 81 4a 1a -4
        e 368 81 43 3a -2
        e 85 91 43 55 -1
        e 379 81 43 45 -1
        e 103 91 45 5b -1
        e 234 81 45 2b -1
        e 0 91 47 5a -2
        e 239 91 48 51 -3
        e 9 81 47 01 -2
        e 231 91 4a 47 -3
        e 7 81 48 36 -3
        e 236 91 47 5f -2
        e 8 81 4a 4a -3
        e 446 81 47 43 -2
        e 25 91 45 4e -2
        e 225 81 45 46 -2
        e 13 91 43 5d -3
        e 228 81 43 2a -3
        e 14 91 40 4f -2
        e 2 91 45 53 -1
        e 393 81 45 39 -1
        e 85 91 45 4e -2
        e 486 91 43 51
        e 1 81 45 3f -2
        e 368 81 43 3e
        e 104 91 43 5b -2
        e 201 81 43 2d -2
        e 71 91 43 55 9
        e 127 81 43 3b 9
        e 36 81 40 26 -2
        e 49 91 42 56 -1
        e 235 91 40 52 -3
        e 6 81 42 20 -1
        e 233 91 42 5d -3
        e 24 81 40 2d -3
        e 216 91 43 5a -4
        e 2 81 42 34 -3
        e 228 81 43 46 -4
        e 10 91 40 53 -3
        e 839 81 40 35 -3
        e 146 91 39 55 6
        e 203 81 39 30 6
        e 24 91 3b 4e 1
        e 228 81 3b 01 1
        e 13 91 3c 4f 1
        e 449 81 3c 41 1
        e 22 91 3b 59 -2
        e 478 91 3d 5a -3
        e 2 81 3b 17 -2
        e 462 81 3d 37 -3
        e 16 91 3e 59 -3
        e 905 81 3e 3e -3
        e 57 91 3e 4d -2
        e 893 81 3e 01 -2
        e 79 91 39 55 3
        e 476 91 3b 57 1
        e 8 81 39 11 3
        e 914 81 3b 01 1
        e 31 91 3a 53 -2
        e 455 81 3a 39 -2
        e 22 91 39 52 -3
        e 404 81 39 38 -3
        e 77 91 3b 57 -2
        e 483 91 3b 00 -1
        e 0 91 3b 5b -1
        e 13 81 3b 37 -1
        E 1910 b0 7b 00
        GUID {1A15F516-AE8D-5E4C-9290-FC9BC64570F8}
        IGNTEMPO 0 120 4 4
        SRCCOLOR 473
        VELLANE -1 86 6
        CFGEDITVIEW 7142.581956 38.165981 62 16 0 0 0 0 0 0.5
        KEYSNAP 0
        TRACKSEL 226 0 0 ""
        EVTFILTER 0 -1 -1 -1 -1 0 0 0 0 -1 -1 -1 -1 0 -1 0 -1 -1
        CFGEDIT 1 0 0 0 0 0 1 0 1 1 1 0.25 48 95 1280 778 0 0 2 3 0 0 0 0 0 -1 0 0 0.27 64
      >
      TAKE
      NAME "fr. horn(s) - National_Anthems_-_Israel.mid"
      TAKEVOLPAN 0 1 -1
      SOFFS 0 0
      PLAYRATE 1 1 0 -1 0 0.0025
      CHANMODE 0
      GUID {99DF8170-4EAF-A84A-B757-961A73A55508}
      <SOURCE MIDI
        HASDATA 1 480 QN
        POOLEDEVTS {9C5C4FF7-A7E1-C147-92E4-378AE894280D}
        <X 0 0
          /wNmci4gaG9ybihzKQ==
        >
        <X 0 0
          /wRTb3VuZCBDYW52YXM=
        >
        E 472 91 34 4b
        E 236 91 36 56
        E 13 81 34 30
        E 187 81 36 27
        E 34 91 37 3a
        E 969 91 39 4b
        E 17 81 37 10
        E 941 91 3b 3a
        E 4 81 39 10
        E 961 91 37 4b
        E 12 81 3b 01
        E 459 81 37 01
        E 0 91 39 51
        E 478 91 3b 4f
        E 7 81 39 29
        E 954 91 39 47
        E 20 81 3b 18
        E 943 91 37 4e
        E 22 81 39 06
        E 856 81 37 47
        E 561 91 40 4f
        E 466 81 40 28
        E 5 91 3e 59
        E 483 91 41 56
        E 27 81 3e 04
        E 461 91 40 4d
        E 20 81 41 35
        E 1421 91 3e 4d
        E 16 81 40 11
        E 937 81 3e 27
        E 3 91 3c 45
        E 957 81 3c 20
        E 5 91 3b 4f
        E 489 91 39 4d
        E 9 81 3b 2d
        E 389 81 39 39
        E 75 91 39 49
        E 478 91 37 4d
        E 6 81 39 17
        E 972 81 37 4a
        E 473 91 43 49
        E 385 81 43 40
        E 93 91 43 4b
        E 476 91 40 53
        E 6 81 43 25
        E 479 91 45 4e
        E 19 81 40 1c
        E 441 81 45 3d
        E 12 91 42 5d
        E 464 81 42 13
        E 17 91 43 5b
        E 240 91 42 63
        E 14 81 43 43
        E 210 81 42 33
        E 13 91 40 5a
        E 232 81 40 39
        E 8 91 3e 52
        E 243 81 3e 35
        E 10 91 40 57
        E 471 91 4c 51
        E 42 81 40 01
        E 368 81 4c 49
        E 64 91 4c 55
        E 407 81 4c 47
        E 74 91 4c 56
        E 347 81 4c 31
        E 132 91 45 4f
        E 0 91 4a 51
        E 241 81 4a 3d
        E 2 91 4c 3f
        E 228 81 4c 42
        E 6 91 4a 55
        E 243 91 48 52
        E 5 81 4a 4b
        E 168 81 45 43
        E 49 81 48 3f
        E 23 91 47 57
        E 2 91 43 45
        E 803 81 43 23
        E 124 81 47 27
        E 32 91 4a 4f
        E 0 91 43 57
        E 402 81 4a 3b
        E 81 91 4a 5a
        E 150 81 4a 3f
        E 83 91 4a 4e
        E 162 81 43 25
        E 84 91 43 59
        E 27 81 4a 1a
        E 370 81 43 3a
        E 86 91 43 55
        E 379 81 43 45
        E 103 91 45 5b
        E 233 91 47 5a
        E 1 81 45 2b
        E 237 91 48 51
        E 10 81 47 01
        E 230 91 4a 47
        E 7 81 48 36
        E 237 91 47 5f
        E 7 81 4a 4a
        E 447 81 47 43
        E 25 91 45 4e
        E 225 81 45 46
        E 12 91 43 5d
        E 228 81 43 2a
        E 15 91 40 4f
        E 3 91 45 53
        E 393 81 45 39
        E 84 91 45 4e
        E 487 81 45 3f
        E 1 91 43 51
        E 369 81 43 3e
        E 102 91 43 5b
        E 201 81 43 2d
        E 82 91 43 55
        E 127 81 43 3b
        E 25 81 40 26
        E 50 91 42 56
        E 233 91 40 52
        E 8 81 42 20
        E 231 91 42 5d
        E 24 81 40 2d
        E 215 91 43 5a
        E 3 81 42 34
        E 227 81 43 46
        E 11 91 40 53
        E 839 81 40 35
        E 155 91 39 55
        E 203 81 39 30
        E 19 91 3b 4e
        E 228 81 3b 01
        E 13 91 3c 4f
        E 449 81 3c 41
        E 19 91 3b 59
        E 477 91 3d 5a
        E 3 81 3b 17
        E 461 81 3d 37
        E 16 91 3e 59
        E 905 81 3e 3e
        E 58 91 3e 4d
        E 893 81 3e 01
        E 84 91 39 55
        E 474 91 3b 57
        E 10 81 39 11
        E 912 81 3b 01
        E 28 91 3a 53
        E 455 81 3a 39
        E 21 91 39 52
        E 404 81 39 38
        E 78 91 3b 57
        E 484 91 3b 5b
        E 13 81 3b 37
        E 1659 81 3b 5c
        E 252 b0 7b 00
        GUID {6912AD15-410F-4344-851B-B5065FBDB0D8}
        IGNTEMPO 0 120 4 4
        SRCCOLOR 13491
        VELLANE -1 86 6
        CFGEDITVIEW 0 0 50 22 0 0 0 0 0 0.5
        KEYSNAP 0
        TRACKSEL 226 0 0 ""
        EVTFILTER 0 -1 -1 -1 -1 0 0 0 0 -1 -1 -1 -1 0 -1 0 -1 -1
        CFGEDIT 1 0 0 0 0 0 1 0 1 1 1 0.25 166 130 1414 829 0 0 2 3 0 0 0 0 0 -1 0 0 1 64
      >
    >
  >
  <TRACK {4A6CD977-ADCC-3A4D-927C-BB2CEF4B0809}
    NAME Gladiator
    PEAKCOL 27222112
    BEAT -1
    AUTOMODE 0
    VOLPAN 0.27991910429543 0 -1 -1 1
    MUTESOLO 0 0 0
    IPHASE 0
    ISBUS 0 0
    BUSCOMP 2 0
    SHOWINMIX 1 1 0.5 1 0.5 0 0 0
    FREEMODE 0
    SEL 0
    REC 0 0 0 0 0 0 0
    VU 2
    TRACKHEIGHT 211 0
    INQ 0 0 0 0.5 100 0 0 100
    NCHAN 2
    FX 1
    TRACKID {4A6CD977-ADCC-3A4D-927C-BB2CEF4B0809}
    PERF 0
    MIDIOUT -1
    MAINSEND 1 0
    <FXCHAIN
      SHOW 0
      LASTSEL 0
      DOCKED 0
      BYPASS 0 0 0
      <VST "VSTi: Gladiator (Tone2.com)" Gladiator.vst 0 "" 1412581196
        TEcyVO5e7f4AAAAAAgAAAAEAAAAAAAAAAgAAAAAAAABaBAAAAQAAAAAAEAA=
        Q2NuSwAAAGBGeENrAAAAAVQyR0wAAAABAAABB0luaXQAAAAAAAAAAAAAAAAAAAAAAAAAAAAAAAA9zMzNPMzMzTw0OVg9uFH0PXnbIz+AAAA7xJumPb52yT+AAAA7xJum
        AAAAAD6mZmY+PXCkP4AAAD7FHrk/AAAAPwAAAAAAAAA9ffO2PdDlYDy8an8/RR64AAAAAD+AAAA8NDlYPZFocz71wo87RJumPbhR6D69cKQ+PXCkP4AAAD8AAAA/A9cL
        PwAAAAAAAAAAAAAAPwAAAD8AAAA/AAAAPtmZmj8AAAAAAAAAO+VgQj24UesAAAAAPk21xDtEm6Y/S4UeAAAAAAAAAAA+64UgPpR64T1hR7A+z1woPx64Uj49cKY/AAAA
        PwAAAAAAAAAAAAAAPwAAAAAAAAAAAAAAP4AAAD+AAAAAAAAAPxHrhT8AAAA/AAAAPwAAAD8AAAAAAAAAPwAAAD8AAAA/AAAAAAAAAD8AAAA/AAAAPwAAAAAAAAA6gxJv
        P1Cj1wAAAAA/gAAAAAAAADqDEm8/AAAAAAAAAAAAAAAAAAAAPwAAAAAAAAA/gAAAAAAAAD+AAAAAAAAAPwAAAD8AAAA/AAAAPwAAAD8AAAA/AAAAPwAAAD8AAAA/AAAA
        PwAAAD8AAAA/EeuGPKPXCjqDEm88RJumAAAAAAAAAAAAAAAAPLxqfwAAAAAAAAAAAAAAAAAAAAAAAAAAAAAAAAAAAAAAAAAAAAAAAAAAAAAAAAAAAAAAAAAAAAAAAAAA
        AAAAAAAAAAA8E3S8AAAAADw0OVgAAAAAPBN0vAAAAAA8NDlYAAAAADwTdLwAAAAAPDQ5WAAAAAA8E3S8AAAAADw0OVgAAAAAPGVgQj2HKwI8ZWBCOwMSbz2JN0w7AxJv
        PLQ5WDyLQ5Y8k3S8PVT99D0XjVA8zMzNPoAAAD9ywjU/AAAAP1GnuT8wjT4/HLCNAAAAADsDEm86gxJvAAAAAAAAAAAAAAAAPwAAADqDEm87RJumP4AAAAAAAAA/gAAA
        AAAAAD+AAAAAAAAAAAAAAAAAAAAAAAAAP4AAAAAAAAA/AAAAAAAAAD8AAAA/BR64PwAAAD+AAAA/AAAAPwAAAD8AAAA/gAAAP4AAAAAAAAAAAAAAAAAAAD8AAAA/gAAA
        PwAAAAAAAAA+vXCkAAAAAAAAAAA/gAAAP4AAAD8j1wo/gAAAAAAAAAAAAAA/gAAAPwAAAAAAAAAAAAAAAAAAAAAAAAAAAAAAAAAAAAAAAAAAAAAAAAAAAAAAAAAAAAAA
        AAAAAD8AAAA/AAAAPwAAAD8AAAA/AAAAPwAAAAAAAAAAAAAAP4AAAAAAAAAAAAAAAAAAAAAAAAAAAAAAAAAAAAAAAAAAAAAAAAAAAAAAAAAAAAAAAAAAAAAAAAAAAAAA
        AAAAAAAAAAAAAAAAAAAAAAAAAAAAAAAAAAAAAAAAAAAAAAAAAAAAAAAAAAAAAAAAAAAAAAAAqqusrQ==
        AAAQAAAA
      >
      FLOATPOS 500 379 317 200
      FXID {532372E3-5B0D-9345-A9C8-98A8EBAF9A7E}
      WAK 0
    >
    <ITEM
      POSITION 0
      SNAPOFFS 0
      LENGTH 41.5
      LOOP 1
      ALLTAKES 0
      FADEIN 1 0 0 1 0 0
      FADEOUT 1 0 0 1 0 0
      MUTE 0
      SEL 0
      YPOS 0 0.083333
      IGUID {6B35444D-244A-3245-BC1F-DCA218575AB4}
      IID 3
      NAME "trombone(s) - National_Anthems_-_Israel.mid"
      VOLPAN 1 0 1 -1
      SOFFS 0 0
      PLAYRATE 1 1 0 -1 0 0.0025
      CHANMODE 0
      TAKECOLOR 26173599 B
      GUID {AF838876-A45C-124E-9651-ACC72D9EDB9C}
      <SOURCE MIDI
        HASDATA 1 480 QN
        POOLEDEVTS {7E2301D1-3A8F-1B49-BA60-CFAE6CA58721}
        <X 0 0
          /wN0cm9tYm9uZShzKQ==
        >
        <X 0 0
          /wRTb3VuZCBDYW52YXM=
        >
        e 0 90 28 53
        e 468 80 28 00
        e 7 90 34 34 -2
        e 872 80 34 00 -2
        e 86 90 34 48 -3
        e 917 80 34 00 -3
        e 48 90 34 50 -1
        e 948 80 34 00 -1
        e 10 90 32 48 -2
        e 483 90 30 41
        e 10 80 32 00 -2
        e 469 90 36 5f -1
        e 287 80 30 00
        e 191 90 2f 50 -2
        e 469 80 36 00 -1
        e 11 90 34 4c -2
        e 376 80 2f 00 -2
        e 101 90 2f 59 -3
        e 460 80 34 00 -2
        e 17 90 33 54 -4
        e 483 90 34 50 -3
        e 25 80 2f 00 -3
        e 7 80 33 00 -4
        e 452 90 28 49 -1
        e 23 80 34 00 -3
        e 432 80 28 00 -1
        e 504 90 3c 4b -2
        e 473 80 3c 00 -2
        e 0 90 37 41 -4
        e 469 80 37 00 -4
        e 7 90 38 2c -6
        e 488 90 39 47 -2
        e 45 80 38 00 -6
        e 424 80 39 00 -2
        e 10 90 36 54 -3
        e 479 90 37 47 -4
        e 11 80 36 00 -3
        e 957 90 36 4b -1
        e 47 80 37 00 -4
        e 902 80 36 00 -1
        e 3 90 34 50 -3
        e 743 90 32 49 5
        e 5 80 34 00 -3
        e 113 80 32 00 5
        e 108 90 30 55
        e 0 90 39 54
        e 387 80 39 00
        e 49 80 30 00
        e 37 90 2f 4c -3
        e 1 90 39 50 -2
        e 430 80 39 00 -2
        e 49 80 2f 00 -3
        e 0 90 34 53 -3
        e 1 90 37 45 -2
        e 832 80 34 00 -3
        e 8 80 37 00 -2
        e 117 90 40 57 -3
        e 2 90 30 51 -3
        e 425 80 40 00 -3
        e 56 90 40 54 -2
        e 16 80 30 00 -3
        e 398 80 40 00 -2
        e 69 90 3c 49 -1
        e 0 90 40 54 -1
        e 408 80 3c 00 -1
        e 14 80 40 00 -1
        e 62 90 3c 4b
        e 0 90 39 53 1
        e 369 80 39 00 1
        e 50 80 3c 00
        e 59 90 39 49
        e 0 90 3e 53
        e 347 80 39 00
        e 92 80 3e 00
        e 35 90 32 48 -2
        e 2 90 39 54 -2
        e 469 80 39 00 -2
        e 9 90 37 4b -3
        e 2 80 32 00 -2
        e 776 80 37 00 -3
        e 189 90 3c 4d
        e 237 90 3b 4c -1
        e 1 80 3c 00
        e 242 80 3b 00 -1
        e 0 90 3c 47
        e 236 80 3c 00
        e 0 90 30 3f -1
        e 237 90 32 45 -3
        e 5 80 30 00 -1
        e 196 80 32 00 -3
        e 34 90 34 48 -5
        e 239 90 36 5d -5
        e 25 80 34 00 -5
        e 205 80 36 00 -5
        e 8 90 37 50 -6
        e 222 80 37 00 -6
        e 15 90 39 50 -6
        e 242 90 36 5f -6
        e 31 80 39 00 -6
        e 209 90 37 50 -6
        e 3 80 36 00 -6
        e 227 80 37 00 -6
        e 12 90 39 59 -5
        e 238 80 39 00 -5
        e 5 90 3e 59 -4
        e 975 80 3e 00 -4
        e 469 90 3b 55 -2
        e 240 90 39 4b -3
        e 9 80 3b 00 -2
        e 231 90 37 45 -2
        e 11 80 39 00 -3
        e 201 80 37 00 -2
        e 24 90 36 5f -4
        e 216 80 36 00 -4
        e 24 90 34 50 -4
        e 349 80 34 00 -4
        e 134 90 30 43 -3
        e 0 90 36 63 -3
        e 432 80 36 00 -3
        e 4 80 30 00 -3
        e 44 90 32 45 -3
        e 2 90 39 57 -2
        e 387 80 39 00 -2
        e 92 90 37 45 -2
        e 748 80 32 00 -3
        e 56 80 37 00 -2
        e 157 90 34 55 -2
        e 478 80 34 00 -2
        e 5 90 3b 41 -1
        e 1 90 36 5b -1
        e 393 80 3b 00 -1
        e 49 80 36 00 -1
        e 38 90 34 5b -1
        e 2 90 3b 4c
        e 376 80 3b 00
        e 64 80 34 00 -1
        e 39 90 3b 51
        e 2 90 34 4f 1
        e 373 80 3b 00
        e 21 80 34 00 1
        e 85 90 39 53
        e 2 90 34 51 1
        e 358 80 39 00
        e 44 80 34 00 1
        e 66 90 33 50 -4
        e 2 90 39 4c -3
        e 365 80 39 00 -3
        e 37 80 33 00 -4
        e 71 90 37 43 -5
        e 2 90 34 41 -5
        e 230 80 37 00 -5
        e 8 90 36 51 -5
        e 192 80 36 00 -5
        e 41 90 37 3f -8
        e 244 90 3b 50 -7
        e 8 80 37 00 -8
        e 201 80 34 00 -5
        e 32 80 3b 00 -7
        e 2 90 36 49 -5
        e 0 90 39 55 -5
        e 244 90 3b 4d -4
        e 8 80 39 00 -5
        e 208 80 36 00 -5
        e 36 90 36 4d 1
        e 4 90 3c 51 2
        e 54 80 3b 00 -4
        e 372 80 3c 00 2
        e 18 80 36 00 1
        e 25 90 37 49 -2
        e 0 90 3b 49 -2
        e 363 80 37 00 -2
        e 119 90 3d 51 -2
        e 1 90 37 47 -1
        e 11 80 3b 00 -2
        e 330 80 37 00 -1
        e 95 80 3d 00 -2
        e 40 90 3e 57 -3
        e 0 90 39 51 -2
        e 449 80 39 00 -2
        e 42 90 37 4f 2
        e 235 90 39 4f
        e 8 80 37 00 2
        e 212 80 39 00
        e 18 90 3b 51 -1
        e 237 90 2f 4b -2
        e 1 90 37 53 -2
        e 14 80 3b 00 -1
        e 115 80 3e 00 -3
        e 101 80 2f 00 -2
        e 2 80 37 00 -2
        e 4 90 31 5f -4
        e 3 90 39 5d -2
        e 217 80 31 00 -4
        e 12 80 39 00 -2
        e 4 90 32 51 -5
        e 5 90 3b 5d -3
        e 244 90 34 47 -2
        e 0 90 39 53 -2
        e 4 80 3b 00 -3
        e 25 80 32 00 -5
        e 438 80 39 00 -2
        e 8 90 36 57 -3
        e 2 80 34 00 -2
        e 0 90 3b 4b -2
        e 425 80 3b 00 -2
        e 58 90 3b 54 -2
        e 0 90 37 47 -1
        e 13 80 36 00 -3
        e 461 80 37 00 -1
        e 1 80 3b 00 -2
        e 5 90 34 50 -2
        e 0 90 3a 4d -1
        e 343 80 34 00 -2
        e 114 80 3a 00 -1
        e 23 90 34 4f -2
        e 1 90 39 5b -1
        e 379 80 39 00 -1
        e 78 80 34 00 -2
        e 18 90 33 5d -3
        e 1 90 39 51 -3
        e 453 80 39 00 -3
        e 11 80 33 00 -3
        e 18 90 34 45 -2
        e 0 90 3b 54 -2
        e 1963 80 3b 00 -2
        e 118 80 34 00 -2
        E 324 b0 7b 00
        GUID {1ED6CD53-27AA-924E-A2D5-09765F5C11C2}
        IGNTEMPO 0 120 4 4
        SRCCOLOR 474
        VELLANE -1 86 6
        CFGEDITVIEW 13364.483497 6.213465 64 16 0 0 0 0 0 0.5
        KEYSNAP 0
        TRACKSEL 226 0 0 ""
        EVTFILTER 0 -1 -1 -1 -1 0 0 0 0 -1 -1 -1 -1 0 -1 0 -1 -1
        CFGEDIT 1 0 0 0 0 0 1 0 1 1 1 0.25 48 95 1280 778 0 0 2 3 0 0 0 0 0 -1 0 0 0.27 64
      >
      TAKE
      NAME "trombone(s) - National_Anthems_-_Israel.mid"
      TAKEVOLPAN 0 1 -1
      SOFFS 0 0
      PLAYRATE 1 1 0 -1 0 0.0025
      CHANMODE 0
      GUID {C7776F1F-9125-A64F-BB07-A2AFF8B59C0A}
      <SOURCE MIDI
        HASDATA 1 480 QN
        POOLEDEVTS {E0C151E2-0994-6647-983D-D5AEDAB04BD6}
        <X 0 0
          /wN0cm9tYm9uZShzKQ==
        >
        <X 0 0
          /wRTb3VuZCBDYW52YXM=
        >
        E 0 92 28 53
        E 468 82 28 2b
        E 5 92 34 34
        E 872 82 34 3c
        E 85 92 34 48
        E 917 82 34 37
        E 50 92 34 50
        E 948 82 34 3e
        E 9 92 32 48
        E 485 92 30 41
        E 8 82 32 49
        E 470 92 36 5f
        E 288 82 30 01
        E 189 92 2f 50
        E 470 82 36 3c
        E 10 92 34 4c
        E 376 82 2f 3d
        E 100 92 2f 59
        E 461 82 34 07
        E 15 92 33 54
        E 484 92 34 50
        E 25 82 2f 4f
        E 6 82 33 52
        E 455 92 28 49
        E 21 82 34 43
        E 434 82 28 51
        E 503 92 3c 4b
        E 471 92 37 41
        E 2 82 3c 33
        E 467 82 37 0f
        E 5 92 38 2c
        E 492 92 39 47
        E 41 82 38 31
        E 428 82 39 01
        E 9 92 36 54
        E 478 92 37 47
        E 12 82 36 1e
        E 959 92 36 4b
        E 44 82 37 08
        E 905 82 36 33
        E 1 92 34 50
        E 748 82 34 40
        E 3 92 32 49
        E 118 82 32 48
        E 103 92 39 54
        E 0 92 30 55
        E 387 82 39 36
        E 49 82 30 27
        E 34 92 2f 4c
        E 2 92 39 50
        E 430 82 39 01
        E 48 82 2f 3c
        E 0 92 34 53
        E 2 92 37 45
        E 831 82 34 26
        E 9 82 37 01
        E 116 92 40 57
        E 2 92 30 51
        E 425 82 40 38
        E 57 92 40 54
        E 15 82 30 45
        E 399 82 40 2c
        E 70 92 40 54
        E 0 92 3c 49
        E 408 82 3c 19
        E 14 82 40 4b
        E 63 92 3c 4b
        E 1 92 39 53
        E 369 82 39 32
        E 49 82 3c 20
        E 59 92 3e 53
        E 0 92 39 49
        E 347 82 39 20
        E 92 82 3e 01
        E 33 92 32 48
        E 2 92 39 54
        E 469 82 39 45
        E 8 92 37 4b
        E 3 82 32 2e
        E 775 82 37 52
        E 192 92 3c 4d
        E 236 92 3b 4c
        E 2 82 3c 2c
        E 241 82 3b 3e
        E 1 92 3c 47
        E 235 92 30 3f
        E 1 82 3c 2c
        E 234 92 32 45
        E 7 82 30 27
        E 194 82 32 3b
        E 32 92 34 48
        E 239 92 36 5d
        E 25 82 34 44
        E 205 82 36 4c
        E 7 92 37 50
        E 222 82 37 0d
        E 15 92 39 50
        E 242 92 36 5f
        E 31 82 39 35
        E 209 92 37 50
        E 3 82 36 3c
        E 227 82 37 3c
        E 13 92 39 59
        E 238 82 39 2b
        E 6 92 3e 59
        E 975 82 3e 4f
        E 471 92 3b 55
        E 239 92 39 4b
        E 10 82 3b 01
        E 231 92 37 45
        E 10 82 39 01
        E 202 82 37 01
        E 22 92 36 5f
        E 216 82 36 2b
        E 24 92 34 50
        E 349 82 34 43
        E 135 92 36 63
        E 0 92 30 43
        E 432 82 36 1f
        E 4 82 30 2d
        E 44 92 32 45
        E 3 92 39 57
        E 387 82 39 16
        E 92 92 37 45
        E 747 82 32 4a
        E 57 82 37 2a
        E 157 92 34 55
        E 478 82 34 3c
        E 6 92 3b 41
        E 1 92 36 5b
        E 393 82 3b 09
        E 49 82 36 4c
        E 38 92 34 5b
        E 3 92 3b 4c
        E 376 82 3b 27
        E 63 82 34 45
        E 40 92 3b 51
        E 3 92 34 4f
        E 372 82 3b 20
        E 22 82 34 51
        E 84 92 39 53
        E 3 92 34 51
        E 357 82 39 20
        E 45 82 34 01
        E 61 92 33 50
        E 3 92 39 4c
        E 365 82 39 38
        E 36 82 33 3c
        E 70 92 37 43
        E 2 92 34 41
        E 230 82 37 41
        E 8 92 36 51
        E 192 82 36 4a
        E 38 92 37 3f
        E 245 92 3b 50
        E 7 82 37 2b
        E 204 82 34 01
        E 30 82 3b 36
        E 4 92 36 49
        E 0 92 39 55
        E 245 92 3b 4d
        E 7 82 39 02
        E 208 82 36 3e
        E 42 92 36 4d
        E 5 92 3c 51
        E 48 82 3b 41
        E 378 82 3c 42
        E 17 82 36 32
        E 22 92 37 49
        E 0 92 3b 49
        E 363 82 37 25
        E 119 92 3d 51
        E 2 92 37 47
        E 10 82 3b 42
        E 331 82 37 2a
        E 94 82 3d 41
        E 39 92 3e 57
        E 1 92 39 51
        E 449 82 39 01
        E 46 92 37 4f
        E 233 92 39 4f
        E 10 82 37 08
        E 210 82 39 4a
        E 17 92 3b 51
        E 236 92 2f 4b
        E 1 92 37 53
        E 15 82 3b 40
        E 113 82 3e 02
        E 102 82 2f 3e
        E 2 82 37 2e
        E 2 92 31 5f
        E 5 92 39 5d
        E 215 82 31 46
        E 14 82 39 1c
        E 1 92 32 51
        E 7 92 3b 5d
        E 245 92 34 47
        E 0 92 39 53
        E 3 82 3b 49
        E 23 82 32 4a
        E 441 82 39 3f
        E 7 92 36 57
        E 3 82 34 1f
        E 0 92 3b 4b
        E 425 82 3b 43
        E 58 92 3b 54
        E 1 92 37 47
        E 11 82 36 49
        E 463 82 3b 27
        E 0 82 37 0f
        E 5 92 34 50
        E 1 92 3a 4d
        E 342 82 34 21
        E 115 82 3a 26
        E 22 92 34 4f
        E 2 92 39 5b
        E 379 82 39 21
        E 77 82 34 01
        E 17 92 33 5d
        E 1 92 39 51
        E 453 82 39 40
        E 11 82 33 03
        E 19 92 3b 54
        E 0 92 34 45
        E 1963 82 3b 52
        E 118 82 34 5e
        E 326 b0 7b 00
        GUID {F8F5028B-534D-514A-9787-9C85B35D74E9}
        IGNTEMPO 0 120 4 4
        SRCCOLOR 13489
        VELLANE -1 86 6
      >
    >
    <ITEM
      POSITION 0
      SNAPOFFS 0
      LENGTH 41.5
      LOOP 1
      ALLTAKES 0
      FADEIN 1 0 0 1 0 0
      FADEOUT 1 0 0 1 0 0
      MUTE 0
      SEL 0
      YPOS 0.083333 0.083333
      IGUID {3F33057E-3B35-F844-B4E2-18F5FBFCCDF7}
      IID 4
      NAME "tuba(s) - National_Anthems_-_Israel.mid"
      VOLPAN 1 0 1 -1
      SOFFS 0 0
      PLAYRATE 1 1 0 -1 0 0.0025
      CHANMODE 0
      TAKECOLOR 26173599 B
      GUID {48026A0F-6170-D34F-BCED-5B185A980DFA}
      <SOURCE MIDI
        HASDATA 1 480 QN
        POOLEDEVTS {7EB8ACF9-DB4E-EF41-8A13-AC9F2FB470E9}
        <X 0 0
          /wN0dWJhKHMp
        >
        <X 0 0
          /wRTb3VuZCBDYW52YXM=
        >
        e 476 90 28 54 -1
        e 875 80 28 00 -1
        e 79 90 28 3f -4
        e 900 80 28 00 -4
        e 66 90 28 50 -1
        e 958 80 28 00 -1
        e 1 90 26 53 -2
        e 468 80 26 00 -2
        e 18 90 24 4c
        e 951 80 24 00
        e 8 90 23 53
        e 855 80 23 00
        e 98 90 23 45 -3
        e 963 90 28 4d -2
        e 19 80 23 00 -3
        e 461 90 1c 47 -2
        e 10 80 28 00 -2
        e 451 80 1c 00 -2
        e 494 90 30 3d -3
        e 459 80 30 00 -3
        e 15 90 2b 3b -6
        e 483 90 2c 43 -5
        e 2 80 2b 00 -6
        e 459 80 2c 00 -5
        e 20 90 2d 4f -4
        e 479 80 2d 00 -4
        e 2 90 2a 49 -4
        e 481 90 2b 3f -3
        e 5 80 2a 00 -4
        e 969 90 26 51 2
        e 44 80 2b 00 -3
        e 896 80 26 00 2
        e 10 90 28 3f -2
        e 709 80 28 00 -2
        e 9 90 26 51 -2
        e 217 80 26 00 -2
        e 29 90 24 45
        e 469 80 24 00
        e 11 90 23 45 -1
        e 477 90 28 3b -1
        e 1 80 23 00 -1
        e 736 80 28 00 -1
        e 227 90 24 49
        e 1902 80 24 00
        e 13 90 2a 51 -2
        e 447 80 2a 00 -2
        e 33 90 26 48 -2
        e 478 90 2b 3f -3
        e 4 80 26 00 -2
        e 940 80 2b 00 -3
        e 738 90 24 5b -2
        e 201 80 24 00 -2
        e 35 90 23 57 -4
        e 208 80 23 00 -4
        e 28 90 24 49 -5
        e 227 80 24 00 -5
        e 6 90 26 54 -7
        e 239 80 26 00 -7
        e 1 90 28 5b -8
        e 218 80 28 00 -8
        e 21 90 2a 68 -8
        e 239 80 2a 00 -8
        e 1 90 26 53 -8
        e 220 80 26 00 -8
        e 17 90 28 49 -9
        e 243 90 2a 5d -8
        e 18 80 28 00 -9
        e 225 90 2b 50 -7
        e 1 80 2a 00 -8
        e 239 90 2a 5b -6
        e 2 80 2b 00 -7
        e 239 90 2b 51 -6
        e 4 80 2a 00 -6
        e 231 80 2b 00 -6
        e 8 90 2d 48 -5
        e 216 80 2d 00 -5
        e 26 90 2f 49 -4
        e 244 90 2d 55 -3
        e 16 80 2f 00 -4
        e 224 90 2b 47 -3
        e 9 80 2d 00 -3
        e 217 80 2b 00 -3
        e 12 90 2a 63 -4
        e 244 90 28 53 -2
        e 15 80 2a 00 -4
        e 223 80 28 00 -2
        e 2 90 26 5f -2
        e 242 90 24 53 -1
        e 17 80 26 00 -2
        e 220 80 24 00 -1
        e 0 90 23 57 -3
        e 218 80 23 00 -3
        e 23 90 21 48 -2
        e 1 90 24 51 -2
        e 281 80 24 00 -2
        e 201 90 1e 54 -1
        e 1 80 21 00 -2
        e 420 80 1e 00 -1
        e 55 90 1f 61 -2
        e 227 80 1f 00 -2
        e 12 90 21 5f -3
        e 221 80 21 00 -3
        e 20 90 23 59 -3
        e 470 80 23 00 -3
        e 11 90 25 5f -2
        e 474 80 25 00 -2
        e 7 90 27 68 -2
        e 483 80 27 00 -2
        e 0 90 28 5d -1
        e 485 80 28 00 -1
        e 1 90 26 5b 1
        e 449 80 26 00 1
        e 31 90 24 5d 2
        e 444 80 24 00 2
        e 32 90 23 61
        e 455 80 23 00
        e 22 90 24 59 -1
        e 862 80 24 00 -1
        e 90 90 26 57 -4
        e 409 80 26 00 -4
        e 75 90 26 51 -3
        e 486 90 28 59 -1
        e 9 80 26 00 -3
        e 416 80 28 00 -1
        e 59 90 28 51 1
        e 466 80 28 00 1
        e 11 90 2a 5b
        e 451 80 2a 00
        e 22 90 28 53 -2
        e 243 90 2a 57 -2
        e 21 80 28 00 -2
        e 218 80 2a 00 -2
        e 1 90 2b 54 -1
        e 189 80 2b 00 -1
        e 50 90 1f 63 -2
        e 208 80 1f 00 -2
        e 30 90 21 59 -2
        e 230 80 21 00 -2
        e 10 90 23 53 -2
        e 244 80 23 00 -2
        e 0 90 25 68 -1
        e 480 90 27 63 -1
        e 8 80 25 00 -1
        e 476 90 28 61
        e 4 80 27 00 -1
        e 232 80 28 00
        e 2 90 26 57
        e 213 80 26 00
        e 29 90 24 59 1
        e 375 80 24 00 1
        e 103 90 24 51
        e 462 80 24 00
        e 15 90 23 59 -1
        e 489 90 1c 70 2
        e 11 80 23 00 -1
        e 1926 80 1c 00 2
        E 458 b0 7b 00
        GUID {DF9D26BB-DA8E-5046-ABB7-54D78FB46B03}
        IGNTEMPO 0 120 4 4
        SRCCOLOR 475
        VELLANE -1 86 6
        CFGEDITVIEW 9757.785979 50.873974 62 16 0 0 0 0 0 0.5
        KEYSNAP 0
        TRACKSEL 226 0 0 ""
        EVTFILTER 0 -1 -1 -1 -1 0 0 0 0 -1 -1 -1 -1 0 -1 0 -1 -1
        CFGEDIT 1 0 0 0 0 0 1 0 1 1 1 0.25 48 95 1280 778 0 0 2 3 0 0 0 0 0 -1 0 0 0.27 64
      >
      TAKE
      NAME "tuba(s) - National_Anthems_-_Israel.mid"
      TAKEVOLPAN 0 1 -1
      SOFFS 0 0
      PLAYRATE 1 1 0 -1 0 0.0025
      CHANMODE 0
      GUID {285902B4-38E7-A949-A61D-7333FD6D39D5}
      <SOURCE MIDI
        HASDATA 1 480 QN
        POOLEDEVTS {8E68D191-FAAA-C148-93B0-5E7FB1FBC573}
        <X 0 0
          /wN0dWJhKHMp
        >
        <X 0 0
          /wRTb3VuZCBDYW52YXM=
        >
        E 475 93 28 54
        E 875 83 28 2e
        E 76 93 28 3f
        E 900 83 28 23
        E 69 93 28 50
        E 958 83 28 27
        E 0 93 26 53
        E 468 83 26 01
        E 20 93 24 4c
        E 951 83 24 28
        E 8 93 23 53
        E 855 83 23 2d
        E 95 93 23 45
        E 964 93 28 4d
        E 18 83 23 39
        E 462 93 1c 47
        E 10 83 28 24
        E 451 83 1c 4f
        E 493 93 30 3d
        E 459 83 30 1a
        E 12 93 2b 3b
        E 484 93 2c 43
        E 1 83 2b 01
        E 460 83 2c 2d
        E 21 93 2d 4f
        E 479 83 2d 24
        E 2 93 2a 49
        E 482 93 2b 3f
        E 4 83 2a 3a
        E 975 93 26 51
        E 39 83 2b 2f
        E 901 83 26 27
        E 6 93 28 3f
        E 709 83 28 25
        E 9 93 26 51
        E 217 83 26 28
        E 31 93 24 45
        E 469 83 24 1d
        E 10 93 23 45
        E 477 93 28 3b
        E 1 83 23 31
        E 736 83 28 3b
        E 228 93 24 49
        E 1902 83 24 2c
        E 11 93 2a 51
        E 447 83 2a 21
        E 33 93 26 48
        E 477 93 2b 3f
        E 5 83 26 24
        E 939 83 2b 4e
        E 739 93 24 5b
        E 201 83 24 20
        E 33 93 23 57
        E 208 83 23 43
        E 27 93 24 49
        E 227 83 24 08
        E 4 93 26 54
        E 239 83 26 50
        E 0 93 28 5b
        E 218 83 28 21
        E 21 93 2a 68
        E 239 83 2a 33
        E 1 93 26 53
        E 220 83 26 48
        E 16 93 28 49
        E 244 93 2a 5d
        E 17 83 28 1b
        E 227 83 2a 43
        E 0 93 2b 50
        E 241 93 2a 5b
        E 1 83 2b 17
        E 240 93 2b 51
        E 4 83 2a 11
        E 231 83 2b 21
        E 9 93 2d 48
        E 216 83 2d 1b
        E 27 93 2f 49
        E 245 93 2d 55
        E 15 83 2f 4f
        E 225 93 2b 47
        E 9 83 2d 2d
        E 217 83 2b 01
        E 11 93 2a 63
        E 246 93 28 53
        E 13 83 2a 4f
        E 225 83 28 22
        E 2 93 26 5f
        E 243 93 24 53
        E 16 83 26 01
        E 219 93 23 57
        E 2 83 24 01
        E 216 83 23 38
        E 24 93 21 48
        E 1 93 24 51
        E 281 83 24 4d
        E 202 83 21 4a
        E 0 93 1e 54
        E 421 83 1e 40
        E 54 93 1f 61
        E 227 83 1f 48
        E 11 93 21 5f
        E 221 83 21 39
        E 20 93 23 59
        E 470 83 23 19
        E 12 93 25 5f
        E 474 83 25 04
        E 7 93 27 68
        E 483 83 27 3e
        E 1 93 28 5d
        E 485 83 28 23
        E 3 93 26 5b
        E 449 83 26 22
        E 32 93 24 5d
        E 444 83 24 28
        E 30 93 23 61
        E 455 83 23 2b
        E 21 93 24 59
        E 862 83 24 2c
        E 87 93 26 57
        E 409 83 26 37
        E 76 93 26 51
        E 488 93 28 59
        E 7 83 26 50
        E 418 83 28 2b
        E 61 93 28 51
        E 466 83 28 0e
        E 10 93 2a 5b
        E 451 83 2a 3e
        E 20 93 28 53
        E 243 93 2a 57
        E 21 83 28 28
        E 218 83 2a 55
        E 2 93 2b 54
        E 189 83 2b 04
        E 49 93 1f 63
        E 208 83 1f 46
        E 30 93 21 59
        E 230 83 21 48
        E 10 93 23 53
        E 244 83 23 01
        E 1 93 25 68
        E 480 93 27 63
        E 8 83 25 16
        E 477 93 28 61
        E 3 83 27 4c
        E 233 83 28 38
        E 2 93 26 57
        E 213 83 26 2a
        E 30 93 24 59
        E 375 83 24 27
        E 102 93 24 51
        E 462 83 24 29
        E 14 93 23 59
        E 492 93 1c 70
        E 8 83 23 3c
        E 1929 83 1c 53
        E 456 b0 7b 00
        GUID {31EB99C7-0758-4F4A-8746-E888BF9AE036}
        IGNTEMPO 0 120 4 4
        SRCCOLOR 13488
        VELLANE -1 86 6
        CFGEDITVIEW 0 0 50 22 0 0 0 0 0 0.5
        KEYSNAP 0
        TRACKSEL 226 0 0 ""
        EVTFILTER 0 -1 -1 -1 -1 0 0 0 0 -1 -1 -1 -1 0 -1 0 -1 -1
        CFGEDIT 1 0 0 0 0 0 1 0 1 1 1 0.25 166 130 1414 829 0 0 2 3 0 0 0 0 0 -1 0 0 1 64
      >
    >
    <ITEM
      POSITION 0
      SNAPOFFS 0
      LENGTH 41
      LOOP 1
      ALLTAKES 0
      FADEIN 1 0 0 1 0 0
      FADEOUT 1 0 0 1 0 0
      MUTE 1
      SEL 0
      YPOS 0.75 0.083333
      IGUID {F3A11CCB-1372-9F48-A623-F03F7BD1B7E5}
      IID 2
      NAME "fr. horn(s) - National_Anthems_-_Israel.mid"
      VOLPAN 1 0 1 -1
      SOFFS 0 0
      PLAYRATE 1 1 0 -1 0 0.0025
      CHANMODE 0
      TAKECOLOR 26173599 B
      GUID {30E3712B-87D4-AF4C-B483-8D45D41B9EE7}
      <SOURCE MIDI
        HASDATA 1 480 QN
        POOLEDEVTS {9447395C-8555-6D4E-AADC-3A4A19A10BC2}
        <X 0 0
          /wNmci4gaG9ybihzKQ==
        >
        <X 0 0
          /wRTb3VuZCBDYW52YXM=
        >
        e 474 90 34 4b -2
        e 237 90 36 56 -3
        e 12 80 34 00 -2
        e 188 80 36 00 -3
        e 36 90 37 3a -5
        e 966 90 39 4b -2
        e 20 80 37 00 -5
        e 939 90 3b 3a -3
        e 3 80 39 00 -2
        e 961 90 37 4b -2
        e 13 80 3b 00 -3
        e 458 80 37 00 -2
        e 2 90 39 51 -4
        e 479 90 3b 4f -5
        e 6 80 39 00 -4
        e 954 90 39 47 -4
        e 21 80 3b 00 -5
        e 942 90 37 4e -4
        e 22 80 39 00 -4
        e 856 80 37 00 -4
        e 561 90 40 4f -4
        e 466 80 40 00 -4
        e 7 90 3e 59 -6
        e 482 90 41 56 -5
        e 28 80 3e 00 -6
        e 458 90 40 4d -3
        e 22 80 41 00 -5
        e 1419 90 3e 4d -3
        e 16 80 40 00 -3
        e 937 80 3e 00 -3
        e 4 90 3c 45 -4
        e 957 80 3c 00 -4
        e 5 90 3b 4f -4
        e 486 90 39 4d -1
        e 12 80 3b 00 -4
        e 386 80 39 00 -1
        e 77 90 39 49 -3
        e 479 90 37 4d -4
        e 5 80 39 00 -3
        e 973 80 37 00 -4
        e 470 90 43 49 -1
        e 385 80 43 00 -1
        e 93 90 43 4b -1
        e 477 90 40 53 -2
        e 5 80 43 00 -1
        e 479 90 45 4e -1
        e 20 80 40 00 -2
        e 440 80 45 00 -1
        e 14 90 42 5d -3
        e 464 80 42 00 -3
        e 17 90 43 5b -3
        e 240 90 42 63 -3
        e 14 80 43 00 -3
        e 210 80 42 00 -3
        e 14 90 40 5a -4
        e 232 80 40 00 -4
        e 8 90 3e 52 -4
        e 243 80 3e 00 -4
        e 6 90 40 57
        e 473 90 4c 51 -2
        e 40 80 40 00
        e 370 80 4c 00 -2
        e 66 90 4c 55 -4
        e 407 80 4c 00 -4
        e 74 90 4c 56 -4
        e 347 80 4c 00 -4
        e 132 90 45 4f -4
        e 0 90 4a 51 -4
        e 241 80 4a 00 -4
        e 1 90 4c 3f -3
        e 228 80 4c 00 -3
        e 8 90 4a 55 -5
        e 242 90 48 52 -4
        e 6 80 4a 00 -5
        e 167 80 45 00 -4
        e 49 80 48 00 -4
        e 22 90 47 57 -3
        e 1 90 43 45 -2
        e 803 80 43 00 -2
        e 125 80 47 00 -3
        e 31 90 43 57 -2
        e 0 90 4a 4f -2
        e 402 80 4a 00 -2
        e 81 90 4a 5a -2
        e 150 80 4a 00 -2
        e 85 90 4a 4e -4
        e 160 80 43 00 -2
        e 84 90 43 59 -2
        e 29 80 4a 00 -4
        e 368 80 43 00 -2
        e 85 90 43 55 -1
        e 379 80 43 00 -1
        e 103 90 45 5b -1
        e 234 80 45 00 -1
        e 0 90 47 5a -2
        e 239 90 48 51 -3
        e 9 80 47 00 -2
        e 231 90 4a 47 -3
        e 7 80 48 00 -3
        e 236 90 47 5f -2
        e 8 80 4a 00 -3
        e 446 80 47 00 -2
        e 25 90 45 4e -2
        e 225 80 45 00 -2
        e 13 90 43 5d -3
        e 228 80 43 00 -3
        e 14 90 40 4f -2
        e 2 90 45 53 -1
        e 393 80 45 00 -1
        e 85 90 45 4e -2
        e 486 90 43 51
        e 1 80 45 00 -2
        e 368 80 43 00
        e 104 90 43 5b -2
        e 201 80 43 00 -2
        e 71 90 43 55 9
        e 127 80 43 00 9
        e 36 80 40 00 -2
        e 49 90 42 56 -1
        e 235 90 40 52 -3
        e 6 80 42 00 -1
        e 233 90 42 5d -3
        e 24 80 40 00 -3
        e 216 90 43 5a -4
        e 2 80 42 00 -3
        e 228 80 43 00 -4
        e 10 90 40 53 -3
        e 839 80 40 00 -3
        e 146 90 39 55 6
        e 203 80 39 00 6
        e 24 90 3b 4e 1
        e 228 80 3b 00 1
        e 13 90 3c 4f 1
        e 449 80 3c 00 1
        e 22 90 3b 59 -2
        e 478 90 3d 5a -3
        e 2 80 3b 00 -2
        e 462 80 3d 00 -3
        e 16 90 3e 59 -3
        e 905 80 3e 00 -3
        e 57 90 3e 4d -2
        e 893 80 3e 00 -2
        e 79 90 39 55 3
        e 476 90 3b 57 1
        e 8 80 39 00 3
        e 914 80 3b 00 1
        e 31 90 3a 53 -2
        e 455 80 3a 00 -2
        e 22 90 39 52 -3
        e 404 80 39 00 -3
        e 77 90 3b 57 -2
        e 483 80 3b 00 -1
        e 0 90 3b 5b -1
        e 13 80 3b 00 -1
        E 1910 b0 7b 00
        GUID {1A15F516-AE8D-5E4C-9290-FC9BC64570F8}
        IGNTEMPO 0 120 4 4
        SRCCOLOR 473
        VELLANE -1 86 6
        CFGEDITVIEW 7142.581956 38.165981 62 16 0 0 0 0 0 0.5
        KEYSNAP 0
        TRACKSEL 226 0 0 ""
        EVTFILTER 0 -1 -1 -1 -1 0 0 0 0 -1 -1 -1 -1 0 -1 0 -1 -1
        CFGEDIT 1 0 0 0 0 0 1 0 1 1 1 0.25 48 95 1280 778 0 0 2 3 0 0 0 0 0 -1 0 0 0.27 64
      >
      TAKE
      NAME "fr. horn(s) - National_Anthems_-_Israel.mid"
      TAKEVOLPAN 0 1 -1
      SOFFS 0 0
      PLAYRATE 1 1 0 -1 0 0.0025
      CHANMODE 0
      GUID {8B39402B-7231-F14F-AD41-9ACC96CAB313}
      <SOURCE MIDI
        HASDATA 1 480 QN
        POOLEDEVTS {08A042D8-6D44-254C-B37A-E2945FCCCF18}
        <X 0 0
          /wNmci4gaG9ybihzKQ==
        >
        <X 0 0
          /wRTb3VuZCBDYW52YXM=
        >
        E 472 91 34 4b
        E 236 91 36 56
        E 13 81 34 30
        E 187 81 36 27
        E 34 91 37 3a
        E 969 91 39 4b
        E 17 81 37 10
        E 941 91 3b 3a
        E 4 81 39 10
        E 961 91 37 4b
        E 12 81 3b 01
        E 459 81 37 01
        E 0 91 39 51
        E 478 91 3b 4f
        E 7 81 39 29
        E 954 91 39 47
        E 20 81 3b 18
        E 943 91 37 4e
        E 22 81 39 06
        E 856 81 37 47
        E 561 91 40 4f
        E 466 81 40 28
        E 5 91 3e 59
        E 483 91 41 56
        E 27 81 3e 04
        E 461 91 40 4d
        E 20 81 41 35
        E 1421 91 3e 4d
        E 16 81 40 11
        E 937 81 3e 27
        E 3 91 3c 45
        E 957 81 3c 20
        E 5 91 3b 4f
        E 489 91 39 4d
        E 9 81 3b 2d
        E 389 81 39 39
        E 75 91 39 49
        E 478 91 37 4d
        E 6 81 39 17
        E 972 81 37 4a
        E 473 91 43 49
        E 385 81 43 40
        E 93 91 43 4b
        E 476 91 40 53
        E 6 81 43 25
        E 479 91 45 4e
        E 19 81 40 1c
        E 441 81 45 3d
        E 12 91 42 5d
        E 464 81 42 13
        E 17 91 43 5b
        E 240 91 42 63
        E 14 81 43 43
        E 210 81 42 33
        E 13 91 40 5a
        E 232 81 40 39
        E 8 91 3e 52
        E 243 81 3e 35
        E 10 91 40 57
        E 471 91 4c 51
        E 42 81 40 01
        E 368 81 4c 49
        E 64 91 4c 55
        E 407 81 4c 47
        E 74 91 4c 56
        E 347 81 4c 31
        E 132 91 45 4f
        E 0 91 4a 51
        E 241 81 4a 3d
        E 2 91 4c 3f
        E 228 81 4c 42
        E 6 91 4a 55
        E 243 91 48 52
        E 5 81 4a 4b
        E 168 81 45 43
        E 49 81 48 3f
        E 23 91 47 57
        E 2 91 43 45
        E 803 81 43 23
        E 124 81 47 27
        E 32 91 4a 4f
        E 0 91 43 57
        E 402 81 4a 3b
        E 81 91 4a 5a
        E 150 81 4a 3f
        E 83 91 4a 4e
        E 162 81 43 25
        E 84 91 43 59
        E 27 81 4a 1a
        E 370 81 43 3a
        E 86 91 43 55
        E 379 81 43 45
        E 103 91 45 5b
        E 233 91 47 5a
        E 1 81 45 2b
        E 237 91 48 51
        E 10 81 47 01
        E 230 91 4a 47
        E 7 81 48 36
        E 237 91 47 5f
        E 7 81 4a 4a
        E 447 81 47 43
        E 25 91 45 4e
        E 225 81 45 46
        E 12 91 43 5d
        E 228 81 43 2a
        E 15 91 40 4f
        E 3 91 45 53
        E 393 81 45 39
        E 84 91 45 4e
        E 487 81 45 3f
        E 1 91 43 51
        E 369 81 43 3e
        E 102 91 43 5b
        E 201 81 43 2d
        E 82 91 43 55
        E 127 81 43 3b
        E 25 81 40 26
        E 50 91 42 56
        E 233 91 40 52
        E 8 81 42 20
        E 231 91 42 5d
        E 24 81 40 2d
        E 215 91 43 5a
        E 3 81 42 34
        E 227 81 43 46
        E 11 91 40 53
        E 839 81 40 35
        E 155 91 39 55
        E 203 81 39 30
        E 19 91 3b 4e
        E 228 81 3b 01
        E 13 91 3c 4f
        E 449 81 3c 41
        E 19 91 3b 59
        E 477 91 3d 5a
        E 3 81 3b 17
        E 461 81 3d 37
        E 16 91 3e 59
        E 905 81 3e 3e
        E 58 91 3e 4d
        E 893 81 3e 01
        E 84 91 39 55
        E 474 91 3b 57
        E 10 81 39 11
        E 912 81 3b 01
        E 28 91 3a 53
        E 455 81 3a 39
        E 21 91 39 52
        E 404 81 39 38
        E 78 91 3b 57
        E 484 91 3b 5b
        E 13 81 3b 37
        E 1659 81 3b 5c
        E 252 b0 7b 00
        GUID {6912AD15-410F-4344-851B-B5065FBDB0D8}
        IGNTEMPO 0 120 4 4
        SRCCOLOR 13491
        VELLANE -1 86 6
        CFGEDITVIEW 0 0 50 22 0 0 0 0 0 0.5
        KEYSNAP 0
        TRACKSEL 226 0 0 ""
        EVTFILTER 0 -1 -1 -1 -1 0 0 0 0 -1 -1 -1 -1 0 -1 0 -1 -1
        CFGEDIT 1 0 0 0 0 0 1 0 1 1 1 0.25 166 130 1414 829 0 0 2 3 0 0 0 0 0 -1 0 0 1 64
      >
    >
  >
  <TRACK {CC74D01B-E218-4E4D-A490-FD01DDD0745B}
    NAME 8BitShaper1
    PEAKCOL 16576
    BEAT -1
    AUTOMODE 0
    VOLPAN 0.5228261849445 0 -1 -1 1
    MUTESOLO 0 0 0
    IPHASE 0
    ISBUS 0 0
    BUSCOMP 0 0
    SHOWINMIX 1 1 0.5 1 0.5 0 0 0
    FREEMODE 0
    SEL 1
    REC 0 0 0 0 0 0 0
    VU 2
    TRACKHEIGHT 276 0
    INQ 0 0 0 0.5 100 0 0 100
    NCHAN 2
    FX 1
    TRACKID {CC74D01B-E218-4E4D-A490-FD01DDD0745B}
    PERF 0
    MIDIOUT -1
    MAINSEND 1 0
    <FXCHAIN
      WNDRECT 528 36 724 387
      SHOW 0
      LASTSEL 0
      DOCKED 1
      BYPASS 0 0 0
      <VST "VSTi: BlueARP.x64 (graywolf2004)" BlueARP.x64.vst 0 "" 929322872
        eFdkN+5e7f4AAAAAAgAAAAEAAAAAAAAAAgAAAAAAAACMkwAAAQAAAAAAEAA=
        dGZmcAAAAQAOAAEBAQAAAAACCP8FAAAAAAAAAAD///8QDw8PAAAAAAAAAAAAAAAA////FwAAAAAAAAAAAAAAAAAAAP///xMAAAAAAAAAAAAAAAAAAAD///8JCQoKAAAA
        AAAAAAAAAAAA////NgAAAAAAAAAAAAAAAAAAAP///z4/AAAAAAAAAAAAAAAAAAD///8hISEiAAAAAAAAAAAAAAAA////GxsAAAAAAAAAAAAAAAAAAP///wAAAAAAAAAA
        AAAAAAAAAAD///8AAAAAAAAAAAAAAAAAAAAA////AAAAAAAAAAAAAAAAAAAAAP///wAAAAAAAAAAAAAAAAAAAAD///8AAAAAAAAAAAAAAAAAAAAA////AAAAAAAAAAAA
        AAAAAAAAAP///wAAAAAAAAAAAAAAAAAAAAD///8AAAAAAAAAAAAAAAAAAAAOCDcDAQMAfwB/AEAAAQABAAAAAAAAAAAAfwAAAAAAAAAAAAAAAAAAAAAAAAAAAAAAAAAA
        AAAAAAAAAAAAAAAAAAAAAAAAAAAAAAAAAAAAAAAAAAAAAAAAAAAAAAAAAAAAAAAAAAAAAAAAAAAAAAAAAAAAAAAAAAAAAAAAAAAAAAAAAAAAAAAAAAAAAAAAAAAAAAAA
        AAAAAAAICAgICAgICAgICAgICAgICAgICAgICAgICAgICAgICAgICAgICAgICAgICAgICAgICAgICAgICAgICAgICAgIAQEBAQIDAQEBAQEBAQEBAQEBAQEBAQEBAQEB
        AQEBAQEBAQEBAQEBAQEBAQEBAQEBAQEBAQEBAQEBAQEBAQEBAQQCECAEAhAgBAQEBAQEBAQEBAQEBAQEBAQEBAQEBAQEBAQEBAQEBAQEBAQEBAQEBAQEBAQEBAQEBAQE
        BAQEBARgYGBgYGBgYGBgYGBgYGBgYGBgYGBgYGBgYGBgYGBgYGBgYGBgYGBgYGBgYGBgYGBgYGBgYGBgYGBgYGBgYGBgAAAAAAAAAAAAAAAAAAAAAAAAAAAAAAAAAAAA
        AAAAAAAAAAAAAAAAAAAAAAAAAAAAAAAAAAAAAAAAAAAAAAAAAAAAAAAAAAAAAAAAAAAAAAAAAAAAAAAAAAAAAAAAAAAAAAAAAAAAAAAAAAAAAAAAAAAAAAAAAAAAAAAA
        AAAAAAAtIEluaXRpYWwgcHJvZ3JhbSAtAP9/AAAEDOsSAQAAAfRgZhcBAAAAAAABADABAAAOEDIDAQcAfwB/AEAAAQABAAAAAAAAAAAAfwAAAAAAAAAAAAAAAAAAAAAA
        AAAAAAAAAAAAAAAAAAAAAAAAAAAAAAAAAAAAAAAAAAAAAAAAAAAAAAAAAAAAAAAAAAAAAAAAAAAAAAAAAAAAAAAAAAAAAAAAAAAAAAAAAAAAAAAAAAAAAAAAAAAAAAAA
        AAAAAAAAAAAAAAAAAAAICAgICAgICAgICAgICAgICAgICAgICAgICAgICAgICAgICAgICAgICAgICAgICAgICAgICAgICAgICAgICAgIAQEBAQEBAQEBAQEBAQEBAQEB
        AQEBAQEBAQEBAQEBAQEBAQEBAQEBAQEBAQEBAQEBAQEBAQEBAQEBAQEBAQEBAQQIECAECBAgBAgQIAQIECAEBAQEBAQEBAQEBAQEBAQEBAQEBAQEBAQEBAQEBAQEBAQE
        BAQEBAQEBAQEBAQEBARgYGBgYGBgYGBgYGBgYGBgYGBgYGBgYGBgYGBgYGBgYGBgYGBgYGBgYGBgYGBgYGBgYGBgYGBgYGBgYGBgYGBgAAAAAAAAAAAAAAAAAAAAAAAA
        AAAAAAAAAAAAAAAAAAAAAAAAAAAAAAAAAAAAAAAAAAAAAAAAAAAAAAAAAAAAAAAAAAAAAAAAAAAAAAAAAAAAAAAAAAAAAAAAAAAAAAAAAAAAAAAAAAAAAAAAAAAAAAAA
        AAAAAAAAAAAAAAAAAABTaW1wbGUgNGsgVXAAAAAAkCa+X/9/AACwuOoSAQAAAAQnvl//fwAA9GBmFwEAAAAOEDIDAQcAfwB/AEAAAQABAAAAAAAAAAAAfwAAAAAAAAAA
        AAAAAAAAAAAAAAAAAAAAAAAAAAAAAAAAAAAAAAAAAAAAAAAAAAAAAAAAAAAAAAAAAAAAAAAAAAAAAAAAAAAAAAAAAAAAAAAAAAAAAAAAAAAAAAAAAAAAAAAAAAAAAAAA
        AAAAAAAAAAAAAAAAAAAAAAAAAAAAAAAICAgICAgICAgICAgICAgICAgICAgICAgICAgICAgICAgICAgICAgICAgICAgICAgICAgICAgICAgICAgICAgIAQEBAQEBAQEB
        AQEBAQEBAQEBAQEBAQEBAQEBAQEBAQEBAQEBAQEBAQEBAQEBAQEBAQEBAQEBAQEBAQEBAQEBASAQCAQgEAgEIBAIBCAQCAQEBAQEBAQEBAQEBAQEBAQEBAQEBAQEBAQE
        BAQEBAQEBAQEBAQEBAQEBAQEBAQEBARgYGBgYGBgYGBgYGBgYGBgYGBgYGBgYGBgYGBgYGBgYGBgYGBgYGBgYGBgYGBgYGBgYGBgYGBgYGBgYGBgYGBgAAAAAAAAAAAA
        AAAAAAAAAAAAAAAAAAAAAAAAAAAAAAAAAAAAAAAAAAAAAAAAAAAAAAAAAAAAAAAAAAAAAAAAAAAAAAAAAAAAAAAAAAAAAAAAAAAAAAAAAAAAAAAAAAAAAAAAAAAAAAAA
        AAAAAAAAAAAAAAAAAAAAAAAAAAAAAABTaW1wbGUgNGsgRG93bgAAkCa+X/9/AACwuOoSAQAAAAQnvl//fwAA9GBmFwEAAAAOEDIDAQcAfwB/AEAAAQABAAAAAAAAAAAA
        fwAAAAAAAAAAAAAAAAAAAAAAAAAAAAAAAAAAAAAAAAAAAAAAAAAAAAAAAAAAAAAAAAAAAAAAAAAAAAAAAAAAAAAAAAAAAAAAAAAAAAAAAAAAAAAAAAAAAAAAAAAAAAAA
        AAAAAAAAAAAAAAAAAAAAAAAAAAAAAAAAAAAAAAAAAAAICAgICAgICAgICAgICAgICAgICAgICAgICAgICAgICAgICAgICAgICAgICAgICAgICAgICAgICAgICAgICAgI
        AQEBAQEBAQEBAQEBAQEBAQEBAQEBAQEBAQEBAQEBAQEBAQEBAQEBAQEBAQEBAQEBAQEBAQEBAQEBAQEBAQEBAQQIEAQIEAQIEAQIEAQIEAgEBAQEBAQEBAQEBAQEBAQE
        BAQEBAQEBAQEBAQEBAQEBAQEBAQEBAQEBAQEBAQEBARgYGBgYGBgYGBgYGBgYGBgYGBgYGBgYGBgYGBgYGBgYGBgYGBgYGBgYGBgYGBgYGBgYGBgYGBgYGBgYGBgYGBg
        AAAAAAAAAAAAAAAAAAAAAAAAAAAAAAAAAAAAAAAAAAAAAAAAAAAAAAAAAAAAAAAAAAAAAAAAAAAAAAAAAAAAAAAAAAAAAAAAAAAAAAAAAAAAAAAAAAAAAAAAAAAAAAAA
        AAAAAAAAAAAAAAAAAAAAAAAAAAAAAAAAAAAAAAAAAABTaW1wbGUgM2sgVXAAAAAAkCa+X/9/AACwuOoSAQAAAAQnvl//fwAA9GBmFwEAAAAOEDIDAQcAfwB/AEAAAQAB
        AAAAAAAAAAAAfwAAAAAAAAAAAAAAAAAAAAAAAAAAAAAAAAAAAAAAAAAAAAAAAAAAAAAAAAAAAAAAAAAAAAAAAAAAAAAAAAAAAAAAAAAAAAAAAAAAAAAAAAAAAAAAAAAA
        AAAAAAAAAAAAAAAAAAAAAAAAAAAAAAAAAAAAAAAAAAAAAAAAAAAAAAAICAgICAgICAgICAgICAgICAgICAgICAgICAgICAgICAgICAgICAgICAgICAgICAgICAgICAgI
        CAgICAgICAgIAQEBAQEBAQEBAQEBAQEBAQEBAQEBAQEBAQEBAQEBAQEBAQEBAQEBAQEBAQEBAQEBAQEBAQEBAQEBAQEBAQEBARAIBBAIBBAIBBAIBBAIBAgEBAQEBAQE
        BAQEBAQEBAQEBAQEBAQEBAQEBAQEBAQEBAQEBAQEBAQEBAQEBAQEBARgYGBgYGBgYGBgYGBgYGBgYGBgYGBgYGBgYGBgYGBgYGBgYGBgYGBgYGBgYGBgYGBgYGBgYGBg
        YGBgYGBgYGBgAAAAAAAAAAAAAAAAAAAAAAAAAAAAAAAAAAAAAAAAAAAAAAAAAAAAAAAAAAAAAAAAAAAAAAAAAAAAAAAAAAAAAAAAAAAAAAAAAAAAAAAAAAAAAAAAAAAA
        AAAAAAAAAAAAAAAAAAAAAAAAAAAAAAAAAAAAAAAAAAAAAAAAAAAAAABTaW1wbGUgM2sgRG93bgAAkCa+X/9/AACwuOoSAQAAAAQnvl//fwAA9GBmFwEAAAAOCFoDAQAA
        fwB/AEAAAQABAAAAAAAAAAAAfwAAAAAAAAAAAAAAAAAAAAAAAAAAAAAAAAAAAAAAAAAAAAAAAAAAAAAAAAAAAAAAAAAAAAAAAAAAAAAAAAAAAAAAAAAAAAAAAAAAAAAA
        AAAAAAAAAAAAAAAAAAAAAAAAAAAAAAAAAAAAAAAAAAAAAAAAAAAAAAAAAAAAAAAAAAAICAQICAgECAgICAgICAgICAgICAgICAgICAgICAgICAgICAgICAgICAgICAgI
        CAgICAgICAgICAgICAgICAgIBAAEAAQABAABAQEBAQEBAQEBAQEBAQEBAQEBAQEBAQEBAQEBAQEBAQEBAQEBAQEBAQEBAQEBAQEBAQEBAQEBAQQEBAQEBAQEBAQEBAQE
        BAQEBAQEBAQEBAQEBAQEBAQEBAQEBAQEBAQEBAQEBAQEBAQEBAQEBAQEBAQEBAQEBAQwYGBgMGBgYGBgYGBgYGBgYGBgYGBgYGBgYGBgYGBgYGBgYGBgYGBgYGBgYGBg
        YGBgYGBgYGBgYGBgYGBgYGBgAAAAAAAAAAAAAAAAAAAAAAAAAAAAAAAAAAAAAAAAAAAAAAAAAAAAAAAAAAAAAAAAAAAAAAAAAAAAAAAAAAAAAAAAAAAAAAAAAAAAAAAA
        AAAAAAAAAAAAAAAAAAAAAAAAAAAAAAAAAAAAAAAAAAAAAAAAAAAAAAAAAAAAAAAAAABDaG9yZCBEZWFkbWF1NSBwbHVja3MgdmFyMQASAQAAAAQnvl//fwAA9GBmFwEA
        AAAOCFoDAQAAfwB/AEAAAQABAAAAAAAAAAAAfwEAAAAAAAAAAAAAAAAAAAAAAAAAAAAAAAAAAAAAAAAAAAAAAAAAAAAAAAAAAAAAAAAAAAAAAAAAAAAAAAAAAAAAAAAA
        AAAAAAAAAAAAAAAAAAAAAAAAAAAAAAAAAAAAAAAAAAAAAAAAAAAAAAAAAAAAAAAAAAAAAAAAAAAAAAAMCA4IDAgOCAgICAgICAgICAgICAgICAgICAgICAgICAgICAgI
        CAgICAgICAgICAgICAgICAgICAgICAgICAgIBAAEAAQABAABAQEBAQEBAQEBAQEBAQEBAQEBAQEBAQEBAQEBAQEBAQEBAQEBAQEBAQEBAQEBAQEBAQEBAQEBAQQEBAQE
        BAQEBAQEBAQEBAQEBAQEBAQEBAQEBAQEBAQEBAQEBAQEBAQEBAQEBAQEBAQEBAQEBAQEBAQEBAQEBAQwYGBgMGBgYGBgYGBgYGBgYGBgYGBgYGBgYGBgYGBgYGBgYGBg
        YGBgYGBgYGBgYGBgYGBgYGBgYGBgYGBgYGBgAAAAAAAAAAAAAAAAAAAAAAAAAAAAAAAAAAAAAAAAAAAAAAAAAAAAAAAAAAAAAAAAAAAAAAAAAAAAAAAAAAAAAAAAAAAA
        AAAAAAAAAAAAAAAAAAAAAAAAAAAAAAAAAAAAAAAAAAAAAAAAAAAAAAAAAAAAAAAAAAAAAAAAAAAAAABDaG9yZCBEZWFkbWF1NSBwbHVja3MgdmFyMgASAQAAAAQnvl//
        fwAA9GBmFwEAAAAOEEoDAQAAfwB/AEAAAQABAAAAAAAAAAAAfwEAAAAAAAAAAAAAAAAAAAAAAAAAAAAAAAAAAAAAAAAAAAAAAAAAAAAAAAAAAAAAAAAAAAAAAAAAAAAA
        AAAAAAAAAAAAAAAAAAAAAAAAAAAAAAAAAAAAAAAAAAAAAAAAAAAAAAAAAAAAAAAAAAAAAAAAAAAAAAAAAAAAAAAAAAAICAgMCAgICAgMCAgICAwICAgICAgICAgICAgI
        CAgICAgICAgICAgICAgICAgICAgICAgICAgICAgICAgICAgIBAAABAAABAAABAAABAAEAAEBAQEBAQEBAQEBAQEBAQEBAQEBAQEBAQEBAQEBAQEBAQEBAQEBAQEBAQEB
        AQEBAQQEBAQEBAQEBAQEBAQEBAQEBAQEBAQEBAQEBAQEBAQEBAQEBAQEBAQEBAQEBAQEBAQEBAQEBAQEBAQEBAQEBARgYGBgYGBgYGBgYGBgYGBgYGBgYGBgYGBgYGBg
        YGBgYGBgYGBgYGBgYGBgYGBgYGBgYGBgYGBgYGBgYGBgYGBgAAAAAAAAAAAAAAAAAAAAAAAAAAAAAAAAAAAAAAAAAAAAAAAAAAAAAAAAAAAAAAAAAAAAAAAAAAAAAAAA
        AAAAAAAAAAAAAAAAAAAAAAAAAAAAAAAAAAAAAAAAAAAAAAAAAAAAAAAAAAAAAAAAAAAAAAAAAAAAAAAAAAAAAAAAAABQb2x5cGhvbmljIG9jdC4gUGx1Y2tzIHZhcjEA
        AQAAAAQnvl//fwAA9GBmFwEAAAAOEEoDAQAAfwB/AEAAAQABAAAAAAAAAAAAfwEAAAAAAAAAAAAAAAAAAAAAAAAAAAAAAAAAAAAAAAAAAAAAAAAAAAAAAAAAAAAAAAAA
        AAAAAAAAAAAAAAAAAAAAAAAAAAAAAAAAAAAAAAAAAAAAAAAAAAAAAAAAAAAAAAAAAAAAAAAAAAAAAAAAAAAAAAAAAAAAAAAAAAAAAAAMCAgOCAgMCAgOCAgMCA4ICAgI
        CAgICAgICAgICAgICAgICAgICAgICAgICAgICAgICAgICAgICAgICAgICAgIBAAABAAABAAABAAABAAEAAEBAQEBAQEBAQEBAQEBAQEBAQEBAQEBAQEBAQEBAQEBAQEB
        AQEBAQEBAQEBAQEBAQQEBAQEBAQEBAQEBAQEBAQEBAQEBAQEBAQEBAQEBAQEBAQEBAQEBAQEBAQEBAQEBAQEBAQEBAQEBAQEBAQEBARgYGBgYGBgYGBgYGBgYGBgYGBg
        YGBgYGBgYGBgYGBgYGBgYGBgYGBgYGBgYGBgYGBgYGBgYGBgYGBgYGBgYGBgAAAAAAAAAAAAAAAAAAAAAAAAAAAAAAAAAAAAAAAAAAAAAAAAAAAAAAAAAAAAAAAAAAAA
        AAAAAAAAAAAAAAAAAAAAAAAAAAAAAAAAAAAAAAAAAAAAAAAAAAAAAAAAAAAAAAAAAAAAAAAAAAAAAAAAAAAAAAAAAAAAAAAAAAAAAABQb2x5cGhvbmljIG9jdC4gUGx1
        Y2tzIHZhcjIAAQAAAAQnvl//fwAA9GBmFwEAAAAOEDQDAQAAfwB/AEAAAQABAAAAAAAAAAAAfwEAAAAAAAAAAAAAAAAAAAAAAAAAAAAAAAAAAAAAAAAAAAAAAAAAAAAA
        AAAAAAAAAAAAAAAAAAAAAAAAAAAAAAAAAAAAAAAAAAAAAAAAAAAAAAAAAAAAAAAAAAAAAAAAAAAAAAAAAAAAAAAAAAAAAAAAAAAAAAAAAAAAAAAAAAAMCAgOCAgMCAgO
        CAgMCA4ICAgICAgICAgICAgICAgICAgICAgICAgICAgICAgICAgICAgICAgICAgICAgICAgIBAICBAICBAICBAICBAIEAgEBAQEBAQEBAQEBAQEBAQEBAQEBAQEBAQEB
        AQEBAQEBAQEBAQEBAQEBAQEBAQEBAQQEBAQEBAQEBAQEBAQEBAQEBAQEBAQEBAQEBAQEBAQEBAQEBAQEBAQEBAQEBAQEBAQEBAQEBAQEBAQEBAQEBARgYGBgYGBgYGBg
        YGBgYGBgYGBgYGBgYGBgYGBgYGBgYGBgYGBgYGBgYGBgYGBgYGBgYGBgYGBgYGBgYGBgYGBgAAAAAAAAAAAAAAAAAAAAAAAAAAAAAAAAAAAAAAAAAAAAAAAAAAAAAAAA
        AAAAAAAAAAAAAAAAAAAAAAAAAAAAAAAAAAAAAAAAAAAAAAAAAAAAAAAAAAAAAAAAAAAAAAAAAAAAAAAAAAAAAAAAAAAAAAAAAAAAAAAAAAAAAAAAAABQb2x5cGhvbmlj
        IG9jdC4gUGx1Y2tzIHZhcjMAAQAAAAQnvl//fwAA9GBmFwEAAAAOEDIDAQAAfwB/AEAAAQABAAAAAAAAAAAAfwAAAAAAAAAAAAAAAAAAAAAAAAAAAAAAAAAAAAAAAAAA
        AAAAAAAAAAAAAAAAAAAAAAAAAAAAAAAAAAAAAAAAAAAAAAAAAAAAAAAAAAAAAAAAAAAAAAAAAAAAAAAAAAAAAAAAAAAAAAAAAAAAAAAAAAAAAAAAAAAAAAAAAAAAAAAI
        CAgICAgICAgICAgICAgICAgICAgICAgICAgICAgICAgICAgICAgICAgICAgICAgICAgICAgICAgICAgICAgIBAQABAQABAQABAQABAAEAAEBAQEBAQEBAQEBAQEBAQEB
        AQEBAQEBAQEBAQEBAQEBAQEBAQEBAQEBAQEBAQEBAQQEBAQEBAQEBAQEBAQEBAQEBAQEBAQEBAQEBAQEBAQEBAQEBAQEBAQEBAQEBAQEBAQEBAQEBAQEBAQEBAQEBARg
        YGBgYGBgYGBgYGBgYGBgYGBgYGBgYGBgYGBgYGBgYGBgYGBgYGBgYGBgYGBgYGBgYGBgYGBgYGBgYGBgYGBgAAAAAAAAAAAAAAAAAAAAAAAAAAAAAAAAAAAAAAAAAAAA
        AAAAAAAAAAAAAAAAAAAAAAAAAAAAAAAAAAAAAAAAAAAAAAAAAAAAAAAAAAAAAAAAAAAAAAAAAAAAAAAAAAAAAAAAAAAAAAAAAAAAAAAAAAAAAAAAAAAAAAAAAAAAAABB
        cnAgQ2hvcmQgR2F0ZWQgMDEAX/9/AACwuOoSAQAAAAQnvl//fwAA9GBmFwEAAAAOEDIDAQAAfwB/AEAAAQABAAAAAAAAAAAAfwAAAAAAAAAAAAAAAAAAAAAAAAAAAAAA
        AAAAAAAAAAAAAAAAAAAAAAAAAAAAAAAAAAAAAAAAAAAAAAAAAAAAAAAAAAAAAAAAAAAAAAAAAAAAAAAAAAAAAAAAAAAAAAAAAAAAAAAAAAAAAAAAAAAAAAAAAAAAAAAA
        AAAAAAAAAAAICAgICAgICAgICAgICAgICAgICAgICAgICAgICAgICAgICAgICAgICAgICAgICAgICAgICAgICAgICAgICAgIBAAEAAQABAAEAAQAAAQABAEBAQEBAQEB
        AQEBAQEBAQEBAQEBAQEBAQEBAQEBAQEBAQEBAQEBAQEBAQEBAQEBAQQEBAQEBAQEBAQEBAQEBAQEBAQEBAQEBAQEBAQEBAQEBAQEBAQEBAQEBAQEBAQEBAQEBAQEBAQE
        BAQEBAQEBARgYGBgYGBgYGBgYGBgYGBgYGBgYGBgYGBgYGBgYGBgYGBgYGBgYGBgYGBgYGBgYGBgYGBgYGBgYGBgYGBgYGBgAAAAAAAAAAAAAAAAAAAAAAAAAAAAAAAA
        AAAAAAAAAAAAAAAAAAAAAAAAAAAAAAAAAAAAAAAAAAAAAAAAAAAAAAAAAAAAAAAAAAAAAAAAAAAAAAAAAAAAAAAAAAAAAAAAAAAAAAAAAAAAAAAAAAAAAAAAAAAAAAAA
        AAAAAAAAAABBcnAgQ2hvcmQgR2F0ZWQgMDIAX/9/AACwuOoSAQAAAAQnvl//fwAA9GBmFwEAAAAOEDIDAQAAfwB/AEAAAQABAAAAAAAAAAAAfwAAAAAAAAAAAAAAAAAA
        AAAAAAAAAAAAAAAAAAAAAAAAAAAAAAAAAAAAAAAAAAAAAAAAAAAAAAAAAAAAAAAAAAAAAAAAAAAAAAAAAAAAAAAAAAAAAAAAAAAAAAAAAAAAAAAAAAAAAAAAAAAAAAAA
        AAAAAAAAAAAAAAAAAAAAAAAICAgICAgICAgICAgICAgICAgICAgICAgICAgICAgICAgICAgICAgICAgICAgICAgICAgICAgICAgICAgICAgIBAQABAQABAQABAQABAAE
        AAEBAQEBAQEBAQEBAQEBAQEBAQEBAQEBAQEBAQEBAQEBAQEBAQEBAQEBAQEBAQEBAQQEBAQEBAQEBAQEBAQEBAQEBAQEBAQEBAQEBAQEBAQEBAQEBAQEBAQEBAQEBAQE
        BAQEBAQEBAQEBAQEBAQEBARgYGBgYGBgYGBgYGBgYGBgYGBgYGBgYGBgYGBgYGBgYGBgYGBgYGBgYGBgYGBgYGBgYGBgYGBgYGBgYGBgYGBgAAAAAAAAAAAAAAAAAAAA
        AAAAAAAAAAAAAAAAAAAAAAAAAAAAAAAAAAAAAAAAAAAAAAAAAAAAAAAAAAAAAAAAAAAAAAAAAAAAAAAAAAAAAAAAAAAAAAAAAAAAAAAAAAAAAAAAAAAAAAAAAAAAAAAA
        AAAAAAAAAAAAAAAAAAAAAABBcnAgQ2hvcmQgR2F0ZWQgMDMAX/9/AACwuOoSAQAAAAQnvl//fwAA9GBmFwEAAAAOEDIDAQkAfwB/AUAAAQABAAAAAAAAAAAAfwAAAAAA
        AAAAAAAAAAAAAAAAAAAAAAAAAAAAAAAAAAAAAAAAAAAAAAAAAAAAAAAAAAAAAAAAAAAAAAAAAAAAAAAAAAAAAAAAAAAAAAAAAAAAAAAAAAAAAAAAAAAAAAAAAAAAAAAA
        AAAAAAAAAAAAAAAAAAAAAAAAAAAAAAAAAAAICAgICAgICAgICAgICAgICAgICAgICAgICAgICAgICAgICAgICAgICAgICAgICAgICAgICAgICAgICAgICAgIAQEBAQEB
        AQEBAQEBAQEBAQEBAQEBAQEBAQEBAQEBAQEBAQEBAQEBAQEBAQEBAQEBAQEBAQEBAQEBAQEBAQEBARAIBBAIBBAIBBAEEAgEEAgEBAQEBAQEBAQEBAQEBAQEBAQEBAQE
        BAQEBAQEBAQEBAQEBAQEBAQEBAQEBAQEBARgYGBgYGBgYGBgYGBgYGBgYGBgYGBgYGBgYGBgYGBgYGBgYGBgYGBgYGBgYGBgYGBgYGBgYGBgYGBgYGBgYGBgAAAAAAAA
        AAAAAAAAAAAAAAAAAAAAAAAAAAAAAAAAAAAAAAAAAAAAAAAAAAAAAAAAAAAAAAAAAAAAAAAAAAAAAAAAAAAAAAAAAAAAAAAAAAAAAAAAAAAAAAAAAAAAAAAAAAAAAAAA
        AAAAAAAAAAAAAAAAAAAAAAAAAAAAAAAAAABBcnAgM2sgU1NhdyAwMSAoUmFtbXN0ZWluKQASAQAAAAQnvl//fwAA9GBmFwEAAAAOCDoDAQQAfwB/AEAAAQABAAAAAAAA
        AAAAfwAAAAAAAAAAAAAAAAAAAAAAAAAAAAAAAAAAAAAAAAAAAAAAAAAAAAAAAAAAAAAAAAAAAAAAAAAAAAAAAAAAAAAAAAAAAAAAAAAAAAAAAAAAAAAAAAAAAAAAAAAA
        AAAAAAAAAAAAAAAAAAAAAAAAAAAAAAAAAAAAAAAAAAAAAAAECAgECAgECAgICAgICAgICAgICAgICAgICAgICAgICAgICAgICAgICAgICAgICAgICAgICAgICAgICAgI
        CAgIAQABAQEBAQEAAAAAAAAAAAEBAQEBAQEBAQEBAQEBAQEBAQEBAQEBAQEBAQEBAQEBAQEBAQEBAQEBAQEBAQEBAQQEEAQECAQQBAQEBAQEBAQEBAQEBAQEBAQEBAQE
        BAQEBAQEBAQEBAQEBAQEBAQEBAQEBAQEBAQEBAQEBAQEBARgYGBgYGBgYGBgYGBgYGBgYGBgYGBgYGBgYGBgYGBgYGBgYGBgYGBgYGBgYGBgYGBgYGBgYGBgYGBgYGBg
        YGBgAAAAAAAAAAAAAAAAAAAAAAAAAAAAAAAAAAAAAAAAAAAAAAAAAAAAAAAAAAAAAAAAAAAAAAAAAAAAAAAAAAAAAAAAAAAAAAAAAAAAAAAAAAAAAAAAAAAAAAAAAAAA
        AAAAAAAAAAAAAAAAAAAAAAAAAAAAAAAAAAAAAAAAAAAAAABBcnAgM2sgU3VwZXJTYXcgMDIAX/9/AACwuOoSAQAAAAQnvl//fwAA9GBmFwEAAAAOCDoDAQQAfwB/AEAA
        AQABAAAAAAAAAAAAfwAAAAAAAAAAAAAAAAAAAAAAAAAAAAAAAAAAAAAAAAAAAAAAAAAAAAAAAAAAAAAAAAAAAAAAAAAAAAAAAAAAAAAAAAAAAAAAAAAAAAAAAAAAAAAA
        AAAAAAAAAAAAAAAAAAAAAAAAAAAAAAAAAAAAAAAAAAAAAAAAAAAAAAAAAAAECAgECAQICAgICAgICAgICAgICAgICAgICAgICAgICAgICAgICAgICAgICAgICAgICAgI
        CAgICAgICAgICAgIAQEBAQEBAQEAAAAAAAAAAAEBAQEBAQEBAQEBAQEBAQEBAQEBAQEBAQEBAQEBAQEBAQEBAQEBAQEBAQEBAQEBAQQQCAQEBAgQBAQEBAQEBAQEBAQE
        BAQEBAQEBAQEBAQEBAQEBAQEBAQEBAQEBAQEBAQEBAQEBAQEBAQEBAQEBARgYGBgYGBgYGBgYGBgYGBgYGBgYGBgYGBgYGBgYGBgYGBgYGBgYGBgYGBgYGBgYGBgYGBg
        YGBgYGBgYGBgYGBgAAAAAAAAAAAAAAAAAAAAAAAAAAAAAAAAAAAAAAAAAAAAAAAAAAAAAAAAAAAAAAAAAAAAAAAAAAAAAAAAAAAAAAAAAAAAAAAAAAAAAAAAAAAAAAAA
        AAAAAAAAAAAAAAAAAAAAAAAAAAAAAAAAAAAAAAAAAAAAAAAAAAAAAAAAAABBcnAgM2sgU3VwZXJTYXcgMDMAX/9/AACwuOoSAQAAAAQnvl//fwAA9GBmFwEAAAAOEDoD
        AQgAfwB/AEAAAQABAAAAAAAAAAAAfwAAAAAAAAAAAAAAAAAAAAAAAAAAAAAAAAAAAAAAAAAAAAAAAAAAAAAAAAAAAAAAAAAAAAAAAAAAAAAAAAAAAAAAAAAAAAAAAAAA
        AAAAAAEAAAAAAAAAAAAAAAAAAAAAAAAAAAAAAAAAAAAAAAAAAAAAAAAAAAAAAAAAAAAAAAAICAQIBAgICAgIBAgICAQICAgICAgICAgICAgICAgICAgICAgICAgICAgI
        CAgICAgICAgICAgICAgICAgICAgIAQIBAAEAAQIBAgEAAQIBAQEBAQEBAQEBAQEBAQEBAQEBAQEBAQEBAQEBAQEBAQEBAQEBAQEBAQEBAQEBAQEBAQQEBAQEBAQECAQE
        BAQEBAQEBAQEBAQEBAQEBAQEBAQEBAQEBAQEBAQEBAQEBAQEBAQEBAQEBAQEBAQEBAQEBARgYGBgYGBgYGBgYGBgYGBgYGBgYGBgYGBgYGBgYGBgYGBgYGBgYGBgYGBg
        YGBgYGBgYGBgYGBgYGBgYGBgYGBgAAAAAAAAAAAAAAAAAAAAAAAAAAAAAAAAAAAAAAAAAAAAAAAAAAAAAAAAAAAAAAAAAAAAAAAAAAAAAAAAAAAAAAAAAAAAAAAAAAAA
        AAAAAAAAAAAAAAAAAAAAAAAAAAAAAAAAAAAAAAAAAAAAAAAAAAAAAAAAAAAAAAAAAAAAAABBcnAgMmsgU3VwZXJTYXcgMDQAX/9/AACwuOoSAQAAAAQnvl//fwAA9GBm
        FwEAAAAOEDoDAQUAfwB/AEAAAQABAAAAAAAAAAAAfwAAAAAAAAAAAAAAAAAAAAAAAAAAAAAAAAAAAAAAAAAAAAAAAAAAAAAAAAAAAAAAAAAAAAAAAAAAAAAAAAAAAAAA
        AAAAAAAAAAAAAAAAAAAAAAAAAAAAAAAAAAAAAAAAAAAAAAAAAAAAAAAAAAAAAAAAAAAAAAAAAAAAAAAAAAAIBAgIBAgICAgECAgECAgECAgICAgICAgICAgICAgICAgI
        CAgICAgICAgICAgICAgICAgICAgICAgICAgICAgIAQEBAQEBAQEBAQEBAQEBAQEBAQEBAQEBAQEBAQEBAQEBAQEBAQEBAQEBAQEBAQEBAQEBAQEBAQEBAQEBAQEBAQgE
        BBAEBBAECAQEEAQEEAQEBAQEBAQEBAQEBAQEBAQEBAQEBAQEBAQEBAQEBAQEBAQEBAQEBAQEBAQEBAQEBARgYGBgYGBgYGBgYGBgYGBgYGBgYGBgYGBgYGBgYGBgYGBg
        YGBgYGBgYGBgYGBgYGBgYGBgYGBgYGBgYGBgYGBgAAAAAAAAAAAAAAAAAAAAAAAAAAAAAAAAAAAAAAAAAAAAAAAAAAAAAAAAAAAAAAAAAAAAAAAAAAAAAAAAAAAAAAAA
        AAAAAAAAAAAAAAAAAAAAAAAAAAAAAAAAAAAAAAAAAAAAAAAAAAAAAAAAAAAAAAAAAAAAAAAAAAAAAAAAAABBcnAgMmsgU3VwZXJTYXcgMDUAX/9/AACwuOoSAQAAAAQn
        vl//fwAA9GBmFwEAAAAOBDgDAQAAfwB/AEAAAQABAAAAAAAAAAAAfwAAAAAAAAAAAAAAAAAAAAAAAAAAAAAAAAAAAAAAAAAAAAAAAAAAAAAAAAAAAAAAAAAAAAAAAAAA
        AAAAAAAAAAAAAAAAAAAAAAAAAAAAAAAAAAAAAAAAAAAAAAAAAAAAAAAAAAAAAAAAAAAAAAAAAAAAAAAAAAAAAAAAAAAAAAAICAgICAgICAgICAgICAgICAgICAgICAgI
        CAgICAgICAgICAgICAgICAgICAgICAgICAgICAgICAgICAgICAgIAQEEAQEBAQEBAQEBAQEBAQEBAQEBAQEBAQEBAQEBAQEBAQEBAQEBAQEBAQEBAQEBAQEBAQEBAQEB
        AQEBAQEBAQQIBAgEBAQEBAQEBAQEBAQEBAQEBAQEBAQEBAQEBAQEBAQEBAQEBAQEBAQEBAQEBAQEBAQEBAQEBAQEBAQEBARgYGBgYGBgYGBgYGBgYGBgYGBgYGBgYGBg
        YGBgYGBgYGBgYGBgYGBgYGBgYGBgYGBgYGBgYGBgYGBgYGBgYGBgAAAAAAAAAAAAAAAAAAAAAAAAAAAAAAAAAAAAAAAAAAAAAAAAAAAAAAAAAAAAAAAAAAAAAAAAAAAA
        AAAAAAAAAAAAAAAAAAAAAAAAAAAAAAAAAAAAAAAAAAAAAAAAAAAAAAAAAAAAAAAAAAAAAAAAAAAAAAAAAAAAAAAAAAAAAABBcnAgM2sgQmVuYXNzaSBJbGx1c2lvbgCw
        uOoSAQAAAAQnvl//fwAA9GBmFwEAAAAOEDIDAQcAfwB/AEAAAQABAAAAAAAAAAAAfwAAAAAAAAAAAAAAAAAAAAAAAAAAAAAAAAAAAAAAAAAAAAAAAAAAAAAAAAAAAAAA
        AAAAAAAAAAAAAAAAAAAAAAAAAAAAAAAAAAAAAAAAAAAAAAAAAAAAAAAAAAAAAAAAAAAAAAAAAAAAAAAAAAAAAAAAAAAAAAAAAAAAAAAAAAAECAgECAgICAQICAQICAQI
        CAgICAgICAgICAgICAgICAgICAgICAgICAgICAgICAgICAgICAgICAgICAgICAgIAQEBAQEBAQEBAQEBAQEBAQEBAQEBAQEBAQEBAQEBAQEBAQEBAQEBAQEBAQEBAQEB
        AQEBAQEBAQEBAQEBAQEBAQQIEAQQCBAgBCAQBAQIBBAEBAQEBAQEBAQEBAQEBAQEBAQEBAQEBAQEBAQEBAQEBAQEBAQEBAQEBAQEBAQEBARgYGBgYGBgYGBgYGBgYGBg
        YGBgYGBgYGBgYGBgYGBgYGBgYGBgYGBgYGBgYGBgYGBgYGBgYGBgYGBgYGBgYGBgAAAAAAAAAAAAAAAAAAAAAAAAAAAAAAAAAAAAAAAAAAAAAAAAAAAAAAAAAAAAAAAA
        AAAAAAAAAAAAAAAAAAAAAAAAAAAAAAAAAAAAAAAAAAAAAAAAAAAAAAAAAAAAAAAAAAAAAAAAAAAAAAAAAAAAAAAAAAAAAAAAAAAAAAAAAABBcnAgNGsgU1NhdyAwNyAo
        WVQgSW50cm8pAOoSAQAAAAQnvl//fwAA9GBmFwEAAAAOID0DAQcAfwB/AEAAAQABAAAAAAAAAAAAfwAAAAAAAAAAAAAAAAAAAAAAAAAAAAAAAAAAAAAAAAAAAAAAAAAA
        AAAAAAAAAAAAAAAAAAAAAAAAAAAAAAAAAAAAAAAAAAAAAAAAAAAAAAAAAAAAAAAAAAAAAAAAAAAAAAAAAAAAAAAAAAAAAAAAAAAAAAAAAAAAAAAAAAAAAAAIBAgECAQI
        BAgECAQIBAgECAQIBAgECAQIBAgECAQICAgICAgICAgICAgICAgICAgICAgICAgICAgICAgICAgIAQEBAQEBAQEBAQEBAQEBAQEBAQEBAQEBAQEBAQEBAQEBAQEBAQEB
        AQEBAQEBAQEBAQEBAQEBAQEBAQEBAQEBAQQECAQQBAQECAQQBAQECAQQBAQECAQQBAQECAQQBBAIBAQEBAQEBAQEBAQEBAQEBAQEBAQEBAQEBAQEBAQEBARgYGBgYGBg
        YGBgYGBgYGBgYGBgYGBgYGBgYGBgYGBgYGBgYGBgYGBgYGBgYGBgYGBgYGBgYGBgYGBgYGBgYGBgAAAAAAAAAAAAAAAAAAAAAAAAAAAAAAAAAAAAAAAAAAAAAAAAAAAA
        AAAAAAAAAAAAAAAAAAAAAAAAAAAAAAAAAAAAAAAAAAAAAAAAAAAAAAAAAAAAAAAAAAAAAAAAAAAAAAAAAAAAAAAAAAAAAAAAAAAAAAAAAAAAAAAAAAAAAABBcnAgM2sg
        U1NhdyAwOCAoMzIgc3RlcHMpAOoSAQAAAAQnvl//fwAA9GBmFwEAAAAOEEUDAQQAfwB/AEAAAQABAAAAAAAAAAAAfwAAAAAAAAAAAAAAAAAAAAAAAAAAAAAAAAAAAAAA
        AAAAAAAAAAAAAAAAAAAAAAAAAAAAAAAAAAAAAAAAAAAAAAAAAAAAAAAAAAAAAAAAAAAAAAAAAAAAAAAAAAAAAAAAAAAAAAAAAAAAAAAAAAAAAAAAAAAAAAAAAAAAAAAA
        AAAEBAgEBAgEBAgEBAgEBAgECAgICAgICAgICAgICAgICAgICAgICAgICAgICAgICAgICAgICAgICAgICAgICAgIAQABAAEBAAEBAAEBAAEBAAEBAQEBAQEBAQEBAQEB
        AQEBAQEBAQEBAQEBAQEBAQEBAQEBAQEBAQEBAQEBAQEBAQQECAQECAQECAQECAQECAQEBAQEBAQEBAQEBAQEBAQEBAQEBAQEBAQEBAQEBAQEBAQEBAQEBAQEBAQEBAQE
        BARgYGBgYGBgYGBgYGBgYGBgYGBgYGBgYGBgYGBgYGBgYGBgYGBgYGBgYGBgYGBgYGBgYGBgYGBgYGBgYGBgYGBgAAAAAAAAAAAAAAAAAAAAAAAAAAAAAAAAAAAAAAAA
        AAAAAAAAAAAAAAAAAAAAAAAAAAAAAAAAAAAAAAAAAAAAAAAAAAAAAAAAAAAAAAAAAAAAAAAAAAAAAAAAAAAAAAAAAAAAAAAAAAAAAAAAAAAAAAAAAAAAAAAAAAAAAAAA
        AABBcnAgMmsgQ29tbXVuaWNhdGlvbiB2MQCwuOoSAQAAAAQnvl//fwAA9GBmFwEAAAAOEDwDAQQAfwB/AEAAAQABAAAAAAAAAAAAfwAAAAAAAAAAAAAAAAAAAAAAAAAA
        AAAAAAAAAAAAAAAAAAAAAAAAAAAAAAAAAAAAAAAAAAAAAAAAAAAAAAAAAAAAAAAAAAAAAAAAAAAAAAAAAAAAAAAAAAAAAAAAAAAAAAAAAAAAAAAAAAAAAAAAAAAAAAAA
        AAAAAAAAAAAAAAACBAgCBAgCBAgCBAgCBAgECAgICAgICAgICAgICAgICAgICAgICAgICAgICAgICAgICAgICAgICAgICAgICAgIAQEBAQEBAQEBAQEBAQEBAQEBAQEB
        AQEBAQEBAQEBAQEBAQEBAQEBAQEBAQEBAQEBAQEBAQEBAQEBAQEBAQEBAQQECAQECAQECAQECAQECAQEBAQEBAQEBAQEBAQEBAQEBAQEBAQEBAQEBAQEBAQEBAQEBAQE
        BAQEBAQEBAQEBARgYGBgYGBgYGBgYGBgYGBgYGBgYGBgYGBgYGBgYGBgYGBgYGBgYGBgYGBgYGBgYGBgYGBgYGBgYGBgYGBgYGBgAAAAAAAAAAAAAAAAAAAAAAAAAAAA
        AAAAAAAAAAAAAAAAAAAAAAAAAAAAAAAAAAAAAAAAAAAAAAAAAAAAAAAAAAAAAAAAAAAAAAAAAAAAAAAAAAAAAAAAAAAAAAAAAAAAAAAAAAAAAAAAAAAAAAAAAAAAAAAA
        AAAAAAAAAAAAAABBcnAgMmsgQ29tbXVuaWNhdGlvbiB2MgCwuOoSAQAAAAQnvl//fwAA9GBmFwEAAAAOED0DAQAAfwB/AEAAAQABAAAAAAAAAAAAfwAAAAAAAAAAAAAA
        AAAAAAAAAAAAAAAAAAAAAAAAAAAAAAAAAAAAAAAAAAAAAAAAAAAAAAAAAAAAAAAAAAAAAAAAAAAAAAAAAAAAAAAAAAAAAAAAAAAAAAAAAAAAAAAAAAAAAAAAAAAAAAAA
        AAAAAAAAAAAAAAAAAAAAAAAAAAAIAgQIAgQIBAgCBAgEAggECAIIAggCBAgCBAgCCAIEAggICAgICAgICAgICAgICAgICAgICAgICAgICAgICAgIAQEBAQEBAQEBAQEB
        AQEBAQEBAQEBAQEBAQEBAQEBAQEBAQEBAQEBAQEBAQEBAQEBAQEBAQEBAQEBAQEBAQEBAQgEBBAEBBAECAQEEAQEEAQIBAQQBAQQBAQEEAQEEAQEBAQEBAQEBAQEBAQE
        BAQEBAQEBAQEBAQEBAQEBAQEBARgYGBgYGBgYGBgYGBgYGBgYGBgYGBgYGBgYGBgYGBgYGBgYGBgYGBgYGBgYGBgYGBgYGBgYGBgYGBgYGBgYGBgAAAAAAAAAAAAAAAA
        AAAAAAAAAAAAAAAAAAAAAAAAAAAAAAAAAAAAAAAAAAAAAAAAAAAAAAAAAAAAAAAAAAAAAAAAAAAAAAAAAAAAAAAAAAAAAAAAAAAAAAAAAAAAAAAAAAAAAAAAAAAAAAAA
        AAAAAAAAAAAAAAAAAAAAAAAAAABBcnAgMmsgU3VwZXJTYXcgMTEgKEJlbmFzc2kpAAAAAAQnvl//fwAA9GBmFwEAAAAOEDUDAQcAfwB/AEAAAQABAAAAAAAAAAAAfwAA
        AAAAAAAAAAAAAAAAAAAAAAAAAAAAAAAAAAAAAAAAAAAAAAAAAAAAAAAAAAAAAAAAAAAAAAAAAAAAAAAAAAAAAAAAAAAAAAAAAAAAAAAAAAAAAAAAAAAAAAAAAAAAAAAA
        AAAAAAAAAAAAAAAAAAAAAAAAAAAAAAAAAAAAAAAIAggCCAIECAIECAIIAgQCCAgICAgICAgICAgICAgICAgICAgICAgICAgICAgICAgICAgICAgICAgICAgICAgIAQEB
        AQEBAQEBAQEBAQEBAQEBAQEBAQEBAQEBAQEBAQEBAQEBAQEBAQEBAQEBAQEBAQEBAQEBAQEBAQEBAQEBARAECAQIBAQQBAQIBAgEBAQEBAQEBAQEBAQEBAQEBAQEBAQE
        BAQEBAQEBAQEBAQEBAQEBAQEBAQEBAQEBAQEBARgYGBgYGBgYGBgYGBgYGBgYGBgYGBgYGBgYGBgYGBgYGBgYGBgYGBgYGBgYGBgYGBgYGBgYGBgYGBgYGBgYGBgAAAA
        AAAAAAAAAAAAAAAAAAAAAAAAAAAAAAAAAAAAAAAAAAAAAAAAAAAAAAAAAAAAAAAAAAAAAAAAAAAAAAAAAAAAAAAAAAAAAAAAAAAAAAAAAAAAAAAAAAAAAAAAAAAAAAAA
        AAAAAAAAAAAAAAAAAAAAAAAAAAAAAAAAAAAAAABBcnAgMmsgU3VwZXJTYXcgMTIAX/9/AACwuOoSAQAAAAQnvl//fwAA9GBmFwEAAAAOEGQDAQQAfwB/AE0AAQABCQAA
        AAAAAAAAfwAAAAAAAAAAAAAAAAAAAAAAAAAAAAAAAAAAAAAAAAAAAAAAAAAAAAAAAAAAAAAAAAAAAAAAAAAAAAAAAAAAAAAAAAAAAAAAAAAAAAAAAAAAAAAAAAAAAAAA
        AAAAAAAAAAAAAAAAAAAAAAAAAAAAAAAAAAAAAAAAAAAAAAAAAAAECAQECAQEBAQIBAQIBAgECAgICAgICAgICAgICAgICAgICAgICAgICAgICAgICAgICAgICAgICAgI
        CAgICAgIAQEBAQEAAQEAAQEAAQEBAQEBAQEBAQEBAQEBAQEBAQEBAQEBAQEBAQEBAQEBAQEBAQEBAQEBAQEBAQEBAQEBAQQIBCAIBBAEBAgEBAgEEAQEBAQEBAQEBAQE
        BAQEBAQEBAQEBAQEBAQEBAQEBAQEBAQEBAQEBAQEBAQEBAQEBARwUEBgUFB/YEBQYGBwYFBwYGBgYGBgYGBgYGBgYGBgYGBgYGBgYGBgYGBgYGBgYGBgYGBgYGBgYGBg
        YGBgYGBgAAAAAAAAAAAAAAAAAAAAAAAAAAAAAAAAAAAAAAAAAAAAAAAAAAAAAAAAAAAAAAAAAAAAAAAAAAAAAAAAAAAAAAAAAAAAAAAAAAAAAAAAAAAAAAAAAAAAAAAA
        AAAAAAAAAAAAAAAAAAAAAAAAAAAAAAAAAAAAAAAAAAAAAAAAAABBcnAgMmsgU3VwZXJTYXcgMTMgKHBocmVhcXVlKQAAAAQnvl//fwAA9GBmFwEAAAAOCB8FAQEAfwB/
        AEAAAQABAAAAAAAAAAAAfwAAAAAAAAAAAAAAAAAAAAAAAAAAAAAAAAAAAAAAAAAAAAAAAAAAAAAAAAAAAAAAAAAAAAAAAAAAAAAAAAAAAAAAAAAAAAAAAAAAAAAAAAAA
        AAAAAAAAAAAAAAAAAAAAAAAAAAAAAAAAAAAAAAAAAAAAAAAAAAAAAAAAAAAAAAAICAgICAgICAgICAgICAgICAgICAgICAgICAgICAgICAgICAgICAgICAgICAgICAgI
        CAgICAgICAgICAgICAgIAQEBAQEBAQEBAQEBAQEBAQEBAQEBAQEBAQEBAQEBAQEBAQEBAQEBAQEBAQEBAQEBAQEBAQEBAQEBAQEBAQEBARAECAQQBAgEBAQEBAQEBAQE
        BAQEBAQEBAQEBAQEBAQEBAQEBAQEBAQEBAQEBAQEBAQEBAQEBAQEBAQEBAQEBARgYGBQYGBgUGBgYGBgYGBgYGBgYGBgYGBgYGBgYGBgYGBgYGBgYGBgYGBgYGBgYGBg
        YGBgYGBgYGBgYGBgYGBgAAAAAAAAAAAAAAAAAAAAAAAAAAAAAAAAAAAAAAAAAAAAAAAAAAAAAAAAAAAAAAAAAAAAAAAAAAAAAAAAAAAAAAAAAAAAAAAAAAAAAAAAAAAA
        AAAAAAAAAAAAAAAAAAAAAAAAAAAAAAAAAAAAAAAAAAAAAAAAAAAAAAAAAAAAAABBcnAgM2sgQmVsbHMgMDEAkCa+X/9/AACwuOoSAQAAAAQnvl//fwAA9GBmFwEAAAAO
        CB8FAQAAfwB/AEAAAQABAAAAAAAAAAAAfwAAAAAAAAAAAAAAAAAAAAAAAAAAAAAAAAAAAAAAAAAAAAAAAAAAAAAAAAAAAAAAAAAAAAAAAAAAAAAAAAAAAAAAAAAAAAAA
        AAAAAAAAAAAAAAAAAAAAAAAAAAAAAAAAAAAAAAAAAAAAAAAAAAAAAAAAAAAAAAAAAAAAAAAAAAAICAgICAgICAgICAgICAgICAgICAgICAgICAgICAgICAgICAgICAgI
        CAgICAgICAgICAgICAgICAgICAgICAgIAQEBAQEBAQEBAQEBAQEBAQEBAQEBAQEBAQEBAQEBAQEBAQEBAQEBAQEBAQEBAQEBAQEBAQEBAQEBAQEBAQEBARAIBBAIBBAI
        BAQEBAQEBAQEBAQEBAQEBAQEBAQEBAQEBAQEBAQEBAQEBAQEBAQEBAQEBAQEBAQEBAQEBAQEBARgYGBgYGBgYGBgYGBgYGBgYGBgYGBgYGBgYGBgYGBgYGBgYGBgYGBg
        YGBgYGBgYGBgYGBgYGBgYGBgYGBgYGBgAAAAAAAAAAAAAAAAAAAAAAAAAAAAAAAAAAAAAAAAAAAAAAAAAAAAAAAAAAAAAAAAAAAAAAAAAAAAAAAAAAAAAAAAAAAAAAAA
        AAAAAAAAAAAAAAAAAAAAAAAAAAAAAAAAAAAAAAAAAAAAAAAAAAAAAAAAAAAAAAAAAAAAAAAAAABBcnAgM2sgQmVsbHMgMDIAkCa+X/9/AACwuOoSAQAAAAQnvl//fwAA
        9GBmFwEAAAAOCE0FAQgAfwB/AE0AAQABAAAAAAAAAAAAfwAAAAAAAAAAAAAAAAAAAAAAAAAAAAAAAAAAAAAAAAAAAAAAAAAAAAAAAAAAAAAAAAAAAAAAAAAAAAAAAAAA
        AAAAAAAAAAAAAAAAAAAAAAAAAAAAAAAAAAAAAAAAAAAAAAAAAAAAAAAAAAAAAAAAAAAAAAAAAAAAAAAAAAAAAAAECAgIBAgIEAgICAgICAgICAgICAgICAgICAgICAgI
        CAgICAgICAgICAgICAgICAgICAgICAgICAgICAgICAgIAQEBAQEBAQEBAQEBAQEBAQEBAQEBAQEBAQEBAQEBAQEBAQEBAQEBAQEBAQEBAQEBAQEBAQEBAQEBAQEBAQEB
        AQQECBAEBAgEBAQEBAQEBAQEBAQEBAQEBAQEBAQEBAQEBAQEBAQEBAQEBAQEBAQEBAQEBAQEBAQEBAQEBAQEBARgYGBgYGBgYGBgYGBgYGBgYGBgYGBgYGBgYGBgYGBg
        YGBgYGBgYGBgYGBgYGBgYGBgYGBgYGBgYGBgYGBgYGBgAAAAAAAAAAAAAAAAAAAAAAAAAAAAAAAAAAAAAAAAAAAAAAAAAAAAAAAAAAAAAAAAAAAAAAAAAAAAAAAAAAAA
        AAAAAAAAAAAAAAAAAAAAAAAAAAAAAAAAAAAAAAAAAAAAAAAAAAAAAAAAAAAAAAAAAAAAAAAAAAAAAAAAAAAAAABBcnAgMmsgU29mdEJlbGxzIDAxAP9/AACwuOoSAQAA
        AAQnvl//fwAA9GBmFwEAAAAOCEIFAQgAfwB/AEAAAQABAAAAAAAAAAAAfwAAAAAAAAAAAAAAAAAAAAAAAAAAAAAAAAAAAAAAAAAAAAAAAAAAAAAAAAAAAAAAAAAAAAAA
        AAAAAAAAAAAAAAAAAAAAAAAAAAAAAAAAAAAAAAAAAAAAAAAAAAAAAAAAAAAAAAAAAAAAAAAAAAAAAAAAAAAAAAAAAAAAAAAAAAAEEAgIBBAICAgICAgICAgICAgICAgI
        CAgICAgICAgICAgICAgICAgICAgICAgICAgICAgICAgICAgICAgICAgIAQEBAQEBAQEBAQEBAQEBAQEBAQEBAQEBAQEBAQEBAQEBAQEBAQEBAQEBAQEBAQEBAQEBAQEB
        AQEBAQEBAQEBAQQEBAgEBAQQBAQEBAQEBAQEBAQEBAQEBAQEBAQEBAQEBAQEBAQEBAQEBAQEBAQEBAQEBAQEBAQEBAQEBAQEBARgYGBgYGBgYGBgYGBgYGBgYGBgYGBg
        YGBgYGBgYGBgYGBgYGBgYGBgYGBgYGBgYGBgYGBgYGBgYGBgYGBgYGBgAAAAAAAAAAAAAAAAAAAAAAAAAAAAAAAAAAAAAAAAAAAAAAAAAAAAAAAAAAAAAAAAAAAAAAAA
        AAAAAAAAAAAAAAAAAAAAAAAAAAAAAAAAAAAAAAAAAAAAAAAAAAAAAAAAAAAAAAAAAAAAAAAAAAAAAAAAAAAAAAAAAAAAAAAAAABBcnAgMmsgU29mdEJlbGxzIDAyAP9/
        AACwuOoSAQAAAAQnvl//fwAA9GBmFwEAAAAOEEgDAQAAfwB/AEAAAQABAAAAAAAAAAAAfwAAAAAAAAAAAAAAAAAAAAAAAAAAAAAAAAAAAAAAAAAAAAAAAAAAAAAAAAAA
        AAAAAAAAAAAAAAAAAAAAAAAAAAAAAAAAAAAAAAAAAAAAAQAAAAAAAAAAAAAAAAAAAAAAAAAAAAAAAAAAAAAAAAAAAAAAAAAAAAAAAAAAAAAAAAAECAQECAQICAgECAgI
        BAgICAgICAgICAgICAgICAgICAgICAgICAgICAgICAgICAgICAgICAgICAgICAgICAgIAQABAAABAwABAQABAAEDAAEBAQEBAQEBAQEBAQEBAQEBAQEBAQEBAQEBAQEB
        AQEBAQEBAQEBAQEBAQEBAQEBAQQEBAQEBAQEBAQEBAQEBAQEBAQEBAQEBAQEBAQEBAQEBAQEBAQEBAQEBAQEBAQEBAQEBAQEBAQEBAQEBAQEBARgYGBgYGBgYGBgYGBg
        YGBgYGBgYGBgYGBgYGBgYGBgYGBgYGBgYGBgYGBgYGBgYGBgYGBgYGBgYGBgYGBgYGBgAAAAAAAAAAAAAAAAAAAAAAAAAAAAAAAAAAAAAAAAAAAAAAAAAAAAAAAAAAAA
        AAAAAAAAAAAAAAAAAAAAAAAAAAAAAAAAAAAAAAAAAAAAAAAAAAAAAAAAAAAAAAAAAAAAAAAAAAAAAAAAAAAAAAAAAAAAAAAAAAAAAAAAAAAAAABTZXEgMmsgQWNpZE1v
        bm8gMDEAX/9/AACwuOoSAQAAAAQnvl//fwAA9GBmFwEAAAAOEEIDAQUAfwB/AEAAAQABAAAAAAAAAAAAfwAAAAAAAAAAAAAAAAAAAAAAAAAAAAAAAAAAAAAAAAAAAAAA
        AAAAAAAAAAAAAAAAAAAAAAAAAAAAAAAAAAAAAAAAAAAAAAAHAAAAAAAAAAAAAAAAAAAAAAAAAAAAAAAAAAAAAAAAAAAAAAAAAAAAAAAAAAAAAAAAAAAAAAAAAAAECAgE
        CAgIBAgEBAgECAgECAgICAgICAgICAgICAgICAgICAgICAgICAgICAgICAgICAgICAgICAgICAgICAgIAQAAAQAAAQMAAQMAAQIBAwEBAQEBAQEBAQEBAQEBAQEBAQEB
        AQEBAQEBAQEBAQEBAQEBAQEBAQEBAQEBAQEBAQQEBAQEBAQEBAQIBAQEBAgEBAQEBAQEBAQEBAQEBAQEBAQEBAQEBAQEBAQEBAQEBAQEBAQEBAQEBAQEBAQEBARgYGBg
        YGBgYGBgYGBgYGBgYGBgYGBgYGBgYGBgYGBgYGBgYGBgYGBgYGBgYGBgYGBgYGBgYGBgYGBgYGBgYGBgAAAAAAAAAAAAAAAAAAAAAAAAAAAAAAAAAAAAAAAAAAAAAAAA
        AAAAAAAAAAAAAAAAAAAAAAAAAAAAAAAAAAAAAAAAAAAAAAAAAAAAAAAAAAAAAAAAAAAAAAAAAAAAAAAAAAAAAAAAAAAAAAAAAAAAAAAAAAAAAAAAAAAAAAAAAABTZXEg
        MmsgQWNpZE1vbm8gMDIAX/9/AACwuOoSAQAAAAQnvl//fwAA9GBmFwEAAAAOEDoDAQAAfwB/AEAAAQABAAAAAAAAAAAAfwAAAAAAAAAAAAAAAAAAAAAAAAAAAAAAAAAA
        AAAAAAAAAAAAAAAAAAAAAAAAAAAAAAAAAAAAAAAAAAAAAAAAAAAAAAAAAAAAAAAAAAAAAAAAAAAAAAAAAAAAAAAAAAAAAAAAAAAAAAAAAAAAAAAAAAAAAAAAAAAAAAAA
        AAAAAAAIBAgQBAgICAQICAgECAQICAgICAgICAgICAgICAgICAgICAgICAgICAgICAgICAgICAgICAgICAgICAgICAgIAQEBAwEBAwMBAwEDAQIBAQEBAQEBAQEBAQEB
        AQEBAQEBAQEBAQEBAQEBAQEBAQEBAQEBAQEBAQEBAQEBAQEBAQQEBAQEBAgEBAQECAQEBAgEBAQEBAQEBAQEBAQEBAQEBAQEBAQEBAQEBAQEBAQEBAQEBAQEBAQEBAQE
        BAQEBARgYGBgYGBgYGBgYGBgYGBgYGBgYGBgYGBgYGBgYGBgYGBgYGBgYGBgYGBgYGBgYGBgYGBgYGBgYGBgYGBgYGBgAAAAAAAAAAAAAAAAAAAAAAAAAAAAAAAAAAAA
        AAAAAAAAAAAAAAAAAAAAAAAAAAAAAAAAAAAAAAAAAAAAAAAAAAAAAAAAAAAAAAAAAAAAAAAAAAAAAAAAAAAAAAAAAAAAAAAAAAAAAAAAAAAAAAAAAAAAAAAAAAAAAAAA
        AAAAAABTZXEgMmsgQWNpZE1vbm8gMDMAX/9/AACwuOoSAQAAAAQnvl//fwAA9GBmFwEAAAAOEDoDAQAAfwB/AEAAAQABAAAAAAAAAAAAfwAAAAAAAAAAAAAAAAAAAAAA
        AAAAAAAAAAAAAAAAAAAAAAAAAAAAAAAAAAAAAAAAAAAAAAAAAAAAAAAAAAAAAAAAAAAAAAAAAAAAAAAAAQAAAAAAAAAAAAAAAAAAAAAAAAAAAAAAAAAAAAAAAAAAAAAA
        AAAAAAAAAAAAAAAAAAAIEAgECAgECAgIBAgECAgECAgICAgICAgICAgICAgICAgICAgICAgICAgICAgICAgICAgICAgICAgICAgICAgIAQEDAQEDAQMBAwEBAQEBAQEB
        AQEBAQEBAQEBAQEBAQEBAQEBAQEBAQEBAQEBAQEBAQEBAQEBAQEBAQEBAQEBAQQEBAQIBAQEBAgEBAQIBAQEBAQEBAQEBAQEBAQEBAQEBAQEBAQEBAQEBAQEBAQEBAQE
        BAQEBAQEBAQEBAQEBARgYGBgYGBgYGBgYGBgYGBgYGBgYGBgYGBgYGBgYGBgYGBgYGBgYGBgYGBgYGBgYGBgYGBgYGBgYGBgYGBgYGBgAAAAAAAAAAAAAAAAAAAAAAAA
        AAAAAAAAAAAAAAAAAAAAAAAAAAAAAAAAAAAAAAAAAAAAAAAAAAAAAAAAAAAAAAAAAAAAAAAAAAAAAAAAAAAAAAAAAAAAAAAAAAAAAAAAAAAAAAAAAAAAAAAAAAAAAAAA
        AAAAAAAAAAAAAAAAAABTZXEgMmsgQWNpZE1vbm8gMDQAX/9/AACwuOoSAQAAAAQnvl//fwAA9GBmFwEAAAAOBEgDAQAAfwB/AEAAAQABAAAAAAAAAAAAfwAAAAAAAAAA
        AAAAAAAAAAAAAAAAAAAAAAAAAAAAAAAAAAAAAAAAAAAAAAAAAAAAAAAAAAAAAAAAAAAAAAAAAAAAAAAAAAAAAAAAAAAAAAAAAAAAAAAAAAAAAAAAAAAAAAAAAAAAAAAA
        AAAAAAAAAAAAAAAAAAAAAAAAAAAAAAAEBAgICAgICAgICAgICAgICAgICAgICAgICAgICAgICAgICAgICAgICAgICAgICAgICAgICAgICAgICAgICAgIAQIBAQEBAQEB
        AQEBAQEBAQEBAQEBAQEBAQEBAQEBAQEBAQEBAQEBAQEBAQEBAQEBAQEBAQEBAQEBAQEBAQEBAQQEBAQEBAQEBAQEBAQEBAQEBAQEBAQEBAQEBAQEBAQEBAQEBAQEBAQE
        BAQEBAQEBAQEBAQEBAQEBAQEBAQEBARgYGBgYGBgYGBgYGBgYGBgYGBgYGBgYGBgYGBgYGBgYGBgYGBgYGBgYGBgYGBgYGBgYGBgYGBgYGBgYGBgYGBgAAAAAAAAAAAA
        AAAAAAAAAAAAAAAAAAAAAAAAAAAAAAAAAAAAAAAAAAAAAAAAAAAAAAAAAAAAAAAAAAAAAAAAAAAAAAAAAAAAAAAAAAAAAAAAAAAAAAAAAAAAAAAAAAAAAAAAAAAAAAAA
        AAAAAAAAAAAAAAAAAAAAAAAAAAAAAABCYXNzIDFrIFNpbXBsZSAwMQC+X/9/AACwuOoSAQAAAAQnvl//fwAA9GBmFwEAAAAOBEgDAQAAfwB/AEAAAQABAAAAAAAAAAAA
        fwAAAAAAAAAAAAAAAAAAAAAAAAAAAAAAAAAAAAAAAAAAAAAAAAAAAAAAAAAAAAAAAAAAAAAAAAAAAAAAAAAAAAAAAAAAAAAAAAAAAAAAAAAAAAAAAAAAAAAAAAAAAAAA
        AAAAAAAAAAAAAAAAAAAAAAAAAAAAAAAAAAAAAAAAAAAEBAgICAgICAgICAgICAgICAgICAgICAgICAgICAgICAgICAgICAgICAgICAgICAgICAgICAgICAgICAgICAgI
        AQEBAQEBAQEBAQEBAQEBAQEBAQEBAQEBAQEBAQEBAQEBAQEBAQEBAQEBAQEBAQEBAQEBAQEBAQEBAQEBAQEBAQQEBAQEBAQEBAQEBAQEBAQEBAQEBAQEBAQEBAQEBAQE
        BAQEBAQEBAQEBAQEBAQEBAQEBAQEBAQEBAQEBAQEBARgYGBgYGBgYGBgYGBgYGBgYGBgYGBgYGBgYGBgYGBgYGBgYGBgYGBgYGBgYGBgYGBgYGBgYGBgYGBgYGBgYGBg
        AAAAAAAAAAAAAAAAAAAAAAAAAAAAAAAAAAAAAAAAAAAAAAAAAAAAAAAAAAAAAAAAAAAAAAAAAAAAAAAAAAAAAAAAAAAAAAAAAAAAAAAAAAAAAAAAAAAAAAAAAAAAAAAA
        AAAAAAAAAAAAAAAAAAAAAAAAAAAAAAAAAAAAAAAAAABCYXNzIDFrIFNpbXBsZSAwMgC+X/9/AACwuOoSAQAAAAQnvl//fwAA9GBmFwEAAAAOBEgDAQAAfwB/AEAAAQAB
        AAAAAAAAAAAAfwAAAAAAAAAAAAAAAAAAAAAAAAAAAAAAAAAAAAAAAAAAAAAAAAAAAAAAAAAAAAAAAAAAAAAAAAAAAAAAAAAAAAAAAAAAAAAAAAAAAAAAAAAAAAAAAAAA
        AAAAAAAAAAAAAAAAAAAAAAAAAAAAAAAAAAAAAAAAAAAAAAAAAAAAAAAEBAgICAgICAgICAgICAgICAgICAgICAgICAgICAgICAgICAgICAgICAgICAgICAgICAgICAgI
        CAgICAgICAgIAQIBAgEBAQEBAQEBAQEBAQEBAQEBAQEBAQEBAQEBAQEBAQEBAQEBAQEBAQEBAQEBAQEBAQEBAQEBAQEBAQEBAQQEBAQEBAQEBAQEBAQEBAQEBAQEBAQE
        BAQEBAQEBAQEBAQEBAQEBAQEBAQEBAQEBAQEBAQEBAQEBAQEBAQEBARgYGBgYGBgYGBgYGBgYGBgYGBgYGBgYGBgYGBgYGBgYGBgYGBgYGBgYGBgYGBgYGBgYGBgYGBg
        YGBgYGBgYGBgAAAAAAAAAAAAAAAAAAAAAAAAAAAAAAAAAAAAAAAAAAAAAAAAAAAAAAAAAAAAAAAAAAAAAAAAAAAAAAAAAAAAAAAAAAAAAAAAAAAAAAAAAAAAAAAAAAAA
        AAAAAAAAAAAAAAAAAAAAAAAAAAAAAAAAAAAAAAAAAAAAAAAAAAAAAABCYXNzIDFrIFNpbXBsZSAwMwC+X/9/AACwuOoSAQAAAAQnvl//fwAA9GBmFwEAAAAOBEgDAQAA
        fwB/AEAAAQABAAAAAAAAAAAAfwAAAAAAAAAAAAAAAAAAAAAAAAAAAAAAAAAAAAAAAAAAAAAAAAAAAAAAAAAAAAAAAAAAAAAAAAAAAAAAAAAAAAAAAAAAAAAAAAAAAAAA
        AAAAAAAAAAAAAAAAAAAAAAAAAAAAAAAAAAAAAAAAAAAAAAAAAAAAAAAAAAAAAAAAAAAICAgICAgICAgICAgICAgICAgICAgICAgICAgICAgICAgICAgICAgICAgICAgI
        CAgICAgICAgICAgICAgICAgIAAABAAEBAQEBAQEBAQEBAQEBAQEBAQEBAQEBAQEBAQEBAQEBAQEBAQEBAQEBAQEBAQEBAQEBAQEBAQEBAQEBAQQEBAQEBAQEBAQEBAQE
        BAQEBAQEBAQEBAQEBAQEBAQEBAQEBAQEBAQEBAQEBAQEBAQEBAQEBAQEBAQEBAQEBARgYGBgYGBgYGBgYGBgYGBgYGBgYGBgYGBgYGBgYGBgYGBgYGBgYGBgYGBgYGBg
        YGBgYGBgYGBgYGBgYGBgYGBgAAAAAAAAAAAAAAAAAAAAAAAAAAAAAAAAAAAAAAAAAAAAAAAAAAAAAAAAAAAAAAAAAAAAAAAAAAAAAAAAAAAAAAAAAAAAAAAAAAAAAAAA
        AAAAAAAAAAAAAAAAAAAAAAAAAAAAAAAAAAAAAAAAAAAAAAAAAAAAAAAAAAAAAAAAAABCYXNzIDFrIFNpbXBsZSAwNAC+X/9/AACwuOoSAQAAAAQnvl//fwAA9GBmFwEA
        AAAOCGQDAQAAfwB/AEAAAQABAAAAAAAAAAAAfwAAAAAAAAAAAAAAAAAAAAAAAAAAAAAAAAAAAAAAAAAAAAAAAAAAAAAAAAAAAAAAAAAAAAAAAAAAAAAAAAAAAAAAAAAA
        AAAAAAAAAAAAAAAAAAAAAAAAAAAAAAAAAAAAAAAAAAAAAAAAAAAAAAAAAAAAAAAAAAAAAAAAAAAAAAAICAgICAgICAgICAgICAgICAgICAgICAgICAgICAgICAgICAgI
        CAgICAgICAgICAgICAgICAgICAgICAgICAgIAAAAAQAAAQIAAAABAAABAgEBAQEBAQEBAQEBAQEBAQEBAQEBAQEBAQEBAQEBAQEBAQEBAQEBAQEBAQEBAQEBAQQEBAQE
        BAQEBAQEBAQEBAQEBAQEBAQEBAQEBAQEBAQEBAQEBAQEBAQEBAQEBAQEBAQEBAQEBAQEBAQEBAQEBARgYGBgYGBgYGBgYGBgYGBgYGBgYGBgYGBgYGBgYGBgYGBgYGBg
        YGBgYGBgYGBgYGBgYGBgYGBgYGBgYGBgYGBgAAAAAAAAAAAAAAAAAAAAAAAAAAAAAAAAAAAAAAAAAAAAAAAAAAAAAAAAAAAAAAAAAAAAAAAAAAAAAAAAAAAAAAAAAAAA
        AAAAAAAAAAAAAAAAAAAAAAAAAAAAAAAAAAAAAAAAAAAAAAAAAAAAAAAAAAAAAAAAAAAAAAAAAAAAAABCYXNzIDFrIERyaWZ0IG9mZmJlYXQAAACwuOoSAQAAAAQnvl//
        fwAA9GBmFwEAAAAOCF8DAQAAfwB/AEAAAQABAAAAAAAAAAAAfwAAAAAAAAAAAAAAAAAAAAAAAAAAAAAAAAAAAAAAAAAAAAAAAAAAAAAAAAAAAAAAAAAAAAAAAAAAAAAA
        AAAAAAAAAAAAAAAAAAAAAAAAAAAAAAAAAAAAAAAAAAAAAAAAAAAAAAAAAAAAAAAAAAAAAAAAAAAAAAAAAAAAAAAAAAAICAgICAgICAgICAgICAgICAgICAgICAgICAgI
        CAgICAgICAgICAgICAgICAgICAgICAgICAgICAgICAgICAgIAAEAAQAAAQIBAQEBAQEBAQEBAQEBAQEBAQEBAQEBAQEBAQEBAQEBAQEBAQEBAQEBAQEBAQEBAQEBAQEB
        AQEBAQQEBAQEBAQEBAQEBAQEBAQEBAQEBAQEBAQEBAQEBAQEBAQEBAQEBAQEBAQEBAQEBAQEBAQEBAQEBAQEBAQEBARgYGBgYGBgYGBgYGBgYGBgQEBAQEBAQEBAQEBA
        QEBAQEBAQEBAQEBAQEBAQEBAQEBAQEBAQEBAQEBAQEBAQEBAAAAAAAAAAAAAAAAAAAAAAAAAAAAAAAAAAAAAAAAAAAAAAAAAAAAAAAAAAAAAAAAAAAAAAAAAAAAAAAAA
        AAAAAAAAAAAAAAAAAAAAAAAAAAAAAAAAAAAAAAAAAAAAAAAAAAAAAAAAAAAAAAAAAAAAAAAAAAAAAAAAAAAAAAAAAABCYXNzIDFrIFRyaXBsZSBkcmlmdCBvZmZiZWF0
        AAAAAAQnvl//fwAA9GBmFwEAAAAOEEgDAQAAfwB/AEAAAQABAAAAAAAAAAAAfwAAAAAAAAAAAAAAAAAAAAAAAAAAAAAAAAAAAAAAAAAAAAAAAAAAAAAAAAAAAAAAAAAA
        AAAAAAAAAAAAAAAAAAAAAAAAAAAAAAAAAAAAAAAAAAAAAAAAAAAAAAAAAAAAAAAAAAAAAAAAAAAAAAAAAAAAAAAAAAAAAAAAAAAAAAAICAgICAgICAgICAgICAgICAgI
        CAgICAgICAgICAgICAgICAgICAgICAgICAgICAgICAgICAgICAgICAgICAgIAQEAAQEAAQEAAQEAAQABAAEBAQEBAQEBAQEBAQEBAQEBAQEBAQEBAQEBAQEBAQEBAQEB
        AQEBAQEBAQEBAQEBAQQEBAQEBAQEBAQEBAQEBAQEBAQEBAQEBAQEBAQEBAQEBAQEBAQEBAQEBAQEBAQEBAQEBAQEBAQEBAQEBAQEBARgYGBgYGBgYGBgYGBgYGBgYGBg
        YGBgYGBgYGBgYGBgYGBgYGBgYGBgYGBgYGBgYGBgYGBgYGBgYGBgYGBgYGBgAAAAAAAAAAAAAAAAAAAAAAAAAAAAAAAAAAAAAAAAAAAAAAAAAAAAAAAAAAAAAAAAAAAA
        AAAAAAAAAAAAAAAAAAAAAAAAAAAAAAAAAAAAAAAAAAAAAAAAAAAAAAAAAAAAAAAAAAAAAAAAAAAAAAAAAAAAAAAAAAAAAAAAAAAAAABCYXNzIDFrIFRlY2hubyAwMQC+
        X/9/AACwuOoSAQAAAAQnvl//fwAA9GBmFwEAAAAOIEgDAQAAfwB/AEAAAQABAAAAAAAAAAAAfwAAAAAAAAAAAAAAAAAAAAAAAAAAAAAAAAAAAAAAAAAAAAAAAAAAAAAA
        AAAAAAAAAAAAAAAAAAAAAAAAAAAAAAAAAAAAAAAAAAAAAAAAAAAAAAAAAAAAAAAAAAAAAAAAAAAAAAAAAAAAAAAAAAAAAAAAAAAAAAAAAAAAAAAAAAAICAgICAgICAgI
        CAgICAgICAgICAgICAgICAgICAgICAgICAgICAgICAgICAgICAgICAgICAgICAgICAgICAgIAAABAAAAAQAAAAEAAAABAAAAAQAAAAEAAAABAAABAAEBAQEBAQEBAQEB
        AQEBAQEBAQEBAQEBAQEBAQEBAQEBAQQEBAQEBAQEBAQEBAQEBAQEBAQEBAQEBAQEBAQEBAQEBAQEBAQEBAQEBAQEBAQEBAQEBAQEBAQEBAQEBAQEBARgYGBgYGBgYGBg
        YGBgYGBgYGBgYGBgYGBgYGBgYGBgYGBgYGBgYGBgYGBgYGBgYGBgYGBgYGBgYGBgYGBgYGBgAAAAAAAAAAAAAAAAAAAAAAAAAAAAAAAAAAAAAAAAAAAAAAAAAAAAAAAA
        AAAAAAAAAAAAAAAAAAAAAAAAAAAAAAAAAAAAAAAAAAAAAAAAAAAAAAAAAAAAAAAAAAAAAAAAAAAAAAAAAAAAAAAAAAAAAAAAAAAAAAAAAAAAAAAAAABCYXNzIDFrIFRl
        Y2hubyAwMiAoMzIgc3RlcHMpAAAAAAQnvl//fwAA9GBmFwEAAAAOEE8DAQQAfwB/AEAAAQABAAAAAAAAAAAAfwAAAAAAAAAAAAAAAAAAAAAAAAAAAAAAAAAAAAAAAAAA
        AAAAAAAAAAAAAAAAAAAAAAAAAAAAAAAAAAAAAAAAAAAAAAAAAAAAAAAAAAAAAAAAAAAAAAAAAAAAAAAAAAAAAAAAAAAAAAAAAAAAAAAAAAAAAAAAAAAAAAAAAAAAAAAI
        CAgICAgICAgICAgICAgICAgICAgICAgICAgICAgICAgICAgICAgICAgICAgICAgICAgICAgICAgICAgICAgIAQEBAQEAAQABAAEAAQABAAEBAQEBAQEBAQEBAQEBAQEB
        AQEBAQEBAQEBAQEBAQEBAQEBAQEBAQEBAQEBAQEBAQQEBAQEBAQEBAQEBAQECAQEBAQEBAQEBAQEBAQEBAQEBAQEBAQEBAQEBAQEBAQEBAQEBAQEBAQEBAQEBAQEBARg
        YGBgYGBgYGBgYGBgYGBgYGBgYGBgYGBgYGBgYGBgYGBgYGBgYGBgYGBgYGBgYGBgYGBgYGBgYGBgYGBgYGBgAAAAAAAAAAAAAAAAAAAAAAAAAAAAAAAAAAAAAAAAAAAA
        AAAAAAAAAAAAAAAAAAAAAAAAAAAAAAAAAAAAAAAAAAAAAAAAAAAAAAAAAAAAAAAAAAAAAAAAAAAAAAAAAAAAAAAAAAAAAAAAAAAAAAAAAAAAAAAAAAAAAAAAAAAAAABC
        YXNzIDJrIFRlY2hubyAwMwC+X/9/AACwuOoSAQAAAAQnvl//fwAA9GBmFwEAAAAOEEQDAQQAfwB/AEAAAQABAAAAAAAAAAAAfwAAAAAAAAAAAAAAAAAAAAAAAAAAAAAA
        AAAAAAAAAAAAAAAAAAAAAAAAAAAAAAAAAAAAAAAAAAAAAAAAAAAAAAAAAAAAAAAAAAAAAAAAAAAAAAAAAAAAAAAAAAAAAAAAAAAAAAAAAAAAAAAAAAAAAAAAAAAAAAAA
        AAAAAAAAAAAICAgICAgICAgICBAICAgICAgICAgICAgICAgICAgICAgICAgICAgICAgICAgICAgICAgICAgICAgICAgICAgIAQABAAAAAQAAAQIBAQIAAAEBAQEBAQEB
        AQEBAQEBAQEBAQEBAQEBAQEBAQEBAQEBAQEBAQEBAQEBAQEBAQEBAQQEBAQEBAQEBAQEBAQEBAQEBAQEBAQEBAQEBAQEBAQEBAQEBAQEBAQEBAQEBAQEBAQEBAQEBAQE
        BAQEBAQEBARgYGBgYGBgYGBgYGBgYGBgYGBgYGBgYGBgYGBgYGBgYGBgYGBgYGBgYGBgYGBgYGBgYGBgYGBgYGBgYGBgYGBgAAAAAAAAAAAAAAAAAAAAAAAAAAAAAAAA
        AAAAAAAAAAAAAAAAAAAAAAAAAAAAAAAAAAAAAAAAAAAAAAAAAAAAAAAAAAAAAAAAAAAAAAAAAAAAAAAAAAAAAAAAAAAAAAAAAAAAAAAAAAAAAAAAAAAAAAAAAAAAAAAA
        AAAAAAAAAABCYXNzIDNrIENvbXBsZXggMS0xAP9/AACwuOoSAQAAAAQnvl//fwAA9GBmFwEAAAAODEUEAQQAfwB/AEAAAQABAAAAAAAAAAAAfwAAAAAAAAAAAAAAAAAA
        AAAAAAAAAAAAAAAAAAAAAAAAAAAAAAAAAAAAAAAAAAAAAAAAAAAAAAAAAAAAAAAAAAAAAAAAAAAAAAAAAAAAAAAAAAAAAAAAAAAAAAAAAAAAAAAAAAAAAAAAAAAAAAAA
        AAAAAAAAAAAAAAAAAAAAAAAICAgICAgICAgICAgICAgICAgICAgICAgICAgICAgICAgICAgICAgICAgICAgICAgICAgICAgICAgICAgICAgIAQIBAgECAQIBAgECAQEB
        AQEBAQEBAQEBAQEBAQEBAQEBAQEBAQEBAQEBAQEBAQEBAQEBAQEBAQEBAQEBAQEBAQgICAgICBAQEBAQEAQEBAQEBAQEBAQEBAQEBAQEBAQEBAQEBAQEBAQEBAQEBAQE
        BAQEBAQEBAQEBAQEBAQEBARgYGBgYGBgYGBgYGBgYGBgYGBgYGBgYGBgYGBgYGBgYGBgYGBgYGBgYGBgYGBgYGBgYGBgYGBgYGBgYGBgYGBgAAAAAAAAAAAAAAAAAAAA
        AAAAAAAAAAAAAAAAAAAAAAAAAAAAAAAAAAAAAAAAAAAAAAAAAAAAAAAAAAAAAAAAAAAAAAAAAAAAAAAAAAAAAAAAAAAAAAAAAAAAAAAAAAAAAAAAAAAAAAAAAAAAAAAA
        AAAAAAAAAAAAAAAAAAAAAABCYXNzIDNrIENvbXBsZXggMS0yAP9/AACwuOoSAQAAAAQnvl//fwAA9GBmFwEAAAAODE0EAQQAfwB/AEAAAQABAAAAAAAAAAAAfwAAAAAA
        AAAAAAAAAAAAAAAAAAAAAAAAAAAAAAAAAAAAAAAAAAAAAAAAAAAAAAAAAAAAAAAAAAAAAAAAAAAAAAAAAAAAAAAAAAAAAAAAAAAAAAAAAAAAAAAAAAAAAAAAAAAAAAAA
        AAAAAAAAAAAAAAAAAAAAAAAAAAAAAAAAAAAICAgICAgICAgICAgICAgICAgICAgICAgICAgICAgICAgICAgICAgICAgICAgICAgICAgICAgICAgICAgICAgIAQEBAQEB
        AQEBAQEBAQEBAQEBAQEBAQEBAQEBAQEBAQEBAQEBAQEBAQEBAQEBAQEBAQEBAQEBAQEBAQEBAQEBAQgICAgICBAQEBAQEAQEBAQEBAQEBAQEBAQEBAQEBAQEBAQEBAQE
        BAQEBAQEBAQEBAQEBAQEBAQEBAQEBAQEBARgYGBgYGBgYGBgYGBgYGBgYGBgYGBgYGBgYGBgYGBgYGBgYGBgYGBgYGBgYGBgYGBgYGBgYGBgYGBgYGBgYGBgAAAAAAAA
        AAAAAAAAAAAAAAAAAAAAAAAAAAAAAAAAAAAAAAAAAAAAAAAAAAAAAAAAAAAAAAAAAAAAAAAAAAAAAAAAAAAAAAAAAAAAAAAAAAAAAAAAAAAAAAAAAAAAAAAAAAAAAAAA
        AAAAAAAAAAAAAAAAAAAAAAAAAAAAAAAAAABCYXNzIDNrIENvbXBsZXggMS0zAP9/AACwuOoSAQAAAAQnvl//fwAA9GBmFwEAAAAOCE0DAQAAfwB/AEAAAQABAAAAAAAA
        AAAAfwAAAAAAAAAAAAAAAAAAAAAAAAAAAAAAAAAAAAAAAAAAAAAAAAAAAAAAAAAAAAAAAAAAAAAAAAAAAAAAAAAAAAAAAAAAAAAAAAAAAAAAAAAAAAAAAAAAAAAAAAAA
        AAAAAAAAAAAAAAAAAAAAAAAAAAAAAAAAAAAAAAAAAAAAAAAICAgICAgICAgICAgICAgICAgICAgICAgICAgICAgICAgICAgICAgICAgICAgICAgICAgICAgICAgICAgI
        CAgIAAABAQAAAQABAQEBAQEBAQEBAQEBAQEBAQEBAQEBAQEBAQEBAQEBAQEBAQEBAQEBAQEBAQEBAQEBAQEBAQEBAQQEBAQEBAQEBAQEBAQEBAQEBAQEBAQEBAQEBAQE
        BAQEBAQEBAQEBAQEBAQEBAQEBAQEBAQEBAQEBAQEBAQEBARgYGBgYGBgYGBgYGBgYGBgYGBgYGBgYGBgYGBgYGBgYGBgYGBgYGBgYGBgYGBgYGBgYGBgYGBgYGBgYGBg
        YGBgAAAAAAAAAAAAAAAAAAAAAAAAAAAAAAAAAAAAAAAAAAAAAAAAAAAAAAAAAAAAAAAAAAAAAAAAAAAAAAAAAAAAAAAAAAAAAAAAAAAAAAAAAAAAAAAAAAAAAAAAAAAA
        AAAAAAAAAAAAAAAAAAAAAAAAAAAAAAAAAAAAAAAAAAAAAABCYXNzIDFrIFRyYW5jZSAwMQC+X/9/AACwuOoSAQAAAAQnvl//fwAA9GBmFwEAAAAOCEMDAQAAfwB/AEAA
        AQABAAAAAAAAAAAAfwAAAAAAAAAAAAAAAAAAAAAAAAAAAAAAAAAAAAAAAAAAAAAAAAAAAAAAAAAAAAAAAAAAAAAAAAAAAAAAAAAAAAAAAAAAAAAAAAAAAAAAAAAAAAAA
        AAAAAAAAAAAAAAAAAAAAAAAAAAAAAAAAAAAAAAAAAAAAAAAAAAAAAAAAAAAIEAgQCAgQCAgICAgICAgICAgICAgICAgICAgICAgICAgICAgICAgICAgICAgICAgICAgI
        CAgICAgICAgICAgIAAEBAQABAQEBAQEBAQEBAQEBAQEBAQEBAQEBAQEBAQEBAQEBAQEBAQEBAQEBAQEBAQEBAQEBAQEBAQEBAQEBAQQEBAQEBAQEBAQEBAQEBAQEBAQE
        BAQEBAQEBAQEBAQEBAQEBAQEBAQEBAQEBAQEBAQEBAQEBAQEBAQEBAQEBARgYGBgYGBgYGBgYGBgYGBgYGBgYGBgYGBgYGBgYGBgYGBgYGBgYGBgYGBgYGBgYGBgYGBg
        YGBgYGBgYGBgYGBgAAAAAAAAAAAAAAAAAAAAAAAAAAAAAAAAAAAAAAAAAAAAAAAAAAAAAAAAAAAAAAAAAAAAAAAAAAAAAAAAAAAAAAAAAAAAAAAAAAAAAAAAAAAAAAAA
        AAAAAAAAAAAAAAAAAAAAAAAAAAAAAAAAAAAAAAAAAAAAAAAAAAAAAAAAAABCYXNzIDFrIFRyYW5jZSAwMgC+X/9/AACwuOoSAQAAAAQnvl//fwAA9GBmFwEAAAAOEDID
        AQEAfwB/AkAAAQABAAAAAAAAAAAAfwAAAAAAAAAAAAAAAAAAAAAAAAAAAAAAAAAAAAAAAAAAAAAAAAAAAAAAAAAAAAAAAAAAAAAAAAAAAAAAAAAAAAAAAAAAAAAAAAAA
        AAAAAAAAAAAAAAAAAAAAAAAAAAAAAAAAAAAAAAAAAAAAAAAAAAAAAAAAAAAAAAAAAAAAAAAQCBAQCAgQCBAIEBAICBAICAgICAgICAgICAgICAgICAgICAgICAgICAgI
        CAgICAgICAgICAgICAgICAgICAgIAQIBAQECAQEBAgEBAQIBAQEBAQEBAQEBAQEBAQEBAQEBAQEBAQEBAQEBAQEBAQEBAQEBAQEBAQEBAQEBAQEBAQgEBAQEBAQEBAQE
        BAQEBAQEBAQEBAQEBAQEBAQEBAQEBAQEBAQEBAQEBAQEBAQEBAQEBAQEBAQEBAQEBAQEBARgYGBgYGBgYGBgYGBgYGBgYGBgYGBgYGBgYGBgYGBgYGBgYGBgYGBgYGBg
        YGBgYGBgYGBgYGBgYGBgYGBgYGBgAAAAAAAAAAAAAAAAAAAAAAAAAAAAAAAAAAAAAAAAAAAAAAAAAAAAAAAAAAAAAAAAAAAAAAAAAAAAAAAAAAAAAAAAAAAAAAAAAAAA
        AAAAAAAAAAAAAAAAAAAAAAAAAAAAAAAAAAAAAAAAAAAAAAAAAAAAAAAAAAAAAAAAAAAAAABCYXNzIDJrIFRyYW5jZSAwMwC+X/9/AACwuOoSAQAAAAQnvl//fwAA9GBm
        FwEAAAAOEF0DAQQAfwB/AkAAAQABAAAAAAAAAAAAfwAAAAAAAAAAAAAAAAAAAAAAAAAAAAAAAAAAAAAAAAAAAAAAAAAAAAAAAAAAAAAAAAAAAAAAAAAAAAAAAAAAAAAA
        AAAAAAAAAAAAAAAAAAAAAAAAAAAAAAAAAAAAAAAAAAAAAAAAAAAAAAAAAAAAAAAAAAAAAAAAAAAAAAAAAAAICAgICAgICAgICAgICAgICAgICAgICAgICAgICAgICAgI
        CAgICAgICAgICAgICAgICAgICAgICAgICAgICAgIAQABAAEAAQABAAEAAQABAAEBAQEBAQEBAQEBAQEBAQEBAQEBAQEBAQEBAQEBAQEBAQEBAQEBAQEBAQEBAQEBAQQE
        BAQEBAQEBAQEBAgEBAQEBAQEBAQEBAQEBAQEBAQEBAQEBAQEBAQEBAQEBAQEBAQEBAQEBAQEBAQEBAQEBARgYGBgYGBgYGBgYGBgYGBgYGBgYGBgYGBgYGBgYGBgYGBg
        YGBgYGBgYGBgYGBgYGBgYGBgYGBgYGBgYGBgYGBgAAAAAAAAAAAAAAAAAAAAAAAAAAAAAAAAAAAAAAAAAAAAAAAAAAAAAAAAAAAAAAAAAAAAAAAAAAAAAAAAAAAAAAAA
        AAAAAAAAAAAAAAAAAAAAAAAAAAAAAAAAAAAAAAAAAAAAAAAAAAAAAAAAAAAAAAAAAAAAAAAAAAAAAAAAAABCYXNzIDJrIERNIFF1ZXN0aW9uIG9mIHRpbWUAAQAAAAQn
        vl//fwAA9GBmFwEAAAAOEFEDAQAAfwB/AEAAAQABAAAAAAAAAAAAfwAAAAAAAAAAAAAAAAAAAAAAAAAAAAAAAAAAAAAAAAAAAAAAAAAAAAAAAAAAAAAAAAAAAAAAAAAA
        AAAAAAAAAAAAAAAAAAAAAAAAAAAAAAAAAAAAAAAAAAAAAAAAAAAAAAAAAAAAAAAAAAAAAAAAAAAAAAAAAAAAAAAAAAAAAAAIEAgQEBAQCBAQCBAQEAgQCAgICAgICAgI
        CAgICAgICAgICAgICAgICAgICAgICAgICAgICAgICAgICAgICAgIAQABAAECAAEAAAEAAQIBAAEBAQEBAQEBAQEBAQEBAQEBAQEBAQEBAQEBAQEBAQEBAQEBAQEBAQEB
        AQEBAQEBAQQEBAQEBAQEBAQEBAQEBAQEBAQEBAQEBAQEBAQEBAQEBAQEBAQEBAQEBAQEBAQEBAQEBAQEBAQEBAQEBAQEBARgYGBgYGBgYGBgYGBgYGBgYGBgYGBgYGBg
        YGBgYGBgYGBgYGBgYGBgYGBgYGBgYGBgYGBgYGBgYGBgYGBgYGBgAAAAAAAAAAAAAAAAAAAAAAAAAAAAAAAAAAAAAAAAAAAAAAAAAAAAAAAAAAAAAAAAAAAAAAAAAAAA
        AAAAAAAAAAAAAAAAAAAAAAAAAAAAAAAAAAAAAAAAAAAAAAAAAAAAAAAAAAAAAAAAAAAAAAAAAAAAAAAAAAAAAAAAAAAAAABCYXNzIDFrIEJlbmFzc2kgLSBJbGx1c2lv
        bgASAQAAAAQnvl//fwAA9GBmFwEAAAAOEFQDAQAAfwB/AEAAAQABAAAAAAAAAAAAfwAAAAAAAAAAAAAAAAAAAAAAAAAAAAAAAAAAAAAAAAAAAAAAAAAAAAAAAAAAAAAA
        AAAAAAAAAAAAAAAAAAAAAAAAAAAAAAAAAAAAAAAAAAAAAAAAAAAAAAAAAAAAAAAAAAAAAAAAAAAAAAAAAAAAAAAAAAAAAAAAAAAAAAAAAAAIEAgIEBAIEBAQCBAQEAgQ
        CAgICAgICAgICAgICAgICAgICAgICAgICAgICAgICAgICAgICAgICAgICAgICAgIAQABAQEAAQABAAEAAQABAAEBAQEBAQEBAQEBAQEBAQEBAQEBAQEBAQEBAQEBAQEB
        AQEBAQEBAQEBAQEBAQEBAQQEBAQEBAQEBAQEBAQEBAQEBAQEBAQEBAQEBAQEBAQEBAQEBAQEBAQEBAQEBAQEBAQEBAQEBAQEBAQEBAQEBARgYGBgYGBgYGBgYGBgYGBg
        YGBgYGBgYGBgYGBgYGBgYGBgYGBgYGBgYGBgYGBgYGBgYGBgYGBgYGBgYGBgYGBgAAAAAAAAAAAAAAAAAAAAAAAAAAAAAAAAAAAAAAAAAAAAAAAAAAAAAAAAAAAAAAAA
        AAAAAAAAAAAAAAAAAAAAAAAAAAAAAAAAAAAAAAAAAAAAAAAAAAAAAAAAAAAAAAAAAAAAAAAAAAAAAAAAAAAAAAAAAAAAAAAAAAAAAAAAAABCYXNzIDFrIFF1ZWVuIC0g
        QnJlYWsgZnJlZQASAQAAAAQnvl//fwAA9GBmFwEAAAAOIEwDAQAAfwB/AEAAAQABAAAAAAAAAAAAfwAAAAAAAAAAAAAAAAAAAAAAAAAAAAAAAAAAAAAAAAAAAAAAAAAA
        AAAAAAAAAAAAAAAAAAAAAAAAAAAAAAAAAAAAAAAAAAAAAAAAAAAAAAAAAAAAAAAAAAAAAAAAAAAAAAAAAAAAAAAAAAAAAAAAAAAAAAAAAAAAAAAAAAAAAAAICBAICBAI
        CBAICBAICBAICBAgCBAgCBAgCBAgCBAgEAgICAgICAgICAgICAgICAgICAgICAgICAgICAgICAgIAQABAAEBAAEBAAEBAAEBAAEBAQEBAQEBAQEBAQEBAQEBAQEBAQEB
        AQEBAQEBAQEBAQEBAQEBAQEBAQEBAQEBAQQEBAQEBAQEBAQEBAQEBAQEBAQEBAQEBAQEBAQEBAQEBAQEBAQEBAQEBAQEBAQEBAQEBAQEBAQEBAQEBAQEBARgYGBgYGBg
        YGBgYGBgYGBgYGBgYGBgYGBgYGBgYGBgYGBgYGBgYGBgYGBgYGBgYGBgYGBgYGBgYGBgYGBgYGBgAAAAAAAAAAAAAAAAAAAAAAAAAAAAAAAAAAAAAAAAAAAAAAAAAAAA
        AAAAAAAAAAAAAAAAAAAAAAAAAAAAAAAAAAAAAAAAAAAAAAAAAAAAAAAAAAAAAAAAAAAAAAAAAAAAAAAAAAAAAAAAAAAAAAAAAAAAAAAAAAAAAAAAAAAAAABCYXNzIDFr
        IFF1ZWVuIC0gTGl2aW5nIG9uIG15IG93bgAnvl//fwAA9GBmFwEAAAAOEC4DAQAAfwB/AEAAAQABAAAGBAAAAAAAfwAAAAAAAAAAAAAAAAAAAAAAAAAAAAAAAAAAAAAA
        AAAAAAAAAAAAAAAAAAAAAAAAAAAAAAAAAAAAAAAAAAAAAAAAAgAEAAMAAAIDAAMAAwQAAAAAAAAAAAAAAAAAAAAAAAAAAAAAAAAAAAAAAAAAAAAAAAAAAAAAAAAAAAAA
        AAAEAggECAQICAIICAQIBAgICAgICAgICAgICAgICAgICAgICAgICAgICAgICAgICAgICAgICAgICAgICAgICAgIAQABAAEAAQEAAQABAQAAAQEBAQEBAQEBAQEBAQEB
        AQEBAQEBAQEBAQEBAQEBAQEBAQEBAQEBAQEBAQEBAQEBAQQEBAQEBAQEBAQEBAQEBAQEBAQEBAQEBAQEBAQEBAQEBAQEBAQEBAQEBAQEBAQEBAQEBAQEBAQEBAQEBAQE
        BARgYGBgYGBgYGBgYGBgYGBgYGBgYGBgYGBgYGBgYGBgYGBgYGBgYGBgYGBgYGBgYGBgYGBgYGBgYGBgYGBgYGBgAAAAAAAAAAAAAAAAAAAAAAAAAAAAAAAAAAAAAAAA
        AAAAAAAAAAAAAAAAAAAAAAAAAAAAAAAAAAAAAAAAAAAAAAAAAAAAAAAAAAAAAAAAAAAAAAAAAAAAAAAAAAAAAAAAAAAAAAAAAAAAAAAAAAAAAAAAAAAAAAAAAAAAAAAA
        AABTZXEgMWsgRm9yY2VTY2FsZSBFbSAwMQCwuOoSAQAAAAQnvl//fwAA9GBmFwEAAAAOCEIDAQAAfwB/AEAAAQABAAAGBAAAAAAAfwAAAAAAAAAAAAAAAAAAAAAAAAAA
        AAAAAAAAAAAAAAAAAAAAAAAAAAAAAAAAAAAAAAAAAAAAAAAAAAAAAAAAAAAAAAIAAAQAAAAAAAAAAAAAAAAAAAAAAAAAAAAAAAAAAAAAAAAAAAAAAAAAAAAAAAAAAAAA
        AAAAAAAAAAAAAAAICAQIBAQICAgICAgICAgICAgICAgICAgICAgICAgICAgICAgICAgICAgICAgICAgICAgICAgICAgICAgICAgIAQIBAQEBAQIBAQEBAQEBAQEBAQEB
        AQEBAQEBAQEBAQEBAQEBAQEBAQEBAQEBAQEBAQEBAQEBAQEBAQEBAQEBAQQEBAQEBAQEBAQEBAQEBAQEBAQEBAQEBAQEBAQEBAQEBAQEBAQEBAQEBAQEBAQEBAQEBAQE
        BAQEBAQEBAQEBARgYGBgYGBgYGBgYGBgYGBgYGBgYGBgYGBgYGBgYGBgYGBgYGBgYGBgYGBgYGBgYGBgYGBgYGBgYGBgYGBgYGBgAAAAAAAAAAAAAAAAAAAAAAAAAAAA
        AAAAAAAAAAAAAAAAAAAAAAAAAAAAAAAAAAAAAAAAAAAAAAAAAAAAAAAAAAAAAAAAAAAAAAAAAAAAAAAAAAAAAAAAAAAAAAAAAAAAAAAAAAAAAAAAAAAAAAAAAAAAAAAA
        AAAAAAAAAAAAAABTZXEgMWsgRm9yY2VTY2FsZSBFbSAwMgCwuOoSAQAAAAQnvl//fwAA9GBmFwEAAAAOEEcDAQAAfwB/AEUAAQABAAAGBAAAAAAAfwAAAAAAAAAAAAAA
        AAAAAAAAAAAAAAAAAAAAAAAAAAAAAAAAAAAAAAAAAAAAAAAAAAAAAAAAAAAAAAAAAAAAAAAAAAIABAAAAAIAAAACAAMAAAAAAAAAAAAAAAAAAAAAAAAAAAAAAAAAAAAA
        AAAAAAAAAAAAAAAAAAAAAAAAAAAICAgICAgICAgICAgICAgICAgICAgICAgICAgICAgICAgICAgICAgICAgICAgICAgICAgICAgICAgICAgICAgIAAEAAQABAAABAQAA
        AQEAAQEBAQEBAQEBAQEBAQEBAQEBAQEBAQEBAQEBAQEBAQEBAQEBAQEBAQEBAQEBAQEBAQQEBAQEBAQEBAQEBAQEBAQEBAQEBAQEBAQEBAQEBAQEBAQEBAQEBAQEBAQE
        BAQEBAQEBAQEBAQEBAQEBAQEBARgYGBgYGBgYGBgYGBgYGBgYGBgYGBgYGBgYGBgYGBgYGBgYGBgYGBgYGBgYGBgYGBgYGBgYGBgYGBgYGBgYGBgAAAAAAAAAAAAAAAA
        AAAAAAAAAAAAAAAAAAAAAAAAAAAAAAAAAAAAAAAAAAAAAAAAAAAAAAAAAAAAAAAAAAAAAAAAAAAAAAAAAAAAAAAAAAAAAAAAAAAAAAAAAAAAAAAAAAAAAAAAAAAAAAAA
        AAAAAAAAAAAAAAAAAAAAAAAAAABTZXEgMWsgRm9yY2VTY2FsZSBFbSAwMwCwuOoSAQAAAAQnvl//fwAA9GBmFwEAAAAOEGQDAQQAfwB/AEAAAQABAAAGBAAAAAAAfwAA
        AAAAAAAAAAAAAAAAAAAAAAAAAAAAAAAAAAAAAAAAAAAAAAAAAAAAAAAAAAAAAAAAAAAAAAAAAAAAAAAAAAAAAAAGAAAAAAAFAAAEAAAAAAAAAAAAAAAAAAAAAAAAAAAA
        AAAAAAAAAAAAAAAAAAAAAAAAAAAAAAAAAAAAAAAECAQECAQECAQECAQECAQICAgICAgICAgICAgICAgICAgICAgICAgICAgICAgICAgICAgICAgICAgICAgICAgIAQEA
        AQEAAQEAAQEAAQEAAQEBAQEBAQEBAQEBAQEBAQEBAQEBAQEBAQEBAQEBAQEBAQEBAQEBAQEBAQEBAQEBAQQIBAQEBAQIBAQIBAQIBAQEBAQEBAQEBAQEBAQEBAQEBAQE
        BAQEBAQEBAQEBAQEBAQEBAQEBAQEBAQEBAQEBARgYGBgYGBgYGBgYGBgYGBgYGBgYGBgYGBgYGBgYGBgYGBgYGBgYGBgYGBgYGBgYGBgYGBgYGBgYGBgYGBgYGBgAAAA
        AAAAAAAAAAAAAAAAAAAAAAAAAAAAAAAAAAAAAAAAAAAAAAAAAAAAAAAAAAAAAAAAAAAAAAAAAAAAAAAAAAAAAAAAAAAAAAAAAAAAAAAAAAAAAAAAAAAAAAAAAAAAAAAA
        AAAAAAAAAAAAAAAAAAAAAAAAAAAAAAAAAAAAAABTZXEgMmsgRm9yY2VTY2FsZSBFbSAwNCAoRStHKQAAAAQnvl//fwAA9GBmFwEAAAAOCEMDAQQAfwB/AEAAAQABAAAA
        AAAAAAAAfwAAAAAAAAAAAAAAAAAAAAAAAAAAAAAAAAAAAAAAAAAAAAAAAAAAAAAAAAAAAAAAAAAAAAAAAAAAAAAAAAAAAAAAAAAAAAcAAAAAAAAAAAAAAAAAAAAAAAAA
        AAAAAAAAAAAAAAAAAAAAAAAAAAAAAAAAAAAAAAAAAAAAAAAAAAAICAgIBAQICAgICAgICAgICAgICAgICAgICAgICAgICAgICAgICAgICAgICAgICAgICAgICAgICAgI
        CAgICAgIAQIBAQEBAQIBAQEBAQEBAQEBAQEBAQEBAQEBAQEBAQEBAQEBAQEBAQEBAQEBAQEBAQEBAQEBAQEBAQEBAQEBAQQEBAgEBAQEBAQEBAQEBAQEBAQEBAQEBAQE
        BAQEBAQEBAQEBAQEBAQEBAQEBAQEBAQEBAQEBAQEBAQEBAQEBARgYGBgYGBgYGBgYGBgYGBgYGBgYGBgYGBgYGBgYGBgYGBgYGBgYGBgYGBgYGBgYGBgYGBgYGBgYGBg
        YGBgYGBgAAAAAAAAAAAAAAAAAAAAAAAAAAAAAAAAAAAAAAAAAAAAAAAAAAAAAAAAAAAAAAAAAAAAAAAAAAAAAAAAAAAAAAAAAAAAAAAAAAAAAAAAAAAAAAAAAAAAAAAA
        AAAAAAAAAAAAAAAAAAAAAAAAAAAAAAAAAAAAAAAAAAAAAAAAAABTZXEgMmsgSGFybW9uaWMxIChBK0MvQyMpAOoSAQAAAAQnvl//fwAA9GBmFwEAAAAOCEMDAQEAfwB/
        AEAAAQABAAAAAAAAAAAAfwAAAAAAAAAAAAAAAAAAAAAAAAAAAAAAAAAAAAAAAAAAAAAAAAAAAAAAAAAAAAAAAAAAAAAAAAAAAAAAAAAAAAAABwUABwUAAAAAAAAAAAAA
        AAAAAAAAAAAAAAAAAAAAAAAAAAAAAAAAAAAAAAAAAAAAAAAAAAAAAAAAAAAAAAAECAgIBAgICAgICAgICAgICAgICAgICAgICAgICAgICAgICAgICAgICAgICAgICAgI
        CAgICAgICAgICAgICAgIAQEBAQEBAQEBAQEBAQEBAQEBAQEBAQEBAQEBAQEBAQEBAQEBAQEBAQEBAQEBAQEBAQEBAQEBAQEBAQEBAQEBAQQIBAgEBAgEBAQEBAQEBAQE
        BAQEBAQEBAQEBAQEBAQEBAQEBAQEBAQEBAQEBAQEBAQEBAQEBAQEBAQEBAQEBARgYGBgYGBgYGBgYGBgYGBgYGBgYGBgYGBgYGBgYGBgYGBgYGBgYGBgYGBgYGBgYGBg
        YGBgYGBgYGBgYGBgYGBgAAAAAAAAAAAAAAAAAAAAAAAAAAAAAAAAAAAAAAAAAAAAAAAAAAAAAAAAAAAAAAAAAAAAAAAAAAAAAAAAAAAAAAAAAAAAAAAAAAAAAAAAAAAA
        AAAAAAAAAAAAAAAAAAAAAAAAAAAAAAAAAAAAAAAAAAAAAAAAAAAAAAAAAAAAAABTZXEgMmsgSGFybW9uaWMyIChBK0MvQyMpAOoSAQAAAAQnvl//fwAA9GBmFwEAAAAO
        CEcDAQEAfwB/AEAAAQABAAAAAAAAAAAAfwAAAAAAAAAAAAAAAAAAAAAAAAAAAAAAAAAAAAAAAAAAAAAAAAAAAAAAAAAAAAAAAAAAAAAAAAAAAAAAAAAAAAAABwcAAAAH
        AAAAAAAAAAAAAAAAAAAAAAAAAAAAAAAAAAAAAAAAAAAAAAAAAAAAAAAAAAAAAAAAAAAAAAAAAAAECAgICAQICAgICAgICAgICAgICAgICAgICAgICAgICAgICAgICAgI
        CAgICAgICAgICAgICAgICAgICAgICAgIAQEBAQEBAQEBAQEBAQEBAQEBAQEBAQEBAQEBAQEBAQEBAQEBAQEBAQEBAQEBAQEBAQEBAQEBAQEBAQEBAQEBAQQIBAgEBAgE
        BAQEBAQEBAQEBAQEBAQEBAQEBAQEBAQEBAQEBAQEBAQEBAQEBAQEBAQEBAQEBAQEBAQEBAQEBARgYGBgYGBgYGBgYGBgYGBgYGBgYGBgYGBgYGBgYGBgYGBgYGBgYGBg
        YGBgYGBgYGBgYGBgYGBgYGBgYGBgYGBgAAAAAAAAAAAAAAAAAAAAAAAAAAAAAAAAAAAAAAAAAAAAAAAAAAAAAAAAAAAAAAAAAAAAAAAAAAAAAAAAAAAAAAAAAAAAAAAA
        AAAAAAAAAAAAAAAAAAAAAAAAAAAAAAAAAAAAAAAAAAAAAAAAAAAAAAAAAAAAAAAAAAAAAAAAAABTZXEgMmsgSGFybW9uaWMzIChBK0MvQyMpAOoSAQAAAAQnvl//fwAA
        9GBmFwEAAAAOCEIDAQEAfwB/AEAAAQABAAAAAAAAAAAAfwAAAAAAAAAAAAAAAAAAAAAAAAAAAAAAAAAAAAAAAAAAAAAAAAAAAAAAAAAAAAAAAAAAAAAAAAAAAAAAAAAA
        AAAAAAcAAAAAAAAAAAAAAAAAAAAAAAAAAAAAAAAAAAAAAAAAAAAAAAAAAAAAAAAAAAAAAAAAAAAAAAAAAAAAAAAIBAgIBAgEBAgICAgICAgICAgICAgICAgICAgICAgI
        CAgICAgICAgICAgICAgICAgICAgICAgICAgICAgICAgIAQEBAQEBAQEBAQEBAQEBAQEBAQEBAQEBAQEBAQEBAQEBAQEBAQEBAQEBAQEBAQEBAQEBAQEBAQEBAQEBAQEB
        AQQECAQECAQEBAQEBAQEBAQEBAQEBAQEBAQEBAQEBAQEBAQEBAQEBAQEBAQEBAQEBAQEBAQEBAQEBAQEBAQEBARgYGBgYGBgYGBgYGBgYGBgYGBgYGBgYGBgYGBgYGBg
        YGBgYGBgYGBgYGBgYGBgYGBgYGBgYGBgYGBgYGBgYGBgAAAAAAAAAAAAAAAAAAAAAAAAAAAAAAAAAAAAAAAAAAAAAAAAAAAAAAAAAAAAAAAAAAAAAAAAAAAAAAAAAAAA
        AAAAAAAAAAAAAAAAAAAAAAAAAAAAAAAAAAAAAAAAAAAAAAAAAAAAAAAAAAAAAAAAAAAAAAAAAAAAAAAAAAAAAABTZXEgMmsgSGFybW9uaWM0IChBK0MvQyMpAOoSAQAA
        AAQnvl//fwAA9GBmFwEAAAAOID0DAQAAfwB/AEAAAQABAAAAAAAAAAAAfwAAAAAAAAAAAAAAAAAAAAAAAAAAAAAAAAAAAAAAAAAAAAAAAAAAAAAAAAAAAAAAAAAAAAAA
        AAAAAAAAAAAAAAAA/v4AAP7+AAAAAAAAAAAAAP7+AAD+/gAAAAAAAAAAAAAAAAAAAAAAAAAAAAAAAAAAAAAAAAAAAAAAAAAAAAAICAgICAgICAgICAgICAgICAgICAgI
        CAgICAQEBAgEBAgICAgICAgICAgICAgICAgICAgICAgICAgICAgICAgIAQEBAQEBAQEBAQAAAQEAAAEBAQEBAQEBAQEBAQEBAAABAQEBAQEBAQEBAQEBAQEBAQEBAQEB
        AQEBAQEBAQEBAQQEBAQEBAQEBAQEBAgIBAQEBAQEBAQEBAQEBAQEBAQEBAQEBAQEBAQEBAQEBAQEBAQEBAQEBAQEBAQEBAQEBARgYGBgYGBgYGBgYGBgYGBgYGBgYGBg
        YGBgYGBgYGBgYGBgYGBgYGBgYGBgYGBgYGBgYGBgYGBgYGBgYGBgYGBgAAAAAAAAAAAAAAAAAAAAAAAAAAAAAAAAAAAAAAAAAAAAAAAAAAAAAAAAAAAAAAAAAAAAAAAA
        AAAAAAAAAAAAAAAAAAAAAAAAAAAAAAAAAAAAAAAAAAAAAAAAAAAAAAAAAAAAAAAAAAAAAAAAAAAAAAAAAAAAAAAAAAAAAAAAAABTZXEgMmsgS3JhZnR3ZXJrMSAoRCtG
        KQCwuOoSAQAAAAQnvl//fwAA9GBmFwEAAAAOIGQDAQAAfwB/AD4AAQABAAAAAAAAAAAAfwAAAAAAAAAAAAAAAAAAAAAAAAAAAAAAAAAAAAAAAAAAAAAAAAAAAAAAAAAA
        AAAAAAAAAAAAAAAAAAAAAAAAAAAAAAAAAAAAAwAAAAAAAAADAAAABQAKAAcAAAAAAAAAAAAAAAAAAAAAAAAAAAAAAAAAAAAAAAAAAAAAAAAAAAAICAgICAgICAgICAgI
        CAgICAgICAgICAgICAgICAgICAgICAgICAgICAgICAgICAgICAgICAgICAgICAgICAgIAQAAAAEAAQABAAEAAAAAAAEAAAABAAEAAQAAAAAAAAABAQEBAQEBAQEBAQEB
        AQEBAQEBAQEBAQEBAQEBAQEBAQQEBAQEBAQEBAQEBAQEBAQEBAQEBAQEBAQEBAQEBAQEBAQEBAQEBAQEBAQEBAQEBAQEBAQEBAQEBAQEBAQEBARgYGBgYGBgYGBgYGBg
        YGBgYGBgYGBgYGBgYGBgYGBgYGBgYGBgYGBgYGBgYGBgYGBgYGBgYGBgYGBgYGBgYGBgAAAAAAAAAAAAAAAAAAAAAAAAAAAAAAAAAAAAAAAAAAAAAAAAAAAAAAAAAAAA
        AAAAAAAAAAAAAAAAAAAAAAAAAAAAAAAAAAAAAAAAAAAAAAAAAAAAAAAAAAAAAAAAAAAAAAAAAAAAAAAAAAAAAAAAAAAAAAAAAAAAAAAAAAAAAABTZXEgMmsgS3JhZnR3
        ZXJrMiAoQSwgQykAuOoSAQAAAAQnvl//fwAA9GBmFwEAAAAOIGQDAQAAfwB/AEAAAQABAAAAAAAAAAAAfwAAAAAAAAAAAAAAAAAAAAAAAAAAAAAAAAAAAAAAAAAAAAAA
        AAAAAAAAAAAAAAAAAAAAAAAAAAAAAAAAAAAAAAAAAAAAAPsAAAD7AAAAAAAAAAAAAgAAAAAAAAAAAPsAAAAAAAAAAAAAAAAAAAAAAAAAAAAAAAAAAAAAAAAAAAAICAgI
        CAgICAgICAgICAgICAgICAgICAgICAgICAgICAgICAgICAgICAgICAgICAgICAgICAgICAgICAgICAgIAQAAAAEAAQABAAEAAAABAAEAAAABAAEAAAAAAAAAAQABAQEB
        AQEBAQEBAQEBAQEBAQEBAQEBAQEBAQEBAQEBAQQEBAQEBAQEBAQEBAQEBAQIBAQEBAQEBAQEBAQEBAQEBAQEBAQEBAQEBAQEBAQEBAQEBAQEBAQEBAQEBAQEBARgYGBg
        YGBgYGBgYGBgYGBgYGBgYGBgYGBgYGBgYGBgYGBgYGBgYGBgYGBgYGBgYGBgYGBgYGBgYGBgYGBgYGBgAAAAAAAAAAAAAAAAAAAAAAAAAAAAAAAAAAAAAAAAAAAAAAAA
        AAAAAAAAAAAAAAAAAAAAAAAAAAAAAAAAAAAAAAAAAAAAAAAAAAAAAAAAAAAAAAAAAAAAAAAAAAAAAAAAAAAAAAAAAAAAAAAAAAAAAAAAAAAAAAAAAAAAAAAAAABTZXEg
        MmsgS3JhZnR3ZXJrMyAoQStDLCBGK0EpAAAAAAQnvl//fwAA9GBmFwEAAAA=
        AEJsdWVBUlBfU2hpdEZpeAAQAAAA
      >
      PRESETNAME BlueARP_ShitFix
      FLOATPOS 466 73 810 615
      FXID {E3BE7745-1E4E-C341-B05A-65D7C373FFE0}
      WAK 0
      BYPASS 0 0 0
      <VST "VSTi: chipsounds (Plogue Art et Technologie, Inc)" chipsounds.vst 0 "" 1347176271
        T0dMUO5e7f4AAAAABAAAAAEAAAAAAAAAAgAAAAAAAAAEAAAAAAAAAAgAAAAAAAAAGAMAAAEAAAAAABAA
        Q0VHULoMAAB4nL1XXW/aMBR976+w/LQ9NLETQogErRgtE9JYkWDPlQkmWHM+Fjus3a+f4xACLUvMNM0v2NfH995zT0xuhvcvMQd7mguWJiOILQTB/d3NcJwzsiR7erLV
        Rw68uwFqDJdUSpZEAvwoCGfyVe1CEPF0Tfgi5WrpOhAImVMSK1i1jMnLUlvGnKfh/NMIeliZ57OH2VMh5+mGai+kkGlMpAq55KkcQZWPCEfQQdgvZ4QTZcPgFtAytiVC
        fjBPaCJpPoJ9VKeyKhIdHVlIDwjsOn/lGrCNDpiQmJYuLbAocgomO5bZy9mD3fcGGHz4ulpOPkKwJsn3WYlHKIAg3JEkoXwEb9X5TBPuQSAP4W5xEzBbP+ckiWhpPRql
        MoksFVSziwtZTcTPZ06ELH1VaepU54QlOlWF2BNeUC3SOZ9zID4C3xE/BzqmQNcU2DMFeqbAvinQNwUOTIGBKRAjY6SxNthYHGysDjaWB3fpsyA5iY0eogbZFb1B+h2P
        eoM8K73Xnig29up3CXoCPVW0h1uhp6VyHa8NekWtPHNaXZepgQ5OoW4rNDgrVjAIXP+PavWaEmCnK4cANZ57nVhzdQPkXIE1VyJATdGcTuzgihyCK+4DMn92FbirEiuS
        R1Qe3pFhGlsLnkYFtcr2wPoyfbIKQXN08r7SpyaFUC/xByIJkK9ZWQ7H7SuBBPtVallSr7sKFY8mG0aq6UYdUZN6TKsfp15j1D4eO/bRJYp2xfFa0vh/kf5H429Jr3IW
        RTRfqnaLJiHNO2lj38FBTRvre1nzdi7xfiuq/hf3p6oAgTvxp8FFNv7hVB95aow9t6yaf9E6uWg9ejDwe9nDO2tLhYd22XEe5o/bLQ3lsQVFdQs6jtesLPHbbrNuWj9/
        m9UHSCjZns6qDhnX68emY6ZchaCbFVmX+6e3P6eCyjlNCsBEfVzqVNtlB5K+KMiWbeVO9bVE7kbQHmcZZ6Hu1oVdnVTNMctEWiQbZdHBhN3i156onlewEIzzjEYRS4Wt
        Q1hEXbasIW8r9uqzxK6/S+5ufgOOqCfO
        AAAQAAAA
      >
      FLOATPOS 168 55 871 509
      FXID {A0646B08-E711-BF49-8783-28316B119F0D}
      WAK 0
      BYPASS 1 0 0
      <VST "VST: 8-Bit Shaper (Xfer Records)" 8BitShaper.vst 0 "" 1148539762
        clN1RO5e7f4CAAAAAQAAAAAAAAACAAAAAAAAAAQAAAABAAAAAAAAAAIAAAAAAAAABAAAAAAAAAAIAAAAAAAAADQCAAABAAAAAAAQAA==
        ZmaGPwAAAD8AAAA/AAAAPyQA//8AAIA/L1VzZXJzL3MXAAAAMAAAABkAAAAaAAAAGgAAABoAAAAbAAAAGwAAABwAAAAcAAAAHAAAAB0AAAAdAAAAHgAAAB4AAAAfAAAA
        HwAAACAAAAAgAAAAIAAAACEAAAAhAAAAIQAAACIAAAAiAAAAIgAAACMAAAAjAAAAIwAAACQAAAAkAAAAJAAAACUAAAAlAAAAKAAAACgAAAApAAAAKQAAACoAAAA1AAAA
        KgAAACoAAAA2AAAAKgAAACoAAAAqAAAAKgAAACoAAAAqAAAAKgAAACsAAAArAAAAOQAAAC0AAAA0AAAAOgAAAC0AAAAtAAAAPAAAAC4AAAAuAAAALwAAADAAAAAwAAAA
        MQAAADEAAAAxAAAAMgAAADMAAAAzAAAAMwAAADcAAAA3AAAANwAAADgAAAA4AAAAOAAAADkAAAA5AAAAOQAAADoAAAA6AAAAOgAAADoAAAA6AAAAOwAAADsAAAA7AAAA
        PAAAADsAAAA7AAAAOwAAADwAAAA8AAAAPAAAADwAAAA9AAAAPQAAAD0AAAA9AAAAPQAAAD4AAAA+AAAAPwAAAEkAAABAAAAAQAAAAEgAAABAAAAAQQAAAEIAAABCAAAA
        QgAAAEMAAABDAAAAQwAAAEQAAABEAAAARQAAAE0AAABGAAAARwAAAEYAAABHAAAASAAAAEgAAABJAAAATwAAAAAAgD+rqio/AACAP6EwzT4mXIw+
        AEluaXQgMQAQAAAA
      >
      PRESETNAME "Init 1"
      FLOATPOS 342 36 278 389
      FXID {A90868C7-B77C-BB4D-8208-740517688A17}
      WAK 0
    >
    <ITEM
      POSITION 0
      SNAPOFFS 0
      LENGTH 41
      LOOP 1
      ALLTAKES 0
      FADEIN 1 0 0 1 0 0
      FADEOUT 1 0 0 1 0 0
      MUTE 0
      SEL 1
      YPOS 0.666667 0.083333
      IGUID {B21D2D6A-95E2-0747-83CC-2010A96621FB}
      IID 1
      NAME "trumpet(s) - National_Anthems_-_Israel.mid"
      VOLPAN 1 0 1 -1
      SOFFS 0 0
      PLAYRATE 1 1 0 -1 0 0.0025
      CHANMODE 0
      TAKECOLOR 26173599 B
      GUID {3AFF611C-EB52-B140-9AA2-D1B5CE4E9525}
      <SOURCE MIDI
        HASDATA 1 480 QN
        POOLEDEVTS {201570B2-31A5-4747-8E00-B43C3B433FE4}
        <X 0 0
          /wN0cnVtcGV0KHMp
        >
        <X 0 0
          /wRTb3VuZCBDYW52YXM=
        >
        e 0 90 40 5c
        e 237 90 42 74 -1
        e 2 80 40 00
        e 236 80 42 00 -1
        e 1 90 43 6f -1
        e 196 80 43 00 -1
        e 43 90 45 61 -2
        e 130 80 45 00 -2
        e 111 90 47 67 -1
        e 383 80 47 00 -1
        e 93 90 47 6b -3
        e 387 80 47 00 -3
        e 98 90 48 5f -1
        e 232 80 48 00 -1
        e 7 90 47 63 -1
        e 117 80 47 00 -1
        e 123 90 48 5b -2
        e 238 90 4c 5f -2
        e 22 80 48 00 -2
        e 92 80 4c 00 -2
        e 127 90 47 5d -2
        e 837 80 47 00 -2
        e 124 90 45 67 -1
        e 416 80 45 00 -1
        e 61 90 45 6d -2
        e 149 80 45 00 -2
        e 91 90 45 69 -2
        e 164 80 45 00 -2
        e 74 90 43 74 -4
        e 411 80 43 00 -4
        e 69 90 43 6d -3
        e 396 80 43 00 -3
        e 86 90 42 71 -3
        e 225 80 42 00 -3
        e 13 90 40 58 -4
        e 166 80 40 00 -4
        e 75 90 42 71 -3
        e 240 90 43 6f -3
        e 10 80 42 00 -3
        e 148 80 43 00 -3
        e 83 90 40 6d -3
        e 587 80 40 00 -3
        e 137 90 3b 5f -1
        e 174 80 3b 00 -1
        e 61 90 40 6d -3
        e 233 80 40 00 -3
        e 7 90 42 6f -3
        e 199 80 42 00 -3
        e 64 90 43 67 5
        e 210 90 45 69 -6
        e 26 80 43 00 5
        e 145 80 45 00 -6
        e 71 90 47 60 -5
        e 442 80 47 00 -5
        e 42 90 47 61 -4
        e 432 80 47 00 -4
        e 50 90 48 63 -3
        e 222 80 48 00 -3
        e 14 90 47 5d -4
        e 185 80 47 00 -4
        e 55 90 48 5d -4
        e 237 80 48 00 -4
        e 1 90 4c 60 -5
        e 148 80 4c 00 -5
        e 93 90 47 65 -4
        e 830 80 47 00 -4
        e 136 90 45 6d -2
        e 421 80 45 00 -2
        e 61 90 45 6d -1
        e 146 80 45 00 -1
        e 93 90 45 6b -2
        e 162 80 45 00 -2
        e 78 90 43 71 -2
        e 407 80 43 00 -2
        e 74 90 43 74 -1
        e 425 80 43 00 -1
        e 60 90 42 74 1
        e 211 80 42 00 1
        e 25 90 40 61 -1
        e 189 80 40 00 -1
        e 52 90 42 71 -1
        e 223 80 42 00 -1
        e 12 90 43 71 -2
        e 137 80 43 00 -2
        e 107 90 40 60 -1
        e 812 80 40 00 -1
        e 152 90 40 6d 1
        e 412 80 40 00 1
        e 66 90 4c 71 -1
        e 382 80 4c 00 -1
        e 101 90 4c 67 1
        e 353 80 4c 00 1
        e 122 90 4c 6d -1
        e 374 80 4c 00 -1
        e 107 90 4a 67 -1
        e 224 80 4a 00 -1
        e 14 90 4c 5b -1
        e 143 80 4c 00 -1
        e 97 90 4a 65 -1
        e 220 80 4a 00 -1
        e 20 90 48 58 -2
        e 141 80 48 00 -2
        e 99 90 47 63 -1
        e 958 80 47 00 -1
        e 10 90 40 59 1
        e 454 80 40 00 1
        e 15 90 4c 6b -3
        e 357 80 4c 00 -3
        e 123 90 4c 65 -3
        e 364 80 4c 00 -3
        e 114 90 4c 65 -3
        e 395 80 4c 00 -3
        e 86 90 4a 60 -3
        e 217 80 4a 00 -3
        e 24 90 4c 60 -2
        e 160 80 4c 00 -2
        e 80 90 4a 63 -2
        e 209 80 4a 00 -2
        e 30 90 48 61 -3
        e 132 80 48 00 -3
        e 107 90 47 69 -4
        e 828 80 47 00 -4
        e 139 90 4a 6f -1
        e 358 80 4a 00 -1
        e 120 90 4a 6f -2
        e 166 80 4a 00 -2
        e 76 90 4a 67 -1
        e 179 80 4a 00 -1
        e 59 90 43 74 -2
        e 391 80 43 00 -2
        e 88 90 43 71 -2
        e 399 80 43 00 -2
        e 84 90 45 6f -1
        e 238 90 47 69 -2
        e 2 80 45 00 -1
        e 169 80 47 00 -2
        e 69 90 48 60 -1
        e 220 80 48 00 -1
        e 16 90 4a 60 -3
        e 149 80 4a 00 -3
        e 92 90 47 65 -2
        e 390 80 47 00 -2
        e 94 90 45 69 -1
        e 219 80 45 00 -1
        e 18 90 43 67 -2
        e 161 80 43 00 -2
        e 81 90 45 65 -2
        e 386 80 45 00 -2
        e 96 90 45 63 -1
        e 407 80 45 00 -1
        e 69 90 43 71 -2
        e 404 80 43 00 -2
        e 76 90 43 71 -2
        e 256 80 43 00 -2
        e 103 90 43 69 -2
        e 120 90 42 69 -2
        e 4 80 43 00 -2
        e 220 80 42 00 -2
        e 14 90 40 60 -4
        e 207 80 40 00 -4
        e 33 90 42 6f -4
        e 218 80 42 00 -4
        e 18 90 43 6b -5
        e 223 80 43 00 -5
        e 24 90 40 69 -2
        e 847 80 40 00 -2
        e 122 90 45 6d 1
        e 388 80 45 00 1
        e 88 90 45 67 -1
        e 150 80 45 00 -1
        e 87 90 45 65 -2
        e 141 80 45 00 -2
        e 99 90 43 71 -2
        e 384 80 43 00 -2
        e 93 90 43 6f -2
        e 387 80 43 00 -2
        e 100 90 45 69
        e 236 80 45 00
        e 0 90 47 67 -1
        e 165 80 47 00 -1
        e 77 90 48 63 -1
        e 222 80 48 00 -1
        e 16 90 4a 6d -1
        e 122 80 4a 00 -1
        e 118 90 47 59 -2
        e 472 80 47 00 -2
        e 9 90 45 65 -1
        e 217 80 45 00 -1
        e 22 90 43 74 -2
        e 125 80 43 00 -2
        e 123 90 45 74 2
        e 382 80 45 00 2
        e 90 90 45 69 -1
        e 130 80 45 00 -1
        e 113 90 45 69 -1
        e 154 80 45 00 -1
        e 83 90 43 6f -1
        e 383 80 43 00 -1
        e 92 90 43 6d -3
        e 245 80 43 00 -3
        e 119 90 43 6d -2
        e 117 90 42 6f -3
        e 1 80 43 00 -2
        e 214 80 42 00 -3
        e 23 90 40 61 -4
        e 176 80 40 00 -4
        e 65 90 42 74 -3
        e 233 80 42 00 -3
        e 7 90 43 77 -3
        e 150 80 43 00 -3
        e 95 90 40 69 -2
        e 1924 80 40 00 -1
        E 0 b0 7b 00
        GUID {D9AB79C0-9436-CE4E-95CA-47261285F2CC}
        IGNTEMPO 0 120 4 4
        SRCCOLOR 472
        VELLANE -1 86 6
        CFGEDITVIEW -2398.598133 16.158217 62 16 0 0 0 0 0 0.5
        KEYSNAP 0
        TRACKSEL 226 0 0 ""
        EVTFILTER 0 -1 -1 -1 -1 0 0 0 0 -1 -1 -1 -1 0 -1 0 -1 -1
        CFGEDIT 1 0 0 0 0 0 1 0 1 1 1 0.25 48 95 1280 778 0 0 2 3 0 0 0 0 0 -1 0 0 0.27 64
      >
      TAKE
      NAME "trumpet(s) - National_Anthems_-_Israel.mid"
      TAKEVOLPAN 0 1 -1
      SOFFS 0 0
      PLAYRATE 1 1 0 -1 0 0.0025
      CHANMODE 0
      GUID {D4038B98-3D90-DF48-9D8A-6D2579284CD6}
      <SOURCE MIDI
        HASDATA 1 480 QN
        POOLEDEVTS {3AE3ED19-8961-8C4E-96DA-BCB238D57F8B}
        <X 0 0
          /wN0cnVtcGV0KHMp
        >
        <X 0 0
          /wRTb3VuZCBDYW52YXM=
        >
        e 0 90 40 5c
        e 236 90 42 74
        e 3 80 40 3f
        e 235 80 42 32
        e 1 90 43 6f
        e 196 80 43 31
        e 42 90 45 61
        e 130 80 45 23
        e 112 90 47 67
        e 383 80 47 23
        e 91 90 47 6b
        e 387 80 47 61
        e 100 90 48 5f
        e 232 80 48 46
        e 7 90 47 63
        e 117 80 47 2d
        e 122 90 48 5b
        e 238 90 4c 5f
        e 22 80 48 3c
        e 92 80 4c 30
        e 127 90 47 5d
        e 837 80 47 42
        e 125 90 45 67
        e 416 80 45 39
        e 60 90 45 6d
        e 149 80 45 34
        e 91 90 45 69
        e 164 80 45 23
        e 72 90 43 74
        e 411 80 43 2e
        e 70 90 43 6d
        e 396 80 43 28
        e 86 90 42 71
        e 225 80 42 3b
        e 12 90 40 58
        e 166 80 40 20
        e 76 90 42 71
        e 240 90 43 6f
        e 10 80 42 3c
        e 148 80 43 34
        e 83 90 40 6d
        e 587 80 40 4c
        e 139 90 3b 5f
        e 174 80 3b 1f
        e 59 90 40 6d
        e 233 80 40 28
        e 7 90 42 6f
        e 199 80 42 39
        e 72 90 43 67
        e 199 90 45 69
        e 37 80 43 23
        e 134 80 45 09
        e 72 90 47 60
        e 442 80 47 49
        e 43 90 47 61
        e 432 80 47 2a
        e 51 90 48 63
        e 222 80 48 4a
        e 13 90 47 5d
        e 185 80 47 2d
        e 55 90 48 5d
        e 237 80 48 3e
        e 0 90 4c 60
        e 148 80 4c 44
        e 94 90 47 65
        e 830 80 47 3a
        e 138 90 45 6d
        e 421 80 45 39
        e 62 90 45 6d
        e 146 80 45 3f
        e 92 90 45 6b
        e 162 80 45 2a
        e 78 90 43 71
        e 407 80 43 35
        e 75 90 43 74
        e 425 80 43 36
        e 62 90 42 74
        e 211 80 42 3e
        e 23 90 40 61
        e 189 80 40 2e
        e 52 90 42 71
        e 223 80 42 01
        e 11 90 43 71
        e 137 80 43 34
        e 108 90 40 60
        e 812 80 40 27
        e 154 90 40 6d
        e 412 80 40 0c
        e 64 90 4c 71
        e 382 80 4c 20
        e 103 90 4c 67
        e 353 80 4c 42
        e 120 90 4c 6d
        e 374 80 4c 2c
        e 107 90 4a 67
        e 224 80 4a 32
        e 14 90 4c 5b
        e 143 80 4c 39
        e 97 90 4a 65
        e 220 80 4a 35
        e 19 90 48 58
        e 141 80 48 28
        e 100 90 47 63
        e 958 80 47 09
        e 12 90 40 59
        e 454 80 40 22
        e 11 90 4c 6b
        e 357 80 4c 2b
        e 123 90 4c 65
        e 364 80 4c 25
        e 114 90 4c 65
        e 395 80 4c 39
        e 86 90 4a 60
        e 217 80 4a 24
        e 25 90 4c 60
        e 160 80 4c 2e
        e 80 90 4a 63
        e 209 80 4a 36
        e 29 90 48 61
        e 132 80 48 1c
        e 106 90 47 69
        e 828 80 47 38
        e 142 90 4a 6f
        e 358 80 4a 16
        e 119 90 4a 6f
        e 166 80 4a 46
        e 77 90 4a 67
        e 179 80 4a 3c
        e 58 90 43 74
        e 391 80 43 35
        e 88 90 43 71
        e 399 80 43 2c
        e 85 90 45 6f
        e 237 90 47 69
        e 3 80 45 01
        e 168 80 47 17
        e 70 90 48 60
        e 220 80 48 44
        e 14 90 4a 60
        e 149 80 4a 2a
        e 93 90 47 65
        e 390 80 47 17
        e 95 90 45 69
        e 219 80 45 3a
        e 17 90 43 67
        e 161 80 43 2c
        e 81 90 45 65
        e 386 80 45 29
        e 97 90 45 63
        e 407 80 45 0d
        e 68 90 43 71
        e 404 80 43 3f
        e 76 90 43 71
        e 256 80 43 2e
        e 103 90 43 69
        e 120 90 42 69
        e 4 80 43 35
        e 220 80 42 47
        e 12 90 40 60
        e 207 80 40 2a
        e 33 90 42 6f
        e 218 80 42 2e
        e 17 90 43 6b
        e 223 80 43 1c
        e 27 90 40 69
        e 847 80 40 1a
        e 125 90 45 6d
        e 388 80 45 33
        e 86 90 45 67
        e 150 80 45 34
        e 86 90 45 65
        e 141 80 45 25
        e 99 90 43 71
        e 384 80 43 3c
        e 93 90 43 6f
        e 387 80 43 4c
        e 102 90 45 69
        e 235 90 47 67
        e 1 80 45 1b
        e 164 80 47 35
        e 77 90 48 63
        e 222 80 48 31
        e 16 90 4a 6d
        e 122 80 4a 1d
        e 117 90 47 59
        e 472 80 47 1f
        e 10 90 45 65
        e 217 80 45 3d
        e 21 90 43 74
        e 125 80 43 51
        e 127 90 45 74
        e 382 80 45 34
        e 87 90 45 69
        e 130 80 45 3e
        e 113 90 45 69
        e 154 80 45 1c
        e 83 90 43 6f
        e 383 80 43 3a
        e 90 90 43 6d
        e 245 80 43 27
        e 120 90 43 6d
        e 116 90 42 6f
        e 2 80 43 40
        e 213 80 42 34
        e 22 90 40 61
        e 176 80 40 2f
        e 66 90 42 74
        e 233 80 42 2b
        e 7 90 43 77
        e 150 80 43 30
        e 96 90 40 69
        e 1925 80 40 65
        E 1 b0 7b 00
        GUID {D956EC1E-285C-4C47-92D1-3F456EC7F884}
        IGNTEMPO 0 120 4 4
        SRCCOLOR 13490
        VELLANE -1 86 6
        CFGEDITVIEW 0 0 50 22 0 0 0 0 0 0.5
        KEYSNAP 0
        TRACKSEL 226 0 0 ""
        EVTFILTER 0 -1 -1 -1 -1 0 0 0 0 -1 -1 -1 -1 0 -1 0 -1 -1
        CFGEDIT 1 0 0 0 0 0 1 0 1 1 1 0.25 166 130 1414 829 0 0 2 3 0 0 0 0 0 -1 0 0 1 64
      >
    >
  >
  <TRACK {2BB5EACD-C1BC-284E-92F6-33B7023B768F}
    NAME "ch1,3 (send)"
    PEAKCOL 16576
    BEAT -1
    AUTOMODE 0
    VOLPAN 1 0 -1 -1 1
    MUTESOLO 0 0 0
    IPHASE 0
    ISBUS 0 0
    BUSCOMP 0 0
    SHOWINMIX 1 1 0.5 1 0.5 0 0 0
    FREEMODE 0
    SEL 0
    REC 0 0 0 0 0 0 0
    VU 2
    MIDICTL -1 1
    TRACKHEIGHT 116 0
    INQ 0 0 0 0.5 100 0 0 100
    NCHAN 2
    FX 1
    TRACKID {2BB5EACD-C1BC-284E-92F6-33B7023B768F}
    PERF 0
    MIDIOUT -1
    MAINSEND 1 0
    <FXCHAIN
      WNDRECT 528 36 724 387
      SHOW 0
      LASTSEL 0
      DOCKED 1
    >
    <ITEM
      POSITION 0
      SNAPOFFS 0
      LENGTH 41
      LOOP 1
      ALLTAKES 0
      FADEIN 1 0 0 1 0 0
      FADEOUT 1 0 0 1 0 0
      MUTE 0
      SEL 0
      YPOS 0.666667 0.083333
      IGUID {7838AFDD-B827-D948-8626-06E5A323BD16}
      IID 1
      NAME "trumpet(s) - National_Anthems_-_Israel.mid"
      VOLPAN 1 0 1 -1
      SOFFS 0 0
      PLAYRATE 1 1 0 -1 0 0.0025
      CHANMODE 0
      TAKECOLOR 26173599 B
      GUID {4074B8E0-2F20-034A-B877-153CA04289C4}
      <SOURCE MIDI
        HASDATA 1 480 QN
        POOLEDEVTS {288F14E5-BC49-8041-935B-28C4BE1C4A20}
        <X 0 0
          /wN0cnVtcGV0KHMp
        >
        <X 0 0
          /wRTb3VuZCBDYW52YXM=
        >
        e 0 90 40 5c
        e 237 90 42 74 -1
        e 2 80 40 3f
        e 236 80 42 32 -1
        e 1 90 43 6f -1
        e 196 80 43 31 -1
        e 43 90 45 61 -2
        e 130 80 45 23 -2
        e 111 90 47 67 -1
        e 383 80 47 23 -1
        e 93 90 47 6b -3
        e 387 80 47 61 -3
        e 98 90 48 5f -1
        e 232 80 48 46 -1
        e 7 90 47 63 -1
        e 117 80 47 2d -1
        e 123 90 48 5b -2
        e 238 90 4c 5f -2
        e 22 80 48 3c -2
        e 92 80 4c 30 -2
        e 127 90 47 5d -2
        e 837 80 47 42 -2
        e 124 90 45 67 -1
        e 416 80 45 39 -1
        e 61 90 45 6d -2
        e 149 80 45 34 -2
        e 91 90 45 69 -2
        e 164 80 45 23 -2
        e 74 90 43 74 -4
        e 411 80 43 2e -4
        e 69 90 43 6d -3
        e 396 80 43 28 -3
        e 86 90 42 71 -3
        e 225 80 42 3b -3
        e 13 90 40 58 -4
        e 166 80 40 20 -4
        e 75 90 42 71 -3
        e 240 90 43 6f -3
        e 10 80 42 3c -3
        e 148 80 43 34 -3
        e 83 90 40 6d -3
        e 587 80 40 4c -3
        e 137 90 3b 5f -1
        e 174 80 3b 1f -1
        e 61 90 40 6d -3
        e 233 80 40 28 -3
        e 7 90 42 6f -3
        e 199 80 42 39 -3
        e 64 90 43 67 5
        e 210 90 45 69 -6
        e 26 80 43 23 5
        e 145 80 45 09 -6
        e 71 90 47 60 -5
        e 442 80 47 49 -5
        e 42 90 47 61 -4
        e 432 80 47 2a -4
        e 50 90 48 63 -3
        e 222 80 48 4a -3
        e 14 90 47 5d -4
        e 185 80 47 2d -4
        e 55 90 48 5d -4
        e 237 80 48 3e -4
        e 1 90 4c 60 -5
        e 148 80 4c 44 -5
        e 93 90 47 65 -4
        e 830 80 47 3a -4
        e 136 90 45 6d -2
        e 421 80 45 39 -2
        e 61 90 45 6d -1
        e 146 80 45 3f -1
        e 93 90 45 6b -2
        e 162 80 45 2a -2
        e 78 90 43 71 -2
        e 407 80 43 35 -2
        e 74 90 43 74 -1
        e 425 80 43 36 -1
        e 60 90 42 74 1
        e 211 80 42 3e 1
        e 25 90 40 61 -1
        e 189 80 40 2e -1
        e 52 90 42 71 -1
        e 223 80 42 01 -1
        e 12 90 43 71 -2
        e 137 80 43 34 -2
        e 107 90 40 60 -1
        e 812 80 40 27 -1
        e 152 90 40 6d 1
        e 412 80 40 0c 1
        e 66 90 4c 71 -1
        e 382 80 4c 20 -1
        e 101 90 4c 67 1
        e 353 80 4c 42 1
        e 122 90 4c 6d -1
        e 374 80 4c 2c -1
        e 107 90 4a 67 -1
        e 224 80 4a 32 -1
        e 14 90 4c 5b -1
        e 143 80 4c 39 -1
        e 97 90 4a 65 -1
        e 220 80 4a 35 -1
        e 20 90 48 58 -2
        e 141 80 48 28 -2
        e 99 90 47 63 -1
        e 958 80 47 09 -1
        e 10 90 40 59 1
        e 454 80 40 22 1
        e 15 90 4c 6b -3
        e 357 80 4c 2b -3
        e 123 90 4c 65 -3
        e 364 80 4c 25 -3
        e 114 90 4c 65 -3
        e 395 80 4c 39 -3
        e 86 90 4a 60 -3
        e 217 80 4a 24 -3
        e 24 90 4c 60 -2
        e 160 80 4c 2e -2
        e 80 90 4a 63 -2
        e 209 80 4a 36 -2
        e 30 90 48 61 -3
        e 132 80 48 1c -3
        e 107 90 47 69 -4
        e 828 80 47 38 -4
        e 139 90 4a 6f -1
        e 358 80 4a 16 -1
        e 120 90 4a 6f -2
        e 166 80 4a 46 -2
        e 76 90 4a 67 -1
        e 179 80 4a 3c -1
        e 59 90 43 74 -2
        e 391 80 43 35 -2
        e 88 90 43 71 -2
        e 399 80 43 2c -2
        e 84 90 45 6f -1
        e 238 90 47 69 -2
        e 2 80 45 01 -1
        e 169 80 47 17 -2
        e 69 90 48 60 -1
        e 220 80 48 44 -1
        e 16 90 4a 60 -3
        e 149 80 4a 2a -3
        e 92 90 47 65 -2
        e 390 80 47 17 -2
        e 94 90 45 69 -1
        e 219 80 45 3a -1
        e 18 90 43 67 -2
        e 161 80 43 2c -2
        e 81 90 45 65 -2
        e 386 80 45 29 -2
        e 96 90 45 63 -1
        e 407 80 45 0d -1
        e 69 90 43 71 -2
        e 404 80 43 3f -2
        e 76 90 43 71 -2
        e 256 80 43 2e -2
        e 103 90 43 69 -2
        e 120 90 42 69 -2
        e 4 80 43 35 -2
        e 220 80 42 47 -2
        e 14 90 40 60 -4
        e 207 80 40 2a -4
        e 33 90 42 6f -4
        e 218 80 42 2e -4
        e 18 90 43 6b -5
        e 223 80 43 1c -5
        e 24 90 40 69 -2
        e 847 80 40 1a -2
        e 122 90 45 6d 1
        e 388 80 45 33 1
        e 88 90 45 67 -1
        e 150 80 45 34 -1
        e 87 90 45 65 -2
        e 141 80 45 25 -2
        e 99 90 43 71 -2
        e 384 80 43 3c -2
        e 93 90 43 6f -2
        e 387 80 43 4c -2
        e 100 90 45 69
        e 236 80 45 1b
        e 0 90 47 67 -1
        e 165 80 47 35 -1
        e 77 90 48 63 -1
        e 222 80 48 31 -1
        e 16 90 4a 6d -1
        e 122 80 4a 1d -1
        e 118 90 47 59 -2
        e 472 80 47 1f -2
        e 9 90 45 65 -1
        e 217 80 45 3d -1
        e 22 90 43 74 -2
        e 125 80 43 51 -2
        e 123 90 45 74 2
        e 382 80 45 34 2
        e 90 90 45 69 -1
        e 130 80 45 3e -1
        e 113 90 45 69 -1
        e 154 80 45 1c -1
        e 83 90 43 6f -1
        e 383 80 43 3a -1
        e 92 90 43 6d -3
        e 245 80 43 27 -3
        e 119 90 43 6d -2
        e 117 90 42 6f -3
        e 1 80 43 40 -2
        e 214 80 42 34 -3
        e 23 90 40 61 -4
        e 176 80 40 2f -4
        e 65 90 42 74 -3
        e 233 80 42 2b -3
        e 7 90 43 77 -3
        e 150 80 43 30 -3
        e 95 90 40 69 -2
        e 1924 80 40 65 -1
        E 0 b0 7b 00
        GUID {D9AB79C0-9436-CE4E-95CA-47261285F2CC}
        IGNTEMPO 0 120 4 4
        SRCCOLOR 472
        VELLANE -1 86 6
        CFGEDITVIEW 9757.785979 50.873974 62 16 0 0 0 0 0 0.5
        KEYSNAP 0
        TRACKSEL 226 0 0 ""
        EVTFILTER 0 -1 -1 -1 -1 0 0 0 0 -1 -1 -1 -1 0 -1 0 -1 -1
        CFGEDIT 1 0 0 0 0 0 1 0 1 1 1 0.25 48 95 1280 778 0 0 2 3 0 0 0 0 0 -1 0 0 0.27 64
      >
      TAKE
      NAME "trumpet(s) - National_Anthems_-_Israel.mid"
      TAKEVOLPAN 0 1 -1
      SOFFS 0 0
      PLAYRATE 1 1 0 -1 0 0.0025
      CHANMODE 0
      GUID {105A5B9A-347D-4A44-B7C2-0EBD1BCC5260}
      <SOURCE MIDI
        HASDATA 1 480 QN
        POOLEDEVTS {C74422B8-5F82-DF45-9A75-E1E920D43931}
        <X 0 0
          /wN0cnVtcGV0KHMp
        >
        <X 0 0
          /wRTb3VuZCBDYW52YXM=
        >
        e 0 90 40 5c
        e 236 90 42 74
        e 3 80 40 3f
        e 235 80 42 32
        e 1 90 43 6f
        e 196 80 43 31
        e 42 90 45 61
        e 130 80 45 23
        e 112 90 47 67
        e 383 80 47 23
        e 91 90 47 6b
        e 387 80 47 61
        e 100 90 48 5f
        e 232 80 48 46
        e 7 90 47 63
        e 117 80 47 2d
        e 122 90 48 5b
        e 238 90 4c 5f
        e 22 80 48 3c
        e 92 80 4c 30
        e 127 90 47 5d
        e 837 80 47 42
        e 125 90 45 67
        e 416 80 45 39
        e 60 90 45 6d
        e 149 80 45 34
        e 91 90 45 69
        e 164 80 45 23
        e 72 90 43 74
        e 411 80 43 2e
        e 70 90 43 6d
        e 396 80 43 28
        e 86 90 42 71
        e 225 80 42 3b
        e 12 90 40 58
        e 166 80 40 20
        e 76 90 42 71
        e 240 90 43 6f
        e 10 80 42 3c
        e 148 80 43 34
        e 83 90 40 6d
        e 587 80 40 4c
        e 139 90 3b 5f
        e 174 80 3b 1f
        e 59 90 40 6d
        e 233 80 40 28
        e 7 90 42 6f
        e 199 80 42 39
        e 72 90 43 67
        e 199 90 45 69
        e 37 80 43 23
        e 134 80 45 09
        e 72 90 47 60
        e 442 80 47 49
        e 43 90 47 61
        e 432 80 47 2a
        e 51 90 48 63
        e 222 80 48 4a
        e 13 90 47 5d
        e 185 80 47 2d
        e 55 90 48 5d
        e 237 80 48 3e
        e 0 90 4c 60
        e 148 80 4c 44
        e 94 90 47 65
        e 830 80 47 3a
        e 138 90 45 6d
        e 421 80 45 39
        e 62 90 45 6d
        e 146 80 45 3f
        e 92 90 45 6b
        e 162 80 45 2a
        e 78 90 43 71
        e 407 80 43 35
        e 75 90 43 74
        e 425 80 43 36
        e 62 90 42 74
        e 211 80 42 3e
        e 23 90 40 61
        e 189 80 40 2e
        e 52 90 42 71
        e 223 80 42 01
        e 11 90 43 71
        e 137 80 43 34
        e 108 90 40 60
        e 812 80 40 27
        e 154 90 40 6d
        e 412 80 40 0c
        e 64 90 4c 71
        e 382 80 4c 20
        e 103 90 4c 67
        e 353 80 4c 42
        e 120 90 4c 6d
        e 374 80 4c 2c
        e 107 90 4a 67
        e 224 80 4a 32
        e 14 90 4c 5b
        e 143 80 4c 39
        e 97 90 4a 65
        e 220 80 4a 35
        e 19 90 48 58
        e 141 80 48 28
        e 100 90 47 63
        e 958 80 47 09
        e 12 90 40 59
        e 454 80 40 22
        e 11 90 4c 6b
        e 357 80 4c 2b
        e 123 90 4c 65
        e 364 80 4c 25
        e 114 90 4c 65
        e 395 80 4c 39
        e 86 90 4a 60
        e 217 80 4a 24
        e 25 90 4c 60
        e 160 80 4c 2e
        e 80 90 4a 63
        e 209 80 4a 36
        e 29 90 48 61
        e 132 80 48 1c
        e 106 90 47 69
        e 828 80 47 38
        e 142 90 4a 6f
        e 358 80 4a 16
        e 119 90 4a 6f
        e 166 80 4a 46
        e 77 90 4a 67
        e 179 80 4a 3c
        e 58 90 43 74
        e 391 80 43 35
        e 88 90 43 71
        e 399 80 43 2c
        e 85 90 45 6f
        e 237 90 47 69
        e 3 80 45 01
        e 168 80 47 17
        e 70 90 48 60
        e 220 80 48 44
        e 14 90 4a 60
        e 149 80 4a 2a
        e 93 90 47 65
        e 390 80 47 17
        e 95 90 45 69
        e 219 80 45 3a
        e 17 90 43 67
        e 161 80 43 2c
        e 81 90 45 65
        e 386 80 45 29
        e 97 90 45 63
        e 407 80 45 0d
        e 68 90 43 71
        e 404 80 43 3f
        e 76 90 43 71
        e 256 80 43 2e
        e 103 90 43 69
        e 120 90 42 69
        e 4 80 43 35
        e 220 80 42 47
        e 12 90 40 60
        e 207 80 40 2a
        e 33 90 42 6f
        e 218 80 42 2e
        e 17 90 43 6b
        e 223 80 43 1c
        e 27 90 40 69
        e 847 80 40 1a
        e 125 90 45 6d
        e 388 80 45 33
        e 86 90 45 67
        e 150 80 45 34
        e 86 90 45 65
        e 141 80 45 25
        e 99 90 43 71
        e 384 80 43 3c
        e 93 90 43 6f
        e 387 80 43 4c
        e 102 90 45 69
        e 235 90 47 67
        e 1 80 45 1b
        e 164 80 47 35
        e 77 90 48 63
        e 222 80 48 31
        e 16 90 4a 6d
        e 122 80 4a 1d
        e 117 90 47 59
        e 472 80 47 1f
        e 10 90 45 65
        e 217 80 45 3d
        e 21 90 43 74
        e 125 80 43 51
        e 127 90 45 74
        e 382 80 45 34
        e 87 90 45 69
        e 130 80 45 3e
        e 113 90 45 69
        e 154 80 45 1c
        e 83 90 43 6f
        e 383 80 43 3a
        e 90 90 43 6d
        e 245 80 43 27
        e 120 90 43 6d
        e 116 90 42 6f
        e 2 80 43 40
        e 213 80 42 34
        e 22 90 40 61
        e 176 80 40 2f
        e 66 90 42 74
        e 233 80 42 2b
        e 7 90 43 77
        e 150 80 43 30
        e 96 90 40 69
        e 1925 80 40 65
        E 1 b0 7b 00
        GUID {D956EC1E-285C-4C47-92D1-3F456EC7F884}
        IGNTEMPO 0 120 4 4
        SRCCOLOR 13490
        VELLANE -1 86 6
        CFGEDITVIEW 0 0 50 22 0 0 0 0 0 0.5
        KEYSNAP 0
        TRACKSEL 226 0 0 ""
        EVTFILTER 0 -1 -1 -1 -1 0 0 0 0 -1 -1 -1 -1 0 -1 0 -1 -1
        CFGEDIT 1 0 0 0 0 0 1 0 1 1 1 0.25 166 130 1414 829 0 0 2 3 0 0 0 0 0 -1 0 0 1 64
      >
    >
    <ITEM
      POSITION 0
      SNAPOFFS 0
      LENGTH 41
      LOOP 1
      ALLTAKES 0
      FADEIN 1 0 0 1 0 0
      FADEOUT 1 0 0 1 0 0
      MUTE 0
      SEL 0
      YPOS 0.75 0.083333
      IGUID {935921D2-90EB-C04F-ACEC-1ADE114563C5}
      IID 2
      NAME "fr. horn(s) - National_Anthems_-_Israel.mid"
      VOLPAN 1 0 1 -1
      SOFFS 0 0
      PLAYRATE 1 1 0 -1 0 0.0025
      CHANMODE 0
      TAKECOLOR 26173599 B
      GUID {5627A0E7-A654-E442-A63D-D80124591993}
      <SOURCE MIDI
        HASDATA 1 480 QN
        POOLEDEVTS {BC63B7CD-EACA-CE4F-B4CF-83CC2399EA1E}
        <X 0 0
          /wNmci4gaG9ybihzKQ==
        >
        <X 0 0
          /wRTb3VuZCBDYW52YXM=
        >
        e 474 91 34 4b -2
        e 237 91 36 56 -3
        e 12 81 34 30 -2
        e 188 81 36 27 -3
        e 36 91 37 3a -5
        e 966 91 39 4b -2
        e 20 81 37 10 -5
        e 939 91 3b 3a -3
        e 3 81 39 10 -2
        e 961 91 37 4b -2
        e 13 81 3b 01 -3
        e 458 81 37 01 -2
        e 2 91 39 51 -4
        e 479 91 3b 4f -5
        e 6 81 39 29 -4
        e 954 91 39 47 -4
        e 21 81 3b 18 -5
        e 942 91 37 4e -4
        e 22 81 39 06 -4
        e 856 81 37 47 -4
        e 561 91 40 4f -4
        e 466 81 40 28 -4
        e 7 91 3e 59 -6
        e 482 91 41 56 -5
        e 28 81 3e 04 -6
        e 458 91 40 4d -3
        e 22 81 41 35 -5
        e 1419 91 3e 4d -3
        e 16 81 40 11 -3
        e 937 81 3e 27 -3
        e 4 91 3c 45 -4
        e 957 81 3c 20 -4
        e 5 91 3b 4f -4
        e 486 91 39 4d -1
        e 12 81 3b 2d -4
        e 386 81 39 39 -1
        e 77 91 39 49 -3
        e 479 91 37 4d -4
        e 5 81 39 17 -3
        e 973 81 37 4a -4
        e 470 91 43 49 -1
        e 385 81 43 40 -1
        e 93 91 43 4b -1
        e 477 91 40 53 -2
        e 5 81 43 25 -1
        e 479 91 45 4e -1
        e 20 81 40 1c -2
        e 440 81 45 3d -1
        e 14 91 42 5d -3
        e 464 81 42 13 -3
        e 17 91 43 5b -3
        e 240 91 42 63 -3
        e 14 81 43 43 -3
        e 210 81 42 33 -3
        e 14 91 40 5a -4
        e 232 81 40 39 -4
        e 8 91 3e 52 -4
        e 243 81 3e 35 -4
        e 6 91 40 57
        e 473 91 4c 51 -2
        e 40 81 40 01
        e 370 81 4c 49 -2
        e 66 91 4c 55 -4
        e 407 81 4c 47 -4
        e 74 91 4c 56 -4
        e 347 81 4c 31 -4
        e 132 91 45 4f -4
        e 0 91 4a 51 -4
        e 241 81 4a 3d -4
        e 1 91 4c 3f -3
        e 228 81 4c 42 -3
        e 8 91 4a 55 -5
        e 242 91 48 52 -4
        e 6 81 4a 4b -5
        e 167 81 45 43 -4
        e 49 81 48 3f -4
        e 22 91 47 57 -3
        e 1 91 43 45 -2
        e 803 81 43 23 -2
        e 125 81 47 27 -3
        e 31 91 43 57 -2
        e 0 91 4a 4f -2
        e 402 81 4a 3b -2
        e 81 91 4a 5a -2
        e 150 81 4a 3f -2
        e 85 91 4a 4e -4
        e 160 81 43 25 -2
        e 84 91 43 59 -2
        e 29 81 4a 1a -4
        e 368 81 43 3a -2
        e 85 91 43 55 -1
        e 379 81 43 45 -1
        e 103 91 45 5b -1
        e 234 81 45 2b -1
        e 0 91 47 5a -2
        e 239 91 48 51 -3
        e 9 81 47 01 -2
        e 231 91 4a 47 -3
        e 7 81 48 36 -3
        e 236 91 47 5f -2
        e 8 81 4a 4a -3
        e 446 81 47 43 -2
        e 25 91 45 4e -2
        e 225 81 45 46 -2
        e 13 91 43 5d -3
        e 228 81 43 2a -3
        e 14 91 40 4f -2
        e 2 91 45 53 -1
        e 393 81 45 39 -1
        e 85 91 45 4e -2
        e 486 91 43 51
        e 1 81 45 3f -2
        e 368 81 43 3e
        e 104 91 43 5b -2
        e 201 81 43 2d -2
        e 71 91 43 55 9
        e 127 81 43 3b 9
        e 36 81 40 26 -2
        e 49 91 42 56 -1
        e 235 91 40 52 -3
        e 6 81 42 20 -1
        e 233 91 42 5d -3
        e 24 81 40 2d -3
        e 216 91 43 5a -4
        e 2 81 42 34 -3
        e 228 81 43 46 -4
        e 10 91 40 53 -3
        e 839 81 40 35 -3
        e 146 91 39 55 6
        e 203 81 39 30 6
        e 24 91 3b 4e 1
        e 228 81 3b 01 1
        e 13 91 3c 4f 1
        e 449 81 3c 41 1
        e 22 91 3b 59 -2
        e 478 91 3d 5a -3
        e 2 81 3b 17 -2
        e 462 81 3d 37 -3
        e 16 91 3e 59 -3
        e 905 81 3e 3e -3
        e 57 91 3e 4d -2
        e 893 81 3e 01 -2
        e 79 91 39 55 3
        e 476 91 3b 57 1
        e 8 81 39 11 3
        e 914 81 3b 01 1
        e 31 91 3a 53 -2
        e 455 81 3a 39 -2
        e 22 91 39 52 -3
        e 404 81 39 38 -3
        e 77 91 3b 57 -2
        e 483 91 3b 00 -1
        e 0 91 3b 5b -1
        e 13 81 3b 37 -1
        E 1910 b0 7b 00
        GUID {1A15F516-AE8D-5E4C-9290-FC9BC64570F8}
        IGNTEMPO 0 120 4 4
        SRCCOLOR 473
        VELLANE -1 86 6
        CFGEDITVIEW -1992 18.313253 62 16 0 0 0 0 0 0.5
        KEYSNAP 0
        TRACKSEL 226 0 0 ""
        EVTFILTER 0 -1 -1 -1 -1 0 0 0 0 -1 -1 -1 -1 0 -1 0 -1 -1
        CFGEDIT 1 0 0 0 0 0 1 0 1 1 1 0.25 48 95 1280 778 0 0 2 3 0 0 0 0 0 -1 0 0 0.27 64
      >
      TAKE
      NAME "fr. horn(s) - National_Anthems_-_Israel.mid"
      TAKEVOLPAN 0 1 -1
      SOFFS 0 0
      PLAYRATE 1 1 0 -1 0 0.0025
      CHANMODE 0
      GUID {CD972EB2-7547-924F-96FF-34CE44C4ED92}
      <SOURCE MIDI
        HASDATA 1 480 QN
        POOLEDEVTS {F3D69B45-540C-7D45-ACBC-F4C6C45C8D8E}
        <X 0 0
          /wNmci4gaG9ybihzKQ==
        >
        <X 0 0
          /wRTb3VuZCBDYW52YXM=
        >
        E 472 91 34 4b
        E 236 91 36 56
        E 13 81 34 30
        E 187 81 36 27
        E 34 91 37 3a
        E 969 91 39 4b
        E 17 81 37 10
        E 941 91 3b 3a
        E 4 81 39 10
        E 961 91 37 4b
        E 12 81 3b 01
        E 459 81 37 01
        E 0 91 39 51
        E 478 91 3b 4f
        E 7 81 39 29
        E 954 91 39 47
        E 20 81 3b 18
        E 943 91 37 4e
        E 22 81 39 06
        E 856 81 37 47
        E 561 91 40 4f
        E 466 81 40 28
        E 5 91 3e 59
        E 483 91 41 56
        E 27 81 3e 04
        E 461 91 40 4d
        E 20 81 41 35
        E 1421 91 3e 4d
        E 16 81 40 11
        E 937 81 3e 27
        E 3 91 3c 45
        E 957 81 3c 20
        E 5 91 3b 4f
        E 489 91 39 4d
        E 9 81 3b 2d
        E 389 81 39 39
        E 75 91 39 49
        E 478 91 37 4d
        E 6 81 39 17
        E 972 81 37 4a
        E 473 91 43 49
        E 385 81 43 40
        E 93 91 43 4b
        E 476 91 40 53
        E 6 81 43 25
        E 479 91 45 4e
        E 19 81 40 1c
        E 441 81 45 3d
        E 12 91 42 5d
        E 464 81 42 13
        E 17 91 43 5b
        E 240 91 42 63
        E 14 81 43 43
        E 210 81 42 33
        E 13 91 40 5a
        E 232 81 40 39
        E 8 91 3e 52
        E 243 81 3e 35
        E 10 91 40 57
        E 471 91 4c 51
        E 42 81 40 01
        E 368 81 4c 49
        E 64 91 4c 55
        E 407 81 4c 47
        E 74 91 4c 56
        E 347 81 4c 31
        E 132 91 45 4f
        E 0 91 4a 51
        E 241 81 4a 3d
        E 2 91 4c 3f
        E 228 81 4c 42
        E 6 91 4a 55
        E 243 91 48 52
        E 5 81 4a 4b
        E 168 81 45 43
        E 49 81 48 3f
        E 23 91 47 57
        E 2 91 43 45
        E 803 81 43 23
        E 124 81 47 27
        E 32 91 4a 4f
        E 0 91 43 57
        E 402 81 4a 3b
        E 81 91 4a 5a
        E 150 81 4a 3f
        E 83 91 4a 4e
        E 162 81 43 25
        E 84 91 43 59
        E 27 81 4a 1a
        E 370 81 43 3a
        E 86 91 43 55
        E 379 81 43 45
        E 103 91 45 5b
        E 233 91 47 5a
        E 1 81 45 2b
        E 237 91 48 51
        E 10 81 47 01
        E 230 91 4a 47
        E 7 81 48 36
        E 237 91 47 5f
        E 7 81 4a 4a
        E 447 81 47 43
        E 25 91 45 4e
        E 225 81 45 46
        E 12 91 43 5d
        E 228 81 43 2a
        E 15 91 40 4f
        E 3 91 45 53
        E 393 81 45 39
        E 84 91 45 4e
        E 487 81 45 3f
        E 1 91 43 51
        E 369 81 43 3e
        E 102 91 43 5b
        E 201 81 43 2d
        E 82 91 43 55
        E 127 81 43 3b
        E 25 81 40 26
        E 50 91 42 56
        E 233 91 40 52
        E 8 81 42 20
        E 231 91 42 5d
        E 24 81 40 2d
        E 215 91 43 5a
        E 3 81 42 34
        E 227 81 43 46
        E 11 91 40 53
        E 839 81 40 35
        E 155 91 39 55
        E 203 81 39 30
        E 19 91 3b 4e
        E 228 81 3b 01
        E 13 91 3c 4f
        E 449 81 3c 41
        E 19 91 3b 59
        E 477 91 3d 5a
        E 3 81 3b 17
        E 461 81 3d 37
        E 16 91 3e 59
        E 905 81 3e 3e
        E 58 91 3e 4d
        E 893 81 3e 01
        E 84 91 39 55
        E 474 91 3b 57
        E 10 81 39 11
        E 912 81 3b 01
        E 28 91 3a 53
        E 455 81 3a 39
        E 21 91 39 52
        E 404 81 39 38
        E 78 91 3b 57
        E 484 91 3b 5b
        E 13 81 3b 37
        E 1659 81 3b 5c
        E 252 b0 7b 00
        GUID {6912AD15-410F-4344-851B-B5065FBDB0D8}
        IGNTEMPO 0 120 4 4
        SRCCOLOR 13491
        VELLANE -1 86 6
        CFGEDITVIEW 0 0 50 22 0 0 0 0 0 0.5
        KEYSNAP 0
        TRACKSEL 226 0 0 ""
        EVTFILTER 0 -1 -1 -1 -1 0 0 0 0 -1 -1 -1 -1 0 -1 0 -1 -1
        CFGEDIT 1 0 0 0 0 0 1 0 1 1 1 0.25 166 130 1414 829 0 0 2 3 0 0 0 0 0 -1 0 0 1 64
      >
    >
  >
  <TRACK {3C494A2B-9670-9740-AD22-E42CC5065FE1}
    NAME "ch2,4 (send)"
    PEAKCOL 16576
    BEAT -1
    AUTOMODE 0
    VOLPAN 1 0 -1 -1 1
    MUTESOLO 0 0 0
    IPHASE 0
    ISBUS 0 0
    BUSCOMP 0 0
    SHOWINMIX 1 1 0.5 1 0.5 0 0 0
    FREEMODE 0
    SEL 0
    REC 0 0 0 0 0 0 0
    VU 2
    MIDICTL -1 1
    TRACKHEIGHT 127 0
    INQ 0 0 0 0.5 100 0 0 100
    NCHAN 2
    FX 1
    TRACKID {3C494A2B-9670-9740-AD22-E42CC5065FE1}
    PERF 0
    MIDIOUT -1
    MAINSEND 1 0
    <FXCHAIN
      WNDRECT 32 359 724 387
      SHOW 0
      LASTSEL 0
      DOCKED 0
    >
    <ITEM
      POSITION 0
      SNAPOFFS 0
      LENGTH 41.5
      LOOP 1
      ALLTAKES 0
      FADEIN 1 0 0 1 0 0
      FADEOUT 1 0 0 1 0 0
      MUTE 0
      SEL 0
      YPOS 0.083333 0.083333
      IGUID {05E3D0D3-558C-7843-8FFA-2AD5D7F0473C}
      IID 4
      NAME "tuba(s) - National_Anthems_-_Israel.mid"
      VOLPAN 1 0 1 -1
      SOFFS 0 0
      PLAYRATE 1 1 0 -1 0 0.0025
      CHANMODE 0
      TAKECOLOR 26173599 B
      GUID {E06A77F1-C537-E749-8991-4D38EAD94059}
      <SOURCE MIDI
        HASDATA 1 480 QN
        POOLEDEVTS {5F7810D0-B255-3B4C-992C-8815CDD927F3}
        <X 0 0
          /wN0dWJhKHMp
        >
        <X 0 0
          /wRTb3VuZCBDYW52YXM=
        >
        e 476 93 28 54 -1
        e 875 83 28 2e -1
        e 79 93 28 3f -4
        e 900 83 28 23 -4
        e 66 93 28 50 -1
        e 958 83 28 27 -1
        e 1 93 26 53 -2
        e 468 83 26 01 -2
        e 18 93 24 4c
        e 951 83 24 28
        e 8 93 23 53
        e 855 83 23 2d
        e 98 93 23 45 -3
        e 963 93 28 4d -2
        e 19 83 23 39 -3
        e 461 93 1c 47 -2
        e 10 83 28 24 -2
        e 451 83 1c 4f -2
        e 494 93 30 3d -3
        e 459 83 30 1a -3
        e 15 93 2b 3b -6
        e 483 93 2c 43 -5
        e 2 83 2b 01 -6
        e 459 83 2c 2d -5
        e 20 93 2d 4f -4
        e 479 83 2d 24 -4
        e 2 93 2a 49 -4
        e 481 93 2b 3f -3
        e 5 83 2a 3a -4
        e 969 93 26 51 2
        e 44 83 2b 2f -3
        e 896 83 26 27 2
        e 10 93 28 3f -2
        e 709 83 28 25 -2
        e 9 93 26 51 -2
        e 217 83 26 28 -2
        e 29 93 24 45
        e 469 83 24 1d
        e 11 93 23 45 -1
        e 477 93 28 3b -1
        e 1 83 23 31 -1
        e 736 83 28 3b -1
        e 227 93 24 49
        e 1902 83 24 2c
        e 13 93 2a 51 -2
        e 447 83 2a 21 -2
        e 33 93 26 48 -2
        e 478 93 2b 3f -3
        e 4 83 26 24 -2
        e 940 83 2b 4e -3
        e 738 93 24 5b -2
        e 201 83 24 20 -2
        e 35 93 23 57 -4
        e 208 83 23 43 -4
        e 28 93 24 49 -5
        e 227 83 24 08 -5
        e 6 93 26 54 -7
        e 239 83 26 50 -7
        e 1 93 28 5b -8
        e 218 83 28 21 -8
        e 21 93 2a 68 -8
        e 239 83 2a 33 -8
        e 1 93 26 53 -8
        e 220 83 26 48 -8
        e 17 93 28 49 -9
        e 243 93 2a 5d -8
        e 18 83 28 1b -9
        e 225 93 2b 50 -7
        e 1 83 2a 43 -8
        e 239 93 2a 5b -6
        e 2 83 2b 17 -7
        e 239 93 2b 51 -6
        e 4 83 2a 11 -6
        e 231 83 2b 21 -6
        e 8 93 2d 48 -5
        e 216 83 2d 1b -5
        e 26 93 2f 49 -4
        e 244 93 2d 55 -3
        e 16 83 2f 4f -4
        e 224 93 2b 47 -3
        e 9 83 2d 2d -3
        e 217 83 2b 01 -3
        e 12 93 2a 63 -4
        e 244 93 28 53 -2
        e 15 83 2a 4f -4
        e 223 83 28 22 -2
        e 2 93 26 5f -2
        e 242 93 24 53 -1
        e 17 83 26 01 -2
        e 220 83 24 01 -1
        e 0 93 23 57 -3
        e 218 83 23 38 -3
        e 23 93 21 48 -2
        e 1 93 24 51 -2
        e 281 83 24 4d -2
        e 201 93 1e 54 -1
        e 1 83 21 4a -2
        e 420 83 1e 40 -1
        e 55 93 1f 61 -2
        e 227 83 1f 48 -2
        e 12 93 21 5f -3
        e 221 83 21 39 -3
        e 20 93 23 59 -3
        e 470 83 23 19 -3
        e 11 93 25 5f -2
        e 474 83 25 04 -2
        e 7 93 27 68 -2
        e 483 83 27 3e -2
        e 0 93 28 5d -1
        e 485 83 28 23 -1
        e 1 93 26 5b 1
        e 449 83 26 22 1
        e 31 93 24 5d 2
        e 444 83 24 28 2
        e 32 93 23 61
        e 455 83 23 2b
        e 22 93 24 59 -1
        e 862 83 24 2c -1
        e 90 93 26 57 -4
        e 409 83 26 37 -4
        e 75 93 26 51 -3
        e 486 93 28 59 -1
        e 9 83 26 50 -3
        e 416 83 28 2b -1
        e 59 93 28 51 1
        e 466 83 28 0e 1
        e 11 93 2a 5b
        e 451 83 2a 3e
        e 22 93 28 53 -2
        e 243 93 2a 57 -2
        e 21 83 28 28 -2
        e 218 83 2a 55 -2
        e 1 93 2b 54 -1
        e 189 83 2b 04 -1
        e 50 93 1f 63 -2
        e 208 83 1f 46 -2
        e 30 93 21 59 -2
        e 230 83 21 48 -2
        e 10 93 23 53 -2
        e 244 83 23 01 -2
        e 0 93 25 68 -1
        e 480 93 27 63 -1
        e 8 83 25 16 -1
        e 476 93 28 61
        e 4 83 27 4c -1
        e 232 83 28 38
        e 2 93 26 57
        e 213 83 26 2a
        e 29 93 24 59 1
        e 375 83 24 27 1
        e 103 93 24 51
        e 462 83 24 29
        e 15 93 23 59 -1
        e 489 93 1c 70 2
        e 11 83 23 3c -1
        e 1926 83 1c 53 2
        E 458 b0 7b 00
        GUID {DF9D26BB-DA8E-5046-ABB7-54D78FB46B03}
        IGNTEMPO 0 120 4 4
        SRCCOLOR 475
        VELLANE -1 86 6
        CFGEDITVIEW 9757.785979 50.873974 78 19 0 0 0 0 0 0.5
        KEYSNAP 0
        TRACKSEL 226 0 0 ""
        EVTFILTER 0 -1 -1 -1 -1 0 0 0 0 -1 -1 -1 -1 0 -1 0 -1 -1
        CFGEDIT 1 0 0 0 0 0 1 0 1 1 1 0.25 166 130 1414 829 0 0 2 3 0 0 0 0 0 -1 0 0 0.27 64
      >
      TAKE
      NAME "tuba(s) - National_Anthems_-_Israel.mid"
      TAKEVOLPAN 0 1 -1
      SOFFS 0 0
      PLAYRATE 1 1 0 -1 0 0.0025
      CHANMODE 0
      GUID {C9AD206C-3B1F-934D-91C1-F9F23F8370D1}
      <SOURCE MIDI
        HASDATA 1 480 QN
        POOLEDEVTS {2847302B-D3E7-0941-8831-B8593354752E}
        <X 0 0
          /wN0dWJhKHMp
        >
        <X 0 0
          /wRTb3VuZCBDYW52YXM=
        >
        E 475 93 28 54
        E 875 83 28 2e
        E 76 93 28 3f
        E 900 83 28 23
        E 69 93 28 50
        E 958 83 28 27
        E 0 93 26 53
        E 468 83 26 01
        E 20 93 24 4c
        E 951 83 24 28
        E 8 93 23 53
        E 855 83 23 2d
        E 95 93 23 45
        E 964 93 28 4d
        E 18 83 23 39
        E 462 93 1c 47
        E 10 83 28 24
        E 451 83 1c 4f
        E 493 93 30 3d
        E 459 83 30 1a
        E 12 93 2b 3b
        E 484 93 2c 43
        E 1 83 2b 01
        E 460 83 2c 2d
        E 21 93 2d 4f
        E 479 83 2d 24
        E 2 93 2a 49
        E 482 93 2b 3f
        E 4 83 2a 3a
        E 975 93 26 51
        E 39 83 2b 2f
        E 901 83 26 27
        E 6 93 28 3f
        E 709 83 28 25
        E 9 93 26 51
        E 217 83 26 28
        E 31 93 24 45
        E 469 83 24 1d
        E 10 93 23 45
        E 477 93 28 3b
        E 1 83 23 31
        E 736 83 28 3b
        E 228 93 24 49
        E 1902 83 24 2c
        E 11 93 2a 51
        E 447 83 2a 21
        E 33 93 26 48
        E 477 93 2b 3f
        E 5 83 26 24
        E 939 83 2b 4e
        E 739 93 24 5b
        E 201 83 24 20
        E 33 93 23 57
        E 208 83 23 43
        E 27 93 24 49
        E 227 83 24 08
        E 4 93 26 54
        E 239 83 26 50
        E 0 93 28 5b
        E 218 83 28 21
        E 21 93 2a 68
        E 239 83 2a 33
        E 1 93 26 53
        E 220 83 26 48
        E 16 93 28 49
        E 244 93 2a 5d
        E 17 83 28 1b
        E 227 83 2a 43
        E 0 93 2b 50
        E 241 93 2a 5b
        E 1 83 2b 17
        E 240 93 2b 51
        E 4 83 2a 11
        E 231 83 2b 21
        E 9 93 2d 48
        E 216 83 2d 1b
        E 27 93 2f 49
        E 245 93 2d 55
        E 15 83 2f 4f
        E 225 93 2b 47
        E 9 83 2d 2d
        E 217 83 2b 01
        E 11 93 2a 63
        E 246 93 28 53
        E 13 83 2a 4f
        E 225 83 28 22
        E 2 93 26 5f
        E 243 93 24 53
        E 16 83 26 01
        E 219 93 23 57
        E 2 83 24 01
        E 216 83 23 38
        E 24 93 21 48
        E 1 93 24 51
        E 281 83 24 4d
        E 202 83 21 4a
        E 0 93 1e 54
        E 421 83 1e 40
        E 54 93 1f 61
        E 227 83 1f 48
        E 11 93 21 5f
        E 221 83 21 39
        E 20 93 23 59
        E 470 83 23 19
        E 12 93 25 5f
        E 474 83 25 04
        E 7 93 27 68
        E 483 83 27 3e
        E 1 93 28 5d
        E 485 83 28 23
        E 3 93 26 5b
        E 449 83 26 22
        E 32 93 24 5d
        E 444 83 24 28
        E 30 93 23 61
        E 455 83 23 2b
        E 21 93 24 59
        E 862 83 24 2c
        E 87 93 26 57
        E 409 83 26 37
        E 76 93 26 51
        E 488 93 28 59
        E 7 83 26 50
        E 418 83 28 2b
        E 61 93 28 51
        E 466 83 28 0e
        E 10 93 2a 5b
        E 451 83 2a 3e
        E 20 93 28 53
        E 243 93 2a 57
        E 21 83 28 28
        E 218 83 2a 55
        E 2 93 2b 54
        E 189 83 2b 04
        E 49 93 1f 63
        E 208 83 1f 46
        E 30 93 21 59
        E 230 83 21 48
        E 10 93 23 53
        E 244 83 23 01
        E 1 93 25 68
        E 480 93 27 63
        E 8 83 25 16
        E 477 93 28 61
        E 3 83 27 4c
        E 233 83 28 38
        E 2 93 26 57
        E 213 83 26 2a
        E 30 93 24 59
        E 375 83 24 27
        E 102 93 24 51
        E 462 83 24 29
        E 14 93 23 59
        E 492 93 1c 70
        E 8 83 23 3c
        E 1929 83 1c 53
        E 456 b0 7b 00
        GUID {31EB99C7-0758-4F4A-8746-E888BF9AE036}
        IGNTEMPO 0 120 4 4
        SRCCOLOR 13488
        VELLANE -1 86 6
        CFGEDITVIEW 0 0 50 22 0 0 0 0 0 0.5
        KEYSNAP 0
        TRACKSEL 226 0 0 ""
        EVTFILTER 0 -1 -1 -1 -1 0 0 0 0 -1 -1 -1 -1 0 -1 0 -1 -1
        CFGEDIT 1 0 0 0 0 0 1 0 1 1 1 0.25 166 130 1414 829 0 0 2 3 0 0 0 0 0 -1 0 0 1 64
      >
    >
    <ITEM
      POSITION 0
      SNAPOFFS 0
      LENGTH 41.5
      LOOP 1
      ALLTAKES 0
      FADEIN 1 0 0 1 0 0
      FADEOUT 1 0 0 1 0 0
      MUTE 0
      SEL 0
      YPOS 0 0.083333
      IGUID {54B78E22-2941-754D-A6B3-7EC61D6CCB59}
      IID 3
      NAME "trombone(s) - National_Anthems_-_Israel.mid"
      VOLPAN 1 0 1 -1
      SOFFS 0 0
      PLAYRATE 1 1 0 -1 0 0.0025
      CHANMODE 0
      TAKECOLOR 26173599 B
      GUID {2C359735-86CD-3C44-878D-A4ABC939FE9F}
      <SOURCE MIDI
        HASDATA 1 480 QN
        POOLEDEVTS {E50EA5B8-B72E-4048-B109-70B0C960311D}
        <X 0 0
          /wN0cm9tYm9uZShzKQ==
        >
        <X 0 0
          /wRTb3VuZCBDYW52YXM=
        >
        e 0 92 28 53
        e 468 82 28 2b
        e 7 92 34 34 -2
        e 872 82 34 3c -2
        e 86 92 34 48 -3
        e 917 82 34 37 -3
        e 48 92 34 50 -1
        e 948 82 34 3e -1
        e 10 92 32 48 -2
        e 483 92 30 41
        e 10 82 32 49 -2
        e 469 92 36 5f -1
        e 287 82 30 01
        e 191 92 2f 50 -2
        e 469 82 36 3c -1
        e 11 92 34 4c -2
        e 376 82 2f 3d -2
        e 101 92 2f 59 -3
        e 460 82 34 07 -2
        e 17 92 33 54 -4
        e 483 92 34 50 -3
        e 25 82 2f 4f -3
        e 7 82 33 52 -4
        e 452 92 28 49 -1
        e 23 82 34 43 -3
        e 432 82 28 51 -1
        e 504 92 3c 4b -2
        e 473 82 3c 33 -2
        e 0 92 37 41 -4
        e 469 82 37 0f -4
        e 7 92 38 2c -6
        e 488 92 39 47 -2
        e 45 82 38 31 -6
        e 424 82 39 01 -2
        e 10 92 36 54 -3
        e 479 92 37 47 -4
        e 11 82 36 1e -3
        e 957 92 36 4b -1
        e 47 82 37 08 -4
        e 902 82 36 33 -1
        e 3 92 34 50 -3
        e 743 92 32 49 5
        e 5 82 34 40 -3
        e 113 82 32 48 5
        e 108 92 30 55
        e 0 92 39 54
        e 387 82 39 36
        e 49 82 30 27
        e 37 92 2f 4c -3
        e 1 92 39 50 -2
        e 430 82 39 01 -2
        e 49 82 2f 3c -3
        e 0 92 34 53 -3
        e 1 92 37 45 -2
        e 832 82 34 26 -3
        e 8 82 37 01 -2
        e 117 92 40 57 -3
        e 2 92 30 51 -3
        e 425 82 40 38 -3
        e 56 92 40 54 -2
        e 16 82 30 45 -3
        e 398 82 40 2c -2
        e 69 92 3c 49 -1
        e 0 92 40 54 -1
        e 408 82 3c 19 -1
        e 14 82 40 4b -1
        e 62 92 3c 4b
        e 0 92 39 53 1
        e 369 82 39 32 1
        e 50 82 3c 20
        e 59 92 39 49
        e 0 92 3e 53
        e 347 82 39 20
        e 92 82 3e 01
        e 35 92 32 48 -2
        e 2 92 39 54 -2
        e 469 82 39 45 -2
        e 9 92 37 4b -3
        e 2 82 32 2e -2
        e 776 82 37 52 -3
        e 189 92 3c 4d
        e 237 92 3b 4c -1
        e 1 82 3c 2c
        e 242 82 3b 3e -1
        e 0 92 3c 47
        e 236 82 3c 2c
        e 0 92 30 3f -1
        e 237 92 32 45 -3
        e 5 82 30 27 -1
        e 196 82 32 3b -3
        e 34 92 34 48 -5
        e 239 92 36 5d -5
        e 25 82 34 44 -5
        e 205 82 36 4c -5
        e 8 92 37 50 -6
        e 222 82 37 0d -6
        e 15 92 39 50 -6
        e 242 92 36 5f -6
        e 31 82 39 35 -6
        e 209 92 37 50 -6
        e 3 82 36 3c -6
        e 227 82 37 3c -6
        e 12 92 39 59 -5
        e 238 82 39 2b -5
        e 5 92 3e 59 -4
        e 975 82 3e 4f -4
        e 469 92 3b 55 -2
        e 240 92 39 4b -3
        e 9 82 3b 01 -2
        e 231 92 37 45 -2
        e 11 82 39 01 -3
        e 201 82 37 01 -2
        e 24 92 36 5f -4
        e 216 82 36 2b -4
        e 24 92 34 50 -4
        e 349 82 34 43 -4
        e 134 92 30 43 -3
        e 0 92 36 63 -3
        e 432 82 36 1f -3
        e 4 82 30 2d -3
        e 44 92 32 45 -3
        e 2 92 39 57 -2
        e 387 82 39 16 -2
        e 92 92 37 45 -2
        e 748 82 32 4a -3
        e 56 82 37 2a -2
        e 157 92 34 55 -2
        e 478 82 34 3c -2
        e 5 92 3b 41 -1
        e 1 92 36 5b -1
        e 393 82 3b 09 -1
        e 49 82 36 4c -1
        e 38 92 34 5b -1
        e 2 92 3b 4c
        e 376 82 3b 27
        e 64 82 34 45 -1
        e 39 92 3b 51
        e 2 92 34 4f 1
        e 373 82 3b 20
        e 21 82 34 51 1
        e 85 92 39 53
        e 2 92 34 51 1
        e 358 82 39 20
        e 44 82 34 01 1
        e 66 92 33 50 -4
        e 2 92 39 4c -3
        e 365 82 39 38 -3
        e 37 82 33 3c -4
        e 71 92 37 43 -5
        e 2 92 34 41 -5
        e 230 82 37 41 -5
        e 8 92 36 51 -5
        e 192 82 36 4a -5
        e 41 92 37 3f -8
        e 244 92 3b 50 -7
        e 8 82 37 2b -8
        e 201 82 34 01 -5
        e 32 82 3b 36 -7
        e 2 92 36 49 -5
        e 0 92 39 55 -5
        e 244 92 3b 4d -4
        e 8 82 39 02 -5
        e 208 82 36 3e -5
        e 36 92 36 4d 1
        e 4 92 3c 51 2
        e 54 82 3b 41 -4
        e 372 82 3c 42 2
        e 18 82 36 32 1
        e 25 92 37 49 -2
        e 0 92 3b 49 -2
        e 363 82 37 25 -2
        e 119 92 3d 51 -2
        e 1 92 37 47 -1
        e 11 82 3b 42 -2
        e 330 82 37 2a -1
        e 95 82 3d 41 -2
        e 40 92 3e 57 -3
        e 0 92 39 51 -2
        e 449 82 39 01 -2
        e 42 92 37 4f 2
        e 235 92 39 4f
        e 8 82 37 08 2
        e 212 82 39 4a
        e 18 92 3b 51 -1
        e 237 92 2f 4b -2
        e 1 92 37 53 -2
        e 14 82 3b 40 -1
        e 115 82 3e 02 -3
        e 101 82 2f 3e -2
        e 2 82 37 2e -2
        e 4 92 31 5f -4
        e 3 92 39 5d -2
        e 217 82 31 46 -4
        e 12 82 39 1c -2
        e 4 92 32 51 -5
        e 5 92 3b 5d -3
        e 244 92 34 47 -2
        e 0 92 39 53 -2
        e 4 82 3b 49 -3
        e 25 82 32 4a -5
        e 438 82 39 3f -2
        e 8 92 36 57 -3
        e 2 82 34 1f -2
        e 0 92 3b 4b -2
        e 425 82 3b 43 -2
        e 58 92 3b 54 -2
        e 0 92 37 47 -1
        e 13 82 36 49 -3
        e 461 82 37 0f -1
        e 1 82 3b 27 -2
        e 5 92 34 50 -2
        e 0 92 3a 4d -1
        e 343 82 34 21 -2
        e 114 82 3a 26 -1
        e 23 92 34 4f -2
        e 1 92 39 5b -1
        e 379 82 39 21 -1
        e 78 82 34 01 -2
        e 18 92 33 5d -3
        e 1 92 39 51 -3
        e 453 82 39 40 -3
        e 11 82 33 03 -3
        e 18 92 34 45 -2
        e 0 92 3b 54 -2
        e 1963 82 3b 52 -2
        e 118 82 34 5e -2
        E 324 b0 7b 00
        GUID {1ED6CD53-27AA-924E-A2D5-09765F5C11C2}
        IGNTEMPO 0 120 4 4
        SRCCOLOR 474
        VELLANE -1 86 6
        CFGEDITVIEW 5918.221819 33.774447 62 16 0 0 0 0 0 0.5
        KEYSNAP 0
        TRACKSEL 226 0 0 ""
        EVTFILTER 0 -1 -1 -1 -1 0 0 0 0 -1 -1 -1 -1 0 -1 0 -1 -1
        CFGEDIT 1 0 0 0 0 0 1 0 1 1 1 0.25 182 146 1414 829 0 0 2 3 0 0 0 0 0 -1 0 0 0.27 64
      >
      TAKE
      NAME "trombone(s) - National_Anthems_-_Israel.mid"
      TAKEVOLPAN 0 1 -1
      SOFFS 0 0
      PLAYRATE 1 1 0 -1 0 0.0025
      CHANMODE 0
      GUID {EB9D3F07-5005-AD48-8105-578F07F42F25}
      <SOURCE MIDI
        HASDATA 1 480 QN
        POOLEDEVTS {79340271-2C7B-D540-B6CC-4BF052B45724}
        <X 0 0
          /wN0cm9tYm9uZShzKQ==
        >
        <X 0 0
          /wRTb3VuZCBDYW52YXM=
        >
        E 0 92 28 53
        E 468 82 28 2b
        E 5 92 34 34
        E 872 82 34 3c
        E 85 92 34 48
        E 917 82 34 37
        E 50 92 34 50
        E 948 82 34 3e
        E 9 92 32 48
        E 485 92 30 41
        E 8 82 32 49
        E 470 92 36 5f
        E 288 82 30 01
        E 189 92 2f 50
        E 470 82 36 3c
        E 10 92 34 4c
        E 376 82 2f 3d
        E 100 92 2f 59
        E 461 82 34 07
        E 15 92 33 54
        E 484 92 34 50
        E 25 82 2f 4f
        E 6 82 33 52
        E 455 92 28 49
        E 21 82 34 43
        E 434 82 28 51
        E 503 92 3c 4b
        E 471 92 37 41
        E 2 82 3c 33
        E 467 82 37 0f
        E 5 92 38 2c
        E 492 92 39 47
        E 41 82 38 31
        E 428 82 39 01
        E 9 92 36 54
        E 478 92 37 47
        E 12 82 36 1e
        E 959 92 36 4b
        E 44 82 37 08
        E 905 82 36 33
        E 1 92 34 50
        E 748 82 34 40
        E 3 92 32 49
        E 118 82 32 48
        E 103 92 39 54
        E 0 92 30 55
        E 387 82 39 36
        E 49 82 30 27
        E 34 92 2f 4c
        E 2 92 39 50
        E 430 82 39 01
        E 48 82 2f 3c
        E 0 92 34 53
        E 2 92 37 45
        E 831 82 34 26
        E 9 82 37 01
        E 116 92 40 57
        E 2 92 30 51
        E 425 82 40 38
        E 57 92 40 54
        E 15 82 30 45
        E 399 82 40 2c
        E 70 92 40 54
        E 0 92 3c 49
        E 408 82 3c 19
        E 14 82 40 4b
        E 63 92 3c 4b
        E 1 92 39 53
        E 369 82 39 32
        E 49 82 3c 20
        E 59 92 3e 53
        E 0 92 39 49
        E 347 82 39 20
        E 92 82 3e 01
        E 33 92 32 48
        E 2 92 39 54
        E 469 82 39 45
        E 8 92 37 4b
        E 3 82 32 2e
        E 775 82 37 52
        E 192 92 3c 4d
        E 236 92 3b 4c
        E 2 82 3c 2c
        E 241 82 3b 3e
        E 1 92 3c 47
        E 235 92 30 3f
        E 1 82 3c 2c
        E 234 92 32 45
        E 7 82 30 27
        E 194 82 32 3b
        E 32 92 34 48
        E 239 92 36 5d
        E 25 82 34 44
        E 205 82 36 4c
        E 7 92 37 50
        E 222 82 37 0d
        E 15 92 39 50
        E 242 92 36 5f
        E 31 82 39 35
        E 209 92 37 50
        E 3 82 36 3c
        E 227 82 37 3c
        E 13 92 39 59
        E 238 82 39 2b
        E 6 92 3e 59
        E 975 82 3e 4f
        E 471 92 3b 55
        E 239 92 39 4b
        E 10 82 3b 01
        E 231 92 37 45
        E 10 82 39 01
        E 202 82 37 01
        E 22 92 36 5f
        E 216 82 36 2b
        E 24 92 34 50
        E 349 82 34 43
        E 135 92 36 63
        E 0 92 30 43
        E 432 82 36 1f
        E 4 82 30 2d
        E 44 92 32 45
        E 3 92 39 57
        E 387 82 39 16
        E 92 92 37 45
        E 747 82 32 4a
        E 57 82 37 2a
        E 157 92 34 55
        E 478 82 34 3c
        E 6 92 3b 41
        E 1 92 36 5b
        E 393 82 3b 09
        E 49 82 36 4c
        E 38 92 34 5b
        E 3 92 3b 4c
        E 376 82 3b 27
        E 63 82 34 45
        E 40 92 3b 51
        E 3 92 34 4f
        E 372 82 3b 20
        E 22 82 34 51
        E 84 92 39 53
        E 3 92 34 51
        E 357 82 39 20
        E 45 82 34 01
        E 61 92 33 50
        E 3 92 39 4c
        E 365 82 39 38
        E 36 82 33 3c
        E 70 92 37 43
        E 2 92 34 41
        E 230 82 37 41
        E 8 92 36 51
        E 192 82 36 4a
        E 38 92 37 3f
        E 245 92 3b 50
        E 7 82 37 2b
        E 204 82 34 01
        E 30 82 3b 36
        E 4 92 36 49
        E 0 92 39 55
        E 245 92 3b 4d
        E 7 82 39 02
        E 208 82 36 3e
        E 42 92 36 4d
        E 5 92 3c 51
        E 48 82 3b 41
        E 378 82 3c 42
        E 17 82 36 32
        E 22 92 37 49
        E 0 92 3b 49
        E 363 82 37 25
        E 119 92 3d 51
        E 2 92 37 47
        E 10 82 3b 42
        E 331 82 37 2a
        E 94 82 3d 41
        E 39 92 3e 57
        E 1 92 39 51
        E 449 82 39 01
        E 46 92 37 4f
        E 233 92 39 4f
        E 10 82 37 08
        E 210 82 39 4a
        E 17 92 3b 51
        E 236 92 2f 4b
        E 1 92 37 53
        E 15 82 3b 40
        E 113 82 3e 02
        E 102 82 2f 3e
        E 2 82 37 2e
        E 2 92 31 5f
        E 5 92 39 5d
        E 215 82 31 46
        E 14 82 39 1c
        E 1 92 32 51
        E 7 92 3b 5d
        E 245 92 34 47
        E 0 92 39 53
        E 3 82 3b 49
        E 23 82 32 4a
        E 441 82 39 3f
        E 7 92 36 57
        E 3 82 34 1f
        E 0 92 3b 4b
        E 425 82 3b 43
        E 58 92 3b 54
        E 1 92 37 47
        E 11 82 36 49
        E 463 82 3b 27
        E 0 82 37 0f
        E 5 92 34 50
        E 1 92 3a 4d
        E 342 82 34 21
        E 115 82 3a 26
        E 22 92 34 4f
        E 2 92 39 5b
        E 379 82 39 21
        E 77 82 34 01
        E 17 92 33 5d
        E 1 92 39 51
        E 453 82 39 40
        E 11 82 33 03
        E 19 92 3b 54
        E 0 92 34 45
        E 1963 82 3b 52
        E 118 82 34 5e
        E 326 b0 7b 00
        GUID {F8F5028B-534D-514A-9787-9C85B35D74E9}
        IGNTEMPO 0 120 4 4
        SRCCOLOR 13489
        VELLANE -1 86 6
      >
    >
  >
  <TRACK {3CF13A00-0AFC-8542-AD98-73B6D91102DB}
    NAME "vst Plogue"
    PEAKCOL 26779488
    BEAT -1
    AUTOMODE 0
    VOLPAN 1 0 -1 -1 1
    MUTESOLO 0 0 0
    IPHASE 0
    ISBUS 0 0
    BUSCOMP 0 0
    SHOWINMIX 1 1 0.5 1 0.5 0 0 0
    FREEMODE 0
    SEL 0
    REC 0 0 0 1 0 0 0
    VU 2
    TRACKHEIGHT 0 0
    INQ 0 0 0 0.5 100 0 0 100
    NCHAN 4
    FX 1
    TRACKID {3CF13A00-0AFC-8542-AD98-73B6D91102DB}
    PERF 0
    AUXRECV 3 0 1 0 0 0 0 0 0 -1:U 128 -1 ''
    AUXRECV 3 0 1 0 0 0 0 0 0 -1:U 96 -1 ''
    AUXRECV 4 0 1 0 0 0 0 0 0 -1:U 0 -1 ''
    AUXRECV 4 0 1 0 1 0 0 0 0 -1:U 32 -1 ''
    MIDIOUT -1
    MAINSEND 0 0
    <FXCHAIN
      WNDRECT 528 36 724 387
      SHOW 0
      LASTSEL 0
      DOCKED 1
      BYPASS 0 0 0
      <VST "VSTi: chipsounds (Multi) (Plogue Art et Technologie, Inc) (32 out)" "chipsounds Multi.vst" 0 "" 1347241807
        T0dNUO5e7f4AAAAAIAAAAAEAAAAAAAAAAgAAAAAAAAAEAAAAAAAAAAgAAAAAAAAAEAAAAAAAAAAgAAAAAAAAAEAAAAAAAAAAgAAAAAAAAAAAAQAAAAAAAAACAAAAAAAA
        AAQAAAAAAAAACAAAAAAAAAAQAAAAAAAAACAAAAAAAAAAQAAAAAAAAACAAAAAAAAAAAABAAAAAAAAAAIAAAAAAAAABAAAAAAAAAAIAAAAAAAAABAAAAAAAAAAIAAAAAAA
        AABAAAAAAAAAAIAAAAAAAAAAAAEAAAAAAAAAAgAAAAAAAAAEAAAAAAAAAAgAAAAAAAAAEAAAAAAAAAAgAAAAAAAAAEAAAAAAAAAAgAAAAACjBAAAAQAAAAAAEAA=
        Q0VHUH8zAAB4nO2bW3PaOBTH3/MpNH7aPtRI8n2GpMMl7DLTbDMLO/vYEaBQz/rC+kKbfvqVbQw2GFmuaWgb6yW2+OtIR0egn47j/rsvrgO2NAht37uVkAwl8O7upj8I
        bDIjW1r4SIdYursBrPRnNIpsbx2C/2Li2NEz+1QCa8dfEOfRd9itgiUQRgElLpNlty75MktrBo7jLx+Gt5KGWPXDdDz9EEcP/oqmVkgc+S6JWJczx49uJTaecMm0Fkou
        iENYFQJvAU26lsOls6seUS+iwa2kw3wk89hLO4cyTIsEevnwmWVgr1LjHnFpYlIGj3FAweiTvenNpuOerpkI/PbnfDZ6I4EF8f6dMj2C0JLA8hPxPOqkzTepu6YEopPe
        NouPAfHWzPpbtK+MWFW48UOatnbjKLsIP390SMjcVXdTnI7zgdhePs4tcWKaBqjsTFmI9sITr8tCLCpURIWqqFATFeqiQkNUaIoKLVEhgsJK4dgg4eAg4egg4fCguvg8
        koC4QovooKzr/aAsxtLUNI6yNPWqxZUqNV+gQv/FMCGFK1VLUt4AjOKkGgrGpnJWWlz2yORaLa9nntQsWlW4M2BawlKrGAJk8aRIPawWhKtXwZwEaxrtfpKXvis/Ov46
        pnKyGcnvJx/kOKQBLPxCpq1Gcci2jDGJCIieN6wlxoqe7Bb2V3ajJnOU72GsP+qtbJJdrlgTdpGXSfYHw8uWsou9zMemTqNX4vQ8sNdrGszY7k69JQ1q3UYGRlbutmYU
        3MZVbqOjcab3xiQpqm5MhqUPR1CZXGsi0uj/xRygAcOKGQ0Tp+QwoptfaP33ewmJHUMZagdlqALKzA7KOih7JVBW9gjpuiGCbxbU0uNYPb5hQ9WhfmF80/guNcC3utCf
        IT1N5YJWMaSYb7UB6n4jFPKtNiA9ESYrwt5hbnHdImT7SE3MOtjrYK8N7CGIBGlvsivpAYnRHqu5V0bGxDp1BRtKmQEnjAETrXkiZbXjKgsQvyhFVjOU0o6h8Msntuo2
        QFHY6hiKK+wY6idLbPGNXj+x1WWrOoDpAOa7Zqv2/FLIVp3yS5etukRpTFpqO9JSKkhL60irI61XQlo/YbaqDrR+rGwVH4m6bFWXrcoH+4PDHjuyHD+9e1Gnr5mtguj4
        2WQ2Nb9ItsrYMxSWQTaP4B+ypU9+4Ia9P0iwArNnb3kWorQcopDeMl91IXK6/HO+GhbryOl1kxPmKUse8f9PqmiUcRO2LAHKYTzCTfygEmZxh4pKi8TgSovLhJ/PwuLw
        hutAoC281VotRUsX5jyoc61q4gMoZfQUxVLOIjlSioPVuVD6/ejNgsVR8J8kW1AceC2oC0+aBc0GWktci8QDx2a1QeIYQ/FjChMXp03hn5QwrNs7Opi+Nkxf2+l2MI01
        rSFMZ/tDljqFwyqYPvNAOGm1s6VDjZWBlgLyqKJ2aGgVkN7Igj5sbQG1taAZbS2o45YWqmsxHpTtDneHFePoYCh6ALl/eqLL6PRtkIG7sJNleXzg2Fnt//73NG9AlpG9
        pdP9uyrZ/f3h3RXqsC7oak4W6UplJvq9/OWau5v/ARpELew=
        AAAQAAAA
      >
      FLOATPOS 409 257 871 509
      FXID {C804D762-B992-A540-81BF-3D6C0F7FF19B}
      WAK 0
    >
  >
  <TRACK {97C14EE2-C273-C940-9D68-54C062C3CBCA}
    NAME ChipFront
    PEAKCOL 16576
    BEAT -1
    AUTOMODE 0
    VOLPAN 0.51063081849714 0 -1 -1 1
    MUTESOLO 0 0 0
    IPHASE 0
    ISBUS 0 0
    BUSCOMP 0 0
    SHOWINMIX 1 1 0.5 1 0.5 0 0 0
    FREEMODE 0
    SEL 0
    REC 0 0 0 0 0 0 0
    VU 2
    TRACKHEIGHT 0 0
    INQ 0 0 0 0.5 100 0 0 100
    NCHAN 2
    FX 1
    TRACKID {97C14EE2-C273-C940-9D68-54C062C3CBCA}
    PERF 0
    AUXRECV 5 0 1 0 0 0 0 0 0 -1:U 0 -1 ''
    MIDIOUT -1
    MAINSEND 1 0
    <FXCHAIN
      WNDRECT 528 36 724 387
      SHOW 0
      LASTSEL 0
      DOCKED 1
      BYPASS 0 0 0
      <VST "VST: FabFilter Volcano 2 (SC) (FabFilter)" "FabFilter Volcano 2 (SC).vst" 0 "" 1180054068
        NDJWRu9e7f4EAAAAAQAAAAAAAAACAAAAAAAAAAQAAAAAAAAACAAAAAAAAAAEAAAAAQAAAAAAAAACAAAAAAAAAAQAAAAAAAAACAAAAAAAAADcCwAAAAAAAAAAEAA=
        776t3g3wrd4AAAA/AAAAPwAAAD8AAAA/AACAPwAAAAAAAAAAq6qqPq2+aD8AAAA/ig0yPM3MzD0AAAAAAAAAAAAAAAAAAIA/AACAP0Isdj8AAAA/bbDgPZqZGT8AAAAA
        AAAAAOev3zwAAIA/AAAAAAAAgD8AAAA/AAAAAJqZGT8AAAAAAAAAAAAAAAAAAIA/AAAAAAAAgD8AAAA/AAAAAJqZGT8AAAAAAAAAAAAAAAAAAIA/AAAAAKuqqj4ATrI+
        AAAAPwAAAADBykk/XXRRPwAAAACJiIg9AACAP6oXiD4AAAAAAAAAAAAAAAAAAAAAAACAPwAAAAAAAAA/AAAAAAAAAAAAAAAAAAAAPwAAAAAAAAAAAAAAAAAAAD8AAAAA
        AAAAAAAAAAAAAAA/AAAAAAAAAAAAAAAAAAAAPwAAAAAAAAAAAAAAAAAAAD8AAAAAAAAAAAAAAAAAAAA/AAAAAAAAAAAAAAAAAAAAPwAAAAAAAAAAAAAAAAAAAD8AAAAA
        AAAAAAAAAAAAAAA/AAAAAAAAAAAAAAAAAAAAPwAAAAAAAAAAAAAAAAAAAD8AAAAAAAAAAAAAAAAAAAA/AAAAAAAAAAAAAAAAAAAAPwAAAAAAAAAAAAAAAHwZED4AAAA/
        KKO3PQAAgD8AAAAAAAAAAImIiD3y0iU/AAAAAAAAgD8AAAAAdGjRPQAAAAAAAIA/AAAAAAAAAD8AAAAAAAAAAAAAAAAAAAA/AAAAAAAAAAAAAAAAAAAAPwAAAAAAAAAA
        AAAAAAAAAD8AAAAAAAAAAAAAAAAAAAA/AAAAAAAAAAAAAAAAAAAAPwAAAAAAAAAAAAAAAAAAAD8AAAAAAAAAAAAAAAAAAAA/AAAAAAAAAAAAAAAAAAAAPwAAAAAAAAAA
        AAAAAAAAAD8AAAAAAAAAAAAAAAAAAAA/AAAAAAAAAAAAAAAAAAAAPwAAAAAAAAAAAAAAAAAAAD8AAAAAAAAAAAAAAAAAAAA/AAAAAAAAAAAAAAAAvvR9PgAAAD8AAAA/
        AAAAPwAAAAAAAAAAiYiIPQAAAD8AAAAAAAAAAAAAAAAAAAA/AAAAAAAAAAAAAAAAAAAAPwAAAAAAAAAAAAAAAAAAAD8AAAAAAAAAAAAAAAAAAAA/AAAAAAAAAAAAAAAA
        AAAAPwAAAAAAAAAAAAAAAAAAAD8AAAAAAAAAAAAAAAAAAAA/AAAAAAAAAAAAAAAAAAAAPwAAAAAAAAAAAAAAAAAAAD8AAAAAAAAAAAAAAAAAAAA/AAAAAAAAAAAAAAAA
        AAAAPwAAAAAAAAAAAAAAAAAAAD8AAAAAAAAAAAAAAAAAAAA/AAAAAAAAAAAAAAAAAAAAPwAAAAAAAAAAAAAAAAAAAD8AAAAAAAAAAAAAAAC+9H0+AAAAPwAAAD8AAAA/
        AAAAAAAAAACJiIg9AAAAPwAAAAAAAAAAAAAAAAAAAD8AAAAAAAAAAAAAAAAAAAA/AAAAAAAAAAAAAAAAAAAAPwAAAAAAAAAAAAAAAAAAAD8AAAAAAAAAAAAAAAAAAAA/
        AAAAAAAAAAAAAAAAAAAAPwAAAAAAAAAAAAAAAAAAAD8AAAAAAAAAAAAAAAAAAAA/AAAAAAAAAAAAAAAAAAAAPwAAAAAAAAAAAAAAAAAAAD8AAAAAAAAAAAAAAAAAAAA/
        AAAAAAAAAAAAAAAAAAAAPwAAAAAAAAAAAAAAAAAAAD8AAAAAAAAAAAAAAAAAAAA/AAAAAAAAAAAAAAAAAAAAPwAAAAAAAAAAAAAAAL70fT4AAAA/AAAAPwAAAD8AAAAA
        AAAAAImIiD0AAAA/AAAAAAAAAAAAAAAAAAAAPwAAAAAAAAAAAAAAAAAAAD8AAAAAAAAAAAAAAAAAAAA/AAAAAAAAAAAAAAAAAAAAPwAAAAAAAAAAAAAAAAAAAD8AAAAA
        AAAAAAAAAAAAAAA/AAAAAAAAAAAAAAAAAAAAPwAAAAAAAAAAAAAAAAAAAD8AAAAAAAAAAAAAAAAAAAA/AAAAAAAAAAAAAAAAAAAAPwAAAAAAAAAAAAAAAAAAAD8AAAAA
        AAAAAAAAAAAAAAA/AAAAAAAAAAAAAAAAAAAAPwAAAAAAAAAAAAAAAAAAAD8AAAAAAAAAAAAAAAAAAAA/AAAAAAAAAAAAAAAAvvR9PgAAAD8AAAA/AAAAPwAAAAAAAAAA
        iYiIPQAAAD8AAAAAAAAAAAAAAAAAAAA/AAAAAAAAAAAAAAAAAAAAPwAAAAAAAAAAAAAAAAAAAD8AAAAAAAAAAAAAAAAAAAA/AAAAAAAAAAAAAAAAAAAAPwAAAAAAAAAA
        AAAAAAAAAD8AAAAAAAAAAAAAAAAAAAA/AAAAAAAAAAAAAAAAAAAAPwAAAAAAAAAAAAAAAAAAAD8AAAAAAAAAAAAAAAAAAAA/AAAAAAAAAAAAAAAAAAAAPwAAAAAAAAAA
        AAAAAAAAAD8AAAAAAAAAAAAAAAAAAAA/AAAAAAAAAAAAAAAAAAAAPwAAAAAAAAAAAAAAAAAAAD8AAAAAAAAAAAAAAAAAAAAAmpmZPgAAAAAAAAAAAAAAAAAAgD8AAAAA
        mpmZPgAAAAAAAAAAAAAAAAAAgD8AAAAAmpmZPgAAAAAAAAAAAAAAAAAAgD8AAAAAmpmZPgAAAAAAAAAAAAAAAAAAgD8AAAAAmpmZPgAAAAAAAAAAAAAAAAAAgD8AAAAA
        mpmZPgAAAAAAAAAAAAAAAAAAgD8AAAAAAAAAAAAAAAAAAAAAAAAAAAAAAAAAAAAAAAAAAAAAAAAAAAAAAAAAAAAAAAAAAAAAAAAAAAAAAAAAAAAAAAAAAAAAAAAAAAAA
        AAAAAAAAAAAAAAAAAAAAAAAAAAAAAAAAAAAAAAAAAAAAAAAAAAAAAAAAAAAAAAAAAAAAAAAAAAAAAAAAAAAAAAAAAAAAAAAAAAAAAKuqKj3ZiZ09gShWPgAAAAAAAAAA
        v+eWPQAAAAAAAAA/AAAAAAAAAAAAAAAAAAAAAAAAAD8AAAAAAAAAAAAAAAAAAAAAAAAAPwAAAAAAAAAAAAAAAAAAAAAAAAAAAAAAAAAAAAAAAAAAAAAAAAAAAAAAAAAA
        AAAAAAAAAAAAAAAAAAAAAAAAAAAAAAAAAAAAAAAAAAAAAAAAAAAAAAAAAAAAAAAAAAAAAAAAAAAAAAAAAAAAAAAAAAAAAAAAAAAAAAAAAAAAAAAAAAAAAAAAAAAAAAAA
        AAAAAAAAAAAAAAAAAAAAAAAAAAAAAAAAAAAAAAAAAAAAAAAAAAAAAAAAAAAAAAAAAAAAAAAAAAAAAAAAAAAAAAAAAAAAAAAAAAAAAAAAAAAAAAAAAAAAAAAAAAAAAAAA
        AAAAAAAAAAAAAAAAAAAAAAAAAAAAAAAAAAAAAAAAAAAAAAAAAAAAAAAAAAAAAAAAAAAAAAAAAAAAAAAAAAAAAAAAAAAAAAAAAAAAAAAAAAAAAAAAAAAAAAAAAAAAAAAA
        AAAAAAAAAAAAAAAAAAAAAAAAAAAAAAAAAAAAAAAAAAAAAAAAAAAAAAAAAAAAAAAAAAAAAAAAAAAAAAAAAAAAAAAAAAAAAAAAAAAAAAAAAAAAAAAAAAAAPwAAAD8AAAA/
        AAAAPwAAAD8AAAA/AAAAPwAAAD8AAAAAAAAAAAAAAAAAAAAAAAAAAAAAAAAAAAAAAAAAAAAAAAAAAAAAAAAAAAAAAAAAAAAAAAAAAAAAAAAAAAAAAAAAAAAAAAAAAAAA
        AAAAAAAAAAAAAAAAAAAAAAAAAAAAAAAAAAAAAAAAAAAAAAAAAAAAAAAAAAAAAAAAAAAAAAAAAAAAAAAAAAAAAAAAAAAAAAAAAAAAAAAAAAAAAAAAAAAAAAAAAAAAAAAA
        AAAAAAAAAAAAAAAAAAAAAAAAAAAAAAAAAAAAAAAAAAAAAAAAAAAAAAAAAAAAAAAAAAAAAAAAAAAAAAAAAAAAAAAAAAAAAAAAAAAAAAAAAAAAAAAAAAAAAAAAAAAAAAAA
        AAAAAAAAAAAAAAAAAAAAAAAAAAAAAAAAAAAAAAAAAAAAAAAAAAAAAAAAAAAAAAAAAAAAAAAAAAAAAAAA
        Q2hpcEZyb250AENoaXBGcm9udAAQAAAA
      >
      PRESETNAME ChipFront
      FLOATPOS 353 147 927 529
      FXID {4C5A6810-F3ED-0645-A06D-6758F70CB097}
      WAK 0
    >
  >
  <TRACK {1B564899-9ACC-8C4B-8FBF-925A5A247A13}
    NAME ChipSide
    PEAKCOL 16576
    BEAT -1
    AUTOMODE 0
    VOLPAN 0.47259462407974 0 -1 -1 1
    MUTESOLO 0 0 0
    IPHASE 0
    ISBUS 0 0
    BUSCOMP 0 0
    SHOWINMIX 1 1 0.5 1 0.5 0 0 0
    FREEMODE 0
    SEL 0
    REC 0 0 0 0 0 0 0
    VU 2
    TRACKHEIGHT 0 0
    INQ 0 0 0 0.5 100 0 0 100
    NCHAN 2
    FX 1
    TRACKID {1B564899-9ACC-8C4B-8FBF-925A5A247A13}
    PERF 0
    AUXRECV 5 0 1.03113579563571 0 0 0 0 2 0 -1:U 0 -1 ''
    MIDIOUT -1
    MAINSEND 1 0
    <FXCHAIN
      SHOW 0
      LASTSEL 0
      DOCKED 0
      BYPASS 0 0 0
      <VST "VST: FabFilter Volcano 2 (SC) (FabFilter)" "FabFilter Volcano 2 (SC).vst" 0 "" 1180054068
        NDJWRu9e7f4EAAAAAQAAAAAAAAACAAAAAAAAAAQAAAAAAAAACAAAAAAAAAAIAAAAAQAAAAAAAAACAAAAAAAAAAQAAAAAAAAACAAAAAAAAAAQAAAAAAAAACAAAAAAAAAA
        QAAAAAAAAACAAAAAAAAAANwLAAAAAAAAAAAQAA==
        776t3g3wrd4AAAA/AAAAPwAAAD8AAAA/AACAPwAAAAAAAAA/q6qqPlxZMj8AAAA/oGk2P83MzD0AAAAAAAAAAAAAAAAAAIA/AACAP3g9Yz8AAAA/AAAAAJqZGT8AAAAA
        AAAAADvfBz8AAIA/AAAAAAAAgD8AAAA/AAAAAJqZGT8AAAAAAAAAAAAAAAAAAIA/AAAAAAAAgD8AAAA/AAAAAJqZGT8AAAAAAAAAAAAAAAAAAIA/AAAAAKuqqj6CdAA9
        AAAAP5gn+j4AAIA/jC46PgAAgD+JiIg993QuP+rf+D6rqqo+AAAAALj4fz5pt5I+AACAPwAAAAAAAAA/AAAAAAAAAAAAAAAAAAAAPwAAAAAAAAAAAAAAAAAAAD8AAAAA
        AAAAAAAAAAAAAAA/AAAAAAAAAAAAAAAAAAAAPwAAAAAAAAAAAAAAAAAAAD8AAAAAAAAAAAAAAAAAAAA/AAAAAAAAAAAAAAAAAAAAPwAAAAAAAAAAAAAAAAAAAD8AAAAA
        AAAAAAAAAAAAAAA/AAAAAAAAAAAAAAAAAAAAPwAAAAAAAAAAAAAAAAAAAD8AAAAAAAAAAAAAAAAAAAA/AAAAAAAAAAAAAAAAAAAAPwAAAAAAAAAAAAAAAHwZED4AAAA/
        KKO3PQAAgD8AAAAAAAAAAImIiD3y0iU/AAAAAAAAgD8AAAAAdGjRPQAAAAAAAIA/AAAAAAAAAD8AAAAAAAAAAAAAAAAAAAA/AAAAAAAAAAAAAAAAAAAAPwAAAAAAAAAA
        AAAAAAAAAD8AAAAAAAAAAAAAAAAAAAA/AAAAAAAAAAAAAAAAAAAAPwAAAAAAAAAAAAAAAAAAAD8AAAAAAAAAAAAAAAAAAAA/AAAAAAAAAAAAAAAAAAAAPwAAAAAAAAAA
        AAAAAAAAAD8AAAAAAAAAAAAAAAAAAAA/AAAAAAAAAAAAAAAAAAAAPwAAAAAAAAAAAAAAAAAAAD8AAAAAAAAAAAAAAAAAAAA/AAAAAAAAAAAAAAAAvvR9PgAAAD8AAAA/
        AAAAPwAAAAAAAAAAiYiIPQAAAD8AAAAAAAAAAAAAAAAAAAA/AAAAAAAAAAAAAAAAAAAAPwAAAAAAAAAAAAAAAAAAAD8AAAAAAAAAAAAAAAAAAAA/AAAAAAAAAAAAAAAA
        AAAAPwAAAAAAAAAAAAAAAAAAAD8AAAAAAAAAAAAAAAAAAAA/AAAAAAAAAAAAAAAAAAAAPwAAAAAAAAAAAAAAAAAAAD8AAAAAAAAAAAAAAAAAAAA/AAAAAAAAAAAAAAAA
        AAAAPwAAAAAAAAAAAAAAAAAAAD8AAAAAAAAAAAAAAAAAAAA/AAAAAAAAAAAAAAAAAAAAPwAAAAAAAAAAAAAAAAAAAD8AAAAAAAAAAAAAAAC+9H0+AAAAPwAAAD8AAAA/
        AAAAAAAAAACJiIg9AAAAPwAAAAAAAAAAAAAAAAAAAD8AAAAAAAAAAAAAAAAAAAA/AAAAAAAAAAAAAAAAAAAAPwAAAAAAAAAAAAAAAAAAAD8AAAAAAAAAAAAAAAAAAAA/
        AAAAAAAAAAAAAAAAAAAAPwAAAAAAAAAAAAAAAAAAAD8AAAAAAAAAAAAAAAAAAAA/AAAAAAAAAAAAAAAAAAAAPwAAAAAAAAAAAAAAAAAAAD8AAAAAAAAAAAAAAAAAAAA/
        AAAAAAAAAAAAAAAAAAAAPwAAAAAAAAAAAAAAAAAAAD8AAAAAAAAAAAAAAAAAAAA/AAAAAAAAAAAAAAAAAAAAPwAAAAAAAAAAAAAAAL70fT4AAAA/AAAAPwAAAD8AAAAA
        AAAAAImIiD0AAAA/AAAAAAAAAAAAAAAAAAAAPwAAAAAAAAAAAAAAAAAAAD8AAAAAAAAAAAAAAAAAAAA/AAAAAAAAAAAAAAAAAAAAPwAAAAAAAAAAAAAAAAAAAD8AAAAA
        AAAAAAAAAAAAAAA/AAAAAAAAAAAAAAAAAAAAPwAAAAAAAAAAAAAAAAAAAD8AAAAAAAAAAAAAAAAAAAA/AAAAAAAAAAAAAAAAAAAAPwAAAAAAAAAAAAAAAAAAAD8AAAAA
        AAAAAAAAAAAAAAA/AAAAAAAAAAAAAAAAAAAAPwAAAAAAAAAAAAAAAAAAAD8AAAAAAAAAAAAAAAAAAAA/AAAAAAAAAAAAAAAAvvR9PgAAAD8AAAA/AAAAPwAAAAAAAAAA
        iYiIPQAAAD8AAAAAAAAAAAAAAAAAAAA/AAAAAAAAAAAAAAAAAAAAPwAAAAAAAAAAAAAAAAAAAD8AAAAAAAAAAAAAAAAAAAA/AAAAAAAAAAAAAAAAAAAAPwAAAAAAAAAA
        AAAAAAAAAD8AAAAAAAAAAAAAAAAAAAA/AAAAAAAAAAAAAAAAAAAAPwAAAAAAAAAAAAAAAAAAAD8AAAAAAAAAAAAAAAAAAAA/AAAAAAAAAAAAAAAAAAAAPwAAAAAAAAAA
        AAAAAAAAAD8AAAAAAAAAAAAAAAAAAAA/AAAAAAAAAAAAAAAAAAAAPwAAAAAAAAAAAAAAAAAAAD8AAAAAAAAAAAAAAAAAAAAAmpmZPgAAAAAAAAAAAAAAAAAAgD8AAAAA
        mpmZPgAAAAAAAAAAAAAAAAAAgD8AAAAAmpmZPgAAAAAAAAAAAAAAAAAAgD8AAAAAmpmZPgAAAAAAAAAAAAAAAAAAgD8AAAAAmpmZPgAAAAAAAAAAAAAAAAAAgD8AAAAA
        mpmZPgAAAAAAAAAAAAAAAAAAgD8AAAAAAAAAAAAAAAAAAAAAAAAAAAAAAAAAAAAAAAAAAAAAAAAAAAAAAAAAAAAAAAAAAAAAAAAAAAAAAAAAAAAAAAAAAAAAAAAAAAAA
        AAAAAAAAAAAAAAAAAAAAAAAAAAAAAAAAAAAAAAAAAAAAAAAAAAAAAAAAAAAAAAAAAAAAAAAAAAAAAAAAAAAAAAAAAAAAAAAAAAAAAKuqKj3ZiR09AACAPwAAAAAAAAAA
        knYsPAAAAAAAAAA/AAAAAAAAAAAAAAAAAAAAAAAAAD8AAAAAAAAAAAAAAAAAAAAAAAAAPwAAAAAAAAAAAAAAAAAAAAAAAAAAAAAAAAAAAAAAAAAAAAAAAAAAAAAAAAAA
        AAAAAAAAAAAAAAAAAAAAAAAAAAAAAAAAAAAAAAAAAAAAAAAAAAAAAAAAAAAAAAAAAAAAAAAAAAAAAAAAAAAAAAAAAAAAAAAAAAAAAAAAAAAAAAAAAAAAAAAAAAAAAAAA
        AAAAAAAAAAAAAAAAAAAAAAAAAAAAAAAAAAAAAAAAAAAAAAAAAAAAAAAAAAAAAAAAAAAAAAAAAAAAAAAAAAAAAAAAAAAAAAAAAAAAAAAAAAAAAAAAAAAAAAAAAAAAAAAA
        AAAAAAAAAAAAAAAAAAAAAAAAAAAAAAAAAAAAAAAAAAAAAAAAAAAAAAAAAAAAAAAAAAAAAAAAAAAAAAAAAAAAAAAAAAAAAAAAAAAAAAAAAAAAAAAAAAAAAAAAAAAAAAAA
        AAAAAAAAAAAAAAAAAAAAAAAAAAAAAAAAAAAAAAAAAAAAAAAAAAAAAAAAAAAAAAAAAAAAAAAAAAAAAAAAAAAAAAAAAAAAAAAAAAAAAAAAAAAAAAAAAAAAPwAAAD8AAAA/
        AAAAPwAAAD8AAAA/AAAAPwAAAD8AAAAAAAAAAAAAAAAAAAAAAAAAAAAAAAAAAAAAAAAAAAAAAAAAAAAAAAAAAAAAAAAAAAAAAAAAAAAAAAAAAAAAAAAAAAAAAAAAAAAA
        AAAAAAAAAAAAAAAAAAAAAAAAAAAAAAAAAAAAAAAAAAAAAAAAAAAAAAAAAAAAAAAAAAAAAAAAAAAAAAAAAAAAAAAAAAAAAAAAAAAAAAAAAAAAAAAAAAAAAAAAAAAAAAAA
        AAAAAAAAAAAAAAAAAAAAAAAAAAAAAAAAAAAAAAAAAAAAAAAAAAAAAAAAAAAAAAAAAAAAAAAAAAAAAAAAAAAAAAAAAAAAAAAAAAAAAAAAAAAAAAAAAAAAAAAAAAAAAAAA
        AAAAAAAAAAAAAAAAAAAAAAAAAAAAAAAAAAAAAAAAAAAAAAAAAAAAAAAAAAAAAAAAAAAAAAAAAAAAAAAA
        Q2hpcFNpZGUAQ2hpcFNpZGUAEAAAAA==
      >
      PRESETNAME ChipSide
      FLOATPOS 250 243 927 529
      FXID {20356A84-5CFD-6E4A-AA26-2A8A49CE7A76}
      WAK 0
    >
  >
  <TRACK {71C79E63-5A69-554D-871D-6EEC8B27A9A2}
    NAME "14 Israel"
    PEAKCOL 16576
    BEAT -1
    AUTOMODE 0
    VOLPAN 1 0 -1 -1 1
    MUTESOLO 1 0 0
    IPHASE 0
    ISBUS 0 0
    BUSCOMP 0 0
    SHOWINMIX 1 0.6667 0.5 1 0.5 0 0 0
    FREEMODE 0
    SEL 0
    REC 0 0 0 0 0 0 0
    VU 2
    TRACKHEIGHT 0 0
    INQ 0 0 0 0.5 100 0 0 100
    NCHAN 2
    FX 1
    TRACKID {71C79E63-5A69-554D-871D-6EEC8B27A9A2}
    PERF 0
    MIDIOUT -1
    MAINSEND 1 0
    <ITEM
      POSITION 0
      SNAPOFFS 0
      LENGTH 44.96085689107382
      LOOP 1
      ALLTAKES 0
      FADEIN 1 0 0 1 0 0
      FADEOUT 1 0 0 1 0 0
      MUTE 0
      SEL 0
      IGUID {EBC9F27A-3F24-2248-8304-80E0D4CAD918}
      IID 17
      NAME "14 Israel.mp3"
      VOLPAN 1 0 1 -1
      SOFFS 0.40750566893424
      PLAYRATE 1.930865 1 -3 -1 0 0.0025
      CHANMODE 0
      GUID {53393EE2-DD92-F74C-9AA8-BFBC34A03CE5}
      <SOURCE MP3
        FILE "14 Israel.mp3" 1
      >
    >
  >
  <EXTENSIONS
    <SWSAUTOCOLOR
      {00000000-0000-0000-0000-000000000000} 0 "" "" ""
      {F4CC3575-1D7D-424F-8F4B-C71B325A2484} 0 "" "" ""
      {71C79E63-5A69-554D-871D-6EEC8B27A9A2} 0 "" "" ""
    >
  >
>
