<REAPER_PROJECT 0.1 "4.76/OSX64" 1420772722
  RIPPLE 0
  GROUPOVERRIDE 0 0 0
  AUTOXFADE 0
  ENVATTACH 1
  MIXERUIFLAGS 11 53
  PEAKGAIN 1
  FEEDBACK 0
  PANLAW 1
  PROJOFFS 0 0
  MAXPROJLEN 0 600
  GRID 174206 8 1 8 1 0 0
  TIMEMODE 6 0 -1 24 2
  PANMODE 3
  CURSOR 0
  ZOOM 8.33979782667089 0 0
  VZOOMEX 0
  USE_REC_CFG 0
  RECMODE 1
  SMPTESYNC 0 23.976024 100 40 1000 300 0 0 1
  LOOP 1
  LOOPGRAN 0 4
  RECORD_PATH "" ""
  <RECORD_CFG
    ZXZhdxAA
  >
  <APPLYFX_CFG
  >
  RENDER_FILE ""
  RENDER_PATTERN ""
  RENDER_FMT 0 2 0
  RENDER_1X 0
  RENDER_RANGE 1 0 0
  RENDER_RESAMPLE 3 0 1
  RENDER_ADDTOPROJ 0
  RENDER_STEMS 0
  RENDER_DITHER 0
  TIMELOCKMODE 1
  TEMPOENVLOCKMODE 1
  ITEMMIX 1
  DEFPITCHMODE 589824
  TAKELANE 3
  SAMPLERATE 44100 0 0
  <RENDER_CFG
  >
  LOCK 1
  <METRONOME 6 2
    VOL 0.25 0.125
    FREQ 800 1600 1
    BEATLEN 4
    SAMPLES "" ""
  >
  GLOBAL_AUTO -1
  TEMPO 120 4 4
  PLAYRATE 1 0 0.25 4
  SELECTION 0 47.5
  SELECTION2 0 47.5
  MASTERAUTOMODE 0
  MASTERTRACKHEIGHT 0
  MASTERPEAKCOL 16576
  MASTERMUTESOLO 0
  MASTERTRACKVIEW 0 0.6667 0.377358 0.5 -1 -1 -1
  MASTERHWOUT 0 0 1 0 0 0 0 -1
  MASTER_NCH 2 2
  MASTER_VOLUME 1 0 -1 -1 1
  MASTER_FX 1
  MASTER_SEL 0
  <MASTERPLAYSPEEDENV
    ACT 0
    VIS 0 1 1
    LANEHEIGHT 0 0
    ARM 0
    DEFSHAPE 0 -1 -1
  >
  <TEMPOENVEX
    ACT 0
    VIS 1 0 1
    LANEHEIGHT 0 0
    ARM 0
    DEFSHAPE 1 -1 -1
  >
  <PROJBAY
  >
  <TRACK {D342C8E0-76B8-4549-AACB-F68F9BBB586C}
    NAME "16 United States of America"
    PEAKCOL 16576
    BEAT -1
    AUTOMODE 0
    VOLPAN 1 0 -1 -1 1
    MUTESOLO 1 0 0
    IPHASE 0
    ISBUS 0 0
    BUSCOMP 0 0
    SHOWINMIX 1 0.6667 0.377358 1 0.5 -1 -1 -1
    FREEMODE 0
    SEL 0
    REC 0 0 0 0 0 0 0
    VU 2
    TRACKHEIGHT 0 0
    INQ 0 0 0 0.5 100 0 0 100
    NCHAN 2
    FX 1
    TRACKID {D342C8E0-76B8-4549-AACB-F68F9BBB586C}
    PERF 0
    MIDIOUT -1
    MAINSEND 1 0
    <ITEM
      POSITION 0
      SNAPOFFS 0
      LENGTH 57.08437681360368
      LOOP 1
      ALLTAKES 0
      FADEIN 1 0 0 1 0 0
      FADEOUT 1 0 0 1 0 0
      MUTE 0
      SEL 0
      IGUID {E8A8D925-1970-4547-90FA-ACC6782E7E0D}
      IID 11
      NAME "14 United Arab Emirates.mp3"
      VOLPAN 1 0 1 -1
      SOFFS 0.96753181040006
      PLAYRATE 1.06509001926269 1 0 -1 0 0.0025
      CHANMODE 0
      GUID {32B8D9A9-34AD-8B48-A845-ED90EB1C9055}
      <SOURCE MP3
        FILE "14 United Arab Emirates.mp3" 1
      >
    >
  >
  <TRACK {F4CC3575-1D7D-424F-8F4B-C71B325A2484}
    NAME backup
    PEAKCOL 16576
    BEAT -1
    AUTOMODE 0
    VOLPAN 1 0 -1 -1 1
    MUTESOLO 0 0 0
    IPHASE 0
    ISBUS 0 0
    BUSCOMP 0 0
    SHOWINMIX 1 0.6667 0.377358 1 0.5 -1 -1 -1
    FREEMODE 0
    SEL 0
    REC 0 0 0 0 0 0 0
    VU 2
    TRACKHEIGHT 0 0
    INQ 0 0 0 0.5 100 0 0 100
    NCHAN 2
    FX 1
    TRACKID {F4CC3575-1D7D-424F-8F4B-C71B325A2484}
    PERF 0
    MIDIOUT -1
    MAINSEND 1 0
    <FXCHAIN
      SHOW 0
      LASTSEL 0
      DOCKED 0
      BYPASS 0 0 0
      <VST "VSTi: chipsounds (Plogue Art et Technologie, Inc)" chipsounds.vst 0 ""
        T0dMUO5e7f4AAAAAAgAAAAEAAAAAAAAAAgAAAAAAAABDAgAAAQAAAAAAEABDRUdQFAgAAHic5VXfb9owEH7nr7D8tD00sRMgRSJUjJYJaahoMGlv1RGuqTXHYY7D2v31
        cxJCoXSqJ21Puxf7zt/9+Hyyb3j1mEmyQ12IXMWUe4ySq1FnONYClrDDo6M+C+ioQ6wMl2iMUGlBvpcghXmyp5SkMl+DXOTSqmFASWE0QmZhjZrB47K2jKXMk/mHmPa4
        Nc9n17Pb0szzDdZRoDR5BsamXMrcxNTWUyQxDS6rFSRYCycXBKvMXpHIvXmCyqCOaZ+1haxKVedmHquFEr+t3gYmYlPHVpBhFdIji1IjmTyIrR+M2Vf/86JayLtSSZEJ
        g5v3lKxBfZtZP87YgJLkAZRCGdMLW/a2ps37lJizvNv1nQaVYoU8GI01Fdu8wLqMrDTNpvhxJ6GoeTfV1hXPQai24h3IEutOndI6BfID8Iz/KTBwBYauwK4rsOcK7LsC
        I1fgpStw4ArkzBnp3Bvu3Bzu3B3u3B7+Vn8WoCHbpz+utMfCQRj9Ftt9xvLg9cgr0Cma/eNM8sxbyDwt0at+Je/T9NYrC9THL6T2mpSF/TuuwQAxT1vrGQRh3152IX5a
        pVv1vP3MbD5UGwHNdmNd7KaVabME7O/KKUW/4finpPl/QnqlRZqiXtp/HlWC+k3aPAr4oKXdi45oB6/R5i/qrPVoWkk4iaaDk8MJC6f/8CKGfjWR9vub+3tMzPmIGmdr
        Ud3EyynUDrWPX2atAyRG7HB2mJ+NfvM8T1HaFLhZwboZXjbG0G8n/qjzC1c+BDcAABAAAAA=
      >
      FLOATPOS 404 36 871 509
      FXID {8431A072-55F4-FD4E-8B7D-D2D9F1493C94}
      WAK 0
    >
    <ITEM
      POSITION 0
      SNAPOFFS 0
      LENGTH 47.5
      LOOP 1
      ALLTAKES 0
      FADEIN 1 0 0 1 0 0
      FADEOUT 1 0 0 1 0 0
      MUTE 0
      SEL 0
      YPOS 0.5 0.166667
      IGUID {21F4B364-8CD7-1F4D-B560-55F9439FFF04}
      IID 4
      NAME "MELODY               - National_Anthems_-_United_Arab_Emirates.mid"
      VOLPAN 1 0 1 -1
      SOFFS 0 0
      PLAYRATE 1 1 0 -1 0 0.0025
      CHANMODE 0
      GUID {6DB9B0C3-6CF5-1B44-A3E2-A5413F3F2BAA}
      <SOURCE MIDI
        HASDATA 1 192 QN
        POOLEDEVTS {93A9B59A-5366-F348-8BD5-17AA54194368}
        <X 0 0
          /wNNRUxPRFkgICAgICAgICAgICAgIA==
        >
        e 0 90 48 7f
        e 176 80 48 40
        e 16 90 4d 7f
        e 128 80 4d 40
        e 16 90 4c 7f
        e 32 80 4c 40
        e 16 90 4d 7f
        e 176 80 4d 40
        e 16 90 48 7f
        e 176 80 48 40
        e 16 90 4d 7f
        e 176 80 4d 40
        e 16 90 4f 7f
        e 80 80 4f 40
        e 16 90 51 7f
        e 80 80 51 40
        e 16 90 51 7f
        e 176 80 51 40
        e 16 90 4f 7f
        e 80 80 4f 40
        e 16 90 4d 7f
        e 80 80 4d 40
        e 16 90 4c 7f
        e 176 80 4c 40
        e 16 90 4d 7f
        e 80 80 4d 40
        e 16 90 4f 7f
        e 80 80 4f 40
        e 16 90 4f 7f
        e 368 80 4f 40
        e 16 90 4f 7f
        e 176 80 4f 40
        e 16 90 4f 7f
        e 128 80 4f 40
        e 16 90 4f 7f
        e 32 80 4f 40
        e 16 90 4f 7f
        e 176 80 4f 40
        e 16 90 48 7f
        e 176 80 48 40
        e 16 90 4f 7f
        e 128 80 4f 40
        e 16 90 4e 7f
        e 32 80 4e 40
        e 16 90 4f 7f
        e 80 80 4f 40
        e 16 90 51 7f
        e 80 80 51 40
        e 16 90 52 7f
        e 176 80 52 40
        e 16 90 4f 7f
        e 176 80 4f 40
        e 16 90 51 7f
        e 128 80 51 40
        e 16 90 4f 7f
        e 32 80 4f 40
        e 16 90 51 7f
        e 80 80 51 40
        e 16 90 52 7f
        e 80 80 52 40
        e 16 90 54 7f
        e 176 80 54 40
        e 16 90 4d 7f
        e 176 80 4d 40
        e 16 90 4f 7f
        e 176 80 4f 40
        e 16 90 52 7f
        e 176 80 52 40
        e 16 90 51 7f
        e 128 80 51 40
        e 16 90 4f 7f
        e 32 80 4f 40
        e 16 90 4a 7f
        e 80 80 4a 40
        e 16 90 4c 7f
        e 80 80 4c 40
        e 16 90 4d 7f
        e 176 80 4d 40
        e 16 90 4d 7f
        e 128 80 4d 40
        e 16 90 4d 7f
        e 32 80 4d 40
        e 16 90 4d 7f
        e 176 80 4d 40
        e 208 90 4d 7f
        e 176 80 4d 40
        e 16 90 4d 7f
        e 128 80 4d 40
        e 16 90 4c 7f
        e 32 80 4c 40
        e 16 90 4a 7f
        e 176 80 4a 40
        e 16 90 4a 7f
        e 128 80 4a 40
        e 16 90 48 7f
        e 32 80 48 40
        e 16 90 46 7f
        e 176 80 46 40
        e 16 90 46 7f
        e 128 80 46 40
        e 16 90 45 7f
        e 32 80 45 40
        e 16 90 43 7f
        e 80 80 43 40
        e 304 90 4c 7f
        e 176 80 4c 40
        e 16 90 4c 7f
        e 128 80 4c 40
        e 16 90 4a 7f
        e 32 80 4a 40
        e 16 90 48 7f
        e 176 80 48 40
        e 16 90 48 7f
        e 128 80 48 40
        e 16 90 46 7f
        e 32 80 46 40
        e 16 90 45 7f
        e 176 80 45 40
        e 16 90 45 7f
        e 128 80 45 40
        e 16 90 43 7f
        e 32 80 43 40
        e 16 90 41 7f
        e 320 80 41 40
        e 16 90 4d 7f
        e 32 80 4d 40
        e 16 90 4f 7f
        e 176 80 4f 40
        e 16 90 51 7f
        e 176 80 51 40
        e 16 90 52 7f
        e 176 80 52 40
        e 16 90 4f 7f
        e 176 80 4f 40
        e 16 90 51 7f
        e 176 80 51 40
        e 16 90 52 7f
        e 176 80 52 40
        e 16 90 54 7f
        e 176 80 54 40
        e 16 90 56 7f
        e 176 80 56 40
        e 16 90 4c 7f
        e 80 80 4c 40
        e 16 90 48 7f
        e 80 80 48 40
        e 16 90 4a 7f
        e 80 80 4a 40
        e 16 90 4d 7f
        e 80 80 4d 40
        e 16 90 4c 7f
        e 80 80 4c 40
        e 16 90 48 7f
        e 80 80 48 40
        e 16 90 4a 7f
        e 80 80 4a 40
        e 16 90 4c 7f
        e 80 80 4c 40
        e 16 90 4d 7f
        e 752 80 4d 40
        e 16 90 48 7f
        e 176 80 48 40
        e 16 90 4d 7f
        e 128 80 4d 40
        e 16 90 4c 7f
        e 32 80 4c 40
        e 16 90 4d 7f
        e 176 80 4d 40
        e 16 90 48 7f
        e 176 80 48 40
        e 16 90 4d 7f
        e 176 80 4d 40
        e 16 90 4f 7f
        e 80 80 4f 40
        e 16 90 51 7f
        e 80 80 51 40
        e 16 90 51 7f
        e 176 80 51 40
        e 16 90 4f 7f
        e 80 80 4f 40
        e 16 90 4d 7f
        e 80 80 4d 40
        e 16 90 4c 7f
        e 176 80 4c 40
        e 16 90 4d 7f
        e 80 80 4d 40
        e 16 90 4f 7f
        e 80 80 4f 40
        e 16 90 4f 7f
        e 368 80 4f 40
        e 16 90 4f 7f
        e 176 80 4f 40
        e 16 90 4f 7f
        e 128 80 4f 40
        e 16 90 4f 7f
        e 32 80 4f 40
        e 16 90 4f 7f
        e 176 80 4f 40
        e 16 90 48 7f
        e 176 80 48 40
        e 16 90 4f 7f
        e 128 80 4f 40
        e 16 90 4e 7f
        e 32 80 4e 40
        e 16 90 4f 7f
        e 80 80 4f 40
        e 16 90 51 7f
        e 80 80 51 40
        e 16 90 52 7f
        e 176 80 52 40
        e 16 90 4f 7f
        e 176 80 4f 40
        e 16 90 51 7f
        e 128 80 51 40
        e 16 90 4f 7f
        e 32 80 4f 40
        e 16 90 51 7f
        e 80 80 51 40
        e 16 90 52 7f
        e 80 80 52 40
        e 16 90 54 7f
        e 176 80 54 40
        e 16 90 4d 7f
        e 176 80 4d 40
        e 16 90 4f 7f
        e 176 80 4f 40
        e 16 90 52 7f
        e 176 80 52 40
        e 16 90 51 7f
        e 80 80 51 40
        e 16 90 4f 7f
        e 80 80 4f 40
        e 16 90 4a 7f
        e 80 80 4a 40
        e 16 90 4c 7f
        e 80 80 4c 40
        e 16 90 4d 7f
        e 176 80 4d 40
        e 16 90 4d 7f
        e 128 80 4d 40
        e 16 90 4d 7f
        e 32 80 4d 40
        e 16 90 4d 7f
        e 176 80 4d 40
        E 16 b0 7b 00
        GUID {847F49D6-DCEA-384E-AC99-FC02E6095550}
        IGNTEMPO 0 120 4 4
        SRCCOLOR 202
        VELLANE -1 86 6
        CFGEDITVIEW 2231.783081 389.410354 58 17 0 0 0 0 0
        KEYSNAP 0 3 102304056070 0 "Natural minor"
        TRACKSEL 252 0 0 ""
        EVTFILTER 0 -1 -1 -1 -1 0 0 0 0 -1 -1 -1 -1 0 -1 0 -1 -1
        CFGEDIT 1 0 0 0 0 0 1 0 1 1 1 0.25 269 4 1280 633 0 0 2 3 0 0 0 0 0 0.5 0 0 1 64
      >
    >
    <ITEM
      POSITION 0
      SNAPOFFS 0
      LENGTH 47.5
      LOOP 1
      ALLTAKES 0
      FADEIN 1 0 0 1 0 0
      FADEOUT 1 0 0 1 0 0
      MUTE 0
      SEL 0
      YPOS 0.333333 0.166667
      IGUID {0E0711A8-B0EA-D042-851A-BA5A7C78BCE4}
      IID 3
      NAME "BASS                 - National_Anthems_-_United_Arab_Emirates.mid"
      VOLPAN 1 0 1 -1
      SOFFS 0 0
      PLAYRATE 1 1 0 -1 0 0.0025
      CHANMODE 0
      GUID {8DC01527-C4BB-7047-A27B-A30FA77CF682}
      <SOURCE MIDI
        HASDATA 1 192 QN
        POOLEDEVTS {6703D87B-19AE-F24A-A067-4041A1A6F331}
        <X 0 0
          /wNCQVNTICAgICAgICAgICAgICAgIA==
        >
        e 0 93 29 7f
        e 176 83 29 40
        e 16 93 35 7f
        e 176 83 35 40
        e 16 93 29 7f
        e 176 83 29 40
        e 16 93 2e 7f
        e 176 83 2e 40
        e 16 93 2d 7f
        e 176 83 2d 40
        e 16 93 2b 7f
        e 176 83 2b 40
        e 16 93 29 7f
        e 176 83 29 40
        e 16 93 2b 7f
        e 80 83 2b 40
        e 16 93 24 7f
        e 80 83 24 40
        e 16 93 24 7f
        e 176 83 24 40
        e 16 93 30 7f
        e 176 83 30 40
        e 16 93 24 7f
        e 176 83 24 40
        e 16 93 30 7f
        e 176 83 30 40
        e 16 93 34 7f
        e 176 83 34 40
        e 16 93 30 7f
        e 176 83 30 40
        e 16 93 2e 7f
        e 80 83 2e 40
        e 16 93 30 7f
        e 80 83 30 40
        e 16 93 34 7f
        e 80 83 34 40
        e 16 93 37 7f
        e 80 83 37 40
        e 16 93 30 7f
        e 464 83 30 40
        e 16 93 24 7f
        e 80 83 24 40
        e 16 93 28 7f
        e 80 83 28 40
        e 16 93 2b 7f
        e 80 83 2b 40
        e 16 93 29 7f
        e 464 83 29 40
        e 16 93 30 7f
        e 80 83 30 40
        e 16 93 2d 7f
        e 80 83 2d 40
        e 16 93 29 7f
        e 80 83 29 40
        e 16 93 24 7f
        e 176 83 24 40
        e 16 93 30 7f
        e 176 83 30 40
        e 16 93 28 7f
        e 176 83 28 40
        e 16 93 34 7f
        e 176 83 34 40
        e 16 93 29 7f
        e 176 83 29 40
        e 16 93 35 7f
        e 176 83 35 40
        e 16 93 35 7f
        e 176 83 35 40
        e 208 93 35 7f
        e 272 83 35 40
        e 112 93 2e 7f
        e 272 83 2e 40
        e 112 93 34 7f
        e 272 83 34 40
        e 112 93 30 7f
        e 272 83 30 40
        e 112 93 24 7f
        e 176 83 24 40
        e 16 93 30 7f
        e 176 83 30 40
        e 16 93 24 7f
        e 176 83 24 40
        e 208 93 29 7f
        e 176 83 29 40
        e 16 93 35 7f
        e 176 83 35 40
        e 16 93 29 7f
        e 176 83 29 40
        e 208 93 2b 7f
        e 176 83 2b 40
        e 16 93 29 7f
        e 176 83 29 40
        e 16 93 28 7f
        e 176 83 28 40
        e 16 93 24 7f
        e 176 83 24 40
        e 16 93 29 7f
        e 176 83 29 40
        e 16 93 2b 7f
        e 176 83 2b 40
        e 16 93 2d 7f
        e 176 83 2d 40
        e 16 93 2e 7f
        e 176 83 2e 40
        e 16 93 30 7f
        e 272 83 30 40
        e 16 93 32 7f
        e 80 83 32 40
        e 16 93 30 7f
        e 80 83 30 40
        e 16 93 2e 7f
        e 80 83 2e 40
        e 16 93 2d 7f
        e 80 83 2d 40
        e 16 93 2b 7f
        e 80 83 2b 40
        e 16 93 29 7f
        e 80 83 29 40
        e 16 93 29 7f
        e 80 83 29 40
        e 16 93 28 7f
        e 80 83 28 40
        e 16 93 26 7f
        e 80 83 26 40
        e 16 93 24 7f
        e 80 83 24 40
        e 16 93 2e 7f
        e 80 83 2e 40
        e 16 93 2d 7f
        e 80 83 2d 40
        e 16 93 2b 7f
        e 80 83 2b 40
        e 16 93 29 7f
        e 176 83 29 40
        e 16 93 37 7f
        e 176 83 37 40
        e 16 93 35 7f
        e 176 83 35 40
        e 16 93 2e 7f
        e 176 83 2e 40
        e 16 93 2d 7f
        e 176 83 2d 40
        e 16 93 2b 7f
        e 176 83 2b 40
        e 16 93 29 7f
        e 176 83 29 40
        e 16 93 2b 7f
        e 80 83 2b 40
        e 16 93 2d 7f
        e 80 83 2d 40
        e 16 93 30 7f
        e 176 83 30 40
        e 16 93 30 7f
        e 80 83 30 40
        e 16 93 30 7f
        e 80 83 30 40
        e 16 93 2e 7f
        e 80 83 2e 40
        e 16 93 24 7f
        e 80 83 24 40
        e 16 93 28 7f
        e 80 83 28 40
        e 16 93 2b 7f
        e 80 83 2b 40
        e 16 93 2e 7f
        e 80 83 2e 40
        e 16 93 2d 7f
        e 80 83 2d 40
        e 16 93 2b 7f
        e 80 83 2b 40
        e 16 93 29 7f
        e 80 83 29 40
        e 16 93 2e 7f
        e 80 83 2e 40
        e 16 93 30 7f
        e 80 83 30 40
        e 16 93 34 7f
        e 80 83 34 40
        e 16 93 37 7f
        e 80 83 37 40
        e 16 93 30 7f
        e 464 83 30 40
        e 16 93 24 7f
        e 80 83 24 40
        e 16 93 28 7f
        e 80 83 28 40
        e 16 93 2b 7f
        e 80 83 2b 40
        e 16 93 29 7f
        e 464 83 29 40
        e 16 93 30 7f
        e 80 83 30 40
        e 16 93 2d 7f
        e 80 83 2d 40
        e 16 93 29 7f
        e 80 83 29 40
        e 16 93 28 7f
        e 368 83 28 40
        e 16 93 30 7f
        e 176 83 30 40
        e 16 93 24 7f
        e 176 83 24 40
        e 16 93 29 7f
        e 176 83 29 40
        e 16 93 35 7f
        e 176 83 35 40
        e 16 93 29 7f
        e 176 83 29 40
        E 16 b0 7b 00
        GUID {05F93B9B-1DA0-424B-95DA-634716837D47}
        IGNTEMPO 0 120 4 4
        SRCCOLOR 201
        VELLANE -1 86 6
        CFGEDITVIEW -912 11.272727 58 17 0 0 0 0 0
        KEYSNAP 0 3 102304056070 0 "Natural minor"
        TRACKSEL 252 0 0 ""
        EVTFILTER 0 -1 -1 -1 -1 0 0 0 0 -1 -1 -1 -1 0 -1 0 -1 -1
        CFGEDIT 1 0 0 0 0 0 1 0 1 1 1 0.25 269 4 1280 633 0 0 2 3 0 0 0 0 0 0.5 0 0 1 64
      >
    >
    <ITEM
      POSITION 0
      SNAPOFFS 0
      LENGTH 47.5
      LOOP 1
      ALLTAKES 0
      FADEIN 1 0 0 1 0 0
      FADEOUT 1 0 0 1 0 0
      MUTE 0
      SEL 0
      YPOS 0 0.166667
      IGUID {97CF132B-AF2A-A948-BBB5-421B60791930}
      IID 1
      NAME "R.H.                 - National_Anthems_-_United_Arab_Emirates.mid"
      VOLPAN 1 0 1 -1
      SOFFS 0 0
      PLAYRATE 1 1 0 -1 0 0.0025
      CHANMODE 0
      GUID {F63ADB52-2A2F-9940-901B-54B135ACD288}
      <SOURCE MIDI
        HASDATA 1 192 QN
        POOLEDEVTS {F243426C-2D7F-F143-A0D2-F1A5D94D43A0}
        <X 0 0
          /wNSLkguICAgICAgICAgICAgICAgIA==
        >
        <X 0 0
          /wFUSEUgU09GVFdBUkUgVE9PTFdPUktT
        >
        <X 0 0
          /wFXT1JMRCBBVExBUw==
        >
        <X 0 0
          /wFNdWx0aU1lZGlhIFdpbmRvd3MgVmVyc2lvbg==
        >
        <X 0 0
          /wFDb3VudHJ5OiBVTklURUQgQVJBQiBFTUlSQVRFUw==
        >
        <X 0 0
          /wFBbnRoZW0gTmFtZTo=
        >
        <X 0 0
          /wEocCkgKGMpIFRoZSBTb2Z0d2FyZSBUb29sd29ya3MgMTk5MQ==
        >
        <X 0 0
          /wFlZGl0IGRhdGU6IDktMTQtOTE=
        >
        <X 0 0
          /wFNTVdJTiBFRElUIERBVEU6IDktMTQtOTE=
        >
        <X 0 0
          /wFUaGlzIGZpbGUgcHJvdmlkZWQgYnk6
        >
        <X 0 0
          /wFSb2IgV2FsbGFjZSBNdXNpYw==
        >
        <X 0 0
          /wEoNjAyKSA5NzktNjIwMQ==
        >
        e 0 91 3c 64
        e 0 91 41 64
        e 0 91 45 64
        e 0 91 48 64
        e 176 81 3c 40
        e 0 81 41 40
        e 0 81 45 40
        e 0 81 48 40
        e 16 91 41 64
        e 0 91 46 64
        e 0 91 4a 64
        e 0 91 4d 64
        e 128 81 41 40
        e 0 81 46 40
        e 0 81 4a 40
        e 0 81 4d 40
        e 16 91 40 64
        e 0 91 4c 64
        e 32 81 40 40
        e 0 81 4c 40
        e 16 91 41 64
        e 0 91 45 64
        e 0 91 48 64
        e 0 91 4d 64
        e 80 81 41 40
        e 0 81 45 40
        e 0 81 48 40
        e 16 91 43 64
        e 0 91 46 64
        e 80 81 4d 40
        e 0 81 43 40
        e 0 81 46 40
        e 16 91 41 64
        e 0 91 45 64
        e 0 91 48 64
        e 80 81 41 40
        e 0 81 45 40
        e 16 91 40 64
        e 0 91 43 64
        e 80 81 48 40
        e 0 81 40 40
        e 0 81 43 40
        e 16 91 41 64
        e 0 91 48 64
        e 0 91 4d 64
        e 176 81 41 40
        e 0 81 48 40
        e 0 81 4d 40
        e 16 91 43 64
        e 0 91 48 64
        e 0 91 4f 64
        e 80 81 43 40
        e 0 81 4f 40
        e 16 91 45 64
        e 0 91 51 64
        e 80 81 48 40
        e 0 81 45 40
        e 0 81 51 40
        e 16 91 45 64
        e 0 91 48 64
        e 0 91 4d 64
        e 0 91 51 64
        e 176 81 45 40
        e 0 81 48 40
        e 0 81 4d 40
        e 0 81 51 40
        e 16 91 43 64
        e 0 91 48 64
        e 0 91 4f 64
        e 80 81 43 40
        e 0 81 48 40
        e 0 81 4f 40
        e 16 91 41 64
        e 0 91 45 64
        e 0 91 48 64
        e 0 91 4d 64
        e 80 81 41 40
        e 0 81 45 40
        e 0 81 48 40
        e 0 81 4d 40
        e 16 91 40 64
        e 0 91 43 64
        e 0 91 48 64
        e 0 91 4c 64
        e 176 81 40 40
        e 0 81 43 40
        e 0 81 48 40
        e 0 81 4c 40
        e 16 91 41 64
        e 0 91 45 64
        e 0 91 48 64
        e 0 91 4d 64
        e 80 81 41 40
        e 0 81 45 40
        e 0 81 48 40
        e 0 81 4d 40
        e 16 91 43 64
        e 0 91 48 64
        e 0 91 4c 64
        e 0 91 4f 64
        e 80 81 43 40
        e 0 81 48 40
        e 0 81 4c 40
        e 0 81 4f 40
        e 16 91 43 64
        e 0 91 48 64
        e 0 91 4c 64
        e 0 91 4f 64
        e 368 81 43 40
        e 0 81 48 40
        e 0 81 4c 40
        e 0 81 4f 40
        e 16 91 43 64
        e 0 91 46 64
        e 0 91 4c 64
        e 0 91 4f 64
        e 176 81 43 40
        e 0 81 46 40
        e 0 81 4c 40
        e 0 81 4f 40
        e 16 91 43 64
        e 0 91 46 64
        e 0 91 4c 64
        e 0 91 4f 64
        e 128 81 43 40
        e 0 81 46 40
        e 0 81 4c 40
        e 0 81 4f 40
        e 16 91 43 64
        e 0 91 46 64
        e 0 91 4c 64
        e 0 91 4f 64
        e 32 81 43 40
        e 0 81 46 40
        e 0 81 4c 40
        e 0 81 4f 40
        e 16 91 43 64
        e 0 91 46 64
        e 0 91 4c 64
        e 0 91 4f 64
        e 176 81 43 40
        e 0 81 46 40
        e 0 81 4c 40
        e 0 81 4f 40
        e 16 91 3c 64
        e 0 91 40 64
        e 0 91 48 64
        e 176 81 3c 40
        e 0 81 40 40
        e 0 81 48 40
        e 16 91 43 64
        e 0 91 48 64
        e 0 91 4c 64
        e 0 91 4f 64
        e 128 81 43 40
        e 0 81 48 40
        e 0 81 4c 40
        e 0 81 4f 40
        e 16 91 42 64
        e 0 91 4e 64
        e 32 81 42 40
        e 0 81 4e 40
        e 16 91 43 64
        e 0 91 4f 64
        e 80 81 43 40
        e 0 81 4f 40
        e 16 91 45 64
        e 0 91 51 64
        e 80 81 45 40
        e 0 81 51 40
        e 16 91 46 64
        e 0 91 4c 64
        e 0 91 4f 64
        e 0 91 52 64
        e 176 81 46 40
        e 0 81 4c 40
        e 0 81 4f 40
        e 0 81 52 40
        e 16 91 43 64
        e 0 91 48 64
        e 0 91 4c 64
        e 0 91 4f 64
        e 176 81 43 40
        e 0 81 48 40
        e 0 81 4c 40
        e 0 81 4f 40
        e 16 91 45 64
        e 0 91 4d 64
        e 0 91 51 64
        e 128 81 45 40
        e 0 81 4d 40
        e 0 81 51 40
        e 16 91 43 64
        e 0 91 4c 64
        e 0 91 4f 64
        e 32 81 43 40
        e 0 81 4c 40
        e 0 81 4f 40
        e 16 91 45 64
        e 0 91 4d 64
        e 0 91 51 64
        e 80 81 45 40
        e 0 81 4d 40
        e 0 81 51 40
        e 16 91 46 64
        e 0 91 4f 64
        e 0 91 52 64
        e 80 81 46 40
        e 0 81 4f 40
        e 0 81 52 40
        e 16 91 48 64
        e 0 91 51 64
        e 0 91 54 64
        e 176 81 48 40
        e 0 81 51 40
        e 0 81 54 40
        e 16 91 41 64
        e 0 91 45 64
        e 0 91 4d 64
        e 176 81 41 40
        e 0 81 45 40
        e 0 81 4d 40
        e 16 91 43 64
        e 0 91 46 64
        e 0 91 4c 64
        e 0 91 4f 64
        e 176 81 43 40
        e 0 81 46 40
        e 0 81 4c 40
        e 0 81 4f 40
        e 16 91 46 64
        e 0 91 4a 64
        e 0 91 52 64
        e 176 81 46 40
        e 0 81 4a 40
        e 0 81 52 40
        e 16 91 45 64
        e 0 91 48 64
        e 0 91 51 64
        e 128 81 45 40
        e 0 81 48 40
        e 0 81 51 40
        e 16 91 43 64
        e 0 91 4f 64
        e 32 81 43 40
        e 0 81 4f 40
        e 16 91 3e 64
        e 0 91 46 64
        e 0 91 4a 64
        e 80 81 3e 40
        e 0 81 46 40
        e 0 81 4a 40
        e 16 91 40 64
        e 0 91 46 64
        e 0 91 4c 64
        e 80 81 40 40
        e 0 81 46 40
        e 0 81 4c 40
        e 16 91 41 64
        e 0 91 45 64
        e 0 91 48 64
        e 0 91 4d 64
        e 176 81 41 40
        e 0 81 45 40
        e 0 81 48 40
        e 0 81 4d 40
        e 16 91 41 64
        e 0 91 45 64
        e 0 91 48 64
        e 0 91 4d 64
        e 128 81 41 40
        e 0 81 45 40
        e 0 81 48 40
        e 0 81 4d 40
        e 16 91 41 64
        e 0 91 45 64
        e 0 91 48 64
        e 0 91 4d 64
        e 32 81 41 40
        e 0 81 45 40
        e 0 81 48 40
        e 0 81 4d 40
        e 16 91 41 64
        e 0 91 45 64
        e 0 91 48 64
        e 0 91 4d 64
        e 176 81 41 40
        e 0 81 45 40
        e 0 81 48 40
        e 0 81 4d 40
        e 208 91 41 64
        e 0 91 4d 64
        e 176 81 41 40
        e 0 81 4d 40
        e 16 91 41 64
        e 0 91 4d 64
        e 128 81 41 40
        e 0 81 4d 40
        e 16 91 40 64
        e 0 91 4c 64
        e 32 81 40 40
        e 0 81 4c 40
        e 16 91 3e 64
        e 0 91 4a 64
        e 176 81 3e 40
        e 0 81 4a 40
        e 16 91 3e 64
        e 0 91 4a 64
        e 128 81 3e 40
        e 0 81 4a 40
        e 16 91 3c 64
        e 0 91 48 64
        e 32 81 3c 40
        e 0 81 48 40
        e 16 91 3a 64
        e 0 91 46 64
        e 176 81 3a 40
        e 0 81 46 40
        e 16 91 3a 64
        e 0 91 46 64
        e 128 81 3a 40
        e 0 81 46 40
        e 16 91 39 64
        e 0 91 45 64
        e 32 81 39 40
        e 0 81 45 40
        e 16 91 37 64
        e 0 91 43 64
        e 80 81 37 40
        e 0 81 43 40
        e 16 91 41 64
        e 32 81 41 40
        e 16 91 43 64
        e 32 81 43 40
        e 16 91 45 64
        e 32 81 45 40
        e 16 91 46 64
        e 32 81 46 40
        e 16 91 48 64
        e 32 81 48 40
        e 16 91 4a 64
        e 32 81 4a 40
        e 16 91 40 64
        e 0 91 43 64
        e 0 91 4c 64
        e 176 81 40 40
        e 0 81 43 40
        e 0 81 4c 40
        e 16 91 40 64
        e 0 91 4c 64
        e 128 81 40 40
        e 0 81 4c 40
        e 16 91 3e 64
        e 0 91 4a 64
        e 32 81 3e 40
        e 0 81 4a 40
        e 16 91 3c 64
        e 0 91 40 64
        e 0 91 48 64
        e 176 81 3c 40
        e 0 81 40 40
        e 0 81 48 40
        e 16 91 3c 64
        e 0 91 40 64
        e 0 91 48 64
        e 128 81 3c 40
        e 0 81 40 40
        e 0 81 48 40
        e 16 91 3a 64
        e 0 91 3e 64
        e 0 91 46 64
        e 32 81 3a 40
        e 0 81 3e 40
        e 0 81 46 40
        e 16 91 39 64
        e 0 91 3c 64
        e 0 91 45 64
        e 176 81 39 40
        e 0 81 3c 40
        e 0 81 45 40
        e 16 91 39 64
        e 0 91 3c 64
        e 0 91 45 64
        e 128 81 39 40
        e 0 81 3c 40
        e 0 81 45 40
        e 16 91 37 64
        e 0 91 3a 64
        e 0 91 43 64
        e 32 81 37 40
        e 0 81 3a 40
        e 0 81 43 40
        e 16 91 39 64
        e 0 91 41 64
        e 320 81 39 40
        e 0 81 41 40
        e 16 91 41 64
        e 0 91 4d 64
        e 32 81 41 40
        e 0 81 4d 40
        e 16 91 43 64
        e 0 91 48 64
        e 0 91 4f 64
        e 176 81 43 40
        e 0 81 48 40
        e 0 81 4f 40
        e 16 91 45 64
        e 0 91 48 64
        e 0 91 51 64
        e 176 81 45 40
        e 0 81 48 40
        e 0 81 51 40
        e 16 91 46 64
        e 0 91 4c 64
        e 0 91 4f 64
        e 0 91 52 64
        e 176 81 46 40
        e 0 81 4c 40
        e 0 81 4f 40
        e 0 81 52 40
        e 16 91 43 64
        e 0 91 4c 64
        e 0 91 4f 64
        e 176 81 43 40
        e 0 81 4c 40
        e 0 81 4f 40
        e 16 91 45 64
        e 0 91 4d 64
        e 0 91 51 64
        e 176 81 45 40
        e 0 81 4d 40
        e 0 81 51 40
        e 16 91 46 64
        e 0 91 4f 64
        e 0 91 52 64
        e 176 81 46 40
        e 0 81 4f 40
        e 0 81 52 40
        e 16 91 48 64
        e 0 91 51 64
        e 0 91 54 64
        e 176 81 48 40
        e 0 81 51 40
        e 0 81 54 40
        e 16 91 4a 64
        e 0 91 52 64
        e 0 91 56 64
        e 176 81 4a 40
        e 0 81 52 40
        e 0 81 56 40
        e 16 91 40 64
        e 0 91 46 64
        e 0 91 4c 64
        e 80 81 40 40
        e 0 81 46 40
        e 0 81 4c 40
        e 16 91 3c 64
        e 0 91 48 64
        e 80 81 3c 40
        e 0 81 48 40
        e 16 91 3e 64
        e 0 91 4a 64
        e 80 81 3e 40
        e 0 81 4a 40
        e 16 91 41 64
        e 0 91 4d 64
        e 80 81 41 40
        e 0 81 4d 40
        e 16 91 40 64
        e 0 91 4c 64
        e 80 81 40 40
        e 0 81 4c 40
        e 16 91 3c 64
        e 0 91 48 64
        e 80 81 3c 40
        e 0 81 48 40
        e 16 91 3e 64
        e 0 91 4a 64
        e 80 81 3e 40
        e 0 81 4a 40
        e 16 91 40 64
        e 0 91 4c 64
        e 80 81 40 40
        e 0 81 4c 40
        e 16 91 41 64
        e 0 91 45 64
        e 0 91 4d 64
        e 80 81 41 40
        e 0 81 45 40
        e 0 81 4d 40
        e 16 91 41 64
        e 0 91 4d 64
        e 32 81 41 40
        e 0 81 4d 40
        e 16 91 41 64
        e 0 91 4d 64
        e 32 81 41 40
        e 0 81 4d 40
        e 16 91 41 64
        e 0 91 4d 64
        e 80 81 41 40
        e 0 81 4d 40
        e 16 91 41 64
        e 0 91 4d 64
        e 80 81 41 40
        e 0 81 4d 40
        e 16 91 41 64
        e 0 91 4d 64
        e 80 81 41 40
        e 0 81 4d 40
        e 16 91 41 64
        e 0 91 4d 64
        e 80 81 41 40
        e 0 81 4d 40
        e 16 91 41 64
        e 0 91 4d 64
        e 80 81 41 40
        e 0 81 4d 40
        e 16 91 41 64
        e 0 91 4d 64
        e 80 81 41 40
        e 0 81 4d 40
        e 16 91 3c 64
        e 0 91 41 64
        e 0 91 45 64
        e 0 91 48 64
        e 176 81 3c 40
        e 0 81 41 40
        e 0 81 45 40
        e 0 81 48 40
        e 16 91 41 64
        e 0 91 4a 64
        e 0 91 4d 64
        e 128 81 41 40
        e 0 81 4a 40
        e 0 81 4d 40
        e 16 91 40 64
        e 0 91 4c 64
        e 32 81 40 40
        e 0 81 4c 40
        e 16 91 41 64
        e 0 91 48 64
        e 0 91 4d 64
        e 80 81 48 40
        e 16 91 46 64
        e 80 81 41 40
        e 0 81 4d 40
        e 0 81 46 40
        e 16 91 3c 64
        e 0 91 45 64
        e 0 91 48 64
        e 80 81 45 40
        e 16 91 43 64
        e 80 81 3c 40
        e 0 81 48 40
        e 0 81 43 40
        e 16 91 41 64
        e 0 91 48 64
        e 0 91 4d 64
        e 176 81 41 40
        e 0 81 48 40
        e 0 81 4d 40
        e 16 91 43 64
        e 0 91 48 64
        e 0 91 4f 64
        e 80 81 43 40
        e 0 81 48 40
        e 0 81 4f 40
        e 16 91 45 64
        e 0 91 48 64
        e 0 91 51 64
        e 80 81 45 40
        e 0 81 48 40
        e 0 81 51 40
        e 16 91 45 64
        e 0 91 48 64
        e 0 91 51 64
        e 176 81 45 40
        e 0 81 48 40
        e 0 81 51 40
        e 16 91 43 64
        e 0 91 48 64
        e 0 91 4f 64
        e 80 81 43 40
        e 0 81 48 40
        e 0 81 4f 40
        e 16 91 41 64
        e 0 91 4d 64
        e 80 81 41 40
        e 0 81 4d 40
        e 16 91 40 64
        e 0 91 48 64
        e 0 91 4c 64
        e 176 81 40 40
        e 0 81 48 40
        e 0 81 4c 40
        e 16 91 41 64
        e 0 91 48 64
        e 0 91 4d 64
        e 80 81 41 40
        e 0 81 48 40
        e 0 81 4d 40
        e 16 91 43 64
        e 0 91 48 64
        e 0 91 4f 64
        e 80 81 43 40
        e 0 81 48 40
        e 0 81 4f 40
        e 16 91 43 64
        e 0 91 4c 64
        e 0 91 4f 64
        e 368 81 43 40
        e 0 81 4c 40
        e 0 81 4f 40
        e 16 91 43 64
        e 0 91 46 64
        e 0 91 4f 64
        e 176 81 43 40
        e 0 81 46 40
        e 0 81 4f 40
        e 16 91 43 64
        e 0 91 46 64
        e 0 91 4f 64
        e 128 81 43 40
        e 0 81 46 40
        e 0 81 4f 40
        e 16 91 43 64
        e 0 91 4f 64
        e 32 81 43 40
        e 0 81 4f 40
        e 16 91 43 64
        e 0 91 4f 64
        e 176 81 43 40
        e 0 81 4f 40
        e 16 91 3c 64
        e 0 91 48 64
        e 176 81 3c 40
        e 0 81 48 40
        e 16 91 43 64
        e 0 91 48 64
        e 0 91 4c 64
        e 0 91 4f 64
        e 128 81 43 40
        e 0 81 48 40
        e 0 81 4c 40
        e 0 81 4f 40
        e 16 91 42 64
        e 0 91 4e 64
        e 32 81 42 40
        e 0 81 4e 40
        e 16 91 43 64
        e 0 91 4f 64
        e 80 81 43 40
        e 0 81 4f 40
        e 16 91 45 64
        e 0 91 51 64
        e 80 81 45 40
        e 0 81 51 40
        e 16 91 46 64
        e 0 91 4f 64
        e 0 91 52 64
        e 176 81 46 40
        e 0 81 4f 40
        e 0 81 52 40
        e 16 91 43 64
        e 0 91 48 64
        e 0 91 4c 64
        e 0 91 4f 64
        e 176 81 43 40
        e 0 81 48 40
        e 0 81 4c 40
        e 0 81 4f 40
        e 16 91 45 64
        e 0 91 4d 64
        e 0 91 51 64
        e 128 81 45 40
        e 0 81 4d 40
        e 0 81 51 40
        e 16 91 43 64
        e 0 91 4f 64
        e 32 81 43 40
        e 0 81 4f 40
        e 16 91 45 64
        e 0 91 51 64
        e 80 81 45 40
        e 0 81 51 40
        e 16 91 46 64
        e 0 91 52 64
        e 80 81 46 40
        e 0 81 52 40
        e 16 91 48 64
        e 0 91 54 64
        e 176 81 48 40
        e 0 81 54 40
        e 16 91 41 64
        e 0 91 48 64
        e 0 91 4d 64
        e 176 81 41 40
        e 0 81 48 40
        e 0 81 4d 40
        e 16 91 43 64
        e 0 91 46 64
        e 0 91 4f 64
        e 176 81 43 40
        e 0 81 46 40
        e 0 81 4f 40
        e 16 91 46 64
        e 0 91 4f 64
        e 0 91 52 64
        e 176 81 46 40
        e 0 81 4f 40
        e 0 81 52 40
        e 16 91 45 64
        e 0 91 4d 64
        e 0 91 51 64
        e 80 81 45 40
        e 0 81 4d 40
        e 0 81 51 40
        e 16 91 43 64
        e 0 91 4f 64
        e 80 81 43 40
        e 0 81 4f 40
        e 16 91 3e 64
        e 0 91 41 64
        e 0 91 4a 64
        e 80 81 3e 40
        e 0 81 41 40
        e 0 81 4a 40
        e 16 91 40 64
        e 0 91 43 64
        e 0 91 4c 64
        e 80 81 40 40
        e 0 81 43 40
        e 0 81 4c 40
        e 16 91 41 64
        e 0 91 45 64
        e 0 91 4d 64
        e 176 81 41 40
        e 0 81 45 40
        e 0 81 4d 40
        e 16 91 41 64
        e 0 91 45 64
        e 0 91 4d 64
        e 128 81 41 40
        e 0 81 45 40
        e 0 81 4d 40
        e 16 91 41 64
        e 0 91 45 64
        e 0 91 4d 64
        e 32 81 41 40
        e 0 81 45 40
        e 0 81 4d 40
        e 16 91 41 64
        e 0 91 45 64
        e 0 91 4d 64
        e 176 81 41 40
        e 0 81 45 40
        e 0 81 4d 40
        E 16 b0 7b 00
        GUID {834CB3BD-F8D4-1746-9C72-178E786307DD}
        IGNTEMPO 0 120 4 4
        SRCCOLOR 199
        VELLANE -1 86 6
        CFGEDITVIEW 3565.130601 284.458653 40 10 0 0 0 0 0
        KEYSNAP 0 3 102304056070 0 "Natural minor"
        TRACKSEL 252 0 0 ""
        EVTFILTER 0 -1 -1 -1 -1 0 0 0 0 -1 -1 -1 -1 0 -1 0 -1 -1
        CFGEDIT 1 0 0 0 0 0 1 0 1 1 1 0.25 285 20 1280 633 0 0 2 3 0 0 0 0 0 0.5 0 0 1 64
      >
    >
    <ITEM
      POSITION 0
      SNAPOFFS 0
      LENGTH 47.5
      LOOP 1
      ALLTAKES 0
      FADEIN 1 0 0 1 0 0
      FADEOUT 1 0 0 1 0 0
      MUTE 0
      SEL 0
      YPOS 0.166667 0.166667
      IGUID {296DDB78-0DFB-1B48-AC01-5F6C4E4D3CF6}
      IID 2
      NAME "L.H.                 - National_Anthems_-_United_Arab_Emirates.mid"
      VOLPAN 1 0 1 -1
      SOFFS 0 0
      PLAYRATE 1 1 0 -1 0 0.0025
      CHANMODE 0
      GUID {8F854437-2EAC-A24B-B776-93F3683A734D}
      <SOURCE MIDI
        HASDATA 1 192 QN
        POOLEDEVTS {47112996-29FA-3A4C-B4BC-6CEBACDE0D7C}
        <X 0 0
          /wNMLkguICAgICAgICAgICAgICAgIA==
        >
        E 0 92 35 64
        E 0 92 29 64
        E 560 82 35 40
        E 0 82 29 40
        E 16 92 3a 64
        E 0 92 2e 64
        E 176 82 3a 40
        E 0 82 2e 40
        E 16 92 2d 64
        E 0 92 39 64
        E 176 82 2d 40
        E 0 82 39 40
        E 16 92 2b 64
        E 0 92 37 64
        E 176 82 2b 40
        E 0 82 37 40
        E 16 92 29 64
        E 0 92 35 64
        E 176 82 29 40
        E 0 82 35 40
        E 16 92 37 64
        E 0 92 2b 64
        E 80 82 37 40
        E 0 82 2b 40
        E 16 92 24 64
        E 0 92 30 64
        E 80 82 24 40
        E 0 82 30 40
        E 16 92 24 64
        E 0 92 30 64
        E 368 82 24 40
        E 0 82 30 40
        E 16 92 3c 64
        E 0 92 30 64
        E 80 82 3c 40
        E 0 82 30 40
        E 16 92 3c 64
        E 0 92 30 64
        E 16 82 3c 40
        E 0 82 30 40
        E 16 92 3c 64
        E 0 92 30 64
        E 16 82 3c 40
        E 0 82 30 40
        E 16 92 3c 64
        E 0 92 30 64
        E 16 82 3c 40
        E 0 82 30 40
        E 16 92 30 64
        E 0 92 3c 64
        E 80 82 30 40
        E 0 82 3c 40
        E 16 92 30 64
        E 0 92 3c 64
        E 80 82 30 40
        E 0 82 3c 40
        E 16 92 28 64
        E 0 92 34 64
        E 176 82 28 40
        E 0 82 34 40
        E 16 92 30 64
        E 0 92 24 64
        E 176 82 30 40
        E 0 82 24 40
        E 16 92 2e 64
        E 0 92 3a 64
        E 80 82 2e 40
        E 0 82 3a 40
        E 16 92 30 64
        E 0 92 3c 64
        E 80 82 30 40
        E 0 82 3c 40
        E 16 92 28 64
        E 0 92 34 64
        E 80 82 28 40
        E 0 82 34 40
        E 16 92 2b 64
        E 0 92 37 64
        E 80 82 2b 40
        E 0 82 37 40
        E 16 92 24 64
        E 0 92 30 64
        E 464 82 24 40
        E 0 82 30 40
        E 16 92 24 64
        E 0 92 30 64
        E 80 82 24 40
        E 0 82 30 40
        E 16 92 28 64
        E 0 92 34 64
        E 80 82 28 40
        E 0 82 34 40
        E 16 92 37 64
        E 0 92 2b 64
        E 80 82 37 40
        E 0 82 2b 40
        E 16 92 29 64
        E 0 92 35 64
        E 464 82 29 40
        E 0 82 35 40
        E 16 92 30 64
        E 0 92 3c 64
        E 80 82 30 40
        E 0 82 3c 40
        E 16 92 2d 64
        E 0 92 39 64
        E 80 82 2d 40
        E 0 82 39 40
        E 16 92 29 64
        E 0 92 35 64
        E 80 82 29 40
        E 0 82 35 40
        E 16 92 24 64
        E 0 92 30 64
        E 368 82 24 40
        E 0 82 30 40
        E 16 92 28 64
        E 0 92 34 64
        E 368 82 28 40
        E 0 82 34 40
        E 16 92 29 64
        E 0 92 30 64
        E 0 92 35 64
        E 176 82 29 40
        E 0 82 30 40
        E 0 82 35 40
        E 16 92 30 64
        E 0 92 35 64
        E 0 92 29 64
        E 128 82 30 40
        E 0 82 35 40
        E 0 82 29 40
        E 16 92 30 64
        E 0 92 35 64
        E 0 92 29 64
        E 32 82 30 40
        E 0 82 35 40
        E 0 82 29 40
        E 16 92 29 64
        E 0 92 30 64
        E 0 92 35 64
        E 176 82 29 40
        E 0 82 30 40
        E 0 82 35 40
        E 208 92 29 64
        E 0 92 35 64
        E 272 82 29 40
        E 0 82 35 40
        E 112 92 2e 64
        E 0 92 3a 64
        E 272 82 2e 40
        E 0 82 3a 40
        E 112 92 34 64
        E 0 92 28 64
        E 272 82 34 40
        E 0 82 28 40
        E 112 92 24 64
        E 0 92 30 64
        E 272 82 24 40
        E 0 82 30 40
        E 112 92 30 64
        E 0 92 24 64
        E 560 82 30 40
        E 0 82 24 40
        E 208 92 35 64
        E 0 92 29 64
        E 560 82 35 40
        E 0 82 29 40
        E 208 92 37 64
        E 0 92 2b 64
        E 176 82 37 40
        E 0 82 2b 40
        E 16 92 29 64
        E 0 92 35 64
        E 176 82 29 40
        E 0 82 35 40
        E 16 92 34 64
        E 0 92 28 64
        E 176 82 34 40
        E 0 82 28 40
        E 16 92 24 64
        E 0 92 30 64
        E 176 82 24 40
        E 0 82 30 40
        E 16 92 35 64
        E 0 92 29 64
        E 176 82 35 40
        E 0 82 29 40
        E 16 92 37 64
        E 0 92 2b 64
        E 176 82 37 40
        E 0 82 2b 40
        E 16 92 39 64
        E 0 92 2d 64
        E 176 82 39 40
        E 0 82 2d 40
        E 16 92 2e 64
        E 0 92 3a 64
        E 176 82 2e 40
        E 0 82 3a 40
        E 16 92 30 64
        E 0 92 3c 64
        E 272 82 30 40
        E 0 82 3c 40
        E 16 92 3e 64
        E 0 92 32 64
        E 80 82 3e 40
        E 0 82 32 40
        E 16 92 30 64
        E 0 92 3c 64
        E 80 82 30 40
        E 0 82 3c 40
        E 16 92 2e 64
        E 0 92 3a 64
        E 80 82 2e 40
        E 0 82 3a 40
        E 16 92 2d 64
        E 0 92 39 64
        E 80 82 2d 40
        E 0 82 39 40
        E 16 92 2b 64
        E 0 92 37 64
        E 80 82 2b 40
        E 0 82 37 40
        E 16 92 35 64
        E 0 92 29 64
        E 80 82 35 40
        E 0 82 29 40
        E 16 92 29 64
        E 0 92 35 64
        E 80 82 29 40
        E 0 82 35 40
        E 16 92 28 64
        E 0 92 34 64
        E 80 82 28 40
        E 0 82 34 40
        E 16 92 26 64
        E 0 92 32 64
        E 80 82 26 40
        E 0 82 32 40
        E 16 92 24 64
        E 0 92 30 64
        E 80 82 24 40
        E 0 82 30 40
        E 16 92 2e 64
        E 0 92 3a 64
        E 80 82 2e 40
        E 0 82 3a 40
        E 16 92 2d 64
        E 0 92 39 64
        E 80 82 2d 40
        E 0 82 39 40
        E 16 92 2b 64
        E 0 92 37 64
        E 80 82 2b 40
        E 0 82 37 40
        E 16 92 29 64
        E 0 92 35 64
        E 176 82 29 40
        E 0 82 35 40
        E 16 92 2b 64
        E 0 92 37 64
        E 176 82 2b 40
        E 0 82 37 40
        E 16 92 29 64
        E 0 92 35 64
        E 176 82 29 40
        E 0 82 35 40
        E 16 92 2e 64
        E 0 92 3a 64
        E 176 82 2e 40
        E 0 82 3a 40
        E 16 92 2d 64
        E 0 92 39 64
        E 176 82 2d 40
        E 0 82 39 40
        E 16 92 2b 64
        E 0 92 37 64
        E 176 82 2b 40
        E 0 82 37 40
        E 16 92 29 64
        E 0 92 35 64
        E 176 82 29 40
        E 0 82 35 40
        E 16 92 2b 64
        E 0 92 37 64
        E 80 82 2b 40
        E 0 82 37 40
        E 16 92 2d 64
        E 0 92 39 64
        E 80 82 2d 40
        E 0 82 39 40
        E 16 92 3c 64
        E 0 92 30 64
        E 176 82 3c 40
        E 0 82 30 40
        E 16 92 30 64
        E 0 92 3c 64
        E 80 82 30 40
        E 0 82 3c 40
        E 16 92 30 64
        E 0 92 3c 64
        E 80 82 30 40
        E 0 82 3c 40
        E 16 92 2e 64
        E 0 92 3a 64
        E 80 82 2e 40
        E 0 82 3a 40
        E 16 92 24 64
        E 0 92 30 64
        E 80 82 24 40
        E 0 82 30 40
        E 16 92 34 64
        E 0 92 28 64
        E 80 82 34 40
        E 0 82 28 40
        E 16 92 2b 64
        E 0 92 37 64
        E 80 82 2b 40
        E 0 82 37 40
        E 16 92 3a 64
        E 0 92 2e 64
        E 80 82 3a 40
        E 0 82 2e 40
        E 16 92 39 64
        E 0 92 2d 64
        E 80 82 39 40
        E 0 82 2d 40
        E 16 92 2b 64
        E 0 92 37 64
        E 80 82 2b 40
        E 0 82 37 40
        E 16 92 29 64
        E 0 92 35 64
        E 80 82 29 40
        E 0 82 35 40
        E 16 92 3a 64
        E 0 92 2e 64
        E 80 82 3a 40
        E 0 82 2e 40
        E 16 92 30 64
        E 0 92 3c 64
        E 80 82 30 40
        E 0 82 3c 40
        E 16 92 28 64
        E 0 92 34 64
        E 80 82 28 40
        E 0 82 34 40
        E 16 92 2b 64
        E 0 92 37 64
        E 80 82 2b 40
        E 0 82 37 40
        E 16 92 30 64
        E 0 92 24 64
        E 464 82 30 40
        E 0 82 24 40
        E 16 92 24 64
        E 0 92 30 64
        E 80 82 24 40
        E 0 82 30 40
        E 16 92 28 64
        E 0 92 34 64
        E 80 82 28 40
        E 0 82 34 40
        E 16 92 2b 64
        E 0 92 37 64
        E 80 82 2b 40
        E 0 82 37 40
        E 16 92 29 64
        E 0 92 35 64
        E 464 82 29 40
        E 0 82 35 40
        E 16 92 30 64
        E 0 92 3c 64
        E 80 82 30 40
        E 0 82 3c 40
        E 16 92 2d 64
        E 0 92 39 64
        E 80 82 2d 40
        E 0 82 39 40
        E 16 92 35 64
        E 0 92 29 64
        E 80 82 35 40
        E 0 82 29 40
        E 16 92 28 64
        E 0 92 34 64
        E 368 82 28 40
        E 0 82 34 40
        E 16 92 24 64
        E 0 92 30 64
        E 368 82 24 40
        E 0 82 30 40
        E 16 92 29 64
        E 0 92 35 64
        E 176 82 29 40
        E 0 82 35 40
        E 16 92 29 64
        E 0 92 35 64
        E 128 82 29 40
        E 0 82 35 40
        E 16 92 29 64
        E 0 92 35 64
        E 32 82 29 40
        E 0 82 35 40
        E 16 92 29 64
        E 0 92 35 64
        E 176 82 29 40
        E 0 82 35 40
        E 16 b0 7b 00
        GUID {44815931-6C34-CE44-A578-7DBC38CC7A90}
        IGNTEMPO 0 120 4 4
        SRCCOLOR 200
        VELLANE -1 86 6
      >
    >
    <ITEM
      POSITION 0
      SNAPOFFS 0
      LENGTH 47.5
      LOOP 1
      ALLTAKES 0
      FADEIN 1 0 0 1 0 0
      FADEOUT 1 0 0 1 0 0
      MUTE 0
      SEL 0
      YPOS 0.666667 0.166667
      IGUID {55815C20-7795-3F46-83E0-1A808DB33C54}
      IID 5
      NAME "New Track            - National_Anthems_-_United_Arab_Emirates.mid"
      VOLPAN 1 0 1 -1
      SOFFS 0 0
      PLAYRATE 1 1 0 -1 0 0.0025
      CHANMODE 0
      GUID {B21A6B79-C9B5-D14A-B9FC-E341A21DC3DF}
      <SOURCE MIDI
        HASDATA 1 192 QN
        POOLEDEVTS {E5D4F966-60BD-EC40-8562-3FA034678381}
        <X 0 0
          /wNOZXcgVHJhY2sgICAgICAgICAgIA==
        >
        E 0 9c 48 64
        E 0 9c 3c 64
        E 0 9c 45 64
        E 0 9c 41 64
        E 176 8c 48 40
        E 0 8c 3c 40
        E 0 8c 45 40
        E 0 8c 41 40
        E 16 9c 4d 64
        E 0 9c 4a 64
        E 0 9c 46 64
        E 0 9c 41 64
        E 128 8c 4d 40
        E 0 8c 4a 40
        E 0 8c 46 40
        E 0 8c 41 40
        E 16 9c 4c 64
        E 0 9c 40 64
        E 32 8c 4c 40
        E 0 8c 40 40
        E 16 9c 4d 64
        E 0 9c 45 64
        E 0 9c 48 64
        E 0 9c 41 64
        E 80 8c 45 40
        E 0 8c 48 40
        E 0 8c 41 40
        E 16 9c 46 64
        E 0 9c 43 64
        E 80 8c 4d 40
        E 0 8c 46 40
        E 0 8c 43 40
        E 16 9c 45 64
        E 0 9c 48 64
        E 0 9c 41 64
        E 80 8c 45 40
        E 0 8c 41 40
        E 16 9c 40 64
        E 0 9c 43 64
        E 80 8c 48 40
        E 0 8c 40 40
        E 0 8c 43 40
        E 16 9c 4d 64
        E 0 9c 48 64
        E 0 9c 41 64
        E 176 8c 4d 40
        E 0 8c 48 40
        E 0 8c 41 40
        E 16 9c 4f 64
        E 0 9c 43 64
        E 0 9c 48 64
        E 80 8c 4f 40
        E 0 8c 43 40
        E 16 9c 45 64
        E 0 9c 51 64
        E 80 8c 48 40
        E 0 8c 45 40
        E 0 8c 51 40
        E 16 9c 4d 64
        E 0 9c 48 64
        E 0 9c 51 64
        E 0 9c 45 64
        E 176 8c 4d 40
        E 0 8c 48 40
        E 0 8c 51 40
        E 0 8c 45 40
        E 16 9c 4f 64
        E 0 9c 48 64
        E 0 9c 43 64
        E 80 8c 4f 40
        E 0 8c 48 40
        E 0 8c 43 40
        E 16 9c 4d 64
        E 0 9c 45 64
        E 0 9c 41 64
        E 0 9c 48 64
        E 80 8c 4d 40
        E 0 8c 45 40
        E 0 8c 41 40
        E 0 8c 48 40
        E 16 9c 40 64
        E 0 9c 43 64
        E 0 9c 4c 64
        E 0 9c 48 64
        E 176 8c 40 40
        E 0 8c 43 40
        E 0 8c 4c 40
        E 0 8c 48 40
        E 16 9c 41 64
        E 0 9c 4d 64
        E 0 9c 45 64
        E 0 9c 48 64
        E 80 8c 41 40
        E 0 8c 4d 40
        E 0 8c 45 40
        E 0 8c 48 40
        E 16 9c 4f 64
        E 0 9c 43 64
        E 0 9c 4c 64
        E 0 9c 48 64
        E 80 8c 4f 40
        E 0 8c 43 40
        E 0 8c 4c 40
        E 0 8c 48 40
        E 16 9c 48 64
        E 0 9c 43 64
        E 0 9c 4f 64
        E 0 9c 4c 64
        E 368 8c 48 40
        E 0 8c 43 40
        E 0 8c 4f 40
        E 0 8c 4c 40
        E 16 9c 4c 64
        E 0 9c 46 64
        E 0 9c 4f 64
        E 0 9c 43 64
        E 176 8c 4c 40
        E 0 8c 46 40
        E 0 8c 4f 40
        E 0 8c 43 40
        E 16 9c 46 64
        E 0 9c 4c 64
        E 0 9c 43 64
        E 0 9c 4f 64
        E 128 8c 46 40
        E 0 8c 4c 40
        E 0 8c 43 40
        E 0 8c 4f 40
        E 16 9c 46 64
        E 0 9c 43 64
        E 0 9c 4c 64
        E 0 9c 4f 64
        E 32 8c 46 40
        E 0 8c 43 40
        E 0 8c 4c 40
        E 0 8c 4f 40
        E 16 9c 46 64
        E 0 9c 43 64
        E 0 9c 4f 64
        E 0 9c 4c 64
        E 176 8c 46 40
        E 0 8c 43 40
        E 0 8c 4f 40
        E 0 8c 4c 40
        E 16 9c 3c 64
        E 0 9c 48 64
        E 0 9c 40 64
        E 176 8c 3c 40
        E 0 8c 48 40
        E 0 8c 40 40
        E 16 9c 48 64
        E 0 9c 43 64
        E 0 9c 4f 64
        E 0 9c 4c 64
        E 128 8c 48 40
        E 0 8c 43 40
        E 0 8c 4f 40
        E 0 8c 4c 40
        E 16 9c 42 64
        E 0 9c 4e 64
        E 32 8c 42 40
        E 0 8c 4e 40
        E 16 9c 43 64
        E 0 9c 4f 64
        E 80 8c 43 40
        E 0 8c 4f 40
        E 16 9c 45 64
        E 0 9c 51 64
        E 80 8c 45 40
        E 0 8c 51 40
        E 16 9c 46 64
        E 0 9c 52 64
        E 0 9c 4c 64
        E 0 9c 4f 64
        E 176 8c 46 40
        E 0 8c 52 40
        E 0 8c 4c 40
        E 0 8c 4f 40
        E 16 9c 4c 64
        E 0 9c 43 64
        E 0 9c 48 64
        E 0 9c 4f 64
        E 176 8c 4c 40
        E 0 8c 43 40
        E 0 8c 48 40
        E 0 8c 4f 40
        E 16 9c 45 64
        E 0 9c 51 64
        E 0 9c 4d 64
        E 128 8c 45 40
        E 0 8c 51 40
        E 0 8c 4d 40
        E 16 9c 4c 64
        E 0 9c 43 64
        E 0 9c 4f 64
        E 32 8c 4c 40
        E 0 8c 43 40
        E 0 8c 4f 40
        E 16 9c 45 64
        E 0 9c 4d 64
        E 0 9c 51 64
        E 80 8c 45 40
        E 0 8c 4d 40
        E 0 8c 51 40
        E 16 9c 46 64
        E 0 9c 52 64
        E 0 9c 4f 64
        E 80 8c 46 40
        E 0 8c 52 40
        E 0 8c 4f 40
        E 16 9c 48 64
        E 0 9c 51 64
        E 0 9c 54 64
        E 176 8c 48 40
        E 0 8c 51 40
        E 0 8c 54 40
        E 16 9c 4d 64
        E 0 9c 41 64
        E 0 9c 45 64
        E 176 8c 4d 40
        E 0 8c 41 40
        E 0 8c 45 40
        E 16 9c 43 64
        E 0 9c 4c 64
        E 0 9c 46 64
        E 0 9c 4f 64
        E 176 8c 43 40
        E 0 8c 4c 40
        E 0 8c 46 40
        E 0 8c 4f 40
        E 16 9c 46 64
        E 0 9c 52 64
        E 0 9c 4a 64
        E 176 8c 46 40
        E 0 8c 52 40
        E 0 8c 4a 40
        E 16 9c 45 64
        E 0 9c 51 64
        E 0 9c 48 64
        E 128 8c 45 40
        E 0 8c 51 40
        E 0 8c 48 40
        E 16 9c 4f 64
        E 0 9c 43 64
        E 32 8c 4f 40
        E 0 8c 43 40
        E 16 9c 46 64
        E 0 9c 4a 64
        E 0 9c 3e 64
        E 80 8c 46 40
        E 0 8c 4a 40
        E 0 8c 3e 40
        E 16 9c 40 64
        E 0 9c 46 64
        E 0 9c 4c 64
        E 80 8c 40 40
        E 0 8c 46 40
        E 0 8c 4c 40
        E 16 9c 41 64
        E 0 9c 45 64
        E 0 9c 4d 64
        E 0 9c 48 64
        E 176 8c 41 40
        E 0 8c 45 40
        E 0 8c 4d 40
        E 0 8c 48 40
        E 16 9c 45 64
        E 0 9c 41 64
        E 0 9c 4d 64
        E 0 9c 48 64
        E 128 8c 45 40
        E 0 8c 41 40
        E 0 8c 4d 40
        E 0 8c 48 40
        E 16 9c 41 64
        E 0 9c 45 64
        E 0 9c 4d 64
        E 0 9c 48 64
        E 32 8c 41 40
        E 0 8c 45 40
        E 0 8c 4d 40
        E 0 8c 48 40
        E 16 9c 41 64
        E 0 9c 4d 64
        E 0 9c 48 64
        E 0 9c 45 64
        E 176 8c 41 40
        E 0 8c 4d 40
        E 0 8c 48 40
        E 0 8c 45 40
        E 208 9c 41 64
        E 0 9c 4d 64
        E 176 8c 41 40
        E 0 8c 4d 40
        E 16 9c 4d 64
        E 0 9c 41 64
        E 128 8c 4d 40
        E 0 8c 41 40
        E 16 9c 40 64
        E 0 9c 4c 64
        E 32 8c 40 40
        E 0 8c 4c 40
        E 16 9c 3e 64
        E 0 9c 4a 64
        E 176 8c 3e 40
        E 0 8c 4a 40
        E 16 9c 4a 64
        E 0 9c 3e 64
        E 128 8c 4a 40
        E 0 8c 3e 40
        E 16 9c 48 64
        E 0 9c 3c 64
        E 32 8c 48 40
        E 0 8c 3c 40
        E 16 9c 3a 64
        E 0 9c 46 64
        E 176 8c 3a 40
        E 0 8c 46 40
        E 16 9c 3a 64
        E 0 9c 46 64
        E 128 8c 3a 40
        E 0 8c 46 40
        E 16 9c 45 64
        E 0 9c 39 64
        E 32 8c 45 40
        E 0 8c 39 40
        E 16 9c 37 64
        E 0 9c 43 64
        E 80 8c 37 40
        E 0 8c 43 40
        E 16 9c 41 64
        E 32 8c 41 40
        E 16 9c 43 64
        E 32 8c 43 40
        E 16 9c 45 64
        E 32 8c 45 40
        E 16 9c 46 64
        E 32 8c 46 40
        E 16 9c 48 64
        E 32 8c 48 40
        E 16 9c 4a 64
        E 32 8c 4a 40
        E 16 9c 40 64
        E 0 9c 43 64
        E 0 9c 4c 64
        E 176 8c 40 40
        E 0 8c 43 40
        E 0 8c 4c 40
        E 16 9c 4c 64
        E 0 9c 40 64
        E 128 8c 4c 40
        E 0 8c 40 40
        E 16 9c 3e 64
        E 0 9c 4a 64
        E 32 8c 3e 40
        E 0 8c 4a 40
        E 16 9c 3c 64
        E 0 9c 40 64
        E 0 9c 48 64
        E 176 8c 3c 40
        E 0 8c 40 40
        E 0 8c 48 40
        E 16 9c 48 64
        E 0 9c 40 64
        E 0 9c 3c 64
        E 128 8c 48 40
        E 0 8c 40 40
        E 0 8c 3c 40
        E 16 9c 46 64
        E 0 9c 3a 64
        E 0 9c 3e 64
        E 32 8c 46 40
        E 0 8c 3a 40
        E 0 8c 3e 40
        E 16 9c 39 64
        E 0 9c 3c 64
        E 0 9c 45 64
        E 176 8c 39 40
        E 0 8c 3c 40
        E 0 8c 45 40
        E 16 9c 45 64
        E 0 9c 3c 64
        E 0 9c 39 64
        E 128 8c 45 40
        E 0 8c 3c 40
        E 0 8c 39 40
        E 16 9c 3a 64
        E 0 9c 37 64
        E 0 9c 43 64
        E 32 8c 3a 40
        E 0 8c 37 40
        E 0 8c 43 40
        E 16 9c 39 64
        E 0 9c 41 64
        E 320 8c 39 40
        E 0 8c 41 40
        E 16 9c 4d 64
        E 0 9c 41 64
        E 32 8c 4d 40
        E 0 8c 41 40
        E 16 9c 4f 64
        E 0 9c 43 64
        E 0 9c 48 64
        E 176 8c 4f 40
        E 0 8c 43 40
        E 0 8c 48 40
        E 16 9c 51 64
        E 0 9c 45 64
        E 0 9c 48 64
        E 176 8c 51 40
        E 0 8c 45 40
        E 0 8c 48 40
        E 16 9c 46 64
        E 0 9c 4f 64
        E 0 9c 52 64
        E 0 9c 4c 64
        E 176 8c 46 40
        E 0 8c 4f 40
        E 0 8c 52 40
        E 0 8c 4c 40
        E 16 9c 4c 64
        E 0 9c 43 64
        E 0 9c 4f 64
        E 176 8c 4c 40
        E 0 8c 43 40
        E 0 8c 4f 40
        E 16 9c 4d 64
        E 0 9c 45 64
        E 0 9c 51 64
        E 176 8c 4d 40
        E 0 8c 45 40
        E 0 8c 51 40
        E 16 9c 46 64
        E 0 9c 52 64
        E 0 9c 4f 64
        E 176 8c 46 40
        E 0 8c 52 40
        E 0 8c 4f 40
        E 16 9c 51 64
        E 0 9c 48 64
        E 0 9c 54 64
        E 176 8c 51 40
        E 0 8c 48 40
        E 0 8c 54 40
        E 16 9c 52 64
        E 0 9c 4a 64
        E 0 9c 56 64
        E 176 8c 52 40
        E 0 8c 4a 40
        E 0 8c 56 40
        E 16 9c 4c 64
        E 0 9c 40 64
        E 0 9c 46 64
        E 80 8c 4c 40
        E 0 8c 40 40
        E 0 8c 46 40
        E 16 9c 48 64
        E 0 9c 3c 64
        E 80 8c 48 40
        E 0 8c 3c 40
        E 16 9c 4a 64
        E 0 9c 3e 64
        E 80 8c 4a 40
        E 0 8c 3e 40
        E 16 9c 4d 64
        E 0 9c 41 64
        E 80 8c 4d 40
        E 0 8c 41 40
        E 16 9c 40 64
        E 0 9c 4c 64
        E 80 8c 40 40
        E 0 8c 4c 40
        E 16 9c 48 64
        E 0 9c 3c 64
        E 80 8c 48 40
        E 0 8c 3c 40
        E 16 9c 4a 64
        E 0 9c 3e 64
        E 80 8c 4a 40
        E 0 8c 3e 40
        E 16 9c 4c 64
        E 0 9c 40 64
        E 80 8c 4c 40
        E 0 8c 40 40
        E 16 9c 4d 64
        E 0 9c 45 64
        E 0 9c 41 64
        E 80 8c 4d 40
        E 0 8c 45 40
        E 0 8c 41 40
        E 16 9c 41 64
        E 0 9c 4d 64
        E 32 8c 41 40
        E 0 8c 4d 40
        E 16 9c 41 64
        E 0 9c 4d 64
        E 32 8c 41 40
        E 0 8c 4d 40
        E 16 9c 41 64
        E 0 9c 4d 64
        E 80 8c 41 40
        E 0 8c 4d 40
        E 16 9c 4d 64
        E 0 9c 41 64
        E 80 8c 4d 40
        E 0 8c 41 40
        E 16 9c 41 64
        E 0 9c 4d 64
        E 80 8c 41 40
        E 0 8c 4d 40
        E 16 9c 41 64
        E 0 9c 4d 64
        E 80 8c 41 40
        E 0 8c 4d 40
        E 16 9c 41 64
        E 0 9c 4d 64
        E 80 8c 41 40
        E 0 8c 4d 40
        E 16 9c 4d 64
        E 0 9c 41 64
        E 80 8c 4d 40
        E 0 8c 41 40
        E 16 9c 3c 64
        E 0 9c 48 64
        E 0 9c 41 64
        E 0 9c 45 64
        E 176 8c 3c 40
        E 0 8c 48 40
        E 0 8c 41 40
        E 0 8c 45 40
        E 16 9c 41 64
        E 0 9c 4d 64
        E 0 9c 4a 64
        E 128 8c 41 40
        E 0 8c 4d 40
        E 0 8c 4a 40
        E 16 9c 40 64
        E 0 9c 4c 64
        E 32 8c 40 40
        E 0 8c 4c 40
        E 16 9c 41 64
        E 0 9c 4d 64
        E 0 9c 48 64
        E 80 8c 48 40
        E 16 9c 46 64
        E 80 8c 41 40
        E 0 8c 4d 40
        E 0 8c 46 40
        E 16 9c 3c 64
        E 0 9c 48 64
        E 0 9c 45 64
        E 80 8c 45 40
        E 16 9c 43 64
        E 80 8c 3c 40
        E 0 8c 48 40
        E 0 8c 43 40
        E 16 9c 4d 64
        E 0 9c 48 64
        E 0 9c 41 64
        E 176 8c 4d 40
        E 0 8c 48 40
        E 0 8c 41 40
        E 16 9c 4f 64
        E 0 9c 43 64
        E 0 9c 48 64
        E 80 8c 4f 40
        E 0 8c 43 40
        E 0 8c 48 40
        E 16 9c 45 64
        E 0 9c 51 64
        E 0 9c 48 64
        E 80 8c 45 40
        E 0 8c 51 40
        E 0 8c 48 40
        E 16 9c 48 64
        E 0 9c 51 64
        E 0 9c 45 64
        E 176 8c 48 40
        E 0 8c 51 40
        E 0 8c 45 40
        E 16 9c 4f 64
        E 0 9c 43 64
        E 0 9c 48 64
        E 80 8c 4f 40
        E 0 8c 43 40
        E 0 8c 48 40
        E 16 9c 41 64
        E 0 9c 4d 64
        E 80 8c 41 40
        E 0 8c 4d 40
        E 16 9c 40 64
        E 0 9c 48 64
        E 0 9c 4c 64
        E 176 8c 40 40
        E 0 8c 48 40
        E 0 8c 4c 40
        E 16 9c 4d 64
        E 0 9c 41 64
        E 0 9c 48 64
        E 80 8c 4d 40
        E 0 8c 41 40
        E 0 8c 48 40
        E 16 9c 4f 64
        E 0 9c 43 64
        E 0 9c 48 64
        E 80 8c 4f 40
        E 0 8c 43 40
        E 0 8c 48 40
        E 16 9c 4c 64
        E 0 9c 43 64
        E 0 9c 4f 64
        E 368 8c 4c 40
        E 0 8c 43 40
        E 0 8c 4f 40
        E 16 9c 4f 64
        E 0 9c 43 64
        E 0 9c 46 64
        E 176 8c 4f 40
        E 0 8c 43 40
        E 0 8c 46 40
        E 16 9c 43 64
        E 0 9c 46 64
        E 0 9c 4f 64
        E 128 8c 43 40
        E 0 8c 46 40
        E 0 8c 4f 40
        E 16 9c 43 64
        E 0 9c 4f 64
        E 32 8c 43 40
        E 0 8c 4f 40
        E 16 9c 43 64
        E 0 9c 4f 64
        E 176 8c 43 40
        E 0 8c 4f 40
        E 16 9c 3c 64
        E 0 9c 48 64
        E 176 8c 3c 40
        E 0 8c 48 40
        E 16 9c 43 64
        E 0 9c 4f 64
        E 0 9c 4c 64
        E 0 9c 48 64
        E 128 8c 43 40
        E 0 8c 4f 40
        E 0 8c 4c 40
        E 0 8c 48 40
        E 16 9c 42 64
        E 0 9c 4e 64
        E 32 8c 42 40
        E 0 8c 4e 40
        E 16 9c 43 64
        E 0 9c 4f 64
        E 80 8c 43 40
        E 0 8c 4f 40
        E 16 9c 51 64
        E 0 9c 45 64
        E 80 8c 51 40
        E 0 8c 45 40
        E 16 9c 46 64
        E 0 9c 4f 64
        E 0 9c 52 64
        E 176 8c 46 40
        E 0 8c 4f 40
        E 0 8c 52 40
        E 16 9c 43 64
        E 0 9c 4c 64
        E 0 9c 4f 64
        E 0 9c 48 64
        E 176 8c 43 40
        E 0 8c 4c 40
        E 0 8c 4f 40
        E 0 8c 48 40
        E 16 9c 45 64
        E 0 9c 51 64
        E 0 9c 4d 64
        E 128 8c 45 40
        E 0 8c 51 40
        E 0 8c 4d 40
        E 16 9c 43 64
        E 0 9c 4f 64
        E 32 8c 43 40
        E 0 8c 4f 40
        E 16 9c 45 64
        E 0 9c 51 64
        E 80 8c 45 40
        E 0 8c 51 40
        E 16 9c 52 64
        E 0 9c 46 64
        E 80 8c 52 40
        E 0 8c 46 40
        E 16 9c 48 64
        E 0 9c 54 64
        E 176 8c 48 40
        E 0 8c 54 40
        E 16 9c 41 64
        E 0 9c 4d 64
        E 0 9c 48 64
        E 176 8c 41 40
        E 0 8c 4d 40
        E 0 8c 48 40
        E 16 9c 43 64
        E 0 9c 46 64
        E 0 9c 4f 64
        E 176 8c 43 40
        E 0 8c 46 40
        E 0 8c 4f 40
        E 16 9c 46 64
        E 0 9c 52 64
        E 0 9c 4f 64
        E 176 8c 46 40
        E 0 8c 52 40
        E 0 8c 4f 40
        E 16 9c 51 64
        E 0 9c 45 64
        E 0 9c 4d 64
        E 80 8c 51 40
        E 0 8c 45 40
        E 0 8c 4d 40
        E 16 9c 4f 64
        E 0 9c 43 64
        E 80 8c 4f 40
        E 0 8c 43 40
        E 16 9c 3e 64
        E 0 9c 4a 64
        E 0 9c 41 64
        E 80 8c 3e 40
        E 0 8c 4a 40
        E 0 8c 41 40
        E 16 9c 40 64
        E 0 9c 4c 64
        E 0 9c 43 64
        E 80 8c 40 40
        E 0 8c 4c 40
        E 0 8c 43 40
        E 16 9c 4d 64
        E 0 9c 45 64
        E 0 9c 41 64
        E 176 8c 4d 40
        E 0 8c 45 40
        E 0 8c 41 40
        E 16 9c 4d 64
        E 0 9c 41 64
        E 0 9c 45 64
        E 128 8c 4d 40
        E 0 8c 41 40
        E 0 8c 45 40
        E 16 9c 45 64
        E 0 9c 4d 64
        E 0 9c 41 64
        E 32 8c 45 40
        E 0 8c 4d 40
        E 0 8c 41 40
        E 16 9c 45 64
        E 0 9c 41 64
        E 0 9c 4d 64
        E 176 8c 45 40
        E 0 8c 41 40
        E 0 8c 4d 40
        E 16 b0 7b 00
        GUID {A7A9874C-E794-DF41-A75A-DEAF6A2E05CA}
        IGNTEMPO 0 120 4 4
        SRCCOLOR 203
        VELLANE -1 86 6
      >
    >
    <ITEM
      POSITION 0
      SNAPOFFS 0
      LENGTH 47.5
      LOOP 1
      ALLTAKES 0
      FADEIN 1 0 0 1 0 0
      FADEOUT 1 0 0 1 0 0
      MUTE 0
      SEL 0
      YPOS 0.833333 0.166667
      IGUID {1027200B-11C6-484C-AA27-1A3070B9CD21}
      IID 6
      NAME "New Track            - National_Anthems_-_United_Arab_Emirates.mid"
      VOLPAN 1 0 1 -1
      SOFFS 0 0
      PLAYRATE 1 1 0 -1 0 0.0025
      CHANMODE 0
      GUID {30007347-3440-BA46-949A-7F42065305DB}
      <SOURCE MIDI
        HASDATA 1 192 QN
        POOLEDEVTS {0DD28A78-F2F5-094A-890D-E8D0F8DE7411}
        <X 0 0
          /wNOZXcgVHJhY2sgICAgICAgICAgIA==
        >
        E 0 9d 35 64
        E 0 9d 29 64
        E 560 8d 35 40
        E 0 8d 29 40
        E 16 9d 3a 64
        E 0 9d 2e 64
        E 176 8d 3a 40
        E 0 8d 2e 40
        E 16 9d 2d 64
        E 0 9d 39 64
        E 176 8d 2d 40
        E 0 8d 39 40
        E 16 9d 2b 64
        E 0 9d 37 64
        E 176 8d 2b 40
        E 0 8d 37 40
        E 16 9d 29 64
        E 0 9d 35 64
        E 176 8d 29 40
        E 0 8d 35 40
        E 16 9d 37 64
        E 0 9d 2b 64
        E 80 8d 37 40
        E 0 8d 2b 40
        E 16 9d 24 64
        E 0 9d 30 64
        E 80 8d 24 40
        E 0 8d 30 40
        E 16 9d 24 64
        E 0 9d 30 64
        E 368 8d 24 40
        E 0 8d 30 40
        E 16 9d 3c 64
        E 0 9d 30 64
        E 80 8d 3c 40
        E 0 8d 30 40
        E 16 9d 3c 64
        E 0 9d 30 64
        E 16 8d 3c 40
        E 0 8d 30 40
        E 16 9d 3c 64
        E 0 9d 30 64
        E 16 8d 3c 40
        E 0 8d 30 40
        E 16 9d 3c 64
        E 0 9d 30 64
        E 16 8d 3c 40
        E 0 8d 30 40
        E 16 9d 30 64
        E 0 9d 3c 64
        E 80 8d 30 40
        E 0 8d 3c 40
        E 16 9d 30 64
        E 0 9d 3c 64
        E 80 8d 30 40
        E 0 8d 3c 40
        E 16 9d 28 64
        E 0 9d 34 64
        E 176 8d 28 40
        E 0 8d 34 40
        E 16 9d 30 64
        E 0 9d 24 64
        E 176 8d 30 40
        E 0 8d 24 40
        E 16 9d 2e 64
        E 0 9d 3a 64
        E 80 8d 2e 40
        E 0 8d 3a 40
        E 16 9d 30 64
        E 0 9d 3c 64
        E 80 8d 30 40
        E 0 8d 3c 40
        E 16 9d 28 64
        E 0 9d 34 64
        E 80 8d 28 40
        E 0 8d 34 40
        E 16 9d 2b 64
        E 0 9d 37 64
        E 80 8d 2b 40
        E 0 8d 37 40
        E 16 9d 24 64
        E 0 9d 30 64
        E 464 8d 24 40
        E 0 8d 30 40
        E 16 9d 24 64
        E 0 9d 30 64
        E 80 8d 24 40
        E 0 8d 30 40
        E 16 9d 28 64
        E 0 9d 34 64
        E 80 8d 28 40
        E 0 8d 34 40
        E 16 9d 37 64
        E 0 9d 2b 64
        E 80 8d 37 40
        E 0 8d 2b 40
        E 16 9d 29 64
        E 0 9d 35 64
        E 464 8d 29 40
        E 0 8d 35 40
        E 16 9d 30 64
        E 0 9d 3c 64
        E 80 8d 30 40
        E 0 8d 3c 40
        E 16 9d 2d 64
        E 0 9d 39 64
        E 80 8d 2d 40
        E 0 8d 39 40
        E 16 9d 29 64
        E 0 9d 35 64
        E 80 8d 29 40
        E 0 8d 35 40
        E 16 9d 24 64
        E 0 9d 30 64
        E 368 8d 24 40
        E 0 8d 30 40
        E 16 9d 28 64
        E 0 9d 34 64
        E 368 8d 28 40
        E 0 8d 34 40
        E 16 9d 29 64
        E 0 9d 30 64
        E 0 9d 35 64
        E 176 8d 29 40
        E 0 8d 30 40
        E 0 8d 35 40
        E 16 9d 30 64
        E 0 9d 35 64
        E 0 9d 29 64
        E 128 8d 30 40
        E 0 8d 35 40
        E 0 8d 29 40
        E 16 9d 30 64
        E 0 9d 35 64
        E 0 9d 29 64
        E 32 8d 30 40
        E 0 8d 35 40
        E 0 8d 29 40
        E 16 9d 29 64
        E 0 9d 30 64
        E 0 9d 35 64
        E 176 8d 29 40
        E 0 8d 30 40
        E 0 8d 35 40
        E 208 9d 29 64
        E 0 9d 35 64
        E 272 8d 29 40
        E 0 8d 35 40
        E 112 9d 2e 64
        E 0 9d 3a 64
        E 272 8d 2e 40
        E 0 8d 3a 40
        E 112 9d 34 64
        E 0 9d 28 64
        E 272 8d 34 40
        E 0 8d 28 40
        E 112 9d 24 64
        E 0 9d 30 64
        E 272 8d 24 40
        E 0 8d 30 40
        E 112 9d 30 64
        E 0 9d 24 64
        E 560 8d 30 40
        E 0 8d 24 40
        E 208 9d 35 64
        E 0 9d 29 64
        E 560 8d 35 40
        E 0 8d 29 40
        E 208 9d 37 64
        E 0 9d 2b 64
        E 176 8d 37 40
        E 0 8d 2b 40
        E 16 9d 29 64
        E 0 9d 35 64
        E 176 8d 29 40
        E 0 8d 35 40
        E 16 9d 34 64
        E 0 9d 28 64
        E 176 8d 34 40
        E 0 8d 28 40
        E 16 9d 24 64
        E 0 9d 30 64
        E 176 8d 24 40
        E 0 8d 30 40
        E 16 9d 35 64
        E 0 9d 29 64
        E 176 8d 35 40
        E 0 8d 29 40
        E 16 9d 37 64
        E 0 9d 2b 64
        E 176 8d 37 40
        E 0 8d 2b 40
        E 16 9d 39 64
        E 0 9d 2d 64
        E 176 8d 39 40
        E 0 8d 2d 40
        E 16 9d 2e 64
        E 0 9d 3a 64
        E 176 8d 2e 40
        E 0 8d 3a 40
        E 16 9d 30 64
        E 0 9d 3c 64
        E 272 8d 30 40
        E 0 8d 3c 40
        E 16 9d 3e 64
        E 0 9d 32 64
        E 80 8d 3e 40
        E 0 8d 32 40
        E 16 9d 30 64
        E 0 9d 3c 64
        E 80 8d 30 40
        E 0 8d 3c 40
        E 16 9d 2e 64
        E 0 9d 3a 64
        E 80 8d 2e 40
        E 0 8d 3a 40
        E 16 9d 2d 64
        E 0 9d 39 64
        E 80 8d 2d 40
        E 0 8d 39 40
        E 16 9d 2b 64
        E 0 9d 37 64
        E 80 8d 2b 40
        E 0 8d 37 40
        E 16 9d 35 64
        E 0 9d 29 64
        E 80 8d 35 40
        E 0 8d 29 40
        E 16 9d 29 64
        E 0 9d 35 64
        E 80 8d 29 40
        E 0 8d 35 40
        E 16 9d 28 64
        E 0 9d 34 64
        E 80 8d 28 40
        E 0 8d 34 40
        E 16 9d 26 64
        E 0 9d 32 64
        E 80 8d 26 40
        E 0 8d 32 40
        E 16 9d 24 64
        E 0 9d 30 64
        E 80 8d 24 40
        E 0 8d 30 40
        E 16 9d 2e 64
        E 0 9d 3a 64
        E 80 8d 2e 40
        E 0 8d 3a 40
        E 16 9d 2d 64
        E 0 9d 39 64
        E 80 8d 2d 40
        E 0 8d 39 40
        E 16 9d 2b 64
        E 0 9d 37 64
        E 80 8d 2b 40
        E 0 8d 37 40
        E 16 9d 29 64
        E 0 9d 35 64
        E 176 8d 29 40
        E 0 8d 35 40
        E 16 9d 2b 64
        E 0 9d 37 64
        E 176 8d 2b 40
        E 0 8d 37 40
        E 16 9d 29 64
        E 0 9d 35 64
        E 176 8d 29 40
        E 0 8d 35 40
        E 16 9d 2e 64
        E 0 9d 3a 64
        E 176 8d 2e 40
        E 0 8d 3a 40
        E 16 9d 2d 64
        E 0 9d 39 64
        E 176 8d 2d 40
        E 0 8d 39 40
        E 16 9d 2b 64
        E 0 9d 37 64
        E 176 8d 2b 40
        E 0 8d 37 40
        E 16 9d 29 64
        E 0 9d 35 64
        E 176 8d 29 40
        E 0 8d 35 40
        E 16 9d 2b 64
        E 0 9d 37 64
        E 80 8d 2b 40
        E 0 8d 37 40
        E 16 9d 2d 64
        E 0 9d 39 64
        E 80 8d 2d 40
        E 0 8d 39 40
        E 16 9d 3c 64
        E 0 9d 30 64
        E 176 8d 3c 40
        E 0 8d 30 40
        E 16 9d 30 64
        E 0 9d 3c 64
        E 80 8d 30 40
        E 0 8d 3c 40
        E 16 9d 30 64
        E 0 9d 3c 64
        E 80 8d 30 40
        E 0 8d 3c 40
        E 16 9d 2e 64
        E 0 9d 3a 64
        E 80 8d 2e 40
        E 0 8d 3a 40
        E 16 9d 24 64
        E 0 9d 30 64
        E 80 8d 24 40
        E 0 8d 30 40
        E 16 9d 34 64
        E 0 9d 28 64
        E 80 8d 34 40
        E 0 8d 28 40
        E 16 9d 2b 64
        E 0 9d 37 64
        E 80 8d 2b 40
        E 0 8d 37 40
        E 16 9d 3a 64
        E 0 9d 2e 64
        E 80 8d 3a 40
        E 0 8d 2e 40
        E 16 9d 39 64
        E 0 9d 2d 64
        E 80 8d 39 40
        E 0 8d 2d 40
        E 16 9d 2b 64
        E 0 9d 37 64
        E 80 8d 2b 40
        E 0 8d 37 40
        E 16 9d 29 64
        E 0 9d 35 64
        E 80 8d 29 40
        E 0 8d 35 40
        E 16 9d 3a 64
        E 0 9d 2e 64
        E 80 8d 3a 40
        E 0 8d 2e 40
        E 16 9d 30 64
        E 0 9d 3c 64
        E 80 8d 30 40
        E 0 8d 3c 40
        E 16 9d 28 64
        E 0 9d 34 64
        E 80 8d 28 40
        E 0 8d 34 40
        E 16 9d 2b 64
        E 0 9d 37 64
        E 80 8d 2b 40
        E 0 8d 37 40
        E 16 9d 30 64
        E 0 9d 24 64
        E 464 8d 30 40
        E 0 8d 24 40
        E 16 9d 24 64
        E 0 9d 30 64
        E 80 8d 24 40
        E 0 8d 30 40
        E 16 9d 28 64
        E 0 9d 34 64
        E 80 8d 28 40
        E 0 8d 34 40
        E 16 9d 2b 64
        E 0 9d 37 64
        E 80 8d 2b 40
        E 0 8d 37 40
        E 16 9d 29 64
        E 0 9d 35 64
        E 464 8d 29 40
        E 0 8d 35 40
        E 16 9d 30 64
        E 0 9d 3c 64
        E 80 8d 30 40
        E 0 8d 3c 40
        E 16 9d 2d 64
        E 0 9d 39 64
        E 80 8d 2d 40
        E 0 8d 39 40
        E 16 9d 35 64
        E 0 9d 29 64
        E 80 8d 35 40
        E 0 8d 29 40
        E 16 9d 28 64
        E 0 9d 34 64
        E 368 8d 28 40
        E 0 8d 34 40
        E 16 9d 24 64
        E 0 9d 30 64
        E 368 8d 24 40
        E 0 8d 30 40
        E 16 9d 29 64
        E 0 9d 35 64
        E 176 8d 29 40
        E 0 8d 35 40
        E 16 9d 29 64
        E 0 9d 35 64
        E 128 8d 29 40
        E 0 8d 35 40
        E 16 9d 29 64
        E 0 9d 35 64
        E 32 8d 29 40
        E 0 8d 35 40
        E 16 9d 29 64
        E 0 9d 35 64
        E 176 8d 29 40
        E 0 8d 35 40
        E 16 b0 7b 00
        GUID {9DB25ADF-2CCE-E043-9573-0136CCEAFC8F}
        IGNTEMPO 0 120 4 4
        SRCCOLOR 204
        VELLANE -1 86 6
        CFGEDITVIEW 9364.427665 755.447688 64 12 0 0 0 0 0
        KEYSNAP 0 3 102304056070 0 "Natural minor"
        TRACKSEL 252 0 0 ""
        EVTFILTER 0 -1 -1 -1 -1 0 0 0 0 -1 -1 -1 -1 0 -1 0 -1 -1
        CFGEDIT 1 0 0 0 0 0 1 0 1 1 1 0.25 285 20 1280 633 0 0 2 3 0 0 0 0 0 0.5 0 0 1 64
      >
    >
  >
  <TRACK {F23F8223-271A-294D-A229-F474D58B7A97}
    NAME "vst Gladiator"
    PEAKCOL 27222112
    BEAT -1
    AUTOMODE 0
    VOLPAN 1 0 -1 -1 1
    MUTESOLO 0 0 0
    IPHASE 0
    ISBUS 0 0
    BUSCOMP 2 0
    SHOWINMIX 1 0.6667 0.377358 1 0.5 -1 -1 -1
    FREEMODE 0
    SEL 1
    REC 0 0 0 0 0 0 0
    VU 2
    TRACKHEIGHT 121 0
    INQ 0 0 0 0.5 100 0 0 100
    NCHAN 2
    FX 1
    TRACKID {F23F8223-271A-294D-A229-F474D58B7A97}
    PERF 0
    MIDIOUT -1
    MAINSEND 1 0
    <FXCHAIN
      SHOW 0
      LASTSEL 0
      DOCKED 0
      BYPASS 0 0 0
      <VST "VSTi: Gladiator (Tone2.com)" Gladiator.vst 0 ""
        TEcyVO5e7f4AAAAAAgAAAAEAAAAAAAAAAgAAAAAAAABaBAAAAQAAAAAAEABDY25LAAAAYEZ4Q2sAAAABVDJHTAAAAAEAAAEHSW5pdAAAAAAAAAAAAAAAAAAAAAAAAAAA
        AAAAAD3MzM08zMzNPDQ5WD24UfQ9edsjP4AAADvEm6Y9vnbJP4AAADvEm6YAAAAAPqZmZj49cKQ/gAAAPwAAAD8AAAA/AAAAAAAAAD1987Y90OVgPLxqfz9FHrgAAAAA
        P4AAADw0OVg9kWhzPvXCjztEm6Y9uFHoPr1wpD49cKQ/gAAAPuj1wz8AAAA/AAAAAAAAAAAAAAA/AAAAPwAAAD8AAAA+2ZmaPwAAAAAAAAA75WBCPiPXCgAAAAA+TbXE
        O0Sbpj9PXCg9TMzMPyev4T7XCe4AAAAAPWFHsD8o9cI+j1woAAAAAD8AAAA/AAAAAAAAAAAAAAA/AAAAAAAAAAAAAAA/gAAAP4AAAAAAAAA/BmaYPwAAAD8AAAA/AAAA
        PwAAAAAAAAA/AAAAPwAAAD8AAAAAAAAAPwAAAD8AAAA/AAAAAAAAADqDEm8/UKPXAAAAAD+AAAAAAAAAOoMSbz8AAAAAAAAAAAAAAAAAAAA/AAAAAAAAAD+AAAAAAAAA
        P4AAAAAAAAA/AAAAPwAAAD8AAAA/AAAAPwAAAD8AAAA/AAAAPwAAAD8AAAA/AAAAPwAAAD8R64Y8o9cKOoMSbzxEm6YAAAAAAAAAAAAAAAA8vGp/AAAAAAAAAAAAAAAA
        AAAAAAAAAAAAAAAAAAAAAAAAAAAAAAAAAAAAAAAAAAAAAAAAAAAAAAAAAAAAAAAAAAAAADwTdLwAAAAAPDQ5WAAAAAA8E3S8AAAAADw0OVgAAAAAPBN0vAAAAAA8NDlY
        AAAAADwTdLwAAAAAPDQ5WAAAAAA8ZWBCPYcrAjxlYEI7AxJvPYk3TDsDEm88tDlYPItDljyTdLw9VP30PReNUDzMzM0+gAAAP3LCNT8AAAA/Uae5PzCNPj8csI0AAAAA
        OwMSbzqDEm8AAAAAAAAAAAAAAAA/AAAAOoMSbztEm6Y/gAAAAAAAAD+AAAAAAAAAP4AAAAAAAAAAAAAAAAAAAAAAAAA/gAAAAAAAAD8AAAAAAAAAPwAAAD8AAAA/AAAA
        P4AAAD8AAAA/AAAAPwAAAD+AAAA/gAAAAAAAAAAAAAAAAAAAPwAAAD+AAAA/AAAAAAAAAD69cKQAAAAAAAAAAD+AAAA/gAAAPyPXCj+AAAAAAAAAAAAAAD+AAAA/AAAA
        AAAAAAAAAAAAAAAAAAAAAAAAAAAAAAAAAAAAAAAAAAAAAAAAAAAAAAAAAAAAAAAAPwAAAD8AAAA/AAAAPwAAAD8AAAA/AAAAAAAAAAAAAAA/gAAAAAAAAAAAAAAAAAAA
        AAAAAAAAAAAAAAAAAAAAAAAAAAAAAAAAAAAAAAAAAAAAAAAAAAAAAAAAAAAAAAAAAAAAAAAAAAAAAAAAAAAAAAAAAAAAAAAAAAAAAAAAAAAAAAAAAAAAAAAAAAAAAAAA
        AACqq6ytAAAQAAAA
      >
      FLOATPOS 293 0 987 778
      FXID {532372E3-5B0D-9345-A9C8-98A8EBAF9A7E}
      WAK 0
    >
    <ITEM
      POSITION 0
      SNAPOFFS 0
      LENGTH 47.5
      LOOP 1
      ALLTAKES 0
      FADEIN 1 0 0 1 0 0
      FADEOUT 1 0 0 1 0 0
      MUTE 0
      SEL 1
      YPOS 0 0.166667
      IGUID {7655FAB5-97E1-F140-8084-12C9FC463538}
      IID 1
      NAME "R.H.                 - National_Anthems_-_United_Arab_Emirates.mid"
      VOLPAN 1 0 1 -1
      SOFFS 0 0
      PLAYRATE 1 1 0 -1 0 0.0025
      CHANMODE 0
      GUID {F72AD800-C93A-F146-BE0B-5080D66848EC}
      <SOURCE MIDI
        HASDATA 1 192 QN
        POOLEDEVTS {6961F17A-4756-414A-A1CB-4101E90A65F2}
        <X 0 0
          /wNSLkguICAgICAgICAgICAgICAgIA==
        >
        <X 0 0
          /wFUSEUgU09GVFdBUkUgVE9PTFdPUktT
        >
        <X 0 0
          /wFXT1JMRCBBVExBUw==
        >
        <X 0 0
          /wFNdWx0aU1lZGlhIFdpbmRvd3MgVmVyc2lvbg==
        >
        <X 0 0
          /wFDb3VudHJ5OiBVTklURUQgQVJBQiBFTUlSQVRFUw==
        >
        <X 0 0
          /wFBbnRoZW0gTmFtZTo=
        >
        <X 0 0
          /wEocCkgKGMpIFRoZSBTb2Z0d2FyZSBUb29sd29ya3MgMTk5MQ==
        >
        <X 0 0
          /wFlZGl0IGRhdGU6IDktMTQtOTE=
        >
        <X 0 0
          /wFNTVdJTiBFRElUIERBVEU6IDktMTQtOTE=
        >
        <X 0 0
          /wFUaGlzIGZpbGUgcHJvdmlkZWQgYnk6
        >
        <X 0 0
          /wFSb2IgV2FsbGFjZSBNdXNpYw==
        >
        <X 0 0
          /wEoNjAyKSA5NzktNjIwMQ==
        >
        e 0 91 3c 64
        e 0 91 41 64
        e 0 91 45 64
        e 0 91 48 64
        e 176 81 3c 40
        e 0 81 41 40
        e 0 81 45 40
        e 0 81 48 40
        e 16 91 41 64
        e 0 91 46 64
        e 0 91 4a 64
        e 0 91 4d 64
        e 128 81 41 40
        e 0 81 46 40
        e 0 81 4a 40
        e 0 81 4d 40
        e 16 91 40 64
        e 0 91 4c 64
        e 32 81 40 40
        e 0 81 4c 40
        e 16 91 41 64
        e 0 91 45 64
        e 0 91 48 64
        e 0 91 4d 64
        e 80 81 41 40
        e 0 81 45 40
        e 0 81 48 40
        e 16 91 43 64
        e 0 91 46 64
        e 80 81 4d 40
        e 0 81 43 40
        e 0 81 46 40
        e 16 91 41 64
        e 0 91 45 64
        e 0 91 48 64
        e 80 81 41 40
        e 0 81 45 40
        e 16 91 40 64
        e 0 91 43 64
        e 80 81 48 40
        e 0 81 40 40
        e 0 81 43 40
        e 16 91 41 64
        e 0 91 48 64
        e 0 91 4d 64
        e 176 81 41 40
        e 0 81 48 40
        e 0 81 4d 40
        e 16 91 43 64
        e 0 91 48 64
        e 0 91 4f 64
        e 80 81 43 40
        e 0 81 4f 40
        e 16 91 45 64
        e 0 91 51 64
        e 80 81 48 40
        e 0 81 45 40
        e 0 81 51 40
        e 16 91 45 64
        e 0 91 48 64
        e 0 91 4d 64
        e 0 91 51 64
        e 176 81 45 40
        e 0 81 48 40
        e 0 81 4d 40
        e 0 81 51 40
        e 16 91 43 64
        e 0 91 48 64
        e 0 91 4f 64
        e 80 81 43 40
        e 0 81 48 40
        e 0 81 4f 40
        e 16 91 41 64
        e 0 91 45 64
        e 0 91 48 64
        e 0 91 4d 64
        e 80 81 41 40
        e 0 81 45 40
        e 0 81 48 40
        e 0 81 4d 40
        e 16 91 40 64
        e 0 91 43 64
        e 0 91 48 64
        e 0 91 4c 64
        e 176 81 40 40
        e 0 81 43 40
        e 0 81 48 40
        e 0 81 4c 40
        e 16 91 41 64
        e 0 91 45 64
        e 0 91 48 64
        e 0 91 4d 64
        e 80 81 41 40
        e 0 81 45 40
        e 0 81 48 40
        e 0 81 4d 40
        e 16 91 43 64
        e 0 91 48 64
        e 0 91 4c 64
        e 0 91 4f 64
        e 80 81 43 40
        e 0 81 48 40
        e 0 81 4c 40
        e 0 81 4f 40
        e 16 91 43 64
        e 0 91 48 64
        e 0 91 4c 64
        e 0 91 4f 64
        e 368 81 43 40
        e 0 81 48 40
        e 0 81 4c 40
        e 0 81 4f 40
        e 16 91 43 64
        e 0 91 46 64
        e 0 91 4c 64
        e 0 91 4f 64
        e 176 81 43 40
        e 0 81 46 40
        e 0 81 4c 40
        e 0 81 4f 40
        e 16 91 43 64
        e 0 91 46 64
        e 0 91 4c 64
        e 0 91 4f 64
        e 128 81 43 40
        e 0 81 46 40
        e 0 81 4c 40
        e 0 81 4f 40
        e 16 91 43 64
        e 0 91 46 64
        e 0 91 4c 64
        e 0 91 4f 64
        e 32 81 43 40
        e 0 81 46 40
        e 0 81 4c 40
        e 0 81 4f 40
        e 16 91 43 64
        e 0 91 46 64
        e 0 91 4c 64
        e 0 91 4f 64
        e 176 81 43 40
        e 0 81 46 40
        e 0 81 4c 40
        e 0 81 4f 40
        e 16 91 3c 64
        e 0 91 40 64
        e 0 91 48 64
        e 176 81 3c 40
        e 0 81 40 40
        e 0 81 48 40
        e 16 91 43 64
        e 0 91 48 64
        e 0 91 4c 64
        e 0 91 4f 64
        e 128 81 43 40
        e 0 81 48 40
        e 0 81 4c 40
        e 0 81 4f 40
        e 16 91 42 64
        e 0 91 4e 64
        e 32 81 42 40
        e 0 81 4e 40
        e 16 91 43 64
        e 0 91 4f 64
        e 80 81 43 40
        e 0 81 4f 40
        e 16 91 45 64
        e 0 91 51 64
        e 80 81 45 40
        e 0 81 51 40
        e 16 91 46 64
        e 0 91 4c 64
        e 0 91 4f 64
        e 0 91 52 64
        e 176 81 46 40
        e 0 81 4c 40
        e 0 81 4f 40
        e 0 81 52 40
        e 16 91 43 64
        e 0 91 48 64
        e 0 91 4c 64
        e 0 91 4f 64
        e 176 81 43 40
        e 0 81 48 40
        e 0 81 4c 40
        e 0 81 4f 40
        e 16 91 45 64
        e 0 91 4d 64
        e 0 91 51 64
        e 128 81 45 40
        e 0 81 4d 40
        e 0 81 51 40
        e 16 91 43 64
        e 0 91 4c 64
        e 0 91 4f 64
        e 32 81 43 40
        e 0 81 4c 40
        e 0 81 4f 40
        e 16 91 45 64
        e 0 91 4d 64
        e 0 91 51 64
        e 80 81 45 40
        e 0 81 4d 40
        e 0 81 51 40
        e 16 91 46 64
        e 0 91 4f 64
        e 0 91 52 64
        e 80 81 46 40
        e 0 81 4f 40
        e 0 81 52 40
        e 16 91 48 64
        e 0 91 51 64
        e 0 91 54 64
        e 176 81 48 40
        e 0 81 51 40
        e 0 81 54 40
        e 16 91 41 64
        e 0 91 45 64
        e 0 91 4d 64
        e 176 81 41 40
        e 0 81 45 40
        e 0 81 4d 40
        e 16 91 43 64
        e 0 91 46 64
        e 0 91 4c 64
        e 0 91 4f 64
        e 176 81 43 40
        e 0 81 46 40
        e 0 81 4c 40
        e 0 81 4f 40
        e 16 91 46 64
        e 0 91 4a 64
        e 0 91 52 64
        e 176 81 46 40
        e 0 81 4a 40
        e 0 81 52 40
        e 16 91 45 64
        e 0 91 48 64
        e 0 91 51 64
        e 128 81 45 40
        e 0 81 48 40
        e 0 81 51 40
        e 16 91 43 64
        e 0 91 4f 64
        e 32 81 43 40
        e 0 81 4f 40
        e 16 91 3e 64
        e 0 91 46 64
        e 0 91 4a 64
        e 80 81 3e 40
        e 0 81 46 40
        e 0 81 4a 40
        e 16 91 40 64
        e 0 91 46 64
        e 0 91 4c 64
        e 80 81 40 40
        e 0 81 46 40
        e 0 81 4c 40
        e 16 91 41 64
        e 0 91 45 64
        e 0 91 48 64
        e 0 91 4d 64
        e 176 81 41 40
        e 0 81 45 40
        e 0 81 48 40
        e 0 81 4d 40
        e 16 91 41 64
        e 0 91 45 64
        e 0 91 48 64
        e 0 91 4d 64
        e 128 81 41 40
        e 0 81 45 40
        e 0 81 48 40
        e 0 81 4d 40
        e 16 91 41 64
        e 0 91 45 64
        e 0 91 48 64
        e 0 91 4d 64
        e 32 81 41 40
        e 0 81 45 40
        e 0 81 48 40
        e 0 81 4d 40
        e 16 91 41 64
        e 0 91 45 64
        e 0 91 48 64
        e 0 91 4d 64
        e 176 81 41 40
        e 0 81 45 40
        e 0 81 48 40
        e 0 81 4d 40
        e 208 91 41 64
        e 0 91 4d 64
        e 176 81 41 40
        e 0 81 4d 40
        e 16 91 41 64
        e 0 91 4d 64
        e 128 81 41 40
        e 0 81 4d 40
        e 16 91 40 64
        e 0 91 4c 64
        e 32 81 40 40
        e 0 81 4c 40
        e 16 91 3e 64
        e 0 91 4a 64
        e 176 81 3e 40
        e 0 81 4a 40
        e 16 91 3e 64
        e 0 91 4a 64
        e 128 81 3e 40
        e 0 81 4a 40
        e 16 91 3c 64
        e 0 91 48 64
        e 32 81 3c 40
        e 0 81 48 40
        e 16 91 3a 64
        e 0 91 46 64
        e 176 81 3a 40
        e 0 81 46 40
        e 16 91 3a 64
        e 0 91 46 64
        e 128 81 3a 40
        e 0 81 46 40
        e 16 91 39 64
        e 0 91 45 64
        e 32 81 39 40
        e 0 81 45 40
        e 16 91 37 64
        e 0 91 43 64
        e 80 81 37 40
        e 0 81 43 40
        e 16 91 41 64
        e 32 81 41 40
        e 16 91 43 64
        e 32 81 43 40
        e 16 91 45 64
        e 32 81 45 40
        e 16 91 46 64
        e 32 81 46 40
        e 16 91 48 64
        e 32 81 48 40
        e 16 91 4a 64
        e 32 81 4a 40
        e 16 91 40 64
        e 0 91 43 64
        e 0 91 4c 64
        e 176 81 40 40
        e 0 81 43 40
        e 0 81 4c 40
        e 16 91 40 64
        e 0 91 4c 64
        e 128 81 40 40
        e 0 81 4c 40
        e 16 91 3e 64
        e 0 91 4a 64
        e 32 81 3e 40
        e 0 81 4a 40
        e 16 91 3c 64
        e 0 91 40 64
        e 0 91 48 64
        e 176 81 3c 40
        e 0 81 40 40
        e 0 81 48 40
        e 16 91 3c 64
        e 0 91 40 64
        e 0 91 48 64
        e 128 81 3c 40
        e 0 81 40 40
        e 0 81 48 40
        e 16 91 3a 64
        e 0 91 3e 64
        e 0 91 46 64
        e 32 81 3a 40
        e 0 81 3e 40
        e 0 81 46 40
        e 16 91 39 64
        e 0 91 3c 64
        e 0 91 45 64
        e 176 81 39 40
        e 0 81 3c 40
        e 0 81 45 40
        e 16 91 39 64
        e 0 91 3c 64
        e 0 91 45 64
        e 128 81 39 40
        e 0 81 3c 40
        e 0 81 45 40
        e 16 91 37 64
        e 0 91 3a 64
        e 0 91 43 64
        e 32 81 37 40
        e 0 81 3a 40
        e 0 81 43 40
        e 16 91 39 64
        e 0 91 41 64
        e 320 81 39 40
        e 0 81 41 40
        e 16 91 41 64
        e 0 91 4d 64
        e 32 81 41 40
        e 0 81 4d 40
        e 16 91 43 64
        e 0 91 48 64
        e 0 91 4f 64
        e 176 81 43 40
        e 0 81 48 40
        e 0 81 4f 40
        e 16 91 45 64
        e 0 91 48 64
        e 0 91 51 64
        e 176 81 45 40
        e 0 81 48 40
        e 0 81 51 40
        e 16 91 46 64
        e 0 91 4c 64
        e 0 91 4f 64
        e 0 91 52 64
        e 176 81 46 40
        e 0 81 4c 40
        e 0 81 4f 40
        e 0 81 52 40
        e 16 91 43 64
        e 0 91 4c 64
        e 0 91 4f 64
        e 176 81 43 40
        e 0 81 4c 40
        e 0 81 4f 40
        e 16 91 45 64
        e 0 91 4d 64
        e 0 91 51 64
        e 176 81 45 40
        e 0 81 4d 40
        e 0 81 51 40
        e 16 91 46 64
        e 0 91 4f 64
        e 0 91 52 64
        e 176 81 46 40
        e 0 81 4f 40
        e 0 81 52 40
        e 16 91 48 64
        e 0 91 51 64
        e 0 91 54 64
        e 176 81 48 40
        e 0 81 51 40
        e 0 81 54 40
        e 16 91 4a 64
        e 0 91 52 64
        e 0 91 56 64
        e 176 81 4a 40
        e 0 81 52 40
        e 0 81 56 40
        e 16 91 40 64
        e 0 91 46 64
        e 0 91 4c 64
        e 80 81 40 40
        e 0 81 46 40
        e 0 81 4c 40
        e 16 91 3c 64
        e 0 91 48 64
        e 80 81 3c 40
        e 0 81 48 40
        e 16 91 3e 64
        e 0 91 4a 64
        e 80 81 3e 40
        e 0 81 4a 40
        e 16 91 41 64
        e 0 91 4d 64
        e 80 81 41 40
        e 0 81 4d 40
        e 16 91 40 64
        e 0 91 4c 64
        e 80 81 40 40
        e 0 81 4c 40
        e 16 91 3c 64
        e 0 91 48 64
        e 80 81 3c 40
        e 0 81 48 40
        e 16 91 3e 64
        e 0 91 4a 64
        e 80 81 3e 40
        e 0 81 4a 40
        e 16 91 40 64
        e 0 91 4c 64
        e 80 81 40 40
        e 0 81 4c 40
        e 16 91 41 64
        e 0 91 45 64
        e 0 91 4d 64
        e 80 81 41 40
        e 0 81 45 40
        e 0 81 4d 40
        e 16 91 41 64
        e 0 91 4d 64
        e 32 81 41 40
        e 0 81 4d 40
        e 16 91 41 64
        e 0 91 4d 64
        e 32 81 41 40
        e 0 81 4d 40
        e 16 91 41 64
        e 0 91 4d 64
        e 80 81 41 40
        e 0 81 4d 40
        e 16 91 41 64
        e 0 91 4d 64
        e 80 81 41 40
        e 0 81 4d 40
        e 16 91 41 64
        e 0 91 4d 64
        e 80 81 41 40
        e 0 81 4d 40
        e 16 91 41 64
        e 0 91 4d 64
        e 80 81 41 40
        e 0 81 4d 40
        e 16 91 41 64
        e 0 91 4d 64
        e 80 81 41 40
        e 0 81 4d 40
        e 16 91 41 64
        e 0 91 4d 64
        e 80 81 41 40
        e 0 81 4d 40
        e 16 91 3c 64
        e 0 91 41 64
        e 0 91 45 64
        e 0 91 48 64
        e 176 81 3c 40
        e 0 81 41 40
        e 0 81 45 40
        e 0 81 48 40
        e 16 91 41 64
        e 0 91 4a 64
        e 0 91 4d 64
        e 128 81 41 40
        e 0 81 4a 40
        e 0 81 4d 40
        e 16 91 40 64
        e 0 91 4c 64
        e 32 81 40 40
        e 0 81 4c 40
        e 16 91 41 64
        e 0 91 48 64
        e 0 91 4d 64
        e 80 81 48 40
        e 16 91 46 64
        e 80 81 41 40
        e 0 81 4d 40
        e 0 81 46 40
        e 16 91 3c 64
        e 0 91 45 64
        e 0 91 48 64
        e 80 81 45 40
        e 16 91 43 64
        e 80 81 3c 40
        e 0 81 48 40
        e 0 81 43 40
        e 16 91 41 64
        e 0 91 48 64
        e 0 91 4d 64
        e 176 81 41 40
        e 0 81 48 40
        e 0 81 4d 40
        e 16 91 43 64
        e 0 91 48 64
        e 0 91 4f 64
        e 80 81 43 40
        e 0 81 48 40
        e 0 81 4f 40
        e 16 91 45 64
        e 0 91 48 64
        e 0 91 51 64
        e 80 81 45 40
        e 0 81 48 40
        e 0 81 51 40
        e 16 91 45 64
        e 0 91 48 64
        e 0 91 51 64
        e 176 81 45 40
        e 0 81 48 40
        e 0 81 51 40
        e 16 91 43 64
        e 0 91 48 64
        e 0 91 4f 64
        e 80 81 43 40
        e 0 81 48 40
        e 0 81 4f 40
        e 16 91 41 64
        e 0 91 4d 64
        e 80 81 41 40
        e 0 81 4d 40
        e 16 91 40 64
        e 0 91 48 64
        e 0 91 4c 64
        e 176 81 40 40
        e 0 81 48 40
        e 0 81 4c 40
        e 16 91 41 64
        e 0 91 48 64
        e 0 91 4d 64
        e 80 81 41 40
        e 0 81 48 40
        e 0 81 4d 40
        e 16 91 43 64
        e 0 91 48 64
        e 0 91 4f 64
        e 80 81 43 40
        e 0 81 48 40
        e 0 81 4f 40
        e 16 91 43 64
        e 0 91 4c 64
        e 0 91 4f 64
        e 368 81 43 40
        e 0 81 4c 40
        e 0 81 4f 40
        e 16 91 43 64
        e 0 91 46 64
        e 0 91 4f 64
        e 176 81 43 40
        e 0 81 46 40
        e 0 81 4f 40
        e 16 91 43 64
        e 0 91 46 64
        e 0 91 4f 64
        e 128 81 43 40
        e 0 81 46 40
        e 0 81 4f 40
        e 16 91 43 64
        e 0 91 4f 64
        e 32 81 43 40
        e 0 81 4f 40
        e 16 91 43 64
        e 0 91 4f 64
        e 176 81 43 40
        e 0 81 4f 40
        e 16 91 3c 64
        e 0 91 48 64
        e 176 81 3c 40
        e 0 81 48 40
        e 16 91 43 64
        e 0 91 48 64
        e 0 91 4c 64
        e 0 91 4f 64
        e 128 81 43 40
        e 0 81 48 40
        e 0 81 4c 40
        e 0 81 4f 40
        e 16 91 42 64
        e 0 91 4e 64
        e 32 81 42 40
        e 0 81 4e 40
        e 16 91 43 64
        e 0 91 4f 64
        e 80 81 43 40
        e 0 81 4f 40
        e 16 91 45 64
        e 0 91 51 64
        e 80 81 45 40
        e 0 81 51 40
        e 16 91 46 64
        e 0 91 4f 64
        e 0 91 52 64
        e 176 81 46 40
        e 0 81 4f 40
        e 0 81 52 40
        e 16 91 43 64
        e 0 91 48 64
        e 0 91 4c 64
        e 0 91 4f 64
        e 176 81 43 40
        e 0 81 48 40
        e 0 81 4c 40
        e 0 81 4f 40
        e 16 91 45 64
        e 0 91 4d 64
        e 0 91 51 64
        e 128 81 45 40
        e 0 81 4d 40
        e 0 81 51 40
        e 16 91 43 64
        e 0 91 4f 64
        e 32 81 43 40
        e 0 81 4f 40
        e 16 91 45 64
        e 0 91 51 64
        e 80 81 45 40
        e 0 81 51 40
        e 16 91 46 64
        e 0 91 52 64
        e 80 81 46 40
        e 0 81 52 40
        e 16 91 48 64
        e 0 91 54 64
        e 176 81 48 40
        e 0 81 54 40
        e 16 91 41 64
        e 0 91 48 64
        e 0 91 4d 64
        e 176 81 41 40
        e 0 81 48 40
        e 0 81 4d 40
        e 16 91 43 64
        e 0 91 46 64
        e 0 91 4f 64
        e 176 81 43 40
        e 0 81 46 40
        e 0 81 4f 40
        e 16 91 46 64
        e 0 91 4f 64
        e 0 91 52 64
        e 176 81 46 40
        e 0 81 4f 40
        e 0 81 52 40
        e 16 91 45 64
        e 0 91 4d 64
        e 0 91 51 64
        e 80 81 45 40
        e 0 81 4d 40
        e 0 81 51 40
        e 16 91 43 64
        e 0 91 4f 64
        e 80 81 43 40
        e 0 81 4f 40
        e 16 91 3e 64
        e 0 91 41 64
        e 0 91 4a 64
        e 80 81 3e 40
        e 0 81 41 40
        e 0 81 4a 40
        e 16 91 40 64
        e 0 91 43 64
        e 0 91 4c 64
        e 80 81 40 40
        e 0 81 43 40
        e 0 81 4c 40
        e 16 91 41 64
        e 0 91 45 64
        e 0 91 4d 64
        e 176 81 41 40
        e 0 81 45 40
        e 0 81 4d 40
        e 16 91 41 64
        e 0 91 45 64
        e 0 91 4d 64
        e 128 81 41 40
        e 0 81 45 40
        e 0 81 4d 40
        e 16 91 41 64
        e 0 91 45 64
        e 0 91 4d 64
        e 32 81 41 40
        e 0 81 45 40
        e 0 81 4d 40
        e 16 91 41 64
        e 0 91 45 64
        e 0 91 4d 64
        e 176 81 41 40
        e 0 81 45 40
        e 0 81 4d 40
        E 16 b0 7b 00
        GUID {834CB3BD-F8D4-1746-9C72-178E786307DD}
        IGNTEMPO 0 120 4 4
        SRCCOLOR 199
        VELLANE -1 86 6
        CFGEDITVIEW -912 11.272727 58 17 0 0 0 0 0
        KEYSNAP 0 3 102304056070 0 "Natural minor"
        TRACKSEL 252 0 0 ""
        EVTFILTER 0 -1 -1 -1 -1 0 0 0 0 -1 -1 -1 -1 0 -1 0 -1 -1
        CFGEDIT 1 0 0 0 0 0 1 0 1 1 1 0.25 269 4 1280 633 0 0 2 3 0 0 0 0 0 0.5 0 0 1 64
      >
    >
  >
  <TRACK {A26B8C2D-9EE6-0440-AA6B-121F89FB50DD}
    NAME "16th pulse (mix w/ send?)"
    PEAKCOL 16576
    BEAT -1
    AUTOMODE 0
    VOLPAN 1 0 -1 -1 1
    MUTESOLO 0 0 0
    IPHASE 0
    ISBUS 0 0
    BUSCOMP 0 0
    SHOWINMIX 1 0.6667 0.377358 1 0.5 -1 -1 -1
    FREEMODE 0
    SEL 0
    REC 0 0 0 0 0 0 0
    VU 2
    TRACKHEIGHT 0 0
    INQ 0 0 0 0.5 100 0 0 100
    NCHAN 4
    FX 1
    TRACKID {A26B8C2D-9EE6-0440-AA6B-121F89FB50DD}
    PERF 0
    MIDIOUT -1
    MAINSEND 0 0
    <FXCHAIN
      WNDRECT 36 359 724 387
      SHOW 0
      LASTSEL 0
      DOCKED 0
      BYPASS 0 0 0
      <VST "VSTi: chipsounds (Plogue Art et Technologie, Inc)" chipsounds.vst 0 ""
        T0dMUO5e7f4AAAAABAAAAAEAAAAAAAAAAgAAAAAAAAAEAAAAAAAAAAgAAAAAAAAAMAMAAAEAAAAAABAAQ0VHUCsUAAB4nO1YXW+bMBR976+weNoeSmzzLSWt2qSZIi1r
        NLLnyiFuimYgA5O1+/UzJjTQJOB23aSp9Uvw9fG9PveCfeL++X3EwIamWZjEAw3pUAPnZyf9izQkPtnQ2pANsXZ2AkTr+5TzMF5l4EdOWMgfxKgGVixZEDZLmOgaWAMZ
        TymJBKzsRuTel5YLxpJgejnQLCTM08locp3zabKk0gvJeRIRLkL6LOEDTawnC8SIZRcuA8KIsCFwCmgRW88CtjUPacxpOtBsWC1lnscyOtShbBroVesXrkG4lN5jEtHC
        pQ5meUrB8C5c9/zJqGdbLgIfvsz94UcNLEj8fSLwCEJPA8EdiWPKBtqpWPBaEjY1wPfCrRc3KYlXtAA+GrkwZeskozJ6lPOSd/bzhpFMEHa2SZYLnZIwrha6ISynskRN
        Nk0gegTu0W4CsSrQUAWaqkBLFWirAh1VoKsK9FSBCCojlWuDlIuDlKuDlMuDuuozIymJlF6iHbIr+g5Zr6VrWS3IRupNrw3q1HOPjNb4ZgPa6rX+giK3Fdp889qgbt2r
        0Zor11OGevVkIa8Niox6XS1oeIZzFGvusAgfru2cpCvKtzttkET6jCWrnOrFIaN/Hl/reUZTWNv35KxhnomjYEQ4AfxhLWZibNjFThn+Eh2zyGd1Nol4NF6GpHxciini
        oWrj8gfD121Nir2S43NJo7dE+qtYLk3FGenTrKCgZ5yu30rZ52m4WtHUF7KFxgFNO2kjByOvom05Ndr4EG20Zb1tZd+Rz8bQGXsNEkNojP9iIvq9QmA91VrotbQW3mkt
        9AKxBWtiy34XW+9i638RW01GyLaPHsp1Rh605B+tblmGHdOGdrcsO/xRHJFlVivU6arnEQVnma1aq1Gndl1YT4DhtC6gXimrXUJ2fUsvEnuvLcvq2nBXB9xZXYg7XoV3
        vffW9d6fqR0E0XPljtxmHJGF8dW+3ClT4xiXDcNYiKAC6+5BhXV0yAPETQ//UkZd3d7SgO9fXF1Ei7BI8VPdVF11ffo2qSaQgIcbOinv1VDVv9rds1EmQtDlnCzkuHDR
        71UXgWcnvwHev9o5AAAQAAAA
      >
      FLOATPOS 409 269 871 509
      FXID {DC79668B-30D1-964C-A162-F245DBE294B0}
      WAK 0
      BYPASS 1 0 0
      <JS Delay/time_adjustment ""
        -10.000000 0.000000 -120.000000 0.000000 - - - - - - - - - - - - - - - - - - - - - - - - - - - - - - - - - - - - - - - - - - - - - - - - - - - - - - - - - - - - 
      >
      FLOATPOS 1254 834 554 157
      FXID {40721658-5454-1743-9C6A-517A806DB8F9}
      WAK 0
    >
  >
  <TRACK {D84D9A18-9EB2-B147-888B-8DACBA3BBEF6}
    NAME "Bass Return (global)"
    PEAKCOL 0
    BEAT -1
    AUTOMODE 0
    VOLPAN 0.69677491433128 0 -1 -1 1
    MUTESOLO 0 0 0
    IPHASE 0
    ISBUS 0 0
    BUSCOMP 0 0
    SHOWINMIX 1 0.6667 0.386792 1 0.5 -1 -1 -1
    FREEMODE 0
    SEL 0
    REC 0 0 0 0 0 0 0
    VU 2
    TRACKHEIGHT 0 0
    INQ 0 0 0 0.5 100 0 0 100
    NCHAN 2
    FX 1
    TRACKID {D84D9A18-9EB2-B147-888B-8DACBA3BBEF6}
    PERF 0
    AUXRECV 2 0 1 0 0 0 0 0 0 -1 0 -1 ''
    AUXRECV 5 0 1 0 0 0 0 4 0 -1 0 -1 ''
    MIDIOUT -1
    MAINSEND 1 0
    <FXCHAIN
      SHOW 0
      LASTSEL 0
      DOCKED 0
      BYPASS 0 0 0
      <VST "VST: 8-Bit Shaper (Xfer Records)" 8BitShaper.vst 0 ""
        clN1RO5e7f4CAAAAAQAAAAAAAAACAAAAAAAAAAIAAAABAAAAAAAAAAIAAAAAAAAANAIAAAEAAAAAABAAZmaGP20MlT7dQQw/AAAAPzYA//8AAIA/L1VzZXJzL3MXAAAA
        MAAAABkAAAAaAAAAGgAAABoAAAAbAAAAGwAAABwAAAAcAAAAHAAAAB0AAAAdAAAAHgAAAB4AAAAfAAAAHwAAACAAAAAgAAAAIAAAACEAAAAhAAAAIQAAACIAAAAiAAAA
        IgAAACMAAAAjAAAAIwAAACQAAAAkAAAAJAAAACUAAAAlAAAAKAAAACgAAAApAAAAKQAAACoAAAA1AAAAKgAAACoAAAA2AAAAKgAAACoAAAAqAAAAKgAAACoAAAAqAAAA
        KgAAACsAAAArAAAAOQAAAC0AAAA0AAAAOgAAAC0AAAAtAAAAPAAAAC4AAAAuAAAALwAAADAAAAAwAAAAMQAAADEAAAAxAAAAMgAAADMAAAAzAAAAMwAAADcAAAA3AAAA
        NwAAADgAAAA4AAAAOAAAADkAAAA5AAAAOQAAADoAAAA6AAAAOgAAADoAAAA6AAAAOwAAADsAAAA7AAAAPAAAADsAAAA7AAAAOwAAADwAAAA8AAAAPAAAADwAAAA9AAAA
        PQAAAD0AAAA9AAAAPQAAAD4AAAA+AAAAPwAAAEkAAABAAAAAQAAAAEgAAABAAAAAQQAAAEIAAABCAAAAQgAAAEMAAABDAAAAQwAAAEQAAABEAAAARQAAAE0AAABGAAAA
        RwAAAEYAAABHAAAASAAAAEgAAABJAAAATwAAAAAAgD+rqqo+q6qqPh0Fwz6OAm0/AEluaXQgMQAQAAAA
      >
      FLOATPOS 32 39 278 389
      FXID {19A94086-1737-784E-A733-2897FDD09534}
      WAK 0
    >
  >
  <TRACK {D4259754-8A5D-ED42-9EF0-7FA3B62785A4}
    NAME "vst Plogue"
    PEAKCOL 26779488
    BEAT -1
    AUTOMODE 0
    VOLPAN 1 0 -1 -1 1
    MUTESOLO 0 0 0
    IPHASE 0
    ISBUS 0 0
    BUSCOMP 0 0
    SHOWINMIX 1 0.6667 0.377358 1 0.5 -1 -1 -1
    FREEMODE 0
    SEL 0
    REC 0 0 0 1 0 0 0
    VU 2
    TRACKHEIGHT 0 0
    INQ 0 0 0 0.5 100 0 0 100
    NCHAN 8
    FX 1
    TRACKID {D4259754-8A5D-ED42-9EF0-7FA3B62785A4}
    PERF 0
    AUXRECV 3 0 1 0 0 0 0 0 4 -1 0 -1 ''
    AUXRECV 7 0 1 0 0 0 0 0 0 -1 32 -1 ''
    AUXRECV 7 0 1 0 0 0 0 0 0 -1 96 -1 ''
    AUXRECV 8 0 1 0 0 0 0 0 0 -1 64 -1 ''
    AUXRECV 8 0 1 0 0 0 0 0 0 -1 128 -1 ''
    AUXRECV 9 0 1 0 0 0 0 0 0 -1 160 -1 ''
    MIDIOUT -1
    MAINSEND 0 0
    <FXCHAIN
      SHOW 0
      LASTSEL 0
      DOCKED 0
      BYPASS 0 0 0
      <VST "VSTi: chipsounds (Multi) (Plogue Art et Technologie, Inc) (32 out)" "chipsounds Multi.vst" 0 ""
        T0dNUO5e7f4AAAAAIAAAAAEAAAAAAAAAAgAAAAAAAAAEAAAAAAAAAAgAAAAAAAAAEAAAAAAAAAAgAAAAAAAAAEAAAAAAAAAAgAAAAAAAAAAAAQAAAAAAAAACAAAAAAAA
        AAQAAAAAAAAACAAAAAAAAAAQAAAAAAAAACAAAAAAAAAAQAAAAAAAAACAAAAAAAAAAAABAAAAAAAAAAIAAAAAAAAABAAAAAAAAAAIAAAAAAAAABAAAAAAAAAAIAAAAAAA
        AABAAAAAAAAAAIAAAAAAAAAAAAEAAAAAAAAAAgAAAAAAAAAEAAAAAAAAAAgAAAAAAAAAEAAAAAAAAAAgAAAAAAAAAEAAAAAAAAAAgAAAAADkBQAAAQAAAAAAEABDRUdQ
        ij8AAHic7ZtBc6M2FMfv+RQMp/awRhIIzIyTHduJu5lpupk6Oz1mFFvr0GJwkcju9tNXgIml2BYiJG23gUMC8p8nPT1Z+qFnRu+/rmPrgWYsSpNTGw6Abb0/OxmNs4jM
        yQOVPvIBss9OLHGM5pTzKFkx68+cxBH/Jj61rVWc3pH4Oo3FpYtsi/GMkrWQVZdr8nVelozjOF1cTU5tDEXx1eX55cecX6VLWlohOU/XhIsq53HKT23RHrYotMPihMRE
        FEHrnUWLqgdsEW+LpzThNDu1fVC35CZPysrBAJSHbTl184VlK1qWxhOypoXJgXWdZ9Sa3kcbZ3557vh4CK0ffrmZT3+0rTuS/HEp9BCA0LYW9yRJaFzevind9WyL79W2
        ubvNSLIS1t/Bx0IuitgmZbS8e53z6oR9uY0J44Wlqo1lO69IlNTtfCBxTssAqc6oQvgo3PNaFSJToWsq9EyF2FTomwoDU+HQVBiaCiEwVhrHBhoHBxpHBxqHBzbF55pk
        ZG00iHbKptp3SjmWQ4w1SqXrvVAnDeS+h662fk+Raq3KAxQOtVJ15OmkQ9mqq+2rYWgsDeXOgqFOCl05rhi4oRsc1Xo7LUSHY3tDshXl24l2ka4H13G6yumgWGIGP88+
        DnJGMyDNe+Vd05yJheCccGLxbxtxJ0KuL8LIor/EhVf0Z70yifposoxIdboUt4iT+phV/xB42UN10al8bOs0fCNO32TRakWzuVizabKgWaPbMEAwrN3GgeQ2OuQ23Hq9
        ParroDx3p8EsVJyYAnf2b3VEGf1fhQM0E7Awp6xwasA43fyPxv/IKfjqKWrBbqgFD6DWsEetHrXeCGqpHkHfP7okyx6FAJcPWc1QhgLPB/4LQxnWuqRAGfa0+CQ31Q20
        VpuG8rNI66WZSAazXY+hpkEg5vGG6amHrR62usAWBLAtbZXf8kD0wuxin7aqrgnciVIwEwxWaId7UlF6fsgCQKqFV6a4wwyDujGMVzMM3DGM141hQAPDNC1A7RmmgYp6
        htF3eM8wbRnGxS4euseUskdQu68iexRoaUPxCOo8Chq+Fsc2q7R7RVLfN1pVdqAKhIFHpS3aKg9nT4t7QdN4Poh7TQ0IlKh6WqkcVl/fVjmurnasKBCJkU6qbKyFSNuv
        zwZDt1HbNEHLWvPN2BD4Leyaj7AQhC2+OS2cg1DxztWGTsRAnpJKrU7c1G89e/fs3Ym9kduWvctH4Yq9AUKTyZ4n+0R+XrI3AAfZ+yC946lqd1KxdxBAuXRWlU7V0u0x
        NdHOjjB9a053u3E6+ufTusac3oDf/V6jVthz+neW1m0w2qd15c7q07qdj552+rTuM6P/NtO6XjfUcg+gFu5Rq0etN4Ja32Fat3Hzrk/r9mldo6OHrT6t+19I6waPDIMG
        VtWP1m/kgX5OszVzPpBsac2/JYujEIMf87p+xw2jFyKXl/9BWgML9eTytslFm/ZSPNL+TF/pJsEtKAyPr9zywq3PpyqYo8/QKYNECyRKklS/94TM4QmZp7peKfWqRMvX
        0psyAH2tVWzeADWlrSUyhd58LWq+Hr3Judemnzy+Xu512EJrnnsNoXngRK+aj0ghblpcjqZeXf2TCgJNa0cP0z1Md4FphHFLmK7Wh2rrEkyCmUmetj7qHKkvHvoxHmM1
        cyqVTgK8b7edBf9ABrmlBdjVAg66WvDOO1o4XIrQ+GAeHDzNeJs+gFx8/kwXfP9l5PH6LiqG5dMHjq3V0U+fLusbyIJHD/SyelUa1tcXu1enaSyqoMsbcleMVHnGzCij
        /IomuRWx+nZeNlX/VbE4/SokN+JvntGl9SHiTDzkEH5/ajvjzSaOFuXr28ypLIjnpGjD0jxZipKyUuZo7DvbB7BxtqGrVZQyR6lpQMR8tXky+e+5glq5sia/B/z+0YdP
        YiJkDhOhSFYxKTb1ndtFRgmnzpysNzFlzkX9iTWLiuuqgunO0boOVtyC+f3Tdo8cEcSzk5FTv2d/dvI37tArkQAAEAAAAA==
      >
      FLOATPOS 129 269 871 509
      FXID {C804D762-B992-A540-81BF-3D6C0F7FF19B}
      WAK 0
    >
  >
  <TRACK {33AD5A6D-2EE0-8449-9F1A-2F36FB5D6DDB}
    NAME "midi "
    PEAKCOL 16576
    BEAT -1
    AUTOMODE 0
    VOLPAN 1 0 -1 -1 1
    MUTESOLO 0 0 0
    IPHASE 0
    ISBUS 1 1
    BUSCOMP 0 0
    SHOWINMIX 1 0.6667 0.377358 1 0.5 -1 -1 -1
    FREEMODE 0
    SEL 0
    REC 0 0 0 0 0 0 0
    VU 2
    TRACKHEIGHT 0 0
    INQ 0 0 0 0.5 100 0 0 100
    NCHAN 2
    FX 1
    TRACKID {33AD5A6D-2EE0-8449-9F1A-2F36FB5D6DDB}
    PERF 0
    MIDIOUT -1
    MAINSEND 1 0
  >
  <TRACK {F21395F9-F67E-E94E-A650-3CA2FF3EBDD0}
    NAME "ch1,3 (send)"
    PEAKCOL 16576
    BEAT -1
    AUTOMODE 0
    VOLPAN 1 0 -1 -1 1
    MUTESOLO 0 0 0
    IPHASE 0
    ISBUS 0 0
    BUSCOMP 0 0
    SHOWINMIX 1 0.6667 0.377358 1 0.5 -1 -1 -1
    FREEMODE 0
    SEL 0
    REC 0 0 0 0 0 0 0
    VU 2
    MIDICTL -1 1
    TRACKHEIGHT 81 0
    INQ 0 0 0 0.5 100 0 0 100
    NCHAN 2
    FX 1
    TRACKID {F21395F9-F67E-E94E-A650-3CA2FF3EBDD0}
    PERF 0
    MIDIOUT -1
    MAINSEND 1 0
    <FXCHAIN
      SHOW 0
      LASTSEL 0
      DOCKED 0
    >
    <ITEM
      POSITION 0
      SNAPOFFS 0
      LENGTH 47.5
      LOOP 1
      ALLTAKES 0
      FADEIN 1 0 0 1 0 0
      FADEOUT 1 0 0 1 0 0
      MUTE 0
      SEL 0
      YPOS 0.5 0.166667
      IGUID {C8F969F2-1E03-A647-9C93-812EBA485CED}
      IID 4
      NAME "MELODY               - National_Anthems_-_United_Arab_Emirates.mid"
      VOLPAN 1 0 1 -1
      SOFFS 0 0
      PLAYRATE 1 1 0 -1 0 0.0025
      CHANMODE 0
      GUID {5E59A361-F75C-7C43-9029-14BB50FF124F}
      <SOURCE MIDI
        HASDATA 1 192 QN
        POOLEDEVTS {095E1518-C617-3745-91E5-9D6D545DEE16}
        <X 0 0
          /wNNRUxPRFkgICAgICAgICAgICAgIA==
        >
        e 0 90 48 7f
        e 176 80 48 40
        e 16 90 4d 7f
        e 128 80 4d 40
        e 16 90 4c 7f
        e 32 80 4c 40
        e 16 90 4d 7f
        e 176 80 4d 40
        e 16 90 48 7f
        e 176 80 48 40
        e 16 90 4d 7f
        e 176 80 4d 40
        e 16 90 4f 7f
        e 80 80 4f 40
        e 16 90 51 7f
        e 80 80 51 40
        e 16 90 51 7f
        e 176 80 51 40
        e 16 90 4f 7f
        e 80 80 4f 40
        e 16 90 4d 7f
        e 80 80 4d 40
        e 16 90 4c 7f
        e 176 80 4c 40
        e 16 90 4d 7f
        e 80 80 4d 40
        e 16 90 4f 7f
        e 80 80 4f 40
        e 16 90 4f 7f
        e 368 80 4f 40
        e 16 90 4f 7f
        e 176 80 4f 40
        e 16 90 4f 7f
        e 128 80 4f 40
        e 16 90 4f 7f
        e 32 80 4f 40
        e 16 90 4f 7f
        e 176 80 4f 40
        e 16 90 48 7f
        e 176 80 48 40
        e 16 90 4f 7f
        e 128 80 4f 40
        e 16 90 4e 7f
        e 32 80 4e 40
        e 16 90 4f 7f
        e 80 80 4f 40
        e 16 90 51 7f
        e 80 80 51 40
        e 16 90 52 7f
        e 176 80 52 40
        e 16 90 4f 7f
        e 176 80 4f 40
        e 16 90 51 7f
        e 128 80 51 40
        e 16 90 4f 7f
        e 32 80 4f 40
        e 16 90 51 7f
        e 80 80 51 40
        e 16 90 52 7f
        e 80 80 52 40
        e 16 90 54 7f
        e 176 80 54 40
        e 16 90 4d 7f
        e 176 80 4d 40
        e 16 90 4f 7f
        e 176 80 4f 40
        e 16 90 52 7f
        e 176 80 52 40
        e 16 90 51 7f
        e 128 80 51 40
        e 16 90 4f 7f
        e 32 80 4f 40
        e 16 90 4a 7f
        e 80 80 4a 40
        e 16 90 4c 7f
        e 80 80 4c 40
        e 16 90 4d 7f
        e 176 80 4d 40
        e 16 90 4d 7f
        e 128 80 4d 40
        e 16 90 4d 7f
        e 32 80 4d 40
        e 16 90 4d 7f
        e 176 80 4d 40
        e 208 90 4d 7f
        e 176 80 4d 40
        e 16 90 4d 7f
        e 128 80 4d 40
        e 16 90 4c 7f
        e 32 80 4c 40
        e 16 90 4a 7f
        e 176 80 4a 40
        e 16 90 4a 7f
        e 128 80 4a 40
        e 16 90 48 7f
        e 32 80 48 40
        e 16 90 46 7f
        e 176 80 46 40
        e 16 90 46 7f
        e 128 80 46 40
        e 16 90 45 7f
        e 32 80 45 40
        e 16 90 43 7f
        e 80 80 43 40
        e 304 90 4c 7f
        e 176 80 4c 40
        e 16 90 4c 7f
        e 128 80 4c 40
        e 16 90 4a 7f
        e 32 80 4a 40
        e 16 90 48 7f
        e 176 80 48 40
        e 16 90 48 7f
        e 128 80 48 40
        e 16 90 46 7f
        e 32 80 46 40
        e 16 90 45 7f
        e 176 80 45 40
        e 16 90 45 7f
        e 128 80 45 40
        e 16 90 43 7f
        e 32 80 43 40
        e 16 90 41 7f
        e 320 80 41 40
        e 16 90 4d 7f
        e 32 80 4d 40
        e 16 90 4f 7f
        e 176 80 4f 40
        e 16 90 51 7f
        e 176 80 51 40
        e 16 90 52 7f
        e 176 80 52 40
        e 16 90 4f 7f
        e 176 80 4f 40
        e 16 90 51 7f
        e 176 80 51 40
        e 16 90 52 7f
        e 176 80 52 40
        e 16 90 54 7f
        e 176 80 54 40
        e 16 90 56 7f
        e 176 80 56 40
        e 16 90 4c 7f
        e 80 80 4c 40
        e 16 90 48 7f
        e 80 80 48 40
        e 16 90 4a 7f
        e 80 80 4a 40
        e 16 90 4d 7f
        e 80 80 4d 40
        e 16 90 4c 7f
        e 80 80 4c 40
        e 16 90 48 7f
        e 80 80 48 40
        e 16 90 4a 7f
        e 80 80 4a 40
        e 16 90 4c 7f
        e 80 80 4c 40
        e 16 90 4d 7f
        e 752 80 4d 40
        e 16 90 48 7f
        e 176 80 48 40
        e 16 90 4d 7f
        e 128 80 4d 40
        e 16 90 4c 7f
        e 32 80 4c 40
        e 16 90 4d 7f
        e 176 80 4d 40
        e 16 90 48 7f
        e 176 80 48 40
        e 16 90 4d 7f
        e 176 80 4d 40
        e 16 90 4f 7f
        e 80 80 4f 40
        e 16 90 51 7f
        e 80 80 51 40
        e 16 90 51 7f
        e 176 80 51 40
        e 16 90 4f 7f
        e 80 80 4f 40
        e 16 90 4d 7f
        e 80 80 4d 40
        e 16 90 4c 7f
        e 176 80 4c 40
        e 16 90 4d 7f
        e 80 80 4d 40
        e 16 90 4f 7f
        e 80 80 4f 40
        e 16 90 4f 7f
        e 368 80 4f 40
        e 16 90 4f 7f
        e 176 80 4f 40
        e 16 90 4f 7f
        e 128 80 4f 40
        e 16 90 4f 7f
        e 32 80 4f 40
        e 16 90 4f 7f
        e 176 80 4f 40
        e 16 90 48 7f
        e 176 80 48 40
        e 16 90 4f 7f
        e 128 80 4f 40
        e 16 90 4e 7f
        e 32 80 4e 40
        e 16 90 4f 7f
        e 80 80 4f 40
        e 16 90 51 7f
        e 80 80 51 40
        e 16 90 52 7f
        e 176 80 52 40
        e 16 90 4f 7f
        e 176 80 4f 40
        e 16 90 51 7f
        e 128 80 51 40
        e 16 90 4f 7f
        e 32 80 4f 40
        e 16 90 51 7f
        e 80 80 51 40
        e 16 90 52 7f
        e 80 80 52 40
        e 16 90 54 7f
        e 176 80 54 40
        e 16 90 4d 7f
        e 176 80 4d 40
        e 16 90 4f 7f
        e 176 80 4f 40
        e 16 90 52 7f
        e 176 80 52 40
        e 16 90 51 7f
        e 80 80 51 40
        e 16 90 4f 7f
        e 80 80 4f 40
        e 16 90 4a 7f
        e 80 80 4a 40
        e 16 90 4c 7f
        e 80 80 4c 40
        e 16 90 4d 7f
        e 176 80 4d 40
        e 16 90 4d 7f
        e 128 80 4d 40
        e 16 90 4d 7f
        e 32 80 4d 40
        e 16 90 4d 7f
        e 176 80 4d 40
        E 16 b0 7b 00
        GUID {847F49D6-DCEA-384E-AC99-FC02E6095550}
        IGNTEMPO 0 120 4 4
        SRCCOLOR 202
        VELLANE -1 86 6
        CFGEDITVIEW 2231.783081 389.410354 58 17 0 0 0 0 0
        KEYSNAP 0 3 102304056070 0 "Natural minor"
        TRACKSEL 252 0 0 ""
        EVTFILTER 0 -1 -1 -1 -1 0 0 0 0 -1 -1 -1 -1 0 -1 0 -1 -1
        CFGEDIT 1 0 0 0 0 0 1 0 1 1 1 0.25 269 4 1280 633 0 0 2 3 0 0 0 0 0 0.5 0 0 1 64
      >
    >
    <ITEM
      POSITION 0
      SNAPOFFS 0
      LENGTH 47.5
      LOOP 1
      ALLTAKES 0
      FADEIN 1 0 0 1 0 0
      FADEOUT 1 0 0 1 0 0
      MUTE 0
      SEL 0
      YPOS 0 0.166667
      IGUID {FAADB9D7-0308-CF44-B67C-0F1F10A593CD}
      IID 1
      NAME "R.H.                 - National_Anthems_-_United_Arab_Emirates.mid"
      VOLPAN 1 0 1 -1
      SOFFS 0 0
      PLAYRATE 1 1 0 -1 0 0.0025
      CHANMODE 0
      GUID {77B20FF3-449C-B14A-B915-D6EBE2DA1CDE}
      <SOURCE MIDI
        HASDATA 1 192 QN
        POOLEDEVTS {D26E9746-1E1A-F442-AA4E-B8729238A5C6}
        <X 0 0
          /wNSLkguICAgICAgICAgICAgICAgIA==
        >
        <X 0 0
          /wFUSEUgU09GVFdBUkUgVE9PTFdPUktT
        >
        <X 0 0
          /wFXT1JMRCBBVExBUw==
        >
        <X 0 0
          /wFNdWx0aU1lZGlhIFdpbmRvd3MgVmVyc2lvbg==
        >
        <X 0 0
          /wFDb3VudHJ5OiBVTklURUQgQVJBQiBFTUlSQVRFUw==
        >
        <X 0 0
          /wFBbnRoZW0gTmFtZTo=
        >
        <X 0 0
          /wEocCkgKGMpIFRoZSBTb2Z0d2FyZSBUb29sd29ya3MgMTk5MQ==
        >
        <X 0 0
          /wFlZGl0IGRhdGU6IDktMTQtOTE=
        >
        <X 0 0
          /wFNTVdJTiBFRElUIERBVEU6IDktMTQtOTE=
        >
        <X 0 0
          /wFUaGlzIGZpbGUgcHJvdmlkZWQgYnk6
        >
        <X 0 0
          /wFSb2IgV2FsbGFjZSBNdXNpYw==
        >
        <X 0 0
          /wEoNjAyKSA5NzktNjIwMQ==
        >
        e 0 91 3c 64
        e 0 91 41 64
        e 0 91 45 64
        e 0 91 48 64
        e 176 81 3c 40
        e 0 81 41 40
        e 0 81 45 40
        e 0 81 48 40
        e 16 91 41 64
        e 0 91 46 64
        e 0 91 4a 64
        e 0 91 4d 64
        e 128 81 41 40
        e 0 81 46 40
        e 0 81 4a 40
        e 0 81 4d 40
        e 16 91 40 64
        e 0 91 4c 64
        e 32 81 40 40
        e 0 81 4c 40
        e 16 91 41 64
        e 0 91 45 64
        e 0 91 48 64
        e 0 91 4d 64
        e 80 81 41 40
        e 0 81 45 40
        e 0 81 48 40
        e 16 91 43 64
        e 0 91 46 64
        e 80 81 4d 40
        e 0 81 43 40
        e 0 81 46 40
        e 16 91 41 64
        e 0 91 45 64
        e 0 91 48 64
        e 80 81 41 40
        e 0 81 45 40
        e 16 91 40 64
        e 0 91 43 64
        e 80 81 48 40
        e 0 81 40 40
        e 0 81 43 40
        e 16 91 41 64
        e 0 91 48 64
        e 0 91 4d 64
        e 176 81 41 40
        e 0 81 48 40
        e 0 81 4d 40
        e 16 91 43 64
        e 0 91 48 64
        e 0 91 4f 64
        e 80 81 43 40
        e 0 81 4f 40
        e 16 91 45 64
        e 0 91 51 64
        e 80 81 48 40
        e 0 81 45 40
        e 0 81 51 40
        e 16 91 45 64
        e 0 91 48 64
        e 0 91 4d 64
        e 0 91 51 64
        e 176 81 45 40
        e 0 81 48 40
        e 0 81 4d 40
        e 0 81 51 40
        e 16 91 43 64
        e 0 91 48 64
        e 0 91 4f 64
        e 80 81 43 40
        e 0 81 48 40
        e 0 81 4f 40
        e 16 91 41 64
        e 0 91 45 64
        e 0 91 48 64
        e 0 91 4d 64
        e 80 81 41 40
        e 0 81 45 40
        e 0 81 48 40
        e 0 81 4d 40
        e 16 91 40 64
        e 0 91 43 64
        e 0 91 48 64
        e 0 91 4c 64
        e 176 81 40 40
        e 0 81 43 40
        e 0 81 48 40
        e 0 81 4c 40
        e 16 91 41 64
        e 0 91 45 64
        e 0 91 48 64
        e 0 91 4d 64
        e 80 81 41 40
        e 0 81 45 40
        e 0 81 48 40
        e 0 81 4d 40
        e 16 91 43 64
        e 0 91 48 64
        e 0 91 4c 64
        e 0 91 4f 64
        e 80 81 43 40
        e 0 81 48 40
        e 0 81 4c 40
        e 0 81 4f 40
        e 16 91 43 64
        e 0 91 48 64
        e 0 91 4c 64
        e 0 91 4f 64
        e 368 81 43 40
        e 0 81 48 40
        e 0 81 4c 40
        e 0 81 4f 40
        e 16 91 43 64
        e 0 91 46 64
        e 0 91 4c 64
        e 0 91 4f 64
        e 176 81 43 40
        e 0 81 46 40
        e 0 81 4c 40
        e 0 81 4f 40
        e 16 91 43 64
        e 0 91 46 64
        e 0 91 4c 64
        e 0 91 4f 64
        e 128 81 43 40
        e 0 81 46 40
        e 0 81 4c 40
        e 0 81 4f 40
        e 16 91 43 64
        e 0 91 46 64
        e 0 91 4c 64
        e 0 91 4f 64
        e 32 81 43 40
        e 0 81 46 40
        e 0 81 4c 40
        e 0 81 4f 40
        e 16 91 43 64
        e 0 91 46 64
        e 0 91 4c 64
        e 0 91 4f 64
        e 176 81 43 40
        e 0 81 46 40
        e 0 81 4c 40
        e 0 81 4f 40
        e 16 91 3c 64
        e 0 91 40 64
        e 0 91 48 64
        e 176 81 3c 40
        e 0 81 40 40
        e 0 81 48 40
        e 16 91 43 64
        e 0 91 48 64
        e 0 91 4c 64
        e 0 91 4f 64
        e 128 81 43 40
        e 0 81 48 40
        e 0 81 4c 40
        e 0 81 4f 40
        e 16 91 42 64
        e 0 91 4e 64
        e 32 81 42 40
        e 0 81 4e 40
        e 16 91 43 64
        e 0 91 4f 64
        e 80 81 43 40
        e 0 81 4f 40
        e 16 91 45 64
        e 0 91 51 64
        e 80 81 45 40
        e 0 81 51 40
        e 16 91 46 64
        e 0 91 4c 64
        e 0 91 4f 64
        e 0 91 52 64
        e 176 81 46 40
        e 0 81 4c 40
        e 0 81 4f 40
        e 0 81 52 40
        e 16 91 43 64
        e 0 91 48 64
        e 0 91 4c 64
        e 0 91 4f 64
        e 176 81 43 40
        e 0 81 48 40
        e 0 81 4c 40
        e 0 81 4f 40
        e 16 91 45 64
        e 0 91 4d 64
        e 0 91 51 64
        e 128 81 45 40
        e 0 81 4d 40
        e 0 81 51 40
        e 16 91 43 64
        e 0 91 4c 64
        e 0 91 4f 64
        e 32 81 43 40
        e 0 81 4c 40
        e 0 81 4f 40
        e 16 91 45 64
        e 0 91 4d 64
        e 0 91 51 64
        e 80 81 45 40
        e 0 81 4d 40
        e 0 81 51 40
        e 16 91 46 64
        e 0 91 4f 64
        e 0 91 52 64
        e 80 81 46 40
        e 0 81 4f 40
        e 0 81 52 40
        e 16 91 48 64
        e 0 91 51 64
        e 0 91 54 64
        e 176 81 48 40
        e 0 81 51 40
        e 0 81 54 40
        e 16 91 41 64
        e 0 91 45 64
        e 0 91 4d 64
        e 176 81 41 40
        e 0 81 45 40
        e 0 81 4d 40
        e 16 91 43 64
        e 0 91 46 64
        e 0 91 4c 64
        e 0 91 4f 64
        e 176 81 43 40
        e 0 81 46 40
        e 0 81 4c 40
        e 0 81 4f 40
        e 16 91 46 64
        e 0 91 4a 64
        e 0 91 52 64
        e 176 81 46 40
        e 0 81 4a 40
        e 0 81 52 40
        e 16 91 45 64
        e 0 91 48 64
        e 0 91 51 64
        e 128 81 45 40
        e 0 81 48 40
        e 0 81 51 40
        e 16 91 43 64
        e 0 91 4f 64
        e 32 81 43 40
        e 0 81 4f 40
        e 16 91 3e 64
        e 0 91 46 64
        e 0 91 4a 64
        e 80 81 3e 40
        e 0 81 46 40
        e 0 81 4a 40
        e 16 91 40 64
        e 0 91 46 64
        e 0 91 4c 64
        e 80 81 40 40
        e 0 81 46 40
        e 0 81 4c 40
        e 16 91 41 64
        e 0 91 45 64
        e 0 91 48 64
        e 0 91 4d 64
        e 176 81 41 40
        e 0 81 45 40
        e 0 81 48 40
        e 0 81 4d 40
        e 16 91 41 64
        e 0 91 45 64
        e 0 91 48 64
        e 0 91 4d 64
        e 128 81 41 40
        e 0 81 45 40
        e 0 81 48 40
        e 0 81 4d 40
        e 16 91 41 64
        e 0 91 45 64
        e 0 91 48 64
        e 0 91 4d 64
        e 32 81 41 40
        e 0 81 45 40
        e 0 81 48 40
        e 0 81 4d 40
        e 16 91 41 64
        e 0 91 45 64
        e 0 91 48 64
        e 0 91 4d 64
        e 176 81 41 40
        e 0 81 45 40
        e 0 81 48 40
        e 0 81 4d 40
        e 208 91 41 64
        e 0 91 4d 64
        e 176 81 41 40
        e 0 81 4d 40
        e 16 91 41 64
        e 0 91 4d 64
        e 128 81 41 40
        e 0 81 4d 40
        e 16 91 40 64
        e 0 91 4c 64
        e 32 81 40 40
        e 0 81 4c 40
        e 16 91 3e 64
        e 0 91 4a 64
        e 176 81 3e 40
        e 0 81 4a 40
        e 16 91 3e 64
        e 0 91 4a 64
        e 128 81 3e 40
        e 0 81 4a 40
        e 16 91 3c 64
        e 0 91 48 64
        e 32 81 3c 40
        e 0 81 48 40
        e 16 91 3a 64
        e 0 91 46 64
        e 176 81 3a 40
        e 0 81 46 40
        e 16 91 3a 64
        e 0 91 46 64
        e 128 81 3a 40
        e 0 81 46 40
        e 16 91 39 64
        e 0 91 45 64
        e 32 81 39 40
        e 0 81 45 40
        e 16 91 37 64
        e 0 91 43 64
        e 80 81 37 40
        e 0 81 43 40
        e 16 91 41 64
        e 32 81 41 40
        e 16 91 43 64
        e 32 81 43 40
        e 16 91 45 64
        e 32 81 45 40
        e 16 91 46 64
        e 32 81 46 40
        e 16 91 48 64
        e 32 81 48 40
        e 16 91 4a 64
        e 32 81 4a 40
        e 16 91 40 64
        e 0 91 43 64
        e 0 91 4c 64
        e 176 81 40 40
        e 0 81 43 40
        e 0 81 4c 40
        e 16 91 40 64
        e 0 91 4c 64
        e 128 81 40 40
        e 0 81 4c 40
        e 16 91 3e 64
        e 0 91 4a 64
        e 32 81 3e 40
        e 0 81 4a 40
        e 16 91 3c 64
        e 0 91 40 64
        e 0 91 48 64
        e 176 81 3c 40
        e 0 81 40 40
        e 0 81 48 40
        e 16 91 3c 64
        e 0 91 40 64
        e 0 91 48 64
        e 128 81 3c 40
        e 0 81 40 40
        e 0 81 48 40
        e 16 91 3a 64
        e 0 91 3e 64
        e 0 91 46 64
        e 32 81 3a 40
        e 0 81 3e 40
        e 0 81 46 40
        e 16 91 39 64
        e 0 91 3c 64
        e 0 91 45 64
        e 176 81 39 40
        e 0 81 3c 40
        e 0 81 45 40
        e 16 91 39 64
        e 0 91 3c 64
        e 0 91 45 64
        e 128 81 39 40
        e 0 81 3c 40
        e 0 81 45 40
        e 16 91 37 64
        e 0 91 3a 64
        e 0 91 43 64
        e 32 81 37 40
        e 0 81 3a 40
        e 0 81 43 40
        e 16 91 39 64
        e 0 91 41 64
        e 320 81 39 40
        e 0 81 41 40
        e 16 91 41 64
        e 0 91 4d 64
        e 32 81 41 40
        e 0 81 4d 40
        e 16 91 43 64
        e 0 91 48 64
        e 0 91 4f 64
        e 176 81 43 40
        e 0 81 48 40
        e 0 81 4f 40
        e 16 91 45 64
        e 0 91 48 64
        e 0 91 51 64
        e 176 81 45 40
        e 0 81 48 40
        e 0 81 51 40
        e 16 91 46 64
        e 0 91 4c 64
        e 0 91 4f 64
        e 0 91 52 64
        e 176 81 46 40
        e 0 81 4c 40
        e 0 81 4f 40
        e 0 81 52 40
        e 16 91 43 64
        e 0 91 4c 64
        e 0 91 4f 64
        e 176 81 43 40
        e 0 81 4c 40
        e 0 81 4f 40
        e 16 91 45 64
        e 0 91 4d 64
        e 0 91 51 64
        e 176 81 45 40
        e 0 81 4d 40
        e 0 81 51 40
        e 16 91 46 64
        e 0 91 4f 64
        e 0 91 52 64
        e 176 81 46 40
        e 0 81 4f 40
        e 0 81 52 40
        e 16 91 48 64
        e 0 91 51 64
        e 0 91 54 64
        e 176 81 48 40
        e 0 81 51 40
        e 0 81 54 40
        e 16 91 4a 64
        e 0 91 52 64
        e 0 91 56 64
        e 176 81 4a 40
        e 0 81 52 40
        e 0 81 56 40
        e 16 91 40 64
        e 0 91 46 64
        e 0 91 4c 64
        e 80 81 40 40
        e 0 81 46 40
        e 0 81 4c 40
        e 16 91 3c 64
        e 0 91 48 64
        e 80 81 3c 40
        e 0 81 48 40
        e 16 91 3e 64
        e 0 91 4a 64
        e 80 81 3e 40
        e 0 81 4a 40
        e 16 91 41 64
        e 0 91 4d 64
        e 80 81 41 40
        e 0 81 4d 40
        e 16 91 40 64
        e 0 91 4c 64
        e 80 81 40 40
        e 0 81 4c 40
        e 16 91 3c 64
        e 0 91 48 64
        e 80 81 3c 40
        e 0 81 48 40
        e 16 91 3e 64
        e 0 91 4a 64
        e 80 81 3e 40
        e 0 81 4a 40
        e 16 91 40 64
        e 0 91 4c 64
        e 80 81 40 40
        e 0 81 4c 40
        e 16 91 41 64
        e 0 91 45 64
        e 0 91 4d 64
        e 80 81 41 40
        e 0 81 45 40
        e 0 81 4d 40
        e 16 91 41 64
        e 0 91 4d 64
        e 32 81 41 40
        e 0 81 4d 40
        e 16 91 41 64
        e 0 91 4d 64
        e 32 81 41 40
        e 0 81 4d 40
        e 16 91 41 64
        e 0 91 4d 64
        e 80 81 41 40
        e 0 81 4d 40
        e 16 91 41 64
        e 0 91 4d 64
        e 80 81 41 40
        e 0 81 4d 40
        e 16 91 41 64
        e 0 91 4d 64
        e 80 81 41 40
        e 0 81 4d 40
        e 16 91 41 64
        e 0 91 4d 64
        e 80 81 41 40
        e 0 81 4d 40
        e 16 91 41 64
        e 0 91 4d 64
        e 80 81 41 40
        e 0 81 4d 40
        e 16 91 41 64
        e 0 91 4d 64
        e 80 81 41 40
        e 0 81 4d 40
        e 16 91 3c 64
        e 0 91 41 64
        e 0 91 45 64
        e 0 91 48 64
        e 176 81 3c 40
        e 0 81 41 40
        e 0 81 45 40
        e 0 81 48 40
        e 16 91 41 64
        e 0 91 4a 64
        e 0 91 4d 64
        e 128 81 41 40
        e 0 81 4a 40
        e 0 81 4d 40
        e 16 91 40 64
        e 0 91 4c 64
        e 32 81 40 40
        e 0 81 4c 40
        e 16 91 41 64
        e 0 91 48 64
        e 0 91 4d 64
        e 80 81 48 40
        e 16 91 46 64
        e 80 81 41 40
        e 0 81 4d 40
        e 0 81 46 40
        e 16 91 3c 64
        e 0 91 45 64
        e 0 91 48 64
        e 80 81 45 40
        e 16 91 43 64
        e 80 81 3c 40
        e 0 81 48 40
        e 0 81 43 40
        e 16 91 41 64
        e 0 91 48 64
        e 0 91 4d 64
        e 176 81 41 40
        e 0 81 48 40
        e 0 81 4d 40
        e 16 91 43 64
        e 0 91 48 64
        e 0 91 4f 64
        e 80 81 43 40
        e 0 81 48 40
        e 0 81 4f 40
        e 16 91 45 64
        e 0 91 48 64
        e 0 91 51 64
        e 80 81 45 40
        e 0 81 48 40
        e 0 81 51 40
        e 16 91 45 64
        e 0 91 48 64
        e 0 91 51 64
        e 176 81 45 40
        e 0 81 48 40
        e 0 81 51 40
        e 16 91 43 64
        e 0 91 48 64
        e 0 91 4f 64
        e 80 81 43 40
        e 0 81 48 40
        e 0 81 4f 40
        e 16 91 41 64
        e 0 91 4d 64
        e 80 81 41 40
        e 0 81 4d 40
        e 16 91 40 64
        e 0 91 48 64
        e 0 91 4c 64
        e 176 81 40 40
        e 0 81 48 40
        e 0 81 4c 40
        e 16 91 41 64
        e 0 91 48 64
        e 0 91 4d 64
        e 80 81 41 40
        e 0 81 48 40
        e 0 81 4d 40
        e 16 91 43 64
        e 0 91 48 64
        e 0 91 4f 64
        e 80 81 43 40
        e 0 81 48 40
        e 0 81 4f 40
        e 16 91 43 64
        e 0 91 4c 64
        e 0 91 4f 64
        e 368 81 43 40
        e 0 81 4c 40
        e 0 81 4f 40
        e 16 91 43 64
        e 0 91 46 64
        e 0 91 4f 64
        e 176 81 43 40
        e 0 81 46 40
        e 0 81 4f 40
        e 16 91 43 64
        e 0 91 46 64
        e 0 91 4f 64
        e 128 81 43 40
        e 0 81 46 40
        e 0 81 4f 40
        e 16 91 43 64
        e 0 91 4f 64
        e 32 81 43 40
        e 0 81 4f 40
        e 16 91 43 64
        e 0 91 4f 64
        e 176 81 43 40
        e 0 81 4f 40
        e 16 91 3c 64
        e 0 91 48 64
        e 176 81 3c 40
        e 0 81 48 40
        e 16 91 43 64
        e 0 91 48 64
        e 0 91 4c 64
        e 0 91 4f 64
        e 128 81 43 40
        e 0 81 48 40
        e 0 81 4c 40
        e 0 81 4f 40
        e 16 91 42 64
        e 0 91 4e 64
        e 32 81 42 40
        e 0 81 4e 40
        e 16 91 43 64
        e 0 91 4f 64
        e 80 81 43 40
        e 0 81 4f 40
        e 16 91 45 64
        e 0 91 51 64
        e 80 81 45 40
        e 0 81 51 40
        e 16 91 46 64
        e 0 91 4f 64
        e 0 91 52 64
        e 176 81 46 40
        e 0 81 4f 40
        e 0 81 52 40
        e 16 91 43 64
        e 0 91 48 64
        e 0 91 4c 64
        e 0 91 4f 64
        e 176 81 43 40
        e 0 81 48 40
        e 0 81 4c 40
        e 0 81 4f 40
        e 16 91 45 64
        e 0 91 4d 64
        e 0 91 51 64
        e 128 81 45 40
        e 0 81 4d 40
        e 0 81 51 40
        e 16 91 43 64
        e 0 91 4f 64
        e 32 81 43 40
        e 0 81 4f 40
        e 16 91 45 64
        e 0 91 51 64
        e 80 81 45 40
        e 0 81 51 40
        e 16 91 46 64
        e 0 91 52 64
        e 80 81 46 40
        e 0 81 52 40
        e 16 91 48 64
        e 0 91 54 64
        e 176 81 48 40
        e 0 81 54 40
        e 16 91 41 64
        e 0 91 48 64
        e 0 91 4d 64
        e 176 81 41 40
        e 0 81 48 40
        e 0 81 4d 40
        e 16 91 43 64
        e 0 91 46 64
        e 0 91 4f 64
        e 176 81 43 40
        e 0 81 46 40
        e 0 81 4f 40
        e 16 91 46 64
        e 0 91 4f 64
        e 0 91 52 64
        e 176 81 46 40
        e 0 81 4f 40
        e 0 81 52 40
        e 16 91 45 64
        e 0 91 4d 64
        e 0 91 51 64
        e 80 81 45 40
        e 0 81 4d 40
        e 0 81 51 40
        e 16 91 43 64
        e 0 91 4f 64
        e 80 81 43 40
        e 0 81 4f 40
        e 16 91 3e 64
        e 0 91 41 64
        e 0 91 4a 64
        e 80 81 3e 40
        e 0 81 41 40
        e 0 81 4a 40
        e 16 91 40 64
        e 0 91 43 64
        e 0 91 4c 64
        e 80 81 40 40
        e 0 81 43 40
        e 0 81 4c 40
        e 16 91 41 64
        e 0 91 45 64
        e 0 91 4d 64
        e 176 81 41 40
        e 0 81 45 40
        e 0 81 4d 40
        e 16 91 41 64
        e 0 91 45 64
        e 0 91 4d 64
        e 128 81 41 40
        e 0 81 45 40
        e 0 81 4d 40
        e 16 91 41 64
        e 0 91 45 64
        e 0 91 4d 64
        e 32 81 41 40
        e 0 81 45 40
        e 0 81 4d 40
        e 16 91 41 64
        e 0 91 45 64
        e 0 91 4d 64
        e 176 81 41 40
        e 0 81 45 40
        e 0 81 4d 40
        E 16 b0 7b 00
        GUID {834CB3BD-F8D4-1746-9C72-178E786307DD}
        IGNTEMPO 0 120 4 4
        SRCCOLOR 199
        VELLANE -1 86 6
        CFGEDITVIEW -912 10.966507 40 10 0 0 0 0 0
        KEYSNAP 0 3 102304056070 0 "Natural minor"
        TRACKSEL 252 0 0 ""
        EVTFILTER 0 -1 -1 -1 -1 0 0 0 0 -1 -1 -1 -1 0 -1 0 -1 -1
        CFGEDIT 1 0 0 0 0 0 1 0 1 1 1 0.25 285 20 1280 633 0 0 2 3 0 0 0 0 0 0.5 0 0 1 64
      >
    >
  >
  <TRACK {6CCBCBB4-02B5-3C4F-AE95-8DD80AEC4A17}
    NAME "ch2,4 (send)"
    PEAKCOL 16576
    BEAT -1
    AUTOMODE 0
    VOLPAN 1 0 -1 -1 1
    MUTESOLO 0 0 0
    IPHASE 0
    ISBUS 0 0
    BUSCOMP 0 0
    SHOWINMIX 1 0.6667 0.377358 1 0.5 -1 -1 -1
    FREEMODE 0
    SEL 0
    REC 0 0 0 0 0 0 0
    VU 2
    MIDICTL -1 1
    TRACKHEIGHT 81 0
    INQ 0 0 0 0.5 100 0 0 100
    NCHAN 2
    FX 1
    TRACKID {6CCBCBB4-02B5-3C4F-AE95-8DD80AEC4A17}
    PERF 0
    MIDIOUT -1
    MAINSEND 1 0
    <FXCHAIN
      WNDRECT 32 359 724 387
      SHOW 0
      LASTSEL 0
      DOCKED 0
    >
    <ITEM
      POSITION 0
      SNAPOFFS 0
      LENGTH 47.5
      LOOP 1
      ALLTAKES 0
      FADEIN 1 0 0 1 0 0
      FADEOUT 1 0 0 1 0 0
      MUTE 0
      SEL 0
      YPOS 0.333333 0.166667
      IGUID {0471C56D-B00C-CB40-9809-4BD0E31BCB6E}
      IID 3
      NAME "BASS                 - National_Anthems_-_United_Arab_Emirates.mid"
      VOLPAN 1 0 1 -1
      SOFFS 0 0
      PLAYRATE 1 1 0 -1 0 0.0025
      CHANMODE 0
      GUID {91E9F21E-0758-174C-9E2B-E6FD9F4A7314}
      <SOURCE MIDI
        HASDATA 1 192 QN
        POOLEDEVTS {96682B35-20DC-9644-898B-E26234CED50C}
        <X 0 0
          /wNCQVNTICAgICAgICAgICAgICAgIA==
        >
        e 0 93 29 7f
        e 176 83 29 40
        e 16 93 35 7f
        e 176 83 35 40
        e 16 93 29 7f
        e 176 83 29 40
        e 16 93 2e 7f
        e 176 83 2e 40
        e 16 93 2d 7f
        e 176 83 2d 40
        e 16 93 2b 7f
        e 176 83 2b 40
        e 16 93 29 7f
        e 176 83 29 40
        e 16 93 2b 7f
        e 80 83 2b 40
        e 16 93 24 7f
        e 80 83 24 40
        e 16 93 24 7f
        e 176 83 24 40
        e 16 93 30 7f
        e 176 83 30 40
        e 16 93 24 7f
        e 176 83 24 40
        e 16 93 30 7f
        e 176 83 30 40
        e 16 93 34 7f
        e 176 83 34 40
        e 16 93 30 7f
        e 176 83 30 40
        e 16 93 2e 7f
        e 80 83 2e 40
        e 16 93 30 7f
        e 80 83 30 40
        e 16 93 34 7f
        e 80 83 34 40
        e 16 93 37 7f
        e 80 83 37 40
        e 16 93 30 7f
        e 464 83 30 40
        e 16 93 24 7f
        e 80 83 24 40
        e 16 93 28 7f
        e 80 83 28 40
        e 16 93 2b 7f
        e 80 83 2b 40
        e 16 93 29 7f
        e 464 83 29 40
        e 16 93 30 7f
        e 80 83 30 40
        e 16 93 2d 7f
        e 80 83 2d 40
        e 16 93 29 7f
        e 80 83 29 40
        e 16 93 24 7f
        e 176 83 24 40
        e 16 93 30 7f
        e 176 83 30 40
        e 16 93 28 7f
        e 176 83 28 40
        e 16 93 34 7f
        e 176 83 34 40
        e 16 93 29 7f
        e 176 83 29 40
        e 16 93 35 7f
        e 176 83 35 40
        e 16 93 35 7f
        e 176 83 35 40
        e 208 93 35 7f
        e 272 83 35 40
        e 112 93 2e 7f
        e 272 83 2e 40
        e 112 93 34 7f
        e 272 83 34 40
        e 112 93 30 7f
        e 272 83 30 40
        e 112 93 24 7f
        e 176 83 24 40
        e 16 93 30 7f
        e 176 83 30 40
        e 16 93 24 7f
        e 176 83 24 40
        e 208 93 29 7f
        e 176 83 29 40
        e 16 93 35 7f
        e 176 83 35 40
        e 16 93 29 7f
        e 176 83 29 40
        e 208 93 2b 7f
        e 176 83 2b 40
        e 16 93 29 7f
        e 176 83 29 40
        e 16 93 28 7f
        e 176 83 28 40
        e 16 93 24 7f
        e 176 83 24 40
        e 16 93 29 7f
        e 176 83 29 40
        e 16 93 2b 7f
        e 176 83 2b 40
        e 16 93 2d 7f
        e 176 83 2d 40
        e 16 93 2e 7f
        e 176 83 2e 40
        e 16 93 30 7f
        e 272 83 30 40
        e 16 93 32 7f
        e 80 83 32 40
        e 16 93 30 7f
        e 80 83 30 40
        e 16 93 2e 7f
        e 80 83 2e 40
        e 16 93 2d 7f
        e 80 83 2d 40
        e 16 93 2b 7f
        e 80 83 2b 40
        e 16 93 29 7f
        e 80 83 29 40
        e 16 93 29 7f
        e 80 83 29 40
        e 16 93 28 7f
        e 80 83 28 40
        e 16 93 26 7f
        e 80 83 26 40
        e 16 93 24 7f
        e 80 83 24 40
        e 16 93 2e 7f
        e 80 83 2e 40
        e 16 93 2d 7f
        e 80 83 2d 40
        e 16 93 2b 7f
        e 80 83 2b 40
        e 16 93 29 7f
        e 176 83 29 40
        e 16 93 37 7f
        e 176 83 37 40
        e 16 93 35 7f
        e 176 83 35 40
        e 16 93 2e 7f
        e 176 83 2e 40
        e 16 93 2d 7f
        e 176 83 2d 40
        e 16 93 2b 7f
        e 176 83 2b 40
        e 16 93 29 7f
        e 176 83 29 40
        e 16 93 2b 7f
        e 80 83 2b 40
        e 16 93 2d 7f
        e 80 83 2d 40
        e 16 93 30 7f
        e 176 83 30 40
        e 16 93 30 7f
        e 80 83 30 40
        e 16 93 30 7f
        e 80 83 30 40
        e 16 93 2e 7f
        e 80 83 2e 40
        e 16 93 24 7f
        e 80 83 24 40
        e 16 93 28 7f
        e 80 83 28 40
        e 16 93 2b 7f
        e 80 83 2b 40
        e 16 93 2e 7f
        e 80 83 2e 40
        e 16 93 2d 7f
        e 80 83 2d 40
        e 16 93 2b 7f
        e 80 83 2b 40
        e 16 93 29 7f
        e 80 83 29 40
        e 16 93 2e 7f
        e 80 83 2e 40
        e 16 93 30 7f
        e 80 83 30 40
        e 16 93 34 7f
        e 80 83 34 40
        e 16 93 37 7f
        e 80 83 37 40
        e 16 93 30 7f
        e 464 83 30 40
        e 16 93 24 7f
        e 80 83 24 40
        e 16 93 28 7f
        e 80 83 28 40
        e 16 93 2b 7f
        e 80 83 2b 40
        e 16 93 29 7f
        e 464 83 29 40
        e 16 93 30 7f
        e 80 83 30 40
        e 16 93 2d 7f
        e 80 83 2d 40
        e 16 93 29 7f
        e 80 83 29 40
        e 16 93 28 7f
        e 368 83 28 40
        e 16 93 30 7f
        e 176 83 30 40
        e 16 93 24 7f
        e 176 83 24 40
        e 16 93 29 7f
        e 176 83 29 40
        e 16 93 35 7f
        e 176 83 35 40
        e 16 93 29 7f
        e 176 83 29 40
        E 16 b0 7b 00
        GUID {05F93B9B-1DA0-424B-95DA-634716837D47}
        IGNTEMPO 0 120 4 4
        SRCCOLOR 201
        VELLANE -1 86 6
        CFGEDITVIEW 0 11.073684 65 12 0 0 0 0 0
        KEYSNAP 0 3 102304056070 0 "Natural minor"
        TRACKSEL 252 0 0 ""
        EVTFILTER 0 -1 -1 -1 -1 0 0 0 0 -1 -1 -1 -1 0 -1 0 -1 -1
        CFGEDIT 1 0 0 0 0 0 1 0 1 1 1 0.25 285 20 1280 633 0 0 2 3 0 0 0 0 0 0.5 0 0 1 64
      >
    >
    <ITEM
      POSITION 0
      SNAPOFFS 0
      LENGTH 47.5
      LOOP 1
      ALLTAKES 0
      FADEIN 1 0 0 1 0 0
      FADEOUT 1 0 0 1 0 0
      MUTE 0
      SEL 0
      YPOS 0.166667 0.166667
      IGUID {75B4BE05-0AB2-AF4C-8455-B6EAE5941D2D}
      IID 2
      NAME "L.H.                 - National_Anthems_-_United_Arab_Emirates.mid"
      VOLPAN 1 0 1 -1
      SOFFS 0 0
      PLAYRATE 1 1 0 -1 0 0.0025
      CHANMODE 0
      GUID {154070BE-C99B-5B4C-8B3C-6880793C1C18}
      <SOURCE MIDI
        HASDATA 1 192 QN
        POOLEDEVTS {E3B03F05-63D9-8D43-A87F-403E72776B91}
        <X 0 0
          /wNMLkguICAgICAgICAgICAgICAgIA==
        >
        E 0 92 35 64
        E 0 92 29 64
        E 560 82 35 40
        E 0 82 29 40
        E 16 92 3a 64
        E 0 92 2e 64
        E 176 82 3a 40
        E 0 82 2e 40
        E 16 92 2d 64
        E 0 92 39 64
        E 176 82 2d 40
        E 0 82 39 40
        E 16 92 2b 64
        E 0 92 37 64
        E 176 82 2b 40
        E 0 82 37 40
        E 16 92 29 64
        E 0 92 35 64
        E 176 82 29 40
        E 0 82 35 40
        E 16 92 37 64
        E 0 92 2b 64
        E 80 82 37 40
        E 0 82 2b 40
        E 16 92 24 64
        E 0 92 30 64
        E 80 82 24 40
        E 0 82 30 40
        E 16 92 24 64
        E 0 92 30 64
        E 368 82 24 40
        E 0 82 30 40
        E 16 92 3c 64
        E 0 92 30 64
        E 80 82 3c 40
        E 0 82 30 40
        E 16 92 3c 64
        E 0 92 30 64
        E 16 82 3c 40
        E 0 82 30 40
        E 16 92 3c 64
        E 0 92 30 64
        E 16 82 3c 40
        E 0 82 30 40
        E 16 92 3c 64
        E 0 92 30 64
        E 16 82 3c 40
        E 0 82 30 40
        E 16 92 30 64
        E 0 92 3c 64
        E 80 82 30 40
        E 0 82 3c 40
        E 16 92 30 64
        E 0 92 3c 64
        E 80 82 30 40
        E 0 82 3c 40
        E 16 92 28 64
        E 0 92 34 64
        E 176 82 28 40
        E 0 82 34 40
        E 16 92 30 64
        E 0 92 24 64
        E 176 82 30 40
        E 0 82 24 40
        E 16 92 2e 64
        E 0 92 3a 64
        E 80 82 2e 40
        E 0 82 3a 40
        E 16 92 30 64
        E 0 92 3c 64
        E 80 82 30 40
        E 0 82 3c 40
        E 16 92 28 64
        E 0 92 34 64
        E 80 82 28 40
        E 0 82 34 40
        E 16 92 2b 64
        E 0 92 37 64
        E 80 82 2b 40
        E 0 82 37 40
        E 16 92 24 64
        E 0 92 30 64
        E 464 82 24 40
        E 0 82 30 40
        E 16 92 24 64
        E 0 92 30 64
        E 80 82 24 40
        E 0 82 30 40
        E 16 92 28 64
        E 0 92 34 64
        E 80 82 28 40
        E 0 82 34 40
        E 16 92 37 64
        E 0 92 2b 64
        E 80 82 37 40
        E 0 82 2b 40
        E 16 92 29 64
        E 0 92 35 64
        E 464 82 29 40
        E 0 82 35 40
        E 16 92 30 64
        E 0 92 3c 64
        E 80 82 30 40
        E 0 82 3c 40
        E 16 92 2d 64
        E 0 92 39 64
        E 80 82 2d 40
        E 0 82 39 40
        E 16 92 29 64
        E 0 92 35 64
        E 80 82 29 40
        E 0 82 35 40
        E 16 92 24 64
        E 0 92 30 64
        E 368 82 24 40
        E 0 82 30 40
        E 16 92 28 64
        E 0 92 34 64
        E 368 82 28 40
        E 0 82 34 40
        E 16 92 29 64
        E 0 92 30 64
        E 0 92 35 64
        E 176 82 29 40
        E 0 82 30 40
        E 0 82 35 40
        E 16 92 30 64
        E 0 92 35 64
        E 0 92 29 64
        E 128 82 30 40
        E 0 82 35 40
        E 0 82 29 40
        E 16 92 30 64
        E 0 92 35 64
        E 0 92 29 64
        E 32 82 30 40
        E 0 82 35 40
        E 0 82 29 40
        E 16 92 29 64
        E 0 92 30 64
        E 0 92 35 64
        E 176 82 29 40
        E 0 82 30 40
        E 0 82 35 40
        E 208 92 29 64
        E 0 92 35 64
        E 272 82 29 40
        E 0 82 35 40
        E 112 92 2e 64
        E 0 92 3a 64
        E 272 82 2e 40
        E 0 82 3a 40
        E 112 92 34 64
        E 0 92 28 64
        E 272 82 34 40
        E 0 82 28 40
        E 112 92 24 64
        E 0 92 30 64
        E 272 82 24 40
        E 0 82 30 40
        E 112 92 30 64
        E 0 92 24 64
        E 560 82 30 40
        E 0 82 24 40
        E 208 92 35 64
        E 0 92 29 64
        E 560 82 35 40
        E 0 82 29 40
        E 208 92 37 64
        E 0 92 2b 64
        E 176 82 37 40
        E 0 82 2b 40
        E 16 92 29 64
        E 0 92 35 64
        E 176 82 29 40
        E 0 82 35 40
        E 16 92 34 64
        E 0 92 28 64
        E 176 82 34 40
        E 0 82 28 40
        E 16 92 24 64
        E 0 92 30 64
        E 176 82 24 40
        E 0 82 30 40
        E 16 92 35 64
        E 0 92 29 64
        E 176 82 35 40
        E 0 82 29 40
        E 16 92 37 64
        E 0 92 2b 64
        E 176 82 37 40
        E 0 82 2b 40
        E 16 92 39 64
        E 0 92 2d 64
        E 176 82 39 40
        E 0 82 2d 40
        E 16 92 2e 64
        E 0 92 3a 64
        E 176 82 2e 40
        E 0 82 3a 40
        E 16 92 30 64
        E 0 92 3c 64
        E 272 82 30 40
        E 0 82 3c 40
        E 16 92 3e 64
        E 0 92 32 64
        E 80 82 3e 40
        E 0 82 32 40
        E 16 92 30 64
        E 0 92 3c 64
        E 80 82 30 40
        E 0 82 3c 40
        E 16 92 2e 64
        E 0 92 3a 64
        E 80 82 2e 40
        E 0 82 3a 40
        E 16 92 2d 64
        E 0 92 39 64
        E 80 82 2d 40
        E 0 82 39 40
        E 16 92 2b 64
        E 0 92 37 64
        E 80 82 2b 40
        E 0 82 37 40
        E 16 92 35 64
        E 0 92 29 64
        E 80 82 35 40
        E 0 82 29 40
        E 16 92 29 64
        E 0 92 35 64
        E 80 82 29 40
        E 0 82 35 40
        E 16 92 28 64
        E 0 92 34 64
        E 80 82 28 40
        E 0 82 34 40
        E 16 92 26 64
        E 0 92 32 64
        E 80 82 26 40
        E 0 82 32 40
        E 16 92 24 64
        E 0 92 30 64
        E 80 82 24 40
        E 0 82 30 40
        E 16 92 2e 64
        E 0 92 3a 64
        E 80 82 2e 40
        E 0 82 3a 40
        E 16 92 2d 64
        E 0 92 39 64
        E 80 82 2d 40
        E 0 82 39 40
        E 16 92 2b 64
        E 0 92 37 64
        E 80 82 2b 40
        E 0 82 37 40
        E 16 92 29 64
        E 0 92 35 64
        E 176 82 29 40
        E 0 82 35 40
        E 16 92 2b 64
        E 0 92 37 64
        E 176 82 2b 40
        E 0 82 37 40
        E 16 92 29 64
        E 0 92 35 64
        E 176 82 29 40
        E 0 82 35 40
        E 16 92 2e 64
        E 0 92 3a 64
        E 176 82 2e 40
        E 0 82 3a 40
        E 16 92 2d 64
        E 0 92 39 64
        E 176 82 2d 40
        E 0 82 39 40
        E 16 92 2b 64
        E 0 92 37 64
        E 176 82 2b 40
        E 0 82 37 40
        E 16 92 29 64
        E 0 92 35 64
        E 176 82 29 40
        E 0 82 35 40
        E 16 92 2b 64
        E 0 92 37 64
        E 80 82 2b 40
        E 0 82 37 40
        E 16 92 2d 64
        E 0 92 39 64
        E 80 82 2d 40
        E 0 82 39 40
        E 16 92 3c 64
        E 0 92 30 64
        E 176 82 3c 40
        E 0 82 30 40
        E 16 92 30 64
        E 0 92 3c 64
        E 80 82 30 40
        E 0 82 3c 40
        E 16 92 30 64
        E 0 92 3c 64
        E 80 82 30 40
        E 0 82 3c 40
        E 16 92 2e 64
        E 0 92 3a 64
        E 80 82 2e 40
        E 0 82 3a 40
        E 16 92 24 64
        E 0 92 30 64
        E 80 82 24 40
        E 0 82 30 40
        E 16 92 34 64
        E 0 92 28 64
        E 80 82 34 40
        E 0 82 28 40
        E 16 92 2b 64
        E 0 92 37 64
        E 80 82 2b 40
        E 0 82 37 40
        E 16 92 3a 64
        E 0 92 2e 64
        E 80 82 3a 40
        E 0 82 2e 40
        E 16 92 39 64
        E 0 92 2d 64
        E 80 82 39 40
        E 0 82 2d 40
        E 16 92 2b 64
        E 0 92 37 64
        E 80 82 2b 40
        E 0 82 37 40
        E 16 92 29 64
        E 0 92 35 64
        E 80 82 29 40
        E 0 82 35 40
        E 16 92 3a 64
        E 0 92 2e 64
        E 80 82 3a 40
        E 0 82 2e 40
        E 16 92 30 64
        E 0 92 3c 64
        E 80 82 30 40
        E 0 82 3c 40
        E 16 92 28 64
        E 0 92 34 64
        E 80 82 28 40
        E 0 82 34 40
        E 16 92 2b 64
        E 0 92 37 64
        E 80 82 2b 40
        E 0 82 37 40
        E 16 92 30 64
        E 0 92 24 64
        E 464 82 30 40
        E 0 82 24 40
        E 16 92 24 64
        E 0 92 30 64
        E 80 82 24 40
        E 0 82 30 40
        E 16 92 28 64
        E 0 92 34 64
        E 80 82 28 40
        E 0 82 34 40
        E 16 92 2b 64
        E 0 92 37 64
        E 80 82 2b 40
        E 0 82 37 40
        E 16 92 29 64
        E 0 92 35 64
        E 464 82 29 40
        E 0 82 35 40
        E 16 92 30 64
        E 0 92 3c 64
        E 80 82 30 40
        E 0 82 3c 40
        E 16 92 2d 64
        E 0 92 39 64
        E 80 82 2d 40
        E 0 82 39 40
        E 16 92 35 64
        E 0 92 29 64
        E 80 82 35 40
        E 0 82 29 40
        E 16 92 28 64
        E 0 92 34 64
        E 368 82 28 40
        E 0 82 34 40
        E 16 92 24 64
        E 0 92 30 64
        E 368 82 24 40
        E 0 82 30 40
        E 16 92 29 64
        E 0 92 35 64
        E 176 82 29 40
        E 0 82 35 40
        E 16 92 29 64
        E 0 92 35 64
        E 128 82 29 40
        E 0 82 35 40
        E 16 92 29 64
        E 0 92 35 64
        E 32 82 29 40
        E 0 82 35 40
        E 16 92 29 64
        E 0 92 35 64
        E 176 82 29 40
        E 0 82 35 40
        E 16 b0 7b 00
        GUID {44815931-6C34-CE44-A578-7DBC38CC7A90}
        IGNTEMPO 0 120 4 4
        SRCCOLOR 200
        VELLANE -1 86 6
        CFGEDITVIEW 0 11.073684 65 12 0 0 0 0 0
        KEYSNAP 0 3 102304056070 0 "Natural minor"
        TRACKSEL 252 0 0 ""
        EVTFILTER 0 -1 -1 -1 -1 0 0 0 0 -1 -1 -1 -1 0 -1 0 -1 -1
        CFGEDIT 1 0 0 0 0 0 1 0 1 1 1 0.25 285 20 1280 633 0 0 2 3 0 0 0 0 0 0.5 0 0 1 64
      >
    >
  >
  <TRACK {BE34EA7E-2789-BE43-9D9C-227AFB60631D}
    NAME "ch5 (send bass)"
    PEAKCOL 16576
    BEAT -1
    AUTOMODE 0
    VOLPAN 1 0 -1 -1 1
    MUTESOLO 0 0 0
    IPHASE 0
    ISBUS 2 -1
    BUSCOMP 0 0
    SHOWINMIX 1 0.6667 0.377358 1 0.5 -1 -1 -1
    FREEMODE 0
    SEL 0
    REC 0 0 0 0 0 0 0
    VU 2
    TRACKHEIGHT 0 0
    INQ 0 0 0 0.5 100 0 0 100
    NCHAN 2
    FX 1
    TRACKID {BE34EA7E-2789-BE43-9D9C-227AFB60631D}
    PERF 0
    MIDIOUT -1
    MAINSEND 1 0
  >
  <TRACK {B91E5163-8C2B-404F-8C78-0605AAF52936}
    NAME ChipFront
    PEAKCOL 16576
    BEAT -1
    AUTOMODE 0
    VOLPAN 1 0 -1 -1 1
    MUTESOLO 0 0 0
    IPHASE 0
    ISBUS 0 0
    BUSCOMP 0 0
    SHOWINMIX 1 0.6667 0.377358 1 0.5 -1 -1 -1
    FREEMODE 0
    SEL 0
    REC 0 0 0 0 0 0 0
    VU 2
    TRACKHEIGHT 0 0
    INQ 0 0 0 0.5 100 0 0 100
    NCHAN 4
    FX 1
    TRACKID {B91E5163-8C2B-404F-8C78-0605AAF52936}
    PERF 0
    AUXRECV 5 0 1 0 0 0 0 0 0 -1 0 -1 ''
    MIDIOUT -1
    MAINSEND 1 0
    <FXCHAIN
      SHOW 0
      LASTSEL 0
      DOCKED 0
      BYPASS 0 0 0
      <VST "VST: FabFilter Volcano 2 (SC) (FabFilter)" "FabFilter Volcano 2 (SC).vst" 0 ""
        NDJWRu9e7f4EAAAAAQAAAAAAAAACAAAAAAAAAAQAAAAAAAAACAAAAAAAAAAEAAAAAQAAAAAAAAACAAAAAAAAAAQAAAAAAAAACAAAAAAAAADcCwAAAAAAAAAAEADvvq3e
        DfCt3gAAAD8AAAA/AAAAPwAAAD8AAIA/AAAAAAAAAD+rqqo+rb5oPwAAAD+KDTI8zczMPQAAAAAAAAAAAAAAAAAAgD8AAIA/Qix2PwAAAD9tsOA9mpkZPwAAAAAAAAAA
        56/fPAAAgD8AAAAAAACAPwAAAD8AAAAAmpkZPwAAAAAAAAAAAAAAAAAAgD8AAAAAAACAPwAAAD8AAAAAmpkZPwAAAAAAAAAAAAAAAAAAgD8AAAAAq6qqPgBOsj4AAAA/
        AAAAAMHKST9ddFE/AAAAAImIiD0AAIA/qheIPgAAAAAAAAAAAAAAAAAAAAAAAIA/AAAAAAAAAD8AAAAAAAAAAAAAAAAAAAA/AAAAAAAAAAAAAAAAAAAAPwAAAAAAAAAA
        AAAAAAAAAD8AAAAAAAAAAAAAAAAAAAA/AAAAAAAAAAAAAAAAAAAAPwAAAAAAAAAAAAAAAAAAAD8AAAAAAAAAAAAAAAAAAAA/AAAAAAAAAAAAAAAAAAAAPwAAAAAAAAAA
        AAAAAAAAAD8AAAAAAAAAAAAAAAAAAAA/AAAAAAAAAAAAAAAAAAAAPwAAAAAAAAAAAAAAAAAAAD8AAAAAAAAAAAAAAAAAAAA/AAAAAAAAAAAAAAAAfBkQPgAAAD8oo7c9
        AACAPwAAAAAAAAAAiYiIPfLSJT8AAAAAAACAPwAAAAB0aNE9AAAAAAAAgD8AAAAAAAAAPwAAAAAAAAAAAAAAAAAAAD8AAAAAAAAAAAAAAAAAAAA/AAAAAAAAAAAAAAAA
        AAAAPwAAAAAAAAAAAAAAAAAAAD8AAAAAAAAAAAAAAAAAAAA/AAAAAAAAAAAAAAAAAAAAPwAAAAAAAAAAAAAAAAAAAD8AAAAAAAAAAAAAAAAAAAA/AAAAAAAAAAAAAAAA
        AAAAPwAAAAAAAAAAAAAAAAAAAD8AAAAAAAAAAAAAAAAAAAA/AAAAAAAAAAAAAAAAAAAAPwAAAAAAAAAAAAAAAAAAAD8AAAAAAAAAAAAAAAC+9H0+AAAAPwAAAD8AAAA/
        AAAAAAAAAACJiIg9AAAAPwAAAAAAAAAAAAAAAAAAAD8AAAAAAAAAAAAAAAAAAAA/AAAAAAAAAAAAAAAAAAAAPwAAAAAAAAAAAAAAAAAAAD8AAAAAAAAAAAAAAAAAAAA/
        AAAAAAAAAAAAAAAAAAAAPwAAAAAAAAAAAAAAAAAAAD8AAAAAAAAAAAAAAAAAAAA/AAAAAAAAAAAAAAAAAAAAPwAAAAAAAAAAAAAAAAAAAD8AAAAAAAAAAAAAAAAAAAA/
        AAAAAAAAAAAAAAAAAAAAPwAAAAAAAAAAAAAAAAAAAD8AAAAAAAAAAAAAAAAAAAA/AAAAAAAAAAAAAAAAAAAAPwAAAAAAAAAAAAAAAL70fT4AAAA/AAAAPwAAAD8AAAAA
        AAAAAImIiD0AAAA/AAAAAAAAAAAAAAAAAAAAPwAAAAAAAAAAAAAAAAAAAD8AAAAAAAAAAAAAAAAAAAA/AAAAAAAAAAAAAAAAAAAAPwAAAAAAAAAAAAAAAAAAAD8AAAAA
        AAAAAAAAAAAAAAA/AAAAAAAAAAAAAAAAAAAAPwAAAAAAAAAAAAAAAAAAAD8AAAAAAAAAAAAAAAAAAAA/AAAAAAAAAAAAAAAAAAAAPwAAAAAAAAAAAAAAAAAAAD8AAAAA
        AAAAAAAAAAAAAAA/AAAAAAAAAAAAAAAAAAAAPwAAAAAAAAAAAAAAAAAAAD8AAAAAAAAAAAAAAAAAAAA/AAAAAAAAAAAAAAAAvvR9PgAAAD8AAAA/AAAAPwAAAAAAAAAA
        iYiIPQAAAD8AAAAAAAAAAAAAAAAAAAA/AAAAAAAAAAAAAAAAAAAAPwAAAAAAAAAAAAAAAAAAAD8AAAAAAAAAAAAAAAAAAAA/AAAAAAAAAAAAAAAAAAAAPwAAAAAAAAAA
        AAAAAAAAAD8AAAAAAAAAAAAAAAAAAAA/AAAAAAAAAAAAAAAAAAAAPwAAAAAAAAAAAAAAAAAAAD8AAAAAAAAAAAAAAAAAAAA/AAAAAAAAAAAAAAAAAAAAPwAAAAAAAAAA
        AAAAAAAAAD8AAAAAAAAAAAAAAAAAAAA/AAAAAAAAAAAAAAAAAAAAPwAAAAAAAAAAAAAAAAAAAD8AAAAAAAAAAAAAAAC+9H0+AAAAPwAAAD8AAAA/AAAAAAAAAACJiIg9
        AAAAPwAAAAAAAAAAAAAAAAAAAD8AAAAAAAAAAAAAAAAAAAA/AAAAAAAAAAAAAAAAAAAAPwAAAAAAAAAAAAAAAAAAAD8AAAAAAAAAAAAAAAAAAAA/AAAAAAAAAAAAAAAA
        AAAAPwAAAAAAAAAAAAAAAAAAAD8AAAAAAAAAAAAAAAAAAAA/AAAAAAAAAAAAAAAAAAAAPwAAAAAAAAAAAAAAAAAAAD8AAAAAAAAAAAAAAAAAAAA/AAAAAAAAAAAAAAAA
        AAAAPwAAAAAAAAAAAAAAAAAAAD8AAAAAAAAAAAAAAAAAAAA/AAAAAAAAAAAAAAAAAAAAPwAAAAAAAAAAAAAAAAAAAACamZk+AAAAAAAAAAAAAAAAAACAPwAAAACamZk+
        AAAAAAAAAAAAAAAAAACAPwAAAACamZk+AAAAAAAAAAAAAAAAAACAPwAAAACamZk+AAAAAAAAAAAAAAAAAACAPwAAAACamZk+AAAAAAAAAAAAAAAAAACAPwAAAACamZk+
        AAAAAAAAAAAAAAAAAACAPwAAAAAAAAAAAAAAAAAAAAAAAAAAAAAAAAAAAAAAAAAAAAAAAAAAAAAAAAAAAAAAAAAAAAAAAAAAAAAAAAAAAAAAAAAAAAAAAAAAAAAAAAAA
        AAAAAAAAAAAAAAAAAAAAAAAAAAAAAAAAAAAAAAAAAAAAAAAAAAAAAAAAAAAAAAAAAAAAAAAAAAAAAAAAAAAAAAAAAAAAAAAAq6oqPdmJnT2BKFY+AAAAAAAAAAC/55Y9
        AAAAAAAAAD8AAAAAAAAAAAAAAAAAAAAAAAAAPwAAAAAAAAAAAAAAAAAAAAAAAAA/AAAAAAAAAAAAAAAAAAAAAAAAAAAAAAAAAAAAAAAAAAAAAAAAAAAAAAAAAAAAAAAA
        AAAAAAAAAAAAAAAAAAAAAAAAAAAAAAAAAAAAAAAAAAAAAAAAAAAAAAAAAAAAAAAAAAAAAAAAAAAAAAAAAAAAAAAAAAAAAAAAAAAAAAAAAAAAAAAAAAAAAAAAAAAAAAAA
        AAAAAAAAAAAAAAAAAAAAAAAAAAAAAAAAAAAAAAAAAAAAAAAAAAAAAAAAAAAAAAAAAAAAAAAAAAAAAAAAAAAAAAAAAAAAAAAAAAAAAAAAAAAAAAAAAAAAAAAAAAAAAAAA
        AAAAAAAAAAAAAAAAAAAAAAAAAAAAAAAAAAAAAAAAAAAAAAAAAAAAAAAAAAAAAAAAAAAAAAAAAAAAAAAAAAAAAAAAAAAAAAAAAAAAAAAAAAAAAAAAAAAAAAAAAAAAAAAA
        AAAAAAAAAAAAAAAAAAAAAAAAAAAAAAAAAAAAAAAAAAAAAAAAAAAAAAAAAAAAAAAAAAAAAAAAAAAAAAAAAAAAAAAAAAAAAAAAAAAAAAAAAAAAAAA/AAAAPwAAAD8AAAA/
        AAAAPwAAAD8AAAA/AAAAPwAAAAAAAAAAAAAAAAAAAAAAAAAAAAAAAAAAAAAAAAAAAAAAAAAAAAAAAAAAAAAAAAAAAAAAAAAAAAAAAAAAAAAAAAAAAAAAAAAAAAAAAAAA
        AAAAAAAAAAAAAAAAAAAAAAAAAAAAAAAAAAAAAAAAAAAAAAAAAAAAAAAAAAAAAAAAAAAAAAAAAAAAAAAAAAAAAAAAAAAAAAAAAAAAAAAAAAAAAAAAAAAAAAAAAAAAAAAA
        AAAAAAAAAAAAAAAAAAAAAAAAAAAAAAAAAAAAAAAAAAAAAAAAAAAAAAAAAAAAAAAAAAAAAAAAAAAAAAAAAAAAAAAAAAAAAAAAAAAAAAAAAAAAAAAAAAAAAAAAAAAAAAAA
        AAAAAAAAAAAAAAAAAAAAAAAAAAAAAAAAAAAAAAAAAAAAAAAAAAAAAAAAAAAAAAAAAAAAAAAAAABDaGlwRnJvbnQAQ2hpcEZyb250ABAAAAA=
      >
      FLOATPOS 36 32 641 529
      FXID {4C5A6810-F3ED-0645-A06D-6758F70CB097}
      WAK 0
    >
  >
  <TRACK {4E9F66C4-38E7-4946-B39F-214CBB1CFB8B}
    NAME ChipSide
    PEAKCOL 16576
    BEAT -1
    AUTOMODE 0
    VOLPAN 1 0 -1 -1 1
    MUTESOLO 0 0 0
    IPHASE 0
    ISBUS 0 0
    BUSCOMP 0 0
    SHOWINMIX 1 0.6667 0.377358 1 0.5 -1 -1 -1
    FREEMODE 0
    SEL 0
    REC 0 0 0 0 0 0 0
    VU 2
    TRACKHEIGHT 0 0
    INQ 0 0 0 0.5 100 0 0 100
    NCHAN 4
    FX 1
    TRACKID {4E9F66C4-38E7-4946-B39F-214CBB1CFB8B}
    PERF 0
    AUXRECV 5 0 1.03113579563571 0 0 0 0 2 0 -1 0 -1 ''
    MIDIOUT -1
    MAINSEND 1 0
    <FXCHAIN
      SHOW 0
      LASTSEL 0
      DOCKED 0
      BYPASS 0 0 0
      <VST "VST: FabFilter Volcano 2 (SC) (FabFilter)" "FabFilter Volcano 2 (SC).vst" 0 ""
        NDJWRu9e7f4EAAAAAQAAAAAAAAACAAAAAAAAAAQAAAAAAAAACAAAAAAAAAAIAAAAAQAAAAAAAAACAAAAAAAAAAQAAAAAAAAACAAAAAAAAAAQAAAAAAAAACAAAAAAAAAA
        QAAAAAAAAACAAAAAAAAAANwLAAAAAAAAAAAQAO++rd4N8K3eAAAAPwAAAD8AAAA/AAAAPwAAgD8AAAAAAACAP6uqqj7KZRQ/AAAAP08aoD3NzMw9AAAAAAAAAABChiI/
        AACAPwAAgD9CLHY/AAAAP22w4D2amRk/AAAAAAAAAADnr988AACAPwAAAAAAAIA/AAAAPwAAAACamRk/AAAAAAAAAAAAAAAAAACAPwAAAAAAAIA/AAAAPwAAAACamRk/
        AAAAAAAAAAAAAAAAAACAPwAAAACrqqo+gnQAPRDmyT2YJ/o+AACAPwAAAAAAAAAAiYgIPgAAgD+zw7Q+AACAPwAAAAAAAAAAAAAAAKuqqj4AAAAAnhUdPwAAAAAAAIA/
        AAAAAAAAAD8AAAAAAAAAAAAAAAAAAAA/AAAAAAAAAAAAAAAAAAAAPwAAAAAAAAAAAAAAAAAAAD8AAAAAAAAAAAAAAAAAAAA/AAAAAAAAAAAAAAAAAAAAPwAAAAAAAAAA
        AAAAAAAAAD8AAAAAAAAAAAAAAAAAAAA/AAAAAAAAAAAAAAAAAAAAPwAAAAAAAAAAAAAAAAAAAD8AAAAAAAAAAAAAAAAAAAA/AAAAAAAAAAAAAAAAAAAAPwAAAAAAAAAA
        AAAAAAAAAD8AAAAAAAAAAAAAAAB8GRA+AAAAPyijtz0AAIA/AAAAAAAAAACJiIg98tIlPwAAAAAAAIA/AAAAAHRo0T0AAAAAAACAPwAAAAAAAAA/AAAAAAAAAAAAAAAA
        AAAAPwAAAAAAAAAAAAAAAAAAAD8AAAAAAAAAAAAAAAAAAAA/AAAAAAAAAAAAAAAAAAAAPwAAAAAAAAAAAAAAAAAAAD8AAAAAAAAAAAAAAAAAAAA/AAAAAAAAAAAAAAAA
        AAAAPwAAAAAAAAAAAAAAAAAAAD8AAAAAAAAAAAAAAAAAAAA/AAAAAAAAAAAAAAAAAAAAPwAAAAAAAAAAAAAAAAAAAD8AAAAAAAAAAAAAAAAAAAA/AAAAAAAAAAAAAAAA
        AAAAPwAAAAAAAAAAAAAAAL70fT4AAAA/AAAAPwAAAD8AAAAAAAAAAImIiD0AAAA/AAAAAAAAAAAAAAAAAAAAPwAAAAAAAAAAAAAAAAAAAD8AAAAAAAAAAAAAAAAAAAA/
        AAAAAAAAAAAAAAAAAAAAPwAAAAAAAAAAAAAAAAAAAD8AAAAAAAAAAAAAAAAAAAA/AAAAAAAAAAAAAAAAAAAAPwAAAAAAAAAAAAAAAAAAAD8AAAAAAAAAAAAAAAAAAAA/
        AAAAAAAAAAAAAAAAAAAAPwAAAAAAAAAAAAAAAAAAAD8AAAAAAAAAAAAAAAAAAAA/AAAAAAAAAAAAAAAAAAAAPwAAAAAAAAAAAAAAAAAAAD8AAAAAAAAAAAAAAAAAAAA/
        AAAAAAAAAAAAAAAAvvR9PgAAAD8AAAA/AAAAPwAAAAAAAAAAiYiIPQAAAD8AAAAAAAAAAAAAAAAAAAA/AAAAAAAAAAAAAAAAAAAAPwAAAAAAAAAAAAAAAAAAAD8AAAAA
        AAAAAAAAAAAAAAA/AAAAAAAAAAAAAAAAAAAAPwAAAAAAAAAAAAAAAAAAAD8AAAAAAAAAAAAAAAAAAAA/AAAAAAAAAAAAAAAAAAAAPwAAAAAAAAAAAAAAAAAAAD8AAAAA
        AAAAAAAAAAAAAAA/AAAAAAAAAAAAAAAAAAAAPwAAAAAAAAAAAAAAAAAAAD8AAAAAAAAAAAAAAAAAAAA/AAAAAAAAAAAAAAAAAAAAPwAAAAAAAAAAAAAAAAAAAD8AAAAA
        AAAAAAAAAAC+9H0+AAAAPwAAAD8AAAA/AAAAAAAAAACJiIg9AAAAPwAAAAAAAAAAAAAAAAAAAD8AAAAAAAAAAAAAAAAAAAA/AAAAAAAAAAAAAAAAAAAAPwAAAAAAAAAA
        AAAAAAAAAD8AAAAAAAAAAAAAAAAAAAA/AAAAAAAAAAAAAAAAAAAAPwAAAAAAAAAAAAAAAAAAAD8AAAAAAAAAAAAAAAAAAAA/AAAAAAAAAAAAAAAAAAAAPwAAAAAAAAAA
        AAAAAAAAAD8AAAAAAAAAAAAAAAAAAAA/AAAAAAAAAAAAAAAAAAAAPwAAAAAAAAAAAAAAAAAAAD8AAAAAAAAAAAAAAAAAAAA/AAAAAAAAAAAAAAAAAAAAPwAAAAAAAAAA
        AAAAAL70fT4AAAA/AAAAPwAAAD8AAAAAAAAAAImIiD0AAAA/AAAAAAAAAAAAAAAAAAAAPwAAAAAAAAAAAAAAAAAAAD8AAAAAAAAAAAAAAAAAAAA/AAAAAAAAAAAAAAAA
        AAAAPwAAAAAAAAAAAAAAAAAAAD8AAAAAAAAAAAAAAAAAAAA/AAAAAAAAAAAAAAAAAAAAPwAAAAAAAAAAAAAAAAAAAD8AAAAAAAAAAAAAAAAAAAA/AAAAAAAAAAAAAAAA
        AAAAPwAAAAAAAAAAAAAAAAAAAD8AAAAAAAAAAAAAAAAAAAA/AAAAAAAAAAAAAAAAAAAAPwAAAAAAAAAAAAAAAAAAAD8AAAAAAAAAAAAAAAAAAAA/AAAAAAAAAAAAAAAA
        AAAAAJqZmT4AAAAAAAAAAAAAAAAAAIA/AAAAAJqZmT4AAAAAAAAAAAAAAAAAAIA/AAAAAJqZmT4AAAAAAAAAAAAAAAAAAIA/AAAAAJqZmT4AAAAAAAAAAAAAAAAAAIA/
        AAAAAJqZmT4AAAAAAAAAAAAAAAAAAIA/AAAAAJqZmT4AAAAAAAAAAAAAAAAAAIA/AAAAAAAAAAAAAAAAAAAAAAAAAAAAAAAAAAAAAAAAAAAAAAAAAAAAAAAAAAAAAAAA
        AAAAAAAAAAAAAAAAAAAAAAAAAAAAAAAAAAAAAAAAAAAAAAAAAAAAAAAAAAAAAAAAAAAAAAAAAAAAAAAAAAAAAAAAAAAAAAAAAAAAAAAAAAAAAAAAAAAAAAAAAAAAAAAA
        AAAAAAAAAACrqqo92YmdPYEoVj4AAIA/AAAAAL/nlj3ZiR09FrMxPwAAAAAAAAAAknYsPAAAAAAAAAA/AAAAAAAAAAAAAAAAAAAAAAAAAD8AAAAAAAAAAAAAAAAAAAAA
        AAAAAAAAAAAAAAAAAAAAAAAAAAAAAAAAAAAAAAAAAAAAAAAAAAAAAAAAAAAAAAAAAAAAAAAAAAAAAAAAAAAAAAAAAAAAAAAAAAAAAAAAAAAAAAAAAAAAAAAAAAAAAAAA
        AAAAAAAAAAAAAAAAAAAAAAAAAAAAAAAAAAAAAAAAAAAAAAAAAAAAAAAAAAAAAAAAAAAAAAAAAAAAAAAAAAAAAAAAAAAAAAAAAAAAAAAAAAAAAAAAAAAAAAAAAAAAAAAA
        AAAAAAAAAAAAAAAAAAAAAAAAAAAAAAAAAAAAAAAAAAAAAAAAAAAAAAAAAAAAAAAAAAAAAAAAAAAAAAAAAAAAAAAAAAAAAAAAAAAAAAAAAAAAAAAAAAAAAAAAAAAAAAAA
        AAAAAAAAAAAAAAAAAAAAAAAAAAAAAAAAAAAAAAAAAAAAAAAAAAAAAAAAAAAAAAAAAAAAAAAAAAAAAAAAAAAAAAAAAAAAAAAAAAAAAAAAAAAAAAAAAAAAAAAAAAAAAAAA
        AAAAAAAAAAAAAAAAAAAAAAAAAD8AAAA/AAAAPwAAAD8AAAA/AAAAPwAAAD8AAAA/AAAAAAAAAAAAAAAAAAAAAAAAAAAAAAAAAAAAAAAAAAAAAAAAAAAAAAAAAAAAAAAA
        AAAAAAAAAAAAAAAAAAAAAAAAAAAAAAAAAAAAAAAAAAAAAAAAAAAAAAAAAAAAAAAAAAAAAAAAAAAAAAAAAAAAAAAAAAAAAAAAAAAAAAAAAAAAAAAAAAAAAAAAAAAAAAAA
        AAAAAAAAAAAAAAAAAAAAAAAAAAAAAAAAAAAAAAAAAAAAAAAAAAAAAAAAAAAAAAAAAAAAAAAAAAAAAAAAAAAAAAAAAAAAAAAAAAAAAAAAAAAAAAAAAAAAAAAAAAAAAAAA
        AAAAAAAAAAAAAAAAAAAAAAAAAAAAAAAAAAAAAAAAAAAAAAAAAAAAAAAAAAAAAAAAAAAAAAAAAAAAAAAAAAAAAAAAAAAAAAAAAAAAAAAAAAAAAAAAAAAAAENoaXBTaWRl
        AENoaXBTaWRlABAAAAA=
      >
      FLOATPOS 36 32 641 529
      FXID {20356A84-5CFD-6E4A-AA26-2A8A49CE7A76}
      WAK 0
    >
  >
  <EXTENSIONS
    <SWSAUTOCOLOR
      {00000000-0000-0000-0000-000000000000} 0 ""
      {F4CC3575-1D7D-424F-8F4B-C71B325A2484} 0 ""
    >
    <XENAKIOSCOMMANDS
      REFTRACK 0 6 1 "000000000000"
    >
    <BR_CURSOR_POS 04
      0.00000000000000
    >
  >
>
