<REAPER_PROJECT 0.1 "5.20rc3/OSX64" 1462791877
  <NOTES 1
    |vst Gladiator <-- See Changes !!
  >
  RIPPLE 0
  GROUPOVERRIDE 0 0 0
  AUTOXFADE 0
  ENVATTACH 1
  MIXERUIFLAGS 11 53
  PEAKGAIN 1
  FEEDBACK 0
  PANLAW 1
  PROJOFFS 0 0
  MAXPROJLEN 0 600
  GRID 174206 8 1 8 1 0 0
  TIMEMODE 6 0 -1 24 2
  PANMODE 3
  CURSOR 0
  ZOOM 8.33979782667089 0 0
  VZOOMEX 0
  USE_REC_CFG 0
  RECMODE 1
  SMPTESYNC 0 23.976024 100 40 1000 300 0 0 1
  MIDIEDITOR -171672382
  LOOP 1
  LOOPGRAN 0 4
  RECORD_PATH "" ""
  <RECORD_CFG
    ZXZhdxAAAA==
  >
  <APPLYFX_CFG
  >
  RENDER_FILE "/Users/samenglander/_create/Reaper/Projects/Magee_ColorFlags/NewAnthems_Render/UnitedArabEmiratesMix.mp3"
  RENDER_FMT 0 2 44100
  RENDER_1X 0
  RENDER_RANGE 2 0 0 18 1000
  RENDER_RESAMPLE 3 0 1
  RENDER_ADDTOPROJ 0
  RENDER_STEMS 0
  RENDER_DITHER 0
  TIMELOCKMODE 1
  TEMPOENVLOCKMODE 1
  ITEMMIX 1
  DEFPITCHMODE 589824
  TAKELANE 3
  SAMPLERATE 44100 0 0
  <RENDER_CFG
    bDNwbSAAAAABAAAABQAAAAAAAAAAAAAAQAEAAAAAAAA=
  >
  LOCK 1
  <METRONOME 6 2
    VOL 0.25 0.125
    FREQ 800 1600 1
    BEATLEN 4
    SAMPLES "" ""
    PATTERN 2863311530 2863311529
  >
  GLOBAL_AUTO -1
  TEMPO 120 4 4
  PLAYRATE 1 0 0.25 4
  SELECTION 32 0
  SELECTION2 32 0
  MASTERAUTOMODE 0
  MASTERTRACKHEIGHT 0
  MASTERPEAKCOL 16576
  MASTERMUTESOLO 0
  MASTERTRACKVIEW 0 0.6667 0.377358 0.5 0 0 0
  MASTERHWOUT 0 0 1 0 0 0 0 -1
  MASTER_NCH 2 2
  MASTER_VOLUME 1 0 -1 -1 1
  MASTER_FX 1
  MASTER_SEL 0
  <MASTERPLAYSPEEDENV
    ACT 0
    VIS 0 1 1
    LANEHEIGHT 0 0
    ARM 0
    DEFSHAPE 0 -1 -1
  >
  <TEMPOENVEX
    ACT 0
    VIS 1 0 1
    LANEHEIGHT 0 0
    ARM 0
    DEFSHAPE 1 -1 -1
  >
  <PROJBAY
  >
  <TRACK {D342C8E0-76B8-4549-AACB-F68F9BBB586C}
    NAME "16 United States of America"
    PEAKCOL 16576
    BEAT -1
    AUTOMODE 0
    VOLPAN 1 0 -1 -1 1
    MUTESOLO 1 0 0
    IPHASE 0
    ISBUS 0 0
    BUSCOMP 0 0
    SHOWINMIX 1 0.6667 0.377358 1 0.5 0 0 0
    FREEMODE 0
    SEL 0
    REC 0 0 0 0 0 0 0
    VU 2
    TRACKHEIGHT 0 0
    INQ 0 0 0 0.5 100 0 0 100
    NCHAN 2
    FX 1
    TRACKID {D342C8E0-76B8-4549-AACB-F68F9BBB586C}
    PERF 0
    MIDIOUT -1
    MAINSEND 1 0
    <ITEM
      POSITION 0
      SNAPOFFS 0
      LENGTH 57.08437681360368
      LOOP 1
      ALLTAKES 0
      FADEIN 1 0 0 1 0 0
      FADEOUT 1 0 0 1 0 0
      MUTE 0
      SEL 0
      IGUID {E8A8D925-1970-4547-90FA-ACC6782E7E0D}
      IID 11
      NAME "14 United Arab Emirates.mp3"
      VOLPAN 1 0 1 -1
      SOFFS 0.96753181040006
      PLAYRATE 1.06509001926269 1 0 -1 0 0.0025
      CHANMODE 0
      GUID {32B8D9A9-34AD-8B48-A845-ED90EB1C9055}
      <SOURCE MP3
        FILE "14 United Arab Emirates.mp3" 1
      >
    >
  >
  <TRACK {F4CC3575-1D7D-424F-8F4B-C71B325A2484}
    NAME backup
    PEAKCOL 16576
    BEAT -1
    AUTOMODE 0
    VOLPAN 1 0 -1 -1 1
    MUTESOLO 1 0 0
    IPHASE 0
    ISBUS 0 0
    BUSCOMP 0 0
    SHOWINMIX 1 0.6667 0.377358 1 0.5 0 0 0
    FREEMODE 0
    SEL 0
    REC 0 0 0 0 0 0 0
    VU 2
    TRACKHEIGHT 0 0
    INQ 0 0 0 0.5 100 0 0 100
    NCHAN 2
    FX 1
    TRACKID {F4CC3575-1D7D-424F-8F4B-C71B325A2484}
    PERF 0
    MIDIOUT -1
    MAINSEND 1 0
    <FXCHAIN
      SHOW 0
      LASTSEL 0
      DOCKED 0
      BYPASS 0 0 0
      <VST "VSTi: chipsounds (Plogue Art et Technologie, Inc)" chipsounds.vst 0 "" 1347176271
        T0dMUO5e7f4AAAAAAgAAAAEAAAAAAAAAAgAAAAAAAABDAgAAAQAAAAAAEAA=
        Q0VHUBQIAAB4nOVV32/aMBB+719h+Wl7aBInQIYEVIyWCWmoaDBpb9WRXFNrjsMch7X76+c4CYXRqZ60Pe1efHf57sfnU3yjq8dckD2qkhdyTJkXUHI1uRhNFYc17PHo
        0yAI6eSCGBmtUWsus5J8q0Bw/WS+UpKJYgtiVQhjRiElpVYIuYE1Zg6Pa+uZClEky/dj2mfGvVxcL24rvSxStFmg0kUO2pRci0KPqemnTEyGfn2CAONh5JJgXdkrE9G6
        Zyg1qjEdBF0jm0ra2oEXWKHE77o3iQlPbW4JOdYpPbKqFJLZA9/54TT44n9a1Qd5U0nBc64xfUvJFuTXhYljQTCkJHkAKVGM6aVpe2dpswEl+qzubnunQGZYIw9ObVzl
        rijRtpFXulHK73cCSsu76dZ2vAQuu473ICq0kzqldQpkB+AZ/1Ng6AqMXIE9V2DfFThwBcauwHeuwKErkAXOSOfZMOfhMOfpMOfxsNfmswIFeVv+uNN+EA2j+LfY3jOW
        hS9n3oDKULc/Z1Lk3koUWYVe/Sp5H+e3XlWiOv5DbNSsKs3bcQ0aiH7amcgwjAbmskv+wxi9eubdY2bqoUw5NGpqQozSybw5wuDvyilFv+H4p6TZf0J6o3iWoVqbdx5l
        gupV2iwO2bCj3Y+PaIcv0WYt61YaO7Z6NIvnwxMSsyCa/8OLGPn1Rmr1m/t7TPT5iprmW17fxK9bqFtqHz4vugBINN/j4rA/G/vmeZ+iMCUw3cC2WV4mx8jvNv7k4icE
        gATl
        AAAQAAAA
      >
      FLOATPOS 404 36 871 509
      FXID {8431A072-55F4-FD4E-8B7D-D2D9F1493C94}
      WAK 0
    >
    <ITEM
      POSITION 0
      SNAPOFFS 0
      LENGTH 47.5
      LOOP 1
      ALLTAKES 0
      FADEIN 1 0 0 1 0 0
      FADEOUT 1 0 0 1 0 0
      MUTE 0
      SEL 0
      YPOS 0.5 0.166667
      IGUID {21F4B364-8CD7-1F4D-B560-55F9439FFF04}
      IID 4
      NAME "MELODY               - National_Anthems_-_United_Arab_Emirates.mid"
      VOLPAN 1 0 1 -1
      SOFFS 0 0
      PLAYRATE 1 1 0 -1 0 0.0025
      CHANMODE 0
      GUID {6DB9B0C3-6CF5-1B44-A3E2-A5413F3F2BAA}
      <SOURCE MIDI
        HASDATA 1 192 QN
        POOLEDEVTS {93A9B59A-5366-F348-8BD5-17AA54194368}
        <X 0 0
          /wNNRUxPRFkgICAgICAgICAgICAgIA==
        >
        e 0 90 48 7f
        e 176 80 48 40
        e 16 90 4d 7f
        e 128 80 4d 40
        e 16 90 4c 7f
        e 32 80 4c 40
        e 16 90 4d 7f
        e 176 80 4d 40
        e 16 90 48 7f
        e 176 80 48 40
        e 16 90 4d 7f
        e 176 80 4d 40
        e 16 90 4f 7f
        e 80 80 4f 40
        e 16 90 51 7f
        e 80 80 51 40
        e 16 90 51 7f
        e 176 80 51 40
        e 16 90 4f 7f
        e 80 80 4f 40
        e 16 90 4d 7f
        e 80 80 4d 40
        e 16 90 4c 7f
        e 176 80 4c 40
        e 16 90 4d 7f
        e 80 80 4d 40
        e 16 90 4f 7f
        e 80 80 4f 40
        e 16 90 4f 7f
        e 368 80 4f 40
        e 16 90 4f 7f
        e 176 80 4f 40
        e 16 90 4f 7f
        e 128 80 4f 40
        e 16 90 4f 7f
        e 32 80 4f 40
        e 16 90 4f 7f
        e 176 80 4f 40
        e 16 90 48 7f
        e 176 80 48 40
        e 16 90 4f 7f
        e 128 80 4f 40
        e 16 90 4e 7f
        e 32 80 4e 40
        e 16 90 4f 7f
        e 80 80 4f 40
        e 16 90 51 7f
        e 80 80 51 40
        e 16 90 52 7f
        e 176 80 52 40
        e 16 90 4f 7f
        e 176 80 4f 40
        e 16 90 51 7f
        e 128 80 51 40
        e 16 90 4f 7f
        e 32 80 4f 40
        e 16 90 51 7f
        e 80 80 51 40
        e 16 90 52 7f
        e 80 80 52 40
        e 16 90 54 7f
        e 176 80 54 40
        e 16 90 4d 7f
        e 176 80 4d 40
        e 16 90 4f 7f
        e 176 80 4f 40
        e 16 90 52 7f
        e 176 80 52 40
        e 16 90 51 7f
        e 128 80 51 40
        e 16 90 4f 7f
        e 32 80 4f 40
        e 16 90 4a 7f
        e 80 80 4a 40
        e 16 90 4c 7f
        e 80 80 4c 40
        e 16 90 4d 7f
        e 176 80 4d 40
        e 16 90 4d 7f
        e 128 80 4d 40
        e 16 90 4d 7f
        e 32 80 4d 40
        e 16 90 4d 7f
        e 176 80 4d 40
        e 208 90 4d 7f
        e 176 80 4d 40
        e 16 90 4d 7f
        e 128 80 4d 40
        e 16 90 4c 7f
        e 32 80 4c 40
        e 16 90 4a 7f
        e 176 80 4a 40
        e 16 90 4a 7f
        e 128 80 4a 40
        e 16 90 48 7f
        e 32 80 48 40
        e 16 90 46 7f
        e 176 80 46 40
        e 16 90 46 7f
        e 128 80 46 40
        e 16 90 45 7f
        e 32 80 45 40
        e 16 90 43 7f
        e 80 80 43 40
        e 304 90 4c 7f
        e 176 80 4c 40
        e 16 90 4c 7f
        e 128 80 4c 40
        e 16 90 4a 7f
        e 32 80 4a 40
        e 16 90 48 7f
        e 176 80 48 40
        e 16 90 48 7f
        e 128 80 48 40
        e 16 90 46 7f
        e 32 80 46 40
        e 16 90 45 7f
        e 176 80 45 40
        e 16 90 45 7f
        e 128 80 45 40
        e 16 90 43 7f
        e 32 80 43 40
        e 16 90 41 7f
        e 320 80 41 40
        e 16 90 4d 7f
        e 32 80 4d 40
        e 16 90 4f 7f
        e 176 80 4f 40
        e 16 90 51 7f
        e 176 80 51 40
        e 16 90 52 7f
        e 176 80 52 40
        e 16 90 4f 7f
        e 176 80 4f 40
        e 16 90 51 7f
        e 176 80 51 40
        e 16 90 52 7f
        e 176 80 52 40
        e 16 90 54 7f
        e 176 80 54 40
        e 16 90 56 7f
        e 176 80 56 40
        e 16 90 4c 7f
        e 80 80 4c 40
        e 16 90 48 7f
        e 80 80 48 40
        e 16 90 4a 7f
        e 80 80 4a 40
        e 16 90 4d 7f
        e 80 80 4d 40
        e 16 90 4c 7f
        e 80 80 4c 40
        e 16 90 48 7f
        e 80 80 48 40
        e 16 90 4a 7f
        e 80 80 4a 40
        e 16 90 4c 7f
        e 80 80 4c 40
        e 16 90 4d 7f
        e 752 80 4d 40
        e 16 90 48 7f
        e 176 80 48 40
        e 16 90 4d 7f
        e 128 80 4d 40
        e 16 90 4c 7f
        e 32 80 4c 40
        e 16 90 4d 7f
        e 176 80 4d 40
        e 16 90 48 7f
        e 176 80 48 40
        e 16 90 4d 7f
        e 176 80 4d 40
        e 16 90 4f 7f
        e 80 80 4f 40
        e 16 90 51 7f
        e 80 80 51 40
        e 16 90 51 7f
        e 176 80 51 40
        e 16 90 4f 7f
        e 80 80 4f 40
        e 16 90 4d 7f
        e 80 80 4d 40
        e 16 90 4c 7f
        e 176 80 4c 40
        e 16 90 4d 7f
        e 80 80 4d 40
        e 16 90 4f 7f
        e 80 80 4f 40
        e 16 90 4f 7f
        e 368 80 4f 40
        e 16 90 4f 7f
        e 176 80 4f 40
        e 16 90 4f 7f
        e 128 80 4f 40
        e 16 90 4f 7f
        e 32 80 4f 40
        e 16 90 4f 7f
        e 176 80 4f 40
        e 16 90 48 7f
        e 176 80 48 40
        e 16 90 4f 7f
        e 128 80 4f 40
        e 16 90 4e 7f
        e 32 80 4e 40
        e 16 90 4f 7f
        e 80 80 4f 40
        e 16 90 51 7f
        e 80 80 51 40
        e 16 90 52 7f
        e 176 80 52 40
        e 16 90 4f 7f
        e 176 80 4f 40
        e 16 90 51 7f
        e 128 80 51 40
        e 16 90 4f 7f
        e 32 80 4f 40
        e 16 90 51 7f
        e 80 80 51 40
        e 16 90 52 7f
        e 80 80 52 40
        e 16 90 54 7f
        e 176 80 54 40
        e 16 90 4d 7f
        e 176 80 4d 40
        e 16 90 4f 7f
        e 176 80 4f 40
        e 16 90 52 7f
        e 176 80 52 40
        e 16 90 51 7f
        e 80 80 51 40
        e 16 90 4f 7f
        e 80 80 4f 40
        e 16 90 4a 7f
        e 80 80 4a 40
        e 16 90 4c 7f
        e 80 80 4c 40
        e 16 90 4d 7f
        e 176 80 4d 40
        e 16 90 4d 7f
        e 128 80 4d 40
        e 16 90 4d 7f
        e 32 80 4d 40
        e 16 90 4d 7f
        e 176 80 4d 40
        E 16 b0 7b 00
        GUID {847F49D6-DCEA-384E-AC99-FC02E6095550}
        IGNTEMPO 0 120 4 4
        SRCCOLOR 202
        VELLANE -1 86 6
        CFGEDITVIEW 2231.783081 389.410354 58 17 0 0 0 0 0 0.5
        KEYSNAP 0
        TRACKSEL 252 0 0 ""
        EVTFILTER 0 -1 -1 -1 -1 0 0 0 0 -1 -1 -1 -1 0 -1 0 -1 -1
        CFGEDIT 1 0 0 0 0 0 1 0 1 1 1 0.25 269 4 1280 633 0 0 2 3 0 0 0 0 0 0.5 0 0 1 64
      >
    >
    <ITEM
      POSITION 0
      SNAPOFFS 0
      LENGTH 47.5
      LOOP 1
      ALLTAKES 0
      FADEIN 1 0 0 1 0 0
      FADEOUT 1 0 0 1 0 0
      MUTE 0
      SEL 0
      YPOS 0.333333 0.166667
      IGUID {0E0711A8-B0EA-D042-851A-BA5A7C78BCE4}
      IID 3
      NAME "BASS                 - National_Anthems_-_United_Arab_Emirates.mid"
      VOLPAN 1 0 1 -1
      SOFFS 0 0
      PLAYRATE 1 1 0 -1 0 0.0025
      CHANMODE 0
      GUID {8DC01527-C4BB-7047-A27B-A30FA77CF682}
      <SOURCE MIDI
        HASDATA 1 192 QN
        POOLEDEVTS {6703D87B-19AE-F24A-A067-4041A1A6F331}
        <X 0 0
          /wNCQVNTICAgICAgICAgICAgICAgIA==
        >
        e 0 93 29 7f
        e 176 83 29 40
        e 16 93 35 7f
        e 176 83 35 40
        e 16 93 29 7f
        e 176 83 29 40
        e 16 93 2e 7f
        e 176 83 2e 40
        e 16 93 2d 7f
        e 176 83 2d 40
        e 16 93 2b 7f
        e 176 83 2b 40
        e 16 93 29 7f
        e 176 83 29 40
        e 16 93 2b 7f
        e 80 83 2b 40
        e 16 93 24 7f
        e 80 83 24 40
        e 16 93 24 7f
        e 176 83 24 40
        e 16 93 30 7f
        e 176 83 30 40
        e 16 93 24 7f
        e 176 83 24 40
        e 16 93 30 7f
        e 176 83 30 40
        e 16 93 34 7f
        e 176 83 34 40
        e 16 93 30 7f
        e 176 83 30 40
        e 16 93 2e 7f
        e 80 83 2e 40
        e 16 93 30 7f
        e 80 83 30 40
        e 16 93 34 7f
        e 80 83 34 40
        e 16 93 37 7f
        e 80 83 37 40
        e 16 93 30 7f
        e 464 83 30 40
        e 16 93 24 7f
        e 80 83 24 40
        e 16 93 28 7f
        e 80 83 28 40
        e 16 93 2b 7f
        e 80 83 2b 40
        e 16 93 29 7f
        e 464 83 29 40
        e 16 93 30 7f
        e 80 83 30 40
        e 16 93 2d 7f
        e 80 83 2d 40
        e 16 93 29 7f
        e 80 83 29 40
        e 16 93 24 7f
        e 176 83 24 40
        e 16 93 30 7f
        e 176 83 30 40
        e 16 93 28 7f
        e 176 83 28 40
        e 16 93 34 7f
        e 176 83 34 40
        e 16 93 29 7f
        e 176 83 29 40
        e 16 93 35 7f
        e 176 83 35 40
        e 16 93 35 7f
        e 176 83 35 40
        e 208 93 35 7f
        e 272 83 35 40
        e 112 93 2e 7f
        e 272 83 2e 40
        e 112 93 34 7f
        e 272 83 34 40
        e 112 93 30 7f
        e 272 83 30 40
        e 112 93 24 7f
        e 176 83 24 40
        e 16 93 30 7f
        e 176 83 30 40
        e 16 93 24 7f
        e 176 83 24 40
        e 208 93 29 7f
        e 176 83 29 40
        e 16 93 35 7f
        e 176 83 35 40
        e 16 93 29 7f
        e 176 83 29 40
        e 208 93 2b 7f
        e 176 83 2b 40
        e 16 93 29 7f
        e 176 83 29 40
        e 16 93 28 7f
        e 176 83 28 40
        e 16 93 24 7f
        e 176 83 24 40
        e 16 93 29 7f
        e 176 83 29 40
        e 16 93 2b 7f
        e 176 83 2b 40
        e 16 93 2d 7f
        e 176 83 2d 40
        e 16 93 2e 7f
        e 176 83 2e 40
        e 16 93 30 7f
        e 272 83 30 40
        e 16 93 32 7f
        e 80 83 32 40
        e 16 93 30 7f
        e 80 83 30 40
        e 16 93 2e 7f
        e 80 83 2e 40
        e 16 93 2d 7f
        e 80 83 2d 40
        e 16 93 2b 7f
        e 80 83 2b 40
        e 16 93 29 7f
        e 80 83 29 40
        e 16 93 29 7f
        e 80 83 29 40
        e 16 93 28 7f
        e 80 83 28 40
        e 16 93 26 7f
        e 80 83 26 40
        e 16 93 24 7f
        e 80 83 24 40
        e 16 93 2e 7f
        e 80 83 2e 40
        e 16 93 2d 7f
        e 80 83 2d 40
        e 16 93 2b 7f
        e 80 83 2b 40
        e 16 93 29 7f
        e 176 83 29 40
        e 16 93 37 7f
        e 176 83 37 40
        e 16 93 35 7f
        e 176 83 35 40
        e 16 93 2e 7f
        e 176 83 2e 40
        e 16 93 2d 7f
        e 176 83 2d 40
        e 16 93 2b 7f
        e 176 83 2b 40
        e 16 93 29 7f
        e 176 83 29 40
        e 16 93 2b 7f
        e 80 83 2b 40
        e 16 93 2d 7f
        e 80 83 2d 40
        e 16 93 30 7f
        e 176 83 30 40
        e 16 93 30 7f
        e 80 83 30 40
        e 16 93 30 7f
        e 80 83 30 40
        e 16 93 2e 7f
        e 80 83 2e 40
        e 16 93 24 7f
        e 80 83 24 40
        e 16 93 28 7f
        e 80 83 28 40
        e 16 93 2b 7f
        e 80 83 2b 40
        e 16 93 2e 7f
        e 80 83 2e 40
        e 16 93 2d 7f
        e 80 83 2d 40
        e 16 93 2b 7f
        e 80 83 2b 40
        e 16 93 29 7f
        e 80 83 29 40
        e 16 93 2e 7f
        e 80 83 2e 40
        e 16 93 30 7f
        e 80 83 30 40
        e 16 93 34 7f
        e 80 83 34 40
        e 16 93 37 7f
        e 80 83 37 40
        e 16 93 30 7f
        e 464 83 30 40
        e 16 93 24 7f
        e 80 83 24 40
        e 16 93 28 7f
        e 80 83 28 40
        e 16 93 2b 7f
        e 80 83 2b 40
        e 16 93 29 7f
        e 464 83 29 40
        e 16 93 30 7f
        e 80 83 30 40
        e 16 93 2d 7f
        e 80 83 2d 40
        e 16 93 29 7f
        e 80 83 29 40
        e 16 93 28 7f
        e 368 83 28 40
        e 16 93 30 7f
        e 176 83 30 40
        e 16 93 24 7f
        e 176 83 24 40
        e 16 93 29 7f
        e 176 83 29 40
        e 16 93 35 7f
        e 176 83 35 40
        e 16 93 29 7f
        e 176 83 29 40
        E 16 b0 7b 00
        GUID {05F93B9B-1DA0-424B-95DA-634716837D47}
        IGNTEMPO 0 120 4 4
        SRCCOLOR 201
        VELLANE -1 86 6
        CFGEDITVIEW -912 11.272727 58 17 0 0 0 0 0 0.5
        KEYSNAP 0
        TRACKSEL 252 0 0 ""
        EVTFILTER 0 -1 -1 -1 -1 0 0 0 0 -1 -1 -1 -1 0 -1 0 -1 -1
        CFGEDIT 1 0 0 0 0 0 1 0 1 1 1 0.25 269 4 1280 633 0 0 2 3 0 0 0 0 0 0.5 0 0 1 64
      >
    >
    <ITEM
      POSITION 0
      SNAPOFFS 0
      LENGTH 47.5
      LOOP 1
      ALLTAKES 0
      FADEIN 1 0 0 1 0 0
      FADEOUT 1 0 0 1 0 0
      MUTE 0
      SEL 0
      YPOS 0 0.166667
      IGUID {97CF132B-AF2A-A948-BBB5-421B60791930}
      IID 1
      NAME "R.H.                 - National_Anthems_-_United_Arab_Emirates.mid"
      VOLPAN 1 0 1 -1
      SOFFS 0 0
      PLAYRATE 1 1 0 -1 0 0.0025
      CHANMODE 0
      GUID {F63ADB52-2A2F-9940-901B-54B135ACD288}
      <SOURCE MIDI
        HASDATA 1 192 QN
        POOLEDEVTS {F243426C-2D7F-F143-A0D2-F1A5D94D43A0}
        <X 0 0
          /wNSLkguICAgICAgICAgICAgICAgIA==
        >
        <X 0 0
          /wFUSEUgU09GVFdBUkUgVE9PTFdPUktT
        >
        <X 0 0
          /wFXT1JMRCBBVExBUw==
        >
        <X 0 0
          /wFNdWx0aU1lZGlhIFdpbmRvd3MgVmVyc2lvbg==
        >
        <X 0 0
          /wFDb3VudHJ5OiBVTklURUQgQVJBQiBFTUlSQVRFUw==
        >
        <X 0 0
          /wFBbnRoZW0gTmFtZTo=
        >
        <X 0 0
          /wEocCkgKGMpIFRoZSBTb2Z0d2FyZSBUb29sd29ya3MgMTk5MQ==
        >
        <X 0 0
          /wFlZGl0IGRhdGU6IDktMTQtOTE=
        >
        <X 0 0
          /wFNTVdJTiBFRElUIERBVEU6IDktMTQtOTE=
        >
        <X 0 0
          /wFUaGlzIGZpbGUgcHJvdmlkZWQgYnk6
        >
        <X 0 0
          /wFSb2IgV2FsbGFjZSBNdXNpYw==
        >
        <X 0 0
          /wEoNjAyKSA5NzktNjIwMQ==
        >
        e 0 91 3c 64
        e 0 91 41 64
        e 0 91 45 64
        e 0 91 48 64
        e 176 81 3c 40
        e 0 81 41 40
        e 0 81 45 40
        e 0 81 48 40
        e 16 91 41 64
        e 0 91 46 64
        e 0 91 4a 64
        e 0 91 4d 64
        e 128 81 41 40
        e 0 81 46 40
        e 0 81 4a 40
        e 0 81 4d 40
        e 16 91 40 64
        e 0 91 4c 64
        e 32 81 40 40
        e 0 81 4c 40
        e 16 91 41 64
        e 0 91 45 64
        e 0 91 48 64
        e 0 91 4d 64
        e 80 81 41 40
        e 0 81 45 40
        e 0 81 48 40
        e 16 91 43 64
        e 0 91 46 64
        e 80 81 4d 40
        e 0 81 43 40
        e 0 81 46 40
        e 16 91 41 64
        e 0 91 45 64
        e 0 91 48 64
        e 80 81 41 40
        e 0 81 45 40
        e 16 91 40 64
        e 0 91 43 64
        e 80 81 48 40
        e 0 81 40 40
        e 0 81 43 40
        e 16 91 41 64
        e 0 91 48 64
        e 0 91 4d 64
        e 176 81 41 40
        e 0 81 48 40
        e 0 81 4d 40
        e 16 91 43 64
        e 0 91 48 64
        e 0 91 4f 64
        e 80 81 43 40
        e 0 81 4f 40
        e 16 91 45 64
        e 0 91 51 64
        e 80 81 48 40
        e 0 81 45 40
        e 0 81 51 40
        e 16 91 45 64
        e 0 91 48 64
        e 0 91 4d 64
        e 0 91 51 64
        e 176 81 45 40
        e 0 81 48 40
        e 0 81 4d 40
        e 0 81 51 40
        e 16 91 43 64
        e 0 91 48 64
        e 0 91 4f 64
        e 80 81 43 40
        e 0 81 48 40
        e 0 81 4f 40
        e 16 91 41 64
        e 0 91 45 64
        e 0 91 48 64
        e 0 91 4d 64
        e 80 81 41 40
        e 0 81 45 40
        e 0 81 48 40
        e 0 81 4d 40
        e 16 91 40 64
        e 0 91 43 64
        e 0 91 48 64
        e 0 91 4c 64
        e 176 81 40 40
        e 0 81 43 40
        e 0 81 48 40
        e 0 81 4c 40
        e 16 91 41 64
        e 0 91 45 64
        e 0 91 48 64
        e 0 91 4d 64
        e 80 81 41 40
        e 0 81 45 40
        e 0 81 48 40
        e 0 81 4d 40
        e 16 91 43 64
        e 0 91 48 64
        e 0 91 4c 64
        e 0 91 4f 64
        e 80 81 43 40
        e 0 81 48 40
        e 0 81 4c 40
        e 0 81 4f 40
        e 16 91 43 64
        e 0 91 48 64
        e 0 91 4c 64
        e 0 91 4f 64
        e 368 81 43 40
        e 0 81 48 40
        e 0 81 4c 40
        e 0 81 4f 40
        e 16 91 43 64
        e 0 91 46 64
        e 0 91 4c 64
        e 0 91 4f 64
        e 176 81 43 40
        e 0 81 46 40
        e 0 81 4c 40
        e 0 81 4f 40
        e 16 91 43 64
        e 0 91 46 64
        e 0 91 4c 64
        e 0 91 4f 64
        e 128 81 43 40
        e 0 81 46 40
        e 0 81 4c 40
        e 0 81 4f 40
        e 16 91 43 64
        e 0 91 46 64
        e 0 91 4c 64
        e 0 91 4f 64
        e 32 81 43 40
        e 0 81 46 40
        e 0 81 4c 40
        e 0 81 4f 40
        e 16 91 43 64
        e 0 91 46 64
        e 0 91 4c 64
        e 0 91 4f 64
        e 176 81 43 40
        e 0 81 46 40
        e 0 81 4c 40
        e 0 81 4f 40
        e 16 91 3c 64
        e 0 91 40 64
        e 0 91 48 64
        e 176 81 3c 40
        e 0 81 40 40
        e 0 81 48 40
        e 16 91 43 64
        e 0 91 48 64
        e 0 91 4c 64
        e 0 91 4f 64
        e 128 81 43 40
        e 0 81 48 40
        e 0 81 4c 40
        e 0 81 4f 40
        e 16 91 42 64
        e 0 91 4e 64
        e 32 81 42 40
        e 0 81 4e 40
        e 16 91 43 64
        e 0 91 4f 64
        e 80 81 43 40
        e 0 81 4f 40
        e 16 91 45 64
        e 0 91 51 64
        e 80 81 45 40
        e 0 81 51 40
        e 16 91 46 64
        e 0 91 4c 64
        e 0 91 4f 64
        e 0 91 52 64
        e 176 81 46 40
        e 0 81 4c 40
        e 0 81 4f 40
        e 0 81 52 40
        e 16 91 43 64
        e 0 91 48 64
        e 0 91 4c 64
        e 0 91 4f 64
        e 176 81 43 40
        e 0 81 48 40
        e 0 81 4c 40
        e 0 81 4f 40
        e 16 91 45 64
        e 0 91 4d 64
        e 0 91 51 64
        e 128 81 45 40
        e 0 81 4d 40
        e 0 81 51 40
        e 16 91 43 64
        e 0 91 4c 64
        e 0 91 4f 64
        e 32 81 43 40
        e 0 81 4c 40
        e 0 81 4f 40
        e 16 91 45 64
        e 0 91 4d 64
        e 0 91 51 64
        e 80 81 45 40
        e 0 81 4d 40
        e 0 81 51 40
        e 16 91 46 64
        e 0 91 4f 64
        e 0 91 52 64
        e 80 81 46 40
        e 0 81 4f 40
        e 0 81 52 40
        e 16 91 48 64
        e 0 91 51 64
        e 0 91 54 64
        e 176 81 48 40
        e 0 81 51 40
        e 0 81 54 40
        e 16 91 41 64
        e 0 91 45 64
        e 0 91 4d 64
        e 176 81 41 40
        e 0 81 45 40
        e 0 81 4d 40
        e 16 91 43 64
        e 0 91 46 64
        e 0 91 4c 64
        e 0 91 4f 64
        e 176 81 43 40
        e 0 81 46 40
        e 0 81 4c 40
        e 0 81 4f 40
        e 16 91 46 64
        e 0 91 4a 64
        e 0 91 52 64
        e 176 81 46 40
        e 0 81 4a 40
        e 0 81 52 40
        e 16 91 45 64
        e 0 91 48 64
        e 0 91 51 64
        e 128 81 45 40
        e 0 81 48 40
        e 0 81 51 40
        e 16 91 43 64
        e 0 91 4f 64
        e 32 81 43 40
        e 0 81 4f 40
        e 16 91 3e 64
        e 0 91 46 64
        e 0 91 4a 64
        e 80 81 3e 40
        e 0 81 46 40
        e 0 81 4a 40
        e 16 91 40 64
        e 0 91 46 64
        e 0 91 4c 64
        e 80 81 40 40
        e 0 81 46 40
        e 0 81 4c 40
        e 16 91 41 64
        e 0 91 45 64
        e 0 91 48 64
        e 0 91 4d 64
        e 176 81 41 40
        e 0 81 45 40
        e 0 81 48 40
        e 0 81 4d 40
        e 16 91 41 64
        e 0 91 45 64
        e 0 91 48 64
        e 0 91 4d 64
        e 128 81 41 40
        e 0 81 45 40
        e 0 81 48 40
        e 0 81 4d 40
        e 16 91 41 64
        e 0 91 45 64
        e 0 91 48 64
        e 0 91 4d 64
        e 32 81 41 40
        e 0 81 45 40
        e 0 81 48 40
        e 0 81 4d 40
        e 16 91 41 64
        e 0 91 45 64
        e 0 91 48 64
        e 0 91 4d 64
        e 176 81 41 40
        e 0 81 45 40
        e 0 81 48 40
        e 0 81 4d 40
        e 208 91 41 64
        e 0 91 4d 64
        e 176 81 41 40
        e 0 81 4d 40
        e 16 91 41 64
        e 0 91 4d 64
        e 128 81 41 40
        e 0 81 4d 40
        e 16 91 40 64
        e 0 91 4c 64
        e 32 81 40 40
        e 0 81 4c 40
        e 16 91 3e 64
        e 0 91 4a 64
        e 176 81 3e 40
        e 0 81 4a 40
        e 16 91 3e 64
        e 0 91 4a 64
        e 128 81 3e 40
        e 0 81 4a 40
        e 16 91 3c 64
        e 0 91 48 64
        e 32 81 3c 40
        e 0 81 48 40
        e 16 91 3a 64
        e 0 91 46 64
        e 176 81 3a 40
        e 0 81 46 40
        e 16 91 3a 64
        e 0 91 46 64
        e 128 81 3a 40
        e 0 81 46 40
        e 16 91 39 64
        e 0 91 45 64
        e 32 81 39 40
        e 0 81 45 40
        e 16 91 37 64
        e 0 91 43 64
        e 80 81 37 40
        e 0 81 43 40
        e 16 91 41 64
        e 32 81 41 40
        e 16 91 43 64
        e 32 81 43 40
        e 16 91 45 64
        e 32 81 45 40
        e 16 91 46 64
        e 32 81 46 40
        e 16 91 48 64
        e 32 81 48 40
        e 16 91 4a 64
        e 32 81 4a 40
        e 16 91 40 64
        e 0 91 43 64
        e 0 91 4c 64
        e 176 81 40 40
        e 0 81 43 40
        e 0 81 4c 40
        e 16 91 40 64
        e 0 91 4c 64
        e 128 81 40 40
        e 0 81 4c 40
        e 16 91 3e 64
        e 0 91 4a 64
        e 32 81 3e 40
        e 0 81 4a 40
        e 16 91 3c 64
        e 0 91 40 64
        e 0 91 48 64
        e 176 81 3c 40
        e 0 81 40 40
        e 0 81 48 40
        e 16 91 3c 64
        e 0 91 40 64
        e 0 91 48 64
        e 128 81 3c 40
        e 0 81 40 40
        e 0 81 48 40
        e 16 91 3a 64
        e 0 91 3e 64
        e 0 91 46 64
        e 32 81 3a 40
        e 0 81 3e 40
        e 0 81 46 40
        e 16 91 39 64
        e 0 91 3c 64
        e 0 91 45 64
        e 176 81 39 40
        e 0 81 3c 40
        e 0 81 45 40
        e 16 91 39 64
        e 0 91 3c 64
        e 0 91 45 64
        e 128 81 39 40
        e 0 81 3c 40
        e 0 81 45 40
        e 16 91 37 64
        e 0 91 3a 64
        e 0 91 43 64
        e 32 81 37 40
        e 0 81 3a 40
        e 0 81 43 40
        e 16 91 39 64
        e 0 91 41 64
        e 320 81 39 40
        e 0 81 41 40
        e 16 91 41 64
        e 0 91 4d 64
        e 32 81 41 40
        e 0 81 4d 40
        e 16 91 43 64
        e 0 91 48 64
        e 0 91 4f 64
        e 176 81 43 40
        e 0 81 48 40
        e 0 81 4f 40
        e 16 91 45 64
        e 0 91 48 64
        e 0 91 51 64
        e 176 81 45 40
        e 0 81 48 40
        e 0 81 51 40
        e 16 91 46 64
        e 0 91 4c 64
        e 0 91 4f 64
        e 0 91 52 64
        e 176 81 46 40
        e 0 81 4c 40
        e 0 81 4f 40
        e 0 81 52 40
        e 16 91 43 64
        e 0 91 4c 64
        e 0 91 4f 64
        e 176 81 43 40
        e 0 81 4c 40
        e 0 81 4f 40
        e 16 91 45 64
        e 0 91 4d 64
        e 0 91 51 64
        e 176 81 45 40
        e 0 81 4d 40
        e 0 81 51 40
        e 16 91 46 64
        e 0 91 4f 64
        e 0 91 52 64
        e 176 81 46 40
        e 0 81 4f 40
        e 0 81 52 40
        e 16 91 48 64
        e 0 91 51 64
        e 0 91 54 64
        e 176 81 48 40
        e 0 81 51 40
        e 0 81 54 40
        e 16 91 4a 64
        e 0 91 52 64
        e 0 91 56 64
        e 176 81 4a 40
        e 0 81 52 40
        e 0 81 56 40
        e 16 91 40 64
        e 0 91 46 64
        e 0 91 4c 64
        e 80 81 40 40
        e 0 81 46 40
        e 0 81 4c 40
        e 16 91 3c 64
        e 0 91 48 64
        e 80 81 3c 40
        e 0 81 48 40
        e 16 91 3e 64
        e 0 91 4a 64
        e 80 81 3e 40
        e 0 81 4a 40
        e 16 91 41 64
        e 0 91 4d 64
        e 80 81 41 40
        e 0 81 4d 40
        e 16 91 40 64
        e 0 91 4c 64
        e 80 81 40 40
        e 0 81 4c 40
        e 16 91 3c 64
        e 0 91 48 64
        e 80 81 3c 40
        e 0 81 48 40
        e 16 91 3e 64
        e 0 91 4a 64
        e 80 81 3e 40
        e 0 81 4a 40
        e 16 91 40 64
        e 0 91 4c 64
        e 80 81 40 40
        e 0 81 4c 40
        e 16 91 41 64
        e 0 91 45 64
        e 0 91 4d 64
        e 80 81 41 40
        e 0 81 45 40
        e 0 81 4d 40
        e 16 91 41 64
        e 0 91 4d 64
        e 32 81 41 40
        e 0 81 4d 40
        e 16 91 41 64
        e 0 91 4d 64
        e 32 81 41 40
        e 0 81 4d 40
        e 16 91 41 64
        e 0 91 4d 64
        e 80 81 41 40
        e 0 81 4d 40
        e 16 91 41 64
        e 0 91 4d 64
        e 80 81 41 40
        e 0 81 4d 40
        e 16 91 41 64
        e 0 91 4d 64
        e 80 81 41 40
        e 0 81 4d 40
        e 16 91 41 64
        e 0 91 4d 64
        e 80 81 41 40
        e 0 81 4d 40
        e 16 91 41 64
        e 0 91 4d 64
        e 80 81 41 40
        e 0 81 4d 40
        e 16 91 41 64
        e 0 91 4d 64
        e 80 81 41 40
        e 0 81 4d 40
        e 16 91 3c 64
        e 0 91 41 64
        e 0 91 45 64
        e 0 91 48 64
        e 176 81 3c 40
        e 0 81 41 40
        e 0 81 45 40
        e 0 81 48 40
        e 16 91 41 64
        e 0 91 4a 64
        e 0 91 4d 64
        e 128 81 41 40
        e 0 81 4a 40
        e 0 81 4d 40
        e 16 91 40 64
        e 0 91 4c 64
        e 32 81 40 40
        e 0 81 4c 40
        e 16 91 41 64
        e 0 91 48 64
        e 0 91 4d 64
        e 80 81 48 40
        e 16 91 46 64
        e 80 81 41 40
        e 0 81 4d 40
        e 0 81 46 40
        e 16 91 3c 64
        e 0 91 45 64
        e 0 91 48 64
        e 80 81 45 40
        e 16 91 43 64
        e 80 81 3c 40
        e 0 81 48 40
        e 0 81 43 40
        e 16 91 41 64
        e 0 91 48 64
        e 0 91 4d 64
        e 176 81 41 40
        e 0 81 48 40
        e 0 81 4d 40
        e 16 91 43 64
        e 0 91 48 64
        e 0 91 4f 64
        e 80 81 43 40
        e 0 81 48 40
        e 0 81 4f 40
        e 16 91 45 64
        e 0 91 48 64
        e 0 91 51 64
        e 80 81 45 40
        e 0 81 48 40
        e 0 81 51 40
        e 16 91 45 64
        e 0 91 48 64
        e 0 91 51 64
        e 176 81 45 40
        e 0 81 48 40
        e 0 81 51 40
        e 16 91 43 64
        e 0 91 48 64
        e 0 91 4f 64
        e 80 81 43 40
        e 0 81 48 40
        e 0 81 4f 40
        e 16 91 41 64
        e 0 91 4d 64
        e 80 81 41 40
        e 0 81 4d 40
        e 16 91 40 64
        e 0 91 48 64
        e 0 91 4c 64
        e 176 81 40 40
        e 0 81 48 40
        e 0 81 4c 40
        e 16 91 41 64
        e 0 91 48 64
        e 0 91 4d 64
        e 80 81 41 40
        e 0 81 48 40
        e 0 81 4d 40
        e 16 91 43 64
        e 0 91 48 64
        e 0 91 4f 64
        e 80 81 43 40
        e 0 81 48 40
        e 0 81 4f 40
        e 16 91 43 64
        e 0 91 4c 64
        e 0 91 4f 64
        e 368 81 43 40
        e 0 81 4c 40
        e 0 81 4f 40
        e 16 91 43 64
        e 0 91 46 64
        e 0 91 4f 64
        e 176 81 43 40
        e 0 81 46 40
        e 0 81 4f 40
        e 16 91 43 64
        e 0 91 46 64
        e 0 91 4f 64
        e 128 81 43 40
        e 0 81 46 40
        e 0 81 4f 40
        e 16 91 43 64
        e 0 91 4f 64
        e 32 81 43 40
        e 0 81 4f 40
        e 16 91 43 64
        e 0 91 4f 64
        e 176 81 43 40
        e 0 81 4f 40
        e 16 91 3c 64
        e 0 91 48 64
        e 176 81 3c 40
        e 0 81 48 40
        e 16 91 43 64
        e 0 91 48 64
        e 0 91 4c 64
        e 0 91 4f 64
        e 128 81 43 40
        e 0 81 48 40
        e 0 81 4c 40
        e 0 81 4f 40
        e 16 91 42 64
        e 0 91 4e 64
        e 32 81 42 40
        e 0 81 4e 40
        e 16 91 43 64
        e 0 91 4f 64
        e 80 81 43 40
        e 0 81 4f 40
        e 16 91 45 64
        e 0 91 51 64
        e 80 81 45 40
        e 0 81 51 40
        e 16 91 46 64
        e 0 91 4f 64
        e 0 91 52 64
        e 176 81 46 40
        e 0 81 4f 40
        e 0 81 52 40
        e 16 91 43 64
        e 0 91 48 64
        e 0 91 4c 64
        e 0 91 4f 64
        e 176 81 43 40
        e 0 81 48 40
        e 0 81 4c 40
        e 0 81 4f 40
        e 16 91 45 64
        e 0 91 4d 64
        e 0 91 51 64
        e 128 81 45 40
        e 0 81 4d 40
        e 0 81 51 40
        e 16 91 43 64
        e 0 91 4f 64
        e 32 81 43 40
        e 0 81 4f 40
        e 16 91 45 64
        e 0 91 51 64
        e 80 81 45 40
        e 0 81 51 40
        e 16 91 46 64
        e 0 91 52 64
        e 80 81 46 40
        e 0 81 52 40
        e 16 91 48 64
        e 0 91 54 64
        e 176 81 48 40
        e 0 81 54 40
        e 16 91 41 64
        e 0 91 48 64
        e 0 91 4d 64
        e 176 81 41 40
        e 0 81 48 40
        e 0 81 4d 40
        e 16 91 43 64
        e 0 91 46 64
        e 0 91 4f 64
        e 176 81 43 40
        e 0 81 46 40
        e 0 81 4f 40
        e 16 91 46 64
        e 0 91 4f 64
        e 0 91 52 64
        e 176 81 46 40
        e 0 81 4f 40
        e 0 81 52 40
        e 16 91 45 64
        e 0 91 4d 64
        e 0 91 51 64
        e 80 81 45 40
        e 0 81 4d 40
        e 0 81 51 40
        e 16 91 43 64
        e 0 91 4f 64
        e 80 81 43 40
        e 0 81 4f 40
        e 16 91 3e 64
        e 0 91 41 64
        e 0 91 4a 64
        e 80 81 3e 40
        e 0 81 41 40
        e 0 81 4a 40
        e 16 91 40 64
        e 0 91 43 64
        e 0 91 4c 64
        e 80 81 40 40
        e 0 81 43 40
        e 0 81 4c 40
        e 16 91 41 64
        e 0 91 45 64
        e 0 91 4d 64
        e 176 81 41 40
        e 0 81 45 40
        e 0 81 4d 40
        e 16 91 41 64
        e 0 91 45 64
        e 0 91 4d 64
        e 128 81 41 40
        e 0 81 45 40
        e 0 81 4d 40
        e 16 91 41 64
        e 0 91 45 64
        e 0 91 4d 64
        e 32 81 41 40
        e 0 81 45 40
        e 0 81 4d 40
        e 16 91 41 64
        e 0 91 45 64
        e 0 91 4d 64
        e 176 81 41 40
        e 0 81 45 40
        e 0 81 4d 40
        E 16 b0 7b 00
        GUID {834CB3BD-F8D4-1746-9C72-178E786307DD}
        IGNTEMPO 0 120 4 4
        SRCCOLOR 199
        VELLANE -1 86 6
        CFGEDITVIEW 3565.130601 284.458653 40 10 0 0 0 0 0 0.5
        KEYSNAP 0
        TRACKSEL 252 0 0 ""
        EVTFILTER 0 -1 -1 -1 -1 0 0 0 0 -1 -1 -1 -1 0 -1 0 -1 -1
        CFGEDIT 1 0 0 0 0 0 1 0 1 1 1 0.25 285 20 1280 633 0 0 2 3 0 0 0 0 0 0.5 0 0 1 64
      >
    >
    <ITEM
      POSITION 0
      SNAPOFFS 0
      LENGTH 47.5
      LOOP 1
      ALLTAKES 0
      FADEIN 1 0 0 1 0 0
      FADEOUT 1 0 0 1 0 0
      MUTE 0
      SEL 0
      YPOS 0.166667 0.166667
      IGUID {296DDB78-0DFB-1B48-AC01-5F6C4E4D3CF6}
      IID 2
      NAME "L.H.                 - National_Anthems_-_United_Arab_Emirates.mid"
      VOLPAN 1 0 1 -1
      SOFFS 0 0
      PLAYRATE 1 1 0 -1 0 0.0025
      CHANMODE 0
      GUID {8F854437-2EAC-A24B-B776-93F3683A734D}
      <SOURCE MIDI
        HASDATA 1 192 QN
        POOLEDEVTS {47112996-29FA-3A4C-B4BC-6CEBACDE0D7C}
        <X 0 0
          /wNMLkguICAgICAgICAgICAgICAgIA==
        >
        E 0 92 35 64
        E 0 92 29 64
        E 560 82 35 40
        E 0 82 29 40
        E 16 92 3a 64
        E 0 92 2e 64
        E 176 82 3a 40
        E 0 82 2e 40
        E 16 92 2d 64
        E 0 92 39 64
        E 176 82 2d 40
        E 0 82 39 40
        E 16 92 2b 64
        E 0 92 37 64
        E 176 82 2b 40
        E 0 82 37 40
        E 16 92 29 64
        E 0 92 35 64
        E 176 82 29 40
        E 0 82 35 40
        E 16 92 37 64
        E 0 92 2b 64
        E 80 82 37 40
        E 0 82 2b 40
        E 16 92 24 64
        E 0 92 30 64
        E 80 82 24 40
        E 0 82 30 40
        E 16 92 24 64
        E 0 92 30 64
        E 368 82 24 40
        E 0 82 30 40
        E 16 92 3c 64
        E 0 92 30 64
        E 80 82 3c 40
        E 0 82 30 40
        E 16 92 3c 64
        E 0 92 30 64
        E 16 82 3c 40
        E 0 82 30 40
        E 16 92 3c 64
        E 0 92 30 64
        E 16 82 3c 40
        E 0 82 30 40
        E 16 92 3c 64
        E 0 92 30 64
        E 16 82 3c 40
        E 0 82 30 40
        E 16 92 30 64
        E 0 92 3c 64
        E 80 82 30 40
        E 0 82 3c 40
        E 16 92 30 64
        E 0 92 3c 64
        E 80 82 30 40
        E 0 82 3c 40
        E 16 92 28 64
        E 0 92 34 64
        E 176 82 28 40
        E 0 82 34 40
        E 16 92 30 64
        E 0 92 24 64
        E 176 82 30 40
        E 0 82 24 40
        E 16 92 2e 64
        E 0 92 3a 64
        E 80 82 2e 40
        E 0 82 3a 40
        E 16 92 30 64
        E 0 92 3c 64
        E 80 82 30 40
        E 0 82 3c 40
        E 16 92 28 64
        E 0 92 34 64
        E 80 82 28 40
        E 0 82 34 40
        E 16 92 2b 64
        E 0 92 37 64
        E 80 82 2b 40
        E 0 82 37 40
        E 16 92 24 64
        E 0 92 30 64
        E 464 82 24 40
        E 0 82 30 40
        E 16 92 24 64
        E 0 92 30 64
        E 80 82 24 40
        E 0 82 30 40
        E 16 92 28 64
        E 0 92 34 64
        E 80 82 28 40
        E 0 82 34 40
        E 16 92 37 64
        E 0 92 2b 64
        E 80 82 37 40
        E 0 82 2b 40
        E 16 92 29 64
        E 0 92 35 64
        E 464 82 29 40
        E 0 82 35 40
        E 16 92 30 64
        E 0 92 3c 64
        E 80 82 30 40
        E 0 82 3c 40
        E 16 92 2d 64
        E 0 92 39 64
        E 80 82 2d 40
        E 0 82 39 40
        E 16 92 29 64
        E 0 92 35 64
        E 80 82 29 40
        E 0 82 35 40
        E 16 92 24 64
        E 0 92 30 64
        E 368 82 24 40
        E 0 82 30 40
        E 16 92 28 64
        E 0 92 34 64
        E 368 82 28 40
        E 0 82 34 40
        E 16 92 29 64
        E 0 92 30 64
        E 0 92 35 64
        E 176 82 29 40
        E 0 82 30 40
        E 0 82 35 40
        E 16 92 30 64
        E 0 92 35 64
        E 0 92 29 64
        E 128 82 30 40
        E 0 82 35 40
        E 0 82 29 40
        E 16 92 30 64
        E 0 92 35 64
        E 0 92 29 64
        E 32 82 30 40
        E 0 82 35 40
        E 0 82 29 40
        E 16 92 29 64
        E 0 92 30 64
        E 0 92 35 64
        E 176 82 29 40
        E 0 82 30 40
        E 0 82 35 40
        E 208 92 29 64
        E 0 92 35 64
        E 272 82 29 40
        E 0 82 35 40
        E 112 92 2e 64
        E 0 92 3a 64
        E 272 82 2e 40
        E 0 82 3a 40
        E 112 92 34 64
        E 0 92 28 64
        E 272 82 34 40
        E 0 82 28 40
        E 112 92 24 64
        E 0 92 30 64
        E 272 82 24 40
        E 0 82 30 40
        E 112 92 30 64
        E 0 92 24 64
        E 560 82 30 40
        E 0 82 24 40
        E 208 92 35 64
        E 0 92 29 64
        E 560 82 35 40
        E 0 82 29 40
        E 208 92 37 64
        E 0 92 2b 64
        E 176 82 37 40
        E 0 82 2b 40
        E 16 92 29 64
        E 0 92 35 64
        E 176 82 29 40
        E 0 82 35 40
        E 16 92 34 64
        E 0 92 28 64
        E 176 82 34 40
        E 0 82 28 40
        E 16 92 24 64
        E 0 92 30 64
        E 176 82 24 40
        E 0 82 30 40
        E 16 92 35 64
        E 0 92 29 64
        E 176 82 35 40
        E 0 82 29 40
        E 16 92 37 64
        E 0 92 2b 64
        E 176 82 37 40
        E 0 82 2b 40
        E 16 92 39 64
        E 0 92 2d 64
        E 176 82 39 40
        E 0 82 2d 40
        E 16 92 2e 64
        E 0 92 3a 64
        E 176 82 2e 40
        E 0 82 3a 40
        E 16 92 30 64
        E 0 92 3c 64
        E 272 82 30 40
        E 0 82 3c 40
        E 16 92 3e 64
        E 0 92 32 64
        E 80 82 3e 40
        E 0 82 32 40
        E 16 92 30 64
        E 0 92 3c 64
        E 80 82 30 40
        E 0 82 3c 40
        E 16 92 2e 64
        E 0 92 3a 64
        E 80 82 2e 40
        E 0 82 3a 40
        E 16 92 2d 64
        E 0 92 39 64
        E 80 82 2d 40
        E 0 82 39 40
        E 16 92 2b 64
        E 0 92 37 64
        E 80 82 2b 40
        E 0 82 37 40
        E 16 92 35 64
        E 0 92 29 64
        E 80 82 35 40
        E 0 82 29 40
        E 16 92 29 64
        E 0 92 35 64
        E 80 82 29 40
        E 0 82 35 40
        E 16 92 28 64
        E 0 92 34 64
        E 80 82 28 40
        E 0 82 34 40
        E 16 92 26 64
        E 0 92 32 64
        E 80 82 26 40
        E 0 82 32 40
        E 16 92 24 64
        E 0 92 30 64
        E 80 82 24 40
        E 0 82 30 40
        E 16 92 2e 64
        E 0 92 3a 64
        E 80 82 2e 40
        E 0 82 3a 40
        E 16 92 2d 64
        E 0 92 39 64
        E 80 82 2d 40
        E 0 82 39 40
        E 16 92 2b 64
        E 0 92 37 64
        E 80 82 2b 40
        E 0 82 37 40
        E 16 92 29 64
        E 0 92 35 64
        E 176 82 29 40
        E 0 82 35 40
        E 16 92 2b 64
        E 0 92 37 64
        E 176 82 2b 40
        E 0 82 37 40
        E 16 92 29 64
        E 0 92 35 64
        E 176 82 29 40
        E 0 82 35 40
        E 16 92 2e 64
        E 0 92 3a 64
        E 176 82 2e 40
        E 0 82 3a 40
        E 16 92 2d 64
        E 0 92 39 64
        E 176 82 2d 40
        E 0 82 39 40
        E 16 92 2b 64
        E 0 92 37 64
        E 176 82 2b 40
        E 0 82 37 40
        E 16 92 29 64
        E 0 92 35 64
        E 176 82 29 40
        E 0 82 35 40
        E 16 92 2b 64
        E 0 92 37 64
        E 80 82 2b 40
        E 0 82 37 40
        E 16 92 2d 64
        E 0 92 39 64
        E 80 82 2d 40
        E 0 82 39 40
        E 16 92 3c 64
        E 0 92 30 64
        E 176 82 3c 40
        E 0 82 30 40
        E 16 92 30 64
        E 0 92 3c 64
        E 80 82 30 40
        E 0 82 3c 40
        E 16 92 30 64
        E 0 92 3c 64
        E 80 82 30 40
        E 0 82 3c 40
        E 16 92 2e 64
        E 0 92 3a 64
        E 80 82 2e 40
        E 0 82 3a 40
        E 16 92 24 64
        E 0 92 30 64
        E 80 82 24 40
        E 0 82 30 40
        E 16 92 34 64
        E 0 92 28 64
        E 80 82 34 40
        E 0 82 28 40
        E 16 92 2b 64
        E 0 92 37 64
        E 80 82 2b 40
        E 0 82 37 40
        E 16 92 3a 64
        E 0 92 2e 64
        E 80 82 3a 40
        E 0 82 2e 40
        E 16 92 39 64
        E 0 92 2d 64
        E 80 82 39 40
        E 0 82 2d 40
        E 16 92 2b 64
        E 0 92 37 64
        E 80 82 2b 40
        E 0 82 37 40
        E 16 92 29 64
        E 0 92 35 64
        E 80 82 29 40
        E 0 82 35 40
        E 16 92 3a 64
        E 0 92 2e 64
        E 80 82 3a 40
        E 0 82 2e 40
        E 16 92 30 64
        E 0 92 3c 64
        E 80 82 30 40
        E 0 82 3c 40
        E 16 92 28 64
        E 0 92 34 64
        E 80 82 28 40
        E 0 82 34 40
        E 16 92 2b 64
        E 0 92 37 64
        E 80 82 2b 40
        E 0 82 37 40
        E 16 92 30 64
        E 0 92 24 64
        E 464 82 30 40
        E 0 82 24 40
        E 16 92 24 64
        E 0 92 30 64
        E 80 82 24 40
        E 0 82 30 40
        E 16 92 28 64
        E 0 92 34 64
        E 80 82 28 40
        E 0 82 34 40
        E 16 92 2b 64
        E 0 92 37 64
        E 80 82 2b 40
        E 0 82 37 40
        E 16 92 29 64
        E 0 92 35 64
        E 464 82 29 40
        E 0 82 35 40
        E 16 92 30 64
        E 0 92 3c 64
        E 80 82 30 40
        E 0 82 3c 40
        E 16 92 2d 64
        E 0 92 39 64
        E 80 82 2d 40
        E 0 82 39 40
        E 16 92 35 64
        E 0 92 29 64
        E 80 82 35 40
        E 0 82 29 40
        E 16 92 28 64
        E 0 92 34 64
        E 368 82 28 40
        E 0 82 34 40
        E 16 92 24 64
        E 0 92 30 64
        E 368 82 24 40
        E 0 82 30 40
        E 16 92 29 64
        E 0 92 35 64
        E 176 82 29 40
        E 0 82 35 40
        E 16 92 29 64
        E 0 92 35 64
        E 128 82 29 40
        E 0 82 35 40
        E 16 92 29 64
        E 0 92 35 64
        E 32 82 29 40
        E 0 82 35 40
        E 16 92 29 64
        E 0 92 35 64
        E 176 82 29 40
        E 0 82 35 40
        E 16 b0 7b 00
        GUID {44815931-6C34-CE44-A578-7DBC38CC7A90}
        IGNTEMPO 0 120 4 4
        SRCCOLOR 200
        VELLANE -1 86 6
      >
    >
    <ITEM
      POSITION 0
      SNAPOFFS 0
      LENGTH 47.5
      LOOP 1
      ALLTAKES 0
      FADEIN 1 0 0 1 0 0
      FADEOUT 1 0 0 1 0 0
      MUTE 0
      SEL 0
      YPOS 0.666667 0.166667
      IGUID {55815C20-7795-3F46-83E0-1A808DB33C54}
      IID 5
      NAME "New Track            - National_Anthems_-_United_Arab_Emirates.mid"
      VOLPAN 1 0 1 -1
      SOFFS 0 0
      PLAYRATE 1 1 0 -1 0 0.0025
      CHANMODE 0
      GUID {B21A6B79-C9B5-D14A-B9FC-E341A21DC3DF}
      <SOURCE MIDI
        HASDATA 1 192 QN
        POOLEDEVTS {E5D4F966-60BD-EC40-8562-3FA034678381}
        <X 0 0
          /wNOZXcgVHJhY2sgICAgICAgICAgIA==
        >
        E 0 9c 48 64
        E 0 9c 3c 64
        E 0 9c 45 64
        E 0 9c 41 64
        E 176 8c 48 40
        E 0 8c 3c 40
        E 0 8c 45 40
        E 0 8c 41 40
        E 16 9c 4d 64
        E 0 9c 4a 64
        E 0 9c 46 64
        E 0 9c 41 64
        E 128 8c 4d 40
        E 0 8c 4a 40
        E 0 8c 46 40
        E 0 8c 41 40
        E 16 9c 4c 64
        E 0 9c 40 64
        E 32 8c 4c 40
        E 0 8c 40 40
        E 16 9c 4d 64
        E 0 9c 45 64
        E 0 9c 48 64
        E 0 9c 41 64
        E 80 8c 45 40
        E 0 8c 48 40
        E 0 8c 41 40
        E 16 9c 46 64
        E 0 9c 43 64
        E 80 8c 4d 40
        E 0 8c 46 40
        E 0 8c 43 40
        E 16 9c 45 64
        E 0 9c 48 64
        E 0 9c 41 64
        E 80 8c 45 40
        E 0 8c 41 40
        E 16 9c 40 64
        E 0 9c 43 64
        E 80 8c 48 40
        E 0 8c 40 40
        E 0 8c 43 40
        E 16 9c 4d 64
        E 0 9c 48 64
        E 0 9c 41 64
        E 176 8c 4d 40
        E 0 8c 48 40
        E 0 8c 41 40
        E 16 9c 4f 64
        E 0 9c 43 64
        E 0 9c 48 64
        E 80 8c 4f 40
        E 0 8c 43 40
        E 16 9c 45 64
        E 0 9c 51 64
        E 80 8c 48 40
        E 0 8c 45 40
        E 0 8c 51 40
        E 16 9c 4d 64
        E 0 9c 48 64
        E 0 9c 51 64
        E 0 9c 45 64
        E 176 8c 4d 40
        E 0 8c 48 40
        E 0 8c 51 40
        E 0 8c 45 40
        E 16 9c 4f 64
        E 0 9c 48 64
        E 0 9c 43 64
        E 80 8c 4f 40
        E 0 8c 48 40
        E 0 8c 43 40
        E 16 9c 4d 64
        E 0 9c 45 64
        E 0 9c 41 64
        E 0 9c 48 64
        E 80 8c 4d 40
        E 0 8c 45 40
        E 0 8c 41 40
        E 0 8c 48 40
        E 16 9c 40 64
        E 0 9c 43 64
        E 0 9c 4c 64
        E 0 9c 48 64
        E 176 8c 40 40
        E 0 8c 43 40
        E 0 8c 4c 40
        E 0 8c 48 40
        E 16 9c 41 64
        E 0 9c 4d 64
        E 0 9c 45 64
        E 0 9c 48 64
        E 80 8c 41 40
        E 0 8c 4d 40
        E 0 8c 45 40
        E 0 8c 48 40
        E 16 9c 4f 64
        E 0 9c 43 64
        E 0 9c 4c 64
        E 0 9c 48 64
        E 80 8c 4f 40
        E 0 8c 43 40
        E 0 8c 4c 40
        E 0 8c 48 40
        E 16 9c 48 64
        E 0 9c 43 64
        E 0 9c 4f 64
        E 0 9c 4c 64
        E 368 8c 48 40
        E 0 8c 43 40
        E 0 8c 4f 40
        E 0 8c 4c 40
        E 16 9c 4c 64
        E 0 9c 46 64
        E 0 9c 4f 64
        E 0 9c 43 64
        E 176 8c 4c 40
        E 0 8c 46 40
        E 0 8c 4f 40
        E 0 8c 43 40
        E 16 9c 46 64
        E 0 9c 4c 64
        E 0 9c 43 64
        E 0 9c 4f 64
        E 128 8c 46 40
        E 0 8c 4c 40
        E 0 8c 43 40
        E 0 8c 4f 40
        E 16 9c 46 64
        E 0 9c 43 64
        E 0 9c 4c 64
        E 0 9c 4f 64
        E 32 8c 46 40
        E 0 8c 43 40
        E 0 8c 4c 40
        E 0 8c 4f 40
        E 16 9c 46 64
        E 0 9c 43 64
        E 0 9c 4f 64
        E 0 9c 4c 64
        E 176 8c 46 40
        E 0 8c 43 40
        E 0 8c 4f 40
        E 0 8c 4c 40
        E 16 9c 3c 64
        E 0 9c 48 64
        E 0 9c 40 64
        E 176 8c 3c 40
        E 0 8c 48 40
        E 0 8c 40 40
        E 16 9c 48 64
        E 0 9c 43 64
        E 0 9c 4f 64
        E 0 9c 4c 64
        E 128 8c 48 40
        E 0 8c 43 40
        E 0 8c 4f 40
        E 0 8c 4c 40
        E 16 9c 42 64
        E 0 9c 4e 64
        E 32 8c 42 40
        E 0 8c 4e 40
        E 16 9c 43 64
        E 0 9c 4f 64
        E 80 8c 43 40
        E 0 8c 4f 40
        E 16 9c 45 64
        E 0 9c 51 64
        E 80 8c 45 40
        E 0 8c 51 40
        E 16 9c 46 64
        E 0 9c 52 64
        E 0 9c 4c 64
        E 0 9c 4f 64
        E 176 8c 46 40
        E 0 8c 52 40
        E 0 8c 4c 40
        E 0 8c 4f 40
        E 16 9c 4c 64
        E 0 9c 43 64
        E 0 9c 48 64
        E 0 9c 4f 64
        E 176 8c 4c 40
        E 0 8c 43 40
        E 0 8c 48 40
        E 0 8c 4f 40
        E 16 9c 45 64
        E 0 9c 51 64
        E 0 9c 4d 64
        E 128 8c 45 40
        E 0 8c 51 40
        E 0 8c 4d 40
        E 16 9c 4c 64
        E 0 9c 43 64
        E 0 9c 4f 64
        E 32 8c 4c 40
        E 0 8c 43 40
        E 0 8c 4f 40
        E 16 9c 45 64
        E 0 9c 4d 64
        E 0 9c 51 64
        E 80 8c 45 40
        E 0 8c 4d 40
        E 0 8c 51 40
        E 16 9c 46 64
        E 0 9c 52 64
        E 0 9c 4f 64
        E 80 8c 46 40
        E 0 8c 52 40
        E 0 8c 4f 40
        E 16 9c 48 64
        E 0 9c 51 64
        E 0 9c 54 64
        E 176 8c 48 40
        E 0 8c 51 40
        E 0 8c 54 40
        E 16 9c 4d 64
        E 0 9c 41 64
        E 0 9c 45 64
        E 176 8c 4d 40
        E 0 8c 41 40
        E 0 8c 45 40
        E 16 9c 43 64
        E 0 9c 4c 64
        E 0 9c 46 64
        E 0 9c 4f 64
        E 176 8c 43 40
        E 0 8c 4c 40
        E 0 8c 46 40
        E 0 8c 4f 40
        E 16 9c 46 64
        E 0 9c 52 64
        E 0 9c 4a 64
        E 176 8c 46 40
        E 0 8c 52 40
        E 0 8c 4a 40
        E 16 9c 45 64
        E 0 9c 51 64
        E 0 9c 48 64
        E 128 8c 45 40
        E 0 8c 51 40
        E 0 8c 48 40
        E 16 9c 4f 64
        E 0 9c 43 64
        E 32 8c 4f 40
        E 0 8c 43 40
        E 16 9c 46 64
        E 0 9c 4a 64
        E 0 9c 3e 64
        E 80 8c 46 40
        E 0 8c 4a 40
        E 0 8c 3e 40
        E 16 9c 40 64
        E 0 9c 46 64
        E 0 9c 4c 64
        E 80 8c 40 40
        E 0 8c 46 40
        E 0 8c 4c 40
        E 16 9c 41 64
        E 0 9c 45 64
        E 0 9c 4d 64
        E 0 9c 48 64
        E 176 8c 41 40
        E 0 8c 45 40
        E 0 8c 4d 40
        E 0 8c 48 40
        E 16 9c 45 64
        E 0 9c 41 64
        E 0 9c 4d 64
        E 0 9c 48 64
        E 128 8c 45 40
        E 0 8c 41 40
        E 0 8c 4d 40
        E 0 8c 48 40
        E 16 9c 41 64
        E 0 9c 45 64
        E 0 9c 4d 64
        E 0 9c 48 64
        E 32 8c 41 40
        E 0 8c 45 40
        E 0 8c 4d 40
        E 0 8c 48 40
        E 16 9c 41 64
        E 0 9c 4d 64
        E 0 9c 48 64
        E 0 9c 45 64
        E 176 8c 41 40
        E 0 8c 4d 40
        E 0 8c 48 40
        E 0 8c 45 40
        E 208 9c 41 64
        E 0 9c 4d 64
        E 176 8c 41 40
        E 0 8c 4d 40
        E 16 9c 4d 64
        E 0 9c 41 64
        E 128 8c 4d 40
        E 0 8c 41 40
        E 16 9c 40 64
        E 0 9c 4c 64
        E 32 8c 40 40
        E 0 8c 4c 40
        E 16 9c 3e 64
        E 0 9c 4a 64
        E 176 8c 3e 40
        E 0 8c 4a 40
        E 16 9c 4a 64
        E 0 9c 3e 64
        E 128 8c 4a 40
        E 0 8c 3e 40
        E 16 9c 48 64
        E 0 9c 3c 64
        E 32 8c 48 40
        E 0 8c 3c 40
        E 16 9c 3a 64
        E 0 9c 46 64
        E 176 8c 3a 40
        E 0 8c 46 40
        E 16 9c 3a 64
        E 0 9c 46 64
        E 128 8c 3a 40
        E 0 8c 46 40
        E 16 9c 45 64
        E 0 9c 39 64
        E 32 8c 45 40
        E 0 8c 39 40
        E 16 9c 37 64
        E 0 9c 43 64
        E 80 8c 37 40
        E 0 8c 43 40
        E 16 9c 41 64
        E 32 8c 41 40
        E 16 9c 43 64
        E 32 8c 43 40
        E 16 9c 45 64
        E 32 8c 45 40
        E 16 9c 46 64
        E 32 8c 46 40
        E 16 9c 48 64
        E 32 8c 48 40
        E 16 9c 4a 64
        E 32 8c 4a 40
        E 16 9c 40 64
        E 0 9c 43 64
        E 0 9c 4c 64
        E 176 8c 40 40
        E 0 8c 43 40
        E 0 8c 4c 40
        E 16 9c 4c 64
        E 0 9c 40 64
        E 128 8c 4c 40
        E 0 8c 40 40
        E 16 9c 3e 64
        E 0 9c 4a 64
        E 32 8c 3e 40
        E 0 8c 4a 40
        E 16 9c 3c 64
        E 0 9c 40 64
        E 0 9c 48 64
        E 176 8c 3c 40
        E 0 8c 40 40
        E 0 8c 48 40
        E 16 9c 48 64
        E 0 9c 40 64
        E 0 9c 3c 64
        E 128 8c 48 40
        E 0 8c 40 40
        E 0 8c 3c 40
        E 16 9c 46 64
        E 0 9c 3a 64
        E 0 9c 3e 64
        E 32 8c 46 40
        E 0 8c 3a 40
        E 0 8c 3e 40
        E 16 9c 39 64
        E 0 9c 3c 64
        E 0 9c 45 64
        E 176 8c 39 40
        E 0 8c 3c 40
        E 0 8c 45 40
        E 16 9c 45 64
        E 0 9c 3c 64
        E 0 9c 39 64
        E 128 8c 45 40
        E 0 8c 3c 40
        E 0 8c 39 40
        E 16 9c 3a 64
        E 0 9c 37 64
        E 0 9c 43 64
        E 32 8c 3a 40
        E 0 8c 37 40
        E 0 8c 43 40
        E 16 9c 39 64
        E 0 9c 41 64
        E 320 8c 39 40
        E 0 8c 41 40
        E 16 9c 4d 64
        E 0 9c 41 64
        E 32 8c 4d 40
        E 0 8c 41 40
        E 16 9c 4f 64
        E 0 9c 43 64
        E 0 9c 48 64
        E 176 8c 4f 40
        E 0 8c 43 40
        E 0 8c 48 40
        E 16 9c 51 64
        E 0 9c 45 64
        E 0 9c 48 64
        E 176 8c 51 40
        E 0 8c 45 40
        E 0 8c 48 40
        E 16 9c 46 64
        E 0 9c 4f 64
        E 0 9c 52 64
        E 0 9c 4c 64
        E 176 8c 46 40
        E 0 8c 4f 40
        E 0 8c 52 40
        E 0 8c 4c 40
        E 16 9c 4c 64
        E 0 9c 43 64
        E 0 9c 4f 64
        E 176 8c 4c 40
        E 0 8c 43 40
        E 0 8c 4f 40
        E 16 9c 4d 64
        E 0 9c 45 64
        E 0 9c 51 64
        E 176 8c 4d 40
        E 0 8c 45 40
        E 0 8c 51 40
        E 16 9c 46 64
        E 0 9c 52 64
        E 0 9c 4f 64
        E 176 8c 46 40
        E 0 8c 52 40
        E 0 8c 4f 40
        E 16 9c 51 64
        E 0 9c 48 64
        E 0 9c 54 64
        E 176 8c 51 40
        E 0 8c 48 40
        E 0 8c 54 40
        E 16 9c 52 64
        E 0 9c 4a 64
        E 0 9c 56 64
        E 176 8c 52 40
        E 0 8c 4a 40
        E 0 8c 56 40
        E 16 9c 4c 64
        E 0 9c 40 64
        E 0 9c 46 64
        E 80 8c 4c 40
        E 0 8c 40 40
        E 0 8c 46 40
        E 16 9c 48 64
        E 0 9c 3c 64
        E 80 8c 48 40
        E 0 8c 3c 40
        E 16 9c 4a 64
        E 0 9c 3e 64
        E 80 8c 4a 40
        E 0 8c 3e 40
        E 16 9c 4d 64
        E 0 9c 41 64
        E 80 8c 4d 40
        E 0 8c 41 40
        E 16 9c 40 64
        E 0 9c 4c 64
        E 80 8c 40 40
        E 0 8c 4c 40
        E 16 9c 48 64
        E 0 9c 3c 64
        E 80 8c 48 40
        E 0 8c 3c 40
        E 16 9c 4a 64
        E 0 9c 3e 64
        E 80 8c 4a 40
        E 0 8c 3e 40
        E 16 9c 4c 64
        E 0 9c 40 64
        E 80 8c 4c 40
        E 0 8c 40 40
        E 16 9c 4d 64
        E 0 9c 45 64
        E 0 9c 41 64
        E 80 8c 4d 40
        E 0 8c 45 40
        E 0 8c 41 40
        E 16 9c 41 64
        E 0 9c 4d 64
        E 32 8c 41 40
        E 0 8c 4d 40
        E 16 9c 41 64
        E 0 9c 4d 64
        E 32 8c 41 40
        E 0 8c 4d 40
        E 16 9c 41 64
        E 0 9c 4d 64
        E 80 8c 41 40
        E 0 8c 4d 40
        E 16 9c 4d 64
        E 0 9c 41 64
        E 80 8c 4d 40
        E 0 8c 41 40
        E 16 9c 41 64
        E 0 9c 4d 64
        E 80 8c 41 40
        E 0 8c 4d 40
        E 16 9c 41 64
        E 0 9c 4d 64
        E 80 8c 41 40
        E 0 8c 4d 40
        E 16 9c 41 64
        E 0 9c 4d 64
        E 80 8c 41 40
        E 0 8c 4d 40
        E 16 9c 4d 64
        E 0 9c 41 64
        E 80 8c 4d 40
        E 0 8c 41 40
        E 16 9c 3c 64
        E 0 9c 48 64
        E 0 9c 41 64
        E 0 9c 45 64
        E 176 8c 3c 40
        E 0 8c 48 40
        E 0 8c 41 40
        E 0 8c 45 40
        E 16 9c 41 64
        E 0 9c 4d 64
        E 0 9c 4a 64
        E 128 8c 41 40
        E 0 8c 4d 40
        E 0 8c 4a 40
        E 16 9c 40 64
        E 0 9c 4c 64
        E 32 8c 40 40
        E 0 8c 4c 40
        E 16 9c 41 64
        E 0 9c 4d 64
        E 0 9c 48 64
        E 80 8c 48 40
        E 16 9c 46 64
        E 80 8c 41 40
        E 0 8c 4d 40
        E 0 8c 46 40
        E 16 9c 3c 64
        E 0 9c 48 64
        E 0 9c 45 64
        E 80 8c 45 40
        E 16 9c 43 64
        E 80 8c 3c 40
        E 0 8c 48 40
        E 0 8c 43 40
        E 16 9c 4d 64
        E 0 9c 48 64
        E 0 9c 41 64
        E 176 8c 4d 40
        E 0 8c 48 40
        E 0 8c 41 40
        E 16 9c 4f 64
        E 0 9c 43 64
        E 0 9c 48 64
        E 80 8c 4f 40
        E 0 8c 43 40
        E 0 8c 48 40
        E 16 9c 45 64
        E 0 9c 51 64
        E 0 9c 48 64
        E 80 8c 45 40
        E 0 8c 51 40
        E 0 8c 48 40
        E 16 9c 48 64
        E 0 9c 51 64
        E 0 9c 45 64
        E 176 8c 48 40
        E 0 8c 51 40
        E 0 8c 45 40
        E 16 9c 4f 64
        E 0 9c 43 64
        E 0 9c 48 64
        E 80 8c 4f 40
        E 0 8c 43 40
        E 0 8c 48 40
        E 16 9c 41 64
        E 0 9c 4d 64
        E 80 8c 41 40
        E 0 8c 4d 40
        E 16 9c 40 64
        E 0 9c 48 64
        E 0 9c 4c 64
        E 176 8c 40 40
        E 0 8c 48 40
        E 0 8c 4c 40
        E 16 9c 4d 64
        E 0 9c 41 64
        E 0 9c 48 64
        E 80 8c 4d 40
        E 0 8c 41 40
        E 0 8c 48 40
        E 16 9c 4f 64
        E 0 9c 43 64
        E 0 9c 48 64
        E 80 8c 4f 40
        E 0 8c 43 40
        E 0 8c 48 40
        E 16 9c 4c 64
        E 0 9c 43 64
        E 0 9c 4f 64
        E 368 8c 4c 40
        E 0 8c 43 40
        E 0 8c 4f 40
        E 16 9c 4f 64
        E 0 9c 43 64
        E 0 9c 46 64
        E 176 8c 4f 40
        E 0 8c 43 40
        E 0 8c 46 40
        E 16 9c 43 64
        E 0 9c 46 64
        E 0 9c 4f 64
        E 128 8c 43 40
        E 0 8c 46 40
        E 0 8c 4f 40
        E 16 9c 43 64
        E 0 9c 4f 64
        E 32 8c 43 40
        E 0 8c 4f 40
        E 16 9c 43 64
        E 0 9c 4f 64
        E 176 8c 43 40
        E 0 8c 4f 40
        E 16 9c 3c 64
        E 0 9c 48 64
        E 176 8c 3c 40
        E 0 8c 48 40
        E 16 9c 43 64
        E 0 9c 4f 64
        E 0 9c 4c 64
        E 0 9c 48 64
        E 128 8c 43 40
        E 0 8c 4f 40
        E 0 8c 4c 40
        E 0 8c 48 40
        E 16 9c 42 64
        E 0 9c 4e 64
        E 32 8c 42 40
        E 0 8c 4e 40
        E 16 9c 43 64
        E 0 9c 4f 64
        E 80 8c 43 40
        E 0 8c 4f 40
        E 16 9c 51 64
        E 0 9c 45 64
        E 80 8c 51 40
        E 0 8c 45 40
        E 16 9c 46 64
        E 0 9c 4f 64
        E 0 9c 52 64
        E 176 8c 46 40
        E 0 8c 4f 40
        E 0 8c 52 40
        E 16 9c 43 64
        E 0 9c 4c 64
        E 0 9c 4f 64
        E 0 9c 48 64
        E 176 8c 43 40
        E 0 8c 4c 40
        E 0 8c 4f 40
        E 0 8c 48 40
        E 16 9c 45 64
        E 0 9c 51 64
        E 0 9c 4d 64
        E 128 8c 45 40
        E 0 8c 51 40
        E 0 8c 4d 40
        E 16 9c 43 64
        E 0 9c 4f 64
        E 32 8c 43 40
        E 0 8c 4f 40
        E 16 9c 45 64
        E 0 9c 51 64
        E 80 8c 45 40
        E 0 8c 51 40
        E 16 9c 52 64
        E 0 9c 46 64
        E 80 8c 52 40
        E 0 8c 46 40
        E 16 9c 48 64
        E 0 9c 54 64
        E 176 8c 48 40
        E 0 8c 54 40
        E 16 9c 41 64
        E 0 9c 4d 64
        E 0 9c 48 64
        E 176 8c 41 40
        E 0 8c 4d 40
        E 0 8c 48 40
        E 16 9c 43 64
        E 0 9c 46 64
        E 0 9c 4f 64
        E 176 8c 43 40
        E 0 8c 46 40
        E 0 8c 4f 40
        E 16 9c 46 64
        E 0 9c 52 64
        E 0 9c 4f 64
        E 176 8c 46 40
        E 0 8c 52 40
        E 0 8c 4f 40
        E 16 9c 51 64
        E 0 9c 45 64
        E 0 9c 4d 64
        E 80 8c 51 40
        E 0 8c 45 40
        E 0 8c 4d 40
        E 16 9c 4f 64
        E 0 9c 43 64
        E 80 8c 4f 40
        E 0 8c 43 40
        E 16 9c 3e 64
        E 0 9c 4a 64
        E 0 9c 41 64
        E 80 8c 3e 40
        E 0 8c 4a 40
        E 0 8c 41 40
        E 16 9c 40 64
        E 0 9c 4c 64
        E 0 9c 43 64
        E 80 8c 40 40
        E 0 8c 4c 40
        E 0 8c 43 40
        E 16 9c 4d 64
        E 0 9c 45 64
        E 0 9c 41 64
        E 176 8c 4d 40
        E 0 8c 45 40
        E 0 8c 41 40
        E 16 9c 4d 64
        E 0 9c 41 64
        E 0 9c 45 64
        E 128 8c 4d 40
        E 0 8c 41 40
        E 0 8c 45 40
        E 16 9c 45 64
        E 0 9c 4d 64
        E 0 9c 41 64
        E 32 8c 45 40
        E 0 8c 4d 40
        E 0 8c 41 40
        E 16 9c 45 64
        E 0 9c 41 64
        E 0 9c 4d 64
        E 176 8c 45 40
        E 0 8c 41 40
        E 0 8c 4d 40
        E 16 b0 7b 00
        GUID {A7A9874C-E794-DF41-A75A-DEAF6A2E05CA}
        IGNTEMPO 0 120 4 4
        SRCCOLOR 203
        VELLANE -1 86 6
      >
    >
    <ITEM
      POSITION 0
      SNAPOFFS 0
      LENGTH 47.5
      LOOP 1
      ALLTAKES 0
      FADEIN 1 0 0 1 0 0
      FADEOUT 1 0 0 1 0 0
      MUTE 0
      SEL 0
      YPOS 0.833333 0.166667
      IGUID {1027200B-11C6-484C-AA27-1A3070B9CD21}
      IID 6
      NAME "New Track            - National_Anthems_-_United_Arab_Emirates.mid"
      VOLPAN 1 0 1 -1
      SOFFS 0 0
      PLAYRATE 1 1 0 -1 0 0.0025
      CHANMODE 0
      GUID {30007347-3440-BA46-949A-7F42065305DB}
      <SOURCE MIDI
        HASDATA 1 192 QN
        POOLEDEVTS {0DD28A78-F2F5-094A-890D-E8D0F8DE7411}
        <X 0 0
          /wNOZXcgVHJhY2sgICAgICAgICAgIA==
        >
        E 0 9d 35 64
        E 0 9d 29 64
        E 560 8d 35 40
        E 0 8d 29 40
        E 16 9d 3a 64
        E 0 9d 2e 64
        E 176 8d 3a 40
        E 0 8d 2e 40
        E 16 9d 2d 64
        E 0 9d 39 64
        E 176 8d 2d 40
        E 0 8d 39 40
        E 16 9d 2b 64
        E 0 9d 37 64
        E 176 8d 2b 40
        E 0 8d 37 40
        E 16 9d 29 64
        E 0 9d 35 64
        E 176 8d 29 40
        E 0 8d 35 40
        E 16 9d 37 64
        E 0 9d 2b 64
        E 80 8d 37 40
        E 0 8d 2b 40
        E 16 9d 24 64
        E 0 9d 30 64
        E 80 8d 24 40
        E 0 8d 30 40
        E 16 9d 24 64
        E 0 9d 30 64
        E 368 8d 24 40
        E 0 8d 30 40
        E 16 9d 3c 64
        E 0 9d 30 64
        E 80 8d 3c 40
        E 0 8d 30 40
        E 16 9d 3c 64
        E 0 9d 30 64
        E 16 8d 3c 40
        E 0 8d 30 40
        E 16 9d 3c 64
        E 0 9d 30 64
        E 16 8d 3c 40
        E 0 8d 30 40
        E 16 9d 3c 64
        E 0 9d 30 64
        E 16 8d 3c 40
        E 0 8d 30 40
        E 16 9d 30 64
        E 0 9d 3c 64
        E 80 8d 30 40
        E 0 8d 3c 40
        E 16 9d 30 64
        E 0 9d 3c 64
        E 80 8d 30 40
        E 0 8d 3c 40
        E 16 9d 28 64
        E 0 9d 34 64
        E 176 8d 28 40
        E 0 8d 34 40
        E 16 9d 30 64
        E 0 9d 24 64
        E 176 8d 30 40
        E 0 8d 24 40
        E 16 9d 2e 64
        E 0 9d 3a 64
        E 80 8d 2e 40
        E 0 8d 3a 40
        E 16 9d 30 64
        E 0 9d 3c 64
        E 80 8d 30 40
        E 0 8d 3c 40
        E 16 9d 28 64
        E 0 9d 34 64
        E 80 8d 28 40
        E 0 8d 34 40
        E 16 9d 2b 64
        E 0 9d 37 64
        E 80 8d 2b 40
        E 0 8d 37 40
        E 16 9d 24 64
        E 0 9d 30 64
        E 464 8d 24 40
        E 0 8d 30 40
        E 16 9d 24 64
        E 0 9d 30 64
        E 80 8d 24 40
        E 0 8d 30 40
        E 16 9d 28 64
        E 0 9d 34 64
        E 80 8d 28 40
        E 0 8d 34 40
        E 16 9d 37 64
        E 0 9d 2b 64
        E 80 8d 37 40
        E 0 8d 2b 40
        E 16 9d 29 64
        E 0 9d 35 64
        E 464 8d 29 40
        E 0 8d 35 40
        E 16 9d 30 64
        E 0 9d 3c 64
        E 80 8d 30 40
        E 0 8d 3c 40
        E 16 9d 2d 64
        E 0 9d 39 64
        E 80 8d 2d 40
        E 0 8d 39 40
        E 16 9d 29 64
        E 0 9d 35 64
        E 80 8d 29 40
        E 0 8d 35 40
        E 16 9d 24 64
        E 0 9d 30 64
        E 368 8d 24 40
        E 0 8d 30 40
        E 16 9d 28 64
        E 0 9d 34 64
        E 368 8d 28 40
        E 0 8d 34 40
        E 16 9d 29 64
        E 0 9d 30 64
        E 0 9d 35 64
        E 176 8d 29 40
        E 0 8d 30 40
        E 0 8d 35 40
        E 16 9d 30 64
        E 0 9d 35 64
        E 0 9d 29 64
        E 128 8d 30 40
        E 0 8d 35 40
        E 0 8d 29 40
        E 16 9d 30 64
        E 0 9d 35 64
        E 0 9d 29 64
        E 32 8d 30 40
        E 0 8d 35 40
        E 0 8d 29 40
        E 16 9d 29 64
        E 0 9d 30 64
        E 0 9d 35 64
        E 176 8d 29 40
        E 0 8d 30 40
        E 0 8d 35 40
        E 208 9d 29 64
        E 0 9d 35 64
        E 272 8d 29 40
        E 0 8d 35 40
        E 112 9d 2e 64
        E 0 9d 3a 64
        E 272 8d 2e 40
        E 0 8d 3a 40
        E 112 9d 34 64
        E 0 9d 28 64
        E 272 8d 34 40
        E 0 8d 28 40
        E 112 9d 24 64
        E 0 9d 30 64
        E 272 8d 24 40
        E 0 8d 30 40
        E 112 9d 30 64
        E 0 9d 24 64
        E 560 8d 30 40
        E 0 8d 24 40
        E 208 9d 35 64
        E 0 9d 29 64
        E 560 8d 35 40
        E 0 8d 29 40
        E 208 9d 37 64
        E 0 9d 2b 64
        E 176 8d 37 40
        E 0 8d 2b 40
        E 16 9d 29 64
        E 0 9d 35 64
        E 176 8d 29 40
        E 0 8d 35 40
        E 16 9d 34 64
        E 0 9d 28 64
        E 176 8d 34 40
        E 0 8d 28 40
        E 16 9d 24 64
        E 0 9d 30 64
        E 176 8d 24 40
        E 0 8d 30 40
        E 16 9d 35 64
        E 0 9d 29 64
        E 176 8d 35 40
        E 0 8d 29 40
        E 16 9d 37 64
        E 0 9d 2b 64
        E 176 8d 37 40
        E 0 8d 2b 40
        E 16 9d 39 64
        E 0 9d 2d 64
        E 176 8d 39 40
        E 0 8d 2d 40
        E 16 9d 2e 64
        E 0 9d 3a 64
        E 176 8d 2e 40
        E 0 8d 3a 40
        E 16 9d 30 64
        E 0 9d 3c 64
        E 272 8d 30 40
        E 0 8d 3c 40
        E 16 9d 3e 64
        E 0 9d 32 64
        E 80 8d 3e 40
        E 0 8d 32 40
        E 16 9d 30 64
        E 0 9d 3c 64
        E 80 8d 30 40
        E 0 8d 3c 40
        E 16 9d 2e 64
        E 0 9d 3a 64
        E 80 8d 2e 40
        E 0 8d 3a 40
        E 16 9d 2d 64
        E 0 9d 39 64
        E 80 8d 2d 40
        E 0 8d 39 40
        E 16 9d 2b 64
        E 0 9d 37 64
        E 80 8d 2b 40
        E 0 8d 37 40
        E 16 9d 35 64
        E 0 9d 29 64
        E 80 8d 35 40
        E 0 8d 29 40
        E 16 9d 29 64
        E 0 9d 35 64
        E 80 8d 29 40
        E 0 8d 35 40
        E 16 9d 28 64
        E 0 9d 34 64
        E 80 8d 28 40
        E 0 8d 34 40
        E 16 9d 26 64
        E 0 9d 32 64
        E 80 8d 26 40
        E 0 8d 32 40
        E 16 9d 24 64
        E 0 9d 30 64
        E 80 8d 24 40
        E 0 8d 30 40
        E 16 9d 2e 64
        E 0 9d 3a 64
        E 80 8d 2e 40
        E 0 8d 3a 40
        E 16 9d 2d 64
        E 0 9d 39 64
        E 80 8d 2d 40
        E 0 8d 39 40
        E 16 9d 2b 64
        E 0 9d 37 64
        E 80 8d 2b 40
        E 0 8d 37 40
        E 16 9d 29 64
        E 0 9d 35 64
        E 176 8d 29 40
        E 0 8d 35 40
        E 16 9d 2b 64
        E 0 9d 37 64
        E 176 8d 2b 40
        E 0 8d 37 40
        E 16 9d 29 64
        E 0 9d 35 64
        E 176 8d 29 40
        E 0 8d 35 40
        E 16 9d 2e 64
        E 0 9d 3a 64
        E 176 8d 2e 40
        E 0 8d 3a 40
        E 16 9d 2d 64
        E 0 9d 39 64
        E 176 8d 2d 40
        E 0 8d 39 40
        E 16 9d 2b 64
        E 0 9d 37 64
        E 176 8d 2b 40
        E 0 8d 37 40
        E 16 9d 29 64
        E 0 9d 35 64
        E 176 8d 29 40
        E 0 8d 35 40
        E 16 9d 2b 64
        E 0 9d 37 64
        E 80 8d 2b 40
        E 0 8d 37 40
        E 16 9d 2d 64
        E 0 9d 39 64
        E 80 8d 2d 40
        E 0 8d 39 40
        E 16 9d 3c 64
        E 0 9d 30 64
        E 176 8d 3c 40
        E 0 8d 30 40
        E 16 9d 30 64
        E 0 9d 3c 64
        E 80 8d 30 40
        E 0 8d 3c 40
        E 16 9d 30 64
        E 0 9d 3c 64
        E 80 8d 30 40
        E 0 8d 3c 40
        E 16 9d 2e 64
        E 0 9d 3a 64
        E 80 8d 2e 40
        E 0 8d 3a 40
        E 16 9d 24 64
        E 0 9d 30 64
        E 80 8d 24 40
        E 0 8d 30 40
        E 16 9d 34 64
        E 0 9d 28 64
        E 80 8d 34 40
        E 0 8d 28 40
        E 16 9d 2b 64
        E 0 9d 37 64
        E 80 8d 2b 40
        E 0 8d 37 40
        E 16 9d 3a 64
        E 0 9d 2e 64
        E 80 8d 3a 40
        E 0 8d 2e 40
        E 16 9d 39 64
        E 0 9d 2d 64
        E 80 8d 39 40
        E 0 8d 2d 40
        E 16 9d 2b 64
        E 0 9d 37 64
        E 80 8d 2b 40
        E 0 8d 37 40
        E 16 9d 29 64
        E 0 9d 35 64
        E 80 8d 29 40
        E 0 8d 35 40
        E 16 9d 3a 64
        E 0 9d 2e 64
        E 80 8d 3a 40
        E 0 8d 2e 40
        E 16 9d 30 64
        E 0 9d 3c 64
        E 80 8d 30 40
        E 0 8d 3c 40
        E 16 9d 28 64
        E 0 9d 34 64
        E 80 8d 28 40
        E 0 8d 34 40
        E 16 9d 2b 64
        E 0 9d 37 64
        E 80 8d 2b 40
        E 0 8d 37 40
        E 16 9d 30 64
        E 0 9d 24 64
        E 464 8d 30 40
        E 0 8d 24 40
        E 16 9d 24 64
        E 0 9d 30 64
        E 80 8d 24 40
        E 0 8d 30 40
        E 16 9d 28 64
        E 0 9d 34 64
        E 80 8d 28 40
        E 0 8d 34 40
        E 16 9d 2b 64
        E 0 9d 37 64
        E 80 8d 2b 40
        E 0 8d 37 40
        E 16 9d 29 64
        E 0 9d 35 64
        E 464 8d 29 40
        E 0 8d 35 40
        E 16 9d 30 64
        E 0 9d 3c 64
        E 80 8d 30 40
        E 0 8d 3c 40
        E 16 9d 2d 64
        E 0 9d 39 64
        E 80 8d 2d 40
        E 0 8d 39 40
        E 16 9d 35 64
        E 0 9d 29 64
        E 80 8d 35 40
        E 0 8d 29 40
        E 16 9d 28 64
        E 0 9d 34 64
        E 368 8d 28 40
        E 0 8d 34 40
        E 16 9d 24 64
        E 0 9d 30 64
        E 368 8d 24 40
        E 0 8d 30 40
        E 16 9d 29 64
        E 0 9d 35 64
        E 176 8d 29 40
        E 0 8d 35 40
        E 16 9d 29 64
        E 0 9d 35 64
        E 128 8d 29 40
        E 0 8d 35 40
        E 16 9d 29 64
        E 0 9d 35 64
        E 32 8d 29 40
        E 0 8d 35 40
        E 16 9d 29 64
        E 0 9d 35 64
        E 176 8d 29 40
        E 0 8d 35 40
        E 16 b0 7b 00
        GUID {9DB25ADF-2CCE-E043-9573-0136CCEAFC8F}
        IGNTEMPO 0 120 4 4
        SRCCOLOR 204
        VELLANE -1 86 6
        CFGEDITVIEW 9364.427665 755.447688 64 12 0 0 0 0 0 0.5
        KEYSNAP 0
        TRACKSEL 252 0 0 ""
        EVTFILTER 0 -1 -1 -1 -1 0 0 0 0 -1 -1 -1 -1 0 -1 0 -1 -1
        CFGEDIT 1 0 0 0 0 0 1 0 1 1 1 0.25 285 20 1280 633 0 0 2 3 0 0 0 0 0 0.5 0 0 1 64
      >
    >
  >
  <TRACK {F23F8223-271A-294D-A229-F474D58B7A97}
    NAME "vst Gladiator"
    PEAKCOL 27222112
    BEAT -1
    AUTOMODE 0
    VOLPAN 1 0 -1 -1 1
    MUTESOLO 0 0 0
    IPHASE 0
    ISBUS 0 0
    BUSCOMP 2 0
    SHOWINMIX 1 0.6667 0.377358 1 0.5 0 0 0
    FREEMODE 0
    SEL 1
    REC 0 0 0 0 0 0 0
    VU 2
    TRACKHEIGHT 1 0
    INQ 0 0 0 0.5 100 0 0 100
    NCHAN 2
    FX 1
    TRACKID {F23F8223-271A-294D-A229-F474D58B7A97}
    PERF 0
    MIDIOUT -1
    MAINSEND 1 0
    <FXCHAIN
      WNDRECT 528 36 724 387
      SHOW 0
      LASTSEL 0
      DOCKED 0
      BYPASS 0 0 0
      <VST "VSTi: Gladiator (Tone2.com)" Gladiator.vst 0 "" 1412581196
        TEcyVO5e7f4AAAAAAgAAAAEAAAAAAAAAAgAAAAAAAABaBAAAAQAAAAAAEAA=
        Q2NuSwAAAGBGeENrAAAAAVQyR0wAAAABAAABB0luaXQAAAAAAAAAAAAAAAAAAAAAAAAAAAAAAAA9zMzNPMzMzTw0OVg9uFH0PXnbIz+AAAA7xJumPb52yT+AAAA7xJum
        AAAAAD6mZmY+PXCkP4AAAD8AAAA/AAAAPwAAAAAAAAA9ffO2PdDlYDy8an8/RR64AAAAAD+AAAA8NDlYPZFocz71wo87RJumPbhR6D69cKQ+PXCkP4AAAD7o9cM/AAAA
        PwAAAAAAAAAAAAAAPwAAAD8AAAA/AAAAPtmZmj8AAAAAAAAAO+VgQj4j1woAAAAAPk21xDtEm6Y/T1woPUzMzD8nr+E+1wnuAAAAAD1hR7A/KPXCPo9cKAAAAAA/AAAA
        PwAAAAAAAAAAAAAAPwAAAAAAAAAAAAAAP4AAAD+AAAAAAAAAPwZmmD8AAAA/AAAAPwAAAD8AAAAAAAAAPwAAAD8AAAA/AAAAAAAAAD8AAAA/AAAAPwAAAAAAAAA6gxJv
        P1Cj1wAAAAA/gAAAAAAAADqDEm8/AAAAAAAAAAAAAAAAAAAAPwAAAAAAAAA/gAAAAAAAAD+AAAAAAAAAPwAAAD8AAAA/AAAAPwAAAD8AAAA/AAAAPwAAAD8AAAA/AAAA
        PwAAAD8AAAA/EeuGPKPXCjqDEm88RJumAAAAAAAAAAAAAAAAPLxqfwAAAAAAAAAAAAAAAAAAAAAAAAAAAAAAAAAAAAAAAAAAAAAAAAAAAAAAAAAAAAAAAAAAAAAAAAAA
        AAAAAAAAAAA8E3S8AAAAADw0OVgAAAAAPBN0vAAAAAA8NDlYAAAAADwTdLwAAAAAPDQ5WAAAAAA8E3S8AAAAADw0OVgAAAAAPGVgQj2HKwI8ZWBCOwMSbz2JN0w7AxJv
        PLQ5WDyLQ5Y8k3S8PVT99D0XjVA8zMzNPoAAAD9ywjU/AAAAP1GnuT8wjT4/HLCNAAAAADsDEm86gxJvAAAAAAAAAAAAAAAAPwAAADqDEm87RJumP4AAAAAAAAA/gAAA
        AAAAAD+AAAAAAAAAAAAAAAAAAAAAAAAAP4AAAAAAAAA/AAAAAAAAAD8AAAA/AAAAPwAAAD+AAAA/AAAAPwAAAD8AAAA/gAAAP4AAAAAAAAAAAAAAAAAAAD8AAAA/gAAA
        PwAAAAAAAAA+vXCkAAAAAAAAAAA/gAAAP4AAAD8j1wo/gAAAAAAAAAAAAAA/gAAAPwAAAAAAAAAAAAAAAAAAAAAAAAAAAAAAAAAAAAAAAAAAAAAAAAAAAAAAAAAAAAAA
        AAAAAD8AAAA/AAAAPwAAAD8AAAA/AAAAPwAAAAAAAAAAAAAAP4AAAAAAAAAAAAAAAAAAAAAAAAAAAAAAAAAAAAAAAAAAAAAAAAAAAAAAAAAAAAAAAAAAAAAAAAAAAAAA
        AAAAAAAAAAAAAAAAAAAAAAAAAAAAAAAAAAAAAAAAAAAAAAAAAAAAAAAAAAAAAAAAAAAAAAAAqqusrQ==
        AAAQAAAA
      >
      FLOATPOS 293 0 987 778
      FXID {532372E3-5B0D-9345-A9C8-98A8EBAF9A7E}
      WAK 0
      BYPASS 0 0 0
      <VST "VST: 8-Bit Shaper (Xfer Records)" 8BitShaper.vst 0 "" 1148539762
        clN1RO5e7f4CAAAAAQAAAAAAAAACAAAAAAAAAAIAAAABAAAAAAAAAAIAAAAAAAAANAIAAAEAAAAAABAA
        ZmaGP20MlT7dQQw/AAAAPyQAL/8AAIA/Ly8v/y8vL/8XAAAAMAAAABkAAAAaAAAAGgAAABoAAAAbAAAAGwAAABwAAAAcAAAAHAAAAB0AAAAdAAAAHgAAAB4AAAAfAAAA
        HwAAACAAAAAgAAAAIAAAACEAAAAhAAAAIQAAACIAAAAiAAAAIgAAACMAAAAjAAAAIwAAACQAAAAkAAAAJAAAACUAAAAlAAAAKAAAACgAAAApAAAAKQAAACoAAAA1AAAA
        KgAAACoAAAA2AAAAKgAAACoAAAAqAAAAKgAAACoAAAAqAAAAKgAAACsAAAArAAAAOQAAAC0AAAA0AAAAOgAAAC0AAAAtAAAAPAAAAC4AAAAuAAAALwAAADAAAAAwAAAA
        MQAAADEAAAAxAAAAMgAAADMAAAAzAAAAMwAAADcAAAA3AAAANwAAADgAAAA4AAAAOAAAADkAAAA5AAAAOQAAADoAAAA6AAAAOgAAADoAAAA6AAAAOwAAADsAAAA7AAAA
        PAAAADsAAAA7AAAAOwAAADwAAAA8AAAAPAAAADwAAAA9AAAAPQAAAD0AAAA9AAAAPQAAAD4AAAA+AAAAPwAAAEkAAABAAAAAQAAAAEgAAABAAAAAQQAAAEIAAABCAAAA
        QgAAAEMAAABDAAAAQwAAAEQAAABEAAAARQAAAE0AAABGAAAARwAAAEYAAABHAAAASAAAAEgAAABJAAAATwAAAAAAgD+rqqo+q6qqPh0Fwz6OAm0/
        AEluaXQgMQAQAAAA
      >
      PRESETNAME "Init 1"
      FLOATPOS 0 0 0 0
      FXID {9514B2DC-3C2E-9240-BEF6-0C72EF11EB6D}
      WAK 0
    >
  >
  <TRACK {4A6CD977-ADCC-3A4D-927C-BB2CEF4B0809}
    NAME "vst Gladiator"
    PEAKCOL 27222112
    BEAT -1
    AUTOMODE 0
    VOLPAN 0.39600150758095 0 -1 -1 1
    MUTESOLO 0 0 0
    IPHASE 0
    ISBUS 0 0
    BUSCOMP 2 0
    SHOWINMIX 1 0.6667 0.5 1 0.5 0 0 0
    FREEMODE 0
    SEL 0
    REC 0 0 0 0 0 0 0
    VU 2
    TRACKHEIGHT 0 0
    INQ 0 0 0 0.5 100 0 0 100
    NCHAN 2
    FX 1
    TRACKID {4A6CD977-ADCC-3A4D-927C-BB2CEF4B0809}
    PERF 0
    MIDIOUT -1
    MAINSEND 1 0
    <FXCHAIN
      SHOW 0
      LASTSEL 0
      DOCKED 0
      BYPASS 0 0 0
      <VST "VSTi: Gladiator (Tone2.com)" Gladiator.vst 0 "" 1412581196
        TEcyVO5e7f4AAAAAAgAAAAEAAAAAAAAAAgAAAAAAAABaBAAAAQAAAAAAEAA=
        Q2NuSwAAAGBGeENrAAAAAVQyR0wAAAABAAABB0luaXQAAAAAAAAAAAAAAAAAAAAAAAAAAAAAAAA9zMzNPMzMzTw0OVg9uFH0PXnbIz+AAAA7xJumPb52yT+AAAA7xJum
        AAAAAD6mZmY+PXCkP4AAAD7FHrk/AAAAPwAAAAAAAAA9ffO2PdDlYDy8an8/RR64AAAAAD+AAAA8NDlYPZFocz71wo87RJumPbhR6D69cKQ+PXCkP4AAAD8AAAA/A9cL
        PwAAAAAAAAAAAAAAPwAAAD8AAAA/AAAAPtmZmj8AAAAAAAAAO+VgQj24UesAAAAAPk21xDtEm6Y/S4UeAAAAAAAAAAA+64UgPpR64T1hR7A+z1woPx64Uj49cKY/AAAA
        PwAAAAAAAAAAAAAAPwAAAAAAAAAAAAAAP4AAAD+AAAAAAAAAPxHrhT8AAAA/AAAAPwAAAD8AAAAAAAAAPwAAAD8AAAA/AAAAAAAAAD8AAAA/AAAAPwAAAAAAAAA6gxJv
        P1Cj1wAAAAA/gAAAAAAAADqDEm8/AAAAAAAAAAAAAAAAAAAAPwAAAAAAAAA/gAAAAAAAAD+AAAAAAAAAPwAAAD8AAAA/AAAAPwAAAD8AAAA/AAAAPwAAAD8AAAA/AAAA
        PwAAAD8AAAA/EeuGPKPXCjqDEm88RJumAAAAAAAAAAAAAAAAPLxqfwAAAAAAAAAAAAAAAAAAAAAAAAAAAAAAAAAAAAAAAAAAAAAAAAAAAAAAAAAAAAAAAAAAAAAAAAAA
        AAAAAAAAAAA8E3S8AAAAADw0OVgAAAAAPBN0vAAAAAA8NDlYAAAAADwTdLwAAAAAPDQ5WAAAAAA8E3S8AAAAADw0OVgAAAAAPGVgQj2HKwI8ZWBCOwMSbz2JN0w7AxJv
        PLQ5WDyLQ5Y8k3S8PVT99D0XjVA8zMzNPoAAAD9ywjU/AAAAP1GnuT8wjT4/HLCNAAAAADsDEm86gxJvAAAAAAAAAAAAAAAAPwAAADqDEm87RJumP4AAAAAAAAA/gAAA
        AAAAAD+AAAAAAAAAAAAAAAAAAAAAAAAAP4AAAAAAAAA/AAAAAAAAAD8AAAA/BR64PwAAAD+AAAA/AAAAPwAAAD8AAAA/gAAAP4AAAAAAAAAAAAAAAAAAAD8AAAA/gAAA
        PwAAAAAAAAA+vXCkAAAAAAAAAAA/gAAAP4AAAD8j1wo/gAAAAAAAAAAAAAA/gAAAPwAAAAAAAAAAAAAAAAAAAAAAAAAAAAAAAAAAAAAAAAAAAAAAAAAAAAAAAAAAAAAA
        AAAAAD8AAAA/AAAAPwAAAD8AAAA/AAAAPwAAAAAAAAAAAAAAP4AAAAAAAAAAAAAAAAAAAAAAAAAAAAAAAAAAAAAAAAAAAAAAAAAAAAAAAAAAAAAAAAAAAAAAAAAAAAAA
        AAAAAAAAAAAAAAAAAAAAAAAAAAAAAAAAAAAAAAAAAAAAAAAAAAAAAAAAAAAAAAAAAAAAAAAAqqusrQ==
        AAAQAAAA
      >
      FLOATPOS 500 379 987 799
      FXID {532372E3-5B0D-9345-A9C8-98A8EBAF9A7E}
      WAK 0
    >
    <ITEM
      POSITION 0
      SNAPOFFS 0
      LENGTH 47.5
      LOOP 1
      ALLTAKES 0
      FADEIN 1 0 0 1 0 0
      FADEOUT 1 0 0 1 0 0
      MUTE 0
      SEL 0
      YPOS 0 0.166667
      IGUID {7655FAB5-97E1-F140-8084-12C9FC463538}
      IID 1
      NAME "R.H.                 - National_Anthems_-_United_Arab_Emirates.mid"
      VOLPAN 1 0 1 -1
      SOFFS 0 0
      PLAYRATE 1 1 0 -1 0 0.0025
      CHANMODE 0
      GUID {F72AD800-C93A-F146-BE0B-5080D66848EC}
      <SOURCE MIDI
        HASDATA 1 192 QN
        POOLEDEVTS {6961F17A-4756-414A-A1CB-4101E90A65F2}
        <X 0 0
          /wNSLkguICAgICAgICAgICAgICAgIA==
        >
        <X 0 0
          /wFUSEUgU09GVFdBUkUgVE9PTFdPUktT
        >
        <X 0 0
          /wFXT1JMRCBBVExBUw==
        >
        <X 0 0
          /wFNdWx0aU1lZGlhIFdpbmRvd3MgVmVyc2lvbg==
        >
        <X 0 0
          /wFDb3VudHJ5OiBVTklURUQgQVJBQiBFTUlSQVRFUw==
        >
        <X 0 0
          /wFBbnRoZW0gTmFtZTo=
        >
        <X 0 0
          /wEocCkgKGMpIFRoZSBTb2Z0d2FyZSBUb29sd29ya3MgMTk5MQ==
        >
        <X 0 0
          /wFlZGl0IGRhdGU6IDktMTQtOTE=
        >
        <X 0 0
          /wFNTVdJTiBFRElUIERBVEU6IDktMTQtOTE=
        >
        <X 0 0
          /wFUaGlzIGZpbGUgcHJvdmlkZWQgYnk6
        >
        <X 0 0
          /wFSb2IgV2FsbGFjZSBNdXNpYw==
        >
        <X 0 0
          /wEoNjAyKSA5NzktNjIwMQ==
        >
        e 0 91 3c 64
        e 0 91 41 64
        e 0 91 45 64
        e 0 91 48 64
        e 176 81 3c 40
        e 0 81 41 40
        e 0 81 45 40
        e 0 81 48 40
        e 16 91 41 64
        e 0 91 46 64
        e 0 91 4a 64
        e 0 91 4d 64
        e 128 81 41 40
        e 0 81 46 40
        e 0 81 4a 40
        e 0 81 4d 40
        e 16 91 40 64
        e 0 91 4c 64
        e 32 81 40 40
        e 0 81 4c 40
        e 16 91 41 64
        e 0 91 45 64
        e 0 91 48 64
        e 0 91 4d 64
        e 80 81 41 40
        e 0 81 45 40
        e 0 81 48 40
        e 16 91 43 64
        e 0 91 46 64
        e 80 81 4d 40
        e 0 81 43 40
        e 0 81 46 40
        e 16 91 41 64
        e 0 91 45 64
        e 0 91 48 64
        e 80 81 41 40
        e 0 81 45 40
        e 16 91 40 64
        e 0 91 43 64
        e 80 81 48 40
        e 0 81 40 40
        e 0 81 43 40
        e 16 91 41 64
        e 0 91 48 64
        e 0 91 4d 64
        e 176 81 41 40
        e 0 81 48 40
        e 0 81 4d 40
        e 16 91 43 64
        e 0 91 48 64
        e 0 91 4f 64
        e 80 81 43 40
        e 0 81 4f 40
        e 16 91 45 64
        e 0 91 51 64
        e 80 81 48 40
        e 0 81 45 40
        e 0 81 51 40
        e 16 91 45 64
        e 0 91 48 64
        e 0 91 4d 64
        e 0 91 51 64
        e 176 81 45 40
        e 0 81 48 40
        e 0 81 4d 40
        e 0 81 51 40
        e 16 91 43 64
        e 0 91 48 64
        e 0 91 4f 64
        e 80 81 43 40
        e 0 81 48 40
        e 0 81 4f 40
        e 16 91 41 64
        e 0 91 45 64
        e 0 91 48 64
        e 0 91 4d 64
        e 80 81 41 40
        e 0 81 45 40
        e 0 81 48 40
        e 0 81 4d 40
        e 16 91 40 64
        e 0 91 43 64
        e 0 91 48 64
        e 0 91 4c 64
        e 176 81 40 40
        e 0 81 43 40
        e 0 81 48 40
        e 0 81 4c 40
        e 16 91 41 64
        e 0 91 45 64
        e 0 91 48 64
        e 0 91 4d 64
        e 80 81 41 40
        e 0 81 45 40
        e 0 81 48 40
        e 0 81 4d 40
        e 16 91 43 64
        e 0 91 48 64
        e 0 91 4c 64
        e 0 91 4f 64
        e 80 81 43 40
        e 0 81 48 40
        e 0 81 4c 40
        e 0 81 4f 40
        e 16 91 43 64
        e 0 91 48 64
        e 0 91 4c 64
        e 0 91 4f 64
        e 368 81 43 40
        e 0 81 48 40
        e 0 81 4c 40
        e 0 81 4f 40
        e 16 91 43 64
        e 0 91 46 64
        e 0 91 4c 64
        e 0 91 4f 64
        e 176 81 43 40
        e 0 81 46 40
        e 0 81 4c 40
        e 0 81 4f 40
        e 16 91 43 64
        e 0 91 46 64
        e 0 91 4c 64
        e 0 91 4f 64
        e 128 81 43 40
        e 0 81 46 40
        e 0 81 4c 40
        e 0 81 4f 40
        e 16 91 43 64
        e 0 91 46 64
        e 0 91 4c 64
        e 0 91 4f 64
        e 32 81 43 40
        e 0 81 46 40
        e 0 81 4c 40
        e 0 81 4f 40
        e 16 91 43 64
        e 0 91 46 64
        e 0 91 4c 64
        e 0 91 4f 64
        e 176 81 43 40
        e 0 81 46 40
        e 0 81 4c 40
        e 0 81 4f 40
        e 16 91 3c 64
        e 0 91 40 64
        e 0 91 48 64
        e 176 81 3c 40
        e 0 81 40 40
        e 0 81 48 40
        e 16 91 43 64
        e 0 91 48 64
        e 0 91 4c 64
        e 0 91 4f 64
        e 128 81 43 40
        e 0 81 48 40
        e 0 81 4c 40
        e 0 81 4f 40
        e 16 91 42 64
        e 0 91 4e 64
        e 32 81 42 40
        e 0 81 4e 40
        e 16 91 43 64
        e 0 91 4f 64
        e 80 81 43 40
        e 0 81 4f 40
        e 16 91 45 64
        e 0 91 51 64
        e 80 81 45 40
        e 0 81 51 40
        e 16 91 46 64
        e 0 91 4c 64
        e 0 91 4f 64
        e 0 91 52 64
        e 176 81 46 40
        e 0 81 4c 40
        e 0 81 4f 40
        e 0 81 52 40
        e 16 91 43 64
        e 0 91 48 64
        e 0 91 4c 64
        e 0 91 4f 64
        e 176 81 43 40
        e 0 81 48 40
        e 0 81 4c 40
        e 0 81 4f 40
        e 16 91 45 64
        e 0 91 4d 64
        e 0 91 51 64
        e 128 81 45 40
        e 0 81 4d 40
        e 0 81 51 40
        e 16 91 43 64
        e 0 91 4c 64
        e 0 91 4f 64
        e 32 81 43 40
        e 0 81 4c 40
        e 0 81 4f 40
        e 16 91 45 64
        e 0 91 4d 64
        e 0 91 51 64
        e 80 81 45 40
        e 0 81 4d 40
        e 0 81 51 40
        e 16 91 46 64
        e 0 91 4f 64
        e 0 91 52 64
        e 80 81 46 40
        e 0 81 4f 40
        e 0 81 52 40
        e 16 91 48 64
        e 0 91 51 64
        e 0 91 54 64
        e 176 81 48 40
        e 0 81 51 40
        e 0 81 54 40
        e 16 91 41 64
        e 0 91 45 64
        e 0 91 4d 64
        e 176 81 41 40
        e 0 81 45 40
        e 0 81 4d 40
        e 16 91 43 64
        e 0 91 46 64
        e 0 91 4c 64
        e 0 91 4f 64
        e 176 81 43 40
        e 0 81 46 40
        e 0 81 4c 40
        e 0 81 4f 40
        e 16 91 46 64
        e 0 91 4a 64
        e 0 91 52 64
        e 176 81 46 40
        e 0 81 4a 40
        e 0 81 52 40
        e 16 91 45 64
        e 0 91 48 64
        e 0 91 51 64
        e 128 81 45 40
        e 0 81 48 40
        e 0 81 51 40
        e 16 91 43 64
        e 0 91 4f 64
        e 32 81 43 40
        e 0 81 4f 40
        e 16 91 3e 64
        e 0 91 46 64
        e 0 91 4a 64
        e 80 81 3e 40
        e 0 81 46 40
        e 0 81 4a 40
        e 16 91 40 64
        e 0 91 46 64
        e 0 91 4c 64
        e 80 81 40 40
        e 0 81 46 40
        e 0 81 4c 40
        e 16 91 41 64
        e 0 91 45 64
        e 0 91 48 64
        e 0 91 4d 64
        e 176 81 41 40
        e 0 81 45 40
        e 0 81 48 40
        e 0 81 4d 40
        e 16 91 41 64
        e 0 91 45 64
        e 0 91 48 64
        e 0 91 4d 64
        e 128 81 41 40
        e 0 81 45 40
        e 0 81 48 40
        e 0 81 4d 40
        e 16 91 41 64
        e 0 91 45 64
        e 0 91 48 64
        e 0 91 4d 64
        e 32 81 41 40
        e 0 81 45 40
        e 0 81 48 40
        e 0 81 4d 40
        e 16 91 41 64
        e 0 91 45 64
        e 0 91 48 64
        e 0 91 4d 64
        e 176 81 41 40
        e 0 81 45 40
        e 0 81 48 40
        e 0 81 4d 40
        e 208 91 41 64
        e 0 91 4d 64
        e 176 81 41 40
        e 0 81 4d 40
        e 16 91 41 64
        e 0 91 4d 64
        e 128 81 41 40
        e 0 81 4d 40
        e 16 91 40 64
        e 0 91 4c 64
        e 32 81 40 40
        e 0 81 4c 40
        e 16 91 3e 64
        e 0 91 4a 64
        e 176 81 3e 40
        e 0 81 4a 40
        e 16 91 3e 64
        e 0 91 4a 64
        e 128 81 3e 40
        e 0 81 4a 40
        e 16 91 3c 64
        e 0 91 48 64
        e 32 81 3c 40
        e 0 81 48 40
        e 16 91 3a 64
        e 0 91 46 64
        e 176 81 3a 40
        e 0 81 46 40
        e 16 91 3a 64
        e 0 91 46 64
        e 128 81 3a 40
        e 0 81 46 40
        e 16 91 39 64
        e 0 91 45 64
        e 32 81 39 40
        e 0 81 45 40
        e 16 91 37 64
        e 0 91 43 64
        e 80 81 37 40
        e 0 81 43 40
        e 16 91 41 64
        e 32 81 41 40
        e 16 91 43 64
        e 32 81 43 40
        e 16 91 45 64
        e 32 81 45 40
        e 16 91 46 64
        e 32 81 46 40
        e 16 91 48 64
        e 32 81 48 40
        e 16 91 4a 64
        e 32 81 4a 40
        e 16 91 40 64
        e 0 91 43 64
        e 0 91 4c 64
        e 176 81 40 40
        e 0 81 43 40
        e 0 81 4c 40
        e 16 91 40 64
        e 0 91 4c 64
        e 128 81 40 40
        e 0 81 4c 40
        e 16 91 3e 64
        e 0 91 4a 64
        e 32 81 3e 40
        e 0 81 4a 40
        e 16 91 3c 64
        e 0 91 40 64
        e 0 91 48 64
        e 176 81 3c 40
        e 0 81 40 40
        e 0 81 48 40
        e 16 91 3c 64
        e 0 91 40 64
        e 0 91 48 64
        e 128 81 3c 40
        e 0 81 40 40
        e 0 81 48 40
        e 16 91 3a 64
        e 0 91 3e 64
        e 0 91 46 64
        e 32 81 3a 40
        e 0 81 3e 40
        e 0 81 46 40
        e 16 91 39 64
        e 0 91 3c 64
        e 0 91 45 64
        e 176 81 39 40
        e 0 81 3c 40
        e 0 81 45 40
        e 16 91 39 64
        e 0 91 3c 64
        e 0 91 45 64
        e 128 81 39 40
        e 0 81 3c 40
        e 0 81 45 40
        e 16 91 37 64
        e 0 91 3a 64
        e 0 91 43 64
        e 32 81 37 40
        e 0 81 3a 40
        e 0 81 43 40
        e 16 91 39 64
        e 0 91 41 64
        e 320 81 39 40
        e 0 81 41 40
        e 16 91 41 64
        e 0 91 4d 64
        e 32 81 41 40
        e 0 81 4d 40
        e 16 91 43 64
        e 0 91 48 64
        e 0 91 4f 64
        e 176 81 43 40
        e 0 81 48 40
        e 0 81 4f 40
        e 16 91 45 64
        e 0 91 48 64
        e 0 91 51 64
        e 176 81 45 40
        e 0 81 48 40
        e 0 81 51 40
        e 16 91 46 64
        e 0 91 4c 64
        e 0 91 4f 64
        e 0 91 52 64
        e 176 81 46 40
        e 0 81 4c 40
        e 0 81 4f 40
        e 0 81 52 40
        e 16 91 43 64
        e 0 91 4c 64
        e 0 91 4f 64
        e 176 81 43 40
        e 0 81 4c 40
        e 0 81 4f 40
        e 16 91 45 64
        e 0 91 4d 64
        e 0 91 51 64
        e 176 81 45 40
        e 0 81 4d 40
        e 0 81 51 40
        e 16 91 46 64
        e 0 91 4f 64
        e 0 91 52 64
        e 176 81 46 40
        e 0 81 4f 40
        e 0 81 52 40
        e 16 91 48 64
        e 0 91 51 64
        e 0 91 54 64
        e 176 81 48 40
        e 0 81 51 40
        e 0 81 54 40
        e 16 91 4a 64
        e 0 91 52 64
        e 0 91 56 64
        e 176 81 4a 40
        e 0 81 52 40
        e 0 81 56 40
        e 16 91 40 64
        e 0 91 46 64
        e 0 91 4c 64
        e 80 81 40 40
        e 0 81 46 40
        e 0 81 4c 40
        e 16 91 3c 64
        e 0 91 48 64
        e 80 81 3c 40
        e 0 81 48 40
        e 16 91 3e 64
        e 0 91 4a 64
        e 80 81 3e 40
        e 0 81 4a 40
        e 16 91 41 64
        e 0 91 4d 64
        e 80 81 41 40
        e 0 81 4d 40
        e 16 91 40 64
        e 0 91 4c 64
        e 80 81 40 40
        e 0 81 4c 40
        e 16 91 3c 64
        e 0 91 48 64
        e 80 81 3c 40
        e 0 81 48 40
        e 16 91 3e 64
        e 0 91 4a 64
        e 80 81 3e 40
        e 0 81 4a 40
        e 16 91 40 64
        e 0 91 4c 64
        e 80 81 40 40
        e 0 81 4c 40
        e 16 91 41 64
        e 0 91 45 64
        e 0 91 4d 64
        e 80 81 41 40
        e 0 81 45 40
        e 0 81 4d 40
        e 16 91 41 64
        e 0 91 4d 64
        e 32 81 41 40
        e 0 81 4d 40
        e 16 91 41 64
        e 0 91 4d 64
        e 32 81 41 40
        e 0 81 4d 40
        e 16 91 41 64
        e 0 91 4d 64
        e 80 81 41 40
        e 0 81 4d 40
        e 16 91 41 64
        e 0 91 4d 64
        e 80 81 41 40
        e 0 81 4d 40
        e 16 91 41 64
        e 0 91 4d 64
        e 80 81 41 40
        e 0 81 4d 40
        e 16 91 41 64
        e 0 91 4d 64
        e 80 81 41 40
        e 0 81 4d 40
        e 16 91 41 64
        e 0 91 4d 64
        e 80 81 41 40
        e 0 81 4d 40
        e 16 91 41 64
        e 0 91 4d 64
        e 80 81 41 40
        e 0 81 4d 40
        e 16 91 3c 64
        e 0 91 41 64
        e 0 91 45 64
        e 0 91 48 64
        e 176 81 3c 40
        e 0 81 41 40
        e 0 81 45 40
        e 0 81 48 40
        e 16 91 41 64
        e 0 91 4a 64
        e 0 91 4d 64
        e 128 81 41 40
        e 0 81 4a 40
        e 0 81 4d 40
        e 16 91 40 64
        e 0 91 4c 64
        e 32 81 40 40
        e 0 81 4c 40
        e 16 91 41 64
        e 0 91 48 64
        e 0 91 4d 64
        e 80 81 48 40
        e 16 91 46 64
        e 80 81 41 40
        e 0 81 4d 40
        e 0 81 46 40
        e 16 91 3c 64
        e 0 91 45 64
        e 0 91 48 64
        e 80 81 45 40
        e 16 91 43 64
        e 80 81 3c 40
        e 0 81 48 40
        e 0 81 43 40
        e 16 91 41 64
        e 0 91 48 64
        e 0 91 4d 64
        e 176 81 41 40
        e 0 81 48 40
        e 0 81 4d 40
        e 16 91 43 64
        e 0 91 48 64
        e 0 91 4f 64
        e 80 81 43 40
        e 0 81 48 40
        e 0 81 4f 40
        e 16 91 45 64
        e 0 91 48 64
        e 0 91 51 64
        e 80 81 45 40
        e 0 81 48 40
        e 0 81 51 40
        e 16 91 45 64
        e 0 91 48 64
        e 0 91 51 64
        e 176 81 45 40
        e 0 81 48 40
        e 0 81 51 40
        e 16 91 43 64
        e 0 91 48 64
        e 0 91 4f 64
        e 80 81 43 40
        e 0 81 48 40
        e 0 81 4f 40
        e 16 91 41 64
        e 0 91 4d 64
        e 80 81 41 40
        e 0 81 4d 40
        e 16 91 40 64
        e 0 91 48 64
        e 0 91 4c 64
        e 176 81 40 40
        e 0 81 48 40
        e 0 81 4c 40
        e 16 91 41 64
        e 0 91 48 64
        e 0 91 4d 64
        e 80 81 41 40
        e 0 81 48 40
        e 0 81 4d 40
        e 16 91 43 64
        e 0 91 48 64
        e 0 91 4f 64
        e 80 81 43 40
        e 0 81 48 40
        e 0 81 4f 40
        e 16 91 43 64
        e 0 91 4c 64
        e 0 91 4f 64
        e 368 81 43 40
        e 0 81 4c 40
        e 0 81 4f 40
        e 16 91 43 64
        e 0 91 46 64
        e 0 91 4f 64
        e 176 81 43 40
        e 0 81 46 40
        e 0 81 4f 40
        e 16 91 43 64
        e 0 91 46 64
        e 0 91 4f 64
        e 128 81 43 40
        e 0 81 46 40
        e 0 81 4f 40
        e 16 91 43 64
        e 0 91 4f 64
        e 32 81 43 40
        e 0 81 4f 40
        e 16 91 43 64
        e 0 91 4f 64
        e 176 81 43 40
        e 0 81 4f 40
        e 16 91 3c 64
        e 0 91 48 64
        e 176 81 3c 40
        e 0 81 48 40
        e 16 91 43 64
        e 0 91 48 64
        e 0 91 4c 64
        e 0 91 4f 64
        e 128 81 43 40
        e 0 81 48 40
        e 0 81 4c 40
        e 0 81 4f 40
        e 16 91 42 64
        e 0 91 4e 64
        e 32 81 42 40
        e 0 81 4e 40
        e 16 91 43 64
        e 0 91 4f 64
        e 80 81 43 40
        e 0 81 4f 40
        e 16 91 45 64
        e 0 91 51 64
        e 80 81 45 40
        e 0 81 51 40
        e 16 91 46 64
        e 0 91 4f 64
        e 0 91 52 64
        e 176 81 46 40
        e 0 81 4f 40
        e 0 81 52 40
        e 16 91 43 64
        e 0 91 48 64
        e 0 91 4c 64
        e 0 91 4f 64
        e 176 81 43 40
        e 0 81 48 40
        e 0 81 4c 40
        e 0 81 4f 40
        e 16 91 45 64
        e 0 91 4d 64
        e 0 91 51 64
        e 128 81 45 40
        e 0 81 4d 40
        e 0 81 51 40
        e 16 91 43 64
        e 0 91 4f 64
        e 32 81 43 40
        e 0 81 4f 40
        e 16 91 45 64
        e 0 91 51 64
        e 80 81 45 40
        e 0 81 51 40
        e 16 91 46 64
        e 0 91 52 64
        e 80 81 46 40
        e 0 81 52 40
        e 16 91 48 64
        e 0 91 54 64
        e 176 81 48 40
        e 0 81 54 40
        e 16 91 41 64
        e 0 91 48 64
        e 0 91 4d 64
        e 176 81 41 40
        e 0 81 48 40
        e 0 81 4d 40
        e 16 91 43 64
        e 0 91 46 64
        e 0 91 4f 64
        e 176 81 43 40
        e 0 81 46 40
        e 0 81 4f 40
        e 16 91 46 64
        e 0 91 4f 64
        e 0 91 52 64
        e 176 81 46 40
        e 0 81 4f 40
        e 0 81 52 40
        e 16 91 45 64
        e 0 91 4d 64
        e 0 91 51 64
        e 80 81 45 40
        e 0 81 4d 40
        e 0 81 51 40
        e 16 91 43 64
        e 0 91 4f 64
        e 80 81 43 40
        e 0 81 4f 40
        e 16 91 3e 64
        e 0 91 41 64
        e 0 91 4a 64
        e 80 81 3e 40
        e 0 81 41 40
        e 0 81 4a 40
        e 16 91 40 64
        e 0 91 43 64
        e 0 91 4c 64
        e 80 81 40 40
        e 0 81 43 40
        e 0 81 4c 40
        e 16 91 41 64
        e 0 91 45 64
        e 0 91 4d 64
        e 176 81 41 40
        e 0 81 45 40
        e 0 81 4d 40
        e 16 91 41 64
        e 0 91 45 64
        e 0 91 4d 64
        e 128 81 41 40
        e 0 81 45 40
        e 0 81 4d 40
        e 16 91 41 64
        e 0 91 45 64
        e 0 91 4d 64
        e 32 81 41 40
        e 0 81 45 40
        e 0 81 4d 40
        e 16 91 41 64
        e 0 91 45 64
        e 0 91 4d 64
        e 176 81 41 40
        e 0 81 45 40
        e 0 81 4d 40
        E 16 b0 7b 00
        GUID {834CB3BD-F8D4-1746-9C72-178E786307DD}
        IGNTEMPO 0 120 4 4
        SRCCOLOR 199
        VELLANE -1 86 6
        CFGEDITVIEW -912 11.272727 58 17 0 0 0 0 0 0.5
        KEYSNAP 0
        TRACKSEL 252 0 0 ""
        EVTFILTER 0 -1 -1 -1 -1 0 0 0 0 -1 -1 -1 -1 0 -1 0 -1 -1
        CFGEDIT 1 0 0 0 0 0 1 0 1 1 1 0.25 269 4 1280 633 0 0 2 3 0 0 0 0 0 0.5 0 0 1 64
      >
    >
  >
  <TRACK {9E2CAE92-CCC1-1F4A-BCF6-93DCFE473BDF}
    NAME "16th pulse (mix w/ send?)"
    PEAKCOL 16576
    BEAT -1
    AUTOMODE 0
    VOLPAN 0.3233982038285 0 -1 -1 1
    MUTESOLO 0 0 0
    IPHASE 0
    ISBUS 1 1
    BUSCOMP 0 0
    SHOWINMIX 1 0.6667 0.5 1 0.5 0 0 0
    FREEMODE 0
    SEL 0
    REC 0 0 0 0 0 0 0
    VU 2
    TRACKHEIGHT 0 0
    INQ 0 0 0 0.5 100 0 0 100
    NCHAN 4
    FX 1
    TRACKID {9E2CAE92-CCC1-1F4A-BCF6-93DCFE473BDF}
    PERF 0
    AUXRECV 5 0 1 0 0 0 0 0 0 -1:U 64 -1 ''
    AUXRECV 6 0 1 0 0 0 0 0 0 -1:U 32 -1 ''
    MIDIOUT -1
    MAINSEND 0 0
    <FXCHAIN
      WNDRECT 36 359 724 387
      SHOW 0
      LASTSEL 0
      DOCKED 0
      BYPASS 0 0 0
      <VST "VSTi: chipsounds (Plogue Art et Technologie, Inc)" chipsounds.vst 0 "" 1347176271
        T0dMUO5e7f4AAAAABAAAAAEAAAAAAAAAAgAAAAAAAAAEAAAAAAAAAAgAAAAAAAAAGwQAAAEAAAAAABAA
        Q0VHULcaAAB4nO1ZW5ObNhR+31+h4al9CEjiZmbszdjedcczdbNTu88ZGSssE25FYrvJr68As4AvQl4n03SyejESn46+o3ME38Hj989xBJ5ozsI0mWhIhxp4f3sznuYh
        WZMn2rnlQKzd3gDRxmvKeZgEDPxdkCjkX8RdDQRRuiXRQxqJrok1wHhOSSxgdTcmz+tqZBpFqb+aTTQbieHV8m75oeCrdEcrK6TgaUy4WHIdpXyiCT7MF3c8q7oiERFj
        CLwDtFxbZ360H57ThNN8ojmwobIpkmp1qMOqacBo+AvTINxV1hMS09KkDh6KnIL5Y5gZ6+Wd4dgjBH75Y7Oe/6qBLUk+LwUeQehpwH8kSUKjanpW+WtpgB+tlm0/5iQJ
        hPV36GWQiyGWpYxWs+OC1xfsn48RYby0VHOseK5ImDQ8n0hU0CpCfWf6QPQCPPK6D8SqQFMVaKkCbVWgowp0VYEjVaCnCkRQGakcG6QcHKQcHaQcHjQUnweSk1gpiVrk
        0Oot0h1I9RbZ23rLs2XQ7j5hW2q1SxVbUugFXLsJhUzpBnTdMrEU2k0pC0mh3VihkRTa2yw51+5mOdLNcrtp5cqtOj2ussC6/RMtg466Vk1ptEaeMtTrRgt58sxqY4Dw
        0DnwYGvZGcS2iYAHsVg5az2ofm496Fxgd3QB1rvgiXCBcyIE5gB4Q/KA8r1E8NNYf4jSoKB6qY703xcf9ILRHHbe2NWsecGEhrkjnAD+JStDgk1HBIiFX0XHKl1vRJVY
        jya7kNSXOzFFXDRtUf9g+G1b30Wj9vFSp9HP5PSfgi7NhbpbU1a6oDNOs58l7Js8DAKar4XepolP80G3kYvLt13ttut13Man3EZ7r/cNVo9bdwGxuIb3IxcdOmLO3YWn
        4DCCljL2FZs2Nsoq4rCgQNcVFKgpKHBbUKArKwr8VlG8VRT/l4qi7xFyHFel9vCgXX1MGK49sGs5pVD5prWHLYW6Q/E8o+dtSyp8e3GSFj89kW66UgLdSGF57TF0ll6l
        vJGJextreubZDHi9nrYu0NPD+vT76+lhTf+f6ekfSyIfiYWDdj9wH55y8U0iS52+TiCi8gl/mUKclb1SISIbztzF7MiT86qvUZOOeGHY9tQ2y72c/7Cjp/ketDk8NXqu
        qSra+0+fqM+PP5RP421YhvlQwjaf1n/7a9lMID4Pn+jy5Tt+3b9vv+vTSCxBdxuyLfvdJ1BOGeUrmhQgZA2cV1TlqQc4fRaQGWFMqGXCHyeaMc2yKPSrvxSYUU8UgjvM
        WFokOzFSrcUMiVmjTmEgxv3PzCit60Qc9ezguXnEGp1kPc0zGgQh4WlLOAqzKwh3LBqlqWvYndtTwSCmOfkO27pnnwpwvcYB/bEhkur2Zmw0f0rd3vwL7diVQw==
        AAAQAAAA
      >
      FLOATPOS 409 269 871 509
      FXID {DC79668B-30D1-964C-A162-F245DBE294B0}
      WAK 0
      BYPASS 1 0 0
      <JS Delay/time_adjustment ""
        -10.000000 0.000000 -120.000000 0.000000 - - - - - - - - - - - - - - - - - - - - - - - - - - - - - - - - - - - - - - - - - - - - - - - - - - - - - - - - - - - - 
      >
      FLOATPOS 0 4 554 157
      FXID {40721658-5454-1743-9C6A-517A806DB8F9}
      WAK 0
    >
  >
  <TRACK {4FCA358B-3FAC-3749-9BC2-11E94F70145F}
    NAME 16ths
    PEAKCOL 16576
    BEAT -1
    AUTOMODE 0
    VOLPAN 1 0 -1 -1 1
    MUTESOLO 0 0 0
    IPHASE 0
    ISBUS 0 0
    BUSCOMP 0 0
    SHOWINMIX 1 0.6667 0.5 1 0.5 0 0 0
    FREEMODE 0
    SEL 0
    REC 0 0 0 0 0 0 0
    VU 2
    TRACKHEIGHT 0 0
    INQ 0 0 0 0.5 100 0 0 100
    NCHAN 2
    FX 1
    TRACKID {4FCA358B-3FAC-3749-9BC2-11E94F70145F}
    PERF 0
    MIDIOUT -1
    MAINSEND 0 0
  >
  <TRACK {B0448BAA-9F98-5543-9DF7-CDB8296564E0}
    NAME Full
    PEAKCOL 16576
    BEAT -1
    AUTOMODE 0
    VOLPAN 0.53840624518942 0 -1 -1 1
    MUTESOLO 0 0 0
    IPHASE 0
    ISBUS 2 -1
    BUSCOMP 0 0
    SHOWINMIX 1 0.6667 0.5 1 0.5 0 0 0
    FREEMODE 0
    SEL 0
    REC 0 0 0 0 0 0 0
    VU 2
    TRACKHEIGHT 124 0
    INQ 0 0 0 0.5 100 0 0 100
    NCHAN 2
    FX 1
    TRACKID {B0448BAA-9F98-5543-9DF7-CDB8296564E0}
    PERF 0
    MIDIOUT -1
    MAINSEND 0 0
    <ITEM
      POSITION 0
      SNAPOFFS 0
      LENGTH 47.5
      LOOP 1
      ALLTAKES 0
      FADEIN 1 0 0 1 0 0
      FADEOUT 1 0 0 1 0 0
      MUTE 1
      SEL 0
      YPOS 0.5 0.166667
      IGUID {C8F969F2-1E03-A647-9C93-812EBA485CED}
      IID 4
      NAME "MELODY               - National_Anthems_-_United_Arab_Emirates.mid"
      VOLPAN 1 0 1 -1
      SOFFS 0 0
      PLAYRATE 1 1 0 -1 0 0.0025
      CHANMODE 0
      GUID {5E59A361-F75C-7C43-9029-14BB50FF124F}
      <SOURCE MIDI
        HASDATA 1 192 QN
        POOLEDEVTS {095E1518-C617-3745-91E5-9D6D545DEE16}
        <X 0 0
          /wNNRUxPRFkgICAgICAgICAgICAgIA==
        >
        e 0 90 48 7f
        e 176 80 48 40
        e 16 90 4d 7f
        e 128 80 4d 40
        e 16 90 4c 7f
        e 32 80 4c 40
        e 16 90 4d 7f
        e 176 80 4d 40
        e 16 90 48 7f
        e 176 80 48 40
        e 16 90 4d 7f
        e 176 80 4d 40
        e 16 90 4f 7f
        e 80 80 4f 40
        e 16 90 51 7f
        e 80 80 51 40
        e 16 90 51 7f
        e 176 80 51 40
        e 16 90 4f 7f
        e 80 80 4f 40
        e 16 90 4d 7f
        e 80 80 4d 40
        e 16 90 4c 7f
        e 176 80 4c 40
        e 16 90 4d 7f
        e 80 80 4d 40
        e 16 90 4f 7f
        e 80 80 4f 40
        e 16 90 4f 7f
        e 368 80 4f 40
        e 16 90 4f 7f
        e 176 80 4f 40
        e 16 90 4f 7f
        e 128 80 4f 40
        e 16 90 4f 7f
        e 32 80 4f 40
        e 16 90 4f 7f
        e 176 80 4f 40
        e 16 90 48 7f
        e 176 80 48 40
        e 16 90 4f 7f
        e 128 80 4f 40
        e 16 90 4e 7f
        e 32 80 4e 40
        e 16 90 4f 7f
        e 80 80 4f 40
        e 16 90 51 7f
        e 80 80 51 40
        e 16 90 52 7f
        e 176 80 52 40
        e 16 90 4f 7f
        e 176 80 4f 40
        e 16 90 51 7f
        e 128 80 51 40
        e 16 90 4f 7f
        e 32 80 4f 40
        e 16 90 51 7f
        e 80 80 51 40
        e 16 90 52 7f
        e 80 80 52 40
        e 16 90 54 7f
        e 176 80 54 40
        e 16 90 4d 7f
        e 176 80 4d 40
        e 16 90 4f 7f
        e 176 80 4f 40
        e 16 90 52 7f
        e 176 80 52 40
        e 16 90 51 7f
        e 128 80 51 40
        e 16 90 4f 7f
        e 32 80 4f 40
        e 16 90 4a 7f
        e 80 80 4a 40
        e 16 90 4c 7f
        e 80 80 4c 40
        e 16 90 4d 7f
        e 176 80 4d 40
        e 16 90 4d 7f
        e 128 80 4d 40
        e 16 90 4d 7f
        e 32 80 4d 40
        e 16 90 4d 7f
        e 176 80 4d 40
        e 208 90 4d 7f
        e 176 80 4d 40
        e 16 90 4d 7f
        e 128 80 4d 40
        e 16 90 4c 7f
        e 32 80 4c 40
        e 16 90 4a 7f
        e 176 80 4a 40
        e 16 90 4a 7f
        e 128 80 4a 40
        e 16 90 48 7f
        e 32 80 48 40
        e 16 90 46 7f
        e 176 80 46 40
        e 16 90 46 7f
        e 128 80 46 40
        e 16 90 45 7f
        e 32 80 45 40
        e 16 90 43 7f
        e 80 80 43 40
        e 304 90 4c 7f
        e 176 80 4c 40
        e 16 90 4c 7f
        e 128 80 4c 40
        e 16 90 4a 7f
        e 32 80 4a 40
        e 16 90 48 7f
        e 176 80 48 40
        e 16 90 48 7f
        e 128 80 48 40
        e 16 90 46 7f
        e 32 80 46 40
        e 16 90 45 7f
        e 176 80 45 40
        e 16 90 45 7f
        e 128 80 45 40
        e 16 90 43 7f
        e 32 80 43 40
        e 16 90 41 7f
        e 320 80 41 40
        e 16 90 4d 7f
        e 32 80 4d 40
        e 16 90 4f 7f
        e 176 80 4f 40
        e 16 90 51 7f
        e 176 80 51 40
        e 16 90 52 7f
        e 176 80 52 40
        e 16 90 4f 7f
        e 176 80 4f 40
        e 16 90 51 7f
        e 176 80 51 40
        e 16 90 52 7f
        e 176 80 52 40
        e 16 90 54 7f
        e 176 80 54 40
        e 16 90 56 7f
        e 176 80 56 40
        e 16 90 4c 7f
        e 80 80 4c 40
        e 16 90 48 7f
        e 80 80 48 40
        e 16 90 4a 7f
        e 80 80 4a 40
        e 16 90 4d 7f
        e 80 80 4d 40
        e 16 90 4c 7f
        e 80 80 4c 40
        e 16 90 48 7f
        e 80 80 48 40
        e 16 90 4a 7f
        e 80 80 4a 40
        e 16 90 4c 7f
        e 80 80 4c 40
        e 16 90 4d 7f
        e 752 80 4d 40
        e 16 90 48 7f
        e 176 80 48 40
        e 16 90 4d 7f
        e 128 80 4d 40
        e 16 90 4c 7f
        e 32 80 4c 40
        e 16 90 4d 7f
        e 176 80 4d 40
        e 16 90 48 7f
        e 176 80 48 40
        e 16 90 4d 7f
        e 176 80 4d 40
        e 16 90 4f 7f
        e 80 80 4f 40
        e 16 90 51 7f
        e 80 80 51 40
        e 16 90 51 7f
        e 176 80 51 40
        e 16 90 4f 7f
        e 80 80 4f 40
        e 16 90 4d 7f
        e 80 80 4d 40
        e 16 90 4c 7f
        e 176 80 4c 40
        e 16 90 4d 7f
        e 80 80 4d 40
        e 16 90 4f 7f
        e 80 80 4f 40
        e 16 90 4f 7f
        e 368 80 4f 40
        e 16 90 4f 7f
        e 176 80 4f 40
        e 16 90 4f 7f
        e 128 80 4f 40
        e 16 90 4f 7f
        e 32 80 4f 40
        e 16 90 4f 7f
        e 176 80 4f 40
        e 16 90 48 7f
        e 176 80 48 40
        e 16 90 4f 7f
        e 128 80 4f 40
        e 16 90 4e 7f
        e 32 80 4e 40
        e 16 90 4f 7f
        e 80 80 4f 40
        e 16 90 51 7f
        e 80 80 51 40
        e 16 90 52 7f
        e 176 80 52 40
        e 16 90 4f 7f
        e 176 80 4f 40
        e 16 90 51 7f
        e 128 80 51 40
        e 16 90 4f 7f
        e 32 80 4f 40
        e 16 90 51 7f
        e 80 80 51 40
        e 16 90 52 7f
        e 80 80 52 40
        e 16 90 54 7f
        e 176 80 54 40
        e 16 90 4d 7f
        e 176 80 4d 40
        e 16 90 4f 7f
        e 176 80 4f 40
        e 16 90 52 7f
        e 176 80 52 40
        e 16 90 51 7f
        e 80 80 51 40
        e 16 90 4f 7f
        e 80 80 4f 40
        e 16 90 4a 7f
        e 80 80 4a 40
        e 16 90 4c 7f
        e 80 80 4c 40
        e 16 90 4d 7f
        e 176 80 4d 40
        e 16 90 4d 7f
        e 128 80 4d 40
        e 16 90 4d 7f
        e 32 80 4d 40
        e 16 90 4d 7f
        e 176 80 4d 40
        E 16 b0 7b 00
        GUID {847F49D6-DCEA-384E-AC99-FC02E6095550}
        IGNTEMPO 0 120 4 4
        SRCCOLOR 202
        VELLANE -1 86 6
        CFGEDITVIEW 0 11.073684 65 12 0 0 0 0 0 0.5
        KEYSNAP 0
        TRACKSEL 252 0 0 ""
        EVTFILTER 0 -1 -1 -1 -1 0 0 0 0 -1 -1 -1 -1 0 -1 0 -1 -1
        CFGEDIT 1 0 0 0 0 0 1 0 1 1 1 0.25 285 20 1280 633 0 0 2 3 0 0 0 0 0 0.5 0 0 1 64
      >
    >
    <ITEM
      POSITION 0
      SNAPOFFS 0
      LENGTH 47.5
      LOOP 1
      ALLTAKES 0
      FADEIN 1 0 0 1 0 0
      FADEOUT 1 0 0 1 0 0
      MUTE 0
      SEL 0
      YPOS 0.333333 0.166667
      IGUID {0471C56D-B00C-CB40-9809-4BD0E31BCB6E}
      IID 3
      NAME "BASS                 - National_Anthems_-_United_Arab_Emirates.mid"
      VOLPAN 1 0 1 -1
      SOFFS 0 0
      PLAYRATE 1 1 0 -1 0 0.0025
      CHANMODE 0
      GUID {91E9F21E-0758-174C-9E2B-E6FD9F4A7314}
      <SOURCE MIDI
        HASDATA 1 192 QN
        POOLEDEVTS {96682B35-20DC-9644-898B-E26234CED50C}
        <X 0 0
          /wNCQVNTICAgICAgICAgICAgICAgIA==
        >
        e 0 93 29 7f
        e 176 83 29 40
        e 16 93 35 7f
        e 176 83 35 40
        e 16 93 29 7f
        e 176 83 29 40
        e 16 93 2e 7f
        e 176 83 2e 40
        e 16 93 2d 7f
        e 176 83 2d 40
        e 16 93 2b 7f
        e 176 83 2b 40
        e 16 93 29 7f
        e 176 83 29 40
        e 16 93 2b 7f
        e 80 83 2b 40
        e 16 93 24 7f
        e 80 83 24 40
        e 16 93 24 7f
        e 176 83 24 40
        e 16 93 30 7f
        e 176 83 30 40
        e 16 93 24 7f
        e 176 83 24 40
        e 16 93 30 7f
        e 176 83 30 40
        e 16 93 34 7f
        e 176 83 34 40
        e 16 93 30 7f
        e 176 83 30 40
        e 16 93 2e 7f
        e 80 83 2e 40
        e 16 93 30 7f
        e 80 83 30 40
        e 16 93 34 7f
        e 80 83 34 40
        e 16 93 37 7f
        e 80 83 37 40
        e 16 93 30 7f
        e 464 83 30 40
        e 16 93 24 7f
        e 80 83 24 40
        e 16 93 28 7f
        e 80 83 28 40
        e 16 93 2b 7f
        e 80 83 2b 40
        e 16 93 29 7f
        e 464 83 29 40
        e 16 93 30 7f
        e 80 83 30 40
        e 16 93 2d 7f
        e 80 83 2d 40
        e 16 93 29 7f
        e 80 83 29 40
        e 16 93 24 7f
        e 176 83 24 40
        e 16 93 30 7f
        e 176 83 30 40
        e 16 93 28 7f
        e 176 83 28 40
        e 16 93 34 7f
        e 176 83 34 40
        e 16 93 29 7f
        e 176 83 29 40
        e 16 93 35 7f
        e 176 83 35 40
        e 16 93 35 7f
        e 176 83 35 40
        e 208 93 35 7f
        e 272 83 35 40
        e 112 93 2e 7f
        e 272 83 2e 40
        e 112 93 34 7f
        e 272 83 34 40
        e 112 93 30 7f
        e 272 83 30 40
        e 112 93 24 7f
        e 176 83 24 40
        e 16 93 30 7f
        e 176 83 30 40
        e 16 93 24 7f
        e 176 83 24 40
        e 208 93 29 7f
        e 176 83 29 40
        e 16 93 35 7f
        e 176 83 35 40
        e 16 93 29 7f
        e 176 83 29 40
        e 208 93 2b 7f
        e 176 83 2b 40
        e 16 93 29 7f
        e 176 83 29 40
        e 16 93 28 7f
        e 176 83 28 40
        e 16 93 24 7f
        e 176 83 24 40
        e 16 93 29 7f
        e 176 83 29 40
        e 16 93 2b 7f
        e 176 83 2b 40
        e 16 93 2d 7f
        e 176 83 2d 40
        e 16 93 2e 7f
        e 176 83 2e 40
        e 16 93 30 7f
        e 272 83 30 40
        e 16 93 32 7f
        e 80 83 32 40
        e 16 93 30 7f
        e 80 83 30 40
        e 16 93 2e 7f
        e 80 83 2e 40
        e 16 93 2d 7f
        e 80 83 2d 40
        e 16 93 2b 7f
        e 80 83 2b 40
        e 16 93 29 7f
        e 80 83 29 40
        e 16 93 29 7f
        e 80 83 29 40
        e 16 93 28 7f
        e 80 83 28 40
        e 16 93 26 7f
        e 80 83 26 40
        e 16 93 24 7f
        e 80 83 24 40
        e 16 93 2e 7f
        e 80 83 2e 40
        e 16 93 2d 7f
        e 80 83 2d 40
        e 16 93 2b 7f
        e 80 83 2b 40
        e 16 93 29 7f
        e 176 83 29 40
        e 16 93 37 7f
        e 176 83 37 40
        e 16 93 35 7f
        e 176 83 35 40
        e 16 93 2e 7f
        e 176 83 2e 40
        e 16 93 2d 7f
        e 176 83 2d 40
        e 16 93 2b 7f
        e 176 83 2b 40
        e 16 93 29 7f
        e 176 83 29 40
        e 16 93 2b 7f
        e 80 83 2b 40
        e 16 93 2d 7f
        e 80 83 2d 40
        e 16 93 30 7f
        e 176 83 30 40
        e 16 93 30 7f
        e 80 83 30 40
        e 16 93 30 7f
        e 80 83 30 40
        e 16 93 2e 7f
        e 80 83 2e 40
        e 16 93 24 7f
        e 80 83 24 40
        e 16 93 28 7f
        e 80 83 28 40
        e 16 93 2b 7f
        e 80 83 2b 40
        e 16 93 2e 7f
        e 80 83 2e 40
        e 16 93 2d 7f
        e 80 83 2d 40
        e 16 93 2b 7f
        e 80 83 2b 40
        e 16 93 29 7f
        e 80 83 29 40
        e 16 93 2e 7f
        e 80 83 2e 40
        e 16 93 30 7f
        e 80 83 30 40
        e 16 93 34 7f
        e 80 83 34 40
        e 16 93 37 7f
        e 80 83 37 40
        e 16 93 30 7f
        e 464 83 30 40
        e 16 93 24 7f
        e 80 83 24 40
        e 16 93 28 7f
        e 80 83 28 40
        e 16 93 2b 7f
        e 80 83 2b 40
        e 16 93 29 7f
        e 464 83 29 40
        e 16 93 30 7f
        e 80 83 30 40
        e 16 93 2d 7f
        e 80 83 2d 40
        e 16 93 29 7f
        e 80 83 29 40
        e 16 93 28 7f
        e 368 83 28 40
        e 16 93 30 7f
        e 176 83 30 40
        e 16 93 24 7f
        e 176 83 24 40
        e 16 93 29 7f
        e 176 83 29 40
        e 16 93 35 7f
        e 176 83 35 40
        e 16 93 29 7f
        e 176 83 29 40
        E 16 b0 7b 00
        GUID {05F93B9B-1DA0-424B-95DA-634716837D47}
        IGNTEMPO 0 120 4 4
        SRCCOLOR 201
        VELLANE -1 86 6
        CFGEDITVIEW 0 11.073684 65 12 0 0 0 0 0 0.5
        KEYSNAP 0
        TRACKSEL 252 0 0 ""
        EVTFILTER 0 -1 -1 -1 -1 0 0 0 0 -1 -1 -1 -1 0 -1 0 -1 -1
        CFGEDIT 1 0 0 0 0 0 1 0 1 1 1 0.25 285 20 1280 633 0 0 2 3 0 0 0 0 0 0.5 0 0 1 64
      >
    >
  >
  <TRACK {5AFE27AD-822D-C34D-AFA1-36A455563115}
    NAME "Bass Return (global)"
    PEAKCOL 0
    BEAT -1
    AUTOMODE 0
    VOLPAN 0.34483987755952 0.024 -1 -1 1
    MUTESOLO 0 0 0
    IPHASE 0
    ISBUS 0 0
    BUSCOMP 0 0
    SHOWINMIX 1 0.6667 0.5 1 0.5 0 0 0
    FREEMODE 0
    SEL 0
    REC 0 0 0 0 0 0 0
    VU 2
    TRACKHEIGHT 0 0
    INQ 0 0 0 0.5 100 0 0 100
    NCHAN 2
    FX 1
    TRACKID {5AFE27AD-822D-C34D-AFA1-36A455563115}
    PERF 0
    AUXRECV 3 0 1 0 1 0 0 0 0 -1:U 0 -1 ''
    AUXRECV 4 0 1 0 0 0 0 0 0 -1:U 0 -1 ''
    AUXRECV 8 0 1 0 1 0 0 4 0 -1:U 0 -1 ''
    MIDIOUT -1
    MAINSEND 1 0
    <FXCHAIN
      SHOW 0
      LASTSEL 0
      DOCKED 0
      BYPASS 0 0 0
      <VST "VST: 8-Bit Shaper (Xfer Records)" 8BitShaper.vst 0 "" 1148539762
        clN1RO5e7f4CAAAAAQAAAAAAAAACAAAAAAAAAAIAAAABAAAAAAAAAAIAAAAAAAAANAIAAAEAAAAAABAA
        ZmaGP20MlT7dQQw/AAAAPyQAAAAAAIA/AAEBAAAAAAAXAAAAMAAAABkAAAAaAAAAGgAAABoAAAAbAAAAGwAAABwAAAAcAAAAHAAAAB0AAAAdAAAAHgAAAB4AAAAfAAAA
        HwAAACAAAAAgAAAAIAAAACEAAAAhAAAAIQAAACIAAAAiAAAAIgAAACMAAAAjAAAAIwAAACQAAAAkAAAAJAAAACUAAAAlAAAAKAAAACgAAAApAAAAKQAAACoAAAA1AAAA
        KgAAACoAAAA2AAAAKgAAACoAAAAqAAAAKgAAACoAAAAqAAAAKgAAACsAAAArAAAAOQAAAC0AAAA0AAAAOgAAAC0AAAAtAAAAPAAAAC4AAAAuAAAALwAAADAAAAAwAAAA
        MQAAADEAAAAxAAAAMgAAADMAAAAzAAAAMwAAADcAAAA3AAAANwAAADgAAAA4AAAAOAAAADkAAAA5AAAAOQAAADoAAAA6AAAAOgAAADoAAAA6AAAAOwAAADsAAAA7AAAA
        PAAAADsAAAA7AAAAOwAAADwAAAA8AAAAPAAAADwAAAA9AAAAPQAAAD0AAAA9AAAAPQAAAD4AAAA+AAAAPwAAAEkAAABAAAAAQAAAAEgAAABAAAAAQQAAAEIAAABCAAAA
        QgAAAEMAAABDAAAAQwAAAEQAAABEAAAARQAAAE0AAABGAAAARwAAAEYAAABHAAAASAAAAEgAAABJAAAATwAAAAAAgD+rqqo+q6qqPh0Fwz6OAm0/
        AEluaXQgMQAQAAAA
      >
      PRESETNAME "Init 1"
      FLOATPOS 32 39 278 389
      FXID {19A94086-1737-784E-A733-2897FDD09534}
      WAK 0
    >
  >
  <TRACK {3CF13A00-0AFC-8542-AD98-73B6D91102DB}
    NAME "vst Plogue"
    PEAKCOL 26779488
    BEAT -1
    AUTOMODE 0
    VOLPAN 1 0 -1 -1 1
    MUTESOLO 0 0 0
    IPHASE 0
    ISBUS 0 0
    BUSCOMP 0 0
    SHOWINMIX 1 0.6667 0.5 1 0.5 0 0 0
    FREEMODE 0
    SEL 0
    REC 0 0 0 1 0 0 0
    VU 2
    TRACKHEIGHT 0 0
    INQ 0 0 0 0.5 100 0 0 100
    NCHAN 8
    FX 1
    TRACKID {3CF13A00-0AFC-8542-AD98-73B6D91102DB}
    PERF 0
    AUXRECV 10 0 1 0 0 0 0 0 0 -1:U 32 -1 ''
    AUXRECV 10 0 1 0 0 0 0 0 0 -1:U 96 -1 ''
    AUXRECV 11 0 1 0 0 0 0 0 0 -1:U 64 -1 ''
    AUXRECV 11 0 1 0 0 0 0 0 0 -1:U 128 -1 ''
    AUXRECV 12 0 1 0 0 0 0 0 0 -1:U 160 -1 ''
    MIDIOUT -1
    MAINSEND 0 0
    <FXCHAIN
      SHOW 0
      LASTSEL 0
      DOCKED 0
      BYPASS 0 0 0
      <VST "VSTi: chipsounds (Multi) (Plogue Art et Technologie, Inc) (32 out)" "chipsounds Multi.vst" 0 "" 1347241807
        T0dNUO5e7f4AAAAAIAAAAAEAAAAAAAAAAgAAAAAAAAAEAAAAAAAAAAgAAAAAAAAAEAAAAAAAAAAgAAAAAAAAAEAAAAAAAAAAgAAAAAAAAAAAAQAAAAAAAAACAAAAAAAA
        AAQAAAAAAAAACAAAAAAAAAAQAAAAAAAAACAAAAAAAAAAQAAAAAAAAACAAAAAAAAAAAABAAAAAAAAAAIAAAAAAAAABAAAAAAAAAAIAAAAAAAAABAAAAAAAAAAIAAAAAAA
        AABAAAAAAAAAAIAAAAAAAAAAAAEAAAAAAAAAAgAAAAAAAAAEAAAAAAAAAAgAAAAAAAAAEAAAAAAAAAAgAAAAAAAAAEAAAAAAAAAAgAAAAADpBQAAAQAAAAAAEAA=
        Q0VHUAU/AAB4nO2bW3OjNhTH3/MpGJ7ahzWSuJkZJzu+xF3PNN1M7Z0+ZhRbcWi5uEikST99BZgYxViIkLSzDTwkIP850tER4icde/T5MQy0B5JQP47OdTgAuvb54mw0
        Tny8xA+k8pEDkH5xpvFjtCSM+dGWan+mOPDZE/9U17ZBfIuD6zjglybSNcoSgkMuKy5D/LjMS8ZBEK+vJue6DXnx1WK2+Jqyq3hDcis4ZXGIGa9yGcTsXOftoWuutfIT
        HGBeBLVPGsmqHtB1sC+ekoiR5Fx3QNmSVRrllYMByA9dM8rmc8uav8mNRzgkmcmBdp0mRJve+ztjuZgZjj2E2g+/rJbTH3XtFkd/LLgeAuDp2voeRxEJ8tt3ubuWrrGj
        2na3NwmOttz6J/hcyHgR3cWU5HeHKStO6F83AaYss1S0MW/nFfajsp0POEhJHiDRGVEIn4VHXotCpCo0VYWWqtBWFTqqQldVOFQVeqpCCJSVyrGBysGBytGByuGBTfG5
        xgkOlQbRQdlU+0FZjeXQtiVKoestTyZ1q30PTWn9liCVWq0OUDiUSsWRJ5MOq1ZNaV8NPWWpV+0s6Mmk0DrEFaL6eK1wsiVsP3mu43BwHcTblAyy18bg5/nXQUpJAipz
        WX7XNKV8cp9hhjX2tON3ImQ6PDTU/5tfWFkflW8bXh+JNj4uTjf8Fn5SHvPiHwJve4guGoWPbZ2GH8TpVeJvtyRZ8vcwidYkaXQbugh6pdu2W3Eb1bkN917vj+Lazc/N
        qTv3BCemwJz/Vx2RR/9X7gBJOAAsCc2cGlBGdv+j8T8yMmZ6iU+wGz7BGnwa9vjU49MHwSfRI+g4rgpoecDOF07NoIVcywHOG4OWLXVJAC3bkiJRtammK7XaNJRfRU8q
        nFMFqEMvoKbA8rm5YcrpAaoHqC4ABQFsS1D5k+vyXphfHhNU0TWuOREK5pyrMu3wSMpLZ3UWABItvDOZ1XMJ6sYlVskl8MAlVjcuAQ1c0vRSac8lDaTTc4m8w3suacsl
        LrKs7DGqV1Y9gtL9j6pHrpQgBI+gzCO34bE4takk3dMRosR9l0kt9QYIm0oZwcCT0hZuVUe+JaU9t9oDpnSnqEJ7TQ1whSEt7SwBDB15W6tDwIHKm3U2kkmFvTIPyQP7
        WoY0G7VNc3lVq76/6gGnhV31EeYBr8VD1sI5CAXvTGnoeAyqs1eulYmb+q3H9B7TO2E6Mttier4SLjAdIDSZHHlyDO+zHNMBqMX0WtC3p6LdSYHprgurpfOidCqW7o+p
        inZ+Av9bI73ZDenRv5+pVUb6BlLvtxqlwh7pv7NMbYPRPlNb7aw+U1t79ATTZ2pfGf2Pmam1uuGTWYNPdo9PPT59EHz6DjO1jRtyfaa2z9TuG9sDlNTpPlOrerTmEveZ
        S9BAK/pR+w0/kLs4CanxBScbbfkUrU+Cif2cqnU6buy8EY28/ffGGvimp5GPTSPS9JTgkfQb8kI3cRZB3slUruC9LU+RCugiz6QJg0QKGUIyU75HhNSBCKmnpNym0fe6
        FKkQLUdKZMIAdKRWbfUGiKln0zNPYi40q411pPj4fvRWzZE2fTPx/XKkwxZa9RypB9UDx3tVfURycdPL5WSK1JSvPhBoenf0MN3DdBeYRrbdEqaL90OxHQkm7lwln1oe
        ZS7T4Qt52x7bYoazUjpx7WO77Sw4NZnelhZgVwu229WCNetoob4UoXFtvhq8zEyrLkAu7+7Imh3/Dngc3vrZsHy54NhbHf30bVHegNfMfyCL4lfKsLy+PPxqmQS8CrJZ
        4dtspFZnzIRQwq5IlGo+LW9neVPlj4rGyCOXrPjfNCEb7YvPKF/kYHZ/rhvj3S7w1/kvp6lRWODrJH9H4zTa8JK8UmpI7Bv7Bdg42ZHt1o+pIdQ0wHy+2r2Y/I9cQa1c
        CfHvLrt/9uEbnwipQXkoom2As41642adEMyIscThLiDUuCw/0eZ+dl1UMD04WtZBs1tsdv+y3SODB/HibGSUP3G/OPsHNXgM+A==
        AAAQAAAA
      >
      FLOATPOS 275 269 871 509
      FXID {C804D762-B992-A540-81BF-3D6C0F7FF19B}
      WAK 0
    >
  >
  <TRACK {361291E9-E6AB-604E-AA43-746A4AF7FC9C}
    NAME "midi "
    PEAKCOL 16576
    BEAT -1
    AUTOMODE 0
    VOLPAN 1 0 -1 -1 1
    MUTESOLO 0 0 0
    IPHASE 0
    ISBUS 1 1
    BUSCOMP 1 0
    SHOWINMIX 1 0.6667 0.5 1 0.5 0 0 0
    FREEMODE 0
    SEL 0
    REC 0 0 0 0 0 0 0
    VU 2
    TRACKHEIGHT 0 0
    INQ 0 0 0 0.5 100 0 0 100
    NCHAN 2
    FX 1
    TRACKID {361291E9-E6AB-604E-AA43-746A4AF7FC9C}
    PERF 0
    MIDIOUT -1
    MAINSEND 1 0
  >
  <TRACK {2BB5EACD-C1BC-284E-92F6-33B7023B768F}
    NAME "ch1,3 (send)"
    PEAKCOL 16576
    BEAT -1
    AUTOMODE 0
    VOLPAN 1 0 -1 -1 1
    MUTESOLO 0 0 0
    IPHASE 0
    ISBUS 0 0
    BUSCOMP 0 0
    SHOWINMIX 1 0.6667 0.5 1 0.5 0 0 0
    FREEMODE 0
    SEL 0
    REC 0 0 0 0 0 0 0
    VU 2
    MIDICTL -1 1
    TRACKHEIGHT 0 0
    INQ 0 0 0 0.5 100 0 0 100
    NCHAN 2
    FX 1
    TRACKID {2BB5EACD-C1BC-284E-92F6-33B7023B768F}
    PERF 0
    MIDIOUT -1
    MAINSEND 1 0
    <FXCHAIN
      SHOW 0
      LASTSEL 0
      DOCKED 0
    >
    <ITEM
      POSITION 0
      SNAPOFFS 0
      LENGTH 47.5
      LOOP 1
      ALLTAKES 0
      FADEIN 1 0 0 1 0 0
      FADEOUT 1 0 0 1 0 0
      MUTE 0
      SEL 0
      YPOS 0 0.166667
      IGUID {FAADB9D7-0308-CF44-B67C-0F1F10A593CD}
      IID 1
      NAME "R.H.                 - National_Anthems_-_United_Arab_Emirates.mid"
      VOLPAN 1 0 1 -1
      SOFFS 0 0
      PLAYRATE 1 1 0 -1 0 0.0025
      CHANMODE 0
      GUID {77B20FF3-449C-B14A-B915-D6EBE2DA1CDE}
      <SOURCE MIDI
        HASDATA 1 192 QN
        POOLEDEVTS {D26E9746-1E1A-F442-AA4E-B8729238A5C6}
        <X 0 0
          /wNSLkguICAgICAgICAgICAgICAgIA==
        >
        <X 0 0
          /wFUSEUgU09GVFdBUkUgVE9PTFdPUktT
        >
        <X 0 0
          /wFXT1JMRCBBVExBUw==
        >
        <X 0 0
          /wFNdWx0aU1lZGlhIFdpbmRvd3MgVmVyc2lvbg==
        >
        <X 0 0
          /wFDb3VudHJ5OiBVTklURUQgQVJBQiBFTUlSQVRFUw==
        >
        <X 0 0
          /wFBbnRoZW0gTmFtZTo=
        >
        <X 0 0
          /wEocCkgKGMpIFRoZSBTb2Z0d2FyZSBUb29sd29ya3MgMTk5MQ==
        >
        <X 0 0
          /wFlZGl0IGRhdGU6IDktMTQtOTE=
        >
        <X 0 0
          /wFNTVdJTiBFRElUIERBVEU6IDktMTQtOTE=
        >
        <X 0 0
          /wFUaGlzIGZpbGUgcHJvdmlkZWQgYnk6
        >
        <X 0 0
          /wFSb2IgV2FsbGFjZSBNdXNpYw==
        >
        <X 0 0
          /wEoNjAyKSA5NzktNjIwMQ==
        >
        e 0 91 3c 64
        e 0 91 41 64
        e 0 91 45 64
        e 0 91 48 64
        e 176 81 3c 40
        e 0 81 41 40
        e 0 81 45 40
        e 0 81 48 40
        e 16 91 41 64
        e 0 91 46 64
        e 0 91 4a 64
        e 0 91 4d 64
        e 128 81 41 40
        e 0 81 46 40
        e 0 81 4a 40
        e 0 81 4d 40
        e 16 91 40 64
        e 0 91 4c 64
        e 32 81 40 40
        e 0 81 4c 40
        e 16 91 41 64
        e 0 91 45 64
        e 0 91 48 64
        e 0 91 4d 64
        e 80 81 41 40
        e 0 81 45 40
        e 0 81 48 40
        e 16 91 43 64
        e 0 91 46 64
        e 80 81 4d 40
        e 0 81 43 40
        e 0 81 46 40
        e 16 91 41 64
        e 0 91 45 64
        e 0 91 48 64
        e 80 81 41 40
        e 0 81 45 40
        e 16 91 40 64
        e 0 91 43 64
        e 80 81 48 40
        e 0 81 40 40
        e 0 81 43 40
        e 16 91 41 64
        e 0 91 48 64
        e 0 91 4d 64
        e 176 81 41 40
        e 0 81 48 40
        e 0 81 4d 40
        e 16 91 43 64
        e 0 91 48 64
        e 0 91 4f 64
        e 80 81 43 40
        e 0 81 4f 40
        e 16 91 45 64
        e 0 91 51 64
        e 80 81 48 40
        e 0 81 45 40
        e 0 81 51 40
        e 16 91 45 64
        e 0 91 48 64
        e 0 91 4d 64
        e 0 91 51 64
        e 176 81 45 40
        e 0 81 48 40
        e 0 81 4d 40
        e 0 81 51 40
        e 16 91 43 64
        e 0 91 48 64
        e 0 91 4f 64
        e 80 81 43 40
        e 0 81 48 40
        e 0 81 4f 40
        e 16 91 41 64
        e 0 91 45 64
        e 0 91 48 64
        e 0 91 4d 64
        e 80 81 41 40
        e 0 81 45 40
        e 0 81 48 40
        e 0 81 4d 40
        e 16 91 40 64
        e 0 91 43 64
        e 0 91 48 64
        e 0 91 4c 64
        e 176 81 40 40
        e 0 81 43 40
        e 0 81 48 40
        e 0 81 4c 40
        e 16 91 41 64
        e 0 91 45 64
        e 0 91 48 64
        e 0 91 4d 64
        e 80 81 41 40
        e 0 81 45 40
        e 0 81 48 40
        e 0 81 4d 40
        e 16 91 43 64
        e 0 91 48 64
        e 0 91 4c 64
        e 0 91 4f 64
        e 80 81 43 40
        e 0 81 48 40
        e 0 81 4c 40
        e 0 81 4f 40
        e 16 91 43 64
        e 0 91 48 64
        e 0 91 4c 64
        e 0 91 4f 64
        e 368 81 43 40
        e 0 81 48 40
        e 0 81 4c 40
        e 0 81 4f 40
        e 16 91 43 64
        e 0 91 46 64
        e 0 91 4c 64
        e 0 91 4f 64
        e 176 81 43 40
        e 0 81 46 40
        e 0 81 4c 40
        e 0 81 4f 40
        e 16 91 43 64
        e 0 91 46 64
        e 0 91 4c 64
        e 0 91 4f 64
        e 128 81 43 40
        e 0 81 46 40
        e 0 81 4c 40
        e 0 81 4f 40
        e 16 91 43 64
        e 0 91 46 64
        e 0 91 4c 64
        e 0 91 4f 64
        e 32 81 43 40
        e 0 81 46 40
        e 0 81 4c 40
        e 0 81 4f 40
        e 16 91 43 64
        e 0 91 46 64
        e 0 91 4c 64
        e 0 91 4f 64
        e 176 81 43 40
        e 0 81 46 40
        e 0 81 4c 40
        e 0 81 4f 40
        e 16 91 3c 64
        e 0 91 40 64
        e 0 91 48 64
        e 176 81 3c 40
        e 0 81 40 40
        e 0 81 48 40
        e 16 91 43 64
        e 0 91 48 64
        e 0 91 4c 64
        e 0 91 4f 64
        e 128 81 43 40
        e 0 81 48 40
        e 0 81 4c 40
        e 0 81 4f 40
        e 16 91 42 64
        e 0 91 4e 64
        e 32 81 42 40
        e 0 81 4e 40
        e 16 91 43 64
        e 0 91 4f 64
        e 80 81 43 40
        e 0 81 4f 40
        e 16 91 45 64
        e 0 91 51 64
        e 80 81 45 40
        e 0 81 51 40
        e 16 91 46 64
        e 0 91 4c 64
        e 0 91 4f 64
        e 0 91 52 64
        e 176 81 46 40
        e 0 81 4c 40
        e 0 81 4f 40
        e 0 81 52 40
        e 16 91 43 64
        e 0 91 48 64
        e 0 91 4c 64
        e 0 91 4f 64
        e 176 81 43 40
        e 0 81 48 40
        e 0 81 4c 40
        e 0 81 4f 40
        e 16 91 45 64
        e 0 91 4d 64
        e 0 91 51 64
        e 128 81 45 40
        e 0 81 4d 40
        e 0 81 51 40
        e 16 91 43 64
        e 0 91 4c 64
        e 0 91 4f 64
        e 32 81 43 40
        e 0 81 4c 40
        e 0 81 4f 40
        e 16 91 45 64
        e 0 91 4d 64
        e 0 91 51 64
        e 80 81 45 40
        e 0 81 4d 40
        e 0 81 51 40
        e 16 91 46 64
        e 0 91 4f 64
        e 0 91 52 64
        e 80 81 46 40
        e 0 81 4f 40
        e 0 81 52 40
        e 16 91 48 64
        e 0 91 51 64
        e 0 91 54 64
        e 176 81 48 40
        e 0 81 51 40
        e 0 81 54 40
        e 16 91 41 64
        e 0 91 45 64
        e 0 91 4d 64
        e 176 81 41 40
        e 0 81 45 40
        e 0 81 4d 40
        e 16 91 43 64
        e 0 91 46 64
        e 0 91 4c 64
        e 0 91 4f 64
        e 176 81 43 40
        e 0 81 46 40
        e 0 81 4c 40
        e 0 81 4f 40
        e 16 91 46 64
        e 0 91 4a 64
        e 0 91 52 64
        e 176 81 46 40
        e 0 81 4a 40
        e 0 81 52 40
        e 16 91 45 64
        e 0 91 48 64
        e 0 91 51 64
        e 128 81 45 40
        e 0 81 48 40
        e 0 81 51 40
        e 16 91 43 64
        e 0 91 4f 64
        e 32 81 43 40
        e 0 81 4f 40
        e 16 91 3e 64
        e 0 91 46 64
        e 0 91 4a 64
        e 80 81 3e 40
        e 0 81 46 40
        e 0 81 4a 40
        e 16 91 40 64
        e 0 91 46 64
        e 0 91 4c 64
        e 80 81 40 40
        e 0 81 46 40
        e 0 81 4c 40
        e 16 91 41 64
        e 0 91 45 64
        e 0 91 48 64
        e 0 91 4d 64
        e 176 81 41 40
        e 0 81 45 40
        e 0 81 48 40
        e 0 81 4d 40
        e 16 91 41 64
        e 0 91 45 64
        e 0 91 48 64
        e 0 91 4d 64
        e 128 81 41 40
        e 0 81 45 40
        e 0 81 48 40
        e 0 81 4d 40
        e 16 91 41 64
        e 0 91 45 64
        e 0 91 48 64
        e 0 91 4d 64
        e 32 81 41 40
        e 0 81 45 40
        e 0 81 48 40
        e 0 81 4d 40
        e 16 91 41 64
        e 0 91 45 64
        e 0 91 48 64
        e 0 91 4d 64
        e 176 81 41 40
        e 0 81 45 40
        e 0 81 48 40
        e 0 81 4d 40
        e 208 91 41 64
        e 0 91 4d 64
        e 176 81 41 40
        e 0 81 4d 40
        e 16 91 41 64
        e 0 91 4d 64
        e 128 81 41 40
        e 0 81 4d 40
        e 16 91 40 64
        e 0 91 4c 64
        e 32 81 40 40
        e 0 81 4c 40
        e 16 91 3e 64
        e 0 91 4a 64
        e 176 81 3e 40
        e 0 81 4a 40
        e 16 91 3e 64
        e 0 91 4a 64
        e 128 81 3e 40
        e 0 81 4a 40
        e 16 91 3c 64
        e 0 91 48 64
        e 32 81 3c 40
        e 0 81 48 40
        e 16 91 3a 64
        e 0 91 46 64
        e 176 81 3a 40
        e 0 81 46 40
        e 16 91 3a 64
        e 0 91 46 64
        e 128 81 3a 40
        e 0 81 46 40
        e 16 91 39 64
        e 0 91 45 64
        e 32 81 39 40
        e 0 81 45 40
        e 16 91 37 64
        e 0 91 43 64
        e 80 81 37 40
        e 0 81 43 40
        e 16 91 41 64
        e 32 81 41 40
        e 16 91 43 64
        e 32 81 43 40
        e 16 91 45 64
        e 32 81 45 40
        e 16 91 46 64
        e 32 81 46 40
        e 16 91 48 64
        e 32 81 48 40
        e 16 91 4a 64
        e 32 81 4a 40
        e 16 91 40 64
        e 0 91 43 64
        e 0 91 4c 64
        e 176 81 40 40
        e 0 81 43 40
        e 0 81 4c 40
        e 16 91 40 64
        e 0 91 4c 64
        e 128 81 40 40
        e 0 81 4c 40
        e 16 91 3e 64
        e 0 91 4a 64
        e 32 81 3e 40
        e 0 81 4a 40
        e 16 91 3c 64
        e 0 91 40 64
        e 0 91 48 64
        e 176 81 3c 40
        e 0 81 40 40
        e 0 81 48 40
        e 16 91 3c 64
        e 0 91 40 64
        e 0 91 48 64
        e 128 81 3c 40
        e 0 81 40 40
        e 0 81 48 40
        e 16 91 3a 64
        e 0 91 3e 64
        e 0 91 46 64
        e 32 81 3a 40
        e 0 81 3e 40
        e 0 81 46 40
        e 16 91 39 64
        e 0 91 3c 64
        e 0 91 45 64
        e 176 81 39 40
        e 0 81 3c 40
        e 0 81 45 40
        e 16 91 39 64
        e 0 91 3c 64
        e 0 91 45 64
        e 128 81 39 40
        e 0 81 3c 40
        e 0 81 45 40
        e 16 91 37 64
        e 0 91 3a 64
        e 0 91 43 64
        e 32 81 37 40
        e 0 81 3a 40
        e 0 81 43 40
        e 16 91 39 64
        e 0 91 41 64
        e 320 81 39 40
        e 0 81 41 40
        e 16 91 41 64
        e 0 91 4d 64
        e 32 81 41 40
        e 0 81 4d 40
        e 16 91 43 64
        e 0 91 48 64
        e 0 91 4f 64
        e 176 81 43 40
        e 0 81 48 40
        e 0 81 4f 40
        e 16 91 45 64
        e 0 91 48 64
        e 0 91 51 64
        e 176 81 45 40
        e 0 81 48 40
        e 0 81 51 40
        e 16 91 46 64
        e 0 91 4c 64
        e 0 91 4f 64
        e 0 91 52 64
        e 176 81 46 40
        e 0 81 4c 40
        e 0 81 4f 40
        e 0 81 52 40
        e 16 91 43 64
        e 0 91 4c 64
        e 0 91 4f 64
        e 176 81 43 40
        e 0 81 4c 40
        e 0 81 4f 40
        e 16 91 45 64
        e 0 91 4d 64
        e 0 91 51 64
        e 176 81 45 40
        e 0 81 4d 40
        e 0 81 51 40
        e 16 91 46 64
        e 0 91 4f 64
        e 0 91 52 64
        e 176 81 46 40
        e 0 81 4f 40
        e 0 81 52 40
        e 16 91 48 64
        e 0 91 51 64
        e 0 91 54 64
        e 176 81 48 40
        e 0 81 51 40
        e 0 81 54 40
        e 16 91 4a 64
        e 0 91 52 64
        e 0 91 56 64
        e 176 81 4a 40
        e 0 81 52 40
        e 0 81 56 40
        e 16 91 40 64
        e 0 91 46 64
        e 0 91 4c 64
        e 80 81 40 40
        e 0 81 46 40
        e 0 81 4c 40
        e 16 91 3c 64
        e 0 91 48 64
        e 80 81 3c 40
        e 0 81 48 40
        e 16 91 3e 64
        e 0 91 4a 64
        e 80 81 3e 40
        e 0 81 4a 40
        e 16 91 41 64
        e 0 91 4d 64
        e 80 81 41 40
        e 0 81 4d 40
        e 16 91 40 64
        e 0 91 4c 64
        e 80 81 40 40
        e 0 81 4c 40
        e 16 91 3c 64
        e 0 91 48 64
        e 80 81 3c 40
        e 0 81 48 40
        e 16 91 3e 64
        e 0 91 4a 64
        e 80 81 3e 40
        e 0 81 4a 40
        e 16 91 40 64
        e 0 91 4c 64
        e 80 81 40 40
        e 0 81 4c 40
        e 16 91 41 64
        e 0 91 45 64
        e 0 91 4d 64
        e 80 81 41 40
        e 0 81 45 40
        e 0 81 4d 40
        e 16 91 41 64
        e 0 91 4d 64
        e 32 81 41 40
        e 0 81 4d 40
        e 16 91 41 64
        e 0 91 4d 64
        e 32 81 41 40
        e 0 81 4d 40
        e 16 91 41 64
        e 0 91 4d 64
        e 80 81 41 40
        e 0 81 4d 40
        e 16 91 41 64
        e 0 91 4d 64
        e 80 81 41 40
        e 0 81 4d 40
        e 16 91 41 64
        e 0 91 4d 64
        e 80 81 41 40
        e 0 81 4d 40
        e 16 91 41 64
        e 0 91 4d 64
        e 80 81 41 40
        e 0 81 4d 40
        e 16 91 41 64
        e 0 91 4d 64
        e 80 81 41 40
        e 0 81 4d 40
        e 16 91 41 64
        e 0 91 4d 64
        e 80 81 41 40
        e 0 81 4d 40
        e 16 91 3c 64
        e 0 91 41 64
        e 0 91 45 64
        e 0 91 48 64
        e 176 81 3c 40
        e 0 81 41 40
        e 0 81 45 40
        e 0 81 48 40
        e 16 91 41 64
        e 0 91 4a 64
        e 0 91 4d 64
        e 128 81 41 40
        e 0 81 4a 40
        e 0 81 4d 40
        e 16 91 40 64
        e 0 91 4c 64
        e 32 81 40 40
        e 0 81 4c 40
        e 16 91 41 64
        e 0 91 48 64
        e 0 91 4d 64
        e 80 81 48 40
        e 16 91 46 64
        e 80 81 41 40
        e 0 81 4d 40
        e 0 81 46 40
        e 16 91 3c 64
        e 0 91 45 64
        e 0 91 48 64
        e 80 81 45 40
        e 16 91 43 64
        e 80 81 3c 40
        e 0 81 48 40
        e 0 81 43 40
        e 16 91 41 64
        e 0 91 48 64
        e 0 91 4d 64
        e 176 81 41 40
        e 0 81 48 40
        e 0 81 4d 40
        e 16 91 43 64
        e 0 91 48 64
        e 0 91 4f 64
        e 80 81 43 40
        e 0 81 48 40
        e 0 81 4f 40
        e 16 91 45 64
        e 0 91 48 64
        e 0 91 51 64
        e 80 81 45 40
        e 0 81 48 40
        e 0 81 51 40
        e 16 91 45 64
        e 0 91 48 64
        e 0 91 51 64
        e 176 81 45 40
        e 0 81 48 40
        e 0 81 51 40
        e 16 91 43 64
        e 0 91 48 64
        e 0 91 4f 64
        e 80 81 43 40
        e 0 81 48 40
        e 0 81 4f 40
        e 16 91 41 64
        e 0 91 4d 64
        e 80 81 41 40
        e 0 81 4d 40
        e 16 91 40 64
        e 0 91 48 64
        e 0 91 4c 64
        e 176 81 40 40
        e 0 81 48 40
        e 0 81 4c 40
        e 16 91 41 64
        e 0 91 48 64
        e 0 91 4d 64
        e 80 81 41 40
        e 0 81 48 40
        e 0 81 4d 40
        e 16 91 43 64
        e 0 91 48 64
        e 0 91 4f 64
        e 80 81 43 40
        e 0 81 48 40
        e 0 81 4f 40
        e 16 91 43 64
        e 0 91 4c 64
        e 0 91 4f 64
        e 368 81 43 40
        e 0 81 4c 40
        e 0 81 4f 40
        e 16 91 43 64
        e 0 91 46 64
        e 0 91 4f 64
        e 176 81 43 40
        e 0 81 46 40
        e 0 81 4f 40
        e 16 91 43 64
        e 0 91 46 64
        e 0 91 4f 64
        e 128 81 43 40
        e 0 81 46 40
        e 0 81 4f 40
        e 16 91 43 64
        e 0 91 4f 64
        e 32 81 43 40
        e 0 81 4f 40
        e 16 91 43 64
        e 0 91 4f 64
        e 176 81 43 40
        e 0 81 4f 40
        e 16 91 3c 64
        e 0 91 48 64
        e 176 81 3c 40
        e 0 81 48 40
        e 16 91 43 64
        e 0 91 48 64
        e 0 91 4c 64
        e 0 91 4f 64
        e 128 81 43 40
        e 0 81 48 40
        e 0 81 4c 40
        e 0 81 4f 40
        e 16 91 42 64
        e 0 91 4e 64
        e 32 81 42 40
        e 0 81 4e 40
        e 16 91 43 64
        e 0 91 4f 64
        e 80 81 43 40
        e 0 81 4f 40
        e 16 91 45 64
        e 0 91 51 64
        e 80 81 45 40
        e 0 81 51 40
        e 16 91 46 64
        e 0 91 4f 64
        e 0 91 52 64
        e 176 81 46 40
        e 0 81 4f 40
        e 0 81 52 40
        e 16 91 43 64
        e 0 91 48 64
        e 0 91 4c 64
        e 0 91 4f 64
        e 176 81 43 40
        e 0 81 48 40
        e 0 81 4c 40
        e 0 81 4f 40
        e 16 91 45 64
        e 0 91 4d 64
        e 0 91 51 64
        e 128 81 45 40
        e 0 81 4d 40
        e 0 81 51 40
        e 16 91 43 64
        e 0 91 4f 64
        e 32 81 43 40
        e 0 81 4f 40
        e 16 91 45 64
        e 0 91 51 64
        e 80 81 45 40
        e 0 81 51 40
        e 16 91 46 64
        e 0 91 52 64
        e 80 81 46 40
        e 0 81 52 40
        e 16 91 48 64
        e 0 91 54 64
        e 176 81 48 40
        e 0 81 54 40
        e 16 91 41 64
        e 0 91 48 64
        e 0 91 4d 64
        e 176 81 41 40
        e 0 81 48 40
        e 0 81 4d 40
        e 16 91 43 64
        e 0 91 46 64
        e 0 91 4f 64
        e 176 81 43 40
        e 0 81 46 40
        e 0 81 4f 40
        e 16 91 46 64
        e 0 91 4f 64
        e 0 91 52 64
        e 176 81 46 40
        e 0 81 4f 40
        e 0 81 52 40
        e 16 91 45 64
        e 0 91 4d 64
        e 0 91 51 64
        e 80 81 45 40
        e 0 81 4d 40
        e 0 81 51 40
        e 16 91 43 64
        e 0 91 4f 64
        e 80 81 43 40
        e 0 81 4f 40
        e 16 91 3e 64
        e 0 91 41 64
        e 0 91 4a 64
        e 80 81 3e 40
        e 0 81 41 40
        e 0 81 4a 40
        e 16 91 40 64
        e 0 91 43 64
        e 0 91 4c 64
        e 80 81 40 40
        e 0 81 43 40
        e 0 81 4c 40
        e 16 91 41 64
        e 0 91 45 64
        e 0 91 4d 64
        e 176 81 41 40
        e 0 81 45 40
        e 0 81 4d 40
        e 16 91 41 64
        e 0 91 45 64
        e 0 91 4d 64
        e 128 81 41 40
        e 0 81 45 40
        e 0 81 4d 40
        e 16 91 41 64
        e 0 91 45 64
        e 0 91 4d 64
        e 32 81 41 40
        e 0 81 45 40
        e 0 81 4d 40
        e 16 91 41 64
        e 0 91 45 64
        e 0 91 4d 64
        e 176 81 41 40
        e 0 81 45 40
        e 0 81 4d 40
        E 16 b0 7b 00
        GUID {834CB3BD-F8D4-1746-9C72-178E786307DD}
        IGNTEMPO 0 120 4 4
        SRCCOLOR 199
        VELLANE -1 86 6
        CFGEDITVIEW -912 10.966507 40 10 0 0 0 0 0 0.5
        KEYSNAP 0
        TRACKSEL 252 0 0 ""
        EVTFILTER 0 -1 -1 -1 -1 0 0 0 0 -1 -1 -1 -1 0 -1 0 -1 -1
        CFGEDIT 1 0 0 0 0 0 1 0 1 1 1 0.25 285 20 1280 633 0 0 2 3 0 0 0 0 0 0.5 0 0 1 64
      >
    >
  >
  <TRACK {3C494A2B-9670-9740-AD22-E42CC5065FE1}
    NAME "ch2,4 (send)"
    PEAKCOL 16576
    BEAT -1
    AUTOMODE 0
    VOLPAN 1 0 -1 -1 1
    MUTESOLO 0 0 0
    IPHASE 0
    ISBUS 0 0
    BUSCOMP 0 0
    SHOWINMIX 1 0.6667 0.5 1 0.5 0 0 0
    FREEMODE 0
    SEL 0
    REC 0 0 0 0 0 0 0
    VU 2
    MIDICTL -1 1
    TRACKHEIGHT 0 0
    INQ 0 0 0 0.5 100 0 0 100
    NCHAN 2
    FX 1
    TRACKID {3C494A2B-9670-9740-AD22-E42CC5065FE1}
    PERF 0
    MIDIOUT -1
    MAINSEND 1 0
    <FXCHAIN
      WNDRECT 32 359 724 387
      SHOW 0
      LASTSEL 0
      DOCKED 0
    >
    <ITEM
      POSITION 0
      SNAPOFFS 0
      LENGTH 47.5
      LOOP 1
      ALLTAKES 0
      FADEIN 1 0 0 1 0 0
      FADEOUT 1 0 0 1 0 0
      MUTE 0
      SEL 1
      YPOS 0.166667 0.166667
      IGUID {75B4BE05-0AB2-AF4C-8455-B6EAE5941D2D}
      IID 2
      NAME "L.H.                 - National_Anthems_-_United_Arab_Emirates.mid"
      VOLPAN 1 0 1 -1
      SOFFS 0 0
      PLAYRATE 1 1 0 -1 0 0.0025
      CHANMODE 0
      GUID {154070BE-C99B-5B4C-8B3C-6880793C1C18}
      <SOURCE MIDI
        HASDATA 1 192 QN
        POOLEDEVTS {E3B03F05-63D9-8D43-A87F-403E72776B91}
        <X 0 0
          /wNMLkguICAgICAgICAgICAgICAgIA==
        >
        E 0 92 35 64
        E 0 92 29 64
        E 560 82 35 40
        E 0 82 29 40
        E 16 92 3a 64
        E 0 92 2e 64
        E 176 82 3a 40
        E 0 82 2e 40
        E 16 92 2d 64
        E 0 92 39 64
        E 176 82 2d 40
        E 0 82 39 40
        E 16 92 2b 64
        E 0 92 37 64
        E 176 82 2b 40
        E 0 82 37 40
        E 16 92 29 64
        E 0 92 35 64
        E 176 82 29 40
        E 0 82 35 40
        E 16 92 37 64
        E 0 92 2b 64
        E 80 82 37 40
        E 0 82 2b 40
        E 16 92 24 64
        E 0 92 30 64
        E 80 82 24 40
        E 0 82 30 40
        E 16 92 24 64
        E 0 92 30 64
        E 368 82 24 40
        E 0 82 30 40
        E 16 92 3c 64
        E 0 92 30 64
        E 80 82 3c 40
        E 0 82 30 40
        E 16 92 3c 64
        E 0 92 30 64
        E 16 82 3c 40
        E 0 82 30 40
        E 16 92 3c 64
        E 0 92 30 64
        E 16 82 3c 40
        E 0 82 30 40
        E 16 92 3c 64
        E 0 92 30 64
        E 16 82 3c 40
        E 0 82 30 40
        E 16 92 30 64
        E 0 92 3c 64
        E 80 82 30 40
        E 0 82 3c 40
        E 16 92 30 64
        E 0 92 3c 64
        E 80 82 30 40
        E 0 82 3c 40
        E 16 92 28 64
        E 0 92 34 64
        E 176 82 28 40
        E 0 82 34 40
        E 16 92 30 64
        E 0 92 24 64
        E 176 82 30 40
        E 0 82 24 40
        E 16 92 2e 64
        E 0 92 3a 64
        E 80 82 2e 40
        E 0 82 3a 40
        E 16 92 30 64
        E 0 92 3c 64
        E 80 82 30 40
        E 0 82 3c 40
        E 16 92 28 64
        E 0 92 34 64
        E 80 82 28 40
        E 0 82 34 40
        E 16 92 2b 64
        E 0 92 37 64
        E 80 82 2b 40
        E 0 82 37 40
        E 16 92 24 64
        E 0 92 30 64
        E 464 82 24 40
        E 0 82 30 40
        E 16 92 24 64
        E 0 92 30 64
        E 80 82 24 40
        E 0 82 30 40
        E 16 92 28 64
        E 0 92 34 64
        E 80 82 28 40
        E 0 82 34 40
        E 16 92 37 64
        E 0 92 2b 64
        E 80 82 37 40
        E 0 82 2b 40
        E 16 92 29 64
        E 0 92 35 64
        E 464 82 29 40
        E 0 82 35 40
        E 16 92 30 64
        E 0 92 3c 64
        E 80 82 30 40
        E 0 82 3c 40
        E 16 92 2d 64
        E 0 92 39 64
        E 80 82 2d 40
        E 0 82 39 40
        E 16 92 29 64
        E 0 92 35 64
        E 80 82 29 40
        E 0 82 35 40
        E 16 92 24 64
        E 0 92 30 64
        E 368 82 24 40
        E 0 82 30 40
        E 16 92 28 64
        E 0 92 34 64
        E 368 82 28 40
        E 0 82 34 40
        E 16 92 29 64
        E 0 92 30 64
        E 0 92 35 64
        E 176 82 29 40
        E 0 82 30 40
        E 0 82 35 40
        E 16 92 30 64
        E 0 92 35 64
        E 0 92 29 64
        E 128 82 30 40
        E 0 82 35 40
        E 0 82 29 40
        E 16 92 30 64
        E 0 92 35 64
        E 0 92 29 64
        E 32 82 30 40
        E 0 82 35 40
        E 0 82 29 40
        E 16 92 29 64
        E 0 92 30 64
        E 0 92 35 64
        E 176 82 29 40
        E 0 82 30 40
        E 0 82 35 40
        E 208 92 29 64
        E 0 92 35 64
        E 272 82 29 40
        E 0 82 35 40
        E 112 92 2e 64
        E 0 92 3a 64
        E 272 82 2e 40
        E 0 82 3a 40
        E 112 92 34 64
        E 0 92 28 64
        E 272 82 34 40
        E 0 82 28 40
        E 112 92 24 64
        E 0 92 30 64
        E 272 82 24 40
        E 0 82 30 40
        E 112 92 30 64
        E 0 92 24 64
        E 560 82 30 40
        E 0 82 24 40
        E 208 92 35 64
        E 0 92 29 64
        E 560 82 35 40
        E 0 82 29 40
        E 208 92 37 64
        E 0 92 2b 64
        E 176 82 37 40
        E 0 82 2b 40
        E 16 92 29 64
        E 0 92 35 64
        E 176 82 29 40
        E 0 82 35 40
        E 16 92 34 64
        E 0 92 28 64
        E 176 82 34 40
        E 0 82 28 40
        E 16 92 24 64
        E 0 92 30 64
        E 176 82 24 40
        E 0 82 30 40
        E 16 92 35 64
        E 0 92 29 64
        E 176 82 35 40
        E 0 82 29 40
        E 16 92 37 64
        E 0 92 2b 64
        E 176 82 37 40
        E 0 82 2b 40
        E 16 92 39 64
        E 0 92 2d 64
        E 176 82 39 40
        E 0 82 2d 40
        E 16 92 2e 64
        E 0 92 3a 64
        E 176 82 2e 40
        E 0 82 3a 40
        E 16 92 30 64
        E 0 92 3c 64
        E 272 82 30 40
        E 0 82 3c 40
        E 16 92 3e 64
        E 0 92 32 64
        E 80 82 3e 40
        E 0 82 32 40
        E 16 92 30 64
        E 0 92 3c 64
        E 80 82 30 40
        E 0 82 3c 40
        E 16 92 2e 64
        E 0 92 3a 64
        E 80 82 2e 40
        E 0 82 3a 40
        E 16 92 2d 64
        E 0 92 39 64
        E 80 82 2d 40
        E 0 82 39 40
        E 16 92 2b 64
        E 0 92 37 64
        E 80 82 2b 40
        E 0 82 37 40
        E 16 92 35 64
        E 0 92 29 64
        E 80 82 35 40
        E 0 82 29 40
        E 16 92 29 64
        E 0 92 35 64
        E 80 82 29 40
        E 0 82 35 40
        E 16 92 28 64
        E 0 92 34 64
        E 80 82 28 40
        E 0 82 34 40
        E 16 92 26 64
        E 0 92 32 64
        E 80 82 26 40
        E 0 82 32 40
        E 16 92 24 64
        E 0 92 30 64
        E 80 82 24 40
        E 0 82 30 40
        E 16 92 2e 64
        E 0 92 3a 64
        E 80 82 2e 40
        E 0 82 3a 40
        E 16 92 2d 64
        E 0 92 39 64
        E 80 82 2d 40
        E 0 82 39 40
        E 16 92 2b 64
        E 0 92 37 64
        E 80 82 2b 40
        E 0 82 37 40
        E 16 92 29 64
        E 0 92 35 64
        E 176 82 29 40
        E 0 82 35 40
        E 16 92 2b 64
        E 0 92 37 64
        E 176 82 2b 40
        E 0 82 37 40
        E 16 92 29 64
        E 0 92 35 64
        E 176 82 29 40
        E 0 82 35 40
        E 16 92 2e 64
        E 0 92 3a 64
        E 176 82 2e 40
        E 0 82 3a 40
        E 16 92 2d 64
        E 0 92 39 64
        E 176 82 2d 40
        E 0 82 39 40
        E 16 92 2b 64
        E 0 92 37 64
        E 176 82 2b 40
        E 0 82 37 40
        E 16 92 29 64
        E 0 92 35 64
        E 176 82 29 40
        E 0 82 35 40
        E 16 92 2b 64
        E 0 92 37 64
        E 80 82 2b 40
        E 0 82 37 40
        E 16 92 2d 64
        E 0 92 39 64
        E 80 82 2d 40
        E 0 82 39 40
        E 16 92 3c 64
        E 0 92 30 64
        E 176 82 3c 40
        E 0 82 30 40
        E 16 92 30 64
        E 0 92 3c 64
        E 80 82 30 40
        E 0 82 3c 40
        E 16 92 30 64
        E 0 92 3c 64
        E 80 82 30 40
        E 0 82 3c 40
        E 16 92 2e 64
        E 0 92 3a 64
        E 80 82 2e 40
        E 0 82 3a 40
        E 16 92 24 64
        E 0 92 30 64
        E 80 82 24 40
        E 0 82 30 40
        E 16 92 34 64
        E 0 92 28 64
        E 80 82 34 40
        E 0 82 28 40
        E 16 92 2b 64
        E 0 92 37 64
        E 80 82 2b 40
        E 0 82 37 40
        E 16 92 3a 64
        E 0 92 2e 64
        E 80 82 3a 40
        E 0 82 2e 40
        E 16 92 39 64
        E 0 92 2d 64
        E 80 82 39 40
        E 0 82 2d 40
        E 16 92 2b 64
        E 0 92 37 64
        E 80 82 2b 40
        E 0 82 37 40
        E 16 92 29 64
        E 0 92 35 64
        E 80 82 29 40
        E 0 82 35 40
        E 16 92 3a 64
        E 0 92 2e 64
        E 80 82 3a 40
        E 0 82 2e 40
        E 16 92 30 64
        E 0 92 3c 64
        E 80 82 30 40
        E 0 82 3c 40
        E 16 92 28 64
        E 0 92 34 64
        E 80 82 28 40
        E 0 82 34 40
        E 16 92 2b 64
        E 0 92 37 64
        E 80 82 2b 40
        E 0 82 37 40
        E 16 92 30 64
        E 0 92 24 64
        E 464 82 30 40
        E 0 82 24 40
        E 16 92 24 64
        E 0 92 30 64
        E 80 82 24 40
        E 0 82 30 40
        E 16 92 28 64
        E 0 92 34 64
        E 80 82 28 40
        E 0 82 34 40
        E 16 92 2b 64
        E 0 92 37 64
        E 80 82 2b 40
        E 0 82 37 40
        E 16 92 29 64
        E 0 92 35 64
        E 464 82 29 40
        E 0 82 35 40
        E 16 92 30 64
        E 0 92 3c 64
        E 80 82 30 40
        E 0 82 3c 40
        E 16 92 2d 64
        E 0 92 39 64
        E 80 82 2d 40
        E 0 82 39 40
        E 16 92 35 64
        E 0 92 29 64
        E 80 82 35 40
        E 0 82 29 40
        E 16 92 28 64
        E 0 92 34 64
        E 368 82 28 40
        E 0 82 34 40
        E 16 92 24 64
        E 0 92 30 64
        E 368 82 24 40
        E 0 82 30 40
        E 16 92 29 64
        E 0 92 35 64
        E 176 82 29 40
        E 0 82 35 40
        E 16 92 29 64
        E 0 92 35 64
        E 128 82 29 40
        E 0 82 35 40
        E 16 92 29 64
        E 0 92 35 64
        E 32 82 29 40
        E 0 82 35 40
        E 16 92 29 64
        E 0 92 35 64
        E 176 82 29 40
        E 0 82 35 40
        E 16 b0 7b 00
        GUID {44815931-6C34-CE44-A578-7DBC38CC7A90}
        IGNTEMPO 0 120 4 4
        SRCCOLOR 200
        VELLANE -1 86 6
        CFGEDITVIEW 0 11.073684 65 12 0 0 0 0 0 0.5
        KEYSNAP 0
        TRACKSEL 252 0 0 ""
        EVTFILTER 0 -1 -1 -1 -1 0 0 0 0 -1 -1 -1 -1 0 -1 0 -1 -1
        CFGEDIT 1 0 0 0 0 0 1 0 1 1 1 0.25 285 20 1280 633 0 0 2 3 0 0 0 0 0 0.5 0 0 1 64
      >
    >
  >
  <TRACK {EF869DFD-FA85-EE4D-A133-ABEE14D1B7D0}
    NAME "ch5 (send bass)"
    PEAKCOL 16576
    BEAT -1
    AUTOMODE 0
    VOLPAN 1 0 -1 -1 1
    MUTESOLO 0 0 0
    IPHASE 0
    ISBUS 2 -1
    BUSCOMP 0 0
    SHOWINMIX 1 0.6667 0.5 1 0.5 0 0 0
    FREEMODE 0
    SEL 0
    REC 0 0 0 0 0 0 0
    VU 2
    TRACKHEIGHT 0 0
    INQ 0 0 0 0.5 100 0 0 100
    NCHAN 2
    FX 1
    TRACKID {EF869DFD-FA85-EE4D-A133-ABEE14D1B7D0}
    PERF 0
    MIDIOUT -1
    MAINSEND 1 0
  >
  <TRACK {97C14EE2-C273-C940-9D68-54C062C3CBCA}
    NAME ChipFront
    PEAKCOL 16576
    BEAT -1
    AUTOMODE 0
    VOLPAN 0.24448276984837 -0.202 -1 -1 1
    MUTESOLO 0 0 0
    IPHASE 0
    ISBUS 0 0
    BUSCOMP 0 0
    SHOWINMIX 1 0.6667 0.5 1 0.5 0 0 0
    FREEMODE 0
    SEL 0
    REC 0 0 0 0 0 0 0
    VU 2
    TRACKHEIGHT 0 0
    INQ 0 0 0 0.5 100 0 0 100
    NCHAN 2
    FX 1
    TRACKID {97C14EE2-C273-C940-9D68-54C062C3CBCA}
    PERF 0
    AUXRECV 8 0 1 0 0 0 0 0 0 -1:U 0 -1 ''
    MIDIOUT -1
    MAINSEND 1 0
    <FXCHAIN
      SHOW 0
      LASTSEL 0
      DOCKED 0
      BYPASS 0 0 0
      <VST "VST: FabFilter Volcano 2 (SC) (FabFilter)" "FabFilter Volcano 2 (SC).vst" 0 "" 1180054068
        NDJWRu9e7f4EAAAAAQAAAAAAAAACAAAAAAAAAAQAAAAAAAAACAAAAAAAAAAEAAAAAQAAAAAAAAACAAAAAAAAAAQAAAAAAAAACAAAAAAAAADcCwAAAAAAAAAAEAA=
        776t3g3wrd4AAAA/AAAAPwAAAD8AAAA/AACAPwAAAAAAAAA/q6qqPq2+aD8AAAA/ig0yPM3MzD0AAAAAAAAAAAAAAAAAAIA/AACAP0Isdj8AAAA/bbDgPZqZGT8AAAAA
        AAAAAOev3zwAAIA/AAAAAAAAgD8AAAA/AAAAAJqZGT8AAAAAAAAAAAAAAAAAAIA/AAAAAAAAgD8AAAA/AAAAAJqZGT8AAAAAAAAAAAAAAAAAAIA/AAAAAKuqqj4ATrI+
        AAAAPwAAAADBykk/XXRRPwAAAACJiIg9AACAP6oXiD4AAAAAAAAAAAAAAAAAAAAAAACAPwAAAAAAAAA/AAAAAAAAAAAAAAAAAAAAPwAAAAAAAAAAAAAAAAAAAD8AAAAA
        AAAAAAAAAAAAAAA/AAAAAAAAAAAAAAAAAAAAPwAAAAAAAAAAAAAAAAAAAD8AAAAAAAAAAAAAAAAAAAA/AAAAAAAAAAAAAAAAAAAAPwAAAAAAAAAAAAAAAAAAAD8AAAAA
        AAAAAAAAAAAAAAA/AAAAAAAAAAAAAAAAAAAAPwAAAAAAAAAAAAAAAAAAAD8AAAAAAAAAAAAAAAAAAAA/AAAAAAAAAAAAAAAAAAAAPwAAAAAAAAAAAAAAAHwZED4AAAA/
        KKO3PQAAgD8AAAAAAAAAAImIiD3y0iU/AAAAAAAAgD8AAAAAdGjRPQAAAAAAAIA/AAAAAAAAAD8AAAAAAAAAAAAAAAAAAAA/AAAAAAAAAAAAAAAAAAAAPwAAAAAAAAAA
        AAAAAAAAAD8AAAAAAAAAAAAAAAAAAAA/AAAAAAAAAAAAAAAAAAAAPwAAAAAAAAAAAAAAAAAAAD8AAAAAAAAAAAAAAAAAAAA/AAAAAAAAAAAAAAAAAAAAPwAAAAAAAAAA
        AAAAAAAAAD8AAAAAAAAAAAAAAAAAAAA/AAAAAAAAAAAAAAAAAAAAPwAAAAAAAAAAAAAAAAAAAD8AAAAAAAAAAAAAAAAAAAA/AAAAAAAAAAAAAAAAvvR9PgAAAD8AAAA/
        AAAAPwAAAAAAAAAAiYiIPQAAAD8AAAAAAAAAAAAAAAAAAAA/AAAAAAAAAAAAAAAAAAAAPwAAAAAAAAAAAAAAAAAAAD8AAAAAAAAAAAAAAAAAAAA/AAAAAAAAAAAAAAAA
        AAAAPwAAAAAAAAAAAAAAAAAAAD8AAAAAAAAAAAAAAAAAAAA/AAAAAAAAAAAAAAAAAAAAPwAAAAAAAAAAAAAAAAAAAD8AAAAAAAAAAAAAAAAAAAA/AAAAAAAAAAAAAAAA
        AAAAPwAAAAAAAAAAAAAAAAAAAD8AAAAAAAAAAAAAAAAAAAA/AAAAAAAAAAAAAAAAAAAAPwAAAAAAAAAAAAAAAAAAAD8AAAAAAAAAAAAAAAC+9H0+AAAAPwAAAD8AAAA/
        AAAAAAAAAACJiIg9AAAAPwAAAAAAAAAAAAAAAAAAAD8AAAAAAAAAAAAAAAAAAAA/AAAAAAAAAAAAAAAAAAAAPwAAAAAAAAAAAAAAAAAAAD8AAAAAAAAAAAAAAAAAAAA/
        AAAAAAAAAAAAAAAAAAAAPwAAAAAAAAAAAAAAAAAAAD8AAAAAAAAAAAAAAAAAAAA/AAAAAAAAAAAAAAAAAAAAPwAAAAAAAAAAAAAAAAAAAD8AAAAAAAAAAAAAAAAAAAA/
        AAAAAAAAAAAAAAAAAAAAPwAAAAAAAAAAAAAAAAAAAD8AAAAAAAAAAAAAAAAAAAA/AAAAAAAAAAAAAAAAAAAAPwAAAAAAAAAAAAAAAL70fT4AAAA/AAAAPwAAAD8AAAAA
        AAAAAImIiD0AAAA/AAAAAAAAAAAAAAAAAAAAPwAAAAAAAAAAAAAAAAAAAD8AAAAAAAAAAAAAAAAAAAA/AAAAAAAAAAAAAAAAAAAAPwAAAAAAAAAAAAAAAAAAAD8AAAAA
        AAAAAAAAAAAAAAA/AAAAAAAAAAAAAAAAAAAAPwAAAAAAAAAAAAAAAAAAAD8AAAAAAAAAAAAAAAAAAAA/AAAAAAAAAAAAAAAAAAAAPwAAAAAAAAAAAAAAAAAAAD8AAAAA
        AAAAAAAAAAAAAAA/AAAAAAAAAAAAAAAAAAAAPwAAAAAAAAAAAAAAAAAAAD8AAAAAAAAAAAAAAAAAAAA/AAAAAAAAAAAAAAAAvvR9PgAAAD8AAAA/AAAAPwAAAAAAAAAA
        iYiIPQAAAD8AAAAAAAAAAAAAAAAAAAA/AAAAAAAAAAAAAAAAAAAAPwAAAAAAAAAAAAAAAAAAAD8AAAAAAAAAAAAAAAAAAAA/AAAAAAAAAAAAAAAAAAAAPwAAAAAAAAAA
        AAAAAAAAAD8AAAAAAAAAAAAAAAAAAAA/AAAAAAAAAAAAAAAAAAAAPwAAAAAAAAAAAAAAAAAAAD8AAAAAAAAAAAAAAAAAAAA/AAAAAAAAAAAAAAAAAAAAPwAAAAAAAAAA
        AAAAAAAAAD8AAAAAAAAAAAAAAAAAAAA/AAAAAAAAAAAAAAAAAAAAPwAAAAAAAAAAAAAAAAAAAD8AAAAAAAAAAAAAAAAAAAAAmpmZPgAAAAAAAAAAAAAAAAAAgD8AAAAA
        mpmZPgAAAAAAAAAAAAAAAAAAgD8AAAAAmpmZPgAAAAAAAAAAAAAAAAAAgD8AAAAAmpmZPgAAAAAAAAAAAAAAAAAAgD8AAAAAmpmZPgAAAAAAAAAAAAAAAAAAgD8AAAAA
        mpmZPgAAAAAAAAAAAAAAAAAAgD8AAAAAAAAAAAAAAAAAAAAAAAAAAAAAAAAAAAAAAAAAAAAAAAAAAAAAAAAAAAAAAAAAAAAAAAAAAAAAAAAAAAAAAAAAAAAAAAAAAAAA
        AAAAAAAAAAAAAAAAAAAAAAAAAAAAAAAAAAAAAAAAAAAAAAAAAAAAAAAAAAAAAAAAAAAAAAAAAAAAAAAAAAAAAAAAAAAAAAAAAAAAAKuqKj3ZiZ09gShWPgAAAAAAAAAA
        v+eWPQAAAAAAAAA/AAAAAAAAAAAAAAAAAAAAAAAAAD8AAAAAAAAAAAAAAAAAAAAAAAAAPwAAAAAAAAAAAAAAAAAAAAAAAAAAAAAAAAAAAAAAAAAAAAAAAAAAAAAAAAAA
        AAAAAAAAAAAAAAAAAAAAAAAAAAAAAAAAAAAAAAAAAAAAAAAAAAAAAAAAAAAAAAAAAAAAAAAAAAAAAAAAAAAAAAAAAAAAAAAAAAAAAAAAAAAAAAAAAAAAAAAAAAAAAAAA
        AAAAAAAAAAAAAAAAAAAAAAAAAAAAAAAAAAAAAAAAAAAAAAAAAAAAAAAAAAAAAAAAAAAAAAAAAAAAAAAAAAAAAAAAAAAAAAAAAAAAAAAAAAAAAAAAAAAAAAAAAAAAAAAA
        AAAAAAAAAAAAAAAAAAAAAAAAAAAAAAAAAAAAAAAAAAAAAAAAAAAAAAAAAAAAAAAAAAAAAAAAAAAAAAAAAAAAAAAAAAAAAAAAAAAAAAAAAAAAAAAAAAAAAAAAAAAAAAAA
        AAAAAAAAAAAAAAAAAAAAAAAAAAAAAAAAAAAAAAAAAAAAAAAAAAAAAAAAAAAAAAAAAAAAAAAAAAAAAAAAAAAAAAAAAAAAAAAAAAAAAAAAAAAAAAAAAAAAPwAAAD8AAAA/
        AAAAPwAAAD8AAAA/AAAAPwAAAD8AAAAAAAAAAAAAAAAAAAAAAAAAAAAAAAAAAAAAAAAAAAAAAAAAAAAAAAAAAAAAAAAAAAAAAAAAAAAAAAAAAAAAAAAAAAAAAAAAAAAA
        AAAAAAAAAAAAAAAAAAAAAAAAAAAAAAAAAAAAAAAAAAAAAAAAAAAAAAAAAAAAAAAAAAAAAAAAAAAAAAAAAAAAAAAAAAAAAAAAAAAAAAAAAAAAAAAAAAAAAAAAAAAAAAAA
        AAAAAAAAAAAAAAAAAAAAAAAAAAAAAAAAAAAAAAAAAAAAAAAAAAAAAAAAAAAAAAAAAAAAAAAAAAAAAAAAAAAAAAAAAAAAAAAAAAAAAAAAAAAAAAAAAAAAAAAAAAAAAAAA
        AAAAAAAAAAAAAAAAAAAAAAAAAAAAAAAAAAAAAAAAAAAAAAAAAAAAAAAAAAAAAAAAAAAAAAAAAAAAAAAA
        Q2hpcEZyb250AENoaXBGcm9udAAQAAAA
      >
      PRESETNAME ChipFront
      FLOATPOS 36 32 641 529
      FXID {4C5A6810-F3ED-0645-A06D-6758F70CB097}
      WAK 0
    >
  >
  <TRACK {1B564899-9ACC-8C4B-8FBF-925A5A247A13}
    NAME ChipSide
    PEAKCOL 16576
    BEAT -1
    AUTOMODE 0
    VOLPAN 0.6851311761969 0.046 -1 -1 1
    MUTESOLO 0 0 0
    IPHASE 0
    ISBUS 0 0
    BUSCOMP 0 0
    SHOWINMIX 1 0.6667 0.5 1 0.5 0 0 0
    FREEMODE 0
    SEL 0
    REC 0 0 0 0 0 0 0
    VU 2
    TRACKHEIGHT 0 0
    INQ 0 0 0 0.5 100 0 0 100
    NCHAN 2
    FX 1
    TRACKID {1B564899-9ACC-8C4B-8FBF-925A5A247A13}
    PERF 0
    AUXRECV 8 0 1.03113579563571 0 0 0 0 2 0 -1:U 0 -1 ''
    MIDIOUT -1
    MAINSEND 1 0
    <FXCHAIN
      SHOW 0
      LASTSEL 0
      DOCKED 0
      BYPASS 0 0 0
      <VST "VST: FabFilter Volcano 2 (SC) (FabFilter)" "FabFilter Volcano 2 (SC).vst" 0 "" 1180054068
        NDJWRu9e7f4EAAAAAQAAAAAAAAACAAAAAAAAAAQAAAAAAAAACAAAAAAAAAAIAAAAAQAAAAAAAAACAAAAAAAAAAQAAAAAAAAACAAAAAAAAAAQAAAAAAAAACAAAAAAAAAA
        QAAAAAAAAACAAAAAAAAAANwLAAAAAAAAAAAQAA==
        776t3g3wrd4AAAA/AAAAPwAAAD8AAAA/AACAPwAAAAAAAIA/q6qqPsplFD8AAAA/TxqgPc3MzD0AAAAAAAAAAEKGIj8AAIA/AACAP0Isdj8AAAA/bbDgPZqZGT8AAAAA
        AAAAAOev3zwAAIA/AAAAAAAAgD8AAAA/AAAAAJqZGT8AAAAAAAAAAAAAAAAAAIA/AAAAAAAAgD8AAAA/AAAAAJqZGT8AAAAAAAAAAAAAAAAAAIA/AAAAAKuqqj6CdAA9
        EObJPZgn+j4AAIA/AAAAAAAAAACJiAg+AACAP7PDtD4AAIA/AAAAAAAAAAAAAAAAq6qqPgAAAACeFR0/AAAAAAAAgD8AAAAAAAAAPwAAAAAAAAAAAAAAAAAAAD8AAAAA
        AAAAAAAAAAAAAAA/AAAAAAAAAAAAAAAAAAAAPwAAAAAAAAAAAAAAAAAAAD8AAAAAAAAAAAAAAAAAAAA/AAAAAAAAAAAAAAAAAAAAPwAAAAAAAAAAAAAAAAAAAD8AAAAA
        AAAAAAAAAAAAAAA/AAAAAAAAAAAAAAAAAAAAPwAAAAAAAAAAAAAAAAAAAD8AAAAAAAAAAAAAAAAAAAA/AAAAAAAAAAAAAAAAAAAAPwAAAAAAAAAAAAAAAHwZED4AAAA/
        KKO3PQAAgD8AAAAAAAAAAImIiD3y0iU/AAAAAAAAgD8AAAAAdGjRPQAAAAAAAIA/AAAAAAAAAD8AAAAAAAAAAAAAAAAAAAA/AAAAAAAAAAAAAAAAAAAAPwAAAAAAAAAA
        AAAAAAAAAD8AAAAAAAAAAAAAAAAAAAA/AAAAAAAAAAAAAAAAAAAAPwAAAAAAAAAAAAAAAAAAAD8AAAAAAAAAAAAAAAAAAAA/AAAAAAAAAAAAAAAAAAAAPwAAAAAAAAAA
        AAAAAAAAAD8AAAAAAAAAAAAAAAAAAAA/AAAAAAAAAAAAAAAAAAAAPwAAAAAAAAAAAAAAAAAAAD8AAAAAAAAAAAAAAAAAAAA/AAAAAAAAAAAAAAAAvvR9PgAAAD8AAAA/
        AAAAPwAAAAAAAAAAiYiIPQAAAD8AAAAAAAAAAAAAAAAAAAA/AAAAAAAAAAAAAAAAAAAAPwAAAAAAAAAAAAAAAAAAAD8AAAAAAAAAAAAAAAAAAAA/AAAAAAAAAAAAAAAA
        AAAAPwAAAAAAAAAAAAAAAAAAAD8AAAAAAAAAAAAAAAAAAAA/AAAAAAAAAAAAAAAAAAAAPwAAAAAAAAAAAAAAAAAAAD8AAAAAAAAAAAAAAAAAAAA/AAAAAAAAAAAAAAAA
        AAAAPwAAAAAAAAAAAAAAAAAAAD8AAAAAAAAAAAAAAAAAAAA/AAAAAAAAAAAAAAAAAAAAPwAAAAAAAAAAAAAAAAAAAD8AAAAAAAAAAAAAAAC+9H0+AAAAPwAAAD8AAAA/
        AAAAAAAAAACJiIg9AAAAPwAAAAAAAAAAAAAAAAAAAD8AAAAAAAAAAAAAAAAAAAA/AAAAAAAAAAAAAAAAAAAAPwAAAAAAAAAAAAAAAAAAAD8AAAAAAAAAAAAAAAAAAAA/
        AAAAAAAAAAAAAAAAAAAAPwAAAAAAAAAAAAAAAAAAAD8AAAAAAAAAAAAAAAAAAAA/AAAAAAAAAAAAAAAAAAAAPwAAAAAAAAAAAAAAAAAAAD8AAAAAAAAAAAAAAAAAAAA/
        AAAAAAAAAAAAAAAAAAAAPwAAAAAAAAAAAAAAAAAAAD8AAAAAAAAAAAAAAAAAAAA/AAAAAAAAAAAAAAAAAAAAPwAAAAAAAAAAAAAAAL70fT4AAAA/AAAAPwAAAD8AAAAA
        AAAAAImIiD0AAAA/AAAAAAAAAAAAAAAAAAAAPwAAAAAAAAAAAAAAAAAAAD8AAAAAAAAAAAAAAAAAAAA/AAAAAAAAAAAAAAAAAAAAPwAAAAAAAAAAAAAAAAAAAD8AAAAA
        AAAAAAAAAAAAAAA/AAAAAAAAAAAAAAAAAAAAPwAAAAAAAAAAAAAAAAAAAD8AAAAAAAAAAAAAAAAAAAA/AAAAAAAAAAAAAAAAAAAAPwAAAAAAAAAAAAAAAAAAAD8AAAAA
        AAAAAAAAAAAAAAA/AAAAAAAAAAAAAAAAAAAAPwAAAAAAAAAAAAAAAAAAAD8AAAAAAAAAAAAAAAAAAAA/AAAAAAAAAAAAAAAAvvR9PgAAAD8AAAA/AAAAPwAAAAAAAAAA
        iYiIPQAAAD8AAAAAAAAAAAAAAAAAAAA/AAAAAAAAAAAAAAAAAAAAPwAAAAAAAAAAAAAAAAAAAD8AAAAAAAAAAAAAAAAAAAA/AAAAAAAAAAAAAAAAAAAAPwAAAAAAAAAA
        AAAAAAAAAD8AAAAAAAAAAAAAAAAAAAA/AAAAAAAAAAAAAAAAAAAAPwAAAAAAAAAAAAAAAAAAAD8AAAAAAAAAAAAAAAAAAAA/AAAAAAAAAAAAAAAAAAAAPwAAAAAAAAAA
        AAAAAAAAAD8AAAAAAAAAAAAAAAAAAAA/AAAAAAAAAAAAAAAAAAAAPwAAAAAAAAAAAAAAAAAAAD8AAAAAAAAAAAAAAAAAAAAAmpmZPgAAAAAAAAAAAAAAAAAAgD8AAAAA
        mpmZPgAAAAAAAAAAAAAAAAAAgD8AAAAAmpmZPgAAAAAAAAAAAAAAAAAAgD8AAAAAmpmZPgAAAAAAAAAAAAAAAAAAgD8AAAAAmpmZPgAAAAAAAAAAAAAAAAAAgD8AAAAA
        mpmZPgAAAAAAAAAAAAAAAAAAgD8AAAAAAAAAAAAAAAAAAAAAAAAAAAAAAAAAAAAAAAAAAAAAAAAAAAAAAAAAAAAAAAAAAAAAAAAAAAAAAAAAAAAAAAAAAAAAAAAAAAAA
        AAAAAAAAAAAAAAAAAAAAAAAAAAAAAAAAAAAAAAAAAAAAAAAAAAAAAAAAAAAAAAAAAAAAAAAAAAAAAAAAAAAAAAAAAAAAAAAAAAAAAKuqqj3ZiZ09gShWPgAAgD8AAAAA
        v+eWPdmJHT0WszE/AAAAAAAAAACSdiw8AAAAAAAAAD8AAAAAAAAAAAAAAAAAAAAAAAAAPwAAAAAAAAAAAAAAAAAAAAAAAAAAAAAAAAAAAAAAAAAAAAAAAAAAAAAAAAAA
        AAAAAAAAAAAAAAAAAAAAAAAAAAAAAAAAAAAAAAAAAAAAAAAAAAAAAAAAAAAAAAAAAAAAAAAAAAAAAAAAAAAAAAAAAAAAAAAAAAAAAAAAAAAAAAAAAAAAAAAAAAAAAAAA
        AAAAAAAAAAAAAAAAAAAAAAAAAAAAAAAAAAAAAAAAAAAAAAAAAAAAAAAAAAAAAAAAAAAAAAAAAAAAAAAAAAAAAAAAAAAAAAAAAAAAAAAAAAAAAAAAAAAAAAAAAAAAAAAA
        AAAAAAAAAAAAAAAAAAAAAAAAAAAAAAAAAAAAAAAAAAAAAAAAAAAAAAAAAAAAAAAAAAAAAAAAAAAAAAAAAAAAAAAAAAAAAAAAAAAAAAAAAAAAAAAAAAAAAAAAAAAAAAAA
        AAAAAAAAAAAAAAAAAAAAAAAAAAAAAAAAAAAAAAAAAAAAAAAAAAAAAAAAAAAAAAAAAAAAAAAAAAAAAAAAAAAAAAAAAAAAAAAAAAAAAAAAAAAAAAAAAAAAPwAAAD8AAAA/
        AAAAPwAAAD8AAAA/AAAAPwAAAD8AAAAAAAAAAAAAAAAAAAAAAAAAAAAAAAAAAAAAAAAAAAAAAAAAAAAAAAAAAAAAAAAAAAAAAAAAAAAAAAAAAAAAAAAAAAAAAAAAAAAA
        AAAAAAAAAAAAAAAAAAAAAAAAAAAAAAAAAAAAAAAAAAAAAAAAAAAAAAAAAAAAAAAAAAAAAAAAAAAAAAAAAAAAAAAAAAAAAAAAAAAAAAAAAAAAAAAAAAAAAAAAAAAAAAAA
        AAAAAAAAAAAAAAAAAAAAAAAAAAAAAAAAAAAAAAAAAAAAAAAAAAAAAAAAAAAAAAAAAAAAAAAAAAAAAAAAAAAAAAAAAAAAAAAAAAAAAAAAAAAAAAAAAAAAAAAAAAAAAAAA
        AAAAAAAAAAAAAAAAAAAAAAAAAAAAAAAAAAAAAAAAAAAAAAAAAAAAAAAAAAAAAAAAAAAAAAAAAAAAAAAA
        Q2hpcFNpZGUAQ2hpcFNpZGUAEAAAAA==
      >
      PRESETNAME ChipSide
      FLOATPOS 36 32 641 529
      FXID {20356A84-5CFD-6E4A-AA26-2A8A49CE7A76}
      WAK 0
    >
  >
  <EXTENSIONS
    <SWSAUTOCOLOR
      {00000000-0000-0000-0000-000000000000} 0 "" "" ""
      {F4CC3575-1D7D-424F-8F4B-C71B325A2484} 0 "" "" ""
    >
    <BR_CURSOR_POS 04
      0.00000000000000
    >
    <S&M_PROJNOTES
      |vst Gladiator <-- See Changes !!
    >
  >
>
