<REAPER_PROJECT 0.1 "5.65pre18/OSX64" 1512237108
  <NOTES 0
    |vst Gladiator <-- See Changes !!
  >
  RIPPLE 0
  GROUPOVERRIDE 0 0 0
  AUTOXFADE 0
  ENVATTACH 1
  POOLEDENVATTACH 0
  MIXERUIFLAGS 11 53
  PEAKGAIN 1
  FEEDBACK 0
  PANLAW 1
  PROJOFFS 0 0
  MAXPROJLEN 0 600
  GRID 174206 8 1 8 1 0 0 0
  TIMEMODE 6 0 -1 24 2
  PANMODE 3
  CURSOR 0
  ZOOM 8.33979782667089 0 0
  VZOOMEX 0
  USE_REC_CFG 0
  RECMODE 1
  SMPTESYNC 0 23.976024 100 40 1000 300 0 0 1 0 0
  MIDIEDITOR -171672382 0 0
  LOOP 1
  LOOPGRAN 0 4
  RECORD_PATH "" ""
  <RECORD_CFG
    ZXZhdxAAAA==
  >
  <APPLYFX_CFG
  >
  RENDER_FILE "/Users/samenglander/_dev/colorflags/anthems/unitedarabemirates_1.mp3"
  RENDER_FMT 0 2 44100
  RENDER_1X 0
  RENDER_RANGE 2 0 0 18 1000
  RENDER_RESAMPLE 3 0 1
  RENDER_ADDTOPROJ 0
  RENDER_STEMS 0
  RENDER_DITHER 0
  TIMELOCKMODE 1
  TEMPOENVLOCKMODE 1
  ITEMMIX 1
  DEFPITCHMODE 589824
  TAKELANE 3
  SAMPLERATE 44100 0 0
  <RENDER_CFG
    bDNwbSAAAAABAAAABQAAAAAAAAAAAAAAQAEAAAAAAAA=
  >
  LOCK 1
  <METRONOME 6 2
    VOL 0.25 0.125
    FREQ 800 1600 1
    BEATLEN 4
    SAMPLES "" ""
    PATTERN 2863311530 2863311529
  >
  GLOBAL_AUTO -1
  TEMPO 120 4 4
  PLAYRATE 1 0 0.25 4
  SELECTION 32 0
  SELECTION2 32 0
  MASTERAUTOMODE 0
  MASTERTRACKHEIGHT 0
  MASTERPEAKCOL 16576
  MASTERMUTESOLO 0
  MASTERTRACKVIEW 0 0.6667 0.464368 0.5 0 0 0
  MASTERHWOUT 0 0 1 0 0 0 0 -1
  MASTER_NCH 2 2
  MASTER_VOLUME 1 0 -1 -1 1
  MASTER_FX 1
  MASTER_SEL 0
  <MASTERPLAYSPEEDENV
    ACT 0 -1
    VIS 0 1 1
    LANEHEIGHT 0 0
    ARM 0
    DEFSHAPE 0 -1 -1
  >
  <TEMPOENVEX
    ACT 0 -1
    VIS 1 0 1
    LANEHEIGHT 0 0
    ARM 0
    DEFSHAPE 1 -1 -1
  >
  <PROJBAY
  >
  <TRACK {F4CC3575-1D7D-424F-8F4B-C71B325A2484}
    NAME midi
    PEAKCOL 16576
    BEAT -1
    AUTOMODE 0
    VOLPAN 1 0 -1 -1 1
    MUTESOLO 1 0 0
    IPHASE 0
    ISBUS 0 0
    BUSCOMP 0 0
    SHOWINMIX 1 0.6667 0.464368 1 0.5 0 0 0
    FREEMODE 0
    SEL 0
    REC 0 0 0 0 0 0 0
    VU 2
    TRACKHEIGHT 25 0
    INQ 0 0 0 0.5 100 0 0 100
    NCHAN 2
    FX 1
    TRACKID {F4CC3575-1D7D-424F-8F4B-C71B325A2484}
    PERF 0
    MIDIOUT -1
    MAINSEND 1 0
    <FXCHAIN
      SHOW 0
      LASTSEL 0
      DOCKED 0
    >
    <ITEM
      POSITION 0
      SNAPOFFS 0
      LENGTH 47.5
      LOOP 1
      ALLTAKES 0
      FADEIN 1 0 0 1 0 0
      FADEOUT 1 0 0 1 0 0
      MUTE 0
      SEL 0
      YPOS 0.5 0.166667
      IGUID {21F4B364-8CD7-1F4D-B560-55F9439FFF04}
      IID 4
      NAME "MELODY               - National_Anthems_-_United_Arab_Emirates.mid"
      VOLPAN 1 0 1 -1
      SOFFS 0 0
      PLAYRATE 1 1 0 -1 0 0.0025
      CHANMODE 0
      GUID {6DB9B0C3-6CF5-1B44-A3E2-A5413F3F2BAA}
      <SOURCE MIDI
        HASDATA 1 192 QN
        POOLEDEVTS {93A9B59A-5366-F348-8BD5-17AA54194368}
        <X 0 0 0 0 3 "MELODY              "
          /wNNRUxPRFkgICAgICAgICAgICAgIA==
        >
        e 0 90 48 7f
        e 176 80 48 40
        e 16 90 4d 7f
        e 128 80 4d 40
        e 16 90 4c 7f
        e 32 80 4c 40
        e 16 90 4d 7f
        e 176 80 4d 40
        e 16 90 48 7f
        e 176 80 48 40
        e 16 90 4d 7f
        e 176 80 4d 40
        e 16 90 4f 7f
        e 80 80 4f 40
        e 16 90 51 7f
        e 80 80 51 40
        e 16 90 51 7f
        e 176 80 51 40
        e 16 90 4f 7f
        e 80 80 4f 40
        e 16 90 4d 7f
        e 80 80 4d 40
        e 16 90 4c 7f
        e 176 80 4c 40
        e 16 90 4d 7f
        e 80 80 4d 40
        e 16 90 4f 7f
        e 80 80 4f 40
        e 16 90 4f 7f
        e 368 80 4f 40
        e 16 90 4f 7f
        e 176 80 4f 40
        e 16 90 4f 7f
        e 128 80 4f 40
        e 16 90 4f 7f
        e 32 80 4f 40
        e 16 90 4f 7f
        e 176 80 4f 40
        e 16 90 48 7f
        e 176 80 48 40
        e 16 90 4f 7f
        e 128 80 4f 40
        e 16 90 4e 7f
        e 32 80 4e 40
        e 16 90 4f 7f
        e 80 80 4f 40
        e 16 90 51 7f
        e 80 80 51 40
        e 16 90 52 7f
        e 176 80 52 40
        e 16 90 4f 7f
        e 176 80 4f 40
        e 16 90 51 7f
        e 128 80 51 40
        e 16 90 4f 7f
        e 32 80 4f 40
        e 16 90 51 7f
        e 80 80 51 40
        e 16 90 52 7f
        e 80 80 52 40
        e 16 90 54 7f
        e 176 80 54 40
        e 16 90 4d 7f
        e 176 80 4d 40
        e 16 90 4f 7f
        e 176 80 4f 40
        e 16 90 52 7f
        e 176 80 52 40
        e 16 90 51 7f
        e 128 80 51 40
        e 16 90 4f 7f
        e 32 80 4f 40
        e 16 90 4a 7f
        e 80 80 4a 40
        e 16 90 4c 7f
        e 80 80 4c 40
        e 16 90 4d 7f
        e 176 80 4d 40
        e 16 90 4d 7f
        e 128 80 4d 40
        e 16 90 4d 7f
        e 32 80 4d 40
        e 16 90 4d 7f
        e 176 80 4d 40
        e 208 90 4d 7f
        e 176 80 4d 40
        e 16 90 4d 7f
        e 128 80 4d 40
        e 16 90 4c 7f
        e 32 80 4c 40
        e 16 90 4a 7f
        e 176 80 4a 40
        e 16 90 4a 7f
        e 128 80 4a 40
        e 16 90 48 7f
        e 32 80 48 40
        e 16 90 46 7f
        e 176 80 46 40
        e 16 90 46 7f
        e 128 80 46 40
        e 16 90 45 7f
        e 32 80 45 40
        e 16 90 43 7f
        e 80 80 43 40
        e 304 90 4c 7f
        e 176 80 4c 40
        e 16 90 4c 7f
        e 128 80 4c 40
        e 16 90 4a 7f
        e 32 80 4a 40
        e 16 90 48 7f
        e 176 80 48 40
        e 16 90 48 7f
        e 128 80 48 40
        e 16 90 46 7f
        e 32 80 46 40
        e 16 90 45 7f
        e 176 80 45 40
        e 16 90 45 7f
        e 128 80 45 40
        e 16 90 43 7f
        e 32 80 43 40
        e 16 90 41 7f
        e 320 80 41 40
        e 16 90 4d 7f
        e 32 80 4d 40
        e 16 90 4f 7f
        e 176 80 4f 40
        e 16 90 51 7f
        e 176 80 51 40
        e 16 90 52 7f
        e 176 80 52 40
        e 16 90 4f 7f
        e 176 80 4f 40
        e 16 90 51 7f
        e 176 80 51 40
        e 16 90 52 7f
        e 176 80 52 40
        e 16 90 54 7f
        e 176 80 54 40
        e 16 90 56 7f
        e 176 80 56 40
        e 16 90 4c 7f
        e 80 80 4c 40
        e 16 90 48 7f
        e 80 80 48 40
        e 16 90 4a 7f
        e 80 80 4a 40
        e 16 90 4d 7f
        e 80 80 4d 40
        e 16 90 4c 7f
        e 80 80 4c 40
        e 16 90 48 7f
        e 80 80 48 40
        e 16 90 4a 7f
        e 80 80 4a 40
        e 16 90 4c 7f
        e 80 80 4c 40
        e 16 90 4d 7f
        e 752 80 4d 40
        e 16 90 48 7f
        e 176 80 48 40
        e 16 90 4d 7f
        e 128 80 4d 40
        e 16 90 4c 7f
        e 32 80 4c 40
        e 16 90 4d 7f
        e 176 80 4d 40
        e 16 90 48 7f
        e 176 80 48 40
        e 16 90 4d 7f
        e 176 80 4d 40
        e 16 90 4f 7f
        e 80 80 4f 40
        e 16 90 51 7f
        e 80 80 51 40
        e 16 90 51 7f
        e 176 80 51 40
        e 16 90 4f 7f
        e 80 80 4f 40
        e 16 90 4d 7f
        e 80 80 4d 40
        e 16 90 4c 7f
        e 176 80 4c 40
        e 16 90 4d 7f
        e 80 80 4d 40
        e 16 90 4f 7f
        e 80 80 4f 40
        e 16 90 4f 7f
        e 368 80 4f 40
        e 16 90 4f 7f
        e 176 80 4f 40
        e 16 90 4f 7f
        e 128 80 4f 40
        e 16 90 4f 7f
        e 32 80 4f 40
        e 16 90 4f 7f
        e 176 80 4f 40
        e 16 90 48 7f
        e 176 80 48 40
        e 16 90 4f 7f
        e 128 80 4f 40
        e 16 90 4e 7f
        e 32 80 4e 40
        e 16 90 4f 7f
        e 80 80 4f 40
        e 16 90 51 7f
        e 80 80 51 40
        e 16 90 52 7f
        e 176 80 52 40
        e 16 90 4f 7f
        e 176 80 4f 40
        e 16 90 51 7f
        e 128 80 51 40
        e 16 90 4f 7f
        e 32 80 4f 40
        e 16 90 51 7f
        e 80 80 51 40
        e 16 90 52 7f
        e 80 80 52 40
        e 16 90 54 7f
        e 176 80 54 40
        e 16 90 4d 7f
        e 176 80 4d 40
        e 16 90 4f 7f
        e 176 80 4f 40
        e 16 90 52 7f
        e 176 80 52 40
        e 16 90 51 7f
        e 80 80 51 40
        e 16 90 4f 7f
        e 80 80 4f 40
        e 16 90 4a 7f
        e 80 80 4a 40
        e 16 90 4c 7f
        e 80 80 4c 40
        e 16 90 4d 7f
        e 176 80 4d 40
        e 16 90 4d 7f
        e 128 80 4d 40
        e 16 90 4d 7f
        e 32 80 4d 40
        e 16 90 4d 7f
        e 176 80 4d 40
        E 16 b0 7b 00
        GUID {847F49D6-DCEA-384E-AC99-FC02E6095550}
        IGNTEMPO 0 120 4 4
        SRCCOLOR 202
        VELLANE -1 86 6
        CFGEDITVIEW 2231.783081 389.410354 58 17 0 0 0 0 0 0.5
        KEYSNAP 0
        TRACKSEL 252
        EVTFILTER 0 -1 -1 -1 -1 0 0 0 0 -1 -1 -1 -1 0 -1 0 -1 -1
        CFGEDIT 1 0 0 0 0 0 1 0 1 1 1 0.25 269 4 1280 633 0 0 2 3 0 0 0 0 0 0.5 0 0 1 64
      >
    >
    <ITEM
      POSITION 0
      SNAPOFFS 0
      LENGTH 47.5
      LOOP 1
      ALLTAKES 0
      FADEIN 1 0 0 1 0 0
      FADEOUT 1 0 0 1 0 0
      MUTE 0
      SEL 0
      YPOS 0.333333 0.166667
      IGUID {0E0711A8-B0EA-D042-851A-BA5A7C78BCE4}
      IID 3
      NAME "BASS                 - National_Anthems_-_United_Arab_Emirates.mid"
      VOLPAN 1 0 1 -1
      SOFFS 0 0
      PLAYRATE 1 1 0 -1 0 0.0025
      CHANMODE 0
      GUID {8DC01527-C4BB-7047-A27B-A30FA77CF682}
      <SOURCE MIDI
        HASDATA 1 192 QN
        POOLEDEVTS {6703D87B-19AE-F24A-A067-4041A1A6F331}
        <X 0 0 0 0 3 "BASS                "
          /wNCQVNTICAgICAgICAgICAgICAgIA==
        >
        e 0 93 29 7f
        e 176 83 29 40
        e 16 93 35 7f
        e 176 83 35 40
        e 16 93 29 7f
        e 176 83 29 40
        e 16 93 2e 7f
        e 176 83 2e 40
        e 16 93 2d 7f
        e 176 83 2d 40
        e 16 93 2b 7f
        e 176 83 2b 40
        e 16 93 29 7f
        e 176 83 29 40
        e 16 93 2b 7f
        e 80 83 2b 40
        e 16 93 24 7f
        e 80 83 24 40
        e 16 93 24 7f
        e 176 83 24 40
        e 16 93 30 7f
        e 176 83 30 40
        e 16 93 24 7f
        e 176 83 24 40
        e 16 93 30 7f
        e 176 83 30 40
        e 16 93 34 7f
        e 176 83 34 40
        e 16 93 30 7f
        e 176 83 30 40
        e 16 93 2e 7f
        e 80 83 2e 40
        e 16 93 30 7f
        e 80 83 30 40
        e 16 93 34 7f
        e 80 83 34 40
        e 16 93 37 7f
        e 80 83 37 40
        e 16 93 30 7f
        e 464 83 30 40
        e 16 93 24 7f
        e 80 83 24 40
        e 16 93 28 7f
        e 80 83 28 40
        e 16 93 2b 7f
        e 80 83 2b 40
        e 16 93 29 7f
        e 464 83 29 40
        e 16 93 30 7f
        e 80 83 30 40
        e 16 93 2d 7f
        e 80 83 2d 40
        e 16 93 29 7f
        e 80 83 29 40
        e 16 93 24 7f
        e 176 83 24 40
        e 16 93 30 7f
        e 176 83 30 40
        e 16 93 28 7f
        e 176 83 28 40
        e 16 93 34 7f
        e 176 83 34 40
        e 16 93 29 7f
        e 176 83 29 40
        e 16 93 35 7f
        e 176 83 35 40
        e 16 93 35 7f
        e 176 83 35 40
        e 208 93 35 7f
        e 272 83 35 40
        e 112 93 2e 7f
        e 272 83 2e 40
        e 112 93 34 7f
        e 272 83 34 40
        e 112 93 30 7f
        e 272 83 30 40
        e 112 93 24 7f
        e 176 83 24 40
        e 16 93 30 7f
        e 176 83 30 40
        e 16 93 24 7f
        e 176 83 24 40
        e 208 93 29 7f
        e 176 83 29 40
        e 16 93 35 7f
        e 176 83 35 40
        e 16 93 29 7f
        e 176 83 29 40
        e 208 93 2b 7f
        e 176 83 2b 40
        e 16 93 29 7f
        e 176 83 29 40
        e 16 93 28 7f
        e 176 83 28 40
        e 16 93 24 7f
        e 176 83 24 40
        e 16 93 29 7f
        e 176 83 29 40
        e 16 93 2b 7f
        e 176 83 2b 40
        e 16 93 2d 7f
        e 176 83 2d 40
        e 16 93 2e 7f
        e 176 83 2e 40
        e 16 93 30 7f
        e 272 83 30 40
        e 16 93 32 7f
        e 80 83 32 40
        e 16 93 30 7f
        e 80 83 30 40
        e 16 93 2e 7f
        e 80 83 2e 40
        e 16 93 2d 7f
        e 80 83 2d 40
        e 16 93 2b 7f
        e 80 83 2b 40
        e 16 93 29 7f
        e 80 83 29 40
        e 16 93 29 7f
        e 80 83 29 40
        e 16 93 28 7f
        e 80 83 28 40
        e 16 93 26 7f
        e 80 83 26 40
        e 16 93 24 7f
        e 80 83 24 40
        e 16 93 2e 7f
        e 80 83 2e 40
        e 16 93 2d 7f
        e 80 83 2d 40
        e 16 93 2b 7f
        e 80 83 2b 40
        e 16 93 29 7f
        e 176 83 29 40
        e 16 93 37 7f
        e 176 83 37 40
        e 16 93 35 7f
        e 176 83 35 40
        e 16 93 2e 7f
        e 176 83 2e 40
        e 16 93 2d 7f
        e 176 83 2d 40
        e 16 93 2b 7f
        e 176 83 2b 40
        e 16 93 29 7f
        e 176 83 29 40
        e 16 93 2b 7f
        e 80 83 2b 40
        e 16 93 2d 7f
        e 80 83 2d 40
        e 16 93 30 7f
        e 176 83 30 40
        e 16 93 30 7f
        e 80 83 30 40
        e 16 93 30 7f
        e 80 83 30 40
        e 16 93 2e 7f
        e 80 83 2e 40
        e 16 93 24 7f
        e 80 83 24 40
        e 16 93 28 7f
        e 80 83 28 40
        e 16 93 2b 7f
        e 80 83 2b 40
        e 16 93 2e 7f
        e 80 83 2e 40
        e 16 93 2d 7f
        e 80 83 2d 40
        e 16 93 2b 7f
        e 80 83 2b 40
        e 16 93 29 7f
        e 80 83 29 40
        e 16 93 2e 7f
        e 80 83 2e 40
        e 16 93 30 7f
        e 80 83 30 40
        e 16 93 34 7f
        e 80 83 34 40
        e 16 93 37 7f
        e 80 83 37 40
        e 16 93 30 7f
        e 464 83 30 40
        e 16 93 24 7f
        e 80 83 24 40
        e 16 93 28 7f
        e 80 83 28 40
        e 16 93 2b 7f
        e 80 83 2b 40
        e 16 93 29 7f
        e 464 83 29 40
        e 16 93 30 7f
        e 80 83 30 40
        e 16 93 2d 7f
        e 80 83 2d 40
        e 16 93 29 7f
        e 80 83 29 40
        e 16 93 28 7f
        e 368 83 28 40
        e 16 93 30 7f
        e 176 83 30 40
        e 16 93 24 7f
        e 176 83 24 40
        e 16 93 29 7f
        e 176 83 29 40
        e 16 93 35 7f
        e 176 83 35 40
        e 16 93 29 7f
        e 176 83 29 40
        E 16 b0 7b 00
        GUID {05F93B9B-1DA0-424B-95DA-634716837D47}
        IGNTEMPO 0 120 4 4
        SRCCOLOR 201
        VELLANE -1 86 6
        CFGEDITVIEW -912 11.272727 58 17 0 0 0 0 0 0.5
        KEYSNAP 0
        TRACKSEL 252
        EVTFILTER 0 -1 -1 -1 -1 0 0 0 0 -1 -1 -1 -1 0 -1 0 -1 -1
        CFGEDIT 1 0 0 0 0 0 1 0 1 1 1 0.25 269 4 1280 633 0 0 2 3 0 0 0 0 0 0.5 0 0 1 64
      >
    >
    <ITEM
      POSITION 0
      SNAPOFFS 0
      LENGTH 47.5
      LOOP 1
      ALLTAKES 0
      FADEIN 1 0 0 1 0 0
      FADEOUT 1 0 0 1 0 0
      MUTE 0
      SEL 0
      YPOS 0 0.166667
      IGUID {97CF132B-AF2A-A948-BBB5-421B60791930}
      IID 1
      NAME "R.H.                 - National_Anthems_-_United_Arab_Emirates.mid"
      VOLPAN 1 0 1 -1
      SOFFS 0 0
      PLAYRATE 1 1 0 -1 0 0.0025
      CHANMODE 0
      GUID {F63ADB52-2A2F-9940-901B-54B135ACD288}
      <SOURCE MIDI
        HASDATA 1 192 QN
        POOLEDEVTS {F243426C-2D7F-F143-A0D2-F1A5D94D43A0}
        <X 0 0 0 0 3 "R.H.                "
          /wNSLkguICAgICAgICAgICAgICAgIA==
        >
        <X 0 0 0 0 1 "THE SOFTWARE TOOLWORKS"
          /wFUSEUgU09GVFdBUkUgVE9PTFdPUktT
        >
        <X 0 0 0 0 1 "WORLD ATLAS"
          /wFXT1JMRCBBVExBUw==
        >
        <X 0 0 0 0 1 "MultiMedia Windows Version"
          /wFNdWx0aU1lZGlhIFdpbmRvd3MgVmVyc2lvbg==
        >
        <X 0 0 0 0 1 "Country: UNITED ARAB EMIRATES"
          /wFDb3VudHJ5OiBVTklURUQgQVJBQiBFTUlSQVRFUw==
        >
        <X 0 0 0 0 1 "Anthem Name:"
          /wFBbnRoZW0gTmFtZTo=
        >
        <X 0 0 0 0 1 "(p) (c) The Software Toolworks 1991"
          /wEocCkgKGMpIFRoZSBTb2Z0d2FyZSBUb29sd29ya3MgMTk5MQ==
        >
        <X 0 0 0 0 1 "edit date: 9-14-91"
          /wFlZGl0IGRhdGU6IDktMTQtOTE=
        >
        <X 0 0 0 0 1 "MMWIN EDIT DATE: 9-14-91"
          /wFNTVdJTiBFRElUIERBVEU6IDktMTQtOTE=
        >
        <X 0 0 0 0 1 "This file provided by:"
          /wFUaGlzIGZpbGUgcHJvdmlkZWQgYnk6
        >
        <X 0 0 0 0 1 "Rob Wallace Music"
          /wFSb2IgV2FsbGFjZSBNdXNpYw==
        >
        <X 0 0 0 0 1 "(602) 979-6201"
          /wEoNjAyKSA5NzktNjIwMQ==
        >
        e 0 91 3c 64
        e 0 91 41 64
        e 0 91 45 64
        e 0 91 48 64
        e 176 81 3c 40
        e 0 81 41 40
        e 0 81 45 40
        e 0 81 48 40
        e 16 91 41 64
        e 0 91 46 64
        e 0 91 4a 64
        e 0 91 4d 64
        e 128 81 41 40
        e 0 81 46 40
        e 0 81 4a 40
        e 0 81 4d 40
        e 16 91 40 64
        e 0 91 4c 64
        e 32 81 40 40
        e 0 81 4c 40
        e 16 91 41 64
        e 0 91 45 64
        e 0 91 48 64
        e 0 91 4d 64
        e 80 81 41 40
        e 0 81 45 40
        e 0 81 48 40
        e 16 91 43 64
        e 0 91 46 64
        e 80 81 4d 40
        e 0 81 43 40
        e 0 81 46 40
        e 16 91 41 64
        e 0 91 45 64
        e 0 91 48 64
        e 80 81 41 40
        e 0 81 45 40
        e 16 91 40 64
        e 0 91 43 64
        e 80 81 48 40
        e 0 81 40 40
        e 0 81 43 40
        e 16 91 41 64
        e 0 91 48 64
        e 0 91 4d 64
        e 176 81 41 40
        e 0 81 48 40
        e 0 81 4d 40
        e 16 91 43 64
        e 0 91 48 64
        e 0 91 4f 64
        e 80 81 43 40
        e 0 81 4f 40
        e 16 91 45 64
        e 0 91 51 64
        e 80 81 48 40
        e 0 81 45 40
        e 0 81 51 40
        e 16 91 45 64
        e 0 91 48 64
        e 0 91 4d 64
        e 0 91 51 64
        e 176 81 45 40
        e 0 81 48 40
        e 0 81 4d 40
        e 0 81 51 40
        e 16 91 43 64
        e 0 91 48 64
        e 0 91 4f 64
        e 80 81 43 40
        e 0 81 48 40
        e 0 81 4f 40
        e 16 91 41 64
        e 0 91 45 64
        e 0 91 48 64
        e 0 91 4d 64
        e 80 81 41 40
        e 0 81 45 40
        e 0 81 48 40
        e 0 81 4d 40
        e 16 91 40 64
        e 0 91 43 64
        e 0 91 48 64
        e 0 91 4c 64
        e 176 81 40 40
        e 0 81 43 40
        e 0 81 48 40
        e 0 81 4c 40
        e 16 91 41 64
        e 0 91 45 64
        e 0 91 48 64
        e 0 91 4d 64
        e 80 81 41 40
        e 0 81 45 40
        e 0 81 48 40
        e 0 81 4d 40
        e 16 91 43 64
        e 0 91 48 64
        e 0 91 4c 64
        e 0 91 4f 64
        e 80 81 43 40
        e 0 81 48 40
        e 0 81 4c 40
        e 0 81 4f 40
        e 16 91 43 64
        e 0 91 48 64
        e 0 91 4c 64
        e 0 91 4f 64
        e 368 81 43 40
        e 0 81 48 40
        e 0 81 4c 40
        e 0 81 4f 40
        e 16 91 43 64
        e 0 91 46 64
        e 0 91 4c 64
        e 0 91 4f 64
        e 176 81 43 40
        e 0 81 46 40
        e 0 81 4c 40
        e 0 81 4f 40
        e 16 91 43 64
        e 0 91 46 64
        e 0 91 4c 64
        e 0 91 4f 64
        e 128 81 43 40
        e 0 81 46 40
        e 0 81 4c 40
        e 0 81 4f 40
        e 16 91 43 64
        e 0 91 46 64
        e 0 91 4c 64
        e 0 91 4f 64
        e 32 81 43 40
        e 0 81 46 40
        e 0 81 4c 40
        e 0 81 4f 40
        e 16 91 43 64
        e 0 91 46 64
        e 0 91 4c 64
        e 0 91 4f 64
        e 176 81 43 40
        e 0 81 46 40
        e 0 81 4c 40
        e 0 81 4f 40
        e 16 91 3c 64
        e 0 91 40 64
        e 0 91 48 64
        e 176 81 3c 40
        e 0 81 40 40
        e 0 81 48 40
        e 16 91 43 64
        e 0 91 48 64
        e 0 91 4c 64
        e 0 91 4f 64
        e 128 81 43 40
        e 0 81 48 40
        e 0 81 4c 40
        e 0 81 4f 40
        e 16 91 42 64
        e 0 91 4e 64
        e 32 81 42 40
        e 0 81 4e 40
        e 16 91 43 64
        e 0 91 4f 64
        e 80 81 43 40
        e 0 81 4f 40
        e 16 91 45 64
        e 0 91 51 64
        e 80 81 45 40
        e 0 81 51 40
        e 16 91 46 64
        e 0 91 4c 64
        e 0 91 4f 64
        e 0 91 52 64
        e 176 81 46 40
        e 0 81 4c 40
        e 0 81 4f 40
        e 0 81 52 40
        e 16 91 43 64
        e 0 91 48 64
        e 0 91 4c 64
        e 0 91 4f 64
        e 176 81 43 40
        e 0 81 48 40
        e 0 81 4c 40
        e 0 81 4f 40
        e 16 91 45 64
        e 0 91 4d 64
        e 0 91 51 64
        e 128 81 45 40
        e 0 81 4d 40
        e 0 81 51 40
        e 16 91 43 64
        e 0 91 4c 64
        e 0 91 4f 64
        e 32 81 43 40
        e 0 81 4c 40
        e 0 81 4f 40
        e 16 91 45 64
        e 0 91 4d 64
        e 0 91 51 64
        e 80 81 45 40
        e 0 81 4d 40
        e 0 81 51 40
        e 16 91 46 64
        e 0 91 4f 64
        e 0 91 52 64
        e 80 81 46 40
        e 0 81 4f 40
        e 0 81 52 40
        e 16 91 48 64
        e 0 91 51 64
        e 0 91 54 64
        e 176 81 48 40
        e 0 81 51 40
        e 0 81 54 40
        e 16 91 41 64
        e 0 91 45 64
        e 0 91 4d 64
        e 176 81 41 40
        e 0 81 45 40
        e 0 81 4d 40
        e 16 91 43 64
        e 0 91 46 64
        e 0 91 4c 64
        e 0 91 4f 64
        e 176 81 43 40
        e 0 81 46 40
        e 0 81 4c 40
        e 0 81 4f 40
        e 16 91 46 64
        e 0 91 4a 64
        e 0 91 52 64
        e 176 81 46 40
        e 0 81 4a 40
        e 0 81 52 40
        e 16 91 45 64
        e 0 91 48 64
        e 0 91 51 64
        e 128 81 45 40
        e 0 81 48 40
        e 0 81 51 40
        e 16 91 43 64
        e 0 91 4f 64
        e 32 81 43 40
        e 0 81 4f 40
        e 16 91 3e 64
        e 0 91 46 64
        e 0 91 4a 64
        e 80 81 3e 40
        e 0 81 46 40
        e 0 81 4a 40
        e 16 91 40 64
        e 0 91 46 64
        e 0 91 4c 64
        e 80 81 40 40
        e 0 81 46 40
        e 0 81 4c 40
        e 16 91 41 64
        e 0 91 45 64
        e 0 91 48 64
        e 0 91 4d 64
        e 176 81 41 40
        e 0 81 45 40
        e 0 81 48 40
        e 0 81 4d 40
        e 16 91 41 64
        e 0 91 45 64
        e 0 91 48 64
        e 0 91 4d 64
        e 128 81 41 40
        e 0 81 45 40
        e 0 81 48 40
        e 0 81 4d 40
        e 16 91 41 64
        e 0 91 45 64
        e 0 91 48 64
        e 0 91 4d 64
        e 32 81 41 40
        e 0 81 45 40
        e 0 81 48 40
        e 0 81 4d 40
        e 16 91 41 64
        e 0 91 45 64
        e 0 91 48 64
        e 0 91 4d 64
        e 176 81 41 40
        e 0 81 45 40
        e 0 81 48 40
        e 0 81 4d 40
        e 208 91 41 64
        e 0 91 4d 64
        e 176 81 41 40
        e 0 81 4d 40
        e 16 91 41 64
        e 0 91 4d 64
        e 128 81 41 40
        e 0 81 4d 40
        e 16 91 40 64
        e 0 91 4c 64
        e 32 81 40 40
        e 0 81 4c 40
        e 16 91 3e 64
        e 0 91 4a 64
        e 176 81 3e 40
        e 0 81 4a 40
        e 16 91 3e 64
        e 0 91 4a 64
        e 128 81 3e 40
        e 0 81 4a 40
        e 16 91 3c 64
        e 0 91 48 64
        e 32 81 3c 40
        e 0 81 48 40
        e 16 91 3a 64
        e 0 91 46 64
        e 176 81 3a 40
        e 0 81 46 40
        e 16 91 3a 64
        e 0 91 46 64
        e 128 81 3a 40
        e 0 81 46 40
        e 16 91 39 64
        e 0 91 45 64
        e 32 81 39 40
        e 0 81 45 40
        e 16 91 37 64
        e 0 91 43 64
        e 80 81 37 40
        e 0 81 43 40
        e 16 91 41 64
        e 32 81 41 40
        e 16 91 43 64
        e 32 81 43 40
        e 16 91 45 64
        e 32 81 45 40
        e 16 91 46 64
        e 32 81 46 40
        e 16 91 48 64
        e 32 81 48 40
        e 16 91 4a 64
        e 32 81 4a 40
        e 16 91 40 64
        e 0 91 43 64
        e 0 91 4c 64
        e 176 81 40 40
        e 0 81 43 40
        e 0 81 4c 40
        e 16 91 40 64
        e 0 91 4c 64
        e 128 81 40 40
        e 0 81 4c 40
        e 16 91 3e 64
        e 0 91 4a 64
        e 32 81 3e 40
        e 0 81 4a 40
        e 16 91 3c 64
        e 0 91 40 64
        e 0 91 48 64
        e 176 81 3c 40
        e 0 81 40 40
        e 0 81 48 40
        e 16 91 3c 64
        e 0 91 40 64
        e 0 91 48 64
        e 128 81 3c 40
        e 0 81 40 40
        e 0 81 48 40
        e 16 91 3a 64
        e 0 91 3e 64
        e 0 91 46 64
        e 32 81 3a 40
        e 0 81 3e 40
        e 0 81 46 40
        e 16 91 39 64
        e 0 91 3c 64
        e 0 91 45 64
        e 176 81 39 40
        e 0 81 3c 40
        e 0 81 45 40
        e 16 91 39 64
        e 0 91 3c 64
        e 0 91 45 64
        e 128 81 39 40
        e 0 81 3c 40
        e 0 81 45 40
        e 16 91 37 64
        e 0 91 3a 64
        e 0 91 43 64
        e 32 81 37 40
        e 0 81 3a 40
        e 0 81 43 40
        e 16 91 39 64
        e 0 91 41 64
        e 320 81 39 40
        e 0 81 41 40
        e 16 91 41 64
        e 0 91 4d 64
        e 32 81 41 40
        e 0 81 4d 40
        e 16 91 43 64
        e 0 91 48 64
        e 0 91 4f 64
        e 176 81 43 40
        e 0 81 48 40
        e 0 81 4f 40
        e 16 91 45 64
        e 0 91 48 64
        e 0 91 51 64
        e 176 81 45 40
        e 0 81 48 40
        e 0 81 51 40
        e 16 91 46 64
        e 0 91 4c 64
        e 0 91 4f 64
        e 0 91 52 64
        e 176 81 46 40
        e 0 81 4c 40
        e 0 81 4f 40
        e 0 81 52 40
        e 16 91 43 64
        e 0 91 4c 64
        e 0 91 4f 64
        e 176 81 43 40
        e 0 81 4c 40
        e 0 81 4f 40
        e 16 91 45 64
        e 0 91 4d 64
        e 0 91 51 64
        e 176 81 45 40
        e 0 81 4d 40
        e 0 81 51 40
        e 16 91 46 64
        e 0 91 4f 64
        e 0 91 52 64
        e 176 81 46 40
        e 0 81 4f 40
        e 0 81 52 40
        e 16 91 48 64
        e 0 91 51 64
        e 0 91 54 64
        e 176 81 48 40
        e 0 81 51 40
        e 0 81 54 40
        e 16 91 4a 64
        e 0 91 52 64
        e 0 91 56 64
        e 176 81 4a 40
        e 0 81 52 40
        e 0 81 56 40
        e 16 91 40 64
        e 0 91 46 64
        e 0 91 4c 64
        e 80 81 40 40
        e 0 81 46 40
        e 0 81 4c 40
        e 16 91 3c 64
        e 0 91 48 64
        e 80 81 3c 40
        e 0 81 48 40
        e 16 91 3e 64
        e 0 91 4a 64
        e 80 81 3e 40
        e 0 81 4a 40
        e 16 91 41 64
        e 0 91 4d 64
        e 80 81 41 40
        e 0 81 4d 40
        e 16 91 40 64
        e 0 91 4c 64
        e 80 81 40 40
        e 0 81 4c 40
        e 16 91 3c 64
        e 0 91 48 64
        e 80 81 3c 40
        e 0 81 48 40
        e 16 91 3e 64
        e 0 91 4a 64
        e 80 81 3e 40
        e 0 81 4a 40
        e 16 91 40 64
        e 0 91 4c 64
        e 80 81 40 40
        e 0 81 4c 40
        e 16 91 41 64
        e 0 91 45 64
        e 0 91 4d 64
        e 80 81 41 40
        e 0 81 45 40
        e 0 81 4d 40
        e 16 91 41 64
        e 0 91 4d 64
        e 32 81 41 40
        e 0 81 4d 40
        e 16 91 41 64
        e 0 91 4d 64
        e 32 81 41 40
        e 0 81 4d 40
        e 16 91 41 64
        e 0 91 4d 64
        e 80 81 41 40
        e 0 81 4d 40
        e 16 91 41 64
        e 0 91 4d 64
        e 80 81 41 40
        e 0 81 4d 40
        e 16 91 41 64
        e 0 91 4d 64
        e 80 81 41 40
        e 0 81 4d 40
        e 16 91 41 64
        e 0 91 4d 64
        e 80 81 41 40
        e 0 81 4d 40
        e 16 91 41 64
        e 0 91 4d 64
        e 80 81 41 40
        e 0 81 4d 40
        e 16 91 41 64
        e 0 91 4d 64
        e 80 81 41 40
        e 0 81 4d 40
        e 16 91 3c 64
        e 0 91 41 64
        e 0 91 45 64
        e 0 91 48 64
        e 176 81 3c 40
        e 0 81 41 40
        e 0 81 45 40
        e 0 81 48 40
        e 16 91 41 64
        e 0 91 4a 64
        e 0 91 4d 64
        e 128 81 41 40
        e 0 81 4a 40
        e 0 81 4d 40
        e 16 91 40 64
        e 0 91 4c 64
        e 32 81 40 40
        e 0 81 4c 40
        e 16 91 41 64
        e 0 91 48 64
        e 0 91 4d 64
        e 80 81 48 40
        e 16 91 46 64
        e 80 81 41 40
        e 0 81 4d 40
        e 0 81 46 40
        e 16 91 3c 64
        e 0 91 45 64
        e 0 91 48 64
        e 80 81 45 40
        e 16 91 43 64
        e 80 81 3c 40
        e 0 81 48 40
        e 0 81 43 40
        e 16 91 41 64
        e 0 91 48 64
        e 0 91 4d 64
        e 176 81 41 40
        e 0 81 48 40
        e 0 81 4d 40
        e 16 91 43 64
        e 0 91 48 64
        e 0 91 4f 64
        e 80 81 43 40
        e 0 81 48 40
        e 0 81 4f 40
        e 16 91 45 64
        e 0 91 48 64
        e 0 91 51 64
        e 80 81 45 40
        e 0 81 48 40
        e 0 81 51 40
        e 16 91 45 64
        e 0 91 48 64
        e 0 91 51 64
        e 176 81 45 40
        e 0 81 48 40
        e 0 81 51 40
        e 16 91 43 64
        e 0 91 48 64
        e 0 91 4f 64
        e 80 81 43 40
        e 0 81 48 40
        e 0 81 4f 40
        e 16 91 41 64
        e 0 91 4d 64
        e 80 81 41 40
        e 0 81 4d 40
        e 16 91 40 64
        e 0 91 48 64
        e 0 91 4c 64
        e 176 81 40 40
        e 0 81 48 40
        e 0 81 4c 40
        e 16 91 41 64
        e 0 91 48 64
        e 0 91 4d 64
        e 80 81 41 40
        e 0 81 48 40
        e 0 81 4d 40
        e 16 91 43 64
        e 0 91 48 64
        e 0 91 4f 64
        e 80 81 43 40
        e 0 81 48 40
        e 0 81 4f 40
        e 16 91 43 64
        e 0 91 4c 64
        e 0 91 4f 64
        e 368 81 43 40
        e 0 81 4c 40
        e 0 81 4f 40
        e 16 91 43 64
        e 0 91 46 64
        e 0 91 4f 64
        e 176 81 43 40
        e 0 81 46 40
        e 0 81 4f 40
        e 16 91 43 64
        e 0 91 46 64
        e 0 91 4f 64
        e 128 81 43 40
        e 0 81 46 40
        e 0 81 4f 40
        e 16 91 43 64
        e 0 91 4f 64
        e 32 81 43 40
        e 0 81 4f 40
        e 16 91 43 64
        e 0 91 4f 64
        e 176 81 43 40
        e 0 81 4f 40
        e 16 91 3c 64
        e 0 91 48 64
        e 176 81 3c 40
        e 0 81 48 40
        e 16 91 43 64
        e 0 91 48 64
        e 0 91 4c 64
        e 0 91 4f 64
        e 128 81 43 40
        e 0 81 48 40
        e 0 81 4c 40
        e 0 81 4f 40
        e 16 91 42 64
        e 0 91 4e 64
        e 32 81 42 40
        e 0 81 4e 40
        e 16 91 43 64
        e 0 91 4f 64
        e 80 81 43 40
        e 0 81 4f 40
        e 16 91 45 64
        e 0 91 51 64
        e 80 81 45 40
        e 0 81 51 40
        e 16 91 46 64
        e 0 91 4f 64
        e 0 91 52 64
        e 176 81 46 40
        e 0 81 4f 40
        e 0 81 52 40
        e 16 91 43 64
        e 0 91 48 64
        e 0 91 4c 64
        e 0 91 4f 64
        e 176 81 43 40
        e 0 81 48 40
        e 0 81 4c 40
        e 0 81 4f 40
        e 16 91 45 64
        e 0 91 4d 64
        e 0 91 51 64
        e 128 81 45 40
        e 0 81 4d 40
        e 0 81 51 40
        e 16 91 43 64
        e 0 91 4f 64
        e 32 81 43 40
        e 0 81 4f 40
        e 16 91 45 64
        e 0 91 51 64
        e 80 81 45 40
        e 0 81 51 40
        e 16 91 46 64
        e 0 91 52 64
        e 80 81 46 40
        e 0 81 52 40
        e 16 91 48 64
        e 0 91 54 64
        e 176 81 48 40
        e 0 81 54 40
        e 16 91 41 64
        e 0 91 48 64
        e 0 91 4d 64
        e 176 81 41 40
        e 0 81 48 40
        e 0 81 4d 40
        e 16 91 43 64
        e 0 91 46 64
        e 0 91 4f 64
        e 176 81 43 40
        e 0 81 46 40
        e 0 81 4f 40
        e 16 91 46 64
        e 0 91 4f 64
        e 0 91 52 64
        e 176 81 46 40
        e 0 81 4f 40
        e 0 81 52 40
        e 16 91 45 64
        e 0 91 4d 64
        e 0 91 51 64
        e 80 81 45 40
        e 0 81 4d 40
        e 0 81 51 40
        e 16 91 43 64
        e 0 91 4f 64
        e 80 81 43 40
        e 0 81 4f 40
        e 16 91 3e 64
        e 0 91 41 64
        e 0 91 4a 64
        e 80 81 3e 40
        e 0 81 41 40
        e 0 81 4a 40
        e 16 91 40 64
        e 0 91 43 64
        e 0 91 4c 64
        e 80 81 40 40
        e 0 81 43 40
        e 0 81 4c 40
        e 16 91 41 64
        e 0 91 45 64
        e 0 91 4d 64
        e 176 81 41 40
        e 0 81 45 40
        e 0 81 4d 40
        e 16 91 41 64
        e 0 91 45 64
        e 0 91 4d 64
        e 128 81 41 40
        e 0 81 45 40
        e 0 81 4d 40
        e 16 91 41 64
        e 0 91 45 64
        e 0 91 4d 64
        e 32 81 41 40
        e 0 81 45 40
        e 0 81 4d 40
        e 16 91 41 64
        e 0 91 45 64
        e 0 91 4d 64
        e 176 81 41 40
        e 0 81 45 40
        e 0 81 4d 40
        E 16 b0 7b 00
        GUID {834CB3BD-F8D4-1746-9C72-178E786307DD}
        IGNTEMPO 0 120 4 4
        SRCCOLOR 199
        VELLANE -1 86 6
        CFGEDITVIEW 3565.130601 284.458653 40 10 0 0 0 0 0 0.5
        KEYSNAP 0
        TRACKSEL 252
        EVTFILTER 0 -1 -1 -1 -1 0 0 0 0 -1 -1 -1 -1 0 -1 0 -1 -1
        CFGEDIT 1 0 0 0 0 0 1 0 1 1 1 0.25 285 20 1280 633 0 0 2 3 0 0 0 0 0 0.5 0 0 1 64
      >
    >
    <ITEM
      POSITION 0
      SNAPOFFS 0
      LENGTH 47.5
      LOOP 1
      ALLTAKES 0
      FADEIN 1 0 0 1 0 0
      FADEOUT 1 0 0 1 0 0
      MUTE 0
      SEL 0
      YPOS 0.166667 0.166667
      IGUID {296DDB78-0DFB-1B48-AC01-5F6C4E4D3CF6}
      IID 2
      NAME "L.H.                 - National_Anthems_-_United_Arab_Emirates.mid"
      VOLPAN 1 0 1 -1
      SOFFS 0 0
      PLAYRATE 1 1 0 -1 0 0.0025
      CHANMODE 0
      GUID {8F854437-2EAC-A24B-B776-93F3683A734D}
      <SOURCE MIDI
        HASDATA 1 192 QN
        POOLEDEVTS {47112996-29FA-3A4C-B4BC-6CEBACDE0D7C}
        <X 0 0 0 0 3 "L.H.                "
          /wNMLkguICAgICAgICAgICAgICAgIA==
        >
        E 0 92 35 64
        E 0 92 29 64
        E 560 82 35 40
        E 0 82 29 40
        E 16 92 3a 64
        E 0 92 2e 64
        E 176 82 3a 40
        E 0 82 2e 40
        E 16 92 2d 64
        E 0 92 39 64
        E 176 82 2d 40
        E 0 82 39 40
        E 16 92 2b 64
        E 0 92 37 64
        E 176 82 2b 40
        E 0 82 37 40
        E 16 92 29 64
        E 0 92 35 64
        E 176 82 29 40
        E 0 82 35 40
        E 16 92 37 64
        E 0 92 2b 64
        E 80 82 37 40
        E 0 82 2b 40
        E 16 92 24 64
        E 0 92 30 64
        E 80 82 24 40
        E 0 82 30 40
        E 16 92 24 64
        E 0 92 30 64
        E 368 82 24 40
        E 0 82 30 40
        E 16 92 3c 64
        E 0 92 30 64
        E 80 82 3c 40
        E 0 82 30 40
        E 16 92 3c 64
        E 0 92 30 64
        E 16 82 3c 40
        E 0 82 30 40
        E 16 92 3c 64
        E 0 92 30 64
        E 16 82 3c 40
        E 0 82 30 40
        E 16 92 3c 64
        E 0 92 30 64
        E 16 82 3c 40
        E 0 82 30 40
        E 16 92 30 64
        E 0 92 3c 64
        E 80 82 30 40
        E 0 82 3c 40
        E 16 92 30 64
        E 0 92 3c 64
        E 80 82 30 40
        E 0 82 3c 40
        E 16 92 28 64
        E 0 92 34 64
        E 176 82 28 40
        E 0 82 34 40
        E 16 92 30 64
        E 0 92 24 64
        E 176 82 30 40
        E 0 82 24 40
        E 16 92 2e 64
        E 0 92 3a 64
        E 80 82 2e 40
        E 0 82 3a 40
        E 16 92 30 64
        E 0 92 3c 64
        E 80 82 30 40
        E 0 82 3c 40
        E 16 92 28 64
        E 0 92 34 64
        E 80 82 28 40
        E 0 82 34 40
        E 16 92 2b 64
        E 0 92 37 64
        E 80 82 2b 40
        E 0 82 37 40
        E 16 92 24 64
        E 0 92 30 64
        E 464 82 24 40
        E 0 82 30 40
        E 16 92 24 64
        E 0 92 30 64
        E 80 82 24 40
        E 0 82 30 40
        E 16 92 28 64
        E 0 92 34 64
        E 80 82 28 40
        E 0 82 34 40
        E 16 92 37 64
        E 0 92 2b 64
        E 80 82 37 40
        E 0 82 2b 40
        E 16 92 29 64
        E 0 92 35 64
        E 464 82 29 40
        E 0 82 35 40
        E 16 92 30 64
        E 0 92 3c 64
        E 80 82 30 40
        E 0 82 3c 40
        E 16 92 2d 64
        E 0 92 39 64
        E 80 82 2d 40
        E 0 82 39 40
        E 16 92 29 64
        E 0 92 35 64
        E 80 82 29 40
        E 0 82 35 40
        E 16 92 24 64
        E 0 92 30 64
        E 368 82 24 40
        E 0 82 30 40
        E 16 92 28 64
        E 0 92 34 64
        E 368 82 28 40
        E 0 82 34 40
        E 16 92 29 64
        E 0 92 30 64
        E 0 92 35 64
        E 176 82 29 40
        E 0 82 30 40
        E 0 82 35 40
        E 16 92 30 64
        E 0 92 35 64
        E 0 92 29 64
        E 128 82 30 40
        E 0 82 35 40
        E 0 82 29 40
        E 16 92 30 64
        E 0 92 35 64
        E 0 92 29 64
        E 32 82 30 40
        E 0 82 35 40
        E 0 82 29 40
        E 16 92 29 64
        E 0 92 30 64
        E 0 92 35 64
        E 176 82 29 40
        E 0 82 30 40
        E 0 82 35 40
        E 208 92 29 64
        E 0 92 35 64
        E 272 82 29 40
        E 0 82 35 40
        E 112 92 2e 64
        E 0 92 3a 64
        E 272 82 2e 40
        E 0 82 3a 40
        E 112 92 34 64
        E 0 92 28 64
        E 272 82 34 40
        E 0 82 28 40
        E 112 92 24 64
        E 0 92 30 64
        E 272 82 24 40
        E 0 82 30 40
        E 112 92 30 64
        E 0 92 24 64
        E 560 82 30 40
        E 0 82 24 40
        E 208 92 35 64
        E 0 92 29 64
        E 560 82 35 40
        E 0 82 29 40
        E 208 92 37 64
        E 0 92 2b 64
        E 176 82 37 40
        E 0 82 2b 40
        E 16 92 29 64
        E 0 92 35 64
        E 176 82 29 40
        E 0 82 35 40
        E 16 92 34 64
        E 0 92 28 64
        E 176 82 34 40
        E 0 82 28 40
        E 16 92 24 64
        E 0 92 30 64
        E 176 82 24 40
        E 0 82 30 40
        E 16 92 35 64
        E 0 92 29 64
        E 176 82 35 40
        E 0 82 29 40
        E 16 92 37 64
        E 0 92 2b 64
        E 176 82 37 40
        E 0 82 2b 40
        E 16 92 39 64
        E 0 92 2d 64
        E 176 82 39 40
        E 0 82 2d 40
        E 16 92 2e 64
        E 0 92 3a 64
        E 176 82 2e 40
        E 0 82 3a 40
        E 16 92 30 64
        E 0 92 3c 64
        E 272 82 30 40
        E 0 82 3c 40
        E 16 92 3e 64
        E 0 92 32 64
        E 80 82 3e 40
        E 0 82 32 40
        E 16 92 30 64
        E 0 92 3c 64
        E 80 82 30 40
        E 0 82 3c 40
        E 16 92 2e 64
        E 0 92 3a 64
        E 80 82 2e 40
        E 0 82 3a 40
        E 16 92 2d 64
        E 0 92 39 64
        E 80 82 2d 40
        E 0 82 39 40
        E 16 92 2b 64
        E 0 92 37 64
        E 80 82 2b 40
        E 0 82 37 40
        E 16 92 35 64
        E 0 92 29 64
        E 80 82 35 40
        E 0 82 29 40
        E 16 92 29 64
        E 0 92 35 64
        E 80 82 29 40
        E 0 82 35 40
        E 16 92 28 64
        E 0 92 34 64
        E 80 82 28 40
        E 0 82 34 40
        E 16 92 26 64
        E 0 92 32 64
        E 80 82 26 40
        E 0 82 32 40
        E 16 92 24 64
        E 0 92 30 64
        E 80 82 24 40
        E 0 82 30 40
        E 16 92 2e 64
        E 0 92 3a 64
        E 80 82 2e 40
        E 0 82 3a 40
        E 16 92 2d 64
        E 0 92 39 64
        E 80 82 2d 40
        E 0 82 39 40
        E 16 92 2b 64
        E 0 92 37 64
        E 80 82 2b 40
        E 0 82 37 40
        E 16 92 29 64
        E 0 92 35 64
        E 176 82 29 40
        E 0 82 35 40
        E 16 92 2b 64
        E 0 92 37 64
        E 176 82 2b 40
        E 0 82 37 40
        E 16 92 29 64
        E 0 92 35 64
        E 176 82 29 40
        E 0 82 35 40
        E 16 92 2e 64
        E 0 92 3a 64
        E 176 82 2e 40
        E 0 82 3a 40
        E 16 92 2d 64
        E 0 92 39 64
        E 176 82 2d 40
        E 0 82 39 40
        E 16 92 2b 64
        E 0 92 37 64
        E 176 82 2b 40
        E 0 82 37 40
        E 16 92 29 64
        E 0 92 35 64
        E 176 82 29 40
        E 0 82 35 40
        E 16 92 2b 64
        E 0 92 37 64
        E 80 82 2b 40
        E 0 82 37 40
        E 16 92 2d 64
        E 0 92 39 64
        E 80 82 2d 40
        E 0 82 39 40
        E 16 92 3c 64
        E 0 92 30 64
        E 176 82 3c 40
        E 0 82 30 40
        E 16 92 30 64
        E 0 92 3c 64
        E 80 82 30 40
        E 0 82 3c 40
        E 16 92 30 64
        E 0 92 3c 64
        E 80 82 30 40
        E 0 82 3c 40
        E 16 92 2e 64
        E 0 92 3a 64
        E 80 82 2e 40
        E 0 82 3a 40
        E 16 92 24 64
        E 0 92 30 64
        E 80 82 24 40
        E 0 82 30 40
        E 16 92 34 64
        E 0 92 28 64
        E 80 82 34 40
        E 0 82 28 40
        E 16 92 2b 64
        E 0 92 37 64
        E 80 82 2b 40
        E 0 82 37 40
        E 16 92 3a 64
        E 0 92 2e 64
        E 80 82 3a 40
        E 0 82 2e 40
        E 16 92 39 64
        E 0 92 2d 64
        E 80 82 39 40
        E 0 82 2d 40
        E 16 92 2b 64
        E 0 92 37 64
        E 80 82 2b 40
        E 0 82 37 40
        E 16 92 29 64
        E 0 92 35 64
        E 80 82 29 40
        E 0 82 35 40
        E 16 92 3a 64
        E 0 92 2e 64
        E 80 82 3a 40
        E 0 82 2e 40
        E 16 92 30 64
        E 0 92 3c 64
        E 80 82 30 40
        E 0 82 3c 40
        E 16 92 28 64
        E 0 92 34 64
        E 80 82 28 40
        E 0 82 34 40
        E 16 92 2b 64
        E 0 92 37 64
        E 80 82 2b 40
        E 0 82 37 40
        E 16 92 30 64
        E 0 92 24 64
        E 464 82 30 40
        E 0 82 24 40
        E 16 92 24 64
        E 0 92 30 64
        E 80 82 24 40
        E 0 82 30 40
        E 16 92 28 64
        E 0 92 34 64
        E 80 82 28 40
        E 0 82 34 40
        E 16 92 2b 64
        E 0 92 37 64
        E 80 82 2b 40
        E 0 82 37 40
        E 16 92 29 64
        E 0 92 35 64
        E 464 82 29 40
        E 0 82 35 40
        E 16 92 30 64
        E 0 92 3c 64
        E 80 82 30 40
        E 0 82 3c 40
        E 16 92 2d 64
        E 0 92 39 64
        E 80 82 2d 40
        E 0 82 39 40
        E 16 92 35 64
        E 0 92 29 64
        E 80 82 35 40
        E 0 82 29 40
        E 16 92 28 64
        E 0 92 34 64
        E 368 82 28 40
        E 0 82 34 40
        E 16 92 24 64
        E 0 92 30 64
        E 368 82 24 40
        E 0 82 30 40
        E 16 92 29 64
        E 0 92 35 64
        E 176 82 29 40
        E 0 82 35 40
        E 16 92 29 64
        E 0 92 35 64
        E 128 82 29 40
        E 0 82 35 40
        E 16 92 29 64
        E 0 92 35 64
        E 32 82 29 40
        E 0 82 35 40
        E 16 92 29 64
        E 0 92 35 64
        E 176 82 29 40
        E 0 82 35 40
        E 16 b0 7b 00
        GUID {44815931-6C34-CE44-A578-7DBC38CC7A90}
        IGNTEMPO 0 120 4 4
        SRCCOLOR 200
        VELLANE -1 86 6
      >
    >
    <ITEM
      POSITION 0
      SNAPOFFS 0
      LENGTH 47.5
      LOOP 1
      ALLTAKES 0
      FADEIN 1 0 0 1 0 0
      FADEOUT 1 0 0 1 0 0
      MUTE 0
      SEL 0
      YPOS 0.666667 0.166667
      IGUID {55815C20-7795-3F46-83E0-1A808DB33C54}
      IID 5
      NAME "New Track            - National_Anthems_-_United_Arab_Emirates.mid"
      VOLPAN 1 0 1 -1
      SOFFS 0 0
      PLAYRATE 1 1 0 -1 0 0.0025
      CHANMODE 0
      GUID {B21A6B79-C9B5-D14A-B9FC-E341A21DC3DF}
      <SOURCE MIDI
        HASDATA 1 192 QN
        POOLEDEVTS {E5D4F966-60BD-EC40-8562-3FA034678381}
        <X 0 0 0 0 3 "New Track           "
          /wNOZXcgVHJhY2sgICAgICAgICAgIA==
        >
        E 0 9c 48 64
        E 0 9c 3c 64
        E 0 9c 45 64
        E 0 9c 41 64
        E 176 8c 48 40
        E 0 8c 3c 40
        E 0 8c 45 40
        E 0 8c 41 40
        E 16 9c 4d 64
        E 0 9c 4a 64
        E 0 9c 46 64
        E 0 9c 41 64
        E 128 8c 4d 40
        E 0 8c 4a 40
        E 0 8c 46 40
        E 0 8c 41 40
        E 16 9c 4c 64
        E 0 9c 40 64
        E 32 8c 4c 40
        E 0 8c 40 40
        E 16 9c 4d 64
        E 0 9c 45 64
        E 0 9c 48 64
        E 0 9c 41 64
        E 80 8c 45 40
        E 0 8c 48 40
        E 0 8c 41 40
        E 16 9c 46 64
        E 0 9c 43 64
        E 80 8c 4d 40
        E 0 8c 46 40
        E 0 8c 43 40
        E 16 9c 45 64
        E 0 9c 48 64
        E 0 9c 41 64
        E 80 8c 45 40
        E 0 8c 41 40
        E 16 9c 40 64
        E 0 9c 43 64
        E 80 8c 48 40
        E 0 8c 40 40
        E 0 8c 43 40
        E 16 9c 4d 64
        E 0 9c 48 64
        E 0 9c 41 64
        E 176 8c 4d 40
        E 0 8c 48 40
        E 0 8c 41 40
        E 16 9c 4f 64
        E 0 9c 43 64
        E 0 9c 48 64
        E 80 8c 4f 40
        E 0 8c 43 40
        E 16 9c 45 64
        E 0 9c 51 64
        E 80 8c 48 40
        E 0 8c 45 40
        E 0 8c 51 40
        E 16 9c 4d 64
        E 0 9c 48 64
        E 0 9c 51 64
        E 0 9c 45 64
        E 176 8c 4d 40
        E 0 8c 48 40
        E 0 8c 51 40
        E 0 8c 45 40
        E 16 9c 4f 64
        E 0 9c 48 64
        E 0 9c 43 64
        E 80 8c 4f 40
        E 0 8c 48 40
        E 0 8c 43 40
        E 16 9c 4d 64
        E 0 9c 45 64
        E 0 9c 41 64
        E 0 9c 48 64
        E 80 8c 4d 40
        E 0 8c 45 40
        E 0 8c 41 40
        E 0 8c 48 40
        E 16 9c 40 64
        E 0 9c 43 64
        E 0 9c 4c 64
        E 0 9c 48 64
        E 176 8c 40 40
        E 0 8c 43 40
        E 0 8c 4c 40
        E 0 8c 48 40
        E 16 9c 41 64
        E 0 9c 4d 64
        E 0 9c 45 64
        E 0 9c 48 64
        E 80 8c 41 40
        E 0 8c 4d 40
        E 0 8c 45 40
        E 0 8c 48 40
        E 16 9c 4f 64
        E 0 9c 43 64
        E 0 9c 4c 64
        E 0 9c 48 64
        E 80 8c 4f 40
        E 0 8c 43 40
        E 0 8c 4c 40
        E 0 8c 48 40
        E 16 9c 48 64
        E 0 9c 43 64
        E 0 9c 4f 64
        E 0 9c 4c 64
        E 368 8c 48 40
        E 0 8c 43 40
        E 0 8c 4f 40
        E 0 8c 4c 40
        E 16 9c 4c 64
        E 0 9c 46 64
        E 0 9c 4f 64
        E 0 9c 43 64
        E 176 8c 4c 40
        E 0 8c 46 40
        E 0 8c 4f 40
        E 0 8c 43 40
        E 16 9c 46 64
        E 0 9c 4c 64
        E 0 9c 43 64
        E 0 9c 4f 64
        E 128 8c 46 40
        E 0 8c 4c 40
        E 0 8c 43 40
        E 0 8c 4f 40
        E 16 9c 46 64
        E 0 9c 43 64
        E 0 9c 4c 64
        E 0 9c 4f 64
        E 32 8c 46 40
        E 0 8c 43 40
        E 0 8c 4c 40
        E 0 8c 4f 40
        E 16 9c 46 64
        E 0 9c 43 64
        E 0 9c 4f 64
        E 0 9c 4c 64
        E 176 8c 46 40
        E 0 8c 43 40
        E 0 8c 4f 40
        E 0 8c 4c 40
        E 16 9c 3c 64
        E 0 9c 48 64
        E 0 9c 40 64
        E 176 8c 3c 40
        E 0 8c 48 40
        E 0 8c 40 40
        E 16 9c 48 64
        E 0 9c 43 64
        E 0 9c 4f 64
        E 0 9c 4c 64
        E 128 8c 48 40
        E 0 8c 43 40
        E 0 8c 4f 40
        E 0 8c 4c 40
        E 16 9c 42 64
        E 0 9c 4e 64
        E 32 8c 42 40
        E 0 8c 4e 40
        E 16 9c 43 64
        E 0 9c 4f 64
        E 80 8c 43 40
        E 0 8c 4f 40
        E 16 9c 45 64
        E 0 9c 51 64
        E 80 8c 45 40
        E 0 8c 51 40
        E 16 9c 46 64
        E 0 9c 52 64
        E 0 9c 4c 64
        E 0 9c 4f 64
        E 176 8c 46 40
        E 0 8c 52 40
        E 0 8c 4c 40
        E 0 8c 4f 40
        E 16 9c 4c 64
        E 0 9c 43 64
        E 0 9c 48 64
        E 0 9c 4f 64
        E 176 8c 4c 40
        E 0 8c 43 40
        E 0 8c 48 40
        E 0 8c 4f 40
        E 16 9c 45 64
        E 0 9c 51 64
        E 0 9c 4d 64
        E 128 8c 45 40
        E 0 8c 51 40
        E 0 8c 4d 40
        E 16 9c 4c 64
        E 0 9c 43 64
        E 0 9c 4f 64
        E 32 8c 4c 40
        E 0 8c 43 40
        E 0 8c 4f 40
        E 16 9c 45 64
        E 0 9c 4d 64
        E 0 9c 51 64
        E 80 8c 45 40
        E 0 8c 4d 40
        E 0 8c 51 40
        E 16 9c 46 64
        E 0 9c 52 64
        E 0 9c 4f 64
        E 80 8c 46 40
        E 0 8c 52 40
        E 0 8c 4f 40
        E 16 9c 48 64
        E 0 9c 51 64
        E 0 9c 54 64
        E 176 8c 48 40
        E 0 8c 51 40
        E 0 8c 54 40
        E 16 9c 4d 64
        E 0 9c 41 64
        E 0 9c 45 64
        E 176 8c 4d 40
        E 0 8c 41 40
        E 0 8c 45 40
        E 16 9c 43 64
        E 0 9c 4c 64
        E 0 9c 46 64
        E 0 9c 4f 64
        E 176 8c 43 40
        E 0 8c 4c 40
        E 0 8c 46 40
        E 0 8c 4f 40
        E 16 9c 46 64
        E 0 9c 52 64
        E 0 9c 4a 64
        E 176 8c 46 40
        E 0 8c 52 40
        E 0 8c 4a 40
        E 16 9c 45 64
        E 0 9c 51 64
        E 0 9c 48 64
        E 128 8c 45 40
        E 0 8c 51 40
        E 0 8c 48 40
        E 16 9c 4f 64
        E 0 9c 43 64
        E 32 8c 4f 40
        E 0 8c 43 40
        E 16 9c 46 64
        E 0 9c 4a 64
        E 0 9c 3e 64
        E 80 8c 46 40
        E 0 8c 4a 40
        E 0 8c 3e 40
        E 16 9c 40 64
        E 0 9c 46 64
        E 0 9c 4c 64
        E 80 8c 40 40
        E 0 8c 46 40
        E 0 8c 4c 40
        E 16 9c 41 64
        E 0 9c 45 64
        E 0 9c 4d 64
        E 0 9c 48 64
        E 176 8c 41 40
        E 0 8c 45 40
        E 0 8c 4d 40
        E 0 8c 48 40
        E 16 9c 45 64
        E 0 9c 41 64
        E 0 9c 4d 64
        E 0 9c 48 64
        E 128 8c 45 40
        E 0 8c 41 40
        E 0 8c 4d 40
        E 0 8c 48 40
        E 16 9c 41 64
        E 0 9c 45 64
        E 0 9c 4d 64
        E 0 9c 48 64
        E 32 8c 41 40
        E 0 8c 45 40
        E 0 8c 4d 40
        E 0 8c 48 40
        E 16 9c 41 64
        E 0 9c 4d 64
        E 0 9c 48 64
        E 0 9c 45 64
        E 176 8c 41 40
        E 0 8c 4d 40
        E 0 8c 48 40
        E 0 8c 45 40
        E 208 9c 41 64
        E 0 9c 4d 64
        E 176 8c 41 40
        E 0 8c 4d 40
        E 16 9c 4d 64
        E 0 9c 41 64
        E 128 8c 4d 40
        E 0 8c 41 40
        E 16 9c 40 64
        E 0 9c 4c 64
        E 32 8c 40 40
        E 0 8c 4c 40
        E 16 9c 3e 64
        E 0 9c 4a 64
        E 176 8c 3e 40
        E 0 8c 4a 40
        E 16 9c 4a 64
        E 0 9c 3e 64
        E 128 8c 4a 40
        E 0 8c 3e 40
        E 16 9c 48 64
        E 0 9c 3c 64
        E 32 8c 48 40
        E 0 8c 3c 40
        E 16 9c 3a 64
        E 0 9c 46 64
        E 176 8c 3a 40
        E 0 8c 46 40
        E 16 9c 3a 64
        E 0 9c 46 64
        E 128 8c 3a 40
        E 0 8c 46 40
        E 16 9c 45 64
        E 0 9c 39 64
        E 32 8c 45 40
        E 0 8c 39 40
        E 16 9c 37 64
        E 0 9c 43 64
        E 80 8c 37 40
        E 0 8c 43 40
        E 16 9c 41 64
        E 32 8c 41 40
        E 16 9c 43 64
        E 32 8c 43 40
        E 16 9c 45 64
        E 32 8c 45 40
        E 16 9c 46 64
        E 32 8c 46 40
        E 16 9c 48 64
        E 32 8c 48 40
        E 16 9c 4a 64
        E 32 8c 4a 40
        E 16 9c 40 64
        E 0 9c 43 64
        E 0 9c 4c 64
        E 176 8c 40 40
        E 0 8c 43 40
        E 0 8c 4c 40
        E 16 9c 4c 64
        E 0 9c 40 64
        E 128 8c 4c 40
        E 0 8c 40 40
        E 16 9c 3e 64
        E 0 9c 4a 64
        E 32 8c 3e 40
        E 0 8c 4a 40
        E 16 9c 3c 64
        E 0 9c 40 64
        E 0 9c 48 64
        E 176 8c 3c 40
        E 0 8c 40 40
        E 0 8c 48 40
        E 16 9c 48 64
        E 0 9c 40 64
        E 0 9c 3c 64
        E 128 8c 48 40
        E 0 8c 40 40
        E 0 8c 3c 40
        E 16 9c 46 64
        E 0 9c 3a 64
        E 0 9c 3e 64
        E 32 8c 46 40
        E 0 8c 3a 40
        E 0 8c 3e 40
        E 16 9c 39 64
        E 0 9c 3c 64
        E 0 9c 45 64
        E 176 8c 39 40
        E 0 8c 3c 40
        E 0 8c 45 40
        E 16 9c 45 64
        E 0 9c 3c 64
        E 0 9c 39 64
        E 128 8c 45 40
        E 0 8c 3c 40
        E 0 8c 39 40
        E 16 9c 3a 64
        E 0 9c 37 64
        E 0 9c 43 64
        E 32 8c 3a 40
        E 0 8c 37 40
        E 0 8c 43 40
        E 16 9c 39 64
        E 0 9c 41 64
        E 320 8c 39 40
        E 0 8c 41 40
        E 16 9c 4d 64
        E 0 9c 41 64
        E 32 8c 4d 40
        E 0 8c 41 40
        E 16 9c 4f 64
        E 0 9c 43 64
        E 0 9c 48 64
        E 176 8c 4f 40
        E 0 8c 43 40
        E 0 8c 48 40
        E 16 9c 51 64
        E 0 9c 45 64
        E 0 9c 48 64
        E 176 8c 51 40
        E 0 8c 45 40
        E 0 8c 48 40
        E 16 9c 46 64
        E 0 9c 4f 64
        E 0 9c 52 64
        E 0 9c 4c 64
        E 176 8c 46 40
        E 0 8c 4f 40
        E 0 8c 52 40
        E 0 8c 4c 40
        E 16 9c 4c 64
        E 0 9c 43 64
        E 0 9c 4f 64
        E 176 8c 4c 40
        E 0 8c 43 40
        E 0 8c 4f 40
        E 16 9c 4d 64
        E 0 9c 45 64
        E 0 9c 51 64
        E 176 8c 4d 40
        E 0 8c 45 40
        E 0 8c 51 40
        E 16 9c 46 64
        E 0 9c 52 64
        E 0 9c 4f 64
        E 176 8c 46 40
        E 0 8c 52 40
        E 0 8c 4f 40
        E 16 9c 51 64
        E 0 9c 48 64
        E 0 9c 54 64
        E 176 8c 51 40
        E 0 8c 48 40
        E 0 8c 54 40
        E 16 9c 52 64
        E 0 9c 4a 64
        E 0 9c 56 64
        E 176 8c 52 40
        E 0 8c 4a 40
        E 0 8c 56 40
        E 16 9c 4c 64
        E 0 9c 40 64
        E 0 9c 46 64
        E 80 8c 4c 40
        E 0 8c 40 40
        E 0 8c 46 40
        E 16 9c 48 64
        E 0 9c 3c 64
        E 80 8c 48 40
        E 0 8c 3c 40
        E 16 9c 4a 64
        E 0 9c 3e 64
        E 80 8c 4a 40
        E 0 8c 3e 40
        E 16 9c 4d 64
        E 0 9c 41 64
        E 80 8c 4d 40
        E 0 8c 41 40
        E 16 9c 40 64
        E 0 9c 4c 64
        E 80 8c 40 40
        E 0 8c 4c 40
        E 16 9c 48 64
        E 0 9c 3c 64
        E 80 8c 48 40
        E 0 8c 3c 40
        E 16 9c 4a 64
        E 0 9c 3e 64
        E 80 8c 4a 40
        E 0 8c 3e 40
        E 16 9c 4c 64
        E 0 9c 40 64
        E 80 8c 4c 40
        E 0 8c 40 40
        E 16 9c 4d 64
        E 0 9c 45 64
        E 0 9c 41 64
        E 80 8c 4d 40
        E 0 8c 45 40
        E 0 8c 41 40
        E 16 9c 41 64
        E 0 9c 4d 64
        E 32 8c 41 40
        E 0 8c 4d 40
        E 16 9c 41 64
        E 0 9c 4d 64
        E 32 8c 41 40
        E 0 8c 4d 40
        E 16 9c 41 64
        E 0 9c 4d 64
        E 80 8c 41 40
        E 0 8c 4d 40
        E 16 9c 4d 64
        E 0 9c 41 64
        E 80 8c 4d 40
        E 0 8c 41 40
        E 16 9c 41 64
        E 0 9c 4d 64
        E 80 8c 41 40
        E 0 8c 4d 40
        E 16 9c 41 64
        E 0 9c 4d 64
        E 80 8c 41 40
        E 0 8c 4d 40
        E 16 9c 41 64
        E 0 9c 4d 64
        E 80 8c 41 40
        E 0 8c 4d 40
        E 16 9c 4d 64
        E 0 9c 41 64
        E 80 8c 4d 40
        E 0 8c 41 40
        E 16 9c 3c 64
        E 0 9c 48 64
        E 0 9c 41 64
        E 0 9c 45 64
        E 176 8c 3c 40
        E 0 8c 48 40
        E 0 8c 41 40
        E 0 8c 45 40
        E 16 9c 41 64
        E 0 9c 4d 64
        E 0 9c 4a 64
        E 128 8c 41 40
        E 0 8c 4d 40
        E 0 8c 4a 40
        E 16 9c 40 64
        E 0 9c 4c 64
        E 32 8c 40 40
        E 0 8c 4c 40
        E 16 9c 41 64
        E 0 9c 4d 64
        E 0 9c 48 64
        E 80 8c 48 40
        E 16 9c 46 64
        E 80 8c 41 40
        E 0 8c 4d 40
        E 0 8c 46 40
        E 16 9c 3c 64
        E 0 9c 48 64
        E 0 9c 45 64
        E 80 8c 45 40
        E 16 9c 43 64
        E 80 8c 3c 40
        E 0 8c 48 40
        E 0 8c 43 40
        E 16 9c 4d 64
        E 0 9c 48 64
        E 0 9c 41 64
        E 176 8c 4d 40
        E 0 8c 48 40
        E 0 8c 41 40
        E 16 9c 4f 64
        E 0 9c 43 64
        E 0 9c 48 64
        E 80 8c 4f 40
        E 0 8c 43 40
        E 0 8c 48 40
        E 16 9c 45 64
        E 0 9c 51 64
        E 0 9c 48 64
        E 80 8c 45 40
        E 0 8c 51 40
        E 0 8c 48 40
        E 16 9c 48 64
        E 0 9c 51 64
        E 0 9c 45 64
        E 176 8c 48 40
        E 0 8c 51 40
        E 0 8c 45 40
        E 16 9c 4f 64
        E 0 9c 43 64
        E 0 9c 48 64
        E 80 8c 4f 40
        E 0 8c 43 40
        E 0 8c 48 40
        E 16 9c 41 64
        E 0 9c 4d 64
        E 80 8c 41 40
        E 0 8c 4d 40
        E 16 9c 40 64
        E 0 9c 48 64
        E 0 9c 4c 64
        E 176 8c 40 40
        E 0 8c 48 40
        E 0 8c 4c 40
        E 16 9c 4d 64
        E 0 9c 41 64
        E 0 9c 48 64
        E 80 8c 4d 40
        E 0 8c 41 40
        E 0 8c 48 40
        E 16 9c 4f 64
        E 0 9c 43 64
        E 0 9c 48 64
        E 80 8c 4f 40
        E 0 8c 43 40
        E 0 8c 48 40
        E 16 9c 4c 64
        E 0 9c 43 64
        E 0 9c 4f 64
        E 368 8c 4c 40
        E 0 8c 43 40
        E 0 8c 4f 40
        E 16 9c 4f 64
        E 0 9c 43 64
        E 0 9c 46 64
        E 176 8c 4f 40
        E 0 8c 43 40
        E 0 8c 46 40
        E 16 9c 43 64
        E 0 9c 46 64
        E 0 9c 4f 64
        E 128 8c 43 40
        E 0 8c 46 40
        E 0 8c 4f 40
        E 16 9c 43 64
        E 0 9c 4f 64
        E 32 8c 43 40
        E 0 8c 4f 40
        E 16 9c 43 64
        E 0 9c 4f 64
        E 176 8c 43 40
        E 0 8c 4f 40
        E 16 9c 3c 64
        E 0 9c 48 64
        E 176 8c 3c 40
        E 0 8c 48 40
        E 16 9c 43 64
        E 0 9c 4f 64
        E 0 9c 4c 64
        E 0 9c 48 64
        E 128 8c 43 40
        E 0 8c 4f 40
        E 0 8c 4c 40
        E 0 8c 48 40
        E 16 9c 42 64
        E 0 9c 4e 64
        E 32 8c 42 40
        E 0 8c 4e 40
        E 16 9c 43 64
        E 0 9c 4f 64
        E 80 8c 43 40
        E 0 8c 4f 40
        E 16 9c 51 64
        E 0 9c 45 64
        E 80 8c 51 40
        E 0 8c 45 40
        E 16 9c 46 64
        E 0 9c 4f 64
        E 0 9c 52 64
        E 176 8c 46 40
        E 0 8c 4f 40
        E 0 8c 52 40
        E 16 9c 43 64
        E 0 9c 4c 64
        E 0 9c 4f 64
        E 0 9c 48 64
        E 176 8c 43 40
        E 0 8c 4c 40
        E 0 8c 4f 40
        E 0 8c 48 40
        E 16 9c 45 64
        E 0 9c 51 64
        E 0 9c 4d 64
        E 128 8c 45 40
        E 0 8c 51 40
        E 0 8c 4d 40
        E 16 9c 43 64
        E 0 9c 4f 64
        E 32 8c 43 40
        E 0 8c 4f 40
        E 16 9c 45 64
        E 0 9c 51 64
        E 80 8c 45 40
        E 0 8c 51 40
        E 16 9c 52 64
        E 0 9c 46 64
        E 80 8c 52 40
        E 0 8c 46 40
        E 16 9c 48 64
        E 0 9c 54 64
        E 176 8c 48 40
        E 0 8c 54 40
        E 16 9c 41 64
        E 0 9c 4d 64
        E 0 9c 48 64
        E 176 8c 41 40
        E 0 8c 4d 40
        E 0 8c 48 40
        E 16 9c 43 64
        E 0 9c 46 64
        E 0 9c 4f 64
        E 176 8c 43 40
        E 0 8c 46 40
        E 0 8c 4f 40
        E 16 9c 46 64
        E 0 9c 52 64
        E 0 9c 4f 64
        E 176 8c 46 40
        E 0 8c 52 40
        E 0 8c 4f 40
        E 16 9c 51 64
        E 0 9c 45 64
        E 0 9c 4d 64
        E 80 8c 51 40
        E 0 8c 45 40
        E 0 8c 4d 40
        E 16 9c 4f 64
        E 0 9c 43 64
        E 80 8c 4f 40
        E 0 8c 43 40
        E 16 9c 3e 64
        E 0 9c 4a 64
        E 0 9c 41 64
        E 80 8c 3e 40
        E 0 8c 4a 40
        E 0 8c 41 40
        E 16 9c 40 64
        E 0 9c 4c 64
        E 0 9c 43 64
        E 80 8c 40 40
        E 0 8c 4c 40
        E 0 8c 43 40
        E 16 9c 4d 64
        E 0 9c 45 64
        E 0 9c 41 64
        E 176 8c 4d 40
        E 0 8c 45 40
        E 0 8c 41 40
        E 16 9c 4d 64
        E 0 9c 41 64
        E 0 9c 45 64
        E 128 8c 4d 40
        E 0 8c 41 40
        E 0 8c 45 40
        E 16 9c 45 64
        E 0 9c 4d 64
        E 0 9c 41 64
        E 32 8c 45 40
        E 0 8c 4d 40
        E 0 8c 41 40
        E 16 9c 45 64
        E 0 9c 41 64
        E 0 9c 4d 64
        E 176 8c 45 40
        E 0 8c 41 40
        E 0 8c 4d 40
        E 16 b0 7b 00
        GUID {A7A9874C-E794-DF41-A75A-DEAF6A2E05CA}
        IGNTEMPO 0 120 4 4
        SRCCOLOR 203
        VELLANE -1 86 6
      >
    >
    <ITEM
      POSITION 0
      SNAPOFFS 0
      LENGTH 47.5
      LOOP 1
      ALLTAKES 0
      FADEIN 1 0 0 1 0 0
      FADEOUT 1 0 0 1 0 0
      MUTE 0
      SEL 0
      YPOS 0.833333 0.166667
      IGUID {1027200B-11C6-484C-AA27-1A3070B9CD21}
      IID 6
      NAME "New Track            - National_Anthems_-_United_Arab_Emirates.mid"
      VOLPAN 1 0 1 -1
      SOFFS 0 0
      PLAYRATE 1 1 0 -1 0 0.0025
      CHANMODE 0
      GUID {30007347-3440-BA46-949A-7F42065305DB}
      <SOURCE MIDI
        HASDATA 1 192 QN
        POOLEDEVTS {0DD28A78-F2F5-094A-890D-E8D0F8DE7411}
        <X 0 0 0 0 3 "New Track           "
          /wNOZXcgVHJhY2sgICAgICAgICAgIA==
        >
        E 0 9d 35 64
        E 0 9d 29 64
        E 560 8d 35 40
        E 0 8d 29 40
        E 16 9d 3a 64
        E 0 9d 2e 64
        E 176 8d 3a 40
        E 0 8d 2e 40
        E 16 9d 2d 64
        E 0 9d 39 64
        E 176 8d 2d 40
        E 0 8d 39 40
        E 16 9d 2b 64
        E 0 9d 37 64
        E 176 8d 2b 40
        E 0 8d 37 40
        E 16 9d 29 64
        E 0 9d 35 64
        E 176 8d 29 40
        E 0 8d 35 40
        E 16 9d 37 64
        E 0 9d 2b 64
        E 80 8d 37 40
        E 0 8d 2b 40
        E 16 9d 24 64
        E 0 9d 30 64
        E 80 8d 24 40
        E 0 8d 30 40
        E 16 9d 24 64
        E 0 9d 30 64
        E 368 8d 24 40
        E 0 8d 30 40
        E 16 9d 3c 64
        E 0 9d 30 64
        E 80 8d 3c 40
        E 0 8d 30 40
        E 16 9d 3c 64
        E 0 9d 30 64
        E 16 8d 3c 40
        E 0 8d 30 40
        E 16 9d 3c 64
        E 0 9d 30 64
        E 16 8d 3c 40
        E 0 8d 30 40
        E 16 9d 3c 64
        E 0 9d 30 64
        E 16 8d 3c 40
        E 0 8d 30 40
        E 16 9d 30 64
        E 0 9d 3c 64
        E 80 8d 30 40
        E 0 8d 3c 40
        E 16 9d 30 64
        E 0 9d 3c 64
        E 80 8d 30 40
        E 0 8d 3c 40
        E 16 9d 28 64
        E 0 9d 34 64
        E 176 8d 28 40
        E 0 8d 34 40
        E 16 9d 30 64
        E 0 9d 24 64
        E 176 8d 30 40
        E 0 8d 24 40
        E 16 9d 2e 64
        E 0 9d 3a 64
        E 80 8d 2e 40
        E 0 8d 3a 40
        E 16 9d 30 64
        E 0 9d 3c 64
        E 80 8d 30 40
        E 0 8d 3c 40
        E 16 9d 28 64
        E 0 9d 34 64
        E 80 8d 28 40
        E 0 8d 34 40
        E 16 9d 2b 64
        E 0 9d 37 64
        E 80 8d 2b 40
        E 0 8d 37 40
        E 16 9d 24 64
        E 0 9d 30 64
        E 464 8d 24 40
        E 0 8d 30 40
        E 16 9d 24 64
        E 0 9d 30 64
        E 80 8d 24 40
        E 0 8d 30 40
        E 16 9d 28 64
        E 0 9d 34 64
        E 80 8d 28 40
        E 0 8d 34 40
        E 16 9d 37 64
        E 0 9d 2b 64
        E 80 8d 37 40
        E 0 8d 2b 40
        E 16 9d 29 64
        E 0 9d 35 64
        E 464 8d 29 40
        E 0 8d 35 40
        E 16 9d 30 64
        E 0 9d 3c 64
        E 80 8d 30 40
        E 0 8d 3c 40
        E 16 9d 2d 64
        E 0 9d 39 64
        E 80 8d 2d 40
        E 0 8d 39 40
        E 16 9d 29 64
        E 0 9d 35 64
        E 80 8d 29 40
        E 0 8d 35 40
        E 16 9d 24 64
        E 0 9d 30 64
        E 368 8d 24 40
        E 0 8d 30 40
        E 16 9d 28 64
        E 0 9d 34 64
        E 368 8d 28 40
        E 0 8d 34 40
        E 16 9d 29 64
        E 0 9d 30 64
        E 0 9d 35 64
        E 176 8d 29 40
        E 0 8d 30 40
        E 0 8d 35 40
        E 16 9d 30 64
        E 0 9d 35 64
        E 0 9d 29 64
        E 128 8d 30 40
        E 0 8d 35 40
        E 0 8d 29 40
        E 16 9d 30 64
        E 0 9d 35 64
        E 0 9d 29 64
        E 32 8d 30 40
        E 0 8d 35 40
        E 0 8d 29 40
        E 16 9d 29 64
        E 0 9d 30 64
        E 0 9d 35 64
        E 176 8d 29 40
        E 0 8d 30 40
        E 0 8d 35 40
        E 208 9d 29 64
        E 0 9d 35 64
        E 272 8d 29 40
        E 0 8d 35 40
        E 112 9d 2e 64
        E 0 9d 3a 64
        E 272 8d 2e 40
        E 0 8d 3a 40
        E 112 9d 34 64
        E 0 9d 28 64
        E 272 8d 34 40
        E 0 8d 28 40
        E 112 9d 24 64
        E 0 9d 30 64
        E 272 8d 24 40
        E 0 8d 30 40
        E 112 9d 30 64
        E 0 9d 24 64
        E 560 8d 30 40
        E 0 8d 24 40
        E 208 9d 35 64
        E 0 9d 29 64
        E 560 8d 35 40
        E 0 8d 29 40
        E 208 9d 37 64
        E 0 9d 2b 64
        E 176 8d 37 40
        E 0 8d 2b 40
        E 16 9d 29 64
        E 0 9d 35 64
        E 176 8d 29 40
        E 0 8d 35 40
        E 16 9d 34 64
        E 0 9d 28 64
        E 176 8d 34 40
        E 0 8d 28 40
        E 16 9d 24 64
        E 0 9d 30 64
        E 176 8d 24 40
        E 0 8d 30 40
        E 16 9d 35 64
        E 0 9d 29 64
        E 176 8d 35 40
        E 0 8d 29 40
        E 16 9d 37 64
        E 0 9d 2b 64
        E 176 8d 37 40
        E 0 8d 2b 40
        E 16 9d 39 64
        E 0 9d 2d 64
        E 176 8d 39 40
        E 0 8d 2d 40
        E 16 9d 2e 64
        E 0 9d 3a 64
        E 176 8d 2e 40
        E 0 8d 3a 40
        E 16 9d 30 64
        E 0 9d 3c 64
        E 272 8d 30 40
        E 0 8d 3c 40
        E 16 9d 3e 64
        E 0 9d 32 64
        E 80 8d 3e 40
        E 0 8d 32 40
        E 16 9d 30 64
        E 0 9d 3c 64
        E 80 8d 30 40
        E 0 8d 3c 40
        E 16 9d 2e 64
        E 0 9d 3a 64
        E 80 8d 2e 40
        E 0 8d 3a 40
        E 16 9d 2d 64
        E 0 9d 39 64
        E 80 8d 2d 40
        E 0 8d 39 40
        E 16 9d 2b 64
        E 0 9d 37 64
        E 80 8d 2b 40
        E 0 8d 37 40
        E 16 9d 35 64
        E 0 9d 29 64
        E 80 8d 35 40
        E 0 8d 29 40
        E 16 9d 29 64
        E 0 9d 35 64
        E 80 8d 29 40
        E 0 8d 35 40
        E 16 9d 28 64
        E 0 9d 34 64
        E 80 8d 28 40
        E 0 8d 34 40
        E 16 9d 26 64
        E 0 9d 32 64
        E 80 8d 26 40
        E 0 8d 32 40
        E 16 9d 24 64
        E 0 9d 30 64
        E 80 8d 24 40
        E 0 8d 30 40
        E 16 9d 2e 64
        E 0 9d 3a 64
        E 80 8d 2e 40
        E 0 8d 3a 40
        E 16 9d 2d 64
        E 0 9d 39 64
        E 80 8d 2d 40
        E 0 8d 39 40
        E 16 9d 2b 64
        E 0 9d 37 64
        E 80 8d 2b 40
        E 0 8d 37 40
        E 16 9d 29 64
        E 0 9d 35 64
        E 176 8d 29 40
        E 0 8d 35 40
        E 16 9d 2b 64
        E 0 9d 37 64
        E 176 8d 2b 40
        E 0 8d 37 40
        E 16 9d 29 64
        E 0 9d 35 64
        E 176 8d 29 40
        E 0 8d 35 40
        E 16 9d 2e 64
        E 0 9d 3a 64
        E 176 8d 2e 40
        E 0 8d 3a 40
        E 16 9d 2d 64
        E 0 9d 39 64
        E 176 8d 2d 40
        E 0 8d 39 40
        E 16 9d 2b 64
        E 0 9d 37 64
        E 176 8d 2b 40
        E 0 8d 37 40
        E 16 9d 29 64
        E 0 9d 35 64
        E 176 8d 29 40
        E 0 8d 35 40
        E 16 9d 2b 64
        E 0 9d 37 64
        E 80 8d 2b 40
        E 0 8d 37 40
        E 16 9d 2d 64
        E 0 9d 39 64
        E 80 8d 2d 40
        E 0 8d 39 40
        E 16 9d 3c 64
        E 0 9d 30 64
        E 176 8d 3c 40
        E 0 8d 30 40
        E 16 9d 30 64
        E 0 9d 3c 64
        E 80 8d 30 40
        E 0 8d 3c 40
        E 16 9d 30 64
        E 0 9d 3c 64
        E 80 8d 30 40
        E 0 8d 3c 40
        E 16 9d 2e 64
        E 0 9d 3a 64
        E 80 8d 2e 40
        E 0 8d 3a 40
        E 16 9d 24 64
        E 0 9d 30 64
        E 80 8d 24 40
        E 0 8d 30 40
        E 16 9d 34 64
        E 0 9d 28 64
        E 80 8d 34 40
        E 0 8d 28 40
        E 16 9d 2b 64
        E 0 9d 37 64
        E 80 8d 2b 40
        E 0 8d 37 40
        E 16 9d 3a 64
        E 0 9d 2e 64
        E 80 8d 3a 40
        E 0 8d 2e 40
        E 16 9d 39 64
        E 0 9d 2d 64
        E 80 8d 39 40
        E 0 8d 2d 40
        E 16 9d 2b 64
        E 0 9d 37 64
        E 80 8d 2b 40
        E 0 8d 37 40
        E 16 9d 29 64
        E 0 9d 35 64
        E 80 8d 29 40
        E 0 8d 35 40
        E 16 9d 3a 64
        E 0 9d 2e 64
        E 80 8d 3a 40
        E 0 8d 2e 40
        E 16 9d 30 64
        E 0 9d 3c 64
        E 80 8d 30 40
        E 0 8d 3c 40
        E 16 9d 28 64
        E 0 9d 34 64
        E 80 8d 28 40
        E 0 8d 34 40
        E 16 9d 2b 64
        E 0 9d 37 64
        E 80 8d 2b 40
        E 0 8d 37 40
        E 16 9d 30 64
        E 0 9d 24 64
        E 464 8d 30 40
        E 0 8d 24 40
        E 16 9d 24 64
        E 0 9d 30 64
        E 80 8d 24 40
        E 0 8d 30 40
        E 16 9d 28 64
        E 0 9d 34 64
        E 80 8d 28 40
        E 0 8d 34 40
        E 16 9d 2b 64
        E 0 9d 37 64
        E 80 8d 2b 40
        E 0 8d 37 40
        E 16 9d 29 64
        E 0 9d 35 64
        E 464 8d 29 40
        E 0 8d 35 40
        E 16 9d 30 64
        E 0 9d 3c 64
        E 80 8d 30 40
        E 0 8d 3c 40
        E 16 9d 2d 64
        E 0 9d 39 64
        E 80 8d 2d 40
        E 0 8d 39 40
        E 16 9d 35 64
        E 0 9d 29 64
        E 80 8d 35 40
        E 0 8d 29 40
        E 16 9d 28 64
        E 0 9d 34 64
        E 368 8d 28 40
        E 0 8d 34 40
        E 16 9d 24 64
        E 0 9d 30 64
        E 368 8d 24 40
        E 0 8d 30 40
        E 16 9d 29 64
        E 0 9d 35 64
        E 176 8d 29 40
        E 0 8d 35 40
        E 16 9d 29 64
        E 0 9d 35 64
        E 128 8d 29 40
        E 0 8d 35 40
        E 16 9d 29 64
        E 0 9d 35 64
        E 32 8d 29 40
        E 0 8d 35 40
        E 16 9d 29 64
        E 0 9d 35 64
        E 176 8d 29 40
        E 0 8d 35 40
        E 16 b0 7b 00
        GUID {9DB25ADF-2CCE-E043-9573-0136CCEAFC8F}
        IGNTEMPO 0 120 4 4
        SRCCOLOR 204
        VELLANE -1 86 6
        CFGEDITVIEW 9364.427665 755.447688 64 12 0 0 0 0 0 0.5
        KEYSNAP 0
        TRACKSEL 252
        EVTFILTER 0 -1 -1 -1 -1 0 0 0 0 -1 -1 -1 -1 0 -1 0 -1 -1
        CFGEDIT 1 0 0 0 0 0 1 0 1 1 1 0.25 285 20 1280 633 0 0 2 3 0 0 0 0 0 0.5 0 0 1 64
      >
    >
  >
  <TRACK {4A6CD977-ADCC-3A4D-927C-BB2CEF4B0809}
    NAME "vst Gladiator"
    PEAKCOL 27222112
    BEAT -1
    AUTOMODE 0
    VOLPAN 0.25118864315096 0 -1 -1 1
    MUTESOLO 0 0 0
    IPHASE 0
    ISBUS 0 0
    BUSCOMP 2 0
    SHOWINMIX 1 0.6667 0.464368 1 0.5 0 0 0
    FREEMODE 0
    SEL 0
    REC 0 0 0 0 0 0 0
    VU 2
    TRACKHEIGHT 122 0
    INQ 0 0 0 0.5 100 0 0 100
    NCHAN 2
    FX 1
    TRACKID {4A6CD977-ADCC-3A4D-927C-BB2CEF4B0809}
    PERF 0
    MIDIOUT -1
    MAINSEND 1 0
    <FXCHAIN
      SHOW 0
      LASTSEL 0
      DOCKED 0
      BYPASS 0 0 0
      <VST "VSTi: Gladiator (Tone2.com)" Gladiator.vst 0 "" 1412581196
        TEcyVO5e7f4AAAAAAgAAAAEAAAAAAAAAAgAAAAAAAABaBAAAAQAAAAIDEAA=
        Q2NuSwAAAGBGeENrAAAAAVQyR0wAAAABAAABB09SIENodXJjaCBNRgAAAAAAAAAAAAAAAAAAAAA9H753AAAAAAAAAAA/gAAAAAAAAD8AAAAAAAAAAAAAAD8AAAA8zMzN
        AAAAAAAAAAA/AAAAAAAAAD8AAAA/AAAAPtwo9gAAAAAAAAAAAAAAAAAAAAA/AAAAAAAAAD8AAAAAAAAAAAAAAD8AAAA7xJumPgo9cD6KPXE/AAAAAAAAAD8BCO8/AAAA
        PxR64T5MzMw9E3S8PwAAAD8ZmZo/Ao9cAAAAAD8mZmY7o9cKO+VgQj1hR647AxJvPgYHrjybpeM+nCj0AAAAAD8LhR4+0euHAAAAAAAAAAA/JR64PzHrhT+AAAA/gAAA
        P4AAAAAAAAAAAAAAPwAAAAAAAAAAAAAAPwAAAD+AAAA8I9cZPhmZmT8AAAA/AAAAPwAAAD8AAAA7AxJvAAAAAAAAAAA+UeuFAAAAAD8AAAA/AAAAPwAAAAAAAAA6gxJv
        PwAAAAAAAAAAAAAAAAAAADqDEm8/AAAAAAAAAAAAAAAAAAAAPwAAAD8AAAA/AAAAPwAAAD8AAAA/AAAAPwAAAD8AAAA/AAAAPwAAAD8AAAA/AAAAPwAAAD8AAAA/AAAA
        PwAAAD8AAAA/AAAAAAAAAAAAAAAAAAAAAAAAAAAAAAAAAAAAPKwIMQAAAAAAAAAAAAAAAAAAAAAAAAAAAAAAAAAAAAAAAAAAAAAAAAAAAAAAAAAAAAAAAAAAAAAAAAAA
        AAAAAAAAAAA8E3S8AAAAADw0OVgAAAAAPBN0vAAAAAA8NDlYAAAAADwTdLwAAAAAPDQ5WAAAAAA8E3S8AAAAADw0OVgAAAAAAAAAAAAAAAA8VP30PDQ5WQAAAAAAAAAA
        AAAAAAAAAAAAAAAAPPXCkAAAAAAAAAAAPkI09z5lhGo/QjT3P0ae5j8AAAA/AAAAAAAAADsDEm87gxJvAAAAAAAAAAAAAAAAPwAAADqDEm87RJumP4AAAEaWj8MAAAAA
        AAAAAAAAAAAAAAAAP4AAAAAAAAA/gAAAP4AAAAAAAAA/gAAAAAAAAD8AAAA/AAAAPwAAAD8AAAA/AAAAPwAAAD8AAAA/gAAAAAAAAAAAAAAAAAAAAAAAAD8AAAA+gAAA
        PwAAAD8AAAA/AAAAPwAAAAAAAAA/AAAAPwAAAD8AAAA/AAAAPwAAAAAAAAA/AAAAPwAAAAAAAAAAAAAAAAAAAAAAAAAAAAAAAAAAAAAAAAAAAAAAAAAAAAAAAAAAAAAA
        AAAAAD8AAAA/AAAAPwAAAD8AAAA/AAAAPwAAAAAAAAAAAAAAP4AAAAAAAAAAAAAAAAAAAAAAAAAAAAAAAAAAAAAAAAAAAAAAAAAAAAAAAAAAAAAAAAAAAAAAAAAAAAAA
        AAAAAAAAAAAAAAAAAAAAAAAAAAAAAAAAAAAAAAAAAAAAAAAAAAAAAAAAAAAAAAAASS7EgAMCqqusrQ==
        AE9SIENodXJjaCBNRgAQAAAA
      >
      PRESETNAME "OR Church MF"
      FLOATPOS 862 325 986 798
      FXID {532372E3-5B0D-9345-A9C8-98A8EBAF9A7E}
      WAK 0
    >
    <ITEM
      POSITION 0
      SNAPOFFS 0
      LENGTH 47.5
      LOOP 1
      ALLTAKES 0
      FADEIN 1 0 0 1 0 0
      FADEOUT 1 0 0 1 0 0
      MUTE 0
      SEL 0
      YPOS 0 0.166667
      IGUID {7655FAB5-97E1-F140-8084-12C9FC463538}
      IID 1
      NAME "R.H.                 - National_Anthems_-_United_Arab_Emirates.mid"
      VOLPAN 1 0 1 -1
      SOFFS 0 0
      PLAYRATE 1 1 0 -1 0 0.0025
      CHANMODE 0
      GUID {F72AD800-C93A-F146-BE0B-5080D66848EC}
      <SOURCE MIDI
        HASDATA 1 192 QN
        POOLEDEVTS {6961F17A-4756-414A-A1CB-4101E90A65F2}
        <X 0 0 0 0 3 "R.H.                "
          /wNSLkguICAgICAgICAgICAgICAgIA==
        >
        <X 0 0 0 0 1 "THE SOFTWARE TOOLWORKS"
          /wFUSEUgU09GVFdBUkUgVE9PTFdPUktT
        >
        <X 0 0 0 0 1 "WORLD ATLAS"
          /wFXT1JMRCBBVExBUw==
        >
        <X 0 0 0 0 1 "MultiMedia Windows Version"
          /wFNdWx0aU1lZGlhIFdpbmRvd3MgVmVyc2lvbg==
        >
        <X 0 0 0 0 1 "Country: UNITED ARAB EMIRATES"
          /wFDb3VudHJ5OiBVTklURUQgQVJBQiBFTUlSQVRFUw==
        >
        <X 0 0 0 0 1 "Anthem Name:"
          /wFBbnRoZW0gTmFtZTo=
        >
        <X 0 0 0 0 1 "(p) (c) The Software Toolworks 1991"
          /wEocCkgKGMpIFRoZSBTb2Z0d2FyZSBUb29sd29ya3MgMTk5MQ==
        >
        <X 0 0 0 0 1 "edit date: 9-14-91"
          /wFlZGl0IGRhdGU6IDktMTQtOTE=
        >
        <X 0 0 0 0 1 "MMWIN EDIT DATE: 9-14-91"
          /wFNTVdJTiBFRElUIERBVEU6IDktMTQtOTE=
        >
        <X 0 0 0 0 1 "This file provided by:"
          /wFUaGlzIGZpbGUgcHJvdmlkZWQgYnk6
        >
        <X 0 0 0 0 1 "Rob Wallace Music"
          /wFSb2IgV2FsbGFjZSBNdXNpYw==
        >
        <X 0 0 0 0 1 "(602) 979-6201"
          /wEoNjAyKSA5NzktNjIwMQ==
        >
        e 0 91 3c 64
        e 0 91 41 64
        e 0 91 45 64
        e 0 91 48 64
        e 176 81 3c 40
        e 0 81 41 40
        e 0 81 45 40
        e 0 81 48 40
        e 16 91 41 64
        e 0 91 46 64
        e 0 91 4a 64
        e 0 91 4d 64
        e 128 81 41 40
        e 0 81 46 40
        e 0 81 4a 40
        e 0 81 4d 40
        e 16 91 40 64
        e 0 91 4c 64
        e 32 81 40 40
        e 0 81 4c 40
        e 16 91 41 64
        e 0 91 45 64
        e 0 91 48 64
        e 0 91 4d 64
        e 80 81 41 40
        e 0 81 45 40
        e 0 81 48 40
        e 16 91 43 64
        e 0 91 46 64
        e 80 81 4d 40
        e 0 81 43 40
        e 0 81 46 40
        e 16 91 41 64
        e 0 91 45 64
        e 0 91 48 64
        e 80 81 41 40
        e 0 81 45 40
        e 16 91 40 64
        e 0 91 43 64
        e 80 81 48 40
        e 0 81 40 40
        e 0 81 43 40
        e 16 91 41 64
        e 0 91 48 64
        e 0 91 4d 64
        e 176 81 41 40
        e 0 81 48 40
        e 0 81 4d 40
        e 16 91 43 64
        e 0 91 48 64
        e 0 91 4f 64
        e 80 81 43 40
        e 0 81 4f 40
        e 16 91 45 64
        e 0 91 51 64
        e 80 81 48 40
        e 0 81 45 40
        e 0 81 51 40
        e 16 91 45 64
        e 0 91 48 64
        e 0 91 4d 64
        e 0 91 51 64
        e 176 81 45 40
        e 0 81 48 40
        e 0 81 4d 40
        e 0 81 51 40
        e 16 91 43 64
        e 0 91 48 64
        e 0 91 4f 64
        e 80 81 43 40
        e 0 81 48 40
        e 0 81 4f 40
        e 16 91 41 64
        e 0 91 45 64
        e 0 91 48 64
        e 0 91 4d 64
        e 80 81 41 40
        e 0 81 45 40
        e 0 81 48 40
        e 0 81 4d 40
        e 16 91 40 64
        e 0 91 43 64
        e 0 91 48 64
        e 0 91 4c 64
        e 176 81 40 40
        e 0 81 43 40
        e 0 81 48 40
        e 0 81 4c 40
        e 16 91 41 64
        e 0 91 45 64
        e 0 91 48 64
        e 0 91 4d 64
        e 80 81 41 40
        e 0 81 45 40
        e 0 81 48 40
        e 0 81 4d 40
        e 16 91 43 64
        e 0 91 48 64
        e 0 91 4c 64
        e 0 91 4f 64
        e 80 81 43 40
        e 0 81 48 40
        e 0 81 4c 40
        e 0 81 4f 40
        e 16 91 43 64
        e 0 91 48 64
        e 0 91 4c 64
        e 0 91 4f 64
        e 368 81 43 40
        e 0 81 48 40
        e 0 81 4c 40
        e 0 81 4f 40
        e 16 91 43 64
        e 0 91 46 64
        e 0 91 4c 64
        e 0 91 4f 64
        e 176 81 43 40
        e 0 81 46 40
        e 0 81 4c 40
        e 0 81 4f 40
        e 16 91 43 64
        e 0 91 46 64
        e 0 91 4c 64
        e 0 91 4f 64
        e 128 81 43 40
        e 0 81 46 40
        e 0 81 4c 40
        e 0 81 4f 40
        e 16 91 43 64
        e 0 91 46 64
        e 0 91 4c 64
        e 0 91 4f 64
        e 32 81 43 40
        e 0 81 46 40
        e 0 81 4c 40
        e 0 81 4f 40
        e 16 91 43 64
        e 0 91 46 64
        e 0 91 4c 64
        e 0 91 4f 64
        e 176 81 43 40
        e 0 81 46 40
        e 0 81 4c 40
        e 0 81 4f 40
        e 16 91 3c 64
        e 0 91 40 64
        e 0 91 48 64
        e 176 81 3c 40
        e 0 81 40 40
        e 0 81 48 40
        e 16 91 43 64
        e 0 91 48 64
        e 0 91 4c 64
        e 0 91 4f 64
        e 128 81 43 40
        e 0 81 48 40
        e 0 81 4c 40
        e 0 81 4f 40
        e 16 91 42 64
        e 0 91 4e 64
        e 32 81 42 40
        e 0 81 4e 40
        e 16 91 43 64
        e 0 91 4f 64
        e 80 81 43 40
        e 0 81 4f 40
        e 16 91 45 64
        e 0 91 51 64
        e 80 81 45 40
        e 0 81 51 40
        e 16 91 46 64
        e 0 91 4c 64
        e 0 91 4f 64
        e 0 91 52 64
        e 176 81 46 40
        e 0 81 4c 40
        e 0 81 4f 40
        e 0 81 52 40
        e 16 91 43 64
        e 0 91 48 64
        e 0 91 4c 64
        e 0 91 4f 64
        e 176 81 43 40
        e 0 81 48 40
        e 0 81 4c 40
        e 0 81 4f 40
        e 16 91 45 64
        e 0 91 4d 64
        e 0 91 51 64
        e 128 81 45 40
        e 0 81 4d 40
        e 0 81 51 40
        e 16 91 43 64
        e 0 91 4c 64
        e 0 91 4f 64
        e 32 81 43 40
        e 0 81 4c 40
        e 0 81 4f 40
        e 16 91 45 64
        e 0 91 4d 64
        e 0 91 51 64
        e 80 81 45 40
        e 0 81 4d 40
        e 0 81 51 40
        e 16 91 46 64
        e 0 91 4f 64
        e 0 91 52 64
        e 80 81 46 40
        e 0 81 4f 40
        e 0 81 52 40
        e 16 91 48 64
        e 0 91 51 64
        e 0 91 54 64
        e 176 81 48 40
        e 0 81 51 40
        e 0 81 54 40
        e 16 91 41 64
        e 0 91 45 64
        e 0 91 4d 64
        e 176 81 41 40
        e 0 81 45 40
        e 0 81 4d 40
        e 16 91 43 64
        e 0 91 46 64
        e 0 91 4c 64
        e 0 91 4f 64
        e 176 81 43 40
        e 0 81 46 40
        e 0 81 4c 40
        e 0 81 4f 40
        e 16 91 46 64
        e 0 91 4a 64
        e 0 91 52 64
        e 176 81 46 40
        e 0 81 4a 40
        e 0 81 52 40
        e 16 91 45 64
        e 0 91 48 64
        e 0 91 51 64
        e 128 81 45 40
        e 0 81 48 40
        e 0 81 51 40
        e 16 91 43 64
        e 0 91 4f 64
        e 32 81 43 40
        e 0 81 4f 40
        e 16 91 3e 64
        e 0 91 46 64
        e 0 91 4a 64
        e 80 81 3e 40
        e 0 81 46 40
        e 0 81 4a 40
        e 16 91 40 64
        e 0 91 46 64
        e 0 91 4c 64
        e 80 81 40 40
        e 0 81 46 40
        e 0 81 4c 40
        e 16 91 41 64
        e 0 91 45 64
        e 0 91 48 64
        e 0 91 4d 64
        e 176 81 41 40
        e 0 81 45 40
        e 0 81 48 40
        e 0 81 4d 40
        e 16 91 41 64
        e 0 91 45 64
        e 0 91 48 64
        e 0 91 4d 64
        e 128 81 41 40
        e 0 81 45 40
        e 0 81 48 40
        e 0 81 4d 40
        e 16 91 41 64
        e 0 91 45 64
        e 0 91 48 64
        e 0 91 4d 64
        e 32 81 41 40
        e 0 81 45 40
        e 0 81 48 40
        e 0 81 4d 40
        e 16 91 41 64
        e 0 91 45 64
        e 0 91 48 64
        e 0 91 4d 64
        e 176 81 41 40
        e 0 81 45 40
        e 0 81 48 40
        e 0 81 4d 40
        e 208 91 41 64
        e 0 91 4d 64
        e 176 81 41 40
        e 0 81 4d 40
        e 16 91 41 64
        e 0 91 4d 64
        e 128 81 41 40
        e 0 81 4d 40
        e 16 91 40 64
        e 0 91 4c 64
        e 32 81 40 40
        e 0 81 4c 40
        e 16 91 3e 64
        e 0 91 4a 64
        e 176 81 3e 40
        e 0 81 4a 40
        e 16 91 3e 64
        e 0 91 4a 64
        e 128 81 3e 40
        e 0 81 4a 40
        e 16 91 3c 64
        e 0 91 48 64
        e 32 81 3c 40
        e 0 81 48 40
        e 16 91 3a 64
        e 0 91 46 64
        e 176 81 3a 40
        e 0 81 46 40
        e 16 91 3a 64
        e 0 91 46 64
        e 128 81 3a 40
        e 0 81 46 40
        e 16 91 39 64
        e 0 91 45 64
        e 32 81 39 40
        e 0 81 45 40
        e 16 91 37 64
        e 0 91 43 64
        e 80 81 37 40
        e 0 81 43 40
        e 16 91 41 64
        e 32 81 41 40
        e 16 91 43 64
        e 32 81 43 40
        e 16 91 45 64
        e 32 81 45 40
        e 16 91 46 64
        e 32 81 46 40
        e 16 91 48 64
        e 32 81 48 40
        e 16 91 4a 64
        e 32 81 4a 40
        e 16 91 40 64
        e 0 91 43 64
        e 0 91 4c 64
        e 176 81 40 40
        e 0 81 43 40
        e 0 81 4c 40
        e 16 91 40 64
        e 0 91 4c 64
        e 128 81 40 40
        e 0 81 4c 40
        e 16 91 3e 64
        e 0 91 4a 64
        e 32 81 3e 40
        e 0 81 4a 40
        e 16 91 3c 64
        e 0 91 40 64
        e 0 91 48 64
        e 176 81 3c 40
        e 0 81 40 40
        e 0 81 48 40
        e 16 91 3c 64
        e 0 91 40 64
        e 0 91 48 64
        e 128 81 3c 40
        e 0 81 40 40
        e 0 81 48 40
        e 16 91 3a 64
        e 0 91 3e 64
        e 0 91 46 64
        e 32 81 3a 40
        e 0 81 3e 40
        e 0 81 46 40
        e 16 91 39 64
        e 0 91 3c 64
        e 0 91 45 64
        e 176 81 39 40
        e 0 81 3c 40
        e 0 81 45 40
        e 16 91 39 64
        e 0 91 3c 64
        e 0 91 45 64
        e 128 81 39 40
        e 0 81 3c 40
        e 0 81 45 40
        e 16 91 37 64
        e 0 91 3a 64
        e 0 91 43 64
        e 32 81 37 40
        e 0 81 3a 40
        e 0 81 43 40
        e 16 91 39 64
        e 0 91 41 64
        e 320 81 39 40
        e 0 81 41 40
        e 16 91 41 64
        e 0 91 4d 64
        e 32 81 41 40
        e 0 81 4d 40
        e 16 91 43 64
        e 0 91 48 64
        e 0 91 4f 64
        e 176 81 43 40
        e 0 81 48 40
        e 0 81 4f 40
        e 16 91 45 64
        e 0 91 48 64
        e 0 91 51 64
        e 176 81 45 40
        e 0 81 48 40
        e 0 81 51 40
        e 16 91 46 64
        e 0 91 4c 64
        e 0 91 4f 64
        e 0 91 52 64
        e 176 81 46 40
        e 0 81 4c 40
        e 0 81 4f 40
        e 0 81 52 40
        e 16 91 43 64
        e 0 91 4c 64
        e 0 91 4f 64
        e 176 81 43 40
        e 0 81 4c 40
        e 0 81 4f 40
        e 16 91 45 64
        e 0 91 4d 64
        e 0 91 51 64
        e 176 81 45 40
        e 0 81 4d 40
        e 0 81 51 40
        e 16 91 46 64
        e 0 91 4f 64
        e 0 91 52 64
        e 176 81 46 40
        e 0 81 4f 40
        e 0 81 52 40
        e 16 91 48 64
        e 0 91 51 64
        e 0 91 54 64
        e 176 81 48 40
        e 0 81 51 40
        e 0 81 54 40
        e 16 91 4a 64
        e 0 91 52 64
        e 0 91 56 64
        e 176 81 4a 40
        e 0 81 52 40
        e 0 81 56 40
        e 16 91 40 64
        e 0 91 46 64
        e 0 91 4c 64
        e 80 81 40 40
        e 0 81 46 40
        e 0 81 4c 40
        e 16 91 3c 64
        e 0 91 48 64
        e 80 81 3c 40
        e 0 81 48 40
        e 16 91 3e 64
        e 0 91 4a 64
        e 80 81 3e 40
        e 0 81 4a 40
        e 16 91 41 64
        e 0 91 4d 64
        e 80 81 41 40
        e 0 81 4d 40
        e 16 91 40 64
        e 0 91 4c 64
        e 80 81 40 40
        e 0 81 4c 40
        e 16 91 3c 64
        e 0 91 48 64
        e 80 81 3c 40
        e 0 81 48 40
        e 16 91 3e 64
        e 0 91 4a 64
        e 80 81 3e 40
        e 0 81 4a 40
        e 16 91 40 64
        e 0 91 4c 64
        e 80 81 40 40
        e 0 81 4c 40
        e 16 91 41 64
        e 0 91 45 64
        e 0 91 4d 64
        e 80 81 41 40
        e 0 81 45 40
        e 0 81 4d 40
        e 16 91 41 64
        e 0 91 4d 64
        e 32 81 41 40
        e 0 81 4d 40
        e 16 91 41 64
        e 0 91 4d 64
        e 32 81 41 40
        e 0 81 4d 40
        e 16 91 41 64
        e 0 91 4d 64
        e 80 81 41 40
        e 0 81 4d 40
        e 16 91 41 64
        e 0 91 4d 64
        e 80 81 41 40
        e 0 81 4d 40
        e 16 91 41 64
        e 0 91 4d 64
        e 80 81 41 40
        e 0 81 4d 40
        e 16 91 41 64
        e 0 91 4d 64
        e 80 81 41 40
        e 0 81 4d 40
        e 16 91 41 64
        e 0 91 4d 64
        e 80 81 41 40
        e 0 81 4d 40
        e 16 91 41 64
        e 0 91 4d 64
        e 80 81 41 40
        e 0 81 4d 40
        e 16 91 3c 64
        e 0 91 41 64
        e 0 91 45 64
        e 0 91 48 64
        e 176 81 3c 40
        e 0 81 41 40
        e 0 81 45 40
        e 0 81 48 40
        e 16 91 41 64
        e 0 91 4a 64
        e 0 91 4d 64
        e 128 81 41 40
        e 0 81 4a 40
        e 0 81 4d 40
        e 16 91 40 64
        e 0 91 4c 64
        e 32 81 40 40
        e 0 81 4c 40
        e 16 91 41 64
        e 0 91 48 64
        e 0 91 4d 64
        e 80 81 48 40
        e 16 91 46 64
        e 80 81 41 40
        e 0 81 4d 40
        e 0 81 46 40
        e 16 91 3c 64
        e 0 91 45 64
        e 0 91 48 64
        e 80 81 45 40
        e 16 91 43 64
        e 80 81 3c 40
        e 0 81 48 40
        e 0 81 43 40
        e 16 91 41 64
        e 0 91 48 64
        e 0 91 4d 64
        e 176 81 41 40
        e 0 81 48 40
        e 0 81 4d 40
        e 16 91 43 64
        e 0 91 48 64
        e 0 91 4f 64
        e 80 81 43 40
        e 0 81 48 40
        e 0 81 4f 40
        e 16 91 45 64
        e 0 91 48 64
        e 0 91 51 64
        e 80 81 45 40
        e 0 81 48 40
        e 0 81 51 40
        e 16 91 45 64
        e 0 91 48 64
        e 0 91 51 64
        e 176 81 45 40
        e 0 81 48 40
        e 0 81 51 40
        e 16 91 43 64
        e 0 91 48 64
        e 0 91 4f 64
        e 80 81 43 40
        e 0 81 48 40
        e 0 81 4f 40
        e 16 91 41 64
        e 0 91 4d 64
        e 80 81 41 40
        e 0 81 4d 40
        e 16 91 40 64
        e 0 91 48 64
        e 0 91 4c 64
        e 176 81 40 40
        e 0 81 48 40
        e 0 81 4c 40
        e 16 91 41 64
        e 0 91 48 64
        e 0 91 4d 64
        e 80 81 41 40
        e 0 81 48 40
        e 0 81 4d 40
        e 16 91 43 64
        e 0 91 48 64
        e 0 91 4f 64
        e 80 81 43 40
        e 0 81 48 40
        e 0 81 4f 40
        e 16 91 43 64
        e 0 91 4c 64
        e 0 91 4f 64
        e 368 81 43 40
        e 0 81 4c 40
        e 0 81 4f 40
        e 16 91 43 64
        e 0 91 46 64
        e 0 91 4f 64
        e 176 81 43 40
        e 0 81 46 40
        e 0 81 4f 40
        e 16 91 43 64
        e 0 91 46 64
        e 0 91 4f 64
        e 128 81 43 40
        e 0 81 46 40
        e 0 81 4f 40
        e 16 91 43 64
        e 0 91 4f 64
        e 32 81 43 40
        e 0 81 4f 40
        e 16 91 43 64
        e 0 91 4f 64
        e 176 81 43 40
        e 0 81 4f 40
        e 16 91 3c 64
        e 0 91 48 64
        e 176 81 3c 40
        e 0 81 48 40
        e 16 91 43 64
        e 0 91 48 64
        e 0 91 4c 64
        e 0 91 4f 64
        e 128 81 43 40
        e 0 81 48 40
        e 0 81 4c 40
        e 0 81 4f 40
        e 16 91 42 64
        e 0 91 4e 64
        e 32 81 42 40
        e 0 81 4e 40
        e 16 91 43 64
        e 0 91 4f 64
        e 80 81 43 40
        e 0 81 4f 40
        e 16 91 45 64
        e 0 91 51 64
        e 80 81 45 40
        e 0 81 51 40
        e 16 91 46 64
        e 0 91 4f 64
        e 0 91 52 64
        e 176 81 46 40
        e 0 81 4f 40
        e 0 81 52 40
        e 16 91 43 64
        e 0 91 48 64
        e 0 91 4c 64
        e 0 91 4f 64
        e 176 81 43 40
        e 0 81 48 40
        e 0 81 4c 40
        e 0 81 4f 40
        e 16 91 45 64
        e 0 91 4d 64
        e 0 91 51 64
        e 128 81 45 40
        e 0 81 4d 40
        e 0 81 51 40
        e 16 91 43 64
        e 0 91 4f 64
        e 32 81 43 40
        e 0 81 4f 40
        e 16 91 45 64
        e 0 91 51 64
        e 80 81 45 40
        e 0 81 51 40
        e 16 91 46 64
        e 0 91 52 64
        e 80 81 46 40
        e 0 81 52 40
        e 16 91 48 64
        e 0 91 54 64
        e 176 81 48 40
        e 0 81 54 40
        e 16 91 41 64
        e 0 91 48 64
        e 0 91 4d 64
        e 176 81 41 40
        e 0 81 48 40
        e 0 81 4d 40
        e 16 91 43 64
        e 0 91 46 64
        e 0 91 4f 64
        e 176 81 43 40
        e 0 81 46 40
        e 0 81 4f 40
        e 16 91 46 64
        e 0 91 4f 64
        e 0 91 52 64
        e 176 81 46 40
        e 0 81 4f 40
        e 0 81 52 40
        e 16 91 45 64
        e 0 91 4d 64
        e 0 91 51 64
        e 80 81 45 40
        e 0 81 4d 40
        e 0 81 51 40
        e 16 91 43 64
        e 0 91 4f 64
        e 80 81 43 40
        e 0 81 4f 40
        e 16 91 3e 64
        e 0 91 41 64
        e 0 91 4a 64
        e 80 81 3e 40
        e 0 81 41 40
        e 0 81 4a 40
        e 16 91 40 64
        e 0 91 43 64
        e 0 91 4c 64
        e 80 81 40 40
        e 0 81 43 40
        e 0 81 4c 40
        e 16 91 41 64
        e 0 91 45 64
        e 0 91 4d 64
        e 176 81 41 40
        e 0 81 45 40
        e 0 81 4d 40
        e 16 91 41 64
        e 0 91 45 64
        e 0 91 4d 64
        e 128 81 41 40
        e 0 81 45 40
        e 0 81 4d 40
        e 16 91 41 64
        e 0 91 45 64
        e 0 91 4d 64
        e 32 81 41 40
        e 0 81 45 40
        e 0 81 4d 40
        e 16 91 41 64
        e 0 91 45 64
        e 0 91 4d 64
        e 176 81 41 40
        e 0 81 45 40
        e 0 81 4d 40
        E 16 b0 7b 00
        GUID {834CB3BD-F8D4-1746-9C72-178E786307DD}
        IGNTEMPO 0 120 4 4
        SRCCOLOR 199
        VELLANE -1 86 6
        CFGEDITVIEW 0 11.073684 65 12 0 -1 0 0 0 0.5
        KEYSNAP 0
        TRACKSEL 252
        EVTFILTER 0 -1 -1 -1 -1 0 0 0 0 -1 -1 -1 -1 0 -1 0 -1 -1
        CFGEDIT 1 0 0 0 0 0 1 0 1 1 1 0.25 285 20 1280 633 0 0 2 3 0 0 0 0 0 0.5 0 0 1 64
      >
    >
  >
  <TRACK {F23F8223-271A-294D-A229-F474D58B7A97}
    NAME "vst Gladiator"
    PEAKCOL 27222112
    BEAT -1
    AUTOMODE 0
    VOLPAN 0.22181548715871 0 -1 -1 1
    MUTESOLO 1 0 0
    IPHASE 0
    ISBUS 0 0
    BUSCOMP 2 0
    SHOWINMIX 1 0.6667 0.464368 1 0.5 0 0 0
    FREEMODE 0
    SEL 0
    REC 0 0 0 0 0 0 0
    VU 2
    TRACKHEIGHT 84 0
    INQ 0 0 0 0.5 100 0 0 100
    NCHAN 2
    FX 1
    TRACKID {F23F8223-271A-294D-A229-F474D58B7A97}
    PERF 0
    MIDIOUT -1
    MAINSEND 1 0
    <FXCHAIN
      WNDRECT 528 36 724 387
      SHOW 0
      LASTSEL 0
      DOCKED 0
      BYPASS 0 0 0
      <VST "VSTi: Gladiator (Tone2.com)" Gladiator.vst 0 "" 1412581196
        TEcyVO5e7f4AAAAAAgAAAAEAAAAAAAAAAgAAAAAAAABaBAAAAQAAAAAAEAA=
        Q2NuSwAAAGBGeENrAAAAAVQyR0wAAAABAAABB0luaXQAAAAAAAAAAAAAAAAAAAAAAAAAAAAAAAA9zMzNPMzMzTw0OVg9uFH0PXnbIz+AAAA7xJumPb52yT+AAAA7xJum
        AAAAAD6mZmY+PXCkP4AAAD8AAAA/AAAAPwAAAAAAAAA9ffO2PdDlYDy8an8/RR64AAAAAD+AAAA8NDlYPZFocz71wo87RJumPbhR6D69cKQ+PXCkP4AAAD7o9cM/AAAA
        PwAAAAAAAAAAAAAAPwAAAD8AAAA/AAAAPtmZmj8AAAAAAAAAO+VgQj4j1woAAAAAPk21xDtEm6Y/T1woPUzMzD8nr+E+1wnuAAAAAD1hR7A/KPXCPo9cKAAAAAA/AAAA
        PwAAAAAAAAAAAAAAPwAAAAAAAAAAAAAAP4AAAD+AAAAAAAAAPwZmmD8AAAA/AAAAPwAAAD8AAAAAAAAAPwAAAD8AAAA/AAAAAAAAAD8AAAA/AAAAPwAAAAAAAAA6gxJv
        P1Cj1wAAAAA/gAAAAAAAADqDEm8/AAAAAAAAAAAAAAAAAAAAPwAAAAAAAAA/gAAAAAAAAD+AAAAAAAAAPwAAAD8AAAA/AAAAPwAAAD8AAAA/AAAAPwAAAD8AAAA/AAAA
        PwAAAD8AAAA/EeuGPKPXCjqDEm88RJumAAAAAAAAAAAAAAAAPLxqfwAAAAAAAAAAAAAAAAAAAAAAAAAAAAAAAAAAAAAAAAAAAAAAAAAAAAAAAAAAAAAAAAAAAAAAAAAA
        AAAAAAAAAAA8E3S8AAAAADw0OVgAAAAAPBN0vAAAAAA8NDlYAAAAADwTdLwAAAAAPDQ5WAAAAAA8E3S8AAAAADw0OVgAAAAAPGVgQj2HKwI8ZWBCOwMSbz2JN0w7AxJv
        PLQ5WDyLQ5Y8k3S8PVT99D0XjVA8zMzNPoAAAD9ywjU/AAAAP1GnuT8wjT4/HLCNAAAAADsDEm86gxJvAAAAAAAAAAAAAAAAPwAAADqDEm87RJumP4AAAAAAAAA/gAAA
        AAAAAD+AAAAAAAAAAAAAAAAAAAAAAAAAP4AAAAAAAAA/AAAAAAAAAD8AAAA/AAAAPwAAAD+AAAA/AAAAPwAAAD8AAAA/gAAAP4AAAAAAAAAAAAAAAAAAAD8AAAA/gAAA
        PwAAAAAAAAA+vXCkAAAAAAAAAAA/gAAAP4AAAD8j1wo/gAAAAAAAAAAAAAA/gAAAPwAAAAAAAAAAAAAAAAAAAAAAAAAAAAAAAAAAAAAAAAAAAAAAAAAAAAAAAAAAAAAA
        AAAAAD8AAAA/AAAAPwAAAD8AAAA/AAAAPwAAAAAAAAAAAAAAP4AAAAAAAAAAAAAAAAAAAAAAAAAAAAAAAAAAAAAAAAAAAAAAAAAAAAAAAAAAAAAAAAAAAAAAAAAAAAAA
        AAAAAAAAAAAAAAAAAAAAAAAAAAAAAAAAAAAAAAAAAAAAAAAAAAAAAAAAAAAAAAAAAAAAAAAAqqusrQ==
        AEluaXQAEAAAAA==
      >
      PRESETNAME Init
      FLOATPOS 293 0 987 778
      FXID {532372E3-5B0D-9345-A9C8-98A8EBAF9A7E}
      WAK 0
      BYPASS 0 0 0
      <VST "VST: 8-Bit Shaper (Xfer Records)" 8BitShaper.vst 0 "" 1148539762
        clN1RO5e7f4CAAAAAQAAAAAAAAACAAAAAAAAAAIAAAABAAAAAAAAAAIAAAAAAAAANAIAAAEAAAAAABAA
        ZmaGP20MlT7dQQw/AAAAPyQABAUAAIA//38AAAAAABgXAAAAMAAAABkAAAAaAAAAGgAAABoAAAAbAAAAGwAAABwAAAAcAAAAHAAAAB0AAAAdAAAAHgAAAB4AAAAfAAAA
        HwAAACAAAAAgAAAAIAAAACEAAAAhAAAAIQAAACIAAAAiAAAAIgAAACMAAAAjAAAAIwAAACQAAAAkAAAAJAAAACUAAAAlAAAAKAAAACgAAAApAAAAKQAAACoAAAA1AAAA
        KgAAACoAAAA2AAAAKgAAACoAAAAqAAAAKgAAACoAAAAqAAAAKgAAACsAAAArAAAAOQAAAC0AAAA0AAAAOgAAAC0AAAAtAAAAPAAAAC4AAAAuAAAALwAAADAAAAAwAAAA
        MQAAADEAAAAxAAAAMgAAADMAAAAzAAAAMwAAADcAAAA3AAAANwAAADgAAAA4AAAAOAAAADkAAAA5AAAAOQAAADoAAAA6AAAAOgAAADoAAAA6AAAAOwAAADsAAAA7AAAA
        PAAAADsAAAA7AAAAOwAAADwAAAA8AAAAPAAAADwAAAA9AAAAPQAAAD0AAAA9AAAAPQAAAD4AAAA+AAAAPwAAAEkAAABAAAAAQAAAAEgAAABAAAAAQQAAAEIAAABCAAAA
        QgAAAEMAAABDAAAAQwAAAEQAAABEAAAARQAAAE0AAABGAAAARwAAAEYAAABHAAAASAAAAEgAAABJAAAATwAAAAAAgD+rqqo+q6qqPh0Fwz6OAm0/
        AEluaXQgMQAQAAAA
      >
      PRESETNAME "Init 1"
      FLOATPOS 408 36 277 388
      FXID {9514B2DC-3C2E-9240-BEF6-0C72EF11EB6D}
      WAK 0
    >
    <ITEM
      POSITION 0
      SNAPOFFS 0
      LENGTH 47.5
      LOOP 1
      ALLTAKES 0
      FADEIN 1 0 0 1 0 0
      FADEOUT 1 0 0 1 0 0
      MUTE 0
      SEL 0
      YPOS 0.166667 0.166667
      IGUID {7BE9DED0-CDF5-C74C-AE37-05C5D97CF9D4}
      IID 2
      NAME "L.H.                 - National_Anthems_-_United_Arab_Emirates.mid"
      VOLPAN 1 0 1 -1
      SOFFS 0 0
      PLAYRATE 1 1 0 -1 0 0.0025
      CHANMODE 0
      GUID {26C7A91E-E1B2-5E43-9864-0DB1E307816E}
      <SOURCE MIDI
        HASDATA 1 192 QN
        POOLEDEVTS {889DDF2A-1E42-204A-A39C-CA2BCA99580F}
        <X 0 0 0 0 3 "L.H.                "
          /wNMLkguICAgICAgICAgICAgICAgIA==
        >
        e 0 90 35 64
        e 0 90 29 64
        e 560 80 35 40
        e 0 80 29 40
        e 16 90 3a 64
        e 0 90 2e 64
        e 176 80 3a 40
        e 0 80 2e 40
        e 16 90 2d 64
        e 0 90 39 64
        e 176 80 2d 40
        e 0 80 39 40
        e 16 90 2b 64
        e 0 90 37 64
        e 176 80 2b 40
        e 0 80 37 40
        e 16 90 29 64
        e 0 90 35 64
        e 176 80 29 40
        e 0 80 35 40
        e 16 90 37 64
        e 0 90 2b 64
        e 80 80 37 40
        e 0 80 2b 40
        e 16 90 24 64
        e 0 90 30 64
        e 80 80 24 40
        e 0 80 30 40
        e 16 90 24 64
        e 0 90 30 64
        e 368 80 24 40
        e 0 80 30 40
        e 16 90 3c 64
        e 0 90 30 64
        e 80 80 3c 40
        e 0 80 30 40
        e 16 90 3c 64
        e 0 90 30 64
        e 16 80 3c 40
        e 0 80 30 40
        e 16 90 3c 64
        e 0 90 30 64
        e 16 80 3c 40
        e 0 80 30 40
        e 16 90 3c 64
        e 0 90 30 64
        e 16 80 3c 40
        e 0 80 30 40
        e 16 90 30 64
        e 0 90 3c 64
        e 80 80 30 40
        e 0 80 3c 40
        e 16 90 30 64
        e 0 90 3c 64
        e 80 80 30 40
        e 0 80 3c 40
        e 16 90 28 64
        e 0 90 34 64
        e 176 80 28 40
        e 0 80 34 40
        e 16 90 30 64
        e 0 90 24 64
        e 176 80 30 40
        e 0 80 24 40
        e 16 90 2e 64
        e 0 90 3a 64
        e 80 80 2e 40
        e 0 80 3a 40
        e 16 90 30 64
        e 0 90 3c 64
        e 80 80 30 40
        e 0 80 3c 40
        e 16 90 28 64
        e 0 90 34 64
        e 80 80 28 40
        e 0 80 34 40
        e 16 90 2b 64
        e 0 90 37 64
        e 80 80 2b 40
        e 0 80 37 40
        e 16 90 24 64
        e 0 90 30 64
        e 464 80 24 40
        e 0 80 30 40
        e 16 90 24 64
        e 0 90 30 64
        e 80 80 24 40
        e 0 80 30 40
        e 16 90 28 64
        e 0 90 34 64
        e 80 80 28 40
        e 0 80 34 40
        e 16 90 37 64
        e 0 90 2b 64
        e 80 80 37 40
        e 0 80 2b 40
        e 16 90 29 64
        e 0 90 35 64
        e 464 80 29 40
        e 0 80 35 40
        e 16 90 30 64
        e 0 90 3c 64
        e 80 80 30 40
        e 0 80 3c 40
        e 16 90 2d 64
        e 0 90 39 64
        e 80 80 2d 40
        e 0 80 39 40
        e 16 90 29 64
        e 0 90 35 64
        e 80 80 29 40
        e 0 80 35 40
        e 16 90 24 64
        e 0 90 30 64
        e 368 80 24 40
        e 0 80 30 40
        e 16 90 28 64
        e 0 90 34 64
        e 368 80 28 40
        e 0 80 34 40
        e 16 90 29 64
        e 0 90 30 64
        e 0 90 35 64
        e 176 80 29 40
        e 0 80 30 40
        e 0 80 35 40
        e 16 90 30 64
        e 0 90 35 64
        e 0 90 29 64
        e 128 80 30 40
        e 0 80 35 40
        e 0 80 29 40
        e 16 90 30 64
        e 0 90 35 64
        e 0 90 29 64
        e 32 80 30 40
        e 0 80 35 40
        e 0 80 29 40
        e 16 90 29 64
        e 0 90 30 64
        e 0 90 35 64
        e 176 80 29 40
        e 0 80 30 40
        e 0 80 35 40
        e 208 90 29 64
        e 0 90 35 64
        e 272 80 29 40
        e 0 80 35 40
        e 112 90 2e 64
        e 0 90 3a 64
        e 272 80 2e 40
        e 0 80 3a 40
        e 112 90 34 64
        e 0 90 28 64
        e 272 80 34 40
        e 0 80 28 40
        e 112 90 24 64
        e 0 90 30 64
        e 272 80 24 40
        e 0 80 30 40
        e 112 90 30 64
        e 0 90 24 64
        e 560 80 30 40
        e 0 80 24 40
        e 208 90 35 64
        e 0 90 29 64
        e 560 80 35 40
        e 0 80 29 40
        e 208 90 37 64
        e 0 90 2b 64
        e 176 80 37 40
        e 0 80 2b 40
        e 16 90 29 64
        e 0 90 35 64
        e 176 80 29 40
        e 0 80 35 40
        e 16 90 34 64
        e 0 90 28 64
        e 176 80 34 40
        e 0 80 28 40
        e 16 90 24 64
        e 0 90 30 64
        e 176 80 24 40
        e 0 80 30 40
        e 16 90 35 64
        e 0 90 29 64
        e 176 80 35 40
        e 0 80 29 40
        e 16 90 37 64
        e 0 90 2b 64
        e 176 80 37 40
        e 0 80 2b 40
        e 16 90 39 64
        e 0 90 2d 64
        e 176 80 39 40
        e 0 80 2d 40
        e 16 90 2e 64
        e 0 90 3a 64
        e 176 80 2e 40
        e 0 80 3a 40
        e 16 90 30 64
        e 0 90 3c 64
        e 272 80 30 40
        e 0 80 3c 40
        e 16 90 3e 64
        e 0 90 32 64
        e 80 80 3e 40
        e 0 80 32 40
        e 16 90 30 64
        e 0 90 3c 64
        e 80 80 30 40
        e 0 80 3c 40
        e 16 90 2e 64
        e 0 90 3a 64
        e 80 80 2e 40
        e 0 80 3a 40
        e 16 90 2d 64
        e 0 90 39 64
        e 80 80 2d 40
        e 0 80 39 40
        e 16 90 2b 64
        e 0 90 37 64
        e 80 80 2b 40
        e 0 80 37 40
        e 16 90 35 64
        e 0 90 29 64
        e 80 80 35 40
        e 0 80 29 40
        e 16 90 29 64
        e 0 90 35 64
        e 80 80 29 40
        e 0 80 35 40
        e 16 90 28 64
        e 0 90 34 64
        e 80 80 28 40
        e 0 80 34 40
        e 16 90 26 64
        e 0 90 32 64
        e 80 80 26 40
        e 0 80 32 40
        e 16 90 24 64
        e 0 90 30 64
        e 80 80 24 40
        e 0 80 30 40
        e 16 90 2e 64
        e 0 90 3a 64
        e 80 80 2e 40
        e 0 80 3a 40
        e 16 90 2d 64
        e 0 90 39 64
        e 80 80 2d 40
        e 0 80 39 40
        e 16 90 2b 64
        e 0 90 37 64
        e 80 80 2b 40
        e 0 80 37 40
        e 16 90 29 64
        e 0 90 35 64
        e 176 80 29 40
        e 0 80 35 40
        e 16 90 2b 64
        e 0 90 37 64
        e 176 80 2b 40
        e 0 80 37 40
        e 16 90 29 64
        e 0 90 35 64
        e 176 80 29 40
        e 0 80 35 40
        e 16 90 2e 64
        e 0 90 3a 64
        e 176 80 2e 40
        e 0 80 3a 40
        e 16 90 2d 64
        e 0 90 39 64
        e 176 80 2d 40
        e 0 80 39 40
        e 16 90 2b 64
        e 0 90 37 64
        e 176 80 2b 40
        e 0 80 37 40
        e 16 90 29 64
        e 0 90 35 64
        e 176 80 29 40
        e 0 80 35 40
        e 16 90 2b 64
        e 0 90 37 64
        e 80 80 2b 40
        e 0 80 37 40
        e 16 90 2d 64
        e 0 90 39 64
        e 80 80 2d 40
        e 0 80 39 40
        e 16 90 3c 64
        e 0 90 30 64
        e 176 80 3c 40
        e 0 80 30 40
        e 16 90 30 64
        e 0 90 3c 64
        e 80 80 30 40
        e 0 80 3c 40
        e 16 90 30 64
        e 0 90 3c 64
        e 80 80 30 40
        e 0 80 3c 40
        e 16 90 2e 64
        e 0 90 3a 64
        e 80 80 2e 40
        e 0 80 3a 40
        e 16 90 24 64
        e 0 90 30 64
        e 80 80 24 40
        e 0 80 30 40
        e 16 90 34 64
        e 0 90 28 64
        e 80 80 34 40
        e 0 80 28 40
        e 16 90 2b 64
        e 0 90 37 64
        e 80 80 2b 40
        e 0 80 37 40
        e 16 90 3a 64
        e 0 90 2e 64
        e 80 80 3a 40
        e 0 80 2e 40
        e 16 90 39 64
        e 0 90 2d 64
        e 80 80 39 40
        e 0 80 2d 40
        e 16 90 2b 64
        e 0 90 37 64
        e 80 80 2b 40
        e 0 80 37 40
        e 16 90 29 64
        e 0 90 35 64
        e 80 80 29 40
        e 0 80 35 40
        e 16 90 3a 64
        e 0 90 2e 64
        e 80 80 3a 40
        e 0 80 2e 40
        e 16 90 30 64
        e 0 90 3c 64
        e 80 80 30 40
        e 0 80 3c 40
        e 16 90 28 64
        e 0 90 34 64
        e 80 80 28 40
        e 0 80 34 40
        e 16 90 2b 64
        e 0 90 37 64
        e 80 80 2b 40
        e 0 80 37 40
        e 16 90 30 64
        e 0 90 24 64
        e 464 80 30 40
        e 0 80 24 40
        e 16 90 24 64
        e 0 90 30 64
        e 80 80 24 40
        e 0 80 30 40
        e 16 90 28 64
        e 0 90 34 64
        e 80 80 28 40
        e 0 80 34 40
        e 16 90 2b 64
        e 0 90 37 64
        e 80 80 2b 40
        e 0 80 37 40
        e 16 90 29 64
        e 0 90 35 64
        e 464 80 29 40
        e 0 80 35 40
        e 16 90 30 64
        e 0 90 3c 64
        e 80 80 30 40
        e 0 80 3c 40
        e 16 90 2d 64
        e 0 90 39 64
        e 80 80 2d 40
        e 0 80 39 40
        e 16 90 35 64
        e 0 90 29 64
        e 80 80 35 40
        e 0 80 29 40
        e 16 90 28 64
        e 0 90 34 64
        e 368 80 28 40
        e 0 80 34 40
        e 16 90 24 64
        e 0 90 30 64
        e 368 80 24 40
        e 0 80 30 40
        e 16 90 29 64
        e 0 90 35 64
        e 176 80 29 40
        e 0 80 35 40
        e 16 90 29 64
        e 0 90 35 64
        e 128 80 29 40
        e 0 80 35 40
        e 16 90 29 64
        e 0 90 35 64
        e 32 80 29 40
        e 0 80 35 40
        e 16 90 29 64
        e 0 90 35 64
        e 176 80 29 40
        e 0 80 35 40
        E 16 b0 7b 00
        GUID {44815931-6C34-CE44-A578-7DBC38CC7A90}
        IGNTEMPO 0 120 4 4
        SRCCOLOR 200
        VELLANE -1 86 6
        CFGEDITVIEW 0 11.073684 65 12 0 -1 0 0 0 0.5
        KEYSNAP 0
        TRACKSEL 252
        EVTFILTER 0 -1 -1 -1 -1 0 0 0 0 -1 -1 -1 -1 0 -1 0 -1 -1
        CFGEDIT 1 0 0 0 0 0 1 0 1 1 1 0.25 285 20 1280 633 0 0 2 3 0 0 0 0 0 0.5 0 0 1 64
      >
    >
  >
  <TRACK {E07B7604-BCFB-FB45-B765-0159BA70CCCB}
    NAME "vst Gladiator"
    PEAKCOL 27222112
    BEAT -1
    AUTOMODE 0
    VOLPAN 0.49571584489927 0 -1 -1 1
    MUTESOLO 0 0 0
    IPHASE 0
    ISBUS 0 0
    BUSCOMP 2 0
    SHOWINMIX 1 0.6667 0.464368 1 0.5 0 0 0
    FREEMODE 0
    SEL 1
    REC 0 0 0 0 0 0 0
    VU 2
    TRACKHEIGHT 141 0
    INQ 0 0 0 0.5 100 0 0 100
    NCHAN 2
    FX 1
    TRACKID {E07B7604-BCFB-FB45-B765-0159BA70CCCB}
    PERF 0
    MIDIOUT -1
    MAINSEND 1 0
    <FXCHAIN
      SHOW 0
      LASTSEL 0
      DOCKED 0
      BYPASS 0 0 0
      <VST "VSTi: Gladiator (Tone2.com)" Gladiator.vst 0 "" 1412581196
        TEcyVO5e7f4AAAAAAgAAAAEAAAAAAAAAAgAAAAAAAABaBAAAAQAAAAAAEAA=
        Q2NuSwAAAGBGeENrAAAAAVQyR0wAAAABAAABB0luaXQAAAAAAAAAAAAAAAAAAAAAAAAAAAAAAAA9zMzNPMzMzTw0OVg9uFH0PXnbIz+AAAA7xJumPb52yT9FHrg7xJum
        AAAAAD2FHro+PXCkP4AAAD7FHrk/AAAAPwAAAAAAAAA9gQYlPdLxqj3MzM0+8KPUPdT99AAAAAA8E3S8PZFocz8AAAA75WBCPszMzD8rhR8/JmZmAAAAAD8AAAA/A9cL
        PwAAAAAAAAAAAAAAPwAAAD8AAAA/AAAAPwAAAAAAAAAAAAAAO+VgQj3hR64AAAAAPk21xDsDEm8+mZmYPnrhSgAAAAA+64UePseuFAAAAAAAAAAAPzR64T+AAAA/L1wp
        PwAAAAAAAAAAAAAAPwAAAAAAAAAAAAAAP4AAAD+AAAAAAAAAPo9cKT8AAAA/AAAAPwAAAD8AAAAAAAAAPwAAAD8AAAA/AAAAAAAAAD8AAAA/AAAAPwAAAAAAAAA6gxJv
        PvXCjwAAAAAAAAAAAAAAADqDEm8/AAAAAAAAAAAAAAAAAAAAPwAAAAAAAAA/gAAAAAAAAD+AAAAAAAAAPwAAAD8AAAA/AAAAPwAAAD8AAAA/AAAAPwAAAD8AAAA/AAAA
        PwAAAD8AAAA/EeuGPKPXCjqDEm88RJumAAAAAAAAAAAAAAAAPLxqfwAAAAAAAAAAAAAAAAAAAAAAAAAAAAAAAAAAAAAAAAAAAAAAAAAAAAAAAAAAAAAAAAAAAAAAAAAA
        AAAAAAAAAAA8E3S8AAAAADw0OVgAAAAAPBN0vAAAAAA8NDlYAAAAADwTdLwAAAAAPDQ5WAAAAAA8E3S8AAAAADw0OVgAAAAAPGVgQj2HKwI8ZWBCOwMSbz2JN0w7AxJv
        PLQ5WDyLQ5Y8k3S8PVT99D0XjVA8zMzNPlywjT9nuWE/AAAAP4AAAD8wjT4/AAAAAAAAADsDEm86gxJvAAAAAAAAAAAAAAAAPwAAADqDEm8AAAAAP4AAAAAAAAA/gAAA
        Ptwo9QAAAAAAAAAAAAAAAAAAAAAAAAAAP4AAAAAAAAA/AAAAAAAAAD8AAAA/BR64PwAAAD8AAAA/AAAAPwAAAD8AAAA/gAAAP4AAAAAAAAAAAAAAAAAAAD8AAAA/gAAA
        PwAAAAAAAAA+vXCkAAAAAAAAAAA/gAAAP4AAAD8j1wo/gAAAAAAAAAAAAAA/gAAAPwAAAAAAAAAAAAAAAAAAAAAAAAAAAAAAAAAAAAAAAAAAAAAAAAAAAAAAAAAAAAAA
        AAAAAD8AAAA/AAAAPwAAAD8AAAA/AAAAPwAAAAAAAAAAAAAAP4AAAAAAAAAAAAAAAAAAAAAAAAAAAAAAAAAAAAAAAAAAAAAAAAAAAAAAAAAAAAAAAAAAAAAAAAAAAAAA
        AAAAAAAAAAAAAAAAAAAAAAAAAAAAAAAAAAAAAAAAAAAAAAAAAAAAAAAAAAAAAAAAAAAAAAAAqqusrQ==
        AEluaXQAEAAAAA==
      >
      PRESETNAME Init
      FLOATPOS 500 379 986 798
      FXID {3E3A764D-447C-C044-9185-13FA5D09BA63}
      WAK 0
      BYPASS 0 0 0
      <JS sstillwell/eventhorizon2 ""
        -4.400000 -3.000000 0.000000 - - - - - - - - - - - - - - - - - - - - - - - - - - - - - - - - - - - - - - - - - - - - - - - - - - - - - - - - - - - - - 
      >
      FLOATPOS 445 167 554 137
      FXID {6D8D2D07-5040-604E-A679-BFC04C7F099C}
      WAK 0
    >
    <ITEM
      POSITION 0
      SNAPOFFS 0
      LENGTH 47.5
      LOOP 1
      ALLTAKES 0
      FADEIN 1 0 0 1 0 0
      FADEOUT 1 0 0 1 0 0
      MUTE 1
      SEL 0
      YPOS 0.333333 0.166667
      IGUID {C44D90CC-A8B6-F340-9211-8F49A8A71DF6}
      IID 3
      NAME "BASS                 - National_Anthems_-_United_Arab_Emirates.mid"
      VOLPAN 1 0 1 -1
      SOFFS 0 0
      PLAYRATE 1 1 0 -1 0 0.0025
      CHANMODE 0
      GUID {C099CA17-5039-AE43-9B3C-C1880ADC9E85}
      <SOURCE MIDI
        HASDATA 1 192 QN
        POOLEDEVTS {4078DC8D-6FB5-CD40-8E36-390849EC1951}
        <X 0 0 0 0 3 "BASS                "
          /wNCQVNTICAgICAgICAgICAgICAgIA==
        >
        e 0 90 29 7f
        e 176 80 29 40
        e 16 90 35 7f
        e 176 80 35 40
        e 16 90 29 7f
        e 176 80 29 40
        e 16 90 2e 7f
        e 176 80 2e 40
        e 16 90 2d 7f
        e 176 80 2d 40
        e 16 90 2b 7f
        e 176 80 2b 40
        e 16 90 29 7f
        e 176 80 29 40
        e 16 90 2b 7f
        e 80 80 2b 40
        e 16 90 24 7f
        e 80 80 24 40
        e 16 90 24 7f
        e 176 80 24 40
        e 16 90 30 7f
        e 176 80 30 40
        e 16 90 24 7f
        e 176 80 24 40
        e 16 90 30 7f
        e 176 80 30 40
        e 16 90 34 7f
        e 176 80 34 40
        e 16 90 30 7f
        e 176 80 30 40
        e 16 90 2e 7f
        e 80 80 2e 40
        e 16 90 30 7f
        e 80 80 30 40
        e 16 90 34 7f
        e 80 80 34 40
        e 16 90 37 7f
        e 80 80 37 40
        e 16 90 30 7f
        e 464 80 30 40
        e 16 90 24 7f
        e 80 80 24 40
        e 16 90 28 7f
        e 80 80 28 40
        e 16 90 2b 7f
        e 80 80 2b 40
        e 16 90 29 7f
        e 464 80 29 40
        e 16 90 30 7f
        e 80 80 30 40
        e 16 90 2d 7f
        e 80 80 2d 40
        e 16 90 29 7f
        e 80 80 29 40
        e 16 90 24 7f
        e 176 80 24 40
        e 16 90 30 7f
        e 176 80 30 40
        e 16 90 28 7f
        e 176 80 28 40
        e 16 90 34 7f
        e 176 80 34 40
        e 16 90 29 7f
        e 176 80 29 40
        e 16 90 35 7f
        e 176 80 35 40
        e 16 90 35 7f
        e 176 80 35 40
        e 208 90 35 7f
        e 272 80 35 40
        e 112 90 2e 7f
        e 272 80 2e 40
        e 112 90 34 7f
        e 272 80 34 40
        e 112 90 30 7f
        e 272 80 30 40
        e 112 90 24 7f
        e 176 80 24 40
        e 16 90 30 7f
        e 176 80 30 40
        e 16 90 24 7f
        e 176 80 24 40
        e 208 90 29 7f
        e 176 80 29 40
        e 16 90 35 7f
        e 176 80 35 40
        e 16 90 29 7f
        e 176 80 29 40
        e 208 90 2b 7f
        e 176 80 2b 40
        e 16 90 29 7f
        e 176 80 29 40
        e 16 90 28 7f
        e 176 80 28 40
        e 16 90 24 7f
        e 176 80 24 40
        e 16 90 29 7f
        e 176 80 29 40
        e 16 90 2b 7f
        e 176 80 2b 40
        e 16 90 2d 7f
        e 176 80 2d 40
        e 16 90 2e 7f
        e 176 80 2e 40
        e 16 90 30 7f
        e 272 80 30 40
        e 16 90 32 7f
        e 80 80 32 40
        e 16 90 30 7f
        e 80 80 30 40
        e 16 90 2e 7f
        e 80 80 2e 40
        e 16 90 2d 7f
        e 80 80 2d 40
        e 16 90 2b 7f
        e 80 80 2b 40
        e 16 90 29 7f
        e 80 80 29 40
        e 16 90 29 7f
        e 80 80 29 40
        e 16 90 28 7f
        e 80 80 28 40
        e 16 90 26 7f
        e 80 80 26 40
        e 16 90 24 7f
        e 80 80 24 40
        e 16 90 2e 7f
        e 80 80 2e 40
        e 16 90 2d 7f
        e 80 80 2d 40
        e 16 90 2b 7f
        e 80 80 2b 40
        e 16 90 29 7f
        e 176 80 29 40
        e 16 90 37 7f
        e 176 80 37 40
        e 16 90 35 7f
        e 176 80 35 40
        e 16 90 2e 7f
        e 176 80 2e 40
        e 16 90 2d 7f
        e 176 80 2d 40
        e 16 90 2b 7f
        e 176 80 2b 40
        e 16 90 29 7f
        e 176 80 29 40
        e 16 90 2b 7f
        e 80 80 2b 40
        e 16 90 2d 7f
        e 80 80 2d 40
        e 16 90 30 7f
        e 176 80 30 40
        e 16 90 30 7f
        e 80 80 30 40
        e 16 90 30 7f
        e 80 80 30 40
        e 16 90 2e 7f
        e 80 80 2e 40
        e 16 90 24 7f
        e 80 80 24 40
        e 16 90 28 7f
        e 80 80 28 40
        e 16 90 2b 7f
        e 80 80 2b 40
        e 16 90 2e 7f
        e 80 80 2e 40
        e 16 90 2d 7f
        e 80 80 2d 40
        e 16 90 2b 7f
        e 80 80 2b 40
        e 16 90 29 7f
        e 80 80 29 40
        e 16 90 2e 7f
        e 80 80 2e 40
        e 16 90 30 7f
        e 80 80 30 40
        e 16 90 34 7f
        e 80 80 34 40
        e 16 90 37 7f
        e 80 80 37 40
        e 16 90 30 7f
        e 464 80 30 40
        e 16 90 24 7f
        e 80 80 24 40
        e 16 90 28 7f
        e 80 80 28 40
        e 16 90 2b 7f
        e 80 80 2b 40
        e 16 90 29 7f
        e 464 80 29 40
        e 16 90 30 7f
        e 80 80 30 40
        e 16 90 2d 7f
        e 80 80 2d 40
        e 16 90 29 7f
        e 80 80 29 40
        e 16 90 28 7f
        e 368 80 28 40
        e 16 90 30 7f
        e 176 80 30 40
        e 16 90 24 7f
        e 176 80 24 40
        e 16 90 29 7f
        e 176 80 29 40
        e 16 90 35 7f
        e 176 80 35 40
        e 16 90 29 7f
        e 176 80 29 40
        E 16 b0 7b 00
        GUID {05F93B9B-1DA0-424B-95DA-634716837D47}
        IGNTEMPO 0 120 4 4
        SRCCOLOR 201
        VELLANE -1 86 6
        CFGEDITVIEW 0 11.073684 65 12 0 -1 0 0 0 0.5
        KEYSNAP 0
        TRACKSEL 252
        EVTFILTER 0 -1 -1 -1 -1 0 0 0 0 -1 -1 -1 -1 0 -1 0 -1 -1
        CFGEDIT 1 0 0 0 0 0 1 0 1 1 1 0.25 285 20 1280 633 0 0 2 3 0 0 0 0 0 0.5 0 0 1 64
      >
    >
    <ITEM
      POSITION 0
      SNAPOFFS 0
      LENGTH 47.5
      LOOP 1
      ALLTAKES 0
      FADEIN 1 0 0 1 0 0
      FADEOUT 1 0 0 1 0 0
      MUTE 0
      SEL 0
      YPOS 0.166667 0.166667
      IGUID {88E97041-56A7-EC4A-A517-09A2646B5ED1}
      IID 2
      NAME "L.H.                 - National_Anthems_-_United_Arab_Emirates.mid"
      VOLPAN 1 0 1 -1
      SOFFS 0 0
      PLAYRATE 1 1 0 -1 0 0.0025
      CHANMODE 0
      GUID {4893B2EE-6A3F-DB43-87E1-598AFEF5B8F5}
      <SOURCE MIDI
        HASDATA 1 192 QN
        POOLEDEVTS {6BE97603-01CD-7B4A-86B2-ADAF91E3BCF0}
        <X 0 0 0 0 3 "L.H.                "
          /wNMLkguICAgICAgICAgICAgICAgIA==
        >
        e 0 90 35 64
        e 0 90 29 64
        e 560 80 35 40
        e 0 80 29 40
        e 16 90 3a 64
        e 0 90 2e 64
        e 176 80 3a 40
        e 0 80 2e 40
        e 16 90 2d 64
        e 0 90 39 64
        e 176 80 2d 40
        e 0 80 39 40
        e 16 90 2b 64
        e 0 90 37 64
        e 176 80 2b 40
        e 0 80 37 40
        e 16 90 29 64
        e 0 90 35 64
        e 176 80 29 40
        e 0 80 35 40
        e 16 90 37 64
        e 0 90 2b 64
        e 80 80 37 40
        e 0 80 2b 40
        e 16 90 24 64
        e 0 90 30 64
        e 80 80 24 40
        e 0 80 30 40
        e 16 90 24 64
        e 0 90 30 64
        e 368 80 24 40
        e 0 80 30 40
        e 16 90 3c 64
        e 0 90 30 64
        e 80 80 3c 40
        e 0 80 30 40
        e 16 90 3c 64
        e 0 90 30 64
        e 16 80 3c 40
        e 0 80 30 40
        e 16 90 3c 64
        e 0 90 30 64
        e 16 80 3c 40
        e 0 80 30 40
        e 16 90 3c 64
        e 0 90 30 64
        e 16 80 3c 40
        e 0 80 30 40
        e 16 90 30 64
        e 0 90 3c 64
        e 80 80 30 40
        e 0 80 3c 40
        e 16 90 30 64
        e 0 90 3c 64
        e 80 80 30 40
        e 0 80 3c 40
        e 16 90 28 64
        e 0 90 34 64
        e 176 80 28 40
        e 0 80 34 40
        e 16 90 30 64
        e 0 90 24 64
        e 176 80 30 40
        e 0 80 24 40
        e 16 90 2e 64
        e 0 90 3a 64
        e 80 80 2e 40
        e 0 80 3a 40
        e 16 90 30 64
        e 0 90 3c 64
        e 80 80 30 40
        e 0 80 3c 40
        e 16 90 28 64
        e 0 90 34 64
        e 80 80 28 40
        e 0 80 34 40
        e 16 90 2b 64
        e 0 90 37 64
        e 80 80 2b 40
        e 0 80 37 40
        e 16 90 24 64
        e 0 90 30 64
        e 464 80 24 40
        e 0 80 30 40
        e 16 90 24 64
        e 0 90 30 64
        e 80 80 24 40
        e 0 80 30 40
        e 16 90 28 64
        e 0 90 34 64
        e 80 80 28 40
        e 0 80 34 40
        e 16 90 37 64
        e 0 90 2b 64
        e 80 80 37 40
        e 0 80 2b 40
        e 16 90 29 64
        e 0 90 35 64
        e 464 80 29 40
        e 0 80 35 40
        e 16 90 30 64
        e 0 90 3c 64
        e 80 80 30 40
        e 0 80 3c 40
        e 16 90 2d 64
        e 0 90 39 64
        e 80 80 2d 40
        e 0 80 39 40
        e 16 90 29 64
        e 0 90 35 64
        e 80 80 29 40
        e 0 80 35 40
        e 16 90 24 64
        e 0 90 30 64
        e 368 80 24 40
        e 0 80 30 40
        e 16 90 28 64
        e 0 90 34 64
        e 368 80 28 40
        e 0 80 34 40
        e 16 90 29 64
        e 0 90 30 64
        e 0 90 35 64
        e 176 80 29 40
        e 0 80 30 40
        e 0 80 35 40
        e 16 90 30 64
        e 0 90 35 64
        e 0 90 29 64
        e 128 80 30 40
        e 0 80 35 40
        e 0 80 29 40
        e 16 90 30 64
        e 0 90 35 64
        e 0 90 29 64
        e 32 80 30 40
        e 0 80 35 40
        e 0 80 29 40
        e 16 90 29 64
        e 0 90 30 64
        e 0 90 35 64
        e 176 80 29 40
        e 0 80 30 40
        e 0 80 35 40
        e 208 90 29 64
        e 0 90 35 64
        e 272 80 29 40
        e 0 80 35 40
        e 112 90 2e 64
        e 0 90 3a 64
        e 272 80 2e 40
        e 0 80 3a 40
        e 112 90 34 64
        e 0 90 28 64
        e 272 80 34 40
        e 0 80 28 40
        e 112 90 24 64
        e 0 90 30 64
        e 272 80 24 40
        e 0 80 30 40
        e 112 90 30 64
        e 0 90 24 64
        e 560 80 30 40
        e 0 80 24 40
        e 208 90 35 64
        e 0 90 29 64
        e 560 80 35 40
        e 0 80 29 40
        e 208 90 37 64
        e 0 90 2b 64
        e 176 80 37 40
        e 0 80 2b 40
        e 16 90 29 64
        e 0 90 35 64
        e 176 80 29 40
        e 0 80 35 40
        e 16 90 34 64
        e 0 90 28 64
        e 176 80 34 40
        e 0 80 28 40
        e 16 90 24 64
        e 0 90 30 64
        e 176 80 24 40
        e 0 80 30 40
        e 16 90 35 64
        e 0 90 29 64
        e 176 80 35 40
        e 0 80 29 40
        e 16 90 37 64
        e 0 90 2b 64
        e 176 80 37 40
        e 0 80 2b 40
        e 16 90 39 64
        e 0 90 2d 64
        e 176 80 39 40
        e 0 80 2d 40
        e 16 90 2e 64
        e 0 90 3a 64
        e 176 80 2e 40
        e 0 80 3a 40
        e 16 90 30 64
        e 0 90 3c 64
        e 272 80 30 40
        e 0 80 3c 40
        e 16 90 3e 64
        e 0 90 32 64
        e 80 80 3e 40
        e 0 80 32 40
        e 16 90 30 64
        e 0 90 3c 64
        e 80 80 30 40
        e 0 80 3c 40
        e 16 90 2e 64
        e 0 90 3a 64
        e 80 80 2e 40
        e 0 80 3a 40
        e 16 90 2d 64
        e 0 90 39 64
        e 80 80 2d 40
        e 0 80 39 40
        e 16 90 2b 64
        e 0 90 37 64
        e 80 80 2b 40
        e 0 80 37 40
        e 16 90 35 64
        e 0 90 29 64
        e 80 80 35 40
        e 0 80 29 40
        e 16 90 29 64
        e 0 90 35 64
        e 80 80 29 40
        e 0 80 35 40
        e 16 90 28 64
        e 0 90 34 64
        e 80 80 28 40
        e 0 80 34 40
        e 16 90 26 64
        e 0 90 32 64
        e 80 80 26 40
        e 0 80 32 40
        e 16 90 24 64
        e 0 90 30 64
        e 80 80 24 40
        e 0 80 30 40
        e 16 90 2e 64
        e 0 90 3a 64
        e 80 80 2e 40
        e 0 80 3a 40
        e 16 90 2d 64
        e 0 90 39 64
        e 80 80 2d 40
        e 0 80 39 40
        e 16 90 2b 64
        e 0 90 37 64
        e 80 80 2b 40
        e 0 80 37 40
        e 16 90 29 64
        e 0 90 35 64
        e 176 80 29 40
        e 0 80 35 40
        e 16 90 2b 64
        e 0 90 37 64
        e 176 80 2b 40
        e 0 80 37 40
        e 16 90 29 64
        e 0 90 35 64
        e 176 80 29 40
        e 0 80 35 40
        e 16 90 2e 64
        e 0 90 3a 64
        e 176 80 2e 40
        e 0 80 3a 40
        e 16 90 2d 64
        e 0 90 39 64
        e 176 80 2d 40
        e 0 80 39 40
        e 16 90 2b 64
        e 0 90 37 64
        e 176 80 2b 40
        e 0 80 37 40
        e 16 90 29 64
        e 0 90 35 64
        e 176 80 29 40
        e 0 80 35 40
        e 16 90 2b 64
        e 0 90 37 64
        e 80 80 2b 40
        e 0 80 37 40
        e 16 90 2d 64
        e 0 90 39 64
        e 80 80 2d 40
        e 0 80 39 40
        e 16 90 3c 64
        e 0 90 30 64
        e 176 80 3c 40
        e 0 80 30 40
        e 16 90 30 64
        e 0 90 3c 64
        e 80 80 30 40
        e 0 80 3c 40
        e 16 90 30 64
        e 0 90 3c 64
        e 80 80 30 40
        e 0 80 3c 40
        e 16 90 2e 64
        e 0 90 3a 64
        e 80 80 2e 40
        e 0 80 3a 40
        e 16 90 24 64
        e 0 90 30 64
        e 80 80 24 40
        e 0 80 30 40
        e 16 90 34 64
        e 0 90 28 64
        e 80 80 34 40
        e 0 80 28 40
        e 16 90 2b 64
        e 0 90 37 64
        e 80 80 2b 40
        e 0 80 37 40
        e 16 90 3a 64
        e 0 90 2e 64
        e 80 80 3a 40
        e 0 80 2e 40
        e 16 90 39 64
        e 0 90 2d 64
        e 80 80 39 40
        e 0 80 2d 40
        e 16 90 2b 64
        e 0 90 37 64
        e 80 80 2b 40
        e 0 80 37 40
        e 16 90 29 64
        e 0 90 35 64
        e 80 80 29 40
        e 0 80 35 40
        e 16 90 3a 64
        e 0 90 2e 64
        e 80 80 3a 40
        e 0 80 2e 40
        e 16 90 30 64
        e 0 90 3c 64
        e 80 80 30 40
        e 0 80 3c 40
        e 16 90 28 64
        e 0 90 34 64
        e 80 80 28 40
        e 0 80 34 40
        e 16 90 2b 64
        e 0 90 37 64
        e 80 80 2b 40
        e 0 80 37 40
        e 16 90 30 64
        e 0 90 24 64
        e 464 80 30 40
        e 0 80 24 40
        e 16 90 24 64
        e 0 90 30 64
        e 80 80 24 40
        e 0 80 30 40
        e 16 90 28 64
        e 0 90 34 64
        e 80 80 28 40
        e 0 80 34 40
        e 16 90 2b 64
        e 0 90 37 64
        e 80 80 2b 40
        e 0 80 37 40
        e 16 90 29 64
        e 0 90 35 64
        e 464 80 29 40
        e 0 80 35 40
        e 16 90 30 64
        e 0 90 3c 64
        e 80 80 30 40
        e 0 80 3c 40
        e 16 90 2d 64
        e 0 90 39 64
        e 80 80 2d 40
        e 0 80 39 40
        e 16 90 35 64
        e 0 90 29 64
        e 80 80 35 40
        e 0 80 29 40
        e 16 90 28 64
        e 0 90 34 64
        e 368 80 28 40
        e 0 80 34 40
        e 16 90 24 64
        e 0 90 30 64
        e 368 80 24 40
        e 0 80 30 40
        e 16 90 29 64
        e 0 90 35 64
        e 176 80 29 40
        e 0 80 35 40
        e 16 90 29 64
        e 0 90 35 64
        e 128 80 29 40
        e 0 80 35 40
        e 16 90 29 64
        e 0 90 35 64
        e 32 80 29 40
        e 0 80 35 40
        e 16 90 29 64
        e 0 90 35 64
        e 176 80 29 40
        e 0 80 35 40
        E 16 b0 7b 00
        GUID {44815931-6C34-CE44-A578-7DBC38CC7A90}
        IGNTEMPO 0 120 4 4
        SRCCOLOR 200
        VELLANE -1 86 6
        CFGEDITVIEW 0 11.073684 65 12 0 -1 0 0 0 0.5
        KEYSNAP 0
        TRACKSEL 252
        EVTFILTER 0 -1 -1 -1 -1 0 0 0 0 -1 -1 -1 -1 0 -1 0 -1 -1
        CFGEDIT 1 0 0 0 0 0 1 0 1 1 1 0.25 285 20 1280 633 0 0 2 3 0 0 0 0 0 0.5 0 0 1 64
      >
    >
  >
  <TRACK {9E2CAE92-CCC1-1F4A-BCF6-93DCFE473BDF}
    NAME "extra USE32 for rev"
    PEAKCOL 16576
    BEAT -1
    AUTOMODE 0
    VOLPAN 0.82268743809333 0 -1 -1 1
    MUTESOLO 0 0 0
    IPHASE 0
    ISBUS 0 0
    BUSCOMP 0 0
    SHOWINMIX 1 0.6667 0.464368 1 0.5 0 0 0
    FREEMODE 0
    SEL 0
    REC 0 0 0 0 0 0 0
    VU 2
    TRACKHEIGHT 176 0
    INQ 0 0 0 0.5 100 0 0 100
    NCHAN 4
    FX 1
    TRACKID {9E2CAE92-CCC1-1F4A-BCF6-93DCFE473BDF}
    PERF 0
    MIDIOUT -1
    MAINSEND 1 0
    <FXCHAIN
      WNDRECT 36 359 724 387
      SHOW 0
      LASTSEL 0
      DOCKED 0
      BYPASS 0 0 0
      <VST "VSTi: chipsounds (Plogue Art et Technologie, Inc)" chipsounds.vst 0 "" 1347176271
        T0dMUO5e7f4AAAAABAAAAAEAAAAAAAAAAgAAAAAAAAAEAAAAAAAAAAgAAAAAAAAAfAUAAAEAAAAAABAA
        Q0VHUDIoAAB4nO1aS2/bOBC+51cIOu0eKpGiKJKAncJxksJAsw3g7LlgZNYWKktaPbJpf/2OHo4Zx7TUNi0KrOZgWNQ8vhmOKM5Qk7eP29h6UHkRpcnUxg6yrbfnZ5NZ
        HsmlfFDaLYED28rydFWF5eISBhAS9vmZBTRZqrKMknVh/VPJOCq/wF3bKspcyS0MT23i2dZWPi6bkVkcp+HNxdSmGIZvFpeLD1V5k65UIyWrMt3KEmwu47Sc2kgfitWD
        iqd2lIDuaquS0rbi6EG1wsBZhFPbQ6g2HspYwhi23liqRuUUYdwNz0FQ5VM7AIl1nN7L+K5KGpww4O5cAutWtGrGErmt9WPHuq1yZc03UeYuF5duQDm2/vjrbjn/07bu
        ZfJ5seriosWNe+BluJFJUkMHbVka1wGCaJZ7s9n9x1wmazDzBtBnJVwUzY2t9jcNS5iTJ08D4NxWZTfw78dYFhAwv5uUxotZ9bhz4kHGVc3qcB/VRAhhPEAYP/ncSNzI
        KDkQMXHgvVIDh9fLQXo5/F4O2ssR9HKwXg7eyyF6OTDqZ+mPKu4PK+6PK+4PLDZG9lbmcnuYBA7CTWYhjzLkU0SwScjT05H7oibkB8SjATfJGOHuWZgpZTW4+pPgC9rg
        9VnACaufSIOQZtvxSANXAFxKuWeUGQJGyxgHe61e6hEceNw3OmnMIY1HDzBu9XKOmEDMCIYRfSZ5KxRgmBLB6xXNIKWHJqDtTDKEA0Z9Y2wY1YVwM//wQzwkTvgd6PhI
        m2kEUZ8RjsxSXJ+61hTngA7jGsVxIa6baldLhKgIIEV9s5A+mR08jAX45BmjJ/RsxF3MWYDhvWKOHib6M8c48xGmMEsBD/gJS3tTxjwXaK/ZaF4grz+zBRrwuAoUDNHE
        hzCJIY/+EOTYQ8TEdSfztSq77UCYbp3bOF1XyrnLo/Va5UvYaKgkVLn2Bm7k5lUBO5hLWUprU37JQNgnPlgpoq/1f6ZtFwChSlaRTJq4rUCk3ni02XTdUZv87Bp58B9d
        cdbd3xOZs2txOHiEMPIPZsdtfRzgdL1FdN5ff3CqQuWo32XKqHhyOfA1n9Exn3d03b1SBngz0kgj/Rp6lVUDj6vGSCP9f+jEqjFx647LYfMFv2rzBe+aL96+94Jftfni
        6c2XsZUytlK+u5UCJXTAmofGRwKRwFjZ6aW+QBQKW8GoxzkRh629o70Ux2N+AMUtFz4NMDP3X761uWIslAc1MPRYUL9p00BAuIDSx6z4WQdD+MPaHnosSBvx3obQswaG
        N7TBYnx0DJ2HwU2EfUCNfRC9tD9RRv+M0v5EJ+FXlPa/Wf36olY/oKtXetWONNJIRhrr15FGGunb6HtXjR87IMCEfusJwUV9VZ8QYIou2PXFC0/MJwS70wQoCoBmlNRr
        0fy3HT2Cd2iX4erTJxWW+oceu8K+ncDZ9j6qp+t0e+HohlQvhJ6dF0NxNqD8M7GQZ1WRLxjUK1AZBD5mxl027d8+DziG04p6h6H2GJUQjAIhjPWYfiDKOJRvwAzFrM99
        bj5q1w0hj3bZyjzqifpgzlAD6/EOhpVj3rGCaOLuk6Ibeff3YjelMiyjB7XYf5jUXF89XRcqBlm1upP3B62g21wVqrxRSWVFxY69bBLz9EJhleoRWC5kUdhWJsvN1HZn
        WRZHYfNBVOG2gla4ibIirZIVjDS2CveEWrddcCwYDz8Xbq3dkbCzyQ6C9QI1Pop6lmdqvY5kme4Bx1H2A4A1jW6t6kfQmWIKCLYqlz8hrB36FJhbGz3w1dGUeCfzPCpl
        4uzXoRb4fFPl4eYJ9/voPpf5Fx2/tayyLM3Lzg233rU+c+CFbrdVegB04kL2n59N3N33gOdn/wGBN1Dd
        AAAQAAAA
      >
      FLOATPOS 754 364 870 508
      FXID {DC79668B-30D1-964C-A162-F245DBE294B0}
      WAK 0
      BYPASS 1 0 0
      <VST "VST: 8-Bit Shaper (Xfer Records)" 8BitShaper.vst 0 "" 1148539762
        clN1RO5e7f4CAAAAAQAAAAAAAAACAAAAAAAAAAQAAAABAAAAAAAAAAIAAAAAAAAABAAAAAAAAAAIAAAAAAAAADQCAAABAAAAAAAQAA==
        ZmaGP20MlT7dQQw/AAAAPyQABAUAAIA//38AAAAAABgXAAAAMAAAABkAAAAaAAAAGgAAABoAAAAbAAAAGwAAABwAAAAcAAAAHAAAAB0AAAAdAAAAHgAAAB4AAAAfAAAA
        HwAAACAAAAAgAAAAIAAAACEAAAAhAAAAIQAAACIAAAAiAAAAIgAAACMAAAAjAAAAIwAAACQAAAAkAAAAJAAAACUAAAAlAAAAKAAAACgAAAApAAAAKQAAACoAAAA1AAAA
        KgAAACoAAAA2AAAAKgAAACoAAAAqAAAAKgAAACoAAAAqAAAAKgAAACsAAAArAAAAOQAAAC0AAAA0AAAAOgAAAC0AAAAtAAAAPAAAAC4AAAAuAAAALwAAADAAAAAwAAAA
        MQAAADEAAAAxAAAAMgAAADMAAAAzAAAAMwAAADcAAAA3AAAANwAAADgAAAA4AAAAOAAAADkAAAA5AAAAOQAAADoAAAA6AAAAOgAAADoAAAA6AAAAOwAAADsAAAA7AAAA
        PAAAADsAAAA7AAAAOwAAADwAAAA8AAAAPAAAADwAAAA9AAAAPQAAAD0AAAA9AAAAPQAAAD4AAAA+AAAAPwAAAEkAAABAAAAAQAAAAEgAAABAAAAAQQAAAEIAAABCAAAA
        QgAAAEMAAABDAAAAQwAAAEQAAABEAAAARQAAAE0AAABGAAAARwAAAEYAAABHAAAASAAAAEgAAABJAAAATwAAAAAAgD+rqqo+q6qqPh0Fwz6OAm0/
        AEluaXQgMQAQAAAA
      >
      PRESETNAME "Init 1"
      FLOATPOS 0 0 0 0
      FXID {CA8FC7CE-63C9-F94B-AB88-63E354F46404}
      WAK 0
    >
    <ITEM
      POSITION 0
      SNAPOFFS 0
      LENGTH 47.5
      LOOP 1
      ALLTAKES 0
      FADEIN 1 0 0 1 0 0
      FADEOUT 1 0 0 1 0 0
      MUTE 0
      SEL 0
      YPOS 0.5 0.166667
      IGUID {C8F969F2-1E03-A647-9C93-812EBA485CED}
      IID 4
      NAME "MELODY               - National_Anthems_-_United_Arab_Emirates.mid"
      VOLPAN 1 0 1 -1
      SOFFS 0 0
      PLAYRATE 1 1 0 -1 0 0.0025
      CHANMODE 0
      GUID {5E59A361-F75C-7C43-9029-14BB50FF124F}
      <SOURCE MIDI
        HASDATA 1 192 QN
        POOLEDEVTS {095E1518-C617-3745-91E5-9D6D545DEE16}
        <X 0 0 0 0 3 "MELODY              "
          /wNNRUxPRFkgICAgICAgICAgICAgIA==
        >
        e 0 90 48 7f
        e 176 80 48 40
        e 16 90 4d 7f
        e 128 80 4d 40
        e 16 90 4c 7f
        e 32 80 4c 40
        e 16 90 4d 7f
        e 176 80 4d 40
        e 16 90 48 7f
        e 176 80 48 40
        e 16 90 4d 7f
        e 176 80 4d 40
        e 16 90 4f 7f
        e 80 80 4f 40
        e 16 90 51 7f
        e 80 80 51 40
        e 16 90 51 7f
        e 176 80 51 40
        e 16 90 4f 7f
        e 80 80 4f 40
        e 16 90 4d 7f
        e 80 80 4d 40
        e 16 90 4c 7f
        e 176 80 4c 40
        e 16 90 4d 7f
        e 80 80 4d 40
        e 16 90 4f 7f
        e 80 80 4f 40
        e 16 90 4f 7f
        e 368 80 4f 40
        e 16 90 4f 7f
        e 176 80 4f 40
        e 16 90 4f 7f
        e 128 80 4f 40
        e 16 90 4f 7f
        e 32 80 4f 40
        e 16 90 4f 7f
        e 176 80 4f 40
        e 16 90 48 7f
        e 176 80 48 40
        e 16 90 4f 7f
        e 128 80 4f 40
        e 16 90 4e 7f
        e 32 80 4e 40
        e 16 90 4f 7f
        e 80 80 4f 40
        e 16 90 51 7f
        e 80 80 51 40
        e 16 90 52 7f
        e 176 80 52 40
        e 16 90 4f 7f
        e 176 80 4f 40
        e 16 90 51 7f
        e 128 80 51 40
        e 16 90 4f 7f
        e 32 80 4f 40
        e 16 90 51 7f
        e 80 80 51 40
        e 16 90 52 7f
        e 80 80 52 40
        e 16 90 54 7f
        e 176 80 54 40
        e 16 90 4d 7f
        e 176 80 4d 40
        e 16 90 4f 7f
        e 176 80 4f 40
        e 16 90 52 7f
        e 176 80 52 40
        e 16 90 51 7f
        e 128 80 51 40
        e 16 90 4f 7f
        e 32 80 4f 40
        e 16 90 4a 7f
        e 80 80 4a 40
        e 16 90 4c 7f
        e 80 80 4c 40
        e 16 90 4d 7f
        e 176 80 4d 40
        e 16 90 4d 7f
        e 128 80 4d 40
        e 16 90 4d 7f
        e 32 80 4d 40
        e 16 90 4d 7f
        e 176 80 4d 40
        e 208 90 4d 7f
        e 176 80 4d 40
        e 16 90 4d 7f
        e 128 80 4d 40
        e 16 90 4c 7f
        e 32 80 4c 40
        e 16 90 4a 7f
        e 176 80 4a 40
        e 16 90 4a 7f
        e 128 80 4a 40
        e 16 90 48 7f
        e 32 80 48 40
        e 16 90 46 7f
        e 176 80 46 40
        e 16 90 46 7f
        e 128 80 46 40
        e 16 90 45 7f
        e 32 80 45 40
        e 16 90 43 7f
        e 80 80 43 40
        e 304 90 4c 7f
        e 176 80 4c 40
        e 16 90 4c 7f
        e 128 80 4c 40
        e 16 90 4a 7f
        e 32 80 4a 40
        e 16 90 48 7f
        e 176 80 48 40
        e 16 90 48 7f
        e 128 80 48 40
        e 16 90 46 7f
        e 32 80 46 40
        e 16 90 45 7f
        e 176 80 45 40
        e 16 90 45 7f
        e 128 80 45 40
        e 16 90 43 7f
        e 32 80 43 40
        e 16 90 41 7f
        e 320 80 41 40
        e 16 90 4d 7f
        e 32 80 4d 40
        e 16 90 4f 7f
        e 176 80 4f 40
        e 16 90 51 7f
        e 176 80 51 40
        e 16 90 52 7f
        e 176 80 52 40
        e 16 90 4f 7f
        e 176 80 4f 40
        e 16 90 51 7f
        e 176 80 51 40
        e 16 90 52 7f
        e 176 80 52 40
        e 16 90 54 7f
        e 176 80 54 40
        e 16 90 56 7f
        e 176 80 56 40
        e 16 90 4c 7f
        e 80 80 4c 40
        e 16 90 48 7f
        e 80 80 48 40
        e 16 90 4a 7f
        e 80 80 4a 40
        e 16 90 4d 7f
        e 80 80 4d 40
        e 16 90 4c 7f
        e 80 80 4c 40
        e 16 90 48 7f
        e 80 80 48 40
        e 16 90 4a 7f
        e 80 80 4a 40
        e 16 90 4c 7f
        e 80 80 4c 40
        e 16 90 4d 7f
        e 752 80 4d 40
        e 16 90 48 7f
        e 176 80 48 40
        e 16 90 4d 7f
        e 128 80 4d 40
        e 16 90 4c 7f
        e 32 80 4c 40
        e 16 90 4d 7f
        e 176 80 4d 40
        e 16 90 48 7f
        e 176 80 48 40
        e 16 90 4d 7f
        e 176 80 4d 40
        e 16 90 4f 7f
        e 80 80 4f 40
        e 16 90 51 7f
        e 80 80 51 40
        e 16 90 51 7f
        e 176 80 51 40
        e 16 90 4f 7f
        e 80 80 4f 40
        e 16 90 4d 7f
        e 80 80 4d 40
        e 16 90 4c 7f
        e 176 80 4c 40
        e 16 90 4d 7f
        e 80 80 4d 40
        e 16 90 4f 7f
        e 80 80 4f 40
        e 16 90 4f 7f
        e 368 80 4f 40
        e 16 90 4f 7f
        e 176 80 4f 40
        e 16 90 4f 7f
        e 128 80 4f 40
        e 16 90 4f 7f
        e 32 80 4f 40
        e 16 90 4f 7f
        e 176 80 4f 40
        e 16 90 48 7f
        e 176 80 48 40
        e 16 90 4f 7f
        e 128 80 4f 40
        e 16 90 4e 7f
        e 32 80 4e 40
        e 16 90 4f 7f
        e 80 80 4f 40
        e 16 90 51 7f
        e 80 80 51 40
        e 16 90 52 7f
        e 176 80 52 40
        e 16 90 4f 7f
        e 176 80 4f 40
        e 16 90 51 7f
        e 128 80 51 40
        e 16 90 4f 7f
        e 32 80 4f 40
        e 16 90 51 7f
        e 80 80 51 40
        e 16 90 52 7f
        e 80 80 52 40
        e 16 90 54 7f
        e 176 80 54 40
        e 16 90 4d 7f
        e 176 80 4d 40
        e 16 90 4f 7f
        e 176 80 4f 40
        e 16 90 52 7f
        e 176 80 52 40
        e 16 90 51 7f
        e 80 80 51 40
        e 16 90 4f 7f
        e 80 80 4f 40
        e 16 90 4a 7f
        e 80 80 4a 40
        e 16 90 4c 7f
        e 80 80 4c 40
        e 16 90 4d 7f
        e 176 80 4d 40
        e 16 90 4d 7f
        e 128 80 4d 40
        e 16 90 4d 7f
        e 32 80 4d 40
        e 16 90 4d 7f
        e 176 80 4d 40
        E 16 b0 7b 00
        GUID {847F49D6-DCEA-384E-AC99-FC02E6095550}
        IGNTEMPO 0 120 4 4
        SRCCOLOR 202
        VELLANE -1 86 6
        CFGEDITVIEW -912 10.966507 40 14 0 -1 0 0 0 0.5
        KEYSNAP 0
        TRACKSEL 252
        EVTFILTER 0 -1 -1 -1 -1 0 0 0 0 -1 -1 -1 -1 0 -1 0 -1 -1
        CFGEDIT 1 0 0 0 0 0 1 0 1 1 1 0.25 285 20 1280 633 0 0 2 3 0 0 0 0 0 0.5 0 0 1 64
      >
    >
    <ITEM
      POSITION 0
      SNAPOFFS 0
      LENGTH 47.5
      LOOP 1
      ALLTAKES 0
      FADEIN 1 0 0 1 0 0
      FADEOUT 1 0 0 1 0 0
      MUTE 1
      SEL 0
      YPOS 0.333333 0.166667
      IGUID {0471C56D-B00C-CB40-9809-4BD0E31BCB6E}
      IID 3
      NAME "BASS                 - National_Anthems_-_United_Arab_Emirates.mid"
      VOLPAN 1 0 1 -1
      SOFFS 0 0
      PLAYRATE 1 1 0 -1 0 0.0025
      CHANMODE 0
      GUID {91E9F21E-0758-174C-9E2B-E6FD9F4A7314}
      <SOURCE MIDI
        HASDATA 1 192 QN
        POOLEDEVTS {96682B35-20DC-9644-898B-E26234CED50C}
        <X 0 0 0 0 3 "BASS                "
          /wNCQVNTICAgICAgICAgICAgICAgIA==
        >
        e 0 90 29 7f
        e 176 80 29 40
        e 16 90 35 7f
        e 176 80 35 40
        e 16 90 29 7f
        e 176 80 29 40
        e 16 90 2e 7f
        e 176 80 2e 40
        e 16 90 2d 7f
        e 176 80 2d 40
        e 16 90 2b 7f
        e 176 80 2b 40
        e 16 90 29 7f
        e 176 80 29 40
        e 16 90 2b 7f
        e 80 80 2b 40
        e 16 90 24 7f
        e 80 80 24 40
        e 16 90 24 7f
        e 176 80 24 40
        e 16 90 30 7f
        e 176 80 30 40
        e 16 90 24 7f
        e 176 80 24 40
        e 16 90 30 7f
        e 176 80 30 40
        e 16 90 34 7f
        e 176 80 34 40
        e 16 90 30 7f
        e 176 80 30 40
        e 16 90 2e 7f
        e 80 80 2e 40
        e 16 90 30 7f
        e 80 80 30 40
        e 16 90 34 7f
        e 80 80 34 40
        e 16 90 37 7f
        e 80 80 37 40
        e 16 90 30 7f
        e 464 80 30 40
        e 16 90 24 7f
        e 80 80 24 40
        e 16 90 28 7f
        e 80 80 28 40
        e 16 90 2b 7f
        e 80 80 2b 40
        e 16 90 29 7f
        e 464 80 29 40
        e 16 90 30 7f
        e 80 80 30 40
        e 16 90 2d 7f
        e 80 80 2d 40
        e 16 90 29 7f
        e 80 80 29 40
        e 16 90 24 7f
        e 176 80 24 40
        e 16 90 30 7f
        e 176 80 30 40
        e 16 90 28 7f
        e 176 80 28 40
        e 16 90 34 7f
        e 176 80 34 40
        e 16 90 29 7f
        e 176 80 29 40
        e 16 90 35 7f
        e 176 80 35 40
        e 16 90 35 7f
        e 176 80 35 40
        e 208 90 35 7f
        e 272 80 35 40
        e 112 90 2e 7f
        e 272 80 2e 40
        e 112 90 34 7f
        e 272 80 34 40
        e 112 90 30 7f
        e 272 80 30 40
        e 112 90 24 7f
        e 176 80 24 40
        e 16 90 30 7f
        e 176 80 30 40
        e 16 90 24 7f
        e 176 80 24 40
        e 208 90 29 7f
        e 176 80 29 40
        e 16 90 35 7f
        e 176 80 35 40
        e 16 90 29 7f
        e 176 80 29 40
        e 208 90 2b 7f
        e 176 80 2b 40
        e 16 90 29 7f
        e 176 80 29 40
        e 16 90 28 7f
        e 176 80 28 40
        e 16 90 24 7f
        e 176 80 24 40
        e 16 90 29 7f
        e 176 80 29 40
        e 16 90 2b 7f
        e 176 80 2b 40
        e 16 90 2d 7f
        e 176 80 2d 40
        e 16 90 2e 7f
        e 176 80 2e 40
        e 16 90 30 7f
        e 272 80 30 40
        e 16 90 32 7f
        e 80 80 32 40
        e 16 90 30 7f
        e 80 80 30 40
        e 16 90 2e 7f
        e 80 80 2e 40
        e 16 90 2d 7f
        e 80 80 2d 40
        e 16 90 2b 7f
        e 80 80 2b 40
        e 16 90 29 7f
        e 80 80 29 40
        e 16 90 29 7f
        e 80 80 29 40
        e 16 90 28 7f
        e 80 80 28 40
        e 16 90 26 7f
        e 80 80 26 40
        e 16 90 24 7f
        e 80 80 24 40
        e 16 90 2e 7f
        e 80 80 2e 40
        e 16 90 2d 7f
        e 80 80 2d 40
        e 16 90 2b 7f
        e 80 80 2b 40
        e 16 90 29 7f
        e 176 80 29 40
        e 16 90 37 7f
        e 176 80 37 40
        e 16 90 35 7f
        e 176 80 35 40
        e 16 90 2e 7f
        e 176 80 2e 40
        e 16 90 2d 7f
        e 176 80 2d 40
        e 16 90 2b 7f
        e 176 80 2b 40
        e 16 90 29 7f
        e 176 80 29 40
        e 16 90 2b 7f
        e 80 80 2b 40
        e 16 90 2d 7f
        e 80 80 2d 40
        e 16 90 30 7f
        e 176 80 30 40
        e 16 90 30 7f
        e 80 80 30 40
        e 16 90 30 7f
        e 80 80 30 40
        e 16 90 2e 7f
        e 80 80 2e 40
        e 16 90 24 7f
        e 80 80 24 40
        e 16 90 28 7f
        e 80 80 28 40
        e 16 90 2b 7f
        e 80 80 2b 40
        e 16 90 2e 7f
        e 80 80 2e 40
        e 16 90 2d 7f
        e 80 80 2d 40
        e 16 90 2b 7f
        e 80 80 2b 40
        e 16 90 29 7f
        e 80 80 29 40
        e 16 90 2e 7f
        e 80 80 2e 40
        e 16 90 30 7f
        e 80 80 30 40
        e 16 90 34 7f
        e 80 80 34 40
        e 16 90 37 7f
        e 80 80 37 40
        e 16 90 30 7f
        e 464 80 30 40
        e 16 90 24 7f
        e 80 80 24 40
        e 16 90 28 7f
        e 80 80 28 40
        e 16 90 2b 7f
        e 80 80 2b 40
        e 16 90 29 7f
        e 464 80 29 40
        e 16 90 30 7f
        e 80 80 30 40
        e 16 90 2d 7f
        e 80 80 2d 40
        e 16 90 29 7f
        e 80 80 29 40
        e 16 90 28 7f
        e 368 80 28 40
        e 16 90 30 7f
        e 176 80 30 40
        e 16 90 24 7f
        e 176 80 24 40
        e 16 90 29 7f
        e 176 80 29 40
        e 16 90 35 7f
        e 176 80 35 40
        e 16 90 29 7f
        e 176 80 29 40
        E 16 b0 7b 00
        GUID {05F93B9B-1DA0-424B-95DA-634716837D47}
        IGNTEMPO 0 120 4 4
        SRCCOLOR 201
        VELLANE -1 86 6
        CFGEDITVIEW 0 11.073684 65 12 0 -1 0 0 0 0.5
        KEYSNAP 0
        TRACKSEL 252
        EVTFILTER 0 -1 -1 -1 -1 0 0 0 0 -1 -1 -1 -1 0 -1 0 -1 -1
        CFGEDIT 1 0 0 0 0 0 1 0 1 1 1 0.25 285 20 1280 633 0 0 2 3 0 0 0 0 0 0.5 0 0 1 64
      >
    >
    <ITEM
      POSITION 0
      SNAPOFFS 0
      LENGTH 47.5
      LOOP 1
      ALLTAKES 0
      FADEIN 1 0 0 1 0 0
      FADEOUT 1 0 0 1 0 0
      MUTE 0
      SEL 0
      YPOS 0 0.166667
      IGUID {0C58B3CC-2ACB-9248-B4E3-65F308E156DA}
      IID 1
      NAME "R.H.                 - National_Anthems_-_United_Arab_Emirates.mid"
      VOLPAN 1 0 1 -1
      SOFFS 0 0
      PLAYRATE 1 1 0 -1 0 0.0025
      CHANMODE 0
      GUID {AF12A4F6-E9E5-4E45-BB41-F72308870B89}
      <SOURCE MIDI
        HASDATA 1 192 QN
        POOLEDEVTS {031B1412-5A14-EB47-9B4A-CEBAE2A46688}
        <X 0 0 0 0 3 "R.H.                "
          /wNSLkguICAgICAgICAgICAgICAgIA==
        >
        <X 0 0 0 0 1 "THE SOFTWARE TOOLWORKS"
          /wFUSEUgU09GVFdBUkUgVE9PTFdPUktT
        >
        <X 0 0 0 0 1 "WORLD ATLAS"
          /wFXT1JMRCBBVExBUw==
        >
        <X 0 0 0 0 1 "MultiMedia Windows Version"
          /wFNdWx0aU1lZGlhIFdpbmRvd3MgVmVyc2lvbg==
        >
        <X 0 0 0 0 1 "Country: UNITED ARAB EMIRATES"
          /wFDb3VudHJ5OiBVTklURUQgQVJBQiBFTUlSQVRFUw==
        >
        <X 0 0 0 0 1 "Anthem Name:"
          /wFBbnRoZW0gTmFtZTo=
        >
        <X 0 0 0 0 1 "(p) (c) The Software Toolworks 1991"
          /wEocCkgKGMpIFRoZSBTb2Z0d2FyZSBUb29sd29ya3MgMTk5MQ==
        >
        <X 0 0 0 0 1 "edit date: 9-14-91"
          /wFlZGl0IGRhdGU6IDktMTQtOTE=
        >
        <X 0 0 0 0 1 "MMWIN EDIT DATE: 9-14-91"
          /wFNTVdJTiBFRElUIERBVEU6IDktMTQtOTE=
        >
        <X 0 0 0 0 1 "This file provided by:"
          /wFUaGlzIGZpbGUgcHJvdmlkZWQgYnk6
        >
        <X 0 0 0 0 1 "Rob Wallace Music"
          /wFSb2IgV2FsbGFjZSBNdXNpYw==
        >
        <X 0 0 0 0 1 "(602) 979-6201"
          /wEoNjAyKSA5NzktNjIwMQ==
        >
        e 0 90 3c 64
        e 0 90 41 64
        e 0 90 45 64
        e 0 90 48 64
        e 176 80 3c 40
        e 0 80 41 40
        e 0 80 45 40
        e 0 80 48 40
        e 16 90 41 64
        e 0 90 46 64
        e 0 90 4a 64
        e 0 90 4d 64
        e 128 80 41 40
        e 0 80 46 40
        e 0 80 4a 40
        e 0 80 4d 40
        e 16 90 40 64
        e 0 90 4c 64
        e 32 80 40 40
        e 0 80 4c 40
        e 16 90 41 64
        e 0 90 45 64
        e 0 90 48 64
        e 0 90 4d 64
        e 80 80 41 40
        e 0 80 45 40
        e 0 80 48 40
        e 16 90 43 64
        e 0 90 46 64
        e 80 80 4d 40
        e 0 80 43 40
        e 0 80 46 40
        e 16 90 41 64
        e 0 90 45 64
        e 0 90 48 64
        e 80 80 41 40
        e 0 80 45 40
        e 16 90 40 64
        e 0 90 43 64
        e 80 80 48 40
        e 0 80 40 40
        e 0 80 43 40
        e 16 90 41 64
        e 0 90 48 64
        e 0 90 4d 64
        e 176 80 41 40
        e 0 80 48 40
        e 0 80 4d 40
        e 16 90 43 64
        e 0 90 48 64
        e 0 90 4f 64
        e 80 80 43 40
        e 0 80 4f 40
        e 16 90 45 64
        e 0 90 51 64
        e 80 80 48 40
        e 0 80 45 40
        e 0 80 51 40
        e 16 90 45 64
        e 0 90 48 64
        e 0 90 4d 64
        e 0 90 51 64
        e 176 80 45 40
        e 0 80 48 40
        e 0 80 4d 40
        e 0 80 51 40
        e 16 90 43 64
        e 0 90 48 64
        e 0 90 4f 64
        e 80 80 43 40
        e 0 80 48 40
        e 0 80 4f 40
        e 16 90 41 64
        e 0 90 45 64
        e 0 90 48 64
        e 0 90 4d 64
        e 80 80 41 40
        e 0 80 45 40
        e 0 80 48 40
        e 0 80 4d 40
        e 16 90 40 64
        e 0 90 43 64
        e 0 90 48 64
        e 0 90 4c 64
        e 176 80 40 40
        e 0 80 43 40
        e 0 80 48 40
        e 0 80 4c 40
        e 16 90 41 64
        e 0 90 45 64
        e 0 90 48 64
        e 0 90 4d 64
        e 80 80 41 40
        e 0 80 45 40
        e 0 80 48 40
        e 0 80 4d 40
        e 16 90 43 64
        e 0 90 48 64
        e 0 90 4c 64
        e 0 90 4f 64
        e 80 80 43 40
        e 0 80 48 40
        e 0 80 4c 40
        e 0 80 4f 40
        e 16 90 43 64
        e 0 90 48 64
        e 0 90 4c 64
        e 0 90 4f 64
        e 368 80 43 40
        e 0 80 48 40
        e 0 80 4c 40
        e 0 80 4f 40
        e 16 90 43 64
        e 0 90 46 64
        e 0 90 4c 64
        e 0 90 4f 64
        e 176 80 43 40
        e 0 80 46 40
        e 0 80 4c 40
        e 0 80 4f 40
        e 16 90 43 64
        e 0 90 46 64
        e 0 90 4c 64
        e 0 90 4f 64
        e 128 80 43 40
        e 0 80 46 40
        e 0 80 4c 40
        e 0 80 4f 40
        e 16 90 43 64
        e 0 90 46 64
        e 0 90 4c 64
        e 0 90 4f 64
        e 32 80 43 40
        e 0 80 46 40
        e 0 80 4c 40
        e 0 80 4f 40
        e 16 90 43 64
        e 0 90 46 64
        e 0 90 4c 64
        e 0 90 4f 64
        e 176 80 43 40
        e 0 80 46 40
        e 0 80 4c 40
        e 0 80 4f 40
        e 16 90 3c 64
        e 0 90 40 64
        e 0 90 48 64
        e 176 80 3c 40
        e 0 80 40 40
        e 0 80 48 40
        e 16 90 43 64
        e 0 90 48 64
        e 0 90 4c 64
        e 0 90 4f 64
        e 128 80 43 40
        e 0 80 48 40
        e 0 80 4c 40
        e 0 80 4f 40
        e 16 90 42 64
        e 0 90 4e 64
        e 32 80 42 40
        e 0 80 4e 40
        e 16 90 43 64
        e 0 90 4f 64
        e 80 80 43 40
        e 0 80 4f 40
        e 16 90 45 64
        e 0 90 51 64
        e 80 80 45 40
        e 0 80 51 40
        e 16 90 46 64
        e 0 90 4c 64
        e 0 90 4f 64
        e 0 90 52 64
        e 176 80 46 40
        e 0 80 4c 40
        e 0 80 4f 40
        e 0 80 52 40
        e 16 90 43 64
        e 0 90 48 64
        e 0 90 4c 64
        e 0 90 4f 64
        e 176 80 43 40
        e 0 80 48 40
        e 0 80 4c 40
        e 0 80 4f 40
        e 16 90 45 64
        e 0 90 4d 64
        e 0 90 51 64
        e 128 80 45 40
        e 0 80 4d 40
        e 0 80 51 40
        e 16 90 43 64
        e 0 90 4c 64
        e 0 90 4f 64
        e 32 80 43 40
        e 0 80 4c 40
        e 0 80 4f 40
        e 16 90 45 64
        e 0 90 4d 64
        e 0 90 51 64
        e 80 80 45 40
        e 0 80 4d 40
        e 0 80 51 40
        e 16 90 46 64
        e 0 90 4f 64
        e 0 90 52 64
        e 80 80 46 40
        e 0 80 4f 40
        e 0 80 52 40
        e 16 90 48 64
        e 0 90 51 64
        e 0 90 54 64
        e 176 80 48 40
        e 0 80 51 40
        e 0 80 54 40
        e 16 90 41 64
        e 0 90 45 64
        e 0 90 4d 64
        e 176 80 41 40
        e 0 80 45 40
        e 0 80 4d 40
        e 16 90 43 64
        e 0 90 46 64
        e 0 90 4c 64
        e 0 90 4f 64
        e 176 80 43 40
        e 0 80 46 40
        e 0 80 4c 40
        e 0 80 4f 40
        e 16 90 46 64
        e 0 90 4a 64
        e 0 90 52 64
        e 176 80 46 40
        e 0 80 4a 40
        e 0 80 52 40
        e 16 90 45 64
        e 0 90 48 64
        e 0 90 51 64
        e 128 80 45 40
        e 0 80 48 40
        e 0 80 51 40
        e 16 90 43 64
        e 0 90 4f 64
        e 32 80 43 40
        e 0 80 4f 40
        e 16 90 3e 64
        e 0 90 46 64
        e 0 90 4a 64
        e 80 80 3e 40
        e 0 80 46 40
        e 0 80 4a 40
        e 16 90 40 64
        e 0 90 46 64
        e 0 90 4c 64
        e 80 80 40 40
        e 0 80 46 40
        e 0 80 4c 40
        e 16 90 41 64
        e 0 90 45 64
        e 0 90 48 64
        e 0 90 4d 64
        e 176 80 41 40
        e 0 80 45 40
        e 0 80 48 40
        e 0 80 4d 40
        e 16 90 41 64
        e 0 90 45 64
        e 0 90 48 64
        e 0 90 4d 64
        e 128 80 41 40
        e 0 80 45 40
        e 0 80 48 40
        e 0 80 4d 40
        e 16 90 41 64
        e 0 90 45 64
        e 0 90 48 64
        e 0 90 4d 64
        e 32 80 41 40
        e 0 80 45 40
        e 0 80 48 40
        e 0 80 4d 40
        e 16 90 41 64
        e 0 90 45 64
        e 0 90 48 64
        e 0 90 4d 64
        e 176 80 41 40
        e 0 80 45 40
        e 0 80 48 40
        e 0 80 4d 40
        e 208 90 41 64
        e 0 90 4d 64
        e 176 80 41 40
        e 0 80 4d 40
        e 16 90 41 64
        e 0 90 4d 64
        e 128 80 41 40
        e 0 80 4d 40
        e 16 90 40 64
        e 0 90 4c 64
        e 32 80 40 40
        e 0 80 4c 40
        e 16 90 3e 64
        e 0 90 4a 64
        e 176 80 3e 40
        e 0 80 4a 40
        e 16 90 3e 64
        e 0 90 4a 64
        e 128 80 3e 40
        e 0 80 4a 40
        e 16 90 3c 64
        e 0 90 48 64
        e 32 80 3c 40
        e 0 80 48 40
        e 16 90 3a 64
        e 0 90 46 64
        e 176 80 3a 40
        e 0 80 46 40
        e 16 90 3a 64
        e 0 90 46 64
        e 128 80 3a 40
        e 0 80 46 40
        e 16 90 39 64
        e 0 90 45 64
        e 32 80 39 40
        e 0 80 45 40
        e 16 90 37 64
        e 0 90 43 64
        e 80 80 37 40
        e 0 80 43 40
        e 16 90 41 64
        e 32 80 41 40
        e 16 90 43 64
        e 32 80 43 40
        e 16 90 45 64
        e 32 80 45 40
        e 16 90 46 64
        e 32 80 46 40
        e 16 90 48 64
        e 32 80 48 40
        e 16 90 4a 64
        e 32 80 4a 40
        e 16 90 40 64
        e 0 90 43 64
        e 0 90 4c 64
        e 176 80 40 40
        e 0 80 43 40
        e 0 80 4c 40
        e 16 90 40 64
        e 0 90 4c 64
        e 128 80 40 40
        e 0 80 4c 40
        e 16 90 3e 64
        e 0 90 4a 64
        e 32 80 3e 40
        e 0 80 4a 40
        e 16 90 3c 64
        e 0 90 40 64
        e 0 90 48 64
        e 176 80 3c 40
        e 0 80 40 40
        e 0 80 48 40
        e 16 90 3c 64
        e 0 90 40 64
        e 0 90 48 64
        e 128 80 3c 40
        e 0 80 40 40
        e 0 80 48 40
        e 16 90 3a 64
        e 0 90 3e 64
        e 0 90 46 64
        e 32 80 3a 40
        e 0 80 3e 40
        e 0 80 46 40
        e 16 90 39 64
        e 0 90 3c 64
        e 0 90 45 64
        e 176 80 39 40
        e 0 80 3c 40
        e 0 80 45 40
        e 16 90 39 64
        e 0 90 3c 64
        e 0 90 45 64
        e 128 80 39 40
        e 0 80 3c 40
        e 0 80 45 40
        e 16 90 37 64
        e 0 90 3a 64
        e 0 90 43 64
        e 32 80 37 40
        e 0 80 3a 40
        e 0 80 43 40
        e 16 90 39 64
        e 0 90 41 64
        e 320 80 39 40
        e 0 80 41 40
        e 16 90 41 64
        e 0 90 4d 64
        e 32 80 41 40
        e 0 80 4d 40
        e 16 90 43 64
        e 0 90 48 64
        e 0 90 4f 64
        e 176 80 43 40
        e 0 80 48 40
        e 0 80 4f 40
        e 16 90 45 64
        e 0 90 48 64
        e 0 90 51 64
        e 176 80 45 40
        e 0 80 48 40
        e 0 80 51 40
        e 16 90 46 64
        e 0 90 4c 64
        e 0 90 4f 64
        e 0 90 52 64
        e 176 80 46 40
        e 0 80 4c 40
        e 0 80 4f 40
        e 0 80 52 40
        e 16 90 43 64
        e 0 90 4c 64
        e 0 90 4f 64
        e 176 80 43 40
        e 0 80 4c 40
        e 0 80 4f 40
        e 16 90 45 64
        e 0 90 4d 64
        e 0 90 51 64
        e 176 80 45 40
        e 0 80 4d 40
        e 0 80 51 40
        e 16 90 46 64
        e 0 90 4f 64
        e 0 90 52 64
        e 176 80 46 40
        e 0 80 4f 40
        e 0 80 52 40
        e 16 90 48 64
        e 0 90 51 64
        e 0 90 54 64
        e 176 80 48 40
        e 0 80 51 40
        e 0 80 54 40
        e 16 90 4a 64
        e 0 90 52 64
        e 0 90 56 64
        e 176 80 4a 40
        e 0 80 52 40
        e 0 80 56 40
        e 16 90 40 64
        e 0 90 46 64
        e 0 90 4c 64
        e 80 80 40 40
        e 0 80 46 40
        e 0 80 4c 40
        e 16 90 3c 64
        e 0 90 48 64
        e 80 80 3c 40
        e 0 80 48 40
        e 16 90 3e 64
        e 0 90 4a 64
        e 80 80 3e 40
        e 0 80 4a 40
        e 16 90 41 64
        e 0 90 4d 64
        e 80 80 41 40
        e 0 80 4d 40
        e 16 90 40 64
        e 0 90 4c 64
        e 80 80 40 40
        e 0 80 4c 40
        e 16 90 3c 64
        e 0 90 48 64
        e 80 80 3c 40
        e 0 80 48 40
        e 16 90 3e 64
        e 0 90 4a 64
        e 80 80 3e 40
        e 0 80 4a 40
        e 16 90 40 64
        e 0 90 4c 64
        e 80 80 40 40
        e 0 80 4c 40
        e 16 90 41 64
        e 0 90 45 64
        e 0 90 4d 64
        e 80 80 41 40
        e 0 80 45 40
        e 0 80 4d 40
        e 16 90 41 64
        e 0 90 4d 64
        e 32 80 41 40
        e 0 80 4d 40
        e 16 90 41 64
        e 0 90 4d 64
        e 32 80 41 40
        e 0 80 4d 40
        e 16 90 41 64
        e 0 90 4d 64
        e 80 80 41 40
        e 0 80 4d 40
        e 16 90 41 64
        e 0 90 4d 64
        e 80 80 41 40
        e 0 80 4d 40
        e 16 90 41 64
        e 0 90 4d 64
        e 80 80 41 40
        e 0 80 4d 40
        e 16 90 41 64
        e 0 90 4d 64
        e 80 80 41 40
        e 0 80 4d 40
        e 16 90 41 64
        e 0 90 4d 64
        e 80 80 41 40
        e 0 80 4d 40
        e 16 90 41 64
        e 0 90 4d 64
        e 80 80 41 40
        e 0 80 4d 40
        e 16 90 3c 64
        e 0 90 41 64
        e 0 90 45 64
        e 0 90 48 64
        e 176 80 3c 40
        e 0 80 41 40
        e 0 80 45 40
        e 0 80 48 40
        e 16 90 41 64
        e 0 90 4a 64
        e 0 90 4d 64
        e 128 80 41 40
        e 0 80 4a 40
        e 0 80 4d 40
        e 16 90 40 64
        e 0 90 4c 64
        e 32 80 40 40
        e 0 80 4c 40
        e 16 90 41 64
        e 0 90 48 64
        e 0 90 4d 64
        e 80 80 48 40
        e 16 90 46 64
        e 80 80 41 40
        e 0 80 4d 40
        e 0 80 46 40
        e 16 90 3c 64
        e 0 90 45 64
        e 0 90 48 64
        e 80 80 45 40
        e 16 90 43 64
        e 80 80 3c 40
        e 0 80 48 40
        e 0 80 43 40
        e 16 90 41 64
        e 0 90 48 64
        e 0 90 4d 64
        e 176 80 41 40
        e 0 80 48 40
        e 0 80 4d 40
        e 16 90 43 64
        e 0 90 48 64
        e 0 90 4f 64
        e 80 80 43 40
        e 0 80 48 40
        e 0 80 4f 40
        e 16 90 45 64
        e 0 90 48 64
        e 0 90 51 64
        e 80 80 45 40
        e 0 80 48 40
        e 0 80 51 40
        e 16 90 45 64
        e 0 90 48 64
        e 0 90 51 64
        e 176 80 45 40
        e 0 80 48 40
        e 0 80 51 40
        e 16 90 43 64
        e 0 90 48 64
        e 0 90 4f 64
        e 80 80 43 40
        e 0 80 48 40
        e 0 80 4f 40
        e 16 90 41 64
        e 0 90 4d 64
        e 80 80 41 40
        e 0 80 4d 40
        e 16 90 40 64
        e 0 90 48 64
        e 0 90 4c 64
        e 176 80 40 40
        e 0 80 48 40
        e 0 80 4c 40
        e 16 90 41 64
        e 0 90 48 64
        e 0 90 4d 64
        e 80 80 41 40
        e 0 80 48 40
        e 0 80 4d 40
        e 16 90 43 64
        e 0 90 48 64
        e 0 90 4f 64
        e 80 80 43 40
        e 0 80 48 40
        e 0 80 4f 40
        e 16 90 43 64
        e 0 90 4c 64
        e 0 90 4f 64
        e 368 80 43 40
        e 0 80 4c 40
        e 0 80 4f 40
        e 16 90 43 64
        e 0 90 46 64
        e 0 90 4f 64
        e 176 80 43 40
        e 0 80 46 40
        e 0 80 4f 40
        e 16 90 43 64
        e 0 90 46 64
        e 0 90 4f 64
        e 128 80 43 40
        e 0 80 46 40
        e 0 80 4f 40
        e 16 90 43 64
        e 0 90 4f 64
        e 32 80 43 40
        e 0 80 4f 40
        e 16 90 43 64
        e 0 90 4f 64
        e 176 80 43 40
        e 0 80 4f 40
        e 16 90 3c 64
        e 0 90 48 64
        e 176 80 3c 40
        e 0 80 48 40
        e 16 90 43 64
        e 0 90 48 64
        e 0 90 4c 64
        e 0 90 4f 64
        e 128 80 43 40
        e 0 80 48 40
        e 0 80 4c 40
        e 0 80 4f 40
        e 16 90 42 64
        e 0 90 4e 64
        e 32 80 42 40
        e 0 80 4e 40
        e 16 90 43 64
        e 0 90 4f 64
        e 80 80 43 40
        e 0 80 4f 40
        e 16 90 45 64
        e 0 90 51 64
        e 80 80 45 40
        e 0 80 51 40
        e 16 90 46 64
        e 0 90 4f 64
        e 0 90 52 64
        e 176 80 46 40
        e 0 80 4f 40
        e 0 80 52 40
        e 16 90 43 64
        e 0 90 48 64
        e 0 90 4c 64
        e 0 90 4f 64
        e 176 80 43 40
        e 0 80 48 40
        e 0 80 4c 40
        e 0 80 4f 40
        e 16 90 45 64
        e 0 90 4d 64
        e 0 90 51 64
        e 128 80 45 40
        e 0 80 4d 40
        e 0 80 51 40
        e 16 90 43 64
        e 0 90 4f 64
        e 32 80 43 40
        e 0 80 4f 40
        e 16 90 45 64
        e 0 90 51 64
        e 80 80 45 40
        e 0 80 51 40
        e 16 90 46 64
        e 0 90 52 64
        e 80 80 46 40
        e 0 80 52 40
        e 16 90 48 64
        e 0 90 54 64
        e 176 80 48 40
        e 0 80 54 40
        e 16 90 41 64
        e 0 90 48 64
        e 0 90 4d 64
        e 176 80 41 40
        e 0 80 48 40
        e 0 80 4d 40
        e 16 90 43 64
        e 0 90 46 64
        e 0 90 4f 64
        e 176 80 43 40
        e 0 80 46 40
        e 0 80 4f 40
        e 16 90 46 64
        e 0 90 4f 64
        e 0 90 52 64
        e 176 80 46 40
        e 0 80 4f 40
        e 0 80 52 40
        e 16 90 45 64
        e 0 90 4d 64
        e 0 90 51 64
        e 80 80 45 40
        e 0 80 4d 40
        e 0 80 51 40
        e 16 90 43 64
        e 0 90 4f 64
        e 80 80 43 40
        e 0 80 4f 40
        e 16 90 3e 64
        e 0 90 41 64
        e 0 90 4a 64
        e 80 80 3e 40
        e 0 80 41 40
        e 0 80 4a 40
        e 16 90 40 64
        e 0 90 43 64
        e 0 90 4c 64
        e 80 80 40 40
        e 0 80 43 40
        e 0 80 4c 40
        e 16 90 41 64
        e 0 90 45 64
        e 0 90 4d 64
        e 176 80 41 40
        e 0 80 45 40
        e 0 80 4d 40
        e 16 90 41 64
        e 0 90 45 64
        e 0 90 4d 64
        e 128 80 41 40
        e 0 80 45 40
        e 0 80 4d 40
        e 16 90 41 64
        e 0 90 45 64
        e 0 90 4d 64
        e 32 80 41 40
        e 0 80 45 40
        e 0 80 4d 40
        e 16 90 41 64
        e 0 90 45 64
        e 0 90 4d 64
        e 176 80 41 40
        e 0 80 45 40
        e 0 80 4d 40
        E 16 b0 7b 00
        GUID {834CB3BD-F8D4-1746-9C72-178E786307DD}
        IGNTEMPO 0 120 4 4
        SRCCOLOR 199
        VELLANE -1 86 6
        CFGEDITVIEW -912 10.966507 40 10 0 -1 0 0 0 0.5
        KEYSNAP 0
        TRACKSEL 252
        EVTFILTER 0 -1 -1 -1 -1 0 0 0 0 -1 -1 -1 -1 0 -1 0 -1 -1
        CFGEDIT 1 0 0 0 0 0 1 0 1 1 1 0.25 285 20 1280 633 0 0 2 3 0 0 0 0 0 0.5 0 0 1 64
      >
    >
  >
  <TRACK {3CF13A00-0AFC-8542-AD98-73B6D91102DB}
    NAME "vst Plogue"
    PEAKCOL 26779488
    BEAT -1
    AUTOMODE 0
    VOLPAN 1 0 -1 -1 1
    MUTESOLO 0 0 0
    IPHASE 0
    ISBUS 0 0
    BUSCOMP 0 0
    SHOWINMIX 1 0.6667 0.464368 1 0.5 0 0 0
    FREEMODE 0
    SEL 0
    REC 0 0 0 1 0 0 0
    VU 2
    TRACKHEIGHT 0 0
    INQ 0 0 0 0.5 100 0 0 100
    NCHAN 4
    FX 1
    TRACKID {3CF13A00-0AFC-8542-AD98-73B6D91102DB}
    PERF 0
    AUXRECV 6 0 1 0 0 0 0 0 0 -1:U 99 -1 ''
    AUXRECV 6 0 1 0 0 0 0 0 0 -1:U 132 -1 ''
    MIDIOUT -1
    MAINSEND 0 0
    <FXCHAIN
      SHOW 0
      LASTSEL 0
      DOCKED 0
      BYPASS 0 0 0
      <VST "VSTi: chipsounds (Multi) (Plogue Art et Technologie, Inc) (32 out)" "chipsounds Multi.vst" 0 "" 1347241807
        T0dNUO5e7f4AAAAAIAAAAAEAAAAAAAAAAgAAAAAAAAAEAAAAAAAAAAgAAAAAAAAAEAAAAAAAAAAgAAAAAAAAAEAAAAAAAAAAgAAAAAAAAAAAAQAAAAAAAAACAAAAAAAA
        AAQAAAAAAAAACAAAAAAAAAAQAAAAAAAAACAAAAAAAAAAQAAAAAAAAACAAAAAAAAAAAABAAAAAAAAAAIAAAAAAAAABAAAAAAAAAAIAAAAAAAAABAAAAAAAAAAIAAAAAAA
        AABAAAAAAAAAAIAAAAAAAAAAAAEAAAAAAAAAAgAAAAAAAAAEAAAAAAAAAAgAAAAAAAAAEAAAAAAAAAAgAAAAAAAAAEAAAAAAAAAAgAAAAADwBwAAAQAAAAAAEAA=
        Q0VHUOteAAB4nO1c3W/bRgx/718h+Gl7qHTfH0DSIXHqLcCyFXCGPRaqfXW0ybInyVm7v36UZCenxGfJtdsEzfGhtc88HkmdGP1Ink5++jRPg1uTF8kiOx3gEA2Cn968
        OjnLk3gc3xrrJ43FIFjmi+lqUl5ewABCevDmVQB0MjZlmWSzIvhnFadJ+Rl+HQRFmZt4DsOnA0oGwTz+NK5HztJ0Mbk6Px1wDMNXlxeXv6/Kq8XU1LPiVbmYxyWsOU4X
        5ekA2UOpuTXp6SDJQPZqbrJyEKTJrWkmA2cxOR0IWn+I0xiGcPA6MJVSYTFJ18NDmGdyYAS+Wbr4EKfXq6xWEwaijUWweJBM67EsnlficRi8W+UmGN4ky2h8eREJrnDw
        w2/X4+GPg+BDnP19OV27xXKbImDk5CbOskpzkLZcpOAfNgjK+1WXH97ncTaDVV6DC5YlfCnqH+bWx8WkhCtyZ6euxlbleuDf92lclJXcxoDaiKs4yTZG3MbpqvFwtI0D
        33EgBwfp5KCdHKyTg3dyiE4O2cmhOjl0JwdG3SzdXsXdbsXdfsXdjsVOz76L83i++xLfszgXumex3B8qzhEQ1khSpgR1zbGdGTJdT0JMCkVlFXYcC1nuDTHRNXFCsSCK
        OScxexJtVuJUMIaVc46w56hmDqEKpnD3JGuThWBMo55SijDQFbumKXstWq+EMNYEaaKdc/T+czRq2dRoJwWGmMaI8zJR2+VSSYYw50ILJdSDla7jfGbKdeycLObhu3Qx
        W5mw+ssS/jr6PVwVJsdWtKpnDVcFxPqLuIyDm/LzEqZyyUFykfwHn5lgVmgFA0w2TeLm4xTmwIcNjZr/CPLkydNzoXaMiJogsW/UQD5qePL0cuhLo8Z1nsxmJh8DAjTZ
        xOTdcYNRRjdxg3ArbJBtYQM36o3W1HyX9Wc6lCPdMmKI6GiHISdRBTkfok98VPSJt6BP5dGnR5/PAn3iFl7CQsj6vmFIIyqcOMayINSIc8A9khOlqMZOjGVDQCKZQFwr
        zbjAADi/GqrlvWAsZ41oAYAKkJx7km0DbTzVDZidu/cw/LkHLLQB6L133IATHsZc0ePrRH2h9436vIn6MPL2cdSviUh63hoYwd+Cilc9YoXRi20SEGlL6PhrstNB/mHa
        k6eXSkeJGj5x58nTC6K9kSs5KnJlG+SK75ErOyZyRR3I1Qls9kCuLvTrketDlheHXCVhDCldVRQZEdyJXC2TQryuKQpJsGTMCRVtpChZv9Iqb1mk19VBKZgiXDnRmnRt
        dVehtymlYkYR4HYm3fjSnkR71ipZD21ahd0a7WpNBdJsRwUZ9zHTrsiydbqAYliCYOeGkLZvaFOSVQCjmVLcmWOwsgdObaTtP7T2n8aIa4qoW7K9cQSvN5vEoJeUO/IS
        9s6BK1TvNs2pkIy69419GThh9uV1GtUqYOvmebEzbWInHZyGa3fOwWbq0QqhkegjqceG0kj3ubn6aI4xaiWPGn8rhSRo4p5FkB3miNPFwOj0jM9IePLkqU1PU96rWrD2
        S/TWT3VNohcRcn7+yJDH6d+LOtGL0NZE79ZUMR+25Z6DhGpZie3RUTM6bI8e4kyf3vHk6aXS3ukdetT0Dtmkd9QTtcV3p3dcyRvfmPDAY99feud5tMU7tXO21xzaKd/K
        GqyfVSiXgkjlzmr5/vpv01+/PafhvJitdEWIWeMurogUku0Q3St/0SM1oa0b7Zv0cXzb7r2dhvhHa0+eXip9x11aZ1vGhl8iyJMnTzbtDcjZUQE53QLIuQfkHpA/C0B+
        eL+F4M/2pEAfEN+z0v9FmL33CYQehwlkD2Soeph16KGEHdh1z34AJ3RvA2zZFNUFI1SSWpODALbqwWTfW6Fu7giiBEaEaHex/gvOV3g468nTS6WnKdb7U1k+rHry9N3S
        3nhf3uF9EgZNdAj+BNz9cZHPi+iXOJ8G48/ZpC/g53cHLMRRS/CHovzuUxXdKN+VKfAo/xHLs0X5eN20zjnRgrsPLtggH2mme7U22ysJJAhgfEURYCgp3KcAbKTNVdOz
        rjgAPiLdmLSVG1jbRBSTjBGnSbhV6F4f9UegJIK13KVku2bdt+Tfp5eA9Ggxl87duGc6o3U5BWsV0XsmQfi6MUBwpTR317qls0DtalSgVFdvXsCEKEp3NMTTVuapKb0r
        pKtzPtR55qXX6xHszMSON0wc86xCn1TEgQ0BrbMEPXYScDmDvetcQkibAy1KE4mxoO5bliBnjP8qj/LqiZ/knwbgEUL3RHjNca2mXwOdy1GfduwNbdqmBeJAZ7zdTG2N
        nkv+WO5+EsSWRvE9JeBDJXB5qAR2cZiEJ+mdeca3Uuuh/u3Hj2ZS2q+crh6j7yp698/wr3HborX4k5//uNzMjCdlcmsum5dns833t3cv0y5MCmuZ6XX84cHz+bvcFKa8
        MtkqSIqavTpsXeu8+0YPSvMJWK7h31VupsEvSVkAVojLm9NBdLZcpsmkfnt3ETUSAHUky2KxyqYwUi9aRDvkR2t0c5YvzWyWLIqotVIYwxZZPgjfj0whe5kyj/+S5c2d
        DX/A3iuiAi5GNkvjbAo6vZ/kJi5NNI7ny9QU0dvNL8Eoqb43CwzvDd2sUVRTeHnTU2+6Ve+1K+JycafyeZosD3C6JTGqRPXTjvXVbrzKl3lSmCBNMnMkNVsyH+h7EsEt
        8ebVSbR5kf2bV/8Dm6BprA==
        AAAQAAAA
      >
      FLOATPOS 877 521 870 508
      FXID {C804D762-B992-A540-81BF-3D6C0F7FF19B}
      WAK 0
    >
  >
  <TRACK {2BB5EACD-C1BC-284E-92F6-33B7023B768F}
    NAME ch3,4
    PEAKCOL 16576
    BEAT -1
    AUTOMODE 0
    VOLPAN 1 0 -1 -1 1
    MUTESOLO 0 0 0
    IPHASE 0
    ISBUS 0 0
    BUSCOMP 0 0
    SHOWINMIX 1 0.6667 0.464368 1 0.5 0 0 0
    FREEMODE 0
    SEL 0
    REC 0 0 0 0 0 0 0
    VU 2
    MIDICTL -1 1
    TRACKHEIGHT 173 0
    INQ 0 0 0 0.5 100 0 0 100
    NCHAN 2
    FX 1
    TRACKID {2BB5EACD-C1BC-284E-92F6-33B7023B768F}
    PERF 0
    MIDIOUT -1
    MAINSEND 1 0
    <FXCHAIN
      SHOW 0
      LASTSEL 0
      DOCKED 0
    >
    <ITEM
      POSITION 0
      SNAPOFFS 0
      LENGTH 47.5
      LOOP 1
      ALLTAKES 0
      FADEIN 1 0 0 1 0 0
      FADEOUT 1 0 0 1 0 0
      MUTE 1
      SEL 0
      YPOS 0.333333 0.166667
      IGUID {C6C7E6D2-F33B-CA46-AD95-F37A4348E956}
      IID 3
      NAME "BASS                 - National_Anthems_-_United_Arab_Emirates.mid"
      VOLPAN 1 0 1 -1
      SOFFS 0 0
      PLAYRATE 1 1 0 -1 0 0.0025
      CHANMODE 0
      GUID {210E9685-C9B6-A743-B7C3-0D9D64CDD519}
      <SOURCE MIDI
        HASDATA 1 192 QN
        POOLEDEVTS {1706845D-8A8F-6443-8DED-76E14FEBF98B}
        <X 0 0 0 0 3 "BASS                "
          /wNCQVNTICAgICAgICAgICAgICAgIA==
        >
        e 0 92 29 7f
        e 176 82 29 40
        e 16 92 35 7f
        e 176 82 35 40
        e 16 92 29 7f
        e 176 82 29 40
        e 16 92 2e 7f
        e 176 82 2e 40
        e 16 92 2d 7f
        e 176 82 2d 40
        e 16 92 2b 7f
        e 176 82 2b 40
        e 16 92 29 7f
        e 176 82 29 40
        e 16 92 2b 7f
        e 80 82 2b 40
        e 16 92 24 7f
        e 80 82 24 40
        e 16 92 24 7f
        e 176 82 24 40
        e 16 92 30 7f
        e 176 82 30 40
        e 16 92 24 7f
        e 176 82 24 40
        e 16 92 30 7f
        e 176 82 30 40
        e 16 92 34 7f
        e 176 82 34 40
        e 16 92 30 7f
        e 176 82 30 40
        e 16 92 2e 7f
        e 80 82 2e 40
        e 16 92 30 7f
        e 80 82 30 40
        e 16 92 34 7f
        e 80 82 34 40
        e 16 92 37 7f
        e 80 82 37 40
        e 16 92 30 7f
        e 464 82 30 40
        e 16 92 24 7f
        e 80 82 24 40
        e 16 92 28 7f
        e 80 82 28 40
        e 16 92 2b 7f
        e 80 82 2b 40
        e 16 92 29 7f
        e 464 82 29 40
        e 16 92 30 7f
        e 80 82 30 40
        e 16 92 2d 7f
        e 80 82 2d 40
        e 16 92 29 7f
        e 80 82 29 40
        e 16 92 24 7f
        e 176 82 24 40
        e 16 92 30 7f
        e 176 82 30 40
        e 16 92 28 7f
        e 176 82 28 40
        e 16 92 34 7f
        e 176 82 34 40
        e 16 92 29 7f
        e 176 82 29 40
        e 16 92 35 7f
        e 176 82 35 40
        e 16 92 35 7f
        e 176 82 35 40
        e 208 92 35 7f
        e 272 82 35 40
        e 112 92 2e 7f
        e 272 82 2e 40
        e 112 92 34 7f
        e 272 82 34 40
        e 112 92 30 7f
        e 272 82 30 40
        e 112 92 24 7f
        e 176 82 24 40
        e 16 92 30 7f
        e 176 82 30 40
        e 16 92 24 7f
        e 176 82 24 40
        e 208 92 29 7f
        e 176 82 29 40
        e 16 92 35 7f
        e 176 82 35 40
        e 16 92 29 7f
        e 176 82 29 40
        e 208 92 2b 7f
        e 176 82 2b 40
        e 16 92 29 7f
        e 176 82 29 40
        e 16 92 28 7f
        e 176 82 28 40
        e 16 92 24 7f
        e 176 82 24 40
        e 16 92 29 7f
        e 176 82 29 40
        e 16 92 2b 7f
        e 176 82 2b 40
        e 16 92 2d 7f
        e 176 82 2d 40
        e 16 92 2e 7f
        e 176 82 2e 40
        e 16 92 30 7f
        e 272 82 30 40
        e 16 92 32 7f
        e 80 82 32 40
        e 16 92 30 7f
        e 80 82 30 40
        e 16 92 2e 7f
        e 80 82 2e 40
        e 16 92 2d 7f
        e 80 82 2d 40
        e 16 92 2b 7f
        e 80 82 2b 40
        e 16 92 29 7f
        e 80 82 29 40
        e 16 92 29 7f
        e 80 82 29 40
        e 16 92 28 7f
        e 80 82 28 40
        e 16 92 26 7f
        e 80 82 26 40
        e 16 92 24 7f
        e 80 82 24 40
        e 16 92 2e 7f
        e 80 82 2e 40
        e 16 92 2d 7f
        e 80 82 2d 40
        e 16 92 2b 7f
        e 80 82 2b 40
        e 16 92 29 7f
        e 176 82 29 40
        e 16 92 37 7f
        e 176 82 37 40
        e 16 92 35 7f
        e 176 82 35 40
        e 16 92 2e 7f
        e 176 82 2e 40
        e 16 92 2d 7f
        e 176 82 2d 40
        e 16 92 2b 7f
        e 176 82 2b 40
        e 16 92 29 7f
        e 176 82 29 40
        e 16 92 2b 7f
        e 80 82 2b 40
        e 16 92 2d 7f
        e 80 82 2d 40
        e 16 92 30 7f
        e 176 82 30 40
        e 16 92 30 7f
        e 80 82 30 40
        e 16 92 30 7f
        e 80 82 30 40
        e 16 92 2e 7f
        e 80 82 2e 40
        e 16 92 24 7f
        e 80 82 24 40
        e 16 92 28 7f
        e 80 82 28 40
        e 16 92 2b 7f
        e 80 82 2b 40
        e 16 92 2e 7f
        e 80 82 2e 40
        e 16 92 2d 7f
        e 80 82 2d 40
        e 16 92 2b 7f
        e 80 82 2b 40
        e 16 92 29 7f
        e 80 82 29 40
        e 16 92 2e 7f
        e 80 82 2e 40
        e 16 92 30 7f
        e 80 82 30 40
        e 16 92 34 7f
        e 80 82 34 40
        e 16 92 37 7f
        e 80 82 37 40
        e 16 92 30 7f
        e 464 82 30 40
        e 16 92 24 7f
        e 80 82 24 40
        e 16 92 28 7f
        e 80 82 28 40
        e 16 92 2b 7f
        e 80 82 2b 40
        e 16 92 29 7f
        e 464 82 29 40
        e 16 92 30 7f
        e 80 82 30 40
        e 16 92 2d 7f
        e 80 82 2d 40
        e 16 92 29 7f
        e 80 82 29 40
        e 16 92 28 7f
        e 368 82 28 40
        e 16 92 30 7f
        e 176 82 30 40
        e 16 92 24 7f
        e 176 82 24 40
        e 16 92 29 7f
        e 176 82 29 40
        e 16 92 35 7f
        e 176 82 35 40
        e 16 92 29 7f
        e 176 82 29 40
        E 16 b0 7b 00
        GUID {05F93B9B-1DA0-424B-95DA-634716837D47}
        IGNTEMPO 0 120 4 4
        SRCCOLOR 201
        VELLANE -1 86 6
        CFGEDITVIEW 0 11.073684 65 12 0 -1 0 0 0 0.5
        KEYSNAP 0
        TRACKSEL 252
        EVTFILTER 0 -1 -1 -1 -1 0 0 0 0 -1 -1 -1 -1 0 -1 0 -1 -1
        CFGEDIT 1 0 0 0 0 0 1 0 1 1 1 0.25 285 20 1280 633 0 0 2 3 0 0 0 0 0 0.5 0 0 1 64
      >
    >
    <ITEM
      POSITION 0
      SNAPOFFS 0
      LENGTH 47.5
      LOOP 1
      ALLTAKES 0
      FADEIN 1 0 0 1 0 0
      FADEOUT 1 0 0 1 0 0
      MUTE 0
      SEL 0
      YPOS 0.5 0.166667
      IGUID {B3221F78-267E-5D40-B351-D9900C76E451}
      IID 4
      NAME "MELODY               - National_Anthems_-_United_Arab_Emirates.mid"
      VOLPAN 1 0 1 -1
      SOFFS 0 0
      PLAYRATE 1 1 0 -1 0 0.0025
      CHANMODE 0
      GUID {4AAC19D8-0C06-5246-901E-F16E138A4D9A}
      <SOURCE MIDI
        HASDATA 1 192 QN
        POOLEDEVTS {8E008FC3-F5B3-4344-ACF4-4C9D09B23D48}
        <X 0 0 0 0 3 "MELODY              "
          /wNNRUxPRFkgICAgICAgICAgICAgIA==
        >
        e 0 93 48 7f
        e 176 83 48 40
        e 16 93 4d 7f
        e 128 83 4d 40
        e 16 93 4c 7f
        e 32 83 4c 40
        e 16 93 4d 7f
        e 176 83 4d 40
        e 16 93 48 7f
        e 176 83 48 40
        e 16 93 4d 7f
        e 176 83 4d 40
        e 16 93 4f 7f
        e 80 83 4f 40
        e 16 93 51 7f
        e 80 83 51 40
        e 16 93 51 7f
        e 176 83 51 40
        e 16 93 4f 7f
        e 80 83 4f 40
        e 16 93 4d 7f
        e 80 83 4d 40
        e 16 93 4c 7f
        e 176 83 4c 40
        e 16 93 4d 7f
        e 80 83 4d 40
        e 16 93 4f 7f
        e 80 83 4f 40
        e 16 93 4f 7f
        e 368 83 4f 40
        e 16 93 4f 7f
        e 176 83 4f 40
        e 16 93 4f 7f
        e 128 83 4f 40
        e 16 93 4f 7f
        e 32 83 4f 40
        e 16 93 4f 7f
        e 176 83 4f 40
        e 16 93 48 7f
        e 176 83 48 40
        e 16 93 4f 7f
        e 128 83 4f 40
        e 16 93 4e 7f
        e 32 83 4e 40
        e 16 93 4f 7f
        e 80 83 4f 40
        e 16 93 51 7f
        e 80 83 51 40
        e 16 93 52 7f
        e 176 83 52 40
        e 16 93 4f 7f
        e 176 83 4f 40
        e 16 93 51 7f
        e 128 83 51 40
        e 16 93 4f 7f
        e 32 83 4f 40
        e 16 93 51 7f
        e 80 83 51 40
        e 16 93 52 7f
        e 80 83 52 40
        e 16 93 54 7f
        e 176 83 54 40
        e 16 93 4d 7f
        e 176 83 4d 40
        e 16 93 4f 7f
        e 176 83 4f 40
        e 16 93 52 7f
        e 176 83 52 40
        e 16 93 51 7f
        e 128 83 51 40
        e 16 93 4f 7f
        e 32 83 4f 40
        e 16 93 4a 7f
        e 80 83 4a 40
        e 16 93 4c 7f
        e 80 83 4c 40
        e 16 93 4d 7f
        e 176 83 4d 40
        e 16 93 4d 7f
        e 128 83 4d 40
        e 16 93 4d 7f
        e 32 83 4d 40
        e 16 93 4d 7f
        e 176 83 4d 40
        e 208 93 4d 7f
        e 176 83 4d 40
        e 16 93 4d 7f
        e 128 83 4d 40
        e 16 93 4c 7f
        e 32 83 4c 40
        e 16 93 4a 7f
        e 176 83 4a 40
        e 16 93 4a 7f
        e 128 83 4a 40
        e 16 93 48 7f
        e 32 83 48 40
        e 16 93 46 7f
        e 176 83 46 40
        e 16 93 46 7f
        e 128 83 46 40
        e 16 93 45 7f
        e 32 83 45 40
        e 16 93 43 7f
        e 80 83 43 40
        e 304 93 4c 7f
        e 176 83 4c 40
        e 16 93 4c 7f
        e 128 83 4c 40
        e 16 93 4a 7f
        e 32 83 4a 40
        e 16 93 48 7f
        e 176 83 48 40
        e 16 93 48 7f
        e 128 83 48 40
        e 16 93 46 7f
        e 32 83 46 40
        e 16 93 45 7f
        e 176 83 45 40
        e 16 93 45 7f
        e 128 83 45 40
        e 16 93 43 7f
        e 32 83 43 40
        e 16 93 41 7f
        e 320 83 41 40
        e 16 93 4d 7f
        e 32 83 4d 40
        e 16 93 4f 7f
        e 176 83 4f 40
        e 16 93 51 7f
        e 176 83 51 40
        e 16 93 52 7f
        e 176 83 52 40
        e 16 93 4f 7f
        e 176 83 4f 40
        e 16 93 51 7f
        e 176 83 51 40
        e 16 93 52 7f
        e 176 83 52 40
        e 16 93 54 7f
        e 176 83 54 40
        e 16 93 56 7f
        e 176 83 56 40
        e 16 93 4c 7f
        e 80 83 4c 40
        e 16 93 48 7f
        e 80 83 48 40
        e 16 93 4a 7f
        e 80 83 4a 40
        e 16 93 4d 7f
        e 80 83 4d 40
        e 16 93 4c 7f
        e 80 83 4c 40
        e 16 93 48 7f
        e 80 83 48 40
        e 16 93 4a 7f
        e 80 83 4a 40
        e 16 93 4c 7f
        e 80 83 4c 40
        e 16 93 4d 7f
        e 752 83 4d 40
        e 16 93 48 7f
        e 176 83 48 40
        e 16 93 4d 7f
        e 128 83 4d 40
        e 16 93 4c 7f
        e 32 83 4c 40
        e 16 93 4d 7f
        e 176 83 4d 40
        e 16 93 48 7f
        e 176 83 48 40
        e 16 93 4d 7f
        e 176 83 4d 40
        e 16 93 4f 7f
        e 80 83 4f 40
        e 16 93 51 7f
        e 80 83 51 40
        e 16 93 51 7f
        e 176 83 51 40
        e 16 93 4f 7f
        e 80 83 4f 40
        e 16 93 4d 7f
        e 80 83 4d 40
        e 16 93 4c 7f
        e 176 83 4c 40
        e 16 93 4d 7f
        e 80 83 4d 40
        e 16 93 4f 7f
        e 80 83 4f 40
        e 16 93 4f 7f
        e 368 83 4f 40
        e 16 93 4f 7f
        e 176 83 4f 40
        e 16 93 4f 7f
        e 128 83 4f 40
        e 16 93 4f 7f
        e 32 83 4f 40
        e 16 93 4f 7f
        e 176 83 4f 40
        e 16 93 48 7f
        e 176 83 48 40
        e 16 93 4f 7f
        e 128 83 4f 40
        e 16 93 4e 7f
        e 32 83 4e 40
        e 16 93 4f 7f
        e 80 83 4f 40
        e 16 93 51 7f
        e 80 83 51 40
        e 16 93 52 7f
        e 176 83 52 40
        e 16 93 4f 7f
        e 176 83 4f 40
        e 16 93 51 7f
        e 128 83 51 40
        e 16 93 4f 7f
        e 32 83 4f 40
        e 16 93 51 7f
        e 80 83 51 40
        e 16 93 52 7f
        e 80 83 52 40
        e 16 93 54 7f
        e 176 83 54 40
        e 16 93 4d 7f
        e 176 83 4d 40
        e 16 93 4f 7f
        e 176 83 4f 40
        e 16 93 52 7f
        e 176 83 52 40
        e 16 93 51 7f
        e 80 83 51 40
        e 16 93 4f 7f
        e 80 83 4f 40
        e 16 93 4a 7f
        e 80 83 4a 40
        e 16 93 4c 7f
        e 80 83 4c 40
        e 16 93 4d 7f
        e 176 83 4d 40
        e 16 93 4d 7f
        e 128 83 4d 40
        e 16 93 4d 7f
        e 32 83 4d 40
        e 16 93 4d 7f
        e 176 83 4d 40
        E 16 b0 7b 00
        GUID {847F49D6-DCEA-384E-AC99-FC02E6095550}
        IGNTEMPO 0 120 4 4
        SRCCOLOR 202
        VELLANE -1 86 6
        CFGEDITVIEW 0 11.073684 65 12 0 -1 0 0 0 0.5
        KEYSNAP 0
        TRACKSEL 252
        EVTFILTER 0 -1 -1 -1 -1 0 0 0 0 -1 -1 -1 -1 0 -1 0 -1 -1
        CFGEDIT 1 0 0 0 0 0 1 0 1 1 1 0.25 285 20 1280 633 0 0 2 3 0 0 0 0 0 0.5 0 0 1 64
      >
    >
    <ITEM
      POSITION 0
      SNAPOFFS 0
      LENGTH 47.5
      LOOP 1
      ALLTAKES 0
      FADEIN 1 0 0 1 0 0
      FADEOUT 1 0 0 1 0 0
      MUTE 0
      SEL 0
      YPOS 0 0.166667
      IGUID {FAADB9D7-0308-CF44-B67C-0F1F10A593CD}
      IID 1
      NAME "R.H.                 - National_Anthems_-_United_Arab_Emirates.mid"
      VOLPAN 1 0 1 -1
      SOFFS 0 0
      PLAYRATE 1 1 0 -1 0 0.0025
      CHANMODE 0
      GUID {77B20FF3-449C-B14A-B915-D6EBE2DA1CDE}
      <SOURCE MIDI
        HASDATA 1 192 QN
        POOLEDEVTS {D26E9746-1E1A-F442-AA4E-B8729238A5C6}
        <X 0 0 0 0 3 "R.H.                "
          /wNSLkguICAgICAgICAgICAgICAgIA==
        >
        <X 0 0 0 0 1 "THE SOFTWARE TOOLWORKS"
          /wFUSEUgU09GVFdBUkUgVE9PTFdPUktT
        >
        <X 0 0 0 0 1 "WORLD ATLAS"
          /wFXT1JMRCBBVExBUw==
        >
        <X 0 0 0 0 1 "MultiMedia Windows Version"
          /wFNdWx0aU1lZGlhIFdpbmRvd3MgVmVyc2lvbg==
        >
        <X 0 0 0 0 1 "Country: UNITED ARAB EMIRATES"
          /wFDb3VudHJ5OiBVTklURUQgQVJBQiBFTUlSQVRFUw==
        >
        <X 0 0 0 0 1 "Anthem Name:"
          /wFBbnRoZW0gTmFtZTo=
        >
        <X 0 0 0 0 1 "(p) (c) The Software Toolworks 1991"
          /wEocCkgKGMpIFRoZSBTb2Z0d2FyZSBUb29sd29ya3MgMTk5MQ==
        >
        <X 0 0 0 0 1 "edit date: 9-14-91"
          /wFlZGl0IGRhdGU6IDktMTQtOTE=
        >
        <X 0 0 0 0 1 "MMWIN EDIT DATE: 9-14-91"
          /wFNTVdJTiBFRElUIERBVEU6IDktMTQtOTE=
        >
        <X 0 0 0 0 1 "This file provided by:"
          /wFUaGlzIGZpbGUgcHJvdmlkZWQgYnk6
        >
        <X 0 0 0 0 1 "Rob Wallace Music"
          /wFSb2IgV2FsbGFjZSBNdXNpYw==
        >
        <X 0 0 0 0 1 "(602) 979-6201"
          /wEoNjAyKSA5NzktNjIwMQ==
        >
        e 0 92 3c 64
        e 0 92 41 64
        e 0 92 45 64
        e 0 92 48 64
        e 176 82 3c 40
        e 0 82 41 40
        e 0 82 45 40
        e 0 82 48 40
        e 16 92 41 64
        e 0 92 46 64
        e 0 92 4a 64
        e 0 92 4d 64
        e 128 82 41 40
        e 0 82 46 40
        e 0 82 4a 40
        e 0 82 4d 40
        e 16 92 40 64
        e 0 92 4c 64
        e 32 82 40 40
        e 0 82 4c 40
        e 16 92 41 64
        e 0 92 45 64
        e 0 92 48 64
        e 0 92 4d 64
        e 80 82 41 40
        e 0 82 45 40
        e 0 82 48 40
        e 16 92 43 64
        e 0 92 46 64
        e 80 82 4d 40
        e 0 82 43 40
        e 0 82 46 40
        e 16 92 41 64
        e 0 92 45 64
        e 0 92 48 64
        e 80 82 41 40
        e 0 82 45 40
        e 16 92 40 64
        e 0 92 43 64
        e 80 82 48 40
        e 0 82 40 40
        e 0 82 43 40
        e 16 92 41 64
        e 0 92 48 64
        e 0 92 4d 64
        e 176 82 41 40
        e 0 82 48 40
        e 0 82 4d 40
        e 16 92 43 64
        e 0 92 48 64
        e 0 92 4f 64
        e 80 82 43 40
        e 0 82 4f 40
        e 16 92 45 64
        e 0 92 51 64
        e 80 82 48 40
        e 0 82 45 40
        e 0 82 51 40
        e 16 92 45 64
        e 0 92 48 64
        e 0 92 4d 64
        e 0 92 51 64
        e 176 82 45 40
        e 0 82 48 40
        e 0 82 4d 40
        e 0 82 51 40
        e 16 92 43 64
        e 0 92 48 64
        e 0 92 4f 64
        e 80 82 43 40
        e 0 82 48 40
        e 0 82 4f 40
        e 16 92 41 64
        e 0 92 45 64
        e 0 92 48 64
        e 0 92 4d 64
        e 80 82 41 40
        e 0 82 45 40
        e 0 82 48 40
        e 0 82 4d 40
        e 16 92 40 64
        e 0 92 43 64
        e 0 92 48 64
        e 0 92 4c 64
        e 176 82 40 40
        e 0 82 43 40
        e 0 82 48 40
        e 0 82 4c 40
        e 16 92 41 64
        e 0 92 45 64
        e 0 92 48 64
        e 0 92 4d 64
        e 80 82 41 40
        e 0 82 45 40
        e 0 82 48 40
        e 0 82 4d 40
        e 16 92 43 64
        e 0 92 48 64
        e 0 92 4c 64
        e 0 92 4f 64
        e 80 82 43 40
        e 0 82 48 40
        e 0 82 4c 40
        e 0 82 4f 40
        e 16 92 43 64
        e 0 92 48 64
        e 0 92 4c 64
        e 0 92 4f 64
        e 368 82 43 40
        e 0 82 48 40
        e 0 82 4c 40
        e 0 82 4f 40
        e 16 92 43 64
        e 0 92 46 64
        e 0 92 4c 64
        e 0 92 4f 64
        e 176 82 43 40
        e 0 82 46 40
        e 0 82 4c 40
        e 0 82 4f 40
        e 16 92 43 64
        e 0 92 46 64
        e 0 92 4c 64
        e 0 92 4f 64
        e 128 82 43 40
        e 0 82 46 40
        e 0 82 4c 40
        e 0 82 4f 40
        e 16 92 43 64
        e 0 92 46 64
        e 0 92 4c 64
        e 0 92 4f 64
        e 32 82 43 40
        e 0 82 46 40
        e 0 82 4c 40
        e 0 82 4f 40
        e 16 92 43 64
        e 0 92 46 64
        e 0 92 4c 64
        e 0 92 4f 64
        e 176 82 43 40
        e 0 82 46 40
        e 0 82 4c 40
        e 0 82 4f 40
        e 16 92 3c 64
        e 0 92 40 64
        e 0 92 48 64
        e 176 82 3c 40
        e 0 82 40 40
        e 0 82 48 40
        e 16 92 43 64
        e 0 92 48 64
        e 0 92 4c 64
        e 0 92 4f 64
        e 128 82 43 40
        e 0 82 48 40
        e 0 82 4c 40
        e 0 82 4f 40
        e 16 92 42 64
        e 0 92 4e 64
        e 32 82 42 40
        e 0 82 4e 40
        e 16 92 43 64
        e 0 92 4f 64
        e 80 82 43 40
        e 0 82 4f 40
        e 16 92 45 64
        e 0 92 51 64
        e 80 82 45 40
        e 0 82 51 40
        e 16 92 46 64
        e 0 92 4c 64
        e 0 92 4f 64
        e 0 92 52 64
        e 176 82 46 40
        e 0 82 4c 40
        e 0 82 4f 40
        e 0 82 52 40
        e 16 92 43 64
        e 0 92 48 64
        e 0 92 4c 64
        e 0 92 4f 64
        e 176 82 43 40
        e 0 82 48 40
        e 0 82 4c 40
        e 0 82 4f 40
        e 16 92 45 64
        e 0 92 4d 64
        e 0 92 51 64
        e 128 82 45 40
        e 0 82 4d 40
        e 0 82 51 40
        e 16 92 43 64
        e 0 92 4c 64
        e 0 92 4f 64
        e 32 82 43 40
        e 0 82 4c 40
        e 0 82 4f 40
        e 16 92 45 64
        e 0 92 4d 64
        e 0 92 51 64
        e 80 82 45 40
        e 0 82 4d 40
        e 0 82 51 40
        e 16 92 46 64
        e 0 92 4f 64
        e 0 92 52 64
        e 80 82 46 40
        e 0 82 4f 40
        e 0 82 52 40
        e 16 92 48 64
        e 0 92 51 64
        e 0 92 54 64
        e 176 82 48 40
        e 0 82 51 40
        e 0 82 54 40
        e 16 92 41 64
        e 0 92 45 64
        e 0 92 4d 64
        e 176 82 41 40
        e 0 82 45 40
        e 0 82 4d 40
        e 16 92 43 64
        e 0 92 46 64
        e 0 92 4c 64
        e 0 92 4f 64
        e 176 82 43 40
        e 0 82 46 40
        e 0 82 4c 40
        e 0 82 4f 40
        e 16 92 46 64
        e 0 92 4a 64
        e 0 92 52 64
        e 176 82 46 40
        e 0 82 4a 40
        e 0 82 52 40
        e 16 92 45 64
        e 0 92 48 64
        e 0 92 51 64
        e 128 82 45 40
        e 0 82 48 40
        e 0 82 51 40
        e 16 92 43 64
        e 0 92 4f 64
        e 32 82 43 40
        e 0 82 4f 40
        e 16 92 3e 64
        e 0 92 46 64
        e 0 92 4a 64
        e 80 82 3e 40
        e 0 82 46 40
        e 0 82 4a 40
        e 16 92 40 64
        e 0 92 46 64
        e 0 92 4c 64
        e 80 82 40 40
        e 0 82 46 40
        e 0 82 4c 40
        e 16 92 41 64
        e 0 92 45 64
        e 0 92 48 64
        e 0 92 4d 64
        e 176 82 41 40
        e 0 82 45 40
        e 0 82 48 40
        e 0 82 4d 40
        e 16 92 41 64
        e 0 92 45 64
        e 0 92 48 64
        e 0 92 4d 64
        e 128 82 41 40
        e 0 82 45 40
        e 0 82 48 40
        e 0 82 4d 40
        e 16 92 41 64
        e 0 92 45 64
        e 0 92 48 64
        e 0 92 4d 64
        e 32 82 41 40
        e 0 82 45 40
        e 0 82 48 40
        e 0 82 4d 40
        e 16 92 41 64
        e 0 92 45 64
        e 0 92 48 64
        e 0 92 4d 64
        e 176 82 41 40
        e 0 82 45 40
        e 0 82 48 40
        e 0 82 4d 40
        e 208 92 41 64
        e 0 92 4d 64
        e 176 82 41 40
        e 0 82 4d 40
        e 16 92 41 64
        e 0 92 4d 64
        e 128 82 41 40
        e 0 82 4d 40
        e 16 92 40 64
        e 0 92 4c 64
        e 32 82 40 40
        e 0 82 4c 40
        e 16 92 3e 64
        e 0 92 4a 64
        e 176 82 3e 40
        e 0 82 4a 40
        e 16 92 3e 64
        e 0 92 4a 64
        e 128 82 3e 40
        e 0 82 4a 40
        e 16 92 3c 64
        e 0 92 48 64
        e 32 82 3c 40
        e 0 82 48 40
        e 16 92 3a 64
        e 0 92 46 64
        e 176 82 3a 40
        e 0 82 46 40
        e 16 92 3a 64
        e 0 92 46 64
        e 128 82 3a 40
        e 0 82 46 40
        e 16 92 39 64
        e 0 92 45 64
        e 32 82 39 40
        e 0 82 45 40
        e 16 92 37 64
        e 0 92 43 64
        e 80 82 37 40
        e 0 82 43 40
        e 16 92 41 64
        e 32 82 41 40
        e 16 92 43 64
        e 32 82 43 40
        e 16 92 45 64
        e 32 82 45 40
        e 16 92 46 64
        e 32 82 46 40
        e 16 92 48 64
        e 32 82 48 40
        e 16 92 4a 64
        e 32 82 4a 40
        e 16 92 40 64
        e 0 92 43 64
        e 0 92 4c 64
        e 176 82 40 40
        e 0 82 43 40
        e 0 82 4c 40
        e 16 92 40 64
        e 0 92 4c 64
        e 128 82 40 40
        e 0 82 4c 40
        e 16 92 3e 64
        e 0 92 4a 64
        e 32 82 3e 40
        e 0 82 4a 40
        e 16 92 3c 64
        e 0 92 40 64
        e 0 92 48 64
        e 176 82 3c 40
        e 0 82 40 40
        e 0 82 48 40
        e 16 92 3c 64
        e 0 92 40 64
        e 0 92 48 64
        e 128 82 3c 40
        e 0 82 40 40
        e 0 82 48 40
        e 16 92 3a 64
        e 0 92 3e 64
        e 0 92 46 64
        e 32 82 3a 40
        e 0 82 3e 40
        e 0 82 46 40
        e 16 92 39 64
        e 0 92 3c 64
        e 0 92 45 64
        e 176 82 39 40
        e 0 82 3c 40
        e 0 82 45 40
        e 16 92 39 64
        e 0 92 3c 64
        e 0 92 45 64
        e 128 82 39 40
        e 0 82 3c 40
        e 0 82 45 40
        e 16 92 37 64
        e 0 92 3a 64
        e 0 92 43 64
        e 32 82 37 40
        e 0 82 3a 40
        e 0 82 43 40
        e 16 92 39 64
        e 0 92 41 64
        e 320 82 39 40
        e 0 82 41 40
        e 16 92 41 64
        e 0 92 4d 64
        e 32 82 41 40
        e 0 82 4d 40
        e 16 92 43 64
        e 0 92 48 64
        e 0 92 4f 64
        e 176 82 43 40
        e 0 82 48 40
        e 0 82 4f 40
        e 16 92 45 64
        e 0 92 48 64
        e 0 92 51 64
        e 176 82 45 40
        e 0 82 48 40
        e 0 82 51 40
        e 16 92 46 64
        e 0 92 4c 64
        e 0 92 4f 64
        e 0 92 52 64
        e 176 82 46 40
        e 0 82 4c 40
        e 0 82 4f 40
        e 0 82 52 40
        e 16 92 43 64
        e 0 92 4c 64
        e 0 92 4f 64
        e 176 82 43 40
        e 0 82 4c 40
        e 0 82 4f 40
        e 16 92 45 64
        e 0 92 4d 64
        e 0 92 51 64
        e 176 82 45 40
        e 0 82 4d 40
        e 0 82 51 40
        e 16 92 46 64
        e 0 92 4f 64
        e 0 92 52 64
        e 176 82 46 40
        e 0 82 4f 40
        e 0 82 52 40
        e 16 92 48 64
        e 0 92 51 64
        e 0 92 54 64
        e 176 82 48 40
        e 0 82 51 40
        e 0 82 54 40
        e 16 92 4a 64
        e 0 92 52 64
        e 0 92 56 64
        e 176 82 4a 40
        e 0 82 52 40
        e 0 82 56 40
        e 16 92 40 64
        e 0 92 46 64
        e 0 92 4c 64
        e 80 82 40 40
        e 0 82 46 40
        e 0 82 4c 40
        e 16 92 3c 64
        e 0 92 48 64
        e 80 82 3c 40
        e 0 82 48 40
        e 16 92 3e 64
        e 0 92 4a 64
        e 80 82 3e 40
        e 0 82 4a 40
        e 16 92 41 64
        e 0 92 4d 64
        e 80 82 41 40
        e 0 82 4d 40
        e 16 92 40 64
        e 0 92 4c 64
        e 80 82 40 40
        e 0 82 4c 40
        e 16 92 3c 64
        e 0 92 48 64
        e 80 82 3c 40
        e 0 82 48 40
        e 16 92 3e 64
        e 0 92 4a 64
        e 80 82 3e 40
        e 0 82 4a 40
        e 16 92 40 64
        e 0 92 4c 64
        e 80 82 40 40
        e 0 82 4c 40
        e 16 92 41 64
        e 0 92 45 64
        e 0 92 4d 64
        e 80 82 41 40
        e 0 82 45 40
        e 0 82 4d 40
        e 16 92 41 64
        e 0 92 4d 64
        e 32 82 41 40
        e 0 82 4d 40
        e 16 92 41 64
        e 0 92 4d 64
        e 32 82 41 40
        e 0 82 4d 40
        e 16 92 41 64
        e 0 92 4d 64
        e 80 82 41 40
        e 0 82 4d 40
        e 16 92 41 64
        e 0 92 4d 64
        e 80 82 41 40
        e 0 82 4d 40
        e 16 92 41 64
        e 0 92 4d 64
        e 80 82 41 40
        e 0 82 4d 40
        e 16 92 41 64
        e 0 92 4d 64
        e 80 82 41 40
        e 0 82 4d 40
        e 16 92 41 64
        e 0 92 4d 64
        e 80 82 41 40
        e 0 82 4d 40
        e 16 92 41 64
        e 0 92 4d 64
        e 80 82 41 40
        e 0 82 4d 40
        e 16 92 3c 64
        e 0 92 41 64
        e 0 92 45 64
        e 0 92 48 64
        e 176 82 3c 40
        e 0 82 41 40
        e 0 82 45 40
        e 0 82 48 40
        e 16 92 41 64
        e 0 92 4a 64
        e 0 92 4d 64
        e 128 82 41 40
        e 0 82 4a 40
        e 0 82 4d 40
        e 16 92 40 64
        e 0 92 4c 64
        e 32 82 40 40
        e 0 82 4c 40
        e 16 92 41 64
        e 0 92 48 64
        e 0 92 4d 64
        e 80 82 48 40
        e 16 92 46 64
        e 80 82 41 40
        e 0 82 4d 40
        e 0 82 46 40
        e 16 92 3c 64
        e 0 92 45 64
        e 0 92 48 64
        e 80 82 45 40
        e 16 92 43 64
        e 80 82 3c 40
        e 0 82 48 40
        e 0 82 43 40
        e 16 92 41 64
        e 0 92 48 64
        e 0 92 4d 64
        e 176 82 41 40
        e 0 82 48 40
        e 0 82 4d 40
        e 16 92 43 64
        e 0 92 48 64
        e 0 92 4f 64
        e 80 82 43 40
        e 0 82 48 40
        e 0 82 4f 40
        e 16 92 45 64
        e 0 92 48 64
        e 0 92 51 64
        e 80 82 45 40
        e 0 82 48 40
        e 0 82 51 40
        e 16 92 45 64
        e 0 92 48 64
        e 0 92 51 64
        e 176 82 45 40
        e 0 82 48 40
        e 0 82 51 40
        e 16 92 43 64
        e 0 92 48 64
        e 0 92 4f 64
        e 80 82 43 40
        e 0 82 48 40
        e 0 82 4f 40
        e 16 92 41 64
        e 0 92 4d 64
        e 80 82 41 40
        e 0 82 4d 40
        e 16 92 40 64
        e 0 92 48 64
        e 0 92 4c 64
        e 176 82 40 40
        e 0 82 48 40
        e 0 82 4c 40
        e 16 92 41 64
        e 0 92 48 64
        e 0 92 4d 64
        e 80 82 41 40
        e 0 82 48 40
        e 0 82 4d 40
        e 16 92 43 64
        e 0 92 48 64
        e 0 92 4f 64
        e 80 82 43 40
        e 0 82 48 40
        e 0 82 4f 40
        e 16 92 43 64
        e 0 92 4c 64
        e 0 92 4f 64
        e 368 82 43 40
        e 0 82 4c 40
        e 0 82 4f 40
        e 16 92 43 64
        e 0 92 46 64
        e 0 92 4f 64
        e 176 82 43 40
        e 0 82 46 40
        e 0 82 4f 40
        e 16 92 43 64
        e 0 92 46 64
        e 0 92 4f 64
        e 128 82 43 40
        e 0 82 46 40
        e 0 82 4f 40
        e 16 92 43 64
        e 0 92 4f 64
        e 32 82 43 40
        e 0 82 4f 40
        e 16 92 43 64
        e 0 92 4f 64
        e 176 82 43 40
        e 0 82 4f 40
        e 16 92 3c 64
        e 0 92 48 64
        e 176 82 3c 40
        e 0 82 48 40
        e 16 92 43 64
        e 0 92 48 64
        e 0 92 4c 64
        e 0 92 4f 64
        e 128 82 43 40
        e 0 82 48 40
        e 0 82 4c 40
        e 0 82 4f 40
        e 16 92 42 64
        e 0 92 4e 64
        e 32 82 42 40
        e 0 82 4e 40
        e 16 92 43 64
        e 0 92 4f 64
        e 80 82 43 40
        e 0 82 4f 40
        e 16 92 45 64
        e 0 92 51 64
        e 80 82 45 40
        e 0 82 51 40
        e 16 92 46 64
        e 0 92 4f 64
        e 0 92 52 64
        e 176 82 46 40
        e 0 82 4f 40
        e 0 82 52 40
        e 16 92 43 64
        e 0 92 48 64
        e 0 92 4c 64
        e 0 92 4f 64
        e 176 82 43 40
        e 0 82 48 40
        e 0 82 4c 40
        e 0 82 4f 40
        e 16 92 45 64
        e 0 92 4d 64
        e 0 92 51 64
        e 128 82 45 40
        e 0 82 4d 40
        e 0 82 51 40
        e 16 92 43 64
        e 0 92 4f 64
        e 32 82 43 40
        e 0 82 4f 40
        e 16 92 45 64
        e 0 92 51 64
        e 80 82 45 40
        e 0 82 51 40
        e 16 92 46 64
        e 0 92 52 64
        e 80 82 46 40
        e 0 82 52 40
        e 16 92 48 64
        e 0 92 54 64
        e 176 82 48 40
        e 0 82 54 40
        e 16 92 41 64
        e 0 92 48 64
        e 0 92 4d 64
        e 176 82 41 40
        e 0 82 48 40
        e 0 82 4d 40
        e 16 92 43 64
        e 0 92 46 64
        e 0 92 4f 64
        e 176 82 43 40
        e 0 82 46 40
        e 0 82 4f 40
        e 16 92 46 64
        e 0 92 4f 64
        e 0 92 52 64
        e 176 82 46 40
        e 0 82 4f 40
        e 0 82 52 40
        e 16 92 45 64
        e 0 92 4d 64
        e 0 92 51 64
        e 80 82 45 40
        e 0 82 4d 40
        e 0 82 51 40
        e 16 92 43 64
        e 0 92 4f 64
        e 80 82 43 40
        e 0 82 4f 40
        e 16 92 3e 64
        e 0 92 41 64
        e 0 92 4a 64
        e 80 82 3e 40
        e 0 82 41 40
        e 0 82 4a 40
        e 16 92 40 64
        e 0 92 43 64
        e 0 92 4c 64
        e 80 82 40 40
        e 0 82 43 40
        e 0 82 4c 40
        e 16 92 41 64
        e 0 92 45 64
        e 0 92 4d 64
        e 176 82 41 40
        e 0 82 45 40
        e 0 82 4d 40
        e 16 92 41 64
        e 0 92 45 64
        e 0 92 4d 64
        e 128 82 41 40
        e 0 82 45 40
        e 0 82 4d 40
        e 16 92 41 64
        e 0 92 45 64
        e 0 92 4d 64
        e 32 82 41 40
        e 0 82 45 40
        e 0 82 4d 40
        e 16 92 41 64
        e 0 92 45 64
        e 0 92 4d 64
        e 176 82 41 40
        e 0 82 45 40
        e 0 82 4d 40
        E 16 b0 7b 00
        GUID {834CB3BD-F8D4-1746-9C72-178E786307DD}
        IGNTEMPO 0 120 4 4
        SRCCOLOR 199
        VELLANE -1 86 6
        CFGEDITVIEW -912 10.966507 40 10 0 -1 0 0 0 0.5
        KEYSNAP 0
        TRACKSEL 252
        EVTFILTER 0 -1 -1 -1 -1 0 0 0 0 -1 -1 -1 -1 0 -1 0 -1 -1
        CFGEDIT 1 0 0 0 0 0 1 0 1 1 1 0.25 285 20 1280 633 0 0 2 3 0 0 0 0 0 0.5 0 0 1 64
      >
    >
    <ITEM
      POSITION 49
      SNAPOFFS 0
      LENGTH 47.5
      LOOP 1
      ALLTAKES 0
      FADEIN 1 0 0 1 0 0
      FADEOUT 1 0 0 1 0 0
      MUTE 0
      SEL 0
      YPOS 0.166667 0.166667
      IGUID {75B4BE05-0AB2-AF4C-8455-B6EAE5941D2D}
      IID 2
      NAME "L.H.                 - National_Anthems_-_United_Arab_Emirates.mid"
      VOLPAN 1 0 1 -1
      SOFFS 0 0
      PLAYRATE 1 1 0 -1 0 0.0025
      CHANMODE 0
      GUID {154070BE-C99B-5B4C-8B3C-6880793C1C18}
      <SOURCE MIDI
        HASDATA 1 192 QN
        POOLEDEVTS {E3B03F05-63D9-8D43-A87F-403E72776B91}
        <X 0 0 0 0 3 "L.H.                "
          /wNMLkguICAgICAgICAgICAgICAgIA==
        >
        e 0 92 35 64
        e 0 92 29 64
        e 560 82 35 40
        e 0 82 29 40
        e 16 92 3a 64
        e 0 92 2e 64
        e 176 82 3a 40
        e 0 82 2e 40
        e 16 92 2d 64
        e 0 92 39 64
        e 176 82 2d 40
        e 0 82 39 40
        e 16 92 2b 64
        e 0 92 37 64
        e 176 82 2b 40
        e 0 82 37 40
        e 16 92 29 64
        e 0 92 35 64
        e 176 82 29 40
        e 0 82 35 40
        e 16 92 37 64
        e 0 92 2b 64
        e 80 82 37 40
        e 0 82 2b 40
        e 16 92 24 64
        e 0 92 30 64
        e 80 82 24 40
        e 0 82 30 40
        e 16 92 24 64
        e 0 92 30 64
        e 368 82 24 40
        e 0 82 30 40
        e 16 92 3c 64
        e 0 92 30 64
        e 80 82 3c 40
        e 0 82 30 40
        e 16 92 3c 64
        e 0 92 30 64
        e 16 82 3c 40
        e 0 82 30 40
        e 16 92 3c 64
        e 0 92 30 64
        e 16 82 3c 40
        e 0 82 30 40
        e 16 92 3c 64
        e 0 92 30 64
        e 16 82 3c 40
        e 0 82 30 40
        e 16 92 30 64
        e 0 92 3c 64
        e 80 82 30 40
        e 0 82 3c 40
        e 16 92 30 64
        e 0 92 3c 64
        e 80 82 30 40
        e 0 82 3c 40
        e 16 92 28 64
        e 0 92 34 64
        e 176 82 28 40
        e 0 82 34 40
        e 16 92 30 64
        e 0 92 24 64
        e 176 82 30 40
        e 0 82 24 40
        e 16 92 2e 64
        e 0 92 3a 64
        e 80 82 2e 40
        e 0 82 3a 40
        e 16 92 30 64
        e 0 92 3c 64
        e 80 82 30 40
        e 0 82 3c 40
        e 16 92 28 64
        e 0 92 34 64
        e 80 82 28 40
        e 0 82 34 40
        e 16 92 2b 64
        e 0 92 37 64
        e 80 82 2b 40
        e 0 82 37 40
        e 16 92 24 64
        e 0 92 30 64
        e 464 82 24 40
        e 0 82 30 40
        e 16 92 24 64
        e 0 92 30 64
        e 80 82 24 40
        e 0 82 30 40
        e 16 92 28 64
        e 0 92 34 64
        e 80 82 28 40
        e 0 82 34 40
        e 16 92 37 64
        e 0 92 2b 64
        e 80 82 37 40
        e 0 82 2b 40
        e 16 92 29 64
        e 0 92 35 64
        e 464 82 29 40
        e 0 82 35 40
        e 16 92 30 64
        e 0 92 3c 64
        e 80 82 30 40
        e 0 82 3c 40
        e 16 92 2d 64
        e 0 92 39 64
        e 80 82 2d 40
        e 0 82 39 40
        e 16 92 29 64
        e 0 92 35 64
        e 80 82 29 40
        e 0 82 35 40
        e 16 92 24 64
        e 0 92 30 64
        e 368 82 24 40
        e 0 82 30 40
        e 16 92 28 64
        e 0 92 34 64
        e 368 82 28 40
        e 0 82 34 40
        e 16 92 29 64
        e 0 92 30 64
        e 0 92 35 64
        e 176 82 29 40
        e 0 82 30 40
        e 0 82 35 40
        e 16 92 30 64
        e 0 92 35 64
        e 0 92 29 64
        e 128 82 30 40
        e 0 82 35 40
        e 0 82 29 40
        e 16 92 30 64
        e 0 92 35 64
        e 0 92 29 64
        e 32 82 30 40
        e 0 82 35 40
        e 0 82 29 40
        e 16 92 29 64
        e 0 92 30 64
        e 0 92 35 64
        e 176 82 29 40
        e 0 82 30 40
        e 0 82 35 40
        e 208 92 29 64
        e 0 92 35 64
        e 272 82 29 40
        e 0 82 35 40
        e 112 92 2e 64
        e 0 92 3a 64
        e 272 82 2e 40
        e 0 82 3a 40
        e 112 92 34 64
        e 0 92 28 64
        e 272 82 34 40
        e 0 82 28 40
        e 112 92 24 64
        e 0 92 30 64
        e 272 82 24 40
        e 0 82 30 40
        e 112 92 30 64
        e 0 92 24 64
        e 560 82 30 40
        e 0 82 24 40
        e 208 92 35 64
        e 0 92 29 64
        e 560 82 35 40
        e 0 82 29 40
        e 208 92 37 64
        e 0 92 2b 64
        e 176 82 37 40
        e 0 82 2b 40
        e 16 92 29 64
        e 0 92 35 64
        e 176 82 29 40
        e 0 82 35 40
        e 16 92 34 64
        e 0 92 28 64
        e 176 82 34 40
        e 0 82 28 40
        e 16 92 24 64
        e 0 92 30 64
        e 176 82 24 40
        e 0 82 30 40
        e 16 92 35 64
        e 0 92 29 64
        e 176 82 35 40
        e 0 82 29 40
        e 16 92 37 64
        e 0 92 2b 64
        e 176 82 37 40
        e 0 82 2b 40
        e 16 92 39 64
        e 0 92 2d 64
        e 176 82 39 40
        e 0 82 2d 40
        e 16 92 2e 64
        e 0 92 3a 64
        e 176 82 2e 40
        e 0 82 3a 40
        e 16 92 30 64
        e 0 92 3c 64
        e 272 82 30 40
        e 0 82 3c 40
        e 16 92 3e 64
        e 0 92 32 64
        e 80 82 3e 40
        e 0 82 32 40
        e 16 92 30 64
        e 0 92 3c 64
        e 80 82 30 40
        e 0 82 3c 40
        e 16 92 2e 64
        e 0 92 3a 64
        e 80 82 2e 40
        e 0 82 3a 40
        e 16 92 2d 64
        e 0 92 39 64
        e 80 82 2d 40
        e 0 82 39 40
        e 16 92 2b 64
        e 0 92 37 64
        e 80 82 2b 40
        e 0 82 37 40
        e 16 92 35 64
        e 0 92 29 64
        e 80 82 35 40
        e 0 82 29 40
        e 16 92 29 64
        e 0 92 35 64
        e 80 82 29 40
        e 0 82 35 40
        e 16 92 28 64
        e 0 92 34 64
        e 80 82 28 40
        e 0 82 34 40
        e 16 92 26 64
        e 0 92 32 64
        e 80 82 26 40
        e 0 82 32 40
        e 16 92 24 64
        e 0 92 30 64
        e 80 82 24 40
        e 0 82 30 40
        e 16 92 2e 64
        e 0 92 3a 64
        e 80 82 2e 40
        e 0 82 3a 40
        e 16 92 2d 64
        e 0 92 39 64
        e 80 82 2d 40
        e 0 82 39 40
        e 16 92 2b 64
        e 0 92 37 64
        e 80 82 2b 40
        e 0 82 37 40
        e 16 92 29 64
        e 0 92 35 64
        e 176 82 29 40
        e 0 82 35 40
        e 16 92 2b 64
        e 0 92 37 64
        e 176 82 2b 40
        e 0 82 37 40
        e 16 92 29 64
        e 0 92 35 64
        e 176 82 29 40
        e 0 82 35 40
        e 16 92 2e 64
        e 0 92 3a 64
        e 176 82 2e 40
        e 0 82 3a 40
        e 16 92 2d 64
        e 0 92 39 64
        e 176 82 2d 40
        e 0 82 39 40
        e 16 92 2b 64
        e 0 92 37 64
        e 176 82 2b 40
        e 0 82 37 40
        e 16 92 29 64
        e 0 92 35 64
        e 176 82 29 40
        e 0 82 35 40
        e 16 92 2b 64
        e 0 92 37 64
        e 80 82 2b 40
        e 0 82 37 40
        e 16 92 2d 64
        e 0 92 39 64
        e 80 82 2d 40
        e 0 82 39 40
        e 16 92 3c 64
        e 0 92 30 64
        e 176 82 3c 40
        e 0 82 30 40
        e 16 92 30 64
        e 0 92 3c 64
        e 80 82 30 40
        e 0 82 3c 40
        e 16 92 30 64
        e 0 92 3c 64
        e 80 82 30 40
        e 0 82 3c 40
        e 16 92 2e 64
        e 0 92 3a 64
        e 80 82 2e 40
        e 0 82 3a 40
        e 16 92 24 64
        e 0 92 30 64
        e 80 82 24 40
        e 0 82 30 40
        e 16 92 34 64
        e 0 92 28 64
        e 80 82 34 40
        e 0 82 28 40
        e 16 92 2b 64
        e 0 92 37 64
        e 80 82 2b 40
        e 0 82 37 40
        e 16 92 3a 64
        e 0 92 2e 64
        e 80 82 3a 40
        e 0 82 2e 40
        e 16 92 39 64
        e 0 92 2d 64
        e 80 82 39 40
        e 0 82 2d 40
        e 16 92 2b 64
        e 0 92 37 64
        e 80 82 2b 40
        e 0 82 37 40
        e 16 92 29 64
        e 0 92 35 64
        e 80 82 29 40
        e 0 82 35 40
        e 16 92 3a 64
        e 0 92 2e 64
        e 80 82 3a 40
        e 0 82 2e 40
        e 16 92 30 64
        e 0 92 3c 64
        e 80 82 30 40
        e 0 82 3c 40
        e 16 92 28 64
        e 0 92 34 64
        e 80 82 28 40
        e 0 82 34 40
        e 16 92 2b 64
        e 0 92 37 64
        e 80 82 2b 40
        e 0 82 37 40
        e 16 92 30 64
        e 0 92 24 64
        e 464 82 30 40
        e 0 82 24 40
        e 16 92 24 64
        e 0 92 30 64
        e 80 82 24 40
        e 0 82 30 40
        e 16 92 28 64
        e 0 92 34 64
        e 80 82 28 40
        e 0 82 34 40
        e 16 92 2b 64
        e 0 92 37 64
        e 80 82 2b 40
        e 0 82 37 40
        e 16 92 29 64
        e 0 92 35 64
        e 464 82 29 40
        e 0 82 35 40
        e 16 92 30 64
        e 0 92 3c 64
        e 80 82 30 40
        e 0 82 3c 40
        e 16 92 2d 64
        e 0 92 39 64
        e 80 82 2d 40
        e 0 82 39 40
        e 16 92 35 64
        e 0 92 29 64
        e 80 82 35 40
        e 0 82 29 40
        e 16 92 28 64
        e 0 92 34 64
        e 368 82 28 40
        e 0 82 34 40
        e 16 92 24 64
        e 0 92 30 64
        e 368 82 24 40
        e 0 82 30 40
        e 16 92 29 64
        e 0 92 35 64
        e 176 82 29 40
        e 0 82 35 40
        e 16 92 29 64
        e 0 92 35 64
        e 128 82 29 40
        e 0 82 35 40
        e 16 92 29 64
        e 0 92 35 64
        e 32 82 29 40
        e 0 82 35 40
        e 16 92 29 64
        e 0 92 35 64
        e 176 82 29 40
        e 0 82 35 40
        E 16 b0 7b 00
        GUID {44815931-6C34-CE44-A578-7DBC38CC7A90}
        IGNTEMPO 0 120 4 4
        SRCCOLOR 200
        VELLANE -1 86 6
        CFGEDITVIEW 0 11.073684 65 12 0 -1 0 0 0 0.5
        KEYSNAP 0
        TRACKSEL 252
        EVTFILTER 0 -1 -1 -1 -1 0 0 0 0 -1 -1 -1 -1 0 -1 0 -1 -1
        CFGEDIT 1 0 0 0 0 0 1 0 1 1 1 0.25 285 20 1280 633 0 0 2 3 0 0 0 0 0 0.5 0 0 1 64
      >
    >
  >
  <TRACK {1B564899-9ACC-8C4B-8FBF-925A5A247A13}
    NAME ChipSide
    PEAKCOL 16576
    BEAT -1
    AUTOMODE 0
    VOLPAN 0.44668359215096 0.046 -1 -1 1
    MUTESOLO 0 0 0
    IPHASE 0
    ISBUS 0 0
    BUSCOMP 0 0
    SHOWINMIX 1 0.6667 0.464368 1 0.5 0 0 0
    FREEMODE 0
    SEL 0
    REC 0 0 0 0 0 0 0
    VU 2
    TRACKHEIGHT 0 0
    INQ 0 0 0 0.5 100 0 0 100
    NCHAN 2
    FX 1
    TRACKID {1B564899-9ACC-8C4B-8FBF-925A5A247A13}
    PERF 0
    AUXRECV 5 0 1 0 0 0 0 2 0 -1:U 0 -1 ''
    MIDIOUT -1
    MAINSEND 1 0
    <FXCHAIN
      SHOW 0
      LASTSEL 0
      DOCKED 0
      BYPASS 0 0 0
      <VST "VST: FabFilter Volcano 2 (SC) (FabFilter)" "FabFilter Volcano 2 (SC).vst" 0 "" 1180054068
        NDJWRu9e7f4EAAAAAQAAAAAAAAACAAAAAAAAAAAAAAAAAAAAAAAAAAAAAAAIAAAAAQAAAAAAAAACAAAAAAAAAAQAAAAAAAAACAAAAAAAAAAQAAAAAAAAACAAAAAAAAAA
        QAAAAAAAAACAAAAAAAAAANwLAAAAAAAAAAAQAA==
        776t3g3wrd4AAAA/AAAAPwAAAD8AAAA/AACAPwAAAAAAAAAAq6qqPk7urj4AAAA/SlO6Ps3MTD4AAAA/AAAAAAAAAAAAAIA/AACAP+6STD8AAAA/ip3YPs3MzD0AAAAA
        AAAAAPd05j4AAIA/AACAPwAAgD8AAAA/AAAAAJqZGT8AAAAAAAAAAAAAAAAAAIA/AAAAAAAAgD8AAAA/AAAAAJqZGT8AAAAAAAAAAAAAAAAAAIA/AAAAAKuqKj4nxOo+
        AAAAPxZGND8AAIA/6aILPwAAAADNzEw+AACAP7PDtD4AAIA/AAAAAAAAAAAOdFo9AACAPwAAAAChjE4/AAAAAAAAgD8AAAAAAAAAAGZAATsAAIA/AAAAAAAAAD8AAAAA
        AAAAAAAAAAAAAAA/AAAAAAAAAAAAAAAAAAAAPwAAAAAAAAAAAAAAAAAAAD8AAAAAAAAAAAAAAAAAAAA/AAAAAAAAAAAAAAAAAAAAPwAAAAAAAAAAAAAAAAAAAD8AAAAA
        AAAAAAAAAAAAAAA/AAAAAAAAAAAAAAAAAAAAPwAAAAAAAAAAAAAAAAAAAD8AAAAAAAAAAAAAAAAAAAA/AAAAAAAAAAAAAAAAAAAAPwAAAAAAAAAAAAAAAL70fT4AAAA/
        AAAAPwAAAD8AAAAAAAAAAImIiD0AAAA/AAAAAAAAAAAAAAAAAAAAPwAAAAAAAAAAAAAAAAAAAD8AAAAAAAAAAAAAAAAAAAA/AAAAAAAAAAAAAAAAAAAAPwAAAAAAAAAA
        AAAAAAAAAD8AAAAAAAAAAAAAAAAAAAA/AAAAAAAAAAAAAAAAAAAAPwAAAAAAAAAAAAAAAAAAAD8AAAAAAAAAAAAAAAAAAAA/AAAAAAAAAAAAAAAAAAAAPwAAAAAAAAAA
        AAAAAAAAAD8AAAAAAAAAAAAAAAAAAAA/AAAAAAAAAAAAAAAAAAAAPwAAAAAAAAAAAAAAAAAAAD8AAAAAAAAAAAAAAAAAAAA/AAAAAAAAAAAAAAAAvvR9PgAAAD8AAAA/
        AAAAPwAAAAAAAAAAiYiIPQAAAD8AAAAAAAAAAAAAAAAAAAA/AAAAAAAAAAAAAAAAAAAAPwAAAAAAAAAAAAAAAAAAAD8AAAAAAAAAAAAAAAAAAAA/AAAAAAAAAAAAAAAA
        AAAAPwAAAAAAAAAAAAAAAAAAAD8AAAAAAAAAAAAAAAAAAAA/AAAAAAAAAAAAAAAAAAAAPwAAAAAAAAAAAAAAAAAAAD8AAAAAAAAAAAAAAAAAAAA/AAAAAAAAAAAAAAAA
        AAAAPwAAAAAAAAAAAAAAAAAAAD8AAAAAAAAAAAAAAAAAAAA/AAAAAAAAAAAAAAAAAAAAPwAAAAAAAAAAAAAAAAAAAD8AAAAAAAAAAAAAAAC+9H0+AAAAPwAAAD8AAAA/
        AAAAAAAAAACJiIg9AAAAPwAAAAAAAAAAAAAAAAAAAD8AAAAAAAAAAAAAAAAAAAA/AAAAAAAAAAAAAAAAAAAAPwAAAAAAAAAAAAAAAAAAAD8AAAAAAAAAAAAAAAAAAAA/
        AAAAAAAAAAAAAAAAAAAAPwAAAAAAAAAAAAAAAAAAAD8AAAAAAAAAAAAAAAAAAAA/AAAAAAAAAAAAAAAAAAAAPwAAAAAAAAAAAAAAAAAAAD8AAAAAAAAAAAAAAAAAAAA/
        AAAAAAAAAAAAAAAAAAAAPwAAAAAAAAAAAAAAAAAAAD8AAAAAAAAAAAAAAAAAAAA/AAAAAAAAAAAAAAAAAAAAPwAAAAAAAAAAAAAAAL70fT4AAAA/AAAAPwAAAD8AAAAA
        AAAAAImIiD0AAAA/AAAAAAAAAAAAAAAAAAAAPwAAAAAAAAAAAAAAAAAAAD8AAAAAAAAAAAAAAAAAAAA/AAAAAAAAAAAAAAAAAAAAPwAAAAAAAAAAAAAAAAAAAD8AAAAA
        AAAAAAAAAAAAAAA/AAAAAAAAAAAAAAAAAAAAPwAAAAAAAAAAAAAAAAAAAD8AAAAAAAAAAAAAAAAAAAA/AAAAAAAAAAAAAAAAAAAAPwAAAAAAAAAAAAAAAAAAAD8AAAAA
        AAAAAAAAAAAAAAA/AAAAAAAAAAAAAAAAAAAAPwAAAAAAAAAAAAAAAAAAAD8AAAAAAAAAAAAAAAAAAAA/AAAAAAAAAAAAAAAAvvR9PgAAAD8AAAA/AAAAPwAAAAAAAAAA
        iYiIPQAAAD8AAAAAAAAAAAAAAAAAAAA/AAAAAAAAAAAAAAAAAAAAPwAAAAAAAAAAAAAAAAAAAD8AAAAAAAAAAAAAAAAAAAA/AAAAAAAAAAAAAAAAAAAAPwAAAAAAAAAA
        AAAAAAAAAD8AAAAAAAAAAAAAAAAAAAA/AAAAAAAAAAAAAAAAAAAAPwAAAAAAAAAAAAAAAAAAAD8AAAAAAAAAAAAAAAAAAAA/AAAAAAAAAAAAAAAAAAAAPwAAAAAAAAAA
        AAAAAAAAAD8AAAAAAAAAAAAAAAAAAAA/AAAAAAAAAAAAAAAAAAAAPwAAAAAAAAAAAAAAAAAAAD8AAAAAAAAAAAAAAAAAAAAAmpmZPgAAAAAAAAAAAAAAAAAAgD8AAAAA
        mpmZPgAAAAAAAAAAAAAAAAAAgD8AAAAAmpmZPgAAAAAAAAAAAAAAAAAAgD8AAAAAmpmZPgAAAAAAAAAAAAAAAAAAgD8AAAAAmpmZPgAAAAAAAAAAAAAAAAAAgD8AAAAA
        mpmZPgAAAAAAAAAAAAAAAAAAgD8AAAAAAAAAAAAAAAAAAAAAAAAAAAAAAAAAAAAAAAAAAAAAAAAAAAAAAAAAAAAAAAAAAAAAAAAAAAAAAAAAAAAAAAAAAAAAAAAAAAAA
        AAAAAAAAAAAAAAAAAAAAAAAAAAAAAAAAAAAAAAAAAAAAAAAAAAAAAAAAAAAAAAAAAAAAAAAAAAAAAAAAAAAAAAAAAAAAAAAAAAAAAKuqqj3ZiR096EeEPgAAAAAAAAAA
        knYsPNmJHT0Ws0E/AAAAAAAAgD82lFc9AAAAAAAAAD8AAAAAAAAAAAAAAAAAAAAAAAAAPwAAAAAAAAAAAAAAAAAAAAAAAAAAAAAAAAAAAAAAAAAAAAAAAAAAAAAAAAAA
        AAAAAAAAAAAAAAAAAAAAAAAAAAAAAAAAAAAAAAAAAAAAAAAAAAAAAAAAAAAAAAAAAAAAAAAAAAAAAAAAAAAAAAAAAAAAAAAAAAAAAAAAAAAAAAAAAAAAAAAAAAAAAAAA
        AAAAAAAAAAAAAAAAAAAAAAAAAAAAAAAAAAAAAAAAAAAAAAAAAAAAAAAAAAAAAAAAAAAAAAAAAAAAAAAAAAAAAAAAAAAAAAAAAAAAAAAAAAAAAAAAAAAAAAAAAAAAAAAA
        AAAAAAAAAAAAAAAAAAAAAAAAAAAAAAAAAAAAAAAAAAAAAAAAAAAAAAAAAAAAAAAAAAAAAAAAAAAAAAAAAAAAAAAAAAAAAAAAAAAAAAAAAAAAAAAAAAAAAAAAAAAAAAAA
        AAAAAAAAAAAAAAAAAAAAAAAAAAAAAAAAAAAAAAAAAAAAAAAAAAAAAAAAAAAAAAAAAAAAAAAAAAAAAAAAAAAAAAAAAAAAAAAAAAAAAAAAAAAAAAAAAAAAPwAAAD8AAAA/
        AAAAPwAAAD8AAAA/AAAAPwAAAD8AAAAAAAAAAAAAAAAAAAAAAAAAAAAAAAAAAAAAAAAAAAAAAAAAAAAAAAAAAAAAAAAAAAAAAAAAAAAAAAAAAAAAAAAAAAAAAAAAAAAA
        AAAAAAAAAAAAAAAAAAAAAAAAAAAAAAAAAAAAAAAAAAAAAAAAAAAAAAAAAAAAAAAAAAAAAAAAAAAAAAAAAAAAAAAAAAAAAAAAAAAAAAAAAAAAAAAAAAAAAAAAAAAAAAAA
        AAAAAAAAAAAAAAAAAAAAAAAAAAAAAAAAAAAAAAAAAAAAAAAAAAAAAAAAAAAAAAAAAAAAAAAAAAAAAAAAAAAAAAAAAAAAAAAAAAAAAAAAAAAAAAAAAAAAAAAAAAAAAAAA
        AAAAAAAAAAAAAAAAAAAAAAAAAAAAAAAAAAAAAAAAAAAAAAAAAAAAAAAAAAAAAAAAAAAAAAAAAAAAAAAA
        Q2hpcFNpZGUAQ2hpcFNpZGUAEAAAAA==
      >
      PRESETNAME ChipSide
      FLOATPOS 785 262 926 528
      FXID {20356A84-5CFD-6E4A-AA26-2A8A49CE7A76}
      WAK 0
    >
  >
  <EXTENSIONS
    <SWSAUTOCOLOR
      {00000000-0000-0000-0000-000000000000} 0 "" "" ""
      {F4CC3575-1D7D-424F-8F4B-C71B325A2484} 0 "" "" ""
    >
    <BR_CURSOR_POS 04
      0.00000000000000
    >
    <S&M_PROJNOTES
      |vst Gladiator <-- See Changes !!
    >
  >
>
