<REAPER_PROJECT 0.1 "5.1pre4/OSX64" 1447528756
  RIPPLE 0
  GROUPOVERRIDE 0 0 0
  AUTOXFADE 0
  ENVATTACH 1
  MIXERUIFLAGS 11 52
  PEAKGAIN 1
  FEEDBACK 0
  PANLAW 1
  PROJOFFS 0 0
  MAXPROJLEN 0 600
  GRID 174206 8 1 8 1 0 0
  TIMEMODE 6 0 -1 24 2
  PANMODE 3
  CURSOR 0
  ZOOM 24.67652131678014 0 0
  VZOOMEX 0
  USE_REC_CFG 0
  RECMODE 1
  SMPTESYNC 0 23.976024 100 40 1000 300 0 0 1
  LOOP 1
  LOOPGRAN 0 4
  RECORD_PATH "" ""
  <RECORD_CFG
    ZXZhdxAA
  >
  <APPLYFX_CFG
  >
  RENDER_FILE ""
  RENDER_PATTERN ""
  RENDER_FMT 0 2 0
  RENDER_1X 0
  RENDER_RANGE 1 0 0
  RENDER_RESAMPLE 3 0 1
  RENDER_ADDTOPROJ 0
  RENDER_STEMS 0
  RENDER_DITHER 0
  TIMELOCKMODE 1
  TEMPOENVLOCKMODE 1
  ITEMMIX 1
  DEFPITCHMODE 589824
  TAKELANE 3
  SAMPLERATE 44100 0 0
  <RENDER_CFG
  >
  LOCK 1
  <METRONOME 6 2
    VOL 0.25 0.125
    FREQ 800 1600 1
    BEATLEN 4
    SAMPLES "" ""
    PATTERN 2863311530 2863311529
  >
  GLOBAL_AUTO -1
  TEMPO 120 4 4
  PLAYRATE 1 0 0.25 4
  SELECTION 0 36.5
  SELECTION2 0 36.5
  MASTERAUTOMODE 0
  MASTERTRACKHEIGHT 0
  MASTERPEAKCOL 16576
  MASTERMUTESOLO 0
  MASTERTRACKVIEW 0 0.6667 0.5 0.5 0 -1 0
  MASTERHWOUT 0 0 1 0 0 0 0 -1
  MASTER_NCH 2 2
  MASTER_VOLUME 1 0 -1 -1 1
  MASTER_FX 1
  MASTER_SEL 0
  <MASTERPLAYSPEEDENV
    ACT 0
    VIS 0 1 1
    LANEHEIGHT 0 0
    ARM 0
    DEFSHAPE 0 -1 -1
  >
  <TEMPOENVEX
    ACT 0
    VIS 1 0 1
    LANEHEIGHT 0 0
    ARM 0
    DEFSHAPE 1 -1 -1
  >
  <PROJBAY
  >
  <TRACK {61DF7730-0644-124F-97F9-9722223D79A4}
    NAME Midi
    PEAKCOL 16576
    BEAT -1
    AUTOMODE 0
    VOLPAN 1 0 -1 -1 1
    MUTESOLO 0 0 0
    IPHASE 0
    ISBUS 0 0
    BUSCOMP 0 0
    SHOWINMIX 1 0.6667 0.5 1 0.5 -1 -1 -1
    FREEMODE 0
    SEL 0
    REC 0 0 0 0 0 0 0
    VU 2
    TRACKHEIGHT 0 0
    INQ 0 0 0 0.5 100 0 0 100
    NCHAN 2
    FX 1
    TRACKID {61DF7730-0644-124F-97F9-9722223D79A4}
    PERF 0
    MIDIOUT -1
    MAINSEND 1 0
    <ITEM
      POSITION 0
      SNAPOFFS 0
      LENGTH 36.5
      LOOP 1
      ALLTAKES 0
      FADEIN 1 0 0 1 0 0
      FADEOUT 1 0 0 1 0 0
      MUTE 0
      SEL 0
      YPOS 0.125 0.125
      IGUID {46B8A571-959A-1945-B419-B2DD4CEB89AD}
      IID 2
      NAME "R.H.                 - National_Anthems_-_China.mid"
      VOLPAN 1 0 1 -1
      SOFFS 0 0
      PLAYRATE 1 1 0 -1 0 0.0025
      CHANMODE 0
      TAKECOLOR 26173599
      GUID {C60DFB34-5EA2-1449-972E-82F4F938F454}
      <SOURCE MIDI
        HASDATA 1 192 QN
        POOLEDEVTS {75DFC0DD-E262-194E-9BAA-0B3D9843717A}
        <X 0 0
          /wNSLkguICAgICAgICAgICAgICAgIA==
        >
        E 0 91 43 64
        E 130 81 43 40
        E 14 91 47 64
        E 34 81 47 40
        E 14 91 43 64
        E 0 91 4a 64
        E 82 81 43 40
        E 0 81 4a 40
        E 14 91 4a 64
        E 0 91 43 64
        E 82 81 4a 40
        E 0 81 43 40
        E 14 91 43 64
        E 0 91 4c 64
        E 178 81 4c 40
        E 14 91 4a 64
        E 178 81 43 40
        E 0 81 4a 40
        E 14 91 47 64
        E 114 81 47 40
        E 14 91 43 64
        E 50 81 43 40
        E 14 91 4a 64
        E 0 91 42 64
        E 50 81 4a 40
        E 0 81 42 40
        E 14 91 42 64
        E 0 91 4a 64
        E 50 81 42 40
        E 0 81 4a 40
        E 14 91 4a 64
        E 0 91 42 64
        E 50 81 4a 40
        E 0 81 42 40
        E 14 91 47 64
        E 0 91 43 64
        E 178 81 43 40
        E 14 91 43 64
        E 178 81 47 40
        E 0 81 43 40
        E 14 91 3e 64
        E 50 81 3e 40
        E 14 91 3e 64
        E 50 81 3e 40
        E 14 91 3e 64
        E 50 81 3e 40
        E 14 91 3e 64
        E 50 81 3e 40
        E 14 91 3e 64
        E 50 81 3e 40
        E 14 91 3e 64
        E 50 81 3e 40
        E 14 91 43 64
        E 0 91 3e 64
        E 178 81 43 40
        E 0 81 3e 40
        E 110 91 3e 64
        E 82 81 3e 40
        E 14 91 43 64
        E 0 91 3e 64
        E 274 81 43 40
        E 0 81 3e 40
        E 14 91 43 64
        E 82 81 43 40
        E 14 91 3e 64
        E 0 91 43 64
        E 130 81 43 40
        E 14 91 43 64
        E 34 81 3e 40
        E 0 81 43 40
        E 14 91 3e 64
        E 96 91 40 64
        E 3 81 3e 40
        E 31 81 40 40
        E 14 91 42 64
        E 34 81 42 40
        E 14 91 3e 64
        E 0 91 43 64
        E 178 81 3e 40
        E 0 81 43 40
        E 14 91 3e 64
        E 0 91 43 64
        E 178 81 3e 40
        E 0 81 43 40
        E 110 91 47 64
        E 82 81 47 40
        E 14 91 43 64
        E 82 81 43 40
        E 14 91 45 64
        E 34 81 45 40
        E 14 91 47 64
        E 34 81 47 40
        E 14 91 43 64
        E 0 91 4a 64
        E 178 81 43 40
        E 0 81 4a 40
        E 14 91 43 64
        E 0 91 4a 64
        E 178 81 43 40
        E 0 81 4a 40
        E 14 91 47 64
        E 130 81 47 40
        E 14 91 47 64
        E 34 81 47 40
        E 14 91 43 64
        E 130 81 43 40
        E 14 91 47 64
        E 34 81 47 40
        E 14 91 47 64
        E 0 91 4a 64
        E 130 81 47 40
        E 0 81 4a 40
        E 14 91 43 64
        E 0 91 47 40
        E 34 81 43 40
        E 0 81 47 40
        E 14 91 45 64
        E 0 91 3e 64
        E 178 81 45 40
        E 0 81 3e 40
        E 14 91 45 64
        E 0 91 40 64
        E 370 81 45 40
        E 0 81 40 40
        E 14 91 4c 64
        E 0 91 42 64
        E 0 91 45 64
        E 178 81 4c 40
        E 0 81 42 40
        E 0 81 45 40
        E 14 91 3e 64
        E 0 91 4a 64
        E 0 91 43 64
        E 178 81 3e 40
        E 0 81 4a 40
        E 0 81 43 40
        E 14 91 42 64
        E 0 91 45 64
        E 0 91 3e 64
        E 178 81 42 40
        E 0 81 45 40
        E 0 81 3e 40
        E 14 91 47 64
        E 0 91 3e 64
        E 0 91 43 64
        E 178 81 47 40
        E 0 81 3e 40
        E 0 81 43 40
        E 14 91 4a 64
        E 82 81 4a 40
        E 14 91 47 64
        E 82 81 47 40
        E 110 91 4a 64
        E 82 81 4a 40
        E 14 91 47 64
        E 82 81 47 40
        E 14 91 45 64
        E 34 81 45 40
        E 14 91 47 64
        E 34 81 47 40
        E 14 91 43 64
        E 178 81 43 40
        E 14 91 47 64
        E 370 81 47 40
        E 14 91 3e 64
        E 130 81 3e 40
        E 14 91 40 64
        E 34 81 40 40
        E 14 91 43 64
        E 82 81 43 40
        E 14 91 43 64
        E 82 81 43 40
        E 14 91 47 64
        E 130 81 47 40
        E 14 91 47 64
        E 34 81 47 40
        E 14 91 4a 64
        E 82 81 4a 40
        E 14 91 4a 64
        E 82 81 4a 40
        E 14 91 45 64
        E 82 81 45 40
        E 14 91 45 64
        E 34 81 45 40
        E 14 91 45 64
        E 34 81 45 40
        E 14 91 40 64
        E 178 81 40 40
        E 14 91 45 64
        E 274 81 45 40
        E 14 91 3e 64
        E 82 81 3e 40
        E 14 91 3e 64
        E 0 91 43 64
        E 274 81 3e 40
        E 0 81 43 40
        E 14 91 43 64
        E 0 91 3e 64
        E 82 81 43 40
        E 0 81 3e 40
        E 14 91 47 64
        E 0 91 3e 64
        E 0 91 3b 64
        E 274 81 47 40
        E 0 81 3e 40
        E 0 81 3b 40
        E 14 91 3b 64
        E 0 91 3e 64
        E 0 91 47 64
        E 82 81 3b 40
        E 0 81 3e 40
        E 0 81 47 40
        E 14 91 42 64
        E 0 91 3e 64
        E 0 91 4a 64
        E 370 81 42 40
        E 0 81 3e 40
        E 0 81 4a 40
        E 14 91 43 64
        E 130 81 43 40
        E 14 91 47 64
        E 34 81 47 40
        E 14 91 4a 64
        E 82 81 4a 40
        E 14 91 4a 64
        E 82 81 4a 40
        E 14 91 4c 64
        E 0 91 43 64
        E 178 81 4c 40
        E 14 91 4a 64
        E 178 81 43 40
        E 0 81 4a 40
        E 14 91 47 64
        E 114 81 47 40
        E 14 91 43 64
        E 50 81 43 40
        E 14 91 4a 64
        E 0 91 42 64
        E 50 81 4a 40
        E 0 81 42 40
        E 14 91 42 64
        E 0 91 4a 64
        E 50 81 42 40
        E 0 81 4a 40
        E 14 91 4a 64
        E 0 91 42 64
        E 50 81 4a 40
        E 0 81 42 40
        E 14 91 43 64
        E 0 91 47 64
        E 178 81 43 40
        E 0 81 47 40
        E 14 91 43 64
        E 178 81 43 40
        E 14 91 3e 64
        E 178 81 3e 40
        E 14 91 43 64
        E 178 81 43 40
        E 14 91 47 64
        E 114 81 47 40
        E 14 91 43 64
        E 50 81 43 40
        E 14 91 4a 64
        E 0 91 42 64
        E 50 81 4a 40
        E 0 81 42 40
        E 14 91 42 64
        E 0 91 4a 64
        E 50 81 42 40
        E 0 81 4a 40
        E 14 91 4a 64
        E 0 91 42 64
        E 50 81 4a 40
        E 0 81 42 40
        E 14 91 47 64
        E 0 91 43 64
        E 178 81 47 40
        E 0 81 43 40
        E 14 91 43 64
        E 178 81 43 40
        E 14 91 3b 64
        E 0 91 3e 64
        E 178 81 3b 40
        E 0 81 3e 40
        E 14 91 43 64
        E 178 81 43 40
        E 14 91 3b 64
        E 0 91 3e 64
        E 178 81 3b 40
        E 0 81 3e 40
        E 14 91 43 64
        E 178 81 43 40
        E 14 91 3b 64
        E 0 91 3e 64
        E 192 91 43 64
        E 178 81 3b 40
        E 0 81 3e 40
        E 0 81 43 40
        E 14 91 3b 64
        E 0 91 43 64
        E 178 81 3b 40
        E 0 81 43 40
        E 14 b0 7b 00
        GUID {6EF03167-184B-C94B-88F2-113B1DB21C2E}
        IGNTEMPO 0 120 4 4
        SRCCOLOR 654
        VELLANE -1 86 6
        CFGEDITVIEW 0 15.123288 51 12 0 0 0 0 0
        KEYSNAP 0 3 102304056070 0 "Natural minor"
        TRACKSEL 226 0 0 ""
        EVTFILTER 0 -1 -1 -1 -1 0 0 0 0 -1 -1 -1 -1 0 -1 0 -1 -1
        CFGEDIT 1 1 0 0 0 0 1 0 1 1 1 0.25 20 47 1280 778 1 0 2 3 0 0 0 0 0 -1 0 0 1 64
      >
      TAKE
      NAME "R.H.                 - National_Anthems_-_China.mid"
      TAKEVOLPAN 0 1 -1
      SOFFS 0 0
      PLAYRATE 1 1 0 -1 0 0.0025
      CHANMODE 0
      GUID {05844E15-7838-694C-8A1F-9C3947243938}
      <SOURCE MIDI
        HASDATA 1 192 QN
        POOLEDEVTS {6BD63BB7-9FBF-B14F-8FA4-7074E7B4A6A3}
        <X 0 0
          /wNSLkguICAgICAgICAgICAgICAgIA==
        >
        E 0 91 43 64
        E 130 81 43 40
        E 14 91 47 64
        E 34 81 47 40
        E 14 91 43 64
        E 0 91 4a 64
        E 82 81 43 40
        E 0 81 4a 40
        E 14 91 4a 64
        E 0 91 43 64
        E 82 81 4a 40
        E 0 81 43 40
        E 14 91 43 64
        E 0 91 4c 64
        E 178 81 4c 40
        E 14 91 4a 64
        E 178 81 43 40
        E 0 81 4a 40
        E 14 91 47 64
        E 114 81 47 40
        E 14 91 43 64
        E 50 81 43 40
        E 14 91 4a 64
        E 0 91 42 64
        E 50 81 4a 40
        E 0 81 42 40
        E 14 91 42 64
        E 0 91 4a 64
        E 50 81 42 40
        E 0 81 4a 40
        E 14 91 4a 64
        E 0 91 42 64
        E 50 81 4a 40
        E 0 81 42 40
        E 14 91 47 64
        E 0 91 43 64
        E 178 81 43 40
        E 14 91 43 64
        E 178 81 47 40
        E 0 81 43 40
        E 14 91 3e 64
        E 50 81 3e 40
        E 14 91 3e 64
        E 50 81 3e 40
        E 14 91 3e 64
        E 50 81 3e 40
        E 14 91 3e 64
        E 50 81 3e 40
        E 14 91 3e 64
        E 50 81 3e 40
        E 14 91 3e 64
        E 50 81 3e 40
        E 14 91 43 64
        E 0 91 3e 64
        E 178 81 43 40
        E 0 81 3e 40
        E 110 91 3e 64
        E 82 81 3e 40
        E 14 91 43 64
        E 0 91 3e 64
        E 274 81 43 40
        E 0 81 3e 40
        E 14 91 43 64
        E 82 81 43 40
        E 14 91 3e 64
        E 0 91 43 64
        E 130 81 43 40
        E 14 91 43 64
        E 34 81 3e 40
        E 0 81 43 40
        E 14 91 3e 64
        E 96 91 40 64
        E 3 81 3e 40
        E 31 81 40 40
        E 14 91 42 64
        E 34 81 42 40
        E 14 91 3e 64
        E 0 91 43 64
        E 178 81 3e 40
        E 0 81 43 40
        E 14 91 3e 64
        E 0 91 43 64
        E 178 81 3e 40
        E 0 81 43 40
        E 110 91 47 64
        E 82 81 47 40
        E 14 91 43 64
        E 82 81 43 40
        E 14 91 45 64
        E 34 81 45 40
        E 14 91 47 64
        E 34 81 47 40
        E 14 91 43 64
        E 0 91 4a 64
        E 178 81 43 40
        E 0 81 4a 40
        E 14 91 43 64
        E 0 91 4a 64
        E 178 81 43 40
        E 0 81 4a 40
        E 14 91 47 64
        E 130 81 47 40
        E 14 91 47 64
        E 34 81 47 40
        E 14 91 43 64
        E 130 81 43 40
        E 14 91 47 64
        E 34 81 47 40
        E 14 91 47 64
        E 0 91 4a 64
        E 130 81 47 40
        E 0 81 4a 40
        E 14 91 43 64
        E 0 91 47 40
        E 34 81 43 40
        E 0 81 47 40
        E 14 91 45 64
        E 0 91 3e 64
        E 178 81 45 40
        E 0 81 3e 40
        E 14 91 45 64
        E 0 91 40 64
        E 370 81 45 40
        E 0 81 40 40
        E 14 91 4c 64
        E 0 91 42 64
        E 0 91 45 64
        E 178 81 4c 40
        E 0 81 42 40
        E 0 81 45 40
        E 14 91 3e 64
        E 0 91 4a 64
        E 0 91 43 64
        E 178 81 3e 40
        E 0 81 4a 40
        E 0 81 43 40
        E 14 91 42 64
        E 0 91 45 64
        E 0 91 3e 64
        E 178 81 42 40
        E 0 81 45 40
        E 0 81 3e 40
        E 14 91 47 64
        E 0 91 3e 64
        E 0 91 43 64
        E 178 81 47 40
        E 0 81 3e 40
        E 0 81 43 40
        E 14 91 4a 64
        E 82 81 4a 40
        E 14 91 47 64
        E 82 81 47 40
        E 110 91 4a 64
        E 82 81 4a 40
        E 14 91 47 64
        E 82 81 47 40
        E 14 91 45 64
        E 34 81 45 40
        E 14 91 47 64
        E 34 81 47 40
        E 14 91 43 64
        E 178 81 43 40
        E 14 91 47 64
        E 370 81 47 40
        E 14 91 3e 64
        E 130 81 3e 40
        E 14 91 40 64
        E 34 81 40 40
        E 14 91 43 64
        E 82 81 43 40
        E 14 91 43 64
        E 82 81 43 40
        E 14 91 47 64
        E 130 81 47 40
        E 14 91 47 64
        E 34 81 47 40
        E 14 91 4a 64
        E 82 81 4a 40
        E 14 91 4a 64
        E 82 81 4a 40
        E 14 91 45 64
        E 82 81 45 40
        E 14 91 45 64
        E 34 81 45 40
        E 14 91 45 64
        E 34 81 45 40
        E 14 91 40 64
        E 178 81 40 40
        E 14 91 45 64
        E 274 81 45 40
        E 14 91 3e 64
        E 82 81 3e 40
        E 14 91 3e 64
        E 0 91 43 64
        E 274 81 3e 40
        E 0 81 43 40
        E 14 91 43 64
        E 0 91 3e 64
        E 82 81 43 40
        E 0 81 3e 40
        E 14 91 47 64
        E 0 91 3e 64
        E 0 91 3b 64
        E 274 81 47 40
        E 0 81 3e 40
        E 0 81 3b 40
        E 14 91 3b 64
        E 0 91 3e 64
        E 0 91 47 64
        E 82 81 3b 40
        E 0 81 3e 40
        E 0 81 47 40
        E 14 91 42 64
        E 0 91 3e 64
        E 0 91 4a 64
        E 370 81 42 40
        E 0 81 3e 40
        E 0 81 4a 40
        E 14 91 43 64
        E 130 81 43 40
        E 14 91 47 64
        E 34 81 47 40
        E 14 91 4a 64
        E 82 81 4a 40
        E 14 91 4a 64
        E 82 81 4a 40
        E 14 91 4c 64
        E 0 91 43 64
        E 178 81 4c 40
        E 14 91 4a 64
        E 178 81 43 40
        E 0 81 4a 40
        E 14 91 47 64
        E 114 81 47 40
        E 14 91 43 64
        E 50 81 43 40
        E 14 91 4a 64
        E 0 91 42 64
        E 50 81 4a 40
        E 0 81 42 40
        E 14 91 42 64
        E 0 91 4a 64
        E 50 81 42 40
        E 0 81 4a 40
        E 14 91 4a 64
        E 0 91 42 64
        E 50 81 4a 40
        E 0 81 42 40
        E 14 91 43 64
        E 0 91 47 64
        E 178 81 43 40
        E 0 81 47 40
        E 14 91 43 64
        E 178 81 43 40
        E 14 91 3e 64
        E 178 81 3e 40
        E 14 91 43 64
        E 178 81 43 40
        E 14 91 47 64
        E 114 81 47 40
        E 14 91 43 64
        E 50 81 43 40
        E 14 91 4a 64
        E 0 91 42 64
        E 50 81 4a 40
        E 0 81 42 40
        E 14 91 42 64
        E 0 91 4a 64
        E 50 81 42 40
        E 0 81 4a 40
        E 14 91 4a 64
        E 0 91 42 64
        E 50 81 4a 40
        E 0 81 42 40
        E 14 91 47 64
        E 0 91 43 64
        E 178 81 47 40
        E 0 81 43 40
        E 14 91 43 64
        E 178 81 43 40
        E 14 91 3b 64
        E 0 91 3e 64
        E 178 81 3b 40
        E 0 81 3e 40
        E 14 91 43 64
        E 178 81 43 40
        E 14 91 3b 64
        E 0 91 3e 64
        E 178 81 3b 40
        E 0 81 3e 40
        E 14 91 43 64
        E 178 81 43 40
        E 14 91 3b 64
        E 0 91 3e 64
        E 192 91 43 64
        E 178 81 3b 40
        E 0 81 3e 40
        E 0 81 43 40
        E 14 91 3b 64
        E 0 91 43 64
        E 178 81 3b 40
        E 0 81 43 40
        E 14 b0 7b 00
        GUID {A4C62C1D-1240-9F41-B8D7-1B169DFD3511}
        IGNTEMPO 0 120 4 4
        SRCCOLOR 903
        VELLANE -1 86 6
        CFGEDITVIEW 0 0 51 12 0 0 0 0 0
        KEYSNAP 0 3 102304056070 0 "Natural minor"
        TRACKSEL 226 0 0 ""
        EVTFILTER 0 -1 -1 -1 -1 0 0 0 0 -1 -1 -1 -1 0 -1 0 -1 -1
        CFGEDIT 1 1 0 0 0 0 1 0 1 1 1 0.25 20 47 1280 778 1 0 2 3 0 0 0 0 0 -1 0 0 1 64
      >
    >
    <ITEM
      POSITION 0
      SNAPOFFS 0
      LENGTH 36.5
      LOOP 1
      ALLTAKES 0
      FADEIN 1 0 0 1 0 0
      FADEOUT 1 0 0 1 0 0
      MUTE 0
      SEL 0
      YPOS 0.25 0.125
      IGUID {FDC64573-042A-D147-A64C-E73A5A6422D3}
      IID 3
      NAME "L.H.                 - National_Anthems_-_China.mid"
      VOLPAN 1 0 1 -1
      SOFFS 0 0
      PLAYRATE 1 1 0 -1 0 0.0025
      CHANMODE 0
      TAKECOLOR 26173599
      GUID {ECB5D611-E37A-604C-8F55-7A008F61DC56}
      <SOURCE MIDI
        HASDATA 1 192 QN
        POOLEDEVTS {5BE2B050-40CB-174B-9EBE-701CB68DEF6A}
        <X 0 0
          /wNMLkguICAgICAgICAgICAgICAgIA==
        >
        E 0 92 37 64
        E 0 92 3b 64
        E 0 92 3e 64
        E 274 82 37 40
        E 0 82 3b 40
        E 0 82 3e 40
        E 14 92 3e 64
        E 0 92 3b 64
        E 0 92 37 64
        E 82 82 3e 40
        E 0 82 3b 40
        E 0 82 37 40
        E 14 92 37 64
        E 0 92 40 64
        E 0 92 3c 64
        E 178 82 37 40
        E 0 82 40 40
        E 0 82 3c 40
        E 14 92 3e 64
        E 0 92 3b 64
        E 0 92 37 64
        E 178 82 3e 40
        E 0 82 3b 40
        E 0 82 37 40
        E 14 92 3e 64
        E 0 92 3b 64
        E 0 92 37 64
        E 178 82 3e 40
        E 0 82 3b 40
        E 0 82 37 40
        E 14 92 32 64
        E 0 92 39 64
        E 50 82 32 40
        E 0 82 39 40
        E 14 92 32 64
        E 0 92 39 64
        E 50 82 32 40
        E 0 82 39 40
        E 14 92 39 64
        E 0 92 32 64
        E 50 82 39 40
        E 0 82 32 40
        E 14 92 37 64
        E 0 92 3b 64
        E 370 82 37 40
        E 0 82 3b 40
        E 14 92 37 64
        E 0 92 3b 64
        E 178 82 37 40
        E 0 82 3b 40
        E 14 92 32 64
        E 0 92 39 64
        E 178 82 32 40
        E 0 82 39 40
        E 14 92 37 64
        E 0 92 3b 64
        E 370 82 37 40
        E 0 82 3b 40
        E 14 92 37 64
        E 0 92 2f 64
        E 274 82 37 40
        E 0 82 2f 40
        E 14 92 2f 64
        E 0 92 37 64
        E 82 82 2f 40
        E 0 82 37 40
        E 14 92 2f 64
        E 0 92 37 64
        E 178 82 2f 40
        E 0 82 37 40
        E 14 92 32 64
        E 0 92 39 64
        E 178 82 32 40
        E 0 82 39 40
        E 14 92 37 64
        E 0 92 3b 64
        E 178 82 37 40
        E 0 82 3b 40
        E 14 92 3b 64
        E 0 92 37 64
        E 178 82 3b 40
        E 0 82 37 40
        E 398 92 37 64
        E 0 92 3e 64
        E 0 92 3b 64
        E 178 82 37 40
        E 0 82 3e 40
        E 0 82 3b 40
        E 14 92 3b 64
        E 0 92 3e 64
        E 0 92 37 64
        E 178 82 3b 40
        E 0 82 3e 40
        E 0 82 37 40
        E 14 92 3b 64
        E 0 92 37 64
        E 0 92 3e 64
        E 514 82 3b 40
        E 0 82 37 40
        E 0 82 3e 40
        E 14 92 37 64
        E 0 92 3b 64
        E 34 82 37 40
        E 0 82 3b 40
        E 14 92 32 64
        E 0 92 39 64
        E 178 82 32 40
        E 0 82 39 40
        E 14 92 30 64
        E 0 92 34 64
        E 0 92 39 64
        E 370 82 30 40
        E 0 82 34 40
        E 0 82 39 40
        E 14 92 36 64
        E 0 92 30 64
        E 0 92 39 64
        E 178 82 36 40
        E 0 82 30 40
        E 0 82 39 40
        E 14 92 2f 64
        E 0 92 37 64
        E 178 82 2f 40
        E 0 82 37 40
        E 14 92 32 64
        E 0 92 39 64
        E 178 82 32 40
        E 0 82 39 40
        E 14 92 3b 64
        E 0 92 37 64
        E 178 82 3b 40
        E 0 82 37 40
        E 14 92 2b 64
        E 0 92 32 64
        E 946 82 2b 40
        E 0 82 32 40
        E 206 92 37 64
        E 274 82 37 40
        E 14 92 36 64
        E 82 82 36 40
        E 14 92 34 64
        E 178 82 34 40
        E 14 92 36 64
        E 178 82 36 40
        E 14 92 37 64
        E 562 82 37 40
        E 14 92 36 64
        E 178 82 36 40
        E 14 92 2f 64
        E 0 92 37 64
        E 274 82 2f 40
        E 0 82 37 40
        E 14 92 2f 64
        E 0 92 37 64
        E 82 82 2f 40
        E 0 82 37 40
        E 14 92 2b 64
        E 0 92 37 64
        E 0 92 32 64
        E 274 82 2b 40
        E 0 82 37 40
        E 0 82 32 40
        E 14 92 2b 64
        E 0 92 32 64
        E 0 92 37 64
        E 82 82 2b 40
        E 0 82 32 40
        E 0 82 37 40
        E 14 92 39 64
        E 0 92 32 64
        E 370 82 39 40
        E 0 82 32 40
        E 14 92 3b 64
        E 0 92 3e 64
        E 0 92 37 64
        E 274 82 3b 40
        E 0 82 3e 40
        E 0 82 37 40
        E 14 92 37 64
        E 0 92 3e 64
        E 0 92 3b 64
        E 82 82 37 40
        E 0 82 3e 40
        E 0 82 3b 40
        E 14 92 40 64
        E 0 92 3c 64
        E 0 92 37 64
        E 178 82 40 40
        E 0 82 3c 40
        E 0 82 37 40
        E 14 92 37 64
        E 0 92 3e 64
        E 0 92 3b 64
        E 178 82 37 40
        E 0 82 3e 40
        E 0 82 3b 40
        E 14 92 3b 64
        E 0 92 3e 64
        E 0 92 37 64
        E 178 82 3b 40
        E 0 82 3e 40
        E 0 82 37 40
        E 14 92 32 64
        E 0 92 39 64
        E 50 82 32 40
        E 0 82 39 40
        E 14 92 32 64
        E 0 92 39 64
        E 50 82 32 40
        E 0 82 39 40
        E 14 92 32 64
        E 0 92 39 64
        E 50 82 32 40
        E 0 82 39 40
        E 14 92 3b 64
        E 0 92 37 64
        E 370 82 3b 40
        E 0 82 37 40
        E 14 92 3b 64
        E 0 92 37 64
        E 562 82 3b 40
        E 0 82 37 40
        E 14 92 32 64
        E 0 92 39 64
        E 50 82 32 40
        E 0 82 39 40
        E 14 92 39 64
        E 0 92 32 64
        E 50 82 39 40
        E 0 82 32 40
        E 14 92 32 64
        E 0 92 39 64
        E 50 82 32 40
        E 0 82 39 40
        E 14 92 37 64
        E 0 92 3b 64
        E 370 82 37 40
        E 0 82 3b 40
        E 14 92 37 64
        E 0 92 2b 64
        E 0 92 32 64
        E 370 82 37 40
        E 0 82 2b 40
        E 0 82 32 40
        E 14 92 32 64
        E 0 92 37 64
        E 0 92 2b 64
        E 370 82 32 40
        E 0 82 37 40
        E 0 82 2b 40
        E 14 92 37 64
        E 0 92 32 64
        E 0 92 2b 64
        E 370 82 37 40
        E 0 82 32 40
        E 0 82 2b 40
        E 14 92 37 64
        E 0 92 32 64
        E 0 92 2b 64
        E 178 82 37 40
        E 0 82 32 40
        E 0 82 2b 40
        E 14 b0 7b 00
        GUID {A504E849-C384-5045-A5A2-5CF34FD26673}
        IGNTEMPO 0 120 4 4
        SRCCOLOR 655
        VELLANE -1 86 6
      >
      TAKE
      NAME "L.H.                 - National_Anthems_-_China.mid"
      TAKEVOLPAN 0 1 -1
      SOFFS 0 0
      PLAYRATE 1 1 0 -1 0 0.0025
      CHANMODE 0
      GUID {5C65929D-73B3-1D44-B6E5-3B71BD45085E}
      <SOURCE MIDI
        HASDATA 1 192 QN
        POOLEDEVTS {7A015EC8-F345-CA4D-8C2C-6B2BC20EF3FB}
        <X 0 0
          /wNMLkguICAgICAgICAgICAgICAgIA==
        >
        E 0 92 37 64
        E 0 92 3b 64
        E 0 92 3e 64
        E 274 82 37 40
        E 0 82 3b 40
        E 0 82 3e 40
        E 14 92 3e 64
        E 0 92 3b 64
        E 0 92 37 64
        E 82 82 3e 40
        E 0 82 3b 40
        E 0 82 37 40
        E 14 92 37 64
        E 0 92 40 64
        E 0 92 3c 64
        E 178 82 37 40
        E 0 82 40 40
        E 0 82 3c 40
        E 14 92 3e 64
        E 0 92 3b 64
        E 0 92 37 64
        E 178 82 3e 40
        E 0 82 3b 40
        E 0 82 37 40
        E 14 92 3e 64
        E 0 92 3b 64
        E 0 92 37 64
        E 178 82 3e 40
        E 0 82 3b 40
        E 0 82 37 40
        E 14 92 32 64
        E 0 92 39 64
        E 50 82 32 40
        E 0 82 39 40
        E 14 92 32 64
        E 0 92 39 64
        E 50 82 32 40
        E 0 82 39 40
        E 14 92 39 64
        E 0 92 32 64
        E 50 82 39 40
        E 0 82 32 40
        E 14 92 37 64
        E 0 92 3b 64
        E 370 82 37 40
        E 0 82 3b 40
        E 14 92 37 64
        E 0 92 3b 64
        E 178 82 37 40
        E 0 82 3b 40
        E 14 92 32 64
        E 0 92 39 64
        E 178 82 32 40
        E 0 82 39 40
        E 14 92 37 64
        E 0 92 3b 64
        E 370 82 37 40
        E 0 82 3b 40
        E 14 92 37 64
        E 0 92 2f 64
        E 274 82 37 40
        E 0 82 2f 40
        E 14 92 2f 64
        E 0 92 37 64
        E 82 82 2f 40
        E 0 82 37 40
        E 14 92 2f 64
        E 0 92 37 64
        E 178 82 2f 40
        E 0 82 37 40
        E 14 92 32 64
        E 0 92 39 64
        E 178 82 32 40
        E 0 82 39 40
        E 14 92 37 64
        E 0 92 3b 64
        E 178 82 37 40
        E 0 82 3b 40
        E 14 92 3b 64
        E 0 92 37 64
        E 178 82 3b 40
        E 0 82 37 40
        E 398 92 37 64
        E 0 92 3e 64
        E 0 92 3b 64
        E 178 82 37 40
        E 0 82 3e 40
        E 0 82 3b 40
        E 14 92 3b 64
        E 0 92 3e 64
        E 0 92 37 64
        E 178 82 3b 40
        E 0 82 3e 40
        E 0 82 37 40
        E 14 92 3b 64
        E 0 92 37 64
        E 0 92 3e 64
        E 514 82 3b 40
        E 0 82 37 40
        E 0 82 3e 40
        E 14 92 37 64
        E 0 92 3b 64
        E 34 82 37 40
        E 0 82 3b 40
        E 14 92 32 64
        E 0 92 39 64
        E 178 82 32 40
        E 0 82 39 40
        E 14 92 30 64
        E 0 92 34 64
        E 0 92 39 64
        E 370 82 30 40
        E 0 82 34 40
        E 0 82 39 40
        E 14 92 36 64
        E 0 92 30 64
        E 0 92 39 64
        E 178 82 36 40
        E 0 82 30 40
        E 0 82 39 40
        E 14 92 2f 64
        E 0 92 37 64
        E 178 82 2f 40
        E 0 82 37 40
        E 14 92 32 64
        E 0 92 39 64
        E 178 82 32 40
        E 0 82 39 40
        E 14 92 3b 64
        E 0 92 37 64
        E 178 82 3b 40
        E 0 82 37 40
        E 14 92 2b 64
        E 0 92 32 64
        E 946 82 2b 40
        E 0 82 32 40
        E 206 92 37 64
        E 274 82 37 40
        E 14 92 36 64
        E 82 82 36 40
        E 14 92 34 64
        E 178 82 34 40
        E 14 92 36 64
        E 178 82 36 40
        E 14 92 37 64
        E 562 82 37 40
        E 14 92 36 64
        E 178 82 36 40
        E 14 92 2f 64
        E 0 92 37 64
        E 274 82 2f 40
        E 0 82 37 40
        E 14 92 2f 64
        E 0 92 37 64
        E 82 82 2f 40
        E 0 82 37 40
        E 14 92 2b 64
        E 0 92 37 64
        E 0 92 32 64
        E 274 82 2b 40
        E 0 82 37 40
        E 0 82 32 40
        E 14 92 2b 64
        E 0 92 32 64
        E 0 92 37 64
        E 82 82 2b 40
        E 0 82 32 40
        E 0 82 37 40
        E 14 92 39 64
        E 0 92 32 64
        E 370 82 39 40
        E 0 82 32 40
        E 14 92 3b 64
        E 0 92 3e 64
        E 0 92 37 64
        E 274 82 3b 40
        E 0 82 3e 40
        E 0 82 37 40
        E 14 92 37 64
        E 0 92 3e 64
        E 0 92 3b 64
        E 82 82 37 40
        E 0 82 3e 40
        E 0 82 3b 40
        E 14 92 40 64
        E 0 92 3c 64
        E 0 92 37 64
        E 178 82 40 40
        E 0 82 3c 40
        E 0 82 37 40
        E 14 92 37 64
        E 0 92 3e 64
        E 0 92 3b 64
        E 178 82 37 40
        E 0 82 3e 40
        E 0 82 3b 40
        E 14 92 3b 64
        E 0 92 3e 64
        E 0 92 37 64
        E 178 82 3b 40
        E 0 82 3e 40
        E 0 82 37 40
        E 14 92 32 64
        E 0 92 39 64
        E 50 82 32 40
        E 0 82 39 40
        E 14 92 32 64
        E 0 92 39 64
        E 50 82 32 40
        E 0 82 39 40
        E 14 92 32 64
        E 0 92 39 64
        E 50 82 32 40
        E 0 82 39 40
        E 14 92 3b 64
        E 0 92 37 64
        E 370 82 3b 40
        E 0 82 37 40
        E 14 92 3b 64
        E 0 92 37 64
        E 562 82 3b 40
        E 0 82 37 40
        E 14 92 32 64
        E 0 92 39 64
        E 50 82 32 40
        E 0 82 39 40
        E 14 92 39 64
        E 0 92 32 64
        E 50 82 39 40
        E 0 82 32 40
        E 14 92 32 64
        E 0 92 39 64
        E 50 82 32 40
        E 0 82 39 40
        E 14 92 37 64
        E 0 92 3b 64
        E 370 82 37 40
        E 0 82 3b 40
        E 14 92 37 64
        E 0 92 2b 64
        E 0 92 32 64
        E 370 82 37 40
        E 0 82 2b 40
        E 0 82 32 40
        E 14 92 32 64
        E 0 92 37 64
        E 0 92 2b 64
        E 370 82 32 40
        E 0 82 37 40
        E 0 82 2b 40
        E 14 92 37 64
        E 0 92 32 64
        E 0 92 2b 64
        E 370 82 37 40
        E 0 82 32 40
        E 0 82 2b 40
        E 14 92 37 64
        E 0 92 32 64
        E 0 92 2b 64
        E 178 82 37 40
        E 0 82 32 40
        E 0 82 2b 40
        E 14 b0 7b 00
        GUID {F89CF315-DF78-0741-98C4-1907151011DB}
        IGNTEMPO 0 120 4 4
        SRCCOLOR 904
        VELLANE -1 86 6
      >
    >
    <ITEM
      POSITION 0
      SNAPOFFS 0
      LENGTH 36.5
      LOOP 1
      ALLTAKES 0
      FADEIN 1 0 0 1 0 0
      FADEOUT 1 0 0 1 0 0
      MUTE 0
      SEL 0
      YPOS 0.375 0.125
      IGUID {92D0973F-6F26-1D41-A312-20C0A4BC9347}
      IID 4
      NAME "BASS                 - National_Anthems_-_China.mid"
      VOLPAN 1 0 1 -1
      SOFFS 0 0
      PLAYRATE 1 1 0 -1 0 0.0025
      CHANMODE 0
      TAKECOLOR 26173599
      GUID {37E4D3E6-5061-6942-AB76-360257722074}
      <SOURCE MIDI
        HASDATA 1 192 QN
        POOLEDEVTS {53C730ED-E2A6-3048-AFFB-22B203C3069E}
        <X 0 0
          /wNCQVNTICAgICAgICAgICAgICAgIA==
        >
        e 0 90 2b 64
        e 274 80 2b 40
        e 14 90 2b 64
        e 82 80 2b 40
        e 14 90 2b 64
        e 178 80 2b 40
        e 14 90 2b 64
        e 178 80 2b 40
        e 14 90 2b 64
        e 178 80 2b 40
        e 14 90 26 64
        e 50 80 26 40
        e 14 90 26 64
        e 50 80 26 40
        e 14 90 26 64
        e 50 80 26 40
        e 14 90 2b 64
        e 370 80 2b 40
        e 14 90 2b 64
        e 178 80 2b 40
        e 14 90 26 64
        e 178 80 26 40
        e 14 90 2b 64
        e 178 80 2b 40
        e 206 90 2f 64
        e 274 80 2f 40
        e 14 90 2f 64
        e 82 80 2f 40
        e 14 90 2f 64
        e 178 80 2f 40
        e 14 90 32 64
        e 178 80 32 40
        e 14 90 37 64
        e 178 80 37 40
        e 14 90 37 64
        e 178 80 37 40
        e 398 90 2b 64
        e 178 80 2b 40
        e 14 90 2b 64
        e 178 80 2b 40
        e 14 90 2b 64
        e 370 80 2b 40
        e 206 90 26 64
        e 178 80 26 40
        e 14 90 24 64
        e 370 80 24 40
        e 14 90 30 64
        e 178 80 30 40
        e 14 90 2f 64
        e 178 80 2f 40
        e 14 90 32 64
        e 178 80 32 40
        e 14 90 37 64
        e 178 80 37 40
        e 14 90 2b 64
        e 370 80 2b 40
        e 14 90 2b 64
        e 370 80 2b 40
        e 14 90 2b 64
        e 178 80 2b 40
        e 206 90 37 64
        e 274 80 37 40
        e 14 90 36 64
        e 82 80 36 40
        e 14 90 34 64
        e 178 80 34 40
        e 14 90 36 64
        e 178 80 36 40
        e 14 90 37 64
        e 562 80 37 40
        e 14 90 36 64
        e 178 80 36 40
        e 14 90 2f 64
        e 274 80 2f 40
        e 14 90 2f 64
        e 82 80 2f 40
        e 14 90 2b 64
        e 274 80 2b 40
        e 14 90 2b 64
        e 82 80 2b 40
        e 14 90 32 64
        e 370 80 32 40
        e 14 90 37 64
        e 274 80 37 40
        e 14 90 37 64
        e 82 80 37 40
        e 14 90 37 64
        e 178 80 37 40
        e 14 90 37 64
        e 178 80 37 40
        e 14 90 37 64
        e 178 80 37 40
        e 14 90 32 64
        e 50 80 32 40
        e 14 90 32 64
        e 50 80 32 40
        e 14 90 32 64
        e 50 80 32 40
        e 14 90 2b 64
        e 370 80 2b 40
        e 14 90 2b 64
        e 562 80 2b 40
        e 14 90 32 64
        e 114 80 32 40
        e 14 90 32 64
        e 50 80 32 40
        e 14 90 37 64
        e 370 80 37 40
        e 14 90 2b 64
        e 370 80 2b 40
        e 14 90 2b 64
        e 370 80 2b 40
        e 14 90 2b 64
        e 370 80 2b 40
        e 14 90 2b 64
        e 178 80 2b 40
        E 14 b0 7b 00
        GUID {D0447611-4F1D-C646-A36E-1EE83C01B223}
        IGNTEMPO 0 120 4 4
        SRCCOLOR 656
        VELLANE -1 86 6
        CFGEDITVIEW 2180.430894 1.497595 33 20 0 0 0 0 0
        KEYSNAP 0 3 102304056070 0 "Natural minor"
        TRACKSEL 226 0 0 ""
        EVTFILTER 16 -1 -1 -1 -1 4 1 0 0 -1 -1 -1 -1 0 -1 0 -1 -1
        CFGEDIT 1 0 0 0 0 0 1 0 5 1 1 0.25 16 63 1280 778 0 0 2 3 0 0 0 0 0 0.5 0 0 1 64
      >
      TAKE
      NAME "BASS                 - National_Anthems_-_China.mid"
      TAKEVOLPAN 0 1 -1
      SOFFS 0 0
      PLAYRATE 1 1 0 -1 0 0.0025
      CHANMODE 0
      GUID {4D491F11-7AD5-8A46-8C8F-949053AD6BA8}
      <SOURCE MIDI
        HASDATA 1 192 QN
        POOLEDEVTS {292E2036-184F-A042-BD5D-015D9A8B7704}
        <X 0 0
          /wNCQVNTICAgICAgICAgICAgICAgIA==
        >
        e 0 90 2b 64
        e 274 80 2b 40
        e 14 90 2b 64
        e 82 80 2b 40
        e 14 90 2b 64
        e 178 80 2b 40
        e 14 90 2b 64
        e 178 80 2b 40
        e 14 90 2b 64
        e 178 80 2b 40
        e 14 90 26 64
        e 50 80 26 40
        e 14 90 26 64
        e 50 80 26 40
        e 14 90 26 64
        e 50 80 26 40
        e 14 90 2b 64
        e 370 80 2b 40
        e 14 90 2b 64
        e 178 80 2b 40
        e 14 90 26 64
        e 178 80 26 40
        e 14 90 2b 64
        e 178 80 2b 40
        e 206 90 2f 64
        e 274 80 2f 40
        e 14 90 2f 64
        e 82 80 2f 40
        e 14 90 2f 64
        e 178 80 2f 40
        e 14 90 32 64
        e 178 80 32 40
        e 14 90 37 64
        e 178 80 37 40
        e 14 90 37 64
        e 178 80 37 40
        e 398 90 2b 64
        e 178 80 2b 40
        e 14 90 2b 64
        e 178 80 2b 40
        e 14 90 2b 64
        e 370 80 2b 40
        e 206 90 26 64
        e 178 80 26 40
        e 14 90 24 64
        e 370 80 24 40
        e 14 90 30 64
        e 178 80 30 40
        e 14 90 2f 64
        e 178 80 2f 40
        e 14 90 32 64
        e 178 80 32 40
        e 14 90 37 64
        e 178 80 37 40
        e 14 90 2b 64
        e 370 80 2b 40
        e 14 90 2b 64
        e 370 80 2b 40
        e 14 90 2b 64
        e 178 80 2b 40
        e 206 90 37 64
        e 274 80 37 40
        e 14 90 36 64
        e 82 80 36 40
        e 14 90 34 64
        e 178 80 34 40
        e 14 90 36 64
        e 178 80 36 40
        e 14 90 37 64
        e 562 80 37 40
        e 14 90 36 64
        e 178 80 36 40
        e 14 90 2f 64
        e 274 80 2f 40
        e 14 90 2f 64
        e 82 80 2f 40
        e 14 90 2b 64
        e 274 80 2b 40
        e 14 90 2b 64
        e 82 80 2b 40
        e 14 90 32 64
        e 370 80 32 40
        e 14 90 37 64
        e 274 80 37 40
        e 14 90 37 64
        e 82 80 37 40
        e 14 90 37 64
        e 178 80 37 40
        e 14 90 37 64
        e 178 80 37 40
        e 14 90 37 64
        e 178 80 37 40
        e 14 90 32 64
        e 50 80 32 40
        e 14 90 32 64
        e 50 80 32 40
        e 14 90 32 64
        e 50 80 32 40
        e 14 90 2b 64
        e 370 80 2b 40
        e 14 90 2b 64
        e 562 80 2b 40
        e 14 90 32 64
        e 114 80 32 40
        e 14 90 32 64
        e 50 80 32 40
        e 14 90 37 64
        e 370 80 37 40
        e 14 90 2b 64
        e 370 80 2b 40
        e 14 90 2b 64
        e 370 80 2b 40
        e 14 90 2b 64
        e 370 80 2b 40
        e 14 90 2b 64
        e 178 80 2b 40
        E 14 b0 7b 00
        GUID {8345A1AF-DE69-5F49-B0E1-ECA80923C99D}
        IGNTEMPO 0 120 4 4
        SRCCOLOR 901
        VELLANE -1 86 6
        CFGEDITVIEW 0 0 33 20 0 0 0 0 0
        KEYSNAP 0 3 102304056070 0 "Natural minor"
        TRACKSEL 226 0 0 ""
        EVTFILTER 16 -1 -1 -1 -1 4 1 0 0 -1 -1 -1 -1 0 -1 0 -1 -1
        CFGEDIT 1 0 0 0 0 0 1 0 5 1 1 0.25 16 63 1280 778 0 0 2 3 0 0 0 0 0 0.5 0 0 1 64
      >
    >
    <ITEM
      POSITION 0
      SNAPOFFS 0
      LENGTH 30.5
      LOOP 1
      ALLTAKES 0
      FADEIN 1 0 0 1 0 0
      FADEOUT 1 0 0 1 0 0
      MUTE 0
      SEL 0
      YPOS 0 0.125
      IGUID {F7AEF0CE-870D-8543-9488-94D4E6AC8CC5}
      IID 1
      NAME "MELODY               - National_Anthems_-_China.mid"
      VOLPAN 1 0 1 -1
      SOFFS 6 12
      PLAYRATE 1 1 0 -1 0 0.0025
      CHANMODE 0
      TAKECOLOR 26173599
      GUID {85ABEF63-7DAC-D34E-84B7-E3E61B08F2EF}
      <SOURCE MIDI
        HASDATA 1 192 QN
        POOLEDEVTS {AE8A36AF-1EFD-134B-BD95-4112B780EF6A}
        <X 0 0
          /wNNRUxPRFkgICAgICAgICAgICAgIA==
        >
        <X 0 0
          /wFUSEUgU09GVFdBUkUgVE9PTFdPUktT
        >
        <X 0 0
          /wFXT1JMRCBBVExBUw==
        >
        <X 0 0
          /wFNdWx0aU1lZGlhIFdpbmRvd3MgVmVyc2lvbg==
        >
        <X 0 0
          /wFDb3VudHJ5OiBDaGluYQ==
        >
        <X 0 0
          /wFBbnRoZW0gTmFtZTo=
        >
        <X 0 0
          /wEocCkgKGMpIFRoZSBTb2Z0d2FyZSBUb29sd29ya3MgMTk5MQ==
        >
        <X 0 0
          /wFub3Rlczo=
        >
        <X 0 0
          /wFkYXRlOiA3LTE2LTkx
        >
        <X 0 0
          /wFlZGl0IGRhdGU6IDktMS05MQ==
        >
        <X 0 0
          /wFCUE06
        >
        <X 0 0
          /wE/PSBubyBtYXJraW5nICE9IGJwbSBwcm92aWRlZA==
        >
        <X 0 0
          /wFUaGlzIGZpbGUgcHJvdmlkZWQgYnk6
        >
        <X 0 0
          /wFSb2IgV2FsbGFjZSBNdXNpYw==
        >
        <X 0 0
          /wEoNjAyKSA5NzgtMDgzNQ==
        >
        <X 0 0
          /wFuZXcgIzogezYwMn0gOTc5LTYyMDE=
        >
        <X 0 0
          /wFNVUxUSU1FRElBIFdJTkRPV1MgVkVSU0lPTg==
        >
        E 2208 90 3e 7f
        E 82 80 3e 40
        E 14 90 43 7f
        E 274 80 43 40
        E 14 90 43 7f
        E 82 80 43 40
        E 14 90 43 7f
        E 130 80 43 40
        E 14 90 43 7f
        E 34 80 43 40
        E 14 90 3e 7f
        E 82 80 3e 40
        E 14 90 40 7f
        E 34 80 40 40
        E 14 90 42 7f
        E 34 80 42 40
        E 14 90 43 7f
        E 178 80 43 40
        E 14 90 43 7f
        E 178 80 43 40
        E 110 90 47 7f
        E 82 80 47 40
        E 14 90 43 7f
        E 82 80 43 40
        E 14 90 45 7f
        E 34 80 45 40
        E 14 90 47 7f
        E 34 80 47 40
        E 14 90 4a 7f
        E 178 80 4a 40
        E 14 90 4a 7f
        E 178 80 4a 40
        E 14 90 47 7f
        E 130 80 47 40
        E 14 90 47 7f
        E 34 80 47 40
        E 14 90 43 7f
        E 130 80 43 40
        E 14 90 47 7f
        E 34 80 47 40
        E 14 90 4a 7f
        E 130 80 4a 40
        E 14 90 47 7f
        E 34 80 47 40
        E 14 90 45 7f
        E 178 80 45 40
        E 14 90 45 7f
        E 370 80 45 40
        E 14 90 4c 7f
        E 178 80 4c 40
        E 14 90 4a 7f
        E 178 80 4a 40
        E 14 90 45 7f
        E 178 80 45 40
        E 14 90 47 7f
        E 178 80 47 40
        E 14 90 4a 7f
        E 82 80 4a 40
        E 14 90 47 7f
        E 82 80 47 40
        E 110 90 4a 7f
        E 82 80 4a 40
        E 14 90 47 7f
        E 82 80 47 40
        E 14 90 45 7f
        E 34 80 45 40
        E 14 90 47 7f
        E 34 80 47 40
        E 14 90 43 7f
        E 178 80 43 40
        E 14 90 47 7f
        E 178 80 47 40
        E 206 90 3e 7f
        E 130 80 3e 40
        E 14 90 40 7f
        E 34 80 40 40
        E 14 90 43 7f
        E 82 80 43 40
        E 14 90 43 7f
        E 82 80 43 40
        E 14 90 47 7f
        E 130 80 47 40
        E 14 90 47 7f
        E 34 80 47 40
        E 14 90 4a 7f
        E 82 80 4a 40
        E 14 90 4a 7f
        E 82 80 4a 40
        E 14 90 45 7f
        E 82 80 45 40
        E 14 90 45 7f
        E 34 80 45 40
        E 14 90 45 7f
        E 34 80 45 40
        E 14 90 40 7f
        E 178 80 40 40
        E 14 90 45 7f
        E 274 80 45 40
        E 14 90 3e 7f
        E 82 80 3e 40
        E 14 90 43 7f
        E 274 80 43 40
        E 14 90 43 7f
        E 82 80 43 40
        E 14 90 47 7f
        E 274 80 47 40
        E 14 90 47 7f
        E 82 80 47 40
        E 14 90 4a 7f
        E 370 80 4a 40
        E 14 90 43 7f
        E 130 80 43 40
        E 14 90 47 7f
        E 34 80 47 40
        E 14 90 4a 7f
        E 82 80 4a 40
        E 14 90 4a 7f
        E 82 80 4a 40
        E 14 90 4c 7f
        E 178 80 4c 40
        E 14 90 4a 7f
        E 178 80 4a 40
        E 14 90 47 7f
        E 128 90 43 7f
        E 2 80 47 40
        E 32 80 43 40
        E 30 90 4a 7f
        E 34 80 4a 40
        E 30 90 4a 7f
        E 34 80 4a 40
        E 30 90 4a 7f
        E 34 80 4a 40
        E 30 90 47 7f
        E 178 80 47 40
        E 14 90 43 7f
        E 178 80 43 40
        E 14 90 3e 7f
        E 178 80 3e 40
        E 14 90 43 7f
        E 178 80 43 40
        E 14 90 47 7f
        E 128 90 43 7f
        E 2 80 47 40
        E 32 80 43 40
        E 30 90 4a 7f
        E 34 80 4a 40
        E 30 90 4a 7f
        E 34 80 4a 40
        E 30 90 4a 7f
        E 34 80 4a 40
        E 30 90 47 7f
        E 178 80 47 40
        E 14 90 43 7f
        E 178 80 43 40
        E 14 90 3e 7f
        E 178 80 3e 40
        E 14 90 43 7f
        E 178 80 43 40
        E 14 90 3e 7f
        E 178 80 3e 40
        E 14 90 43 7f
        E 178 80 43 40
        E 14 90 3e 7f
        E 178 80 3e 40
        E 14 90 43 7f
        E 178 80 43 40
        E 14 90 43 7f
        E 178 80 43 40
        E 14 b0 7b 00
        GUID {99B4821B-AF09-9844-8525-1007B8593884}
        IGNTEMPO 0 120 4 4
        SRCCOLOR 653
        VELLANE -1 86 6
      >
      TAKE
      NAME "MELODY               - National_Anthems_-_China.mid"
      TAKEVOLPAN 0 1 -1
      SOFFS 6 12
      PLAYRATE 1 1 0 -1 0 0.0025
      CHANMODE 0
      GUID {0DDE34C9-5D0A-814B-A3B8-6180A795FA10}
      <SOURCE MIDI
        HASDATA 1 192 QN
        POOLEDEVTS {1B86DC23-3545-0A47-98A9-116B44056D31}
        <X 0 0
          /wNNRUxPRFkgICAgICAgICAgICAgIA==
        >
        <X 0 0
          /wFUSEUgU09GVFdBUkUgVE9PTFdPUktT
        >
        <X 0 0
          /wFXT1JMRCBBVExBUw==
        >
        <X 0 0
          /wFNdWx0aU1lZGlhIFdpbmRvd3MgVmVyc2lvbg==
        >
        <X 0 0
          /wFDb3VudHJ5OiBDaGluYQ==
        >
        <X 0 0
          /wFBbnRoZW0gTmFtZTo=
        >
        <X 0 0
          /wEocCkgKGMpIFRoZSBTb2Z0d2FyZSBUb29sd29ya3MgMTk5MQ==
        >
        <X 0 0
          /wFub3Rlczo=
        >
        <X 0 0
          /wFkYXRlOiA3LTE2LTkx
        >
        <X 0 0
          /wFlZGl0IGRhdGU6IDktMS05MQ==
        >
        <X 0 0
          /wFCUE06
        >
        <X 0 0
          /wE/PSBubyBtYXJraW5nICE9IGJwbSBwcm92aWRlZA==
        >
        <X 0 0
          /wFUaGlzIGZpbGUgcHJvdmlkZWQgYnk6
        >
        <X 0 0
          /wFSb2IgV2FsbGFjZSBNdXNpYw==
        >
        <X 0 0
          /wEoNjAyKSA5NzgtMDgzNQ==
        >
        <X 0 0
          /wFuZXcgIzogezYwMn0gOTc5LTYyMDE=
        >
        <X 0 0
          /wFNVUxUSU1FRElBIFdJTkRPV1MgVkVSU0lPTg==
        >
        E 2208 90 3e 7f
        E 82 80 3e 40
        E 14 90 43 7f
        E 274 80 43 40
        E 14 90 43 7f
        E 82 80 43 40
        E 14 90 43 7f
        E 130 80 43 40
        E 14 90 43 7f
        E 34 80 43 40
        E 14 90 3e 7f
        E 82 80 3e 40
        E 14 90 40 7f
        E 34 80 40 40
        E 14 90 42 7f
        E 34 80 42 40
        E 14 90 43 7f
        E 178 80 43 40
        E 14 90 43 7f
        E 178 80 43 40
        E 110 90 47 7f
        E 82 80 47 40
        E 14 90 43 7f
        E 82 80 43 40
        E 14 90 45 7f
        E 34 80 45 40
        E 14 90 47 7f
        E 34 80 47 40
        E 14 90 4a 7f
        E 178 80 4a 40
        E 14 90 4a 7f
        E 178 80 4a 40
        E 14 90 47 7f
        E 130 80 47 40
        E 14 90 47 7f
        E 34 80 47 40
        E 14 90 43 7f
        E 130 80 43 40
        E 14 90 47 7f
        E 34 80 47 40
        E 14 90 4a 7f
        E 130 80 4a 40
        E 14 90 47 7f
        E 34 80 47 40
        E 14 90 45 7f
        E 178 80 45 40
        E 14 90 45 7f
        E 370 80 45 40
        E 14 90 4c 7f
        E 178 80 4c 40
        E 14 90 4a 7f
        E 178 80 4a 40
        E 14 90 45 7f
        E 178 80 45 40
        E 14 90 47 7f
        E 178 80 47 40
        E 14 90 4a 7f
        E 82 80 4a 40
        E 14 90 47 7f
        E 82 80 47 40
        E 110 90 4a 7f
        E 82 80 4a 40
        E 14 90 47 7f
        E 82 80 47 40
        E 14 90 45 7f
        E 34 80 45 40
        E 14 90 47 7f
        E 34 80 47 40
        E 14 90 43 7f
        E 178 80 43 40
        E 14 90 47 7f
        E 178 80 47 40
        E 206 90 3e 7f
        E 130 80 3e 40
        E 14 90 40 7f
        E 34 80 40 40
        E 14 90 43 7f
        E 82 80 43 40
        E 14 90 43 7f
        E 82 80 43 40
        E 14 90 47 7f
        E 130 80 47 40
        E 14 90 47 7f
        E 34 80 47 40
        E 14 90 4a 7f
        E 82 80 4a 40
        E 14 90 4a 7f
        E 82 80 4a 40
        E 14 90 45 7f
        E 82 80 45 40
        E 14 90 45 7f
        E 34 80 45 40
        E 14 90 45 7f
        E 34 80 45 40
        E 14 90 40 7f
        E 178 80 40 40
        E 14 90 45 7f
        E 274 80 45 40
        E 14 90 3e 7f
        E 82 80 3e 40
        E 14 90 43 7f
        E 274 80 43 40
        E 14 90 43 7f
        E 82 80 43 40
        E 14 90 47 7f
        E 274 80 47 40
        E 14 90 47 7f
        E 82 80 47 40
        E 14 90 4a 7f
        E 370 80 4a 40
        E 14 90 43 7f
        E 130 80 43 40
        E 14 90 47 7f
        E 34 80 47 40
        E 14 90 4a 7f
        E 82 80 4a 40
        E 14 90 4a 7f
        E 82 80 4a 40
        E 14 90 4c 7f
        E 178 80 4c 40
        E 14 90 4a 7f
        E 178 80 4a 40
        E 14 90 47 7f
        E 128 90 43 7f
        E 2 80 47 40
        E 32 80 43 40
        E 30 90 4a 7f
        E 34 80 4a 40
        E 30 90 4a 7f
        E 34 80 4a 40
        E 30 90 4a 7f
        E 34 80 4a 40
        E 30 90 47 7f
        E 178 80 47 40
        E 14 90 43 7f
        E 178 80 43 40
        E 14 90 3e 7f
        E 178 80 3e 40
        E 14 90 43 7f
        E 178 80 43 40
        E 14 90 47 7f
        E 128 90 43 7f
        E 2 80 47 40
        E 32 80 43 40
        E 30 90 4a 7f
        E 34 80 4a 40
        E 30 90 4a 7f
        E 34 80 4a 40
        E 30 90 4a 7f
        E 34 80 4a 40
        E 30 90 47 7f
        E 178 80 47 40
        E 14 90 43 7f
        E 178 80 43 40
        E 14 90 3e 7f
        E 178 80 3e 40
        E 14 90 43 7f
        E 178 80 43 40
        E 14 90 3e 7f
        E 178 80 3e 40
        E 14 90 43 7f
        E 178 80 43 40
        E 14 90 3e 7f
        E 178 80 3e 40
        E 14 90 43 7f
        E 178 80 43 40
        E 14 90 43 7f
        E 178 80 43 40
        E 14 b0 7b 00
        GUID {5710B420-4C96-134E-87E6-DD57F48DC2C8}
        IGNTEMPO 0 120 4 4
        SRCCOLOR 902
        VELLANE -1 86 6
      >
    >
  >
  <TRACK {4A6CD977-ADCC-3A4D-927C-BB2CEF4B0809}
    NAME "vst Gladiator"
    PEAKCOL 27222112
    BEAT -1
    AUTOMODE 0
    VOLPAN 0.46976747615165 0 -1 -1 1
    MUTESOLO 0 0 0
    IPHASE 0
    ISBUS 0 0
    BUSCOMP 2 0
    SHOWINMIX 1 0.6667 0.5 1 0.5 -1 -1 -1
    FREEMODE 0
    SEL 0
    REC 0 0 0 0 0 0 0
    VU 2
    TRACKHEIGHT 172 0
    INQ 0 0 0 0.5 100 0 0 100
    NCHAN 2
    FX 1
    TRACKID {4A6CD977-ADCC-3A4D-927C-BB2CEF4B0809}
    PERF 0
    MIDIOUT -1
    MAINSEND 1 0
    <FXCHAIN
      SHOW 0
      LASTSEL 0
      DOCKED 0
      BYPASS 0 0 0
      <VST "VSTi: Gladiator (Tone2.com)" Gladiator.vst 0 "" 1412581196
        TEcyVO5e7f4AAAAAAgAAAAEAAAAAAAAAAgAAAAAAAABaBAAAAQAAAAAAEABDY25LAAAAYEZ4Q2sAAAABVDJHTAAAAAEAAAEHSW5pdAAAAAAAAAAAAAAAAAAAAAAAAAAA
        AAAAAD3MzM08zMzNPDQ5WD24UfQ9edsjP4AAADvEm6Y9vnbJP4AAADvEm6YAAAAAPqZmZj49cKQ/gAAAPsUeuT8AAAA/AAAAAAAAAD1987Y90OVgPLxqfz9FHrgAAAAA
        P4AAADw0OVg9kWhzPvXCjztEm6Y9uFHoPr1wpD49cKQ/gAAAPwAAAD8D1ws/AAAAAAAAAAAAAAA/AAAAPwAAAD8AAAA+2ZmaPwAAAAAAAAA75WBCPbhR6wAAAAA+TbXE
        O0Sbpj9LhR4AAAAAAAAAAD7rhSA+lHrhPWFHsD7PXCg/HrhSPj1wpj8AAAA/AAAAAAAAAAAAAAA/AAAAAAAAAAAAAAA/gAAAP4AAAAAAAAA/EeuFPwAAAD8AAAA/AAAA
        PwAAAAAAAAA/AAAAPwAAAD8AAAAAAAAAPwAAAD8AAAA/AAAAAAAAADqDEm8/UKPXAAAAAD+AAAAAAAAAOoMSbz8AAAAAAAAAAAAAAAAAAAA/AAAAAAAAAD+AAAAAAAAA
        P4AAAAAAAAA/AAAAPwAAAD8AAAA/AAAAPwAAAD8AAAA/AAAAPwAAAD8AAAA/AAAAPwAAAD8R64Y8o9cKOoMSbzxEm6YAAAAAAAAAAAAAAAA8vGp/AAAAAAAAAAAAAAAA
        AAAAAAAAAAAAAAAAAAAAAAAAAAAAAAAAAAAAAAAAAAAAAAAAAAAAAAAAAAAAAAAAAAAAADwTdLwAAAAAPDQ5WAAAAAA8E3S8AAAAADw0OVgAAAAAPBN0vAAAAAA8NDlY
        AAAAADwTdLwAAAAAPDQ5WAAAAAA8ZWBCPYcrAjxlYEI7AxJvPYk3TDsDEm88tDlYPItDljyTdLw9VP30PReNUDzMzM0+gAAAP3LCNT8AAAA/Uae5PzCNPj8csI0AAAAA
        OwMSbzqDEm8AAAAAAAAAAAAAAAA/AAAAOoMSbztEm6Y/gAAAAAAAAD+AAAAAAAAAP4AAAAAAAAAAAAAAAAAAAAAAAAA/gAAAAAAAAD8AAAAAAAAAPwAAAD8FHrg/AAAA
        P4AAAD8AAAA/AAAAPwAAAD+AAAA/gAAAAAAAAAAAAAAAAAAAPwAAAD+AAAA/AAAAAAAAAD69cKQAAAAAAAAAAD+AAAA/gAAAPyPXCj+AAAAAAAAAAAAAAD+AAAA/AAAA
        AAAAAAAAAAAAAAAAAAAAAAAAAAAAAAAAAAAAAAAAAAAAAAAAAAAAAAAAAAAAAAAAPwAAAD8AAAA/AAAAPwAAAD8AAAA/AAAAAAAAAAAAAAA/gAAAAAAAAAAAAAAAAAAA
        AAAAAAAAAAAAAAAAAAAAAAAAAAAAAAAAAAAAAAAAAAAAAAAAAAAAAAAAAAAAAAAAAAAAAAAAAAAAAAAAAAAAAAAAAAAAAAAAAAAAAAAAAAAAAAAAAAAAAAAAAAAAAAAA
        AACqq6ytAAAQAAAA
      >
      FLOATPOS 500 379 987 799
      FXID {532372E3-5B0D-9345-A9C8-98A8EBAF9A7E}
      WAK 0
    >
    <ITEM
      POSITION 0
      SNAPOFFS 0
      LENGTH 30.5
      LOOP 1
      ALLTAKES 0
      FADEIN 1 0 0 1 0 0
      FADEOUT 1 0 0 1 0 0
      MUTE 0
      SEL 0
      YPOS 0 0.125
      IGUID {3FA7882D-2525-7D42-AE3D-1A2E2D1DDD1A}
      IID 1
      NAME "MELODY               - National_Anthems_-_China.mid"
      VOLPAN 1 0 1 -1
      SOFFS 6 12
      PLAYRATE 1 1 0 -1 0 0.0025
      CHANMODE 0
      TAKECOLOR 26173599
      GUID {6BDEFE0E-7FE2-9C47-8A57-5819DB2D41CF}
      <SOURCE MIDI
        HASDATA 1 192 QN
        POOLEDEVTS {A9CFCA12-2989-874B-AE5D-755047F7B190}
        <X 0 0
          /wNNRUxPRFkgICAgICAgICAgICAgIA==
        >
        <X 0 0
          /wFUSEUgU09GVFdBUkUgVE9PTFdPUktT
        >
        <X 0 0
          /wFXT1JMRCBBVExBUw==
        >
        <X 0 0
          /wFNdWx0aU1lZGlhIFdpbmRvd3MgVmVyc2lvbg==
        >
        <X 0 0
          /wFDb3VudHJ5OiBDaGluYQ==
        >
        <X 0 0
          /wFBbnRoZW0gTmFtZTo=
        >
        <X 0 0
          /wEocCkgKGMpIFRoZSBTb2Z0d2FyZSBUb29sd29ya3MgMTk5MQ==
        >
        <X 0 0
          /wFub3Rlczo=
        >
        <X 0 0
          /wFkYXRlOiA3LTE2LTkx
        >
        <X 0 0
          /wFlZGl0IGRhdGU6IDktMS05MQ==
        >
        <X 0 0
          /wFCUE06
        >
        <X 0 0
          /wE/PSBubyBtYXJraW5nICE9IGJwbSBwcm92aWRlZA==
        >
        <X 0 0
          /wFUaGlzIGZpbGUgcHJvdmlkZWQgYnk6
        >
        <X 0 0
          /wFSb2IgV2FsbGFjZSBNdXNpYw==
        >
        <X 0 0
          /wEoNjAyKSA5NzgtMDgzNQ==
        >
        <X 0 0
          /wFuZXcgIzogezYwMn0gOTc5LTYyMDE=
        >
        <X 0 0
          /wFNVUxUSU1FRElBIFdJTkRPV1MgVkVSU0lPTg==
        >
        E 2208 90 3e 7f
        E 82 80 3e 40
        E 14 90 43 7f
        E 274 80 43 40
        E 14 90 43 7f
        E 82 80 43 40
        E 14 90 43 7f
        E 130 80 43 40
        E 14 90 43 7f
        E 34 80 43 40
        E 14 90 3e 7f
        E 82 80 3e 40
        E 14 90 40 7f
        E 34 80 40 40
        E 14 90 42 7f
        E 34 80 42 40
        E 14 90 43 7f
        E 178 80 43 40
        E 14 90 43 7f
        E 178 80 43 40
        E 110 90 47 7f
        E 82 80 47 40
        E 14 90 43 7f
        E 82 80 43 40
        E 14 90 45 7f
        E 34 80 45 40
        E 14 90 47 7f
        E 34 80 47 40
        E 14 90 4a 7f
        E 178 80 4a 40
        E 14 90 4a 7f
        E 178 80 4a 40
        E 14 90 47 7f
        E 130 80 47 40
        E 14 90 47 7f
        E 34 80 47 40
        E 14 90 43 7f
        E 130 80 43 40
        E 14 90 47 7f
        E 34 80 47 40
        E 14 90 4a 7f
        E 130 80 4a 40
        E 14 90 47 7f
        E 34 80 47 40
        E 14 90 45 7f
        E 178 80 45 40
        E 14 90 45 7f
        E 370 80 45 40
        E 14 90 4c 7f
        E 178 80 4c 40
        E 14 90 4a 7f
        E 178 80 4a 40
        E 14 90 45 7f
        E 178 80 45 40
        E 14 90 47 7f
        E 178 80 47 40
        E 14 90 4a 7f
        E 82 80 4a 40
        E 14 90 47 7f
        E 82 80 47 40
        E 110 90 4a 7f
        E 82 80 4a 40
        E 14 90 47 7f
        E 82 80 47 40
        E 14 90 45 7f
        E 34 80 45 40
        E 14 90 47 7f
        E 34 80 47 40
        E 14 90 43 7f
        E 178 80 43 40
        E 14 90 47 7f
        E 178 80 47 40
        E 206 90 3e 7f
        E 130 80 3e 40
        E 14 90 40 7f
        E 34 80 40 40
        E 14 90 43 7f
        E 82 80 43 40
        E 14 90 43 7f
        E 82 80 43 40
        E 14 90 47 7f
        E 130 80 47 40
        E 14 90 47 7f
        E 34 80 47 40
        E 14 90 4a 7f
        E 82 80 4a 40
        E 14 90 4a 7f
        E 82 80 4a 40
        E 14 90 45 7f
        E 82 80 45 40
        E 14 90 45 7f
        E 34 80 45 40
        E 14 90 45 7f
        E 34 80 45 40
        E 14 90 40 7f
        E 178 80 40 40
        E 14 90 45 7f
        E 274 80 45 40
        E 14 90 3e 7f
        E 82 80 3e 40
        E 14 90 43 7f
        E 274 80 43 40
        E 14 90 43 7f
        E 82 80 43 40
        E 14 90 47 7f
        E 274 80 47 40
        E 14 90 47 7f
        E 82 80 47 40
        E 14 90 4a 7f
        E 370 80 4a 40
        E 14 90 43 7f
        E 130 80 43 40
        E 14 90 47 7f
        E 34 80 47 40
        E 14 90 4a 7f
        E 82 80 4a 40
        E 14 90 4a 7f
        E 82 80 4a 40
        E 14 90 4c 7f
        E 178 80 4c 40
        E 14 90 4a 7f
        E 178 80 4a 40
        E 14 90 47 7f
        E 128 90 43 7f
        E 2 80 47 40
        E 32 80 43 40
        E 30 90 4a 7f
        E 34 80 4a 40
        E 30 90 4a 7f
        E 34 80 4a 40
        E 30 90 4a 7f
        E 34 80 4a 40
        E 30 90 47 7f
        E 178 80 47 40
        E 14 90 43 7f
        E 178 80 43 40
        E 14 90 3e 7f
        E 178 80 3e 40
        E 14 90 43 7f
        E 178 80 43 40
        E 14 90 47 7f
        E 128 90 43 7f
        E 2 80 47 40
        E 32 80 43 40
        E 30 90 4a 7f
        E 34 80 4a 40
        E 30 90 4a 7f
        E 34 80 4a 40
        E 30 90 4a 7f
        E 34 80 4a 40
        E 30 90 47 7f
        E 178 80 47 40
        E 14 90 43 7f
        E 178 80 43 40
        E 14 90 3e 7f
        E 178 80 3e 40
        E 14 90 43 7f
        E 178 80 43 40
        E 14 90 3e 7f
        E 178 80 3e 40
        E 14 90 43 7f
        E 178 80 43 40
        E 14 90 3e 7f
        E 178 80 3e 40
        E 14 90 43 7f
        E 178 80 43 40
        E 14 90 43 7f
        E 178 80 43 40
        E 14 b0 7b 00
        GUID {99B4821B-AF09-9844-8525-1007B8593884}
        IGNTEMPO 0 120 4 4
        SRCCOLOR 653
        VELLANE -1 86 6
      >
      TAKE
      NAME "MELODY               - National_Anthems_-_China.mid"
      TAKEVOLPAN 0 1 -1
      SOFFS 6 12
      PLAYRATE 1 1 0 -1 0 0.0025
      CHANMODE 0
      GUID {AA8316AF-AB40-4648-95ED-C34EE2C90025}
      <SOURCE MIDI
        HASDATA 1 192 QN
        POOLEDEVTS {5EF6AB77-2BF5-6F4E-B816-D2F79B18F909}
        <X 0 0
          /wNNRUxPRFkgICAgICAgICAgICAgIA==
        >
        <X 0 0
          /wFUSEUgU09GVFdBUkUgVE9PTFdPUktT
        >
        <X 0 0
          /wFXT1JMRCBBVExBUw==
        >
        <X 0 0
          /wFNdWx0aU1lZGlhIFdpbmRvd3MgVmVyc2lvbg==
        >
        <X 0 0
          /wFDb3VudHJ5OiBDaGluYQ==
        >
        <X 0 0
          /wFBbnRoZW0gTmFtZTo=
        >
        <X 0 0
          /wEocCkgKGMpIFRoZSBTb2Z0d2FyZSBUb29sd29ya3MgMTk5MQ==
        >
        <X 0 0
          /wFub3Rlczo=
        >
        <X 0 0
          /wFkYXRlOiA3LTE2LTkx
        >
        <X 0 0
          /wFlZGl0IGRhdGU6IDktMS05MQ==
        >
        <X 0 0
          /wFCUE06
        >
        <X 0 0
          /wE/PSBubyBtYXJraW5nICE9IGJwbSBwcm92aWRlZA==
        >
        <X 0 0
          /wFUaGlzIGZpbGUgcHJvdmlkZWQgYnk6
        >
        <X 0 0
          /wFSb2IgV2FsbGFjZSBNdXNpYw==
        >
        <X 0 0
          /wEoNjAyKSA5NzgtMDgzNQ==
        >
        <X 0 0
          /wFuZXcgIzogezYwMn0gOTc5LTYyMDE=
        >
        <X 0 0
          /wFNVUxUSU1FRElBIFdJTkRPV1MgVkVSU0lPTg==
        >
        E 2208 90 3e 7f
        E 82 80 3e 40
        E 14 90 43 7f
        E 274 80 43 40
        E 14 90 43 7f
        E 82 80 43 40
        E 14 90 43 7f
        E 130 80 43 40
        E 14 90 43 7f
        E 34 80 43 40
        E 14 90 3e 7f
        E 82 80 3e 40
        E 14 90 40 7f
        E 34 80 40 40
        E 14 90 42 7f
        E 34 80 42 40
        E 14 90 43 7f
        E 178 80 43 40
        E 14 90 43 7f
        E 178 80 43 40
        E 110 90 47 7f
        E 82 80 47 40
        E 14 90 43 7f
        E 82 80 43 40
        E 14 90 45 7f
        E 34 80 45 40
        E 14 90 47 7f
        E 34 80 47 40
        E 14 90 4a 7f
        E 178 80 4a 40
        E 14 90 4a 7f
        E 178 80 4a 40
        E 14 90 47 7f
        E 130 80 47 40
        E 14 90 47 7f
        E 34 80 47 40
        E 14 90 43 7f
        E 130 80 43 40
        E 14 90 47 7f
        E 34 80 47 40
        E 14 90 4a 7f
        E 130 80 4a 40
        E 14 90 47 7f
        E 34 80 47 40
        E 14 90 45 7f
        E 178 80 45 40
        E 14 90 45 7f
        E 370 80 45 40
        E 14 90 4c 7f
        E 178 80 4c 40
        E 14 90 4a 7f
        E 178 80 4a 40
        E 14 90 45 7f
        E 178 80 45 40
        E 14 90 47 7f
        E 178 80 47 40
        E 14 90 4a 7f
        E 82 80 4a 40
        E 14 90 47 7f
        E 82 80 47 40
        E 110 90 4a 7f
        E 82 80 4a 40
        E 14 90 47 7f
        E 82 80 47 40
        E 14 90 45 7f
        E 34 80 45 40
        E 14 90 47 7f
        E 34 80 47 40
        E 14 90 43 7f
        E 178 80 43 40
        E 14 90 47 7f
        E 178 80 47 40
        E 206 90 3e 7f
        E 130 80 3e 40
        E 14 90 40 7f
        E 34 80 40 40
        E 14 90 43 7f
        E 82 80 43 40
        E 14 90 43 7f
        E 82 80 43 40
        E 14 90 47 7f
        E 130 80 47 40
        E 14 90 47 7f
        E 34 80 47 40
        E 14 90 4a 7f
        E 82 80 4a 40
        E 14 90 4a 7f
        E 82 80 4a 40
        E 14 90 45 7f
        E 82 80 45 40
        E 14 90 45 7f
        E 34 80 45 40
        E 14 90 45 7f
        E 34 80 45 40
        E 14 90 40 7f
        E 178 80 40 40
        E 14 90 45 7f
        E 274 80 45 40
        E 14 90 3e 7f
        E 82 80 3e 40
        E 14 90 43 7f
        E 274 80 43 40
        E 14 90 43 7f
        E 82 80 43 40
        E 14 90 47 7f
        E 274 80 47 40
        E 14 90 47 7f
        E 82 80 47 40
        E 14 90 4a 7f
        E 370 80 4a 40
        E 14 90 43 7f
        E 130 80 43 40
        E 14 90 47 7f
        E 34 80 47 40
        E 14 90 4a 7f
        E 82 80 4a 40
        E 14 90 4a 7f
        E 82 80 4a 40
        E 14 90 4c 7f
        E 178 80 4c 40
        E 14 90 4a 7f
        E 178 80 4a 40
        E 14 90 47 7f
        E 128 90 43 7f
        E 2 80 47 40
        E 32 80 43 40
        E 30 90 4a 7f
        E 34 80 4a 40
        E 30 90 4a 7f
        E 34 80 4a 40
        E 30 90 4a 7f
        E 34 80 4a 40
        E 30 90 47 7f
        E 178 80 47 40
        E 14 90 43 7f
        E 178 80 43 40
        E 14 90 3e 7f
        E 178 80 3e 40
        E 14 90 43 7f
        E 178 80 43 40
        E 14 90 47 7f
        E 128 90 43 7f
        E 2 80 47 40
        E 32 80 43 40
        E 30 90 4a 7f
        E 34 80 4a 40
        E 30 90 4a 7f
        E 34 80 4a 40
        E 30 90 4a 7f
        E 34 80 4a 40
        E 30 90 47 7f
        E 178 80 47 40
        E 14 90 43 7f
        E 178 80 43 40
        E 14 90 3e 7f
        E 178 80 3e 40
        E 14 90 43 7f
        E 178 80 43 40
        E 14 90 3e 7f
        E 178 80 3e 40
        E 14 90 43 7f
        E 178 80 43 40
        E 14 90 3e 7f
        E 178 80 3e 40
        E 14 90 43 7f
        E 178 80 43 40
        E 14 90 43 7f
        E 178 80 43 40
        E 14 b0 7b 00
        GUID {5710B420-4C96-134E-87E6-DD57F48DC2C8}
        IGNTEMPO 0 120 4 4
        SRCCOLOR 902
        VELLANE -1 86 6
      >
    >
  >
  <TRACK {9E2CAE92-CCC1-1F4A-BCF6-93DCFE473BDF}
    NAME "16th pulse (mix w/ send?)"
    PEAKCOL 16576
    BEAT -1
    AUTOMODE 0
    VOLPAN 1 0 -1 -1 1
    MUTESOLO 0 0 0
    IPHASE 0
    ISBUS 1 1
    BUSCOMP 0 0
    SHOWINMIX 1 0.6667 0.5 1 0.5 -1 -1 -1
    FREEMODE 0
    SEL 0
    REC 0 0 0 0 0 0 0
    VU 2
    TRACKHEIGHT 0 0
    INQ 0 0 0 0.5 100 0 0 100
    NCHAN 4
    FX 1
    TRACKID {9E2CAE92-CCC1-1F4A-BCF6-93DCFE473BDF}
    PERF 0
    AUXRECV 3 0 1 0 0 0 0 0 0 -1 64 -1 ''
    AUXRECV 4 0 1 0 0 0 0 0 0 -1 32 -1 ''
    MIDIOUT -1
    MAINSEND 0 0
    <FXCHAIN
      WNDRECT 36 359 724 387
      SHOW 0
      LASTSEL 0
      DOCKED 0
      BYPASS 0 0 0
      <VST "VSTi: chipsounds (Plogue Art et Technologie, Inc)" chipsounds.vst 0 "" 1347176271
        T0dMUO5e7f4AAAAABAAAAAEAAAAAAAAAAgAAAAAAAAAEAAAAAAAAAAgAAAAAAAAAHQQAAAEAAAAAABAAQ0VHULcaAAB4nO1ZW2/bNhR+z68g9LQ9VCJ1tQA7he3Eg4F5
        DWbvuaBlVhGq20QqS/vrR0pWJPlC0XGLdWj4YpH6ePgdnkPpO/L4/XMSgydS0ChLJxrSoQbe396Mp0WE1/iJdG650NRubwBv4zVhLEpDCv4ucRyxL/yuBsI42+L4IYt5
        1zI1QFlBcMJhdTfBz+tqZBrHWbCaTTQH8eHV8m75oWSrbEcqK7hkWYIZX3IdZ2yicT404Hd8aySucIz5GALvABFr6zSI98NzkjJSTDQXNlQ2ZVqtDnVYNQ0YDX9uGkS7
        ynqKEyJM6uChLAiYP0a5sV7eGa4zQuCXPzbr+a8a2OL085LjEYS+BoJHnKYkrqbnlb+2BtjRavn2Y4HTkFt/h14GGR+ieUZJNTspWX1B//kYY8qEpZpjxXOFo7Th+YTj
        klQR6jvTB6IX4JHXfaCpCrRUgbYq0FEFuqpATxU4UgX6qkAElZHKsUHKwUHK0UHK4UFD8XnABU6UkqhFDq3eIr2BVG+Rva23fUcG7e6T6UitdqmathR6AdduQiFLugFd
        tyxTCu2mlI2k0G6s0EgK7W2WnGt3s1zpZnndtPLkVt0eV1lgvf6JlkFHXauWNFojXxnqd6OFfGkOWN0YONDyLe98FrZYZA6dGR+2LNxBbJs05iDWVM5wH6qfcR+6F9gd
        XYD1L3h6XOAcD4E1AN7gIiRsLyeCLNEf4iwsiS6UlP774oNeUlLAztu9mjUvKdc7d5hhwL7kIiSm5fIA0egr79jC9UaA8fVIuotwfbnjU/hF0xb1jwm/beu7aNQ+Xuo0
        +pmc/pPTJQVXgmtChQs6ZST/WcK+KaIwJMWaa3OSBqQYdBt5pngz1m57fsdt85TbaO/1vsHq0ewtoMmv4f3IQ4eOWHNv4Ss4jKCtjH3Fpo0NUXEcFh/ouuIDNcWH2RYf
        6Mrqw3yrPt6qj/9L9dH3CLnuWTXV9ciHTvXhYbhOMT3bFULlm9YpjhTqDcXzjPZ3bKlI7sVJWij1BL3lSQl0I2XK65Shs/Qqlf56jWxfoJGHNef318jDOv0/08g/luw9
        EgAH7X7gPjzl4pvslTp9nehD4ql9meqbiZ5QfciBM28xO/LkvJJrFKLLXwKOM3UssZfzH3b0NN+DNoenRs81VZV6/+kTCdjxh/Jpso1EmA9lafNp/be/ls0EHLDoiSxf
        vuPX/fv2uz6J+RJkt8Fb0e8+gQpCCVuRtAQRbeCsoipPPcDIM4fMMKVcAWP2ONGMaZ7HUVD9pUCNeiIX0VFOszLd8ZFqLWpIzBp1CgM+HnymhrCuY37U84Pn5hFrdJL1
        tMhJGEaYZS3hOMqvINyxaAhT17A7t6ecQUIK/B22dc8+4+B6jQP6Y4Mn1e3N2Gj+lLq9+Rft1ZVKAAAQAAAA
      >
      FLOATPOS 409 269 871 509
      FXID {DC79668B-30D1-964C-A162-F245DBE294B0}
      WAK 0
      BYPASS 1 0 0
      <JS Delay/time_adjustment ""
        -10.000000 0.000000 -120.000000 0.000000 - - - - - - - - - - - - - - - - - - - - - - - - - - - - - - - - - - - - - - - - - - - - - - - - - - - - - - - - - - - - 
      >
      FLOATPOS 0 4 554 157
      FXID {40721658-5454-1743-9C6A-517A806DB8F9}
      WAK 0
    >
  >
  <TRACK {4FCA358B-3FAC-3749-9BC2-11E94F70145F}
    NAME 16ths
    PEAKCOL 16576
    BEAT -1
    AUTOMODE 0
    VOLPAN 1 0 -1 -1 1
    MUTESOLO 0 0 0
    IPHASE 0
    ISBUS 0 0
    BUSCOMP 0 0
    SHOWINMIX 1 0.6667 0.5 1 0.5 -1 -1 -1
    FREEMODE 0
    SEL 0
    REC 0 0 0 0 0 0 0
    VU 2
    TRACKHEIGHT 0 0
    INQ 0 0 0 0.5 100 0 0 100
    NCHAN 2
    FX 1
    TRACKID {4FCA358B-3FAC-3749-9BC2-11E94F70145F}
    PERF 0
    MIDIOUT -1
    MAINSEND 0 0
  >
  <TRACK {B0448BAA-9F98-5543-9DF7-CDB8296564E0}
    NAME Full
    PEAKCOL 16576
    BEAT -1
    AUTOMODE 0
    VOLPAN 1 0 -1 -1 1
    MUTESOLO 0 0 0
    IPHASE 0
    ISBUS 2 -1
    BUSCOMP 0 0
    SHOWINMIX 1 0.6667 0.5 1 0.5 -1 -1 -1
    FREEMODE 0
    SEL 0
    REC 0 0 0 0 0 0 0
    VU 2
    TRACKHEIGHT 0 0
    INQ 0 0 0 0.5 100 0 0 100
    NCHAN 2
    FX 1
    TRACKID {B0448BAA-9F98-5543-9DF7-CDB8296564E0}
    PERF 0
    MIDIOUT -1
    MAINSEND 0 0
    <ITEM
      POSITION 0
      SNAPOFFS 0
      LENGTH 36.5
      LOOP 1
      ALLTAKES 0
      FADEIN 1 0 0 1 0 0
      FADEOUT 1 0 0 1 0 0
      MUTE 0
      SEL 0
      YPOS 0.375 0.125
      IGUID {30FFA0A9-4533-9A42-9A47-859B2B719EF9}
      IID 4
      NAME "BASS                 - National_Anthems_-_China.mid"
      VOLPAN 1 0 1 -1
      SOFFS 0 0
      PLAYRATE 1 1 0 -1 0 0.0025
      CHANMODE 0
      TAKECOLOR 26173599
      GUID {D59A3F25-C793-404F-AD7C-A9BF94D2F217}
      <SOURCE MIDI
        HASDATA 1 192 QN
        POOLEDEVTS {8A5BA6C8-634E-D14F-BD1A-7B45F9348A39}
        <X 0 0
          /wNCQVNTICAgICAgICAgICAgICAgIA==
        >
        e 0 90 2b 64
        e 274 80 2b 40
        e 14 90 2b 64
        e 82 80 2b 40
        e 14 90 2b 64
        e 178 80 2b 40
        e 14 90 2b 64
        e 178 80 2b 40
        e 14 90 2b 64
        e 178 80 2b 40
        e 14 90 26 64
        e 50 80 26 40
        e 14 90 26 64
        e 50 80 26 40
        e 14 90 26 64
        e 50 80 26 40
        e 14 90 2b 64
        e 370 80 2b 40
        e 14 90 2b 64
        e 178 80 2b 40
        e 14 90 26 64
        e 178 80 26 40
        e 14 90 2b 64
        e 178 80 2b 40
        e 206 90 2f 64
        e 274 80 2f 40
        e 14 90 2f 64
        e 82 80 2f 40
        e 14 90 2f 64
        e 178 80 2f 40
        e 14 90 32 64
        e 178 80 32 40
        e 14 90 37 64
        e 178 80 37 40
        e 14 90 37 64
        e 178 80 37 40
        e 398 90 2b 64
        e 178 80 2b 40
        e 14 90 2b 64
        e 178 80 2b 40
        e 14 90 2b 64
        e 370 80 2b 40
        e 206 90 26 64
        e 178 80 26 40
        e 14 90 24 64
        e 370 80 24 40
        e 14 90 30 64
        e 178 80 30 40
        e 14 90 2f 64
        e 178 80 2f 40
        e 14 90 32 64
        e 178 80 32 40
        e 14 90 37 64
        e 178 80 37 40
        e 14 90 2b 64
        e 370 80 2b 40
        e 14 90 2b 64
        e 370 80 2b 40
        e 14 90 2b 64
        e 178 80 2b 40
        e 206 90 37 64
        e 274 80 37 40
        e 14 90 36 64
        e 82 80 36 40
        e 14 90 34 64
        e 178 80 34 40
        e 14 90 36 64
        e 178 80 36 40
        e 14 90 37 64
        e 562 80 37 40
        e 14 90 36 64
        e 178 80 36 40
        e 14 90 2f 64
        e 274 80 2f 40
        e 14 90 2f 64
        e 82 80 2f 40
        e 14 90 2b 64
        e 274 80 2b 40
        e 14 90 2b 64
        e 82 80 2b 40
        e 14 90 32 64
        e 370 80 32 40
        e 14 90 37 64
        e 274 80 37 40
        e 14 90 37 64
        e 82 80 37 40
        e 14 90 37 64
        e 178 80 37 40
        e 14 90 37 64
        e 178 80 37 40
        e 14 90 37 64
        e 178 80 37 40
        e 14 90 32 64
        e 50 80 32 40
        e 14 90 32 64
        e 50 80 32 40
        e 14 90 32 64
        e 50 80 32 40
        e 14 90 2b 64
        e 370 80 2b 40
        e 14 90 2b 64
        e 562 80 2b 40
        e 14 90 32 64
        e 114 80 32 40
        e 14 90 32 64
        e 50 80 32 40
        e 14 90 37 64
        e 370 80 37 40
        e 14 90 2b 64
        e 370 80 2b 40
        e 14 90 2b 64
        e 370 80 2b 40
        e 14 90 2b 64
        e 370 80 2b 40
        e 14 90 2b 64
        e 178 80 2b 40
        E 14 b0 7b 00
        GUID {D0447611-4F1D-C646-A36E-1EE83C01B223}
        IGNTEMPO 0 120 4 4
        SRCCOLOR 656
        VELLANE -1 86 6
        CFGEDITVIEW 2180.430894 1.497595 33 20 0 0 0 0 0
        KEYSNAP 0 3 102304056070 0 "Natural minor"
        TRACKSEL 226 0 0 ""
        EVTFILTER 16 -1 -1 -1 -1 4 1 0 0 -1 -1 -1 -1 0 -1 0 -1 -1
        CFGEDIT 1 0 0 0 0 0 1 0 5 1 1 0.25 16 63 1280 778 0 0 2 3 0 0 0 0 0 0.5 0 0 1 64
      >
      TAKE
      NAME "BASS                 - National_Anthems_-_China.mid"
      TAKEVOLPAN 0 1 -1
      SOFFS 0 0
      PLAYRATE 1 1 0 -1 0 0.0025
      CHANMODE 0
      GUID {FE96E539-A064-2242-A66A-00691AF2F6B4}
      <SOURCE MIDI
        HASDATA 1 192 QN
        POOLEDEVTS {26A25B4E-6FF1-8E47-B4E2-89F1293B6373}
        <X 0 0
          /wNCQVNTICAgICAgICAgICAgICAgIA==
        >
        e 0 90 2b 64
        e 274 80 2b 40
        e 14 90 2b 64
        e 82 80 2b 40
        e 14 90 2b 64
        e 178 80 2b 40
        e 14 90 2b 64
        e 178 80 2b 40
        e 14 90 2b 64
        e 178 80 2b 40
        e 14 90 26 64
        e 50 80 26 40
        e 14 90 26 64
        e 50 80 26 40
        e 14 90 26 64
        e 50 80 26 40
        e 14 90 2b 64
        e 370 80 2b 40
        e 14 90 2b 64
        e 178 80 2b 40
        e 14 90 26 64
        e 178 80 26 40
        e 14 90 2b 64
        e 178 80 2b 40
        e 206 90 2f 64
        e 274 80 2f 40
        e 14 90 2f 64
        e 82 80 2f 40
        e 14 90 2f 64
        e 178 80 2f 40
        e 14 90 32 64
        e 178 80 32 40
        e 14 90 37 64
        e 178 80 37 40
        e 14 90 37 64
        e 178 80 37 40
        e 398 90 2b 64
        e 178 80 2b 40
        e 14 90 2b 64
        e 178 80 2b 40
        e 14 90 2b 64
        e 370 80 2b 40
        e 206 90 26 64
        e 178 80 26 40
        e 14 90 24 64
        e 370 80 24 40
        e 14 90 30 64
        e 178 80 30 40
        e 14 90 2f 64
        e 178 80 2f 40
        e 14 90 32 64
        e 178 80 32 40
        e 14 90 37 64
        e 178 80 37 40
        e 14 90 2b 64
        e 370 80 2b 40
        e 14 90 2b 64
        e 370 80 2b 40
        e 14 90 2b 64
        e 178 80 2b 40
        e 206 90 37 64
        e 274 80 37 40
        e 14 90 36 64
        e 82 80 36 40
        e 14 90 34 64
        e 178 80 34 40
        e 14 90 36 64
        e 178 80 36 40
        e 14 90 37 64
        e 562 80 37 40
        e 14 90 36 64
        e 178 80 36 40
        e 14 90 2f 64
        e 274 80 2f 40
        e 14 90 2f 64
        e 82 80 2f 40
        e 14 90 2b 64
        e 274 80 2b 40
        e 14 90 2b 64
        e 82 80 2b 40
        e 14 90 32 64
        e 370 80 32 40
        e 14 90 37 64
        e 274 80 37 40
        e 14 90 37 64
        e 82 80 37 40
        e 14 90 37 64
        e 178 80 37 40
        e 14 90 37 64
        e 178 80 37 40
        e 14 90 37 64
        e 178 80 37 40
        e 14 90 32 64
        e 50 80 32 40
        e 14 90 32 64
        e 50 80 32 40
        e 14 90 32 64
        e 50 80 32 40
        e 14 90 2b 64
        e 370 80 2b 40
        e 14 90 2b 64
        e 562 80 2b 40
        e 14 90 32 64
        e 114 80 32 40
        e 14 90 32 64
        e 50 80 32 40
        e 14 90 37 64
        e 370 80 37 40
        e 14 90 2b 64
        e 370 80 2b 40
        e 14 90 2b 64
        e 370 80 2b 40
        e 14 90 2b 64
        e 370 80 2b 40
        e 14 90 2b 64
        e 178 80 2b 40
        E 14 b0 7b 00
        GUID {8345A1AF-DE69-5F49-B0E1-ECA80923C99D}
        IGNTEMPO 0 120 4 4
        SRCCOLOR 901
        VELLANE -1 86 6
        CFGEDITVIEW 0 0 33 20 0 0 0 0 0
        KEYSNAP 0 3 102304056070 0 "Natural minor"
        TRACKSEL 226 0 0 ""
        EVTFILTER 16 -1 -1 -1 -1 4 1 0 0 -1 -1 -1 -1 0 -1 0 -1 -1
        CFGEDIT 1 0 0 0 0 0 1 0 5 1 1 0.25 16 63 1280 778 0 0 2 3 0 0 0 0 0 0.5 0 0 1 64
      >
    >
  >
  <TRACK {5AFE27AD-822D-C34D-AFA1-36A455563115}
    NAME "Bass Return (global)"
    PEAKCOL 0
    BEAT -1
    AUTOMODE 0
    VOLPAN 0.8829554344746 0.024 -1 -1 1
    MUTESOLO 0 0 0
    IPHASE 0
    ISBUS 0 0
    BUSCOMP 0 0
    SHOWINMIX 1 0.6667 0.5 1 0.5 -1 -1 -1
    FREEMODE 0
    SEL 0
    REC 0 0 0 0 0 0 0
    VU 2
    TRACKHEIGHT 0 0
    INQ 0 0 0 0.5 100 0 0 100
    NCHAN 2
    FX 1
    TRACKID {5AFE27AD-822D-C34D-AFA1-36A455563115}
    PERF 0
    AUXRECV 1 0 1 0 1 0 0 0 0 -1 0 -1 ''
    AUXRECV 2 0 1 0 0 0 0 0 0 -1 0 -1 ''
    AUXRECV 6 0 1 0 1 0 0 4 0 -1 0 -1 ''
    MIDIOUT -1
    MAINSEND 1 0
    <FXCHAIN
      SHOW 0
      LASTSEL 0
      DOCKED 0
      BYPASS 0 0 0
      <VST "VST: 8-Bit Shaper (Xfer Records)" 8BitShaper.vst 0 "" 1148539762
        clN1RO5e7f4CAAAAAQAAAAAAAAACAAAAAAAAAAIAAAABAAAAAAAAAAIAAAAAAAAANAIAAAEAAAAAABAAZmaGP20MlT7dQQw/AAAAPyUAAAAAAIA//wAAAP8AAAAXAAAA
        MAAAABkAAAAaAAAAGgAAABoAAAAbAAAAGwAAABwAAAAcAAAAHAAAAB0AAAAdAAAAHgAAAB4AAAAfAAAAHwAAACAAAAAgAAAAIAAAACEAAAAhAAAAIQAAACIAAAAiAAAA
        IgAAACMAAAAjAAAAIwAAACQAAAAkAAAAJAAAACUAAAAlAAAAKAAAACgAAAApAAAAKQAAACoAAAA1AAAAKgAAACoAAAA2AAAAKgAAACoAAAAqAAAAKgAAACoAAAAqAAAA
        KgAAACsAAAArAAAAOQAAAC0AAAA0AAAAOgAAAC0AAAAtAAAAPAAAAC4AAAAuAAAALwAAADAAAAAwAAAAMQAAADEAAAAxAAAAMgAAADMAAAAzAAAAMwAAADcAAAA3AAAA
        NwAAADgAAAA4AAAAOAAAADkAAAA5AAAAOQAAADoAAAA6AAAAOgAAADoAAAA6AAAAOwAAADsAAAA7AAAAPAAAADsAAAA7AAAAOwAAADwAAAA8AAAAPAAAADwAAAA9AAAA
        PQAAAD0AAAA9AAAAPQAAAD4AAAA+AAAAPwAAAEkAAABAAAAAQAAAAEgAAABAAAAAQQAAAEIAAABCAAAAQgAAAEMAAABDAAAAQwAAAEQAAABEAAAARQAAAE0AAABGAAAA
        RwAAAEYAAABHAAAASAAAAEgAAABJAAAATwAAAAAAgD+rqqo+q6qqPh0Fwz6OAm0/AEluaXQgMQAQAAAA
      >
      FLOATPOS 32 39 278 389
      FXID {19A94086-1737-784E-A733-2897FDD09534}
      WAK 0
    >
  >
  <TRACK {3CF13A00-0AFC-8542-AD98-73B6D91102DB}
    NAME "vst Plogue"
    PEAKCOL 26779488
    BEAT -1
    AUTOMODE 0
    VOLPAN 1 0 -1 -1 1
    MUTESOLO 0 0 0
    IPHASE 0
    ISBUS 0 0
    BUSCOMP 0 0
    SHOWINMIX 1 0.6667 0.5 1 0.5 -1 -1 -1
    FREEMODE 0
    SEL 0
    REC 0 0 0 1 0 0 0
    VU 2
    TRACKHEIGHT 0 0
    INQ 0 0 0 0.5 100 0 0 100
    NCHAN 8
    FX 1
    TRACKID {3CF13A00-0AFC-8542-AD98-73B6D91102DB}
    PERF 0
    AUXRECV 8 0 1 0 0 0 0 0 0 -1 32 -1 ''
    AUXRECV 8 0 1 0 0 0 0 0 0 -1 96 -1 ''
    AUXRECV 9 0 1 0 0 0 0 0 0 -1 64 -1 ''
    AUXRECV 9 0 1 0 0 0 0 0 0 -1 128 -1 ''
    AUXRECV 10 0 1 0 0 0 0 0 0 -1 160 -1 ''
    MIDIOUT -1
    MAINSEND 0 0
    <FXCHAIN
      SHOW 0
      LASTSEL 0
      DOCKED 0
      BYPASS 0 0 0
      <VST "VSTi: chipsounds (Multi) (Plogue Art et Technologie, Inc) (32 out)" "chipsounds Multi.vst" 0 "" 1347241807
        T0dNUO5e7f4AAAAAIAAAAAEAAAAAAAAAAgAAAAAAAAAEAAAAAAAAAAgAAAAAAAAAEAAAAAAAAAAgAAAAAAAAAEAAAAAAAAAAgAAAAAAAAAAAAQAAAAAAAAACAAAAAAAA
        AAQAAAAAAAAACAAAAAAAAAAQAAAAAAAAACAAAAAAAAAAQAAAAAAAAACAAAAAAAAAAAABAAAAAAAAAAIAAAAAAAAABAAAAAAAAAAIAAAAAAAAABAAAAAAAAAAIAAAAAAA
        AABAAAAAAAAAAIAAAAAAAAAAAAEAAAAAAAAAAgAAAAAAAAAEAAAAAAAAAAgAAAAAAAAAEAAAAAAAAAAgAAAAAAAAAEAAAAAAAAAAgAAAAADwBQAAAQAAAAAAEABDRUdQ
        4T8AAHic7Ztdc6M2FIbv8ysYrtqLNZL4MjNOdvwRdz3TdDO1d3qZUWytQ4vBRSJN+usrwMRSbAsRkm23gYsE5JcjHR0hHunYg48Pm8i4JykNk/jchD1gGh8vzgbDNMRz
        fE+EjzyAzIszgx+DOWEsjNfU+DPDUcge+aemsY6SWxxdJxG/tJFpUJYSvOGy8nKDH+ZFyTCKkuXV6Nx0IS++mk1mnzN2laxIYQVnLNlgxqucRwk7N3l76JJr7X5+giPM
        i6DxwSB51T26jHbFYxIzkp6bHqhassjionLQA8VhGlbVfG7ZCFeF8RhvSG6yZ1xnKTHGd+HWms8mluf2ofHDL4v5+EfTuMXxHzOuhwAEprG8w3FMouL2beGuYxrsoLbt
        7U2K4zW3/gE+FTJeRLcJJcXdm4yVJ/SvmwhTllsq21i08wqHcdXOexxlpAiQ7IwshE/CA69lIdIV2rpCR1fo6go9XaGvK+zrCgNdIQTaSu3YQO3gQO3oQO3wwLr4XOMU
        b7QG0V5ZV/teKcay77oKpdT1TqCS+mLfQ1tZvyNJlVbFAQr7Sqk88lTSvmjVVvZVP9CWBmJnwUAlhbYYVxfYge2f1Dp7LUTHY7vA6Zqw3US7TDa96yhZZ6SXv2J6P08/
        9zJKUiDMe8Vd44zyF8EEM2ywxy2/EyHb42Gk4d/8wsn7s3oz8fpIvApxebrit/CT6piW/xB43UN20Sp9bOo0fCdOL9JwvSbpnL+zSbwkaa3b0EcwqNx2fcFtdMxtuPN6
        d5TXfnFuj/1pIDkxBvb03+qIIvq/cgdIymFhTmjuVI8ysv0fjf+BlfPVc9SC7VALHkGtfodaHWq9E9SSPYKed/KVLHoUALdYZNVDGfIdD3ivDGWu0iUJylxHiU9iU21f
        abVuKL+ItF6biUQw2/cYqhsEfB6vmZ462Opgqw1sQQCb0lbxlPu8F6aXh7RVdo1vj6SCKWewXNs/kPLSyTELAMkW3pjijjMMascwTsUwcM8wTjuGATUMU/cCas4wNVTU
        MYy6wzuGacowPnKc/DE6rhQ9gsp9FdEjX0kbkkdQ5ZFf81ic2qxS7hVJUeK+q6SOfgOkzaqcduBJaQO3xJHvKMnQF3vAVu5ACWRY1wBfGtLKzpIg0lO3VRwCHtTeBHSR
        SirtwQVI2a/fhDftWm3dvC9q9fd4A+A1sKs/GgMQNHggGzgHoeSdrQwzj4E40xValbiu3zqk75C+FdIjuynSFyvsEukBQqPRgSeHoD8pkB6Ao0h/dFHgjmW7oxLpfR+K
        pdOydCyX7o6xjnZ6YqnQGP/tdviPvn22WBv/a6i+28JUCjv8/86yxTVGu2yx2Fldtrj10dFOly1+YfTfZ7bYaYda9hHUcjvU6lDrnaDWd5gtrt3o67LFXbZY6+hgq8sW
        /xeyxf4Tw6CeUfaj8Ru+J1+TdEOtTzhdGfPHeHkSYtyndLHXcsPolcjl9b/nVsNCHbm8b3JRpsgkj5Tf/pe6iXMLCk6mkyXvXXWaVsIcdTZPGiRKIJESquq9J6QPT0g/
        1eXXjb6XpWmlaHlKepMGoKe06uo3QE5/K4lMojdPiZpvR29i7rXum5Rvl3vtN9Dq514DqB843qv6I5KL614uJ1OvtnqlgkDdu6OD6Q6m28A0ct2GMF2+H8qtSzDypzp5
        2uqocqQeX/S77tCVM6dC6ch3D+02s+AdySA3tADbWnD9thacSUsLx0sRGh7Ng4PnGW/dBcjl169kyQ5/4zzc3Ib5sHy+4NhZHfz0ZVbdgJcsvCez8hfYsLq+3P8im0S8
        CrJa4Nt8pIozZkooYVckzoyQVrezoqnqR8Vg5IFLFvxvlpKV8SlklC9yMLs7N63hdhuFy+JX4dQqLfB1UrilSRaveElRKbUU9q3dAmyYbsl6HSbUkmrqYT5fbZ9N/geu
        oEaubPDvPrt78uELnwipRXko4nWE801962aZEsyINcebbUSodVl9YkzD/LqsYLx3tKqD5re47O55uwcWD+LF2cCqfr5/cfYPdt4/mgAAEAAAAA==
      >
      FLOATPOS 275 269 871 509
      FXID {C804D762-B992-A540-81BF-3D6C0F7FF19B}
      WAK 0
    >
  >
  <TRACK {361291E9-E6AB-604E-AA43-746A4AF7FC9C}
    NAME "midi "
    PEAKCOL 16576
    BEAT -1
    AUTOMODE 0
    VOLPAN 1 0 -1 -1 1
    MUTESOLO 0 0 0
    IPHASE 0
    ISBUS 1 1
    BUSCOMP 1 0
    SHOWINMIX 1 0.6667 0.5 1 0.5 -1 -1 -1
    FREEMODE 0
    SEL 0
    REC 0 0 0 0 0 0 0
    VU 2
    TRACKHEIGHT 0 0
    INQ 0 0 0 0.5 100 0 0 100
    NCHAN 2
    FX 1
    TRACKID {361291E9-E6AB-604E-AA43-746A4AF7FC9C}
    PERF 0
    MIDIOUT -1
    MAINSEND 1 0
  >
  <TRACK {2BB5EACD-C1BC-284E-92F6-33B7023B768F}
    NAME "ch1,3 (send)"
    PEAKCOL 16576
    BEAT -1
    AUTOMODE 0
    VOLPAN 1 0 -1 -1 1
    MUTESOLO 0 0 0
    IPHASE 0
    ISBUS 0 0
    BUSCOMP 0 0
    SHOWINMIX 1 0.6667 0.5 1 0.5 -1 -1 -1
    FREEMODE 0
    SEL 0
    REC 0 0 0 0 0 0 0
    VU 2
    MIDICTL -1 1
    TRACKHEIGHT 0 0
    INQ 0 0 0 0.5 100 0 0 100
    NCHAN 2
    FX 1
    TRACKID {2BB5EACD-C1BC-284E-92F6-33B7023B768F}
    PERF 0
    MIDIOUT -1
    MAINSEND 1 0
    <FXCHAIN
      SHOW 0
      LASTSEL 0
      DOCKED 0
    >
    <ITEM
      POSITION 0
      SNAPOFFS 0
      LENGTH 36.5
      LOOP 1
      ALLTAKES 0
      FADEIN 1 0 0 1 0 0
      FADEOUT 1 0 0 1 0 0
      MUTE 0
      SEL 1
      YPOS 0.125 0.125
      IGUID {E32423E2-6920-EE40-9CFA-AAABBE3BD025}
      IID 2
      NAME "R.H.                 - National_Anthems_-_China.mid"
      VOLPAN 1 0 1 -1
      SOFFS 0 0
      PLAYRATE 1 1 0 -1 0 0.0025
      CHANMODE 0
      TAKECOLOR 26173599
      GUID {071BD9FF-A022-7044-BADC-95BA000B76CB}
      <SOURCE MIDI
        HASDATA 1 192 QN
        POOLEDEVTS {CA32F0F3-E05E-814D-9012-E485ACFD7C7D}
        <X 0 0
          /wNSLkguICAgICAgICAgICAgICAgIA==
        >
        E 0 91 43 64
        E 130 81 43 40
        E 14 91 47 64
        E 34 81 47 40
        E 14 91 43 64
        E 0 91 4a 64
        E 82 81 43 40
        E 0 81 4a 40
        E 14 91 4a 64
        E 0 91 43 64
        E 82 81 4a 40
        E 0 81 43 40
        E 14 91 43 64
        E 0 91 4c 64
        E 178 81 4c 40
        E 14 91 4a 64
        E 178 81 43 40
        E 0 81 4a 40
        E 14 91 47 64
        E 114 81 47 40
        E 14 91 43 64
        E 50 81 43 40
        E 14 91 4a 64
        E 0 91 42 64
        E 50 81 4a 40
        E 0 81 42 40
        E 14 91 42 64
        E 0 91 4a 64
        E 50 81 42 40
        E 0 81 4a 40
        E 14 91 4a 64
        E 0 91 42 64
        E 50 81 4a 40
        E 0 81 42 40
        E 14 91 47 64
        E 0 91 43 64
        E 178 81 43 40
        E 14 91 43 64
        E 178 81 47 40
        E 0 81 43 40
        E 14 91 3e 64
        E 50 81 3e 40
        E 14 91 3e 64
        E 50 81 3e 40
        E 14 91 3e 64
        E 50 81 3e 40
        E 14 91 3e 64
        E 50 81 3e 40
        E 14 91 3e 64
        E 50 81 3e 40
        E 14 91 3e 64
        E 50 81 3e 40
        E 14 91 43 64
        E 0 91 3e 64
        E 178 81 43 40
        E 0 81 3e 40
        E 110 91 3e 64
        E 82 81 3e 40
        E 14 91 43 64
        E 0 91 3e 64
        E 274 81 43 40
        E 0 81 3e 40
        E 14 91 43 64
        E 82 81 43 40
        E 14 91 3e 64
        E 0 91 43 64
        E 130 81 43 40
        E 14 91 43 64
        E 34 81 3e 40
        E 0 81 43 40
        E 14 91 3e 64
        E 96 91 40 64
        E 3 81 3e 40
        E 31 81 40 40
        E 14 91 42 64
        E 34 81 42 40
        E 14 91 3e 64
        E 0 91 43 64
        E 178 81 3e 40
        E 0 81 43 40
        E 14 91 3e 64
        E 0 91 43 64
        E 178 81 3e 40
        E 0 81 43 40
        E 110 91 47 64
        E 82 81 47 40
        E 14 91 43 64
        E 82 81 43 40
        E 14 91 45 64
        E 34 81 45 40
        E 14 91 47 64
        E 34 81 47 40
        E 14 91 43 64
        E 0 91 4a 64
        E 178 81 43 40
        E 0 81 4a 40
        E 14 91 43 64
        E 0 91 4a 64
        E 178 81 43 40
        E 0 81 4a 40
        E 14 91 47 64
        E 130 81 47 40
        E 14 91 47 64
        E 34 81 47 40
        E 14 91 43 64
        E 130 81 43 40
        E 14 91 47 64
        E 34 81 47 40
        E 14 91 47 64
        E 0 91 4a 64
        E 130 81 47 40
        E 0 81 4a 40
        E 14 91 43 64
        E 0 91 47 40
        E 34 81 43 40
        E 0 81 47 40
        E 14 91 45 64
        E 0 91 3e 64
        E 178 81 45 40
        E 0 81 3e 40
        E 14 91 45 64
        E 0 91 40 64
        E 370 81 45 40
        E 0 81 40 40
        E 14 91 4c 64
        E 0 91 42 64
        E 0 91 45 64
        E 178 81 4c 40
        E 0 81 42 40
        E 0 81 45 40
        E 14 91 3e 64
        E 0 91 4a 64
        E 0 91 43 64
        E 178 81 3e 40
        E 0 81 4a 40
        E 0 81 43 40
        E 14 91 42 64
        E 0 91 45 64
        E 0 91 3e 64
        E 178 81 42 40
        E 0 81 45 40
        E 0 81 3e 40
        E 14 91 47 64
        E 0 91 3e 64
        E 0 91 43 64
        E 178 81 47 40
        E 0 81 3e 40
        E 0 81 43 40
        E 14 91 4a 64
        E 82 81 4a 40
        E 14 91 47 64
        E 82 81 47 40
        E 110 91 4a 64
        E 82 81 4a 40
        E 14 91 47 64
        E 82 81 47 40
        E 14 91 45 64
        E 34 81 45 40
        E 14 91 47 64
        E 34 81 47 40
        E 14 91 43 64
        E 178 81 43 40
        E 14 91 47 64
        E 370 81 47 40
        E 14 91 3e 64
        E 130 81 3e 40
        E 14 91 40 64
        E 34 81 40 40
        E 14 91 43 64
        E 82 81 43 40
        E 14 91 43 64
        E 82 81 43 40
        E 14 91 47 64
        E 130 81 47 40
        E 14 91 47 64
        E 34 81 47 40
        E 14 91 4a 64
        E 82 81 4a 40
        E 14 91 4a 64
        E 82 81 4a 40
        E 14 91 45 64
        E 82 81 45 40
        E 14 91 45 64
        E 34 81 45 40
        E 14 91 45 64
        E 34 81 45 40
        E 14 91 40 64
        E 178 81 40 40
        E 14 91 45 64
        E 274 81 45 40
        E 14 91 3e 64
        E 82 81 3e 40
        E 14 91 3e 64
        E 0 91 43 64
        E 274 81 3e 40
        E 0 81 43 40
        E 14 91 43 64
        E 0 91 3e 64
        E 82 81 43 40
        E 0 81 3e 40
        E 14 91 47 64
        E 0 91 3e 64
        E 0 91 3b 64
        E 274 81 47 40
        E 0 81 3e 40
        E 0 81 3b 40
        E 14 91 3b 64
        E 0 91 3e 64
        E 0 91 47 64
        E 82 81 3b 40
        E 0 81 3e 40
        E 0 81 47 40
        E 14 91 42 64
        E 0 91 3e 64
        E 0 91 4a 64
        E 370 81 42 40
        E 0 81 3e 40
        E 0 81 4a 40
        E 14 91 43 64
        E 130 81 43 40
        E 14 91 47 64
        E 34 81 47 40
        E 14 91 4a 64
        E 82 81 4a 40
        E 14 91 4a 64
        E 82 81 4a 40
        E 14 91 4c 64
        E 0 91 43 64
        E 178 81 4c 40
        E 14 91 4a 64
        E 178 81 43 40
        E 0 81 4a 40
        E 14 91 47 64
        E 114 81 47 40
        E 14 91 43 64
        E 50 81 43 40
        E 14 91 4a 64
        E 0 91 42 64
        E 50 81 4a 40
        E 0 81 42 40
        E 14 91 42 64
        E 0 91 4a 64
        E 50 81 42 40
        E 0 81 4a 40
        E 14 91 4a 64
        E 0 91 42 64
        E 50 81 4a 40
        E 0 81 42 40
        E 14 91 43 64
        E 0 91 47 64
        E 178 81 43 40
        E 0 81 47 40
        E 14 91 43 64
        E 178 81 43 40
        E 14 91 3e 64
        E 178 81 3e 40
        E 14 91 43 64
        E 178 81 43 40
        E 14 91 47 64
        E 114 81 47 40
        E 14 91 43 64
        E 50 81 43 40
        E 14 91 4a 64
        E 0 91 42 64
        E 50 81 4a 40
        E 0 81 42 40
        E 14 91 42 64
        E 0 91 4a 64
        E 50 81 42 40
        E 0 81 4a 40
        E 14 91 4a 64
        E 0 91 42 64
        E 50 81 4a 40
        E 0 81 42 40
        E 14 91 47 64
        E 0 91 43 64
        E 178 81 47 40
        E 0 81 43 40
        E 14 91 43 64
        E 178 81 43 40
        E 14 91 3b 64
        E 0 91 3e 64
        E 178 81 3b 40
        E 0 81 3e 40
        E 14 91 43 64
        E 178 81 43 40
        E 14 91 3b 64
        E 0 91 3e 64
        E 178 81 3b 40
        E 0 81 3e 40
        E 14 91 43 64
        E 178 81 43 40
        E 14 91 3b 64
        E 0 91 3e 64
        E 192 91 43 64
        E 178 81 3b 40
        E 0 81 3e 40
        E 0 81 43 40
        E 14 91 3b 64
        E 0 91 43 64
        E 178 81 3b 40
        E 0 81 43 40
        E 14 b0 7b 00
        GUID {6EF03167-184B-C94B-88F2-113B1DB21C2E}
        IGNTEMPO 0 120 4 4
        SRCCOLOR 654
        VELLANE -1 86 6
        CFGEDITVIEW 0 15.123288 51 12 0 0 0 0 0
        KEYSNAP 0 3 102304056070 0 "Natural minor"
        TRACKSEL 226 0 0 ""
        EVTFILTER 0 -1 -1 -1 -1 0 0 0 0 -1 -1 -1 -1 0 -1 0 -1 -1
        CFGEDIT 1 1 0 0 0 0 1 0 1 1 1 0.25 20 47 1280 778 1 0 2 3 0 0 0 0 0 -1 0 0 1 64
      >
      TAKE
      NAME "R.H.                 - National_Anthems_-_China.mid"
      TAKEVOLPAN 0 1 -1
      SOFFS 0 0
      PLAYRATE 1 1 0 -1 0 0.0025
      CHANMODE 0
      GUID {53DA8C29-5366-274F-812E-BBCDC1F5E851}
      <SOURCE MIDI
        HASDATA 1 192 QN
        POOLEDEVTS {CC7A8217-BA0E-EF4C-8D6B-741662F1B2A4}
        <X 0 0
          /wNSLkguICAgICAgICAgICAgICAgIA==
        >
        E 0 91 43 64
        E 130 81 43 40
        E 14 91 47 64
        E 34 81 47 40
        E 14 91 43 64
        E 0 91 4a 64
        E 82 81 43 40
        E 0 81 4a 40
        E 14 91 4a 64
        E 0 91 43 64
        E 82 81 4a 40
        E 0 81 43 40
        E 14 91 43 64
        E 0 91 4c 64
        E 178 81 4c 40
        E 14 91 4a 64
        E 178 81 43 40
        E 0 81 4a 40
        E 14 91 47 64
        E 114 81 47 40
        E 14 91 43 64
        E 50 81 43 40
        E 14 91 4a 64
        E 0 91 42 64
        E 50 81 4a 40
        E 0 81 42 40
        E 14 91 42 64
        E 0 91 4a 64
        E 50 81 42 40
        E 0 81 4a 40
        E 14 91 4a 64
        E 0 91 42 64
        E 50 81 4a 40
        E 0 81 42 40
        E 14 91 47 64
        E 0 91 43 64
        E 178 81 43 40
        E 14 91 43 64
        E 178 81 47 40
        E 0 81 43 40
        E 14 91 3e 64
        E 50 81 3e 40
        E 14 91 3e 64
        E 50 81 3e 40
        E 14 91 3e 64
        E 50 81 3e 40
        E 14 91 3e 64
        E 50 81 3e 40
        E 14 91 3e 64
        E 50 81 3e 40
        E 14 91 3e 64
        E 50 81 3e 40
        E 14 91 43 64
        E 0 91 3e 64
        E 178 81 43 40
        E 0 81 3e 40
        E 110 91 3e 64
        E 82 81 3e 40
        E 14 91 43 64
        E 0 91 3e 64
        E 274 81 43 40
        E 0 81 3e 40
        E 14 91 43 64
        E 82 81 43 40
        E 14 91 3e 64
        E 0 91 43 64
        E 130 81 43 40
        E 14 91 43 64
        E 34 81 3e 40
        E 0 81 43 40
        E 14 91 3e 64
        E 96 91 40 64
        E 3 81 3e 40
        E 31 81 40 40
        E 14 91 42 64
        E 34 81 42 40
        E 14 91 3e 64
        E 0 91 43 64
        E 178 81 3e 40
        E 0 81 43 40
        E 14 91 3e 64
        E 0 91 43 64
        E 178 81 3e 40
        E 0 81 43 40
        E 110 91 47 64
        E 82 81 47 40
        E 14 91 43 64
        E 82 81 43 40
        E 14 91 45 64
        E 34 81 45 40
        E 14 91 47 64
        E 34 81 47 40
        E 14 91 43 64
        E 0 91 4a 64
        E 178 81 43 40
        E 0 81 4a 40
        E 14 91 43 64
        E 0 91 4a 64
        E 178 81 43 40
        E 0 81 4a 40
        E 14 91 47 64
        E 130 81 47 40
        E 14 91 47 64
        E 34 81 47 40
        E 14 91 43 64
        E 130 81 43 40
        E 14 91 47 64
        E 34 81 47 40
        E 14 91 47 64
        E 0 91 4a 64
        E 130 81 47 40
        E 0 81 4a 40
        E 14 91 43 64
        E 0 91 47 40
        E 34 81 43 40
        E 0 81 47 40
        E 14 91 45 64
        E 0 91 3e 64
        E 178 81 45 40
        E 0 81 3e 40
        E 14 91 45 64
        E 0 91 40 64
        E 370 81 45 40
        E 0 81 40 40
        E 14 91 4c 64
        E 0 91 42 64
        E 0 91 45 64
        E 178 81 4c 40
        E 0 81 42 40
        E 0 81 45 40
        E 14 91 3e 64
        E 0 91 4a 64
        E 0 91 43 64
        E 178 81 3e 40
        E 0 81 4a 40
        E 0 81 43 40
        E 14 91 42 64
        E 0 91 45 64
        E 0 91 3e 64
        E 178 81 42 40
        E 0 81 45 40
        E 0 81 3e 40
        E 14 91 47 64
        E 0 91 3e 64
        E 0 91 43 64
        E 178 81 47 40
        E 0 81 3e 40
        E 0 81 43 40
        E 14 91 4a 64
        E 82 81 4a 40
        E 14 91 47 64
        E 82 81 47 40
        E 110 91 4a 64
        E 82 81 4a 40
        E 14 91 47 64
        E 82 81 47 40
        E 14 91 45 64
        E 34 81 45 40
        E 14 91 47 64
        E 34 81 47 40
        E 14 91 43 64
        E 178 81 43 40
        E 14 91 47 64
        E 370 81 47 40
        E 14 91 3e 64
        E 130 81 3e 40
        E 14 91 40 64
        E 34 81 40 40
        E 14 91 43 64
        E 82 81 43 40
        E 14 91 43 64
        E 82 81 43 40
        E 14 91 47 64
        E 130 81 47 40
        E 14 91 47 64
        E 34 81 47 40
        E 14 91 4a 64
        E 82 81 4a 40
        E 14 91 4a 64
        E 82 81 4a 40
        E 14 91 45 64
        E 82 81 45 40
        E 14 91 45 64
        E 34 81 45 40
        E 14 91 45 64
        E 34 81 45 40
        E 14 91 40 64
        E 178 81 40 40
        E 14 91 45 64
        E 274 81 45 40
        E 14 91 3e 64
        E 82 81 3e 40
        E 14 91 3e 64
        E 0 91 43 64
        E 274 81 3e 40
        E 0 81 43 40
        E 14 91 43 64
        E 0 91 3e 64
        E 82 81 43 40
        E 0 81 3e 40
        E 14 91 47 64
        E 0 91 3e 64
        E 0 91 3b 64
        E 274 81 47 40
        E 0 81 3e 40
        E 0 81 3b 40
        E 14 91 3b 64
        E 0 91 3e 64
        E 0 91 47 64
        E 82 81 3b 40
        E 0 81 3e 40
        E 0 81 47 40
        E 14 91 42 64
        E 0 91 3e 64
        E 0 91 4a 64
        E 370 81 42 40
        E 0 81 3e 40
        E 0 81 4a 40
        E 14 91 43 64
        E 130 81 43 40
        E 14 91 47 64
        E 34 81 47 40
        E 14 91 4a 64
        E 82 81 4a 40
        E 14 91 4a 64
        E 82 81 4a 40
        E 14 91 4c 64
        E 0 91 43 64
        E 178 81 4c 40
        E 14 91 4a 64
        E 178 81 43 40
        E 0 81 4a 40
        E 14 91 47 64
        E 114 81 47 40
        E 14 91 43 64
        E 50 81 43 40
        E 14 91 4a 64
        E 0 91 42 64
        E 50 81 4a 40
        E 0 81 42 40
        E 14 91 42 64
        E 0 91 4a 64
        E 50 81 42 40
        E 0 81 4a 40
        E 14 91 4a 64
        E 0 91 42 64
        E 50 81 4a 40
        E 0 81 42 40
        E 14 91 43 64
        E 0 91 47 64
        E 178 81 43 40
        E 0 81 47 40
        E 14 91 43 64
        E 178 81 43 40
        E 14 91 3e 64
        E 178 81 3e 40
        E 14 91 43 64
        E 178 81 43 40
        E 14 91 47 64
        E 114 81 47 40
        E 14 91 43 64
        E 50 81 43 40
        E 14 91 4a 64
        E 0 91 42 64
        E 50 81 4a 40
        E 0 81 42 40
        E 14 91 42 64
        E 0 91 4a 64
        E 50 81 42 40
        E 0 81 4a 40
        E 14 91 4a 64
        E 0 91 42 64
        E 50 81 4a 40
        E 0 81 42 40
        E 14 91 47 64
        E 0 91 43 64
        E 178 81 47 40
        E 0 81 43 40
        E 14 91 43 64
        E 178 81 43 40
        E 14 91 3b 64
        E 0 91 3e 64
        E 178 81 3b 40
        E 0 81 3e 40
        E 14 91 43 64
        E 178 81 43 40
        E 14 91 3b 64
        E 0 91 3e 64
        E 178 81 3b 40
        E 0 81 3e 40
        E 14 91 43 64
        E 178 81 43 40
        E 14 91 3b 64
        E 0 91 3e 64
        E 192 91 43 64
        E 178 81 3b 40
        E 0 81 3e 40
        E 0 81 43 40
        E 14 91 3b 64
        E 0 91 43 64
        E 178 81 3b 40
        E 0 81 43 40
        E 14 b0 7b 00
        GUID {A4C62C1D-1240-9F41-B8D7-1B169DFD3511}
        IGNTEMPO 0 120 4 4
        SRCCOLOR 903
        VELLANE -1 86 6
        CFGEDITVIEW 0 0 51 12 0 0 0 0 0
        KEYSNAP 0 3 102304056070 0 "Natural minor"
        TRACKSEL 226 0 0 ""
        EVTFILTER 0 -1 -1 -1 -1 0 0 0 0 -1 -1 -1 -1 0 -1 0 -1 -1
        CFGEDIT 1 1 0 0 0 0 1 0 1 1 1 0.25 20 47 1280 778 1 0 2 3 0 0 0 0 0 -1 0 0 1 64
      >
    >
  >
  <TRACK {3C494A2B-9670-9740-AD22-E42CC5065FE1}
    NAME "ch2,4 (send)"
    PEAKCOL 16576
    BEAT -1
    AUTOMODE 0
    VOLPAN 1 0 -1 -1 1
    MUTESOLO 0 0 0
    IPHASE 0
    ISBUS 0 0
    BUSCOMP 0 0
    SHOWINMIX 1 0.6667 0.5 1 0.5 -1 -1 -1
    FREEMODE 0
    SEL 0
    REC 0 0 0 0 0 0 0
    VU 2
    MIDICTL -1 1
    TRACKHEIGHT 0 0
    INQ 0 0 0 0.5 100 0 0 100
    NCHAN 2
    FX 1
    TRACKID {3C494A2B-9670-9740-AD22-E42CC5065FE1}
    PERF 0
    MIDIOUT -1
    MAINSEND 1 0
    <FXCHAIN
      WNDRECT 32 359 724 387
      SHOW 0
      LASTSEL 0
      DOCKED 0
    >
    <ITEM
      POSITION 0
      SNAPOFFS 0
      LENGTH 36.5
      LOOP 1
      ALLTAKES 0
      FADEIN 1 0 0 1 0 0
      FADEOUT 1 0 0 1 0 0
      MUTE 0
      SEL 0
      YPOS 0.25 0.125
      IGUID {EBB645DF-CD57-5B48-9534-BFF4FE888676}
      IID 3
      NAME "L.H.                 - National_Anthems_-_China.mid"
      VOLPAN 1 0 1 -1
      SOFFS 0 0
      PLAYRATE 1 1 0 -1 0 0.0025
      CHANMODE 0
      TAKECOLOR 26173599
      GUID {31A4A793-D416-FD44-A498-20672BBC9774}
      <SOURCE MIDI
        HASDATA 1 192 QN
        POOLEDEVTS {0310BBF3-6696-C447-9EC4-C2B485F28AB7}
        <X 0 0
          /wNMLkguICAgICAgICAgICAgICAgIA==
        >
        E 0 92 37 64
        E 0 92 3b 64
        E 0 92 3e 64
        E 274 82 37 40
        E 0 82 3b 40
        E 0 82 3e 40
        E 14 92 3e 64
        E 0 92 3b 64
        E 0 92 37 64
        E 82 82 3e 40
        E 0 82 3b 40
        E 0 82 37 40
        E 14 92 37 64
        E 0 92 40 64
        E 0 92 3c 64
        E 178 82 37 40
        E 0 82 40 40
        E 0 82 3c 40
        E 14 92 3e 64
        E 0 92 3b 64
        E 0 92 37 64
        E 178 82 3e 40
        E 0 82 3b 40
        E 0 82 37 40
        E 14 92 3e 64
        E 0 92 3b 64
        E 0 92 37 64
        E 178 82 3e 40
        E 0 82 3b 40
        E 0 82 37 40
        E 14 92 32 64
        E 0 92 39 64
        E 50 82 32 40
        E 0 82 39 40
        E 14 92 32 64
        E 0 92 39 64
        E 50 82 32 40
        E 0 82 39 40
        E 14 92 39 64
        E 0 92 32 64
        E 50 82 39 40
        E 0 82 32 40
        E 14 92 37 64
        E 0 92 3b 64
        E 370 82 37 40
        E 0 82 3b 40
        E 14 92 37 64
        E 0 92 3b 64
        E 178 82 37 40
        E 0 82 3b 40
        E 14 92 32 64
        E 0 92 39 64
        E 178 82 32 40
        E 0 82 39 40
        E 14 92 37 64
        E 0 92 3b 64
        E 370 82 37 40
        E 0 82 3b 40
        E 14 92 37 64
        E 0 92 2f 64
        E 274 82 37 40
        E 0 82 2f 40
        E 14 92 2f 64
        E 0 92 37 64
        E 82 82 2f 40
        E 0 82 37 40
        E 14 92 2f 64
        E 0 92 37 64
        E 178 82 2f 40
        E 0 82 37 40
        E 14 92 32 64
        E 0 92 39 64
        E 178 82 32 40
        E 0 82 39 40
        E 14 92 37 64
        E 0 92 3b 64
        E 178 82 37 40
        E 0 82 3b 40
        E 14 92 3b 64
        E 0 92 37 64
        E 178 82 3b 40
        E 0 82 37 40
        E 398 92 37 64
        E 0 92 3e 64
        E 0 92 3b 64
        E 178 82 37 40
        E 0 82 3e 40
        E 0 82 3b 40
        E 14 92 3b 64
        E 0 92 3e 64
        E 0 92 37 64
        E 178 82 3b 40
        E 0 82 3e 40
        E 0 82 37 40
        E 14 92 3b 64
        E 0 92 37 64
        E 0 92 3e 64
        E 514 82 3b 40
        E 0 82 37 40
        E 0 82 3e 40
        E 14 92 37 64
        E 0 92 3b 64
        E 34 82 37 40
        E 0 82 3b 40
        E 14 92 32 64
        E 0 92 39 64
        E 178 82 32 40
        E 0 82 39 40
        E 14 92 30 64
        E 0 92 34 64
        E 0 92 39 64
        E 370 82 30 40
        E 0 82 34 40
        E 0 82 39 40
        E 14 92 36 64
        E 0 92 30 64
        E 0 92 39 64
        E 178 82 36 40
        E 0 82 30 40
        E 0 82 39 40
        E 14 92 2f 64
        E 0 92 37 64
        E 178 82 2f 40
        E 0 82 37 40
        E 14 92 32 64
        E 0 92 39 64
        E 178 82 32 40
        E 0 82 39 40
        E 14 92 3b 64
        E 0 92 37 64
        E 178 82 3b 40
        E 0 82 37 40
        E 14 92 2b 64
        E 0 92 32 64
        E 946 82 2b 40
        E 0 82 32 40
        E 206 92 37 64
        E 274 82 37 40
        E 14 92 36 64
        E 82 82 36 40
        E 14 92 34 64
        E 178 82 34 40
        E 14 92 36 64
        E 178 82 36 40
        E 14 92 37 64
        E 562 82 37 40
        E 14 92 36 64
        E 178 82 36 40
        E 14 92 2f 64
        E 0 92 37 64
        E 274 82 2f 40
        E 0 82 37 40
        E 14 92 2f 64
        E 0 92 37 64
        E 82 82 2f 40
        E 0 82 37 40
        E 14 92 2b 64
        E 0 92 37 64
        E 0 92 32 64
        E 274 82 2b 40
        E 0 82 37 40
        E 0 82 32 40
        E 14 92 2b 64
        E 0 92 32 64
        E 0 92 37 64
        E 82 82 2b 40
        E 0 82 32 40
        E 0 82 37 40
        E 14 92 39 64
        E 0 92 32 64
        E 370 82 39 40
        E 0 82 32 40
        E 14 92 3b 64
        E 0 92 3e 64
        E 0 92 37 64
        E 274 82 3b 40
        E 0 82 3e 40
        E 0 82 37 40
        E 14 92 37 64
        E 0 92 3e 64
        E 0 92 3b 64
        E 82 82 37 40
        E 0 82 3e 40
        E 0 82 3b 40
        E 14 92 40 64
        E 0 92 3c 64
        E 0 92 37 64
        E 178 82 40 40
        E 0 82 3c 40
        E 0 82 37 40
        E 14 92 37 64
        E 0 92 3e 64
        E 0 92 3b 64
        E 178 82 37 40
        E 0 82 3e 40
        E 0 82 3b 40
        E 14 92 3b 64
        E 0 92 3e 64
        E 0 92 37 64
        E 178 82 3b 40
        E 0 82 3e 40
        E 0 82 37 40
        E 14 92 32 64
        E 0 92 39 64
        E 50 82 32 40
        E 0 82 39 40
        E 14 92 32 64
        E 0 92 39 64
        E 50 82 32 40
        E 0 82 39 40
        E 14 92 32 64
        E 0 92 39 64
        E 50 82 32 40
        E 0 82 39 40
        E 14 92 3b 64
        E 0 92 37 64
        E 370 82 3b 40
        E 0 82 37 40
        E 14 92 3b 64
        E 0 92 37 64
        E 562 82 3b 40
        E 0 82 37 40
        E 14 92 32 64
        E 0 92 39 64
        E 50 82 32 40
        E 0 82 39 40
        E 14 92 39 64
        E 0 92 32 64
        E 50 82 39 40
        E 0 82 32 40
        E 14 92 32 64
        E 0 92 39 64
        E 50 82 32 40
        E 0 82 39 40
        E 14 92 37 64
        E 0 92 3b 64
        E 370 82 37 40
        E 0 82 3b 40
        E 14 92 37 64
        E 0 92 2b 64
        E 0 92 32 64
        E 370 82 37 40
        E 0 82 2b 40
        E 0 82 32 40
        E 14 92 32 64
        E 0 92 37 64
        E 0 92 2b 64
        E 370 82 32 40
        E 0 82 37 40
        E 0 82 2b 40
        E 14 92 37 64
        E 0 92 32 64
        E 0 92 2b 64
        E 370 82 37 40
        E 0 82 32 40
        E 0 82 2b 40
        E 14 92 37 64
        E 0 92 32 64
        E 0 92 2b 64
        E 178 82 37 40
        E 0 82 32 40
        E 0 82 2b 40
        E 14 b0 7b 00
        GUID {A504E849-C384-5045-A5A2-5CF34FD26673}
        IGNTEMPO 0 120 4 4
        SRCCOLOR 655
        VELLANE -1 86 6
      >
      TAKE
      NAME "L.H.                 - National_Anthems_-_China.mid"
      TAKEVOLPAN 0 1 -1
      SOFFS 0 0
      PLAYRATE 1 1 0 -1 0 0.0025
      CHANMODE 0
      GUID {A3DE7461-61F4-7240-8206-23F81FBFC112}
      <SOURCE MIDI
        HASDATA 1 192 QN
        POOLEDEVTS {50457065-3DB8-9441-B750-8BC8463A8FB8}
        <X 0 0
          /wNMLkguICAgICAgICAgICAgICAgIA==
        >
        E 0 92 37 64
        E 0 92 3b 64
        E 0 92 3e 64
        E 274 82 37 40
        E 0 82 3b 40
        E 0 82 3e 40
        E 14 92 3e 64
        E 0 92 3b 64
        E 0 92 37 64
        E 82 82 3e 40
        E 0 82 3b 40
        E 0 82 37 40
        E 14 92 37 64
        E 0 92 40 64
        E 0 92 3c 64
        E 178 82 37 40
        E 0 82 40 40
        E 0 82 3c 40
        E 14 92 3e 64
        E 0 92 3b 64
        E 0 92 37 64
        E 178 82 3e 40
        E 0 82 3b 40
        E 0 82 37 40
        E 14 92 3e 64
        E 0 92 3b 64
        E 0 92 37 64
        E 178 82 3e 40
        E 0 82 3b 40
        E 0 82 37 40
        E 14 92 32 64
        E 0 92 39 64
        E 50 82 32 40
        E 0 82 39 40
        E 14 92 32 64
        E 0 92 39 64
        E 50 82 32 40
        E 0 82 39 40
        E 14 92 39 64
        E 0 92 32 64
        E 50 82 39 40
        E 0 82 32 40
        E 14 92 37 64
        E 0 92 3b 64
        E 370 82 37 40
        E 0 82 3b 40
        E 14 92 37 64
        E 0 92 3b 64
        E 178 82 37 40
        E 0 82 3b 40
        E 14 92 32 64
        E 0 92 39 64
        E 178 82 32 40
        E 0 82 39 40
        E 14 92 37 64
        E 0 92 3b 64
        E 370 82 37 40
        E 0 82 3b 40
        E 14 92 37 64
        E 0 92 2f 64
        E 274 82 37 40
        E 0 82 2f 40
        E 14 92 2f 64
        E 0 92 37 64
        E 82 82 2f 40
        E 0 82 37 40
        E 14 92 2f 64
        E 0 92 37 64
        E 178 82 2f 40
        E 0 82 37 40
        E 14 92 32 64
        E 0 92 39 64
        E 178 82 32 40
        E 0 82 39 40
        E 14 92 37 64
        E 0 92 3b 64
        E 178 82 37 40
        E 0 82 3b 40
        E 14 92 3b 64
        E 0 92 37 64
        E 178 82 3b 40
        E 0 82 37 40
        E 398 92 37 64
        E 0 92 3e 64
        E 0 92 3b 64
        E 178 82 37 40
        E 0 82 3e 40
        E 0 82 3b 40
        E 14 92 3b 64
        E 0 92 3e 64
        E 0 92 37 64
        E 178 82 3b 40
        E 0 82 3e 40
        E 0 82 37 40
        E 14 92 3b 64
        E 0 92 37 64
        E 0 92 3e 64
        E 514 82 3b 40
        E 0 82 37 40
        E 0 82 3e 40
        E 14 92 37 64
        E 0 92 3b 64
        E 34 82 37 40
        E 0 82 3b 40
        E 14 92 32 64
        E 0 92 39 64
        E 178 82 32 40
        E 0 82 39 40
        E 14 92 30 64
        E 0 92 34 64
        E 0 92 39 64
        E 370 82 30 40
        E 0 82 34 40
        E 0 82 39 40
        E 14 92 36 64
        E 0 92 30 64
        E 0 92 39 64
        E 178 82 36 40
        E 0 82 30 40
        E 0 82 39 40
        E 14 92 2f 64
        E 0 92 37 64
        E 178 82 2f 40
        E 0 82 37 40
        E 14 92 32 64
        E 0 92 39 64
        E 178 82 32 40
        E 0 82 39 40
        E 14 92 3b 64
        E 0 92 37 64
        E 178 82 3b 40
        E 0 82 37 40
        E 14 92 2b 64
        E 0 92 32 64
        E 946 82 2b 40
        E 0 82 32 40
        E 206 92 37 64
        E 274 82 37 40
        E 14 92 36 64
        E 82 82 36 40
        E 14 92 34 64
        E 178 82 34 40
        E 14 92 36 64
        E 178 82 36 40
        E 14 92 37 64
        E 562 82 37 40
        E 14 92 36 64
        E 178 82 36 40
        E 14 92 2f 64
        E 0 92 37 64
        E 274 82 2f 40
        E 0 82 37 40
        E 14 92 2f 64
        E 0 92 37 64
        E 82 82 2f 40
        E 0 82 37 40
        E 14 92 2b 64
        E 0 92 37 64
        E 0 92 32 64
        E 274 82 2b 40
        E 0 82 37 40
        E 0 82 32 40
        E 14 92 2b 64
        E 0 92 32 64
        E 0 92 37 64
        E 82 82 2b 40
        E 0 82 32 40
        E 0 82 37 40
        E 14 92 39 64
        E 0 92 32 64
        E 370 82 39 40
        E 0 82 32 40
        E 14 92 3b 64
        E 0 92 3e 64
        E 0 92 37 64
        E 274 82 3b 40
        E 0 82 3e 40
        E 0 82 37 40
        E 14 92 37 64
        E 0 92 3e 64
        E 0 92 3b 64
        E 82 82 37 40
        E 0 82 3e 40
        E 0 82 3b 40
        E 14 92 40 64
        E 0 92 3c 64
        E 0 92 37 64
        E 178 82 40 40
        E 0 82 3c 40
        E 0 82 37 40
        E 14 92 37 64
        E 0 92 3e 64
        E 0 92 3b 64
        E 178 82 37 40
        E 0 82 3e 40
        E 0 82 3b 40
        E 14 92 3b 64
        E 0 92 3e 64
        E 0 92 37 64
        E 178 82 3b 40
        E 0 82 3e 40
        E 0 82 37 40
        E 14 92 32 64
        E 0 92 39 64
        E 50 82 32 40
        E 0 82 39 40
        E 14 92 32 64
        E 0 92 39 64
        E 50 82 32 40
        E 0 82 39 40
        E 14 92 32 64
        E 0 92 39 64
        E 50 82 32 40
        E 0 82 39 40
        E 14 92 3b 64
        E 0 92 37 64
        E 370 82 3b 40
        E 0 82 37 40
        E 14 92 3b 64
        E 0 92 37 64
        E 562 82 3b 40
        E 0 82 37 40
        E 14 92 32 64
        E 0 92 39 64
        E 50 82 32 40
        E 0 82 39 40
        E 14 92 39 64
        E 0 92 32 64
        E 50 82 39 40
        E 0 82 32 40
        E 14 92 32 64
        E 0 92 39 64
        E 50 82 32 40
        E 0 82 39 40
        E 14 92 37 64
        E 0 92 3b 64
        E 370 82 37 40
        E 0 82 3b 40
        E 14 92 37 64
        E 0 92 2b 64
        E 0 92 32 64
        E 370 82 37 40
        E 0 82 2b 40
        E 0 82 32 40
        E 14 92 32 64
        E 0 92 37 64
        E 0 92 2b 64
        E 370 82 32 40
        E 0 82 37 40
        E 0 82 2b 40
        E 14 92 37 64
        E 0 92 32 64
        E 0 92 2b 64
        E 370 82 37 40
        E 0 82 32 40
        E 0 82 2b 40
        E 14 92 37 64
        E 0 92 32 64
        E 0 92 2b 64
        E 178 82 37 40
        E 0 82 32 40
        E 0 82 2b 40
        E 14 b0 7b 00
        GUID {F89CF315-DF78-0741-98C4-1907151011DB}
        IGNTEMPO 0 120 4 4
        SRCCOLOR 904
        VELLANE -1 86 6
      >
    >
  >
  <TRACK {EF869DFD-FA85-EE4D-A133-ABEE14D1B7D0}
    NAME "ch5 (send bass)"
    PEAKCOL 16576
    BEAT -1
    AUTOMODE 0
    VOLPAN 1 0 -1 -1 1
    MUTESOLO 0 0 0
    IPHASE 0
    ISBUS 2 -1
    BUSCOMP 0 0
    SHOWINMIX 1 0.6667 0.5 1 0.5 -1 -1 -1
    FREEMODE 0
    SEL 1
    REC 0 0 0 0 0 0 0
    VU 2
    TRACKHEIGHT 0 0
    INQ 0 0 0 0.5 100 0 0 100
    NCHAN 2
    FX 1
    TRACKID {EF869DFD-FA85-EE4D-A133-ABEE14D1B7D0}
    PERF 0
    MIDIOUT -1
    MAINSEND 1 0
    <ITEM
      POSITION 0
      SNAPOFFS 0
      LENGTH 36.5
      LOOP 1
      ALLTAKES 0
      FADEIN 1 0 0 1 0 0
      FADEOUT 1 0 0 1 0 0
      MUTE 0
      SEL 0
      YPOS 0.375 0.125
      IGUID {29F0561A-4C10-FC4A-ACBD-4B3583B9B4C8}
      IID 4
      NAME "BASS                 - National_Anthems_-_China.mid"
      VOLPAN 1 0 1 -1
      SOFFS 0 0
      PLAYRATE 1 1 0 -1 0 0.0025
      CHANMODE 0
      TAKECOLOR 26173599
      GUID {8CDA0343-C837-3C49-8DF0-39FC4B4C6FC1}
      <SOURCE MIDI
        HASDATA 1 192 QN
        POOLEDEVTS {466003FE-ACF4-3F4A-88B8-289F9FDB289A}
        <X 0 0
          /wNCQVNTICAgICAgICAgICAgICAgIA==
        >
        e 0 90 2b 64
        e 274 80 2b 40
        e 14 90 2b 64
        e 82 80 2b 40
        e 14 90 2b 64
        e 178 80 2b 40
        e 14 90 2b 64
        e 178 80 2b 40
        e 14 90 2b 64
        e 178 80 2b 40
        e 14 90 26 64
        e 50 80 26 40
        e 14 90 26 64
        e 50 80 26 40
        e 14 90 26 64
        e 50 80 26 40
        e 14 90 2b 64
        e 370 80 2b 40
        e 14 90 2b 64
        e 178 80 2b 40
        e 14 90 26 64
        e 178 80 26 40
        e 14 90 2b 64
        e 178 80 2b 40
        e 206 90 2f 64
        e 274 80 2f 40
        e 14 90 2f 64
        e 82 80 2f 40
        e 14 90 2f 64
        e 178 80 2f 40
        e 14 90 32 64
        e 178 80 32 40
        e 14 90 37 64
        e 178 80 37 40
        e 14 90 37 64
        e 178 80 37 40
        e 398 90 2b 64
        e 178 80 2b 40
        e 14 90 2b 64
        e 178 80 2b 40
        e 14 90 2b 64
        e 370 80 2b 40
        e 206 90 26 64
        e 178 80 26 40
        e 14 90 24 64
        e 370 80 24 40
        e 14 90 30 64
        e 178 80 30 40
        e 14 90 2f 64
        e 178 80 2f 40
        e 14 90 32 64
        e 178 80 32 40
        e 14 90 37 64
        e 178 80 37 40
        e 14 90 2b 64
        e 370 80 2b 40
        e 14 90 2b 64
        e 370 80 2b 40
        e 14 90 2b 64
        e 178 80 2b 40
        e 206 90 37 64
        e 274 80 37 40
        e 14 90 36 64
        e 82 80 36 40
        e 14 90 34 64
        e 178 80 34 40
        e 14 90 36 64
        e 178 80 36 40
        e 14 90 37 64
        e 562 80 37 40
        e 14 90 36 64
        e 178 80 36 40
        e 14 90 2f 64
        e 274 80 2f 40
        e 14 90 2f 64
        e 82 80 2f 40
        e 14 90 2b 64
        e 274 80 2b 40
        e 14 90 2b 64
        e 82 80 2b 40
        e 14 90 32 64
        e 370 80 32 40
        e 14 90 37 64
        e 274 80 37 40
        e 14 90 37 64
        e 82 80 37 40
        e 14 90 37 64
        e 178 80 37 40
        e 14 90 37 64
        e 178 80 37 40
        e 14 90 37 64
        e 178 80 37 40
        e 14 90 32 64
        e 50 80 32 40
        e 14 90 32 64
        e 50 80 32 40
        e 14 90 32 64
        e 50 80 32 40
        e 14 90 2b 64
        e 370 80 2b 40
        e 14 90 2b 64
        e 562 80 2b 40
        e 14 90 32 64
        e 114 80 32 40
        e 14 90 32 64
        e 50 80 32 40
        e 14 90 37 64
        e 370 80 37 40
        e 14 90 2b 64
        e 370 80 2b 40
        e 14 90 2b 64
        e 370 80 2b 40
        e 14 90 2b 64
        e 370 80 2b 40
        e 14 90 2b 64
        e 178 80 2b 40
        E 14 b0 7b 00
        GUID {D0447611-4F1D-C646-A36E-1EE83C01B223}
        IGNTEMPO 0 120 4 4
        SRCCOLOR 656
        VELLANE -1 86 6
        CFGEDITVIEW 2180.430894 1.497595 33 20 0 0 0 0 0
        KEYSNAP 0 3 102304056070 0 "Natural minor"
        TRACKSEL 226 0 0 ""
        EVTFILTER 16 -1 -1 -1 -1 4 1 0 0 -1 -1 -1 -1 0 -1 0 -1 -1
        CFGEDIT 1 0 0 0 0 0 1 0 5 1 1 0.25 16 63 1280 778 0 0 2 3 0 0 0 0 0 0.5 0 0 1 64
      >
      TAKE
      NAME "BASS                 - National_Anthems_-_China.mid"
      TAKEVOLPAN 0 1 -1
      SOFFS 0 0
      PLAYRATE 1 1 0 -1 0 0.0025
      CHANMODE 0
      GUID {0B85B17E-1A67-A144-81CE-F9B023202D7E}
      <SOURCE MIDI
        HASDATA 1 192 QN
        POOLEDEVTS {CA58649C-4B0B-484A-892E-4C8C0644F138}
        <X 0 0
          /wNCQVNTICAgICAgICAgICAgICAgIA==
        >
        e 0 90 2b 64
        e 274 80 2b 40
        e 14 90 2b 64
        e 82 80 2b 40
        e 14 90 2b 64
        e 178 80 2b 40
        e 14 90 2b 64
        e 178 80 2b 40
        e 14 90 2b 64
        e 178 80 2b 40
        e 14 90 26 64
        e 50 80 26 40
        e 14 90 26 64
        e 50 80 26 40
        e 14 90 26 64
        e 50 80 26 40
        e 14 90 2b 64
        e 370 80 2b 40
        e 14 90 2b 64
        e 178 80 2b 40
        e 14 90 26 64
        e 178 80 26 40
        e 14 90 2b 64
        e 178 80 2b 40
        e 206 90 2f 64
        e 274 80 2f 40
        e 14 90 2f 64
        e 82 80 2f 40
        e 14 90 2f 64
        e 178 80 2f 40
        e 14 90 32 64
        e 178 80 32 40
        e 14 90 37 64
        e 178 80 37 40
        e 14 90 37 64
        e 178 80 37 40
        e 398 90 2b 64
        e 178 80 2b 40
        e 14 90 2b 64
        e 178 80 2b 40
        e 14 90 2b 64
        e 370 80 2b 40
        e 206 90 26 64
        e 178 80 26 40
        e 14 90 24 64
        e 370 80 24 40
        e 14 90 30 64
        e 178 80 30 40
        e 14 90 2f 64
        e 178 80 2f 40
        e 14 90 32 64
        e 178 80 32 40
        e 14 90 37 64
        e 178 80 37 40
        e 14 90 2b 64
        e 370 80 2b 40
        e 14 90 2b 64
        e 370 80 2b 40
        e 14 90 2b 64
        e 178 80 2b 40
        e 206 90 37 64
        e 274 80 37 40
        e 14 90 36 64
        e 82 80 36 40
        e 14 90 34 64
        e 178 80 34 40
        e 14 90 36 64
        e 178 80 36 40
        e 14 90 37 64
        e 562 80 37 40
        e 14 90 36 64
        e 178 80 36 40
        e 14 90 2f 64
        e 274 80 2f 40
        e 14 90 2f 64
        e 82 80 2f 40
        e 14 90 2b 64
        e 274 80 2b 40
        e 14 90 2b 64
        e 82 80 2b 40
        e 14 90 32 64
        e 370 80 32 40
        e 14 90 37 64
        e 274 80 37 40
        e 14 90 37 64
        e 82 80 37 40
        e 14 90 37 64
        e 178 80 37 40
        e 14 90 37 64
        e 178 80 37 40
        e 14 90 37 64
        e 178 80 37 40
        e 14 90 32 64
        e 50 80 32 40
        e 14 90 32 64
        e 50 80 32 40
        e 14 90 32 64
        e 50 80 32 40
        e 14 90 2b 64
        e 370 80 2b 40
        e 14 90 2b 64
        e 562 80 2b 40
        e 14 90 32 64
        e 114 80 32 40
        e 14 90 32 64
        e 50 80 32 40
        e 14 90 37 64
        e 370 80 37 40
        e 14 90 2b 64
        e 370 80 2b 40
        e 14 90 2b 64
        e 370 80 2b 40
        e 14 90 2b 64
        e 370 80 2b 40
        e 14 90 2b 64
        e 178 80 2b 40
        E 14 b0 7b 00
        GUID {8345A1AF-DE69-5F49-B0E1-ECA80923C99D}
        IGNTEMPO 0 120 4 4
        SRCCOLOR 901
        VELLANE -1 86 6
        CFGEDITVIEW 0 0 33 20 0 0 0 0 0
        KEYSNAP 0 3 102304056070 0 "Natural minor"
        TRACKSEL 226 0 0 ""
        EVTFILTER 16 -1 -1 -1 -1 4 1 0 0 -1 -1 -1 -1 0 -1 0 -1 -1
        CFGEDIT 1 0 0 0 0 0 1 0 5 1 1 0.25 16 63 1280 778 0 0 2 3 0 0 0 0 0 0.5 0 0 1 64
      >
    >
  >
  <TRACK {97C14EE2-C273-C940-9D68-54C062C3CBCA}
    NAME ChipFront
    PEAKCOL 16576
    BEAT -1
    AUTOMODE 0
    VOLPAN 1 0 -1 -1 1
    MUTESOLO 0 0 0
    IPHASE 0
    ISBUS 0 0
    BUSCOMP 0 0
    SHOWINMIX 1 0.6667 0.5 1 0.5 -1 -1 -1
    FREEMODE 0
    SEL 0
    REC 0 0 0 0 0 0 0
    VU 2
    TRACKHEIGHT 0 0
    INQ 0 0 0 0.5 100 0 0 100
    NCHAN 4
    FX 1
    TRACKID {97C14EE2-C273-C940-9D68-54C062C3CBCA}
    PERF 0
    AUXRECV 6 0 1 0 0 0 0 0 0 -1 0 -1 ''
    MIDIOUT -1
    MAINSEND 1 0
    <FXCHAIN
      SHOW 0
      LASTSEL 0
      DOCKED 0
      BYPASS 0 0 0
      <VST "VST: FabFilter Volcano 2 (SC) (FabFilter)" "FabFilter Volcano 2 (SC).vst" 0 "" 1180054068
        NDJWRu9e7f4EAAAAAQAAAAAAAAACAAAAAAAAAAQAAAAAAAAACAAAAAAAAAAEAAAAAQAAAAAAAAACAAAAAAAAAAQAAAAAAAAACAAAAAAAAADcCwAAAAAAAAAAEADvvq3e
        DfCt3gAAAD8AAAA/AAAAPwAAAD8AAIA/AAAAAAAAAD+rqqo+rb5oPwAAAD+KDTI8zczMPQAAAAAAAAAAAAAAAAAAgD8AAIA/Qix2PwAAAD9tsOA9mpkZPwAAAAAAAAAA
        56/fPAAAgD8AAAAAAACAPwAAAD8AAAAAmpkZPwAAAAAAAAAAAAAAAAAAgD8AAAAAAACAPwAAAD8AAAAAmpkZPwAAAAAAAAAAAAAAAAAAgD8AAAAAq6qqPgBOsj4AAAA/
        AAAAAMHKST9ddFE/AAAAAImIiD0AAIA/qheIPgAAAAAAAAAAAAAAAAAAAAAAAIA/AAAAAAAAAD8AAAAAAAAAAAAAAAAAAAA/AAAAAAAAAAAAAAAAAAAAPwAAAAAAAAAA
        AAAAAAAAAD8AAAAAAAAAAAAAAAAAAAA/AAAAAAAAAAAAAAAAAAAAPwAAAAAAAAAAAAAAAAAAAD8AAAAAAAAAAAAAAAAAAAA/AAAAAAAAAAAAAAAAAAAAPwAAAAAAAAAA
        AAAAAAAAAD8AAAAAAAAAAAAAAAAAAAA/AAAAAAAAAAAAAAAAAAAAPwAAAAAAAAAAAAAAAAAAAD8AAAAAAAAAAAAAAAAAAAA/AAAAAAAAAAAAAAAAfBkQPgAAAD8oo7c9
        AACAPwAAAAAAAAAAiYiIPfLSJT8AAAAAAACAPwAAAAB0aNE9AAAAAAAAgD8AAAAAAAAAPwAAAAAAAAAAAAAAAAAAAD8AAAAAAAAAAAAAAAAAAAA/AAAAAAAAAAAAAAAA
        AAAAPwAAAAAAAAAAAAAAAAAAAD8AAAAAAAAAAAAAAAAAAAA/AAAAAAAAAAAAAAAAAAAAPwAAAAAAAAAAAAAAAAAAAD8AAAAAAAAAAAAAAAAAAAA/AAAAAAAAAAAAAAAA
        AAAAPwAAAAAAAAAAAAAAAAAAAD8AAAAAAAAAAAAAAAAAAAA/AAAAAAAAAAAAAAAAAAAAPwAAAAAAAAAAAAAAAAAAAD8AAAAAAAAAAAAAAAC+9H0+AAAAPwAAAD8AAAA/
        AAAAAAAAAACJiIg9AAAAPwAAAAAAAAAAAAAAAAAAAD8AAAAAAAAAAAAAAAAAAAA/AAAAAAAAAAAAAAAAAAAAPwAAAAAAAAAAAAAAAAAAAD8AAAAAAAAAAAAAAAAAAAA/
        AAAAAAAAAAAAAAAAAAAAPwAAAAAAAAAAAAAAAAAAAD8AAAAAAAAAAAAAAAAAAAA/AAAAAAAAAAAAAAAAAAAAPwAAAAAAAAAAAAAAAAAAAD8AAAAAAAAAAAAAAAAAAAA/
        AAAAAAAAAAAAAAAAAAAAPwAAAAAAAAAAAAAAAAAAAD8AAAAAAAAAAAAAAAAAAAA/AAAAAAAAAAAAAAAAAAAAPwAAAAAAAAAAAAAAAL70fT4AAAA/AAAAPwAAAD8AAAAA
        AAAAAImIiD0AAAA/AAAAAAAAAAAAAAAAAAAAPwAAAAAAAAAAAAAAAAAAAD8AAAAAAAAAAAAAAAAAAAA/AAAAAAAAAAAAAAAAAAAAPwAAAAAAAAAAAAAAAAAAAD8AAAAA
        AAAAAAAAAAAAAAA/AAAAAAAAAAAAAAAAAAAAPwAAAAAAAAAAAAAAAAAAAD8AAAAAAAAAAAAAAAAAAAA/AAAAAAAAAAAAAAAAAAAAPwAAAAAAAAAAAAAAAAAAAD8AAAAA
        AAAAAAAAAAAAAAA/AAAAAAAAAAAAAAAAAAAAPwAAAAAAAAAAAAAAAAAAAD8AAAAAAAAAAAAAAAAAAAA/AAAAAAAAAAAAAAAAvvR9PgAAAD8AAAA/AAAAPwAAAAAAAAAA
        iYiIPQAAAD8AAAAAAAAAAAAAAAAAAAA/AAAAAAAAAAAAAAAAAAAAPwAAAAAAAAAAAAAAAAAAAD8AAAAAAAAAAAAAAAAAAAA/AAAAAAAAAAAAAAAAAAAAPwAAAAAAAAAA
        AAAAAAAAAD8AAAAAAAAAAAAAAAAAAAA/AAAAAAAAAAAAAAAAAAAAPwAAAAAAAAAAAAAAAAAAAD8AAAAAAAAAAAAAAAAAAAA/AAAAAAAAAAAAAAAAAAAAPwAAAAAAAAAA
        AAAAAAAAAD8AAAAAAAAAAAAAAAAAAAA/AAAAAAAAAAAAAAAAAAAAPwAAAAAAAAAAAAAAAAAAAD8AAAAAAAAAAAAAAAC+9H0+AAAAPwAAAD8AAAA/AAAAAAAAAACJiIg9
        AAAAPwAAAAAAAAAAAAAAAAAAAD8AAAAAAAAAAAAAAAAAAAA/AAAAAAAAAAAAAAAAAAAAPwAAAAAAAAAAAAAAAAAAAD8AAAAAAAAAAAAAAAAAAAA/AAAAAAAAAAAAAAAA
        AAAAPwAAAAAAAAAAAAAAAAAAAD8AAAAAAAAAAAAAAAAAAAA/AAAAAAAAAAAAAAAAAAAAPwAAAAAAAAAAAAAAAAAAAD8AAAAAAAAAAAAAAAAAAAA/AAAAAAAAAAAAAAAA
        AAAAPwAAAAAAAAAAAAAAAAAAAD8AAAAAAAAAAAAAAAAAAAA/AAAAAAAAAAAAAAAAAAAAPwAAAAAAAAAAAAAAAAAAAACamZk+AAAAAAAAAAAAAAAAAACAPwAAAACamZk+
        AAAAAAAAAAAAAAAAAACAPwAAAACamZk+AAAAAAAAAAAAAAAAAACAPwAAAACamZk+AAAAAAAAAAAAAAAAAACAPwAAAACamZk+AAAAAAAAAAAAAAAAAACAPwAAAACamZk+
        AAAAAAAAAAAAAAAAAACAPwAAAAAAAAAAAAAAAAAAAAAAAAAAAAAAAAAAAAAAAAAAAAAAAAAAAAAAAAAAAAAAAAAAAAAAAAAAAAAAAAAAAAAAAAAAAAAAAAAAAAAAAAAA
        AAAAAAAAAAAAAAAAAAAAAAAAAAAAAAAAAAAAAAAAAAAAAAAAAAAAAAAAAAAAAAAAAAAAAAAAAAAAAAAAAAAAAAAAAAAAAAAAq6oqPdmJnT2BKFY+AAAAAAAAAAC/55Y9
        AAAAAAAAAD8AAAAAAAAAAAAAAAAAAAAAAAAAPwAAAAAAAAAAAAAAAAAAAAAAAAA/AAAAAAAAAAAAAAAAAAAAAAAAAAAAAAAAAAAAAAAAAAAAAAAAAAAAAAAAAAAAAAAA
        AAAAAAAAAAAAAAAAAAAAAAAAAAAAAAAAAAAAAAAAAAAAAAAAAAAAAAAAAAAAAAAAAAAAAAAAAAAAAAAAAAAAAAAAAAAAAAAAAAAAAAAAAAAAAAAAAAAAAAAAAAAAAAAA
        AAAAAAAAAAAAAAAAAAAAAAAAAAAAAAAAAAAAAAAAAAAAAAAAAAAAAAAAAAAAAAAAAAAAAAAAAAAAAAAAAAAAAAAAAAAAAAAAAAAAAAAAAAAAAAAAAAAAAAAAAAAAAAAA
        AAAAAAAAAAAAAAAAAAAAAAAAAAAAAAAAAAAAAAAAAAAAAAAAAAAAAAAAAAAAAAAAAAAAAAAAAAAAAAAAAAAAAAAAAAAAAAAAAAAAAAAAAAAAAAAAAAAAAAAAAAAAAAAA
        AAAAAAAAAAAAAAAAAAAAAAAAAAAAAAAAAAAAAAAAAAAAAAAAAAAAAAAAAAAAAAAAAAAAAAAAAAAAAAAAAAAAAAAAAAAAAAAAAAAAAAAAAAAAAAA/AAAAPwAAAD8AAAA/
        AAAAPwAAAD8AAAA/AAAAPwAAAAAAAAAAAAAAAAAAAAAAAAAAAAAAAAAAAAAAAAAAAAAAAAAAAAAAAAAAAAAAAAAAAAAAAAAAAAAAAAAAAAAAAAAAAAAAAAAAAAAAAAAA
        AAAAAAAAAAAAAAAAAAAAAAAAAAAAAAAAAAAAAAAAAAAAAAAAAAAAAAAAAAAAAAAAAAAAAAAAAAAAAAAAAAAAAAAAAAAAAAAAAAAAAAAAAAAAAAAAAAAAAAAAAAAAAAAA
        AAAAAAAAAAAAAAAAAAAAAAAAAAAAAAAAAAAAAAAAAAAAAAAAAAAAAAAAAAAAAAAAAAAAAAAAAAAAAAAAAAAAAAAAAAAAAAAAAAAAAAAAAAAAAAAAAAAAAAAAAAAAAAAA
        AAAAAAAAAAAAAAAAAAAAAAAAAAAAAAAAAAAAAAAAAAAAAAAAAAAAAAAAAAAAAAAAAAAAAAAAAABDaGlwRnJvbnQAQ2hpcEZyb250ABAAAAA=
      >
      FLOATPOS 36 32 641 529
      FXID {4C5A6810-F3ED-0645-A06D-6758F70CB097}
      WAK 0
    >
  >
  <TRACK {1B564899-9ACC-8C4B-8FBF-925A5A247A13}
    NAME ChipSide
    PEAKCOL 16576
    BEAT -1
    AUTOMODE 0
    VOLPAN 1 0 -1 -1 1
    MUTESOLO 0 0 0
    IPHASE 0
    ISBUS 0 0
    BUSCOMP 0 0
    SHOWINMIX 1 0.6667 0.5 1 0.5 -1 -1 -1
    FREEMODE 0
    SEL 0
    REC 0 0 0 0 0 0 0
    VU 2
    TRACKHEIGHT 0 0
    INQ 0 0 0 0.5 100 0 0 100
    NCHAN 4
    FX 1
    TRACKID {1B564899-9ACC-8C4B-8FBF-925A5A247A13}
    PERF 0
    AUXRECV 6 0 1.03113579563571 0 0 0 0 2 0 -1 0 -1 ''
    MIDIOUT -1
    MAINSEND 1 0
    <FXCHAIN
      SHOW 0
      LASTSEL 0
      DOCKED 0
      BYPASS 0 0 0
      <VST "VST: FabFilter Volcano 2 (SC) (FabFilter)" "FabFilter Volcano 2 (SC).vst" 0 "" 1180054068
        NDJWRu9e7f4EAAAAAQAAAAAAAAACAAAAAAAAAAQAAAAAAAAACAAAAAAAAAAIAAAAAQAAAAAAAAACAAAAAAAAAAQAAAAAAAAACAAAAAAAAAAQAAAAAAAAACAAAAAAAAAA
        QAAAAAAAAACAAAAAAAAAANwLAAAAAAAAAAAQAO++rd4N8K3eAAAAPwAAAD8AAAA/AAAAPwAAgD8AAAAAAACAP6uqqj7KZRQ/AAAAP08aoD3NzMw9AAAAAAAAAABChiI/
        AACAPwAAgD9CLHY/AAAAP22w4D2amRk/AAAAAAAAAADnr988AACAPwAAAAAAAIA/AAAAPwAAAACamRk/AAAAAAAAAAAAAAAAAACAPwAAAAAAAIA/AAAAPwAAAACamRk/
        AAAAAAAAAAAAAAAAAACAPwAAAACrqqo+gnQAPRDmyT2YJ/o+AACAPwAAAAAAAAAAiYgIPgAAgD+zw7Q+AACAPwAAAAAAAAAAAAAAAKuqqj4AAAAAnhUdPwAAAAAAAIA/
        AAAAAAAAAD8AAAAAAAAAAAAAAAAAAAA/AAAAAAAAAAAAAAAAAAAAPwAAAAAAAAAAAAAAAAAAAD8AAAAAAAAAAAAAAAAAAAA/AAAAAAAAAAAAAAAAAAAAPwAAAAAAAAAA
        AAAAAAAAAD8AAAAAAAAAAAAAAAAAAAA/AAAAAAAAAAAAAAAAAAAAPwAAAAAAAAAAAAAAAAAAAD8AAAAAAAAAAAAAAAAAAAA/AAAAAAAAAAAAAAAAAAAAPwAAAAAAAAAA
        AAAAAAAAAD8AAAAAAAAAAAAAAAB8GRA+AAAAPyijtz0AAIA/AAAAAAAAAACJiIg98tIlPwAAAAAAAIA/AAAAAHRo0T0AAAAAAACAPwAAAAAAAAA/AAAAAAAAAAAAAAAA
        AAAAPwAAAAAAAAAAAAAAAAAAAD8AAAAAAAAAAAAAAAAAAAA/AAAAAAAAAAAAAAAAAAAAPwAAAAAAAAAAAAAAAAAAAD8AAAAAAAAAAAAAAAAAAAA/AAAAAAAAAAAAAAAA
        AAAAPwAAAAAAAAAAAAAAAAAAAD8AAAAAAAAAAAAAAAAAAAA/AAAAAAAAAAAAAAAAAAAAPwAAAAAAAAAAAAAAAAAAAD8AAAAAAAAAAAAAAAAAAAA/AAAAAAAAAAAAAAAA
        AAAAPwAAAAAAAAAAAAAAAL70fT4AAAA/AAAAPwAAAD8AAAAAAAAAAImIiD0AAAA/AAAAAAAAAAAAAAAAAAAAPwAAAAAAAAAAAAAAAAAAAD8AAAAAAAAAAAAAAAAAAAA/
        AAAAAAAAAAAAAAAAAAAAPwAAAAAAAAAAAAAAAAAAAD8AAAAAAAAAAAAAAAAAAAA/AAAAAAAAAAAAAAAAAAAAPwAAAAAAAAAAAAAAAAAAAD8AAAAAAAAAAAAAAAAAAAA/
        AAAAAAAAAAAAAAAAAAAAPwAAAAAAAAAAAAAAAAAAAD8AAAAAAAAAAAAAAAAAAAA/AAAAAAAAAAAAAAAAAAAAPwAAAAAAAAAAAAAAAAAAAD8AAAAAAAAAAAAAAAAAAAA/
        AAAAAAAAAAAAAAAAvvR9PgAAAD8AAAA/AAAAPwAAAAAAAAAAiYiIPQAAAD8AAAAAAAAAAAAAAAAAAAA/AAAAAAAAAAAAAAAAAAAAPwAAAAAAAAAAAAAAAAAAAD8AAAAA
        AAAAAAAAAAAAAAA/AAAAAAAAAAAAAAAAAAAAPwAAAAAAAAAAAAAAAAAAAD8AAAAAAAAAAAAAAAAAAAA/AAAAAAAAAAAAAAAAAAAAPwAAAAAAAAAAAAAAAAAAAD8AAAAA
        AAAAAAAAAAAAAAA/AAAAAAAAAAAAAAAAAAAAPwAAAAAAAAAAAAAAAAAAAD8AAAAAAAAAAAAAAAAAAAA/AAAAAAAAAAAAAAAAAAAAPwAAAAAAAAAAAAAAAAAAAD8AAAAA
        AAAAAAAAAAC+9H0+AAAAPwAAAD8AAAA/AAAAAAAAAACJiIg9AAAAPwAAAAAAAAAAAAAAAAAAAD8AAAAAAAAAAAAAAAAAAAA/AAAAAAAAAAAAAAAAAAAAPwAAAAAAAAAA
        AAAAAAAAAD8AAAAAAAAAAAAAAAAAAAA/AAAAAAAAAAAAAAAAAAAAPwAAAAAAAAAAAAAAAAAAAD8AAAAAAAAAAAAAAAAAAAA/AAAAAAAAAAAAAAAAAAAAPwAAAAAAAAAA
        AAAAAAAAAD8AAAAAAAAAAAAAAAAAAAA/AAAAAAAAAAAAAAAAAAAAPwAAAAAAAAAAAAAAAAAAAD8AAAAAAAAAAAAAAAAAAAA/AAAAAAAAAAAAAAAAAAAAPwAAAAAAAAAA
        AAAAAL70fT4AAAA/AAAAPwAAAD8AAAAAAAAAAImIiD0AAAA/AAAAAAAAAAAAAAAAAAAAPwAAAAAAAAAAAAAAAAAAAD8AAAAAAAAAAAAAAAAAAAA/AAAAAAAAAAAAAAAA
        AAAAPwAAAAAAAAAAAAAAAAAAAD8AAAAAAAAAAAAAAAAAAAA/AAAAAAAAAAAAAAAAAAAAPwAAAAAAAAAAAAAAAAAAAD8AAAAAAAAAAAAAAAAAAAA/AAAAAAAAAAAAAAAA
        AAAAPwAAAAAAAAAAAAAAAAAAAD8AAAAAAAAAAAAAAAAAAAA/AAAAAAAAAAAAAAAAAAAAPwAAAAAAAAAAAAAAAAAAAD8AAAAAAAAAAAAAAAAAAAA/AAAAAAAAAAAAAAAA
        AAAAAJqZmT4AAAAAAAAAAAAAAAAAAIA/AAAAAJqZmT4AAAAAAAAAAAAAAAAAAIA/AAAAAJqZmT4AAAAAAAAAAAAAAAAAAIA/AAAAAJqZmT4AAAAAAAAAAAAAAAAAAIA/
        AAAAAJqZmT4AAAAAAAAAAAAAAAAAAIA/AAAAAJqZmT4AAAAAAAAAAAAAAAAAAIA/AAAAAAAAAAAAAAAAAAAAAAAAAAAAAAAAAAAAAAAAAAAAAAAAAAAAAAAAAAAAAAAA
        AAAAAAAAAAAAAAAAAAAAAAAAAAAAAAAAAAAAAAAAAAAAAAAAAAAAAAAAAAAAAAAAAAAAAAAAAAAAAAAAAAAAAAAAAAAAAAAAAAAAAAAAAAAAAAAAAAAAAAAAAAAAAAAA
        AAAAAAAAAACrqqo92YmdPYEoVj4AAIA/AAAAAL/nlj3ZiR09FrMxPwAAAAAAAAAAknYsPAAAAAAAAAA/AAAAAAAAAAAAAAAAAAAAAAAAAD8AAAAAAAAAAAAAAAAAAAAA
        AAAAAAAAAAAAAAAAAAAAAAAAAAAAAAAAAAAAAAAAAAAAAAAAAAAAAAAAAAAAAAAAAAAAAAAAAAAAAAAAAAAAAAAAAAAAAAAAAAAAAAAAAAAAAAAAAAAAAAAAAAAAAAAA
        AAAAAAAAAAAAAAAAAAAAAAAAAAAAAAAAAAAAAAAAAAAAAAAAAAAAAAAAAAAAAAAAAAAAAAAAAAAAAAAAAAAAAAAAAAAAAAAAAAAAAAAAAAAAAAAAAAAAAAAAAAAAAAAA
        AAAAAAAAAAAAAAAAAAAAAAAAAAAAAAAAAAAAAAAAAAAAAAAAAAAAAAAAAAAAAAAAAAAAAAAAAAAAAAAAAAAAAAAAAAAAAAAAAAAAAAAAAAAAAAAAAAAAAAAAAAAAAAAA
        AAAAAAAAAAAAAAAAAAAAAAAAAAAAAAAAAAAAAAAAAAAAAAAAAAAAAAAAAAAAAAAAAAAAAAAAAAAAAAAAAAAAAAAAAAAAAAAAAAAAAAAAAAAAAAAAAAAAAAAAAAAAAAAA
        AAAAAAAAAAAAAAAAAAAAAAAAAD8AAAA/AAAAPwAAAD8AAAA/AAAAPwAAAD8AAAA/AAAAAAAAAAAAAAAAAAAAAAAAAAAAAAAAAAAAAAAAAAAAAAAAAAAAAAAAAAAAAAAA
        AAAAAAAAAAAAAAAAAAAAAAAAAAAAAAAAAAAAAAAAAAAAAAAAAAAAAAAAAAAAAAAAAAAAAAAAAAAAAAAAAAAAAAAAAAAAAAAAAAAAAAAAAAAAAAAAAAAAAAAAAAAAAAAA
        AAAAAAAAAAAAAAAAAAAAAAAAAAAAAAAAAAAAAAAAAAAAAAAAAAAAAAAAAAAAAAAAAAAAAAAAAAAAAAAAAAAAAAAAAAAAAAAAAAAAAAAAAAAAAAAAAAAAAAAAAAAAAAAA
        AAAAAAAAAAAAAAAAAAAAAAAAAAAAAAAAAAAAAAAAAAAAAAAAAAAAAAAAAAAAAAAAAAAAAAAAAAAAAAAAAAAAAAAAAAAAAAAAAAAAAAAAAAAAAAAAAAAAAENoaXBTaWRl
        AENoaXBTaWRlABAAAAA=
      >
      FLOATPOS 36 32 641 529
      FXID {20356A84-5CFD-6E4A-AA26-2A8A49CE7A76}
      WAK 0
    >
  >
  <EXTENSIONS
    <SWSAUTOCOLOR
      {00000000-0000-0000-0000-000000000000} 0 ""
    >
    <BR_CURSOR_POS 04
      0.00000000000000
    >
  >
>
