<REAPER_PROJECT 0.1 "5.71pre7/OSX64" 1515077433
  RIPPLE 0
  GROUPOVERRIDE 0 0 0
  AUTOXFADE 0
  ENVATTACH 1
  POOLEDENVATTACH 0
  MIXERUIFLAGS 11 436
  PEAKGAIN 1
  FEEDBACK 0
  PANLAW 1
  PROJOFFS 0 0
  MAXPROJLEN 0 600
  GRID 174206 8 1 8 1 0 0 0
  TIMEMODE 6 0 -1 24 2
  PANMODE 3
  CURSOR 0
  ZOOM 27.03177473191514 0 0
  VZOOMEX 0
  USE_REC_CFG 0
  RECMODE 1
  SMPTESYNC 0 23.976024 100 40 1000 300 0 0 1 0 0
  MIDIEDITOR -116919545 0 0
  LOOP 1
  LOOPGRAN 0 4
  RECORD_PATH "" ""
  <RECORD_CFG
    ZXZhdxAA
  >
  <APPLYFX_CFG
  >
  RENDER_FILE "/Users/samenglander/_dev/colorflags/anthems/china_1.mp3"
  RENDER_FMT 0 2 44100
  RENDER_1X 0
  RENDER_RANGE 2 0 0 18 1000
  RENDER_RESAMPLE 3 0 1
  RENDER_ADDTOPROJ 0
  RENDER_STEMS 0
  RENDER_DITHER 0
  TIMELOCKMODE 1
  TEMPOENVLOCKMODE 1
  ITEMMIX 1
  DEFPITCHMODE 589824
  TAKELANE 3
  SAMPLERATE 44100 0 0
  <RENDER_CFG
    bDNwbSAAAAABAAAABQAAAAAAAAAAAAAAQAEAAAAAAAA=
  >
  LOCK 1
  <METRONOME 6 2
    VOL 0.25 0.125
    FREQ 800 1600 1
    BEATLEN 4
    SAMPLES "" ""
    PATTERN 2863311530 2863311529
  >
  GLOBAL_AUTO -1
  TEMPO 120 4 4
  PLAYRATE 1 0 0.25 4
  SELECTION 18 0
  SELECTION2 18 0
  MASTERAUTOMODE 0
  MASTERTRACKHEIGHT 0
  MASTERPEAKCOL 16576
  MASTERMUTESOLO 0
  MASTERTRACKVIEW 0 0.6667 0.5 0 0 0 0
  MASTERHWOUT 0 0 1 0 0 0 0 -1
  MASTER_NCH 2 2
  MASTER_VOLUME 1 0 -1 -1 1
  MASTER_FX 1
  MASTER_SEL 0
  <MASTERPLAYSPEEDENV
    ACT 0 -1
    VIS 0 1 1
    LANEHEIGHT 0 0
    ARM 0
    DEFSHAPE 0 -1 -1
  >
  <TEMPOENVEX
    ACT 0 -1
    VIS 1 0 1
    LANEHEIGHT 0 0
    ARM 0
    DEFSHAPE 1 -1 -1
  >
  <PROJBAY
  >
  <TRACK {61DF7730-0644-124F-97F9-9722223D79A4}
    NAME Midi
    PEAKCOL 16576
    BEAT -1
    AUTOMODE 0
    VOLPAN 1 0 -1 -1 1
    MUTESOLO 0 0 0
    IPHASE 0
    ISBUS 0 0
    BUSCOMP 0 0
    SHOWINMIX 1 0.6667 0.5 1 0 0 0 0
    FREEMODE 0
    SEL 0
    REC 0 0 0 0 0 0 0
    VU 2
    TRACKHEIGHT 0 0
    INQ 0 0 0 0.5 100 0 0 100
    NCHAN 2
    FX 1
    TRACKID {61DF7730-0644-124F-97F9-9722223D79A4}
    PERF 0
    MIDIOUT -1
    MAINSEND 1 0
    <ITEM
      POSITION 0
      SNAPOFFS 0
      LENGTH 36.5
      LOOP 1
      ALLTAKES 0
      FADEIN 1 0 0 1 0 0
      FADEOUT 1 0 0 1 0 0
      MUTE 0
      SEL 0
      YPOS 0.125 0.125
      IGUID {46B8A571-959A-1945-B419-B2DD4CEB89AD}
      IID 2
      NAME "R.H.                 - National_Anthems_-_China.mid"
      VOLPAN 1 0 1 -1
      SOFFS 0 0
      PLAYRATE 1 1 0 -1 0 0.0025
      CHANMODE 0
      TAKECOLOR 26173599 B
      GUID {C60DFB34-5EA2-1449-972E-82F4F938F454}
      <SOURCE MIDI
        HASDATA 1 192 QN
        POOLEDEVTS {75DFC0DD-E262-194E-9BAA-0B3D9843717A}
        <X 0 0 0 0 3 "R.H.                "
          /wNSLkguICAgICAgICAgICAgICAgIA==
        >
        E 0 91 43 64
        E 130 81 43 40
        E 14 91 47 64
        E 34 81 47 40
        E 14 91 43 64
        E 0 91 4a 64
        E 82 81 43 40
        E 0 81 4a 40
        E 14 91 4a 64
        E 0 91 43 64
        E 82 81 4a 40
        E 0 81 43 40
        E 14 91 43 64
        E 0 91 4c 64
        E 178 81 4c 40
        E 14 91 4a 64
        E 178 81 43 40
        E 0 81 4a 40
        E 14 91 47 64
        E 114 81 47 40
        E 14 91 43 64
        E 50 81 43 40
        E 14 91 4a 64
        E 0 91 42 64
        E 50 81 4a 40
        E 0 81 42 40
        E 14 91 42 64
        E 0 91 4a 64
        E 50 81 42 40
        E 0 81 4a 40
        E 14 91 4a 64
        E 0 91 42 64
        E 50 81 4a 40
        E 0 81 42 40
        E 14 91 47 64
        E 0 91 43 64
        E 178 81 43 40
        E 14 91 43 64
        E 178 81 47 40
        E 0 81 43 40
        E 14 91 3e 64
        E 50 81 3e 40
        E 14 91 3e 64
        E 50 81 3e 40
        E 14 91 3e 64
        E 50 81 3e 40
        E 14 91 3e 64
        E 50 81 3e 40
        E 14 91 3e 64
        E 50 81 3e 40
        E 14 91 3e 64
        E 50 81 3e 40
        E 14 91 43 64
        E 0 91 3e 64
        E 178 81 43 40
        E 0 81 3e 40
        E 110 91 3e 64
        E 82 81 3e 40
        E 14 91 43 64
        E 0 91 3e 64
        E 274 81 43 40
        E 0 81 3e 40
        E 14 91 43 64
        E 82 81 43 40
        E 14 91 3e 64
        E 0 91 43 64
        E 130 81 43 40
        E 14 91 43 64
        E 34 81 3e 40
        E 0 81 43 40
        E 14 91 3e 64
        E 96 91 40 64
        E 3 81 3e 40
        E 31 81 40 40
        E 14 91 42 64
        E 34 81 42 40
        E 14 91 3e 64
        E 0 91 43 64
        E 178 81 3e 40
        E 0 81 43 40
        E 14 91 3e 64
        E 0 91 43 64
        E 178 81 3e 40
        E 0 81 43 40
        E 110 91 47 64
        E 82 81 47 40
        E 14 91 43 64
        E 82 81 43 40
        E 14 91 45 64
        E 34 81 45 40
        E 14 91 47 64
        E 34 81 47 40
        E 14 91 43 64
        E 0 91 4a 64
        E 178 81 43 40
        E 0 81 4a 40
        E 14 91 43 64
        E 0 91 4a 64
        E 178 81 43 40
        E 0 81 4a 40
        E 14 91 47 64
        E 130 81 47 40
        E 14 91 47 64
        E 34 81 47 40
        E 14 91 43 64
        E 130 81 43 40
        E 14 91 47 64
        E 34 81 47 40
        E 14 91 47 64
        E 0 91 4a 64
        E 130 81 47 40
        E 0 81 4a 40
        E 14 91 43 64
        E 0 91 47 40
        E 34 81 43 40
        E 0 81 47 40
        E 14 91 45 64
        E 0 91 3e 64
        E 178 81 45 40
        E 0 81 3e 40
        E 14 91 45 64
        E 0 91 40 64
        E 370 81 45 40
        E 0 81 40 40
        E 14 91 4c 64
        E 0 91 42 64
        E 0 91 45 64
        E 178 81 4c 40
        E 0 81 42 40
        E 0 81 45 40
        E 14 91 3e 64
        E 0 91 4a 64
        E 0 91 43 64
        E 178 81 3e 40
        E 0 81 4a 40
        E 0 81 43 40
        E 14 91 42 64
        E 0 91 45 64
        E 0 91 3e 64
        E 178 81 42 40
        E 0 81 45 40
        E 0 81 3e 40
        E 14 91 47 64
        E 0 91 3e 64
        E 0 91 43 64
        E 178 81 47 40
        E 0 81 3e 40
        E 0 81 43 40
        E 14 91 4a 64
        E 82 81 4a 40
        E 14 91 47 64
        E 82 81 47 40
        E 110 91 4a 64
        E 82 81 4a 40
        E 14 91 47 64
        E 82 81 47 40
        E 14 91 45 64
        E 34 81 45 40
        E 14 91 47 64
        E 34 81 47 40
        E 14 91 43 64
        E 178 81 43 40
        E 14 91 47 64
        E 370 81 47 40
        E 14 91 3e 64
        E 130 81 3e 40
        E 14 91 40 64
        E 34 81 40 40
        E 14 91 43 64
        E 82 81 43 40
        E 14 91 43 64
        E 82 81 43 40
        E 14 91 47 64
        E 130 81 47 40
        E 14 91 47 64
        E 34 81 47 40
        E 14 91 4a 64
        E 82 81 4a 40
        E 14 91 4a 64
        E 82 81 4a 40
        E 14 91 45 64
        E 82 81 45 40
        E 14 91 45 64
        E 34 81 45 40
        E 14 91 45 64
        E 34 81 45 40
        E 14 91 40 64
        E 178 81 40 40
        E 14 91 45 64
        E 274 81 45 40
        E 14 91 3e 64
        E 82 81 3e 40
        E 14 91 3e 64
        E 0 91 43 64
        E 274 81 3e 40
        E 0 81 43 40
        E 14 91 43 64
        E 0 91 3e 64
        E 82 81 43 40
        E 0 81 3e 40
        E 14 91 47 64
        E 0 91 3e 64
        E 0 91 3b 64
        E 274 81 47 40
        E 0 81 3e 40
        E 0 81 3b 40
        E 14 91 3b 64
        E 0 91 3e 64
        E 0 91 47 64
        E 82 81 3b 40
        E 0 81 3e 40
        E 0 81 47 40
        E 14 91 42 64
        E 0 91 3e 64
        E 0 91 4a 64
        E 370 81 42 40
        E 0 81 3e 40
        E 0 81 4a 40
        E 14 91 43 64
        E 130 81 43 40
        E 14 91 47 64
        E 34 81 47 40
        E 14 91 4a 64
        E 82 81 4a 40
        E 14 91 4a 64
        E 82 81 4a 40
        E 14 91 4c 64
        E 0 91 43 64
        E 178 81 4c 40
        E 14 91 4a 64
        E 178 81 43 40
        E 0 81 4a 40
        E 14 91 47 64
        E 114 81 47 40
        E 14 91 43 64
        E 50 81 43 40
        E 14 91 4a 64
        E 0 91 42 64
        E 50 81 4a 40
        E 0 81 42 40
        E 14 91 42 64
        E 0 91 4a 64
        E 50 81 42 40
        E 0 81 4a 40
        E 14 91 4a 64
        E 0 91 42 64
        E 50 81 4a 40
        E 0 81 42 40
        E 14 91 43 64
        E 0 91 47 64
        E 178 81 43 40
        E 0 81 47 40
        E 14 91 43 64
        E 178 81 43 40
        E 14 91 3e 64
        E 178 81 3e 40
        E 14 91 43 64
        E 178 81 43 40
        E 14 91 47 64
        E 114 81 47 40
        E 14 91 43 64
        E 50 81 43 40
        E 14 91 4a 64
        E 0 91 42 64
        E 50 81 4a 40
        E 0 81 42 40
        E 14 91 42 64
        E 0 91 4a 64
        E 50 81 42 40
        E 0 81 4a 40
        E 14 91 4a 64
        E 0 91 42 64
        E 50 81 4a 40
        E 0 81 42 40
        E 14 91 47 64
        E 0 91 43 64
        E 178 81 47 40
        E 0 81 43 40
        E 14 91 43 64
        E 178 81 43 40
        E 14 91 3b 64
        E 0 91 3e 64
        E 178 81 3b 40
        E 0 81 3e 40
        E 14 91 43 64
        E 178 81 43 40
        E 14 91 3b 64
        E 0 91 3e 64
        E 178 81 3b 40
        E 0 81 3e 40
        E 14 91 43 64
        E 178 81 43 40
        E 14 91 3b 64
        E 0 91 3e 64
        E 192 91 43 64
        E 178 81 3b 40
        E 0 81 3e 40
        E 0 81 43 40
        E 14 91 3b 64
        E 0 91 43 64
        E 178 81 3b 40
        E 0 81 43 40
        E 14 b0 7b 00
        GUID {6EF03167-184B-C94B-88F2-113B1DB21C2E}
        IGNTEMPO 0 120 4 4
        SRCCOLOR 654
        VELLANE -1 86 6
        CFGEDITVIEW 0 15.123288 51 12 0 0 0 0 0 0.5
        KEYSNAP 0
        TRACKSEL 226
        EVTFILTER 0 -1 -1 -1 -1 0 0 0 0 -1 -1 -1 -1 0 -1 0 -1 -1
        CFGEDIT 1 1 0 0 0 0 1 0 1 1 1 0.25 20 47 1280 778 1 0 2 3 0 0 0 0 0 -1 0 0 1 64
      >
      TAKE
      NAME "R.H.                 - National_Anthems_-_China.mid"
      TAKEVOLPAN 0 1 -1
      SOFFS 0 0
      PLAYRATE 1 1 0 -1 0 0.0025
      CHANMODE 0
      GUID {05844E15-7838-694C-8A1F-9C3947243938}
      <SOURCE MIDI
        HASDATA 1 192 QN
        POOLEDEVTS {6BD63BB7-9FBF-B14F-8FA4-7074E7B4A6A3}
        <X 0 0 0 0 3 "R.H.                "
          /wNSLkguICAgICAgICAgICAgICAgIA==
        >
        E 0 91 43 64
        E 130 81 43 40
        E 14 91 47 64
        E 34 81 47 40
        E 14 91 43 64
        E 0 91 4a 64
        E 82 81 43 40
        E 0 81 4a 40
        E 14 91 4a 64
        E 0 91 43 64
        E 82 81 4a 40
        E 0 81 43 40
        E 14 91 43 64
        E 0 91 4c 64
        E 178 81 4c 40
        E 14 91 4a 64
        E 178 81 43 40
        E 0 81 4a 40
        E 14 91 47 64
        E 114 81 47 40
        E 14 91 43 64
        E 50 81 43 40
        E 14 91 4a 64
        E 0 91 42 64
        E 50 81 4a 40
        E 0 81 42 40
        E 14 91 42 64
        E 0 91 4a 64
        E 50 81 42 40
        E 0 81 4a 40
        E 14 91 4a 64
        E 0 91 42 64
        E 50 81 4a 40
        E 0 81 42 40
        E 14 91 47 64
        E 0 91 43 64
        E 178 81 43 40
        E 14 91 43 64
        E 178 81 47 40
        E 0 81 43 40
        E 14 91 3e 64
        E 50 81 3e 40
        E 14 91 3e 64
        E 50 81 3e 40
        E 14 91 3e 64
        E 50 81 3e 40
        E 14 91 3e 64
        E 50 81 3e 40
        E 14 91 3e 64
        E 50 81 3e 40
        E 14 91 3e 64
        E 50 81 3e 40
        E 14 91 43 64
        E 0 91 3e 64
        E 178 81 43 40
        E 0 81 3e 40
        E 110 91 3e 64
        E 82 81 3e 40
        E 14 91 43 64
        E 0 91 3e 64
        E 274 81 43 40
        E 0 81 3e 40
        E 14 91 43 64
        E 82 81 43 40
        E 14 91 3e 64
        E 0 91 43 64
        E 130 81 43 40
        E 14 91 43 64
        E 34 81 3e 40
        E 0 81 43 40
        E 14 91 3e 64
        E 96 91 40 64
        E 3 81 3e 40
        E 31 81 40 40
        E 14 91 42 64
        E 34 81 42 40
        E 14 91 3e 64
        E 0 91 43 64
        E 178 81 3e 40
        E 0 81 43 40
        E 14 91 3e 64
        E 0 91 43 64
        E 178 81 3e 40
        E 0 81 43 40
        E 110 91 47 64
        E 82 81 47 40
        E 14 91 43 64
        E 82 81 43 40
        E 14 91 45 64
        E 34 81 45 40
        E 14 91 47 64
        E 34 81 47 40
        E 14 91 43 64
        E 0 91 4a 64
        E 178 81 43 40
        E 0 81 4a 40
        E 14 91 43 64
        E 0 91 4a 64
        E 178 81 43 40
        E 0 81 4a 40
        E 14 91 47 64
        E 130 81 47 40
        E 14 91 47 64
        E 34 81 47 40
        E 14 91 43 64
        E 130 81 43 40
        E 14 91 47 64
        E 34 81 47 40
        E 14 91 47 64
        E 0 91 4a 64
        E 130 81 47 40
        E 0 81 4a 40
        E 14 91 43 64
        E 0 91 47 40
        E 34 81 43 40
        E 0 81 47 40
        E 14 91 45 64
        E 0 91 3e 64
        E 178 81 45 40
        E 0 81 3e 40
        E 14 91 45 64
        E 0 91 40 64
        E 370 81 45 40
        E 0 81 40 40
        E 14 91 4c 64
        E 0 91 42 64
        E 0 91 45 64
        E 178 81 4c 40
        E 0 81 42 40
        E 0 81 45 40
        E 14 91 3e 64
        E 0 91 4a 64
        E 0 91 43 64
        E 178 81 3e 40
        E 0 81 4a 40
        E 0 81 43 40
        E 14 91 42 64
        E 0 91 45 64
        E 0 91 3e 64
        E 178 81 42 40
        E 0 81 45 40
        E 0 81 3e 40
        E 14 91 47 64
        E 0 91 3e 64
        E 0 91 43 64
        E 178 81 47 40
        E 0 81 3e 40
        E 0 81 43 40
        E 14 91 4a 64
        E 82 81 4a 40
        E 14 91 47 64
        E 82 81 47 40
        E 110 91 4a 64
        E 82 81 4a 40
        E 14 91 47 64
        E 82 81 47 40
        E 14 91 45 64
        E 34 81 45 40
        E 14 91 47 64
        E 34 81 47 40
        E 14 91 43 64
        E 178 81 43 40
        E 14 91 47 64
        E 370 81 47 40
        E 14 91 3e 64
        E 130 81 3e 40
        E 14 91 40 64
        E 34 81 40 40
        E 14 91 43 64
        E 82 81 43 40
        E 14 91 43 64
        E 82 81 43 40
        E 14 91 47 64
        E 130 81 47 40
        E 14 91 47 64
        E 34 81 47 40
        E 14 91 4a 64
        E 82 81 4a 40
        E 14 91 4a 64
        E 82 81 4a 40
        E 14 91 45 64
        E 82 81 45 40
        E 14 91 45 64
        E 34 81 45 40
        E 14 91 45 64
        E 34 81 45 40
        E 14 91 40 64
        E 178 81 40 40
        E 14 91 45 64
        E 274 81 45 40
        E 14 91 3e 64
        E 82 81 3e 40
        E 14 91 3e 64
        E 0 91 43 64
        E 274 81 3e 40
        E 0 81 43 40
        E 14 91 43 64
        E 0 91 3e 64
        E 82 81 43 40
        E 0 81 3e 40
        E 14 91 47 64
        E 0 91 3e 64
        E 0 91 3b 64
        E 274 81 47 40
        E 0 81 3e 40
        E 0 81 3b 40
        E 14 91 3b 64
        E 0 91 3e 64
        E 0 91 47 64
        E 82 81 3b 40
        E 0 81 3e 40
        E 0 81 47 40
        E 14 91 42 64
        E 0 91 3e 64
        E 0 91 4a 64
        E 370 81 42 40
        E 0 81 3e 40
        E 0 81 4a 40
        E 14 91 43 64
        E 130 81 43 40
        E 14 91 47 64
        E 34 81 47 40
        E 14 91 4a 64
        E 82 81 4a 40
        E 14 91 4a 64
        E 82 81 4a 40
        E 14 91 4c 64
        E 0 91 43 64
        E 178 81 4c 40
        E 14 91 4a 64
        E 178 81 43 40
        E 0 81 4a 40
        E 14 91 47 64
        E 114 81 47 40
        E 14 91 43 64
        E 50 81 43 40
        E 14 91 4a 64
        E 0 91 42 64
        E 50 81 4a 40
        E 0 81 42 40
        E 14 91 42 64
        E 0 91 4a 64
        E 50 81 42 40
        E 0 81 4a 40
        E 14 91 4a 64
        E 0 91 42 64
        E 50 81 4a 40
        E 0 81 42 40
        E 14 91 43 64
        E 0 91 47 64
        E 178 81 43 40
        E 0 81 47 40
        E 14 91 43 64
        E 178 81 43 40
        E 14 91 3e 64
        E 178 81 3e 40
        E 14 91 43 64
        E 178 81 43 40
        E 14 91 47 64
        E 114 81 47 40
        E 14 91 43 64
        E 50 81 43 40
        E 14 91 4a 64
        E 0 91 42 64
        E 50 81 4a 40
        E 0 81 42 40
        E 14 91 42 64
        E 0 91 4a 64
        E 50 81 42 40
        E 0 81 4a 40
        E 14 91 4a 64
        E 0 91 42 64
        E 50 81 4a 40
        E 0 81 42 40
        E 14 91 47 64
        E 0 91 43 64
        E 178 81 47 40
        E 0 81 43 40
        E 14 91 43 64
        E 178 81 43 40
        E 14 91 3b 64
        E 0 91 3e 64
        E 178 81 3b 40
        E 0 81 3e 40
        E 14 91 43 64
        E 178 81 43 40
        E 14 91 3b 64
        E 0 91 3e 64
        E 178 81 3b 40
        E 0 81 3e 40
        E 14 91 43 64
        E 178 81 43 40
        E 14 91 3b 64
        E 0 91 3e 64
        E 192 91 43 64
        E 178 81 3b 40
        E 0 81 3e 40
        E 0 81 43 40
        E 14 91 3b 64
        E 0 91 43 64
        E 178 81 3b 40
        E 0 81 43 40
        E 14 b0 7b 00
        GUID {A4C62C1D-1240-9F41-B8D7-1B169DFD3511}
        IGNTEMPO 0 120 4 4
        SRCCOLOR 903
        VELLANE -1 86 6
        CFGEDITVIEW 0 0 51 12 0 0 0 0 0 0.5
        KEYSNAP 0
        TRACKSEL 226
        EVTFILTER 0 -1 -1 -1 -1 0 0 0 0 -1 -1 -1 -1 0 -1 0 -1 -1
        CFGEDIT 1 1 0 0 0 0 1 0 1 1 1 0.25 20 47 1280 778 1 0 2 3 0 0 0 0 0 -1 0 0 1 64
      >
    >
    <ITEM
      POSITION 0
      SNAPOFFS 0
      LENGTH 36.5
      LOOP 1
      ALLTAKES 0
      FADEIN 1 0 0 1 0 0
      FADEOUT 1 0 0 1 0 0
      MUTE 0
      SEL 0
      YPOS 0.25 0.125
      IGUID {FDC64573-042A-D147-A64C-E73A5A6422D3}
      IID 3
      NAME "L.H.                 - National_Anthems_-_China.mid"
      VOLPAN 1 0 1 -1
      SOFFS 0 0
      PLAYRATE 1 1 0 -1 0 0.0025
      CHANMODE 0
      TAKECOLOR 26173599 B
      GUID {ECB5D611-E37A-604C-8F55-7A008F61DC56}
      <SOURCE MIDI
        HASDATA 1 192 QN
        POOLEDEVTS {5BE2B050-40CB-174B-9EBE-701CB68DEF6A}
        <X 0 0 0 0 3 "L.H.                "
          /wNMLkguICAgICAgICAgICAgICAgIA==
        >
        E 0 92 37 64
        E 0 92 3b 64
        E 0 92 3e 64
        E 274 82 37 40
        E 0 82 3b 40
        E 0 82 3e 40
        E 14 92 3e 64
        E 0 92 3b 64
        E 0 92 37 64
        E 82 82 3e 40
        E 0 82 3b 40
        E 0 82 37 40
        E 14 92 37 64
        E 0 92 40 64
        E 0 92 3c 64
        E 178 82 37 40
        E 0 82 40 40
        E 0 82 3c 40
        E 14 92 3e 64
        E 0 92 3b 64
        E 0 92 37 64
        E 178 82 3e 40
        E 0 82 3b 40
        E 0 82 37 40
        E 14 92 3e 64
        E 0 92 3b 64
        E 0 92 37 64
        E 178 82 3e 40
        E 0 82 3b 40
        E 0 82 37 40
        E 14 92 32 64
        E 0 92 39 64
        E 50 82 32 40
        E 0 82 39 40
        E 14 92 32 64
        E 0 92 39 64
        E 50 82 32 40
        E 0 82 39 40
        E 14 92 39 64
        E 0 92 32 64
        E 50 82 39 40
        E 0 82 32 40
        E 14 92 37 64
        E 0 92 3b 64
        E 370 82 37 40
        E 0 82 3b 40
        E 14 92 37 64
        E 0 92 3b 64
        E 178 82 37 40
        E 0 82 3b 40
        E 14 92 32 64
        E 0 92 39 64
        E 178 82 32 40
        E 0 82 39 40
        E 14 92 37 64
        E 0 92 3b 64
        E 370 82 37 40
        E 0 82 3b 40
        E 14 92 37 64
        E 0 92 2f 64
        E 274 82 37 40
        E 0 82 2f 40
        E 14 92 2f 64
        E 0 92 37 64
        E 82 82 2f 40
        E 0 82 37 40
        E 14 92 2f 64
        E 0 92 37 64
        E 178 82 2f 40
        E 0 82 37 40
        E 14 92 32 64
        E 0 92 39 64
        E 178 82 32 40
        E 0 82 39 40
        E 14 92 37 64
        E 0 92 3b 64
        E 178 82 37 40
        E 0 82 3b 40
        E 14 92 3b 64
        E 0 92 37 64
        E 178 82 3b 40
        E 0 82 37 40
        E 398 92 37 64
        E 0 92 3e 64
        E 0 92 3b 64
        E 178 82 37 40
        E 0 82 3e 40
        E 0 82 3b 40
        E 14 92 3b 64
        E 0 92 3e 64
        E 0 92 37 64
        E 178 82 3b 40
        E 0 82 3e 40
        E 0 82 37 40
        E 14 92 3b 64
        E 0 92 37 64
        E 0 92 3e 64
        E 514 82 3b 40
        E 0 82 37 40
        E 0 82 3e 40
        E 14 92 37 64
        E 0 92 3b 64
        E 34 82 37 40
        E 0 82 3b 40
        E 14 92 32 64
        E 0 92 39 64
        E 178 82 32 40
        E 0 82 39 40
        E 14 92 30 64
        E 0 92 34 64
        E 0 92 39 64
        E 370 82 30 40
        E 0 82 34 40
        E 0 82 39 40
        E 14 92 36 64
        E 0 92 30 64
        E 0 92 39 64
        E 178 82 36 40
        E 0 82 30 40
        E 0 82 39 40
        E 14 92 2f 64
        E 0 92 37 64
        E 178 82 2f 40
        E 0 82 37 40
        E 14 92 32 64
        E 0 92 39 64
        E 178 82 32 40
        E 0 82 39 40
        E 14 92 3b 64
        E 0 92 37 64
        E 178 82 3b 40
        E 0 82 37 40
        E 14 92 2b 64
        E 0 92 32 64
        E 946 82 2b 40
        E 0 82 32 40
        E 206 92 37 64
        E 274 82 37 40
        E 14 92 36 64
        E 82 82 36 40
        E 14 92 34 64
        E 178 82 34 40
        E 14 92 36 64
        E 178 82 36 40
        E 14 92 37 64
        E 562 82 37 40
        E 14 92 36 64
        E 178 82 36 40
        E 14 92 2f 64
        E 0 92 37 64
        E 274 82 2f 40
        E 0 82 37 40
        E 14 92 2f 64
        E 0 92 37 64
        E 82 82 2f 40
        E 0 82 37 40
        E 14 92 2b 64
        E 0 92 37 64
        E 0 92 32 64
        E 274 82 2b 40
        E 0 82 37 40
        E 0 82 32 40
        E 14 92 2b 64
        E 0 92 32 64
        E 0 92 37 64
        E 82 82 2b 40
        E 0 82 32 40
        E 0 82 37 40
        E 14 92 39 64
        E 0 92 32 64
        E 370 82 39 40
        E 0 82 32 40
        E 14 92 3b 64
        E 0 92 3e 64
        E 0 92 37 64
        E 274 82 3b 40
        E 0 82 3e 40
        E 0 82 37 40
        E 14 92 37 64
        E 0 92 3e 64
        E 0 92 3b 64
        E 82 82 37 40
        E 0 82 3e 40
        E 0 82 3b 40
        E 14 92 40 64
        E 0 92 3c 64
        E 0 92 37 64
        E 178 82 40 40
        E 0 82 3c 40
        E 0 82 37 40
        E 14 92 37 64
        E 0 92 3e 64
        E 0 92 3b 64
        E 178 82 37 40
        E 0 82 3e 40
        E 0 82 3b 40
        E 14 92 3b 64
        E 0 92 3e 64
        E 0 92 37 64
        E 178 82 3b 40
        E 0 82 3e 40
        E 0 82 37 40
        E 14 92 32 64
        E 0 92 39 64
        E 50 82 32 40
        E 0 82 39 40
        E 14 92 32 64
        E 0 92 39 64
        E 50 82 32 40
        E 0 82 39 40
        E 14 92 32 64
        E 0 92 39 64
        E 50 82 32 40
        E 0 82 39 40
        E 14 92 3b 64
        E 0 92 37 64
        E 370 82 3b 40
        E 0 82 37 40
        E 14 92 3b 64
        E 0 92 37 64
        E 562 82 3b 40
        E 0 82 37 40
        E 14 92 32 64
        E 0 92 39 64
        E 50 82 32 40
        E 0 82 39 40
        E 14 92 39 64
        E 0 92 32 64
        E 50 82 39 40
        E 0 82 32 40
        E 14 92 32 64
        E 0 92 39 64
        E 50 82 32 40
        E 0 82 39 40
        E 14 92 37 64
        E 0 92 3b 64
        E 370 82 37 40
        E 0 82 3b 40
        E 14 92 37 64
        E 0 92 2b 64
        E 0 92 32 64
        E 370 82 37 40
        E 0 82 2b 40
        E 0 82 32 40
        E 14 92 32 64
        E 0 92 37 64
        E 0 92 2b 64
        E 370 82 32 40
        E 0 82 37 40
        E 0 82 2b 40
        E 14 92 37 64
        E 0 92 32 64
        E 0 92 2b 64
        E 370 82 37 40
        E 0 82 32 40
        E 0 82 2b 40
        E 14 92 37 64
        E 0 92 32 64
        E 0 92 2b 64
        E 178 82 37 40
        E 0 82 32 40
        E 0 82 2b 40
        E 14 b0 7b 00
        GUID {A504E849-C384-5045-A5A2-5CF34FD26673}
        IGNTEMPO 0 120 4 4
        SRCCOLOR 655
        VELLANE -1 86 6
      >
      TAKE
      NAME "L.H.                 - National_Anthems_-_China.mid"
      TAKEVOLPAN 0 1 -1
      SOFFS 0 0
      PLAYRATE 1 1 0 -1 0 0.0025
      CHANMODE 0
      GUID {5C65929D-73B3-1D44-B6E5-3B71BD45085E}
      <SOURCE MIDI
        HASDATA 1 192 QN
        POOLEDEVTS {7A015EC8-F345-CA4D-8C2C-6B2BC20EF3FB}
        <X 0 0 0 0 3 "L.H.                "
          /wNMLkguICAgICAgICAgICAgICAgIA==
        >
        E 0 92 37 64
        E 0 92 3b 64
        E 0 92 3e 64
        E 274 82 37 40
        E 0 82 3b 40
        E 0 82 3e 40
        E 14 92 3e 64
        E 0 92 3b 64
        E 0 92 37 64
        E 82 82 3e 40
        E 0 82 3b 40
        E 0 82 37 40
        E 14 92 37 64
        E 0 92 40 64
        E 0 92 3c 64
        E 178 82 37 40
        E 0 82 40 40
        E 0 82 3c 40
        E 14 92 3e 64
        E 0 92 3b 64
        E 0 92 37 64
        E 178 82 3e 40
        E 0 82 3b 40
        E 0 82 37 40
        E 14 92 3e 64
        E 0 92 3b 64
        E 0 92 37 64
        E 178 82 3e 40
        E 0 82 3b 40
        E 0 82 37 40
        E 14 92 32 64
        E 0 92 39 64
        E 50 82 32 40
        E 0 82 39 40
        E 14 92 32 64
        E 0 92 39 64
        E 50 82 32 40
        E 0 82 39 40
        E 14 92 39 64
        E 0 92 32 64
        E 50 82 39 40
        E 0 82 32 40
        E 14 92 37 64
        E 0 92 3b 64
        E 370 82 37 40
        E 0 82 3b 40
        E 14 92 37 64
        E 0 92 3b 64
        E 178 82 37 40
        E 0 82 3b 40
        E 14 92 32 64
        E 0 92 39 64
        E 178 82 32 40
        E 0 82 39 40
        E 14 92 37 64
        E 0 92 3b 64
        E 370 82 37 40
        E 0 82 3b 40
        E 14 92 37 64
        E 0 92 2f 64
        E 274 82 37 40
        E 0 82 2f 40
        E 14 92 2f 64
        E 0 92 37 64
        E 82 82 2f 40
        E 0 82 37 40
        E 14 92 2f 64
        E 0 92 37 64
        E 178 82 2f 40
        E 0 82 37 40
        E 14 92 32 64
        E 0 92 39 64
        E 178 82 32 40
        E 0 82 39 40
        E 14 92 37 64
        E 0 92 3b 64
        E 178 82 37 40
        E 0 82 3b 40
        E 14 92 3b 64
        E 0 92 37 64
        E 178 82 3b 40
        E 0 82 37 40
        E 398 92 37 64
        E 0 92 3e 64
        E 0 92 3b 64
        E 178 82 37 40
        E 0 82 3e 40
        E 0 82 3b 40
        E 14 92 3b 64
        E 0 92 3e 64
        E 0 92 37 64
        E 178 82 3b 40
        E 0 82 3e 40
        E 0 82 37 40
        E 14 92 3b 64
        E 0 92 37 64
        E 0 92 3e 64
        E 514 82 3b 40
        E 0 82 37 40
        E 0 82 3e 40
        E 14 92 37 64
        E 0 92 3b 64
        E 34 82 37 40
        E 0 82 3b 40
        E 14 92 32 64
        E 0 92 39 64
        E 178 82 32 40
        E 0 82 39 40
        E 14 92 30 64
        E 0 92 34 64
        E 0 92 39 64
        E 370 82 30 40
        E 0 82 34 40
        E 0 82 39 40
        E 14 92 36 64
        E 0 92 30 64
        E 0 92 39 64
        E 178 82 36 40
        E 0 82 30 40
        E 0 82 39 40
        E 14 92 2f 64
        E 0 92 37 64
        E 178 82 2f 40
        E 0 82 37 40
        E 14 92 32 64
        E 0 92 39 64
        E 178 82 32 40
        E 0 82 39 40
        E 14 92 3b 64
        E 0 92 37 64
        E 178 82 3b 40
        E 0 82 37 40
        E 14 92 2b 64
        E 0 92 32 64
        E 946 82 2b 40
        E 0 82 32 40
        E 206 92 37 64
        E 274 82 37 40
        E 14 92 36 64
        E 82 82 36 40
        E 14 92 34 64
        E 178 82 34 40
        E 14 92 36 64
        E 178 82 36 40
        E 14 92 37 64
        E 562 82 37 40
        E 14 92 36 64
        E 178 82 36 40
        E 14 92 2f 64
        E 0 92 37 64
        E 274 82 2f 40
        E 0 82 37 40
        E 14 92 2f 64
        E 0 92 37 64
        E 82 82 2f 40
        E 0 82 37 40
        E 14 92 2b 64
        E 0 92 37 64
        E 0 92 32 64
        E 274 82 2b 40
        E 0 82 37 40
        E 0 82 32 40
        E 14 92 2b 64
        E 0 92 32 64
        E 0 92 37 64
        E 82 82 2b 40
        E 0 82 32 40
        E 0 82 37 40
        E 14 92 39 64
        E 0 92 32 64
        E 370 82 39 40
        E 0 82 32 40
        E 14 92 3b 64
        E 0 92 3e 64
        E 0 92 37 64
        E 274 82 3b 40
        E 0 82 3e 40
        E 0 82 37 40
        E 14 92 37 64
        E 0 92 3e 64
        E 0 92 3b 64
        E 82 82 37 40
        E 0 82 3e 40
        E 0 82 3b 40
        E 14 92 40 64
        E 0 92 3c 64
        E 0 92 37 64
        E 178 82 40 40
        E 0 82 3c 40
        E 0 82 37 40
        E 14 92 37 64
        E 0 92 3e 64
        E 0 92 3b 64
        E 178 82 37 40
        E 0 82 3e 40
        E 0 82 3b 40
        E 14 92 3b 64
        E 0 92 3e 64
        E 0 92 37 64
        E 178 82 3b 40
        E 0 82 3e 40
        E 0 82 37 40
        E 14 92 32 64
        E 0 92 39 64
        E 50 82 32 40
        E 0 82 39 40
        E 14 92 32 64
        E 0 92 39 64
        E 50 82 32 40
        E 0 82 39 40
        E 14 92 32 64
        E 0 92 39 64
        E 50 82 32 40
        E 0 82 39 40
        E 14 92 3b 64
        E 0 92 37 64
        E 370 82 3b 40
        E 0 82 37 40
        E 14 92 3b 64
        E 0 92 37 64
        E 562 82 3b 40
        E 0 82 37 40
        E 14 92 32 64
        E 0 92 39 64
        E 50 82 32 40
        E 0 82 39 40
        E 14 92 39 64
        E 0 92 32 64
        E 50 82 39 40
        E 0 82 32 40
        E 14 92 32 64
        E 0 92 39 64
        E 50 82 32 40
        E 0 82 39 40
        E 14 92 37 64
        E 0 92 3b 64
        E 370 82 37 40
        E 0 82 3b 40
        E 14 92 37 64
        E 0 92 2b 64
        E 0 92 32 64
        E 370 82 37 40
        E 0 82 2b 40
        E 0 82 32 40
        E 14 92 32 64
        E 0 92 37 64
        E 0 92 2b 64
        E 370 82 32 40
        E 0 82 37 40
        E 0 82 2b 40
        E 14 92 37 64
        E 0 92 32 64
        E 0 92 2b 64
        E 370 82 37 40
        E 0 82 32 40
        E 0 82 2b 40
        E 14 92 37 64
        E 0 92 32 64
        E 0 92 2b 64
        E 178 82 37 40
        E 0 82 32 40
        E 0 82 2b 40
        E 14 b0 7b 00
        GUID {F89CF315-DF78-0741-98C4-1907151011DB}
        IGNTEMPO 0 120 4 4
        SRCCOLOR 904
        VELLANE -1 86 6
      >
    >
    <ITEM
      POSITION 0
      SNAPOFFS 0
      LENGTH 36.5
      LOOP 1
      ALLTAKES 0
      FADEIN 1 0 0 1 0 0
      FADEOUT 1 0 0 1 0 0
      MUTE 0
      SEL 0
      YPOS 0.375 0.125
      IGUID {92D0973F-6F26-1D41-A312-20C0A4BC9347}
      IID 4
      NAME "BASS                 - National_Anthems_-_China.mid"
      VOLPAN 1 0 1 -1
      SOFFS 0 0
      PLAYRATE 1 1 0 -1 0 0.0025
      CHANMODE 0
      TAKECOLOR 26173599 B
      GUID {37E4D3E6-5061-6942-AB76-360257722074}
      <SOURCE MIDI
        HASDATA 1 192 QN
        POOLEDEVTS {53C730ED-E2A6-3048-AFFB-22B203C3069E}
        <X 0 0 0 0 3 "BASS                "
          /wNCQVNTICAgICAgICAgICAgICAgIA==
        >
        e 0 90 2b 64
        e 274 80 2b 40
        e 14 90 2b 64
        e 82 80 2b 40
        e 14 90 2b 64
        e 178 80 2b 40
        e 14 90 2b 64
        e 178 80 2b 40
        e 14 90 2b 64
        e 178 80 2b 40
        e 14 90 26 64
        e 50 80 26 40
        e 14 90 26 64
        e 50 80 26 40
        e 14 90 26 64
        e 50 80 26 40
        e 14 90 2b 64
        e 370 80 2b 40
        e 14 90 2b 64
        e 178 80 2b 40
        e 14 90 26 64
        e 178 80 26 40
        e 14 90 2b 64
        e 178 80 2b 40
        e 206 90 2f 64
        e 274 80 2f 40
        e 14 90 2f 64
        e 82 80 2f 40
        e 14 90 2f 64
        e 178 80 2f 40
        e 14 90 32 64
        e 178 80 32 40
        e 14 90 37 64
        e 178 80 37 40
        e 14 90 37 64
        e 178 80 37 40
        e 398 90 2b 64
        e 178 80 2b 40
        e 14 90 2b 64
        e 178 80 2b 40
        e 14 90 2b 64
        e 370 80 2b 40
        e 206 90 26 64
        e 178 80 26 40
        e 14 90 24 64
        e 370 80 24 40
        e 14 90 30 64
        e 178 80 30 40
        e 14 90 2f 64
        e 178 80 2f 40
        e 14 90 32 64
        e 178 80 32 40
        e 14 90 37 64
        e 178 80 37 40
        e 14 90 2b 64
        e 370 80 2b 40
        e 14 90 2b 64
        e 370 80 2b 40
        e 14 90 2b 64
        e 178 80 2b 40
        e 206 90 37 64
        e 274 80 37 40
        e 14 90 36 64
        e 82 80 36 40
        e 14 90 34 64
        e 178 80 34 40
        e 14 90 36 64
        e 178 80 36 40
        e 14 90 37 64
        e 562 80 37 40
        e 14 90 36 64
        e 178 80 36 40
        e 14 90 2f 64
        e 274 80 2f 40
        e 14 90 2f 64
        e 82 80 2f 40
        e 14 90 2b 64
        e 274 80 2b 40
        e 14 90 2b 64
        e 82 80 2b 40
        e 14 90 32 64
        e 370 80 32 40
        e 14 90 37 64
        e 274 80 37 40
        e 14 90 37 64
        e 82 80 37 40
        e 14 90 37 64
        e 178 80 37 40
        e 14 90 37 64
        e 178 80 37 40
        e 14 90 37 64
        e 178 80 37 40
        e 14 90 32 64
        e 50 80 32 40
        e 14 90 32 64
        e 50 80 32 40
        e 14 90 32 64
        e 50 80 32 40
        e 14 90 2b 64
        e 370 80 2b 40
        e 14 90 2b 64
        e 562 80 2b 40
        e 14 90 32 64
        e 114 80 32 40
        e 14 90 32 64
        e 50 80 32 40
        e 14 90 37 64
        e 370 80 37 40
        e 14 90 2b 64
        e 370 80 2b 40
        e 14 90 2b 64
        e 370 80 2b 40
        e 14 90 2b 64
        e 370 80 2b 40
        e 14 90 2b 64
        e 178 80 2b 40
        E 14 b0 7b 00
        GUID {D0447611-4F1D-C646-A36E-1EE83C01B223}
        IGNTEMPO 0 120 4 4
        SRCCOLOR 656
        VELLANE -1 86 6
        CFGEDITVIEW 2180.430894 1.497595 33 20 0 0 0 0 0 0.5
        KEYSNAP 0
        TRACKSEL 226
        EVTFILTER 16 -1 -1 -1 -1 4 1 0 0 -1 -1 -1 -1 0 -1 0 -1 -1
        CFGEDIT 1 0 0 0 0 0 1 0 5 1 1 0.25 16 63 1280 778 0 0 2 3 0 0 0 0 0 0.5 0 0 1 64
      >
      TAKE
      NAME "BASS                 - National_Anthems_-_China.mid"
      TAKEVOLPAN 0 1 -1
      SOFFS 0 0
      PLAYRATE 1 1 0 -1 0 0.0025
      CHANMODE 0
      GUID {4D491F11-7AD5-8A46-8C8F-949053AD6BA8}
      <SOURCE MIDI
        HASDATA 1 192 QN
        POOLEDEVTS {292E2036-184F-A042-BD5D-015D9A8B7704}
        <X 0 0 0 0 3 "BASS                "
          /wNCQVNTICAgICAgICAgICAgICAgIA==
        >
        e 0 90 2b 64
        e 274 80 2b 40
        e 14 90 2b 64
        e 82 80 2b 40
        e 14 90 2b 64
        e 178 80 2b 40
        e 14 90 2b 64
        e 178 80 2b 40
        e 14 90 2b 64
        e 178 80 2b 40
        e 14 90 26 64
        e 50 80 26 40
        e 14 90 26 64
        e 50 80 26 40
        e 14 90 26 64
        e 50 80 26 40
        e 14 90 2b 64
        e 370 80 2b 40
        e 14 90 2b 64
        e 178 80 2b 40
        e 14 90 26 64
        e 178 80 26 40
        e 14 90 2b 64
        e 178 80 2b 40
        e 206 90 2f 64
        e 274 80 2f 40
        e 14 90 2f 64
        e 82 80 2f 40
        e 14 90 2f 64
        e 178 80 2f 40
        e 14 90 32 64
        e 178 80 32 40
        e 14 90 37 64
        e 178 80 37 40
        e 14 90 37 64
        e 178 80 37 40
        e 398 90 2b 64
        e 178 80 2b 40
        e 14 90 2b 64
        e 178 80 2b 40
        e 14 90 2b 64
        e 370 80 2b 40
        e 206 90 26 64
        e 178 80 26 40
        e 14 90 24 64
        e 370 80 24 40
        e 14 90 30 64
        e 178 80 30 40
        e 14 90 2f 64
        e 178 80 2f 40
        e 14 90 32 64
        e 178 80 32 40
        e 14 90 37 64
        e 178 80 37 40
        e 14 90 2b 64
        e 370 80 2b 40
        e 14 90 2b 64
        e 370 80 2b 40
        e 14 90 2b 64
        e 178 80 2b 40
        e 206 90 37 64
        e 274 80 37 40
        e 14 90 36 64
        e 82 80 36 40
        e 14 90 34 64
        e 178 80 34 40
        e 14 90 36 64
        e 178 80 36 40
        e 14 90 37 64
        e 562 80 37 40
        e 14 90 36 64
        e 178 80 36 40
        e 14 90 2f 64
        e 274 80 2f 40
        e 14 90 2f 64
        e 82 80 2f 40
        e 14 90 2b 64
        e 274 80 2b 40
        e 14 90 2b 64
        e 82 80 2b 40
        e 14 90 32 64
        e 370 80 32 40
        e 14 90 37 64
        e 274 80 37 40
        e 14 90 37 64
        e 82 80 37 40
        e 14 90 37 64
        e 178 80 37 40
        e 14 90 37 64
        e 178 80 37 40
        e 14 90 37 64
        e 178 80 37 40
        e 14 90 32 64
        e 50 80 32 40
        e 14 90 32 64
        e 50 80 32 40
        e 14 90 32 64
        e 50 80 32 40
        e 14 90 2b 64
        e 370 80 2b 40
        e 14 90 2b 64
        e 562 80 2b 40
        e 14 90 32 64
        e 114 80 32 40
        e 14 90 32 64
        e 50 80 32 40
        e 14 90 37 64
        e 370 80 37 40
        e 14 90 2b 64
        e 370 80 2b 40
        e 14 90 2b 64
        e 370 80 2b 40
        e 14 90 2b 64
        e 370 80 2b 40
        e 14 90 2b 64
        e 178 80 2b 40
        E 14 b0 7b 00
        GUID {8345A1AF-DE69-5F49-B0E1-ECA80923C99D}
        IGNTEMPO 0 120 4 4
        SRCCOLOR 901
        VELLANE -1 86 6
        CFGEDITVIEW 0 0 33 20 0 0 0 0 0 0.5
        KEYSNAP 0
        TRACKSEL 226
        EVTFILTER 16 -1 -1 -1 -1 4 1 0 0 -1 -1 -1 -1 0 -1 0 -1 -1
        CFGEDIT 1 0 0 0 0 0 1 0 5 1 1 0.25 16 63 1280 778 0 0 2 3 0 0 0 0 0 0.5 0 0 1 64
      >
    >
    <ITEM
      POSITION 0
      SNAPOFFS 0
      LENGTH 30.5
      LOOP 1
      ALLTAKES 0
      FADEIN 1 0 0 1 0 0
      FADEOUT 1 0 0 1 0 0
      MUTE 0
      SEL 0
      YPOS 0 0.125
      IGUID {F7AEF0CE-870D-8543-9488-94D4E6AC8CC5}
      IID 1
      NAME "MELODY               - National_Anthems_-_China.mid"
      VOLPAN 1 0 1 -1
      SOFFS 6 12
      PLAYRATE 1 1 0 -1 0 0.0025
      CHANMODE 0
      TAKECOLOR 26173599 B
      GUID {85ABEF63-7DAC-D34E-84B7-E3E61B08F2EF}
      <SOURCE MIDI
        HASDATA 1 192 QN
        POOLEDEVTS {AE8A36AF-1EFD-134B-BD95-4112B780EF6A}
        <X 0 0 0 0 3 "MELODY              "
          /wNNRUxPRFkgICAgICAgICAgICAgIA==
        >
        <X 0 0 0 0 1 "THE SOFTWARE TOOLWORKS"
          /wFUSEUgU09GVFdBUkUgVE9PTFdPUktT
        >
        <X 0 0 0 0 1 "WORLD ATLAS"
          /wFXT1JMRCBBVExBUw==
        >
        <X 0 0 0 0 1 "MultiMedia Windows Version"
          /wFNdWx0aU1lZGlhIFdpbmRvd3MgVmVyc2lvbg==
        >
        <X 0 0 0 0 1 "Country: China"
          /wFDb3VudHJ5OiBDaGluYQ==
        >
        <X 0 0 0 0 1 "Anthem Name:"
          /wFBbnRoZW0gTmFtZTo=
        >
        <X 0 0 0 0 1 "(p) (c) The Software Toolworks 1991"
          /wEocCkgKGMpIFRoZSBTb2Z0d2FyZSBUb29sd29ya3MgMTk5MQ==
        >
        <X 0 0 0 0 1 notes:
          /wFub3Rlczo=
        >
        <X 0 0 0 0 1 "date: 7-16-91"
          /wFkYXRlOiA3LTE2LTkx
        >
        <X 0 0 0 0 1 "edit date: 9-1-91"
          /wFlZGl0IGRhdGU6IDktMS05MQ==
        >
        <X 0 0 0 0 1 BPM:
          /wFCUE06
        >
        <X 0 0 0 0 1 "?= no marking != bpm provided"
          /wE/PSBubyBtYXJraW5nICE9IGJwbSBwcm92aWRlZA==
        >
        <X 0 0 0 0 1 "This file provided by:"
          /wFUaGlzIGZpbGUgcHJvdmlkZWQgYnk6
        >
        <X 0 0 0 0 1 "Rob Wallace Music"
          /wFSb2IgV2FsbGFjZSBNdXNpYw==
        >
        <X 0 0 0 0 1 "(602) 978-0835"
          /wEoNjAyKSA5NzgtMDgzNQ==
        >
        <X 0 0 0 0 1 "new #: {602} 979-6201"
          /wFuZXcgIzogezYwMn0gOTc5LTYyMDE=
        >
        <X 0 0 0 0 1 "MULTIMEDIA WINDOWS VERSION"
          /wFNVUxUSU1FRElBIFdJTkRPV1MgVkVSU0lPTg==
        >
        E 2208 90 3e 7f
        E 82 80 3e 40
        E 14 90 43 7f
        E 274 80 43 40
        E 14 90 43 7f
        E 82 80 43 40
        E 14 90 43 7f
        E 130 80 43 40
        E 14 90 43 7f
        E 34 80 43 40
        E 14 90 3e 7f
        E 82 80 3e 40
        E 14 90 40 7f
        E 34 80 40 40
        E 14 90 42 7f
        E 34 80 42 40
        E 14 90 43 7f
        E 178 80 43 40
        E 14 90 43 7f
        E 178 80 43 40
        E 110 90 47 7f
        E 82 80 47 40
        E 14 90 43 7f
        E 82 80 43 40
        E 14 90 45 7f
        E 34 80 45 40
        E 14 90 47 7f
        E 34 80 47 40
        E 14 90 4a 7f
        E 178 80 4a 40
        E 14 90 4a 7f
        E 178 80 4a 40
        E 14 90 47 7f
        E 130 80 47 40
        E 14 90 47 7f
        E 34 80 47 40
        E 14 90 43 7f
        E 130 80 43 40
        E 14 90 47 7f
        E 34 80 47 40
        E 14 90 4a 7f
        E 130 80 4a 40
        E 14 90 47 7f
        E 34 80 47 40
        E 14 90 45 7f
        E 178 80 45 40
        E 14 90 45 7f
        E 370 80 45 40
        E 14 90 4c 7f
        E 178 80 4c 40
        E 14 90 4a 7f
        E 178 80 4a 40
        E 14 90 45 7f
        E 178 80 45 40
        E 14 90 47 7f
        E 178 80 47 40
        E 14 90 4a 7f
        E 82 80 4a 40
        E 14 90 47 7f
        E 82 80 47 40
        E 110 90 4a 7f
        E 82 80 4a 40
        E 14 90 47 7f
        E 82 80 47 40
        E 14 90 45 7f
        E 34 80 45 40
        E 14 90 47 7f
        E 34 80 47 40
        E 14 90 43 7f
        E 178 80 43 40
        E 14 90 47 7f
        E 178 80 47 40
        E 206 90 3e 7f
        E 130 80 3e 40
        E 14 90 40 7f
        E 34 80 40 40
        E 14 90 43 7f
        E 82 80 43 40
        E 14 90 43 7f
        E 82 80 43 40
        E 14 90 47 7f
        E 130 80 47 40
        E 14 90 47 7f
        E 34 80 47 40
        E 14 90 4a 7f
        E 82 80 4a 40
        E 14 90 4a 7f
        E 82 80 4a 40
        E 14 90 45 7f
        E 82 80 45 40
        E 14 90 45 7f
        E 34 80 45 40
        E 14 90 45 7f
        E 34 80 45 40
        E 14 90 40 7f
        E 178 80 40 40
        E 14 90 45 7f
        E 274 80 45 40
        E 14 90 3e 7f
        E 82 80 3e 40
        E 14 90 43 7f
        E 274 80 43 40
        E 14 90 43 7f
        E 82 80 43 40
        E 14 90 47 7f
        E 274 80 47 40
        E 14 90 47 7f
        E 82 80 47 40
        E 14 90 4a 7f
        E 370 80 4a 40
        E 14 90 43 7f
        E 130 80 43 40
        E 14 90 47 7f
        E 34 80 47 40
        E 14 90 4a 7f
        E 82 80 4a 40
        E 14 90 4a 7f
        E 82 80 4a 40
        E 14 90 4c 7f
        E 178 80 4c 40
        E 14 90 4a 7f
        E 178 80 4a 40
        E 14 90 47 7f
        E 128 90 43 7f
        E 2 80 47 40
        E 32 80 43 40
        E 30 90 4a 7f
        E 34 80 4a 40
        E 30 90 4a 7f
        E 34 80 4a 40
        E 30 90 4a 7f
        E 34 80 4a 40
        E 30 90 47 7f
        E 178 80 47 40
        E 14 90 43 7f
        E 178 80 43 40
        E 14 90 3e 7f
        E 178 80 3e 40
        E 14 90 43 7f
        E 178 80 43 40
        E 14 90 47 7f
        E 128 90 43 7f
        E 2 80 47 40
        E 32 80 43 40
        E 30 90 4a 7f
        E 34 80 4a 40
        E 30 90 4a 7f
        E 34 80 4a 40
        E 30 90 4a 7f
        E 34 80 4a 40
        E 30 90 47 7f
        E 178 80 47 40
        E 14 90 43 7f
        E 178 80 43 40
        E 14 90 3e 7f
        E 178 80 3e 40
        E 14 90 43 7f
        E 178 80 43 40
        E 14 90 3e 7f
        E 178 80 3e 40
        E 14 90 43 7f
        E 178 80 43 40
        E 14 90 3e 7f
        E 178 80 3e 40
        E 14 90 43 7f
        E 178 80 43 40
        E 14 90 43 7f
        E 178 80 43 40
        E 14 b0 7b 00
        GUID {99B4821B-AF09-9844-8525-1007B8593884}
        IGNTEMPO 0 120 4 4
        SRCCOLOR 653
        VELLANE -1 86 6
      >
      TAKE
      NAME "MELODY               - National_Anthems_-_China.mid"
      TAKEVOLPAN 0 1 -1
      SOFFS 6 12
      PLAYRATE 1 1 0 -1 0 0.0025
      CHANMODE 0
      GUID {0DDE34C9-5D0A-814B-A3B8-6180A795FA10}
      <SOURCE MIDI
        HASDATA 1 192 QN
        POOLEDEVTS {1B86DC23-3545-0A47-98A9-116B44056D31}
        <X 0 0 0 0 3 "MELODY              "
          /wNNRUxPRFkgICAgICAgICAgICAgIA==
        >
        <X 0 0 0 0 1 "THE SOFTWARE TOOLWORKS"
          /wFUSEUgU09GVFdBUkUgVE9PTFdPUktT
        >
        <X 0 0 0 0 1 "WORLD ATLAS"
          /wFXT1JMRCBBVExBUw==
        >
        <X 0 0 0 0 1 "MultiMedia Windows Version"
          /wFNdWx0aU1lZGlhIFdpbmRvd3MgVmVyc2lvbg==
        >
        <X 0 0 0 0 1 "Country: China"
          /wFDb3VudHJ5OiBDaGluYQ==
        >
        <X 0 0 0 0 1 "Anthem Name:"
          /wFBbnRoZW0gTmFtZTo=
        >
        <X 0 0 0 0 1 "(p) (c) The Software Toolworks 1991"
          /wEocCkgKGMpIFRoZSBTb2Z0d2FyZSBUb29sd29ya3MgMTk5MQ==
        >
        <X 0 0 0 0 1 notes:
          /wFub3Rlczo=
        >
        <X 0 0 0 0 1 "date: 7-16-91"
          /wFkYXRlOiA3LTE2LTkx
        >
        <X 0 0 0 0 1 "edit date: 9-1-91"
          /wFlZGl0IGRhdGU6IDktMS05MQ==
        >
        <X 0 0 0 0 1 BPM:
          /wFCUE06
        >
        <X 0 0 0 0 1 "?= no marking != bpm provided"
          /wE/PSBubyBtYXJraW5nICE9IGJwbSBwcm92aWRlZA==
        >
        <X 0 0 0 0 1 "This file provided by:"
          /wFUaGlzIGZpbGUgcHJvdmlkZWQgYnk6
        >
        <X 0 0 0 0 1 "Rob Wallace Music"
          /wFSb2IgV2FsbGFjZSBNdXNpYw==
        >
        <X 0 0 0 0 1 "(602) 978-0835"
          /wEoNjAyKSA5NzgtMDgzNQ==
        >
        <X 0 0 0 0 1 "new #: {602} 979-6201"
          /wFuZXcgIzogezYwMn0gOTc5LTYyMDE=
        >
        <X 0 0 0 0 1 "MULTIMEDIA WINDOWS VERSION"
          /wFNVUxUSU1FRElBIFdJTkRPV1MgVkVSU0lPTg==
        >
        E 2208 90 3e 7f
        E 82 80 3e 40
        E 14 90 43 7f
        E 274 80 43 40
        E 14 90 43 7f
        E 82 80 43 40
        E 14 90 43 7f
        E 130 80 43 40
        E 14 90 43 7f
        E 34 80 43 40
        E 14 90 3e 7f
        E 82 80 3e 40
        E 14 90 40 7f
        E 34 80 40 40
        E 14 90 42 7f
        E 34 80 42 40
        E 14 90 43 7f
        E 178 80 43 40
        E 14 90 43 7f
        E 178 80 43 40
        E 110 90 47 7f
        E 82 80 47 40
        E 14 90 43 7f
        E 82 80 43 40
        E 14 90 45 7f
        E 34 80 45 40
        E 14 90 47 7f
        E 34 80 47 40
        E 14 90 4a 7f
        E 178 80 4a 40
        E 14 90 4a 7f
        E 178 80 4a 40
        E 14 90 47 7f
        E 130 80 47 40
        E 14 90 47 7f
        E 34 80 47 40
        E 14 90 43 7f
        E 130 80 43 40
        E 14 90 47 7f
        E 34 80 47 40
        E 14 90 4a 7f
        E 130 80 4a 40
        E 14 90 47 7f
        E 34 80 47 40
        E 14 90 45 7f
        E 178 80 45 40
        E 14 90 45 7f
        E 370 80 45 40
        E 14 90 4c 7f
        E 178 80 4c 40
        E 14 90 4a 7f
        E 178 80 4a 40
        E 14 90 45 7f
        E 178 80 45 40
        E 14 90 47 7f
        E 178 80 47 40
        E 14 90 4a 7f
        E 82 80 4a 40
        E 14 90 47 7f
        E 82 80 47 40
        E 110 90 4a 7f
        E 82 80 4a 40
        E 14 90 47 7f
        E 82 80 47 40
        E 14 90 45 7f
        E 34 80 45 40
        E 14 90 47 7f
        E 34 80 47 40
        E 14 90 43 7f
        E 178 80 43 40
        E 14 90 47 7f
        E 178 80 47 40
        E 206 90 3e 7f
        E 130 80 3e 40
        E 14 90 40 7f
        E 34 80 40 40
        E 14 90 43 7f
        E 82 80 43 40
        E 14 90 43 7f
        E 82 80 43 40
        E 14 90 47 7f
        E 130 80 47 40
        E 14 90 47 7f
        E 34 80 47 40
        E 14 90 4a 7f
        E 82 80 4a 40
        E 14 90 4a 7f
        E 82 80 4a 40
        E 14 90 45 7f
        E 82 80 45 40
        E 14 90 45 7f
        E 34 80 45 40
        E 14 90 45 7f
        E 34 80 45 40
        E 14 90 40 7f
        E 178 80 40 40
        E 14 90 45 7f
        E 274 80 45 40
        E 14 90 3e 7f
        E 82 80 3e 40
        E 14 90 43 7f
        E 274 80 43 40
        E 14 90 43 7f
        E 82 80 43 40
        E 14 90 47 7f
        E 274 80 47 40
        E 14 90 47 7f
        E 82 80 47 40
        E 14 90 4a 7f
        E 370 80 4a 40
        E 14 90 43 7f
        E 130 80 43 40
        E 14 90 47 7f
        E 34 80 47 40
        E 14 90 4a 7f
        E 82 80 4a 40
        E 14 90 4a 7f
        E 82 80 4a 40
        E 14 90 4c 7f
        E 178 80 4c 40
        E 14 90 4a 7f
        E 178 80 4a 40
        E 14 90 47 7f
        E 128 90 43 7f
        E 2 80 47 40
        E 32 80 43 40
        E 30 90 4a 7f
        E 34 80 4a 40
        E 30 90 4a 7f
        E 34 80 4a 40
        E 30 90 4a 7f
        E 34 80 4a 40
        E 30 90 47 7f
        E 178 80 47 40
        E 14 90 43 7f
        E 178 80 43 40
        E 14 90 3e 7f
        E 178 80 3e 40
        E 14 90 43 7f
        E 178 80 43 40
        E 14 90 47 7f
        E 128 90 43 7f
        E 2 80 47 40
        E 32 80 43 40
        E 30 90 4a 7f
        E 34 80 4a 40
        E 30 90 4a 7f
        E 34 80 4a 40
        E 30 90 4a 7f
        E 34 80 4a 40
        E 30 90 47 7f
        E 178 80 47 40
        E 14 90 43 7f
        E 178 80 43 40
        E 14 90 3e 7f
        E 178 80 3e 40
        E 14 90 43 7f
        E 178 80 43 40
        E 14 90 3e 7f
        E 178 80 3e 40
        E 14 90 43 7f
        E 178 80 43 40
        E 14 90 3e 7f
        E 178 80 3e 40
        E 14 90 43 7f
        E 178 80 43 40
        E 14 90 43 7f
        E 178 80 43 40
        E 14 b0 7b 00
        GUID {5710B420-4C96-134E-87E6-DD57F48DC2C8}
        IGNTEMPO 0 120 4 4
        SRCCOLOR 902
        VELLANE -1 86 6
      >
    >
  >
  <TRACK {4A6CD977-ADCC-3A4D-927C-BB2CEF4B0809}
    NAME "vst Gladiator"
    PEAKCOL 27222112
    BEAT -1
    AUTOMODE 0
    VOLPAN 0.46976747615165 0 -1 -1 1
    MUTESOLO 0 0 0
    IPHASE 0
    ISBUS 0 0
    BUSCOMP 2 0
    SHOWINMIX 1 0.6667 0.5 1 0 0 0 0
    FREEMODE 0
    SEL 0
    REC 0 0 0 0 0 0 0
    VU 2
    TRACKHEIGHT 172 0
    INQ 0 0 0 0.5 100 0 0 100
    NCHAN 2
    FX 1
    TRACKID {4A6CD977-ADCC-3A4D-927C-BB2CEF4B0809}
    PERF 0
    MIDIOUT -1
    MAINSEND 1 0
    <FXCHAIN
      SHOW 0
      LASTSEL 0
      DOCKED 0
      BYPASS 0 0 0
      <VST "VSTi: Gladiator (Tone2.com)" Gladiator.vst 0 "" 1412581196
        TEcyVO5e7f4AAAAAAgAAAAEAAAAAAAAAAgAAAAAAAABaBAAAAQAAAAAAEAA=
        Q2NuSwAAAGBGeENrAAAAAVQyR0wAAAABAAABB0luaXQAAAAAAAAAAAAAAAAAAAAAAAAAAAAAAAA9zMzNPMzMzTw0OVg9uFH0PXnbIz+AAAA7xJumPb52yT+AAAA7xJum
        AAAAAD6mZmY+PXCkP4AAAD7FHrk/AAAAPwAAAAAAAAA9ffO2PdDlYDy8an8/RR64AAAAAD+AAAA8NDlYPZFocz71wo87RJumPbhR6D69cKQ+PXCkP4AAAD8AAAA/A9cL
        PwAAAAAAAAAAAAAAPwAAAD8AAAA/AAAAPtmZmj8AAAAAAAAAO+VgQj24UesAAAAAPk21xDtEm6Y/S4UeAAAAAAAAAAA+64UgPpR64T1hR7A+z1woPx64Uj49cKY/AAAA
        PwAAAAAAAAAAAAAAPwAAAAAAAAAAAAAAP4AAAD+AAAAAAAAAPxHrhT8AAAA/AAAAPwAAAD8AAAAAAAAAPwAAAD8AAAA/AAAAAAAAAD8AAAA/AAAAPwAAAAAAAAA6gxJv
        P1Cj1wAAAAA/gAAAAAAAADqDEm8/AAAAAAAAAAAAAAAAAAAAPwAAAAAAAAA/gAAAAAAAAD+AAAAAAAAAPwAAAD8AAAA/AAAAPwAAAD8AAAA/AAAAPwAAAD8AAAA/AAAA
        PwAAAD8AAAA/EeuGPKPXCjqDEm88RJumAAAAAAAAAAAAAAAAPLxqfwAAAAAAAAAAAAAAAAAAAAAAAAAAAAAAAAAAAAAAAAAAAAAAAAAAAAAAAAAAAAAAAAAAAAAAAAAA
        AAAAAAAAAAA8E3S8AAAAADw0OVgAAAAAPBN0vAAAAAA8NDlYAAAAADwTdLwAAAAAPDQ5WAAAAAA8E3S8AAAAADw0OVgAAAAAPGVgQj2HKwI8ZWBCOwMSbz2JN0w7AxJv
        PLQ5WDyLQ5Y8k3S8PVT99D0XjVA8zMzNPoAAAD9ywjU/AAAAP1GnuT8wjT4/HLCNAAAAADsDEm86gxJvAAAAAAAAAAAAAAAAPwAAADqDEm87RJumP4AAAAAAAAA/gAAA
        AAAAAD+AAAAAAAAAAAAAAAAAAAAAAAAAP4AAAAAAAAA/AAAAAAAAAD8AAAA/BR64PwAAAD+AAAA/AAAAPwAAAD8AAAA/gAAAP4AAAAAAAAAAAAAAAAAAAD8AAAA/gAAA
        PwAAAAAAAAA+vXCkAAAAAAAAAAA/gAAAP4AAAD8j1wo/gAAAAAAAAAAAAAA/gAAAPwAAAAAAAAAAAAAAAAAAAAAAAAAAAAAAAAAAAAAAAAAAAAAAAAAAAAAAAAAAAAAA
        AAAAAD8AAAA/AAAAPwAAAD8AAAA/AAAAPwAAAAAAAAAAAAAAP4AAAAAAAAAAAAAAAAAAAAAAAAAAAAAAAAAAAAAAAAAAAAAAAAAAAAAAAAAAAAAAAAAAAAAAAAAAAAAA
        AAAAAAAAAAAAAAAAAAAAAAAAAAAAAAAAAAAAAAAAAAAAAAAAAAAAAAAAAAAAAAAAAAAAAAAAqqusrQ==
        AEluaXQAEAAAAA==
      >
      PRESETNAME Init
      FLOATPOS 500 379 987 799
      FXID {532372E3-5B0D-9345-A9C8-98A8EBAF9A7E}
      WAK 0
    >
    <ITEM
      POSITION 0
      SNAPOFFS 0
      LENGTH 30.5
      LOOP 1
      ALLTAKES 0
      FADEIN 1 0 0 1 0 0
      FADEOUT 1 0 0 1 0 0
      MUTE 0
      SEL 0
      YPOS 0 0.125
      IGUID {3FA7882D-2525-7D42-AE3D-1A2E2D1DDD1A}
      IID 1
      NAME "MELODY               - National_Anthems_-_China.mid"
      VOLPAN 1 0 1 -1
      SOFFS 6 12
      PLAYRATE 1 1 0 -1 0 0.0025
      CHANMODE 0
      TAKECOLOR 26173599 B
      GUID {6BDEFE0E-7FE2-9C47-8A57-5819DB2D41CF}
      <SOURCE MIDI
        HASDATA 1 192 QN
        POOLEDEVTS {A9CFCA12-2989-874B-AE5D-755047F7B190}
        <X 0 0 0 0 3 "MELODY              "
          /wNNRUxPRFkgICAgICAgICAgICAgIA==
        >
        <X 0 0 0 0 1 "THE SOFTWARE TOOLWORKS"
          /wFUSEUgU09GVFdBUkUgVE9PTFdPUktT
        >
        <X 0 0 0 0 1 "WORLD ATLAS"
          /wFXT1JMRCBBVExBUw==
        >
        <X 0 0 0 0 1 "MultiMedia Windows Version"
          /wFNdWx0aU1lZGlhIFdpbmRvd3MgVmVyc2lvbg==
        >
        <X 0 0 0 0 1 "Country: China"
          /wFDb3VudHJ5OiBDaGluYQ==
        >
        <X 0 0 0 0 1 "Anthem Name:"
          /wFBbnRoZW0gTmFtZTo=
        >
        <X 0 0 0 0 1 "(p) (c) The Software Toolworks 1991"
          /wEocCkgKGMpIFRoZSBTb2Z0d2FyZSBUb29sd29ya3MgMTk5MQ==
        >
        <X 0 0 0 0 1 notes:
          /wFub3Rlczo=
        >
        <X 0 0 0 0 1 "date: 7-16-91"
          /wFkYXRlOiA3LTE2LTkx
        >
        <X 0 0 0 0 1 "edit date: 9-1-91"
          /wFlZGl0IGRhdGU6IDktMS05MQ==
        >
        <X 0 0 0 0 1 BPM:
          /wFCUE06
        >
        <X 0 0 0 0 1 "?= no marking != bpm provided"
          /wE/PSBubyBtYXJraW5nICE9IGJwbSBwcm92aWRlZA==
        >
        <X 0 0 0 0 1 "This file provided by:"
          /wFUaGlzIGZpbGUgcHJvdmlkZWQgYnk6
        >
        <X 0 0 0 0 1 "Rob Wallace Music"
          /wFSb2IgV2FsbGFjZSBNdXNpYw==
        >
        <X 0 0 0 0 1 "(602) 978-0835"
          /wEoNjAyKSA5NzgtMDgzNQ==
        >
        <X 0 0 0 0 1 "new #: {602} 979-6201"
          /wFuZXcgIzogezYwMn0gOTc5LTYyMDE=
        >
        <X 0 0 0 0 1 "MULTIMEDIA WINDOWS VERSION"
          /wFNVUxUSU1FRElBIFdJTkRPV1MgVkVSU0lPTg==
        >
        E 2208 90 3e 7f
        E 82 80 3e 40
        E 14 90 43 7f
        E 274 80 43 40
        E 14 90 43 7f
        E 82 80 43 40
        E 14 90 43 7f
        E 130 80 43 40
        E 14 90 43 7f
        E 34 80 43 40
        E 14 90 3e 7f
        E 82 80 3e 40
        E 14 90 40 7f
        E 34 80 40 40
        E 14 90 42 7f
        E 34 80 42 40
        E 14 90 43 7f
        E 178 80 43 40
        E 14 90 43 7f
        E 178 80 43 40
        E 110 90 47 7f
        E 82 80 47 40
        E 14 90 43 7f
        E 82 80 43 40
        E 14 90 45 7f
        E 34 80 45 40
        E 14 90 47 7f
        E 34 80 47 40
        E 14 90 4a 7f
        E 178 80 4a 40
        E 14 90 4a 7f
        E 178 80 4a 40
        E 14 90 47 7f
        E 130 80 47 40
        E 14 90 47 7f
        E 34 80 47 40
        E 14 90 43 7f
        E 130 80 43 40
        E 14 90 47 7f
        E 34 80 47 40
        E 14 90 4a 7f
        E 130 80 4a 40
        E 14 90 47 7f
        E 34 80 47 40
        E 14 90 45 7f
        E 178 80 45 40
        E 14 90 45 7f
        E 370 80 45 40
        E 14 90 4c 7f
        E 178 80 4c 40
        E 14 90 4a 7f
        E 178 80 4a 40
        E 14 90 45 7f
        E 178 80 45 40
        E 14 90 47 7f
        E 178 80 47 40
        E 14 90 4a 7f
        E 82 80 4a 40
        E 14 90 47 7f
        E 82 80 47 40
        E 110 90 4a 7f
        E 82 80 4a 40
        E 14 90 47 7f
        E 82 80 47 40
        E 14 90 45 7f
        E 34 80 45 40
        E 14 90 47 7f
        E 34 80 47 40
        E 14 90 43 7f
        E 178 80 43 40
        E 14 90 47 7f
        E 178 80 47 40
        E 206 90 3e 7f
        E 130 80 3e 40
        E 14 90 40 7f
        E 34 80 40 40
        E 14 90 43 7f
        E 82 80 43 40
        E 14 90 43 7f
        E 82 80 43 40
        E 14 90 47 7f
        E 130 80 47 40
        E 14 90 47 7f
        E 34 80 47 40
        E 14 90 4a 7f
        E 82 80 4a 40
        E 14 90 4a 7f
        E 82 80 4a 40
        E 14 90 45 7f
        E 82 80 45 40
        E 14 90 45 7f
        E 34 80 45 40
        E 14 90 45 7f
        E 34 80 45 40
        E 14 90 40 7f
        E 178 80 40 40
        E 14 90 45 7f
        E 274 80 45 40
        E 14 90 3e 7f
        E 82 80 3e 40
        E 14 90 43 7f
        E 274 80 43 40
        E 14 90 43 7f
        E 82 80 43 40
        E 14 90 47 7f
        E 274 80 47 40
        E 14 90 47 7f
        E 82 80 47 40
        E 14 90 4a 7f
        E 370 80 4a 40
        E 14 90 43 7f
        E 130 80 43 40
        E 14 90 47 7f
        E 34 80 47 40
        E 14 90 4a 7f
        E 82 80 4a 40
        E 14 90 4a 7f
        E 82 80 4a 40
        E 14 90 4c 7f
        E 178 80 4c 40
        E 14 90 4a 7f
        E 178 80 4a 40
        E 14 90 47 7f
        E 128 90 43 7f
        E 2 80 47 40
        E 32 80 43 40
        E 30 90 4a 7f
        E 34 80 4a 40
        E 30 90 4a 7f
        E 34 80 4a 40
        E 30 90 4a 7f
        E 34 80 4a 40
        E 30 90 47 7f
        E 178 80 47 40
        E 14 90 43 7f
        E 178 80 43 40
        E 14 90 3e 7f
        E 178 80 3e 40
        E 14 90 43 7f
        E 178 80 43 40
        E 14 90 47 7f
        E 128 90 43 7f
        E 2 80 47 40
        E 32 80 43 40
        E 30 90 4a 7f
        E 34 80 4a 40
        E 30 90 4a 7f
        E 34 80 4a 40
        E 30 90 4a 7f
        E 34 80 4a 40
        E 30 90 47 7f
        E 178 80 47 40
        E 14 90 43 7f
        E 178 80 43 40
        E 14 90 3e 7f
        E 178 80 3e 40
        E 14 90 43 7f
        E 178 80 43 40
        E 14 90 3e 7f
        E 178 80 3e 40
        E 14 90 43 7f
        E 178 80 43 40
        E 14 90 3e 7f
        E 178 80 3e 40
        E 14 90 43 7f
        E 178 80 43 40
        E 14 90 43 7f
        E 178 80 43 40
        E 14 b0 7b 00
        GUID {99B4821B-AF09-9844-8525-1007B8593884}
        IGNTEMPO 0 120 4 4
        SRCCOLOR 653
        VELLANE -1 86 6
      >
      TAKE
      NAME "MELODY               - National_Anthems_-_China.mid"
      TAKEVOLPAN 0 1 -1
      SOFFS 6 12
      PLAYRATE 1 1 0 -1 0 0.0025
      CHANMODE 0
      GUID {AA8316AF-AB40-4648-95ED-C34EE2C90025}
      <SOURCE MIDI
        HASDATA 1 192 QN
        POOLEDEVTS {5EF6AB77-2BF5-6F4E-B816-D2F79B18F909}
        <X 0 0 0 0 3 "MELODY              "
          /wNNRUxPRFkgICAgICAgICAgICAgIA==
        >
        <X 0 0 0 0 1 "THE SOFTWARE TOOLWORKS"
          /wFUSEUgU09GVFdBUkUgVE9PTFdPUktT
        >
        <X 0 0 0 0 1 "WORLD ATLAS"
          /wFXT1JMRCBBVExBUw==
        >
        <X 0 0 0 0 1 "MultiMedia Windows Version"
          /wFNdWx0aU1lZGlhIFdpbmRvd3MgVmVyc2lvbg==
        >
        <X 0 0 0 0 1 "Country: China"
          /wFDb3VudHJ5OiBDaGluYQ==
        >
        <X 0 0 0 0 1 "Anthem Name:"
          /wFBbnRoZW0gTmFtZTo=
        >
        <X 0 0 0 0 1 "(p) (c) The Software Toolworks 1991"
          /wEocCkgKGMpIFRoZSBTb2Z0d2FyZSBUb29sd29ya3MgMTk5MQ==
        >
        <X 0 0 0 0 1 notes:
          /wFub3Rlczo=
        >
        <X 0 0 0 0 1 "date: 7-16-91"
          /wFkYXRlOiA3LTE2LTkx
        >
        <X 0 0 0 0 1 "edit date: 9-1-91"
          /wFlZGl0IGRhdGU6IDktMS05MQ==
        >
        <X 0 0 0 0 1 BPM:
          /wFCUE06
        >
        <X 0 0 0 0 1 "?= no marking != bpm provided"
          /wE/PSBubyBtYXJraW5nICE9IGJwbSBwcm92aWRlZA==
        >
        <X 0 0 0 0 1 "This file provided by:"
          /wFUaGlzIGZpbGUgcHJvdmlkZWQgYnk6
        >
        <X 0 0 0 0 1 "Rob Wallace Music"
          /wFSb2IgV2FsbGFjZSBNdXNpYw==
        >
        <X 0 0 0 0 1 "(602) 978-0835"
          /wEoNjAyKSA5NzgtMDgzNQ==
        >
        <X 0 0 0 0 1 "new #: {602} 979-6201"
          /wFuZXcgIzogezYwMn0gOTc5LTYyMDE=
        >
        <X 0 0 0 0 1 "MULTIMEDIA WINDOWS VERSION"
          /wFNVUxUSU1FRElBIFdJTkRPV1MgVkVSU0lPTg==
        >
        E 2208 90 3e 7f
        E 82 80 3e 40
        E 14 90 43 7f
        E 274 80 43 40
        E 14 90 43 7f
        E 82 80 43 40
        E 14 90 43 7f
        E 130 80 43 40
        E 14 90 43 7f
        E 34 80 43 40
        E 14 90 3e 7f
        E 82 80 3e 40
        E 14 90 40 7f
        E 34 80 40 40
        E 14 90 42 7f
        E 34 80 42 40
        E 14 90 43 7f
        E 178 80 43 40
        E 14 90 43 7f
        E 178 80 43 40
        E 110 90 47 7f
        E 82 80 47 40
        E 14 90 43 7f
        E 82 80 43 40
        E 14 90 45 7f
        E 34 80 45 40
        E 14 90 47 7f
        E 34 80 47 40
        E 14 90 4a 7f
        E 178 80 4a 40
        E 14 90 4a 7f
        E 178 80 4a 40
        E 14 90 47 7f
        E 130 80 47 40
        E 14 90 47 7f
        E 34 80 47 40
        E 14 90 43 7f
        E 130 80 43 40
        E 14 90 47 7f
        E 34 80 47 40
        E 14 90 4a 7f
        E 130 80 4a 40
        E 14 90 47 7f
        E 34 80 47 40
        E 14 90 45 7f
        E 178 80 45 40
        E 14 90 45 7f
        E 370 80 45 40
        E 14 90 4c 7f
        E 178 80 4c 40
        E 14 90 4a 7f
        E 178 80 4a 40
        E 14 90 45 7f
        E 178 80 45 40
        E 14 90 47 7f
        E 178 80 47 40
        E 14 90 4a 7f
        E 82 80 4a 40
        E 14 90 47 7f
        E 82 80 47 40
        E 110 90 4a 7f
        E 82 80 4a 40
        E 14 90 47 7f
        E 82 80 47 40
        E 14 90 45 7f
        E 34 80 45 40
        E 14 90 47 7f
        E 34 80 47 40
        E 14 90 43 7f
        E 178 80 43 40
        E 14 90 47 7f
        E 178 80 47 40
        E 206 90 3e 7f
        E 130 80 3e 40
        E 14 90 40 7f
        E 34 80 40 40
        E 14 90 43 7f
        E 82 80 43 40
        E 14 90 43 7f
        E 82 80 43 40
        E 14 90 47 7f
        E 130 80 47 40
        E 14 90 47 7f
        E 34 80 47 40
        E 14 90 4a 7f
        E 82 80 4a 40
        E 14 90 4a 7f
        E 82 80 4a 40
        E 14 90 45 7f
        E 82 80 45 40
        E 14 90 45 7f
        E 34 80 45 40
        E 14 90 45 7f
        E 34 80 45 40
        E 14 90 40 7f
        E 178 80 40 40
        E 14 90 45 7f
        E 274 80 45 40
        E 14 90 3e 7f
        E 82 80 3e 40
        E 14 90 43 7f
        E 274 80 43 40
        E 14 90 43 7f
        E 82 80 43 40
        E 14 90 47 7f
        E 274 80 47 40
        E 14 90 47 7f
        E 82 80 47 40
        E 14 90 4a 7f
        E 370 80 4a 40
        E 14 90 43 7f
        E 130 80 43 40
        E 14 90 47 7f
        E 34 80 47 40
        E 14 90 4a 7f
        E 82 80 4a 40
        E 14 90 4a 7f
        E 82 80 4a 40
        E 14 90 4c 7f
        E 178 80 4c 40
        E 14 90 4a 7f
        E 178 80 4a 40
        E 14 90 47 7f
        E 128 90 43 7f
        E 2 80 47 40
        E 32 80 43 40
        E 30 90 4a 7f
        E 34 80 4a 40
        E 30 90 4a 7f
        E 34 80 4a 40
        E 30 90 4a 7f
        E 34 80 4a 40
        E 30 90 47 7f
        E 178 80 47 40
        E 14 90 43 7f
        E 178 80 43 40
        E 14 90 3e 7f
        E 178 80 3e 40
        E 14 90 43 7f
        E 178 80 43 40
        E 14 90 47 7f
        E 128 90 43 7f
        E 2 80 47 40
        E 32 80 43 40
        E 30 90 4a 7f
        E 34 80 4a 40
        E 30 90 4a 7f
        E 34 80 4a 40
        E 30 90 4a 7f
        E 34 80 4a 40
        E 30 90 47 7f
        E 178 80 47 40
        E 14 90 43 7f
        E 178 80 43 40
        E 14 90 3e 7f
        E 178 80 3e 40
        E 14 90 43 7f
        E 178 80 43 40
        E 14 90 3e 7f
        E 178 80 3e 40
        E 14 90 43 7f
        E 178 80 43 40
        E 14 90 3e 7f
        E 178 80 3e 40
        E 14 90 43 7f
        E 178 80 43 40
        E 14 90 43 7f
        E 178 80 43 40
        E 14 b0 7b 00
        GUID {5710B420-4C96-134E-87E6-DD57F48DC2C8}
        IGNTEMPO 0 120 4 4
        SRCCOLOR 902
        VELLANE -1 86 6
      >
    >
  >
  <TRACK {9E2CAE92-CCC1-1F4A-BCF6-93DCFE473BDF}
    NAME "16th pulse (mix w/ send?)"
    PEAKCOL 16576
    BEAT -1
    AUTOMODE 0
    VOLPAN 1 0 -1 -1 1
    MUTESOLO 0 0 0
    IPHASE 0
    ISBUS 1 1
    BUSCOMP 0 0
    SHOWINMIX 1 0.6667 0.5 1 0 0 0 0
    FREEMODE 0
    SEL 0
    REC 0 0 0 0 0 0 0
    VU 2
    TRACKHEIGHT 0 0
    INQ 0 0 0 0.5 100 0 0 100
    NCHAN 4
    FX 1
    TRACKID {9E2CAE92-CCC1-1F4A-BCF6-93DCFE473BDF}
    PERF 0
    AUXRECV 3 0 1 0 0 0 0 0 0 -1:U 64 -1 ''
    AUXRECV 4 0 1 0 0 0 0 0 0 -1:U 32 -1 ''
    MIDIOUT -1
    MAINSEND 0 0
    <FXCHAIN
      WNDRECT 36 359 724 387
      SHOW 0
      LASTSEL 0
      DOCKED 0
      BYPASS 0 0 0
      <VST "VSTi: chipsounds (Multi) (Plogue Art et Technologie, Inc) (32 out)" "chipsounds Multi.vst" 0 "" 1347241807
        T0dNUO5e7f4AAAAAIAAAAAEAAAAAAAAAAgAAAAAAAAAEAAAAAAAAAAgAAAAAAAAAEAAAAAAAAAAgAAAAAAAAAEAAAAAAAAAAgAAAAAAAAAAAAQAAAAAAAAACAAAAAAAA
        AAQAAAAAAAAACAAAAAAAAAAQAAAAAAAAACAAAAAAAAAAQAAAAAAAAACAAAAAAAAAAAABAAAAAAAAAAIAAAAAAAAABAAAAAAAAAAIAAAAAAAAABAAAAAAAAAAIAAAAAAA
        AABAAAAAAAAAAIAAAAAAAAAAAAEAAAAAAAAAAgAAAAAAAAAEAAAAAAAAAAgAAAAAAAAAEAAAAAAAAAAgAAAAAAAAAEAAAAAAAAAAgAAAAADvBAAAAQAAAAAAEAA=
        Q0VHULQfAAB4nO1ZS2/bOBC+51cIOu0eKvEpkkCcwnGSwsBmG8DZc8HYrCNUllyJyqb763ck2THzoOW8tgXWczFFz5AzH4ejmdHhx9tFFtyYskqLfBDiCIXBx6ODw2GZ
        6om+Mc5fCidhsCyLWT214xOYQEiFRwcB0OHEWJvm8yr4XusstT/g3zCobGn0AqYHISVhsNC3k3ZmmGXF9Px4EHIM0+fjk/Hn2p4XM9NK6doWC21hz0lW2EGI3KnM3Jhs
        EKY5rF0vTG7DIEtvTCcMnNW0UZS3I51pmMPBh8A0WkXVNFtNj0DQlIMwAb55Vlzp7LLOWz1hIl6bBLsH6aydy/WiWR9HwUVdmmB0nS7jyfgkTrjEwW9/Xk5Gv4fBlc6/
        jWcrXBzcJAErp9c6zxvVYbVlkQFALAzsZtfl1ZdS53PY5QNgsLTwULV/LJxhMbVwJBtDgXNR29XE318yXdlm3c6A1ohzneZrI250VncQx09x4DsO5OEgvRy0l4P1cvBe
        jqSXQ/RyyF4O1cuBUT9LP6q4H1bcjyvuBxZ7kb3QpV5sP+INi3ejDYvwOduGxcUuYnBjG2IikVQ0YcYj5OAQEe5lYy4bVS2xhHIuiVdmF50dl4gw6dblhOKESObFwjWU
        4k4I+AVjxGuowC46qBNKGKGCNBh4hIirnmwRRQJzwrnwq3cPUtoJMSwIJdwLhHABTjqAJU8Uk5L71XPcLxLdTlghQZlM/ELJPZs6NyFUMhhLr5BzuSOwpoNPSkkYnJrX
        KunutUICY0WQIsoro54vo9A9mzrtRILhXcL8/kldlxBSMIQ5QJ7IRHp3wtR1CY6oogIhDq4k4Iz9+m0U9HqoQht9vEorRPpvlUI7RBSFkl1WkrswqV2i0y6aY4Koj+tS
        l3NjV4nDtFhEF1kxr03U5FXRH2efo7oyJXJe1a3UqK4g0znRVgfX9scSRLngoG+V/gNjljAnrwCsTD5LdTecgQwM1nTW/RC0pz3t6Veh+zEi7oLEc6MG3keNPe3p/0Mv
        jRqXZTqfm3Jivtcmn5qyP24wyuhd3BBO2CBPhQ3cqXe2ItTmv+IMERijUynwQ0PoSJypHQzGiG0z+jBuejMP2zT4Tds0eN2mIZs2DX7TPg3Z92n2fZqX9mncYhDuSwIF
        XUMMKUQTbz3oVoMKcQ6VquBESqqwt8i510sRLIHyUSrGEywSfwH+zP6Pt5MjvCfn6ZVw1rYIABCpIBz5F3bbHkixVYcACYXEbm0P2iHe27O61/YgWO22k/fqvK5d4Zb2
        3paQW9pvKaPfo7Tf0kn4L0r7dyna5Uuz70evzwd0usObFP2kmuPFRr8R/ZyUCVP+3JzpuHlqcibM0bE4O35kiT9nWudXEJKBhpw2WI5+2dkn9N01xzv9+tVMrftBbp1W
        dQc4XFylzXH1JHfrL3uf/hqv19FTm96Y8eZLY/t8evdcmQx2NrNLfdU8uxGlNJWx5yavg7Ras9vWgu0eFVhzCyzHuqoggdT2ehDGw+UyS6ftF84q7gQhFU2XVVHnM5hp
        96riLcvGnWcGMD/9VsXN6pGGG7x8EAcfaY2f1HpYLs18nmpbbBTO0uUrFHZWjJulXqOdD1PQYGFK/Q6wrrQvgLnbo0d986RLfNJlmVqdRxuHXTtDlpUF7IPXum+8NQZ3
        PTo4jNdf5I8O/gX2r5an
        AAAQAAAA
      >
      FLOATPOS 32 36 870 508
      FXID {F1CF7127-0985-2F42-B400-18B093D29529}
      WAK 0
      BYPASS 1 0 0
      <JS Delay/time_adjustment ""
        -10.000000 0.000000 -120.000000 0.000000 - - - - - - - - - - - - - - - - - - - - - - - - - - - - - - - - - - - - - - - - - - - - - - - - - - - - - - - - - - - - 
      >
      FLOATPOS 0 4 554 157
      FXID {40721658-5454-1743-9C6A-517A806DB8F9}
      WAK 0
    >
  >
  <TRACK {4FCA358B-3FAC-3749-9BC2-11E94F70145F}
    NAME 16ths
    PEAKCOL 16576
    BEAT -1
    AUTOMODE 0
    VOLPAN 1 0 -1 -1 1
    MUTESOLO 0 0 0
    IPHASE 0
    ISBUS 0 0
    BUSCOMP 0 0
    SHOWINMIX 1 0.6667 0.5 1 0 0 0 0
    FREEMODE 0
    SEL 0
    REC 0 0 0 0 0 0 0
    VU 2
    TRACKHEIGHT 0 0
    INQ 0 0 0 0.5 100 0 0 100
    NCHAN 2
    FX 1
    TRACKID {4FCA358B-3FAC-3749-9BC2-11E94F70145F}
    PERF 0
    MIDIOUT -1
    MAINSEND 0 0
  >
  <TRACK {B0448BAA-9F98-5543-9DF7-CDB8296564E0}
    NAME Full
    PEAKCOL 16576
    BEAT -1
    AUTOMODE 0
    VOLPAN 1 0 -1 -1 1
    MUTESOLO 0 0 0
    IPHASE 0
    ISBUS 2 -1
    BUSCOMP 0 0
    SHOWINMIX 1 0.6667 0.5 1 0 0 0 0
    FREEMODE 0
    SEL 0
    REC 0 0 0 0 0 0 0
    VU 2
    TRACKHEIGHT 0 0
    INQ 0 0 0 0.5 100 0 0 100
    NCHAN 2
    FX 1
    TRACKID {B0448BAA-9F98-5543-9DF7-CDB8296564E0}
    PERF 0
    MIDIOUT -1
    MAINSEND 0 0
    <ITEM
      POSITION 0
      SNAPOFFS 0
      LENGTH 36.5
      LOOP 1
      ALLTAKES 0
      FADEIN 1 0 0 1 0 0
      FADEOUT 1 0 0 1 0 0
      MUTE 0
      SEL 0
      YPOS 0.375 0.125
      IGUID {30FFA0A9-4533-9A42-9A47-859B2B719EF9}
      IID 4
      NAME "BASS                 - National_Anthems_-_China.mid"
      VOLPAN 1 0 1 -1
      SOFFS 0 0
      PLAYRATE 1 1 0 -1 0 0.0025
      CHANMODE 0
      TAKECOLOR 26173599 B
      GUID {D59A3F25-C793-404F-AD7C-A9BF94D2F217}
      <SOURCE MIDI
        HASDATA 1 192 QN
        POOLEDEVTS {8A5BA6C8-634E-D14F-BD1A-7B45F9348A39}
        <X 0 0 0 0 3 "BASS                "
          /wNCQVNTICAgICAgICAgICAgICAgIA==
        >
        e 0 90 2b 64
        e 274 80 2b 40
        e 14 90 2b 64
        e 82 80 2b 40
        e 14 90 2b 64
        e 178 80 2b 40
        e 14 90 2b 64
        e 178 80 2b 40
        e 14 90 2b 64
        e 178 80 2b 40
        e 14 90 26 64
        e 50 80 26 40
        e 14 90 26 64
        e 50 80 26 40
        e 14 90 26 64
        e 50 80 26 40
        e 14 90 2b 64
        e 370 80 2b 40
        e 14 90 2b 64
        e 178 80 2b 40
        e 14 90 26 64
        e 178 80 26 40
        e 14 90 2b 64
        e 178 80 2b 40
        e 206 90 2f 64
        e 274 80 2f 40
        e 14 90 2f 64
        e 82 80 2f 40
        e 14 90 2f 64
        e 178 80 2f 40
        e 14 90 32 64
        e 178 80 32 40
        e 14 90 37 64
        e 178 80 37 40
        e 14 90 37 64
        e 178 80 37 40
        e 398 90 2b 64
        e 178 80 2b 40
        e 14 90 2b 64
        e 178 80 2b 40
        e 14 90 2b 64
        e 370 80 2b 40
        e 206 90 26 64
        e 178 80 26 40
        e 14 90 24 64
        e 370 80 24 40
        e 14 90 30 64
        e 178 80 30 40
        e 14 90 2f 64
        e 178 80 2f 40
        e 14 90 32 64
        e 178 80 32 40
        e 14 90 37 64
        e 178 80 37 40
        e 14 90 2b 64
        e 370 80 2b 40
        e 14 90 2b 64
        e 370 80 2b 40
        e 14 90 2b 64
        e 178 80 2b 40
        e 206 90 37 64
        e 274 80 37 40
        e 14 90 36 64
        e 82 80 36 40
        e 14 90 34 64
        e 178 80 34 40
        e 14 90 36 64
        e 178 80 36 40
        e 14 90 37 64
        e 562 80 37 40
        e 14 90 36 64
        e 178 80 36 40
        e 14 90 2f 64
        e 274 80 2f 40
        e 14 90 2f 64
        e 82 80 2f 40
        e 14 90 2b 64
        e 274 80 2b 40
        e 14 90 2b 64
        e 82 80 2b 40
        e 14 90 32 64
        e 370 80 32 40
        e 14 90 37 64
        e 274 80 37 40
        e 14 90 37 64
        e 82 80 37 40
        e 14 90 37 64
        e 178 80 37 40
        e 14 90 37 64
        e 178 80 37 40
        e 14 90 37 64
        e 178 80 37 40
        e 14 90 32 64
        e 50 80 32 40
        e 14 90 32 64
        e 50 80 32 40
        e 14 90 32 64
        e 50 80 32 40
        e 14 90 2b 64
        e 370 80 2b 40
        e 14 90 2b 64
        e 562 80 2b 40
        e 14 90 32 64
        e 114 80 32 40
        e 14 90 32 64
        e 50 80 32 40
        e 14 90 37 64
        e 370 80 37 40
        e 14 90 2b 64
        e 370 80 2b 40
        e 14 90 2b 64
        e 370 80 2b 40
        e 14 90 2b 64
        e 370 80 2b 40
        e 14 90 2b 64
        e 178 80 2b 40
        E 14 b0 7b 00
        GUID {D0447611-4F1D-C646-A36E-1EE83C01B223}
        IGNTEMPO 0 120 4 4
        SRCCOLOR 656
        VELLANE -1 86 6
        CFGEDITVIEW 2180.430894 1.497595 33 20 0 0 0 0 0 0.5
        KEYSNAP 0
        TRACKSEL 226
        EVTFILTER 16 -1 -1 -1 -1 4 1 0 0 -1 -1 -1 -1 0 -1 0 -1 -1
        CFGEDIT 1 0 0 0 0 0 1 0 5 1 1 0.25 16 63 1280 778 0 0 2 3 0 0 0 0 0 0.5 0 0 1 64
      >
      TAKE
      NAME "BASS                 - National_Anthems_-_China.mid"
      TAKEVOLPAN 0 1 -1
      SOFFS 0 0
      PLAYRATE 1 1 0 -1 0 0.0025
      CHANMODE 0
      GUID {FE96E539-A064-2242-A66A-00691AF2F6B4}
      <SOURCE MIDI
        HASDATA 1 192 QN
        POOLEDEVTS {26A25B4E-6FF1-8E47-B4E2-89F1293B6373}
        <X 0 0 0 0 3 "BASS                "
          /wNCQVNTICAgICAgICAgICAgICAgIA==
        >
        e 0 90 2b 64
        e 274 80 2b 40
        e 14 90 2b 64
        e 82 80 2b 40
        e 14 90 2b 64
        e 178 80 2b 40
        e 14 90 2b 64
        e 178 80 2b 40
        e 14 90 2b 64
        e 178 80 2b 40
        e 14 90 26 64
        e 50 80 26 40
        e 14 90 26 64
        e 50 80 26 40
        e 14 90 26 64
        e 50 80 26 40
        e 14 90 2b 64
        e 370 80 2b 40
        e 14 90 2b 64
        e 178 80 2b 40
        e 14 90 26 64
        e 178 80 26 40
        e 14 90 2b 64
        e 178 80 2b 40
        e 206 90 2f 64
        e 274 80 2f 40
        e 14 90 2f 64
        e 82 80 2f 40
        e 14 90 2f 64
        e 178 80 2f 40
        e 14 90 32 64
        e 178 80 32 40
        e 14 90 37 64
        e 178 80 37 40
        e 14 90 37 64
        e 178 80 37 40
        e 398 90 2b 64
        e 178 80 2b 40
        e 14 90 2b 64
        e 178 80 2b 40
        e 14 90 2b 64
        e 370 80 2b 40
        e 206 90 26 64
        e 178 80 26 40
        e 14 90 24 64
        e 370 80 24 40
        e 14 90 30 64
        e 178 80 30 40
        e 14 90 2f 64
        e 178 80 2f 40
        e 14 90 32 64
        e 178 80 32 40
        e 14 90 37 64
        e 178 80 37 40
        e 14 90 2b 64
        e 370 80 2b 40
        e 14 90 2b 64
        e 370 80 2b 40
        e 14 90 2b 64
        e 178 80 2b 40
        e 206 90 37 64
        e 274 80 37 40
        e 14 90 36 64
        e 82 80 36 40
        e 14 90 34 64
        e 178 80 34 40
        e 14 90 36 64
        e 178 80 36 40
        e 14 90 37 64
        e 562 80 37 40
        e 14 90 36 64
        e 178 80 36 40
        e 14 90 2f 64
        e 274 80 2f 40
        e 14 90 2f 64
        e 82 80 2f 40
        e 14 90 2b 64
        e 274 80 2b 40
        e 14 90 2b 64
        e 82 80 2b 40
        e 14 90 32 64
        e 370 80 32 40
        e 14 90 37 64
        e 274 80 37 40
        e 14 90 37 64
        e 82 80 37 40
        e 14 90 37 64
        e 178 80 37 40
        e 14 90 37 64
        e 178 80 37 40
        e 14 90 37 64
        e 178 80 37 40
        e 14 90 32 64
        e 50 80 32 40
        e 14 90 32 64
        e 50 80 32 40
        e 14 90 32 64
        e 50 80 32 40
        e 14 90 2b 64
        e 370 80 2b 40
        e 14 90 2b 64
        e 562 80 2b 40
        e 14 90 32 64
        e 114 80 32 40
        e 14 90 32 64
        e 50 80 32 40
        e 14 90 37 64
        e 370 80 37 40
        e 14 90 2b 64
        e 370 80 2b 40
        e 14 90 2b 64
        e 370 80 2b 40
        e 14 90 2b 64
        e 370 80 2b 40
        e 14 90 2b 64
        e 178 80 2b 40
        E 14 b0 7b 00
        GUID {8345A1AF-DE69-5F49-B0E1-ECA80923C99D}
        IGNTEMPO 0 120 4 4
        SRCCOLOR 901
        VELLANE -1 86 6
        CFGEDITVIEW 0 0 33 20 0 0 0 0 0 0.5
        KEYSNAP 0
        TRACKSEL 226
        EVTFILTER 16 -1 -1 -1 -1 4 1 0 0 -1 -1 -1 -1 0 -1 0 -1 -1
        CFGEDIT 1 0 0 0 0 0 1 0 5 1 1 0.25 16 63 1280 778 0 0 2 3 0 0 0 0 0 0.5 0 0 1 64
      >
    >
  >
  <TRACK {5AFE27AD-822D-C34D-AFA1-36A455563115}
    NAME "Bass Return (global)"
    PEAKCOL 0
    BEAT -1
    AUTOMODE 0
    VOLPAN 0.8829554344746 0.024 -1 -1 1
    MUTESOLO 0 0 0
    IPHASE 0
    ISBUS 0 0
    BUSCOMP 0 0
    SHOWINMIX 1 0.6667 0.5 1 0 0 0 0
    FREEMODE 0
    SEL 0
    REC 0 0 0 0 0 0 0
    VU 2
    TRACKHEIGHT 0 0
    INQ 0 0 0 0.5 100 0 0 100
    NCHAN 2
    FX 1
    TRACKID {5AFE27AD-822D-C34D-AFA1-36A455563115}
    PERF 0
    AUXRECV 1 0 1 0 1 0 0 0 0 -1:U 0 -1 ''
    AUXRECV 2 0 1 0 0 0 0 0 0 -1:U 0 -1 ''
    AUXRECV 6 0 1 0 1 0 0 4 0 -1:U 0 -1 ''
    MIDIOUT -1
    MAINSEND 1 0
    <FXCHAIN
      SHOW 0
      LASTSEL 0
      DOCKED 0
      BYPASS 0 0 0
      <VST "VST: 8-Bit Shaper (Xfer Records)" 8BitShaper.vst 0 "" 1148539762
        clN1RO5e7f4CAAAAAQAAAAAAAAACAAAAAAAAAAIAAAABAAAAAAAAAAIAAAAAAAAANAIAAAEAAAAAABAA
        ZmaGP20MlT7dQQw/AAAAPzMABAUAAIA//38AAAAAABgXAAAAMAAAABkAAAAaAAAAGgAAABoAAAAbAAAAGwAAABwAAAAcAAAAHAAAAB0AAAAdAAAAHgAAAB4AAAAfAAAA
        HwAAACAAAAAgAAAAIAAAACEAAAAhAAAAIQAAACIAAAAiAAAAIgAAACMAAAAjAAAAIwAAACQAAAAkAAAAJAAAACUAAAAlAAAAKAAAACgAAAApAAAAKQAAACoAAAA1AAAA
        KgAAACoAAAA2AAAAKgAAACoAAAAqAAAAKgAAACoAAAAqAAAAKgAAACsAAAArAAAAOQAAAC0AAAA0AAAAOgAAAC0AAAAtAAAAPAAAAC4AAAAuAAAALwAAADAAAAAwAAAA
        MQAAADEAAAAxAAAAMgAAADMAAAAzAAAAMwAAADcAAAA3AAAANwAAADgAAAA4AAAAOAAAADkAAAA5AAAAOQAAADoAAAA6AAAAOgAAADoAAAA6AAAAOwAAADsAAAA7AAAA
        PAAAADsAAAA7AAAAOwAAADwAAAA8AAAAPAAAADwAAAA9AAAAPQAAAD0AAAA9AAAAPQAAAD4AAAA+AAAAPwAAAEkAAABAAAAAQAAAAEgAAABAAAAAQQAAAEIAAABCAAAA
        QgAAAEMAAABDAAAAQwAAAEQAAABEAAAARQAAAE0AAABGAAAARwAAAEYAAABHAAAASAAAAEgAAABJAAAATwAAAAAAgD+rqqo+q6qqPh0Fwz6OAm0/
        AEluaXQgMQAQAAAA
      >
      PRESETNAME "Init 1"
      FLOATPOS 32 39 278 389
      FXID {19A94086-1737-784E-A733-2897FDD09534}
      WAK 0
    >
  >
  <TRACK {3CF13A00-0AFC-8542-AD98-73B6D91102DB}
    NAME "vst Plogue"
    PEAKCOL 26779488
    BEAT -1
    AUTOMODE 0
    VOLPAN 1 0 -1 -1 1
    MUTESOLO 0 0 0
    IPHASE 0
    ISBUS 0 0
    BUSCOMP 0 0
    SHOWINMIX 1 0.6667 0.5 1 0 0 0 0
    FREEMODE 0
    SEL 0
    REC 0 0 0 1 0 0 0
    VU 2
    TRACKHEIGHT 0 0
    INQ 0 0 0 0.5 100 0 0 100
    NCHAN 8
    FX 1
    TRACKID {3CF13A00-0AFC-8542-AD98-73B6D91102DB}
    PERF 0
    AUXRECV 8 0 1 0 0 0 0 0 0 -1:U 32 -1 ''
    AUXRECV 8 0 1 0 0 0 0 0 0 -1:U 96 -1 ''
    AUXRECV 9 0 1 0 0 0 0 0 0 -1:U 64 -1 ''
    AUXRECV 9 0 1 0 0 0 0 0 0 -1:U 128 -1 ''
    AUXRECV 10 0 1 0 0 0 0 0 0 -1:U 160 -1 ''
    MIDIOUT -1
    MAINSEND 0 0
    <FXCHAIN
      SHOW 0
      LASTSEL 0
      DOCKED 0
      BYPASS 0 0 0
      <VST "VSTi: chipsounds (Multi) (Plogue Art et Technologie, Inc) (32 out)" "chipsounds Multi.vst" 0 "" 1347241807
        T0dNUO5e7f4AAAAAIAAAAAEAAAAAAAAAAgAAAAAAAAAEAAAAAAAAAAgAAAAAAAAAEAAAAAAAAAAgAAAAAAAAAEAAAAAAAAAAgAAAAAAAAAAAAQAAAAAAAAACAAAAAAAA
        AAQAAAAAAAAACAAAAAAAAAAQAAAAAAAAACAAAAAAAAAAQAAAAAAAAACAAAAAAAAAAAABAAAAAAAAAAIAAAAAAAAABAAAAAAAAAAIAAAAAAAAABAAAAAAAAAAIAAAAAAA
        AABAAAAAAAAAAIAAAAAAAAAAAAEAAAAAAAAAAgAAAAAAAAAEAAAAAAAAAAgAAAAAAAAAEAAAAAAAAAAgAAAAAAAAAEAAAAAAAAAAgAAAAABGBwAAAQAAAAAAEAA=
        Q0VHUGZJAAB4nO1c3W/bNhB/718h+Gl7qMTvDyDpkDj1FmBZCzjDHgvGZh1tsuxJctbur99JshIqMS15SZG01T2kNn135B3p0/3uWB/99GmZBDc2y+NVejzCIRoFP715
        dXSSxWZqbqzzkcZiFKyz1XwzK87PYAAhPXrzKgA6mtqiiNNFHvy9MUlcfIZPR0FeZNYsYfh4RMkoWJpP02rkJElWs4vT4xHHMHxxfnb+blNcrOa2kjKbYrU0Bcw5TVbF
        8Qi5Q4m9scnxKE5B92Zp02IUJPGNrYWBM5+BVqbLFyYxMISD14EtFxXms2Q7PAY5mx2PBAgsktWVSS43abVMGIgai2DyIJ5XY6lZlupxGLzfZDYYX8fraHp+FgmucPDD
        b5fT8Y+j4Mqkf53Pt25x3KYIGDm7Nmlarhy0rVcJ+IeNguJu1vXVh8ykC5jlNbhgXcCbvPpg6bxczQrYkVs7cTm2KbYD/3xITF6UemsDKiMuTJw2RtyYZFN7ONrFgW85
        kIeDdHLQTg7WycE7OUQnh+zkUJ0cupMDo26Wbq/ibrfibr/ibsdir2ffm8ws92/xHYt3ojsWx/2h4hwBYY0kZUpQn4zrzJDpSggxKRSVZdjxTOS4N8REV8QJxYIo5hVi
        rhCtZ+JUMIaVV0a4MqqWIVSBCPcLOYcsBGPq5SmlCIO1Yp+Ycuei1UwIY02QJtorow+X0ahlU706KTDENEa820Rdl0slGcKcCy2UUN6ZMHXOVcgR1VSCy7UWErF7frg0
        2cIW24g7Wy3D98lqsbFh+TwKf528Cze5zZAT4yqp8SaHJ8SZKUxwXXxegyiXvHwKxP/CayaYE5DBbJvOY1O/nIMMvGhoUv9D0EADDfRSqB0jojpIHBo18BA1Bhro+6H/
        GzUus3ixsNkUcKNNZzbrjhuMMtrEDcKdsEF2hQ1cL2+ypfq9rF7TsZzolhFjRCd7DDmKSqB6H7PiJ8WseAdmVQNmHTDri8CsuIWysABQURJDGlHhxSQuItGIc0BLkhOl
        qMZeZOYCRyKZAAijNOMCA0z9YliY9wK/nNWqBcAwwH9+IdcGWnuqG2Z7T+/jUOsXB5Mu2L3zqR/cQgrnizlDhjnQQAO16XkyTKEPzTCrh4OEIDJ5+zDDrIhIetoamEDe
        WfKqB6wwerZLAyJtDR2Za/+wOpT7BhroO6KD8S55UrzLGryL7/Aue0q8izrwrhcOHYB3fZh5wLv3Wb47vCsJY0jpsnvJiOBe0OSYFOJt/1JIgiVjXoDp4kvJ+rVxecsi
        ve1ESsEU4cqL1qTvqPuaynXbFjOKAO0z6QeYrhDt2RdlPVbTaiJXGFlrKpBme7rVuI+ZbveXbYsMFMMUBHsPhHR9Q+v2rwLwzZTi3sqEU3Pwrka6/kNb/2kMEJ0i6tfs
        HhzBq8MmMaxLyj3VDPfkwA5Vp01zKiSj/nPjbgMnzN3ePfUDt15U54udxZZnqm94faz95Q2XqccND41EH009zq5Gus/3uM/KMUat6la9tUohCSvxSxHk7hLx7ybxe+aL
        wBj1zCjmWZquX6vRj0P05W2gwxB99dCvET0i5PT0gSEPcf5ZhegR2onod9YE+Lit9xQ0lNNK7I5O6tFxe7TDmbvzePqkeTx57ruW3Xm8L0sf+lb3PPbt5fEv467lcLVy
        uFo5JCnfidFf/8UW9qQJAt2RIPAhQRgShBeRIHzTF1v85aPhWstLu9Yy5ATfsNHDVQRfriFvcw0SBrUbgj/gmf9xlS3z6BeTzYPp53TWN9ngt11F8aTliMdmGN2txO4M
        w5elDBnGA5YXm2HgbaeGc6IF9z823ecU0kz3KrK7MwkkCOQXiiItkRT+1pfbSOKqbtQozggl0v8cbeUlW5uIYpIx4jUJt8oJsokiWiGYy/9cdSsDfUskpEcKRHo0O6T3
        NB7YrWttp2CtUkXPHh/fll8AgSld/e/7znadX3O7SVqnQZgQReme1kwreRKsbvxAjgbnmHobvb2SJ7dntucy9lN2zVQfph5dM417+BsT1OMkAZc32Ps6ZCGtu7hKE4mx
        oP6vLEHeGD/kp0N++qiaFaEHJqj1xYy6aIVO5aRPZ62hpgMGABrohLf7Ys7oqeQP9R6mQezo+R2oAT9WA5eP1cDOHqehb1L/9uNHOyvc33Rp0uj6wJ0sr+LyeHUk89vJ
        jn7+/bzRY2ZFfGPP69+qwc37t7e/XZPbBGa280tzVR5ANwJmNrfFhU03QZw34kVlwf5vQFDYT8ByCX83mZ0Hv8RFDsjBFNfHo+hkvU7iWfVjOXlUawAMEq/z1Sadw0g1
        aR7t0R9tsc5JtraLRbzKo9ZMoYEwtL4XzB+YQg4yZWn+lMX1rQ2/Q3zLoxx2Jl0kJp3Dmj7MMmsKG03Ncp3YPHrbfBJM4vJ9PcH4ztBmjrwU4cV117pt3uyYu+6fTZbF
        hUnDuwNSr/jUJEm2Ai/hZtV3pyOC4/Hm1VHU/IbSm1f/AYDmJ9w=
        AAAQAAAA
      >
      FLOATPOS 32 36 870 508
      FXID {FE1D00C7-6D79-AC4B-8E18-CB2F8887B43D}
      WAK 0
    >
  >
  <TRACK {361291E9-E6AB-604E-AA43-746A4AF7FC9C}
    NAME "midi "
    PEAKCOL 16576
    BEAT -1
    AUTOMODE 0
    VOLPAN 1 0 -1 -1 1
    MUTESOLO 0 0 0
    IPHASE 0
    ISBUS 1 1
    BUSCOMP 1 0
    SHOWINMIX 1 0.6667 0.5 1 0 0 0 0
    FREEMODE 0
    SEL 0
    REC 0 0 0 0 0 0 0
    VU 2
    TRACKHEIGHT 0 0
    INQ 0 0 0 0.5 100 0 0 100
    NCHAN 2
    FX 1
    TRACKID {361291E9-E6AB-604E-AA43-746A4AF7FC9C}
    PERF 0
    MIDIOUT -1
    MAINSEND 1 0
  >
  <TRACK {2BB5EACD-C1BC-284E-92F6-33B7023B768F}
    NAME "ch1,3 (send)"
    PEAKCOL 16576
    BEAT -1
    AUTOMODE 0
    VOLPAN 1 0 -1 -1 1
    MUTESOLO 0 0 0
    IPHASE 0
    ISBUS 0 0
    BUSCOMP 0 0
    SHOWINMIX 1 0.6667 0.5 1 0 0 0 0
    FREEMODE 0
    SEL 0
    REC 0 0 0 0 0 0 0
    VU 2
    MIDICTL -1 1
    TRACKHEIGHT 0 0
    INQ 0 0 0 0.5 100 0 0 100
    NCHAN 2
    FX 1
    TRACKID {2BB5EACD-C1BC-284E-92F6-33B7023B768F}
    PERF 0
    MIDIOUT -1
    MAINSEND 1 0
    <FXCHAIN
      WNDRECT 32 36 724 387
      SHOW 0
      LASTSEL 0
      DOCKED 1
    >
    <ITEM
      POSITION 0
      SNAPOFFS 0
      LENGTH 36.5
      LOOP 1
      ALLTAKES 0
      FADEIN 1 0 0 1 0 0
      FADEOUT 1 0 0 1 0 0
      MUTE 0
      SEL 0
      YPOS 0.125 0.125
      IGUID {E32423E2-6920-EE40-9CFA-AAABBE3BD025}
      IID 2
      NAME "R.H.                 - National_Anthems_-_China.mid"
      VOLPAN 1 0 1 -1
      SOFFS 0 0
      PLAYRATE 1 1 0 -1 0 0.0025
      CHANMODE 0
      TAKECOLOR 26173599 B
      GUID {071BD9FF-A022-7044-BADC-95BA000B76CB}
      <SOURCE MIDI
        HASDATA 1 192 QN
        POOLEDEVTS {CA32F0F3-E05E-814D-9012-E485ACFD7C7D}
        <X 0 0 0 0 3 "R.H.                "
          /wNSLkguICAgICAgICAgICAgICAgIA==
        >
        E 0 91 43 64
        E 130 81 43 40
        E 14 91 47 64
        E 34 81 47 40
        E 14 91 43 64
        E 0 91 4a 64
        E 82 81 43 40
        E 0 81 4a 40
        E 14 91 4a 64
        E 0 91 43 64
        E 82 81 4a 40
        E 0 81 43 40
        E 14 91 43 64
        E 0 91 4c 64
        E 178 81 4c 40
        E 14 91 4a 64
        E 178 81 43 40
        E 0 81 4a 40
        E 14 91 47 64
        E 114 81 47 40
        E 14 91 43 64
        E 50 81 43 40
        E 14 91 4a 64
        E 0 91 42 64
        E 50 81 4a 40
        E 0 81 42 40
        E 14 91 42 64
        E 0 91 4a 64
        E 50 81 42 40
        E 0 81 4a 40
        E 14 91 4a 64
        E 0 91 42 64
        E 50 81 4a 40
        E 0 81 42 40
        E 14 91 47 64
        E 0 91 43 64
        E 178 81 43 40
        E 14 91 43 64
        E 178 81 47 40
        E 0 81 43 40
        E 14 91 3e 64
        E 50 81 3e 40
        E 14 91 3e 64
        E 50 81 3e 40
        E 14 91 3e 64
        E 50 81 3e 40
        E 14 91 3e 64
        E 50 81 3e 40
        E 14 91 3e 64
        E 50 81 3e 40
        E 14 91 3e 64
        E 50 81 3e 40
        E 14 91 43 64
        E 0 91 3e 64
        E 178 81 43 40
        E 0 81 3e 40
        E 110 91 3e 64
        E 82 81 3e 40
        E 14 91 43 64
        E 0 91 3e 64
        E 274 81 43 40
        E 0 81 3e 40
        E 14 91 43 64
        E 82 81 43 40
        E 14 91 3e 64
        E 0 91 43 64
        E 130 81 43 40
        E 14 91 43 64
        E 34 81 3e 40
        E 0 81 43 40
        E 14 91 3e 64
        E 96 91 40 64
        E 3 81 3e 40
        E 31 81 40 40
        E 14 91 42 64
        E 34 81 42 40
        E 14 91 3e 64
        E 0 91 43 64
        E 178 81 3e 40
        E 0 81 43 40
        E 14 91 3e 64
        E 0 91 43 64
        E 178 81 3e 40
        E 0 81 43 40
        E 110 91 47 64
        E 82 81 47 40
        E 14 91 43 64
        E 82 81 43 40
        E 14 91 45 64
        E 34 81 45 40
        E 14 91 47 64
        E 34 81 47 40
        E 14 91 43 64
        E 0 91 4a 64
        E 178 81 43 40
        E 0 81 4a 40
        E 14 91 43 64
        E 0 91 4a 64
        E 178 81 43 40
        E 0 81 4a 40
        E 14 91 47 64
        E 130 81 47 40
        E 14 91 47 64
        E 34 81 47 40
        E 14 91 43 64
        E 130 81 43 40
        E 14 91 47 64
        E 34 81 47 40
        E 14 91 47 64
        E 0 91 4a 64
        E 130 81 47 40
        E 0 81 4a 40
        E 14 91 43 64
        E 0 91 47 40
        E 34 81 43 40
        E 0 81 47 40
        E 14 91 45 64
        E 0 91 3e 64
        E 178 81 45 40
        E 0 81 3e 40
        E 14 91 45 64
        E 0 91 40 64
        E 370 81 45 40
        E 0 81 40 40
        E 14 91 4c 64
        E 0 91 42 64
        E 0 91 45 64
        E 178 81 4c 40
        E 0 81 42 40
        E 0 81 45 40
        E 14 91 3e 64
        E 0 91 4a 64
        E 0 91 43 64
        E 178 81 3e 40
        E 0 81 4a 40
        E 0 81 43 40
        E 14 91 42 64
        E 0 91 45 64
        E 0 91 3e 64
        E 178 81 42 40
        E 0 81 45 40
        E 0 81 3e 40
        E 14 91 47 64
        E 0 91 3e 64
        E 0 91 43 64
        E 178 81 47 40
        E 0 81 3e 40
        E 0 81 43 40
        E 14 91 4a 64
        E 82 81 4a 40
        E 14 91 47 64
        E 82 81 47 40
        E 110 91 4a 64
        E 82 81 4a 40
        E 14 91 47 64
        E 82 81 47 40
        E 14 91 45 64
        E 34 81 45 40
        E 14 91 47 64
        E 34 81 47 40
        E 14 91 43 64
        E 178 81 43 40
        E 14 91 47 64
        E 370 81 47 40
        E 14 91 3e 64
        E 130 81 3e 40
        E 14 91 40 64
        E 34 81 40 40
        E 14 91 43 64
        E 82 81 43 40
        E 14 91 43 64
        E 82 81 43 40
        E 14 91 47 64
        E 130 81 47 40
        E 14 91 47 64
        E 34 81 47 40
        E 14 91 4a 64
        E 82 81 4a 40
        E 14 91 4a 64
        E 82 81 4a 40
        E 14 91 45 64
        E 82 81 45 40
        E 14 91 45 64
        E 34 81 45 40
        E 14 91 45 64
        E 34 81 45 40
        E 14 91 40 64
        E 178 81 40 40
        E 14 91 45 64
        E 274 81 45 40
        E 14 91 3e 64
        E 82 81 3e 40
        E 14 91 3e 64
        E 0 91 43 64
        E 274 81 3e 40
        E 0 81 43 40
        E 14 91 43 64
        E 0 91 3e 64
        E 82 81 43 40
        E 0 81 3e 40
        E 14 91 47 64
        E 0 91 3e 64
        E 0 91 3b 64
        E 274 81 47 40
        E 0 81 3e 40
        E 0 81 3b 40
        E 14 91 3b 64
        E 0 91 3e 64
        E 0 91 47 64
        E 82 81 3b 40
        E 0 81 3e 40
        E 0 81 47 40
        E 14 91 42 64
        E 0 91 3e 64
        E 0 91 4a 64
        E 370 81 42 40
        E 0 81 3e 40
        E 0 81 4a 40
        E 14 91 43 64
        E 130 81 43 40
        E 14 91 47 64
        E 34 81 47 40
        E 14 91 4a 64
        E 82 81 4a 40
        E 14 91 4a 64
        E 82 81 4a 40
        E 14 91 4c 64
        E 0 91 43 64
        E 178 81 4c 40
        E 14 91 4a 64
        E 178 81 43 40
        E 0 81 4a 40
        E 14 91 47 64
        E 114 81 47 40
        E 14 91 43 64
        E 50 81 43 40
        E 14 91 4a 64
        E 0 91 42 64
        E 50 81 4a 40
        E 0 81 42 40
        E 14 91 42 64
        E 0 91 4a 64
        E 50 81 42 40
        E 0 81 4a 40
        E 14 91 4a 64
        E 0 91 42 64
        E 50 81 4a 40
        E 0 81 42 40
        E 14 91 43 64
        E 0 91 47 64
        E 178 81 43 40
        E 0 81 47 40
        E 14 91 43 64
        E 178 81 43 40
        E 14 91 3e 64
        E 178 81 3e 40
        E 14 91 43 64
        E 178 81 43 40
        E 14 91 47 64
        E 114 81 47 40
        E 14 91 43 64
        E 50 81 43 40
        E 14 91 4a 64
        E 0 91 42 64
        E 50 81 4a 40
        E 0 81 42 40
        E 14 91 42 64
        E 0 91 4a 64
        E 50 81 42 40
        E 0 81 4a 40
        E 14 91 4a 64
        E 0 91 42 64
        E 50 81 4a 40
        E 0 81 42 40
        E 14 91 47 64
        E 0 91 43 64
        E 178 81 47 40
        E 0 81 43 40
        E 14 91 43 64
        E 178 81 43 40
        E 14 91 3b 64
        E 0 91 3e 64
        E 178 81 3b 40
        E 0 81 3e 40
        E 14 91 43 64
        E 178 81 43 40
        E 14 91 3b 64
        E 0 91 3e 64
        E 178 81 3b 40
        E 0 81 3e 40
        E 14 91 43 64
        E 178 81 43 40
        E 14 91 3b 64
        E 0 91 3e 64
        E 192 91 43 64
        E 178 81 3b 40
        E 0 81 3e 40
        E 0 81 43 40
        E 14 91 3b 64
        E 0 91 43 64
        E 178 81 3b 40
        E 0 81 43 40
        E 14 b0 7b 00
        GUID {6EF03167-184B-C94B-88F2-113B1DB21C2E}
        IGNTEMPO 0 120 4 4
        SRCCOLOR 654
        VELLANE -1 86 6
        CFGEDITVIEW 0 15.123288 51 12 0 0 0 0 0 0.5
        KEYSNAP 0
        TRACKSEL 226
        EVTFILTER 0 -1 -1 -1 -1 0 0 0 0 -1 -1 -1 -1 0 -1 0 -1 -1
        CFGEDIT 1 1 0 0 0 0 1 0 1 1 1 0.25 20 47 1280 778 1 0 2 3 0 0 0 0 0 -1 0 0 1 64
      >
      TAKE
      NAME "R.H.                 - National_Anthems_-_China.mid"
      TAKEVOLPAN 0 1 -1
      SOFFS 0 0
      PLAYRATE 1 1 0 -1 0 0.0025
      CHANMODE 0
      GUID {53DA8C29-5366-274F-812E-BBCDC1F5E851}
      <SOURCE MIDI
        HASDATA 1 192 QN
        POOLEDEVTS {CC7A8217-BA0E-EF4C-8D6B-741662F1B2A4}
        <X 0 0 0 0 3 "R.H.                "
          /wNSLkguICAgICAgICAgICAgICAgIA==
        >
        E 0 91 43 64
        E 130 81 43 40
        E 14 91 47 64
        E 34 81 47 40
        E 14 91 43 64
        E 0 91 4a 64
        E 82 81 43 40
        E 0 81 4a 40
        E 14 91 4a 64
        E 0 91 43 64
        E 82 81 4a 40
        E 0 81 43 40
        E 14 91 43 64
        E 0 91 4c 64
        E 178 81 4c 40
        E 14 91 4a 64
        E 178 81 43 40
        E 0 81 4a 40
        E 14 91 47 64
        E 114 81 47 40
        E 14 91 43 64
        E 50 81 43 40
        E 14 91 4a 64
        E 0 91 42 64
        E 50 81 4a 40
        E 0 81 42 40
        E 14 91 42 64
        E 0 91 4a 64
        E 50 81 42 40
        E 0 81 4a 40
        E 14 91 4a 64
        E 0 91 42 64
        E 50 81 4a 40
        E 0 81 42 40
        E 14 91 47 64
        E 0 91 43 64
        E 178 81 43 40
        E 14 91 43 64
        E 178 81 47 40
        E 0 81 43 40
        E 14 91 3e 64
        E 50 81 3e 40
        E 14 91 3e 64
        E 50 81 3e 40
        E 14 91 3e 64
        E 50 81 3e 40
        E 14 91 3e 64
        E 50 81 3e 40
        E 14 91 3e 64
        E 50 81 3e 40
        E 14 91 3e 64
        E 50 81 3e 40
        E 14 91 43 64
        E 0 91 3e 64
        E 178 81 43 40
        E 0 81 3e 40
        E 110 91 3e 64
        E 82 81 3e 40
        E 14 91 43 64
        E 0 91 3e 64
        E 274 81 43 40
        E 0 81 3e 40
        E 14 91 43 64
        E 82 81 43 40
        E 14 91 3e 64
        E 0 91 43 64
        E 130 81 43 40
        E 14 91 43 64
        E 34 81 3e 40
        E 0 81 43 40
        E 14 91 3e 64
        E 96 91 40 64
        E 3 81 3e 40
        E 31 81 40 40
        E 14 91 42 64
        E 34 81 42 40
        E 14 91 3e 64
        E 0 91 43 64
        E 178 81 3e 40
        E 0 81 43 40
        E 14 91 3e 64
        E 0 91 43 64
        E 178 81 3e 40
        E 0 81 43 40
        E 110 91 47 64
        E 82 81 47 40
        E 14 91 43 64
        E 82 81 43 40
        E 14 91 45 64
        E 34 81 45 40
        E 14 91 47 64
        E 34 81 47 40
        E 14 91 43 64
        E 0 91 4a 64
        E 178 81 43 40
        E 0 81 4a 40
        E 14 91 43 64
        E 0 91 4a 64
        E 178 81 43 40
        E 0 81 4a 40
        E 14 91 47 64
        E 130 81 47 40
        E 14 91 47 64
        E 34 81 47 40
        E 14 91 43 64
        E 130 81 43 40
        E 14 91 47 64
        E 34 81 47 40
        E 14 91 47 64
        E 0 91 4a 64
        E 130 81 47 40
        E 0 81 4a 40
        E 14 91 43 64
        E 0 91 47 40
        E 34 81 43 40
        E 0 81 47 40
        E 14 91 45 64
        E 0 91 3e 64
        E 178 81 45 40
        E 0 81 3e 40
        E 14 91 45 64
        E 0 91 40 64
        E 370 81 45 40
        E 0 81 40 40
        E 14 91 4c 64
        E 0 91 42 64
        E 0 91 45 64
        E 178 81 4c 40
        E 0 81 42 40
        E 0 81 45 40
        E 14 91 3e 64
        E 0 91 4a 64
        E 0 91 43 64
        E 178 81 3e 40
        E 0 81 4a 40
        E 0 81 43 40
        E 14 91 42 64
        E 0 91 45 64
        E 0 91 3e 64
        E 178 81 42 40
        E 0 81 45 40
        E 0 81 3e 40
        E 14 91 47 64
        E 0 91 3e 64
        E 0 91 43 64
        E 178 81 47 40
        E 0 81 3e 40
        E 0 81 43 40
        E 14 91 4a 64
        E 82 81 4a 40
        E 14 91 47 64
        E 82 81 47 40
        E 110 91 4a 64
        E 82 81 4a 40
        E 14 91 47 64
        E 82 81 47 40
        E 14 91 45 64
        E 34 81 45 40
        E 14 91 47 64
        E 34 81 47 40
        E 14 91 43 64
        E 178 81 43 40
        E 14 91 47 64
        E 370 81 47 40
        E 14 91 3e 64
        E 130 81 3e 40
        E 14 91 40 64
        E 34 81 40 40
        E 14 91 43 64
        E 82 81 43 40
        E 14 91 43 64
        E 82 81 43 40
        E 14 91 47 64
        E 130 81 47 40
        E 14 91 47 64
        E 34 81 47 40
        E 14 91 4a 64
        E 82 81 4a 40
        E 14 91 4a 64
        E 82 81 4a 40
        E 14 91 45 64
        E 82 81 45 40
        E 14 91 45 64
        E 34 81 45 40
        E 14 91 45 64
        E 34 81 45 40
        E 14 91 40 64
        E 178 81 40 40
        E 14 91 45 64
        E 274 81 45 40
        E 14 91 3e 64
        E 82 81 3e 40
        E 14 91 3e 64
        E 0 91 43 64
        E 274 81 3e 40
        E 0 81 43 40
        E 14 91 43 64
        E 0 91 3e 64
        E 82 81 43 40
        E 0 81 3e 40
        E 14 91 47 64
        E 0 91 3e 64
        E 0 91 3b 64
        E 274 81 47 40
        E 0 81 3e 40
        E 0 81 3b 40
        E 14 91 3b 64
        E 0 91 3e 64
        E 0 91 47 64
        E 82 81 3b 40
        E 0 81 3e 40
        E 0 81 47 40
        E 14 91 42 64
        E 0 91 3e 64
        E 0 91 4a 64
        E 370 81 42 40
        E 0 81 3e 40
        E 0 81 4a 40
        E 14 91 43 64
        E 130 81 43 40
        E 14 91 47 64
        E 34 81 47 40
        E 14 91 4a 64
        E 82 81 4a 40
        E 14 91 4a 64
        E 82 81 4a 40
        E 14 91 4c 64
        E 0 91 43 64
        E 178 81 4c 40
        E 14 91 4a 64
        E 178 81 43 40
        E 0 81 4a 40
        E 14 91 47 64
        E 114 81 47 40
        E 14 91 43 64
        E 50 81 43 40
        E 14 91 4a 64
        E 0 91 42 64
        E 50 81 4a 40
        E 0 81 42 40
        E 14 91 42 64
        E 0 91 4a 64
        E 50 81 42 40
        E 0 81 4a 40
        E 14 91 4a 64
        E 0 91 42 64
        E 50 81 4a 40
        E 0 81 42 40
        E 14 91 43 64
        E 0 91 47 64
        E 178 81 43 40
        E 0 81 47 40
        E 14 91 43 64
        E 178 81 43 40
        E 14 91 3e 64
        E 178 81 3e 40
        E 14 91 43 64
        E 178 81 43 40
        E 14 91 47 64
        E 114 81 47 40
        E 14 91 43 64
        E 50 81 43 40
        E 14 91 4a 64
        E 0 91 42 64
        E 50 81 4a 40
        E 0 81 42 40
        E 14 91 42 64
        E 0 91 4a 64
        E 50 81 42 40
        E 0 81 4a 40
        E 14 91 4a 64
        E 0 91 42 64
        E 50 81 4a 40
        E 0 81 42 40
        E 14 91 47 64
        E 0 91 43 64
        E 178 81 47 40
        E 0 81 43 40
        E 14 91 43 64
        E 178 81 43 40
        E 14 91 3b 64
        E 0 91 3e 64
        E 178 81 3b 40
        E 0 81 3e 40
        E 14 91 43 64
        E 178 81 43 40
        E 14 91 3b 64
        E 0 91 3e 64
        E 178 81 3b 40
        E 0 81 3e 40
        E 14 91 43 64
        E 178 81 43 40
        E 14 91 3b 64
        E 0 91 3e 64
        E 192 91 43 64
        E 178 81 3b 40
        E 0 81 3e 40
        E 0 81 43 40
        E 14 91 3b 64
        E 0 91 43 64
        E 178 81 3b 40
        E 0 81 43 40
        E 14 b0 7b 00
        GUID {A4C62C1D-1240-9F41-B8D7-1B169DFD3511}
        IGNTEMPO 0 120 4 4
        SRCCOLOR 903
        VELLANE -1 86 6
        CFGEDITVIEW 0 0 51 12 0 0 0 0 0 0.5
        KEYSNAP 0
        TRACKSEL 226
        EVTFILTER 0 -1 -1 -1 -1 0 0 0 0 -1 -1 -1 -1 0 -1 0 -1 -1
        CFGEDIT 1 1 0 0 0 0 1 0 1 1 1 0.25 20 47 1280 778 1 0 2 3 0 0 0 0 0 -1 0 0 1 64
      >
    >
  >
  <TRACK {3C494A2B-9670-9740-AD22-E42CC5065FE1}
    NAME "ch2,4 (send)"
    PEAKCOL 16576
    BEAT -1
    AUTOMODE 0
    VOLPAN 1 0 -1 -1 1
    MUTESOLO 0 0 0
    IPHASE 0
    ISBUS 0 0
    BUSCOMP 0 0
    SHOWINMIX 1 0.6667 0.5 1 0 0 0 0
    FREEMODE 0
    SEL 0
    REC 0 0 0 0 0 0 0
    VU 2
    MIDICTL -1 1
    TRACKHEIGHT 0 0
    INQ 0 0 0 0.5 100 0 0 100
    NCHAN 2
    FX 1
    TRACKID {3C494A2B-9670-9740-AD22-E42CC5065FE1}
    PERF 0
    MIDIOUT -1
    MAINSEND 1 0
    <FXCHAIN
      WNDRECT 32 359 724 387
      SHOW 0
      LASTSEL 0
      DOCKED 0
    >
    <ITEM
      POSITION 0
      SNAPOFFS 0
      LENGTH 36.5
      LOOP 1
      ALLTAKES 0
      FADEIN 1 0 0 1 0 0
      FADEOUT 1 0 0 1 0 0
      MUTE 0
      SEL 0
      YPOS 0.25 0.125
      IGUID {EBB645DF-CD57-5B48-9534-BFF4FE888676}
      IID 3
      NAME "L.H.                 - National_Anthems_-_China.mid"
      VOLPAN 1 0 1 -1
      SOFFS 0 0
      PLAYRATE 1 1 0 -1 0 0.0025
      CHANMODE 0
      TAKECOLOR 26173599 B
      GUID {31A4A793-D416-FD44-A498-20672BBC9774}
      <SOURCE MIDI
        HASDATA 1 192 QN
        POOLEDEVTS {0310BBF3-6696-C447-9EC4-C2B485F28AB7}
        <X 0 0 0 0 3 "L.H.                "
          /wNMLkguICAgICAgICAgICAgICAgIA==
        >
        E 0 92 37 64
        E 0 92 3b 64
        E 0 92 3e 64
        E 274 82 37 40
        E 0 82 3b 40
        E 0 82 3e 40
        E 14 92 3e 64
        E 0 92 3b 64
        E 0 92 37 64
        E 82 82 3e 40
        E 0 82 3b 40
        E 0 82 37 40
        E 14 92 37 64
        E 0 92 40 64
        E 0 92 3c 64
        E 178 82 37 40
        E 0 82 40 40
        E 0 82 3c 40
        E 14 92 3e 64
        E 0 92 3b 64
        E 0 92 37 64
        E 178 82 3e 40
        E 0 82 3b 40
        E 0 82 37 40
        E 14 92 3e 64
        E 0 92 3b 64
        E 0 92 37 64
        E 178 82 3e 40
        E 0 82 3b 40
        E 0 82 37 40
        E 14 92 32 64
        E 0 92 39 64
        E 50 82 32 40
        E 0 82 39 40
        E 14 92 32 64
        E 0 92 39 64
        E 50 82 32 40
        E 0 82 39 40
        E 14 92 39 64
        E 0 92 32 64
        E 50 82 39 40
        E 0 82 32 40
        E 14 92 37 64
        E 0 92 3b 64
        E 370 82 37 40
        E 0 82 3b 40
        E 14 92 37 64
        E 0 92 3b 64
        E 178 82 37 40
        E 0 82 3b 40
        E 14 92 32 64
        E 0 92 39 64
        E 178 82 32 40
        E 0 82 39 40
        E 14 92 37 64
        E 0 92 3b 64
        E 370 82 37 40
        E 0 82 3b 40
        E 14 92 37 64
        E 0 92 2f 64
        E 274 82 37 40
        E 0 82 2f 40
        E 14 92 2f 64
        E 0 92 37 64
        E 82 82 2f 40
        E 0 82 37 40
        E 14 92 2f 64
        E 0 92 37 64
        E 178 82 2f 40
        E 0 82 37 40
        E 14 92 32 64
        E 0 92 39 64
        E 178 82 32 40
        E 0 82 39 40
        E 14 92 37 64
        E 0 92 3b 64
        E 178 82 37 40
        E 0 82 3b 40
        E 14 92 3b 64
        E 0 92 37 64
        E 178 82 3b 40
        E 0 82 37 40
        E 398 92 37 64
        E 0 92 3e 64
        E 0 92 3b 64
        E 178 82 37 40
        E 0 82 3e 40
        E 0 82 3b 40
        E 14 92 3b 64
        E 0 92 3e 64
        E 0 92 37 64
        E 178 82 3b 40
        E 0 82 3e 40
        E 0 82 37 40
        E 14 92 3b 64
        E 0 92 37 64
        E 0 92 3e 64
        E 514 82 3b 40
        E 0 82 37 40
        E 0 82 3e 40
        E 14 92 37 64
        E 0 92 3b 64
        E 34 82 37 40
        E 0 82 3b 40
        E 14 92 32 64
        E 0 92 39 64
        E 178 82 32 40
        E 0 82 39 40
        E 14 92 30 64
        E 0 92 34 64
        E 0 92 39 64
        E 370 82 30 40
        E 0 82 34 40
        E 0 82 39 40
        E 14 92 36 64
        E 0 92 30 64
        E 0 92 39 64
        E 178 82 36 40
        E 0 82 30 40
        E 0 82 39 40
        E 14 92 2f 64
        E 0 92 37 64
        E 178 82 2f 40
        E 0 82 37 40
        E 14 92 32 64
        E 0 92 39 64
        E 178 82 32 40
        E 0 82 39 40
        E 14 92 3b 64
        E 0 92 37 64
        E 178 82 3b 40
        E 0 82 37 40
        E 14 92 2b 64
        E 0 92 32 64
        E 946 82 2b 40
        E 0 82 32 40
        E 206 92 37 64
        E 274 82 37 40
        E 14 92 36 64
        E 82 82 36 40
        E 14 92 34 64
        E 178 82 34 40
        E 14 92 36 64
        E 178 82 36 40
        E 14 92 37 64
        E 562 82 37 40
        E 14 92 36 64
        E 178 82 36 40
        E 14 92 2f 64
        E 0 92 37 64
        E 274 82 2f 40
        E 0 82 37 40
        E 14 92 2f 64
        E 0 92 37 64
        E 82 82 2f 40
        E 0 82 37 40
        E 14 92 2b 64
        E 0 92 37 64
        E 0 92 32 64
        E 274 82 2b 40
        E 0 82 37 40
        E 0 82 32 40
        E 14 92 2b 64
        E 0 92 32 64
        E 0 92 37 64
        E 82 82 2b 40
        E 0 82 32 40
        E 0 82 37 40
        E 14 92 39 64
        E 0 92 32 64
        E 370 82 39 40
        E 0 82 32 40
        E 14 92 3b 64
        E 0 92 3e 64
        E 0 92 37 64
        E 274 82 3b 40
        E 0 82 3e 40
        E 0 82 37 40
        E 14 92 37 64
        E 0 92 3e 64
        E 0 92 3b 64
        E 82 82 37 40
        E 0 82 3e 40
        E 0 82 3b 40
        E 14 92 40 64
        E 0 92 3c 64
        E 0 92 37 64
        E 178 82 40 40
        E 0 82 3c 40
        E 0 82 37 40
        E 14 92 37 64
        E 0 92 3e 64
        E 0 92 3b 64
        E 178 82 37 40
        E 0 82 3e 40
        E 0 82 3b 40
        E 14 92 3b 64
        E 0 92 3e 64
        E 0 92 37 64
        E 178 82 3b 40
        E 0 82 3e 40
        E 0 82 37 40
        E 14 92 32 64
        E 0 92 39 64
        E 50 82 32 40
        E 0 82 39 40
        E 14 92 32 64
        E 0 92 39 64
        E 50 82 32 40
        E 0 82 39 40
        E 14 92 32 64
        E 0 92 39 64
        E 50 82 32 40
        E 0 82 39 40
        E 14 92 3b 64
        E 0 92 37 64
        E 370 82 3b 40
        E 0 82 37 40
        E 14 92 3b 64
        E 0 92 37 64
        E 562 82 3b 40
        E 0 82 37 40
        E 14 92 32 64
        E 0 92 39 64
        E 50 82 32 40
        E 0 82 39 40
        E 14 92 39 64
        E 0 92 32 64
        E 50 82 39 40
        E 0 82 32 40
        E 14 92 32 64
        E 0 92 39 64
        E 50 82 32 40
        E 0 82 39 40
        E 14 92 37 64
        E 0 92 3b 64
        E 370 82 37 40
        E 0 82 3b 40
        E 14 92 37 64
        E 0 92 2b 64
        E 0 92 32 64
        E 370 82 37 40
        E 0 82 2b 40
        E 0 82 32 40
        E 14 92 32 64
        E 0 92 37 64
        E 0 92 2b 64
        E 370 82 32 40
        E 0 82 37 40
        E 0 82 2b 40
        E 14 92 37 64
        E 0 92 32 64
        E 0 92 2b 64
        E 370 82 37 40
        E 0 82 32 40
        E 0 82 2b 40
        E 14 92 37 64
        E 0 92 32 64
        E 0 92 2b 64
        E 178 82 37 40
        E 0 82 32 40
        E 0 82 2b 40
        E 14 b0 7b 00
        GUID {A504E849-C384-5045-A5A2-5CF34FD26673}
        IGNTEMPO 0 120 4 4
        SRCCOLOR 655
        VELLANE -1 86 6
      >
      TAKE
      NAME "L.H.                 - National_Anthems_-_China.mid"
      TAKEVOLPAN 0 1 -1
      SOFFS 0 0
      PLAYRATE 1 1 0 -1 0 0.0025
      CHANMODE 0
      GUID {A3DE7461-61F4-7240-8206-23F81FBFC112}
      <SOURCE MIDI
        HASDATA 1 192 QN
        POOLEDEVTS {50457065-3DB8-9441-B750-8BC8463A8FB8}
        <X 0 0 0 0 3 "L.H.                "
          /wNMLkguICAgICAgICAgICAgICAgIA==
        >
        E 0 92 37 64
        E 0 92 3b 64
        E 0 92 3e 64
        E 274 82 37 40
        E 0 82 3b 40
        E 0 82 3e 40
        E 14 92 3e 64
        E 0 92 3b 64
        E 0 92 37 64
        E 82 82 3e 40
        E 0 82 3b 40
        E 0 82 37 40
        E 14 92 37 64
        E 0 92 40 64
        E 0 92 3c 64
        E 178 82 37 40
        E 0 82 40 40
        E 0 82 3c 40
        E 14 92 3e 64
        E 0 92 3b 64
        E 0 92 37 64
        E 178 82 3e 40
        E 0 82 3b 40
        E 0 82 37 40
        E 14 92 3e 64
        E 0 92 3b 64
        E 0 92 37 64
        E 178 82 3e 40
        E 0 82 3b 40
        E 0 82 37 40
        E 14 92 32 64
        E 0 92 39 64
        E 50 82 32 40
        E 0 82 39 40
        E 14 92 32 64
        E 0 92 39 64
        E 50 82 32 40
        E 0 82 39 40
        E 14 92 39 64
        E 0 92 32 64
        E 50 82 39 40
        E 0 82 32 40
        E 14 92 37 64
        E 0 92 3b 64
        E 370 82 37 40
        E 0 82 3b 40
        E 14 92 37 64
        E 0 92 3b 64
        E 178 82 37 40
        E 0 82 3b 40
        E 14 92 32 64
        E 0 92 39 64
        E 178 82 32 40
        E 0 82 39 40
        E 14 92 37 64
        E 0 92 3b 64
        E 370 82 37 40
        E 0 82 3b 40
        E 14 92 37 64
        E 0 92 2f 64
        E 274 82 37 40
        E 0 82 2f 40
        E 14 92 2f 64
        E 0 92 37 64
        E 82 82 2f 40
        E 0 82 37 40
        E 14 92 2f 64
        E 0 92 37 64
        E 178 82 2f 40
        E 0 82 37 40
        E 14 92 32 64
        E 0 92 39 64
        E 178 82 32 40
        E 0 82 39 40
        E 14 92 37 64
        E 0 92 3b 64
        E 178 82 37 40
        E 0 82 3b 40
        E 14 92 3b 64
        E 0 92 37 64
        E 178 82 3b 40
        E 0 82 37 40
        E 398 92 37 64
        E 0 92 3e 64
        E 0 92 3b 64
        E 178 82 37 40
        E 0 82 3e 40
        E 0 82 3b 40
        E 14 92 3b 64
        E 0 92 3e 64
        E 0 92 37 64
        E 178 82 3b 40
        E 0 82 3e 40
        E 0 82 37 40
        E 14 92 3b 64
        E 0 92 37 64
        E 0 92 3e 64
        E 514 82 3b 40
        E 0 82 37 40
        E 0 82 3e 40
        E 14 92 37 64
        E 0 92 3b 64
        E 34 82 37 40
        E 0 82 3b 40
        E 14 92 32 64
        E 0 92 39 64
        E 178 82 32 40
        E 0 82 39 40
        E 14 92 30 64
        E 0 92 34 64
        E 0 92 39 64
        E 370 82 30 40
        E 0 82 34 40
        E 0 82 39 40
        E 14 92 36 64
        E 0 92 30 64
        E 0 92 39 64
        E 178 82 36 40
        E 0 82 30 40
        E 0 82 39 40
        E 14 92 2f 64
        E 0 92 37 64
        E 178 82 2f 40
        E 0 82 37 40
        E 14 92 32 64
        E 0 92 39 64
        E 178 82 32 40
        E 0 82 39 40
        E 14 92 3b 64
        E 0 92 37 64
        E 178 82 3b 40
        E 0 82 37 40
        E 14 92 2b 64
        E 0 92 32 64
        E 946 82 2b 40
        E 0 82 32 40
        E 206 92 37 64
        E 274 82 37 40
        E 14 92 36 64
        E 82 82 36 40
        E 14 92 34 64
        E 178 82 34 40
        E 14 92 36 64
        E 178 82 36 40
        E 14 92 37 64
        E 562 82 37 40
        E 14 92 36 64
        E 178 82 36 40
        E 14 92 2f 64
        E 0 92 37 64
        E 274 82 2f 40
        E 0 82 37 40
        E 14 92 2f 64
        E 0 92 37 64
        E 82 82 2f 40
        E 0 82 37 40
        E 14 92 2b 64
        E 0 92 37 64
        E 0 92 32 64
        E 274 82 2b 40
        E 0 82 37 40
        E 0 82 32 40
        E 14 92 2b 64
        E 0 92 32 64
        E 0 92 37 64
        E 82 82 2b 40
        E 0 82 32 40
        E 0 82 37 40
        E 14 92 39 64
        E 0 92 32 64
        E 370 82 39 40
        E 0 82 32 40
        E 14 92 3b 64
        E 0 92 3e 64
        E 0 92 37 64
        E 274 82 3b 40
        E 0 82 3e 40
        E 0 82 37 40
        E 14 92 37 64
        E 0 92 3e 64
        E 0 92 3b 64
        E 82 82 37 40
        E 0 82 3e 40
        E 0 82 3b 40
        E 14 92 40 64
        E 0 92 3c 64
        E 0 92 37 64
        E 178 82 40 40
        E 0 82 3c 40
        E 0 82 37 40
        E 14 92 37 64
        E 0 92 3e 64
        E 0 92 3b 64
        E 178 82 37 40
        E 0 82 3e 40
        E 0 82 3b 40
        E 14 92 3b 64
        E 0 92 3e 64
        E 0 92 37 64
        E 178 82 3b 40
        E 0 82 3e 40
        E 0 82 37 40
        E 14 92 32 64
        E 0 92 39 64
        E 50 82 32 40
        E 0 82 39 40
        E 14 92 32 64
        E 0 92 39 64
        E 50 82 32 40
        E 0 82 39 40
        E 14 92 32 64
        E 0 92 39 64
        E 50 82 32 40
        E 0 82 39 40
        E 14 92 3b 64
        E 0 92 37 64
        E 370 82 3b 40
        E 0 82 37 40
        E 14 92 3b 64
        E 0 92 37 64
        E 562 82 3b 40
        E 0 82 37 40
        E 14 92 32 64
        E 0 92 39 64
        E 50 82 32 40
        E 0 82 39 40
        E 14 92 39 64
        E 0 92 32 64
        E 50 82 39 40
        E 0 82 32 40
        E 14 92 32 64
        E 0 92 39 64
        E 50 82 32 40
        E 0 82 39 40
        E 14 92 37 64
        E 0 92 3b 64
        E 370 82 37 40
        E 0 82 3b 40
        E 14 92 37 64
        E 0 92 2b 64
        E 0 92 32 64
        E 370 82 37 40
        E 0 82 2b 40
        E 0 82 32 40
        E 14 92 32 64
        E 0 92 37 64
        E 0 92 2b 64
        E 370 82 32 40
        E 0 82 37 40
        E 0 82 2b 40
        E 14 92 37 64
        E 0 92 32 64
        E 0 92 2b 64
        E 370 82 37 40
        E 0 82 32 40
        E 0 82 2b 40
        E 14 92 37 64
        E 0 92 32 64
        E 0 92 2b 64
        E 178 82 37 40
        E 0 82 32 40
        E 0 82 2b 40
        E 14 b0 7b 00
        GUID {F89CF315-DF78-0741-98C4-1907151011DB}
        IGNTEMPO 0 120 4 4
        SRCCOLOR 904
        VELLANE -1 86 6
      >
    >
  >
  <TRACK {EF869DFD-FA85-EE4D-A133-ABEE14D1B7D0}
    NAME "ch5 (send bass)"
    PEAKCOL 16576
    BEAT -1
    AUTOMODE 0
    VOLPAN 1 0 -1 -1 1
    MUTESOLO 0 0 0
    IPHASE 0
    ISBUS 2 -1
    BUSCOMP 0 0
    SHOWINMIX 1 0.6667 0.5 1 0 0 0 0
    FREEMODE 0
    SEL 1
    REC 0 0 0 0 0 0 0
    VU 2
    TRACKHEIGHT 0 0
    INQ 0 0 0 0.5 100 0 0 100
    NCHAN 2
    FX 1
    TRACKID {EF869DFD-FA85-EE4D-A133-ABEE14D1B7D0}
    PERF 0
    MIDIOUT -1
    MAINSEND 1 0
    <FXCHAIN
      WNDRECT 32 36 724 387
      SHOW 1
      LASTSEL 0
      DOCKED 1
    >
    <ITEM
      POSITION 0
      SNAPOFFS 0
      LENGTH 36.5
      LOOP 1
      ALLTAKES 0
      FADEIN 1 0 0 1 0 0
      FADEOUT 1 0 0 1 0 0
      MUTE 0
      SEL 1
      YPOS 0.375 0.125
      IGUID {29F0561A-4C10-FC4A-ACBD-4B3583B9B4C8}
      IID 4
      NAME "BASS                 - National_Anthems_-_China.mid"
      VOLPAN 1 0 1 -1
      SOFFS 0 0
      PLAYRATE 1 1 0 -1 0 0.0025
      CHANMODE 0
      TAKECOLOR 26173599 B
      GUID {8CDA0343-C837-3C49-8DF0-39FC4B4C6FC1}
      <SOURCE MIDI
        HASDATA 1 192 QN
        POOLEDEVTS {466003FE-ACF4-3F4A-88B8-289F9FDB289A}
        <X 0 0 0 0 3 "BASS                "
          /wNCQVNTICAgICAgICAgICAgICAgIA==
        >
        e 0 90 2b 64
        e 274 80 2b 40
        e 14 90 2b 64
        e 82 80 2b 40
        e 14 90 2b 64
        e 178 80 2b 40
        e 14 90 2b 64
        e 178 80 2b 40
        e 14 90 2b 64
        e 178 80 2b 40
        e 14 90 26 64
        e 50 80 26 40
        e 14 90 26 64
        e 50 80 26 40
        e 14 90 26 64
        e 50 80 26 40
        e 14 90 2b 64
        e 370 80 2b 40
        e 14 90 2b 64
        e 178 80 2b 40
        e 14 90 26 64
        e 178 80 26 40
        e 14 90 2b 64
        e 178 80 2b 40
        e 206 90 2f 64
        e 274 80 2f 40
        e 14 90 2f 64
        e 82 80 2f 40
        e 14 90 2f 64
        e 178 80 2f 40
        e 14 90 32 64
        e 178 80 32 40
        e 14 90 37 64
        e 178 80 37 40
        e 14 90 37 64
        e 178 80 37 40
        e 398 90 2b 64
        e 178 80 2b 40
        e 14 90 2b 64
        e 178 80 2b 40
        e 14 90 2b 64
        e 370 80 2b 40
        e 206 90 26 64
        e 178 80 26 40
        e 14 90 24 64
        e 370 80 24 40
        e 14 90 30 64
        e 178 80 30 40
        e 14 90 2f 64
        e 178 80 2f 40
        e 14 90 32 64
        e 178 80 32 40
        e 14 90 37 64
        e 178 80 37 40
        e 14 90 2b 64
        e 370 80 2b 40
        e 14 90 2b 64
        e 370 80 2b 40
        e 14 90 2b 64
        e 178 80 2b 40
        e 206 90 37 64
        e 274 80 37 40
        e 14 90 36 64
        e 82 80 36 40
        e 14 90 34 64
        e 178 80 34 40
        e 14 90 36 64
        e 178 80 36 40
        e 14 90 37 64
        e 562 80 37 40
        e 14 90 36 64
        e 178 80 36 40
        e 14 90 2f 64
        e 274 80 2f 40
        e 14 90 2f 64
        e 82 80 2f 40
        e 14 90 2b 64
        e 274 80 2b 40
        e 14 90 2b 64
        e 82 80 2b 40
        e 14 90 32 64
        e 370 80 32 40
        e 14 90 37 64
        e 274 80 37 40
        e 14 90 37 64
        e 82 80 37 40
        e 14 90 37 64
        e 178 80 37 40
        e 14 90 37 64
        e 178 80 37 40
        e 14 90 37 64
        e 178 80 37 40
        e 14 90 32 64
        e 50 80 32 40
        e 14 90 32 64
        e 50 80 32 40
        e 14 90 32 64
        e 50 80 32 40
        e 14 90 2b 64
        e 370 80 2b 40
        e 14 90 2b 64
        e 562 80 2b 40
        e 14 90 32 64
        e 114 80 32 40
        e 14 90 32 64
        e 50 80 32 40
        e 14 90 37 64
        e 370 80 37 40
        e 14 90 2b 64
        e 370 80 2b 40
        e 14 90 2b 64
        e 370 80 2b 40
        e 14 90 2b 64
        e 370 80 2b 40
        e 14 90 2b 64
        e 178 80 2b 40
        E 14 b0 7b 00
        GUID {D0447611-4F1D-C646-A36E-1EE83C01B223}
        IGNTEMPO 0 120 4 4
        SRCCOLOR 656
        VELLANE -1 86 6
        CFGEDITVIEW 2180.430894 1.497595 33 20 0 0 0 0 0 0.5
        KEYSNAP 0
        TRACKSEL 226
        EVTFILTER 16 -1 -1 -1 -1 4 1 0 0 -1 -1 -1 -1 0 -1 0 -1 -1
        CFGEDIT 1 0 0 0 0 0 1 0 5 1 1 0.25 16 63 1280 778 0 0 2 3 0 0 0 0 0 0.5 0 0 1 64
      >
      TAKE SEL
      NAME "BASS                 - National_Anthems_-_China.mid"
      TAKEVOLPAN 0 1 -1
      SOFFS 0 0
      PLAYRATE 1 1 0 -1 0 0.0025
      CHANMODE 0
      GUID {0B85B17E-1A67-A144-81CE-F9B023202D7E}
      <SOURCE MIDI
        HASDATA 1 192 QN
        POOLEDEVTS {CA58649C-4B0B-484A-892E-4C8C0644F138}
        <X 0 0 0 0 3 "BASS                "
          /wNCQVNTICAgICAgICAgICAgICAgIA==
        >
        e 0 90 2b 64
        e 274 80 2b 40
        e 14 90 2b 64
        e 82 80 2b 40
        e 14 90 2b 64
        e 178 80 2b 40
        e 14 90 2b 64
        e 178 80 2b 40
        e 14 90 2b 64
        e 178 80 2b 40
        e 14 90 26 64
        e 50 80 26 40
        e 14 90 26 64
        e 50 80 26 40
        e 14 90 26 64
        e 50 80 26 40
        e 14 90 2b 64
        e 370 80 2b 40
        e 14 90 2b 64
        e 178 80 2b 40
        e 14 90 26 64
        e 178 80 26 40
        e 14 90 2b 64
        e 178 80 2b 40
        e 206 90 2f 64
        e 274 80 2f 40
        e 14 90 2f 64
        e 82 80 2f 40
        e 14 90 2f 64
        e 178 80 2f 40
        e 14 90 32 64
        e 178 80 32 40
        e 14 90 37 64
        e 178 80 37 40
        e 14 90 37 64
        e 178 80 37 40
        e 398 90 2b 64
        e 178 80 2b 40
        e 14 90 2b 64
        e 178 80 2b 40
        e 14 90 2b 64
        e 370 80 2b 40
        e 206 90 26 64
        e 178 80 26 40
        e 14 90 24 64
        e 370 80 24 40
        e 14 90 30 64
        e 178 80 30 40
        e 14 90 2f 64
        e 178 80 2f 40
        e 14 90 32 64
        e 178 80 32 40
        e 14 90 37 64
        e 178 80 37 40
        e 14 90 2b 64
        e 370 80 2b 40
        e 14 90 2b 64
        e 370 80 2b 40
        e 14 90 2b 64
        e 178 80 2b 40
        e 206 90 37 64
        e 274 80 37 40
        e 14 90 36 64
        e 82 80 36 40
        e 14 90 34 64
        e 178 80 34 40
        e 14 90 36 64
        e 178 80 36 40
        e 14 90 37 64
        e 562 80 37 40
        e 14 90 36 64
        e 178 80 36 40
        e 14 90 2f 64
        e 274 80 2f 40
        e 14 90 2f 64
        e 82 80 2f 40
        e 14 90 2b 64
        e 274 80 2b 40
        e 14 90 2b 64
        e 82 80 2b 40
        e 14 90 32 64
        e 370 80 32 40
        e 14 90 37 64
        e 274 80 37 40
        e 14 90 37 64
        e 82 80 37 40
        e 14 90 37 64
        e 178 80 37 40
        e 14 90 37 64
        e 178 80 37 40
        e 14 90 37 64
        e 178 80 37 40
        e 14 90 32 64
        e 50 80 32 40
        e 14 90 32 64
        e 50 80 32 40
        e 14 90 32 64
        e 50 80 32 40
        e 14 90 2b 64
        e 370 80 2b 40
        e 14 90 2b 64
        e 562 80 2b 40
        e 14 90 32 64
        e 114 80 32 40
        e 14 90 32 64
        e 50 80 32 40
        e 14 90 37 64
        e 370 80 37 40
        e 14 90 2b 64
        e 370 80 2b 40
        e 14 90 2b 64
        e 370 80 2b 40
        e 14 90 2b 64
        e 370 80 2b 40
        e 14 90 2b 64
        e 178 80 2b 40
        E 14 b0 7b 00
        GUID {8345A1AF-DE69-5F49-B0E1-ECA80923C99D}
        IGNTEMPO 0 120 4 4
        SRCCOLOR 901
        VELLANE -1 86 6
        CFGEDITVIEW 0 0 33 20 0 0 0 0 0 0.5
        KEYSNAP 0
        TRACKSEL 226
        EVTFILTER 16 -1 -1 -1 -1 4 1 0 0 -1 -1 -1 -1 0 -1 0 -1 -1
        CFGEDIT 1 0 0 0 0 0 1 0 5 1 1 0.25 16 63 1280 778 0 0 2 3 0 0 0 0 0 0.5 0 0 1 64
      >
    >
  >
  <TRACK {97C14EE2-C273-C940-9D68-54C062C3CBCA}
    NAME ChipFront
    PEAKCOL 16576
    BEAT -1
    AUTOMODE 0
    VOLPAN 0.33184425362904 0 -1 -1 1
    MUTESOLO 0 0 0
    IPHASE 0
    ISBUS 0 0
    BUSCOMP 0 0
    SHOWINMIX 1 0.6667 0.5 1 0 0 0 0
    FREEMODE 0
    SEL 0
    REC 0 0 0 0 0 0 0
    VU 2
    TRACKHEIGHT 0 0
    INQ 0 0 0 0.5 100 0 0 100
    NCHAN 2
    FX 1
    TRACKID {97C14EE2-C273-C940-9D68-54C062C3CBCA}
    PERF 0
    AUXRECV 6 0 1 0 0 0 0 0 0 -1:U 0 -1 ''
    MIDIOUT -1
    MAINSEND 1 0
    <FXCHAIN
      SHOW 0
      LASTSEL 0
      DOCKED 0
      BYPASS 0 0 0
      <VST "VST: FabFilter Volcano 2 (SC) (FabFilter)" "FabFilter Volcano 2 (SC).vst" 0 "" 1180054068
        NDJWRu9e7f4EAAAAAQAAAAAAAAACAAAAAAAAAAQAAAAAAAAACAAAAAAAAAAEAAAAAQAAAAAAAAACAAAAAAAAAAQAAAAAAAAACAAAAAAAAADcCwAAAAAAAAAAEAA=
        776t3g3wrd4AAAA/AAAAPwAAAD8AAAA/AACAPwAAAAAAAAA/q6qqPq2+aD8AAAA/ig0yPM3MzD0AAAAAAAAAAAAAAAAAAIA/AACAP0Isdj8AAAA/bbDgPZqZGT8AAAAA
        AAAAAOev3zwAAIA/AAAAAAAAgD8AAAA/AAAAAJqZGT8AAAAAAAAAAAAAAAAAAIA/AAAAAAAAgD8AAAA/AAAAAJqZGT8AAAAAAAAAAAAAAAAAAIA/AAAAAKuqqj4ATrI+
        AAAAPwAAAADBykk/XXRRPwAAAACJiIg9AACAP6oXiD4AAAAAAAAAAAAAAAAAAAAAAACAPwAAAAAAAAA/AAAAAAAAAAAAAAAAAAAAPwAAAAAAAAAAAAAAAAAAAD8AAAAA
        AAAAAAAAAAAAAAA/AAAAAAAAAAAAAAAAAAAAPwAAAAAAAAAAAAAAAAAAAD8AAAAAAAAAAAAAAAAAAAA/AAAAAAAAAAAAAAAAAAAAPwAAAAAAAAAAAAAAAAAAAD8AAAAA
        AAAAAAAAAAAAAAA/AAAAAAAAAAAAAAAAAAAAPwAAAAAAAAAAAAAAAAAAAD8AAAAAAAAAAAAAAAAAAAA/AAAAAAAAAAAAAAAAAAAAPwAAAAAAAAAAAAAAAHwZED4AAAA/
        KKO3PQAAgD8AAAAAAAAAAImIiD3y0iU/AAAAAAAAgD8AAAAAdGjRPQAAAAAAAIA/AAAAAAAAAD8AAAAAAAAAAAAAAAAAAAA/AAAAAAAAAAAAAAAAAAAAPwAAAAAAAAAA
        AAAAAAAAAD8AAAAAAAAAAAAAAAAAAAA/AAAAAAAAAAAAAAAAAAAAPwAAAAAAAAAAAAAAAAAAAD8AAAAAAAAAAAAAAAAAAAA/AAAAAAAAAAAAAAAAAAAAPwAAAAAAAAAA
        AAAAAAAAAD8AAAAAAAAAAAAAAAAAAAA/AAAAAAAAAAAAAAAAAAAAPwAAAAAAAAAAAAAAAAAAAD8AAAAAAAAAAAAAAAAAAAA/AAAAAAAAAAAAAAAAvvR9PgAAAD8AAAA/
        AAAAPwAAAAAAAAAAiYiIPQAAAD8AAAAAAAAAAAAAAAAAAAA/AAAAAAAAAAAAAAAAAAAAPwAAAAAAAAAAAAAAAAAAAD8AAAAAAAAAAAAAAAAAAAA/AAAAAAAAAAAAAAAA
        AAAAPwAAAAAAAAAAAAAAAAAAAD8AAAAAAAAAAAAAAAAAAAA/AAAAAAAAAAAAAAAAAAAAPwAAAAAAAAAAAAAAAAAAAD8AAAAAAAAAAAAAAAAAAAA/AAAAAAAAAAAAAAAA
        AAAAPwAAAAAAAAAAAAAAAAAAAD8AAAAAAAAAAAAAAAAAAAA/AAAAAAAAAAAAAAAAAAAAPwAAAAAAAAAAAAAAAAAAAD8AAAAAAAAAAAAAAAC+9H0+AAAAPwAAAD8AAAA/
        AAAAAAAAAACJiIg9AAAAPwAAAAAAAAAAAAAAAAAAAD8AAAAAAAAAAAAAAAAAAAA/AAAAAAAAAAAAAAAAAAAAPwAAAAAAAAAAAAAAAAAAAD8AAAAAAAAAAAAAAAAAAAA/
        AAAAAAAAAAAAAAAAAAAAPwAAAAAAAAAAAAAAAAAAAD8AAAAAAAAAAAAAAAAAAAA/AAAAAAAAAAAAAAAAAAAAPwAAAAAAAAAAAAAAAAAAAD8AAAAAAAAAAAAAAAAAAAA/
        AAAAAAAAAAAAAAAAAAAAPwAAAAAAAAAAAAAAAAAAAD8AAAAAAAAAAAAAAAAAAAA/AAAAAAAAAAAAAAAAAAAAPwAAAAAAAAAAAAAAAL70fT4AAAA/AAAAPwAAAD8AAAAA
        AAAAAImIiD0AAAA/AAAAAAAAAAAAAAAAAAAAPwAAAAAAAAAAAAAAAAAAAD8AAAAAAAAAAAAAAAAAAAA/AAAAAAAAAAAAAAAAAAAAPwAAAAAAAAAAAAAAAAAAAD8AAAAA
        AAAAAAAAAAAAAAA/AAAAAAAAAAAAAAAAAAAAPwAAAAAAAAAAAAAAAAAAAD8AAAAAAAAAAAAAAAAAAAA/AAAAAAAAAAAAAAAAAAAAPwAAAAAAAAAAAAAAAAAAAD8AAAAA
        AAAAAAAAAAAAAAA/AAAAAAAAAAAAAAAAAAAAPwAAAAAAAAAAAAAAAAAAAD8AAAAAAAAAAAAAAAAAAAA/AAAAAAAAAAAAAAAAvvR9PgAAAD8AAAA/AAAAPwAAAAAAAAAA
        iYiIPQAAAD8AAAAAAAAAAAAAAAAAAAA/AAAAAAAAAAAAAAAAAAAAPwAAAAAAAAAAAAAAAAAAAD8AAAAAAAAAAAAAAAAAAAA/AAAAAAAAAAAAAAAAAAAAPwAAAAAAAAAA
        AAAAAAAAAD8AAAAAAAAAAAAAAAAAAAA/AAAAAAAAAAAAAAAAAAAAPwAAAAAAAAAAAAAAAAAAAD8AAAAAAAAAAAAAAAAAAAA/AAAAAAAAAAAAAAAAAAAAPwAAAAAAAAAA
        AAAAAAAAAD8AAAAAAAAAAAAAAAAAAAA/AAAAAAAAAAAAAAAAAAAAPwAAAAAAAAAAAAAAAAAAAD8AAAAAAAAAAAAAAAAAAAAAmpmZPgAAAAAAAAAAAAAAAAAAgD8AAAAA
        mpmZPgAAAAAAAAAAAAAAAAAAgD8AAAAAmpmZPgAAAAAAAAAAAAAAAAAAgD8AAAAAmpmZPgAAAAAAAAAAAAAAAAAAgD8AAAAAmpmZPgAAAAAAAAAAAAAAAAAAgD8AAAAA
        mpmZPgAAAAAAAAAAAAAAAAAAgD8AAAAAAAAAAAAAAAAAAAAAAAAAAAAAAAAAAAAAAAAAAAAAAAAAAAAAAAAAAAAAAAAAAAAAAAAAAAAAAAAAAAAAAAAAAAAAAAAAAAAA
        AAAAAAAAAAAAAAAAAAAAAAAAAAAAAAAAAAAAAAAAAAAAAAAAAAAAAAAAAAAAAAAAAAAAAAAAAAAAAAAAAAAAAAAAAAAAAAAAAAAAAKuqKj3ZiZ09gShWPgAAAAAAAAAA
        v+eWPQAAAAAAAAA/AAAAAAAAAAAAAAAAAAAAAAAAAD8AAAAAAAAAAAAAAAAAAAAAAAAAPwAAAAAAAAAAAAAAAAAAAAAAAAAAAAAAAAAAAAAAAAAAAAAAAAAAAAAAAAAA
        AAAAAAAAAAAAAAAAAAAAAAAAAAAAAAAAAAAAAAAAAAAAAAAAAAAAAAAAAAAAAAAAAAAAAAAAAAAAAAAAAAAAAAAAAAAAAAAAAAAAAAAAAAAAAAAAAAAAAAAAAAAAAAAA
        AAAAAAAAAAAAAAAAAAAAAAAAAAAAAAAAAAAAAAAAAAAAAAAAAAAAAAAAAAAAAAAAAAAAAAAAAAAAAAAAAAAAAAAAAAAAAAAAAAAAAAAAAAAAAAAAAAAAAAAAAAAAAAAA
        AAAAAAAAAAAAAAAAAAAAAAAAAAAAAAAAAAAAAAAAAAAAAAAAAAAAAAAAAAAAAAAAAAAAAAAAAAAAAAAAAAAAAAAAAAAAAAAAAAAAAAAAAAAAAAAAAAAAAAAAAAAAAAAA
        AAAAAAAAAAAAAAAAAAAAAAAAAAAAAAAAAAAAAAAAAAAAAAAAAAAAAAAAAAAAAAAAAAAAAAAAAAAAAAAAAAAAAAAAAAAAAAAAAAAAAAAAAAAAAAAAAAAAPwAAAD8AAAA/
        AAAAPwAAAD8AAAA/AAAAPwAAAD8AAAAAAAAAAAAAAAAAAAAAAAAAAAAAAAAAAAAAAAAAAAAAAAAAAAAAAAAAAAAAAAAAAAAAAAAAAAAAAAAAAAAAAAAAAAAAAAAAAAAA
        AAAAAAAAAAAAAAAAAAAAAAAAAAAAAAAAAAAAAAAAAAAAAAAAAAAAAAAAAAAAAAAAAAAAAAAAAAAAAAAAAAAAAAAAAAAAAAAAAAAAAAAAAAAAAAAAAAAAAAAAAAAAAAAA
        AAAAAAAAAAAAAAAAAAAAAAAAAAAAAAAAAAAAAAAAAAAAAAAAAAAAAAAAAAAAAAAAAAAAAAAAAAAAAAAAAAAAAAAAAAAAAAAAAAAAAAAAAAAAAAAAAAAAAAAAAAAAAAAA
        AAAAAAAAAAAAAAAAAAAAAAAAAAAAAAAAAAAAAAAAAAAAAAAAAAAAAAAAAAAAAAAAAAAAAAAAAAAAAAAA
        Q2hpcEZyb250AENoaXBGcm9udAAQAAAA
      >
      PRESETNAME ChipFront
      FLOATPOS 36 32 641 529
      FXID {4C5A6810-F3ED-0645-A06D-6758F70CB097}
      WAK 0
    >
  >
  <TRACK {1B564899-9ACC-8C4B-8FBF-925A5A247A13}
    NAME ChipSide
    PEAKCOL 16576
    BEAT -1
    AUTOMODE 0
    VOLPAN 0.37438658028591 0 -1 -1 1
    MUTESOLO 0 0 0
    IPHASE 0
    ISBUS 0 0
    BUSCOMP 0 0
    SHOWINMIX 1 0.6667 0.5 1 0 0 0 0
    FREEMODE 0
    SEL 0
    REC 0 0 0 0 0 0 0
    VU 2
    TRACKHEIGHT 0 0
    INQ 0 0 0 0.5 100 0 0 100
    NCHAN 2
    FX 1
    TRACKID {1B564899-9ACC-8C4B-8FBF-925A5A247A13}
    PERF 0
    AUXRECV 6 0 1.03113579563571 0 0 0 0 2 0 -1:U 0 -1 ''
    MIDIOUT -1
    MAINSEND 1 0
    <FXCHAIN
      SHOW 0
      LASTSEL 0
      DOCKED 0
      BYPASS 0 0 0
      <VST "VST: FabFilter Volcano 2 (SC) (FabFilter)" "FabFilter Volcano 2 (SC).vst" 0 "" 1180054068
        NDJWRu9e7f4EAAAAAQAAAAAAAAACAAAAAAAAAAQAAAAAAAAACAAAAAAAAAAIAAAAAQAAAAAAAAACAAAAAAAAAAQAAAAAAAAACAAAAAAAAAAQAAAAAAAAACAAAAAAAAAA
        QAAAAAAAAACAAAAAAAAAANwLAAAAAAAAAAAQAA==
        776t3g3wrd4AAAA/AAAAPwAAAD8AAAA/AACAPwAAAAAAAIA/q6qqPsplFD8AAAA/TxqgPc3MzD0AAAAAAAAAAEKGIj8AAIA/AACAP0Isdj8AAAA/bbDgPZqZGT8AAAAA
        AAAAAOev3zwAAIA/AAAAAAAAgD8AAAA/AAAAAJqZGT8AAAAAAAAAAAAAAAAAAIA/AAAAAAAAgD8AAAA/AAAAAJqZGT8AAAAAAAAAAAAAAAAAAIA/AAAAAKuqqj6CdAA9
        EObJPZgn+j4AAIA/AAAAAAAAAACJiAg+AACAP7PDtD4AAIA/AAAAAAAAAAAAAAAAq6qqPgAAAACeFR0/AAAAAAAAgD8AAAAAAAAAPwAAAAAAAAAAAAAAAAAAAD8AAAAA
        AAAAAAAAAAAAAAA/AAAAAAAAAAAAAAAAAAAAPwAAAAAAAAAAAAAAAAAAAD8AAAAAAAAAAAAAAAAAAAA/AAAAAAAAAAAAAAAAAAAAPwAAAAAAAAAAAAAAAAAAAD8AAAAA
        AAAAAAAAAAAAAAA/AAAAAAAAAAAAAAAAAAAAPwAAAAAAAAAAAAAAAAAAAD8AAAAAAAAAAAAAAAAAAAA/AAAAAAAAAAAAAAAAAAAAPwAAAAAAAAAAAAAAAHwZED4AAAA/
        KKO3PQAAgD8AAAAAAAAAAImIiD3y0iU/AAAAAAAAgD8AAAAAdGjRPQAAAAAAAIA/AAAAAAAAAD8AAAAAAAAAAAAAAAAAAAA/AAAAAAAAAAAAAAAAAAAAPwAAAAAAAAAA
        AAAAAAAAAD8AAAAAAAAAAAAAAAAAAAA/AAAAAAAAAAAAAAAAAAAAPwAAAAAAAAAAAAAAAAAAAD8AAAAAAAAAAAAAAAAAAAA/AAAAAAAAAAAAAAAAAAAAPwAAAAAAAAAA
        AAAAAAAAAD8AAAAAAAAAAAAAAAAAAAA/AAAAAAAAAAAAAAAAAAAAPwAAAAAAAAAAAAAAAAAAAD8AAAAAAAAAAAAAAAAAAAA/AAAAAAAAAAAAAAAAvvR9PgAAAD8AAAA/
        AAAAPwAAAAAAAAAAiYiIPQAAAD8AAAAAAAAAAAAAAAAAAAA/AAAAAAAAAAAAAAAAAAAAPwAAAAAAAAAAAAAAAAAAAD8AAAAAAAAAAAAAAAAAAAA/AAAAAAAAAAAAAAAA
        AAAAPwAAAAAAAAAAAAAAAAAAAD8AAAAAAAAAAAAAAAAAAAA/AAAAAAAAAAAAAAAAAAAAPwAAAAAAAAAAAAAAAAAAAD8AAAAAAAAAAAAAAAAAAAA/AAAAAAAAAAAAAAAA
        AAAAPwAAAAAAAAAAAAAAAAAAAD8AAAAAAAAAAAAAAAAAAAA/AAAAAAAAAAAAAAAAAAAAPwAAAAAAAAAAAAAAAAAAAD8AAAAAAAAAAAAAAAC+9H0+AAAAPwAAAD8AAAA/
        AAAAAAAAAACJiIg9AAAAPwAAAAAAAAAAAAAAAAAAAD8AAAAAAAAAAAAAAAAAAAA/AAAAAAAAAAAAAAAAAAAAPwAAAAAAAAAAAAAAAAAAAD8AAAAAAAAAAAAAAAAAAAA/
        AAAAAAAAAAAAAAAAAAAAPwAAAAAAAAAAAAAAAAAAAD8AAAAAAAAAAAAAAAAAAAA/AAAAAAAAAAAAAAAAAAAAPwAAAAAAAAAAAAAAAAAAAD8AAAAAAAAAAAAAAAAAAAA/
        AAAAAAAAAAAAAAAAAAAAPwAAAAAAAAAAAAAAAAAAAD8AAAAAAAAAAAAAAAAAAAA/AAAAAAAAAAAAAAAAAAAAPwAAAAAAAAAAAAAAAL70fT4AAAA/AAAAPwAAAD8AAAAA
        AAAAAImIiD0AAAA/AAAAAAAAAAAAAAAAAAAAPwAAAAAAAAAAAAAAAAAAAD8AAAAAAAAAAAAAAAAAAAA/AAAAAAAAAAAAAAAAAAAAPwAAAAAAAAAAAAAAAAAAAD8AAAAA
        AAAAAAAAAAAAAAA/AAAAAAAAAAAAAAAAAAAAPwAAAAAAAAAAAAAAAAAAAD8AAAAAAAAAAAAAAAAAAAA/AAAAAAAAAAAAAAAAAAAAPwAAAAAAAAAAAAAAAAAAAD8AAAAA
        AAAAAAAAAAAAAAA/AAAAAAAAAAAAAAAAAAAAPwAAAAAAAAAAAAAAAAAAAD8AAAAAAAAAAAAAAAAAAAA/AAAAAAAAAAAAAAAAvvR9PgAAAD8AAAA/AAAAPwAAAAAAAAAA
        iYiIPQAAAD8AAAAAAAAAAAAAAAAAAAA/AAAAAAAAAAAAAAAAAAAAPwAAAAAAAAAAAAAAAAAAAD8AAAAAAAAAAAAAAAAAAAA/AAAAAAAAAAAAAAAAAAAAPwAAAAAAAAAA
        AAAAAAAAAD8AAAAAAAAAAAAAAAAAAAA/AAAAAAAAAAAAAAAAAAAAPwAAAAAAAAAAAAAAAAAAAD8AAAAAAAAAAAAAAAAAAAA/AAAAAAAAAAAAAAAAAAAAPwAAAAAAAAAA
        AAAAAAAAAD8AAAAAAAAAAAAAAAAAAAA/AAAAAAAAAAAAAAAAAAAAPwAAAAAAAAAAAAAAAAAAAD8AAAAAAAAAAAAAAAAAAAAAmpmZPgAAAAAAAAAAAAAAAAAAgD8AAAAA
        mpmZPgAAAAAAAAAAAAAAAAAAgD8AAAAAmpmZPgAAAAAAAAAAAAAAAAAAgD8AAAAAmpmZPgAAAAAAAAAAAAAAAAAAgD8AAAAAmpmZPgAAAAAAAAAAAAAAAAAAgD8AAAAA
        mpmZPgAAAAAAAAAAAAAAAAAAgD8AAAAAAAAAAAAAAAAAAAAAAAAAAAAAAAAAAAAAAAAAAAAAAAAAAAAAAAAAAAAAAAAAAAAAAAAAAAAAAAAAAAAAAAAAAAAAAAAAAAAA
        AAAAAAAAAAAAAAAAAAAAAAAAAAAAAAAAAAAAAAAAAAAAAAAAAAAAAAAAAAAAAAAAAAAAAAAAAAAAAAAAAAAAAAAAAAAAAAAAAAAAAKuqqj3ZiZ09gShWPgAAgD8AAAAA
        v+eWPdmJHT0WszE/AAAAAAAAAACSdiw8AAAAAAAAAD8AAAAAAAAAAAAAAAAAAAAAAAAAPwAAAAAAAAAAAAAAAAAAAAAAAAAAAAAAAAAAAAAAAAAAAAAAAAAAAAAAAAAA
        AAAAAAAAAAAAAAAAAAAAAAAAAAAAAAAAAAAAAAAAAAAAAAAAAAAAAAAAAAAAAAAAAAAAAAAAAAAAAAAAAAAAAAAAAAAAAAAAAAAAAAAAAAAAAAAAAAAAAAAAAAAAAAAA
        AAAAAAAAAAAAAAAAAAAAAAAAAAAAAAAAAAAAAAAAAAAAAAAAAAAAAAAAAAAAAAAAAAAAAAAAAAAAAAAAAAAAAAAAAAAAAAAAAAAAAAAAAAAAAAAAAAAAAAAAAAAAAAAA
        AAAAAAAAAAAAAAAAAAAAAAAAAAAAAAAAAAAAAAAAAAAAAAAAAAAAAAAAAAAAAAAAAAAAAAAAAAAAAAAAAAAAAAAAAAAAAAAAAAAAAAAAAAAAAAAAAAAAAAAAAAAAAAAA
        AAAAAAAAAAAAAAAAAAAAAAAAAAAAAAAAAAAAAAAAAAAAAAAAAAAAAAAAAAAAAAAAAAAAAAAAAAAAAAAAAAAAAAAAAAAAAAAAAAAAAAAAAAAAAAAAAAAAPwAAAD8AAAA/
        AAAAPwAAAD8AAAA/AAAAPwAAAD8AAAAAAAAAAAAAAAAAAAAAAAAAAAAAAAAAAAAAAAAAAAAAAAAAAAAAAAAAAAAAAAAAAAAAAAAAAAAAAAAAAAAAAAAAAAAAAAAAAAAA
        AAAAAAAAAAAAAAAAAAAAAAAAAAAAAAAAAAAAAAAAAAAAAAAAAAAAAAAAAAAAAAAAAAAAAAAAAAAAAAAAAAAAAAAAAAAAAAAAAAAAAAAAAAAAAAAAAAAAAAAAAAAAAAAA
        AAAAAAAAAAAAAAAAAAAAAAAAAAAAAAAAAAAAAAAAAAAAAAAAAAAAAAAAAAAAAAAAAAAAAAAAAAAAAAAAAAAAAAAAAAAAAAAAAAAAAAAAAAAAAAAAAAAAAAAAAAAAAAAA
        AAAAAAAAAAAAAAAAAAAAAAAAAAAAAAAAAAAAAAAAAAAAAAAAAAAAAAAAAAAAAAAAAAAAAAAAAAAAAAAA
        Q2hpcFNpZGUAQ2hpcFNpZGUAEAAAAA==
      >
      PRESETNAME ChipSide
      FLOATPOS 36 32 641 529
      FXID {20356A84-5CFD-6E4A-AA26-2A8A49CE7A76}
      WAK 0
    >
  >
  <EXTENSIONS
    <SWSAUTOCOLOR
      {00000000-0000-0000-0000-000000000000} 0 "" "" ""
    >
    <BR_CURSOR_POS 04
      0.00000000000000
    >
  >
>
