<REAPER_PROJECT 0.1 "5.50rc21/OSX64" 1511962358
  RIPPLE 0
  GROUPOVERRIDE 0 0 0
  AUTOXFADE 0
  ENVATTACH 1
  POOLEDENVATTACH 0
  MIXERUIFLAGS 11 52
  PEAKGAIN 1
  FEEDBACK 0
  PANLAW 1
  PROJOFFS 0 0
  MAXPROJLEN 0 600
  GRID 174206 8 1 8 1 0 0 0
  TIMEMODE 6 0 -1 24 2
  PANMODE 3
  CURSOR 8
  ZOOM 12.85911208940567 0 0
  VZOOMEX 7
  USE_REC_CFG 0
  RECMODE 1
  SMPTESYNC 0 23.976024 100 40 1000 300 0 0 1 0 0
  MIDIEDITOR -116919545 0 0
  LOOP 1
  LOOPGRAN 0 4
  RECORD_PATH "" ""
  <RECORD_CFG
    ZXZhdxAAAA==
  >
  <APPLYFX_CFG
  >
  RENDER_FILE "/Users/samenglander/_dev/colorflags/anthems/phillippines_1.mp3"
  RENDER_FMT 0 2 44100
  RENDER_1X 0
  RENDER_RANGE 2 0 0 18 1000
  RENDER_RESAMPLE 3 0 1
  RENDER_ADDTOPROJ 0
  RENDER_STEMS 0
  RENDER_DITHER 0
  TIMELOCKMODE 1
  TEMPOENVLOCKMODE 1
  ITEMMIX 1
  DEFPITCHMODE 589824
  TAKELANE 3
  SAMPLERATE 44100 0 0
  <RENDER_CFG
    bDNwbSAAAAABAAAABQAAAAAAAAAAAAAAQAEAAAAAAAA=
  >
  LOCK 1
  <METRONOME 6 2
    VOL 0.25 0.125
    FREQ 800 1600 1
    BEATLEN 4
    SAMPLES "" ""
    PATTERN 2863311530 2863311529
  >
  GLOBAL_AUTO -1
  TEMPO 120 4 4
  PLAYRATE 1 0 0.25 4
  SELECTION 48 8
  SELECTION2 48 8
  MASTERAUTOMODE 0
  MASTERTRACKHEIGHT 0
  MASTERPEAKCOL 16576
  MASTERMUTESOLO 0
  MASTERTRACKVIEW 0 0.6667 0.5 0.5 0 0 0
  MASTERHWOUT 0 0 1 0 0 0 0 -1
  MASTER_NCH 2 2
  MASTER_VOLUME 1 0 -1 -1 1
  MASTER_FX 1
  MASTER_SEL 0
  <MASTERPLAYSPEEDENV
    ACT 0
    VIS 0 1 1
    LANEHEIGHT 0 0
    ARM 0
    DEFSHAPE 0 -1 -1
  >
  <TEMPOENVEX
    ACT 0
    VIS 1 0 1
    LANEHEIGHT 0 0
    ARM 0
    DEFSHAPE 1 -1 -1
  >
  MARKER 2 8 "" 1 0 1 B
  MARKER 2 24 "" 1 0 1 B
  MARKER 1 32 "" 1 0 1 B
  MARKER 1 48 "" 1 0 1 B
  <PROJBAY
  >
  <TRACK {F23F8223-271A-294D-A229-F474D58B7A97}
    NAME "vst Gladiator"
    PEAKCOL 27222112
    BEAT -1
    AUTOMODE 0
    VOLPAN 0.24448276984837 0 -1 -1 1
    MUTESOLO 0 0 0
    IPHASE 0
    ISBUS 0 0
    BUSCOMP 2 0
    SHOWINMIX 1 0.6667 0.698113 1 0.5 0 0 0
    FREEMODE 0
    SEL 1
    REC 0 0 0 0 0 0 0
    VU 2
    TRACKHEIGHT 0 0
    INQ 0 0 0 0.5 100 0 0 100
    NCHAN 2
    FX 1
    TRACKID {F23F8223-271A-294D-A229-F474D58B7A97}
    PERF 0
    MIDIOUT -1
    MAINSEND 1 0
    <FXCHAIN
      SHOW 0
      LASTSEL 0
      DOCKED 0
      BYPASS 0 0 0
      <VST "VSTi: Gladiator (Tone2.com)" Gladiator.vst 0 "" 1412581196
        TEcyVO5e7f4AAAAAAgAAAAEAAAAAAAAAAgAAAAAAAABaBAAAAQAAAAAAEAA=
        Q2NuSwAAAGBGeENrAAAAAVQyR0wAAAABAAABB0luaXQAAAAAAAAAAAAAAAAAAAAAAAAAAAAAAAA9zMzNPMzMzTw0OVg9uFH0PXnbIz+AAAA7xJumPb52yT+AAAA7xJum
        AAAAAD6mZmY+PXCkP4AAAD7FHrk/AAAAPwAAAAAAAAA9ffO2PdDlYDy8an8/RR64AAAAAD+AAAA8NDlYPZFocz71wo87RJumPbhR6D69cKQ+PXCkP4AAAD8AAAA/A9cL
        PwAAAAAAAAAAAAAAPwAAAD8AAAA/AAAAPtmZmj8AAAAAAAAAO+VgQj24UesAAAAAPk21xDtEm6Y/S4UeAAAAAAAAAAA+64UgPpR64T1hR7A+z1woPx64Uj49cKY/AAAA
        PwAAAAAAAAAAAAAAPwAAAAAAAAAAAAAAP4AAAD+AAAAAAAAAPxHrhT8AAAA/AAAAPwAAAD8AAAAAAAAAPwAAAD8AAAA/AAAAAAAAAD8AAAA/AAAAPwAAAAAAAAA6gxJv
        P1Cj1wAAAAA/gAAAAAAAADqDEm8/AAAAAAAAAAAAAAAAAAAAPwAAAAAAAAA/gAAAAAAAAD+AAAAAAAAAPwAAAD8AAAA/AAAAPwAAAD8AAAA/AAAAPwAAAD8AAAA/AAAA
        PwAAAD8AAAA/EeuGPKPXCjqDEm88RJumAAAAAAAAAAAAAAAAPLxqfwAAAAAAAAAAAAAAAAAAAAAAAAAAAAAAAAAAAAAAAAAAAAAAAAAAAAAAAAAAAAAAAAAAAAAAAAAA
        AAAAAAAAAAA8E3S8AAAAADw0OVgAAAAAPBN0vAAAAAA8NDlYAAAAADwTdLwAAAAAPDQ5WAAAAAA8E3S8AAAAADw0OVgAAAAAPGVgQj2HKwI8ZWBCOwMSbz2JN0w7AxJv
        PLQ5WDyLQ5Y8k3S8PVT99D0XjVA8zMzNPoAAAD9ywjU/AAAAP1GnuT8wjT4/HLCNAAAAADsDEm86gxJvAAAAAAAAAAAAAAAAPwAAADqDEm87RJumP4AAAAAAAAA/gAAA
        AAAAAD+AAAAAAAAAAAAAAAAAAAAAAAAAP4AAAAAAAAA/AAAAAAAAAD8AAAA/BR64PwAAAD+AAAA/AAAAPwAAAD8AAAA/gAAAP4AAAAAAAAAAAAAAAAAAAD8AAAA/gAAA
        PwAAAAAAAAA+vXCkAAAAAAAAAAA/gAAAP4AAAD8j1wo/gAAAAAAAAAAAAAA/gAAAPwAAAAAAAAAAAAAAAAAAAAAAAAAAAAAAAAAAAAAAAAAAAAAAAAAAAAAAAAAAAAAA
        AAAAAD8AAAA/AAAAPwAAAD8AAAA/AAAAPwAAAAAAAAAAAAAAP4AAAAAAAAAAAAAAAAAAAAAAAAAAAAAAAAAAAAAAAAAAAAAAAAAAAAAAAAAAAAAAAAAAAAAAAAAAAAAA
        AAAAAAAAAAAAAAAAAAAAAAAAAAAAAAAAAAAAAAAAAAAAAAAAAAAAAAAAAAAAAAAAAAAAAAAAqqusrQ==
        AEluaXQAEAAAAA==
      >
      PRESETNAME Init
      FLOATPOS 500 379 987 799
      FXID {532372E3-5B0D-9345-A9C8-98A8EBAF9A7E}
      WAK 0
    >
    <ITEM
      POSITION 0
      SNAPOFFS 0
      LENGTH 8
      LOOP 1
      ALLTAKES 0
      FADEIN 1 0 0 1 0 0
      FADEOUT 1 0 0 1 0 0
      MUTE 0
      SEL 0
      YPOS 0.266094 0.201717
      IGUID {38582E04-551F-BA47-94F7-1DCBF1B8C8EB}
      IID 1
      NAME "trumpet(s) - National_Anthems_-_Philippines.mid"
      VOLPAN 1 0 1 -1
      SOFFS 0 0
      PLAYRATE 1 1 0 -1 0 0.0025
      CHANMODE 0
      TAKECOLOR 26173599 B
      GUID {651380FF-38C8-BC48-ABD9-6ACF5C138487}
      <SOURCE MIDI
        HASDATA 1 480 QN
        POOLEDEVTS {C30B748B-95FA-A24E-B63A-E1CA759BB09C}
        <X 0 0 0 0 3 trumpet(s)
          /wN0cnVtcGV0KHMp
        >
        <X 0 0 0 0 4 "Sound Canvas"
          /wRTb3VuZCBDYW52YXM=
        >
        e 0 90 43 7f
        e 400 80 43 1b 22
        e 80 90 42 7f 2
        e 240 80 42 0b -9
        e 80 90 45 7f 21
        e 160 80 45 26 -22
        e 0 90 43 7f 8
        e 480 80 43 37 -18
        e 0 90 3e 7f 27
        e 400 80 3e 36 -36
        e 80 90 45 7f 8
        e 160 80 45 36 18
        e 0 90 47 7f -8
        e 160 80 47 47 -33
        e 0 90 48 7f -27
        e 80 80 48 28 30
        e 80 90 47 7f
        e 240 80 47 2f -30
        e 80 90 45 7f 7
        e 80 80 45 1b 33
        e 80 90 47 7f
        e 480 80 47 29 24
        e 0 90 43 7f 16
        e 320 80 43 16 33
        e 160 90 43 7f 31
        e 480 80 43 1f
        e 0 90 42 7f 18
        e 240 80 42 1e 25
        e 80 90 45 7f 21
        e 160 80 45 28 -5
        e 0 90 43 7f
        e 480 80 43 39 1
        e 0 90 3e 7f 2
        e 400 80 3e 01 -5
        e 80 90 45 7f
        e 160 80 45 12 11
        e 0 90 47 7f -14
        e 160 80 47 41 -12
        e 0 90 48 7f -3
        e 160 80 48 31 11
        e 0 90 47 7f -1
        e 240 80 47 22 1
        e 80 90 45 7f -5
        e 160 80 45 30 -13
        e 0 90 43 7f -5
        e 640 80 43 3e 6
        E 320 b0 7b 00
        GUID {6AFFBA77-E74A-7448-BE29-76F2E110A755}
        IGNTEMPO 0 120 4 4
        SRCCOLOR 401
        VELLANE -1 86 6
        CFGEDITVIEW -3096 12.459479 49 11 0 0 0 0 0 0.5
        KEYSNAP 0
        TRACKSEL 226
        EVTFILTER 0 -1 -1 -1 -1 0 0 0 0 -1 -1 -1 -1 0 -1 0 -1 -1
        CFGEDIT 1 0 0 0 0 0 1 0 1 1 1 0.125 0 16 1280 470 0 0 2 3 0.25 0 0 0 0 -0.44 0 0 1 64
      >
      TAKE
      NAME "trumpet(s) - National_Anthems_-_Philippines.mid"
      TAKEVOLPAN 0 1 -1
      SOFFS 0 0
      PLAYRATE 1 1 0 -1 0 0.0025
      CHANMODE 0
      GUID {096F8AE5-CDFB-664A-B70E-6F0447045AB4}
      <SOURCE MIDI
        HASDATA 1 480 QN
        POOLEDEVTS {54C0C640-C6DF-AD4D-B422-BD178F0DD023}
        <X 0 0 0 0 3 trumpet(s)
          /wN0cnVtcGV0KHMp
        >
        <X 0 0 0 0 4 "Sound Canvas"
          /wRTb3VuZCBDYW52YXM=
        >
        e 0 90 43 6d
        e 422 80 43 1b
        e 60 90 42 66
        e 229 80 42 0b
        e 110 90 45 61
        e 117 80 45 26
        e 30 90 43 6b
        e 454 80 43 37
        e 45 90 3e 64
        e 337 80 3e 36
        e 124 90 45 66
        e 144 90 47 60
        e 26 80 45 36
        e 109 80 47 47
        e 6 90 48 5a
        e 137 80 48 28
        e 50 90 47 67
        e 210 80 47 2f
        e 117 90 45 56
        e 106 80 45 1b
        e 47 90 47 60
        e 496 90 43 67
        e 8 80 47 29
        e 329 80 43 16
        e 158 90 43 68
        e 449 80 43 1f
        e 18 90 42 61
        e 247 80 42 1e
        e 76 90 45 5e
        e 134 80 45 28
        e 5 90 43 69
        e 481 80 43 39
        e 1 90 3e 5c
        e 393 80 3e 01
        e 85 90 45 64
        e 146 90 47 5e
        e 25 80 45 12
        e 137 80 47 41
        e 9 90 48 58
        e 162 90 47 67
        e 12 80 48 31
        e 230 80 47 22
        e 74 90 45 55
        e 152 80 45 30
        e 8 90 43 65
        e 651 80 43 3e
        e 299 90 43 69
        e 15 80 43 00
        E 0 b0 7b 00
        GUID {BD2AB576-9859-4A47-B0C2-FB40A957AF58}
        IGNTEMPO 0 120 4 4
        SRCCOLOR 402
        VELLANE -1 86 6
        CFGEDITVIEW 0 0 49 11 0 0 0 0 0 0.5
        KEYSNAP 0
        TRACKSEL 226
        EVTFILTER 0 -1 -1 -1 -1 0 0 0 0 -1 -1 -1 -1 0 -1 0 -1 -1
        CFGEDIT 1 0 0 0 0 0 1 0 1 1 1 0.125 0 16 1280 470 0 0 2 3 0.25 0 0 0 0 -0.44 0 0 1 64
      >
    >
    <ITEM
      POSITION 0
      SNAPOFFS 0
      LENGTH 8
      LOOP 1
      ALLTAKES 0
      FADEIN 1 0 0 1 0 0
      FADEOUT 1 0 0 1 0 0
      MUTE 0
      SEL 0
      YPOS 0.532189 0.201717
      IGUID {2D98AF23-E434-1B42-992D-E5A4AB8A48CF}
      IID 3
      NAME "trombone(s) - National_Anthems_-_Philippines.mid"
      VOLPAN 1 0 1 -1
      SOFFS 0 0
      PLAYRATE 1 1 0 -1 0 0.0025
      CHANMODE 0
      TAKECOLOR 26173599 B
      GUID {DAFD32BB-DBAF-9A41-AD90-9E6071722D9C}
      <SOURCE MIDI
        HASDATA 1 480 QN
        POOLEDEVTS {61C0881A-208C-6443-9091-056D9301F2B7}
        <X 0 0 0 0 3 trombone(s)
          /wN0cm9tYm9uZShzKQ==
        >
        <X 0 0 0 0 4 "Sound Canvas"
          /wRTb3VuZCBDYW52YXM=
        >
        e 0 92 37 7f
        e 240 82 37 01 37
        e 240 92 32 7f -4
        e 360 82 32 01 -34
        e 120 92 37 7f -6
        e 360 82 37 01 -49
        e 120 92 2b 7f -29
        e 360 82 2b 33 -59
        e 120 92 36 7f -2
        e 240 82 36 13 49
        e 240 92 32 7f -12
        e 240 82 32 40 37
        e 240 92 37 7f -4
        e 360 82 37 01 -37
        e 120 92 2b 7f -14
        e 360 82 2b 26 -44
        e 120 92 37 7f -5
        e 360 82 37 01 -41
        e 120 92 32 7f 6
        e 240 82 32 21 48
        e 240 92 37 7f 1
        e 360 82 37 01 1
        e 120 92 2b 7f -14
        e 240 82 2b 3b 9
        e 240 92 30 7f -1
        e 360 82 30 24 -52
        e 120 92 32 7f -14
        e 240 82 32 16 46
        e 240 92 37 7f -11
        e 360 82 37 01 -54
        e 120 92 2b 7f -15
        e 360 82 2b 27 -54
        E 120 b0 7b 00
        GUID {28F9F36F-8E8F-4840-968E-C9E53BFC96C1}
        IGNTEMPO 0 120 4 4
        SRCCOLOR 327
        VELLANE -1 86 6
        CFGEDITVIEW -3096 12.233968 62 8 0 0 0 0 0 0.5
        KEYSNAP 0
        TRACKSEL 226
        EVTFILTER 0 -1 -1 -1 -1 0 0 0 0 -1 -1 -1 -1 0 -1 0 -1 -1
        CFGEDIT 1 0 0 0 0 0 1 0 1 1 1 0.125 16 32 1280 470 0 0 2 3 0.25 0 0 0 0 -0.44 0 0 1 64
      >
      TAKE
      NAME "trombone(s) - National_Anthems_-_Philippines.mid"
      TAKEVOLPAN 0 1 -1
      SOFFS 0 0
      PLAYRATE 1 1 0 -1 0 0.0025
      CHANMODE 0
      GUID {4DEDB26D-B13B-5A45-ADAC-C835B6738A8E}
      <SOURCE MIDI
        HASDATA 1 480 QN
        POOLEDEVTS {A534B789-94A5-A049-839F-B2384F484C77}
        <X 0 0 0 0 3 trombone(s)
          /wN0cm9tYm9uZShzKQ==
        >
        <X 0 0 0 0 4 "Sound Canvas"
          /wRTb3VuZCBDYW52YXM=
        >
        E 0 92 37 52
        E 277 82 37 01
        E 199 92 32 59
        E 330 82 32 01
        E 148 92 37 54
        E 317 82 37 01
        E 140 92 2b 5c
        E 330 82 2b 33
        E 177 92 36 5f
        E 291 82 36 13
        E 179 92 32 59
        E 289 82 32 40
        E 199 92 37 51
        E 327 82 37 01
        E 143 92 2b 53
        E 330 82 2b 26
        E 159 92 37 52
        E 324 82 37 01
        E 167 92 32 50
        E 282 82 32 21
        E 193 92 37 4f
        E 360 82 37 01
        E 105 92 2b 60
        E 263 82 2b 3b
        E 230 92 30 57
        E 309 82 30 24
        E 158 92 32 59
        E 300 82 32 16
        E 183 92 37 59
        E 317 82 37 01
        E 159 92 2b 62
        E 321 82 2b 27
        E 169 92 37 59
        E 5 82 37 00
        E 0 b0 7b 00
        GUID {DD5B58D2-22DA-7D4E-81BC-F7C1B8B39AFE}
        IGNTEMPO 0 120 4 4
        SRCCOLOR 403
        VELLANE -1 86 6
      >
    >
    <ITEM
      POSITION 8
      SNAPOFFS 0
      LENGTH 40
      LOOP 1
      ALLTAKES 0
      FADEIN 1 0 0 1 0 0
      FADEOUT 1 0 0 1 0 0
      MUTE 0
      SEL 0
      YPOS 0.266094 0.201717
      IGUID {4305C04C-DA8B-4D46-92F0-8C74CCD2E5F9}
      IID 9
      NAME "trumpet(s) - National_Anthems_-_Philippines.mid"
      VOLPAN 1 0 1 -1
      SOFFS 8 16
      PLAYRATE 1 1 0 -1 0 0.0025
      CHANMODE 0
      TAKECOLOR 26173599 B
      GUID {4088D3CA-BE49-5C4D-BB2B-D2335BC0E3C8}
      <SOURCE MIDI
        HASDATA 1 480 QN
        POOLEDEVTS {ED975806-69C3-744B-8164-27A83E3F1DDA}
        <X 0 0 0 0 3 trumpet(s)
          /wN0cnVtcGV0KHMp
        >
        <X 0 0 0 0 4 "Sound Canvas"
          /wRTb3VuZCBDYW52YXM=
        >
        e 0 90 43 7f
        e 400 80 43 1b 22
        e 80 90 42 7f 2
        e 240 80 42 0b -9
        e 80 90 45 7f 21
        e 160 80 45 26 -22
        e 0 90 43 7f 8
        e 480 80 43 37 -18
        e 0 90 3e 7f 27
        e 400 80 3e 36 -36
        e 80 90 45 7f 8
        e 160 80 45 36 18
        e 0 90 47 7f -8
        e 160 80 47 47 -33
        e 0 90 48 7f -27
        e 80 80 48 28 30
        e 80 90 47 7f
        e 240 80 47 2f -30
        e 80 90 45 7f 7
        e 80 80 45 1b 33
        e 80 90 47 7f
        e 480 80 47 29 24
        e 0 90 43 7f 16
        e 320 80 43 16 33
        e 160 90 43 7f 31
        e 480 80 43 1f
        e 0 90 42 7f 18
        e 240 80 42 1e 25
        e 80 90 45 7f 21
        e 160 80 45 28 -5
        e 0 90 43 7f
        e 480 80 43 39 1
        e 0 90 3e 7f 2
        e 400 80 3e 01 -5
        e 80 90 45 7f
        e 160 80 45 12 11
        e 0 90 47 7f -14
        e 160 80 47 41 -12
        e 0 90 48 7f -3
        e 160 80 48 31 11
        e 0 90 47 7f -1
        e 240 80 47 22 1
        e 80 90 45 7f -5
        e 160 80 45 30 -13
        e 0 90 43 7f -5
        e 640 80 43 3e 6
        e 320 90 43 7f -15
        e 400 80 43 1a 12
        e 80 90 42 7f -18
        e 160 80 42 25 37
        e 160 90 45 7f -15
        e 160 80 45 32 -31
        e 0 90 43 7f 1
        e 480 80 43 48 -9
        e 0 90 3e 7f -6
        e 320 80 3e 10 24
        e 160 90 45 7f -6
        e 160 80 45 32 21
        e 0 90 47 7f -8
        e 160 80 47 46 -26
        e 0 90 48 7f -23
        e 160 80 48 38 -13
        e 0 90 47 7f -12
        e 160 80 47 23 20
        e 160 90 45 7f -12
        e 160 80 45 07 -19
        e 0 90 47 7f -2
        e 480 80 47 41 -10
        e 0 90 43 7f -9
        e 320 80 43 39 -12
        e 160 90 43 7f -3
        e 400 80 43 13 14
        e 80 90 42 7f -3
        e 240 80 42 2c -4
        e 80 90 45 7f 14
        e 160 80 45 33 6
        e 0 90 43 7f 17
        e 480 80 43 48 3
        e 0 90 3e 7f 9
        e 320 80 3e 01 37
        e 160 90 45 7f -20
        e 160 80 45 11 -8
        e 0 90 47 7f -35
        e 80 80 47 42 35
        e 80 90 48 7f -36
        e 160 80 48 24 -12
        e 0 90 47 7f -21
        e 240 80 47 0d -12
        e 80 90 45 7f -19
        e 160 80 45 2b -32
        e 0 90 43 7f -7
        e 320 80 43 43 16
        e 160 90 43 7f -2
        e 160 80 43 3e 5
        e 0 90 42 7f -5
        e 160 80 42 2c -29
        e 0 90 43 7f -18
        e 160 80 43 3d -24
        e 0 90 45 7f 1
        e 240 80 45 34 -23
        e 80 90 45 7f -3
        e 160 80 45 36 -2
        e 0 90 3e 7f 9
        e 240 80 3e 24 -8
        e 80 90 3e 7f -4
        e 160 80 3e 29 -6
        e 0 90 45 7f 9
        e 240 80 45 2b -5
        e 80 90 45 7f 7
        e 160 80 45 3c 26
        e 0 90 3e 7f 14
        e 240 80 3e 0e -20
        e 80 90 3e 7f -2
        e 160 80 3e 16 -8
        e 0 90 47 7f 25
        e 240 80 47 2b 14
        e 80 90 48 7f -3
        e 160 80 48 3e -14
        e 0 90 4a 7f 10
        e 240 80 4a 34 -21
        e 80 90 4c 7f -19
        e 160 80 4c 34 -23
        e 0 90 4a 7f -5
        e 400 80 4a 41 -17
        e 80 90 43 7f -13
        e 160 80 43 46 -38
        e 0 90 42 7f -11
        e 160 80 42 41 -37
        e 0 90 43 7f -29
        e 160 80 43 40 -35
        e 0 90 45 7f -17
        e 160 80 45 2c -6
        e 160 90 45 7f -20
        e 160 80 45 3d 5
        e 0 90 3e 7f -5
        e 240 80 3e 34 -36
        e 80 90 3e 7f -17
        e 160 80 3e 1d -32
        e 0 90 45 7f 3
        e 160 80 45 2c 9
        e 160 90 45 7f -11
        e 160 80 45 3e 10
        e 0 90 3e 7f 21
        e 240 80 3e 32 -32
        e 80 90 3e 7f -7
        e 160 80 3e 2f -38
        e 0 90 47 7f 16
        e 160 80 47 3e -8
        e 0 90 48 7f -6
        e 160 80 48 41 -20
        e 0 90 47 7f -16
        e 80 80 47 39 8
        e 80 90 45 7f -15
        e 160 80 45 1a -5
        e 0 90 47 7f -21
        e 160 80 47 37 -36
        e 0 90 45 7f -31
        e 80 80 45 28 6
        e 80 90 43 7f -18
        e 400 80 43 3d -33
        e 80 90 43 7f 6
        e 160 80 43 3b 8
        e 0 90 42 7f 5
        e 160 80 42 40 -19
        e 0 90 43 7f -17
        e 160 80 43 3f -18
        e 0 90 45 7f -6
        e 160 80 45 2a 17
        e 160 90 45 7f -16
        e 160 80 45 2b 10
        e 0 90 3e 7f 7
        e 160 80 3e 22 17
        e 160 90 3e 7f -22
        e 160 80 3e 21 -3
        e 0 90 45 7f -5
        e 160 80 45 23 3
        e 160 90 45 7f -12
        e 160 80 45 3b 8
        e 0 90 3e 7f 14
        e 160 80 3e 19 24
        e 160 90 3e 7f -27
        e 160 80 3e 14 -26
        e 0 90 47 7f 2
        e 240 80 47 3c 38
        e 80 90 48 7f -12
        e 160 80 48 33 -38
        e 0 90 4a 7f 4
        e 240 80 4a 1b -6
        e 80 90 4c 7f -13
        e 80 80 4c 2f 28
        e 80 90 4a 7f
        e 400 80 4a 38 -28
        e 80 90 43 7f -11
        e 160 80 43 35 -5
        e 0 90 42 7f 3
        e 160 80 42 43 -29
        e 0 90 43 7f -30
        e 160 80 43 44 -38
        e 0 90 45 7f -18
        e 160 80 45 37 -7
        e 160 90 45 7f -16
        e 160 80 45 2d 14
        e 0 90 3e 7f -12
        e 160 80 3e 1e 13
        e 160 90 3e 7f -30
        e 160 80 3e 2b 1
        e 0 90 45 7f -17
        e 160 80 45 27 24
        e 160 90 45 7f -18
        e 160 80 45 3d -5
        e 0 90 3e 7f -16
        e 160 80 3e 2f -7
        e 160 90 3e 7f -39
        e 80 80 3e 1f 21
        e 80 90 47 7f -14
        e 160 80 47 41 -28
        e 0 90 48 7f -37
        e 160 80 48 3a -24
        e 0 90 47 7f -31
        e 80 80 47 35 21
        e 80 90 45 7f -23
        e 160 80 45 24 -23
        e 0 90 47 7f -25
        e 160 80 47 30 -31
        e 0 90 45 7f -35
        e 160 80 45 41 -36
        e 0 90 43 7f -25
        e 400 80 43 39 -20
        e 80 90 43 7f 10
        e 160 80 43 52 -26
        e 0 90 40 7f -24
        e 160 80 40 01 14
        e 0 90 43 7f -5
        e 160 80 43 45 -27
        e 0 90 48 7f 7
        e 400 80 48 26 -6
        e 80 90 48 7f -8
        e 400 80 48 1e 7
        e 80 90 4a 7f -2
        e 400 80 4a 43 14
        e 80 90 4a 7f -1
        e 240 80 4a 42 22
        e 80 90 4a 7f 23
        e 160 80 4a 43 -18
        e 0 90 4c 7f 10
        e 320 80 4c 2c -27
        e 0 90 4a 7f -19
        e 80 80 4a 25 35
        e 80 90 48 7f -16
        e 240 80 48 35 12
        e 80 90 4a 7f -38
        e 80 80 4a 2d 29
        e 80 90 4c 7f -24
        e 400 80 4c 1a 14
        e 80 90 4d 7f 2
        e 160 80 4d 42 11
        e 0 90 4c 7f -15
        e 160 80 4c 48 -18
        e 0 90 4a 7f -15
        e 80 80 4a 0f 39
        e 80 90 4c 7f 7
        e 480 80 4c 24 -9
        e 0 90 48 7f 17
        e 480 80 48 01 -15
        e 0 90 4a 7f
        e 480 80 4a 3d 9
        e 0 90 47 7f 3
        e 240 80 47 25 -29
        e 80 90 47 7f 14
        e 160 80 47 22 -28
        e 0 90 48 7f 5
        e 1280 80 48 42 26
        e 160 90 43 7f 13
        e 160 80 43 4f -17
        e 0 90 40 7f -17
        e 160 80 40 27 -14
        e 0 90 43 7f -19
        e 160 80 43 2f -28
        e 0 90 48 7f 1
        e 400 80 48 1d 5
        e 80 90 48 7f 1
        e 400 80 48 25 22
        e 80 90 4a 7f 8
        e 400 80 4a 39 22
        e 80 90 4a 7f 12
        e 160 80 4a 3e 29
        e 80 90 4a 7f 16
        e 160 80 4a 2e 39
        e 80 90 4c 7f 4
        e 240 80 4c 2b 19
        e 80 90 4a 7f 7
        e 160 80 4a 30 -20
        e 0 90 48 7f 6
        e 240 80 48 12 8
        e 80 90 4a 7f 3
        e 160 80 4a 31 -31
        e 0 90 4c 7f 1
        e 400 80 4c 28 9
        e 80 90 4d 7f 7
        e 160 80 4d 3a 6
        e 0 90 4c 7f -20
        e 80 80 4c 2b 37
        e 80 90 4a 7f -24
        e 160 80 4a 11 -25
        e 0 90 4c 7f 2
        e 480 80 4c 01 -20
        e 0 90 48 7f 23
        e 480 80 48 01 -16
        e 0 90 4a 7f 10
        e 480 80 4a 2f 15
        e 0 90 47 7f -9
        e 240 80 47 32 -31
        e 80 90 47 7f
        e 160 80 47 2e -31
        e 0 90 48 7f
        e 1280 80 48 56 23
        E 640 b0 7b 00
        GUID {04809200-AD6F-5542-B8E4-F2831C221F8C}
        IGNTEMPO 0 120 4 4
        SRCCOLOR 415
        VELLANE -1 86 6
        CFGEDITVIEW 0 0 49 11 0 0 0 0 0 0.5
        KEYSNAP 0
        TRACKSEL 226
        EVTFILTER 0 -1 -1 -1 -1 0 0 0 0 -1 -1 -1 -1 0 -1 0 -1 -1
        CFGEDIT 1 0 0 0 0 0 1 0 1 1 1 0.125 0 16 1280 470 0 0 2 3 0.25 0 0 0 0 -0.44 0 0 1 64
      >
      TAKE
      NAME "trumpet(s) - National_Anthems_-_Philippines.mid"
      TAKEVOLPAN 0 1 -1
      SOFFS 8 16
      PLAYRATE 1 1 0 -1 0 0.0025
      CHANMODE 0
      GUID {E1815C23-8979-2244-BA9B-69762B0D0DB0}
      <SOURCE MIDI
        HASDATA 1 480 QN
        POOLEDEVTS {3A31D020-AF6D-314B-B1ED-1E840B8EFF38}
        <X 0 0 0 0 3 trumpet(s)
          /wN0cnVtcGV0KHMp
        >
        <X 0 0 0 0 4 "Sound Canvas"
          /wRTb3VuZCBDYW52YXM=
        >
        e 0 90 43 6d
        e 422 80 43 1b
        e 60 90 42 66
        e 229 80 42 0b
        e 110 90 45 61
        e 117 80 45 26
        e 30 90 43 6b
        e 454 80 43 37
        e 45 90 3e 64
        e 337 80 3e 36
        e 124 90 45 66
        e 144 90 47 60
        e 26 80 45 36
        e 109 80 47 47
        e 6 90 48 5a
        e 137 80 48 28
        e 50 90 47 67
        e 210 80 47 2f
        e 117 90 45 56
        e 106 80 45 1b
        e 47 90 47 60
        e 496 90 43 67
        e 8 80 47 29
        e 329 80 43 16
        e 158 90 43 68
        e 449 80 43 1f
        e 18 90 42 61
        e 247 80 42 1e
        e 76 90 45 5e
        e 134 80 45 28
        e 5 90 43 69
        e 481 80 43 39
        e 1 90 3e 5c
        e 393 80 3e 01
        e 85 90 45 64
        e 146 90 47 5e
        e 25 80 45 12
        e 137 80 47 41
        e 9 90 48 58
        e 162 90 47 67
        e 12 80 48 31
        e 230 80 47 22
        e 74 90 45 55
        e 152 80 45 30
        e 8 90 43 65
        e 651 80 43 3e
        e 299 90 43 69
        e 427 80 43 1a
        e 50 90 42 66
        e 215 80 42 25
        e 108 90 45 53
        e 144 80 45 32
        e 32 90 43 6c
        e 470 80 43 48
        e 3 90 3e 5e
        e 350 80 3e 10
        e 130 90 45 63
        e 158 90 47 5d
        e 29 80 45 32
        e 113 80 47 46
        e 3 90 48 52
        e 170 80 48 38
        e 1 90 47 63
        e 192 80 47 23
        e 128 90 45 5f
        e 153 80 45 07
        e 17 90 47 5f
        e 472 80 47 41
        e 1 90 43 62
        e 317 80 43 39
        e 169 90 43 68
        e 417 80 43 13
        e 63 90 42 62
        e 239 80 42 2c
        e 98 90 45 61
        e 152 80 45 33
        e 11 90 43 68
        e 466 80 43 48
        e 6 90 3e 59
        e 348 80 3e 01
        e 103 90 45 64
        e 145 90 47 5d
        e 27 80 45 11
        e 123 80 47 42
        e 9 90 48 52
        e 175 90 47 66
        e 9 80 48 24
        e 240 80 47 0d
        e 73 90 45 5f
        e 147 80 45 2b
        e 25 90 43 60
        e 343 80 43 43
        e 142 90 43 6a
        e 157 90 42 5e
        e 10 80 43 3e
        e 126 80 42 2c
        e 11 90 43 62
        e 154 80 43 3d
        e 25 90 45 63
        e 216 80 45 34
        e 100 90 45 60
        e 161 80 45 36
        e 11 90 3e 5d
        e 223 80 3e 24
        e 84 90 3e 58
        e 158 80 3e 29
        e 15 90 45 66
        e 226 80 45 2b
        e 92 90 45 60
        e 167 90 3e 60
        e 12 80 45 3c
        e 194 80 3e 0e
        e 98 90 3e 5b
        e 154 80 3e 16
        e 33 90 47 62
        e 229 80 47 2b
        e 63 90 48 5e
        e 149 80 48 3e
        e 24 90 4a 64
        e 209 80 4a 34
        e 82 90 4c 5d
        e 156 80 4c 34
        e 18 90 4a 60
        e 388 80 4a 41
        e 84 90 43 69
        e 135 80 43 46
        e 27 90 42 55
        e 134 80 42 41
        e 8 90 43 62
        e 154 80 43 40
        e 18 90 45 65
        e 171 80 45 2c
        e 146 90 45 5b
        e 175 90 3e 59
        e 10 80 45 3d
        e 199 80 3e 34
        e 99 90 3e 54
        e 145 80 3e 1d
        e 35 90 45 67
        e 166 80 45 2c
        e 140 90 45 5f
        e 181 80 45 3e
        e 11 90 3e 60
        e 187 80 3e 32
        e 105 90 3e 4f
        e 129 80 3e 2f
        e 54 90 47 64
        e 136 80 47 3e
        e 2 90 48 53
        e 146 80 48 41
        e 4 90 47 5c
        e 104 80 47 39
        e 57 90 45 64
        e 154 90 47 5e
        e 16 80 45 1a
        e 129 80 47 37
        e 5 90 45 5d
        e 117 80 45 28
        e 56 90 43 62
        e 385 80 43 3d
        e 119 90 43 6c
        e 159 90 42 5b
        e 3 80 43 3b
        e 133 80 42 40
        e 2 90 43 69
        e 159 80 43 3f
        e 12 90 45 63
        e 183 80 45 2a
        e 127 90 45 62
        e 183 90 3e 5e
        e 3 80 45 2b
        e 167 80 3e 22
        e 121 90 3e 58
        e 177 90 45 69
        e 2 80 3e 21
        e 166 80 45 23
        e 145 90 45 61
        e 180 80 45 3b
        e 6 90 3e 5c
        e 170 80 3e 19
        e 109 90 3e 57
        e 161 80 3e 14
        e 28 90 47 63
        e 276 80 47 3c
        e 30 90 48 5e
        e 134 80 48 33
        e 42 90 4a 65
        e 230 80 4a 1b
        e 73 90 4c 60
        e 121 80 4c 2f
        e 52 90 4a 63
        e 372 80 4a 38
        e 97 90 43 66
        e 166 80 43 35
        e 8 90 42 56
        e 127 90 43 63
        e 1 80 42 43
        e 151 80 43 44
        e 20 90 45 62
        e 171 80 45 37
        e 151 90 45 5f
        e 164 90 3e 61
        e 26 80 45 2d
        e 159 80 3e 1e
        e 117 90 3e 56
        e 173 90 45 69
        e 18 80 3e 2b
        e 183 80 45 27
        e 118 90 45 62
        e 162 90 3e 63
        e 11 80 45 3d
        e 158 80 3e 2f
        e 128 90 3e 53
        e 140 80 3e 1f
        e 45 90 47 62
        e 137 90 48 52
        e 9 80 47 41
        e 157 90 47 5f
        e 7 80 48 3a
        e 125 80 47 35
        e 36 90 45 63
        e 158 90 47 61
        e 2 80 45 24
        e 148 90 45 5e
        e 4 80 47 30
        e 155 80 45 41
        e 11 90 43 67
        e 405 80 43 39
        e 110 90 43 6b
        e 124 80 43 52
        e 2 90 40 5f
        e 179 90 43 67
        e 19 80 40 01
        e 119 80 43 45
        e 34 90 48 65
        e 387 80 48 26
        e 78 90 48 62
        e 415 80 48 1e
        e 71 90 4a 64
        e 416 80 4a 43
        e 65 90 4a 66
        e 263 80 4a 42
        e 81 90 4a 55
        e 119 80 4a 43
        e 28 90 4c 65
        e 283 80 4c 2c
        e 8 90 4a 57
        e 134 80 4a 25
        e 29 90 48 5e
        e 268 80 48 35
        e 30 90 4a 53
        e 147 80 4a 2d
        e 27 90 4c 62
        e 438 80 4c 1a
        e 68 90 4d 61
        e 143 90 4c 5e
        e 26 80 4d 42
        e 131 80 4c 48
        e 3 90 4a 57
        e 134 80 4a 0f
        e 48 90 4c 67
        e 464 80 4c 24
        e 26 90 48 5e
        e 448 80 48 01
        e 15 90 4a 5f
        e 483 90 47 64
        e 6 80 4a 3d
        e 202 80 47 25
        e 123 90 47 61
        e 118 80 47 22
        e 33 90 48 62
        e 1301 80 48 42
        e 147 90 43 6e
        e 130 80 43 4f
        e 0 90 40 53
        e 158 90 43 68
        e 5 80 40 27
        e 146 80 43 2f
        e 29 90 48 63
        e 404 80 48 1d
        e 76 90 48 62
        e 421 80 48 25
        e 66 90 4a 61
        e 414 80 4a 39
        e 70 90 4a 5f
        e 177 80 4a 3e
        e 67 90 4a 5e
        e 183 80 4a 2e
        e 45 90 4c 63
        e 255 80 4c 2b
        e 68 90 4a 5b
        e 133 80 4a 30
        e 26 90 48 61
        e 242 80 48 12
        e 75 90 4a 5f
        e 126 80 4a 31
        e 32 90 4c 60
        e 408 80 4c 28
        e 78 90 4d 60
        e 133 90 4c 5c
        e 26 80 4d 3a
        e 111 80 4c 2b
        e 19 90 4a 61
        e 159 80 4a 11
        e 27 90 4c 61
        e 458 80 4c 01
        e 43 90 48 63
        e 441 80 48 01
        e 26 90 4a 5e
        e 461 90 47 5f
        e 24 80 4a 2f
        e 194 80 47 32
        e 111 90 47 56
        e 129 80 47 2e
        e 31 90 48 64
        e 1303 80 48 56
        E 617 b0 7b 00
        GUID {E8C1BAF7-D234-3744-8938-AFF2BA6820C6}
        IGNTEMPO 0 120 4 4
        SRCCOLOR 416
        VELLANE -1 86 6
        CFGEDITVIEW 0 0 49 11 0 0 0 0 0 0.5
        KEYSNAP 0
        TRACKSEL 226
        EVTFILTER 0 -1 -1 -1 -1 0 0 0 0 -1 -1 -1 -1 0 -1 0 -1 -1
        CFGEDIT 1 0 0 0 0 0 1 0 1 1 1 0.125 0 16 1280 470 0 0 2 3 0.25 0 0 0 0 -0.44 0 0 1 64
      >
    >
    <ITEM
      POSITION 8
      SNAPOFFS 0
      LENGTH 40
      LOOP 1
      ALLTAKES 0
      FADEIN 1 0 0 1 0 0
      FADEOUT 1 0 0 1 0 0
      MUTE 0
      SEL 0
      YPOS 0.532189 0.201717
      IGUID {8E65DC5E-EEAF-3446-A109-9F6E7806FF28}
      IID 10
      NAME "trombone(s) - National_Anthems_-_Philippines.mid"
      VOLPAN 1 0 1 -1
      SOFFS 8 16
      PLAYRATE 1 1 0 -1 0 0.0025
      CHANMODE 0
      TAKECOLOR 26173599 B
      GUID {0689AF99-8F0B-1347-B240-38BE4318B366}
      <SOURCE MIDI
        HASDATA 1 480 QN
        POOLEDEVTS {182F56ED-AA55-DC48-A496-F0B3331B9B79}
        <X 0 0 0 0 3 trombone(s)
          /wN0cm9tYm9uZShzKQ==
        >
        <X 0 0 0 0 4 "Sound Canvas"
          /wRTb3VuZCBDYW52YXM=
        >
        e 0 92 37 7f
        e 240 82 37 01 37
        e 240 92 32 7f -4
        e 360 82 32 01 -34
        e 120 92 37 7f -6
        e 360 82 37 01 -49
        e 120 92 2b 7f -29
        e 360 82 2b 33 -59
        e 120 92 36 7f -2
        e 240 82 36 13 49
        e 240 92 32 7f -12
        e 240 82 32 40 37
        e 240 92 37 7f -4
        e 360 82 37 01 -37
        e 120 92 2b 7f -14
        e 360 82 2b 26 -44
        e 120 92 37 7f -5
        e 360 82 37 01 -41
        e 120 92 32 7f 6
        e 240 82 32 21 48
        e 240 92 37 7f 1
        e 360 82 37 01 1
        e 120 92 2b 7f -14
        e 240 82 2b 3b 9
        e 240 92 30 7f -1
        e 360 82 30 24 -52
        e 120 92 32 7f -14
        e 240 82 32 16 46
        e 240 92 37 7f -11
        e 360 82 37 01 -54
        e 120 92 2b 7f -15
        e 360 82 2b 27 -54
        e 120 92 37 7f -5
        e 360 82 37 01 -49
        e 120 92 32 7f -30
        e 240 82 32 31 23
        e 240 92 37 7f -11
        e 240 82 37 08 45
        e 240 92 2b 7f -18
        e 240 82 2b 36 47
        e 240 92 36 7f -15
        e 240 82 36 01 23
        e 240 92 32 7f -33
        e 240 82 32 13 27
        e 240 92 37 7f -4
        e 360 82 37 18 -40
        e 120 92 2b 7f -5
        e 240 82 2b 35 47
        e 240 92 37 7f 11
        e 240 82 37 01 45
        e 240 92 32 7f 17
        e 240 82 32 20 58
        e 240 92 37 7f 10
        e 360 82 37 01 -51
        e 120 92 2b 7f 9
        e 240 82 2b 43 52
        e 240 92 30 7f 16
        e 360 82 30 01 -54
        e 120 92 32 7f -14
        e 240 82 32 1f 37
        e 240 92 37 7f -28
        e 360 82 37 01 -14
        e 120 92 2b 7f -1
        e 360 82 2b 08 19
        e 120 92 32 7f -8
        e 360 82 32 01 -31
        e 120 92 32 7f 12
        e 0 92 36 7f -1
        e 240 82 32 3c 4
        e 120 82 36 01 -57
        e 600 92 36 7f 16
        e 360 82 36 4f -54
        e 600 92 3b 7f 6
        e 0 92 3e 7f
        e 120 82 3b 42 45
        e 0 82 3e 22 36
        e 240 92 3c 7f -53
        e 0 92 40 7f -58
        e 120 82 3c 37 -71
        e 0 82 40 3d -77
        e 0 92 3b 7f 6
        e 0 92 3e 7f 3
        e 480 82 3b 51 -5
        e 0 82 3e 49 14
        e 960 92 32 7f -9
        e 0 92 36 7f -19
        e 240 82 36 3c 57
        e 120 82 32 44 -50
        e 600 92 32 7f 20
        e 0 92 36 7f 11
        e 240 82 32 36 54
        e 0 82 36 2f 55
        e 240 92 32 7f -6
        e 240 82 32 05 14
        e 240 92 32 7f -11
        e 240 82 32 39 32
        e 240 92 2b 7f -28
        e 360 82 2b 03 -47
        e 120 92 2b 7f -2
        e 240 82 2b 26 -1
        e 240 92 32 7f -8
        e 240 82 32 3d 41
        e 240 92 32 7f -2
        e 0 92 36 7f -6
        e 240 82 32 1b -42
        e 0 82 36 17 -3
        e 720 92 32 7f 1
        e 0 92 36 7f -3
        e 240 82 32 3f 21
        e 0 82 36 48 23
        e 720 92 37 7f 18
        e 0 92 3b 7f 12
        e 0 92 3e 7f 17
        e 120 82 3b 43 40
        e 0 82 3e 30 35
        e 120 82 37 01 -52
        e 120 92 3c 7f -46
        e 0 92 40 7f -43
        e 120 82 3c 3a -41
        e 0 82 40 2e -75
        e 0 92 3b 7f -11
        e 0 92 3e 7f -11
        e 480 82 3b 49 -56
        e 0 82 3e 38 -42
        e 960 92 32 7f -11
        e 0 92 36 7f -15
        e 240 82 32 30 -8
        e 0 82 36 25 -23
        e 720 92 32 7f -21
        e 0 92 36 7f -27
        e 240 82 32 24 -51
        e 0 82 36 33 -55
        e 240 92 32 7f -20
        e 240 82 32 26 -10
        e 240 92 32 7f -31
        e 240 82 32 01 25
        e 240 92 2b 7f -20
        e 240 82 2b 47 24
        e 240 92 37 7f -10
        e 120 82 37 33 44
        e 0 92 34 7f 32
        e 120 82 34 47 58
        e 120 92 37 7f -55
        e 120 82 37 41 -105
        e 0 92 3c 7f 21
        e 360 82 3c 12 13
        e 120 92 34 7f 37
        e 360 82 34 01 53
        e 120 92 37 7f 3
        e 360 82 37 01 12
        e 120 92 3b 7f -19
        e 360 82 3b 2b -11
        e 120 92 3c 7f
        e 240 82 3c 0a -47
        e 120 92 37 7f -46
        e 120 82 37 46 -3
        e 0 92 3c 7f -7
        e 240 82 3c 01 -46
        e 120 92 3e 7f -58
        e 120 82 3e 1c -51
        e 0 92 40 7f -28
        e 360 82 40 26 -32
        e 120 92 3e 7f -5
        e 120 82 3e 1f 25
        e 0 92 3c 7f 24
        e 120 82 3c 45 48
        e 0 92 3e 7f 58
        e 240 82 3e 27 -41
        e 0 92 3c 7f -17
        e 360 82 3c 03 -24
        e 120 92 37 7f -3
        e 360 82 37 02 53
        e 120 92 2b 7f -9
        e 360 82 2b 10 16
        e 120 92 37 7f -30
        e 120 82 37 20 5
        e 240 92 37 7f -48
        e 120 82 37 1d 10
        e 0 92 30 7f -7
        e 360 82 30 2f 9
        e 120 92 37 7f -16
        e 120 82 37 20 23
        e 0 92 34 7f 11
        e 120 82 34 33 43
        e 0 92 37 7f 37
        e 240 82 37 23 -11
        e 0 92 30 7f -13
        e 360 82 30 20 -43
        e 120 92 37 7f -15
        e 120 82 37 1d 31
        e 0 92 34 7f 16
        e 120 82 34 39 23
        e 0 92 37 7f 48
        e 120 82 37 0d 51
        e 120 92 3c 7f -10
        e 360 82 3c 01 -37
        e 120 92 34 7f
        e 240 82 34 34 16
        e 240 92 37 7f -13
        e 360 82 37 07 1
        e 120 92 3b 7f -16
        e 360 82 3b 16 1
        e 120 92 3c 7f -9
        e 240 82 3c 2d -26
        e 120 92 3e 7f -43
        e 120 82 3e 22 -26
        e 0 92 3c 7f -19
        e 240 82 3c 2a -33
        e 120 92 3e 7f -48
        e 120 82 3e 13 -33
        e 0 92 40 7f -12
        e 360 82 40 2f 8
        e 120 92 3e 7f 6
        e 120 82 3e 23 42
        e 0 92 3c 7f 29
        e 120 82 3c 45 53
        e 0 92 3e 7f 57
        e 240 82 3e 30 -36
        e 0 92 3c 7f -5
        e 360 82 3c 07 -3
        e 120 92 37 7f -7
        e 360 82 37 21 11
        e 120 92 37 7f 23
        e 360 82 37 01 26
        e 120 92 2b 7f -13
        e 360 82 2b 01 -39
        e 120 92 30 7f -9
        e 360 82 30 01 -4
        e 120 92 37 7f -6
        e 120 82 37 1f 5
        e 0 92 34 7f 16
        e 120 92 37 7f 59
        e 120 82 34 43 -60
        e 120 82 37 09 -43
        e 0 92 30 7f -19
        e 480 82 30 5d -15
        E 480 b0 7b 00
        GUID {711F98F6-1628-AA44-B907-FBCC1F52D157}
        IGNTEMPO 0 120 4 4
        SRCCOLOR 417
        VELLANE -1 86 6
        CFGEDITVIEW 0 0 62 8 0 0 0 0 0 0.5
        KEYSNAP 0
        TRACKSEL 226
        EVTFILTER 0 -1 -1 -1 -1 0 0 0 0 -1 -1 -1 -1 0 -1 0 -1 -1
        CFGEDIT 1 0 0 0 0 0 1 0 1 1 1 0.125 16 32 1280 470 0 0 2 3 0.25 0 0 0 0 -0.44 0 0 1 64
      >
      TAKE
      NAME "trombone(s) - National_Anthems_-_Philippines.mid"
      TAKEVOLPAN 0 1 -1
      SOFFS 8 16
      PLAYRATE 1 1 0 -1 0 0.0025
      CHANMODE 0
      GUID {5E7AD7AF-F79A-BE4A-8A71-FC9BD0EE81AD}
      <SOURCE MIDI
        HASDATA 1 480 QN
        POOLEDEVTS {0DB5029E-0FF0-6E47-BBA7-49D05538A1D2}
        <X 0 0 0 0 3 trombone(s)
          /wN0cm9tYm9uZShzKQ==
        >
        <X 0 0 0 0 4 "Sound Canvas"
          /wRTb3VuZCBDYW52YXM=
        >
        E 0 92 37 52
        E 277 82 37 01
        E 199 92 32 59
        E 330 82 32 01
        E 148 92 37 54
        E 317 82 37 01
        E 140 92 2b 5c
        E 330 82 2b 33
        E 177 92 36 5f
        E 291 82 36 13
        E 179 92 32 59
        E 289 82 32 40
        E 199 92 37 51
        E 327 82 37 01
        E 143 92 2b 53
        E 330 82 2b 26
        E 159 92 37 52
        E 324 82 37 01
        E 167 92 32 50
        E 282 82 32 21
        E 193 92 37 4f
        E 360 82 37 01
        E 105 92 2b 60
        E 263 82 2b 3b
        E 230 92 30 57
        E 309 82 30 24
        E 158 92 32 59
        E 300 82 32 16
        E 183 92 37 59
        E 317 82 37 01
        E 159 92 2b 62
        E 321 82 2b 27
        E 169 92 37 59
        E 316 82 37 01
        E 139 92 32 56
        E 293 82 32 31
        E 206 92 37 59
        E 296 82 37 08
        E 177 92 2b 5f
        E 305 82 2b 36
        E 178 92 36 5d
        E 278 82 36 01
        E 184 92 32 5b
        E 300 82 32 13
        E 209 92 37 52
        E 324 82 37 18
        E 155 92 2b 5f
        E 292 82 2b 35
        E 204 92 37 57
        E 274 82 37 01
        E 212 92 32 53
        E 281 82 32 20
        E 192 92 37 53
        E 299 82 37 01
        E 180 92 2b 54
        E 283 82 2b 43
        E 204 92 30 58
        E 290 82 30 01
        E 160 92 32 5a
        E 291 82 32 1f
        E 175 92 37 4f
        E 374 82 37 01
        E 133 92 2b 53
        E 380 82 2b 08
        E 93 92 32 51
        E 337 82 32 01
        E 150 92 36 4a
        E 13 92 32 45
        E 232 82 32 3c
        E 59 82 36 01
        E 673 92 36 4c
        E 290 82 36 4f
        E 654 92 3e 53
        E 6 92 3b 51
        E 150 82 3e 22
        E 9 82 3b 42
        E 137 92 40 4c
        E 5 92 3c 58
        E 96 82 40 3d
        E 6 82 3c 37
        E 74 92 3e 48
        E 3 92 3b 44
        E 469 82 3b 51
        E 19 82 3e 49
        E 927 92 36 49
        E 10 92 32 41
        E 306 82 36 3c
        E 13 82 32 44
        E 661 92 36 4f
        E 9 92 32 3e
        E 274 82 32 36
        E 1 82 36 2f
        E 179 92 32 4a
        E 260 82 32 05
        E 215 92 32 51
        E 283 82 32 39
        E 180 92 2b 56
        E 341 82 2b 03
        E 165 92 2b 4b
        E 241 82 2b 26
        E 233 92 32 47
        E 289 82 32 3d
        E 193 92 36 4a
        E 4 92 32 4d
        E 200 82 32 1b
        E 39 82 36 17
        E 720 92 36 48
        E 4 92 32 43
        E 260 82 32 3f
        E 2 82 36 48
        E 709 92 3b 4c
        E 5 92 3e 25
        E 1 92 37 41
        E 137 82 3e 30
        E 5 82 3b 43
        E 28 82 37 01
        E 126 92 3c 4b
        E 3 92 40 27
        E 88 82 40 2e
        E 34 82 3c 3a
        E 30 92 3e 50
        E 0 92 3b 50
        E 435 82 3b 49
        E 14 82 3e 38
        E 987 92 36 44
        E 4 92 32 53
        E 228 82 36 25
        E 15 82 32 30
        E 701 92 36 3e
        E 6 92 32 51
        E 206 82 36 33
        E 4 82 32 24
        E 271 92 32 55
        E 250 82 32 26
        E 219 92 32 57
        E 296 82 32 01
        E 195 92 2b 57
        E 284 82 2b 47
        E 206 92 37 5d
        E 162 92 34 5f
        E 12 82 37 33
        E 134 82 34 47
        E 7 92 37 54
        E 70 82 37 41
        E 126 92 3c 5f
        E 352 82 3c 12
        E 144 92 34 64
        E 376 82 34 01
        E 70 92 37 57
        E 369 82 37 01
        E 89 92 3b 53
        E 368 82 3b 2b
        E 131 92 3c 64
        E 193 82 3c 0a
        E 121 92 37 55
        E 159 92 3c 61
        E 4 82 37 46
        E 197 82 3c 01
        E 108 92 3e 5a
        E 127 82 3e 1c
        E 23 92 40 5b
        E 356 82 40 26
        E 147 92 3e 5f
        E 149 92 3c 53
        E 1 82 3e 1f
        E 143 82 3c 45
        E 10 92 3e 5c
        E 141 82 3e 27
        E 24 92 3c 5c
        E 353 82 3c 03
        E 141 92 37 57
        E 416 82 37 02
        E 58 92 2b 5e
        E 385 82 2b 10
        E 74 92 37 5b
        E 155 82 37 20
        E 187 92 37 4e
        E 161 92 30 53
        E 17 82 37 1d
        E 359 82 30 2f
        E 95 92 37 56
        E 147 92 34 59
        E 12 82 37 20
        E 134 92 37 51
        E 6 82 34 33
        E 184 92 30 52
        E 2 82 37 23
        E 328 82 30 20
        E 148 92 37 5c
        E 151 92 34 57
        E 15 82 37 1d
        E 112 82 34 39
        E 25 92 37 50
        E 123 82 37 0d
        E 59 92 3c 51
        E 333 82 3c 01
        E 157 92 34 65
        E 256 82 34 34
        E 211 92 37 58
        E 374 82 37 07
        E 103 92 3b 5c
        E 377 82 3b 16
        E 110 92 3c 5a
        E 223 82 3c 2d
        E 103 92 3e 5a
        E 137 82 3e 22
        E 7 92 3c 5b
        E 226 82 3c 2a
        E 105 92 3e 5b
        E 135 82 3e 13
        E 21 92 40 58
        E 380 82 40 2f
        E 118 92 3e 57
        E 143 92 3c 57
        E 13 82 3e 23
        E 131 82 3c 45
        E 4 92 3e 58
        E 147 82 3e 30
        E 31 92 3c 5c
        E 362 82 3c 07
        E 116 92 37 59
        E 378 82 37 21
        E 132 92 37 54
        E 363 82 37 01
        E 81 92 2b 60
        E 334 82 2b 01
        E 150 92 30 57
        E 365 82 30 01
        E 118 92 37 5d
        E 131 82 37 1f
        E 11 92 34 60
        E 163 92 37 51
        E 1 82 34 43
        E 137 82 37 09
        E 24 92 30 5d
        E 484 82 30 5d
        E 495 b0 7b 00
        GUID {350A86BF-AB91-4348-A7C7-5178FB1402C0}
        IGNTEMPO 0 120 4 4
        SRCCOLOR 418
      >
    >
    <ITEM
      POSITION 48
      SNAPOFFS 0
      LENGTH 16.5
      LOOP 1
      ALLTAKES 0
      FADEIN 1 0 0 1 0 0
      FADEOUT 1 0 0 1 0 0
      MUTE 0
      SEL 0
      YPOS 0.266094 0.201717
      IGUID {A8FD4A13-6ED7-EB46-B1AF-D8C8DCDD25F5}
      IID 16
      NAME "trumpet(s) - National_Anthems_-_Philippines.mid"
      VOLPAN 1 0 1 -1
      SOFFS 48 96
      PLAYRATE 1 1 0 -1 0 0.0025
      CHANMODE 0
      TAKECOLOR 26173599 B
      GUID {F1DF99D1-249B-704A-9FAF-6211D42DFE98}
      <SOURCE MIDI
        HASDATA 1 480 QN
        POOLEDEVTS {6710E893-4C23-E84F-B9D3-EDF9384E5238}
        <X 0 0 0 0 3 trumpet(s)
          /wN0cnVtcGV0KHMp
        >
        <X 0 0 0 0 4 "Sound Canvas"
          /wRTb3VuZCBDYW52YXM=
        >
        e 0 90 43 7f
        e 400 80 43 1b 22
        e 80 90 42 7f 2
        e 240 80 42 0b -9
        e 80 90 45 7f 21
        e 160 80 45 26 -22
        e 0 90 43 7f 8
        e 480 80 43 37 -18
        e 0 90 3e 7f 27
        e 400 80 3e 36 -36
        e 80 90 45 7f 8
        e 160 80 45 36 18
        e 0 90 47 7f -8
        e 160 80 47 47 -33
        e 0 90 48 7f -27
        e 80 80 48 28 30
        e 80 90 47 7f
        e 240 80 47 2f -30
        e 80 90 45 7f 7
        e 80 80 45 1b 33
        e 80 90 47 7f
        e 480 80 47 29 24
        e 0 90 43 7f 16
        e 320 80 43 16 33
        e 160 90 43 7f 31
        e 480 80 43 1f
        e 0 90 42 7f 18
        e 240 80 42 1e 25
        e 80 90 45 7f 21
        e 160 80 45 28 -5
        e 0 90 43 7f
        e 480 80 43 39 1
        e 0 90 3e 7f 2
        e 400 80 3e 01 -5
        e 80 90 45 7f
        e 160 80 45 12 11
        e 0 90 47 7f -14
        e 160 80 47 41 -12
        e 0 90 48 7f -3
        e 160 80 48 31 11
        e 0 90 47 7f -1
        e 240 80 47 22 1
        e 80 90 45 7f -5
        e 160 80 45 30 -13
        e 0 90 43 7f -5
        e 640 80 43 3e 6
        e 320 90 43 7f -15
        e 400 80 43 1a 12
        e 80 90 42 7f -18
        e 160 80 42 25 37
        e 160 90 45 7f -15
        e 160 80 45 32 -31
        e 0 90 43 7f 1
        e 480 80 43 48 -9
        e 0 90 3e 7f -6
        e 320 80 3e 10 24
        e 160 90 45 7f -6
        e 160 80 45 32 21
        e 0 90 47 7f -8
        e 160 80 47 46 -26
        e 0 90 48 7f -23
        e 160 80 48 38 -13
        e 0 90 47 7f -12
        e 160 80 47 23 20
        e 160 90 45 7f -12
        e 160 80 45 07 -19
        e 0 90 47 7f -2
        e 480 80 47 41 -10
        e 0 90 43 7f -9
        e 320 80 43 39 -12
        e 160 90 43 7f -3
        e 400 80 43 13 14
        e 80 90 42 7f -3
        e 240 80 42 2c -4
        e 80 90 45 7f 14
        e 160 80 45 33 6
        e 0 90 43 7f 17
        e 480 80 43 48 3
        e 0 90 3e 7f 9
        e 320 80 3e 01 37
        e 160 90 45 7f -20
        e 160 80 45 11 -8
        e 0 90 47 7f -35
        e 80 80 47 42 35
        e 80 90 48 7f -36
        e 160 80 48 24 -12
        e 0 90 47 7f -21
        e 240 80 47 0d -12
        e 80 90 45 7f -19
        e 160 80 45 2b -32
        e 0 90 43 7f -7
        e 320 80 43 43 16
        e 160 90 43 7f -2
        e 160 80 43 3e 5
        e 0 90 42 7f -5
        e 160 80 42 2c -29
        e 0 90 43 7f -18
        e 160 80 43 3d -24
        e 0 90 45 7f 1
        e 240 80 45 34 -23
        e 80 90 45 7f -3
        e 160 80 45 36 -2
        e 0 90 3e 7f 9
        e 240 80 3e 24 -8
        e 80 90 3e 7f -4
        e 160 80 3e 29 -6
        e 0 90 45 7f 9
        e 240 80 45 2b -5
        e 80 90 45 7f 7
        e 160 80 45 3c 26
        e 0 90 3e 7f 14
        e 240 80 3e 0e -20
        e 80 90 3e 7f -2
        e 160 80 3e 16 -8
        e 0 90 47 7f 25
        e 240 80 47 2b 14
        e 80 90 48 7f -3
        e 160 80 48 3e -14
        e 0 90 4a 7f 10
        e 240 80 4a 34 -21
        e 80 90 4c 7f -19
        e 160 80 4c 34 -23
        e 0 90 4a 7f -5
        e 400 80 4a 41 -17
        e 80 90 43 7f -13
        e 160 80 43 46 -38
        e 0 90 42 7f -11
        e 160 80 42 41 -37
        e 0 90 43 7f -29
        e 160 80 43 40 -35
        e 0 90 45 7f -17
        e 160 80 45 2c -6
        e 160 90 45 7f -20
        e 160 80 45 3d 5
        e 0 90 3e 7f -5
        e 240 80 3e 34 -36
        e 80 90 3e 7f -17
        e 160 80 3e 1d -32
        e 0 90 45 7f 3
        e 160 80 45 2c 9
        e 160 90 45 7f -11
        e 160 80 45 3e 10
        e 0 90 3e 7f 21
        e 240 80 3e 32 -32
        e 80 90 3e 7f -7
        e 160 80 3e 2f -38
        e 0 90 47 7f 16
        e 160 80 47 3e -8
        e 0 90 48 7f -6
        e 160 80 48 41 -20
        e 0 90 47 7f -16
        e 80 80 47 39 8
        e 80 90 45 7f -15
        e 160 80 45 1a -5
        e 0 90 47 7f -21
        e 160 80 47 37 -36
        e 0 90 45 7f -31
        e 80 80 45 28 6
        e 80 90 43 7f -18
        e 400 80 43 3d -33
        e 80 90 43 7f 6
        e 160 80 43 3b 8
        e 0 90 42 7f 5
        e 160 80 42 40 -19
        e 0 90 43 7f -17
        e 160 80 43 3f -18
        e 0 90 45 7f -6
        e 160 80 45 2a 17
        e 160 90 45 7f -16
        e 160 80 45 2b 10
        e 0 90 3e 7f 7
        e 160 80 3e 22 17
        e 160 90 3e 7f -22
        e 160 80 3e 21 -3
        e 0 90 45 7f -5
        e 160 80 45 23 3
        e 160 90 45 7f -12
        e 160 80 45 3b 8
        e 0 90 3e 7f 14
        e 160 80 3e 19 24
        e 160 90 3e 7f -27
        e 160 80 3e 14 -26
        e 0 90 47 7f 2
        e 240 80 47 3c 38
        e 80 90 48 7f -12
        e 160 80 48 33 -38
        e 0 90 4a 7f 4
        e 240 80 4a 1b -6
        e 80 90 4c 7f -13
        e 80 80 4c 2f 28
        e 80 90 4a 7f
        e 400 80 4a 38 -28
        e 80 90 43 7f -11
        e 160 80 43 35 -5
        e 0 90 42 7f 3
        e 160 80 42 43 -29
        e 0 90 43 7f -30
        e 160 80 43 44 -38
        e 0 90 45 7f -18
        e 160 80 45 37 -7
        e 160 90 45 7f -16
        e 160 80 45 2d 14
        e 0 90 3e 7f -12
        e 160 80 3e 1e 13
        e 160 90 3e 7f -30
        e 160 80 3e 2b 1
        e 0 90 45 7f -17
        e 160 80 45 27 24
        e 160 90 45 7f -18
        e 160 80 45 3d -5
        e 0 90 3e 7f -16
        e 160 80 3e 2f -7
        e 160 90 3e 7f -39
        e 80 80 3e 1f 21
        e 80 90 47 7f -14
        e 160 80 47 41 -28
        e 0 90 48 7f -37
        e 160 80 48 3a -24
        e 0 90 47 7f -31
        e 80 80 47 35 21
        e 80 90 45 7f -23
        e 160 80 45 24 -23
        e 0 90 47 7f -25
        e 160 80 47 30 -31
        e 0 90 45 7f -35
        e 160 80 45 41 -36
        e 0 90 43 7f -25
        e 400 80 43 39 -20
        e 80 90 43 7f 10
        e 160 80 43 52 -26
        e 0 90 40 7f -24
        e 160 80 40 01 14
        e 0 90 43 7f -5
        e 160 80 43 45 -27
        e 0 90 48 7f 7
        e 400 80 48 26 -6
        e 80 90 48 7f -8
        e 400 80 48 1e 7
        e 80 90 4a 7f -2
        e 400 80 4a 43 14
        e 80 90 4a 7f -1
        e 240 80 4a 42 22
        e 80 90 4a 7f 23
        e 160 80 4a 43 -18
        e 0 90 4c 7f 10
        e 320 80 4c 2c -27
        e 0 90 4a 7f -19
        e 80 80 4a 25 35
        e 80 90 48 7f -16
        e 240 80 48 35 12
        e 80 90 4a 7f -38
        e 80 80 4a 2d 29
        e 80 90 4c 7f -24
        e 400 80 4c 1a 14
        e 80 90 4d 7f 2
        e 160 80 4d 42 11
        e 0 90 4c 7f -15
        e 160 80 4c 48 -18
        e 0 90 4a 7f -15
        e 80 80 4a 0f 39
        e 80 90 4c 7f 7
        e 480 80 4c 24 -9
        e 0 90 48 7f 17
        e 480 80 48 01 -15
        e 0 90 4a 7f
        e 480 80 4a 3d 9
        e 0 90 47 7f 3
        e 240 80 47 25 -29
        e 80 90 47 7f 14
        e 160 80 47 22 -28
        e 0 90 48 7f 5
        e 1280 80 48 42 26
        e 160 90 43 7f 13
        e 160 80 43 4f -17
        e 0 90 40 7f -17
        e 160 80 40 27 -14
        e 0 90 43 7f -19
        e 160 80 43 2f -28
        e 0 90 48 7f 1
        e 400 80 48 1d 5
        e 80 90 48 7f 1
        e 400 80 48 25 22
        e 80 90 4a 7f 8
        e 400 80 4a 39 22
        e 80 90 4a 7f 12
        e 160 80 4a 3e 29
        e 80 90 4a 7f 16
        e 160 80 4a 2e 39
        e 80 90 4c 7f 4
        e 240 80 4c 2b 19
        e 80 90 4a 7f 7
        e 160 80 4a 30 -20
        e 0 90 48 7f 6
        e 240 80 48 12 8
        e 80 90 4a 7f 3
        e 160 80 4a 31 -31
        e 0 90 4c 7f 1
        e 400 80 4c 28 9
        e 80 90 4d 7f 7
        e 160 80 4d 3a 6
        e 0 90 4c 7f -20
        e 80 80 4c 2b 37
        e 80 90 4a 7f -24
        e 160 80 4a 11 -25
        e 0 90 4c 7f 2
        e 480 80 4c 01 -20
        e 0 90 48 7f 23
        e 480 80 48 01 -16
        e 0 90 4a 7f 10
        e 480 80 4a 2f 15
        e 0 90 47 7f -9
        e 240 80 47 32 -31
        e 80 90 47 7f
        e 160 80 47 2e -31
        e 0 90 48 7f
        e 1280 80 48 56 23
        e 640 90 43 7f
        e 400 80 43 1b 22
        e 80 90 42 7f 2
        e 240 80 42 0b -9
        e 80 90 45 7f 21
        e 160 80 45 26 -22
        e 0 90 43 7f 8
        e 480 80 43 37 -18
        e 0 90 3e 7f 27
        e 400 80 3e 36 -36
        e 80 90 45 7f 8
        e 160 80 45 36 18
        e 0 90 47 7f -8
        e 160 80 47 47 -33
        e 0 90 48 7f -27
        e 80 80 48 28 30
        e 80 90 47 7f
        e 240 80 47 2f -30
        e 80 90 45 7f 7
        e 80 80 45 1b 33
        e 80 90 47 7f
        e 480 80 47 29 24
        e 0 90 43 7f 16
        e 320 80 43 16 33
        e 160 90 43 7f 31
        e 480 80 43 1f
        e 0 90 42 7f 18
        e 240 80 42 1e 25
        e 80 90 45 7f 21
        e 160 80 45 28 -5
        e 0 90 43 7f
        e 480 80 43 39 1
        e 0 90 3e 7f 2
        e 400 80 3e 01 -5
        e 80 90 45 7f
        e 160 80 45 12 11
        e 0 90 47 7f -14
        e 160 80 47 41 -12
        e 0 90 48 7f -3
        e 160 80 48 31 11
        e 0 90 47 7f -1
        e 240 80 47 22 1
        e 80 90 45 7f -5
        e 160 80 45 30 -13
        e 0 90 43 7f -5
        e 640 80 43 3e 6
        e 320 90 43 7f -15
        e 400 80 43 1a 12
        e 80 90 42 7f -18
        e 160 80 42 25 37
        e 160 90 45 7f -15
        e 160 80 45 32 -31
        e 0 90 43 7f 1
        e 480 80 43 48 -9
        e 0 90 3e 7f -6
        e 320 80 3e 10 24
        e 160 90 45 7f -6
        e 160 80 45 32 21
        e 0 90 47 7f -8
        e 160 80 47 46 -26
        e 0 90 48 7f -23
        e 160 80 48 38 -13
        e 0 90 47 7f -12
        e 160 80 47 23 20
        e 160 90 45 7f -12
        e 160 80 45 07 -19
        e 0 90 47 7f -2
        e 480 80 47 41 -10
        e 0 90 43 7f -9
        e 320 80 43 39 -12
        e 160 90 43 7f -3
        e 400 80 43 13 14
        e 80 90 42 7f -3
        e 240 80 42 2c -4
        e 80 90 45 7f 14
        e 160 80 45 33 6
        e 0 90 43 7f 17
        e 480 80 43 48 3
        e 0 90 3e 7f 9
        e 320 80 3e 01 37
        e 160 90 45 7f -20
        e 160 80 45 11 -8
        e 0 90 47 7f -35
        e 80 80 47 42 35
        e 80 90 48 7f -36
        e 160 80 48 24 -12
        e 0 90 47 7f -21
        e 240 80 47 0d -12
        e 80 90 45 7f -19
        e 160 80 45 2b -32
        e 0 90 43 7f -7
        e 1440 80 43 43 -7
        E 0 b0 7b 00
        GUID {433EBA48-026B-564B-8777-FB8CB0A1E18D}
        IGNTEMPO 0 120 4 4
        SRCCOLOR 429
        VELLANE -1 86 6
        CFGEDITVIEW 0 0 49 11 0 0 0 0 0 0.5
        KEYSNAP 0
        TRACKSEL 226
        EVTFILTER 0 -1 -1 -1 -1 0 0 0 0 -1 -1 -1 -1 0 -1 0 -1 -1
        CFGEDIT 1 0 0 0 0 0 1 0 1 1 1 0.125 0 16 1280 470 0 0 2 3 0.25 0 0 0 0 -0.44 0 0 1 64
      >
      TAKE
      NAME "trumpet(s) - National_Anthems_-_Philippines.mid"
      TAKEVOLPAN 0 1 -1
      SOFFS 48 96
      PLAYRATE 1 1 0 -1 0 0.0025
      CHANMODE 0
      GUID {73535215-4E2E-4D46-AC9E-84414A931D2A}
      <SOURCE MIDI
        HASDATA 1 480 QN
        POOLEDEVTS {A2089B0C-1F1A-764A-B97B-0AC35576C45F}
        <X 0 0 0 0 3 trumpet(s)
          /wN0cnVtcGV0KHMp
        >
        <X 0 0 0 0 4 "Sound Canvas"
          /wRTb3VuZCBDYW52YXM=
        >
        e 0 90 43 6d
        e 422 80 43 1b
        e 60 90 42 66
        e 229 80 42 0b
        e 110 90 45 61
        e 117 80 45 26
        e 30 90 43 6b
        e 454 80 43 37
        e 45 90 3e 64
        e 337 80 3e 36
        e 124 90 45 66
        e 144 90 47 60
        e 26 80 45 36
        e 109 80 47 47
        e 6 90 48 5a
        e 137 80 48 28
        e 50 90 47 67
        e 210 80 47 2f
        e 117 90 45 56
        e 106 80 45 1b
        e 47 90 47 60
        e 496 90 43 67
        e 8 80 47 29
        e 329 80 43 16
        e 158 90 43 68
        e 449 80 43 1f
        e 18 90 42 61
        e 247 80 42 1e
        e 76 90 45 5e
        e 134 80 45 28
        e 5 90 43 69
        e 481 80 43 39
        e 1 90 3e 5c
        e 393 80 3e 01
        e 85 90 45 64
        e 146 90 47 5e
        e 25 80 45 12
        e 137 80 47 41
        e 9 90 48 58
        e 162 90 47 67
        e 12 80 48 31
        e 230 80 47 22
        e 74 90 45 55
        e 152 80 45 30
        e 8 90 43 65
        e 651 80 43 3e
        e 299 90 43 69
        e 427 80 43 1a
        e 50 90 42 66
        e 215 80 42 25
        e 108 90 45 53
        e 144 80 45 32
        e 32 90 43 6c
        e 470 80 43 48
        e 3 90 3e 5e
        e 350 80 3e 10
        e 130 90 45 63
        e 158 90 47 5d
        e 29 80 45 32
        e 113 80 47 46
        e 3 90 48 52
        e 170 80 48 38
        e 1 90 47 63
        e 192 80 47 23
        e 128 90 45 5f
        e 153 80 45 07
        e 17 90 47 5f
        e 472 80 47 41
        e 1 90 43 62
        e 317 80 43 39
        e 169 90 43 68
        e 417 80 43 13
        e 63 90 42 62
        e 239 80 42 2c
        e 98 90 45 61
        e 152 80 45 33
        e 11 90 43 68
        e 466 80 43 48
        e 6 90 3e 59
        e 348 80 3e 01
        e 103 90 45 64
        e 145 90 47 5d
        e 27 80 45 11
        e 123 80 47 42
        e 9 90 48 52
        e 175 90 47 66
        e 9 80 48 24
        e 240 80 47 0d
        e 73 90 45 5f
        e 147 80 45 2b
        e 25 90 43 60
        e 343 80 43 43
        e 142 90 43 6a
        e 157 90 42 5e
        e 10 80 43 3e
        e 126 80 42 2c
        e 11 90 43 62
        e 154 80 43 3d
        e 25 90 45 63
        e 216 80 45 34
        e 100 90 45 60
        e 161 80 45 36
        e 11 90 3e 5d
        e 223 80 3e 24
        e 84 90 3e 58
        e 158 80 3e 29
        e 15 90 45 66
        e 226 80 45 2b
        e 92 90 45 60
        e 167 90 3e 60
        e 12 80 45 3c
        e 194 80 3e 0e
        e 98 90 3e 5b
        e 154 80 3e 16
        e 33 90 47 62
        e 229 80 47 2b
        e 63 90 48 5e
        e 149 80 48 3e
        e 24 90 4a 64
        e 209 80 4a 34
        e 82 90 4c 5d
        e 156 80 4c 34
        e 18 90 4a 60
        e 388 80 4a 41
        e 84 90 43 69
        e 135 80 43 46
        e 27 90 42 55
        e 134 80 42 41
        e 8 90 43 62
        e 154 80 43 40
        e 18 90 45 65
        e 171 80 45 2c
        e 146 90 45 5b
        e 175 90 3e 59
        e 10 80 45 3d
        e 199 80 3e 34
        e 99 90 3e 54
        e 145 80 3e 1d
        e 35 90 45 67
        e 166 80 45 2c
        e 140 90 45 5f
        e 181 80 45 3e
        e 11 90 3e 60
        e 187 80 3e 32
        e 105 90 3e 4f
        e 129 80 3e 2f
        e 54 90 47 64
        e 136 80 47 3e
        e 2 90 48 53
        e 146 80 48 41
        e 4 90 47 5c
        e 104 80 47 39
        e 57 90 45 64
        e 154 90 47 5e
        e 16 80 45 1a
        e 129 80 47 37
        e 5 90 45 5d
        e 117 80 45 28
        e 56 90 43 62
        e 385 80 43 3d
        e 119 90 43 6c
        e 159 90 42 5b
        e 3 80 43 3b
        e 133 80 42 40
        e 2 90 43 69
        e 159 80 43 3f
        e 12 90 45 63
        e 183 80 45 2a
        e 127 90 45 62
        e 183 90 3e 5e
        e 3 80 45 2b
        e 167 80 3e 22
        e 121 90 3e 58
        e 177 90 45 69
        e 2 80 3e 21
        e 166 80 45 23
        e 145 90 45 61
        e 180 80 45 3b
        e 6 90 3e 5c
        e 170 80 3e 19
        e 109 90 3e 57
        e 161 80 3e 14
        e 28 90 47 63
        e 276 80 47 3c
        e 30 90 48 5e
        e 134 80 48 33
        e 42 90 4a 65
        e 230 80 4a 1b
        e 73 90 4c 60
        e 121 80 4c 2f
        e 52 90 4a 63
        e 372 80 4a 38
        e 97 90 43 66
        e 166 80 43 35
        e 8 90 42 56
        e 127 90 43 63
        e 1 80 42 43
        e 151 80 43 44
        e 20 90 45 62
        e 171 80 45 37
        e 151 90 45 5f
        e 164 90 3e 61
        e 26 80 45 2d
        e 159 80 3e 1e
        e 117 90 3e 56
        e 173 90 45 69
        e 18 80 3e 2b
        e 183 80 45 27
        e 118 90 45 62
        e 162 90 3e 63
        e 11 80 45 3d
        e 158 80 3e 2f
        e 128 90 3e 53
        e 140 80 3e 1f
        e 45 90 47 62
        e 137 90 48 52
        e 9 80 47 41
        e 157 90 47 5f
        e 7 80 48 3a
        e 125 80 47 35
        e 36 90 45 63
        e 158 90 47 61
        e 2 80 45 24
        e 148 90 45 5e
        e 4 80 47 30
        e 155 80 45 41
        e 11 90 43 67
        e 405 80 43 39
        e 110 90 43 6b
        e 124 80 43 52
        e 2 90 40 5f
        e 179 90 43 67
        e 19 80 40 01
        e 119 80 43 45
        e 34 90 48 65
        e 387 80 48 26
        e 78 90 48 62
        e 415 80 48 1e
        e 71 90 4a 64
        e 416 80 4a 43
        e 65 90 4a 66
        e 263 80 4a 42
        e 81 90 4a 55
        e 119 80 4a 43
        e 28 90 4c 65
        e 283 80 4c 2c
        e 8 90 4a 57
        e 134 80 4a 25
        e 29 90 48 5e
        e 268 80 48 35
        e 30 90 4a 53
        e 147 80 4a 2d
        e 27 90 4c 62
        e 438 80 4c 1a
        e 68 90 4d 61
        e 143 90 4c 5e
        e 26 80 4d 42
        e 131 80 4c 48
        e 3 90 4a 57
        e 134 80 4a 0f
        e 48 90 4c 67
        e 464 80 4c 24
        e 26 90 48 5e
        e 448 80 48 01
        e 15 90 4a 5f
        e 483 90 47 64
        e 6 80 4a 3d
        e 202 80 47 25
        e 123 90 47 61
        e 118 80 47 22
        e 33 90 48 62
        e 1301 80 48 42
        e 147 90 43 6e
        e 130 80 43 4f
        e 0 90 40 53
        e 158 90 43 68
        e 5 80 40 27
        e 146 80 43 2f
        e 29 90 48 63
        e 404 80 48 1d
        e 76 90 48 62
        e 421 80 48 25
        e 66 90 4a 61
        e 414 80 4a 39
        e 70 90 4a 5f
        e 177 80 4a 3e
        e 67 90 4a 5e
        e 183 80 4a 2e
        e 45 90 4c 63
        e 255 80 4c 2b
        e 68 90 4a 5b
        e 133 80 4a 30
        e 26 90 48 61
        e 242 80 48 12
        e 75 90 4a 5f
        e 126 80 4a 31
        e 32 90 4c 60
        e 408 80 4c 28
        e 78 90 4d 60
        e 133 90 4c 5c
        e 26 80 4d 3a
        e 111 80 4c 2b
        e 19 90 4a 61
        e 159 80 4a 11
        e 27 90 4c 61
        e 458 80 4c 01
        e 43 90 48 63
        e 441 80 48 01
        e 26 90 4a 5e
        e 461 90 47 5f
        e 24 80 4a 2f
        e 194 80 47 32
        e 111 90 47 56
        e 129 80 47 2e
        e 31 90 48 64
        e 1303 80 48 56
        e 617 90 43 6d
        e 422 80 43 1b
        e 60 90 42 66
        e 229 80 42 0b
        e 110 90 45 61
        e 117 80 45 26
        e 30 90 43 6b
        e 454 80 43 37
        e 45 90 3e 64
        e 337 80 3e 36
        e 124 90 45 66
        e 144 90 47 60
        e 26 80 45 36
        e 109 80 47 47
        e 6 90 48 5a
        e 137 80 48 28
        e 50 90 47 67
        e 210 80 47 2f
        e 117 90 45 56
        e 106 80 45 1b
        e 47 90 47 60
        e 496 90 43 67
        e 8 80 47 29
        e 329 80 43 16
        e 158 90 43 68
        e 449 80 43 1f
        e 18 90 42 61
        e 247 80 42 1e
        e 76 90 45 5e
        e 134 80 45 28
        e 5 90 43 69
        e 481 80 43 39
        e 1 90 3e 5c
        e 393 80 3e 01
        e 85 90 45 64
        e 146 90 47 5e
        e 25 80 45 12
        e 137 80 47 41
        e 9 90 48 58
        e 162 90 47 67
        e 12 80 48 31
        e 230 80 47 22
        e 74 90 45 55
        e 152 80 45 30
        e 8 90 43 65
        e 651 80 43 3e
        e 299 90 43 69
        e 427 80 43 1a
        e 50 90 42 66
        e 215 80 42 25
        e 108 90 45 53
        e 144 80 45 32
        e 32 90 43 6c
        e 470 80 43 48
        e 3 90 3e 5e
        e 350 80 3e 10
        e 130 90 45 63
        e 158 90 47 5d
        e 29 80 45 32
        e 113 80 47 46
        e 3 90 48 52
        e 170 80 48 38
        e 1 90 47 63
        e 192 80 47 23
        e 128 90 45 5f
        e 153 80 45 07
        e 17 90 47 5f
        e 472 80 47 41
        e 1 90 43 62
        e 317 80 43 39
        e 169 90 43 68
        e 417 80 43 13
        e 63 90 42 62
        e 239 80 42 2c
        e 98 90 45 61
        e 152 80 45 33
        e 11 90 43 68
        e 466 80 43 48
        e 6 90 3e 59
        e 348 80 3e 01
        e 103 90 45 64
        e 145 90 47 5d
        e 27 80 45 11
        e 123 80 47 42
        e 9 90 48 52
        e 175 90 47 66
        e 9 80 48 24
        e 240 80 47 0d
        e 73 90 45 5f
        e 147 80 45 2b
        e 25 90 43 60
        e 1440 80 43 43
        E 7 b0 7b 00
        GUID {D46C9B40-CA65-F849-9469-D43D7783213F}
        IGNTEMPO 0 120 4 4
        SRCCOLOR 430
        VELLANE -1 86 6
        CFGEDITVIEW 0 0 49 11 0 0 0 0 0 0.5
        KEYSNAP 0
        TRACKSEL 226
        EVTFILTER 0 -1 -1 -1 -1 0 0 0 0 -1 -1 -1 -1 0 -1 0 -1 -1
        CFGEDIT 1 0 0 0 0 0 1 0 1 1 1 0.125 0 16 1280 470 0 0 2 3 0.25 0 0 0 0 -0.44 0 0 1 64
      >
    >
    <ITEM
      POSITION 48
      SNAPOFFS 0
      LENGTH 16.5
      LOOP 1
      ALLTAKES 0
      FADEIN 1 0 0 1 0 0
      FADEOUT 1 0 0 1 0 0
      MUTE 0
      SEL 0
      YPOS 0.532189 0.201717
      IGUID {8DF9E709-0359-0345-A753-3C9240898E1A}
      IID 17
      NAME "trombone(s) - National_Anthems_-_Philippines.mid"
      VOLPAN 1 0 1 -1
      SOFFS 48 96
      PLAYRATE 1 1 0 -1 0 0.0025
      CHANMODE 0
      TAKECOLOR 26173599 B
      GUID {E7961851-6321-D44F-B7AC-CCFB7D25EA4C}
      <SOURCE MIDI
        HASDATA 1 480 QN
        POOLEDEVTS {0B02C0C6-2B75-5842-A19A-B21A7128F0B6}
        <X 0 0 0 0 3 trombone(s)
          /wN0cm9tYm9uZShzKQ==
        >
        <X 0 0 0 0 4 "Sound Canvas"
          /wRTb3VuZCBDYW52YXM=
        >
        e 0 92 37 7f
        e 240 82 37 01 37
        e 240 92 32 7f -4
        e 360 82 32 01 -34
        e 120 92 37 7f -6
        e 360 82 37 01 -49
        e 120 92 2b 7f -29
        e 360 82 2b 33 -59
        e 120 92 36 7f -2
        e 240 82 36 13 49
        e 240 92 32 7f -12
        e 240 82 32 40 37
        e 240 92 37 7f -4
        e 360 82 37 01 -37
        e 120 92 2b 7f -14
        e 360 82 2b 26 -44
        e 120 92 37 7f -5
        e 360 82 37 01 -41
        e 120 92 32 7f 6
        e 240 82 32 21 48
        e 240 92 37 7f 1
        e 360 82 37 01 1
        e 120 92 2b 7f -14
        e 240 82 2b 3b 9
        e 240 92 30 7f -1
        e 360 82 30 24 -52
        e 120 92 32 7f -14
        e 240 82 32 16 46
        e 240 92 37 7f -11
        e 360 82 37 01 -54
        e 120 92 2b 7f -15
        e 360 82 2b 27 -54
        e 120 92 37 7f -5
        e 360 82 37 01 -49
        e 120 92 32 7f -30
        e 240 82 32 31 23
        e 240 92 37 7f -11
        e 240 82 37 08 45
        e 240 92 2b 7f -18
        e 240 82 2b 36 47
        e 240 92 36 7f -15
        e 240 82 36 01 23
        e 240 92 32 7f -33
        e 240 82 32 13 27
        e 240 92 37 7f -4
        e 360 82 37 18 -40
        e 120 92 2b 7f -5
        e 240 82 2b 35 47
        e 240 92 37 7f 11
        e 240 82 37 01 45
        e 240 92 32 7f 17
        e 240 82 32 20 58
        e 240 92 37 7f 10
        e 360 82 37 01 -51
        e 120 92 2b 7f 9
        e 240 82 2b 43 52
        e 240 92 30 7f 16
        e 360 82 30 01 -54
        e 120 92 32 7f -14
        e 240 82 32 1f 37
        e 240 92 37 7f -28
        e 360 82 37 01 -14
        e 120 92 2b 7f -1
        e 360 82 2b 08 19
        e 120 92 32 7f -8
        e 360 82 32 01 -31
        e 120 92 32 7f 12
        e 0 92 36 7f -1
        e 240 82 32 3c 4
        e 120 82 36 01 -57
        e 600 92 36 7f 16
        e 360 82 36 4f -54
        e 600 92 3b 7f 6
        e 0 92 3e 7f
        e 120 82 3b 42 45
        e 0 82 3e 22 36
        e 240 92 3c 7f -53
        e 0 92 40 7f -58
        e 120 82 3c 37 -71
        e 0 82 40 3d -77
        e 0 92 3b 7f 6
        e 0 92 3e 7f 3
        e 480 82 3b 51 -5
        e 0 82 3e 49 14
        e 960 92 32 7f -9
        e 0 92 36 7f -19
        e 240 82 36 3c 57
        e 120 82 32 44 -50
        e 600 92 32 7f 20
        e 0 92 36 7f 11
        e 240 82 32 36 54
        e 0 82 36 2f 55
        e 240 92 32 7f -6
        e 240 82 32 05 14
        e 240 92 32 7f -11
        e 240 82 32 39 32
        e 240 92 2b 7f -28
        e 360 82 2b 03 -47
        e 120 92 2b 7f -2
        e 240 82 2b 26 -1
        e 240 92 32 7f -8
        e 240 82 32 3d 41
        e 240 92 32 7f -2
        e 0 92 36 7f -6
        e 240 82 32 1b -42
        e 0 82 36 17 -3
        e 720 92 32 7f 1
        e 0 92 36 7f -3
        e 240 82 32 3f 21
        e 0 82 36 48 23
        e 720 92 37 7f 18
        e 0 92 3b 7f 12
        e 0 92 3e 7f 17
        e 120 82 3b 43 40
        e 0 82 3e 30 35
        e 120 82 37 01 -52
        e 120 92 3c 7f -46
        e 0 92 40 7f -43
        e 120 82 3c 3a -41
        e 0 82 40 2e -75
        e 0 92 3b 7f -11
        e 0 92 3e 7f -11
        e 480 82 3b 49 -56
        e 0 82 3e 38 -42
        e 960 92 32 7f -11
        e 0 92 36 7f -15
        e 240 82 32 30 -8
        e 0 82 36 25 -23
        e 720 92 32 7f -21
        e 0 92 36 7f -27
        e 240 82 32 24 -51
        e 0 82 36 33 -55
        e 240 92 32 7f -20
        e 240 82 32 26 -10
        e 240 92 32 7f -31
        e 240 82 32 01 25
        e 240 92 2b 7f -20
        e 240 82 2b 47 24
        e 240 92 37 7f -10
        e 120 82 37 33 44
        e 0 92 34 7f 32
        e 120 82 34 47 58
        e 120 92 37 7f -55
        e 120 82 37 41 -105
        e 0 92 3c 7f 21
        e 360 82 3c 12 13
        e 120 92 34 7f 37
        e 360 82 34 01 53
        e 120 92 37 7f 3
        e 360 82 37 01 12
        e 120 92 3b 7f -19
        e 360 82 3b 2b -11
        e 120 92 3c 7f
        e 240 82 3c 0a -47
        e 120 92 37 7f -46
        e 120 82 37 46 -3
        e 0 92 3c 7f -7
        e 240 82 3c 01 -46
        e 120 92 3e 7f -58
        e 120 82 3e 1c -51
        e 0 92 40 7f -28
        e 360 82 40 26 -32
        e 120 92 3e 7f -5
        e 120 82 3e 1f 25
        e 0 92 3c 7f 24
        e 120 82 3c 45 48
        e 0 92 3e 7f 58
        e 240 82 3e 27 -41
        e 0 92 3c 7f -17
        e 360 82 3c 03 -24
        e 120 92 37 7f -3
        e 360 82 37 02 53
        e 120 92 2b 7f -9
        e 360 82 2b 10 16
        e 120 92 37 7f -30
        e 120 82 37 20 5
        e 240 92 37 7f -48
        e 120 82 37 1d 10
        e 0 92 30 7f -7
        e 360 82 30 2f 9
        e 120 92 37 7f -16
        e 120 82 37 20 23
        e 0 92 34 7f 11
        e 120 82 34 33 43
        e 0 92 37 7f 37
        e 240 82 37 23 -11
        e 0 92 30 7f -13
        e 360 82 30 20 -43
        e 120 92 37 7f -15
        e 120 82 37 1d 31
        e 0 92 34 7f 16
        e 120 82 34 39 23
        e 0 92 37 7f 48
        e 120 82 37 0d 51
        e 120 92 3c 7f -10
        e 360 82 3c 01 -37
        e 120 92 34 7f
        e 240 82 34 34 16
        e 240 92 37 7f -13
        e 360 82 37 07 1
        e 120 92 3b 7f -16
        e 360 82 3b 16 1
        e 120 92 3c 7f -9
        e 240 82 3c 2d -26
        e 120 92 3e 7f -43
        e 120 82 3e 22 -26
        e 0 92 3c 7f -19
        e 240 82 3c 2a -33
        e 120 92 3e 7f -48
        e 120 82 3e 13 -33
        e 0 92 40 7f -12
        e 360 82 40 2f 8
        e 120 92 3e 7f 6
        e 120 82 3e 23 42
        e 0 92 3c 7f 29
        e 120 82 3c 45 53
        e 0 92 3e 7f 57
        e 240 82 3e 30 -36
        e 0 92 3c 7f -5
        e 360 82 3c 07 -3
        e 120 92 37 7f -7
        e 360 82 37 21 11
        e 120 92 37 7f 23
        e 360 82 37 01 26
        e 120 92 2b 7f -13
        e 360 82 2b 01 -39
        e 120 92 30 7f -9
        e 360 82 30 01 -4
        e 120 92 37 7f -6
        e 120 82 37 1f 5
        e 0 92 34 7f 16
        e 120 92 37 7f 59
        e 120 82 34 43 -60
        e 120 82 37 09 -43
        e 0 92 30 7f -19
        e 480 82 30 5d -15
        e 480 92 37 7f
        e 240 82 37 01 37
        e 240 92 32 7f -4
        e 360 82 32 01 -34
        e 120 92 37 7f -6
        e 360 82 37 01 -49
        e 120 92 2b 7f -29
        e 360 82 2b 33 -59
        e 120 92 36 7f -2
        e 240 82 36 13 49
        e 240 92 32 7f -12
        e 240 82 32 40 37
        e 240 92 37 7f -4
        e 360 82 37 01 -37
        e 120 92 2b 7f -14
        e 360 82 2b 26 -44
        e 120 92 37 7f -5
        e 360 82 37 01 -41
        e 120 92 32 7f 6
        e 240 82 32 21 48
        e 240 92 37 7f 1
        e 360 82 37 01 1
        e 120 92 2b 7f -14
        e 240 82 2b 3b 9
        e 240 92 30 7f -1
        e 360 82 30 24 -52
        e 120 92 32 7f -14
        e 240 82 32 16 46
        e 240 92 37 7f -11
        e 360 82 37 01 -54
        e 120 92 2b 7f -15
        e 360 82 2b 27 -54
        e 120 92 37 7f -5
        e 360 82 37 01 -49
        e 120 92 32 7f -30
        e 240 82 32 31 23
        e 240 92 37 7f -11
        e 240 82 37 08 45
        e 240 92 2b 7f -18
        e 240 82 2b 36 47
        e 240 92 36 7f -15
        e 240 82 36 01 23
        e 240 92 32 7f -33
        e 240 82 32 13 27
        e 240 92 37 7f -4
        e 360 82 37 18 -40
        e 120 92 2b 7f -5
        e 240 82 2b 35 47
        e 240 92 37 7f 11
        e 240 82 37 01 45
        e 240 92 32 7f 17
        e 240 82 32 20 58
        e 240 92 37 7f 10
        e 360 82 37 01 -51
        e 120 92 2b 7f 9
        e 240 82 2b 43 52
        e 240 92 30 7f 16
        e 360 82 30 01 -54
        e 120 92 32 7f -14
        e 240 82 32 1f 37
        e 240 92 37 7f -28
        e 1440 82 37 01 -28
        E 0 b0 7b 00
        GUID {1B8EAB79-A043-4841-9E75-07D6C0377D78}
        IGNTEMPO 0 120 4 4
        SRCCOLOR 431
        VELLANE -1 86 6
        CFGEDITVIEW 0 0 62 8 0 0 0 0 0 0.5
        KEYSNAP 0
        TRACKSEL 226
        EVTFILTER 0 -1 -1 -1 -1 0 0 0 0 -1 -1 -1 -1 0 -1 0 -1 -1
        CFGEDIT 1 0 0 0 0 0 1 0 1 1 1 0.125 16 32 1280 470 0 0 2 3 0.25 0 0 0 0 -0.44 0 0 1 64
      >
      TAKE
      NAME "trombone(s) - National_Anthems_-_Philippines.mid"
      TAKEVOLPAN 0 1 -1
      SOFFS 48 96
      PLAYRATE 1 1 0 -1 0 0.0025
      CHANMODE 0
      GUID {E8717C03-6E0B-3C49-BBA3-95400408DFA3}
      <SOURCE MIDI
        HASDATA 1 480 QN
        POOLEDEVTS {5465F76D-F252-A94D-91BA-346100464B8E}
        <X 0 0 0 0 3 trombone(s)
          /wN0cm9tYm9uZShzKQ==
        >
        <X 0 0 0 0 4 "Sound Canvas"
          /wRTb3VuZCBDYW52YXM=
        >
        E 0 92 37 52
        E 277 82 37 01
        E 199 92 32 59
        E 330 82 32 01
        E 148 92 37 54
        E 317 82 37 01
        E 140 92 2b 5c
        E 330 82 2b 33
        E 177 92 36 5f
        E 291 82 36 13
        E 179 92 32 59
        E 289 82 32 40
        E 199 92 37 51
        E 327 82 37 01
        E 143 92 2b 53
        E 330 82 2b 26
        E 159 92 37 52
        E 324 82 37 01
        E 167 92 32 50
        E 282 82 32 21
        E 193 92 37 4f
        E 360 82 37 01
        E 105 92 2b 60
        E 263 82 2b 3b
        E 230 92 30 57
        E 309 82 30 24
        E 158 92 32 59
        E 300 82 32 16
        E 183 92 37 59
        E 317 82 37 01
        E 159 92 2b 62
        E 321 82 2b 27
        E 169 92 37 59
        E 316 82 37 01
        E 139 92 32 56
        E 293 82 32 31
        E 206 92 37 59
        E 296 82 37 08
        E 177 92 2b 5f
        E 305 82 2b 36
        E 178 92 36 5d
        E 278 82 36 01
        E 184 92 32 5b
        E 300 82 32 13
        E 209 92 37 52
        E 324 82 37 18
        E 155 92 2b 5f
        E 292 82 2b 35
        E 204 92 37 57
        E 274 82 37 01
        E 212 92 32 53
        E 281 82 32 20
        E 192 92 37 53
        E 299 82 37 01
        E 180 92 2b 54
        E 283 82 2b 43
        E 204 92 30 58
        E 290 82 30 01
        E 160 92 32 5a
        E 291 82 32 1f
        E 175 92 37 4f
        E 374 82 37 01
        E 133 92 2b 53
        E 380 82 2b 08
        E 93 92 32 51
        E 337 82 32 01
        E 150 92 36 4a
        E 13 92 32 45
        E 232 82 32 3c
        E 59 82 36 01
        E 673 92 36 4c
        E 290 82 36 4f
        E 654 92 3e 53
        E 6 92 3b 51
        E 150 82 3e 22
        E 9 82 3b 42
        E 137 92 40 4c
        E 5 92 3c 58
        E 96 82 40 3d
        E 6 82 3c 37
        E 74 92 3e 48
        E 3 92 3b 44
        E 469 82 3b 51
        E 19 82 3e 49
        E 927 92 36 49
        E 10 92 32 41
        E 306 82 36 3c
        E 13 82 32 44
        E 661 92 36 4f
        E 9 92 32 3e
        E 274 82 32 36
        E 1 82 36 2f
        E 179 92 32 4a
        E 260 82 32 05
        E 215 92 32 51
        E 283 82 32 39
        E 180 92 2b 56
        E 341 82 2b 03
        E 165 92 2b 4b
        E 241 82 2b 26
        E 233 92 32 47
        E 289 82 32 3d
        E 193 92 36 4a
        E 4 92 32 4d
        E 200 82 32 1b
        E 39 82 36 17
        E 720 92 36 48
        E 4 92 32 43
        E 260 82 32 3f
        E 2 82 36 48
        E 709 92 3b 4c
        E 5 92 3e 25
        E 1 92 37 41
        E 137 82 3e 30
        E 5 82 3b 43
        E 28 82 37 01
        E 126 92 3c 4b
        E 3 92 40 27
        E 88 82 40 2e
        E 34 82 3c 3a
        E 30 92 3e 50
        E 0 92 3b 50
        E 435 82 3b 49
        E 14 82 3e 38
        E 987 92 36 44
        E 4 92 32 53
        E 228 82 36 25
        E 15 82 32 30
        E 701 92 36 3e
        E 6 92 32 51
        E 206 82 36 33
        E 4 82 32 24
        E 271 92 32 55
        E 250 82 32 26
        E 219 92 32 57
        E 296 82 32 01
        E 195 92 2b 57
        E 284 82 2b 47
        E 206 92 37 5d
        E 162 92 34 5f
        E 12 82 37 33
        E 134 82 34 47
        E 7 92 37 54
        E 70 82 37 41
        E 126 92 3c 5f
        E 352 82 3c 12
        E 144 92 34 64
        E 376 82 34 01
        E 70 92 37 57
        E 369 82 37 01
        E 89 92 3b 53
        E 368 82 3b 2b
        E 131 92 3c 64
        E 193 82 3c 0a
        E 121 92 37 55
        E 159 92 3c 61
        E 4 82 37 46
        E 197 82 3c 01
        E 108 92 3e 5a
        E 127 82 3e 1c
        E 23 92 40 5b
        E 356 82 40 26
        E 147 92 3e 5f
        E 149 92 3c 53
        E 1 82 3e 1f
        E 143 82 3c 45
        E 10 92 3e 5c
        E 141 82 3e 27
        E 24 92 3c 5c
        E 353 82 3c 03
        E 141 92 37 57
        E 416 82 37 02
        E 58 92 2b 5e
        E 385 82 2b 10
        E 74 92 37 5b
        E 155 82 37 20
        E 187 92 37 4e
        E 161 92 30 53
        E 17 82 37 1d
        E 359 82 30 2f
        E 95 92 37 56
        E 147 92 34 59
        E 12 82 37 20
        E 134 92 37 51
        E 6 82 34 33
        E 184 92 30 52
        E 2 82 37 23
        E 328 82 30 20
        E 148 92 37 5c
        E 151 92 34 57
        E 15 82 37 1d
        E 112 82 34 39
        E 25 92 37 50
        E 123 82 37 0d
        E 59 92 3c 51
        E 333 82 3c 01
        E 157 92 34 65
        E 256 82 34 34
        E 211 92 37 58
        E 374 82 37 07
        E 103 92 3b 5c
        E 377 82 3b 16
        E 110 92 3c 5a
        E 223 82 3c 2d
        E 103 92 3e 5a
        E 137 82 3e 22
        E 7 92 3c 5b
        E 226 82 3c 2a
        E 105 92 3e 5b
        E 135 82 3e 13
        E 21 92 40 58
        E 380 82 40 2f
        E 118 92 3e 57
        E 143 92 3c 57
        E 13 82 3e 23
        E 131 82 3c 45
        E 4 92 3e 58
        E 147 82 3e 30
        E 31 92 3c 5c
        E 362 82 3c 07
        E 116 92 37 59
        E 378 82 37 21
        E 132 92 37 54
        E 363 82 37 01
        E 81 92 2b 60
        E 334 82 2b 01
        E 150 92 30 57
        E 365 82 30 01
        E 118 92 37 5d
        E 131 82 37 1f
        E 11 92 34 60
        E 163 92 37 51
        E 1 82 34 43
        E 137 82 37 09
        E 24 92 30 5d
        E 484 82 30 5d
        E 495 92 37 52
        E 277 82 37 01
        E 199 92 32 59
        E 330 82 32 01
        E 148 92 37 54
        E 317 82 37 01
        E 140 92 2b 5c
        E 330 82 2b 33
        E 177 92 36 5f
        E 291 82 36 13
        E 179 92 32 59
        E 289 82 32 40
        E 199 92 37 51
        E 327 82 37 01
        E 143 92 2b 53
        E 330 82 2b 26
        E 159 92 37 52
        E 324 82 37 01
        E 167 92 32 50
        E 282 82 32 21
        E 193 92 37 4f
        E 360 82 37 01
        E 105 92 2b 60
        E 263 82 2b 3b
        E 230 92 30 57
        E 309 82 30 24
        E 158 92 32 59
        E 300 82 32 16
        E 183 92 37 59
        E 317 82 37 01
        E 159 92 2b 62
        E 321 82 2b 27
        E 169 92 37 59
        E 316 82 37 01
        E 139 92 32 56
        E 293 82 32 31
        E 206 92 37 59
        E 296 82 37 08
        E 177 92 2b 5f
        E 305 82 2b 36
        E 178 92 36 5d
        E 278 82 36 01
        E 184 92 32 5b
        E 300 82 32 13
        E 209 92 37 52
        E 324 82 37 18
        E 155 92 2b 5f
        E 292 82 2b 35
        E 204 92 37 57
        E 274 82 37 01
        E 212 92 32 53
        E 281 82 32 20
        E 192 92 37 53
        E 299 82 37 01
        E 180 92 2b 54
        E 283 82 2b 43
        E 204 92 30 58
        E 290 82 30 01
        E 160 92 32 5a
        E 291 82 32 1f
        E 175 92 37 4f
        E 1440 82 37 01
        E 28 b0 7b 00
        GUID {C6AC3577-3FFB-DD4C-91C2-045D416F11E7}
        IGNTEMPO 0 120 4 4
        SRCCOLOR 432
      >
    >
  >
  <TRACK {A26B8C2D-9EE6-0440-AA6B-121F89FB50DD}
    NAME "16th pulse (mix w/ send?)"
    PEAKCOL 16576
    BEAT -1
    AUTOMODE 0
    VOLPAN 0.34483987755952 0 -1 -1 1
    MUTESOLO 0 0 0
    IPHASE 0
    ISBUS 0 0
    BUSCOMP 0 0
    SHOWINMIX 1 0.6667 0.698113 1 0.5 0 0 0
    FREEMODE 0
    SEL 0
    REC 0 0 0 0 0 0 0
    VU 2
    TRACKHEIGHT 0 0
    INQ 0 0 0 0.5 100 0 0 100
    NCHAN 2
    FX 1
    TRACKID {A26B8C2D-9EE6-0440-AA6B-121F89FB50DD}
    PERF 0
    MIDIOUT -1
    MAINSEND 1 0
    <FXCHAIN
      WNDRECT 36 359 724 387
      SHOW 0
      LASTSEL 0
      DOCKED 0
      BYPASS 0 0 0
      <VST "VSTi: BlueARP.x64 (graywolf2004)" BlueARP.x64.vst 0 "" 929322872
        eFdkN+5e7f4AAAAAAgAAAAEAAAAAAAAAAgAAAAAAAAAODwEAAQAAAAAAEAA=
        YmJuawYPAQBmaXhwFAAAABAAAQEBAAAAAAII/wUAAAAAAAAAZnBncCIAAAAPCBkGAQAAfwB/AEAAAQABAAAAAAAAAAAAfwAAAAEAAAAAY2hucAQAAAAA////Y2hucwgA
        AAAPDg4O/////2NobnAEAAAAAP///2NobnMIAAAAFv////////9jaG5wBAAAAAD///9jaG5zCAAAABL/////////Y2hucAQAAAAA////Y2hucwgAAAAICAkJ/////2No
        bnAEAAAAAP///2NobnMIAAAANf////////9jaG5wBAAAAAD///9jaG5zCAAAAD0+////////Y2hucAQAAAAA////Y2hucwgAAAAgICAh/////2NobnAEAAAAAP///2No
        bnMIAAAAGhr///////9jaG5wBAAAAAD///9jaG5zCAAAAP//////////Y2hucAQAAAAA////Y2hucwgAAAD//////////2NobnAEAAAAAP///2NobnMIAAAA////////
        //9jaG5wBAAAAAD///9jaG5zCAAAAP//////////Y2hucAQAAAAA////Y2hucwgAAAD//////////2NobnAEAAAAAP///2NobnMIAAAA//////////9jaG5wBAAAAAD/
        //9jaG5zCAAAAP//////////Y2hucAQAAAAA////Y2hucwgAAAD//////////3Byb2cSAgAAcHJncCIAAAAQCBkGAQEAfwB/AEAAAQABAAAAAAAAAAAAfwAAAAAAAAAA
        cGdubTAAAAAtIEluaXRpYWwgcHJvZ3JhbSAtAP9/AAAEjEAVAQAAAfTgqhIBAAAAAAABADABAABzdHAwQAAAAAAHAAAAAAAAAAAAAAAAAAAAAAAAAAAAAAAAAAAAAAAA
        AAAAAAAAAAAAAAAAAAAAAAAAAAAAAAAAAAAAAAAAAABzdHAxQAAAAAgQCAgICAgICAgICAgICAgICAgICAgICAgICAgICAgICAgICAgICAgICAgICAgICAgICAgICAgI
        CAgICAgICAhzdHAyQAAAAAEBAgEBAgEAAQEBAQEBAQEBAQEBAQEBAQEBAQEBAQEBAQEBAQEBAQEBAQEBAQEBAQEBAQEBAQEBAQEBAQEBAQFzdHAzQAAAAAQEBAQEBAQE
        BAQEBAQEBAQEBAQEBAQEBAQEBAQEBAQEBAQEBAQEBAQEBAQEBAQEBAQEBAQEBAQEBAQEBAQEBARzdHA0QAAAAGBgYGBgYGBgYGBgYGBgYGBgYGBgYGBgYGBgYGBgYGBg
        YGBgYGBgYGBgYGBgYGBgYGBgYGBgYGBgYGBgYGBgYGBzdHA1QAAAAAAAAAAAAAAAAAAAAAAAAAAAAAAAAAAAAAAAAAAAAAAAAAAAAAAAAAAAAAAAAAAAAAAAAAAAAAAA
        AAAAAAAAAABwcm9nEgIAAHByZ3AiAAAAEBAyBAEDAH8AfwBAAAEAAQAAAAAAAAAAAH8AAAAAAAAAAHBnbm0wAAAAU2ltcGxlIDRrIFVwAAAAAIA4vl//fwAAsDhAFQEA
        AAD0OL5f/38AAPTgqhIBAAAAc3RwMEAAAAAAAAAAAAAAAAAAAAAAAAAAAAAAAAAAAAAAAAAAAAAAAAAAAAAAAAAAAAAAAAAAAAAAAAAAAAAAAAAAAAAAAAAAc3RwMUAA
        AAAICAgICAgICAgICAgICAgICAgICAgICAgICAgICAgICAgICAgICAgICAgICAgICAgICAgICAgICAgICAgICAgIc3RwMkAAAAABAQEBAQEBAQEBAQEBAQEBAQEBAQEB
        AQEBAQEBAQEBAQEBAQEBAQEBAQEBAQEBAQEBAQEBAQEBAQEBAQEBAQEBc3RwM0AAAAAECBAgBAgQIAQIECAECBAgBAQEBAQEBAQEBAQEBAQEBAQEBAQEBAQEBAQEBAQE
        BAQEBAQEBAQEBAQEBAQEBAQEc3RwNEAAAABgYGBgYGBgYGBgYGBgYGBgYGBgYGBgYGBgYGBgYGBgYGBgYGBgYGBgYGBgYGBgYGBgYGBgYGBgYGBgYGBgYGBgc3RwNUAA
        AAAAAAAAAAAAAAAAAAAAAAAAAAAAAAAAAAAAAAAAAAAAAAAAAAAAAAAAAAAAAAAAAAAAAAAAAAAAAAAAAAAAAAAAcHJvZxICAABwcmdwIgAAABAQMgQBAwB/AH8AQAAB
        AAEAAAAAAAAAAAB/AAAAAAAAAABwZ25tMAAAAFNpbXBsZSA0ayBEb3duAACAOL5f/38AALA4QBUBAAAA9Di+X/9/AAD04KoSAQAAAHN0cDBAAAAAAAAAAAAAAAAAAAAA
        AAAAAAAAAAAAAAAAAAAAAAAAAAAAAAAAAAAAAAAAAAAAAAAAAAAAAAAAAAAAAAAAAAAAAHN0cDFAAAAACAgICAgICAgICAgICAgICAgICAgICAgICAgICAgICAgICAgI
        CAgICAgICAgICAgICAgICAgICAgICAgICAgICHN0cDJAAAAAAQEBAQEBAQEBAQEBAQEBAQEBAQEBAQEBAQEBAQEBAQEBAQEBAQEBAQEBAQEBAQEBAQEBAQEBAQEBAQEB
        AQEBAXN0cDNAAAAAIBAIBCAQCAQgEAgEIBAIBAQEBAQEBAQEBAQEBAQEBAQEBAQEBAQEBAQEBAQEBAQEBAQEBAQEBAQEBAQEBAQEBHN0cDRAAAAAYGBgYGBgYGBgYGBg
        YGBgYGBgYGBgYGBgYGBgYGBgYGBgYGBgYGBgYGBgYGBgYGBgYGBgYGBgYGBgYGBgYGBgYHN0cDVAAAAAAAAAAAAAAAAAAAAAAAAAAAAAAAAAAAAAAAAAAAAAAAAAAAAA
        AAAAAAAAAAAAAAAAAAAAAAAAAAAAAAAAAAAAAHByb2cSAgAAcHJncCIAAAAQEDIEAQMAfwB/AEAAAQABAAAAAAAAAAAAfwAAAAAAAAAAcGdubTAAAABTaW1wbGUgM2sg
        VXAAAAAAgDi+X/9/AACwOEAVAQAAAPQ4vl//fwAA9OCqEgEAAABzdHAwQAAAAAAAAAAAAAAAAAAAAAAAAAAAAAAAAAAAAAAAAAAAAAAAAAAAAAAAAAAAAAAAAAAAAAAA
        AAAAAAAAAAAAAAAAAABzdHAxQAAAAAgICAgICAgICAgICAgICAgICAgICAgICAgICAgICAgICAgICAgICAgICAgICAgICAgICAgICAgICAgICAgICAhzdHAyQAAAAAEB
        AQEBAQEBAQEBAQEBAQEBAQEBAQEBAQEBAQEBAQEBAQEBAQEBAQEBAQEBAQEBAQEBAQEBAQEBAQEBAQEBAQFzdHAzQAAAAAQIEAQIEAQIEAQIEAQIEAgEBAQEBAQEBAQE
        BAQEBAQEBAQEBAQEBAQEBAQEBAQEBAQEBAQEBAQEBAQEBAQEBARzdHA0QAAAAGBgYGBgYGBgYGBgYGBgYGBgYGBgYGBgYGBgYGBgYGBgYGBgYGBgYGBgYGBgYGBgYGBg
        YGBgYGBgYGBgYGBgYGBzdHA1QAAAAAAAAAAAAAAAAAAAAAAAAAAAAAAAAAAAAAAAAAAAAAAAAAAAAAAAAAAAAAAAAAAAAAAAAAAAAAAAAAAAAAAAAABwcm9nEgIAAHBy
        Z3AiAAAAEBAyBAEDAH8AfwBAAAEAAQAAAAAAAAAAAH8AAAAAAAAAAHBnbm0wAAAAU2ltcGxlIDNrIERvd24AAIA4vl//fwAAsDhAFQEAAAD0OL5f/38AAPTgqhIBAAAA
        c3RwMEAAAAAAAAAAAAAAAAAAAAAAAAAAAAAAAAAAAAAAAAAAAAAAAAAAAAAAAAAAAAAAAAAAAAAAAAAAAAAAAAAAAAAAAAAAc3RwMUAAAAAICAgICAgICAgICAgICAgI
        CAgICAgICAgICAgICAgICAgICAgICAgICAgICAgICAgICAgICAgICAgICAgICAgIc3RwMkAAAAABAQEBAQEBAQEBAQEBAQEBAQEBAQEBAQEBAQEBAQEBAQEBAQEBAQEB
        AQEBAQEBAQEBAQEBAQEBAQEBAQEBAQEBc3RwM0AAAAAQCAQQCAQQCAQQCAQQCAQIBAQEBAQEBAQEBAQEBAQEBAQEBAQEBAQEBAQEBAQEBAQEBAQEBAQEBAQEBAQEBAQE
        c3RwNEAAAABgYGBgYGBgYGBgYGBgYGBgYGBgYGBgYGBgYGBgYGBgYGBgYGBgYGBgYGBgYGBgYGBgYGBgYGBgYGBgYGBgYGBgc3RwNUAAAAAAAAAAAAAAAAAAAAAAAAAA
        AAAAAAAAAAAAAAAAAAAAAAAAAAAAAAAAAAAAAAAAAAAAAAAAAAAAAAAAAAAAAAAAcHJvZxICAABwcmdwIgAAABAIWgQBAQB/AH8AQAABAAEAAAAAAAAAAAB/AAAAAAAA
        AABwZ25tMAAAAENob3JkIERlYWRtYXU1IHBsdWNrcyB2YXIxABUBAAAA9Di+X/9/AAD04KoSAQAAAHN0cDBAAAAAAAAAAAAAAAAAAAAAAAAAAAAAAAAAAAAAAAAAAAAA
        AAAAAAAAAAAAAAAAAAAAAAAAAAAAAAAAAAAAAAAAAAAAAHN0cDFAAAAACAgECAgIBAgICAgICAgICAgICAgICAgICAgICAgICAgICAgICAgICAgICAgICAgICAgICAgI
        CAgICAgICAgICHN0cDJAAAAABAAEAAQABAABAQEBAQEBAQEBAQEBAQEBAQEBAQEBAQEBAQEBAQEBAQEBAQEBAQEBAQEBAQEBAQEBAQEBAQEBAXN0cDNAAAAABAQEBAQE
        BAQEBAQEBAQEBAQEBAQEBAQEBAQEBAQEBAQEBAQEBAQEBAQEBAQEBAQEBAQEBAQEBAQEBAQEBAQEBHN0cDRAAAAAMGBgYDBgYGBgYGBgYGBgYGBgYGBgYGBgYGBgYGBg
        YGBgYGBgYGBgYGBgYGBgYGBgYGBgYGBgYGBgYGBgYGBgYHN0cDVAAAAAAAAAAAAAAAAAAAAAAAAAAAAAAAAAAAAAAAAAAAAAAAAAAAAAAAAAAAAAAAAAAAAAAAAAAAAA
        AAAAAAAAAAAAAHByb2cSAgAAcHJncCIAAAAQCFoEAQEAfwB/AEAAAQABAAAAAAAAAAAAfwEAAAAAAAAAcGdubTAAAABDaG9yZCBEZWFkbWF1NSBwbHVja3MgdmFyMgAV
        AQAAAPQ4vl//fwAA9OCqEgEAAABzdHAwQAAAAAAAAAAAAAAAAAAAAAAAAAAAAAAAAAAAAAAAAAAAAAAAAAAAAAAAAAAAAAAAAAAAAAAAAAAAAAAAAAAAAAAAAABzdHAx
        QAAAAAwIDggMCA4ICAgICAgICAgICAgICAgICAgICAgICAgICAgICAgICAgICAgICAgICAgICAgICAgICAgICAgICAhzdHAyQAAAAAQABAAEAAQAAQEBAQEBAQEBAQEB
        AQEBAQEBAQEBAQEBAQEBAQEBAQEBAQEBAQEBAQEBAQEBAQEBAQEBAQEBAQFzdHAzQAAAAAQEBAQEBAQEBAQEBAQEBAQEBAQEBAQEBAQEBAQEBAQEBAQEBAQEBAQEBAQE
        BAQEBAQEBAQEBAQEBAQEBAQEBARzdHA0QAAAADBgYGAwYGBgYGBgYGBgYGBgYGBgYGBgYGBgYGBgYGBgYGBgYGBgYGBgYGBgYGBgYGBgYGBgYGBgYGBgYGBgYGBzdHA1
        QAAAAAAAAAAAAAAAAAAAAAAAAAAAAAAAAAAAAAAAAAAAAAAAAAAAAAAAAAAAAAAAAAAAAAAAAAAAAAAAAAAAAAAAAABwcm9nEgIAAHByZ3AiAAAAEBBKBAEBAH8AfwBA
        AAEAAQAAAAAAAAAAAH8BAAAAAAAAAHBnbm0wAAAAUG9seXBob25pYyBvY3QuIFBsdWNrcyB2YXIxAAEAAAD0OL5f/38AAPTgqhIBAAAAc3RwMEAAAAAAAAAAAAAAAAAA
        AAAAAAAAAAAAAAAAAAAAAAAAAAAAAAAAAAAAAAAAAAAAAAAAAAAAAAAAAAAAAAAAAAAAAAAAc3RwMUAAAAAICAgMCAgICAgMCAgICAwICAgICAgICAgICAgICAgICAgI
        CAgICAgICAgICAgICAgICAgICAgICAgICAgICAgIc3RwMkAAAAAEAAAEAAAEAAAEAAAEAAQAAQEBAQEBAQEBAQEBAQEBAQEBAQEBAQEBAQEBAQEBAQEBAQEBAQEBAQEB
        AQEBAQEBc3RwM0AAAAAEBAQEBAQEBAQEBAQEBAQEBAQEBAQEBAQEBAQEBAQEBAQEBAQEBAQEBAQEBAQEBAQEBAQEBAQEBAQEBAQEBAQEc3RwNEAAAABgYGBgYGBgYGBg
        YGBgYGBgYGBgYGBgYGBgYGBgYGBgYGBgYGBgYGBgYGBgYGBgYGBgYGBgYGBgYGBgYGBgYGBgc3RwNUAAAAAAAAAAAAAAAAAAAAAAAAAAAAAAAAAAAAAAAAAAAAAAAAAA
        AAAAAAAAAAAAAAAAAAAAAAAAAAAAAAAAAAAAAAAAcHJvZxICAABwcmdwIgAAABAQSgQBAQB/AH8AQAABAAEAAAAAAAAAAAB/AQAAAAAAAABwZ25tMAAAAFBvbHlwaG9u
        aWMgb2N0LiBQbHVja3MgdmFyMgABAAAA9Di+X/9/AAD04KoSAQAAAHN0cDBAAAAAAAAAAAAAAAAAAAAAAAAAAAAAAAAAAAAAAAAAAAAAAAAAAAAAAAAAAAAAAAAAAAAA
        AAAAAAAAAAAAAAAAAAAAAHN0cDFAAAAADAgIDggIDAgIDggIDAgOCAgICAgICAgICAgICAgICAgICAgICAgICAgICAgICAgICAgICAgICAgICAgICAgICHN0cDJAAAAA
        BAAABAAABAAABAAABAAEAAEBAQEBAQEBAQEBAQEBAQEBAQEBAQEBAQEBAQEBAQEBAQEBAQEBAQEBAQEBAQEBAXN0cDNAAAAABAQEBAQEBAQEBAQEBAQEBAQEBAQEBAQE
        BAQEBAQEBAQEBAQEBAQEBAQEBAQEBAQEBAQEBAQEBAQEBAQEBAQEBHN0cDRAAAAAYGBgYGBgYGBgYGBgYGBgYGBgYGBgYGBgYGBgYGBgYGBgYGBgYGBgYGBgYGBgYGBg
        YGBgYGBgYGBgYGBgYGBgYHN0cDVAAAAAAAAAAAAAAAAAAAAAAAAAAAAAAAAAAAAAAAAAAAAAAAAAAAAAAAAAAAAAAAAAAAAAAAAAAAAAAAAAAAAAAAAAAHByb2cSAgAA
        cHJncCIAAAAQEDQEAQEAfwB/AEAAAQABAAAAAAAAAAAAfwEAAAAAAAAAcGdubTAAAABQb2x5cGhvbmljIG9jdC4gUGx1Y2tzIHZhcjMAAQAAAPQ4vl//fwAA9OCqEgEA
        AABzdHAwQAAAAAAAAAAAAAAAAAAAAAAAAAAAAAAAAAAAAAAAAAAAAAAAAAAAAAAAAAAAAAAAAAAAAAAAAAAAAAAAAAAAAAAAAABzdHAxQAAAAAwICA4ICAwICA4ICAwI
        DggICAgICAgICAgICAgICAgICAgICAgICAgICAgICAgICAgICAgICAgICAgICAgICAhzdHAyQAAAAAQCAgQCAgQCAgQCAgQCBAIBAQEBAQEBAQEBAQEBAQEBAQEBAQEB
        AQEBAQEBAQEBAQEBAQEBAQEBAQEBAQEBAQFzdHAzQAAAAAQEBAQEBAQEBAQEBAQEBAQEBAQEBAQEBAQEBAQEBAQEBAQEBAQEBAQEBAQEBAQEBAQEBAQEBAQEBAQEBAQE
        BARzdHA0QAAAAGBgYGBgYGBgYGBgYGBgYGBgYGBgYGBgYGBgYGBgYGBgYGBgYGBgYGBgYGBgYGBgYGBgYGBgYGBgYGBgYGBgYGBzdHA1QAAAAAAAAAAAAAAAAAAAAAAA
        AAAAAAAAAAAAAAAAAAAAAAAAAAAAAAAAAAAAAAAAAAAAAAAAAAAAAAAAAAAAAAAAAABwcm9nEgIAAHByZ3AiAAAAEBAyBAEBAH8AfwBAAAEAAQAAAAAAAAAAAH8AAAAA
        AAAAAHBnbm0wAAAAQXJwIENob3JkIEdhdGVkIDAxAF//fwAAsDhAFQEAAAD0OL5f/38AAPTgqhIBAAAAc3RwMEAAAAAAAAAAAAAAAAAAAAAAAAAAAAAAAAAAAAAAAAAA
        AAAAAAAAAAAAAAAAAAAAAAAAAAAAAAAAAAAAAAAAAAAAAAAAc3RwMUAAAAAICAgICAgICAgICAgICAgICAgICAgICAgICAgICAgICAgICAgICAgICAgICAgICAgICAgI
        CAgICAgICAgICAgIc3RwMkAAAAAEBAAEBAAEBAAEBAAEAAQAAQEBAQEBAQEBAQEBAQEBAQEBAQEBAQEBAQEBAQEBAQEBAQEBAQEBAQEBAQEBAQEBc3RwM0AAAAAEBAQE
        BAQEBAQEBAQEBAQEBAQEBAQEBAQEBAQEBAQEBAQEBAQEBAQEBAQEBAQEBAQEBAQEBAQEBAQEBAQEBAQEc3RwNEAAAABgYGBgYGBgYGBgYGBgYGBgYGBgYGBgYGBgYGBg
        YGBgYGBgYGBgYGBgYGBgYGBgYGBgYGBgYGBgYGBgYGBgYGBgc3RwNUAAAAAAAAAAAAAAAAAAAAAAAAAAAAAAAAAAAAAAAAAAAAAAAAAAAAAAAAAAAAAAAAAAAAAAAAAA
        AAAAAAAAAAAAAAAAcHJvZxICAABwcmdwIgAAABAQMgQBAQB/AH8AQAABAAEAAAAAAAAAAAB/AAAAAAAAAABwZ25tMAAAAEFycCBDaG9yZCBHYXRlZCAwMgBf/38AALA4
        QBUBAAAA9Di+X/9/AAD04KoSAQAAAHN0cDBAAAAAAAAAAAAAAAAAAAAAAAAAAAAAAAAAAAAAAAAAAAAAAAAAAAAAAAAAAAAAAAAAAAAAAAAAAAAAAAAAAAAAAAAAAHN0
        cDFAAAAACAgICAgICAgICAgICAgICAgICAgICAgICAgICAgICAgICAgICAgICAgICAgICAgICAgICAgICAgICAgICAgICHN0cDJAAAAABAAEAAQABAAEAAQAAAQABAEB
        AQEBAQEBAQEBAQEBAQEBAQEBAQEBAQEBAQEBAQEBAQEBAQEBAQEBAQEBAQEBAXN0cDNAAAAABAQEBAQEBAQEBAQEBAQEBAQEBAQEBAQEBAQEBAQEBAQEBAQEBAQEBAQE
        BAQEBAQEBAQEBAQEBAQEBAQEBAQEBHN0cDRAAAAAYGBgYGBgYGBgYGBgYGBgYGBgYGBgYGBgYGBgYGBgYGBgYGBgYGBgYGBgYGBgYGBgYGBgYGBgYGBgYGBgYGBgYHN0
        cDVAAAAAAAAAAAAAAAAAAAAAAAAAAAAAAAAAAAAAAAAAAAAAAAAAAAAAAAAAAAAAAAAAAAAAAAAAAAAAAAAAAAAAAAAAAHByb2cSAgAAcHJncCIAAAAQEDIEAQEAfwB/
        AEAAAQABAAAAAAAAAAAAfwAAAAAAAAAAcGdubTAAAABBcnAgQ2hvcmQgR2F0ZWQgMDMAX/9/AACwOEAVAQAAAPQ4vl//fwAA9OCqEgEAAABzdHAwQAAAAAAAAAAAAAAA
        AAAAAAAAAAAAAAAAAAAAAAAAAAAAAAAAAAAAAAAAAAAAAAAAAAAAAAAAAAAAAAAAAAAAAAAAAABzdHAxQAAAAAgICAgICAgICAgICAgICAgICAgICAgICAgICAgICAgI
        CAgICAgICAgICAgICAgICAgICAgICAgICAgICAgICAhzdHAyQAAAAAQEAAQEAAQEAAQEAAQABAABAQEBAQEBAQEBAQEBAQEBAQEBAQEBAQEBAQEBAQEBAQEBAQEBAQEB
        AQEBAQEBAQFzdHAzQAAAAAQEBAQEBAQEBAQEBAQEBAQEBAQEBAQEBAQEBAQEBAQEBAQEBAQEBAQEBAQEBAQEBAQEBAQEBAQEBAQEBAQEBARzdHA0QAAAAGBgYGBgYGBg
        YGBgYGBgYGBgYGBgYGBgYGBgYGBgYGBgYGBgYGBgYGBgYGBgYGBgYGBgYGBgYGBgYGBgYGBgYGBzdHA1QAAAAAAAAAAAAAAAAAAAAAAAAAAAAAAAAAAAAAAAAAAAAAAA
        AAAAAAAAAAAAAAAAAAAAAAAAAAAAAAAAAAAAAAAAAABwcm9nEgIAAHByZ3AiAAAAEBAyBAEDAH8AfwFAAAEAAQAAAAAAAAAAAH8AAAEAAAAAAHBnbm0wAAAAQXJwIDNr
        IFNTYXcgMDEgKFJhbW1zdGVpbikAFQEAAAD0OL5f/38AAPTgqhIBAAAAc3RwMEAAAAAAAAAAAAAAAAAAAAAAAAAAAAAAAAAAAAAAAAAAAAAAAAAAAAAAAAAAAAAAAAAA
        AAAAAAAAAAAAAAAAAAAAAAAAc3RwMUAAAAAICAgICAgICAgICAgICAgICAgICAgICAgICAgICAgICAgICAgICAgICAgICAgICAgICAgICAgICAgICAgICAgIc3RwMkAA
        AAABAQEBAQEBAQEBAQEBAQEBAQEBAQEBAQEBAQEBAQEBAQEBAQEBAQEBAQEBAQEBAQEBAQEBAQEBAQEBAQEBAQEBc3RwM0AAAAAQCAQQCAQQCAQQBBAIBBAIBAQEBAQE
        BAQEBAQEBAQEBAQEBAQEBAQEBAQEBAQEBAQEBAQEBAQEBAQEBAQEBAQEc3RwNEAAAABgYGBgYGBgYGBgYGBgYGBgYGBgYGBgYGBgYGBgYGBgYGBgYGBgYGBgYGBgYGBg
        YGBgYGBgYGBgYGBgYGBgYGBgc3RwNUAAAAAAAAAAAAAAAAAAAAAAAAAAAAAAAAAAAAAAAAAAAAAAAAAAAAAAAAAAAAAAAAAAAAAAAAAAAAAAAAAAAAAAAAAAcHJvZxIC
        AABwcmdwIgAAABAIOgQBAgB/AH8AQAABAAEAAAAAAAAAAAB/AAAAAAAAAABwZ25tMAAAAEFycCAzayBTdXBlclNhdyAwMgBf/38AALA4QBUBAAAA9Di+X/9/AAD04KoS
        AQAAAHN0cDBAAAAAAAAAAAAAAAAAAAAAAAAAAAAAAAAAAAAAAAAAAAAAAAAAAAAAAAAAAAAAAAAAAAAAAAAAAAAAAAAAAAAAAAAAAHN0cDFAAAAABAgIBAgIBAgICAgI
        CAgICAgICAgICAgICAgICAgICAgICAgICAgICAgICAgICAgICAgICAgICAgICAgICAgICHN0cDJAAAAAAQABAQEBAQEAAAAAAAAAAAEBAQEBAQEBAQEBAQEBAQEBAQEB
        AQEBAQEBAQEBAQEBAQEBAQEBAQEBAQEBAQEBAXN0cDNAAAAABAQQBAQIBBAEBAQEBAQEBAQEBAQEBAQEBAQEBAQEBAQEBAQEBAQEBAQEBAQEBAQEBAQEBAQEBAQEBAQE
        BAQEBHN0cDRAAAAAYGBgYGBgYGBgYGBgYGBgYGBgYGBgYGBgYGBgYGBgYGBgYGBgYGBgYGBgYGBgYGBgYGBgYGBgYGBgYGBgYGBgYHN0cDVAAAAAAAAAAAAAAAAAAAAA
        AAAAAAAAAAAAAAAAAAAAAAAAAAAAAAAAAAAAAAAAAAAAAAAAAAAAAAAAAAAAAAAAAAAAAHByb2cSAgAAcHJncCIAAAAQCDoEAQIAfwB/AEAAAQABAAAAAAAAAAAAfwAA
        AAAAAAAAcGdubTAAAABBcnAgM2sgU3VwZXJTYXcgMDMAX/9/AACwOEAVAQAAAPQ4vl//fwAA9OCqEgEAAABzdHAwQAAAAAAAAAAAAAAAAAAAAAAAAAAAAAAAAAAAAAAA
        AAAAAAAAAAAAAAAAAAAAAAAAAAAAAAAAAAAAAAAAAAAAAAAAAABzdHAxQAAAAAQICAQIBAgICAgICAgICAgICAgICAgICAgICAgICAgICAgICAgICAgICAgICAgICAgI
        CAgICAgICAgICAgICAhzdHAyQAAAAAEBAQEBAQEBAAAAAAAAAAABAQEBAQEBAQEBAQEBAQEBAQEBAQEBAQEBAQEBAQEBAQEBAQEBAQEBAQEBAQEBAQFzdHAzQAAAAAQQ
        CAQEBAgQBAQEBAQEBAQEBAQEBAQEBAQEBAQEBAQEBAQEBAQEBAQEBAQEBAQEBAQEBAQEBAQEBAQEBAQEBARzdHA0QAAAAGBgYGBgYGBgYGBgYGBgYGBgYGBgYGBgYGBg
        YGBgYGBgYGBgYGBgYGBgYGBgYGBgYGBgYGBgYGBgYGBgYGBgYGBzdHA1QAAAAAAAAAAAAAAAAAAAAAAAAAAAAAAAAAAAAAAAAAAAAAAAAAAAAAAAAAAAAAAAAAAAAAAA
        AAAAAAAAAAAAAAAAAABwcm9nEgIAAHByZ3AiAAAAEBA6BAEDAH8AfwBAAAEAAQAAAAAAAAAAAH8AAAIAAAAAAHBnbm0wAAAAQXJwIDJrIFN1cGVyU2F3IDA0AF//fwAA
        sDhAFQEAAAD0OL5f/38AAPTgqhIBAAAAc3RwMEAAAAAAAAAAAAAAAAAAAAAAAAABAAAAAAAAAAAAAAAAAAAAAAAAAAAAAAAAAAAAAAAAAAAAAAAAAAAAAAAAAAAAAAAA
        c3RwMUAAAAAICAQIBAgICAgIBAgICAQICAgICAgICAgICAgICAgICAgICAgICAgICAgICAgICAgICAgICAgICAgICAgICAgIc3RwMkAAAAABAgEAAQABAgECAQABAgEB
        AQEBAQEBAQEBAQEBAQEBAQEBAQEBAQEBAQEBAQEBAQEBAQEBAQEBAQEBAQEBAQEBc3RwM0AAAAAEBAQEBAQEBAgEBAQEBAQEBAQEBAQEBAQEBAQEBAQEBAQEBAQEBAQE
        BAQEBAQEBAQEBAQEBAQEBAQEBAQEBAQEc3RwNEAAAABgYGBgYGBgYGBgYGBgYGBgYGBgYGBgYGBgYGBgYGBgYGBgYGBgYGBgYGBgYGBgYGBgYGBgYGBgYGBgYGBgYGBg
        c3RwNUAAAAAAAAAAAAAAAAAAAAAAAAAAAAAAAAAAAAAAAAAAAAAAAAAAAAAAAAAAAAAAAAAAAAAAAAAAAAAAAAAAAAAAAAAAcHJvZxICAABwcmdwIgAAABAQOgQBAgB/
        AH8AQAABAAEAAAAAAAAAAAB/AAACAAAAAABwZ25tMAAAAEFycCAyayBTdXBlclNhdyAwNQBf/38AALA4QBUBAAAA9Di+X/9/AAD04KoSAQAAAHN0cDBAAAAAAAAAAAAA
        AAAAAAAAAAAAAAAAAAAAAAAAAAAAAAAAAAAAAAAAAAAAAAAAAAAAAAAAAAAAAAAAAAAAAAAAAAAAAHN0cDFAAAAACAQICAQICAgIBAgIBAgIBAgICAgICAgICAgICAgI
        CAgICAgICAgICAgICAgICAgICAgICAgICAgICAgICAgICHN0cDJAAAAAAQEBAQEBAQEBAQEBAQEBAQEBAQEBAQEBAQEBAQEBAQEBAQEBAQEBAQEBAQEBAQEBAQEBAQEB
        AQEBAQEBAQEBAXN0cDNAAAAACAQEEAQEEAQIBAQQBAQQBAQEBAQEBAQEBAQEBAQEBAQEBAQEBAQEBAQEBAQEBAQEBAQEBAQEBAQEBAQEBAQEBHN0cDRAAAAAYGBgYGBg
        YGBgYGBgYGBgYGBgYGBgYGBgYGBgYGBgYGBgYGBgYGBgYGBgYGBgYGBgYGBgYGBgYGBgYGBgYGBgYHN0cDVAAAAAAAAAAAAAAAAAAAAAAAAAAAAAAAAAAAAAAAAAAAAA
        AAAAAAAAAAAAAAAAAAAAAAAAAAAAAAAAAAAAAAAAAAAAAHByb2cSAgAAcHJncCIAAAAQBDgEAQEAfwB/AEAAAQABAAAAAAAAAAAAfwAAAAAAAAAAcGdubTAAAABBcnAg
        M2sgQmVuYXNzaSBJbGx1c2lvbgCwOEAVAQAAAPQ4vl//fwAA9OCqEgEAAABzdHAwQAAAAAAAAAAAAAAAAAAAAAAAAAAAAAAAAAAAAAAAAAAAAAAAAAAAAAAAAAAAAAAA
        AAAAAAAAAAAAAAAAAAAAAAAAAABzdHAxQAAAAAgICAgICAgICAgICAgICAgICAgICAgICAgICAgICAgICAgICAgICAgICAgICAgICAgICAgICAgICAgICAgICAhzdHAy
        QAAAAAEBBAEBAQEBAQEBAQEBAQEBAQEBAQEBAQEBAQEBAQEBAQEBAQEBAQEBAQEBAQEBAQEBAQEBAQEBAQEBAQEBAQFzdHAzQAAAAAQIBAgEBAQEBAQEBAQEBAQEBAQE
        BAQEBAQEBAQEBAQEBAQEBAQEBAQEBAQEBAQEBAQEBAQEBAQEBAQEBAQEBARzdHA0QAAAAGBgYGBgYGBgYGBgYGBgYGBgYGBgYGBgYGBgYGBgYGBgYGBgYGBgYGBgYGBg
        YGBgYGBgYGBgYGBgYGBgYGBgYGBzdHA1QAAAAAAAAAAAAAAAAAAAAAAAAAAAAAAAAAAAAAAAAAAAAAAAAAAAAAAAAAAAAAAAAAAAAAAAAAAAAAAAAAAAAAAAAABwcm9n
        EgIAAHByZ3AiAAAAEBAyBAEDAH8AfwBAAAEAAQAAAAAAAAAAAH8AAAAAAAAAAHBnbm0wAAAAQXJwIDRrIFNTYXcgMDcgKFlUIEludHJvKQBAFQEAAAD0OL5f/38AAPTg
        qhIBAAAAc3RwMEAAAAAAAAAAAAAAAAAAAAAAAAAAAAAAAAAAAAAAAAAAAAAAAAAAAAAAAAAAAAAAAAAAAAAAAAAAAAAAAAAAAAAAAAAAc3RwMUAAAAAECAgECAgICAQI
        CAQICAQICAgICAgICAgICAgICAgICAgICAgICAgICAgICAgICAgICAgICAgICAgICAgICAgIc3RwMkAAAAABAQEBAQEBAQEBAQEBAQEBAQEBAQEBAQEBAQEBAQEBAQEB
        AQEBAQEBAQEBAQEBAQEBAQEBAQEBAQEBAQEBAQEBc3RwM0AAAAAECBAEEAgQIAQgEAQECAQQBAQEBAQEBAQEBAQEBAQEBAQEBAQEBAQEBAQEBAQEBAQEBAQEBAQEBAQE
        BAQEBAQEc3RwNEAAAABgYGBgYGBgYGBgYGBgYGBgYGBgYGBgYGBgYGBgYGBgYGBgYGBgYGBgYGBgYGBgYGBgYGBgYGBgYGBgYGBgYGBgc3RwNUAAAAAAAAAAAAAAAAAA
        AAAAAAAAAAAAAAAAAAAAAAAAAAAAAAAAAAAAAAAAAAAAAAAAAAAAAAAAAAAAAAAAAAAAAAAAcHJvZxICAABwcmdwIgAAABAgPQQBAwB/AH8AQAABAAEAAAAAAAAAAAB/
        AAAAAAAAAABwZ25tMAAAAEFycCAzayBTU2F3IDA4ICgzMiBzdGVwcykAQBUBAAAA9Di+X/9/AAD04KoSAQAAAHN0cDBAAAAAAAAAAAAAAAAAAAAAAAAAAAAAAAAAAAAA
        AAAAAAAAAAAAAAAAAAAAAAAAAAAAAAAAAAAAAAAAAAAAAAAAAAAAAHN0cDFAAAAACAQIBAgECAQIBAgECAQIBAgECAQIBAgECAQIBAgECAgICAgICAgICAgICAgICAgI
        CAgICAgICAgICAgICAgICHN0cDJAAAAAAQEBAQEBAQEBAQEBAQEBAQEBAQEBAQEBAQEBAQEBAQEBAQEBAQEBAQEBAQEBAQEBAQEBAQEBAQEBAQEBAQEBAXN0cDNAAAAA
        BAQIBBAEBAQIBBAEBAQIBBAEBAQIBBAEBAQIBBAEEAgEBAQEBAQEBAQEBAQEBAQEBAQEBAQEBAQEBAQEBAQEBHN0cDRAAAAAYGBgYGBgYGBgYGBgYGBgYGBgYGBgYGBg
        YGBgYGBgYGBgYGBgYGBgYGBgYGBgYGBgYGBgYGBgYGBgYGBgYGBgYHN0cDVAAAAAAAAAAAAAAAAAAAAAAAAAAAAAAAAAAAAAAAAAAAAAAAAAAAAAAAAAAAAAAAAAAAAA
        AAAAAAAAAAAAAAAAAAAAAHByb2cSAgAAcHJncCIAAAAQEEUEAQIAfwB/AEAAAQABAAAAAAAAAAAAfwAAAAAAAAAAcGdubTAAAABBcnAgMmsgQ29tbXVuaWNhdGlvbiB2
        MQCwOEAVAQAAAPQ4vl//fwAA9OCqEgEAAABzdHAwQAAAAAAAAAAAAAAAAAAAAAAAAAAAAAAAAAAAAAAAAAAAAAAAAAAAAAAAAAAAAAAAAAAAAAAAAAAAAAAAAAAAAAAA
        AABzdHAxQAAAAAQECAQECAQECAQECAQECAQICAgICAgICAgICAgICAgICAgICAgICAgICAgICAgICAgICAgICAgICAgICAgICAhzdHAyQAAAAAEAAQABAQABAQABAQAB
        AQABAQEBAQEBAQEBAQEBAQEBAQEBAQEBAQEBAQEBAQEBAQEBAQEBAQEBAQEBAQEBAQFzdHAzQAAAAAQECAQECAQECAQECAQECAQEBAQEBAQEBAQEBAQEBAQEBAQEBAQE
        BAQEBAQEBAQEBAQEBAQEBAQEBAQEBAQEBARzdHA0QAAAAGBgYGBgYGBgYGBgYGBgYGBgYGBgYGBgYGBgYGBgYGBgYGBgYGBgYGBgYGBgYGBgYGBgYGBgYGBgYGBgYGBg
        YGBzdHA1QAAAAAAAAAAAAAAAAAAAAAAAAAAAAAAAAAAAAAAAAAAAAAAAAAAAAAAAAAAAAAAAAAAAAAAAAAAAAAAAAAAAAAAAAABwcm9nEgIAAHByZ3AiAAAAEBA8BAEC
        AH8AfwBAAAEAAQAAAAAAAAAAAH8AAAAAAAAAAHBnbm0wAAAAQXJwIDJrIENvbW11bmljYXRpb24gdjIAsDhAFQEAAAD0OL5f/38AAPTgqhIBAAAAc3RwMEAAAAAAAAAA
        AAAAAAAAAAAAAAAAAAAAAAAAAAAAAAAAAAAAAAAAAAAAAAAAAAAAAAAAAAAAAAAAAAAAAAAAAAAAAAAAc3RwMUAAAAACBAgCBAgCBAgCBAgCBAgECAgICAgICAgICAgI
        CAgICAgICAgICAgICAgICAgICAgICAgICAgICAgICAgICAgIc3RwMkAAAAABAQEBAQEBAQEBAQEBAQEBAQEBAQEBAQEBAQEBAQEBAQEBAQEBAQEBAQEBAQEBAQEBAQEB
        AQEBAQEBAQEBAQEBc3RwM0AAAAAEBAgEBAgEBAgEBAgEBAgEBAQEBAQEBAQEBAQEBAQEBAQEBAQEBAQEBAQEBAQEBAQEBAQEBAQEBAQEBAQEBAQEc3RwNEAAAABgYGBg
        YGBgYGBgYGBgYGBgYGBgYGBgYGBgYGBgYGBgYGBgYGBgYGBgYGBgYGBgYGBgYGBgYGBgYGBgYGBgYGBgc3RwNUAAAAAAAAAAAAAAAAAAAAAAAAAAAAAAAAAAAAAAAAAA
        AAAAAAAAAAAAAAAAAAAAAAAAAAAAAAAAAAAAAAAAAAAAAAAAcHJvZxICAABwcmdwIgAAABAQPQQBAQB/AH8AQAABAAEAAAAAAAAAAAB/AAAAAAAAAABwZ25tMAAAAEFy
        cCAyayBTdXBlclNhdyAxMSAoQmVuYXNzaSkAAAAA9Di+X/9/AAD04KoSAQAAAHN0cDBAAAAAAAAAAAAAAAAAAAAAAAAAAAAAAAAAAAAAAAAAAAAAAAAAAAAAAAAAAAAA
        AAAAAAAAAAAAAAAAAAAAAAAAAAAAAHN0cDFAAAAACAIECAIECAQIAgQIBAIIBAgCCAIIAgQIAgQIAggCBAIICAgICAgICAgICAgICAgICAgICAgICAgICAgICAgICHN0
        cDJAAAAAAQEBAQEBAQEBAQEBAQEBAQEBAQEBAQEBAQEBAQEBAQEBAQEBAQEBAQEBAQEBAQEBAQEBAQEBAQEBAQEBAQEBAXN0cDNAAAAACAQEEAQEEAQIBAQQBAQQBAgE
        BBAEBBAEBAQQBAQQBAQEBAQEBAQEBAQEBAQEBAQEBAQEBAQEBAQEBAQEBAQEBHN0cDRAAAAAYGBgYGBgYGBgYGBgYGBgYGBgYGBgYGBgYGBgYGBgYGBgYGBgYGBgYGBg
        YGBgYGBgYGBgYGBgYGBgYGBgYGBgYHN0cDVAAAAAAAAAAAAAAAAAAAAAAAAAAAAAAAAAAAAAAAAAAAAAAAAAAAAAAAAAAAAAAAAAAAAAAAAAAAAAAAAAAAAAAAAAAHBy
        b2cSAgAAcHJncCIAAAAQEDUEAQMAfwB/AEAAAQABAAAAAAAAAAAAfwAAAAAAAAAAcGdubTAAAABBcnAgMmsgU3VwZXJTYXcgMTIAX/9/AACwOEAVAQAAAPQ4vl//fwAA
        9OCqEgEAAABzdHAwQAAAAAAAAAAAAAAAAAAAAAAAAAAAAAAAAAAAAAAAAAAAAAAAAAAAAAAAAAAAAAAAAAAAAAAAAAAAAAAAAAAAAAAAAABzdHAxQAAAAAgCCAIIAgQI
        AgQIAggCBAIICAgICAgICAgICAgICAgICAgICAgICAgICAgICAgICAgICAgICAgICAgICAgICAhzdHAyQAAAAAEBAQEBAQEBAQEBAQEBAQEBAQEBAQEBAQEBAQEBAQEB
        AQEBAQEBAQEBAQEBAQEBAQEBAQEBAQEBAQEBAQEBAQFzdHAzQAAAABAECAQIBAQQBAQIBAgEBAQEBAQEBAQEBAQEBAQEBAQEBAQEBAQEBAQEBAQEBAQEBAQEBAQEBAQE
        BAQEBAQEBARzdHA0QAAAAGBgYGBgYGBgYGBgYGBgYGBgYGBgYGBgYGBgYGBgYGBgYGBgYGBgYGBgYGBgYGBgYGBgYGBgYGBgYGBgYGBgYGBzdHA1QAAAAAAAAAAAAAAA
        AAAAAAAAAAAAAAAAAAAAAAAAAAAAAAAAAAAAAAAAAAAAAAAAAAAAAAAAAAAAAAAAAAAAAAAAAABwcm9nEgIAAHByZ3AiAAAAEBBkBAECAH8AfwBNAAEAAQkAAAAAAAAA
        AH8AAAAAAAAAAHBnbm0wAAAAQXJwIDJrIFN1cGVyU2F3IDEzIChwaHJlYXF1ZSkAAAD0OL5f/38AAPTgqhIBAAAAc3RwMEAAAAAAAAAAAAAAAAAAAAAAAAAAAAAAAAAA
        AAAAAAAAAAAAAAAAAAAAAAAAAAAAAAAAAAAAAAAAAAAAAAAAAAAAAAAAc3RwMUAAAAAECAQECAQEBAQIBAQIBAgECAgICAgICAgICAgICAgICAgICAgICAgICAgICAgI
        CAgICAgICAgICAgICAgICAgIc3RwMkAAAAABAQEBAQABAQABAQABAQEBAQEBAQEBAQEBAQEBAQEBAQEBAQEBAQEBAQEBAQEBAQEBAQEBAQEBAQEBAQEBAQEBc3RwM0AA
        AAAECAQgCAQQBAQIBAQIBBAEBAQEBAQEBAQEBAQEBAQEBAQEBAQEBAQEBAQEBAQEBAQEBAQEBAQEBAQEBAQEBAQEc3RwNEAAAABwUEBgUFB/YEBQYGBwYFBwYGBgYGBg
        YGBgYGBgYGBgYGBgYGBgYGBgYGBgYGBgYGBgYGBgYGBgYGBgYGBgYGBgc3RwNUAAAAAAAAAAAAAAAAAAAAAAAAAAAAAAAAAAAAAAAAAAAAAAAAAAAAAAAAAAAAAAAAAA
        AAAAAAAAAAAAAAAAAAAAAAAAcHJvZxICAABwcmdwIgAAABAIHwYBAQB/AH8AQAABAAEAAAAAAAAAAAB/AAAAAAAAAABwZ25tMAAAAEFycCAzayBCZWxscyAwMQCAOL5f
        /38AALA4QBUBAAAA9Di+X/9/AAD04KoSAQAAAHN0cDBAAAAAAAAAAAAAAAAAAAAAAAAAAAAAAAAAAAAAAAAAAAAAAAAAAAAAAAAAAAAAAAAAAAAAAAAAAAAAAAAAAAAA
        AAAAAHN0cDFAAAAACAgICAgICAgICAgICAgICAgICAgICAgICAgICAgICAgICAgICAgICAgICAgICAgICAgICAgICAgICAgICAgICHN0cDJAAAAAAQEBAQEBAQEBAQEB
        AQEBAQEBAQEBAQEBAQEBAQEBAQEBAQEBAQEBAQEBAQEBAQEBAQEBAQEBAQEBAQEBAQEBAXN0cDNAAAAAEAQIBBAECAQEBAQEBAQEBAQEBAQEBAQEBAQEBAQEBAQEBAQE
        BAQEBAQEBAQEBAQEBAQEBAQEBAQEBAQEBAQEBHN0cDRAAAAAYGBgUGBgYFBgYGBgYGBgYGBgYGBgYGBgYGBgYGBgYGBgYGBgYGBgYGBgYGBgYGBgYGBgYGBgYGBgYGBg
        YGBgYHN0cDVAAAAAAAAAAAAAAAAAAAAAAAAAAAAAAAAAAAAAAAAAAAAAAAAAAAAAAAAAAAAAAAAAAAAAAAAAAAAAAAAAAAAAAAAAAHByb2cSAgAAcHJncCIAAAAQCB8G
        AQEAfwB/AEAAAQABAAAAAAAAAAAAfwAAAAAAAAAAcGdubTAAAABBcnAgM2sgQmVsbHMgMDIAgDi+X/9/AACwOEAVAQAAAPQ4vl//fwAA9OCqEgEAAABzdHAwQAAAAAAA
        AAAAAAAAAAAAAAAAAAAAAAAAAAAAAAAAAAAAAAAAAAAAAAAAAAAAAAAAAAAAAAAAAAAAAAAAAAAAAAAAAABzdHAxQAAAAAgICAgICAgICAgICAgICAgICAgICAgICAgI
        CAgICAgICAgICAgICAgICAgICAgICAgICAgICAgICAgICAgICAhzdHAyQAAAAAEBAQEBAQEBAQEBAQEBAQEBAQEBAQEBAQEBAQEBAQEBAQEBAQEBAQEBAQEBAQEBAQEB
        AQEBAQEBAQEBAQEBAQFzdHAzQAAAABAIBBAIBBAIBAQEBAQEBAQEBAQEBAQEBAQEBAQEBAQEBAQEBAQEBAQEBAQEBAQEBAQEBAQEBAQEBAQEBAQEBARzdHA0QAAAAGBg
        YGBgYGBgYGBgYGBgYGBgYGBgYGBgYGBgYGBgYGBgYGBgYGBgYGBgYGBgYGBgYGBgYGBgYGBgYGBgYGBgYGBzdHA1QAAAAAAAAAAAAAAAAAAAAAAAAAAAAAAAAAAAAAAA
        AAAAAAAAAAAAAAAAAAAAAAAAAAAAAAAAAAAAAAAAAAAAAAAAAABwcm9nEgIAAHByZ3AiAAAAEAhNBgEDAH8AfwBNAAEAAQAAAAAAAAAAAH8AAAIAAAAAAHBnbm0wAAAA
        QXJwIDJrIFNvZnRCZWxscyAwMQD/fwAAsDhAFQEAAAD0OL5f/38AAPTgqhIBAAAAc3RwMEAAAAAAAAAAAAAAAAAAAAAAAAAAAAAAAAAAAAAAAAAAAAAAAAAAAAAAAAAA
        AAAAAAAAAAAAAAAAAAAAAAAAAAAAAAAAc3RwMUAAAAAECAgIBAgIEAgICAgICAgICAgICAgICAgICAgICAgICAgICAgICAgICAgICAgICAgICAgICAgICAgICAgICAgI
        c3RwMkAAAAABAQEBAQEBAQEBAQEBAQEBAQEBAQEBAQEBAQEBAQEBAQEBAQEBAQEBAQEBAQEBAQEBAQEBAQEBAQEBAQEBAQEBc3RwM0AAAAAEBAgQBAQIBAQEBAQEBAQE
        BAQEBAQEBAQEBAQEBAQEBAQEBAQEBAQEBAQEBAQEBAQEBAQEBAQEBAQEBAQEBAQEc3RwNEAAAABgYGBgYGBgYGBgYGBgYGBgYGBgYGBgYGBgYGBgYGBgYGBgYGBgYGBg
        YGBgYGBgYGBgYGBgYGBgYGBgYGBgYGBgc3RwNUAAAAAAAAAAAAAAAAAAAAAAAAAAAAAAAAAAAAAAAAAAAAAAAAAAAAAAAAAAAAAAAAAAAAAAAAAAAAAAAAAAAAAAAAAA
        cHJvZxICAABwcmdwIgAAABAIQgYBAwB/AH8AQAABAAEAAAAAAAAAAAB/AAACAAAAAABwZ25tMAAAAEFycCAyayBTb2Z0QmVsbHMgMDIA/38AALA4QBUBAAAA9Di+X/9/
        AAD04KoSAQAAAHN0cDBAAAAAAAAAAAAAAAAAAAAAAAAAAAAAAAAAAAAAAAAAAAAAAAAAAAAAAAAAAAAAAAAAAAAAAAAAAAAAAAAAAAAAAAAAAHN0cDFAAAAABBAICAQQ
        CAgICAgICAgICAgICAgICAgICAgICAgICAgICAgICAgICAgICAgICAgICAgICAgICAgICAgICAgICHN0cDJAAAAAAQEBAQEBAQEBAQEBAQEBAQEBAQEBAQEBAQEBAQEB
        AQEBAQEBAQEBAQEBAQEBAQEBAQEBAQEBAQEBAQEBAQEBAXN0cDNAAAAABAQECAQEBBAEBAQEBAQEBAQEBAQEBAQEBAQEBAQEBAQEBAQEBAQEBAQEBAQEBAQEBAQEBAQE
        BAQEBAQEBAQEBHN0cDRAAAAAYGBgYGBgYGBgYGBgYGBgYGBgYGBgYGBgYGBgYGBgYGBgYGBgYGBgYGBgYGBgYGBgYGBgYGBgYGBgYGBgYGBgYHN0cDVAAAAAAAAAAAAA
        AAAAAAAAAAAAAAAAAAAAAAAAAAAAAAAAAAAAAAAAAAAAAAAAAAAAAAAAAAAAAAAAAAAAAAAAAAAAAHByb2cSAgAAcHJncCIAAAAQEEgEAQEAfwB/AEAAAQABAAAAAAAA
        AAAAfwAAAAAAAAAAcGdubTAAAABTZXEgMmsgQWNpZE1vbm8gMDEAX/9/AACwOEAVAQAAAPQ4vl//fwAA9OCqEgEAAABzdHAwQAAAAAAAAAAAAAAAAAAAAAAAAQAAAAAA
        AAAAAAAAAAAAAAAAAAAAAAAAAAAAAAAAAAAAAAAAAAAAAAAAAAAAAAAAAABzdHAxQAAAAAQIBAQIBAgICAQICAgECAgICAgICAgICAgICAgICAgICAgICAgICAgICAgI
        CAgICAgICAgICAgICAgICAgICAhzdHAyQAAAAAEAAQAAAQMAAQEAAQABAwABAQEBAQEBAQEBAQEBAQEBAQEBAQEBAQEBAQEBAQEBAQEBAQEBAQEBAQEBAQEBAQFzdHAz
        QAAAAAQEBAQEBAQEBAQEBAQEBAQEBAQEBAQEBAQEBAQEBAQEBAQEBAQEBAQEBAQEBAQEBAQEBAQEBAQEBAQEBAQEBARzdHA0QAAAAGBgYGBgYGBgYGBgYGBgYGBgYGBg
        YGBgYGBgYGBgYGBgYGBgYGBgYGBgYGBgYGBgYGBgYGBgYGBgYGBgYGBgYGBzdHA1QAAAAAAAAAAAAAAAAAAAAAAAAAAAAAAAAAAAAAAAAAAAAAAAAAAAAAAAAAAAAAAA
        AAAAAAAAAAAAAAAAAAAAAAAAAABwcm9nEgIAAHByZ3AiAAAAEBBCBAECAH8AfwBAAAEAAQAAAAAAAAAAAH8AAAIAAAAAAHBnbm0wAAAAU2VxIDJrIEFjaWRNb25vIDAy
        AF//fwAAsDhAFQEAAAD0OL5f/38AAPTgqhIBAAAAc3RwMEAAAAAAAAAAAAAABwAAAAAAAAAAAAAAAAAAAAAAAAAAAAAAAAAAAAAAAAAAAAAAAAAAAAAAAAAAAAAAAAAA
        AAAAAAAAc3RwMUAAAAAECAgECAgIBAgEBAgECAgECAgICAgICAgICAgICAgICAgICAgICAgICAgICAgICAgICAgICAgICAgICAgICAgIc3RwMkAAAAABAAABAAABAwAB
        AwABAgEDAQEBAQEBAQEBAQEBAQEBAQEBAQEBAQEBAQEBAQEBAQEBAQEBAQEBAQEBAQEBAQEBc3RwM0AAAAAEBAQEBAQEBAQECAQEBAQIBAQEBAQEBAQEBAQEBAQEBAQE
        BAQEBAQEBAQEBAQEBAQEBAQEBAQEBAQEBAQEBAQEc3RwNEAAAABgYGBgYGBgYGBgYGBgYGBgYGBgYGBgYGBgYGBgYGBgYGBgYGBgYGBgYGBgYGBgYGBgYGBgYGBgYGBg
        YGBgYGBgc3RwNUAAAAAAAAAAAAAAAAAAAAAAAAAAAAAAAAAAAAAAAAAAAAAAAAAAAAAAAAAAAAAAAAAAAAAAAAAAAAAAAAAAAAAAAAAAcHJvZxICAABwcmdwIgAAABAQ
        OgQBAQB/AH8AQAABAAEAAAAAAAAAAAB/AAAAAAAAAABwZ25tMAAAAFNlcSAyayBBY2lkTW9ubyAwMwBf/38AALA4QBUBAAAA9Di+X/9/AAD04KoSAQAAAHN0cDBAAAAA
        AAAAAAAAAAAAAAAAAAAAAAAAAAAAAAAAAAAAAAAAAAAAAAAAAAAAAAAAAAAAAAAAAAAAAAAAAAAAAAAAAAAAAHN0cDFAAAAACAQIEAQICAgECAgIBAgECAgICAgICAgI
        CAgICAgICAgICAgICAgICAgICAgICAgICAgICAgICAgICAgICAgICHN0cDJAAAAAAQEBAwEBAwMBAwEDAQIBAQEBAQEBAQEBAQEBAQEBAQEBAQEBAQEBAQEBAQEBAQEB
        AQEBAQEBAQEBAQEBAQEBAXN0cDNAAAAABAQEBAQECAQEBAQIBAQECAQEBAQEBAQEBAQEBAQEBAQEBAQEBAQEBAQEBAQEBAQEBAQEBAQEBAQEBAQEBAQEBHN0cDRAAAAA
        YGBgYGBgYGBgYGBgYGBgYGBgYGBgYGBgYGBgYGBgYGBgYGBgYGBgYGBgYGBgYGBgYGBgYGBgYGBgYGBgYGBgYHN0cDVAAAAAAAAAAAAAAAAAAAAAAAAAAAAAAAAAAAAA
        AAAAAAAAAAAAAAAAAAAAAAAAAAAAAAAAAAAAAAAAAAAAAAAAAAAAAHByb2cSAgAAcHJncCIAAAAQEDoEAQEAfwB/AEAAAQABAAAAAAAAAAAAfwAAAAAAAAAAcGdubTAA
        AABTZXEgMmsgQWNpZE1vbm8gMDQAX/9/AACwOEAVAQAAAPQ4vl//fwAA9OCqEgEAAABzdHAwQAAAAAAAAAAAAAAAAAAAAAAAAQAAAAAAAAAAAAAAAAAAAAAAAAAAAAAA
        AAAAAAAAAAAAAAAAAAAAAAAAAAAAAAAAAABzdHAxQAAAAAgQCAQICAQICAgECAQICAQICAgICAgICAgICAgICAgICAgICAgICAgICAgICAgICAgICAgICAgICAgICAgI
        CAhzdHAyQAAAAAEBAwEBAwEDAQMBAQEBAQEBAQEBAQEBAQEBAQEBAQEBAQEBAQEBAQEBAQEBAQEBAQEBAQEBAQEBAQEBAQEBAQFzdHAzQAAAAAQEBAQIBAQEBAgEBAQI
        BAQEBAQEBAQEBAQEBAQEBAQEBAQEBAQEBAQEBAQEBAQEBAQEBAQEBAQEBAQEBAQEBARzdHA0QAAAAGBgYGBgYGBgYGBgYGBgYGBgYGBgYGBgYGBgYGBgYGBgYGBgYGBg
        YGBgYGBgYGBgYGBgYGBgYGBgYGBgYGBgYGBzdHA1QAAAAAAAAAAAAAAAAAAAAAAAAAAAAAAAAAAAAAAAAAAAAAAAAAAAAAAAAAAAAAAAAAAAAAAAAAAAAAAAAAAAAAAA
        AABwcm9nEgIAAHByZ3AiAAAAEARIBAEBAH8AfwBAAAEAAQAAAAAAAAAAAH8AAAAAAAAAAHBnbm0wAAAAQmFzcyAxayBTaW1wbGUgMDEAvl//fwAAsDhAFQEAAAD0OL5f
        /38AAPTgqhIBAAAAc3RwMEAAAAAAAAAAAAAAAAAAAAAAAAAAAAAAAAAAAAAAAAAAAAAAAAAAAAAAAAAAAAAAAAAAAAAAAAAAAAAAAAAAAAAAAAAAc3RwMUAAAAAEBAgI
        CAgICAgICAgICAgICAgICAgICAgICAgICAgICAgICAgICAgICAgICAgICAgICAgICAgICAgICAgICAgIc3RwMkAAAAABAgEBAQEBAQEBAQEBAQEBAQEBAQEBAQEBAQEB
        AQEBAQEBAQEBAQEBAQEBAQEBAQEBAQEBAQEBAQEBAQEBAQEBc3RwM0AAAAAEBAQEBAQEBAQEBAQEBAQEBAQEBAQEBAQEBAQEBAQEBAQEBAQEBAQEBAQEBAQEBAQEBAQE
        BAQEBAQEBAQEBAQEc3RwNEAAAABgYGBgYGBgYGBgYGBgYGBgYGBgYGBgYGBgYGBgYGBgYGBgYGBgYGBgYGBgYGBgYGBgYGBgYGBgYGBgYGBgYGBgc3RwNUAAAAAAAAAA
        AAAAAAAAAAAAAAAAAAAAAAAAAAAAAAAAAAAAAAAAAAAAAAAAAAAAAAAAAAAAAAAAAAAAAAAAAAAAAAAAcHJvZxICAABwcmdwIgAAABAESAQBAQB/AH8AQAABAAEAAAAA
        AAAAAAB/AAAAAAAAAABwZ25tMAAAAEJhc3MgMWsgU2ltcGxlIDAyAL5f/38AALA4QBUBAAAA9Di+X/9/AAD04KoSAQAAAHN0cDBAAAAAAAAAAAAAAAAAAAAAAAAAAAAA
        AAAAAAAAAAAAAAAAAAAAAAAAAAAAAAAAAAAAAAAAAAAAAAAAAAAAAAAAAAAAAHN0cDFAAAAABAQICAgICAgICAgICAgICAgICAgICAgICAgICAgICAgICAgICAgICAgI
        CAgICAgICAgICAgICAgICAgICAgICHN0cDJAAAAAAQEBAQEBAQEBAQEBAQEBAQEBAQEBAQEBAQEBAQEBAQEBAQEBAQEBAQEBAQEBAQEBAQEBAQEBAQEBAQEBAQEBAXN0
        cDNAAAAABAQEBAQEBAQEBAQEBAQEBAQEBAQEBAQEBAQEBAQEBAQEBAQEBAQEBAQEBAQEBAQEBAQEBAQEBAQEBAQEBAQEBHN0cDRAAAAAYGBgYGBgYGBgYGBgYGBgYGBg
        YGBgYGBgYGBgYGBgYGBgYGBgYGBgYGBgYGBgYGBgYGBgYGBgYGBgYGBgYGBgYHN0cDVAAAAAAAAAAAAAAAAAAAAAAAAAAAAAAAAAAAAAAAAAAAAAAAAAAAAAAAAAAAAA
        AAAAAAAAAAAAAAAAAAAAAAAAAAAAAHByb2cSAgAAcHJncCIAAAAQBEgEAQEAfwB/AEAAAQABAAAAAAAAAAAAfwAAAAAAAAAAcGdubTAAAABCYXNzIDFrIFNpbXBsZSAw
        MwC+X/9/AACwOEAVAQAAAPQ4vl//fwAA9OCqEgEAAABzdHAwQAAAAAAAAAAAAAAAAAAAAAAAAAAAAAAAAAAAAAAAAAAAAAAAAAAAAAAAAAAAAAAAAAAAAAAAAAAAAAAA
        AAAAAAAAAABzdHAxQAAAAAQECAgICAgICAgICAgICAgICAgICAgICAgICAgICAgICAgICAgICAgICAgICAgICAgICAgICAgICAgICAgICAhzdHAyQAAAAAECAQIBAQEB
        AQEBAQEBAQEBAQEBAQEBAQEBAQEBAQEBAQEBAQEBAQEBAQEBAQEBAQEBAQEBAQEBAQEBAQEBAQFzdHAzQAAAAAQEBAQEBAQEBAQEBAQEBAQEBAQEBAQEBAQEBAQEBAQE
        BAQEBAQEBAQEBAQEBAQEBAQEBAQEBAQEBAQEBAQEBARzdHA0QAAAAGBgYGBgYGBgYGBgYGBgYGBgYGBgYGBgYGBgYGBgYGBgYGBgYGBgYGBgYGBgYGBgYGBgYGBgYGBg
        YGBgYGBgYGBzdHA1QAAAAAAAAAAAAAAAAAAAAAAAAAAAAAAAAAAAAAAAAAAAAAAAAAAAAAAAAAAAAAAAAAAAAAAAAAAAAAAAAAAAAAAAAABwcm9nEgIAAHByZ3AiAAAA
        EARIBAEBAH8AfwBAAAEAAQAAAAAAAAAAAH8AAAAAAAAAAHBnbm0wAAAAQmFzcyAxayBTaW1wbGUgMDQAvl//fwAAsDhAFQEAAAD0OL5f/38AAPTgqhIBAAAAc3RwMEAA
        AAAAAAAAAAAAAAAAAAAAAAAAAAAAAAAAAAAAAAAAAAAAAAAAAAAAAAAAAAAAAAAAAAAAAAAAAAAAAAAAAAAAAAAAc3RwMUAAAAAICAgICAgICAgICAgICAgICAgICAgI
        CAgICAgICAgICAgICAgICAgICAgICAgICAgICAgICAgICAgICAgICAgIc3RwMkAAAAAAAAEAAQEBAQEBAQEBAQEBAQEBAQEBAQEBAQEBAQEBAQEBAQEBAQEBAQEBAQEB
        AQEBAQEBAQEBAQEBAQEBAQEBc3RwM0AAAAAEBAQEBAQEBAQEBAQEBAQEBAQEBAQEBAQEBAQEBAQEBAQEBAQEBAQEBAQEBAQEBAQEBAQEBAQEBAQEBAQEBAQEc3RwNEAA
        AABgYGBgYGBgYGBgYGBgYGBgYGBgYGBgYGBgYGBgYGBgYGBgYGBgYGBgYGBgYGBgYGBgYGBgYGBgYGBgYGBgYGBgc3RwNUAAAAAAAAAAAAAAAAAAAAAAAAAAAAAAAAAA
        AAAAAAAAAAAAAAAAAAAAAAAAAAAAAAAAAAAAAAAAAAAAAAAAAAAAAAAAcHJvZxICAABwcmdwIgAAABAIZAQBAQB/AH8AQAABAAEAAAAAAAAAAAB/AAAAAAAAAABwZ25t
        MAAAAEJhc3MgMWsgRHJpZnQgb2ZmYmVhdAAAALA4QBUBAAAA9Di+X/9/AAD04KoSAQAAAHN0cDBAAAAAAAAAAAAAAAAAAAAAAAAAAAAAAAAAAAAAAAAAAAAAAAAAAAAA
        AAAAAAAAAAAAAAAAAAAAAAAAAAAAAAAAAAAAAHN0cDFAAAAACAgICAgICAgICAgICAgICAgICAgICAgICAgICAgICAgICAgICAgICAgICAgICAgICAgICAgICAgICAgI
        CAgICHN0cDJAAAAAAAAAAQAAAQIAAAABAAABAgEBAQEBAQEBAQEBAQEBAQEBAQEBAQEBAQEBAQEBAQEBAQEBAQEBAQEBAQEBAQEBAXN0cDNAAAAABAQEBAQEBAQEBAQE
        BAQEBAQEBAQEBAQEBAQEBAQEBAQEBAQEBAQEBAQEBAQEBAQEBAQEBAQEBAQEBAQEBAQEBHN0cDRAAAAAYGBgYGBgYGBgYGBgYGBgYGBgYGBgYGBgYGBgYGBgYGBgYGBg
        YGBgYGBgYGBgYGBgYGBgYGBgYGBgYGBgYGBgYHN0cDVAAAAAAAAAAAAAAAAAAAAAAAAAAAAAAAAAAAAAAAAAAAAAAAAAAAAAAAAAAAAAAAAAAAAAAAAAAAAAAAAAAAAA
        AAAAAHByb2cSAgAAcHJncCIAAAAQCF8EAQEAfwB/AEAAAQABAAAAAAAAAAAAfwAAAAAAAAAAcGdubTAAAABCYXNzIDFrIFRyaXBsZSBkcmlmdCBvZmZiZWF0AAAAAPQ4
        vl//fwAA9OCqEgEAAABzdHAwQAAAAAAAAAAAAAAAAAAAAAAAAAAAAAAAAAAAAAAAAAAAAAAAAAAAAAAAAAAAAAAAAAAAAAAAAAAAAAAAAAAAAAAAAABzdHAxQAAAAAgI
        CAgICAgICAgICAgICAgICAgICAgICAgICAgICAgICAgICAgICAgICAgICAgICAgICAgICAgICAgICAgICAhzdHAyQAAAAAABAAEAAAECAQEBAQEBAQEBAQEBAQEBAQEB
        AQEBAQEBAQEBAQEBAQEBAQEBAQEBAQEBAQEBAQEBAQEBAQEBAQFzdHAzQAAAAAQEBAQEBAQEBAQEBAQEBAQEBAQEBAQEBAQEBAQEBAQEBAQEBAQEBAQEBAQEBAQEBAQE
        BAQEBAQEBAQEBAQEBARzdHA0QAAAAGBgYGBgYGBgYGBgYGBgYGBAQEBAQEBAQEBAQEBAQEBAQEBAQEBAQEBAQEBAQEBAQEBAQEBAQEBAQEBAQEBAQEBzdHA1QAAAAAAA
        AAAAAAAAAAAAAAAAAAAAAAAAAAAAAAAAAAAAAAAAAAAAAAAAAAAAAAAAAAAAAAAAAAAAAAAAAAAAAAAAAABwcm9nEgIAAHByZ3AiAAAAEBBIBAEBAH8AfwBAAAEAAQAA
        AAAAAAAAAH8AAAAAAAAAAHBnbm0wAAAAQmFzcyAxayBUZWNobm8gMDEAvl//fwAAsDhAFQEAAAD0OL5f/38AAPTgqhIBAAAAc3RwMEAAAAAAAAAAAAAAAAAAAAAAAAAA
        AAAAAAAAAAAAAAAAAAAAAAAAAAAAAAAAAAAAAAAAAAAAAAAAAAAAAAAAAAAAAAAAc3RwMUAAAAAICAgICAgICAgICAgICAgICAgICAgICAgICAgICAgICAgICAgICAgI
        CAgICAgICAgICAgICAgICAgICAgICAgIc3RwMkAAAAABAQABAQABAQABAQABAAEAAQEBAQEBAQEBAQEBAQEBAQEBAQEBAQEBAQEBAQEBAQEBAQEBAQEBAQEBAQEBAQEB
        c3RwM0AAAAAEBAQEBAQEBAQEBAQEBAQEBAQEBAQEBAQEBAQEBAQEBAQEBAQEBAQEBAQEBAQEBAQEBAQEBAQEBAQEBAQEBAQEc3RwNEAAAABgYGBgYGBgYGBgYGBgYGBg
        YGBgYGBgYGBgYGBgYGBgYGBgYGBgYGBgYGBgYGBgYGBgYGBgYGBgYGBgYGBgYGBgc3RwNUAAAAAAAAAAAAAAAAAAAAAAAAAAAAAAAAAAAAAAAAAAAAAAAAAAAAAAAAAA
        AAAAAAAAAAAAAAAAAAAAAAAAAAAAAAAAcHJvZxICAABwcmdwIgAAABAgSAQBAQB/AH8AQAABAAEAAAAAAAAAAAB/AAAAAAAAAABwZ25tMAAAAEJhc3MgMWsgVGVjaG5v
        IDAyICgzMiBzdGVwcykAAAAA9Di+X/9/AAD04KoSAQAAAHN0cDBAAAAAAAAAAAAAAAAAAAAAAAAAAAAAAAAAAAAAAAAAAAAAAAAAAAAAAAAAAAAAAAAAAAAAAAAAAAAA
        AAAAAAAAAAAAAHN0cDFAAAAACAgICAgICAgICAgICAgICAgICAgICAgICAgICAgICAgICAgICAgICAgICAgICAgICAgICAgICAgICAgICAgICHN0cDJAAAAAAAABAAAA
        AQAAAAEAAAABAAAAAQAAAAEAAAABAAABAAEBAQEBAQEBAQEBAQEBAQEBAQEBAQEBAQEBAQEBAQEBAXN0cDNAAAAABAQEBAQEBAQEBAQEBAQEBAQEBAQEBAQEBAQEBAQE
        BAQEBAQEBAQEBAQEBAQEBAQEBAQEBAQEBAQEBAQEBAQEBHN0cDRAAAAAYGBgYGBgYGBgYGBgYGBgYGBgYGBgYGBgYGBgYGBgYGBgYGBgYGBgYGBgYGBgYGBgYGBgYGBg
        YGBgYGBgYGBgYHN0cDVAAAAAAAAAAAAAAAAAAAAAAAAAAAAAAAAAAAAAAAAAAAAAAAAAAAAAAAAAAAAAAAAAAAAAAAAAAAAAAAAAAAAAAAAAAHByb2cSAgAAcHJncCIA
        AAAQEE8EAQIAfwB/AEAAAQABAAAAAAAAAAAAfwAAAAAAAAAAcGdubTAAAABCYXNzIDJrIFRlY2hubyAwMwC+X/9/AACwOEAVAQAAAPQ4vl//fwAA9OCqEgEAAABzdHAw
        QAAAAAAAAAAAAAAAAAAAAAAAAAAAAAAAAAAAAAAAAAAAAAAAAAAAAAAAAAAAAAAAAAAAAAAAAAAAAAAAAAAAAAAAAABzdHAxQAAAAAgICAgICAgICAgICAgICAgICAgI
        CAgICAgICAgICAgICAgICAgICAgICAgICAgICAgICAgICAgICAgICAgICAhzdHAyQAAAAAEBAQEBAAEAAQABAAEAAQABAQEBAQEBAQEBAQEBAQEBAQEBAQEBAQEBAQEB
        AQEBAQEBAQEBAQEBAQEBAQEBAQFzdHAzQAAAAAQEBAQEBAQEBAQEBAQECAQEBAQEBAQEBAQEBAQEBAQEBAQEBAQEBAQEBAQEBAQEBAQEBAQEBAQEBAQEBAQEBARzdHA0
        QAAAAGBgYGBgYGBgYGBgYGBgYGBgYGBgYGBgYGBgYGBgYGBgYGBgYGBgYGBgYGBgYGBgYGBgYGBgYGBgYGBgYGBgYGBzdHA1QAAAAAAAAAAAAAAAAAAAAAAAAAAAAAAA
        AAAAAAAAAAAAAAAAAAAAAAAAAAAAAAAAAAAAAAAAAAAAAAAAAAAAAAAAAABwcm9nEgIAAHByZ3AiAAAAEBBEBAECAH8AfwBAAAEAAQAAAAAAAAAAAH8AAAAAAAAAAHBn
        bm0wAAAAQmFzcyAzayBDb21wbGV4IDEtMQD/fwAAsDhAFQEAAAD0OL5f/38AAPTgqhIBAAAAc3RwMEAAAAAAAAAAAAAAAAAAAAAAAAAAAAAAAAAAAAAAAAAAAAAAAAAA
        AAAAAAAAAAAAAAAAAAAAAAAAAAAAAAAAAAAAAAAAc3RwMUAAAAAICAgICAgICAgICBAICAgICAgICAgICAgICAgICAgICAgICAgICAgICAgICAgICAgICAgICAgICAgI
        CAgICAgIc3RwMkAAAAABAAEAAAABAAABAgEBAgAAAQEBAQEBAQEBAQEBAQEBAQEBAQEBAQEBAQEBAQEBAQEBAQEBAQEBAQEBAQEBAQEBc3RwM0AAAAAEBAQEBAQEBAQE
        BAQEBAQEBAQEBAQEBAQEBAQEBAQEBAQEBAQEBAQEBAQEBAQEBAQEBAQEBAQEBAQEBAQEBAQEc3RwNEAAAABgYGBgYGBgYGBgYGBgYGBgYGBgYGBgYGBgYGBgYGBgYGBg
        YGBgYGBgYGBgYGBgYGBgYGBgYGBgYGBgYGBgYGBgc3RwNUAAAAAAAAAAAAAAAAAAAAAAAAAAAAAAAAAAAAAAAAAAAAAAAAAAAAAAAAAAAAAAAAAAAAAAAAAAAAAAAAAA
        AAAAAAAAcHJvZxICAABwcmdwIgAAABAMRQUBAgB/AH8AQAABAAEAAAAAAAAAAAB/AAAAAAAAAABwZ25tMAAAAEJhc3MgM2sgQ29tcGxleCAxLTIA/38AALA4QBUBAAAA
        9Di+X/9/AAD04KoSAQAAAHN0cDBAAAAAAAAAAAAAAAAAAAAAAAAAAAAAAAAAAAAAAAAAAAAAAAAAAAAAAAAAAAAAAAAAAAAAAAAAAAAAAAAAAAAAAAAAAHN0cDFAAAAA
        CAgICAgICAgICAgICAgICAgICAgICAgICAgICAgICAgICAgICAgICAgICAgICAgICAgICAgICAgICAgICAgICHN0cDJAAAAAAQIBAgECAQIBAgECAQEBAQEBAQEBAQEB
        AQEBAQEBAQEBAQEBAQEBAQEBAQEBAQEBAQEBAQEBAQEBAQEBAQEBAXN0cDNAAAAACAgICAgIEBAQEBAQBAQEBAQEBAQEBAQEBAQEBAQEBAQEBAQEBAQEBAQEBAQEBAQE
        BAQEBAQEBAQEBAQEBAQEBHN0cDRAAAAAYGBgYGBgYGBgYGBgYGBgYGBgYGBgYGBgYGBgYGBgYGBgYGBgYGBgYGBgYGBgYGBgYGBgYGBgYGBgYGBgYGBgYHN0cDVAAAAA
        AAAAAAAAAAAAAAAAAAAAAAAAAAAAAAAAAAAAAAAAAAAAAAAAAAAAAAAAAAAAAAAAAAAAAAAAAAAAAAAAAAAAAHByb2cSAgAAcHJncCIAAAAQDE0FAQIAfwB/AEAAAQAB
        AAAAAAAAAAAAfwAAAAAAAAAAcGdubTAAAABCYXNzIDNrIENvbXBsZXggMS0zAP9/AACwOEAVAQAAAPQ4vl//fwAA9OCqEgEAAABzdHAwQAAAAAAAAAAAAAAAAAAAAAAA
        AAAAAAAAAAAAAAAAAAAAAAAAAAAAAAAAAAAAAAAAAAAAAAAAAAAAAAAAAAAAAAAAAABzdHAxQAAAAAgICAgICAgICAgICAgICAgICAgICAgICAgICAgICAgICAgICAgI
        CAgICAgICAgICAgICAgICAgICAgICAgICAhzdHAyQAAAAAEBAQEBAQEBAQEBAQEBAQEBAQEBAQEBAQEBAQEBAQEBAQEBAQEBAQEBAQEBAQEBAQEBAQEBAQEBAQEBAQEB
        AQFzdHAzQAAAAAgICAgICBAQEBAQEAQEBAQEBAQEBAQEBAQEBAQEBAQEBAQEBAQEBAQEBAQEBAQEBAQEBAQEBAQEBAQEBAQEBARzdHA0QAAAAGBgYGBgYGBgYGBgYGBg
        YGBgYGBgYGBgYGBgYGBgYGBgYGBgYGBgYGBgYGBgYGBgYGBgYGBgYGBgYGBgYGBgYGBzdHA1QAAAAAAAAAAAAAAAAAAAAAAAAAAAAAAAAAAAAAAAAAAAAAAAAAAAAAAA
        AAAAAAAAAAAAAAAAAAAAAAAAAAAAAAAAAABwcm9nEgIAAHByZ3AiAAAAEAhNBAEBAH8AfwBAAAEAAQAAAAAAAAAAAH8AAAAAAAAAAHBnbm0wAAAAQmFzcyAxayBUcmFu
        Y2UgMDEAvl//fwAAsDhAFQEAAAD0OL5f/38AAPTgqhIBAAAAc3RwMEAAAAAAAAAAAAAAAAAAAAAAAAAAAAAAAAAAAAAAAAAAAAAAAAAAAAAAAAAAAAAAAAAAAAAAAAAA
        AAAAAAAAAAAAAAAAc3RwMUAAAAAICAgICAgICAgICAgICAgICAgICAgICAgICAgICAgICAgICAgICAgICAgICAgICAgICAgICAgICAgICAgICAgIc3RwMkAAAAAAAAEB
        AAABAAEBAQEBAQEBAQEBAQEBAQEBAQEBAQEBAQEBAQEBAQEBAQEBAQEBAQEBAQEBAQEBAQEBAQEBAQEBc3RwM0AAAAAEBAQEBAQEBAQEBAQEBAQEBAQEBAQEBAQEBAQE
        BAQEBAQEBAQEBAQEBAQEBAQEBAQEBAQEBAQEBAQEBAQEBAQEc3RwNEAAAABgYGBgYGBgYGBgYGBgYGBgYGBgYGBgYGBgYGBgYGBgYGBgYGBgYGBgYGBgYGBgYGBgYGBg
        YGBgYGBgYGBgYGBgc3RwNUAAAAAAAAAAAAAAAAAAAAAAAAAAAAAAAAAAAAAAAAAAAAAAAAAAAAAAAAAAAAAAAAAAAAAAAAAAAAAAAAAAAAAAAAAAcHJvZxICAABwcmdw
        IgAAABAIQwQBAQB/AH8AQAABAAEAAAAAAAAAAAB/AAAAAAAAAABwZ25tMAAAAEJhc3MgMWsgVHJhbmNlIDAyAL5f/38AALA4QBUBAAAA9Di+X/9/AAD04KoSAQAAAHN0
        cDBAAAAAAAAAAAAAAAAAAAAAAAAAAAAAAAAAAAAAAAAAAAAAAAAAAAAAAAAAAAAAAAAAAAAAAAAAAAAAAAAAAAAAAAAAAHN0cDFAAAAACBAIEAgIEAgICAgICAgICAgI
        CAgICAgICAgICAgICAgICAgICAgICAgICAgICAgICAgICAgICAgICAgICAgICHN0cDJAAAAAAAEBAQABAQEBAQEBAQEBAQEBAQEBAQEBAQEBAQEBAQEBAQEBAQEBAQEB
        AQEBAQEBAQEBAQEBAQEBAQEBAQEBAXN0cDNAAAAABAQEBAQEBAQEBAQEBAQEBAQEBAQEBAQEBAQEBAQEBAQEBAQEBAQEBAQEBAQEBAQEBAQEBAQEBAQEBAQEBAQEBHN0
        cDRAAAAAYGBgYGBgYGBgYGBgYGBgYGBgYGBgYGBgYGBgYGBgYGBgYGBgYGBgYGBgYGBgYGBgYGBgYGBgYGBgYGBgYGBgYHN0cDVAAAAAAAAAAAAAAAAAAAAAAAAAAAAA
        AAAAAAAAAAAAAAAAAAAAAAAAAAAAAAAAAAAAAAAAAAAAAAAAAAAAAAAAAAAAAHByb2cSAgAAcHJncCIAAAAQEDIEAQEAfwB/AkAAAQABAAAAAAAAAAAAfwAAAAAAAAAA
        cGdubTAAAABCYXNzIDJrIFRyYW5jZSAwMwC+X/9/AACwOEAVAQAAAPQ4vl//fwAA9OCqEgEAAABzdHAwQAAAAAAAAAAAAAAAAAAAAAAAAAAAAAAAAAAAAAAAAAAAAAAA
        AAAAAAAAAAAAAAAAAAAAAAAAAAAAAAAAAAAAAAAAAABzdHAxQAAAABAIEBAICBAIEAgQEAgIEAgICAgICAgICAgICAgICAgICAgICAgICAgICAgICAgICAgICAgICAgI
        CAgICAgICAhzdHAyQAAAAAECAQEBAgEBAQIBAQECAQEBAQEBAQEBAQEBAQEBAQEBAQEBAQEBAQEBAQEBAQEBAQEBAQEBAQEBAQEBAQEBAQFzdHAzQAAAAAgEBAQEBAQE
        BAQEBAQEBAQEBAQEBAQEBAQEBAQEBAQEBAQEBAQEBAQEBAQEBAQEBAQEBAQEBAQEBAQEBAQEBARzdHA0QAAAAGBgYGBgYGBgYGBgYGBgYGBgYGBgYGBgYGBgYGBgYGBg
        YGBgYGBgYGBgYGBgYGBgYGBgYGBgYGBgYGBgYGBgYGBzdHA1QAAAAAAAAAAAAAAAAAAAAAAAAAAAAAAAAAAAAAAAAAAAAAAAAAAAAAAAAAAAAAAAAAAAAAAAAAAAAAAA
        AAAAAAAAAABwcm9nEgIAAHByZ3AiAAAAEBBdBAECAH8AfwJAAAEAAQAAAAAAAAAAAH8AAAAAAAAAAHBnbm0wAAAAQmFzcyAyayBETSBRdWVzdGlvbiBvZiB0aW1lAAEA
        AAD0OL5f/38AAPTgqhIBAAAAc3RwMEAAAAAAAAAAAAAAAAAAAAAAAAAAAAAAAAAAAAAAAAAAAAAAAAAAAAAAAAAAAAAAAAAAAAAAAAAAAAAAAAAAAAAAAAAAc3RwMUAA
        AAAICAgICAgICAgICAgICAgICAgICAgICAgICAgICAgICAgICAgICAgICAgICAgICAgICAgICAgICAgICAgICAgIc3RwMkAAAAABAAEAAQABAAEAAQABAAEAAQEBAQEB
        AQEBAQEBAQEBAQEBAQEBAQEBAQEBAQEBAQEBAQEBAQEBAQEBAQEBAQEBc3RwM0AAAAAEBAQEBAQEBAQEBAQIBAQEBAQEBAQEBAQEBAQEBAQEBAQEBAQEBAQEBAQEBAQE
        BAQEBAQEBAQEBAQEBAQEBAQEc3RwNEAAAABgYGBgYGBgYGBgYGBgYGBgYGBgYGBgYGBgYGBgYGBgYGBgYGBgYGBgYGBgYGBgYGBgYGBgYGBgYGBgYGBgYGBgc3RwNUAA
        AAAAAAAAAAAAAAAAAAAAAAAAAAAAAAAAAAAAAAAAAAAAAAAAAAAAAAAAAAAAAAAAAAAAAAAAAAAAAAAAAAAAAAAAcHJvZxICAABwcmdwIgAAABAQUQQBAQB/AH8AQAAB
        AAEAAAAAAAAAAAB/AAAAAAAAAABwZ25tMAAAAEJhc3MgMWsgQmVuYXNzaSAtIElsbHVzaW9uABUBAAAA9Di+X/9/AAD04KoSAQAAAHN0cDBAAAAAAAAAAAAAAAAAAAAA
        AAAAAAAAAAAAAAAAAAAAAAAAAAAAAAAAAAAAAAAAAAAAAAAAAAAAAAAAAAAAAAAAAAAAAHN0cDFAAAAACBAIEBAQEAgQEAgQEBAIEAgICAgICAgICAgICAgICAgICAgI
        CAgICAgICAgICAgICAgICAgICAgICAgICAgICHN0cDJAAAAAAQABAAECAAEAAAEAAQIBAAEBAQEBAQEBAQEBAQEBAQEBAQEBAQEBAQEBAQEBAQEBAQEBAQEBAQEBAQEB
        AQEBAXN0cDNAAAAABAQEBAQEBAQEBAQEBAQEBAQEBAQEBAQEBAQEBAQEBAQEBAQEBAQEBAQEBAQEBAQEBAQEBAQEBAQEBAQEBAQEBHN0cDRAAAAAYGBgYGBgYGBgYGBg
        YGBgYGBgYGBgYGBgYGBgYGBgYGBgYGBgYGBgYGBgYGBgYGBgYGBgYGBgYGBgYGBgYGBgYHN0cDVAAAAAAAAAAAAAAAAAAAAAAAAAAAAAAAAAAAAAAAAAAAAAAAAAAAAA
        AAAAAAAAAAAAAAAAAAAAAAAAAAAAAAAAAAAAAHByb2cSAgAAcHJncCIAAAAQEFQEAQEAfwB/AEAAAQABAAAAAAAAAAAAfwAAAAAAAAAAcGdubTAAAABCYXNzIDFrIFF1
        ZWVuIC0gQnJlYWsgZnJlZQAVAQAAAPQ4vl//fwAA9OCqEgEAAABzdHAwQAAAAAAAAAAAAAAAAAAAAAAAAAAAAAAAAAAAAAAAAAAAAAAAAAAAAAAAAAAAAAAAAAAAAAAA
        AAAAAAAAAAAAAAAAAABzdHAxQAAAAAgQCAgQEAgQEBAIEBAQCBAICAgICAgICAgICAgICAgICAgICAgICAgICAgICAgICAgICAgICAgICAgICAgICAhzdHAyQAAAAAEA
        AQEBAAEAAQABAAEAAQABAQEBAQEBAQEBAQEBAQEBAQEBAQEBAQEBAQEBAQEBAQEBAQEBAQEBAQEBAQEBAQFzdHAzQAAAAAQEBAQEBAQEBAQEBAQEBAQEBAQEBAQEBAQE
        BAQEBAQEBAQEBAQEBAQEBAQEBAQEBAQEBAQEBAQEBAQEBAQEBARzdHA0QAAAAGBgYGBgYGBgYGBgYGBgYGBgYGBgYGBgYGBgYGBgYGBgYGBgYGBgYGBgYGBgYGBgYGBg
        YGBgYGBgYGBgYGBgYGBzdHA1QAAAAAAAAAAAAAAAAAAAAAAAAAAAAAAAAAAAAAAAAAAAAAAAAAAAAAAAAAAAAAAAAAAAAAAAAAAAAAAAAAAAAAAAAABwcm9nEgIAAHBy
        Z3AiAAAAECBMBAEBAH8AfwBAAAEAAQAAAAAAAAAAAH8AAAAAAAAAAHBnbm0wAAAAQmFzcyAxayBRdWVlbiAtIExpdmluZyBvbiBteSBvd24AOL5f/38AAPTgqhIBAAAA
        c3RwMEAAAAAAAAAAAAAAAAAAAAAAAAAAAAAAAAAAAAAAAAAAAAAAAAAAAAAAAAAAAAAAAAAAAAAAAAAAAAAAAAAAAAAAAAAAc3RwMUAAAAAICBAICBAICBAICBAICBAI
        CBAgCBAgCBAgCBAgCBAgEAgICAgICAgICAgICAgICAgICAgICAgICAgICAgICAgIc3RwMkAAAAABAAEAAQEAAQEAAQEAAQEAAQEBAQEBAQEBAQEBAQEBAQEBAQEBAQEB
        AQEBAQEBAQEBAQEBAQEBAQEBAQEBAQEBc3RwM0AAAAAEBAQEBAQEBAQEBAQEBAQEBAQEBAQEBAQEBAQEBAQEBAQEBAQEBAQEBAQEBAQEBAQEBAQEBAQEBAQEBAQEBAQE
        c3RwNEAAAABgYGBgYGBgYGBgYGBgYGBgYGBgYGBgYGBgYGBgYGBgYGBgYGBgYGBgYGBgYGBgYGBgYGBgYGBgYGBgYGBgYGBgc3RwNUAAAAAAAAAAAAAAAAAAAAAAAAAA
        AAAAAAAAAAAAAAAAAAAAAAAAAAAAAAAAAAAAAAAAAAAAAAAAAAAAAAAAAAAAAAAAcHJvZxICAABwcmdwIgAAABAQLgQBAQB/AH8AQAABAAEAAAYDAAAAAAB/AAAAAAAA
        AABwZ25tMAAAAFNlcSAxayBGb3JjZVNjYWxlIEVtIDAxALA4QBUBAAAA9Di+X/9/AAD04KoSAQAAAHN0cDBAAAAAAAACAAQAAwAAAgMAAwADBAAAAAAAAAAAAAAAAAAA
        AAAAAAAAAAAAAAAAAAAAAAAAAAAAAAAAAAAAAAAAAAAAAHN0cDFAAAAABAIIBAgECAgCCAgECAQICAgICAgICAgICAgICAgICAgICAgICAgICAgICAgICAgICAgICAgI
        CAgICAgICAgICHN0cDJAAAAAAQABAAEAAQEAAQABAQAAAQEBAQEBAQEBAQEBAQEBAQEBAQEBAQEBAQEBAQEBAQEBAQEBAQEBAQEBAQEBAQEBAXN0cDNAAAAABAQEBAQE
        BAQEBAQEBAQEBAQEBAQEBAQEBAQEBAQEBAQEBAQEBAQEBAQEBAQEBAQEBAQEBAQEBAQEBAQEBAQEBHN0cDRAAAAAYGBgYGBgYGBgYGBgYGBgYGBgYGBgYGBgYGBgYGBg
        YGBgYGBgYGBgYGBgYGBgYGBgYGBgYGBgYGBgYGBgYGBgYHN0cDVAAAAAAAAAAAAAAAAAAAAAAAAAAAAAAAAAAAAAAAAAAAAAAAAAAAAAAAAAAAAAAAAAAAAAAAAAAAAA
        AAAAAAAAAAAAAHByb2cSAgAAcHJncCIAAAAQCEIEAQEAfwB/AEAAAQABAAAGAwAAAAAAfwAAAAAAAAAAcGdubTAAAABTZXEgMWsgRm9yY2VTY2FsZSBFbSAwMgCwOEAV
        AQAAAPQ4vl//fwAA9OCqEgEAAABzdHAwQAAAAAAAAAIAAAQAAAAAAAAAAAAAAAAAAAAAAAAAAAAAAAAAAAAAAAAAAAAAAAAAAAAAAAAAAAAAAAAAAAAAAAAAAABzdHAx
        QAAAAAgIBAgEBAgICAgICAgICAgICAgICAgICAgICAgICAgICAgICAgICAgICAgICAgICAgICAgICAgICAgICAgICAhzdHAyQAAAAAECAQEBAQECAQEBAQEBAQEBAQEB
        AQEBAQEBAQEBAQEBAQEBAQEBAQEBAQEBAQEBAQEBAQEBAQEBAQEBAQEBAQFzdHAzQAAAAAQEBAQEBAQEBAQEBAQEBAQEBAQEBAQEBAQEBAQEBAQEBAQEBAQEBAQEBAQE
        BAQEBAQEBAQEBAQEBAQEBAQEBARzdHA0QAAAAGBgYGBgYGBgYGBgYGBgYGBgYGBgYGBgYGBgYGBgYGBgYGBgYGBgYGBgYGBgYGBgYGBgYGBgYGBgYGBgYGBgYGBzdHA1
        QAAAAAAAAAAAAAAAAAAAAAAAAAAAAAAAAAAAAAAAAAAAAAAAAAAAAAAAAAAAAAAAAAAAAAAAAAAAAAAAAAAAAAAAAABwcm9nEgIAAHByZ3AiAAAAEBBHBAEBAH8AfwBF
        AAEAAQAABgMAAAAAAH8AAAAAAAAAAHBnbm0wAAAAU2VxIDFrIEZvcmNlU2NhbGUgRW0gMDMAsDhAFQEAAAD0OL5f/38AAPTgqhIBAAAAc3RwMEAAAAAAAAACAAQAAAAC
        AAAAAgADAAAAAAAAAAAAAAAAAAAAAAAAAAAAAAAAAAAAAAAAAAAAAAAAAAAAAAAAAAAAAAAAc3RwMUAAAAAICAgICAgICAgICAgICAgICAgICAgICAgICAgICAgICAgI
        CAgICAgICAgICAgICAgICAgICAgICAgICAgICAgIc3RwMkAAAAAAAQABAAEAAAEBAAABAQABAQEBAQEBAQEBAQEBAQEBAQEBAQEBAQEBAQEBAQEBAQEBAQEBAQEBAQEB
        AQEBAQEBc3RwM0AAAAAEBAQEBAQEBAQEBAQEBAQEBAQEBAQEBAQEBAQEBAQEBAQEBAQEBAQEBAQEBAQEBAQEBAQEBAQEBAQEBAQEBAQEc3RwNEAAAABgYGBgYGBgYGBg
        YGBgYGBgYGBgYGBgYGBgYGBgYGBgYGBgYGBgYGBgYGBgYGBgYGBgYGBgYGBgYGBgYGBgYGBgc3RwNUAAAAAAAAAAAAAAAAAAAAAAAAAAAAAAAAAAAAAAAAAAAAAAAAAA
        AAAAAAAAAAAAAAAAAAAAAAAAAAAAAAAAAAAAAAAAcHJvZxICAABwcmdwIgAAABAQZAQBAgB/AH8AQAABAAEAAAYDAAAAAAB/AAAAAAAAAABwZ25tMAAAAFNlcSAyayBG
        b3JjZVNjYWxlIEVtIDA0IChFK0cpAAAA9Di+X/9/AAD04KoSAQAAAHN0cDBAAAAAAAAAAAYAAAAAAAUAAAQAAAAAAAAAAAAAAAAAAAAAAAAAAAAAAAAAAAAAAAAAAAAA
        AAAAAAAAAAAAAAAAAAAAAHN0cDFAAAAABAgEBAgEBAgEBAgEBAgECAgICAgICAgICAgICAgICAgICAgICAgICAgICAgICAgICAgICAgICAgICAgICAgICHN0cDJAAAAA
        AQEAAQEAAQEAAQEAAQEAAQEBAQEBAQEBAQEBAQEBAQEBAQEBAQEBAQEBAQEBAQEBAQEBAQEBAQEBAQEBAQEBAXN0cDNAAAAABAgEBAQEBAgEBAgEBAgEBAQEBAQEBAQE
        BAQEBAQEBAQEBAQEBAQEBAQEBAQEBAQEBAQEBAQEBAQEBAQEBAQEBHN0cDRAAAAAYGBgYGBgYGBgYGBgYGBgYGBgYGBgYGBgYGBgYGBgYGBgYGBgYGBgYGBgYGBgYGBg
        YGBgYGBgYGBgYGBgYGBgYHN0cDVAAAAAAAAAAAAAAAAAAAAAAAAAAAAAAAAAAAAAAAAAAAAAAAAAAAAAAAAAAAAAAAAAAAAAAAAAAAAAAAAAAAAAAAAAAHByb2cSAgAA
        cHJncCIAAAAQCEMEAQIAfwB/AEAAAQABAAAAAAAAAAAAfwAAAAAAAAAAcGdubTAAAABTZXEgMmsgSGFybW9uaWMxIChBK0MvQyMpAEAVAQAAAPQ4vl//fwAA9OCqEgEA
        AABzdHAwQAAAAAAAAAAAAAcAAAAAAAAAAAAAAAAAAAAAAAAAAAAAAAAAAAAAAAAAAAAAAAAAAAAAAAAAAAAAAAAAAAAAAAAAAABzdHAxQAAAAAgICAgEBAgICAgICAgI
        CAgICAgICAgICAgICAgICAgICAgICAgICAgICAgICAgICAgICAgICAgICAgICAgICAhzdHAyQAAAAAECAQEBAQECAQEBAQEBAQEBAQEBAQEBAQEBAQEBAQEBAQEBAQEB
        AQEBAQEBAQEBAQEBAQEBAQEBAQEBAQEBAQFzdHAzQAAAAAQEBAgEBAQEBAQEBAQEBAQEBAQEBAQEBAQEBAQEBAQEBAQEBAQEBAQEBAQEBAQEBAQEBAQEBAQEBAQEBAQE
        BARzdHA0QAAAAGBgYGBgYGBgYGBgYGBgYGBgYGBgYGBgYGBgYGBgYGBgYGBgYGBgYGBgYGBgYGBgYGBgYGBgYGBgYGBgYGBgYGBzdHA1QAAAAAAAAAAAAAAAAAAAAAAA
        AAAAAAAAAAAAAAAAAAAAAAAAAAAAAAAAAAAAAAAAAAAAAAAAAAAAAAAAAAAAAAAAAABwcm9nEgIAAHByZ3AiAAAAEAhDBAEBAH8AfwBAAAEAAQAAAAAAAAAAAH8AAAAA
        AAAAAHBnbm0wAAAAU2VxIDJrIEhhcm1vbmljMiAoQStDL0MjKQBAFQEAAAD0OL5f/38AAPTgqhIBAAAAc3RwMEAAAAAAAAcFAAcFAAAAAAAAAAAAAAAAAAAAAAAAAAAA
        AAAAAAAAAAAAAAAAAAAAAAAAAAAAAAAAAAAAAAAAAAAAAAAAc3RwMUAAAAAECAgIBAgICAgICAgICAgICAgICAgICAgICAgICAgICAgICAgICAgICAgICAgICAgICAgI
        CAgICAgICAgICAgIc3RwMkAAAAABAQEBAQEBAQEBAQEBAQEBAQEBAQEBAQEBAQEBAQEBAQEBAQEBAQEBAQEBAQEBAQEBAQEBAQEBAQEBAQEBAQEBc3RwM0AAAAAECAQI
        BAQIBAQEBAQEBAQEBAQEBAQEBAQEBAQEBAQEBAQEBAQEBAQEBAQEBAQEBAQEBAQEBAQEBAQEBAQEBAQEc3RwNEAAAABgYGBgYGBgYGBgYGBgYGBgYGBgYGBgYGBgYGBg
        YGBgYGBgYGBgYGBgYGBgYGBgYGBgYGBgYGBgYGBgYGBgYGBgc3RwNUAAAAAAAAAAAAAAAAAAAAAAAAAAAAAAAAAAAAAAAAAAAAAAAAAAAAAAAAAAAAAAAAAAAAAAAAAA
        AAAAAAAAAAAAAAAAcHJvZxICAABwcmdwIgAAABAIRwQBAQB/AH8AQAABAAEAAAAAAAAAAAB/AAAAAAAAAABwZ25tMAAAAFNlcSAyayBIYXJtb25pYzMgKEErQy9DIykA
        QBUBAAAA9Di+X/9/AAD04KoSAQAAAHN0cDBAAAAAAAAHBwAAAAcAAAAAAAAAAAAAAAAAAAAAAAAAAAAAAAAAAAAAAAAAAAAAAAAAAAAAAAAAAAAAAAAAAAAAAAAAAHN0
        cDFAAAAABAgICAgECAgICAgICAgICAgICAgICAgICAgICAgICAgICAgICAgICAgICAgICAgICAgICAgICAgICAgICAgICHN0cDJAAAAAAQEBAQEBAQEBAQEBAQEBAQEB
        AQEBAQEBAQEBAQEBAQEBAQEBAQEBAQEBAQEBAQEBAQEBAQEBAQEBAQEBAQEBAXN0cDNAAAAABAgECAQECAQEBAQEBAQEBAQEBAQEBAQEBAQEBAQEBAQEBAQEBAQEBAQE
        BAQEBAQEBAQEBAQEBAQEBAQEBAQEBHN0cDRAAAAAYGBgYGBgYGBgYGBgYGBgYGBgYGBgYGBgYGBgYGBgYGBgYGBgYGBgYGBgYGBgYGBgYGBgYGBgYGBgYGBgYGBgYHN0
        cDVAAAAAAAAAAAAAAAAAAAAAAAAAAAAAAAAAAAAAAAAAAAAAAAAAAAAAAAAAAAAAAAAAAAAAAAAAAAAAAAAAAAAAAAAAAHByb2cSAgAAcHJncCIAAAAQCEIEAQEAfwB/
        AEAAAQABAAAAAAAAAAAAfwAAAAAAAAAAcGdubTAAAABTZXEgMmsgSGFybW9uaWM0IChBK0MvQyMpAEAVAQAAAPQ4vl//fwAA9OCqEgEAAABzdHAwQAAAAAAAAAcAAAAA
        AAAAAAAAAAAAAAAAAAAAAAAAAAAAAAAAAAAAAAAAAAAAAAAAAAAAAAAAAAAAAAAAAAAAAAAAAABzdHAxQAAAAAgECAgECAQECAgICAgICAgICAgICAgICAgICAgICAgI
        CAgICAgICAgICAgICAgICAgICAgICAgICAgICAgICAhzdHAyQAAAAAEBAQEBAQEBAQEBAQEBAQEBAQEBAQEBAQEBAQEBAQEBAQEBAQEBAQEBAQEBAQEBAQEBAQEBAQEB
        AQEBAQEBAQFzdHAzQAAAAAQECAQECAQEBAQEBAQEBAQEBAQEBAQEBAQEBAQEBAQEBAQEBAQEBAQEBAQEBAQEBAQEBAQEBAQEBAQEBAQEBARzdHA0QAAAAGBgYGBgYGBg
        YGBgYGBgYGBgYGBgYGBgYGBgYGBgYGBgYGBgYGBgYGBgYGBgYGBgYGBgYGBgYGBgYGBgYGBgYGBzdHA1QAAAAAAAAAAAAAAAAAAAAAAAAAAAAAAAAAAAAAAAAAAAAAAA
        AAAAAAAAAAAAAAAAAAAAAAAAAAAAAAAAAAAAAAAAAABwcm9nEgIAAHByZ3AiAAAAECA9BAEBAH8AfwBAAAEAAQAAAAAAAAAAAH8AAAAAAAAAAHBnbm0wAAAAU2VxIDJr
        IEtyYWZ0d2VyazEgKEQrRikAsDhAFQEAAAD0OL5f/38AAPTgqhIBAAAAc3RwMEAAAAAAAP7+AAD+/gAAAAAAAAAAAAD+/gAA/v4AAAAAAAAAAAAAAAAAAAAAAAAAAAAA
        AAAAAAAAAAAAAAAAAAAAAAAAc3RwMUAAAAAICAgICAgICAgICAgICAgICAgICAgICAgICAQEBAgEBAgICAgICAgICAgICAgICAgICAgICAgICAgICAgICAgIc3RwMkAA
        AAABAQEBAQEBAQEBAAABAQAAAQEBAQEBAQEBAQEBAQEAAAEBAQEBAQEBAQEBAQEBAQEBAQEBAQEBAQEBAQEBAQEBc3RwM0AAAAAEBAQEBAQEBAQEBAQICAQEBAQEBAQE
        BAQEBAQEBAQEBAQEBAQEBAQEBAQEBAQEBAQEBAQEBAQEBAQEBAQEBAQEc3RwNEAAAABgYGBgYGBgYGBgYGBgYGBgYGBgYGBgYGBgYGBgYGBgYGBgYGBgYGBgYGBgYGBg
        YGBgYGBgYGBgYGBgYGBgYGBgc3RwNUAAAAAAAAAAAAAAAAAAAAAAAAAAAAAAAAAAAAAAAAAAAAAAAAAAAAAAAAAAAAAAAAAAAAAAAAAAAAAAAAAAAAAAAAAAcHJvZxIC
        AABwcmdwIgAAABAgZAQBAQB/AH8APgABAAEAAAAAAAAAAAB/AAAAAAAAAABwZ25tMAAAAFNlcSAyayBLcmFmdHdlcmsyIChBLCBDKQA4QBUBAAAA9Di+X/9/AAD04KoS
        AQAAAHN0cDBAAAAAAAAAAAAAAAADAAAAAAAAAAMAAAAFAAoABwAAAAAAAAAAAAAAAAAAAAAAAAAAAAAAAAAAAAAAAAAAAAAAAAAAAHN0cDFAAAAACAgICAgICAgICAgI
        CAgICAgICAgICAgICAgICAgICAgICAgICAgICAgICAgICAgICAgICAgICAgICAgICAgICHN0cDJAAAAAAQAAAAEAAQABAAEAAAAAAAEAAAABAAEAAQAAAAAAAAABAQEB
        AQEBAQEBAQEBAQEBAQEBAQEBAQEBAQEBAQEBAXN0cDNAAAAABAQEBAQEBAQEBAQEBAQEBAQEBAQEBAQEBAQEBAQEBAQEBAQEBAQEBAQEBAQEBAQEBAQEBAQEBAQEBAQE
        BAQEBHN0cDRAAAAAYGBgYGBgYGBgYGBgYGBgYGBgYGBgYGBgYGBgYGBgYGBgYGBgYGBgYGBgYGBgYGBgYGBgYGBgYGBgYGBgYGBgYHN0cDVAAAAAAAAAAAAAAAAAAAAA
        AAAAAAAAAAAAAAAAAAAAAAAAAAAAAAAAAAAAAAAAAAAAAAAAAAAAAAAAAAAAAAAAAAAAAHByb2cSAgAAcHJncCIAAAAQIGQEAQEAfwB/AEAAAQABAAAAAAAAAAAAfwAA
        AAAAAAAAcGdubTAAAABTZXEgMmsgS3JhZnR3ZXJrMyAoQStDLCBGK0EpAAAAAPQ4vl//fwAA9OCqEgEAAABzdHAwQAAAAAAAAAAAAPsAAAD7AAAAAAAAAAAAAgAAAAAA
        AAAAAPsAAAAAAAAAAAAAAAAAAAAAAAAAAAAAAAAAAAAAAAAAAABzdHAxQAAAAAgICAgICAgICAgICAgICAgICAgICAgICAgICAgICAgICAgICAgICAgICAgICAgICAgI
        CAgICAgICAgICAgICAhzdHAyQAAAAAEAAAABAAEAAQABAAAAAQABAAAAAQABAAAAAAAAAAEAAQEBAQEBAQEBAQEBAQEBAQEBAQEBAQEBAQEBAQEBAQFzdHAzQAAAAAQE
        BAQEBAQEBAQEBAQEBAQIBAQEBAQEBAQEBAQEBAQEBAQEBAQEBAQEBAQEBAQEBAQEBAQEBAQEBAQEBAQEBARzdHA0QAAAAGBgYGBgYGBgYGBgYGBgYGBgYGBgYGBgYGBg
        YGBgYGBgYGBgYGBgYGBgYGBgYGBgYGBgYGBgYGBgYGBgYGBgYGBzdHA1QAAAAAAAAAAAAAAAAAAAAAAAAAAAAAAAAAAAAAAAAAAAAAAAAAAAAAAAAAAAAAAAAAAAAAAA
        AAAAAAAAAAAAAAAAAABwcm9nEgIAAHByZ3AiAAAAECBkBAEBAH8AfwBAAAEAAQAAAAAAAAAAAH8AAAAAAAAAAHBnbm0wAAAAU2VxIDJrIEtyYWZ0d2VyazMgKEErQywg
        RitBKQAAAAD0OL5f/38AAPTgqhIBAAAAc3RwMEAAAAAAAAAAAAD7AAAA+wAAAAAAAAAAAAIAAAAAAAAAAAD7AAAAAAAAAAAAAAAAAAAAAAAAAAAAAAAAAAAAAAAAAAAA
        c3RwMUAAAAAICAgICAgICAgICAgICAgICAgICAgICAgICAgICAgICAgICAgICAgICAgICAgICAgICAgICAgICAgICAgICAgIc3RwMkAAAAABAAAAAQABAAEAAQAAAAEA
        AQAAAAEAAQAAAAAAAAABAAEBAQEBAQEBAQEBAQEBAQEBAQEBAQEBAQEBAQEBAQEBc3RwM0AAAAAEBAQEBAQEBAQEBAQEBAQECAQEBAQEBAQEBAQEBAQEBAQEBAQEBAQE
        BAQEBAQEBAQEBAQEBAQEBAQEBAQEBAQEc3RwNEAAAABgYGBgYGBgYGBgYGBgYGBgYGBgYGBgYGBgYGBgYGBgYGBgYGBgYGBgYGBgYGBgYGBgYGBgYGBgYGBgYGBgYGBg
        c3RwNUAAAAAAAAAAAAAAAAAAAAAAAAAAAAAAAAAAAAAAAAAAAAAAAAAAAAAAAAAAAAAAAAAAAAAAAAAAAAAAAAAAAAAAAAAAcHJvZxICAABwcmdwIgAAABAgZAQBAQB/
        AH8AQAABAAEAAAAAAAAAAAB/AAAAAAAAAABwZ25tMAAAAFNlcSAyayBLcmFmdHdlcmszIChBK0MsIEYrQSkAAAAA9Di+X/9/AAD04KoSAQAAAHN0cDBAAAAAAAAAAAAA
        +wAAAPsAAAAAAAAAAAACAAAAAAAAAAAA+wAAAAAAAAAAAAAAAAAAAAAAAAAAAAAAAAAAAAAAAAAAAHN0cDFAAAAACAgICAgICAgICAgICAgICAgICAgICAgICAgICAgI
        CAgICAgICAgICAgICAgICAgICAgICAgICAgICAgICAgICHN0cDJAAAAAAQAAAAEAAQABAAEAAAABAAEAAAABAAEAAAAAAAAAAQABAQEBAQEBAQEBAQEBAQEBAQEBAQEB
        AQEBAQEBAQEBAXN0cDNAAAAABAQEBAQEBAQEBAQEBAQEBAgEBAQEBAQEBAQEBAQEBAQEBAQEBAQEBAQEBAQEBAQEBAQEBAQEBAQEBAQEBAQEBHN0cDRAAAAAYGBgYGBg
        YGBgYGBgYGBgYGBgYGBgYGBgYGBgYGBgYGBgYGBgYGBgYGBgYGBgYGBgYGBgYGBgYGBgYGBgYGBgYHN0cDVAAAAAAAAAAAAAAAAAAAAAAAAAAAAAAAAAAAAAAAAAAAAA
        AAAAAAAAAAAAAAAAAAAAAAAAAAAAAAAAAAAAAAAAAAAAAHByb2cSAgAAcHJncCIAAAAQIGQEAQEAfwB/AEAAAQABAAAAAAAAAAAAfwAAAAAAAAAAcGdubTAAAABTZXEg
        MmsgS3JhZnR3ZXJrMyAoQStDLCBGK0EpAAAAAPQ4vl//fwAA9OCqEgEAAABzdHAwQAAAAAAAAAAAAPsAAAD7AAAAAAAAAAAAAgAAAAAAAAAAAPsAAAAAAAAAAAAAAAAA
        AAAAAAAAAAAAAAAAAAAAAAAAAABzdHAxQAAAAAgICAgICAgICAgICAgICAgICAgICAgICAgICAgICAgICAgICAgICAgICAgICAgICAgICAgICAgICAgICAgICAhzdHAy
        QAAAAAEAAAABAAEAAQABAAAAAQABAAAAAQABAAAAAAAAAAEAAQEBAQEBAQEBAQEBAQEBAQEBAQEBAQEBAQEBAQEBAQFzdHAzQAAAAAQEBAQEBAQEBAQEBAQEBAQIBAQE
        BAQEBAQEBAQEBAQEBAQEBAQEBAQEBAQEBAQEBAQEBAQEBAQEBAQEBAQEBARzdHA0QAAAAGBgYGBgYGBgYGBgYGBgYGBgYGBgYGBgYGBgYGBgYGBgYGBgYGBgYGBgYGBg
        YGBgYGBgYGBgYGBgYGBgYGBgYGBzdHA1QAAAAAAAAAAAAAAAAAAAAAAAAAAAAAAAAAAAAAAAAAAAAAAAAAAAAAAAAAAAAAAAAAAAAAAAAAAAAAAAAAAAAAAAAABwcm9n
        EgIAAHByZ3AiAAAAECBkBAEBAH8AfwBAAAEAAQAAAAAAAAAAAH8AAAAAAAAAAHBnbm0wAAAAU2VxIDJrIEtyYWZ0d2VyazMgKEErQywgRitBKQAAAAD0OL5f/38AAPTg
        qhIBAAAAc3RwMEAAAAAAAAAAAAD7AAAA+wAAAAAAAAAAAAIAAAAAAAAAAAD7AAAAAAAAAAAAAAAAAAAAAAAAAAAAAAAAAAAAAAAAAAAAc3RwMUAAAAAICAgICAgICAgI
        CAgICAgICAgICAgICAgICAgICAgICAgICAgICAgICAgICAgICAgICAgICAgICAgICAgICAgIc3RwMkAAAAABAAAAAQABAAEAAQAAAAEAAQAAAAEAAQAAAAAAAAABAAEB
        AQEBAQEBAQEBAQEBAQEBAQEBAQEBAQEBAQEBAQEBc3RwM0AAAAAEBAQEBAQEBAQEBAQEBAQECAQEBAQEBAQEBAQEBAQEBAQEBAQEBAQEBAQEBAQEBAQEBAQEBAQEBAQE
        BAQEBAQEc3RwNEAAAABgYGBgYGBgYGBgYGBgYGBgYGBgYGBgYGBgYGBgYGBgYGBgYGBgYGBgYGBgYGBgYGBgYGBgYGBgYGBgYGBgYGBgc3RwNUAAAAAAAAAAAAAAAAAA
        AAAAAAAAAAAAAAAAAAAAAAAAAAAAAAAAAAAAAAAAAAAAAAAAAAAAAAAAAAAAAAAAAAAAAAAAcHJvZxICAABwcmdwIgAAABAgZAQBAQB/AH8AQAABAAEAAAAAAAAAAAB/
        AAAAAAAAAABwZ25tMAAAAFNlcSAyayBLcmFmdHdlcmszIChBK0MsIEYrQSkAAAAA9Di+X/9/AAD04KoSAQAAAHN0cDBAAAAAAAAAAAAA+wAAAPsAAAAAAAAAAAACAAAA
        AAAAAAAA+wAAAAAAAAAAAAAAAAAAAAAAAAAAAAAAAAAAAAAAAAAAAHN0cDFAAAAACAgICAgICAgICAgICAgICAgICAgICAgICAgICAgICAgICAgICAgICAgICAgICAgI
        CAgICAgICAgICAgICAgICHN0cDJAAAAAAQAAAAEAAQABAAEAAAABAAEAAAABAAEAAAAAAAAAAQABAQEBAQEBAQEBAQEBAQEBAQEBAQEBAQEBAQEBAQEBAXN0cDNAAAAA
        BAQEBAQEBAQEBAQEBAQEBAgEBAQEBAQEBAQEBAQEBAQEBAQEBAQEBAQEBAQEBAQEBAQEBAQEBAQEBAQEBAQEBHN0cDRAAAAAYGBgYGBgYGBgYGBgYGBgYGBgYGBgYGBg
        YGBgYGBgYGBgYGBgYGBgYGBgYGBgYGBgYGBgYGBgYGBgYGBgYGBgYHN0cDVAAAAAAAAAAAAAAAAAAAAAAAAAAAAAAAAAAAAAAAAAAAAAAAAAAAAAAAAAAAAAAAAAAAAA
        AAAAAAAAAAAAAAAAAAAAAHByb2cSAgAAcHJncCIAAAAQIGQEAQEAfwB/AEAAAQABAAAAAAAAAAAAfwAAAAAAAAAAcGdubTAAAABTZXEgMmsgS3JhZnR3ZXJrMyAoQStD
        LCBGK0EpAAAAAPQ4vl//fwAA9OCqEgEAAABzdHAwQAAAAAAAAAAAAPsAAAD7AAAAAAAAAAAAAgAAAAAAAAAAAPsAAAAAAAAAAAAAAAAAAAAAAAAAAAAAAAAAAAAAAAAA
        AABzdHAxQAAAAAgICAgICAgICAgICAgICAgICAgICAgICAgICAgICAgICAgICAgICAgICAgICAgICAgICAgICAgICAgICAgICAhzdHAyQAAAAAEAAAABAAEAAQABAAAA
        AQABAAAAAQABAAAAAAAAAAEAAQEBAQEBAQEBAQEBAQEBAQEBAQEBAQEBAQEBAQEBAQFzdHAzQAAAAAQEBAQEBAQEBAQEBAQEBAQIBAQEBAQEBAQEBAQEBAQEBAQEBAQE
        BAQEBAQEBAQEBAQEBAQEBAQEBAQEBAQEBARzdHA0QAAAAGBgYGBgYGBgYGBgYGBgYGBgYGBgYGBgYGBgYGBgYGBgYGBgYGBgYGBgYGBgYGBgYGBgYGBgYGBgYGBgYGBg
        YGBzdHA1QAAAAAAAAAAAAAAAAAAAAAAAAAAAAAAAAAAAAAAAAAAAAAAAAAAAAAAAAAAAAAAAAAAAAAAAAAAAAAAAAAAAAAAAAABwcm9nEgIAAHByZ3AiAAAAECBkBAEB
        AH8AfwBAAAEAAQAAAAAAAAAAAH8AAAAAAAAAAHBnbm0wAAAAU2VxIDJrIEtyYWZ0d2VyazMgKEErQywgRitBKQAAAAD0OL5f/38AAPTgqhIBAAAAc3RwMEAAAAAAAAAA
        AAD7AAAA+wAAAAAAAAAAAAIAAAAAAAAAAAD7AAAAAAAAAAAAAAAAAAAAAAAAAAAAAAAAAAAAAAAAAAAAc3RwMUAAAAAICAgICAgICAgICAgICAgICAgICAgICAgICAgI
        CAgICAgICAgICAgICAgICAgICAgICAgICAgICAgICAgICAgIc3RwMkAAAAABAAAAAQABAAEAAQAAAAEAAQAAAAEAAQAAAAAAAAABAAEBAQEBAQEBAQEBAQEBAQEBAQEB
        AQEBAQEBAQEBAQEBc3RwM0AAAAAEBAQEBAQEBAQEBAQEBAQECAQEBAQEBAQEBAQEBAQEBAQEBAQEBAQEBAQEBAQEBAQEBAQEBAQEBAQEBAQEBAQEc3RwNEAAAABgYGBg
        YGBgYGBgYGBgYGBgYGBgYGBgYGBgYGBgYGBgYGBgYGBgYGBgYGBgYGBgYGBgYGBgYGBgYGBgYGBgYGBgc3RwNUAAAAAAAAAAAAAAAAAAAAAAAAAAAAAAAAAAAAAAAAAA
        AAAAAAAAAAAAAAAAAAAAAAAAAAAAAAAAAAAAAAAAAAAAAAAAcHJvZxICAABwcmdwIgAAABAgZAQBAQB/AH8AQAABAAEAAAAAAAAAAAB/AAAAAAAAAABwZ25tMAAAAFNl
        cSAyayBLcmFmdHdlcmszIChBK0MsIEYrQSkAAAAA9Di+X/9/AAD04KoSAQAAAHN0cDBAAAAAAAAAAAAA+wAAAPsAAAAAAAAAAAACAAAAAAAAAAAA+wAAAAAAAAAAAAAA
        AAAAAAAAAAAAAAAAAAAAAAAAAAAAAHN0cDFAAAAACAgICAgICAgICAgICAgICAgICAgICAgICAgICAgICAgICAgICAgICAgICAgICAgICAgICAgICAgICAgICAgICHN0
        cDJAAAAAAQAAAAEAAQABAAEAAAABAAEAAAABAAEAAAAAAAAAAQABAQEBAQEBAQEBAQEBAQEBAQEBAQEBAQEBAQEBAQEBAXN0cDNAAAAABAQEBAQEBAQEBAQEBAQEBAgE
        BAQEBAQEBAQEBAQEBAQEBAQEBAQEBAQEBAQEBAQEBAQEBAQEBAQEBAQEBAQEBHN0cDRAAAAAYGBgYGBgYGBgYGBgYGBgYGBgYGBgYGBgYGBgYGBgYGBgYGBgYGBgYGBg
        YGBgYGBgYGBgYGBgYGBgYGBgYGBgYHN0cDVAAAAAAAAAAAAAAAAAAAAAAAAAAAAAAAAAAAAAAAAAAAAAAAAAAAAAAAAAAAAAAAAAAAAAAAAAAAAAAAAAAAAAAAAAAHBy
        b2cSAgAAcHJncCIAAAAQIGQEAQEAfwB/AEAAAQABAAAAAAAAAAAAfwAAAAAAAAAAcGdubTAAAABTZXEgMmsgS3JhZnR3ZXJrMyAoQStDLCBGK0EpAAAAAPQ4vl//fwAA
        9OCqEgEAAABzdHAwQAAAAAAAAAAAAPsAAAD7AAAAAAAAAAAAAgAAAAAAAAAAAPsAAAAAAAAAAAAAAAAAAAAAAAAAAAAAAAAAAAAAAAAAAABzdHAxQAAAAAgICAgICAgI
        CAgICAgICAgICAgICAgICAgICAgICAgICAgICAgICAgICAgICAgICAgICAgICAgICAgICAgICAhzdHAyQAAAAAEAAAABAAEAAQABAAAAAQABAAAAAQABAAAAAAAAAAEA
        AQEBAQEBAQEBAQEBAQEBAQEBAQEBAQEBAQEBAQEBAQFzdHAzQAAAAAQEBAQEBAQEBAQEBAQEBAQIBAQEBAQEBAQEBAQEBAQEBAQEBAQEBAQEBAQEBAQEBAQEBAQEBAQE
        BAQEBAQEBARzdHA0QAAAAGBgYGBgYGBgYGBgYGBgYGBgYGBgYGBgYGBgYGBgYGBgYGBgYGBgYGBgYGBgYGBgYGBgYGBgYGBgYGBgYGBgYGBzdHA1QAAAAAAAAAAAAAAA
        AAAAAAAAAAAAAAAAAAAAAAAAAAAAAAAAAAAAAAAAAAAAAAAAAAAAAAAAAAAAAAAAAAAAAAAAAABwcm9nEgIAAHByZ3AiAAAAECBkBAEBAH8AfwBAAAEAAQAAAAAAAAAA
        AH8AAAAAAAAAAHBnbm0wAAAAU2VxIDJrIEtyYWZ0d2VyazMgKEErQywgRitBKQAAAAD0OL5f/38AAPTgqhIBAAAAc3RwMEAAAAAAAAAAAAD7AAAA+wAAAAAAAAAAAAIA
        AAAAAAAAAAD7AAAAAAAAAAAAAAAAAAAAAAAAAAAAAAAAAAAAAAAAAAAAc3RwMUAAAAAICAgICAgICAgICAgICAgICAgICAgICAgICAgICAgICAgICAgICAgICAgICAgI
        CAgICAgICAgICAgICAgICAgIc3RwMkAAAAABAAAAAQABAAEAAQAAAAEAAQAAAAEAAQAAAAAAAAABAAEBAQEBAQEBAQEBAQEBAQEBAQEBAQEBAQEBAQEBAQEBc3RwM0AA
        AAAEBAQEBAQEBAQEBAQEBAQECAQEBAQEBAQEBAQEBAQEBAQEBAQEBAQEBAQEBAQEBAQEBAQEBAQEBAQEBAQEBAQEc3RwNEAAAABgYGBgYGBgYGBgYGBgYGBgYGBgYGBg
        YGBgYGBgYGBgYGBgYGBgYGBgYGBgYGBgYGBgYGBgYGBgYGBgYGBgYGBgc3RwNUAAAAAAAAAAAAAAAAAAAAAAAAAAAAAAAAAAAAAAAAAAAAAAAAAAAAAAAAAAAAAAAAAA
        AAAAAAAAAAAAAAAAAAAAAAAAcHJvZxICAABwcmdwIgAAABAgZAQBAQB/AH8AQAABAAEAAAAAAAAAAAB/AAAAAAAAAABwZ25tMAAAAFNlcSAyayBLcmFmdHdlcmszIChB
        K0MsIEYrQSkAAAAA9Di+X/9/AAD04KoSAQAAAHN0cDBAAAAAAAAAAAAA+wAAAPsAAAAAAAAAAAACAAAAAAAAAAAA+wAAAAAAAAAAAAAAAAAAAAAAAAAAAAAAAAAAAAAA
        AAAAAHN0cDFAAAAACAgICAgICAgICAgICAgICAgICAgICAgICAgICAgICAgICAgICAgICAgICAgICAgICAgICAgICAgICAgICAgICHN0cDJAAAAAAQAAAAEAAQABAAEA
        AAABAAEAAAABAAEAAAAAAAAAAQABAQEBAQEBAQEBAQEBAQEBAQEBAQEBAQEBAQEBAQEBAXN0cDNAAAAABAQEBAQEBAQEBAQEBAQEBAgEBAQEBAQEBAQEBAQEBAQEBAQE
        BAQEBAQEBAQEBAQEBAQEBAQEBAQEBAQEBAQEBHN0cDRAAAAAYGBgYGBgYGBgYGBgYGBgYGBgYGBgYGBgYGBgYGBgYGBgYGBgYGBgYGBgYGBgYGBgYGBgYGBgYGBgYGBg
        YGBgYHN0cDVAAAAAAAAAAAAAAAAAAAAAAAAAAAAAAAAAAAAAAAAAAAAAAAAAAAAAAAAAAAAAAAAAAAAAAAAAAAAAAAAAAAAAAAAAAHByb2cSAgAAcHJncCIAAAAQIGQE
        AQEAfwB/AEAAAQABAAAAAAAAAAAAfwAAAAAAAAAAcGdubTAAAABTZXEgMmsgS3JhZnR3ZXJrMyAoQStDLCBGK0EpAAAAAPQ4vl//fwAA9OCqEgEAAABzdHAwQAAAAAAA
        AAAAAPsAAAD7AAAAAAAAAAAAAgAAAAAAAAAAAPsAAAAAAAAAAAAAAAAAAAAAAAAAAAAAAAAAAAAAAAAAAABzdHAxQAAAAAgICAgICAgICAgICAgICAgICAgICAgICAgI
        CAgICAgICAgICAgICAgICAgICAgICAgICAgICAgICAgICAgICAhzdHAyQAAAAAEAAAABAAEAAQABAAAAAQABAAAAAQABAAAAAAAAAAEAAQEBAQEBAQEBAQEBAQEBAQEB
        AQEBAQEBAQEBAQEBAQFzdHAzQAAAAAQEBAQEBAQEBAQEBAQEBAQIBAQEBAQEBAQEBAQEBAQEBAQEBAQEBAQEBAQEBAQEBAQEBAQEBAQEBAQEBAQEBARzdHA0QAAAAGBg
        YGBgYGBgYGBgYGBgYGBgYGBgYGBgYGBgYGBgYGBgYGBgYGBgYGBgYGBgYGBgYGBgYGBgYGBgYGBgYGBgYGBzdHA1QAAAAAAAAAAAAAAAAAAAAAAAAAAAAAAAAAAAAAAA
        AAAAAAAAAAAAAAAAAAAAAAAAAAAAAAAAAAAAAAAAAAAAAAAAAABwcm9nEgIAAHByZ3AiAAAAECBkBAEBAH8AfwBAAAEAAQAAAAAAAAAAAH8AAAAAAAAAAHBnbm0wAAAA
        U2VxIDJrIEtyYWZ0d2VyazMgKEErQywgRitBKQAAAAD0OL5f/38AAPTgqhIBAAAAc3RwMEAAAAAAAAAAAAD7AAAA+wAAAAAAAAAAAAIAAAAAAAAAAAD7AAAAAAAAAAAA
        AAAAAAAAAAAAAAAAAAAAAAAAAAAAAAAAc3RwMUAAAAAICAgICAgICAgICAgICAgICAgICAgICAgICAgICAgICAgICAgICAgICAgICAgICAgICAgICAgICAgICAgICAgI
        c3RwMkAAAAABAAAAAQABAAEAAQAAAAEAAQAAAAEAAQAAAAAAAAABAAEBAQEBAQEBAQEBAQEBAQEBAQEBAQEBAQEBAQEBAQEBc3RwM0AAAAAEBAQEBAQEBAQEBAQEBAQE
        CAQEBAQEBAQEBAQEBAQEBAQEBAQEBAQEBAQEBAQEBAQEBAQEBAQEBAQEBAQEBAQEc3RwNEAAAABgYGBgYGBgYGBgYGBgYGBgYGBgYGBgYGBgYGBgYGBgYGBgYGBgYGBg
        YGBgYGBgYGBgYGBgYGBgYGBgYGBgYGBgc3RwNUAAAAAAAAAAAAAAAAAAAAAAAAAAAAAAAAAAAAAAAAAAAAAAAAAAAAAAAAAAAAAAAAAAAAAAAAAAAAAAAAAAAAAAAAAA
        cHJvZxICAABwcmdwIgAAABAgZAQBAQB/AH8AQAABAAEAAAAAAAAAAAB/AAAAAAAAAABwZ25tMAAAAFNlcSAyayBLcmFmdHdlcmszIChBK0MsIEYrQSkAAAAA9Di+X/9/
        AAD04KoSAQAAAHN0cDBAAAAAAAAAAAAA+wAAAPsAAAAAAAAAAAACAAAAAAAAAAAA+wAAAAAAAAAAAAAAAAAAAAAAAAAAAAAAAAAAAAAAAAAAAHN0cDFAAAAACAgICAgI
        CAgICAgICAgICAgICAgICAgICAgICAgICAgICAgICAgICAgICAgICAgICAgICAgICAgICAgICAgICHN0cDJAAAAAAQAAAAEAAQABAAEAAAABAAEAAAABAAEAAAAAAAAA
        AQABAQEBAQEBAQEBAQEBAQEBAQEBAQEBAQEBAQEBAQEBAXN0cDNAAAAABAQEBAQEBAQEBAQEBAQEBAgEBAQEBAQEBAQEBAQEBAQEBAQEBAQEBAQEBAQEBAQEBAQEBAQE
        BAQEBAQEBAQEBHN0cDRAAAAAYGBgYGBgYGBgYGBgYGBgYGBgYGBgYGBgYGBgYGBgYGBgYGBgYGBgYGBgYGBgYGBgYGBgYGBgYGBgYGBgYGBgYHN0cDVAAAAAAAAAAAAA
        AAAAAAAAAAAAAAAAAAAAAAAAAAAAAAAAAAAAAAAAAAAAAAAAAAAAAAAAAAAAAAAAAAAAAAAAAAAAAHByb2cSAgAAcHJncCIAAAAQIGQEAQEAfwB/AEAAAQABAAAAAAAA
        AAAAfwAAAAAAAAAAcGdubTAAAABTZXEgMmsgS3JhZnR3ZXJrMyAoQStDLCBGK0EpAAAAAPQ4vl//fwAA9OCqEgEAAABzdHAwQAAAAAAAAAAAAPsAAAD7AAAAAAAAAAAA
        AgAAAAAAAAAAAPsAAAAAAAAAAAAAAAAAAAAAAAAAAAAAAAAAAAAAAAAAAABzdHAxQAAAAAgICAgICAgICAgICAgICAgICAgICAgICAgICAgICAgICAgICAgICAgICAgI
        CAgICAgICAgICAgICAgICAgICAhzdHAyQAAAAAEAAAABAAEAAQABAAAAAQABAAAAAQABAAAAAAAAAAEAAQEBAQEBAQEBAQEBAQEBAQEBAQEBAQEBAQEBAQEBAQFzdHAz
        QAAAAAQEBAQEBAQEBAQEBAQEBAQIBAQEBAQEBAQEBAQEBAQEBAQEBAQEBAQEBAQEBAQEBAQEBAQEBAQEBAQEBAQEBARzdHA0QAAAAGBgYGBgYGBgYGBgYGBgYGBgYGBg
        YGBgYGBgYGBgYGBgYGBgYGBgYGBgYGBgYGBgYGBgYGBgYGBgYGBgYGBgYGBzdHA1QAAAAAAAAAAAAAAAAAAAAAAAAAAAAAAAAAAAAAAAAAAAAAAAAAAAAAAAAAAAAAAA
        AAAAAAAAAAAAAAAAAAAAAAAAAABwcm9nEgIAAHByZ3AiAAAAECBkBAEBAH8AfwBAAAEAAQAAAAAAAAAAAH8AAAAAAAAAAHBnbm0wAAAAU2VxIDJrIEtyYWZ0d2VyazMg
        KEErQywgRitBKQAAAAD0OL5f/38AAPTgqhIBAAAAc3RwMEAAAAAAAAAAAAD7AAAA+wAAAAAAAAAAAAIAAAAAAAAAAAD7AAAAAAAAAAAAAAAAAAAAAAAAAAAAAAAAAAAA
        AAAAAAAAc3RwMUAAAAAICAgICAgICAgICAgICAgICAgICAgICAgICAgICAgICAgICAgICAgICAgICAgICAgICAgICAgICAgICAgICAgIc3RwMkAAAAABAAAAAQABAAEA
        AQAAAAEAAQAAAAEAAQAAAAAAAAABAAEBAQEBAQEBAQEBAQEBAQEBAQEBAQEBAQEBAQEBAQEBc3RwM0AAAAAEBAQEBAQEBAQEBAQEBAQECAQEBAQEBAQEBAQEBAQEBAQE
        BAQEBAQEBAQEBAQEBAQEBAQEBAQEBAQEBAQEBAQEc3RwNEAAAABgYGBgYGBgYGBgYGBgYGBgYGBgYGBgYGBgYGBgYGBgYGBgYGBgYGBgYGBgYGBgYGBgYGBgYGBgYGBg
        YGBgYGBgc3RwNUAAAAAAAAAAAAAAAAAAAAAAAAAAAAAAAAAAAAAAAAAAAAAAAAAAAAAAAAAAAAAAAAAAAAAAAAAAAAAAAAAAAAAAAAAAcHJvZxICAABwcmdwIgAAABAg
        ZAQBAQB/AH8AQAABAAEAAAAAAAAAAAB/AAAAAAAAAABwZ25tMAAAAFNlcSAyayBLcmFmdHdlcmszIChBK0MsIEYrQSkAAAAA9Di+X/9/AAD04KoSAQAAAHN0cDBAAAAA
        AAAAAAAA+wAAAPsAAAAAAAAAAAACAAAAAAAAAAAA+wAAAAAAAAAAAAAAAAAAAAAAAAAAAAAAAAAAAAAAAAAAAHN0cDFAAAAACAgICAgICAgICAgICAgICAgICAgICAgI
        CAgICAgICAgICAgICAgICAgICAgICAgICAgICAgICAgICAgICAgICHN0cDJAAAAAAQAAAAEAAQABAAEAAAABAAEAAAABAAEAAAAAAAAAAQABAQEBAQEBAQEBAQEBAQEB
        AQEBAQEBAQEBAQEBAQEBAXN0cDNAAAAABAQEBAQEBAQEBAQEBAQEBAgEBAQEBAQEBAQEBAQEBAQEBAQEBAQEBAQEBAQEBAQEBAQEBAQEBAQEBAQEBAQEBHN0cDRAAAAA
        YGBgYGBgYGBgYGBgYGBgYGBgYGBgYGBgYGBgYGBgYGBgYGBgYGBgYGBgYGBgYGBgYGBgYGBgYGBgYGBgYGBgYHN0cDVAAAAAAAAAAAAAAAAAAAAAAAAAAAAAAAAAAAAA
        AAAAAAAAAAAAAAAAAAAAAAAAAAAAAAAAAAAAAAAAAAAAAAAAAAAAAHByb2cSAgAAcHJncCIAAAAQIGQEAQEAfwB/AEAAAQABAAAAAAAAAAAAfwAAAAAAAAAAcGdubTAA
        AABTZXEgMmsgS3JhZnR3ZXJrMyAoQStDLCBGK0EpAAAAAPQ4vl//fwAA9OCqEgEAAABzdHAwQAAAAAAAAAAAAPsAAAD7AAAAAAAAAAAAAgAAAAAAAAAAAPsAAAAAAAAA
        AAAAAAAAAAAAAAAAAAAAAAAAAAAAAAAAAABzdHAxQAAAAAgICAgICAgICAgICAgICAgICAgICAgICAgICAgICAgICAgICAgICAgICAgICAgICAgICAgICAgICAgICAgI
        CAhzdHAyQAAAAAEAAAABAAEAAQABAAAAAQABAAAAAQABAAAAAAAAAAEAAQEBAQEBAQEBAQEBAQEBAQEBAQEBAQEBAQEBAQEBAQFzdHAzQAAAAAQEBAQEBAQEBAQEBAQE
        BAQIBAQEBAQEBAQEBAQEBAQEBAQEBAQEBAQEBAQEBAQEBAQEBAQEBAQEBAQEBAQEBARzdHA0QAAAAGBgYGBgYGBgYGBgYGBgYGBgYGBgYGBgYGBgYGBgYGBgYGBgYGBg
        YGBgYGBgYGBgYGBgYGBgYGBgYGBgYGBgYGBzdHA1QAAAAAAAAAAAAAAAAAAAAAAAAAAAAAAAAAAAAAAAAAAAAAAAAAAAAAAAAAAAAAAAAAAAAAAAAAAAAAAAAAAAAAAA
        AABwcm9nEgIAAHByZ3AiAAAAECBkBAEBAH8AfwBAAAEAAQAAAAAAAAAAAH8AAAAAAAAAAHBnbm0wAAAAU2VxIDJrIEtyYWZ0d2VyazMgKEErQywgRitBKQAAAAD0OL5f
        /38AAPTgqhIBAAAAc3RwMEAAAAAAAAAAAAD7AAAA+wAAAAAAAAAAAAIAAAAAAAAAAAD7AAAAAAAAAAAAAAAAAAAAAAAAAAAAAAAAAAAAAAAAAAAAc3RwMUAAAAAICAgI
        CAgICAgICAgICAgICAgICAgICAgICAgICAgICAgICAgICAgICAgICAgICAgICAgICAgICAgICAgICAgIc3RwMkAAAAABAAAAAQABAAEAAQAAAAEAAQAAAAEAAQAAAAAA
        AAABAAEBAQEBAQEBAQEBAQEBAQEBAQEBAQEBAQEBAQEBAQEBc3RwM0AAAAAEBAQEBAQEBAQEBAQEBAQECAQEBAQEBAQEBAQEBAQEBAQEBAQEBAQEBAQEBAQEBAQEBAQE
        BAQEBAQEBAQEBAQEc3RwNEAAAABgYGBgYGBgYGBgYGBgYGBgYGBgYGBgYGBgYGBgYGBgYGBgYGBgYGBgYGBgYGBgYGBgYGBgYGBgYGBgYGBgYGBgc3RwNUAAAAAAAAAA
        AAAAAAAAAAAAAAAAAAAAAAAAAAAAAAAAAAAAAAAAAAAAAAAAAAAAAAAAAAAAAAAAAAAAAAAAAAAAAAAAcHJvZxICAABwcmdwIgAAABAgZAQBAQB/AH8AQAABAAEAAAAA
        AAAAAAB/AAAAAAAAAABwZ25tMAAAAFNlcSAyayBLcmFmdHdlcmszIChBK0MsIEYrQSkAAAAA9Di+X/9/AAD04KoSAQAAAHN0cDBAAAAAAAAAAAAA+wAAAPsAAAAAAAAA
        AAACAAAAAAAAAAAA+wAAAAAAAAAAAAAAAAAAAAAAAAAAAAAAAAAAAAAAAAAAAHN0cDFAAAAACAgICAgICAgICAgICAgICAgICAgICAgICAgICAgICAgICAgICAgICAgI
        CAgICAgICAgICAgICAgICAgICAgICHN0cDJAAAAAAQAAAAEAAQABAAEAAAABAAEAAAABAAEAAAAAAAAAAQABAQEBAQEBAQEBAQEBAQEBAQEBAQEBAQEBAQEBAQEBAXN0
        cDNAAAAABAQEBAQEBAQEBAQEBAQEBAgEBAQEBAQEBAQEBAQEBAQEBAQEBAQEBAQEBAQEBAQEBAQEBAQEBAQEBAQEBAQEBHN0cDRAAAAAYGBgYGBgYGBgYGBgYGBgYGBg
        YGBgYGBgYGBgYGBgYGBgYGBgYGBgYGBgYGBgYGBgYGBgYGBgYGBgYGBgYGBgYHN0cDVAAAAAAAAAAAAAAAAAAAAAAAAAAAAAAAAAAAAAAAAAAAAAAAAAAAAAAAAAAAAA
        AAAAAAAAAAAAAAAAAAAAAAAAAAAAAHByb2cSAgAAcHJncCIAAAAQIGQEAQEAfwB/AEAAAQABAAAAAAAAAAAAfwAAAAAAAAAAcGdubTAAAABTZXEgMmsgS3JhZnR3ZXJr
        MyAoQStDLCBGK0EpAAAAAPQ4vl//fwAA9OCqEgEAAABzdHAwQAAAAAAAAAAAAPsAAAD7AAAAAAAAAAAAAgAAAAAAAAAAAPsAAAAAAAAAAAAAAAAAAAAAAAAAAAAAAAAA
        AAAAAAAAAABzdHAxQAAAAAgICAgICAgICAgICAgICAgICAgICAgICAgICAgICAgICAgICAgICAgICAgICAgICAgICAgICAgICAgICAgICAhzdHAyQAAAAAEAAAABAAEA
        AQABAAAAAQABAAAAAQABAAAAAAAAAAEAAQEBAQEBAQEBAQEBAQEBAQEBAQEBAQEBAQEBAQEBAQFzdHAzQAAAAAQEBAQEBAQEBAQEBAQEBAQIBAQEBAQEBAQEBAQEBAQE
        BAQEBAQEBAQEBAQEBAQEBAQEBAQEBAQEBAQEBAQEBARzdHA0QAAAAGBgYGBgYGBgYGBgYGBgYGBgYGBgYGBgYGBgYGBgYGBgYGBgYGBgYGBgYGBgYGBgYGBgYGBgYGBg
        YGBgYGBgYGBzdHA1QAAAAAAAAAAAAAAAAAAAAAAAAAAAAAAAAAAAAAAAAAAAAAAAAAAAAAAAAAAAAAAAAAAAAAAAAAAAAAAAAAAAAAAAAABwcm9nEgIAAHByZ3AiAAAA
        ECBkBAEBAH8AfwBAAAEAAQAAAAAAAAAAAH8AAAAAAAAAAHBnbm0wAAAAU2VxIDJrIEtyYWZ0d2VyazMgKEErQywgRitBKQAAAAD0OL5f/38AAPTgqhIBAAAAc3RwMEAA
        AAAAAAAAAAD7AAAA+wAAAAAAAAAAAAIAAAAAAAAAAAD7AAAAAAAAAAAAAAAAAAAAAAAAAAAAAAAAAAAAAAAAAAAAc3RwMUAAAAAICAgICAgICAgICAgICAgICAgICAgI
        CAgICAgICAgICAgICAgICAgICAgICAgICAgICAgICAgICAgICAgICAgIc3RwMkAAAAABAAAAAQABAAEAAQAAAAEAAQAAAAEAAQAAAAAAAAABAAEBAQEBAQEBAQEBAQEB
        AQEBAQEBAQEBAQEBAQEBAQEBc3RwM0AAAAAEBAQEBAQEBAQEBAQEBAQECAQEBAQEBAQEBAQEBAQEBAQEBAQEBAQEBAQEBAQEBAQEBAQEBAQEBAQEBAQEBAQEc3RwNEAA
        AABgYGBgYGBgYGBgYGBgYGBgYGBgYGBgYGBgYGBgYGBgYGBgYGBgYGBgYGBgYGBgYGBgYGBgYGBgYGBgYGBgYGBgc3RwNUAAAAAAAAAAAAAAAAAAAAAAAAAAAAAAAAAA
        AAAAAAAAAAAAAAAAAAAAAAAAAAAAAAAAAAAAAAAAAAAAAAAAAAAAAAAAcHJvZxICAABwcmdwIgAAABAgZAQBAQB/AH8AQAABAAEAAAAAAAAAAAB/AAAAAAAAAABwZ25t
        MAAAAFNlcSAyayBLcmFmdHdlcmszIChBK0MsIEYrQSkAAAAA9Di+X/9/AAD04KoSAQAAAHN0cDBAAAAAAAAAAAAA+wAAAPsAAAAAAAAAAAACAAAAAAAAAAAA+wAAAAAA
        AAAAAAAAAAAAAAAAAAAAAAAAAAAAAAAAAAAAAHN0cDFAAAAACAgICAgICAgICAgICAgICAgICAgICAgICAgICAgICAgICAgICAgICAgICAgICAgICAgICAgICAgICAgI
        CAgICHN0cDJAAAAAAQAAAAEAAQABAAEAAAABAAEAAAABAAEAAAAAAAAAAQABAQEBAQEBAQEBAQEBAQEBAQEBAQEBAQEBAQEBAQEBAXN0cDNAAAAABAQEBAQEBAQEBAQE
        BAQEBAgEBAQEBAQEBAQEBAQEBAQEBAQEBAQEBAQEBAQEBAQEBAQEBAQEBAQEBAQEBAQEBHN0cDRAAAAAYGBgYGBgYGBgYGBgYGBgYGBgYGBgYGBgYGBgYGBgYGBgYGBg
        YGBgYGBgYGBgYGBgYGBgYGBgYGBgYGBgYGBgYHN0cDVAAAAAAAAAAAAAAAAAAAAAAAAAAAAAAAAAAAAAAAAAAAAAAAAAAAAAAAAAAAAAAAAAAAAAAAAAAAAAAAAAAAAA
        AAAAAHByb2cSAgAAcHJncCIAAAAQIGQEAQEAfwB/AEAAAQABAAAAAAAAAAAAfwAAAAAAAAAAcGdubTAAAABTZXEgMmsgS3JhZnR3ZXJrMyAoQStDLCBGK0EpAAAAAPQ4
        vl//fwAA9OCqEgEAAABzdHAwQAAAAAAAAAAAAPsAAAD7AAAAAAAAAAAAAgAAAAAAAAAAAPsAAAAAAAAAAAAAAAAAAAAAAAAAAAAAAAAAAAAAAAAAAABzdHAxQAAAAAgI
        CAgICAgICAgICAgICAgICAgICAgICAgICAgICAgICAgICAgICAgICAgICAgICAgICAgICAgICAgICAgICAhzdHAyQAAAAAEAAAABAAEAAQABAAAAAQABAAAAAQABAAAA
        AAAAAAEAAQEBAQEBAQEBAQEBAQEBAQEBAQEBAQEBAQEBAQEBAQFzdHAzQAAAAAQEBAQEBAQEBAQEBAQEBAQIBAQEBAQEBAQEBAQEBAQEBAQEBAQEBAQEBAQEBAQEBAQE
        BAQEBAQEBAQEBAQEBARzdHA0QAAAAGBgYGBgYGBgYGBgYGBgYGBgYGBgYGBgYGBgYGBgYGBgYGBgYGBgYGBgYGBgYGBgYGBgYGBgYGBgYGBgYGBgYGBzdHA1QAAAAAAA
        AAAAAAAAAAAAAAAAAAAAAAAAAAAAAAAAAAAAAAAAAAAAAAAAAAAAAAAAAAAAAAAAAAAAAAAAAAAAAAAAAABwcm9nEgIAAHByZ3AiAAAAECBkBAEBAH8AfwBAAAEAAQAA
        AAAAAAAAAH8AAAAAAAAAAHBnbm0wAAAAU2VxIDJrIEtyYWZ0d2VyazMgKEErQywgRitBKQAAAAD0OL5f/38AAPTgqhIBAAAAc3RwMEAAAAAAAAAAAAD7AAAA+wAAAAAA
        AAAAAAIAAAAAAAAAAAD7AAAAAAAAAAAAAAAAAAAAAAAAAAAAAAAAAAAAAAAAAAAAc3RwMUAAAAAICAgICAgICAgICAgICAgICAgICAgICAgICAgICAgICAgICAgICAgI
        CAgICAgICAgICAgICAgICAgICAgICAgIc3RwMkAAAAABAAAAAQABAAEAAQAAAAEAAQAAAAEAAQAAAAAAAAABAAEBAQEBAQEBAQEBAQEBAQEBAQEBAQEBAQEBAQEBAQEB
        c3RwM0AAAAAEBAQEBAQEBAQEBAQEBAQECAQEBAQEBAQEBAQEBAQEBAQEBAQEBAQEBAQEBAQEBAQEBAQEBAQEBAQEBAQEBAQEc3RwNEAAAABgYGBgYGBgYGBgYGBgYGBg
        YGBgYGBgYGBgYGBgYGBgYGBgYGBgYGBgYGBgYGBgYGBgYGBgYGBgYGBgYGBgYGBgc3RwNUAAAAAAAAAAAAAAAAAAAAAAAAAAAAAAAAAAAAAAAAAAAAAAAAAAAAAAAAAA
        AAAAAAAAAAAAAAAAAAAAAAAAAAAAAAAAcHJvZxICAABwcmdwIgAAABAgZAQBAQB/AH8AQAABAAEAAAAAAAAAAAB/AAAAAAAAAABwZ25tMAAAAFNlcSAyayBLcmFmdHdl
        cmszIChBK0MsIEYrQSkAAAAA9Di+X/9/AAD04KoSAQAAAHN0cDBAAAAAAAAAAAAA+wAAAPsAAAAAAAAAAAACAAAAAAAAAAAA+wAAAAAAAAAAAAAAAAAAAAAAAAAAAAAA
        AAAAAAAAAAAAAHN0cDFAAAAACAgICAgICAgICAgICAgICAgICAgICAgICAgICAgICAgICAgICAgICAgICAgICAgICAgICAgICAgICAgICAgICHN0cDJAAAAAAQAAAAEA
        AQABAAEAAAABAAEAAAABAAEAAAAAAAAAAQABAQEBAQEBAQEBAQEBAQEBAQEBAQEBAQEBAQEBAQEBAXN0cDNAAAAABAQEBAQEBAQEBAQEBAQEBAgEBAQEBAQEBAQEBAQE
        BAQEBAQEBAQEBAQEBAQEBAQEBAQEBAQEBAQEBAQEBAQEBHN0cDRAAAAAYGBgYGBgYGBgYGBgYGBgYGBgYGBgYGBgYGBgYGBgYGBgYGBgYGBgYGBgYGBgYGBgYGBgYGBg
        YGBgYGBgYGBgYHN0cDVAAAAAAAAAAAAAAAAAAAAAAAAAAAAAAAAAAAAAAAAAAAAAAAAAAAAAAAAAAAAAAAAAAAAAAAAAAAAAAAAAAAAAAAAAAHByb2cSAgAAcHJncCIA
        AAAQIGQEAQEAfwB/AEAAAQABAAAAAAAAAAAAfwAAAAAAAAAAcGdubTAAAABTZXEgMmsgS3JhZnR3ZXJrMyAoQStDLCBGK0EpAAAAAPQ4vl//fwAA9OCqEgEAAABzdHAw
        QAAAAAAAAAAAAPsAAAD7AAAAAAAAAAAAAgAAAAAAAAAAAPsAAAAAAAAAAAAAAAAAAAAAAAAAAAAAAAAAAAAAAAAAAABzdHAxQAAAAAgICAgICAgICAgICAgICAgICAgI
        CAgICAgICAgICAgICAgICAgICAgICAgICAgICAgICAgICAgICAgICAgICAhzdHAyQAAAAAEAAAABAAEAAQABAAAAAQABAAAAAQABAAAAAAAAAAEAAQEBAQEBAQEBAQEB
        AQEBAQEBAQEBAQEBAQEBAQEBAQFzdHAzQAAAAAQEBAQEBAQEBAQEBAQEBAQIBAQEBAQEBAQEBAQEBAQEBAQEBAQEBAQEBAQEBAQEBAQEBAQEBAQEBAQEBAQEBARzdHA0
        QAAAAGBgYGBgYGBgYGBgYGBgYGBgYGBgYGBgYGBgYGBgYGBgYGBgYGBgYGBgYGBgYGBgYGBgYGBgYGBgYGBgYGBgYGBzdHA1QAAAAAAAAAAAAAAAAAAAAAAAAAAAAAAA
        AAAAAAAAAAAAAAAAAAAAAAAAAAAAAAAAAAAAAAAAAAAAAAAAAAAAAAAAAABwcm9nEgIAAHByZ3AiAAAAECBkBAEBAH8AfwBAAAEAAQAAAAAAAAAAAH8AAAAAAAAAAHBn
        bm0wAAAAU2VxIDJrIEtyYWZ0d2VyazMgKEErQywgRitBKQAAAAD0OL5f/38AAPTgqhIBAAAAc3RwMEAAAAAAAAAAAAD7AAAA+wAAAAAAAAAAAAIAAAAAAAAAAAD7AAAA
        AAAAAAAAAAAAAAAAAAAAAAAAAAAAAAAAAAAAAAAAc3RwMUAAAAAICAgICAgICAgICAgICAgICAgICAgICAgICAgICAgICAgICAgICAgICAgICAgICAgICAgICAgICAgI
        CAgICAgIc3RwMkAAAAABAAAAAQABAAEAAQAAAAEAAQAAAAEAAQAAAAAAAAABAAEBAQEBAQEBAQEBAQEBAQEBAQEBAQEBAQEBAQEBAQEBc3RwM0AAAAAEBAQEBAQEBAQE
        BAQEBAQECAQEBAQEBAQEBAQEBAQEBAQEBAQEBAQEBAQEBAQEBAQEBAQEBAQEBAQEBAQEBAQEc3RwNEAAAABgYGBgYGBgYGBgYGBgYGBgYGBgYGBgYGBgYGBgYGBgYGBg
        YGBgYGBgYGBgYGBgYGBgYGBgYGBgYGBgYGBgYGBgc3RwNUAAAAAAAAAAAAAAAAAAAAAAAAAAAAAAAAAAAAAAAAAAAAAAAAAAAAAAAAAAAAAAAAAAAAAAAAAAAAAAAAAA
        AAAAAAAAcHJvZxICAABwcmdwIgAAABAgZAQBAQB/AH8AQAABAAEAAAAAAAAAAAB/AAAAAAAAAABwZ25tMAAAAFNlcSAyayBLcmFmdHdlcmszIChBK0MsIEYrQSkAAAAA
        9Di+X/9/AAD04KoSAQAAAHN0cDBAAAAAAAAAAAAA+wAAAPsAAAAAAAAAAAACAAAAAAAAAAAA+wAAAAAAAAAAAAAAAAAAAAAAAAAAAAAAAAAAAAAAAAAAAHN0cDFAAAAA
        CAgICAgICAgICAgICAgICAgICAgICAgICAgICAgICAgICAgICAgICAgICAgICAgICAgICAgICAgICAgICAgICHN0cDJAAAAAAQAAAAEAAQABAAEAAAABAAEAAAABAAEA
        AAAAAAAAAQABAQEBAQEBAQEBAQEBAQEBAQEBAQEBAQEBAQEBAQEBAXN0cDNAAAAABAQEBAQEBAQEBAQEBAQEBAgEBAQEBAQEBAQEBAQEBAQEBAQEBAQEBAQEBAQEBAQE
        BAQEBAQEBAQEBAQEBAQEBHN0cDRAAAAAYGBgYGBgYGBgYGBgYGBgYGBgYGBgYGBgYGBgYGBgYGBgYGBgYGBgYGBgYGBgYGBgYGBgYGBgYGBgYGBgYGBgYHN0cDVAAAAA
        AAAAAAAAAAAAAAAAAAAAAAAAAAAAAAAAAAAAAAAAAAAAAAAAAAAAAAAAAAAAAAAAAAAAAAAAAAAAAAAAAAAAAHByb2cSAgAAcHJncCIAAAAQIGQEAQEAfwB/AEAAAQAB
        AAAAAAAAAAAAfwAAAAAAAAAAcGdubTAAAABTZXEgMmsgS3JhZnR3ZXJrMyAoQStDLCBGK0EpAAAAAPQ4vl//fwAA9OCqEgEAAABzdHAwQAAAAAAAAAAAAPsAAAD7AAAA
        AAAAAAAAAgAAAAAAAAAAAPsAAAAAAAAAAAAAAAAAAAAAAAAAAAAAAAAAAAAAAAAAAABzdHAxQAAAAAgICAgICAgICAgICAgICAgICAgICAgICAgICAgICAgICAgICAgI
        CAgICAgICAgICAgICAgICAgICAgICAgICAhzdHAyQAAAAAEAAAABAAEAAQABAAAAAQABAAAAAQABAAAAAAAAAAEAAQEBAQEBAQEBAQEBAQEBAQEBAQEBAQEBAQEBAQEB
        AQFzdHAzQAAAAAQEBAQEBAQEBAQEBAQEBAQIBAQEBAQEBAQEBAQEBAQEBAQEBAQEBAQEBAQEBAQEBAQEBAQEBAQEBAQEBAQEBARzdHA0QAAAAGBgYGBgYGBgYGBgYGBg
        YGBgYGBgYGBgYGBgYGBgYGBgYGBgYGBgYGBgYGBgYGBgYGBgYGBgYGBgYGBgYGBgYGBzdHA1QAAAAAAAAAAAAAAAAAAAAAAAAAAAAAAAAAAAAAAAAAAAAAAAAAAAAAAA
        AAAAAAAAAAAAAAAAAAAAAAAAAAAAAAAAAABwcm9nEgIAAHByZ3AiAAAAECBkBAEBAH8AfwBAAAEAAQAAAAAAAAAAAH8AAAAAAAAAAHBnbm0wAAAAU2VxIDJrIEtyYWZ0
        d2VyazMgKEErQywgRitBKQAAAAD0OL5f/38AAPTgqhIBAAAAc3RwMEAAAAAAAAAAAAD7AAAA+wAAAAAAAAAAAAIAAAAAAAAAAAD7AAAAAAAAAAAAAAAAAAAAAAAAAAAA
        AAAAAAAAAAAAAAAAc3RwMUAAAAAICAgICAgICAgICAgICAgICAgICAgICAgICAgICAgICAgICAgICAgICAgICAgICAgICAgICAgICAgICAgICAgIc3RwMkAAAAABAAAA
        AQABAAEAAQAAAAEAAQAAAAEAAQAAAAAAAAABAAEBAQEBAQEBAQEBAQEBAQEBAQEBAQEBAQEBAQEBAQEBc3RwM0AAAAAEBAQEBAQEBAQEBAQEBAQECAQEBAQEBAQEBAQE
        BAQEBAQEBAQEBAQEBAQEBAQEBAQEBAQEBAQEBAQEBAQEBAQEc3RwNEAAAABgYGBgYGBgYGBgYGBgYGBgYGBgYGBgYGBgYGBgYGBgYGBgYGBgYGBgYGBgYGBgYGBgYGBg
        YGBgYGBgYGBgYGBgc3RwNUAAAAAAAAAAAAAAAAAAAAAAAAAAAAAAAAAAAAAAAAAAAAAAAAAAAAAAAAAAAAAAAAAAAAAAAAAAAAAAAAAAAAAAAAAAcHJvZxICAABwcmdw
        IgAAABAgZAQBAQB/AH8AQAABAAEAAAAAAAAAAAB/AAAAAAAAAABwZ25tMAAAAFNlcSAyayBLcmFmdHdlcmszIChBK0MsIEYrQSkAAAAA9Di+X/9/AAD04KoSAQAAAHN0
        cDBAAAAAAAAAAAAA+wAAAPsAAAAAAAAAAAACAAAAAAAAAAAA+wAAAAAAAAAAAAAAAAAAAAAAAAAAAAAAAAAAAAAAAAAAAHN0cDFAAAAACAgICAgICAgICAgICAgICAgI
        CAgICAgICAgICAgICAgICAgICAgICAgICAgICAgICAgICAgICAgICAgICAgICHN0cDJAAAAAAQAAAAEAAQABAAEAAAABAAEAAAABAAEAAAAAAAAAAQABAQEBAQEBAQEB
        AQEBAQEBAQEBAQEBAQEBAQEBAQEBAXN0cDNAAAAABAQEBAQEBAQEBAQEBAQEBAgEBAQEBAQEBAQEBAQEBAQEBAQEBAQEBAQEBAQEBAQEBAQEBAQEBAQEBAQEBAQEBHN0
        cDRAAAAAYGBgYGBgYGBgYGBgYGBgYGBgYGBgYGBgYGBgYGBgYGBgYGBgYGBgYGBgYGBgYGBgYGBgYGBgYGBgYGBgYGBgYHN0cDVAAAAAAAAAAAAAAAAAAAAAAAAAAAAA
        AAAAAAAAAAAAAAAAAAAAAAAAAAAAAAAAAAAAAAAAAAAAAAAAAAAAAAAAAAAAAHByb2cSAgAAcHJncCIAAAAQIGQEAQEAfwB/AEAAAQABAAAAAAAAAAAAfwAAAAAAAAAA
        cGdubTAAAABTZXEgMmsgS3JhZnR3ZXJrMyAoQStDLCBGK0EpAAAAAPQ4vl//fwAA9OCqEgEAAABzdHAwQAAAAAAAAAAAAPsAAAD7AAAAAAAAAAAAAgAAAAAAAAAAAPsA
        AAAAAAAAAAAAAAAAAAAAAAAAAAAAAAAAAAAAAAAAAABzdHAxQAAAAAgICAgICAgICAgICAgICAgICAgICAgICAgICAgICAgICAgICAgICAgICAgICAgICAgICAgICAgI
        CAgICAgICAhzdHAyQAAAAAEAAAABAAEAAQABAAAAAQABAAAAAQABAAAAAAAAAAEAAQEBAQEBAQEBAQEBAQEBAQEBAQEBAQEBAQEBAQEBAQFzdHAzQAAAAAQEBAQEBAQE
        BAQEBAQEBAQIBAQEBAQEBAQEBAQEBAQEBAQEBAQEBAQEBAQEBAQEBAQEBAQEBAQEBAQEBAQEBARzdHA0QAAAAGBgYGBgYGBgYGBgYGBgYGBgYGBgYGBgYGBgYGBgYGBg
        YGBgYGBgYGBgYGBgYGBgYGBgYGBgYGBgYGBgYGBgYGBzdHA1QAAAAAAAAAAAAAAAAAAAAAAAAAAAAAAAAAAAAAAAAAAAAAAAAAAAAAAAAAAAAAAAAAAAAAAAAAAAAAAA
        AAAAAAAAAABwcm9nEgIAAHByZ3AiAAAAECBkBAEBAH8AfwBAAAEAAQAAAAAAAAAAAH8AAAAAAAAAAHBnbm0wAAAAU2VxIDJrIEtyYWZ0d2VyazMgKEErQywgRitBKQAA
        AAD0OL5f/38AAPTgqhIBAAAAc3RwMEAAAAAAAAAAAAD7AAAA+wAAAAAAAAAAAAIAAAAAAAAAAAD7AAAAAAAAAAAAAAAAAAAAAAAAAAAAAAAAAAAAAAAAAAAAc3RwMUAA
        AAAICAgICAgICAgICAgICAgICAgICAgICAgICAgICAgICAgICAgICAgICAgICAgICAgICAgICAgICAgICAgICAgIc3RwMkAAAAABAAAAAQABAAEAAQAAAAEAAQAAAAEA
        AQAAAAAAAAABAAEBAQEBAQEBAQEBAQEBAQEBAQEBAQEBAQEBAQEBAQEBc3RwM0AAAAAEBAQEBAQEBAQEBAQEBAQECAQEBAQEBAQEBAQEBAQEBAQEBAQEBAQEBAQEBAQE
        BAQEBAQEBAQEBAQEBAQEBAQEc3RwNEAAAABgYGBgYGBgYGBgYGBgYGBgYGBgYGBgYGBgYGBgYGBgYGBgYGBgYGBgYGBgYGBgYGBgYGBgYGBgYGBgYGBgYGBgc3RwNUAA
        AAAAAAAAAAAAAAAAAAAAAAAAAAAAAAAAAAAAAAAAAAAAAAAAAAAAAAAAAAAAAAAAAAAAAAAAAAAAAAAAAAAAAAAAcHJvZxICAABwcmdwIgAAABAgZAQBAQB/AH8AQAAB
        AAEAAAAAAAAAAAB/AAAAAAAAAABwZ25tMAAAAFNlcSAyayBLcmFmdHdlcmszIChBK0MsIEYrQSkAAAAA9Di+X/9/AAD04KoSAQAAAHN0cDBAAAAAAAAAAAAA+wAAAPsA
        AAAAAAAAAAACAAAAAAAAAAAA+wAAAAAAAAAAAAAAAAAAAAAAAAAAAAAAAAAAAAAAAAAAAHN0cDFAAAAACAgICAgICAgICAgICAgICAgICAgICAgICAgICAgICAgICAgI
        CAgICAgICAgICAgICAgICAgICAgICAgICAgICHN0cDJAAAAAAQAAAAEAAQABAAEAAAABAAEAAAABAAEAAAAAAAAAAQABAQEBAQEBAQEBAQEBAQEBAQEBAQEBAQEBAQEB
        AQEBAXN0cDNAAAAABAQEBAQEBAQEBAQEBAQEBAgEBAQEBAQEBAQEBAQEBAQEBAQEBAQEBAQEBAQEBAQEBAQEBAQEBAQEBAQEBAQEBHN0cDRAAAAAYGBgYGBgYGBgYGBg
        YGBgYGBgYGBgYGBgYGBgYGBgYGBgYGBgYGBgYGBgYGBgYGBgYGBgYGBgYGBgYGBgYGBgYHN0cDVAAAAAAAAAAAAAAAAAAAAAAAAAAAAAAAAAAAAAAAAAAAAAAAAAAAAA
        AAAAAAAAAAAAAAAAAAAAAAAAAAAAAAAAAAAAAHByb2cSAgAAcHJncCIAAAAQIGQEAQEAfwB/AEAAAQABAAAAAAAAAAAAfwAAAAAAAAAAcGdubTAAAABTZXEgMmsgS3Jh
        ZnR3ZXJrMyAoQStDLCBGK0EpAAAAAPQ4vl//fwAA9OCqEgEAAABzdHAwQAAAAAAAAAAAAPsAAAD7AAAAAAAAAAAAAgAAAAAAAAAAAPsAAAAAAAAAAAAAAAAAAAAAAAAA
        AAAAAAAAAAAAAAAAAABzdHAxQAAAAAgICAgICAgICAgICAgICAgICAgICAgICAgICAgICAgICAgICAgICAgICAgICAgICAgICAgICAgICAgICAgICAhzdHAyQAAAAAEA
        AAABAAEAAQABAAAAAQABAAAAAQABAAAAAAAAAAEAAQEBAQEBAQEBAQEBAQEBAQEBAQEBAQEBAQEBAQEBAQFzdHAzQAAAAAQEBAQEBAQEBAQEBAQEBAQIBAQEBAQEBAQE
        BAQEBAQEBAQEBAQEBAQEBAQEBAQEBAQEBAQEBAQEBAQEBAQEBARzdHA0QAAAAGBgYGBgYGBgYGBgYGBgYGBgYGBgYGBgYGBgYGBgYGBgYGBgYGBgYGBgYGBgYGBgYGBg
        YGBgYGBgYGBgYGBgYGBzdHA1QAAAAAAAAAAAAAAAAAAAAAAAAAAAAAAAAAAAAAAAAAAAAAAAAAAAAAAAAAAAAAAAAAAAAAAAAAAAAAAAAAAAAAAAAABwcm9nEgIAAHBy
        Z3AiAAAAECBkBAEBAH8AfwBAAAEAAQAAAAAAAAAAAH8AAAAAAAAAAHBnbm0wAAAAU2VxIDJrIEtyYWZ0d2VyazMgKEErQywgRitBKQAAAAD0OL5f/38AAPTgqhIBAAAA
        c3RwMEAAAAAAAAAAAAD7AAAA+wAAAAAAAAAAAAIAAAAAAAAAAAD7AAAAAAAAAAAAAAAAAAAAAAAAAAAAAAAAAAAAAAAAAAAAc3RwMUAAAAAICAgICAgICAgICAgICAgI
        CAgICAgICAgICAgICAgICAgICAgICAgICAgICAgICAgICAgICAgICAgICAgICAgIc3RwMkAAAAABAAAAAQABAAEAAQAAAAEAAQAAAAEAAQAAAAAAAAABAAEBAQEBAQEB
        AQEBAQEBAQEBAQEBAQEBAQEBAQEBAQEBc3RwM0AAAAAEBAQEBAQEBAQEBAQEBAQECAQEBAQEBAQEBAQEBAQEBAQEBAQEBAQEBAQEBAQEBAQEBAQEBAQEBAQEBAQEBAQE
        c3RwNEAAAABgYGBgYGBgYGBgYGBgYGBgYGBgYGBgYGBgYGBgYGBgYGBgYGBgYGBgYGBgYGBgYGBgYGBgYGBgYGBgYGBgYGBgc3RwNUAAAAAAAAAAAAAAAAAAAAAAAAAA
        AAAAAAAAAAAAAAAAAAAAAAAAAAAAAAAAAAAAAAAAAAAAAAAAAAAAAAAAAAAAAAAAcHJvZxICAABwcmdwIgAAABAgZAQBAQB/AH8AQAABAAEAAAAAAAAAAAB/AAAAAAAA
        AABwZ25tMAAAAFNlcSAyayBLcmFmdHdlcmszIChBK0MsIEYrQSkAAAAA9Di+X/9/AAD04KoSAQAAAHN0cDBAAAAAAAAAAAAA+wAAAPsAAAAAAAAAAAACAAAAAAAAAAAA
        +wAAAAAAAAAAAAAAAAAAAAAAAAAAAAAAAAAAAAAAAAAAAHN0cDFAAAAACAgICAgICAgICAgICAgICAgICAgICAgICAgICAgICAgICAgICAgICAgICAgICAgICAgICAgI
        CAgICAgICAgICHN0cDJAAAAAAQAAAAEAAQABAAEAAAABAAEAAAABAAEAAAAAAAAAAQABAQEBAQEBAQEBAQEBAQEBAQEBAQEBAQEBAQEBAQEBAXN0cDNAAAAABAQEBAQE
        BAQEBAQEBAQEBAgEBAQEBAQEBAQEBAQEBAQEBAQEBAQEBAQEBAQEBAQEBAQEBAQEBAQEBAQEBAQEBHN0cDRAAAAAYGBgYGBgYGBgYGBgYGBgYGBgYGBgYGBgYGBgYGBg
        YGBgYGBgYGBgYGBgYGBgYGBgYGBgYGBgYGBgYGBgYGBgYHN0cDVAAAAAAAAAAAAAAAAAAAAAAAAAAAAAAAAAAAAAAAAAAAAAAAAAAAAAAAAAAAAAAAAAAAAAAAAAAAAA
        AAAAAAAAAAAAAHByb2cSAgAAcHJncCIAAAAQIGQEAQEAfwB/AEAAAQABAAAAAAAAAAAAfwAAAAAAAAAAcGdubTAAAABTZXEgMmsgS3JhZnR3ZXJrMyAoQStDLCBGK0Ep
        AAAAAPQ4vl//fwAA9OCqEgEAAABzdHAwQAAAAAAAAAAAAPsAAAD7AAAAAAAAAAAAAgAAAAAAAAAAAPsAAAAAAAAAAAAAAAAAAAAAAAAAAAAAAAAAAAAAAAAAAABzdHAx
        QAAAAAgICAgICAgICAgICAgICAgICAgICAgICAgICAgICAgICAgICAgICAgICAgICAgICAgICAgICAgICAgICAgICAhzdHAyQAAAAAEAAAABAAEAAQABAAAAAQABAAAA
        AQABAAAAAAAAAAEAAQEBAQEBAQEBAQEBAQEBAQEBAQEBAQEBAQEBAQEBAQFzdHAzQAAAAAQEBAQEBAQEBAQEBAQEBAQIBAQEBAQEBAQEBAQEBAQEBAQEBAQEBAQEBAQE
        BAQEBAQEBAQEBAQEBAQEBAQEBARzdHA0QAAAAGBgYGBgYGBgYGBgYGBgYGBgYGBgYGBgYGBgYGBgYGBgYGBgYGBgYGBgYGBgYGBgYGBgYGBgYGBgYGBgYGBgYGBzdHA1
        QAAAAAAAAAAAAAAAAAAAAAAAAAAAAAAAAAAAAAAAAAAAAAAAAAAAAAAAAAAAAAAAAAAAAAAAAAAAAAAAAAAAAAAAAABwcm9nEgIAAHByZ3AiAAAAECBkBAEBAH8AfwBA
        AAEAAQAAAAAAAAAAAH8AAAAAAAAAAHBnbm0wAAAAU2VxIDJrIEtyYWZ0d2VyazMgKEErQywgRitBKQAAAAD0OL5f/38AAPTgqhIBAAAAc3RwMEAAAAAAAAAAAAD7AAAA
        +wAAAAAAAAAAAAIAAAAAAAAAAAD7AAAAAAAAAAAAAAAAAAAAAAAAAAAAAAAAAAAAAAAAAAAAc3RwMUAAAAAICAgICAgICAgICAgICAgICAgICAgICAgICAgICAgICAgI
        CAgICAgICAgICAgICAgICAgICAgICAgICAgICAgIc3RwMkAAAAABAAAAAQABAAEAAQAAAAEAAQAAAAEAAQAAAAAAAAABAAEBAQEBAQEBAQEBAQEBAQEBAQEBAQEBAQEB
        AQEBAQEBc3RwM0AAAAAEBAQEBAQEBAQEBAQEBAQECAQEBAQEBAQEBAQEBAQEBAQEBAQEBAQEBAQEBAQEBAQEBAQEBAQEBAQEBAQEBAQEc3RwNEAAAABgYGBgYGBgYGBg
        YGBgYGBgYGBgYGBgYGBgYGBgYGBgYGBgYGBgYGBgYGBgYGBgYGBgYGBgYGBgYGBgYGBgYGBgc3RwNUAAAAAAAAAAAAAAAAAAAAAAAAAAAAAAAAAAAAAAAAAAAAAAAAAA
        AAAAAAAAAAAAAAAAAAAAAAAAAAAAAAAAAAAAAAAAcHJvZxICAABwcmdwIgAAABAgZAQBAQB/AH8AQAABAAEAAAAAAAAAAAB/AAAAAAAAAABwZ25tMAAAAFNlcSAyayBL
        cmFmdHdlcmszIChBK0MsIEYrQSkAAAAA9Di+X/9/AAD04KoSAQAAAHN0cDBAAAAAAAAAAAAA+wAAAPsAAAAAAAAAAAACAAAAAAAAAAAA+wAAAAAAAAAAAAAAAAAAAAAA
        AAAAAAAAAAAAAAAAAAAAAHN0cDFAAAAACAgICAgICAgICAgICAgICAgICAgICAgICAgICAgICAgICAgICAgICAgICAgICAgICAgICAgICAgICAgICAgICHN0cDJAAAAA
        AQAAAAEAAQABAAEAAAABAAEAAAABAAEAAAAAAAAAAQABAQEBAQEBAQEBAQEBAQEBAQEBAQEBAQEBAQEBAQEBAXN0cDNAAAAABAQEBAQEBAQEBAQEBAQEBAgEBAQEBAQE
        BAQEBAQEBAQEBAQEBAQEBAQEBAQEBAQEBAQEBAQEBAQEBAQEBAQEBHN0cDRAAAAAYGBgYGBgYGBgYGBgYGBgYGBgYGBgYGBgYGBgYGBgYGBgYGBgYGBgYGBgYGBgYGBg
        YGBgYGBgYGBgYGBgYGBgYHN0cDVAAAAAAAAAAAAAAAAAAAAAAAAAAAAAAAAAAAAAAAAAAAAAAAAAAAAAAAAAAAAAAAAAAAAAAAAAAAAAAAAAAAAAAAAAAHByb2cSAgAA
        cHJncCIAAAAQIGQEAQEAfwB/AEAAAQABAAAAAAAAAAAAfwAAAAAAAAAAcGdubTAAAABTZXEgMmsgS3JhZnR3ZXJrMyAoQStDLCBGK0EpAAAAAPQ4vl//fwAA9OCqEgEA
        AABzdHAwQAAAAAAAAAAAAPsAAAD7AAAAAAAAAAAAAgAAAAAAAAAAAPsAAAAAAAAAAAAAAAAAAAAAAAAAAAAAAAAAAAAAAAAAAABzdHAxQAAAAAgICAgICAgICAgICAgI
        CAgICAgICAgICAgICAgICAgICAgICAgICAgICAgICAgICAgICAgICAgICAgICAgICAhzdHAyQAAAAAEAAAABAAEAAQABAAAAAQABAAAAAQABAAAAAAAAAAEAAQEBAQEB
        AQEBAQEBAQEBAQEBAQEBAQEBAQEBAQEBAQFzdHAzQAAAAAQEBAQEBAQEBAQEBAQEBAQIBAQEBAQEBAQEBAQEBAQEBAQEBAQEBAQEBAQEBAQEBAQEBAQEBAQEBAQEBAQE
        BARzdHA0QAAAAGBgYGBgYGBgYGBgYGBgYGBgYGBgYGBgYGBgYGBgYGBgYGBgYGBgYGBgYGBgYGBgYGBgYGBgYGBgYGBgYGBgYGBzdHA1QAAAAAAAAAAAAAAAAAAAAAAA
        AAAAAAAAAAAAAAAAAAAAAAAAAAAAAAAAAAAAAAAAAAAAAAAAAAAAAAAAAAAAAAAAAABwcm9nEgIAAHByZ3AiAAAAECBkBAEBAH8AfwBAAAEAAQAAAAAAAAAAAH8AAAAA
        AAAAAHBnbm0wAAAAU2VxIDJrIEtyYWZ0d2VyazMgKEErQywgRitBKQAAAAD0OL5f/38AAPTgqhIBAAAAc3RwMEAAAAAAAAAAAAD7AAAA+wAAAAAAAAAAAAIAAAAAAAAA
        AAD7AAAAAAAAAAAAAAAAAAAAAAAAAAAAAAAAAAAAAAAAAAAAc3RwMUAAAAAICAgICAgICAgICAgICAgICAgICAgICAgICAgICAgICAgICAgICAgICAgICAgICAgICAgI
        CAgICAgICAgICAgIc3RwMkAAAAABAAAAAQABAAEAAQAAAAEAAQAAAAEAAQAAAAAAAAABAAEBAQEBAQEBAQEBAQEBAQEBAQEBAQEBAQEBAQEBAQEBc3RwM0AAAAAEBAQE
        BAQEBAQEBAQEBAQECAQEBAQEBAQEBAQEBAQEBAQEBAQEBAQEBAQEBAQEBAQEBAQEBAQEBAQEBAQEBAQEc3RwNEAAAABgYGBgYGBgYGBgYGBgYGBgYGBgYGBgYGBgYGBg
        YGBgYGBgYGBgYGBgYGBgYGBgYGBgYGBgYGBgYGBgYGBgYGBgc3RwNUAAAAAAAAAAAAAAAAAAAAAAAAAAAAAAAAAAAAAAAAAAAAAAAAAAAAAAAAAAAAAAAAAAAAAAAAAA
        AAAAAAAAAAAAAAAAcHJvZxICAABwcmdwIgAAABAgZAQBAQB/AH8AQAABAAEAAAAAAAAAAAB/AAAAAAAAAABwZ25tMAAAAFNlcSAyayBLcmFmdHdlcmszIChBK0MsIEYr
        QSkAAAAA9Di+X/9/AAD04KoSAQAAAHN0cDBAAAAAAAAAAAAA+wAAAPsAAAAAAAAAAAACAAAAAAAAAAAA+wAAAAAAAAAAAAAAAAAAAAAAAAAAAAAAAAAAAAAAAAAAAHN0
        cDFAAAAACAgICAgICAgICAgICAgICAgICAgICAgICAgICAgICAgICAgICAgICAgICAgICAgICAgICAgICAgICAgICAgICHN0cDJAAAAAAQAAAAEAAQABAAEAAAABAAEA
        AAABAAEAAAAAAAAAAQABAQEBAQEBAQEBAQEBAQEBAQEBAQEBAQEBAQEBAQEBAXN0cDNAAAAABAQEBAQEBAQEBAQEBAQEBAgEBAQEBAQEBAQEBAQEBAQEBAQEBAQEBAQE
        BAQEBAQEBAQEBAQEBAQEBAQEBAQEBHN0cDRAAAAAYGBgYGBgYGBgYGBgYGBgYGBgYGBgYGBgYGBgYGBgYGBgYGBgYGBgYGBgYGBgYGBgYGBgYGBgYGBgYGBgYGBgYHN0
        cDVAAAAAAAAAAAAAAAAAAAAAAAAAAAAAAAAAAAAAAAAAAAAAAAAAAAAAAAAAAAAAAAAAAAAAAAAAAAAAAAAAAAAAAAAAAHByb2cSAgAAcHJncCIAAAAQIGQEAQEAfwB/
        AEAAAQABAAAAAAAAAAAAfwAAAAAAAAAAcGdubTAAAABTZXEgMmsgS3JhZnR3ZXJrMyAoQStDLCBGK0EpAAAAAPQ4vl//fwAA9OCqEgEAAABzdHAwQAAAAAAAAAAAAPsA
        AAD7AAAAAAAAAAAAAgAAAAAAAAAAAPsAAAAAAAAAAAAAAAAAAAAAAAAAAAAAAAAAAAAAAAAAAABzdHAxQAAAAAgICAgICAgICAgICAgICAgICAgICAgICAgICAgICAgI
        CAgICAgICAgICAgICAgICAgICAgICAgICAgICAgICAhzdHAyQAAAAAEAAAABAAEAAQABAAAAAQABAAAAAQABAAAAAAAAAAEAAQEBAQEBAQEBAQEBAQEBAQEBAQEBAQEB
        AQEBAQEBAQFzdHAzQAAAAAQEBAQEBAQEBAQEBAQEBAQIBAQEBAQEBAQEBAQEBAQEBAQEBAQEBAQEBAQEBAQEBAQEBAQEBAQEBAQEBAQEBARzdHA0QAAAAGBgYGBgYGBg
        YGBgYGBgYGBgYGBgYGBgYGBgYGBgYGBgYGBgYGBgYGBgYGBgYGBgYGBgYGBgYGBgYGBgYGBgYGBzdHA1QAAAAAAAAAAAAAAAAAAAAAAAAAAAAAAAAAAAAAAAAAAAAAAA
        AAAAAAAAAAAAAAAAAAAAAAAAAAAAAAAAAAAAAAAAAABwcm9nEgIAAHByZ3AiAAAAECBkBAEBAH8AfwBAAAEAAQAAAAAAAAAAAH8AAAAAAAAAAHBnbm0wAAAAU2VxIDJr
        IEtyYWZ0d2VyazMgKEErQywgRitBKQAAAAD0OL5f/38AAPTgqhIBAAAAc3RwMEAAAAAAAAAAAAD7AAAA+wAAAAAAAAAAAAIAAAAAAAAAAAD7AAAAAAAAAAAAAAAAAAAA
        AAAAAAAAAAAAAAAAAAAAAAAAc3RwMUAAAAAICAgICAgICAgICAgICAgICAgICAgICAgICAgICAgICAgICAgICAgICAgICAgICAgICAgICAgICAgICAgICAgIc3RwMkAA
        AAABAAAAAQABAAEAAQAAAAEAAQAAAAEAAQAAAAAAAAABAAEBAQEBAQEBAQEBAQEBAQEBAQEBAQEBAQEBAQEBAQEBc3RwM0AAAAAEBAQEBAQEBAQEBAQEBAQECAQEBAQE
        BAQEBAQEBAQEBAQEBAQEBAQEBAQEBAQEBAQEBAQEBAQEBAQEBAQEBAQEc3RwNEAAAABgYGBgYGBgYGBgYGBgYGBgYGBgYGBgYGBgYGBgYGBgYGBgYGBgYGBgYGBgYGBg
        YGBgYGBgYGBgYGBgYGBgYGBgc3RwNUAAAAAAAAAAAAAAAAAAAAAAAAAAAAAAAAAAAAAAAAAAAAAAAAAAAAAAAAAAAAAAAAAAAAAAAAAAAAAAAAAAAAAAAAAAcHJvZxIC
        AABwcmdwIgAAABAgZAQBAQB/AH8AQAABAAEAAAAAAAAAAAB/AAAAAAAAAABwZ25tMAAAAFNlcSAyayBLcmFmdHdlcmszIChBK0MsIEYrQSkAAAAA9Di+X/9/AAD04KoS
        AQAAAHN0cDBAAAAAAAAAAAAA+wAAAPsAAAAAAAAAAAACAAAAAAAAAAAA+wAAAAAAAAAAAAAAAAAAAAAAAAAAAAAAAAAAAAAAAAAAAHN0cDFAAAAACAgICAgICAgICAgI
        CAgICAgICAgICAgICAgICAgICAgICAgICAgICAgICAgICAgICAgICAgICAgICAgICAgICHN0cDJAAAAAAQAAAAEAAQABAAEAAAABAAEAAAABAAEAAAAAAAAAAQABAQEB
        AQEBAQEBAQEBAQEBAQEBAQEBAQEBAQEBAQEBAXN0cDNAAAAABAQEBAQEBAQEBAQEBAQEBAgEBAQEBAQEBAQEBAQEBAQEBAQEBAQEBAQEBAQEBAQEBAQEBAQEBAQEBAQE
        BAQEBHN0cDRAAAAAYGBgYGBgYGBgYGBgYGBgYGBgYGBgYGBgYGBgYGBgYGBgYGBgYGBgYGBgYGBgYGBgYGBgYGBgYGBgYGBgYGBgYHN0cDVAAAAAAAAAAAAAAAAAAAAA
        AAAAAAAAAAAAAAAAAAAAAAAAAAAAAAAAAAAAAAAAAAAAAAAAAAAAAAAAAAAAAAAAAAAAAHByb2cSAgAAcHJncCIAAAAQIGQEAQEAfwB/AEAAAQABAAAAAAAAAAAAfwAA
        AAAAAAAAcGdubTAAAABTZXEgMmsgS3JhZnR3ZXJrMyAoQStDLCBGK0EpAAAAAPQ4vl//fwAA9OCqEgEAAABzdHAwQAAAAAAAAAAAAPsAAAD7AAAAAAAAAAAAAgAAAAAA
        AAAAAPsAAAAAAAAAAAAAAAAAAAAAAAAAAAAAAAAAAAAAAAAAAABzdHAxQAAAAAgICAgICAgICAgICAgICAgICAgICAgICAgICAgICAgICAgICAgICAgICAgICAgICAgI
        CAgICAgICAgICAgICAhzdHAyQAAAAAEAAAABAAEAAQABAAAAAQABAAAAAQABAAAAAAAAAAEAAQEBAQEBAQEBAQEBAQEBAQEBAQEBAQEBAQEBAQEBAQFzdHAzQAAAAAQE
        BAQEBAQEBAQEBAQEBAQIBAQEBAQEBAQEBAQEBAQEBAQEBAQEBAQEBAQEBAQEBAQEBAQEBAQEBAQEBAQEBARzdHA0QAAAAGBgYGBgYGBgYGBgYGBgYGBgYGBgYGBgYGBg
        YGBgYGBgYGBgYGBgYGBgYGBgYGBgYGBgYGBgYGBgYGBgYGBgYGBzdHA1QAAAAAAAAAAAAAAAAAAAAAAAAAAAAAAAAAAAAAAAAAAAAAAAAAAAAAAAAAAAAAAAAAAAAAAA
        AAAAAAAAAAAAAAAAAABwcm9nEgIAAHByZ3AiAAAAECBkBAEBAH8AfwBAAAEAAQAAAAAAAAAAAH8AAAAAAAAAAHBnbm0wAAAAU2VxIDJrIEtyYWZ0d2VyazMgKEErQywg
        RitBKQAAAAD0OL5f/38AAPTgqhIBAAAAc3RwMEAAAAAAAAAAAAD7AAAA+wAAAAAAAAAAAAIAAAAAAAAAAAD7AAAAAAAAAAAAAAAAAAAAAAAAAAAAAAAAAAAAAAAAAAAA
        c3RwMUAAAAAICAgICAgICAgICAgICAgICAgICAgICAgICAgICAgICAgICAgICAgICAgICAgICAgICAgICAgICAgICAgICAgIc3RwMkAAAAABAAAAAQABAAEAAQAAAAEA
        AQAAAAEAAQAAAAAAAAABAAEBAQEBAQEBAQEBAQEBAQEBAQEBAQEBAQEBAQEBAQEBc3RwM0AAAAAEBAQEBAQEBAQEBAQEBAQECAQEBAQEBAQEBAQEBAQEBAQEBAQEBAQE
        BAQEBAQEBAQEBAQEBAQEBAQEBAQEBAQEc3RwNEAAAABgYGBgYGBgYGBgYGBgYGBgYGBgYGBgYGBgYGBgYGBgYGBgYGBgYGBgYGBgYGBgYGBgYGBgYGBgYGBgYGBgYGBg
        c3RwNUAAAAAAAAAAAAAAAAAAAAAAAAAAAAAAAAAAAAAAAAAAAAAAAAAAAAAAAAAAAAAAAAAAAAAAAAAAAAAAAAAAAAAAAAAAcHJvZxICAABwcmdwIgAAABAgZAQBAQB/
        AH8AQAABAAEAAAAAAAAAAAB/AAAAAAAAAABwZ25tMAAAAFNlcSAyayBLcmFmdHdlcmszIChBK0MsIEYrQSkAAAAA9Di+X/9/AAD04KoSAQAAAHN0cDBAAAAAAAAAAAAA
        +wAAAPsAAAAAAAAAAAACAAAAAAAAAAAA+wAAAAAAAAAAAAAAAAAAAAAAAAAAAAAAAAAAAAAAAAAAAHN0cDFAAAAACAgICAgICAgICAgICAgICAgICAgICAgICAgICAgI
        CAgICAgICAgICAgICAgICAgICAgICAgICAgICAgICAgICHN0cDJAAAAAAQAAAAEAAQABAAEAAAABAAEAAAABAAEAAAAAAAAAAQABAQEBAQEBAQEBAQEBAQEBAQEBAQEB
        AQEBAQEBAQEBAXN0cDNAAAAABAQEBAQEBAQEBAQEBAQEBAgEBAQEBAQEBAQEBAQEBAQEBAQEBAQEBAQEBAQEBAQEBAQEBAQEBAQEBAQEBAQEBHN0cDRAAAAAYGBgYGBg
        YGBgYGBgYGBgYGBgYGBgYGBgYGBgYGBgYGBgYGBgYGBgYGBgYGBgYGBgYGBgYGBgYGBgYGBgYGBgYHN0cDVAAAAAAAAAAAAAAAAAAAAAAAAAAAAAAAAAAAAAAAAAAAAA
        AAAAAAAAAAAAAAAAAAAAAAAAAAAAAAAAAAAAAAAAAAAAAHByb2cSAgAAcHJncCIAAAAQIGQEAQEAfwB/AEAAAQABAAAAAAAAAAAAfwAAAAAAAAAAcGdubTAAAABTZXEg
        MmsgS3JhZnR3ZXJrMyAoQStDLCBGK0EpAAAAAPQ4vl//fwAA9OCqEgEAAABzdHAwQAAAAAAAAAAAAPsAAAD7AAAAAAAAAAAAAgAAAAAAAAAAAPsAAAAAAAAAAAAAAAAA
        AAAAAAAAAAAAAAAAAAAAAAAAAABzdHAxQAAAAAgICAgICAgICAgICAgICAgICAgICAgICAgICAgICAgICAgICAgICAgICAgICAgICAgICAgICAgICAgICAgICAhzdHAy
        QAAAAAEAAAABAAEAAQABAAAAAQABAAAAAQABAAAAAAAAAAEAAQEBAQEBAQEBAQEBAQEBAQEBAQEBAQEBAQEBAQEBAQFzdHAzQAAAAAQEBAQEBAQEBAQEBAQEBAQIBAQE
        BAQEBAQEBAQEBAQEBAQEBAQEBAQEBAQEBAQEBAQEBAQEBAQEBAQEBAQEBARzdHA0QAAAAGBgYGBgYGBgYGBgYGBgYGBgYGBgYGBgYGBgYGBgYGBgYGBgYGBgYGBgYGBg
        YGBgYGBgYGBgYGBgYGBgYGBgYGBzdHA1QAAAAAAAAAAAAAAAAAAAAAAAAAAAAAAAAAAAAAAAAAAAAAAAAAAAAAAAAAAAAAAAAAAAAAAAAAAAAAAAAAAAAAAAAABwcm9n
        EgIAAHByZ3AiAAAAECBkBAEBAH8AfwBAAAEAAQAAAAAAAAAAAH8AAAAAAAAAAHBnbm0wAAAAU2VxIDJrIEtyYWZ0d2VyazMgKEErQywgRitBKQAAAAD0OL5f/38AAPTg
        qhIBAAAAc3RwMEAAAAAAAAAAAAD7AAAA+wAAAAAAAAAAAAIAAAAAAAAAAAD7AAAAAAAAAAAAAAAAAAAAAAAAAAAAAAAAAAAAAAAAAAAAc3RwMUAAAAAICAgICAgICAgI
        CAgICAgICAgICAgICAgICAgICAgICAgICAgICAgICAgICAgICAgICAgICAgICAgICAgICAgIc3RwMkAAAAABAAAAAQABAAEAAQAAAAEAAQAAAAEAAQAAAAAAAAABAAEB
        AQEBAQEBAQEBAQEBAQEBAQEBAQEBAQEBAQEBAQEBc3RwM0AAAAAEBAQEBAQEBAQEBAQEBAQECAQEBAQEBAQEBAQEBAQEBAQEBAQEBAQEBAQEBAQEBAQEBAQEBAQEBAQE
        BAQEBAQEc3RwNEAAAABgYGBgYGBgYGBgYGBgYGBgYGBgYGBgYGBgYGBgYGBgYGBgYGBgYGBgYGBgYGBgYGBgYGBgYGBgYGBgYGBgYGBgc3RwNUAAAAAAAAAAAAAAAAAA
        AAAAAAAAAAAAAAAAAAAAAAAAAAAAAAAAAAAAAAAAAAAAAAAAAAAAAAAAAAAAAAAAAAAAAAAAcHJvZxICAABwcmdwIgAAABAgZAQBAQB/AH8AQAABAAEAAAAAAAAAAAB/
        AAAAAAAAAABwZ25tMAAAAFNlcSAyayBLcmFmdHdlcmszIChBK0MsIEYrQSkAAAAA9Di+X/9/AAD04KoSAQAAAHN0cDBAAAAAAAAAAAAA+wAAAPsAAAAAAAAAAAACAAAA
        AAAAAAAA+wAAAAAAAAAAAAAAAAAAAAAAAAAAAAAAAAAAAAAAAAAAAHN0cDFAAAAACAgICAgICAgICAgICAgICAgICAgICAgICAgICAgICAgICAgICAgICAgICAgICAgI
        CAgICAgICAgICAgICAgICHN0cDJAAAAAAQAAAAEAAQABAAEAAAABAAEAAAABAAEAAAAAAAAAAQABAQEBAQEBAQEBAQEBAQEBAQEBAQEBAQEBAQEBAQEBAXN0cDNAAAAA
        BAQEBAQEBAQEBAQEBAQEBAgEBAQEBAQEBAQEBAQEBAQEBAQEBAQEBAQEBAQEBAQEBAQEBAQEBAQEBAQEBAQEBHN0cDRAAAAAYGBgYGBgYGBgYGBgYGBgYGBgYGBgYGBg
        YGBgYGBgYGBgYGBgYGBgYGBgYGBgYGBgYGBgYGBgYGBgYGBgYGBgYHN0cDVAAAAAAAAAAAAAAAAAAAAAAAAAAAAAAAAAAAAAAAAAAAAAAAAAAAAAAAAAAAAAAAAAAAAA
        AAAAAAAAAAAAAAAAAAAAAHByb2cSAgAAcHJncCIAAAAQIGQEAQEAfwB/AEAAAQABAAAAAAAAAAAAfwAAAAAAAAAAcGdubTAAAABTZXEgMmsgS3JhZnR3ZXJrMyAoQStD
        LCBGK0EpAAAAAPQ4vl//fwAA9OCqEgEAAABzdHAwQAAAAAAAAAAAAPsAAAD7AAAAAAAAAAAAAgAAAAAAAAAAAPsAAAAAAAAAAAAAAAAAAAAAAAAAAAAAAAAAAAAAAAAA
        AABzdHAxQAAAAAgICAgICAgICAgICAgICAgICAgICAgICAgICAgICAgICAgICAgICAgICAgICAgICAgICAgICAgICAgICAgICAhzdHAyQAAAAAEAAAABAAEAAQABAAAA
        AQABAAAAAQABAAAAAAAAAAEAAQEBAQEBAQEBAQEBAQEBAQEBAQEBAQEBAQEBAQEBAQFzdHAzQAAAAAQEBAQEBAQEBAQEBAQEBAQIBAQEBAQEBAQEBAQEBAQEBAQEBAQE
        BAQEBAQEBAQEBAQEBAQEBAQEBAQEBAQEBARzdHA0QAAAAGBgYGBgYGBgYGBgYGBgYGBgYGBgYGBgYGBgYGBgYGBgYGBgYGBgYGBgYGBgYGBgYGBgYGBgYGBgYGBgYGBg
        YGBzdHA1QAAAAAAAAAAAAAAAAAAAAAAAAAAAAAAAAAAAAAAAAAAAAAAAAAAAAAAAAAAAAAAAAAAAAAAAAAAAAAAAAAAAAAAAAABwcm9nEgIAAHByZ3AiAAAAECBkBAEB
        AH8AfwBAAAEAAQAAAAAAAAAAAH8AAAAAAAAAAHBnbm0wAAAAU2VxIDJrIEtyYWZ0d2VyazMgKEErQywgRitBKQAAAAD0OL5f/38AAPTgqhIBAAAAc3RwMEAAAAAAAAAA
        AAD7AAAA+wAAAAAAAAAAAAIAAAAAAAAAAAD7AAAAAAAAAAAAAAAAAAAAAAAAAAAAAAAAAAAAAAAAAAAAc3RwMUAAAAAICAgICAgICAgICAgICAgICAgICAgICAgICAgI
        CAgICAgICAgICAgICAgICAgICAgICAgICAgICAgICAgICAgIc3RwMkAAAAABAAAAAQABAAEAAQAAAAEAAQAAAAEAAQAAAAAAAAABAAEBAQEBAQEBAQEBAQEBAQEBAQEB
        AQEBAQEBAQEBAQEBc3RwM0AAAAAEBAQEBAQEBAQEBAQEBAQECAQEBAQEBAQEBAQEBAQEBAQEBAQEBAQEBAQEBAQEBAQEBAQEBAQEBAQEBAQEBAQEc3RwNEAAAABgYGBg
        YGBgYGBgYGBgYGBgYGBgYGBgYGBgYGBgYGBgYGBgYGBgYGBgYGBgYGBgYGBgYGBgYGBgYGBgYGBgYGBgc3RwNUAAAAAAAAAAAAAAAAAAAAAAAAAAAAAAAAAAAAAAAAAA
        AAAAAAAAAAAAAAAAAAAAAAAAAAAAAAAAAAAAAAAAAAAAAAAAcHJvZxICAABwcmdwIgAAABAgZAQBAQB/AH8AQAABAAEAAAAAAAAAAAB/AAAAAAAAAABwZ25tMAAAAFNl
        cSAyayBLcmFmdHdlcmszIChBK0MsIEYrQSkAAAAA9Di+X/9/AAD04KoSAQAAAHN0cDBAAAAAAAAAAAAA+wAAAPsAAAAAAAAAAAACAAAAAAAAAAAA+wAAAAAAAAAAAAAA
        AAAAAAAAAAAAAAAAAAAAAAAAAAAAAHN0cDFAAAAACAgICAgICAgICAgICAgICAgICAgICAgICAgICAgICAgICAgICAgICAgICAgICAgICAgICAgICAgICAgICAgICHN0
        cDJAAAAAAQAAAAEAAQABAAEAAAABAAEAAAABAAEAAAAAAAAAAQABAQEBAQEBAQEBAQEBAQEBAQEBAQEBAQEBAQEBAQEBAXN0cDNAAAAABAQEBAQEBAQEBAQEBAQEBAgE
        BAQEBAQEBAQEBAQEBAQEBAQEBAQEBAQEBAQEBAQEBAQEBAQEBAQEBAQEBAQEBHN0cDRAAAAAYGBgYGBgYGBgYGBgYGBgYGBgYGBgYGBgYGBgYGBgYGBgYGBgYGBgYGBg
        YGBgYGBgYGBgYGBgYGBgYGBgYGBgYHN0cDVAAAAAAAAAAAAAAAAAAAAAAAAAAAAAAAAAAAAAAAAAAAAAAAAAAAAAAAAAAAAAAAAAAAAAAAAAAAAAAAAAAAAAAAAAAHBy
        b2cSAgAAcHJncCIAAAAQIGQEAQEAfwB/AEAAAQABAAAAAAAAAAAAfwAAAAAAAAAAcGdubTAAAABTZXEgMmsgS3JhZnR3ZXJrMyAoQStDLCBGK0EpAAAAAPQ4vl//fwAA
        9OCqEgEAAABzdHAwQAAAAAAAAAAAAPsAAAD7AAAAAAAAAAAAAgAAAAAAAAAAAPsAAAAAAAAAAAAAAAAAAAAAAAAAAAAAAAAAAAAAAAAAAABzdHAxQAAAAAgICAgICAgI
        CAgICAgICAgICAgICAgICAgICAgICAgICAgICAgICAgICAgICAgICAgICAgICAgICAgICAgICAhzdHAyQAAAAAEAAAABAAEAAQABAAAAAQABAAAAAQABAAAAAAAAAAEA
        AQEBAQEBAQEBAQEBAQEBAQEBAQEBAQEBAQEBAQEBAQFzdHAzQAAAAAQEBAQEBAQEBAQEBAQEBAQIBAQEBAQEBAQEBAQEBAQEBAQEBAQEBAQEBAQEBAQEBAQEBAQEBAQE
        BAQEBAQEBARzdHA0QAAAAGBgYGBgYGBgYGBgYGBgYGBgYGBgYGBgYGBgYGBgYGBgYGBgYGBgYGBgYGBgYGBgYGBgYGBgYGBgYGBgYGBgYGBzdHA1QAAAAAAAAAAAAAAA
        AAAAAAAAAAAAAAAAAAAAAAAAAAAAAAAAAAAAAAAAAAAAAAAAAAAAAAAAAAAAAAAAAAAAAAAAAABwcm9nEgIAAHByZ3AiAAAAECBkBAEBAH8AfwBAAAEAAQAAAAAAAAAA
        AH8AAAAAAAAAAHBnbm0wAAAAU2VxIDJrIEtyYWZ0d2VyazMgKEErQywgRitBKQAAAAD0OL5f/38AAPTgqhIBAAAAc3RwMEAAAAAAAAAAAAD7AAAA+wAAAAAAAAAAAAIA
        AAAAAAAAAAD7AAAAAAAAAAAAAAAAAAAAAAAAAAAAAAAAAAAAAAAAAAAAc3RwMUAAAAAICAgICAgICAgICAgICAgICAgICAgICAgICAgICAgICAgICAgICAgICAgICAgI
        CAgICAgICAgICAgICAgICAgIc3RwMkAAAAABAAAAAQABAAEAAQAAAAEAAQAAAAEAAQAAAAAAAAABAAEBAQEBAQEBAQEBAQEBAQEBAQEBAQEBAQEBAQEBAQEBc3RwM0AA
        AAAEBAQEBAQEBAQEBAQEBAQECAQEBAQEBAQEBAQEBAQEBAQEBAQEBAQEBAQEBAQEBAQEBAQEBAQEBAQEBAQEBAQEc3RwNEAAAABgYGBgYGBgYGBgYGBgYGBgYGBgYGBg
        YGBgYGBgYGBgYGBgYGBgYGBgYGBgYGBgYGBgYGBgYGBgYGBgYGBgYGBgc3RwNUAAAAAAAAAAAAAAAAAAAAAAAAAAAAAAAAAAAAAAAAAAAAAAAAAAAAAAAAAAAAAAAAAA
        AAAAAAAAAAAAAAAAAAAAAAAAcHJvZxICAABwcmdwIgAAABAgZAQBAQB/AH8AQAABAAEAAAAAAAAAAAB/AAAAAAAAAABwZ25tMAAAAFNlcSAyayBLcmFmdHdlcmszIChB
        K0MsIEYrQSkAAAAA9Di+X/9/AAD04KoSAQAAAHN0cDBAAAAAAAAAAAAA+wAAAPsAAAAAAAAAAAACAAAAAAAAAAAA+wAAAAAAAAAAAAAAAAAAAAAAAAAAAAAAAAAAAAAA
        AAAAAHN0cDFAAAAACAgICAgICAgICAgICAgICAgICAgICAgICAgICAgICAgICAgICAgICAgICAgICAgICAgICAgICAgICAgICAgICHN0cDJAAAAAAQAAAAEAAQABAAEA
        AAABAAEAAAABAAEAAAAAAAAAAQABAQEBAQEBAQEBAQEBAQEBAQEBAQEBAQEBAQEBAQEBAXN0cDNAAAAABAQEBAQEBAQEBAQEBAQEBAgEBAQEBAQEBAQEBAQEBAQEBAQE
        BAQEBAQEBAQEBAQEBAQEBAQEBAQEBAQEBAQEBHN0cDRAAAAAYGBgYGBgYGBgYGBgYGBgYGBgYGBgYGBgYGBgYGBgYGBgYGBgYGBgYGBgYGBgYGBgYGBgYGBgYGBgYGBg
        YGBgYHN0cDVAAAAAAAAAAAAAAAAAAAAAAAAAAAAAAAAAAAAAAAAAAAAAAAAAAAAAAAAAAAAAAAAAAAAAAAAAAAAAAAAAAAAAAAAAAHByb2cSAgAAcHJncCIAAAAQIGQE
        AQEAfwB/AEAAAQABAAAAAAAAAAAAfwAAAAAAAAAAcGdubTAAAABTZXEgMmsgS3JhZnR3ZXJrMyAoQStDLCBGK0EpAAAAAPQ4vl//fwAA9OCqEgEAAABzdHAwQAAAAAAA
        AAAAAPsAAAD7AAAAAAAAAAAAAgAAAAAAAAAAAPsAAAAAAAAAAAAAAAAAAAAAAAAAAAAAAAAAAAAAAAAAAABzdHAxQAAAAAgICAgICAgICAgICAgICAgICAgICAgICAgI
        CAgICAgICAgICAgICAgICAgICAgICAgICAgICAgICAgICAgICAhzdHAyQAAAAAEAAAABAAEAAQABAAAAAQABAAAAAQABAAAAAAAAAAEAAQEBAQEBAQEBAQEBAQEBAQEB
        AQEBAQEBAQEBAQEBAQFzdHAzQAAAAAQEBAQEBAQEBAQEBAQEBAQIBAQEBAQEBAQEBAQEBAQEBAQEBAQEBAQEBAQEBAQEBAQEBAQEBAQEBAQEBAQEBARzdHA0QAAAAGBg
        YGBgYGBgYGBgYGBgYGBgYGBgYGBgYGBgYGBgYGBgYGBgYGBgYGBgYGBgYGBgYGBgYGBgYGBgYGBgYGBgYGBzdHA1QAAAAAAAAAAAAAAAAAAAAAAAAAAAAAAAAAAAAAAA
        AAAAAAAAAAAAAAAAAAAAAAAAAAAAAAAAAAAAAAAAAAAAAAAAAABwcm9nEgIAAHByZ3AiAAAAECBkBAEBAH8AfwBAAAEAAQAAAAAAAAAAAH8AAAAAAAAAAHBnbm0wAAAA
        U2VxIDJrIEtyYWZ0d2VyazMgKEErQywgRitBKQAAAAD0OL5f/38AAPTgqhIBAAAAc3RwMEAAAAAAAAAAAAD7AAAA+wAAAAAAAAAAAAIAAAAAAAAAAAD7AAAAAAAAAAAA
        AAAAAAAAAAAAAAAAAAAAAAAAAAAAAAAAc3RwMUAAAAAICAgICAgICAgICAgICAgICAgICAgICAgICAgICAgICAgICAgICAgICAgICAgICAgICAgICAgICAgICAgICAgI
        c3RwMkAAAAABAAAAAQABAAEAAQAAAAEAAQAAAAEAAQAAAAAAAAABAAEBAQEBAQEBAQEBAQEBAQEBAQEBAQEBAQEBAQEBAQEBc3RwM0AAAAAEBAQEBAQEBAQEBAQEBAQE
        CAQEBAQEBAQEBAQEBAQEBAQEBAQEBAQEBAQEBAQEBAQEBAQEBAQEBAQEBAQEBAQEc3RwNEAAAABgYGBgYGBgYGBgYGBgYGBgYGBgYGBgYGBgYGBgYGBgYGBgYGBgYGBg
        YGBgYGBgYGBgYGBgYGBgYGBgYGBgYGBgc3RwNUAAAAAAAAAAAAAAAAAAAAAAAAAAAAAAAAAAAAAAAAAAAAAAAAAAAAAAAAAAAAAAAAAAAAAAAAAAAAAAAAAAAAAAAAAA
        cHJvZxICAABwcmdwIgAAABAgZAQBAQB/AH8AQAABAAEAAAAAAAAAAAB/AAAAAAAAAABwZ25tMAAAAFNlcSAyayBLcmFmdHdlcmszIChBK0MsIEYrQSkAAAAA9Di+X/9/
        AAD04KoSAQAAAHN0cDBAAAAAAAAAAAAA+wAAAPsAAAAAAAAAAAACAAAAAAAAAAAA+wAAAAAAAAAAAAAAAAAAAAAAAAAAAAAAAAAAAAAAAAAAAHN0cDFAAAAACAgICAgI
        CAgICAgICAgICAgICAgICAgICAgICAgICAgICAgICAgICAgICAgICAgICAgICAgICAgICAgICAgICHN0cDJAAAAAAQAAAAEAAQABAAEAAAABAAEAAAABAAEAAAAAAAAA
        AQABAQEBAQEBAQEBAQEBAQEBAQEBAQEBAQEBAQEBAQEBAXN0cDNAAAAABAQEBAQEBAQEBAQEBAQEBAgEBAQEBAQEBAQEBAQEBAQEBAQEBAQEBAQEBAQEBAQEBAQEBAQE
        BAQEBAQEBAQEBHN0cDRAAAAAYGBgYGBgYGBgYGBgYGBgYGBgYGBgYGBgYGBgYGBgYGBgYGBgYGBgYGBgYGBgYGBgYGBgYGBgYGBgYGBgYGBgYHN0cDVAAAAAAAAAAAAA
        AAAAAAAAAAAAAAAAAAAAAAAAAAAAAAAAAAAAAAAAAAAAAAAAAAAAAAAAAAAAAAAAAAAAAAAAAAAAAHByb2cSAgAAcHJncCIAAAAQIGQEAQEAfwB/AEAAAQABAAAAAAAA
        AAAAfwAAAAAAAAAAcGdubTAAAABTZXEgMmsgS3JhZnR3ZXJrMyAoQStDLCBGK0EpAAAAAPQ4vl//fwAA9OCqEgEAAABzdHAwQAAAAAAAAAAAAPsAAAD7AAAAAAAAAAAA
        AgAAAAAAAAAAAPsAAAAAAAAAAAAAAAAAAAAAAAAAAAAAAAAAAAAAAAAAAABzdHAxQAAAAAgICAgICAgICAgICAgICAgICAgICAgICAgICAgICAgICAgICAgICAgICAgI
        CAgICAgICAgICAgICAgICAgICAhzdHAyQAAAAAEAAAABAAEAAQABAAAAAQABAAAAAQABAAAAAAAAAAEAAQEBAQEBAQEBAQEBAQEBAQEBAQEBAQEBAQEBAQEBAQFzdHAz
        QAAAAAQEBAQEBAQEBAQEBAQEBAQIBAQEBAQEBAQEBAQEBAQEBAQEBAQEBAQEBAQEBAQEBAQEBAQEBAQEBAQEBAQEBARzdHA0QAAAAGBgYGBgYGBgYGBgYGBgYGBgYGBg
        YGBgYGBgYGBgYGBgYGBgYGBgYGBgYGBgYGBgYGBgYGBgYGBgYGBgYGBgYGBzdHA1QAAAAAAAAAAAAAAAAAAAAAAAAAAAAAAAAAAAAAAAAAAAAAAAAAAAAAAAAAAAAAAA
        AAAAAAAAAAAAAAAAAAAAAAAAAABwcm9nEgIAAHByZ3AiAAAAECBkBAEBAH8AfwBAAAEAAQAAAAAAAAAAAH8AAAAAAAAAAHBnbm0wAAAAU2VxIDJrIEtyYWZ0d2VyazMg
        KEErQywgRitBKQAAAAD0OL5f/38AAPTgqhIBAAAAc3RwMEAAAAAAAAAAAAD7AAAA+wAAAAAAAAAAAAIAAAAAAAAAAAD7AAAAAAAAAAAAAAAAAAAAAAAAAAAAAAAAAAAA
        AAAAAAAAc3RwMUAAAAAICAgICAgICAgICAgICAgICAgICAgICAgICAgICAgICAgICAgICAgICAgICAgICAgICAgICAgICAgICAgICAgIc3RwMkAAAAABAAAAAQABAAEA
        AQAAAAEAAQAAAAEAAQAAAAAAAAABAAEBAQEBAQEBAQEBAQEBAQEBAQEBAQEBAQEBAQEBAQEBc3RwM0AAAAAEBAQEBAQEBAQEBAQEBAQECAQEBAQEBAQEBAQEBAQEBAQE
        BAQEBAQEBAQEBAQEBAQEBAQEBAQEBAQEBAQEBAQEc3RwNEAAAABgYGBgYGBgYGBgYGBgYGBgYGBgYGBgYGBgYGBgYGBgYGBgYGBgYGBgYGBgYGBgYGBgYGBgYGBgYGBg
        YGBgYGBgc3RwNUAAAAAAAAAAAAAAAAAAAAAAAAAAAAAAAAAAAAAAAAAAAAAAAAAAAAAAAAAAAAAAAAAAAAAAAAAAAAAAAAAAAAAAAAAA
        AC0gSW5pdGlhbCBwcm9ncmFtIC0AEAAAAA==
      >
      PRESETNAME "- Initial program -"
      FLOATPOS 236 163 815 614
      FXID {8E4389CD-6334-0949-9ABF-0A10D08C998C}
      WAK 0
      BYPASS 0 0 0
      <VST "VSTi: chipsounds (Plogue Art et Technologie, Inc)" chipsounds.vst 0 "" 1347176271
        T0dMUO5e7f4AAAAABAAAAAEAAAAAAAAAAgAAAAAAAAAEAAAAAAAAAAgAAAAAAAAAngMAAAEAAAAAABAA
        Q0VHUMUSAAB4nO1Yy27bOBTd5ysErWYWlfkmBdgpUjseGGjaAPasC1pmHWH08EiU+/j6Xkl2TE/DKJlMVxNuTF2dQ/JcWrwHHL/9mmfB3lR1WhaTEEcoDN5eXoyvqlQv
        9d44r2IswmBXlZsmsYsZBBCKw8uLANp4aaxNi20d/N3oLLXf4G0Y1LYyOofwJKQkDHL9ddlFrrKsTG7eTUKOIXyzmC0+Nvam3JiOpRtb5trCnMustJMQuaHM7E02CdMC
        xm5yU9gwyNK96cmArBMYQ3LV9nSmIYaDN4FpVxXVSXYIT4FoqkkogLHNyrXOVk3RrRMCo6MkmD1IN12s0Hk7Po6C26YywfQu3Y2Wi9lIcIWD3z6sltPfw2Cti78Wm0Ne
        nLwpAiqTO10U7dLfgMRdmUGGWBjY07S79adKF1tzQFh4qLsXudMtEwt7cq8Upskb26et/vIp0zXkSx72pBNxo9PiKGKvs6bHjh5C4HsE8iDIIIIOItgggg8ixCBCDiLU
        ICIeRGA0DBnOKh5OKx7OKx5OLPZm9lZXOn98i08Q70QniJP+SHGOoOEYScqUoD6Om8yIxR0JMSkUle2545nISW+ESdw1TigWRDEvibkk2s/EqWAMKy9HuBzVcwhVQOF+
        kvMni0BMvzylFGGwVuyjKXcu2s2EMI4Jikns5cTP58ToTFO/OikwnGmMeLeJuimXnMcINhjIHHHxCIs8mbXS1dbYw5GblHl0m5XbxkRtRYrezz9GTW0q5BxyHWva1FAj
        Ztrq4M5+2wGVSw7S6/Q79JlyDmSQbYpNqvvuBijQObZ5/0PQf9vOJY56jc8Vjf8noldVut2aagll2xSJqYZlM8roUTbhjmzykGx8UH1o/bPs+nQq5/GZiCmi80eEjEet
        T/inZcC/yDKQk2XAL/UMyPEM7NUzvHqGf+sZ8FmVw0LI7sNhKEZUeKuPWxDaagDVSnKiFI2xtzK6hZtIJhCPVcy4wGATfBzuro70hRtRSTiB5Q0bGO9azvwKf5JB4ay3
        QkKoGGq0n+Tmhko/jp3hemmDlokPa5Per+VlLuXXmwfX3Zw2yD80FD1fOl59yKsPeYkPEW5Ff5IP6U4HCUmYX//sQ/rMSPruLDAHd9Ji1U9QiM4eGgGR8xGe42+uP382
        iXUvRg6Ook/dVb5O20QN+JrjBcsffy6Ow+jEpnuz6C988PH5+v4CqDYZTGw2K70+fqfj0fGK6vLiBzPJnmA=
        AAAQAAAA
      >
      FLOATPOS 409 269 871 509
      FXID {DC79668B-30D1-964C-A162-F245DBE294B0}
      WAK 0
      BYPASS 0 0 0
      <VST "VST: 8-Bit Shaper (Xfer Records)" 8BitShaper.vst 0 "" 1148539762
        clN1RO5e7f4CAAAAAQAAAAAAAAACAAAAAAAAAAIAAAABAAAAAAAAAAIAAAAAAAAANAIAAAEAAAAAABAA
        ZmaGPwAAAD+L+L4+AAAAPyQA//8AAIA/Q3VzdG9tRGEXAAAAMAAAABkAAAAaAAAAGgAAABoAAAAbAAAAGwAAABwAAAAcAAAAHAAAAB0AAAAdAAAAHgAAAB4AAAAfAAAA
        HwAAACAAAAAgAAAAIAAAACEAAAAhAAAAIQAAACIAAAAiAAAAIgAAACMAAAAjAAAAIwAAACQAAAAkAAAAJAAAACUAAAAlAAAAKAAAACgAAAApAAAAKQAAACoAAAA1AAAA
        KgAAACoAAAA2AAAAKgAAACoAAAAqAAAAKgAAACoAAAAqAAAAKgAAACsAAAArAAAAOQAAAC0AAAA0AAAAOgAAAC0AAAAtAAAAPAAAAC4AAAAuAAAALwAAADAAAAAwAAAA
        MQAAADEAAAAxAAAAMgAAADMAAAAzAAAAMwAAADcAAAA3AAAANwAAADgAAAA4AAAAOAAAADkAAAA5AAAAOQAAADoAAAA6AAAAOgAAADoAAAA6AAAAOwAAADsAAAA7AAAA
        PAAAADsAAAA7AAAAOwAAADwAAAA8AAAAPAAAADwAAAA9AAAAPQAAAD0AAAA9AAAAPQAAAD4AAAA+AAAAPwAAAEkAAABAAAAAQAAAAEgAAABAAAAAQQAAAEIAAABCAAAA
        QgAAAEMAAABDAAAAQwAAAEQAAABEAAAARQAAAE0AAABGAAAARwAAAEYAAABHAAAASAAAAEgAAABJAAAATwAAAAAAgD+rqqo+q6qqPjBzxj6OAm0/
        AEluaXQgMQAQAAAA
      >
      PRESETNAME "Init 1"
      FLOATPOS 404 36 278 389
      FXID {840CC80A-353F-424A-BBBC-D3A08143A10E}
      WAK 0
    >
    <ITEM
      POSITION 0
      SNAPOFFS 0
      LENGTH 8
      LOOP 1
      ALLTAKES 0
      FADEIN 1 0 0 1 0 0
      FADEOUT 1 0 0 1 0 0
      MUTE 0
      SEL 0
      YPOS 0.798283 0.201717
      IGUID {E8E5A0C4-63EA-9C4C-985C-2C740BFE09AA}
      IID 4
      NAME "tuba(s) - National_Anthems_-_Philippines.mid"
      VOLPAN 1 0 1 -1
      SOFFS 0 0
      PLAYRATE 1 1 0 -1 0 0.0025
      CHANMODE 0
      TAKECOLOR 26173599 B
      GUID {F18F815D-BBD3-3940-9998-211431A05F6D}
      <SOURCE MIDI
        HASDATA 1 480 QN
        POOLEDEVTS {E0D40EC0-776E-F145-825F-A5E2452210CF}
        <X 0 0 0 0 3 tuba(s)
          /wN0dWJhKHMp
        >
        <X 0 0 0 0 4 "Sound Canvas"
          /wRTb3VuZCBDYW52YXM=
        >
        E 0 90 2b 7f
        E 240 80 2b 00 1
        E 240 90 26 7f 16
        E 360 80 26 00 -41
        E 120 90 2b 7f
        E 360 80 2b 00 -10
        E 120 90 1f 7f 1
        E 360 80 1f 00 -30
        E 120 90 2a 7f 7
        E 360 80 2a 00 -17
        E 120 90 26 7f -6
        E 240 80 26 00 53
        E 240 90 2b 7f 5
        E 360 80 2b 00 11
        E 120 90 1f 7f 13
        E 360 80 1f 00 2
        E 120 90 2b 7f 21
        E 360 80 2b 00 8
        E 120 90 26 7f 1
        E 360 80 26 00 -53
        E 120 90 2b 7f -1
        E 360 80 2b 00 -12
        E 120 90 1f 7f -6
        E 240 80 1f 00 57
        E 240 90 24 7f -9
        E 360 80 24 00 2
        E 120 90 26 7f -20
        E 360 80 26 00 15
        E 120 90 2b 7f -4
        E 360 80 2b 00 9
        E 120 90 1f 7f -3
        E 360 80 1f 00 -57
        E 120 b0 7b 00
        GUID {09141156-A67C-D44A-B2FE-05936A367AEC}
        IGNTEMPO 0 120 4 4
        SRCCOLOR 328
        VELLANE -1 86 6
        CFGEDITVIEW 29854.248178 41.922224 75 7 0 -1 0 0 0 0.5
        KEYSNAP 0
        TRACKSEL 226
        EVTFILTER 0 -1 -1 -1 -1 0 0 0 0 -1 -1 -1 -1 0 -1 0 -1 -1
        CFGEDIT 1 0 0 0 0 0 1 0 1 1 1 0.16666667 32 48 1280 470 0 0 2 3 0.25 0 0 0 0 -0.44 0 0 1 64
      >
      TAKE
      NAME "tuba(s) - National_Anthems_-_Philippines.mid"
      TAKEVOLPAN 0 1 -1
      SOFFS 0 0
      PLAYRATE 1 1 0 -1 0 0.0025
      CHANMODE 0
      GUID {34258D30-FD8E-A74C-955C-AFBE745592DB}
      <SOURCE MIDI
        HASDATA 1 480 QN
        POOLEDEVTS {E4CD44C2-9F3A-9C41-8E57-FEE3C687FD29}
        <X 0 0 0 0 3 tuba(s)
          /wN0dWJhKHMp
        >
        <X 0 0 0 0 4 "Sound Canvas"
          /wRTb3VuZCBDYW52YXM=
        >
        E 0 93 2b 5c
        E 241 83 2b 01
        E 255 93 26 62
        E 303 83 26 01
        E 161 93 2b 53
        E 350 83 2b 01
        E 131 93 1f 65
        E 329 83 1f 3c
        E 157 93 2a 5f
        E 336 83 2a 01
        E 131 93 26 62
        E 299 83 26 01
        E 192 93 2b 53
        E 366 83 2b 06
        E 122 93 1f 5e
        E 349 83 1f 36
        E 139 93 2b 52
        E 347 83 2b 02
        E 113 93 26 5d
        E 306 83 26 17
        E 172 93 2b 55
        E 349 83 2b 0a
        E 126 93 1f 65
        E 303 83 1f 02
        E 174 93 24 61
        E 371 83 24 1f
        E 98 93 26 61
        E 395 83 26 01
        E 101 93 2b 5c
        E 373 83 2b 01
        E 108 93 1f 62
        E 306 83 1f 35
        E 177 b0 7b 00
        GUID {D3202626-815F-724B-B9B7-D8189CCDD15C}
        IGNTEMPO 0 120 4 4
        SRCCOLOR 405
        VELLANE -1 86 6
        CFGEDITVIEW 26455.808656 359.461062 78 8 0 0 0 0 0 0.5
        KEYSNAP 0
        TRACKSEL 226
        EVTFILTER 0 -1 -1 -1 -1 0 0 0 0 -1 -1 -1 -1 0 -1 0 -1 -1
        CFGEDIT 1 0 0 0 0 0 1 0 1 1 1 0.16666667 32 48 1280 470 0 0 2 3 0.25 0 0 0 0 -0.44 0 0 1 64
      >
    >
    <ITEM
      POSITION 8
      SNAPOFFS 0
      LENGTH 40
      LOOP 1
      ALLTAKES 0
      FADEIN 1 0 0 1 0 0
      FADEOUT 1 0 0 1 0 0
      MUTE 0
      SEL 0
      YPOS 0.798283 0.201717
      IGUID {7491D935-1DD1-7F48-BADD-B2F86E643DAA}
      IID 11
      NAME "tuba(s) - National_Anthems_-_Philippines.mid"
      VOLPAN 1 0 1 -1
      SOFFS 8 16
      PLAYRATE 1 1 0 -1 0 0.0025
      CHANMODE 0
      TAKECOLOR 26173599 B
      GUID {C1B8940A-118A-E546-A2DF-1EF444495A3A}
      <SOURCE MIDI
        HASDATA 1 480 QN
        POOLEDEVTS {80CF3C81-F6B7-FE44-898B-FF0DD0D3E28F}
        <X 0 0 0 0 3 tuba(s)
          /wN0dWJhKHMp
        >
        <X 0 0 0 0 4 "Sound Canvas"
          /wRTb3VuZCBDYW52YXM=
        >
        E 0 90 2b 7f
        E 240 80 2b 00 1
        E 240 90 26 7f 16
        E 360 80 26 00 -41
        E 120 90 2b 7f
        E 360 80 2b 00 -10
        E 120 90 1f 7f 1
        E 360 80 1f 00 -30
        E 120 90 2a 7f 7
        E 360 80 2a 00 -17
        E 120 90 26 7f -6
        E 240 80 26 00 53
        E 240 90 2b 7f 5
        E 360 80 2b 00 11
        E 120 90 1f 7f 13
        E 360 80 1f 00 2
        E 120 90 2b 7f 21
        E 360 80 2b 00 8
        E 120 90 26 7f 1
        E 360 80 26 00 -53
        E 120 90 2b 7f -1
        E 360 80 2b 00 -12
        E 120 90 1f 7f -6
        E 240 80 1f 00 57
        E 240 90 24 7f -9
        E 360 80 24 00 2
        E 120 90 26 7f -20
        E 360 80 26 00 15
        E 120 90 2b 7f -4
        E 360 80 2b 00 9
        E 120 90 1f 7f -3
        E 360 80 1f 00 -57
        E 120 90 2b 7f 8
        E 360 80 2b 00 -11
        E 120 90 26 7f -4
        E 360 80 26 00 -35
        E 120 90 2b 7f -7
        E 360 80 2b 00 -41
        E 120 90 1f 7f -10
        E 360 80 1f 00 -38
        E 120 90 26 7f
        E 240 80 26 00
        E 720 90 2b 7f 9
        E 360 80 2b 00 -19
        E 120 90 1f 7f 17
        E 360 80 1f 00 -22
        E 120 90 2b 7f 17
        E 360 80 2b 00 18
        E 120 90 26 7f 19
        E 360 80 26 00 -36
        E 120 90 2b 7f -11
        E 360 80 2b 00 35
        E 120 90 1f 7f -5
        E 360 80 1f 00 -24
        E 120 90 24 7f 26
        E 360 80 24 00 26
        E 120 90 26 7f -19
        E 360 80 26 00 4
        E 120 90 2b 7f
        E 360 80 2b 00 -15
        E 120 90 1f 7f 1
        E 360 80 1f 00 35
        E 120 90 26 7f -3
        E 360 80 26 00 -50
        E 120 90 26 7f 4
        E 240 80 26 00 20
        E 240 90 26 7f -3
        E 240 80 26 00 31
        E 240 90 26 7f -7
        E 240 80 26 00 52
        E 240 90 1f 7f 2
        E 360 80 1f 00 27
        E 120 90 2b 7f 4
        E 240 80 2b 00 44
        E 240 90 2b 7f -10
        E 360 80 2b 00 -29
        E 120 90 1f 7f -12
        E 360 80 1f 00 13
        E 120 90 26 7f -17
        E 240 80 26 00 -16
        E 240 90 26 7f -18
        E 360 80 26 00 -53
        E 120 90 26 7f -21
        E 240 80 26 00 -5
        E 240 90 26 7f -25
        E 240 80 26 00 -18
        E 240 90 24 7f
        E 240 80 24 00
        E 240 90 26 7f -24
        E 360 80 26 00 -54
        E 120 90 1f 7f
        E 360 80 1f 00
        E 120 90 1f 7f
        E 360 80 1f 00
        E 120 90 26 7f -4
        E 240 80 26 00 48
        E 240 90 26 7f -9
        E 240 80 26 00 38
        E 240 90 26 7f -5
        E 240 80 26 00 11
        E 240 90 26 7f -10
        E 240 80 26 00 36
        E 240 90 1f 7f -13
        E 360 80 1f 00 -36
        E 120 90 2b 7f 6
        E 360 80 2b 00 -48
        E 120 90 2b 7f
        E 360 80 2b 00 16
        E 120 90 1f 7f 11
        E 360 80 1f 00 52
        E 120 90 26 7f -14
        E 240 80 26 00 38
        E 240 90 26 7f -14
        E 240 80 26 00 4
        E 240 90 26 7f -28
        E 240 80 26 00 36
        E 240 90 26 7f -10
        E 240 80 26 00 17
        E 240 90 26 7f -31
        E 240 80 26 00 -14
        E 240 90 26 7f -40
        E 240 80 26 00 28
        E 240 90 1f 7f -18
        E 360 80 1f 00 17
        E 120 90 2b 7f -4
        E 120 80 2b 00 52
        E 0 90 28 7f 44
        E 240 80 28 00 -51
        E 0 90 2b 7f -48
        E 120 80 2b 00 -38
        E 0 90 24 7f 24
        E 360 80 24 00 42
        E 120 90 28 7f
        E 360 80 28 00 33
        E 120 90 2b 7f 12
        E 360 80 2b 00 24
        E 120 90 2f 7f -5
        E 360 80 2f 00 24
        E 120 90 24 7f -23
        E 240 80 24 00 -37
        E 120 90 2b 7f -60
        E 120 80 2b 00 -54
        E 0 90 28 7f -6
        E 240 80 28 00 -37
        E 0 90 2b 7f 44
        E 240 80 2b 00 -18
        E 0 90 30 7f 4
        E 360 80 30 00 15
        E 120 90 26 7f 1
        E 120 80 26 00 36
        E 360 90 24 7f
        E 360 80 24 00
        E 120 90 1f 7f 4
        E 360 80 1f 00 32
        E 120 90 1f 7f -3
        E 480 80 1f 00 -24
        E 0 90 2b 7f -5
        E 240 80 2b 00 -43
        E 0 90 2b 7f 55
        E 240 80 2b 00 -37
        E 0 90 24 7f
        E 360 80 24 00 26
        E 120 90 2b 7f -6
        E 120 80 2b 00 30
        E 0 90 28 7f 20
        E 120 80 28 00 49
        E 0 90 2b 7f 52
        E 240 80 2b 00 -36
        E 0 90 24 7f -5
        E 360 80 24 00 -54
        E 120 90 2b 7f -15
        E 120 80 2b 00 44
        E 0 90 28 7f 31
        E 120 80 28 00 55
        E 0 90 2b 7f 59
        E 240 80 2b 00 4
        E 0 90 24 7f 6
        E 360 80 24 00 24
        E 120 90 28 7f 7
        E 480 80 28 00 -47
        E 0 90 2b 7f 13
        E 360 80 2b 00 45
        E 120 90 2f 7f 3
        E 360 80 2f 00 -8
        E 120 90 24 7f -10
        E 240 80 24 00 -10
        E 120 90 2b 7f -37
        E 120 80 2b 00 -17
        E 0 90 28 7f -1
        E 240 80 28 00 -16
        E 120 90 2b 7f -47
        E 120 80 2b 00 2
        E 0 90 30 7f 5
        E 360 80 30 00 12
        E 120 90 26 7f 10
        E 120 80 26 00 26
        E 360 90 24 7f
        E 360 80 24 00
        E 120 90 1f 7f 21
        E 360 80 1f 00 47
        E 120 90 2b 7f 12
        E 360 80 2b 00 13
        E 120 90 1f 7f -16
        E 360 80 1f 00 4
        E 120 90 24 7f 8
        E 360 80 24 00 31
        E 120 90 2b 7f 14
        E 120 80 2b 00 37
        E 0 90 28 7f 31
        E 120 80 28 00 56
        E 0 90 2b 7f 59
        E 240 80 2b 00 -35
        E 0 90 24 7f -13
        E 480 80 24 00 -7
        E 480 b0 7b 00
        GUID {A213D87B-AE98-0045-8A4F-A9E1DC68E59A}
        IGNTEMPO 0 120 4 4
        SRCCOLOR 419
        VELLANE -1 86 6
        CFGEDITVIEW 0 0 75 7 0 -1 0 0 0 0.5
        KEYSNAP 0
        TRACKSEL 226
        EVTFILTER 0 -1 -1 -1 -1 0 0 0 0 -1 -1 -1 -1 0 -1 0 -1 -1
        CFGEDIT 1 0 0 0 0 0 1 0 1 1 1 0.16666667 32 48 1280 470 0 0 2 3 0.25 0 0 0 0 -0.44 0 0 1 64
      >
      TAKE
      NAME "tuba(s) - National_Anthems_-_Philippines.mid"
      TAKEVOLPAN 0 1 -1
      SOFFS 8 16
      PLAYRATE 1 1 0 -1 0 0.0025
      CHANMODE 0
      GUID {9577CFD0-2C45-0046-9583-EB8D4EE30390}
      <SOURCE MIDI
        HASDATA 1 480 QN
        POOLEDEVTS {BC8DE0EC-D1A6-234C-8D2A-5320CD01FA77}
        <X 0 0 0 0 3 tuba(s)
          /wN0dWJhKHMp
        >
        <X 0 0 0 0 4 "Sound Canvas"
          /wRTb3VuZCBDYW52YXM=
        >
        E 0 93 2b 5c
        E 241 83 2b 01
        E 255 93 26 62
        E 303 83 26 01
        E 161 93 2b 53
        E 350 83 2b 01
        E 131 93 1f 65
        E 329 83 1f 3c
        E 157 93 2a 5f
        E 336 83 2a 01
        E 131 93 26 62
        E 299 83 26 01
        E 192 93 2b 53
        E 366 83 2b 06
        E 122 93 1f 5e
        E 349 83 1f 36
        E 139 93 2b 52
        E 347 83 2b 02
        E 113 93 26 5d
        E 306 83 26 17
        E 172 93 2b 55
        E 349 83 2b 0a
        E 126 93 1f 65
        E 303 83 1f 02
        E 174 93 24 61
        E 371 83 24 1f
        E 98 93 26 61
        E 395 83 26 01
        E 101 93 2b 5c
        E 373 83 2b 01
        E 108 93 1f 62
        E 306 83 1f 35
        E 185 93 2b 57
        E 341 83 2b 01
        E 127 93 26 62
        E 329 83 26 04
        E 148 93 2b 57
        E 326 83 2b 01
        E 151 93 1f 5d
        E 332 83 1f 26
        E 163 93 2a 53
        E 295 83 2a 09
        E 161 93 26 5e
        E 302 83 26 23
        E 206 93 2b 4b
        E 332 83 2b 12
        E 156 93 1f 62
        E 321 83 1f 07
        E 159 93 2b 58
        E 361 83 2b 04
        E 121 93 26 58
        E 305 83 26 2b
        E 145 93 2b 53
        E 406 83 2b 01
        E 80 93 1f 63
        E 341 83 1f 1f
        E 170 93 24 52
        E 360 83 24 21
        E 75 93 26 5c
        E 383 83 26 01
        E 116 93 2b 54
        E 345 83 2b 01
        E 136 93 1f 52
        E 394 83 1f 01
        E 82 93 26 53
        E 313 83 26 02
        E 174 93 26 51
        E 256 83 26 23
        E 217 93 26 5a
        E 274 83 26 1a
        E 202 93 26 5c
        E 299 83 26 09
        E 190 93 1f 5c
        E 385 83 1f 06
        E 97 93 2b 54
        E 280 83 2b 1d
        E 186 93 2b 52
        E 341 83 2b 01
        E 137 93 1f 5f
        E 385 83 1f 21
        E 90 93 26 5b
        E 241 83 26 01
        E 238 93 26 57
        E 325 83 26 0d
        E 152 93 26 59
        E 256 83 26 01
        E 220 93 26 58
        E 247 83 26 25
        E 237 93 26 53
        E 265 83 26 2e
        E 212 93 26 5d
        E 330 83 26 1d
        E 141 93 1f 5d
        E 379 83 1f 02
        E 134 93 1f 5a
        E 355 83 1f 24
        E 121 93 26 55
        E 292 83 26 17
        E 183 93 26 59
        E 287 83 26 21
        E 197 93 26 55
        E 256 83 26 29
        E 219 93 26 5b
        E 286 83 26 0b
        E 191 93 1f 5a
        E 337 83 1f 01
        E 162 93 2b 53
        E 306 83 2b 01
        E 168 93 2b 53
        E 376 83 2b 05
        E 115 93 1f 59
        E 401 83 1f 01
        E 54 93 26 5c
        E 292 83 26 01
        E 188 93 26 54
        E 258 83 26 27
        E 208 93 26 5b
        E 304 83 26 12
        E 194 93 26 57
        E 267 83 26 20
        E 192 93 26 5a
        E 257 83 26 17
        E 214 93 26 5d
        E 308 83 26 01
        E 194 93 1f 5c
        E 395 83 1f 28
        E 99 93 2b 54
        E 168 93 28 64
        E 8 83 2b 2a
        E 137 83 28 24
        E 3 93 2b 4f
        E 130 83 2b 03
        E 62 93 24 5f
        E 378 83 24 30
        E 78 93 28 5f
        E 393 83 28 01
        E 99 93 2b 54
        E 372 83 2b 15
        E 91 93 2f 57
        E 389 83 2f 01
        E 73 93 24 61
        E 226 83 24 06
        E 97 93 2b 4d
        E 126 83 2b 17
        E 48 93 28 62
        E 209 83 28 22
        E 81 93 2b 53
        E 178 83 2b 01
        E 22 93 30 4c
        E 371 83 30 10
        E 106 93 26 64
        E 152 93 28 61
        E 3 83 26 41
        E 146 93 29 62
        E 10 83 28 33
        E 116 83 29 2f
        E 43 93 2b 5a
        E 407 83 2b 01
        E 86 93 1f 61
        E 388 83 1f 35
        E 85 93 1f 5f
        E 459 83 1f 01
        E 19 93 2b 58
        E 202 83 2b 18
        E 98 93 2b 52
        E 148 83 2b 48
        E 37 93 24 5f
        E 386 83 24 14
        E 88 93 2b 5c
        E 146 93 28 5c
        E 10 83 2b 32
        E 139 83 28 39
        E 3 93 2b 51
        E 152 83 2b 15
        E 31 93 24 4d
        E 311 83 24 45
        E 159 93 2b 5b
        E 166 93 28 57
        E 13 83 2b 2f
        E 131 83 28 2b
        E 4 93 2b 50
        E 185 83 2b 24
        E 2 93 24 60
        E 378 83 24 1c
        E 103 93 28 5f
        E 426 83 28 01
        E 60 93 2b 56
        E 392 83 2b 01
        E 78 93 2f 57
        E 349 83 2f 01
        E 118 93 24 5f
        E 240 83 24 2e
        E 93 93 2b 4d
        E 140 83 2b 01
        E 16 93 28 5c
        E 225 83 28 25
        E 89 93 2b 56
        E 169 83 2b 1c
        E 3 93 30 5f
        E 367 83 30 01
        E 118 93 26 64
        E 136 83 26 45
        E 4 93 28 60
        E 107 83 28 2e
        E 49 93 29 61
        E 101 83 29 31
        E 65 93 2b 60
        E 397 83 2b 01
        E 112 93 1f 53
        E 386 83 1f 27
        E 85 93 2b 57
        E 361 83 2b 04
        E 91 93 1f 62
        E 380 83 1f 01
        E 124 93 24 5f
        E 383 83 24 22
        E 103 93 2b 5e
        E 137 93 28 5e
        E 6 83 2b 28
        E 139 83 28 29
        E 3 93 2b 52
        E 146 83 2b 22
        E 22 93 24 5c
        E 486 83 24 5a
        E 487 b0 7b 00
        GUID {5B73AF60-5A2C-5B40-A2D8-624C6B88E0A4}
        IGNTEMPO 0 120 4 4
        SRCCOLOR 420
        VELLANE -1 86 6
        CFGEDITVIEW 0 0 78 8 0 0 0 0 0 0.5
        KEYSNAP 0
        TRACKSEL 226
        EVTFILTER 0 -1 -1 -1 -1 0 0 0 0 -1 -1 -1 -1 0 -1 0 -1 -1
        CFGEDIT 1 0 0 0 0 0 1 0 1 1 1 0.16666667 32 48 1280 470 0 0 2 3 0.25 0 0 0 0 -0.44 0 0 1 64
      >
    >
    <ITEM
      POSITION 48
      SNAPOFFS 0
      LENGTH 16.5
      LOOP 1
      ALLTAKES 0
      FADEIN 1 0 0 1 0 0
      FADEOUT 1 0 0 1 0 0
      MUTE 0
      SEL 0
      YPOS 0.798283 0.201717
      IGUID {54EA6710-859A-FB4A-AC6A-3C408F94BA47}
      IID 18
      NAME "tuba(s) - National_Anthems_-_Philippines.mid"
      VOLPAN 1 0 1 -1
      SOFFS 48 96
      PLAYRATE 1 1 0 -1 0 0.0025
      CHANMODE 0
      TAKECOLOR 26173599 B
      GUID {2CE624F8-9DAD-234D-B315-8D52EA08CF01}
      <SOURCE MIDI
        HASDATA 1 480 QN
        POOLEDEVTS {1CD59C91-6E0F-2F46-B47B-71FB4E222BDA}
        <X 0 0 0 0 3 tuba(s)
          /wN0dWJhKHMp
        >
        <X 0 0 0 0 4 "Sound Canvas"
          /wRTb3VuZCBDYW52YXM=
        >
        E 0 90 2b 7f
        E 240 80 2b 00 1
        E 240 90 26 7f 16
        E 360 80 26 00 -41
        E 120 90 2b 7f
        E 360 80 2b 00 -10
        E 120 90 1f 7f 1
        E 360 80 1f 00 -30
        E 120 90 2a 7f 7
        E 360 80 2a 00 -17
        E 120 90 26 7f -6
        E 240 80 26 00 53
        E 240 90 2b 7f 5
        E 360 80 2b 00 11
        E 120 90 1f 7f 13
        E 360 80 1f 00 2
        E 120 90 2b 7f 21
        E 360 80 2b 00 8
        E 120 90 26 7f 1
        E 360 80 26 00 -53
        E 120 90 2b 7f -1
        E 360 80 2b 00 -12
        E 120 90 1f 7f -6
        E 240 80 1f 00 57
        E 240 90 24 7f -9
        E 360 80 24 00 2
        E 120 90 26 7f -20
        E 360 80 26 00 15
        E 120 90 2b 7f -4
        E 360 80 2b 00 9
        E 120 90 1f 7f -3
        E 360 80 1f 00 -57
        E 120 90 2b 7f 8
        E 360 80 2b 00 -11
        E 120 90 26 7f -4
        E 360 80 26 00 -35
        E 120 90 2b 7f -7
        E 360 80 2b 00 -41
        E 120 90 1f 7f -10
        E 360 80 1f 00 -38
        E 120 90 26 7f
        E 240 80 26 00
        E 720 90 2b 7f 9
        E 360 80 2b 00 -19
        E 120 90 1f 7f 17
        E 360 80 1f 00 -22
        E 120 90 2b 7f 17
        E 360 80 2b 00 18
        E 120 90 26 7f 19
        E 360 80 26 00 -36
        E 120 90 2b 7f -11
        E 360 80 2b 00 35
        E 120 90 1f 7f -5
        E 360 80 1f 00 -24
        E 120 90 24 7f 26
        E 360 80 24 00 26
        E 120 90 26 7f -19
        E 360 80 26 00 4
        E 120 90 2b 7f
        E 360 80 2b 00 -15
        E 120 90 1f 7f 1
        E 360 80 1f 00 35
        E 120 90 26 7f -3
        E 360 80 26 00 -50
        E 120 90 26 7f 4
        E 240 80 26 00 20
        E 240 90 26 7f -3
        E 240 80 26 00 31
        E 240 90 26 7f -7
        E 240 80 26 00 52
        E 240 90 1f 7f 2
        E 360 80 1f 00 27
        E 120 90 2b 7f 4
        E 240 80 2b 00 44
        E 240 90 2b 7f -10
        E 360 80 2b 00 -29
        E 120 90 1f 7f -12
        E 360 80 1f 00 13
        E 120 90 26 7f -17
        E 240 80 26 00 -16
        E 240 90 26 7f -18
        E 360 80 26 00 -53
        E 120 90 26 7f -21
        E 240 80 26 00 -5
        E 240 90 26 7f -25
        E 240 80 26 00 -18
        E 240 90 24 7f
        E 240 80 24 00
        E 240 90 26 7f -24
        E 360 80 26 00 -54
        E 120 90 1f 7f
        E 360 80 1f 00
        E 120 90 1f 7f
        E 360 80 1f 00
        E 120 90 26 7f -4
        E 240 80 26 00 48
        E 240 90 26 7f -9
        E 240 80 26 00 38
        E 240 90 26 7f -5
        E 240 80 26 00 11
        E 240 90 26 7f -10
        E 240 80 26 00 36
        E 240 90 1f 7f -13
        E 360 80 1f 00 -36
        E 120 90 2b 7f 6
        E 360 80 2b 00 -48
        E 120 90 2b 7f
        E 360 80 2b 00 16
        E 120 90 1f 7f 11
        E 360 80 1f 00 52
        E 120 90 26 7f -14
        E 240 80 26 00 38
        E 240 90 26 7f -14
        E 240 80 26 00 4
        E 240 90 26 7f -28
        E 240 80 26 00 36
        E 240 90 26 7f -10
        E 240 80 26 00 17
        E 240 90 26 7f -31
        E 240 80 26 00 -14
        E 240 90 26 7f -40
        E 240 80 26 00 28
        E 240 90 1f 7f -18
        E 360 80 1f 00 17
        E 120 90 2b 7f -4
        E 120 80 2b 00 52
        E 0 90 28 7f 44
        E 240 80 28 00 -51
        E 0 90 2b 7f -48
        E 120 80 2b 00 -38
        E 0 90 24 7f 24
        E 360 80 24 00 42
        E 120 90 28 7f
        E 360 80 28 00 33
        E 120 90 2b 7f 12
        E 360 80 2b 00 24
        E 120 90 2f 7f -5
        E 360 80 2f 00 24
        E 120 90 24 7f -23
        E 240 80 24 00 -37
        E 120 90 2b 7f -60
        E 120 80 2b 00 -54
        E 0 90 28 7f -6
        E 240 80 28 00 -37
        E 0 90 2b 7f 44
        E 240 80 2b 00 -18
        E 0 90 30 7f 4
        E 360 80 30 00 15
        E 120 90 26 7f 1
        E 120 80 26 00 36
        E 360 90 24 7f
        E 360 80 24 00
        E 120 90 1f 7f 4
        E 360 80 1f 00 32
        E 120 90 1f 7f -3
        E 480 80 1f 00 -24
        E 0 90 2b 7f -5
        E 240 80 2b 00 -43
        E 0 90 2b 7f 55
        E 240 80 2b 00 -37
        E 0 90 24 7f
        E 360 80 24 00 26
        E 120 90 2b 7f -6
        E 120 80 2b 00 30
        E 0 90 28 7f 20
        E 120 80 28 00 49
        E 0 90 2b 7f 52
        E 240 80 2b 00 -36
        E 0 90 24 7f -5
        E 360 80 24 00 -54
        E 120 90 2b 7f -15
        E 120 80 2b 00 44
        E 0 90 28 7f 31
        E 120 80 28 00 55
        E 0 90 2b 7f 59
        E 240 80 2b 00 4
        E 0 90 24 7f 6
        E 360 80 24 00 24
        E 120 90 28 7f 7
        E 480 80 28 00 -47
        E 0 90 2b 7f 13
        E 360 80 2b 00 45
        E 120 90 2f 7f 3
        E 360 80 2f 00 -8
        E 120 90 24 7f -10
        E 240 80 24 00 -10
        E 120 90 2b 7f -37
        E 120 80 2b 00 -17
        E 0 90 28 7f -1
        E 240 80 28 00 -16
        E 120 90 2b 7f -47
        E 120 80 2b 00 2
        E 0 90 30 7f 5
        E 360 80 30 00 12
        E 120 90 26 7f 10
        E 120 80 26 00 26
        E 360 90 24 7f
        E 360 80 24 00
        E 120 90 1f 7f 21
        E 360 80 1f 00 47
        E 120 90 2b 7f 12
        E 360 80 2b 00 13
        E 120 90 1f 7f -16
        E 360 80 1f 00 4
        E 120 90 24 7f 8
        E 360 80 24 00 31
        E 120 90 2b 7f 14
        E 120 80 2b 00 37
        E 0 90 28 7f 31
        E 120 80 28 00 56
        E 0 90 2b 7f 59
        E 240 80 2b 00 -35
        E 0 90 24 7f -13
        E 480 80 24 00 -7
        E 480 90 2b 7f
        E 240 80 2b 00 1
        E 240 90 26 7f 16
        E 360 80 26 00 -41
        E 120 90 2b 7f
        E 360 80 2b 00 -10
        E 120 90 1f 7f 1
        E 360 80 1f 00 -30
        E 120 90 2a 7f 7
        E 360 80 2a 00 -17
        E 120 90 26 7f -6
        E 240 80 26 00 53
        E 240 90 2b 7f 5
        E 360 80 2b 00 11
        E 120 90 1f 7f 13
        E 360 80 1f 00 2
        E 120 90 2b 7f 21
        E 360 80 2b 00 8
        E 120 90 26 7f 1
        E 360 80 26 00 -53
        E 120 90 2b 7f -1
        E 360 80 2b 00 -12
        E 120 90 1f 7f -6
        E 240 80 1f 00 57
        E 240 90 24 7f -9
        E 360 80 24 00 2
        E 120 90 26 7f -20
        E 360 80 26 00 15
        E 120 90 2b 7f -4
        E 360 80 2b 00 9
        E 120 90 1f 7f -3
        E 360 80 1f 00 -57
        E 120 90 2b 7f 8
        E 360 80 2b 00 -11
        E 120 90 26 7f -4
        E 360 80 26 00 -35
        E 120 90 2b 7f -7
        E 360 80 2b 00 -41
        E 120 90 1f 7f -10
        E 360 80 1f 00 -38
        E 120 90 2a 7f 5
        E 360 80 2a 00 -60
        E 120 90 26 7f -19
        E 240 80 26 00 43
        E 240 90 2b 7f 9
        E 360 80 2b 00 -19
        E 120 90 1f 7f 17
        E 360 80 1f 00 -22
        E 120 90 2b 7f 17
        E 360 80 2b 00 18
        E 120 90 26 7f 19
        E 360 80 26 00 -36
        E 120 90 2b 7f -11
        E 360 80 2b 00 35
        E 120 90 1f 7f -5
        E 360 80 1f 00 -24
        E 120 90 24 7f 26
        E 360 80 24 00 26
        E 120 90 26 7f -19
        E 360 80 26 00 4
        E 120 90 2b 7f
        E 1440 80 2b 00 -1
        E 0 b0 7b 00
        GUID {C16C6462-CB37-9C46-B886-9CD07D7AAA9B}
        IGNTEMPO 0 120 4 4
        SRCCOLOR 433
        VELLANE -1 86 6
        CFGEDITVIEW 0 0 75 7 0 -1 0 0 0 0.5
        KEYSNAP 0
        TRACKSEL 226
        EVTFILTER 0 -1 -1 -1 -1 0 0 0 0 -1 -1 -1 -1 0 -1 0 -1 -1
        CFGEDIT 1 0 0 0 0 0 1 0 1 1 1 0.16666667 32 48 1280 470 0 0 2 3 0.25 0 0 0 0 -0.44 0 0 1 64
      >
      TAKE
      NAME "tuba(s) - National_Anthems_-_Philippines.mid"
      TAKEVOLPAN 0 1 -1
      SOFFS 48 96
      PLAYRATE 1 1 0 -1 0 0.0025
      CHANMODE 0
      GUID {6C50948D-D612-A04C-B366-86A0CEAB3DD3}
      <SOURCE MIDI
        HASDATA 1 480 QN
        POOLEDEVTS {C33AB313-158E-3E42-AC2D-B39C75960090}
        <X 0 0 0 0 3 tuba(s)
          /wN0dWJhKHMp
        >
        <X 0 0 0 0 4 "Sound Canvas"
          /wRTb3VuZCBDYW52YXM=
        >
        E 0 93 2b 5c
        E 241 83 2b 01
        E 255 93 26 62
        E 303 83 26 01
        E 161 93 2b 53
        E 350 83 2b 01
        E 131 93 1f 65
        E 329 83 1f 3c
        E 157 93 2a 5f
        E 336 83 2a 01
        E 131 93 26 62
        E 299 83 26 01
        E 192 93 2b 53
        E 366 83 2b 06
        E 122 93 1f 5e
        E 349 83 1f 36
        E 139 93 2b 52
        E 347 83 2b 02
        E 113 93 26 5d
        E 306 83 26 17
        E 172 93 2b 55
        E 349 83 2b 0a
        E 126 93 1f 65
        E 303 83 1f 02
        E 174 93 24 61
        E 371 83 24 1f
        E 98 93 26 61
        E 395 83 26 01
        E 101 93 2b 5c
        E 373 83 2b 01
        E 108 93 1f 62
        E 306 83 1f 35
        E 185 93 2b 57
        E 341 83 2b 01
        E 127 93 26 62
        E 329 83 26 04
        E 148 93 2b 57
        E 326 83 2b 01
        E 151 93 1f 5d
        E 332 83 1f 26
        E 163 93 2a 53
        E 295 83 2a 09
        E 161 93 26 5e
        E 302 83 26 23
        E 206 93 2b 4b
        E 332 83 2b 12
        E 156 93 1f 62
        E 321 83 1f 07
        E 159 93 2b 58
        E 361 83 2b 04
        E 121 93 26 58
        E 305 83 26 2b
        E 145 93 2b 53
        E 406 83 2b 01
        E 80 93 1f 63
        E 341 83 1f 1f
        E 170 93 24 52
        E 360 83 24 21
        E 75 93 26 5c
        E 383 83 26 01
        E 116 93 2b 54
        E 345 83 2b 01
        E 136 93 1f 52
        E 394 83 1f 01
        E 82 93 26 53
        E 313 83 26 02
        E 174 93 26 51
        E 256 83 26 23
        E 217 93 26 5a
        E 274 83 26 1a
        E 202 93 26 5c
        E 299 83 26 09
        E 190 93 1f 5c
        E 385 83 1f 06
        E 97 93 2b 54
        E 280 83 2b 1d
        E 186 93 2b 52
        E 341 83 2b 01
        E 137 93 1f 5f
        E 385 83 1f 21
        E 90 93 26 5b
        E 241 83 26 01
        E 238 93 26 57
        E 325 83 26 0d
        E 152 93 26 59
        E 256 83 26 01
        E 220 93 26 58
        E 247 83 26 25
        E 237 93 26 53
        E 265 83 26 2e
        E 212 93 26 5d
        E 330 83 26 1d
        E 141 93 1f 5d
        E 379 83 1f 02
        E 134 93 1f 5a
        E 355 83 1f 24
        E 121 93 26 55
        E 292 83 26 17
        E 183 93 26 59
        E 287 83 26 21
        E 197 93 26 55
        E 256 83 26 29
        E 219 93 26 5b
        E 286 83 26 0b
        E 191 93 1f 5a
        E 337 83 1f 01
        E 162 93 2b 53
        E 306 83 2b 01
        E 168 93 2b 53
        E 376 83 2b 05
        E 115 93 1f 59
        E 401 83 1f 01
        E 54 93 26 5c
        E 292 83 26 01
        E 188 93 26 54
        E 258 83 26 27
        E 208 93 26 5b
        E 304 83 26 12
        E 194 93 26 57
        E 267 83 26 20
        E 192 93 26 5a
        E 257 83 26 17
        E 214 93 26 5d
        E 308 83 26 01
        E 194 93 1f 5c
        E 395 83 1f 28
        E 99 93 2b 54
        E 168 93 28 64
        E 8 83 2b 2a
        E 137 83 28 24
        E 3 93 2b 4f
        E 130 83 2b 03
        E 62 93 24 5f
        E 378 83 24 30
        E 78 93 28 5f
        E 393 83 28 01
        E 99 93 2b 54
        E 372 83 2b 15
        E 91 93 2f 57
        E 389 83 2f 01
        E 73 93 24 61
        E 226 83 24 06
        E 97 93 2b 4d
        E 126 83 2b 17
        E 48 93 28 62
        E 209 83 28 22
        E 81 93 2b 53
        E 178 83 2b 01
        E 22 93 30 4c
        E 371 83 30 10
        E 106 93 26 64
        E 152 93 28 61
        E 3 83 26 41
        E 146 93 29 62
        E 10 83 28 33
        E 116 83 29 2f
        E 43 93 2b 5a
        E 407 83 2b 01
        E 86 93 1f 61
        E 388 83 1f 35
        E 85 93 1f 5f
        E 459 83 1f 01
        E 19 93 2b 58
        E 202 83 2b 18
        E 98 93 2b 52
        E 148 83 2b 48
        E 37 93 24 5f
        E 386 83 24 14
        E 88 93 2b 5c
        E 146 93 28 5c
        E 10 83 2b 32
        E 139 83 28 39
        E 3 93 2b 51
        E 152 83 2b 15
        E 31 93 24 4d
        E 311 83 24 45
        E 159 93 2b 5b
        E 166 93 28 57
        E 13 83 2b 2f
        E 131 83 28 2b
        E 4 93 2b 50
        E 185 83 2b 24
        E 2 93 24 60
        E 378 83 24 1c
        E 103 93 28 5f
        E 426 83 28 01
        E 60 93 2b 56
        E 392 83 2b 01
        E 78 93 2f 57
        E 349 83 2f 01
        E 118 93 24 5f
        E 240 83 24 2e
        E 93 93 2b 4d
        E 140 83 2b 01
        E 16 93 28 5c
        E 225 83 28 25
        E 89 93 2b 56
        E 169 83 2b 1c
        E 3 93 30 5f
        E 367 83 30 01
        E 118 93 26 64
        E 136 83 26 45
        E 4 93 28 60
        E 107 83 28 2e
        E 49 93 29 61
        E 101 83 29 31
        E 65 93 2b 60
        E 397 83 2b 01
        E 112 93 1f 53
        E 386 83 1f 27
        E 85 93 2b 57
        E 361 83 2b 04
        E 91 93 1f 62
        E 380 83 1f 01
        E 124 93 24 5f
        E 383 83 24 22
        E 103 93 2b 5e
        E 137 93 28 5e
        E 6 83 2b 28
        E 139 83 28 29
        E 3 93 2b 52
        E 146 83 2b 22
        E 22 93 24 5c
        E 486 83 24 5a
        E 487 93 2b 5c
        E 241 83 2b 01
        E 255 93 26 62
        E 303 83 26 01
        E 161 93 2b 53
        E 350 83 2b 01
        E 131 93 1f 65
        E 329 83 1f 3c
        E 157 93 2a 5f
        E 336 83 2a 01
        E 131 93 26 62
        E 299 83 26 01
        E 192 93 2b 53
        E 366 83 2b 06
        E 122 93 1f 5e
        E 349 83 1f 36
        E 139 93 2b 52
        E 347 83 2b 02
        E 113 93 26 5d
        E 306 83 26 17
        E 172 93 2b 55
        E 349 83 2b 0a
        E 126 93 1f 65
        E 303 83 1f 02
        E 174 93 24 61
        E 371 83 24 1f
        E 98 93 26 61
        E 395 83 26 01
        E 101 93 2b 5c
        E 373 83 2b 01
        E 108 93 1f 62
        E 306 83 1f 35
        E 185 93 2b 57
        E 341 83 2b 01
        E 127 93 26 62
        E 329 83 26 04
        E 148 93 2b 57
        E 326 83 2b 01
        E 151 93 1f 5d
        E 332 83 1f 26
        E 163 93 2a 53
        E 295 83 2a 09
        E 161 93 26 5e
        E 302 83 26 23
        E 206 93 2b 4b
        E 332 83 2b 12
        E 156 93 1f 62
        E 321 83 1f 07
        E 159 93 2b 58
        E 361 83 2b 04
        E 121 93 26 58
        E 305 83 26 2b
        E 145 93 2b 53
        E 406 83 2b 01
        E 80 93 1f 63
        E 341 83 1f 1f
        E 170 93 24 52
        E 360 83 24 21
        E 75 93 26 5c
        E 383 83 26 01
        E 116 93 2b 54
        E 1439 83 2b 01
        E 1 b0 7b 00
        GUID {1B2AA0E4-5769-5049-AC8F-EB7AC92E1177}
        IGNTEMPO 0 120 4 4
        SRCCOLOR 434
        VELLANE -1 86 6
        CFGEDITVIEW 0 0 78 8 0 0 0 0 0 0.5
        KEYSNAP 0
        TRACKSEL 226
        EVTFILTER 0 -1 -1 -1 -1 0 0 0 0 -1 -1 -1 -1 0 -1 0 -1 -1
        CFGEDIT 1 0 0 0 0 0 1 0 1 1 1 0.16666667 32 48 1280 470 0 0 2 3 0.25 0 0 0 0 -0.44 0 0 1 64
      >
    >
  >
  <TRACK {D4259754-8A5D-ED42-9EF0-7FA3B62785A4}
    NAME "vst Plogue"
    PEAKCOL 26779488
    BEAT -1
    AUTOMODE 0
    VOLPAN 1 0 -1 -1 1
    MUTESOLO 0 0 0
    IPHASE 0
    ISBUS 0 0
    BUSCOMP 0 0
    SHOWINMIX 1 0.6667 0.698113 1 0.5 0 0 0
    FREEMODE 0
    SEL 0
    REC 0 0 0 1 0 0 0
    VU 2
    TRACKHEIGHT 0 0
    INQ 0 0 0 0.5 100 0 0 100
    NCHAN 4
    FX 1
    TRACKID {D4259754-8A5D-ED42-9EF0-7FA3B62785A4}
    PERF 0
    AUXRECV 1 0 1 0 0 0 0 0 4 -1:U 0 -1 ''
    AUXRECV 3 0 1 0 0 0 0 0 0 -1:U 32 -1 ''
    AUXRECV 3 0 1 0 0 0 0 0 0 -1:U 96 -1 ''
    AUXRECV 4 0 1 0 0 0 0 0 0 -1:U 64 -1 ''
    AUXRECV 4 0 1 0 0 0 0 0 0 -1:U 128 -1 ''
    MIDIOUT -1
    MAINSEND 0 0
    <FXCHAIN
      WNDRECT 532 389 724 387
      SHOW 0
      LASTSEL 0
      DOCKED 0
      BYPASS 0 0 0
      <VST "VSTi: chipsounds (Multi) (Plogue Art et Technologie, Inc) (32 out)" "chipsounds Multi.vst" 0 "" 1347241807
        T0dNUO5e7f4AAAAAIAAAAAEAAAAAAAAAAgAAAAAAAAAEAAAAAAAAAAgAAAAAAAAAEAAAAAAAAAAgAAAAAAAAAEAAAAAAAAAAgAAAAAAAAAAAAQAAAAAAAAACAAAAAAAA
        AAQAAAAAAAAACAAAAAAAAAAQAAAAAAAAACAAAAAAAAAAQAAAAAAAAACAAAAAAAAAAAABAAAAAAAAAAIAAAAAAAAABAAAAAAAAAAIAAAAAAAAABAAAAAAAAAAIAAAAAAA
        AABAAAAAAAAAAIAAAAAAAAAAAAEAAAAAAAAAAgAAAAAAAAAEAAAAAAAAAAgAAAAAAAAAEAAAAAAAAAAgAAAAAAAAAEAAAAAAAAAAgAAAAADSBgAAAQAAAAAAEAA=
        Q0VHUKc6AAB4nO1bS3PbNhC++1dwdGoPIfEkgBnZGVu2Ws/UTWbkTI8ZWEJkthSlkpSb9Nd3+ZAN2oJI1UrrxOTBJsF9YBcgvo9Ycfj28yL27kyaRcvkeIB9NPDenhwN
        T9NIT/SdsW4pHA68Vbqcraf55Tk0IKQGJ0ceHMOJyfMomWfen2sdR/kXuDvwsjw1egHNxwNKBt5Cf56ULadxvJxenR0POIbmq8vzy3fr/Go5M6WWXufLhc7B5yRe5scD
        ZDfF5s7Ex4MoAdvrhUnygRdHd6ZSBslsClYpL050rKEJe288U3TKz6Zx3TwCPZMeD0JQmMfLGx1fr5Oym9AQbCIC5140K9sSvSjMY997v06NN7qNVsHk8jwIucTeD79e
        T0Y/DrwbnfxxOavTYqVNEghyequTpOg5WFst4yI/kMz8we3q5mOqkzm4eQM5WOVwkZU3FtbpcprDkNwHCm4W67y+/utjrDNIF6uHpAziSkfJJog7Ha+rDAfbJPC9BHJI
        kFYJ2irBWiV4q0TYKiFaJWSrhGqVwKhdpD2ruD2tuD2vuD2x2JnZ9zrVi91D/CDidPQgYqXfl5wjOLBCgjIZUpeOnUyfqVIJMRFKKoonxeHISq+PiSoPTigOiWROJWYr
        0coTpyFjWDp1QltHVjqESlDhbiVrkvkQTNU9KSVh0FfsUpO2L1p6QhgrghRRTh21v45CjZiq3okQw5rGiHOYKHatJNc6nZu8Xiuny4X/Pl7O18YvkMT/ZfzOX2cmRdbq
        VGqN1hms7ec6195t/mUFqlxw6HMW/Q3nTForKfTXJLNIV6czUIGTzTGu/hF02KMZYlDFuG/Q+JUEfZ1G87lJJ4C3JpmatD1sRhndhE24FTbZFjauo66P6lqU53QkxqoR
        xAjR8Y5AhkEB8I+xHh8U6/E2rJc91vdY/xKwHjfQCYehKJ8bhhSioRM1rAh8hTgHlBGcSEkVdiKaDbhEsBBxJRXjIQZ4/2ocgnciDZxVpsNQKsBNt5IdA60y1U5PnLP3
        eWi/A4RtIXuoEMVMhQh4kWBCMeRUU+ghiW4WAJjT04CeBnwNGhDagNqJBpRPsIAkjC+e0oAqM4KeNRrGQA4KWflEFFrPt1lApGnhX9ELclB6we7pxQO7YAdkF6iFXTjB
        Zw924WIoPbt4LPLq2AXllEtARAkPuMLSibJWSD6u37JDQbBgzAnnNpoL1m2zgTciUvX7sgiZJFw6oVJ0QOrG1ke1uYAZRcCtmHAqsQ6GG7sWJblQioZIsR3bI7hLj+3t
        BlazM4rBBcHOsRXOSb6Vmzmdi8aAs3o95sBuWNht0yfk5SwRmEoYwB2kzx5yWuEMEpgTzoXbk510Tpi9q7KDddm0ugLyVk5qUzUnJ1ZupmYLddjVUyjsYqnD9FFIdXkq
        uvQcY9Rg5lW+pUQCeuLWIshen4gzxSDozEzP+V47u38e0S12gPcjuiWEVkQXEXJ29iSQp/T3vCS6BYi2y5YH4aOm3TOwULgV2G4dV62jZmtLMreTYnpQUkw2pJj9P+W1
        dlLsorz9ltujjH1/pPhllNf6alpfTfu2gPZVUqpvv5rGDorsdAuy8x7Ze2R/Ccj+XRfT3FsxfSmtL6X9R3DYc4C+lGZxC3HPLYjvVWnwfgOM/7RMF1nws05n3uRLMu1K
        LvjX+VnucxlFewGtnVG4WEnPKJ6IvFhGgetyE+dEhdwNkw2cUkx12gy3PRW4BnxCUqQEEu56ip0Hn8uqyiE5I5QIN9g2eEgdE5FMMEacIeHGe7/YLCJKIvDlhlX7Fb7r
        XgbpQHlIh6LEwSpdjeEMWWNPoVt9DNhhNQnghUsqztzVOd6hP816IlUFe8OESEp3lFAa5ClkVYEGOBnMY+osb3biTnZta8cPvg5Z3ZJdhDpUtxTukG9MUIeZBFLOxd5V
        yfJpVQKVigiMQ+p+ZAlyrvE9Pe3p6bO2qAjdk59Wv2Go9qjQmRh3qYBtjk2lCl6Y4TjlzfqV1Xom+FO7+1kIt9Tm9rSAn2uBi+daYOfPs9CV0198+mSmuf29Xc2iq/l2
        uriJitnVQuVrX8OfPlxuzOhpHt2Zy+ozQry5vrj/rDAzMTg2s2t9U8w/ewFMTWbyK5OsvSjbqOdlALsfAC83n0HkGv6uUzPzfo7yDN4bdH57PAhOV6s4mpbfMWZBZQHe
        QKJVtlwnM2gpnWbBDvtB/aZzmq7MfB4ts6DhydewCq0ereVPQiF7hbLQv4v89j6GD7C8ZUEGI5PMY53MoE8fp6nRuQkmerGKTRZcbO5446i4rhyMHgLd+MgKFZ7fPu73
        MIBBPDkaBpuPUE+O/gG7pkx5
        AAAQAAAA
      >
      FLOATPOS 129 268 871 509
      FXID {C804D762-B992-A540-81BF-3D6C0F7FF19B}
      WAK 0
    >
  >
  <TRACK {F21395F9-F67E-E94E-A650-3CA2FF3EBDD0}
    NAME "ch1,3 (send)"
    PEAKCOL 16576
    BEAT -1
    AUTOMODE 0
    VOLPAN 1 0 -1 -1 1
    MUTESOLO 0 0 0
    IPHASE 0
    ISBUS 0 0
    BUSCOMP 0 0
    SHOWINMIX 1 0.6667 0.698113 1 0.5 0 0 0
    FREEMODE 0
    SEL 0
    REC 0 0 0 0 0 0 0
    VU 2
    MIDICTL -1 1
    TRACKHEIGHT 0 0
    INQ 0 0 0 0.5 100 0 0 100
    NCHAN 2
    FX 1
    TRACKID {F21395F9-F67E-E94E-A650-3CA2FF3EBDD0}
    PERF 0
    MIDIOUT -1
    MAINSEND 1 0
    <FXCHAIN
      SHOW 0
      LASTSEL 0
      DOCKED 0
    >
    <ITEM
      POSITION 0
      SNAPOFFS 0
      LENGTH 8
      LOOP 1
      ALLTAKES 0
      FADEIN 1 0 0 1 0 0
      FADEOUT 1 0 0 1 0 0
      MUTE 0
      SEL 0
      YPOS 0.266094 0.201717
      IGUID {A6BAE54E-5D1E-4A45-929F-227D73AF2120}
      IID 1
      NAME "trumpet(s) - National_Anthems_-_Philippines.mid"
      VOLPAN 1 0 1 -1
      SOFFS 0 0
      PLAYRATE 1 1 0 -1 0 0.0025
      CHANMODE 0
      TAKECOLOR 26173599 B
      GUID {96E5F875-0847-9449-A4BA-18E605070196}
      <SOURCE MIDI
        HASDATA 1 480 QN
        POOLEDEVTS {06C9FB94-63AB-0F41-A957-D09C73D1D96E}
        <X 0 0 0 0 3 trumpet(s)
          /wN0cnVtcGV0KHMp
        >
        <X 0 0 0 0 4 "Sound Canvas"
          /wRTb3VuZCBDYW52YXM=
        >
        e 0 90 43 7f
        e 400 80 43 1b 22
        e 80 90 42 7f 2
        e 240 80 42 0b -9
        e 80 90 45 7f 21
        e 160 80 45 26 -22
        e 0 90 43 7f 8
        e 480 80 43 37 -18
        e 0 90 3e 7f 27
        e 400 80 3e 36 -36
        e 80 90 45 7f 8
        e 160 80 45 36 18
        e 0 90 47 7f -8
        e 160 80 47 47 -33
        e 0 90 48 7f -27
        e 80 80 48 28 30
        e 80 90 47 7f
        e 240 80 47 2f -30
        e 80 90 45 7f 7
        e 80 80 45 1b 33
        e 80 90 47 7f
        e 480 80 47 29 24
        e 0 90 43 7f 16
        e 320 80 43 16 33
        e 160 90 43 7f 31
        e 480 80 43 1f
        e 0 90 42 7f 18
        e 240 80 42 1e 25
        e 80 90 45 7f 21
        e 160 80 45 28 -5
        e 0 90 43 7f
        e 480 80 43 39 1
        e 0 90 3e 7f 2
        e 400 80 3e 01 -5
        e 80 90 45 7f
        e 160 80 45 12 11
        e 0 90 47 7f -14
        e 160 80 47 41 -12
        e 0 90 48 7f -3
        e 160 80 48 31 11
        e 0 90 47 7f -1
        e 240 80 47 22 1
        e 80 90 45 7f -5
        e 160 80 45 30 -13
        e 0 90 43 7f -5
        e 640 80 43 3e 6
        E 320 b0 7b 00
        GUID {6AFFBA77-E74A-7448-BE29-76F2E110A755}
        IGNTEMPO 0 120 4 4
        SRCCOLOR 401
        VELLANE -1 86 6
        CFGEDITVIEW -3120 12.13986 54 9 0 0 0 0 0 0.5
        KEYSNAP 0
        TRACKSEL 226
        EVTFILTER 0 -1 -1 -1 -1 0 0 0 0 -1 -1 -1 -1 0 -1 0 -1 -1
        CFGEDIT 1 0 0 0 0 0 1 0 1 1 1 0.16666667 16 32 1280 470 0 0 2 3 0.25 0 0 0 0 -0.44 0 0 1 64
      >
      TAKE
      NAME "trumpet(s) - National_Anthems_-_Philippines.mid"
      TAKEVOLPAN 0 1 -1
      SOFFS 0 0
      PLAYRATE 1 1 0 -1 0 0.0025
      CHANMODE 0
      GUID {6C9C496B-3C9B-DD49-9C88-7868DDF14D8E}
      <SOURCE MIDI
        HASDATA 1 480 QN
        POOLEDEVTS {A701411D-5C36-FE42-B68D-C484000C46F6}
        <X 0 0 0 0 3 trumpet(s)
          /wN0cnVtcGV0KHMp
        >
        <X 0 0 0 0 4 "Sound Canvas"
          /wRTb3VuZCBDYW52YXM=
        >
        e 0 90 43 6d
        e 422 80 43 1b
        e 60 90 42 66
        e 229 80 42 0b
        e 110 90 45 61
        e 117 80 45 26
        e 30 90 43 6b
        e 454 80 43 37
        e 45 90 3e 64
        e 337 80 3e 36
        e 124 90 45 66
        e 144 90 47 60
        e 26 80 45 36
        e 109 80 47 47
        e 6 90 48 5a
        e 137 80 48 28
        e 50 90 47 67
        e 210 80 47 2f
        e 117 90 45 56
        e 106 80 45 1b
        e 47 90 47 60
        e 496 90 43 67
        e 8 80 47 29
        e 329 80 43 16
        e 158 90 43 68
        e 449 80 43 1f
        e 18 90 42 61
        e 247 80 42 1e
        e 76 90 45 5e
        e 134 80 45 28
        e 5 90 43 69
        e 481 80 43 39
        e 1 90 3e 5c
        e 393 80 3e 01
        e 85 90 45 64
        e 146 90 47 5e
        e 25 80 45 12
        e 137 80 47 41
        e 9 90 48 58
        e 162 90 47 67
        e 12 80 48 31
        e 230 80 47 22
        e 74 90 45 55
        e 152 80 45 30
        e 8 90 43 65
        e 651 80 43 3e
        e 299 90 43 69
        e 15 80 43 00
        E 0 b0 7b 00
        GUID {BD2AB576-9859-4A47-B0C2-FB40A957AF58}
        IGNTEMPO 0 120 4 4
        SRCCOLOR 402
        VELLANE -1 86 6
        CFGEDITVIEW 0 0 49 11 0 0 0 0 0 0.5
        KEYSNAP 0
        TRACKSEL 226
        EVTFILTER 0 -1 -1 -1 -1 0 0 0 0 -1 -1 -1 -1 0 -1 0 -1 -1
        CFGEDIT 1 0 0 0 0 0 1 0 1 1 1 0.125 0 16 1280 470 0 0 2 3 0.25 0 0 0 0 -0.44 0 0 1 64
      >
    >
    <ITEM
      POSITION 0
      SNAPOFFS 0
      LENGTH 8
      LOOP 1
      ALLTAKES 0
      FADEIN 1 0 0 1 0 0
      FADEOUT 1 0 0 1 0 0
      MUTE 0
      SEL 0
      YPOS 0.532189 0.201717
      IGUID {55CA021B-23CA-0344-9FE9-FEBD95C45D8F}
      IID 3
      NAME "trombone(s) - National_Anthems_-_Philippines.mid"
      VOLPAN 1 0 1 -1
      SOFFS 0 0
      PLAYRATE 1 1 0 -1 0 0.0025
      CHANMODE 0
      TAKECOLOR 26173599 B
      GUID {EFD41EF4-1B2F-ED43-8E67-83F0BE94C3B7}
      <SOURCE MIDI
        HASDATA 1 480 QN
        POOLEDEVTS {EC984E3E-2A28-4940-9592-DB2AE10A1121}
        <X 0 0 0 0 3 trombone(s)
          /wN0cm9tYm9uZShzKQ==
        >
        <X 0 0 0 0 4 "Sound Canvas"
          /wRTb3VuZCBDYW52YXM=
        >
        e 0 92 37 7f
        e 240 82 37 01 37
        e 240 92 32 7f -4
        e 360 82 32 01 -34
        e 120 92 37 7f -6
        e 360 82 37 01 -49
        e 120 92 2b 7f -29
        e 360 82 2b 33 -59
        e 120 92 36 7f -2
        e 240 82 36 13 49
        e 240 92 32 7f -12
        e 240 82 32 40 37
        e 240 92 37 7f -4
        e 360 82 37 01 -37
        e 120 92 2b 7f -14
        e 360 82 2b 26 -44
        e 120 92 37 7f -5
        e 360 82 37 01 -41
        e 120 92 32 7f 6
        e 240 82 32 21 48
        e 240 92 37 7f 1
        e 360 82 37 01 1
        e 120 92 2b 7f -14
        e 240 82 2b 3b 9
        e 240 92 30 7f -1
        e 360 82 30 24 -52
        e 120 92 32 7f -14
        e 240 82 32 16 46
        e 240 92 37 7f -11
        e 360 82 37 01 -54
        e 120 92 2b 7f -15
        e 360 82 2b 27 -54
        E 120 b0 7b 00
        GUID {28F9F36F-8E8F-4840-968E-C9E53BFC96C1}
        IGNTEMPO 0 120 4 4
        SRCCOLOR 327
        VELLANE -1 86 6
        CFGEDITVIEW -3096 12.233968 62 8 0 0 0 0 0 0.5
        KEYSNAP 0
        TRACKSEL 226
        EVTFILTER 0 -1 -1 -1 -1 0 0 0 0 -1 -1 -1 -1 0 -1 0 -1 -1
        CFGEDIT 1 0 0 0 0 0 1 0 1 1 1 0.125 16 32 1280 470 0 0 2 3 0.25 0 0 0 0 -0.44 0 0 1 64
      >
      TAKE
      NAME "trombone(s) - National_Anthems_-_Philippines.mid"
      TAKEVOLPAN 0 1 -1
      SOFFS 0 0
      PLAYRATE 1 1 0 -1 0 0.0025
      CHANMODE 0
      GUID {4365ECA6-5CA7-824A-896E-2E2314636289}
      <SOURCE MIDI
        HASDATA 1 480 QN
        POOLEDEVTS {6A9374CB-829E-E642-B89B-D2CDB862AECA}
        <X 0 0 0 0 3 trombone(s)
          /wN0cm9tYm9uZShzKQ==
        >
        <X 0 0 0 0 4 "Sound Canvas"
          /wRTb3VuZCBDYW52YXM=
        >
        E 0 92 37 52
        E 277 82 37 01
        E 199 92 32 59
        E 330 82 32 01
        E 148 92 37 54
        E 317 82 37 01
        E 140 92 2b 5c
        E 330 82 2b 33
        E 177 92 36 5f
        E 291 82 36 13
        E 179 92 32 59
        E 289 82 32 40
        E 199 92 37 51
        E 327 82 37 01
        E 143 92 2b 53
        E 330 82 2b 26
        E 159 92 37 52
        E 324 82 37 01
        E 167 92 32 50
        E 282 82 32 21
        E 193 92 37 4f
        E 360 82 37 01
        E 105 92 2b 60
        E 263 82 2b 3b
        E 230 92 30 57
        E 309 82 30 24
        E 158 92 32 59
        E 300 82 32 16
        E 183 92 37 59
        E 317 82 37 01
        E 159 92 2b 62
        E 321 82 2b 27
        E 169 92 37 59
        E 5 82 37 00
        E 0 b0 7b 00
        GUID {DD5B58D2-22DA-7D4E-81BC-F7C1B8B39AFE}
        IGNTEMPO 0 120 4 4
        SRCCOLOR 403
        VELLANE -1 86 6
      >
    >
    <ITEM
      POSITION 8
      SNAPOFFS 0
      LENGTH 40
      LOOP 1
      ALLTAKES 0
      FADEIN 1 0 0 1 0 0
      FADEOUT 1 0 0 1 0 0
      MUTE 0
      SEL 0
      YPOS 0.266094 0.201717
      IGUID {884A20A1-921A-8843-B4DE-5B4FFEB754A8}
      IID 12
      NAME "trumpet(s) - National_Anthems_-_Philippines.mid"
      VOLPAN 1 0 1 -1
      SOFFS 8 16
      PLAYRATE 1 1 0 -1 0 0.0025
      CHANMODE 0
      TAKECOLOR 26173599 B
      GUID {D7D64B5E-9F01-9F4C-B68E-88C8F1DB3740}
      <SOURCE MIDI
        HASDATA 1 480 QN
        POOLEDEVTS {77B31794-1385-304B-92E5-CA70E152F21E}
        <X 0 0 0 0 3 trumpet(s)
          /wN0cnVtcGV0KHMp
        >
        <X 0 0 0 0 4 "Sound Canvas"
          /wRTb3VuZCBDYW52YXM=
        >
        e 0 90 43 7f
        e 400 80 43 1b 22
        e 80 90 42 7f 2
        e 240 80 42 0b -9
        e 80 90 45 7f 21
        e 160 80 45 26 -22
        e 0 90 43 7f 8
        e 480 80 43 37 -18
        e 0 90 3e 7f 27
        e 400 80 3e 36 -36
        e 80 90 45 7f 8
        e 160 80 45 36 18
        e 0 90 47 7f -8
        e 160 80 47 47 -33
        e 0 90 48 7f -27
        e 80 80 48 28 30
        e 80 90 47 7f
        e 240 80 47 2f -30
        e 80 90 45 7f 7
        e 80 80 45 1b 33
        e 80 90 47 7f
        e 480 80 47 29 24
        e 0 90 43 7f 16
        e 320 80 43 16 33
        e 160 90 43 7f 31
        e 480 80 43 1f
        e 0 90 42 7f 18
        e 240 80 42 1e 25
        e 80 90 45 7f 21
        e 160 80 45 28 -5
        e 0 90 43 7f
        e 480 80 43 39 1
        e 0 90 3e 7f 2
        e 400 80 3e 01 -5
        e 80 90 45 7f
        e 160 80 45 12 11
        e 0 90 47 7f -14
        e 160 80 47 41 -12
        e 0 90 48 7f -3
        e 160 80 48 31 11
        e 0 90 47 7f -1
        e 240 80 47 22 1
        e 80 90 45 7f -5
        e 160 80 45 30 -13
        e 0 90 43 7f -5
        e 640 80 43 3e 6
        e 320 90 43 7f -15
        e 400 80 43 1a 12
        e 80 90 42 7f -18
        e 160 80 42 25 37
        e 160 90 45 7f -15
        e 160 80 45 32 -31
        e 0 90 43 7f 1
        e 480 80 43 48 -9
        e 0 90 3e 7f -6
        e 320 80 3e 10 24
        e 160 90 45 7f -6
        e 160 80 45 32 21
        e 0 90 47 7f -8
        e 160 80 47 46 -26
        e 0 90 48 7f -23
        e 160 80 48 38 -13
        e 0 90 47 7f -12
        e 160 80 47 23 20
        e 160 90 45 7f -12
        e 160 80 45 07 -19
        e 0 90 47 7f -2
        e 480 80 47 41 -10
        e 0 90 43 7f -9
        e 320 80 43 39 -12
        e 160 90 43 7f -3
        e 400 80 43 13 14
        e 80 90 42 7f -3
        e 240 80 42 2c -4
        e 80 90 45 7f 14
        e 160 80 45 33 6
        e 0 90 43 7f 17
        e 480 80 43 48 3
        e 0 90 3e 7f 9
        e 320 80 3e 01 37
        e 160 90 45 7f -20
        e 160 80 45 11 -8
        e 0 90 47 7f -35
        e 80 80 47 42 35
        e 80 90 48 7f -36
        e 160 80 48 24 -12
        e 0 90 47 7f -21
        e 240 80 47 0d -12
        e 80 90 45 7f -19
        e 160 80 45 2b -32
        e 0 90 43 7f -7
        e 320 80 43 43 16
        e 160 90 43 7f -2
        e 160 80 43 3e 5
        e 0 90 42 7f -5
        e 160 80 42 2c -29
        e 0 90 43 7f -18
        e 160 80 43 3d -24
        e 0 90 45 7f 1
        e 240 80 45 34 -23
        e 80 90 45 7f -3
        e 160 80 45 36 -2
        e 0 90 3e 7f 9
        e 240 80 3e 24 -8
        e 80 90 3e 7f -4
        e 160 80 3e 29 -6
        e 0 90 45 7f 9
        e 240 80 45 2b -5
        e 80 90 45 7f 7
        e 160 80 45 3c 26
        e 0 90 3e 7f 14
        e 240 80 3e 0e -20
        e 80 90 3e 7f -2
        e 160 80 3e 16 -8
        e 0 90 47 7f 25
        e 240 80 47 2b 14
        e 80 90 48 7f -3
        e 160 80 48 3e -14
        e 0 90 4a 7f 10
        e 240 80 4a 34 -21
        e 80 90 4c 7f -19
        e 160 80 4c 34 -23
        e 0 90 4a 7f -5
        e 400 80 4a 41 -17
        e 80 90 43 7f -13
        e 160 80 43 46 -38
        e 0 90 42 7f -11
        e 160 80 42 41 -37
        e 0 90 43 7f -29
        e 160 80 43 40 -35
        e 0 90 45 7f -17
        e 160 80 45 2c -6
        e 160 90 45 7f -20
        e 160 80 45 3d 5
        e 0 90 3e 7f -5
        e 240 80 3e 34 -36
        e 80 90 3e 7f -17
        e 160 80 3e 1d -32
        e 0 90 45 7f 3
        e 160 80 45 2c 9
        e 160 90 45 7f -11
        e 160 80 45 3e 10
        e 0 90 3e 7f 21
        e 240 80 3e 32 -32
        e 80 90 3e 7f -7
        e 160 80 3e 2f -38
        e 0 90 47 7f 16
        e 160 80 47 3e -8
        e 0 90 48 7f -6
        e 160 80 48 41 -20
        e 0 90 47 7f -16
        e 80 80 47 39 8
        e 80 90 45 7f -15
        e 160 80 45 1a -5
        e 0 90 47 7f -21
        e 160 80 47 37 -36
        e 0 90 45 7f -31
        e 80 80 45 28 6
        e 80 90 43 7f -18
        e 400 80 43 3d -33
        e 80 90 43 7f 6
        e 160 80 43 3b 8
        e 0 90 42 7f 5
        e 160 80 42 40 -19
        e 0 90 43 7f -17
        e 160 80 43 3f -18
        e 0 90 45 7f -6
        e 160 80 45 2a 17
        e 160 90 45 7f -16
        e 160 80 45 2b 10
        e 0 90 3e 7f 7
        e 160 80 3e 22 17
        e 160 90 3e 7f -22
        e 160 80 3e 21 -3
        e 0 90 45 7f -5
        e 160 80 45 23 3
        e 160 90 45 7f -12
        e 160 80 45 3b 8
        e 0 90 3e 7f 14
        e 160 80 3e 19 24
        e 160 90 3e 7f -27
        e 160 80 3e 14 -26
        e 0 90 47 7f 2
        e 240 80 47 3c 38
        e 80 90 48 7f -12
        e 160 80 48 33 -38
        e 0 90 4a 7f 4
        e 240 80 4a 1b -6
        e 80 90 4c 7f -13
        e 80 80 4c 2f 28
        e 80 90 4a 7f
        e 400 80 4a 38 -28
        e 80 90 43 7f -11
        e 160 80 43 35 -5
        e 0 90 42 7f 3
        e 160 80 42 43 -29
        e 0 90 43 7f -30
        e 160 80 43 44 -38
        e 0 90 45 7f -18
        e 160 80 45 37 -7
        e 160 90 45 7f -16
        e 160 80 45 2d 14
        e 0 90 3e 7f -12
        e 160 80 3e 1e 13
        e 160 90 3e 7f -30
        e 160 80 3e 2b 1
        e 0 90 45 7f -17
        e 160 80 45 27 24
        e 160 90 45 7f -18
        e 160 80 45 3d -5
        e 0 90 3e 7f -16
        e 160 80 3e 2f -7
        e 160 90 3e 7f -39
        e 80 80 3e 1f 21
        e 80 90 47 7f -14
        e 160 80 47 41 -28
        e 0 90 48 7f -37
        e 160 80 48 3a -24
        e 0 90 47 7f -31
        e 80 80 47 35 21
        e 80 90 45 7f -23
        e 160 80 45 24 -23
        e 0 90 47 7f -25
        e 160 80 47 30 -31
        e 0 90 45 7f -35
        e 160 80 45 41 -36
        e 0 90 43 7f -25
        e 400 80 43 39 -20
        e 80 90 43 7f 10
        e 160 80 43 52 -26
        e 0 90 40 7f -24
        e 160 80 40 01 14
        e 0 90 43 7f -5
        e 160 80 43 45 -27
        e 0 90 48 7f 7
        e 400 80 48 26 -6
        e 80 90 48 7f -8
        e 400 80 48 1e 7
        e 80 90 4a 7f -2
        e 400 80 4a 43 14
        e 80 90 4a 7f -1
        e 240 80 4a 42 22
        e 80 90 4a 7f 23
        e 160 80 4a 43 -18
        e 0 90 4c 7f 10
        e 320 80 4c 2c -27
        e 0 90 4a 7f -19
        e 80 80 4a 25 35
        e 80 90 48 7f -16
        e 240 80 48 35 12
        e 80 90 4a 7f -38
        e 80 80 4a 2d 29
        e 80 90 4c 7f -24
        e 400 80 4c 1a 14
        e 80 90 4d 7f 2
        e 160 80 4d 42 11
        e 0 90 4c 7f -15
        e 160 80 4c 48 -18
        e 0 90 4a 7f -15
        e 80 80 4a 0f 39
        e 80 90 4c 7f 7
        e 480 80 4c 24 -9
        e 0 90 48 7f 17
        e 480 80 48 01 -15
        e 0 90 4a 7f
        e 480 80 4a 3d 9
        e 0 90 47 7f 3
        e 240 80 47 25 -29
        e 80 90 47 7f 14
        e 160 80 47 22 -28
        e 0 90 48 7f 5
        e 1280 80 48 42 26
        e 160 90 43 7f 13
        e 160 80 43 4f -17
        e 0 90 40 7f -17
        e 160 80 40 27 -14
        e 0 90 43 7f -19
        e 160 80 43 2f -28
        e 0 90 48 7f 1
        e 400 80 48 1d 5
        e 80 90 48 7f 1
        e 400 80 48 25 22
        e 80 90 4a 7f 8
        e 400 80 4a 39 22
        e 80 90 4a 7f 12
        e 160 80 4a 3e 29
        e 80 90 4a 7f 16
        e 160 80 4a 2e 39
        e 80 90 4c 7f 4
        e 240 80 4c 2b 19
        e 80 90 4a 7f 7
        e 160 80 4a 30 -20
        e 0 90 48 7f 6
        e 240 80 48 12 8
        e 80 90 4a 7f 3
        e 160 80 4a 31 -31
        e 0 90 4c 7f 1
        e 400 80 4c 28 9
        e 80 90 4d 7f 7
        e 160 80 4d 3a 6
        e 0 90 4c 7f -20
        e 80 80 4c 2b 37
        e 80 90 4a 7f -24
        e 160 80 4a 11 -25
        e 0 90 4c 7f 2
        e 480 80 4c 01 -20
        e 0 90 48 7f 23
        e 480 80 48 01 -16
        e 0 90 4a 7f 10
        e 480 80 4a 2f 15
        e 0 90 47 7f -9
        e 240 80 47 32 -31
        e 80 90 47 7f
        e 160 80 47 2e -31
        e 0 90 48 7f
        e 1280 80 48 56 23
        E 640 b0 7b 00
        GUID {DAD35504-F67F-C149-994C-D1CA82AAA9AF}
        IGNTEMPO 0 120 4 4
        SRCCOLOR 421
        VELLANE -1 86 6
        CFGEDITVIEW 0 0 54 9 0 0 0 0 0 0.5
        KEYSNAP 0
        TRACKSEL 226
        EVTFILTER 0 -1 -1 -1 -1 0 0 0 0 -1 -1 -1 -1 0 -1 0 -1 -1
        CFGEDIT 1 0 0 0 0 0 1 0 1 1 1 0.16666667 16 32 1280 470 0 0 2 3 0.25 0 0 0 0 -0.44 0 0 1 64
      >
      TAKE
      NAME "trumpet(s) - National_Anthems_-_Philippines.mid"
      TAKEVOLPAN 0 1 -1
      SOFFS 8 16
      PLAYRATE 1 1 0 -1 0 0.0025
      CHANMODE 0
      GUID {89880F9F-09C4-174E-9DF6-F0D89912F7D0}
      <SOURCE MIDI
        HASDATA 1 480 QN
        POOLEDEVTS {915F6370-7B4D-EC47-B80D-42B4BB5FB47E}
        <X 0 0 0 0 3 trumpet(s)
          /wN0cnVtcGV0KHMp
        >
        <X 0 0 0 0 4 "Sound Canvas"
          /wRTb3VuZCBDYW52YXM=
        >
        e 0 90 43 6d
        e 422 80 43 1b
        e 60 90 42 66
        e 229 80 42 0b
        e 110 90 45 61
        e 117 80 45 26
        e 30 90 43 6b
        e 454 80 43 37
        e 45 90 3e 64
        e 337 80 3e 36
        e 124 90 45 66
        e 144 90 47 60
        e 26 80 45 36
        e 109 80 47 47
        e 6 90 48 5a
        e 137 80 48 28
        e 50 90 47 67
        e 210 80 47 2f
        e 117 90 45 56
        e 106 80 45 1b
        e 47 90 47 60
        e 496 90 43 67
        e 8 80 47 29
        e 329 80 43 16
        e 158 90 43 68
        e 449 80 43 1f
        e 18 90 42 61
        e 247 80 42 1e
        e 76 90 45 5e
        e 134 80 45 28
        e 5 90 43 69
        e 481 80 43 39
        e 1 90 3e 5c
        e 393 80 3e 01
        e 85 90 45 64
        e 146 90 47 5e
        e 25 80 45 12
        e 137 80 47 41
        e 9 90 48 58
        e 162 90 47 67
        e 12 80 48 31
        e 230 80 47 22
        e 74 90 45 55
        e 152 80 45 30
        e 8 90 43 65
        e 651 80 43 3e
        e 299 90 43 69
        e 427 80 43 1a
        e 50 90 42 66
        e 215 80 42 25
        e 108 90 45 53
        e 144 80 45 32
        e 32 90 43 6c
        e 470 80 43 48
        e 3 90 3e 5e
        e 350 80 3e 10
        e 130 90 45 63
        e 158 90 47 5d
        e 29 80 45 32
        e 113 80 47 46
        e 3 90 48 52
        e 170 80 48 38
        e 1 90 47 63
        e 192 80 47 23
        e 128 90 45 5f
        e 153 80 45 07
        e 17 90 47 5f
        e 472 80 47 41
        e 1 90 43 62
        e 317 80 43 39
        e 169 90 43 68
        e 417 80 43 13
        e 63 90 42 62
        e 239 80 42 2c
        e 98 90 45 61
        e 152 80 45 33
        e 11 90 43 68
        e 466 80 43 48
        e 6 90 3e 59
        e 348 80 3e 01
        e 103 90 45 64
        e 145 90 47 5d
        e 27 80 45 11
        e 123 80 47 42
        e 9 90 48 52
        e 175 90 47 66
        e 9 80 48 24
        e 240 80 47 0d
        e 73 90 45 5f
        e 147 80 45 2b
        e 25 90 43 60
        e 343 80 43 43
        e 142 90 43 6a
        e 157 90 42 5e
        e 10 80 43 3e
        e 126 80 42 2c
        e 11 90 43 62
        e 154 80 43 3d
        e 25 90 45 63
        e 216 80 45 34
        e 100 90 45 60
        e 161 80 45 36
        e 11 90 3e 5d
        e 223 80 3e 24
        e 84 90 3e 58
        e 158 80 3e 29
        e 15 90 45 66
        e 226 80 45 2b
        e 92 90 45 60
        e 167 90 3e 60
        e 12 80 45 3c
        e 194 80 3e 0e
        e 98 90 3e 5b
        e 154 80 3e 16
        e 33 90 47 62
        e 229 80 47 2b
        e 63 90 48 5e
        e 149 80 48 3e
        e 24 90 4a 64
        e 209 80 4a 34
        e 82 90 4c 5d
        e 156 80 4c 34
        e 18 90 4a 60
        e 388 80 4a 41
        e 84 90 43 69
        e 135 80 43 46
        e 27 90 42 55
        e 134 80 42 41
        e 8 90 43 62
        e 154 80 43 40
        e 18 90 45 65
        e 171 80 45 2c
        e 146 90 45 5b
        e 175 90 3e 59
        e 10 80 45 3d
        e 199 80 3e 34
        e 99 90 3e 54
        e 145 80 3e 1d
        e 35 90 45 67
        e 166 80 45 2c
        e 140 90 45 5f
        e 181 80 45 3e
        e 11 90 3e 60
        e 187 80 3e 32
        e 105 90 3e 4f
        e 129 80 3e 2f
        e 54 90 47 64
        e 136 80 47 3e
        e 2 90 48 53
        e 146 80 48 41
        e 4 90 47 5c
        e 104 80 47 39
        e 57 90 45 64
        e 154 90 47 5e
        e 16 80 45 1a
        e 129 80 47 37
        e 5 90 45 5d
        e 117 80 45 28
        e 56 90 43 62
        e 385 80 43 3d
        e 119 90 43 6c
        e 159 90 42 5b
        e 3 80 43 3b
        e 133 80 42 40
        e 2 90 43 69
        e 159 80 43 3f
        e 12 90 45 63
        e 183 80 45 2a
        e 127 90 45 62
        e 183 90 3e 5e
        e 3 80 45 2b
        e 167 80 3e 22
        e 121 90 3e 58
        e 177 90 45 69
        e 2 80 3e 21
        e 166 80 45 23
        e 145 90 45 61
        e 180 80 45 3b
        e 6 90 3e 5c
        e 170 80 3e 19
        e 109 90 3e 57
        e 161 80 3e 14
        e 28 90 47 63
        e 276 80 47 3c
        e 30 90 48 5e
        e 134 80 48 33
        e 42 90 4a 65
        e 230 80 4a 1b
        e 73 90 4c 60
        e 121 80 4c 2f
        e 52 90 4a 63
        e 372 80 4a 38
        e 97 90 43 66
        e 166 80 43 35
        e 8 90 42 56
        e 127 90 43 63
        e 1 80 42 43
        e 151 80 43 44
        e 20 90 45 62
        e 171 80 45 37
        e 151 90 45 5f
        e 164 90 3e 61
        e 26 80 45 2d
        e 159 80 3e 1e
        e 117 90 3e 56
        e 173 90 45 69
        e 18 80 3e 2b
        e 183 80 45 27
        e 118 90 45 62
        e 162 90 3e 63
        e 11 80 45 3d
        e 158 80 3e 2f
        e 128 90 3e 53
        e 140 80 3e 1f
        e 45 90 47 62
        e 137 90 48 52
        e 9 80 47 41
        e 157 90 47 5f
        e 7 80 48 3a
        e 125 80 47 35
        e 36 90 45 63
        e 158 90 47 61
        e 2 80 45 24
        e 148 90 45 5e
        e 4 80 47 30
        e 155 80 45 41
        e 11 90 43 67
        e 405 80 43 39
        e 110 90 43 6b
        e 124 80 43 52
        e 2 90 40 5f
        e 179 90 43 67
        e 19 80 40 01
        e 119 80 43 45
        e 34 90 48 65
        e 387 80 48 26
        e 78 90 48 62
        e 415 80 48 1e
        e 71 90 4a 64
        e 416 80 4a 43
        e 65 90 4a 66
        e 263 80 4a 42
        e 81 90 4a 55
        e 119 80 4a 43
        e 28 90 4c 65
        e 283 80 4c 2c
        e 8 90 4a 57
        e 134 80 4a 25
        e 29 90 48 5e
        e 268 80 48 35
        e 30 90 4a 53
        e 147 80 4a 2d
        e 27 90 4c 62
        e 438 80 4c 1a
        e 68 90 4d 61
        e 143 90 4c 5e
        e 26 80 4d 42
        e 131 80 4c 48
        e 3 90 4a 57
        e 134 80 4a 0f
        e 48 90 4c 67
        e 464 80 4c 24
        e 26 90 48 5e
        e 448 80 48 01
        e 15 90 4a 5f
        e 483 90 47 64
        e 6 80 4a 3d
        e 202 80 47 25
        e 123 90 47 61
        e 118 80 47 22
        e 33 90 48 62
        e 1301 80 48 42
        e 147 90 43 6e
        e 130 80 43 4f
        e 0 90 40 53
        e 158 90 43 68
        e 5 80 40 27
        e 146 80 43 2f
        e 29 90 48 63
        e 404 80 48 1d
        e 76 90 48 62
        e 421 80 48 25
        e 66 90 4a 61
        e 414 80 4a 39
        e 70 90 4a 5f
        e 177 80 4a 3e
        e 67 90 4a 5e
        e 183 80 4a 2e
        e 45 90 4c 63
        e 255 80 4c 2b
        e 68 90 4a 5b
        e 133 80 4a 30
        e 26 90 48 61
        e 242 80 48 12
        e 75 90 4a 5f
        e 126 80 4a 31
        e 32 90 4c 60
        e 408 80 4c 28
        e 78 90 4d 60
        e 133 90 4c 5c
        e 26 80 4d 3a
        e 111 80 4c 2b
        e 19 90 4a 61
        e 159 80 4a 11
        e 27 90 4c 61
        e 458 80 4c 01
        e 43 90 48 63
        e 441 80 48 01
        e 26 90 4a 5e
        e 461 90 47 5f
        e 24 80 4a 2f
        e 194 80 47 32
        e 111 90 47 56
        e 129 80 47 2e
        e 31 90 48 64
        e 1303 80 48 56
        E 617 b0 7b 00
        GUID {C1E98626-9DC6-AC4C-BB04-34D07DAD3BE3}
        IGNTEMPO 0 120 4 4
        SRCCOLOR 422
        VELLANE -1 86 6
        CFGEDITVIEW 0 0 49 11 0 0 0 0 0 0.5
        KEYSNAP 0
        TRACKSEL 226
        EVTFILTER 0 -1 -1 -1 -1 0 0 0 0 -1 -1 -1 -1 0 -1 0 -1 -1
        CFGEDIT 1 0 0 0 0 0 1 0 1 1 1 0.125 0 16 1280 470 0 0 2 3 0.25 0 0 0 0 -0.44 0 0 1 64
      >
    >
    <ITEM
      POSITION 8
      SNAPOFFS 0
      LENGTH 40
      LOOP 1
      ALLTAKES 0
      FADEIN 1 0 0 1 0 0
      FADEOUT 1 0 0 1 0 0
      MUTE 0
      SEL 0
      YPOS 0.532189 0.201717
      IGUID {AEC08281-EE25-514C-A999-9ACBCE8D9D7D}
      IID 13
      NAME "trombone(s) - National_Anthems_-_Philippines.mid"
      VOLPAN 1 0 1 -1
      SOFFS 8 16
      PLAYRATE 1 1 0 -1 0 0.0025
      CHANMODE 0
      TAKECOLOR 26173599 B
      GUID {B10F6225-00E0-9049-B201-2A08D7EBFB2C}
      <SOURCE MIDI
        HASDATA 1 480 QN
        POOLEDEVTS {BDA10355-4873-F341-AC6B-2689099B169A}
        <X 0 0 0 0 3 trombone(s)
          /wN0cm9tYm9uZShzKQ==
        >
        <X 0 0 0 0 4 "Sound Canvas"
          /wRTb3VuZCBDYW52YXM=
        >
        e 0 92 37 7f
        e 240 82 37 01 37
        e 240 92 32 7f -4
        e 360 82 32 01 -34
        e 120 92 37 7f -6
        e 360 82 37 01 -49
        e 120 92 2b 7f -29
        e 360 82 2b 33 -59
        e 120 92 36 7f -2
        e 240 82 36 13 49
        e 240 92 32 7f -12
        e 240 82 32 40 37
        e 240 92 37 7f -4
        e 360 82 37 01 -37
        e 120 92 2b 7f -14
        e 360 82 2b 26 -44
        e 120 92 37 7f -5
        e 360 82 37 01 -41
        e 120 92 32 7f 6
        e 240 82 32 21 48
        e 240 92 37 7f 1
        e 360 82 37 01 1
        e 120 92 2b 7f -14
        e 240 82 2b 3b 9
        e 240 92 30 7f -1
        e 360 82 30 24 -52
        e 120 92 32 7f -14
        e 240 82 32 16 46
        e 240 92 37 7f -11
        e 360 82 37 01 -54
        e 120 92 2b 7f -15
        e 360 82 2b 27 -54
        e 120 92 37 7f -5
        e 360 82 37 01 -49
        e 120 92 32 7f -30
        e 240 82 32 31 23
        e 240 92 37 7f -11
        e 240 82 37 08 45
        e 240 92 2b 7f -18
        e 240 82 2b 36 47
        e 240 92 36 7f -15
        e 240 82 36 01 23
        e 240 92 32 7f -33
        e 240 82 32 13 27
        e 240 92 37 7f -4
        e 360 82 37 18 -40
        e 120 92 2b 7f -5
        e 240 82 2b 35 47
        e 240 92 37 7f 11
        e 240 82 37 01 45
        e 240 92 32 7f 17
        e 240 82 32 20 58
        e 240 92 37 7f 10
        e 360 82 37 01 -51
        e 120 92 2b 7f 9
        e 240 82 2b 43 52
        e 240 92 30 7f 16
        e 360 82 30 01 -54
        e 120 92 32 7f -14
        e 240 82 32 1f 37
        e 240 92 37 7f -28
        e 360 82 37 01 -14
        e 120 92 2b 7f -1
        e 360 82 2b 08 19
        e 120 92 32 7f -8
        e 360 82 32 01 -31
        e 120 92 32 7f 12
        e 0 92 36 7f -1
        e 240 82 32 3c 4
        e 120 82 36 01 -57
        e 600 92 36 7f 16
        e 360 82 36 4f -54
        e 600 92 3b 7f 6
        e 0 92 3e 7f
        e 120 82 3b 42 45
        e 0 82 3e 22 36
        e 240 92 3c 7f -53
        e 0 92 40 7f -58
        e 120 82 3c 37 -71
        e 0 82 40 3d -77
        e 0 92 3b 7f 6
        e 0 92 3e 7f 3
        e 480 82 3b 51 -5
        e 0 82 3e 49 14
        e 960 92 32 7f -9
        e 0 92 36 7f -19
        e 240 82 36 3c 57
        e 120 82 32 44 -50
        e 600 92 32 7f 20
        e 0 92 36 7f 11
        e 240 82 32 36 54
        e 0 82 36 2f 55
        e 240 92 32 7f -6
        e 240 82 32 05 14
        e 240 92 32 7f -11
        e 240 82 32 39 32
        e 240 92 2b 7f -28
        e 360 82 2b 03 -47
        e 120 92 2b 7f -2
        e 240 82 2b 26 -1
        e 240 92 32 7f -8
        e 240 82 32 3d 41
        e 240 92 32 7f -2
        e 0 92 36 7f -6
        e 240 82 32 1b -42
        e 0 82 36 17 -3
        e 720 92 32 7f 1
        e 0 92 36 7f -3
        e 240 82 32 3f 21
        e 0 82 36 48 23
        e 720 92 37 7f 18
        e 0 92 3b 7f 12
        e 0 92 3e 7f 17
        e 120 82 3b 43 40
        e 0 82 3e 30 35
        e 120 82 37 01 -52
        e 120 92 3c 7f -46
        e 0 92 40 7f -43
        e 120 82 3c 3a -41
        e 0 82 40 2e -75
        e 0 92 3b 7f -11
        e 0 92 3e 7f -11
        e 480 82 3b 49 -56
        e 0 82 3e 38 -42
        e 960 92 32 7f -11
        e 0 92 36 7f -15
        e 240 82 32 30 -8
        e 0 82 36 25 -23
        e 720 92 32 7f -21
        e 0 92 36 7f -27
        e 240 82 32 24 -51
        e 0 82 36 33 -55
        e 240 92 32 7f -20
        e 240 82 32 26 -10
        e 240 92 32 7f -31
        e 240 82 32 01 25
        e 240 92 2b 7f -20
        e 240 82 2b 47 24
        e 240 92 37 7f -10
        e 120 82 37 33 44
        e 0 92 34 7f 32
        e 120 82 34 47 58
        e 120 92 37 7f -55
        e 120 82 37 41 -105
        e 0 92 3c 7f 21
        e 360 82 3c 12 13
        e 120 92 34 7f 37
        e 360 82 34 01 53
        e 120 92 37 7f 3
        e 360 82 37 01 12
        e 120 92 3b 7f -19
        e 360 82 3b 2b -11
        e 120 92 3c 7f
        e 240 82 3c 0a -47
        e 120 92 37 7f -46
        e 120 82 37 46 -3
        e 0 92 3c 7f -7
        e 240 82 3c 01 -46
        e 120 92 3e 7f -58
        e 120 82 3e 1c -51
        e 0 92 40 7f -28
        e 360 82 40 26 -32
        e 120 92 3e 7f -5
        e 120 82 3e 1f 25
        e 0 92 3c 7f 24
        e 120 82 3c 45 48
        e 0 92 3e 7f 58
        e 240 82 3e 27 -41
        e 0 92 3c 7f -17
        e 360 82 3c 03 -24
        e 120 92 37 7f -3
        e 360 82 37 02 53
        e 120 92 2b 7f -9
        e 360 82 2b 10 16
        e 120 92 37 7f -30
        e 120 82 37 20 5
        e 240 92 37 7f -48
        e 120 82 37 1d 10
        e 0 92 30 7f -7
        e 360 82 30 2f 9
        e 120 92 37 7f -16
        e 120 82 37 20 23
        e 0 92 34 7f 11
        e 120 82 34 33 43
        e 0 92 37 7f 37
        e 240 82 37 23 -11
        e 0 92 30 7f -13
        e 360 82 30 20 -43
        e 120 92 37 7f -15
        e 120 82 37 1d 31
        e 0 92 34 7f 16
        e 120 82 34 39 23
        e 0 92 37 7f 48
        e 120 82 37 0d 51
        e 120 92 3c 7f -10
        e 360 82 3c 01 -37
        e 120 92 34 7f
        e 240 82 34 34 16
        e 240 92 37 7f -13
        e 360 82 37 07 1
        e 120 92 3b 7f -16
        e 360 82 3b 16 1
        e 120 92 3c 7f -9
        e 240 82 3c 2d -26
        e 120 92 3e 7f -43
        e 120 82 3e 22 -26
        e 0 92 3c 7f -19
        e 240 82 3c 2a -33
        e 120 92 3e 7f -48
        e 120 82 3e 13 -33
        e 0 92 40 7f -12
        e 360 82 40 2f 8
        e 120 92 3e 7f 6
        e 120 82 3e 23 42
        e 0 92 3c 7f 29
        e 120 82 3c 45 53
        e 0 92 3e 7f 57
        e 240 82 3e 30 -36
        e 0 92 3c 7f -5
        e 360 82 3c 07 -3
        e 120 92 37 7f -7
        e 360 82 37 21 11
        e 120 92 37 7f 23
        e 360 82 37 01 26
        e 120 92 2b 7f -13
        e 360 82 2b 01 -39
        e 120 92 30 7f -9
        e 360 82 30 01 -4
        e 120 92 37 7f -6
        e 120 82 37 1f 5
        e 0 92 34 7f 16
        e 120 92 37 7f 59
        e 120 82 34 43 -60
        e 120 82 37 09 -43
        e 0 92 30 7f -19
        e 480 82 30 5d -15
        E 480 b0 7b 00
        GUID {36FEA59B-516A-2444-812D-AABC3DF8BDE0}
        IGNTEMPO 0 120 4 4
        SRCCOLOR 423
        VELLANE -1 86 6
        CFGEDITVIEW 0 0 62 8 0 0 0 0 0 0.5
        KEYSNAP 0
        TRACKSEL 226
        EVTFILTER 0 -1 -1 -1 -1 0 0 0 0 -1 -1 -1 -1 0 -1 0 -1 -1
        CFGEDIT 1 0 0 0 0 0 1 0 1 1 1 0.125 16 32 1280 470 0 0 2 3 0.25 0 0 0 0 -0.44 0 0 1 64
      >
      TAKE
      NAME "trombone(s) - National_Anthems_-_Philippines.mid"
      TAKEVOLPAN 0 1 -1
      SOFFS 8 16
      PLAYRATE 1 1 0 -1 0 0.0025
      CHANMODE 0
      GUID {88B52544-D050-174F-B09D-CD3862035479}
      <SOURCE MIDI
        HASDATA 1 480 QN
        POOLEDEVTS {3370DB13-6F55-0D42-87B0-10C77D3A7CEB}
        <X 0 0 0 0 3 trombone(s)
          /wN0cm9tYm9uZShzKQ==
        >
        <X 0 0 0 0 4 "Sound Canvas"
          /wRTb3VuZCBDYW52YXM=
        >
        E 0 92 37 52
        E 277 82 37 01
        E 199 92 32 59
        E 330 82 32 01
        E 148 92 37 54
        E 317 82 37 01
        E 140 92 2b 5c
        E 330 82 2b 33
        E 177 92 36 5f
        E 291 82 36 13
        E 179 92 32 59
        E 289 82 32 40
        E 199 92 37 51
        E 327 82 37 01
        E 143 92 2b 53
        E 330 82 2b 26
        E 159 92 37 52
        E 324 82 37 01
        E 167 92 32 50
        E 282 82 32 21
        E 193 92 37 4f
        E 360 82 37 01
        E 105 92 2b 60
        E 263 82 2b 3b
        E 230 92 30 57
        E 309 82 30 24
        E 158 92 32 59
        E 300 82 32 16
        E 183 92 37 59
        E 317 82 37 01
        E 159 92 2b 62
        E 321 82 2b 27
        E 169 92 37 59
        E 316 82 37 01
        E 139 92 32 56
        E 293 82 32 31
        E 206 92 37 59
        E 296 82 37 08
        E 177 92 2b 5f
        E 305 82 2b 36
        E 178 92 36 5d
        E 278 82 36 01
        E 184 92 32 5b
        E 300 82 32 13
        E 209 92 37 52
        E 324 82 37 18
        E 155 92 2b 5f
        E 292 82 2b 35
        E 204 92 37 57
        E 274 82 37 01
        E 212 92 32 53
        E 281 82 32 20
        E 192 92 37 53
        E 299 82 37 01
        E 180 92 2b 54
        E 283 82 2b 43
        E 204 92 30 58
        E 290 82 30 01
        E 160 92 32 5a
        E 291 82 32 1f
        E 175 92 37 4f
        E 374 82 37 01
        E 133 92 2b 53
        E 380 82 2b 08
        E 93 92 32 51
        E 337 82 32 01
        E 150 92 36 4a
        E 13 92 32 45
        E 232 82 32 3c
        E 59 82 36 01
        E 673 92 36 4c
        E 290 82 36 4f
        E 654 92 3e 53
        E 6 92 3b 51
        E 150 82 3e 22
        E 9 82 3b 42
        E 137 92 40 4c
        E 5 92 3c 58
        E 96 82 40 3d
        E 6 82 3c 37
        E 74 92 3e 48
        E 3 92 3b 44
        E 469 82 3b 51
        E 19 82 3e 49
        E 927 92 36 49
        E 10 92 32 41
        E 306 82 36 3c
        E 13 82 32 44
        E 661 92 36 4f
        E 9 92 32 3e
        E 274 82 32 36
        E 1 82 36 2f
        E 179 92 32 4a
        E 260 82 32 05
        E 215 92 32 51
        E 283 82 32 39
        E 180 92 2b 56
        E 341 82 2b 03
        E 165 92 2b 4b
        E 241 82 2b 26
        E 233 92 32 47
        E 289 82 32 3d
        E 193 92 36 4a
        E 4 92 32 4d
        E 200 82 32 1b
        E 39 82 36 17
        E 720 92 36 48
        E 4 92 32 43
        E 260 82 32 3f
        E 2 82 36 48
        E 709 92 3b 4c
        E 5 92 3e 25
        E 1 92 37 41
        E 137 82 3e 30
        E 5 82 3b 43
        E 28 82 37 01
        E 126 92 3c 4b
        E 3 92 40 27
        E 88 82 40 2e
        E 34 82 3c 3a
        E 30 92 3e 50
        E 0 92 3b 50
        E 435 82 3b 49
        E 14 82 3e 38
        E 987 92 36 44
        E 4 92 32 53
        E 228 82 36 25
        E 15 82 32 30
        E 701 92 36 3e
        E 6 92 32 51
        E 206 82 36 33
        E 4 82 32 24
        E 271 92 32 55
        E 250 82 32 26
        E 219 92 32 57
        E 296 82 32 01
        E 195 92 2b 57
        E 284 82 2b 47
        E 206 92 37 5d
        E 162 92 34 5f
        E 12 82 37 33
        E 134 82 34 47
        E 7 92 37 54
        E 70 82 37 41
        E 126 92 3c 5f
        E 352 82 3c 12
        E 144 92 34 64
        E 376 82 34 01
        E 70 92 37 57
        E 369 82 37 01
        E 89 92 3b 53
        E 368 82 3b 2b
        E 131 92 3c 64
        E 193 82 3c 0a
        E 121 92 37 55
        E 159 92 3c 61
        E 4 82 37 46
        E 197 82 3c 01
        E 108 92 3e 5a
        E 127 82 3e 1c
        E 23 92 40 5b
        E 356 82 40 26
        E 147 92 3e 5f
        E 149 92 3c 53
        E 1 82 3e 1f
        E 143 82 3c 45
        E 10 92 3e 5c
        E 141 82 3e 27
        E 24 92 3c 5c
        E 353 82 3c 03
        E 141 92 37 57
        E 416 82 37 02
        E 58 92 2b 5e
        E 385 82 2b 10
        E 74 92 37 5b
        E 155 82 37 20
        E 187 92 37 4e
        E 161 92 30 53
        E 17 82 37 1d
        E 359 82 30 2f
        E 95 92 37 56
        E 147 92 34 59
        E 12 82 37 20
        E 134 92 37 51
        E 6 82 34 33
        E 184 92 30 52
        E 2 82 37 23
        E 328 82 30 20
        E 148 92 37 5c
        E 151 92 34 57
        E 15 82 37 1d
        E 112 82 34 39
        E 25 92 37 50
        E 123 82 37 0d
        E 59 92 3c 51
        E 333 82 3c 01
        E 157 92 34 65
        E 256 82 34 34
        E 211 92 37 58
        E 374 82 37 07
        E 103 92 3b 5c
        E 377 82 3b 16
        E 110 92 3c 5a
        E 223 82 3c 2d
        E 103 92 3e 5a
        E 137 82 3e 22
        E 7 92 3c 5b
        E 226 82 3c 2a
        E 105 92 3e 5b
        E 135 82 3e 13
        E 21 92 40 58
        E 380 82 40 2f
        E 118 92 3e 57
        E 143 92 3c 57
        E 13 82 3e 23
        E 131 82 3c 45
        E 4 92 3e 58
        E 147 82 3e 30
        E 31 92 3c 5c
        E 362 82 3c 07
        E 116 92 37 59
        E 378 82 37 21
        E 132 92 37 54
        E 363 82 37 01
        E 81 92 2b 60
        E 334 82 2b 01
        E 150 92 30 57
        E 365 82 30 01
        E 118 92 37 5d
        E 131 82 37 1f
        E 11 92 34 60
        E 163 92 37 51
        E 1 82 34 43
        E 137 82 37 09
        E 24 92 30 5d
        E 484 82 30 5d
        E 495 b0 7b 00
        GUID {1B3B1754-A5A3-0140-AB97-B851EE7B17CD}
        IGNTEMPO 0 120 4 4
        SRCCOLOR 424
      >
    >
    <ITEM
      POSITION 48
      SNAPOFFS 0
      LENGTH 16.5
      LOOP 1
      ALLTAKES 0
      FADEIN 1 0 0 1 0 0
      FADEOUT 1 0 0 1 0 0
      MUTE 0
      SEL 0
      YPOS 0.266094 0.201717
      IGUID {C5828C95-9867-D84E-B47E-993FC9CCAF71}
      IID 19
      NAME "trumpet(s) - National_Anthems_-_Philippines.mid"
      VOLPAN 1 0 1 -1
      SOFFS 48 96
      PLAYRATE 1 1 0 -1 0 0.0025
      CHANMODE 0
      TAKECOLOR 26173599 B
      GUID {D140F7EC-10CC-5F48-8F68-5E6E35F0138B}
      <SOURCE MIDI
        HASDATA 1 480 QN
        POOLEDEVTS {07F59EF3-0FF9-004B-B9F2-EA863D6ABC57}
        <X 0 0 0 0 3 trumpet(s)
          /wN0cnVtcGV0KHMp
        >
        <X 0 0 0 0 4 "Sound Canvas"
          /wRTb3VuZCBDYW52YXM=
        >
        e 0 90 43 7f
        e 400 80 43 1b 22
        e 80 90 42 7f 2
        e 240 80 42 0b -9
        e 80 90 45 7f 21
        e 160 80 45 26 -22
        e 0 90 43 7f 8
        e 480 80 43 37 -18
        e 0 90 3e 7f 27
        e 400 80 3e 36 -36
        e 80 90 45 7f 8
        e 160 80 45 36 18
        e 0 90 47 7f -8
        e 160 80 47 47 -33
        e 0 90 48 7f -27
        e 80 80 48 28 30
        e 80 90 47 7f
        e 240 80 47 2f -30
        e 80 90 45 7f 7
        e 80 80 45 1b 33
        e 80 90 47 7f
        e 480 80 47 29 24
        e 0 90 43 7f 16
        e 320 80 43 16 33
        e 160 90 43 7f 31
        e 480 80 43 1f
        e 0 90 42 7f 18
        e 240 80 42 1e 25
        e 80 90 45 7f 21
        e 160 80 45 28 -5
        e 0 90 43 7f
        e 480 80 43 39 1
        e 0 90 3e 7f 2
        e 400 80 3e 01 -5
        e 80 90 45 7f
        e 160 80 45 12 11
        e 0 90 47 7f -14
        e 160 80 47 41 -12
        e 0 90 48 7f -3
        e 160 80 48 31 11
        e 0 90 47 7f -1
        e 240 80 47 22 1
        e 80 90 45 7f -5
        e 160 80 45 30 -13
        e 0 90 43 7f -5
        e 640 80 43 3e 6
        e 320 90 43 7f -15
        e 400 80 43 1a 12
        e 80 90 42 7f -18
        e 160 80 42 25 37
        e 160 90 45 7f -15
        e 160 80 45 32 -31
        e 0 90 43 7f 1
        e 480 80 43 48 -9
        e 0 90 3e 7f -6
        e 320 80 3e 10 24
        e 160 90 45 7f -6
        e 160 80 45 32 21
        e 0 90 47 7f -8
        e 160 80 47 46 -26
        e 0 90 48 7f -23
        e 160 80 48 38 -13
        e 0 90 47 7f -12
        e 160 80 47 23 20
        e 160 90 45 7f -12
        e 160 80 45 07 -19
        e 0 90 47 7f -2
        e 480 80 47 41 -10
        e 0 90 43 7f -9
        e 320 80 43 39 -12
        e 160 90 43 7f -3
        e 400 80 43 13 14
        e 80 90 42 7f -3
        e 240 80 42 2c -4
        e 80 90 45 7f 14
        e 160 80 45 33 6
        e 0 90 43 7f 17
        e 480 80 43 48 3
        e 0 90 3e 7f 9
        e 320 80 3e 01 37
        e 160 90 45 7f -20
        e 160 80 45 11 -8
        e 0 90 47 7f -35
        e 80 80 47 42 35
        e 80 90 48 7f -36
        e 160 80 48 24 -12
        e 0 90 47 7f -21
        e 240 80 47 0d -12
        e 80 90 45 7f -19
        e 160 80 45 2b -32
        e 0 90 43 7f -7
        e 320 80 43 43 16
        e 160 90 43 7f -2
        e 160 80 43 3e 5
        e 0 90 42 7f -5
        e 160 80 42 2c -29
        e 0 90 43 7f -18
        e 160 80 43 3d -24
        e 0 90 45 7f 1
        e 240 80 45 34 -23
        e 80 90 45 7f -3
        e 160 80 45 36 -2
        e 0 90 3e 7f 9
        e 240 80 3e 24 -8
        e 80 90 3e 7f -4
        e 160 80 3e 29 -6
        e 0 90 45 7f 9
        e 240 80 45 2b -5
        e 80 90 45 7f 7
        e 160 80 45 3c 26
        e 0 90 3e 7f 14
        e 240 80 3e 0e -20
        e 80 90 3e 7f -2
        e 160 80 3e 16 -8
        e 0 90 47 7f 25
        e 240 80 47 2b 14
        e 80 90 48 7f -3
        e 160 80 48 3e -14
        e 0 90 4a 7f 10
        e 240 80 4a 34 -21
        e 80 90 4c 7f -19
        e 160 80 4c 34 -23
        e 0 90 4a 7f -5
        e 400 80 4a 41 -17
        e 80 90 43 7f -13
        e 160 80 43 46 -38
        e 0 90 42 7f -11
        e 160 80 42 41 -37
        e 0 90 43 7f -29
        e 160 80 43 40 -35
        e 0 90 45 7f -17
        e 160 80 45 2c -6
        e 160 90 45 7f -20
        e 160 80 45 3d 5
        e 0 90 3e 7f -5
        e 240 80 3e 34 -36
        e 80 90 3e 7f -17
        e 160 80 3e 1d -32
        e 0 90 45 7f 3
        e 160 80 45 2c 9
        e 160 90 45 7f -11
        e 160 80 45 3e 10
        e 0 90 3e 7f 21
        e 240 80 3e 32 -32
        e 80 90 3e 7f -7
        e 160 80 3e 2f -38
        e 0 90 47 7f 16
        e 160 80 47 3e -8
        e 0 90 48 7f -6
        e 160 80 48 41 -20
        e 0 90 47 7f -16
        e 80 80 47 39 8
        e 80 90 45 7f -15
        e 160 80 45 1a -5
        e 0 90 47 7f -21
        e 160 80 47 37 -36
        e 0 90 45 7f -31
        e 80 80 45 28 6
        e 80 90 43 7f -18
        e 400 80 43 3d -33
        e 80 90 43 7f 6
        e 160 80 43 3b 8
        e 0 90 42 7f 5
        e 160 80 42 40 -19
        e 0 90 43 7f -17
        e 160 80 43 3f -18
        e 0 90 45 7f -6
        e 160 80 45 2a 17
        e 160 90 45 7f -16
        e 160 80 45 2b 10
        e 0 90 3e 7f 7
        e 160 80 3e 22 17
        e 160 90 3e 7f -22
        e 160 80 3e 21 -3
        e 0 90 45 7f -5
        e 160 80 45 23 3
        e 160 90 45 7f -12
        e 160 80 45 3b 8
        e 0 90 3e 7f 14
        e 160 80 3e 19 24
        e 160 90 3e 7f -27
        e 160 80 3e 14 -26
        e 0 90 47 7f 2
        e 240 80 47 3c 38
        e 80 90 48 7f -12
        e 160 80 48 33 -38
        e 0 90 4a 7f 4
        e 240 80 4a 1b -6
        e 80 90 4c 7f -13
        e 80 80 4c 2f 28
        e 80 90 4a 7f
        e 400 80 4a 38 -28
        e 80 90 43 7f -11
        e 160 80 43 35 -5
        e 0 90 42 7f 3
        e 160 80 42 43 -29
        e 0 90 43 7f -30
        e 160 80 43 44 -38
        e 0 90 45 7f -18
        e 160 80 45 37 -7
        e 160 90 45 7f -16
        e 160 80 45 2d 14
        e 0 90 3e 7f -12
        e 160 80 3e 1e 13
        e 160 90 3e 7f -30
        e 160 80 3e 2b 1
        e 0 90 45 7f -17
        e 160 80 45 27 24
        e 160 90 45 7f -18
        e 160 80 45 3d -5
        e 0 90 3e 7f -16
        e 160 80 3e 2f -7
        e 160 90 3e 7f -39
        e 80 80 3e 1f 21
        e 80 90 47 7f -14
        e 160 80 47 41 -28
        e 0 90 48 7f -37
        e 160 80 48 3a -24
        e 0 90 47 7f -31
        e 80 80 47 35 21
        e 80 90 45 7f -23
        e 160 80 45 24 -23
        e 0 90 47 7f -25
        e 160 80 47 30 -31
        e 0 90 45 7f -35
        e 160 80 45 41 -36
        e 0 90 43 7f -25
        e 400 80 43 39 -20
        e 80 90 43 7f 10
        e 160 80 43 52 -26
        e 0 90 40 7f -24
        e 160 80 40 01 14
        e 0 90 43 7f -5
        e 160 80 43 45 -27
        e 0 90 48 7f 7
        e 400 80 48 26 -6
        e 80 90 48 7f -8
        e 400 80 48 1e 7
        e 80 90 4a 7f -2
        e 400 80 4a 43 14
        e 80 90 4a 7f -1
        e 240 80 4a 42 22
        e 80 90 4a 7f 23
        e 160 80 4a 43 -18
        e 0 90 4c 7f 10
        e 320 80 4c 2c -27
        e 0 90 4a 7f -19
        e 80 80 4a 25 35
        e 80 90 48 7f -16
        e 240 80 48 35 12
        e 80 90 4a 7f -38
        e 80 80 4a 2d 29
        e 80 90 4c 7f -24
        e 400 80 4c 1a 14
        e 80 90 4d 7f 2
        e 160 80 4d 42 11
        e 0 90 4c 7f -15
        e 160 80 4c 48 -18
        e 0 90 4a 7f -15
        e 80 80 4a 0f 39
        e 80 90 4c 7f 7
        e 480 80 4c 24 -9
        e 0 90 48 7f 17
        e 480 80 48 01 -15
        e 0 90 4a 7f
        e 480 80 4a 3d 9
        e 0 90 47 7f 3
        e 240 80 47 25 -29
        e 80 90 47 7f 14
        e 160 80 47 22 -28
        e 0 90 48 7f 5
        e 1280 80 48 42 26
        e 160 90 43 7f 13
        e 160 80 43 4f -17
        e 0 90 40 7f -17
        e 160 80 40 27 -14
        e 0 90 43 7f -19
        e 160 80 43 2f -28
        e 0 90 48 7f 1
        e 400 80 48 1d 5
        e 80 90 48 7f 1
        e 400 80 48 25 22
        e 80 90 4a 7f 8
        e 400 80 4a 39 22
        e 80 90 4a 7f 12
        e 160 80 4a 3e 29
        e 80 90 4a 7f 16
        e 160 80 4a 2e 39
        e 80 90 4c 7f 4
        e 240 80 4c 2b 19
        e 80 90 4a 7f 7
        e 160 80 4a 30 -20
        e 0 90 48 7f 6
        e 240 80 48 12 8
        e 80 90 4a 7f 3
        e 160 80 4a 31 -31
        e 0 90 4c 7f 1
        e 400 80 4c 28 9
        e 80 90 4d 7f 7
        e 160 80 4d 3a 6
        e 0 90 4c 7f -20
        e 80 80 4c 2b 37
        e 80 90 4a 7f -24
        e 160 80 4a 11 -25
        e 0 90 4c 7f 2
        e 480 80 4c 01 -20
        e 0 90 48 7f 23
        e 480 80 48 01 -16
        e 0 90 4a 7f 10
        e 480 80 4a 2f 15
        e 0 90 47 7f -9
        e 240 80 47 32 -31
        e 80 90 47 7f
        e 160 80 47 2e -31
        e 0 90 48 7f
        e 1280 80 48 56 23
        e 640 90 43 7f
        e 400 80 43 1b 22
        e 80 90 42 7f 2
        e 240 80 42 0b -9
        e 80 90 45 7f 21
        e 160 80 45 26 -22
        e 0 90 43 7f 8
        e 480 80 43 37 -18
        e 0 90 3e 7f 27
        e 400 80 3e 36 -36
        e 80 90 45 7f 8
        e 160 80 45 36 18
        e 0 90 47 7f -8
        e 160 80 47 47 -33
        e 0 90 48 7f -27
        e 80 80 48 28 30
        e 80 90 47 7f
        e 240 80 47 2f -30
        e 80 90 45 7f 7
        e 80 80 45 1b 33
        e 80 90 47 7f
        e 480 80 47 29 24
        e 0 90 43 7f 16
        e 320 80 43 16 33
        e 160 90 43 7f 31
        e 480 80 43 1f
        e 0 90 42 7f 18
        e 240 80 42 1e 25
        e 80 90 45 7f 21
        e 160 80 45 28 -5
        e 0 90 43 7f
        e 480 80 43 39 1
        e 0 90 3e 7f 2
        e 400 80 3e 01 -5
        e 80 90 45 7f
        e 160 80 45 12 11
        e 0 90 47 7f -14
        e 160 80 47 41 -12
        e 0 90 48 7f -3
        e 160 80 48 31 11
        e 0 90 47 7f -1
        e 240 80 47 22 1
        e 80 90 45 7f -5
        e 160 80 45 30 -13
        e 0 90 43 7f -5
        e 640 80 43 3e 6
        e 320 90 43 7f -15
        e 400 80 43 1a 12
        e 80 90 42 7f -18
        e 160 80 42 25 37
        e 160 90 45 7f -15
        e 160 80 45 32 -31
        e 0 90 43 7f 1
        e 480 80 43 48 -9
        e 0 90 3e 7f -6
        e 320 80 3e 10 24
        e 160 90 45 7f -6
        e 160 80 45 32 21
        e 0 90 47 7f -8
        e 160 80 47 46 -26
        e 0 90 48 7f -23
        e 160 80 48 38 -13
        e 0 90 47 7f -12
        e 160 80 47 23 20
        e 160 90 45 7f -12
        e 160 80 45 07 -19
        e 0 90 47 7f -2
        e 480 80 47 41 -10
        e 0 90 43 7f -9
        e 320 80 43 39 -12
        e 160 90 43 7f -3
        e 400 80 43 13 14
        e 80 90 42 7f -3
        e 240 80 42 2c -4
        e 80 90 45 7f 14
        e 160 80 45 33 6
        e 0 90 43 7f 17
        e 480 80 43 48 3
        e 0 90 3e 7f 9
        e 320 80 3e 01 37
        e 160 90 45 7f -20
        e 160 80 45 11 -8
        e 0 90 47 7f -35
        e 80 80 47 42 35
        e 80 90 48 7f -36
        e 160 80 48 24 -12
        e 0 90 47 7f -21
        e 240 80 47 0d -12
        e 80 90 45 7f -19
        e 160 80 45 2b -32
        e 0 90 43 7f -7
        e 1440 80 43 43 -7
        E 0 b0 7b 00
        GUID {FF1A26A0-BFEC-AB45-9E33-F18AE31466DE}
        IGNTEMPO 0 120 4 4
        SRCCOLOR 435
        VELLANE -1 86 6
        CFGEDITVIEW 0 0 54 9 0 0 0 0 0 0.5
        KEYSNAP 0
        TRACKSEL 226
        EVTFILTER 0 -1 -1 -1 -1 0 0 0 0 -1 -1 -1 -1 0 -1 0 -1 -1
        CFGEDIT 1 0 0 0 0 0 1 0 1 1 1 0.16666667 16 32 1280 470 0 0 2 3 0.25 0 0 0 0 -0.44 0 0 1 64
      >
      TAKE
      NAME "trumpet(s) - National_Anthems_-_Philippines.mid"
      TAKEVOLPAN 0 1 -1
      SOFFS 48 96
      PLAYRATE 1 1 0 -1 0 0.0025
      CHANMODE 0
      GUID {B25DF036-D65F-3349-A40B-A7EF59643EF7}
      <SOURCE MIDI
        HASDATA 1 480 QN
        POOLEDEVTS {5396EA4A-332A-2644-8A85-509C826A658A}
        <X 0 0 0 0 3 trumpet(s)
          /wN0cnVtcGV0KHMp
        >
        <X 0 0 0 0 4 "Sound Canvas"
          /wRTb3VuZCBDYW52YXM=
        >
        e 0 90 43 6d
        e 422 80 43 1b
        e 60 90 42 66
        e 229 80 42 0b
        e 110 90 45 61
        e 117 80 45 26
        e 30 90 43 6b
        e 454 80 43 37
        e 45 90 3e 64
        e 337 80 3e 36
        e 124 90 45 66
        e 144 90 47 60
        e 26 80 45 36
        e 109 80 47 47
        e 6 90 48 5a
        e 137 80 48 28
        e 50 90 47 67
        e 210 80 47 2f
        e 117 90 45 56
        e 106 80 45 1b
        e 47 90 47 60
        e 496 90 43 67
        e 8 80 47 29
        e 329 80 43 16
        e 158 90 43 68
        e 449 80 43 1f
        e 18 90 42 61
        e 247 80 42 1e
        e 76 90 45 5e
        e 134 80 45 28
        e 5 90 43 69
        e 481 80 43 39
        e 1 90 3e 5c
        e 393 80 3e 01
        e 85 90 45 64
        e 146 90 47 5e
        e 25 80 45 12
        e 137 80 47 41
        e 9 90 48 58
        e 162 90 47 67
        e 12 80 48 31
        e 230 80 47 22
        e 74 90 45 55
        e 152 80 45 30
        e 8 90 43 65
        e 651 80 43 3e
        e 299 90 43 69
        e 427 80 43 1a
        e 50 90 42 66
        e 215 80 42 25
        e 108 90 45 53
        e 144 80 45 32
        e 32 90 43 6c
        e 470 80 43 48
        e 3 90 3e 5e
        e 350 80 3e 10
        e 130 90 45 63
        e 158 90 47 5d
        e 29 80 45 32
        e 113 80 47 46
        e 3 90 48 52
        e 170 80 48 38
        e 1 90 47 63
        e 192 80 47 23
        e 128 90 45 5f
        e 153 80 45 07
        e 17 90 47 5f
        e 472 80 47 41
        e 1 90 43 62
        e 317 80 43 39
        e 169 90 43 68
        e 417 80 43 13
        e 63 90 42 62
        e 239 80 42 2c
        e 98 90 45 61
        e 152 80 45 33
        e 11 90 43 68
        e 466 80 43 48
        e 6 90 3e 59
        e 348 80 3e 01
        e 103 90 45 64
        e 145 90 47 5d
        e 27 80 45 11
        e 123 80 47 42
        e 9 90 48 52
        e 175 90 47 66
        e 9 80 48 24
        e 240 80 47 0d
        e 73 90 45 5f
        e 147 80 45 2b
        e 25 90 43 60
        e 343 80 43 43
        e 142 90 43 6a
        e 157 90 42 5e
        e 10 80 43 3e
        e 126 80 42 2c
        e 11 90 43 62
        e 154 80 43 3d
        e 25 90 45 63
        e 216 80 45 34
        e 100 90 45 60
        e 161 80 45 36
        e 11 90 3e 5d
        e 223 80 3e 24
        e 84 90 3e 58
        e 158 80 3e 29
        e 15 90 45 66
        e 226 80 45 2b
        e 92 90 45 60
        e 167 90 3e 60
        e 12 80 45 3c
        e 194 80 3e 0e
        e 98 90 3e 5b
        e 154 80 3e 16
        e 33 90 47 62
        e 229 80 47 2b
        e 63 90 48 5e
        e 149 80 48 3e
        e 24 90 4a 64
        e 209 80 4a 34
        e 82 90 4c 5d
        e 156 80 4c 34
        e 18 90 4a 60
        e 388 80 4a 41
        e 84 90 43 69
        e 135 80 43 46
        e 27 90 42 55
        e 134 80 42 41
        e 8 90 43 62
        e 154 80 43 40
        e 18 90 45 65
        e 171 80 45 2c
        e 146 90 45 5b
        e 175 90 3e 59
        e 10 80 45 3d
        e 199 80 3e 34
        e 99 90 3e 54
        e 145 80 3e 1d
        e 35 90 45 67
        e 166 80 45 2c
        e 140 90 45 5f
        e 181 80 45 3e
        e 11 90 3e 60
        e 187 80 3e 32
        e 105 90 3e 4f
        e 129 80 3e 2f
        e 54 90 47 64
        e 136 80 47 3e
        e 2 90 48 53
        e 146 80 48 41
        e 4 90 47 5c
        e 104 80 47 39
        e 57 90 45 64
        e 154 90 47 5e
        e 16 80 45 1a
        e 129 80 47 37
        e 5 90 45 5d
        e 117 80 45 28
        e 56 90 43 62
        e 385 80 43 3d
        e 119 90 43 6c
        e 159 90 42 5b
        e 3 80 43 3b
        e 133 80 42 40
        e 2 90 43 69
        e 159 80 43 3f
        e 12 90 45 63
        e 183 80 45 2a
        e 127 90 45 62
        e 183 90 3e 5e
        e 3 80 45 2b
        e 167 80 3e 22
        e 121 90 3e 58
        e 177 90 45 69
        e 2 80 3e 21
        e 166 80 45 23
        e 145 90 45 61
        e 180 80 45 3b
        e 6 90 3e 5c
        e 170 80 3e 19
        e 109 90 3e 57
        e 161 80 3e 14
        e 28 90 47 63
        e 276 80 47 3c
        e 30 90 48 5e
        e 134 80 48 33
        e 42 90 4a 65
        e 230 80 4a 1b
        e 73 90 4c 60
        e 121 80 4c 2f
        e 52 90 4a 63
        e 372 80 4a 38
        e 97 90 43 66
        e 166 80 43 35
        e 8 90 42 56
        e 127 90 43 63
        e 1 80 42 43
        e 151 80 43 44
        e 20 90 45 62
        e 171 80 45 37
        e 151 90 45 5f
        e 164 90 3e 61
        e 26 80 45 2d
        e 159 80 3e 1e
        e 117 90 3e 56
        e 173 90 45 69
        e 18 80 3e 2b
        e 183 80 45 27
        e 118 90 45 62
        e 162 90 3e 63
        e 11 80 45 3d
        e 158 80 3e 2f
        e 128 90 3e 53
        e 140 80 3e 1f
        e 45 90 47 62
        e 137 90 48 52
        e 9 80 47 41
        e 157 90 47 5f
        e 7 80 48 3a
        e 125 80 47 35
        e 36 90 45 63
        e 158 90 47 61
        e 2 80 45 24
        e 148 90 45 5e
        e 4 80 47 30
        e 155 80 45 41
        e 11 90 43 67
        e 405 80 43 39
        e 110 90 43 6b
        e 124 80 43 52
        e 2 90 40 5f
        e 179 90 43 67
        e 19 80 40 01
        e 119 80 43 45
        e 34 90 48 65
        e 387 80 48 26
        e 78 90 48 62
        e 415 80 48 1e
        e 71 90 4a 64
        e 416 80 4a 43
        e 65 90 4a 66
        e 263 80 4a 42
        e 81 90 4a 55
        e 119 80 4a 43
        e 28 90 4c 65
        e 283 80 4c 2c
        e 8 90 4a 57
        e 134 80 4a 25
        e 29 90 48 5e
        e 268 80 48 35
        e 30 90 4a 53
        e 147 80 4a 2d
        e 27 90 4c 62
        e 438 80 4c 1a
        e 68 90 4d 61
        e 143 90 4c 5e
        e 26 80 4d 42
        e 131 80 4c 48
        e 3 90 4a 57
        e 134 80 4a 0f
        e 48 90 4c 67
        e 464 80 4c 24
        e 26 90 48 5e
        e 448 80 48 01
        e 15 90 4a 5f
        e 483 90 47 64
        e 6 80 4a 3d
        e 202 80 47 25
        e 123 90 47 61
        e 118 80 47 22
        e 33 90 48 62
        e 1301 80 48 42
        e 147 90 43 6e
        e 130 80 43 4f
        e 0 90 40 53
        e 158 90 43 68
        e 5 80 40 27
        e 146 80 43 2f
        e 29 90 48 63
        e 404 80 48 1d
        e 76 90 48 62
        e 421 80 48 25
        e 66 90 4a 61
        e 414 80 4a 39
        e 70 90 4a 5f
        e 177 80 4a 3e
        e 67 90 4a 5e
        e 183 80 4a 2e
        e 45 90 4c 63
        e 255 80 4c 2b
        e 68 90 4a 5b
        e 133 80 4a 30
        e 26 90 48 61
        e 242 80 48 12
        e 75 90 4a 5f
        e 126 80 4a 31
        e 32 90 4c 60
        e 408 80 4c 28
        e 78 90 4d 60
        e 133 90 4c 5c
        e 26 80 4d 3a
        e 111 80 4c 2b
        e 19 90 4a 61
        e 159 80 4a 11
        e 27 90 4c 61
        e 458 80 4c 01
        e 43 90 48 63
        e 441 80 48 01
        e 26 90 4a 5e
        e 461 90 47 5f
        e 24 80 4a 2f
        e 194 80 47 32
        e 111 90 47 56
        e 129 80 47 2e
        e 31 90 48 64
        e 1303 80 48 56
        e 617 90 43 6d
        e 422 80 43 1b
        e 60 90 42 66
        e 229 80 42 0b
        e 110 90 45 61
        e 117 80 45 26
        e 30 90 43 6b
        e 454 80 43 37
        e 45 90 3e 64
        e 337 80 3e 36
        e 124 90 45 66
        e 144 90 47 60
        e 26 80 45 36
        e 109 80 47 47
        e 6 90 48 5a
        e 137 80 48 28
        e 50 90 47 67
        e 210 80 47 2f
        e 117 90 45 56
        e 106 80 45 1b
        e 47 90 47 60
        e 496 90 43 67
        e 8 80 47 29
        e 329 80 43 16
        e 158 90 43 68
        e 449 80 43 1f
        e 18 90 42 61
        e 247 80 42 1e
        e 76 90 45 5e
        e 134 80 45 28
        e 5 90 43 69
        e 481 80 43 39
        e 1 90 3e 5c
        e 393 80 3e 01
        e 85 90 45 64
        e 146 90 47 5e
        e 25 80 45 12
        e 137 80 47 41
        e 9 90 48 58
        e 162 90 47 67
        e 12 80 48 31
        e 230 80 47 22
        e 74 90 45 55
        e 152 80 45 30
        e 8 90 43 65
        e 651 80 43 3e
        e 299 90 43 69
        e 427 80 43 1a
        e 50 90 42 66
        e 215 80 42 25
        e 108 90 45 53
        e 144 80 45 32
        e 32 90 43 6c
        e 470 80 43 48
        e 3 90 3e 5e
        e 350 80 3e 10
        e 130 90 45 63
        e 158 90 47 5d
        e 29 80 45 32
        e 113 80 47 46
        e 3 90 48 52
        e 170 80 48 38
        e 1 90 47 63
        e 192 80 47 23
        e 128 90 45 5f
        e 153 80 45 07
        e 17 90 47 5f
        e 472 80 47 41
        e 1 90 43 62
        e 317 80 43 39
        e 169 90 43 68
        e 417 80 43 13
        e 63 90 42 62
        e 239 80 42 2c
        e 98 90 45 61
        e 152 80 45 33
        e 11 90 43 68
        e 466 80 43 48
        e 6 90 3e 59
        e 348 80 3e 01
        e 103 90 45 64
        e 145 90 47 5d
        e 27 80 45 11
        e 123 80 47 42
        e 9 90 48 52
        e 175 90 47 66
        e 9 80 48 24
        e 240 80 47 0d
        e 73 90 45 5f
        e 147 80 45 2b
        e 25 90 43 60
        e 1440 80 43 43
        E 7 b0 7b 00
        GUID {91F52D32-2CD5-FF48-A2EB-58ED586D8868}
        IGNTEMPO 0 120 4 4
        SRCCOLOR 436
        VELLANE -1 86 6
        CFGEDITVIEW 0 0 49 11 0 0 0 0 0 0.5
        KEYSNAP 0
        TRACKSEL 226
        EVTFILTER 0 -1 -1 -1 -1 0 0 0 0 -1 -1 -1 -1 0 -1 0 -1 -1
        CFGEDIT 1 0 0 0 0 0 1 0 1 1 1 0.125 0 16 1280 470 0 0 2 3 0.25 0 0 0 0 -0.44 0 0 1 64
      >
    >
    <ITEM
      POSITION 48
      SNAPOFFS 0
      LENGTH 16.5
      LOOP 1
      ALLTAKES 0
      FADEIN 1 0 0 1 0 0
      FADEOUT 1 0 0 1 0 0
      MUTE 0
      SEL 0
      YPOS 0.532189 0.201717
      IGUID {4C055FDA-EAEC-5248-A03A-A4B1703D2A92}
      IID 20
      NAME "trombone(s) - National_Anthems_-_Philippines.mid"
      VOLPAN 1 0 1 -1
      SOFFS 48 96
      PLAYRATE 1 1 0 -1 0 0.0025
      CHANMODE 0
      TAKECOLOR 26173599 B
      GUID {F43FFA16-85F4-2144-9835-2D0F386B327D}
      <SOURCE MIDI
        HASDATA 1 480 QN
        POOLEDEVTS {70B4FA4C-CCE8-7E40-A275-E1299914200E}
        <X 0 0 0 0 3 trombone(s)
          /wN0cm9tYm9uZShzKQ==
        >
        <X 0 0 0 0 4 "Sound Canvas"
          /wRTb3VuZCBDYW52YXM=
        >
        e 0 92 37 7f
        e 240 82 37 01 37
        e 240 92 32 7f -4
        e 360 82 32 01 -34
        e 120 92 37 7f -6
        e 360 82 37 01 -49
        e 120 92 2b 7f -29
        e 360 82 2b 33 -59
        e 120 92 36 7f -2
        e 240 82 36 13 49
        e 240 92 32 7f -12
        e 240 82 32 40 37
        e 240 92 37 7f -4
        e 360 82 37 01 -37
        e 120 92 2b 7f -14
        e 360 82 2b 26 -44
        e 120 92 37 7f -5
        e 360 82 37 01 -41
        e 120 92 32 7f 6
        e 240 82 32 21 48
        e 240 92 37 7f 1
        e 360 82 37 01 1
        e 120 92 2b 7f -14
        e 240 82 2b 3b 9
        e 240 92 30 7f -1
        e 360 82 30 24 -52
        e 120 92 32 7f -14
        e 240 82 32 16 46
        e 240 92 37 7f -11
        e 360 82 37 01 -54
        e 120 92 2b 7f -15
        e 360 82 2b 27 -54
        e 120 92 37 7f -5
        e 360 82 37 01 -49
        e 120 92 32 7f -30
        e 240 82 32 31 23
        e 240 92 37 7f -11
        e 240 82 37 08 45
        e 240 92 2b 7f -18
        e 240 82 2b 36 47
        e 240 92 36 7f -15
        e 240 82 36 01 23
        e 240 92 32 7f -33
        e 240 82 32 13 27
        e 240 92 37 7f -4
        e 360 82 37 18 -40
        e 120 92 2b 7f -5
        e 240 82 2b 35 47
        e 240 92 37 7f 11
        e 240 82 37 01 45
        e 240 92 32 7f 17
        e 240 82 32 20 58
        e 240 92 37 7f 10
        e 360 82 37 01 -51
        e 120 92 2b 7f 9
        e 240 82 2b 43 52
        e 240 92 30 7f 16
        e 360 82 30 01 -54
        e 120 92 32 7f -14
        e 240 82 32 1f 37
        e 240 92 37 7f -28
        e 360 82 37 01 -14
        e 120 92 2b 7f -1
        e 360 82 2b 08 19
        e 120 92 32 7f -8
        e 360 82 32 01 -31
        e 120 92 32 7f 12
        e 0 92 36 7f -1
        e 240 82 32 3c 4
        e 120 82 36 01 -57
        e 600 92 36 7f 16
        e 360 82 36 4f -54
        e 600 92 3b 7f 6
        e 0 92 3e 7f
        e 120 82 3b 42 45
        e 0 82 3e 22 36
        e 240 92 3c 7f -53
        e 0 92 40 7f -58
        e 120 82 3c 37 -71
        e 0 82 40 3d -77
        e 0 92 3b 7f 6
        e 0 92 3e 7f 3
        e 480 82 3b 51 -5
        e 0 82 3e 49 14
        e 960 92 32 7f -9
        e 0 92 36 7f -19
        e 240 82 36 3c 57
        e 120 82 32 44 -50
        e 600 92 32 7f 20
        e 0 92 36 7f 11
        e 240 82 32 36 54
        e 0 82 36 2f 55
        e 240 92 32 7f -6
        e 240 82 32 05 14
        e 240 92 32 7f -11
        e 240 82 32 39 32
        e 240 92 2b 7f -28
        e 360 82 2b 03 -47
        e 120 92 2b 7f -2
        e 240 82 2b 26 -1
        e 240 92 32 7f -8
        e 240 82 32 3d 41
        e 240 92 32 7f -2
        e 0 92 36 7f -6
        e 240 82 32 1b -42
        e 0 82 36 17 -3
        e 720 92 32 7f 1
        e 0 92 36 7f -3
        e 240 82 32 3f 21
        e 0 82 36 48 23
        e 720 92 37 7f 18
        e 0 92 3b 7f 12
        e 0 92 3e 7f 17
        e 120 82 3b 43 40
        e 0 82 3e 30 35
        e 120 82 37 01 -52
        e 120 92 3c 7f -46
        e 0 92 40 7f -43
        e 120 82 3c 3a -41
        e 0 82 40 2e -75
        e 0 92 3b 7f -11
        e 0 92 3e 7f -11
        e 480 82 3b 49 -56
        e 0 82 3e 38 -42
        e 960 92 32 7f -11
        e 0 92 36 7f -15
        e 240 82 32 30 -8
        e 0 82 36 25 -23
        e 720 92 32 7f -21
        e 0 92 36 7f -27
        e 240 82 32 24 -51
        e 0 82 36 33 -55
        e 240 92 32 7f -20
        e 240 82 32 26 -10
        e 240 92 32 7f -31
        e 240 82 32 01 25
        e 240 92 2b 7f -20
        e 240 82 2b 47 24
        e 240 92 37 7f -10
        e 120 82 37 33 44
        e 0 92 34 7f 32
        e 120 82 34 47 58
        e 120 92 37 7f -55
        e 120 82 37 41 -105
        e 0 92 3c 7f 21
        e 360 82 3c 12 13
        e 120 92 34 7f 37
        e 360 82 34 01 53
        e 120 92 37 7f 3
        e 360 82 37 01 12
        e 120 92 3b 7f -19
        e 360 82 3b 2b -11
        e 120 92 3c 7f
        e 240 82 3c 0a -47
        e 120 92 37 7f -46
        e 120 82 37 46 -3
        e 0 92 3c 7f -7
        e 240 82 3c 01 -46
        e 120 92 3e 7f -58
        e 120 82 3e 1c -51
        e 0 92 40 7f -28
        e 360 82 40 26 -32
        e 120 92 3e 7f -5
        e 120 82 3e 1f 25
        e 0 92 3c 7f 24
        e 120 82 3c 45 48
        e 0 92 3e 7f 58
        e 240 82 3e 27 -41
        e 0 92 3c 7f -17
        e 360 82 3c 03 -24
        e 120 92 37 7f -3
        e 360 82 37 02 53
        e 120 92 2b 7f -9
        e 360 82 2b 10 16
        e 120 92 37 7f -30
        e 120 82 37 20 5
        e 240 92 37 7f -48
        e 120 82 37 1d 10
        e 0 92 30 7f -7
        e 360 82 30 2f 9
        e 120 92 37 7f -16
        e 120 82 37 20 23
        e 0 92 34 7f 11
        e 120 82 34 33 43
        e 0 92 37 7f 37
        e 240 82 37 23 -11
        e 0 92 30 7f -13
        e 360 82 30 20 -43
        e 120 92 37 7f -15
        e 120 82 37 1d 31
        e 0 92 34 7f 16
        e 120 82 34 39 23
        e 0 92 37 7f 48
        e 120 82 37 0d 51
        e 120 92 3c 7f -10
        e 360 82 3c 01 -37
        e 120 92 34 7f
        e 240 82 34 34 16
        e 240 92 37 7f -13
        e 360 82 37 07 1
        e 120 92 3b 7f -16
        e 360 82 3b 16 1
        e 120 92 3c 7f -9
        e 240 82 3c 2d -26
        e 120 92 3e 7f -43
        e 120 82 3e 22 -26
        e 0 92 3c 7f -19
        e 240 82 3c 2a -33
        e 120 92 3e 7f -48
        e 120 82 3e 13 -33
        e 0 92 40 7f -12
        e 360 82 40 2f 8
        e 120 92 3e 7f 6
        e 120 82 3e 23 42
        e 0 92 3c 7f 29
        e 120 82 3c 45 53
        e 0 92 3e 7f 57
        e 240 82 3e 30 -36
        e 0 92 3c 7f -5
        e 360 82 3c 07 -3
        e 120 92 37 7f -7
        e 360 82 37 21 11
        e 120 92 37 7f 23
        e 360 82 37 01 26
        e 120 92 2b 7f -13
        e 360 82 2b 01 -39
        e 120 92 30 7f -9
        e 360 82 30 01 -4
        e 120 92 37 7f -6
        e 120 82 37 1f 5
        e 0 92 34 7f 16
        e 120 92 37 7f 59
        e 120 82 34 43 -60
        e 120 82 37 09 -43
        e 0 92 30 7f -19
        e 480 82 30 5d -15
        e 480 92 37 7f
        e 240 82 37 01 37
        e 240 92 32 7f -4
        e 360 82 32 01 -34
        e 120 92 37 7f -6
        e 360 82 37 01 -49
        e 120 92 2b 7f -29
        e 360 82 2b 33 -59
        e 120 92 36 7f -2
        e 240 82 36 13 49
        e 240 92 32 7f -12
        e 240 82 32 40 37
        e 240 92 37 7f -4
        e 360 82 37 01 -37
        e 120 92 2b 7f -14
        e 360 82 2b 26 -44
        e 120 92 37 7f -5
        e 360 82 37 01 -41
        e 120 92 32 7f 6
        e 240 82 32 21 48
        e 240 92 37 7f 1
        e 360 82 37 01 1
        e 120 92 2b 7f -14
        e 240 82 2b 3b 9
        e 240 92 30 7f -1
        e 360 82 30 24 -52
        e 120 92 32 7f -14
        e 240 82 32 16 46
        e 240 92 37 7f -11
        e 360 82 37 01 -54
        e 120 92 2b 7f -15
        e 360 82 2b 27 -54
        e 120 92 37 7f -5
        e 360 82 37 01 -49
        e 120 92 32 7f -30
        e 240 82 32 31 23
        e 240 92 37 7f -11
        e 240 82 37 08 45
        e 240 92 2b 7f -18
        e 240 82 2b 36 47
        e 240 92 36 7f -15
        e 240 82 36 01 23
        e 240 92 32 7f -33
        e 240 82 32 13 27
        e 240 92 37 7f -4
        e 360 82 37 18 -40
        e 120 92 2b 7f -5
        e 240 82 2b 35 47
        e 240 92 37 7f 11
        e 240 82 37 01 45
        e 240 92 32 7f 17
        e 240 82 32 20 58
        e 240 92 37 7f 10
        e 360 82 37 01 -51
        e 120 92 2b 7f 9
        e 240 82 2b 43 52
        e 240 92 30 7f 16
        e 360 82 30 01 -54
        e 120 92 32 7f -14
        e 240 82 32 1f 37
        e 240 92 37 7f -28
        e 1440 82 37 01 -28
        E 0 b0 7b 00
        GUID {91B465D9-4EAA-D24C-95FF-820DEDAE2375}
        IGNTEMPO 0 120 4 4
        SRCCOLOR 437
        VELLANE -1 86 6
        CFGEDITVIEW 0 0 62 8 0 0 0 0 0 0.5
        KEYSNAP 0
        TRACKSEL 226
        EVTFILTER 0 -1 -1 -1 -1 0 0 0 0 -1 -1 -1 -1 0 -1 0 -1 -1
        CFGEDIT 1 0 0 0 0 0 1 0 1 1 1 0.125 16 32 1280 470 0 0 2 3 0.25 0 0 0 0 -0.44 0 0 1 64
      >
      TAKE
      NAME "trombone(s) - National_Anthems_-_Philippines.mid"
      TAKEVOLPAN 0 1 -1
      SOFFS 48 96
      PLAYRATE 1 1 0 -1 0 0.0025
      CHANMODE 0
      GUID {1C3BBE50-D09F-084E-B154-38C1CFCE17E8}
      <SOURCE MIDI
        HASDATA 1 480 QN
        POOLEDEVTS {35C35654-29AF-AB45-A1C4-2C601081FD69}
        <X 0 0 0 0 3 trombone(s)
          /wN0cm9tYm9uZShzKQ==
        >
        <X 0 0 0 0 4 "Sound Canvas"
          /wRTb3VuZCBDYW52YXM=
        >
        E 0 92 37 52
        E 277 82 37 01
        E 199 92 32 59
        E 330 82 32 01
        E 148 92 37 54
        E 317 82 37 01
        E 140 92 2b 5c
        E 330 82 2b 33
        E 177 92 36 5f
        E 291 82 36 13
        E 179 92 32 59
        E 289 82 32 40
        E 199 92 37 51
        E 327 82 37 01
        E 143 92 2b 53
        E 330 82 2b 26
        E 159 92 37 52
        E 324 82 37 01
        E 167 92 32 50
        E 282 82 32 21
        E 193 92 37 4f
        E 360 82 37 01
        E 105 92 2b 60
        E 263 82 2b 3b
        E 230 92 30 57
        E 309 82 30 24
        E 158 92 32 59
        E 300 82 32 16
        E 183 92 37 59
        E 317 82 37 01
        E 159 92 2b 62
        E 321 82 2b 27
        E 169 92 37 59
        E 316 82 37 01
        E 139 92 32 56
        E 293 82 32 31
        E 206 92 37 59
        E 296 82 37 08
        E 177 92 2b 5f
        E 305 82 2b 36
        E 178 92 36 5d
        E 278 82 36 01
        E 184 92 32 5b
        E 300 82 32 13
        E 209 92 37 52
        E 324 82 37 18
        E 155 92 2b 5f
        E 292 82 2b 35
        E 204 92 37 57
        E 274 82 37 01
        E 212 92 32 53
        E 281 82 32 20
        E 192 92 37 53
        E 299 82 37 01
        E 180 92 2b 54
        E 283 82 2b 43
        E 204 92 30 58
        E 290 82 30 01
        E 160 92 32 5a
        E 291 82 32 1f
        E 175 92 37 4f
        E 374 82 37 01
        E 133 92 2b 53
        E 380 82 2b 08
        E 93 92 32 51
        E 337 82 32 01
        E 150 92 36 4a
        E 13 92 32 45
        E 232 82 32 3c
        E 59 82 36 01
        E 673 92 36 4c
        E 290 82 36 4f
        E 654 92 3e 53
        E 6 92 3b 51
        E 150 82 3e 22
        E 9 82 3b 42
        E 137 92 40 4c
        E 5 92 3c 58
        E 96 82 40 3d
        E 6 82 3c 37
        E 74 92 3e 48
        E 3 92 3b 44
        E 469 82 3b 51
        E 19 82 3e 49
        E 927 92 36 49
        E 10 92 32 41
        E 306 82 36 3c
        E 13 82 32 44
        E 661 92 36 4f
        E 9 92 32 3e
        E 274 82 32 36
        E 1 82 36 2f
        E 179 92 32 4a
        E 260 82 32 05
        E 215 92 32 51
        E 283 82 32 39
        E 180 92 2b 56
        E 341 82 2b 03
        E 165 92 2b 4b
        E 241 82 2b 26
        E 233 92 32 47
        E 289 82 32 3d
        E 193 92 36 4a
        E 4 92 32 4d
        E 200 82 32 1b
        E 39 82 36 17
        E 720 92 36 48
        E 4 92 32 43
        E 260 82 32 3f
        E 2 82 36 48
        E 709 92 3b 4c
        E 5 92 3e 25
        E 1 92 37 41
        E 137 82 3e 30
        E 5 82 3b 43
        E 28 82 37 01
        E 126 92 3c 4b
        E 3 92 40 27
        E 88 82 40 2e
        E 34 82 3c 3a
        E 30 92 3e 50
        E 0 92 3b 50
        E 435 82 3b 49
        E 14 82 3e 38
        E 987 92 36 44
        E 4 92 32 53
        E 228 82 36 25
        E 15 82 32 30
        E 701 92 36 3e
        E 6 92 32 51
        E 206 82 36 33
        E 4 82 32 24
        E 271 92 32 55
        E 250 82 32 26
        E 219 92 32 57
        E 296 82 32 01
        E 195 92 2b 57
        E 284 82 2b 47
        E 206 92 37 5d
        E 162 92 34 5f
        E 12 82 37 33
        E 134 82 34 47
        E 7 92 37 54
        E 70 82 37 41
        E 126 92 3c 5f
        E 352 82 3c 12
        E 144 92 34 64
        E 376 82 34 01
        E 70 92 37 57
        E 369 82 37 01
        E 89 92 3b 53
        E 368 82 3b 2b
        E 131 92 3c 64
        E 193 82 3c 0a
        E 121 92 37 55
        E 159 92 3c 61
        E 4 82 37 46
        E 197 82 3c 01
        E 108 92 3e 5a
        E 127 82 3e 1c
        E 23 92 40 5b
        E 356 82 40 26
        E 147 92 3e 5f
        E 149 92 3c 53
        E 1 82 3e 1f
        E 143 82 3c 45
        E 10 92 3e 5c
        E 141 82 3e 27
        E 24 92 3c 5c
        E 353 82 3c 03
        E 141 92 37 57
        E 416 82 37 02
        E 58 92 2b 5e
        E 385 82 2b 10
        E 74 92 37 5b
        E 155 82 37 20
        E 187 92 37 4e
        E 161 92 30 53
        E 17 82 37 1d
        E 359 82 30 2f
        E 95 92 37 56
        E 147 92 34 59
        E 12 82 37 20
        E 134 92 37 51
        E 6 82 34 33
        E 184 92 30 52
        E 2 82 37 23
        E 328 82 30 20
        E 148 92 37 5c
        E 151 92 34 57
        E 15 82 37 1d
        E 112 82 34 39
        E 25 92 37 50
        E 123 82 37 0d
        E 59 92 3c 51
        E 333 82 3c 01
        E 157 92 34 65
        E 256 82 34 34
        E 211 92 37 58
        E 374 82 37 07
        E 103 92 3b 5c
        E 377 82 3b 16
        E 110 92 3c 5a
        E 223 82 3c 2d
        E 103 92 3e 5a
        E 137 82 3e 22
        E 7 92 3c 5b
        E 226 82 3c 2a
        E 105 92 3e 5b
        E 135 82 3e 13
        E 21 92 40 58
        E 380 82 40 2f
        E 118 92 3e 57
        E 143 92 3c 57
        E 13 82 3e 23
        E 131 82 3c 45
        E 4 92 3e 58
        E 147 82 3e 30
        E 31 92 3c 5c
        E 362 82 3c 07
        E 116 92 37 59
        E 378 82 37 21
        E 132 92 37 54
        E 363 82 37 01
        E 81 92 2b 60
        E 334 82 2b 01
        E 150 92 30 57
        E 365 82 30 01
        E 118 92 37 5d
        E 131 82 37 1f
        E 11 92 34 60
        E 163 92 37 51
        E 1 82 34 43
        E 137 82 37 09
        E 24 92 30 5d
        E 484 82 30 5d
        E 495 92 37 52
        E 277 82 37 01
        E 199 92 32 59
        E 330 82 32 01
        E 148 92 37 54
        E 317 82 37 01
        E 140 92 2b 5c
        E 330 82 2b 33
        E 177 92 36 5f
        E 291 82 36 13
        E 179 92 32 59
        E 289 82 32 40
        E 199 92 37 51
        E 327 82 37 01
        E 143 92 2b 53
        E 330 82 2b 26
        E 159 92 37 52
        E 324 82 37 01
        E 167 92 32 50
        E 282 82 32 21
        E 193 92 37 4f
        E 360 82 37 01
        E 105 92 2b 60
        E 263 82 2b 3b
        E 230 92 30 57
        E 309 82 30 24
        E 158 92 32 59
        E 300 82 32 16
        E 183 92 37 59
        E 317 82 37 01
        E 159 92 2b 62
        E 321 82 2b 27
        E 169 92 37 59
        E 316 82 37 01
        E 139 92 32 56
        E 293 82 32 31
        E 206 92 37 59
        E 296 82 37 08
        E 177 92 2b 5f
        E 305 82 2b 36
        E 178 92 36 5d
        E 278 82 36 01
        E 184 92 32 5b
        E 300 82 32 13
        E 209 92 37 52
        E 324 82 37 18
        E 155 92 2b 5f
        E 292 82 2b 35
        E 204 92 37 57
        E 274 82 37 01
        E 212 92 32 53
        E 281 82 32 20
        E 192 92 37 53
        E 299 82 37 01
        E 180 92 2b 54
        E 283 82 2b 43
        E 204 92 30 58
        E 290 82 30 01
        E 160 92 32 5a
        E 291 82 32 1f
        E 175 92 37 4f
        E 1440 82 37 01
        E 28 b0 7b 00
        GUID {65212B2C-C3E2-3D40-9FDD-541DE863AF0A}
        IGNTEMPO 0 120 4 4
        SRCCOLOR 438
      >
    >
  >
  <TRACK {6CCBCBB4-02B5-3C4F-AE95-8DD80AEC4A17}
    NAME "ch2,4 (send)"
    PEAKCOL 16576
    BEAT -1
    AUTOMODE 0
    VOLPAN 1 0 -1 -1 1
    MUTESOLO 0 0 0
    IPHASE 0
    ISBUS 0 0
    BUSCOMP 0 0
    SHOWINMIX 1 0.6667 0.698113 1 0.5 0 0 0
    FREEMODE 0
    SEL 0
    REC 0 0 0 0 0 0 0
    VU 2
    MIDICTL -1 1
    TRACKHEIGHT 0 0
    INQ 0 0 0 0.5 100 0 0 100
    NCHAN 2
    FX 1
    TRACKID {6CCBCBB4-02B5-3C4F-AE95-8DD80AEC4A17}
    PERF 0
    MIDIOUT -1
    MAINSEND 1 0
    <FXCHAIN
      WNDRECT 32 359 724 387
      SHOW 0
      LASTSEL 0
      DOCKED 0
    >
    <ITEM
      POSITION 0
      SNAPOFFS 0
      LENGTH 8
      LOOP 1
      ALLTAKES 0
      FADEIN 1 0 0 1 0 0
      FADEOUT 1 0 0 1 0 0
      MUTE 0
      SEL 0
      YPOS 0 0.201717
      IGUID {74A5CE54-9D3A-9747-8C23-568E72482FCC}
      IID 2
      NAME "fr. horn(s) - National_Anthems_-_Philippines.mid"
      VOLPAN 1 0 1 -1
      SOFFS 0 0
      PLAYRATE 1 1 0 -1 0 0.0025
      CHANMODE 0
      TAKECOLOR 26173599 B
      GUID {6F028919-758A-DE47-8880-D3F0813C3FC6}
      <SOURCE MIDI
        HASDATA 1 480 QN
        POOLEDEVTS {CC2B4063-93A8-F34F-BCEB-46878B5A98FA}
        <X 0 0 0 0 3 "fr. horn(s)"
          /wNmci4gaG9ybihzKQ==
        >
        <X 0 0 0 0 4 "Sound Canvas"
          /wRTb3VuZCBDYW52YXM=
        >
        e 0 91 3b 7f 4
        e 0 91 3e 7f
        e 360 81 3b 3e 35
        e 0 81 3e 1e 28
        e 120 91 3c 7f 23
        e 0 91 3e 7f 24
        e 360 81 3c 2a 8
        e 0 81 3e 30 33
        e 120 91 3b 7f 12
        e 0 91 3e 7f 3
        e 360 81 3b 28 20
        e 120 81 3e 01 -34
        e 0 91 3b 7f -14
        e 480 81 3b 12 -50
        e 0 91 3e 7f -14
        e 360 81 3e 28 5
        e 120 91 3e 7f 1
        e 0 91 42 7f -5
        e 360 81 3e 25 -6
        e 0 81 42 2f 29
        e 120 91 3e 7f 1
        e 0 91 43 7f 10
        e 360 81 3e 1f 11
        e 120 81 43 2f 1
        e 0 91 3b 7f -1
        e 0 91 3e 7f -4
        e 360 81 3b 10 -27
        e 0 81 3e 01 -26
        e 120 91 3b 7f 31
        e 0 91 3e 7f 16
        e 360 81 3e 07 4
        e 120 81 3b 25 -40
        e 0 91 3c 7f 8
        e 0 91 3e 7f 7
        e 360 81 3e 1e -31
        e 120 81 3c 2e -44
        e 0 91 3b 7f 19
        e 0 91 3e 7f 8
        e 360 81 3b 2a 21
        e 120 81 3e 09 4
        e 0 91 3b 7f
        e 360 81 3b 12 -12
        e 120 91 3c 7f -26
        e 0 91 40 7f -19
        e 240 81 40 1c 57
        e 120 81 3c 27 24
        e 120 91 3c 7f 29
        e 0 91 3e 7f 21
        e 0 91 42 7f -14
        e 360 81 3c 29 37
        e 0 81 3e 27 4
        e 120 81 42 19 -3
        e 0 91 3b 7f 15
        e 0 91 3e 7f 13
        e 720 81 3b 19 24
        e 0 81 3e 25 17
        E 240 b0 7b 00
        GUID {AD34EB20-BD3A-ED4E-8AE0-18E5B7B1E936}
        IGNTEMPO 0 120 4 4
        SRCCOLOR 399
        VELLANE -1 86 6
        CFGEDITVIEW 21701.515445 91.578285 78 8 0 0 0 0 0 0.5
        KEYSNAP 0
        TRACKSEL 226
        EVTFILTER 0 -1 -1 -1 -1 0 0 0 0 -1 -1 -1 -1 0 -1 0 -1 -1
        CFGEDIT 1 0 0 0 0 0 1 0 1 1 1 0.16666667 32 48 1280 470 0 0 2 3 0.25 0 0 0 0 -0.44 0 0 1 64
      >
      TAKE
      NAME "fr. horn(s) - National_Anthems_-_Philippines.mid"
      TAKEVOLPAN 0 1 -1
      SOFFS 0 0
      PLAYRATE 1 1 0 -1 0 0.0025
      CHANMODE 0
      GUID {F4E4D6CC-B021-9542-8C47-37139A989CC2}
      <SOURCE MIDI
        HASDATA 1 480 QN
        POOLEDEVTS {A72F1E07-79D0-B146-95E6-F0C8F198DAF5}
        <X 0 0 0 0 3 "fr. horn(s)"
          /wNmci4gaG9ybihzKQ==
        >
        <X 0 0 0 0 4 "Sound Canvas"
          /wRTb3VuZCBDYW52YXM=
        >
        E 0 91 3e 4c
        E 4 91 3b 43
        E 384 81 3e 1e
        E 7 81 3b 3e
        E 108 91 3c 4c
        E 1 91 3e 4f
        E 344 81 3c 2a
        E 25 81 3e 30
        E 90 91 3e 4c
        E 9 91 3b 4c
        E 368 81 3b 28
        E 66 81 3e 01
        E 20 91 3b 4b
        E 444 81 3b 12
        E 36 91 3e 53
        E 379 81 3e 28
        E 110 91 42 48
        E 6 91 3e 4a
        E 353 81 3e 25
        E 35 81 42 2f
        E 92 91 3e 4c
        E 9 91 43 55
        E 361 81 3e 1f
        E 105 91 3e 44
        E 3 91 3b 3c
        E 2 81 43 2f
        E 332 81 3b 10
        E 1 81 3e 01
        E 162 91 3e 47
        E 15 91 3b 18
        E 333 81 3e 07
        E 76 81 3b 25
        E 47 91 3e 42
        E 1 91 3c 40
        E 321 81 3e 1e
        E 107 81 3c 2e
        E 52 91 3e 46
        E 11 91 3b 46
        E 362 81 3b 2a
        E 99 91 3b 41
        E 4 81 3e 09
        E 344 81 3b 12
        E 106 91 3c 3f
        E 7 91 40 43
        E 316 81 40 1c
        E 87 81 3c 27
        E 82 91 42 48
        E 35 91 3e 2b
        E 8 91 3c 13
        E 335 81 3e 27
        E 33 81 3c 29
        E 80 81 42 19
        E 16 91 3e 4e
        E 2 91 3b 3e
        E 722 81 3e 25
        E 7 81 3b 19
        E 216 b0 7b 00
        GUID {0C3CA86E-0CB9-464E-8B92-14EF49F90601}
        IGNTEMPO 0 120 4 4
        SRCCOLOR 404
        VELLANE -1 86 6
        CFGEDITVIEW 26455.808656 359.461062 78 8 0 0 0 0 0 0.5
        KEYSNAP 0
        TRACKSEL 226
        EVTFILTER 0 -1 -1 -1 -1 0 0 0 0 -1 -1 -1 -1 0 -1 0 -1 -1
        CFGEDIT 1 0 0 0 0 0 1 0 1 1 1 0.16666667 32 48 1280 470 0 0 2 3 0.25 0 0 0 0 -0.44 0 0 1 64
      >
    >
    <ITEM
      POSITION 0
      SNAPOFFS 0
      LENGTH 8
      LOOP 1
      ALLTAKES 0
      FADEIN 1 0 0 1 0 0
      FADEOUT 1 0 0 1 0 0
      MUTE 0
      SEL 0
      YPOS 0.798283 0.201717
      IGUID {24DF0289-3DFE-A740-88C5-5878E60ACF4F}
      IID 4
      NAME "tuba(s) - National_Anthems_-_Philippines.mid"
      VOLPAN 1 0 1 -1
      SOFFS 0 0
      PLAYRATE 1 1 0 -1 0 0.0025
      CHANMODE 0
      TAKECOLOR 26173599 B
      GUID {E53895CB-FE58-6245-9F78-7217E8ABB3E5}
      <SOURCE MIDI
        HASDATA 1 480 QN
        POOLEDEVTS {666104F4-4962-0F4F-A050-32CB358EF4D6}
        <X 0 0 0 0 3 tuba(s)
          /wN0dWJhKHMp
        >
        <X 0 0 0 0 4 "Sound Canvas"
          /wRTb3VuZCBDYW52YXM=
        >
        e 0 93 2b 7f
        e 240 83 2b 01 1
        e 240 93 26 7f 16
        e 360 83 26 01 -41
        e 120 93 2b 7f
        e 360 83 2b 01 -10
        e 120 93 1f 7f 1
        e 360 83 1f 3c -30
        e 120 93 2a 7f 7
        e 360 83 2a 01 -17
        e 120 93 26 7f -6
        e 240 83 26 01 53
        e 240 93 2b 7f 5
        e 360 83 2b 06 11
        e 120 93 1f 7f 13
        e 360 83 1f 36 2
        e 120 93 2b 7f 21
        e 360 83 2b 02 8
        e 120 93 26 7f 1
        e 360 83 26 17 -53
        e 120 93 2b 7f -1
        e 360 83 2b 0a -12
        e 120 93 1f 7f -6
        e 240 83 1f 02 57
        e 240 93 24 7f -9
        e 360 83 24 1f 2
        e 120 93 26 7f -20
        e 360 83 26 01 15
        e 120 93 2b 7f -4
        e 360 83 2b 01 9
        e 120 93 1f 7f -3
        e 360 83 1f 35 -57
        E 120 b0 7b 00
        GUID {09141156-A67C-D44A-B2FE-05936A367AEC}
        IGNTEMPO 0 120 4 4
        SRCCOLOR 328
        VELLANE -1 86 6
        CFGEDITVIEW 21701.515445 91.578285 78 8 0 0 0 0 0 0.5
        KEYSNAP 0
        TRACKSEL 226
        EVTFILTER 0 -1 -1 -1 -1 0 0 0 0 -1 -1 -1 -1 0 -1 0 -1 -1
        CFGEDIT 1 0 0 0 0 0 1 0 1 1 1 0.16666667 32 48 1280 470 0 0 2 3 0.25 0 0 0 0 -0.44 0 0 1 64
      >
      TAKE
      NAME "tuba(s) - National_Anthems_-_Philippines.mid"
      TAKEVOLPAN 0 1 -1
      SOFFS 0 0
      PLAYRATE 1 1 0 -1 0 0.0025
      CHANMODE 0
      GUID {EEE42A72-EBDF-474A-920A-C13E321CCB02}
      <SOURCE MIDI
        HASDATA 1 480 QN
        POOLEDEVTS {15AF06B2-BC0F-7D44-B746-0D10257F8840}
        <X 0 0 0 0 3 tuba(s)
          /wN0dWJhKHMp
        >
        <X 0 0 0 0 4 "Sound Canvas"
          /wRTb3VuZCBDYW52YXM=
        >
        E 0 93 2b 5c
        E 241 83 2b 01
        E 255 93 26 62
        E 303 83 26 01
        E 161 93 2b 53
        E 350 83 2b 01
        E 131 93 1f 65
        E 329 83 1f 3c
        E 157 93 2a 5f
        E 336 83 2a 01
        E 131 93 26 62
        E 299 83 26 01
        E 192 93 2b 53
        E 366 83 2b 06
        E 122 93 1f 5e
        E 349 83 1f 36
        E 139 93 2b 52
        E 347 83 2b 02
        E 113 93 26 5d
        E 306 83 26 17
        E 172 93 2b 55
        E 349 83 2b 0a
        E 126 93 1f 65
        E 303 83 1f 02
        E 174 93 24 61
        E 371 83 24 1f
        E 98 93 26 61
        E 395 83 26 01
        E 101 93 2b 5c
        E 373 83 2b 01
        E 108 93 1f 62
        E 306 83 1f 35
        E 177 b0 7b 00
        GUID {D3202626-815F-724B-B9B7-D8189CCDD15C}
        IGNTEMPO 0 120 4 4
        SRCCOLOR 405
        VELLANE -1 86 6
        CFGEDITVIEW 26455.808656 359.461062 78 8 0 0 0 0 0 0.5
        KEYSNAP 0
        TRACKSEL 226
        EVTFILTER 0 -1 -1 -1 -1 0 0 0 0 -1 -1 -1 -1 0 -1 0 -1 -1
        CFGEDIT 1 0 0 0 0 0 1 0 1 1 1 0.16666667 32 48 1280 470 0 0 2 3 0.25 0 0 0 0 -0.44 0 0 1 64
      >
    >
    <ITEM
      POSITION 8
      SNAPOFFS 0
      LENGTH 40
      LOOP 1
      ALLTAKES 0
      FADEIN 1 0 0 1 0 0
      FADEOUT 1 0 0 1 0 0
      MUTE 0
      SEL 0
      YPOS 0 0.201717
      IGUID {460AC632-2920-1A4A-BE59-EFE0C42264C4}
      IID 14
      NAME "fr. horn(s) - National_Anthems_-_Philippines.mid"
      VOLPAN 1 0 1 -1
      SOFFS 8 16
      PLAYRATE 1 1 0 -1 0 0.0025
      CHANMODE 0
      TAKECOLOR 26173599 B
      GUID {95FF50C9-9ED9-4142-B404-94A0D8F372D8}
      <SOURCE MIDI
        HASDATA 1 480 QN
        POOLEDEVTS {EAB76177-D363-6643-ADDC-DD9D9D93BB01}
        <X 0 0 0 0 3 "fr. horn(s)"
          /wNmci4gaG9ybihzKQ==
        >
        <X 0 0 0 0 4 "Sound Canvas"
          /wRTb3VuZCBDYW52YXM=
        >
        e 0 91 3b 7f 4
        e 0 91 3e 7f
        e 360 81 3b 3e 35
        e 0 81 3e 1e 28
        e 120 91 3c 7f 23
        e 0 91 3e 7f 24
        e 360 81 3c 2a 8
        e 0 81 3e 30 33
        e 120 91 3b 7f 12
        e 0 91 3e 7f 3
        e 360 81 3b 28 20
        e 120 81 3e 01 -34
        e 0 91 3b 7f -14
        e 480 81 3b 12 -50
        e 0 91 3e 7f -14
        e 360 81 3e 28 5
        e 120 91 3e 7f 1
        e 0 91 42 7f -5
        e 360 81 3e 25 -6
        e 0 81 42 2f 29
        e 120 91 3e 7f 1
        e 0 91 43 7f 10
        e 360 81 3e 1f 11
        e 120 81 43 2f 1
        e 0 91 3b 7f -1
        e 0 91 3e 7f -4
        e 360 81 3b 10 -27
        e 0 81 3e 01 -26
        e 120 91 3b 7f 31
        e 0 91 3e 7f 16
        e 360 81 3e 07 4
        e 120 81 3b 25 -40
        e 0 91 3c 7f 8
        e 0 91 3e 7f 7
        e 360 81 3e 1e -31
        e 120 81 3c 2e -44
        e 0 91 3b 7f 19
        e 0 91 3e 7f 8
        e 360 81 3b 2a 21
        e 120 81 3e 09 4
        e 0 91 3b 7f
        e 360 81 3b 12 -12
        e 120 91 3c 7f -26
        e 0 91 40 7f -19
        e 240 81 40 1c 57
        e 120 81 3c 27 24
        e 120 91 3c 7f 29
        e 0 91 3e 7f 21
        e 0 91 42 7f -14
        e 360 81 3c 29 37
        e 0 81 3e 27 4
        e 120 81 42 19 -3
        e 0 91 3b 7f 15
        e 0 91 3e 7f 13
        e 720 81 3b 19 24
        e 0 81 3e 25 17
        e 240 91 3b 7f 3
        e 0 91 3e 7f 5
        e 360 81 3b 1f 56
        e 0 81 3e 0d -18
        e 120 91 3c 7f -6
        e 0 91 3e 7f -4
        e 360 81 3c 28 58
        e 0 81 3e 01 -52
        e 120 91 3b 7f 1
        e 0 91 3e 7f -5
        e 360 81 3b 35 -26
        e 120 81 3e 35 -47
        e 0 91 37 7f 13
        e 0 91 3b 7f 12
        e 360 81 37 01 -33
        e 0 81 3b 15 2
        e 120 91 3e 7f -3
        e 120 91 3c 7f -49
        e 120 81 3c 4c -139
        e 120 81 3e 34 9
        e 120 91 3e 7f -18
        e 0 91 42 7f -27
        e 360 81 3e 07 -16
        e 0 81 42 01 49
        e 120 91 3e 7f 11
        e 0 91 43 7f 5
        e 240 81 3e 10 -32
        e 240 81 43 43 -45
        e 0 91 3b 7f -25
        e 0 91 3e 7f -27
        e 240 81 3b 29 48
        e 0 81 3e 33 43
        e 240 91 3b 7f -2
        e 0 91 3e 7f -4
        e 360 81 3b 27 30
        e 0 81 3e 29 -26
        e 120 91 3c 7f -10
        e 0 91 3e 7f -13
        e 360 81 3c 04 50
        e 0 81 3e 20 -51
        e 120 91 3b 7f 1
        e 0 91 3e 7f 7
        e 360 81 3b 05 -26
        e 120 81 3e 3e -26
        e 0 91 37 7f 10
        e 0 91 3b 7f 11
        e 360 81 37 01 12
        e 0 81 3b 49 -53
        e 120 91 3c 7f 9
        e 0 91 40 7f 18
        e 240 81 40 18 46
        e 120 81 3c 3c 29
        e 120 91 3c 7f 8
        e 0 91 42 7f
        e 360 81 3c 23 -2
        e 0 81 42 2a 24
        e 120 91 3b 7f 19
        e 0 91 3e 7f 16
        e 480 91 3b 00 -8
        e 0 81 3e 4c -12
        e 0 91 3b 7f -8
        e 0 91 3e 7f -6
        e 120 81 3b 52 -125
        e 120 81 3e 01 44
        e 240 91 3e 7f -4
        e 0 91 42 7f -8
        e 360 81 3e 21 -3
        e 0 81 42 1a 24
        e 120 91 3c 7f 3
        e 360 81 3c 01 47
        e 120 91 3e 7f 2
        e 0 91 42 7f 2
        e 360 81 3e 32 -44
        e 0 81 42 01 -18
        e 120 91 3c 7f 20
        e 240 81 3c 11 54
        e 240 91 43 7f 2
        e 240 81 43 2e -20
        e 120 91 45 7f -51
        e 120 81 45 01 -22
        e 0 91 47 7f 8
        e 240 81 47 1c -43
        e 120 91 48 7f -47
        e 120 81 48 32 -34
        e 0 91 47 7f -6
        e 360 81 47 08 3
        e 120 91 3b 7f 10
        e 0 91 3e 7f 9
        e 360 81 3b 01 54
        e 0 81 3e 26 -15
        e 120 91 3e 7f -11
        e 0 91 42 7f -28
        e 240 81 3e 16 47
        e 0 81 42 13 42
        e 240 91 3c 7f -10
        e 360 81 3c 20 -16
        e 120 91 3e 7f -23
        e 0 91 42 7f -29
        e 240 81 3e 01 37
        e 120 81 42 22 -37
        e 120 91 3c 7f 5
        e 240 81 3c 07 44
        e 240 91 3e 7f -10
        e 0 91 43 7f -15
        e 240 81 43 01 41
        e 120 81 3e 01 -43
        e 120 91 3c 7f -9
        e 0 91 42 7f -29
        e 240 81 3c 23 58
        e 120 81 42 01 57
        e 120 91 3b 7f -29
        e 0 91 3e 7f -29
        e 360 81 3b 30 -18
        e 0 81 3e 13 -27
        e 120 91 3b 7f -9
        e 0 91 3e 7f -10
        e 240 81 3e 03 18
        e 120 81 3b 0c 14
        e 120 91 3e 7f -4
        e 0 91 42 7f -14
        e 240 81 3e 10 57
        e 120 81 42 01 -38
        e 120 91 3c 7f -8
        e 360 81 3c 1c -5
        e 120 91 3e 7f -2
        e 0 91 42 7f -9
        e 240 81 3e 01 43
        e 0 81 42 01 16
        e 240 91 3c 7f 1
        e 360 81 3c 01 17
        e 120 91 43 7f 5
        e 240 81 43 22 -38
        e 120 91 45 7f -55
        e 120 81 45 0b -28
        e 0 91 47 7f -5
        e 120 81 47 11 52
        e 120 91 48 7f 56
        e 240 81 48 32 -53
        e 0 91 47 7f -18
        e 360 81 47 25 -26
        e 120 91 3b 7f 7
        e 0 91 3e 7f 11
        e 360 81 3e 0e -48
        e 120 81 3b 14 -42
        e 0 91 3e 7f -20
        e 0 91 42 7f -25
        e 240 81 3e 23 -3
        e 0 81 42 15 37
        e 240 91 3c 7f -6
        e 360 81 3c 24 -31
        e 120 91 3e 7f -12
        e 0 91 42 7f -21
        e 240 81 3e 0b 3
        e 0 81 42 01 28
        e 240 91 3c 7f -12
        e 240 81 3c 07 47
        e 240 91 3e 7f -11
        e 0 91 43 7f -21
        e 360 81 3e 12 -31
        e 0 81 43 10 -51
        e 120 91 3c 7f -21
        e 0 91 42 7f -21
        e 240 81 3c 23 45
        e 120 81 42 1d 32
        e 120 91 3b 7f -20
        e 0 91 3e 7f -25
        e 240 81 3e 01 39
        e 120 81 3b 01 -27
        e 120 91 43 7f 1
        e 120 81 43 43 37
        e 0 91 40 7f 40
        e 120 91 43 7f 57
        e 120 81 40 13 -39
        e 0 81 43 28 21
        e 120 91 40 7f 7
        e 0 91 43 7f 8
        e 240 81 43 04 58
        e 120 81 40 10 15
        e 120 91 3c 7f 15
        e 0 91 43 7f 13
        e 360 81 3c 01 -9
        e 0 81 43 28 -28
        e 120 91 43 7f -6
        e 0 91 47 7f -12
        e 360 81 43 1c -53
        e 120 81 47 2a -53
        e 0 91 3e 7f 5
        e 0 91 43 7f -3
        e 360 81 3e 01 -20
        e 0 81 43 01 -12
        e 120 91 48 7f -22
        e 240 81 48 24 -19
        e 0 91 43 7f 55
        e 240 81 43 2e -19
        e 0 91 40 7f -6
        e 240 81 40 10 -30
        e 0 91 43 7f 55
        e 240 81 43 02 -9
        e 0 91 48 7f -15
        e 360 81 48 01 9
        e 120 91 45 7f -8
        e 120 81 45 2c 19
        e 0 91 43 7f 20
        e 120 81 43 3c 39
        e 0 91 45 7f 49
        e 240 81 45 01 -43
        e 0 91 43 7f 5
        e 360 81 43 2f -2
        e 120 91 40 7f -9
        e 0 91 43 7f -8
        e 360 81 40 01 -13
        e 0 81 43 19 -41
        e 120 91 43 7f -2
        e 0 91 47 7f -6
        e 240 81 43 36 57
        e 120 81 47 2a 44
        e 120 91 3e 7f -1
        e 0 91 43 7f
        e 240 81 3e 0b -44
        e 0 81 43 28 -53
        e 120 91 3e 7f -34
        e 0 91 43 7f -36
        e 120 81 3e 27 -105
        e 0 81 43 3e -60
        e 0 91 40 7f 1
        e 0 91 43 7f 4
        e 360 81 40 2e 24
        e 0 81 43 29 9
        e 120 91 43 7f -3
        e 120 81 43 35 9
        e 0 91 40 7f 20
        e 120 91 43 7f 43
        e 120 81 40 0d -55
        e 120 81 43 3e -20
        e 0 91 3c 7f -5
        e 360 81 3c 08 -45
        e 120 91 43 7f -8
        e 120 81 43 20 -12
        e 0 91 40 7f 26
        e 120 81 40 20 33
        e 0 91 43 7f 33
        e 120 81 43 42 31
        e 120 91 40 7f -11
        e 0 91 43 7f -11
        e 240 81 40 24 51
        e 120 81 43 2d -25
        e 120 91 3c 7f -10
        e 0 91 43 7f -10
        e 360 81 3c 0a 37
        e 0 81 43 13 -28
        e 120 91 43 7f -5
        e 0 91 47 7f -4
        e 360 81 43 01 -51
        e 120 81 47 1f -60
        e 0 91 3e 7f 10
        e 0 91 43 7f 5
        e 120 81 3e 01 30
        e 0 81 43 2a 18
        e 120 91 3e 7f 6
        e 0 91 43 7f -2
        e 120 81 43 3d -26
        e 120 81 3e 07 4
        e 0 91 48 7f 23
        e 360 81 48 35 -60
        e 0 91 43 7f -9
        e 120 81 43 47 -1
        e 0 91 40 7f 7
        e 240 81 40 11 10
        e 120 91 43 7f -30
        e 120 81 43 01 -4
        e 0 91 48 7f 3
        e 360 81 48 26 14
        e 120 91 45 7f 10
        e 120 81 45 29 25
        e 0 91 43 7f 33
        e 120 81 43 01 44
        e 0 91 45 7f 59
        e 240 81 45 24 -25
        e 0 91 43 7f 17
        e 360 81 43 3c 21
        e 120 91 43 7f 14
        e 360 81 43 02 50
        e 120 91 41 7f 18
        e 0 91 47 7f 18
        e 240 81 41 23 59
        e 240 81 47 0a -12
        e 0 91 3e 7f 19
        e 0 91 41 7f 12
        e 240 81 3e 27 -14
        e 0 81 41 30 -23
        e 120 91 3e 7f -25
        e 0 91 41 7f -33
        e 120 81 3e 25 -5
        e 0 81 41 3a -81
        e 0 91 40 7f 11
        e 0 91 43 7f 50
        e 360 81 40 18 37
        e 0 81 43 3b 24
        e 120 91 43 7f -1
        e 120 81 43 40 21
        e 0 91 40 7f 36
        e 120 81 40 1c 45
        e 0 91 43 7f 47
        e 240 81 43 2e -45
        e 0 91 40 7f -14
        e 360 81 40 01 58
        E 600 b0 7b 00
        GUID {B75E73C9-4906-E145-85A0-3BAACC0416F7}
        IGNTEMPO 0 120 4 4
        SRCCOLOR 425
        VELLANE -1 86 6
        CFGEDITVIEW 0 0 78 8 0 0 0 0 0 0.5
        KEYSNAP 0
        TRACKSEL 226
        EVTFILTER 0 -1 -1 -1 -1 0 0 0 0 -1 -1 -1 -1 0 -1 0 -1 -1
        CFGEDIT 1 0 0 0 0 0 1 0 1 1 1 0.16666667 32 48 1280 470 0 0 2 3 0.25 0 0 0 0 -0.44 0 0 1 64
      >
      TAKE
      NAME "fr. horn(s) - National_Anthems_-_Philippines.mid"
      TAKEVOLPAN 0 1 -1
      SOFFS 8 16
      PLAYRATE 1 1 0 -1 0 0.0025
      CHANMODE 0
      GUID {B25A2A83-ABBB-184D-81A2-75C59CE01A5A}
      <SOURCE MIDI
        HASDATA 1 480 QN
        POOLEDEVTS {49C1A580-ECFD-4F4D-81CA-C9F2E2E35B24}
        <X 0 0 0 0 3 "fr. horn(s)"
          /wNmci4gaG9ybihzKQ==
        >
        <X 0 0 0 0 4 "Sound Canvas"
          /wRTb3VuZCBDYW52YXM=
        >
        E 0 91 3e 4c
        E 4 91 3b 43
        E 384 81 3e 1e
        E 7 81 3b 3e
        E 108 91 3c 4c
        E 1 91 3e 4f
        E 344 81 3c 2a
        E 25 81 3e 30
        E 90 91 3e 4c
        E 9 91 3b 4c
        E 368 81 3b 28
        E 66 81 3e 01
        E 20 91 3b 4b
        E 444 81 3b 12
        E 36 91 3e 53
        E 379 81 3e 28
        E 110 91 42 48
        E 6 91 3e 4a
        E 353 81 3e 25
        E 35 81 42 2f
        E 92 91 3e 4c
        E 9 91 43 55
        E 361 81 3e 1f
        E 105 91 3e 44
        E 3 91 3b 3c
        E 2 81 43 2f
        E 332 81 3b 10
        E 1 81 3e 01
        E 162 91 3e 47
        E 15 91 3b 18
        E 333 81 3e 07
        E 76 81 3b 25
        E 47 91 3e 42
        E 1 91 3c 40
        E 321 81 3e 1e
        E 107 81 3c 2e
        E 52 91 3e 46
        E 11 91 3b 46
        E 362 81 3b 2a
        E 99 91 3b 41
        E 4 81 3e 09
        E 344 81 3b 12
        E 106 91 3c 3f
        E 7 91 40 43
        E 316 81 40 1c
        E 87 81 3c 27
        E 82 91 42 48
        E 35 91 3e 2b
        E 8 91 3c 13
        E 335 81 3e 27
        E 33 81 3c 29
        E 80 81 42 19
        E 16 91 3e 4e
        E 2 91 3b 3e
        E 722 81 3e 25
        E 7 81 3b 19
        E 219 91 3b 3f
        E 2 91 3e 4a
        E 337 81 3e 0d
        E 74 81 3b 1f
        E 58 91 3c 4e
        E 2 91 3e 47
        E 312 81 3e 01
        E 110 81 3c 28
        E 57 91 3e 47
        E 6 91 3b 46
        E 333 81 3b 35
        E 99 81 3e 35
        E 59 91 3b 49
        E 1 91 37 38
        E 314 81 37 01
        E 35 81 3b 15
        E 115 91 3e 43
        E 74 91 3c 4a
        E 30 81 3c 4c
        E 268 81 3e 34
        E 84 91 42 48
        E 9 91 3e 4c
        E 362 81 3e 07
        E 65 81 42 01
        E 76 91 43 54
        E 6 91 3e 3e
        E 197 81 3e 10
        E 227 81 43 43
        E 18 91 3e 4a
        E 2 91 3b 3a
        E 308 81 3e 33
        E 5 81 3b 29
        E 188 91 3e 37
        E 2 91 3b 48
        E 336 81 3e 29
        E 56 81 3b 27
        E 77 91 3e 46
        E 3 91 3c 41
        E 319 81 3e 20
        E 101 81 3c 04
        E 71 91 3b 44
        E 6 91 3e 45
        E 327 81 3b 05
        E 120 81 3e 3e
        E 36 91 37 2e
        E 1 91 3b 48
        E 296 81 3b 49
        E 65 81 37 01
        E 117 91 3c 49
        E 9 91 40 49
        E 268 81 40 18
        E 103 81 3c 3c
        E 91 91 42 4c
        E 8 91 3c 49
        E 350 81 3c 23
        E 26 81 42 2a
        E 112 91 3e 24
        E 3 91 3b 36
        E 449 81 3e 4c
        E 4 91 3b 37
        E 2 91 3e 38
        E 1 81 3b 52
        E 289 81 3e 01
        E 85 81 3b 01
        E 103 91 42 47
        E 4 91 3e 41
        E 361 81 3e 21
        E 27 81 42 1a
        E 99 91 3c 4a
        E 404 81 3c 01
        E 75 91 42 49
        E 0 91 3e 4a
        E 314 81 3e 32
        E 26 81 42 01
        E 158 91 3c 46
        E 274 81 3c 11
        E 188 91 43 5e
        E 218 81 43 2e
        E 89 91 45 56
        E 149 81 45 01
        E 30 91 47 53
        E 189 81 47 1c
        E 116 91 48 4d
        E 133 81 48 32
        E 28 91 47 50
        E 369 81 47 08
        E 126 91 3e 3b
        E 1 91 3b 3d
        E 335 81 3e 26
        E 69 81 3b 01
        E 38 91 42 48
        E 17 91 3e 42
        E 293 81 42 13
        E 5 81 3e 16
        E 183 91 3c 3d
        E 354 81 3c 20
        E 107 91 42 3e
        E 6 91 3e 43
        E 300 81 3e 01
        E 46 81 42 22
        E 162 91 3c 45
        E 279 81 3c 07
        E 181 91 43 42
        E 5 91 3e 3b
        E 291 81 43 01
        E 36 81 3e 01
        E 134 91 42 47
        E 20 91 3c 41
        E 307 81 3c 23
        E 119 81 42 01
        E 34 91 3b 37
        E 0 91 3e 4f
        E 362 81 3e 13
        E 9 81 3b 30
        E 128 91 3e 32
        E 1 91 3b 38
        E 267 81 3e 03
        E 116 81 3b 0c
        E 92 91 42 49
        E 10 91 3e 4b
        E 301 81 3e 10
        E 25 81 42 01
        E 150 91 3c 43
        E 363 81 3c 1c
        E 116 91 42 48
        E 7 91 3e 3a
        E 258 81 42 01
        E 27 81 3e 01
        E 198 91 3c 52
        E 376 81 3c 01
        E 108 91 43 67
        E 197 81 43 22
        E 103 91 45 57
        E 147 81 45 0b
        E 23 91 47 58
        E 177 81 47 11
        E 124 91 48 51
        E 131 81 48 32
        E 35 91 47 54
        E 352 81 47 25
        E 153 91 3b 37
        E 4 91 3e 45
        E 301 81 3e 0e
        E 126 81 3b 14
        E 17 91 42 48
        E 5 91 3e 45
        E 257 81 3e 23
        E 40 81 42 15
        E 197 91 3c 46
        E 335 81 3c 24
        E 130 91 42 44
        E 9 91 3e 45
        E 255 81 3e 0b
        E 25 81 42 01
        E 200 91 3c 4b
        E 299 81 3c 07
        E 172 91 43 4c
        E 10 91 3e 41
        E 320 81 43 10
        E 20 81 3e 12
        E 130 91 42 24
        E 0 91 3c 42
        E 306 81 3c 23
        E 107 81 42 1d
        E 63 91 3e 48
        E 5 91 3b 47
        E 299 81 3e 01
        E 54 81 3b 01
        E 148 91 43 64
        E 156 81 43 43
        E 3 91 40 59
        E 137 91 43 63
        E 24 81 40 13
        E 60 81 43 28
        E 106 91 40 52
        E 1 91 43 55
        E 290 81 43 04
        E 77 81 40 10
        E 118 91 43 52
        E 2 91 3c 46
        E 317 81 43 28
        E 19 81 3c 01
        E 117 91 47 44
        E 6 91 43 4f
        E 313 81 43 1c
        E 120 81 47 2a
        E 50 91 43 4a
        E 8 91 3e 3d
        E 335 81 3e 01
        E 8 81 43 01
        E 110 91 48 52
        E 243 81 48 24
        E 74 91 43 5c
        E 166 81 43 2e
        E 13 91 40 58
        E 216 81 40 10
        E 85 91 43 5a
        E 170 91 48 53
        E 6 81 43 02
        E 378 81 48 01
        E 103 91 45 53
        E 147 81 45 2c
        E 1 91 43 60
        E 139 81 43 3c
        E 10 91 45 53
        E 148 81 45 01
        E 48 91 43 5e
        E 353 81 43 2f
        E 113 91 40 49
        E 1 91 43 57
        E 327 81 43 19
        E 28 81 40 01
        E 127 91 47 4e
        E 4 91 43 50
        E 299 81 43 36
        E 107 81 47 2a
        E 75 91 3e 4c
        E 1 91 43 41
        E 187 81 43 28
        E 9 81 3e 0b
        E 128 91 43 4d
        E 2 91 3e 45
        E 49 81 3e 27
        E 45 81 43 3e
        E 61 91 40 4b
        E 3 91 43 50
        E 365 81 43 29
        E 15 81 40 2e
        E 93 91 43 5c
        E 132 81 43 35
        E 11 91 40 5b
        E 143 91 43 5a
        E 22 81 40 0d
        E 155 81 43 3e
        E 15 91 3c 52
        E 320 81 3c 08
        E 157 91 43 64
        E 116 81 43 20
        E 38 91 40 58
        E 127 81 40 20
        E 0 91 43 62
        E 118 81 43 42
        E 78 91 40 4d
        E 0 91 43 61
        E 302 81 40 24
        E 44 81 43 2d
        E 135 91 43 5f
        E 0 91 3c 41
        E 342 81 43 13
        E 65 81 3c 0a
        E 78 91 43 5d
        E 1 91 47 55
        E 313 81 43 01
        E 111 81 47 1f
        E 65 91 43 59
        E 5 91 3e 50
        E 128 81 43 2a
        E 12 81 3e 01
        E 88 91 43 57
        E 8 91 3e 53
        E 88 81 43 3d
        E 150 81 3e 07
        E 19 91 48 5b
        E 277 81 48 35
        E 51 91 43 67
        E 128 81 43 47
        E 8 91 40 59
        E 243 81 40 11
        E 80 91 43 57
        E 146 81 43 01
        E 7 91 48 5a
        E 371 81 48 26
        E 116 91 45 5a
        E 135 81 45 29
        E 8 91 43 58
        E 131 81 43 01
        E 15 91 45 4e
        E 156 81 45 24
        E 42 91 43 47
        E 364 81 43 3c
        E 113 91 43 5e
        E 396 81 43 02
        E 88 91 47 4b
        E 0 91 41 4a
        E 281 81 41 23
        E 169 81 47 0a
        E 24 91 41 4f
        E 7 91 3e 47
        E 198 81 41 30
        E 9 81 3e 27
        E 101 91 41 4d
        E 8 91 3e 52
        E 64 81 41 3a
        E 76 81 3e 25
        E 16 91 40 4d
        E 39 91 43 01
        E 334 81 43 3b
        E 13 81 40 18
        E 82 91 43 65
        E 142 81 43 40
        E 15 91 40 59
        E 129 81 40 1c
        E 2 91 43 5f
        E 148 81 43 2e
        E 31 91 40 52
        E 432 81 40 01
        E 542 b0 7b 00
        GUID {34E856E7-C5DA-974A-BA4A-28F60AAC1EC4}
        IGNTEMPO 0 120 4 4
        SRCCOLOR 426
        VELLANE -1 86 6
        CFGEDITVIEW 0 0 78 8 0 0 0 0 0 0.5
        KEYSNAP 0
        TRACKSEL 226
        EVTFILTER 0 -1 -1 -1 -1 0 0 0 0 -1 -1 -1 -1 0 -1 0 -1 -1
        CFGEDIT 1 0 0 0 0 0 1 0 1 1 1 0.16666667 32 48 1280 470 0 0 2 3 0.25 0 0 0 0 -0.44 0 0 1 64
      >
    >
    <ITEM
      POSITION 8
      SNAPOFFS 0
      LENGTH 40
      LOOP 1
      ALLTAKES 0
      FADEIN 1 0 0 1 0 0
      FADEOUT 1 0 0 1 0 0
      MUTE 0
      SEL 0
      YPOS 0.798283 0.201717
      IGUID {D59A7B7F-119D-574E-A599-C4B32D12E193}
      IID 15
      NAME "tuba(s) - National_Anthems_-_Philippines.mid"
      VOLPAN 1 0 1 -1
      SOFFS 8 16
      PLAYRATE 1 1 0 -1 0 0.0025
      CHANMODE 0
      TAKECOLOR 26173599 B
      GUID {E54B81BD-277F-4F4C-BDA5-5FB05F77AC1A}
      <SOURCE MIDI
        HASDATA 1 480 QN
        POOLEDEVTS {647D292D-6029-974D-A3B6-18E2529DC545}
        <X 0 0 0 0 3 tuba(s)
          /wN0dWJhKHMp
        >
        <X 0 0 0 0 4 "Sound Canvas"
          /wRTb3VuZCBDYW52YXM=
        >
        e 0 93 2b 7f
        e 240 83 2b 01 1
        e 240 93 26 7f 16
        e 360 83 26 01 -41
        e 120 93 2b 7f
        e 360 83 2b 01 -10
        e 120 93 1f 7f 1
        e 360 83 1f 3c -30
        e 120 93 2a 7f 7
        e 360 83 2a 01 -17
        e 120 93 26 7f -6
        e 240 83 26 01 53
        e 240 93 2b 7f 5
        e 360 83 2b 06 11
        e 120 93 1f 7f 13
        e 360 83 1f 36 2
        e 120 93 2b 7f 21
        e 360 83 2b 02 8
        e 120 93 26 7f 1
        e 360 83 26 17 -53
        e 120 93 2b 7f -1
        e 360 83 2b 0a -12
        e 120 93 1f 7f -6
        e 240 83 1f 02 57
        e 240 93 24 7f -9
        e 360 83 24 1f 2
        e 120 93 26 7f -20
        e 360 83 26 01 15
        e 120 93 2b 7f -4
        e 360 83 2b 01 9
        e 120 93 1f 7f -3
        e 360 83 1f 35 -57
        e 120 93 2b 7f 8
        e 360 83 2b 01 -11
        e 120 93 26 7f -4
        e 360 83 26 04 -35
        e 120 93 2b 7f -7
        e 360 83 2b 01 -41
        e 120 93 1f 7f -10
        e 360 83 1f 26 -38
        e 120 93 2a 7f 5
        e 360 83 2a 09 -60
        e 120 93 26 7f -19
        e 240 83 26 23 43
        e 240 93 2b 7f 9
        e 360 83 2b 12 -19
        e 120 93 1f 7f 17
        e 360 83 1f 07 -22
        e 120 93 2b 7f 17
        e 360 83 2b 04 18
        e 120 93 26 7f 19
        e 360 83 26 2b -36
        e 120 93 2b 7f -11
        e 360 83 2b 01 35
        e 120 93 1f 7f -5
        e 360 83 1f 1f -24
        e 120 93 24 7f 26
        e 360 83 24 21 26
        e 120 93 26 7f -19
        e 360 83 26 01 4
        e 120 93 2b 7f
        e 360 83 2b 01 -15
        e 120 93 1f 7f 1
        e 360 83 1f 01 35
        e 120 93 26 7f -3
        e 360 83 26 02 -50
        e 120 93 26 7f 4
        e 240 83 26 23 20
        e 240 93 26 7f -3
        e 240 83 26 1a 31
        e 240 93 26 7f -7
        e 240 83 26 09 52
        e 240 93 1f 7f 2
        e 360 83 1f 06 27
        e 120 93 2b 7f 4
        e 240 83 2b 1d 44
        e 240 93 2b 7f -10
        e 360 83 2b 01 -29
        e 120 93 1f 7f -12
        e 360 83 1f 21 13
        e 120 93 26 7f -17
        e 240 83 26 01 -16
        e 240 93 26 7f -18
        e 360 83 26 0d -53
        e 120 93 26 7f -21
        e 240 83 26 01 -5
        e 240 93 26 7f -25
        e 240 83 26 25 -18
        e 240 93 26 7f -21
        e 240 83 26 2e 4
        e 240 93 26 7f -24
        e 360 83 26 1d -54
        e 120 93 1f 7f -33
        e 360 83 1f 02 -14
        e 120 93 1f 7f
        e 360 83 1f 24 -5
        e 120 93 26 7f -4
        e 240 83 26 17 48
        e 240 93 26 7f -9
        e 240 83 26 21 38
        e 240 93 26 7f -5
        e 240 83 26 29 11
        e 240 93 26 7f -10
        e 240 83 26 0b 36
        e 240 93 1f 7f -13
        e 360 83 1f 01 -36
        e 120 93 2b 7f 6
        e 360 83 2b 01 -48
        e 120 93 2b 7f
        e 360 83 2b 05 16
        e 120 93 1f 7f 11
        e 360 83 1f 01 52
        e 120 93 26 7f -14
        e 240 83 26 01 38
        e 240 93 26 7f -14
        e 240 83 26 27 4
        e 240 93 26 7f -28
        e 240 83 26 12 36
        e 240 93 26 7f -10
        e 240 83 26 20 17
        e 240 93 26 7f -31
        e 240 83 26 17 -14
        e 240 93 26 7f -40
        e 240 83 26 01 28
        e 240 93 1f 7f -18
        e 360 83 1f 28 17
        e 120 93 2b 7f -4
        e 120 83 2b 2a 52
        e 0 93 28 7f 44
        e 240 83 28 24 -51
        e 0 93 2b 7f -48
        e 120 83 2b 03 -38
        e 0 93 24 7f 24
        e 360 83 24 30 42
        e 120 93 28 7f
        e 360 83 28 01 33
        e 120 93 2b 7f 12
        e 360 83 2b 15 24
        e 120 93 2f 7f -5
        e 360 83 2f 01 24
        e 120 93 24 7f -23
        e 240 83 24 06 -37
        e 120 93 2b 7f -60
        e 120 83 2b 17 -54
        e 0 93 28 7f -6
        e 240 83 28 22 -37
        e 0 93 2b 7f 44
        e 240 83 2b 01 -18
        e 0 93 30 7f 4
        e 360 83 30 10 15
        e 120 93 26 7f 1
        e 120 83 26 41 36
        e 0 93 28 7f 33
        e 240 83 28 33 -48
        e 0 93 29 7f -58
        e 120 83 29 2f -52
        e 0 93 2b 7f -9
        e 360 83 2b 01 38
        e 120 93 1f 7f 4
        e 360 83 1f 35 32
        e 120 93 1f 7f -3
        e 480 83 1f 01 -24
        e 0 93 2b 7f -5
        e 240 83 2b 18 -43
        e 0 93 2b 7f 55
        e 240 83 2b 48 -37
        e 0 93 24 7f
        e 360 83 24 14 26
        e 120 93 2b 7f -6
        e 120 83 2b 32 30
        e 0 93 28 7f 20
        e 120 83 28 39 49
        e 0 93 2b 7f 52
        e 240 83 2b 15 -36
        e 0 93 24 7f -5
        e 360 83 24 45 -54
        e 120 93 2b 7f -15
        e 120 83 2b 2f 44
        e 0 93 28 7f 31
        e 120 83 28 2b 55
        e 0 93 2b 7f 59
        e 240 83 2b 24 4
        e 0 93 24 7f 6
        e 360 83 24 1c 24
        e 120 93 28 7f 7
        e 480 83 28 01 -47
        e 0 93 2b 7f 13
        e 360 83 2b 01 45
        e 120 93 2f 7f 3
        e 360 83 2f 01 -8
        e 120 93 24 7f -10
        e 240 83 24 2e -10
        e 120 93 2b 7f -37
        e 120 83 2b 01 -17
        e 0 93 28 7f -1
        e 240 83 28 25 -16
        e 120 93 2b 7f -47
        e 120 83 2b 1c 2
        e 0 93 30 7f 5
        e 360 83 30 01 12
        e 120 93 26 7f 10
        e 120 83 26 45 26
        e 0 93 28 7f 30
        e 120 83 28 2e 17
        e 120 93 29 7f -54
        e 120 83 29 31 -73
        e 0 93 2b 7f -8
        e 360 83 2b 01 29
        e 120 93 1f 7f 21
        e 360 83 1f 27 47
        e 120 93 2b 7f 12
        e 360 83 2b 04 13
        e 120 93 1f 7f -16
        e 360 83 1f 01 4
        e 120 93 24 7f 8
        e 360 83 24 22 31
        e 120 93 2b 7f 14
        e 120 83 2b 28 37
        e 0 93 28 7f 31
        e 120 83 28 29 56
        e 0 93 2b 7f 59
        e 240 83 2b 22 -35
        e 0 93 24 7f -13
        e 480 83 24 5a -7
        E 480 b0 7b 00
        GUID {C3F4C520-A4E5-544D-900D-AFFE6A5E2F3F}
        IGNTEMPO 0 120 4 4
        SRCCOLOR 427
        VELLANE -1 86 6
        CFGEDITVIEW 0 0 78 8 0 0 0 0 0 0.5
        KEYSNAP 0
        TRACKSEL 226
        EVTFILTER 0 -1 -1 -1 -1 0 0 0 0 -1 -1 -1 -1 0 -1 0 -1 -1
        CFGEDIT 1 0 0 0 0 0 1 0 1 1 1 0.16666667 32 48 1280 470 0 0 2 3 0.25 0 0 0 0 -0.44 0 0 1 64
      >
      TAKE
      NAME "tuba(s) - National_Anthems_-_Philippines.mid"
      TAKEVOLPAN 0 1 -1
      SOFFS 8 16
      PLAYRATE 1 1 0 -1 0 0.0025
      CHANMODE 0
      GUID {52D544C6-842E-0445-BCC3-D1E166149AF6}
      <SOURCE MIDI
        HASDATA 1 480 QN
        POOLEDEVTS {AE0901E1-AB56-374C-8A4C-F94307D74E19}
        <X 0 0 0 0 3 tuba(s)
          /wN0dWJhKHMp
        >
        <X 0 0 0 0 4 "Sound Canvas"
          /wRTb3VuZCBDYW52YXM=
        >
        E 0 93 2b 5c
        E 241 83 2b 01
        E 255 93 26 62
        E 303 83 26 01
        E 161 93 2b 53
        E 350 83 2b 01
        E 131 93 1f 65
        E 329 83 1f 3c
        E 157 93 2a 5f
        E 336 83 2a 01
        E 131 93 26 62
        E 299 83 26 01
        E 192 93 2b 53
        E 366 83 2b 06
        E 122 93 1f 5e
        E 349 83 1f 36
        E 139 93 2b 52
        E 347 83 2b 02
        E 113 93 26 5d
        E 306 83 26 17
        E 172 93 2b 55
        E 349 83 2b 0a
        E 126 93 1f 65
        E 303 83 1f 02
        E 174 93 24 61
        E 371 83 24 1f
        E 98 93 26 61
        E 395 83 26 01
        E 101 93 2b 5c
        E 373 83 2b 01
        E 108 93 1f 62
        E 306 83 1f 35
        E 185 93 2b 57
        E 341 83 2b 01
        E 127 93 26 62
        E 329 83 26 04
        E 148 93 2b 57
        E 326 83 2b 01
        E 151 93 1f 5d
        E 332 83 1f 26
        E 163 93 2a 53
        E 295 83 2a 09
        E 161 93 26 5e
        E 302 83 26 23
        E 206 93 2b 4b
        E 332 83 2b 12
        E 156 93 1f 62
        E 321 83 1f 07
        E 159 93 2b 58
        E 361 83 2b 04
        E 121 93 26 58
        E 305 83 26 2b
        E 145 93 2b 53
        E 406 83 2b 01
        E 80 93 1f 63
        E 341 83 1f 1f
        E 170 93 24 52
        E 360 83 24 21
        E 75 93 26 5c
        E 383 83 26 01
        E 116 93 2b 54
        E 345 83 2b 01
        E 136 93 1f 52
        E 394 83 1f 01
        E 82 93 26 53
        E 313 83 26 02
        E 174 93 26 51
        E 256 83 26 23
        E 217 93 26 5a
        E 274 83 26 1a
        E 202 93 26 5c
        E 299 83 26 09
        E 190 93 1f 5c
        E 385 83 1f 06
        E 97 93 2b 54
        E 280 83 2b 1d
        E 186 93 2b 52
        E 341 83 2b 01
        E 137 93 1f 5f
        E 385 83 1f 21
        E 90 93 26 5b
        E 241 83 26 01
        E 238 93 26 57
        E 325 83 26 0d
        E 152 93 26 59
        E 256 83 26 01
        E 220 93 26 58
        E 247 83 26 25
        E 237 93 26 53
        E 265 83 26 2e
        E 212 93 26 5d
        E 330 83 26 1d
        E 141 93 1f 5d
        E 379 83 1f 02
        E 134 93 1f 5a
        E 355 83 1f 24
        E 121 93 26 55
        E 292 83 26 17
        E 183 93 26 59
        E 287 83 26 21
        E 197 93 26 55
        E 256 83 26 29
        E 219 93 26 5b
        E 286 83 26 0b
        E 191 93 1f 5a
        E 337 83 1f 01
        E 162 93 2b 53
        E 306 83 2b 01
        E 168 93 2b 53
        E 376 83 2b 05
        E 115 93 1f 59
        E 401 83 1f 01
        E 54 93 26 5c
        E 292 83 26 01
        E 188 93 26 54
        E 258 83 26 27
        E 208 93 26 5b
        E 304 83 26 12
        E 194 93 26 57
        E 267 83 26 20
        E 192 93 26 5a
        E 257 83 26 17
        E 214 93 26 5d
        E 308 83 26 01
        E 194 93 1f 5c
        E 395 83 1f 28
        E 99 93 2b 54
        E 168 93 28 64
        E 8 83 2b 2a
        E 137 83 28 24
        E 3 93 2b 4f
        E 130 83 2b 03
        E 62 93 24 5f
        E 378 83 24 30
        E 78 93 28 5f
        E 393 83 28 01
        E 99 93 2b 54
        E 372 83 2b 15
        E 91 93 2f 57
        E 389 83 2f 01
        E 73 93 24 61
        E 226 83 24 06
        E 97 93 2b 4d
        E 126 83 2b 17
        E 48 93 28 62
        E 209 83 28 22
        E 81 93 2b 53
        E 178 83 2b 01
        E 22 93 30 4c
        E 371 83 30 10
        E 106 93 26 64
        E 152 93 28 61
        E 3 83 26 41
        E 146 93 29 62
        E 10 83 28 33
        E 116 83 29 2f
        E 43 93 2b 5a
        E 407 83 2b 01
        E 86 93 1f 61
        E 388 83 1f 35
        E 85 93 1f 5f
        E 459 83 1f 01
        E 19 93 2b 58
        E 202 83 2b 18
        E 98 93 2b 52
        E 148 83 2b 48
        E 37 93 24 5f
        E 386 83 24 14
        E 88 93 2b 5c
        E 146 93 28 5c
        E 10 83 2b 32
        E 139 83 28 39
        E 3 93 2b 51
        E 152 83 2b 15
        E 31 93 24 4d
        E 311 83 24 45
        E 159 93 2b 5b
        E 166 93 28 57
        E 13 83 2b 2f
        E 131 83 28 2b
        E 4 93 2b 50
        E 185 83 2b 24
        E 2 93 24 60
        E 378 83 24 1c
        E 103 93 28 5f
        E 426 83 28 01
        E 60 93 2b 56
        E 392 83 2b 01
        E 78 93 2f 57
        E 349 83 2f 01
        E 118 93 24 5f
        E 240 83 24 2e
        E 93 93 2b 4d
        E 140 83 2b 01
        E 16 93 28 5c
        E 225 83 28 25
        E 89 93 2b 56
        E 169 83 2b 1c
        E 3 93 30 5f
        E 367 83 30 01
        E 118 93 26 64
        E 136 83 26 45
        E 4 93 28 60
        E 107 83 28 2e
        E 49 93 29 61
        E 101 83 29 31
        E 65 93 2b 60
        E 397 83 2b 01
        E 112 93 1f 53
        E 386 83 1f 27
        E 85 93 2b 57
        E 361 83 2b 04
        E 91 93 1f 62
        E 380 83 1f 01
        E 124 93 24 5f
        E 383 83 24 22
        E 103 93 2b 5e
        E 137 93 28 5e
        E 6 83 2b 28
        E 139 83 28 29
        E 3 93 2b 52
        E 146 83 2b 22
        E 22 93 24 5c
        E 486 83 24 5a
        E 487 b0 7b 00
        GUID {1AEEB042-F7F5-DD41-9E06-01CB200327D3}
        IGNTEMPO 0 120 4 4
        SRCCOLOR 428
        VELLANE -1 86 6
        CFGEDITVIEW 0 0 78 8 0 0 0 0 0 0.5
        KEYSNAP 0
        TRACKSEL 226
        EVTFILTER 0 -1 -1 -1 -1 0 0 0 0 -1 -1 -1 -1 0 -1 0 -1 -1
        CFGEDIT 1 0 0 0 0 0 1 0 1 1 1 0.16666667 32 48 1280 470 0 0 2 3 0.25 0 0 0 0 -0.44 0 0 1 64
      >
    >
    <ITEM
      POSITION 48
      SNAPOFFS 0
      LENGTH 17
      LOOP 1
      ALLTAKES 0
      FADEIN 1 0 0 1 0 0
      FADEOUT 1 0 0 1 0 0
      MUTE 0
      SEL 0
      YPOS 0 0.201717
      IGUID {DFF3C547-1617-3F47-A0D6-E7A7724484C3}
      IID 21
      NAME "fr. horn(s) - National_Anthems_-_Philippines.mid"
      VOLPAN 1 0 1 -1
      SOFFS 48 96
      PLAYRATE 1 1 0 -1 0 0.0025
      CHANMODE 0
      TAKECOLOR 26173599 B
      GUID {ADC69498-6AFB-0545-BCC5-3CE62D976AA4}
      <SOURCE MIDI
        HASDATA 1 480 QN
        POOLEDEVTS {2EF38FF2-162C-AA45-9776-8A3F16C6804C}
        <X 0 0 0 0 3 "fr. horn(s)"
          /wNmci4gaG9ybihzKQ==
        >
        <X 0 0 0 0 4 "Sound Canvas"
          /wRTb3VuZCBDYW52YXM=
        >
        e 0 91 3b 7f 4
        e 0 91 3e 7f
        e 360 81 3b 3e 35
        e 0 81 3e 1e 28
        e 120 91 3c 7f 23
        e 0 91 3e 7f 24
        e 360 81 3c 2a 8
        e 0 81 3e 30 33
        e 120 91 3b 7f 12
        e 0 91 3e 7f 3
        e 360 81 3b 28 20
        e 120 81 3e 01 -34
        e 0 91 3b 7f -14
        e 480 81 3b 12 -50
        e 0 91 3e 7f -14
        e 360 81 3e 28 5
        e 120 91 3e 7f 1
        e 0 91 42 7f -5
        e 360 81 3e 25 -6
        e 0 81 42 2f 29
        e 120 91 3e 7f 1
        e 0 91 43 7f 10
        e 360 81 3e 1f 11
        e 120 81 43 2f 1
        e 0 91 3b 7f -1
        e 0 91 3e 7f -4
        e 360 81 3b 10 -27
        e 0 81 3e 01 -26
        e 120 91 3b 7f 31
        e 0 91 3e 7f 16
        e 360 81 3e 07 4
        e 120 81 3b 25 -40
        e 0 91 3c 7f 8
        e 0 91 3e 7f 7
        e 360 81 3e 1e -31
        e 120 81 3c 2e -44
        e 0 91 3b 7f 19
        e 0 91 3e 7f 8
        e 360 81 3b 2a 21
        e 120 81 3e 09 4
        e 0 91 3b 7f
        e 360 81 3b 12 -12
        e 120 91 3c 7f -26
        e 0 91 40 7f -19
        e 240 81 40 1c 57
        e 120 81 3c 27 24
        e 120 91 3c 7f 29
        e 0 91 3e 7f 21
        e 0 91 42 7f -14
        e 360 81 3c 29 37
        e 0 81 3e 27 4
        e 120 81 42 19 -3
        e 0 91 3b 7f 15
        e 0 91 3e 7f 13
        e 720 81 3b 19 24
        e 0 81 3e 25 17
        e 240 91 3b 7f 3
        e 0 91 3e 7f 5
        e 360 81 3b 1f 56
        e 0 81 3e 0d -18
        e 120 91 3c 7f -6
        e 0 91 3e 7f -4
        e 360 81 3c 28 58
        e 0 81 3e 01 -52
        e 120 91 3b 7f 1
        e 0 91 3e 7f -5
        e 360 81 3b 35 -26
        e 120 81 3e 35 -47
        e 0 91 37 7f 13
        e 0 91 3b 7f 12
        e 360 81 37 01 -33
        e 0 81 3b 15 2
        e 120 91 3e 7f -3
        e 120 91 3c 7f -49
        e 120 81 3c 4c -139
        e 120 81 3e 34 9
        e 120 91 3e 7f -18
        e 0 91 42 7f -27
        e 360 81 3e 07 -16
        e 0 81 42 01 49
        e 120 91 3e 7f 11
        e 0 91 43 7f 5
        e 240 81 3e 10 -32
        e 240 81 43 43 -45
        e 0 91 3b 7f -25
        e 0 91 3e 7f -27
        e 240 81 3b 29 48
        e 0 81 3e 33 43
        e 240 91 3b 7f -2
        e 0 91 3e 7f -4
        e 360 81 3b 27 30
        e 0 81 3e 29 -26
        e 120 91 3c 7f -10
        e 0 91 3e 7f -13
        e 360 81 3c 04 50
        e 0 81 3e 20 -51
        e 120 91 3b 7f 1
        e 0 91 3e 7f 7
        e 360 81 3b 05 -26
        e 120 81 3e 3e -26
        e 0 91 37 7f 10
        e 0 91 3b 7f 11
        e 360 81 37 01 12
        e 0 81 3b 49 -53
        e 120 91 3c 7f 9
        e 0 91 40 7f 18
        e 240 81 40 18 46
        e 120 81 3c 3c 29
        e 120 91 3c 7f 8
        e 0 91 42 7f
        e 360 81 3c 23 -2
        e 0 81 42 2a 24
        e 120 91 3b 7f 19
        e 0 91 3e 7f 16
        e 480 91 3b 00 -8
        e 0 81 3e 4c -12
        e 0 91 3b 7f -8
        e 0 91 3e 7f -6
        e 120 81 3b 52 -125
        e 120 81 3e 01 44
        e 240 91 3e 7f -4
        e 0 91 42 7f -8
        e 360 81 3e 21 -3
        e 0 81 42 1a 24
        e 120 91 3c 7f 3
        e 360 81 3c 01 47
        e 120 91 3e 7f 2
        e 0 91 42 7f 2
        e 360 81 3e 32 -44
        e 0 81 42 01 -18
        e 120 91 3c 7f 20
        e 240 81 3c 11 54
        e 240 91 43 7f 2
        e 240 81 43 2e -20
        e 120 91 45 7f -51
        e 120 81 45 01 -22
        e 0 91 47 7f 8
        e 240 81 47 1c -43
        e 120 91 48 7f -47
        e 120 81 48 32 -34
        e 0 91 47 7f -6
        e 360 81 47 08 3
        e 120 91 3b 7f 10
        e 0 91 3e 7f 9
        e 360 81 3b 01 54
        e 0 81 3e 26 -15
        e 120 91 3e 7f -11
        e 0 91 42 7f -28
        e 240 81 3e 16 47
        e 0 81 42 13 42
        e 240 91 3c 7f -10
        e 360 81 3c 20 -16
        e 120 91 3e 7f -23
        e 0 91 42 7f -29
        e 240 81 3e 01 37
        e 120 81 42 22 -37
        e 120 91 3c 7f 5
        e 240 81 3c 07 44
        e 240 91 3e 7f -10
        e 0 91 43 7f -15
        e 240 81 43 01 41
        e 120 81 3e 01 -43
        e 120 91 3c 7f -9
        e 0 91 42 7f -29
        e 240 81 3c 23 58
        e 120 81 42 01 57
        e 120 91 3b 7f -29
        e 0 91 3e 7f -29
        e 360 81 3b 30 -18
        e 0 81 3e 13 -27
        e 120 91 3b 7f -9
        e 0 91 3e 7f -10
        e 240 81 3e 03 18
        e 120 81 3b 0c 14
        e 120 91 3e 7f -4
        e 0 91 42 7f -14
        e 240 81 3e 10 57
        e 120 81 42 01 -38
        e 120 91 3c 7f -8
        e 360 81 3c 1c -5
        e 120 91 3e 7f -2
        e 0 91 42 7f -9
        e 240 81 3e 01 43
        e 0 81 42 01 16
        e 240 91 3c 7f 1
        e 360 81 3c 01 17
        e 120 91 43 7f 5
        e 240 81 43 22 -38
        e 120 91 45 7f -55
        e 120 81 45 0b -28
        e 0 91 47 7f -5
        e 120 81 47 11 52
        e 120 91 48 7f 56
        e 240 81 48 32 -53
        e 0 91 47 7f -18
        e 360 81 47 25 -26
        e 120 91 3b 7f 7
        e 0 91 3e 7f 11
        e 360 81 3e 0e -48
        e 120 81 3b 14 -42
        e 0 91 3e 7f -20
        e 0 91 42 7f -25
        e 240 81 3e 23 -3
        e 0 81 42 15 37
        e 240 91 3c 7f -6
        e 360 81 3c 24 -31
        e 120 91 3e 7f -12
        e 0 91 42 7f -21
        e 240 81 3e 0b 3
        e 0 81 42 01 28
        e 240 91 3c 7f -12
        e 240 81 3c 07 47
        e 240 91 3e 7f -11
        e 0 91 43 7f -21
        e 360 81 3e 12 -31
        e 0 81 43 10 -51
        e 120 91 3c 7f -21
        e 0 91 42 7f -21
        e 240 81 3c 23 45
        e 120 81 42 1d 32
        e 120 91 3b 7f -20
        e 0 91 3e 7f -25
        e 240 81 3e 01 39
        e 120 81 3b 01 -27
        e 120 91 43 7f 1
        e 120 81 43 43 37
        e 0 91 40 7f 40
        e 120 91 43 7f 57
        e 120 81 40 13 -39
        e 0 81 43 28 21
        e 120 91 40 7f 7
        e 0 91 43 7f 8
        e 240 81 43 04 58
        e 120 81 40 10 15
        e 120 91 3c 7f 15
        e 0 91 43 7f 13
        e 360 81 3c 01 -9
        e 0 81 43 28 -28
        e 120 91 43 7f -6
        e 0 91 47 7f -12
        e 360 81 43 1c -53
        e 120 81 47 2a -53
        e 0 91 3e 7f 5
        e 0 91 43 7f -3
        e 360 81 3e 01 -20
        e 0 81 43 01 -12
        e 120 91 48 7f -22
        e 240 81 48 24 -19
        e 0 91 43 7f 55
        e 240 81 43 2e -19
        e 0 91 40 7f -6
        e 240 81 40 10 -30
        e 0 91 43 7f 55
        e 240 81 43 02 -9
        e 0 91 48 7f -15
        e 360 81 48 01 9
        e 120 91 45 7f -8
        e 120 81 45 2c 19
        e 0 91 43 7f 20
        e 120 81 43 3c 39
        e 0 91 45 7f 49
        e 240 81 45 01 -43
        e 0 91 43 7f 5
        e 360 81 43 2f -2
        e 120 91 40 7f -9
        e 0 91 43 7f -8
        e 360 81 40 01 -13
        e 0 81 43 19 -41
        e 120 91 43 7f -2
        e 0 91 47 7f -6
        e 240 81 43 36 57
        e 120 81 47 2a 44
        e 120 91 3e 7f -1
        e 0 91 43 7f
        e 240 81 3e 0b -44
        e 0 81 43 28 -53
        e 120 91 3e 7f -34
        e 0 91 43 7f -36
        e 120 81 3e 27 -105
        e 0 81 43 3e -60
        e 0 91 40 7f 1
        e 0 91 43 7f 4
        e 360 81 40 2e 24
        e 0 81 43 29 9
        e 120 91 43 7f -3
        e 120 81 43 35 9
        e 0 91 40 7f 20
        e 120 91 43 7f 43
        e 120 81 40 0d -55
        e 120 81 43 3e -20
        e 0 91 3c 7f -5
        e 360 81 3c 08 -45
        e 120 91 43 7f -8
        e 120 81 43 20 -12
        e 0 91 40 7f 26
        e 120 81 40 20 33
        e 0 91 43 7f 33
        e 120 81 43 42 31
        e 120 91 40 7f -11
        e 0 91 43 7f -11
        e 240 81 40 24 51
        e 120 81 43 2d -25
        e 120 91 3c 7f -10
        e 0 91 43 7f -10
        e 360 81 3c 0a 37
        e 0 81 43 13 -28
        e 120 91 43 7f -5
        e 0 91 47 7f -4
        e 360 81 43 01 -51
        e 120 81 47 1f -60
        e 0 91 3e 7f 10
        e 0 91 43 7f 5
        e 120 81 3e 01 30
        e 0 81 43 2a 18
        e 120 91 3e 7f 6
        e 0 91 43 7f -2
        e 120 81 43 3d -26
        e 120 81 3e 07 4
        e 0 91 48 7f 23
        e 360 81 48 35 -60
        e 0 91 43 7f -9
        e 120 81 43 47 -1
        e 0 91 40 7f 7
        e 240 81 40 11 10
        e 120 91 43 7f -30
        e 120 81 43 01 -4
        e 0 91 48 7f 3
        e 360 81 48 26 14
        e 120 91 45 7f 10
        e 120 81 45 29 25
        e 0 91 43 7f 33
        e 120 81 43 01 44
        e 0 91 45 7f 59
        e 240 81 45 24 -25
        e 0 91 43 7f 17
        e 360 81 43 3c 21
        e 120 91 43 7f 14
        e 360 81 43 02 50
        e 120 91 41 7f 18
        e 0 91 47 7f 18
        e 240 81 41 23 59
        e 240 81 47 0a -12
        e 0 91 3e 7f 19
        e 0 91 41 7f 12
        e 240 81 3e 27 -14
        e 0 81 41 30 -23
        e 120 91 3e 7f -25
        e 0 91 41 7f -33
        e 120 81 3e 25 -5
        e 0 81 41 3a -81
        e 0 91 40 7f 11
        e 0 91 43 7f 50
        e 360 81 40 18 37
        e 0 81 43 3b 24
        e 120 91 43 7f -1
        e 120 81 43 40 21
        e 0 91 40 7f 36
        e 120 81 40 1c 45
        e 0 91 43 7f 47
        e 240 81 43 2e -45
        e 0 91 40 7f -14
        e 360 81 40 01 58
        e 600 91 3b 7f 4
        e 0 91 3e 7f
        e 360 81 3b 3e 35
        e 0 81 3e 1e 28
        e 120 91 3c 7f 23
        e 0 91 3e 7f 24
        e 360 81 3c 2a 8
        e 0 81 3e 30 33
        e 120 91 3b 7f 12
        e 0 91 3e 7f 3
        e 360 81 3b 28 20
        e 120 81 3e 01 -34
        e 0 91 3b 7f -14
        e 480 81 3b 12 -50
        e 0 91 3e 7f -14
        e 360 81 3e 28 5
        e 120 91 3e 7f 1
        e 0 91 42 7f -5
        e 360 81 3e 25 -6
        e 0 81 42 2f 29
        e 120 91 3e 7f 1
        e 0 91 43 7f 10
        e 360 81 3e 1f 11
        e 120 81 43 2f 1
        e 0 91 3b 7f -1
        e 0 91 3e 7f -4
        e 360 81 3b 10 -27
        e 0 81 3e 01 -26
        e 120 91 3b 7f 31
        e 0 91 3e 7f 16
        e 360 81 3e 07 4
        e 120 81 3b 25 -40
        e 0 91 3c 7f 8
        e 0 91 3e 7f 7
        e 360 81 3e 1e -31
        e 120 81 3c 2e -44
        e 0 91 3b 7f 19
        e 0 91 3e 7f 8
        e 360 81 3b 2a 21
        e 120 81 3e 09 4
        e 0 91 3b 7f
        e 360 81 3b 12 -12
        e 120 91 3c 7f -26
        e 0 91 40 7f -19
        e 240 81 40 1c 57
        e 120 81 3c 27 24
        e 120 91 3c 7f 29
        e 0 91 3e 7f 21
        e 0 91 42 7f -14
        e 360 81 3c 29 37
        e 0 81 3e 27 4
        e 120 81 42 19 -3
        e 0 91 3b 7f 15
        e 0 91 3e 7f 13
        e 720 81 3b 19 24
        e 0 81 3e 25 17
        e 240 91 3b 7f 3
        e 0 91 3e 7f 5
        e 360 81 3b 1f 56
        e 0 81 3e 0d -18
        e 120 91 3c 7f -6
        e 0 91 3e 7f -4
        e 360 81 3c 28 58
        e 0 81 3e 01 -52
        e 120 91 3b 7f 1
        e 0 91 3e 7f -5
        e 360 81 3b 35 -26
        e 120 81 3e 35 -47
        e 0 91 37 7f 13
        e 0 91 3b 7f 12
        e 360 81 37 01 -33
        e 0 81 3b 15 2
        e 120 91 3e 7f -3
        e 120 91 3c 7f -49
        e 120 81 3c 4c -139
        e 120 81 3e 34 9
        e 120 91 3e 7f -18
        e 0 91 42 7f -27
        e 360 81 3e 07 -16
        e 0 81 42 01 49
        e 120 91 3e 7f 11
        e 0 91 43 7f 5
        e 240 81 3e 10 -32
        e 240 81 43 43 -45
        e 0 91 3b 7f -25
        e 0 91 3e 7f -27
        e 240 81 3b 29 48
        e 0 81 3e 33 43
        e 240 91 3b 7f -2
        e 0 91 3e 7f -4
        e 360 81 3b 27 30
        e 0 81 3e 29 -26
        e 120 91 3c 7f -10
        e 0 91 3e 7f -13
        e 360 81 3c 04 50
        e 0 81 3e 20 -51
        e 120 91 3b 7f 1
        e 0 91 3e 7f 7
        e 360 81 3b 05 -26
        e 120 81 3e 3e -26
        e 0 91 37 7f 10
        e 0 91 3b 7f 11
        e 360 81 37 01 12
        e 0 81 3b 49 -53
        e 120 91 3c 7f 9
        e 0 91 40 7f 18
        e 240 81 40 18 46
        e 120 81 3c 3c 29
        e 120 91 3c 7f 8
        e 0 91 42 7f
        e 360 81 3c 23 -2
        e 0 81 42 2a 24
        e 120 91 3b 7f 19
        e 0 91 3e 7f 16
        e 1440 81 3b 52 19
        e 0 81 3e 4c 16
        E 480 b0 7b 00
        GUID {8A316A33-6F8A-5F4D-97F4-A1D73203C20B}
        IGNTEMPO 0 120 4 4
        SRCCOLOR 439
        VELLANE -1 86 6
        CFGEDITVIEW 0 0 78 8 0 0 0 0 0 0.5
        KEYSNAP 0
        TRACKSEL 226
        EVTFILTER 0 -1 -1 -1 -1 0 0 0 0 -1 -1 -1 -1 0 -1 0 -1 -1
        CFGEDIT 1 0 0 0 0 0 1 0 1 1 1 0.16666667 32 48 1280 470 0 0 2 3 0.25 0 0 0 0 -0.44 0 0 1 64
      >
      TAKE
      NAME "fr. horn(s) - National_Anthems_-_Philippines.mid"
      TAKEVOLPAN 0 1 -1
      SOFFS 48 96
      PLAYRATE 1 1 0 -1 0 0.0025
      CHANMODE 0
      GUID {0FE50958-CEF3-CE4A-B17B-D4D94308735A}
      <SOURCE MIDI
        HASDATA 1 480 QN
        POOLEDEVTS {2B33D182-8C01-3A48-AE73-2E083727031E}
        <X 0 0 0 0 3 "fr. horn(s)"
          /wNmci4gaG9ybihzKQ==
        >
        <X 0 0 0 0 4 "Sound Canvas"
          /wRTb3VuZCBDYW52YXM=
        >
        E 0 91 3e 4c
        E 4 91 3b 43
        E 384 81 3e 1e
        E 7 81 3b 3e
        E 108 91 3c 4c
        E 1 91 3e 4f
        E 344 81 3c 2a
        E 25 81 3e 30
        E 90 91 3e 4c
        E 9 91 3b 4c
        E 368 81 3b 28
        E 66 81 3e 01
        E 20 91 3b 4b
        E 444 81 3b 12
        E 36 91 3e 53
        E 379 81 3e 28
        E 110 91 42 48
        E 6 91 3e 4a
        E 353 81 3e 25
        E 35 81 42 2f
        E 92 91 3e 4c
        E 9 91 43 55
        E 361 81 3e 1f
        E 105 91 3e 44
        E 3 91 3b 3c
        E 2 81 43 2f
        E 332 81 3b 10
        E 1 81 3e 01
        E 162 91 3e 47
        E 15 91 3b 18
        E 333 81 3e 07
        E 76 81 3b 25
        E 47 91 3e 42
        E 1 91 3c 40
        E 321 81 3e 1e
        E 107 81 3c 2e
        E 52 91 3e 46
        E 11 91 3b 46
        E 362 81 3b 2a
        E 99 91 3b 41
        E 4 81 3e 09
        E 344 81 3b 12
        E 106 91 3c 3f
        E 7 91 40 43
        E 316 81 40 1c
        E 87 81 3c 27
        E 82 91 42 48
        E 35 91 3e 2b
        E 8 91 3c 13
        E 335 81 3e 27
        E 33 81 3c 29
        E 80 81 42 19
        E 16 91 3e 4e
        E 2 91 3b 3e
        E 722 81 3e 25
        E 7 81 3b 19
        E 219 91 3b 3f
        E 2 91 3e 4a
        E 337 81 3e 0d
        E 74 81 3b 1f
        E 58 91 3c 4e
        E 2 91 3e 47
        E 312 81 3e 01
        E 110 81 3c 28
        E 57 91 3e 47
        E 6 91 3b 46
        E 333 81 3b 35
        E 99 81 3e 35
        E 59 91 3b 49
        E 1 91 37 38
        E 314 81 37 01
        E 35 81 3b 15
        E 115 91 3e 43
        E 74 91 3c 4a
        E 30 81 3c 4c
        E 268 81 3e 34
        E 84 91 42 48
        E 9 91 3e 4c
        E 362 81 3e 07
        E 65 81 42 01
        E 76 91 43 54
        E 6 91 3e 3e
        E 197 81 3e 10
        E 227 81 43 43
        E 18 91 3e 4a
        E 2 91 3b 3a
        E 308 81 3e 33
        E 5 81 3b 29
        E 188 91 3e 37
        E 2 91 3b 48
        E 336 81 3e 29
        E 56 81 3b 27
        E 77 91 3e 46
        E 3 91 3c 41
        E 319 81 3e 20
        E 101 81 3c 04
        E 71 91 3b 44
        E 6 91 3e 45
        E 327 81 3b 05
        E 120 81 3e 3e
        E 36 91 37 2e
        E 1 91 3b 48
        E 296 81 3b 49
        E 65 81 37 01
        E 117 91 3c 49
        E 9 91 40 49
        E 268 81 40 18
        E 103 81 3c 3c
        E 91 91 42 4c
        E 8 91 3c 49
        E 350 81 3c 23
        E 26 81 42 2a
        E 112 91 3e 24
        E 3 91 3b 36
        E 449 81 3e 4c
        E 4 91 3b 37
        E 2 91 3e 38
        E 1 81 3b 52
        E 289 81 3e 01
        E 85 81 3b 01
        E 103 91 42 47
        E 4 91 3e 41
        E 361 81 3e 21
        E 27 81 42 1a
        E 99 91 3c 4a
        E 404 81 3c 01
        E 75 91 42 49
        E 0 91 3e 4a
        E 314 81 3e 32
        E 26 81 42 01
        E 158 91 3c 46
        E 274 81 3c 11
        E 188 91 43 5e
        E 218 81 43 2e
        E 89 91 45 56
        E 149 81 45 01
        E 30 91 47 53
        E 189 81 47 1c
        E 116 91 48 4d
        E 133 81 48 32
        E 28 91 47 50
        E 369 81 47 08
        E 126 91 3e 3b
        E 1 91 3b 3d
        E 335 81 3e 26
        E 69 81 3b 01
        E 38 91 42 48
        E 17 91 3e 42
        E 293 81 42 13
        E 5 81 3e 16
        E 183 91 3c 3d
        E 354 81 3c 20
        E 107 91 42 3e
        E 6 91 3e 43
        E 300 81 3e 01
        E 46 81 42 22
        E 162 91 3c 45
        E 279 81 3c 07
        E 181 91 43 42
        E 5 91 3e 3b
        E 291 81 43 01
        E 36 81 3e 01
        E 134 91 42 47
        E 20 91 3c 41
        E 307 81 3c 23
        E 119 81 42 01
        E 34 91 3b 37
        E 0 91 3e 4f
        E 362 81 3e 13
        E 9 81 3b 30
        E 128 91 3e 32
        E 1 91 3b 38
        E 267 81 3e 03
        E 116 81 3b 0c
        E 92 91 42 49
        E 10 91 3e 4b
        E 301 81 3e 10
        E 25 81 42 01
        E 150 91 3c 43
        E 363 81 3c 1c
        E 116 91 42 48
        E 7 91 3e 3a
        E 258 81 42 01
        E 27 81 3e 01
        E 198 91 3c 52
        E 376 81 3c 01
        E 108 91 43 67
        E 197 81 43 22
        E 103 91 45 57
        E 147 81 45 0b
        E 23 91 47 58
        E 177 81 47 11
        E 124 91 48 51
        E 131 81 48 32
        E 35 91 47 54
        E 352 81 47 25
        E 153 91 3b 37
        E 4 91 3e 45
        E 301 81 3e 0e
        E 126 81 3b 14
        E 17 91 42 48
        E 5 91 3e 45
        E 257 81 3e 23
        E 40 81 42 15
        E 197 91 3c 46
        E 335 81 3c 24
        E 130 91 42 44
        E 9 91 3e 45
        E 255 81 3e 0b
        E 25 81 42 01
        E 200 91 3c 4b
        E 299 81 3c 07
        E 172 91 43 4c
        E 10 91 3e 41
        E 320 81 43 10
        E 20 81 3e 12
        E 130 91 42 24
        E 0 91 3c 42
        E 306 81 3c 23
        E 107 81 42 1d
        E 63 91 3e 48
        E 5 91 3b 47
        E 299 81 3e 01
        E 54 81 3b 01
        E 148 91 43 64
        E 156 81 43 43
        E 3 91 40 59
        E 137 91 43 63
        E 24 81 40 13
        E 60 81 43 28
        E 106 91 40 52
        E 1 91 43 55
        E 290 81 43 04
        E 77 81 40 10
        E 118 91 43 52
        E 2 91 3c 46
        E 317 81 43 28
        E 19 81 3c 01
        E 117 91 47 44
        E 6 91 43 4f
        E 313 81 43 1c
        E 120 81 47 2a
        E 50 91 43 4a
        E 8 91 3e 3d
        E 335 81 3e 01
        E 8 81 43 01
        E 110 91 48 52
        E 243 81 48 24
        E 74 91 43 5c
        E 166 81 43 2e
        E 13 91 40 58
        E 216 81 40 10
        E 85 91 43 5a
        E 170 91 48 53
        E 6 81 43 02
        E 378 81 48 01
        E 103 91 45 53
        E 147 81 45 2c
        E 1 91 43 60
        E 139 81 43 3c
        E 10 91 45 53
        E 148 81 45 01
        E 48 91 43 5e
        E 353 81 43 2f
        E 113 91 40 49
        E 1 91 43 57
        E 327 81 43 19
        E 28 81 40 01
        E 127 91 47 4e
        E 4 91 43 50
        E 299 81 43 36
        E 107 81 47 2a
        E 75 91 3e 4c
        E 1 91 43 41
        E 187 81 43 28
        E 9 81 3e 0b
        E 128 91 43 4d
        E 2 91 3e 45
        E 49 81 3e 27
        E 45 81 43 3e
        E 61 91 40 4b
        E 3 91 43 50
        E 365 81 43 29
        E 15 81 40 2e
        E 93 91 43 5c
        E 132 81 43 35
        E 11 91 40 5b
        E 143 91 43 5a
        E 22 81 40 0d
        E 155 81 43 3e
        E 15 91 3c 52
        E 320 81 3c 08
        E 157 91 43 64
        E 116 81 43 20
        E 38 91 40 58
        E 127 81 40 20
        E 0 91 43 62
        E 118 81 43 42
        E 78 91 40 4d
        E 0 91 43 61
        E 302 81 40 24
        E 44 81 43 2d
        E 135 91 43 5f
        E 0 91 3c 41
        E 342 81 43 13
        E 65 81 3c 0a
        E 78 91 43 5d
        E 1 91 47 55
        E 313 81 43 01
        E 111 81 47 1f
        E 65 91 43 59
        E 5 91 3e 50
        E 128 81 43 2a
        E 12 81 3e 01
        E 88 91 43 57
        E 8 91 3e 53
        E 88 81 43 3d
        E 150 81 3e 07
        E 19 91 48 5b
        E 277 81 48 35
        E 51 91 43 67
        E 128 81 43 47
        E 8 91 40 59
        E 243 81 40 11
        E 80 91 43 57
        E 146 81 43 01
        E 7 91 48 5a
        E 371 81 48 26
        E 116 91 45 5a
        E 135 81 45 29
        E 8 91 43 58
        E 131 81 43 01
        E 15 91 45 4e
        E 156 81 45 24
        E 42 91 43 47
        E 364 81 43 3c
        E 113 91 43 5e
        E 396 81 43 02
        E 88 91 47 4b
        E 0 91 41 4a
        E 281 81 41 23
        E 169 81 47 0a
        E 24 91 41 4f
        E 7 91 3e 47
        E 198 81 41 30
        E 9 81 3e 27
        E 101 91 41 4d
        E 8 91 3e 52
        E 64 81 41 3a
        E 76 81 3e 25
        E 16 91 40 4d
        E 39 91 43 01
        E 334 81 43 3b
        E 13 81 40 18
        E 82 91 43 65
        E 142 81 43 40
        E 15 91 40 59
        E 129 81 40 1c
        E 2 91 43 5f
        E 148 81 43 2e
        E 31 91 40 52
        E 432 81 40 01
        E 542 91 3e 4c
        E 4 91 3b 43
        E 384 81 3e 1e
        E 7 81 3b 3e
        E 108 91 3c 4c
        E 1 91 3e 4f
        E 344 81 3c 2a
        E 25 81 3e 30
        E 90 91 3e 4c
        E 9 91 3b 4c
        E 368 81 3b 28
        E 66 81 3e 01
        E 20 91 3b 4b
        E 444 81 3b 12
        E 36 91 3e 53
        E 379 81 3e 28
        E 110 91 42 48
        E 6 91 3e 4a
        E 353 81 3e 25
        E 35 81 42 2f
        E 92 91 3e 4c
        E 9 91 43 55
        E 361 81 3e 1f
        E 105 91 3e 44
        E 3 91 3b 3c
        E 2 81 43 2f
        E 332 81 3b 10
        E 1 81 3e 01
        E 162 91 3e 47
        E 15 91 3b 18
        E 333 81 3e 07
        E 76 81 3b 25
        E 47 91 3e 42
        E 1 91 3c 40
        E 321 81 3e 1e
        E 107 81 3c 2e
        E 52 91 3e 46
        E 11 91 3b 46
        E 362 81 3b 2a
        E 99 91 3b 41
        E 4 81 3e 09
        E 344 81 3b 12
        E 106 91 3c 3f
        E 7 91 40 43
        E 316 81 40 1c
        E 87 81 3c 27
        E 82 91 42 48
        E 35 91 3e 2b
        E 8 91 3c 13
        E 335 81 3e 27
        E 33 81 3c 29
        E 80 81 42 19
        E 16 91 3e 4e
        E 2 91 3b 3e
        E 722 81 3e 25
        E 7 81 3b 19
        E 219 91 3b 3f
        E 2 91 3e 4a
        E 337 81 3e 0d
        E 74 81 3b 1f
        E 58 91 3c 4e
        E 2 91 3e 47
        E 312 81 3e 01
        E 110 81 3c 28
        E 57 91 3e 47
        E 6 91 3b 46
        E 333 81 3b 35
        E 99 81 3e 35
        E 59 91 3b 49
        E 1 91 37 38
        E 314 81 37 01
        E 35 81 3b 15
        E 115 91 3e 43
        E 74 91 3c 4a
        E 30 81 3c 4c
        E 268 81 3e 34
        E 84 91 42 48
        E 9 91 3e 4c
        E 362 81 3e 07
        E 65 81 42 01
        E 76 91 43 54
        E 6 91 3e 3e
        E 197 81 3e 10
        E 227 81 43 43
        E 18 91 3e 4a
        E 2 91 3b 3a
        E 308 81 3e 33
        E 5 81 3b 29
        E 188 91 3e 37
        E 2 91 3b 48
        E 336 81 3e 29
        E 56 81 3b 27
        E 77 91 3e 46
        E 3 91 3c 41
        E 319 81 3e 20
        E 101 81 3c 04
        E 71 91 3b 44
        E 6 91 3e 45
        E 327 81 3b 05
        E 120 81 3e 3e
        E 36 91 37 2e
        E 1 91 3b 48
        E 296 81 3b 49
        E 65 81 37 01
        E 117 91 3c 49
        E 9 91 40 49
        E 268 81 40 18
        E 103 81 3c 3c
        E 91 91 42 4c
        E 8 91 3c 49
        E 350 81 3c 23
        E 26 81 42 2a
        E 112 91 3e 24
        E 3 91 3b 36
        E 1437 81 3e 4c
        E 3 81 3b 52
        E 461 b0 7b 00
        GUID {FF3C3C87-DAC3-6F40-8652-9B1FA5F8F62C}
        IGNTEMPO 0 120 4 4
        SRCCOLOR 440
        VELLANE -1 86 6
        CFGEDITVIEW 0 0 78 8 0 0 0 0 0 0.5
        KEYSNAP 0
        TRACKSEL 226
        EVTFILTER 0 -1 -1 -1 -1 0 0 0 0 -1 -1 -1 -1 0 -1 0 -1 -1
        CFGEDIT 1 0 0 0 0 0 1 0 1 1 1 0.16666667 32 48 1280 470 0 0 2 3 0.25 0 0 0 0 -0.44 0 0 1 64
      >
    >
    <ITEM
      POSITION 48
      SNAPOFFS 0
      LENGTH 16.5
      LOOP 1
      ALLTAKES 0
      FADEIN 1 0 0 1 0 0
      FADEOUT 1 0 0 1 0 0
      MUTE 0
      SEL 0
      YPOS 0.798283 0.201717
      IGUID {C870C38C-88F3-434F-9AFB-288FC69D0BDE}
      IID 22
      NAME "tuba(s) - National_Anthems_-_Philippines.mid"
      VOLPAN 1 0 1 -1
      SOFFS 48 96
      PLAYRATE 1 1 0 -1 0 0.0025
      CHANMODE 0
      TAKECOLOR 26173599 B
      GUID {A1C1AA2B-6396-D44F-A94E-5D83A0F482E1}
      <SOURCE MIDI
        HASDATA 1 480 QN
        POOLEDEVTS {1ADD5D35-EE33-C847-B000-101AC1C9D4E6}
        <X 0 0 0 0 3 tuba(s)
          /wN0dWJhKHMp
        >
        <X 0 0 0 0 4 "Sound Canvas"
          /wRTb3VuZCBDYW52YXM=
        >
        e 0 93 2b 7f
        e 240 83 2b 01 1
        e 240 93 26 7f 16
        e 360 83 26 01 -41
        e 120 93 2b 7f
        e 360 83 2b 01 -10
        e 120 93 1f 7f 1
        e 360 83 1f 3c -30
        e 120 93 2a 7f 7
        e 360 83 2a 01 -17
        e 120 93 26 7f -6
        e 240 83 26 01 53
        e 240 93 2b 7f 5
        e 360 83 2b 06 11
        e 120 93 1f 7f 13
        e 360 83 1f 36 2
        e 120 93 2b 7f 21
        e 360 83 2b 02 8
        e 120 93 26 7f 1
        e 360 83 26 17 -53
        e 120 93 2b 7f -1
        e 360 83 2b 0a -12
        e 120 93 1f 7f -6
        e 240 83 1f 02 57
        e 240 93 24 7f -9
        e 360 83 24 1f 2
        e 120 93 26 7f -20
        e 360 83 26 01 15
        e 120 93 2b 7f -4
        e 360 83 2b 01 9
        e 120 93 1f 7f -3
        e 360 83 1f 35 -57
        e 120 93 2b 7f 8
        e 360 83 2b 01 -11
        e 120 93 26 7f -4
        e 360 83 26 04 -35
        e 120 93 2b 7f -7
        e 360 83 2b 01 -41
        e 120 93 1f 7f -10
        e 360 83 1f 26 -38
        e 120 93 2a 7f 5
        e 360 83 2a 09 -60
        e 120 93 26 7f -19
        e 240 83 26 23 43
        e 240 93 2b 7f 9
        e 360 83 2b 12 -19
        e 120 93 1f 7f 17
        e 360 83 1f 07 -22
        e 120 93 2b 7f 17
        e 360 83 2b 04 18
        e 120 93 26 7f 19
        e 360 83 26 2b -36
        e 120 93 2b 7f -11
        e 360 83 2b 01 35
        e 120 93 1f 7f -5
        e 360 83 1f 1f -24
        e 120 93 24 7f 26
        e 360 83 24 21 26
        e 120 93 26 7f -19
        e 360 83 26 01 4
        e 120 93 2b 7f
        e 360 83 2b 01 -15
        e 120 93 1f 7f 1
        e 360 83 1f 01 35
        e 120 93 26 7f -3
        e 360 83 26 02 -50
        e 120 93 26 7f 4
        e 240 83 26 23 20
        e 240 93 26 7f -3
        e 240 83 26 1a 31
        e 240 93 26 7f -7
        e 240 83 26 09 52
        e 240 93 1f 7f 2
        e 360 83 1f 06 27
        e 120 93 2b 7f 4
        e 240 83 2b 1d 44
        e 240 93 2b 7f -10
        e 360 83 2b 01 -29
        e 120 93 1f 7f -12
        e 360 83 1f 21 13
        e 120 93 26 7f -17
        e 240 83 26 01 -16
        e 240 93 26 7f -18
        e 360 83 26 0d -53
        e 120 93 26 7f -21
        e 240 83 26 01 -5
        e 240 93 26 7f -25
        e 240 83 26 25 -18
        e 240 93 26 7f -21
        e 240 83 26 2e 4
        e 240 93 26 7f -24
        e 360 83 26 1d -54
        e 120 93 1f 7f -33
        e 360 83 1f 02 -14
        e 120 93 1f 7f
        e 360 83 1f 24 -5
        e 120 93 26 7f -4
        e 240 83 26 17 48
        e 240 93 26 7f -9
        e 240 83 26 21 38
        e 240 93 26 7f -5
        e 240 83 26 29 11
        e 240 93 26 7f -10
        e 240 83 26 0b 36
        e 240 93 1f 7f -13
        e 360 83 1f 01 -36
        e 120 93 2b 7f 6
        e 360 83 2b 01 -48
        e 120 93 2b 7f
        e 360 83 2b 05 16
        e 120 93 1f 7f 11
        e 360 83 1f 01 52
        e 120 93 26 7f -14
        e 240 83 26 01 38
        e 240 93 26 7f -14
        e 240 83 26 27 4
        e 240 93 26 7f -28
        e 240 83 26 12 36
        e 240 93 26 7f -10
        e 240 83 26 20 17
        e 240 93 26 7f -31
        e 240 83 26 17 -14
        e 240 93 26 7f -40
        e 240 83 26 01 28
        e 240 93 1f 7f -18
        e 360 83 1f 28 17
        e 120 93 2b 7f -4
        e 120 83 2b 2a 52
        e 0 93 28 7f 44
        e 240 83 28 24 -51
        e 0 93 2b 7f -48
        e 120 83 2b 03 -38
        e 0 93 24 7f 24
        e 360 83 24 30 42
        e 120 93 28 7f
        e 360 83 28 01 33
        e 120 93 2b 7f 12
        e 360 83 2b 15 24
        e 120 93 2f 7f -5
        e 360 83 2f 01 24
        e 120 93 24 7f -23
        e 240 83 24 06 -37
        e 120 93 2b 7f -60
        e 120 83 2b 17 -54
        e 0 93 28 7f -6
        e 240 83 28 22 -37
        e 0 93 2b 7f 44
        e 240 83 2b 01 -18
        e 0 93 30 7f 4
        e 360 83 30 10 15
        e 120 93 26 7f 1
        e 120 83 26 41 36
        e 0 93 28 7f 33
        e 240 83 28 33 -48
        e 0 93 29 7f -58
        e 120 83 29 2f -52
        e 0 93 2b 7f -9
        e 360 83 2b 01 38
        e 120 93 1f 7f 4
        e 360 83 1f 35 32
        e 120 93 1f 7f -3
        e 480 83 1f 01 -24
        e 0 93 2b 7f -5
        e 240 83 2b 18 -43
        e 0 93 2b 7f 55
        e 240 83 2b 48 -37
        e 0 93 24 7f
        e 360 83 24 14 26
        e 120 93 2b 7f -6
        e 120 83 2b 32 30
        e 0 93 28 7f 20
        e 120 83 28 39 49
        e 0 93 2b 7f 52
        e 240 83 2b 15 -36
        e 0 93 24 7f -5
        e 360 83 24 45 -54
        e 120 93 2b 7f -15
        e 120 83 2b 2f 44
        e 0 93 28 7f 31
        e 120 83 28 2b 55
        e 0 93 2b 7f 59
        e 240 83 2b 24 4
        e 0 93 24 7f 6
        e 360 83 24 1c 24
        e 120 93 28 7f 7
        e 480 83 28 01 -47
        e 0 93 2b 7f 13
        e 360 83 2b 01 45
        e 120 93 2f 7f 3
        e 360 83 2f 01 -8
        e 120 93 24 7f -10
        e 240 83 24 2e -10
        e 120 93 2b 7f -37
        e 120 83 2b 01 -17
        e 0 93 28 7f -1
        e 240 83 28 25 -16
        e 120 93 2b 7f -47
        e 120 83 2b 1c 2
        e 0 93 30 7f 5
        e 360 83 30 01 12
        e 120 93 26 7f 10
        e 120 83 26 45 26
        e 0 93 28 7f 30
        e 120 83 28 2e 17
        e 120 93 29 7f -54
        e 120 83 29 31 -73
        e 0 93 2b 7f -8
        e 360 83 2b 01 29
        e 120 93 1f 7f 21
        e 360 83 1f 27 47
        e 120 93 2b 7f 12
        e 360 83 2b 04 13
        e 120 93 1f 7f -16
        e 360 83 1f 01 4
        e 120 93 24 7f 8
        e 360 83 24 22 31
        e 120 93 2b 7f 14
        e 120 83 2b 28 37
        e 0 93 28 7f 31
        e 120 83 28 29 56
        e 0 93 2b 7f 59
        e 240 83 2b 22 -35
        e 0 93 24 7f -13
        e 480 83 24 5a -7
        e 480 93 2b 7f
        e 240 83 2b 01 1
        e 240 93 26 7f 16
        e 360 83 26 01 -41
        e 120 93 2b 7f
        e 360 83 2b 01 -10
        e 120 93 1f 7f 1
        e 360 83 1f 3c -30
        e 120 93 2a 7f 7
        e 360 83 2a 01 -17
        e 120 93 26 7f -6
        e 240 83 26 01 53
        e 240 93 2b 7f 5
        e 360 83 2b 06 11
        e 120 93 1f 7f 13
        e 360 83 1f 36 2
        e 120 93 2b 7f 21
        e 360 83 2b 02 8
        e 120 93 26 7f 1
        e 360 83 26 17 -53
        e 120 93 2b 7f -1
        e 360 83 2b 0a -12
        e 120 93 1f 7f -6
        e 240 83 1f 02 57
        e 240 93 24 7f -9
        e 360 83 24 1f 2
        e 120 93 26 7f -20
        e 360 83 26 01 15
        e 120 93 2b 7f -4
        e 360 83 2b 01 9
        e 120 93 1f 7f -3
        e 360 83 1f 35 -57
        e 120 93 2b 7f 8
        e 360 83 2b 01 -11
        e 120 93 26 7f -4
        e 360 83 26 04 -35
        e 120 93 2b 7f -7
        e 360 83 2b 01 -41
        e 120 93 1f 7f -10
        e 360 83 1f 26 -38
        e 120 93 2a 7f 5
        e 360 83 2a 09 -60
        e 120 93 26 7f -19
        e 240 83 26 23 43
        e 240 93 2b 7f 9
        e 360 83 2b 12 -19
        e 120 93 1f 7f 17
        e 360 83 1f 07 -22
        e 120 93 2b 7f 17
        e 360 83 2b 04 18
        e 120 93 26 7f 19
        e 360 83 26 2b -36
        e 120 93 2b 7f -11
        e 360 83 2b 01 35
        e 120 93 1f 7f -5
        e 360 83 1f 1f -24
        e 120 93 24 7f 26
        e 360 83 24 21 26
        e 120 93 26 7f -19
        e 360 83 26 01 4
        e 120 93 2b 7f
        e 1440 83 2b 01 -1
        E 0 b0 7b 00
        GUID {23237C10-7454-3546-B5FD-427C9FCC1DD2}
        IGNTEMPO 0 120 4 4
        SRCCOLOR 441
        VELLANE -1 86 6
        CFGEDITVIEW 0 0 78 8 0 0 0 0 0 0.5
        KEYSNAP 0
        TRACKSEL 226
        EVTFILTER 0 -1 -1 -1 -1 0 0 0 0 -1 -1 -1 -1 0 -1 0 -1 -1
        CFGEDIT 1 0 0 0 0 0 1 0 1 1 1 0.16666667 32 48 1280 470 0 0 2 3 0.25 0 0 0 0 -0.44 0 0 1 64
      >
      TAKE
      NAME "tuba(s) - National_Anthems_-_Philippines.mid"
      TAKEVOLPAN 0 1 -1
      SOFFS 48 96
      PLAYRATE 1 1 0 -1 0 0.0025
      CHANMODE 0
      GUID {90FCC4E4-44D2-1F41-980C-6DBE3EF83271}
      <SOURCE MIDI
        HASDATA 1 480 QN
        POOLEDEVTS {9AD7CA6F-9CBE-7543-876E-DFAC37E3BA14}
        <X 0 0 0 0 3 tuba(s)
          /wN0dWJhKHMp
        >
        <X 0 0 0 0 4 "Sound Canvas"
          /wRTb3VuZCBDYW52YXM=
        >
        E 0 93 2b 5c
        E 241 83 2b 01
        E 255 93 26 62
        E 303 83 26 01
        E 161 93 2b 53
        E 350 83 2b 01
        E 131 93 1f 65
        E 329 83 1f 3c
        E 157 93 2a 5f
        E 336 83 2a 01
        E 131 93 26 62
        E 299 83 26 01
        E 192 93 2b 53
        E 366 83 2b 06
        E 122 93 1f 5e
        E 349 83 1f 36
        E 139 93 2b 52
        E 347 83 2b 02
        E 113 93 26 5d
        E 306 83 26 17
        E 172 93 2b 55
        E 349 83 2b 0a
        E 126 93 1f 65
        E 303 83 1f 02
        E 174 93 24 61
        E 371 83 24 1f
        E 98 93 26 61
        E 395 83 26 01
        E 101 93 2b 5c
        E 373 83 2b 01
        E 108 93 1f 62
        E 306 83 1f 35
        E 185 93 2b 57
        E 341 83 2b 01
        E 127 93 26 62
        E 329 83 26 04
        E 148 93 2b 57
        E 326 83 2b 01
        E 151 93 1f 5d
        E 332 83 1f 26
        E 163 93 2a 53
        E 295 83 2a 09
        E 161 93 26 5e
        E 302 83 26 23
        E 206 93 2b 4b
        E 332 83 2b 12
        E 156 93 1f 62
        E 321 83 1f 07
        E 159 93 2b 58
        E 361 83 2b 04
        E 121 93 26 58
        E 305 83 26 2b
        E 145 93 2b 53
        E 406 83 2b 01
        E 80 93 1f 63
        E 341 83 1f 1f
        E 170 93 24 52
        E 360 83 24 21
        E 75 93 26 5c
        E 383 83 26 01
        E 116 93 2b 54
        E 345 83 2b 01
        E 136 93 1f 52
        E 394 83 1f 01
        E 82 93 26 53
        E 313 83 26 02
        E 174 93 26 51
        E 256 83 26 23
        E 217 93 26 5a
        E 274 83 26 1a
        E 202 93 26 5c
        E 299 83 26 09
        E 190 93 1f 5c
        E 385 83 1f 06
        E 97 93 2b 54
        E 280 83 2b 1d
        E 186 93 2b 52
        E 341 83 2b 01
        E 137 93 1f 5f
        E 385 83 1f 21
        E 90 93 26 5b
        E 241 83 26 01
        E 238 93 26 57
        E 325 83 26 0d
        E 152 93 26 59
        E 256 83 26 01
        E 220 93 26 58
        E 247 83 26 25
        E 237 93 26 53
        E 265 83 26 2e
        E 212 93 26 5d
        E 330 83 26 1d
        E 141 93 1f 5d
        E 379 83 1f 02
        E 134 93 1f 5a
        E 355 83 1f 24
        E 121 93 26 55
        E 292 83 26 17
        E 183 93 26 59
        E 287 83 26 21
        E 197 93 26 55
        E 256 83 26 29
        E 219 93 26 5b
        E 286 83 26 0b
        E 191 93 1f 5a
        E 337 83 1f 01
        E 162 93 2b 53
        E 306 83 2b 01
        E 168 93 2b 53
        E 376 83 2b 05
        E 115 93 1f 59
        E 401 83 1f 01
        E 54 93 26 5c
        E 292 83 26 01
        E 188 93 26 54
        E 258 83 26 27
        E 208 93 26 5b
        E 304 83 26 12
        E 194 93 26 57
        E 267 83 26 20
        E 192 93 26 5a
        E 257 83 26 17
        E 214 93 26 5d
        E 308 83 26 01
        E 194 93 1f 5c
        E 395 83 1f 28
        E 99 93 2b 54
        E 168 93 28 64
        E 8 83 2b 2a
        E 137 83 28 24
        E 3 93 2b 4f
        E 130 83 2b 03
        E 62 93 24 5f
        E 378 83 24 30
        E 78 93 28 5f
        E 393 83 28 01
        E 99 93 2b 54
        E 372 83 2b 15
        E 91 93 2f 57
        E 389 83 2f 01
        E 73 93 24 61
        E 226 83 24 06
        E 97 93 2b 4d
        E 126 83 2b 17
        E 48 93 28 62
        E 209 83 28 22
        E 81 93 2b 53
        E 178 83 2b 01
        E 22 93 30 4c
        E 371 83 30 10
        E 106 93 26 64
        E 152 93 28 61
        E 3 83 26 41
        E 146 93 29 62
        E 10 83 28 33
        E 116 83 29 2f
        E 43 93 2b 5a
        E 407 83 2b 01
        E 86 93 1f 61
        E 388 83 1f 35
        E 85 93 1f 5f
        E 459 83 1f 01
        E 19 93 2b 58
        E 202 83 2b 18
        E 98 93 2b 52
        E 148 83 2b 48
        E 37 93 24 5f
        E 386 83 24 14
        E 88 93 2b 5c
        E 146 93 28 5c
        E 10 83 2b 32
        E 139 83 28 39
        E 3 93 2b 51
        E 152 83 2b 15
        E 31 93 24 4d
        E 311 83 24 45
        E 159 93 2b 5b
        E 166 93 28 57
        E 13 83 2b 2f
        E 131 83 28 2b
        E 4 93 2b 50
        E 185 83 2b 24
        E 2 93 24 60
        E 378 83 24 1c
        E 103 93 28 5f
        E 426 83 28 01
        E 60 93 2b 56
        E 392 83 2b 01
        E 78 93 2f 57
        E 349 83 2f 01
        E 118 93 24 5f
        E 240 83 24 2e
        E 93 93 2b 4d
        E 140 83 2b 01
        E 16 93 28 5c
        E 225 83 28 25
        E 89 93 2b 56
        E 169 83 2b 1c
        E 3 93 30 5f
        E 367 83 30 01
        E 118 93 26 64
        E 136 83 26 45
        E 4 93 28 60
        E 107 83 28 2e
        E 49 93 29 61
        E 101 83 29 31
        E 65 93 2b 60
        E 397 83 2b 01
        E 112 93 1f 53
        E 386 83 1f 27
        E 85 93 2b 57
        E 361 83 2b 04
        E 91 93 1f 62
        E 380 83 1f 01
        E 124 93 24 5f
        E 383 83 24 22
        E 103 93 2b 5e
        E 137 93 28 5e
        E 6 83 2b 28
        E 139 83 28 29
        E 3 93 2b 52
        E 146 83 2b 22
        E 22 93 24 5c
        E 486 83 24 5a
        E 487 93 2b 5c
        E 241 83 2b 01
        E 255 93 26 62
        E 303 83 26 01
        E 161 93 2b 53
        E 350 83 2b 01
        E 131 93 1f 65
        E 329 83 1f 3c
        E 157 93 2a 5f
        E 336 83 2a 01
        E 131 93 26 62
        E 299 83 26 01
        E 192 93 2b 53
        E 366 83 2b 06
        E 122 93 1f 5e
        E 349 83 1f 36
        E 139 93 2b 52
        E 347 83 2b 02
        E 113 93 26 5d
        E 306 83 26 17
        E 172 93 2b 55
        E 349 83 2b 0a
        E 126 93 1f 65
        E 303 83 1f 02
        E 174 93 24 61
        E 371 83 24 1f
        E 98 93 26 61
        E 395 83 26 01
        E 101 93 2b 5c
        E 373 83 2b 01
        E 108 93 1f 62
        E 306 83 1f 35
        E 185 93 2b 57
        E 341 83 2b 01
        E 127 93 26 62
        E 329 83 26 04
        E 148 93 2b 57
        E 326 83 2b 01
        E 151 93 1f 5d
        E 332 83 1f 26
        E 163 93 2a 53
        E 295 83 2a 09
        E 161 93 26 5e
        E 302 83 26 23
        E 206 93 2b 4b
        E 332 83 2b 12
        E 156 93 1f 62
        E 321 83 1f 07
        E 159 93 2b 58
        E 361 83 2b 04
        E 121 93 26 58
        E 305 83 26 2b
        E 145 93 2b 53
        E 406 83 2b 01
        E 80 93 1f 63
        E 341 83 1f 1f
        E 170 93 24 52
        E 360 83 24 21
        E 75 93 26 5c
        E 383 83 26 01
        E 116 93 2b 54
        E 1439 83 2b 01
        E 1 b0 7b 00
        GUID {683F8DFC-CA28-AB4B-931C-DE5ECF2286CC}
        IGNTEMPO 0 120 4 4
        SRCCOLOR 442
        VELLANE -1 86 6
        CFGEDITVIEW 0 0 78 8 0 0 0 0 0 0.5
        KEYSNAP 0
        TRACKSEL 226
        EVTFILTER 0 -1 -1 -1 -1 0 0 0 0 -1 -1 -1 -1 0 -1 0 -1 -1
        CFGEDIT 1 0 0 0 0 0 1 0 1 1 1 0.16666667 32 48 1280 470 0 0 2 3 0.25 0 0 0 0 -0.44 0 0 1 64
      >
    >
  >
  <TRACK {B91E5163-8C2B-404F-8C78-0605AAF52936}
    NAME ChipFront
    PEAKCOL 16576
    BEAT -1
    AUTOMODE 0
    VOLPAN 0.23132300161546 0 -1 -1 1
    MUTESOLO 0 0 0
    IPHASE 0
    ISBUS 0 0
    BUSCOMP 0 0
    SHOWINMIX 1 0.6667 0.698113 1 0.5 0 0 0
    FREEMODE 0
    SEL 0
    REC 0 0 0 0 0 0 0
    VU 2
    TRACKHEIGHT 0 0
    INQ 0 0 0 0.5 100 0 0 100
    NCHAN 2
    FX 1
    TRACKID {B91E5163-8C2B-404F-8C78-0605AAF52936}
    PERF 0
    AUXRECV 2 0 1 0 0 0 0 0 0 -1:U 0 -1 ''
    MIDIOUT -1
    MAINSEND 1 0
    <FXCHAIN
      SHOW 0
      LASTSEL 0
      DOCKED 0
      BYPASS 0 0 0
      <VST "VST: FabFilter Volcano 2 (SC) (FabFilter)" "FabFilter Volcano 2 (SC).vst" 0 "" 1180054068
        NDJWRu9e7f4EAAAAAQAAAAAAAAACAAAAAAAAAAQAAAAAAAAACAAAAAAAAAAEAAAAAQAAAAAAAAACAAAAAAAAAAQAAAAAAAAACAAAAAAAAADcCwAAAAAAAAAAEAA=
        776t3g3wrd4AAAA/AAAAPwAAAD8AAAA/AACAPwAAAAAAAAA/q6qqPq2+aD8AAAA/ig0yPM3MzD0AAAAAAAAAAAAAAAAAAIA/AACAP0Isdj8AAAA/bbDgPZqZGT8AAAAA
        AAAAAOev3zwAAIA/AAAAAAAAgD8AAAA/AAAAAJqZGT8AAAAAAAAAAAAAAAAAAIA/AAAAAAAAgD8AAAA/AAAAAJqZGT8AAAAAAAAAAAAAAAAAAIA/AAAAAKuqqj4ATrI+
        AAAAPwAAAADBykk/XXRRPwAAAACJiIg9AACAP6oXiD4AAAAAAAAAAAAAAAAAAAAAAACAPwAAAAAAAAA/AAAAAAAAAAAAAAAAAAAAPwAAAAAAAAAAAAAAAAAAAD8AAAAA
        AAAAAAAAAAAAAAA/AAAAAAAAAAAAAAAAAAAAPwAAAAAAAAAAAAAAAAAAAD8AAAAAAAAAAAAAAAAAAAA/AAAAAAAAAAAAAAAAAAAAPwAAAAAAAAAAAAAAAAAAAD8AAAAA
        AAAAAAAAAAAAAAA/AAAAAAAAAAAAAAAAAAAAPwAAAAAAAAAAAAAAAAAAAD8AAAAAAAAAAAAAAAAAAAA/AAAAAAAAAAAAAAAAAAAAPwAAAAAAAAAAAAAAAHwZED4AAAA/
        KKO3PQAAgD8AAAAAAAAAAImIiD3y0iU/AAAAAAAAgD8AAAAAdGjRPQAAAAAAAIA/AAAAAAAAAD8AAAAAAAAAAAAAAAAAAAA/AAAAAAAAAAAAAAAAAAAAPwAAAAAAAAAA
        AAAAAAAAAD8AAAAAAAAAAAAAAAAAAAA/AAAAAAAAAAAAAAAAAAAAPwAAAAAAAAAAAAAAAAAAAD8AAAAAAAAAAAAAAAAAAAA/AAAAAAAAAAAAAAAAAAAAPwAAAAAAAAAA
        AAAAAAAAAD8AAAAAAAAAAAAAAAAAAAA/AAAAAAAAAAAAAAAAAAAAPwAAAAAAAAAAAAAAAAAAAD8AAAAAAAAAAAAAAAAAAAA/AAAAAAAAAAAAAAAAvvR9PgAAAD8AAAA/
        AAAAPwAAAAAAAAAAiYiIPQAAAD8AAAAAAAAAAAAAAAAAAAA/AAAAAAAAAAAAAAAAAAAAPwAAAAAAAAAAAAAAAAAAAD8AAAAAAAAAAAAAAAAAAAA/AAAAAAAAAAAAAAAA
        AAAAPwAAAAAAAAAAAAAAAAAAAD8AAAAAAAAAAAAAAAAAAAA/AAAAAAAAAAAAAAAAAAAAPwAAAAAAAAAAAAAAAAAAAD8AAAAAAAAAAAAAAAAAAAA/AAAAAAAAAAAAAAAA
        AAAAPwAAAAAAAAAAAAAAAAAAAD8AAAAAAAAAAAAAAAAAAAA/AAAAAAAAAAAAAAAAAAAAPwAAAAAAAAAAAAAAAAAAAD8AAAAAAAAAAAAAAAC+9H0+AAAAPwAAAD8AAAA/
        AAAAAAAAAACJiIg9AAAAPwAAAAAAAAAAAAAAAAAAAD8AAAAAAAAAAAAAAAAAAAA/AAAAAAAAAAAAAAAAAAAAPwAAAAAAAAAAAAAAAAAAAD8AAAAAAAAAAAAAAAAAAAA/
        AAAAAAAAAAAAAAAAAAAAPwAAAAAAAAAAAAAAAAAAAD8AAAAAAAAAAAAAAAAAAAA/AAAAAAAAAAAAAAAAAAAAPwAAAAAAAAAAAAAAAAAAAD8AAAAAAAAAAAAAAAAAAAA/
        AAAAAAAAAAAAAAAAAAAAPwAAAAAAAAAAAAAAAAAAAD8AAAAAAAAAAAAAAAAAAAA/AAAAAAAAAAAAAAAAAAAAPwAAAAAAAAAAAAAAAL70fT4AAAA/AAAAPwAAAD8AAAAA
        AAAAAImIiD0AAAA/AAAAAAAAAAAAAAAAAAAAPwAAAAAAAAAAAAAAAAAAAD8AAAAAAAAAAAAAAAAAAAA/AAAAAAAAAAAAAAAAAAAAPwAAAAAAAAAAAAAAAAAAAD8AAAAA
        AAAAAAAAAAAAAAA/AAAAAAAAAAAAAAAAAAAAPwAAAAAAAAAAAAAAAAAAAD8AAAAAAAAAAAAAAAAAAAA/AAAAAAAAAAAAAAAAAAAAPwAAAAAAAAAAAAAAAAAAAD8AAAAA
        AAAAAAAAAAAAAAA/AAAAAAAAAAAAAAAAAAAAPwAAAAAAAAAAAAAAAAAAAD8AAAAAAAAAAAAAAAAAAAA/AAAAAAAAAAAAAAAAvvR9PgAAAD8AAAA/AAAAPwAAAAAAAAAA
        iYiIPQAAAD8AAAAAAAAAAAAAAAAAAAA/AAAAAAAAAAAAAAAAAAAAPwAAAAAAAAAAAAAAAAAAAD8AAAAAAAAAAAAAAAAAAAA/AAAAAAAAAAAAAAAAAAAAPwAAAAAAAAAA
        AAAAAAAAAD8AAAAAAAAAAAAAAAAAAAA/AAAAAAAAAAAAAAAAAAAAPwAAAAAAAAAAAAAAAAAAAD8AAAAAAAAAAAAAAAAAAAA/AAAAAAAAAAAAAAAAAAAAPwAAAAAAAAAA
        AAAAAAAAAD8AAAAAAAAAAAAAAAAAAAA/AAAAAAAAAAAAAAAAAAAAPwAAAAAAAAAAAAAAAAAAAD8AAAAAAAAAAAAAAAAAAAAAmpmZPgAAAAAAAAAAAAAAAAAAgD8AAAAA
        mpmZPgAAAAAAAAAAAAAAAAAAgD8AAAAAmpmZPgAAAAAAAAAAAAAAAAAAgD8AAAAAmpmZPgAAAAAAAAAAAAAAAAAAgD8AAAAAmpmZPgAAAAAAAAAAAAAAAAAAgD8AAAAA
        mpmZPgAAAAAAAAAAAAAAAAAAgD8AAAAAAAAAAAAAAAAAAAAAAAAAAAAAAAAAAAAAAAAAAAAAAAAAAAAAAAAAAAAAAAAAAAAAAAAAAAAAAAAAAAAAAAAAAAAAAAAAAAAA
        AAAAAAAAAAAAAAAAAAAAAAAAAAAAAAAAAAAAAAAAAAAAAAAAAAAAAAAAAAAAAAAAAAAAAAAAAAAAAAAAAAAAAAAAAAAAAAAAAAAAAKuqKj3ZiZ09gShWPgAAAAAAAAAA
        v+eWPQAAAAAAAAA/AAAAAAAAAAAAAAAAAAAAAAAAAD8AAAAAAAAAAAAAAAAAAAAAAAAAPwAAAAAAAAAAAAAAAAAAAAAAAAAAAAAAAAAAAAAAAAAAAAAAAAAAAAAAAAAA
        AAAAAAAAAAAAAAAAAAAAAAAAAAAAAAAAAAAAAAAAAAAAAAAAAAAAAAAAAAAAAAAAAAAAAAAAAAAAAAAAAAAAAAAAAAAAAAAAAAAAAAAAAAAAAAAAAAAAAAAAAAAAAAAA
        AAAAAAAAAAAAAAAAAAAAAAAAAAAAAAAAAAAAAAAAAAAAAAAAAAAAAAAAAAAAAAAAAAAAAAAAAAAAAAAAAAAAAAAAAAAAAAAAAAAAAAAAAAAAAAAAAAAAAAAAAAAAAAAA
        AAAAAAAAAAAAAAAAAAAAAAAAAAAAAAAAAAAAAAAAAAAAAAAAAAAAAAAAAAAAAAAAAAAAAAAAAAAAAAAAAAAAAAAAAAAAAAAAAAAAAAAAAAAAAAAAAAAAAAAAAAAAAAAA
        AAAAAAAAAAAAAAAAAAAAAAAAAAAAAAAAAAAAAAAAAAAAAAAAAAAAAAAAAAAAAAAAAAAAAAAAAAAAAAAAAAAAAAAAAAAAAAAAAAAAAAAAAAAAAAAAAAAAPwAAAD8AAAA/
        AAAAPwAAAD8AAAA/AAAAPwAAAD8AAAAAAAAAAAAAAAAAAAAAAAAAAAAAAAAAAAAAAAAAAAAAAAAAAAAAAAAAAAAAAAAAAAAAAAAAAAAAAAAAAAAAAAAAAAAAAAAAAAAA
        AAAAAAAAAAAAAAAAAAAAAAAAAAAAAAAAAAAAAAAAAAAAAAAAAAAAAAAAAAAAAAAAAAAAAAAAAAAAAAAAAAAAAAAAAAAAAAAAAAAAAAAAAAAAAAAAAAAAAAAAAAAAAAAA
        AAAAAAAAAAAAAAAAAAAAAAAAAAAAAAAAAAAAAAAAAAAAAAAAAAAAAAAAAAAAAAAAAAAAAAAAAAAAAAAAAAAAAAAAAAAAAAAAAAAAAAAAAAAAAAAAAAAAAAAAAAAAAAAA
        AAAAAAAAAAAAAAAAAAAAAAAAAAAAAAAAAAAAAAAAAAAAAAAAAAAAAAAAAAAAAAAAAAAAAAAAAAAAAAAA
        Q2hpcEZyb250AENoaXBGcm9udAAQAAAA
      >
      PRESETNAME ChipFront
      FLOATPOS 36 32 641 529
      FXID {4C5A6810-F3ED-0645-A06D-6758F70CB097}
      WAK 0
    >
  >
  <TRACK {4E9F66C4-38E7-4946-B39F-214CBB1CFB8B}
    NAME ChipSide
    PEAKCOL 16576
    BEAT -1
    AUTOMODE 0
    VOLPAN 0.21260972541623 0 -1 -1 1
    MUTESOLO 0 0 0
    IPHASE 0
    ISBUS 0 0
    BUSCOMP 0 0
    SHOWINMIX 1 0.6667 0.698113 1 0.5 0 0 0
    FREEMODE 0
    SEL 0
    REC 0 0 0 0 0 0 0
    VU 2
    TRACKHEIGHT 0 0
    INQ 0 0 0 0.5 100 0 0 100
    NCHAN 2
    FX 1
    TRACKID {4E9F66C4-38E7-4946-B39F-214CBB1CFB8B}
    PERF 0
    AUXRECV 2 0 1.03113579563571 0 0 0 0 2 0 -1:U 0 -1 ''
    MIDIOUT -1
    MAINSEND 1 0
    <FXCHAIN
      SHOW 0
      LASTSEL 0
      DOCKED 0
      BYPASS 0 0 0
      <VST "VST: FabFilter Volcano 2 (SC) (FabFilter)" "FabFilter Volcano 2 (SC).vst" 0 "" 1180054068
        NDJWRu9e7f4EAAAAAQAAAAAAAAACAAAAAAAAAAQAAAAAAAAACAAAAAAAAAAIAAAAAQAAAAAAAAACAAAAAAAAAAQAAAAAAAAACAAAAAAAAAAQAAAAAAAAACAAAAAAAAAA
        QAAAAAAAAACAAAAAAAAAANwLAAAAAAAAAAAQAA==
        776t3g3wrd4AAAA/AAAAPwAAAD8AAAA/AACAPwAAAAAAAIA/q6qqPsplFD8AAAA/TxqgPc3MzD0AAAAAAAAAAEKGIj8AAIA/AACAP0Isdj8AAAA/bbDgPZqZGT8AAAAA
        AAAAAOev3zwAAIA/AAAAAAAAgD8AAAA/AAAAAJqZGT8AAAAAAAAAAAAAAAAAAIA/AAAAAAAAgD8AAAA/AAAAAJqZGT8AAAAAAAAAAAAAAAAAAIA/AAAAAKuqqj6CdAA9
        EObJPZgn+j4AAIA/AAAAAAAAAACJiAg+AACAP7PDtD4AAIA/AAAAAAAAAAAAAAAAq6qqPgAAAACeFR0/AAAAAAAAgD8AAAAAAAAAPwAAAAAAAAAAAAAAAAAAAD8AAAAA
        AAAAAAAAAAAAAAA/AAAAAAAAAAAAAAAAAAAAPwAAAAAAAAAAAAAAAAAAAD8AAAAAAAAAAAAAAAAAAAA/AAAAAAAAAAAAAAAAAAAAPwAAAAAAAAAAAAAAAAAAAD8AAAAA
        AAAAAAAAAAAAAAA/AAAAAAAAAAAAAAAAAAAAPwAAAAAAAAAAAAAAAAAAAD8AAAAAAAAAAAAAAAAAAAA/AAAAAAAAAAAAAAAAAAAAPwAAAAAAAAAAAAAAAHwZED4AAAA/
        KKO3PQAAgD8AAAAAAAAAAImIiD3y0iU/AAAAAAAAgD8AAAAAdGjRPQAAAAAAAIA/AAAAAAAAAD8AAAAAAAAAAAAAAAAAAAA/AAAAAAAAAAAAAAAAAAAAPwAAAAAAAAAA
        AAAAAAAAAD8AAAAAAAAAAAAAAAAAAAA/AAAAAAAAAAAAAAAAAAAAPwAAAAAAAAAAAAAAAAAAAD8AAAAAAAAAAAAAAAAAAAA/AAAAAAAAAAAAAAAAAAAAPwAAAAAAAAAA
        AAAAAAAAAD8AAAAAAAAAAAAAAAAAAAA/AAAAAAAAAAAAAAAAAAAAPwAAAAAAAAAAAAAAAAAAAD8AAAAAAAAAAAAAAAAAAAA/AAAAAAAAAAAAAAAAvvR9PgAAAD8AAAA/
        AAAAPwAAAAAAAAAAiYiIPQAAAD8AAAAAAAAAAAAAAAAAAAA/AAAAAAAAAAAAAAAAAAAAPwAAAAAAAAAAAAAAAAAAAD8AAAAAAAAAAAAAAAAAAAA/AAAAAAAAAAAAAAAA
        AAAAPwAAAAAAAAAAAAAAAAAAAD8AAAAAAAAAAAAAAAAAAAA/AAAAAAAAAAAAAAAAAAAAPwAAAAAAAAAAAAAAAAAAAD8AAAAAAAAAAAAAAAAAAAA/AAAAAAAAAAAAAAAA
        AAAAPwAAAAAAAAAAAAAAAAAAAD8AAAAAAAAAAAAAAAAAAAA/AAAAAAAAAAAAAAAAAAAAPwAAAAAAAAAAAAAAAAAAAD8AAAAAAAAAAAAAAAC+9H0+AAAAPwAAAD8AAAA/
        AAAAAAAAAACJiIg9AAAAPwAAAAAAAAAAAAAAAAAAAD8AAAAAAAAAAAAAAAAAAAA/AAAAAAAAAAAAAAAAAAAAPwAAAAAAAAAAAAAAAAAAAD8AAAAAAAAAAAAAAAAAAAA/
        AAAAAAAAAAAAAAAAAAAAPwAAAAAAAAAAAAAAAAAAAD8AAAAAAAAAAAAAAAAAAAA/AAAAAAAAAAAAAAAAAAAAPwAAAAAAAAAAAAAAAAAAAD8AAAAAAAAAAAAAAAAAAAA/
        AAAAAAAAAAAAAAAAAAAAPwAAAAAAAAAAAAAAAAAAAD8AAAAAAAAAAAAAAAAAAAA/AAAAAAAAAAAAAAAAAAAAPwAAAAAAAAAAAAAAAL70fT4AAAA/AAAAPwAAAD8AAAAA
        AAAAAImIiD0AAAA/AAAAAAAAAAAAAAAAAAAAPwAAAAAAAAAAAAAAAAAAAD8AAAAAAAAAAAAAAAAAAAA/AAAAAAAAAAAAAAAAAAAAPwAAAAAAAAAAAAAAAAAAAD8AAAAA
        AAAAAAAAAAAAAAA/AAAAAAAAAAAAAAAAAAAAPwAAAAAAAAAAAAAAAAAAAD8AAAAAAAAAAAAAAAAAAAA/AAAAAAAAAAAAAAAAAAAAPwAAAAAAAAAAAAAAAAAAAD8AAAAA
        AAAAAAAAAAAAAAA/AAAAAAAAAAAAAAAAAAAAPwAAAAAAAAAAAAAAAAAAAD8AAAAAAAAAAAAAAAAAAAA/AAAAAAAAAAAAAAAAvvR9PgAAAD8AAAA/AAAAPwAAAAAAAAAA
        iYiIPQAAAD8AAAAAAAAAAAAAAAAAAAA/AAAAAAAAAAAAAAAAAAAAPwAAAAAAAAAAAAAAAAAAAD8AAAAAAAAAAAAAAAAAAAA/AAAAAAAAAAAAAAAAAAAAPwAAAAAAAAAA
        AAAAAAAAAD8AAAAAAAAAAAAAAAAAAAA/AAAAAAAAAAAAAAAAAAAAPwAAAAAAAAAAAAAAAAAAAD8AAAAAAAAAAAAAAAAAAAA/AAAAAAAAAAAAAAAAAAAAPwAAAAAAAAAA
        AAAAAAAAAD8AAAAAAAAAAAAAAAAAAAA/AAAAAAAAAAAAAAAAAAAAPwAAAAAAAAAAAAAAAAAAAD8AAAAAAAAAAAAAAAAAAAAAmpmZPgAAAAAAAAAAAAAAAAAAgD8AAAAA
        mpmZPgAAAAAAAAAAAAAAAAAAgD8AAAAAmpmZPgAAAAAAAAAAAAAAAAAAgD8AAAAAmpmZPgAAAAAAAAAAAAAAAAAAgD8AAAAAmpmZPgAAAAAAAAAAAAAAAAAAgD8AAAAA
        mpmZPgAAAAAAAAAAAAAAAAAAgD8AAAAAAAAAAAAAAAAAAAAAAAAAAAAAAAAAAAAAAAAAAAAAAAAAAAAAAAAAAAAAAAAAAAAAAAAAAAAAAAAAAAAAAAAAAAAAAAAAAAAA
        AAAAAAAAAAAAAAAAAAAAAAAAAAAAAAAAAAAAAAAAAAAAAAAAAAAAAAAAAAAAAAAAAAAAAAAAAAAAAAAAAAAAAAAAAAAAAAAAAAAAAKuqqj3ZiZ09gShWPgAAgD8AAAAA
        v+eWPdmJHT0WszE/AAAAAAAAAACSdiw8AAAAAAAAAD8AAAAAAAAAAAAAAAAAAAAAAAAAPwAAAAAAAAAAAAAAAAAAAAAAAAAAAAAAAAAAAAAAAAAAAAAAAAAAAAAAAAAA
        AAAAAAAAAAAAAAAAAAAAAAAAAAAAAAAAAAAAAAAAAAAAAAAAAAAAAAAAAAAAAAAAAAAAAAAAAAAAAAAAAAAAAAAAAAAAAAAAAAAAAAAAAAAAAAAAAAAAAAAAAAAAAAAA
        AAAAAAAAAAAAAAAAAAAAAAAAAAAAAAAAAAAAAAAAAAAAAAAAAAAAAAAAAAAAAAAAAAAAAAAAAAAAAAAAAAAAAAAAAAAAAAAAAAAAAAAAAAAAAAAAAAAAAAAAAAAAAAAA
        AAAAAAAAAAAAAAAAAAAAAAAAAAAAAAAAAAAAAAAAAAAAAAAAAAAAAAAAAAAAAAAAAAAAAAAAAAAAAAAAAAAAAAAAAAAAAAAAAAAAAAAAAAAAAAAAAAAAAAAAAAAAAAAA
        AAAAAAAAAAAAAAAAAAAAAAAAAAAAAAAAAAAAAAAAAAAAAAAAAAAAAAAAAAAAAAAAAAAAAAAAAAAAAAAAAAAAAAAAAAAAAAAAAAAAAAAAAAAAAAAAAAAAPwAAAD8AAAA/
        AAAAPwAAAD8AAAA/AAAAPwAAAD8AAAAAAAAAAAAAAAAAAAAAAAAAAAAAAAAAAAAAAAAAAAAAAAAAAAAAAAAAAAAAAAAAAAAAAAAAAAAAAAAAAAAAAAAAAAAAAAAAAAAA
        AAAAAAAAAAAAAAAAAAAAAAAAAAAAAAAAAAAAAAAAAAAAAAAAAAAAAAAAAAAAAAAAAAAAAAAAAAAAAAAAAAAAAAAAAAAAAAAAAAAAAAAAAAAAAAAAAAAAAAAAAAAAAAAA
        AAAAAAAAAAAAAAAAAAAAAAAAAAAAAAAAAAAAAAAAAAAAAAAAAAAAAAAAAAAAAAAAAAAAAAAAAAAAAAAAAAAAAAAAAAAAAAAAAAAAAAAAAAAAAAAAAAAAAAAAAAAAAAAA
        AAAAAAAAAAAAAAAAAAAAAAAAAAAAAAAAAAAAAAAAAAAAAAAAAAAAAAAAAAAAAAAAAAAAAAAAAAAAAAAA
        Q2hpcFNpZGUAQ2hpcFNpZGUAEAAAAA==
      >
      PRESETNAME ChipSide
      FLOATPOS 36 32 641 529
      FXID {20356A84-5CFD-6E4A-AA26-2A8A49CE7A76}
      WAK 0
    >
  >
  <EXTENSIONS
    <SWSAUTOCOLOR
      {00000000-0000-0000-0000-000000000000} 0 "" "" ""
    >
    <XENAKIOSCOMMANDS
      REFTRACK 0 3 1 "0000000"
    >
    <BR_CURSOR_POS 04
      0.00000000000000
    >
  >
  <EXTSTATE
  >
>
