<REAPER_PROJECT 0.1 "4.77/OSX64" 1423876628
  RIPPLE 0
  GROUPOVERRIDE 0 0 0
  AUTOXFADE 0
  ENVATTACH 1
  MIXERUIFLAGS 11 52
  PEAKGAIN 1
  FEEDBACK 0
  PANLAW 1
  PROJOFFS 0 0
  MAXPROJLEN 0 600
  GRID 174206 8 1 8 1 0 0
  TIMEMODE 6 0 -1 24 2
  PANMODE 3
  CURSOR 0
  ZOOM 6.49054715188745 0 0
  VZOOMEX 7
  USE_REC_CFG 0
  RECMODE 1
  SMPTESYNC 0 23.976024 100 40 1000 300 0 0 1
  LOOP 1
  LOOPGRAN 0 4
  RECORD_PATH "" ""
  <RECORD_CFG
    ZXZhdxAA
  >
  <APPLYFX_CFG
  >
  RENDER_FILE ""
  RENDER_PATTERN ""
  RENDER_FMT 0 2 0
  RENDER_1X 0
  RENDER_RANGE 1 0 0
  RENDER_RESAMPLE 3 0 1
  RENDER_ADDTOPROJ 0
  RENDER_STEMS 0
  RENDER_DITHER 0
  TIMELOCKMODE 1
  TEMPOENVLOCKMODE 1
  ITEMMIX 1
  DEFPITCHMODE 589824
  TAKELANE 3
  SAMPLERATE 44100 0 0
  <RENDER_CFG
  >
  LOCK 1
  <METRONOME 6 2
    VOL 0.25 0.125
    FREQ 800 1600 1
    BEATLEN 4
    SAMPLES "" ""
  >
  GLOBAL_AUTO -1
  TEMPO 120 4 4
  PLAYRATE 1 0 0.25 4
  SELECTION 0 64.5
  SELECTION2 0 64.5
  MASTERAUTOMODE 0
  MASTERTRACKHEIGHT 0
  MASTERPEAKCOL 16576
  MASTERMUTESOLO 0
  MASTERTRACKVIEW 0 0.6667 0.5 0.5 -1 -1 -1
  MASTERHWOUT 0 0 1 0 0 0 0 -1
  MASTER_NCH 2 2
  MASTER_VOLUME 1 0 -1 -1 1
  MASTER_FX 1
  MASTER_SEL 0
  <MASTERPLAYSPEEDENV
    ACT 0
    VIS 0 1 1
    LANEHEIGHT 0 0
    ARM 0
    DEFSHAPE 0 -1 -1
  >
  <TEMPOENVEX
    ACT 0
    VIS 1 0 1
    LANEHEIGHT 0 0
    ARM 0
    DEFSHAPE 1 -1 -1
  >
  <PROJBAY
  >
  <TRACK {F23F8223-271A-294D-A229-F474D58B7A97}
    NAME "vst Gladiator"
    PEAKCOL 27222112
    BEAT -1
    AUTOMODE 0
    VOLPAN 1 0 -1 -1 1
    MUTESOLO 1 0 0
    IPHASE 0
    ISBUS 0 0
    BUSCOMP 2 0
    SHOWINMIX 1 0.6667 0.698113 1 0.5 -1 -1 -1
    FREEMODE 0
    SEL 0
    REC 0 0 0 0 0 0 0
    VU 2
    TRACKHEIGHT 0 0
    INQ 0 0 0 0.5 100 0 0 100
    NCHAN 2
    FX 1
    TRACKID {F23F8223-271A-294D-A229-F474D58B7A97}
    PERF 0
    MIDIOUT -1
    MAINSEND 1 0
    <FXCHAIN
      SHOW 0
      LASTSEL 0
      DOCKED 0
      BYPASS 0 0 0
      <VST "VSTi: Gladiator (Tone2.com)" Gladiator.vst 0 ""
        TEcyVO5e7f4AAAAAAgAAAAEAAAAAAAAAAgAAAAAAAABaBAAAAQAAAAAAEABDY25LAAAAYEZ4Q2sAAAABVDJHTAAAAAEAAAEHSW5pdAAAAAAAAAAAAAAAAAAAAAAAAAAA
        AAAAAD3MzM08zMzNPDQ5WD24UfQ9edsjP4AAADvEm6Y9vnbJP4AAADvEm6YAAAAAPqZmZj49cKQ/gAAAPsUeuT8AAAA/AAAAAAAAAD1987Y90OVgPLxqfz9FHrgAAAAA
        P4AAADw0OVg9kWhzPvXCjztEm6Y9uFHoPr1wpD49cKQ/gAAAPwAAAD8D1ws/AAAAAAAAAAAAAAA/AAAAPwAAAD8AAAA+2ZmaPwAAAAAAAAA75WBCPbhR6wAAAAA+TbXE
        O0Sbpj9LhR4AAAAAAAAAAD7rhSA+lHrhPWFHsD7PXCg/HrhSPj1wpj8AAAA/AAAAAAAAAAAAAAA/AAAAAAAAAAAAAAA/gAAAP4AAAAAAAAA/EeuFPwAAAD8AAAA/AAAA
        PwAAAAAAAAA/AAAAPwAAAD8AAAAAAAAAPwAAAD8AAAA/AAAAAAAAADqDEm8/UKPXAAAAAD+AAAAAAAAAOoMSbz8AAAAAAAAAAAAAAAAAAAA/AAAAAAAAAD+AAAAAAAAA
        P4AAAAAAAAA/AAAAPwAAAD8AAAA/AAAAPwAAAD8AAAA/AAAAPwAAAD8AAAA/AAAAPwAAAD8R64Y8o9cKOoMSbzxEm6YAAAAAAAAAAAAAAAA8vGp/AAAAAAAAAAAAAAAA
        AAAAAAAAAAAAAAAAAAAAAAAAAAAAAAAAAAAAAAAAAAAAAAAAAAAAAAAAAAAAAAAAAAAAADwTdLwAAAAAPDQ5WAAAAAA8E3S8AAAAADw0OVgAAAAAPBN0vAAAAAA8NDlY
        AAAAADwTdLwAAAAAPDQ5WAAAAAA8ZWBCPYcrAjxlYEI7AxJvPYk3TDsDEm88tDlYPItDljyTdLw9VP30PReNUDzMzM0+gAAAP3LCNT8AAAA/Uae5PzCNPj8csI0AAAAA
        OwMSbzqDEm8AAAAAAAAAAAAAAAA/AAAAOoMSbztEm6Y/gAAAAAAAAD+AAAAAAAAAP4AAAAAAAAAAAAAAAAAAAAAAAAA/gAAAAAAAAD8AAAAAAAAAPwAAAD8FHrg/AAAA
        P4AAAD8AAAA/AAAAPwAAAD+AAAA/gAAAAAAAAAAAAAAAAAAAPwAAAD+AAAA/AAAAAAAAAD69cKQAAAAAAAAAAD+AAAA/gAAAPyPXCj+AAAAAAAAAAAAAAD+AAAA/AAAA
        AAAAAAAAAAAAAAAAAAAAAAAAAAAAAAAAAAAAAAAAAAAAAAAAAAAAAAAAAAAAAAAAPwAAAD8AAAA/AAAAPwAAAD8AAAA/AAAAAAAAAAAAAAA/gAAAAAAAAAAAAAAAAAAA
        AAAAAAAAAAAAAAAAAAAAAAAAAAAAAAAAAAAAAAAAAAAAAAAAAAAAAAAAAAAAAAAAAAAAAAAAAAAAAAAAAAAAAAAAAAAAAAAAAAAAAAAAAAAAAAAAAAAAAAAAAAAAAAAA
        AACqq6ytAAAQAAAA
      >
      FLOATPOS 500 379 987 799
      FXID {532372E3-5B0D-9345-A9C8-98A8EBAF9A7E}
      WAK 0
    >
    <ITEM
      POSITION 0
      SNAPOFFS 0
      LENGTH 64.5
      LOOP 1
      ALLTAKES 0
      FADEIN 1 0 0 1 0 0
      FADEOUT 1 0 0 1 0 0
      MUTE 0
      SEL 0
      YPOS 0.266094 0.201717
      IGUID {38582E04-551F-BA47-94F7-1DCBF1B8C8EB}
      IID 1
      NAME "trumpet(s) - National_Anthems_-_Philippines.mid"
      VOLPAN 1 0 1 -1
      SOFFS 0 0
      PLAYRATE 1 1 0 -1 0 0.0025
      CHANMODE 0
      TAKECOLOR 26173599
      GUID {651380FF-38C8-BC48-ABD9-6ACF5C138487}
      <SOURCE MIDI
        HASDATA 1 480 QN
        POOLEDEVTS {C30B748B-95FA-A24E-B63A-E1CA759BB09C}
        <X 0 0
          /wN0cnVtcGV0KHMp
        >
        <X 0 0
          /wRTb3VuZCBDYW52YXM=
        >
        e 0 90 43 7f
        e 400 80 43 1b 22
        e 80 90 42 7f 2
        e 240 80 42 0b -9
        e 80 90 45 7f 21
        e 160 80 45 26 -22
        e 0 90 43 7f 8
        e 480 80 43 37 -18
        e 0 90 3e 7f 27
        e 400 80 3e 36 -36
        e 80 90 45 7f 8
        e 160 80 45 36 18
        e 0 90 47 7f -8
        e 160 80 47 47 -33
        e 0 90 48 7f -27
        e 80 80 48 28 30
        e 80 90 47 7f
        e 240 80 47 2f -30
        e 80 90 45 7f 7
        e 80 80 45 1b 33
        e 80 90 47 7f
        e 480 80 47 29 24
        e 0 90 43 7f 16
        e 320 80 43 16 33
        e 160 90 43 7f 31
        e 480 80 43 1f
        e 0 90 42 7f 18
        e 240 80 42 1e 25
        e 80 90 45 7f 21
        e 160 80 45 28 -5
        e 0 90 43 7f
        e 480 80 43 39 1
        e 0 90 3e 7f 2
        e 400 80 3e 01 -5
        e 80 90 45 7f
        e 160 80 45 12 11
        e 0 90 47 7f -14
        e 160 80 47 41 -12
        e 0 90 48 7f -3
        e 160 80 48 31 11
        e 0 90 47 7f -1
        e 240 80 47 22 1
        e 80 90 45 7f -5
        e 160 80 45 30 -13
        e 0 90 43 7f -5
        e 640 80 43 3e 6
        e 320 90 43 7f -15
        e 400 80 43 1a 12
        e 80 90 42 7f -18
        e 160 80 42 25 37
        e 160 90 45 7f -15
        e 160 80 45 32 -31
        e 0 90 43 7f 1
        e 480 80 43 48 -9
        e 0 90 3e 7f -6
        e 320 80 3e 10 24
        e 160 90 45 7f -6
        e 160 80 45 32 21
        e 0 90 47 7f -8
        e 160 80 47 46 -26
        e 0 90 48 7f -23
        e 160 80 48 38 -13
        e 0 90 47 7f -12
        e 160 80 47 23 20
        e 160 90 45 7f -12
        e 160 80 45 07 -19
        e 0 90 47 7f -2
        e 480 80 47 41 -10
        e 0 90 43 7f -9
        e 320 80 43 39 -12
        e 160 90 43 7f -3
        e 400 80 43 13 14
        e 80 90 42 7f -3
        e 240 80 42 2c -4
        e 80 90 45 7f 14
        e 160 80 45 33 6
        e 0 90 43 7f 17
        e 480 80 43 48 3
        e 0 90 3e 7f 9
        e 320 80 3e 01 37
        e 160 90 45 7f -20
        e 160 80 45 11 -8
        e 0 90 47 7f -35
        e 80 80 47 42 35
        e 80 90 48 7f -36
        e 160 80 48 24 -12
        e 0 90 47 7f -21
        e 240 80 47 0d -12
        e 80 90 45 7f -19
        e 160 80 45 2b -32
        e 0 90 43 7f -7
        e 320 80 43 43 16
        e 160 90 43 7f -2
        e 160 80 43 3e 5
        e 0 90 42 7f -5
        e 160 80 42 2c -29
        e 0 90 43 7f -18
        e 160 80 43 3d -24
        e 0 90 45 7f 1
        e 240 80 45 34 -23
        e 80 90 45 7f -3
        e 160 80 45 36 -2
        e 0 90 3e 7f 9
        e 240 80 3e 24 -8
        e 80 90 3e 7f -4
        e 160 80 3e 29 -6
        e 0 90 45 7f 9
        e 240 80 45 2b -5
        e 80 90 45 7f 7
        e 160 80 45 3c 26
        e 0 90 3e 7f 14
        e 240 80 3e 0e -20
        e 80 90 3e 7f -2
        e 160 80 3e 16 -8
        e 0 90 47 7f 25
        e 240 80 47 2b 14
        e 80 90 48 7f -3
        e 160 80 48 3e -14
        e 0 90 4a 7f 10
        e 240 80 4a 34 -21
        e 80 90 4c 7f -19
        e 160 80 4c 34 -23
        e 0 90 4a 7f -5
        e 400 80 4a 41 -17
        e 80 90 43 7f -13
        e 160 80 43 46 -38
        e 0 90 42 7f -11
        e 160 80 42 41 -37
        e 0 90 43 7f -29
        e 160 80 43 40 -35
        e 0 90 45 7f -17
        e 160 80 45 2c -6
        e 160 90 45 7f -20
        e 160 80 45 3d 5
        e 0 90 3e 7f -5
        e 240 80 3e 34 -36
        e 80 90 3e 7f -17
        e 160 80 3e 1d -32
        e 0 90 45 7f 3
        e 160 80 45 2c 9
        e 160 90 45 7f -11
        e 160 80 45 3e 10
        e 0 90 3e 7f 21
        e 240 80 3e 32 -32
        e 80 90 3e 7f -7
        e 160 80 3e 2f -38
        e 0 90 47 7f 16
        e 160 80 47 3e -8
        e 0 90 48 7f -6
        e 160 80 48 41 -20
        e 0 90 47 7f -16
        e 80 80 47 39 8
        e 80 90 45 7f -15
        e 160 80 45 1a -5
        e 0 90 47 7f -21
        e 160 80 47 37 -36
        e 0 90 45 7f -31
        e 80 80 45 28 6
        e 80 90 43 7f -18
        e 400 80 43 3d -33
        e 80 90 43 7f 6
        e 160 80 43 3b 8
        e 0 90 42 7f 5
        e 160 80 42 40 -19
        e 0 90 43 7f -17
        e 160 80 43 3f -18
        e 0 90 45 7f -6
        e 160 80 45 2a 17
        e 160 90 45 7f -16
        e 160 80 45 2b 10
        e 0 90 3e 7f 7
        e 160 80 3e 22 17
        e 160 90 3e 7f -22
        e 160 80 3e 21 -3
        e 0 90 45 7f -5
        e 160 80 45 23 3
        e 160 90 45 7f -12
        e 160 80 45 3b 8
        e 0 90 3e 7f 14
        e 160 80 3e 19 24
        e 160 90 3e 7f -27
        e 160 80 3e 14 -26
        e 0 90 47 7f 2
        e 240 80 47 3c 38
        e 80 90 48 7f -12
        e 160 80 48 33 -38
        e 0 90 4a 7f 4
        e 240 80 4a 1b -6
        e 80 90 4c 7f -13
        e 80 80 4c 2f 28
        e 80 90 4a 7f
        e 400 80 4a 38 -28
        e 80 90 43 7f -11
        e 160 80 43 35 -5
        e 0 90 42 7f 3
        e 160 80 42 43 -29
        e 0 90 43 7f -30
        e 160 80 43 44 -38
        e 0 90 45 7f -18
        e 160 80 45 37 -7
        e 160 90 45 7f -16
        e 160 80 45 2d 14
        e 0 90 3e 7f -12
        e 160 80 3e 1e 13
        e 160 90 3e 7f -30
        e 160 80 3e 2b 1
        e 0 90 45 7f -17
        e 160 80 45 27 24
        e 160 90 45 7f -18
        e 160 80 45 3d -5
        e 0 90 3e 7f -16
        e 160 80 3e 2f -7
        e 160 90 3e 7f -39
        e 80 80 3e 1f 21
        e 80 90 47 7f -14
        e 160 80 47 41 -28
        e 0 90 48 7f -37
        e 160 80 48 3a -24
        e 0 90 47 7f -31
        e 80 80 47 35 21
        e 80 90 45 7f -23
        e 160 80 45 24 -23
        e 0 90 47 7f -25
        e 160 80 47 30 -31
        e 0 90 45 7f -35
        e 160 80 45 41 -36
        e 0 90 43 7f -25
        e 400 80 43 39 -20
        e 80 90 43 7f 10
        e 160 80 43 52 -26
        e 0 90 40 7f -24
        e 160 80 40 01 14
        e 0 90 43 7f -5
        e 160 80 43 45 -27
        e 0 90 48 7f 7
        e 400 80 48 26 -6
        e 80 90 48 7f -8
        e 400 80 48 1e 7
        e 80 90 4a 7f -2
        e 400 80 4a 43 14
        e 80 90 4a 7f -1
        e 240 80 4a 42 22
        e 80 90 4a 7f 23
        e 160 80 4a 43 -18
        e 0 90 4c 7f 10
        e 320 80 4c 2c -27
        e 0 90 4a 7f -19
        e 80 80 4a 25 35
        e 80 90 48 7f -16
        e 240 80 48 35 12
        e 80 90 4a 7f -38
        e 80 80 4a 2d 29
        e 80 90 4c 7f -24
        e 400 80 4c 1a 14
        e 80 90 4d 7f 2
        e 160 80 4d 42 11
        e 0 90 4c 7f -15
        e 160 80 4c 48 -18
        e 0 90 4a 7f -15
        e 80 80 4a 0f 39
        e 80 90 4c 7f 7
        e 480 80 4c 24 -9
        e 0 90 48 7f 17
        e 480 80 48 01 -15
        e 0 90 4a 7f
        e 480 80 4a 3d 9
        e 0 90 47 7f 3
        e 240 80 47 25 -29
        e 80 90 47 7f 14
        e 160 80 47 22 -28
        e 0 90 48 7f 5
        e 1280 80 48 42 26
        e 160 90 43 7f 13
        e 160 80 43 4f -17
        e 0 90 40 7f -17
        e 160 80 40 27 -14
        e 0 90 43 7f -19
        e 160 80 43 2f -28
        e 0 90 48 7f 1
        e 400 80 48 1d 5
        e 80 90 48 7f 1
        e 400 80 48 25 22
        e 80 90 4a 7f 8
        e 400 80 4a 39 22
        e 80 90 4a 7f 12
        e 160 80 4a 3e 29
        e 80 90 4a 7f 16
        e 160 80 4a 2e 39
        e 80 90 4c 7f 4
        e 240 80 4c 2b 19
        e 80 90 4a 7f 7
        e 160 80 4a 30 -20
        e 0 90 48 7f 6
        e 240 80 48 12 8
        e 80 90 4a 7f 3
        e 160 80 4a 31 -31
        e 0 90 4c 7f 1
        e 400 80 4c 28 9
        e 80 90 4d 7f 7
        e 160 80 4d 3a 6
        e 0 90 4c 7f -20
        e 80 80 4c 2b 37
        e 80 90 4a 7f -24
        e 160 80 4a 11 -25
        e 0 90 4c 7f 2
        e 480 80 4c 01 -20
        e 0 90 48 7f 23
        e 480 80 48 01 -16
        e 0 90 4a 7f 10
        e 480 80 4a 2f 15
        e 0 90 47 7f -9
        e 240 80 47 32 -31
        e 80 90 47 7f
        e 160 80 47 2e -31
        e 0 90 48 7f
        e 1280 80 48 56 23
        e 640 90 43 7f
        e 400 80 43 1b 22
        e 80 90 42 7f 2
        e 240 80 42 0b -9
        e 80 90 45 7f 21
        e 160 80 45 26 -22
        e 0 90 43 7f 8
        e 480 80 43 37 -18
        e 0 90 3e 7f 27
        e 400 80 3e 36 -36
        e 80 90 45 7f 8
        e 160 80 45 36 18
        e 0 90 47 7f -8
        e 160 80 47 47 -33
        e 0 90 48 7f -27
        e 80 80 48 28 30
        e 80 90 47 7f
        e 240 80 47 2f -30
        e 80 90 45 7f 7
        e 80 80 45 1b 33
        e 80 90 47 7f
        e 480 80 47 29 24
        e 0 90 43 7f 16
        e 320 80 43 16 33
        e 160 90 43 7f 31
        e 480 80 43 1f
        e 0 90 42 7f 18
        e 240 80 42 1e 25
        e 80 90 45 7f 21
        e 160 80 45 28 -5
        e 0 90 43 7f
        e 480 80 43 39 1
        e 0 90 3e 7f 2
        e 400 80 3e 01 -5
        e 80 90 45 7f
        e 160 80 45 12 11
        e 0 90 47 7f -14
        e 160 80 47 41 -12
        e 0 90 48 7f -3
        e 160 80 48 31 11
        e 0 90 47 7f -1
        e 240 80 47 22 1
        e 80 90 45 7f -5
        e 160 80 45 30 -13
        e 0 90 43 7f -5
        e 640 80 43 3e 6
        e 320 90 43 7f -15
        e 400 80 43 1a 12
        e 80 90 42 7f -18
        e 160 80 42 25 37
        e 160 90 45 7f -15
        e 160 80 45 32 -31
        e 0 90 43 7f 1
        e 480 80 43 48 -9
        e 0 90 3e 7f -6
        e 320 80 3e 10 24
        e 160 90 45 7f -6
        e 160 80 45 32 21
        e 0 90 47 7f -8
        e 160 80 47 46 -26
        e 0 90 48 7f -23
        e 160 80 48 38 -13
        e 0 90 47 7f -12
        e 160 80 47 23 20
        e 160 90 45 7f -12
        e 160 80 45 07 -19
        e 0 90 47 7f -2
        e 480 80 47 41 -10
        e 0 90 43 7f -9
        e 320 80 43 39 -12
        e 160 90 43 7f -3
        e 400 80 43 13 14
        e 80 90 42 7f -3
        e 240 80 42 2c -4
        e 80 90 45 7f 14
        e 160 80 45 33 6
        e 0 90 43 7f 17
        e 480 80 43 48 3
        e 0 90 3e 7f 9
        e 320 80 3e 01 37
        e 160 90 45 7f -20
        e 160 80 45 11 -8
        e 0 90 47 7f -35
        e 80 80 47 42 35
        e 80 90 48 7f -36
        e 160 80 48 24 -12
        e 0 90 47 7f -21
        e 240 80 47 0d -12
        e 80 90 45 7f -19
        e 160 80 45 2b -32
        e 0 90 43 7f -7
        e 1440 80 43 43 -7
        E 0 b0 7b 00
        GUID {6AFFBA77-E74A-7448-BE29-76F2E110A755}
        IGNTEMPO 0 120 4 4
        SRCCOLOR 401
        VELLANE -1 86 6
        CFGEDITVIEW -3096 12.459479 49 11 0 0 0 0 0
        KEYSNAP 0 3 102304056070 0 "Natural minor"
        TRACKSEL 226 0 0 ""
        EVTFILTER 0 -1 -1 -1 -1 0 0 0 0 -1 -1 -1 -1 0 -1 0 -1 -1
        CFGEDIT 1 0 0 0 0 0 1 0 1 1 1 0.125 0 16 1280 470 0 0 2 3 0.25 0 0 0 0 -0.44 0 0 1 64
      >
      TAKE
      NAME "trumpet(s) - National_Anthems_-_Philippines.mid"
      TAKEVOLPAN 0 1 -1
      SOFFS 0 0
      PLAYRATE 1 1 0 -1 0 0.0025
      CHANMODE 0
      GUID {096F8AE5-CDFB-664A-B70E-6F0447045AB4}
      <SOURCE MIDI
        HASDATA 1 480 QN
        POOLEDEVTS {54C0C640-C6DF-AD4D-B422-BD178F0DD023}
        <X 0 0
          /wN0cnVtcGV0KHMp
        >
        <X 0 0
          /wRTb3VuZCBDYW52YXM=
        >
        e 0 90 43 6d
        e 422 80 43 1b
        e 60 90 42 66
        e 229 80 42 0b
        e 110 90 45 61
        e 117 80 45 26
        e 30 90 43 6b
        e 454 80 43 37
        e 45 90 3e 64
        e 337 80 3e 36
        e 124 90 45 66
        e 144 90 47 60
        e 26 80 45 36
        e 109 80 47 47
        e 6 90 48 5a
        e 137 80 48 28
        e 50 90 47 67
        e 210 80 47 2f
        e 117 90 45 56
        e 106 80 45 1b
        e 47 90 47 60
        e 496 90 43 67
        e 8 80 47 29
        e 329 80 43 16
        e 158 90 43 68
        e 449 80 43 1f
        e 18 90 42 61
        e 247 80 42 1e
        e 76 90 45 5e
        e 134 80 45 28
        e 5 90 43 69
        e 481 80 43 39
        e 1 90 3e 5c
        e 393 80 3e 01
        e 85 90 45 64
        e 146 90 47 5e
        e 25 80 45 12
        e 137 80 47 41
        e 9 90 48 58
        e 162 90 47 67
        e 12 80 48 31
        e 230 80 47 22
        e 74 90 45 55
        e 152 80 45 30
        e 8 90 43 65
        e 651 80 43 3e
        e 299 90 43 69
        e 427 80 43 1a
        e 50 90 42 66
        e 215 80 42 25
        e 108 90 45 53
        e 144 80 45 32
        e 32 90 43 6c
        e 470 80 43 48
        e 3 90 3e 5e
        e 350 80 3e 10
        e 130 90 45 63
        e 158 90 47 5d
        e 29 80 45 32
        e 113 80 47 46
        e 3 90 48 52
        e 170 80 48 38
        e 1 90 47 63
        e 192 80 47 23
        e 128 90 45 5f
        e 153 80 45 07
        e 17 90 47 5f
        e 472 80 47 41
        e 1 90 43 62
        e 317 80 43 39
        e 169 90 43 68
        e 417 80 43 13
        e 63 90 42 62
        e 239 80 42 2c
        e 98 90 45 61
        e 152 80 45 33
        e 11 90 43 68
        e 466 80 43 48
        e 6 90 3e 59
        e 348 80 3e 01
        e 103 90 45 64
        e 145 90 47 5d
        e 27 80 45 11
        e 123 80 47 42
        e 9 90 48 52
        e 175 90 47 66
        e 9 80 48 24
        e 240 80 47 0d
        e 73 90 45 5f
        e 147 80 45 2b
        e 25 90 43 60
        e 343 80 43 43
        e 142 90 43 6a
        e 157 90 42 5e
        e 10 80 43 3e
        e 126 80 42 2c
        e 11 90 43 62
        e 154 80 43 3d
        e 25 90 45 63
        e 216 80 45 34
        e 100 90 45 60
        e 161 80 45 36
        e 11 90 3e 5d
        e 223 80 3e 24
        e 84 90 3e 58
        e 158 80 3e 29
        e 15 90 45 66
        e 226 80 45 2b
        e 92 90 45 60
        e 167 90 3e 60
        e 12 80 45 3c
        e 194 80 3e 0e
        e 98 90 3e 5b
        e 154 80 3e 16
        e 33 90 47 62
        e 229 80 47 2b
        e 63 90 48 5e
        e 149 80 48 3e
        e 24 90 4a 64
        e 209 80 4a 34
        e 82 90 4c 5d
        e 156 80 4c 34
        e 18 90 4a 60
        e 388 80 4a 41
        e 84 90 43 69
        e 135 80 43 46
        e 27 90 42 55
        e 134 80 42 41
        e 8 90 43 62
        e 154 80 43 40
        e 18 90 45 65
        e 171 80 45 2c
        e 146 90 45 5b
        e 175 90 3e 59
        e 10 80 45 3d
        e 199 80 3e 34
        e 99 90 3e 54
        e 145 80 3e 1d
        e 35 90 45 67
        e 166 80 45 2c
        e 140 90 45 5f
        e 181 80 45 3e
        e 11 90 3e 60
        e 187 80 3e 32
        e 105 90 3e 4f
        e 129 80 3e 2f
        e 54 90 47 64
        e 136 80 47 3e
        e 2 90 48 53
        e 146 80 48 41
        e 4 90 47 5c
        e 104 80 47 39
        e 57 90 45 64
        e 154 90 47 5e
        e 16 80 45 1a
        e 129 80 47 37
        e 5 90 45 5d
        e 117 80 45 28
        e 56 90 43 62
        e 385 80 43 3d
        e 119 90 43 6c
        e 159 90 42 5b
        e 3 80 43 3b
        e 133 80 42 40
        e 2 90 43 69
        e 159 80 43 3f
        e 12 90 45 63
        e 183 80 45 2a
        e 127 90 45 62
        e 183 90 3e 5e
        e 3 80 45 2b
        e 167 80 3e 22
        e 121 90 3e 58
        e 177 90 45 69
        e 2 80 3e 21
        e 166 80 45 23
        e 145 90 45 61
        e 180 80 45 3b
        e 6 90 3e 5c
        e 170 80 3e 19
        e 109 90 3e 57
        e 161 80 3e 14
        e 28 90 47 63
        e 276 80 47 3c
        e 30 90 48 5e
        e 134 80 48 33
        e 42 90 4a 65
        e 230 80 4a 1b
        e 73 90 4c 60
        e 121 80 4c 2f
        e 52 90 4a 63
        e 372 80 4a 38
        e 97 90 43 66
        e 166 80 43 35
        e 8 90 42 56
        e 127 90 43 63
        e 1 80 42 43
        e 151 80 43 44
        e 20 90 45 62
        e 171 80 45 37
        e 151 90 45 5f
        e 164 90 3e 61
        e 26 80 45 2d
        e 159 80 3e 1e
        e 117 90 3e 56
        e 173 90 45 69
        e 18 80 3e 2b
        e 183 80 45 27
        e 118 90 45 62
        e 162 90 3e 63
        e 11 80 45 3d
        e 158 80 3e 2f
        e 128 90 3e 53
        e 140 80 3e 1f
        e 45 90 47 62
        e 137 90 48 52
        e 9 80 47 41
        e 157 90 47 5f
        e 7 80 48 3a
        e 125 80 47 35
        e 36 90 45 63
        e 158 90 47 61
        e 2 80 45 24
        e 148 90 45 5e
        e 4 80 47 30
        e 155 80 45 41
        e 11 90 43 67
        e 405 80 43 39
        e 110 90 43 6b
        e 124 80 43 52
        e 2 90 40 5f
        e 179 90 43 67
        e 19 80 40 01
        e 119 80 43 45
        e 34 90 48 65
        e 387 80 48 26
        e 78 90 48 62
        e 415 80 48 1e
        e 71 90 4a 64
        e 416 80 4a 43
        e 65 90 4a 66
        e 263 80 4a 42
        e 81 90 4a 55
        e 119 80 4a 43
        e 28 90 4c 65
        e 283 80 4c 2c
        e 8 90 4a 57
        e 134 80 4a 25
        e 29 90 48 5e
        e 268 80 48 35
        e 30 90 4a 53
        e 147 80 4a 2d
        e 27 90 4c 62
        e 438 80 4c 1a
        e 68 90 4d 61
        e 143 90 4c 5e
        e 26 80 4d 42
        e 131 80 4c 48
        e 3 90 4a 57
        e 134 80 4a 0f
        e 48 90 4c 67
        e 464 80 4c 24
        e 26 90 48 5e
        e 448 80 48 01
        e 15 90 4a 5f
        e 483 90 47 64
        e 6 80 4a 3d
        e 202 80 47 25
        e 123 90 47 61
        e 118 80 47 22
        e 33 90 48 62
        e 1301 80 48 42
        e 147 90 43 6e
        e 130 80 43 4f
        e 0 90 40 53
        e 158 90 43 68
        e 5 80 40 27
        e 146 80 43 2f
        e 29 90 48 63
        e 404 80 48 1d
        e 76 90 48 62
        e 421 80 48 25
        e 66 90 4a 61
        e 414 80 4a 39
        e 70 90 4a 5f
        e 177 80 4a 3e
        e 67 90 4a 5e
        e 183 80 4a 2e
        e 45 90 4c 63
        e 255 80 4c 2b
        e 68 90 4a 5b
        e 133 80 4a 30
        e 26 90 48 61
        e 242 80 48 12
        e 75 90 4a 5f
        e 126 80 4a 31
        e 32 90 4c 60
        e 408 80 4c 28
        e 78 90 4d 60
        e 133 90 4c 5c
        e 26 80 4d 3a
        e 111 80 4c 2b
        e 19 90 4a 61
        e 159 80 4a 11
        e 27 90 4c 61
        e 458 80 4c 01
        e 43 90 48 63
        e 441 80 48 01
        e 26 90 4a 5e
        e 461 90 47 5f
        e 24 80 4a 2f
        e 194 80 47 32
        e 111 90 47 56
        e 129 80 47 2e
        e 31 90 48 64
        e 1303 80 48 56
        e 617 90 43 6d
        e 422 80 43 1b
        e 60 90 42 66
        e 229 80 42 0b
        e 110 90 45 61
        e 117 80 45 26
        e 30 90 43 6b
        e 454 80 43 37
        e 45 90 3e 64
        e 337 80 3e 36
        e 124 90 45 66
        e 144 90 47 60
        e 26 80 45 36
        e 109 80 47 47
        e 6 90 48 5a
        e 137 80 48 28
        e 50 90 47 67
        e 210 80 47 2f
        e 117 90 45 56
        e 106 80 45 1b
        e 47 90 47 60
        e 496 90 43 67
        e 8 80 47 29
        e 329 80 43 16
        e 158 90 43 68
        e 449 80 43 1f
        e 18 90 42 61
        e 247 80 42 1e
        e 76 90 45 5e
        e 134 80 45 28
        e 5 90 43 69
        e 481 80 43 39
        e 1 90 3e 5c
        e 393 80 3e 01
        e 85 90 45 64
        e 146 90 47 5e
        e 25 80 45 12
        e 137 80 47 41
        e 9 90 48 58
        e 162 90 47 67
        e 12 80 48 31
        e 230 80 47 22
        e 74 90 45 55
        e 152 80 45 30
        e 8 90 43 65
        e 651 80 43 3e
        e 299 90 43 69
        e 427 80 43 1a
        e 50 90 42 66
        e 215 80 42 25
        e 108 90 45 53
        e 144 80 45 32
        e 32 90 43 6c
        e 470 80 43 48
        e 3 90 3e 5e
        e 350 80 3e 10
        e 130 90 45 63
        e 158 90 47 5d
        e 29 80 45 32
        e 113 80 47 46
        e 3 90 48 52
        e 170 80 48 38
        e 1 90 47 63
        e 192 80 47 23
        e 128 90 45 5f
        e 153 80 45 07
        e 17 90 47 5f
        e 472 80 47 41
        e 1 90 43 62
        e 317 80 43 39
        e 169 90 43 68
        e 417 80 43 13
        e 63 90 42 62
        e 239 80 42 2c
        e 98 90 45 61
        e 152 80 45 33
        e 11 90 43 68
        e 466 80 43 48
        e 6 90 3e 59
        e 348 80 3e 01
        e 103 90 45 64
        e 145 90 47 5d
        e 27 80 45 11
        e 123 80 47 42
        e 9 90 48 52
        e 175 90 47 66
        e 9 80 48 24
        e 240 80 47 0d
        e 73 90 45 5f
        e 147 80 45 2b
        e 25 90 43 60
        e 1440 80 43 43
        E 7 b0 7b 00
        GUID {BD2AB576-9859-4A47-B0C2-FB40A957AF58}
        IGNTEMPO 0 120 4 4
        SRCCOLOR 402
        VELLANE -1 86 6
        CFGEDITVIEW 0 0 49 11 0 0 0 0 0
        KEYSNAP 0 3 102304056070 0 "Natural minor"
        TRACKSEL 226 0 0 ""
        EVTFILTER 0 -1 -1 -1 -1 0 0 0 0 -1 -1 -1 -1 0 -1 0 -1 -1
        CFGEDIT 1 0 0 0 0 0 1 0 1 1 1 0.125 0 16 1280 470 0 0 2 3 0.25 0 0 0 0 -0.44 0 0 1 64
      >
    >
    <ITEM
      POSITION 0
      SNAPOFFS 0
      LENGTH 64.5
      LOOP 1
      ALLTAKES 0
      FADEIN 1 0 0 1 0 0
      FADEOUT 1 0 0 1 0 0
      MUTE 1
      SEL 0
      YPOS 0.532189 0.201717
      IGUID {2D98AF23-E434-1B42-992D-E5A4AB8A48CF}
      IID 3
      NAME "trombone(s) - National_Anthems_-_Philippines.mid"
      VOLPAN 1 0 1 -1
      SOFFS 0 0
      PLAYRATE 1 1 0 -1 0 0.0025
      CHANMODE 0
      TAKECOLOR 26173599
      GUID {DAFD32BB-DBAF-9A41-AD90-9E6071722D9C}
      <SOURCE MIDI
        HASDATA 1 480 QN
        POOLEDEVTS {61C0881A-208C-6443-9091-056D9301F2B7}
        <X 0 0
          /wN0cm9tYm9uZShzKQ==
        >
        <X 0 0
          /wRTb3VuZCBDYW52YXM=
        >
        e 0 92 37 7f
        e 240 82 37 01 37
        e 240 92 32 7f -4
        e 360 82 32 01 -34
        e 120 92 37 7f -6
        e 360 82 37 01 -49
        e 120 92 2b 7f -29
        e 360 82 2b 33 -59
        e 120 92 36 7f -2
        e 240 82 36 13 49
        e 240 92 32 7f -12
        e 240 82 32 40 37
        e 240 92 37 7f -4
        e 360 82 37 01 -37
        e 120 92 2b 7f -14
        e 360 82 2b 26 -44
        e 120 92 37 7f -5
        e 360 82 37 01 -41
        e 120 92 32 7f 6
        e 240 82 32 21 48
        e 240 92 37 7f 1
        e 360 82 37 01 1
        e 120 92 2b 7f -14
        e 240 82 2b 3b 9
        e 240 92 30 7f -1
        e 360 82 30 24 -52
        e 120 92 32 7f -14
        e 240 82 32 16 46
        e 240 92 37 7f -11
        e 360 82 37 01 -54
        e 120 92 2b 7f -15
        e 360 82 2b 27 -54
        e 120 92 37 7f -5
        e 360 82 37 01 -49
        e 120 92 32 7f -30
        e 240 82 32 31 23
        e 240 92 37 7f -11
        e 240 82 37 08 45
        e 240 92 2b 7f -18
        e 240 82 2b 36 47
        e 240 92 36 7f -15
        e 240 82 36 01 23
        e 240 92 32 7f -33
        e 240 82 32 13 27
        e 240 92 37 7f -4
        e 360 82 37 18 -40
        e 120 92 2b 7f -5
        e 240 82 2b 35 47
        e 240 92 37 7f 11
        e 240 82 37 01 45
        e 240 92 32 7f 17
        e 240 82 32 20 58
        e 240 92 37 7f 10
        e 360 82 37 01 -51
        e 120 92 2b 7f 9
        e 240 82 2b 43 52
        e 240 92 30 7f 16
        e 360 82 30 01 -54
        e 120 92 32 7f -14
        e 240 82 32 1f 37
        e 240 92 37 7f -28
        e 360 82 37 01 -14
        e 120 92 2b 7f -1
        e 360 82 2b 08 19
        e 120 92 32 7f -8
        e 360 82 32 01 -31
        e 120 92 32 7f 12
        e 0 92 36 7f -1
        e 240 82 32 3c 4
        e 120 82 36 01 -57
        e 600 92 36 7f 16
        e 360 82 36 4f -54
        e 600 92 3b 7f 6
        e 0 92 3e 7f
        e 120 82 3b 42 45
        e 0 82 3e 22 36
        e 240 92 3c 7f -53
        e 0 92 40 7f -58
        e 120 82 3c 37 -71
        e 0 82 40 3d -77
        e 0 92 3b 7f 6
        e 0 92 3e 7f 3
        e 480 82 3b 51 -5
        e 0 82 3e 49 14
        e 960 92 32 7f -9
        e 0 92 36 7f -19
        e 240 82 36 3c 57
        e 120 82 32 44 -50
        e 600 92 32 7f 20
        e 0 92 36 7f 11
        e 240 82 32 36 54
        e 0 82 36 2f 55
        e 240 92 32 7f -6
        e 240 82 32 05 14
        e 240 92 32 7f -11
        e 240 82 32 39 32
        e 240 92 2b 7f -28
        e 360 82 2b 03 -47
        e 120 92 2b 7f -2
        e 240 82 2b 26 -1
        e 240 92 32 7f -8
        e 240 82 32 3d 41
        e 240 92 32 7f -2
        e 0 92 36 7f -6
        e 240 82 32 1b -42
        e 0 82 36 17 -3
        e 720 92 32 7f 1
        e 0 92 36 7f -3
        e 240 82 32 3f 21
        e 0 82 36 48 23
        e 720 92 37 7f 18
        e 0 92 3b 7f 12
        e 0 92 3e 7f 17
        e 120 82 3b 43 40
        e 0 82 3e 30 35
        e 120 82 37 01 -52
        e 120 92 3c 7f -46
        e 0 92 40 7f -43
        e 120 82 3c 3a -41
        e 0 82 40 2e -75
        e 0 92 3b 7f -11
        e 0 92 3e 7f -11
        e 480 82 3b 49 -56
        e 0 82 3e 38 -42
        e 960 92 32 7f -11
        e 0 92 36 7f -15
        e 240 82 32 30 -8
        e 0 82 36 25 -23
        e 720 92 32 7f -21
        e 0 92 36 7f -27
        e 240 82 32 24 -51
        e 0 82 36 33 -55
        e 240 92 32 7f -20
        e 240 82 32 26 -10
        e 240 92 32 7f -31
        e 240 82 32 01 25
        e 240 92 2b 7f -20
        e 240 82 2b 47 24
        e 240 92 37 7f -10
        e 120 82 37 33 44
        e 0 92 34 7f 32
        e 120 82 34 47 58
        e 120 92 37 7f -55
        e 120 82 37 41 -105
        e 0 92 3c 7f 21
        e 360 82 3c 12 13
        e 120 92 34 7f 37
        e 360 82 34 01 53
        e 120 92 37 7f 3
        e 360 82 37 01 12
        e 120 92 3b 7f -19
        e 360 82 3b 2b -11
        e 120 92 3c 7f
        e 240 82 3c 0a -47
        e 120 92 37 7f -46
        e 120 82 37 46 -3
        e 0 92 3c 7f -7
        e 240 82 3c 01 -46
        e 120 92 3e 7f -58
        e 120 82 3e 1c -51
        e 0 92 40 7f -28
        e 360 82 40 26 -32
        e 120 92 3e 7f -5
        e 120 82 3e 1f 25
        e 0 92 3c 7f 24
        e 120 82 3c 45 48
        e 0 92 3e 7f 58
        e 240 82 3e 27 -41
        e 0 92 3c 7f -17
        e 360 82 3c 03 -24
        e 120 92 37 7f -3
        e 360 82 37 02 53
        e 120 92 2b 7f -9
        e 360 82 2b 10 16
        e 120 92 37 7f -30
        e 120 82 37 20 5
        e 240 92 37 7f -48
        e 120 82 37 1d 10
        e 0 92 30 7f -7
        e 360 82 30 2f 9
        e 120 92 37 7f -16
        e 120 82 37 20 23
        e 0 92 34 7f 11
        e 120 82 34 33 43
        e 0 92 37 7f 37
        e 240 82 37 23 -11
        e 0 92 30 7f -13
        e 360 82 30 20 -43
        e 120 92 37 7f -15
        e 120 82 37 1d 31
        e 0 92 34 7f 16
        e 120 82 34 39 23
        e 0 92 37 7f 48
        e 120 82 37 0d 51
        e 120 92 3c 7f -10
        e 360 82 3c 01 -37
        e 120 92 34 7f
        e 240 82 34 34 16
        e 240 92 37 7f -13
        e 360 82 37 07 1
        e 120 92 3b 7f -16
        e 360 82 3b 16 1
        e 120 92 3c 7f -9
        e 240 82 3c 2d -26
        e 120 92 3e 7f -43
        e 120 82 3e 22 -26
        e 0 92 3c 7f -19
        e 240 82 3c 2a -33
        e 120 92 3e 7f -48
        e 120 82 3e 13 -33
        e 0 92 40 7f -12
        e 360 82 40 2f 8
        e 120 92 3e 7f 6
        e 120 82 3e 23 42
        e 0 92 3c 7f 29
        e 120 82 3c 45 53
        e 0 92 3e 7f 57
        e 240 82 3e 30 -36
        e 0 92 3c 7f -5
        e 360 82 3c 07 -3
        e 120 92 37 7f -7
        e 360 82 37 21 11
        e 120 92 37 7f 23
        e 360 82 37 01 26
        e 120 92 2b 7f -13
        e 360 82 2b 01 -39
        e 120 92 30 7f -9
        e 360 82 30 01 -4
        e 120 92 37 7f -6
        e 120 82 37 1f 5
        e 0 92 34 7f 16
        e 120 92 37 7f 59
        e 120 82 34 43 -60
        e 120 82 37 09 -43
        e 0 92 30 7f -19
        e 480 82 30 5d -15
        e 480 92 37 7f
        e 240 82 37 01 37
        e 240 92 32 7f -4
        e 360 82 32 01 -34
        e 120 92 37 7f -6
        e 360 82 37 01 -49
        e 120 92 2b 7f -29
        e 360 82 2b 33 -59
        e 120 92 36 7f -2
        e 240 82 36 13 49
        e 240 92 32 7f -12
        e 240 82 32 40 37
        e 240 92 37 7f -4
        e 360 82 37 01 -37
        e 120 92 2b 7f -14
        e 360 82 2b 26 -44
        e 120 92 37 7f -5
        e 360 82 37 01 -41
        e 120 92 32 7f 6
        e 240 82 32 21 48
        e 240 92 37 7f 1
        e 360 82 37 01 1
        e 120 92 2b 7f -14
        e 240 82 2b 3b 9
        e 240 92 30 7f -1
        e 360 82 30 24 -52
        e 120 92 32 7f -14
        e 240 82 32 16 46
        e 240 92 37 7f -11
        e 360 82 37 01 -54
        e 120 92 2b 7f -15
        e 360 82 2b 27 -54
        e 120 92 37 7f -5
        e 360 82 37 01 -49
        e 120 92 32 7f -30
        e 240 82 32 31 23
        e 240 92 37 7f -11
        e 240 82 37 08 45
        e 240 92 2b 7f -18
        e 240 82 2b 36 47
        e 240 92 36 7f -15
        e 240 82 36 01 23
        e 240 92 32 7f -33
        e 240 82 32 13 27
        e 240 92 37 7f -4
        e 360 82 37 18 -40
        e 120 92 2b 7f -5
        e 240 82 2b 35 47
        e 240 92 37 7f 11
        e 240 82 37 01 45
        e 240 92 32 7f 17
        e 240 82 32 20 58
        e 240 92 37 7f 10
        e 360 82 37 01 -51
        e 120 92 2b 7f 9
        e 240 82 2b 43 52
        e 240 92 30 7f 16
        e 360 82 30 01 -54
        e 120 92 32 7f -14
        e 240 82 32 1f 37
        e 240 92 37 7f -28
        e 1440 82 37 01 -28
        E 0 b0 7b 00
        GUID {28F9F36F-8E8F-4840-968E-C9E53BFC96C1}
        IGNTEMPO 0 120 4 4
        SRCCOLOR 327
        VELLANE -1 86 6
        CFGEDITVIEW -3096 12.233968 62 8 0 0 0 0 0
        KEYSNAP 0 3 102304056070 0 "Natural minor"
        TRACKSEL 226 0 0 ""
        EVTFILTER 0 -1 -1 -1 -1 0 0 0 0 -1 -1 -1 -1 0 -1 0 -1 -1
        CFGEDIT 1 0 0 0 0 0 1 0 1 1 1 0.125 16 32 1280 470 0 0 2 3 0.25 0 0 0 0 -0.44 0 0 1 64
      >
      TAKE
      NAME "trombone(s) - National_Anthems_-_Philippines.mid"
      TAKEVOLPAN 0 1 -1
      SOFFS 0 0
      PLAYRATE 1 1 0 -1 0 0.0025
      CHANMODE 0
      GUID {4DEDB26D-B13B-5A45-ADAC-C835B6738A8E}
      <SOURCE MIDI
        HASDATA 1 480 QN
        POOLEDEVTS {A534B789-94A5-A049-839F-B2384F484C77}
        <X 0 0
          /wN0cm9tYm9uZShzKQ==
        >
        <X 0 0
          /wRTb3VuZCBDYW52YXM=
        >
        E 0 92 37 52
        E 277 82 37 01
        E 199 92 32 59
        E 330 82 32 01
        E 148 92 37 54
        E 317 82 37 01
        E 140 92 2b 5c
        E 330 82 2b 33
        E 177 92 36 5f
        E 291 82 36 13
        E 179 92 32 59
        E 289 82 32 40
        E 199 92 37 51
        E 327 82 37 01
        E 143 92 2b 53
        E 330 82 2b 26
        E 159 92 37 52
        E 324 82 37 01
        E 167 92 32 50
        E 282 82 32 21
        E 193 92 37 4f
        E 360 82 37 01
        E 105 92 2b 60
        E 263 82 2b 3b
        E 230 92 30 57
        E 309 82 30 24
        E 158 92 32 59
        E 300 82 32 16
        E 183 92 37 59
        E 317 82 37 01
        E 159 92 2b 62
        E 321 82 2b 27
        E 169 92 37 59
        E 316 82 37 01
        E 139 92 32 56
        E 293 82 32 31
        E 206 92 37 59
        E 296 82 37 08
        E 177 92 2b 5f
        E 305 82 2b 36
        E 178 92 36 5d
        E 278 82 36 01
        E 184 92 32 5b
        E 300 82 32 13
        E 209 92 37 52
        E 324 82 37 18
        E 155 92 2b 5f
        E 292 82 2b 35
        E 204 92 37 57
        E 274 82 37 01
        E 212 92 32 53
        E 281 82 32 20
        E 192 92 37 53
        E 299 82 37 01
        E 180 92 2b 54
        E 283 82 2b 43
        E 204 92 30 58
        E 290 82 30 01
        E 160 92 32 5a
        E 291 82 32 1f
        E 175 92 37 4f
        E 374 82 37 01
        E 133 92 2b 53
        E 380 82 2b 08
        E 93 92 32 51
        E 337 82 32 01
        E 150 92 36 4a
        E 13 92 32 45
        E 232 82 32 3c
        E 59 82 36 01
        E 673 92 36 4c
        E 290 82 36 4f
        E 654 92 3e 53
        E 6 92 3b 51
        E 150 82 3e 22
        E 9 82 3b 42
        E 137 92 40 4c
        E 5 92 3c 58
        E 96 82 40 3d
        E 6 82 3c 37
        E 74 92 3e 48
        E 3 92 3b 44
        E 469 82 3b 51
        E 19 82 3e 49
        E 927 92 36 49
        E 10 92 32 41
        E 306 82 36 3c
        E 13 82 32 44
        E 661 92 36 4f
        E 9 92 32 3e
        E 274 82 32 36
        E 1 82 36 2f
        E 179 92 32 4a
        E 260 82 32 05
        E 215 92 32 51
        E 283 82 32 39
        E 180 92 2b 56
        E 341 82 2b 03
        E 165 92 2b 4b
        E 241 82 2b 26
        E 233 92 32 47
        E 289 82 32 3d
        E 193 92 36 4a
        E 4 92 32 4d
        E 200 82 32 1b
        E 39 82 36 17
        E 720 92 36 48
        E 4 92 32 43
        E 260 82 32 3f
        E 2 82 36 48
        E 709 92 3b 4c
        E 5 92 3e 25
        E 1 92 37 41
        E 137 82 3e 30
        E 5 82 3b 43
        E 28 82 37 01
        E 126 92 3c 4b
        E 3 92 40 27
        E 88 82 40 2e
        E 34 82 3c 3a
        E 30 92 3e 50
        E 0 92 3b 50
        E 435 82 3b 49
        E 14 82 3e 38
        E 987 92 36 44
        E 4 92 32 53
        E 228 82 36 25
        E 15 82 32 30
        E 701 92 36 3e
        E 6 92 32 51
        E 206 82 36 33
        E 4 82 32 24
        E 271 92 32 55
        E 250 82 32 26
        E 219 92 32 57
        E 296 82 32 01
        E 195 92 2b 57
        E 284 82 2b 47
        E 206 92 37 5d
        E 162 92 34 5f
        E 12 82 37 33
        E 134 82 34 47
        E 7 92 37 54
        E 70 82 37 41
        E 126 92 3c 5f
        E 352 82 3c 12
        E 144 92 34 64
        E 376 82 34 01
        E 70 92 37 57
        E 369 82 37 01
        E 89 92 3b 53
        E 368 82 3b 2b
        E 131 92 3c 64
        E 193 82 3c 0a
        E 121 92 37 55
        E 159 92 3c 61
        E 4 82 37 46
        E 197 82 3c 01
        E 108 92 3e 5a
        E 127 82 3e 1c
        E 23 92 40 5b
        E 356 82 40 26
        E 147 92 3e 5f
        E 149 92 3c 53
        E 1 82 3e 1f
        E 143 82 3c 45
        E 10 92 3e 5c
        E 141 82 3e 27
        E 24 92 3c 5c
        E 353 82 3c 03
        E 141 92 37 57
        E 416 82 37 02
        E 58 92 2b 5e
        E 385 82 2b 10
        E 74 92 37 5b
        E 155 82 37 20
        E 187 92 37 4e
        E 161 92 30 53
        E 17 82 37 1d
        E 359 82 30 2f
        E 95 92 37 56
        E 147 92 34 59
        E 12 82 37 20
        E 134 92 37 51
        E 6 82 34 33
        E 184 92 30 52
        E 2 82 37 23
        E 328 82 30 20
        E 148 92 37 5c
        E 151 92 34 57
        E 15 82 37 1d
        E 112 82 34 39
        E 25 92 37 50
        E 123 82 37 0d
        E 59 92 3c 51
        E 333 82 3c 01
        E 157 92 34 65
        E 256 82 34 34
        E 211 92 37 58
        E 374 82 37 07
        E 103 92 3b 5c
        E 377 82 3b 16
        E 110 92 3c 5a
        E 223 82 3c 2d
        E 103 92 3e 5a
        E 137 82 3e 22
        E 7 92 3c 5b
        E 226 82 3c 2a
        E 105 92 3e 5b
        E 135 82 3e 13
        E 21 92 40 58
        E 380 82 40 2f
        E 118 92 3e 57
        E 143 92 3c 57
        E 13 82 3e 23
        E 131 82 3c 45
        E 4 92 3e 58
        E 147 82 3e 30
        E 31 92 3c 5c
        E 362 82 3c 07
        E 116 92 37 59
        E 378 82 37 21
        E 132 92 37 54
        E 363 82 37 01
        E 81 92 2b 60
        E 334 82 2b 01
        E 150 92 30 57
        E 365 82 30 01
        E 118 92 37 5d
        E 131 82 37 1f
        E 11 92 34 60
        E 163 92 37 51
        E 1 82 34 43
        E 137 82 37 09
        E 24 92 30 5d
        E 484 82 30 5d
        E 495 92 37 52
        E 277 82 37 01
        E 199 92 32 59
        E 330 82 32 01
        E 148 92 37 54
        E 317 82 37 01
        E 140 92 2b 5c
        E 330 82 2b 33
        E 177 92 36 5f
        E 291 82 36 13
        E 179 92 32 59
        E 289 82 32 40
        E 199 92 37 51
        E 327 82 37 01
        E 143 92 2b 53
        E 330 82 2b 26
        E 159 92 37 52
        E 324 82 37 01
        E 167 92 32 50
        E 282 82 32 21
        E 193 92 37 4f
        E 360 82 37 01
        E 105 92 2b 60
        E 263 82 2b 3b
        E 230 92 30 57
        E 309 82 30 24
        E 158 92 32 59
        E 300 82 32 16
        E 183 92 37 59
        E 317 82 37 01
        E 159 92 2b 62
        E 321 82 2b 27
        E 169 92 37 59
        E 316 82 37 01
        E 139 92 32 56
        E 293 82 32 31
        E 206 92 37 59
        E 296 82 37 08
        E 177 92 2b 5f
        E 305 82 2b 36
        E 178 92 36 5d
        E 278 82 36 01
        E 184 92 32 5b
        E 300 82 32 13
        E 209 92 37 52
        E 324 82 37 18
        E 155 92 2b 5f
        E 292 82 2b 35
        E 204 92 37 57
        E 274 82 37 01
        E 212 92 32 53
        E 281 82 32 20
        E 192 92 37 53
        E 299 82 37 01
        E 180 92 2b 54
        E 283 82 2b 43
        E 204 92 30 58
        E 290 82 30 01
        E 160 92 32 5a
        E 291 82 32 1f
        E 175 92 37 4f
        E 1440 82 37 01
        E 28 b0 7b 00
        GUID {DD5B58D2-22DA-7D4E-81BC-F7C1B8B39AFE}
        IGNTEMPO 0 120 4 4
        SRCCOLOR 403
        VELLANE -1 86 6
      >
    >
  >
  <TRACK {A26B8C2D-9EE6-0440-AA6B-121F89FB50DD}
    NAME "16th pulse (mix w/ send?)"
    PEAKCOL 16576
    BEAT -1
    AUTOMODE 0
    VOLPAN 1 0 -1 -1 1
    MUTESOLO 1 0 0
    IPHASE 0
    ISBUS 0 0
    BUSCOMP 0 0
    SHOWINMIX 1 0.6667 0.698113 1 0.5 -1 -1 -1
    FREEMODE 0
    SEL 0
    REC 0 0 0 0 0 0 0
    VU 2
    TRACKHEIGHT 0 0
    INQ 0 0 0 0.5 100 0 0 100
    NCHAN 4
    FX 1
    TRACKID {A26B8C2D-9EE6-0440-AA6B-121F89FB50DD}
    PERF 0
    MIDIOUT -1
    MAINSEND 0 0
    <FXCHAIN
      WNDRECT 36 359 724 387
      SHOW 0
      LASTSEL 0
      DOCKED 0
      BYPASS 0 0 0
      <VST "VSTi: chipsounds (Plogue Art et Technologie, Inc)" chipsounds.vst 0 ""
        T0dMUO5e7f4AAAAABAAAAAEAAAAAAAAAAgAAAAAAAAAEAAAAAAAAAAgAAAAAAAAAJQMAAAEAAAAAABAAQ0VHUNMTAAB4nO1YXW+bMBR976+weNoeSmzzLSWt2qSZIi1r
        NLLnyiFuimYgA5O1+/UzJiTQpOB23aSp9Uvs6+N7fe4Fc+L++X3EwIamWZjEAw3pUAPnZyf9izQkPtnQ2pQNsXZ2AkTr+5TzMF5l4EdOWMgfxKwGVixZEDZLmBgaWAMZ
        TymJBKwcRuTel5YLxpJgejnQLCTM08locp3zabKk0gvJeRIRLkL6LOEDTewnC8SMZTlFjzAibAicAlrE1rOAbc1DGnOaDjQbVluZ57GMDnUomwZ61f6FaxAupfeYRLRw
        qYNZnlIwvAvXPX8y6tmWi8CHL3N/+FEDCxJ/nwg8gtDTQHBH4piygXYqNryWhE0N8INw68VNSuIVLYA7IxembJ1kVEaPcl7yzn7eMJIJws42yXKjUxLG1UY3hOVUlqjJ
        pglEO+AB7SYQqwINVaCpCrRUgbYq0FEFuqpATxWIoDJSuTZIuThIuTpIuTyoqz4zkpJI6SHaI7ui75H1WrqW1YJspN702qBOPffIaI1vNqCtXusPKHJboc0nrw3q1r0a
        rblyPWWoV08W8tqgyNzXFeHj9ZqTdEX59vQMkkifsWSVU734cOifx9d6ntEU1s4yuWqYZ+J4HxFOAH9Yi5UYG3Zx+oW/xMAsclR9b0Q8Gi9DUnaXYonoVG1c/mD4uq1J
        sVdyfC5p9JZIfxXbpan47vk0KyjoGafrt1L2eRquVjT1hRShcUDTTtrIwciraBeCZkcbH6ONtqy3rRw7sm8MnbHXIDGExvgvJqLfK0TTY/2EXks/4b1+Qi8QULAmoOx3
        AfUuoP4XAdVkhGzbUZFaHrTkn6duqYUd04Z2t9Q6/lI8IbWsVqjTVc8nVJlltuqnRp3atV49AYbTuoF6pax2Wdj1Lr1IwKlIrbqG2+cWd1YM4o7yvmu4t67h/kzBIIie
        K2Hk0eGILIyvDiVMmRrHuGwYxkLYFFj3ACqso2MeIG56+JfS6Or2lgb88ILpIlqERYofa6HqSurTt0m1gAQ83NBJef+FqvHV/j6MMhGCLudkIeeFi36vurA7O/kNjqLF
        /wAAEAAAAA==
      >
      FLOATPOS 409 269 871 509
      FXID {DC79668B-30D1-964C-A162-F245DBE294B0}
      WAK 0
      BYPASS 1 0 0
      <JS Delay/time_adjustment ""
        -10.000000 0.000000 -120.000000 0.000000 - - - - - - - - - - - - - - - - - - - - - - - - - - - - - - - - - - - - - - - - - - - - - - - - - - - - - - - - - - - - 
      >
      FLOATPOS 1254 834 554 157
      FXID {40721658-5454-1743-9C6A-517A806DB8F9}
      WAK 0
    >
  >
  <TRACK {D84D9A18-9EB2-B147-888B-8DACBA3BBEF6}
    NAME "Bass Return (global)"
    PEAKCOL 0
    BEAT -1
    AUTOMODE 0
    VOLPAN 1 0 -1 -1 1
    MUTESOLO 0 0 0
    IPHASE 0
    ISBUS 0 0
    BUSCOMP 0 0
    SHOWINMIX 1 0.6667 0.698113 1 0.5 -1 -1 -1
    FREEMODE 0
    SEL 0
    REC 0 0 0 0 0 0 0
    VU 2
    TRACKHEIGHT 0 0
    INQ 0 0 0 0.5 100 0 0 100
    NCHAN 2
    FX 1
    TRACKID {D84D9A18-9EB2-B147-888B-8DACBA3BBEF6}
    PERF 0
    AUXRECV 0 0 1 0 1 0 0 0 0 -1 0 -1 ''
    AUXRECV 4 0 1 0 0 0 0 4 0 -1 0 -1 ''
    MIDIOUT -1
    MAINSEND 1 0
    <FXCHAIN
      SHOW 0
      LASTSEL 0
      DOCKED 0
      BYPASS 0 0 0
      <VST "VST: 8-Bit Shaper (Xfer Records)" 8BitShaper.vst 0 ""
        clN1RO5e7f4CAAAAAQAAAAAAAAACAAAAAAAAAAIAAAABAAAAAAAAAAIAAAAAAAAANAIAAAEAAAAAABAAZmaGP20MlT7dQQw/AAAAPywAAAAAAIA/AAAAAAAACEAXAAAA
        MAAAABkAAAAaAAAAGgAAABoAAAAbAAAAGwAAABwAAAAcAAAAHAAAAB0AAAAdAAAAHgAAAB4AAAAfAAAAHwAAACAAAAAgAAAAIAAAACEAAAAhAAAAIQAAACIAAAAiAAAA
        IgAAACMAAAAjAAAAIwAAACQAAAAkAAAAJAAAACUAAAAlAAAAKAAAACgAAAApAAAAKQAAACoAAAA1AAAAKgAAACoAAAA2AAAAKgAAACoAAAAqAAAAKgAAACoAAAAqAAAA
        KgAAACsAAAArAAAAOQAAAC0AAAA0AAAAOgAAAC0AAAAtAAAAPAAAAC4AAAAuAAAALwAAADAAAAAwAAAAMQAAADEAAAAxAAAAMgAAADMAAAAzAAAAMwAAADcAAAA3AAAA
        NwAAADgAAAA4AAAAOAAAADkAAAA5AAAAOQAAADoAAAA6AAAAOgAAADoAAAA6AAAAOwAAADsAAAA7AAAAPAAAADsAAAA7AAAAOwAAADwAAAA8AAAAPAAAADwAAAA9AAAA
        PQAAAD0AAAA9AAAAPQAAAD4AAAA+AAAAPwAAAEkAAABAAAAAQAAAAEgAAABAAAAAQQAAAEIAAABCAAAAQgAAAEMAAABDAAAAQwAAAEQAAABEAAAARQAAAE0AAABGAAAA
        RwAAAEYAAABHAAAASAAAAEgAAABJAAAATwAAAAAAgD+rqqo+q6qqPh0Fwz6OAm0/AEluaXQgMQAQAAAA
      >
      FLOATPOS 32 39 278 389
      FXID {19A94086-1737-784E-A733-2897FDD09534}
      WAK 0
    >
  >
  <TRACK {2E103EAF-0FA2-9942-87A1-30E1663A9F4B}
    NAME "--- 0 --- 0 --- 0 "
    PEAKCOL 16576
    BEAT -1
    AUTOMODE 0
    VOLPAN 1 0 -1 -1 1
    MUTESOLO 0 0 0
    IPHASE 0
    ISBUS 0 0
    BUSCOMP 0 0
    SHOWINMIX 1 0.6667 0.565574 0 0.5 -1 -1 -1
    FREEMODE 0
    SEL 0
    REC 0 0 0 0 0 0 0
    VU 2
    TRACKHEIGHT 0 0
    INQ 0 0 0 0.5 100 0 0 100
    NCHAN 2
    FX 1
    TRACKID {2E103EAF-0FA2-9942-87A1-30E1663A9F4B}
    PERF 0
    LAYOUTS "" Separator
    MIDIOUT -1
    MAINSEND 1 0
  >
  <TRACK {D4259754-8A5D-ED42-9EF0-7FA3B62785A4}
    NAME "vst Plogue"
    PEAKCOL 26779488
    BEAT -1
    AUTOMODE 0
    VOLPAN 1 0 -1 -1 1
    MUTESOLO 0 0 0
    IPHASE 0
    ISBUS 0 0
    BUSCOMP 0 0
    SHOWINMIX 1 0.6667 0.698113 1 0.5 -1 -1 -1
    FREEMODE 0
    SEL 0
    REC 0 0 0 1 0 0 0
    VU 2
    TRACKHEIGHT 0 0
    INQ 0 0 0 0.5 100 0 0 100
    NCHAN 8
    FX 1
    TRACKID {D4259754-8A5D-ED42-9EF0-7FA3B62785A4}
    PERF 0
    AUXRECV 1 0 1 0 0 0 0 0 4 -1 0 -1 ''
    AUXRECV 6 0 1 0 0 0 0 0 0 -1 32 -1 ''
    AUXRECV 6 0 1 0 0 0 0 0 0 -1 96 -1 ''
    AUXRECV 7 0 1 0 0 0 0 0 0 -1 64 -1 ''
    AUXRECV 7 0 1 0 0 0 0 0 0 -1 128 -1 ''
    AUXRECV 8 0 1 0 0 0 0 0 0 -1 160 -1 ''
    MIDIOUT -1
    MAINSEND 0 0
    <FXCHAIN
      WNDRECT 532 389 724 387
      SHOW 0
      LASTSEL 0
      DOCKED 0
      BYPASS 0 0 0
      <VST "VSTi: chipsounds (Multi) (Plogue Art et Technologie, Inc) (32 out)" "chipsounds Multi.vst" 0 ""
        T0dNUO5e7f4AAAAAIAAAAAEAAAAAAAAAAgAAAAAAAAAEAAAAAAAAAAgAAAAAAAAAEAAAAAAAAAAgAAAAAAAAAEAAAAAAAAAAgAAAAAAAAAAAAQAAAAAAAAACAAAAAAAA
        AAQAAAAAAAAACAAAAAAAAAAQAAAAAAAAACAAAAAAAAAAQAAAAAAAAACAAAAAAAAAAAABAAAAAAAAAAIAAAAAAAAABAAAAAAAAAAIAAAAAAAAABAAAAAAAAAAIAAAAAAA
        AABAAAAAAAAAAIAAAAAAAAAAAAEAAAAAAAAAAgAAAAAAAAAEAAAAAAAAAAgAAAAAAAAAEAAAAAAAAAAgAAAAAAAAAEAAAAAAAAAAgAAAAAD4BQAAAQAAAAAAEABDRUdQ
        jD8AAHic7ZtNc9s2EIbv/hUcntpDRAD8npGdkWSr8UzdeCpneszAEiKzpUiVAN2kv74gaUqARIFgaLdJTR4SEXq5wGIh4AHWHL/9vImNR5LRKE3OTTgCpvH24mw8ySK8
        wI9E+MoDyLw4M/g1XhDGomRNjT9zHEfsC//WNNZxeo/j2zTmtzYyDcoygjdcVt1u8OdFWTKJ43R5Mz03XciLb64vr9/n7CZdkdIKzlm6wYxXuYhTdm7y9tBloQ2KDzjG
        vAgabwxSVD2iy/ipeEYSRrJz0wN1S+7ypKwcjEB5mYZVN59bNqJVaTzBG1KYHBm3eUaM2UO0tRbXl5bnBtD44Ze7xexH07jHyR/XXA8BCE1j+YCThMTl49vSXeiZBjuq
        bnv/McPJmpt/A3eFjBfRbUpJ+fgmZ9UH+tfHGFPur/PUx2VDb3CU1A19xHFOygjJ3shCuBMeuS0Lka7Q1hU6ukJXV+jpCn1dYaArDHWFEGgrtWMDtYMDtaMDtcMD2+Jz
        izO80RpEe2Vb7XulGMvAdRVKqeudUCX1xb6HtrJ+R5IqrYoDFAZKqTzyVNJAtGor+yoItaWh2FkwVEmhLcYVQoBs76TW2Wshao7tHc7WhD3NtMt0M7qN03VORsUaM/p5
        /n6UU5IBYd4rn5rllK8El5hhg33Z8icRbwYPI43+5jdO0Z/10sTrI8kqwtXHFX+Ef6ivefUfAs97yS5alY9dnYavxOm7LFqvSbbgizZJliRrdRv6CIa1264vuI2a3IYH
        7Szv/Xlx2TN/HkpfzoA9/686ooz+r9wBknFYWBBaODWijGz/R+N/bBWAdchasB9rwSbWCgbWGljrlbCW7BH0PF+HykLgltusdipDvuOBk+v8V1KZq3RJojLXUfKT2FTb
        V1ptG8pfhVoyFAEfBF4vKBLJbN9jqG0Q8Im8ZXoaaGugrT60BQHsilvlr9znvTC/Osatqmt8eyoVzDmEFdrgSMpLL5ssACRbeGGMa4YY1A9inB3E7BnG6ccwoIVh2hag
        7gzTQkUDw6g7fGCYrgxju7Yb2KeUokdQebAieuQraUPyCKo88lt+FqdOq5SHRULft1qVjqAKhIEnpR3aKg5nR4l7ftt4bsS9tgb4UlQdpVQMq6duqxhXWzlWJIh0kUoq
        nayFSNmvXw2Gdqu2bYIWtfqnsSHwOtjVH2EhCDv8cjo4B6Hkna0MHY+BOCWVWpW4rd8G9h7Yuxd7I1uTvedPFyi3whV7A4Sm0yNPjon8smRvABrZu5He3Zlsd1qxt+9L
        O4F5VTrzD/cH4Li0WTs/wfSdOd3ux+mo5nTnX8vranN6C34PZ41K4cDp31let8XokNcVO2vI6/a+Btr59vK6O9gZ8rrfXl7X6YdadgNquQNqDaj1SlDrO0zrth7eDWnd
        Ia2rdQ2w9Q2mdXe09XrSuv6OYdDIqPrR+A0/kk9ptqHWO5ytjMWXZHkSYtxnexHgmcjl+f8grYWFBnJ53eSiTHtJHin/Tl/qJs4tKAxPr9wiZajzqRLmqDN0gYwDKqk4
        TNRnT0gfnpB+quuFUq9StDwlvUkD0FNadfUbIKe07dA+icQyvXlK1Hw5ehNzr21/8vhyudegg1Y/9xpC/cDxXtUfkVzctricTL3a6p0KAm1rxwDTA0z3gWnkuh1hulof
        qqNLMPXnOnna+qpzpB7f9LvuxJUzp0Lp1HeP7Xaz4DVkkDtagH0tuH5fC85lTwvNpQhNGvPg4DDjrbsBufr0iSzZ8evIk819VAzLww3Hk9XxTx+u6wfwkkWP5Lp6WRrW
        91f7l6dJzKsgqzt8X4xUccbMCCXshiS5EdH6cVY2Vf1TMRj5zCV3/N88IyvjXcQo3+Rg9nBuWpPtNo6W5Qvc1Kos8H1StKVpnqx4SVkptRT2racN2CTbkvU6Sqkl1TTC
        fL7aHkz+R66gTq5s8O8+e9j58IFPhNSiPBTJOsbFob71cZkRzIi1wJttTKh1VX9jzKPivqpgtne0roMWj7js4bDdY4sH8eJsbNVv2l+c/QNvHSp7AAAQAAAA
      >
      FLOATPOS 129 268 871 509
      FXID {C804D762-B992-A540-81BF-3D6C0F7FF19B}
      WAK 0
    >
  >
  <TRACK {33AD5A6D-2EE0-8449-9F1A-2F36FB5D6DDB}
    NAME "midi "
    PEAKCOL 16576
    BEAT -1
    AUTOMODE 0
    VOLPAN 1 0 -1 -1 1
    MUTESOLO 0 0 0
    IPHASE 0
    ISBUS 1 1
    BUSCOMP 0 0
    SHOWINMIX 1 0.6667 0.698113 1 0.5 -1 -1 -1
    FREEMODE 0
    SEL 0
    REC 0 0 0 0 0 0 0
    VU 2
    TRACKHEIGHT 0 0
    INQ 0 0 0 0.5 100 0 0 100
    NCHAN 2
    FX 1
    TRACKID {33AD5A6D-2EE0-8449-9F1A-2F36FB5D6DDB}
    PERF 0
    MIDIOUT -1
    MAINSEND 1 0
  >
  <TRACK {F21395F9-F67E-E94E-A650-3CA2FF3EBDD0}
    NAME "ch1,3 (send)"
    PEAKCOL 16576
    BEAT -1
    AUTOMODE 0
    VOLPAN 1 0 -1 -1 1
    MUTESOLO 0 0 0
    IPHASE 0
    ISBUS 0 0
    BUSCOMP 0 0
    SHOWINMIX 1 0.6667 0.698113 1 0.5 -1 -1 -1
    FREEMODE 0
    SEL 1
    REC 0 0 0 0 0 0 0
    VU 2
    MIDICTL -1 1
    TRACKHEIGHT 0 0
    INQ 0 0 0 0.5 100 0 0 100
    NCHAN 2
    FX 1
    TRACKID {F21395F9-F67E-E94E-A650-3CA2FF3EBDD0}
    PERF 0
    MIDIOUT -1
    MAINSEND 1 0
    <FXCHAIN
      SHOW 0
      LASTSEL 0
      DOCKED 0
    >
    <ITEM
      POSITION 0
      SNAPOFFS 0
      LENGTH 64.5
      LOOP 1
      ALLTAKES 0
      FADEIN 1 0 0 1 0 0
      FADEOUT 1 0 0 1 0 0
      MUTE 0
      SEL 1
      YPOS 0.266094 0.201717
      IGUID {A6BAE54E-5D1E-4A45-929F-227D73AF2120}
      IID 1
      NAME "trumpet(s) - National_Anthems_-_Philippines.mid"
      VOLPAN 1 0 1 -1
      SOFFS 0 0
      PLAYRATE 1 1 0 -1 0 0.0025
      CHANMODE 0
      TAKECOLOR 26173599
      GUID {96E5F875-0847-9449-A4BA-18E605070196}
      <SOURCE MIDI
        HASDATA 1 480 QN
        POOLEDEVTS {06C9FB94-63AB-0F41-A957-D09C73D1D96E}
        <X 0 0
          /wN0cnVtcGV0KHMp
        >
        <X 0 0
          /wRTb3VuZCBDYW52YXM=
        >
        e 0 90 43 7f
        e 400 80 43 1b 22
        e 80 90 42 7f 2
        e 240 80 42 0b -9
        e 80 90 45 7f 21
        e 160 80 45 26 -22
        e 0 90 43 7f 8
        e 480 80 43 37 -18
        e 0 90 3e 7f 27
        e 400 80 3e 36 -36
        e 80 90 45 7f 8
        e 160 80 45 36 18
        e 0 90 47 7f -8
        e 160 80 47 47 -33
        e 0 90 48 7f -27
        e 80 80 48 28 30
        e 80 90 47 7f
        e 240 80 47 2f -30
        e 80 90 45 7f 7
        e 80 80 45 1b 33
        e 80 90 47 7f
        e 480 80 47 29 24
        e 0 90 43 7f 16
        e 320 80 43 16 33
        e 160 90 43 7f 31
        e 480 80 43 1f
        e 0 90 42 7f 18
        e 240 80 42 1e 25
        e 80 90 45 7f 21
        e 160 80 45 28 -5
        e 0 90 43 7f
        e 480 80 43 39 1
        e 0 90 3e 7f 2
        e 400 80 3e 01 -5
        e 80 90 45 7f
        e 160 80 45 12 11
        e 0 90 47 7f -14
        e 160 80 47 41 -12
        e 0 90 48 7f -3
        e 160 80 48 31 11
        e 0 90 47 7f -1
        e 240 80 47 22 1
        e 80 90 45 7f -5
        e 160 80 45 30 -13
        e 0 90 43 7f -5
        e 640 80 43 3e 6
        e 320 90 43 7f -15
        e 400 80 43 1a 12
        e 80 90 42 7f -18
        e 160 80 42 25 37
        e 160 90 45 7f -15
        e 160 80 45 32 -31
        e 0 90 43 7f 1
        e 480 80 43 48 -9
        e 0 90 3e 7f -6
        e 320 80 3e 10 24
        e 160 90 45 7f -6
        e 160 80 45 32 21
        e 0 90 47 7f -8
        e 160 80 47 46 -26
        e 0 90 48 7f -23
        e 160 80 48 38 -13
        e 0 90 47 7f -12
        e 160 80 47 23 20
        e 160 90 45 7f -12
        e 160 80 45 07 -19
        e 0 90 47 7f -2
        e 480 80 47 41 -10
        e 0 90 43 7f -9
        e 320 80 43 39 -12
        e 160 90 43 7f -3
        e 400 80 43 13 14
        e 80 90 42 7f -3
        e 240 80 42 2c -4
        e 80 90 45 7f 14
        e 160 80 45 33 6
        e 0 90 43 7f 17
        e 480 80 43 48 3
        e 0 90 3e 7f 9
        e 320 80 3e 01 37
        e 160 90 45 7f -20
        e 160 80 45 11 -8
        e 0 90 47 7f -35
        e 80 80 47 42 35
        e 80 90 48 7f -36
        e 160 80 48 24 -12
        e 0 90 47 7f -21
        e 240 80 47 0d -12
        e 80 90 45 7f -19
        e 160 80 45 2b -32
        e 0 90 43 7f -7
        e 320 80 43 43 16
        e 160 90 43 7f -2
        e 160 80 43 3e 5
        e 0 90 42 7f -5
        e 160 80 42 2c -29
        e 0 90 43 7f -18
        e 160 80 43 3d -24
        e 0 90 45 7f 1
        e 240 80 45 34 -23
        e 80 90 45 7f -3
        e 160 80 45 36 -2
        e 0 90 3e 7f 9
        e 240 80 3e 24 -8
        e 80 90 3e 7f -4
        e 160 80 3e 29 -6
        e 0 90 45 7f 9
        e 240 80 45 2b -5
        e 80 90 45 7f 7
        e 160 80 45 3c 26
        e 0 90 3e 7f 14
        e 240 80 3e 0e -20
        e 80 90 3e 7f -2
        e 160 80 3e 16 -8
        e 0 90 47 7f 25
        e 240 80 47 2b 14
        e 80 90 48 7f -3
        e 160 80 48 3e -14
        e 0 90 4a 7f 10
        e 240 80 4a 34 -21
        e 80 90 4c 7f -19
        e 160 80 4c 34 -23
        e 0 90 4a 7f -5
        e 400 80 4a 41 -17
        e 80 90 43 7f -13
        e 160 80 43 46 -38
        e 0 90 42 7f -11
        e 160 80 42 41 -37
        e 0 90 43 7f -29
        e 160 80 43 40 -35
        e 0 90 45 7f -17
        e 160 80 45 2c -6
        e 160 90 45 7f -20
        e 160 80 45 3d 5
        e 0 90 3e 7f -5
        e 240 80 3e 34 -36
        e 80 90 3e 7f -17
        e 160 80 3e 1d -32
        e 0 90 45 7f 3
        e 160 80 45 2c 9
        e 160 90 45 7f -11
        e 160 80 45 3e 10
        e 0 90 3e 7f 21
        e 240 80 3e 32 -32
        e 80 90 3e 7f -7
        e 160 80 3e 2f -38
        e 0 90 47 7f 16
        e 160 80 47 3e -8
        e 0 90 48 7f -6
        e 160 80 48 41 -20
        e 0 90 47 7f -16
        e 80 80 47 39 8
        e 80 90 45 7f -15
        e 160 80 45 1a -5
        e 0 90 47 7f -21
        e 160 80 47 37 -36
        e 0 90 45 7f -31
        e 80 80 45 28 6
        e 80 90 43 7f -18
        e 400 80 43 3d -33
        e 80 90 43 7f 6
        e 160 80 43 3b 8
        e 0 90 42 7f 5
        e 160 80 42 40 -19
        e 0 90 43 7f -17
        e 160 80 43 3f -18
        e 0 90 45 7f -6
        e 160 80 45 2a 17
        e 160 90 45 7f -16
        e 160 80 45 2b 10
        e 0 90 3e 7f 7
        e 160 80 3e 22 17
        e 160 90 3e 7f -22
        e 160 80 3e 21 -3
        e 0 90 45 7f -5
        e 160 80 45 23 3
        e 160 90 45 7f -12
        e 160 80 45 3b 8
        e 0 90 3e 7f 14
        e 160 80 3e 19 24
        e 160 90 3e 7f -27
        e 160 80 3e 14 -26
        e 0 90 47 7f 2
        e 240 80 47 3c 38
        e 80 90 48 7f -12
        e 160 80 48 33 -38
        e 0 90 4a 7f 4
        e 240 80 4a 1b -6
        e 80 90 4c 7f -13
        e 80 80 4c 2f 28
        e 80 90 4a 7f
        e 400 80 4a 38 -28
        e 80 90 43 7f -11
        e 160 80 43 35 -5
        e 0 90 42 7f 3
        e 160 80 42 43 -29
        e 0 90 43 7f -30
        e 160 80 43 44 -38
        e 0 90 45 7f -18
        e 160 80 45 37 -7
        e 160 90 45 7f -16
        e 160 80 45 2d 14
        e 0 90 3e 7f -12
        e 160 80 3e 1e 13
        e 160 90 3e 7f -30
        e 160 80 3e 2b 1
        e 0 90 45 7f -17
        e 160 80 45 27 24
        e 160 90 45 7f -18
        e 160 80 45 3d -5
        e 0 90 3e 7f -16
        e 160 80 3e 2f -7
        e 160 90 3e 7f -39
        e 80 80 3e 1f 21
        e 80 90 47 7f -14
        e 160 80 47 41 -28
        e 0 90 48 7f -37
        e 160 80 48 3a -24
        e 0 90 47 7f -31
        e 80 80 47 35 21
        e 80 90 45 7f -23
        e 160 80 45 24 -23
        e 0 90 47 7f -25
        e 160 80 47 30 -31
        e 0 90 45 7f -35
        e 160 80 45 41 -36
        e 0 90 43 7f -25
        e 400 80 43 39 -20
        e 80 90 43 7f 10
        e 160 80 43 52 -26
        e 0 90 40 7f -24
        e 160 80 40 01 14
        e 0 90 43 7f -5
        e 160 80 43 45 -27
        e 0 90 48 7f 7
        e 400 80 48 26 -6
        e 80 90 48 7f -8
        e 400 80 48 1e 7
        e 80 90 4a 7f -2
        e 400 80 4a 43 14
        e 80 90 4a 7f -1
        e 240 80 4a 42 22
        e 80 90 4a 7f 23
        e 160 80 4a 43 -18
        e 0 90 4c 7f 10
        e 320 80 4c 2c -27
        e 0 90 4a 7f -19
        e 80 80 4a 25 35
        e 80 90 48 7f -16
        e 240 80 48 35 12
        e 80 90 4a 7f -38
        e 80 80 4a 2d 29
        e 80 90 4c 7f -24
        e 400 80 4c 1a 14
        e 80 90 4d 7f 2
        e 160 80 4d 42 11
        e 0 90 4c 7f -15
        e 160 80 4c 48 -18
        e 0 90 4a 7f -15
        e 80 80 4a 0f 39
        e 80 90 4c 7f 7
        e 480 80 4c 24 -9
        e 0 90 48 7f 17
        e 480 80 48 01 -15
        e 0 90 4a 7f
        e 480 80 4a 3d 9
        e 0 90 47 7f 3
        e 240 80 47 25 -29
        e 80 90 47 7f 14
        e 160 80 47 22 -28
        e 0 90 48 7f 5
        e 1280 80 48 42 26
        e 160 90 43 7f 13
        e 160 80 43 4f -17
        e 0 90 40 7f -17
        e 160 80 40 27 -14
        e 0 90 43 7f -19
        e 160 80 43 2f -28
        e 0 90 48 7f 1
        e 400 80 48 1d 5
        e 80 90 48 7f 1
        e 400 80 48 25 22
        e 80 90 4a 7f 8
        e 400 80 4a 39 22
        e 80 90 4a 7f 12
        e 160 80 4a 3e 29
        e 80 90 4a 7f 16
        e 160 80 4a 2e 39
        e 80 90 4c 7f 4
        e 240 80 4c 2b 19
        e 80 90 4a 7f 7
        e 160 80 4a 30 -20
        e 0 90 48 7f 6
        e 240 80 48 12 8
        e 80 90 4a 7f 3
        e 160 80 4a 31 -31
        e 0 90 4c 7f 1
        e 400 80 4c 28 9
        e 80 90 4d 7f 7
        e 160 80 4d 3a 6
        e 0 90 4c 7f -20
        e 80 80 4c 2b 37
        e 80 90 4a 7f -24
        e 160 80 4a 11 -25
        e 0 90 4c 7f 2
        e 480 80 4c 01 -20
        e 0 90 48 7f 23
        e 480 80 48 01 -16
        e 0 90 4a 7f 10
        e 480 80 4a 2f 15
        e 0 90 47 7f -9
        e 240 80 47 32 -31
        e 80 90 47 7f
        e 160 80 47 2e -31
        e 0 90 48 7f
        e 1280 80 48 56 23
        e 640 90 43 7f
        e 400 80 43 1b 22
        e 80 90 42 7f 2
        e 240 80 42 0b -9
        e 80 90 45 7f 21
        e 160 80 45 26 -22
        e 0 90 43 7f 8
        e 480 80 43 37 -18
        e 0 90 3e 7f 27
        e 400 80 3e 36 -36
        e 80 90 45 7f 8
        e 160 80 45 36 18
        e 0 90 47 7f -8
        e 160 80 47 47 -33
        e 0 90 48 7f -27
        e 80 80 48 28 30
        e 80 90 47 7f
        e 240 80 47 2f -30
        e 80 90 45 7f 7
        e 80 80 45 1b 33
        e 80 90 47 7f
        e 480 80 47 29 24
        e 0 90 43 7f 16
        e 320 80 43 16 33
        e 160 90 43 7f 31
        e 480 80 43 1f
        e 0 90 42 7f 18
        e 240 80 42 1e 25
        e 80 90 45 7f 21
        e 160 80 45 28 -5
        e 0 90 43 7f
        e 480 80 43 39 1
        e 0 90 3e 7f 2
        e 400 80 3e 01 -5
        e 80 90 45 7f
        e 160 80 45 12 11
        e 0 90 47 7f -14
        e 160 80 47 41 -12
        e 0 90 48 7f -3
        e 160 80 48 31 11
        e 0 90 47 7f -1
        e 240 80 47 22 1
        e 80 90 45 7f -5
        e 160 80 45 30 -13
        e 0 90 43 7f -5
        e 640 80 43 3e 6
        e 320 90 43 7f -15
        e 400 80 43 1a 12
        e 80 90 42 7f -18
        e 160 80 42 25 37
        e 160 90 45 7f -15
        e 160 80 45 32 -31
        e 0 90 43 7f 1
        e 480 80 43 48 -9
        e 0 90 3e 7f -6
        e 320 80 3e 10 24
        e 160 90 45 7f -6
        e 160 80 45 32 21
        e 0 90 47 7f -8
        e 160 80 47 46 -26
        e 0 90 48 7f -23
        e 160 80 48 38 -13
        e 0 90 47 7f -12
        e 160 80 47 23 20
        e 160 90 45 7f -12
        e 160 80 45 07 -19
        e 0 90 47 7f -2
        e 480 80 47 41 -10
        e 0 90 43 7f -9
        e 320 80 43 39 -12
        e 160 90 43 7f -3
        e 400 80 43 13 14
        e 80 90 42 7f -3
        e 240 80 42 2c -4
        e 80 90 45 7f 14
        e 160 80 45 33 6
        e 0 90 43 7f 17
        e 480 80 43 48 3
        e 0 90 3e 7f 9
        e 320 80 3e 01 37
        e 160 90 45 7f -20
        e 160 80 45 11 -8
        e 0 90 47 7f -35
        e 80 80 47 42 35
        e 80 90 48 7f -36
        e 160 80 48 24 -12
        e 0 90 47 7f -21
        e 240 80 47 0d -12
        e 80 90 45 7f -19
        e 160 80 45 2b -32
        e 0 90 43 7f -7
        e 1440 80 43 43 -7
        E 0 b0 7b 00
        GUID {6AFFBA77-E74A-7448-BE29-76F2E110A755}
        IGNTEMPO 0 120 4 4
        SRCCOLOR 401
        VELLANE -1 86 6
        CFGEDITVIEW -3120 12.13986 54 9 0 0 0 0 0
        KEYSNAP 0 3 102304056070 0 "Natural minor"
        TRACKSEL 226 0 0 ""
        EVTFILTER 0 -1 -1 -1 -1 0 0 0 0 -1 -1 -1 -1 0 -1 0 -1 -1
        CFGEDIT 1 0 0 0 0 0 1 0 1 1 1 0.16666667 16 32 1280 470 0 0 2 3 0.25 0 0 0 0 -0.44 0 0 1 64
      >
      TAKE
      NAME "trumpet(s) - National_Anthems_-_Philippines.mid"
      TAKEVOLPAN 0 1 -1
      SOFFS 0 0
      PLAYRATE 1 1 0 -1 0 0.0025
      CHANMODE 0
      GUID {6C9C496B-3C9B-DD49-9C88-7868DDF14D8E}
      <SOURCE MIDI
        HASDATA 1 480 QN
        POOLEDEVTS {A701411D-5C36-FE42-B68D-C484000C46F6}
        <X 0 0
          /wN0cnVtcGV0KHMp
        >
        <X 0 0
          /wRTb3VuZCBDYW52YXM=
        >
        e 0 90 43 6d
        e 422 80 43 1b
        e 60 90 42 66
        e 229 80 42 0b
        e 110 90 45 61
        e 117 80 45 26
        e 30 90 43 6b
        e 454 80 43 37
        e 45 90 3e 64
        e 337 80 3e 36
        e 124 90 45 66
        e 144 90 47 60
        e 26 80 45 36
        e 109 80 47 47
        e 6 90 48 5a
        e 137 80 48 28
        e 50 90 47 67
        e 210 80 47 2f
        e 117 90 45 56
        e 106 80 45 1b
        e 47 90 47 60
        e 496 90 43 67
        e 8 80 47 29
        e 329 80 43 16
        e 158 90 43 68
        e 449 80 43 1f
        e 18 90 42 61
        e 247 80 42 1e
        e 76 90 45 5e
        e 134 80 45 28
        e 5 90 43 69
        e 481 80 43 39
        e 1 90 3e 5c
        e 393 80 3e 01
        e 85 90 45 64
        e 146 90 47 5e
        e 25 80 45 12
        e 137 80 47 41
        e 9 90 48 58
        e 162 90 47 67
        e 12 80 48 31
        e 230 80 47 22
        e 74 90 45 55
        e 152 80 45 30
        e 8 90 43 65
        e 651 80 43 3e
        e 299 90 43 69
        e 427 80 43 1a
        e 50 90 42 66
        e 215 80 42 25
        e 108 90 45 53
        e 144 80 45 32
        e 32 90 43 6c
        e 470 80 43 48
        e 3 90 3e 5e
        e 350 80 3e 10
        e 130 90 45 63
        e 158 90 47 5d
        e 29 80 45 32
        e 113 80 47 46
        e 3 90 48 52
        e 170 80 48 38
        e 1 90 47 63
        e 192 80 47 23
        e 128 90 45 5f
        e 153 80 45 07
        e 17 90 47 5f
        e 472 80 47 41
        e 1 90 43 62
        e 317 80 43 39
        e 169 90 43 68
        e 417 80 43 13
        e 63 90 42 62
        e 239 80 42 2c
        e 98 90 45 61
        e 152 80 45 33
        e 11 90 43 68
        e 466 80 43 48
        e 6 90 3e 59
        e 348 80 3e 01
        e 103 90 45 64
        e 145 90 47 5d
        e 27 80 45 11
        e 123 80 47 42
        e 9 90 48 52
        e 175 90 47 66
        e 9 80 48 24
        e 240 80 47 0d
        e 73 90 45 5f
        e 147 80 45 2b
        e 25 90 43 60
        e 343 80 43 43
        e 142 90 43 6a
        e 157 90 42 5e
        e 10 80 43 3e
        e 126 80 42 2c
        e 11 90 43 62
        e 154 80 43 3d
        e 25 90 45 63
        e 216 80 45 34
        e 100 90 45 60
        e 161 80 45 36
        e 11 90 3e 5d
        e 223 80 3e 24
        e 84 90 3e 58
        e 158 80 3e 29
        e 15 90 45 66
        e 226 80 45 2b
        e 92 90 45 60
        e 167 90 3e 60
        e 12 80 45 3c
        e 194 80 3e 0e
        e 98 90 3e 5b
        e 154 80 3e 16
        e 33 90 47 62
        e 229 80 47 2b
        e 63 90 48 5e
        e 149 80 48 3e
        e 24 90 4a 64
        e 209 80 4a 34
        e 82 90 4c 5d
        e 156 80 4c 34
        e 18 90 4a 60
        e 388 80 4a 41
        e 84 90 43 69
        e 135 80 43 46
        e 27 90 42 55
        e 134 80 42 41
        e 8 90 43 62
        e 154 80 43 40
        e 18 90 45 65
        e 171 80 45 2c
        e 146 90 45 5b
        e 175 90 3e 59
        e 10 80 45 3d
        e 199 80 3e 34
        e 99 90 3e 54
        e 145 80 3e 1d
        e 35 90 45 67
        e 166 80 45 2c
        e 140 90 45 5f
        e 181 80 45 3e
        e 11 90 3e 60
        e 187 80 3e 32
        e 105 90 3e 4f
        e 129 80 3e 2f
        e 54 90 47 64
        e 136 80 47 3e
        e 2 90 48 53
        e 146 80 48 41
        e 4 90 47 5c
        e 104 80 47 39
        e 57 90 45 64
        e 154 90 47 5e
        e 16 80 45 1a
        e 129 80 47 37
        e 5 90 45 5d
        e 117 80 45 28
        e 56 90 43 62
        e 385 80 43 3d
        e 119 90 43 6c
        e 159 90 42 5b
        e 3 80 43 3b
        e 133 80 42 40
        e 2 90 43 69
        e 159 80 43 3f
        e 12 90 45 63
        e 183 80 45 2a
        e 127 90 45 62
        e 183 90 3e 5e
        e 3 80 45 2b
        e 167 80 3e 22
        e 121 90 3e 58
        e 177 90 45 69
        e 2 80 3e 21
        e 166 80 45 23
        e 145 90 45 61
        e 180 80 45 3b
        e 6 90 3e 5c
        e 170 80 3e 19
        e 109 90 3e 57
        e 161 80 3e 14
        e 28 90 47 63
        e 276 80 47 3c
        e 30 90 48 5e
        e 134 80 48 33
        e 42 90 4a 65
        e 230 80 4a 1b
        e 73 90 4c 60
        e 121 80 4c 2f
        e 52 90 4a 63
        e 372 80 4a 38
        e 97 90 43 66
        e 166 80 43 35
        e 8 90 42 56
        e 127 90 43 63
        e 1 80 42 43
        e 151 80 43 44
        e 20 90 45 62
        e 171 80 45 37
        e 151 90 45 5f
        e 164 90 3e 61
        e 26 80 45 2d
        e 159 80 3e 1e
        e 117 90 3e 56
        e 173 90 45 69
        e 18 80 3e 2b
        e 183 80 45 27
        e 118 90 45 62
        e 162 90 3e 63
        e 11 80 45 3d
        e 158 80 3e 2f
        e 128 90 3e 53
        e 140 80 3e 1f
        e 45 90 47 62
        e 137 90 48 52
        e 9 80 47 41
        e 157 90 47 5f
        e 7 80 48 3a
        e 125 80 47 35
        e 36 90 45 63
        e 158 90 47 61
        e 2 80 45 24
        e 148 90 45 5e
        e 4 80 47 30
        e 155 80 45 41
        e 11 90 43 67
        e 405 80 43 39
        e 110 90 43 6b
        e 124 80 43 52
        e 2 90 40 5f
        e 179 90 43 67
        e 19 80 40 01
        e 119 80 43 45
        e 34 90 48 65
        e 387 80 48 26
        e 78 90 48 62
        e 415 80 48 1e
        e 71 90 4a 64
        e 416 80 4a 43
        e 65 90 4a 66
        e 263 80 4a 42
        e 81 90 4a 55
        e 119 80 4a 43
        e 28 90 4c 65
        e 283 80 4c 2c
        e 8 90 4a 57
        e 134 80 4a 25
        e 29 90 48 5e
        e 268 80 48 35
        e 30 90 4a 53
        e 147 80 4a 2d
        e 27 90 4c 62
        e 438 80 4c 1a
        e 68 90 4d 61
        e 143 90 4c 5e
        e 26 80 4d 42
        e 131 80 4c 48
        e 3 90 4a 57
        e 134 80 4a 0f
        e 48 90 4c 67
        e 464 80 4c 24
        e 26 90 48 5e
        e 448 80 48 01
        e 15 90 4a 5f
        e 483 90 47 64
        e 6 80 4a 3d
        e 202 80 47 25
        e 123 90 47 61
        e 118 80 47 22
        e 33 90 48 62
        e 1301 80 48 42
        e 147 90 43 6e
        e 130 80 43 4f
        e 0 90 40 53
        e 158 90 43 68
        e 5 80 40 27
        e 146 80 43 2f
        e 29 90 48 63
        e 404 80 48 1d
        e 76 90 48 62
        e 421 80 48 25
        e 66 90 4a 61
        e 414 80 4a 39
        e 70 90 4a 5f
        e 177 80 4a 3e
        e 67 90 4a 5e
        e 183 80 4a 2e
        e 45 90 4c 63
        e 255 80 4c 2b
        e 68 90 4a 5b
        e 133 80 4a 30
        e 26 90 48 61
        e 242 80 48 12
        e 75 90 4a 5f
        e 126 80 4a 31
        e 32 90 4c 60
        e 408 80 4c 28
        e 78 90 4d 60
        e 133 90 4c 5c
        e 26 80 4d 3a
        e 111 80 4c 2b
        e 19 90 4a 61
        e 159 80 4a 11
        e 27 90 4c 61
        e 458 80 4c 01
        e 43 90 48 63
        e 441 80 48 01
        e 26 90 4a 5e
        e 461 90 47 5f
        e 24 80 4a 2f
        e 194 80 47 32
        e 111 90 47 56
        e 129 80 47 2e
        e 31 90 48 64
        e 1303 80 48 56
        e 617 90 43 6d
        e 422 80 43 1b
        e 60 90 42 66
        e 229 80 42 0b
        e 110 90 45 61
        e 117 80 45 26
        e 30 90 43 6b
        e 454 80 43 37
        e 45 90 3e 64
        e 337 80 3e 36
        e 124 90 45 66
        e 144 90 47 60
        e 26 80 45 36
        e 109 80 47 47
        e 6 90 48 5a
        e 137 80 48 28
        e 50 90 47 67
        e 210 80 47 2f
        e 117 90 45 56
        e 106 80 45 1b
        e 47 90 47 60
        e 496 90 43 67
        e 8 80 47 29
        e 329 80 43 16
        e 158 90 43 68
        e 449 80 43 1f
        e 18 90 42 61
        e 247 80 42 1e
        e 76 90 45 5e
        e 134 80 45 28
        e 5 90 43 69
        e 481 80 43 39
        e 1 90 3e 5c
        e 393 80 3e 01
        e 85 90 45 64
        e 146 90 47 5e
        e 25 80 45 12
        e 137 80 47 41
        e 9 90 48 58
        e 162 90 47 67
        e 12 80 48 31
        e 230 80 47 22
        e 74 90 45 55
        e 152 80 45 30
        e 8 90 43 65
        e 651 80 43 3e
        e 299 90 43 69
        e 427 80 43 1a
        e 50 90 42 66
        e 215 80 42 25
        e 108 90 45 53
        e 144 80 45 32
        e 32 90 43 6c
        e 470 80 43 48
        e 3 90 3e 5e
        e 350 80 3e 10
        e 130 90 45 63
        e 158 90 47 5d
        e 29 80 45 32
        e 113 80 47 46
        e 3 90 48 52
        e 170 80 48 38
        e 1 90 47 63
        e 192 80 47 23
        e 128 90 45 5f
        e 153 80 45 07
        e 17 90 47 5f
        e 472 80 47 41
        e 1 90 43 62
        e 317 80 43 39
        e 169 90 43 68
        e 417 80 43 13
        e 63 90 42 62
        e 239 80 42 2c
        e 98 90 45 61
        e 152 80 45 33
        e 11 90 43 68
        e 466 80 43 48
        e 6 90 3e 59
        e 348 80 3e 01
        e 103 90 45 64
        e 145 90 47 5d
        e 27 80 45 11
        e 123 80 47 42
        e 9 90 48 52
        e 175 90 47 66
        e 9 80 48 24
        e 240 80 47 0d
        e 73 90 45 5f
        e 147 80 45 2b
        e 25 90 43 60
        e 1440 80 43 43
        E 7 b0 7b 00
        GUID {BD2AB576-9859-4A47-B0C2-FB40A957AF58}
        IGNTEMPO 0 120 4 4
        SRCCOLOR 402
        VELLANE -1 86 6
        CFGEDITVIEW 0 0 49 11 0 0 0 0 0
        KEYSNAP 0 3 102304056070 0 "Natural minor"
        TRACKSEL 226 0 0 ""
        EVTFILTER 0 -1 -1 -1 -1 0 0 0 0 -1 -1 -1 -1 0 -1 0 -1 -1
        CFGEDIT 1 0 0 0 0 0 1 0 1 1 1 0.125 0 16 1280 470 0 0 2 3 0.25 0 0 0 0 -0.44 0 0 1 64
      >
    >
    <ITEM
      POSITION 0
      SNAPOFFS 0
      LENGTH 64.5
      LOOP 1
      ALLTAKES 0
      FADEIN 1 0 0 1 0 0
      FADEOUT 1 0 0 1 0 0
      MUTE 0
      SEL 1
      YPOS 0.532189 0.201717
      IGUID {55CA021B-23CA-0344-9FE9-FEBD95C45D8F}
      IID 3
      NAME "trombone(s) - National_Anthems_-_Philippines.mid"
      VOLPAN 1 0 1 -1
      SOFFS 0 0
      PLAYRATE 1 1 0 -1 0 0.0025
      CHANMODE 0
      TAKECOLOR 26173599
      GUID {EFD41EF4-1B2F-ED43-8E67-83F0BE94C3B7}
      <SOURCE MIDI
        HASDATA 1 480 QN
        POOLEDEVTS {EC984E3E-2A28-4940-9592-DB2AE10A1121}
        <X 0 0
          /wN0cm9tYm9uZShzKQ==
        >
        <X 0 0
          /wRTb3VuZCBDYW52YXM=
        >
        e 0 92 37 7f
        e 240 82 37 01 37
        e 240 92 32 7f -4
        e 360 82 32 01 -34
        e 120 92 37 7f -6
        e 360 82 37 01 -49
        e 120 92 2b 7f -29
        e 360 82 2b 33 -59
        e 120 92 36 7f -2
        e 240 82 36 13 49
        e 240 92 32 7f -12
        e 240 82 32 40 37
        e 240 92 37 7f -4
        e 360 82 37 01 -37
        e 120 92 2b 7f -14
        e 360 82 2b 26 -44
        e 120 92 37 7f -5
        e 360 82 37 01 -41
        e 120 92 32 7f 6
        e 240 82 32 21 48
        e 240 92 37 7f 1
        e 360 82 37 01 1
        e 120 92 2b 7f -14
        e 240 82 2b 3b 9
        e 240 92 30 7f -1
        e 360 82 30 24 -52
        e 120 92 32 7f -14
        e 240 82 32 16 46
        e 240 92 37 7f -11
        e 360 82 37 01 -54
        e 120 92 2b 7f -15
        e 360 82 2b 27 -54
        e 120 92 37 7f -5
        e 360 82 37 01 -49
        e 120 92 32 7f -30
        e 240 82 32 31 23
        e 240 92 37 7f -11
        e 240 82 37 08 45
        e 240 92 2b 7f -18
        e 240 82 2b 36 47
        e 240 92 36 7f -15
        e 240 82 36 01 23
        e 240 92 32 7f -33
        e 240 82 32 13 27
        e 240 92 37 7f -4
        e 360 82 37 18 -40
        e 120 92 2b 7f -5
        e 240 82 2b 35 47
        e 240 92 37 7f 11
        e 240 82 37 01 45
        e 240 92 32 7f 17
        e 240 82 32 20 58
        e 240 92 37 7f 10
        e 360 82 37 01 -51
        e 120 92 2b 7f 9
        e 240 82 2b 43 52
        e 240 92 30 7f 16
        e 360 82 30 01 -54
        e 120 92 32 7f -14
        e 240 82 32 1f 37
        e 240 92 37 7f -28
        e 360 82 37 01 -14
        e 120 92 2b 7f -1
        e 360 82 2b 08 19
        e 120 92 32 7f -8
        e 360 82 32 01 -31
        e 120 92 32 7f 12
        e 0 92 36 7f -1
        e 240 82 32 3c 4
        e 120 82 36 01 -57
        e 600 92 36 7f 16
        e 360 82 36 4f -54
        e 600 92 3b 7f 6
        e 0 92 3e 7f
        e 120 82 3b 42 45
        e 0 82 3e 22 36
        e 240 92 3c 7f -53
        e 0 92 40 7f -58
        e 120 82 3c 37 -71
        e 0 82 40 3d -77
        e 0 92 3b 7f 6
        e 0 92 3e 7f 3
        e 480 82 3b 51 -5
        e 0 82 3e 49 14
        e 960 92 32 7f -9
        e 0 92 36 7f -19
        e 240 82 36 3c 57
        e 120 82 32 44 -50
        e 600 92 32 7f 20
        e 0 92 36 7f 11
        e 240 82 32 36 54
        e 0 82 36 2f 55
        e 240 92 32 7f -6
        e 240 82 32 05 14
        e 240 92 32 7f -11
        e 240 82 32 39 32
        e 240 92 2b 7f -28
        e 360 82 2b 03 -47
        e 120 92 2b 7f -2
        e 240 82 2b 26 -1
        e 240 92 32 7f -8
        e 240 82 32 3d 41
        e 240 92 32 7f -2
        e 0 92 36 7f -6
        e 240 82 32 1b -42
        e 0 82 36 17 -3
        e 720 92 32 7f 1
        e 0 92 36 7f -3
        e 240 82 32 3f 21
        e 0 82 36 48 23
        e 720 92 37 7f 18
        e 0 92 3b 7f 12
        e 0 92 3e 7f 17
        e 120 82 3b 43 40
        e 0 82 3e 30 35
        e 120 82 37 01 -52
        e 120 92 3c 7f -46
        e 0 92 40 7f -43
        e 120 82 3c 3a -41
        e 0 82 40 2e -75
        e 0 92 3b 7f -11
        e 0 92 3e 7f -11
        e 480 82 3b 49 -56
        e 0 82 3e 38 -42
        e 960 92 32 7f -11
        e 0 92 36 7f -15
        e 240 82 32 30 -8
        e 0 82 36 25 -23
        e 720 92 32 7f -21
        e 0 92 36 7f -27
        e 240 82 32 24 -51
        e 0 82 36 33 -55
        e 240 92 32 7f -20
        e 240 82 32 26 -10
        e 240 92 32 7f -31
        e 240 82 32 01 25
        e 240 92 2b 7f -20
        e 240 82 2b 47 24
        e 240 92 37 7f -10
        e 120 82 37 33 44
        e 0 92 34 7f 32
        e 120 82 34 47 58
        e 120 92 37 7f -55
        e 120 82 37 41 -105
        e 0 92 3c 7f 21
        e 360 82 3c 12 13
        e 120 92 34 7f 37
        e 360 82 34 01 53
        e 120 92 37 7f 3
        e 360 82 37 01 12
        e 120 92 3b 7f -19
        e 360 82 3b 2b -11
        e 120 92 3c 7f
        e 240 82 3c 0a -47
        e 120 92 37 7f -46
        e 120 82 37 46 -3
        e 0 92 3c 7f -7
        e 240 82 3c 01 -46
        e 120 92 3e 7f -58
        e 120 82 3e 1c -51
        e 0 92 40 7f -28
        e 360 82 40 26 -32
        e 120 92 3e 7f -5
        e 120 82 3e 1f 25
        e 0 92 3c 7f 24
        e 120 82 3c 45 48
        e 0 92 3e 7f 58
        e 240 82 3e 27 -41
        e 0 92 3c 7f -17
        e 360 82 3c 03 -24
        e 120 92 37 7f -3
        e 360 82 37 02 53
        e 120 92 2b 7f -9
        e 360 82 2b 10 16
        e 120 92 37 7f -30
        e 120 82 37 20 5
        e 240 92 37 7f -48
        e 120 82 37 1d 10
        e 0 92 30 7f -7
        e 360 82 30 2f 9
        e 120 92 37 7f -16
        e 120 82 37 20 23
        e 0 92 34 7f 11
        e 120 82 34 33 43
        e 0 92 37 7f 37
        e 240 82 37 23 -11
        e 0 92 30 7f -13
        e 360 82 30 20 -43
        e 120 92 37 7f -15
        e 120 82 37 1d 31
        e 0 92 34 7f 16
        e 120 82 34 39 23
        e 0 92 37 7f 48
        e 120 82 37 0d 51
        e 120 92 3c 7f -10
        e 360 82 3c 01 -37
        e 120 92 34 7f
        e 240 82 34 34 16
        e 240 92 37 7f -13
        e 360 82 37 07 1
        e 120 92 3b 7f -16
        e 360 82 3b 16 1
        e 120 92 3c 7f -9
        e 240 82 3c 2d -26
        e 120 92 3e 7f -43
        e 120 82 3e 22 -26
        e 0 92 3c 7f -19
        e 240 82 3c 2a -33
        e 120 92 3e 7f -48
        e 120 82 3e 13 -33
        e 0 92 40 7f -12
        e 360 82 40 2f 8
        e 120 92 3e 7f 6
        e 120 82 3e 23 42
        e 0 92 3c 7f 29
        e 120 82 3c 45 53
        e 0 92 3e 7f 57
        e 240 82 3e 30 -36
        e 0 92 3c 7f -5
        e 360 82 3c 07 -3
        e 120 92 37 7f -7
        e 360 82 37 21 11
        e 120 92 37 7f 23
        e 360 82 37 01 26
        e 120 92 2b 7f -13
        e 360 82 2b 01 -39
        e 120 92 30 7f -9
        e 360 82 30 01 -4
        e 120 92 37 7f -6
        e 120 82 37 1f 5
        e 0 92 34 7f 16
        e 120 92 37 7f 59
        e 120 82 34 43 -60
        e 120 82 37 09 -43
        e 0 92 30 7f -19
        e 480 82 30 5d -15
        e 480 92 37 7f
        e 240 82 37 01 37
        e 240 92 32 7f -4
        e 360 82 32 01 -34
        e 120 92 37 7f -6
        e 360 82 37 01 -49
        e 120 92 2b 7f -29
        e 360 82 2b 33 -59
        e 120 92 36 7f -2
        e 240 82 36 13 49
        e 240 92 32 7f -12
        e 240 82 32 40 37
        e 240 92 37 7f -4
        e 360 82 37 01 -37
        e 120 92 2b 7f -14
        e 360 82 2b 26 -44
        e 120 92 37 7f -5
        e 360 82 37 01 -41
        e 120 92 32 7f 6
        e 240 82 32 21 48
        e 240 92 37 7f 1
        e 360 82 37 01 1
        e 120 92 2b 7f -14
        e 240 82 2b 3b 9
        e 240 92 30 7f -1
        e 360 82 30 24 -52
        e 120 92 32 7f -14
        e 240 82 32 16 46
        e 240 92 37 7f -11
        e 360 82 37 01 -54
        e 120 92 2b 7f -15
        e 360 82 2b 27 -54
        e 120 92 37 7f -5
        e 360 82 37 01 -49
        e 120 92 32 7f -30
        e 240 82 32 31 23
        e 240 92 37 7f -11
        e 240 82 37 08 45
        e 240 92 2b 7f -18
        e 240 82 2b 36 47
        e 240 92 36 7f -15
        e 240 82 36 01 23
        e 240 92 32 7f -33
        e 240 82 32 13 27
        e 240 92 37 7f -4
        e 360 82 37 18 -40
        e 120 92 2b 7f -5
        e 240 82 2b 35 47
        e 240 92 37 7f 11
        e 240 82 37 01 45
        e 240 92 32 7f 17
        e 240 82 32 20 58
        e 240 92 37 7f 10
        e 360 82 37 01 -51
        e 120 92 2b 7f 9
        e 240 82 2b 43 52
        e 240 92 30 7f 16
        e 360 82 30 01 -54
        e 120 92 32 7f -14
        e 240 82 32 1f 37
        e 240 92 37 7f -28
        e 1440 82 37 01 -28
        E 0 b0 7b 00
        GUID {28F9F36F-8E8F-4840-968E-C9E53BFC96C1}
        IGNTEMPO 0 120 4 4
        SRCCOLOR 327
        VELLANE -1 86 6
        CFGEDITVIEW -3096 12.233968 62 8 0 0 0 0 0
        KEYSNAP 0 3 102304056070 0 "Natural minor"
        TRACKSEL 226 0 0 ""
        EVTFILTER 0 -1 -1 -1 -1 0 0 0 0 -1 -1 -1 -1 0 -1 0 -1 -1
        CFGEDIT 1 0 0 0 0 0 1 0 1 1 1 0.125 16 32 1280 470 0 0 2 3 0.25 0 0 0 0 -0.44 0 0 1 64
      >
      TAKE
      NAME "trombone(s) - National_Anthems_-_Philippines.mid"
      TAKEVOLPAN 0 1 -1
      SOFFS 0 0
      PLAYRATE 1 1 0 -1 0 0.0025
      CHANMODE 0
      GUID {4365ECA6-5CA7-824A-896E-2E2314636289}
      <SOURCE MIDI
        HASDATA 1 480 QN
        POOLEDEVTS {6A9374CB-829E-E642-B89B-D2CDB862AECA}
        <X 0 0
          /wN0cm9tYm9uZShzKQ==
        >
        <X 0 0
          /wRTb3VuZCBDYW52YXM=
        >
        E 0 92 37 52
        E 277 82 37 01
        E 199 92 32 59
        E 330 82 32 01
        E 148 92 37 54
        E 317 82 37 01
        E 140 92 2b 5c
        E 330 82 2b 33
        E 177 92 36 5f
        E 291 82 36 13
        E 179 92 32 59
        E 289 82 32 40
        E 199 92 37 51
        E 327 82 37 01
        E 143 92 2b 53
        E 330 82 2b 26
        E 159 92 37 52
        E 324 82 37 01
        E 167 92 32 50
        E 282 82 32 21
        E 193 92 37 4f
        E 360 82 37 01
        E 105 92 2b 60
        E 263 82 2b 3b
        E 230 92 30 57
        E 309 82 30 24
        E 158 92 32 59
        E 300 82 32 16
        E 183 92 37 59
        E 317 82 37 01
        E 159 92 2b 62
        E 321 82 2b 27
        E 169 92 37 59
        E 316 82 37 01
        E 139 92 32 56
        E 293 82 32 31
        E 206 92 37 59
        E 296 82 37 08
        E 177 92 2b 5f
        E 305 82 2b 36
        E 178 92 36 5d
        E 278 82 36 01
        E 184 92 32 5b
        E 300 82 32 13
        E 209 92 37 52
        E 324 82 37 18
        E 155 92 2b 5f
        E 292 82 2b 35
        E 204 92 37 57
        E 274 82 37 01
        E 212 92 32 53
        E 281 82 32 20
        E 192 92 37 53
        E 299 82 37 01
        E 180 92 2b 54
        E 283 82 2b 43
        E 204 92 30 58
        E 290 82 30 01
        E 160 92 32 5a
        E 291 82 32 1f
        E 175 92 37 4f
        E 374 82 37 01
        E 133 92 2b 53
        E 380 82 2b 08
        E 93 92 32 51
        E 337 82 32 01
        E 150 92 36 4a
        E 13 92 32 45
        E 232 82 32 3c
        E 59 82 36 01
        E 673 92 36 4c
        E 290 82 36 4f
        E 654 92 3e 53
        E 6 92 3b 51
        E 150 82 3e 22
        E 9 82 3b 42
        E 137 92 40 4c
        E 5 92 3c 58
        E 96 82 40 3d
        E 6 82 3c 37
        E 74 92 3e 48
        E 3 92 3b 44
        E 469 82 3b 51
        E 19 82 3e 49
        E 927 92 36 49
        E 10 92 32 41
        E 306 82 36 3c
        E 13 82 32 44
        E 661 92 36 4f
        E 9 92 32 3e
        E 274 82 32 36
        E 1 82 36 2f
        E 179 92 32 4a
        E 260 82 32 05
        E 215 92 32 51
        E 283 82 32 39
        E 180 92 2b 56
        E 341 82 2b 03
        E 165 92 2b 4b
        E 241 82 2b 26
        E 233 92 32 47
        E 289 82 32 3d
        E 193 92 36 4a
        E 4 92 32 4d
        E 200 82 32 1b
        E 39 82 36 17
        E 720 92 36 48
        E 4 92 32 43
        E 260 82 32 3f
        E 2 82 36 48
        E 709 92 3b 4c
        E 5 92 3e 25
        E 1 92 37 41
        E 137 82 3e 30
        E 5 82 3b 43
        E 28 82 37 01
        E 126 92 3c 4b
        E 3 92 40 27
        E 88 82 40 2e
        E 34 82 3c 3a
        E 30 92 3e 50
        E 0 92 3b 50
        E 435 82 3b 49
        E 14 82 3e 38
        E 987 92 36 44
        E 4 92 32 53
        E 228 82 36 25
        E 15 82 32 30
        E 701 92 36 3e
        E 6 92 32 51
        E 206 82 36 33
        E 4 82 32 24
        E 271 92 32 55
        E 250 82 32 26
        E 219 92 32 57
        E 296 82 32 01
        E 195 92 2b 57
        E 284 82 2b 47
        E 206 92 37 5d
        E 162 92 34 5f
        E 12 82 37 33
        E 134 82 34 47
        E 7 92 37 54
        E 70 82 37 41
        E 126 92 3c 5f
        E 352 82 3c 12
        E 144 92 34 64
        E 376 82 34 01
        E 70 92 37 57
        E 369 82 37 01
        E 89 92 3b 53
        E 368 82 3b 2b
        E 131 92 3c 64
        E 193 82 3c 0a
        E 121 92 37 55
        E 159 92 3c 61
        E 4 82 37 46
        E 197 82 3c 01
        E 108 92 3e 5a
        E 127 82 3e 1c
        E 23 92 40 5b
        E 356 82 40 26
        E 147 92 3e 5f
        E 149 92 3c 53
        E 1 82 3e 1f
        E 143 82 3c 45
        E 10 92 3e 5c
        E 141 82 3e 27
        E 24 92 3c 5c
        E 353 82 3c 03
        E 141 92 37 57
        E 416 82 37 02
        E 58 92 2b 5e
        E 385 82 2b 10
        E 74 92 37 5b
        E 155 82 37 20
        E 187 92 37 4e
        E 161 92 30 53
        E 17 82 37 1d
        E 359 82 30 2f
        E 95 92 37 56
        E 147 92 34 59
        E 12 82 37 20
        E 134 92 37 51
        E 6 82 34 33
        E 184 92 30 52
        E 2 82 37 23
        E 328 82 30 20
        E 148 92 37 5c
        E 151 92 34 57
        E 15 82 37 1d
        E 112 82 34 39
        E 25 92 37 50
        E 123 82 37 0d
        E 59 92 3c 51
        E 333 82 3c 01
        E 157 92 34 65
        E 256 82 34 34
        E 211 92 37 58
        E 374 82 37 07
        E 103 92 3b 5c
        E 377 82 3b 16
        E 110 92 3c 5a
        E 223 82 3c 2d
        E 103 92 3e 5a
        E 137 82 3e 22
        E 7 92 3c 5b
        E 226 82 3c 2a
        E 105 92 3e 5b
        E 135 82 3e 13
        E 21 92 40 58
        E 380 82 40 2f
        E 118 92 3e 57
        E 143 92 3c 57
        E 13 82 3e 23
        E 131 82 3c 45
        E 4 92 3e 58
        E 147 82 3e 30
        E 31 92 3c 5c
        E 362 82 3c 07
        E 116 92 37 59
        E 378 82 37 21
        E 132 92 37 54
        E 363 82 37 01
        E 81 92 2b 60
        E 334 82 2b 01
        E 150 92 30 57
        E 365 82 30 01
        E 118 92 37 5d
        E 131 82 37 1f
        E 11 92 34 60
        E 163 92 37 51
        E 1 82 34 43
        E 137 82 37 09
        E 24 92 30 5d
        E 484 82 30 5d
        E 495 92 37 52
        E 277 82 37 01
        E 199 92 32 59
        E 330 82 32 01
        E 148 92 37 54
        E 317 82 37 01
        E 140 92 2b 5c
        E 330 82 2b 33
        E 177 92 36 5f
        E 291 82 36 13
        E 179 92 32 59
        E 289 82 32 40
        E 199 92 37 51
        E 327 82 37 01
        E 143 92 2b 53
        E 330 82 2b 26
        E 159 92 37 52
        E 324 82 37 01
        E 167 92 32 50
        E 282 82 32 21
        E 193 92 37 4f
        E 360 82 37 01
        E 105 92 2b 60
        E 263 82 2b 3b
        E 230 92 30 57
        E 309 82 30 24
        E 158 92 32 59
        E 300 82 32 16
        E 183 92 37 59
        E 317 82 37 01
        E 159 92 2b 62
        E 321 82 2b 27
        E 169 92 37 59
        E 316 82 37 01
        E 139 92 32 56
        E 293 82 32 31
        E 206 92 37 59
        E 296 82 37 08
        E 177 92 2b 5f
        E 305 82 2b 36
        E 178 92 36 5d
        E 278 82 36 01
        E 184 92 32 5b
        E 300 82 32 13
        E 209 92 37 52
        E 324 82 37 18
        E 155 92 2b 5f
        E 292 82 2b 35
        E 204 92 37 57
        E 274 82 37 01
        E 212 92 32 53
        E 281 82 32 20
        E 192 92 37 53
        E 299 82 37 01
        E 180 92 2b 54
        E 283 82 2b 43
        E 204 92 30 58
        E 290 82 30 01
        E 160 92 32 5a
        E 291 82 32 1f
        E 175 92 37 4f
        E 1440 82 37 01
        E 28 b0 7b 00
        GUID {DD5B58D2-22DA-7D4E-81BC-F7C1B8B39AFE}
        IGNTEMPO 0 120 4 4
        SRCCOLOR 403
        VELLANE -1 86 6
      >
    >
  >
  <TRACK {6CCBCBB4-02B5-3C4F-AE95-8DD80AEC4A17}
    NAME "ch2,4 (send)"
    PEAKCOL 16576
    BEAT -1
    AUTOMODE 0
    VOLPAN 1 0 -1 -1 1
    MUTESOLO 0 0 0
    IPHASE 0
    ISBUS 0 0
    BUSCOMP 0 0
    SHOWINMIX 1 0.6667 0.698113 1 0.5 -1 -1 -1
    FREEMODE 0
    SEL 0
    REC 0 0 0 0 0 0 0
    VU 2
    MIDICTL -1 1
    TRACKHEIGHT 0 0
    INQ 0 0 0 0.5 100 0 0 100
    NCHAN 2
    FX 1
    TRACKID {6CCBCBB4-02B5-3C4F-AE95-8DD80AEC4A17}
    PERF 0
    MIDIOUT -1
    MAINSEND 1 0
    <FXCHAIN
      WNDRECT 32 359 724 387
      SHOW 0
      LASTSEL 0
      DOCKED 0
    >
    <ITEM
      POSITION 0
      SNAPOFFS 0
      LENGTH 65
      LOOP 1
      ALLTAKES 0
      FADEIN 1 0 0 1 0 0
      FADEOUT 1 0 0 1 0 0
      MUTE 0
      SEL 1
      YPOS 0 0.201717
      IGUID {74A5CE54-9D3A-9747-8C23-568E72482FCC}
      IID 2
      NAME "fr. horn(s) - National_Anthems_-_Philippines.mid"
      VOLPAN 1 0 1 -1
      SOFFS 0 0
      PLAYRATE 1 1 0 -1 0 0.0025
      CHANMODE 0
      TAKECOLOR 26173599
      GUID {6F028919-758A-DE47-8880-D3F0813C3FC6}
      <SOURCE MIDI
        HASDATA 1 480 QN
        POOLEDEVTS {CC2B4063-93A8-F34F-BCEB-46878B5A98FA}
        <X 0 0
          /wNmci4gaG9ybihzKQ==
        >
        <X 0 0
          /wRTb3VuZCBDYW52YXM=
        >
        e 0 91 3b 7f 4
        e 0 91 3e 7f
        e 360 81 3b 3e 35
        e 0 81 3e 1e 28
        e 120 91 3c 7f 23
        e 0 91 3e 7f 24
        e 360 81 3c 2a 8
        e 0 81 3e 30 33
        e 120 91 3b 7f 12
        e 0 91 3e 7f 3
        e 360 81 3b 28 20
        e 120 81 3e 01 -34
        e 0 91 3b 7f -14
        e 480 81 3b 12 -50
        e 0 91 3e 7f -14
        e 360 81 3e 28 5
        e 120 91 3e 7f 1
        e 0 91 42 7f -5
        e 360 81 3e 25 -6
        e 0 81 42 2f 29
        e 120 91 3e 7f 1
        e 0 91 43 7f 10
        e 360 81 3e 1f 11
        e 120 81 43 2f 1
        e 0 91 3b 7f -1
        e 0 91 3e 7f -4
        e 360 81 3b 10 -27
        e 0 81 3e 01 -26
        e 120 91 3b 7f 31
        e 0 91 3e 7f 16
        e 360 81 3e 07 4
        e 120 81 3b 25 -40
        e 0 91 3c 7f 8
        e 0 91 3e 7f 7
        e 360 81 3e 1e -31
        e 120 81 3c 2e -44
        e 0 91 3b 7f 19
        e 0 91 3e 7f 8
        e 360 81 3b 2a 21
        e 120 81 3e 09 4
        e 0 91 3b 7f
        e 360 81 3b 12 -12
        e 120 91 3c 7f -26
        e 0 91 40 7f -19
        e 240 81 40 1c 57
        e 120 81 3c 27 24
        e 120 91 3c 7f 29
        e 0 91 3e 7f 21
        e 0 91 42 7f -14
        e 360 81 3c 29 37
        e 0 81 3e 27 4
        e 120 81 42 19 -3
        e 0 91 3b 7f 15
        e 0 91 3e 7f 13
        e 720 81 3b 19 24
        e 0 81 3e 25 17
        e 240 91 3b 7f 3
        e 0 91 3e 7f 5
        e 360 81 3b 1f 56
        e 0 81 3e 0d -18
        e 120 91 3c 7f -6
        e 0 91 3e 7f -4
        e 360 81 3c 28 58
        e 0 81 3e 01 -52
        e 120 91 3b 7f 1
        e 0 91 3e 7f -5
        e 360 81 3b 35 -26
        e 120 81 3e 35 -47
        e 0 91 37 7f 13
        e 0 91 3b 7f 12
        e 360 81 37 01 -33
        e 0 81 3b 15 2
        e 120 91 3e 7f -3
        e 120 91 3c 7f -49
        e 120 81 3c 4c -139
        e 120 81 3e 34 9
        e 120 91 3e 7f -18
        e 0 91 42 7f -27
        e 360 81 3e 07 -16
        e 0 81 42 01 49
        e 120 91 3e 7f 11
        e 0 91 43 7f 5
        e 240 81 3e 10 -32
        e 240 81 43 43 -45
        e 0 91 3b 7f -25
        e 0 91 3e 7f -27
        e 240 81 3b 29 48
        e 0 81 3e 33 43
        e 240 91 3b 7f -2
        e 0 91 3e 7f -4
        e 360 81 3b 27 30
        e 0 81 3e 29 -26
        e 120 91 3c 7f -10
        e 0 91 3e 7f -13
        e 360 81 3c 04 50
        e 0 81 3e 20 -51
        e 120 91 3b 7f 1
        e 0 91 3e 7f 7
        e 360 81 3b 05 -26
        e 120 81 3e 3e -26
        e 0 91 37 7f 10
        e 0 91 3b 7f 11
        e 360 81 37 01 12
        e 0 81 3b 49 -53
        e 120 91 3c 7f 9
        e 0 91 40 7f 18
        e 240 81 40 18 46
        e 120 81 3c 3c 29
        e 120 91 3c 7f 8
        e 0 91 42 7f
        e 360 81 3c 23 -2
        e 0 81 42 2a 24
        e 120 91 3b 7f 19
        e 0 91 3e 7f 16
        e 480 91 3b 00 -8
        e 0 81 3e 4c -12
        e 0 91 3b 7f -8
        e 0 91 3e 7f -6
        e 120 81 3b 52 -125
        e 120 81 3e 01 44
        e 240 91 3e 7f -4
        e 0 91 42 7f -8
        e 360 81 3e 21 -3
        e 0 81 42 1a 24
        e 120 91 3c 7f 3
        e 360 81 3c 01 47
        e 120 91 3e 7f 2
        e 0 91 42 7f 2
        e 360 81 3e 32 -44
        e 0 81 42 01 -18
        e 120 91 3c 7f 20
        e 240 81 3c 11 54
        e 240 91 43 7f 2
        e 240 81 43 2e -20
        e 120 91 45 7f -51
        e 120 81 45 01 -22
        e 0 91 47 7f 8
        e 240 81 47 1c -43
        e 120 91 48 7f -47
        e 120 81 48 32 -34
        e 0 91 47 7f -6
        e 360 81 47 08 3
        e 120 91 3b 7f 10
        e 0 91 3e 7f 9
        e 360 81 3b 01 54
        e 0 81 3e 26 -15
        e 120 91 3e 7f -11
        e 0 91 42 7f -28
        e 240 81 3e 16 47
        e 0 81 42 13 42
        e 240 91 3c 7f -10
        e 360 81 3c 20 -16
        e 120 91 3e 7f -23
        e 0 91 42 7f -29
        e 240 81 3e 01 37
        e 120 81 42 22 -37
        e 120 91 3c 7f 5
        e 240 81 3c 07 44
        e 240 91 3e 7f -10
        e 0 91 43 7f -15
        e 240 81 43 01 41
        e 120 81 3e 01 -43
        e 120 91 3c 7f -9
        e 0 91 42 7f -29
        e 240 81 3c 23 58
        e 120 81 42 01 57
        e 120 91 3b 7f -29
        e 0 91 3e 7f -29
        e 360 81 3b 30 -18
        e 0 81 3e 13 -27
        e 120 91 3b 7f -9
        e 0 91 3e 7f -10
        e 240 81 3e 03 18
        e 120 81 3b 0c 14
        e 120 91 3e 7f -4
        e 0 91 42 7f -14
        e 240 81 3e 10 57
        e 120 81 42 01 -38
        e 120 91 3c 7f -8
        e 360 81 3c 1c -5
        e 120 91 3e 7f -2
        e 0 91 42 7f -9
        e 240 81 3e 01 43
        e 0 81 42 01 16
        e 240 91 3c 7f 1
        e 360 81 3c 01 17
        e 120 91 43 7f 5
        e 240 81 43 22 -38
        e 120 91 45 7f -55
        e 120 81 45 0b -28
        e 0 91 47 7f -5
        e 120 81 47 11 52
        e 120 91 48 7f 56
        e 240 81 48 32 -53
        e 0 91 47 7f -18
        e 360 81 47 25 -26
        e 120 91 3b 7f 7
        e 0 91 3e 7f 11
        e 360 81 3e 0e -48
        e 120 81 3b 14 -42
        e 0 91 3e 7f -20
        e 0 91 42 7f -25
        e 240 81 3e 23 -3
        e 0 81 42 15 37
        e 240 91 3c 7f -6
        e 360 81 3c 24 -31
        e 120 91 3e 7f -12
        e 0 91 42 7f -21
        e 240 81 3e 0b 3
        e 0 81 42 01 28
        e 240 91 3c 7f -12
        e 240 81 3c 07 47
        e 240 91 3e 7f -11
        e 0 91 43 7f -21
        e 360 81 3e 12 -31
        e 0 81 43 10 -51
        e 120 91 3c 7f -21
        e 0 91 42 7f -21
        e 240 81 3c 23 45
        e 120 81 42 1d 32
        e 120 91 3b 7f -20
        e 0 91 3e 7f -25
        e 240 81 3e 01 39
        e 120 81 3b 01 -27
        e 120 91 43 7f 1
        e 120 81 43 43 37
        e 0 91 40 7f 40
        e 120 91 43 7f 57
        e 120 81 40 13 -39
        e 0 81 43 28 21
        e 120 91 40 7f 7
        e 0 91 43 7f 8
        e 240 81 43 04 58
        e 120 81 40 10 15
        e 120 91 3c 7f 15
        e 0 91 43 7f 13
        e 360 81 3c 01 -9
        e 0 81 43 28 -28
        e 120 91 43 7f -6
        e 0 91 47 7f -12
        e 360 81 43 1c -53
        e 120 81 47 2a -53
        e 0 91 3e 7f 5
        e 0 91 43 7f -3
        e 360 81 3e 01 -20
        e 0 81 43 01 -12
        e 120 91 48 7f -22
        e 240 81 48 24 -19
        e 0 91 43 7f 55
        e 240 81 43 2e -19
        e 0 91 40 7f -6
        e 240 81 40 10 -30
        e 0 91 43 7f 55
        e 240 81 43 02 -9
        e 0 91 48 7f -15
        e 360 81 48 01 9
        e 120 91 45 7f -8
        e 120 81 45 2c 19
        e 0 91 43 7f 20
        e 120 81 43 3c 39
        e 0 91 45 7f 49
        e 240 81 45 01 -43
        e 0 91 43 7f 5
        e 360 81 43 2f -2
        e 120 91 40 7f -9
        e 0 91 43 7f -8
        e 360 81 40 01 -13
        e 0 81 43 19 -41
        e 120 91 43 7f -2
        e 0 91 47 7f -6
        e 240 81 43 36 57
        e 120 81 47 2a 44
        e 120 91 3e 7f -1
        e 0 91 43 7f
        e 240 81 3e 0b -44
        e 0 81 43 28 -53
        e 120 91 3e 7f -34
        e 0 91 43 7f -36
        e 120 81 3e 27 -105
        e 0 81 43 3e -60
        e 0 91 40 7f 1
        e 0 91 43 7f 4
        e 360 81 40 2e 24
        e 0 81 43 29 9
        e 120 91 43 7f -3
        e 120 81 43 35 9
        e 0 91 40 7f 20
        e 120 91 43 7f 43
        e 120 81 40 0d -55
        e 120 81 43 3e -20
        e 0 91 3c 7f -5
        e 360 81 3c 08 -45
        e 120 91 43 7f -8
        e 120 81 43 20 -12
        e 0 91 40 7f 26
        e 120 81 40 20 33
        e 0 91 43 7f 33
        e 120 81 43 42 31
        e 120 91 40 7f -11
        e 0 91 43 7f -11
        e 240 81 40 24 51
        e 120 81 43 2d -25
        e 120 91 3c 7f -10
        e 0 91 43 7f -10
        e 360 81 3c 0a 37
        e 0 81 43 13 -28
        e 120 91 43 7f -5
        e 0 91 47 7f -4
        e 360 81 43 01 -51
        e 120 81 47 1f -60
        e 0 91 3e 7f 10
        e 0 91 43 7f 5
        e 120 81 3e 01 30
        e 0 81 43 2a 18
        e 120 91 3e 7f 6
        e 0 91 43 7f -2
        e 120 81 43 3d -26
        e 120 81 3e 07 4
        e 0 91 48 7f 23
        e 360 81 48 35 -60
        e 0 91 43 7f -9
        e 120 81 43 47 -1
        e 0 91 40 7f 7
        e 240 81 40 11 10
        e 120 91 43 7f -30
        e 120 81 43 01 -4
        e 0 91 48 7f 3
        e 360 81 48 26 14
        e 120 91 45 7f 10
        e 120 81 45 29 25
        e 0 91 43 7f 33
        e 120 81 43 01 44
        e 0 91 45 7f 59
        e 240 81 45 24 -25
        e 0 91 43 7f 17
        e 360 81 43 3c 21
        e 120 91 43 7f 14
        e 360 81 43 02 50
        e 120 91 41 7f 18
        e 0 91 47 7f 18
        e 240 81 41 23 59
        e 240 81 47 0a -12
        e 0 91 3e 7f 19
        e 0 91 41 7f 12
        e 240 81 3e 27 -14
        e 0 81 41 30 -23
        e 120 91 3e 7f -25
        e 0 91 41 7f -33
        e 120 81 3e 25 -5
        e 0 81 41 3a -81
        e 0 91 40 7f 11
        e 0 91 43 7f 50
        e 360 81 40 18 37
        e 0 81 43 3b 24
        e 120 91 43 7f -1
        e 120 81 43 40 21
        e 0 91 40 7f 36
        e 120 81 40 1c 45
        e 0 91 43 7f 47
        e 240 81 43 2e -45
        e 0 91 40 7f -14
        e 360 81 40 01 58
        e 600 91 3b 7f 4
        e 0 91 3e 7f
        e 360 81 3b 3e 35
        e 0 81 3e 1e 28
        e 120 91 3c 7f 23
        e 0 91 3e 7f 24
        e 360 81 3c 2a 8
        e 0 81 3e 30 33
        e 120 91 3b 7f 12
        e 0 91 3e 7f 3
        e 360 81 3b 28 20
        e 120 81 3e 01 -34
        e 0 91 3b 7f -14
        e 480 81 3b 12 -50
        e 0 91 3e 7f -14
        e 360 81 3e 28 5
        e 120 91 3e 7f 1
        e 0 91 42 7f -5
        e 360 81 3e 25 -6
        e 0 81 42 2f 29
        e 120 91 3e 7f 1
        e 0 91 43 7f 10
        e 360 81 3e 1f 11
        e 120 81 43 2f 1
        e 0 91 3b 7f -1
        e 0 91 3e 7f -4
        e 360 81 3b 10 -27
        e 0 81 3e 01 -26
        e 120 91 3b 7f 31
        e 0 91 3e 7f 16
        e 360 81 3e 07 4
        e 120 81 3b 25 -40
        e 0 91 3c 7f 8
        e 0 91 3e 7f 7
        e 360 81 3e 1e -31
        e 120 81 3c 2e -44
        e 0 91 3b 7f 19
        e 0 91 3e 7f 8
        e 360 81 3b 2a 21
        e 120 81 3e 09 4
        e 0 91 3b 7f
        e 360 81 3b 12 -12
        e 120 91 3c 7f -26
        e 0 91 40 7f -19
        e 240 81 40 1c 57
        e 120 81 3c 27 24
        e 120 91 3c 7f 29
        e 0 91 3e 7f 21
        e 0 91 42 7f -14
        e 360 81 3c 29 37
        e 0 81 3e 27 4
        e 120 81 42 19 -3
        e 0 91 3b 7f 15
        e 0 91 3e 7f 13
        e 720 81 3b 19 24
        e 0 81 3e 25 17
        e 240 91 3b 7f 3
        e 0 91 3e 7f 5
        e 360 81 3b 1f 56
        e 0 81 3e 0d -18
        e 120 91 3c 7f -6
        e 0 91 3e 7f -4
        e 360 81 3c 28 58
        e 0 81 3e 01 -52
        e 120 91 3b 7f 1
        e 0 91 3e 7f -5
        e 360 81 3b 35 -26
        e 120 81 3e 35 -47
        e 0 91 37 7f 13
        e 0 91 3b 7f 12
        e 360 81 37 01 -33
        e 0 81 3b 15 2
        e 120 91 3e 7f -3
        e 120 91 3c 7f -49
        e 120 81 3c 4c -139
        e 120 81 3e 34 9
        e 120 91 3e 7f -18
        e 0 91 42 7f -27
        e 360 81 3e 07 -16
        e 0 81 42 01 49
        e 120 91 3e 7f 11
        e 0 91 43 7f 5
        e 240 81 3e 10 -32
        e 240 81 43 43 -45
        e 0 91 3b 7f -25
        e 0 91 3e 7f -27
        e 240 81 3b 29 48
        e 0 81 3e 33 43
        e 240 91 3b 7f -2
        e 0 91 3e 7f -4
        e 360 81 3b 27 30
        e 0 81 3e 29 -26
        e 120 91 3c 7f -10
        e 0 91 3e 7f -13
        e 360 81 3c 04 50
        e 0 81 3e 20 -51
        e 120 91 3b 7f 1
        e 0 91 3e 7f 7
        e 360 81 3b 05 -26
        e 120 81 3e 3e -26
        e 0 91 37 7f 10
        e 0 91 3b 7f 11
        e 360 81 37 01 12
        e 0 81 3b 49 -53
        e 120 91 3c 7f 9
        e 0 91 40 7f 18
        e 240 81 40 18 46
        e 120 81 3c 3c 29
        e 120 91 3c 7f 8
        e 0 91 42 7f
        e 360 81 3c 23 -2
        e 0 81 42 2a 24
        e 120 91 3b 7f 19
        e 0 91 3e 7f 16
        e 1440 81 3b 52 19
        e 0 81 3e 4c 16
        E 480 b0 7b 00
        GUID {AD34EB20-BD3A-ED4E-8AE0-18E5B7B1E936}
        IGNTEMPO 0 120 4 4
        SRCCOLOR 399
        VELLANE -1 86 6
        CFGEDITVIEW 21701.515445 91.578285 78 8 0 0 0 0 0
        KEYSNAP 0 3 102304056070 0 "Natural minor"
        TRACKSEL 226 0 0 ""
        EVTFILTER 0 -1 -1 -1 -1 0 0 0 0 -1 -1 -1 -1 0 -1 0 -1 -1
        CFGEDIT 1 0 0 0 0 0 1 0 1 1 1 0.16666667 32 48 1280 470 0 0 2 3 0.25 0 0 0 0 -0.44 0 0 1 64
      >
      TAKE
      NAME "fr. horn(s) - National_Anthems_-_Philippines.mid"
      TAKEVOLPAN 0 1 -1
      SOFFS 0 0
      PLAYRATE 1 1 0 -1 0 0.0025
      CHANMODE 0
      GUID {F4E4D6CC-B021-9542-8C47-37139A989CC2}
      <SOURCE MIDI
        HASDATA 1 480 QN
        POOLEDEVTS {A72F1E07-79D0-B146-95E6-F0C8F198DAF5}
        <X 0 0
          /wNmci4gaG9ybihzKQ==
        >
        <X 0 0
          /wRTb3VuZCBDYW52YXM=
        >
        E 0 91 3e 4c
        E 4 91 3b 43
        E 384 81 3e 1e
        E 7 81 3b 3e
        E 108 91 3c 4c
        E 1 91 3e 4f
        E 344 81 3c 2a
        E 25 81 3e 30
        E 90 91 3e 4c
        E 9 91 3b 4c
        E 368 81 3b 28
        E 66 81 3e 01
        E 20 91 3b 4b
        E 444 81 3b 12
        E 36 91 3e 53
        E 379 81 3e 28
        E 110 91 42 48
        E 6 91 3e 4a
        E 353 81 3e 25
        E 35 81 42 2f
        E 92 91 3e 4c
        E 9 91 43 55
        E 361 81 3e 1f
        E 105 91 3e 44
        E 3 91 3b 3c
        E 2 81 43 2f
        E 332 81 3b 10
        E 1 81 3e 01
        E 162 91 3e 47
        E 15 91 3b 18
        E 333 81 3e 07
        E 76 81 3b 25
        E 47 91 3e 42
        E 1 91 3c 40
        E 321 81 3e 1e
        E 107 81 3c 2e
        E 52 91 3e 46
        E 11 91 3b 46
        E 362 81 3b 2a
        E 99 91 3b 41
        E 4 81 3e 09
        E 344 81 3b 12
        E 106 91 3c 3f
        E 7 91 40 43
        E 316 81 40 1c
        E 87 81 3c 27
        E 82 91 42 48
        E 35 91 3e 2b
        E 8 91 3c 13
        E 335 81 3e 27
        E 33 81 3c 29
        E 80 81 42 19
        E 16 91 3e 4e
        E 2 91 3b 3e
        E 722 81 3e 25
        E 7 81 3b 19
        E 219 91 3b 3f
        E 2 91 3e 4a
        E 337 81 3e 0d
        E 74 81 3b 1f
        E 58 91 3c 4e
        E 2 91 3e 47
        E 312 81 3e 01
        E 110 81 3c 28
        E 57 91 3e 47
        E 6 91 3b 46
        E 333 81 3b 35
        E 99 81 3e 35
        E 59 91 3b 49
        E 1 91 37 38
        E 314 81 37 01
        E 35 81 3b 15
        E 115 91 3e 43
        E 74 91 3c 4a
        E 30 81 3c 4c
        E 268 81 3e 34
        E 84 91 42 48
        E 9 91 3e 4c
        E 362 81 3e 07
        E 65 81 42 01
        E 76 91 43 54
        E 6 91 3e 3e
        E 197 81 3e 10
        E 227 81 43 43
        E 18 91 3e 4a
        E 2 91 3b 3a
        E 308 81 3e 33
        E 5 81 3b 29
        E 188 91 3e 37
        E 2 91 3b 48
        E 336 81 3e 29
        E 56 81 3b 27
        E 77 91 3e 46
        E 3 91 3c 41
        E 319 81 3e 20
        E 101 81 3c 04
        E 71 91 3b 44
        E 6 91 3e 45
        E 327 81 3b 05
        E 120 81 3e 3e
        E 36 91 37 2e
        E 1 91 3b 48
        E 296 81 3b 49
        E 65 81 37 01
        E 117 91 3c 49
        E 9 91 40 49
        E 268 81 40 18
        E 103 81 3c 3c
        E 91 91 42 4c
        E 8 91 3c 49
        E 350 81 3c 23
        E 26 81 42 2a
        E 112 91 3e 24
        E 3 91 3b 36
        E 449 81 3e 4c
        E 4 91 3b 37
        E 2 91 3e 38
        E 1 81 3b 52
        E 289 81 3e 01
        E 85 81 3b 01
        E 103 91 42 47
        E 4 91 3e 41
        E 361 81 3e 21
        E 27 81 42 1a
        E 99 91 3c 4a
        E 404 81 3c 01
        E 75 91 42 49
        E 0 91 3e 4a
        E 314 81 3e 32
        E 26 81 42 01
        E 158 91 3c 46
        E 274 81 3c 11
        E 188 91 43 5e
        E 218 81 43 2e
        E 89 91 45 56
        E 149 81 45 01
        E 30 91 47 53
        E 189 81 47 1c
        E 116 91 48 4d
        E 133 81 48 32
        E 28 91 47 50
        E 369 81 47 08
        E 126 91 3e 3b
        E 1 91 3b 3d
        E 335 81 3e 26
        E 69 81 3b 01
        E 38 91 42 48
        E 17 91 3e 42
        E 293 81 42 13
        E 5 81 3e 16
        E 183 91 3c 3d
        E 354 81 3c 20
        E 107 91 42 3e
        E 6 91 3e 43
        E 300 81 3e 01
        E 46 81 42 22
        E 162 91 3c 45
        E 279 81 3c 07
        E 181 91 43 42
        E 5 91 3e 3b
        E 291 81 43 01
        E 36 81 3e 01
        E 134 91 42 47
        E 20 91 3c 41
        E 307 81 3c 23
        E 119 81 42 01
        E 34 91 3b 37
        E 0 91 3e 4f
        E 362 81 3e 13
        E 9 81 3b 30
        E 128 91 3e 32
        E 1 91 3b 38
        E 267 81 3e 03
        E 116 81 3b 0c
        E 92 91 42 49
        E 10 91 3e 4b
        E 301 81 3e 10
        E 25 81 42 01
        E 150 91 3c 43
        E 363 81 3c 1c
        E 116 91 42 48
        E 7 91 3e 3a
        E 258 81 42 01
        E 27 81 3e 01
        E 198 91 3c 52
        E 376 81 3c 01
        E 108 91 43 67
        E 197 81 43 22
        E 103 91 45 57
        E 147 81 45 0b
        E 23 91 47 58
        E 177 81 47 11
        E 124 91 48 51
        E 131 81 48 32
        E 35 91 47 54
        E 352 81 47 25
        E 153 91 3b 37
        E 4 91 3e 45
        E 301 81 3e 0e
        E 126 81 3b 14
        E 17 91 42 48
        E 5 91 3e 45
        E 257 81 3e 23
        E 40 81 42 15
        E 197 91 3c 46
        E 335 81 3c 24
        E 130 91 42 44
        E 9 91 3e 45
        E 255 81 3e 0b
        E 25 81 42 01
        E 200 91 3c 4b
        E 299 81 3c 07
        E 172 91 43 4c
        E 10 91 3e 41
        E 320 81 43 10
        E 20 81 3e 12
        E 130 91 42 24
        E 0 91 3c 42
        E 306 81 3c 23
        E 107 81 42 1d
        E 63 91 3e 48
        E 5 91 3b 47
        E 299 81 3e 01
        E 54 81 3b 01
        E 148 91 43 64
        E 156 81 43 43
        E 3 91 40 59
        E 137 91 43 63
        E 24 81 40 13
        E 60 81 43 28
        E 106 91 40 52
        E 1 91 43 55
        E 290 81 43 04
        E 77 81 40 10
        E 118 91 43 52
        E 2 91 3c 46
        E 317 81 43 28
        E 19 81 3c 01
        E 117 91 47 44
        E 6 91 43 4f
        E 313 81 43 1c
        E 120 81 47 2a
        E 50 91 43 4a
        E 8 91 3e 3d
        E 335 81 3e 01
        E 8 81 43 01
        E 110 91 48 52
        E 243 81 48 24
        E 74 91 43 5c
        E 166 81 43 2e
        E 13 91 40 58
        E 216 81 40 10
        E 85 91 43 5a
        E 170 91 48 53
        E 6 81 43 02
        E 378 81 48 01
        E 103 91 45 53
        E 147 81 45 2c
        E 1 91 43 60
        E 139 81 43 3c
        E 10 91 45 53
        E 148 81 45 01
        E 48 91 43 5e
        E 353 81 43 2f
        E 113 91 40 49
        E 1 91 43 57
        E 327 81 43 19
        E 28 81 40 01
        E 127 91 47 4e
        E 4 91 43 50
        E 299 81 43 36
        E 107 81 47 2a
        E 75 91 3e 4c
        E 1 91 43 41
        E 187 81 43 28
        E 9 81 3e 0b
        E 128 91 43 4d
        E 2 91 3e 45
        E 49 81 3e 27
        E 45 81 43 3e
        E 61 91 40 4b
        E 3 91 43 50
        E 365 81 43 29
        E 15 81 40 2e
        E 93 91 43 5c
        E 132 81 43 35
        E 11 91 40 5b
        E 143 91 43 5a
        E 22 81 40 0d
        E 155 81 43 3e
        E 15 91 3c 52
        E 320 81 3c 08
        E 157 91 43 64
        E 116 81 43 20
        E 38 91 40 58
        E 127 81 40 20
        E 0 91 43 62
        E 118 81 43 42
        E 78 91 40 4d
        E 0 91 43 61
        E 302 81 40 24
        E 44 81 43 2d
        E 135 91 43 5f
        E 0 91 3c 41
        E 342 81 43 13
        E 65 81 3c 0a
        E 78 91 43 5d
        E 1 91 47 55
        E 313 81 43 01
        E 111 81 47 1f
        E 65 91 43 59
        E 5 91 3e 50
        E 128 81 43 2a
        E 12 81 3e 01
        E 88 91 43 57
        E 8 91 3e 53
        E 88 81 43 3d
        E 150 81 3e 07
        E 19 91 48 5b
        E 277 81 48 35
        E 51 91 43 67
        E 128 81 43 47
        E 8 91 40 59
        E 243 81 40 11
        E 80 91 43 57
        E 146 81 43 01
        E 7 91 48 5a
        E 371 81 48 26
        E 116 91 45 5a
        E 135 81 45 29
        E 8 91 43 58
        E 131 81 43 01
        E 15 91 45 4e
        E 156 81 45 24
        E 42 91 43 47
        E 364 81 43 3c
        E 113 91 43 5e
        E 396 81 43 02
        E 88 91 47 4b
        E 0 91 41 4a
        E 281 81 41 23
        E 169 81 47 0a
        E 24 91 41 4f
        E 7 91 3e 47
        E 198 81 41 30
        E 9 81 3e 27
        E 101 91 41 4d
        E 8 91 3e 52
        E 64 81 41 3a
        E 76 81 3e 25
        E 16 91 40 4d
        E 39 91 43 01
        E 334 81 43 3b
        E 13 81 40 18
        E 82 91 43 65
        E 142 81 43 40
        E 15 91 40 59
        E 129 81 40 1c
        E 2 91 43 5f
        E 148 81 43 2e
        E 31 91 40 52
        E 432 81 40 01
        E 542 91 3e 4c
        E 4 91 3b 43
        E 384 81 3e 1e
        E 7 81 3b 3e
        E 108 91 3c 4c
        E 1 91 3e 4f
        E 344 81 3c 2a
        E 25 81 3e 30
        E 90 91 3e 4c
        E 9 91 3b 4c
        E 368 81 3b 28
        E 66 81 3e 01
        E 20 91 3b 4b
        E 444 81 3b 12
        E 36 91 3e 53
        E 379 81 3e 28
        E 110 91 42 48
        E 6 91 3e 4a
        E 353 81 3e 25
        E 35 81 42 2f
        E 92 91 3e 4c
        E 9 91 43 55
        E 361 81 3e 1f
        E 105 91 3e 44
        E 3 91 3b 3c
        E 2 81 43 2f
        E 332 81 3b 10
        E 1 81 3e 01
        E 162 91 3e 47
        E 15 91 3b 18
        E 333 81 3e 07
        E 76 81 3b 25
        E 47 91 3e 42
        E 1 91 3c 40
        E 321 81 3e 1e
        E 107 81 3c 2e
        E 52 91 3e 46
        E 11 91 3b 46
        E 362 81 3b 2a
        E 99 91 3b 41
        E 4 81 3e 09
        E 344 81 3b 12
        E 106 91 3c 3f
        E 7 91 40 43
        E 316 81 40 1c
        E 87 81 3c 27
        E 82 91 42 48
        E 35 91 3e 2b
        E 8 91 3c 13
        E 335 81 3e 27
        E 33 81 3c 29
        E 80 81 42 19
        E 16 91 3e 4e
        E 2 91 3b 3e
        E 722 81 3e 25
        E 7 81 3b 19
        E 219 91 3b 3f
        E 2 91 3e 4a
        E 337 81 3e 0d
        E 74 81 3b 1f
        E 58 91 3c 4e
        E 2 91 3e 47
        E 312 81 3e 01
        E 110 81 3c 28
        E 57 91 3e 47
        E 6 91 3b 46
        E 333 81 3b 35
        E 99 81 3e 35
        E 59 91 3b 49
        E 1 91 37 38
        E 314 81 37 01
        E 35 81 3b 15
        E 115 91 3e 43
        E 74 91 3c 4a
        E 30 81 3c 4c
        E 268 81 3e 34
        E 84 91 42 48
        E 9 91 3e 4c
        E 362 81 3e 07
        E 65 81 42 01
        E 76 91 43 54
        E 6 91 3e 3e
        E 197 81 3e 10
        E 227 81 43 43
        E 18 91 3e 4a
        E 2 91 3b 3a
        E 308 81 3e 33
        E 5 81 3b 29
        E 188 91 3e 37
        E 2 91 3b 48
        E 336 81 3e 29
        E 56 81 3b 27
        E 77 91 3e 46
        E 3 91 3c 41
        E 319 81 3e 20
        E 101 81 3c 04
        E 71 91 3b 44
        E 6 91 3e 45
        E 327 81 3b 05
        E 120 81 3e 3e
        E 36 91 37 2e
        E 1 91 3b 48
        E 296 81 3b 49
        E 65 81 37 01
        E 117 91 3c 49
        E 9 91 40 49
        E 268 81 40 18
        E 103 81 3c 3c
        E 91 91 42 4c
        E 8 91 3c 49
        E 350 81 3c 23
        E 26 81 42 2a
        E 112 91 3e 24
        E 3 91 3b 36
        E 1437 81 3e 4c
        E 3 81 3b 52
        E 461 b0 7b 00
        GUID {0C3CA86E-0CB9-464E-8B92-14EF49F90601}
        IGNTEMPO 0 120 4 4
        SRCCOLOR 404
        VELLANE -1 86 6
        CFGEDITVIEW 26455.808656 359.461062 78 8 0 0 0 0 0
        KEYSNAP 0 3 102304056070 0 "Natural minor"
        TRACKSEL 226 0 0 ""
        EVTFILTER 0 -1 -1 -1 -1 0 0 0 0 -1 -1 -1 -1 0 -1 0 -1 -1
        CFGEDIT 1 0 0 0 0 0 1 0 1 1 1 0.16666667 32 48 1280 470 0 0 2 3 0.25 0 0 0 0 -0.44 0 0 1 64
      >
    >
    <ITEM
      POSITION 0
      SNAPOFFS 0
      LENGTH 64.5
      LOOP 1
      ALLTAKES 0
      FADEIN 1 0 0 1 0 0
      FADEOUT 1 0 0 1 0 0
      MUTE 0
      SEL 1
      YPOS 0.798283 0.201717
      IGUID {24DF0289-3DFE-A740-88C5-5878E60ACF4F}
      IID 4
      NAME "tuba(s) - National_Anthems_-_Philippines.mid"
      VOLPAN 1 0 1 -1
      SOFFS 0 0
      PLAYRATE 1 1 0 -1 0 0.0025
      CHANMODE 0
      TAKECOLOR 26173599
      GUID {E53895CB-FE58-6245-9F78-7217E8ABB3E5}
      <SOURCE MIDI
        HASDATA 1 480 QN
        POOLEDEVTS {666104F4-4962-0F4F-A050-32CB358EF4D6}
        <X 0 0
          /wN0dWJhKHMp
        >
        <X 0 0
          /wRTb3VuZCBDYW52YXM=
        >
        e 0 93 2b 7f
        e 240 83 2b 01 1
        e 240 93 26 7f 16
        e 360 83 26 01 -41
        e 120 93 2b 7f
        e 360 83 2b 01 -10
        e 120 93 1f 7f 1
        e 360 83 1f 3c -30
        e 120 93 2a 7f 7
        e 360 83 2a 01 -17
        e 120 93 26 7f -6
        e 240 83 26 01 53
        e 240 93 2b 7f 5
        e 360 83 2b 06 11
        e 120 93 1f 7f 13
        e 360 83 1f 36 2
        e 120 93 2b 7f 21
        e 360 83 2b 02 8
        e 120 93 26 7f 1
        e 360 83 26 17 -53
        e 120 93 2b 7f -1
        e 360 83 2b 0a -12
        e 120 93 1f 7f -6
        e 240 83 1f 02 57
        e 240 93 24 7f -9
        e 360 83 24 1f 2
        e 120 93 26 7f -20
        e 360 83 26 01 15
        e 120 93 2b 7f -4
        e 360 83 2b 01 9
        e 120 93 1f 7f -3
        e 360 83 1f 35 -57
        e 120 93 2b 7f 8
        e 360 83 2b 01 -11
        e 120 93 26 7f -4
        e 360 83 26 04 -35
        e 120 93 2b 7f -7
        e 360 83 2b 01 -41
        e 120 93 1f 7f -10
        e 360 83 1f 26 -38
        e 120 93 2a 7f 5
        e 360 83 2a 09 -60
        e 120 93 26 7f -19
        e 240 83 26 23 43
        e 240 93 2b 7f 9
        e 360 83 2b 12 -19
        e 120 93 1f 7f 17
        e 360 83 1f 07 -22
        e 120 93 2b 7f 17
        e 360 83 2b 04 18
        e 120 93 26 7f 19
        e 360 83 26 2b -36
        e 120 93 2b 7f -11
        e 360 83 2b 01 35
        e 120 93 1f 7f -5
        e 360 83 1f 1f -24
        e 120 93 24 7f 26
        e 360 83 24 21 26
        e 120 93 26 7f -19
        e 360 83 26 01 4
        e 120 93 2b 7f
        e 360 83 2b 01 -15
        e 120 93 1f 7f 1
        e 360 83 1f 01 35
        e 120 93 26 7f -3
        e 360 83 26 02 -50
        e 120 93 26 7f 4
        e 240 83 26 23 20
        e 240 93 26 7f -3
        e 240 83 26 1a 31
        e 240 93 26 7f -7
        e 240 83 26 09 52
        e 240 93 1f 7f 2
        e 360 83 1f 06 27
        e 120 93 2b 7f 4
        e 240 83 2b 1d 44
        e 240 93 2b 7f -10
        e 360 83 2b 01 -29
        e 120 93 1f 7f -12
        e 360 83 1f 21 13
        e 120 93 26 7f -17
        e 240 83 26 01 -16
        e 240 93 26 7f -18
        e 360 83 26 0d -53
        e 120 93 26 7f -21
        e 240 83 26 01 -5
        e 240 93 26 7f -25
        e 240 83 26 25 -18
        e 240 93 26 7f -21
        e 240 83 26 2e 4
        e 240 93 26 7f -24
        e 360 83 26 1d -54
        e 120 93 1f 7f -33
        e 360 83 1f 02 -14
        e 120 93 1f 7f
        e 360 83 1f 24 -5
        e 120 93 26 7f -4
        e 240 83 26 17 48
        e 240 93 26 7f -9
        e 240 83 26 21 38
        e 240 93 26 7f -5
        e 240 83 26 29 11
        e 240 93 26 7f -10
        e 240 83 26 0b 36
        e 240 93 1f 7f -13
        e 360 83 1f 01 -36
        e 120 93 2b 7f 6
        e 360 83 2b 01 -48
        e 120 93 2b 7f
        e 360 83 2b 05 16
        e 120 93 1f 7f 11
        e 360 83 1f 01 52
        e 120 93 26 7f -14
        e 240 83 26 01 38
        e 240 93 26 7f -14
        e 240 83 26 27 4
        e 240 93 26 7f -28
        e 240 83 26 12 36
        e 240 93 26 7f -10
        e 240 83 26 20 17
        e 240 93 26 7f -31
        e 240 83 26 17 -14
        e 240 93 26 7f -40
        e 240 83 26 01 28
        e 240 93 1f 7f -18
        e 360 83 1f 28 17
        e 120 93 2b 7f -4
        e 120 83 2b 2a 52
        e 0 93 28 7f 44
        e 240 83 28 24 -51
        e 0 93 2b 7f -48
        e 120 83 2b 03 -38
        e 0 93 24 7f 24
        e 360 83 24 30 42
        e 120 93 28 7f
        e 360 83 28 01 33
        e 120 93 2b 7f 12
        e 360 83 2b 15 24
        e 120 93 2f 7f -5
        e 360 83 2f 01 24
        e 120 93 24 7f -23
        e 240 83 24 06 -37
        e 120 93 2b 7f -60
        e 120 83 2b 17 -54
        e 0 93 28 7f -6
        e 240 83 28 22 -37
        e 0 93 2b 7f 44
        e 240 83 2b 01 -18
        e 0 93 30 7f 4
        e 360 83 30 10 15
        e 120 93 26 7f 1
        e 120 83 26 41 36
        e 0 93 28 7f 33
        e 240 83 28 33 -48
        e 0 93 29 7f -58
        e 120 83 29 2f -52
        e 0 93 2b 7f -9
        e 360 83 2b 01 38
        e 120 93 1f 7f 4
        e 360 83 1f 35 32
        e 120 93 1f 7f -3
        e 480 83 1f 01 -24
        e 0 93 2b 7f -5
        e 240 83 2b 18 -43
        e 0 93 2b 7f 55
        e 240 83 2b 48 -37
        e 0 93 24 7f
        e 360 83 24 14 26
        e 120 93 2b 7f -6
        e 120 83 2b 32 30
        e 0 93 28 7f 20
        e 120 83 28 39 49
        e 0 93 2b 7f 52
        e 240 83 2b 15 -36
        e 0 93 24 7f -5
        e 360 83 24 45 -54
        e 120 93 2b 7f -15
        e 120 83 2b 2f 44
        e 0 93 28 7f 31
        e 120 83 28 2b 55
        e 0 93 2b 7f 59
        e 240 83 2b 24 4
        e 0 93 24 7f 6
        e 360 83 24 1c 24
        e 120 93 28 7f 7
        e 480 83 28 01 -47
        e 0 93 2b 7f 13
        e 360 83 2b 01 45
        e 120 93 2f 7f 3
        e 360 83 2f 01 -8
        e 120 93 24 7f -10
        e 240 83 24 2e -10
        e 120 93 2b 7f -37
        e 120 83 2b 01 -17
        e 0 93 28 7f -1
        e 240 83 28 25 -16
        e 120 93 2b 7f -47
        e 120 83 2b 1c 2
        e 0 93 30 7f 5
        e 360 83 30 01 12
        e 120 93 26 7f 10
        e 120 83 26 45 26
        e 0 93 28 7f 30
        e 120 83 28 2e 17
        e 120 93 29 7f -54
        e 120 83 29 31 -73
        e 0 93 2b 7f -8
        e 360 83 2b 01 29
        e 120 93 1f 7f 21
        e 360 83 1f 27 47
        e 120 93 2b 7f 12
        e 360 83 2b 04 13
        e 120 93 1f 7f -16
        e 360 83 1f 01 4
        e 120 93 24 7f 8
        e 360 83 24 22 31
        e 120 93 2b 7f 14
        e 120 83 2b 28 37
        e 0 93 28 7f 31
        e 120 83 28 29 56
        e 0 93 2b 7f 59
        e 240 83 2b 22 -35
        e 0 93 24 7f -13
        e 480 83 24 5a -7
        e 480 93 2b 7f
        e 240 83 2b 01 1
        e 240 93 26 7f 16
        e 360 83 26 01 -41
        e 120 93 2b 7f
        e 360 83 2b 01 -10
        e 120 93 1f 7f 1
        e 360 83 1f 3c -30
        e 120 93 2a 7f 7
        e 360 83 2a 01 -17
        e 120 93 26 7f -6
        e 240 83 26 01 53
        e 240 93 2b 7f 5
        e 360 83 2b 06 11
        e 120 93 1f 7f 13
        e 360 83 1f 36 2
        e 120 93 2b 7f 21
        e 360 83 2b 02 8
        e 120 93 26 7f 1
        e 360 83 26 17 -53
        e 120 93 2b 7f -1
        e 360 83 2b 0a -12
        e 120 93 1f 7f -6
        e 240 83 1f 02 57
        e 240 93 24 7f -9
        e 360 83 24 1f 2
        e 120 93 26 7f -20
        e 360 83 26 01 15
        e 120 93 2b 7f -4
        e 360 83 2b 01 9
        e 120 93 1f 7f -3
        e 360 83 1f 35 -57
        e 120 93 2b 7f 8
        e 360 83 2b 01 -11
        e 120 93 26 7f -4
        e 360 83 26 04 -35
        e 120 93 2b 7f -7
        e 360 83 2b 01 -41
        e 120 93 1f 7f -10
        e 360 83 1f 26 -38
        e 120 93 2a 7f 5
        e 360 83 2a 09 -60
        e 120 93 26 7f -19
        e 240 83 26 23 43
        e 240 93 2b 7f 9
        e 360 83 2b 12 -19
        e 120 93 1f 7f 17
        e 360 83 1f 07 -22
        e 120 93 2b 7f 17
        e 360 83 2b 04 18
        e 120 93 26 7f 19
        e 360 83 26 2b -36
        e 120 93 2b 7f -11
        e 360 83 2b 01 35
        e 120 93 1f 7f -5
        e 360 83 1f 1f -24
        e 120 93 24 7f 26
        e 360 83 24 21 26
        e 120 93 26 7f -19
        e 360 83 26 01 4
        e 120 93 2b 7f
        e 1440 83 2b 01 -1
        E 0 b0 7b 00
        GUID {09141156-A67C-D44A-B2FE-05936A367AEC}
        IGNTEMPO 0 120 4 4
        SRCCOLOR 328
        VELLANE -1 86 6
        CFGEDITVIEW 21701.515445 91.578285 78 8 0 0 0 0 0
        KEYSNAP 0 3 102304056070 0 "Natural minor"
        TRACKSEL 226 0 0 ""
        EVTFILTER 0 -1 -1 -1 -1 0 0 0 0 -1 -1 -1 -1 0 -1 0 -1 -1
        CFGEDIT 1 0 0 0 0 0 1 0 1 1 1 0.16666667 32 48 1280 470 0 0 2 3 0.25 0 0 0 0 -0.44 0 0 1 64
      >
      TAKE
      NAME "tuba(s) - National_Anthems_-_Philippines.mid"
      TAKEVOLPAN 0 1 -1
      SOFFS 0 0
      PLAYRATE 1 1 0 -1 0 0.0025
      CHANMODE 0
      GUID {EEE42A72-EBDF-474A-920A-C13E321CCB02}
      <SOURCE MIDI
        HASDATA 1 480 QN
        POOLEDEVTS {15AF06B2-BC0F-7D44-B746-0D10257F8840}
        <X 0 0
          /wN0dWJhKHMp
        >
        <X 0 0
          /wRTb3VuZCBDYW52YXM=
        >
        E 0 93 2b 5c
        E 241 83 2b 01
        E 255 93 26 62
        E 303 83 26 01
        E 161 93 2b 53
        E 350 83 2b 01
        E 131 93 1f 65
        E 329 83 1f 3c
        E 157 93 2a 5f
        E 336 83 2a 01
        E 131 93 26 62
        E 299 83 26 01
        E 192 93 2b 53
        E 366 83 2b 06
        E 122 93 1f 5e
        E 349 83 1f 36
        E 139 93 2b 52
        E 347 83 2b 02
        E 113 93 26 5d
        E 306 83 26 17
        E 172 93 2b 55
        E 349 83 2b 0a
        E 126 93 1f 65
        E 303 83 1f 02
        E 174 93 24 61
        E 371 83 24 1f
        E 98 93 26 61
        E 395 83 26 01
        E 101 93 2b 5c
        E 373 83 2b 01
        E 108 93 1f 62
        E 306 83 1f 35
        E 185 93 2b 57
        E 341 83 2b 01
        E 127 93 26 62
        E 329 83 26 04
        E 148 93 2b 57
        E 326 83 2b 01
        E 151 93 1f 5d
        E 332 83 1f 26
        E 163 93 2a 53
        E 295 83 2a 09
        E 161 93 26 5e
        E 302 83 26 23
        E 206 93 2b 4b
        E 332 83 2b 12
        E 156 93 1f 62
        E 321 83 1f 07
        E 159 93 2b 58
        E 361 83 2b 04
        E 121 93 26 58
        E 305 83 26 2b
        E 145 93 2b 53
        E 406 83 2b 01
        E 80 93 1f 63
        E 341 83 1f 1f
        E 170 93 24 52
        E 360 83 24 21
        E 75 93 26 5c
        E 383 83 26 01
        E 116 93 2b 54
        E 345 83 2b 01
        E 136 93 1f 52
        E 394 83 1f 01
        E 82 93 26 53
        E 313 83 26 02
        E 174 93 26 51
        E 256 83 26 23
        E 217 93 26 5a
        E 274 83 26 1a
        E 202 93 26 5c
        E 299 83 26 09
        E 190 93 1f 5c
        E 385 83 1f 06
        E 97 93 2b 54
        E 280 83 2b 1d
        E 186 93 2b 52
        E 341 83 2b 01
        E 137 93 1f 5f
        E 385 83 1f 21
        E 90 93 26 5b
        E 241 83 26 01
        E 238 93 26 57
        E 325 83 26 0d
        E 152 93 26 59
        E 256 83 26 01
        E 220 93 26 58
        E 247 83 26 25
        E 237 93 26 53
        E 265 83 26 2e
        E 212 93 26 5d
        E 330 83 26 1d
        E 141 93 1f 5d
        E 379 83 1f 02
        E 134 93 1f 5a
        E 355 83 1f 24
        E 121 93 26 55
        E 292 83 26 17
        E 183 93 26 59
        E 287 83 26 21
        E 197 93 26 55
        E 256 83 26 29
        E 219 93 26 5b
        E 286 83 26 0b
        E 191 93 1f 5a
        E 337 83 1f 01
        E 162 93 2b 53
        E 306 83 2b 01
        E 168 93 2b 53
        E 376 83 2b 05
        E 115 93 1f 59
        E 401 83 1f 01
        E 54 93 26 5c
        E 292 83 26 01
        E 188 93 26 54
        E 258 83 26 27
        E 208 93 26 5b
        E 304 83 26 12
        E 194 93 26 57
        E 267 83 26 20
        E 192 93 26 5a
        E 257 83 26 17
        E 214 93 26 5d
        E 308 83 26 01
        E 194 93 1f 5c
        E 395 83 1f 28
        E 99 93 2b 54
        E 168 93 28 64
        E 8 83 2b 2a
        E 137 83 28 24
        E 3 93 2b 4f
        E 130 83 2b 03
        E 62 93 24 5f
        E 378 83 24 30
        E 78 93 28 5f
        E 393 83 28 01
        E 99 93 2b 54
        E 372 83 2b 15
        E 91 93 2f 57
        E 389 83 2f 01
        E 73 93 24 61
        E 226 83 24 06
        E 97 93 2b 4d
        E 126 83 2b 17
        E 48 93 28 62
        E 209 83 28 22
        E 81 93 2b 53
        E 178 83 2b 01
        E 22 93 30 4c
        E 371 83 30 10
        E 106 93 26 64
        E 152 93 28 61
        E 3 83 26 41
        E 146 93 29 62
        E 10 83 28 33
        E 116 83 29 2f
        E 43 93 2b 5a
        E 407 83 2b 01
        E 86 93 1f 61
        E 388 83 1f 35
        E 85 93 1f 5f
        E 459 83 1f 01
        E 19 93 2b 58
        E 202 83 2b 18
        E 98 93 2b 52
        E 148 83 2b 48
        E 37 93 24 5f
        E 386 83 24 14
        E 88 93 2b 5c
        E 146 93 28 5c
        E 10 83 2b 32
        E 139 83 28 39
        E 3 93 2b 51
        E 152 83 2b 15
        E 31 93 24 4d
        E 311 83 24 45
        E 159 93 2b 5b
        E 166 93 28 57
        E 13 83 2b 2f
        E 131 83 28 2b
        E 4 93 2b 50
        E 185 83 2b 24
        E 2 93 24 60
        E 378 83 24 1c
        E 103 93 28 5f
        E 426 83 28 01
        E 60 93 2b 56
        E 392 83 2b 01
        E 78 93 2f 57
        E 349 83 2f 01
        E 118 93 24 5f
        E 240 83 24 2e
        E 93 93 2b 4d
        E 140 83 2b 01
        E 16 93 28 5c
        E 225 83 28 25
        E 89 93 2b 56
        E 169 83 2b 1c
        E 3 93 30 5f
        E 367 83 30 01
        E 118 93 26 64
        E 136 83 26 45
        E 4 93 28 60
        E 107 83 28 2e
        E 49 93 29 61
        E 101 83 29 31
        E 65 93 2b 60
        E 397 83 2b 01
        E 112 93 1f 53
        E 386 83 1f 27
        E 85 93 2b 57
        E 361 83 2b 04
        E 91 93 1f 62
        E 380 83 1f 01
        E 124 93 24 5f
        E 383 83 24 22
        E 103 93 2b 5e
        E 137 93 28 5e
        E 6 83 2b 28
        E 139 83 28 29
        E 3 93 2b 52
        E 146 83 2b 22
        E 22 93 24 5c
        E 486 83 24 5a
        E 487 93 2b 5c
        E 241 83 2b 01
        E 255 93 26 62
        E 303 83 26 01
        E 161 93 2b 53
        E 350 83 2b 01
        E 131 93 1f 65
        E 329 83 1f 3c
        E 157 93 2a 5f
        E 336 83 2a 01
        E 131 93 26 62
        E 299 83 26 01
        E 192 93 2b 53
        E 366 83 2b 06
        E 122 93 1f 5e
        E 349 83 1f 36
        E 139 93 2b 52
        E 347 83 2b 02
        E 113 93 26 5d
        E 306 83 26 17
        E 172 93 2b 55
        E 349 83 2b 0a
        E 126 93 1f 65
        E 303 83 1f 02
        E 174 93 24 61
        E 371 83 24 1f
        E 98 93 26 61
        E 395 83 26 01
        E 101 93 2b 5c
        E 373 83 2b 01
        E 108 93 1f 62
        E 306 83 1f 35
        E 185 93 2b 57
        E 341 83 2b 01
        E 127 93 26 62
        E 329 83 26 04
        E 148 93 2b 57
        E 326 83 2b 01
        E 151 93 1f 5d
        E 332 83 1f 26
        E 163 93 2a 53
        E 295 83 2a 09
        E 161 93 26 5e
        E 302 83 26 23
        E 206 93 2b 4b
        E 332 83 2b 12
        E 156 93 1f 62
        E 321 83 1f 07
        E 159 93 2b 58
        E 361 83 2b 04
        E 121 93 26 58
        E 305 83 26 2b
        E 145 93 2b 53
        E 406 83 2b 01
        E 80 93 1f 63
        E 341 83 1f 1f
        E 170 93 24 52
        E 360 83 24 21
        E 75 93 26 5c
        E 383 83 26 01
        E 116 93 2b 54
        E 1439 83 2b 01
        E 1 b0 7b 00
        GUID {D3202626-815F-724B-B9B7-D8189CCDD15C}
        IGNTEMPO 0 120 4 4
        SRCCOLOR 405
        VELLANE -1 86 6
        CFGEDITVIEW 26455.808656 359.461062 78 8 0 0 0 0 0
        KEYSNAP 0 3 102304056070 0 "Natural minor"
        TRACKSEL 226 0 0 ""
        EVTFILTER 0 -1 -1 -1 -1 0 0 0 0 -1 -1 -1 -1 0 -1 0 -1 -1
        CFGEDIT 1 0 0 0 0 0 1 0 1 1 1 0.16666667 32 48 1280 470 0 0 2 3 0.25 0 0 0 0 -0.44 0 0 1 64
      >
    >
  >
  <TRACK {BE34EA7E-2789-BE43-9D9C-227AFB60631D}
    NAME "ch5 (send bass)"
    PEAKCOL 16576
    BEAT -1
    AUTOMODE 0
    VOLPAN 1 0 -1 -1 1
    MUTESOLO 0 0 0
    IPHASE 0
    ISBUS 2 -1
    BUSCOMP 0 0
    SHOWINMIX 1 0.6667 0.698113 1 0.5 -1 -1 -1
    FREEMODE 0
    SEL 0
    REC 0 0 0 0 0 0 0
    VU 2
    TRACKHEIGHT 0 0
    INQ 0 0 0 0.5 100 0 0 100
    NCHAN 2
    FX 1
    TRACKID {BE34EA7E-2789-BE43-9D9C-227AFB60631D}
    PERF 0
    MIDIOUT -1
    MAINSEND 1 0
  >
  <TRACK {B91E5163-8C2B-404F-8C78-0605AAF52936}
    NAME ChipFront
    PEAKCOL 16576
    BEAT -1
    AUTOMODE 0
    VOLPAN 1 0 -1 -1 1
    MUTESOLO 0 0 0
    IPHASE 0
    ISBUS 0 0
    BUSCOMP 0 0
    SHOWINMIX 1 0.6667 0.698113 1 0.5 -1 -1 -1
    FREEMODE 0
    SEL 0
    REC 0 0 0 0 0 0 0
    VU 2
    TRACKHEIGHT 0 0
    INQ 0 0 0 0.5 100 0 0 100
    NCHAN 4
    FX 1
    TRACKID {B91E5163-8C2B-404F-8C78-0605AAF52936}
    PERF 0
    AUXRECV 4 0 1 0 0 0 0 0 0 -1 0 -1 ''
    MIDIOUT -1
    MAINSEND 1 0
    <FXCHAIN
      SHOW 0
      LASTSEL 0
      DOCKED 0
      BYPASS 0 0 0
      <VST "VST: FabFilter Volcano 2 (SC) (FabFilter)" "FabFilter Volcano 2 (SC).vst" 0 ""
        NDJWRu9e7f4EAAAAAQAAAAAAAAACAAAAAAAAAAQAAAAAAAAACAAAAAAAAAAEAAAAAQAAAAAAAAACAAAAAAAAAAQAAAAAAAAACAAAAAAAAADcCwAAAAAAAAAAEADvvq3e
        DfCt3gAAAD8AAAA/AAAAPwAAAD8AAIA/AAAAAAAAAD+rqqo+rb5oPwAAAD+KDTI8zczMPQAAAAAAAAAAAAAAAAAAgD8AAIA/Qix2PwAAAD9tsOA9mpkZPwAAAAAAAAAA
        56/fPAAAgD8AAAAAAACAPwAAAD8AAAAAmpkZPwAAAAAAAAAAAAAAAAAAgD8AAAAAAACAPwAAAD8AAAAAmpkZPwAAAAAAAAAAAAAAAAAAgD8AAAAAq6qqPgBOsj4AAAA/
        AAAAAMHKST9ddFE/AAAAAImIiD0AAIA/qheIPgAAAAAAAAAAAAAAAAAAAAAAAIA/AAAAAAAAAD8AAAAAAAAAAAAAAAAAAAA/AAAAAAAAAAAAAAAAAAAAPwAAAAAAAAAA
        AAAAAAAAAD8AAAAAAAAAAAAAAAAAAAA/AAAAAAAAAAAAAAAAAAAAPwAAAAAAAAAAAAAAAAAAAD8AAAAAAAAAAAAAAAAAAAA/AAAAAAAAAAAAAAAAAAAAPwAAAAAAAAAA
        AAAAAAAAAD8AAAAAAAAAAAAAAAAAAAA/AAAAAAAAAAAAAAAAAAAAPwAAAAAAAAAAAAAAAAAAAD8AAAAAAAAAAAAAAAAAAAA/AAAAAAAAAAAAAAAAfBkQPgAAAD8oo7c9
        AACAPwAAAAAAAAAAiYiIPfLSJT8AAAAAAACAPwAAAAB0aNE9AAAAAAAAgD8AAAAAAAAAPwAAAAAAAAAAAAAAAAAAAD8AAAAAAAAAAAAAAAAAAAA/AAAAAAAAAAAAAAAA
        AAAAPwAAAAAAAAAAAAAAAAAAAD8AAAAAAAAAAAAAAAAAAAA/AAAAAAAAAAAAAAAAAAAAPwAAAAAAAAAAAAAAAAAAAD8AAAAAAAAAAAAAAAAAAAA/AAAAAAAAAAAAAAAA
        AAAAPwAAAAAAAAAAAAAAAAAAAD8AAAAAAAAAAAAAAAAAAAA/AAAAAAAAAAAAAAAAAAAAPwAAAAAAAAAAAAAAAAAAAD8AAAAAAAAAAAAAAAC+9H0+AAAAPwAAAD8AAAA/
        AAAAAAAAAACJiIg9AAAAPwAAAAAAAAAAAAAAAAAAAD8AAAAAAAAAAAAAAAAAAAA/AAAAAAAAAAAAAAAAAAAAPwAAAAAAAAAAAAAAAAAAAD8AAAAAAAAAAAAAAAAAAAA/
        AAAAAAAAAAAAAAAAAAAAPwAAAAAAAAAAAAAAAAAAAD8AAAAAAAAAAAAAAAAAAAA/AAAAAAAAAAAAAAAAAAAAPwAAAAAAAAAAAAAAAAAAAD8AAAAAAAAAAAAAAAAAAAA/
        AAAAAAAAAAAAAAAAAAAAPwAAAAAAAAAAAAAAAAAAAD8AAAAAAAAAAAAAAAAAAAA/AAAAAAAAAAAAAAAAAAAAPwAAAAAAAAAAAAAAAL70fT4AAAA/AAAAPwAAAD8AAAAA
        AAAAAImIiD0AAAA/AAAAAAAAAAAAAAAAAAAAPwAAAAAAAAAAAAAAAAAAAD8AAAAAAAAAAAAAAAAAAAA/AAAAAAAAAAAAAAAAAAAAPwAAAAAAAAAAAAAAAAAAAD8AAAAA
        AAAAAAAAAAAAAAA/AAAAAAAAAAAAAAAAAAAAPwAAAAAAAAAAAAAAAAAAAD8AAAAAAAAAAAAAAAAAAAA/AAAAAAAAAAAAAAAAAAAAPwAAAAAAAAAAAAAAAAAAAD8AAAAA
        AAAAAAAAAAAAAAA/AAAAAAAAAAAAAAAAAAAAPwAAAAAAAAAAAAAAAAAAAD8AAAAAAAAAAAAAAAAAAAA/AAAAAAAAAAAAAAAAvvR9PgAAAD8AAAA/AAAAPwAAAAAAAAAA
        iYiIPQAAAD8AAAAAAAAAAAAAAAAAAAA/AAAAAAAAAAAAAAAAAAAAPwAAAAAAAAAAAAAAAAAAAD8AAAAAAAAAAAAAAAAAAAA/AAAAAAAAAAAAAAAAAAAAPwAAAAAAAAAA
        AAAAAAAAAD8AAAAAAAAAAAAAAAAAAAA/AAAAAAAAAAAAAAAAAAAAPwAAAAAAAAAAAAAAAAAAAD8AAAAAAAAAAAAAAAAAAAA/AAAAAAAAAAAAAAAAAAAAPwAAAAAAAAAA
        AAAAAAAAAD8AAAAAAAAAAAAAAAAAAAA/AAAAAAAAAAAAAAAAAAAAPwAAAAAAAAAAAAAAAAAAAD8AAAAAAAAAAAAAAAC+9H0+AAAAPwAAAD8AAAA/AAAAAAAAAACJiIg9
        AAAAPwAAAAAAAAAAAAAAAAAAAD8AAAAAAAAAAAAAAAAAAAA/AAAAAAAAAAAAAAAAAAAAPwAAAAAAAAAAAAAAAAAAAD8AAAAAAAAAAAAAAAAAAAA/AAAAAAAAAAAAAAAA
        AAAAPwAAAAAAAAAAAAAAAAAAAD8AAAAAAAAAAAAAAAAAAAA/AAAAAAAAAAAAAAAAAAAAPwAAAAAAAAAAAAAAAAAAAD8AAAAAAAAAAAAAAAAAAAA/AAAAAAAAAAAAAAAA
        AAAAPwAAAAAAAAAAAAAAAAAAAD8AAAAAAAAAAAAAAAAAAAA/AAAAAAAAAAAAAAAAAAAAPwAAAAAAAAAAAAAAAAAAAACamZk+AAAAAAAAAAAAAAAAAACAPwAAAACamZk+
        AAAAAAAAAAAAAAAAAACAPwAAAACamZk+AAAAAAAAAAAAAAAAAACAPwAAAACamZk+AAAAAAAAAAAAAAAAAACAPwAAAACamZk+AAAAAAAAAAAAAAAAAACAPwAAAACamZk+
        AAAAAAAAAAAAAAAAAACAPwAAAAAAAAAAAAAAAAAAAAAAAAAAAAAAAAAAAAAAAAAAAAAAAAAAAAAAAAAAAAAAAAAAAAAAAAAAAAAAAAAAAAAAAAAAAAAAAAAAAAAAAAAA
        AAAAAAAAAAAAAAAAAAAAAAAAAAAAAAAAAAAAAAAAAAAAAAAAAAAAAAAAAAAAAAAAAAAAAAAAAAAAAAAAAAAAAAAAAAAAAAAAq6oqPdmJnT2BKFY+AAAAAAAAAAC/55Y9
        AAAAAAAAAD8AAAAAAAAAAAAAAAAAAAAAAAAAPwAAAAAAAAAAAAAAAAAAAAAAAAA/AAAAAAAAAAAAAAAAAAAAAAAAAAAAAAAAAAAAAAAAAAAAAAAAAAAAAAAAAAAAAAAA
        AAAAAAAAAAAAAAAAAAAAAAAAAAAAAAAAAAAAAAAAAAAAAAAAAAAAAAAAAAAAAAAAAAAAAAAAAAAAAAAAAAAAAAAAAAAAAAAAAAAAAAAAAAAAAAAAAAAAAAAAAAAAAAAA
        AAAAAAAAAAAAAAAAAAAAAAAAAAAAAAAAAAAAAAAAAAAAAAAAAAAAAAAAAAAAAAAAAAAAAAAAAAAAAAAAAAAAAAAAAAAAAAAAAAAAAAAAAAAAAAAAAAAAAAAAAAAAAAAA
        AAAAAAAAAAAAAAAAAAAAAAAAAAAAAAAAAAAAAAAAAAAAAAAAAAAAAAAAAAAAAAAAAAAAAAAAAAAAAAAAAAAAAAAAAAAAAAAAAAAAAAAAAAAAAAAAAAAAAAAAAAAAAAAA
        AAAAAAAAAAAAAAAAAAAAAAAAAAAAAAAAAAAAAAAAAAAAAAAAAAAAAAAAAAAAAAAAAAAAAAAAAAAAAAAAAAAAAAAAAAAAAAAAAAAAAAAAAAAAAAA/AAAAPwAAAD8AAAA/
        AAAAPwAAAD8AAAA/AAAAPwAAAAAAAAAAAAAAAAAAAAAAAAAAAAAAAAAAAAAAAAAAAAAAAAAAAAAAAAAAAAAAAAAAAAAAAAAAAAAAAAAAAAAAAAAAAAAAAAAAAAAAAAAA
        AAAAAAAAAAAAAAAAAAAAAAAAAAAAAAAAAAAAAAAAAAAAAAAAAAAAAAAAAAAAAAAAAAAAAAAAAAAAAAAAAAAAAAAAAAAAAAAAAAAAAAAAAAAAAAAAAAAAAAAAAAAAAAAA
        AAAAAAAAAAAAAAAAAAAAAAAAAAAAAAAAAAAAAAAAAAAAAAAAAAAAAAAAAAAAAAAAAAAAAAAAAAAAAAAAAAAAAAAAAAAAAAAAAAAAAAAAAAAAAAAAAAAAAAAAAAAAAAAA
        AAAAAAAAAAAAAAAAAAAAAAAAAAAAAAAAAAAAAAAAAAAAAAAAAAAAAAAAAAAAAAAAAAAAAAAAAABDaGlwRnJvbnQAQ2hpcEZyb250ABAAAAA=
      >
      FLOATPOS 36 32 641 529
      FXID {4C5A6810-F3ED-0645-A06D-6758F70CB097}
      WAK 0
    >
  >
  <TRACK {4E9F66C4-38E7-4946-B39F-214CBB1CFB8B}
    NAME ChipSide
    PEAKCOL 16576
    BEAT -1
    AUTOMODE 0
    VOLPAN 1 0 -1 -1 1
    MUTESOLO 0 0 0
    IPHASE 0
    ISBUS 0 0
    BUSCOMP 0 0
    SHOWINMIX 1 0.6667 0.698113 1 0.5 -1 -1 -1
    FREEMODE 0
    SEL 0
    REC 0 0 0 0 0 0 0
    VU 2
    TRACKHEIGHT 0 0
    INQ 0 0 0 0.5 100 0 0 100
    NCHAN 4
    FX 1
    TRACKID {4E9F66C4-38E7-4946-B39F-214CBB1CFB8B}
    PERF 0
    AUXRECV 4 0 1.03113579563571 0 0 0 0 2 0 -1 0 -1 ''
    MIDIOUT -1
    MAINSEND 1 0
    <FXCHAIN
      SHOW 0
      LASTSEL 0
      DOCKED 0
      BYPASS 0 0 0
      <VST "VST: FabFilter Volcano 2 (SC) (FabFilter)" "FabFilter Volcano 2 (SC).vst" 0 ""
        NDJWRu9e7f4EAAAAAQAAAAAAAAACAAAAAAAAAAQAAAAAAAAACAAAAAAAAAAIAAAAAQAAAAAAAAACAAAAAAAAAAQAAAAAAAAACAAAAAAAAAAQAAAAAAAAACAAAAAAAAAA
        QAAAAAAAAACAAAAAAAAAANwLAAAAAAAAAAAQAO++rd4N8K3eAAAAPwAAAD8AAAA/AAAAPwAAgD8AAAAAAACAP6uqqj7KZRQ/AAAAP08aoD3NzMw9AAAAAAAAAABChiI/
        AACAPwAAgD9CLHY/AAAAP22w4D2amRk/AAAAAAAAAADnr988AACAPwAAAAAAAIA/AAAAPwAAAACamRk/AAAAAAAAAAAAAAAAAACAPwAAAAAAAIA/AAAAPwAAAACamRk/
        AAAAAAAAAAAAAAAAAACAPwAAAACrqqo+gnQAPRDmyT2YJ/o+AACAPwAAAAAAAAAAiYgIPgAAgD+zw7Q+AACAPwAAAAAAAAAAAAAAAKuqqj4AAAAAnhUdPwAAAAAAAIA/
        AAAAAAAAAD8AAAAAAAAAAAAAAAAAAAA/AAAAAAAAAAAAAAAAAAAAPwAAAAAAAAAAAAAAAAAAAD8AAAAAAAAAAAAAAAAAAAA/AAAAAAAAAAAAAAAAAAAAPwAAAAAAAAAA
        AAAAAAAAAD8AAAAAAAAAAAAAAAAAAAA/AAAAAAAAAAAAAAAAAAAAPwAAAAAAAAAAAAAAAAAAAD8AAAAAAAAAAAAAAAAAAAA/AAAAAAAAAAAAAAAAAAAAPwAAAAAAAAAA
        AAAAAAAAAD8AAAAAAAAAAAAAAAB8GRA+AAAAPyijtz0AAIA/AAAAAAAAAACJiIg98tIlPwAAAAAAAIA/AAAAAHRo0T0AAAAAAACAPwAAAAAAAAA/AAAAAAAAAAAAAAAA
        AAAAPwAAAAAAAAAAAAAAAAAAAD8AAAAAAAAAAAAAAAAAAAA/AAAAAAAAAAAAAAAAAAAAPwAAAAAAAAAAAAAAAAAAAD8AAAAAAAAAAAAAAAAAAAA/AAAAAAAAAAAAAAAA
        AAAAPwAAAAAAAAAAAAAAAAAAAD8AAAAAAAAAAAAAAAAAAAA/AAAAAAAAAAAAAAAAAAAAPwAAAAAAAAAAAAAAAAAAAD8AAAAAAAAAAAAAAAAAAAA/AAAAAAAAAAAAAAAA
        AAAAPwAAAAAAAAAAAAAAAL70fT4AAAA/AAAAPwAAAD8AAAAAAAAAAImIiD0AAAA/AAAAAAAAAAAAAAAAAAAAPwAAAAAAAAAAAAAAAAAAAD8AAAAAAAAAAAAAAAAAAAA/
        AAAAAAAAAAAAAAAAAAAAPwAAAAAAAAAAAAAAAAAAAD8AAAAAAAAAAAAAAAAAAAA/AAAAAAAAAAAAAAAAAAAAPwAAAAAAAAAAAAAAAAAAAD8AAAAAAAAAAAAAAAAAAAA/
        AAAAAAAAAAAAAAAAAAAAPwAAAAAAAAAAAAAAAAAAAD8AAAAAAAAAAAAAAAAAAAA/AAAAAAAAAAAAAAAAAAAAPwAAAAAAAAAAAAAAAAAAAD8AAAAAAAAAAAAAAAAAAAA/
        AAAAAAAAAAAAAAAAvvR9PgAAAD8AAAA/AAAAPwAAAAAAAAAAiYiIPQAAAD8AAAAAAAAAAAAAAAAAAAA/AAAAAAAAAAAAAAAAAAAAPwAAAAAAAAAAAAAAAAAAAD8AAAAA
        AAAAAAAAAAAAAAA/AAAAAAAAAAAAAAAAAAAAPwAAAAAAAAAAAAAAAAAAAD8AAAAAAAAAAAAAAAAAAAA/AAAAAAAAAAAAAAAAAAAAPwAAAAAAAAAAAAAAAAAAAD8AAAAA
        AAAAAAAAAAAAAAA/AAAAAAAAAAAAAAAAAAAAPwAAAAAAAAAAAAAAAAAAAD8AAAAAAAAAAAAAAAAAAAA/AAAAAAAAAAAAAAAAAAAAPwAAAAAAAAAAAAAAAAAAAD8AAAAA
        AAAAAAAAAAC+9H0+AAAAPwAAAD8AAAA/AAAAAAAAAACJiIg9AAAAPwAAAAAAAAAAAAAAAAAAAD8AAAAAAAAAAAAAAAAAAAA/AAAAAAAAAAAAAAAAAAAAPwAAAAAAAAAA
        AAAAAAAAAD8AAAAAAAAAAAAAAAAAAAA/AAAAAAAAAAAAAAAAAAAAPwAAAAAAAAAAAAAAAAAAAD8AAAAAAAAAAAAAAAAAAAA/AAAAAAAAAAAAAAAAAAAAPwAAAAAAAAAA
        AAAAAAAAAD8AAAAAAAAAAAAAAAAAAAA/AAAAAAAAAAAAAAAAAAAAPwAAAAAAAAAAAAAAAAAAAD8AAAAAAAAAAAAAAAAAAAA/AAAAAAAAAAAAAAAAAAAAPwAAAAAAAAAA
        AAAAAL70fT4AAAA/AAAAPwAAAD8AAAAAAAAAAImIiD0AAAA/AAAAAAAAAAAAAAAAAAAAPwAAAAAAAAAAAAAAAAAAAD8AAAAAAAAAAAAAAAAAAAA/AAAAAAAAAAAAAAAA
        AAAAPwAAAAAAAAAAAAAAAAAAAD8AAAAAAAAAAAAAAAAAAAA/AAAAAAAAAAAAAAAAAAAAPwAAAAAAAAAAAAAAAAAAAD8AAAAAAAAAAAAAAAAAAAA/AAAAAAAAAAAAAAAA
        AAAAPwAAAAAAAAAAAAAAAAAAAD8AAAAAAAAAAAAAAAAAAAA/AAAAAAAAAAAAAAAAAAAAPwAAAAAAAAAAAAAAAAAAAD8AAAAAAAAAAAAAAAAAAAA/AAAAAAAAAAAAAAAA
        AAAAAJqZmT4AAAAAAAAAAAAAAAAAAIA/AAAAAJqZmT4AAAAAAAAAAAAAAAAAAIA/AAAAAJqZmT4AAAAAAAAAAAAAAAAAAIA/AAAAAJqZmT4AAAAAAAAAAAAAAAAAAIA/
        AAAAAJqZmT4AAAAAAAAAAAAAAAAAAIA/AAAAAJqZmT4AAAAAAAAAAAAAAAAAAIA/AAAAAAAAAAAAAAAAAAAAAAAAAAAAAAAAAAAAAAAAAAAAAAAAAAAAAAAAAAAAAAAA
        AAAAAAAAAAAAAAAAAAAAAAAAAAAAAAAAAAAAAAAAAAAAAAAAAAAAAAAAAAAAAAAAAAAAAAAAAAAAAAAAAAAAAAAAAAAAAAAAAAAAAAAAAAAAAAAAAAAAAAAAAAAAAAAA
        AAAAAAAAAACrqqo92YmdPYEoVj4AAIA/AAAAAL/nlj3ZiR09FrMxPwAAAAAAAAAAknYsPAAAAAAAAAA/AAAAAAAAAAAAAAAAAAAAAAAAAD8AAAAAAAAAAAAAAAAAAAAA
        AAAAAAAAAAAAAAAAAAAAAAAAAAAAAAAAAAAAAAAAAAAAAAAAAAAAAAAAAAAAAAAAAAAAAAAAAAAAAAAAAAAAAAAAAAAAAAAAAAAAAAAAAAAAAAAAAAAAAAAAAAAAAAAA
        AAAAAAAAAAAAAAAAAAAAAAAAAAAAAAAAAAAAAAAAAAAAAAAAAAAAAAAAAAAAAAAAAAAAAAAAAAAAAAAAAAAAAAAAAAAAAAAAAAAAAAAAAAAAAAAAAAAAAAAAAAAAAAAA
        AAAAAAAAAAAAAAAAAAAAAAAAAAAAAAAAAAAAAAAAAAAAAAAAAAAAAAAAAAAAAAAAAAAAAAAAAAAAAAAAAAAAAAAAAAAAAAAAAAAAAAAAAAAAAAAAAAAAAAAAAAAAAAAA
        AAAAAAAAAAAAAAAAAAAAAAAAAAAAAAAAAAAAAAAAAAAAAAAAAAAAAAAAAAAAAAAAAAAAAAAAAAAAAAAAAAAAAAAAAAAAAAAAAAAAAAAAAAAAAAAAAAAAAAAAAAAAAAAA
        AAAAAAAAAAAAAAAAAAAAAAAAAD8AAAA/AAAAPwAAAD8AAAA/AAAAPwAAAD8AAAA/AAAAAAAAAAAAAAAAAAAAAAAAAAAAAAAAAAAAAAAAAAAAAAAAAAAAAAAAAAAAAAAA
        AAAAAAAAAAAAAAAAAAAAAAAAAAAAAAAAAAAAAAAAAAAAAAAAAAAAAAAAAAAAAAAAAAAAAAAAAAAAAAAAAAAAAAAAAAAAAAAAAAAAAAAAAAAAAAAAAAAAAAAAAAAAAAAA
        AAAAAAAAAAAAAAAAAAAAAAAAAAAAAAAAAAAAAAAAAAAAAAAAAAAAAAAAAAAAAAAAAAAAAAAAAAAAAAAAAAAAAAAAAAAAAAAAAAAAAAAAAAAAAAAAAAAAAAAAAAAAAAAA
        AAAAAAAAAAAAAAAAAAAAAAAAAAAAAAAAAAAAAAAAAAAAAAAAAAAAAAAAAAAAAAAAAAAAAAAAAAAAAAAAAAAAAAAAAAAAAAAAAAAAAAAAAAAAAAAAAAAAAENoaXBTaWRl
        AENoaXBTaWRlABAAAAA=
      >
      FLOATPOS 36 32 641 529
      FXID {20356A84-5CFD-6E4A-AA26-2A8A49CE7A76}
      WAK 0
    >
  >
  <EXTENSIONS
    <SWSAUTOCOLOR
      {00000000-0000-0000-0000-000000000000} 0 ""
    >
    <XENAKIOSCOMMANDS
      REFTRACK 0 5 1 "00000000000"
    >
    <BR_CURSOR_POS 04
      0.00000000000000
    >
  >
>
