<REAPER_PROJECT 0.1 "5.201/OSX64" 1464740323
  RIPPLE 0
  GROUPOVERRIDE 0 0 0
  AUTOXFADE 0
  ENVATTACH 1
  MIXERUIFLAGS 11 436
  PEAKGAIN 1
  FEEDBACK 0
  PANLAW 1
  PROJOFFS 0 0
  MAXPROJLEN 0 600
  GRID 174462 8 1 8 1 0 0
  TIMEMODE 6 0 -1 24 2
  PANMODE 3
  CURSOR 0
  ZOOM 11.16466036864228 0 0
  VZOOMEX 0
  USE_REC_CFG 0
  RECMODE 1
  SMPTESYNC 0 23.976024 100 40 1000 300 0 0 1
  MIDIEDITOR -116919545
  LOOP 1
  LOOPGRAN 0 4
  RECORD_PATH "" ""
  <RECORD_CFG
    ZXZhdxAA
  >
  <APPLYFX_CFG
  >
  RENDER_FILE ""
  RENDER_PATTERN ""
  RENDER_FMT 0 2 0
  RENDER_1X 0
  RENDER_RANGE 1 0 0 18 1000
  RENDER_RESAMPLE 3 0 1
  RENDER_ADDTOPROJ 0
  RENDER_STEMS 0
  RENDER_DITHER 0
  TIMELOCKMODE 1
  TEMPOENVLOCKMODE 1
  ITEMMIX 1
  DEFPITCHMODE 589824
  TAKELANE 3
  SAMPLERATE 44100 0 0
  <RENDER_CFG
  >
  LOCK 1
  <METRONOME 6 2
    VOL 0.25 0.125
    FREQ 800 1600 1
    BEATLEN 4
    SAMPLES "" ""
    PATTERN 2863311530 2863311529
  >
  GLOBAL_AUTO -1
  TEMPO 120 4 4
  PLAYRATE 1 0 0.25 4
  SELECTION 0 24
  SELECTION2 0 24
  MASTERAUTOMODE 0
  MASTERTRACKHEIGHT 0
  MASTERPEAKCOL 16576
  MASTERMUTESOLO 0
  MASTERTRACKVIEW 0 0.6667 0.657005 0.5 0 0 0
  MASTERHWOUT 0 0 1 0 0 0 0 -1
  MASTER_NCH 2 2
  MASTER_VOLUME 1 0 -1 -1 1
  MASTER_FX 1
  MASTER_SEL 0
  <MASTERPLAYSPEEDENV
    ACT 0
    VIS 0 1 1
    LANEHEIGHT 0 0
    ARM 0
    DEFSHAPE 0 -1 -1
  >
  <TEMPOENVEX
    ACT 0
    VIS 1 0 1
    LANEHEIGHT 0 0
    ARM 0
    DEFSHAPE 1 -1 -1
  >
  MARKER 1 15 werid 1 0 1 B
  MARKER 1 20 "" 1 0 1 B
  <PROJBAY
  >
  <TRACK {76E24B40-2920-CD42-8B84-55D9589893DF}
    NAME "27 Mexico"
    PEAKCOL 16576
    BEAT -1
    AUTOMODE 0
    VOLPAN 1 0 -1 -1 1
    MUTESOLO 1 0 0
    IPHASE 0
    ISBUS 0 0
    BUSCOMP 0 0
    SHOWINMIX 1 0.6667 0.657005 1 0.5 0 0 0
    FREEMODE 0
    SEL 0
    REC 0 0 0 0 0 0 0
    VU 2
    TRACKHEIGHT 0 0
    INQ 0 0 0 0.5 100 0 0 100
    NCHAN 2
    FX 1
    TRACKID {76E24B40-2920-CD42-8B84-55D9589893DF}
    PERF 0
    MIDIOUT -1
    MAINSEND 1 0
    <ITEM
      POSITION 0
      SNAPOFFS 0
      LENGTH 88.96
      LOOP 1
      ALLTAKES 0
      FADEIN 1 0 0 1 0 0
      FADEOUT 1 0 0 1 0 0
      MUTE 0
      SEL 0
      IGUID {3FE61C0A-73E5-814C-985B-F6776C16DF4A}
      IID 8
      NAME "27 Mexico.mp3"
      VOLPAN 1 0 1 -1
      SOFFS 0.41
      PLAYRATE 1 1 0 -1 0 0.0025
      CHANMODE 0
      GUID {54277E88-7DFC-A742-A29E-240D14C39F85}
      <SOURCE MP3
        FILE "27 Mexico.mp3" 1
      >
      SM 0 0.41 + 4 4.152782407 + 8 7.899854139 + 12 11.717358404 + 16 15.490211282 + 18.554669541 17.849346503 + 19.889362973 19.353078491 + 20.167050414 19.563728552 + 21.231518938 20.57248235 + 21.69433134 21.12231002 + 22.458379236 22.030009712 + 23.952391589 22.892169829 + 32.282992129 30.724425318 + 40.437685535 38.914181867 + 48.146154767 46.161645657 + 56.484864 54.111476505 + 59.95550681 57.610597829 + 67.990491892 64.912572548 + 76.149811246 72.68524632 + 84.149704278 80.394854537 + 88.96 89.37
    >
  >
  <TRACK {F23F8223-271A-294D-A229-F474D58B7A97}
    NAME "vst Gladiator"
    PEAKCOL 27222112
    BEAT -1
    AUTOMODE 0
    VOLPAN 0.50118723362727 0 -1 -1 1
    MUTESOLO 1 0 0
    IPHASE 0
    ISBUS 0 0
    BUSCOMP 2 0
    SHOWINMIX 1 0.6667 0.657005 1 0.5 0 0 0
    FREEMODE 0
    SEL 0
    REC 0 0 0 0 0 0 0
    VU 2
    TRACKHEIGHT 25 0
    INQ 0 0 0 0.5 100 0 0 100
    NCHAN 2
    FX 1
    TRACKID {F23F8223-271A-294D-A229-F474D58B7A97}
    PERF 0
    MIDIOUT -1
    MAINSEND 1 0
    <FXCHAIN
      SHOW 0
      LASTSEL 0
      DOCKED 0
      BYPASS 0 0 0
      <VST "VSTi: Gladiator (Tone2.com)" Gladiator.vst 0 "" 1412581196
        TEcyVO5e7f4AAAAAAgAAAAEAAAAAAAAAAgAAAAAAAABaBAAAAQAAAAAAEAA=
        Q2NuSwAAAGBGeENrAAAAAVQyR0wAAAABAAABB0luaXQAAAAAAAAAAAAAAAAAAAAAAAAAAAAAAAA9zMzNPMzMzTw0OVg9uFH0PXnbIz+AAAA7xJumPb52yT+AAAA7xJum
        AAAAAD6mZmY+PXCkP4AAAD7FHrk/AAAAPwAAAAAAAAA9ffO2PdDlYDy8an8/RR64AAAAAD+AAAA8NDlYPZFocz71wo87RJumPbhR6D69cKQ+PXCkP4AAAD8AAAA/A9cL
        PwAAAAAAAAAAAAAAPwAAAD8AAAA/AAAAPtmZmj8AAAAAAAAAO+VgQj24UesAAAAAPk21xDtEm6Y/S4UeAAAAAAAAAAA+64UgPpR64T1hR7A+z1woPx64Uj49cKY/AAAA
        PwAAAAAAAAAAAAAAPwAAAAAAAAAAAAAAP4AAAD+AAAAAAAAAPxHrhT8AAAA/AAAAPwAAAD8AAAAAAAAAPwAAAD8AAAA/AAAAAAAAAD8AAAA/AAAAPwAAAAAAAAA6gxJv
        P1Cj1wAAAAA/gAAAAAAAADqDEm8/AAAAAAAAAAAAAAAAAAAAPwAAAAAAAAA/gAAAAAAAAD+AAAAAAAAAPwAAAD8AAAA/AAAAPwAAAD8AAAA/AAAAPwAAAD8AAAA/AAAA
        PwAAAD8AAAA/EeuGPKPXCjqDEm88RJumAAAAAAAAAAAAAAAAPLxqfwAAAAAAAAAAAAAAAAAAAAAAAAAAAAAAAAAAAAAAAAAAAAAAAAAAAAAAAAAAAAAAAAAAAAAAAAAA
        AAAAAAAAAAA8E3S8AAAAADw0OVgAAAAAPBN0vAAAAAA8NDlYAAAAADwTdLwAAAAAPDQ5WAAAAAA8E3S8AAAAADw0OVgAAAAAPGVgQj2HKwI8ZWBCOwMSbz2JN0w7AxJv
        PLQ5WDyLQ5Y8k3S8PVT99D0XjVA8zMzNPoAAAD9ywjU/AAAAP1GnuT8wjT4/HLCNAAAAADsDEm86gxJvAAAAAAAAAAAAAAAAPwAAADqDEm87RJumP4AAAAAAAAA/gAAA
        AAAAAD+AAAAAAAAAAAAAAAAAAAAAAAAAP4AAAAAAAAA/AAAAAAAAAD8AAAA/BR64PwAAAD+AAAA/AAAAPwAAAD8AAAA/gAAAP4AAAAAAAAAAAAAAAAAAAD8AAAA/gAAA
        PwAAAAAAAAA+vXCkAAAAAAAAAAA/gAAAP4AAAD8j1wo/gAAAAAAAAAAAAAA/gAAAPwAAAAAAAAAAAAAAAAAAAAAAAAAAAAAAAAAAAAAAAAAAAAAAAAAAAAAAAAAAAAAA
        AAAAAD8AAAA/AAAAPwAAAD8AAAA/AAAAPwAAAAAAAAAAAAAAP4AAAAAAAAAAAAAAAAAAAAAAAAAAAAAAAAAAAAAAAAAAAAAAAAAAAAAAAAAAAAAAAAAAAAAAAAAAAAAA
        AAAAAAAAAAAAAAAAAAAAAAAAAAAAAAAAAAAAAAAAAAAAAAAAAAAAAAAAAAAAAAAAAAAAAAAAqqusrQ==
        AAAQAAAA
      >
      FLOATPOS 500 379 987 799
      FXID {532372E3-5B0D-9345-A9C8-98A8EBAF9A7E}
      WAK 0
    >
    <ITEM
      POSITION 0
      SNAPOFFS 0
      LENGTH 84.5
      LOOP 1
      ALLTAKES 0
      FADEIN 1 0 0 1 0 0
      FADEOUT 1 0 0 1 0 0
      MUTE 1
      SEL 0
      YPOS 0 0.05
      IGUID {BC2767C0-1331-EC4B-A673-49347F69289C}
      IID 5
      NAME "strings (hi) - National_Anthems_-_Mexico.mid"
      VOLPAN 1 0 1 -1
      SOFFS 0 0
      PLAYRATE 1 1 0 -1 0 0.0025
      CHANMODE 0
      GUID {DF0AAC32-C3C2-544D-94E2-61BCC7AA32D2}
      <SOURCE MIDI
        HASDATA 1 480 QN
        POOLEDEVTS {3AF83F23-8AD5-E24F-BF4C-A8B5564604D3}
        <X 0 0
          /wNzdHJpbmdzIChoaSk=
        >
        <X 0 0
          /wRTb3VuZCBDYW52YXM=
        >
        e 0 94 3c 7f
        e 4 94 48 7f
        e 296 84 3c 45
        e 6 94 4c 7f
        e 1 84 48 1e
        e 0 94 40 7f
        e 175 94 43 7f
        e 1 84 40 41
        e 8 94 4f 7f
        e 7 84 4c 3f
        e 400 84 4f 43
        e 1 84 43 40
        e 47 94 4f 7f
        e 5 94 43 7f
        e 229 84 43 32
        e 10 84 4f 39
        e 81 94 4f 7f
        e 3 94 43 7f
        e 66 84 43 3f
        e 21 84 4f 43
        e 50 94 43 7f
        e 4 94 4f 7f
        e 402 84 43 3d
        e 7 84 4f 42
        e 65 94 43 7f
        e 9 94 4f 7f
        e 134 84 43 31
        e 1 94 45 7f
        e 13 94 51 7f
        e 13 84 4f 35
        e 104 84 45 29
        e 4 94 47 7f
        e 11 94 53 7f
        e 8 84 51 1e
        e 171 84 53 45
        e 3 94 54 7f
        e 1 84 47 4a
        e 1 94 48 7f
        e 966 84 48 25
        e 4 94 43 7f
        e 1 94 4f 7f
        e 4 84 54 57
        e 461 94 4c 7f
        e 1 94 40 7f
        e 13 84 43 34
        e 5 84 4f 3f
        e 178 84 40 34
        e 28 84 4c 40
        e 111 94 40 7f
        e 4 94 4c 7f
        e 140 84 40 40
        e 6 94 3e 7f
        e 6 94 4a 7f
        e 18 84 4c 43
        e 448 94 40 7f
        e 1 84 3e 3c
        e 1 94 4c 7f
        e 15 84 4a 33
        e 245 84 40 33
        e 10 84 4c 2c
        e 68 94 40 7f
        e 0 94 4c 7f
        e 159 94 4d 7f
        e 2 94 41 7f
        e 8 84 40 2c
        e 0 84 4c 2e
        e 460 84 41 3f
        e 0 94 43 7f
        e 11 94 4f 7f
        e 11 84 4d 31
        e 191 84 43 24
        e 34 84 4f 29
        e 101 94 4f 7f
        e 2 94 43 7f
        e 158 94 4c 7f
        e 1 84 4f 44
        e 0 94 40 7f
        e 2 84 43 2b
        e 471 84 4c 47
        e 2 94 3c 7f
        e 1 84 40 40
        e 0 94 48 7f
        e 766 84 48 2c
        e 121 84 3c 27
        e 47 94 54 7f
        e 3 94 48 7f
        e 221 84 48 26
        e 40 84 54 41
        e 80 94 54 7f
        e 4 94 48 7f
        e 156 84 54 4a
        e 1 84 48 35
        e 1 94 47 7f
        e 0 94 53 7f
        e 472 94 46 7f
        e 9 94 52 7f
        e 2 84 53 37
        e 22 84 47 3a
        e 177 84 46 30
        e 24 84 52 31
        e 95 94 46 7f
        e 7 94 52 7f
        e 168 84 46 24
        e 2 94 45 7f
        e 2 94 51 7f
        e 11 84 52 23
        e 444 94 44 7f
        e 1 94 50 7f
        e 12 84 51 30
        e 2 84 45 14
        e 259 84 44 36
        e 5 84 50 49
        e 64 94 44 7f
        e 6 94 50 7f
        e 163 84 44 0d
        e 4 84 50 48
        e 2 94 4f 7f
        e 4 94 43 7f
        e 439 84 43 47
        e 4 94 54 7f
        e 5 94 48 7f
        e 6 84 4f 39
        e 839 84 48 1c
        e 46 84 54 1c
        e 42 94 51 7f
        e 2 94 45 7f
        e 306 94 53 7f
        e 6 94 47 7f
        e 5 84 51 38
        e 10 84 45 31
        e 97 84 53 52
        e 5 84 47 52
        e 81 94 48 7f
        e 5 94 54 7f
        e 449 94 40 7f
        e 3 94 4c 7f
        e 5 84 54 35
        e 5 84 48 3e
        e 303 84 40 35
        e 15 94 4d 7f
        e 1 94 41 7f
        e 2 84 4c 11
        e 153 84 41 36
        e 3 94 43 7f
        e 0 94 4f 7f
        e 11 84 4d 26
        e 388 84 43 33
        e 11 84 4f 2e
        e 57 94 4d 7f
        e 4 94 41 7f
        e 138 94 40 7f
        e 3 94 4c 7f
        e 8 84 41 38
        e 6 84 4d 35
        e 124 94 3e 7f
        e 1 84 40 2a
        e 6 94 4a 7f
        e 10 84 4c 2e
        e 169 84 3e 34
        e 3 94 3c 7f
        e 1 94 48 7f
        e 3 84 4a 3d
        e 1243 84 3c 3b
        e 33 84 48 01
        e 180 94 40 7f
        e 0 94 4c 7f
        e 301 84 4c 30
        e 10 94 4f 7f
        e 7 94 43 7f
        e 7 84 40 3a
        e 165 84 43 4c
        e 6 94 54 7f
        e 3 84 4f 3d
        e 3 94 48 7f
        e 400 84 54 48
        e 0 84 48 39
        e 64 94 54 7f
        e 3 94 48 7f
        e 270 84 48 3d
        e 2 84 54 49
        e 49 94 54 7f
        e 3 94 48 7f
        e 83 84 54 53
        e 2 84 48 40
        e 43 94 48 7f
        e 1 94 54 7f
        e 399 84 48 3d
        e 15 84 54 4c
        e 63 94 48 7f
        e 1 94 54 7f
        e 309 84 54 43
        e 7 94 56 7f
        e 7 94 4a 7f
        e 17 84 48 2e
        e 141 94 58 7f
        e 10 94 4c 7f
        e 8 84 4a 46
        e 3 84 56 3e
        e 714 94 56 7f
        e 10 94 4a 7f
        e 1 84 58 32
        e 15 84 4c 23
        e 217 84 56 42
        e 1 94 54 7f
        e 3 84 4a 01
        e 2 94 48 7f
        e 432 84 54 4d
        e 3 84 48 3e
        e 44 94 48 7f
        e 0 94 54 7f
        e 243 84 48 0b
        e 10 84 54 44
        e 70 94 54 7f
        e 4 94 48 7f
        e 86 84 48 3e
        e 3 84 54 4e
        e 58 94 54 7f
        e 1 94 48 7f
        e 464 94 40 7f
        e 4 94 4c 7f
        e 33 84 54 3c
        e 34 84 48 62
        e 270 94 45 7f
        e 0 94 51 7f
        e 1 84 4c 25
        e 5 84 40 47
        e 143 84 51 22
        e 6 84 45 01
        e 12 94 4f 7f
        e 1 94 43 7f
        e 450 94 4d 7f
        e 1 84 4f 4a
        e 1 94 41 7f
        e 3 84 43 24
        e 139 84 41 01
        e 8 94 40 7f
        e 2 94 4c 7f
        e 1 84 4d 39
        e 127 84 40 27
        e 1 94 3e 7f
        e 10 94 4a 7f
        e 6 84 4c 37
        e 142 84 3e 18
        e 9 84 4a 44
        e 8 94 3c 7f
        e 2 94 48 7f
        e 1325 84 48 21
        e 10 84 3c 48
        e 159 94 43 7f
        e 176 84 43 3f
        e 100 94 43 7f
        e 101 84 43 3c
        e 103 94 43 7f
        e 380 84 43 44
        e 96 94 43 7f
        e 220 94 4a 7f
        e 6 84 43 50
        e 201 84 4a 43
        e 15 94 48 7f
        e 247 94 47 7f
        e 12 84 48 43
        e 216 84 47 4a
        e 9 94 45 7f
        e 229 94 47 7f
        e 7 84 45 36
        e 246 94 48 7f
        e 10 84 47 38
        e 927 94 43 7f
        e 17 84 48 42
        e 329 84 43 0d
        e 140 94 40 7f
        e 353 94 43 7f
        e 3 84 40 45
        e 67 84 43 3c
        e 73 94 43 7f
        e 333 94 41 7f
        e 4 84 43 3d
        e 76 84 41 43
        e 77 94 41 7f
        e 228 84 41 42
        e 8 94 45 7f
        e 153 84 45 2a
        e 85 94 45 7f
        e 238 94 43 7f
        e 6 84 45 0c
        e 245 94 47 7f
        e 1 84 43 4d
        e 363 94 45 7f
        e 16 84 47 24
        e 106 84 45 20
        e 1 94 43 7f
        e 805 94 41 7f
        e 21 84 43 24
        e 127 84 41 27
        e 6 94 40 7f
        e 477 94 43 7f
        e 1 84 40 35
        e 173 84 43 26
        e 161 94 43 7f
        e 73 84 43 41
        e 74 94 43 7f
        e 389 84 43 54
        e 96 94 43 7f
        e 234 94 4a 7f
        e 23 84 43 37
        e 194 84 4a 38
        e 3 94 48 7f
        e 234 94 47 7f
        e 17 84 48 2b
        e 225 94 45 7f
        e 5 84 47 3c
        e 232 94 47 7f
        e 15 84 45 26
        e 233 84 47 46
        e 16 94 48 7f
        e 242 84 48 4b
        e 0 94 43 7f
        e 235 94 4c 7f
        e 23 84 43 31
        e 925 84 4c 3f
        e 8 94 4a 7f
        e 222 84 4a 44
        e 10 94 48 7f
        e 245 84 48 44
        e 1 94 47 7f
        e 235 94 48 7f
        e 11 84 47 2e
        e 89 94 47 7f
        e 6 84 48 42
        e 115 94 46 7f
        e 4 84 47 4e
        e 224 94 47 7f
        e 8 84 46 36
        e 269 94 4a 7f
        e 9 84 47 42
        e 471 94 48 7f
        e 22 84 4a 17
        e 335 84 48 4b
        e 6 94 45 7f
        e 120 84 45 3e
        e 6 94 43 7f
        e 1391 84 43 39
        e 53 94 4f 7f
        e 10 94 43 7f
        e 184 84 43 1e
        e 14 84 4f 27
        e 93 94 43 7f
        e 9 94 4f 7f
        e 80 84 43 34
        e 24 84 4f 2f
        e 46 94 43 7f
        e 7 94 4f 7f
        e 445 84 43 36
        e 4 84 4f 33
        e 43 94 43 7f
        e 2 94 4f 7f
        e 302 84 43 44
        e 3 84 4f 45
        e 41 94 43 7f
        e 1 94 4f 7f
        e 52 84 43 38
        e 16 84 4f 37
        e 51 94 43 7f
        e 10 94 4f 7f
        e 396 84 43 40
        e 13 84 4f 3d
        e 47 94 43 7f
        e 11 94 4f 7f
        e 330 84 43 35
        e 3 94 50 7f
        e 4 94 44 7f
        e 9 84 4f 01
        e 144 94 46 7f
        e 1 94 52 7f
        e 17 84 44 28
        e 2 84 50 2a
        e 475 94 57 7f
        e 2 94 4b 7f
        e 3 84 46 33
        e 19 84 52 38
        e 699 84 4b 22
        e 177 84 57 3d
        e 30 94 43 7f
        e 6 94 4f 7f
        e 320 94 46 7f
        e 4 94 52 7f
        e 14 84 43 44
        e 7 84 4f 34
        e 66 84 52 4f
        e 4 84 46 4f
        e 99 94 46 7f
        e 5 94 52 7f
        e 320 94 50 7f
        e 2 94 44 7f
        e 16 84 46 2a
        e 5 84 52 1b
        e 56 84 50 39
        e 0 84 44 41
        e 51 94 50 7f
        e 4 94 44 7f
        e 215 84 50 41
        e 5 94 54 7f
        e 5 94 48 7f
        e 1 84 44 39
        e 174 84 48 36
        e 1 84 54 4a
        e 64 94 54 7f
        e 1 94 48 7f
        e 227 94 46 7f
        e 10 84 48 2c
        e 3 84 54 45
        e 5 94 52 7f
        e 216 84 46 48
        e 3 94 4a 7f
        e 2 94 56 7f
        e 20 84 52 22
        e 315 84 4a 20
        e 0 84 56 3c
        e 23 94 54 7f
        e 5 94 48 7f
        e 120 84 48 01
        e 5 94 46 7f
        e 5 94 52 7f
        e 1 84 54 43
        e 775 94 44 7f
        e 10 94 50 7f
        e 2 84 46 20
        e 7 84 52 2f
        e 149 94 43 7f
        e 4 94 4f 7f
        e 10 84 44 0e
        e 4 84 50 2f
        e 336 84 43 2b
        e 44 84 4f 24
        e 96 94 43 7f
        e 3 94 4f 7f
        e 211 84 43 35
        e 12 84 4f 37
        e 96 94 43 7f
        e 16 94 4f 7f
        e 149 94 44 7f
        e 1 84 43 3b
        e 6 94 50 7f
        e 5 84 4f 39
        e 218 84 44 3b
        e 8 84 50 3a
        e 0 94 4f 7f
        e 3 94 43 7f
        e 371 84 43 44
        e 16 84 4f 30
        e 80 94 43 7f
        e 0 94 4f 7f
        e 247 94 44 7f
        e 3 84 43 28
        e 3 94 50 7f
        e 7 84 4f 32
        e 224 94 4f 7f
        e 9 84 50 2d
        e 7 94 43 7f
        e 16 84 44 32
        e 339 84 43 37
        e 21 84 4f 01
        e 79 94 43 7f
        e 9 94 4f 7f
        e 260 84 43 29
        e 1 94 48 7f
        e 1 94 54 7f
        e 10 84 4f 1e
        e 685 94 4a 7f
        e 5 94 56 7f
        e 3 84 54 3c
        e 7 84 48 27
        e 213 94 57 7f
        e 8 94 4b 7f
        e 2 84 4a 44
        e 3 84 56 3a
        e 476 84 4b 28
        e 8 94 54 7f
        e 1 94 48 7f
        e 15 84 57 49
        e 172 84 54 2e
        e 13 84 48 10
        e 132 94 54 7f
        e 7 94 48 7f
        e 68 84 54 4a
        e 0 84 48 40
        e 57 94 54 7f
        e 12 94 48 7f
        e 233 94 4b 7f
        e 2 94 3f 7f
        e 28 84 48 0b
        e 75 84 54 01
        e 56 84 4b 27
        e 4 84 3f 3b
        e 51 94 3f 7f
        e 13 94 4b 7f
        e 140 84 3f 36
        e 16 84 4b 45
        e 74 94 3f 7f
        e 9 94 4b 7f
        e 251 84 4b 44
        e 4 94 4d 7f
        e 2 84 3f 32
        e 3 94 41 7f
        e 470 84 41 1c
        e 2 84 4d 35
        e 5 94 3f 7f
        e 1 94 4b 7f
        e 316 94 41 7f
        e 10 94 4d 7f
        e 3 84 3f 35
        e 1 84 4b 37
        e 147 94 4f 7f
        e 1 84 4d 3a
        e 17 94 43 7f
        e 7 84 41 44
        e 465 84 43 49
        e 9 94 47 7f
        e 8 94 53 7f
        e 6 84 4f 26
        e 440 94 54 7f
        e 1 94 48 7f
        e 6 84 53 01
        e 3 84 47 28
        e 465 94 4a 7f
        e 4 94 56 7f
        e 4 84 54 45
        e 3 84 48 38
        e 408 84 4a 0d
        e 16 84 56 1f
        e 78 94 57 7f
        e 10 94 4b 7f
        e 237 94 54 7f
        e 2 94 48 7f
        e 1 84 57 45
        e 21 84 4b 0c
        e 204 84 48 3b
        e 4 94 47 7f
        e 2 94 53 7f
        e 5 84 54 42
        e 209 84 47 3b
        e 12 94 48 7f
        e 12 94 54 7f
        e 21 84 53 01
        e 216 84 48 3b
        e 1 84 54 46
        e 4 94 4a 7f
        e 1 94 56 7f
        e 501 94 48 7f
        e 4 94 54 7f
        e 1 84 4a 16
        e 4 84 56 32
        e 198 84 48 25
        e 6 84 54 3d
        e 115 94 48 7f
        e 1 94 54 7f
        e 151 94 43 7f
        e 1 84 48 41
        e 7 94 4f 7f
        e 1 84 54 46
        e 1298 84 43 54
        e 2 84 4f 4c
        e 111 94 3c 7f
        e 2 94 48 7f
        e 319 84 48 1c
        e 4 84 3c 3b
        e 9 94 4c 7f
        e 6 94 40 7f
        e 160 94 43 7f
        e 5 84 4c 4b
        e 4 94 4f 7f
        e 11 84 40 45
        e 393 84 43 40
        e 3 84 4f 4a
        e 48 94 4f 7f
        e 4 94 43 7f
        e 160 84 43 39
        e 28 84 4f 2e
        e 122 94 43 7f
        e 8 94 4f 7f
        e 88 84 43 35
        e 22 84 4f 3c
        e 39 94 4f 7f
        e 3 94 43 7f
        e 427 84 43 42
        e 9 84 4f 41
        e 52 94 43 7f
        e 4 94 4f 7f
        e 142 94 45 7f
        e 4 94 51 7f
        e 14 84 43 4d
        e 4 84 4f 41
        e 118 84 45 2c
        e 0 94 47 7f
        e 7 94 53 7f
        e 12 84 51 2e
        e 163 94 48 7f
        e 1 84 47 41
        e 4 94 54 7f
        e 8 84 53 36
        e 952 94 43 7f
        e 1 94 4f 7f
        e 1 84 54 55
        e 6 84 48 33
        e 468 94 4c 7f
        e 1 94 40 7f
        e 11 84 43 16
        e 2 84 4f 25
        e 134 84 40 13
        e 36 84 4c 27
        e 136 94 40 7f
        e 3 94 4c 7f
        e 150 94 4a 7f
        e 7 84 40 40
        e 5 94 3e 7f
        e 3 84 4c 40
        e 456 94 40 7f
        e 11 94 4c 7f
        e 4 84 3e 3f
        e 21 84 4a 43
        e 265 84 40 3a
        e 6 84 4c 45
        e 38 94 40 7f
        e 2 94 4c 7f
        e 164 94 41 7f
        e 0 94 4d 7f
        e 15 84 4c 3d
        e 14 84 40 34
        e 404 84 41 1c
        e 42 94 43 7f
        e 7 94 4f 7f
        e 10 84 4d 38
        e 160 84 43 37
        e 63 84 4f 3d
        e 72 94 4f 7f
        e 2 94 43 7f
        e 180 94 40 7f
        e 7 94 4c 7f
        e 3 84 4f 44
        e 7 84 43 1f
        e 455 84 40 35
        e 1 94 3c 7f
        e 2 84 4c 42
        e 2 94 48 7f
        e 672 84 48 01
        e 74 84 3c 36
        e 180 94 54 7f
        e 7 94 48 7f
        e 229 84 48 28
        e 45 84 54 48
        e 53 94 48 7f
        e 0 94 54 7f
        e 158 94 47 7f
        e 0 94 53 7f
        e 2 84 54 4c
        e 4 84 48 40
        e 471 94 46 7f
        e 2 94 52 7f
        e 4 84 47 21
        e 0 84 53 32
        e 269 84 46 36
        e 21 84 52 2d
        e 48 94 52 7f
        e 1 94 46 7f
        e 153 94 45 7f
        e 3 84 46 4d
        e 4 94 51 7f
        e 13 84 52 38
        e 437 94 44 7f
        e 2 94 50 7f
        e 11 84 45 22
        e 0 84 51 37
        e 283 84 44 26
        e 15 84 50 42
        e 41 94 44 7f
        e 3 94 50 7f
        e 124 84 44 20
        e 22 84 50 4a
        e 1 94 4f 7f
        e 3 94 43 7f
        e 454 84 43 4a
        e 1 94 48 7f
        e 1 94 54 7f
        e 12 84 4f 2f
        e 914 84 48 19
        e 9 84 54 3e
        e 5 94 45 7f
        e 6 94 51 7f
        e 309 94 47 7f
        e 8 94 53 7f
        e 2 84 45 2d
        e 12 84 51 38
        e 122 84 47 54
        e 2 84 53 55
        e 72 94 54 7f
        e 3 94 48 7f
        e 412 94 40 7f
        e 5 84 48 10
        e 7 94 4c 7f
        e 9 84 54 37
        e 324 94 4d 7f
        e 1 94 41 7f
        e 4 84 40 3c
        e 14 84 4c 21
        e 129 94 43 7f
        e 6 84 41 46
        e 2 94 4f 7f
        e 10 84 4d 32
        e 463 94 41 7f
        e 2 84 43 1d
        e 0 94 4d 7f
        e 4 84 4f 3a
        e 138 94 40 7f
        e 10 94 4c 7f
        e 10 84 41 2c
        e 6 84 4d 3f
        e 120 94 3e 7f
        e 7 84 40 2e
        e 3 84 4c 4b
        e 1 94 4a 7f
        e 171 94 3c 7f
        e 6 84 3e 32
        e 0 94 48 7f
        e 17 84 4a 1e
        e 1317 84 3c 40
        e 10 84 48 18
        e 137 94 40 7f
        e 1 94 4c 7f
        e 274 84 4c 34
        e 7 94 43 7f
        e 4 94 4f 7f
        e 6 84 40 40
        e 188 84 43 4d
        e 5 94 48 7f
        e 0 94 54 7f
        e 9 84 4f 3c
        e 398 84 48 44
        e 8 84 54 52
        e 37 94 54 7f
        e 1 94 48 7f
        e 275 84 48 32
        e 26 84 54 45
        e 40 94 48 7f
        e 0 94 54 7f
        e 91 84 48 3e
        e 30 84 54 48
        e 31 94 48 7f
        e 6 94 54 7f
        e 405 84 48 3c
        e 12 84 54 51
        e 46 94 54 7f
        e 1 94 48 7f
        e 303 84 54 47
        e 4 94 4a 7f
        e 1 84 48 2c
        e 0 94 56 7f
        e 160 84 56 3e
        e 8 94 58 7f
        e 1 94 4c 7f
        e 1 84 4a 4b
        e 723 94 56 7f
        e 1 94 4a 7f
        e 3 84 58 41
        e 17 84 4c 2a
        e 227 84 56 46
        e 2 94 54 7f
        e 7 94 48 7f
        e 14 84 4a 4b
        e 413 84 48 42
        e 6 84 54 53
        e 44 94 54 7f
        e 4 94 48 7f
        e 229 84 48 25
        e 14 84 54 50
        e 65 94 54 7f
        e 9 94 48 7f
        e 96 84 48 42
        e 3 84 54 52
        e 49 94 48 7f
        e 0 94 54 7f
        e 463 84 48 01
        e 8 94 40 7f
        e 3 94 4c 7f
        e 10 84 54 43
        e 316 94 45 7f
        e 3 94 51 7f
        e 8 84 40 48
        e 0 84 4c 25
        e 141 94 43 7f
        e 3 84 51 3b
        e 2 94 4f 7f
        e 1 84 45 2e
        e 443 84 43 16
        e 24 84 4f 1d
        e 31 94 41 7f
        e 3 94 4d 7f
        e 132 94 40 7f
        e 6 94 4c 7f
        e 9 84 41 37
        e 7 84 4d 2f
        e 118 94 3e 7f
        e 1 94 4a 7f
        e 3 84 40 31
        e 10 84 4c 35
        e 148 84 3e 2f
        e 3 94 3c 7f
        e 2 84 4a 3e
        e 9 94 48 7f
        e 1481 84 48 60
        e 7 84 3c 60
        E 472 b0 7b 00
        GUID {E4786EF8-547C-AB4D-B533-DE20A6C9FE32}
        IGNTEMPO 0 120 4 4
        SRCCOLOR 391
        VELLANE -1 86 6
        CFGEDITVIEW -4056 9.51049 56 22 0 0 0 0 0 0.5
        KEYSNAP 0
        TRACKSEL 226 0 0 ""
        EVTFILTER 0 -1 -1 -1 -1 0 0 0 0 -1 -1 -1 -1 0 -1 0 -1 -1
        CFGEDIT 1 0 0 0 0 0 1 0 1 1 1 0.25 557 389 1837 1120 0 0 2 3 0 0 0 0 1 -0.96 1 1 1 64
      >
    >
    <ITEM
      POSITION 0
      SNAPOFFS 0
      LENGTH 84.5
      LOOP 1
      ALLTAKES 0
      FADEIN 1 0 0 1 0 0
      FADEOUT 1 0 0 1 0 0
      MUTE 0
      SEL 0
      YPOS 0.196078 0.05
      IGUID {0F139586-C208-A74C-9D1B-E182F8F64DB6}
      IID 3
      NAME "trombone(s) - National_Anthems_-_Mexico.mid"
      VOLPAN 1 0 1 -1
      SOFFS 0 0
      PLAYRATE 1 1 0 -1 0 0.0025
      CHANMODE 0
      TAKECOLOR 26173599 B
      GUID {38208339-81AD-E64A-A92E-B538B88E92BA}
      <SOURCE MIDI
        HASDATA 1 480 QN
        POOLEDEVTS {BF4B8CE0-C2B7-A146-9F49-E784852F4A69}
        <X 0 0
          /wN0cm9tYm9uZShzKQ==
        >
        <X 0 0
          /wRTb3VuZCBDYW52YXM=
        >
        E 480 92 30 7f
        E 344 82 30 1c
        E 136 92 37 7f -29
        E 348 82 37 19 -29
        E 132 92 30 7f -27
        E 386 82 30 1b -27
        E 94 92 37 7f -22
        E 317 82 37 01 -22
        E 163 92 30 7f -46
        E 373 82 30 2d -46
        E 107 92 37 7f -40
        E 320 82 37 01 -40
        E 160 92 30 7f -35
        E 386 82 30 46 -35
        E 94 92 30 7f -28
        E 240 82 30 2b -28
        E 60 92 34 7f 27
        E 124 82 34 24 27
        E 56 92 37 7f -12
        E 335 82 37 2c -12
        E 145 92 37 7f -36
        E 420 82 37 01 -36
        E 60 92 2b 7f -29
        E 402 82 2b 18 -29
        E 78 92 2b 7f -22
        E 147 82 2b 20 -22
        E 153 92 2b 7f -10
        E 161 82 2b 31 -10
        E 19 92 30 7f -1
        E 111 82 30 47 -1
        E 129 92 30 7f -21
        E 159 82 30 0f -21
        E 81 92 34 7f -26
        E 177 82 34 2e -26
        E 63 92 37 7f -35
        E 157 82 37 01 -35
        E 83 92 3c 7f -26
        E 371 82 3c 0d -26
        E 109 92 39 7f -36
        E 414 82 39 1e -36
        E 66 92 34 7f -20
        E 411 82 34 01 -20
        E 69 92 37 7f -9
        E 377 82 37 01 -9
        E 103 92 32 7f -11
        E 415 82 32 1b -11
        E 65 92 35 7f -21
        E 327 82 35 01 -21
        E 153 92 30 7f -16
        E 418 82 30 01 -16
        E 62 92 3c 7f -7
        E 286 82 3c 09 -7
        E 194 92 36 7f -18
        E 0 92 39 7f -20
        E 510 82 36 55 -18
        E 9 82 39 4b -20
        E 441 92 37 7f
        E 307 82 37 12
        E 173 92 2b 7f
        E 379 82 2b 01
        E 101 92 37 7f -22
        E 372 82 37 01 -22
        E 108 92 2b 7f -11
        E 364 82 2b 28 -11
        E 116 92 30 7f -33
        E 424 82 30 1d -33
        E 56 92 3c 7f -14
        E 364 82 3c 1a -14
        E 116 92 37 7f -19
        E 404 82 37 01 -19
        E 76 92 34 7f -21
        E 388 82 34 04 -21
        E 92 92 30 7f -8
        E 115 82 30 36 -8
        E 185 92 30 7f -4
        E 140 82 30 48 -4
        E 40 92 34 7f -17
        E 231 82 34 2f -17
        E 69 92 37 7f -29
        E 172 82 37 35 -29
        E 8 92 3c 7f -20
        E 434 82 3c 01 -20
        E 46 92 39 7f -15
        E 469 92 34 7f
        E 2 82 39 14 -15
        E 244 82 34 40
        E 73 92 34 7f
        E 63 82 34 45
        E 90 92 34 7f
        E 108 82 34 3b
        E 142 92 34 7f
        E 121 82 34 2a
        e 128 92 39 7f -10
        e 387 82 39 1e -10
        e 93 92 38 7f -14
        e 402 82 38 01 -14
        e 78 92 37 7f -16
        e 353 82 37 01 -16
        e 127 92 2b 7f -5
        e 351 82 2b 01 -5
        e 129 92 37 7f -18
        e 399 82 37 01 -18
        e 81 92 2b 7f -8
        e 279 82 2b 01 -8
        e 201 92 34 7f
        e 0 92 37 7f
        e 160 82 37 2c
        e 2 82 34 38
        e 318 92 34 7f -36
        e 0 92 37 7f -35
        e 932 82 34 5a -36
        e 5 82 37 4a -35
        E 503 92 2f 7f
        E 455 92 3b 7f
        E 4 92 37 7f
        E 13 82 2f 43
        E 337 82 37 35
        E 13 82 3b 25
        E 109 92 2b 7f
        E 468 92 37 7f
        E 9 82 2b 4c
        E 317 82 37 3f
        E 142 92 30 7f
        E 178 82 30 08
        E 45 92 24 7f
        E 173 82 24 39
        E 61 92 28 7f
        E 150 82 28 28
        E 91 92 2b 7f
        E 112 82 2b 35
        E 145 92 30 7f
        E 290 82 30 01
        E 200 92 30 7f
        E 366 82 30 33
        E 146 92 37 7f
        E 351 82 37 01
        E 122 92 2b 7f
        E 406 82 2b 01
        E 78 92 37 7f
        E 329 82 37 22
        E 161 92 37 7f
        E 206 82 37 14
        E 119 92 2f 7f
        E 103 82 2f 32
        E 57 92 30 7f
        E 438 82 30 3f
        E 37 92 3c 7f
        E 6 92 34 7f
        E 0 92 37 7f
        E 392 82 34 0e
        E 0 82 37 26
        E 18 82 3c 44
        E 33 92 2b 7f
        E 251 82 2b 01
        E 70 92 37 7f
        E 156 82 37 23
        E 24 92 34 7f
        E 158 82 34 28
        E 146 92 30 7f
        E 136 82 30 01
        E 37 92 2f 7f
        E 482 82 2f 3d
        E 0 92 3b 7f
        E 2 92 37 7f
        E 234 82 37 01
        E 159 82 3b 2c
        E 63 92 2b 7f
        E 474 82 2b 4d
        E 3 92 3b 7f
        E 7 92 37 7f
        E 339 82 37 04
        E 60 82 3b 3d
        E 85 92 30 7f
        E 422 82 30 01
        E 54 92 3c 7f
        E 202 82 3c 03
        E 121 92 3b 7f
        E 103 82 3b 16
        E 74 92 39 7f
        E 468 92 30 7f
        E 59 82 39 01
        E 365 82 30 0f
        E 51 92 32 7f
        E 376 82 32 34
        E 91 92 32 7f
        E 398 82 32 39
        E 90 92 32 7f
        E 400 82 32 2f
        E 85 92 32 7f
        E 380 82 32 34
        E 135 92 2b 7f
        E 476 82 2b 30
        E 7 92 37 7f
        E 146 82 37 05
        E 196 92 37 7f
        E 68 82 37 48
        E 77 92 37 7f
        E 462 82 37 4e
        E 726 92 33 7f
        E 3 92 3a 7f
        E 2 92 37 7f
        E 105 82 33 21
        E 8 82 37 24
        E 5 82 3a 1c
        E 323 92 33 7f
        E 4 92 3a 7f
        E 1 92 37 7f
        E 100 82 33 37
        E 3 82 37 21
        E 4 82 3a 1c
        E 350 92 33 7f
        E 6 92 37 7f
        E 2 92 3a 7f
        E 110 82 37 25
        E 1 82 33 46
        E 3 82 3a 2d
        E 359 92 33 7f
        E 2 92 3a 7f
        E 2 92 37 7f
        E 97 82 33 37
        E 7 82 37 34
        E 1 82 3a 28
        E 398 92 33 7f
        E 7 92 3a 7f
        E 2 92 37 7f
        E 82 82 33 3a
        E 0 82 37 35
        E 4 82 3a 2a
        E 369 92 33 7f
        E 5 92 37 7f
        E 0 92 3a 7f
        E 100 82 33 3a
        E 4 82 3a 1f
        E 2 82 37 2b
        E 364 92 33 7f
        E 10 92 3a 7f
        E 2 92 37 7f
        E 108 82 33 35
        E 1 82 3a 25
        E 0 82 37 3e
        E 365 92 33 7f
        E 9 92 37 7f
        E 1 92 3a 7f
        E 99 82 37 49
        E 20 82 33 4c
        E 10 82 3a 1d
        E 600 92 3e 7f
        E 5 92 38 7f
        E 0 92 3a 7f
        E 381 82 3a 0a
        E 3 82 38 21
        E 5 82 3e 04
        E 542 92 38 7f
        E 3 92 3e 7f
        E 2 92 3a 7f
        E 430 82 38 30
        E 3 82 3e 2b
        E 8 82 3a 1f
        E 269 92 33 7f
        E 5 92 3a 7f
        E 4 92 37 7f
        E 162 82 33 4a
        E 0 82 37 3d
        E 19 82 3a 26
        E 274 92 33 7f
        E 3 92 37 7f
        E 0 92 3a 7f
        E 121 82 33 2a
        E 6 82 37 2a
        E 24 82 3a 10
        E 340 92 33 7f
        E 1 92 37 7f
        E 0 92 3a 7f
        E 142 82 33 29
        E 6 82 37 2e
        E 2 82 3a 2f
        E 342 92 33 7f
        E 3 92 3a 7f
        E 2 92 37 7f
        E 97 82 37 3f
        E 26 82 3a 25
        E 14 82 33 1c
        E 623 92 3b 7f
        E 2 92 35 7f
        E 6 92 37 7f
        E 3 92 32 7f
        E 387 82 37 2b
        E 1 82 32 35
        E 4 82 35 4c
        E 9 82 3b 2b
        E 522 92 3b 7f
        E 2 92 32 7f
        E 1 92 35 7f
        E 2 92 37 7f
        E 324 82 32 49
        E 6 82 37 2a
        E 10 82 35 43
        E 10 82 3b 21
        E 134 92 30 7f
        E 428 82 30 25
        E 49 92 37 7f
        E 381 82 37 0b
        E 94 92 30 7f
        E 480 82 30 4d
        E 483 92 2c 7f
        E 389 82 2c 01
        E 103 92 38 7f
        E 774 82 38 2a
        E 153 92 38 7f
        E 470 82 38 12
        E 18 92 37 7f
        E 427 82 37 14
        E 48 92 35 7f
        E 449 82 35 01
        E 45 92 33 7f
        E 454 82 33 07
        E 28 92 2f 7f
        E 383 82 2f 19
        E 98 92 30 7f
        E 932 82 30 3f
        E 30 92 38 7f
        E 349 82 38 20
        E 145 92 38 7f
        E 380 82 38 25
        E 100 92 37 7f
        E 352 82 37 43
        E 130 92 37 7f
        E 132 82 37 32
        E 197 92 37 7f
        E 75 82 37 38
        E 70 92 37 7f
        E 496 82 37 5e
        E 470 92 30 7f
        E 290 82 30 31
        E 193 92 37 7f
        E 214 82 37 0e
        E 235 92 30 7f
        E 345 82 30 29
        E 150 92 37 7f
        E 261 82 37 0a
        E 191 92 30 7f
        E 338 82 30 0b
        E 155 92 37 7f
        E 220 82 37 01
        E 268 92 30 7f
        E 275 82 30 39
        E 184 92 30 7f
        E 227 82 30 1e
        E 98 92 34 7f
        E 104 82 34 25
        E 62 92 37 7f
        E 335 82 37 0e
        E 144 92 37 7f
        E 285 82 37 04
        E 223 92 2b 7f
        E 219 82 2b 01
        E 268 92 2b 7f
        E 120 82 2b 2f
        E 168 92 2b 7f
        E 127 82 2b 2c
        E 42 92 30 7f
        E 126 82 30 40
        E 114 92 30 7f
        E 178 82 30 19
        E 59 92 34 7f
        E 157 82 34 37
        E 69 92 37 7f
        E 133 82 37 0c
        E 115 92 3c 7f
        E 358 82 3c 08
        E 112 92 39 7f
        E 470 82 39 01
        E 48 92 34 7f
        E 400 82 34 01
        E 67 92 37 7f
        E 463 82 37 01
        E 12 92 32 7f
        E 412 82 32 01
        E 81 92 35 7f
        E 429 82 35 01
        E 59 92 30 7f
        E 409 82 30 01
        E 46 92 3c 7f
        E 402 82 3c 01
        E 62 92 36 7f
        E 6 92 39 7f
        E 504 82 39 4e
        E 68 82 36 58
        E 390 92 37 7f
        E 304 82 37 1f
        E 160 92 37 7f
        E 324 82 37 01
        E 173 92 37 7f
        E 473 92 2b 7f
        E 10 82 37 01
        E 387 82 2b 1b
        E 64 92 30 7f
        E 439 82 30 05
        E 62 92 3c 7f
        E 421 82 3c 01
        E 61 92 37 7f
        E 424 82 37 09
        E 61 92 34 7f
        E 460 82 34 01
        E 15 92 30 7f
        E 178 82 30 01
        E 153 92 30 7f
        E 120 82 30 3f
        E 47 92 34 7f
        E 215 82 34 3f
        E 97 92 37 7f
        E 149 82 37 29
        E 24 92 3c 7f
        E 417 82 3c 01
        E 49 92 39 7f
        E 485 92 34 7f
        E 1 82 39 22
        E 260 82 34 3e
        E 73 92 34 7f
        E 73 82 34 3c
        E 68 92 34 7f
        E 93 82 34 40
        E 149 92 34 7f
        E 121 82 34 1f
        E 124 92 39 7f
        E 387 82 39 0b
        E 78 92 38 7f
        E 401 82 38 1b
        E 104 92 37 7f
        E 400 82 37 1f
        E 81 92 37 7f
        E 371 82 37 2b
        E 98 92 37 7f
        E 351 82 37 10
        E 125 92 37 7f
        E 340 82 37 01
        E 132 92 34 7f
        E 2 92 37 7f
        E 246 82 37 1f
        E 8 82 34 33
        E 222 92 34 7f
        E 1 92 37 7f
        E 1007 82 34 5c
        E 3 82 37 50
        E 459 b0 7b 00
        GUID {32B2B0E2-FC63-5F4B-A2F1-521563241AEC}
        IGNTEMPO 0 120 4 4
        SRCCOLOR 1115
        VELLANE -1 86 6
        CFGEDITVIEW -3513.372695 10.9257 50 24 0 0 0 0 0 0.5
        KEYSNAP 0
        TRACKSEL 226 0 0 ""
        EVTFILTER 0 -1 -1 -1 -1 0 0 0 0 -1 -1 -1 -1 0 -1 0 -1 -1
        CFGEDIT 1 0 0 0 0 0 1 0 1 1 1 0.25 4 46 1280 777 0 0 2 3 0 0 0 0 1 -0.96 0 1 1 64
      >
      TAKE
      NAME "trombone(s) - National_Anthems_-_Mexico.mid"
      TAKEVOLPAN 0 1 -1
      SOFFS 0 0
      PLAYRATE 1 1 0 -1 0 0.0025
      CHANMODE 0
      GUID {BBDB5F02-1522-D74F-8D53-71E2821C5988}
      <SOURCE MIDI
        HASDATA 1 480 QN
        POOLEDEVTS {C8DCBE79-7E94-5844-A71B-6531E7F378C7}
        <X 0 0
          /wN0cm9tYm9uZShzKQ==
        >
        <X 0 0
          /wRTb3VuZCBDYW52YXM=
        >
        e 480 92 30 7f
        e 344 82 30 1c
        e 107 92 37 7f
        e 348 82 37 19
        e 134 92 30 7f
        e 386 82 30 1b
        e 99 92 37 7f
        e 317 82 37 01
        e 139 92 30 7f
        e 373 82 30 2d
        e 113 92 37 7f
        e 320 82 37 01
        e 165 92 30 7f
        e 386 82 30 46
        e 101 92 30 7f
        e 240 82 30 2b
        e 115 92 34 7f
        e 124 82 34 24
        e 17 92 37 7f
        e 335 82 37 2c
        e 121 92 37 7f
        e 420 82 37 01
        e 67 92 2b 7f
        e 402 82 2b 18
        e 85 92 2b 7f
        e 147 82 2b 20
        e 165 92 2b 7f
        e 161 82 2b 31
        e 28 92 30 7f
        e 111 82 30 47
        e 109 92 30 7f
        e 159 82 30 0f
        e 76 92 34 7f
        e 177 82 34 2e
        e 54 92 37 7f
        e 157 82 37 01
        e 92 92 3c 7f
        e 371 82 3c 0d
        e 99 92 39 7f
        e 414 82 39 1e
        e 82 92 34 7f
        e 411 82 34 01
        e 80 92 37 7f
        e 377 82 37 01
        e 101 92 32 7f
        e 415 82 32 1b
        e 55 92 35 7f
        e 327 82 35 01
        e 158 92 30 7f
        e 418 82 30 01
        e 71 92 3c 7f
        e 286 82 3c 09
        e 181 92 39 7f
        e 2 92 36 7f
        e 510 82 36 55
        e 7 82 39 4b
        e 461 92 37 7f
        e 307 82 37 12
        e 173 92 2b 7f
        e 379 82 2b 01
        e 79 92 37 7f
        e 372 82 37 01
        e 119 92 2b 7f
        e 364 82 2b 28
        e 94 92 30 7f
        e 424 82 30 1d
        e 75 92 3c 7f
        e 364 82 3c 1a
        e 111 92 37 7f
        e 404 82 37 01
        e 74 92 34 7f
        e 388 82 34 04
        e 105 92 30 7f
        e 115 82 30 36
        e 189 92 30 7f
        e 140 82 30 48
        e 27 92 34 7f
        e 231 82 34 2f
        e 57 92 37 7f
        e 172 82 37 35
        e 17 92 3c 7f
        e 434 82 3c 01
        e 51 92 39 7f
        e 471 82 39 14
        e 13 92 34 7f
        e 246 82 34 40
        e 73 92 34 7f
        e 63 82 34 45
        e 90 92 34 7f
        e 108 82 34 3b
        e 142 92 34 7f
        e 121 82 34 2a
        e 118 92 39 7f
        e 387 82 39 1e
        e 89 92 38 7f
        e 402 82 38 01
        e 76 92 37 7f
        e 353 82 37 01
        e 138 92 2b 7f
        e 351 82 2b 01
        e 116 92 37 7f
        e 399 82 37 01
        e 91 92 2b 7f
        e 279 82 2b 01
        e 209 92 34 7f
        e 0 92 37 7f
        e 160 82 37 2c
        e 2 82 34 38
        e 282 92 34 7f
        e 1 92 37 7f
        e 931 82 34 5a
        e 6 82 37 4a
        e 538 92 2f 7f
        e 455 92 3b 7f
        e 4 92 37 7f
        e 13 82 2f 43
        e 337 82 37 35
        e 13 82 3b 25
        e 109 92 2b 7f
        e 468 92 37 7f
        e 9 82 2b 4c
        e 317 82 37 3f
        e 142 92 30 7f
        e 178 82 30 08
        e 45 92 24 7f
        e 173 82 24 39
        e 61 92 28 7f
        e 150 82 28 28
        e 91 92 2b 7f
        e 112 82 2b 35
        e 145 92 30 7f
        e 290 82 30 01
        e 200 92 30 7f
        e 366 82 30 33
        e 146 92 37 7f
        e 351 82 37 01
        e 122 92 2b 7f
        e 406 82 2b 01
        e 78 92 37 7f
        e 329 82 37 22
        e 161 92 37 7f
        e 206 82 37 14
        e 119 92 2f 7f
        e 103 82 2f 32
        e 57 92 30 7f
        e 438 82 30 3f
        e 37 92 3c 7f
        e 6 92 34 7f
        e 0 92 37 7f
        e 392 82 34 0e
        e 0 82 37 26
        e 18 82 3c 44
        e 33 92 2b 7f
        e 251 82 2b 01
        e 70 92 37 7f
        e 156 82 37 23
        e 24 92 34 7f
        e 158 82 34 28
        e 146 92 30 7f
        e 136 82 30 01
        e 37 92 2f 7f
        e 482 82 2f 3d
        e 0 92 3b 7f
        e 2 92 37 7f
        e 234 82 37 01
        e 159 82 3b 2c
        e 63 92 2b 7f
        e 474 82 2b 4d
        e 3 92 3b 7f
        e 7 92 37 7f
        e 339 82 37 04
        e 60 82 3b 3d
        e 85 92 30 7f
        e 422 82 30 01
        e 54 92 3c 7f
        e 202 82 3c 03
        e 121 92 3b 7f
        e 103 82 3b 16
        e 74 92 39 7f
        e 468 92 30 7f
        e 59 82 39 01
        e 365 82 30 0f
        e 51 92 32 7f
        e 376 82 32 34
        e 91 92 32 7f
        e 398 82 32 39
        e 90 92 32 7f
        e 400 82 32 2f
        e 85 92 32 7f
        e 380 82 32 34
        e 135 92 2b 7f
        e 476 82 2b 30
        e 7 92 37 7f
        e 146 82 37 05
        e 196 92 37 7f
        e 68 82 37 48
        e 77 92 37 7f
        e 462 82 37 4e
        e 726 92 33 7f
        e 3 92 3a 7f
        e 2 92 37 7f
        e 105 82 33 21
        e 8 82 37 24
        e 5 82 3a 1c
        e 323 92 33 7f
        e 4 92 3a 7f
        e 1 92 37 7f
        e 100 82 33 37
        e 3 82 37 21
        e 4 82 3a 1c
        e 350 92 33 7f
        e 6 92 37 7f
        e 2 92 3a 7f
        e 110 82 37 25
        e 1 82 33 46
        e 3 82 3a 2d
        e 359 92 33 7f
        e 2 92 3a 7f
        e 2 92 37 7f
        e 97 82 33 37
        e 7 82 37 34
        e 1 82 3a 28
        e 398 92 33 7f
        e 7 92 3a 7f
        e 2 92 37 7f
        e 82 82 33 3a
        e 0 82 37 35
        e 4 82 3a 2a
        e 369 92 33 7f
        e 5 92 37 7f
        e 0 92 3a 7f
        e 100 82 33 3a
        e 4 82 3a 1f
        e 2 82 37 2b
        e 364 92 33 7f
        e 10 92 3a 7f
        e 2 92 37 7f
        e 108 82 33 35
        e 1 82 3a 25
        e 0 82 37 3e
        e 365 92 33 7f
        e 9 92 37 7f
        e 1 92 3a 7f
        e 99 82 37 49
        e 20 82 33 4c
        e 10 82 3a 1d
        e 600 92 3e 7f
        e 5 92 38 7f
        e 0 92 3a 7f
        e 381 82 3a 0a
        e 3 82 38 21
        e 5 82 3e 04
        e 542 92 38 7f
        e 3 92 3e 7f
        e 2 92 3a 7f
        e 430 82 38 30
        e 3 82 3e 2b
        e 8 82 3a 1f
        e 269 92 33 7f
        e 5 92 3a 7f
        e 4 92 37 7f
        e 162 82 33 4a
        e 0 82 37 3d
        e 19 82 3a 26
        e 274 92 33 7f
        e 3 92 37 7f
        e 0 92 3a 7f
        e 121 82 33 2a
        e 6 82 37 2a
        e 24 82 3a 10
        e 340 92 33 7f
        e 1 92 37 7f
        e 0 92 3a 7f
        e 142 82 33 29
        e 6 82 37 2e
        e 2 82 3a 2f
        e 342 92 33 7f
        e 3 92 3a 7f
        e 2 92 37 7f
        e 97 82 37 3f
        e 26 82 3a 25
        e 14 82 33 1c
        e 623 92 3b 7f
        e 2 92 35 7f
        e 6 92 37 7f
        e 3 92 32 7f
        e 387 82 37 2b
        e 1 82 32 35
        e 4 82 35 4c
        e 9 82 3b 2b
        e 522 92 3b 7f
        e 2 92 32 7f
        e 1 92 35 7f
        e 2 92 37 7f
        e 324 82 32 49
        e 6 82 37 2a
        e 10 82 35 43
        e 10 82 3b 21
        e 134 92 30 7f
        e 428 82 30 25
        e 49 92 37 7f
        e 381 82 37 0b
        e 94 92 30 7f
        e 480 82 30 4d
        e 483 92 2c 7f
        e 389 82 2c 01
        e 103 92 38 7f
        e 774 82 38 2a
        e 153 92 38 7f
        e 470 82 38 12
        e 18 92 37 7f
        e 427 82 37 14
        e 48 92 35 7f
        e 449 82 35 01
        e 45 92 33 7f
        e 454 82 33 07
        e 28 92 2f 7f
        e 383 82 2f 19
        e 98 92 30 7f
        e 932 82 30 3f
        e 30 92 38 7f
        e 349 82 38 20
        e 145 92 38 7f
        e 380 82 38 25
        e 100 92 37 7f
        e 352 82 37 43
        e 130 92 37 7f
        e 132 82 37 32
        e 197 92 37 7f
        e 75 82 37 38
        e 70 92 37 7f
        e 496 82 37 5e
        e 470 92 30 7f
        e 290 82 30 31
        e 193 92 37 7f
        e 214 82 37 0e
        e 235 92 30 7f
        e 345 82 30 29
        e 150 92 37 7f
        e 261 82 37 0a
        e 191 92 30 7f
        e 338 82 30 0b
        e 155 92 37 7f
        e 220 82 37 01
        e 268 92 30 7f
        e 275 82 30 39
        e 184 92 30 7f
        e 227 82 30 1e
        e 98 92 34 7f
        e 104 82 34 25
        e 62 92 37 7f
        e 335 82 37 0e
        e 144 92 37 7f
        e 285 82 37 04
        e 223 92 2b 7f
        e 219 82 2b 01
        e 268 92 2b 7f
        e 120 82 2b 2f
        e 168 92 2b 7f
        e 127 82 2b 2c
        e 42 92 30 7f
        e 126 82 30 40
        e 114 92 30 7f
        e 178 82 30 19
        e 59 92 34 7f
        e 157 82 34 37
        e 69 92 37 7f
        e 133 82 37 0c
        e 115 92 3c 7f
        e 358 82 3c 08
        e 112 92 39 7f
        e 470 82 39 01
        e 48 92 34 7f
        e 400 82 34 01
        e 67 92 37 7f
        e 463 82 37 01
        e 12 92 32 7f
        e 412 82 32 01
        e 81 92 35 7f
        e 429 82 35 01
        e 59 92 30 7f
        e 409 82 30 01
        e 46 92 3c 7f
        e 402 82 3c 01
        e 62 92 36 7f
        e 6 92 39 7f
        e 504 82 39 4e
        e 68 82 36 58
        e 390 92 37 7f
        e 304 82 37 1f
        e 160 92 37 7f
        e 324 82 37 01
        e 173 92 37 7f
        e 473 92 2b 7f
        e 10 82 37 01
        e 387 82 2b 1b
        e 64 92 30 7f
        e 439 82 30 05
        e 62 92 3c 7f
        e 421 82 3c 01
        e 61 92 37 7f
        e 424 82 37 09
        e 61 92 34 7f
        e 460 82 34 01
        e 15 92 30 7f
        e 178 82 30 01
        e 153 92 30 7f
        e 120 82 30 3f
        e 47 92 34 7f
        e 215 82 34 3f
        e 97 92 37 7f
        e 149 82 37 29
        e 24 92 3c 7f
        e 417 82 3c 01
        e 49 92 39 7f
        e 485 92 34 7f
        e 1 82 39 22
        e 260 82 34 3e
        e 73 92 34 7f
        e 73 82 34 3c
        e 68 92 34 7f
        e 93 82 34 40
        e 149 92 34 7f
        e 121 82 34 1f
        e 124 92 39 7f
        e 387 82 39 0b
        e 78 92 38 7f
        e 401 82 38 1b
        e 104 92 37 7f
        e 400 82 37 1f
        e 81 92 37 7f
        e 371 82 37 2b
        e 98 92 37 7f
        e 351 82 37 10
        e 125 92 37 7f
        e 340 82 37 01
        e 132 92 34 7f
        e 2 92 37 7f
        e 246 82 37 1f
        e 8 82 34 33
        e 222 92 34 7f
        e 1 92 37 7f
        e 1007 82 34 5c
        e 3 82 37 50
        E 459 b0 7b 00
        GUID {B4BCFD73-3342-954C-BAFD-6C9A85436986}
        IGNTEMPO 0 120 4 4
        SRCCOLOR 1161
        VELLANE -1 86 6
        CFGEDITVIEW 0 0 50 24 0 0 0 0 0 0.5
        KEYSNAP 0
        TRACKSEL 226 0 0 ""
        EVTFILTER 0 -1 -1 -1 -1 0 0 0 0 -1 -1 -1 -1 0 -1 0 -1 -1
        CFGEDIT 1 0 0 0 0 0 1 0 1 1 1 0.25 134 98 1414 829 0 0 2 3 0 0 0 0 0 0.5 0 0 1 64
      >
    >
    <ITEM
      POSITION 0
      SNAPOFFS 0
      LENGTH 24
      LOOP 1
      ALLTAKES 0
      FADEIN 1 0 0 1 0 0
      FADEOUT 1 0 0 1 0 0
      MUTE 0
      SEL 0
      YPOS 0.95 0.05
      IGUID {CDC98183-8C9B-9A46-8516-1B26FBBBF43E}
      IID 1
      NAME "trumpet(s) - National_Anthems_-_Mexico.mid"
      VOLPAN 1 0 1 -1
      SOFFS 0 0
      PLAYRATE 1 1 0 -1 0 0.0025
      CHANMODE 0
      TAKECOLOR 26173599 B
      GUID {5D35D118-B87F-4D46-ABD5-E782D31B37E7}
      <SOURCE MIDI
        HASDATA 1 480 QN
        POOLEDEVTS {9F964CDC-A962-5A4D-A3D6-EBD01826145A}
        <X 0 0
          /wN0cnVtcGV0KHMp
        >
        <X 0 0
          /wRTb3VuZCBDYW52YXM=
        >
        E 0 90 3c 7f
        E 199 80 3c 3b
        E 103 90 40 7f 14
        E 68 80 40 3e 14
        E 110 90 43 7f
        E 435 80 43 4a
        E 45 90 43 7f
        E 170 80 43 28
        E 132 90 43 7f 30
        E 47 80 43 4d 30
        E 131 90 43 7f -13
        E 380 80 43 42 -13
        E 69 90 43 7f
        E 87 80 43 37
        E 50 90 45 7f
        E 71 80 45 3d
        E 82 90 47 7f
        E 82 80 47 38
        E 107 90 48 7f
        E 978 80 48 4c
        E 14 90 43 7f -17
        E 415 80 43 3a -17
        E 65 90 40 7f -25
        E 181 80 40 03 -25
        E 121 90 40 7f 13
        E 71 80 40 33 13
        E 107 90 3e 7f -14
        E 456 80 3e 01 -14
        E 24 90 40 7f -23
        E 154 80 40 1b -23
        E 148 90 40 7f -12
        E 97 80 40 34 -12
        E 81 90 41 7f -15
        E 459 80 41 29 -15
        E 21 90 43 7f -5
        E 151 80 43 2d -5
        E 151 90 43 7f -2
        E 113 80 43 38 -2
        E 65 90 40 7f -2
        E 474 80 40 46 -2
        E 6 90 3c 7f -6
        E 826 80 3c 4d -6
        E 134 90 48 7f -3
        E 140 80 48 2f -3
        E 162 90 48 7f 18
        E 91 80 48 3c 18
        E 87 90 47 7f 16
        E 480 90 46 7f -5
        E 13 80 47 37 16
        E 159 80 46 2c -5
        E 130 90 46 7f 27
        E 76 80 46 4b 27
        E 102 90 45 7f 12
        E 447 80 45 2f 12
        E 33 90 44 7f -8
        E 149 80 44 44 -8
        E 153 90 44 7f 16
        E 112 80 44 20 16
        E 66 90 43 7f 11
        E 396 80 43 1e 11
        E 84 90 48 7f 17
        E 782 80 48 14 17
        E 178 90 45 7f -25
        E 229 80 45 32 -25
        E 73 90 47 7f -12
        E 78 80 47 37 -12
        E 100 90 48 7f -29
        E 480 90 40 7f
        E 18 80 48 41 -29
        E 247 80 40 37
        E 37 90 41 7f 12
        E 93 80 41 2e 12
        E 85 90 43 7f 5
        E 423 80 43 39 5
        E 32 90 41 7f
        E 119 80 41 43
        E 32 90 40 7f
        E 104 80 40 29
        E 41 90 3e 7f
        E 118 80 3e 40
        e 91 90 3c 7f -24
        e 1211 80 3c 52 -24
        E 214 90 40 7f
        E 189 80 40 0a
        E 126 90 43 7f
        E 118 80 43 2a
        E 54 90 48 7f
        E 422 80 48 31
        E 66 90 48 7f
        E 146 80 48 33
        E 173 90 48 7f
        E 81 80 48 45
        E 83 90 48 7f
        E 389 80 48 35
        E 79 90 48 7f
        E 203 80 48 3d
        E 98 90 4a 7f
        E 85 80 4a 3f
        E 103 90 4c 7f
        E 692 90 4a 7f
        E 13 80 4c 3e
        E 190 80 4a 37
        E 48 90 48 7f
        E 417 80 48 49
        E 55 90 48 7f
        E 148 80 48 32
        E 205 90 48 7f
        E 78 80 48 41
        E 59 90 48 7f
        E 486 90 40 7f
        E 70 80 48 24
        E 123 80 40 16
        E 127 90 45 7f
        E 93 80 45 33
        E 57 90 43 7f
        E 464 90 41 7f
        E 19 80 43 38
        E 111 80 41 31
        E 28 90 40 7f
        E 109 80 40 35
        E 34 90 3e 7f
        E 91 80 3e 39
        E 80 90 3c 7f
        E 1300 80 3c 58
        E 176 90 43 7f
        E 121 80 43 26
        E 206 90 43 7f
        E 80 80 43 43
        E 73 90 43 7f
        E 401 80 43 3c
        E 79 90 43 7f
        E 227 90 4a 7f
        E 1 80 43 2c
        E 192 80 4a 34
        E 50 90 48 7f
        E 223 80 48 44
        E 5 90 47 7f
        E 146 80 47 34
        E 83 90 45 7f
        E 236 90 47 7f
        E 17 80 45 2c
        E 132 80 47 2b
        E 94 90 48 7f
        E 979 90 43 7f
        E 4 80 48 4b
        E 431 80 43 01
        E 69 90 40 7f
        E 226 80 40 09
        E 88 90 43 7f
        E 76 80 43 45
        E 88 90 43 7f
        E 344 80 43 3e
        E 9 90 41 7f
        E 55 80 41 41
        E 61 90 41 7f
        E 246 90 45 7f
        E 5 80 41 2a
        E 141 80 45 2c
        E 95 90 45 7f
        E 227 80 45 41
        E 9 90 43 7f
        E 170 80 43 1b
        E 69 90 47 7f
        E 277 80 47 2b
        E 61 90 45 7f
        E 78 80 45 3a
        E 58 90 43 7f
        E 809 80 43 2e
        E 14 90 41 7f
        E 123 80 41 2b
        E 32 90 40 7f
        E 297 80 40 3b
        E 193 90 43 7f
        E 152 80 43 36
        E 144 90 43 7f
        E 72 80 43 3f
        E 99 90 43 7f
        E 376 80 43 30
        E 81 90 43 7f
        E 178 80 43 12
        E 46 90 4a 7f
        E 178 80 4a 40
        E 77 90 48 7f
        E 241 80 48 3d
        E 7 90 47 7f
        E 162 80 47 26
        E 69 90 45 7f
        E 189 80 45 13
        E 46 90 47 7f
        E 177 80 47 20
        E 74 90 48 7f
        E 248 90 43 7f
        E 25 80 48 04
        E 127 80 43 20
        E 100 90 4c 7f
        E 896 80 4c 20
        E 54 90 4a 7f
        E 191 80 4a 30
        E 51 90 48 7f
        E 146 80 48 35
        E 78 90 47 7f
        E 247 80 47 3d
        E 6 90 48 7f
        E 107 80 48 48
        E 9 90 47 7f
        E 122 80 47 31
        E 5 90 46 7f
        E 194 80 46 37
        E 39 90 47 7f
        E 212 80 47 15
        E 41 90 4a 7f
        E 463 80 4a 39
        E 10 90 48 7f
        E 235 80 48 1d
        E 109 90 45 7f
        E 97 80 45 35
        E 55 90 43 7f
        E 948 80 43 46
        E 455 90 43 7f
        E 194 80 43 21
        E 144 90 43 7f
        E 86 80 43 46
        E 70 90 43 7f
        E 439 80 43 3f
        E 51 90 43 7f
        E 176 80 43 3b
        E 139 90 43 7f
        E 89 80 43 3e
        E 78 90 43 7f
        E 384 80 43 39
        E 87 90 43 7f
        E 191 80 43 3b
        E 131 90 44 7f
        E 141 80 44 47
        E 27 90 46 7f
        E 466 80 46 2e
        E 13 90 4b 7f
        E 927 80 4b 0d
        E 18 90 43 7f
        E 252 80 43 25
        E 85 90 46 7f
        E 61 80 46 46
        E 78 90 46 7f
        E 340 90 44 7f
        E 13 80 46 40
        E 57 80 44 45
        E 72 90 44 7f
        E 234 90 48 7f
        E 19 80 44 16
        E 127 80 48 35
        E 95 90 48 7f
        E 254 80 48 29
        E 4 90 46 7f
        E 215 80 46 35
        E 24 90 4a 7f
        E 297 80 4a 1f
        E 51 90 48 7f
        E 119 80 48 25
        E 19 90 46 7f
        E 761 90 44 7f
        E 24 80 46 44
        E 94 80 44 0e
        E 69 90 43 7f
        E 429 80 43 34
        E 73 90 43 7f
        E 155 80 43 33
        E 179 90 43 7f
        E 115 80 43 3b
        E 45 90 44 7f
        E 213 80 44 41
        E 11 90 43 7f
        E 391 80 43 3c
        E 85 90 43 7f
        E 142 80 43 36
        E 81 90 44 7f
        E 237 80 44 28
        E 20 90 43 7f
        E 415 80 43 3c
        E 64 90 43 7f
        E 182 80 43 20
        E 62 90 48 7f
        E 675 80 48 13
        E 13 90 4a 7f
        E 192 80 4a 1a
        E 50 90 4b 7f
        E 497 80 4b 46
        E 4 90 48 7f
        E 180 80 48 25
        E 159 90 48 7f
        E 76 80 48 46
        E 61 90 48 7f
        E 228 90 3f 7f
        E 31 80 48 43
        E 127 80 3f 34
        E 95 90 3f 7f
        E 143 80 3f 43
        E 86 90 3f 7f
        E 188 80 3f 33
        E 63 90 41 7f
        E 465 80 41 30
        E 1 90 3f 7f
        E 261 80 3f 23
        E 84 90 41 7f
        E 128 80 41 16
        E 26 90 43 7f
        E 473 80 43 01
        E 11 90 47 7f
        E 419 80 47 14
        E 55 90 48 7f
        E 446 80 48 2b
        E 43 90 4a 7f
        E 377 80 4a 28
        E 104 90 4b 7f
        E 225 80 4b 4b
        E 26 90 48 7f
        E 226 80 48 39
        E 9 90 47 7f
        E 220 80 47 12
        E 6 90 48 7f
        E 199 80 48 1a
        E 60 90 4a 7f
        E 472 80 4a 44
        E 4 90 48 7f
        E 173 80 48 2a
        E 161 90 48 7f
        E 132 80 48 2f
        E 12 90 43 7f
        E 1123 80 43 4e
        E 288 90 3c 7f
        E 221 80 3c 01
        E 97 90 40 7f
        E 103 80 40 36
        E 62 90 43 7f
        E 428 80 43 43
        E 62 90 43 7f
        E 222 80 43 30
        E 126 90 43 7f
        E 66 80 43 45
        E 84 90 43 7f
        E 388 80 43 45
        E 77 90 43 7f
        E 116 80 43 3a
        E 31 90 45 7f
        E 122 80 45 19
        E 21 90 47 7f
        E 130 80 47 2b
        E 49 90 48 7f
        E 954 80 48 46
        E 1 90 43 7f
        E 457 80 43 01
        E 33 90 40 7f
        E 159 80 40 0e
        E 173 90 40 7f
        E 110 80 40 35
        E 38 90 3e 7f
        E 490 90 40 7f
        E 20 80 3e 31
        E 161 80 40 12
        E 127 90 40 7f
        E 154 80 40 0d
        E 13 90 41 7f
        E 455 90 43 7f
        E 17 80 41 40
        E 147 80 43 2b
        E 175 90 43 7f
        E 134 80 43 39
        E 25 90 40 7f
        E 467 80 40 41
        E 3 90 3c 7f
        E 827 80 3c 3e
        E 150 90 48 7f
        E 136 80 48 23
        E 176 90 48 7f
        E 96 80 48 3d
        E 59 90 47 7f
        E 16 90 47 00
        E 0 90 47 7f
        E 471 80 47 3d
        E 10 90 46 7f
        E 152 80 46 19
        E 159 90 46 7f
        E 2 90 46 00
        E 0 90 46 7f
        E 74 80 46 4e
        E 82 90 45 7f
        E 458 80 45 31
        E 14 90 44 7f
        E 162 80 44 25
        E 173 90 44 7f
        E 86 80 44 2c
        E 74 90 43 7f
        E 438 80 43 01
        E 29 90 48 7f
        E 879 80 48 13
        E 55 90 45 7f
        E 293 80 45 1c
        E 28 90 47 7f
        E 105 80 47 47
        E 52 90 48 7f
        E 494 90 40 7f
        E 16 80 48 47
        E 161 80 40 21
        E 142 90 41 7f
        E 108 80 41 1c
        E 45 90 43 7f
        E 476 80 43 48
        E 8 90 41 7f
        E 132 80 41 29
        E 23 90 40 7f
        E 103 80 40 25
        E 35 90 3e 7f
        E 93 80 3e 34
        E 76 90 3c 7f
        E 1103 80 3c 4e
        E 369 90 40 7f
        E 170 80 40 14
        E 159 90 43 7f
        E 100 80 43 17
        E 62 90 48 7f
        E 441 80 48 41
        E 53 90 48 7f
        E 119 80 48 22
        E 191 90 48 7f
        E 58 80 48 3c
        E 86 90 48 7f
        E 405 80 48 42
        E 78 90 48 7f
        E 168 80 48 32
        E 145 90 4a 7f
        E 94 80 4a 37
        E 74 90 4c 7f
        E 698 80 4c 3a
        E 25 90 4a 7f
        E 187 80 4a 1d
        E 41 90 48 7f
        E 407 80 48 3e
        E 99 90 48 7f
        E 120 80 48 38
        E 209 90 48 7f
        E 70 80 48 43
        E 74 90 48 7f
        E 464 90 40 7f
        E 23 80 48 17
        E 145 80 40 0f
        E 143 90 45 7f
        E 109 80 45 2d
        E 60 90 43 7f
        E 470 80 43 48
        E 15 90 41 7f
        E 105 80 41 3c
        E 29 90 40 7f
        E 92 80 40 33
        E 56 90 3e 7f
        E 115 80 3e 2a
        E 73 90 3c 7f
        E 1478 80 3c 61
        E 470 b0 7b 00
        GUID {F7DDA6C9-CF28-1345-9DD0-8ED06181BBBE}
        IGNTEMPO 0 120 4 4
        SRCCOLOR 1116
        VELLANE -1 86 6
        CFGEDITVIEW -3513.372695 10.9257 50 24 0 0 0 0 0 0.5
        KEYSNAP 0
        TRACKSEL 226 0 0 ""
        EVTFILTER 0 -1 -1 -1 -1 0 0 0 0 -1 -1 -1 -1 0 -1 0 -1 -1
        CFGEDIT 1 0 0 0 0 0 1 0 1 1 1 0.25 4 46 1280 777 0 0 2 3 0 0 0 0 1 -0.96 0 1 1 64
      >
      TAKE
      NAME "trumpet(s) - National_Anthems_-_Mexico.mid"
      TAKEVOLPAN 0 1 -1
      SOFFS 0 0
      PLAYRATE 1 1 0 -1 0 0.0025
      CHANMODE 0
      GUID {D0E923A0-7D65-8940-8F07-46FE9E9D31FB}
      <SOURCE MIDI
        HASDATA 1 480 QN
        POOLEDEVTS {68DF6DB5-657F-EE4A-BA86-EEF8B0B03E48}
        <X 0 0
          /wN0cnVtcGV0KHMp
        >
        <X 0 0
          /wRTb3VuZCBDYW52YXM=
        >
        e 0 90 3c 7f
        e 199 80 3c 3b
        e 117 90 40 7f
        e 68 80 40 3e
        e 96 90 43 7f
        e 435 80 43 4a
        e 45 90 43 7f
        e 170 80 43 28
        e 162 90 43 7f
        e 47 80 43 4d
        e 88 90 43 7f
        e 380 80 43 42
        e 82 90 43 7f
        e 87 80 43 37
        e 50 90 45 7f
        e 71 80 45 3d
        e 82 90 47 7f
        e 82 80 47 38
        e 107 90 48 7f
        e 975 90 43 7f
        e 3 80 48 4c
        e 412 80 43 3a
        e 57 90 40 7f
        e 181 80 40 03
        e 159 90 40 7f
        e 71 80 40 33
        e 80 90 3e 7f
        e 456 80 3e 01
        e 15 90 40 7f
        e 154 80 40 1b
        e 159 90 40 7f
        e 97 80 40 34
        e 78 90 41 7f
        e 459 80 41 29
        e 31 90 43 7f
        e 151 80 43 2d
        e 154 90 43 7f
        e 113 80 43 38
        e 65 90 40 7f
        e 474 80 40 46
        e 2 90 3c 7f
        e 826 80 3c 4d
        e 137 90 48 7f
        e 140 80 48 2f
        e 183 90 48 7f
        e 91 80 48 3c
        e 85 90 47 7f
        e 459 90 46 7f
        e 34 80 47 37
        e 138 80 46 2c
        e 162 90 46 7f
        e 76 80 46 4b
        e 87 90 45 7f
        e 447 80 45 2f
        e 13 90 44 7f
        e 149 80 44 44
        e 177 90 44 7f
        e 112 80 44 20
        e 61 90 43 7f
        e 396 80 43 1e
        e 90 90 48 7f
        e 782 80 48 14
        e 136 90 45 7f
        e 229 80 45 32
        e 86 90 47 7f
        e 78 80 47 37
        e 83 90 48 7f
        e 498 80 48 41
        e 11 90 40 7f
        e 265 80 40 37
        e 49 90 41 7f
        e 93 80 41 2e
        e 78 90 43 7f
        e 423 80 43 39
        e 27 90 41 7f
        e 119 80 41 43
        e 32 90 40 7f
        e 104 80 40 29
        e 41 90 3e 7f
        e 118 80 3e 40
        e 67 90 3c 7f
        e 1211 80 3c 52
        e 238 90 40 7f
        e 189 80 40 0a
        e 126 90 43 7f
        e 118 80 43 2a
        e 54 90 48 7f
        e 422 80 48 31
        e 66 90 48 7f
        e 146 80 48 33
        e 173 90 48 7f
        e 81 80 48 45
        e 83 90 48 7f
        e 389 80 48 35
        e 79 90 48 7f
        e 203 80 48 3d
        e 98 90 4a 7f
        e 85 80 4a 3f
        e 103 90 4c 7f
        e 692 90 4a 7f
        e 13 80 4c 3e
        e 190 80 4a 37
        e 48 90 48 7f
        e 417 80 48 49
        e 55 90 48 7f
        e 148 80 48 32
        e 205 90 48 7f
        e 78 80 48 41
        e 59 90 48 7f
        e 486 90 40 7f
        e 70 80 48 24
        e 123 80 40 16
        e 127 90 45 7f
        e 93 80 45 33
        e 57 90 43 7f
        e 464 90 41 7f
        e 19 80 43 38
        e 111 80 41 31
        e 28 90 40 7f
        e 109 80 40 35
        e 34 90 3e 7f
        e 91 80 3e 39
        e 80 90 3c 7f
        e 1300 80 3c 58
        e 176 90 43 7f
        e 121 80 43 26
        e 206 90 43 7f
        e 80 80 43 43
        e 73 90 43 7f
        e 401 80 43 3c
        e 79 90 43 7f
        e 227 90 4a 7f
        e 1 80 43 2c
        e 192 80 4a 34
        e 50 90 48 7f
        e 223 80 48 44
        e 5 90 47 7f
        e 146 80 47 34
        e 83 90 45 7f
        e 236 90 47 7f
        e 17 80 45 2c
        e 132 80 47 2b
        e 94 90 48 7f
        e 979 90 43 7f
        e 4 80 48 4b
        e 431 80 43 01
        e 69 90 40 7f
        e 226 80 40 09
        e 88 90 43 7f
        e 76 80 43 45
        e 88 90 43 7f
        e 344 80 43 3e
        e 9 90 41 7f
        e 55 80 41 41
        e 61 90 41 7f
        e 246 90 45 7f
        e 5 80 41 2a
        e 141 80 45 2c
        e 95 90 45 7f
        e 227 80 45 41
        e 9 90 43 7f
        e 170 80 43 1b
        e 69 90 47 7f
        e 277 80 47 2b
        e 61 90 45 7f
        e 78 80 45 3a
        e 58 90 43 7f
        e 809 80 43 2e
        e 14 90 41 7f
        e 123 80 41 2b
        e 32 90 40 7f
        e 297 80 40 3b
        e 193 90 43 7f
        e 152 80 43 36
        e 144 90 43 7f
        e 72 80 43 3f
        e 99 90 43 7f
        e 376 80 43 30
        e 81 90 43 7f
        e 178 80 43 12
        e 46 90 4a 7f
        e 178 80 4a 40
        e 77 90 48 7f
        e 241 80 48 3d
        e 7 90 47 7f
        e 162 80 47 26
        e 69 90 45 7f
        e 189 80 45 13
        e 46 90 47 7f
        e 177 80 47 20
        e 74 90 48 7f
        e 248 90 43 7f
        e 25 80 48 04
        e 127 80 43 20
        e 100 90 4c 7f
        e 896 80 4c 20
        e 54 90 4a 7f
        e 191 80 4a 30
        e 51 90 48 7f
        e 146 80 48 35
        e 78 90 47 7f
        e 247 80 47 3d
        e 6 90 48 7f
        e 107 80 48 48
        e 9 90 47 7f
        e 122 80 47 31
        e 5 90 46 7f
        e 194 80 46 37
        e 39 90 47 7f
        e 212 80 47 15
        e 41 90 4a 7f
        e 463 80 4a 39
        e 10 90 48 7f
        e 235 80 48 1d
        e 109 90 45 7f
        e 97 80 45 35
        e 55 90 43 7f
        e 948 80 43 46
        e 455 90 43 7f
        e 194 80 43 21
        e 144 90 43 7f
        e 86 80 43 46
        e 70 90 43 7f
        e 439 80 43 3f
        e 51 90 43 7f
        e 176 80 43 3b
        e 139 90 43 7f
        e 89 80 43 3e
        e 78 90 43 7f
        e 384 80 43 39
        e 87 90 43 7f
        e 191 80 43 3b
        e 131 90 44 7f
        e 141 80 44 47
        e 27 90 46 7f
        e 466 80 46 2e
        e 13 90 4b 7f
        e 927 80 4b 0d
        e 18 90 43 7f
        e 252 80 43 25
        e 85 90 46 7f
        e 61 80 46 46
        e 78 90 46 7f
        e 340 90 44 7f
        e 13 80 46 40
        e 57 80 44 45
        e 72 90 44 7f
        e 234 90 48 7f
        e 19 80 44 16
        e 127 80 48 35
        e 95 90 48 7f
        e 254 80 48 29
        e 4 90 46 7f
        e 215 80 46 35
        e 24 90 4a 7f
        e 297 80 4a 1f
        e 51 90 48 7f
        e 119 80 48 25
        e 19 90 46 7f
        e 761 90 44 7f
        e 24 80 46 44
        e 94 80 44 0e
        e 69 90 43 7f
        e 429 80 43 34
        e 73 90 43 7f
        e 155 80 43 33
        e 179 90 43 7f
        e 115 80 43 3b
        e 45 90 44 7f
        e 213 80 44 41
        e 11 90 43 7f
        e 391 80 43 3c
        e 85 90 43 7f
        e 142 80 43 36
        e 81 90 44 7f
        e 237 80 44 28
        e 20 90 43 7f
        e 415 80 43 3c
        e 64 90 43 7f
        e 182 80 43 20
        e 62 90 48 7f
        e 675 80 48 13
        e 13 90 4a 7f
        e 192 80 4a 1a
        e 50 90 4b 7f
        e 497 80 4b 46
        e 4 90 48 7f
        e 180 80 48 25
        e 159 90 48 7f
        e 76 80 48 46
        e 61 90 48 7f
        e 228 90 3f 7f
        e 31 80 48 43
        e 127 80 3f 34
        e 95 90 3f 7f
        e 143 80 3f 43
        e 86 90 3f 7f
        e 188 80 3f 33
        e 63 90 41 7f
        e 465 80 41 30
        e 1 90 3f 7f
        e 261 80 3f 23
        e 84 90 41 7f
        e 128 80 41 16
        e 26 90 43 7f
        e 473 80 43 01
        e 11 90 47 7f
        e 419 80 47 14
        e 55 90 48 7f
        e 446 80 48 2b
        e 43 90 4a 7f
        e 377 80 4a 28
        e 104 90 4b 7f
        e 225 80 4b 4b
        e 26 90 48 7f
        e 226 80 48 39
        e 9 90 47 7f
        e 220 80 47 12
        e 6 90 48 7f
        e 199 80 48 1a
        e 60 90 4a 7f
        e 472 80 4a 44
        e 4 90 48 7f
        e 173 80 48 2a
        e 161 90 48 7f
        e 132 80 48 2f
        e 12 90 43 7f
        e 1123 80 43 4e
        e 288 90 3c 7f
        e 221 80 3c 01
        e 97 90 40 7f
        e 103 80 40 36
        e 62 90 43 7f
        e 428 80 43 43
        e 62 90 43 7f
        e 222 80 43 30
        e 126 90 43 7f
        e 66 80 43 45
        e 84 90 43 7f
        e 388 80 43 45
        e 77 90 43 7f
        e 116 80 43 3a
        e 31 90 45 7f
        e 122 80 45 19
        e 21 90 47 7f
        e 130 80 47 2b
        e 49 90 48 7f
        e 954 80 48 46
        e 1 90 43 7f
        e 457 80 43 01
        e 33 90 40 7f
        e 159 80 40 0e
        e 173 90 40 7f
        e 110 80 40 35
        e 38 90 3e 7f
        e 490 90 40 7f
        e 20 80 3e 31
        e 161 80 40 12
        e 127 90 40 7f
        e 154 80 40 0d
        e 13 90 41 7f
        e 455 90 43 7f
        e 17 80 41 40
        e 147 80 43 2b
        e 175 90 43 7f
        e 134 80 43 39
        e 25 90 40 7f
        e 467 80 40 41
        e 3 90 3c 7f
        e 827 80 3c 3e
        e 150 90 48 7f
        e 136 80 48 23
        e 176 90 48 7f
        e 96 80 48 3d
        e 59 90 47 7f
        e 16 90 47 00
        e 0 90 47 7f
        e 471 80 47 3d
        e 10 90 46 7f
        e 152 80 46 19
        e 159 90 46 7f
        e 2 90 46 00
        e 0 90 46 7f
        e 74 80 46 4e
        e 82 90 45 7f
        e 458 80 45 31
        e 14 90 44 7f
        e 162 80 44 25
        e 173 90 44 7f
        e 86 80 44 2c
        e 74 90 43 7f
        e 438 80 43 01
        e 29 90 48 7f
        e 879 80 48 13
        e 55 90 45 7f
        e 293 80 45 1c
        e 28 90 47 7f
        e 105 80 47 47
        e 52 90 48 7f
        e 494 90 40 7f
        e 16 80 48 47
        e 161 80 40 21
        e 142 90 41 7f
        e 108 80 41 1c
        e 45 90 43 7f
        e 476 80 43 48
        e 8 90 41 7f
        e 132 80 41 29
        e 23 90 40 7f
        e 103 80 40 25
        e 35 90 3e 7f
        e 93 80 3e 34
        e 76 90 3c 7f
        e 1103 80 3c 4e
        e 369 90 40 7f
        e 170 80 40 14
        e 159 90 43 7f
        e 100 80 43 17
        e 62 90 48 7f
        e 441 80 48 41
        e 53 90 48 7f
        e 119 80 48 22
        e 191 90 48 7f
        e 58 80 48 3c
        e 86 90 48 7f
        e 405 80 48 42
        e 78 90 48 7f
        e 168 80 48 32
        e 145 90 4a 7f
        e 94 80 4a 37
        e 74 90 4c 7f
        e 698 80 4c 3a
        e 25 90 4a 7f
        e 187 80 4a 1d
        e 41 90 48 7f
        e 407 80 48 3e
        e 99 90 48 7f
        e 120 80 48 38
        e 209 90 48 7f
        e 70 80 48 43
        e 74 90 48 7f
        e 464 90 40 7f
        e 23 80 48 17
        e 145 80 40 0f
        e 143 90 45 7f
        e 109 80 45 2d
        e 60 90 43 7f
        e 470 80 43 48
        e 15 90 41 7f
        e 105 80 41 3c
        e 29 90 40 7f
        e 92 80 40 33
        e 56 90 3e 7f
        e 115 80 3e 2a
        e 73 90 3c 7f
        e 1478 80 3c 61
        E 470 b0 7b 00
        GUID {A146AE4B-148F-1142-9606-B476F7E2C6E7}
        IGNTEMPO 0 120 4 4
        SRCCOLOR 1162
        VELLANE -1 86 6
        CFGEDITVIEW 0 0 50 24 0 0 0 0 0 0.5
        KEYSNAP 0
        TRACKSEL 226 0 0 ""
        EVTFILTER 0 -1 -1 -1 -1 0 0 0 0 -1 -1 -1 -1 0 -1 0 -1 -1
        CFGEDIT 1 0 0 0 0 0 1 0 1 1 1 0.25 134 98 1414 829 0 0 2 3 0 0 0 0 0 0.5 0 0 1 64
      >
    >
  >
  <TRACK {A26B8C2D-9EE6-0440-AA6B-121F89FB50DD}
    NAME "16th pulse (mix w/ send?)"
    PEAKCOL 16576
    BEAT -1
    AUTOMODE 0
    VOLPAN 0.70794578438414 0 -1 -1 1
    MUTESOLO 0 0 0
    IPHASE 0
    ISBUS 0 0
    BUSCOMP 0 0
    SHOWINMIX 1 0.6667 0.657005 1 0.5 0 0 0
    FREEMODE 0
    SEL 1
    REC 0 0 0 0 0 0 0
    VU 2
    TRACKHEIGHT 83 0
    INQ 0 0 0 0.5 100 0 0 100
    NCHAN 2
    FX 1
    TRACKID {A26B8C2D-9EE6-0440-AA6B-121F89FB50DD}
    PERF 0
    MIDIOUT -1
    MAINSEND 1 0
    <FXCHAIN
      WNDRECT 36 359 724 387
      SHOW 0
      LASTSEL 0
      DOCKED 0
      BYPASS 1 0 0
      <VST "VSTi: BlueARP.x64 (graywolf2004)" BlueARP.x64.vst 0 "" 929322872
        eFdkN+5e7f4AAAAAAgAAAAEAAAAAAAAAAgAAAAAAAACMkwAAAQAAAAAAEAA=
        dGZmcAAAAQAOAAEBAQAAAAACCP8FAAAAAAAAAAD///8QDw8PAAAAAAAAAAAAAAAA////FwAAAAAAAAAAAAAAAAAAAP///xMAAAAAAAAAAAAAAAAAAAD///8JCQoKAAAA
        AAAAAAAAAAAA////NgAAAAAAAAAAAAAAAAAAAP///z4/AAAAAAAAAAAAAAAAAAD///8hISEiAAAAAAAAAAAAAAAA////GxsAAAAAAAAAAAAAAAAAAP///wAAAAAAAAAA
        AAAAAAAAAAD///8AAAAAAAAAAAAAAAAAAAAA////AAAAAAAAAAAAAAAAAAAAAP///wAAAAAAAAAAAAAAAAAAAAD///8AAAAAAAAAAAAAAAAAAAAA////AAAAAAAAAAAA
        AAAAAAAAAP///wAAAAAAAAAAAAAAAAAAAAD///8AAAAAAAAAAAAAAAAAAAAOBCUDAQIAfwB/AEAAAQABCQAAAAABAAAAfwAAAAAAAAAAAAAAAAAAAAAAAAAAAAAAAAAA
        AAAAAAAAAAAAAAAAAAAAAAAAAAAAAAAAAAAAAAAAAAAAAAAAAAAAAAAAAAAAAAAAAAAAAAAAAAAAAAAAAAAAAAAAAAAAAAAAAAAAAAAAAAAAAAAAAAAAAAAAAAAAAAAA
        AAAAAAAICAgICAgICAgICAgICAgICAgICAgICAgICAgICAgICAgICAgICAgICAgICAgICAgICAgICAgICAgICAgICAgIAQIBAgQBAQEBAQEBAQEBAQEBAQEBAQEBAQEB
        AQEBAQEBAQEBAQEBAQEBAQEBAQEBAQEBAQEBAQEBAQEBAQEBAQQECAQQBAgEBAQIBAQECAQEBAQEBAQEBAQEBAQEBAQEBAQEBAQEBAQEBAQEBAQEBAQEBAQEBAQEBAQE
        BAQEBARgYGBgYGBgYGBgYGBgYGBgYGBgYGBgYGBgYGBgYGBgYGBgYGBgYGBgYGBgYGBgYGBgYGBgYGBgYGBgYGBgYGBgAAAAAAAAAAAAAAAAAAAAAAAAAAAAAAAAAAAA
        AAAAAAAAAAAAAAAAAAAAAAAAAAAAAAAAAAAAAAAAAAAAAAAAAAAAAAAAAAAAAAAAAAAAAAAAAAAAAAAAAAAAAAAAAAAAAAAAAAAAAAAAAAAAAAAAAAAAAAAAAAAAAAAA
        AAAAAAAtIEluaXRpYWwgcHJvZ3JhbSAtAP9/AAAEfPQEAQAAAfQAZA8BAAAAAAABADABAAAOEDIDAQcAfwB/AEAAAQABAAAAAAABAAAAfwAAAAAAAAAAAAAAAAAAAAAA
        AAAAAAAAAAAAAAAAAAAAAAAAAAAAAAAAAAAAAAAAAAAAAAAAAAAAAAAAAAAAAAAAAAAAAAAAAAAAAAAAAAAAAAAAAAAAAAAAAAAAAAAAAAAAAAAAAAAAAAAAAAAAAAAA
        AAAAAAAAAAAAAAAAAAAICAgICAgICAgICAgICAgICAgICAgICAgICAgICAgICAgICAgICAgICAgICAgICAgICAgICAgICAgICAgICAgIAQEBAQEBAQEBAQEBAQEBAQEB
        AQEBAQEBAQEBAQEBAQEBAQEBAQEBAQEBAQEBAQEBAQEBAQEBAQEBAQEBAQEBAQQIECAECBAgBAgQIAQIECAEBAQEBAQEBAQEBAQEBAQEBAQEBAQEBAQEBAQEBAQEBAQE
        BAQEBAQEBAQEBAQEBARgYGBgYGBgYGBgYGBgYGBgYGBgYGBgYGBgYGBgYGBgYGBgYGBgYGBgYGBgYGBgYGBgYGBgYGBgYGBgYGBgYGBgAAAAAAAAAAAAAAAAAAAAAAAA
        AAAAAAAAAAAAAAAAAAAAAAAAAAAAAAAAAAAAAAAAAAAAAAAAAAAAAAAAAAAAAAAAAAAAAAAAAAAAAAAAAAAAAAAAAAAAAAAAAAAAAAAAAAAAAAAAAAAAAAAAAAAAAAAA
        AAAAAAAAAAAAAAAAAABTaW1wbGUgNGsgVXAAAAAAUDm+X/9/AACwKPQEAQAAAMQ5vl//fwAA9ABkDwEAAAAOEDIDAQcAfwB/AEAAAQABAAAAAAABAAAAfwAAAAAAAAAA
        AAAAAAAAAAAAAAAAAAAAAAAAAAAAAAAAAAAAAAAAAAAAAAAAAAAAAAAAAAAAAAAAAAAAAAAAAAAAAAAAAAAAAAAAAAAAAAAAAAAAAAAAAAAAAAAAAAAAAAAAAAAAAAAA
        AAAAAAAAAAAAAAAAAAAAAAAAAAAAAAAICAgICAgICAgICAgICAgICAgICAgICAgICAgICAgICAgICAgICAgICAgICAgICAgICAgICAgICAgICAgICAgIAQEBAQEBAQEB
        AQEBAQEBAQEBAQEBAQEBAQEBAQEBAQEBAQEBAQEBAQEBAQEBAQEBAQEBAQEBAQEBAQEBAQEBASAQCAQgEAgEIBAIBCAQCAQEBAQEBAQEBAQEBAQEBAQEBAQEBAQEBAQE
        BAQEBAQEBAQEBAQEBAQEBAQEBAQEBARgYGBgYGBgYGBgYGBgYGBgYGBgYGBgYGBgYGBgYGBgYGBgYGBgYGBgYGBgYGBgYGBgYGBgYGBgYGBgYGBgYGBgAAAAAAAAAAAA
        AAAAAAAAAAAAAAAAAAAAAAAAAAAAAAAAAAAAAAAAAAAAAAAAAAAAAAAAAAAAAAAAAAAAAAAAAAAAAAAAAAAAAAAAAAAAAAAAAAAAAAAAAAAAAAAAAAAAAAAAAAAAAAAA
        AAAAAAAAAAAAAAAAAAAAAAAAAAAAAABTaW1wbGUgNGsgRG93bgAAUDm+X/9/AACwKPQEAQAAAMQ5vl//fwAA9ABkDwEAAAAOEDIDAQcAfwB/AEAAAQABAAAAAAABAAAA
        fwAAAAAAAAAAAAAAAAAAAAAAAAAAAAAAAAAAAAAAAAAAAAAAAAAAAAAAAAAAAAAAAAAAAAAAAAAAAAAAAAAAAAAAAAAAAAAAAAAAAAAAAAAAAAAAAAAAAAAAAAAAAAAA
        AAAAAAAAAAAAAAAAAAAAAAAAAAAAAAAAAAAAAAAAAAAICAgICAgICAgICAgICAgICAgICAgICAgICAgICAgICAgICAgICAgICAgICAgICAgICAgICAgICAgICAgICAgI
        AQEBAQEBAQEBAQEBAQEBAQEBAQEBAQEBAQEBAQEBAQEBAQEBAQEBAQEBAQEBAQEBAQEBAQEBAQEBAQEBAQEBAQQIEAQIEAQIEAQIEAQIEAgEBAQEBAQEBAQEBAQEBAQE
        BAQEBAQEBAQEBAQEBAQEBAQEBAQEBAQEBAQEBAQEBARgYGBgYGBgYGBgYGBgYGBgYGBgYGBgYGBgYGBgYGBgYGBgYGBgYGBgYGBgYGBgYGBgYGBgYGBgYGBgYGBgYGBg
        AAAAAAAAAAAAAAAAAAAAAAAAAAAAAAAAAAAAAAAAAAAAAAAAAAAAAAAAAAAAAAAAAAAAAAAAAAAAAAAAAAAAAAAAAAAAAAAAAAAAAAAAAAAAAAAAAAAAAAAAAAAAAAAA
        AAAAAAAAAAAAAAAAAAAAAAAAAAAAAAAAAAAAAAAAAABTaW1wbGUgM2sgVXAAAAAAUDm+X/9/AACwKPQEAQAAAMQ5vl//fwAA9ABkDwEAAAAOEDIDAQcAfwB/AEAAAQAB
        AAAAAAABAAAAfwAAAAAAAAAAAAAAAAAAAAAAAAAAAAAAAAAAAAAAAAAAAAAAAAAAAAAAAAAAAAAAAAAAAAAAAAAAAAAAAAAAAAAAAAAAAAAAAAAAAAAAAAAAAAAAAAAA
        AAAAAAAAAAAAAAAAAAAAAAAAAAAAAAAAAAAAAAAAAAAAAAAAAAAAAAAICAgICAgICAgICAgICAgICAgICAgICAgICAgICAgICAgICAgICAgICAgICAgICAgICAgICAgI
        CAgICAgICAgIAQEBAQEBAQEBAQEBAQEBAQEBAQEBAQEBAQEBAQEBAQEBAQEBAQEBAQEBAQEBAQEBAQEBAQEBAQEBAQEBAQEBARAIBBAIBBAIBBAIBBAIBAgEBAQEBAQE
        BAQEBAQEBAQEBAQEBAQEBAQEBAQEBAQEBAQEBAQEBAQEBAQEBAQEBARgYGBgYGBgYGBgYGBgYGBgYGBgYGBgYGBgYGBgYGBgYGBgYGBgYGBgYGBgYGBgYGBgYGBgYGBg
        YGBgYGBgYGBgAAAAAAAAAAAAAAAAAAAAAAAAAAAAAAAAAAAAAAAAAAAAAAAAAAAAAAAAAAAAAAAAAAAAAAAAAAAAAAAAAAAAAAAAAAAAAAAAAAAAAAAAAAAAAAAAAAAA
        AAAAAAAAAAAAAAAAAAAAAAAAAAAAAAAAAAAAAAAAAAAAAAAAAAAAAABTaW1wbGUgM2sgRG93bgAAUDm+X/9/AACwKPQEAQAAAMQ5vl//fwAA9ABkDwEAAAAOCFoDAQAA
        fwB/AEAAAQABAAAAAAABAAAAfwAAAAAAAAAAAAAAAAAAAAAAAAAAAAAAAAAAAAAAAAAAAAAAAAAAAAAAAAAAAAAAAAAAAAAAAAAAAAAAAAAAAAAAAAAAAAAAAAAAAAAA
        AAAAAAAAAAAAAAAAAAAAAAAAAAAAAAAAAAAAAAAAAAAAAAAAAAAAAAAAAAAAAAAAAAAICAQICAgECAgICAgICAgICAgICAgICAgICAgICAgICAgICAgICAgICAgICAgI
        CAgICAgICAgICAgICAgICAgIBAAEAAQABAABAQEBAQEBAQEBAQEBAQEBAQEBAQEBAQEBAQEBAQEBAQEBAQEBAQEBAQEBAQEBAQEBAQEBAQEBAQQEBAQEBAQEBAQEBAQE
        BAQEBAQEBAQEBAQEBAQEBAQEBAQEBAQEBAQEBAQEBAQEBAQEBAQEBAQEBAQEBAQEBAQwYGBgMGBgYGBgYGBgYGBgYGBgYGBgYGBgYGBgYGBgYGBgYGBgYGBgYGBgYGBg
        YGBgYGBgYGBgYGBgYGBgYGBgAAAAAAAAAAAAAAAAAAAAAAAAAAAAAAAAAAAAAAAAAAAAAAAAAAAAAAAAAAAAAAAAAAAAAAAAAAAAAAAAAAAAAAAAAAAAAAAAAAAAAAAA
        AAAAAAAAAAAAAAAAAAAAAAAAAAAAAAAAAAAAAAAAAAAAAAAAAAAAAAAAAAAAAAAAAABDaG9yZCBEZWFkbWF1NSBwbHVja3MgdmFyMQAEAQAAAMQ5vl//fwAA9ABkDwEA
        AAAOCFoDAQAAfwB/AEAAAQABAAAAAAABAAAAfwEAAAAAAAAAAAAAAAAAAAAAAAAAAAAAAAAAAAAAAAAAAAAAAAAAAAAAAAAAAAAAAAAAAAAAAAAAAAAAAAAAAAAAAAAA
        AAAAAAAAAAAAAAAAAAAAAAAAAAAAAAAAAAAAAAAAAAAAAAAAAAAAAAAAAAAAAAAAAAAAAAAAAAAAAAAMCA4IDAgOCAgICAgICAgICAgICAgICAgICAgICAgICAgICAgI
        CAgICAgICAgICAgICAgICAgICAgICAgICAgIBAAEAAQABAABAQEBAQEBAQEBAQEBAQEBAQEBAQEBAQEBAQEBAQEBAQEBAQEBAQEBAQEBAQEBAQEBAQEBAQEBAQQEBAQE
        BAQEBAQEBAQEBAQEBAQEBAQEBAQEBAQEBAQEBAQEBAQEBAQEBAQEBAQEBAQEBAQEBAQEBAQEBAQEBAQwYGBgMGBgYGBgYGBgYGBgYGBgYGBgYGBgYGBgYGBgYGBgYGBg
        YGBgYGBgYGBgYGBgYGBgYGBgYGBgYGBgYGBgAAAAAAAAAAAAAAAAAAAAAAAAAAAAAAAAAAAAAAAAAAAAAAAAAAAAAAAAAAAAAAAAAAAAAAAAAAAAAAAAAAAAAAAAAAAA
        AAAAAAAAAAAAAAAAAAAAAAAAAAAAAAAAAAAAAAAAAAAAAAAAAAAAAAAAAAAAAAAAAAAAAAAAAAAAAABDaG9yZCBEZWFkbWF1NSBwbHVja3MgdmFyMgAEAQAAAMQ5vl//
        fwAA9ABkDwEAAAAOEEoDAQAAfwB/AEAAAQABAAAAAAABAAAAfwEAAAAAAAAAAAAAAAAAAAAAAAAAAAAAAAAAAAAAAAAAAAAAAAAAAAAAAAAAAAAAAAAAAAAAAAAAAAAA
        AAAAAAAAAAAAAAAAAAAAAAAAAAAAAAAAAAAAAAAAAAAAAAAAAAAAAAAAAAAAAAAAAAAAAAAAAAAAAAAAAAAAAAAAAAAICAgMCAgICAgMCAgICAwICAgICAgICAgICAgI
        CAgICAgICAgICAgICAgICAgICAgICAgICAgICAgICAgICAgIBAAABAAABAAABAAABAAEAAEBAQEBAQEBAQEBAQEBAQEBAQEBAQEBAQEBAQEBAQEBAQEBAQEBAQEBAQEB
        AQEBAQQEBAQEBAQEBAQEBAQEBAQEBAQEBAQEBAQEBAQEBAQEBAQEBAQEBAQEBAQEBAQEBAQEBAQEBAQEBAQEBAQEBARgYGBgYGBgYGBgYGBgYGBgYGBgYGBgYGBgYGBg
        YGBgYGBgYGBgYGBgYGBgYGBgYGBgYGBgYGBgYGBgYGBgYGBgAAAAAAAAAAAAAAAAAAAAAAAAAAAAAAAAAAAAAAAAAAAAAAAAAAAAAAAAAAAAAAAAAAAAAAAAAAAAAAAA
        AAAAAAAAAAAAAAAAAAAAAAAAAAAAAAAAAAAAAAAAAAAAAAAAAAAAAAAAAAAAAAAAAAAAAAAAAAAAAAAAAAAAAAAAAABQb2x5cGhvbmljIG9jdC4gUGx1Y2tzIHZhcjEA
        AQAAAMQ5vl//fwAA9ABkDwEAAAAOEEoDAQAAfwB/AEAAAQABAAAAAAABAAAAfwEAAAAAAAAAAAAAAAAAAAAAAAAAAAAAAAAAAAAAAAAAAAAAAAAAAAAAAAAAAAAAAAAA
        AAAAAAAAAAAAAAAAAAAAAAAAAAAAAAAAAAAAAAAAAAAAAAAAAAAAAAAAAAAAAAAAAAAAAAAAAAAAAAAAAAAAAAAAAAAAAAAAAAAAAAAMCAgOCAgMCAgOCAgMCA4ICAgI
        CAgICAgICAgICAgICAgICAgICAgICAgICAgICAgICAgICAgICAgICAgICAgIBAAABAAABAAABAAABAAEAAEBAQEBAQEBAQEBAQEBAQEBAQEBAQEBAQEBAQEBAQEBAQEB
        AQEBAQEBAQEBAQEBAQQEBAQEBAQEBAQEBAQEBAQEBAQEBAQEBAQEBAQEBAQEBAQEBAQEBAQEBAQEBAQEBAQEBAQEBAQEBAQEBAQEBARgYGBgYGBgYGBgYGBgYGBgYGBg
        YGBgYGBgYGBgYGBgYGBgYGBgYGBgYGBgYGBgYGBgYGBgYGBgYGBgYGBgYGBgAAAAAAAAAAAAAAAAAAAAAAAAAAAAAAAAAAAAAAAAAAAAAAAAAAAAAAAAAAAAAAAAAAAA
        AAAAAAAAAAAAAAAAAAAAAAAAAAAAAAAAAAAAAAAAAAAAAAAAAAAAAAAAAAAAAAAAAAAAAAAAAAAAAAAAAAAAAAAAAAAAAAAAAAAAAABQb2x5cGhvbmljIG9jdC4gUGx1
        Y2tzIHZhcjIAAQAAAMQ5vl//fwAA9ABkDwEAAAAOEDQDAQAAfwB/AEAAAQABAAAAAAABAAAAfwEAAAAAAAAAAAAAAAAAAAAAAAAAAAAAAAAAAAAAAAAAAAAAAAAAAAAA
        AAAAAAAAAAAAAAAAAAAAAAAAAAAAAAAAAAAAAAAAAAAAAAAAAAAAAAAAAAAAAAAAAAAAAAAAAAAAAAAAAAAAAAAAAAAAAAAAAAAAAAAAAAAAAAAAAAAMCAgOCAgMCAgO
        CAgMCA4ICAgICAgICAgICAgICAgICAgICAgICAgICAgICAgICAgICAgICAgICAgICAgICAgIBAICBAICBAICBAICBAIEAgEBAQEBAQEBAQEBAQEBAQEBAQEBAQEBAQEB
        AQEBAQEBAQEBAQEBAQEBAQEBAQEBAQQEBAQEBAQEBAQEBAQEBAQEBAQEBAQEBAQEBAQEBAQEBAQEBAQEBAQEBAQEBAQEBAQEBAQEBAQEBAQEBAQEBARgYGBgYGBgYGBg
        YGBgYGBgYGBgYGBgYGBgYGBgYGBgYGBgYGBgYGBgYGBgYGBgYGBgYGBgYGBgYGBgYGBgYGBgAAAAAAAAAAAAAAAAAAAAAAAAAAAAAAAAAAAAAAAAAAAAAAAAAAAAAAAA
        AAAAAAAAAAAAAAAAAAAAAAAAAAAAAAAAAAAAAAAAAAAAAAAAAAAAAAAAAAAAAAAAAAAAAAAAAAAAAAAAAAAAAAAAAAAAAAAAAAAAAAAAAAAAAAAAAABQb2x5cGhvbmlj
        IG9jdC4gUGx1Y2tzIHZhcjMAAQAAAMQ5vl//fwAA9ABkDwEAAAAOEDIDAQAAfwB/AEAAAQABAAAAAAABAAAAfwAAAAAAAAAAAAAAAAAAAAAAAAAAAAAAAAAAAAAAAAAA
        AAAAAAAAAAAAAAAAAAAAAAAAAAAAAAAAAAAAAAAAAAAAAAAAAAAAAAAAAAAAAAAAAAAAAAAAAAAAAAAAAAAAAAAAAAAAAAAAAAAAAAAAAAAAAAAAAAAAAAAAAAAAAAAI
        CAgICAgICAgICAgICAgICAgICAgICAgICAgICAgICAgICAgICAgICAgICAgICAgICAgICAgICAgICAgICAgIBAQABAQABAQABAQABAAEAAEBAQEBAQEBAQEBAQEBAQEB
        AQEBAQEBAQEBAQEBAQEBAQEBAQEBAQEBAQEBAQEBAQQEBAQEBAQEBAQEBAQEBAQEBAQEBAQEBAQEBAQEBAQEBAQEBAQEBAQEBAQEBAQEBAQEBAQEBAQEBAQEBAQEBARg
        YGBgYGBgYGBgYGBgYGBgYGBgYGBgYGBgYGBgYGBgYGBgYGBgYGBgYGBgYGBgYGBgYGBgYGBgYGBgYGBgYGBgAAAAAAAAAAAAAAAAAAAAAAAAAAAAAAAAAAAAAAAAAAAA
        AAAAAAAAAAAAAAAAAAAAAAAAAAAAAAAAAAAAAAAAAAAAAAAAAAAAAAAAAAAAAAAAAAAAAAAAAAAAAAAAAAAAAAAAAAAAAAAAAAAAAAAAAAAAAAAAAAAAAAAAAAAAAABB
        cnAgQ2hvcmQgR2F0ZWQgMDEAX/9/AACwKPQEAQAAAMQ5vl//fwAA9ABkDwEAAAAOEDIDAQAAfwB/AEAAAQABAAAAAAABAAAAfwAAAAAAAAAAAAAAAAAAAAAAAAAAAAAA
        AAAAAAAAAAAAAAAAAAAAAAAAAAAAAAAAAAAAAAAAAAAAAAAAAAAAAAAAAAAAAAAAAAAAAAAAAAAAAAAAAAAAAAAAAAAAAAAAAAAAAAAAAAAAAAAAAAAAAAAAAAAAAAAA
        AAAAAAAAAAAICAgICAgICAgICAgICAgICAgICAgICAgICAgICAgICAgICAgICAgICAgICAgICAgICAgICAgICAgICAgICAgIBAAEAAQABAAEAAQAAAQABAEBAQEBAQEB
        AQEBAQEBAQEBAQEBAQEBAQEBAQEBAQEBAQEBAQEBAQEBAQEBAQEBAQQEBAQEBAQEBAQEBAQEBAQEBAQEBAQEBAQEBAQEBAQEBAQEBAQEBAQEBAQEBAQEBAQEBAQEBAQE
        BAQEBAQEBARgYGBgYGBgYGBgYGBgYGBgYGBgYGBgYGBgYGBgYGBgYGBgYGBgYGBgYGBgYGBgYGBgYGBgYGBgYGBgYGBgYGBgAAAAAAAAAAAAAAAAAAAAAAAAAAAAAAAA
        AAAAAAAAAAAAAAAAAAAAAAAAAAAAAAAAAAAAAAAAAAAAAAAAAAAAAAAAAAAAAAAAAAAAAAAAAAAAAAAAAAAAAAAAAAAAAAAAAAAAAAAAAAAAAAAAAAAAAAAAAAAAAAAA
        AAAAAAAAAABBcnAgQ2hvcmQgR2F0ZWQgMDIAX/9/AACwKPQEAQAAAMQ5vl//fwAA9ABkDwEAAAAOEDIDAQAAfwB/AEAAAQABAAAAAAABAAAAfwAAAAAAAAAAAAAAAAAA
        AAAAAAAAAAAAAAAAAAAAAAAAAAAAAAAAAAAAAAAAAAAAAAAAAAAAAAAAAAAAAAAAAAAAAAAAAAAAAAAAAAAAAAAAAAAAAAAAAAAAAAAAAAAAAAAAAAAAAAAAAAAAAAAA
        AAAAAAAAAAAAAAAAAAAAAAAICAgICAgICAgICAgICAgICAgICAgICAgICAgICAgICAgICAgICAgICAgICAgICAgICAgICAgICAgICAgICAgIBAQABAQABAQABAQABAAE
        AAEBAQEBAQEBAQEBAQEBAQEBAQEBAQEBAQEBAQEBAQEBAQEBAQEBAQEBAQEBAQEBAQQEBAQEBAQEBAQEBAQEBAQEBAQEBAQEBAQEBAQEBAQEBAQEBAQEBAQEBAQEBAQE
        BAQEBAQEBAQEBAQEBAQEBARgYGBgYGBgYGBgYGBgYGBgYGBgYGBgYGBgYGBgYGBgYGBgYGBgYGBgYGBgYGBgYGBgYGBgYGBgYGBgYGBgYGBgAAAAAAAAAAAAAAAAAAAA
        AAAAAAAAAAAAAAAAAAAAAAAAAAAAAAAAAAAAAAAAAAAAAAAAAAAAAAAAAAAAAAAAAAAAAAAAAAAAAAAAAAAAAAAAAAAAAAAAAAAAAAAAAAAAAAAAAAAAAAAAAAAAAAAA
        AAAAAAAAAAAAAAAAAAAAAABBcnAgQ2hvcmQgR2F0ZWQgMDMAX/9/AACwKPQEAQAAAMQ5vl//fwAA9ABkDwEAAAAOEDIDAQkAfwB/AUAAAQABAAAAAAABAAAAfwAAAAAA
        AAAAAAAAAAAAAAAAAAAAAAAAAAAAAAAAAAAAAAAAAAAAAAAAAAAAAAAAAAAAAAAAAAAAAAAAAAAAAAAAAAAAAAAAAAAAAAAAAAAAAAAAAAAAAAAAAAAAAAAAAAAAAAAA
        AAAAAAAAAAAAAAAAAAAAAAAAAAAAAAAAAAAICAgICAgICAgICAgICAgICAgICAgICAgICAgICAgICAgICAgICAgICAgICAgICAgICAgICAgICAgICAgICAgIAQEBAQEB
        AQEBAQEBAQEBAQEBAQEBAQEBAQEBAQEBAQEBAQEBAQEBAQEBAQEBAQEBAQEBAQEBAQEBAQEBAQEBARAIBBAIBBAIBBAEEAgEEAgEBAQEBAQEBAQEBAQEBAQEBAQEBAQE
        BAQEBAQEBAQEBAQEBAQEBAQEBAQEBAQEBARgYGBgYGBgYGBgYGBgYGBgYGBgYGBgYGBgYGBgYGBgYGBgYGBgYGBgYGBgYGBgYGBgYGBgYGBgYGBgYGBgYGBgAAAAAAAA
        AAAAAAAAAAAAAAAAAAAAAAAAAAAAAAAAAAAAAAAAAAAAAAAAAAAAAAAAAAAAAAAAAAAAAAAAAAAAAAAAAAAAAAAAAAAAAAAAAAAAAAAAAAAAAAAAAAAAAAAAAAAAAAAA
        AAAAAAAAAAAAAAAAAAAAAAAAAAAAAAAAAABBcnAgM2sgU1NhdyAwMSAoUmFtbXN0ZWluKQAEAQAAAMQ5vl//fwAA9ABkDwEAAAAOCDoDAQQAfwB/AEAAAQABAAAAAAAB
        AAAAfwAAAAAAAAAAAAAAAAAAAAAAAAAAAAAAAAAAAAAAAAAAAAAAAAAAAAAAAAAAAAAAAAAAAAAAAAAAAAAAAAAAAAAAAAAAAAAAAAAAAAAAAAAAAAAAAAAAAAAAAAAA
        AAAAAAAAAAAAAAAAAAAAAAAAAAAAAAAAAAAAAAAAAAAAAAAECAgECAgECAgICAgICAgICAgICAgICAgICAgICAgICAgICAgICAgICAgICAgICAgICAgICAgICAgICAgI
        CAgIAQABAQEBAQEAAAAAAAAAAAEBAQEBAQEBAQEBAQEBAQEBAQEBAQEBAQEBAQEBAQEBAQEBAQEBAQEBAQEBAQEBAQQEEAQECAQQBAQEBAQEBAQEBAQEBAQEBAQEBAQE
        BAQEBAQEBAQEBAQEBAQEBAQEBAQEBAQEBAQEBAQEBAQEBARgYGBgYGBgYGBgYGBgYGBgYGBgYGBgYGBgYGBgYGBgYGBgYGBgYGBgYGBgYGBgYGBgYGBgYGBgYGBgYGBg
        YGBgAAAAAAAAAAAAAAAAAAAAAAAAAAAAAAAAAAAAAAAAAAAAAAAAAAAAAAAAAAAAAAAAAAAAAAAAAAAAAAAAAAAAAAAAAAAAAAAAAAAAAAAAAAAAAAAAAAAAAAAAAAAA
        AAAAAAAAAAAAAAAAAAAAAAAAAAAAAAAAAAAAAAAAAAAAAABBcnAgM2sgU3VwZXJTYXcgMDIAX/9/AACwKPQEAQAAAMQ5vl//fwAA9ABkDwEAAAAOCDoDAQQAfwB/AEAA
        AQABAAAAAAABAAAAfwAAAAAAAAAAAAAAAAAAAAAAAAAAAAAAAAAAAAAAAAAAAAAAAAAAAAAAAAAAAAAAAAAAAAAAAAAAAAAAAAAAAAAAAAAAAAAAAAAAAAAAAAAAAAAA
        AAAAAAAAAAAAAAAAAAAAAAAAAAAAAAAAAAAAAAAAAAAAAAAAAAAAAAAAAAAECAgECAQICAgICAgICAgICAgICAgICAgICAgICAgICAgICAgICAgICAgICAgICAgICAgI
        CAgICAgICAgICAgIAQEBAQEBAQEAAAAAAAAAAAEBAQEBAQEBAQEBAQEBAQEBAQEBAQEBAQEBAQEBAQEBAQEBAQEBAQEBAQEBAQEBAQQQCAQEBAgQBAQEBAQEBAQEBAQE
        BAQEBAQEBAQEBAQEBAQEBAQEBAQEBAQEBAQEBAQEBAQEBAQEBAQEBAQEBARgYGBgYGBgYGBgYGBgYGBgYGBgYGBgYGBgYGBgYGBgYGBgYGBgYGBgYGBgYGBgYGBgYGBg
        YGBgYGBgYGBgYGBgAAAAAAAAAAAAAAAAAAAAAAAAAAAAAAAAAAAAAAAAAAAAAAAAAAAAAAAAAAAAAAAAAAAAAAAAAAAAAAAAAAAAAAAAAAAAAAAAAAAAAAAAAAAAAAAA
        AAAAAAAAAAAAAAAAAAAAAAAAAAAAAAAAAAAAAAAAAAAAAAAAAAAAAAAAAABBcnAgM2sgU3VwZXJTYXcgMDMAX/9/AACwKPQEAQAAAMQ5vl//fwAA9ABkDwEAAAAOEDoD
        AQgAfwB/AEAAAQABAAAAAAABAAAAfwAAAAAAAAAAAAAAAAAAAAAAAAAAAAAAAAAAAAAAAAAAAAAAAAAAAAAAAAAAAAAAAAAAAAAAAAAAAAAAAAAAAAAAAAAAAAAAAAAA
        AAAAAAEAAAAAAAAAAAAAAAAAAAAAAAAAAAAAAAAAAAAAAAAAAAAAAAAAAAAAAAAAAAAAAAAICAQIBAgICAgIBAgICAQICAgICAgICAgICAgICAgICAgICAgICAgICAgI
        CAgICAgICAgICAgICAgICAgICAgIAQIBAAEAAQIBAgEAAQIBAQEBAQEBAQEBAQEBAQEBAQEBAQEBAQEBAQEBAQEBAQEBAQEBAQEBAQEBAQEBAQEBAQQEBAQEBAQECAQE
        BAQEBAQEBAQEBAQEBAQEBAQEBAQEBAQEBAQEBAQEBAQEBAQEBAQEBAQEBAQEBAQEBAQEBARgYGBgYGBgYGBgYGBgYGBgYGBgYGBgYGBgYGBgYGBgYGBgYGBgYGBgYGBg
        YGBgYGBgYGBgYGBgYGBgYGBgYGBgAAAAAAAAAAAAAAAAAAAAAAAAAAAAAAAAAAAAAAAAAAAAAAAAAAAAAAAAAAAAAAAAAAAAAAAAAAAAAAAAAAAAAAAAAAAAAAAAAAAA
        AAAAAAAAAAAAAAAAAAAAAAAAAAAAAAAAAAAAAAAAAAAAAAAAAAAAAAAAAAAAAAAAAAAAAABBcnAgMmsgU3VwZXJTYXcgMDQAX/9/AACwKPQEAQAAAMQ5vl//fwAA9ABk
        DwEAAAAOEDoDAQUAfwB/AEAAAQABAAAAAAABAAAAfwAAAAAAAAAAAAAAAAAAAAAAAAAAAAAAAAAAAAAAAAAAAAAAAAAAAAAAAAAAAAAAAAAAAAAAAAAAAAAAAAAAAAAA
        AAAAAAAAAAAAAAAAAAAAAAAAAAAAAAAAAAAAAAAAAAAAAAAAAAAAAAAAAAAAAAAAAAAAAAAAAAAAAAAAAAAIBAgIBAgICAgECAgECAgECAgICAgICAgICAgICAgICAgI
        CAgICAgICAgICAgICAgICAgICAgICAgICAgICAgIAQEBAQEBAQEBAQEBAQEBAQEBAQEBAQEBAQEBAQEBAQEBAQEBAQEBAQEBAQEBAQEBAQEBAQEBAQEBAQEBAQEBAQgE
        BBAEBBAECAQEEAQEEAQEBAQEBAQEBAQEBAQEBAQEBAQEBAQEBAQEBAQEBAQEBAQEBAQEBAQEBAQEBAQEBARgYGBgYGBgYGBgYGBgYGBgYGBgYGBgYGBgYGBgYGBgYGBg
        YGBgYGBgYGBgYGBgYGBgYGBgYGBgYGBgYGBgYGBgAAAAAAAAAAAAAAAAAAAAAAAAAAAAAAAAAAAAAAAAAAAAAAAAAAAAAAAAAAAAAAAAAAAAAAAAAAAAAAAAAAAAAAAA
        AAAAAAAAAAAAAAAAAAAAAAAAAAAAAAAAAAAAAAAAAAAAAAAAAAAAAAAAAAAAAAAAAAAAAAAAAAAAAAAAAABBcnAgMmsgU3VwZXJTYXcgMDUAX/9/AACwKPQEAQAAAMQ5
        vl//fwAA9ABkDwEAAAAOBDgDAQAAfwB/AEAAAQABAAAAAAABAAAAfwAAAAAAAAAAAAAAAAAAAAAAAAAAAAAAAAAAAAAAAAAAAAAAAAAAAAAAAAAAAAAAAAAAAAAAAAAA
        AAAAAAAAAAAAAAAAAAAAAAAAAAAAAAAAAAAAAAAAAAAAAAAAAAAAAAAAAAAAAAAAAAAAAAAAAAAAAAAAAAAAAAAAAAAAAAAICAgICAgICAgICAgICAgICAgICAgICAgI
        CAgICAgICAgICAgICAgICAgICAgICAgICAgICAgICAgICAgICAgIAQEEAQEBAQEBAQEBAQEBAQEBAQEBAQEBAQEBAQEBAQEBAQEBAQEBAQEBAQEBAQEBAQEBAQEBAQEB
        AQEBAQEBAQQIBAgEBAQEBAQEBAQEBAQEBAQEBAQEBAQEBAQEBAQEBAQEBAQEBAQEBAQEBAQEBAQEBAQEBAQEBAQEBAQEBARgYGBgYGBgYGBgYGBgYGBgYGBgYGBgYGBg
        YGBgYGBgYGBgYGBgYGBgYGBgYGBgYGBgYGBgYGBgYGBgYGBgYGBgAAAAAAAAAAAAAAAAAAAAAAAAAAAAAAAAAAAAAAAAAAAAAAAAAAAAAAAAAAAAAAAAAAAAAAAAAAAA
        AAAAAAAAAAAAAAAAAAAAAAAAAAAAAAAAAAAAAAAAAAAAAAAAAAAAAAAAAAAAAAAAAAAAAAAAAAAAAAAAAAAAAAAAAAAAAABBcnAgM2sgQmVuYXNzaSBJbGx1c2lvbgCw
        KPQEAQAAAMQ5vl//fwAA9ABkDwEAAAAOEDIDAQcAfwB/AEAAAQABAAAAAAABAAAAfwAAAAAAAAAAAAAAAAAAAAAAAAAAAAAAAAAAAAAAAAAAAAAAAAAAAAAAAAAAAAAA
        AAAAAAAAAAAAAAAAAAAAAAAAAAAAAAAAAAAAAAAAAAAAAAAAAAAAAAAAAAAAAAAAAAAAAAAAAAAAAAAAAAAAAAAAAAAAAAAAAAAAAAAAAAAECAgECAgICAQICAQICAQI
        CAgICAgICAgICAgICAgICAgICAgICAgICAgICAgICAgICAgICAgICAgICAgICAgIAQEBAQEBAQEBAQEBAQEBAQEBAQEBAQEBAQEBAQEBAQEBAQEBAQEBAQEBAQEBAQEB
        AQEBAQEBAQEBAQEBAQEBAQQIEAQQCBAgBCAQBAQIBBAEBAQEBAQEBAQEBAQEBAQEBAQEBAQEBAQEBAQEBAQEBAQEBAQEBAQEBAQEBAQEBARgYGBgYGBgYGBgYGBgYGBg
        YGBgYGBgYGBgYGBgYGBgYGBgYGBgYGBgYGBgYGBgYGBgYGBgYGBgYGBgYGBgYGBgAAAAAAAAAAAAAAAAAAAAAAAAAAAAAAAAAAAAAAAAAAAAAAAAAAAAAAAAAAAAAAAA
        AAAAAAAAAAAAAAAAAAAAAAAAAAAAAAAAAAAAAAAAAAAAAAAAAAAAAAAAAAAAAAAAAAAAAAAAAAAAAAAAAAAAAAAAAAAAAAAAAAAAAAAAAABBcnAgNGsgU1NhdyAwNyAo
        WVQgSW50cm8pAPQEAQAAAMQ5vl//fwAA9ABkDwEAAAAOID0DAQcAfwB/AEAAAQABAAAAAAABAAAAfwAAAAAAAAAAAAAAAAAAAAAAAAAAAAAAAAAAAAAAAAAAAAAAAAAA
        AAAAAAAAAAAAAAAAAAAAAAAAAAAAAAAAAAAAAAAAAAAAAAAAAAAAAAAAAAAAAAAAAAAAAAAAAAAAAAAAAAAAAAAAAAAAAAAAAAAAAAAAAAAAAAAAAAAAAAAIBAgECAQI
        BAgECAQIBAgECAQIBAgECAQIBAgECAQICAgICAgICAgICAgICAgICAgICAgICAgICAgICAgICAgIAQEBAQEBAQEBAQEBAQEBAQEBAQEBAQEBAQEBAQEBAQEBAQEBAQEB
        AQEBAQEBAQEBAQEBAQEBAQEBAQEBAQEBAQQECAQQBAQECAQQBAQECAQQBAQECAQQBAQECAQQBBAIBAQEBAQEBAQEBAQEBAQEBAQEBAQEBAQEBAQEBAQEBARgYGBgYGBg
        YGBgYGBgYGBgYGBgYGBgYGBgYGBgYGBgYGBgYGBgYGBgYGBgYGBgYGBgYGBgYGBgYGBgYGBgYGBgAAAAAAAAAAAAAAAAAAAAAAAAAAAAAAAAAAAAAAAAAAAAAAAAAAAA
        AAAAAAAAAAAAAAAAAAAAAAAAAAAAAAAAAAAAAAAAAAAAAAAAAAAAAAAAAAAAAAAAAAAAAAAAAAAAAAAAAAAAAAAAAAAAAAAAAAAAAAAAAAAAAAAAAAAAAABBcnAgM2sg
        U1NhdyAwOCAoMzIgc3RlcHMpAPQEAQAAAMQ5vl//fwAA9ABkDwEAAAAOEEUDAQQAfwB/AEAAAQABAAAAAAABAAAAfwAAAAAAAAAAAAAAAAAAAAAAAAAAAAAAAAAAAAAA
        AAAAAAAAAAAAAAAAAAAAAAAAAAAAAAAAAAAAAAAAAAAAAAAAAAAAAAAAAAAAAAAAAAAAAAAAAAAAAAAAAAAAAAAAAAAAAAAAAAAAAAAAAAAAAAAAAAAAAAAAAAAAAAAA
        AAAEBAgEBAgEBAgEBAgEBAgECAgICAgICAgICAgICAgICAgICAgICAgICAgICAgICAgICAgICAgICAgICAgICAgIAQABAAEBAAEBAAEBAAEBAAEBAQEBAQEBAQEBAQEB
        AQEBAQEBAQEBAQEBAQEBAQEBAQEBAQEBAQEBAQEBAQEBAQQECAQECAQECAQECAQECAQEBAQEBAQEBAQEBAQEBAQEBAQEBAQEBAQEBAQEBAQEBAQEBAQEBAQEBAQEBAQE
        BARgYGBgYGBgYGBgYGBgYGBgYGBgYGBgYGBgYGBgYGBgYGBgYGBgYGBgYGBgYGBgYGBgYGBgYGBgYGBgYGBgYGBgAAAAAAAAAAAAAAAAAAAAAAAAAAAAAAAAAAAAAAAA
        AAAAAAAAAAAAAAAAAAAAAAAAAAAAAAAAAAAAAAAAAAAAAAAAAAAAAAAAAAAAAAAAAAAAAAAAAAAAAAAAAAAAAAAAAAAAAAAAAAAAAAAAAAAAAAAAAAAAAAAAAAAAAAAA
        AABBcnAgMmsgQ29tbXVuaWNhdGlvbiB2MQCwKPQEAQAAAMQ5vl//fwAA9ABkDwEAAAAOEDwDAQQAfwB/AEAAAQABAAAAAAABAAAAfwAAAAAAAAAAAAAAAAAAAAAAAAAA
        AAAAAAAAAAAAAAAAAAAAAAAAAAAAAAAAAAAAAAAAAAAAAAAAAAAAAAAAAAAAAAAAAAAAAAAAAAAAAAAAAAAAAAAAAAAAAAAAAAAAAAAAAAAAAAAAAAAAAAAAAAAAAAAA
        AAAAAAAAAAAAAAACBAgCBAgCBAgCBAgCBAgECAgICAgICAgICAgICAgICAgICAgICAgICAgICAgICAgICAgICAgICAgICAgICAgIAQEBAQEBAQEBAQEBAQEBAQEBAQEB
        AQEBAQEBAQEBAQEBAQEBAQEBAQEBAQEBAQEBAQEBAQEBAQEBAQEBAQEBAQQECAQECAQECAQECAQECAQEBAQEBAQEBAQEBAQEBAQEBAQEBAQEBAQEBAQEBAQEBAQEBAQE
        BAQEBAQEBAQEBARgYGBgYGBgYGBgYGBgYGBgYGBgYGBgYGBgYGBgYGBgYGBgYGBgYGBgYGBgYGBgYGBgYGBgYGBgYGBgYGBgYGBgAAAAAAAAAAAAAAAAAAAAAAAAAAAA
        AAAAAAAAAAAAAAAAAAAAAAAAAAAAAAAAAAAAAAAAAAAAAAAAAAAAAAAAAAAAAAAAAAAAAAAAAAAAAAAAAAAAAAAAAAAAAAAAAAAAAAAAAAAAAAAAAAAAAAAAAAAAAAAA
        AAAAAAAAAAAAAABBcnAgMmsgQ29tbXVuaWNhdGlvbiB2MgCwKPQEAQAAAMQ5vl//fwAA9ABkDwEAAAAOED0DAQAAfwB/AEAAAQABAAAAAAABAAAAfwAAAAAAAAAAAAAA
        AAAAAAAAAAAAAAAAAAAAAAAAAAAAAAAAAAAAAAAAAAAAAAAAAAAAAAAAAAAAAAAAAAAAAAAAAAAAAAAAAAAAAAAAAAAAAAAAAAAAAAAAAAAAAAAAAAAAAAAAAAAAAAAA
        AAAAAAAAAAAAAAAAAAAAAAAAAAAIAgQIAgQIBAgCBAgEAggECAIIAggCBAgCBAgCCAIEAggICAgICAgICAgICAgICAgICAgICAgICAgICAgICAgIAQEBAQEBAQEBAQEB
        AQEBAQEBAQEBAQEBAQEBAQEBAQEBAQEBAQEBAQEBAQEBAQEBAQEBAQEBAQEBAQEBAQEBAQgEBBAEBBAECAQEEAQEEAQIBAQQBAQQBAQEEAQEEAQEBAQEBAQEBAQEBAQE
        BAQEBAQEBAQEBAQEBAQEBAQEBARgYGBgYGBgYGBgYGBgYGBgYGBgYGBgYGBgYGBgYGBgYGBgYGBgYGBgYGBgYGBgYGBgYGBgYGBgYGBgYGBgYGBgAAAAAAAAAAAAAAAA
        AAAAAAAAAAAAAAAAAAAAAAAAAAAAAAAAAAAAAAAAAAAAAAAAAAAAAAAAAAAAAAAAAAAAAAAAAAAAAAAAAAAAAAAAAAAAAAAAAAAAAAAAAAAAAAAAAAAAAAAAAAAAAAAA
        AAAAAAAAAAAAAAAAAAAAAAAAAABBcnAgMmsgU3VwZXJTYXcgMTEgKEJlbmFzc2kpAAAAAMQ5vl//fwAA9ABkDwEAAAAOEDUDAQcAfwB/AEAAAQABAAAAAAABAAAAfwAA
        AAAAAAAAAAAAAAAAAAAAAAAAAAAAAAAAAAAAAAAAAAAAAAAAAAAAAAAAAAAAAAAAAAAAAAAAAAAAAAAAAAAAAAAAAAAAAAAAAAAAAAAAAAAAAAAAAAAAAAAAAAAAAAAA
        AAAAAAAAAAAAAAAAAAAAAAAAAAAAAAAAAAAAAAAIAggCCAIECAIECAIIAgQCCAgICAgICAgICAgICAgICAgICAgICAgICAgICAgICAgICAgICAgICAgICAgICAgIAQEB
        AQEBAQEBAQEBAQEBAQEBAQEBAQEBAQEBAQEBAQEBAQEBAQEBAQEBAQEBAQEBAQEBAQEBAQEBAQEBAQEBARAECAQIBAQQBAQIBAgEBAQEBAQEBAQEBAQEBAQEBAQEBAQE
        BAQEBAQEBAQEBAQEBAQEBAQEBAQEBAQEBAQEBARgYGBgYGBgYGBgYGBgYGBgYGBgYGBgYGBgYGBgYGBgYGBgYGBgYGBgYGBgYGBgYGBgYGBgYGBgYGBgYGBgYGBgAAAA
        AAAAAAAAAAAAAAAAAAAAAAAAAAAAAAAAAAAAAAAAAAAAAAAAAAAAAAAAAAAAAAAAAAAAAAAAAAAAAAAAAAAAAAAAAAAAAAAAAAAAAAAAAAAAAAAAAAAAAAAAAAAAAAAA
        AAAAAAAAAAAAAAAAAAAAAAAAAAAAAAAAAAAAAABBcnAgMmsgU3VwZXJTYXcgMTIAX/9/AACwKPQEAQAAAMQ5vl//fwAA9ABkDwEAAAAOEGQDAQQAfwB/AE0AAQABCQAA
        AAABAAAAfwAAAAAAAAAAAAAAAAAAAAAAAAAAAAAAAAAAAAAAAAAAAAAAAAAAAAAAAAAAAAAAAAAAAAAAAAAAAAAAAAAAAAAAAAAAAAAAAAAAAAAAAAAAAAAAAAAAAAAA
        AAAAAAAAAAAAAAAAAAAAAAAAAAAAAAAAAAAAAAAAAAAAAAAAAAAECAQECAQEBAQIBAQIBAgECAgICAgICAgICAgICAgICAgICAgICAgICAgICAgICAgICAgICAgICAgI
        CAgICAgIAQEBAQEAAQEAAQEAAQEBAQEBAQEBAQEBAQEBAQEBAQEBAQEBAQEBAQEBAQEBAQEBAQEBAQEBAQEBAQEBAQEBAQQIBCAIBBAEBAgEBAgEEAQEBAQEBAQEBAQE
        BAQEBAQEBAQEBAQEBAQEBAQEBAQEBAQEBAQEBAQEBAQEBAQEBARwUEBgUFB/YEBQYGBwYFBwYGBgYGBgYGBgYGBgYGBgYGBgYGBgYGBgYGBgYGBgYGBgYGBgYGBgYGBg
        YGBgYGBgAAAAAAAAAAAAAAAAAAAAAAAAAAAAAAAAAAAAAAAAAAAAAAAAAAAAAAAAAAAAAAAAAAAAAAAAAAAAAAAAAAAAAAAAAAAAAAAAAAAAAAAAAAAAAAAAAAAAAAAA
        AAAAAAAAAAAAAAAAAAAAAAAAAAAAAAAAAAAAAAAAAAAAAAAAAABBcnAgMmsgU3VwZXJTYXcgMTMgKHBocmVhcXVlKQAAAMQ5vl//fwAA9ABkDwEAAAAOCB8FAQEAfwB/
        AEAAAQABAAAAAAABAAAAfwAAAAAAAAAAAAAAAAAAAAAAAAAAAAAAAAAAAAAAAAAAAAAAAAAAAAAAAAAAAAAAAAAAAAAAAAAAAAAAAAAAAAAAAAAAAAAAAAAAAAAAAAAA
        AAAAAAAAAAAAAAAAAAAAAAAAAAAAAAAAAAAAAAAAAAAAAAAAAAAAAAAAAAAAAAAICAgICAgICAgICAgICAgICAgICAgICAgICAgICAgICAgICAgICAgICAgICAgICAgI
        CAgICAgICAgICAgICAgIAQEBAQEBAQEBAQEBAQEBAQEBAQEBAQEBAQEBAQEBAQEBAQEBAQEBAQEBAQEBAQEBAQEBAQEBAQEBAQEBAQEBARAECAQQBAgEBAQEBAQEBAQE
        BAQEBAQEBAQEBAQEBAQEBAQEBAQEBAQEBAQEBAQEBAQEBAQEBAQEBAQEBAQEBARgYGBQYGBgUGBgYGBgYGBgYGBgYGBgYGBgYGBgYGBgYGBgYGBgYGBgYGBgYGBgYGBg
        YGBgYGBgYGBgYGBgYGBgAAAAAAAAAAAAAAAAAAAAAAAAAAAAAAAAAAAAAAAAAAAAAAAAAAAAAAAAAAAAAAAAAAAAAAAAAAAAAAAAAAAAAAAAAAAAAAAAAAAAAAAAAAAA
        AAAAAAAAAAAAAAAAAAAAAAAAAAAAAAAAAAAAAAAAAAAAAAAAAAAAAAAAAAAAAABBcnAgM2sgQmVsbHMgMDEAUDm+X/9/AACwKPQEAQAAAMQ5vl//fwAA9ABkDwEAAAAO
        CB8FAQAAfwB/AEAAAQABAAAAAAABAAAAfwAAAAAAAAAAAAAAAAAAAAAAAAAAAAAAAAAAAAAAAAAAAAAAAAAAAAAAAAAAAAAAAAAAAAAAAAAAAAAAAAAAAAAAAAAAAAAA
        AAAAAAAAAAAAAAAAAAAAAAAAAAAAAAAAAAAAAAAAAAAAAAAAAAAAAAAAAAAAAAAAAAAAAAAAAAAICAgICAgICAgICAgICAgICAgICAgICAgICAgICAgICAgICAgICAgI
        CAgICAgICAgICAgICAgICAgICAgICAgIAQEBAQEBAQEBAQEBAQEBAQEBAQEBAQEBAQEBAQEBAQEBAQEBAQEBAQEBAQEBAQEBAQEBAQEBAQEBAQEBAQEBARAIBBAIBBAI
        BAQEBAQEBAQEBAQEBAQEBAQEBAQEBAQEBAQEBAQEBAQEBAQEBAQEBAQEBAQEBAQEBAQEBAQEBARgYGBgYGBgYGBgYGBgYGBgYGBgYGBgYGBgYGBgYGBgYGBgYGBgYGBg
        YGBgYGBgYGBgYGBgYGBgYGBgYGBgYGBgAAAAAAAAAAAAAAAAAAAAAAAAAAAAAAAAAAAAAAAAAAAAAAAAAAAAAAAAAAAAAAAAAAAAAAAAAAAAAAAAAAAAAAAAAAAAAAAA
        AAAAAAAAAAAAAAAAAAAAAAAAAAAAAAAAAAAAAAAAAAAAAAAAAAAAAAAAAAAAAAAAAAAAAAAAAABBcnAgM2sgQmVsbHMgMDIAUDm+X/9/AACwKPQEAQAAAMQ5vl//fwAA
        9ABkDwEAAAAOCE0FAQgAfwB/AE0AAQABAAAAAAABAAAAfwAAAAAAAAAAAAAAAAAAAAAAAAAAAAAAAAAAAAAAAAAAAAAAAAAAAAAAAAAAAAAAAAAAAAAAAAAAAAAAAAAA
        AAAAAAAAAAAAAAAAAAAAAAAAAAAAAAAAAAAAAAAAAAAAAAAAAAAAAAAAAAAAAAAAAAAAAAAAAAAAAAAAAAAAAAAECAgIBAgIEAgICAgICAgICAgICAgICAgICAgICAgI
        CAgICAgICAgICAgICAgICAgICAgICAgICAgICAgICAgIAQEBAQEBAQEBAQEBAQEBAQEBAQEBAQEBAQEBAQEBAQEBAQEBAQEBAQEBAQEBAQEBAQEBAQEBAQEBAQEBAQEB
        AQQECBAEBAgEBAQEBAQEBAQEBAQEBAQEBAQEBAQEBAQEBAQEBAQEBAQEBAQEBAQEBAQEBAQEBAQEBAQEBAQEBARgYGBgYGBgYGBgYGBgYGBgYGBgYGBgYGBgYGBgYGBg
        YGBgYGBgYGBgYGBgYGBgYGBgYGBgYGBgYGBgYGBgYGBgAAAAAAAAAAAAAAAAAAAAAAAAAAAAAAAAAAAAAAAAAAAAAAAAAAAAAAAAAAAAAAAAAAAAAAAAAAAAAAAAAAAA
        AAAAAAAAAAAAAAAAAAAAAAAAAAAAAAAAAAAAAAAAAAAAAAAAAAAAAAAAAAAAAAAAAAAAAAAAAAAAAAAAAAAAAABBcnAgMmsgU29mdEJlbGxzIDAxAP9/AACwKPQEAQAA
        AMQ5vl//fwAA9ABkDwEAAAAOCEIFAQgAfwB/AEAAAQABAAAAAAABAAAAfwAAAAAAAAAAAAAAAAAAAAAAAAAAAAAAAAAAAAAAAAAAAAAAAAAAAAAAAAAAAAAAAAAAAAAA
        AAAAAAAAAAAAAAAAAAAAAAAAAAAAAAAAAAAAAAAAAAAAAAAAAAAAAAAAAAAAAAAAAAAAAAAAAAAAAAAAAAAAAAAAAAAAAAAAAAAEEAgIBBAICAgICAgICAgICAgICAgI
        CAgICAgICAgICAgICAgICAgICAgICAgICAgICAgICAgICAgICAgICAgIAQEBAQEBAQEBAQEBAQEBAQEBAQEBAQEBAQEBAQEBAQEBAQEBAQEBAQEBAQEBAQEBAQEBAQEB
        AQEBAQEBAQEBAQQEBAgEBAQQBAQEBAQEBAQEBAQEBAQEBAQEBAQEBAQEBAQEBAQEBAQEBAQEBAQEBAQEBAQEBAQEBAQEBAQEBARgYGBgYGBgYGBgYGBgYGBgYGBgYGBg
        YGBgYGBgYGBgYGBgYGBgYGBgYGBgYGBgYGBgYGBgYGBgYGBgYGBgYGBgAAAAAAAAAAAAAAAAAAAAAAAAAAAAAAAAAAAAAAAAAAAAAAAAAAAAAAAAAAAAAAAAAAAAAAAA
        AAAAAAAAAAAAAAAAAAAAAAAAAAAAAAAAAAAAAAAAAAAAAAAAAAAAAAAAAAAAAAAAAAAAAAAAAAAAAAAAAAAAAAAAAAAAAAAAAABBcnAgMmsgU29mdEJlbGxzIDAyAP9/
        AACwKPQEAQAAAMQ5vl//fwAA9ABkDwEAAAAOEEgDAQAAfwB/AEAAAQABAAAAAAABAAAAfwAAAAAAAAAAAAAAAAAAAAAAAAAAAAAAAAAAAAAAAAAAAAAAAAAAAAAAAAAA
        AAAAAAAAAAAAAAAAAAAAAAAAAAAAAAAAAAAAAAAAAAAAAQAAAAAAAAAAAAAAAAAAAAAAAAAAAAAAAAAAAAAAAAAAAAAAAAAAAAAAAAAAAAAAAAAECAQECAQICAgECAgI
        BAgICAgICAgICAgICAgICAgICAgICAgICAgICAgICAgICAgICAgICAgICAgICAgICAgIAQABAAABAwABAQABAAEDAAEBAQEBAQEBAQEBAQEBAQEBAQEBAQEBAQEBAQEB
        AQEBAQEBAQEBAQEBAQEBAQEBAQQEBAQEBAQEBAQEBAQEBAQEBAQEBAQEBAQEBAQEBAQEBAQEBAQEBAQEBAQEBAQEBAQEBAQEBAQEBAQEBAQEBARgYGBgYGBgYGBgYGBg
        YGBgYGBgYGBgYGBgYGBgYGBgYGBgYGBgYGBgYGBgYGBgYGBgYGBgYGBgYGBgYGBgYGBgAAAAAAAAAAAAAAAAAAAAAAAAAAAAAAAAAAAAAAAAAAAAAAAAAAAAAAAAAAAA
        AAAAAAAAAAAAAAAAAAAAAAAAAAAAAAAAAAAAAAAAAAAAAAAAAAAAAAAAAAAAAAAAAAAAAAAAAAAAAAAAAAAAAAAAAAAAAAAAAAAAAAAAAAAAAABTZXEgMmsgQWNpZE1v
        bm8gMDEAX/9/AACwKPQEAQAAAMQ5vl//fwAA9ABkDwEAAAAOEEIDAQUAfwB/AEAAAQABAAAAAAABAAAAfwAAAAAAAAAAAAAAAAAAAAAAAAAAAAAAAAAAAAAAAAAAAAAA
        AAAAAAAAAAAAAAAAAAAAAAAAAAAAAAAAAAAAAAAAAAAAAAAHAAAAAAAAAAAAAAAAAAAAAAAAAAAAAAAAAAAAAAAAAAAAAAAAAAAAAAAAAAAAAAAAAAAAAAAAAAAECAgE
        CAgIBAgEBAgECAgECAgICAgICAgICAgICAgICAgICAgICAgICAgICAgICAgICAgICAgICAgICAgICAgIAQAAAQAAAQMAAQMAAQIBAwEBAQEBAQEBAQEBAQEBAQEBAQEB
        AQEBAQEBAQEBAQEBAQEBAQEBAQEBAQEBAQEBAQQEBAQEBAQEBAQIBAQEBAgEBAQEBAQEBAQEBAQEBAQEBAQEBAQEBAQEBAQEBAQEBAQEBAQEBAQEBAQEBAQEBARgYGBg
        YGBgYGBgYGBgYGBgYGBgYGBgYGBgYGBgYGBgYGBgYGBgYGBgYGBgYGBgYGBgYGBgYGBgYGBgYGBgYGBgAAAAAAAAAAAAAAAAAAAAAAAAAAAAAAAAAAAAAAAAAAAAAAAA
        AAAAAAAAAAAAAAAAAAAAAAAAAAAAAAAAAAAAAAAAAAAAAAAAAAAAAAAAAAAAAAAAAAAAAAAAAAAAAAAAAAAAAAAAAAAAAAAAAAAAAAAAAAAAAAAAAAAAAAAAAABTZXEg
        MmsgQWNpZE1vbm8gMDIAX/9/AACwKPQEAQAAAMQ5vl//fwAA9ABkDwEAAAAOEDoDAQAAfwB/AEAAAQABAAAAAAABAAAAfwAAAAAAAAAAAAAAAAAAAAAAAAAAAAAAAAAA
        AAAAAAAAAAAAAAAAAAAAAAAAAAAAAAAAAAAAAAAAAAAAAAAAAAAAAAAAAAAAAAAAAAAAAAAAAAAAAAAAAAAAAAAAAAAAAAAAAAAAAAAAAAAAAAAAAAAAAAAAAAAAAAAA
        AAAAAAAIBAgQBAgICAQICAgECAQICAgICAgICAgICAgICAgICAgICAgICAgICAgICAgICAgICAgICAgICAgICAgICAgIAQEBAwEBAwMBAwEDAQIBAQEBAQEBAQEBAQEB
        AQEBAQEBAQEBAQEBAQEBAQEBAQEBAQEBAQEBAQEBAQEBAQEBAQQEBAQEBAgEBAQECAQEBAgEBAQEBAQEBAQEBAQEBAQEBAQEBAQEBAQEBAQEBAQEBAQEBAQEBAQEBAQE
        BAQEBARgYGBgYGBgYGBgYGBgYGBgYGBgYGBgYGBgYGBgYGBgYGBgYGBgYGBgYGBgYGBgYGBgYGBgYGBgYGBgYGBgYGBgAAAAAAAAAAAAAAAAAAAAAAAAAAAAAAAAAAAA
        AAAAAAAAAAAAAAAAAAAAAAAAAAAAAAAAAAAAAAAAAAAAAAAAAAAAAAAAAAAAAAAAAAAAAAAAAAAAAAAAAAAAAAAAAAAAAAAAAAAAAAAAAAAAAAAAAAAAAAAAAAAAAAAA
        AAAAAABTZXEgMmsgQWNpZE1vbm8gMDMAX/9/AACwKPQEAQAAAMQ5vl//fwAA9ABkDwEAAAAOEDoDAQAAfwB/AEAAAQABAAAAAAABAAAAfwAAAAAAAAAAAAAAAAAAAAAA
        AAAAAAAAAAAAAAAAAAAAAAAAAAAAAAAAAAAAAAAAAAAAAAAAAAAAAAAAAAAAAAAAAAAAAAAAAAAAAAAAAQAAAAAAAAAAAAAAAAAAAAAAAAAAAAAAAAAAAAAAAAAAAAAA
        AAAAAAAAAAAAAAAAAAAIEAgECAgECAgIBAgECAgECAgICAgICAgICAgICAgICAgICAgICAgICAgICAgICAgICAgICAgICAgICAgICAgIAQEDAQEDAQMBAwEBAQEBAQEB
        AQEBAQEBAQEBAQEBAQEBAQEBAQEBAQEBAQEBAQEBAQEBAQEBAQEBAQEBAQEBAQQEBAQIBAQEBAgEBAQIBAQEBAQEBAQEBAQEBAQEBAQEBAQEBAQEBAQEBAQEBAQEBAQE
        BAQEBAQEBAQEBAQEBARgYGBgYGBgYGBgYGBgYGBgYGBgYGBgYGBgYGBgYGBgYGBgYGBgYGBgYGBgYGBgYGBgYGBgYGBgYGBgYGBgYGBgAAAAAAAAAAAAAAAAAAAAAAAA
        AAAAAAAAAAAAAAAAAAAAAAAAAAAAAAAAAAAAAAAAAAAAAAAAAAAAAAAAAAAAAAAAAAAAAAAAAAAAAAAAAAAAAAAAAAAAAAAAAAAAAAAAAAAAAAAAAAAAAAAAAAAAAAAA
        AAAAAAAAAAAAAAAAAABTZXEgMmsgQWNpZE1vbm8gMDQAX/9/AACwKPQEAQAAAMQ5vl//fwAA9ABkDwEAAAAOBEgDAQAAfwB/AEAAAQABAAAAAAABAAAAfwAAAAAAAAAA
        AAAAAAAAAAAAAAAAAAAAAAAAAAAAAAAAAAAAAAAAAAAAAAAAAAAAAAAAAAAAAAAAAAAAAAAAAAAAAAAAAAAAAAAAAAAAAAAAAAAAAAAAAAAAAAAAAAAAAAAAAAAAAAAA
        AAAAAAAAAAAAAAAAAAAAAAAAAAAAAAAEBAgICAgICAgICAgICAgICAgICAgICAgICAgICAgICAgICAgICAgICAgICAgICAgICAgICAgICAgICAgICAgIAQIBAQEBAQEB
        AQEBAQEBAQEBAQEBAQEBAQEBAQEBAQEBAQEBAQEBAQEBAQEBAQEBAQEBAQEBAQEBAQEBAQEBAQQEBAQEBAQEBAQEBAQEBAQEBAQEBAQEBAQEBAQEBAQEBAQEBAQEBAQE
        BAQEBAQEBAQEBAQEBAQEBAQEBAQEBARgYGBgYGBgYGBgYGBgYGBgYGBgYGBgYGBgYGBgYGBgYGBgYGBgYGBgYGBgYGBgYGBgYGBgYGBgYGBgYGBgYGBgAAAAAAAAAAAA
        AAAAAAAAAAAAAAAAAAAAAAAAAAAAAAAAAAAAAAAAAAAAAAAAAAAAAAAAAAAAAAAAAAAAAAAAAAAAAAAAAAAAAAAAAAAAAAAAAAAAAAAAAAAAAAAAAAAAAAAAAAAAAAAA
        AAAAAAAAAAAAAAAAAAAAAAAAAAAAAABCYXNzIDFrIFNpbXBsZSAwMQC+X/9/AACwKPQEAQAAAMQ5vl//fwAA9ABkDwEAAAAOBEgDAQAAfwB/AEAAAQABAAAAAAABAAAA
        fwAAAAAAAAAAAAAAAAAAAAAAAAAAAAAAAAAAAAAAAAAAAAAAAAAAAAAAAAAAAAAAAAAAAAAAAAAAAAAAAAAAAAAAAAAAAAAAAAAAAAAAAAAAAAAAAAAAAAAAAAAAAAAA
        AAAAAAAAAAAAAAAAAAAAAAAAAAAAAAAAAAAAAAAAAAAEBAgICAgICAgICAgICAgICAgICAgICAgICAgICAgICAgICAgICAgICAgICAgICAgICAgICAgICAgICAgICAgI
        AQEBAQEBAQEBAQEBAQEBAQEBAQEBAQEBAQEBAQEBAQEBAQEBAQEBAQEBAQEBAQEBAQEBAQEBAQEBAQEBAQEBAQQEBAQEBAQEBAQEBAQEBAQEBAQEBAQEBAQEBAQEBAQE
        BAQEBAQEBAQEBAQEBAQEBAQEBAQEBAQEBAQEBAQEBARgYGBgYGBgYGBgYGBgYGBgYGBgYGBgYGBgYGBgYGBgYGBgYGBgYGBgYGBgYGBgYGBgYGBgYGBgYGBgYGBgYGBg
        AAAAAAAAAAAAAAAAAAAAAAAAAAAAAAAAAAAAAAAAAAAAAAAAAAAAAAAAAAAAAAAAAAAAAAAAAAAAAAAAAAAAAAAAAAAAAAAAAAAAAAAAAAAAAAAAAAAAAAAAAAAAAAAA
        AAAAAAAAAAAAAAAAAAAAAAAAAAAAAAAAAAAAAAAAAABCYXNzIDFrIFNpbXBsZSAwMgC+X/9/AACwKPQEAQAAAMQ5vl//fwAA9ABkDwEAAAAOBEgDAQAAfwB/AEAAAQAB
        AAAAAAABAAAAfwAAAAAAAAAAAAAAAAAAAAAAAAAAAAAAAAAAAAAAAAAAAAAAAAAAAAAAAAAAAAAAAAAAAAAAAAAAAAAAAAAAAAAAAAAAAAAAAAAAAAAAAAAAAAAAAAAA
        AAAAAAAAAAAAAAAAAAAAAAAAAAAAAAAAAAAAAAAAAAAAAAAAAAAAAAAEBAgICAgICAgICAgICAgICAgICAgICAgICAgICAgICAgICAgICAgICAgICAgICAgICAgICAgI
        CAgICAgICAgIAQIBAgEBAQEBAQEBAQEBAQEBAQEBAQEBAQEBAQEBAQEBAQEBAQEBAQEBAQEBAQEBAQEBAQEBAQEBAQEBAQEBAQQEBAQEBAQEBAQEBAQEBAQEBAQEBAQE
        BAQEBAQEBAQEBAQEBAQEBAQEBAQEBAQEBAQEBAQEBAQEBAQEBAQEBARgYGBgYGBgYGBgYGBgYGBgYGBgYGBgYGBgYGBgYGBgYGBgYGBgYGBgYGBgYGBgYGBgYGBgYGBg
        YGBgYGBgYGBgAAAAAAAAAAAAAAAAAAAAAAAAAAAAAAAAAAAAAAAAAAAAAAAAAAAAAAAAAAAAAAAAAAAAAAAAAAAAAAAAAAAAAAAAAAAAAAAAAAAAAAAAAAAAAAAAAAAA
        AAAAAAAAAAAAAAAAAAAAAAAAAAAAAAAAAAAAAAAAAAAAAAAAAAAAAABCYXNzIDFrIFNpbXBsZSAwMwC+X/9/AACwKPQEAQAAAMQ5vl//fwAA9ABkDwEAAAAOBEgDAQAA
        fwB/AEAAAQABAAAAAAABAAAAfwAAAAAAAAAAAAAAAAAAAAAAAAAAAAAAAAAAAAAAAAAAAAAAAAAAAAAAAAAAAAAAAAAAAAAAAAAAAAAAAAAAAAAAAAAAAAAAAAAAAAAA
        AAAAAAAAAAAAAAAAAAAAAAAAAAAAAAAAAAAAAAAAAAAAAAAAAAAAAAAAAAAAAAAAAAAICAgICAgICAgICAgICAgICAgICAgICAgICAgICAgICAgICAgICAgICAgICAgI
        CAgICAgICAgICAgICAgICAgIAAABAAEBAQEBAQEBAQEBAQEBAQEBAQEBAQEBAQEBAQEBAQEBAQEBAQEBAQEBAQEBAQEBAQEBAQEBAQEBAQEBAQQEBAQEBAQEBAQEBAQE
        BAQEBAQEBAQEBAQEBAQEBAQEBAQEBAQEBAQEBAQEBAQEBAQEBAQEBAQEBAQEBAQEBARgYGBgYGBgYGBgYGBgYGBgYGBgYGBgYGBgYGBgYGBgYGBgYGBgYGBgYGBgYGBg
        YGBgYGBgYGBgYGBgYGBgYGBgAAAAAAAAAAAAAAAAAAAAAAAAAAAAAAAAAAAAAAAAAAAAAAAAAAAAAAAAAAAAAAAAAAAAAAAAAAAAAAAAAAAAAAAAAAAAAAAAAAAAAAAA
        AAAAAAAAAAAAAAAAAAAAAAAAAAAAAAAAAAAAAAAAAAAAAAAAAAAAAAAAAAAAAAAAAABCYXNzIDFrIFNpbXBsZSAwNAC+X/9/AACwKPQEAQAAAMQ5vl//fwAA9ABkDwEA
        AAAOCGQDAQAAfwB/AEAAAQABAAAAAAABAAAAfwAAAAAAAAAAAAAAAAAAAAAAAAAAAAAAAAAAAAAAAAAAAAAAAAAAAAAAAAAAAAAAAAAAAAAAAAAAAAAAAAAAAAAAAAAA
        AAAAAAAAAAAAAAAAAAAAAAAAAAAAAAAAAAAAAAAAAAAAAAAAAAAAAAAAAAAAAAAAAAAAAAAAAAAAAAAICAgICAgICAgICAgICAgICAgICAgICAgICAgICAgICAgICAgI
        CAgICAgICAgICAgICAgICAgICAgICAgICAgIAAAAAQAAAQIAAAABAAABAgEBAQEBAQEBAQEBAQEBAQEBAQEBAQEBAQEBAQEBAQEBAQEBAQEBAQEBAQEBAQEBAQQEBAQE
        BAQEBAQEBAQEBAQEBAQEBAQEBAQEBAQEBAQEBAQEBAQEBAQEBAQEBAQEBAQEBAQEBAQEBAQEBAQEBARgYGBgYGBgYGBgYGBgYGBgYGBgYGBgYGBgYGBgYGBgYGBgYGBg
        YGBgYGBgYGBgYGBgYGBgYGBgYGBgYGBgYGBgAAAAAAAAAAAAAAAAAAAAAAAAAAAAAAAAAAAAAAAAAAAAAAAAAAAAAAAAAAAAAAAAAAAAAAAAAAAAAAAAAAAAAAAAAAAA
        AAAAAAAAAAAAAAAAAAAAAAAAAAAAAAAAAAAAAAAAAAAAAAAAAAAAAAAAAAAAAAAAAAAAAAAAAAAAAABCYXNzIDFrIERyaWZ0IG9mZmJlYXQAAACwKPQEAQAAAMQ5vl//
        fwAA9ABkDwEAAAAOCF8DAQAAfwB/AEAAAQABAAAAAAABAAAAfwAAAAAAAAAAAAAAAAAAAAAAAAAAAAAAAAAAAAAAAAAAAAAAAAAAAAAAAAAAAAAAAAAAAAAAAAAAAAAA
        AAAAAAAAAAAAAAAAAAAAAAAAAAAAAAAAAAAAAAAAAAAAAAAAAAAAAAAAAAAAAAAAAAAAAAAAAAAAAAAAAAAAAAAAAAAICAgICAgICAgICAgICAgICAgICAgICAgICAgI
        CAgICAgICAgICAgICAgICAgICAgICAgICAgICAgICAgICAgIAAEAAQAAAQIBAQEBAQEBAQEBAQEBAQEBAQEBAQEBAQEBAQEBAQEBAQEBAQEBAQEBAQEBAQEBAQEBAQEB
        AQEBAQQEBAQEBAQEBAQEBAQEBAQEBAQEBAQEBAQEBAQEBAQEBAQEBAQEBAQEBAQEBAQEBAQEBAQEBAQEBAQEBAQEBARgYGBgYGBgYGBgYGBgYGBgQEBAQEBAQEBAQEBA
        QEBAQEBAQEBAQEBAQEBAQEBAQEBAQEBAQEBAQEBAQEBAQEBAAAAAAAAAAAAAAAAAAAAAAAAAAAAAAAAAAAAAAAAAAAAAAAAAAAAAAAAAAAAAAAAAAAAAAAAAAAAAAAAA
        AAAAAAAAAAAAAAAAAAAAAAAAAAAAAAAAAAAAAAAAAAAAAAAAAAAAAAAAAAAAAAAAAAAAAAAAAAAAAAAAAAAAAAAAAABCYXNzIDFrIFRyaXBsZSBkcmlmdCBvZmZiZWF0
        AAAAAMQ5vl//fwAA9ABkDwEAAAAOEEgDAQAAfwB/AEAAAQABAAAAAAABAAAAfwAAAAAAAAAAAAAAAAAAAAAAAAAAAAAAAAAAAAAAAAAAAAAAAAAAAAAAAAAAAAAAAAAA
        AAAAAAAAAAAAAAAAAAAAAAAAAAAAAAAAAAAAAAAAAAAAAAAAAAAAAAAAAAAAAAAAAAAAAAAAAAAAAAAAAAAAAAAAAAAAAAAAAAAAAAAICAgICAgICAgICAgICAgICAgI
        CAgICAgICAgICAgICAgICAgICAgICAgICAgICAgICAgICAgICAgICAgICAgIAQEAAQEAAQEAAQEAAQABAAEBAQEBAQEBAQEBAQEBAQEBAQEBAQEBAQEBAQEBAQEBAQEB
        AQEBAQEBAQEBAQEBAQQEBAQEBAQEBAQEBAQEBAQEBAQEBAQEBAQEBAQEBAQEBAQEBAQEBAQEBAQEBAQEBAQEBAQEBAQEBAQEBAQEBARgYGBgYGBgYGBgYGBgYGBgYGBg
        YGBgYGBgYGBgYGBgYGBgYGBgYGBgYGBgYGBgYGBgYGBgYGBgYGBgYGBgYGBgAAAAAAAAAAAAAAAAAAAAAAAAAAAAAAAAAAAAAAAAAAAAAAAAAAAAAAAAAAAAAAAAAAAA
        AAAAAAAAAAAAAAAAAAAAAAAAAAAAAAAAAAAAAAAAAAAAAAAAAAAAAAAAAAAAAAAAAAAAAAAAAAAAAAAAAAAAAAAAAAAAAAAAAAAAAABCYXNzIDFrIFRlY2hubyAwMQC+
        X/9/AACwKPQEAQAAAMQ5vl//fwAA9ABkDwEAAAAOIEgDAQAAfwB/AEAAAQABAAAAAAABAAAAfwAAAAAAAAAAAAAAAAAAAAAAAAAAAAAAAAAAAAAAAAAAAAAAAAAAAAAA
        AAAAAAAAAAAAAAAAAAAAAAAAAAAAAAAAAAAAAAAAAAAAAAAAAAAAAAAAAAAAAAAAAAAAAAAAAAAAAAAAAAAAAAAAAAAAAAAAAAAAAAAAAAAAAAAAAAAICAgICAgICAgI
        CAgICAgICAgICAgICAgICAgICAgICAgICAgICAgICAgICAgICAgICAgICAgICAgICAgICAgIAAABAAAAAQAAAAEAAAABAAAAAQAAAAEAAAABAAABAAEBAQEBAQEBAQEB
        AQEBAQEBAQEBAQEBAQEBAQEBAQEBAQQEBAQEBAQEBAQEBAQEBAQEBAQEBAQEBAQEBAQEBAQEBAQEBAQEBAQEBAQEBAQEBAQEBAQEBAQEBAQEBAQEBARgYGBgYGBgYGBg
        YGBgYGBgYGBgYGBgYGBgYGBgYGBgYGBgYGBgYGBgYGBgYGBgYGBgYGBgYGBgYGBgYGBgYGBgAAAAAAAAAAAAAAAAAAAAAAAAAAAAAAAAAAAAAAAAAAAAAAAAAAAAAAAA
        AAAAAAAAAAAAAAAAAAAAAAAAAAAAAAAAAAAAAAAAAAAAAAAAAAAAAAAAAAAAAAAAAAAAAAAAAAAAAAAAAAAAAAAAAAAAAAAAAAAAAAAAAAAAAAAAAABCYXNzIDFrIFRl
        Y2hubyAwMiAoMzIgc3RlcHMpAAAAAMQ5vl//fwAA9ABkDwEAAAAOEE8DAQQAfwB/AEAAAQABAAAAAAABAAAAfwAAAAAAAAAAAAAAAAAAAAAAAAAAAAAAAAAAAAAAAAAA
        AAAAAAAAAAAAAAAAAAAAAAAAAAAAAAAAAAAAAAAAAAAAAAAAAAAAAAAAAAAAAAAAAAAAAAAAAAAAAAAAAAAAAAAAAAAAAAAAAAAAAAAAAAAAAAAAAAAAAAAAAAAAAAAI
        CAgICAgICAgICAgICAgICAgICAgICAgICAgICAgICAgICAgICAgICAgICAgICAgICAgICAgICAgICAgICAgIAQEBAQEAAQABAAEAAQABAAEBAQEBAQEBAQEBAQEBAQEB
        AQEBAQEBAQEBAQEBAQEBAQEBAQEBAQEBAQEBAQEBAQQEBAQEBAQEBAQEBAQECAQEBAQEBAQEBAQEBAQEBAQEBAQEBAQEBAQEBAQEBAQEBAQEBAQEBAQEBAQEBAQEBARg
        YGBgYGBgYGBgYGBgYGBgYGBgYGBgYGBgYGBgYGBgYGBgYGBgYGBgYGBgYGBgYGBgYGBgYGBgYGBgYGBgYGBgAAAAAAAAAAAAAAAAAAAAAAAAAAAAAAAAAAAAAAAAAAAA
        AAAAAAAAAAAAAAAAAAAAAAAAAAAAAAAAAAAAAAAAAAAAAAAAAAAAAAAAAAAAAAAAAAAAAAAAAAAAAAAAAAAAAAAAAAAAAAAAAAAAAAAAAAAAAAAAAAAAAAAAAAAAAABC
        YXNzIDJrIFRlY2hubyAwMwC+X/9/AACwKPQEAQAAAMQ5vl//fwAA9ABkDwEAAAAOEEQDAQQAfwB/AEAAAQABAAAAAAABAAAAfwAAAAAAAAAAAAAAAAAAAAAAAAAAAAAA
        AAAAAAAAAAAAAAAAAAAAAAAAAAAAAAAAAAAAAAAAAAAAAAAAAAAAAAAAAAAAAAAAAAAAAAAAAAAAAAAAAAAAAAAAAAAAAAAAAAAAAAAAAAAAAAAAAAAAAAAAAAAAAAAA
        AAAAAAAAAAAICAgICAgICAgICBAICAgICAgICAgICAgICAgICAgICAgICAgICAgICAgICAgICAgICAgICAgICAgICAgICAgIAQABAAAAAQAAAQIBAQIAAAEBAQEBAQEB
        AQEBAQEBAQEBAQEBAQEBAQEBAQEBAQEBAQEBAQEBAQEBAQEBAQEBAQQEBAQEBAQEBAQEBAQEBAQEBAQEBAQEBAQEBAQEBAQEBAQEBAQEBAQEBAQEBAQEBAQEBAQEBAQE
        BAQEBAQEBARgYGBgYGBgYGBgYGBgYGBgYGBgYGBgYGBgYGBgYGBgYGBgYGBgYGBgYGBgYGBgYGBgYGBgYGBgYGBgYGBgYGBgAAAAAAAAAAAAAAAAAAAAAAAAAAAAAAAA
        AAAAAAAAAAAAAAAAAAAAAAAAAAAAAAAAAAAAAAAAAAAAAAAAAAAAAAAAAAAAAAAAAAAAAAAAAAAAAAAAAAAAAAAAAAAAAAAAAAAAAAAAAAAAAAAAAAAAAAAAAAAAAAAA
        AAAAAAAAAABCYXNzIDNrIENvbXBsZXggMS0xAP9/AACwKPQEAQAAAMQ5vl//fwAA9ABkDwEAAAAODEUEAQQAfwB/AEAAAQABAAAAAAABAAAAfwAAAAAAAAAAAAAAAAAA
        AAAAAAAAAAAAAAAAAAAAAAAAAAAAAAAAAAAAAAAAAAAAAAAAAAAAAAAAAAAAAAAAAAAAAAAAAAAAAAAAAAAAAAAAAAAAAAAAAAAAAAAAAAAAAAAAAAAAAAAAAAAAAAAA
        AAAAAAAAAAAAAAAAAAAAAAAICAgICAgICAgICAgICAgICAgICAgICAgICAgICAgICAgICAgICAgICAgICAgICAgICAgICAgICAgICAgICAgIAQIBAgECAQIBAgECAQEB
        AQEBAQEBAQEBAQEBAQEBAQEBAQEBAQEBAQEBAQEBAQEBAQEBAQEBAQEBAQEBAQEBAQgICAgICBAQEBAQEAQEBAQEBAQEBAQEBAQEBAQEBAQEBAQEBAQEBAQEBAQEBAQE
        BAQEBAQEBAQEBAQEBAQEBARgYGBgYGBgYGBgYGBgYGBgYGBgYGBgYGBgYGBgYGBgYGBgYGBgYGBgYGBgYGBgYGBgYGBgYGBgYGBgYGBgYGBgAAAAAAAAAAAAAAAAAAAA
        AAAAAAAAAAAAAAAAAAAAAAAAAAAAAAAAAAAAAAAAAAAAAAAAAAAAAAAAAAAAAAAAAAAAAAAAAAAAAAAAAAAAAAAAAAAAAAAAAAAAAAAAAAAAAAAAAAAAAAAAAAAAAAAA
        AAAAAAAAAAAAAAAAAAAAAABCYXNzIDNrIENvbXBsZXggMS0yAP9/AACwKPQEAQAAAMQ5vl//fwAA9ABkDwEAAAAODE0EAQQAfwB/AEAAAQABAAAAAAABAAAAfwAAAAAA
        AAAAAAAAAAAAAAAAAAAAAAAAAAAAAAAAAAAAAAAAAAAAAAAAAAAAAAAAAAAAAAAAAAAAAAAAAAAAAAAAAAAAAAAAAAAAAAAAAAAAAAAAAAAAAAAAAAAAAAAAAAAAAAAA
        AAAAAAAAAAAAAAAAAAAAAAAAAAAAAAAAAAAICAgICAgICAgICAgICAgICAgICAgICAgICAgICAgICAgICAgICAgICAgICAgICAgICAgICAgICAgICAgICAgIAQEBAQEB
        AQEBAQEBAQEBAQEBAQEBAQEBAQEBAQEBAQEBAQEBAQEBAQEBAQEBAQEBAQEBAQEBAQEBAQEBAQEBAQgICAgICBAQEBAQEAQEBAQEBAQEBAQEBAQEBAQEBAQEBAQEBAQE
        BAQEBAQEBAQEBAQEBAQEBAQEBAQEBAQEBARgYGBgYGBgYGBgYGBgYGBgYGBgYGBgYGBgYGBgYGBgYGBgYGBgYGBgYGBgYGBgYGBgYGBgYGBgYGBgYGBgYGBgAAAAAAAA
        AAAAAAAAAAAAAAAAAAAAAAAAAAAAAAAAAAAAAAAAAAAAAAAAAAAAAAAAAAAAAAAAAAAAAAAAAAAAAAAAAAAAAAAAAAAAAAAAAAAAAAAAAAAAAAAAAAAAAAAAAAAAAAAA
        AAAAAAAAAAAAAAAAAAAAAAAAAAAAAAAAAABCYXNzIDNrIENvbXBsZXggMS0zAP9/AACwKPQEAQAAAMQ5vl//fwAA9ABkDwEAAAAOCE0DAQAAfwB/AEAAAQABAAAAAAAB
        AAAAfwAAAAAAAAAAAAAAAAAAAAAAAAAAAAAAAAAAAAAAAAAAAAAAAAAAAAAAAAAAAAAAAAAAAAAAAAAAAAAAAAAAAAAAAAAAAAAAAAAAAAAAAAAAAAAAAAAAAAAAAAAA
        AAAAAAAAAAAAAAAAAAAAAAAAAAAAAAAAAAAAAAAAAAAAAAAICAgICAgICAgICAgICAgICAgICAgICAgICAgICAgICAgICAgICAgICAgICAgICAgICAgICAgICAgICAgI
        CAgIAAABAQAAAQABAQEBAQEBAQEBAQEBAQEBAQEBAQEBAQEBAQEBAQEBAQEBAQEBAQEBAQEBAQEBAQEBAQEBAQEBAQQEBAQEBAQEBAQEBAQEBAQEBAQEBAQEBAQEBAQE
        BAQEBAQEBAQEBAQEBAQEBAQEBAQEBAQEBAQEBAQEBAQEBARgYGBgYGBgYGBgYGBgYGBgYGBgYGBgYGBgYGBgYGBgYGBgYGBgYGBgYGBgYGBgYGBgYGBgYGBgYGBgYGBg
        YGBgAAAAAAAAAAAAAAAAAAAAAAAAAAAAAAAAAAAAAAAAAAAAAAAAAAAAAAAAAAAAAAAAAAAAAAAAAAAAAAAAAAAAAAAAAAAAAAAAAAAAAAAAAAAAAAAAAAAAAAAAAAAA
        AAAAAAAAAAAAAAAAAAAAAAAAAAAAAAAAAAAAAAAAAAAAAABCYXNzIDFrIFRyYW5jZSAwMQC+X/9/AACwKPQEAQAAAMQ5vl//fwAA9ABkDwEAAAAOCEMDAQAAfwB/AEAA
        AQABAAAAAAABAAAAfwAAAAAAAAAAAAAAAAAAAAAAAAAAAAAAAAAAAAAAAAAAAAAAAAAAAAAAAAAAAAAAAAAAAAAAAAAAAAAAAAAAAAAAAAAAAAAAAAAAAAAAAAAAAAAA
        AAAAAAAAAAAAAAAAAAAAAAAAAAAAAAAAAAAAAAAAAAAAAAAAAAAAAAAAAAAIEAgQCAgQCAgICAgICAgICAgICAgICAgICAgICAgICAgICAgICAgICAgICAgICAgICAgI
        CAgICAgICAgICAgIAAEBAQABAQEBAQEBAQEBAQEBAQEBAQEBAQEBAQEBAQEBAQEBAQEBAQEBAQEBAQEBAQEBAQEBAQEBAQEBAQEBAQQEBAQEBAQEBAQEBAQEBAQEBAQE
        BAQEBAQEBAQEBAQEBAQEBAQEBAQEBAQEBAQEBAQEBAQEBAQEBAQEBAQEBARgYGBgYGBgYGBgYGBgYGBgYGBgYGBgYGBgYGBgYGBgYGBgYGBgYGBgYGBgYGBgYGBgYGBg
        YGBgYGBgYGBgYGBgAAAAAAAAAAAAAAAAAAAAAAAAAAAAAAAAAAAAAAAAAAAAAAAAAAAAAAAAAAAAAAAAAAAAAAAAAAAAAAAAAAAAAAAAAAAAAAAAAAAAAAAAAAAAAAAA
        AAAAAAAAAAAAAAAAAAAAAAAAAAAAAAAAAAAAAAAAAAAAAAAAAAAAAAAAAABCYXNzIDFrIFRyYW5jZSAwMgC+X/9/AACwKPQEAQAAAMQ5vl//fwAA9ABkDwEAAAAOEDID
        AQEAfwB/AkAAAQABAAAAAAABAAAAfwAAAAAAAAAAAAAAAAAAAAAAAAAAAAAAAAAAAAAAAAAAAAAAAAAAAAAAAAAAAAAAAAAAAAAAAAAAAAAAAAAAAAAAAAAAAAAAAAAA
        AAAAAAAAAAAAAAAAAAAAAAAAAAAAAAAAAAAAAAAAAAAAAAAAAAAAAAAAAAAAAAAAAAAAAAAQCBAQCAgQCBAIEBAICBAICAgICAgICAgICAgICAgICAgICAgICAgICAgI
        CAgICAgICAgICAgICAgICAgICAgIAQIBAQECAQEBAgEBAQIBAQEBAQEBAQEBAQEBAQEBAQEBAQEBAQEBAQEBAQEBAQEBAQEBAQEBAQEBAQEBAQEBAQgEBAQEBAQEBAQE
        BAQEBAQEBAQEBAQEBAQEBAQEBAQEBAQEBAQEBAQEBAQEBAQEBAQEBAQEBAQEBAQEBAQEBARgYGBgYGBgYGBgYGBgYGBgYGBgYGBgYGBgYGBgYGBgYGBgYGBgYGBgYGBg
        YGBgYGBgYGBgYGBgYGBgYGBgYGBgAAAAAAAAAAAAAAAAAAAAAAAAAAAAAAAAAAAAAAAAAAAAAAAAAAAAAAAAAAAAAAAAAAAAAAAAAAAAAAAAAAAAAAAAAAAAAAAAAAAA
        AAAAAAAAAAAAAAAAAAAAAAAAAAAAAAAAAAAAAAAAAAAAAAAAAAAAAAAAAAAAAAAAAAAAAABCYXNzIDJrIFRyYW5jZSAwMwC+X/9/AACwKPQEAQAAAMQ5vl//fwAA9ABk
        DwEAAAAOEF0DAQQAfwB/AkAAAQABAAAAAAABAAAAfwAAAAAAAAAAAAAAAAAAAAAAAAAAAAAAAAAAAAAAAAAAAAAAAAAAAAAAAAAAAAAAAAAAAAAAAAAAAAAAAAAAAAAA
        AAAAAAAAAAAAAAAAAAAAAAAAAAAAAAAAAAAAAAAAAAAAAAAAAAAAAAAAAAAAAAAAAAAAAAAAAAAAAAAAAAAICAgICAgICAgICAgICAgICAgICAgICAgICAgICAgICAgI
        CAgICAgICAgICAgICAgICAgICAgICAgICAgICAgIAQABAAEAAQABAAEAAQABAAEBAQEBAQEBAQEBAQEBAQEBAQEBAQEBAQEBAQEBAQEBAQEBAQEBAQEBAQEBAQEBAQQE
        BAQEBAQEBAQEBAgEBAQEBAQEBAQEBAQEBAQEBAQEBAQEBAQEBAQEBAQEBAQEBAQEBAQEBAQEBAQEBAQEBARgYGBgYGBgYGBgYGBgYGBgYGBgYGBgYGBgYGBgYGBgYGBg
        YGBgYGBgYGBgYGBgYGBgYGBgYGBgYGBgYGBgYGBgAAAAAAAAAAAAAAAAAAAAAAAAAAAAAAAAAAAAAAAAAAAAAAAAAAAAAAAAAAAAAAAAAAAAAAAAAAAAAAAAAAAAAAAA
        AAAAAAAAAAAAAAAAAAAAAAAAAAAAAAAAAAAAAAAAAAAAAAAAAAAAAAAAAAAAAAAAAAAAAAAAAAAAAAAAAABCYXNzIDJrIERNIFF1ZXN0aW9uIG9mIHRpbWUAAQAAAMQ5
        vl//fwAA9ABkDwEAAAAOEFEDAQAAfwB/AEAAAQABAAAAAAABAAAAfwAAAAAAAAAAAAAAAAAAAAAAAAAAAAAAAAAAAAAAAAAAAAAAAAAAAAAAAAAAAAAAAAAAAAAAAAAA
        AAAAAAAAAAAAAAAAAAAAAAAAAAAAAAAAAAAAAAAAAAAAAAAAAAAAAAAAAAAAAAAAAAAAAAAAAAAAAAAAAAAAAAAAAAAAAAAIEAgQEBAQCBAQCBAQEAgQCAgICAgICAgI
        CAgICAgICAgICAgICAgICAgICAgICAgICAgICAgICAgICAgICAgIAQABAAECAAEAAAEAAQIBAAEBAQEBAQEBAQEBAQEBAQEBAQEBAQEBAQEBAQEBAQEBAQEBAQEBAQEB
        AQEBAQEBAQQEBAQEBAQEBAQEBAQEBAQEBAQEBAQEBAQEBAQEBAQEBAQEBAQEBAQEBAQEBAQEBAQEBAQEBAQEBAQEBAQEBARgYGBgYGBgYGBgYGBgYGBgYGBgYGBgYGBg
        YGBgYGBgYGBgYGBgYGBgYGBgYGBgYGBgYGBgYGBgYGBgYGBgYGBgAAAAAAAAAAAAAAAAAAAAAAAAAAAAAAAAAAAAAAAAAAAAAAAAAAAAAAAAAAAAAAAAAAAAAAAAAAAA
        AAAAAAAAAAAAAAAAAAAAAAAAAAAAAAAAAAAAAAAAAAAAAAAAAAAAAAAAAAAAAAAAAAAAAAAAAAAAAAAAAAAAAAAAAAAAAABCYXNzIDFrIEJlbmFzc2kgLSBJbGx1c2lv
        bgAEAQAAAMQ5vl//fwAA9ABkDwEAAAAOEFQDAQAAfwB/AEAAAQABAAAAAAABAAAAfwAAAAAAAAAAAAAAAAAAAAAAAAAAAAAAAAAAAAAAAAAAAAAAAAAAAAAAAAAAAAAA
        AAAAAAAAAAAAAAAAAAAAAAAAAAAAAAAAAAAAAAAAAAAAAAAAAAAAAAAAAAAAAAAAAAAAAAAAAAAAAAAAAAAAAAAAAAAAAAAAAAAAAAAAAAAIEAgIEBAIEBAQCBAQEAgQ
        CAgICAgICAgICAgICAgICAgICAgICAgICAgICAgICAgICAgICAgICAgICAgICAgIAQABAQEAAQABAAEAAQABAAEBAQEBAQEBAQEBAQEBAQEBAQEBAQEBAQEBAQEBAQEB
        AQEBAQEBAQEBAQEBAQEBAQQEBAQEBAQEBAQEBAQEBAQEBAQEBAQEBAQEBAQEBAQEBAQEBAQEBAQEBAQEBAQEBAQEBAQEBAQEBAQEBAQEBARgYGBgYGBgYGBgYGBgYGBg
        YGBgYGBgYGBgYGBgYGBgYGBgYGBgYGBgYGBgYGBgYGBgYGBgYGBgYGBgYGBgYGBgAAAAAAAAAAAAAAAAAAAAAAAAAAAAAAAAAAAAAAAAAAAAAAAAAAAAAAAAAAAAAAAA
        AAAAAAAAAAAAAAAAAAAAAAAAAAAAAAAAAAAAAAAAAAAAAAAAAAAAAAAAAAAAAAAAAAAAAAAAAAAAAAAAAAAAAAAAAAAAAAAAAAAAAAAAAABCYXNzIDFrIFF1ZWVuIC0g
        QnJlYWsgZnJlZQAEAQAAAMQ5vl//fwAA9ABkDwEAAAAOIEwDAQAAfwB/AEAAAQABAAAAAAABAAAAfwAAAAAAAAAAAAAAAAAAAAAAAAAAAAAAAAAAAAAAAAAAAAAAAAAA
        AAAAAAAAAAAAAAAAAAAAAAAAAAAAAAAAAAAAAAAAAAAAAAAAAAAAAAAAAAAAAAAAAAAAAAAAAAAAAAAAAAAAAAAAAAAAAAAAAAAAAAAAAAAAAAAAAAAAAAAICBAICBAI
        CBAICBAICBAICBAgCBAgCBAgCBAgCBAgEAgICAgICAgICAgICAgICAgICAgICAgICAgICAgICAgIAQABAAEBAAEBAAEBAAEBAAEBAQEBAQEBAQEBAQEBAQEBAQEBAQEB
        AQEBAQEBAQEBAQEBAQEBAQEBAQEBAQEBAQQEBAQEBAQEBAQEBAQEBAQEBAQEBAQEBAQEBAQEBAQEBAQEBAQEBAQEBAQEBAQEBAQEBAQEBAQEBAQEBAQEBARgYGBgYGBg
        YGBgYGBgYGBgYGBgYGBgYGBgYGBgYGBgYGBgYGBgYGBgYGBgYGBgYGBgYGBgYGBgYGBgYGBgYGBgAAAAAAAAAAAAAAAAAAAAAAAAAAAAAAAAAAAAAAAAAAAAAAAAAAAA
        AAAAAAAAAAAAAAAAAAAAAAAAAAAAAAAAAAAAAAAAAAAAAAAAAAAAAAAAAAAAAAAAAAAAAAAAAAAAAAAAAAAAAAAAAAAAAAAAAAAAAAAAAAAAAAAAAAAAAABCYXNzIDFr
        IFF1ZWVuIC0gTGl2aW5nIG9uIG15IG93bgA5vl//fwAA9ABkDwEAAAAOEC4DAQAAfwB/AEAAAQABAAAGBAABAAAAfwAAAAAAAAAAAAAAAAAAAAAAAAAAAAAAAAAAAAAA
        AAAAAAAAAAAAAAAAAAAAAAAAAAAAAAAAAAAAAAAAAAAAAAAAAgAEAAMAAAIDAAMAAwQAAAAAAAAAAAAAAAAAAAAAAAAAAAAAAAAAAAAAAAAAAAAAAAAAAAAAAAAAAAAA
        AAAEAggECAQICAIICAQIBAgICAgICAgICAgICAgICAgICAgICAgICAgICAgICAgICAgICAgICAgICAgICAgICAgIAQABAAEAAQEAAQABAQAAAQEBAQEBAQEBAQEBAQEB
        AQEBAQEBAQEBAQEBAQEBAQEBAQEBAQEBAQEBAQEBAQEBAQQEBAQEBAQEBAQEBAQEBAQEBAQEBAQEBAQEBAQEBAQEBAQEBAQEBAQEBAQEBAQEBAQEBAQEBAQEBAQEBAQE
        BARgYGBgYGBgYGBgYGBgYGBgYGBgYGBgYGBgYGBgYGBgYGBgYGBgYGBgYGBgYGBgYGBgYGBgYGBgYGBgYGBgYGBgAAAAAAAAAAAAAAAAAAAAAAAAAAAAAAAAAAAAAAAA
        AAAAAAAAAAAAAAAAAAAAAAAAAAAAAAAAAAAAAAAAAAAAAAAAAAAAAAAAAAAAAAAAAAAAAAAAAAAAAAAAAAAAAAAAAAAAAAAAAAAAAAAAAAAAAAAAAAAAAAAAAAAAAAAA
        AABTZXEgMWsgRm9yY2VTY2FsZSBFbSAwMQCwKPQEAQAAAMQ5vl//fwAA9ABkDwEAAAAOCEIDAQAAfwB/AEAAAQABAAAGBAABAAAAfwAAAAAAAAAAAAAAAAAAAAAAAAAA
        AAAAAAAAAAAAAAAAAAAAAAAAAAAAAAAAAAAAAAAAAAAAAAAAAAAAAAAAAAAAAAIAAAQAAAAAAAAAAAAAAAAAAAAAAAAAAAAAAAAAAAAAAAAAAAAAAAAAAAAAAAAAAAAA
        AAAAAAAAAAAAAAAICAQIBAQICAgICAgICAgICAgICAgICAgICAgICAgICAgICAgICAgICAgICAgICAgICAgICAgICAgICAgICAgIAQIBAQEBAQIBAQEBAQEBAQEBAQEB
        AQEBAQEBAQEBAQEBAQEBAQEBAQEBAQEBAQEBAQEBAQEBAQEBAQEBAQEBAQQEBAQEBAQEBAQEBAQEBAQEBAQEBAQEBAQEBAQEBAQEBAQEBAQEBAQEBAQEBAQEBAQEBAQE
        BAQEBAQEBAQEBARgYGBgYGBgYGBgYGBgYGBgYGBgYGBgYGBgYGBgYGBgYGBgYGBgYGBgYGBgYGBgYGBgYGBgYGBgYGBgYGBgYGBgAAAAAAAAAAAAAAAAAAAAAAAAAAAA
        AAAAAAAAAAAAAAAAAAAAAAAAAAAAAAAAAAAAAAAAAAAAAAAAAAAAAAAAAAAAAAAAAAAAAAAAAAAAAAAAAAAAAAAAAAAAAAAAAAAAAAAAAAAAAAAAAAAAAAAAAAAAAAAA
        AAAAAAAAAAAAAABTZXEgMWsgRm9yY2VTY2FsZSBFbSAwMgCwKPQEAQAAAMQ5vl//fwAA9ABkDwEAAAAOEEcDAQAAfwB/AEUAAQABAAAGBAABAAAAfwAAAAAAAAAAAAAA
        AAAAAAAAAAAAAAAAAAAAAAAAAAAAAAAAAAAAAAAAAAAAAAAAAAAAAAAAAAAAAAAAAAAAAAAAAAIABAAAAAIAAAACAAMAAAAAAAAAAAAAAAAAAAAAAAAAAAAAAAAAAAAA
        AAAAAAAAAAAAAAAAAAAAAAAAAAAICAgICAgICAgICAgICAgICAgICAgICAgICAgICAgICAgICAgICAgICAgICAgICAgICAgICAgICAgICAgICAgIAAEAAQABAAABAQAA
        AQEAAQEBAQEBAQEBAQEBAQEBAQEBAQEBAQEBAQEBAQEBAQEBAQEBAQEBAQEBAQEBAQEBAQQEBAQEBAQEBAQEBAQEBAQEBAQEBAQEBAQEBAQEBAQEBAQEBAQEBAQEBAQE
        BAQEBAQEBAQEBAQEBAQEBAQEBARgYGBgYGBgYGBgYGBgYGBgYGBgYGBgYGBgYGBgYGBgYGBgYGBgYGBgYGBgYGBgYGBgYGBgYGBgYGBgYGBgYGBgAAAAAAAAAAAAAAAA
        AAAAAAAAAAAAAAAAAAAAAAAAAAAAAAAAAAAAAAAAAAAAAAAAAAAAAAAAAAAAAAAAAAAAAAAAAAAAAAAAAAAAAAAAAAAAAAAAAAAAAAAAAAAAAAAAAAAAAAAAAAAAAAAA
        AAAAAAAAAAAAAAAAAAAAAAAAAABTZXEgMWsgRm9yY2VTY2FsZSBFbSAwMwCwKPQEAQAAAMQ5vl//fwAA9ABkDwEAAAAOEGQDAQQAfwB/AEAAAQABAAAGBAABAAAAfwAA
        AAAAAAAAAAAAAAAAAAAAAAAAAAAAAAAAAAAAAAAAAAAAAAAAAAAAAAAAAAAAAAAAAAAAAAAAAAAAAAAAAAAAAAAGAAAAAAAFAAAEAAAAAAAAAAAAAAAAAAAAAAAAAAAA
        AAAAAAAAAAAAAAAAAAAAAAAAAAAAAAAAAAAAAAAECAQECAQECAQECAQECAQICAgICAgICAgICAgICAgICAgICAgICAgICAgICAgICAgICAgICAgICAgICAgICAgIAQEA
        AQEAAQEAAQEAAQEAAQEBAQEBAQEBAQEBAQEBAQEBAQEBAQEBAQEBAQEBAQEBAQEBAQEBAQEBAQEBAQEBAQQIBAQEBAQIBAQIBAQIBAQEBAQEBAQEBAQEBAQEBAQEBAQE
        BAQEBAQEBAQEBAQEBAQEBAQEBAQEBAQEBAQEBARgYGBgYGBgYGBgYGBgYGBgYGBgYGBgYGBgYGBgYGBgYGBgYGBgYGBgYGBgYGBgYGBgYGBgYGBgYGBgYGBgYGBgAAAA
        AAAAAAAAAAAAAAAAAAAAAAAAAAAAAAAAAAAAAAAAAAAAAAAAAAAAAAAAAAAAAAAAAAAAAAAAAAAAAAAAAAAAAAAAAAAAAAAAAAAAAAAAAAAAAAAAAAAAAAAAAAAAAAAA
        AAAAAAAAAAAAAAAAAAAAAAAAAAAAAAAAAAAAAABTZXEgMmsgRm9yY2VTY2FsZSBFbSAwNCAoRStHKQAAAMQ5vl//fwAA9ABkDwEAAAAOCEMDAQQAfwB/AEAAAQABAAAA
        AAABAAAAfwAAAAAAAAAAAAAAAAAAAAAAAAAAAAAAAAAAAAAAAAAAAAAAAAAAAAAAAAAAAAAAAAAAAAAAAAAAAAAAAAAAAAAAAAAAAAcAAAAAAAAAAAAAAAAAAAAAAAAA
        AAAAAAAAAAAAAAAAAAAAAAAAAAAAAAAAAAAAAAAAAAAAAAAAAAAICAgIBAQICAgICAgICAgICAgICAgICAgICAgICAgICAgICAgICAgICAgICAgICAgICAgICAgICAgI
        CAgICAgIAQIBAQEBAQIBAQEBAQEBAQEBAQEBAQEBAQEBAQEBAQEBAQEBAQEBAQEBAQEBAQEBAQEBAQEBAQEBAQEBAQEBAQQEBAgEBAQEBAQEBAQEBAQEBAQEBAQEBAQE
        BAQEBAQEBAQEBAQEBAQEBAQEBAQEBAQEBAQEBAQEBAQEBAQEBARgYGBgYGBgYGBgYGBgYGBgYGBgYGBgYGBgYGBgYGBgYGBgYGBgYGBgYGBgYGBgYGBgYGBgYGBgYGBg
        YGBgYGBgAAAAAAAAAAAAAAAAAAAAAAAAAAAAAAAAAAAAAAAAAAAAAAAAAAAAAAAAAAAAAAAAAAAAAAAAAAAAAAAAAAAAAAAAAAAAAAAAAAAAAAAAAAAAAAAAAAAAAAAA
        AAAAAAAAAAAAAAAAAAAAAAAAAAAAAAAAAAAAAAAAAAAAAAAAAABTZXEgMmsgSGFybW9uaWMxIChBK0MvQyMpAPQEAQAAAMQ5vl//fwAA9ABkDwEAAAAOCEMDAQEAfwB/
        AEAAAQABAAAAAAABAAAAfwAAAAAAAAAAAAAAAAAAAAAAAAAAAAAAAAAAAAAAAAAAAAAAAAAAAAAAAAAAAAAAAAAAAAAAAAAAAAAAAAAAAAAABwUABwUAAAAAAAAAAAAA
        AAAAAAAAAAAAAAAAAAAAAAAAAAAAAAAAAAAAAAAAAAAAAAAAAAAAAAAAAAAAAAAECAgIBAgICAgICAgICAgICAgICAgICAgICAgICAgICAgICAgICAgICAgICAgICAgI
        CAgICAgICAgICAgICAgIAQEBAQEBAQEBAQEBAQEBAQEBAQEBAQEBAQEBAQEBAQEBAQEBAQEBAQEBAQEBAQEBAQEBAQEBAQEBAQEBAQEBAQQIBAgEBAgEBAQEBAQEBAQE
        BAQEBAQEBAQEBAQEBAQEBAQEBAQEBAQEBAQEBAQEBAQEBAQEBAQEBAQEBAQEBARgYGBgYGBgYGBgYGBgYGBgYGBgYGBgYGBgYGBgYGBgYGBgYGBgYGBgYGBgYGBgYGBg
        YGBgYGBgYGBgYGBgYGBgAAAAAAAAAAAAAAAAAAAAAAAAAAAAAAAAAAAAAAAAAAAAAAAAAAAAAAAAAAAAAAAAAAAAAAAAAAAAAAAAAAAAAAAAAAAAAAAAAAAAAAAAAAAA
        AAAAAAAAAAAAAAAAAAAAAAAAAAAAAAAAAAAAAAAAAAAAAAAAAAAAAAAAAAAAAABTZXEgMmsgSGFybW9uaWMyIChBK0MvQyMpAPQEAQAAAMQ5vl//fwAA9ABkDwEAAAAO
        CEcDAQEAfwB/AEAAAQABAAAAAAABAAAAfwAAAAAAAAAAAAAAAAAAAAAAAAAAAAAAAAAAAAAAAAAAAAAAAAAAAAAAAAAAAAAAAAAAAAAAAAAAAAAAAAAAAAAABwcAAAAH
        AAAAAAAAAAAAAAAAAAAAAAAAAAAAAAAAAAAAAAAAAAAAAAAAAAAAAAAAAAAAAAAAAAAAAAAAAAAECAgICAQICAgICAgICAgICAgICAgICAgICAgICAgICAgICAgICAgI
        CAgICAgICAgICAgICAgICAgICAgICAgIAQEBAQEBAQEBAQEBAQEBAQEBAQEBAQEBAQEBAQEBAQEBAQEBAQEBAQEBAQEBAQEBAQEBAQEBAQEBAQEBAQEBAQQIBAgEBAgE
        BAQEBAQEBAQEBAQEBAQEBAQEBAQEBAQEBAQEBAQEBAQEBAQEBAQEBAQEBAQEBAQEBAQEBAQEBARgYGBgYGBgYGBgYGBgYGBgYGBgYGBgYGBgYGBgYGBgYGBgYGBgYGBg
        YGBgYGBgYGBgYGBgYGBgYGBgYGBgYGBgAAAAAAAAAAAAAAAAAAAAAAAAAAAAAAAAAAAAAAAAAAAAAAAAAAAAAAAAAAAAAAAAAAAAAAAAAAAAAAAAAAAAAAAAAAAAAAAA
        AAAAAAAAAAAAAAAAAAAAAAAAAAAAAAAAAAAAAAAAAAAAAAAAAAAAAAAAAAAAAAAAAAAAAAAAAABTZXEgMmsgSGFybW9uaWMzIChBK0MvQyMpAPQEAQAAAMQ5vl//fwAA
        9ABkDwEAAAAOCEIDAQEAfwB/AEAAAQABAAAAAAABAAAAfwAAAAAAAAAAAAAAAAAAAAAAAAAAAAAAAAAAAAAAAAAAAAAAAAAAAAAAAAAAAAAAAAAAAAAAAAAAAAAAAAAA
        AAAAAAcAAAAAAAAAAAAAAAAAAAAAAAAAAAAAAAAAAAAAAAAAAAAAAAAAAAAAAAAAAAAAAAAAAAAAAAAAAAAAAAAIBAgIBAgEBAgICAgICAgICAgICAgICAgICAgICAgI
        CAgICAgICAgICAgICAgICAgICAgICAgICAgICAgICAgIAQEBAQEBAQEBAQEBAQEBAQEBAQEBAQEBAQEBAQEBAQEBAQEBAQEBAQEBAQEBAQEBAQEBAQEBAQEBAQEBAQEB
        AQQECAQECAQEBAQEBAQEBAQEBAQEBAQEBAQEBAQEBAQEBAQEBAQEBAQEBAQEBAQEBAQEBAQEBAQEBAQEBAQEBARgYGBgYGBgYGBgYGBgYGBgYGBgYGBgYGBgYGBgYGBg
        YGBgYGBgYGBgYGBgYGBgYGBgYGBgYGBgYGBgYGBgYGBgAAAAAAAAAAAAAAAAAAAAAAAAAAAAAAAAAAAAAAAAAAAAAAAAAAAAAAAAAAAAAAAAAAAAAAAAAAAAAAAAAAAA
        AAAAAAAAAAAAAAAAAAAAAAAAAAAAAAAAAAAAAAAAAAAAAAAAAAAAAAAAAAAAAAAAAAAAAAAAAAAAAAAAAAAAAABTZXEgMmsgSGFybW9uaWM0IChBK0MvQyMpAPQEAQAA
        AMQ5vl//fwAA9ABkDwEAAAAOID0DAQAAfwB/AEAAAQABAAAAAAABAAAAfwAAAAAAAAAAAAAAAAAAAAAAAAAAAAAAAAAAAAAAAAAAAAAAAAAAAAAAAAAAAAAAAAAAAAAA
        AAAAAAAAAAAAAAAA/v4AAP7+AAAAAAAAAAAAAP7+AAD+/gAAAAAAAAAAAAAAAAAAAAAAAAAAAAAAAAAAAAAAAAAAAAAAAAAAAAAICAgICAgICAgICAgICAgICAgICAgI
        CAgICAQEBAgEBAgICAgICAgICAgICAgICAgICAgICAgICAgICAgICAgIAQEBAQEBAQEBAQAAAQEAAAEBAQEBAQEBAQEBAQEBAAABAQEBAQEBAQEBAQEBAQEBAQEBAQEB
        AQEBAQEBAQEBAQQEBAQEBAQEBAQEBAgIBAQEBAQEBAQEBAQEBAQEBAQEBAQEBAQEBAQEBAQEBAQEBAQEBAQEBAQEBAQEBAQEBARgYGBgYGBgYGBgYGBgYGBgYGBgYGBg
        YGBgYGBgYGBgYGBgYGBgYGBgYGBgYGBgYGBgYGBgYGBgYGBgYGBgYGBgAAAAAAAAAAAAAAAAAAAAAAAAAAAAAAAAAAAAAAAAAAAAAAAAAAAAAAAAAAAAAAAAAAAAAAAA
        AAAAAAAAAAAAAAAAAAAAAAAAAAAAAAAAAAAAAAAAAAAAAAAAAAAAAAAAAAAAAAAAAAAAAAAAAAAAAAAAAAAAAAAAAAAAAAAAAABTZXEgMmsgS3JhZnR3ZXJrMSAoRCtG
        KQCwKPQEAQAAAMQ5vl//fwAA9ABkDwEAAAAOIGQDAQAAfwB/AD4AAQABAAAAAAABAAAAfwAAAAAAAAAAAAAAAAAAAAAAAAAAAAAAAAAAAAAAAAAAAAAAAAAAAAAAAAAA
        AAAAAAAAAAAAAAAAAAAAAAAAAAAAAAAAAAAAAwAAAAAAAAADAAAABQAKAAcAAAAAAAAAAAAAAAAAAAAAAAAAAAAAAAAAAAAAAAAAAAAAAAAAAAAICAgICAgICAgICAgI
        CAgICAgICAgICAgICAgICAgICAgICAgICAgICAgICAgICAgICAgICAgICAgICAgICAgIAQAAAAEAAQABAAEAAAAAAAEAAAABAAEAAQAAAAAAAAABAQEBAQEBAQEBAQEB
        AQEBAQEBAQEBAQEBAQEBAQEBAQQEBAQEBAQEBAQEBAQEBAQEBAQEBAQEBAQEBAQEBAQEBAQEBAQEBAQEBAQEBAQEBAQEBAQEBAQEBAQEBAQEBARgYGBgYGBgYGBgYGBg
        YGBgYGBgYGBgYGBgYGBgYGBgYGBgYGBgYGBgYGBgYGBgYGBgYGBgYGBgYGBgYGBgYGBgAAAAAAAAAAAAAAAAAAAAAAAAAAAAAAAAAAAAAAAAAAAAAAAAAAAAAAAAAAAA
        AAAAAAAAAAAAAAAAAAAAAAAAAAAAAAAAAAAAAAAAAAAAAAAAAAAAAAAAAAAAAAAAAAAAAAAAAAAAAAAAAAAAAAAAAAAAAAAAAAAAAAAAAAAAAABTZXEgMmsgS3JhZnR3
        ZXJrMiAoQSwgQykAKPQEAQAAAMQ5vl//fwAA9ABkDwEAAAAOIGQDAQAAfwB/AEAAAQABAAAAAAABAAAAfwAAAAAAAAAAAAAAAAAAAAAAAAAAAAAAAAAAAAAAAAAAAAAA
        AAAAAAAAAAAAAAAAAAAAAAAAAAAAAAAAAAAAAAAAAAAAAPsAAAD7AAAAAAAAAAAAAgAAAAAAAAAAAPsAAAAAAAAAAAAAAAAAAAAAAAAAAAAAAAAAAAAAAAAAAAAICAgI
        CAgICAgICAgICAgICAgICAgICAgICAgICAgICAgICAgICAgICAgICAgICAgICAgICAgICAgICAgICAgIAQAAAAEAAQABAAEAAAABAAEAAAABAAEAAAAAAAAAAQABAQEB
        AQEBAQEBAQEBAQEBAQEBAQEBAQEBAQEBAQEBAQQEBAQEBAQEBAQEBAQEBAQIBAQEBAQEBAQEBAQEBAQEBAQEBAQEBAQEBAQEBAQEBAQEBAQEBAQEBAQEBAQEBARgYGBg
        YGBgYGBgYGBgYGBgYGBgYGBgYGBgYGBgYGBgYGBgYGBgYGBgYGBgYGBgYGBgYGBgYGBgYGBgYGBgYGBgAAAAAAAAAAAAAAAAAAAAAAAAAAAAAAAAAAAAAAAAAAAAAAAA
        AAAAAAAAAAAAAAAAAAAAAAAAAAAAAAAAAAAAAAAAAAAAAAAAAAAAAAAAAAAAAAAAAAAAAAAAAAAAAAAAAAAAAAAAAAAAAAAAAAAAAAAAAAAAAAAAAAAAAAAAAABTZXEg
        MmsgS3JhZnR3ZXJrMyAoQStDLCBGK0EpAAAAAMQ5vl//fwAA9ABkDwEAAAA=
        AC0gSW5pdGlhbCBwcm9ncmFtIC0AEAAAAA==
      >
      PRESETNAME "- Initial program -"
      FLOATPOS 559 53 810 615
      FXID {A0FF37ED-89A7-8240-B228-E213F22EC343}
      WAK 0
      BYPASS 0 0 0
      <VST "VSTi: chipsounds (Plogue Art et Technologie, Inc)" chipsounds.vst 0 "" 1347176271
        T0dMUO5e7f4AAAAABAAAAAEAAAAAAAAAAgAAAAAAAAAEAAAAAAAAAAgAAAAAAAAAqAMAAAEAAAAAABAA
        Q0VHUN8VAAB4nO1YTW/bOBC951cQOu0eKomUZUmAncJx4sLAug3W3nNBy4xCrL4qUtm0v74jKYqpOKWYbfewSHiwRepxZt4MRT5w9v4+S9EdqwQv8rmFbddC78/PZouK
        0y29Y8qrqUus8zMEbbZlUvI8EehLTVMuv8JbCyVpsafpdZFC1yMWErJiNANY183o/bYdWaRpEW8u5paPYXizvlx/quWmOLDWCq1lkVEJLrdpIecWxCNieOOHYfNEUwpj
        GL1DrPFtizh9GF6yXLJqbk3dPpRdnbfeXdttm4WcPn4wjfihtZ7TjDUmbXRdVwwtb3npbNeXztQPMfrt4267/N1Ce5r/vQY8dt3IQvEtzXOWzq13EHDZEp5YSJ64K/ef
        K5onrAE+DkoYEmUhWOs9q2XHW/zzOaUCCAcPSW4D3VCe94He0bRmbYmGbIZA/Ag8oT0EElOgZwqcmAJ9U+DUFBiYAkNTYGQKxK4x0rg22Lg42Lg62Lg8eKw+17SimdEi
        OiLHvB+Rai1D39cgB6mfRDpooOYee1r/kwFUa1VdoDjUQocrTwcNVaueNldhZAyN1GThSAfFHhnwCqOG6A+wkyMWk+dru6NVwuTDThsXmX2dFknN7OaQsf9YfbJrwSpX
        2ffaWctawFFwSSVF8msJMwnxps1Oyb9BZ9Lksz+bwB/LD5x2jweYAg99W3V/xP21bUjR6Ti+lDR+TaT/hHBZBWfklomGgi0kK19L2XcVTxJWbUG2sDxm1ShtHBAc9bT9
        QKFNnqONn8TZ9oNV07xlsIoGL5eut/oPEzFzGoH1VGvhX6W18FFr4X8htlxFbGH3TW29qa3/i9oaMMJ+0GyGY7rs+QX8c7pszOagSL4e6hlbJdgYGgwCCLVQNanBVCvh
        1HXiES1UXSgEawMYVIBooepSCSda6NjHrGjIsd1OgZqX4AUi1kRCqjr2GC8ZXYju2H4xAI99Nm9C9rUL2Z+Tcbg9al6k46bNT9BkYeESz7s4YXKq7voW4N6ED23hg+Yj
        wWpo4apTgsEzWJCJegsD7KO3rl38QGGaqsarmxsWy9N7ukW2503in8rE/mbvw1/rfgKNJb9j6+4aEff9q+O1IkvBBTvs6L7pq3tCxQSTG5bXiIt+umxD1S8GJNk9QG74
        jbwFRUrl7dxyFmWZ8ri90hRONxNULS9FUecHGGmdCUdj11mCWhU8RouqZEnCC+G0LmwKn2B5JO8A+/OzmdNf3p6ffQd/UlOX
        AAAQAAAA
      >
      FLOATPOS 409 269 871 509
      FXID {DC79668B-30D1-964C-A162-F245DBE294B0}
      WAK 0
      BYPASS 1 0 0
      <VST "VST: 8-Bit Shaper (Xfer Records)" 8BitShaper.vst 0 "" 1148539762
        clN1RO5e7f4CAAAAAQAAAAAAAAACAAAAAAAAAAQAAAABAAAAAAAAAAIAAAAAAAAABAAAAAAAAAAIAAAAAAAAADQCAAABAAAAAAAQAA==
        ZmaGP20MlT7dQQw/AAAAPyQAAAAAAIA/AAAAAAAAKEAXAAAAMAAAABkAAAAaAAAAGgAAABoAAAAbAAAAGwAAABwAAAAcAAAAHAAAAB0AAAAdAAAAHgAAAB4AAAAfAAAA
        HwAAACAAAAAgAAAAIAAAACEAAAAhAAAAIQAAACIAAAAiAAAAIgAAACMAAAAjAAAAIwAAACQAAAAkAAAAJAAAACUAAAAlAAAAKAAAACgAAAApAAAAKQAAACoAAAA1AAAA
        KgAAACoAAAA2AAAAKgAAACoAAAAqAAAAKgAAACoAAAAqAAAAKgAAACsAAAArAAAAOQAAAC0AAAA0AAAAOgAAAC0AAAAtAAAAPAAAAC4AAAAuAAAALwAAADAAAAAwAAAA
        MQAAADEAAAAxAAAAMgAAADMAAAAzAAAAMwAAADcAAAA3AAAANwAAADgAAAA4AAAAOAAAADkAAAA5AAAAOQAAADoAAAA6AAAAOgAAADoAAAA6AAAAOwAAADsAAAA7AAAA
        PAAAADsAAAA7AAAAOwAAADwAAAA8AAAAPAAAADwAAAA9AAAAPQAAAD0AAAA9AAAAPQAAAD4AAAA+AAAAPwAAAEkAAABAAAAAQAAAAEgAAABAAAAAQQAAAEIAAABCAAAA
        QgAAAEMAAABDAAAAQwAAAEQAAABEAAAARQAAAE0AAABGAAAARwAAAEYAAABHAAAASAAAAEgAAABJAAAATwAAAAAAgD+rqqo+q6qqPh0Fwz6OAm0/
        AEluaXQgMQAQAAAA
      >
      PRESETNAME "Init 1"
      FLOATPOS 0 0 0 0
      FXID {D99DC476-ED47-8F43-9A75-34361686C8C2}
      WAK 0
    >
    <ITEM
      POSITION 0
      SNAPOFFS 0
      LENGTH 24
      LOOP 1
      ALLTAKES 0
      FADEIN 1 0 0 1 0 0
      FADEOUT 1 0 0 1 0 0
      MUTE 0
      SEL 0
      YPOS 0.784314 0.05
      IGUID {630F786B-B3F2-894D-9272-EAB20976FE42}
      IID 4
      NAME "tuba(s) - National_Anthems_-_Mexico.mid"
      VOLPAN 1 0 1 -1
      SOFFS 0 0
      PLAYRATE 1 1 0 -1 0 0.0025
      CHANMODE 0
      GUID {85E4AA45-1867-5E4D-8921-0EC6249A4433}
      <SOURCE MIDI
        HASDATA 1 480 QN
        POOLEDEVTS {D925C444-02C0-8149-853B-DB83D0CC4EFE}
        <X 0 0
          /wN0dWJhKHMp
        >
        <X 0 0
          /wRTb3VuZCBDYW52YXM=
        >
        e 475 93 24 7f
        e 313 83 24 2a
        e 138 93 1f 7f
        e 327 83 1f 38
        e 175 93 24 7f
        e 342 83 24 29
        e 126 93 1f 7f
        e 212 83 1f 2a
        e 238 93 24 7f
        e 450 83 24 11
        e 39 93 1f 7f
        e 242 83 1f 11
        e 250 93 24 7f
        e 384 83 24 34
        e 130 93 24 7f
        e 147 83 24 3a
        e 169 93 28 7f
        e 116 83 28 2e
        e 44 93 2b 7f
        e 340 83 2b 24
        e 120 93 2b 7f
        e 441 83 2b 01
        e 50 93 1f 7f
        e 411 83 1f 49
        e 79 93 1f 7f
        e 146 83 1f 44
        e 179 93 1f 7f
        e 145 83 1f 0f
        e 12 93 24 7f
        e 145 83 24 3b
        e 92 93 24 7f
        e 165 83 24 3a
        e 55 93 28 7f
        e 186 83 28 3c
        e 42 93 2b 7f
        e 166 83 2b 0f
        e 72 93 30 7f
        e 353 83 30 01
        e 146 93 2d 7f
        e 401 83 2d 01
        e 84 93 28 7f
        e 411 83 28 15
        e 82 93 2b 7f
        e 281 83 2b 17
        e 190 93 26 7f
        e 376 83 26 32
        e 103 93 29 7f
        e 281 83 29 2d
        e 194 93 24 7f
        e 449 83 24 25
        e 33 93 30 7f
        e 369 83 30 01
        e 108 93 2a 7f
        e 441 83 2a 65
        e 535 93 2b 7f
        e 409 83 2b 01
        e 74 93 1f 7f
        e 395 83 1f 12
        e 78 93 2b 7f
        e 420 83 2b 01
        e 55 93 1f 7f
        e 302 83 1f 2c
        e 147 93 24 7f
        e 462 83 24 0a
        e 43 93 30 7f
        e 325 83 30 18
        e 148 93 2b 7f
        e 408 83 2b 1a
        e 84 93 28 7f
        e 456 83 28 15
        e 14 93 26 7f
        e 146 83 26 23
        e 157 93 26 7f
        e 166 83 26 46
        e 27 93 28 7f
        e 166 83 28 3f
        e 119 93 2b 7f
        e 108 83 2b 38
        e 85 93 30 7f
        e 469 83 30 2d
        e 11 93 2d 7f
        e 424 83 2d 01
        e 62 93 28 7f
        e 284 83 28 42
        e 75 93 28 7f
        e 72 83 28 44
        e 64 93 28 7f
        e 104 83 28 38
        e 113 93 28 7f
        e 129 83 28 37
        e 112 93 21 7f
        e 382 83 21 33
        e 81 93 20 7f
        e 364 83 20 01
        e 126 93 1f 7f
        e 460 83 1f 0c
        e 15 93 2b 7f
        e 386 83 2b 01
        e 106 93 1f 7f
        e 441 83 1f 01
        e 40 93 2b 7f
        e 323 83 2b 01
        e 124 93 24 7f
        e 294 83 24 2c
        e 194 93 24 7f
        e 810 83 24 5a
        e 661 93 2f 7f
        e 867 83 2f 04
        e 64 93 2b 7f
        e 904 83 2b 01
        e 53 93 30 7f
        e 142 83 30 23
        e 93 93 24 7f
        e 164 83 24 34
        e 66 93 28 7f
        e 149 83 28 38
        e 82 93 2b 7f
        e 143 83 2b 34
        e 110 93 30 7f
        e 390 83 30 01
        e 101 93 24 7f
        e 343 83 24 42
        e 178 93 1f 7f
        e 327 83 1f 2d
        e 146 93 2b 7f
        e 322 83 2b 01
        e 144 93 1f 7f
        e 372 83 1f 03
        e 106 93 2b 7f
        e 231 83 2b 1b
        e 118 93 23 7f
        e 98 83 23 42
        e 47 93 24 7f
        e 410 83 24 37
        e 41 93 28 7f
        e 455 83 28 27
        e 14 93 2b 7f
        e 161 83 2b 2f
        e 154 93 2b 7f
        e 134 83 2b 12
        e 40 93 28 7f
        e 232 83 28 25
        e 102 93 2b 7f
        e 133 83 2b 10
        e 44 93 2f 7f
        e 883 83 2f 01
        e 32 93 2b 7f
        e 895 83 2b 01
        e 67 93 24 7f
        e 416 83 24 43
        e 73 93 24 7f
        e 231 83 24 2f
        e 109 93 23 7f
        e 127 83 23 29
        e 16 93 21 7f
        e 461 83 21 2b
        e 30 93 24 7f
        e 406 83 24 18
        e 61 93 26 7f
        e 401 83 26 3a
        e 75 93 26 7f
        e 417 83 26 3a
        e 62 93 26 7f
        e 426 83 26 48
        e 84 93 26 7f
        e 482 83 26 17
        e 23 93 1f 7f
        e 472 93 2b 7f
        e 7 83 1f 44
        e 183 83 2b 34
        e 150 93 2b 7f
        e 75 83 2b 46
        e 62 93 2b 7f
        e 480 83 2b 54
        e 474 93 27 7f
        e 324 83 27 19
        e 144 93 2e 7f
        e 296 83 2e 2f
        e 164 93 27 7f
        e 334 83 27 19
        e 155 93 2e 7f
        e 274 83 2e 30
        e 214 93 27 7f
        e 357 83 27 24
        e 153 93 2e 7f
        e 261 83 2e 3a
        e 198 93 27 7f
        e 450 83 27 01
        e 46 93 2e 7f
        e 276 83 2e 2a
        e 204 93 29 7f
        e 363 83 29 47
        e 124 93 29 7f
        e 390 83 29 39
        e 40 93 22 7f
        e 374 83 22 3e
        e 110 93 22 7f
        e 432 83 22 31
        e 44 93 27 7f
        e 296 83 27 2a
        e 169 93 2e 7f
        e 265 83 2e 1c
        e 223 93 27 7f
        e 349 83 27 04
        e 137 93 2e 7f
        e 293 83 2e 2d
        e 221 93 26 7f
        e 348 83 26 40
        e 119 93 26 7f
        e 416 83 26 26
        e 65 93 23 7f
        e 363 83 23 2e
        e 121 93 23 7f
        e 346 83 23 3e
        e 135 93 24 7f
        e 338 83 24 42
        e 148 93 2b 7f
        e 363 83 2b 01
        e 95 93 24 7f
        e 519 83 24 5b
        e 461 93 20 7f
        e 942 93 2c 7f
        e 9 83 20 4c
        e 858 83 2c 17
        e 82 93 2b 7f
        e 428 83 2b 10
        e 55 93 29 7f
        e 405 83 29 38
        e 82 93 27 7f
        e 412 83 27 44
        e 75 93 23 7f
        e 407 83 23 1c
        e 90 93 24 7f
        e 847 83 24 01
        e 111 93 20 7f
        e 418 83 20 0e
        e 61 93 2c 7f
        e 346 83 2c 01
        e 134 93 2b 7f
        e 469 93 1f 7f
        e 6 83 2b 30
        e 205 83 1f 39
        e 116 93 1f 7f
        e 66 83 1f 52
        e 74 93 1f 7f
        e 568 83 1f 5e
        e 417 93 24 7f
        e 359 83 24 0f
        e 111 93 2b 7f
        e 351 83 2b 19
        e 116 93 24 7f
        e 354 83 24 1a
        e 115 93 2b 7f
        e 346 83 2b 1d
        e 137 93 24 7f
        e 416 83 24 2d
        e 79 93 1f 7f
        e 382 83 1f 01
        e 102 93 24 7f
        e 332 83 24 37
        e 125 93 24 7f
        e 215 83 24 25
        e 126 93 28 7f
        e 134 83 28 2f
        e 28 93 2b 7f
        e 377 83 2b 28
        e 100 93 2b 7f
        e 448 83 2b 01
        e 54 93 1f 7f
        e 406 83 1f 3c
        e 73 93 1f 7f
        e 132 83 1f 01
        e 168 93 1f 7f
        e 145 83 1f 37
        e 41 93 24 7f
        e 118 83 24 4f
        e 106 93 24 7f
        e 198 83 24 34
        e 35 93 28 7f
        e 147 83 28 34
        e 82 93 2b 7f
        e 198 83 2b 52
        e 42 93 30 7f
        e 392 83 30 05
        e 104 93 2d 7f
        e 467 83 2d 01
        e 20 93 28 7f
        e 383 83 28 2a
        e 89 93 2b 7f
        e 431 83 2b 01
        e 55 93 26 7f
        e 426 83 26 14
        e 39 93 29 7f
        e 391 83 29 24
        e 94 93 24 7f
        e 441 83 24 01
        e 38 93 30 7f
        e 395 83 30 01
        e 49 93 2a 7f
        e 741 83 2a 35
        e 239 93 2b 7f
        e 354 83 2b 3f
        e 122 93 2b 7f
        e 405 83 2b 01
        e 84 93 1f 7f
        e 372 83 1f 23
        e 116 93 1f 7f
        e 349 83 1f 15
        e 102 93 24 7f
        e 462 83 24 22
        e 40 93 30 7f
        e 398 83 30 01
        e 86 93 2b 7f
        e 430 83 2b 09
        e 58 93 28 7f
        e 435 83 28 01
        e 50 93 24 7f
        e 179 83 24 2b
        e 132 93 24 7f
        e 139 83 24 3c
        e 41 93 28 7f
        e 203 83 28 3a
        e 92 93 2b 7f
        e 135 83 2b 05
        e 41 93 30 7f
        e 434 83 30 01
        e 26 93 2d 7f
        e 490 83 2d 32
        e 3 93 28 7f
        e 262 83 28 44
        e 50 93 28 7f
        e 63 83 28 47
        e 98 93 28 7f
        e 92 83 28 41
        e 146 93 28 7f
        e 110 83 28 4e
        e 143 93 21 7f
        e 378 83 21 19
        e 95 93 20 7f
        e 416 83 20 30
        e 59 93 1f 7f
        e 375 83 1f 2e
        e 94 93 1f 7f
        e 467 83 1f 1b
        e 23 93 2b 7f
        e 354 83 2b 35
        e 121 93 2b 7f
        e 442 83 2b 01
        e 22 93 24 7f
        e 373 83 24 1c
        e 135 93 24 7f
        e 992 83 24 68
        E 460 b0 7b 00
        GUID {A6B9B7F8-31C4-6C47-95B4-CC13AF9F6C73}
        IGNTEMPO 0 120 4 4
        SRCCOLOR 1098
        VELLANE -1 86 6
        CFGEDITVIEW -3513.372695 10.9257 50 24 0 0 0 0 0 0.5
        KEYSNAP 0
        TRACKSEL 226 0 0 ""
        EVTFILTER 0 -1 -1 -1 -1 0 0 0 0 -1 -1 -1 -1 0 -1 0 -1 -1
        CFGEDIT 1 0 0 0 0 0 1 0 1 1 1 0.25 4 46 1280 777 0 0 2 3 0 0 0 0 1 -0.96 0 1 1 64
      >
    >
  >
  <TRACK {2E103EAF-0FA2-9942-87A1-30E1663A9F4B}
    NAME "--- 0 --- 0 --- 0 "
    PEAKCOL 16576
    BEAT -1
    AUTOMODE 0
    VOLPAN 1 0 -1 -1 1
    MUTESOLO 0 0 0
    IPHASE 0
    ISBUS 0 0
    BUSCOMP 0 0
    SHOWINMIX 1 0.6667 0.657005 0 0.5 0 0 0
    FREEMODE 0
    SEL 0
    REC 0 0 0 0 0 0 0
    VU 2
    TRACKHEIGHT 0 0
    INQ 0 0 0 0.5 100 0 0 100
    NCHAN 2
    FX 1
    TRACKID {2E103EAF-0FA2-9942-87A1-30E1663A9F4B}
    PERF 0
    LAYOUTS "" Separator
    MIDIOUT -1
    MAINSEND 1 0
  >
  <TRACK {D4259754-8A5D-ED42-9EF0-7FA3B62785A4}
    NAME "vst Plogue"
    PEAKCOL 26779488
    BEAT -1
    AUTOMODE 0
    VOLPAN 1 0 -1 -1 1
    MUTESOLO 0 0 0
    IPHASE 0
    ISBUS 0 0
    BUSCOMP 0 0
    SHOWINMIX 1 0.6667 0.657005 1 0.5 0 0 0
    FREEMODE 0
    SEL 0
    REC 0 0 0 1 0 0 0
    VU 2
    TRACKHEIGHT 0 0
    INQ 0 0 0 0.5 100 0 0 100
    NCHAN 4
    FX 1
    TRACKID {D4259754-8A5D-ED42-9EF0-7FA3B62785A4}
    PERF 0
    AUXRECV 2 0 1 0 0 0 0 0 4 -1:U 0 -1 ''
    AUXRECV 5 0 1 0 0 0 0 0 0 -1:U 32 -1 ''
    AUXRECV 5 0 1 0 0 0 0 0 0 -1:U 96 -1 ''
    AUXRECV 6 0 1 0 0 0 0 0 0 -1:U 64 -1 ''
    AUXRECV 6 0 1 0 0 0 0 0 0 -1:U 128 -1 ''
    MIDIOUT -1
    MAINSEND 0 0
    <FXCHAIN
      WNDRECT 532 389 724 387
      SHOW 0
      LASTSEL 0
      DOCKED 0
      BYPASS 0 0 0
      <VST "VSTi: chipsounds (Multi) (Plogue Art et Technologie, Inc) (32 out)" "chipsounds Multi.vst" 0 "" 1347241807
        T0dNUO5e7f4AAAAAIAAAAAEAAAAAAAAAAgAAAAAAAAAEAAAAAAAAAAgAAAAAAAAAEAAAAAAAAAAgAAAAAAAAAEAAAAAAAAAAgAAAAAAAAAAAAQAAAAAAAAACAAAAAAAA
        AAQAAAAAAAAACAAAAAAAAAAQAAAAAAAAACAAAAAAAAAAQAAAAAAAAACAAAAAAAAAAAABAAAAAAAAAAIAAAAAAAAABAAAAAAAAAAIAAAAAAAAABAAAAAAAAAAIAAAAAAA
        AABAAAAAAAAAAIAAAAAAAAAAAAEAAAAAAAAAAgAAAAAAAAAEAAAAAAAAAAgAAAAAAAAAEAAAAAAAAAAgAAAAAAAAAEAAAAAAAAAAgAAAAADpBQAAAQAAAAAAEAA=
        Q0VHUIw/AAB4nO2bW3OjNhTH3/MpGJ7ahzVI3MyMkx1f4q5nmm6m9k4fM4qtdWi5uEhkk376CjCxFGMhQtJ2G3hIQP5zpKMjSz90zOjjQxRq9zglQRKf62Bg6trHi7PR
        OA3QEt1j7iPXhPrFmcaO0RJTGsRbov2ZoTCgj+xTXduGyS0Kr5OQXVpQ1whNMYqYrLyM0MOyKBmHYbK+mpzrDmDFV4vZ4nNGr5INLqygjCYRoqzKZZjQc521h6yZFhYn
        KESsCGgfNJxXPSDrcF88xTHF6bnumlVLVllcVG4OzOLQNaNqPrOsBZvCeIwinJscaNdZirXpXbAzlouZ4TpDoP3wy2o5/VHXblH8x4LpgWn6ura+Q3GMw+L2XeEucHWN
        HlW3u71JUbxl5j+Ap0LKisguIbi4PcpoeUK+3YSIMH/tfR8XDb1CQVw19B6FGS4iJHojCsGT8MhtUQhVhZaq0FYVOqpCV1XoqQqHqkJfVQhMZaVybIBycIBydIByeEBT
        fK5RiiKlQXRQNtV+UPKxHDqORCl0ve3LpB7f98CS1m8LUqlVfoCCoVQqjjyZdMhbtaR9NfSVpT7fWcCXSYHFxxWatgftk1r7oAWwPrYrlG4x3c+06yQaXIfJNsODfI0Z
        /Dz/PMgITk1u3ivummaErQQzRJFGH3fsTggtl4WRBH+xCzvvz2ppYvXheBOg8nTDbmEn1TEv/0HzdQ/RRaP0sa3T4J04vUqD7RanS7Zo43iN00a3gQeBX7nteJzbsM5t
        sPd6f5TXXnFuTb25LzgxNa35v9URRfR/ZQ7glMHCEpPcqQGhePc/Gv8jIwes56wFurEWqGOtYc9aPWu9E9YSPQKu66lQmW86xWNWM5VBz3ZN95WpzJG6JFCZY0v5iW+q
        5UmtNg3lF6GWCEWWz9oAukART2aHHoNNg4BN5A3TU09bPW11oS2Qj+t2uFV8yz3WC/PLY9wqu8azJkLBnEFYrh0eSVnprM6CCUULb4xx9RADu0GM/QQxB4axuzGM2cAw
        TQtQe4ZpoKKeYeQd3jNMW4axHMsZWqeUvEdAurHCe+RJaUPwCMg88hq+Fqd2q6SbRVzfN1oVtqByhDlNJS3ayg9nW4p7XtN4rsW9pgZ4QlRtqZQPqytvKx9XSzpWBIh0
        oEwq7Kz5UNqvLwZDq1HbNEHzWvXdWN90W9hVH2G+6bf45rRwDgDBO0saOhYDfkoqtDJxU7/17N2zdyf2hlZb9i4ehUv2NiGcTI48OSbyWcHeplnL3rX07kxFu5OSvT0P
        8KXzsnQqlu6PqYp2foLpW3O61Y3TYcXp9j+W11Xm9Ab87vcapcKe07+zvG6D0T6vy3dWn9ftfPS00+d1Xxj995nXtbuhllWDWk6PWj1qvRPU+g7Tuo2bd31at0/rKh09
        bPVp3f9CWtd7Yhg40Mp+1H5D9/hrkkbE+ITSjbZ8jNcnIcZ5tRcBXolcXv8HaQ0s1JPL+yYXadpL8Ej6O32hmxi3QN8/vXLzlCHPpwqYI8/QCYNECiRCklS+9wTV4Qmq
        p7reKPUqRMuV0pswAF2pVUe9AWJKO2cyNXpzpaj5dvTG516bfvL4drnXYQuteu7VB+qBY72qPiKZuGlxOZl6teRPKtBsWjt6mO5hugtMQ8dpCdPl+lBuXZoTb66Sp62O
        Kkfqsod+xxk7YuaUK514zrHddhbcmgxySwugqwXH62rBnnW0UF8K4bg2D24+z3irPoBcfv2K1/T4deRxdBvkw/L5A8fe6uinL4vqBrSmwT1elC9Lg+r68vDyNA5ZFXiz
        Qrf5SOVnzBQTTK9wnGkBqW6nRVPlXxWN4gcmWbG/WYo32qeAEvaQg+jduW6Md7swWBcvcBOjtMCek4IdSbJ4w0qKSokhsW/sH8DG6Q5vt0FCDKGmAWLz1e7Z5H/kCmzl
        SoR+9+jdkw9f2ERIDMJCEW9DlG/qGzfrFCOKjSWKdiEmxmX1iTYP8uuygunB0aoOkt/i0Lvn7R4ZLIgXZyOjetP+4uxvc1Ar2A==
        AAAQAAAA
      >
      FLOATPOS 129 268 871 509
      FXID {C804D762-B992-A540-81BF-3D6C0F7FF19B}
      WAK 0
    >
  >
  <TRACK {F21395F9-F67E-E94E-A650-3CA2FF3EBDD0}
    NAME "ch1,3 (send)"
    PEAKCOL 16576
    BEAT -1
    AUTOMODE 0
    VOLPAN 1 0 -1 -1 1
    MUTESOLO 0 0 0
    IPHASE 0
    ISBUS 0 0
    BUSCOMP 0 0
    SHOWINMIX 1 0.6667 0.657005 1 0.5 0 0 0
    FREEMODE 0
    SEL 0
    REC 0 0 0 0 0 0 0
    VU 2
    MIDICTL -1 1
    TRACKHEIGHT 184 0
    INQ 0 0 0 0.5 100 0 0 100
    NCHAN 2
    FX 1
    TRACKID {F21395F9-F67E-E94E-A650-3CA2FF3EBDD0}
    PERF 0
    MIDIOUT -1
    MAINSEND 1 0
    <FXCHAIN
      WNDRECT 528 36 724 387
      SHOW 0
      LASTSEL 0
      DOCKED 1
    >
    <ITEM
      POSITION 0
      SNAPOFFS 0
      LENGTH 84.5
      LOOP 1
      ALLTAKES 0
      FADEIN 1 0 0 1 0 0
      FADEOUT 1 0 0 1 0 0
      MUTE 0
      SEL 0
      YPOS 0.196078 0.05
      IGUID {D89EF994-F5B6-2340-AB20-4C2B5050F4A6}
      IID 3
      NAME "trombone(s) - National_Anthems_-_Mexico.mid"
      VOLPAN 1 0 1 -1
      SOFFS 0 0
      PLAYRATE 1 1 0 -1 0 0.0025
      CHANMODE 0
      TAKECOLOR 26173599 B
      GUID {F6958859-A638-8248-8C16-8C80DB343583}
      <SOURCE MIDI
        HASDATA 1 480 QN
        POOLEDEVTS {89753359-F465-0446-9238-758E4896F3D1}
        <X 0 0
          /wN0cm9tYm9uZShzKQ==
        >
        <X 0 0
          /wRTb3VuZCBDYW52YXM=
        >
        E 480 92 30 7f
        E 344 82 30 1c
        E 136 92 37 7f -29
        E 348 82 37 19 -29
        E 132 92 30 7f -27
        E 386 82 30 1b -27
        E 94 92 37 7f -22
        E 317 82 37 01 -22
        E 163 92 30 7f -46
        E 373 82 30 2d -46
        E 107 92 37 7f -40
        E 320 82 37 01 -40
        E 160 92 30 7f -35
        E 386 82 30 46 -35
        E 94 92 30 7f -28
        E 240 82 30 2b -28
        E 60 92 34 7f 27
        E 124 82 34 24 27
        E 56 92 37 7f -12
        E 335 82 37 2c -12
        E 145 92 37 7f -36
        E 420 82 37 01 -36
        E 60 92 2b 7f -29
        E 402 82 2b 18 -29
        E 78 92 2b 7f -22
        E 147 82 2b 20 -22
        E 153 92 2b 7f -10
        E 161 82 2b 31 -10
        E 19 92 30 7f -1
        E 111 82 30 47 -1
        E 129 92 30 7f -21
        E 159 82 30 0f -21
        E 81 92 34 7f -26
        E 177 82 34 2e -26
        E 63 92 37 7f -35
        E 157 82 37 01 -35
        E 83 92 3c 7f -26
        E 371 82 3c 0d -26
        E 109 92 39 7f -36
        E 414 82 39 1e -36
        E 66 92 34 7f -20
        E 411 82 34 01 -20
        E 69 92 37 7f -9
        E 377 82 37 01 -9
        E 103 92 32 7f -11
        E 415 82 32 1b -11
        E 65 92 35 7f -21
        E 327 82 35 01 -21
        E 153 92 30 7f -16
        E 418 82 30 01 -16
        E 62 92 3c 7f -7
        E 286 82 3c 09 -7
        E 194 92 36 7f -18
        E 0 92 39 7f -20
        E 510 82 36 55 -18
        E 9 82 39 4b -20
        E 441 92 37 7f
        E 307 82 37 12
        E 173 92 2b 7f
        E 379 82 2b 01
        E 101 92 37 7f -22
        E 372 82 37 01 -22
        E 108 92 2b 7f -11
        E 364 82 2b 28 -11
        E 116 92 30 7f -33
        E 424 82 30 1d -33
        E 56 92 3c 7f -14
        E 364 82 3c 1a -14
        E 116 92 37 7f -19
        E 404 82 37 01 -19
        E 76 92 34 7f -21
        E 388 82 34 04 -21
        E 92 92 30 7f -8
        E 115 82 30 36 -8
        E 185 92 30 7f -4
        E 140 82 30 48 -4
        E 40 92 34 7f -17
        E 231 82 34 2f -17
        E 69 92 37 7f -29
        E 172 82 37 35 -29
        E 8 92 3c 7f -20
        E 434 82 3c 01 -20
        E 46 92 39 7f -15
        E 469 92 34 7f
        E 2 82 39 14 -15
        E 244 82 34 40
        E 73 92 34 7f
        E 63 82 34 45
        E 90 92 34 7f
        E 108 82 34 3b
        E 142 92 34 7f
        E 121 82 34 2a
        e 128 92 39 7f -10
        e 387 82 39 1e -10
        e 93 92 38 7f -14
        e 402 82 38 01 -14
        e 78 92 37 7f -16
        e 353 82 37 01 -16
        e 127 92 2b 7f -5
        e 351 82 2b 01 -5
        e 129 92 37 7f -18
        e 399 82 37 01 -18
        e 81 92 2b 7f -8
        e 279 82 2b 01 -8
        e 201 92 34 7f
        e 0 92 37 7f
        e 160 82 37 2c
        e 2 82 34 38
        e 318 92 34 7f -36
        e 0 92 37 7f -35
        e 932 82 34 5a -36
        e 5 82 37 4a -35
        E 503 92 2f 7f
        E 455 92 3b 7f
        E 4 92 37 7f
        E 13 82 2f 43
        E 337 82 37 35
        E 13 82 3b 25
        E 109 92 2b 7f
        E 468 92 37 7f
        E 9 82 2b 4c
        E 317 82 37 3f
        E 142 92 30 7f
        E 178 82 30 08
        E 45 92 24 7f
        E 173 82 24 39
        E 61 92 28 7f
        E 150 82 28 28
        E 91 92 2b 7f
        E 112 82 2b 35
        E 145 92 30 7f
        E 290 82 30 01
        E 200 92 30 7f
        E 366 82 30 33
        E 146 92 37 7f
        E 351 82 37 01
        E 122 92 2b 7f
        E 406 82 2b 01
        E 78 92 37 7f
        E 329 82 37 22
        E 161 92 37 7f
        E 206 82 37 14
        E 119 92 2f 7f
        E 103 82 2f 32
        E 57 92 30 7f
        E 438 82 30 3f
        E 37 92 3c 7f
        E 6 92 34 7f
        E 0 92 37 7f
        E 392 82 34 0e
        E 0 82 37 26
        E 18 82 3c 44
        E 33 92 2b 7f
        E 251 82 2b 01
        E 70 92 37 7f
        E 156 82 37 23
        E 24 92 34 7f
        E 158 82 34 28
        E 146 92 30 7f
        E 136 82 30 01
        E 37 92 2f 7f
        E 482 82 2f 3d
        E 0 92 3b 7f
        E 2 92 37 7f
        E 234 82 37 01
        E 159 82 3b 2c
        E 63 92 2b 7f
        E 474 82 2b 4d
        E 3 92 3b 7f
        E 7 92 37 7f
        E 339 82 37 04
        E 60 82 3b 3d
        E 85 92 30 7f
        E 422 82 30 01
        E 54 92 3c 7f
        E 202 82 3c 03
        E 121 92 3b 7f
        E 103 82 3b 16
        E 74 92 39 7f
        E 468 92 30 7f
        E 59 82 39 01
        E 365 82 30 0f
        E 51 92 32 7f
        E 376 82 32 34
        E 91 92 32 7f
        E 398 82 32 39
        E 90 92 32 7f
        E 400 82 32 2f
        E 85 92 32 7f
        E 380 82 32 34
        E 135 92 2b 7f
        E 476 82 2b 30
        E 7 92 37 7f
        E 146 82 37 05
        E 196 92 37 7f
        E 68 82 37 48
        E 77 92 37 7f
        E 462 82 37 4e
        E 726 92 33 7f
        E 3 92 3a 7f
        E 2 92 37 7f
        E 105 82 33 21
        E 8 82 37 24
        E 5 82 3a 1c
        E 323 92 33 7f
        E 4 92 3a 7f
        E 1 92 37 7f
        E 100 82 33 37
        E 3 82 37 21
        E 4 82 3a 1c
        E 350 92 33 7f
        E 6 92 37 7f
        E 2 92 3a 7f
        E 110 82 37 25
        E 1 82 33 46
        E 3 82 3a 2d
        E 359 92 33 7f
        E 2 92 3a 7f
        E 2 92 37 7f
        E 97 82 33 37
        E 7 82 37 34
        E 1 82 3a 28
        E 398 92 33 7f
        E 7 92 3a 7f
        E 2 92 37 7f
        E 82 82 33 3a
        E 0 82 37 35
        E 4 82 3a 2a
        E 369 92 33 7f
        E 5 92 37 7f
        E 0 92 3a 7f
        E 100 82 33 3a
        E 4 82 3a 1f
        E 2 82 37 2b
        E 364 92 33 7f
        E 10 92 3a 7f
        E 2 92 37 7f
        E 108 82 33 35
        E 1 82 3a 25
        E 0 82 37 3e
        E 365 92 33 7f
        E 9 92 37 7f
        E 1 92 3a 7f
        E 99 82 37 49
        E 20 82 33 4c
        E 10 82 3a 1d
        E 600 92 3e 7f
        E 5 92 38 7f
        E 0 92 3a 7f
        E 381 82 3a 0a
        E 3 82 38 21
        E 5 82 3e 04
        E 542 92 38 7f
        E 3 92 3e 7f
        E 2 92 3a 7f
        E 430 82 38 30
        E 3 82 3e 2b
        E 8 82 3a 1f
        E 269 92 33 7f
        E 5 92 3a 7f
        E 4 92 37 7f
        E 162 82 33 4a
        E 0 82 37 3d
        E 19 82 3a 26
        E 274 92 33 7f
        E 3 92 37 7f
        E 0 92 3a 7f
        E 121 82 33 2a
        E 6 82 37 2a
        E 24 82 3a 10
        E 340 92 33 7f
        E 1 92 37 7f
        E 0 92 3a 7f
        E 142 82 33 29
        E 6 82 37 2e
        E 2 82 3a 2f
        E 342 92 33 7f
        E 3 92 3a 7f
        E 2 92 37 7f
        E 97 82 37 3f
        E 26 82 3a 25
        E 14 82 33 1c
        E 623 92 3b 7f
        E 2 92 35 7f
        E 6 92 37 7f
        E 3 92 32 7f
        E 387 82 37 2b
        E 1 82 32 35
        E 4 82 35 4c
        E 9 82 3b 2b
        E 522 92 3b 7f
        E 2 92 32 7f
        E 1 92 35 7f
        E 2 92 37 7f
        E 324 82 32 49
        E 6 82 37 2a
        E 10 82 35 43
        E 10 82 3b 21
        E 134 92 30 7f
        E 428 82 30 25
        E 49 92 37 7f
        E 381 82 37 0b
        E 94 92 30 7f
        E 480 82 30 4d
        E 483 92 2c 7f
        E 389 82 2c 01
        E 103 92 38 7f
        E 774 82 38 2a
        E 153 92 38 7f
        E 470 82 38 12
        E 18 92 37 7f
        E 427 82 37 14
        E 48 92 35 7f
        E 449 82 35 01
        E 45 92 33 7f
        E 454 82 33 07
        E 28 92 2f 7f
        E 383 82 2f 19
        E 98 92 30 7f
        E 932 82 30 3f
        E 30 92 38 7f
        E 349 82 38 20
        E 145 92 38 7f
        E 380 82 38 25
        E 100 92 37 7f
        E 352 82 37 43
        E 130 92 37 7f
        E 132 82 37 32
        E 197 92 37 7f
        E 75 82 37 38
        E 70 92 37 7f
        E 496 82 37 5e
        E 470 92 30 7f
        E 290 82 30 31
        E 193 92 37 7f
        E 214 82 37 0e
        E 235 92 30 7f
        E 345 82 30 29
        E 150 92 37 7f
        E 261 82 37 0a
        E 191 92 30 7f
        E 338 82 30 0b
        E 155 92 37 7f
        E 220 82 37 01
        E 268 92 30 7f
        E 275 82 30 39
        E 184 92 30 7f
        E 227 82 30 1e
        E 98 92 34 7f
        E 104 82 34 25
        E 62 92 37 7f
        E 335 82 37 0e
        E 144 92 37 7f
        E 285 82 37 04
        E 223 92 2b 7f
        E 219 82 2b 01
        E 268 92 2b 7f
        E 120 82 2b 2f
        E 168 92 2b 7f
        E 127 82 2b 2c
        E 42 92 30 7f
        E 126 82 30 40
        E 114 92 30 7f
        E 178 82 30 19
        E 59 92 34 7f
        E 157 82 34 37
        E 69 92 37 7f
        E 133 82 37 0c
        E 115 92 3c 7f
        E 358 82 3c 08
        E 112 92 39 7f
        E 470 82 39 01
        E 48 92 34 7f
        E 400 82 34 01
        E 67 92 37 7f
        E 463 82 37 01
        E 12 92 32 7f
        E 412 82 32 01
        E 81 92 35 7f
        E 429 82 35 01
        E 59 92 30 7f
        E 409 82 30 01
        E 46 92 3c 7f
        E 402 82 3c 01
        E 62 92 36 7f
        E 6 92 39 7f
        E 504 82 39 4e
        E 68 82 36 58
        E 390 92 37 7f
        E 304 82 37 1f
        E 160 92 37 7f
        E 324 82 37 01
        E 173 92 37 7f
        E 473 92 2b 7f
        E 10 82 37 01
        E 387 82 2b 1b
        E 64 92 30 7f
        E 439 82 30 05
        E 62 92 3c 7f
        E 421 82 3c 01
        E 61 92 37 7f
        E 424 82 37 09
        E 61 92 34 7f
        E 460 82 34 01
        E 15 92 30 7f
        E 178 82 30 01
        E 153 92 30 7f
        E 120 82 30 3f
        E 47 92 34 7f
        E 215 82 34 3f
        E 97 92 37 7f
        E 149 82 37 29
        E 24 92 3c 7f
        E 417 82 3c 01
        E 49 92 39 7f
        E 485 92 34 7f
        E 1 82 39 22
        E 260 82 34 3e
        E 73 92 34 7f
        E 73 82 34 3c
        E 68 92 34 7f
        E 93 82 34 40
        E 149 92 34 7f
        E 121 82 34 1f
        E 124 92 39 7f
        E 387 82 39 0b
        E 78 92 38 7f
        E 401 82 38 1b
        E 104 92 37 7f
        E 400 82 37 1f
        E 81 92 37 7f
        E 371 82 37 2b
        E 98 92 37 7f
        E 351 82 37 10
        E 125 92 37 7f
        E 340 82 37 01
        E 132 92 34 7f
        E 2 92 37 7f
        E 246 82 37 1f
        E 8 82 34 33
        E 222 92 34 7f
        E 1 92 37 7f
        E 1007 82 34 5c
        E 3 82 37 50
        E 459 b0 7b 00
        GUID {32B2B0E2-FC63-5F4B-A2F1-521563241AEC}
        IGNTEMPO 0 120 4 4
        SRCCOLOR 1115
        VELLANE -1 86 6
        CFGEDITVIEW -5869.77164 6.519054 50 24 0 0 0 0 0 0.5
        KEYSNAP 0
        TRACKSEL 226 0 0 ""
        EVTFILTER 0 -1 -1 -1 -1 0 0 0 0 -1 -1 -1 -1 0 -1 0 -1 -1
        CFGEDIT 1 0 0 0 0 0 1 0 1 1 1 0.25 4 46 1280 777 0 0 2 3 0 0 0 0 1 -0.96 0 1 1 64
      >
      TAKE
      NAME "trombone(s) - National_Anthems_-_Mexico.mid"
      TAKEVOLPAN 0 1 -1
      SOFFS 0 0
      PLAYRATE 1 1 0 -1 0 0.0025
      CHANMODE 0
      GUID {96CA22D3-CE49-BC4A-8A2B-58BAFB0D225D}
      <SOURCE MIDI
        HASDATA 1 480 QN
        POOLEDEVTS {B6D3E6A8-C161-D349-BEFA-77D4C077EA31}
        <X 0 0
          /wN0cm9tYm9uZShzKQ==
        >
        <X 0 0
          /wRTb3VuZCBDYW52YXM=
        >
        e 480 92 30 7f
        e 344 82 30 1c
        e 107 92 37 7f
        e 348 82 37 19
        e 134 92 30 7f
        e 386 82 30 1b
        e 99 92 37 7f
        e 317 82 37 01
        e 139 92 30 7f
        e 373 82 30 2d
        e 113 92 37 7f
        e 320 82 37 01
        e 165 92 30 7f
        e 386 82 30 46
        e 101 92 30 7f
        e 240 82 30 2b
        e 115 92 34 7f
        e 124 82 34 24
        e 17 92 37 7f
        e 335 82 37 2c
        e 121 92 37 7f
        e 420 82 37 01
        e 67 92 2b 7f
        e 402 82 2b 18
        e 85 92 2b 7f
        e 147 82 2b 20
        e 165 92 2b 7f
        e 161 82 2b 31
        e 28 92 30 7f
        e 111 82 30 47
        e 109 92 30 7f
        e 159 82 30 0f
        e 76 92 34 7f
        e 177 82 34 2e
        e 54 92 37 7f
        e 157 82 37 01
        e 92 92 3c 7f
        e 371 82 3c 0d
        e 99 92 39 7f
        e 414 82 39 1e
        e 82 92 34 7f
        e 411 82 34 01
        e 80 92 37 7f
        e 377 82 37 01
        e 101 92 32 7f
        e 415 82 32 1b
        e 55 92 35 7f
        e 327 82 35 01
        e 158 92 30 7f
        e 418 82 30 01
        e 71 92 3c 7f
        e 286 82 3c 09
        e 181 92 39 7f
        e 2 92 36 7f
        e 510 82 36 55
        e 7 82 39 4b
        e 461 92 37 7f
        e 307 82 37 12
        e 173 92 2b 7f
        e 379 82 2b 01
        e 79 92 37 7f
        e 372 82 37 01
        e 119 92 2b 7f
        e 364 82 2b 28
        e 94 92 30 7f
        e 424 82 30 1d
        e 75 92 3c 7f
        e 364 82 3c 1a
        e 111 92 37 7f
        e 404 82 37 01
        e 74 92 34 7f
        e 388 82 34 04
        e 105 92 30 7f
        e 115 82 30 36
        e 189 92 30 7f
        e 140 82 30 48
        e 27 92 34 7f
        e 231 82 34 2f
        e 57 92 37 7f
        e 172 82 37 35
        e 17 92 3c 7f
        e 434 82 3c 01
        e 51 92 39 7f
        e 471 82 39 14
        e 13 92 34 7f
        e 246 82 34 40
        e 73 92 34 7f
        e 63 82 34 45
        e 90 92 34 7f
        e 108 82 34 3b
        e 142 92 34 7f
        e 121 82 34 2a
        e 118 92 39 7f
        e 387 82 39 1e
        e 89 92 38 7f
        e 402 82 38 01
        e 76 92 37 7f
        e 353 82 37 01
        e 138 92 2b 7f
        e 351 82 2b 01
        e 116 92 37 7f
        e 399 82 37 01
        e 91 92 2b 7f
        e 279 82 2b 01
        e 209 92 34 7f
        e 0 92 37 7f
        e 160 82 37 2c
        e 2 82 34 38
        e 282 92 34 7f
        e 1 92 37 7f
        e 931 82 34 5a
        e 6 82 37 4a
        e 538 92 2f 7f
        e 455 92 3b 7f
        e 4 92 37 7f
        e 13 82 2f 43
        e 337 82 37 35
        e 13 82 3b 25
        e 109 92 2b 7f
        e 468 92 37 7f
        e 9 82 2b 4c
        e 317 82 37 3f
        e 142 92 30 7f
        e 178 82 30 08
        e 45 92 24 7f
        e 173 82 24 39
        e 61 92 28 7f
        e 150 82 28 28
        e 91 92 2b 7f
        e 112 82 2b 35
        e 145 92 30 7f
        e 290 82 30 01
        e 200 92 30 7f
        e 366 82 30 33
        e 146 92 37 7f
        e 351 82 37 01
        e 122 92 2b 7f
        e 406 82 2b 01
        e 78 92 37 7f
        e 329 82 37 22
        e 161 92 37 7f
        e 206 82 37 14
        e 119 92 2f 7f
        e 103 82 2f 32
        e 57 92 30 7f
        e 438 82 30 3f
        e 37 92 3c 7f
        e 6 92 34 7f
        e 0 92 37 7f
        e 392 82 34 0e
        e 0 82 37 26
        e 18 82 3c 44
        e 33 92 2b 7f
        e 251 82 2b 01
        e 70 92 37 7f
        e 156 82 37 23
        e 24 92 34 7f
        e 158 82 34 28
        e 146 92 30 7f
        e 136 82 30 01
        e 37 92 2f 7f
        e 482 82 2f 3d
        e 0 92 3b 7f
        e 2 92 37 7f
        e 234 82 37 01
        e 159 82 3b 2c
        e 63 92 2b 7f
        e 474 82 2b 4d
        e 3 92 3b 7f
        e 7 92 37 7f
        e 339 82 37 04
        e 60 82 3b 3d
        e 85 92 30 7f
        e 422 82 30 01
        e 54 92 3c 7f
        e 202 82 3c 03
        e 121 92 3b 7f
        e 103 82 3b 16
        e 74 92 39 7f
        e 468 92 30 7f
        e 59 82 39 01
        e 365 82 30 0f
        e 51 92 32 7f
        e 376 82 32 34
        e 91 92 32 7f
        e 398 82 32 39
        e 90 92 32 7f
        e 400 82 32 2f
        e 85 92 32 7f
        e 380 82 32 34
        e 135 92 2b 7f
        e 476 82 2b 30
        e 7 92 37 7f
        e 146 82 37 05
        e 196 92 37 7f
        e 68 82 37 48
        e 77 92 37 7f
        e 462 82 37 4e
        e 726 92 33 7f
        e 3 92 3a 7f
        e 2 92 37 7f
        e 105 82 33 21
        e 8 82 37 24
        e 5 82 3a 1c
        e 323 92 33 7f
        e 4 92 3a 7f
        e 1 92 37 7f
        e 100 82 33 37
        e 3 82 37 21
        e 4 82 3a 1c
        e 350 92 33 7f
        e 6 92 37 7f
        e 2 92 3a 7f
        e 110 82 37 25
        e 1 82 33 46
        e 3 82 3a 2d
        e 359 92 33 7f
        e 2 92 3a 7f
        e 2 92 37 7f
        e 97 82 33 37
        e 7 82 37 34
        e 1 82 3a 28
        e 398 92 33 7f
        e 7 92 3a 7f
        e 2 92 37 7f
        e 82 82 33 3a
        e 0 82 37 35
        e 4 82 3a 2a
        e 369 92 33 7f
        e 5 92 37 7f
        e 0 92 3a 7f
        e 100 82 33 3a
        e 4 82 3a 1f
        e 2 82 37 2b
        e 364 92 33 7f
        e 10 92 3a 7f
        e 2 92 37 7f
        e 108 82 33 35
        e 1 82 3a 25
        e 0 82 37 3e
        e 365 92 33 7f
        e 9 92 37 7f
        e 1 92 3a 7f
        e 99 82 37 49
        e 20 82 33 4c
        e 10 82 3a 1d
        e 600 92 3e 7f
        e 5 92 38 7f
        e 0 92 3a 7f
        e 381 82 3a 0a
        e 3 82 38 21
        e 5 82 3e 04
        e 542 92 38 7f
        e 3 92 3e 7f
        e 2 92 3a 7f
        e 430 82 38 30
        e 3 82 3e 2b
        e 8 82 3a 1f
        e 269 92 33 7f
        e 5 92 3a 7f
        e 4 92 37 7f
        e 162 82 33 4a
        e 0 82 37 3d
        e 19 82 3a 26
        e 274 92 33 7f
        e 3 92 37 7f
        e 0 92 3a 7f
        e 121 82 33 2a
        e 6 82 37 2a
        e 24 82 3a 10
        e 340 92 33 7f
        e 1 92 37 7f
        e 0 92 3a 7f
        e 142 82 33 29
        e 6 82 37 2e
        e 2 82 3a 2f
        e 342 92 33 7f
        e 3 92 3a 7f
        e 2 92 37 7f
        e 97 82 37 3f
        e 26 82 3a 25
        e 14 82 33 1c
        e 623 92 3b 7f
        e 2 92 35 7f
        e 6 92 37 7f
        e 3 92 32 7f
        e 387 82 37 2b
        e 1 82 32 35
        e 4 82 35 4c
        e 9 82 3b 2b
        e 522 92 3b 7f
        e 2 92 32 7f
        e 1 92 35 7f
        e 2 92 37 7f
        e 324 82 32 49
        e 6 82 37 2a
        e 10 82 35 43
        e 10 82 3b 21
        e 134 92 30 7f
        e 428 82 30 25
        e 49 92 37 7f
        e 381 82 37 0b
        e 94 92 30 7f
        e 480 82 30 4d
        e 483 92 2c 7f
        e 389 82 2c 01
        e 103 92 38 7f
        e 774 82 38 2a
        e 153 92 38 7f
        e 470 82 38 12
        e 18 92 37 7f
        e 427 82 37 14
        e 48 92 35 7f
        e 449 82 35 01
        e 45 92 33 7f
        e 454 82 33 07
        e 28 92 2f 7f
        e 383 82 2f 19
        e 98 92 30 7f
        e 932 82 30 3f
        e 30 92 38 7f
        e 349 82 38 20
        e 145 92 38 7f
        e 380 82 38 25
        e 100 92 37 7f
        e 352 82 37 43
        e 130 92 37 7f
        e 132 82 37 32
        e 197 92 37 7f
        e 75 82 37 38
        e 70 92 37 7f
        e 496 82 37 5e
        e 470 92 30 7f
        e 290 82 30 31
        e 193 92 37 7f
        e 214 82 37 0e
        e 235 92 30 7f
        e 345 82 30 29
        e 150 92 37 7f
        e 261 82 37 0a
        e 191 92 30 7f
        e 338 82 30 0b
        e 155 92 37 7f
        e 220 82 37 01
        e 268 92 30 7f
        e 275 82 30 39
        e 184 92 30 7f
        e 227 82 30 1e
        e 98 92 34 7f
        e 104 82 34 25
        e 62 92 37 7f
        e 335 82 37 0e
        e 144 92 37 7f
        e 285 82 37 04
        e 223 92 2b 7f
        e 219 82 2b 01
        e 268 92 2b 7f
        e 120 82 2b 2f
        e 168 92 2b 7f
        e 127 82 2b 2c
        e 42 92 30 7f
        e 126 82 30 40
        e 114 92 30 7f
        e 178 82 30 19
        e 59 92 34 7f
        e 157 82 34 37
        e 69 92 37 7f
        e 133 82 37 0c
        e 115 92 3c 7f
        e 358 82 3c 08
        e 112 92 39 7f
        e 470 82 39 01
        e 48 92 34 7f
        e 400 82 34 01
        e 67 92 37 7f
        e 463 82 37 01
        e 12 92 32 7f
        e 412 82 32 01
        e 81 92 35 7f
        e 429 82 35 01
        e 59 92 30 7f
        e 409 82 30 01
        e 46 92 3c 7f
        e 402 82 3c 01
        e 62 92 36 7f
        e 6 92 39 7f
        e 504 82 39 4e
        e 68 82 36 58
        e 390 92 37 7f
        e 304 82 37 1f
        e 160 92 37 7f
        e 324 82 37 01
        e 173 92 37 7f
        e 473 92 2b 7f
        e 10 82 37 01
        e 387 82 2b 1b
        e 64 92 30 7f
        e 439 82 30 05
        e 62 92 3c 7f
        e 421 82 3c 01
        e 61 92 37 7f
        e 424 82 37 09
        e 61 92 34 7f
        e 460 82 34 01
        e 15 92 30 7f
        e 178 82 30 01
        e 153 92 30 7f
        e 120 82 30 3f
        e 47 92 34 7f
        e 215 82 34 3f
        e 97 92 37 7f
        e 149 82 37 29
        e 24 92 3c 7f
        e 417 82 3c 01
        e 49 92 39 7f
        e 485 92 34 7f
        e 1 82 39 22
        e 260 82 34 3e
        e 73 92 34 7f
        e 73 82 34 3c
        e 68 92 34 7f
        e 93 82 34 40
        e 149 92 34 7f
        e 121 82 34 1f
        e 124 92 39 7f
        e 387 82 39 0b
        e 78 92 38 7f
        e 401 82 38 1b
        e 104 92 37 7f
        e 400 82 37 1f
        e 81 92 37 7f
        e 371 82 37 2b
        e 98 92 37 7f
        e 351 82 37 10
        e 125 92 37 7f
        e 340 82 37 01
        e 132 92 34 7f
        e 2 92 37 7f
        e 246 82 37 1f
        e 8 82 34 33
        e 222 92 34 7f
        e 1 92 37 7f
        e 1007 82 34 5c
        e 3 82 37 50
        E 459 b0 7b 00
        GUID {B4BCFD73-3342-954C-BAFD-6C9A85436986}
        IGNTEMPO 0 120 4 4
        SRCCOLOR 1161
        VELLANE -1 86 6
        CFGEDITVIEW 0 0 56 22 0 0 0 0 0 0.5
        KEYSNAP 0
        TRACKSEL 226 0 0 ""
        EVTFILTER 0 -1 -1 -1 -1 0 0 0 0 -1 -1 -1 -1 0 -1 0 -1 -1
        CFGEDIT 1 0 0 0 0 0 1 0 1 1 1 0.25 134 98 1414 829 0 0 2 3 0 0 0 0 0 0.5 0 0 1 64
      >
    >
    <ITEM
      POSITION 0
      SNAPOFFS 0
      LENGTH 24
      LOOP 1
      ALLTAKES 0
      FADEIN 1 0 0 1 0 0
      FADEOUT 1 0 0 1 0 0
      MUTE 0
      SEL 0
      YPOS 0.95 0.05
      IGUID {B8714120-E3BB-7A45-9FD4-0B5EBFAEA606}
      IID 1
      NAME "trumpet(s) - National_Anthems_-_Mexico.mid"
      VOLPAN 1 0 1 -1
      SOFFS 0 0
      PLAYRATE 1 1 0 -1 0 0.0025
      CHANMODE 0
      TAKECOLOR 26173599 B
      GUID {02E341F9-6978-D944-8C7B-9C43184A180E}
      <SOURCE MIDI
        HASDATA 1 480 QN
        POOLEDEVTS {0BF7127F-8DC0-5F4A-8413-58037E7C81CB}
        <X 0 0
          /wN0cnVtcGV0KHMp
        >
        <X 0 0
          /wRTb3VuZCBDYW52YXM=
        >
        E 0 90 3c 7f
        E 199 80 3c 3b
        E 103 90 40 7f 14
        E 68 80 40 3e 14
        E 110 90 43 7f
        E 435 80 43 4a
        E 45 90 43 7f
        E 170 80 43 28
        E 132 90 43 7f 30
        E 47 80 43 4d 30
        E 131 90 43 7f -13
        E 380 80 43 42 -13
        E 69 90 43 7f
        E 87 80 43 37
        E 50 90 45 7f
        E 71 80 45 3d
        E 82 90 47 7f
        E 82 80 47 38
        E 107 90 48 7f
        E 978 80 48 4c
        E 14 90 43 7f -17
        E 415 80 43 3a -17
        E 65 90 40 7f -25
        E 181 80 40 03 -25
        E 121 90 40 7f 13
        E 71 80 40 33 13
        E 107 90 3e 7f -14
        E 456 80 3e 01 -14
        E 24 90 40 7f -23
        E 154 80 40 1b -23
        E 148 90 40 7f -12
        E 97 80 40 34 -12
        E 81 90 41 7f -15
        E 459 80 41 29 -15
        E 21 90 43 7f -5
        E 151 80 43 2d -5
        E 151 90 43 7f -2
        E 113 80 43 38 -2
        E 65 90 40 7f -2
        E 474 80 40 46 -2
        E 6 90 3c 7f -6
        E 826 80 3c 4d -6
        E 134 90 48 7f -3
        E 140 80 48 2f -3
        E 162 90 48 7f 18
        E 91 80 48 3c 18
        E 87 90 47 7f 16
        E 480 90 46 7f -5
        E 13 80 47 37 16
        E 159 80 46 2c -5
        E 130 90 46 7f 27
        E 76 80 46 4b 27
        E 102 90 45 7f 12
        E 447 80 45 2f 12
        E 33 90 44 7f -8
        E 149 80 44 44 -8
        E 153 90 44 7f 16
        E 112 80 44 20 16
        E 66 90 43 7f 11
        E 396 80 43 1e 11
        E 84 90 48 7f 17
        E 782 80 48 14 17
        E 178 90 45 7f -25
        E 229 80 45 32 -25
        E 73 90 47 7f -12
        E 78 80 47 37 -12
        E 100 90 48 7f -29
        E 480 90 40 7f
        E 18 80 48 41 -29
        E 247 80 40 37
        E 37 90 41 7f 12
        E 93 80 41 2e 12
        E 85 90 43 7f 5
        E 423 80 43 39 5
        E 32 90 41 7f
        E 119 80 41 43
        E 32 90 40 7f
        E 104 80 40 29
        E 41 90 3e 7f
        E 118 80 3e 40
        e 91 90 3c 7f -24
        e 1211 80 3c 52 -24
        E 214 90 40 7f
        E 189 80 40 0a
        E 126 90 43 7f
        E 118 80 43 2a
        E 54 90 48 7f
        E 422 80 48 31
        E 66 90 48 7f
        E 146 80 48 33
        E 173 90 48 7f
        E 81 80 48 45
        E 83 90 48 7f
        E 389 80 48 35
        E 79 90 48 7f
        E 203 80 48 3d
        E 98 90 4a 7f
        E 85 80 4a 3f
        E 103 90 4c 7f
        E 692 90 4a 7f
        E 13 80 4c 3e
        E 190 80 4a 37
        E 48 90 48 7f
        E 417 80 48 49
        E 55 90 48 7f
        E 148 80 48 32
        E 205 90 48 7f
        E 78 80 48 41
        E 59 90 48 7f
        E 486 90 40 7f
        E 70 80 48 24
        E 123 80 40 16
        E 127 90 45 7f
        E 93 80 45 33
        E 57 90 43 7f
        E 464 90 41 7f
        E 19 80 43 38
        E 111 80 41 31
        E 28 90 40 7f
        E 109 80 40 35
        E 34 90 3e 7f
        E 91 80 3e 39
        E 80 90 3c 7f
        E 1300 80 3c 58
        E 176 90 43 7f
        E 121 80 43 26
        E 206 90 43 7f
        E 80 80 43 43
        E 73 90 43 7f
        E 401 80 43 3c
        E 79 90 43 7f
        E 227 90 4a 7f
        E 1 80 43 2c
        E 192 80 4a 34
        E 50 90 48 7f
        E 223 80 48 44
        E 5 90 47 7f
        E 146 80 47 34
        E 83 90 45 7f
        E 236 90 47 7f
        E 17 80 45 2c
        E 132 80 47 2b
        E 94 90 48 7f
        E 979 90 43 7f
        E 4 80 48 4b
        E 431 80 43 01
        E 69 90 40 7f
        E 226 80 40 09
        E 88 90 43 7f
        E 76 80 43 45
        E 88 90 43 7f
        E 344 80 43 3e
        E 9 90 41 7f
        E 55 80 41 41
        E 61 90 41 7f
        E 246 90 45 7f
        E 5 80 41 2a
        E 141 80 45 2c
        E 95 90 45 7f
        E 227 80 45 41
        E 9 90 43 7f
        E 170 80 43 1b
        E 69 90 47 7f
        E 277 80 47 2b
        E 61 90 45 7f
        E 78 80 45 3a
        E 58 90 43 7f
        E 809 80 43 2e
        E 14 90 41 7f
        E 123 80 41 2b
        E 32 90 40 7f
        E 297 80 40 3b
        E 193 90 43 7f
        E 152 80 43 36
        E 144 90 43 7f
        E 72 80 43 3f
        E 99 90 43 7f
        E 376 80 43 30
        E 81 90 43 7f
        E 178 80 43 12
        E 46 90 4a 7f
        E 178 80 4a 40
        E 77 90 48 7f
        E 241 80 48 3d
        E 7 90 47 7f
        E 162 80 47 26
        E 69 90 45 7f
        E 189 80 45 13
        E 46 90 47 7f
        E 177 80 47 20
        E 74 90 48 7f
        E 248 90 43 7f
        E 25 80 48 04
        E 127 80 43 20
        E 100 90 4c 7f
        E 896 80 4c 20
        E 54 90 4a 7f
        E 191 80 4a 30
        E 51 90 48 7f
        E 146 80 48 35
        E 78 90 47 7f
        E 247 80 47 3d
        E 6 90 48 7f
        E 107 80 48 48
        E 9 90 47 7f
        E 122 80 47 31
        E 5 90 46 7f
        E 194 80 46 37
        E 39 90 47 7f
        E 212 80 47 15
        E 41 90 4a 7f
        E 463 80 4a 39
        E 10 90 48 7f
        E 235 80 48 1d
        E 109 90 45 7f
        E 97 80 45 35
        E 55 90 43 7f
        E 948 80 43 46
        E 455 90 43 7f
        E 194 80 43 21
        E 144 90 43 7f
        E 86 80 43 46
        E 70 90 43 7f
        E 439 80 43 3f
        E 51 90 43 7f
        E 176 80 43 3b
        E 139 90 43 7f
        E 89 80 43 3e
        E 78 90 43 7f
        E 384 80 43 39
        E 87 90 43 7f
        E 191 80 43 3b
        E 131 90 44 7f
        E 141 80 44 47
        E 27 90 46 7f
        E 466 80 46 2e
        E 13 90 4b 7f
        E 927 80 4b 0d
        E 18 90 43 7f
        E 252 80 43 25
        E 85 90 46 7f
        E 61 80 46 46
        E 78 90 46 7f
        E 340 90 44 7f
        E 13 80 46 40
        E 57 80 44 45
        E 72 90 44 7f
        E 234 90 48 7f
        E 19 80 44 16
        E 127 80 48 35
        E 95 90 48 7f
        E 254 80 48 29
        E 4 90 46 7f
        E 215 80 46 35
        E 24 90 4a 7f
        E 297 80 4a 1f
        E 51 90 48 7f
        E 119 80 48 25
        E 19 90 46 7f
        E 761 90 44 7f
        E 24 80 46 44
        E 94 80 44 0e
        E 69 90 43 7f
        E 429 80 43 34
        E 73 90 43 7f
        E 155 80 43 33
        E 179 90 43 7f
        E 115 80 43 3b
        E 45 90 44 7f
        E 213 80 44 41
        E 11 90 43 7f
        E 391 80 43 3c
        E 85 90 43 7f
        E 142 80 43 36
        E 81 90 44 7f
        E 237 80 44 28
        E 20 90 43 7f
        E 415 80 43 3c
        E 64 90 43 7f
        E 182 80 43 20
        E 62 90 48 7f
        E 675 80 48 13
        E 13 90 4a 7f
        E 192 80 4a 1a
        E 50 90 4b 7f
        E 497 80 4b 46
        E 4 90 48 7f
        E 180 80 48 25
        E 159 90 48 7f
        E 76 80 48 46
        E 61 90 48 7f
        E 228 90 3f 7f
        E 31 80 48 43
        E 127 80 3f 34
        E 95 90 3f 7f
        E 143 80 3f 43
        E 86 90 3f 7f
        E 188 80 3f 33
        E 63 90 41 7f
        E 465 80 41 30
        E 1 90 3f 7f
        E 261 80 3f 23
        E 84 90 41 7f
        E 128 80 41 16
        E 26 90 43 7f
        E 473 80 43 01
        E 11 90 47 7f
        E 419 80 47 14
        E 55 90 48 7f
        E 446 80 48 2b
        E 43 90 4a 7f
        E 377 80 4a 28
        E 104 90 4b 7f
        E 225 80 4b 4b
        E 26 90 48 7f
        E 226 80 48 39
        E 9 90 47 7f
        E 220 80 47 12
        E 6 90 48 7f
        E 199 80 48 1a
        E 60 90 4a 7f
        E 472 80 4a 44
        E 4 90 48 7f
        E 173 80 48 2a
        E 161 90 48 7f
        E 132 80 48 2f
        E 12 90 43 7f
        E 1123 80 43 4e
        E 288 90 3c 7f
        E 221 80 3c 01
        E 97 90 40 7f
        E 103 80 40 36
        E 62 90 43 7f
        E 428 80 43 43
        E 62 90 43 7f
        E 222 80 43 30
        E 126 90 43 7f
        E 66 80 43 45
        E 84 90 43 7f
        E 388 80 43 45
        E 77 90 43 7f
        E 116 80 43 3a
        E 31 90 45 7f
        E 122 80 45 19
        E 21 90 47 7f
        E 130 80 47 2b
        E 49 90 48 7f
        E 954 80 48 46
        E 1 90 43 7f
        E 457 80 43 01
        E 33 90 40 7f
        E 159 80 40 0e
        E 173 90 40 7f
        E 110 80 40 35
        E 38 90 3e 7f
        E 490 90 40 7f
        E 20 80 3e 31
        E 161 80 40 12
        E 127 90 40 7f
        E 154 80 40 0d
        E 13 90 41 7f
        E 455 90 43 7f
        E 17 80 41 40
        E 147 80 43 2b
        E 175 90 43 7f
        E 134 80 43 39
        E 25 90 40 7f
        E 467 80 40 41
        E 3 90 3c 7f
        E 827 80 3c 3e
        E 150 90 48 7f
        E 136 80 48 23
        E 176 90 48 7f
        E 96 80 48 3d
        E 59 90 47 7f
        E 16 90 47 00
        E 0 90 47 7f
        E 471 80 47 3d
        E 10 90 46 7f
        E 152 80 46 19
        E 159 90 46 7f
        E 2 90 46 00
        E 0 90 46 7f
        E 74 80 46 4e
        E 82 90 45 7f
        E 458 80 45 31
        E 14 90 44 7f
        E 162 80 44 25
        E 173 90 44 7f
        E 86 80 44 2c
        E 74 90 43 7f
        E 438 80 43 01
        E 29 90 48 7f
        E 879 80 48 13
        E 55 90 45 7f
        E 293 80 45 1c
        E 28 90 47 7f
        E 105 80 47 47
        E 52 90 48 7f
        E 494 90 40 7f
        E 16 80 48 47
        E 161 80 40 21
        E 142 90 41 7f
        E 108 80 41 1c
        E 45 90 43 7f
        E 476 80 43 48
        E 8 90 41 7f
        E 132 80 41 29
        E 23 90 40 7f
        E 103 80 40 25
        E 35 90 3e 7f
        E 93 80 3e 34
        E 76 90 3c 7f
        E 1103 80 3c 4e
        E 369 90 40 7f
        E 170 80 40 14
        E 159 90 43 7f
        E 100 80 43 17
        E 62 90 48 7f
        E 441 80 48 41
        E 53 90 48 7f
        E 119 80 48 22
        E 191 90 48 7f
        E 58 80 48 3c
        E 86 90 48 7f
        E 405 80 48 42
        E 78 90 48 7f
        E 168 80 48 32
        E 145 90 4a 7f
        E 94 80 4a 37
        E 74 90 4c 7f
        E 698 80 4c 3a
        E 25 90 4a 7f
        E 187 80 4a 1d
        E 41 90 48 7f
        E 407 80 48 3e
        E 99 90 48 7f
        E 120 80 48 38
        E 209 90 48 7f
        E 70 80 48 43
        E 74 90 48 7f
        E 464 90 40 7f
        E 23 80 48 17
        E 145 80 40 0f
        E 143 90 45 7f
        E 109 80 45 2d
        E 60 90 43 7f
        E 470 80 43 48
        E 15 90 41 7f
        E 105 80 41 3c
        E 29 90 40 7f
        E 92 80 40 33
        E 56 90 3e 7f
        E 115 80 3e 2a
        E 73 90 3c 7f
        E 1478 80 3c 61
        E 470 b0 7b 00
        GUID {F7DDA6C9-CF28-1345-9DD0-8ED06181BBBE}
        IGNTEMPO 0 120 4 4
        SRCCOLOR 1116
        VELLANE -1 86 6
        CFGEDITVIEW -3513.372695 10.9257 50 24 0 0 0 0 0 0.5
        KEYSNAP 0
        TRACKSEL 226 0 0 ""
        EVTFILTER 0 -1 -1 -1 -1 0 0 0 0 -1 -1 -1 -1 0 -1 0 -1 -1
        CFGEDIT 1 0 0 0 0 0 1 0 1 1 1 0.25 4 46 1280 777 0 0 2 3 0 0 0 0 1 -0.96 0 1 1 64
      >
      TAKE
      NAME "trumpet(s) - National_Anthems_-_Mexico.mid"
      TAKEVOLPAN 0 1 -1
      SOFFS 0 0
      PLAYRATE 1 1 0 -1 0 0.0025
      CHANMODE 0
      GUID {A2F46A72-1DEA-A14D-BE3F-ECD436E79DC8}
      <SOURCE MIDI
        HASDATA 1 480 QN
        POOLEDEVTS {E019621F-B332-5E4D-9C28-7989A017D15B}
        <X 0 0
          /wN0cnVtcGV0KHMp
        >
        <X 0 0
          /wRTb3VuZCBDYW52YXM=
        >
        e 0 90 3c 7f
        e 199 80 3c 3b
        e 117 90 40 7f
        e 68 80 40 3e
        e 96 90 43 7f
        e 435 80 43 4a
        e 45 90 43 7f
        e 170 80 43 28
        e 162 90 43 7f
        e 47 80 43 4d
        e 88 90 43 7f
        e 380 80 43 42
        e 82 90 43 7f
        e 87 80 43 37
        e 50 90 45 7f
        e 71 80 45 3d
        e 82 90 47 7f
        e 82 80 47 38
        e 107 90 48 7f
        e 975 90 43 7f
        e 3 80 48 4c
        e 412 80 43 3a
        e 57 90 40 7f
        e 181 80 40 03
        e 159 90 40 7f
        e 71 80 40 33
        e 80 90 3e 7f
        e 456 80 3e 01
        e 15 90 40 7f
        e 154 80 40 1b
        e 159 90 40 7f
        e 97 80 40 34
        e 78 90 41 7f
        e 459 80 41 29
        e 31 90 43 7f
        e 151 80 43 2d
        e 154 90 43 7f
        e 113 80 43 38
        e 65 90 40 7f
        e 474 80 40 46
        e 2 90 3c 7f
        e 826 80 3c 4d
        e 137 90 48 7f
        e 140 80 48 2f
        e 183 90 48 7f
        e 91 80 48 3c
        e 85 90 47 7f
        e 459 90 46 7f
        e 34 80 47 37
        e 138 80 46 2c
        e 162 90 46 7f
        e 76 80 46 4b
        e 87 90 45 7f
        e 447 80 45 2f
        e 13 90 44 7f
        e 149 80 44 44
        e 177 90 44 7f
        e 112 80 44 20
        e 61 90 43 7f
        e 396 80 43 1e
        e 90 90 48 7f
        e 782 80 48 14
        e 136 90 45 7f
        e 229 80 45 32
        e 86 90 47 7f
        e 78 80 47 37
        e 83 90 48 7f
        e 498 80 48 41
        e 11 90 40 7f
        e 265 80 40 37
        e 49 90 41 7f
        e 93 80 41 2e
        e 78 90 43 7f
        e 423 80 43 39
        e 27 90 41 7f
        e 119 80 41 43
        e 32 90 40 7f
        e 104 80 40 29
        e 41 90 3e 7f
        e 118 80 3e 40
        e 67 90 3c 7f
        e 1211 80 3c 52
        e 238 90 40 7f
        e 189 80 40 0a
        e 126 90 43 7f
        e 118 80 43 2a
        e 54 90 48 7f
        e 422 80 48 31
        e 66 90 48 7f
        e 146 80 48 33
        e 173 90 48 7f
        e 81 80 48 45
        e 83 90 48 7f
        e 389 80 48 35
        e 79 90 48 7f
        e 203 80 48 3d
        e 98 90 4a 7f
        e 85 80 4a 3f
        e 103 90 4c 7f
        e 692 90 4a 7f
        e 13 80 4c 3e
        e 190 80 4a 37
        e 48 90 48 7f
        e 417 80 48 49
        e 55 90 48 7f
        e 148 80 48 32
        e 205 90 48 7f
        e 78 80 48 41
        e 59 90 48 7f
        e 486 90 40 7f
        e 70 80 48 24
        e 123 80 40 16
        e 127 90 45 7f
        e 93 80 45 33
        e 57 90 43 7f
        e 464 90 41 7f
        e 19 80 43 38
        e 111 80 41 31
        e 28 90 40 7f
        e 109 80 40 35
        e 34 90 3e 7f
        e 91 80 3e 39
        e 80 90 3c 7f
        e 1300 80 3c 58
        e 176 90 43 7f
        e 121 80 43 26
        e 206 90 43 7f
        e 80 80 43 43
        e 73 90 43 7f
        e 401 80 43 3c
        e 79 90 43 7f
        e 227 90 4a 7f
        e 1 80 43 2c
        e 192 80 4a 34
        e 50 90 48 7f
        e 223 80 48 44
        e 5 90 47 7f
        e 146 80 47 34
        e 83 90 45 7f
        e 236 90 47 7f
        e 17 80 45 2c
        e 132 80 47 2b
        e 94 90 48 7f
        e 979 90 43 7f
        e 4 80 48 4b
        e 431 80 43 01
        e 69 90 40 7f
        e 226 80 40 09
        e 88 90 43 7f
        e 76 80 43 45
        e 88 90 43 7f
        e 344 80 43 3e
        e 9 90 41 7f
        e 55 80 41 41
        e 61 90 41 7f
        e 246 90 45 7f
        e 5 80 41 2a
        e 141 80 45 2c
        e 95 90 45 7f
        e 227 80 45 41
        e 9 90 43 7f
        e 170 80 43 1b
        e 69 90 47 7f
        e 277 80 47 2b
        e 61 90 45 7f
        e 78 80 45 3a
        e 58 90 43 7f
        e 809 80 43 2e
        e 14 90 41 7f
        e 123 80 41 2b
        e 32 90 40 7f
        e 297 80 40 3b
        e 193 90 43 7f
        e 152 80 43 36
        e 144 90 43 7f
        e 72 80 43 3f
        e 99 90 43 7f
        e 376 80 43 30
        e 81 90 43 7f
        e 178 80 43 12
        e 46 90 4a 7f
        e 178 80 4a 40
        e 77 90 48 7f
        e 241 80 48 3d
        e 7 90 47 7f
        e 162 80 47 26
        e 69 90 45 7f
        e 189 80 45 13
        e 46 90 47 7f
        e 177 80 47 20
        e 74 90 48 7f
        e 248 90 43 7f
        e 25 80 48 04
        e 127 80 43 20
        e 100 90 4c 7f
        e 896 80 4c 20
        e 54 90 4a 7f
        e 191 80 4a 30
        e 51 90 48 7f
        e 146 80 48 35
        e 78 90 47 7f
        e 247 80 47 3d
        e 6 90 48 7f
        e 107 80 48 48
        e 9 90 47 7f
        e 122 80 47 31
        e 5 90 46 7f
        e 194 80 46 37
        e 39 90 47 7f
        e 212 80 47 15
        e 41 90 4a 7f
        e 463 80 4a 39
        e 10 90 48 7f
        e 235 80 48 1d
        e 109 90 45 7f
        e 97 80 45 35
        e 55 90 43 7f
        e 948 80 43 46
        e 455 90 43 7f
        e 194 80 43 21
        e 144 90 43 7f
        e 86 80 43 46
        e 70 90 43 7f
        e 439 80 43 3f
        e 51 90 43 7f
        e 176 80 43 3b
        e 139 90 43 7f
        e 89 80 43 3e
        e 78 90 43 7f
        e 384 80 43 39
        e 87 90 43 7f
        e 191 80 43 3b
        e 131 90 44 7f
        e 141 80 44 47
        e 27 90 46 7f
        e 466 80 46 2e
        e 13 90 4b 7f
        e 927 80 4b 0d
        e 18 90 43 7f
        e 252 80 43 25
        e 85 90 46 7f
        e 61 80 46 46
        e 78 90 46 7f
        e 340 90 44 7f
        e 13 80 46 40
        e 57 80 44 45
        e 72 90 44 7f
        e 234 90 48 7f
        e 19 80 44 16
        e 127 80 48 35
        e 95 90 48 7f
        e 254 80 48 29
        e 4 90 46 7f
        e 215 80 46 35
        e 24 90 4a 7f
        e 297 80 4a 1f
        e 51 90 48 7f
        e 119 80 48 25
        e 19 90 46 7f
        e 761 90 44 7f
        e 24 80 46 44
        e 94 80 44 0e
        e 69 90 43 7f
        e 429 80 43 34
        e 73 90 43 7f
        e 155 80 43 33
        e 179 90 43 7f
        e 115 80 43 3b
        e 45 90 44 7f
        e 213 80 44 41
        e 11 90 43 7f
        e 391 80 43 3c
        e 85 90 43 7f
        e 142 80 43 36
        e 81 90 44 7f
        e 237 80 44 28
        e 20 90 43 7f
        e 415 80 43 3c
        e 64 90 43 7f
        e 182 80 43 20
        e 62 90 48 7f
        e 675 80 48 13
        e 13 90 4a 7f
        e 192 80 4a 1a
        e 50 90 4b 7f
        e 497 80 4b 46
        e 4 90 48 7f
        e 180 80 48 25
        e 159 90 48 7f
        e 76 80 48 46
        e 61 90 48 7f
        e 228 90 3f 7f
        e 31 80 48 43
        e 127 80 3f 34
        e 95 90 3f 7f
        e 143 80 3f 43
        e 86 90 3f 7f
        e 188 80 3f 33
        e 63 90 41 7f
        e 465 80 41 30
        e 1 90 3f 7f
        e 261 80 3f 23
        e 84 90 41 7f
        e 128 80 41 16
        e 26 90 43 7f
        e 473 80 43 01
        e 11 90 47 7f
        e 419 80 47 14
        e 55 90 48 7f
        e 446 80 48 2b
        e 43 90 4a 7f
        e 377 80 4a 28
        e 104 90 4b 7f
        e 225 80 4b 4b
        e 26 90 48 7f
        e 226 80 48 39
        e 9 90 47 7f
        e 220 80 47 12
        e 6 90 48 7f
        e 199 80 48 1a
        e 60 90 4a 7f
        e 472 80 4a 44
        e 4 90 48 7f
        e 173 80 48 2a
        e 161 90 48 7f
        e 132 80 48 2f
        e 12 90 43 7f
        e 1123 80 43 4e
        e 288 90 3c 7f
        e 221 80 3c 01
        e 97 90 40 7f
        e 103 80 40 36
        e 62 90 43 7f
        e 428 80 43 43
        e 62 90 43 7f
        e 222 80 43 30
        e 126 90 43 7f
        e 66 80 43 45
        e 84 90 43 7f
        e 388 80 43 45
        e 77 90 43 7f
        e 116 80 43 3a
        e 31 90 45 7f
        e 122 80 45 19
        e 21 90 47 7f
        e 130 80 47 2b
        e 49 90 48 7f
        e 954 80 48 46
        e 1 90 43 7f
        e 457 80 43 01
        e 33 90 40 7f
        e 159 80 40 0e
        e 173 90 40 7f
        e 110 80 40 35
        e 38 90 3e 7f
        e 490 90 40 7f
        e 20 80 3e 31
        e 161 80 40 12
        e 127 90 40 7f
        e 154 80 40 0d
        e 13 90 41 7f
        e 455 90 43 7f
        e 17 80 41 40
        e 147 80 43 2b
        e 175 90 43 7f
        e 134 80 43 39
        e 25 90 40 7f
        e 467 80 40 41
        e 3 90 3c 7f
        e 827 80 3c 3e
        e 150 90 48 7f
        e 136 80 48 23
        e 176 90 48 7f
        e 96 80 48 3d
        e 59 90 47 7f
        e 16 90 47 00
        e 0 90 47 7f
        e 471 80 47 3d
        e 10 90 46 7f
        e 152 80 46 19
        e 159 90 46 7f
        e 2 90 46 00
        e 0 90 46 7f
        e 74 80 46 4e
        e 82 90 45 7f
        e 458 80 45 31
        e 14 90 44 7f
        e 162 80 44 25
        e 173 90 44 7f
        e 86 80 44 2c
        e 74 90 43 7f
        e 438 80 43 01
        e 29 90 48 7f
        e 879 80 48 13
        e 55 90 45 7f
        e 293 80 45 1c
        e 28 90 47 7f
        e 105 80 47 47
        e 52 90 48 7f
        e 494 90 40 7f
        e 16 80 48 47
        e 161 80 40 21
        e 142 90 41 7f
        e 108 80 41 1c
        e 45 90 43 7f
        e 476 80 43 48
        e 8 90 41 7f
        e 132 80 41 29
        e 23 90 40 7f
        e 103 80 40 25
        e 35 90 3e 7f
        e 93 80 3e 34
        e 76 90 3c 7f
        e 1103 80 3c 4e
        e 369 90 40 7f
        e 170 80 40 14
        e 159 90 43 7f
        e 100 80 43 17
        e 62 90 48 7f
        e 441 80 48 41
        e 53 90 48 7f
        e 119 80 48 22
        e 191 90 48 7f
        e 58 80 48 3c
        e 86 90 48 7f
        e 405 80 48 42
        e 78 90 48 7f
        e 168 80 48 32
        e 145 90 4a 7f
        e 94 80 4a 37
        e 74 90 4c 7f
        e 698 80 4c 3a
        e 25 90 4a 7f
        e 187 80 4a 1d
        e 41 90 48 7f
        e 407 80 48 3e
        e 99 90 48 7f
        e 120 80 48 38
        e 209 90 48 7f
        e 70 80 48 43
        e 74 90 48 7f
        e 464 90 40 7f
        e 23 80 48 17
        e 145 80 40 0f
        e 143 90 45 7f
        e 109 80 45 2d
        e 60 90 43 7f
        e 470 80 43 48
        e 15 90 41 7f
        e 105 80 41 3c
        e 29 90 40 7f
        e 92 80 40 33
        e 56 90 3e 7f
        e 115 80 3e 2a
        e 73 90 3c 7f
        e 1478 80 3c 61
        E 470 b0 7b 00
        GUID {A146AE4B-148F-1142-9606-B476F7E2C6E7}
        IGNTEMPO 0 120 4 4
        SRCCOLOR 1162
        VELLANE -1 86 6
        CFGEDITVIEW 0 0 50 24 0 0 0 0 0 0.5
        KEYSNAP 0
        TRACKSEL 226 0 0 ""
        EVTFILTER 0 -1 -1 -1 -1 0 0 0 0 -1 -1 -1 -1 0 -1 0 -1 -1
        CFGEDIT 1 0 0 0 0 0 1 0 1 1 1 0.25 134 98 1414 829 0 0 2 3 0 0 0 0 0 0.5 0 0 1 64
      >
    >
  >
  <TRACK {6CCBCBB4-02B5-3C4F-AE95-8DD80AEC4A17}
    NAME "ch2,4 (send)"
    PEAKCOL 16576
    BEAT -1
    AUTOMODE 0
    VOLPAN 1 0 -1 -1 1
    MUTESOLO 0 0 0
    IPHASE 0
    ISBUS 0 0
    BUSCOMP 0 0
    SHOWINMIX 1 0.6667 0.657005 1 0.5 0 0 0
    FREEMODE 0
    SEL 0
    REC 0 0 0 0 0 0 0
    VU 2
    MIDICTL -1 1
    TRACKHEIGHT 117 0
    INQ 0 0 0 0.5 100 0 0 100
    NCHAN 2
    FX 1
    TRACKID {6CCBCBB4-02B5-3C4F-AE95-8DD80AEC4A17}
    PERF 0
    MIDIOUT -1
    MAINSEND 1 0
    <FXCHAIN
      WNDRECT 32 359 724 387
      SHOW 0
      LASTSEL 0
      DOCKED 0
    >
    <ITEM
      POSITION 0
      SNAPOFFS 0
      LENGTH 84.5
      LOOP 1
      ALLTAKES 0
      FADEIN 1 0 0 1 0 0
      FADEOUT 1 0 0 1 0 0
      MUTE 0
      SEL 0
      YPOS 0.392157 0.05
      IGUID {1EDA73C8-3E92-5142-A701-5007336BCE49}
      IID 4
      NAME "tuba(s) - National_Anthems_-_Mexico.mid"
      VOLPAN 1 0 1 -1
      SOFFS 0 0
      PLAYRATE 1 1 0 -1 0 0.0025
      CHANMODE 0
      TAKECOLOR 26173599 B
      GUID {20B25B1F-EC42-F340-9DAE-DCF350B9E876}
      <SOURCE MIDI
        HASDATA 1 480 QN
        POOLEDEVTS {62148ACA-A461-E046-B9C2-9364E2A800A3}
        <X 0 0
          /wN0dWJhKHMp
        >
        <X 0 0
          /wRTb3VuZCBDYW52YXM=
        >
        e 480 93 24 7f -5
        e 313 83 24 2a -5
        e 167 93 1f 7f -34
        e 327 83 1f 38 -34
        e 153 93 24 7f -12
        e 342 83 24 29 -12
        e 138 93 1f 7f -24
        e 212 83 1f 2a -24
        e 268 93 24 7f -54
        e 450 83 24 11 -54
        e 30 93 1f 7f -45
        e 242 83 1f 11 -45
        e 238 93 24 7f -33
        e 384 83 24 34 -33
        e 96 93 24 7f 1
        e 147 83 24 3a 1
        e 153 93 28 7f 17
        e 116 83 28 2e 17
        e 64 93 2b 7f -3
        e 340 83 2b 24 -3
        e 140 93 2b 7f -23
        e 441 83 2b 01 -23
        e 39 93 1f 7f -12
        e 411 83 1f 49 -12
        e 69 93 1f 7f -2
        e 146 83 1f 44 -2
        e 154 93 1f 7f 23
        e 145 83 1f 0f 23
        e 35 93 24 7f
        e 145 83 24 3b
        e 95 93 24 7f -3
        e 165 83 24 3a -3
        e 75 93 28 7f -23
        e 186 83 28 3c -23
        e 54 93 2b 7f -35
        e 166 83 2b 0f -35
        e 74 93 30 7f -37
        e 353 83 30 01 -37
        e 127 93 2d 7f -18
        e 401 83 2d 01 -18
        e 79 93 28 7f -13
        e 411 83 28 15 -13
        e 69 93 2b 7f
        e 281 83 2b 17
        e 199 93 26 7f -9
        e 376 83 26 32 -9
        e 104 93 29 7f -10
        e 281 83 29 2d -10
        e 199 93 24 7f -15
        e 449 83 24 25 -15
        e 31 93 30 7f -13
        e 369 83 30 01 -13
        e 111 93 2a 7f -16
        e 441 83 2a 65 -16
        e 519 93 2b 7f
        e 409 83 2b 01
        e 71 93 1f 7f 3
        e 395 83 1f 12 3
        e 85 93 2b 7f -4
        e 420 83 2b 01 -4
        e 60 93 1f 7f -9
        e 302 83 1f 2c -9
        e 178 93 24 7f -40
        e 462 83 24 0a -40
        e 18 93 30 7f -15
        e 325 83 30 18 -15
        e 155 93 2b 7f -22
        e 408 83 2b 1a -22
        e 72 93 28 7f -10
        e 456 83 28 15 -10
        e 24 93 26 7f -20
        e 146 83 26 23 -20
        e 154 93 26 7f -17
        e 166 83 26 46 -17
        e 14 93 28 7f -4
        e 166 83 28 3f -4
        e 134 93 2b 7f -19
        e 108 83 2b 38 -19
        e 72 93 30 7f -6
        e 469 83 30 2d -6
        e 11 93 2d 7f -6
        e 424 83 2d 01 -6
        e 56 93 28 7f
        e 284 83 28 42
        e 16 93 28 7f 59
        e 72 83 28 44 59
        e 108 93 28 7f 15
        e 104 83 28 38 15
        e 136 93 28 7f -8
        e 129 83 28 37 -8
        e 111 93 21 7f -7
        e 382 83 21 33 -7
        e 98 93 20 7f -24
        e 364 83 20 01 -24
        e 116 93 1f 7f -14
        e 460 83 1f 0c -14
        e 20 93 2b 7f -19
        e 386 83 2b 01 -19
        e 94 93 1f 7f -7
        e 441 83 1f 01 -7
        e 39 93 2b 7f -6
        e 323 83 2b 01 -6
        e 157 93 24 7f -39
        e 294 83 24 2c -39
        e 186 93 24 7f -31
        e 810 83 24 5a -31
        e 630 93 2f 7f
        e 867 83 2f 04
        e 93 93 2b 7f -29
        e 904 83 2b 01 -29
        e 56 93 30 7f -32
        e 142 83 30 23 -32
        e 98 93 24 7f -37
        e 164 83 24 34 -37
        e 76 93 28 7f -47
        e 149 83 28 38 -47
        e 91 93 2b 7f -56
        e 143 83 2b 34 -56
        e 97 93 30 7f -43
        e 390 83 30 01 -43
        e 90 93 24 7f -32
        e 343 83 24 42 -32
        e 137 93 1f 7f 9
        e 327 83 1f 2d 9
        e 153 93 2b 7f 2
        e 322 83 2b 01 2
        e 158 93 1f 7f -12
        e 372 83 1f 03 -12
        e 108 93 2b 7f -14
        e 231 83 2b 1b -14
        e 69 93 23 7f 35
        e 98 83 23 42 35
        e 82 93 24 7f
        e 410 83 24 37
        e 70 93 28 7f -29
        e 455 83 28 27 -29
        e 25 93 2b 7f -40
        e 161 83 2b 2f -40
        e 139 93 2b 7f -25
        e 134 83 2b 12 -25
        e 46 93 28 7f -31
        e 232 83 28 25 -31
        e 68 93 2b 7f 3
        e 133 83 2b 10 3
        e 47 93 2f 7f
        e 883 83 2f 01
        e 77 93 2b 7f -45
        e 895 83 2b 01 -45
        e 65 93 24 7f -43
        e 416 83 24 43 -43
        e 64 93 24 7f -34
        e 231 83 24 2f -34
        e 69 93 23 7f 6
        e 127 83 23 29 6
        e 53 93 21 7f -31
        e 461 83 21 2b -31
        e 19 93 24 7f -20
        e 406 83 24 18 -20
        e 74 93 26 7f -33
        e 401 83 26 3a -33
        e 79 93 26 7f -37
        e 417 83 26 3a -37
        e 63 93 26 7f -38
        e 426 83 26 48 -38
        e 54 93 26 7f -8
        e 480 93 1f 7f 17
        e 2 83 26 17 -8
        e 477 83 1f 44 17
        e 1 93 2b 7f 9
        e 190 83 2b 34 9
        e 110 93 2b 7f 49
        e 75 83 2b 46 49
        e 105 93 2b 7f 6
        e 480 83 2b 54 6
        e 480 93 27 7f
        e 324 83 27 19
        e 156 93 2e 7f -12
        e 296 83 2e 2f -12
        e 184 93 27 7f -32
        e 334 83 27 19 -32
        e 146 93 2e 7f -23
        e 274 83 2e 30 -23
        e 206 93 27 7f -15
        e 357 83 27 24 -15
        e 123 93 2e 7f 15
        e 261 83 2e 3a 15
        e 219 93 27 7f -6
        e 450 83 27 01 -6
        e 30 93 2e 7f 10
        e 276 83 2e 2a 10
        e 204 93 29 7f 10
        e 363 83 29 47 10
        e 117 93 29 7f 17
        e 390 83 29 39 17
        e 90 93 22 7f -33
        e 374 83 22 3e -33
        e 106 93 22 7f -29
        e 432 83 22 31 -29
        e 48 93 27 7f -33
        e 296 83 27 2a -33
        e 184 93 2e 7f -48
        e 265 83 2e 1c -48
        e 215 93 27 7f -40
        e 349 83 27 04 -40
        e 131 93 2e 7f -34
        e 293 83 2e 2d -34
        e 187 93 26 7f
        e 348 83 26 40
        e 132 93 26 7f -13
        e 416 83 26 26 -13
        e 64 93 23 7f -12
        e 363 83 23 2e -12
        e 117 93 23 7f -8
        e 346 83 23 3e -8
        e 134 93 24 7f -7
        e 338 83 24 42 -7
        e 142 93 2b 7f -1
        e 363 83 2b 01 -1
        e 117 93 24 7f -23
        e 519 83 24 5b -23
        e 441 93 20 7f -3
        e 951 83 20 4c -3
        e 9 93 2c 7f -21
        e 867 83 2c 17 -21
        e 93 93 2b 7f -32
        e 428 83 2b 10 -32
        e 52 93 29 7f -29
        e 405 83 29 38 -29
        e 75 93 27 7f -22
        e 412 83 27 44 -22
        e 68 93 23 7f -15
        e 407 83 23 1c -15
        e 73 93 24 7f 2
        e 847 83 24 01 2
        e 113 93 20 7f
        e 418 83 20 0e
        e 62 93 2c 7f -1
        e 346 83 2c 01 -1
        e 134 93 2b 7f -1
        e 475 83 2b 30 -1
        e 5 93 1f 7f -12
        e 211 83 1f 39 -12
        e 89 93 1f 7f 15
        e 66 83 1f 52 15
        e 114 93 1f 7f -25
        e 568 83 1f 5e -25
        e 392 93 24 7f
        e 359 83 24 0f
        e 121 93 2b 7f -10
        e 351 83 2b 19 -10
        e 129 93 24 7f -23
        e 354 83 24 1a -23
        e 126 93 2b 7f -34
        e 346 83 2b 1d -34
        e 134 93 24 7f -31
        e 416 83 24 2d -31
        e 64 93 1f 7f -16
        e 382 83 1f 01 -16
        e 98 93 24 7f -12
        e 332 83 24 37 -12
        e 148 93 24 7f -35
        e 215 83 24 25 -35
        e 85 93 28 7f 6
        e 134 83 28 2f 6
        e 46 93 2b 7f -12
        e 377 83 2b 28 -12
        e 103 93 2b 7f -15
        e 448 83 2b 01 -15
        e 32 93 1f 7f 7
        e 406 83 1f 3c 7
        e 74 93 1f 7f 6
        e 132 83 1f 01 6
        e 168 93 1f 7f 6
        e 145 83 1f 37 6
        e 35 93 24 7f 12
        e 118 83 24 4f 12
        e 122 93 24 7f -4
        e 198 83 24 34 -4
        e 42 93 28 7f -11
        e 147 83 28 34 -11
        e 93 93 2b 7f -22
        e 198 83 2b 52 -22
        e 42 93 30 7f -22
        e 392 83 30 05 -22
        e 88 93 2d 7f -6
        e 467 83 2d 01 -6
        e 13 93 28 7f 1
        e 383 83 28 2a 1
        e 97 93 2b 7f -7
        e 431 83 2b 01 -7
        e 49 93 26 7f -1
        e 426 83 26 14 -1
        e 54 93 29 7f -16
        e 391 83 29 24 -16
        e 89 93 24 7f -11
        e 441 83 24 01 -11
        e 39 93 30 7f -12
        e 395 83 30 01 -12
        e 85 93 2a 7f -48
        e 741 83 2a 35 -48
        e 219 93 2b 7f -28
        e 354 83 2b 3f -28
        e 126 93 2b 7f -32
        e 405 83 2b 01 -32
        e 75 93 1f 7f -23
        e 372 83 1f 23 -23
        e 108 93 1f 7f -15
        e 349 83 1f 15 -15
        e 131 93 24 7f -44
        e 462 83 24 22 -44
        e 18 93 30 7f -22
        e 398 83 30 01 -22
        e 82 93 2b 7f -18
        e 430 83 2b 09 -18
        e 50 93 28 7f -10
        e 435 83 28 01 -10
        e 45 93 24 7f -5
        e 179 83 24 2b -5
        e 121 93 24 7f 6
        e 139 83 24 3c 6
        e 41 93 28 7f 6
        e 203 83 28 3a 6
        e 97 93 2b 7f 1
        e 135 83 2b 05 1
        e 45 93 30 7f -3
        e 434 83 30 01 -3
        e 46 93 2d 7f -23
        e 480 93 28 7f -10
        e 10 83 2d 32 -23
        e 252 83 28 44 -10
        e 38 93 28 7f 2
        e 63 83 28 47 2
        e 117 93 28 7f -17
        e 92 83 28 41 -17
        e 148 93 28 7f -19
        e 110 83 28 4e -19
        e 130 93 21 7f -6
        e 378 83 21 19 -6
        e 102 93 20 7f -13
        e 416 83 20 30 -13
        e 64 93 1f 7f -18
        e 375 83 1f 2e -18
        e 105 93 1f 7f -29
        e 467 83 1f 1b -29
        e 13 93 2b 7f -19
        e 354 83 2b 35 -19
        e 126 93 2b 7f -24
        e 442 83 2b 01 -24
        e 38 93 24 7f -40
        e 373 83 24 1c -40
        e 107 93 24 7f -12
        e 992 83 24 68 -12
        E 448 b0 7b 00
        GUID {6334BFE6-063C-CF48-9449-58DC46E7E125}
        IGNTEMPO 0 120 4 4
        SRCCOLOR 1118
        VELLANE -1 86 6
        CFGEDITVIEW -5536.689174 6.957666 50 24 0 0 0 0 0 0.5
        KEYSNAP 0
        TRACKSEL 226 0 0 ""
        EVTFILTER 0 -1 -1 -1 -1 0 0 0 0 -1 -1 -1 -1 0 -1 0 -1 -1
        CFGEDIT 1 0 0 0 0 0 1 0 1 1 1 0.25 4 46 1280 777 0 0 2 3 0 0 0 0 1 -0.96 0 1 1 64
      >
      TAKE
      NAME "tuba(s) - National_Anthems_-_Mexico.mid"
      TAKEVOLPAN 0 1 -1
      SOFFS 0 0
      PLAYRATE 1 1 0 -1 0 0.0025
      CHANMODE 0
      GUID {F7F5EC53-3B2F-1D4F-A5D8-16CEB71B4804}
      <SOURCE MIDI
        HASDATA 1 480 QN
        POOLEDEVTS {7EEB1CB8-56DF-3A46-AAA0-36D146F83233}
        <X 0 0
          /wN0dWJhKHMp
        >
        <X 0 0
          /wRTb3VuZCBDYW52YXM=
        >
        e 480 93 24 7f -5
        e 313 83 24 2a -5
        e 167 93 1f 7f -34
        e 327 83 1f 38 -34
        e 153 93 24 7f -12
        e 342 83 24 29 -12
        e 138 93 1f 7f -24
        e 212 83 1f 2a -24
        e 268 93 24 7f -54
        e 450 83 24 11 -54
        e 30 93 1f 7f -45
        e 242 83 1f 11 -45
        e 238 93 24 7f -33
        e 384 83 24 34 -33
        e 96 93 24 7f 1
        e 147 83 24 3a 1
        e 153 93 28 7f 17
        e 116 83 28 2e 17
        e 64 93 2b 7f -3
        e 340 83 2b 24 -3
        e 140 93 2b 7f -23
        e 441 83 2b 01 -23
        e 39 93 1f 7f -12
        e 411 83 1f 49 -12
        e 69 93 1f 7f -2
        e 146 83 1f 44 -2
        e 154 93 1f 7f 23
        e 145 83 1f 0f 23
        e 35 93 24 7f
        e 145 83 24 3b
        e 95 93 24 7f -3
        e 165 83 24 3a -3
        e 75 93 28 7f -23
        e 186 83 28 3c -23
        e 54 93 2b 7f -35
        e 166 83 2b 0f -35
        e 74 93 30 7f -37
        e 353 83 30 01 -37
        e 127 93 2d 7f -18
        e 401 83 2d 01 -18
        e 79 93 28 7f -13
        e 411 83 28 15 -13
        e 69 93 2b 7f
        e 281 83 2b 17
        e 199 93 26 7f -9
        e 376 83 26 32 -9
        e 104 93 29 7f -10
        e 281 83 29 2d -10
        e 199 93 24 7f -15
        e 449 83 24 25 -15
        e 31 93 30 7f -13
        e 369 83 30 01 -13
        e 111 93 2a 7f -16
        e 441 83 2a 65 -16
        e 519 93 2b 7f
        e 409 83 2b 01
        e 71 93 1f 7f 3
        e 395 83 1f 12 3
        e 85 93 2b 7f -4
        e 420 83 2b 01 -4
        e 60 93 1f 7f -9
        e 302 83 1f 2c -9
        e 178 93 24 7f -40
        e 462 83 24 0a -40
        e 18 93 30 7f -15
        e 325 83 30 18 -15
        e 155 93 2b 7f -22
        e 408 83 2b 1a -22
        e 72 93 28 7f -10
        e 456 83 28 15 -10
        e 24 93 26 7f -20
        e 146 83 26 23 -20
        e 154 93 26 7f -17
        e 166 83 26 46 -17
        e 14 93 28 7f -4
        e 166 83 28 3f -4
        e 134 93 2b 7f -19
        e 108 83 2b 38 -19
        e 72 93 30 7f -6
        e 469 83 30 2d -6
        e 11 93 2d 7f -6
        e 424 83 2d 01 -6
        e 56 93 28 7f
        e 284 83 28 42
        e 16 93 28 7f 59
        e 72 83 28 44 59
        e 108 93 28 7f 15
        e 104 83 28 38 15
        e 136 93 28 7f -8
        e 129 83 28 37 -8
        e 111 93 21 7f -7
        e 382 83 21 33 -7
        e 98 93 20 7f -24
        e 364 83 20 01 -24
        e 116 93 1f 7f -14
        e 460 83 1f 0c -14
        e 20 93 2b 7f -19
        e 386 83 2b 01 -19
        e 94 93 1f 7f -7
        e 441 83 1f 01 -7
        e 39 93 2b 7f -6
        e 323 83 2b 01 -6
        e 157 93 24 7f -39
        e 294 83 24 2c -39
        e 186 93 24 7f -31
        e 810 83 24 5a -31
        e 630 93 2f 7f
        e 867 83 2f 04
        e 93 93 2b 7f -29
        e 904 83 2b 01 -29
        e 56 93 30 7f -32
        e 142 83 30 23 -32
        e 98 93 24 7f -37
        e 164 83 24 34 -37
        e 76 93 28 7f -47
        e 149 83 28 38 -47
        e 91 93 2b 7f -56
        e 143 83 2b 34 -56
        e 97 93 30 7f -43
        e 390 83 30 01 -43
        e 90 93 24 7f -32
        e 343 83 24 42 -32
        e 137 93 1f 7f 9
        e 327 83 1f 2d 9
        e 153 93 2b 7f 2
        e 322 83 2b 01 2
        e 158 93 1f 7f -12
        e 372 83 1f 03 -12
        e 108 93 2b 7f -14
        e 231 83 2b 1b -14
        e 69 93 23 7f 35
        e 98 83 23 42 35
        e 82 93 24 7f
        e 410 83 24 37
        e 70 93 28 7f -29
        e 455 83 28 27 -29
        e 25 93 2b 7f -40
        e 161 83 2b 2f -40
        e 139 93 2b 7f -25
        e 134 83 2b 12 -25
        e 46 93 28 7f -31
        e 232 83 28 25 -31
        e 68 93 2b 7f 3
        e 133 83 2b 10 3
        e 47 93 2f 7f
        e 883 83 2f 01
        e 77 93 2b 7f -45
        e 895 83 2b 01 -45
        e 65 93 24 7f -43
        e 416 83 24 43 -43
        e 64 93 24 7f -34
        e 231 83 24 2f -34
        e 69 93 23 7f 6
        e 127 83 23 29 6
        e 53 93 21 7f -31
        e 461 83 21 2b -31
        e 19 93 24 7f -20
        e 406 83 24 18 -20
        e 74 93 26 7f -33
        e 401 83 26 3a -33
        e 79 93 26 7f -37
        e 417 83 26 3a -37
        e 63 93 26 7f -38
        e 426 83 26 48 -38
        e 54 93 26 7f -8
        e 480 93 1f 7f 17
        e 2 83 26 17 -8
        e 477 83 1f 44 17
        e 1 93 2b 7f 9
        e 190 83 2b 34 9
        e 110 93 2b 7f 49
        e 75 83 2b 46 49
        e 105 93 2b 7f 6
        e 480 83 2b 54 6
        e 480 93 27 7f
        e 324 83 27 19
        e 156 93 2e 7f -12
        e 296 83 2e 2f -12
        e 184 93 27 7f -32
        e 334 83 27 19 -32
        e 146 93 2e 7f -23
        e 274 83 2e 30 -23
        e 206 93 27 7f -15
        e 357 83 27 24 -15
        e 123 93 2e 7f 15
        e 261 83 2e 3a 15
        e 219 93 27 7f -6
        e 450 83 27 01 -6
        e 30 93 2e 7f 10
        e 276 83 2e 2a 10
        e 204 93 29 7f 10
        e 363 83 29 47 10
        e 117 93 29 7f 17
        e 390 83 29 39 17
        e 90 93 22 7f -33
        e 374 83 22 3e -33
        e 106 93 22 7f -29
        e 432 83 22 31 -29
        e 48 93 27 7f -33
        e 296 83 27 2a -33
        e 184 93 2e 7f -48
        e 265 83 2e 1c -48
        e 215 93 27 7f -40
        e 349 83 27 04 -40
        e 131 93 2e 7f -34
        e 293 83 2e 2d -34
        e 187 93 26 7f
        e 348 83 26 40
        e 132 93 26 7f -13
        e 416 83 26 26 -13
        e 64 93 23 7f -12
        e 363 83 23 2e -12
        e 117 93 23 7f -8
        e 346 83 23 3e -8
        e 134 93 24 7f -7
        e 338 83 24 42 -7
        e 142 93 2b 7f -1
        e 363 83 2b 01 -1
        e 117 93 24 7f -23
        e 519 83 24 5b -23
        e 441 93 20 7f -3
        e 951 83 20 4c -3
        e 9 93 2c 7f -21
        e 867 83 2c 17 -21
        e 93 93 2b 7f -32
        e 428 83 2b 10 -32
        e 52 93 29 7f -29
        e 405 83 29 38 -29
        e 75 93 27 7f -22
        e 412 83 27 44 -22
        e 68 93 23 7f -15
        e 407 83 23 1c -15
        e 73 93 24 7f 2
        e 847 83 24 01 2
        e 113 93 20 7f
        e 418 83 20 0e
        e 62 93 2c 7f -1
        e 346 83 2c 01 -1
        e 134 93 2b 7f -1
        e 475 83 2b 30 -1
        e 5 93 1f 7f -12
        e 211 83 1f 39 -12
        e 89 93 1f 7f 15
        e 66 83 1f 52 15
        e 114 93 1f 7f -25
        e 568 83 1f 5e -25
        e 392 93 24 7f
        e 359 83 24 0f
        e 121 93 2b 7f -10
        e 351 83 2b 19 -10
        e 129 93 24 7f -23
        e 354 83 24 1a -23
        e 126 93 2b 7f -34
        e 346 83 2b 1d -34
        e 134 93 24 7f -31
        e 416 83 24 2d -31
        e 64 93 1f 7f -16
        e 382 83 1f 01 -16
        e 98 93 24 7f -12
        e 332 83 24 37 -12
        e 148 93 24 7f -35
        e 215 83 24 25 -35
        e 85 93 28 7f 6
        e 134 83 28 2f 6
        e 46 93 2b 7f -12
        e 377 83 2b 28 -12
        e 103 93 2b 7f -15
        e 448 83 2b 01 -15
        e 32 93 1f 7f 7
        e 406 83 1f 3c 7
        e 74 93 1f 7f 6
        e 132 83 1f 01 6
        e 168 93 1f 7f 6
        e 145 83 1f 37 6
        e 35 93 24 7f 12
        e 118 83 24 4f 12
        e 122 93 24 7f -4
        e 198 83 24 34 -4
        e 42 93 28 7f -11
        e 147 83 28 34 -11
        e 93 93 2b 7f -22
        e 198 83 2b 52 -22
        e 42 93 30 7f -22
        e 392 83 30 05 -22
        e 88 93 2d 7f -6
        e 467 83 2d 01 -6
        e 13 93 28 7f 1
        e 383 83 28 2a 1
        e 97 93 2b 7f -7
        e 431 83 2b 01 -7
        e 49 93 26 7f -1
        e 426 83 26 14 -1
        e 54 93 29 7f -16
        e 391 83 29 24 -16
        e 89 93 24 7f -11
        e 441 83 24 01 -11
        e 39 93 30 7f -12
        e 395 83 30 01 -12
        e 85 93 2a 7f -48
        e 741 83 2a 35 -48
        e 219 93 2b 7f -28
        e 354 83 2b 3f -28
        e 126 93 2b 7f -32
        e 405 83 2b 01 -32
        e 75 93 1f 7f -23
        e 372 83 1f 23 -23
        e 108 93 1f 7f -15
        e 349 83 1f 15 -15
        e 131 93 24 7f -44
        e 462 83 24 22 -44
        e 18 93 30 7f -22
        e 398 83 30 01 -22
        e 82 93 2b 7f -18
        e 430 83 2b 09 -18
        e 50 93 28 7f -10
        e 435 83 28 01 -10
        e 45 93 24 7f -5
        e 179 83 24 2b -5
        e 121 93 24 7f 6
        e 139 83 24 3c 6
        e 41 93 28 7f 6
        e 203 83 28 3a 6
        e 97 93 2b 7f 1
        e 135 83 2b 05 1
        e 45 93 30 7f -3
        e 434 83 30 01 -3
        e 46 93 2d 7f -23
        e 480 93 28 7f -10
        e 10 83 2d 32 -23
        e 252 83 28 44 -10
        e 38 93 28 7f 2
        e 63 83 28 47 2
        e 117 93 28 7f -17
        e 92 83 28 41 -17
        e 148 93 28 7f -19
        e 110 83 28 4e -19
        e 130 93 21 7f -6
        e 378 83 21 19 -6
        e 102 93 20 7f -13
        e 416 83 20 30 -13
        e 64 93 1f 7f -18
        e 375 83 1f 2e -18
        e 105 93 1f 7f -29
        e 467 83 1f 1b -29
        e 13 93 2b 7f -19
        e 354 83 2b 35 -19
        e 126 93 2b 7f -24
        e 442 83 2b 01 -24
        e 38 93 24 7f -40
        e 373 83 24 1c -40
        e 107 93 24 7f -12
        e 992 83 24 68 -12
        E 448 b0 7b 00
        GUID {5A4D114F-518E-F046-94DF-E64B94D320D2}
        IGNTEMPO 0 120 4 4
        SRCCOLOR 1163
        VELLANE -1 86 6
        CFGEDITVIEW -475.632926 80.492351 78 23 0 0 0 0 0 0.5
        KEYSNAP 0
        TRACKSEL 226 0 0 ""
        EVTFILTER 0 -1 -1 -1 -1 0 0 0 0 -1 -1 -1 -1 0 -1 0 -1 -1
        CFGEDIT 1 0 0 0 0 0 1 0 1 1 1 0.16666667 557 389 1837 1120 0 0 2 3 0 0 0 0 0 -1 0 1 1 64
      >
    >
    <ITEM
      POSITION 0
      SNAPOFFS 0
      LENGTH 84.5
      LOOP 1
      ALLTAKES 0
      FADEIN 1 0 0 1 0 0
      FADEOUT 1 0 0 1 0 0
      MUTE 0
      SEL 0
      YPOS 0.588235 0.05
      IGUID {B33A250E-067C-204E-8AE5-117FC03B96C4}
      IID 2
      NAME "fr. horn(s) - National_Anthems_-_Mexico.mid"
      VOLPAN 1 0 1 -1
      SOFFS 0 0
      PLAYRATE 1 1 0 -1 0 0.0025
      CHANMODE 0
      TAKECOLOR 26173599 B
      GUID {CF8D8336-92D0-0947-80A2-A0C77ABB9D9F}
      <SOURCE MIDI
        HASDATA 1 480 QN
        POOLEDEVTS {051242C0-1DB6-3C4D-A294-C18D90F14AFC}
        <X 0 0
          /wNmci4gaG9ybihzKQ==
        >
        <X 0 0
          /wRTb3VuZCBDYW52YXM=
        >
        E 0 91 3c 7f
        E 278 81 3c 16
        E 22 91 40 7f -7
        E 111 81 40 32 -7
        E 69 91 3c 7f -6
        E 0 91 40 7f -7
        E 418 81 3c 2b -6
        E 0 81 40 39 -7
        E 62 91 3c 7f -8
        E 0 91 40 7f -12
        E 194 81 40 27 -12
        E 3 81 3c 0d -8
        E 103 91 3c 7f 3
        E 0 91 40 7f 6
        E 99 81 40 13 6
        E 9 81 3c 21 3
        E 72 91 3c 7f 7
        E 0 91 40 7f 8
        E 420 81 3c 2f 7
        E 20 81 40 14 8
        E 16 91 37 7f
        E 120 81 37 1a
        E 15 91 39 7f
        E 125 81 39 29
        E 12 91 3b 7f
        E 153 81 3b 4d
        E 25 91 3c 7f
        E 487 91 43 7f
        E 1 91 40 7f
        E 62 81 43 45
        E 9 81 40 38
        E 78 91 43 7f
        E 5 91 40 7f
        E 59 81 43 4b
        E 1 81 40 31
        E 81 91 40 7f
        E 1 91 43 7f
        E 58 81 43 3b
        E 9 81 40 37
        E 109 91 40 7f
        E 1 91 43 7f
        E 398 81 3c 06
        E 3 81 43 3f
        E 23 81 40 36
        E 109 91 3c 7f -22
        E 206 81 3c 13 -22
        E 94 91 3c 7f -10
        E 149 81 3c 3d -10
        E 31 91 3b 7f
        E 429 81 3b 40
        E 51 91 3c 7f -10
        E 196 81 3c 29 -10
        E 104 91 3c 7f -7
        E 156 81 3c 37 -7
        E 24 91 3e 7f -11
        E 465 81 3e 20 -11
        E 15 91 3b 7f 29
        E 0 91 3e 7f 16
        E 114 81 3e 1b 16
        E 4 81 3b 01 29
        E 182 91 3b 7f 18
        E 0 91 3e 7f 18
        E 108 81 3b 01 18
        E 0 81 3e 2e 18
        E 72 91 3c 7f
        E 8 91 40 7f
        E 284 81 3c 0a
        E 26 81 40 2c
        E 40 91 37 7f
        E 1 91 3e 7f
        E 103 81 37 27
        E 0 81 3e 2c
        E 32 91 34 7f
        E 1 91 3c 7f
        E 812 81 3c 4b
        E 2 81 34 5b
        E 131 91 3c 7f -30
        E 0 91 40 7f -25
        E 0 91 45 7f -27
        E 184 81 3c 2a -30
        E 23 81 40 0f -25
        E 3 81 45 01 -27
        E 92 91 3c 7f 1
        E 0 91 40 7f
        E 0 91 45 7f 4
        E 76 81 40 21
        E 9 81 3c 2f 1
        E 3 81 45 21 4
        E 90 91 3b 7f -24
        E 0 91 40 7f -24
        E 0 91 44 7f -29
        E 386 81 40 38 -24
        E 13 81 44 41 -29
        E 51 81 3b 1f -24
        E 30 91 3a 7f -17
        E 0 91 40 7f -10
        E 0 91 43 7f -15
        E 214 81 3a 31 -17
        E 1 81 43 36 -15
        E 9 81 40 1b -10
        E 78 91 3a 7f 16
        E 0 91 40 7f 24
        E 0 91 43 7f 21
        E 89 81 40 2b 24
        E 1 81 3a 35 16
        E 10 81 43 42 21
        E 78 91 39 7f 28
        E 0 91 3e 7f
        E 0 91 42 7f
        E 419 81 39 27 28
        E 36 81 3e 1a
        E 23 81 42 3e
        E 2 91 38 7f 30
        E 0 91 3e 7f 30
        E 0 91 41 7f 29
        E 136 81 38 34 30
        E 26 81 3e 14 30
        E 0 81 41 36 29
        E 140 91 38 7f 6
        E 0 91 3e 7f 16
        E 0 91 41 7f 14
        E 107 81 3e 3d 16
        E 1 81 38 52 6
        E 3 81 41 4c 14
        E 67 91 37 7f
        E 0 91 3c 7f 2
        E 0 91 40 7f 1
        E 314 81 3c 11 2
        E 51 81 40 0b 1
        E 60 81 37 2b
        E 55 91 3c 7f -11
        E 0 91 40 7f -5
        E 0 91 43 7f -13
        E 308 81 3c 0d -11
        E 56 81 43 01 -13
        E 80 81 40 01 -5
        E 36 91 39 7f -26
        E 0 91 3c 7f -13
        E 0 91 3f 7f -25
        E 381 81 39 1f -26
        E 99 91 39 7f -31
        E 26 81 3f 4a -25
        E 3 81 3c 50 -13
        E 242 81 39 2c -31
        E 31 91 3b 7f -21
        E 127 81 3b 3b -21
        E 51 91 3c 7f
        E 0 91 40 7f 7
        E 0 91 43 7f 4
        E 421 81 3c 3b
        E 23 81 40 11 7
        E 5 81 43 39 4
        E 31 91 3c 7f -2
        E 386 81 3c 01 -2
        E 94 91 3b 7f -13
        E 0 91 3e 7f -7
        E 378 81 3e 33 -7
        E 87 81 3b 3b -13
        E 5 91 3e 7f
        E 135 91 3c 7f
        E 5 81 3e 37
        E 136 91 37 7f
        E 3 81 3c 32
        E 149 81 37 4d
        E 43 91 34 7f
        E 499 91 3c 7f -15
        E 0 91 40 7f -8
        E 0 91 43 7f -7
        E 76 81 34 5e
        E 118 81 43 2e -7
        E 2 81 40 20 -8
        E 6 81 3c 28 -15
        E 100 91 3c 7f -5
        E 0 91 40 7f -2
        E 0 91 43 7f -3
        E 87 81 3c 3d -5
        E 3 81 40 1b -2
        E 2 81 43 32 -3
        E 86 91 3c 7f -28
        E 0 91 40 7f -20
        E 0 91 43 7f -22
        E 440 81 43 45 -22
        E 6 81 40 3c -20
        E 7 81 3c 21 -28
        E 27 91 34 7f -18
        E 273 81 34 38 -18
        E 29 91 37 7f -28
        E 131 81 37 44 -28
        E 47 91 3c 7f
        E 0 91 40 7f
        E 0 91 43 7f
        E 441 81 40 3a
        E 5 81 43 44
        E 11 81 3c 2f
        E 23 91 3c 7f 7
        E 0 91 40 7f 10
        E 0 91 43 7f 9
        E 232 81 3c 3a 7
        E 16 81 40 2f 10
        E 0 81 43 3f 9
        E 54 91 3c 7f 12
        E 0 91 40 7f 16
        E 0 91 43 7f 13
        E 86 81 3c 39 12
        E 16 81 43 42 13
        E 2 81 40 2e 16
        E 74 91 3c 7f -8
        E 0 91 40 7f
        E 0 91 43 7f -3
        E 323 81 40 1c
        E 29 81 43 1b -3
        E 10 81 3c 3a -8
        E 118 91 3c 7f -42
        E 0 91 40 7f -38
        E 0 91 45 7f -38
        E 283 81 3c 25 -42
        E 11 81 40 2a -38
        E 8 91 3e 7f -17
        E 5 81 45 39 -38
        E 80 81 3e 39 -17
        E 93 91 40 7f -15
        E 0 91 44 7f -18
        E 62 91 3b 7f 32
        E 547 81 3b 37 32
        E 63 81 44 32 -18
        E 13 81 40 30 -15
        E 35 91 3b 7f 11
        E 0 91 3e 7f 11
        E 0 91 44 7f 3
        E 140 81 3b 2a 11
        E 17 81 3e 20 11
        E 1 81 44 2c 3
        E 82 91 39 7f 28
        E 0 91 3c 7f -15
        E 0 91 40 7f -18
        E 0 91 45 7f -13
        E 327 81 39 45 28
        E 20 81 40 3c -18
        E 29 81 3c 34 -15
        E 27 81 45 01 -13
        E 77 91 3c 7f -26
        E 0 91 3f 7f -31
        E 0 91 42 7f -23
        E 222 81 3c 30 -26
        E 2 81 42 3a -23
        E 5 81 3f 41 -31
        E 73 91 3c 7f -25
        E 0 91 3f 7f
        E 0 91 42 7f
        E 107 81 3c 41 -25
        E 5 81 3f 21
        E 10 81 42 3e
        E 56 91 3c 7f -33
        E 0 91 40 7f -32
        E 0 91 43 7f -30
        E 426 81 40 29 -32
        E 0 81 43 43 -30
        E 10 81 3c 2e -33
        E 44 91 3c 7f -2
        E 0 91 40 7f 2
        E 153 81 3c 37 -2
        E 24 81 40 24 2
        E 125 91 3c 7f -20
        E 0 91 40 7f -24
        E 114 81 3c 29 -20
        E 23 81 40 1c -24
        E 41 91 3b 7f -12
        E 0 91 3e 7f -15
        E 339 81 3e 1d -15
        E 37 81 3b 4e -12
        E 74 91 3e 7f
        E 113 81 3e 43
        E 12 91 3c 7f
        E 149 91 37 7f
        E 6 81 3c 44
        E 177 81 37 3a
        E 53 91 34 7f
        E 364 81 34 31
        e 116 91 37 7f -15
        e 0 91 3c 7f -15
        e 0 91 40 7f -18
        e 778 81 3c 4a -15
        e 4 81 37 4d -15
        e 7 81 40 4a -18
        E 642 91 3e 7f
        E 2 91 41 7f
        E 397 81 41 48
        E 5 81 3e 3b
        E 81 91 41 7f
        E 1 91 3e 7f
        E 376 81 3e 2a
        E 4 81 41 42
        E 65 91 41 7f
        E 5 91 3e 7f
        E 367 81 41 20
        E 3 81 3e 27
        E 86 91 41 7f
        E 3 91 3e 7f
        E 299 81 3e 19
        E 29 81 41 1b
        E 134 91 40 7f
        E 4 91 43 7f
        E 1 91 3c 7f
        E 386 81 43 01
        E 10 81 3c 01
        E 9 81 40 0c
        E 102 91 40 7f
        E 5 91 3c 7f
        E 1 91 43 7f
        E 291 81 40 1a
        E 61 81 43 1b
        E 7 81 3c 01
        E 85 91 37 7f
        E 0 91 40 7f
        E 449 81 40 04
        E 1 81 37 39
        E 68 91 3c 7f
        E 298 81 3c 17
        E 19 91 40 7f
        E 101 81 40 29
        E 78 91 40 7f
        E 261 81 40 1e
        E 62 91 3e 7f
        E 82 81 3e 26
        E 80 91 3e 7f
        E 215 81 3e 0f
        E 3 91 41 7f
        E 161 81 41 01
        E 89 91 41 7f
        E 243 81 41 3f
        E 5 91 40 7f
        E 221 81 40 09
        E 10 91 43 7f
        E 252 81 43 27
        E 94 91 41 7f
        E 112 81 41 39
        E 19 91 40 7f
        E 764 81 40 2e
        E 23 91 3e 7f
        E 114 81 3e 21
        E 50 91 3c 7f
        E 426 81 3c 20
        E 75 91 40 7f
        E 206 81 40 27
        E 100 91 40 7f
        E 95 81 40 38
        E 95 91 41 7f
        E 1 91 3e 7f
        E 381 81 41 23
        E 7 81 3e 1c
        E 80 91 3e 7f
        E 0 91 41 7f
        E 365 81 41 29
        E 13 81 3e 18
        E 81 91 3e 7f
        E 1 91 41 7f
        E 394 81 41 1e
        E 11 81 3e 17
        E 90 91 41 7f
        E 1 91 3e 7f
        E 361 81 3e 1f
        E 52 81 41 24
        E 61 91 3c 7f
        E 0 91 40 7f
        E 350 81 40 01
        E 82 81 3c 2a
        E 55 91 43 7f
        E 1 91 40 7f
        E 206 81 43 49
        E 17 81 40 3e
        E 93 91 44 7f
        E 10 91 3e 7f
        E 8 91 40 7f
        E 52 81 40 2a
        E 5 81 3e 30
        E 3 81 44 37
        E 74 91 45 7f
        E 2 91 40 7f
        E 3 91 3c 7f
        E 384 81 40 2a
        E 13 81 45 34
        E 43 81 3c 29
        E 34 91 40 7f
        E 3 91 45 7f
        E 364 81 40 0d
        E 32 81 45 29
        E 76 91 3e 7f
        E 1 91 43 7f
        E 842 81 3e 0b
        E 11 81 43 39
        E 117 91 42 7f
        E 7 91 3e 7f
        E 0 91 45 7f
        E 338 81 3e 31
        E 1 81 45 16
        E 9 81 42 01
        E 95 91 42 7f
        E 2 91 3c 7f
        E 7 91 45 7f
        E 191 81 45 27
        E 4 81 42 18
        E 26 81 3c 25
        E 133 91 42 7f
        E 7 91 45 7f
        E 7 91 3c 7f
        E 74 81 42 1e
        E 8 81 45 1d
        E 27 81 3c 0b
        E 45 91 3e 7f
        E 2 91 3b 7f
        E 482 91 43 7f
        E 170 81 43 4b
        E 157 91 43 7f
        E 62 81 43 48
        E 99 91 43 7f
        E 373 81 43 3f
        E 50 81 3b 47
        E 12 81 3e 01
        E 45 91 43 7f
        E 158 81 43 36
        E 122 91 43 7f
        E 148 81 43 4e
        E 262 91 37 7f
        E 6 91 3f 7f
        E 4 91 3a 7f
        E 113 81 3a 01
        E 39 81 37 21
        E 6 81 3f 01
        E 320 91 3a 7f
        E 0 91 3f 7f
        E 9 91 37 7f
        E 121 81 3a 13
        E 6 81 3f 22
        E 19 81 37 01
        E 301 91 3f 7f
        E 2 91 3a 7f
        E 2 91 37 7f
        E 159 81 3a 0e
        E 4 81 3f 2f
        E 8 81 37 1f
        E 295 91 37 7f
        E 4 91 3f 7f
        E 2 91 3a 7f
        E 139 81 3a 15
        E 12 81 37 1a
        E 2 81 3f 01
        E 331 91 37 7f
        E 3 91 3f 7f
        E 3 91 3a 7f
        E 163 81 3a 01
        E 8 81 3f 15
        E 11 81 37 14
        E 321 91 3f 7f
        E 4 91 3a 7f
        E 2 91 37 7f
        E 169 81 3f 1d
        E 0 81 3a 15
        E 0 81 37 1a
        E 293 91 37 7f
        E 0 91 3f 7f
        E 2 91 3a 7f
        E 115 81 37 3b
        E 3 81 3a 29
        E 5 81 3f 47
        E 117 91 3f 7f
        E 301 81 3f 34
        E 16 91 43 7f
        E 104 81 43 48
        E 72 91 43 7f
        E 320 81 43 3b
        E 20 91 41 7f
        E 67 81 41 40
        E 52 91 41 7f
        E 229 81 41 28
        E 6 91 44 7f
        E 160 81 44 3c
        E 70 91 44 7f
        E 221 81 44 35
        E 13 91 43 7f
        E 241 81 43 23
        E 6 91 46 7f
        E 307 81 46 14
        E 51 91 44 7f
        E 113 81 44 2c
        E 18 91 43 7f
        E 818 91 41 7f
        E 3 81 43 38
        E 121 91 3f 7f
        E 2 81 41 43
        E 452 81 3f 45
        E 40 91 43 7f
        E 222 81 43 31
        E 114 91 43 7f
        E 112 81 43 16
        E 62 91 44 7f
        E 216 81 44 2d
        E 29 91 43 7f
        E 321 81 43 3e
        E 132 91 43 7f
        E 170 81 43 3c
        E 79 91 44 7f
        E 219 81 44 36
        E 6 91 43 7f
        E 341 81 43 28
        E 147 91 43 7f
        E 203 81 43 45
        E 275 91 43 7f
        E 1 91 3f 7f
        E 108 81 3f 01
        E 7 81 43 2b
        E 124 91 3f 7f
        E 3 91 43 7f
        E 451 81 43 3f
        E 18 81 3f 31
        E 203 91 43 7f
        E 1 91 3f 7f
        E 112 81 3f 21
        E 63 81 43 2d
        E 67 91 3f 7f
        E 4 91 3c 7f
        E 210 81 3f 2c
        E 21 81 3c 25
        E 142 91 3f 7f
        E 5 91 3c 7f
        E 62 81 3f 3e
        E 11 81 3c 20
        E 80 91 3f 7f
        E 4 91 3c 7f
        E 138 81 3f 24
        E 10 81 3c 2a
        E 73 91 3c 7f
        E 140 81 3c 23
        E 99 91 3c 7f
        E 145 81 3c 30
        E 97 91 3c 7f
        E 137 81 3c 2c
        E 95 91 3e 7f
        E 455 81 3e 0d
        E 41 91 3c 7f
        E 359 81 3c 27
        E 136 91 3a 7f
        E 4 91 3e 7f
        E 372 81 3e 01
        E 74 81 3a 01
        E 36 91 3e 7f
        E 2 91 43 7f
        E 364 81 43 2c
        E 67 81 3e 15
        E 23 91 43 7f
        E 4 91 3c 7f
        E 390 81 43 30
        E 66 81 3c 47
        E 31 91 41 7f
        E 0 91 43 7f
        E 365 81 43 1f
        E 62 81 41 01
        E 57 91 3f 7f
        E 4 91 43 7f
        E 890 81 43 16
        E 2 81 3f 01
        E 60 91 42 7f
        E 1 91 3c 7f
        E 3 91 3e 7f
        E 406 81 3c 24
        E 9 81 3e 29
        E 14 81 42 4a
        E 55 91 42 7f
        E 3 91 3c 7f
        E 2 91 3e 7f
        E 105 81 3e 30
        E 51 81 3c 46
        E 34 81 42 34
        E 157 91 3c 7f
        E 3 91 3e 7f
        E 0 91 42 7f
        E 85 81 3e 37
        E 1 81 3c 2b
        E 15 81 42 3b
        E 17 91 3a 7f
        E 12 91 3e 7f
        E 470 81 3a 4c
        E 4 91 43 7f
        E 7 81 3e 4d
        E 210 81 43 43
        E 117 91 43 7f
        E 95 81 43 47
        E 43 91 43 7f
        E 515 81 43 65
        E 453 91 3c 7f
        E 0 91 40 7f
        E 4 91 37 7f
        E 412 81 40 3d
        E 3 81 37 36
        E 5 81 3c 25
        E 56 91 40 7f
        E 1 91 3c 7f
        E 1 91 37 7f
        E 202 81 37 24
        E 8 81 3c 19
        E 7 81 40 27
        E 110 91 37 7f
        E 6 91 40 7f
        E 3 91 3c 7f
        E 71 81 37 34
        E 10 81 40 2a
        E 3 81 3c 2c
        E 61 91 37 7f
        E 5 91 40 7f
        E 3 91 3c 7f
        E 360 81 37 3f
        E 39 81 40 22
        E 2 81 3c 1f
        E 65 91 37 7f
        E 113 81 37 1a
        E 14 91 39 7f
        E 107 81 39 12
        E 23 91 3b 7f
        E 134 81 3b 01
        E 47 91 3c 7f
        E 519 91 40 7f
        E 1 91 43 7f
        E 55 81 40 3d
        E 7 81 43 42
        E 74 91 43 7f
        E 2 91 40 7f
        E 57 81 43 40
        E 1 81 40 3a
        E 87 91 40 7f
        E 1 91 43 7f
        E 77 81 43 2b
        E 5 81 40 28
        E 88 91 40 7f
        E 1 91 43 7f
        E 363 81 3c 1f
        E 62 81 40 05
        E 11 81 43 2b
        E 53 91 37 7f
        E 2 91 3c 7f
        E 163 81 37 27
        E 33 81 3c 20
        E 113 91 37 7f
        E 4 91 3c 7f
        E 103 81 3c 4c
        E 22 81 37 46
        E 44 91 3b 7f
        E 481 91 3c 7f
        E 1 81 3b 30
        E 181 81 3c 32
        E 132 91 3c 7f
        E 168 81 3c 3c
        E 12 91 3e 7f
        E 419 81 3e 31
        E 70 91 3b 7f
        E 0 91 3e 7f
        E 140 81 3e 0a
        E 1 81 3b 2c
        E 145 91 3e 7f
        E 4 91 3b 7f
        E 136 81 3e 1d
        E 24 81 3b 11
        E 23 91 3c 7f
        E 4 91 40 7f
        E 328 81 3c 01
        E 19 81 40 30
        E 15 91 37 7f
        E 1 91 3e 7f
        E 98 81 37 0c
        E 7 81 3e 2b
        E 25 91 34 7f
        E 9 91 3c 7f
        E 702 81 34 4f
        E 33 81 3c 32
        E 162 91 40 7f
        E 1 91 3c 7f
        E 1 91 45 7f
        E 194 81 45 18
        E 8 81 40 0a
        E 4 81 3c 0e
        E 113 91 3c 7f
        E 2 91 45 7f
        E 2 91 40 7f
        E 68 81 40 2d
        E 7 81 3c 30
        E 28 81 45 33
        E 89 91 3b 7f
        E 3 91 44 7f
        E 2 91 40 7f
        E 345 81 40 01
        E 78 81 3b 2b
        E 9 81 44 3e
        E 50 91 3a 7f
        E 0 91 40 7f
        E 1 91 43 7f
        E 176 81 3a 2f
        E 17 81 40 01
        E 3 81 43 19
        E 100 91 3a 7f
        E 1 91 43 7f
        E 4 91 40 7f
        E 92 81 3a 1a
        E 28 81 40 10
        E 3 81 43 3b
        E 28 91 39 7f
        E 3 91 42 7f
        E 3 91 3e 7f
        E 398 81 3e 01
        E 2 81 39 1d
        E 29 81 42 3d
        E 42 91 38 7f
        E 14 91 3e 7f
        E 2 91 41 7f
        E 156 81 38 3c
        E 7 81 41 28
        E 13 81 3e 21
        E 136 91 38 7f
        E 1 91 3e 7f
        E 2 91 41 7f
        E 82 81 41 49
        E 18 81 38 3c
        E 8 81 3e 31
        E 65 91 37 7f
        E 7 91 40 7f
        E 17 91 3c 7f
        E 366 81 40 18
        E 2 81 3c 3c
        E 63 81 37 4a
        E 22 91 40 7f
        E 1 91 3c 7f
        E 1 91 43 7f
        E 291 81 40 38
        E 90 81 43 36
        E 16 81 3c 2f
        E 88 91 39 7f
        E 1 91 3c 7f
        E 3 91 3f 7f
        E 369 81 39 47
        E 72 91 39 7f
        E 235 81 3f 4d
        E 48 81 3c 19
        E 9 81 39 31
        E 12 91 3b 7f
        E 105 81 3b 51
        E 101 91 3c 7f
        E 3 91 40 7f
        E 0 91 43 7f
        E 332 81 3c 48
        E 121 91 3c 7f
        E 13 81 43 10
        E 4 81 40 22
        E 366 81 3c 30
        E 85 91 3b 7f
        E 3 91 3e 7f
        E 346 81 3e 31
        E 68 81 3b 2f
        E 55 91 3e 7f
        E 133 91 3c 7f
        E 26 81 3e 13
        E 146 91 37 7f
        E 7 81 3c 39
        E 171 91 34 7f
        E 4 81 37 42
        E 486 81 34 5e
        E 7 91 43 7f
        E 1 91 3c 7f
        E 1 91 40 7f
        E 162 81 40 0a
        E 16 81 43 23
        E 4 81 3c 01
        E 136 91 3c 7f
        E 2 91 40 7f
        E 0 91 43 7f
        E 94 81 40 27
        E 7 81 43 3d
        E 4 81 3c 1c
        E 67 91 40 7f
        E 0 91 43 7f
        E 2 91 3c 7f
        E 331 81 40 36
        E 28 81 43 25
        E 15 81 3c 05
        E 110 91 40 7f
        E 295 81 40 3f
        E 1 91 43 7f
        E 71 81 43 47
        E 92 91 40 7f
        E 5 91 3c 7f
        E 3 91 43 7f
        E 434 81 43 43
        E 1 81 40 3f
        E 0 81 3c 31
        E 51 91 43 7f
        E 2 91 40 7f
        E 2 91 3c 7f
        E 172 81 43 33
        E 6 81 40 39
        E 6 81 3c 15
        E 136 91 3c 7f
        E 1 91 40 7f
        E 1 91 43 7f
        E 94 81 3c 14
        E 0 81 40 29
        E 3 81 43 3b
        E 70 91 40 7f
        E 1 91 43 7f
        E 3 91 3c 7f
        E 344 81 40 14
        E 22 81 3c 1d
        E 19 81 43 3e
        E 69 91 45 7f
        E 2 91 3c 7f
        E 2 91 40 7f
        E 203 81 3c 2c
        E 94 91 3e 7f
        E 1 81 40 41
        E 77 81 3e 38
        E 40 81 45 26
        E 58 91 3b 7f
        E 5 91 40 7f
        E 2 91 44 7f
        E 622 81 40 42
        E 32 81 44 4d
        E 8 81 3b 44
        E 52 91 44 7f
        E 1 91 3e 7f
        E 5 91 3b 7f
        E 152 81 3b 29
        E 21 81 3e 2b
        E 13 81 44 3d
        E 48 91 3c 7f
        E 6 91 40 7f
        E 0 91 45 7f
        E 321 81 40 2e
        E 53 81 3c 01
        E 59 81 45 1e
        E 36 91 42 7f
        E 3 91 3f 7f
        E 5 91 3c 7f
        E 199 81 42 2b
        E 0 81 3f 39
        E 8 81 3c 21
        E 107 91 3f 7f
        E 4 91 42 7f
        E 11 91 3c 7f
        E 86 81 3c 18
        E 4 81 3f 26
        E 14 81 42 20
        E 48 91 43 7f
        E 4 91 3c 7f
        E 1 91 40 7f
        E 384 81 40 24
        E 22 81 3c 27
        E 5 81 43 39
        E 93 91 3c 7f
        E 3 91 40 7f
        E 191 81 3c 25
        E 89 91 45 7f
        E 4 91 3c 7f
        E 9 81 40 0e
        E 81 81 3c 26
        E 23 81 45 27
        E 37 91 3b 7f
        E 7 91 3e 7f
        E 292 81 3e 36
        E 90 81 3b 49
        E 71 91 3e 7f
        E 148 91 3c 7f
        E 10 81 3e 25
        E 147 81 3c 37
        E 1 91 37 7f
        E 189 91 34 7f
        E 10 81 37 4c
        E 482 91 37 7f
        E 5 81 34 4d
        E 6 91 40 7f
        E 1 91 3c 7f
        E 975 81 37 5d
        E 0 81 40 5c
        E 1 81 3c 56
        E 477 b0 7b 00
        GUID {015A5F26-9393-3E48-A1E8-044E9C69E340}
        IGNTEMPO 0 120 4 4
        SRCCOLOR 1117
        VELLANE -1 86 6
        CFGEDITVIEW -4056 9.467456 50 24 0 0 0 0 0 0.5
        KEYSNAP 0
        TRACKSEL 226 0 0 ""
        EVTFILTER 0 -1 -1 -1 -1 0 0 0 0 -1 -1 -1 -1 0 -1 0 -1 -1
        CFGEDIT 1 0 0 0 0 0 1 0 1 1 1 0.25 4 46 1280 777 0 0 2 3 0 0 0 0 1 -0.96 0 1 1 64
      >
      TAKE
      NAME "fr. horn(s) - National_Anthems_-_Mexico.mid"
      TAKEVOLPAN 0 1 -1
      SOFFS 0 0
      PLAYRATE 1 1 0 -1 0 0.0025
      CHANMODE 0
      GUID {60F7F07E-1D5C-FA42-B5A9-FD66625944A9}
      <SOURCE MIDI
        HASDATA 1 480 QN
        POOLEDEVTS {839DD2C7-B213-9B4C-92E7-A5D974E50058}
        <X 0 0
          /wNmci4gaG9ybihzKQ==
        >
        <X 0 0
          /wRTb3VuZCBDYW52YXM=
        >
        e 0 91 3c 7f
        e 278 81 3c 16
        e 15 91 40 7f
        e 111 81 40 32
        e 69 91 40 7f
        e 1 91 3c 7f
        e 417 81 40 39
        e 1 81 3c 2b
        e 56 91 40 7f
        e 4 91 3c 7f
        e 190 81 40 27
        e 7 81 3c 0d
        e 114 91 3c 7f
        e 3 91 40 7f
        e 99 81 40 13
        e 6 81 3c 21
        e 76 91 3c 7f
        e 1 91 40 7f
        e 419 81 3c 2f
        e 21 81 40 14
        E 8 91 37 7f
        E 120 81 37 1a
        E 15 91 39 7f
        E 125 81 39 29
        E 12 91 3b 7f
        E 153 81 3b 4d
        E 25 91 3c 7f
        E 487 91 43 7f
        E 1 91 40 7f
        E 62 81 43 45
        E 9 81 40 38
        E 78 91 43 7f
        E 5 91 40 7f
        E 59 81 43 4b
        E 1 81 40 31
        E 81 91 40 7f
        E 1 91 43 7f
        E 58 81 43 3b
        E 9 81 40 37
        E 109 91 40 7f
        E 1 91 43 7f
        E 398 81 3c 06
        E 3 81 43 3f
        E 23 81 40 36
        E 87 91 3c 7f
        E 206 81 3c 13
        E 106 91 3c 7f
        E 149 81 3c 3d
        E 72 91 3b 7f
        E 429 81 3b 40
        E 10 91 3c 7f
        E 196 81 3c 29
        E 107 91 3c 7f
        E 156 81 3c 37
        E 20 91 3e 7f
        E 465 81 3e 20
        E 42 91 3e 7f
        E 13 91 3b 7f
        E 101 81 3e 1b
        E 17 81 3b 01
        E 171 91 3b 7f
        E 0 91 3e 7f
        E 108 81 3b 01
        E 0 81 3e 2e
        E 54 91 3c 7f
        E 8 91 40 7f
        E 284 81 3c 0a
        E 26 81 40 2c
        E 40 91 37 7f
        E 1 91 3e 7f
        E 103 81 37 27
        E 0 81 3e 2c
        E 32 91 34 7f
        E 1 91 3c 7f
        E 812 81 3c 4b
        E 2 81 34 5b
        E 101 91 3c 7f
        E 3 91 45 7f
        E 2 91 40 7f
        E 179 81 3c 2a
        E 28 81 40 0f
        E 1 81 45 01
        E 119 91 40 7f
        E 1 91 3c 7f
        E 3 91 45 7f
        E 72 81 40 21
        E 10 81 3c 2f
        E 6 81 45 21
        E 57 91 44 7f
        E 5 91 3b 7f
        E 0 91 40 7f
        E 386 81 40 38
        E 8 81 44 41
        E 56 81 3b 1f
        E 37 91 3a 7f
        E 2 91 43 7f
        E 5 91 40 7f
        E 207 81 3a 31
        E 3 81 43 36
        E 14 81 40 1b
        E 104 91 3a 7f
        E 5 91 43 7f
        E 3 91 40 7f
        E 82 81 3a 35
        E 7 81 40 2b
        E 8 81 43 42
        E 85 91 39 7f
        E 4 91 42 7f
        E 8 91 3e 7f
        E 393 81 3e 1a
        E 14 81 39 27
        E 1 81 42 3e
        E 61 91 41 7f
        E 1 91 38 7f
        E 0 91 3e 7f
        E 136 81 38 34
        E 25 81 41 36
        E 1 81 3e 14
        E 116 91 38 7f
        E 8 91 41 7f
        E 2 91 3e 7f
        E 98 81 38 52
        E 9 81 3e 3d
        E 2 81 41 4c
        E 53 91 37 7f
        E 1 91 40 7f
        E 1 91 3c 7f
        E 314 81 3c 11
        E 50 81 40 0b
        E 59 81 37 2b
        E 42 91 43 7f
        E 2 91 3c 7f
        E 6 91 40 7f
        E 302 81 3c 0d
        E 54 81 43 01
        E 88 81 40 01
        E 15 91 39 7f
        E 1 91 3f 7f
        E 12 91 3c 7f
        E 368 81 39 1f
        E 94 91 39 7f
        E 32 81 3f 4a
        E 15 81 3c 50
        E 224 81 39 2c
        E 41 91 3b 7f
        E 127 81 3b 3b
        E 72 91 3c 7f
        E 4 91 43 7f
        E 3 91 40 7f
        E 414 81 3c 3b
        E 30 81 40 11
        E 2 81 43 39
        E 25 91 3c 7f
        E 386 81 3c 01
        E 83 91 3b 7f
        E 6 91 3e 7f
        E 378 81 3e 33
        E 81 81 3b 3b
        E 18 91 3e 7f
        E 135 91 3c 7f
        E 5 81 3e 37
        E 136 91 37 7f
        E 3 81 3c 32
        E 149 81 37 4d
        E 43 91 34 7f
        E 484 91 3c 7f
        E 7 91 40 7f
        E 1 91 43 7f
        E 83 81 34 5e
        E 111 81 3c 28
        E 0 81 43 2e
        E 1 81 40 20
        E 109 91 3c 7f
        E 2 91 43 7f
        E 1 91 40 7f
        E 84 81 3c 3d
        E 6 81 40 1b
        E 1 81 43 32
        E 61 91 3c 7f
        E 6 91 43 7f
        E 2 91 40 7f
        E 438 81 43 45
        E 7 81 3c 21
        E 1 81 40 3c
        E 36 91 34 7f
        E 273 81 34 38
        E 19 91 37 7f
        E 131 81 37 44
        E 75 91 3c 7f
        E 0 91 40 7f
        E 0 91 43 7f
        E 441 81 40 3a
        E 5 81 43 44
        E 11 81 3c 2f
        E 30 91 3c 7f
        E 2 91 43 7f
        E 1 91 40 7f
        E 229 81 3c 3a
        E 18 81 43 3f
        E 1 81 40 2f
        E 56 91 3c 7f
        E 1 91 43 7f
        E 3 91 40 7f
        E 82 81 3c 39
        E 17 81 43 42
        E 5 81 40 2e
        E 50 91 3c 7f
        E 5 91 43 7f
        E 3 91 40 7f
        E 323 81 40 1c
        E 26 81 43 1b
        E 5 81 3c 3a
        E 84 91 3c 7f
        E 4 91 40 7f
        E 0 91 45 7f
        E 279 81 3c 25
        E 15 81 40 2a
        E 13 81 45 39
        E 16 91 3e 7f
        E 85 81 3e 39
        E 92 91 44 7f
        E 3 91 40 7f
        E 109 91 3b 7f
        E 547 81 3b 37
        E 13 81 44 32
        E 16 81 40 30
        E 53 91 44 7f
        E 8 91 3b 7f
        E 0 91 3e 7f
        E 140 81 3b 2a
        E 10 81 44 2c
        E 7 81 3e 20
        E 54 91 40 7f
        E 3 91 3c 7f
        E 2 91 45 7f
        E 41 91 39 7f
        E 301 81 40 3c
        E 26 81 39 45
        E 6 81 3c 34
        E 29 81 45 01
        E 59 91 3f 7f
        E 5 91 3c 7f
        E 3 91 42 7f
        E 219 81 3c 30
        E 2 81 3f 41
        E 3 81 42 3a
        E 69 91 42 7f
        E 1 91 3f 7f
        E 6 91 3c 7f
        E 106 81 3f 21
        E 1 81 3c 41
        E 8 81 42 3e
        E 55 91 3c 7f
        E 1 91 40 7f
        E 2 91 43 7f
        E 424 81 40 29
        E 2 81 43 43
        E 7 81 3c 2e
        E 75 91 3c 7f
        E 4 91 40 7f
        E 149 81 3c 37
        E 28 81 40 24
        E 99 91 40 7f
        E 4 91 3c 7f
        E 114 81 3c 29
        E 19 81 40 1c
        E 50 91 3e 7f
        E 3 91 3b 7f
        E 336 81 3e 1d
        E 40 81 3b 4e
        E 86 91 3e 7f
        E 113 81 3e 43
        E 12 91 3c 7f
        E 149 91 37 7f
        E 6 81 3c 44
        E 177 81 37 3a
        E 53 91 34 7f
        E 364 81 34 31
        E 98 91 40 7f
        E 3 91 37 7f
        E 0 91 3c 7f
        E 778 81 3c 4a
        E 4 81 37 4d
        E 4 81 40 4a
        E 660 91 3e 7f
        E 2 91 41 7f
        E 397 81 41 48
        E 5 81 3e 3b
        E 81 91 41 7f
        E 1 91 3e 7f
        E 376 81 3e 2a
        E 4 81 41 42
        E 65 91 41 7f
        E 5 91 3e 7f
        E 367 81 41 20
        E 3 81 3e 27
        E 86 91 41 7f
        E 3 91 3e 7f
        E 299 81 3e 19
        E 29 81 41 1b
        E 134 91 40 7f
        E 4 91 43 7f
        E 1 91 3c 7f
        E 386 81 43 01
        E 10 81 3c 01
        E 9 81 40 0c
        E 102 91 40 7f
        E 5 91 3c 7f
        E 1 91 43 7f
        E 291 81 40 1a
        E 61 81 43 1b
        E 7 81 3c 01
        E 85 91 37 7f
        E 0 91 40 7f
        E 449 81 40 04
        E 1 81 37 39
        E 68 91 3c 7f
        E 298 81 3c 17
        E 19 91 40 7f
        E 101 81 40 29
        E 78 91 40 7f
        E 261 81 40 1e
        E 62 91 3e 7f
        E 82 81 3e 26
        E 80 91 3e 7f
        E 215 81 3e 0f
        E 3 91 41 7f
        E 161 81 41 01
        E 89 91 41 7f
        E 243 81 41 3f
        E 5 91 40 7f
        E 221 81 40 09
        E 10 91 43 7f
        E 252 81 43 27
        E 94 91 41 7f
        E 112 81 41 39
        E 19 91 40 7f
        E 764 81 40 2e
        E 23 91 3e 7f
        E 114 81 3e 21
        E 50 91 3c 7f
        E 426 81 3c 20
        E 75 91 40 7f
        E 206 81 40 27
        E 100 91 40 7f
        E 95 81 40 38
        E 95 91 41 7f
        E 1 91 3e 7f
        E 381 81 41 23
        E 7 81 3e 1c
        E 80 91 3e 7f
        E 0 91 41 7f
        E 365 81 41 29
        E 13 81 3e 18
        E 81 91 3e 7f
        E 1 91 41 7f
        E 394 81 41 1e
        E 11 81 3e 17
        E 90 91 41 7f
        E 1 91 3e 7f
        E 361 81 3e 1f
        E 52 81 41 24
        E 61 91 3c 7f
        E 0 91 40 7f
        E 350 81 40 01
        E 82 81 3c 2a
        E 55 91 43 7f
        E 1 91 40 7f
        E 206 81 43 49
        E 17 81 40 3e
        E 93 91 44 7f
        E 10 91 3e 7f
        E 8 91 40 7f
        E 52 81 40 2a
        E 5 81 3e 30
        E 3 81 44 37
        E 74 91 45 7f
        E 2 91 40 7f
        E 3 91 3c 7f
        E 384 81 40 2a
        E 13 81 45 34
        E 43 81 3c 29
        E 34 91 40 7f
        E 3 91 45 7f
        E 364 81 40 0d
        E 32 81 45 29
        E 76 91 3e 7f
        E 1 91 43 7f
        E 842 81 3e 0b
        E 11 81 43 39
        E 117 91 42 7f
        E 7 91 3e 7f
        E 0 91 45 7f
        E 338 81 3e 31
        E 1 81 45 16
        E 9 81 42 01
        E 95 91 42 7f
        E 2 91 3c 7f
        E 7 91 45 7f
        E 191 81 45 27
        E 4 81 42 18
        E 26 81 3c 25
        E 133 91 42 7f
        E 7 91 45 7f
        E 7 91 3c 7f
        E 74 81 42 1e
        E 8 81 45 1d
        E 27 81 3c 0b
        E 45 91 3e 7f
        E 2 91 3b 7f
        E 482 91 43 7f
        E 170 81 43 4b
        E 157 91 43 7f
        E 62 81 43 48
        E 99 91 43 7f
        E 373 81 43 3f
        E 50 81 3b 47
        E 12 81 3e 01
        E 45 91 43 7f
        E 158 81 43 36
        E 122 91 43 7f
        E 148 81 43 4e
        E 262 91 37 7f
        E 6 91 3f 7f
        E 4 91 3a 7f
        E 113 81 3a 01
        E 39 81 37 21
        E 6 81 3f 01
        E 320 91 3a 7f
        E 0 91 3f 7f
        E 9 91 37 7f
        E 121 81 3a 13
        E 6 81 3f 22
        E 19 81 37 01
        E 301 91 3f 7f
        E 2 91 3a 7f
        E 2 91 37 7f
        E 159 81 3a 0e
        E 4 81 3f 2f
        E 8 81 37 1f
        E 295 91 37 7f
        E 4 91 3f 7f
        E 2 91 3a 7f
        E 139 81 3a 15
        E 12 81 37 1a
        E 2 81 3f 01
        E 331 91 37 7f
        E 3 91 3f 7f
        E 3 91 3a 7f
        E 163 81 3a 01
        E 8 81 3f 15
        E 11 81 37 14
        E 321 91 3f 7f
        E 4 91 3a 7f
        E 2 91 37 7f
        E 169 81 3f 1d
        E 0 81 3a 15
        E 0 81 37 1a
        E 293 91 37 7f
        E 0 91 3f 7f
        E 2 91 3a 7f
        E 115 81 37 3b
        E 3 81 3a 29
        E 5 81 3f 47
        E 117 91 3f 7f
        E 301 81 3f 34
        E 16 91 43 7f
        E 104 81 43 48
        E 72 91 43 7f
        E 320 81 43 3b
        E 20 91 41 7f
        E 67 81 41 40
        E 52 91 41 7f
        E 229 81 41 28
        E 6 91 44 7f
        E 160 81 44 3c
        E 70 91 44 7f
        E 221 81 44 35
        E 13 91 43 7f
        E 241 81 43 23
        E 6 91 46 7f
        E 307 81 46 14
        E 51 91 44 7f
        E 113 81 44 2c
        E 18 91 43 7f
        E 818 91 41 7f
        E 3 81 43 38
        E 121 91 3f 7f
        E 2 81 41 43
        E 452 81 3f 45
        E 40 91 43 7f
        E 222 81 43 31
        E 114 91 43 7f
        E 112 81 43 16
        E 62 91 44 7f
        E 216 81 44 2d
        E 29 91 43 7f
        E 321 81 43 3e
        E 132 91 43 7f
        E 170 81 43 3c
        E 79 91 44 7f
        E 219 81 44 36
        E 6 91 43 7f
        E 341 81 43 28
        E 147 91 43 7f
        E 203 81 43 45
        E 275 91 43 7f
        E 1 91 3f 7f
        E 108 81 3f 01
        E 7 81 43 2b
        E 124 91 3f 7f
        E 3 91 43 7f
        E 451 81 43 3f
        E 18 81 3f 31
        E 203 91 43 7f
        E 1 91 3f 7f
        E 112 81 3f 21
        E 63 81 43 2d
        E 67 91 3f 7f
        E 4 91 3c 7f
        E 210 81 3f 2c
        E 21 81 3c 25
        E 142 91 3f 7f
        E 5 91 3c 7f
        E 62 81 3f 3e
        E 11 81 3c 20
        E 80 91 3f 7f
        E 4 91 3c 7f
        E 138 81 3f 24
        E 10 81 3c 2a
        E 73 91 3c 7f
        E 140 81 3c 23
        E 99 91 3c 7f
        E 145 81 3c 30
        E 97 91 3c 7f
        E 137 81 3c 2c
        E 95 91 3e 7f
        E 455 81 3e 0d
        E 41 91 3c 7f
        E 359 81 3c 27
        E 136 91 3a 7f
        E 4 91 3e 7f
        E 372 81 3e 01
        E 74 81 3a 01
        E 36 91 3e 7f
        E 2 91 43 7f
        E 364 81 43 2c
        E 67 81 3e 15
        E 23 91 43 7f
        E 4 91 3c 7f
        E 390 81 43 30
        E 66 81 3c 47
        E 31 91 41 7f
        E 0 91 43 7f
        E 365 81 43 1f
        E 62 81 41 01
        E 57 91 3f 7f
        E 4 91 43 7f
        E 890 81 43 16
        E 2 81 3f 01
        E 60 91 42 7f
        E 1 91 3c 7f
        E 3 91 3e 7f
        E 406 81 3c 24
        E 9 81 3e 29
        E 14 81 42 4a
        E 55 91 42 7f
        E 3 91 3c 7f
        E 2 91 3e 7f
        E 105 81 3e 30
        E 51 81 3c 46
        E 34 81 42 34
        E 157 91 3c 7f
        E 3 91 3e 7f
        E 0 91 42 7f
        E 85 81 3e 37
        E 1 81 3c 2b
        E 15 81 42 3b
        E 17 91 3a 7f
        E 12 91 3e 7f
        E 470 81 3a 4c
        E 4 91 43 7f
        E 7 81 3e 4d
        E 210 81 43 43
        E 117 91 43 7f
        E 95 81 43 47
        E 43 91 43 7f
        E 515 81 43 65
        E 453 91 3c 7f
        E 0 91 40 7f
        E 4 91 37 7f
        E 412 81 40 3d
        E 3 81 37 36
        E 5 81 3c 25
        E 56 91 40 7f
        E 1 91 3c 7f
        E 1 91 37 7f
        E 202 81 37 24
        E 8 81 3c 19
        E 7 81 40 27
        E 110 91 37 7f
        E 6 91 40 7f
        E 3 91 3c 7f
        E 71 81 37 34
        E 10 81 40 2a
        E 3 81 3c 2c
        E 61 91 37 7f
        E 5 91 40 7f
        E 3 91 3c 7f
        E 360 81 37 3f
        E 39 81 40 22
        E 2 81 3c 1f
        E 65 91 37 7f
        E 113 81 37 1a
        E 14 91 39 7f
        E 107 81 39 12
        E 23 91 3b 7f
        E 134 81 3b 01
        E 47 91 3c 7f
        E 519 91 40 7f
        E 1 91 43 7f
        E 55 81 40 3d
        E 7 81 43 42
        E 74 91 43 7f
        E 2 91 40 7f
        E 57 81 43 40
        E 1 81 40 3a
        E 87 91 40 7f
        E 1 91 43 7f
        E 77 81 43 2b
        E 5 81 40 28
        E 88 91 40 7f
        E 1 91 43 7f
        E 363 81 3c 1f
        E 62 81 40 05
        E 11 81 43 2b
        E 53 91 37 7f
        E 2 91 3c 7f
        E 163 81 37 27
        E 33 81 3c 20
        E 113 91 37 7f
        E 4 91 3c 7f
        E 103 81 3c 4c
        E 22 81 37 46
        E 44 91 3b 7f
        E 481 91 3c 7f
        E 1 81 3b 30
        E 181 81 3c 32
        E 132 91 3c 7f
        E 168 81 3c 3c
        E 12 91 3e 7f
        E 419 81 3e 31
        E 70 91 3b 7f
        E 0 91 3e 7f
        E 140 81 3e 0a
        E 1 81 3b 2c
        E 145 91 3e 7f
        E 4 91 3b 7f
        E 136 81 3e 1d
        E 24 81 3b 11
        E 23 91 3c 7f
        E 4 91 40 7f
        E 328 81 3c 01
        E 19 81 40 30
        E 15 91 37 7f
        E 1 91 3e 7f
        E 98 81 37 0c
        E 7 81 3e 2b
        E 25 91 34 7f
        E 9 91 3c 7f
        E 702 81 34 4f
        E 33 81 3c 32
        E 162 91 40 7f
        E 1 91 3c 7f
        E 1 91 45 7f
        E 194 81 45 18
        E 8 81 40 0a
        E 4 81 3c 0e
        E 113 91 3c 7f
        E 2 91 45 7f
        E 2 91 40 7f
        E 68 81 40 2d
        E 7 81 3c 30
        E 28 81 45 33
        E 89 91 3b 7f
        E 3 91 44 7f
        E 2 91 40 7f
        E 345 81 40 01
        E 78 81 3b 2b
        E 9 81 44 3e
        E 50 91 3a 7f
        E 0 91 40 7f
        E 1 91 43 7f
        E 176 81 3a 2f
        E 17 81 40 01
        E 3 81 43 19
        E 100 91 3a 7f
        E 1 91 43 7f
        E 4 91 40 7f
        E 92 81 3a 1a
        E 28 81 40 10
        E 3 81 43 3b
        E 28 91 39 7f
        E 3 91 42 7f
        E 3 91 3e 7f
        E 398 81 3e 01
        E 2 81 39 1d
        E 29 81 42 3d
        E 42 91 38 7f
        E 14 91 3e 7f
        E 2 91 41 7f
        E 156 81 38 3c
        E 7 81 41 28
        E 13 81 3e 21
        E 136 91 38 7f
        E 1 91 3e 7f
        E 2 91 41 7f
        E 82 81 41 49
        E 18 81 38 3c
        E 8 81 3e 31
        E 65 91 37 7f
        E 7 91 40 7f
        E 17 91 3c 7f
        E 366 81 40 18
        E 2 81 3c 3c
        E 63 81 37 4a
        E 22 91 40 7f
        E 1 91 3c 7f
        E 1 91 43 7f
        E 291 81 40 38
        E 90 81 43 36
        E 16 81 3c 2f
        E 88 91 39 7f
        E 1 91 3c 7f
        E 3 91 3f 7f
        E 369 81 39 47
        E 72 91 39 7f
        E 235 81 3f 4d
        E 48 81 3c 19
        E 9 81 39 31
        E 12 91 3b 7f
        E 105 81 3b 51
        E 101 91 3c 7f
        E 3 91 40 7f
        E 0 91 43 7f
        E 332 81 3c 48
        E 121 91 3c 7f
        E 13 81 43 10
        E 4 81 40 22
        E 366 81 3c 30
        E 85 91 3b 7f
        E 3 91 3e 7f
        E 346 81 3e 31
        E 68 81 3b 2f
        E 55 91 3e 7f
        E 133 91 3c 7f
        E 26 81 3e 13
        E 146 91 37 7f
        E 7 81 3c 39
        E 171 91 34 7f
        E 4 81 37 42
        E 486 81 34 5e
        E 7 91 43 7f
        E 1 91 3c 7f
        E 1 91 40 7f
        E 162 81 40 0a
        E 16 81 43 23
        E 4 81 3c 01
        E 136 91 3c 7f
        E 2 91 40 7f
        E 0 91 43 7f
        E 94 81 40 27
        E 7 81 43 3d
        E 4 81 3c 1c
        E 67 91 40 7f
        E 0 91 43 7f
        E 2 91 3c 7f
        E 331 81 40 36
        E 28 81 43 25
        E 15 81 3c 05
        E 110 91 40 7f
        E 295 81 40 3f
        E 1 91 43 7f
        E 71 81 43 47
        E 92 91 40 7f
        E 5 91 3c 7f
        E 3 91 43 7f
        E 434 81 43 43
        E 1 81 40 3f
        E 0 81 3c 31
        E 51 91 43 7f
        E 2 91 40 7f
        E 2 91 3c 7f
        E 172 81 43 33
        E 6 81 40 39
        E 6 81 3c 15
        E 136 91 3c 7f
        E 1 91 40 7f
        E 1 91 43 7f
        E 94 81 3c 14
        E 0 81 40 29
        E 3 81 43 3b
        E 70 91 40 7f
        E 1 91 43 7f
        E 3 91 3c 7f
        E 344 81 40 14
        E 22 81 3c 1d
        E 19 81 43 3e
        E 69 91 45 7f
        E 2 91 3c 7f
        E 2 91 40 7f
        E 203 81 3c 2c
        E 94 91 3e 7f
        E 1 81 40 41
        E 77 81 3e 38
        E 40 81 45 26
        E 58 91 3b 7f
        E 5 91 40 7f
        E 2 91 44 7f
        E 622 81 40 42
        E 32 81 44 4d
        E 8 81 3b 44
        E 52 91 44 7f
        E 1 91 3e 7f
        E 5 91 3b 7f
        E 152 81 3b 29
        E 21 81 3e 2b
        E 13 81 44 3d
        E 48 91 3c 7f
        E 6 91 40 7f
        E 0 91 45 7f
        E 321 81 40 2e
        E 53 81 3c 01
        E 59 81 45 1e
        E 36 91 42 7f
        E 3 91 3f 7f
        E 5 91 3c 7f
        E 199 81 42 2b
        E 0 81 3f 39
        E 8 81 3c 21
        E 107 91 3f 7f
        E 4 91 42 7f
        E 11 91 3c 7f
        E 86 81 3c 18
        E 4 81 3f 26
        E 14 81 42 20
        E 48 91 43 7f
        E 4 91 3c 7f
        E 1 91 40 7f
        E 384 81 40 24
        E 22 81 3c 27
        E 5 81 43 39
        E 93 91 3c 7f
        E 3 91 40 7f
        E 191 81 3c 25
        E 89 91 45 7f
        E 4 91 3c 7f
        E 9 81 40 0e
        E 81 81 3c 26
        E 23 81 45 27
        E 37 91 3b 7f
        E 7 91 3e 7f
        E 292 81 3e 36
        E 90 81 3b 49
        E 71 91 3e 7f
        E 148 91 3c 7f
        E 10 81 3e 25
        E 147 81 3c 37
        E 1 91 37 7f
        E 189 91 34 7f
        E 10 81 37 4c
        E 482 91 37 7f
        E 5 81 34 4d
        E 6 91 40 7f
        E 1 91 3c 7f
        E 975 81 37 5d
        E 0 81 40 5c
        E 1 81 3c 56
        E 477 b0 7b 00
        GUID {BBA99DC1-B6BD-D14E-9F5D-8A15CE30B529}
        IGNTEMPO 0 120 4 4
        SRCCOLOR 1164
        VELLANE -1 86 6
        CFGEDITVIEW 0 0 56 22 0 0 0 0 0 0.5
        KEYSNAP 0
        TRACKSEL 226 0 0 ""
        EVTFILTER 0 -1 -1 -1 -1 0 0 0 0 -1 -1 -1 -1 0 -1 0 -1 -1
        CFGEDIT 1 0 0 0 0 0 1 0 1 1 1 0.25 557 389 1837 1120 0 0 2 3 0 0 0 0 0 0.5 0 0 1 64
      >
    >
  >
  <TRACK {B91E5163-8C2B-404F-8C78-0605AAF52936}
    NAME ChipFront
    PEAKCOL 16576
    BEAT -1
    AUTOMODE 0
    VOLPAN 0.3233982038285 0 -1 -1 1
    MUTESOLO 0 0 0
    IPHASE 0
    ISBUS 0 0
    BUSCOMP 0 0
    SHOWINMIX 1 0.6667 0.657005 1 0.5 0 0 0
    FREEMODE 0
    SEL 0
    REC 0 0 0 0 0 0 0
    VU 2
    TRACKHEIGHT 0 0
    INQ 0 0 0 0.5 100 0 0 100
    NCHAN 2
    FX 1
    TRACKID {B91E5163-8C2B-404F-8C78-0605AAF52936}
    PERF 0
    AUXRECV 4 0 1 0 0 0 0 0 0 -1:U 0 -1 ''
    MIDIOUT -1
    MAINSEND 1 0
    <FXCHAIN
      WNDRECT 122 36 1158 557
      SHOW 0
      LASTSEL 0
      DOCKED 1
      BYPASS 0 0 0
      <VST "VST: FabFilter Volcano 2 (SC) (FabFilter)" "FabFilter Volcano 2 (SC).vst" 0 "" 1180054068
        NDJWRu9e7f4EAAAAAQAAAAAAAAACAAAAAAAAAAQAAAAAAAAACAAAAAAAAAAEAAAAAQAAAAAAAAACAAAAAAAAAAQAAAAAAAAACAAAAAAAAADcCwAAAAAAAAAAEAA=
        776t3g3wrd4AAAA/AAAAPwAAAD8AAAA/AACAPwAAAAAAAAA/q6qqPq2+aD8AAAA/ig0yPM3MzD0AAAAAAAAAAAAAAAAAAIA/AACAP0Isdj8AAAA/bbDgPZqZGT8AAAAA
        AAAAAOev3zwAAIA/AAAAAAAAgD8AAAA/AAAAAJqZGT8AAAAAAAAAAAAAAAAAAIA/AAAAAAAAgD8AAAA/AAAAAJqZGT8AAAAAAAAAAAAAAAAAAIA/AAAAAKuqqj4ATrI+
        AAAAPwAAAADBykk/XXRRPwAAAACJiIg9AACAP6oXiD4AAAAAAAAAAAAAAAAAAAAAAACAPwAAAAAAAAA/AAAAAAAAAAAAAAAAAAAAPwAAAAAAAAAAAAAAAAAAAD8AAAAA
        AAAAAAAAAAAAAAA/AAAAAAAAAAAAAAAAAAAAPwAAAAAAAAAAAAAAAAAAAD8AAAAAAAAAAAAAAAAAAAA/AAAAAAAAAAAAAAAAAAAAPwAAAAAAAAAAAAAAAAAAAD8AAAAA
        AAAAAAAAAAAAAAA/AAAAAAAAAAAAAAAAAAAAPwAAAAAAAAAAAAAAAAAAAD8AAAAAAAAAAAAAAAAAAAA/AAAAAAAAAAAAAAAAAAAAPwAAAAAAAAAAAAAAAHwZED4AAAA/
        KKO3PQAAgD8AAAAAAAAAAImIiD3y0iU/AAAAAAAAgD8AAAAAdGjRPQAAAAAAAIA/AAAAAAAAAD8AAAAAAAAAAAAAAAAAAAA/AAAAAAAAAAAAAAAAAAAAPwAAAAAAAAAA
        AAAAAAAAAD8AAAAAAAAAAAAAAAAAAAA/AAAAAAAAAAAAAAAAAAAAPwAAAAAAAAAAAAAAAAAAAD8AAAAAAAAAAAAAAAAAAAA/AAAAAAAAAAAAAAAAAAAAPwAAAAAAAAAA
        AAAAAAAAAD8AAAAAAAAAAAAAAAAAAAA/AAAAAAAAAAAAAAAAAAAAPwAAAAAAAAAAAAAAAAAAAD8AAAAAAAAAAAAAAAAAAAA/AAAAAAAAAAAAAAAAvvR9PgAAAD8AAAA/
        AAAAPwAAAAAAAAAAiYiIPQAAAD8AAAAAAAAAAAAAAAAAAAA/AAAAAAAAAAAAAAAAAAAAPwAAAAAAAAAAAAAAAAAAAD8AAAAAAAAAAAAAAAAAAAA/AAAAAAAAAAAAAAAA
        AAAAPwAAAAAAAAAAAAAAAAAAAD8AAAAAAAAAAAAAAAAAAAA/AAAAAAAAAAAAAAAAAAAAPwAAAAAAAAAAAAAAAAAAAD8AAAAAAAAAAAAAAAAAAAA/AAAAAAAAAAAAAAAA
        AAAAPwAAAAAAAAAAAAAAAAAAAD8AAAAAAAAAAAAAAAAAAAA/AAAAAAAAAAAAAAAAAAAAPwAAAAAAAAAAAAAAAAAAAD8AAAAAAAAAAAAAAAC+9H0+AAAAPwAAAD8AAAA/
        AAAAAAAAAACJiIg9AAAAPwAAAAAAAAAAAAAAAAAAAD8AAAAAAAAAAAAAAAAAAAA/AAAAAAAAAAAAAAAAAAAAPwAAAAAAAAAAAAAAAAAAAD8AAAAAAAAAAAAAAAAAAAA/
        AAAAAAAAAAAAAAAAAAAAPwAAAAAAAAAAAAAAAAAAAD8AAAAAAAAAAAAAAAAAAAA/AAAAAAAAAAAAAAAAAAAAPwAAAAAAAAAAAAAAAAAAAD8AAAAAAAAAAAAAAAAAAAA/
        AAAAAAAAAAAAAAAAAAAAPwAAAAAAAAAAAAAAAAAAAD8AAAAAAAAAAAAAAAAAAAA/AAAAAAAAAAAAAAAAAAAAPwAAAAAAAAAAAAAAAL70fT4AAAA/AAAAPwAAAD8AAAAA
        AAAAAImIiD0AAAA/AAAAAAAAAAAAAAAAAAAAPwAAAAAAAAAAAAAAAAAAAD8AAAAAAAAAAAAAAAAAAAA/AAAAAAAAAAAAAAAAAAAAPwAAAAAAAAAAAAAAAAAAAD8AAAAA
        AAAAAAAAAAAAAAA/AAAAAAAAAAAAAAAAAAAAPwAAAAAAAAAAAAAAAAAAAD8AAAAAAAAAAAAAAAAAAAA/AAAAAAAAAAAAAAAAAAAAPwAAAAAAAAAAAAAAAAAAAD8AAAAA
        AAAAAAAAAAAAAAA/AAAAAAAAAAAAAAAAAAAAPwAAAAAAAAAAAAAAAAAAAD8AAAAAAAAAAAAAAAAAAAA/AAAAAAAAAAAAAAAAvvR9PgAAAD8AAAA/AAAAPwAAAAAAAAAA
        iYiIPQAAAD8AAAAAAAAAAAAAAAAAAAA/AAAAAAAAAAAAAAAAAAAAPwAAAAAAAAAAAAAAAAAAAD8AAAAAAAAAAAAAAAAAAAA/AAAAAAAAAAAAAAAAAAAAPwAAAAAAAAAA
        AAAAAAAAAD8AAAAAAAAAAAAAAAAAAAA/AAAAAAAAAAAAAAAAAAAAPwAAAAAAAAAAAAAAAAAAAD8AAAAAAAAAAAAAAAAAAAA/AAAAAAAAAAAAAAAAAAAAPwAAAAAAAAAA
        AAAAAAAAAD8AAAAAAAAAAAAAAAAAAAA/AAAAAAAAAAAAAAAAAAAAPwAAAAAAAAAAAAAAAAAAAD8AAAAAAAAAAAAAAAAAAAAAmpmZPgAAAAAAAAAAAAAAAAAAgD8AAAAA
        mpmZPgAAAAAAAAAAAAAAAAAAgD8AAAAAmpmZPgAAAAAAAAAAAAAAAAAAgD8AAAAAmpmZPgAAAAAAAAAAAAAAAAAAgD8AAAAAmpmZPgAAAAAAAAAAAAAAAAAAgD8AAAAA
        mpmZPgAAAAAAAAAAAAAAAAAAgD8AAAAAAAAAAAAAAAAAAAAAAAAAAAAAAAAAAAAAAAAAAAAAAAAAAAAAAAAAAAAAAAAAAAAAAAAAAAAAAAAAAAAAAAAAAAAAAAAAAAAA
        AAAAAAAAAAAAAAAAAAAAAAAAAAAAAAAAAAAAAAAAAAAAAAAAAAAAAAAAAAAAAAAAAAAAAAAAAAAAAAAAAAAAAAAAAAAAAAAAAAAAAKuqKj3ZiZ09gShWPgAAAAAAAAAA
        v+eWPQAAAAAAAAA/AAAAAAAAAAAAAAAAAAAAAAAAAD8AAAAAAAAAAAAAAAAAAAAAAAAAPwAAAAAAAAAAAAAAAAAAAAAAAAAAAAAAAAAAAAAAAAAAAAAAAAAAAAAAAAAA
        AAAAAAAAAAAAAAAAAAAAAAAAAAAAAAAAAAAAAAAAAAAAAAAAAAAAAAAAAAAAAAAAAAAAAAAAAAAAAAAAAAAAAAAAAAAAAAAAAAAAAAAAAAAAAAAAAAAAAAAAAAAAAAAA
        AAAAAAAAAAAAAAAAAAAAAAAAAAAAAAAAAAAAAAAAAAAAAAAAAAAAAAAAAAAAAAAAAAAAAAAAAAAAAAAAAAAAAAAAAAAAAAAAAAAAAAAAAAAAAAAAAAAAAAAAAAAAAAAA
        AAAAAAAAAAAAAAAAAAAAAAAAAAAAAAAAAAAAAAAAAAAAAAAAAAAAAAAAAAAAAAAAAAAAAAAAAAAAAAAAAAAAAAAAAAAAAAAAAAAAAAAAAAAAAAAAAAAAAAAAAAAAAAAA
        AAAAAAAAAAAAAAAAAAAAAAAAAAAAAAAAAAAAAAAAAAAAAAAAAAAAAAAAAAAAAAAAAAAAAAAAAAAAAAAAAAAAAAAAAAAAAAAAAAAAAAAAAAAAAAAAAAAAPwAAAD8AAAA/
        AAAAPwAAAD8AAAA/AAAAPwAAAD8AAAAAAAAAAAAAAAAAAAAAAAAAAAAAAAAAAAAAAAAAAAAAAAAAAAAAAAAAAAAAAAAAAAAAAAAAAAAAAAAAAAAAAAAAAAAAAAAAAAAA
        AAAAAAAAAAAAAAAAAAAAAAAAAAAAAAAAAAAAAAAAAAAAAAAAAAAAAAAAAAAAAAAAAAAAAAAAAAAAAAAAAAAAAAAAAAAAAAAAAAAAAAAAAAAAAAAAAAAAAAAAAAAAAAAA
        AAAAAAAAAAAAAAAAAAAAAAAAAAAAAAAAAAAAAAAAAAAAAAAAAAAAAAAAAAAAAAAAAAAAAAAAAAAAAAAAAAAAAAAAAAAAAAAAAAAAAAAAAAAAAAAAAAAAAAAAAAAAAAAA
        AAAAAAAAAAAAAAAAAAAAAAAAAAAAAAAAAAAAAAAAAAAAAAAAAAAAAAAAAAAAAAAAAAAAAAAAAAAAAAAA
        Q2hpcEZyb250AENoaXBGcm9udAAQAAAA
      >
      PRESETNAME ChipFront
      FLOATPOS 36 32 641 529
      FXID {4C5A6810-F3ED-0645-A06D-6758F70CB097}
      WAK 0
    >
  >
  <TRACK {4E9F66C4-38E7-4946-B39F-214CBB1CFB8B}
    NAME ChipSide
    PEAKCOL 16576
    BEAT -1
    AUTOMODE 0
    VOLPAN 0.3981071705535 0 -1 -1 1
    MUTESOLO 0 0 0
    IPHASE 0
    ISBUS 0 0
    BUSCOMP 0 0
    SHOWINMIX 1 0.6667 0.657005 1 0.5 0 0 0
    FREEMODE 0
    SEL 0
    REC 0 0 0 0 0 0 0
    VU 2
    TRACKHEIGHT 0 0
    INQ 0 0 0 0.5 100 0 0 100
    NCHAN 2
    FX 1
    TRACKID {4E9F66C4-38E7-4946-B39F-214CBB1CFB8B}
    PERF 0
    AUXRECV 4 0 1.03113579563571 0 0 0 0 2 0 -1:U 0 -1 ''
    MIDIOUT -1
    MAINSEND 1 0
    <FXCHAIN
      SHOW 0
      LASTSEL 0
      DOCKED 0
      BYPASS 0 0 0
      <VST "VST: FabFilter Volcano 2 (SC) (FabFilter)" "FabFilter Volcano 2 (SC).vst" 0 "" 1180054068
        NDJWRu9e7f4EAAAAAQAAAAAAAAACAAAAAAAAAAQAAAAAAAAACAAAAAAAAAAIAAAAAQAAAAAAAAACAAAAAAAAAAQAAAAAAAAACAAAAAAAAAAQAAAAAAAAACAAAAAAAAAA
        QAAAAAAAAACAAAAAAAAAANwLAAAAAAAAAAAQAA==
        776t3g3wrd4AAAA/AAAAPwAAAD8AAAA/AACAPwAAAAAAAIA/q6qqPsplFD8AAAA/TxqgPc3MzD0AAAAAAAAAAEKGIj8AAIA/AACAP0Isdj8AAAA/bbDgPZqZGT8AAAAA
        AAAAAOev3zwAAIA/AAAAAAAAgD8AAAA/AAAAAJqZGT8AAAAAAAAAAAAAAAAAAIA/AAAAAAAAgD8AAAA/AAAAAJqZGT8AAAAAAAAAAAAAAAAAAIA/AAAAAKuqqj6CdAA9
        EObJPZgn+j4AAIA/AAAAAAAAAACJiAg+AACAP7PDtD4AAIA/AAAAAAAAAAAAAAAAq6qqPgAAAACeFR0/AAAAAAAAgD8AAAAAAAAAPwAAAAAAAAAAAAAAAAAAAD8AAAAA
        AAAAAAAAAAAAAAA/AAAAAAAAAAAAAAAAAAAAPwAAAAAAAAAAAAAAAAAAAD8AAAAAAAAAAAAAAAAAAAA/AAAAAAAAAAAAAAAAAAAAPwAAAAAAAAAAAAAAAAAAAD8AAAAA
        AAAAAAAAAAAAAAA/AAAAAAAAAAAAAAAAAAAAPwAAAAAAAAAAAAAAAAAAAD8AAAAAAAAAAAAAAAAAAAA/AAAAAAAAAAAAAAAAAAAAPwAAAAAAAAAAAAAAAHwZED4AAAA/
        KKO3PQAAgD8AAAAAAAAAAImIiD3y0iU/AAAAAAAAgD8AAAAAdGjRPQAAAAAAAIA/AAAAAAAAAD8AAAAAAAAAAAAAAAAAAAA/AAAAAAAAAAAAAAAAAAAAPwAAAAAAAAAA
        AAAAAAAAAD8AAAAAAAAAAAAAAAAAAAA/AAAAAAAAAAAAAAAAAAAAPwAAAAAAAAAAAAAAAAAAAD8AAAAAAAAAAAAAAAAAAAA/AAAAAAAAAAAAAAAAAAAAPwAAAAAAAAAA
        AAAAAAAAAD8AAAAAAAAAAAAAAAAAAAA/AAAAAAAAAAAAAAAAAAAAPwAAAAAAAAAAAAAAAAAAAD8AAAAAAAAAAAAAAAAAAAA/AAAAAAAAAAAAAAAAvvR9PgAAAD8AAAA/
        AAAAPwAAAAAAAAAAiYiIPQAAAD8AAAAAAAAAAAAAAAAAAAA/AAAAAAAAAAAAAAAAAAAAPwAAAAAAAAAAAAAAAAAAAD8AAAAAAAAAAAAAAAAAAAA/AAAAAAAAAAAAAAAA
        AAAAPwAAAAAAAAAAAAAAAAAAAD8AAAAAAAAAAAAAAAAAAAA/AAAAAAAAAAAAAAAAAAAAPwAAAAAAAAAAAAAAAAAAAD8AAAAAAAAAAAAAAAAAAAA/AAAAAAAAAAAAAAAA
        AAAAPwAAAAAAAAAAAAAAAAAAAD8AAAAAAAAAAAAAAAAAAAA/AAAAAAAAAAAAAAAAAAAAPwAAAAAAAAAAAAAAAAAAAD8AAAAAAAAAAAAAAAC+9H0+AAAAPwAAAD8AAAA/
        AAAAAAAAAACJiIg9AAAAPwAAAAAAAAAAAAAAAAAAAD8AAAAAAAAAAAAAAAAAAAA/AAAAAAAAAAAAAAAAAAAAPwAAAAAAAAAAAAAAAAAAAD8AAAAAAAAAAAAAAAAAAAA/
        AAAAAAAAAAAAAAAAAAAAPwAAAAAAAAAAAAAAAAAAAD8AAAAAAAAAAAAAAAAAAAA/AAAAAAAAAAAAAAAAAAAAPwAAAAAAAAAAAAAAAAAAAD8AAAAAAAAAAAAAAAAAAAA/
        AAAAAAAAAAAAAAAAAAAAPwAAAAAAAAAAAAAAAAAAAD8AAAAAAAAAAAAAAAAAAAA/AAAAAAAAAAAAAAAAAAAAPwAAAAAAAAAAAAAAAL70fT4AAAA/AAAAPwAAAD8AAAAA
        AAAAAImIiD0AAAA/AAAAAAAAAAAAAAAAAAAAPwAAAAAAAAAAAAAAAAAAAD8AAAAAAAAAAAAAAAAAAAA/AAAAAAAAAAAAAAAAAAAAPwAAAAAAAAAAAAAAAAAAAD8AAAAA
        AAAAAAAAAAAAAAA/AAAAAAAAAAAAAAAAAAAAPwAAAAAAAAAAAAAAAAAAAD8AAAAAAAAAAAAAAAAAAAA/AAAAAAAAAAAAAAAAAAAAPwAAAAAAAAAAAAAAAAAAAD8AAAAA
        AAAAAAAAAAAAAAA/AAAAAAAAAAAAAAAAAAAAPwAAAAAAAAAAAAAAAAAAAD8AAAAAAAAAAAAAAAAAAAA/AAAAAAAAAAAAAAAAvvR9PgAAAD8AAAA/AAAAPwAAAAAAAAAA
        iYiIPQAAAD8AAAAAAAAAAAAAAAAAAAA/AAAAAAAAAAAAAAAAAAAAPwAAAAAAAAAAAAAAAAAAAD8AAAAAAAAAAAAAAAAAAAA/AAAAAAAAAAAAAAAAAAAAPwAAAAAAAAAA
        AAAAAAAAAD8AAAAAAAAAAAAAAAAAAAA/AAAAAAAAAAAAAAAAAAAAPwAAAAAAAAAAAAAAAAAAAD8AAAAAAAAAAAAAAAAAAAA/AAAAAAAAAAAAAAAAAAAAPwAAAAAAAAAA
        AAAAAAAAAD8AAAAAAAAAAAAAAAAAAAA/AAAAAAAAAAAAAAAAAAAAPwAAAAAAAAAAAAAAAAAAAD8AAAAAAAAAAAAAAAAAAAAAmpmZPgAAAAAAAAAAAAAAAAAAgD8AAAAA
        mpmZPgAAAAAAAAAAAAAAAAAAgD8AAAAAmpmZPgAAAAAAAAAAAAAAAAAAgD8AAAAAmpmZPgAAAAAAAAAAAAAAAAAAgD8AAAAAmpmZPgAAAAAAAAAAAAAAAAAAgD8AAAAA
        mpmZPgAAAAAAAAAAAAAAAAAAgD8AAAAAAAAAAAAAAAAAAAAAAAAAAAAAAAAAAAAAAAAAAAAAAAAAAAAAAAAAAAAAAAAAAAAAAAAAAAAAAAAAAAAAAAAAAAAAAAAAAAAA
        AAAAAAAAAAAAAAAAAAAAAAAAAAAAAAAAAAAAAAAAAAAAAAAAAAAAAAAAAAAAAAAAAAAAAAAAAAAAAAAAAAAAAAAAAAAAAAAAAAAAAKuqqj3ZiZ09gShWPgAAgD8AAAAA
        v+eWPdmJHT0WszE/AAAAAAAAAACSdiw8AAAAAAAAAD8AAAAAAAAAAAAAAAAAAAAAAAAAPwAAAAAAAAAAAAAAAAAAAAAAAAAAAAAAAAAAAAAAAAAAAAAAAAAAAAAAAAAA
        AAAAAAAAAAAAAAAAAAAAAAAAAAAAAAAAAAAAAAAAAAAAAAAAAAAAAAAAAAAAAAAAAAAAAAAAAAAAAAAAAAAAAAAAAAAAAAAAAAAAAAAAAAAAAAAAAAAAAAAAAAAAAAAA
        AAAAAAAAAAAAAAAAAAAAAAAAAAAAAAAAAAAAAAAAAAAAAAAAAAAAAAAAAAAAAAAAAAAAAAAAAAAAAAAAAAAAAAAAAAAAAAAAAAAAAAAAAAAAAAAAAAAAAAAAAAAAAAAA
        AAAAAAAAAAAAAAAAAAAAAAAAAAAAAAAAAAAAAAAAAAAAAAAAAAAAAAAAAAAAAAAAAAAAAAAAAAAAAAAAAAAAAAAAAAAAAAAAAAAAAAAAAAAAAAAAAAAAAAAAAAAAAAAA
        AAAAAAAAAAAAAAAAAAAAAAAAAAAAAAAAAAAAAAAAAAAAAAAAAAAAAAAAAAAAAAAAAAAAAAAAAAAAAAAAAAAAAAAAAAAAAAAAAAAAAAAAAAAAAAAAAAAAPwAAAD8AAAA/
        AAAAPwAAAD8AAAA/AAAAPwAAAD8AAAAAAAAAAAAAAAAAAAAAAAAAAAAAAAAAAAAAAAAAAAAAAAAAAAAAAAAAAAAAAAAAAAAAAAAAAAAAAAAAAAAAAAAAAAAAAAAAAAAA
        AAAAAAAAAAAAAAAAAAAAAAAAAAAAAAAAAAAAAAAAAAAAAAAAAAAAAAAAAAAAAAAAAAAAAAAAAAAAAAAAAAAAAAAAAAAAAAAAAAAAAAAAAAAAAAAAAAAAAAAAAAAAAAAA
        AAAAAAAAAAAAAAAAAAAAAAAAAAAAAAAAAAAAAAAAAAAAAAAAAAAAAAAAAAAAAAAAAAAAAAAAAAAAAAAAAAAAAAAAAAAAAAAAAAAAAAAAAAAAAAAAAAAAAAAAAAAAAAAA
        AAAAAAAAAAAAAAAAAAAAAAAAAAAAAAAAAAAAAAAAAAAAAAAAAAAAAAAAAAAAAAAAAAAAAAAAAAAAAAAA
        Q2hpcFNpZGUAQ2hpcFNpZGUAEAAAAA==
      >
      PRESETNAME ChipSide
      FLOATPOS 36 32 641 529
      FXID {20356A84-5CFD-6E4A-AA26-2A8A49CE7A76}
      WAK 0
    >
  >
  <EXTENSIONS
    <SWSAUTOCOLOR
      {00000000-0000-0000-0000-000000000000} 0 "" "" ""
      {76E24B40-2920-CD42-8B84-55D9589893DF} 0 "" "" ""
    >
    <XENAKIOSCOMMANDS
      REFTRACK 0 5 1 "000000000"
    >
    <BR_CURSOR_POS 04
      5.92425996048632
    >
  >
>
