<REAPER_PROJECT 0.1 "4.75/OSX64" 1415679635
  RIPPLE 0
  GROUPOVERRIDE 0 0 0
  AUTOXFADE 0
  ENVATTACH 1
  MIXERUIFLAGS 11 52
  PEAKGAIN 1
  FEEDBACK 0
  PANLAW 1
  PROJOFFS 0 0
  MAXPROJLEN 0 600
  GRID 174206 8 1 8 1 0 0
  TIMEMODE 6 0 -1
  PANMODE 3
  CURSOR 0
  ZOOM 11.47420759958546 0 0
  VZOOMEX 3
  USE_REC_CFG 0
  RECMODE 1
  SMPTESYNC 0 23.976024 100 40 1000 300 0 0 1
  LOOP 1
  LOOPGRAN 0 4
  RECORD_PATH "" ""
  <RECORD_CFG
    ZXZhdxAA
  >
  <APPLYFX_CFG
  >
  RENDER_FILE ""
  RENDER_PATTERN ""
  RENDER_FMT 0 2 0
  RENDER_1X 0
  RENDER_RANGE 1 0 0
  RENDER_RESAMPLE 3 0 1
  RENDER_ADDTOPROJ 0
  RENDER_STEMS 0
  RENDER_DITHER 0
  TIMELOCKMODE 1
  TEMPOENVLOCKMODE 1
  ITEMMIX 0
  DEFPITCHMODE 589824
  TAKELANE 3
  SAMPLERATE 44100 0 0
  <RENDER_CFG
  >
  LOCK 1
  <METRONOME 6 2
    VOL 0.25 0.125
    FREQ 800 1600 1
    BEATLEN 4
    SAMPLES "" ""
  >
  GLOBAL_AUTO -1
  TEMPO 120 4 4
  PLAYRATE 1 0 0.25 4
  SELECTION 0 32.5
  SELECTION2 0 32.5
  MASTERAUTOMODE 0
  MASTERTRACKHEIGHT 0
  MASTERPEAKCOL 16576
  MASTERMUTESOLO 0
  MASTERTRACKVIEW 0 0.6667 0.5 0.5 -1 -1 -1
  MASTERHWOUT 0 0 1 0 0 0 0 -1
  MASTER_NCH 2 2
  MASTER_VOLUME 1 0 -1 -1 1
  MASTER_FX 1
  MASTER_SEL 0
  <MASTERPLAYSPEEDENV
    ACT 0
    VIS 0 1 1
    LANEHEIGHT 0 0
    ARM 0
    DEFSHAPE 0 -1 -1
  >
  <TEMPOENVEX
    ACT 0
    VIS 1 0 1
    LANEHEIGHT 0 0
    ARM 0
    DEFSHAPE 1 -1 -1
  >
  <PROJBAY
  >
  <TRACK {86F69ED7-53D5-6A44-A98B-A14564BF1F54}
    NAME ""
    PEAKCOL 16576
    BEAT -1
    AUTOMODE 0
    VOLPAN 1 0 -1 -1 1
    MUTESOLO 0 0 0
    IPHASE 0
    ISBUS 0 0
    BUSCOMP 0 0
    SHOWINMIX 1 0.6667 0.5 1 0.5 -1 -1 -1
    FREEMODE 0
    SEL 0
    REC 0 0 0 0 0 0 0
    VU 2
    TRACKHEIGHT 323 0
    INQ 0 0 0 0.5 100 0 0 100
    NCHAN 2
    FX 1
    TRACKID {86F69ED7-53D5-6A44-A98B-A14564BF1F54}
    PERF 0
    MIDIOUT -1
    MAINSEND 1 0
    <ITEM
      POSITION 0
      SNAPOFFS 0
      LENGTH 32.5
      LOOP 1
      ALLTAKES 0
      FADEIN 1 0 0 1 0 0
      FADEOUT 1 0 0 1 0 0
      MUTE 0
      SEL 0
      YPOS 0 0.090909
      IGUID {3EF2AA65-C0A6-D24E-8503-354B6A77AD1F}
      IID 2
      NAME "fr. horn(s) - National_Anthems_-_Denmark.mid"
      VOLPAN 1 0 1 -1
      SOFFS 0 0
      PLAYRATE 1 1 0 -1 0 0.0025
      CHANMODE 0
      GUID {60DAB4C1-52D3-624E-8363-4EC22604A13F}
      <SOURCE MIDI
        HASDATA 1 480 QN
        POOLEDEVTS {297D9C3E-F410-644B-9207-27C0491F8110}
        <X 0 0
          /wNmci4gaG9ybihzKQ==
        >
        <X 0 0
          /wRTb3VuZCBDYW52YXM=
        >
        E 479 91 42 45
        E 12 91 3e 44
        E 0 91 39 2f
        E 568 81 39 29
        E 49 81 3e 29
        E 72 81 42 12
        E 12 91 39 3d
        E 129 81 39 24
        E 99 91 3e 44
        E 10 91 39 29
        E 349 81 39 0f
        E 104 81 3e 23
        E 17 91 36 4a
        E 32 91 39 3d
        E 284 81 39 1e
        E 95 81 36 4a
        E 89 91 3b 44
        E 4 91 3e 41
        E 1 91 43 41
        E 1527 81 3b 5c
        E 3 81 3e 36
        E 8 81 43 4a
        E 344 91 3e 3f
        E 1 91 43 4a
        E 567 81 3e 03
        E 164 81 43 47
        E 5 91 3e 4a
        E 190 81 3e 16
        E 38 91 43 4f
        E 4 91 3e 44
        E 372 81 3e 1c
        E 7 81 43 33
        E 81 91 43 4a
        E 5 91 3e 44
        E 375 81 43 27
        E 19 81 3e 1b
        E 94 91 43 4f
        E 1 91 3e 3d
        E 490 91 42 4d
        E 33 81 43 2a
        E 704 81 42 40
        E 2 81 3e 35
        E 225 91 3e 48
        E 14 91 39 45
        E 375 81 39 38
        E 17 81 3e 47
        E 74 91 39 4b
        E 615 81 39 21
        E 92 91 39 48
        E 157 81 39 1c
        E 89 91 39 47
        E 363 81 39 0a
        E 107 91 39 3d
        E 2 91 37 44
        E 399 81 39 01
        E 31 81 37 35
        E 81 91 36 4f
        E 15 91 3b 44
        E 397 81 3b 13
        E 47 81 36 1b
        E 19 91 40 4a
        E 4 91 3b 48
        E 371 81 40 42
        E 73 81 3b 05
        E 7 91 40 4b
        E 9 91 39 39
        E 360 81 40 11
        E 84 81 39 46
        E 23 91 42 3f
        E 8 91 3e 47
        E 379 81 3e 01
        E 9 81 42 14
        E 84 91 3d 47
        E 13 91 40 47
        E 826 81 40 32
        E 95 81 3d 46
        E 33 91 40 48
        E 14 91 3b 29
        E 22 91 3e 01
        E 792 81 40 01
        E 41 81 3e 2a
        E 94 91 40 47
        E 2 91 3d 35
        E 18 91 39 47
        E 12 81 3b 09
        E 1387 81 3d 53
        E 1 81 40 4f
        E 9 81 39 5a
        E 512 91 43 4b
        E 0 91 40 45
        E 643 81 43 3b
        E 7 81 40 33
        E 54 91 43 47
        E 8 91 40 44
        E 166 81 40 40
        E 6 81 43 39
        E 69 91 43 4a
        E 11 91 3e 4b
        E 393 81 43 33
        E 73 91 3d 4f
        E 1 81 3e 19
        E 7 91 43 55
        E 333 81 43 27
        E 131 91 43 48
        E 7 91 3e 4a
        E 6 81 3d 27
        E 615 81 3e 2a
        E 77 91 3e 4a
        E 5 91 42 44
        E 23 81 43 3e
        E 143 81 3e 25
        E 14 81 42 3b
        E 72 91 42 41
        E 1 91 3e 4f
        E 380 81 3e 0c
        E 67 81 42 01
        E 34 91 40 4a
        E 1 91 39 4b
        E 377 81 39 44
        E 3 81 40 2b
        E 75 91 42 47
        E 7 91 3e 42
        E 0 91 3b 4d
        E 566 81 3b 36
        E 91 81 3e 11
        E 46 91 3f 55
        E 7 91 3b 47
        E 11 81 42 13
        E 133 81 3b 01
        E 80 81 3f 3d
        E 16 91 40 47
        E 8 91 3b 4b
        E 318 81 3b 2c
        E 117 81 40 1c
        E 27 91 3b 4d
        E 1 91 41 4a
        E 416 81 41 1d
        E 58 81 3b 0a
        E 18 91 3d 4f
        E 4 91 42 4d
        E 846 81 3d 26
        E 23 81 42 35
        E 78 91 42 41
        E 10 91 3d 2b
        E 489 81 3d 4e
        E 8 81 42 3c
        E 251 91 42 39
        E 4 91 3c 52
        E 164 81 42 51
        E 15 81 3c 30
        E 66 91 42 47
        E 11 91 3b 35
        E 336 81 3b 01
        E 125 91 3b 47
        E 14 91 40 4d
        E 30 81 42 3f
        E 362 81 40 33
        E 20 81 3b 12
        E 45 91 40 45
        E 1 91 39 4d
        E 385 81 39 2c
        E 93 81 40 36
        E 6 91 39 48
        E 2 91 3e 48
        E 357 81 39 37
        E 0 81 3e 07
        E 118 91 3e 4d
        E 4 91 43 4f
        E 358 81 3e 31
        E 24 81 43 17
        E 99 91 47 37
        E 1 91 3e 4a
        E 5 91 41 42
        E 623 81 41 14
        E 8 81 3e 2d
        E 72 81 47 3d
        E 8 91 41 3d
        E 6 91 3e 4a
        E 134 81 3e 29
        E 15 81 41 37
        E 71 91 3e 47
        E 12 91 41 41
        E 139 81 3e 30
        E 16 81 41 32
        E 72 91 3e 4b
        E 1 91 41 48
        E 190 81 3e 32
        E 34 81 41 01
        E 34 91 3e 4d
        E 0 91 42 44
        E 1181 81 3e 11
        E 232 81 42 54
        E 25 91 37 3d
        E 14 91 39 48
        E 373 81 39 33
        E 15 81 37 30
        E 74 91 36 44
        E 19 91 39 3f
        E 1449 81 39 58
        E 9 81 36 63
        E 458 b0 7b 00
        GUID {D457B5EE-A5CB-E948-A85D-546B4384EA06}
        IGNTEMPO 0 120 4 4
        SRCCOLOR 599
        VELLANE -1 86 6
      >
    >
    <ITEM
      POSITION 0
      SNAPOFFS 0
      LENGTH 32.5
      LOOP 1
      ALLTAKES 0
      FADEIN 1 0 0 1 0 0
      FADEOUT 1 0 0 1 0 0
      MUTE 0
      SEL 0
      YPOS 0.090909 0.090909
      IGUID {024617D3-0E31-D747-8328-3717353F224A}
      IID 6
      NAME "strings (mid) - National_Anthems_-_Denmark.mid"
      VOLPAN 1 0 1 -1
      SOFFS 0 0
      PLAYRATE 1 1 0 -1 0 0.0025
      CHANMODE 0
      GUID {48DDD3BC-F33D-234E-8267-C759F31D6CBD}
      <SOURCE MIDI
        HASDATA 1 480 QN
        POOLEDEVTS {20E46247-C54D-364B-937D-64FAD4408F3D}
        <X 0 0
          /wNzdHJpbmdzIChtaWQp
        >
        <X 0 0
          /wRTb3VuZCBDYW52YXM=
        >
        E 467 95 39 5a
        E 4 95 42 4f
        E 1 95 3e 4a
        E 633 85 39 48
        E 74 95 39 5f
        E 63 85 3e 25
        E 161 95 3e 52
        E 1 85 42 30
        E 464 95 36 65
        E 39 85 3e 4c
        E 452 85 36 31
        E 5 95 43 4a
        E 1 95 3e 4d
        E 2 95 3b 52
        E 10 85 39 37
        E 1469 85 3b 59
        E 2 85 3e 4a
        E 13 85 43 52
        E 453 95 43 47
        E 0 95 3e 4a
        E 2386 95 42 4b
        E 11 85 43 2e
        E 659 85 42 32
        E 15 85 3e 3c
        E 267 95 39 5d
        E 1 95 3e 4f
        E 367 85 39 1b
        E 103 95 39 5a
        E 60 85 3e 42
        E 1375 95 37 4b
        E 42 85 39 34
        E 440 95 36 5a
        E 19 95 3e 4b
        E 5 85 37 39
        E 458 85 3e 32
        E 11 85 36 4c
        E 5 95 3b 41
        E 8 95 40 55
        E 454 95 39 65
        E 14 85 3b 3d
        E 483 85 40 34
        E 8 95 42 62
        E 6 85 39 4e
        E 5 95 3e 4a
        E 345 85 3e 05
        E 97 85 42 4a
        E 10 95 40 4e
        E 0 95 3d 4d
        E 957 95 3e 48
        E 1 85 3d 42
        E 6 95 3b 47
        E 952 85 3e 2c
        E 15 95 3d 44
        E 5 95 39 4a
        E 1 85 3b 3b
        E 1194 85 39 4f
        E 129 85 3d 56
        E 15 85 40 59
        E 597 95 43 5d
        E 1 95 40 55
        E 952 95 3e 52
        E 3 85 40 47
        E 457 95 3d 5a
        E 17 85 3e 32
        E 468 95 3e 4a
        E 7 85 3d 2c
        E 713 95 42 55
        E 9 85 43 42
        E 710 85 3e 01
        E 10 85 42 2c
        E 13 95 40 5a
        E 5 95 3a 5d
        E 465 85 3a 39
        E 6 95 3b 55
        E 0 95 3e 4a
        E 1 95 42 4e
        E 8 85 40 3f
        E 683 85 3e 19
        E 4 95 3f 62
        E 17 85 42 49
        E 221 85 3f 4a
        E 0 95 40 5a
        E 471 95 41 5f
        E 5 85 40 46
        E 476 95 42 5a
        E 1 95 3d 67
        E 1 85 41 44
        E 22 85 3b 42
        E 1437 85 3d 3e
        E 15 85 42 3c
        E 209 95 42 62
        E 5 95 3c 62
        E 214 85 42 50
        E 38 95 42 67
        E 6 95 3b 67
        E 10 85 3c 50
        E 420 85 3b 50
        E 26 85 42 39
        E 31 95 3b 67
        E 0 95 40 5a
        E 408 85 40 3d
        E 40 95 40 5a
        E 2 85 3b 47
        E 4 95 39 55
        E 403 85 39 45
        E 58 95 39 5a
        E 10 95 3e 5f
        E 12 85 40 42
        E 375 85 3e 1b
        E 92 85 39 4a
        E 6 95 3e 65
        E 4 95 43 67
        E 407 85 3e 32
        E 36 85 43 1d
        E 47 95 3e 65
        E 4 95 41 5f
        E 1 95 47 57
        E 626 85 41 46
        E 9 85 3e 45
        E 55 95 41 52
        E 3 95 3e 4f
        E 20 85 47 46
        E 715 95 42 4f
        E 21 85 41 4c
        E 1299 85 3e 09
        E 94 85 42 4c
        E 39 95 39 5a
        E 1 95 37 3f
        E 436 85 37 50
        E 11 95 36 67
        E 1483 85 36 65
        E 3 85 39 60
        E 479 b0 7b 00
        GUID {CAE573C0-67C5-A942-87AE-861AAB5D0BFE}
        IGNTEMPO 0 120 4 4
        SRCCOLOR 603
        VELLANE -1 86 6
      >
    >
    <ITEM
      POSITION 0
      SNAPOFFS 0
      LENGTH 32
      LOOP 1
      ALLTAKES 0
      FADEIN 1 0 0 1 0 0
      FADEOUT 1 0 0 1 0 0
      MUTE 0
      SEL 0
      YPOS 0.272727 0.090909
      IGUID {743F2F64-2A30-E24C-8183-D46E8F5BA5D9}
      IID 1
      NAME "trumpet(s) - National_Anthems_-_Denmark.mid"
      VOLPAN 1 0 1 -1
      SOFFS 0 0
      PLAYRATE 1 1 0 -1 0 0.0025
      CHANMODE 0
      GUID {5F365C9B-6D3A-4745-9851-F4F449D37229}
      <SOURCE MIDI
        HASDATA 1 480 QN
        POOLEDEVTS {2A023858-ABD9-AA43-883D-1B60A988E80A}
        <X 0 0
          /wN0cnVtcGV0KHMp
        >
        <X 0 0
          /wRTb3VuZCBDYW52YXM=
        >
        E 256 90 3e 62
        E 209 80 3e 41
        E 17 90 45 6f
        E 624 80 45 43
        E 66 90 45 6a
        E 241 90 42 67
        E 4 80 45 45
        E 458 90 3e 6f
        E 20 80 42 47
        E 480 80 3e 29
        E 6 90 47 6f
        E 1421 80 47 4c
        E 267 90 3e 5d
        E 227 80 3e 44
        E 2 90 4a 73
        E 634 80 4a 48
        E 82 90 4a 6a
        E 240 80 4a 45
        E 8 90 49 6d
        E 459 80 49 51
        E 2 90 47 65
        E 427 80 47 44
        E 61 90 47 6d
        E 480 90 45 6a
        E 9 80 47 30
        E 756 80 45 3a
        E 205 90 45 6f
        E 470 80 45 0e
        E 7 90 3d 6a
        E 629 80 3d 41
        E 91 90 3d 6d
        E 210 80 3d 43
        E 19 90 3e 6d
        E 459 80 3e 37
        E 8 90 40 67
        E 488 80 40 33
        E 6 90 42 6a
        E 481 90 44 62
        E 8 80 42 4f
        E 444 80 44 41
        E 28 90 45 65
        E 461 80 45 43
        E 22 90 47 6a
        E 485 80 47 45
        E 13 90 45 6f
        E 966 90 44 6f
        E 9 80 45 2c
        E 953 80 44 49
        E 3 90 45 6f
        E 1416 80 45 52
        E 249 90 45 6d
        E 219 80 45 4a
        E 15 90 49 73
        E 708 80 49 47
        E 42 90 49 6f
        E 211 80 49 48
        E 11 90 47 67
        E 477 80 47 4e
        E 13 90 45 6f
        E 404 80 45 3e
        E 64 90 45 6d
        E 723 90 4a 67
        E 5 80 45 4e
        E 187 80 4a 4c
        E 52 90 4a 6a
        E 463 80 4a 4b
        E 7 90 42 6d
        E 449 80 42 4b
        E 16 90 47 6a
        E 672 80 47 45
        E 50 90 47 62
        E 189 80 47 46
        E 58 90 47 6a
        E 434 80 47 40
        E 52 90 47 6a
        E 392 80 47 49
        E 57 90 47 6d
        E 999 90 46 6d
        E 4 80 47 27
        E 507 80 46 4f
        E 193 90 45 6d
        E 198 80 45 49
        E 52 90 45 73
        E 458 80 45 40
        E 11 90 44 6f
        E 482 80 44 51
        E 7 90 43 73
        E 460 90 42 6d
        E 13 80 43 01
        E 484 90 47 6a
        E 5 80 42 50
        E 467 80 47 4e
        E 3 90 4a 6f
        E 608 80 4a 49
        E 126 90 4a 6f
        E 219 80 4a 3f
        E 17 90 49 73
        E 230 80 49 41
        E 1 90 47 6a
        E 174 80 47 47
        E 83 90 47 6d
        E 469 90 45 6d
        E 4 80 47 51
        E 924 80 45 31
        E 25 90 3d 6f
        E 467 90 3e 6d
        E 12 80 3d 4d
        E 1455 80 3e 55
        E 7 b0 7b 00
        GUID {3AAFBC3D-BB3A-BB46-A782-BBE667A17013}
        IGNTEMPO 0 120 4 4
        SRCCOLOR 598
        VELLANE -1 86 6
      >
    >
    <ITEM
      POSITION 0
      SNAPOFFS 0
      LENGTH 32
      LOOP 1
      ALLTAKES 0
      FADEIN 1 0 0 1 0 0
      FADEOUT 1 0 0 1 0 0
      MUTE 0
      SEL 0
      YPOS 0.454545 0.090909
      IGUID {3CE28486-C138-3543-8651-149716B263FE}
      IID 4
      NAME "tuba(s) - National_Anthems_-_Denmark.mid"
      VOLPAN 1 0 1 -1
      SOFFS 0 0
      PLAYRATE 1 1 0 -1 0 0.0025
      CHANMODE 0
      GUID {D43EF171-C1E1-C943-887D-D80F16452F0D}
      <SOURCE MIDI
        HASDATA 1 480 QN
        POOLEDEVTS {CB395B6F-4704-2343-B1AA-9430CBC310DE}
        <X 0 0
          /wN0dWJhKHMp
        >
        <X 0 0
          /wRTb3VuZCBDYW52YXM=
        >
        E 491 93 26 6d
        E 1355 83 26 40
        E 60 93 26 6d
        E 462 83 26 37
        E 23 93 1f 73
        E 1459 83 1f 53
        E 481 93 23 6d
        E 598 83 23 3f
        E 91 93 23 6f
        E 149 83 23 3a
        E 75 93 21 6f
        E 443 83 21 3e
        E 52 93 1f 6f
        E 494 83 1f 4b
        E 2 93 26 6f
        E 399 83 26 40
        E 73 93 26 6f
        E 727 83 26 4a
        E 224 93 1e 6f
        E 430 83 1e 42
        E 42 93 1f 73
        E 663 83 1f 42
        E 80 93 1f 6d
        E 197 83 1f 30
        E 48 93 1e 6d
        E 445 83 1e 07
        E 17 93 25 6f
        E 465 83 25 01
        E 34 93 2a 73
        E 470 83 2a 51
        E 10 93 26 6a
        E 423 83 26 24
        E 33 93 25 6f
        E 463 83 25 38
        E 30 93 26 6d
        E 463 83 26 50
        E 21 93 28 73
        E 812 83 28 13
        E 127 93 1c 6f
        E 981 93 21 77
        E 11 83 1c 4f
        E 1393 83 21 64
        E 516 93 21 6d
        E 1368 83 21 50
        E 62 93 21 6f
        E 486 83 21 54
        E 1 93 26 6f
        E 652 83 26 40
        E 60 93 26 65
        E 162 83 26 3c
        E 87 93 26 6a
        E 429 83 26 2c
        E 38 93 25 6a
        E 446 83 25 49
        E 37 93 23 6f
        E 654 83 23 29
        E 49 93 21 6a
        E 224 83 21 30
        E 35 93 1f 73
        E 399 83 1f 3f
        E 68 93 1f 6a
        E 433 83 1f 25
        E 45 93 1e 6d
        E 1483 83 1e 54
        E 208 93 28 6d
        E 235 83 28 44
        E 14 93 27 73
        E 469 83 27 3a
        E 9 93 28 6d
        E 460 83 28 34
        E 19 93 25 6f
        E 465 83 25 18
        E 8 93 26 6d
        E 483 83 26 54
        E 10 93 1f 6f
        E 429 83 1f 26
        E 34 93 20 6d
        E 738 93 2c 6d
        E 4 83 20 4b
        E 152 83 2c 45
        E 69 93 2c 6a
        E 145 83 2c 43
        E 104 93 2c 73
        E 116 83 2c 4c
        E 134 93 2d 6f
        E 959 83 2d 39
        E 7 93 21 73
        E 953 83 21 4c
        E 2 93 26 73
        E 1443 83 26 65
        E 1 b0 7b 00
        GUID {F48B80D5-07D6-B140-A15F-BBEE18B4E2D5}
        IGNTEMPO 0 120 4 4
        SRCCOLOR 601
        VELLANE -1 86 6
      >
    >
    <ITEM
      POSITION 0
      SNAPOFFS 0
      LENGTH 32
      LOOP 1
      ALLTAKES 0
      FADEIN 1 0 0 1 0 0
      FADEOUT 1 0 0 1 0 0
      MUTE 0
      SEL 0
      YPOS 0.636364 0.090909
      IGUID {2691B0C0-ED8A-744C-8DA7-C11B2D882184}
      IID 7
      NAME "strings (bass) - National_Anthems_-_Denmark.mid"
      VOLPAN 1 0 1 -1
      SOFFS 0 0
      PLAYRATE 1 1 0 -1 0 0.0025
      CHANMODE 0
      GUID {1959441E-43B9-C146-97B1-D5E70163BA55}
      <SOURCE MIDI
        HASDATA 1 480 QN
        POOLEDEVTS {BD2A1E6D-C7A0-894C-BE33-726DB767802C}
        <X 0 0
          /wNzdHJpbmdzIChiYXNzKQ==
        >
        <X 0 0
          /wRTb3VuZCBDYW52YXM=
        >
        E 482 96 26 67
        E 1304 86 26 2b
        E 89 96 26 62
        E 485 86 26 3c
        E 1 96 1f 6a
        E 1453 86 1f 4f
        E 483 96 23 67
        E 656 86 23 01
        E 71 96 23 67
        E 233 86 23 3f
        E 7 96 21 62
        E 469 86 21 55
        E 5 96 1f 65
        E 476 96 26 62
        E 1 86 1f 4f
        E 420 86 26 36
        E 73 96 26 5f
        E 917 86 26 4c
        E 123 96 2a 4d
        E 400 96 2b 4f
        E 2 86 2a 50
        E 668 86 2b 40
        E 51 96 2b 55
        E 240 96 2a 65
        E 1 86 2b 41
        E 457 86 2a 3c
        E 6 96 25 5a
        E 485 86 25 4d
        E 4 96 2a 67
        E 478 86 2a 3e
        E 14 96 26 62
        E 454 86 26 3b
        E 14 96 25 65
        E 449 86 25 3d
        E 10 96 26 62
        E 475 96 28 5f
        E 1 86 26 4e
        E 1023 86 28 49
        E 1 96 1c 67
        E 921 86 1c 45
        E 10 96 21 5f
        E 1428 86 21 58
        E 497 96 21 62
        E 1362 86 21 4e
        E 42 96 21 62
        E 504 96 26 62
        E 3 86 21 4f
        E 650 86 26 3e
        E 53 96 26 5d
        E 160 86 26 2e
        E 81 96 26 5a
        E 475 86 26 33
        E 6 96 25 67
        E 446 86 25 30
        E 46 96 23 67
        E 685 86 23 1f
        E 6 96 21 65
        E 257 86 21 45
        E 5 96 1f 62
        E 387 86 1f 4d
        E 79 96 1f 65
        E 434 86 1f 2a
        E 70 96 1e 67
        E 1504 86 1e 48
        E 170 96 28 65
        E 236 96 27 5a
        E 5 86 28 3c
        E 473 96 28 62
        E 4 86 27 4a
        E 477 96 25 67
        E 1 86 28 35
        E 475 86 25 4d
        E 4 96 26 65
        E 490 96 1f 6a
        E 5 86 26 46
        E 468 86 1f 49
        E 4 96 20 6a
        E 666 86 20 3f
        E 77 96 20 6a
        E 111 86 20 41
        E 94 96 20 65
        E 141 86 20 3d
        E 105 96 20 67
        E 218 86 20 43
        E 28 96 21 6d
        E 859 86 21 4a
        E 78 96 21 6d
        E 979 86 21 57
        E 9 96 26 5f
        E 1440 86 26 66
        E 11 b0 7b 00
        GUID {6E83F81A-64BA-5447-BE7A-B6AC001EA66C}
        IGNTEMPO 0 120 4 4
        SRCCOLOR 604
        VELLANE -1 86 6
      >
    >
    <ITEM
      POSITION 0
      SNAPOFFS 0
      LENGTH 32
      LOOP 1
      ALLTAKES 0
      FADEIN 1 0 0 1 0 0
      FADEOUT 1 0 0 1 0 0
      MUTE 0
      SEL 0
      YPOS 0.363636 0.090909
      IGUID {A3CAE884-664F-BE48-871F-82B489B9BAF3}
      IID 3
      NAME "trombone(s) - National_Anthems_-_Denmark.mid"
      VOLPAN 1 0 1 -1
      SOFFS 0 0
      PLAYRATE 1 1 0 -1 0 0.0025
      CHANMODE 0
      GUID {CE6C3641-6432-BE4A-8201-52011CFCEBFC}
      <SOURCE MIDI
        HASDATA 1 480 QN
        POOLEDEVTS {61811146-39B0-A44C-9B3B-33CF89B027B7}
        <X 0 0
          /wN0cm9tYm9uZShzKQ==
        >
        <X 0 0
          /wRTb3VuZCBDYW52YXM=
        >
        E 478 92 32 6a
        E 1334 82 32 42
        E 72 92 32 5f
        E 504 82 32 46
        E 3 92 2b 65
        E 1506 82 2b 57
        E 406 92 2f 6a
        E 635 82 2f 46
        E 69 92 2f 67
        E 196 82 2f 36
        E 45 92 2d 6d
        E 456 82 2d 21
        E 40 92 2b 65
        E 462 92 32 65
        E 3 82 2b 4e
        E 381 82 32 33
        E 96 92 32 62
        E 801 82 32 01
        E 175 92 36 65
        E 456 82 36 3a
        E 17 92 37 5f
        E 653 82 37 37
        E 57 92 37 55
        E 250 82 37 1e
        E 6 92 36 65
        E 470 82 36 01
        E 0 92 31 62
        E 477 82 31 31
        E 2 92 36 62
        E 477 82 36 34
        E 6 92 32 65
        E 395 82 32 14
        E 75 92 31 6a
        E 456 82 31 41
        E 37 92 32 62
        E 452 82 32 29
        E 42 92 34 5f
        E 870 82 34 1f
        E 85 92 28 5f
        E 957 82 28 39
        E 9 92 2d 5f
        E 1459 82 2d 62
        E 470 92 39 5f
        E 1323 82 39 01
        E 109 92 2d 65
        E 449 82 2d 37
        E 14 92 32 5f
        E 706 82 32 45
        E 25 92 39 62
        E 167 82 39 36
        E 84 92 39 5d
        E 488 92 31 62
        E 5 82 39 1b
        E 434 82 31 2d
        E 20 92 2f 62
        E 702 82 2f 48
        E 8 92 39 62
        E 245 82 39 33
        E 2 92 37 4f
        E 389 82 37 2a
        E 76 92 37 4d
        E 459 82 37 16
        E 41 92 36 67
        E 1521 82 36 53
        E 150 92 34 62
        E 219 82 34 2e
        E 41 92 33 67
        E 474 82 33 26
        E 10 92 34 5f
        E 464 92 31 67
        E 17 82 34 01
        E 439 92 32 62
        E 1 82 31 40
        E 468 82 32 44
        E 22 92 2b 62
        E 482 82 2b 01
        E 8 92 2c 62
        E 731 82 2c 50
        E 1 92 38 67
        E 140 82 38 4b
        E 98 92 38 5d
        E 141 82 38 3b
        E 81 92 38 6a
        E 213 82 38 27
        E 29 92 39 62
        E 798 82 39 01
        E 174 92 2d 67
        E 919 82 2d 4a
        E 3 92 32 5a
        E 1455 82 32 63
        E 35 b0 7b 00
        GUID {77220E1E-FD6D-0046-A07A-2E28C1C92B99}
        IGNTEMPO 0 120 4 4
        SRCCOLOR 600
        VELLANE -1 86 6
      >
    >
  >
  <TRACK {F4CC3575-1D7D-424F-8F4B-C71B325A2484}
    NAME ""
    PEAKCOL 16576
    BEAT -1
    AUTOMODE 0
    VOLPAN 1 0 -1 -1 1
    MUTESOLO 0 0 0
    IPHASE 0
    ISBUS 1 1
    BUSCOMP 0 0
    SHOWINMIX 1 0.6667 0.5 1 0.5 -1 -1 -1
    FREEMODE 0
    SEL 0
    REC 0 0 0 0 0 0 0
    VU 2
    TRACKHEIGHT 0 0
    INQ 0 0 0 0.5 100 0 0 100
    NCHAN 2
    FX 1
    TRACKID {F4CC3575-1D7D-424F-8F4B-C71B325A2484}
    PERF 0
    MIDIOUT -1
    MAINSEND 1 0
    <FXCHAIN
      SHOW 0
      LASTSEL 0
      DOCKED 0
      BYPASS 0 0 0
      <VST "VSTi: chipsounds (Plogue Art et Technologie, Inc)" chipsounds.vst 0 ""
        T0dMUO5e7f4AAAAAAgAAAAEAAAAAAAAAAgAAAAAAAAA4AgAAAQAAAAAAEABDRUdQ6AcAAHic5VXfb9owEH7nr7D8tD00sUOBIQEVo2VCGioaTNpbdSTX1JrjMMdhbf/6
        OU5CYVSqJ21Puxf7zt/9+HJwN7p6zCTZoy5ErsaUB4ySq0lnNNUC1rDHo6c+i+ikQ6yM1miMUGlBfpQghXmyr5SkMt+CXOXSqt2IksJohMzCajWDx7WzTKXM4+XHMe1x
        a14urhe3pVnmCbooUJo8A2NTrmVuxtTWU8T2hVcnSLAWTi4IVpmDIpaNeYbKoB7TPmsL2ZTK5WYBc0JJ2FZvAxORuNgKMqxCBmRVaiSzB7ELoyn7Fn5ZVQd5VyopMmEw
        eU/JFtT3hfXjjA0piR9AKZRjemFr2znavE+JOcu7295pUClWyIPRWFOxywt0ZWSlqS/FzzsJheNdV+sqXoJQbcV7kCW6Tp3SOgXyA/CM/ykw8gV2fYGXvsCeL7DvCxz4
        Aj/4Aoe+QM68kd694d7N4d7d4d7t4W/1ZwUasiboS6U8eh29AZ2iaf5wcZ4FK5mnJQbVpAk+z2+DskB9/Kt3XrOysPPgGgwQ87SznlHU7VezQDxb5bLqYzugbD5UiYD6
        mlgXe2llXh8R+7tySjGsOf4paf6fkN5okaao13Z2o4pRv0mbDyI+bGn3Bke0o9do84Z1I7U+cPfubDAfnpCYse78H36IUVhtmeZ+c3+PsTlfO9NsK6ov8ftmaRfVp6+L
        1gFiI/a4OOzEWr952ZEobQpMNrCtF5KNMQrbLT7p/ALXVPqxAAAQAAAA
      >
      FLOATPOS 404 36 871 509
      FXID {8431A072-55F4-FD4E-8B7D-D2D9F1493C94}
      WAK 0
    >
  >
  <TRACK {65BF5D08-DF3D-EA42-ADEF-5C04FE4BCE10}
    NAME ""
    PEAKCOL 16576
    BEAT -1
    AUTOMODE 0
    VOLPAN 1 0 -1 -1 1
    MUTESOLO 0 0 0
    IPHASE 0
    ISBUS 2 -1
    BUSCOMP 0 0
    SHOWINMIX 1 0.6667 0.5 1 0.5 -1 -1 -1
    FREEMODE 0
    SEL 0
    REC 0 0 0 0 0 0 0
    VU 2
    TRACKHEIGHT 0 0
    INQ 0 0 0 0.5 100 0 0 100
    NCHAN 2
    FX 1
    TRACKID {65BF5D08-DF3D-EA42-ADEF-5C04FE4BCE10}
    PERF 0
    MIDIOUT -1
    MAINSEND 1 0
    <ITEM
      POSITION 0
      SNAPOFFS 0
      LENGTH 32
      LOOP 1
      ALLTAKES 0
      FADEIN 1 0 0 1 0 0
      FADEOUT 1 0 0 1 0 0
      MUTE 0
      SEL 0
      YPOS 0.545455 0.090909
      IGUID {01D75273-42F7-4B40-AC2A-F89E1E9FA869}
      IID 5
      NAME "strings (hi) - National_Anthems_-_Denmark.mid"
      VOLPAN 1 0 1 -1
      SOFFS 0 0
      PLAYRATE 1 1 0 -1 0 0.0025
      CHANMODE 0
      GUID {E57A44D9-F28F-BC4A-92E5-4284DE8D0FDC}
      <SOURCE MIDI
        HASDATA 1 480 QN
        POOLEDEVTS {CC3AF40F-3C65-564F-9A22-B4AEEAA136CB}
        <X 0 0
          /wNzdHJpbmdzIChoaSk=
        >
        <X 0 0
          /wRTb3VuZCBDYW52YXM=
        >
        E 232 94 4a 4b
        E 9 94 3e 5d
        E 228 94 45 5f
        E 0 94 51 67
        E 4 84 3e 42
        E 5 84 4a 32
        E 640 84 45 27
        E 1 84 51 44
        E 43 94 45 47
        E 4 94 51 55
        E 238 94 4e 62
        E 3 94 42 62
        E 19 84 45 27
        E 2 84 51 48
        E 447 94 4a 5a
        E 1 94 3e 65
        E 3 84 4e 40
        E 4 84 42 4e
        E 477 94 53 65
        E 6 84 4a 31
        E 10 94 47 5f
        E 1 84 3e 48
        E 1397 84 53 4c
        E 10 84 47 3b
        E 271 94 4a 55
        E 10 94 3e 65
        E 185 84 4a 1f
        E 52 84 3e 49
        E 24 94 4a 67
        E 1 94 56 62
        E 643 84 56 49
        E 18 84 4a 29
        E 42 94 56 5a
        E 2 94 4a 5f
        E 215 94 49 62
        E 1 94 55 5f
        E 1 84 4a 43
        E 21 84 56 4c
        E 428 84 49 24
        E 1 94 47 4b
        E 4 94 53 4e
        E 19 84 55 47
        E 395 84 47 3b
        E 47 84 53 3a
        E 42 94 47 57
        E 9 94 53 5a
        E 470 94 45 4f
        E 8 94 51 55
        E 2 84 53 43
        E 2 84 47 2b
        E 721 84 51 28
        E 41 84 45 2c
        E 219 94 51 55
        E 6 94 45 65
        E 436 84 51 35
        E 9 94 49 5f
        E 3 94 3d 42
        E 14 84 45 22
        E 610 84 3d 21
        E 41 84 49 16
        E 63 94 3d 62
        E 6 94 49 67
        E 208 84 3d 43
        E 18 94 4a 5a
        E 6 94 3e 55
        E 5 84 49 31
        E 436 84 3e 33
        E 7 94 4c 57
        E 3 94 40 4b
        E 6 84 4a 36
        E 479 94 4e 62
        E 1 94 42 62
        E 12 84 40 35
        E 11 84 4c 29
        E 466 94 44 4e
        E 1 94 50 65
        E 26 84 4e 47
        E 3 84 42 3f
        E 435 84 50 4b
        E 13 94 51 62
        E 7 84 44 38
        E 0 94 45 5f
        E 461 94 53 52
        E 11 84 51 2f
        E 6 84 45 4b
        E 1 94 47 65
        E 477 94 51 5f
        E 2 94 45 62
        E 7 84 47 13
        E 4 84 53 40
        E 972 94 44 5f
        E 9 94 50 6a
        E 5 84 51 38
        E 0 84 45 2b
        E 931 94 51 62
        E 1 84 44 51
        E 3 84 50 46
        E 1 94 45 5a
        E 1434 84 51 5a
        E 4 84 45 5a
        E 224 94 45 5d
        E 8 94 51 52
        E 257 94 55 65
        E 1 94 49 5f
        E 6 84 51 36
        E 2 84 45 41
        E 637 84 49 31
        E 19 84 55 43
        E 48 94 55 62
        E 0 94 49 67
        E 255 94 47 5d
        E 1 94 53 4e
        E 13 84 49 3a
        E 3 84 55 3b
        E 409 84 47 44
        E 9 94 45 5f
        E 11 94 51 4f
        E 8 84 53 3e
        E 429 84 45 3f
        E 2 84 51 3e
        E 51 94 45 62
        E 4 94 51 5d
        E 702 94 4a 48
        E 12 94 56 52
        E 15 84 45 44
        E 18 84 51 0c
        E 122 84 4a 34
        E 25 84 56 48
        E 57 94 56 47
        E 6 94 4a 4e
        E 471 84 56 3b
        E 13 84 4a 02
        E 15 94 4e 55
        E 8 94 42 62
        E 450 94 47 57
        E 3 94 53 4b
        E 21 84 42 3c
        E 13 84 4e 45
        E 614 84 47 3f
        E 28 84 53 3c
        E 44 94 47 5a
        E 3 94 53 4d
        E 176 84 47 32
        E 25 84 53 38
        E 36 94 53 4a
        E 4 94 47 5a
        E 401 84 47 38
        E 15 84 53 3f
        E 48 94 53 4d
        E 2 94 47 55
        E 398 84 47 37
        E 22 84 53 41
        E 60 94 47 5f
        E 1 94 53 4d
        E 926 84 47 08
        E 34 94 46 55
        E 5 84 53 3a
        E 4 94 52 4d
        E 548 84 46 2e
        E 21 84 52 38
        E 153 94 45 5f
        E 13 94 51 62
        E 137 84 45 3e
        E 34 84 51 37
        E 47 94 45 5f
        E 14 94 51 5d
        E 415 84 45 01
        E 48 84 51 12
        E 1 94 44 4a
        E 3 94 50 62
        E 464 84 44 38
        E 5 94 43 62
        E 3 84 50 40
        E 0 94 4f 5d
        E 482 84 43 30
        E 4 84 4f 2b
        E 1 94 42 67
        E 3 94 4e 45
        E 464 94 47 5a
        E 8 94 53 5a
        E 10 84 42 4a
        E 0 84 4e 40
        E 470 94 56 4f
        E 5 94 4a 5a
        E 5 84 47 50
        E 21 84 53 4a
        E 607 84 56 3e
        E 0 84 4a 27
        E 93 94 56 52
        E 1 94 4a 5a
        E 241 94 49 62
        E 1 94 55 62
        E 11 84 56 40
        E 3 84 4a 10
        E 209 94 47 5d
        E 3 84 49 22
        E 0 94 53 4f
        E 19 84 55 28
        E 150 84 47 33
        E 27 84 53 3f
        E 56 94 47 5f
        E 2 94 53 4e
        E 467 84 47 2c
        E 3 94 45 52
        E 9 94 51 4d
        E 3 84 53 42
        E 868 84 45 01
        E 9 84 51 18
        E 108 94 3d 5f
        E 3 94 49 5f
        E 457 84 3d 37
        E 7 94 4a 5a
        E 6 94 3e 5a
        E 32 84 49 41
        E 1381 84 3e 57
        E 12 84 4a 5f
        E 21 b0 7b 00
        GUID {6A613BDA-688D-7D4D-8913-627BE68DFFBF}
        IGNTEMPO 0 120 4 4
        SRCCOLOR 602
        VELLANE -1 86 6
      >
    >
  >
  <TRACK {533E5558-895F-AD41-AFED-94D097E72BF2}
    NAME "26 Denmark (Olympic)"
    PEAKCOL 16576
    BEAT -1
    AUTOMODE 0
    VOLPAN 1 0 -1 -1 1
    MUTESOLO 0 0 0
    IPHASE 0
    ISBUS 0 0
    BUSCOMP 0 0
    SHOWINMIX 1 0.6667 0.5 1 0.5 -1 -1 -1
    FREEMODE 0
    SEL 1
    REC 0 0 0 0 0 0 0
    VU 2
    TRACKHEIGHT 0 0
    INQ 0 0 0 0.5 100 0 0 100
    NCHAN 2
    FX 1
    TRACKID {533E5558-895F-AD41-AFED-94D097E72BF2}
    PERF 0
    MIDIOUT -1
    MAINSEND 1 0
    <ITEM
      POSITION 0
      SNAPOFFS 0
      LENGTH 41.22289019915314
      LOOP 1
      ALLTAKES 0
      FADEIN 1 0 0 1 0 0
      FADEOUT 1 0 0 1 0 0
      MUTE 0
      SEL 1
      IGUID {6E985E1A-F1B9-7143-B690-07329B7DF99D}
      IID 18
      NAME "26 Denmark (Olympic).mp3"
      VOLPAN 1 0 1 -1
      SOFFS 2.57354086306862
      PLAYRATE 1.46520536789632 1 0 -1 0 0.0025
      CHANMODE 0
      GUID {30A6EFFD-912D-9546-8864-778A49EEEBB1}
      <SOURCE MP3
        FILE "26 Denmark (Olympic).mp3" 1
      >
    >
  >
  <EXTENSIONS
    <SWSAUTOCOLOR
      {00000000-0000-0000-0000-000000000000} 0 ""
      {86F69ED7-53D5-6A44-A98B-A14564BF1F54} 0 ""
      {F4CC3575-1D7D-424F-8F4B-C71B325A2484} 0 ""
      {65BF5D08-DF3D-EA42-ADEF-5C04FE4BCE10} 0 ""
      {533E5558-895F-AD41-AFED-94D097E72BF2} 0 ""
    >
  >
>
