<REAPER_PROJECT 0.1 "5.50rc21/OSX64" 1511880863
  RIPPLE 0
  GROUPOVERRIDE 0 0 0
  AUTOXFADE 0
  ENVATTACH 1
  POOLEDENVATTACH 0
  MIXERUIFLAGS 11 52
  PEAKGAIN 1
  FEEDBACK 0
  PANLAW 1
  PROJOFFS 0 0
  MAXPROJLEN 0 600
  GRID 12543 8 0.25 8 0.03125 0 0 0
  TIMEMODE 6 0 -1 24 2
  PANMODE 3
  CURSOR 30.5
  ZOOM 40.18775719755229 1127 0
  VZOOMEX 0
  USE_REC_CFG 0
  RECMODE 1
  SMPTESYNC 0 23.976024 100 40 1000 300 0 0 1 0 0
  MIDIEDITOR -116919545 0 0
  LOOP 1
  LOOPGRAN 0 0.03125
  RECORD_PATH "" ""
  <RECORD_CFG
    ZXZhdxAA
  >
  <APPLYFX_CFG
  >
  RENDER_FILE "/Users/samenglander/_dev/colorflags/anthems/brazil_3.mp3"
  RENDER_FMT 0 2 44100
  RENDER_1X 0
  RENDER_RANGE 2 0 0 18 1000
  RENDER_RESAMPLE 3 0 1
  RENDER_ADDTOPROJ 0
  RENDER_STEMS 0
  RENDER_DITHER 0
  TIMELOCKMODE 1
  TEMPOENVLOCKMODE 1
  ITEMMIX 1
  DEFPITCHMODE 589824
  TAKELANE 3
  SAMPLERATE 44100 0 0
  <RENDER_CFG
    bDNwbSAAAAABAAAABQAAAAAAAAAAAAAAQAEAAAAAAAA=
  >
  LOCK 16384
  <METRONOME 6 2
    VOL 0.25 0.125
    FREQ 800 1600 1
    BEATLEN 4
    SAMPLES "" ""
    PATTERN 2863311530 2863311529
  >
  GLOBAL_AUTO -1
  SELECTIONSET 9 "Selection set 10"
  TEMPO 120 4 4
  PLAYRATE 1 0 0.25 4
  SELECTION 30.5 46.5
  SELECTION2 30.5 46.5
  MASTERAUTOMODE 0
  MASTERTRACKHEIGHT 0
  MASTERPEAKCOL 16576
  MASTERMUTESOLO 0
  MASTERTRACKVIEW 0 0.6667 0.5 0.5 0 0 0
  MASTERHWOUT 0 0 1 0 0 0 0 -1
  MASTER_NCH 2 2
  MASTER_VOLUME 1 0 -1 -1 1
  MASTER_FX 1
  MASTER_SEL 0
  <MASTERPLAYSPEEDENV
    ACT 0
    VIS 0 1 1
    LANEHEIGHT 0 0
    ARM 0
    DEFSHAPE 0 -1 -1
  >
  <TEMPOENVEX
    ACT 0
    VIS 1 0 1
    LANEHEIGHT 0 0
    ARM 0
    DEFSHAPE 1 -1 -1
  >
  <SCREENSET
    <SET
      POS 0
      NAME "Untitled View State (2014/11/28 05:58)"
      MASK -141
      CURSORPOS 2
      SCROLLX 0 0
      TRACKSCALE 25.47655226
      SCROLLY 0
      VZOOM 4
      TRACKHEIGHT {8751D64D-1703-0245-8AC9-9769FDECC3FE} 0 0 0 0.6667 0.5 0.5 0 -1 -1 -1 0
      TRACKHEIGHT {E3278B14-BC65-E745-90D7-806999E0CBD4} 0 1 0 0.6667 0.5 0.5 0 -1 -1 -1 1
    >
    <SET
      POS 9
      NAME "Untitled View State (2014/11/28 05:58)"
      MASK -141
      CURSORPOS 2
      SCROLLX 0 0
      TRACKSCALE 25.47655226
      SCROLLY 0
      VZOOM 11
      TRACKHEIGHT {8751D64D-1703-0245-8AC9-9769FDECC3FE} 0 1 0 0.6667 0.5 0.5 0 -1 -1 -1 1
      TRACKHEIGHT {E3278B14-BC65-E745-90D7-806999E0CBD4} 0 0 0 0.6667 0.5 0.5 0 -1 -1 -1 0
    >
  >
  <PROJBAY
  >
  <TRACK {AAAAEF82-1176-974A-A9E9-C9F3679E247F}
    NAME midi
    PEAKCOL 16576
    BEAT -1
    AUTOMODE 0
    VOLPAN 1 0 -1 -1 1
    MUTESOLO 0 0 0
    IPHASE 0
    ISBUS 0 0
    BUSCOMP 0 0
    SHOWINMIX 1 0.6667 0.5 1 0.5 0 0 0
    FREEMODE 0
    SEL 0
    REC 0 0 0 0 0 0 0
    VU 2
    TRACKHEIGHT 0 0
    INQ 0 0 0 0.5 100 0 0 100
    NCHAN 2
    FX 1
    TRACKID {AAAAEF82-1176-974A-A9E9-C9F3679E247F}
    PERF 0
    MIDIOUT -1
    MAINSEND 1 0
    <ITEM
      POSITION 0
      SNAPOFFS 0
      LENGTH 113
      LOOP 1
      ALLTAKES 0
      FADEIN 1 0 0 1 0 0
      FADEOUT 1 0 0 1 0 0
      MUTE 0
      SEL 0
      YPOS 0.298701 0.103896
      IGUID {CAF7C269-05C3-A841-9304-D55D5A0BB7C7}
      IID 15
      NAME "fr. horn(s) - National_Anthems_-_Brazil.mid"
      VOLPAN 1 0 1 -1
      SOFFS 0 0
      PLAYRATE 1 1 0 -1 0 0.0025
      CHANMODE 0
      TAKECOLOR 26173599 B
      GUID {1DDEA732-C23C-4C4E-BC45-57F7E7583895}
      <SOURCE MIDI
        HASDATA 1 480 QN
        POOLEDEVTS {6D48DFCA-48D7-E54E-816B-388A57FD2C4B}
        <X 0 0 0 0 3 "fr. horn(s)"
          /wNmci4gaG9ybihzKQ==
        >
        <X 0 0 0 0 4 "Sound Canvas"
          /wRTb3VuZCBDYW52YXM=
        >
        E 339 91 3c 53
        E 59 81 3c 46
        E 70 91 3c 60
        E 77 81 3c 25
        E 4 91 3e 5d
        E 70 91 3c 53
        E 19 81 3e 3e
        E 60 91 3b 57
        E 10 81 3c 42
        E 86 91 3c 5b
        E 17 81 3b 42
        E 135 91 41 5a
        E 3 81 3c 32
        E 156 81 41 2c
        E 159 91 41 5f
        E 52 81 41 47
        E 85 91 41 64
        E 91 91 43 69
        E 5 81 41 4d
        E 58 91 41 59
        E 14 81 43 49
        E 58 91 40 59
        E 17 81 41 4e
        E 73 91 41 5d
        E 29 81 40 33
        E 103 81 41 3a
        E 21 91 45 5f
        E 181 81 45 27
        E 167 91 45 64
        E 41 81 45 44
        E 80 91 45 5d
        E 80 91 46 63
        E 5 81 45 45
        E 85 91 45 53
        E 7 81 46 43
        E 64 91 44 61
        E 15 81 45 3b
        E 76 91 45 61
        E 26 81 44 36
        E 122 81 45 23
        E 9 91 48 5e
        E 159 81 48 44
        E 344 91 48 4c
        E 0 91 45 50
        E 4 91 41 4e
        E 770 81 45 3d
        E 17 81 48 44
        E 7 81 41 4a
        E 209 91 3c 5f
        E 152 81 3c 2a
        E 139 91 3c 52
        E 98 81 3c 23
        E 64 91 41 63
        E 206 81 41 22
        E 104 91 40 53
        E 124 81 40 13
        E 39 91 43 68
        E 225 81 43 27
        E 94 91 41 58
        E 137 81 41 07
        E 50 91 45 5a
        E 216 81 45 20
        E 56 91 43 60
        E 116 81 43 22
        E 63 91 46 63
        E 208 81 46 0a
        E 95 91 45 50
        E 79 81 45 01
        E 93 91 42 5b
        E 456 81 42 0b
        E 28 91 43 63
        E 528 81 43 50
        E 330 91 3e 63
        E 45 81 3e 3e
        E 71 91 3e 62
        E 81 81 3e 14
        E 1 91 40 5e
        E 73 91 3e 53
        E 11 81 40 41
        E 61 91 3d 62
        E 9 81 3e 3f
        E 95 91 3e 5e
        E 3 81 3d 40
        E 136 81 3e 33
        E 9 91 43 69
        E 181 81 43 29
        E 150 91 43 67
        E 43 81 43 49
        E 85 91 43 63
        E 88 91 45 59
        E 5 81 43 47
        E 72 91 43 64
        E 13 81 45 3f
        E 70 91 42 52
        E 8 81 43 50
        E 77 91 43 63
        E 22 81 42 2d
        E 107 81 43 1f
        E 11 91 46 67
        E 172 81 46 3c
        E 181 91 46 6b
        E 42 81 46 48
        E 69 91 46 68
        E 75 81 46 44
        E 12 91 48 56
        E 62 91 46 63
        E 18 81 48 48
        E 68 91 45 43
        E 4 81 46 3e
        E 90 91 46 67
        E 34 81 45 2b
        E 128 81 46 35
        E 11 91 4a 5c
        E 171 81 4a 25
        E 295 91 46 5a
        E 3 91 4a 49
        E 4 91 43 52
        E 927 81 46 01
        E 12 81 43 01
        E 4 81 4a 27
        E 491 91 46 49
        E 307 81 46 27
        E 192 91 46 4e
        E 286 81 46 01
        E 192 91 43 4e
        E 271 81 43 1a
        E 224 91 43 5b
        E 307 81 43 01
        E 183 91 41 42
        E 266 81 41 28
        E 212 91 41 40
        E 530 81 41 47
        E 262 91 3c 5c
        E 51 81 3c 42
        E 90 91 3c 5a
        E 92 81 3c 4c
        E 3 91 3e 59
        E 54 91 3c 56
        E 17 81 3e 43
        E 61 91 3b 54
        E 13 81 3c 38
        E 89 91 3c 53
        E 13 81 3b 3b
        E 111 81 3c 20
        E 63 91 41 4e
        E 172 81 41 44
        E 139 91 41 59
        E 55 81 41 40
        E 84 91 41 5c
        E 83 91 43 64
        E 1 81 41 3f
        E 66 91 41 55
        E 15 81 43 49
        E 64 91 40 50
        E 11 81 41 3e
        E 77 91 41 5d
        E 18 81 40 30
        E 122 81 41 27
        E 37 91 45 5c
        E 179 81 45 30
        E 154 91 41 57
        E 58 81 41 3d
        E 74 91 41 57
        E 95 91 43 62
        E 2 81 41 3e
        E 59 91 41 57
        E 10 81 43 47
        E 88 91 40 54
        E 7 81 41 42
        E 89 91 41 57
        E 13 81 40 26
        E 152 81 41 36
        E 23 91 3e 4e
        E 198 81 3e 27
        E 114 91 43 66
        E 64 81 43 43
        E 68 91 43 68
        E 86 81 43 39
        E 5 91 45 54
        E 65 91 43 67
        E 6 81 45 3d
        E 68 91 42 54
        E 11 81 43 4f
        E 79 91 43 5b
        E 40 81 42 0e
        E 73 81 43 44
        E 24 91 46 65
        E 214 81 46 40
        E 130 91 43 64
        E 45 81 43 43
        E 85 91 43 64
        E 63 81 43 24
        E 12 91 45 5a
        E 73 91 43 5c
        E 12 81 45 3d
        E 61 91 42 5a
        E 7 81 43 40
        E 95 91 43 62
        E 19 81 42 31
        E 113 81 43 2f
        E 33 91 40 59
        E 229 81 40 28
        E 102 91 45 5b
        E 50 81 45 3e
        E 85 91 45 59
        E 75 91 46 5f
        E 4 81 45 40
        E 78 91 45 54
        E 9 81 46 32
        E 61 91 44 62
        E 7 81 45 32
        E 100 91 45 5e
        E 31 81 44 1f
        E 143 81 45 14
        E 14 91 48 59
        E 181 81 48 3d
        E 164 91 45 53
        E 56 81 45 33
        E 74 91 45 5e
        E 94 91 46 62
        E 4 81 45 3c
        E 67 91 45 4f
        E 15 81 46 35
        E 53 91 44 62
        E 6 81 45 38
        E 108 91 45 4b
        E 12 81 44 43
        E 99 81 45 3c
        E 20 91 41 59
        E 207 81 41 31
        E 115 91 46 63
        E 45 81 46 47
        E 79 91 46 68
        E 77 81 46 4f
        E 16 91 48 4f
        E 63 91 46 66
        E 11 81 48 43
        E 80 91 45 53
        E 12 81 46 40
        E 81 91 46 67
        E 21 81 45 38
        E 129 81 46 29
        E 28 91 43 69
        E 232 81 43 32
        E 127 91 48 5c
        E 74 81 48 41
        E 52 91 48 5e
        E 74 81 48 36
        E 13 91 4a 60
        E 60 91 48 51
        E 15 81 4a 46
        E 74 91 47 54
        E 3 81 48 48
        E 111 81 47 3f
        E 6 91 48 5c
        E 140 81 48 32
        E 16 91 45 5d
        E 231 81 45 35
        E 210 91 44 49
        E 6 91 4a 42
        E 1 91 41 48
        E 849 81 44 12
        E 30 81 41 25
        E 29 81 4a 31
        E 491 91 41 52
        E 4 91 45 4f
        E 2 91 3c 41
        E 442 81 41 2c
        E 5 81 45 3e
        E 46 81 3c 3b
        E 494 91 3a 56
        E 1 91 3c 53
        E 5 91 37 2f
        E 508 81 3c 39
        E 1 81 3a 1a
        E 39 81 37 22
        E 406 91 3c 50
        E 1 91 39 46
        E 1 91 35 39
        E 144 81 3c 31
        E 12 81 39 10
        E 34 81 35 12
        E 19489 91 41 52
        E 1 91 45 51
        E 328 81 41 1c
        E 0 81 45 0a
        E 123 91 46 51
        E 3 91 43 52
        E 499 81 43 36
        E 11 81 46 45
        E 675 91 41 4b
        E 1 91 45 4c
        E 117 81 45 18
        E 1 81 41 0d
        E 356 91 43 5a
        E 0 91 40 48
        E 114 81 43 2c
        E 17 81 40 07
        E 365 91 41 57
        E 7 91 3e 4c
        E 129 81 41 1d
        E 4 81 3e 23
        E 307 91 3d 48
        E 12 91 40 4d
        E 66 81 40 40
        E 14 81 3d 34
        E 417 91 45 50
        E 2 91 41 58
        E 1 91 3e 4e
        E 47 81 41 4a
        E 6 81 45 3f
        E 0 81 3e 39
        E 57 91 45 60
        E 5 91 3e 52
        E 1 91 41 5c
        E 37 81 41 47
        E 8 81 3e 3c
        E 5 81 45 45
        E 64 91 45 62
        E 4 91 41 5e
        E 1 91 3e 52
        E 65 81 3e 29
        E 3 81 41 34
        E 11 81 45 36
        E 174 91 45 5b
        E 3 91 41 58
        E 2 91 3e 52
        E 56 81 3e 28
        E 4 81 41 3c
        E 16 81 45 2d
        E 161 91 45 51
        E 2 91 41 56
        E 3 91 3e 4d
        E 483 81 41 3a
        E 8 81 45 45
        E 2 81 3e 1a
        E 715 91 43 5b
        E 1 91 3b 4b
        E 0 91 3e 55
        E 47 81 3e 3c
        E 5 81 43 3a
        E 3 81 3b 2f
        E 59 91 3b 49
        E 0 91 43 5d
        E 0 91 3e 59
        E 53 81 3e 3d
        E 3 81 43 3a
        E 8 81 3b 2f
        E 58 91 43 5a
        E 2 91 3e 5a
        E 1 91 3b 4e
        E 59 81 3e 34
        E 7 81 43 3c
        E 7 81 3b 28
        E 156 91 43 5f
        E 1 91 3b 51
        E 0 91 3e 53
        E 56 81 3e 2a
        E 9 81 3b 2a
        E 1 81 43 36
        E 160 91 43 57
        E 1 91 3e 50
        E 1 91 3b 4c
        E 407 81 3b 01
        E 6 81 3e 04
        E 46 81 43 31
        E 997 91 43 60
        E 0 91 40 4c
        E 381 81 43 2e
        E 39 81 40 01
        E 41 91 45 4b
        E 0 91 41 4e
        E 500 81 41 33
        E 10 81 45 40
        E 704 91 40 49
        E 1 91 43 5e
        E 89 81 43 2e
        E 32 81 40 01
        E 349 91 41 51
        E 2 91 3e 4d
        E 117 81 41 1f
        E 12 81 3e 14
        E 338 91 3c 49
        E 1 91 40 4d
        E 115 81 3c 01
        E 14 81 40 01
        E 352 91 3e 4f
        E 3 91 3b 45
        E 89 81 3b 1b
        E 10 81 3e 18
        E 607 91 43 56
        E 1 91 40 46
        E 6 91 3c 37
        E 462 81 43 1c
        E 0 81 40 13
        E 26 81 3c 0a
        E 268 91 3c 59
        E 146 81 3c 0e
        E 82 91 40 5f
        E 198 81 40 01
        E 49 91 43 5c
        E 173 81 43 23
        E 60 91 40 5e
        E 3 91 3c 50
        E 99 81 40 44
        E 44 81 3c 35
        E 99 91 3c 5b
        E 110 91 3e 58
        E 5 81 3c 31
        E 106 91 40 5b
        E 20 81 3e 09
        E 95 91 41 5b
        E 1 81 40 47
        E 129 91 43 64
        E 18 81 41 01
        E 88 91 45 5c
        E 4 81 43 27
        E 104 81 45 43
        E 16 91 46 58
        E 125 81 46 52
        E 94 91 3c 5c
        E 107 91 3e 53
        E 29 81 3c 06
        E 95 91 40 54
        E 1 81 3e 30
        E 111 91 41 52
        E 1 81 40 42
        E 131 91 43 49
        E 6 81 41 27
        E 98 81 43 35
        E 11 91 45 56
        E 129 81 45 26
        E 3 91 46 5f
        E 147 81 46 21
        E 113 91 43 69
        E 107 81 43 26
        E 125 91 40 5e
        E 158 81 40 2d
        E 83 91 3c 5b
        E 96 81 3c 29
        E 145 91 46 68
        E 134 81 46 3d
        E 97 91 43 67
        E 142 81 43 40
        E 100 91 40 58
        E 154 81 40 2b
        E 97 91 3c 51
        E 146 81 3c 25
        E 110 91 41 5f
        E 203 81 41 34
        E 136 91 40 53
        E 116 81 40 14
        E 38 91 41 61
        E 184 81 41 1e
        E 120 91 43 67
        E 103 81 43 22
        E 64 91 45 53
        E 204 81 45 29
        E 128 91 43 64
        E 111 81 43 1e
        E 39 91 45 63
        E 175 81 45 21
        E 124 91 46 5b
        E 109 81 46 26
        E 84 91 47 54
        E 704 81 47 2a
        E 34 91 48 52
        E 98 81 48 47
        E 5 91 45 5b
        E 131 81 45 20
        E 17 91 41 5c
        E 275 81 41 4b
        E 177 91 3c 5d
        E 193 81 3c 2b
        E 127 91 3c 55
        E 99 81 3c 0d
        E 62 91 41 56
        E 225 81 41 26
        E 72 91 40 4b
        E 110 81 40 0a
        E 58 91 43 67
        E 254 81 43 17
        E 82 91 41 4e
        E 104 81 41 01
        E 57 91 45 5d
        E 252 81 45 01
        E 56 91 43 5c
        E 127 81 43 01
        E 48 91 46 5b
        E 267 81 46 01
        E 60 91 45 63
        E 136 81 45 1c
        E 44 91 42 4c
        E 442 81 42 1f
        E 31 91 43 63
        E 648 81 43 3d
        E 290 91 3c 50
        E 210 81 3c 1a
        E 125 91 3c 51
        E 120 81 3c 08
        E 37 91 43 66
        E 229 81 43 12
        E 69 91 42 54
        E 115 81 42 24
        E 40 91 43 66
        E 258 81 43 07
        E 48 91 45 51
        E 125 81 45 01
        E 51 91 46 5f
        E 221 81 46 1a
        E 98 91 45 54
        E 115 81 45 0e
        E 35 91 46 65
        E 236 81 46 0d
        E 93 91 48 46
        E 56 81 48 41
        E 107 91 49 61
        E 694 81 49 1d
        E 53 91 4a 54
        E 103 81 4a 26
        E 4 91 46 54
        E 140 81 46 35
        E 4 91 43 5c
        E 347 81 43 51
        E 134 91 3c 4a
        E 185 81 3c 2c
        E 112 91 3c 52
        E 115 81 3c 1a
        E 38 91 43 68
        E 242 81 43 01
        E 67 91 42 5a
        E 119 81 42 13
        E 50 91 45 59
        E 248 81 45 0d
        E 64 91 43 5c
        E 120 81 43 21
        E 37 91 46 51
        E 283 81 46 22
        E 198 91 48 53
        E 249 81 48 27
        E 49 91 46 62
        E 156 81 46 23
        E 16 91 44 56
        E 501 81 44 10
        E 12 91 45 45
        E 704 81 45 28
        E 544 91 41 4b
        E 90 81 41 42
        E 75 91 43 52
        E 242 81 43 34
        E 72 91 41 48
        E 144 81 41 35
        E 25 91 40 51
        E 232 81 40 01
        E 81 91 41 4c
        E 105 81 41 1d
        E 56 91 40 57
        E 253 81 40 08
        E 65 91 41 52
        E 108 81 41 16
        E 41 91 43 63
        E 258 81 43 28
        E 96 91 41 48
        E 86 81 41 2a
        E 72 91 41 54
        E 705 91 46 4a
        E 13 81 41 12
        E 141 81 46 38
        E 74 91 46 4c
        E 631 81 46 22
        E 204 91 43 5a
        E 105 81 43 38
        E 45 91 45 57
        E 255 81 45 1b
        E 56 91 43 4a
        E 111 81 43 16
        E 45 91 42 53
        E 248 81 42 01
        E 72 91 43 5d
        E 96 81 43 25
        E 50 91 42 47
        E 317 81 42 01
        E 21 91 43 64
        E 102 81 43 19
        E 62 91 45 51
        E 245 81 45 01
        E 67 91 43 56
        E 83 81 43 39
        E 74 91 43 5f
        E 724 91 48 50
        E 46 81 43 0c
        E 91 81 48 1b
        E 78 91 48 4b
        E 711 81 48 0c
        E 172 91 45 4f
        E 87 81 45 37
        E 21 91 46 63
        E 275 81 46 3a
        E 23 91 45 4e
        E 119 81 45 18
        E 29 91 44 52
        E 314 81 44 07
        E 21 91 45 43
        E 118 81 45 27
        E 47 91 44 55
        E 321 81 44 09
        E 28 91 45 52
        E 131 81 45 01
        E 39 91 46 56
        E 252 81 46 2a
        E 52 91 45 52
        E 70 81 45 1b
        E 89 91 45 4a
        E 426 81 45 01
        E 41 91 4a 4c
        E 620 81 4a 2d
        E 121 91 48 4c
        E 168 81 48 01
        E 44 91 46 4e
        E 211 91 43 57
        E 20 81 46 01
        E 112 81 43 2c
        E 129 91 43 55
        E 453 81 43 3e
        E 30 91 41 49
        E 638 81 41 16
        E 102 91 40 55
        E 205 81 40 01
        E 25 91 41 52
        E 155 81 41 12
        E 87 91 43 2f
        E 146 81 43 2d
        E 86 91 46 4e
        E 206 81 46 36
        E 33 91 45 47
        E 157 81 45 02
        E 105 91 40 51
        E 208 81 40 3e
        E 12 91 41 4d
        E 123 81 41 12
        E 116 91 3d 4e
        E 212 91 3e 5f
        E 19 81 3d 1f
        E 125 81 3e 01
        E 86 91 46 61
        E 229 81 46 30
        E 31 91 43 57
        E 147 81 43 36
        E 100 91 43 60
        E 357 81 43 01
        E 101 91 41 49
        E 618 81 41 32
        E 150 91 43 66
        E 142 81 43 2c
        E 75 91 45 58
        E 131 81 45 22
        E 87 91 46 56
        E 156 81 46 06
        E 102 91 47 50
        E 211 81 47 01
        E 39 91 48 4a
        E 171 81 48 20
        E 75 91 45 5c
        E 202 81 45 01
        E 37 91 41 4d
        E 173 81 41 2a
        E 85 91 3e 52
        E 190 91 40 5d
        E 9 81 3e 2e
        E 131 81 40 38
        E 1 91 41 5e
        E 128 81 41 27
        E 13 91 43 5c
        E 137 91 45 5a
        E 1 81 43 2a
        E 159 81 45 08
        E 12 91 46 62
        E 136 81 46 4b
        E 43 91 45 59
        E 188 81 45 29
        E 41 91 46 63
        E 113 81 46 3d
        E 14 91 45 53
        E 115 91 43 5e
        E 11 81 45 22
        E 86 91 41 5c
        E 1 81 43 4b
        E 113 91 40 59
        E 17 81 41 4c
        E 104 91 3e 55
        E 8 81 40 31
        E 102 81 3e 44
        E 27 91 3c 59
        E 139 81 3c 2b
        E 6 91 40 53
        E 145 81 40 42
        E 15 91 3e 50
        E 108 81 3e 30
        E 57 91 3c 56
        E 160 81 3c 23
        E 8 91 3e 54
        E 145 81 3e 22
        E 9 91 40 53
        E 117 81 40 29
        E 71 91 41 58
        E 295 81 41 33
        E 117 91 43 61
        E 54 91 41 5c
        E 7 81 43 47
        E 133 91 40 49
        E 3 81 41 30
        E 155 91 41 58
        E 7 81 40 1d
        E 115 81 41 17
        E 44 91 46 65
        E 52 91 45 5f
        E 2 81 46 47
        E 114 81 45 30
        E 5 91 44 5e
        E 154 91 45 59
        E 38 81 44 01
        E 37 81 45 3e
        E 92 91 4a 5d
        E 54 91 48 54
        E 15 81 4a 4e
        E 104 81 48 44
        E 4 91 47 52
        E 150 91 48 52
        E 8 81 47 1b
        E 139 81 48 48
        E 41 91 4d 40
        E 392 81 4d 5f
        E 2489 91 41 52
        E 1 91 48 51
        E 15 91 45 4b
        E 406 81 48 41
        E 5 81 45 01
        E 10 81 41 47
        E 368 91 39 57
        E 2 91 3c 56
        E 65 81 39 39
        E 4 81 3c 4c
        E 64 91 3c 59
        E 5 91 39 5b
        E 1471 81 3c 5a
        E 0 81 39 53
        E 444 b0 7b 00
        GUID {09F6FF62-C570-3C48-96CA-8670976A3D90}
        IGNTEMPO 0 120 4 4
        SRCCOLOR 958
        VELLANE -1 86 6
      >
      TAKE
      NAME "fr. horn(s) - National_Anthems_-_Brazil.mid"
      TAKEVOLPAN 0 1 -1
      SOFFS 0 0
      PLAYRATE 1 1 0 -1 0 0.0025
      CHANMODE 0
      GUID {14945751-2C1F-E14C-860A-934FC4EB4C16}
      <SOURCE MIDI
        HASDATA 1 480 QN
        POOLEDEVTS {27143200-BF9C-AB44-93E5-F3C0083D37D8}
        <X 0 0 0 0 3 "fr. horn(s)"
          /wNmci4gaG9ybihzKQ==
        >
        <X 0 0 0 0 4 "Sound Canvas"
          /wRTb3VuZCBDYW52YXM=
        >
        E 339 91 3c 53
        E 59 81 3c 46
        E 70 91 3c 60
        E 77 81 3c 25
        E 4 91 3e 5d
        E 70 91 3c 53
        E 19 81 3e 3e
        E 60 91 3b 57
        E 10 81 3c 42
        E 86 91 3c 5b
        E 17 81 3b 42
        E 135 91 41 5a
        E 3 81 3c 32
        E 156 81 41 2c
        E 159 91 41 5f
        E 52 81 41 47
        E 85 91 41 64
        E 91 91 43 69
        E 5 81 41 4d
        E 58 91 41 59
        E 14 81 43 49
        E 58 91 40 59
        E 17 81 41 4e
        E 73 91 41 5d
        E 29 81 40 33
        E 103 81 41 3a
        E 21 91 45 5f
        E 181 81 45 27
        E 167 91 45 64
        E 41 81 45 44
        E 80 91 45 5d
        E 80 91 46 63
        E 5 81 45 45
        E 85 91 45 53
        E 7 81 46 43
        E 64 91 44 61
        E 15 81 45 3b
        E 76 91 45 61
        E 26 81 44 36
        E 122 81 45 23
        E 9 91 48 5e
        E 159 81 48 44
        E 344 91 48 4c
        E 0 91 45 50
        E 4 91 41 4e
        E 770 81 45 3d
        E 17 81 48 44
        E 7 81 41 4a
        E 209 91 3c 5f
        E 152 81 3c 2a
        E 139 91 3c 52
        E 98 81 3c 23
        E 64 91 41 63
        E 206 81 41 22
        E 104 91 40 53
        E 124 81 40 13
        E 39 91 43 68
        E 225 81 43 27
        E 94 91 41 58
        E 137 81 41 07
        E 50 91 45 5a
        E 216 81 45 20
        E 56 91 43 60
        E 116 81 43 22
        E 63 91 46 63
        E 208 81 46 0a
        E 95 91 45 50
        E 79 81 45 01
        E 93 91 42 5b
        E 456 81 42 0b
        E 28 91 43 63
        E 528 81 43 50
        E 330 91 3e 63
        E 45 81 3e 3e
        E 71 91 3e 62
        E 81 81 3e 14
        E 1 91 40 5e
        E 73 91 3e 53
        E 11 81 40 41
        E 61 91 3d 62
        E 9 81 3e 3f
        E 95 91 3e 5e
        E 3 81 3d 40
        E 136 81 3e 33
        E 9 91 43 69
        E 181 81 43 29
        E 150 91 43 67
        E 43 81 43 49
        E 85 91 43 63
        E 88 91 45 59
        E 5 81 43 47
        E 72 91 43 64
        E 13 81 45 3f
        E 70 91 42 52
        E 8 81 43 50
        E 77 91 43 63
        E 22 81 42 2d
        E 107 81 43 1f
        E 11 91 46 67
        E 172 81 46 3c
        E 181 91 46 6b
        E 42 81 46 48
        E 69 91 46 68
        E 75 81 46 44
        E 12 91 48 56
        E 62 91 46 63
        E 18 81 48 48
        E 68 91 45 43
        E 4 81 46 3e
        E 90 91 46 67
        E 34 81 45 2b
        E 128 81 46 35
        E 11 91 4a 5c
        E 171 81 4a 25
        E 295 91 46 5a
        E 3 91 4a 49
        E 4 91 43 52
        E 927 81 46 01
        E 12 81 43 01
        E 4 81 4a 27
        E 491 91 46 49
        E 307 81 46 27
        E 192 91 46 4e
        E 286 81 46 01
        E 192 91 43 4e
        E 271 81 43 1a
        E 224 91 43 5b
        E 307 81 43 01
        E 183 91 41 42
        E 266 81 41 28
        E 212 91 41 40
        E 530 81 41 47
        E 262 91 3c 5c
        E 51 81 3c 42
        E 90 91 3c 5a
        E 92 81 3c 4c
        E 3 91 3e 59
        E 54 91 3c 56
        E 17 81 3e 43
        E 61 91 3b 54
        E 13 81 3c 38
        E 89 91 3c 53
        E 13 81 3b 3b
        E 111 81 3c 20
        E 63 91 41 4e
        E 172 81 41 44
        E 139 91 41 59
        E 55 81 41 40
        E 84 91 41 5c
        E 83 91 43 64
        E 1 81 41 3f
        E 66 91 41 55
        E 15 81 43 49
        E 64 91 40 50
        E 11 81 41 3e
        E 77 91 41 5d
        E 18 81 40 30
        E 122 81 41 27
        E 37 91 45 5c
        E 179 81 45 30
        E 154 91 41 57
        E 58 81 41 3d
        E 74 91 41 57
        E 95 91 43 62
        E 2 81 41 3e
        E 59 91 41 57
        E 10 81 43 47
        E 88 91 40 54
        E 7 81 41 42
        E 89 91 41 57
        E 13 81 40 26
        E 152 81 41 36
        E 23 91 3e 4e
        E 198 81 3e 27
        E 114 91 43 66
        E 64 81 43 43
        E 68 91 43 68
        E 86 81 43 39
        E 5 91 45 54
        E 65 91 43 67
        E 6 81 45 3d
        E 68 91 42 54
        E 11 81 43 4f
        E 79 91 43 5b
        E 40 81 42 0e
        E 73 81 43 44
        E 24 91 46 65
        E 214 81 46 40
        E 130 91 43 64
        E 45 81 43 43
        E 85 91 43 64
        E 63 81 43 24
        E 12 91 45 5a
        E 73 91 43 5c
        E 12 81 45 3d
        E 61 91 42 5a
        E 7 81 43 40
        E 95 91 43 62
        E 19 81 42 31
        E 113 81 43 2f
        E 33 91 40 59
        E 229 81 40 28
        E 102 91 45 5b
        E 50 81 45 3e
        E 85 91 45 59
        E 75 91 46 5f
        E 4 81 45 40
        E 78 91 45 54
        E 9 81 46 32
        E 61 91 44 62
        E 7 81 45 32
        E 100 91 45 5e
        E 31 81 44 1f
        E 143 81 45 14
        E 14 91 48 59
        E 181 81 48 3d
        E 164 91 45 53
        E 56 81 45 33
        E 74 91 45 5e
        E 94 91 46 62
        E 4 81 45 3c
        E 67 91 45 4f
        E 15 81 46 35
        E 53 91 44 62
        E 6 81 45 38
        E 108 91 45 4b
        E 12 81 44 43
        E 99 81 45 3c
        E 20 91 41 59
        E 207 81 41 31
        E 115 91 46 63
        E 45 81 46 47
        E 79 91 46 68
        E 77 81 46 4f
        E 16 91 48 4f
        E 63 91 46 66
        E 11 81 48 43
        E 80 91 45 53
        E 12 81 46 40
        E 81 91 46 67
        E 21 81 45 38
        E 129 81 46 29
        E 28 91 43 69
        E 232 81 43 32
        E 127 91 48 5c
        E 74 81 48 41
        E 52 91 48 5e
        E 74 81 48 36
        E 13 91 4a 60
        E 60 91 48 51
        E 15 81 4a 46
        E 74 91 47 54
        E 3 81 48 48
        E 111 81 47 3f
        E 6 91 48 5c
        E 140 81 48 32
        E 16 91 45 5d
        E 231 81 45 35
        E 210 91 44 49
        E 6 91 4a 42
        E 1 91 41 48
        E 849 81 44 12
        E 30 81 41 25
        E 29 81 4a 31
        E 491 91 41 52
        E 4 91 45 4f
        E 2 91 3c 41
        E 442 81 41 2c
        E 5 81 45 3e
        E 46 81 3c 3b
        E 494 91 3a 56
        E 1 91 3c 53
        E 5 91 37 2f
        E 508 81 3c 39
        E 1 81 3a 1a
        E 39 81 37 22
        E 406 91 3c 50
        E 1 91 39 46
        E 1 91 35 39
        E 144 81 3c 31
        E 12 81 39 10
        E 34 81 35 12
        E 19489 91 41 52
        E 1 91 45 51
        E 328 81 41 1c
        E 0 81 45 0a
        E 123 91 46 51
        E 3 91 43 52
        E 499 81 43 36
        E 11 81 46 45
        E 675 91 41 4b
        E 1 91 45 4c
        E 117 81 45 18
        E 1 81 41 0d
        E 356 91 43 5a
        E 0 91 40 48
        E 114 81 43 2c
        E 17 81 40 07
        E 365 91 41 57
        E 7 91 3e 4c
        E 129 81 41 1d
        E 4 81 3e 23
        E 307 91 3d 48
        E 12 91 40 4d
        E 66 81 40 40
        E 14 81 3d 34
        E 417 91 45 50
        E 2 91 41 58
        E 1 91 3e 4e
        E 47 81 41 4a
        E 6 81 45 3f
        E 0 81 3e 39
        E 57 91 45 60
        E 5 91 3e 52
        E 1 91 41 5c
        E 37 81 41 47
        E 8 81 3e 3c
        E 5 81 45 45
        E 64 91 45 62
        E 4 91 41 5e
        E 1 91 3e 52
        E 65 81 3e 29
        E 3 81 41 34
        E 11 81 45 36
        E 174 91 45 5b
        E 3 91 41 58
        E 2 91 3e 52
        E 56 81 3e 28
        E 4 81 41 3c
        E 16 81 45 2d
        E 161 91 45 51
        E 2 91 41 56
        E 3 91 3e 4d
        E 483 81 41 3a
        E 8 81 45 45
        E 2 81 3e 1a
        E 715 91 43 5b
        E 1 91 3b 4b
        E 0 91 3e 55
        E 47 81 3e 3c
        E 5 81 43 3a
        E 3 81 3b 2f
        E 59 91 3b 49
        E 0 91 43 5d
        E 0 91 3e 59
        E 53 81 3e 3d
        E 3 81 43 3a
        E 8 81 3b 2f
        E 58 91 43 5a
        E 2 91 3e 5a
        E 1 91 3b 4e
        E 59 81 3e 34
        E 7 81 43 3c
        E 7 81 3b 28
        E 156 91 43 5f
        E 1 91 3b 51
        E 0 91 3e 53
        E 56 81 3e 2a
        E 9 81 3b 2a
        E 1 81 43 36
        E 160 91 43 57
        E 1 91 3e 50
        E 1 91 3b 4c
        E 407 81 3b 01
        E 6 81 3e 04
        E 46 81 43 31
        E 997 91 43 60
        E 0 91 40 4c
        E 381 81 43 2e
        E 39 81 40 01
        E 41 91 45 4b
        E 0 91 41 4e
        E 500 81 41 33
        E 10 81 45 40
        E 704 91 40 49
        E 1 91 43 5e
        E 89 81 43 2e
        E 32 81 40 01
        E 349 91 41 51
        E 2 91 3e 4d
        E 117 81 41 1f
        E 12 81 3e 14
        E 338 91 3c 49
        E 1 91 40 4d
        E 115 81 3c 01
        E 14 81 40 01
        E 352 91 3e 4f
        E 3 91 3b 45
        E 89 81 3b 1b
        E 10 81 3e 18
        E 607 91 43 56
        E 1 91 40 46
        E 6 91 3c 37
        E 462 81 43 1c
        E 0 81 40 13
        E 26 81 3c 0a
        E 268 91 3c 59
        E 146 81 3c 0e
        E 82 91 40 5f
        E 198 81 40 01
        E 49 91 43 5c
        E 173 81 43 23
        E 60 91 40 5e
        E 3 91 3c 50
        E 99 81 40 44
        E 44 81 3c 35
        E 99 91 3c 5b
        E 110 91 3e 58
        E 5 81 3c 31
        E 106 91 40 5b
        E 20 81 3e 09
        E 95 91 41 5b
        E 1 81 40 47
        E 129 91 43 64
        E 18 81 41 01
        E 88 91 45 5c
        E 4 81 43 27
        E 104 81 45 43
        E 16 91 46 58
        E 125 81 46 52
        E 94 91 3c 5c
        E 107 91 3e 53
        E 29 81 3c 06
        E 95 91 40 54
        E 1 81 3e 30
        E 111 91 41 52
        E 1 81 40 42
        E 131 91 43 49
        E 6 81 41 27
        E 98 81 43 35
        E 11 91 45 56
        E 129 81 45 26
        E 3 91 46 5f
        E 147 81 46 21
        E 113 91 43 69
        E 107 81 43 26
        E 125 91 40 5e
        E 158 81 40 2d
        E 83 91 3c 5b
        E 96 81 3c 29
        E 145 91 46 68
        E 134 81 46 3d
        E 97 91 43 67
        E 142 81 43 40
        E 100 91 40 58
        E 154 81 40 2b
        E 97 91 3c 51
        E 146 81 3c 25
        E 110 91 41 5f
        E 203 81 41 34
        E 136 91 40 53
        E 116 81 40 14
        E 38 91 41 61
        E 184 81 41 1e
        E 120 91 43 67
        E 103 81 43 22
        E 64 91 45 53
        E 204 81 45 29
        E 128 91 43 64
        E 111 81 43 1e
        E 39 91 45 63
        E 175 81 45 21
        E 124 91 46 5b
        E 109 81 46 26
        E 84 91 47 54
        E 704 81 47 2a
        E 34 91 48 52
        E 98 81 48 47
        E 5 91 45 5b
        E 131 81 45 20
        E 17 91 41 5c
        E 275 81 41 4b
        E 177 91 3c 5d
        E 193 81 3c 2b
        E 127 91 3c 55
        E 99 81 3c 0d
        E 62 91 41 56
        E 225 81 41 26
        E 72 91 40 4b
        E 110 81 40 0a
        E 58 91 43 67
        E 254 81 43 17
        E 82 91 41 4e
        E 104 81 41 01
        E 57 91 45 5d
        E 252 81 45 01
        E 56 91 43 5c
        E 127 81 43 01
        E 48 91 46 5b
        E 267 81 46 01
        E 60 91 45 63
        E 136 81 45 1c
        E 44 91 42 4c
        E 442 81 42 1f
        E 31 91 43 63
        E 648 81 43 3d
        E 290 91 3c 50
        E 210 81 3c 1a
        E 125 91 3c 51
        E 120 81 3c 08
        E 37 91 43 66
        E 229 81 43 12
        E 69 91 42 54
        E 115 81 42 24
        E 40 91 43 66
        E 258 81 43 07
        E 48 91 45 51
        E 125 81 45 01
        E 51 91 46 5f
        E 221 81 46 1a
        E 98 91 45 54
        E 115 81 45 0e
        E 35 91 46 65
        E 236 81 46 0d
        E 93 91 48 46
        E 56 81 48 41
        E 107 91 49 61
        E 694 81 49 1d
        E 53 91 4a 54
        E 103 81 4a 26
        E 4 91 46 54
        E 140 81 46 35
        E 4 91 43 5c
        E 347 81 43 51
        E 134 91 3c 4a
        E 185 81 3c 2c
        E 112 91 3c 52
        E 115 81 3c 1a
        E 38 91 43 68
        E 242 81 43 01
        E 67 91 42 5a
        E 119 81 42 13
        E 50 91 45 59
        E 248 81 45 0d
        E 64 91 43 5c
        E 120 81 43 21
        E 37 91 46 51
        E 283 81 46 22
        E 198 91 48 53
        E 249 81 48 27
        E 49 91 46 62
        E 156 81 46 23
        E 16 91 44 56
        E 501 81 44 10
        E 12 91 45 45
        E 704 81 45 28
        E 544 91 41 4b
        E 90 81 41 42
        E 75 91 43 52
        E 242 81 43 34
        E 72 91 41 48
        E 144 81 41 35
        E 25 91 40 51
        E 232 81 40 01
        E 81 91 41 4c
        E 105 81 41 1d
        E 56 91 40 57
        E 253 81 40 08
        E 65 91 41 52
        E 108 81 41 16
        E 41 91 43 63
        E 258 81 43 28
        E 96 91 41 48
        E 86 81 41 2a
        E 72 91 41 54
        E 705 91 46 4a
        E 13 81 41 12
        E 141 81 46 38
        E 74 91 46 4c
        E 631 81 46 22
        E 204 91 43 5a
        E 105 81 43 38
        E 45 91 45 57
        E 255 81 45 1b
        E 56 91 43 4a
        E 111 81 43 16
        E 45 91 42 53
        E 248 81 42 01
        E 72 91 43 5d
        E 96 81 43 25
        E 50 91 42 47
        E 317 81 42 01
        E 21 91 43 64
        E 102 81 43 19
        E 62 91 45 51
        E 245 81 45 01
        E 67 91 43 56
        E 83 81 43 39
        E 74 91 43 5f
        E 724 91 48 50
        E 46 81 43 0c
        E 91 81 48 1b
        E 78 91 48 4b
        E 711 81 48 0c
        E 172 91 45 4f
        E 87 81 45 37
        E 21 91 46 63
        E 275 81 46 3a
        E 23 91 45 4e
        E 119 81 45 18
        E 29 91 44 52
        E 314 81 44 07
        E 21 91 45 43
        E 118 81 45 27
        E 47 91 44 55
        E 321 81 44 09
        E 28 91 45 52
        E 131 81 45 01
        E 39 91 46 56
        E 252 81 46 2a
        E 52 91 45 52
        E 70 81 45 1b
        E 89 91 45 4a
        E 426 81 45 01
        E 41 91 4a 4c
        E 620 81 4a 2d
        E 121 91 48 4c
        E 168 81 48 01
        E 44 91 46 4e
        E 211 91 43 57
        E 20 81 46 01
        E 112 81 43 2c
        E 129 91 43 55
        E 453 81 43 3e
        E 30 91 41 49
        E 638 81 41 16
        E 102 91 40 55
        E 205 81 40 01
        E 25 91 41 52
        E 155 81 41 12
        E 87 91 43 2f
        E 146 81 43 2d
        E 86 91 46 4e
        E 206 81 46 36
        E 33 91 45 47
        E 157 81 45 02
        E 105 91 40 51
        E 208 81 40 3e
        E 12 91 41 4d
        E 123 81 41 12
        E 116 91 3d 4e
        E 212 91 3e 5f
        E 19 81 3d 1f
        E 125 81 3e 01
        E 86 91 46 61
        E 229 81 46 30
        E 31 91 43 57
        E 147 81 43 36
        E 100 91 43 60
        E 357 81 43 01
        E 101 91 41 49
        E 618 81 41 32
        E 150 91 43 66
        E 142 81 43 2c
        E 75 91 45 58
        E 131 81 45 22
        E 87 91 46 56
        E 156 81 46 06
        E 102 91 47 50
        E 211 81 47 01
        E 39 91 48 4a
        E 171 81 48 20
        E 75 91 45 5c
        E 202 81 45 01
        E 37 91 41 4d
        E 173 81 41 2a
        E 85 91 3e 52
        E 190 91 40 5d
        E 9 81 3e 2e
        E 131 81 40 38
        E 1 91 41 5e
        E 128 81 41 27
        E 13 91 43 5c
        E 137 91 45 5a
        E 1 81 43 2a
        E 159 81 45 08
        E 12 91 46 62
        E 136 81 46 4b
        E 43 91 45 59
        E 188 81 45 29
        E 41 91 46 63
        E 113 81 46 3d
        E 14 91 45 53
        E 115 91 43 5e
        E 11 81 45 22
        E 86 91 41 5c
        E 1 81 43 4b
        E 113 91 40 59
        E 17 81 41 4c
        E 104 91 3e 55
        E 8 81 40 31
        E 102 81 3e 44
        E 27 91 3c 59
        E 139 81 3c 2b
        E 6 91 40 53
        E 145 81 40 42
        E 15 91 3e 50
        E 108 81 3e 30
        E 57 91 3c 56
        E 160 81 3c 23
        E 8 91 3e 54
        E 145 81 3e 22
        E 9 91 40 53
        E 117 81 40 29
        E 71 91 41 58
        E 295 81 41 33
        E 117 91 43 61
        E 54 91 41 5c
        E 7 81 43 47
        E 133 91 40 49
        E 3 81 41 30
        E 155 91 41 58
        E 7 81 40 1d
        E 115 81 41 17
        E 44 91 46 65
        E 52 91 45 5f
        E 2 81 46 47
        E 114 81 45 30
        E 5 91 44 5e
        E 154 91 45 59
        E 38 81 44 01
        E 37 81 45 3e
        E 92 91 4a 5d
        E 54 91 48 54
        E 15 81 4a 4e
        E 104 81 48 44
        E 4 91 47 52
        E 150 91 48 52
        E 8 81 47 1b
        E 139 81 48 48
        E 41 91 4d 40
        E 392 81 4d 5f
        E 2489 91 41 52
        E 1 91 48 51
        E 15 91 45 4b
        E 406 81 48 41
        E 5 81 45 01
        E 10 81 41 47
        E 368 91 39 57
        E 2 91 3c 56
        E 65 81 39 39
        E 4 81 3c 4c
        E 64 91 3c 59
        E 5 91 39 5b
        E 1471 81 3c 5a
        E 0 81 39 53
        E 444 b0 7b 00
        GUID {77E3D18A-6F53-3741-BD07-ADA19529B38E}
        IGNTEMPO 0 120 4 4
        SRCCOLOR 970
        VELLANE -1 86 6
      >
    >
    <ITEM
      POSITION 0
      SNAPOFFS 0
      LENGTH 113
      LOOP 1
      ALLTAKES 0
      FADEIN 1 0 0 1 0 0
      FADEOUT 1 0 0 1 0 0
      MUTE 0
      SEL 0
      YPOS 0.597403 0.103896
      IGUID {05B77F95-88B2-CF44-AED6-800CAEA510E0}
      IID 16
      NAME "trombone(s) - National_Anthems_-_Brazil.mid"
      VOLPAN 1 0 1 -1
      SOFFS 0 0
      PLAYRATE 1 1 0 -1 0 0.0025
      CHANMODE 0
      TAKECOLOR 26173599 B
      GUID {24D05E6C-D48E-6C47-B8A2-9558EDF7E2FA}
      <SOURCE MIDI
        HASDATA 1 480 QN
        POOLEDEVTS {6AA7E5C1-B118-8242-B0E7-E2D2BC1EFF63}
        <X 0 0 0 0 3 trombone(s)
          /wN0cm9tYm9uZShzKQ==
        >
        <X 0 0 0 0 4 "Sound Canvas"
          /wRTb3VuZCBDYW52YXM=
        >
        E 335 92 30 66
        E 54 82 30 50
        E 68 92 30 65
        E 78 92 32 61
        E 12 82 30 51
        E 68 92 30 65
        E 17 82 32 48
        E 71 92 2f 66
        E 2 82 30 4f
        E 88 92 30 63
        E 17 82 2f 3e
        E 129 82 30 4e
        E 5 92 35 66
        E 190 82 35 38
        E 160 92 35 6d
        E 48 82 35 54
        E 66 92 35 6b
        E 65 92 37 58
        E 15 82 35 58
        E 68 92 35 6a
        E 18 82 37 41
        E 62 92 34 66
        E 2 82 35 54
        E 86 92 35 65
        E 15 82 34 44
        E 127 82 35 51
        E 16 92 39 65
        E 183 82 39 2f
        E 163 92 39 65
        E 39 82 39 4b
        E 72 92 39 68
        E 80 92 3a 68
        E 5 82 39 42
        E 81 92 39 5f
        E 10 82 3a 46
        E 75 92 38 68
        E 5 82 39 4d
        E 98 92 39 5a
        E 1 82 38 34
        E 149 82 39 45
        E 22 92 3c 61
        E 203 82 3c 26
        E 268 92 35 67
        E 2 92 30 5c
        E 939 82 35 4b
        E 28 82 30 4a
        E 500 92 3c 4e
        E 6 92 39 59
        E 232 82 3c 01
        E 26 82 39 01
        E 219 92 3c 4c
        E 3 92 39 53
        E 191 82 39 1f
        E 9 82 3c 2e
        E 262 92 3c 52
        E 0 92 39 50
        E 172 82 39 46
        E 46 82 3c 32
        E 247 92 41 4c
        E 3 92 3c 50
        E 177 82 3c 1b
        E 111 82 41 01
        E 193 92 3c 53
        E 264 82 3c 01
        E 209 92 3c 4f
        E 431 82 3c 01
        E 378 92 32 63
        E 49 82 32 4e
        E 85 92 32 65
        E 78 92 34 60
        E 4 82 32 4f
        E 79 92 32 61
        E 12 82 34 43
        E 64 82 32 47
        E 2 92 31 67
        E 103 92 32 5d
        E 25 82 31 01
        E 143 82 32 4b
        E 2 92 37 5b
        E 157 82 37 1c
        E 183 92 37 5e
        E 44 82 37 49
        E 76 92 37 5e
        E 64 92 39 5a
        E 9 82 37 4a
        E 82 92 37 5f
        E 6 82 39 45
        E 74 82 37 42
        E 4 92 36 69
        E 92 92 37 55
        E 27 82 36 26
        E 136 82 37 22
        E 7 92 3a 62
        E 135 82 3a 36
        E 191 92 3a 66
        E 43 82 3a 4a
        E 70 92 3a 67
        E 83 82 3a 46
        E 2 92 3c 5c
        E 83 92 3a 6a
        E 21 82 3c 40
        E 53 82 3a 3c
        E 14 92 39 62
        E 86 92 3a 6b
        E 20 82 39 44
        E 124 82 3a 49
        E 12 92 3e 62
        E 189 82 3e 29
        E 302 92 37 53
        E 4 92 32 53
        E 913 82 37 45
        E 5 82 32 55
        E 513 92 3c 54
        E 2 92 37 53
        E 133 82 37 17
        E 6 82 3c 1e
        E 334 92 3c 4d
        E 1 92 37 4d
        E 161 82 3c 23
        E 40 82 37 0d
        E 283 92 3c 50
        E 1 92 34 4d
        E 190 82 3c 01
        E 36 82 34 0e
        E 267 92 34 51
        E 5 92 3c 50
        E 216 82 3c 01
        E 27 82 34 3b
        E 229 92 3c 50
        E 349 82 3c 01
        E 155 92 3c 51
        E 432 82 3c 2f
        E 357 92 30 5e
        E 45 82 30 4b
        E 87 92 30 60
        E 76 92 32 59
        E 5 82 30 4a
        E 82 92 30 61
        E 14 82 32 41
        E 70 82 30 42
        E 4 92 2f 63
        E 89 92 30 5b
        E 10 82 2f 43
        E 96 82 30 44
        E 64 92 35 56
        E 9 92 30 43
        E 278 82 35 30
        E 84 82 30 01
        E 112 92 3c 51
        E 350 82 3c 01
        E 141 92 39 54
        E 293 82 39 0b
        E 194 92 30 50
        E 347 82 30 14
        E 105 92 35 50
        E 362 82 35 44
        E 142 92 3e 51
        E 396 82 3e 01
        E 116 92 3a 4f
        E 293 82 3a 1d
        E 174 92 37 48
        E 328 82 37 01
        E 126 92 37 48
        E 280 82 37 49
        E 202 92 40 53
        E 353 82 40 01
        E 145 92 3c 4d
        E 318 82 3c 01
        E 157 92 39 50
        E 337 82 39 2b
        E 137 92 39 4d
        E 344 82 39 2d
        E 141 92 3a 49
        E 264 82 3a 20
        E 221 92 3a 48
        E 268 82 3a 27
        E 215 92 3c 4f
        E 301 82 3c 1d
        E 160 92 3c 4a
        E 224 82 3c 29
        E 236 92 3e 49
        E 812 82 3e 0b
        E 169 92 40 55
        E 216 82 40 0f
        E 52 92 3e 53
        E 113 82 3e 28
        E 70 92 35 57
        E 21 92 39 50
        E 318 82 35 01
        E 9 82 39 12
        E 636 92 30 46
        E 395 82 30 3b
        E 566 92 35 5c
        E 189 82 35 4b
        E 275 92 29 53
        E 198 82 29 28
        E 290 92 29 48
        E 205 82 29 01
        E 279 92 29 3e
        E 243 82 29 05
        E 220 92 29 47
        E 227 82 29 01
        E 232 92 29 3a
        E 207 82 29 15
        E 292 92 29 3f
        E 203 82 29 01
        E 272 92 29 40
        E 266 82 29 01
        E 235 92 29 44
        E 208 82 29 01
        E 271 92 29 40
        E 195 82 29 04
        E 278 92 29 49
        E 236 82 29 01
        E 237 92 29 42
        E 249 82 29 01
        E 245 92 29 43
        E 244 82 29 0d
        E 250 92 29 40
        E 251 82 29 01
        E 222 92 29 48
        E 190 82 29 2b
        E 274 92 29 4e
        E 174 82 29 2c
        E 289 92 28 58
        E 166 82 28 1d
        E 313 92 28 4f
        E 206 82 28 0f
        E 283 92 28 54
        E 195 82 28 01
        E 307 92 28 4e
        E 190 82 28 1f
        E 279 92 28 51
        E 204 82 28 17
        E 271 92 28 52
        E 189 82 28 01
        E 271 92 28 53
        E 178 82 28 19
        E 311 92 28 4f
        E 173 82 28 18
        E 335 92 28 4d
        E 173 82 28 26
        E 301 92 28 56
        E 179 82 28 1b
        E 288 92 28 52
        E 189 82 28 17
        E 305 92 28 50
        E 203 82 28 2e
        E 270 92 28 56
        E 177 82 28 29
        E 295 92 28 53
        E 222 82 28 01
        E 254 92 28 4f
        E 236 82 28 0c
        E 250 92 28 57
        E 163 82 28 2a
        E 306 92 29 51
        E 211 82 29 14
        E 284 92 29 4e
        E 157 82 29 11
        E 315 92 29 52
        E 442 82 29 2e
        E 758 92 39 5b
        E 70 82 39 3b
        E 61 92 39 5f
        E 64 82 39 41
        E 57 92 39 62
        E 86 82 39 39
        E 153 92 39 55
        E 92 82 39 38
        E 149 92 39 4f
        E 502 82 39 3c
        E 937 92 3e 5a
        E 334 82 3e 01
        E 143 92 37 4e
        E 527 82 37 51
        E 400 92 39 52
        E 198 82 39 29
        E 294 92 39 4d
        E 194 82 39 21
        E 286 92 39 4c
        E 187 82 39 1c
        E 303 92 39 4e
        E 213 82 39 0b
        E 519 92 32 5b
        E 128 82 32 0e
        E 122 92 39 58
        E 114 82 39 28
        E 122 92 35 63
        E 131 82 35 31
        E 129 92 32 50
        E 493 82 32 3f
        E 677 92 37 51
        E 65 82 37 37
        E 55 92 37 58
        E 65 82 37 3e
        E 53 92 37 5e
        E 84 82 37 3d
        E 145 92 37 50
        E 94 82 37 2e
        E 138 92 37 4e
        E 452 82 37 43
        E 1029 92 3c 4b
        E 269 82 3c 08
        E 184 92 35 58
        E 479 82 35 4e
        E 457 92 37 43
        E 205 82 37 24
        E 293 92 37 3d
        E 205 82 37 32
        E 281 92 37 49
        E 187 82 37 0c
        E 276 92 37 4b
        E 201 82 37 1c
        E 285 92 30 48
        E 225 82 30 14
        E 238 92 37 3e
        E 485 82 37 01
        E 267 92 30 46
        E 161 82 30 27
        E 87 92 34 4c
        E 167 82 34 13
        E 52 92 37 37
        E 72 82 37 40
        E 172 92 3a 2b
        E 1 92 34 50
        E 5 92 37 4b
        E 61 82 37 18
        E 4 82 34 26
        E 15 82 3a 28
        E 141 92 3a 4a
        E 13 92 37 4e
        E 1 92 34 5b
        E 58 82 37 17
        E 7 82 34 3b
        E 4 82 3a 14
        E 157 92 3a 43
        E 5 92 34 5c
        E 1 92 37 50
        E 72 82 37 10
        E 1 82 34 35
        E 6 82 3a 10
        E 152 92 3a 45
        E 8 92 37 4d
        E 1 92 34 58
        E 69 82 37 01
        E 1 82 34 2d
        E 7 82 3a 1f
        E 145 92 3a 4c
        E 6 92 37 4d
        E 0 92 34 58
        E 79 82 37 0f
        E 1 82 34 33
        E 6 82 3a 1e
        E 141 92 3a 4c
        E 4 92 37 50
        E 4 92 34 5c
        E 71 82 34 2e
        E 5 82 37 15
        E 2 82 3a 0f
        E 154 92 3a 4a
        E 3 92 34 5c
        E 1 92 37 4f
        E 81 82 3a 1b
        E 4 82 34 37
        E 0 82 37 24
        E 153 92 3a 4b
        E 2 92 34 58
        E 0 92 37 4d
        E 83 82 37 14
        E 2 82 34 38
        E 3 82 3a 12
        E 162 92 37 49
        E 10 92 3a 3d
        E 482 82 37 4a
        E 0 82 3a 3a
        E 1451 92 3c 43
        E 3 92 39 50
        E 161 82 39 01
        E 7 82 3c 01
        E 309 92 3c 2f
        E 2 92 39 42
        E 139 82 39 01
        E 32 82 3c 01
        E 293 92 3c 30
        E 1 92 39 44
        E 160 82 39 12
        E 18 82 3c 16
        E 304 92 3c 44
        E 6 92 39 46
        E 151 82 39 01
        E 11 82 3c 01
        E 321 92 39 43
        E 2 92 3c 32
        E 128 82 39 03
        E 7 82 3c 16
        E 334 92 3c 39
        E 4 92 39 49
        E 158 82 39 01
        E 25 82 3c 01
        E 310 92 39 44
        E 2 92 3c 31
        E 136 82 39 16
        E 7 82 3c 1a
        E 329 92 39 3d
        E 0 92 3c 40
        E 136 82 39 09
        E 1 82 3c 14
        E 348 92 39 42
        E 1 92 3c 33
        E 144 82 39 01
        E 9 82 3c 19
        E 324 92 3c 40
        E 0 92 39 46
        E 125 82 39 03
        E 12 82 3c 28
        E 352 92 3c 35
        E 5 92 39 42
        E 161 82 39 01
        E 12 82 3c 01
        E 303 92 3c 38
        E 4 92 39 48
        E 120 82 39 2e
        E 25 82 3c 22
        E 319 92 3a 4d
        E 1 92 3c 32
        E 111 82 3a 29
        E 39 82 3c 1d
        E 328 92 3a 49
        E 4 92 3c 29
        E 117 82 3a 16
        E 37 82 3c 01
        E 328 92 3a 43
        E 3 92 3c 32
        E 122 82 3a 22
        E 32 82 3c 1f
        E 335 92 3c 29
        E 1 92 3a 44
        E 123 82 3a 27
        E 33 82 3c 0f
        E 318 92 3a 48
        E 4 92 3c 2c
        E 111 82 3a 1b
        E 34 82 3c 1e
        E 324 92 3a 49
        E 6 92 3c 24
        E 108 82 3a 08
        E 20 82 3c 25
        E 338 92 3a 4b
        E 11 92 3c 2e
        E 111 82 3a 07
        E 17 82 3c 07
        E 357 92 3a 50
        E 9 92 3c 2e
        E 86 82 3a 18
        E 33 82 3c 19
        E 342 92 3a 4c
        E 4 92 3c 27
        E 83 82 3a 1a
        E 28 82 3c 20
        E 361 92 3a 51
        E 7 92 3c 3a
        E 96 82 3a 10
        E 22 82 3c 22
        E 366 92 3a 58
        E 1 92 3c 42
        E 119 82 3a 01
        E 24 82 3c 17
        E 341 92 3a 56
        E 1 92 3c 3a
        E 103 82 3a 09
        E 35 82 3c 25
        E 325 92 3a 54
        E 3 92 3c 32
        E 105 82 3a 01
        E 25 82 3c 17
        E 359 92 3a 54
        E 6 92 3c 37
        E 96 82 3a 01
        E 17 82 3c 1e
        E 349 92 3a 4d
        E 10 92 3c 29
        E 108 82 3a 01
        E 18 82 3c 13
        E 335 92 3a 49
        E 4 92 3c 34
        E 121 82 3a 1a
        E 3 82 3c 19
        E 368 92 3c 39
        E 6 92 39 4d
        E 109 82 39 0a
        E 25 82 3c 1e
        E 346 92 3c 2f
        E 5 92 39 4a
        E 107 82 39 0e
        E 23 82 3c 2f
        E 332 92 3c 2f
        E 2 92 39 46
        E 438 82 39 0a
        E 5 82 3c 1f
        E 775 92 33 5a
        E 3 92 35 59
        E 77 82 33 3a
        E 13 82 35 25
        E 336 92 33 5e
        E 6 92 35 5a
        E 111 82 33 0e
        E 13 82 35 2a
        E 353 92 33 4c
        E 6 92 35 4f
        E 91 82 33 28
        E 12 82 35 16
        E 361 92 33 4e
        E 8 92 35 5c
        E 102 82 35 32
        E 6 82 33 2a
        E 385 92 32 52
        E 4 92 35 5e
        E 87 82 32 4a
        E 16 82 35 4c
        E 388 92 3a 5f
        E 4 92 3e 4c
        E 88 82 3a 37
        E 17 82 3e 1c
        E 353 92 3a 56
        E 7 92 35 60
        E 103 82 3a 22
        E 1 82 35 3f
        E 367 92 32 58
        E 7 92 35 5c
        E 105 82 32 3e
        E 2 82 35 30
        E 377 92 37 51
        E 1 92 35 5a
        E 91 82 35 39
        E 32 82 37 3e
        E 356 92 3b 4d
        E 3 92 35 58
        E 103 82 35 3e
        E 24 82 3b 2c
        E 360 92 35 53
        E 3 92 37 4d
        E 107 82 35 3d
        E 1 82 37 0a
        E 337 92 37 50
        E 1 92 35 54
        E 93 82 35 1c
        E 18 82 37 2a
        E 414 92 37 53
        E 7 92 34 5c
        E 96 82 34 48
        E 11 82 37 41
        E 360 92 40 52
        E 4 92 3c 50
        E 107 82 3c 1e
        E 13 82 40 20
        E 322 92 3c 53
        E 1 92 37 4c
        E 104 82 3c 35
        E 17 82 37 45
        E 376 92 34 53
        E 1 92 37 51
        E 96 82 37 37
        E 29 82 34 3f
        E 333 92 37 4c
        E 2 92 39 58
        E 91 82 37 41
        E 35 82 39 3b
        E 362 92 3d 5a
        E 7 92 37 4b
        E 98 82 3d 24
        E 16 82 37 2b
        E 375 92 39 50
        E 1 92 37 4a
        E 94 82 39 22
        E 14 82 37 0f
        E 369 92 39 51
        E 1 92 37 4f
        E 100 82 39 2c
        E 1 82 37 31
        E 380 92 35 61
        E 3 92 39 4f
        E 94 82 35 4b
        E 21 82 39 01
        E 359 92 3e 4c
        E 1 92 39 51
        E 79 82 39 35
        E 17 82 3e 27
        E 167 92 3a 48
        E 9 92 32 4a
        E 0 92 37 55
        E 700 82 37 16
        E 13 82 3a 1f
        E 0 82 32 43
        E 449 92 35 45
        E 1 92 39 57
        E 0 92 3c 4a
        E 45 82 39 3e
        E 6 82 35 4c
        E 4 82 3c 2e
        E 57 92 39 5c
        E 1 92 35 61
        E 0 92 3c 54
        E 45 82 39 47
        E 5 82 35 46
        E 2 82 3c 3c
        E 60 92 39 5a
        E 1 92 3c 51
        E 1 92 35 63
        E 71 82 39 2a
        E 0 82 35 3e
        E 15 82 3c 1d
        E 168 92 39 5b
        E 1 92 3c 54
        E 0 92 35 5f
        E 46 82 35 4d
        E 12 82 39 43
        E 19 82 3c 28
        E 161 92 37 4c
        E 0 92 3c 50
        E 2 92 3a 5b
        E 480 82 3a 24
        E 9 82 3c 28
        E 11 82 37 43
        E 713 92 39 4a
        E 1 92 35 5c
        E 1 92 30 4f
        E 63 82 30 27
        E 5 82 39 1f
        E 0 82 35 44
        E 155 92 39 4d
        E 2 92 35 59
        E 3 92 30 4f
        E 78 82 39 1a
        E 1 82 35 42
        E 0 82 30 24
        E 142 92 30 4f
        E 0 92 35 5d
        E 1 92 39 50
        E 56 82 30 41
        E 20 82 35 44
        E 29 82 39 15
        E 364 92 3a 50
        E 1 92 37 59
        E 2 92 32 4d
        E 79 82 37 39
        E 4 82 3a 28
        E 1 82 32 35
        E 147 92 3a 53
        E 2 92 37 51
        E 4 92 32 51
        E 82 82 37 34
        E 1 82 32 39
        E 1 82 3a 19
        E 142 92 37 52
        E 1 92 3a 52
        E 1 92 32 53
        E 76 82 32 3f
        E 3 82 37 31
        E 45 82 3a 01
        E 371 92 39 53
        E 3 92 3c 53
        E 57 82 39 47
        E 6 82 3c 2e
        E 53 92 39 60
        E 2 92 3c 52
        E 46 82 39 46
        E 14 82 3c 32
        E 49 92 39 5e
        E 1 92 3c 54
        E 81 82 39 37
        E 8 82 3c 27
        E 160 92 3c 52
        E 0 92 39 5d
        E 73 82 39 34
        E 9 82 3c 25
        E 403 92 3c 4f
        E 1 92 3a 5d
        E 71 82 3a 30
        E 13 82 3c 28
        E 146 92 3c 4d
        E 4 92 3a 61
        E 81 82 3a 36
        E 20 82 3c 1b
        E 148 92 3a 5f
        E 2 92 3c 52
        E 83 82 3a 35
        E 0 82 3c 29
        E 237 92 39 5d
        E 329 82 39 01
        E 86 92 35 56
        E 1 92 3c 52
        E 0 92 39 5e
        E 244 82 39 37
        E 118 82 35 33
        E 29 82 3c 01
        E 87 92 3a 5e
        E 347 82 3a 28
        E 151 92 3a 54
        E 4 92 3e 51
        E 2 92 37 51
        E 237 82 37 32
        E 36 82 3e 01
        E 80 82 3a 39
        E 96 92 35 5d
        E 4 92 3c 49
        E 2 92 39 57
        E 403 82 39 01
        E 78 82 3c 01
        E 21 82 35 4c
        E 459 92 3a 4e
        E 6 92 34 59
        E 456 82 34 4f
        E 27 82 3a 29
        E 495 92 39 5c
        E 3 92 3c 4f
        E 291 82 39 0c
        E 33 82 3c 18
        E 135 92 35 64
        E 354 82 35 0b
        E 129 92 39 57
        E 335 82 39 18
        E 147 92 3c 51
        E 382 82 3c 01
        E 113 92 41 5a
        E 317 82 41 0c
        E 155 92 41 55
        E 317 82 41 23
        E 166 92 3c 56
        E 266 82 3c 01
        E 185 92 39 5f
        E 306 82 39 01
        E 220 92 35 62
        E 526 82 35 47
        E 423 92 41 56
        E 2 92 3c 5a
        E 477 82 41 27
        E 5 82 3c 1a
        E 318 92 35 6a
        E 74 82 35 51
        E 86 92 35 64
        E 1454 82 35 61
        E 461 b0 7b 00
        GUID {0FA19C67-65D1-4C44-961D-F5507577D57B}
        IGNTEMPO 0 120 4 4
        SRCCOLOR 959
        VELLANE -1 86 6
      >
      TAKE
      NAME "trombone(s) - National_Anthems_-_Brazil.mid"
      TAKEVOLPAN 0 1 -1
      SOFFS 0 0
      PLAYRATE 1 1 0 -1 0 0.0025
      CHANMODE 0
      GUID {D897CA35-D3AE-124F-928D-7B1981B187B0}
      <SOURCE MIDI
        HASDATA 1 480 QN
        POOLEDEVTS {AE53B318-A2E9-CC48-A05C-29AD83053662}
        <X 0 0 0 0 3 trombone(s)
          /wN0cm9tYm9uZShzKQ==
        >
        <X 0 0 0 0 4 "Sound Canvas"
          /wRTb3VuZCBDYW52YXM=
        >
        E 335 92 30 66
        E 54 82 30 50
        E 68 92 30 65
        E 78 92 32 61
        E 12 82 30 51
        E 68 92 30 65
        E 17 82 32 48
        E 71 92 2f 66
        E 2 82 30 4f
        E 88 92 30 63
        E 17 82 2f 3e
        E 129 82 30 4e
        E 5 92 35 66
        E 190 82 35 38
        E 160 92 35 6d
        E 48 82 35 54
        E 66 92 35 6b
        E 65 92 37 58
        E 15 82 35 58
        E 68 92 35 6a
        E 18 82 37 41
        E 62 92 34 66
        E 2 82 35 54
        E 86 92 35 65
        E 15 82 34 44
        E 127 82 35 51
        E 16 92 39 65
        E 183 82 39 2f
        E 163 92 39 65
        E 39 82 39 4b
        E 72 92 39 68
        E 80 92 3a 68
        E 5 82 39 42
        E 81 92 39 5f
        E 10 82 3a 46
        E 75 92 38 68
        E 5 82 39 4d
        E 98 92 39 5a
        E 1 82 38 34
        E 149 82 39 45
        E 22 92 3c 61
        E 203 82 3c 26
        E 268 92 35 67
        E 2 92 30 5c
        E 939 82 35 4b
        E 28 82 30 4a
        E 500 92 3c 4e
        E 6 92 39 59
        E 232 82 3c 01
        E 26 82 39 01
        E 219 92 3c 4c
        E 3 92 39 53
        E 191 82 39 1f
        E 9 82 3c 2e
        E 262 92 3c 52
        E 0 92 39 50
        E 172 82 39 46
        E 46 82 3c 32
        E 247 92 41 4c
        E 3 92 3c 50
        E 177 82 3c 1b
        E 111 82 41 01
        E 193 92 3c 53
        E 264 82 3c 01
        E 209 92 3c 4f
        E 431 82 3c 01
        E 378 92 32 63
        E 49 82 32 4e
        E 85 92 32 65
        E 78 92 34 60
        E 4 82 32 4f
        E 79 92 32 61
        E 12 82 34 43
        E 64 82 32 47
        E 2 92 31 67
        E 103 92 32 5d
        E 25 82 31 01
        E 143 82 32 4b
        E 2 92 37 5b
        E 157 82 37 1c
        E 183 92 37 5e
        E 44 82 37 49
        E 76 92 37 5e
        E 64 92 39 5a
        E 9 82 37 4a
        E 82 92 37 5f
        E 6 82 39 45
        E 74 82 37 42
        E 4 92 36 69
        E 92 92 37 55
        E 27 82 36 26
        E 136 82 37 22
        E 7 92 3a 62
        E 135 82 3a 36
        E 191 92 3a 66
        E 43 82 3a 4a
        E 70 92 3a 67
        E 83 82 3a 46
        E 2 92 3c 5c
        E 83 92 3a 6a
        E 21 82 3c 40
        E 53 82 3a 3c
        E 14 92 39 62
        E 86 92 3a 6b
        E 20 82 39 44
        E 124 82 3a 49
        E 12 92 3e 62
        E 189 82 3e 29
        E 302 92 37 53
        E 4 92 32 53
        E 913 82 37 45
        E 5 82 32 55
        E 513 92 3c 54
        E 2 92 37 53
        E 133 82 37 17
        E 6 82 3c 1e
        E 334 92 3c 4d
        E 1 92 37 4d
        E 161 82 3c 23
        E 40 82 37 0d
        E 283 92 3c 50
        E 1 92 34 4d
        E 190 82 3c 01
        E 36 82 34 0e
        E 267 92 34 51
        E 5 92 3c 50
        E 216 82 3c 01
        E 27 82 34 3b
        E 229 92 3c 50
        E 349 82 3c 01
        E 155 92 3c 51
        E 432 82 3c 2f
        E 357 92 30 5e
        E 45 82 30 4b
        E 87 92 30 60
        E 76 92 32 59
        E 5 82 30 4a
        E 82 92 30 61
        E 14 82 32 41
        E 70 82 30 42
        E 4 92 2f 63
        E 89 92 30 5b
        E 10 82 2f 43
        E 96 82 30 44
        E 64 92 35 56
        E 9 92 30 43
        E 278 82 35 30
        E 84 82 30 01
        E 112 92 3c 51
        E 350 82 3c 01
        E 141 92 39 54
        E 293 82 39 0b
        E 194 92 30 50
        E 347 82 30 14
        E 105 92 35 50
        E 362 82 35 44
        E 142 92 3e 51
        E 396 82 3e 01
        E 116 92 3a 4f
        E 293 82 3a 1d
        E 174 92 37 48
        E 328 82 37 01
        E 126 92 37 48
        E 280 82 37 49
        E 202 92 40 53
        E 353 82 40 01
        E 145 92 3c 4d
        E 318 82 3c 01
        E 157 92 39 50
        E 337 82 39 2b
        E 137 92 39 4d
        E 344 82 39 2d
        E 141 92 3a 49
        E 264 82 3a 20
        E 221 92 3a 48
        E 268 82 3a 27
        E 215 92 3c 4f
        E 301 82 3c 1d
        E 160 92 3c 4a
        E 224 82 3c 29
        E 236 92 3e 49
        E 812 82 3e 0b
        E 169 92 40 55
        E 216 82 40 0f
        E 52 92 3e 53
        E 113 82 3e 28
        E 70 92 35 57
        E 21 92 39 50
        E 318 82 35 01
        E 9 82 39 12
        E 636 92 30 46
        E 395 82 30 3b
        E 566 92 35 5c
        E 189 82 35 4b
        E 275 92 29 53
        E 198 82 29 28
        E 290 92 29 48
        E 205 82 29 01
        E 279 92 29 3e
        E 243 82 29 05
        E 220 92 29 47
        E 227 82 29 01
        E 232 92 29 3a
        E 207 82 29 15
        E 292 92 29 3f
        E 203 82 29 01
        E 272 92 29 40
        E 266 82 29 01
        E 235 92 29 44
        E 208 82 29 01
        E 271 92 29 40
        E 195 82 29 04
        E 278 92 29 49
        E 236 82 29 01
        E 237 92 29 42
        E 249 82 29 01
        E 245 92 29 43
        E 244 82 29 0d
        E 250 92 29 40
        E 251 82 29 01
        E 222 92 29 48
        E 190 82 29 2b
        E 274 92 29 4e
        E 174 82 29 2c
        E 289 92 28 58
        E 166 82 28 1d
        E 313 92 28 4f
        E 206 82 28 0f
        E 283 92 28 54
        E 195 82 28 01
        E 307 92 28 4e
        E 190 82 28 1f
        E 279 92 28 51
        E 204 82 28 17
        E 271 92 28 52
        E 189 82 28 01
        E 271 92 28 53
        E 178 82 28 19
        E 311 92 28 4f
        E 173 82 28 18
        E 335 92 28 4d
        E 173 82 28 26
        E 301 92 28 56
        E 179 82 28 1b
        E 288 92 28 52
        E 189 82 28 17
        E 305 92 28 50
        E 203 82 28 2e
        E 270 92 28 56
        E 177 82 28 29
        E 295 92 28 53
        E 222 82 28 01
        E 254 92 28 4f
        E 236 82 28 0c
        E 250 92 28 57
        E 163 82 28 2a
        E 306 92 29 51
        E 211 82 29 14
        E 284 92 29 4e
        E 157 82 29 11
        E 315 92 29 52
        E 442 82 29 2e
        E 758 92 39 5b
        E 70 82 39 3b
        E 61 92 39 5f
        E 64 82 39 41
        E 57 92 39 62
        E 86 82 39 39
        E 153 92 39 55
        E 92 82 39 38
        E 149 92 39 4f
        E 502 82 39 3c
        E 937 92 3e 5a
        E 334 82 3e 01
        E 143 92 37 4e
        E 527 82 37 51
        E 400 92 39 52
        E 198 82 39 29
        E 294 92 39 4d
        E 194 82 39 21
        E 286 92 39 4c
        E 187 82 39 1c
        E 303 92 39 4e
        E 213 82 39 0b
        E 519 92 32 5b
        E 128 82 32 0e
        E 122 92 39 58
        E 114 82 39 28
        E 122 92 35 63
        E 131 82 35 31
        E 129 92 32 50
        E 493 82 32 3f
        E 677 92 37 51
        E 65 82 37 37
        E 55 92 37 58
        E 65 82 37 3e
        E 53 92 37 5e
        E 84 82 37 3d
        E 145 92 37 50
        E 94 82 37 2e
        E 138 92 37 4e
        E 452 82 37 43
        E 1029 92 3c 4b
        E 269 82 3c 08
        E 184 92 35 58
        E 479 82 35 4e
        E 457 92 37 43
        E 205 82 37 24
        E 293 92 37 3d
        E 205 82 37 32
        E 281 92 37 49
        E 187 82 37 0c
        E 276 92 37 4b
        E 201 82 37 1c
        E 285 92 30 48
        E 225 82 30 14
        E 238 92 37 3e
        E 485 82 37 01
        E 267 92 30 46
        E 161 82 30 27
        E 87 92 34 4c
        E 167 82 34 13
        E 52 92 37 37
        E 72 82 37 40
        E 172 92 3a 2b
        E 1 92 34 50
        E 5 92 37 4b
        E 61 82 37 18
        E 4 82 34 26
        E 15 82 3a 28
        E 141 92 3a 4a
        E 13 92 37 4e
        E 1 92 34 5b
        E 58 82 37 17
        E 7 82 34 3b
        E 4 82 3a 14
        E 157 92 3a 43
        E 5 92 34 5c
        E 1 92 37 50
        E 72 82 37 10
        E 1 82 34 35
        E 6 82 3a 10
        E 152 92 3a 45
        E 8 92 37 4d
        E 1 92 34 58
        E 69 82 37 01
        E 1 82 34 2d
        E 7 82 3a 1f
        E 145 92 3a 4c
        E 6 92 37 4d
        E 0 92 34 58
        E 79 82 37 0f
        E 1 82 34 33
        E 6 82 3a 1e
        E 141 92 3a 4c
        E 4 92 37 50
        E 4 92 34 5c
        E 71 82 34 2e
        E 5 82 37 15
        E 2 82 3a 0f
        E 154 92 3a 4a
        E 3 92 34 5c
        E 1 92 37 4f
        E 81 82 3a 1b
        E 4 82 34 37
        E 0 82 37 24
        E 153 92 3a 4b
        E 2 92 34 58
        E 0 92 37 4d
        E 83 82 37 14
        E 2 82 34 38
        E 3 82 3a 12
        E 162 92 37 49
        E 10 92 3a 3d
        E 482 82 37 4a
        E 0 82 3a 3a
        E 1451 92 3c 43
        E 3 92 39 50
        E 161 82 39 01
        E 7 82 3c 01
        E 309 92 3c 2f
        E 2 92 39 42
        E 139 82 39 01
        E 32 82 3c 01
        E 293 92 3c 30
        E 1 92 39 44
        E 160 82 39 12
        E 18 82 3c 16
        E 304 92 3c 44
        E 6 92 39 46
        E 151 82 39 01
        E 11 82 3c 01
        E 321 92 39 43
        E 2 92 3c 32
        E 128 82 39 03
        E 7 82 3c 16
        E 334 92 3c 39
        E 4 92 39 49
        E 158 82 39 01
        E 25 82 3c 01
        E 310 92 39 44
        E 2 92 3c 31
        E 136 82 39 16
        E 7 82 3c 1a
        E 329 92 39 3d
        E 0 92 3c 40
        E 136 82 39 09
        E 1 82 3c 14
        E 348 92 39 42
        E 1 92 3c 33
        E 144 82 39 01
        E 9 82 3c 19
        E 324 92 3c 40
        E 0 92 39 46
        E 125 82 39 03
        E 12 82 3c 28
        E 352 92 3c 35
        E 5 92 39 42
        E 161 82 39 01
        E 12 82 3c 01
        E 303 92 3c 38
        E 4 92 39 48
        E 120 82 39 2e
        E 25 82 3c 22
        E 319 92 3a 4d
        E 1 92 3c 32
        E 111 82 3a 29
        E 39 82 3c 1d
        E 328 92 3a 49
        E 4 92 3c 29
        E 117 82 3a 16
        E 37 82 3c 01
        E 328 92 3a 43
        E 3 92 3c 32
        E 122 82 3a 22
        E 32 82 3c 1f
        E 335 92 3c 29
        E 1 92 3a 44
        E 123 82 3a 27
        E 33 82 3c 0f
        E 318 92 3a 48
        E 4 92 3c 2c
        E 111 82 3a 1b
        E 34 82 3c 1e
        E 324 92 3a 49
        E 6 92 3c 24
        E 108 82 3a 08
        E 20 82 3c 25
        E 338 92 3a 4b
        E 11 92 3c 2e
        E 111 82 3a 07
        E 17 82 3c 07
        E 357 92 3a 50
        E 9 92 3c 2e
        E 86 82 3a 18
        E 33 82 3c 19
        E 342 92 3a 4c
        E 4 92 3c 27
        E 83 82 3a 1a
        E 28 82 3c 20
        E 361 92 3a 51
        E 7 92 3c 3a
        E 96 82 3a 10
        E 22 82 3c 22
        E 366 92 3a 58
        E 1 92 3c 42
        E 119 82 3a 01
        E 24 82 3c 17
        E 341 92 3a 56
        E 1 92 3c 3a
        E 103 82 3a 09
        E 35 82 3c 25
        E 325 92 3a 54
        E 3 92 3c 32
        E 105 82 3a 01
        E 25 82 3c 17
        E 359 92 3a 54
        E 6 92 3c 37
        E 96 82 3a 01
        E 17 82 3c 1e
        E 349 92 3a 4d
        E 10 92 3c 29
        E 108 82 3a 01
        E 18 82 3c 13
        E 335 92 3a 49
        E 4 92 3c 34
        E 121 82 3a 1a
        E 3 82 3c 19
        E 368 92 3c 39
        E 6 92 39 4d
        E 109 82 39 0a
        E 25 82 3c 1e
        E 346 92 3c 2f
        E 5 92 39 4a
        E 107 82 39 0e
        E 23 82 3c 2f
        E 332 92 3c 2f
        E 2 92 39 46
        E 438 82 39 0a
        E 5 82 3c 1f
        E 775 92 33 5a
        E 3 92 35 59
        E 77 82 33 3a
        E 13 82 35 25
        E 336 92 33 5e
        E 6 92 35 5a
        E 111 82 33 0e
        E 13 82 35 2a
        E 353 92 33 4c
        E 6 92 35 4f
        E 91 82 33 28
        E 12 82 35 16
        E 361 92 33 4e
        E 8 92 35 5c
        E 102 82 35 32
        E 6 82 33 2a
        E 385 92 32 52
        E 4 92 35 5e
        E 87 82 32 4a
        E 16 82 35 4c
        E 388 92 3a 5f
        E 4 92 3e 4c
        E 88 82 3a 37
        E 17 82 3e 1c
        E 353 92 3a 56
        E 7 92 35 60
        E 103 82 3a 22
        E 1 82 35 3f
        E 367 92 32 58
        E 7 92 35 5c
        E 105 82 32 3e
        E 2 82 35 30
        E 377 92 37 51
        E 1 92 35 5a
        E 91 82 35 39
        E 32 82 37 3e
        E 356 92 3b 4d
        E 3 92 35 58
        E 103 82 35 3e
        E 24 82 3b 2c
        E 360 92 35 53
        E 3 92 37 4d
        E 107 82 35 3d
        E 1 82 37 0a
        E 337 92 37 50
        E 1 92 35 54
        E 93 82 35 1c
        E 18 82 37 2a
        E 414 92 37 53
        E 7 92 34 5c
        E 96 82 34 48
        E 11 82 37 41
        E 360 92 40 52
        E 4 92 3c 50
        E 107 82 3c 1e
        E 13 82 40 20
        E 322 92 3c 53
        E 1 92 37 4c
        E 104 82 3c 35
        E 17 82 37 45
        E 376 92 34 53
        E 1 92 37 51
        E 96 82 37 37
        E 29 82 34 3f
        E 333 92 37 4c
        E 2 92 39 58
        E 91 82 37 41
        E 35 82 39 3b
        E 362 92 3d 5a
        E 7 92 37 4b
        E 98 82 3d 24
        E 16 82 37 2b
        E 375 92 39 50
        E 1 92 37 4a
        E 94 82 39 22
        E 14 82 37 0f
        E 369 92 39 51
        E 1 92 37 4f
        E 100 82 39 2c
        E 1 82 37 31
        E 380 92 35 61
        E 3 92 39 4f
        E 94 82 35 4b
        E 21 82 39 01
        E 359 92 3e 4c
        E 1 92 39 51
        E 79 82 39 35
        E 17 82 3e 27
        E 167 92 3a 48
        E 9 92 32 4a
        E 0 92 37 55
        E 700 82 37 16
        E 13 82 3a 1f
        E 0 82 32 43
        E 449 92 35 45
        E 1 92 39 57
        E 0 92 3c 4a
        E 45 82 39 3e
        E 6 82 35 4c
        E 4 82 3c 2e
        E 57 92 39 5c
        E 1 92 35 61
        E 0 92 3c 54
        E 45 82 39 47
        E 5 82 35 46
        E 2 82 3c 3c
        E 60 92 39 5a
        E 1 92 3c 51
        E 1 92 35 63
        E 71 82 39 2a
        E 0 82 35 3e
        E 15 82 3c 1d
        E 168 92 39 5b
        E 1 92 3c 54
        E 0 92 35 5f
        E 46 82 35 4d
        E 12 82 39 43
        E 19 82 3c 28
        E 161 92 37 4c
        E 0 92 3c 50
        E 2 92 3a 5b
        E 480 82 3a 24
        E 9 82 3c 28
        E 11 82 37 43
        E 713 92 39 4a
        E 1 92 35 5c
        E 1 92 30 4f
        E 63 82 30 27
        E 5 82 39 1f
        E 0 82 35 44
        E 155 92 39 4d
        E 2 92 35 59
        E 3 92 30 4f
        E 78 82 39 1a
        E 1 82 35 42
        E 0 82 30 24
        E 142 92 30 4f
        E 0 92 35 5d
        E 1 92 39 50
        E 56 82 30 41
        E 20 82 35 44
        E 29 82 39 15
        E 364 92 3a 50
        E 1 92 37 59
        E 2 92 32 4d
        E 79 82 37 39
        E 4 82 3a 28
        E 1 82 32 35
        E 147 92 3a 53
        E 2 92 37 51
        E 4 92 32 51
        E 82 82 37 34
        E 1 82 32 39
        E 1 82 3a 19
        E 142 92 37 52
        E 1 92 3a 52
        E 1 92 32 53
        E 76 82 32 3f
        E 3 82 37 31
        E 45 82 3a 01
        E 371 92 39 53
        E 3 92 3c 53
        E 57 82 39 47
        E 6 82 3c 2e
        E 53 92 39 60
        E 2 92 3c 52
        E 46 82 39 46
        E 14 82 3c 32
        E 49 92 39 5e
        E 1 92 3c 54
        E 81 82 39 37
        E 8 82 3c 27
        E 160 92 3c 52
        E 0 92 39 5d
        E 73 82 39 34
        E 9 82 3c 25
        E 403 92 3c 4f
        E 1 92 3a 5d
        E 71 82 3a 30
        E 13 82 3c 28
        E 146 92 3c 4d
        E 4 92 3a 61
        E 81 82 3a 36
        E 20 82 3c 1b
        E 148 92 3a 5f
        E 2 92 3c 52
        E 83 82 3a 35
        E 0 82 3c 29
        E 237 92 39 5d
        E 329 82 39 01
        E 86 92 35 56
        E 1 92 3c 52
        E 0 92 39 5e
        E 244 82 39 37
        E 118 82 35 33
        E 29 82 3c 01
        E 87 92 3a 5e
        E 347 82 3a 28
        E 151 92 3a 54
        E 4 92 3e 51
        E 2 92 37 51
        E 237 82 37 32
        E 36 82 3e 01
        E 80 82 3a 39
        E 96 92 35 5d
        E 4 92 3c 49
        E 2 92 39 57
        E 403 82 39 01
        E 78 82 3c 01
        E 21 82 35 4c
        E 459 92 3a 4e
        E 6 92 34 59
        E 456 82 34 4f
        E 27 82 3a 29
        E 495 92 39 5c
        E 3 92 3c 4f
        E 291 82 39 0c
        E 33 82 3c 18
        E 135 92 35 64
        E 354 82 35 0b
        E 129 92 39 57
        E 335 82 39 18
        E 147 92 3c 51
        E 382 82 3c 01
        E 113 92 41 5a
        E 317 82 41 0c
        E 155 92 41 55
        E 317 82 41 23
        E 166 92 3c 56
        E 266 82 3c 01
        E 185 92 39 5f
        E 306 82 39 01
        E 220 92 35 62
        E 526 82 35 47
        E 423 92 41 56
        E 2 92 3c 5a
        E 477 82 41 27
        E 5 82 3c 1a
        E 318 92 35 6a
        E 74 82 35 51
        E 86 92 35 64
        E 1454 82 35 61
        E 461 b0 7b 00
        GUID {1AD72172-51A4-2945-B27A-99E5C2723562}
        IGNTEMPO 0 120 4 4
        SRCCOLOR 971
        VELLANE -1 86 6
      >
    >
    <ITEM
      POSITION 0
      SNAPOFFS 0
      LENGTH 113
      LOOP 1
      ALLTAKES 0
      FADEIN 1 0 0 1 0 0
      FADEOUT 1 0 0 1 0 0
      MUTE 0
      SEL 0
      YPOS 0 0.103896
      IGUID {FAFB66C6-F894-F143-B7E5-D6D8445F9149}
      IID 14
      NAME "trumpet(s) - National_Anthems_-_Brazil.mid"
      VOLPAN 1 0 1 -1
      SOFFS 0 0
      PLAYRATE 1 1 0 -1 0 0.0025
      CHANMODE 0
      TAKECOLOR 26173599 B
      GUID {D46AA37D-836F-9343-B3DF-CD198A1E746A}
      <SOURCE MIDI
        HASDATA 1 480 QN
        POOLEDEVTS {C863D63F-2A8C-8F47-AA41-8693C62291DB}
        <X 0 0 0 0 3 trumpet(s)
          /wN0cnVtcGV0KHMp
        >
        <X 0 0 0 0 4 "Sound Canvas"
          /wRTb3VuZCBDYW52YXM=
        >
        E 321 90 3c 54
        E 60 80 3c 40
        E 82 90 3c 62
        E 74 90 3e 5a
        E 2 80 3c 47
        E 65 90 3c 50
        E 15 80 3e 3c
        E 75 80 3c 4a
        E 4 90 3b 51
        E 98 90 3c 52
        E 11 80 3b 23
        E 124 90 41 63
        E 4 80 3c 43
        E 156 80 41 3c
        E 180 90 41 61
        E 64 80 41 45
        E 59 90 41 62
        E 99 90 43 67
        E 12 80 41 4e
        E 71 90 41 5b
        E 8 80 43 4d
        E 75 90 40 59
        E 8 80 41 4b
        E 77 90 41 63
        E 27 80 40 3b
        E 103 80 41 47
        E 4 90 45 67
        E 186 80 45 29
        E 177 90 45 5d
        E 63 80 45 3c
        E 71 90 45 5b
        E 70 90 46 67
        E 3 80 45 44
        E 82 90 45 5d
        E 17 80 46 34
        E 64 90 44 66
        E 5 80 45 43
        E 93 90 45 62
        E 27 80 44 33
        E 97 80 45 3f
        E 10 90 48 63
        E 222 80 48 2c
        E 255 90 4d 67
        E 810 80 4d 39
        E 219 90 3c 5e
        E 166 80 3c 20
        E 135 90 3c 51
        E 97 80 3c 20
        E 66 90 41 64
        E 168 80 41 1b
        E 135 90 40 4d
        E 113 80 40 01
        E 43 90 43 6c
        E 223 80 43 26
        E 85 90 41 5a
        E 144 80 41 2d
        E 28 90 45 62
        E 207 80 45 09
        E 94 90 43 63
        E 119 80 43 22
        E 43 90 46 66
        E 244 80 46 32
        E 54 90 45 56
        E 106 80 45 27
        E 61 90 42 5e
        E 499 90 43 66
        E 28 80 42 25
        E 613 80 43 51
        E 190 90 3e 5c
        E 73 80 3e 36
        E 66 90 3e 59
        E 79 90 40 4f
        E 2 80 3e 2e
        E 75 90 3e 5b
        E 6 80 40 40
        E 83 90 3d 5f
        E 3 80 3e 38
        E 95 90 3e 60
        E 12 80 3d 47
        E 126 90 43 6c
        E 11 80 3e 39
        E 177 80 43 2d
        E 147 90 43 6a
        E 63 80 43 46
        E 70 90 43 68
        E 93 80 43 4c
        E 1 90 45 53
        E 74 90 43 64
        E 11 80 45 43
        E 77 90 42 5a
        E 5 80 43 4f
        E 78 90 43 67
        E 32 80 42 2c
        E 76 80 43 30
        E 16 90 46 68
        E 212 80 46 38
        E 122 90 46 65
        E 72 80 46 4d
        E 68 90 46 69
        E 87 80 46 4d
        E 10 90 48 5c
        E 48 90 46 63
        E 19 80 48 4e
        E 75 90 45 57
        E 21 80 46 3f
        E 85 90 46 69
        E 41 80 45 28
        E 88 80 46 34
        E 51 90 4a 66
        E 197 80 4a 36
        E 287 90 4f 63
        E 754 80 4f 44
        E 200 90 4f 60
        E 213 90 4d 60
        E 3 80 4f 3d
        E 142 80 4d 2b
        E 60 90 4f 53
        E 36 90 4d 58
        E 18 80 4f 4c
        E 243 90 4c 5a
        E 1 80 4d 41
        E 138 80 4c 1a
        E 75 90 4d 58
        E 44 90 4c 5e
        E 20 80 4d 48
        E 215 90 4a 5d
        E 2 80 4c 48
        E 98 80 4a 36
        E 100 90 4c 3c
        E 37 90 4a 53
        E 28 80 4c 38
        E 223 90 48 5b
        E 3 80 4a 40
        E 114 80 48 2b
        E 73 90 4a 55
        E 54 90 48 56
        E 21 80 4a 48
        E 207 90 46 65
        E 12 80 48 28
        E 128 80 46 45
        E 128 90 43 59
        E 486 90 45 4e
        E 12 80 43 2f
        E 581 80 45 40
        E 180 90 3c 5e
        E 81 80 3c 44
        E 77 90 3c 5d
        E 69 90 3e 58
        E 2 80 3c 4a
        E 67 90 3c 58
        E 16 80 3e 3e
        E 67 80 3c 49
        E 2 90 3b 4f
        E 82 90 3c 58
        E 17 80 3b 36
        E 125 90 41 60
        E 1 80 3c 42
        E 190 80 41 2c
        E 133 90 41 56
        E 73 80 41 3f
        E 89 90 41 5f
        E 81 90 43 63
        E 5 80 41 47
        E 66 90 41 59
        E 15 80 43 49
        E 67 90 40 54
        E 9 80 41 47
        E 94 90 41 5f
        E 20 80 40 37
        E 124 90 45 64
        E 4 80 41 42
        E 217 80 45 3d
        E 118 90 41 5d
        E 72 80 41 34
        E 83 90 41 57
        E 69 90 43 5b
        E 3 80 41 43
        E 67 90 41 59
        E 12 80 43 48
        E 79 90 40 59
        E 7 80 41 47
        E 93 90 41 5b
        E 40 80 40 2a
        E 108 80 41 43
        E 3 90 3e 60
        E 194 80 3e 2e
        E 145 90 43 6a
        E 81 80 43 4c
        E 86 90 43 69
        E 73 80 43 4b
        E 4 90 45 50
        E 77 90 43 65
        E 8 80 45 3b
        E 81 80 43 49
        E 3 90 42 55
        E 94 90 43 5d
        E 24 80 42 2c
        E 86 80 43 1f
        E 4 90 46 63
        E 216 80 46 47
        E 119 90 43 6a
        E 63 80 43 4b
        E 76 90 43 67
        E 84 80 43 47
        E 7 90 45 57
        E 73 90 43 67
        E 8 80 45 43
        E 72 80 43 42
        E 3 90 42 5b
        E 101 90 43 65
        E 10 80 42 43
        E 103 80 43 48
        E 6 90 40 53
        E 239 80 40 27
        E 107 90 45 59
        E 73 80 45 45
        E 86 90 45 5b
        E 87 90 46 5f
        E 6 80 45 3c
        E 56 80 46 41
        E 5 90 45 4b
        E 73 90 44 5d
        E 7 80 45 44
        E 94 90 45 5e
        E 20 80 44 3e
        E 84 80 45 35
        E 16 90 48 62
        E 200 80 48 34
        E 134 90 45 61
        E 56 80 45 3d
        E 76 90 45 5d
        E 82 90 46 62
        E 1 80 45 47
        E 79 90 45 59
        E 19 80 46 38
        E 69 90 44 53
        E 8 80 45 2b
        E 114 90 45 5b
        E 17 80 44 4b
        E 114 80 45 36
        E 9 90 41 62
        E 237 80 41 3a
        E 128 90 46 68
        E 67 80 46 4b
        E 74 90 46 6a
        E 69 80 46 4b
        E 12 90 48 53
        E 61 90 46 67
        E 14 80 48 4e
        E 63 90 45 51
        E 4 80 46 45
        E 86 90 46 65
        E 43 80 45 2a
        E 71 80 46 40
        E 33 90 48 63
        E 228 80 48 40
        E 114 90 48 5b
        E 61 80 48 4a
        E 80 90 48 61
        E 80 90 4a 59
        E 5 80 48 47
        E 65 90 48 57
        E 10 80 4a 4c
        E 82 90 47 5f
        E 12 80 48 48
        E 106 90 48 63
        E 8 80 47 40
        E 116 90 45 63
        E 2 80 48 4a
        E 277 80 45 0c
        E 174 90 4d 5d
        E 868 80 4d 2c
        E 97 90 4c 60
        E 262 80 4c 34
        E 53 90 4a 5a
        E 92 80 4a 1c
        E 90 90 48 5f
        E 589 80 48 48
        E 351 90 40 63
        E 769 80 40 21
        E 186 90 41 58
        E 907 80 41 47
        E 553 90 3c 64
        E 378 80 3c 24
        E 75 90 41 64
        E 303 80 41 1c
        E 48 90 40 54
        E 120 80 40 2d
        E 40 90 41 67
        E 231 80 41 29
        E 67 90 43 6b
        E 122 80 43 35
        E 55 90 45 62
        E 292 80 45 01
        E 44 90 43 67
        E 150 80 43 2d
        E 26 90 45 68
        E 224 80 45 26
        E 74 90 46 67
        E 116 80 46 3c
        E 61 90 47 62
        E 671 80 47 08
        E 38 90 48 63
        E 226 80 48 4f
        E 11 90 41 65
        E 390 80 41 16
        E 87 90 3c 63
        E 383 80 3c 27
        E 97 90 41 63
        E 267 80 41 2d
        E 62 90 40 57
        E 131 80 40 22
        E 32 90 43 6c
        E 265 80 43 04
        E 54 90 41 52
        E 128 80 41 2c
        E 18 90 45 65
        E 282 80 45 22
        E 27 90 43 62
        E 138 80 43 40
        E 25 90 46 6a
        E 308 80 46 11
        E 13 90 45 54
        E 100 80 45 36
        E 69 90 42 61
        E 449 80 42 26
        E 24 90 43 6c
        E 765 80 43 48
        E 193 90 3c 61
        E 358 80 3c 03
        E 103 90 43 6d
        E 281 80 43 1f
        E 45 90 42 5e
        E 127 80 42 2e
        E 42 90 43 6d
        E 237 80 43 2e
        E 80 90 45 5a
        E 131 80 45 2b
        E 39 90 46 65
        E 288 80 46 39
        E 31 90 45 5c
        E 135 80 45 29
        E 33 90 46 6a
        E 238 80 46 35
        E 64 90 48 56
        E 121 80 48 27
        E 53 90 49 65
        E 694 80 49 01
        E 19 90 4a 64
        E 215 80 4a 20
        E 29 90 43 6d
        E 356 80 43 1f
        E 112 90 3c 5c
        E 408 80 3c 01
        E 68 90 43 6d
        E 281 80 43 2c
        E 47 90 42 58
        E 140 80 42 2e
        E 28 90 45 66
        E 262 80 45 03
        E 63 90 43 66
        E 144 80 43 45
        E 6 90 46 65
        E 306 80 46 4d
        E 13 90 45 56
        E 136 80 45 13
        E 39 90 48 61
        E 274 80 48 46
        E 7 90 46 63
        E 171 80 46 52
        E 26 90 44 65
        E 463 80 44 44
        E 6 90 45 64
        E 791 80 45 37
        E 178 90 45 68
        E 259 80 45 2f
        E 71 90 45 62
        E 110 80 45 20
        E 39 90 46 6a
        E 489 90 45 61
        E 14 80 46 26
        E 584 80 45 29
        E 97 90 45 62
        E 168 80 45 27
        E 76 90 46 69
        E 308 80 46 30
        E 37 90 45 64
        E 68 80 45 3f
        E 71 90 45 66
        E 451 80 45 01
        E 38 90 4a 60
        E 816 80 4a 17
        E 109 90 48 60
        E 217 80 48 01
        E 34 90 46 63
        E 142 80 46 3b
        E 92 90 46 6a
        E 226 80 46 2f
        E 22 90 45 62
        E 181 80 45 34
        E 68 90 45 62
        E 212 80 45 31
        E 26 90 43 67
        E 158 80 43 3d
        E 75 90 43 6a
        E 223 80 43 43
        E 14 90 41 58
        E 163 80 41 31
        E 78 90 41 61
        E 226 80 41 34
        E 28 90 40 5b
        E 140 80 40 2d
        E 101 90 40 61
        E 482 80 40 46
        E 5 90 3e 5d
        E 862 80 3e 01
        E 123 90 43 6d
        E 239 80 43 33
        E 95 90 43 6b
        E 97 80 43 36
        E 46 90 45 68
        E 445 80 45 41
        E 13 90 43 69
        E 606 80 43 38
        E 116 90 43 67
        E 188 80 43 2a
        E 48 90 45 64
        E 293 80 45 14
        E 52 90 43 6b
        E 81 80 43 43
        E 63 90 43 69
        E 474 90 48 65
        E 9 80 43 2f
        E 791 80 48 2a
        E 130 90 47 62
        E 234 80 47 34
        E 14 90 45 60
        E 230 80 45 01
        E 35 90 45 60
        E 240 80 45 3c
        E 6 90 43 66
        E 143 80 43 20
        E 94 90 43 6a
        E 209 80 43 47
        E 17 90 41 58
        E 152 80 41 39
        E 79 90 41 62
        E 236 90 40 58
        E 5 80 41 39
        E 157 80 40 30
        E 74 90 40 5f
        E 235 90 3e 61
        E 3 80 40 42
        E 148 80 3e 37
        E 96 90 3c 62
        E 406 80 3c 1c
        E 94 90 3c 5f
        E 582 80 3c 15
        E 145 90 3c 60
        E 207 80 3c 01
        E 35 90 40 65
        E 175 80 40 35
        E 41 90 43 6d
        E 163 80 43 34
        E 81 90 46 6a
        E 189 80 46 33
        E 55 90 3c 56
        E 173 80 3c 0d
        E 40 90 40 5e
        E 176 80 40 30
        E 53 90 43 6a
        E 183 80 43 39
        E 55 90 46 6b
        E 162 80 46 37
        E 92 90 3c 5a
        E 195 80 3c 0f
        E 33 90 40 60
        E 195 80 40 36
        E 54 90 43 6c
        E 178 80 43 2a
        E 84 90 46 68
        E 1285 80 46 28
        E 183 90 3c 60
        E 376 80 3c 01
        E 65 90 41 62
        E 304 80 41 23
        E 47 90 40 56
        E 99 80 40 24
        E 58 90 41 68
        E 235 80 41 1b
        E 85 90 43 68
        E 143 80 43 24
        E 32 90 45 61
        E 274 80 45 1f
        E 47 90 43 6a
        E 147 80 43 38
        E 16 90 45 64
        E 200 80 45 22
        E 93 90 46 63
        E 108 80 46 3a
        E 73 90 47 65
        E 649 80 47 08
        E 52 90 48 63
        E 204 80 48 2a
        E 37 90 41 66
        E 405 80 41 0b
        E 78 90 3c 5e
        E 433 80 3c 20
        E 62 90 41 65
        E 304 80 41 25
        E 22 90 40 51
        E 138 80 40 1d
        E 21 90 43 6c
        E 266 80 43 25
        E 43 90 41 5a
        E 123 80 41 21
        E 46 90 45 64
        E 266 80 45 13
        E 42 90 43 60
        E 134 80 43 3a
        E 33 90 46 68
        E 294 80 46 27
        E 21 90 45 52
        E 110 80 45 2c
        E 54 90 42 63
        E 465 80 42 24
        E 14 90 43 68
        E 730 80 43 38
        E 218 90 3c 5f
        E 394 80 3c 13
        E 74 90 43 6b
        E 245 80 43 0b
        E 71 90 42 5d
        E 142 80 42 2a
        E 26 90 43 6c
        E 284 80 43 01
        E 47 90 45 63
        E 146 80 45 27
        E 36 90 46 66
        E 240 80 46 3d
        E 61 90 45 64
        E 135 80 45 22
        E 32 90 46 69
        E 263 80 46 33
        E 32 90 48 5a
        E 114 80 48 2b
        E 69 90 49 5f
        E 699 80 49 1e
        E 16 90 4a 61
        E 194 80 4a 1b
        E 53 90 43 6c
        E 379 80 43 1c
        E 108 90 3c 5a
        E 373 80 3c 01
        E 100 90 43 6e
        E 295 80 43 41
        E 17 90 42 56
        E 116 80 42 1e
        E 46 90 45 66
        E 286 80 45 27
        E 9 90 43 5f
        E 135 80 43 30
        E 34 90 46 6a
        E 324 80 46 3a
        E 7 90 45 55
        E 123 80 45 25
        E 43 90 48 64
        E 249 80 48 01
        E 46 90 46 62
        E 123 80 46 24
        E 55 90 44 5d
        E 497 90 45 60
        E 9 80 44 13
        E 732 80 45 25
        E 509 90 41 51
        E 110 80 41 35
        E 67 90 43 6c
        E 292 80 43 38
        E 36 90 41 4d
        E 144 80 41 31
        E 28 90 40 63
        E 267 80 40 0c
        E 22 90 41 51
        E 142 80 41 23
        E 45 90 40 5f
        E 279 80 40 01
        E 11 90 41 5e
        E 142 80 41 29
        E 38 90 43 6a
        E 284 80 43 21
        E 26 90 41 52
        E 84 80 41 38
        E 92 90 41 63
        E 698 90 46 55
        E 28 80 41 28
        E 136 80 46 39
        E 65 90 46 67
        E 656 80 46 20
        E 188 90 43 69
        E 104 80 43 3e
        E 58 90 45 64
        E 255 80 45 2c
        E 29 90 43 66
        E 164 80 43 06
        E 14 90 42 5e
        E 248 80 42 34
        E 32 90 43 6a
        E 124 80 43 48
        E 70 90 42 66
        E 255 80 42 2e
        E 40 90 43 6a
        E 125 80 43 2a
        E 44 90 45 62
        E 220 80 45 22
        E 135 90 43 6b
        E 103 80 43 3d
        E 26 90 43 6e
        E 706 90 48 5c
        E 23 80 43 01
        E 139 80 48 3a
        E 78 90 48 5e
        E 553 80 48 38
        E 244 90 45 51
        E 97 80 45 31
        E 61 90 46 6a
        E 271 80 46 33
        E 52 90 45 62
        E 127 80 45 22
        E 54 90 44 63
        E 286 80 44 16
        E 18 90 45 5c
        E 121 80 45 2b
        E 67 90 44 63
        E 230 80 44 2b
        E 59 90 45 5f
        E 131 80 45 2a
        E 55 90 46 69
        E 258 80 46 01
        E 42 90 45 5f
        E 80 80 45 31
        E 93 90 45 66
        E 469 80 45 01
        E 6 90 4a 61
        E 589 80 4a 2d
        E 115 90 48 60
        E 183 80 48 04
        E 43 90 46 5f
        E 220 80 46 28
        E 8 90 43 65
        E 159 80 43 2c
        E 104 90 43 6d
        E 472 80 43 34
        E 19 90 41 57
        E 600 80 41 32
        E 141 90 40 5e
        E 209 80 40 21
        E 19 90 41 64
        E 170 80 41 21
        E 63 90 43 6d
        E 204 80 43 28
        E 34 90 46 65
        E 180 80 46 40
        E 64 90 45 61
        E 211 80 45 16
        E 23 90 40 5f
        E 223 80 40 28
        E 19 90 41 57
        E 163 80 41 27
        E 64 90 3d 55
        E 194 80 3d 17
        E 51 90 3e 51
        E 217 80 3e 0d
        E 30 90 46 6a
        E 213 80 46 4a
        E 32 90 43 68
        E 153 80 43 39
        E 85 90 43 69
        E 429 80 43 0a
        E 44 90 41 5b
        E 619 80 41 3d
        E 126 90 43 6c
        E 212 80 43 33
        E 16 90 45 66
        E 171 80 45 24
        E 66 90 46 69
        E 173 80 46 28
        E 71 90 47 5d
        E 219 80 47 36
        E 22 90 48 57
        E 224 80 48 26
        E 22 90 45 61
        E 219 80 45 29
        E 13 90 41 5e
        E 238 80 41 37
        E 22 90 3e 60
        E 609 80 3e 01
        E 93 90 46 68
        E 206 80 46 36
        E 37 90 45 61
        E 430 80 45 0f
        E 42 90 41 68
        E 275 80 41 29
        E 41 90 3e 52
        E 120 80 3e 35
        E 33 90 3c 61
        E 462 80 3c 23
        E 6 90 3e 64
        E 282 80 3e 01
        E 40 90 40 5a
        E 131 80 40 1a
        E 65 90 41 5f
        E 1925 80 41 20
        E 401 90 43 68
        E 56 90 41 59
        E 10 80 43 4e
        E 175 90 40 56
        E 2 80 41 36
        E 125 90 41 51
        E 33 80 40 25
        E 115 80 41 49
        E 9 90 46 61
        E 54 90 45 60
        E 11 80 46 4a
        E 118 90 44 5d
        E 1 80 45 3d
        E 175 90 45 5d
        E 37 80 44 27
        E 59 80 45 36
        E 51 90 4a 5d
        E 53 90 48 5e
        E 13 80 4a 4d
        E 112 80 48 47
        E 7 90 47 47
        E 163 90 48 5d
        E 20 80 47 21
        E 155 80 48 3b
        E 6 90 4d 61
        E 376 80 4d 20
        E 523 90 4d 65
        E 505 80 4d 54
        E 370 90 41 68
        E 54 80 41 4e
        E 59 90 41 6a
        E 1451 80 41 66
        E 456 b0 7b 00
        GUID {F244318C-CB32-6847-B6A7-E6A3225CAB2C}
        IGNTEMPO 0 120 4 4
        SRCCOLOR 957
        VELLANE -1 86 6
      >
      TAKE
      NAME "trumpet(s) - National_Anthems_-_Brazil.mid"
      TAKEVOLPAN 0 1 -1
      SOFFS 0 0
      PLAYRATE 1 1 0 -1 0 0.0025
      CHANMODE 0
      GUID {1B11A4F9-40D3-1E48-988B-7B3A8F3A2088}
      <SOURCE MIDI
        HASDATA 1 480 QN
        POOLEDEVTS {7AA67677-6B62-194E-9404-125FC4EE8BCA}
        <X 0 0 0 0 3 trumpet(s)
          /wN0cnVtcGV0KHMp
        >
        <X 0 0 0 0 4 "Sound Canvas"
          /wRTb3VuZCBDYW52YXM=
        >
        E 321 90 3c 54
        E 60 80 3c 40
        E 82 90 3c 62
        E 74 90 3e 5a
        E 2 80 3c 47
        E 65 90 3c 50
        E 15 80 3e 3c
        E 75 80 3c 4a
        E 4 90 3b 51
        E 98 90 3c 52
        E 11 80 3b 23
        E 124 90 41 63
        E 4 80 3c 43
        E 156 80 41 3c
        E 180 90 41 61
        E 64 80 41 45
        E 59 90 41 62
        E 99 90 43 67
        E 12 80 41 4e
        E 71 90 41 5b
        E 8 80 43 4d
        E 75 90 40 59
        E 8 80 41 4b
        E 77 90 41 63
        E 27 80 40 3b
        E 103 80 41 47
        E 4 90 45 67
        E 186 80 45 29
        E 177 90 45 5d
        E 63 80 45 3c
        E 71 90 45 5b
        E 70 90 46 67
        E 3 80 45 44
        E 82 90 45 5d
        E 17 80 46 34
        E 64 90 44 66
        E 5 80 45 43
        E 93 90 45 62
        E 27 80 44 33
        E 97 80 45 3f
        E 10 90 48 63
        E 222 80 48 2c
        E 255 90 4d 67
        E 810 80 4d 39
        E 219 90 3c 5e
        E 166 80 3c 20
        E 135 90 3c 51
        E 97 80 3c 20
        E 66 90 41 64
        E 168 80 41 1b
        E 135 90 40 4d
        E 113 80 40 01
        E 43 90 43 6c
        E 223 80 43 26
        E 85 90 41 5a
        E 144 80 41 2d
        E 28 90 45 62
        E 207 80 45 09
        E 94 90 43 63
        E 119 80 43 22
        E 43 90 46 66
        E 244 80 46 32
        E 54 90 45 56
        E 106 80 45 27
        E 61 90 42 5e
        E 499 90 43 66
        E 28 80 42 25
        E 613 80 43 51
        E 190 90 3e 5c
        E 73 80 3e 36
        E 66 90 3e 59
        E 79 90 40 4f
        E 2 80 3e 2e
        E 75 90 3e 5b
        E 6 80 40 40
        E 83 90 3d 5f
        E 3 80 3e 38
        E 95 90 3e 60
        E 12 80 3d 47
        E 126 90 43 6c
        E 11 80 3e 39
        E 177 80 43 2d
        E 147 90 43 6a
        E 63 80 43 46
        E 70 90 43 68
        E 93 80 43 4c
        E 1 90 45 53
        E 74 90 43 64
        E 11 80 45 43
        E 77 90 42 5a
        E 5 80 43 4f
        E 78 90 43 67
        E 32 80 42 2c
        E 76 80 43 30
        E 16 90 46 68
        E 212 80 46 38
        E 122 90 46 65
        E 72 80 46 4d
        E 68 90 46 69
        E 87 80 46 4d
        E 10 90 48 5c
        E 48 90 46 63
        E 19 80 48 4e
        E 75 90 45 57
        E 21 80 46 3f
        E 85 90 46 69
        E 41 80 45 28
        E 88 80 46 34
        E 51 90 4a 66
        E 197 80 4a 36
        E 287 90 4f 63
        E 754 80 4f 44
        E 200 90 4f 60
        E 213 90 4d 60
        E 3 80 4f 3d
        E 142 80 4d 2b
        E 60 90 4f 53
        E 36 90 4d 58
        E 18 80 4f 4c
        E 243 90 4c 5a
        E 1 80 4d 41
        E 138 80 4c 1a
        E 75 90 4d 58
        E 44 90 4c 5e
        E 20 80 4d 48
        E 215 90 4a 5d
        E 2 80 4c 48
        E 98 80 4a 36
        E 100 90 4c 3c
        E 37 90 4a 53
        E 28 80 4c 38
        E 223 90 48 5b
        E 3 80 4a 40
        E 114 80 48 2b
        E 73 90 4a 55
        E 54 90 48 56
        E 21 80 4a 48
        E 207 90 46 65
        E 12 80 48 28
        E 128 80 46 45
        E 128 90 43 59
        E 486 90 45 4e
        E 12 80 43 2f
        E 581 80 45 40
        E 180 90 3c 5e
        E 81 80 3c 44
        E 77 90 3c 5d
        E 69 90 3e 58
        E 2 80 3c 4a
        E 67 90 3c 58
        E 16 80 3e 3e
        E 67 80 3c 49
        E 2 90 3b 4f
        E 82 90 3c 58
        E 17 80 3b 36
        E 125 90 41 60
        E 1 80 3c 42
        E 190 80 41 2c
        E 133 90 41 56
        E 73 80 41 3f
        E 89 90 41 5f
        E 81 90 43 63
        E 5 80 41 47
        E 66 90 41 59
        E 15 80 43 49
        E 67 90 40 54
        E 9 80 41 47
        E 94 90 41 5f
        E 20 80 40 37
        E 124 90 45 64
        E 4 80 41 42
        E 217 80 45 3d
        E 118 90 41 5d
        E 72 80 41 34
        E 83 90 41 57
        E 69 90 43 5b
        E 3 80 41 43
        E 67 90 41 59
        E 12 80 43 48
        E 79 90 40 59
        E 7 80 41 47
        E 93 90 41 5b
        E 40 80 40 2a
        E 108 80 41 43
        E 3 90 3e 60
        E 194 80 3e 2e
        E 145 90 43 6a
        E 81 80 43 4c
        E 86 90 43 69
        E 73 80 43 4b
        E 4 90 45 50
        E 77 90 43 65
        E 8 80 45 3b
        E 81 80 43 49
        E 3 90 42 55
        E 94 90 43 5d
        E 24 80 42 2c
        E 86 80 43 1f
        E 4 90 46 63
        E 216 80 46 47
        E 119 90 43 6a
        E 63 80 43 4b
        E 76 90 43 67
        E 84 80 43 47
        E 7 90 45 57
        E 73 90 43 67
        E 8 80 45 43
        E 72 80 43 42
        E 3 90 42 5b
        E 101 90 43 65
        E 10 80 42 43
        E 103 80 43 48
        E 6 90 40 53
        E 239 80 40 27
        E 107 90 45 59
        E 73 80 45 45
        E 86 90 45 5b
        E 87 90 46 5f
        E 6 80 45 3c
        E 56 80 46 41
        E 5 90 45 4b
        E 73 90 44 5d
        E 7 80 45 44
        E 94 90 45 5e
        E 20 80 44 3e
        E 84 80 45 35
        E 16 90 48 62
        E 200 80 48 34
        E 134 90 45 61
        E 56 80 45 3d
        E 76 90 45 5d
        E 82 90 46 62
        E 1 80 45 47
        E 79 90 45 59
        E 19 80 46 38
        E 69 90 44 53
        E 8 80 45 2b
        E 114 90 45 5b
        E 17 80 44 4b
        E 114 80 45 36
        E 9 90 41 62
        E 237 80 41 3a
        E 128 90 46 68
        E 67 80 46 4b
        E 74 90 46 6a
        E 69 80 46 4b
        E 12 90 48 53
        E 61 90 46 67
        E 14 80 48 4e
        E 63 90 45 51
        E 4 80 46 45
        E 86 90 46 65
        E 43 80 45 2a
        E 71 80 46 40
        E 33 90 48 63
        E 228 80 48 40
        E 114 90 48 5b
        E 61 80 48 4a
        E 80 90 48 61
        E 80 90 4a 59
        E 5 80 48 47
        E 65 90 48 57
        E 10 80 4a 4c
        E 82 90 47 5f
        E 12 80 48 48
        E 106 90 48 63
        E 8 80 47 40
        E 116 90 45 63
        E 2 80 48 4a
        E 277 80 45 0c
        E 174 90 4d 5d
        E 868 80 4d 2c
        E 97 90 4c 60
        E 262 80 4c 34
        E 53 90 4a 5a
        E 92 80 4a 1c
        E 90 90 48 5f
        E 589 80 48 48
        E 351 90 40 63
        E 769 80 40 21
        E 186 90 41 58
        E 907 80 41 47
        E 553 90 3c 64
        E 378 80 3c 24
        E 75 90 41 64
        E 303 80 41 1c
        E 48 90 40 54
        E 120 80 40 2d
        E 40 90 41 67
        E 231 80 41 29
        E 67 90 43 6b
        E 122 80 43 35
        E 55 90 45 62
        E 292 80 45 01
        E 44 90 43 67
        E 150 80 43 2d
        E 26 90 45 68
        E 224 80 45 26
        E 74 90 46 67
        E 116 80 46 3c
        E 61 90 47 62
        E 671 80 47 08
        E 38 90 48 63
        E 226 80 48 4f
        E 11 90 41 65
        E 390 80 41 16
        E 87 90 3c 63
        E 383 80 3c 27
        E 97 90 41 63
        E 267 80 41 2d
        E 62 90 40 57
        E 131 80 40 22
        E 32 90 43 6c
        E 265 80 43 04
        E 54 90 41 52
        E 128 80 41 2c
        E 18 90 45 65
        E 282 80 45 22
        E 27 90 43 62
        E 138 80 43 40
        E 25 90 46 6a
        E 308 80 46 11
        E 13 90 45 54
        E 100 80 45 36
        E 69 90 42 61
        E 449 80 42 26
        E 24 90 43 6c
        E 765 80 43 48
        E 193 90 3c 61
        E 358 80 3c 03
        E 103 90 43 6d
        E 281 80 43 1f
        E 45 90 42 5e
        E 127 80 42 2e
        E 42 90 43 6d
        E 237 80 43 2e
        E 80 90 45 5a
        E 131 80 45 2b
        E 39 90 46 65
        E 288 80 46 39
        E 31 90 45 5c
        E 135 80 45 29
        E 33 90 46 6a
        E 238 80 46 35
        E 64 90 48 56
        E 121 80 48 27
        E 53 90 49 65
        E 694 80 49 01
        E 19 90 4a 64
        E 215 80 4a 20
        E 29 90 43 6d
        E 356 80 43 1f
        E 112 90 3c 5c
        E 408 80 3c 01
        E 68 90 43 6d
        E 281 80 43 2c
        E 47 90 42 58
        E 140 80 42 2e
        E 28 90 45 66
        E 262 80 45 03
        E 63 90 43 66
        E 144 80 43 45
        E 6 90 46 65
        E 306 80 46 4d
        E 13 90 45 56
        E 136 80 45 13
        E 39 90 48 61
        E 274 80 48 46
        E 7 90 46 63
        E 171 80 46 52
        E 26 90 44 65
        E 463 80 44 44
        E 6 90 45 64
        E 791 80 45 37
        E 178 90 45 68
        E 259 80 45 2f
        E 71 90 45 62
        E 110 80 45 20
        E 39 90 46 6a
        E 489 90 45 61
        E 14 80 46 26
        E 584 80 45 29
        E 97 90 45 62
        E 168 80 45 27
        E 76 90 46 69
        E 308 80 46 30
        E 37 90 45 64
        E 68 80 45 3f
        E 71 90 45 66
        E 451 80 45 01
        E 38 90 4a 60
        E 816 80 4a 17
        E 109 90 48 60
        E 217 80 48 01
        E 34 90 46 63
        E 142 80 46 3b
        E 92 90 46 6a
        E 226 80 46 2f
        E 22 90 45 62
        E 181 80 45 34
        E 68 90 45 62
        E 212 80 45 31
        E 26 90 43 67
        E 158 80 43 3d
        E 75 90 43 6a
        E 223 80 43 43
        E 14 90 41 58
        E 163 80 41 31
        E 78 90 41 61
        E 226 80 41 34
        E 28 90 40 5b
        E 140 80 40 2d
        E 101 90 40 61
        E 482 80 40 46
        E 5 90 3e 5d
        E 862 80 3e 01
        E 123 90 43 6d
        E 239 80 43 33
        E 95 90 43 6b
        E 97 80 43 36
        E 46 90 45 68
        E 445 80 45 41
        E 13 90 43 69
        E 606 80 43 38
        E 116 90 43 67
        E 188 80 43 2a
        E 48 90 45 64
        E 293 80 45 14
        E 52 90 43 6b
        E 81 80 43 43
        E 63 90 43 69
        E 474 90 48 65
        E 9 80 43 2f
        E 791 80 48 2a
        E 130 90 47 62
        E 234 80 47 34
        E 14 90 45 60
        E 230 80 45 01
        E 35 90 45 60
        E 240 80 45 3c
        E 6 90 43 66
        E 143 80 43 20
        E 94 90 43 6a
        E 209 80 43 47
        E 17 90 41 58
        E 152 80 41 39
        E 79 90 41 62
        E 236 90 40 58
        E 5 80 41 39
        E 157 80 40 30
        E 74 90 40 5f
        E 235 90 3e 61
        E 3 80 40 42
        E 148 80 3e 37
        E 96 90 3c 62
        E 406 80 3c 1c
        E 94 90 3c 5f
        E 582 80 3c 15
        E 145 90 3c 60
        E 207 80 3c 01
        E 35 90 40 65
        E 175 80 40 35
        E 41 90 43 6d
        E 163 80 43 34
        E 81 90 46 6a
        E 189 80 46 33
        E 55 90 3c 56
        E 173 80 3c 0d
        E 40 90 40 5e
        E 176 80 40 30
        E 53 90 43 6a
        E 183 80 43 39
        E 55 90 46 6b
        E 162 80 46 37
        E 92 90 3c 5a
        E 195 80 3c 0f
        E 33 90 40 60
        E 195 80 40 36
        E 54 90 43 6c
        E 178 80 43 2a
        E 84 90 46 68
        E 1285 80 46 28
        E 183 90 3c 60
        E 376 80 3c 01
        E 65 90 41 62
        E 304 80 41 23
        E 47 90 40 56
        E 99 80 40 24
        E 58 90 41 68
        E 235 80 41 1b
        E 85 90 43 68
        E 143 80 43 24
        E 32 90 45 61
        E 274 80 45 1f
        E 47 90 43 6a
        E 147 80 43 38
        E 16 90 45 64
        E 200 80 45 22
        E 93 90 46 63
        E 108 80 46 3a
        E 73 90 47 65
        E 649 80 47 08
        E 52 90 48 63
        E 204 80 48 2a
        E 37 90 41 66
        E 405 80 41 0b
        E 78 90 3c 5e
        E 433 80 3c 20
        E 62 90 41 65
        E 304 80 41 25
        E 22 90 40 51
        E 138 80 40 1d
        E 21 90 43 6c
        E 266 80 43 25
        E 43 90 41 5a
        E 123 80 41 21
        E 46 90 45 64
        E 266 80 45 13
        E 42 90 43 60
        E 134 80 43 3a
        E 33 90 46 68
        E 294 80 46 27
        E 21 90 45 52
        E 110 80 45 2c
        E 54 90 42 63
        E 465 80 42 24
        E 14 90 43 68
        E 730 80 43 38
        E 218 90 3c 5f
        E 394 80 3c 13
        E 74 90 43 6b
        E 245 80 43 0b
        E 71 90 42 5d
        E 142 80 42 2a
        E 26 90 43 6c
        E 284 80 43 01
        E 47 90 45 63
        E 146 80 45 27
        E 36 90 46 66
        E 240 80 46 3d
        E 61 90 45 64
        E 135 80 45 22
        E 32 90 46 69
        E 263 80 46 33
        E 32 90 48 5a
        E 114 80 48 2b
        E 69 90 49 5f
        E 699 80 49 1e
        E 16 90 4a 61
        E 194 80 4a 1b
        E 53 90 43 6c
        E 379 80 43 1c
        E 108 90 3c 5a
        E 373 80 3c 01
        E 100 90 43 6e
        E 295 80 43 41
        E 17 90 42 56
        E 116 80 42 1e
        E 46 90 45 66
        E 286 80 45 27
        E 9 90 43 5f
        E 135 80 43 30
        E 34 90 46 6a
        E 324 80 46 3a
        E 7 90 45 55
        E 123 80 45 25
        E 43 90 48 64
        E 249 80 48 01
        E 46 90 46 62
        E 123 80 46 24
        E 55 90 44 5d
        E 497 90 45 60
        E 9 80 44 13
        E 732 80 45 25
        E 509 90 41 51
        E 110 80 41 35
        E 67 90 43 6c
        E 292 80 43 38
        E 36 90 41 4d
        E 144 80 41 31
        E 28 90 40 63
        E 267 80 40 0c
        E 22 90 41 51
        E 142 80 41 23
        E 45 90 40 5f
        E 279 80 40 01
        E 11 90 41 5e
        E 142 80 41 29
        E 38 90 43 6a
        E 284 80 43 21
        E 26 90 41 52
        E 84 80 41 38
        E 92 90 41 63
        E 698 90 46 55
        E 28 80 41 28
        E 136 80 46 39
        E 65 90 46 67
        E 656 80 46 20
        E 188 90 43 69
        E 104 80 43 3e
        E 58 90 45 64
        E 255 80 45 2c
        E 29 90 43 66
        E 164 80 43 06
        E 14 90 42 5e
        E 248 80 42 34
        E 32 90 43 6a
        E 124 80 43 48
        E 70 90 42 66
        E 255 80 42 2e
        E 40 90 43 6a
        E 125 80 43 2a
        E 44 90 45 62
        E 220 80 45 22
        E 135 90 43 6b
        E 103 80 43 3d
        E 26 90 43 6e
        E 706 90 48 5c
        E 23 80 43 01
        E 139 80 48 3a
        E 78 90 48 5e
        E 553 80 48 38
        E 244 90 45 51
        E 97 80 45 31
        E 61 90 46 6a
        E 271 80 46 33
        E 52 90 45 62
        E 127 80 45 22
        E 54 90 44 63
        E 286 80 44 16
        E 18 90 45 5c
        E 121 80 45 2b
        E 67 90 44 63
        E 230 80 44 2b
        E 59 90 45 5f
        E 131 80 45 2a
        E 55 90 46 69
        E 258 80 46 01
        E 42 90 45 5f
        E 80 80 45 31
        E 93 90 45 66
        E 469 80 45 01
        E 6 90 4a 61
        E 589 80 4a 2d
        E 115 90 48 60
        E 183 80 48 04
        E 43 90 46 5f
        E 220 80 46 28
        E 8 90 43 65
        E 159 80 43 2c
        E 104 90 43 6d
        E 472 80 43 34
        E 19 90 41 57
        E 600 80 41 32
        E 141 90 40 5e
        E 209 80 40 21
        E 19 90 41 64
        E 170 80 41 21
        E 63 90 43 6d
        E 204 80 43 28
        E 34 90 46 65
        E 180 80 46 40
        E 64 90 45 61
        E 211 80 45 16
        E 23 90 40 5f
        E 223 80 40 28
        E 19 90 41 57
        E 163 80 41 27
        E 64 90 3d 55
        E 194 80 3d 17
        E 51 90 3e 51
        E 217 80 3e 0d
        E 30 90 46 6a
        E 213 80 46 4a
        E 32 90 43 68
        E 153 80 43 39
        E 85 90 43 69
        E 429 80 43 0a
        E 44 90 41 5b
        E 619 80 41 3d
        E 126 90 43 6c
        E 212 80 43 33
        E 16 90 45 66
        E 171 80 45 24
        E 66 90 46 69
        E 173 80 46 28
        E 71 90 47 5d
        E 219 80 47 36
        E 22 90 48 57
        E 224 80 48 26
        E 22 90 45 61
        E 219 80 45 29
        E 13 90 41 5e
        E 238 80 41 37
        E 22 90 3e 60
        E 609 80 3e 01
        E 93 90 46 68
        E 206 80 46 36
        E 37 90 45 61
        E 430 80 45 0f
        E 42 90 41 68
        E 275 80 41 29
        E 41 90 3e 52
        E 120 80 3e 35
        E 33 90 3c 61
        E 462 80 3c 23
        E 6 90 3e 64
        E 282 80 3e 01
        E 40 90 40 5a
        E 131 80 40 1a
        E 65 90 41 5f
        E 1925 80 41 20
        E 401 90 43 68
        E 56 90 41 59
        E 10 80 43 4e
        E 175 90 40 56
        E 2 80 41 36
        E 125 90 41 51
        E 33 80 40 25
        E 115 80 41 49
        E 9 90 46 61
        E 54 90 45 60
        E 11 80 46 4a
        E 118 90 44 5d
        E 1 80 45 3d
        E 175 90 45 5d
        E 37 80 44 27
        E 59 80 45 36
        E 51 90 4a 5d
        E 53 90 48 5e
        E 13 80 4a 4d
        E 112 80 48 47
        E 7 90 47 47
        E 163 90 48 5d
        E 20 80 47 21
        E 155 80 48 3b
        E 6 90 4d 61
        E 376 80 4d 20
        E 523 90 4d 65
        E 505 80 4d 54
        E 370 90 41 68
        E 54 80 41 4e
        E 59 90 41 6a
        E 1451 80 41 66
        E 456 b0 7b 00
        GUID {1C480D0D-1ABA-014F-95AD-CCB991B3E266}
        IGNTEMPO 0 120 4 4
        SRCCOLOR 969
        VELLANE -1 86 6
      >
    >
    <ITEM
      POSITION 0
      SNAPOFFS 0
      LENGTH 113
      LOOP 1
      ALLTAKES 0
      FADEIN 1 0 0 1 0 0
      FADEOUT 1 0 0 1 0 0
      MUTE 0
      SEL 0
      YPOS 0.597403 0.103896
      IGUID {4F66035E-D926-6E45-A542-8F92AF7842A6}
      IID 16
      NAME "trombone(s) - National_Anthems_-_Brazil.mid"
      VOLPAN 1 0 1 -1
      SOFFS 0 0
      PLAYRATE 1 1 0 -1 0 0.0025
      CHANMODE 0
      TAKECOLOR 26173599 B
      GUID {A5887554-9BA7-6243-8BC4-2F0AE477BA92}
      <SOURCE MIDI
        HASDATA 1 480 QN
        POOLEDEVTS {705EA34A-D8DA-C749-A3BD-9063BA979B3B}
        <X 0 0 0 0 3 trombone(s)
          /wN0cm9tYm9uZShzKQ==
        >
        <X 0 0 0 0 4 "Sound Canvas"
          /wRTb3VuZCBDYW52YXM=
        >
        E 335 92 30 66
        E 54 82 30 50
        E 68 92 30 65
        E 78 92 32 61
        E 12 82 30 51
        E 68 92 30 65
        E 17 82 32 48
        E 71 92 2f 66
        E 2 82 30 4f
        E 88 92 30 63
        E 17 82 2f 3e
        E 129 82 30 4e
        E 5 92 35 66
        E 190 82 35 38
        E 160 92 35 6d
        E 48 82 35 54
        E 66 92 35 6b
        E 65 92 37 58
        E 15 82 35 58
        E 68 92 35 6a
        E 18 82 37 41
        E 62 92 34 66
        E 2 82 35 54
        E 86 92 35 65
        E 15 82 34 44
        E 127 82 35 51
        E 16 92 39 65
        E 183 82 39 2f
        E 163 92 39 65
        E 39 82 39 4b
        E 72 92 39 68
        E 80 92 3a 68
        E 5 82 39 42
        E 81 92 39 5f
        E 10 82 3a 46
        E 75 92 38 68
        E 5 82 39 4d
        E 98 92 39 5a
        E 1 82 38 34
        E 149 82 39 45
        E 22 92 3c 61
        E 203 82 3c 26
        E 268 92 35 67
        E 2 92 30 5c
        E 939 82 35 4b
        E 28 82 30 4a
        E 500 92 3c 4e
        E 6 92 39 59
        E 232 82 3c 01
        E 26 82 39 01
        E 219 92 3c 4c
        E 3 92 39 53
        E 191 82 39 1f
        E 9 82 3c 2e
        E 262 92 3c 52
        E 0 92 39 50
        E 172 82 39 46
        E 46 82 3c 32
        E 247 92 41 4c
        E 3 92 3c 50
        E 177 82 3c 1b
        E 111 82 41 01
        E 193 92 3c 53
        E 264 82 3c 01
        E 209 92 3c 4f
        E 431 82 3c 01
        E 378 92 32 63
        E 49 82 32 4e
        E 85 92 32 65
        E 78 92 34 60
        E 4 82 32 4f
        E 79 92 32 61
        E 12 82 34 43
        E 64 82 32 47
        E 2 92 31 67
        E 103 92 32 5d
        E 25 82 31 01
        E 143 82 32 4b
        E 2 92 37 5b
        E 157 82 37 1c
        E 183 92 37 5e
        E 44 82 37 49
        E 76 92 37 5e
        E 64 92 39 5a
        E 9 82 37 4a
        E 82 92 37 5f
        E 6 82 39 45
        E 74 82 37 42
        E 4 92 36 69
        E 92 92 37 55
        E 27 82 36 26
        E 136 82 37 22
        E 7 92 3a 62
        E 135 82 3a 36
        E 191 92 3a 66
        E 43 82 3a 4a
        E 70 92 3a 67
        E 83 82 3a 46
        E 2 92 3c 5c
        E 83 92 3a 6a
        E 21 82 3c 40
        E 53 82 3a 3c
        E 14 92 39 62
        E 86 92 3a 6b
        E 20 82 39 44
        E 124 82 3a 49
        E 12 92 3e 62
        E 189 82 3e 29
        E 302 92 37 53
        E 4 92 32 53
        E 913 82 37 45
        E 5 82 32 55
        E 513 92 3c 54
        E 2 92 37 53
        E 133 82 37 17
        E 6 82 3c 1e
        E 334 92 3c 4d
        E 1 92 37 4d
        E 161 82 3c 23
        E 40 82 37 0d
        E 283 92 3c 50
        E 1 92 34 4d
        E 190 82 3c 01
        E 36 82 34 0e
        E 267 92 34 51
        E 5 92 3c 50
        E 216 82 3c 01
        E 27 82 34 3b
        E 229 92 3c 50
        E 349 82 3c 01
        E 155 92 3c 51
        E 432 82 3c 2f
        E 357 92 30 5e
        E 45 82 30 4b
        E 87 92 30 60
        E 76 92 32 59
        E 5 82 30 4a
        E 82 92 30 61
        E 14 82 32 41
        E 70 82 30 42
        E 4 92 2f 63
        E 89 92 30 5b
        E 10 82 2f 43
        E 96 82 30 44
        E 64 92 35 56
        E 9 92 30 43
        E 278 82 35 30
        E 84 82 30 01
        E 112 92 3c 51
        E 350 82 3c 01
        E 141 92 39 54
        E 293 82 39 0b
        E 194 92 30 50
        E 347 82 30 14
        E 105 92 35 50
        E 362 82 35 44
        E 142 92 3e 51
        E 396 82 3e 01
        E 116 92 3a 4f
        E 293 82 3a 1d
        E 174 92 37 48
        E 328 82 37 01
        E 126 92 37 48
        E 280 82 37 49
        E 202 92 40 53
        E 353 82 40 01
        E 145 92 3c 4d
        E 318 82 3c 01
        E 157 92 39 50
        E 337 82 39 2b
        E 137 92 39 4d
        E 344 82 39 2d
        E 141 92 3a 49
        E 264 82 3a 20
        E 221 92 3a 48
        E 268 82 3a 27
        E 215 92 3c 4f
        E 301 82 3c 1d
        E 160 92 3c 4a
        E 224 82 3c 29
        E 236 92 3e 49
        E 812 82 3e 0b
        E 169 92 40 55
        E 216 82 40 0f
        E 52 92 3e 53
        E 113 82 3e 28
        E 70 92 35 57
        E 21 92 39 50
        E 318 82 35 01
        E 9 82 39 12
        E 636 92 30 46
        E 395 82 30 3b
        E 566 92 35 5c
        E 189 82 35 4b
        E 275 92 29 53
        E 198 82 29 28
        E 290 92 29 48
        E 205 82 29 01
        E 279 92 29 3e
        E 243 82 29 05
        E 220 92 29 47
        E 227 82 29 01
        E 232 92 29 3a
        E 207 82 29 15
        E 292 92 29 3f
        E 203 82 29 01
        E 272 92 29 40
        E 266 82 29 01
        E 235 92 29 44
        E 208 82 29 01
        E 271 92 29 40
        E 195 82 29 04
        E 278 92 29 49
        E 236 82 29 01
        E 237 92 29 42
        E 249 82 29 01
        E 245 92 29 43
        E 244 82 29 0d
        E 250 92 29 40
        E 251 82 29 01
        E 222 92 29 48
        E 190 82 29 2b
        E 274 92 29 4e
        E 174 82 29 2c
        E 289 92 28 58
        E 166 82 28 1d
        E 313 92 28 4f
        E 206 82 28 0f
        E 283 92 28 54
        E 195 82 28 01
        E 307 92 28 4e
        E 190 82 28 1f
        E 279 92 28 51
        E 204 82 28 17
        E 271 92 28 52
        E 189 82 28 01
        E 271 92 28 53
        E 178 82 28 19
        E 311 92 28 4f
        E 173 82 28 18
        E 335 92 28 4d
        E 173 82 28 26
        E 301 92 28 56
        E 179 82 28 1b
        E 288 92 28 52
        E 189 82 28 17
        E 305 92 28 50
        E 203 82 28 2e
        E 270 92 28 56
        E 177 82 28 29
        E 295 92 28 53
        E 222 82 28 01
        E 254 92 28 4f
        E 236 82 28 0c
        E 250 92 28 57
        E 163 82 28 2a
        E 306 92 29 51
        E 211 82 29 14
        E 284 92 29 4e
        E 157 82 29 11
        E 315 92 29 52
        E 442 82 29 2e
        E 758 92 39 5b
        E 70 82 39 3b
        E 61 92 39 5f
        E 64 82 39 41
        E 57 92 39 62
        E 86 82 39 39
        E 153 92 39 55
        E 92 82 39 38
        E 149 92 39 4f
        E 502 82 39 3c
        E 937 92 3e 5a
        E 334 82 3e 01
        E 143 92 37 4e
        E 527 82 37 51
        E 400 92 39 52
        E 198 82 39 29
        E 294 92 39 4d
        E 194 82 39 21
        E 286 92 39 4c
        E 187 82 39 1c
        E 303 92 39 4e
        E 213 82 39 0b
        E 519 92 32 5b
        E 128 82 32 0e
        E 122 92 39 58
        E 114 82 39 28
        E 122 92 35 63
        E 131 82 35 31
        E 129 92 32 50
        E 493 82 32 3f
        E 677 92 37 51
        E 65 82 37 37
        E 55 92 37 58
        E 65 82 37 3e
        E 53 92 37 5e
        E 84 82 37 3d
        E 145 92 37 50
        E 94 82 37 2e
        E 138 92 37 4e
        E 452 82 37 43
        E 1029 92 3c 4b
        E 269 82 3c 08
        E 184 92 35 58
        E 479 82 35 4e
        E 457 92 37 43
        E 205 82 37 24
        E 293 92 37 3d
        E 205 82 37 32
        E 281 92 37 49
        E 187 82 37 0c
        E 276 92 37 4b
        E 201 82 37 1c
        E 285 92 30 48
        E 225 82 30 14
        E 238 92 37 3e
        E 485 82 37 01
        E 267 92 30 46
        E 161 82 30 27
        E 87 92 34 4c
        E 167 82 34 13
        E 52 92 37 37
        E 72 82 37 40
        E 172 92 3a 2b
        E 1 92 34 50
        E 5 92 37 4b
        E 61 82 37 18
        E 4 82 34 26
        E 15 82 3a 28
        E 141 92 3a 4a
        E 13 92 37 4e
        E 1 92 34 5b
        E 58 82 37 17
        E 7 82 34 3b
        E 4 82 3a 14
        E 157 92 3a 43
        E 5 92 34 5c
        E 1 92 37 50
        E 72 82 37 10
        E 1 82 34 35
        E 6 82 3a 10
        E 152 92 3a 45
        E 8 92 37 4d
        E 1 92 34 58
        E 69 82 37 01
        E 1 82 34 2d
        E 7 82 3a 1f
        E 145 92 3a 4c
        E 6 92 37 4d
        E 0 92 34 58
        E 79 82 37 0f
        E 1 82 34 33
        E 6 82 3a 1e
        E 141 92 3a 4c
        E 4 92 37 50
        E 4 92 34 5c
        E 71 82 34 2e
        E 5 82 37 15
        E 2 82 3a 0f
        E 154 92 3a 4a
        E 3 92 34 5c
        E 1 92 37 4f
        E 81 82 3a 1b
        E 4 82 34 37
        E 0 82 37 24
        E 153 92 3a 4b
        E 2 92 34 58
        E 0 92 37 4d
        E 83 82 37 14
        E 2 82 34 38
        E 3 82 3a 12
        E 162 92 37 49
        E 10 92 3a 3d
        E 482 82 37 4a
        E 0 82 3a 3a
        E 1451 92 3c 43
        E 3 92 39 50
        E 161 82 39 01
        E 7 82 3c 01
        E 309 92 3c 2f
        E 2 92 39 42
        E 139 82 39 01
        E 32 82 3c 01
        E 293 92 3c 30
        E 1 92 39 44
        E 160 82 39 12
        E 18 82 3c 16
        E 304 92 3c 44
        E 6 92 39 46
        E 151 82 39 01
        E 11 82 3c 01
        E 321 92 39 43
        E 2 92 3c 32
        E 128 82 39 03
        E 7 82 3c 16
        E 334 92 3c 39
        E 4 92 39 49
        E 158 82 39 01
        E 25 82 3c 01
        E 310 92 39 44
        E 2 92 3c 31
        E 136 82 39 16
        E 7 82 3c 1a
        E 329 92 39 3d
        E 0 92 3c 40
        E 136 82 39 09
        E 1 82 3c 14
        E 348 92 39 42
        E 1 92 3c 33
        E 144 82 39 01
        E 9 82 3c 19
        E 324 92 3c 40
        E 0 92 39 46
        E 125 82 39 03
        E 12 82 3c 28
        E 352 92 3c 35
        E 5 92 39 42
        E 161 82 39 01
        E 12 82 3c 01
        E 303 92 3c 38
        E 4 92 39 48
        E 120 82 39 2e
        E 25 82 3c 22
        E 319 92 3a 4d
        E 1 92 3c 32
        E 111 82 3a 29
        E 39 82 3c 1d
        E 328 92 3a 49
        E 4 92 3c 29
        E 117 82 3a 16
        E 37 82 3c 01
        E 328 92 3a 43
        E 3 92 3c 32
        E 122 82 3a 22
        E 32 82 3c 1f
        E 335 92 3c 29
        E 1 92 3a 44
        E 123 82 3a 27
        E 33 82 3c 0f
        E 318 92 3a 48
        E 4 92 3c 2c
        E 111 82 3a 1b
        E 34 82 3c 1e
        E 324 92 3a 49
        E 6 92 3c 24
        E 108 82 3a 08
        E 20 82 3c 25
        E 338 92 3a 4b
        E 11 92 3c 2e
        E 111 82 3a 07
        E 17 82 3c 07
        E 357 92 3a 50
        E 9 92 3c 2e
        E 86 82 3a 18
        E 33 82 3c 19
        E 342 92 3a 4c
        E 4 92 3c 27
        E 83 82 3a 1a
        E 28 82 3c 20
        E 361 92 3a 51
        E 7 92 3c 3a
        E 96 82 3a 10
        E 22 82 3c 22
        E 366 92 3a 58
        E 1 92 3c 42
        E 119 82 3a 01
        E 24 82 3c 17
        E 341 92 3a 56
        E 1 92 3c 3a
        E 103 82 3a 09
        E 35 82 3c 25
        E 325 92 3a 54
        E 3 92 3c 32
        E 105 82 3a 01
        E 25 82 3c 17
        E 359 92 3a 54
        E 6 92 3c 37
        E 96 82 3a 01
        E 17 82 3c 1e
        E 349 92 3a 4d
        E 10 92 3c 29
        E 108 82 3a 01
        E 18 82 3c 13
        E 335 92 3a 49
        E 4 92 3c 34
        E 121 82 3a 1a
        E 3 82 3c 19
        E 368 92 3c 39
        E 6 92 39 4d
        E 109 82 39 0a
        E 25 82 3c 1e
        E 346 92 3c 2f
        E 5 92 39 4a
        E 107 82 39 0e
        E 23 82 3c 2f
        E 332 92 3c 2f
        E 2 92 39 46
        E 438 82 39 0a
        E 5 82 3c 1f
        E 775 92 33 5a
        E 3 92 35 59
        E 77 82 33 3a
        E 13 82 35 25
        E 336 92 33 5e
        E 6 92 35 5a
        E 111 82 33 0e
        E 13 82 35 2a
        E 353 92 33 4c
        E 6 92 35 4f
        E 91 82 33 28
        E 12 82 35 16
        E 361 92 33 4e
        E 8 92 35 5c
        E 102 82 35 32
        E 6 82 33 2a
        E 385 92 32 52
        E 4 92 35 5e
        E 87 82 32 4a
        E 16 82 35 4c
        E 388 92 3a 5f
        E 4 92 3e 4c
        E 88 82 3a 37
        E 17 82 3e 1c
        E 353 92 3a 56
        E 7 92 35 60
        E 103 82 3a 22
        E 1 82 35 3f
        E 367 92 32 58
        E 7 92 35 5c
        E 105 82 32 3e
        E 2 82 35 30
        E 377 92 37 51
        E 1 92 35 5a
        E 91 82 35 39
        E 32 82 37 3e
        E 356 92 3b 4d
        E 3 92 35 58
        E 103 82 35 3e
        E 24 82 3b 2c
        E 360 92 35 53
        E 3 92 37 4d
        E 107 82 35 3d
        E 1 82 37 0a
        E 337 92 37 50
        E 1 92 35 54
        E 93 82 35 1c
        E 18 82 37 2a
        E 414 92 37 53
        E 7 92 34 5c
        E 96 82 34 48
        E 11 82 37 41
        E 360 92 40 52
        E 4 92 3c 50
        E 107 82 3c 1e
        E 13 82 40 20
        E 322 92 3c 53
        E 1 92 37 4c
        E 104 82 3c 35
        E 17 82 37 45
        E 376 92 34 53
        E 1 92 37 51
        E 96 82 37 37
        E 29 82 34 3f
        E 333 92 37 4c
        E 2 92 39 58
        E 91 82 37 41
        E 35 82 39 3b
        E 362 92 3d 5a
        E 7 92 37 4b
        E 98 82 3d 24
        E 16 82 37 2b
        E 375 92 39 50
        E 1 92 37 4a
        E 94 82 39 22
        E 14 82 37 0f
        E 369 92 39 51
        E 1 92 37 4f
        E 100 82 39 2c
        E 1 82 37 31
        E 380 92 35 61
        E 3 92 39 4f
        E 94 82 35 4b
        E 21 82 39 01
        E 359 92 3e 4c
        E 1 92 39 51
        E 79 82 39 35
        E 17 82 3e 27
        E 167 92 3a 48
        E 9 92 32 4a
        E 0 92 37 55
        E 700 82 37 16
        E 13 82 3a 1f
        E 0 82 32 43
        E 449 92 35 45
        E 1 92 39 57
        E 0 92 3c 4a
        E 45 82 39 3e
        E 6 82 35 4c
        E 4 82 3c 2e
        E 57 92 39 5c
        E 1 92 35 61
        E 0 92 3c 54
        E 45 82 39 47
        E 5 82 35 46
        E 2 82 3c 3c
        E 60 92 39 5a
        E 1 92 3c 51
        E 1 92 35 63
        E 71 82 39 2a
        E 0 82 35 3e
        E 15 82 3c 1d
        E 168 92 39 5b
        E 1 92 3c 54
        E 0 92 35 5f
        E 46 82 35 4d
        E 12 82 39 43
        E 19 82 3c 28
        E 161 92 37 4c
        E 0 92 3c 50
        E 2 92 3a 5b
        E 480 82 3a 24
        E 9 82 3c 28
        E 11 82 37 43
        E 713 92 39 4a
        E 1 92 35 5c
        E 1 92 30 4f
        E 63 82 30 27
        E 5 82 39 1f
        E 0 82 35 44
        E 155 92 39 4d
        E 2 92 35 59
        E 3 92 30 4f
        E 78 82 39 1a
        E 1 82 35 42
        E 0 82 30 24
        E 142 92 30 4f
        E 0 92 35 5d
        E 1 92 39 50
        E 56 82 30 41
        E 20 82 35 44
        E 29 82 39 15
        E 364 92 3a 50
        E 1 92 37 59
        E 2 92 32 4d
        E 79 82 37 39
        E 4 82 3a 28
        E 1 82 32 35
        E 147 92 3a 53
        E 2 92 37 51
        E 4 92 32 51
        E 82 82 37 34
        E 1 82 32 39
        E 1 82 3a 19
        E 142 92 37 52
        E 1 92 3a 52
        E 1 92 32 53
        E 76 82 32 3f
        E 3 82 37 31
        E 45 82 3a 01
        E 371 92 39 53
        E 3 92 3c 53
        E 57 82 39 47
        E 6 82 3c 2e
        E 53 92 39 60
        E 2 92 3c 52
        E 46 82 39 46
        E 14 82 3c 32
        E 49 92 39 5e
        E 1 92 3c 54
        E 81 82 39 37
        E 8 82 3c 27
        E 160 92 3c 52
        E 0 92 39 5d
        E 73 82 39 34
        E 9 82 3c 25
        E 403 92 3c 4f
        E 1 92 3a 5d
        E 71 82 3a 30
        E 13 82 3c 28
        E 146 92 3c 4d
        E 4 92 3a 61
        E 81 82 3a 36
        E 20 82 3c 1b
        E 148 92 3a 5f
        E 2 92 3c 52
        E 83 82 3a 35
        E 0 82 3c 29
        E 237 92 39 5d
        E 329 82 39 01
        E 86 92 35 56
        E 1 92 3c 52
        E 0 92 39 5e
        E 244 82 39 37
        E 118 82 35 33
        E 29 82 3c 01
        E 87 92 3a 5e
        E 347 82 3a 28
        E 151 92 3a 54
        E 4 92 3e 51
        E 2 92 37 51
        E 237 82 37 32
        E 36 82 3e 01
        E 80 82 3a 39
        E 96 92 35 5d
        E 4 92 3c 49
        E 2 92 39 57
        E 403 82 39 01
        E 78 82 3c 01
        E 21 82 35 4c
        E 459 92 3a 4e
        E 6 92 34 59
        E 456 82 34 4f
        E 27 82 3a 29
        E 495 92 39 5c
        E 3 92 3c 4f
        E 291 82 39 0c
        E 33 82 3c 18
        E 135 92 35 64
        E 354 82 35 0b
        E 129 92 39 57
        E 335 82 39 18
        E 147 92 3c 51
        E 382 82 3c 01
        E 113 92 41 5a
        E 317 82 41 0c
        E 155 92 41 55
        E 317 82 41 23
        E 166 92 3c 56
        E 266 82 3c 01
        E 185 92 39 5f
        E 306 82 39 01
        E 220 92 35 62
        E 526 82 35 47
        E 423 92 41 56
        E 2 92 3c 5a
        E 477 82 41 27
        E 5 82 3c 1a
        E 318 92 35 6a
        E 74 82 35 51
        E 86 92 35 64
        E 1454 82 35 61
        E 461 b0 7b 00
        GUID {0FA19C67-65D1-4C44-961D-F5507577D57B}
        IGNTEMPO 0 120 4 4
        SRCCOLOR 959
        VELLANE -1 86 6
      >
      TAKE
      NAME "trombone(s) - National_Anthems_-_Brazil.mid"
      TAKEVOLPAN 0 1 -1
      SOFFS 0 0
      PLAYRATE 1 1 0 -1 0 0.0025
      CHANMODE 0
      GUID {F2571776-61F1-044F-BB27-4A45B3D0019C}
      <SOURCE MIDI
        HASDATA 1 480 QN
        POOLEDEVTS {0068F09C-D12B-EC46-814D-40D4E33E9279}
        <X 0 0 0 0 3 trombone(s)
          /wN0cm9tYm9uZShzKQ==
        >
        <X 0 0 0 0 4 "Sound Canvas"
          /wRTb3VuZCBDYW52YXM=
        >
        E 335 92 30 66
        E 54 82 30 50
        E 68 92 30 65
        E 78 92 32 61
        E 12 82 30 51
        E 68 92 30 65
        E 17 82 32 48
        E 71 92 2f 66
        E 2 82 30 4f
        E 88 92 30 63
        E 17 82 2f 3e
        E 129 82 30 4e
        E 5 92 35 66
        E 190 82 35 38
        E 160 92 35 6d
        E 48 82 35 54
        E 66 92 35 6b
        E 65 92 37 58
        E 15 82 35 58
        E 68 92 35 6a
        E 18 82 37 41
        E 62 92 34 66
        E 2 82 35 54
        E 86 92 35 65
        E 15 82 34 44
        E 127 82 35 51
        E 16 92 39 65
        E 183 82 39 2f
        E 163 92 39 65
        E 39 82 39 4b
        E 72 92 39 68
        E 80 92 3a 68
        E 5 82 39 42
        E 81 92 39 5f
        E 10 82 3a 46
        E 75 92 38 68
        E 5 82 39 4d
        E 98 92 39 5a
        E 1 82 38 34
        E 149 82 39 45
        E 22 92 3c 61
        E 203 82 3c 26
        E 268 92 35 67
        E 2 92 30 5c
        E 939 82 35 4b
        E 28 82 30 4a
        E 500 92 3c 4e
        E 6 92 39 59
        E 232 82 3c 01
        E 26 82 39 01
        E 219 92 3c 4c
        E 3 92 39 53
        E 191 82 39 1f
        E 9 82 3c 2e
        E 262 92 3c 52
        E 0 92 39 50
        E 172 82 39 46
        E 46 82 3c 32
        E 247 92 41 4c
        E 3 92 3c 50
        E 177 82 3c 1b
        E 111 82 41 01
        E 193 92 3c 53
        E 264 82 3c 01
        E 209 92 3c 4f
        E 431 82 3c 01
        E 378 92 32 63
        E 49 82 32 4e
        E 85 92 32 65
        E 78 92 34 60
        E 4 82 32 4f
        E 79 92 32 61
        E 12 82 34 43
        E 64 82 32 47
        E 2 92 31 67
        E 103 92 32 5d
        E 25 82 31 01
        E 143 82 32 4b
        E 2 92 37 5b
        E 157 82 37 1c
        E 183 92 37 5e
        E 44 82 37 49
        E 76 92 37 5e
        E 64 92 39 5a
        E 9 82 37 4a
        E 82 92 37 5f
        E 6 82 39 45
        E 74 82 37 42
        E 4 92 36 69
        E 92 92 37 55
        E 27 82 36 26
        E 136 82 37 22
        E 7 92 3a 62
        E 135 82 3a 36
        E 191 92 3a 66
        E 43 82 3a 4a
        E 70 92 3a 67
        E 83 82 3a 46
        E 2 92 3c 5c
        E 83 92 3a 6a
        E 21 82 3c 40
        E 53 82 3a 3c
        E 14 92 39 62
        E 86 92 3a 6b
        E 20 82 39 44
        E 124 82 3a 49
        E 12 92 3e 62
        E 189 82 3e 29
        E 302 92 37 53
        E 4 92 32 53
        E 913 82 37 45
        E 5 82 32 55
        E 513 92 3c 54
        E 2 92 37 53
        E 133 82 37 17
        E 6 82 3c 1e
        E 334 92 3c 4d
        E 1 92 37 4d
        E 161 82 3c 23
        E 40 82 37 0d
        E 283 92 3c 50
        E 1 92 34 4d
        E 190 82 3c 01
        E 36 82 34 0e
        E 267 92 34 51
        E 5 92 3c 50
        E 216 82 3c 01
        E 27 82 34 3b
        E 229 92 3c 50
        E 349 82 3c 01
        E 155 92 3c 51
        E 432 82 3c 2f
        E 357 92 30 5e
        E 45 82 30 4b
        E 87 92 30 60
        E 76 92 32 59
        E 5 82 30 4a
        E 82 92 30 61
        E 14 82 32 41
        E 70 82 30 42
        E 4 92 2f 63
        E 89 92 30 5b
        E 10 82 2f 43
        E 96 82 30 44
        E 64 92 35 56
        E 9 92 30 43
        E 278 82 35 30
        E 84 82 30 01
        E 112 92 3c 51
        E 350 82 3c 01
        E 141 92 39 54
        E 293 82 39 0b
        E 194 92 30 50
        E 347 82 30 14
        E 105 92 35 50
        E 362 82 35 44
        E 142 92 3e 51
        E 396 82 3e 01
        E 116 92 3a 4f
        E 293 82 3a 1d
        E 174 92 37 48
        E 328 82 37 01
        E 126 92 37 48
        E 280 82 37 49
        E 202 92 40 53
        E 353 82 40 01
        E 145 92 3c 4d
        E 318 82 3c 01
        E 157 92 39 50
        E 337 82 39 2b
        E 137 92 39 4d
        E 344 82 39 2d
        E 141 92 3a 49
        E 264 82 3a 20
        E 221 92 3a 48
        E 268 82 3a 27
        E 215 92 3c 4f
        E 301 82 3c 1d
        E 160 92 3c 4a
        E 224 82 3c 29
        E 236 92 3e 49
        E 812 82 3e 0b
        E 169 92 40 55
        E 216 82 40 0f
        E 52 92 3e 53
        E 113 82 3e 28
        E 70 92 35 57
        E 21 92 39 50
        E 318 82 35 01
        E 9 82 39 12
        E 636 92 30 46
        E 395 82 30 3b
        E 566 92 35 5c
        E 189 82 35 4b
        E 275 92 29 53
        E 198 82 29 28
        E 290 92 29 48
        E 205 82 29 01
        E 279 92 29 3e
        E 243 82 29 05
        E 220 92 29 47
        E 227 82 29 01
        E 232 92 29 3a
        E 207 82 29 15
        E 292 92 29 3f
        E 203 82 29 01
        E 272 92 29 40
        E 266 82 29 01
        E 235 92 29 44
        E 208 82 29 01
        E 271 92 29 40
        E 195 82 29 04
        E 278 92 29 49
        E 236 82 29 01
        E 237 92 29 42
        E 249 82 29 01
        E 245 92 29 43
        E 244 82 29 0d
        E 250 92 29 40
        E 251 82 29 01
        E 222 92 29 48
        E 190 82 29 2b
        E 274 92 29 4e
        E 174 82 29 2c
        E 289 92 28 58
        E 166 82 28 1d
        E 313 92 28 4f
        E 206 82 28 0f
        E 283 92 28 54
        E 195 82 28 01
        E 307 92 28 4e
        E 190 82 28 1f
        E 279 92 28 51
        E 204 82 28 17
        E 271 92 28 52
        E 189 82 28 01
        E 271 92 28 53
        E 178 82 28 19
        E 311 92 28 4f
        E 173 82 28 18
        E 335 92 28 4d
        E 173 82 28 26
        E 301 92 28 56
        E 179 82 28 1b
        E 288 92 28 52
        E 189 82 28 17
        E 305 92 28 50
        E 203 82 28 2e
        E 270 92 28 56
        E 177 82 28 29
        E 295 92 28 53
        E 222 82 28 01
        E 254 92 28 4f
        E 236 82 28 0c
        E 250 92 28 57
        E 163 82 28 2a
        E 306 92 29 51
        E 211 82 29 14
        E 284 92 29 4e
        E 157 82 29 11
        E 315 92 29 52
        E 442 82 29 2e
        E 758 92 39 5b
        E 70 82 39 3b
        E 61 92 39 5f
        E 64 82 39 41
        E 57 92 39 62
        E 86 82 39 39
        E 153 92 39 55
        E 92 82 39 38
        E 149 92 39 4f
        E 502 82 39 3c
        E 937 92 3e 5a
        E 334 82 3e 01
        E 143 92 37 4e
        E 527 82 37 51
        E 400 92 39 52
        E 198 82 39 29
        E 294 92 39 4d
        E 194 82 39 21
        E 286 92 39 4c
        E 187 82 39 1c
        E 303 92 39 4e
        E 213 82 39 0b
        E 519 92 32 5b
        E 128 82 32 0e
        E 122 92 39 58
        E 114 82 39 28
        E 122 92 35 63
        E 131 82 35 31
        E 129 92 32 50
        E 493 82 32 3f
        E 677 92 37 51
        E 65 82 37 37
        E 55 92 37 58
        E 65 82 37 3e
        E 53 92 37 5e
        E 84 82 37 3d
        E 145 92 37 50
        E 94 82 37 2e
        E 138 92 37 4e
        E 452 82 37 43
        E 1029 92 3c 4b
        E 269 82 3c 08
        E 184 92 35 58
        E 479 82 35 4e
        E 457 92 37 43
        E 205 82 37 24
        E 293 92 37 3d
        E 205 82 37 32
        E 281 92 37 49
        E 187 82 37 0c
        E 276 92 37 4b
        E 201 82 37 1c
        E 285 92 30 48
        E 225 82 30 14
        E 238 92 37 3e
        E 485 82 37 01
        E 267 92 30 46
        E 161 82 30 27
        E 87 92 34 4c
        E 167 82 34 13
        E 52 92 37 37
        E 72 82 37 40
        E 172 92 3a 2b
        E 1 92 34 50
        E 5 92 37 4b
        E 61 82 37 18
        E 4 82 34 26
        E 15 82 3a 28
        E 141 92 3a 4a
        E 13 92 37 4e
        E 1 92 34 5b
        E 58 82 37 17
        E 7 82 34 3b
        E 4 82 3a 14
        E 157 92 3a 43
        E 5 92 34 5c
        E 1 92 37 50
        E 72 82 37 10
        E 1 82 34 35
        E 6 82 3a 10
        E 152 92 3a 45
        E 8 92 37 4d
        E 1 92 34 58
        E 69 82 37 01
        E 1 82 34 2d
        E 7 82 3a 1f
        E 145 92 3a 4c
        E 6 92 37 4d
        E 0 92 34 58
        E 79 82 37 0f
        E 1 82 34 33
        E 6 82 3a 1e
        E 141 92 3a 4c
        E 4 92 37 50
        E 4 92 34 5c
        E 71 82 34 2e
        E 5 82 37 15
        E 2 82 3a 0f
        E 154 92 3a 4a
        E 3 92 34 5c
        E 1 92 37 4f
        E 81 82 3a 1b
        E 4 82 34 37
        E 0 82 37 24
        E 153 92 3a 4b
        E 2 92 34 58
        E 0 92 37 4d
        E 83 82 37 14
        E 2 82 34 38
        E 3 82 3a 12
        E 162 92 37 49
        E 10 92 3a 3d
        E 482 82 37 4a
        E 0 82 3a 3a
        E 1451 92 3c 43
        E 3 92 39 50
        E 161 82 39 01
        E 7 82 3c 01
        E 309 92 3c 2f
        E 2 92 39 42
        E 139 82 39 01
        E 32 82 3c 01
        E 293 92 3c 30
        E 1 92 39 44
        E 160 82 39 12
        E 18 82 3c 16
        E 304 92 3c 44
        E 6 92 39 46
        E 151 82 39 01
        E 11 82 3c 01
        E 321 92 39 43
        E 2 92 3c 32
        E 128 82 39 03
        E 7 82 3c 16
        E 334 92 3c 39
        E 4 92 39 49
        E 158 82 39 01
        E 25 82 3c 01
        E 310 92 39 44
        E 2 92 3c 31
        E 136 82 39 16
        E 7 82 3c 1a
        E 329 92 39 3d
        E 0 92 3c 40
        E 136 82 39 09
        E 1 82 3c 14
        E 348 92 39 42
        E 1 92 3c 33
        E 144 82 39 01
        E 9 82 3c 19
        E 324 92 3c 40
        E 0 92 39 46
        E 125 82 39 03
        E 12 82 3c 28
        E 352 92 3c 35
        E 5 92 39 42
        E 161 82 39 01
        E 12 82 3c 01
        E 303 92 3c 38
        E 4 92 39 48
        E 120 82 39 2e
        E 25 82 3c 22
        E 319 92 3a 4d
        E 1 92 3c 32
        E 111 82 3a 29
        E 39 82 3c 1d
        E 328 92 3a 49
        E 4 92 3c 29
        E 117 82 3a 16
        E 37 82 3c 01
        E 328 92 3a 43
        E 3 92 3c 32
        E 122 82 3a 22
        E 32 82 3c 1f
        E 335 92 3c 29
        E 1 92 3a 44
        E 123 82 3a 27
        E 33 82 3c 0f
        E 318 92 3a 48
        E 4 92 3c 2c
        E 111 82 3a 1b
        E 34 82 3c 1e
        E 324 92 3a 49
        E 6 92 3c 24
        E 108 82 3a 08
        E 20 82 3c 25
        E 338 92 3a 4b
        E 11 92 3c 2e
        E 111 82 3a 07
        E 17 82 3c 07
        E 357 92 3a 50
        E 9 92 3c 2e
        E 86 82 3a 18
        E 33 82 3c 19
        E 342 92 3a 4c
        E 4 92 3c 27
        E 83 82 3a 1a
        E 28 82 3c 20
        E 361 92 3a 51
        E 7 92 3c 3a
        E 96 82 3a 10
        E 22 82 3c 22
        E 366 92 3a 58
        E 1 92 3c 42
        E 119 82 3a 01
        E 24 82 3c 17
        E 341 92 3a 56
        E 1 92 3c 3a
        E 103 82 3a 09
        E 35 82 3c 25
        E 325 92 3a 54
        E 3 92 3c 32
        E 105 82 3a 01
        E 25 82 3c 17
        E 359 92 3a 54
        E 6 92 3c 37
        E 96 82 3a 01
        E 17 82 3c 1e
        E 349 92 3a 4d
        E 10 92 3c 29
        E 108 82 3a 01
        E 18 82 3c 13
        E 335 92 3a 49
        E 4 92 3c 34
        E 121 82 3a 1a
        E 3 82 3c 19
        E 368 92 3c 39
        E 6 92 39 4d
        E 109 82 39 0a
        E 25 82 3c 1e
        E 346 92 3c 2f
        E 5 92 39 4a
        E 107 82 39 0e
        E 23 82 3c 2f
        E 332 92 3c 2f
        E 2 92 39 46
        E 438 82 39 0a
        E 5 82 3c 1f
        E 775 92 33 5a
        E 3 92 35 59
        E 77 82 33 3a
        E 13 82 35 25
        E 336 92 33 5e
        E 6 92 35 5a
        E 111 82 33 0e
        E 13 82 35 2a
        E 353 92 33 4c
        E 6 92 35 4f
        E 91 82 33 28
        E 12 82 35 16
        E 361 92 33 4e
        E 8 92 35 5c
        E 102 82 35 32
        E 6 82 33 2a
        E 385 92 32 52
        E 4 92 35 5e
        E 87 82 32 4a
        E 16 82 35 4c
        E 388 92 3a 5f
        E 4 92 3e 4c
        E 88 82 3a 37
        E 17 82 3e 1c
        E 353 92 3a 56
        E 7 92 35 60
        E 103 82 3a 22
        E 1 82 35 3f
        E 367 92 32 58
        E 7 92 35 5c
        E 105 82 32 3e
        E 2 82 35 30
        E 377 92 37 51
        E 1 92 35 5a
        E 91 82 35 39
        E 32 82 37 3e
        E 356 92 3b 4d
        E 3 92 35 58
        E 103 82 35 3e
        E 24 82 3b 2c
        E 360 92 35 53
        E 3 92 37 4d
        E 107 82 35 3d
        E 1 82 37 0a
        E 337 92 37 50
        E 1 92 35 54
        E 93 82 35 1c
        E 18 82 37 2a
        E 414 92 37 53
        E 7 92 34 5c
        E 96 82 34 48
        E 11 82 37 41
        E 360 92 40 52
        E 4 92 3c 50
        E 107 82 3c 1e
        E 13 82 40 20
        E 322 92 3c 53
        E 1 92 37 4c
        E 104 82 3c 35
        E 17 82 37 45
        E 376 92 34 53
        E 1 92 37 51
        E 96 82 37 37
        E 29 82 34 3f
        E 333 92 37 4c
        E 2 92 39 58
        E 91 82 37 41
        E 35 82 39 3b
        E 362 92 3d 5a
        E 7 92 37 4b
        E 98 82 3d 24
        E 16 82 37 2b
        E 375 92 39 50
        E 1 92 37 4a
        E 94 82 39 22
        E 14 82 37 0f
        E 369 92 39 51
        E 1 92 37 4f
        E 100 82 39 2c
        E 1 82 37 31
        E 380 92 35 61
        E 3 92 39 4f
        E 94 82 35 4b
        E 21 82 39 01
        E 359 92 3e 4c
        E 1 92 39 51
        E 79 82 39 35
        E 17 82 3e 27
        E 167 92 3a 48
        E 9 92 32 4a
        E 0 92 37 55
        E 700 82 37 16
        E 13 82 3a 1f
        E 0 82 32 43
        E 449 92 35 45
        E 1 92 39 57
        E 0 92 3c 4a
        E 45 82 39 3e
        E 6 82 35 4c
        E 4 82 3c 2e
        E 57 92 39 5c
        E 1 92 35 61
        E 0 92 3c 54
        E 45 82 39 47
        E 5 82 35 46
        E 2 82 3c 3c
        E 60 92 39 5a
        E 1 92 3c 51
        E 1 92 35 63
        E 71 82 39 2a
        E 0 82 35 3e
        E 15 82 3c 1d
        E 168 92 39 5b
        E 1 92 3c 54
        E 0 92 35 5f
        E 46 82 35 4d
        E 12 82 39 43
        E 19 82 3c 28
        E 161 92 37 4c
        E 0 92 3c 50
        E 2 92 3a 5b
        E 480 82 3a 24
        E 9 82 3c 28
        E 11 82 37 43
        E 713 92 39 4a
        E 1 92 35 5c
        E 1 92 30 4f
        E 63 82 30 27
        E 5 82 39 1f
        E 0 82 35 44
        E 155 92 39 4d
        E 2 92 35 59
        E 3 92 30 4f
        E 78 82 39 1a
        E 1 82 35 42
        E 0 82 30 24
        E 142 92 30 4f
        E 0 92 35 5d
        E 1 92 39 50
        E 56 82 30 41
        E 20 82 35 44
        E 29 82 39 15
        E 364 92 3a 50
        E 1 92 37 59
        E 2 92 32 4d
        E 79 82 37 39
        E 4 82 3a 28
        E 1 82 32 35
        E 147 92 3a 53
        E 2 92 37 51
        E 4 92 32 51
        E 82 82 37 34
        E 1 82 32 39
        E 1 82 3a 19
        E 142 92 37 52
        E 1 92 3a 52
        E 1 92 32 53
        E 76 82 32 3f
        E 3 82 37 31
        E 45 82 3a 01
        E 371 92 39 53
        E 3 92 3c 53
        E 57 82 39 47
        E 6 82 3c 2e
        E 53 92 39 60
        E 2 92 3c 52
        E 46 82 39 46
        E 14 82 3c 32
        E 49 92 39 5e
        E 1 92 3c 54
        E 81 82 39 37
        E 8 82 3c 27
        E 160 92 3c 52
        E 0 92 39 5d
        E 73 82 39 34
        E 9 82 3c 25
        E 403 92 3c 4f
        E 1 92 3a 5d
        E 71 82 3a 30
        E 13 82 3c 28
        E 146 92 3c 4d
        E 4 92 3a 61
        E 81 82 3a 36
        E 20 82 3c 1b
        E 148 92 3a 5f
        E 2 92 3c 52
        E 83 82 3a 35
        E 0 82 3c 29
        E 237 92 39 5d
        E 329 82 39 01
        E 86 92 35 56
        E 1 92 3c 52
        E 0 92 39 5e
        E 244 82 39 37
        E 118 82 35 33
        E 29 82 3c 01
        E 87 92 3a 5e
        E 347 82 3a 28
        E 151 92 3a 54
        E 4 92 3e 51
        E 2 92 37 51
        E 237 82 37 32
        E 36 82 3e 01
        E 80 82 3a 39
        E 96 92 35 5d
        E 4 92 3c 49
        E 2 92 39 57
        E 403 82 39 01
        E 78 82 3c 01
        E 21 82 35 4c
        E 459 92 3a 4e
        E 6 92 34 59
        E 456 82 34 4f
        E 27 82 3a 29
        E 495 92 39 5c
        E 3 92 3c 4f
        E 291 82 39 0c
        E 33 82 3c 18
        E 135 92 35 64
        E 354 82 35 0b
        E 129 92 39 57
        E 335 82 39 18
        E 147 92 3c 51
        E 382 82 3c 01
        E 113 92 41 5a
        E 317 82 41 0c
        E 155 92 41 55
        E 317 82 41 23
        E 166 92 3c 56
        E 266 82 3c 01
        E 185 92 39 5f
        E 306 82 39 01
        E 220 92 35 62
        E 526 82 35 47
        E 423 92 41 56
        E 2 92 3c 5a
        E 477 82 41 27
        E 5 82 3c 1a
        E 318 92 35 6a
        E 74 82 35 51
        E 86 92 35 64
        E 1454 82 35 61
        E 461 b0 7b 00
        GUID {1AD72172-51A4-2945-B27A-99E5C2723562}
        IGNTEMPO 0 120 4 4
        SRCCOLOR 971
        VELLANE -1 86 6
      >
    >
    <ITEM
      POSITION 0
      SNAPOFFS 0
      LENGTH 113
      LOOP 1
      ALLTAKES 0
      FADEIN 1 0 0 1 0 0
      FADEOUT 1 0 0 1 0 0
      MUTE 0
      SEL 0
      YPOS 0 0.103896
      IGUID {F6348AFC-7CE7-1141-9696-288CFA8C5252}
      IID 14
      NAME "trumpet(s) - National_Anthems_-_Brazil.mid"
      VOLPAN 1 0 1 -1
      SOFFS 0 0
      PLAYRATE 1 1 0 -1 0 0.0025
      CHANMODE 0
      TAKECOLOR 26173599 B
      GUID {DFF244CD-339D-6A44-8896-7889D4BED93F}
      <SOURCE MIDI
        HASDATA 1 480 QN
        POOLEDEVTS {2AA2D837-F1D2-4C41-84D0-872CAF35B0DB}
        <X 0 0 0 0 3 trumpet(s)
          /wN0cnVtcGV0KHMp
        >
        <X 0 0 0 0 4 "Sound Canvas"
          /wRTb3VuZCBDYW52YXM=
        >
        E 321 90 3c 54
        E 60 80 3c 40
        E 82 90 3c 62
        E 74 90 3e 5a
        E 2 80 3c 47
        E 65 90 3c 50
        E 15 80 3e 3c
        E 75 80 3c 4a
        E 4 90 3b 51
        E 98 90 3c 52
        E 11 80 3b 23
        E 124 90 41 63
        E 4 80 3c 43
        E 156 80 41 3c
        E 180 90 41 61
        E 64 80 41 45
        E 59 90 41 62
        E 99 90 43 67
        E 12 80 41 4e
        E 71 90 41 5b
        E 8 80 43 4d
        E 75 90 40 59
        E 8 80 41 4b
        E 77 90 41 63
        E 27 80 40 3b
        E 103 80 41 47
        E 4 90 45 67
        E 186 80 45 29
        E 177 90 45 5d
        E 63 80 45 3c
        E 71 90 45 5b
        E 70 90 46 67
        E 3 80 45 44
        E 82 90 45 5d
        E 17 80 46 34
        E 64 90 44 66
        E 5 80 45 43
        E 93 90 45 62
        E 27 80 44 33
        E 97 80 45 3f
        E 10 90 48 63
        E 222 80 48 2c
        E 255 90 4d 67
        E 810 80 4d 39
        E 219 90 3c 5e
        E 166 80 3c 20
        E 135 90 3c 51
        E 97 80 3c 20
        E 66 90 41 64
        E 168 80 41 1b
        E 135 90 40 4d
        E 113 80 40 01
        E 43 90 43 6c
        E 223 80 43 26
        E 85 90 41 5a
        E 144 80 41 2d
        E 28 90 45 62
        E 207 80 45 09
        E 94 90 43 63
        E 119 80 43 22
        E 43 90 46 66
        E 244 80 46 32
        E 54 90 45 56
        E 106 80 45 27
        E 61 90 42 5e
        E 499 90 43 66
        E 28 80 42 25
        E 613 80 43 51
        E 190 90 3e 5c
        E 73 80 3e 36
        E 66 90 3e 59
        E 79 90 40 4f
        E 2 80 3e 2e
        E 75 90 3e 5b
        E 6 80 40 40
        E 83 90 3d 5f
        E 3 80 3e 38
        E 95 90 3e 60
        E 12 80 3d 47
        E 126 90 43 6c
        E 11 80 3e 39
        E 177 80 43 2d
        E 147 90 43 6a
        E 63 80 43 46
        E 70 90 43 68
        E 93 80 43 4c
        E 1 90 45 53
        E 74 90 43 64
        E 11 80 45 43
        E 77 90 42 5a
        E 5 80 43 4f
        E 78 90 43 67
        E 32 80 42 2c
        E 76 80 43 30
        E 16 90 46 68
        E 212 80 46 38
        E 122 90 46 65
        E 72 80 46 4d
        E 68 90 46 69
        E 87 80 46 4d
        E 10 90 48 5c
        E 48 90 46 63
        E 19 80 48 4e
        E 75 90 45 57
        E 21 80 46 3f
        E 85 90 46 69
        E 41 80 45 28
        E 88 80 46 34
        E 51 90 4a 66
        E 197 80 4a 36
        E 287 90 4f 63
        E 754 80 4f 44
        E 200 90 4f 60
        E 213 90 4d 60
        E 3 80 4f 3d
        E 142 80 4d 2b
        E 60 90 4f 53
        E 36 90 4d 58
        E 18 80 4f 4c
        E 243 90 4c 5a
        E 1 80 4d 41
        E 138 80 4c 1a
        E 75 90 4d 58
        E 44 90 4c 5e
        E 20 80 4d 48
        E 215 90 4a 5d
        E 2 80 4c 48
        E 98 80 4a 36
        E 100 90 4c 3c
        E 37 90 4a 53
        E 28 80 4c 38
        E 223 90 48 5b
        E 3 80 4a 40
        E 114 80 48 2b
        E 73 90 4a 55
        E 54 90 48 56
        E 21 80 4a 48
        E 207 90 46 65
        E 12 80 48 28
        E 128 80 46 45
        E 128 90 43 59
        E 486 90 45 4e
        E 12 80 43 2f
        E 581 80 45 40
        E 180 90 3c 5e
        E 81 80 3c 44
        E 77 90 3c 5d
        E 69 90 3e 58
        E 2 80 3c 4a
        E 67 90 3c 58
        E 16 80 3e 3e
        E 67 80 3c 49
        E 2 90 3b 4f
        E 82 90 3c 58
        E 17 80 3b 36
        E 125 90 41 60
        E 1 80 3c 42
        E 190 80 41 2c
        E 133 90 41 56
        E 73 80 41 3f
        E 89 90 41 5f
        E 81 90 43 63
        E 5 80 41 47
        E 66 90 41 59
        E 15 80 43 49
        E 67 90 40 54
        E 9 80 41 47
        E 94 90 41 5f
        E 20 80 40 37
        E 124 90 45 64
        E 4 80 41 42
        E 217 80 45 3d
        E 118 90 41 5d
        E 72 80 41 34
        E 83 90 41 57
        E 69 90 43 5b
        E 3 80 41 43
        E 67 90 41 59
        E 12 80 43 48
        E 79 90 40 59
        E 7 80 41 47
        E 93 90 41 5b
        E 40 80 40 2a
        E 108 80 41 43
        E 3 90 3e 60
        E 194 80 3e 2e
        E 145 90 43 6a
        E 81 80 43 4c
        E 86 90 43 69
        E 73 80 43 4b
        E 4 90 45 50
        E 77 90 43 65
        E 8 80 45 3b
        E 81 80 43 49
        E 3 90 42 55
        E 94 90 43 5d
        E 24 80 42 2c
        E 86 80 43 1f
        E 4 90 46 63
        E 216 80 46 47
        E 119 90 43 6a
        E 63 80 43 4b
        E 76 90 43 67
        E 84 80 43 47
        E 7 90 45 57
        E 73 90 43 67
        E 8 80 45 43
        E 72 80 43 42
        E 3 90 42 5b
        E 101 90 43 65
        E 10 80 42 43
        E 103 80 43 48
        E 6 90 40 53
        E 239 80 40 27
        E 107 90 45 59
        E 73 80 45 45
        E 86 90 45 5b
        E 87 90 46 5f
        E 6 80 45 3c
        E 56 80 46 41
        E 5 90 45 4b
        E 73 90 44 5d
        E 7 80 45 44
        E 94 90 45 5e
        E 20 80 44 3e
        E 84 80 45 35
        E 16 90 48 62
        E 200 80 48 34
        E 134 90 45 61
        E 56 80 45 3d
        E 76 90 45 5d
        E 82 90 46 62
        E 1 80 45 47
        E 79 90 45 59
        E 19 80 46 38
        E 69 90 44 53
        E 8 80 45 2b
        E 114 90 45 5b
        E 17 80 44 4b
        E 114 80 45 36
        E 9 90 41 62
        E 237 80 41 3a
        E 128 90 46 68
        E 67 80 46 4b
        E 74 90 46 6a
        E 69 80 46 4b
        E 12 90 48 53
        E 61 90 46 67
        E 14 80 48 4e
        E 63 90 45 51
        E 4 80 46 45
        E 86 90 46 65
        E 43 80 45 2a
        E 71 80 46 40
        E 33 90 48 63
        E 228 80 48 40
        E 114 90 48 5b
        E 61 80 48 4a
        E 80 90 48 61
        E 80 90 4a 59
        E 5 80 48 47
        E 65 90 48 57
        E 10 80 4a 4c
        E 82 90 47 5f
        E 12 80 48 48
        E 106 90 48 63
        E 8 80 47 40
        E 116 90 45 63
        E 2 80 48 4a
        E 277 80 45 0c
        E 174 90 4d 5d
        E 868 80 4d 2c
        E 97 90 4c 60
        E 262 80 4c 34
        E 53 90 4a 5a
        E 92 80 4a 1c
        E 90 90 48 5f
        E 589 80 48 48
        E 351 90 40 63
        E 769 80 40 21
        E 186 90 41 58
        E 907 80 41 47
        E 553 90 3c 64
        E 378 80 3c 24
        E 75 90 41 64
        E 303 80 41 1c
        E 48 90 40 54
        E 120 80 40 2d
        E 40 90 41 67
        E 231 80 41 29
        E 67 90 43 6b
        E 122 80 43 35
        E 55 90 45 62
        E 292 80 45 01
        E 44 90 43 67
        E 150 80 43 2d
        E 26 90 45 68
        E 224 80 45 26
        E 74 90 46 67
        E 116 80 46 3c
        E 61 90 47 62
        E 671 80 47 08
        E 38 90 48 63
        E 226 80 48 4f
        E 11 90 41 65
        E 390 80 41 16
        E 87 90 3c 63
        E 383 80 3c 27
        E 97 90 41 63
        E 267 80 41 2d
        E 62 90 40 57
        E 131 80 40 22
        E 32 90 43 6c
        E 265 80 43 04
        E 54 90 41 52
        E 128 80 41 2c
        E 18 90 45 65
        E 282 80 45 22
        E 27 90 43 62
        E 138 80 43 40
        E 25 90 46 6a
        E 308 80 46 11
        E 13 90 45 54
        E 100 80 45 36
        E 69 90 42 61
        E 449 80 42 26
        E 24 90 43 6c
        E 765 80 43 48
        E 193 90 3c 61
        E 358 80 3c 03
        E 103 90 43 6d
        E 281 80 43 1f
        E 45 90 42 5e
        E 127 80 42 2e
        E 42 90 43 6d
        E 237 80 43 2e
        E 80 90 45 5a
        E 131 80 45 2b
        E 39 90 46 65
        E 288 80 46 39
        E 31 90 45 5c
        E 135 80 45 29
        E 33 90 46 6a
        E 238 80 46 35
        E 64 90 48 56
        E 121 80 48 27
        E 53 90 49 65
        E 694 80 49 01
        E 19 90 4a 64
        E 215 80 4a 20
        E 29 90 43 6d
        E 356 80 43 1f
        E 112 90 3c 5c
        E 408 80 3c 01
        E 68 90 43 6d
        E 281 80 43 2c
        E 47 90 42 58
        E 140 80 42 2e
        E 28 90 45 66
        E 262 80 45 03
        E 63 90 43 66
        E 144 80 43 45
        E 6 90 46 65
        E 306 80 46 4d
        E 13 90 45 56
        E 136 80 45 13
        E 39 90 48 61
        E 274 80 48 46
        E 7 90 46 63
        E 171 80 46 52
        E 26 90 44 65
        E 463 80 44 44
        E 6 90 45 64
        E 791 80 45 37
        E 178 90 45 68
        E 259 80 45 2f
        E 71 90 45 62
        E 110 80 45 20
        E 39 90 46 6a
        E 489 90 45 61
        E 14 80 46 26
        E 584 80 45 29
        E 97 90 45 62
        E 168 80 45 27
        E 76 90 46 69
        E 308 80 46 30
        E 37 90 45 64
        E 68 80 45 3f
        E 71 90 45 66
        E 451 80 45 01
        E 38 90 4a 60
        E 816 80 4a 17
        E 109 90 48 60
        E 217 80 48 01
        E 34 90 46 63
        E 142 80 46 3b
        E 92 90 46 6a
        E 226 80 46 2f
        E 22 90 45 62
        E 181 80 45 34
        E 68 90 45 62
        E 212 80 45 31
        E 26 90 43 67
        E 158 80 43 3d
        E 75 90 43 6a
        E 223 80 43 43
        E 14 90 41 58
        E 163 80 41 31
        E 78 90 41 61
        E 226 80 41 34
        E 28 90 40 5b
        E 140 80 40 2d
        E 101 90 40 61
        E 482 80 40 46
        E 5 90 3e 5d
        E 862 80 3e 01
        E 123 90 43 6d
        E 239 80 43 33
        E 95 90 43 6b
        E 97 80 43 36
        E 46 90 45 68
        E 445 80 45 41
        E 13 90 43 69
        E 606 80 43 38
        E 116 90 43 67
        E 188 80 43 2a
        E 48 90 45 64
        E 293 80 45 14
        E 52 90 43 6b
        E 81 80 43 43
        E 63 90 43 69
        E 474 90 48 65
        E 9 80 43 2f
        E 791 80 48 2a
        E 130 90 47 62
        E 234 80 47 34
        E 14 90 45 60
        E 230 80 45 01
        E 35 90 45 60
        E 240 80 45 3c
        E 6 90 43 66
        E 143 80 43 20
        E 94 90 43 6a
        E 209 80 43 47
        E 17 90 41 58
        E 152 80 41 39
        E 79 90 41 62
        E 236 90 40 58
        E 5 80 41 39
        E 157 80 40 30
        E 74 90 40 5f
        E 235 90 3e 61
        E 3 80 40 42
        E 148 80 3e 37
        E 96 90 3c 62
        E 406 80 3c 1c
        E 94 90 3c 5f
        E 582 80 3c 15
        E 145 90 3c 60
        E 207 80 3c 01
        E 35 90 40 65
        E 175 80 40 35
        E 41 90 43 6d
        E 163 80 43 34
        E 81 90 46 6a
        E 189 80 46 33
        E 55 90 3c 56
        E 173 80 3c 0d
        E 40 90 40 5e
        E 176 80 40 30
        E 53 90 43 6a
        E 183 80 43 39
        E 55 90 46 6b
        E 162 80 46 37
        E 92 90 3c 5a
        E 195 80 3c 0f
        E 33 90 40 60
        E 195 80 40 36
        E 54 90 43 6c
        E 178 80 43 2a
        E 84 90 46 68
        E 1285 80 46 28
        E 183 90 3c 60
        E 376 80 3c 01
        E 65 90 41 62
        E 304 80 41 23
        E 47 90 40 56
        E 99 80 40 24
        E 58 90 41 68
        E 235 80 41 1b
        E 85 90 43 68
        E 143 80 43 24
        E 32 90 45 61
        E 274 80 45 1f
        E 47 90 43 6a
        E 147 80 43 38
        E 16 90 45 64
        E 200 80 45 22
        E 93 90 46 63
        E 108 80 46 3a
        E 73 90 47 65
        E 649 80 47 08
        E 52 90 48 63
        E 204 80 48 2a
        E 37 90 41 66
        E 405 80 41 0b
        E 78 90 3c 5e
        E 433 80 3c 20
        E 62 90 41 65
        E 304 80 41 25
        E 22 90 40 51
        E 138 80 40 1d
        E 21 90 43 6c
        E 266 80 43 25
        E 43 90 41 5a
        E 123 80 41 21
        E 46 90 45 64
        E 266 80 45 13
        E 42 90 43 60
        E 134 80 43 3a
        E 33 90 46 68
        E 294 80 46 27
        E 21 90 45 52
        E 110 80 45 2c
        E 54 90 42 63
        E 465 80 42 24
        E 14 90 43 68
        E 730 80 43 38
        E 218 90 3c 5f
        E 394 80 3c 13
        E 74 90 43 6b
        E 245 80 43 0b
        E 71 90 42 5d
        E 142 80 42 2a
        E 26 90 43 6c
        E 284 80 43 01
        E 47 90 45 63
        E 146 80 45 27
        E 36 90 46 66
        E 240 80 46 3d
        E 61 90 45 64
        E 135 80 45 22
        E 32 90 46 69
        E 263 80 46 33
        E 32 90 48 5a
        E 114 80 48 2b
        E 69 90 49 5f
        E 699 80 49 1e
        E 16 90 4a 61
        E 194 80 4a 1b
        E 53 90 43 6c
        E 379 80 43 1c
        E 108 90 3c 5a
        E 373 80 3c 01
        E 100 90 43 6e
        E 295 80 43 41
        E 17 90 42 56
        E 116 80 42 1e
        E 46 90 45 66
        E 286 80 45 27
        E 9 90 43 5f
        E 135 80 43 30
        E 34 90 46 6a
        E 324 80 46 3a
        E 7 90 45 55
        E 123 80 45 25
        E 43 90 48 64
        E 249 80 48 01
        E 46 90 46 62
        E 123 80 46 24
        E 55 90 44 5d
        E 497 90 45 60
        E 9 80 44 13
        E 732 80 45 25
        E 509 90 41 51
        E 110 80 41 35
        E 67 90 43 6c
        E 292 80 43 38
        E 36 90 41 4d
        E 144 80 41 31
        E 28 90 40 63
        E 267 80 40 0c
        E 22 90 41 51
        E 142 80 41 23
        E 45 90 40 5f
        E 279 80 40 01
        E 11 90 41 5e
        E 142 80 41 29
        E 38 90 43 6a
        E 284 80 43 21
        E 26 90 41 52
        E 84 80 41 38
        E 92 90 41 63
        E 698 90 46 55
        E 28 80 41 28
        E 136 80 46 39
        E 65 90 46 67
        E 656 80 46 20
        E 188 90 43 69
        E 104 80 43 3e
        E 58 90 45 64
        E 255 80 45 2c
        E 29 90 43 66
        E 164 80 43 06
        E 14 90 42 5e
        E 248 80 42 34
        E 32 90 43 6a
        E 124 80 43 48
        E 70 90 42 66
        E 255 80 42 2e
        E 40 90 43 6a
        E 125 80 43 2a
        E 44 90 45 62
        E 220 80 45 22
        E 135 90 43 6b
        E 103 80 43 3d
        E 26 90 43 6e
        E 706 90 48 5c
        E 23 80 43 01
        E 139 80 48 3a
        E 78 90 48 5e
        E 553 80 48 38
        E 244 90 45 51
        E 97 80 45 31
        E 61 90 46 6a
        E 271 80 46 33
        E 52 90 45 62
        E 127 80 45 22
        E 54 90 44 63
        E 286 80 44 16
        E 18 90 45 5c
        E 121 80 45 2b
        E 67 90 44 63
        E 230 80 44 2b
        E 59 90 45 5f
        E 131 80 45 2a
        E 55 90 46 69
        E 258 80 46 01
        E 42 90 45 5f
        E 80 80 45 31
        E 93 90 45 66
        E 469 80 45 01
        E 6 90 4a 61
        E 589 80 4a 2d
        E 115 90 48 60
        E 183 80 48 04
        E 43 90 46 5f
        E 220 80 46 28
        E 8 90 43 65
        E 159 80 43 2c
        E 104 90 43 6d
        E 472 80 43 34
        E 19 90 41 57
        E 600 80 41 32
        E 141 90 40 5e
        E 209 80 40 21
        E 19 90 41 64
        E 170 80 41 21
        E 63 90 43 6d
        E 204 80 43 28
        E 34 90 46 65
        E 180 80 46 40
        E 64 90 45 61
        E 211 80 45 16
        E 23 90 40 5f
        E 223 80 40 28
        E 19 90 41 57
        E 163 80 41 27
        E 64 90 3d 55
        E 194 80 3d 17
        E 51 90 3e 51
        E 217 80 3e 0d
        E 30 90 46 6a
        E 213 80 46 4a
        E 32 90 43 68
        E 153 80 43 39
        E 85 90 43 69
        E 429 80 43 0a
        E 44 90 41 5b
        E 619 80 41 3d
        E 126 90 43 6c
        E 212 80 43 33
        E 16 90 45 66
        E 171 80 45 24
        E 66 90 46 69
        E 173 80 46 28
        E 71 90 47 5d
        E 219 80 47 36
        E 22 90 48 57
        E 224 80 48 26
        E 22 90 45 61
        E 219 80 45 29
        E 13 90 41 5e
        E 238 80 41 37
        E 22 90 3e 60
        E 609 80 3e 01
        E 93 90 46 68
        E 206 80 46 36
        E 37 90 45 61
        E 430 80 45 0f
        E 42 90 41 68
        E 275 80 41 29
        E 41 90 3e 52
        E 120 80 3e 35
        E 33 90 3c 61
        E 462 80 3c 23
        E 6 90 3e 64
        E 282 80 3e 01
        E 40 90 40 5a
        E 131 80 40 1a
        E 65 90 41 5f
        E 1925 80 41 20
        E 401 90 43 68
        E 56 90 41 59
        E 10 80 43 4e
        E 175 90 40 56
        E 2 80 41 36
        E 125 90 41 51
        E 33 80 40 25
        E 115 80 41 49
        E 9 90 46 61
        E 54 90 45 60
        E 11 80 46 4a
        E 118 90 44 5d
        E 1 80 45 3d
        E 175 90 45 5d
        E 37 80 44 27
        E 59 80 45 36
        E 51 90 4a 5d
        E 53 90 48 5e
        E 13 80 4a 4d
        E 112 80 48 47
        E 7 90 47 47
        E 163 90 48 5d
        E 20 80 47 21
        E 155 80 48 3b
        E 6 90 4d 61
        E 376 80 4d 20
        E 523 90 4d 65
        E 505 80 4d 54
        E 370 90 41 68
        E 54 80 41 4e
        E 59 90 41 6a
        E 1451 80 41 66
        E 456 b0 7b 00
        GUID {F244318C-CB32-6847-B6A7-E6A3225CAB2C}
        IGNTEMPO 0 120 4 4
        SRCCOLOR 957
        VELLANE -1 86 6
      >
      TAKE
      NAME "trumpet(s) - National_Anthems_-_Brazil.mid"
      TAKEVOLPAN 0 1 -1
      SOFFS 0 0
      PLAYRATE 1 1 0 -1 0 0.0025
      CHANMODE 0
      GUID {B6872174-5935-944E-9AB8-44944FDF6C45}
      <SOURCE MIDI
        HASDATA 1 480 QN
        POOLEDEVTS {C66E1A1F-B707-2041-9CD7-716DE8B0D581}
        <X 0 0 0 0 3 trumpet(s)
          /wN0cnVtcGV0KHMp
        >
        <X 0 0 0 0 4 "Sound Canvas"
          /wRTb3VuZCBDYW52YXM=
        >
        E 321 90 3c 54
        E 60 80 3c 40
        E 82 90 3c 62
        E 74 90 3e 5a
        E 2 80 3c 47
        E 65 90 3c 50
        E 15 80 3e 3c
        E 75 80 3c 4a
        E 4 90 3b 51
        E 98 90 3c 52
        E 11 80 3b 23
        E 124 90 41 63
        E 4 80 3c 43
        E 156 80 41 3c
        E 180 90 41 61
        E 64 80 41 45
        E 59 90 41 62
        E 99 90 43 67
        E 12 80 41 4e
        E 71 90 41 5b
        E 8 80 43 4d
        E 75 90 40 59
        E 8 80 41 4b
        E 77 90 41 63
        E 27 80 40 3b
        E 103 80 41 47
        E 4 90 45 67
        E 186 80 45 29
        E 177 90 45 5d
        E 63 80 45 3c
        E 71 90 45 5b
        E 70 90 46 67
        E 3 80 45 44
        E 82 90 45 5d
        E 17 80 46 34
        E 64 90 44 66
        E 5 80 45 43
        E 93 90 45 62
        E 27 80 44 33
        E 97 80 45 3f
        E 10 90 48 63
        E 222 80 48 2c
        E 255 90 4d 67
        E 810 80 4d 39
        E 219 90 3c 5e
        E 166 80 3c 20
        E 135 90 3c 51
        E 97 80 3c 20
        E 66 90 41 64
        E 168 80 41 1b
        E 135 90 40 4d
        E 113 80 40 01
        E 43 90 43 6c
        E 223 80 43 26
        E 85 90 41 5a
        E 144 80 41 2d
        E 28 90 45 62
        E 207 80 45 09
        E 94 90 43 63
        E 119 80 43 22
        E 43 90 46 66
        E 244 80 46 32
        E 54 90 45 56
        E 106 80 45 27
        E 61 90 42 5e
        E 499 90 43 66
        E 28 80 42 25
        E 613 80 43 51
        E 190 90 3e 5c
        E 73 80 3e 36
        E 66 90 3e 59
        E 79 90 40 4f
        E 2 80 3e 2e
        E 75 90 3e 5b
        E 6 80 40 40
        E 83 90 3d 5f
        E 3 80 3e 38
        E 95 90 3e 60
        E 12 80 3d 47
        E 126 90 43 6c
        E 11 80 3e 39
        E 177 80 43 2d
        E 147 90 43 6a
        E 63 80 43 46
        E 70 90 43 68
        E 93 80 43 4c
        E 1 90 45 53
        E 74 90 43 64
        E 11 80 45 43
        E 77 90 42 5a
        E 5 80 43 4f
        E 78 90 43 67
        E 32 80 42 2c
        E 76 80 43 30
        E 16 90 46 68
        E 212 80 46 38
        E 122 90 46 65
        E 72 80 46 4d
        E 68 90 46 69
        E 87 80 46 4d
        E 10 90 48 5c
        E 48 90 46 63
        E 19 80 48 4e
        E 75 90 45 57
        E 21 80 46 3f
        E 85 90 46 69
        E 41 80 45 28
        E 88 80 46 34
        E 51 90 4a 66
        E 197 80 4a 36
        E 287 90 4f 63
        E 754 80 4f 44
        E 200 90 4f 60
        E 213 90 4d 60
        E 3 80 4f 3d
        E 142 80 4d 2b
        E 60 90 4f 53
        E 36 90 4d 58
        E 18 80 4f 4c
        E 243 90 4c 5a
        E 1 80 4d 41
        E 138 80 4c 1a
        E 75 90 4d 58
        E 44 90 4c 5e
        E 20 80 4d 48
        E 215 90 4a 5d
        E 2 80 4c 48
        E 98 80 4a 36
        E 100 90 4c 3c
        E 37 90 4a 53
        E 28 80 4c 38
        E 223 90 48 5b
        E 3 80 4a 40
        E 114 80 48 2b
        E 73 90 4a 55
        E 54 90 48 56
        E 21 80 4a 48
        E 207 90 46 65
        E 12 80 48 28
        E 128 80 46 45
        E 128 90 43 59
        E 486 90 45 4e
        E 12 80 43 2f
        E 581 80 45 40
        E 180 90 3c 5e
        E 81 80 3c 44
        E 77 90 3c 5d
        E 69 90 3e 58
        E 2 80 3c 4a
        E 67 90 3c 58
        E 16 80 3e 3e
        E 67 80 3c 49
        E 2 90 3b 4f
        E 82 90 3c 58
        E 17 80 3b 36
        E 125 90 41 60
        E 1 80 3c 42
        E 190 80 41 2c
        E 133 90 41 56
        E 73 80 41 3f
        E 89 90 41 5f
        E 81 90 43 63
        E 5 80 41 47
        E 66 90 41 59
        E 15 80 43 49
        E 67 90 40 54
        E 9 80 41 47
        E 94 90 41 5f
        E 20 80 40 37
        E 124 90 45 64
        E 4 80 41 42
        E 217 80 45 3d
        E 118 90 41 5d
        E 72 80 41 34
        E 83 90 41 57
        E 69 90 43 5b
        E 3 80 41 43
        E 67 90 41 59
        E 12 80 43 48
        E 79 90 40 59
        E 7 80 41 47
        E 93 90 41 5b
        E 40 80 40 2a
        E 108 80 41 43
        E 3 90 3e 60
        E 194 80 3e 2e
        E 145 90 43 6a
        E 81 80 43 4c
        E 86 90 43 69
        E 73 80 43 4b
        E 4 90 45 50
        E 77 90 43 65
        E 8 80 45 3b
        E 81 80 43 49
        E 3 90 42 55
        E 94 90 43 5d
        E 24 80 42 2c
        E 86 80 43 1f
        E 4 90 46 63
        E 216 80 46 47
        E 119 90 43 6a
        E 63 80 43 4b
        E 76 90 43 67
        E 84 80 43 47
        E 7 90 45 57
        E 73 90 43 67
        E 8 80 45 43
        E 72 80 43 42
        E 3 90 42 5b
        E 101 90 43 65
        E 10 80 42 43
        E 103 80 43 48
        E 6 90 40 53
        E 239 80 40 27
        E 107 90 45 59
        E 73 80 45 45
        E 86 90 45 5b
        E 87 90 46 5f
        E 6 80 45 3c
        E 56 80 46 41
        E 5 90 45 4b
        E 73 90 44 5d
        E 7 80 45 44
        E 94 90 45 5e
        E 20 80 44 3e
        E 84 80 45 35
        E 16 90 48 62
        E 200 80 48 34
        E 134 90 45 61
        E 56 80 45 3d
        E 76 90 45 5d
        E 82 90 46 62
        E 1 80 45 47
        E 79 90 45 59
        E 19 80 46 38
        E 69 90 44 53
        E 8 80 45 2b
        E 114 90 45 5b
        E 17 80 44 4b
        E 114 80 45 36
        E 9 90 41 62
        E 237 80 41 3a
        E 128 90 46 68
        E 67 80 46 4b
        E 74 90 46 6a
        E 69 80 46 4b
        E 12 90 48 53
        E 61 90 46 67
        E 14 80 48 4e
        E 63 90 45 51
        E 4 80 46 45
        E 86 90 46 65
        E 43 80 45 2a
        E 71 80 46 40
        E 33 90 48 63
        E 228 80 48 40
        E 114 90 48 5b
        E 61 80 48 4a
        E 80 90 48 61
        E 80 90 4a 59
        E 5 80 48 47
        E 65 90 48 57
        E 10 80 4a 4c
        E 82 90 47 5f
        E 12 80 48 48
        E 106 90 48 63
        E 8 80 47 40
        E 116 90 45 63
        E 2 80 48 4a
        E 277 80 45 0c
        E 174 90 4d 5d
        E 868 80 4d 2c
        E 97 90 4c 60
        E 262 80 4c 34
        E 53 90 4a 5a
        E 92 80 4a 1c
        E 90 90 48 5f
        E 589 80 48 48
        E 351 90 40 63
        E 769 80 40 21
        E 186 90 41 58
        E 907 80 41 47
        E 553 90 3c 64
        E 378 80 3c 24
        E 75 90 41 64
        E 303 80 41 1c
        E 48 90 40 54
        E 120 80 40 2d
        E 40 90 41 67
        E 231 80 41 29
        E 67 90 43 6b
        E 122 80 43 35
        E 55 90 45 62
        E 292 80 45 01
        E 44 90 43 67
        E 150 80 43 2d
        E 26 90 45 68
        E 224 80 45 26
        E 74 90 46 67
        E 116 80 46 3c
        E 61 90 47 62
        E 671 80 47 08
        E 38 90 48 63
        E 226 80 48 4f
        E 11 90 41 65
        E 390 80 41 16
        E 87 90 3c 63
        E 383 80 3c 27
        E 97 90 41 63
        E 267 80 41 2d
        E 62 90 40 57
        E 131 80 40 22
        E 32 90 43 6c
        E 265 80 43 04
        E 54 90 41 52
        E 128 80 41 2c
        E 18 90 45 65
        E 282 80 45 22
        E 27 90 43 62
        E 138 80 43 40
        E 25 90 46 6a
        E 308 80 46 11
        E 13 90 45 54
        E 100 80 45 36
        E 69 90 42 61
        E 449 80 42 26
        E 24 90 43 6c
        E 765 80 43 48
        E 193 90 3c 61
        E 358 80 3c 03
        E 103 90 43 6d
        E 281 80 43 1f
        E 45 90 42 5e
        E 127 80 42 2e
        E 42 90 43 6d
        E 237 80 43 2e
        E 80 90 45 5a
        E 131 80 45 2b
        E 39 90 46 65
        E 288 80 46 39
        E 31 90 45 5c
        E 135 80 45 29
        E 33 90 46 6a
        E 238 80 46 35
        E 64 90 48 56
        E 121 80 48 27
        E 53 90 49 65
        E 694 80 49 01
        E 19 90 4a 64
        E 215 80 4a 20
        E 29 90 43 6d
        E 356 80 43 1f
        E 112 90 3c 5c
        E 408 80 3c 01
        E 68 90 43 6d
        E 281 80 43 2c
        E 47 90 42 58
        E 140 80 42 2e
        E 28 90 45 66
        E 262 80 45 03
        E 63 90 43 66
        E 144 80 43 45
        E 6 90 46 65
        E 306 80 46 4d
        E 13 90 45 56
        E 136 80 45 13
        E 39 90 48 61
        E 274 80 48 46
        E 7 90 46 63
        E 171 80 46 52
        E 26 90 44 65
        E 463 80 44 44
        E 6 90 45 64
        E 791 80 45 37
        E 178 90 45 68
        E 259 80 45 2f
        E 71 90 45 62
        E 110 80 45 20
        E 39 90 46 6a
        E 489 90 45 61
        E 14 80 46 26
        E 584 80 45 29
        E 97 90 45 62
        E 168 80 45 27
        E 76 90 46 69
        E 308 80 46 30
        E 37 90 45 64
        E 68 80 45 3f
        E 71 90 45 66
        E 451 80 45 01
        E 38 90 4a 60
        E 816 80 4a 17
        E 109 90 48 60
        E 217 80 48 01
        E 34 90 46 63
        E 142 80 46 3b
        E 92 90 46 6a
        E 226 80 46 2f
        E 22 90 45 62
        E 181 80 45 34
        E 68 90 45 62
        E 212 80 45 31
        E 26 90 43 67
        E 158 80 43 3d
        E 75 90 43 6a
        E 223 80 43 43
        E 14 90 41 58
        E 163 80 41 31
        E 78 90 41 61
        E 226 80 41 34
        E 28 90 40 5b
        E 140 80 40 2d
        E 101 90 40 61
        E 482 80 40 46
        E 5 90 3e 5d
        E 862 80 3e 01
        E 123 90 43 6d
        E 239 80 43 33
        E 95 90 43 6b
        E 97 80 43 36
        E 46 90 45 68
        E 445 80 45 41
        E 13 90 43 69
        E 606 80 43 38
        E 116 90 43 67
        E 188 80 43 2a
        E 48 90 45 64
        E 293 80 45 14
        E 52 90 43 6b
        E 81 80 43 43
        E 63 90 43 69
        E 474 90 48 65
        E 9 80 43 2f
        E 791 80 48 2a
        E 130 90 47 62
        E 234 80 47 34
        E 14 90 45 60
        E 230 80 45 01
        E 35 90 45 60
        E 240 80 45 3c
        E 6 90 43 66
        E 143 80 43 20
        E 94 90 43 6a
        E 209 80 43 47
        E 17 90 41 58
        E 152 80 41 39
        E 79 90 41 62
        E 236 90 40 58
        E 5 80 41 39
        E 157 80 40 30
        E 74 90 40 5f
        E 235 90 3e 61
        E 3 80 40 42
        E 148 80 3e 37
        E 96 90 3c 62
        E 406 80 3c 1c
        E 94 90 3c 5f
        E 582 80 3c 15
        E 145 90 3c 60
        E 207 80 3c 01
        E 35 90 40 65
        E 175 80 40 35
        E 41 90 43 6d
        E 163 80 43 34
        E 81 90 46 6a
        E 189 80 46 33
        E 55 90 3c 56
        E 173 80 3c 0d
        E 40 90 40 5e
        E 176 80 40 30
        E 53 90 43 6a
        E 183 80 43 39
        E 55 90 46 6b
        E 162 80 46 37
        E 92 90 3c 5a
        E 195 80 3c 0f
        E 33 90 40 60
        E 195 80 40 36
        E 54 90 43 6c
        E 178 80 43 2a
        E 84 90 46 68
        E 1285 80 46 28
        E 183 90 3c 60
        E 376 80 3c 01
        E 65 90 41 62
        E 304 80 41 23
        E 47 90 40 56
        E 99 80 40 24
        E 58 90 41 68
        E 235 80 41 1b
        E 85 90 43 68
        E 143 80 43 24
        E 32 90 45 61
        E 274 80 45 1f
        E 47 90 43 6a
        E 147 80 43 38
        E 16 90 45 64
        E 200 80 45 22
        E 93 90 46 63
        E 108 80 46 3a
        E 73 90 47 65
        E 649 80 47 08
        E 52 90 48 63
        E 204 80 48 2a
        E 37 90 41 66
        E 405 80 41 0b
        E 78 90 3c 5e
        E 433 80 3c 20
        E 62 90 41 65
        E 304 80 41 25
        E 22 90 40 51
        E 138 80 40 1d
        E 21 90 43 6c
        E 266 80 43 25
        E 43 90 41 5a
        E 123 80 41 21
        E 46 90 45 64
        E 266 80 45 13
        E 42 90 43 60
        E 134 80 43 3a
        E 33 90 46 68
        E 294 80 46 27
        E 21 90 45 52
        E 110 80 45 2c
        E 54 90 42 63
        E 465 80 42 24
        E 14 90 43 68
        E 730 80 43 38
        E 218 90 3c 5f
        E 394 80 3c 13
        E 74 90 43 6b
        E 245 80 43 0b
        E 71 90 42 5d
        E 142 80 42 2a
        E 26 90 43 6c
        E 284 80 43 01
        E 47 90 45 63
        E 146 80 45 27
        E 36 90 46 66
        E 240 80 46 3d
        E 61 90 45 64
        E 135 80 45 22
        E 32 90 46 69
        E 263 80 46 33
        E 32 90 48 5a
        E 114 80 48 2b
        E 69 90 49 5f
        E 699 80 49 1e
        E 16 90 4a 61
        E 194 80 4a 1b
        E 53 90 43 6c
        E 379 80 43 1c
        E 108 90 3c 5a
        E 373 80 3c 01
        E 100 90 43 6e
        E 295 80 43 41
        E 17 90 42 56
        E 116 80 42 1e
        E 46 90 45 66
        E 286 80 45 27
        E 9 90 43 5f
        E 135 80 43 30
        E 34 90 46 6a
        E 324 80 46 3a
        E 7 90 45 55
        E 123 80 45 25
        E 43 90 48 64
        E 249 80 48 01
        E 46 90 46 62
        E 123 80 46 24
        E 55 90 44 5d
        E 497 90 45 60
        E 9 80 44 13
        E 732 80 45 25
        E 509 90 41 51
        E 110 80 41 35
        E 67 90 43 6c
        E 292 80 43 38
        E 36 90 41 4d
        E 144 80 41 31
        E 28 90 40 63
        E 267 80 40 0c
        E 22 90 41 51
        E 142 80 41 23
        E 45 90 40 5f
        E 279 80 40 01
        E 11 90 41 5e
        E 142 80 41 29
        E 38 90 43 6a
        E 284 80 43 21
        E 26 90 41 52
        E 84 80 41 38
        E 92 90 41 63
        E 698 90 46 55
        E 28 80 41 28
        E 136 80 46 39
        E 65 90 46 67
        E 656 80 46 20
        E 188 90 43 69
        E 104 80 43 3e
        E 58 90 45 64
        E 255 80 45 2c
        E 29 90 43 66
        E 164 80 43 06
        E 14 90 42 5e
        E 248 80 42 34
        E 32 90 43 6a
        E 124 80 43 48
        E 70 90 42 66
        E 255 80 42 2e
        E 40 90 43 6a
        E 125 80 43 2a
        E 44 90 45 62
        E 220 80 45 22
        E 135 90 43 6b
        E 103 80 43 3d
        E 26 90 43 6e
        E 706 90 48 5c
        E 23 80 43 01
        E 139 80 48 3a
        E 78 90 48 5e
        E 553 80 48 38
        E 244 90 45 51
        E 97 80 45 31
        E 61 90 46 6a
        E 271 80 46 33
        E 52 90 45 62
        E 127 80 45 22
        E 54 90 44 63
        E 286 80 44 16
        E 18 90 45 5c
        E 121 80 45 2b
        E 67 90 44 63
        E 230 80 44 2b
        E 59 90 45 5f
        E 131 80 45 2a
        E 55 90 46 69
        E 258 80 46 01
        E 42 90 45 5f
        E 80 80 45 31
        E 93 90 45 66
        E 469 80 45 01
        E 6 90 4a 61
        E 589 80 4a 2d
        E 115 90 48 60
        E 183 80 48 04
        E 43 90 46 5f
        E 220 80 46 28
        E 8 90 43 65
        E 159 80 43 2c
        E 104 90 43 6d
        E 472 80 43 34
        E 19 90 41 57
        E 600 80 41 32
        E 141 90 40 5e
        E 209 80 40 21
        E 19 90 41 64
        E 170 80 41 21
        E 63 90 43 6d
        E 204 80 43 28
        E 34 90 46 65
        E 180 80 46 40
        E 64 90 45 61
        E 211 80 45 16
        E 23 90 40 5f
        E 223 80 40 28
        E 19 90 41 57
        E 163 80 41 27
        E 64 90 3d 55
        E 194 80 3d 17
        E 51 90 3e 51
        E 217 80 3e 0d
        E 30 90 46 6a
        E 213 80 46 4a
        E 32 90 43 68
        E 153 80 43 39
        E 85 90 43 69
        E 429 80 43 0a
        E 44 90 41 5b
        E 619 80 41 3d
        E 126 90 43 6c
        E 212 80 43 33
        E 16 90 45 66
        E 171 80 45 24
        E 66 90 46 69
        E 173 80 46 28
        E 71 90 47 5d
        E 219 80 47 36
        E 22 90 48 57
        E 224 80 48 26
        E 22 90 45 61
        E 219 80 45 29
        E 13 90 41 5e
        E 238 80 41 37
        E 22 90 3e 60
        E 609 80 3e 01
        E 93 90 46 68
        E 206 80 46 36
        E 37 90 45 61
        E 430 80 45 0f
        E 42 90 41 68
        E 275 80 41 29
        E 41 90 3e 52
        E 120 80 3e 35
        E 33 90 3c 61
        E 462 80 3c 23
        E 6 90 3e 64
        E 282 80 3e 01
        E 40 90 40 5a
        E 131 80 40 1a
        E 65 90 41 5f
        E 1925 80 41 20
        E 401 90 43 68
        E 56 90 41 59
        E 10 80 43 4e
        E 175 90 40 56
        E 2 80 41 36
        E 125 90 41 51
        E 33 80 40 25
        E 115 80 41 49
        E 9 90 46 61
        E 54 90 45 60
        E 11 80 46 4a
        E 118 90 44 5d
        E 1 80 45 3d
        E 175 90 45 5d
        E 37 80 44 27
        E 59 80 45 36
        E 51 90 4a 5d
        E 53 90 48 5e
        E 13 80 4a 4d
        E 112 80 48 47
        E 7 90 47 47
        E 163 90 48 5d
        E 20 80 47 21
        E 155 80 48 3b
        E 6 90 4d 61
        E 376 80 4d 20
        E 523 90 4d 65
        E 505 80 4d 54
        E 370 90 41 68
        E 54 80 41 4e
        E 59 90 41 6a
        E 1451 80 41 66
        E 456 b0 7b 00
        GUID {1C480D0D-1ABA-014F-95AD-CCB991B3E266}
        IGNTEMPO 0 120 4 4
        SRCCOLOR 969
        VELLANE -1 86 6
      >
    >
    <ITEM
      POSITION 0
      SNAPOFFS 0
      LENGTH 112.5
      LOOP 1
      ALLTAKES 0
      FADEIN 1 0 0 1 0 0
      FADEOUT 1 0 0 1 0 0
      MUTE 0
      SEL 0
      YPOS 0.896104 0.103896
      IGUID {F0B84A4D-8F8A-F740-B9D5-A9BF62970509}
      IID 17
      NAME "tuba(s) - National_Anthems_-_Brazil.mid"
      VOLPAN 1 0 1 -1
      SOFFS 0 0
      PLAYRATE 1 1 0 -1 0 0.0025
      CHANMODE 0
      TAKECOLOR 26173599 B
      GUID {6034B0A4-12E4-F446-8902-2245F712001B}
      <SOURCE MIDI
        HASDATA 1 480 QN
        POOLEDEVTS {B4E2F7FD-1586-BD4D-8F52-D9D4C1B86EBE}
        <X 0 0 0 0 3 tuba(s)
          /wN0dWJhKHMp
        >
        <X 0 0 0 0 4 "Sound Canvas"
          /wRTb3VuZCBDYW52YXM=
        >
        E 335 93 24 64
        E 55 83 24 4e
        E 93 93 24 64
        E 84 93 26 60
        E 9 83 24 52
        E 79 93 24 62
        E 13 83 26 40
        E 66 83 24 47
        E 3 93 23 65
        E 85 93 24 5f
        E 16 83 23 46
        E 124 83 24 4d
        E 2 93 29 67
        E 175 83 29 4c
        E 136 93 29 6a
        E 50 83 29 53
        E 94 93 29 68
        E 60 93 2b 5c
        E 14 83 29 58
        E 69 93 29 6b
        E 42 83 2b 01
        E 30 83 29 49
        E 7 93 28 60
        E 87 93 29 6a
        E 18 83 28 44
        E 117 83 29 56
        E 10 93 2d 67
        E 190 83 2d 40
        E 167 93 2d 67
        E 45 83 2d 4a
        E 79 93 2d 64
        E 87 93 2e 63
        E 3 83 2d 34
        E 89 93 2d 5f
        E 3 83 2e 4d
        E 77 93 2c 66
        E 5 83 2d 4a
        E 93 93 2d 62
        E 13 83 2c 35
        E 128 83 2d 50
        E 17 93 30 64
        E 168 83 30 4b
        E 280 93 1d 6a
        E 1084 83 1d 53
        E 421 93 29 56
        E 302 83 29 31
        E 165 93 29 57
        E 284 83 29 2b
        E 174 93 29 58
        E 266 83 29 13
        E 214 93 29 60
        E 259 83 29 2e
        E 203 93 28 53
        E 343 83 28 2b
        E 161 93 28 4b
        E 512 83 28 29
        E 271 93 26 67
        E 52 83 26 49
        E 114 93 26 64
        E 81 93 28 55
        E 2 83 26 4e
        E 85 93 26 54
        E 10 83 28 43
        E 68 93 25 66
        E 1 83 26 49
        E 102 93 26 60
        E 4 83 25 44
        E 125 83 26 49
        E 8 93 2b 58
        E 189 83 2b 12
        E 153 93 2b 5b
        E 44 83 2b 46
        E 93 93 2b 60
        E 70 93 2d 59
        E 5 83 2b 4b
        E 84 93 2b 59
        E 2 83 2d 43
        E 78 93 2a 65
        E 4 83 2b 4e
        E 104 93 2b 62
        E 3 83 2a 48
        E 121 83 2b 33
        E 19 93 2e 67
        E 148 83 2e 34
        E 215 93 2e 66
        E 58 83 2e 45
        E 62 93 2e 63
        E 73 93 30 5b
        E 1 83 2e 44
        E 93 93 2e 69
        E 23 83 30 3f
        E 59 93 2d 5e
        E 4 83 2e 44
        E 80 93 2e 69
        E 16 83 2d 41
        E 119 83 2e 4b
        E 8 93 32 55
        E 216 83 32 34
        E 257 93 1f 6a
        E 1007 83 1f 57
        E 428 93 24 53
        E 303 83 24 01
        E 184 93 24 52
        E 318 83 24 1c
        E 167 93 24 4f
        E 349 83 24 01
        E 143 93 24 52
        E 304 83 24 0b
        E 166 93 29 5e
        E 294 83 29 2d
        E 202 93 29 61
        E 528 83 29 2c
        E 248 93 24 5d
        E 67 83 24 47
        E 97 93 24 5c
        E 65 93 26 62
        E 7 83 24 4b
        E 79 93 24 50
        E 30 83 26 37
        E 57 93 23 5a
        E 13 83 24 48
        E 78 93 24 52
        E 19 83 23 42
        E 144 83 24 42
        E 0 93 1d 5c
        E 310 83 1d 36
        E 213 93 2d 4c
        E 342 83 2d 10
        E 88 93 29 64
        E 299 83 29 01
        E 169 93 1d 62
        E 289 83 1d 36
        E 22 93 1f 5b
        E 83 93 21 5c
        E 5 83 1f 45
        E 99 93 22 5f
        E 4 83 21 4a
        E 255 83 22 41
        E 220 93 2e 62
        E 374 83 2e 01
        E 138 93 2b 5a
        E 311 83 2b 1c
        E 151 93 1f 66
        E 252 83 1f 46
        E 3 93 21 55
        E 96 93 22 65
        E 14 83 21 3e
        E 83 83 22 4c
        E 0 93 24 5b
        E 258 83 24 44
        E 238 93 30 58
        E 463 83 30 01
        E 28 93 2d 58
        E 317 83 2d 22
        E 150 93 21 67
        E 251 83 21 37
        E 4 93 22 67
        E 111 93 24 55
        E 11 83 22 3c
        E 92 83 24 45
        E 1 93 26 59
        E 312 83 26 3c
        E 204 93 22 67
        E 323 93 24 57
        E 5 83 22 3b
        E 80 93 26 53
        E 19 83 24 47
        E 70 93 28 62
        E 4 83 26 50
        E 273 83 28 28
        E 186 93 24 62
        E 305 83 24 44
        E 1 93 26 53
        E 83 93 28 57
        E 18 83 26 3a
        E 69 83 28 51
        E 0 93 29 68
        E 290 83 29 3c
        E 191 93 23 66
        E 741 83 23 52
        E 194 93 34 62
        E 250 83 34 01
        E 48 93 32 5e
        E 59 83 32 34
        E 118 93 24 67
        E 382 83 24 3d
        E 586 93 18 6a
        E 529 83 18 55
        E 406 93 29 65
        E 307 83 29 01
        E 190 93 1d 60
        E 241 83 1d 10
        E 240 93 1d 5e
        E 215 83 1d 28
        E 265 93 1d 58
        E 252 83 1d 01
        E 215 93 1d 60
        E 251 83 1d 08
        E 228 93 1d 57
        E 260 83 1d 01
        E 208 93 1d 5a
        E 271 83 1d 01
        E 219 93 1d 5b
        E 295 83 1d 01
        E 197 93 1d 55
        E 298 83 1d 01
        E 195 93 1d 59
        E 221 83 1d 01
        E 236 93 1d 5b
        E 254 83 1d 01
        E 238 93 1d 58
        E 255 83 1d 04
        E 226 93 1d 55
        E 231 83 1d 1f
        E 256 93 1d 5c
        E 251 83 1d 0e
        E 220 93 1d 5c
        E 243 83 1d 1b
        E 233 93 1d 63
        E 279 83 1d 01
        E 199 93 1c 62
        E 234 83 1c 2e
        E 253 93 1c 61
        E 219 83 1c 20
        E 258 93 1c 61
        E 212 83 1c 25
        E 267 93 1c 5a
        E 230 83 1c 1c
        E 256 93 1c 62
        E 244 83 1c 20
        E 224 93 1c 61
        E 244 83 1c 18
        E 244 93 1c 62
        E 259 83 1c 01
        E 219 93 1c 5e
        E 229 83 1c 01
        E 258 93 1c 5b
        E 277 83 1c 01
        E 215 93 1c 60
        E 174 83 1c 3c
        E 305 93 1c 62
        E 208 83 1c 2a
        E 265 93 1c 61
        E 222 83 1c 1e
        E 258 93 1c 60
        E 271 83 1c 2a
        E 202 93 1c 61
        E 199 83 1c 3e
        E 286 93 1c 64
        E 251 83 1c 3b
        E 236 93 1c 63
        E 238 83 1c 23
        E 224 93 1d 60
        E 278 83 1d 07
        E 214 93 1d 60
        E 279 83 1d 01
        E 211 93 1d 5e
        E 483 83 1d 4e
        E 698 93 21 61
        E 60 83 21 47
        E 57 93 21 66
        E 61 83 21 4b
        E 75 93 25 6a
        E 91 83 25 38
        E 145 93 28 5d
        E 100 83 28 3d
        E 129 93 2d 63
        E 512 83 2d 4c
        E 927 93 26 65
        E 364 83 26 29
        E 137 93 1f 63
        E 533 83 1f 4f
        E 384 93 21 5e
        E 258 83 21 20
        E 243 93 21 5f
        E 274 83 21 1b
        E 209 93 21 62
        E 254 83 21 27
        E 223 93 21 62
        E 271 83 21 3c
        E 457 93 26 68
        E 129 83 26 29
        E 112 93 21 67
        E 144 83 21 42
        E 96 93 1d 60
        E 133 83 1d 1b
        E 110 93 1a 5c
        E 514 83 1a 4b
        E 685 93 1f 64
        E 53 83 1f 47
        E 61 93 1f 60
        E 99 83 1f 47
        E 25 93 23 67
        E 123 83 23 42
        E 89 93 26 62
        E 102 83 26 48
        E 132 93 2b 5c
        E 531 83 2b 54
        E 938 93 24 60
        E 315 83 24 2e
        E 180 93 1d 63
        E 516 83 1d 52
        E 421 93 1f 5e
        E 199 83 1f 2d
        E 290 93 1f 5d
        E 207 83 1f 25
        E 265 93 1f 5f
        E 221 83 1f 2e
        E 252 93 1f 60
        E 159 83 1f 40
        E 301 93 24 53
        E 314 83 24 10
        E 183 93 24 58
        E 511 83 24 49
        E 222 93 24 5f
        E 173 83 24 2d
        E 62 93 28 5f
        E 196 83 28 26
        E 41 93 2b 55
        E 162 83 2b 3a
        E 101 93 24 5c
        E 124 83 24 33
        E 120 93 24 52
        E 105 83 24 24
        E 115 93 24 58
        E 129 83 24 30
        E 106 93 24 55
        E 122 83 24 25
        E 105 93 24 59
        E 128 83 24 2b
        E 117 93 24 5f
        E 116 83 24 29
        E 106 93 24 61
        E 119 83 24 28
        E 122 93 24 60
        E 135 83 24 2e
        E 114 93 24 60
        E 749 83 24 3a
        E 1218 93 29 65
        E 227 83 29 0c
        E 99 93 24 58
        E 118 83 24 2d
        E 3 93 29 64
        E 218 83 29 27
        E 137 93 24 50
        E 131 93 29 5c
        E 5 83 24 38
        E 232 83 29 19
        E 119 93 24 52
        E 137 93 29 60
        E 1 83 24 3c
        E 208 83 29 36
        E 145 93 24 4f
        E 127 93 29 60
        E 18 83 24 38
        E 197 83 29 32
        E 135 93 24 51
        E 131 93 29 62
        E 9 83 24 37
        E 200 83 29 34
        E 140 93 24 52
        E 143 93 29 65
        E 10 83 24 2f
        E 197 83 29 1e
        E 133 93 24 52
        E 129 93 29 67
        E 5 83 24 43
        E 181 83 29 2b
        E 162 93 24 55
        E 133 93 29 66
        E 21 83 24 35
        E 189 83 29 28
        E 130 93 24 4e
        E 137 93 29 61
        E 24 83 24 30
        E 161 83 29 3c
        E 160 93 24 55
        E 137 93 29 68
        E 10 83 24 40
        E 161 83 29 35
        E 164 93 24 55
        E 137 93 29 63
        E 24 83 24 42
        E 173 83 29 38
        E 134 93 24 4c
        E 127 93 28 5a
        E 15 83 24 32
        E 177 83 28 39
        E 165 93 24 48
        E 144 93 28 59
        E 27 83 24 3e
        E 171 83 28 31
        E 154 93 24 43
        E 130 93 28 57
        E 23 83 24 39
        E 178 83 28 3c
        E 162 93 24 42
        E 137 93 28 58
        E 15 83 24 32
        E 151 83 28 3a
        E 162 93 24 44
        E 138 93 28 5e
        E 16 83 24 3b
        E 146 83 28 26
        E 155 93 24 3f
        E 139 93 28 56
        E 16 83 24 41
        E 164 83 28 2b
        E 161 93 24 49
        E 148 93 28 5b
        E 30 83 24 3b
        E 157 83 28 2e
        E 162 93 24 47
        E 127 93 28 56
        E 28 83 24 36
        E 173 83 28 2d
        E 151 93 24 4c
        E 152 93 28 59
        E 19 83 24 29
        E 141 83 28 18
        E 175 93 24 45
        E 150 93 28 5c
        E 21 83 24 36
        E 122 83 28 3c
        E 190 93 24 4d
        E 137 93 28 5a
        E 27 83 24 47
        E 132 83 28 35
        E 195 93 24 4d
        E 131 93 28 59
        E 41 83 24 39
        E 115 83 28 37
        E 197 93 24 4e
        E 139 93 28 60
        E 25 83 24 3d
        E 136 83 28 37
        E 177 93 24 4c
        E 137 93 28 5a
        E 20 83 24 39
        E 125 83 28 37
        E 196 93 24 53
        E 116 93 28 5e
        E 23 83 24 47
        E 156 83 28 35
        E 163 93 24 54
        E 139 93 28 60
        E 20 83 24 4a
        E 136 83 28 1e
        E 163 93 24 50
        E 151 93 29 65
        E 4 83 24 45
        E 139 83 29 2d
        E 190 93 24 4d
        E 163 83 24 49
        E 6 93 29 64
        E 159 83 29 32
        E 164 93 24 51
        E 157 83 24 41
        E 8 93 29 67
        E 382 83 29 40
        E 570 93 21 66
        E 214 83 21 28
        E 258 93 24 5e
        E 224 83 24 0e
        E 246 93 1d 61
        E 238 83 1d 18
        E 249 93 21 64
        E 241 83 21 4b
        E 246 93 22 68
        E 237 83 22 10
        E 247 93 29 68
        E 231 83 29 02
        E 239 93 26 64
        E 231 83 26 26
        E 238 93 22 69
        E 220 83 22 3b
        E 265 93 23 65
        E 264 83 23 01
        E 244 93 26 61
        E 195 83 26 21
        E 286 93 1f 67
        E 247 83 1f 27
        E 232 93 23 64
        E 261 83 23 01
        E 200 93 24 5c
        E 270 83 24 01
        E 219 93 2b 58
        E 248 83 2b 27
        E 219 93 28 5f
        E 248 83 28 21
        E 246 93 24 5f
        E 263 83 24 32
        E 212 93 25 67
        E 246 83 25 2a
        E 232 93 28 5e
        E 255 83 28 0c
        E 232 93 21 64
        E 265 83 21 01
        E 219 93 25 66
        E 267 83 25 42
        E 197 93 26 5e
        E 294 83 26 27
        E 205 93 29 67
        E 250 83 29 27
        E 223 93 22 65
        E 505 83 22 4b
        E 654 93 24 5f
        E 66 83 24 40
        E 56 93 24 5d
        E 56 83 24 4b
        E 50 93 24 61
        E 93 83 24 35
        E 161 93 24 5f
        E 91 83 24 34
        E 148 93 24 63
        E 562 83 24 15
        E 435 93 21 5c
        E 803 83 21 18
        E 125 93 22 53
        E 817 83 22 11
        E 144 93 24 5e
        E 226 83 24 44
        E 6 93 29 5f
        E 67 83 29 4a
        E 47 93 29 63
        E 69 83 29 42
        E 58 93 29 67
        E 109 83 29 45
        E 135 93 29 68
        E 106 83 29 3d
        E 139 93 24 54
        E 669 83 24 3a
        E 290 93 21 63
        E 403 83 21 45
        E 68 93 24 63
        E 426 83 24 38
        E 95 93 22 65
        E 419 83 22 32
        E 62 93 26 5f
        E 379 83 26 31
        E 103 93 24 61
        E 488 83 24 4d
        E 459 93 24 61
        E 655 83 24 2a
        E 271 93 29 64
        E 353 83 29 1a
        E 150 93 1d 5e
        E 301 83 1d 0c
        E 180 93 21 67
        E 336 83 21 01
        E 163 93 24 5d
        E 337 83 24 27
        E 152 93 29 64
        E 301 83 29 2c
        E 166 93 29 66
        E 365 83 29 1c
        E 111 93 24 60
        E 353 83 24 18
        E 152 93 21 67
        E 386 83 21 0d
        E 93 93 1d 64
        E 631 83 1d 4c
        E 290 93 29 66
        E 536 83 29 4e
        E 308 93 1d 63
        E 68 83 1d 40
        E 85 93 1d 6a
        E 1414 83 1d 59
        E 11 b0 7b 00
        GUID {9D683A9A-232B-E142-AE24-9A0C7592DCAC}
        IGNTEMPO 0 120 4 4
        SRCCOLOR 960
        VELLANE -1 86 6
      >
      TAKE
      NAME "tuba(s) - National_Anthems_-_Brazil.mid"
      TAKEVOLPAN 0 1 -1
      SOFFS 0 0
      PLAYRATE 1 1 0 -1 0 0.0025
      CHANMODE 0
      GUID {5CC81706-972B-D44A-93B9-242AEAA161C5}
      <SOURCE MIDI
        HASDATA 1 480 QN
        POOLEDEVTS {E59BC8E1-1BAC-0148-978F-B59E3C99EA6A}
        <X 0 0 0 0 3 tuba(s)
          /wN0dWJhKHMp
        >
        <X 0 0 0 0 4 "Sound Canvas"
          /wRTb3VuZCBDYW52YXM=
        >
        E 335 93 24 64
        E 55 83 24 4e
        E 93 93 24 64
        E 84 93 26 60
        E 9 83 24 52
        E 79 93 24 62
        E 13 83 26 40
        E 66 83 24 47
        E 3 93 23 65
        E 85 93 24 5f
        E 16 83 23 46
        E 124 83 24 4d
        E 2 93 29 67
        E 175 83 29 4c
        E 136 93 29 6a
        E 50 83 29 53
        E 94 93 29 68
        E 60 93 2b 5c
        E 14 83 29 58
        E 69 93 29 6b
        E 42 83 2b 01
        E 30 83 29 49
        E 7 93 28 60
        E 87 93 29 6a
        E 18 83 28 44
        E 117 83 29 56
        E 10 93 2d 67
        E 190 83 2d 40
        E 167 93 2d 67
        E 45 83 2d 4a
        E 79 93 2d 64
        E 87 93 2e 63
        E 3 83 2d 34
        E 89 93 2d 5f
        E 3 83 2e 4d
        E 77 93 2c 66
        E 5 83 2d 4a
        E 93 93 2d 62
        E 13 83 2c 35
        E 128 83 2d 50
        E 17 93 30 64
        E 168 83 30 4b
        E 280 93 1d 6a
        E 1084 83 1d 53
        E 421 93 29 56
        E 302 83 29 31
        E 165 93 29 57
        E 284 83 29 2b
        E 174 93 29 58
        E 266 83 29 13
        E 214 93 29 60
        E 259 83 29 2e
        E 203 93 28 53
        E 343 83 28 2b
        E 161 93 28 4b
        E 512 83 28 29
        E 271 93 26 67
        E 52 83 26 49
        E 114 93 26 64
        E 81 93 28 55
        E 2 83 26 4e
        E 85 93 26 54
        E 10 83 28 43
        E 68 93 25 66
        E 1 83 26 49
        E 102 93 26 60
        E 4 83 25 44
        E 125 83 26 49
        E 8 93 2b 58
        E 189 83 2b 12
        E 153 93 2b 5b
        E 44 83 2b 46
        E 93 93 2b 60
        E 70 93 2d 59
        E 5 83 2b 4b
        E 84 93 2b 59
        E 2 83 2d 43
        E 78 93 2a 65
        E 4 83 2b 4e
        E 104 93 2b 62
        E 3 83 2a 48
        E 121 83 2b 33
        E 19 93 2e 67
        E 148 83 2e 34
        E 215 93 2e 66
        E 58 83 2e 45
        E 62 93 2e 63
        E 73 93 30 5b
        E 1 83 2e 44
        E 93 93 2e 69
        E 23 83 30 3f
        E 59 93 2d 5e
        E 4 83 2e 44
        E 80 93 2e 69
        E 16 83 2d 41
        E 119 83 2e 4b
        E 8 93 32 55
        E 216 83 32 34
        E 257 93 1f 6a
        E 1007 83 1f 57
        E 428 93 24 53
        E 303 83 24 01
        E 184 93 24 52
        E 318 83 24 1c
        E 167 93 24 4f
        E 349 83 24 01
        E 143 93 24 52
        E 304 83 24 0b
        E 166 93 29 5e
        E 294 83 29 2d
        E 202 93 29 61
        E 528 83 29 2c
        E 248 93 24 5d
        E 67 83 24 47
        E 97 93 24 5c
        E 65 93 26 62
        E 7 83 24 4b
        E 79 93 24 50
        E 30 83 26 37
        E 57 93 23 5a
        E 13 83 24 48
        E 78 93 24 52
        E 19 83 23 42
        E 144 83 24 42
        E 0 93 1d 5c
        E 310 83 1d 36
        E 213 93 2d 4c
        E 342 83 2d 10
        E 88 93 29 64
        E 299 83 29 01
        E 169 93 1d 62
        E 289 83 1d 36
        E 22 93 1f 5b
        E 83 93 21 5c
        E 5 83 1f 45
        E 99 93 22 5f
        E 4 83 21 4a
        E 255 83 22 41
        E 220 93 2e 62
        E 374 83 2e 01
        E 138 93 2b 5a
        E 311 83 2b 1c
        E 151 93 1f 66
        E 252 83 1f 46
        E 3 93 21 55
        E 96 93 22 65
        E 14 83 21 3e
        E 83 83 22 4c
        E 0 93 24 5b
        E 258 83 24 44
        E 238 93 30 58
        E 463 83 30 01
        E 28 93 2d 58
        E 317 83 2d 22
        E 150 93 21 67
        E 251 83 21 37
        E 4 93 22 67
        E 111 93 24 55
        E 11 83 22 3c
        E 92 83 24 45
        E 1 93 26 59
        E 312 83 26 3c
        E 204 93 22 67
        E 323 93 24 57
        E 5 83 22 3b
        E 80 93 26 53
        E 19 83 24 47
        E 70 93 28 62
        E 4 83 26 50
        E 273 83 28 28
        E 186 93 24 62
        E 305 83 24 44
        E 1 93 26 53
        E 83 93 28 57
        E 18 83 26 3a
        E 69 83 28 51
        E 0 93 29 68
        E 290 83 29 3c
        E 191 93 23 66
        E 741 83 23 52
        E 194 93 34 62
        E 250 83 34 01
        E 48 93 32 5e
        E 59 83 32 34
        E 118 93 24 67
        E 382 83 24 3d
        E 586 93 18 6a
        E 529 83 18 55
        E 406 93 29 65
        E 307 83 29 01
        E 190 93 1d 60
        E 241 83 1d 10
        E 240 93 1d 5e
        E 215 83 1d 28
        E 265 93 1d 58
        E 252 83 1d 01
        E 215 93 1d 60
        E 251 83 1d 08
        E 228 93 1d 57
        E 260 83 1d 01
        E 208 93 1d 5a
        E 271 83 1d 01
        E 219 93 1d 5b
        E 295 83 1d 01
        E 197 93 1d 55
        E 298 83 1d 01
        E 195 93 1d 59
        E 221 83 1d 01
        E 236 93 1d 5b
        E 254 83 1d 01
        E 238 93 1d 58
        E 255 83 1d 04
        E 226 93 1d 55
        E 231 83 1d 1f
        E 256 93 1d 5c
        E 251 83 1d 0e
        E 220 93 1d 5c
        E 243 83 1d 1b
        E 233 93 1d 63
        E 279 83 1d 01
        E 199 93 1c 62
        E 234 83 1c 2e
        E 253 93 1c 61
        E 219 83 1c 20
        E 258 93 1c 61
        E 212 83 1c 25
        E 267 93 1c 5a
        E 230 83 1c 1c
        E 256 93 1c 62
        E 244 83 1c 20
        E 224 93 1c 61
        E 244 83 1c 18
        E 244 93 1c 62
        E 259 83 1c 01
        E 219 93 1c 5e
        E 229 83 1c 01
        E 258 93 1c 5b
        E 277 83 1c 01
        E 215 93 1c 60
        E 174 83 1c 3c
        E 305 93 1c 62
        E 208 83 1c 2a
        E 265 93 1c 61
        E 222 83 1c 1e
        E 258 93 1c 60
        E 271 83 1c 2a
        E 202 93 1c 61
        E 199 83 1c 3e
        E 286 93 1c 64
        E 251 83 1c 3b
        E 236 93 1c 63
        E 238 83 1c 23
        E 224 93 1d 60
        E 278 83 1d 07
        E 214 93 1d 60
        E 279 83 1d 01
        E 211 93 1d 5e
        E 483 83 1d 4e
        E 698 93 21 61
        E 60 83 21 47
        E 57 93 21 66
        E 61 83 21 4b
        E 75 93 25 6a
        E 91 83 25 38
        E 145 93 28 5d
        E 100 83 28 3d
        E 129 93 2d 63
        E 512 83 2d 4c
        E 927 93 26 65
        E 364 83 26 29
        E 137 93 1f 63
        E 533 83 1f 4f
        E 384 93 21 5e
        E 258 83 21 20
        E 243 93 21 5f
        E 274 83 21 1b
        E 209 93 21 62
        E 254 83 21 27
        E 223 93 21 62
        E 271 83 21 3c
        E 457 93 26 68
        E 129 83 26 29
        E 112 93 21 67
        E 144 83 21 42
        E 96 93 1d 60
        E 133 83 1d 1b
        E 110 93 1a 5c
        E 514 83 1a 4b
        E 685 93 1f 64
        E 53 83 1f 47
        E 61 93 1f 60
        E 99 83 1f 47
        E 25 93 23 67
        E 123 83 23 42
        E 89 93 26 62
        E 102 83 26 48
        E 132 93 2b 5c
        E 531 83 2b 54
        E 938 93 24 60
        E 315 83 24 2e
        E 180 93 1d 63
        E 516 83 1d 52
        E 421 93 1f 5e
        E 199 83 1f 2d
        E 290 93 1f 5d
        E 207 83 1f 25
        E 265 93 1f 5f
        E 221 83 1f 2e
        E 252 93 1f 60
        E 159 83 1f 40
        E 301 93 24 53
        E 314 83 24 10
        E 183 93 24 58
        E 511 83 24 49
        E 222 93 24 5f
        E 173 83 24 2d
        E 62 93 28 5f
        E 196 83 28 26
        E 41 93 2b 55
        E 162 83 2b 3a
        E 101 93 24 5c
        E 124 83 24 33
        E 120 93 24 52
        E 105 83 24 24
        E 115 93 24 58
        E 129 83 24 30
        E 106 93 24 55
        E 122 83 24 25
        E 105 93 24 59
        E 128 83 24 2b
        E 117 93 24 5f
        E 116 83 24 29
        E 106 93 24 61
        E 119 83 24 28
        E 122 93 24 60
        E 135 83 24 2e
        E 114 93 24 60
        E 749 83 24 3a
        E 1218 93 29 65
        E 227 83 29 0c
        E 99 93 24 58
        E 118 83 24 2d
        E 3 93 29 64
        E 218 83 29 27
        E 137 93 24 50
        E 131 93 29 5c
        E 5 83 24 38
        E 232 83 29 19
        E 119 93 24 52
        E 137 93 29 60
        E 1 83 24 3c
        E 208 83 29 36
        E 145 93 24 4f
        E 127 93 29 60
        E 18 83 24 38
        E 197 83 29 32
        E 135 93 24 51
        E 131 93 29 62
        E 9 83 24 37
        E 200 83 29 34
        E 140 93 24 52
        E 143 93 29 65
        E 10 83 24 2f
        E 197 83 29 1e
        E 133 93 24 52
        E 129 93 29 67
        E 5 83 24 43
        E 181 83 29 2b
        E 162 93 24 55
        E 133 93 29 66
        E 21 83 24 35
        E 189 83 29 28
        E 130 93 24 4e
        E 137 93 29 61
        E 24 83 24 30
        E 161 83 29 3c
        E 160 93 24 55
        E 137 93 29 68
        E 10 83 24 40
        E 161 83 29 35
        E 164 93 24 55
        E 137 93 29 63
        E 24 83 24 42
        E 173 83 29 38
        E 134 93 24 4c
        E 127 93 28 5a
        E 15 83 24 32
        E 177 83 28 39
        E 165 93 24 48
        E 144 93 28 59
        E 27 83 24 3e
        E 171 83 28 31
        E 154 93 24 43
        E 130 93 28 57
        E 23 83 24 39
        E 178 83 28 3c
        E 162 93 24 42
        E 137 93 28 58
        E 15 83 24 32
        E 151 83 28 3a
        E 162 93 24 44
        E 138 93 28 5e
        E 16 83 24 3b
        E 146 83 28 26
        E 155 93 24 3f
        E 139 93 28 56
        E 16 83 24 41
        E 164 83 28 2b
        E 161 93 24 49
        E 148 93 28 5b
        E 30 83 24 3b
        E 157 83 28 2e
        E 162 93 24 47
        E 127 93 28 56
        E 28 83 24 36
        E 173 83 28 2d
        E 151 93 24 4c
        E 152 93 28 59
        E 19 83 24 29
        E 141 83 28 18
        E 175 93 24 45
        E 150 93 28 5c
        E 21 83 24 36
        E 122 83 28 3c
        E 190 93 24 4d
        E 137 93 28 5a
        E 27 83 24 47
        E 132 83 28 35
        E 195 93 24 4d
        E 131 93 28 59
        E 41 83 24 39
        E 115 83 28 37
        E 197 93 24 4e
        E 139 93 28 60
        E 25 83 24 3d
        E 136 83 28 37
        E 177 93 24 4c
        E 137 93 28 5a
        E 20 83 24 39
        E 125 83 28 37
        E 196 93 24 53
        E 116 93 28 5e
        E 23 83 24 47
        E 156 83 28 35
        E 163 93 24 54
        E 139 93 28 60
        E 20 83 24 4a
        E 136 83 28 1e
        E 163 93 24 50
        E 151 93 29 65
        E 4 83 24 45
        E 139 83 29 2d
        E 190 93 24 4d
        E 163 83 24 49
        E 6 93 29 64
        E 159 83 29 32
        E 164 93 24 51
        E 157 83 24 41
        E 8 93 29 67
        E 382 83 29 40
        E 570 93 21 66
        E 214 83 21 28
        E 258 93 24 5e
        E 224 83 24 0e
        E 246 93 1d 61
        E 238 83 1d 18
        E 249 93 21 64
        E 241 83 21 4b
        E 246 93 22 68
        E 237 83 22 10
        E 247 93 29 68
        E 231 83 29 02
        E 239 93 26 64
        E 231 83 26 26
        E 238 93 22 69
        E 220 83 22 3b
        E 265 93 23 65
        E 264 83 23 01
        E 244 93 26 61
        E 195 83 26 21
        E 286 93 1f 67
        E 247 83 1f 27
        E 232 93 23 64
        E 261 83 23 01
        E 200 93 24 5c
        E 270 83 24 01
        E 219 93 2b 58
        E 248 83 2b 27
        E 219 93 28 5f
        E 248 83 28 21
        E 246 93 24 5f
        E 263 83 24 32
        E 212 93 25 67
        E 246 83 25 2a
        E 232 93 28 5e
        E 255 83 28 0c
        E 232 93 21 64
        E 265 83 21 01
        E 219 93 25 66
        E 267 83 25 42
        E 197 93 26 5e
        E 294 83 26 27
        E 205 93 29 67
        E 250 83 29 27
        E 223 93 22 65
        E 505 83 22 4b
        E 654 93 24 5f
        E 66 83 24 40
        E 56 93 24 5d
        E 56 83 24 4b
        E 50 93 24 61
        E 93 83 24 35
        E 161 93 24 5f
        E 91 83 24 34
        E 148 93 24 63
        E 562 83 24 15
        E 435 93 21 5c
        E 803 83 21 18
        E 125 93 22 53
        E 817 83 22 11
        E 144 93 24 5e
        E 226 83 24 44
        E 6 93 29 5f
        E 67 83 29 4a
        E 47 93 29 63
        E 69 83 29 42
        E 58 93 29 67
        E 109 83 29 45
        E 135 93 29 68
        E 106 83 29 3d
        E 139 93 24 54
        E 669 83 24 3a
        E 290 93 21 63
        E 403 83 21 45
        E 68 93 24 63
        E 426 83 24 38
        E 95 93 22 65
        E 419 83 22 32
        E 62 93 26 5f
        E 379 83 26 31
        E 103 93 24 61
        E 488 83 24 4d
        E 459 93 24 61
        E 655 83 24 2a
        E 271 93 29 64
        E 353 83 29 1a
        E 150 93 1d 5e
        E 301 83 1d 0c
        E 180 93 21 67
        E 336 83 21 01
        E 163 93 24 5d
        E 337 83 24 27
        E 152 93 29 64
        E 301 83 29 2c
        E 166 93 29 66
        E 365 83 29 1c
        E 111 93 24 60
        E 353 83 24 18
        E 152 93 21 67
        E 386 83 21 0d
        E 93 93 1d 64
        E 631 83 1d 4c
        E 290 93 29 66
        E 536 83 29 4e
        E 308 93 1d 63
        E 68 83 1d 40
        E 85 93 1d 6a
        E 1414 83 1d 59
        E 11 b0 7b 00
        GUID {673A48CC-CC82-A345-930D-876F5C0ECE61}
        IGNTEMPO 0 120 4 4
        SRCCOLOR 972
        VELLANE -1 86 6
      >
    >
  >
  <TRACK {4A6CD977-ADCC-3A4D-927C-BB2CEF4B0809}
    NAME "vst Gladiator"
    PEAKCOL 27222112
    BEAT -1
    AUTOMODE 0
    VOLPAN 0.30701527295625 0 -1 -1 1
    MUTESOLO 0 0 0
    IPHASE 0
    ISBUS 0 0
    BUSCOMP 2 0
    SHOWINMIX 1 0.6667 0.5 1 0.5 0 0 0
    FREEMODE 0
    SEL 0
    REC 0 0 0 0 0 0 0
    VU 2
    TRACKHEIGHT 0 0
    INQ 0 0 0 0.5 100 0 0 100
    NCHAN 2
    FX 1
    TRACKID {4A6CD977-ADCC-3A4D-927C-BB2CEF4B0809}
    PERF 0
    MIDIOUT -1
    MAINSEND 1 0
    <FXCHAIN
      SHOW 0
      LASTSEL 0
      DOCKED 0
      BYPASS 0 0 0
      <VST "VSTi: Gladiator (Tone2.com)" Gladiator.vst 0 "" 1412581196
        TEcyVO5e7f4AAAAAAgAAAAEAAAAAAAAAAgAAAAAAAABaBAAAAQAAAKEAEAA=
        Q2NuSwAAAGBGeENrAAAAAVQyR0wAAAABAAABB1BEIERlZXAgUGhhc2VycGFkICBNUwAAAAAAAAA8AxJvAAAAAD0bpeQ+a4UeO0Sbpj9BR64AAAAAAAAAAD8AAAA7AxJv
        AAAAAD8NZpE/gAAAP4AAAD8AAAA/AAAAPwAAAAAAAAA6gxJvPd0vGztEm6Y/gAAAPRN0vT864fE7gxJvAAAAAD8AAAAAAAAAAAAAAD8QplU/AAAAAAAAAD8OdtA/AAAA
        PwAAAAAAAAA9bZFpPwAAAD+AAAA+/xZFPvuoBT8AAAA7o9cKO+VgQj2PXCkAAAAAPu4Uez0sCDI/LhR6AAAAAD8mZmc+2ZmaAAAAAAAAAAA/Ao9cP2AAAD+AAAA/AAAA
        PwAAAAAAAAAAAAAAPwAAAD8AAAAAAAAAPxrhSD6j1wo/gAAAPxhQ6D8AAAA/AAAAPxfxmT8AAAA75WBCAAAAAD8AAAA/AAAAO4MSbwAAAAA/LopaPoFTIgAAAAA6gxJv
        PohFgAAAAAAAAAAAAAAAADqDEm8/L76qAAAAAAAAAAAAAAAAPwAAAD8AAAA/AAAAPwAAAD8AAAA/AAAAPwAAAD8AAAA/AAAAPwAAAD8AAAA/AAAAPwAAAD8AAAA/AAAA
        PwAAAD8AAAA/AAAAAAAAAAAAAAAAAAAAAAAAAAAAAAAAAAAAPKwIMQAAAAAAAAAAAAAAAAAAAAAAAAAAAAAAAAAAAAAAAAAAAAAAAAAAAAAAAAAAAAAAAAAAAAAAAAAA
        AAAAAAAAAAA8E3S8AAAAADw0OVgAAAAAPBN0vAAAAAA8NDlYAAAAADwTdLwAAAAAPDQ5WAAAAAA8E3S8AAAAADw0OVgAAAAAPFT99Dw0OVk7AxJvO0SbpgAAAAAAAAAA
        OwMSbzsDEm87AxJvPGVgQgAAAAAAAAAAPzlhGj2e5YQ+jT3LPwAAAD8AAAA/AAAAAAAAADsDEm87tDlYAAAAAAAAAAAAAAAAPwAAADqDEm87AxJvP4AAAAAAAAA/gAAA
        AAAAAD+AAAAAAAAAAAAAAAAAAAAAAAAAP4AAADybpeMAAAAAPJul4z8AAAA/AAAAPwAAAD8AAAA/AAAAPwAAAD8AAAA/gAAAAAAAAAAAAAAAAAAAAAAAAD8AAAA/gAAA
        P4AAAD8AAAA/AAAAPwAAAAAAAAA/AAAAPwAAAD8AAAA/AAAAPwAAAAAAAAA/AAAAPwAAAAAAAAAAAAAAAAAAAAAAAAAAAAAAAAAAAAAAAAAAAAAAAAAAAAAAAAAAAAAA
        AAAAAD8AAAA/AAAAPwAAAD8AAAA/AAAAPwAAAAAAAAAAAAAAP4AAAAAAAAAAAAAAAAAAAAAAAAAAAAAAAAAAAAAAAAAAAAAAAAAAAAAAAAAAAAAAAAAAAAAAAAAAAAAA
        AAAAAAAAAAAAAAAAAAAAAAAAAAAAAAAAAAAAAAAAAAAAAAAAAAAAAAAAAAAAAAAAAAAAAAChqqusrQ==
        AFBEIERlZXAgUGhhc2VycGFkICBNUwAQAAAA
      >
      PRESETNAME "PD Deep Phaserpad  MS"
      FLOATPOS 796 379 986 798
      FXID {532372E3-5B0D-9345-A9C8-98A8EBAF9A7E}
      WAK 0
    >
    <ITEM
      POSITION 0
      SNAPOFFS 0
      LENGTH 113
      LOOP 1
      ALLTAKES 0
      FADEIN 1 0 0 1 0 0
      FADEOUT 1 0 0 1 0 0
      MUTE 0
      SEL 0
      YPOS 0 0.103896
      IGUID {1A6201CF-AA82-1048-B379-69DE19F83B93}
      IID 14
      NAME "trumpet(s) - National_Anthems_-_Brazil.mid"
      VOLPAN 1 0 1 -1
      SOFFS 0 0
      PLAYRATE 1 1 0 -1 0 0.0025
      CHANMODE 0
      TAKECOLOR 26173599 B
      GUID {208E6463-BA4C-2D42-83DE-EFAC6A01CD84}
      <SOURCE MIDI
        HASDATA 1 480 QN
        POOLEDEVTS {B4750F09-5202-614C-8D3F-190D14E50BE8}
        <X 0 0 0 0 3 trumpet(s)
          /wN0cnVtcGV0KHMp
        >
        <X 0 0 0 0 4 "Sound Canvas"
          /wRTb3VuZCBDYW52YXM=
        >
        E 321 90 3c 54
        E 60 80 3c 40
        E 82 90 3c 62
        E 74 90 3e 5a
        E 2 80 3c 47
        E 65 90 3c 50
        E 15 80 3e 3c
        E 75 80 3c 4a
        E 4 90 3b 51
        E 98 90 3c 52
        E 11 80 3b 23
        E 124 90 41 63
        E 4 80 3c 43
        E 156 80 41 3c
        E 180 90 41 61
        E 64 80 41 45
        E 59 90 41 62
        E 99 90 43 67
        E 12 80 41 4e
        E 71 90 41 5b
        E 8 80 43 4d
        E 75 90 40 59
        E 8 80 41 4b
        E 77 90 41 63
        E 27 80 40 3b
        E 103 80 41 47
        E 4 90 45 67
        E 186 80 45 29
        E 177 90 45 5d
        E 63 80 45 3c
        E 71 90 45 5b
        E 70 90 46 67
        E 3 80 45 44
        E 82 90 45 5d
        E 17 80 46 34
        E 64 90 44 66
        E 5 80 45 43
        E 93 90 45 62
        E 27 80 44 33
        E 97 80 45 3f
        E 10 90 48 63
        E 222 80 48 2c
        E 255 90 4d 67
        E 810 80 4d 39
        E 219 90 3c 5e
        E 166 80 3c 20
        E 135 90 3c 51
        E 97 80 3c 20
        E 66 90 41 64
        E 168 80 41 1b
        E 135 90 40 4d
        E 113 80 40 01
        E 43 90 43 6c
        E 223 80 43 26
        E 85 90 41 5a
        E 144 80 41 2d
        E 28 90 45 62
        E 207 80 45 09
        E 94 90 43 63
        E 119 80 43 22
        E 43 90 46 66
        E 244 80 46 32
        E 54 90 45 56
        E 106 80 45 27
        E 61 90 42 5e
        E 499 90 43 66
        E 28 80 42 25
        E 613 80 43 51
        E 190 90 3e 5c
        E 73 80 3e 36
        E 66 90 3e 59
        E 79 90 40 4f
        E 2 80 3e 2e
        E 75 90 3e 5b
        E 6 80 40 40
        E 83 90 3d 5f
        E 3 80 3e 38
        E 95 90 3e 60
        E 12 80 3d 47
        E 126 90 43 6c
        E 11 80 3e 39
        E 177 80 43 2d
        E 147 90 43 6a
        E 63 80 43 46
        E 70 90 43 68
        E 93 80 43 4c
        E 1 90 45 53
        E 74 90 43 64
        E 11 80 45 43
        E 77 90 42 5a
        E 5 80 43 4f
        E 78 90 43 67
        E 32 80 42 2c
        E 76 80 43 30
        E 16 90 46 68
        E 212 80 46 38
        E 122 90 46 65
        E 72 80 46 4d
        E 68 90 46 69
        E 87 80 46 4d
        E 10 90 48 5c
        E 48 90 46 63
        E 19 80 48 4e
        E 75 90 45 57
        E 21 80 46 3f
        E 85 90 46 69
        E 41 80 45 28
        E 88 80 46 34
        E 51 90 4a 66
        E 197 80 4a 36
        E 287 90 4f 63
        E 754 80 4f 44
        E 200 90 4f 60
        E 213 90 4d 60
        E 3 80 4f 3d
        E 142 80 4d 2b
        E 60 90 4f 53
        E 36 90 4d 58
        E 18 80 4f 4c
        E 243 90 4c 5a
        E 1 80 4d 41
        E 138 80 4c 1a
        E 75 90 4d 58
        E 44 90 4c 5e
        E 20 80 4d 48
        E 215 90 4a 5d
        E 2 80 4c 48
        E 98 80 4a 36
        E 100 90 4c 3c
        E 37 90 4a 53
        E 28 80 4c 38
        E 223 90 48 5b
        E 3 80 4a 40
        E 114 80 48 2b
        E 73 90 4a 55
        E 54 90 48 56
        E 21 80 4a 48
        E 207 90 46 65
        E 12 80 48 28
        E 128 80 46 45
        E 128 90 43 59
        E 486 90 45 4e
        E 12 80 43 2f
        E 581 80 45 40
        E 180 90 3c 5e
        E 81 80 3c 44
        E 77 90 3c 5d
        E 69 90 3e 58
        E 2 80 3c 4a
        E 67 90 3c 58
        E 16 80 3e 3e
        E 67 80 3c 49
        E 2 90 3b 4f
        E 82 90 3c 58
        E 17 80 3b 36
        E 125 90 41 60
        E 1 80 3c 42
        E 190 80 41 2c
        E 133 90 41 56
        E 73 80 41 3f
        E 89 90 41 5f
        E 81 90 43 63
        E 5 80 41 47
        E 66 90 41 59
        E 15 80 43 49
        E 67 90 40 54
        E 9 80 41 47
        E 94 90 41 5f
        E 20 80 40 37
        E 124 90 45 64
        E 4 80 41 42
        E 217 80 45 3d
        E 118 90 41 5d
        E 72 80 41 34
        E 83 90 41 57
        E 69 90 43 5b
        E 3 80 41 43
        E 67 90 41 59
        E 12 80 43 48
        E 79 90 40 59
        E 7 80 41 47
        E 93 90 41 5b
        E 40 80 40 2a
        E 108 80 41 43
        E 3 90 3e 60
        E 194 80 3e 2e
        E 145 90 43 6a
        E 81 80 43 4c
        E 86 90 43 69
        E 73 80 43 4b
        E 4 90 45 50
        E 77 90 43 65
        E 8 80 45 3b
        E 81 80 43 49
        E 3 90 42 55
        E 94 90 43 5d
        E 24 80 42 2c
        E 86 80 43 1f
        E 4 90 46 63
        E 216 80 46 47
        E 119 90 43 6a
        E 63 80 43 4b
        E 76 90 43 67
        E 84 80 43 47
        E 7 90 45 57
        E 73 90 43 67
        E 8 80 45 43
        E 72 80 43 42
        E 3 90 42 5b
        E 101 90 43 65
        E 10 80 42 43
        E 103 80 43 48
        E 6 90 40 53
        E 239 80 40 27
        E 107 90 45 59
        E 73 80 45 45
        E 86 90 45 5b
        E 87 90 46 5f
        E 6 80 45 3c
        E 56 80 46 41
        E 5 90 45 4b
        E 73 90 44 5d
        E 7 80 45 44
        E 94 90 45 5e
        E 20 80 44 3e
        E 84 80 45 35
        E 16 90 48 62
        E 200 80 48 34
        E 134 90 45 61
        E 56 80 45 3d
        E 76 90 45 5d
        E 82 90 46 62
        E 1 80 45 47
        E 79 90 45 59
        E 19 80 46 38
        E 69 90 44 53
        E 8 80 45 2b
        E 114 90 45 5b
        E 17 80 44 4b
        E 114 80 45 36
        E 9 90 41 62
        E 237 80 41 3a
        E 128 90 46 68
        E 67 80 46 4b
        E 74 90 46 6a
        E 69 80 46 4b
        E 12 90 48 53
        E 61 90 46 67
        E 14 80 48 4e
        E 63 90 45 51
        E 4 80 46 45
        E 86 90 46 65
        E 43 80 45 2a
        E 71 80 46 40
        E 33 90 48 63
        E 228 80 48 40
        E 114 90 48 5b
        E 61 80 48 4a
        E 80 90 48 61
        E 80 90 4a 59
        E 5 80 48 47
        E 65 90 48 57
        E 10 80 4a 4c
        E 82 90 47 5f
        E 12 80 48 48
        E 106 90 48 63
        E 8 80 47 40
        E 116 90 45 63
        E 2 80 48 4a
        E 277 80 45 0c
        E 174 90 4d 5d
        E 868 80 4d 2c
        E 97 90 4c 60
        E 262 80 4c 34
        E 53 90 4a 5a
        E 92 80 4a 1c
        E 90 90 48 5f
        E 589 80 48 48
        E 351 90 40 63
        E 769 80 40 21
        E 186 90 41 58
        E 907 80 41 47
        E 553 90 3c 64
        E 378 80 3c 24
        E 75 90 41 64
        E 303 80 41 1c
        E 48 90 40 54
        E 120 80 40 2d
        E 40 90 41 67
        E 231 80 41 29
        E 67 90 43 6b
        E 122 80 43 35
        E 55 90 45 62
        E 292 80 45 01
        E 44 90 43 67
        E 150 80 43 2d
        E 26 90 45 68
        E 224 80 45 26
        E 74 90 46 67
        E 116 80 46 3c
        E 61 90 47 62
        E 671 80 47 08
        E 38 90 48 63
        E 226 80 48 4f
        E 11 90 41 65
        E 390 80 41 16
        E 87 90 3c 63
        E 383 80 3c 27
        E 97 90 41 63
        E 267 80 41 2d
        E 62 90 40 57
        E 131 80 40 22
        E 32 90 43 6c
        E 265 80 43 04
        E 54 90 41 52
        E 128 80 41 2c
        E 18 90 45 65
        E 282 80 45 22
        E 27 90 43 62
        E 138 80 43 40
        E 25 90 46 6a
        E 308 80 46 11
        E 13 90 45 54
        E 100 80 45 36
        E 69 90 42 61
        E 449 80 42 26
        E 24 90 43 6c
        E 765 80 43 48
        E 193 90 3c 61
        E 358 80 3c 03
        E 103 90 43 6d
        E 281 80 43 1f
        E 45 90 42 5e
        E 127 80 42 2e
        E 42 90 43 6d
        E 237 80 43 2e
        E 80 90 45 5a
        E 131 80 45 2b
        E 39 90 46 65
        E 288 80 46 39
        E 31 90 45 5c
        E 135 80 45 29
        E 33 90 46 6a
        E 238 80 46 35
        E 64 90 48 56
        E 121 80 48 27
        E 53 90 49 65
        E 694 80 49 01
        E 19 90 4a 64
        E 215 80 4a 20
        E 29 90 43 6d
        E 356 80 43 1f
        E 112 90 3c 5c
        E 408 80 3c 01
        E 68 90 43 6d
        E 281 80 43 2c
        E 47 90 42 58
        E 140 80 42 2e
        E 28 90 45 66
        E 262 80 45 03
        E 63 90 43 66
        E 144 80 43 45
        E 6 90 46 65
        E 306 80 46 4d
        E 13 90 45 56
        E 136 80 45 13
        E 39 90 48 61
        E 274 80 48 46
        E 7 90 46 63
        E 171 80 46 52
        E 26 90 44 65
        E 463 80 44 44
        E 6 90 45 64
        E 791 80 45 37
        E 178 90 45 68
        E 259 80 45 2f
        E 71 90 45 62
        E 110 80 45 20
        E 39 90 46 6a
        E 489 90 45 61
        E 14 80 46 26
        E 584 80 45 29
        E 97 90 45 62
        E 168 80 45 27
        E 76 90 46 69
        E 308 80 46 30
        E 37 90 45 64
        E 68 80 45 3f
        E 71 90 45 66
        E 451 80 45 01
        E 38 90 4a 60
        E 816 80 4a 17
        E 109 90 48 60
        E 217 80 48 01
        E 34 90 46 63
        E 142 80 46 3b
        E 92 90 46 6a
        E 226 80 46 2f
        E 22 90 45 62
        E 181 80 45 34
        E 68 90 45 62
        E 212 80 45 31
        E 26 90 43 67
        E 158 80 43 3d
        E 75 90 43 6a
        E 223 80 43 43
        E 14 90 41 58
        E 163 80 41 31
        E 78 90 41 61
        E 226 80 41 34
        E 28 90 40 5b
        E 140 80 40 2d
        E 101 90 40 61
        E 482 80 40 46
        E 5 90 3e 5d
        E 862 80 3e 01
        E 123 90 43 6d
        E 239 80 43 33
        E 95 90 43 6b
        E 97 80 43 36
        E 46 90 45 68
        E 445 80 45 41
        E 13 90 43 69
        E 606 80 43 38
        E 116 90 43 67
        E 188 80 43 2a
        E 48 90 45 64
        E 293 80 45 14
        E 52 90 43 6b
        E 81 80 43 43
        E 63 90 43 69
        E 474 90 48 65
        E 9 80 43 2f
        E 791 80 48 2a
        E 130 90 47 62
        E 234 80 47 34
        E 14 90 45 60
        E 230 80 45 01
        E 35 90 45 60
        E 240 80 45 3c
        E 6 90 43 66
        E 143 80 43 20
        E 94 90 43 6a
        E 209 80 43 47
        E 17 90 41 58
        E 152 80 41 39
        E 79 90 41 62
        E 236 90 40 58
        E 5 80 41 39
        E 157 80 40 30
        E 74 90 40 5f
        E 235 90 3e 61
        E 3 80 40 42
        E 148 80 3e 37
        E 96 90 3c 62
        E 406 80 3c 1c
        E 94 90 3c 5f
        E 582 80 3c 15
        E 145 90 3c 60
        E 207 80 3c 01
        E 35 90 40 65
        E 175 80 40 35
        E 41 90 43 6d
        E 163 80 43 34
        E 81 90 46 6a
        E 189 80 46 33
        E 55 90 3c 56
        E 173 80 3c 0d
        E 40 90 40 5e
        E 176 80 40 30
        E 53 90 43 6a
        E 183 80 43 39
        E 55 90 46 6b
        E 162 80 46 37
        E 92 90 3c 5a
        E 195 80 3c 0f
        E 33 90 40 60
        E 195 80 40 36
        E 54 90 43 6c
        E 178 80 43 2a
        E 84 90 46 68
        E 1285 80 46 28
        E 183 90 3c 60
        E 376 80 3c 01
        E 65 90 41 62
        E 304 80 41 23
        E 47 90 40 56
        E 99 80 40 24
        E 58 90 41 68
        E 235 80 41 1b
        E 85 90 43 68
        E 143 80 43 24
        E 32 90 45 61
        E 274 80 45 1f
        E 47 90 43 6a
        E 147 80 43 38
        E 16 90 45 64
        E 200 80 45 22
        E 93 90 46 63
        E 108 80 46 3a
        E 73 90 47 65
        E 649 80 47 08
        E 52 90 48 63
        E 204 80 48 2a
        E 37 90 41 66
        E 405 80 41 0b
        E 78 90 3c 5e
        E 433 80 3c 20
        E 62 90 41 65
        E 304 80 41 25
        E 22 90 40 51
        E 138 80 40 1d
        E 21 90 43 6c
        E 266 80 43 25
        E 43 90 41 5a
        E 123 80 41 21
        E 46 90 45 64
        E 266 80 45 13
        E 42 90 43 60
        E 134 80 43 3a
        E 33 90 46 68
        E 294 80 46 27
        E 21 90 45 52
        E 110 80 45 2c
        E 54 90 42 63
        E 465 80 42 24
        E 14 90 43 68
        E 730 80 43 38
        E 218 90 3c 5f
        E 394 80 3c 13
        E 74 90 43 6b
        E 245 80 43 0b
        E 71 90 42 5d
        E 142 80 42 2a
        E 26 90 43 6c
        E 284 80 43 01
        E 47 90 45 63
        E 146 80 45 27
        E 36 90 46 66
        E 240 80 46 3d
        E 61 90 45 64
        E 135 80 45 22
        E 32 90 46 69
        E 263 80 46 33
        E 32 90 48 5a
        E 114 80 48 2b
        E 69 90 49 5f
        E 699 80 49 1e
        E 16 90 4a 61
        E 194 80 4a 1b
        E 53 90 43 6c
        E 379 80 43 1c
        E 108 90 3c 5a
        E 373 80 3c 01
        E 100 90 43 6e
        E 295 80 43 41
        E 17 90 42 56
        E 116 80 42 1e
        E 46 90 45 66
        E 286 80 45 27
        E 9 90 43 5f
        E 135 80 43 30
        E 34 90 46 6a
        E 324 80 46 3a
        E 7 90 45 55
        E 123 80 45 25
        E 43 90 48 64
        E 249 80 48 01
        E 46 90 46 62
        E 123 80 46 24
        E 55 90 44 5d
        E 497 90 45 60
        E 9 80 44 13
        E 732 80 45 25
        E 509 90 41 51
        E 110 80 41 35
        E 67 90 43 6c
        E 292 80 43 38
        E 36 90 41 4d
        E 144 80 41 31
        E 28 90 40 63
        E 267 80 40 0c
        E 22 90 41 51
        E 142 80 41 23
        E 45 90 40 5f
        E 279 80 40 01
        E 11 90 41 5e
        E 142 80 41 29
        E 38 90 43 6a
        E 284 80 43 21
        E 26 90 41 52
        E 84 80 41 38
        E 92 90 41 63
        E 698 90 46 55
        E 28 80 41 28
        E 136 80 46 39
        E 65 90 46 67
        E 656 80 46 20
        E 188 90 43 69
        E 104 80 43 3e
        E 58 90 45 64
        E 255 80 45 2c
        E 29 90 43 66
        E 164 80 43 06
        E 14 90 42 5e
        E 248 80 42 34
        E 32 90 43 6a
        E 124 80 43 48
        E 70 90 42 66
        E 255 80 42 2e
        E 40 90 43 6a
        E 125 80 43 2a
        E 44 90 45 62
        E 220 80 45 22
        E 135 90 43 6b
        E 103 80 43 3d
        E 26 90 43 6e
        E 706 90 48 5c
        E 23 80 43 01
        E 139 80 48 3a
        E 78 90 48 5e
        E 553 80 48 38
        E 244 90 45 51
        E 97 80 45 31
        E 61 90 46 6a
        E 271 80 46 33
        E 52 90 45 62
        E 127 80 45 22
        E 54 90 44 63
        E 286 80 44 16
        E 18 90 45 5c
        E 121 80 45 2b
        E 67 90 44 63
        E 230 80 44 2b
        E 59 90 45 5f
        E 131 80 45 2a
        E 55 90 46 69
        E 258 80 46 01
        E 42 90 45 5f
        E 80 80 45 31
        E 93 90 45 66
        E 469 80 45 01
        E 6 90 4a 61
        E 589 80 4a 2d
        E 115 90 48 60
        E 183 80 48 04
        E 43 90 46 5f
        E 220 80 46 28
        E 8 90 43 65
        E 159 80 43 2c
        E 104 90 43 6d
        E 472 80 43 34
        E 19 90 41 57
        E 600 80 41 32
        E 141 90 40 5e
        E 209 80 40 21
        E 19 90 41 64
        E 170 80 41 21
        E 63 90 43 6d
        E 204 80 43 28
        E 34 90 46 65
        E 180 80 46 40
        E 64 90 45 61
        E 211 80 45 16
        E 23 90 40 5f
        E 223 80 40 28
        E 19 90 41 57
        E 163 80 41 27
        E 64 90 3d 55
        E 194 80 3d 17
        E 51 90 3e 51
        E 217 80 3e 0d
        E 30 90 46 6a
        E 213 80 46 4a
        E 32 90 43 68
        E 153 80 43 39
        E 85 90 43 69
        E 429 80 43 0a
        E 44 90 41 5b
        E 619 80 41 3d
        E 126 90 43 6c
        E 212 80 43 33
        E 16 90 45 66
        E 171 80 45 24
        E 66 90 46 69
        E 173 80 46 28
        E 71 90 47 5d
        E 219 80 47 36
        E 22 90 48 57
        E 224 80 48 26
        E 22 90 45 61
        E 219 80 45 29
        E 13 90 41 5e
        E 238 80 41 37
        E 22 90 3e 60
        E 609 80 3e 01
        E 93 90 46 68
        E 206 80 46 36
        E 37 90 45 61
        E 430 80 45 0f
        E 42 90 41 68
        E 275 80 41 29
        E 41 90 3e 52
        E 120 80 3e 35
        E 33 90 3c 61
        E 462 80 3c 23
        E 6 90 3e 64
        E 282 80 3e 01
        E 40 90 40 5a
        E 131 80 40 1a
        E 65 90 41 5f
        E 1925 80 41 20
        E 401 90 43 68
        E 56 90 41 59
        E 10 80 43 4e
        E 175 90 40 56
        E 2 80 41 36
        E 125 90 41 51
        E 33 80 40 25
        E 115 80 41 49
        E 9 90 46 61
        E 54 90 45 60
        E 11 80 46 4a
        E 118 90 44 5d
        E 1 80 45 3d
        E 175 90 45 5d
        E 37 80 44 27
        E 59 80 45 36
        E 51 90 4a 5d
        E 53 90 48 5e
        E 13 80 4a 4d
        E 112 80 48 47
        E 7 90 47 47
        E 163 90 48 5d
        E 20 80 47 21
        E 155 80 48 3b
        E 6 90 4d 61
        E 376 80 4d 20
        E 523 90 4d 65
        E 505 80 4d 54
        E 370 90 41 68
        E 54 80 41 4e
        E 59 90 41 6a
        E 1451 80 41 66
        E 456 b0 7b 00
        GUID {F244318C-CB32-6847-B6A7-E6A3225CAB2C}
        IGNTEMPO 0 120 4 4
        SRCCOLOR 957
        VELLANE -1 86 6
      >
      TAKE
      NAME "trumpet(s) - National_Anthems_-_Brazil.mid"
      TAKEVOLPAN 0 1 -1
      SOFFS 0 0
      PLAYRATE 1 1 0 -1 0 0.0025
      CHANMODE 0
      GUID {19561CD4-0C85-744B-AF37-ED4F2376B38C}
      <SOURCE MIDI
        HASDATA 1 480 QN
        POOLEDEVTS {D9871378-8496-EE4F-A092-F34A87CAE1FE}
        <X 0 0 0 0 3 trumpet(s)
          /wN0cnVtcGV0KHMp
        >
        <X 0 0 0 0 4 "Sound Canvas"
          /wRTb3VuZCBDYW52YXM=
        >
        E 321 90 3c 54
        E 60 80 3c 40
        E 82 90 3c 62
        E 74 90 3e 5a
        E 2 80 3c 47
        E 65 90 3c 50
        E 15 80 3e 3c
        E 75 80 3c 4a
        E 4 90 3b 51
        E 98 90 3c 52
        E 11 80 3b 23
        E 124 90 41 63
        E 4 80 3c 43
        E 156 80 41 3c
        E 180 90 41 61
        E 64 80 41 45
        E 59 90 41 62
        E 99 90 43 67
        E 12 80 41 4e
        E 71 90 41 5b
        E 8 80 43 4d
        E 75 90 40 59
        E 8 80 41 4b
        E 77 90 41 63
        E 27 80 40 3b
        E 103 80 41 47
        E 4 90 45 67
        E 186 80 45 29
        E 177 90 45 5d
        E 63 80 45 3c
        E 71 90 45 5b
        E 70 90 46 67
        E 3 80 45 44
        E 82 90 45 5d
        E 17 80 46 34
        E 64 90 44 66
        E 5 80 45 43
        E 93 90 45 62
        E 27 80 44 33
        E 97 80 45 3f
        E 10 90 48 63
        E 222 80 48 2c
        E 255 90 4d 67
        E 810 80 4d 39
        E 219 90 3c 5e
        E 166 80 3c 20
        E 135 90 3c 51
        E 97 80 3c 20
        E 66 90 41 64
        E 168 80 41 1b
        E 135 90 40 4d
        E 113 80 40 01
        E 43 90 43 6c
        E 223 80 43 26
        E 85 90 41 5a
        E 144 80 41 2d
        E 28 90 45 62
        E 207 80 45 09
        E 94 90 43 63
        E 119 80 43 22
        E 43 90 46 66
        E 244 80 46 32
        E 54 90 45 56
        E 106 80 45 27
        E 61 90 42 5e
        E 499 90 43 66
        E 28 80 42 25
        E 613 80 43 51
        E 190 90 3e 5c
        E 73 80 3e 36
        E 66 90 3e 59
        E 79 90 40 4f
        E 2 80 3e 2e
        E 75 90 3e 5b
        E 6 80 40 40
        E 83 90 3d 5f
        E 3 80 3e 38
        E 95 90 3e 60
        E 12 80 3d 47
        E 126 90 43 6c
        E 11 80 3e 39
        E 177 80 43 2d
        E 147 90 43 6a
        E 63 80 43 46
        E 70 90 43 68
        E 93 80 43 4c
        E 1 90 45 53
        E 74 90 43 64
        E 11 80 45 43
        E 77 90 42 5a
        E 5 80 43 4f
        E 78 90 43 67
        E 32 80 42 2c
        E 76 80 43 30
        E 16 90 46 68
        E 212 80 46 38
        E 122 90 46 65
        E 72 80 46 4d
        E 68 90 46 69
        E 87 80 46 4d
        E 10 90 48 5c
        E 48 90 46 63
        E 19 80 48 4e
        E 75 90 45 57
        E 21 80 46 3f
        E 85 90 46 69
        E 41 80 45 28
        E 88 80 46 34
        E 51 90 4a 66
        E 197 80 4a 36
        E 287 90 4f 63
        E 754 80 4f 44
        E 200 90 4f 60
        E 213 90 4d 60
        E 3 80 4f 3d
        E 142 80 4d 2b
        E 60 90 4f 53
        E 36 90 4d 58
        E 18 80 4f 4c
        E 243 90 4c 5a
        E 1 80 4d 41
        E 138 80 4c 1a
        E 75 90 4d 58
        E 44 90 4c 5e
        E 20 80 4d 48
        E 215 90 4a 5d
        E 2 80 4c 48
        E 98 80 4a 36
        E 100 90 4c 3c
        E 37 90 4a 53
        E 28 80 4c 38
        E 223 90 48 5b
        E 3 80 4a 40
        E 114 80 48 2b
        E 73 90 4a 55
        E 54 90 48 56
        E 21 80 4a 48
        E 207 90 46 65
        E 12 80 48 28
        E 128 80 46 45
        E 128 90 43 59
        E 486 90 45 4e
        E 12 80 43 2f
        E 581 80 45 40
        E 180 90 3c 5e
        E 81 80 3c 44
        E 77 90 3c 5d
        E 69 90 3e 58
        E 2 80 3c 4a
        E 67 90 3c 58
        E 16 80 3e 3e
        E 67 80 3c 49
        E 2 90 3b 4f
        E 82 90 3c 58
        E 17 80 3b 36
        E 125 90 41 60
        E 1 80 3c 42
        E 190 80 41 2c
        E 133 90 41 56
        E 73 80 41 3f
        E 89 90 41 5f
        E 81 90 43 63
        E 5 80 41 47
        E 66 90 41 59
        E 15 80 43 49
        E 67 90 40 54
        E 9 80 41 47
        E 94 90 41 5f
        E 20 80 40 37
        E 124 90 45 64
        E 4 80 41 42
        E 217 80 45 3d
        E 118 90 41 5d
        E 72 80 41 34
        E 83 90 41 57
        E 69 90 43 5b
        E 3 80 41 43
        E 67 90 41 59
        E 12 80 43 48
        E 79 90 40 59
        E 7 80 41 47
        E 93 90 41 5b
        E 40 80 40 2a
        E 108 80 41 43
        E 3 90 3e 60
        E 194 80 3e 2e
        E 145 90 43 6a
        E 81 80 43 4c
        E 86 90 43 69
        E 73 80 43 4b
        E 4 90 45 50
        E 77 90 43 65
        E 8 80 45 3b
        E 81 80 43 49
        E 3 90 42 55
        E 94 90 43 5d
        E 24 80 42 2c
        E 86 80 43 1f
        E 4 90 46 63
        E 216 80 46 47
        E 119 90 43 6a
        E 63 80 43 4b
        E 76 90 43 67
        E 84 80 43 47
        E 7 90 45 57
        E 73 90 43 67
        E 8 80 45 43
        E 72 80 43 42
        E 3 90 42 5b
        E 101 90 43 65
        E 10 80 42 43
        E 103 80 43 48
        E 6 90 40 53
        E 239 80 40 27
        E 107 90 45 59
        E 73 80 45 45
        E 86 90 45 5b
        E 87 90 46 5f
        E 6 80 45 3c
        E 56 80 46 41
        E 5 90 45 4b
        E 73 90 44 5d
        E 7 80 45 44
        E 94 90 45 5e
        E 20 80 44 3e
        E 84 80 45 35
        E 16 90 48 62
        E 200 80 48 34
        E 134 90 45 61
        E 56 80 45 3d
        E 76 90 45 5d
        E 82 90 46 62
        E 1 80 45 47
        E 79 90 45 59
        E 19 80 46 38
        E 69 90 44 53
        E 8 80 45 2b
        E 114 90 45 5b
        E 17 80 44 4b
        E 114 80 45 36
        E 9 90 41 62
        E 237 80 41 3a
        E 128 90 46 68
        E 67 80 46 4b
        E 74 90 46 6a
        E 69 80 46 4b
        E 12 90 48 53
        E 61 90 46 67
        E 14 80 48 4e
        E 63 90 45 51
        E 4 80 46 45
        E 86 90 46 65
        E 43 80 45 2a
        E 71 80 46 40
        E 33 90 48 63
        E 228 80 48 40
        E 114 90 48 5b
        E 61 80 48 4a
        E 80 90 48 61
        E 80 90 4a 59
        E 5 80 48 47
        E 65 90 48 57
        E 10 80 4a 4c
        E 82 90 47 5f
        E 12 80 48 48
        E 106 90 48 63
        E 8 80 47 40
        E 116 90 45 63
        E 2 80 48 4a
        E 277 80 45 0c
        E 174 90 4d 5d
        E 868 80 4d 2c
        E 97 90 4c 60
        E 262 80 4c 34
        E 53 90 4a 5a
        E 92 80 4a 1c
        E 90 90 48 5f
        E 589 80 48 48
        E 351 90 40 63
        E 769 80 40 21
        E 186 90 41 58
        E 907 80 41 47
        E 553 90 3c 64
        E 378 80 3c 24
        E 75 90 41 64
        E 303 80 41 1c
        E 48 90 40 54
        E 120 80 40 2d
        E 40 90 41 67
        E 231 80 41 29
        E 67 90 43 6b
        E 122 80 43 35
        E 55 90 45 62
        E 292 80 45 01
        E 44 90 43 67
        E 150 80 43 2d
        E 26 90 45 68
        E 224 80 45 26
        E 74 90 46 67
        E 116 80 46 3c
        E 61 90 47 62
        E 671 80 47 08
        E 38 90 48 63
        E 226 80 48 4f
        E 11 90 41 65
        E 390 80 41 16
        E 87 90 3c 63
        E 383 80 3c 27
        E 97 90 41 63
        E 267 80 41 2d
        E 62 90 40 57
        E 131 80 40 22
        E 32 90 43 6c
        E 265 80 43 04
        E 54 90 41 52
        E 128 80 41 2c
        E 18 90 45 65
        E 282 80 45 22
        E 27 90 43 62
        E 138 80 43 40
        E 25 90 46 6a
        E 308 80 46 11
        E 13 90 45 54
        E 100 80 45 36
        E 69 90 42 61
        E 449 80 42 26
        E 24 90 43 6c
        E 765 80 43 48
        E 193 90 3c 61
        E 358 80 3c 03
        E 103 90 43 6d
        E 281 80 43 1f
        E 45 90 42 5e
        E 127 80 42 2e
        E 42 90 43 6d
        E 237 80 43 2e
        E 80 90 45 5a
        E 131 80 45 2b
        E 39 90 46 65
        E 288 80 46 39
        E 31 90 45 5c
        E 135 80 45 29
        E 33 90 46 6a
        E 238 80 46 35
        E 64 90 48 56
        E 121 80 48 27
        E 53 90 49 65
        E 694 80 49 01
        E 19 90 4a 64
        E 215 80 4a 20
        E 29 90 43 6d
        E 356 80 43 1f
        E 112 90 3c 5c
        E 408 80 3c 01
        E 68 90 43 6d
        E 281 80 43 2c
        E 47 90 42 58
        E 140 80 42 2e
        E 28 90 45 66
        E 262 80 45 03
        E 63 90 43 66
        E 144 80 43 45
        E 6 90 46 65
        E 306 80 46 4d
        E 13 90 45 56
        E 136 80 45 13
        E 39 90 48 61
        E 274 80 48 46
        E 7 90 46 63
        E 171 80 46 52
        E 26 90 44 65
        E 463 80 44 44
        E 6 90 45 64
        E 791 80 45 37
        E 178 90 45 68
        E 259 80 45 2f
        E 71 90 45 62
        E 110 80 45 20
        E 39 90 46 6a
        E 489 90 45 61
        E 14 80 46 26
        E 584 80 45 29
        E 97 90 45 62
        E 168 80 45 27
        E 76 90 46 69
        E 308 80 46 30
        E 37 90 45 64
        E 68 80 45 3f
        E 71 90 45 66
        E 451 80 45 01
        E 38 90 4a 60
        E 816 80 4a 17
        E 109 90 48 60
        E 217 80 48 01
        E 34 90 46 63
        E 142 80 46 3b
        E 92 90 46 6a
        E 226 80 46 2f
        E 22 90 45 62
        E 181 80 45 34
        E 68 90 45 62
        E 212 80 45 31
        E 26 90 43 67
        E 158 80 43 3d
        E 75 90 43 6a
        E 223 80 43 43
        E 14 90 41 58
        E 163 80 41 31
        E 78 90 41 61
        E 226 80 41 34
        E 28 90 40 5b
        E 140 80 40 2d
        E 101 90 40 61
        E 482 80 40 46
        E 5 90 3e 5d
        E 862 80 3e 01
        E 123 90 43 6d
        E 239 80 43 33
        E 95 90 43 6b
        E 97 80 43 36
        E 46 90 45 68
        E 445 80 45 41
        E 13 90 43 69
        E 606 80 43 38
        E 116 90 43 67
        E 188 80 43 2a
        E 48 90 45 64
        E 293 80 45 14
        E 52 90 43 6b
        E 81 80 43 43
        E 63 90 43 69
        E 474 90 48 65
        E 9 80 43 2f
        E 791 80 48 2a
        E 130 90 47 62
        E 234 80 47 34
        E 14 90 45 60
        E 230 80 45 01
        E 35 90 45 60
        E 240 80 45 3c
        E 6 90 43 66
        E 143 80 43 20
        E 94 90 43 6a
        E 209 80 43 47
        E 17 90 41 58
        E 152 80 41 39
        E 79 90 41 62
        E 236 90 40 58
        E 5 80 41 39
        E 157 80 40 30
        E 74 90 40 5f
        E 235 90 3e 61
        E 3 80 40 42
        E 148 80 3e 37
        E 96 90 3c 62
        E 406 80 3c 1c
        E 94 90 3c 5f
        E 582 80 3c 15
        E 145 90 3c 60
        E 207 80 3c 01
        E 35 90 40 65
        E 175 80 40 35
        E 41 90 43 6d
        E 163 80 43 34
        E 81 90 46 6a
        E 189 80 46 33
        E 55 90 3c 56
        E 173 80 3c 0d
        E 40 90 40 5e
        E 176 80 40 30
        E 53 90 43 6a
        E 183 80 43 39
        E 55 90 46 6b
        E 162 80 46 37
        E 92 90 3c 5a
        E 195 80 3c 0f
        E 33 90 40 60
        E 195 80 40 36
        E 54 90 43 6c
        E 178 80 43 2a
        E 84 90 46 68
        E 1285 80 46 28
        E 183 90 3c 60
        E 376 80 3c 01
        E 65 90 41 62
        E 304 80 41 23
        E 47 90 40 56
        E 99 80 40 24
        E 58 90 41 68
        E 235 80 41 1b
        E 85 90 43 68
        E 143 80 43 24
        E 32 90 45 61
        E 274 80 45 1f
        E 47 90 43 6a
        E 147 80 43 38
        E 16 90 45 64
        E 200 80 45 22
        E 93 90 46 63
        E 108 80 46 3a
        E 73 90 47 65
        E 649 80 47 08
        E 52 90 48 63
        E 204 80 48 2a
        E 37 90 41 66
        E 405 80 41 0b
        E 78 90 3c 5e
        E 433 80 3c 20
        E 62 90 41 65
        E 304 80 41 25
        E 22 90 40 51
        E 138 80 40 1d
        E 21 90 43 6c
        E 266 80 43 25
        E 43 90 41 5a
        E 123 80 41 21
        E 46 90 45 64
        E 266 80 45 13
        E 42 90 43 60
        E 134 80 43 3a
        E 33 90 46 68
        E 294 80 46 27
        E 21 90 45 52
        E 110 80 45 2c
        E 54 90 42 63
        E 465 80 42 24
        E 14 90 43 68
        E 730 80 43 38
        E 218 90 3c 5f
        E 394 80 3c 13
        E 74 90 43 6b
        E 245 80 43 0b
        E 71 90 42 5d
        E 142 80 42 2a
        E 26 90 43 6c
        E 284 80 43 01
        E 47 90 45 63
        E 146 80 45 27
        E 36 90 46 66
        E 240 80 46 3d
        E 61 90 45 64
        E 135 80 45 22
        E 32 90 46 69
        E 263 80 46 33
        E 32 90 48 5a
        E 114 80 48 2b
        E 69 90 49 5f
        E 699 80 49 1e
        E 16 90 4a 61
        E 194 80 4a 1b
        E 53 90 43 6c
        E 379 80 43 1c
        E 108 90 3c 5a
        E 373 80 3c 01
        E 100 90 43 6e
        E 295 80 43 41
        E 17 90 42 56
        E 116 80 42 1e
        E 46 90 45 66
        E 286 80 45 27
        E 9 90 43 5f
        E 135 80 43 30
        E 34 90 46 6a
        E 324 80 46 3a
        E 7 90 45 55
        E 123 80 45 25
        E 43 90 48 64
        E 249 80 48 01
        E 46 90 46 62
        E 123 80 46 24
        E 55 90 44 5d
        E 497 90 45 60
        E 9 80 44 13
        E 732 80 45 25
        E 509 90 41 51
        E 110 80 41 35
        E 67 90 43 6c
        E 292 80 43 38
        E 36 90 41 4d
        E 144 80 41 31
        E 28 90 40 63
        E 267 80 40 0c
        E 22 90 41 51
        E 142 80 41 23
        E 45 90 40 5f
        E 279 80 40 01
        E 11 90 41 5e
        E 142 80 41 29
        E 38 90 43 6a
        E 284 80 43 21
        E 26 90 41 52
        E 84 80 41 38
        E 92 90 41 63
        E 698 90 46 55
        E 28 80 41 28
        E 136 80 46 39
        E 65 90 46 67
        E 656 80 46 20
        E 188 90 43 69
        E 104 80 43 3e
        E 58 90 45 64
        E 255 80 45 2c
        E 29 90 43 66
        E 164 80 43 06
        E 14 90 42 5e
        E 248 80 42 34
        E 32 90 43 6a
        E 124 80 43 48
        E 70 90 42 66
        E 255 80 42 2e
        E 40 90 43 6a
        E 125 80 43 2a
        E 44 90 45 62
        E 220 80 45 22
        E 135 90 43 6b
        E 103 80 43 3d
        E 26 90 43 6e
        E 706 90 48 5c
        E 23 80 43 01
        E 139 80 48 3a
        E 78 90 48 5e
        E 553 80 48 38
        E 244 90 45 51
        E 97 80 45 31
        E 61 90 46 6a
        E 271 80 46 33
        E 52 90 45 62
        E 127 80 45 22
        E 54 90 44 63
        E 286 80 44 16
        E 18 90 45 5c
        E 121 80 45 2b
        E 67 90 44 63
        E 230 80 44 2b
        E 59 90 45 5f
        E 131 80 45 2a
        E 55 90 46 69
        E 258 80 46 01
        E 42 90 45 5f
        E 80 80 45 31
        E 93 90 45 66
        E 469 80 45 01
        E 6 90 4a 61
        E 589 80 4a 2d
        E 115 90 48 60
        E 183 80 48 04
        E 43 90 46 5f
        E 220 80 46 28
        E 8 90 43 65
        E 159 80 43 2c
        E 104 90 43 6d
        E 472 80 43 34
        E 19 90 41 57
        E 600 80 41 32
        E 141 90 40 5e
        E 209 80 40 21
        E 19 90 41 64
        E 170 80 41 21
        E 63 90 43 6d
        E 204 80 43 28
        E 34 90 46 65
        E 180 80 46 40
        E 64 90 45 61
        E 211 80 45 16
        E 23 90 40 5f
        E 223 80 40 28
        E 19 90 41 57
        E 163 80 41 27
        E 64 90 3d 55
        E 194 80 3d 17
        E 51 90 3e 51
        E 217 80 3e 0d
        E 30 90 46 6a
        E 213 80 46 4a
        E 32 90 43 68
        E 153 80 43 39
        E 85 90 43 69
        E 429 80 43 0a
        E 44 90 41 5b
        E 619 80 41 3d
        E 126 90 43 6c
        E 212 80 43 33
        E 16 90 45 66
        E 171 80 45 24
        E 66 90 46 69
        E 173 80 46 28
        E 71 90 47 5d
        E 219 80 47 36
        E 22 90 48 57
        E 224 80 48 26
        E 22 90 45 61
        E 219 80 45 29
        E 13 90 41 5e
        E 238 80 41 37
        E 22 90 3e 60
        E 609 80 3e 01
        E 93 90 46 68
        E 206 80 46 36
        E 37 90 45 61
        E 430 80 45 0f
        E 42 90 41 68
        E 275 80 41 29
        E 41 90 3e 52
        E 120 80 3e 35
        E 33 90 3c 61
        E 462 80 3c 23
        E 6 90 3e 64
        E 282 80 3e 01
        E 40 90 40 5a
        E 131 80 40 1a
        E 65 90 41 5f
        E 1925 80 41 20
        E 401 90 43 68
        E 56 90 41 59
        E 10 80 43 4e
        E 175 90 40 56
        E 2 80 41 36
        E 125 90 41 51
        E 33 80 40 25
        E 115 80 41 49
        E 9 90 46 61
        E 54 90 45 60
        E 11 80 46 4a
        E 118 90 44 5d
        E 1 80 45 3d
        E 175 90 45 5d
        E 37 80 44 27
        E 59 80 45 36
        E 51 90 4a 5d
        E 53 90 48 5e
        E 13 80 4a 4d
        E 112 80 48 47
        E 7 90 47 47
        E 163 90 48 5d
        E 20 80 47 21
        E 155 80 48 3b
        E 6 90 4d 61
        E 376 80 4d 20
        E 523 90 4d 65
        E 505 80 4d 54
        E 370 90 41 68
        E 54 80 41 4e
        E 59 90 41 6a
        E 1451 80 41 66
        E 456 b0 7b 00
        GUID {1C480D0D-1ABA-014F-95AD-CCB991B3E266}
        IGNTEMPO 0 120 4 4
        SRCCOLOR 969
        VELLANE -1 86 6
      >
    >
    <ITEM
      POSITION 0
      SNAPOFFS 0
      LENGTH 113
      LOOP 1
      ALLTAKES 0
      FADEIN 1 0 0 1 0 0
      FADEOUT 1 0 0 1 0 0
      MUTE 1
      SEL 0
      YPOS 0.597403 0.103896
      IGUID {7960F082-0517-964D-8B68-6F7D4518DECB}
      IID 16
      NAME "trombone(s) - National_Anthems_-_Brazil.mid"
      VOLPAN 1 0 1 -1
      SOFFS 0 0
      PLAYRATE 1 1 0 -1 0 0.0025
      CHANMODE 0
      TAKECOLOR 26173599 B
      GUID {DE206275-808E-5841-9055-7D6A74954417}
      <SOURCE MIDI
        HASDATA 1 480 QN
        POOLEDEVTS {7DBCAB03-6E10-EE44-9534-1DA193D39ABD}
        <X 0 0 0 0 3 trombone(s)
          /wN0cm9tYm9uZShzKQ==
        >
        <X 0 0 0 0 4 "Sound Canvas"
          /wRTb3VuZCBDYW52YXM=
        >
        E 335 92 30 66
        E 54 82 30 50
        E 68 92 30 65
        E 78 92 32 61
        E 12 82 30 51
        E 68 92 30 65
        E 17 82 32 48
        E 71 92 2f 66
        E 2 82 30 4f
        E 88 92 30 63
        E 17 82 2f 3e
        E 129 82 30 4e
        E 5 92 35 66
        E 190 82 35 38
        E 160 92 35 6d
        E 48 82 35 54
        E 66 92 35 6b
        E 65 92 37 58
        E 15 82 35 58
        E 68 92 35 6a
        E 18 82 37 41
        E 62 92 34 66
        E 2 82 35 54
        E 86 92 35 65
        E 15 82 34 44
        E 127 82 35 51
        E 16 92 39 65
        E 183 82 39 2f
        E 163 92 39 65
        E 39 82 39 4b
        E 72 92 39 68
        E 80 92 3a 68
        E 5 82 39 42
        E 81 92 39 5f
        E 10 82 3a 46
        E 75 92 38 68
        E 5 82 39 4d
        E 98 92 39 5a
        E 1 82 38 34
        E 149 82 39 45
        E 22 92 3c 61
        E 203 82 3c 26
        E 268 92 35 67
        E 2 92 30 5c
        E 939 82 35 4b
        E 28 82 30 4a
        E 500 92 3c 4e
        E 6 92 39 59
        E 232 82 3c 01
        E 26 82 39 01
        E 219 92 3c 4c
        E 3 92 39 53
        E 191 82 39 1f
        E 9 82 3c 2e
        E 262 92 3c 52
        E 0 92 39 50
        E 172 82 39 46
        E 46 82 3c 32
        E 247 92 41 4c
        E 3 92 3c 50
        E 177 82 3c 1b
        E 111 82 41 01
        E 193 92 3c 53
        E 264 82 3c 01
        E 209 92 3c 4f
        E 431 82 3c 01
        E 378 92 32 63
        E 49 82 32 4e
        E 85 92 32 65
        E 78 92 34 60
        E 4 82 32 4f
        E 79 92 32 61
        E 12 82 34 43
        E 64 82 32 47
        E 2 92 31 67
        E 103 92 32 5d
        E 25 82 31 01
        E 143 82 32 4b
        E 2 92 37 5b
        E 157 82 37 1c
        E 183 92 37 5e
        E 44 82 37 49
        E 76 92 37 5e
        E 64 92 39 5a
        E 9 82 37 4a
        E 82 92 37 5f
        E 6 82 39 45
        E 74 82 37 42
        E 4 92 36 69
        E 92 92 37 55
        E 27 82 36 26
        E 136 82 37 22
        E 7 92 3a 62
        E 135 82 3a 36
        E 191 92 3a 66
        E 43 82 3a 4a
        E 70 92 3a 67
        E 83 82 3a 46
        E 2 92 3c 5c
        E 83 92 3a 6a
        E 21 82 3c 40
        E 53 82 3a 3c
        E 14 92 39 62
        E 86 92 3a 6b
        E 20 82 39 44
        E 124 82 3a 49
        E 12 92 3e 62
        E 189 82 3e 29
        E 302 92 37 53
        E 4 92 32 53
        E 913 82 37 45
        E 5 82 32 55
        E 513 92 3c 54
        E 2 92 37 53
        E 133 82 37 17
        E 6 82 3c 1e
        E 334 92 3c 4d
        E 1 92 37 4d
        E 161 82 3c 23
        E 40 82 37 0d
        E 283 92 3c 50
        E 1 92 34 4d
        E 190 82 3c 01
        E 36 82 34 0e
        E 267 92 34 51
        E 5 92 3c 50
        E 216 82 3c 01
        E 27 82 34 3b
        E 229 92 3c 50
        E 349 82 3c 01
        E 155 92 3c 51
        E 432 82 3c 2f
        E 357 92 30 5e
        E 45 82 30 4b
        E 87 92 30 60
        E 76 92 32 59
        E 5 82 30 4a
        E 82 92 30 61
        E 14 82 32 41
        E 70 82 30 42
        E 4 92 2f 63
        E 89 92 30 5b
        E 10 82 2f 43
        E 96 82 30 44
        E 64 92 35 56
        E 9 92 30 43
        E 278 82 35 30
        E 84 82 30 01
        E 112 92 3c 51
        E 350 82 3c 01
        E 141 92 39 54
        E 293 82 39 0b
        E 194 92 30 50
        E 347 82 30 14
        E 105 92 35 50
        E 362 82 35 44
        E 142 92 3e 51
        E 396 82 3e 01
        E 116 92 3a 4f
        E 293 82 3a 1d
        E 174 92 37 48
        E 328 82 37 01
        E 126 92 37 48
        E 280 82 37 49
        E 202 92 40 53
        E 353 82 40 01
        E 145 92 3c 4d
        E 318 82 3c 01
        E 157 92 39 50
        E 337 82 39 2b
        E 137 92 39 4d
        E 344 82 39 2d
        E 141 92 3a 49
        E 264 82 3a 20
        E 221 92 3a 48
        E 268 82 3a 27
        E 215 92 3c 4f
        E 301 82 3c 1d
        E 160 92 3c 4a
        E 224 82 3c 29
        E 236 92 3e 49
        E 812 82 3e 0b
        E 169 92 40 55
        E 216 82 40 0f
        E 52 92 3e 53
        E 113 82 3e 28
        E 70 92 35 57
        E 21 92 39 50
        E 318 82 35 01
        E 9 82 39 12
        E 636 92 30 46
        E 395 82 30 3b
        E 566 92 35 5c
        E 189 82 35 4b
        E 275 92 29 53
        E 198 82 29 28
        E 290 92 29 48
        E 205 82 29 01
        E 279 92 29 3e
        E 243 82 29 05
        E 220 92 29 47
        E 227 82 29 01
        E 232 92 29 3a
        E 207 82 29 15
        E 292 92 29 3f
        E 203 82 29 01
        E 272 92 29 40
        E 266 82 29 01
        E 235 92 29 44
        E 208 82 29 01
        E 271 92 29 40
        E 195 82 29 04
        E 278 92 29 49
        E 236 82 29 01
        E 237 92 29 42
        E 249 82 29 01
        E 245 92 29 43
        E 244 82 29 0d
        E 250 92 29 40
        E 251 82 29 01
        E 222 92 29 48
        E 190 82 29 2b
        E 274 92 29 4e
        E 174 82 29 2c
        E 289 92 28 58
        E 166 82 28 1d
        E 313 92 28 4f
        E 206 82 28 0f
        E 283 92 28 54
        E 195 82 28 01
        E 307 92 28 4e
        E 190 82 28 1f
        E 279 92 28 51
        E 204 82 28 17
        E 271 92 28 52
        E 189 82 28 01
        E 271 92 28 53
        E 178 82 28 19
        E 311 92 28 4f
        E 173 82 28 18
        E 335 92 28 4d
        E 173 82 28 26
        E 301 92 28 56
        E 179 82 28 1b
        E 288 92 28 52
        E 189 82 28 17
        E 305 92 28 50
        E 203 82 28 2e
        E 270 92 28 56
        E 177 82 28 29
        E 295 92 28 53
        E 222 82 28 01
        E 254 92 28 4f
        E 236 82 28 0c
        E 250 92 28 57
        E 163 82 28 2a
        E 306 92 29 51
        E 211 82 29 14
        E 284 92 29 4e
        E 157 82 29 11
        E 315 92 29 52
        E 442 82 29 2e
        E 758 92 39 5b
        E 70 82 39 3b
        E 61 92 39 5f
        E 64 82 39 41
        E 57 92 39 62
        E 86 82 39 39
        E 153 92 39 55
        E 92 82 39 38
        E 149 92 39 4f
        E 502 82 39 3c
        E 937 92 3e 5a
        E 334 82 3e 01
        E 143 92 37 4e
        E 527 82 37 51
        E 400 92 39 52
        E 198 82 39 29
        E 294 92 39 4d
        E 194 82 39 21
        E 286 92 39 4c
        E 187 82 39 1c
        E 303 92 39 4e
        E 213 82 39 0b
        E 519 92 32 5b
        E 128 82 32 0e
        E 122 92 39 58
        E 114 82 39 28
        E 122 92 35 63
        E 131 82 35 31
        E 129 92 32 50
        E 493 82 32 3f
        E 677 92 37 51
        E 65 82 37 37
        E 55 92 37 58
        E 65 82 37 3e
        E 53 92 37 5e
        E 84 82 37 3d
        E 145 92 37 50
        E 94 82 37 2e
        E 138 92 37 4e
        E 452 82 37 43
        E 1029 92 3c 4b
        E 269 82 3c 08
        E 184 92 35 58
        E 479 82 35 4e
        E 457 92 37 43
        E 205 82 37 24
        E 293 92 37 3d
        E 205 82 37 32
        E 281 92 37 49
        E 187 82 37 0c
        E 276 92 37 4b
        E 201 82 37 1c
        E 285 92 30 48
        E 225 82 30 14
        E 238 92 37 3e
        E 485 82 37 01
        E 267 92 30 46
        E 161 82 30 27
        E 87 92 34 4c
        E 167 82 34 13
        E 52 92 37 37
        E 72 82 37 40
        E 172 92 3a 2b
        E 1 92 34 50
        E 5 92 37 4b
        E 61 82 37 18
        E 4 82 34 26
        E 15 82 3a 28
        E 141 92 3a 4a
        E 13 92 37 4e
        E 1 92 34 5b
        E 58 82 37 17
        E 7 82 34 3b
        E 4 82 3a 14
        E 157 92 3a 43
        E 5 92 34 5c
        E 1 92 37 50
        E 72 82 37 10
        E 1 82 34 35
        E 6 82 3a 10
        E 152 92 3a 45
        E 8 92 37 4d
        E 1 92 34 58
        E 69 82 37 01
        E 1 82 34 2d
        E 7 82 3a 1f
        E 145 92 3a 4c
        E 6 92 37 4d
        E 0 92 34 58
        E 79 82 37 0f
        E 1 82 34 33
        E 6 82 3a 1e
        E 141 92 3a 4c
        E 4 92 37 50
        E 4 92 34 5c
        E 71 82 34 2e
        E 5 82 37 15
        E 2 82 3a 0f
        E 154 92 3a 4a
        E 3 92 34 5c
        E 1 92 37 4f
        E 81 82 3a 1b
        E 4 82 34 37
        E 0 82 37 24
        E 153 92 3a 4b
        E 2 92 34 58
        E 0 92 37 4d
        E 83 82 37 14
        E 2 82 34 38
        E 3 82 3a 12
        E 162 92 37 49
        E 10 92 3a 3d
        E 482 82 37 4a
        E 0 82 3a 3a
        E 1451 92 3c 43
        E 3 92 39 50
        E 161 82 39 01
        E 7 82 3c 01
        E 309 92 3c 2f
        E 2 92 39 42
        E 139 82 39 01
        E 32 82 3c 01
        E 293 92 3c 30
        E 1 92 39 44
        E 160 82 39 12
        E 18 82 3c 16
        E 304 92 3c 44
        E 6 92 39 46
        E 151 82 39 01
        E 11 82 3c 01
        E 321 92 39 43
        E 2 92 3c 32
        E 128 82 39 03
        E 7 82 3c 16
        E 334 92 3c 39
        E 4 92 39 49
        E 158 82 39 01
        E 25 82 3c 01
        E 310 92 39 44
        E 2 92 3c 31
        E 136 82 39 16
        E 7 82 3c 1a
        E 329 92 39 3d
        E 0 92 3c 40
        E 136 82 39 09
        E 1 82 3c 14
        E 348 92 39 42
        E 1 92 3c 33
        E 144 82 39 01
        E 9 82 3c 19
        E 324 92 3c 40
        E 0 92 39 46
        E 125 82 39 03
        E 12 82 3c 28
        E 352 92 3c 35
        E 5 92 39 42
        E 161 82 39 01
        E 12 82 3c 01
        E 303 92 3c 38
        E 4 92 39 48
        E 120 82 39 2e
        E 25 82 3c 22
        E 319 92 3a 4d
        E 1 92 3c 32
        E 111 82 3a 29
        E 39 82 3c 1d
        E 328 92 3a 49
        E 4 92 3c 29
        E 117 82 3a 16
        E 37 82 3c 01
        E 328 92 3a 43
        E 3 92 3c 32
        E 122 82 3a 22
        E 32 82 3c 1f
        E 335 92 3c 29
        E 1 92 3a 44
        E 123 82 3a 27
        E 33 82 3c 0f
        E 318 92 3a 48
        E 4 92 3c 2c
        E 111 82 3a 1b
        E 34 82 3c 1e
        E 324 92 3a 49
        E 6 92 3c 24
        E 108 82 3a 08
        E 20 82 3c 25
        E 338 92 3a 4b
        E 11 92 3c 2e
        E 111 82 3a 07
        E 17 82 3c 07
        E 357 92 3a 50
        E 9 92 3c 2e
        E 86 82 3a 18
        E 33 82 3c 19
        E 342 92 3a 4c
        E 4 92 3c 27
        E 83 82 3a 1a
        E 28 82 3c 20
        E 361 92 3a 51
        E 7 92 3c 3a
        E 96 82 3a 10
        E 22 82 3c 22
        E 366 92 3a 58
        E 1 92 3c 42
        E 119 82 3a 01
        E 24 82 3c 17
        E 341 92 3a 56
        E 1 92 3c 3a
        E 103 82 3a 09
        E 35 82 3c 25
        E 325 92 3a 54
        E 3 92 3c 32
        E 105 82 3a 01
        E 25 82 3c 17
        E 359 92 3a 54
        E 6 92 3c 37
        E 96 82 3a 01
        E 17 82 3c 1e
        E 349 92 3a 4d
        E 10 92 3c 29
        E 108 82 3a 01
        E 18 82 3c 13
        E 335 92 3a 49
        E 4 92 3c 34
        E 121 82 3a 1a
        E 3 82 3c 19
        E 368 92 3c 39
        E 6 92 39 4d
        E 109 82 39 0a
        E 25 82 3c 1e
        E 346 92 3c 2f
        E 5 92 39 4a
        E 107 82 39 0e
        E 23 82 3c 2f
        E 332 92 3c 2f
        E 2 92 39 46
        E 438 82 39 0a
        E 5 82 3c 1f
        E 775 92 33 5a
        E 3 92 35 59
        E 77 82 33 3a
        E 13 82 35 25
        E 336 92 33 5e
        E 6 92 35 5a
        E 111 82 33 0e
        E 13 82 35 2a
        E 353 92 33 4c
        E 6 92 35 4f
        E 91 82 33 28
        E 12 82 35 16
        E 361 92 33 4e
        E 8 92 35 5c
        E 102 82 35 32
        E 6 82 33 2a
        E 385 92 32 52
        E 4 92 35 5e
        E 87 82 32 4a
        E 16 82 35 4c
        E 388 92 3a 5f
        E 4 92 3e 4c
        E 88 82 3a 37
        E 17 82 3e 1c
        E 353 92 3a 56
        E 7 92 35 60
        E 103 82 3a 22
        E 1 82 35 3f
        E 367 92 32 58
        E 7 92 35 5c
        E 105 82 32 3e
        E 2 82 35 30
        E 377 92 37 51
        E 1 92 35 5a
        E 91 82 35 39
        E 32 82 37 3e
        E 356 92 3b 4d
        E 3 92 35 58
        E 103 82 35 3e
        E 24 82 3b 2c
        E 360 92 35 53
        E 3 92 37 4d
        E 107 82 35 3d
        E 1 82 37 0a
        E 337 92 37 50
        E 1 92 35 54
        E 93 82 35 1c
        E 18 82 37 2a
        E 414 92 37 53
        E 7 92 34 5c
        E 96 82 34 48
        E 11 82 37 41
        E 360 92 40 52
        E 4 92 3c 50
        E 107 82 3c 1e
        E 13 82 40 20
        E 322 92 3c 53
        E 1 92 37 4c
        E 104 82 3c 35
        E 17 82 37 45
        E 376 92 34 53
        E 1 92 37 51
        E 96 82 37 37
        E 29 82 34 3f
        E 333 92 37 4c
        E 2 92 39 58
        E 91 82 37 41
        E 35 82 39 3b
        E 362 92 3d 5a
        E 7 92 37 4b
        E 98 82 3d 24
        E 16 82 37 2b
        E 375 92 39 50
        E 1 92 37 4a
        E 94 82 39 22
        E 14 82 37 0f
        E 369 92 39 51
        E 1 92 37 4f
        E 100 82 39 2c
        E 1 82 37 31
        E 380 92 35 61
        E 3 92 39 4f
        E 94 82 35 4b
        E 21 82 39 01
        E 359 92 3e 4c
        E 1 92 39 51
        E 79 82 39 35
        E 17 82 3e 27
        E 167 92 3a 48
        E 9 92 32 4a
        E 0 92 37 55
        E 700 82 37 16
        E 13 82 3a 1f
        E 0 82 32 43
        E 449 92 35 45
        E 1 92 39 57
        E 0 92 3c 4a
        E 45 82 39 3e
        E 6 82 35 4c
        E 4 82 3c 2e
        E 57 92 39 5c
        E 1 92 35 61
        E 0 92 3c 54
        E 45 82 39 47
        E 5 82 35 46
        E 2 82 3c 3c
        E 60 92 39 5a
        E 1 92 3c 51
        E 1 92 35 63
        E 71 82 39 2a
        E 0 82 35 3e
        E 15 82 3c 1d
        E 168 92 39 5b
        E 1 92 3c 54
        E 0 92 35 5f
        E 46 82 35 4d
        E 12 82 39 43
        E 19 82 3c 28
        E 161 92 37 4c
        E 0 92 3c 50
        E 2 92 3a 5b
        E 480 82 3a 24
        E 9 82 3c 28
        E 11 82 37 43
        E 713 92 39 4a
        E 1 92 35 5c
        E 1 92 30 4f
        E 63 82 30 27
        E 5 82 39 1f
        E 0 82 35 44
        E 155 92 39 4d
        E 2 92 35 59
        E 3 92 30 4f
        E 78 82 39 1a
        E 1 82 35 42
        E 0 82 30 24
        E 142 92 30 4f
        E 0 92 35 5d
        E 1 92 39 50
        E 56 82 30 41
        E 20 82 35 44
        E 29 82 39 15
        E 364 92 3a 50
        E 1 92 37 59
        E 2 92 32 4d
        E 79 82 37 39
        E 4 82 3a 28
        E 1 82 32 35
        E 147 92 3a 53
        E 2 92 37 51
        E 4 92 32 51
        E 82 82 37 34
        E 1 82 32 39
        E 1 82 3a 19
        E 142 92 37 52
        E 1 92 3a 52
        E 1 92 32 53
        E 76 82 32 3f
        E 3 82 37 31
        E 45 82 3a 01
        E 371 92 39 53
        E 3 92 3c 53
        E 57 82 39 47
        E 6 82 3c 2e
        E 53 92 39 60
        E 2 92 3c 52
        E 46 82 39 46
        E 14 82 3c 32
        E 49 92 39 5e
        E 1 92 3c 54
        E 81 82 39 37
        E 8 82 3c 27
        E 160 92 3c 52
        E 0 92 39 5d
        E 73 82 39 34
        E 9 82 3c 25
        E 403 92 3c 4f
        E 1 92 3a 5d
        E 71 82 3a 30
        E 13 82 3c 28
        E 146 92 3c 4d
        E 4 92 3a 61
        E 81 82 3a 36
        E 20 82 3c 1b
        E 148 92 3a 5f
        E 2 92 3c 52
        E 83 82 3a 35
        E 0 82 3c 29
        E 237 92 39 5d
        E 329 82 39 01
        E 86 92 35 56
        E 1 92 3c 52
        E 0 92 39 5e
        E 244 82 39 37
        E 118 82 35 33
        E 29 82 3c 01
        E 87 92 3a 5e
        E 347 82 3a 28
        E 151 92 3a 54
        E 4 92 3e 51
        E 2 92 37 51
        E 237 82 37 32
        E 36 82 3e 01
        E 80 82 3a 39
        E 96 92 35 5d
        E 4 92 3c 49
        E 2 92 39 57
        E 403 82 39 01
        E 78 82 3c 01
        E 21 82 35 4c
        E 459 92 3a 4e
        E 6 92 34 59
        E 456 82 34 4f
        E 27 82 3a 29
        E 495 92 39 5c
        E 3 92 3c 4f
        E 291 82 39 0c
        E 33 82 3c 18
        E 135 92 35 64
        E 354 82 35 0b
        E 129 92 39 57
        E 335 82 39 18
        E 147 92 3c 51
        E 382 82 3c 01
        E 113 92 41 5a
        E 317 82 41 0c
        E 155 92 41 55
        E 317 82 41 23
        E 166 92 3c 56
        E 266 82 3c 01
        E 185 92 39 5f
        E 306 82 39 01
        E 220 92 35 62
        E 526 82 35 47
        E 423 92 41 56
        E 2 92 3c 5a
        E 477 82 41 27
        E 5 82 3c 1a
        E 318 92 35 6a
        E 74 82 35 51
        E 86 92 35 64
        E 1454 82 35 61
        E 461 b0 7b 00
        GUID {0FA19C67-65D1-4C44-961D-F5507577D57B}
        IGNTEMPO 0 120 4 4
        SRCCOLOR 959
        VELLANE -1 86 6
      >
      TAKE
      NAME "trombone(s) - National_Anthems_-_Brazil.mid"
      TAKEVOLPAN 0 1 -1
      SOFFS 0 0
      PLAYRATE 1 1 0 -1 0 0.0025
      CHANMODE 0
      GUID {02C19A70-6033-EA42-AAFF-AD3B5FF10A88}
      <SOURCE MIDI
        HASDATA 1 480 QN
        POOLEDEVTS {20E17268-EFAC-9149-BF88-37A10E9FD46E}
        <X 0 0 0 0 3 trombone(s)
          /wN0cm9tYm9uZShzKQ==
        >
        <X 0 0 0 0 4 "Sound Canvas"
          /wRTb3VuZCBDYW52YXM=
        >
        E 335 92 30 66
        E 54 82 30 50
        E 68 92 30 65
        E 78 92 32 61
        E 12 82 30 51
        E 68 92 30 65
        E 17 82 32 48
        E 71 92 2f 66
        E 2 82 30 4f
        E 88 92 30 63
        E 17 82 2f 3e
        E 129 82 30 4e
        E 5 92 35 66
        E 190 82 35 38
        E 160 92 35 6d
        E 48 82 35 54
        E 66 92 35 6b
        E 65 92 37 58
        E 15 82 35 58
        E 68 92 35 6a
        E 18 82 37 41
        E 62 92 34 66
        E 2 82 35 54
        E 86 92 35 65
        E 15 82 34 44
        E 127 82 35 51
        E 16 92 39 65
        E 183 82 39 2f
        E 163 92 39 65
        E 39 82 39 4b
        E 72 92 39 68
        E 80 92 3a 68
        E 5 82 39 42
        E 81 92 39 5f
        E 10 82 3a 46
        E 75 92 38 68
        E 5 82 39 4d
        E 98 92 39 5a
        E 1 82 38 34
        E 149 82 39 45
        E 22 92 3c 61
        E 203 82 3c 26
        E 268 92 35 67
        E 2 92 30 5c
        E 939 82 35 4b
        E 28 82 30 4a
        E 500 92 3c 4e
        E 6 92 39 59
        E 232 82 3c 01
        E 26 82 39 01
        E 219 92 3c 4c
        E 3 92 39 53
        E 191 82 39 1f
        E 9 82 3c 2e
        E 262 92 3c 52
        E 0 92 39 50
        E 172 82 39 46
        E 46 82 3c 32
        E 247 92 41 4c
        E 3 92 3c 50
        E 177 82 3c 1b
        E 111 82 41 01
        E 193 92 3c 53
        E 264 82 3c 01
        E 209 92 3c 4f
        E 431 82 3c 01
        E 378 92 32 63
        E 49 82 32 4e
        E 85 92 32 65
        E 78 92 34 60
        E 4 82 32 4f
        E 79 92 32 61
        E 12 82 34 43
        E 64 82 32 47
        E 2 92 31 67
        E 103 92 32 5d
        E 25 82 31 01
        E 143 82 32 4b
        E 2 92 37 5b
        E 157 82 37 1c
        E 183 92 37 5e
        E 44 82 37 49
        E 76 92 37 5e
        E 64 92 39 5a
        E 9 82 37 4a
        E 82 92 37 5f
        E 6 82 39 45
        E 74 82 37 42
        E 4 92 36 69
        E 92 92 37 55
        E 27 82 36 26
        E 136 82 37 22
        E 7 92 3a 62
        E 135 82 3a 36
        E 191 92 3a 66
        E 43 82 3a 4a
        E 70 92 3a 67
        E 83 82 3a 46
        E 2 92 3c 5c
        E 83 92 3a 6a
        E 21 82 3c 40
        E 53 82 3a 3c
        E 14 92 39 62
        E 86 92 3a 6b
        E 20 82 39 44
        E 124 82 3a 49
        E 12 92 3e 62
        E 189 82 3e 29
        E 302 92 37 53
        E 4 92 32 53
        E 913 82 37 45
        E 5 82 32 55
        E 513 92 3c 54
        E 2 92 37 53
        E 133 82 37 17
        E 6 82 3c 1e
        E 334 92 3c 4d
        E 1 92 37 4d
        E 161 82 3c 23
        E 40 82 37 0d
        E 283 92 3c 50
        E 1 92 34 4d
        E 190 82 3c 01
        E 36 82 34 0e
        E 267 92 34 51
        E 5 92 3c 50
        E 216 82 3c 01
        E 27 82 34 3b
        E 229 92 3c 50
        E 349 82 3c 01
        E 155 92 3c 51
        E 432 82 3c 2f
        E 357 92 30 5e
        E 45 82 30 4b
        E 87 92 30 60
        E 76 92 32 59
        E 5 82 30 4a
        E 82 92 30 61
        E 14 82 32 41
        E 70 82 30 42
        E 4 92 2f 63
        E 89 92 30 5b
        E 10 82 2f 43
        E 96 82 30 44
        E 64 92 35 56
        E 9 92 30 43
        E 278 82 35 30
        E 84 82 30 01
        E 112 92 3c 51
        E 350 82 3c 01
        E 141 92 39 54
        E 293 82 39 0b
        E 194 92 30 50
        E 347 82 30 14
        E 105 92 35 50
        E 362 82 35 44
        E 142 92 3e 51
        E 396 82 3e 01
        E 116 92 3a 4f
        E 293 82 3a 1d
        E 174 92 37 48
        E 328 82 37 01
        E 126 92 37 48
        E 280 82 37 49
        E 202 92 40 53
        E 353 82 40 01
        E 145 92 3c 4d
        E 318 82 3c 01
        E 157 92 39 50
        E 337 82 39 2b
        E 137 92 39 4d
        E 344 82 39 2d
        E 141 92 3a 49
        E 264 82 3a 20
        E 221 92 3a 48
        E 268 82 3a 27
        E 215 92 3c 4f
        E 301 82 3c 1d
        E 160 92 3c 4a
        E 224 82 3c 29
        E 236 92 3e 49
        E 812 82 3e 0b
        E 169 92 40 55
        E 216 82 40 0f
        E 52 92 3e 53
        E 113 82 3e 28
        E 70 92 35 57
        E 21 92 39 50
        E 318 82 35 01
        E 9 82 39 12
        E 636 92 30 46
        E 395 82 30 3b
        E 566 92 35 5c
        E 189 82 35 4b
        E 275 92 29 53
        E 198 82 29 28
        E 290 92 29 48
        E 205 82 29 01
        E 279 92 29 3e
        E 243 82 29 05
        E 220 92 29 47
        E 227 82 29 01
        E 232 92 29 3a
        E 207 82 29 15
        E 292 92 29 3f
        E 203 82 29 01
        E 272 92 29 40
        E 266 82 29 01
        E 235 92 29 44
        E 208 82 29 01
        E 271 92 29 40
        E 195 82 29 04
        E 278 92 29 49
        E 236 82 29 01
        E 237 92 29 42
        E 249 82 29 01
        E 245 92 29 43
        E 244 82 29 0d
        E 250 92 29 40
        E 251 82 29 01
        E 222 92 29 48
        E 190 82 29 2b
        E 274 92 29 4e
        E 174 82 29 2c
        E 289 92 28 58
        E 166 82 28 1d
        E 313 92 28 4f
        E 206 82 28 0f
        E 283 92 28 54
        E 195 82 28 01
        E 307 92 28 4e
        E 190 82 28 1f
        E 279 92 28 51
        E 204 82 28 17
        E 271 92 28 52
        E 189 82 28 01
        E 271 92 28 53
        E 178 82 28 19
        E 311 92 28 4f
        E 173 82 28 18
        E 335 92 28 4d
        E 173 82 28 26
        E 301 92 28 56
        E 179 82 28 1b
        E 288 92 28 52
        E 189 82 28 17
        E 305 92 28 50
        E 203 82 28 2e
        E 270 92 28 56
        E 177 82 28 29
        E 295 92 28 53
        E 222 82 28 01
        E 254 92 28 4f
        E 236 82 28 0c
        E 250 92 28 57
        E 163 82 28 2a
        E 306 92 29 51
        E 211 82 29 14
        E 284 92 29 4e
        E 157 82 29 11
        E 315 92 29 52
        E 442 82 29 2e
        E 758 92 39 5b
        E 70 82 39 3b
        E 61 92 39 5f
        E 64 82 39 41
        E 57 92 39 62
        E 86 82 39 39
        E 153 92 39 55
        E 92 82 39 38
        E 149 92 39 4f
        E 502 82 39 3c
        E 937 92 3e 5a
        E 334 82 3e 01
        E 143 92 37 4e
        E 527 82 37 51
        E 400 92 39 52
        E 198 82 39 29
        E 294 92 39 4d
        E 194 82 39 21
        E 286 92 39 4c
        E 187 82 39 1c
        E 303 92 39 4e
        E 213 82 39 0b
        E 519 92 32 5b
        E 128 82 32 0e
        E 122 92 39 58
        E 114 82 39 28
        E 122 92 35 63
        E 131 82 35 31
        E 129 92 32 50
        E 493 82 32 3f
        E 677 92 37 51
        E 65 82 37 37
        E 55 92 37 58
        E 65 82 37 3e
        E 53 92 37 5e
        E 84 82 37 3d
        E 145 92 37 50
        E 94 82 37 2e
        E 138 92 37 4e
        E 452 82 37 43
        E 1029 92 3c 4b
        E 269 82 3c 08
        E 184 92 35 58
        E 479 82 35 4e
        E 457 92 37 43
        E 205 82 37 24
        E 293 92 37 3d
        E 205 82 37 32
        E 281 92 37 49
        E 187 82 37 0c
        E 276 92 37 4b
        E 201 82 37 1c
        E 285 92 30 48
        E 225 82 30 14
        E 238 92 37 3e
        E 485 82 37 01
        E 267 92 30 46
        E 161 82 30 27
        E 87 92 34 4c
        E 167 82 34 13
        E 52 92 37 37
        E 72 82 37 40
        E 172 92 3a 2b
        E 1 92 34 50
        E 5 92 37 4b
        E 61 82 37 18
        E 4 82 34 26
        E 15 82 3a 28
        E 141 92 3a 4a
        E 13 92 37 4e
        E 1 92 34 5b
        E 58 82 37 17
        E 7 82 34 3b
        E 4 82 3a 14
        E 157 92 3a 43
        E 5 92 34 5c
        E 1 92 37 50
        E 72 82 37 10
        E 1 82 34 35
        E 6 82 3a 10
        E 152 92 3a 45
        E 8 92 37 4d
        E 1 92 34 58
        E 69 82 37 01
        E 1 82 34 2d
        E 7 82 3a 1f
        E 145 92 3a 4c
        E 6 92 37 4d
        E 0 92 34 58
        E 79 82 37 0f
        E 1 82 34 33
        E 6 82 3a 1e
        E 141 92 3a 4c
        E 4 92 37 50
        E 4 92 34 5c
        E 71 82 34 2e
        E 5 82 37 15
        E 2 82 3a 0f
        E 154 92 3a 4a
        E 3 92 34 5c
        E 1 92 37 4f
        E 81 82 3a 1b
        E 4 82 34 37
        E 0 82 37 24
        E 153 92 3a 4b
        E 2 92 34 58
        E 0 92 37 4d
        E 83 82 37 14
        E 2 82 34 38
        E 3 82 3a 12
        E 162 92 37 49
        E 10 92 3a 3d
        E 482 82 37 4a
        E 0 82 3a 3a
        E 1451 92 3c 43
        E 3 92 39 50
        E 161 82 39 01
        E 7 82 3c 01
        E 309 92 3c 2f
        E 2 92 39 42
        E 139 82 39 01
        E 32 82 3c 01
        E 293 92 3c 30
        E 1 92 39 44
        E 160 82 39 12
        E 18 82 3c 16
        E 304 92 3c 44
        E 6 92 39 46
        E 151 82 39 01
        E 11 82 3c 01
        E 321 92 39 43
        E 2 92 3c 32
        E 128 82 39 03
        E 7 82 3c 16
        E 334 92 3c 39
        E 4 92 39 49
        E 158 82 39 01
        E 25 82 3c 01
        E 310 92 39 44
        E 2 92 3c 31
        E 136 82 39 16
        E 7 82 3c 1a
        E 329 92 39 3d
        E 0 92 3c 40
        E 136 82 39 09
        E 1 82 3c 14
        E 348 92 39 42
        E 1 92 3c 33
        E 144 82 39 01
        E 9 82 3c 19
        E 324 92 3c 40
        E 0 92 39 46
        E 125 82 39 03
        E 12 82 3c 28
        E 352 92 3c 35
        E 5 92 39 42
        E 161 82 39 01
        E 12 82 3c 01
        E 303 92 3c 38
        E 4 92 39 48
        E 120 82 39 2e
        E 25 82 3c 22
        E 319 92 3a 4d
        E 1 92 3c 32
        E 111 82 3a 29
        E 39 82 3c 1d
        E 328 92 3a 49
        E 4 92 3c 29
        E 117 82 3a 16
        E 37 82 3c 01
        E 328 92 3a 43
        E 3 92 3c 32
        E 122 82 3a 22
        E 32 82 3c 1f
        E 335 92 3c 29
        E 1 92 3a 44
        E 123 82 3a 27
        E 33 82 3c 0f
        E 318 92 3a 48
        E 4 92 3c 2c
        E 111 82 3a 1b
        E 34 82 3c 1e
        E 324 92 3a 49
        E 6 92 3c 24
        E 108 82 3a 08
        E 20 82 3c 25
        E 338 92 3a 4b
        E 11 92 3c 2e
        E 111 82 3a 07
        E 17 82 3c 07
        E 357 92 3a 50
        E 9 92 3c 2e
        E 86 82 3a 18
        E 33 82 3c 19
        E 342 92 3a 4c
        E 4 92 3c 27
        E 83 82 3a 1a
        E 28 82 3c 20
        E 361 92 3a 51
        E 7 92 3c 3a
        E 96 82 3a 10
        E 22 82 3c 22
        E 366 92 3a 58
        E 1 92 3c 42
        E 119 82 3a 01
        E 24 82 3c 17
        E 341 92 3a 56
        E 1 92 3c 3a
        E 103 82 3a 09
        E 35 82 3c 25
        E 325 92 3a 54
        E 3 92 3c 32
        E 105 82 3a 01
        E 25 82 3c 17
        E 359 92 3a 54
        E 6 92 3c 37
        E 96 82 3a 01
        E 17 82 3c 1e
        E 349 92 3a 4d
        E 10 92 3c 29
        E 108 82 3a 01
        E 18 82 3c 13
        E 335 92 3a 49
        E 4 92 3c 34
        E 121 82 3a 1a
        E 3 82 3c 19
        E 368 92 3c 39
        E 6 92 39 4d
        E 109 82 39 0a
        E 25 82 3c 1e
        E 346 92 3c 2f
        E 5 92 39 4a
        E 107 82 39 0e
        E 23 82 3c 2f
        E 332 92 3c 2f
        E 2 92 39 46
        E 438 82 39 0a
        E 5 82 3c 1f
        E 775 92 33 5a
        E 3 92 35 59
        E 77 82 33 3a
        E 13 82 35 25
        E 336 92 33 5e
        E 6 92 35 5a
        E 111 82 33 0e
        E 13 82 35 2a
        E 353 92 33 4c
        E 6 92 35 4f
        E 91 82 33 28
        E 12 82 35 16
        E 361 92 33 4e
        E 8 92 35 5c
        E 102 82 35 32
        E 6 82 33 2a
        E 385 92 32 52
        E 4 92 35 5e
        E 87 82 32 4a
        E 16 82 35 4c
        E 388 92 3a 5f
        E 4 92 3e 4c
        E 88 82 3a 37
        E 17 82 3e 1c
        E 353 92 3a 56
        E 7 92 35 60
        E 103 82 3a 22
        E 1 82 35 3f
        E 367 92 32 58
        E 7 92 35 5c
        E 105 82 32 3e
        E 2 82 35 30
        E 377 92 37 51
        E 1 92 35 5a
        E 91 82 35 39
        E 32 82 37 3e
        E 356 92 3b 4d
        E 3 92 35 58
        E 103 82 35 3e
        E 24 82 3b 2c
        E 360 92 35 53
        E 3 92 37 4d
        E 107 82 35 3d
        E 1 82 37 0a
        E 337 92 37 50
        E 1 92 35 54
        E 93 82 35 1c
        E 18 82 37 2a
        E 414 92 37 53
        E 7 92 34 5c
        E 96 82 34 48
        E 11 82 37 41
        E 360 92 40 52
        E 4 92 3c 50
        E 107 82 3c 1e
        E 13 82 40 20
        E 322 92 3c 53
        E 1 92 37 4c
        E 104 82 3c 35
        E 17 82 37 45
        E 376 92 34 53
        E 1 92 37 51
        E 96 82 37 37
        E 29 82 34 3f
        E 333 92 37 4c
        E 2 92 39 58
        E 91 82 37 41
        E 35 82 39 3b
        E 362 92 3d 5a
        E 7 92 37 4b
        E 98 82 3d 24
        E 16 82 37 2b
        E 375 92 39 50
        E 1 92 37 4a
        E 94 82 39 22
        E 14 82 37 0f
        E 369 92 39 51
        E 1 92 37 4f
        E 100 82 39 2c
        E 1 82 37 31
        E 380 92 35 61
        E 3 92 39 4f
        E 94 82 35 4b
        E 21 82 39 01
        E 359 92 3e 4c
        E 1 92 39 51
        E 79 82 39 35
        E 17 82 3e 27
        E 167 92 3a 48
        E 9 92 32 4a
        E 0 92 37 55
        E 700 82 37 16
        E 13 82 3a 1f
        E 0 82 32 43
        E 449 92 35 45
        E 1 92 39 57
        E 0 92 3c 4a
        E 45 82 39 3e
        E 6 82 35 4c
        E 4 82 3c 2e
        E 57 92 39 5c
        E 1 92 35 61
        E 0 92 3c 54
        E 45 82 39 47
        E 5 82 35 46
        E 2 82 3c 3c
        E 60 92 39 5a
        E 1 92 3c 51
        E 1 92 35 63
        E 71 82 39 2a
        E 0 82 35 3e
        E 15 82 3c 1d
        E 168 92 39 5b
        E 1 92 3c 54
        E 0 92 35 5f
        E 46 82 35 4d
        E 12 82 39 43
        E 19 82 3c 28
        E 161 92 37 4c
        E 0 92 3c 50
        E 2 92 3a 5b
        E 480 82 3a 24
        E 9 82 3c 28
        E 11 82 37 43
        E 713 92 39 4a
        E 1 92 35 5c
        E 1 92 30 4f
        E 63 82 30 27
        E 5 82 39 1f
        E 0 82 35 44
        E 155 92 39 4d
        E 2 92 35 59
        E 3 92 30 4f
        E 78 82 39 1a
        E 1 82 35 42
        E 0 82 30 24
        E 142 92 30 4f
        E 0 92 35 5d
        E 1 92 39 50
        E 56 82 30 41
        E 20 82 35 44
        E 29 82 39 15
        E 364 92 3a 50
        E 1 92 37 59
        E 2 92 32 4d
        E 79 82 37 39
        E 4 82 3a 28
        E 1 82 32 35
        E 147 92 3a 53
        E 2 92 37 51
        E 4 92 32 51
        E 82 82 37 34
        E 1 82 32 39
        E 1 82 3a 19
        E 142 92 37 52
        E 1 92 3a 52
        E 1 92 32 53
        E 76 82 32 3f
        E 3 82 37 31
        E 45 82 3a 01
        E 371 92 39 53
        E 3 92 3c 53
        E 57 82 39 47
        E 6 82 3c 2e
        E 53 92 39 60
        E 2 92 3c 52
        E 46 82 39 46
        E 14 82 3c 32
        E 49 92 39 5e
        E 1 92 3c 54
        E 81 82 39 37
        E 8 82 3c 27
        E 160 92 3c 52
        E 0 92 39 5d
        E 73 82 39 34
        E 9 82 3c 25
        E 403 92 3c 4f
        E 1 92 3a 5d
        E 71 82 3a 30
        E 13 82 3c 28
        E 146 92 3c 4d
        E 4 92 3a 61
        E 81 82 3a 36
        E 20 82 3c 1b
        E 148 92 3a 5f
        E 2 92 3c 52
        E 83 82 3a 35
        E 0 82 3c 29
        E 237 92 39 5d
        E 329 82 39 01
        E 86 92 35 56
        E 1 92 3c 52
        E 0 92 39 5e
        E 244 82 39 37
        E 118 82 35 33
        E 29 82 3c 01
        E 87 92 3a 5e
        E 347 82 3a 28
        E 151 92 3a 54
        E 4 92 3e 51
        E 2 92 37 51
        E 237 82 37 32
        E 36 82 3e 01
        E 80 82 3a 39
        E 96 92 35 5d
        E 4 92 3c 49
        E 2 92 39 57
        E 403 82 39 01
        E 78 82 3c 01
        E 21 82 35 4c
        E 459 92 3a 4e
        E 6 92 34 59
        E 456 82 34 4f
        E 27 82 3a 29
        E 495 92 39 5c
        E 3 92 3c 4f
        E 291 82 39 0c
        E 33 82 3c 18
        E 135 92 35 64
        E 354 82 35 0b
        E 129 92 39 57
        E 335 82 39 18
        E 147 92 3c 51
        E 382 82 3c 01
        E 113 92 41 5a
        E 317 82 41 0c
        E 155 92 41 55
        E 317 82 41 23
        E 166 92 3c 56
        E 266 82 3c 01
        E 185 92 39 5f
        E 306 82 39 01
        E 220 92 35 62
        E 526 82 35 47
        E 423 92 41 56
        E 2 92 3c 5a
        E 477 82 41 27
        E 5 82 3c 1a
        E 318 92 35 6a
        E 74 82 35 51
        E 86 92 35 64
        E 1454 82 35 61
        E 461 b0 7b 00
        GUID {1AD72172-51A4-2945-B27A-99E5C2723562}
        IGNTEMPO 0 120 4 4
        SRCCOLOR 971
        VELLANE -1 86 6
      >
    >
  >
  <TRACK {9E2CAE92-CCC1-1F4A-BCF6-93DCFE473BDF}
    NAME "16th pulse (mix w/ send?)"
    PEAKCOL 16576
    BEAT -1
    AUTOMODE 0
    VOLPAN 0.47543563359423 0 -1 -1 1
    MUTESOLO 0 0 0
    IPHASE 0
    ISBUS 0 0
    BUSCOMP 0 0
    SHOWINMIX 1 0.6667 0.5 1 0.5 0 0 0
    FREEMODE 0
    SEL 0
    REC 0 0 0 0 0 0 0
    VU 2
    TRACKHEIGHT 146 0
    INQ 0 0 0 0.5 100 0 0 100
    NCHAN 2
    FX 1
    TRACKID {9E2CAE92-CCC1-1F4A-BCF6-93DCFE473BDF}
    PERF 0
    MIDIOUT -1
    MAINSEND 1 0
    <FXCHAIN
      WNDRECT 36 359 724 387
      SHOW 0
      LASTSEL 0
      DOCKED 0
      BYPASS 0 0 0
      <VST "VSTi: chipsounds (Plogue Art et Technologie, Inc)" chipsounds.vst 0 "" 1347176271
        T0dMUO5e7f4AAAAABAAAAAEAAAAAAAAAAgAAAAAAAAAEAAAAAAAAAAgAAAAAAAAAugQAAAEAAAAAABAA
        Q0VHUF4fAAB4nO1ZS2/jNhC+51cIOrWHlUg9SBGws7CduDBQdwM4PS8YmXGE6rUS5Wb76zt6JXTWjJSsF12gnovl0cxw5iM5oj5NPj4msbEXRRll6dTEFjKNj5cXk1kR
        8Q3fC+UWw8Q08iLbVqFcXYECIWZeXhggk42QMkp3pfGl4nEkv8Jd0yhlIXgC6qnpOqaR8MdNo5nFcRau51PTx6Ber65Wnyq5zrai8eKVzBIuYcxNnMmpiVRVLPYinppR
        CrGrRKTSNOJoL1pnsCzDqelg6tZXPOagw8YHQ9RZWWUYd+oFOIpiahLw2MXZHY9vq7TJExR2XxKMbkTbRpfypI6PLeOmKoSxeIhye7O6sokfYOOXP243i19N446nf622
        HS4KboEDVYYPPE3r1CFansUtQPJ51Pzuc8HTHYzyAW7kEv6UzY1EucxCCVPyVCj2QFfJTvH355iXgJfXzUlTxJpHaV/EnsdVC7F9zAI/WSCNhTNo4Q5aeIMW/qAFGbSg
        gxbBoAUbtMBo2GQYVTwMKx7GFQ8Di7XI3vCCJy+mGOtMtAM9m9DhKCp2lsd8VItHSeDSus1onJSxLcdljXjE9f3A0fqMSUaZaws7bVzfcTFxAk8LFR4OTLUrRLEZE8dR
        0XIbsBDFvuP7VJsgVdHyvKaoIECUIaofSFkjFiEtEBQFHgGMtU7aDanYKBvOou18Y0ICBsX4Wic2DE2g7WyKDVHnt0UPYY8hjInWiakrFLvtCvVd4nlYiwR2sVqmhzDM
        TwCuAaxWqvcaUSdDz/loNwhU9GSk3REMjdjlDI3Y5wyRMZGCMUYjIKhnbjgpsBpRH3aQq7O65cVOyO6hH2aJdRNnu0pY9ZnI+n35yapKUSDlMdt4LaoSTilXXHLjQX7N
        wdWnPlRVRv/AtUc85UwAyYt0G/H2cgs+cNHLsv1x0FnOcpafRQ57hN02ibd2DXzuGmc5y/9H3ts1bototxPFRnypRBqKYrhveK7n9n2jORT3bcM51ja6U/CyE0Tqf3QJ
        /WOO5nQ5/6YQd0GX7GiJtItFkA8y8926FdFD7bzVLnptNzpqtOhQuwDtK7BN7JqZeUnS4JOSNLgnaZxnkgaflKVxzizNmaV5L0ujvmQ2r9G02TgeYsglbJjbQRaDXYkx
        o74TBC7DY8gey6EebGYWMM8nmBI9HfBG9kf/+v829gQieSN5BVcFkI2kRlQs3BbxQcbqgE9xMBs30gg+5YDS6AghmFAHMUe7AFQKQcsaqRTCK6/rP4JCeIWxOCGFoM38
        xzyKseu/9Vk875/F2D/Js3jx02qP5HuS16y3kjPBe9+yDg4uR+R64H4n/8m75buLPpGMPeNd39+LUKqf4/pjVYvHLLmL6o05cLjrv+v99ueqj8NDGe3F6vk7Y/P/+ul/
        KWIYWWxv+V3dLdSOUohSyLVIKyMqe3PZVPB67zCkeAST++hePsAJksuHqWnP8jyOwuYDZ2m3nnAWjfIyq9ItaJrBSvuVuPYCjpVlFBqzIhe7XZSVdjOExWGF5C+64Te5
        46O5d6G4zJ7SnsdR/h1ZKxHtOtT3ZKdDFjJIRMFPim2zjxRouzFepD+xYWldXkzs/tv55cW/O5h93A==
        AAAQAAAA
      >
      FLOATPOS 409 269 870 508
      FXID {DC79668B-30D1-964C-A162-F245DBE294B0}
      WAK 0
      BYPASS 1 0 0
      <VST "VST: 8-Bit Shaper (Xfer Records)" 8BitShaper.vst 0 "" 1148539762
        clN1RO5e7f4CAAAAAQAAAAAAAAACAAAAAAAAAAQAAAABAAAAAAAAAAIAAAAAAAAABAAAAAAAAAAIAAAAAAAAADQCAAABAAAAAAAQAA==
        ZmaGP20MlT7dQQw/AAAAPyQAAQEAAIA/AAAAAAAAAAAXAAAAMAAAABkAAAAaAAAAGgAAABoAAAAbAAAAGwAAABwAAAAcAAAAHAAAAB0AAAAdAAAAHgAAAB4AAAAfAAAA
        HwAAACAAAAAgAAAAIAAAACEAAAAhAAAAIQAAACIAAAAiAAAAIgAAACMAAAAjAAAAIwAAACQAAAAkAAAAJAAAACUAAAAlAAAAKAAAACgAAAApAAAAKQAAACoAAAA1AAAA
        KgAAACoAAAA2AAAAKgAAACoAAAAqAAAAKgAAACoAAAAqAAAAKgAAACsAAAArAAAAOQAAAC0AAAA0AAAAOgAAAC0AAAAtAAAAPAAAAC4AAAAuAAAALwAAADAAAAAwAAAA
        MQAAADEAAAAxAAAAMgAAADMAAAAzAAAAMwAAADcAAAA3AAAANwAAADgAAAA4AAAAOAAAADkAAAA5AAAAOQAAADoAAAA6AAAAOgAAADoAAAA6AAAAOwAAADsAAAA7AAAA
        PAAAADsAAAA7AAAAOwAAADwAAAA8AAAAPAAAADwAAAA9AAAAPQAAAD0AAAA9AAAAPQAAAD4AAAA+AAAAPwAAAEkAAABAAAAAQAAAAEgAAABAAAAAQQAAAEIAAABCAAAA
        QgAAAEMAAABDAAAAQwAAAEQAAABEAAAARQAAAE0AAABGAAAARwAAAEYAAABHAAAASAAAAEgAAABJAAAATwAAAAAAgD+rqio/q6qqPlsP0D6OAm0/
        AEluaXQgMQAQAAAA
      >
      PRESETNAME "Init 1"
      FLOATPOS 466 36 278 389
      FXID {8D41C7C8-FDD9-0B46-8F32-7407BD5E7789}
      WAK 0
    >
    <ITEM
      POSITION 0
      SNAPOFFS 0
      LENGTH 112.5
      LOOP 1
      ALLTAKES 0
      FADEIN 1 0 0 1 0 0
      FADEOUT 1 0 0 1 0 0
      MUTE 0
      SEL 0
      YPOS 0.666667 0.333333
      IGUID {32C59EB5-B36E-D149-BB85-992663AF54BC}
      IID 17
      NAME "tuba(s) - National_Anthems_-_Brazil.mid"
      VOLPAN 1 0 1 -1
      SOFFS 0 0
      PLAYRATE 1 1 0 -1 0 0.0025
      CHANMODE 0
      TAKECOLOR 26173599 B
      GUID {27D58BF4-314A-E147-B9AA-E26553CF48F4}
      <SOURCE MIDI
        HASDATA 1 480 QN
        POOLEDEVTS {2C5702B8-7C20-DC40-B1FF-AB69516320CD}
        <X 0 0 0 0 3 tuba(s)
          /wN0dWJhKHMp
        >
        <X 0 0 0 0 4 "Sound Canvas"
          /wRTb3VuZCBDYW52YXM=
        >
        E 335 90 24 64
        E 55 80 24 00
        E 93 90 24 64
        E 84 90 26 60
        E 9 80 24 00
        E 79 90 24 62
        E 13 80 26 00
        E 66 80 24 00
        E 3 90 23 65
        E 85 90 24 5f
        E 16 80 23 00
        E 124 80 24 00
        E 2 90 29 67
        E 175 80 29 00
        E 136 90 29 6a
        E 50 80 29 00
        E 94 90 29 68
        E 60 90 2b 5c
        E 14 80 29 00
        E 69 90 29 6b
        E 42 80 2b 00
        E 30 80 29 00
        E 7 90 28 60
        E 87 90 29 6a
        E 18 80 28 00
        E 117 80 29 00
        E 10 90 2d 67
        E 190 80 2d 00
        E 167 90 2d 67
        E 45 80 2d 00
        E 79 90 2d 64
        E 87 90 2e 63
        E 3 80 2d 00
        E 89 90 2d 5f
        E 3 80 2e 00
        E 77 90 2c 66
        E 5 80 2d 00
        E 93 90 2d 62
        E 13 80 2c 00
        E 128 80 2d 00
        E 17 90 30 64
        E 168 80 30 00
        E 280 90 1d 6a
        E 1084 80 1d 00
        E 421 90 29 56
        E 302 80 29 00
        E 165 90 29 57
        E 284 80 29 00
        E 174 90 29 58
        E 266 80 29 00
        E 214 90 29 60
        E 259 80 29 00
        E 203 90 28 53
        E 343 80 28 00
        E 161 90 28 4b
        E 512 80 28 00
        E 271 90 26 67
        E 52 80 26 00
        E 114 90 26 64
        E 81 90 28 55
        E 2 80 26 00
        E 85 90 26 54
        E 10 80 28 00
        E 68 90 25 66
        E 1 80 26 00
        E 102 90 26 60
        E 4 80 25 00
        E 125 80 26 00
        E 8 90 2b 58
        E 189 80 2b 00
        E 153 90 2b 5b
        E 44 80 2b 00
        E 93 90 2b 60
        E 70 90 2d 59
        E 5 80 2b 00
        E 84 90 2b 59
        E 2 80 2d 00
        E 78 90 2a 65
        E 4 80 2b 00
        E 104 90 2b 62
        E 3 80 2a 00
        E 121 80 2b 00
        E 19 90 2e 67
        E 148 80 2e 00
        E 215 90 2e 66
        E 58 80 2e 00
        E 62 90 2e 63
        E 73 90 30 5b
        E 1 80 2e 00
        E 93 90 2e 69
        E 23 80 30 00
        E 59 90 2d 5e
        E 4 80 2e 00
        E 80 90 2e 69
        E 16 80 2d 00
        E 119 80 2e 00
        E 8 90 32 55
        E 216 80 32 00
        E 257 90 1f 6a
        E 1007 80 1f 00
        E 428 90 24 53
        E 303 80 24 00
        E 184 90 24 52
        E 318 80 24 00
        E 167 90 24 4f
        E 349 80 24 00
        E 143 90 24 52
        E 304 80 24 00
        E 166 90 29 5e
        E 294 80 29 00
        E 202 90 29 61
        E 528 80 29 00
        E 248 90 24 5d
        E 67 80 24 00
        E 97 90 24 5c
        E 65 90 26 62
        E 7 80 24 00
        E 79 90 24 50
        E 30 80 26 00
        E 57 90 23 5a
        E 13 80 24 00
        E 78 90 24 52
        E 19 80 23 00
        E 144 80 24 00
        E 0 90 1d 5c
        E 310 80 1d 00
        E 213 90 2d 4c
        E 342 80 2d 00
        E 88 90 29 64
        E 299 80 29 00
        E 169 90 1d 62
        E 289 80 1d 00
        E 22 90 1f 5b
        E 83 90 21 5c
        E 5 80 1f 00
        E 99 90 22 5f
        E 4 80 21 00
        E 255 80 22 00
        E 220 90 2e 62
        E 374 80 2e 00
        E 138 90 2b 5a
        E 311 80 2b 00
        E 151 90 1f 66
        E 252 80 1f 00
        E 3 90 21 55
        E 96 90 22 65
        E 14 80 21 00
        E 83 80 22 00
        E 0 90 24 5b
        E 258 80 24 00
        E 238 90 30 58
        E 463 80 30 00
        E 28 90 2d 58
        E 317 80 2d 00
        E 150 90 21 67
        E 251 80 21 00
        E 4 90 22 67
        E 111 90 24 55
        E 11 80 22 00
        E 92 80 24 00
        E 1 90 26 59
        E 312 80 26 00
        E 204 90 22 67
        E 323 90 24 57
        E 5 80 22 00
        E 80 90 26 53
        E 19 80 24 00
        E 70 90 28 62
        E 4 80 26 00
        E 273 80 28 00
        E 186 90 24 62
        E 305 80 24 00
        E 1 90 26 53
        E 83 90 28 57
        E 18 80 26 00
        E 69 80 28 00
        E 0 90 29 68
        E 290 80 29 00
        E 191 90 23 66
        E 741 80 23 00
        E 194 90 34 62
        E 250 80 34 00
        E 48 90 32 5e
        E 59 80 32 00
        E 118 90 24 67
        E 382 80 24 00
        E 586 90 18 6a
        E 529 80 18 00
        E 406 90 29 65
        E 307 80 29 00
        E 190 90 1d 60
        E 241 80 1d 00
        E 240 90 1d 5e
        E 215 80 1d 00
        E 265 90 1d 58
        E 252 80 1d 00
        E 215 90 1d 60
        E 251 80 1d 00
        E 228 90 1d 57
        E 260 80 1d 00
        E 208 90 1d 5a
        E 271 80 1d 00
        E 219 90 1d 5b
        E 295 80 1d 00
        E 197 90 1d 55
        E 298 80 1d 00
        E 195 90 1d 59
        E 221 80 1d 00
        E 236 90 1d 5b
        E 254 80 1d 00
        E 238 90 1d 58
        E 255 80 1d 00
        E 226 90 1d 55
        E 231 80 1d 00
        E 256 90 1d 5c
        E 251 80 1d 00
        E 220 90 1d 5c
        E 243 80 1d 00
        E 233 90 1d 63
        E 279 80 1d 00
        E 199 90 1c 62
        E 234 80 1c 00
        E 253 90 1c 61
        E 219 80 1c 00
        E 258 90 1c 61
        E 212 80 1c 00
        E 267 90 1c 5a
        E 230 80 1c 00
        E 256 90 1c 62
        E 244 80 1c 00
        E 224 90 1c 61
        E 244 80 1c 00
        E 244 90 1c 62
        E 259 80 1c 00
        E 219 90 1c 5e
        E 229 80 1c 00
        E 258 90 1c 5b
        E 277 80 1c 00
        E 215 90 1c 60
        E 174 80 1c 00
        E 305 90 1c 62
        E 208 80 1c 00
        E 265 90 1c 61
        E 222 80 1c 00
        E 258 90 1c 60
        E 271 80 1c 00
        E 202 90 1c 61
        E 199 80 1c 00
        E 286 90 1c 64
        E 251 80 1c 00
        E 236 90 1c 63
        E 238 80 1c 00
        E 224 90 1d 60
        E 278 80 1d 00
        E 214 90 1d 60
        E 279 80 1d 00
        E 211 90 1d 5e
        E 483 80 1d 00
        E 698 90 21 61
        E 60 80 21 00
        E 57 90 21 66
        E 61 80 21 00
        E 75 90 25 6a
        E 91 80 25 00
        E 145 90 28 5d
        E 100 80 28 00
        E 129 90 2d 63
        E 512 80 2d 00
        E 927 90 26 65
        E 364 80 26 00
        E 137 90 1f 63
        E 533 80 1f 00
        E 384 90 21 5e
        E 258 80 21 00
        E 243 90 21 5f
        E 274 80 21 00
        E 209 90 21 62
        E 254 80 21 00
        E 223 90 21 62
        E 271 80 21 00
        E 457 90 26 68
        E 129 80 26 00
        E 112 90 21 67
        E 144 80 21 00
        E 96 90 1d 60
        E 133 80 1d 00
        E 110 90 1a 5c
        E 514 80 1a 00
        E 685 90 1f 64
        E 53 80 1f 00
        E 61 90 1f 60
        E 99 80 1f 00
        E 25 90 23 67
        E 123 80 23 00
        E 89 90 26 62
        E 102 80 26 00
        E 132 90 2b 5c
        E 531 80 2b 00
        E 938 90 24 60
        E 315 80 24 00
        E 180 90 1d 63
        E 516 80 1d 00
        E 421 90 1f 5e
        E 199 80 1f 00
        E 290 90 1f 5d
        E 207 80 1f 00
        E 265 90 1f 5f
        E 221 80 1f 00
        E 252 90 1f 60
        E 159 80 1f 00
        E 301 90 24 53
        E 314 80 24 00
        E 183 90 24 58
        E 511 80 24 00
        E 222 90 24 5f
        E 173 80 24 00
        E 62 90 28 5f
        E 196 80 28 00
        E 41 90 2b 55
        E 162 80 2b 00
        E 101 90 24 5c
        E 124 80 24 00
        E 120 90 24 52
        E 105 80 24 00
        E 115 90 24 58
        E 129 80 24 00
        E 106 90 24 55
        E 122 80 24 00
        E 105 90 24 59
        E 128 80 24 00
        E 117 90 24 5f
        E 116 80 24 00
        E 106 90 24 61
        E 119 80 24 00
        E 122 90 24 60
        E 135 80 24 00
        E 114 90 24 60
        E 749 80 24 00
        E 1218 90 29 65
        E 227 80 29 00
        E 99 90 24 58
        E 118 80 24 00
        E 3 90 29 64
        E 218 80 29 00
        E 137 90 24 50
        E 131 90 29 5c
        E 5 80 24 00
        E 232 80 29 00
        E 119 90 24 52
        E 137 90 29 60
        E 1 80 24 00
        E 208 80 29 00
        E 145 90 24 4f
        E 127 90 29 60
        E 18 80 24 00
        E 197 80 29 00
        E 135 90 24 51
        E 131 90 29 62
        E 9 80 24 00
        E 200 80 29 00
        E 140 90 24 52
        E 143 90 29 65
        E 10 80 24 00
        E 197 80 29 00
        E 133 90 24 52
        E 129 90 29 67
        E 5 80 24 00
        E 181 80 29 00
        E 162 90 24 55
        E 133 90 29 66
        E 21 80 24 00
        E 189 80 29 00
        E 130 90 24 4e
        E 137 90 29 61
        E 24 80 24 00
        E 161 80 29 00
        E 160 90 24 55
        E 137 90 29 68
        E 10 80 24 00
        E 161 80 29 00
        E 164 90 24 55
        E 137 90 29 63
        E 24 80 24 00
        E 173 80 29 00
        E 134 90 24 4c
        E 127 90 28 5a
        E 15 80 24 00
        E 177 80 28 00
        E 165 90 24 48
        E 144 90 28 59
        E 27 80 24 00
        E 171 80 28 00
        E 154 90 24 43
        E 130 90 28 57
        E 23 80 24 00
        E 178 80 28 00
        E 162 90 24 42
        E 137 90 28 58
        E 15 80 24 00
        E 151 80 28 00
        E 162 90 24 44
        E 138 90 28 5e
        E 16 80 24 00
        E 146 80 28 00
        E 155 90 24 3f
        E 139 90 28 56
        E 16 80 24 00
        E 164 80 28 00
        E 161 90 24 49
        E 148 90 28 5b
        E 30 80 24 00
        E 157 80 28 00
        E 162 90 24 47
        E 127 90 28 56
        E 28 80 24 00
        E 173 80 28 00
        E 151 90 24 4c
        E 152 90 28 59
        E 19 80 24 00
        E 141 80 28 00
        E 175 90 24 45
        E 150 90 28 5c
        E 21 80 24 00
        E 122 80 28 00
        E 190 90 24 4d
        E 137 90 28 5a
        E 27 80 24 00
        E 132 80 28 00
        E 195 90 24 4d
        E 131 90 28 59
        E 41 80 24 00
        E 115 80 28 00
        E 197 90 24 4e
        E 139 90 28 60
        E 25 80 24 00
        E 136 80 28 00
        E 177 90 24 4c
        E 137 90 28 5a
        E 20 80 24 00
        E 125 80 28 00
        E 196 90 24 53
        E 116 90 28 5e
        E 23 80 24 00
        E 156 80 28 00
        E 163 90 24 54
        E 139 90 28 60
        E 20 80 24 00
        E 136 80 28 00
        E 163 90 24 50
        E 151 90 29 65
        E 4 80 24 00
        E 139 80 29 00
        E 190 90 24 4d
        E 163 80 24 00
        E 6 90 29 64
        E 159 80 29 00
        E 164 90 24 51
        E 157 80 24 00
        E 8 90 29 67
        E 382 80 29 00
        E 570 90 21 66
        E 214 80 21 00
        E 258 90 24 5e
        E 224 80 24 00
        E 246 90 1d 61
        E 238 80 1d 00
        E 249 90 21 64
        E 241 80 21 00
        E 246 90 22 68
        E 237 80 22 00
        E 247 90 29 68
        E 231 80 29 00
        E 239 90 26 64
        E 231 80 26 00
        E 238 90 22 69
        E 220 80 22 00
        E 265 90 23 65
        E 264 80 23 00
        E 244 90 26 61
        E 195 80 26 00
        E 286 90 1f 67
        E 247 80 1f 00
        E 232 90 23 64
        E 261 80 23 00
        E 200 90 24 5c
        E 270 80 24 00
        E 219 90 2b 58
        E 248 80 2b 00
        E 219 90 28 5f
        E 248 80 28 00
        E 246 90 24 5f
        E 263 80 24 00
        E 212 90 25 67
        E 246 80 25 00
        E 232 90 28 5e
        E 255 80 28 00
        E 232 90 21 64
        E 265 80 21 00
        E 219 90 25 66
        E 267 80 25 00
        E 197 90 26 5e
        E 294 80 26 00
        E 205 90 29 67
        E 250 80 29 00
        E 223 90 22 65
        E 505 80 22 00
        E 654 90 24 5f
        E 66 80 24 00
        E 56 90 24 5d
        E 56 80 24 00
        E 50 90 24 61
        E 93 80 24 00
        E 161 90 24 5f
        E 91 80 24 00
        E 148 90 24 63
        E 562 80 24 00
        E 435 90 21 5c
        E 803 80 21 00
        E 125 90 22 53
        E 817 80 22 00
        E 144 90 24 5e
        E 226 80 24 00
        E 6 90 29 5f
        E 67 80 29 00
        E 47 90 29 63
        E 69 80 29 00
        E 58 90 29 67
        E 109 80 29 00
        E 135 90 29 68
        E 106 80 29 00
        E 139 90 24 54
        E 669 80 24 00
        E 290 90 21 63
        E 403 80 21 00
        E 68 90 24 63
        E 426 80 24 00
        E 95 90 22 65
        E 419 80 22 00
        E 62 90 26 5f
        E 379 80 26 00
        E 103 90 24 61
        E 488 80 24 00
        E 459 90 24 61
        E 655 80 24 00
        E 271 90 29 64
        E 353 80 29 00
        E 150 90 1d 5e
        E 301 80 1d 00
        E 180 90 21 67
        E 336 80 21 00
        E 163 90 24 5d
        E 337 80 24 00
        E 152 90 29 64
        E 301 80 29 00
        E 166 90 29 66
        E 365 80 29 00
        E 111 90 24 60
        E 353 80 24 00
        E 152 90 21 67
        E 386 80 21 00
        E 93 90 1d 64
        E 631 80 1d 00
        E 290 90 29 66
        E 536 80 29 00
        E 308 90 1d 63
        E 68 80 1d 00
        E 85 90 1d 6a
        E 1414 80 1d 00
        E 11 b0 7b 00
        GUID {9D683A9A-232B-E142-AE24-9A0C7592DCAC}
        IGNTEMPO 0 120 4 4
        SRCCOLOR 960
        VELLANE -1 86 6
        CFGEDITVIEW 9199.373419 35.985245 75 12 0 0 0 0 0 0.5
        KEYSNAP 0
        TRACKSEL 226
        EVTFILTER 0 -1 -1 -1 -1 0 0 0 0 -1 -1 -1 -1 0 -1 0 -1 -1
        CFGEDIT 1 1 0 0 0 0 1 0 1 1 1 0.25 64 111 1280 778 0 0 2 3 0 0 0 0 0 -1 0 0 1 64
      >
      TAKE SEL
      NAME "tuba(s) - National_Anthems_-_Brazil.mid"
      TAKEVOLPAN 0 1 -1
      SOFFS 0 0
      PLAYRATE 1 1 0 -1 0 0.0025
      CHANMODE 0
      GUID {87187DF1-43AA-2E45-B50F-E1B4066E90E3}
      <SOURCE MIDI
        HASDATA 1 480 QN
        POOLEDEVTS {908367D2-C23E-3C42-9322-69444FC56C50}
        <X 0 0 0 0 3 tuba(s)
          /wN0dWJhKHMp
        >
        <X 0 0 0 0 4 "Sound Canvas"
          /wRTb3VuZCBDYW52YXM=
        >
        e 335 90 24 64
        e 55 80 24 4e
        e 93 90 24 64
        e 84 90 26 60
        e 9 80 24 52
        e 79 90 24 62
        e 13 80 26 40
        e 66 80 24 47
        e 3 90 23 65
        e 85 90 24 5f
        e 16 80 23 46
        e 124 80 24 4d
        e 2 90 29 67
        e 175 80 29 4c
        e 136 90 29 6a
        e 50 80 29 53
        e 94 90 29 68
        e 60 90 2b 5c
        e 14 80 29 58
        e 69 90 29 6b
        e 42 80 2b 01
        e 30 80 29 49
        e 7 90 28 60
        e 87 90 29 6a
        e 18 80 28 44
        e 117 80 29 56
        e 10 90 2d 67
        e 190 80 2d 40
        e 167 90 2d 67
        e 45 80 2d 4a
        e 79 90 2d 64
        e 87 90 2e 63
        e 3 80 2d 34
        e 89 90 2d 5f
        e 3 80 2e 4d
        e 77 90 2c 66
        e 5 80 2d 4a
        e 93 90 2d 62
        e 13 80 2c 35
        e 128 80 2d 50
        e 17 90 30 64
        e 168 80 30 4b
        e 280 90 1d 6a
        e 1084 80 1d 53
        e 421 90 29 56
        e 302 80 29 31
        e 165 90 29 57
        e 284 80 29 2b
        e 174 90 29 58
        e 266 80 29 13
        e 214 90 29 60
        e 259 80 29 2e
        e 203 90 28 53
        e 343 80 28 2b
        e 161 90 28 4b
        e 512 80 28 29
        e 271 90 26 67
        e 52 80 26 49
        e 114 90 26 64
        e 81 90 28 55
        e 2 80 26 4e
        e 85 90 26 54
        e 10 80 28 43
        e 68 90 25 66
        e 1 80 26 49
        e 102 90 26 60
        e 4 80 25 44
        e 125 80 26 49
        e 8 90 2b 58
        e 189 80 2b 12
        e 153 90 2b 5b
        e 44 80 2b 46
        e 93 90 2b 60
        e 70 90 2d 59
        e 5 80 2b 4b
        e 84 90 2b 59
        e 2 80 2d 43
        e 78 90 2a 65
        e 4 80 2b 4e
        e 104 90 2b 62
        e 3 80 2a 48
        e 121 80 2b 33
        e 19 90 2e 67
        e 148 80 2e 34
        e 215 90 2e 66
        e 58 80 2e 45
        e 62 90 2e 63
        e 73 90 30 5b
        e 1 80 2e 44
        e 93 90 2e 69
        e 23 80 30 3f
        e 59 90 2d 5e
        e 4 80 2e 44
        e 80 90 2e 69
        e 16 80 2d 41
        e 119 80 2e 4b
        e 8 90 32 55
        e 216 80 32 34
        e 257 90 1f 6a
        e 1007 80 1f 57
        e 428 90 24 53
        e 303 80 24 01
        e 184 90 24 52
        e 318 80 24 1c
        e 167 90 24 4f
        e 349 80 24 01
        e 143 90 24 52
        e 304 80 24 0b
        e 166 90 29 5e
        e 294 80 29 2d
        e 202 90 29 61
        e 528 80 29 2c
        e 248 90 24 5d
        e 67 80 24 47
        e 97 90 24 5c
        e 65 90 26 62
        e 7 80 24 4b
        e 79 90 24 50
        e 30 80 26 37
        e 57 90 23 5a
        e 13 80 24 48
        e 78 90 24 52
        e 19 80 23 42
        e 144 80 24 42
        e 0 90 1d 5c
        e 310 80 1d 36
        e 213 90 2d 4c
        e 342 80 2d 10
        e 88 90 29 64
        e 299 80 29 01
        e 169 90 1d 62
        e 289 80 1d 36
        e 22 90 1f 5b
        e 83 90 21 5c
        e 5 80 1f 45
        e 99 90 22 5f
        e 4 80 21 4a
        e 255 80 22 41
        e 220 90 2e 62
        e 374 80 2e 01
        e 138 90 2b 5a
        e 311 80 2b 1c
        e 151 90 1f 66
        e 252 80 1f 46
        e 3 90 21 55
        e 96 90 22 65
        e 14 80 21 3e
        e 83 80 22 4c
        e 0 90 24 5b
        e 258 80 24 44
        e 238 90 30 58
        e 463 80 30 01
        e 28 90 2d 58
        e 317 80 2d 22
        e 150 90 21 67
        e 251 80 21 37
        e 4 90 22 67
        e 111 90 24 55
        e 11 80 22 3c
        e 92 80 24 45
        e 1 90 26 59
        e 312 80 26 3c
        e 204 90 22 67
        e 323 90 24 57
        e 5 80 22 3b
        e 80 90 26 53
        e 19 80 24 47
        e 70 90 28 62
        e 4 80 26 50
        e 273 80 28 28
        e 186 90 24 62
        e 305 80 24 44
        e 1 90 26 53
        e 83 90 28 57
        e 18 80 26 3a
        e 69 80 28 51
        e 0 90 29 68
        e 290 80 29 3c
        e 191 90 23 66
        e 741 80 23 52
        e 194 90 34 62
        e 250 80 34 01
        e 48 90 32 5e
        e 59 80 32 34
        e 118 90 24 67
        e 382 80 24 3d
        e 586 90 18 6a
        e 529 80 18 55
        e 406 90 29 65
        e 307 80 29 01
        e 190 90 1d 60
        e 241 80 1d 10
        e 240 90 1d 5e
        e 215 80 1d 28
        e 265 90 1d 58
        e 252 80 1d 01
        e 215 90 1d 60
        e 251 80 1d 08
        e 228 90 1d 57
        e 260 80 1d 01
        e 208 90 1d 5a
        e 271 80 1d 01
        e 219 90 1d 5b
        e 295 80 1d 01
        e 197 90 1d 55
        e 298 80 1d 01
        e 195 90 1d 59
        e 221 80 1d 01
        e 236 90 1d 5b
        e 254 80 1d 01
        e 238 90 1d 58
        e 255 80 1d 04
        e 226 90 1d 55
        e 231 80 1d 1f
        e 256 90 1d 5c
        e 251 80 1d 0e
        e 220 90 1d 5c
        e 243 80 1d 1b
        e 233 90 1d 63
        e 279 80 1d 01
        e 199 90 1c 62
        e 234 80 1c 2e
        e 253 90 1c 61
        e 219 80 1c 20
        e 258 90 1c 61
        e 212 80 1c 25
        e 267 90 1c 5a
        e 230 80 1c 1c
        e 256 90 1c 62
        e 244 80 1c 20
        e 224 90 1c 61
        e 244 80 1c 18
        e 244 90 1c 62
        e 259 80 1c 01
        e 219 90 1c 5e
        e 229 80 1c 01
        e 258 90 1c 5b
        e 277 80 1c 01
        e 215 90 1c 60
        e 174 80 1c 3c
        e 305 90 1c 62
        e 208 80 1c 2a
        e 265 90 1c 61
        e 222 80 1c 1e
        e 258 90 1c 60
        e 271 80 1c 2a
        e 202 90 1c 61
        e 199 80 1c 3e
        e 286 90 1c 64
        e 251 80 1c 3b
        e 236 90 1c 63
        e 238 80 1c 23
        e 224 90 1d 60
        e 278 80 1d 07
        e 214 90 1d 60
        e 279 80 1d 01
        e 211 90 1d 5e
        e 483 80 1d 4e
        e 698 90 21 61
        e 60 80 21 47
        e 57 90 21 66
        e 61 80 21 4b
        e 75 90 25 6a
        e 91 80 25 38
        e 145 90 28 5d
        e 100 80 28 3d
        e 129 90 2d 63
        e 512 80 2d 4c
        e 927 90 26 65
        e 364 80 26 29
        e 137 90 1f 63
        e 533 80 1f 4f
        e 384 90 21 5e
        e 258 80 21 20
        e 243 90 21 5f
        e 274 80 21 1b
        e 209 90 21 62
        e 254 80 21 27
        e 223 90 21 62
        e 271 80 21 3c
        e 457 90 26 68
        e 129 80 26 29
        e 112 90 21 67
        e 144 80 21 42
        e 96 90 1d 60
        e 133 80 1d 1b
        e 110 90 1a 5c
        e 514 80 1a 4b
        e 685 90 1f 64
        e 53 80 1f 47
        e 61 90 1f 60
        e 99 80 1f 47
        e 25 90 23 67
        e 123 80 23 42
        e 89 90 26 62
        e 102 80 26 48
        e 132 90 2b 5c
        e 531 80 2b 54
        e 938 90 24 60
        e 315 80 24 2e
        e 180 90 1d 63
        e 516 80 1d 52
        e 421 90 1f 5e
        e 199 80 1f 2d
        e 290 90 1f 5d
        e 207 80 1f 25
        e 265 90 1f 5f
        e 221 80 1f 2e
        e 252 90 1f 60
        e 159 80 1f 40
        e 301 90 24 53
        e 314 80 24 10
        e 183 90 24 58
        e 511 80 24 49
        e 222 90 24 5f
        e 173 80 24 2d
        e 62 90 28 5f
        e 196 80 28 26
        e 41 90 2b 55
        e 162 80 2b 3a
        e 101 90 24 5c
        e 124 80 24 33
        e 120 90 24 52
        e 105 80 24 24
        e 115 90 24 58
        e 129 80 24 30
        e 106 90 24 55
        e 122 80 24 25
        e 105 90 24 59
        e 128 80 24 2b
        e 117 90 24 5f
        e 116 80 24 29
        e 106 90 24 61
        e 119 80 24 28
        e 122 90 24 60
        e 135 80 24 2e
        e 114 90 24 60
        e 749 80 24 3a
        e 1218 90 29 65
        e 227 80 29 0c
        e 99 90 24 58
        e 118 80 24 2d
        e 3 90 29 64
        e 218 80 29 27
        e 137 90 24 50
        e 131 90 29 5c
        e 5 80 24 38
        e 232 80 29 19
        e 119 90 24 52
        e 137 90 29 60
        e 1 80 24 3c
        e 208 80 29 36
        e 145 90 24 4f
        e 127 90 29 60
        e 18 80 24 38
        e 197 80 29 32
        e 135 90 24 51
        e 131 90 29 62
        e 9 80 24 37
        e 200 80 29 34
        e 140 90 24 52
        e 143 90 29 65
        e 10 80 24 2f
        e 197 80 29 1e
        e 133 90 24 52
        e 129 90 29 67
        e 5 80 24 43
        e 181 80 29 2b
        e 162 90 24 55
        e 133 90 29 66
        e 21 80 24 35
        e 189 80 29 28
        e 130 90 24 4e
        e 137 90 29 61
        e 24 80 24 30
        e 161 80 29 3c
        e 160 90 24 55
        e 137 90 29 68
        e 10 80 24 40
        e 161 80 29 35
        e 164 90 24 55
        e 137 90 29 63
        e 24 80 24 42
        e 173 80 29 38
        e 134 90 24 4c
        e 127 90 28 5a
        e 15 80 24 32
        e 177 80 28 39
        e 165 90 24 48
        e 144 90 28 59
        e 27 80 24 3e
        e 171 80 28 31
        e 154 90 24 43
        e 130 90 28 57
        e 23 80 24 39
        e 178 80 28 3c
        e 162 90 24 42
        e 137 90 28 58
        e 15 80 24 32
        e 151 80 28 3a
        e 162 90 24 44
        e 138 90 28 5e
        e 16 80 24 3b
        e 146 80 28 26
        e 155 90 24 3f
        e 139 90 28 56
        e 16 80 24 41
        e 164 80 28 2b
        e 161 90 24 49
        e 148 90 28 5b
        e 30 80 24 3b
        e 157 80 28 2e
        e 162 90 24 47
        e 127 90 28 56
        e 28 80 24 36
        e 173 80 28 2d
        e 151 90 24 4c
        e 152 90 28 59
        e 19 80 24 29
        e 141 80 28 18
        e 175 90 24 45
        e 150 90 28 5c
        e 21 80 24 36
        e 122 80 28 3c
        e 190 90 24 4d
        e 137 90 28 5a
        e 27 80 24 47
        e 132 80 28 35
        e 195 90 24 4d
        e 131 90 28 59
        e 41 80 24 39
        e 115 80 28 37
        e 197 90 24 4e
        e 139 90 28 60
        e 25 80 24 3d
        e 136 80 28 37
        e 177 90 24 4c
        e 137 90 28 5a
        e 20 80 24 39
        e 125 80 28 37
        e 196 90 24 53
        e 116 90 28 5e
        e 23 80 24 47
        e 156 80 28 35
        e 163 90 24 54
        e 139 90 28 60
        e 20 80 24 4a
        e 136 80 28 1e
        e 163 90 24 50
        e 151 90 29 65
        e 4 80 24 45
        e 139 80 29 2d
        e 190 90 24 4d
        e 163 80 24 49
        e 6 90 29 64
        e 159 80 29 32
        e 164 90 24 51
        e 157 80 24 41
        e 8 90 29 67
        e 382 80 29 40
        e 570 90 21 66
        e 214 80 21 28
        e 258 90 24 5e
        e 224 80 24 0e
        e 246 90 1d 61
        e 238 80 1d 18
        e 249 90 21 64
        e 241 80 21 4b
        e 246 90 22 68
        e 237 80 22 10
        e 247 90 29 68
        e 231 80 29 02
        e 239 90 26 64
        e 231 80 26 26
        e 238 90 22 69
        e 220 80 22 3b
        e 265 90 23 65
        e 264 80 23 01
        e 244 90 26 61
        e 195 80 26 21
        e 286 90 1f 67
        e 247 80 1f 27
        e 232 90 23 64
        e 261 80 23 01
        e 200 90 24 5c
        e 270 80 24 01
        e 219 90 2b 58
        e 248 80 2b 27
        e 219 90 28 5f
        e 248 80 28 21
        e 246 90 24 5f
        e 263 80 24 32
        e 212 90 25 67
        e 246 80 25 2a
        e 232 90 28 5e
        e 255 80 28 0c
        e 232 90 21 64
        e 265 80 21 01
        e 219 90 25 66
        e 267 80 25 42
        e 197 90 26 5e
        e 294 80 26 27
        e 205 90 29 67
        e 250 80 29 27
        e 223 90 22 65
        e 505 80 22 4b
        e 654 90 24 5f
        e 66 80 24 40
        e 56 90 24 5d
        e 56 80 24 4b
        e 50 90 24 61
        e 93 80 24 35
        e 161 90 24 5f
        e 91 80 24 34
        e 148 90 24 63
        e 562 80 24 15
        e 435 90 21 5c
        e 803 80 21 18
        e 125 90 22 53
        e 817 80 22 11
        e 144 90 24 5e
        e 226 80 24 44
        e 6 90 29 5f
        e 67 80 29 4a
        e 47 90 29 63
        e 69 80 29 42
        e 58 90 29 67
        e 109 80 29 45
        e 135 90 29 68
        e 106 80 29 3d
        e 139 90 24 54
        e 669 80 24 3a
        e 290 90 21 63
        e 403 80 21 45
        e 68 90 24 63
        e 426 80 24 38
        e 95 90 22 65
        e 419 80 22 32
        e 62 90 26 5f
        e 379 80 26 31
        e 103 90 24 61
        e 488 80 24 4d
        e 459 90 24 61
        e 655 80 24 2a
        e 271 90 29 64
        e 353 80 29 1a
        e 150 90 1d 5e
        e 301 80 1d 0c
        e 180 90 21 67
        e 336 80 21 01
        e 163 90 24 5d
        e 337 80 24 27
        e 152 90 29 64
        e 301 80 29 2c
        e 166 90 29 66
        e 365 80 29 1c
        e 111 90 24 60
        e 353 80 24 18
        e 152 90 21 67
        e 386 80 21 0d
        e 93 90 1d 64
        e 631 80 1d 4c
        e 290 90 29 66
        e 536 80 29 4e
        e 308 90 1d 63
        e 68 80 1d 40
        e 85 90 1d 6a
        e 1414 80 1d 59
        E 11 b0 7b 00
        GUID {673A48CC-CC82-A345-930D-876F5C0ECE61}
        IGNTEMPO 0 120 4 4
        SRCCOLOR 972
        VELLANE -1 86 6
        CFGEDITVIEW 29202.461795 43.748333 75 12 0 -1 0 0 0 0.5
        KEYSNAP 0
        TRACKSEL 226
        EVTFILTER 0 -1 -1 -1 -1 0 0 0 0 -1 -1 -1 -1 0 -1 0 -1 -1
        CFGEDIT 1 1 0 0 0 0 1 0 1 0 1 1 80 127 1280 778 0 0 2 0 0 0 0 0 0 -1 0 0 1 64
      >
    >
  >
  <TRACK {3CF13A00-0AFC-8542-AD98-73B6D91102DB}
    NAME "vst Plogue"
    PEAKCOL 26779488
    BEAT -1
    AUTOMODE 0
    VOLPAN 1 0 -1 -1 1
    MUTESOLO 0 0 0
    IPHASE 0
    ISBUS 0 0
    BUSCOMP 0 0
    SHOWINMIX 1 0.6667 0.5 1 0.5 0 0 0
    FREEMODE 0
    SEL 0
    REC 0 0 0 1 0 0 0
    VU 2
    TRACKHEIGHT 0 0
    INQ 0 0 0 0.5 100 0 0 100
    NCHAN 4
    FX 1
    TRACKID {3CF13A00-0AFC-8542-AD98-73B6D91102DB}
    PERF 0
    AUXRECV 4 0 1 0 0 0 0 0 0 -1:U 32 -1 ''
    AUXRECV 4 0 1 0 0 0 0 0 0 -1:U 96 -1 ''
    AUXRECV 5 0 1 0 0 0 0 0 0 -1:U 64 -1 ''
    AUXRECV 5 0 1 0 0 0 0 0 0 -1:U 128 -1 ''
    MIDIOUT -1
    MAINSEND 0 0
    <FXCHAIN
      SHOW 0
      LASTSEL 0
      DOCKED 0
      BYPASS 0 0 0
      <VST "VSTi: chipsounds (Multi) (Plogue Art et Technologie, Inc) (32 out)" "chipsounds Multi.vst" 0 "" 1347241807
        T0dNUO5e7f4AAAAAIAAAAAEAAAAAAAAAAgAAAAAAAAAEAAAAAAAAAAgAAAAAAAAAEAAAAAAAAAAgAAAAAAAAAEAAAAAAAAAAgAAAAAAAAAAAAQAAAAAAAAACAAAAAAAA
        AAQAAAAAAAAACAAAAAAAAAAQAAAAAAAAACAAAAAAAAAAQAAAAAAAAACAAAAAAAAAAAABAAAAAAAAAAIAAAAAAAAABAAAAAAAAAAIAAAAAAAAABAAAAAAAAAAIAAAAAAA
        AABAAAAAAAAAAIAAAAAAAAAAAAEAAAAAAAAAAgAAAAAAAAAEAAAAAAAAAAgAAAAAAAAAEAAAAAAAAAAgAAAAAAAAAEAAAAAAAAAAgAAAAACCBQAAAQAAAAAAEAA=
        Q0VHULguAAB4nO1aWW/bRhB+968g+NQ+hNz7ACwHthw1AuImgFz0MVhLG5koRao83KS/vsNDNmlrTblyUScWH2RyOMfOLLnft2Mev/26ir0bm+VRmox8HCDfe3tydHya
        RWZmbmznlsbC99ZZuijnxfQcBAhp/+TIg+N4ZosiSpa592dp4qj4Bnd9Ly8ya1YgHvmU+N7KfJ3VktM4TucXZyOfYxBfTM+nH8viIl3Y2sqURboyBcScxWkx8lFXFNsb
        G4/8KAHf5comhe/F0Y1tjEEzn4NXoaoTExsQYe+NZ6tBBfk8bsVjsLPZyBdgsIzTKxNflkk9TBCEm4wguBctalliVpV7HHifysx64+toHc6m56HgCns//Xo5G//se1cm
        +WO6aMvSKZsikOT82iRJNXLwtk7jqj5QzOIu7Prqc2aSJYR5AzVYF3CR1zdWndN0XsCU3CaKGcjKohX89Tk2OdSLtXNSZ3FhomSTxY2Jy6bE4TYNfKuBHBpkUIMOarBB
        DT6oIQY15KCGGtTQgxoYDasMVxUPlxUP1xUPFxY7K/vJZGb1+BTfqTgD3al0yh8ozhEcWCNJmRLUZdMtZsB0bYSYFIrK6lVxBOqUN8BE1wcnFAuimNOIdY1oE4lTwRhW
        ThvRtVGNDaEKTLjbqPOQBZBMMzylFGEwVuwyU91YtI6EMNYEaaKdNvrpNhr1cmpGJwWGRY0R5zTRbsmFhMnhlGjGBfzem9xLky1t0a6e83QVfIrTZWmDCluCD5OPQZnb
        DHWWq9pqXOaw2p+bwnjXxbc1mHLJIYk8+hvOmeqsrZCATRaRaU4XYAInm2PS/CHoeY9+imGT41OTxq8k6cssWi5tNgMEtsncZsNpM8roJm3CO2mTbWnjNuv2aK5lfU7H
        cqJ7SYwRnTySyHFYQf599MfPiv54G/qrA/of0P9FoD/u4RUWQtYvDkMaUeHEkU4GgUacA+5ITpSiGjsxrgvBRDKBuFYViGAp3HC6L6vgO9EIzhrXQigNSOo26uZAm0oN
        Exbn07sf/t+DZUJgJIRBkQiT+BEGcFceN+IDnLiWjwPYvXZasx/CC/1UhK/fTQlFmLx7iPBNZSQ96wkmgPuVrnqgCtLzbR4Q6Xv4V8yBPitzIP9738AJLIPc4sAc7lXs
        x2MOL6NvcGgTHNoE3zmevkrm9P23Cdizgj3dBvb8APYHsH8RYP9DtwmcYzk0CZ65SXDYOg4U6ECAfiACtJ03yFveQAKvSc77HeD7S5qt8vC9yRbe7Fsy35U48P+oS7Av
        WXiO/ym4CMeBLDxQebFkAet2782JFtyNgF2ugDRrN8RIAo478Rn3wA0JAlRBUaQlksK5ye/WIeCqjiQVZ4QS6cbRHsVocyKKScaIMyXc2+W3TADBIBHEcuNqd8O+a+eC
        7MBmiBOuOzzkaa0Vt5/edArW6yC4rbpTA8SveQhgN6U0Z865kXyH8fS6NJTqiphhQhSlxMnkMO1mIVidhQK6Bc8xlXuRJ426rp0j0GiHFppGYrgAGqldlPQOSniHemOC
        dniSQMu52Pe0epSaN/OgicRYUPcrS5BzjT/Qr1dAvx5Nes/+E6FP3IrgesPWNKDQmZycPcjEsUGprFpfsBeG45TTqpbjLdIzyR/6fZoHcba3B7yvBy739cDO9/OwK6l/
        9+WLnRfd74Y3NLp54E5XV1H1eA2Q+TbY8S+/TTd+zLyIbuy0+R6abK7f3X4fndsYItvFpbmq7ndXwMzmtriwSelFea0OK2tRZ/D4G+AV9iuoXMJvmdmF9z4qctg5mOJ6
        5Ien63UczesPsvOw8QB7kGidp2WyAEkdNA8f8R+2e53TbG2XyyjNw16kwMAytL6rRQjFODk6DjdfpZ8c/QNZ5WHL
        AAAQAAAA
      >
      FLOATPOS 275 269 871 509
      FXID {C804D762-B992-A540-81BF-3D6C0F7FF19B}
      WAK 0
    >
  >
  <TRACK {2BB5EACD-C1BC-284E-92F6-33B7023B768F}
    NAME "ch1,3 (send)"
    PEAKCOL 16576
    BEAT -1
    AUTOMODE 0
    VOLPAN 1 0 -1 -1 1
    MUTESOLO 0 0 0
    IPHASE 0
    ISBUS 0 0
    BUSCOMP 0 0
    SHOWINMIX 1 0.6667 0.5 1 0.5 0 0 0
    FREEMODE 0
    SEL 0
    REC 0 0 0 0 0 0 0
    VU 2
    MIDICTL -1 1
    TRACKHEIGHT 0 0
    INQ 0 0 0 0.5 100 0 0 100
    NCHAN 2
    FX 1
    TRACKID {2BB5EACD-C1BC-284E-92F6-33B7023B768F}
    PERF 0
    MIDIOUT -1
    MAINSEND 1 0
    <FXCHAIN
      SHOW 0
      LASTSEL 0
      DOCKED 0
    >
    <ITEM
      POSITION 0
      SNAPOFFS 0
      LENGTH 113
      LOOP 1
      ALLTAKES 0
      FADEIN 1 0 0 1 0 0
      FADEOUT 1 0 0 1 0 0
      MUTE 0
      SEL 0
      YPOS 0 0.333333
      IGUID {5EA35CE2-0F5E-404A-B136-6D8C1781A750}
      IID 14
      NAME "trumpet(s) - National_Anthems_-_Brazil.mid"
      VOLPAN 1 0 1 -1
      SOFFS 0 0
      PLAYRATE 1 1 0 -1 0 0.0025
      CHANMODE 0
      TAKECOLOR 26173599 B
      GUID {2469859E-5975-894E-8FFA-4AC364148E6F}
      <SOURCE MIDI
        HASDATA 1 480 QN
        POOLEDEVTS {8C79C31A-21E6-FA46-9EB6-31946979315E}
        <X 0 0 0 0 3 trumpet(s)
          /wN0cnVtcGV0KHMp
        >
        <X 0 0 0 0 4 "Sound Canvas"
          /wRTb3VuZCBDYW52YXM=
        >
        e 321 90 3c 54
        e 60 80 3c 00
        e 82 90 3c 62
        e 74 90 3e 5a
        e 2 80 3c 00
        e 65 90 3c 50
        e 15 80 3e 00
        e 75 80 3c 00
        e 4 90 3b 51
        e 98 90 3c 52
        e 11 80 3b 00
        e 124 90 41 63
        e 4 80 3c 00
        e 156 80 41 00
        e 180 90 41 61
        e 64 80 41 00
        e 59 90 41 62
        e 99 90 43 67
        e 12 80 41 00
        e 71 90 41 5b
        e 8 80 43 00
        e 75 90 40 59
        e 8 80 41 00
        e 77 90 41 63
        e 27 80 40 00
        e 103 80 41 00
        e 4 90 45 67
        e 186 80 45 00
        e 177 90 45 5d
        e 63 80 45 00
        e 71 90 45 5b
        e 70 90 46 67
        e 3 80 45 00
        e 82 90 45 5d
        e 17 80 46 00
        e 64 90 44 66
        e 5 80 45 00
        e 93 90 45 62
        e 27 80 44 00
        e 97 80 45 00
        e 10 90 48 63
        e 222 80 48 00
        e 255 90 4d 67
        e 810 80 4d 00
        e 219 90 3c 5e
        e 166 80 3c 00
        e 135 90 3c 51
        e 97 80 3c 00
        e 66 90 41 64
        e 168 80 41 00
        e 135 90 40 4d
        e 113 80 40 00
        e 43 90 43 6c
        e 223 80 43 00
        e 85 90 41 5a
        e 144 80 41 00
        e 28 90 45 62
        e 207 80 45 00
        e 94 90 43 63
        e 119 80 43 00
        e 43 90 46 66
        e 244 80 46 00
        e 54 90 45 56
        e 106 80 45 00
        e 61 90 42 5e
        e 499 90 43 66
        e 28 80 42 00
        e 613 80 43 00
        e 190 90 3e 5c
        e 73 80 3e 00
        e 66 90 3e 59
        e 79 90 40 4f
        e 2 80 3e 00
        e 75 90 3e 5b
        e 6 80 40 00
        e 83 90 3d 5f
        e 3 80 3e 00
        e 95 90 3e 60
        e 12 80 3d 00
        e 126 90 43 6c
        e 11 80 3e 00
        e 177 80 43 00
        e 147 90 43 6a
        e 63 80 43 00
        e 70 90 43 68
        e 93 80 43 00
        e 1 90 45 53
        e 74 90 43 64
        e 11 80 45 00
        e 77 90 42 5a
        e 5 80 43 00
        e 78 90 43 67
        e 32 80 42 00
        e 76 80 43 00
        e 16 90 46 68
        e 212 80 46 00
        e 122 90 46 65
        e 72 80 46 00
        e 68 90 46 69
        e 87 80 46 00
        e 10 90 48 5c
        e 48 90 46 63
        e 19 80 48 00
        e 75 90 45 57
        e 21 80 46 00
        e 85 90 46 69
        e 41 80 45 00
        e 88 80 46 00
        e 51 90 4a 66
        e 197 80 4a 00
        e 287 90 4f 63
        e 754 80 4f 00
        e 200 90 4f 60
        e 213 90 4d 60
        e 3 80 4f 00
        e 142 80 4d 00
        e 60 90 4f 53
        e 36 90 4d 58
        e 18 80 4f 00
        e 243 90 4c 5a
        e 1 80 4d 00
        e 138 80 4c 00
        e 75 90 4d 58
        e 44 90 4c 5e
        e 20 80 4d 00
        e 215 90 4a 5d
        e 2 80 4c 00
        e 98 80 4a 00
        e 100 90 4c 3c
        e 37 90 4a 53
        e 28 80 4c 00
        e 223 90 48 5b
        e 3 80 4a 00
        e 114 80 48 00
        e 73 90 4a 55
        e 54 90 48 56
        e 21 80 4a 00
        e 207 90 46 65
        e 12 80 48 00
        e 128 80 46 00
        e 128 90 43 59
        e 486 90 45 4e
        e 12 80 43 00
        e 581 80 45 00
        e 180 90 3c 5e
        e 81 80 3c 00
        e 77 90 3c 5d
        e 69 90 3e 58
        e 2 80 3c 00
        e 67 90 3c 58
        e 16 80 3e 00
        e 67 80 3c 00
        e 2 90 3b 4f
        e 82 90 3c 58
        e 17 80 3b 00
        e 125 90 41 60
        e 1 80 3c 00
        e 190 80 41 00
        e 133 90 41 56
        e 73 80 41 00
        e 89 90 41 5f
        e 81 90 43 63
        e 5 80 41 00
        e 66 90 41 59
        e 15 80 43 00
        e 67 90 40 54
        e 9 80 41 00
        e 94 90 41 5f
        e 20 80 40 00
        e 124 90 45 64
        e 4 80 41 00
        e 217 80 45 00
        e 118 90 41 5d
        e 72 80 41 00
        e 83 90 41 57
        e 69 90 43 5b
        e 3 80 41 00
        e 67 90 41 59
        e 12 80 43 00
        e 79 90 40 59
        e 7 80 41 00
        e 93 90 41 5b
        e 40 80 40 00
        e 108 80 41 00
        e 3 90 3e 60
        e 194 80 3e 00
        e 145 90 43 6a
        e 81 80 43 00
        e 86 90 43 69
        e 73 80 43 00
        e 4 90 45 50
        e 77 90 43 65
        e 8 80 45 00
        e 81 80 43 00
        e 3 90 42 55
        e 94 90 43 5d
        e 24 80 42 00
        e 86 80 43 00
        e 4 90 46 63
        e 216 80 46 00
        e 119 90 43 6a
        e 63 80 43 00
        e 76 90 43 67
        e 84 80 43 00
        e 7 90 45 57
        e 73 90 43 67
        e 8 80 45 00
        e 72 80 43 00
        e 3 90 42 5b
        e 101 90 43 65
        e 10 80 42 00
        e 103 80 43 00
        e 6 90 40 53
        e 239 80 40 00
        e 107 90 45 59
        e 73 80 45 00
        e 86 90 45 5b
        e 87 90 46 5f
        e 6 80 45 00
        e 56 80 46 00
        e 5 90 45 4b
        e 73 90 44 5d
        e 7 80 45 00
        e 94 90 45 5e
        e 20 80 44 00
        e 84 80 45 00
        e 16 90 48 62
        e 200 80 48 00
        e 134 90 45 61
        e 56 80 45 00
        e 76 90 45 5d
        e 82 90 46 62
        e 1 80 45 00
        e 79 90 45 59
        e 19 80 46 00
        e 69 90 44 53
        e 8 80 45 00
        e 114 90 45 5b
        e 17 80 44 00
        e 114 80 45 00
        e 9 90 41 62
        e 237 80 41 00
        e 128 90 46 68
        e 67 80 46 00
        e 74 90 46 6a
        e 69 80 46 00
        e 12 90 48 53
        e 61 90 46 67
        e 14 80 48 00
        e 63 90 45 51
        e 4 80 46 00
        e 86 90 46 65
        e 43 80 45 00
        e 71 80 46 00
        e 33 90 48 63
        e 228 80 48 00
        e 114 90 48 5b
        e 61 80 48 00
        e 80 90 48 61
        e 80 90 4a 59
        e 5 80 48 00
        e 65 90 48 57
        e 10 80 4a 00
        e 82 90 47 5f
        e 12 80 48 00
        e 106 90 48 63
        e 8 80 47 00
        e 116 90 45 63
        e 2 80 48 00
        e 277 80 45 00
        e 174 90 4d 5d
        e 868 80 4d 00
        e 97 90 4c 60
        e 262 80 4c 00
        e 53 90 4a 5a
        e 92 80 4a 00
        e 90 90 48 5f
        e 589 80 48 00
        e 351 90 40 63
        e 769 80 40 00
        e 186 90 41 58
        e 907 80 41 00
        e 553 90 3c 64
        e 378 80 3c 00
        e 75 90 41 64
        e 303 80 41 00
        e 48 90 40 54
        e 120 80 40 00
        e 40 90 41 67
        e 231 80 41 00
        e 67 90 43 6b
        e 122 80 43 00
        e 55 90 45 62
        e 292 80 45 00
        e 44 90 43 67
        e 150 80 43 00
        e 26 90 45 68
        e 224 80 45 00
        e 74 90 46 67
        e 116 80 46 00
        e 61 90 47 62
        e 671 80 47 00
        e 38 90 48 63
        e 226 80 48 00
        e 11 90 41 65
        e 390 80 41 00
        e 87 90 3c 63
        e 383 80 3c 00
        e 97 90 41 63
        e 267 80 41 00
        e 62 90 40 57
        e 131 80 40 00
        e 32 90 43 6c
        e 265 80 43 00
        e 54 90 41 52
        e 128 80 41 00
        e 18 90 45 65
        e 282 80 45 00
        e 27 90 43 62
        e 138 80 43 00
        e 25 90 46 6a
        e 308 80 46 00
        e 13 90 45 54
        e 100 80 45 00
        e 69 90 42 61
        e 449 80 42 00
        e 24 90 43 6c
        e 765 80 43 00
        e 193 90 3c 61
        e 358 80 3c 00
        e 103 90 43 6d
        e 281 80 43 00
        e 45 90 42 5e
        e 127 80 42 00
        e 42 90 43 6d
        e 237 80 43 00
        e 80 90 45 5a
        e 131 80 45 00
        e 39 90 46 65
        e 288 80 46 00
        e 31 90 45 5c
        e 135 80 45 00
        e 33 90 46 6a
        e 238 80 46 00
        e 64 90 48 56
        e 121 80 48 00
        e 53 90 49 65
        e 694 80 49 00
        e 19 90 4a 64
        e 215 80 4a 00
        e 29 90 43 6d
        e 356 80 43 00
        e 112 90 3c 5c
        e 408 80 3c 00
        e 68 90 43 6d
        e 281 80 43 00
        e 47 90 42 58
        e 140 80 42 00
        e 28 90 45 66
        e 262 80 45 00
        e 63 90 43 66
        e 144 80 43 00
        e 6 90 46 65
        e 306 80 46 00
        e 13 90 45 56
        e 136 80 45 00
        e 39 90 48 61
        e 274 80 48 00
        e 7 90 46 63
        e 171 80 46 00
        e 26 90 44 65
        e 463 80 44 00
        e 6 90 45 64
        e 791 80 45 00
        e 178 90 45 68
        e 259 80 45 00
        e 71 90 45 62
        e 110 80 45 00
        e 39 90 46 6a
        e 489 90 45 61
        e 14 80 46 00
        e 584 80 45 00
        e 97 90 45 62
        e 168 80 45 00
        e 76 90 46 69
        e 308 80 46 00
        e 37 90 45 64
        e 68 80 45 00
        e 71 90 45 66
        e 451 80 45 00
        e 38 90 4a 60
        e 816 80 4a 00
        e 109 90 48 60
        e 217 80 48 00
        e 34 90 46 63
        e 142 80 46 00
        e 92 90 46 6a
        e 226 80 46 00
        e 22 90 45 62
        e 181 80 45 00
        e 68 90 45 62
        e 212 80 45 00
        e 26 90 43 67
        e 158 80 43 00
        e 75 90 43 6a
        e 223 80 43 00
        e 14 90 41 58
        e 163 80 41 00
        e 78 90 41 61
        e 226 80 41 00
        e 28 90 40 5b
        e 140 80 40 00
        e 101 90 40 61
        e 482 80 40 00
        e 5 90 3e 5d
        e 862 80 3e 00
        e 123 90 43 6d
        e 239 80 43 00
        e 95 90 43 6b
        e 97 80 43 00
        e 46 90 45 68
        e 445 80 45 00
        e 13 90 43 69
        e 606 80 43 00
        e 116 90 43 67
        e 188 80 43 00
        e 48 90 45 64
        e 293 80 45 00
        e 52 90 43 6b
        e 81 80 43 00
        e 63 90 43 69
        e 474 90 48 65
        e 9 80 43 00
        e 791 80 48 00
        e 130 90 47 62
        e 234 80 47 00
        e 14 90 45 60
        e 230 80 45 00
        e 35 90 45 60
        e 240 80 45 00
        e 6 90 43 66
        e 143 80 43 00
        e 94 90 43 6a
        e 209 80 43 00
        e 17 90 41 58
        e 152 80 41 00
        e 79 90 41 62
        e 236 90 40 58
        e 5 80 41 00
        e 157 80 40 00
        e 74 90 40 5f
        e 235 90 3e 61
        e 3 80 40 00
        e 148 80 3e 00
        e 96 90 3c 62
        e 406 80 3c 00
        e 94 90 3c 5f
        e 582 80 3c 00
        e 145 90 3c 60
        e 207 80 3c 00
        e 35 90 40 65
        e 175 80 40 00
        e 41 90 43 6d
        e 163 80 43 00
        e 81 90 46 6a
        e 189 80 46 00
        e 55 90 3c 56
        e 173 80 3c 00
        e 40 90 40 5e
        e 176 80 40 00
        e 53 90 43 6a
        e 183 80 43 00
        e 55 90 46 6b
        e 162 80 46 00
        e 92 90 3c 5a
        e 195 80 3c 00
        e 33 90 40 60
        e 195 80 40 00
        e 54 90 43 6c
        e 178 80 43 00
        e 84 90 46 68
        e 1285 80 46 00
        e 183 90 3c 60
        e 376 80 3c 00
        e 65 90 41 62
        e 304 80 41 00
        e 47 90 40 56
        e 99 80 40 00
        e 58 90 41 68
        e 235 80 41 00
        e 85 90 43 68
        e 143 80 43 00
        e 32 90 45 61
        e 274 80 45 00
        e 47 90 43 6a
        e 147 80 43 00
        e 16 90 45 64
        e 200 80 45 00
        e 93 90 46 63
        e 108 80 46 00
        e 73 90 47 65
        e 649 80 47 00
        e 52 90 48 63
        e 204 80 48 00
        e 37 90 41 66
        e 405 80 41 00
        e 78 90 3c 5e
        e 433 80 3c 00
        e 62 90 41 65
        e 304 80 41 00
        e 22 90 40 51
        e 138 80 40 00
        e 21 90 43 6c
        e 266 80 43 00
        e 43 90 41 5a
        e 123 80 41 00
        e 46 90 45 64
        e 266 80 45 00
        e 42 90 43 60
        e 134 80 43 00
        e 33 90 46 68
        e 294 80 46 00
        e 21 90 45 52
        e 110 80 45 00
        e 54 90 42 63
        e 465 80 42 00
        e 14 90 43 68
        e 730 80 43 00
        e 218 90 3c 5f
        e 394 80 3c 00
        e 74 90 43 6b
        e 245 80 43 00
        e 71 90 42 5d
        e 142 80 42 00
        e 26 90 43 6c
        e 284 80 43 00
        e 47 90 45 63
        e 146 80 45 00
        e 36 90 46 66
        e 240 80 46 00
        e 61 90 45 64
        e 135 80 45 00
        e 32 90 46 69
        e 263 80 46 00
        e 32 90 48 5a
        e 114 80 48 00
        e 69 90 49 5f
        e 699 80 49 00
        e 16 90 4a 61
        e 194 80 4a 00
        e 53 90 43 6c
        e 379 80 43 00
        e 108 90 3c 5a
        e 373 80 3c 00
        e 100 90 43 6e
        e 295 80 43 00
        e 17 90 42 56
        e 116 80 42 00
        e 46 90 45 66
        e 286 80 45 00
        e 9 90 43 5f
        e 135 80 43 00
        e 34 90 46 6a
        e 324 80 46 00
        e 7 90 45 55
        e 123 80 45 00
        e 43 90 48 64
        e 249 80 48 00
        e 46 90 46 62
        e 123 80 46 00
        e 55 90 44 5d
        e 497 90 45 60
        e 9 80 44 00
        e 732 80 45 00
        e 509 90 41 51
        e 110 80 41 00
        e 67 90 43 6c
        e 292 80 43 00
        e 36 90 41 4d
        e 144 80 41 00
        e 28 90 40 63
        e 267 80 40 00
        e 22 90 41 51
        e 142 80 41 00
        e 45 90 40 5f
        e 279 80 40 00
        e 11 90 41 5e
        e 142 80 41 00
        e 38 90 43 6a
        e 284 80 43 00
        e 26 90 41 52
        e 84 80 41 00
        e 92 90 41 63
        e 698 90 46 55
        e 28 80 41 00
        e 136 80 46 00
        e 65 90 46 67
        e 656 80 46 00
        e 188 90 43 69
        e 104 80 43 00
        e 58 90 45 64
        e 255 80 45 00
        e 29 90 43 66
        e 164 80 43 00
        e 14 90 42 5e
        e 248 80 42 00
        e 32 90 43 6a
        e 124 80 43 00
        e 70 90 42 66
        e 255 80 42 00
        e 40 90 43 6a
        e 125 80 43 00
        e 44 90 45 62
        e 220 80 45 00
        e 135 90 43 6b
        e 103 80 43 00
        e 26 90 43 6e
        e 706 90 48 5c
        e 23 80 43 00
        e 139 80 48 00
        e 78 90 48 5e
        e 553 80 48 00
        e 244 90 45 51
        e 97 80 45 00
        e 61 90 46 6a
        e 271 80 46 00
        e 52 90 45 62
        e 127 80 45 00
        e 54 90 44 63
        e 286 80 44 00
        e 18 90 45 5c
        e 121 80 45 00
        e 67 90 44 63
        e 230 80 44 00
        e 59 90 45 5f
        e 131 80 45 00
        e 55 90 46 69
        e 258 80 46 00
        e 42 90 45 5f
        e 80 80 45 00
        e 93 90 45 66
        e 469 80 45 00
        e 6 90 4a 61
        e 589 80 4a 00
        e 115 90 48 60
        e 183 80 48 00
        e 43 90 46 5f
        e 220 80 46 00
        e 8 90 43 65
        e 159 80 43 00
        e 104 90 43 6d
        e 472 80 43 00
        e 19 90 41 57
        e 600 80 41 00
        e 141 90 40 5e
        e 209 80 40 00
        e 19 90 41 64
        e 170 80 41 00
        e 63 90 43 6d
        e 204 80 43 00
        e 34 90 46 65
        e 180 80 46 00
        e 64 90 45 61
        e 211 80 45 00
        e 23 90 40 5f
        e 223 80 40 00
        e 19 90 41 57
        e 163 80 41 00
        e 64 90 3d 55
        e 194 80 3d 00
        e 51 90 3e 51
        e 217 80 3e 00
        e 30 90 46 6a
        e 213 80 46 00
        e 32 90 43 68
        e 153 80 43 00
        e 85 90 43 69
        e 429 80 43 00
        e 44 90 41 5b
        e 619 80 41 00
        e 126 90 43 6c
        e 212 80 43 00
        e 16 90 45 66
        e 171 80 45 00
        e 66 90 46 69
        e 173 80 46 00
        e 71 90 47 5d
        e 219 80 47 00
        e 22 90 48 57
        e 224 80 48 00
        e 22 90 45 61
        e 219 80 45 00
        e 13 90 41 5e
        e 238 80 41 00
        e 22 90 3e 60
        e 609 80 3e 00
        e 93 90 46 68
        e 206 80 46 00
        e 37 90 45 61
        e 430 80 45 00
        e 42 90 41 68
        e 275 80 41 00
        e 41 90 3e 52
        e 120 80 3e 00
        e 33 90 3c 61
        e 462 80 3c 00
        e 6 90 3e 64
        e 282 80 3e 00
        e 40 90 40 5a
        e 131 80 40 00
        e 65 90 41 5f
        e 1925 80 41 00
        e 401 90 43 68
        e 56 90 41 59
        e 10 80 43 00
        e 175 90 40 56
        e 2 80 41 00
        e 125 90 41 51
        e 33 80 40 00
        e 115 80 41 00
        e 9 90 46 61
        e 54 90 45 60
        e 11 80 46 00
        e 118 90 44 5d
        e 1 80 45 00
        e 175 90 45 5d
        e 37 80 44 00
        e 59 80 45 00
        e 51 90 4a 5d
        e 53 90 48 5e
        e 13 80 4a 00
        e 112 80 48 00
        e 7 90 47 47
        e 163 90 48 5d
        e 20 80 47 00
        e 155 80 48 00
        e 6 90 4d 61
        e 376 80 4d 00
        e 523 90 4d 65
        e 505 80 4d 00
        e 370 90 41 68
        e 54 80 41 00
        e 59 90 41 6a
        e 1451 80 41 00
        E 456 b0 7b 00
        GUID {F244318C-CB32-6847-B6A7-E6A3225CAB2C}
        IGNTEMPO 0 120 4 4
        SRCCOLOR 957
        VELLANE -1 86 6
        CFGEDITVIEW 0 4.884956 48 12 0 0 0 0 0 0.5
        KEYSNAP 0
        TRACKSEL 226
        EVTFILTER 0 -1 -1 -1 -1 0 0 0 0 -1 -1 -1 -1 0 -1 0 -1 -1
        CFGEDIT 1 1 0 0 0 0 1 0 1 1 1 0.25 64 111 1280 778 0 0 2 3 0 0 0 0 0 -1 0 0 1 64
      >
      TAKE
      NAME "trumpet(s) - National_Anthems_-_Brazil.mid"
      TAKEVOLPAN 0 1 -1
      SOFFS 0 0
      PLAYRATE 1 1 0 -1 0 0.0025
      CHANMODE 0
      GUID {3C3F0A09-3C10-344C-AE25-EC2DA849BAC8}
      <SOURCE MIDI
        HASDATA 1 480 QN
        POOLEDEVTS {B9CA2150-87F2-4643-8774-3DA923FA8901}
        <X 0 0 0 0 3 trumpet(s)
          /wN0cnVtcGV0KHMp
        >
        <X 0 0 0 0 4 "Sound Canvas"
          /wRTb3VuZCBDYW52YXM=
        >
        E 321 90 3c 54
        E 60 80 3c 40
        E 82 90 3c 62
        E 74 90 3e 5a
        E 2 80 3c 47
        E 65 90 3c 50
        E 15 80 3e 3c
        E 75 80 3c 4a
        E 4 90 3b 51
        E 98 90 3c 52
        E 11 80 3b 23
        E 124 90 41 63
        E 4 80 3c 43
        E 156 80 41 3c
        E 180 90 41 61
        E 64 80 41 45
        E 59 90 41 62
        E 99 90 43 67
        E 12 80 41 4e
        E 71 90 41 5b
        E 8 80 43 4d
        E 75 90 40 59
        E 8 80 41 4b
        E 77 90 41 63
        E 27 80 40 3b
        E 103 80 41 47
        E 4 90 45 67
        E 186 80 45 29
        E 177 90 45 5d
        E 63 80 45 3c
        E 71 90 45 5b
        E 70 90 46 67
        E 3 80 45 44
        E 82 90 45 5d
        E 17 80 46 34
        E 64 90 44 66
        E 5 80 45 43
        E 93 90 45 62
        E 27 80 44 33
        E 97 80 45 3f
        E 10 90 48 63
        E 222 80 48 2c
        E 255 90 4d 67
        E 810 80 4d 39
        E 219 90 3c 5e
        E 166 80 3c 20
        E 135 90 3c 51
        E 97 80 3c 20
        E 66 90 41 64
        E 168 80 41 1b
        E 135 90 40 4d
        E 113 80 40 01
        E 43 90 43 6c
        E 223 80 43 26
        E 85 90 41 5a
        E 144 80 41 2d
        E 28 90 45 62
        E 207 80 45 09
        E 94 90 43 63
        E 119 80 43 22
        E 43 90 46 66
        E 244 80 46 32
        E 54 90 45 56
        E 106 80 45 27
        E 61 90 42 5e
        E 499 90 43 66
        E 28 80 42 25
        E 613 80 43 51
        E 190 90 3e 5c
        E 73 80 3e 36
        E 66 90 3e 59
        E 79 90 40 4f
        E 2 80 3e 2e
        E 75 90 3e 5b
        E 6 80 40 40
        E 83 90 3d 5f
        E 3 80 3e 38
        E 95 90 3e 60
        E 12 80 3d 47
        E 126 90 43 6c
        E 11 80 3e 39
        E 177 80 43 2d
        E 147 90 43 6a
        E 63 80 43 46
        E 70 90 43 68
        E 93 80 43 4c
        E 1 90 45 53
        E 74 90 43 64
        E 11 80 45 43
        E 77 90 42 5a
        E 5 80 43 4f
        E 78 90 43 67
        E 32 80 42 2c
        E 76 80 43 30
        E 16 90 46 68
        E 212 80 46 38
        E 122 90 46 65
        E 72 80 46 4d
        E 68 90 46 69
        E 87 80 46 4d
        E 10 90 48 5c
        E 48 90 46 63
        E 19 80 48 4e
        E 75 90 45 57
        E 21 80 46 3f
        E 85 90 46 69
        E 41 80 45 28
        E 88 80 46 34
        E 51 90 4a 66
        E 197 80 4a 36
        E 287 90 4f 63
        E 754 80 4f 44
        E 200 90 4f 60
        E 213 90 4d 60
        E 3 80 4f 3d
        E 142 80 4d 2b
        E 60 90 4f 53
        E 36 90 4d 58
        E 18 80 4f 4c
        E 243 90 4c 5a
        E 1 80 4d 41
        E 138 80 4c 1a
        E 75 90 4d 58
        E 44 90 4c 5e
        E 20 80 4d 48
        E 215 90 4a 5d
        E 2 80 4c 48
        E 98 80 4a 36
        E 100 90 4c 3c
        E 37 90 4a 53
        E 28 80 4c 38
        E 223 90 48 5b
        E 3 80 4a 40
        E 114 80 48 2b
        E 73 90 4a 55
        E 54 90 48 56
        E 21 80 4a 48
        E 207 90 46 65
        E 12 80 48 28
        E 128 80 46 45
        E 128 90 43 59
        E 486 90 45 4e
        E 12 80 43 2f
        E 581 80 45 40
        E 180 90 3c 5e
        E 81 80 3c 44
        E 77 90 3c 5d
        E 69 90 3e 58
        E 2 80 3c 4a
        E 67 90 3c 58
        E 16 80 3e 3e
        E 67 80 3c 49
        E 2 90 3b 4f
        E 82 90 3c 58
        E 17 80 3b 36
        E 125 90 41 60
        E 1 80 3c 42
        E 190 80 41 2c
        E 133 90 41 56
        E 73 80 41 3f
        E 89 90 41 5f
        E 81 90 43 63
        E 5 80 41 47
        E 66 90 41 59
        E 15 80 43 49
        E 67 90 40 54
        E 9 80 41 47
        E 94 90 41 5f
        E 20 80 40 37
        E 124 90 45 64
        E 4 80 41 42
        E 217 80 45 3d
        E 118 90 41 5d
        E 72 80 41 34
        E 83 90 41 57
        E 69 90 43 5b
        E 3 80 41 43
        E 67 90 41 59
        E 12 80 43 48
        E 79 90 40 59
        E 7 80 41 47
        E 93 90 41 5b
        E 40 80 40 2a
        E 108 80 41 43
        E 3 90 3e 60
        E 194 80 3e 2e
        E 145 90 43 6a
        E 81 80 43 4c
        E 86 90 43 69
        E 73 80 43 4b
        E 4 90 45 50
        E 77 90 43 65
        E 8 80 45 3b
        E 81 80 43 49
        E 3 90 42 55
        E 94 90 43 5d
        E 24 80 42 2c
        E 86 80 43 1f
        E 4 90 46 63
        E 216 80 46 47
        E 119 90 43 6a
        E 63 80 43 4b
        E 76 90 43 67
        E 84 80 43 47
        E 7 90 45 57
        E 73 90 43 67
        E 8 80 45 43
        E 72 80 43 42
        E 3 90 42 5b
        E 101 90 43 65
        E 10 80 42 43
        E 103 80 43 48
        E 6 90 40 53
        E 239 80 40 27
        E 107 90 45 59
        E 73 80 45 45
        E 86 90 45 5b
        E 87 90 46 5f
        E 6 80 45 3c
        E 56 80 46 41
        E 5 90 45 4b
        E 73 90 44 5d
        E 7 80 45 44
        E 94 90 45 5e
        E 20 80 44 3e
        E 84 80 45 35
        E 16 90 48 62
        E 200 80 48 34
        E 134 90 45 61
        E 56 80 45 3d
        E 76 90 45 5d
        E 82 90 46 62
        E 1 80 45 47
        E 79 90 45 59
        E 19 80 46 38
        E 69 90 44 53
        E 8 80 45 2b
        E 114 90 45 5b
        E 17 80 44 4b
        E 114 80 45 36
        E 9 90 41 62
        E 237 80 41 3a
        E 128 90 46 68
        E 67 80 46 4b
        E 74 90 46 6a
        E 69 80 46 4b
        E 12 90 48 53
        E 61 90 46 67
        E 14 80 48 4e
        E 63 90 45 51
        E 4 80 46 45
        E 86 90 46 65
        E 43 80 45 2a
        E 71 80 46 40
        E 33 90 48 63
        E 228 80 48 40
        E 114 90 48 5b
        E 61 80 48 4a
        E 80 90 48 61
        E 80 90 4a 59
        E 5 80 48 47
        E 65 90 48 57
        E 10 80 4a 4c
        E 82 90 47 5f
        E 12 80 48 48
        E 106 90 48 63
        E 8 80 47 40
        E 116 90 45 63
        E 2 80 48 4a
        E 277 80 45 0c
        E 174 90 4d 5d
        E 868 80 4d 2c
        E 97 90 4c 60
        E 262 80 4c 34
        E 53 90 4a 5a
        E 92 80 4a 1c
        E 90 90 48 5f
        E 589 80 48 48
        E 351 90 40 63
        E 769 80 40 21
        E 186 90 41 58
        E 907 80 41 47
        E 553 90 3c 64
        E 378 80 3c 24
        E 75 90 41 64
        E 303 80 41 1c
        E 48 90 40 54
        E 120 80 40 2d
        E 40 90 41 67
        E 231 80 41 29
        E 67 90 43 6b
        E 122 80 43 35
        E 55 90 45 62
        E 292 80 45 01
        E 44 90 43 67
        E 150 80 43 2d
        E 26 90 45 68
        E 224 80 45 26
        E 74 90 46 67
        E 116 80 46 3c
        E 61 90 47 62
        E 671 80 47 08
        E 38 90 48 63
        E 226 80 48 4f
        E 11 90 41 65
        E 390 80 41 16
        E 87 90 3c 63
        E 383 80 3c 27
        E 97 90 41 63
        E 267 80 41 2d
        E 62 90 40 57
        E 131 80 40 22
        E 32 90 43 6c
        E 265 80 43 04
        E 54 90 41 52
        E 128 80 41 2c
        E 18 90 45 65
        E 282 80 45 22
        E 27 90 43 62
        E 138 80 43 40
        E 25 90 46 6a
        E 308 80 46 11
        E 13 90 45 54
        E 100 80 45 36
        E 69 90 42 61
        E 449 80 42 26
        E 24 90 43 6c
        E 765 80 43 48
        E 193 90 3c 61
        E 358 80 3c 03
        E 103 90 43 6d
        E 281 80 43 1f
        E 45 90 42 5e
        E 127 80 42 2e
        E 42 90 43 6d
        E 237 80 43 2e
        E 80 90 45 5a
        E 131 80 45 2b
        E 39 90 46 65
        E 288 80 46 39
        E 31 90 45 5c
        E 135 80 45 29
        E 33 90 46 6a
        E 238 80 46 35
        E 64 90 48 56
        E 121 80 48 27
        E 53 90 49 65
        E 694 80 49 01
        E 19 90 4a 64
        E 215 80 4a 20
        E 29 90 43 6d
        E 356 80 43 1f
        E 112 90 3c 5c
        E 408 80 3c 01
        E 68 90 43 6d
        E 281 80 43 2c
        E 47 90 42 58
        E 140 80 42 2e
        E 28 90 45 66
        E 262 80 45 03
        E 63 90 43 66
        E 144 80 43 45
        E 6 90 46 65
        E 306 80 46 4d
        E 13 90 45 56
        E 136 80 45 13
        E 39 90 48 61
        E 274 80 48 46
        E 7 90 46 63
        E 171 80 46 52
        E 26 90 44 65
        E 463 80 44 44
        E 6 90 45 64
        E 791 80 45 37
        E 178 90 45 68
        E 259 80 45 2f
        E 71 90 45 62
        E 110 80 45 20
        E 39 90 46 6a
        E 489 90 45 61
        E 14 80 46 26
        E 584 80 45 29
        E 97 90 45 62
        E 168 80 45 27
        E 76 90 46 69
        E 308 80 46 30
        E 37 90 45 64
        E 68 80 45 3f
        E 71 90 45 66
        E 451 80 45 01
        E 38 90 4a 60
        E 816 80 4a 17
        E 109 90 48 60
        E 217 80 48 01
        E 34 90 46 63
        E 142 80 46 3b
        E 92 90 46 6a
        E 226 80 46 2f
        E 22 90 45 62
        E 181 80 45 34
        E 68 90 45 62
        E 212 80 45 31
        E 26 90 43 67
        E 158 80 43 3d
        E 75 90 43 6a
        E 223 80 43 43
        E 14 90 41 58
        E 163 80 41 31
        E 78 90 41 61
        E 226 80 41 34
        E 28 90 40 5b
        E 140 80 40 2d
        E 101 90 40 61
        E 482 80 40 46
        E 5 90 3e 5d
        E 862 80 3e 01
        E 123 90 43 6d
        E 239 80 43 33
        E 95 90 43 6b
        E 97 80 43 36
        E 46 90 45 68
        E 445 80 45 41
        E 13 90 43 69
        E 606 80 43 38
        E 116 90 43 67
        E 188 80 43 2a
        E 48 90 45 64
        E 293 80 45 14
        E 52 90 43 6b
        E 81 80 43 43
        E 63 90 43 69
        E 474 90 48 65
        E 9 80 43 2f
        E 791 80 48 2a
        E 130 90 47 62
        E 234 80 47 34
        E 14 90 45 60
        E 230 80 45 01
        E 35 90 45 60
        E 240 80 45 3c
        E 6 90 43 66
        E 143 80 43 20
        E 94 90 43 6a
        E 209 80 43 47
        E 17 90 41 58
        E 152 80 41 39
        E 79 90 41 62
        E 236 90 40 58
        E 5 80 41 39
        E 157 80 40 30
        E 74 90 40 5f
        E 235 90 3e 61
        E 3 80 40 42
        E 148 80 3e 37
        E 96 90 3c 62
        E 406 80 3c 1c
        E 94 90 3c 5f
        E 582 80 3c 15
        E 145 90 3c 60
        E 207 80 3c 01
        E 35 90 40 65
        E 175 80 40 35
        E 41 90 43 6d
        E 163 80 43 34
        E 81 90 46 6a
        E 189 80 46 33
        E 55 90 3c 56
        E 173 80 3c 0d
        E 40 90 40 5e
        E 176 80 40 30
        E 53 90 43 6a
        E 183 80 43 39
        E 55 90 46 6b
        E 162 80 46 37
        E 92 90 3c 5a
        E 195 80 3c 0f
        E 33 90 40 60
        E 195 80 40 36
        E 54 90 43 6c
        E 178 80 43 2a
        E 84 90 46 68
        E 1285 80 46 28
        E 183 90 3c 60
        E 376 80 3c 01
        E 65 90 41 62
        E 304 80 41 23
        E 47 90 40 56
        E 99 80 40 24
        E 58 90 41 68
        E 235 80 41 1b
        E 85 90 43 68
        E 143 80 43 24
        E 32 90 45 61
        E 274 80 45 1f
        E 47 90 43 6a
        E 147 80 43 38
        E 16 90 45 64
        E 200 80 45 22
        E 93 90 46 63
        E 108 80 46 3a
        E 73 90 47 65
        E 649 80 47 08
        E 52 90 48 63
        E 204 80 48 2a
        E 37 90 41 66
        E 405 80 41 0b
        E 78 90 3c 5e
        E 433 80 3c 20
        E 62 90 41 65
        E 304 80 41 25
        E 22 90 40 51
        E 138 80 40 1d
        E 21 90 43 6c
        E 266 80 43 25
        E 43 90 41 5a
        E 123 80 41 21
        E 46 90 45 64
        E 266 80 45 13
        E 42 90 43 60
        E 134 80 43 3a
        E 33 90 46 68
        E 294 80 46 27
        E 21 90 45 52
        E 110 80 45 2c
        E 54 90 42 63
        E 465 80 42 24
        E 14 90 43 68
        E 730 80 43 38
        E 218 90 3c 5f
        E 394 80 3c 13
        E 74 90 43 6b
        E 245 80 43 0b
        E 71 90 42 5d
        E 142 80 42 2a
        E 26 90 43 6c
        E 284 80 43 01
        E 47 90 45 63
        E 146 80 45 27
        E 36 90 46 66
        E 240 80 46 3d
        E 61 90 45 64
        E 135 80 45 22
        E 32 90 46 69
        E 263 80 46 33
        E 32 90 48 5a
        E 114 80 48 2b
        E 69 90 49 5f
        E 699 80 49 1e
        E 16 90 4a 61
        E 194 80 4a 1b
        E 53 90 43 6c
        E 379 80 43 1c
        E 108 90 3c 5a
        E 373 80 3c 01
        E 100 90 43 6e
        E 295 80 43 41
        E 17 90 42 56
        E 116 80 42 1e
        E 46 90 45 66
        E 286 80 45 27
        E 9 90 43 5f
        E 135 80 43 30
        E 34 90 46 6a
        E 324 80 46 3a
        E 7 90 45 55
        E 123 80 45 25
        E 43 90 48 64
        E 249 80 48 01
        E 46 90 46 62
        E 123 80 46 24
        E 55 90 44 5d
        E 497 90 45 60
        E 9 80 44 13
        E 732 80 45 25
        E 509 90 41 51
        E 110 80 41 35
        E 67 90 43 6c
        E 292 80 43 38
        E 36 90 41 4d
        E 144 80 41 31
        E 28 90 40 63
        E 267 80 40 0c
        E 22 90 41 51
        E 142 80 41 23
        E 45 90 40 5f
        E 279 80 40 01
        E 11 90 41 5e
        E 142 80 41 29
        E 38 90 43 6a
        E 284 80 43 21
        E 26 90 41 52
        E 84 80 41 38
        E 92 90 41 63
        E 698 90 46 55
        E 28 80 41 28
        E 136 80 46 39
        E 65 90 46 67
        E 656 80 46 20
        E 188 90 43 69
        E 104 80 43 3e
        E 58 90 45 64
        E 255 80 45 2c
        E 29 90 43 66
        E 164 80 43 06
        E 14 90 42 5e
        E 248 80 42 34
        E 32 90 43 6a
        E 124 80 43 48
        E 70 90 42 66
        E 255 80 42 2e
        E 40 90 43 6a
        E 125 80 43 2a
        E 44 90 45 62
        E 220 80 45 22
        E 135 90 43 6b
        E 103 80 43 3d
        E 26 90 43 6e
        E 706 90 48 5c
        E 23 80 43 01
        E 139 80 48 3a
        E 78 90 48 5e
        E 553 80 48 38
        E 244 90 45 51
        E 97 80 45 31
        E 61 90 46 6a
        E 271 80 46 33
        E 52 90 45 62
        E 127 80 45 22
        E 54 90 44 63
        E 286 80 44 16
        E 18 90 45 5c
        E 121 80 45 2b
        E 67 90 44 63
        E 230 80 44 2b
        E 59 90 45 5f
        E 131 80 45 2a
        E 55 90 46 69
        E 258 80 46 01
        E 42 90 45 5f
        E 80 80 45 31
        E 93 90 45 66
        E 469 80 45 01
        E 6 90 4a 61
        E 589 80 4a 2d
        E 115 90 48 60
        E 183 80 48 04
        E 43 90 46 5f
        E 220 80 46 28
        E 8 90 43 65
        E 159 80 43 2c
        E 104 90 43 6d
        E 472 80 43 34
        E 19 90 41 57
        E 600 80 41 32
        E 141 90 40 5e
        E 209 80 40 21
        E 19 90 41 64
        E 170 80 41 21
        E 63 90 43 6d
        E 204 80 43 28
        E 34 90 46 65
        E 180 80 46 40
        E 64 90 45 61
        E 211 80 45 16
        E 23 90 40 5f
        E 223 80 40 28
        E 19 90 41 57
        E 163 80 41 27
        E 64 90 3d 55
        E 194 80 3d 17
        E 51 90 3e 51
        E 217 80 3e 0d
        E 30 90 46 6a
        E 213 80 46 4a
        E 32 90 43 68
        E 153 80 43 39
        E 85 90 43 69
        E 429 80 43 0a
        E 44 90 41 5b
        E 619 80 41 3d
        E 126 90 43 6c
        E 212 80 43 33
        E 16 90 45 66
        E 171 80 45 24
        E 66 90 46 69
        E 173 80 46 28
        E 71 90 47 5d
        E 219 80 47 36
        E 22 90 48 57
        E 224 80 48 26
        E 22 90 45 61
        E 219 80 45 29
        E 13 90 41 5e
        E 238 80 41 37
        E 22 90 3e 60
        E 609 80 3e 01
        E 93 90 46 68
        E 206 80 46 36
        E 37 90 45 61
        E 430 80 45 0f
        E 42 90 41 68
        E 275 80 41 29
        E 41 90 3e 52
        E 120 80 3e 35
        E 33 90 3c 61
        E 462 80 3c 23
        E 6 90 3e 64
        E 282 80 3e 01
        E 40 90 40 5a
        E 131 80 40 1a
        E 65 90 41 5f
        E 1925 80 41 20
        E 401 90 43 68
        E 56 90 41 59
        E 10 80 43 4e
        E 175 90 40 56
        E 2 80 41 36
        E 125 90 41 51
        E 33 80 40 25
        E 115 80 41 49
        E 9 90 46 61
        E 54 90 45 60
        E 11 80 46 4a
        E 118 90 44 5d
        E 1 80 45 3d
        E 175 90 45 5d
        E 37 80 44 27
        E 59 80 45 36
        E 51 90 4a 5d
        E 53 90 48 5e
        E 13 80 4a 4d
        E 112 80 48 47
        E 7 90 47 47
        E 163 90 48 5d
        E 20 80 47 21
        E 155 80 48 3b
        E 6 90 4d 61
        E 376 80 4d 20
        E 523 90 4d 65
        E 505 80 4d 54
        E 370 90 41 68
        E 54 80 41 4e
        E 59 90 41 6a
        E 1451 80 41 66
        E 456 b0 7b 00
        GUID {1C480D0D-1ABA-014F-95AD-CCB991B3E266}
        IGNTEMPO 0 120 4 4
        SRCCOLOR 969
        VELLANE -1 86 6
      >
    >
  >
  <TRACK {3C494A2B-9670-9740-AD22-E42CC5065FE1}
    NAME "ch2,4 (send)"
    PEAKCOL 16576
    BEAT -1
    AUTOMODE 0
    VOLPAN 1 0 -1 -1 1
    MUTESOLO 0 0 0
    IPHASE 0
    ISBUS 0 0
    BUSCOMP 0 0
    SHOWINMIX 1 0.6667 0.5 1 0.5 0 0 0
    FREEMODE 0
    SEL 0
    REC 0 0 0 0 0 0 0
    VU 2
    MIDICTL -1 1
    TRACKHEIGHT 0 0
    INQ 0 0 0 0.5 100 0 0 100
    NCHAN 2
    FX 1
    TRACKID {3C494A2B-9670-9740-AD22-E42CC5065FE1}
    PERF 0
    MIDIOUT -1
    MAINSEND 1 0
    <FXCHAIN
      WNDRECT 32 359 724 387
      SHOW 0
      LASTSEL 0
      DOCKED 0
    >
    <ITEM
      POSITION 0
      SNAPOFFS 0
      LENGTH 113
      LOOP 1
      ALLTAKES 0
      FADEIN 1 0 0 1 0 0
      FADEOUT 1 0 0 1 0 0
      MUTE 0
      SEL 0
      YPOS 0.333333 0.333333
      IGUID {F996A0D3-7F19-AC4A-8C72-AA168981EE2F}
      IID 15
      NAME "fr. horn(s) - National_Anthems_-_Brazil.mid"
      VOLPAN 1 0 1 -1
      SOFFS 0 0
      PLAYRATE 1 1 0 -1 0 0.0025
      CHANMODE 0
      TAKECOLOR 26173599 B
      GUID {454C0D60-7CA1-1645-8DD9-07EBA4F11076}
      <SOURCE MIDI
        HASDATA 1 480 QN
        POOLEDEVTS {81549C02-A5F4-CB4B-80BF-7931259DBD50}
        <X 0 0 0 0 3 "fr. horn(s)"
          /wNmci4gaG9ybihzKQ==
        >
        <X 0 0 0 0 4 "Sound Canvas"
          /wRTb3VuZCBDYW52YXM=
        >
        e 339 91 3c 53
        e 59 81 3c 00
        e 70 91 3c 60
        e 77 81 3c 00
        e 4 91 3e 5d
        e 70 91 3c 53
        e 19 81 3e 00
        e 60 91 3b 57
        e 10 81 3c 00
        e 86 91 3c 5b
        e 17 81 3b 00
        e 135 91 41 5a
        e 3 81 3c 00
        e 156 81 41 00
        e 159 91 41 5f
        e 52 81 41 00
        e 85 91 41 64
        e 91 91 43 69
        e 5 81 41 00
        e 58 91 41 59
        e 14 81 43 00
        e 58 91 40 59
        e 17 81 41 00
        e 73 91 41 5d
        e 29 81 40 00
        e 103 81 41 00
        e 21 91 45 5f
        e 181 81 45 00
        e 167 91 45 64
        e 41 81 45 00
        e 80 91 45 5d
        e 80 91 46 63
        e 5 81 45 00
        e 85 91 45 53
        e 7 81 46 00
        e 64 91 44 61
        e 15 81 45 00
        e 76 91 45 61
        e 26 81 44 00
        e 122 81 45 00
        e 9 91 48 5e
        e 159 81 48 00
        e 344 91 48 4c
        e 0 91 45 50
        e 4 91 41 4e
        e 770 81 45 00
        e 17 81 48 00
        e 7 81 41 00
        e 209 91 3c 5f
        e 152 81 3c 00
        e 139 91 3c 52
        e 98 81 3c 00
        e 64 91 41 63
        e 206 81 41 00
        e 104 91 40 53
        e 124 81 40 00
        e 39 91 43 68
        e 225 81 43 00
        e 94 91 41 58
        e 137 81 41 00
        e 50 91 45 5a
        e 216 81 45 00
        e 56 91 43 60
        e 116 81 43 00
        e 63 91 46 63
        e 208 81 46 00
        e 95 91 45 50
        e 79 81 45 00
        e 93 91 42 5b
        e 456 81 42 00
        e 28 91 43 63
        e 528 81 43 00
        e 330 91 3e 63
        e 45 81 3e 00
        e 71 91 3e 62
        e 81 81 3e 00
        e 1 91 40 5e
        e 73 91 3e 53
        e 11 81 40 00
        e 61 91 3d 62
        e 9 81 3e 00
        e 95 91 3e 5e
        e 3 81 3d 00
        e 136 81 3e 00
        e 9 91 43 69
        e 181 81 43 00
        e 150 91 43 67
        e 43 81 43 00
        e 85 91 43 63
        e 88 91 45 59
        e 5 81 43 00
        e 72 91 43 64
        e 13 81 45 00
        e 70 91 42 52
        e 8 81 43 00
        e 77 91 43 63
        e 22 81 42 00
        e 107 81 43 00
        e 11 91 46 67
        e 172 81 46 00
        e 181 91 46 6b
        e 42 81 46 00
        e 69 91 46 68
        e 75 81 46 00
        e 12 91 48 56
        e 62 91 46 63
        e 18 81 48 00
        e 68 91 45 43
        e 4 81 46 00
        e 90 91 46 67
        e 34 81 45 00
        e 128 81 46 00
        e 11 91 4a 5c
        e 171 81 4a 00
        e 295 91 46 5a
        e 3 91 4a 49
        e 4 91 43 52
        e 927 81 46 00
        e 12 81 43 00
        e 4 81 4a 00
        e 491 91 46 49
        e 307 81 46 00
        e 192 91 46 4e
        e 286 81 46 00
        e 192 91 43 4e
        e 271 81 43 00
        e 224 91 43 5b
        e 307 81 43 00
        e 183 91 41 42
        e 266 81 41 00
        e 212 91 41 40
        e 530 81 41 00
        e 262 91 3c 5c
        e 51 81 3c 00
        e 90 91 3c 5a
        e 92 81 3c 00
        e 3 91 3e 59
        e 54 91 3c 56
        e 17 81 3e 00
        e 61 91 3b 54
        e 13 81 3c 00
        e 89 91 3c 53
        e 13 81 3b 00
        e 111 81 3c 00
        e 63 91 41 4e
        e 172 81 41 00
        e 139 91 41 59
        e 55 81 41 00
        e 84 91 41 5c
        e 83 91 43 64
        e 1 81 41 00
        e 66 91 41 55
        e 15 81 43 00
        e 64 91 40 50
        e 11 81 41 00
        e 77 91 41 5d
        e 18 81 40 00
        e 122 81 41 00
        e 37 91 45 5c
        e 179 81 45 00
        e 154 91 41 57
        e 58 81 41 00
        e 74 91 41 57
        e 95 91 43 62
        e 2 81 41 00
        e 59 91 41 57
        e 10 81 43 00
        e 88 91 40 54
        e 7 81 41 00
        e 89 91 41 57
        e 13 81 40 00
        e 152 81 41 00
        e 23 91 3e 4e
        e 198 81 3e 00
        e 114 91 43 66
        e 64 81 43 00
        e 68 91 43 68
        e 86 81 43 00
        e 5 91 45 54
        e 65 91 43 67
        e 6 81 45 00
        e 68 91 42 54
        e 11 81 43 00
        e 79 91 43 5b
        e 40 81 42 00
        e 73 81 43 00
        e 24 91 46 65
        e 214 81 46 00
        e 130 91 43 64
        e 45 81 43 00
        e 85 91 43 64
        e 63 81 43 00
        e 12 91 45 5a
        e 73 91 43 5c
        e 12 81 45 00
        e 61 91 42 5a
        e 7 81 43 00
        e 95 91 43 62
        e 19 81 42 00
        e 113 81 43 00
        e 33 91 40 59
        e 229 81 40 00
        e 102 91 45 5b
        e 50 81 45 00
        e 85 91 45 59
        e 75 91 46 5f
        e 4 81 45 00
        e 78 91 45 54
        e 9 81 46 00
        e 61 91 44 62
        e 7 81 45 00
        e 100 91 45 5e
        e 31 81 44 00
        e 143 81 45 00
        e 14 91 48 59
        e 181 81 48 00
        e 164 91 45 53
        e 56 81 45 00
        e 74 91 45 5e
        e 94 91 46 62
        e 4 81 45 00
        e 67 91 45 4f
        e 15 81 46 00
        e 53 91 44 62
        e 6 81 45 00
        e 108 91 45 4b
        e 12 81 44 00
        e 99 81 45 00
        e 20 91 41 59
        e 207 81 41 00
        e 115 91 46 63
        e 45 81 46 00
        e 79 91 46 68
        e 77 81 46 00
        e 16 91 48 4f
        e 63 91 46 66
        e 11 81 48 00
        e 80 91 45 53
        e 12 81 46 00
        e 81 91 46 67
        e 21 81 45 00
        e 129 81 46 00
        e 28 91 43 69
        e 232 81 43 00
        e 127 91 48 5c
        e 74 81 48 00
        e 52 91 48 5e
        e 74 81 48 00
        e 13 91 4a 60
        e 60 91 48 51
        e 15 81 4a 00
        e 74 91 47 54
        e 3 81 48 00
        e 111 81 47 00
        e 6 91 48 5c
        e 140 81 48 00
        e 16 91 45 5d
        e 231 81 45 00
        e 210 91 44 49
        e 6 91 4a 42
        e 1 91 41 48
        e 849 81 44 00
        e 30 81 41 00
        e 29 81 4a 00
        e 491 91 41 52
        e 4 91 45 4f
        e 2 91 3c 41
        e 442 81 41 00
        e 5 81 45 00
        e 46 81 3c 00
        e 494 91 3a 56
        e 1 91 3c 53
        e 5 91 37 2f
        e 508 81 3c 00
        e 1 81 3a 00
        e 39 81 37 00
        e 406 91 3c 50
        e 1 91 39 46
        e 1 91 35 39
        e 144 81 3c 00
        e 12 81 39 00
        e 34 81 35 00
        e 19489 91 41 52
        e 1 91 45 51
        e 328 81 41 00
        e 0 81 45 00
        e 123 91 46 51
        e 3 91 43 52
        e 499 81 43 00
        e 11 81 46 00
        e 675 91 41 4b
        e 1 91 45 4c
        e 117 81 45 00
        e 1 81 41 00
        e 356 91 43 5a
        e 0 91 40 48
        e 114 81 43 00
        e 17 81 40 00
        e 365 91 41 57
        e 7 91 3e 4c
        e 129 81 41 00
        e 4 81 3e 00
        e 307 91 3d 48
        e 12 91 40 4d
        e 66 81 40 00
        e 14 81 3d 00
        e 417 91 45 50
        e 2 91 41 58
        e 1 91 3e 4e
        e 47 81 41 00
        e 6 81 45 00
        e 0 81 3e 00
        e 57 91 45 60
        e 5 91 3e 52
        e 1 91 41 5c
        e 37 81 41 00
        e 8 81 3e 00
        e 5 81 45 00
        e 64 91 45 62
        e 4 91 41 5e
        e 1 91 3e 52
        e 65 81 3e 00
        e 3 81 41 00
        e 11 81 45 00
        e 174 91 45 5b
        e 3 91 41 58
        e 2 91 3e 52
        e 56 81 3e 00
        e 4 81 41 00
        e 16 81 45 00
        e 161 91 45 51
        e 2 91 41 56
        e 3 91 3e 4d
        e 483 81 41 00
        e 8 81 45 00
        e 2 81 3e 00
        e 715 91 43 5b
        e 1 91 3b 4b
        e 0 91 3e 55
        e 47 81 3e 00
        e 5 81 43 00
        e 3 81 3b 00
        e 59 91 3b 49
        e 0 91 43 5d
        e 0 91 3e 59
        e 53 81 3e 00
        e 3 81 43 00
        e 8 81 3b 00
        e 58 91 43 5a
        e 2 91 3e 5a
        e 1 91 3b 4e
        e 59 81 3e 00
        e 7 81 43 00
        e 7 81 3b 00
        e 156 91 43 5f
        e 1 91 3b 51
        e 0 91 3e 53
        e 56 81 3e 00
        e 9 81 3b 00
        e 1 81 43 00
        e 160 91 43 57
        e 1 91 3e 50
        e 1 91 3b 4c
        e 407 81 3b 00
        e 6 81 3e 00
        e 46 81 43 00
        e 997 91 43 60
        e 0 91 40 4c
        e 381 81 43 00
        e 39 81 40 00
        e 41 91 45 4b
        e 0 91 41 4e
        e 500 81 41 00
        e 10 81 45 00
        e 704 91 40 49
        e 1 91 43 5e
        e 89 81 43 00
        e 32 81 40 00
        e 349 91 41 51
        e 2 91 3e 4d
        e 117 81 41 00
        e 12 81 3e 00
        e 338 91 3c 49
        e 1 91 40 4d
        e 115 81 3c 00
        e 14 81 40 00
        e 352 91 3e 4f
        e 3 91 3b 45
        e 89 81 3b 00
        e 10 81 3e 00
        e 607 91 43 56
        e 1 91 40 46
        e 6 91 3c 37
        e 462 81 43 00
        e 0 81 40 00
        e 26 81 3c 00
        e 268 91 3c 59
        e 146 81 3c 00
        e 82 91 40 5f
        e 198 81 40 00
        e 49 91 43 5c
        e 173 81 43 00
        e 60 91 40 5e
        e 3 91 3c 50
        e 99 81 40 00
        e 44 81 3c 00
        e 99 91 3c 5b
        e 110 91 3e 58
        e 5 81 3c 00
        e 106 91 40 5b
        e 20 81 3e 00
        e 95 91 41 5b
        e 1 81 40 00
        e 129 91 43 64
        e 18 81 41 00
        e 88 91 45 5c
        e 4 81 43 00
        e 104 81 45 00
        e 16 91 46 58
        e 125 81 46 00
        e 94 91 3c 5c
        e 107 91 3e 53
        e 29 81 3c 00
        e 95 91 40 54
        e 1 81 3e 00
        e 111 91 41 52
        e 1 81 40 00
        e 131 91 43 49
        e 6 81 41 00
        e 98 81 43 00
        e 11 91 45 56
        e 129 81 45 00
        e 3 91 46 5f
        e 147 81 46 00
        e 113 91 43 69
        e 107 81 43 00
        e 125 91 40 5e
        e 158 81 40 00
        e 83 91 3c 5b
        e 96 81 3c 00
        e 145 91 46 68
        e 134 81 46 00
        e 97 91 43 67
        e 142 81 43 00
        e 100 91 40 58
        e 154 81 40 00
        e 97 91 3c 51
        e 146 81 3c 00
        e 110 91 41 5f
        e 203 81 41 00
        e 136 91 40 53
        e 116 81 40 00
        e 38 91 41 61
        e 184 81 41 00
        e 120 91 43 67
        e 103 81 43 00
        e 64 91 45 53
        e 204 81 45 00
        e 128 91 43 64
        e 111 81 43 00
        e 39 91 45 63
        e 175 81 45 00
        e 124 91 46 5b
        e 109 81 46 00
        e 84 91 47 54
        e 704 81 47 00
        e 34 91 48 52
        e 98 81 48 00
        e 5 91 45 5b
        e 131 81 45 00
        e 17 91 41 5c
        e 275 81 41 00
        e 177 91 3c 5d
        e 193 81 3c 00
        e 127 91 3c 55
        e 99 81 3c 00
        e 62 91 41 56
        e 225 81 41 00
        e 72 91 40 4b
        e 110 81 40 00
        e 58 91 43 67
        e 254 81 43 00
        e 82 91 41 4e
        e 104 81 41 00
        e 57 91 45 5d
        e 252 81 45 00
        e 56 91 43 5c
        e 127 81 43 00
        e 48 91 46 5b
        e 267 81 46 00
        e 60 91 45 63
        e 136 81 45 00
        e 44 91 42 4c
        e 442 81 42 00
        e 31 91 43 63
        e 648 81 43 00
        e 290 91 3c 50
        e 210 81 3c 00
        e 125 91 3c 51
        e 120 81 3c 00
        e 37 91 43 66
        e 229 81 43 00
        e 69 91 42 54
        e 115 81 42 00
        e 40 91 43 66
        e 258 81 43 00
        e 48 91 45 51
        e 125 81 45 00
        e 51 91 46 5f
        e 221 81 46 00
        e 98 91 45 54
        e 115 81 45 00
        e 35 91 46 65
        e 236 81 46 00
        e 93 91 48 46
        e 56 81 48 00
        e 107 91 49 61
        e 694 81 49 00
        e 53 91 4a 54
        e 103 81 4a 00
        e 4 91 46 54
        e 140 81 46 00
        e 4 91 43 5c
        e 347 81 43 00
        e 134 91 3c 4a
        e 185 81 3c 00
        e 112 91 3c 52
        e 115 81 3c 00
        e 38 91 43 68
        e 242 81 43 00
        e 67 91 42 5a
        e 119 81 42 00
        e 50 91 45 59
        e 248 81 45 00
        e 64 91 43 5c
        e 120 81 43 00
        e 37 91 46 51
        e 283 81 46 00
        e 198 91 48 53
        e 249 81 48 00
        e 49 91 46 62
        e 156 81 46 00
        e 16 91 44 56
        e 501 81 44 00
        e 12 91 45 45
        e 704 81 45 00
        e 544 91 41 4b
        e 90 81 41 00
        e 75 91 43 52
        e 242 81 43 00
        e 72 91 41 48
        e 144 81 41 00
        e 25 91 40 51
        e 232 81 40 00
        e 81 91 41 4c
        e 105 81 41 00
        e 56 91 40 57
        e 253 81 40 00
        e 65 91 41 52
        e 108 81 41 00
        e 41 91 43 63
        e 258 81 43 00
        e 96 91 41 48
        e 86 81 41 00
        e 72 91 41 54
        e 705 91 46 4a
        e 13 81 41 00
        e 141 81 46 00
        e 74 91 46 4c
        e 631 81 46 00
        e 204 91 43 5a
        e 105 81 43 00
        e 45 91 45 57
        e 255 81 45 00
        e 56 91 43 4a
        e 111 81 43 00
        e 45 91 42 53
        e 248 81 42 00
        e 72 91 43 5d
        e 96 81 43 00
        e 50 91 42 47
        e 317 81 42 00
        e 21 91 43 64
        e 102 81 43 00
        e 62 91 45 51
        e 245 81 45 00
        e 67 91 43 56
        e 83 81 43 00
        e 74 91 43 5f
        e 724 91 48 50
        e 46 81 43 00
        e 91 81 48 00
        e 78 91 48 4b
        e 711 81 48 00
        e 172 91 45 4f
        e 87 81 45 00
        e 21 91 46 63
        e 275 81 46 00
        e 23 91 45 4e
        e 119 81 45 00
        e 29 91 44 52
        e 314 81 44 00
        e 21 91 45 43
        e 118 81 45 00
        e 47 91 44 55
        e 321 81 44 00
        e 28 91 45 52
        e 131 81 45 00
        e 39 91 46 56
        e 252 81 46 00
        e 52 91 45 52
        e 70 81 45 00
        e 89 91 45 4a
        e 426 81 45 00
        e 41 91 4a 4c
        e 620 81 4a 00
        e 121 91 48 4c
        e 168 81 48 00
        e 44 91 46 4e
        e 211 91 43 57
        e 20 81 46 00
        e 112 81 43 00
        e 129 91 43 55
        e 453 81 43 00
        e 30 91 41 49
        e 638 81 41 00
        e 102 91 40 55
        e 205 81 40 00
        e 25 91 41 52
        e 155 81 41 00
        e 87 91 43 2f
        e 146 81 43 00
        e 86 91 46 4e
        e 206 81 46 00
        e 33 91 45 47
        e 157 81 45 00
        e 105 91 40 51
        e 208 81 40 00
        e 12 91 41 4d
        e 123 81 41 00
        e 116 91 3d 4e
        e 212 91 3e 5f
        e 19 81 3d 00
        e 125 81 3e 00
        e 86 91 46 61
        e 229 81 46 00
        e 31 91 43 57
        e 147 81 43 00
        e 100 91 43 60
        e 357 81 43 00
        e 101 91 41 49
        e 618 81 41 00
        e 150 91 43 66
        e 142 81 43 00
        e 75 91 45 58
        e 131 81 45 00
        e 87 91 46 56
        e 156 81 46 00
        e 102 91 47 50
        e 211 81 47 00
        e 39 91 48 4a
        e 171 81 48 00
        e 75 91 45 5c
        e 202 81 45 00
        e 37 91 41 4d
        e 173 81 41 00
        e 85 91 3e 52
        e 190 91 40 5d
        e 9 81 3e 00
        e 131 81 40 00
        e 1 91 41 5e
        e 128 81 41 00
        e 13 91 43 5c
        e 137 91 45 5a
        e 1 81 43 00
        e 159 81 45 00
        e 12 91 46 62
        e 136 81 46 00
        e 43 91 45 59
        e 188 81 45 00
        e 41 91 46 63
        e 113 81 46 00
        e 14 91 45 53
        e 115 91 43 5e
        e 11 81 45 00
        e 86 91 41 5c
        e 1 81 43 00
        e 113 91 40 59
        e 17 81 41 00
        e 104 91 3e 55
        e 8 81 40 00
        e 102 81 3e 00
        e 27 91 3c 59
        e 139 81 3c 00
        e 6 91 40 53
        e 145 81 40 00
        e 15 91 3e 50
        e 108 81 3e 00
        e 57 91 3c 56
        e 160 81 3c 00
        e 8 91 3e 54
        e 145 81 3e 00
        e 9 91 40 53
        e 117 81 40 00
        e 71 91 41 58
        e 295 81 41 00
        e 117 91 43 61
        e 54 91 41 5c
        e 7 81 43 00
        e 133 91 40 49
        e 3 81 41 00
        e 155 91 41 58
        e 7 81 40 00
        e 115 81 41 00
        e 44 91 46 65
        e 52 91 45 5f
        e 2 81 46 00
        e 114 81 45 00
        e 5 91 44 5e
        e 154 91 45 59
        e 38 81 44 00
        e 37 81 45 00
        e 92 91 4a 5d
        e 54 91 48 54
        e 15 81 4a 00
        e 104 81 48 00
        e 4 91 47 52
        e 150 91 48 52
        e 8 81 47 00
        e 139 81 48 00
        e 41 91 4d 40
        e 392 81 4d 00
        e 2489 91 41 52
        e 1 91 48 51
        e 15 91 45 4b
        e 406 81 48 00
        e 5 81 45 00
        e 10 81 41 00
        e 368 91 39 57
        e 2 91 3c 56
        e 65 81 39 00
        e 4 81 3c 00
        e 64 91 3c 59
        e 5 91 39 5b
        e 1471 81 3c 00
        e 0 81 39 00
        E 444 b0 7b 00
        GUID {09F6FF62-C570-3C48-96CA-8670976A3D90}
        IGNTEMPO 0 120 4 4
        SRCCOLOR 958
        VELLANE -1 86 6
        CFGEDITVIEW 0 4.884956 50 12 0 0 0 0 0 0.5
        KEYSNAP 0
        TRACKSEL 226
        EVTFILTER 0 -1 -1 -1 -1 0 0 0 0 -1 -1 -1 -1 0 -1 0 -1 -1
        CFGEDIT 1 1 0 0 0 0 1 0 1 1 1 0.25 64 111 1280 778 0 0 2 3 0 0 0 0 0 -1 0 0 1 64
      >
      TAKE
      NAME "fr. horn(s) - National_Anthems_-_Brazil.mid"
      TAKEVOLPAN 0 1 -1
      SOFFS 0 0
      PLAYRATE 1 1 0 -1 0 0.0025
      CHANMODE 0
      GUID {940A1C4A-DB30-6749-8F74-9FE403C1007C}
      <SOURCE MIDI
        HASDATA 1 480 QN
        POOLEDEVTS {C04C93B7-F698-B842-89B5-619724AA2C4B}
        <X 0 0 0 0 3 "fr. horn(s)"
          /wNmci4gaG9ybihzKQ==
        >
        <X 0 0 0 0 4 "Sound Canvas"
          /wRTb3VuZCBDYW52YXM=
        >
        E 339 91 3c 53
        E 59 81 3c 46
        E 70 91 3c 60
        E 77 81 3c 25
        E 4 91 3e 5d
        E 70 91 3c 53
        E 19 81 3e 3e
        E 60 91 3b 57
        E 10 81 3c 42
        E 86 91 3c 5b
        E 17 81 3b 42
        E 135 91 41 5a
        E 3 81 3c 32
        E 156 81 41 2c
        E 159 91 41 5f
        E 52 81 41 47
        E 85 91 41 64
        E 91 91 43 69
        E 5 81 41 4d
        E 58 91 41 59
        E 14 81 43 49
        E 58 91 40 59
        E 17 81 41 4e
        E 73 91 41 5d
        E 29 81 40 33
        E 103 81 41 3a
        E 21 91 45 5f
        E 181 81 45 27
        E 167 91 45 64
        E 41 81 45 44
        E 80 91 45 5d
        E 80 91 46 63
        E 5 81 45 45
        E 85 91 45 53
        E 7 81 46 43
        E 64 91 44 61
        E 15 81 45 3b
        E 76 91 45 61
        E 26 81 44 36
        E 122 81 45 23
        E 9 91 48 5e
        E 159 81 48 44
        E 344 91 48 4c
        E 0 91 45 50
        E 4 91 41 4e
        E 770 81 45 3d
        E 17 81 48 44
        E 7 81 41 4a
        E 209 91 3c 5f
        E 152 81 3c 2a
        E 139 91 3c 52
        E 98 81 3c 23
        E 64 91 41 63
        E 206 81 41 22
        E 104 91 40 53
        E 124 81 40 13
        E 39 91 43 68
        E 225 81 43 27
        E 94 91 41 58
        E 137 81 41 07
        E 50 91 45 5a
        E 216 81 45 20
        E 56 91 43 60
        E 116 81 43 22
        E 63 91 46 63
        E 208 81 46 0a
        E 95 91 45 50
        E 79 81 45 01
        E 93 91 42 5b
        E 456 81 42 0b
        E 28 91 43 63
        E 528 81 43 50
        E 330 91 3e 63
        E 45 81 3e 3e
        E 71 91 3e 62
        E 81 81 3e 14
        E 1 91 40 5e
        E 73 91 3e 53
        E 11 81 40 41
        E 61 91 3d 62
        E 9 81 3e 3f
        E 95 91 3e 5e
        E 3 81 3d 40
        E 136 81 3e 33
        E 9 91 43 69
        E 181 81 43 29
        E 150 91 43 67
        E 43 81 43 49
        E 85 91 43 63
        E 88 91 45 59
        E 5 81 43 47
        E 72 91 43 64
        E 13 81 45 3f
        E 70 91 42 52
        E 8 81 43 50
        E 77 91 43 63
        E 22 81 42 2d
        E 107 81 43 1f
        E 11 91 46 67
        E 172 81 46 3c
        E 181 91 46 6b
        E 42 81 46 48
        E 69 91 46 68
        E 75 81 46 44
        E 12 91 48 56
        E 62 91 46 63
        E 18 81 48 48
        E 68 91 45 43
        E 4 81 46 3e
        E 90 91 46 67
        E 34 81 45 2b
        E 128 81 46 35
        E 11 91 4a 5c
        E 171 81 4a 25
        E 295 91 46 5a
        E 3 91 4a 49
        E 4 91 43 52
        E 927 81 46 01
        E 12 81 43 01
        E 4 81 4a 27
        E 491 91 46 49
        E 307 81 46 27
        E 192 91 46 4e
        E 286 81 46 01
        E 192 91 43 4e
        E 271 81 43 1a
        E 224 91 43 5b
        E 307 81 43 01
        E 183 91 41 42
        E 266 81 41 28
        E 212 91 41 40
        E 530 81 41 47
        E 262 91 3c 5c
        E 51 81 3c 42
        E 90 91 3c 5a
        E 92 81 3c 4c
        E 3 91 3e 59
        E 54 91 3c 56
        E 17 81 3e 43
        E 61 91 3b 54
        E 13 81 3c 38
        E 89 91 3c 53
        E 13 81 3b 3b
        E 111 81 3c 20
        E 63 91 41 4e
        E 172 81 41 44
        E 139 91 41 59
        E 55 81 41 40
        E 84 91 41 5c
        E 83 91 43 64
        E 1 81 41 3f
        E 66 91 41 55
        E 15 81 43 49
        E 64 91 40 50
        E 11 81 41 3e
        E 77 91 41 5d
        E 18 81 40 30
        E 122 81 41 27
        E 37 91 45 5c
        E 179 81 45 30
        E 154 91 41 57
        E 58 81 41 3d
        E 74 91 41 57
        E 95 91 43 62
        E 2 81 41 3e
        E 59 91 41 57
        E 10 81 43 47
        E 88 91 40 54
        E 7 81 41 42
        E 89 91 41 57
        E 13 81 40 26
        E 152 81 41 36
        E 23 91 3e 4e
        E 198 81 3e 27
        E 114 91 43 66
        E 64 81 43 43
        E 68 91 43 68
        E 86 81 43 39
        E 5 91 45 54
        E 65 91 43 67
        E 6 81 45 3d
        E 68 91 42 54
        E 11 81 43 4f
        E 79 91 43 5b
        E 40 81 42 0e
        E 73 81 43 44
        E 24 91 46 65
        E 214 81 46 40
        E 130 91 43 64
        E 45 81 43 43
        E 85 91 43 64
        E 63 81 43 24
        E 12 91 45 5a
        E 73 91 43 5c
        E 12 81 45 3d
        E 61 91 42 5a
        E 7 81 43 40
        E 95 91 43 62
        E 19 81 42 31
        E 113 81 43 2f
        E 33 91 40 59
        E 229 81 40 28
        E 102 91 45 5b
        E 50 81 45 3e
        E 85 91 45 59
        E 75 91 46 5f
        E 4 81 45 40
        E 78 91 45 54
        E 9 81 46 32
        E 61 91 44 62
        E 7 81 45 32
        E 100 91 45 5e
        E 31 81 44 1f
        E 143 81 45 14
        E 14 91 48 59
        E 181 81 48 3d
        E 164 91 45 53
        E 56 81 45 33
        E 74 91 45 5e
        E 94 91 46 62
        E 4 81 45 3c
        E 67 91 45 4f
        E 15 81 46 35
        E 53 91 44 62
        E 6 81 45 38
        E 108 91 45 4b
        E 12 81 44 43
        E 99 81 45 3c
        E 20 91 41 59
        E 207 81 41 31
        E 115 91 46 63
        E 45 81 46 47
        E 79 91 46 68
        E 77 81 46 4f
        E 16 91 48 4f
        E 63 91 46 66
        E 11 81 48 43
        E 80 91 45 53
        E 12 81 46 40
        E 81 91 46 67
        E 21 81 45 38
        E 129 81 46 29
        E 28 91 43 69
        E 232 81 43 32
        E 127 91 48 5c
        E 74 81 48 41
        E 52 91 48 5e
        E 74 81 48 36
        E 13 91 4a 60
        E 60 91 48 51
        E 15 81 4a 46
        E 74 91 47 54
        E 3 81 48 48
        E 111 81 47 3f
        E 6 91 48 5c
        E 140 81 48 32
        E 16 91 45 5d
        E 231 81 45 35
        E 210 91 44 49
        E 6 91 4a 42
        E 1 91 41 48
        E 849 81 44 12
        E 30 81 41 25
        E 29 81 4a 31
        E 491 91 41 52
        E 4 91 45 4f
        E 2 91 3c 41
        E 442 81 41 2c
        E 5 81 45 3e
        E 46 81 3c 3b
        E 494 91 3a 56
        E 1 91 3c 53
        E 5 91 37 2f
        E 508 81 3c 39
        E 1 81 3a 1a
        E 39 81 37 22
        E 406 91 3c 50
        E 1 91 39 46
        E 1 91 35 39
        E 144 81 3c 31
        E 12 81 39 10
        E 34 81 35 12
        E 19489 91 41 52
        E 1 91 45 51
        E 328 81 41 1c
        E 0 81 45 0a
        E 123 91 46 51
        E 3 91 43 52
        E 499 81 43 36
        E 11 81 46 45
        E 675 91 41 4b
        E 1 91 45 4c
        E 117 81 45 18
        E 1 81 41 0d
        E 356 91 43 5a
        E 0 91 40 48
        E 114 81 43 2c
        E 17 81 40 07
        E 365 91 41 57
        E 7 91 3e 4c
        E 129 81 41 1d
        E 4 81 3e 23
        E 307 91 3d 48
        E 12 91 40 4d
        E 66 81 40 40
        E 14 81 3d 34
        E 417 91 45 50
        E 2 91 41 58
        E 1 91 3e 4e
        E 47 81 41 4a
        E 6 81 45 3f
        E 0 81 3e 39
        E 57 91 45 60
        E 5 91 3e 52
        E 1 91 41 5c
        E 37 81 41 47
        E 8 81 3e 3c
        E 5 81 45 45
        E 64 91 45 62
        E 4 91 41 5e
        E 1 91 3e 52
        E 65 81 3e 29
        E 3 81 41 34
        E 11 81 45 36
        E 174 91 45 5b
        E 3 91 41 58
        E 2 91 3e 52
        E 56 81 3e 28
        E 4 81 41 3c
        E 16 81 45 2d
        E 161 91 45 51
        E 2 91 41 56
        E 3 91 3e 4d
        E 483 81 41 3a
        E 8 81 45 45
        E 2 81 3e 1a
        E 715 91 43 5b
        E 1 91 3b 4b
        E 0 91 3e 55
        E 47 81 3e 3c
        E 5 81 43 3a
        E 3 81 3b 2f
        E 59 91 3b 49
        E 0 91 43 5d
        E 0 91 3e 59
        E 53 81 3e 3d
        E 3 81 43 3a
        E 8 81 3b 2f
        E 58 91 43 5a
        E 2 91 3e 5a
        E 1 91 3b 4e
        E 59 81 3e 34
        E 7 81 43 3c
        E 7 81 3b 28
        E 156 91 43 5f
        E 1 91 3b 51
        E 0 91 3e 53
        E 56 81 3e 2a
        E 9 81 3b 2a
        E 1 81 43 36
        E 160 91 43 57
        E 1 91 3e 50
        E 1 91 3b 4c
        E 407 81 3b 01
        E 6 81 3e 04
        E 46 81 43 31
        E 997 91 43 60
        E 0 91 40 4c
        E 381 81 43 2e
        E 39 81 40 01
        E 41 91 45 4b
        E 0 91 41 4e
        E 500 81 41 33
        E 10 81 45 40
        E 704 91 40 49
        E 1 91 43 5e
        E 89 81 43 2e
        E 32 81 40 01
        E 349 91 41 51
        E 2 91 3e 4d
        E 117 81 41 1f
        E 12 81 3e 14
        E 338 91 3c 49
        E 1 91 40 4d
        E 115 81 3c 01
        E 14 81 40 01
        E 352 91 3e 4f
        E 3 91 3b 45
        E 89 81 3b 1b
        E 10 81 3e 18
        E 607 91 43 56
        E 1 91 40 46
        E 6 91 3c 37
        E 462 81 43 1c
        E 0 81 40 13
        E 26 81 3c 0a
        E 268 91 3c 59
        E 146 81 3c 0e
        E 82 91 40 5f
        E 198 81 40 01
        E 49 91 43 5c
        E 173 81 43 23
        E 60 91 40 5e
        E 3 91 3c 50
        E 99 81 40 44
        E 44 81 3c 35
        E 99 91 3c 5b
        E 110 91 3e 58
        E 5 81 3c 31
        E 106 91 40 5b
        E 20 81 3e 09
        E 95 91 41 5b
        E 1 81 40 47
        E 129 91 43 64
        E 18 81 41 01
        E 88 91 45 5c
        E 4 81 43 27
        E 104 81 45 43
        E 16 91 46 58
        E 125 81 46 52
        E 94 91 3c 5c
        E 107 91 3e 53
        E 29 81 3c 06
        E 95 91 40 54
        E 1 81 3e 30
        E 111 91 41 52
        E 1 81 40 42
        E 131 91 43 49
        E 6 81 41 27
        E 98 81 43 35
        E 11 91 45 56
        E 129 81 45 26
        E 3 91 46 5f
        E 147 81 46 21
        E 113 91 43 69
        E 107 81 43 26
        E 125 91 40 5e
        E 158 81 40 2d
        E 83 91 3c 5b
        E 96 81 3c 29
        E 145 91 46 68
        E 134 81 46 3d
        E 97 91 43 67
        E 142 81 43 40
        E 100 91 40 58
        E 154 81 40 2b
        E 97 91 3c 51
        E 146 81 3c 25
        E 110 91 41 5f
        E 203 81 41 34
        E 136 91 40 53
        E 116 81 40 14
        E 38 91 41 61
        E 184 81 41 1e
        E 120 91 43 67
        E 103 81 43 22
        E 64 91 45 53
        E 204 81 45 29
        E 128 91 43 64
        E 111 81 43 1e
        E 39 91 45 63
        E 175 81 45 21
        E 124 91 46 5b
        E 109 81 46 26
        E 84 91 47 54
        E 704 81 47 2a
        E 34 91 48 52
        E 98 81 48 47
        E 5 91 45 5b
        E 131 81 45 20
        E 17 91 41 5c
        E 275 81 41 4b
        E 177 91 3c 5d
        E 193 81 3c 2b
        E 127 91 3c 55
        E 99 81 3c 0d
        E 62 91 41 56
        E 225 81 41 26
        E 72 91 40 4b
        E 110 81 40 0a
        E 58 91 43 67
        E 254 81 43 17
        E 82 91 41 4e
        E 104 81 41 01
        E 57 91 45 5d
        E 252 81 45 01
        E 56 91 43 5c
        E 127 81 43 01
        E 48 91 46 5b
        E 267 81 46 01
        E 60 91 45 63
        E 136 81 45 1c
        E 44 91 42 4c
        E 442 81 42 1f
        E 31 91 43 63
        E 648 81 43 3d
        E 290 91 3c 50
        E 210 81 3c 1a
        E 125 91 3c 51
        E 120 81 3c 08
        E 37 91 43 66
        E 229 81 43 12
        E 69 91 42 54
        E 115 81 42 24
        E 40 91 43 66
        E 258 81 43 07
        E 48 91 45 51
        E 125 81 45 01
        E 51 91 46 5f
        E 221 81 46 1a
        E 98 91 45 54
        E 115 81 45 0e
        E 35 91 46 65
        E 236 81 46 0d
        E 93 91 48 46
        E 56 81 48 41
        E 107 91 49 61
        E 694 81 49 1d
        E 53 91 4a 54
        E 103 81 4a 26
        E 4 91 46 54
        E 140 81 46 35
        E 4 91 43 5c
        E 347 81 43 51
        E 134 91 3c 4a
        E 185 81 3c 2c
        E 112 91 3c 52
        E 115 81 3c 1a
        E 38 91 43 68
        E 242 81 43 01
        E 67 91 42 5a
        E 119 81 42 13
        E 50 91 45 59
        E 248 81 45 0d
        E 64 91 43 5c
        E 120 81 43 21
        E 37 91 46 51
        E 283 81 46 22
        E 198 91 48 53
        E 249 81 48 27
        E 49 91 46 62
        E 156 81 46 23
        E 16 91 44 56
        E 501 81 44 10
        E 12 91 45 45
        E 704 81 45 28
        E 544 91 41 4b
        E 90 81 41 42
        E 75 91 43 52
        E 242 81 43 34
        E 72 91 41 48
        E 144 81 41 35
        E 25 91 40 51
        E 232 81 40 01
        E 81 91 41 4c
        E 105 81 41 1d
        E 56 91 40 57
        E 253 81 40 08
        E 65 91 41 52
        E 108 81 41 16
        E 41 91 43 63
        E 258 81 43 28
        E 96 91 41 48
        E 86 81 41 2a
        E 72 91 41 54
        E 705 91 46 4a
        E 13 81 41 12
        E 141 81 46 38
        E 74 91 46 4c
        E 631 81 46 22
        E 204 91 43 5a
        E 105 81 43 38
        E 45 91 45 57
        E 255 81 45 1b
        E 56 91 43 4a
        E 111 81 43 16
        E 45 91 42 53
        E 248 81 42 01
        E 72 91 43 5d
        E 96 81 43 25
        E 50 91 42 47
        E 317 81 42 01
        E 21 91 43 64
        E 102 81 43 19
        E 62 91 45 51
        E 245 81 45 01
        E 67 91 43 56
        E 83 81 43 39
        E 74 91 43 5f
        E 724 91 48 50
        E 46 81 43 0c
        E 91 81 48 1b
        E 78 91 48 4b
        E 711 81 48 0c
        E 172 91 45 4f
        E 87 81 45 37
        E 21 91 46 63
        E 275 81 46 3a
        E 23 91 45 4e
        E 119 81 45 18
        E 29 91 44 52
        E 314 81 44 07
        E 21 91 45 43
        E 118 81 45 27
        E 47 91 44 55
        E 321 81 44 09
        E 28 91 45 52
        E 131 81 45 01
        E 39 91 46 56
        E 252 81 46 2a
        E 52 91 45 52
        E 70 81 45 1b
        E 89 91 45 4a
        E 426 81 45 01
        E 41 91 4a 4c
        E 620 81 4a 2d
        E 121 91 48 4c
        E 168 81 48 01
        E 44 91 46 4e
        E 211 91 43 57
        E 20 81 46 01
        E 112 81 43 2c
        E 129 91 43 55
        E 453 81 43 3e
        E 30 91 41 49
        E 638 81 41 16
        E 102 91 40 55
        E 205 81 40 01
        E 25 91 41 52
        E 155 81 41 12
        E 87 91 43 2f
        E 146 81 43 2d
        E 86 91 46 4e
        E 206 81 46 36
        E 33 91 45 47
        E 157 81 45 02
        E 105 91 40 51
        E 208 81 40 3e
        E 12 91 41 4d
        E 123 81 41 12
        E 116 91 3d 4e
        E 212 91 3e 5f
        E 19 81 3d 1f
        E 125 81 3e 01
        E 86 91 46 61
        E 229 81 46 30
        E 31 91 43 57
        E 147 81 43 36
        E 100 91 43 60
        E 357 81 43 01
        E 101 91 41 49
        E 618 81 41 32
        E 150 91 43 66
        E 142 81 43 2c
        E 75 91 45 58
        E 131 81 45 22
        E 87 91 46 56
        E 156 81 46 06
        E 102 91 47 50
        E 211 81 47 01
        E 39 91 48 4a
        E 171 81 48 20
        E 75 91 45 5c
        E 202 81 45 01
        E 37 91 41 4d
        E 173 81 41 2a
        E 85 91 3e 52
        E 190 91 40 5d
        E 9 81 3e 2e
        E 131 81 40 38
        E 1 91 41 5e
        E 128 81 41 27
        E 13 91 43 5c
        E 137 91 45 5a
        E 1 81 43 2a
        E 159 81 45 08
        E 12 91 46 62
        E 136 81 46 4b
        E 43 91 45 59
        E 188 81 45 29
        E 41 91 46 63
        E 113 81 46 3d
        E 14 91 45 53
        E 115 91 43 5e
        E 11 81 45 22
        E 86 91 41 5c
        E 1 81 43 4b
        E 113 91 40 59
        E 17 81 41 4c
        E 104 91 3e 55
        E 8 81 40 31
        E 102 81 3e 44
        E 27 91 3c 59
        E 139 81 3c 2b
        E 6 91 40 53
        E 145 81 40 42
        E 15 91 3e 50
        E 108 81 3e 30
        E 57 91 3c 56
        E 160 81 3c 23
        E 8 91 3e 54
        E 145 81 3e 22
        E 9 91 40 53
        E 117 81 40 29
        E 71 91 41 58
        E 295 81 41 33
        E 117 91 43 61
        E 54 91 41 5c
        E 7 81 43 47
        E 133 91 40 49
        E 3 81 41 30
        E 155 91 41 58
        E 7 81 40 1d
        E 115 81 41 17
        E 44 91 46 65
        E 52 91 45 5f
        E 2 81 46 47
        E 114 81 45 30
        E 5 91 44 5e
        E 154 91 45 59
        E 38 81 44 01
        E 37 81 45 3e
        E 92 91 4a 5d
        E 54 91 48 54
        E 15 81 4a 4e
        E 104 81 48 44
        E 4 91 47 52
        E 150 91 48 52
        E 8 81 47 1b
        E 139 81 48 48
        E 41 91 4d 40
        E 392 81 4d 5f
        E 2489 91 41 52
        E 1 91 48 51
        E 15 91 45 4b
        E 406 81 48 41
        E 5 81 45 01
        E 10 81 41 47
        E 368 91 39 57
        E 2 91 3c 56
        E 65 81 39 39
        E 4 81 3c 4c
        E 64 91 3c 59
        E 5 91 39 5b
        E 1471 81 3c 5a
        E 0 81 39 53
        E 444 b0 7b 00
        GUID {77E3D18A-6F53-3741-BD07-ADA19529B38E}
        IGNTEMPO 0 120 4 4
        SRCCOLOR 970
        VELLANE -1 86 6
      >
    >
    <ITEM
      POSITION 0
      SNAPOFFS 0
      LENGTH 113
      LOOP 1
      ALLTAKES 0
      FADEIN 1 0 0 1 0 0
      FADEOUT 1 0 0 1 0 0
      MUTE 0
      SEL 0
      YPOS 0.597403 0.103896
      IGUID {408BDF68-69BD-1949-BD42-518DBC4EE476}
      IID 16
      NAME "trombone(s) - National_Anthems_-_Brazil.mid"
      VOLPAN 1 0 1 -1
      SOFFS 0 0
      PLAYRATE 1 1 0 -1 0 0.0025
      CHANMODE 0
      TAKECOLOR 26173599 B
      GUID {61879932-DD7E-FF4D-B88E-4BC0E4A54ABA}
      <SOURCE MIDI
        HASDATA 1 480 QN
        POOLEDEVTS {005CB4F1-B08A-EF45-A7E3-FE31A629C3D6}
        <X 0 0 0 0 3 trombone(s)
          /wN0cm9tYm9uZShzKQ==
        >
        <X 0 0 0 0 4 "Sound Canvas"
          /wRTb3VuZCBDYW52YXM=
        >
        e 335 93 30 66
        e 54 83 30 00
        e 68 93 30 65
        e 78 93 32 61
        e 12 83 30 00
        e 68 93 30 65
        e 17 83 32 00
        e 71 93 2f 66
        e 2 83 30 00
        e 88 93 30 63
        e 17 83 2f 00
        e 129 83 30 00
        e 5 93 35 66
        e 190 83 35 00
        e 160 93 35 6d
        e 48 83 35 00
        e 66 93 35 6b
        e 65 93 37 58
        e 15 83 35 00
        e 68 93 35 6a
        e 18 83 37 00
        e 62 93 34 66
        e 2 83 35 00
        e 86 93 35 65
        e 15 83 34 00
        e 127 83 35 00
        e 16 93 39 65
        e 183 83 39 00
        e 163 93 39 65
        e 39 83 39 00
        e 72 93 39 68
        e 80 93 3a 68
        e 5 83 39 00
        e 81 93 39 5f
        e 10 83 3a 00
        e 75 93 38 68
        e 5 83 39 00
        e 98 93 39 5a
        e 1 83 38 00
        e 149 83 39 00
        e 22 93 3c 61
        e 203 83 3c 00
        e 268 93 35 67
        e 2 93 30 5c
        e 939 83 35 00
        e 28 83 30 00
        e 500 93 3c 4e
        e 6 93 39 59
        e 232 83 3c 00
        e 26 83 39 00
        e 219 93 3c 4c
        e 3 93 39 53
        e 191 83 39 00
        e 9 83 3c 00
        e 262 93 3c 52
        e 0 93 39 50
        e 172 83 39 00
        e 46 83 3c 00
        e 247 93 41 4c
        e 3 93 3c 50
        e 177 83 3c 00
        e 111 83 41 00
        e 193 93 3c 53
        e 264 83 3c 00
        e 209 93 3c 4f
        e 431 83 3c 00
        e 378 93 32 63
        e 49 83 32 00
        e 85 93 32 65
        e 78 93 34 60
        e 4 83 32 00
        e 79 93 32 61
        e 12 83 34 00
        e 64 83 32 00
        e 2 93 31 67
        e 103 93 32 5d
        e 25 83 31 00
        e 143 83 32 00
        e 2 93 37 5b
        e 157 83 37 00
        e 183 93 37 5e
        e 44 83 37 00
        e 76 93 37 5e
        e 64 93 39 5a
        e 9 83 37 00
        e 82 93 37 5f
        e 6 83 39 00
        e 74 83 37 00
        e 4 93 36 69
        e 92 93 37 55
        e 27 83 36 00
        e 136 83 37 00
        e 7 93 3a 62
        e 135 83 3a 00
        e 191 93 3a 66
        e 43 83 3a 00
        e 70 93 3a 67
        e 83 83 3a 00
        e 2 93 3c 5c
        e 83 93 3a 6a
        e 21 83 3c 00
        e 53 83 3a 00
        e 14 93 39 62
        e 86 93 3a 6b
        e 20 83 39 00
        e 124 83 3a 00
        e 12 93 3e 62
        e 189 83 3e 00
        e 302 93 37 53
        e 4 93 32 53
        e 913 83 37 00
        e 5 83 32 00
        e 513 93 3c 54
        e 2 93 37 53
        e 133 83 37 00
        e 6 83 3c 00
        e 334 93 3c 4d
        e 1 93 37 4d
        e 161 83 3c 00
        e 40 83 37 00
        e 283 93 3c 50
        e 1 93 34 4d
        e 190 83 3c 00
        e 36 83 34 00
        e 267 93 34 51
        e 5 93 3c 50
        e 216 83 3c 00
        e 27 83 34 00
        e 229 93 3c 50
        e 349 83 3c 00
        e 155 93 3c 51
        e 432 83 3c 00
        e 357 93 30 5e
        e 45 83 30 00
        e 87 93 30 60
        e 76 93 32 59
        e 5 83 30 00
        e 82 93 30 61
        e 14 83 32 00
        e 70 83 30 00
        e 4 93 2f 63
        e 89 93 30 5b
        e 10 83 2f 00
        e 96 83 30 00
        e 64 93 35 56
        e 9 93 30 43
        e 278 83 35 00
        e 84 83 30 00
        e 112 93 3c 51
        e 350 83 3c 00
        e 141 93 39 54
        e 293 83 39 00
        e 194 93 30 50
        e 347 83 30 00
        e 105 93 35 50
        e 362 83 35 00
        e 142 93 3e 51
        e 396 83 3e 00
        e 116 93 3a 4f
        e 293 83 3a 00
        e 174 93 37 48
        e 328 83 37 00
        e 126 93 37 48
        e 280 83 37 00
        e 202 93 40 53
        e 353 83 40 00
        e 145 93 3c 4d
        e 318 83 3c 00
        e 157 93 39 50
        e 337 83 39 00
        e 137 93 39 4d
        e 344 83 39 00
        e 141 93 3a 49
        e 264 83 3a 00
        e 221 93 3a 48
        e 268 83 3a 00
        e 215 93 3c 4f
        e 301 83 3c 00
        e 160 93 3c 4a
        e 224 83 3c 00
        e 236 93 3e 49
        e 812 83 3e 00
        e 169 93 40 55
        e 216 83 40 00
        e 52 93 3e 53
        e 113 83 3e 00
        e 70 93 35 57
        e 21 93 39 50
        e 318 83 35 00
        e 9 83 39 00
        e 636 93 30 46
        e 395 83 30 00
        e 566 93 35 5c
        e 189 83 35 00
        e 275 93 29 53
        e 198 83 29 00
        e 290 93 29 48
        e 205 83 29 00
        e 279 93 29 3e
        e 243 83 29 00
        e 220 93 29 47
        e 227 83 29 00
        e 232 93 29 3a
        e 207 83 29 00
        e 292 93 29 3f
        e 203 83 29 00
        e 272 93 29 40
        e 266 83 29 00
        e 235 93 29 44
        e 208 83 29 00
        e 271 93 29 40
        e 195 83 29 00
        e 278 93 29 49
        e 236 83 29 00
        e 237 93 29 42
        e 249 83 29 00
        e 245 93 29 43
        e 244 83 29 00
        e 250 93 29 40
        e 251 83 29 00
        e 222 93 29 48
        e 190 83 29 00
        e 274 93 29 4e
        e 174 83 29 00
        e 289 93 28 58
        e 166 83 28 00
        e 313 93 28 4f
        e 206 83 28 00
        e 283 93 28 54
        e 195 83 28 00
        e 307 93 28 4e
        e 190 83 28 00
        e 279 93 28 51
        e 204 83 28 00
        e 271 93 28 52
        e 189 83 28 00
        e 271 93 28 53
        e 178 83 28 00
        e 311 93 28 4f
        e 173 83 28 00
        e 335 93 28 4d
        e 173 83 28 00
        e 301 93 28 56
        e 179 83 28 00
        e 288 93 28 52
        e 189 83 28 00
        e 305 93 28 50
        e 203 83 28 00
        e 270 93 28 56
        e 177 83 28 00
        e 295 93 28 53
        e 222 83 28 00
        e 254 93 28 4f
        e 236 83 28 00
        e 250 93 28 57
        e 163 83 28 00
        e 306 93 29 51
        e 211 83 29 00
        e 284 93 29 4e
        e 157 83 29 00
        e 315 93 29 52
        e 442 83 29 00
        e 758 93 39 5b
        e 70 83 39 00
        e 61 93 39 5f
        e 64 83 39 00
        e 57 93 39 62
        e 86 83 39 00
        e 153 93 39 55
        e 92 83 39 00
        e 149 93 39 4f
        e 502 83 39 00
        e 937 93 3e 5a
        e 334 83 3e 00
        e 143 93 37 4e
        e 527 83 37 00
        e 400 93 39 52
        e 198 83 39 00
        e 294 93 39 4d
        e 194 83 39 00
        e 286 93 39 4c
        e 187 83 39 00
        e 303 93 39 4e
        e 213 83 39 00
        e 519 93 32 5b
        e 128 83 32 00
        e 122 93 39 58
        e 114 83 39 00
        e 122 93 35 63
        e 131 83 35 00
        e 129 93 32 50
        e 493 83 32 00
        e 677 93 37 51
        e 65 83 37 00
        e 55 93 37 58
        e 65 83 37 00
        e 53 93 37 5e
        e 84 83 37 00
        e 145 93 37 50
        e 94 83 37 00
        e 138 93 37 4e
        e 452 83 37 00
        e 1029 93 3c 4b
        e 269 83 3c 00
        e 184 93 35 58
        e 479 83 35 00
        e 457 93 37 43
        e 205 83 37 00
        e 293 93 37 3d
        e 205 83 37 00
        e 281 93 37 49
        e 187 83 37 00
        e 276 93 37 4b
        e 201 83 37 00
        e 285 93 30 48
        e 225 83 30 00
        e 238 93 37 3e
        e 485 83 37 00
        e 267 93 30 46
        e 161 83 30 00
        e 87 93 34 4c
        e 167 83 34 00
        e 52 93 37 37
        e 72 83 37 00
        e 172 93 3a 2b
        e 1 93 34 50
        e 5 93 37 4b
        e 61 83 37 00
        e 4 83 34 00
        e 15 83 3a 00
        e 141 93 3a 4a
        e 13 93 37 4e
        e 1 93 34 5b
        e 58 83 37 00
        e 7 83 34 00
        e 4 83 3a 00
        e 157 93 3a 43
        e 5 93 34 5c
        e 1 93 37 50
        e 72 83 37 00
        e 1 83 34 00
        e 6 83 3a 00
        e 152 93 3a 45
        e 8 93 37 4d
        e 1 93 34 58
        e 69 83 37 00
        e 1 83 34 00
        e 7 83 3a 00
        e 145 93 3a 4c
        e 6 93 37 4d
        e 0 93 34 58
        e 79 83 37 00
        e 1 83 34 00
        e 6 83 3a 00
        e 141 93 3a 4c
        e 4 93 37 50
        e 4 93 34 5c
        e 71 83 34 00
        e 5 83 37 00
        e 2 83 3a 00
        e 154 93 3a 4a
        e 3 93 34 5c
        e 1 93 37 4f
        e 81 83 3a 00
        e 4 83 34 00
        e 0 83 37 00
        e 153 93 3a 4b
        e 2 93 34 58
        e 0 93 37 4d
        e 83 83 37 00
        e 2 83 34 00
        e 3 83 3a 00
        e 162 93 37 49
        e 10 93 3a 3d
        e 482 83 37 00
        e 0 83 3a 00
        e 1451 93 3c 43
        e 3 93 39 50
        e 161 83 39 00
        e 7 83 3c 00
        e 309 93 3c 2f
        e 2 93 39 42
        e 139 83 39 00
        e 32 83 3c 00
        e 293 93 3c 30
        e 1 93 39 44
        e 160 83 39 00
        e 18 83 3c 00
        e 304 93 3c 44
        e 6 93 39 46
        e 151 83 39 00
        e 11 83 3c 00
        e 321 93 39 43
        e 2 93 3c 32
        e 128 83 39 00
        e 7 83 3c 00
        e 334 93 3c 39
        e 4 93 39 49
        e 158 83 39 00
        e 25 83 3c 00
        e 310 93 39 44
        e 2 93 3c 31
        e 136 83 39 00
        e 7 83 3c 00
        e 329 93 39 3d
        e 0 93 3c 40
        e 136 83 39 00
        e 1 83 3c 00
        e 348 93 39 42
        e 1 93 3c 33
        e 144 83 39 00
        e 9 83 3c 00
        e 324 93 3c 40
        e 0 93 39 46
        e 125 83 39 00
        e 12 83 3c 00
        e 352 93 3c 35
        e 5 93 39 42
        e 161 83 39 00
        e 12 83 3c 00
        e 303 93 3c 38
        e 4 93 39 48
        e 120 83 39 00
        e 25 83 3c 00
        e 319 93 3a 4d
        e 1 93 3c 32
        e 111 83 3a 00
        e 39 83 3c 00
        e 328 93 3a 49
        e 4 93 3c 29
        e 117 83 3a 00
        e 37 83 3c 00
        e 328 93 3a 43
        e 3 93 3c 32
        e 122 83 3a 00
        e 32 83 3c 00
        e 335 93 3c 29
        e 1 93 3a 44
        e 123 83 3a 00
        e 33 83 3c 00
        e 318 93 3a 48
        e 4 93 3c 2c
        e 111 83 3a 00
        e 34 83 3c 00
        e 324 93 3a 49
        e 6 93 3c 24
        e 108 83 3a 00
        e 20 83 3c 00
        e 338 93 3a 4b
        e 11 93 3c 2e
        e 111 83 3a 00
        e 17 83 3c 00
        e 357 93 3a 50
        e 9 93 3c 2e
        e 86 83 3a 00
        e 33 83 3c 00
        e 342 93 3a 4c
        e 4 93 3c 27
        e 83 83 3a 00
        e 28 83 3c 00
        e 361 93 3a 51
        e 7 93 3c 3a
        e 96 83 3a 00
        e 22 83 3c 00
        e 366 93 3a 58
        e 1 93 3c 42
        e 119 83 3a 00
        e 24 83 3c 00
        e 341 93 3a 56
        e 1 93 3c 3a
        e 103 83 3a 00
        e 35 83 3c 00
        e 325 93 3a 54
        e 3 93 3c 32
        e 105 83 3a 00
        e 25 83 3c 00
        e 359 93 3a 54
        e 6 93 3c 37
        e 96 83 3a 00
        e 17 83 3c 00
        e 349 93 3a 4d
        e 10 93 3c 29
        e 108 83 3a 00
        e 18 83 3c 00
        e 335 93 3a 49
        e 4 93 3c 34
        e 121 83 3a 00
        e 3 83 3c 00
        e 368 93 3c 39
        e 6 93 39 4d
        e 109 83 39 00
        e 25 83 3c 00
        e 346 93 3c 2f
        e 5 93 39 4a
        e 107 83 39 00
        e 23 83 3c 00
        e 332 93 3c 2f
        e 2 93 39 46
        e 438 83 39 00
        e 5 83 3c 00
        e 775 93 33 5a
        e 3 93 35 59
        e 77 83 33 00
        e 13 83 35 00
        e 336 93 33 5e
        e 6 93 35 5a
        e 111 83 33 00
        e 13 83 35 00
        e 353 93 33 4c
        e 6 93 35 4f
        e 91 83 33 00
        e 12 83 35 00
        e 361 93 33 4e
        e 8 93 35 5c
        e 102 83 35 00
        e 6 83 33 00
        e 385 93 32 52
        e 4 93 35 5e
        e 87 83 32 00
        e 16 83 35 00
        e 388 93 3a 5f
        e 4 93 3e 4c
        e 88 83 3a 00
        e 17 83 3e 00
        e 353 93 3a 56
        e 7 93 35 60
        e 103 83 3a 00
        e 1 83 35 00
        e 367 93 32 58
        e 7 93 35 5c
        e 105 83 32 00
        e 2 83 35 00
        e 377 93 37 51
        e 1 93 35 5a
        e 91 83 35 00
        e 32 83 37 00
        e 356 93 3b 4d
        e 3 93 35 58
        e 103 83 35 00
        e 24 83 3b 00
        e 360 93 35 53
        e 3 93 37 4d
        e 107 83 35 00
        e 1 83 37 00
        e 337 93 37 50
        e 1 93 35 54
        e 93 83 35 00
        e 18 83 37 00
        e 414 93 37 53
        e 7 93 34 5c
        e 96 83 34 00
        e 11 83 37 00
        e 360 93 40 52
        e 4 93 3c 50
        e 107 83 3c 00
        e 13 83 40 00
        e 322 93 3c 53
        e 1 93 37 4c
        e 104 83 3c 00
        e 17 83 37 00
        e 376 93 34 53
        e 1 93 37 51
        e 96 83 37 00
        e 29 83 34 00
        e 333 93 37 4c
        e 2 93 39 58
        e 91 83 37 00
        e 35 83 39 00
        e 362 93 3d 5a
        e 7 93 37 4b
        e 98 83 3d 00
        e 16 83 37 00
        e 375 93 39 50
        e 1 93 37 4a
        e 94 83 39 00
        e 14 83 37 00
        e 369 93 39 51
        e 1 93 37 4f
        e 100 83 39 00
        e 1 83 37 00
        e 380 93 35 61
        e 3 93 39 4f
        e 94 83 35 00
        e 21 83 39 00
        e 359 93 3e 4c
        e 1 93 39 51
        e 79 83 39 00
        e 17 83 3e 00
        e 167 93 3a 48
        e 9 93 32 4a
        e 0 93 37 55
        e 700 83 37 00
        e 13 83 3a 00
        e 0 83 32 00
        e 449 93 35 45
        e 1 93 39 57
        e 0 93 3c 4a
        e 45 83 39 00
        e 6 83 35 00
        e 4 83 3c 00
        e 57 93 39 5c
        e 1 93 35 61
        e 0 93 3c 54
        e 45 83 39 00
        e 5 83 35 00
        e 2 83 3c 00
        e 60 93 39 5a
        e 1 93 3c 51
        e 1 93 35 63
        e 71 83 39 00
        e 0 83 35 00
        e 15 83 3c 00
        e 168 93 39 5b
        e 1 93 3c 54
        e 0 93 35 5f
        e 46 83 35 00
        e 12 83 39 00
        e 19 83 3c 00
        e 161 93 37 4c
        e 0 93 3c 50
        e 2 93 3a 5b
        e 480 83 3a 00
        e 9 83 3c 00
        e 11 83 37 00
        e 713 93 39 4a
        e 1 93 35 5c
        e 1 93 30 4f
        e 63 83 30 00
        e 5 83 39 00
        e 0 83 35 00
        e 155 93 39 4d
        e 2 93 35 59
        e 3 93 30 4f
        e 78 83 39 00
        e 1 83 35 00
        e 0 83 30 00
        e 142 93 30 4f
        e 0 93 35 5d
        e 1 93 39 50
        e 56 83 30 00
        e 20 83 35 00
        e 29 83 39 00
        e 364 93 3a 50
        e 1 93 37 59
        e 2 93 32 4d
        e 79 83 37 00
        e 4 83 3a 00
        e 1 83 32 00
        e 147 93 3a 53
        e 2 93 37 51
        e 4 93 32 51
        e 82 83 37 00
        e 1 83 32 00
        e 1 83 3a 00
        e 142 93 37 52
        e 1 93 3a 52
        e 1 93 32 53
        e 76 83 32 00
        e 3 83 37 00
        e 45 83 3a 00
        e 371 93 39 53
        e 3 93 3c 53
        e 57 83 39 00
        e 6 83 3c 00
        e 53 93 39 60
        e 2 93 3c 52
        e 46 83 39 00
        e 14 83 3c 00
        e 49 93 39 5e
        e 1 93 3c 54
        e 81 83 39 00
        e 8 83 3c 00
        e 160 93 3c 52
        e 0 93 39 5d
        e 73 83 39 00
        e 9 83 3c 00
        e 403 93 3c 4f
        e 1 93 3a 5d
        e 71 83 3a 00
        e 13 83 3c 00
        e 146 93 3c 4d
        e 4 93 3a 61
        e 81 83 3a 00
        e 20 83 3c 00
        e 148 93 3a 5f
        e 2 93 3c 52
        e 83 83 3a 00
        e 0 83 3c 00
        e 237 93 39 5d
        e 329 83 39 00
        e 86 93 35 56
        e 1 93 3c 52
        e 0 93 39 5e
        e 244 83 39 00
        e 118 83 35 00
        e 29 83 3c 00
        e 87 93 3a 5e
        e 347 83 3a 00
        e 151 93 3a 54
        e 4 93 3e 51
        e 2 93 37 51
        e 237 83 37 00
        e 36 83 3e 00
        e 80 83 3a 00
        e 96 93 35 5d
        e 4 93 3c 49
        e 2 93 39 57
        e 403 83 39 00
        e 78 83 3c 00
        e 21 83 35 00
        e 459 93 3a 4e
        e 6 93 34 59
        e 456 83 34 00
        e 27 83 3a 00
        e 495 93 39 5c
        e 3 93 3c 4f
        e 291 83 39 00
        e 33 83 3c 00
        e 135 93 35 64
        e 354 83 35 00
        e 129 93 39 57
        e 335 83 39 00
        e 147 93 3c 51
        e 382 83 3c 00
        e 113 93 41 5a
        e 317 83 41 00
        e 155 93 41 55
        e 317 83 41 00
        e 166 93 3c 56
        e 266 83 3c 00
        e 185 93 39 5f
        e 306 83 39 00
        e 220 93 35 62
        e 526 83 35 00
        e 423 93 41 56
        e 2 93 3c 5a
        e 477 83 41 00
        e 5 83 3c 00
        e 318 93 35 6a
        e 74 83 35 00
        e 86 93 35 64
        e 1454 83 35 00
        E 461 b0 7b 00
        GUID {0FA19C67-65D1-4C44-961D-F5507577D57B}
        IGNTEMPO 0 120 4 4
        SRCCOLOR 959
        VELLANE -1 86 6
        CFGEDITVIEW 0 4.884956 62 12 0 0 0 0 0 0.5
        KEYSNAP 0
        TRACKSEL 226
        EVTFILTER 0 -1 -1 -1 -1 0 0 0 0 -1 -1 -1 -1 0 -1 0 -1 -1
        CFGEDIT 1 1 0 0 0 0 1 0 1 1 1 0.25 80 127 1280 778 0 0 2 3 0 0 0 0 0 -1 0 0 1 64
      >
      TAKE
      NAME "trombone(s) - National_Anthems_-_Brazil.mid"
      TAKEVOLPAN 0 1 -1
      SOFFS 0 0
      PLAYRATE 1 1 0 -1 0 0.0025
      CHANMODE 0
      GUID {07A0A843-8F36-9F4A-AACF-518B1701D1AE}
      <SOURCE MIDI
        HASDATA 1 480 QN
        POOLEDEVTS {DE3A1612-A48B-0C46-9050-0EBD03618E77}
        <X 0 0 0 0 3 trombone(s)
          /wN0cm9tYm9uZShzKQ==
        >
        <X 0 0 0 0 4 "Sound Canvas"
          /wRTb3VuZCBDYW52YXM=
        >
        E 335 92 30 66
        E 54 82 30 50
        E 68 92 30 65
        E 78 92 32 61
        E 12 82 30 51
        E 68 92 30 65
        E 17 82 32 48
        E 71 92 2f 66
        E 2 82 30 4f
        E 88 92 30 63
        E 17 82 2f 3e
        E 129 82 30 4e
        E 5 92 35 66
        E 190 82 35 38
        E 160 92 35 6d
        E 48 82 35 54
        E 66 92 35 6b
        E 65 92 37 58
        E 15 82 35 58
        E 68 92 35 6a
        E 18 82 37 41
        E 62 92 34 66
        E 2 82 35 54
        E 86 92 35 65
        E 15 82 34 44
        E 127 82 35 51
        E 16 92 39 65
        E 183 82 39 2f
        E 163 92 39 65
        E 39 82 39 4b
        E 72 92 39 68
        E 80 92 3a 68
        E 5 82 39 42
        E 81 92 39 5f
        E 10 82 3a 46
        E 75 92 38 68
        E 5 82 39 4d
        E 98 92 39 5a
        E 1 82 38 34
        E 149 82 39 45
        E 22 92 3c 61
        E 203 82 3c 26
        E 268 92 35 67
        E 2 92 30 5c
        E 939 82 35 4b
        E 28 82 30 4a
        E 500 92 3c 4e
        E 6 92 39 59
        E 232 82 3c 01
        E 26 82 39 01
        E 219 92 3c 4c
        E 3 92 39 53
        E 191 82 39 1f
        E 9 82 3c 2e
        E 262 92 3c 52
        E 0 92 39 50
        E 172 82 39 46
        E 46 82 3c 32
        E 247 92 41 4c
        E 3 92 3c 50
        E 177 82 3c 1b
        E 111 82 41 01
        E 193 92 3c 53
        E 264 82 3c 01
        E 209 92 3c 4f
        E 431 82 3c 01
        E 378 92 32 63
        E 49 82 32 4e
        E 85 92 32 65
        E 78 92 34 60
        E 4 82 32 4f
        E 79 92 32 61
        E 12 82 34 43
        E 64 82 32 47
        E 2 92 31 67
        E 103 92 32 5d
        E 25 82 31 01
        E 143 82 32 4b
        E 2 92 37 5b
        E 157 82 37 1c
        E 183 92 37 5e
        E 44 82 37 49
        E 76 92 37 5e
        E 64 92 39 5a
        E 9 82 37 4a
        E 82 92 37 5f
        E 6 82 39 45
        E 74 82 37 42
        E 4 92 36 69
        E 92 92 37 55
        E 27 82 36 26
        E 136 82 37 22
        E 7 92 3a 62
        E 135 82 3a 36
        E 191 92 3a 66
        E 43 82 3a 4a
        E 70 92 3a 67
        E 83 82 3a 46
        E 2 92 3c 5c
        E 83 92 3a 6a
        E 21 82 3c 40
        E 53 82 3a 3c
        E 14 92 39 62
        E 86 92 3a 6b
        E 20 82 39 44
        E 124 82 3a 49
        E 12 92 3e 62
        E 189 82 3e 29
        E 302 92 37 53
        E 4 92 32 53
        E 913 82 37 45
        E 5 82 32 55
        E 513 92 3c 54
        E 2 92 37 53
        E 133 82 37 17
        E 6 82 3c 1e
        E 334 92 3c 4d
        E 1 92 37 4d
        E 161 82 3c 23
        E 40 82 37 0d
        E 283 92 3c 50
        E 1 92 34 4d
        E 190 82 3c 01
        E 36 82 34 0e
        E 267 92 34 51
        E 5 92 3c 50
        E 216 82 3c 01
        E 27 82 34 3b
        E 229 92 3c 50
        E 349 82 3c 01
        E 155 92 3c 51
        E 432 82 3c 2f
        E 357 92 30 5e
        E 45 82 30 4b
        E 87 92 30 60
        E 76 92 32 59
        E 5 82 30 4a
        E 82 92 30 61
        E 14 82 32 41
        E 70 82 30 42
        E 4 92 2f 63
        E 89 92 30 5b
        E 10 82 2f 43
        E 96 82 30 44
        E 64 92 35 56
        E 9 92 30 43
        E 278 82 35 30
        E 84 82 30 01
        E 112 92 3c 51
        E 350 82 3c 01
        E 141 92 39 54
        E 293 82 39 0b
        E 194 92 30 50
        E 347 82 30 14
        E 105 92 35 50
        E 362 82 35 44
        E 142 92 3e 51
        E 396 82 3e 01
        E 116 92 3a 4f
        E 293 82 3a 1d
        E 174 92 37 48
        E 328 82 37 01
        E 126 92 37 48
        E 280 82 37 49
        E 202 92 40 53
        E 353 82 40 01
        E 145 92 3c 4d
        E 318 82 3c 01
        E 157 92 39 50
        E 337 82 39 2b
        E 137 92 39 4d
        E 344 82 39 2d
        E 141 92 3a 49
        E 264 82 3a 20
        E 221 92 3a 48
        E 268 82 3a 27
        E 215 92 3c 4f
        E 301 82 3c 1d
        E 160 92 3c 4a
        E 224 82 3c 29
        E 236 92 3e 49
        E 812 82 3e 0b
        E 169 92 40 55
        E 216 82 40 0f
        E 52 92 3e 53
        E 113 82 3e 28
        E 70 92 35 57
        E 21 92 39 50
        E 318 82 35 01
        E 9 82 39 12
        E 636 92 30 46
        E 395 82 30 3b
        E 566 92 35 5c
        E 189 82 35 4b
        E 275 92 29 53
        E 198 82 29 28
        E 290 92 29 48
        E 205 82 29 01
        E 279 92 29 3e
        E 243 82 29 05
        E 220 92 29 47
        E 227 82 29 01
        E 232 92 29 3a
        E 207 82 29 15
        E 292 92 29 3f
        E 203 82 29 01
        E 272 92 29 40
        E 266 82 29 01
        E 235 92 29 44
        E 208 82 29 01
        E 271 92 29 40
        E 195 82 29 04
        E 278 92 29 49
        E 236 82 29 01
        E 237 92 29 42
        E 249 82 29 01
        E 245 92 29 43
        E 244 82 29 0d
        E 250 92 29 40
        E 251 82 29 01
        E 222 92 29 48
        E 190 82 29 2b
        E 274 92 29 4e
        E 174 82 29 2c
        E 289 92 28 58
        E 166 82 28 1d
        E 313 92 28 4f
        E 206 82 28 0f
        E 283 92 28 54
        E 195 82 28 01
        E 307 92 28 4e
        E 190 82 28 1f
        E 279 92 28 51
        E 204 82 28 17
        E 271 92 28 52
        E 189 82 28 01
        E 271 92 28 53
        E 178 82 28 19
        E 311 92 28 4f
        E 173 82 28 18
        E 335 92 28 4d
        E 173 82 28 26
        E 301 92 28 56
        E 179 82 28 1b
        E 288 92 28 52
        E 189 82 28 17
        E 305 92 28 50
        E 203 82 28 2e
        E 270 92 28 56
        E 177 82 28 29
        E 295 92 28 53
        E 222 82 28 01
        E 254 92 28 4f
        E 236 82 28 0c
        E 250 92 28 57
        E 163 82 28 2a
        E 306 92 29 51
        E 211 82 29 14
        E 284 92 29 4e
        E 157 82 29 11
        E 315 92 29 52
        E 442 82 29 2e
        E 758 92 39 5b
        E 70 82 39 3b
        E 61 92 39 5f
        E 64 82 39 41
        E 57 92 39 62
        E 86 82 39 39
        E 153 92 39 55
        E 92 82 39 38
        E 149 92 39 4f
        E 502 82 39 3c
        E 937 92 3e 5a
        E 334 82 3e 01
        E 143 92 37 4e
        E 527 82 37 51
        E 400 92 39 52
        E 198 82 39 29
        E 294 92 39 4d
        E 194 82 39 21
        E 286 92 39 4c
        E 187 82 39 1c
        E 303 92 39 4e
        E 213 82 39 0b
        E 519 92 32 5b
        E 128 82 32 0e
        E 122 92 39 58
        E 114 82 39 28
        E 122 92 35 63
        E 131 82 35 31
        E 129 92 32 50
        E 493 82 32 3f
        E 677 92 37 51
        E 65 82 37 37
        E 55 92 37 58
        E 65 82 37 3e
        E 53 92 37 5e
        E 84 82 37 3d
        E 145 92 37 50
        E 94 82 37 2e
        E 138 92 37 4e
        E 452 82 37 43
        E 1029 92 3c 4b
        E 269 82 3c 08
        E 184 92 35 58
        E 479 82 35 4e
        E 457 92 37 43
        E 205 82 37 24
        E 293 92 37 3d
        E 205 82 37 32
        E 281 92 37 49
        E 187 82 37 0c
        E 276 92 37 4b
        E 201 82 37 1c
        E 285 92 30 48
        E 225 82 30 14
        E 238 92 37 3e
        E 485 82 37 01
        E 267 92 30 46
        E 161 82 30 27
        E 87 92 34 4c
        E 167 82 34 13
        E 52 92 37 37
        E 72 82 37 40
        E 172 92 3a 2b
        E 1 92 34 50
        E 5 92 37 4b
        E 61 82 37 18
        E 4 82 34 26
        E 15 82 3a 28
        E 141 92 3a 4a
        E 13 92 37 4e
        E 1 92 34 5b
        E 58 82 37 17
        E 7 82 34 3b
        E 4 82 3a 14
        E 157 92 3a 43
        E 5 92 34 5c
        E 1 92 37 50
        E 72 82 37 10
        E 1 82 34 35
        E 6 82 3a 10
        E 152 92 3a 45
        E 8 92 37 4d
        E 1 92 34 58
        E 69 82 37 01
        E 1 82 34 2d
        E 7 82 3a 1f
        E 145 92 3a 4c
        E 6 92 37 4d
        E 0 92 34 58
        E 79 82 37 0f
        E 1 82 34 33
        E 6 82 3a 1e
        E 141 92 3a 4c
        E 4 92 37 50
        E 4 92 34 5c
        E 71 82 34 2e
        E 5 82 37 15
        E 2 82 3a 0f
        E 154 92 3a 4a
        E 3 92 34 5c
        E 1 92 37 4f
        E 81 82 3a 1b
        E 4 82 34 37
        E 0 82 37 24
        E 153 92 3a 4b
        E 2 92 34 58
        E 0 92 37 4d
        E 83 82 37 14
        E 2 82 34 38
        E 3 82 3a 12
        E 162 92 37 49
        E 10 92 3a 3d
        E 482 82 37 4a
        E 0 82 3a 3a
        E 1451 92 3c 43
        E 3 92 39 50
        E 161 82 39 01
        E 7 82 3c 01
        E 309 92 3c 2f
        E 2 92 39 42
        E 139 82 39 01
        E 32 82 3c 01
        E 293 92 3c 30
        E 1 92 39 44
        E 160 82 39 12
        E 18 82 3c 16
        E 304 92 3c 44
        E 6 92 39 46
        E 151 82 39 01
        E 11 82 3c 01
        E 321 92 39 43
        E 2 92 3c 32
        E 128 82 39 03
        E 7 82 3c 16
        E 334 92 3c 39
        E 4 92 39 49
        E 158 82 39 01
        E 25 82 3c 01
        E 310 92 39 44
        E 2 92 3c 31
        E 136 82 39 16
        E 7 82 3c 1a
        E 329 92 39 3d
        E 0 92 3c 40
        E 136 82 39 09
        E 1 82 3c 14
        E 348 92 39 42
        E 1 92 3c 33
        E 144 82 39 01
        E 9 82 3c 19
        E 324 92 3c 40
        E 0 92 39 46
        E 125 82 39 03
        E 12 82 3c 28
        E 352 92 3c 35
        E 5 92 39 42
        E 161 82 39 01
        E 12 82 3c 01
        E 303 92 3c 38
        E 4 92 39 48
        E 120 82 39 2e
        E 25 82 3c 22
        E 319 92 3a 4d
        E 1 92 3c 32
        E 111 82 3a 29
        E 39 82 3c 1d
        E 328 92 3a 49
        E 4 92 3c 29
        E 117 82 3a 16
        E 37 82 3c 01
        E 328 92 3a 43
        E 3 92 3c 32
        E 122 82 3a 22
        E 32 82 3c 1f
        E 335 92 3c 29
        E 1 92 3a 44
        E 123 82 3a 27
        E 33 82 3c 0f
        E 318 92 3a 48
        E 4 92 3c 2c
        E 111 82 3a 1b
        E 34 82 3c 1e
        E 324 92 3a 49
        E 6 92 3c 24
        E 108 82 3a 08
        E 20 82 3c 25
        E 338 92 3a 4b
        E 11 92 3c 2e
        E 111 82 3a 07
        E 17 82 3c 07
        E 357 92 3a 50
        E 9 92 3c 2e
        E 86 82 3a 18
        E 33 82 3c 19
        E 342 92 3a 4c
        E 4 92 3c 27
        E 83 82 3a 1a
        E 28 82 3c 20
        E 361 92 3a 51
        E 7 92 3c 3a
        E 96 82 3a 10
        E 22 82 3c 22
        E 366 92 3a 58
        E 1 92 3c 42
        E 119 82 3a 01
        E 24 82 3c 17
        E 341 92 3a 56
        E 1 92 3c 3a
        E 103 82 3a 09
        E 35 82 3c 25
        E 325 92 3a 54
        E 3 92 3c 32
        E 105 82 3a 01
        E 25 82 3c 17
        E 359 92 3a 54
        E 6 92 3c 37
        E 96 82 3a 01
        E 17 82 3c 1e
        E 349 92 3a 4d
        E 10 92 3c 29
        E 108 82 3a 01
        E 18 82 3c 13
        E 335 92 3a 49
        E 4 92 3c 34
        E 121 82 3a 1a
        E 3 82 3c 19
        E 368 92 3c 39
        E 6 92 39 4d
        E 109 82 39 0a
        E 25 82 3c 1e
        E 346 92 3c 2f
        E 5 92 39 4a
        E 107 82 39 0e
        E 23 82 3c 2f
        E 332 92 3c 2f
        E 2 92 39 46
        E 438 82 39 0a
        E 5 82 3c 1f
        E 775 92 33 5a
        E 3 92 35 59
        E 77 82 33 3a
        E 13 82 35 25
        E 336 92 33 5e
        E 6 92 35 5a
        E 111 82 33 0e
        E 13 82 35 2a
        E 353 92 33 4c
        E 6 92 35 4f
        E 91 82 33 28
        E 12 82 35 16
        E 361 92 33 4e
        E 8 92 35 5c
        E 102 82 35 32
        E 6 82 33 2a
        E 385 92 32 52
        E 4 92 35 5e
        E 87 82 32 4a
        E 16 82 35 4c
        E 388 92 3a 5f
        E 4 92 3e 4c
        E 88 82 3a 37
        E 17 82 3e 1c
        E 353 92 3a 56
        E 7 92 35 60
        E 103 82 3a 22
        E 1 82 35 3f
        E 367 92 32 58
        E 7 92 35 5c
        E 105 82 32 3e
        E 2 82 35 30
        E 377 92 37 51
        E 1 92 35 5a
        E 91 82 35 39
        E 32 82 37 3e
        E 356 92 3b 4d
        E 3 92 35 58
        E 103 82 35 3e
        E 24 82 3b 2c
        E 360 92 35 53
        E 3 92 37 4d
        E 107 82 35 3d
        E 1 82 37 0a
        E 337 92 37 50
        E 1 92 35 54
        E 93 82 35 1c
        E 18 82 37 2a
        E 414 92 37 53
        E 7 92 34 5c
        E 96 82 34 48
        E 11 82 37 41
        E 360 92 40 52
        E 4 92 3c 50
        E 107 82 3c 1e
        E 13 82 40 20
        E 322 92 3c 53
        E 1 92 37 4c
        E 104 82 3c 35
        E 17 82 37 45
        E 376 92 34 53
        E 1 92 37 51
        E 96 82 37 37
        E 29 82 34 3f
        E 333 92 37 4c
        E 2 92 39 58
        E 91 82 37 41
        E 35 82 39 3b
        E 362 92 3d 5a
        E 7 92 37 4b
        E 98 82 3d 24
        E 16 82 37 2b
        E 375 92 39 50
        E 1 92 37 4a
        E 94 82 39 22
        E 14 82 37 0f
        E 369 92 39 51
        E 1 92 37 4f
        E 100 82 39 2c
        E 1 82 37 31
        E 380 92 35 61
        E 3 92 39 4f
        E 94 82 35 4b
        E 21 82 39 01
        E 359 92 3e 4c
        E 1 92 39 51
        E 79 82 39 35
        E 17 82 3e 27
        E 167 92 3a 48
        E 9 92 32 4a
        E 0 92 37 55
        E 700 82 37 16
        E 13 82 3a 1f
        E 0 82 32 43
        E 449 92 35 45
        E 1 92 39 57
        E 0 92 3c 4a
        E 45 82 39 3e
        E 6 82 35 4c
        E 4 82 3c 2e
        E 57 92 39 5c
        E 1 92 35 61
        E 0 92 3c 54
        E 45 82 39 47
        E 5 82 35 46
        E 2 82 3c 3c
        E 60 92 39 5a
        E 1 92 3c 51
        E 1 92 35 63
        E 71 82 39 2a
        E 0 82 35 3e
        E 15 82 3c 1d
        E 168 92 39 5b
        E 1 92 3c 54
        E 0 92 35 5f
        E 46 82 35 4d
        E 12 82 39 43
        E 19 82 3c 28
        E 161 92 37 4c
        E 0 92 3c 50
        E 2 92 3a 5b
        E 480 82 3a 24
        E 9 82 3c 28
        E 11 82 37 43
        E 713 92 39 4a
        E 1 92 35 5c
        E 1 92 30 4f
        E 63 82 30 27
        E 5 82 39 1f
        E 0 82 35 44
        E 155 92 39 4d
        E 2 92 35 59
        E 3 92 30 4f
        E 78 82 39 1a
        E 1 82 35 42
        E 0 82 30 24
        E 142 92 30 4f
        E 0 92 35 5d
        E 1 92 39 50
        E 56 82 30 41
        E 20 82 35 44
        E 29 82 39 15
        E 364 92 3a 50
        E 1 92 37 59
        E 2 92 32 4d
        E 79 82 37 39
        E 4 82 3a 28
        E 1 82 32 35
        E 147 92 3a 53
        E 2 92 37 51
        E 4 92 32 51
        E 82 82 37 34
        E 1 82 32 39
        E 1 82 3a 19
        E 142 92 37 52
        E 1 92 3a 52
        E 1 92 32 53
        E 76 82 32 3f
        E 3 82 37 31
        E 45 82 3a 01
        E 371 92 39 53
        E 3 92 3c 53
        E 57 82 39 47
        E 6 82 3c 2e
        E 53 92 39 60
        E 2 92 3c 52
        E 46 82 39 46
        E 14 82 3c 32
        E 49 92 39 5e
        E 1 92 3c 54
        E 81 82 39 37
        E 8 82 3c 27
        E 160 92 3c 52
        E 0 92 39 5d
        E 73 82 39 34
        E 9 82 3c 25
        E 403 92 3c 4f
        E 1 92 3a 5d
        E 71 82 3a 30
        E 13 82 3c 28
        E 146 92 3c 4d
        E 4 92 3a 61
        E 81 82 3a 36
        E 20 82 3c 1b
        E 148 92 3a 5f
        E 2 92 3c 52
        E 83 82 3a 35
        E 0 82 3c 29
        E 237 92 39 5d
        E 329 82 39 01
        E 86 92 35 56
        E 1 92 3c 52
        E 0 92 39 5e
        E 244 82 39 37
        E 118 82 35 33
        E 29 82 3c 01
        E 87 92 3a 5e
        E 347 82 3a 28
        E 151 92 3a 54
        E 4 92 3e 51
        E 2 92 37 51
        E 237 82 37 32
        E 36 82 3e 01
        E 80 82 3a 39
        E 96 92 35 5d
        E 4 92 3c 49
        E 2 92 39 57
        E 403 82 39 01
        E 78 82 3c 01
        E 21 82 35 4c
        E 459 92 3a 4e
        E 6 92 34 59
        E 456 82 34 4f
        E 27 82 3a 29
        E 495 92 39 5c
        E 3 92 3c 4f
        E 291 82 39 0c
        E 33 82 3c 18
        E 135 92 35 64
        E 354 82 35 0b
        E 129 92 39 57
        E 335 82 39 18
        E 147 92 3c 51
        E 382 82 3c 01
        E 113 92 41 5a
        E 317 82 41 0c
        E 155 92 41 55
        E 317 82 41 23
        E 166 92 3c 56
        E 266 82 3c 01
        E 185 92 39 5f
        E 306 82 39 01
        E 220 92 35 62
        E 526 82 35 47
        E 423 92 41 56
        E 2 92 3c 5a
        E 477 82 41 27
        E 5 82 3c 1a
        E 318 92 35 6a
        E 74 82 35 51
        E 86 92 35 64
        E 1454 82 35 61
        E 461 b0 7b 00
        GUID {1AD72172-51A4-2945-B27A-99E5C2723562}
        IGNTEMPO 0 120 4 4
        SRCCOLOR 971
        VELLANE -1 86 6
      >
    >
  >
  <TRACK {97C14EE2-C273-C940-9D68-54C062C3CBCA}
    NAME ChipFront
    PEAKCOL 16576
    BEAT -1
    AUTOMODE 0
    VOLPAN 0.29907261314897 0 -1 -1 1
    MUTESOLO 0 0 0
    IPHASE 0
    ISBUS 0 0
    BUSCOMP 0 0
    SHOWINMIX 1 0.6667 0.5 1 0.5 0 0 0
    FREEMODE 0
    SEL 0
    REC 0 0 0 0 0 0 0
    VU 2
    TRACKHEIGHT 0 0
    INQ 0 0 0 0.5 100 0 0 100
    NCHAN 2
    FX 1
    TRACKID {97C14EE2-C273-C940-9D68-54C062C3CBCA}
    PERF 0
    AUXRECV 3 0 1 0 0 0 0 0 0 -1:U 0 -1 ''
    MIDIOUT -1
    MAINSEND 1 0
    <FXCHAIN
      SHOW 0
      LASTSEL 0
      DOCKED 0
      BYPASS 0 0 0
      <VST "VST: FabFilter Volcano 2 (SC) (FabFilter)" "FabFilter Volcano 2 (SC).vst" 0 "" 1180054068
        NDJWRu9e7f4EAAAAAQAAAAAAAAACAAAAAAAAAAQAAAAAAAAACAAAAAAAAAAEAAAAAQAAAAAAAAACAAAAAAAAAAQAAAAAAAAACAAAAAAAAADcCwAAAAAAAAAAEAA=
        776t3g3wrd4AAAA/AAAAPwAAAD8AAAA/AACAPwAAAAAAAAA/q6qqPq2+aD8AAAA/ig0yPM3MzD0AAAAAAAAAAAAAAAAAAIA/AACAP0Isdj8AAAA/bbDgPZqZGT8AAAAA
        AAAAAOev3zwAAIA/AAAAAAAAgD8AAAA/AAAAAJqZGT8AAAAAAAAAAAAAAAAAAIA/AAAAAAAAgD8AAAA/AAAAAJqZGT8AAAAAAAAAAAAAAAAAAIA/AAAAAKuqqj4ATrI+
        AAAAPwAAAADBykk/XXRRPwAAAACJiIg9AACAP6oXiD4AAAAAAAAAAAAAAAAAAAAAAACAPwAAAAAAAAA/AAAAAAAAAAAAAAAAAAAAPwAAAAAAAAAAAAAAAAAAAD8AAAAA
        AAAAAAAAAAAAAAA/AAAAAAAAAAAAAAAAAAAAPwAAAAAAAAAAAAAAAAAAAD8AAAAAAAAAAAAAAAAAAAA/AAAAAAAAAAAAAAAAAAAAPwAAAAAAAAAAAAAAAAAAAD8AAAAA
        AAAAAAAAAAAAAAA/AAAAAAAAAAAAAAAAAAAAPwAAAAAAAAAAAAAAAAAAAD8AAAAAAAAAAAAAAAAAAAA/AAAAAAAAAAAAAAAAAAAAPwAAAAAAAAAAAAAAAHwZED4AAAA/
        KKO3PQAAgD8AAAAAAAAAAImIiD3y0iU/AAAAAAAAgD8AAAAAdGjRPQAAAAAAAIA/AAAAAAAAAD8AAAAAAAAAAAAAAAAAAAA/AAAAAAAAAAAAAAAAAAAAPwAAAAAAAAAA
        AAAAAAAAAD8AAAAAAAAAAAAAAAAAAAA/AAAAAAAAAAAAAAAAAAAAPwAAAAAAAAAAAAAAAAAAAD8AAAAAAAAAAAAAAAAAAAA/AAAAAAAAAAAAAAAAAAAAPwAAAAAAAAAA
        AAAAAAAAAD8AAAAAAAAAAAAAAAAAAAA/AAAAAAAAAAAAAAAAAAAAPwAAAAAAAAAAAAAAAAAAAD8AAAAAAAAAAAAAAAAAAAA/AAAAAAAAAAAAAAAAvvR9PgAAAD8AAAA/
        AAAAPwAAAAAAAAAAiYiIPQAAAD8AAAAAAAAAAAAAAAAAAAA/AAAAAAAAAAAAAAAAAAAAPwAAAAAAAAAAAAAAAAAAAD8AAAAAAAAAAAAAAAAAAAA/AAAAAAAAAAAAAAAA
        AAAAPwAAAAAAAAAAAAAAAAAAAD8AAAAAAAAAAAAAAAAAAAA/AAAAAAAAAAAAAAAAAAAAPwAAAAAAAAAAAAAAAAAAAD8AAAAAAAAAAAAAAAAAAAA/AAAAAAAAAAAAAAAA
        AAAAPwAAAAAAAAAAAAAAAAAAAD8AAAAAAAAAAAAAAAAAAAA/AAAAAAAAAAAAAAAAAAAAPwAAAAAAAAAAAAAAAAAAAD8AAAAAAAAAAAAAAAC+9H0+AAAAPwAAAD8AAAA/
        AAAAAAAAAACJiIg9AAAAPwAAAAAAAAAAAAAAAAAAAD8AAAAAAAAAAAAAAAAAAAA/AAAAAAAAAAAAAAAAAAAAPwAAAAAAAAAAAAAAAAAAAD8AAAAAAAAAAAAAAAAAAAA/
        AAAAAAAAAAAAAAAAAAAAPwAAAAAAAAAAAAAAAAAAAD8AAAAAAAAAAAAAAAAAAAA/AAAAAAAAAAAAAAAAAAAAPwAAAAAAAAAAAAAAAAAAAD8AAAAAAAAAAAAAAAAAAAA/
        AAAAAAAAAAAAAAAAAAAAPwAAAAAAAAAAAAAAAAAAAD8AAAAAAAAAAAAAAAAAAAA/AAAAAAAAAAAAAAAAAAAAPwAAAAAAAAAAAAAAAL70fT4AAAA/AAAAPwAAAD8AAAAA
        AAAAAImIiD0AAAA/AAAAAAAAAAAAAAAAAAAAPwAAAAAAAAAAAAAAAAAAAD8AAAAAAAAAAAAAAAAAAAA/AAAAAAAAAAAAAAAAAAAAPwAAAAAAAAAAAAAAAAAAAD8AAAAA
        AAAAAAAAAAAAAAA/AAAAAAAAAAAAAAAAAAAAPwAAAAAAAAAAAAAAAAAAAD8AAAAAAAAAAAAAAAAAAAA/AAAAAAAAAAAAAAAAAAAAPwAAAAAAAAAAAAAAAAAAAD8AAAAA
        AAAAAAAAAAAAAAA/AAAAAAAAAAAAAAAAAAAAPwAAAAAAAAAAAAAAAAAAAD8AAAAAAAAAAAAAAAAAAAA/AAAAAAAAAAAAAAAAvvR9PgAAAD8AAAA/AAAAPwAAAAAAAAAA
        iYiIPQAAAD8AAAAAAAAAAAAAAAAAAAA/AAAAAAAAAAAAAAAAAAAAPwAAAAAAAAAAAAAAAAAAAD8AAAAAAAAAAAAAAAAAAAA/AAAAAAAAAAAAAAAAAAAAPwAAAAAAAAAA
        AAAAAAAAAD8AAAAAAAAAAAAAAAAAAAA/AAAAAAAAAAAAAAAAAAAAPwAAAAAAAAAAAAAAAAAAAD8AAAAAAAAAAAAAAAAAAAA/AAAAAAAAAAAAAAAAAAAAPwAAAAAAAAAA
        AAAAAAAAAD8AAAAAAAAAAAAAAAAAAAA/AAAAAAAAAAAAAAAAAAAAPwAAAAAAAAAAAAAAAAAAAD8AAAAAAAAAAAAAAAAAAAAAmpmZPgAAAAAAAAAAAAAAAAAAgD8AAAAA
        mpmZPgAAAAAAAAAAAAAAAAAAgD8AAAAAmpmZPgAAAAAAAAAAAAAAAAAAgD8AAAAAmpmZPgAAAAAAAAAAAAAAAAAAgD8AAAAAmpmZPgAAAAAAAAAAAAAAAAAAgD8AAAAA
        mpmZPgAAAAAAAAAAAAAAAAAAgD8AAAAAAAAAAAAAAAAAAAAAAAAAAAAAAAAAAAAAAAAAAAAAAAAAAAAAAAAAAAAAAAAAAAAAAAAAAAAAAAAAAAAAAAAAAAAAAAAAAAAA
        AAAAAAAAAAAAAAAAAAAAAAAAAAAAAAAAAAAAAAAAAAAAAAAAAAAAAAAAAAAAAAAAAAAAAAAAAAAAAAAAAAAAAAAAAAAAAAAAAAAAAKuqKj3ZiZ09gShWPgAAAAAAAAAA
        v+eWPQAAAAAAAAA/AAAAAAAAAAAAAAAAAAAAAAAAAD8AAAAAAAAAAAAAAAAAAAAAAAAAPwAAAAAAAAAAAAAAAAAAAAAAAAAAAAAAAAAAAAAAAAAAAAAAAAAAAAAAAAAA
        AAAAAAAAAAAAAAAAAAAAAAAAAAAAAAAAAAAAAAAAAAAAAAAAAAAAAAAAAAAAAAAAAAAAAAAAAAAAAAAAAAAAAAAAAAAAAAAAAAAAAAAAAAAAAAAAAAAAAAAAAAAAAAAA
        AAAAAAAAAAAAAAAAAAAAAAAAAAAAAAAAAAAAAAAAAAAAAAAAAAAAAAAAAAAAAAAAAAAAAAAAAAAAAAAAAAAAAAAAAAAAAAAAAAAAAAAAAAAAAAAAAAAAAAAAAAAAAAAA
        AAAAAAAAAAAAAAAAAAAAAAAAAAAAAAAAAAAAAAAAAAAAAAAAAAAAAAAAAAAAAAAAAAAAAAAAAAAAAAAAAAAAAAAAAAAAAAAAAAAAAAAAAAAAAAAAAAAAAAAAAAAAAAAA
        AAAAAAAAAAAAAAAAAAAAAAAAAAAAAAAAAAAAAAAAAAAAAAAAAAAAAAAAAAAAAAAAAAAAAAAAAAAAAAAAAAAAAAAAAAAAAAAAAAAAAAAAAAAAAAAAAAAAPwAAAD8AAAA/
        AAAAPwAAAD8AAAA/AAAAPwAAAD8AAAAAAAAAAAAAAAAAAAAAAAAAAAAAAAAAAAAAAAAAAAAAAAAAAAAAAAAAAAAAAAAAAAAAAAAAAAAAAAAAAAAAAAAAAAAAAAAAAAAA
        AAAAAAAAAAAAAAAAAAAAAAAAAAAAAAAAAAAAAAAAAAAAAAAAAAAAAAAAAAAAAAAAAAAAAAAAAAAAAAAAAAAAAAAAAAAAAAAAAAAAAAAAAAAAAAAAAAAAAAAAAAAAAAAA
        AAAAAAAAAAAAAAAAAAAAAAAAAAAAAAAAAAAAAAAAAAAAAAAAAAAAAAAAAAAAAAAAAAAAAAAAAAAAAAAAAAAAAAAAAAAAAAAAAAAAAAAAAAAAAAAAAAAAAAAAAAAAAAAA
        AAAAAAAAAAAAAAAAAAAAAAAAAAAAAAAAAAAAAAAAAAAAAAAAAAAAAAAAAAAAAAAAAAAAAAAAAAAAAAAA
        Q2hpcEZyb250AENoaXBGcm9udAAQAAAA
      >
      PRESETNAME ChipFront
      FLOATPOS 36 32 641 529
      FXID {4C5A6810-F3ED-0645-A06D-6758F70CB097}
      WAK 0
    >
  >
  <TRACK {1B564899-9ACC-8C4B-8FBF-925A5A247A13}
    NAME ChipSide
    PEAKCOL 16576
    BEAT -1
    AUTOMODE 0
    VOLPAN 0.28367082259856 0 -1 -1 1
    MUTESOLO 0 0 0
    IPHASE 0
    ISBUS 0 0
    BUSCOMP 0 0
    SHOWINMIX 1 0.6667 0.5 1 0.5 0 0 0
    FREEMODE 0
    SEL 0
    REC 0 0 0 0 0 0 0
    VU 2
    TRACKHEIGHT 0 0
    INQ 0 0 0 0.5 100 0 0 100
    NCHAN 2
    FX 1
    TRACKID {1B564899-9ACC-8C4B-8FBF-925A5A247A13}
    PERF 0
    AUXRECV 3 0 1.03113579563571 0 0 0 0 2 0 -1:U 0 -1 ''
    MIDIOUT -1
    MAINSEND 1 0
    <FXCHAIN
      SHOW 0
      LASTSEL 0
      DOCKED 0
      BYPASS 0 0 0
      <VST "VST: FabFilter Volcano 2 (SC) (FabFilter)" "FabFilter Volcano 2 (SC).vst" 0 "" 1180054068
        NDJWRu9e7f4EAAAAAQAAAAAAAAACAAAAAAAAAAQAAAAAAAAACAAAAAAAAAAIAAAAAQAAAAAAAAACAAAAAAAAAAQAAAAAAAAACAAAAAAAAAAQAAAAAAAAACAAAAAAAAAA
        QAAAAAAAAACAAAAAAAAAANwLAAAAAAAAAAAQAA==
        776t3g3wrd4AAAA/AAAAPwAAAD8AAAA/AACAPwAAAAAAAIA/q6qqPsplFD8AAAA/TxqgPc3MzD0AAAAAAAAAAEKGIj8AAIA/AACAP0Isdj8AAAA/bbDgPZqZGT8AAAAA
        AAAAAOev3zwAAIA/AAAAAAAAgD8AAAA/AAAAAJqZGT8AAAAAAAAAAAAAAAAAAIA/AAAAAAAAgD8AAAA/AAAAAJqZGT8AAAAAAAAAAAAAAAAAAIA/AAAAAKuqqj6CdAA9
        EObJPZgn+j4AAIA/AAAAAAAAAACJiAg+AACAP7PDtD4AAIA/AAAAAAAAAAAAAAAAq6qqPgAAAACeFR0/AAAAAAAAgD8AAAAAAAAAPwAAAAAAAAAAAAAAAAAAAD8AAAAA
        AAAAAAAAAAAAAAA/AAAAAAAAAAAAAAAAAAAAPwAAAAAAAAAAAAAAAAAAAD8AAAAAAAAAAAAAAAAAAAA/AAAAAAAAAAAAAAAAAAAAPwAAAAAAAAAAAAAAAAAAAD8AAAAA
        AAAAAAAAAAAAAAA/AAAAAAAAAAAAAAAAAAAAPwAAAAAAAAAAAAAAAAAAAD8AAAAAAAAAAAAAAAAAAAA/AAAAAAAAAAAAAAAAAAAAPwAAAAAAAAAAAAAAAHwZED4AAAA/
        KKO3PQAAgD8AAAAAAAAAAImIiD3y0iU/AAAAAAAAgD8AAAAAdGjRPQAAAAAAAIA/AAAAAAAAAD8AAAAAAAAAAAAAAAAAAAA/AAAAAAAAAAAAAAAAAAAAPwAAAAAAAAAA
        AAAAAAAAAD8AAAAAAAAAAAAAAAAAAAA/AAAAAAAAAAAAAAAAAAAAPwAAAAAAAAAAAAAAAAAAAD8AAAAAAAAAAAAAAAAAAAA/AAAAAAAAAAAAAAAAAAAAPwAAAAAAAAAA
        AAAAAAAAAD8AAAAAAAAAAAAAAAAAAAA/AAAAAAAAAAAAAAAAAAAAPwAAAAAAAAAAAAAAAAAAAD8AAAAAAAAAAAAAAAAAAAA/AAAAAAAAAAAAAAAAvvR9PgAAAD8AAAA/
        AAAAPwAAAAAAAAAAiYiIPQAAAD8AAAAAAAAAAAAAAAAAAAA/AAAAAAAAAAAAAAAAAAAAPwAAAAAAAAAAAAAAAAAAAD8AAAAAAAAAAAAAAAAAAAA/AAAAAAAAAAAAAAAA
        AAAAPwAAAAAAAAAAAAAAAAAAAD8AAAAAAAAAAAAAAAAAAAA/AAAAAAAAAAAAAAAAAAAAPwAAAAAAAAAAAAAAAAAAAD8AAAAAAAAAAAAAAAAAAAA/AAAAAAAAAAAAAAAA
        AAAAPwAAAAAAAAAAAAAAAAAAAD8AAAAAAAAAAAAAAAAAAAA/AAAAAAAAAAAAAAAAAAAAPwAAAAAAAAAAAAAAAAAAAD8AAAAAAAAAAAAAAAC+9H0+AAAAPwAAAD8AAAA/
        AAAAAAAAAACJiIg9AAAAPwAAAAAAAAAAAAAAAAAAAD8AAAAAAAAAAAAAAAAAAAA/AAAAAAAAAAAAAAAAAAAAPwAAAAAAAAAAAAAAAAAAAD8AAAAAAAAAAAAAAAAAAAA/
        AAAAAAAAAAAAAAAAAAAAPwAAAAAAAAAAAAAAAAAAAD8AAAAAAAAAAAAAAAAAAAA/AAAAAAAAAAAAAAAAAAAAPwAAAAAAAAAAAAAAAAAAAD8AAAAAAAAAAAAAAAAAAAA/
        AAAAAAAAAAAAAAAAAAAAPwAAAAAAAAAAAAAAAAAAAD8AAAAAAAAAAAAAAAAAAAA/AAAAAAAAAAAAAAAAAAAAPwAAAAAAAAAAAAAAAL70fT4AAAA/AAAAPwAAAD8AAAAA
        AAAAAImIiD0AAAA/AAAAAAAAAAAAAAAAAAAAPwAAAAAAAAAAAAAAAAAAAD8AAAAAAAAAAAAAAAAAAAA/AAAAAAAAAAAAAAAAAAAAPwAAAAAAAAAAAAAAAAAAAD8AAAAA
        AAAAAAAAAAAAAAA/AAAAAAAAAAAAAAAAAAAAPwAAAAAAAAAAAAAAAAAAAD8AAAAAAAAAAAAAAAAAAAA/AAAAAAAAAAAAAAAAAAAAPwAAAAAAAAAAAAAAAAAAAD8AAAAA
        AAAAAAAAAAAAAAA/AAAAAAAAAAAAAAAAAAAAPwAAAAAAAAAAAAAAAAAAAD8AAAAAAAAAAAAAAAAAAAA/AAAAAAAAAAAAAAAAvvR9PgAAAD8AAAA/AAAAPwAAAAAAAAAA
        iYiIPQAAAD8AAAAAAAAAAAAAAAAAAAA/AAAAAAAAAAAAAAAAAAAAPwAAAAAAAAAAAAAAAAAAAD8AAAAAAAAAAAAAAAAAAAA/AAAAAAAAAAAAAAAAAAAAPwAAAAAAAAAA
        AAAAAAAAAD8AAAAAAAAAAAAAAAAAAAA/AAAAAAAAAAAAAAAAAAAAPwAAAAAAAAAAAAAAAAAAAD8AAAAAAAAAAAAAAAAAAAA/AAAAAAAAAAAAAAAAAAAAPwAAAAAAAAAA
        AAAAAAAAAD8AAAAAAAAAAAAAAAAAAAA/AAAAAAAAAAAAAAAAAAAAPwAAAAAAAAAAAAAAAAAAAD8AAAAAAAAAAAAAAAAAAAAAmpmZPgAAAAAAAAAAAAAAAAAAgD8AAAAA
        mpmZPgAAAAAAAAAAAAAAAAAAgD8AAAAAmpmZPgAAAAAAAAAAAAAAAAAAgD8AAAAAmpmZPgAAAAAAAAAAAAAAAAAAgD8AAAAAmpmZPgAAAAAAAAAAAAAAAAAAgD8AAAAA
        mpmZPgAAAAAAAAAAAAAAAAAAgD8AAAAAAAAAAAAAAAAAAAAAAAAAAAAAAAAAAAAAAAAAAAAAAAAAAAAAAAAAAAAAAAAAAAAAAAAAAAAAAAAAAAAAAAAAAAAAAAAAAAAA
        AAAAAAAAAAAAAAAAAAAAAAAAAAAAAAAAAAAAAAAAAAAAAAAAAAAAAAAAAAAAAAAAAAAAAAAAAAAAAAAAAAAAAAAAAAAAAAAAAAAAAKuqqj3ZiZ09gShWPgAAgD8AAAAA
        v+eWPdmJHT0WszE/AAAAAAAAAACSdiw8AAAAAAAAAD8AAAAAAAAAAAAAAAAAAAAAAAAAPwAAAAAAAAAAAAAAAAAAAAAAAAAAAAAAAAAAAAAAAAAAAAAAAAAAAAAAAAAA
        AAAAAAAAAAAAAAAAAAAAAAAAAAAAAAAAAAAAAAAAAAAAAAAAAAAAAAAAAAAAAAAAAAAAAAAAAAAAAAAAAAAAAAAAAAAAAAAAAAAAAAAAAAAAAAAAAAAAAAAAAAAAAAAA
        AAAAAAAAAAAAAAAAAAAAAAAAAAAAAAAAAAAAAAAAAAAAAAAAAAAAAAAAAAAAAAAAAAAAAAAAAAAAAAAAAAAAAAAAAAAAAAAAAAAAAAAAAAAAAAAAAAAAAAAAAAAAAAAA
        AAAAAAAAAAAAAAAAAAAAAAAAAAAAAAAAAAAAAAAAAAAAAAAAAAAAAAAAAAAAAAAAAAAAAAAAAAAAAAAAAAAAAAAAAAAAAAAAAAAAAAAAAAAAAAAAAAAAAAAAAAAAAAAA
        AAAAAAAAAAAAAAAAAAAAAAAAAAAAAAAAAAAAAAAAAAAAAAAAAAAAAAAAAAAAAAAAAAAAAAAAAAAAAAAAAAAAAAAAAAAAAAAAAAAAAAAAAAAAAAAAAAAAPwAAAD8AAAA/
        AAAAPwAAAD8AAAA/AAAAPwAAAD8AAAAAAAAAAAAAAAAAAAAAAAAAAAAAAAAAAAAAAAAAAAAAAAAAAAAAAAAAAAAAAAAAAAAAAAAAAAAAAAAAAAAAAAAAAAAAAAAAAAAA
        AAAAAAAAAAAAAAAAAAAAAAAAAAAAAAAAAAAAAAAAAAAAAAAAAAAAAAAAAAAAAAAAAAAAAAAAAAAAAAAAAAAAAAAAAAAAAAAAAAAAAAAAAAAAAAAAAAAAAAAAAAAAAAAA
        AAAAAAAAAAAAAAAAAAAAAAAAAAAAAAAAAAAAAAAAAAAAAAAAAAAAAAAAAAAAAAAAAAAAAAAAAAAAAAAAAAAAAAAAAAAAAAAAAAAAAAAAAAAAAAAAAAAAAAAAAAAAAAAA
        AAAAAAAAAAAAAAAAAAAAAAAAAAAAAAAAAAAAAAAAAAAAAAAAAAAAAAAAAAAAAAAAAAAAAAAAAAAAAAAA
        Q2hpcFNpZGUAQ2hpcFNpZGUAEAAAAA==
      >
      PRESETNAME ChipSide
      FLOATPOS 36 32 641 529
      FXID {20356A84-5CFD-6E4A-AA26-2A8A49CE7A76}
      WAK 0
    >
  >
  <TRACK {355E82E0-98DE-C241-A880-2BCD979BC63D}
    NAME "16th pulse (mix w/ send?)"
    PEAKCOL 16576
    BEAT -1
    AUTOMODE 0
    VOLPAN 0.49866990604774 0 -1 -1 1
    MUTESOLO 1 0 0
    IPHASE 0
    ISBUS 0 0
    BUSCOMP 0 0
    SHOWINMIX 1 0.6667 0.5 1 0.5 0 0 0
    FREEMODE 0
    SEL 0
    REC 0 0 0 0 0 0 0
    VU 2
    TRACKHEIGHT 0 0
    INQ 0 0 0 0.5 100 0 0 100
    NCHAN 2
    FX 1
    TRACKID {355E82E0-98DE-C241-A880-2BCD979BC63D}
    PERF 0
    MIDIOUT -1
    MAINSEND 1 0
    <FXCHAIN
      WNDRECT 36 359 724 387
      SHOW 0
      LASTSEL 1
      DOCKED 1
      BYPASS 0 0 0
      <VST "VSTi: chipsounds (Plogue Art et Technologie, Inc)" chipsounds.vst 0 "" 1347176271
        T0dMUO5e7f4AAAAABAAAAAEAAAAAAAAAAgAAAAAAAAAEAAAAAAAAAAgAAAAAAAAA4wMAAAEAAAAAABAA
        Q0VHUL4UAAB4nO1YTW/jNhC951cQOm0PK5GiKImAnYXjrAsDdTeA3fOCkRlbKC2pEuUm++s7+nBMp2GkwwI91HOx+PyGw3n85uTL80GhoyyrNM+mDnGxg77c3kxmZSrW
        4iiNvzgJHVSU+bZO9PIeAIy5c3uDwCZrqXWa7Sr0Vy1Uql/gXwdVupTiAPDUob6DDuJ53SIzpfJkdTd1GAF4tbxffqv1Kt/K1kvUOj8IDTHXKtdTB5uQkkeppk6aQd31
        QWbaQSo9ys4ZmFUydXwahM2XUAIwgj4j2bTKrRLVw3NwlOXUCcFjp/JHoTZ11rYTAO+UEkRH6bbFMnFo6icueqhLieb7tPDWy3svZDFBn37frOe/OOhRZH8ut70uhm6x
        D1kme5FlTdOhtiJXIFDsIH2OWjx+L0W2gyifQYNCQ6Fq/zgYn3mioUteEw0AqnVf/vu7EhXIRUjfJ20Ss/r5lMNRqLrhurHPG4spJTjknL2m3HqsRJq9cSEWBjlXamH4
        gww6yAgGGWyQEQ4yokFGPMjggwyChynDqpJhWcmwrmRYWGJV9kGU4vCmi4mNYg10phjyu5zi1iLCfMaiwOZjiukyK8uI7vq0Hfo8CCljsW/1iYaTIkZvu6SbUpz5lIR+
        bG2yT4YrjsZwjBHghpg1chGOIxrEIbU6GWPCBXrfZObzkDVLu8XL1A/3eXLq8yCIIqvqERuRhHVWnjnxCDHi8EKM1nwaByRmEbc5cevyZnQxHRGdUD5M4vgczqo0x+dw
        1qHJ8YgJx/GIKcdxOKameAxphASwK1oXvwvWiPyIj6mNtRHlTup+x07yg/ug8l0t3U2Z7nayXMNZQGaJLI1dsvWb1xUcMu6FFmivXwpwDmgAUar0B3zH2NjRoYUy26Yi
        axPZgktzNugG3qI33A7EaIF9PMN30eIOvzU6jxb8X2i38HW/MLHBZowuGvASvevQ+Qnto+MWxZfoHNBLkbxOpRGyNedA97fFN7euZEmGRWMR4yfRgjAwVMPvqXZueDdt
        39Xjale72n9hP2XVwNdV42pX+//YB6vGxGueVfrvr09PMtHmO0v/qtGtJ6t8i+6lEi8fP628e0I0r4a4v/RxghncLan1gmTcvN0oChqXKCQsJoFvPYr6Y+6g1sPqmfLe
        WXzinRXqkV//WJ7yE4lOj3J5fiRry19fy5VU4Cu3G/HYlM2opaykXsmsRml1ouu2lz4+MiMtn4HylD7pvYMKofdTx5sVhUqT9nWu8jpPlOzTosrrbAtIG6zyPqjXmytR
        VWmCZmUhd7s0r7w2hCtgGykMOSD725uJd3qbvL35B8YD0I0=
        AAAQAAAA
      >
      FLOATPOS 409 269 870 508
      FXID {14C02134-CD49-134C-BB25-9A77A5E84D9C}
      WAK 0
    >
    <ITEM
      POSITION 0
      SNAPOFFS 0
      LENGTH 112.5
      LOOP 1
      ALLTAKES 0
      FADEIN 1 0 0 1 0 0
      FADEOUT 1 0 0 1 0 0
      MUTE 0
      SEL 0
      YPOS 0.666667 0.333333
      IGUID {D8DF9DCC-BB6D-7E49-8454-F22F7C4A14A6}
      IID 17
      NAME "tuba(s) - National_Anthems_-_Brazil.mid"
      VOLPAN 1 0 1 -1
      SOFFS 0 0
      PLAYRATE 1 1 0 -1 0 0.0025
      CHANMODE 0
      TAKECOLOR 26173599 B
      GUID {09A7B6EF-D764-A94B-8E1F-3CFF31018BA0}
      <SOURCE MIDI
        HASDATA 1 480 QN
        POOLEDEVTS {77453931-26CE-5247-BCF5-C3DC1636DDB7}
        <X 0 0 0 0 3 tuba(s)
          /wN0dWJhKHMp
        >
        <X 0 0 0 0 4 "Sound Canvas"
          /wRTb3VuZCBDYW52YXM=
        >
        E 335 90 24 64
        E 55 80 24 00
        E 93 90 24 64
        E 84 90 26 60
        E 9 80 24 00
        E 79 90 24 62
        E 13 80 26 00
        E 66 80 24 00
        E 3 90 23 65
        E 85 90 24 5f
        E 16 80 23 00
        E 124 80 24 00
        E 2 90 29 67
        E 175 80 29 00
        E 136 90 29 6a
        E 50 80 29 00
        E 94 90 29 68
        E 60 90 2b 5c
        E 14 80 29 00
        E 69 90 29 6b
        E 42 80 2b 00
        E 30 80 29 00
        E 7 90 28 60
        E 87 90 29 6a
        E 18 80 28 00
        E 117 80 29 00
        E 10 90 2d 67
        E 190 80 2d 00
        E 167 90 2d 67
        E 45 80 2d 00
        E 79 90 2d 64
        E 87 90 2e 63
        E 3 80 2d 00
        E 89 90 2d 5f
        E 3 80 2e 00
        E 77 90 2c 66
        E 5 80 2d 00
        E 93 90 2d 62
        E 13 80 2c 00
        E 128 80 2d 00
        E 17 90 30 64
        E 168 80 30 00
        E 280 90 1d 6a
        E 1084 80 1d 00
        E 421 90 29 56
        E 302 80 29 00
        E 165 90 29 57
        E 284 80 29 00
        E 174 90 29 58
        E 266 80 29 00
        E 214 90 29 60
        E 259 80 29 00
        E 203 90 28 53
        E 343 80 28 00
        E 161 90 28 4b
        E 512 80 28 00
        E 271 90 26 67
        E 52 80 26 00
        E 114 90 26 64
        E 81 90 28 55
        E 2 80 26 00
        E 85 90 26 54
        E 10 80 28 00
        E 68 90 25 66
        E 1 80 26 00
        E 102 90 26 60
        E 4 80 25 00
        E 125 80 26 00
        E 8 90 2b 58
        E 189 80 2b 00
        E 153 90 2b 5b
        E 44 80 2b 00
        E 93 90 2b 60
        E 70 90 2d 59
        E 5 80 2b 00
        E 84 90 2b 59
        E 2 80 2d 00
        E 78 90 2a 65
        E 4 80 2b 00
        E 104 90 2b 62
        E 3 80 2a 00
        E 121 80 2b 00
        E 19 90 2e 67
        E 148 80 2e 00
        E 215 90 2e 66
        E 58 80 2e 00
        E 62 90 2e 63
        E 73 90 30 5b
        E 1 80 2e 00
        E 93 90 2e 69
        E 23 80 30 00
        E 59 90 2d 5e
        E 4 80 2e 00
        E 80 90 2e 69
        E 16 80 2d 00
        E 119 80 2e 00
        E 8 90 32 55
        E 216 80 32 00
        E 257 90 1f 6a
        E 1007 80 1f 00
        E 428 90 24 53
        E 303 80 24 00
        E 184 90 24 52
        E 318 80 24 00
        E 167 90 24 4f
        E 349 80 24 00
        E 143 90 24 52
        E 304 80 24 00
        E 166 90 29 5e
        E 294 80 29 00
        E 202 90 29 61
        E 528 80 29 00
        E 248 90 24 5d
        E 67 80 24 00
        E 97 90 24 5c
        E 65 90 26 62
        E 7 80 24 00
        E 79 90 24 50
        E 30 80 26 00
        E 57 90 23 5a
        E 13 80 24 00
        E 78 90 24 52
        E 19 80 23 00
        E 144 80 24 00
        E 0 90 1d 5c
        E 310 80 1d 00
        E 213 90 2d 4c
        E 342 80 2d 00
        E 88 90 29 64
        E 299 80 29 00
        E 169 90 1d 62
        E 289 80 1d 00
        E 22 90 1f 5b
        E 83 90 21 5c
        E 5 80 1f 00
        E 99 90 22 5f
        E 4 80 21 00
        E 255 80 22 00
        E 220 90 2e 62
        E 374 80 2e 00
        E 138 90 2b 5a
        E 311 80 2b 00
        E 151 90 1f 66
        E 252 80 1f 00
        E 3 90 21 55
        E 96 90 22 65
        E 14 80 21 00
        E 83 80 22 00
        E 0 90 24 5b
        E 258 80 24 00
        E 238 90 30 58
        E 463 80 30 00
        E 28 90 2d 58
        E 317 80 2d 00
        E 150 90 21 67
        E 251 80 21 00
        E 4 90 22 67
        E 111 90 24 55
        E 11 80 22 00
        E 92 80 24 00
        E 1 90 26 59
        E 312 80 26 00
        E 204 90 22 67
        E 323 90 24 57
        E 5 80 22 00
        E 80 90 26 53
        E 19 80 24 00
        E 70 90 28 62
        E 4 80 26 00
        E 273 80 28 00
        E 186 90 24 62
        E 305 80 24 00
        E 1 90 26 53
        E 83 90 28 57
        E 18 80 26 00
        E 69 80 28 00
        E 0 90 29 68
        E 290 80 29 00
        E 191 90 23 66
        E 741 80 23 00
        E 194 90 34 62
        E 250 80 34 00
        E 48 90 32 5e
        E 59 80 32 00
        E 118 90 24 67
        E 382 80 24 00
        E 586 90 18 6a
        E 529 80 18 00
        E 406 90 29 65
        E 307 80 29 00
        E 190 90 1d 60
        E 241 80 1d 00
        E 240 90 1d 5e
        E 215 80 1d 00
        E 265 90 1d 58
        E 252 80 1d 00
        E 215 90 1d 60
        E 251 80 1d 00
        E 228 90 1d 57
        E 260 80 1d 00
        E 208 90 1d 5a
        E 271 80 1d 00
        E 219 90 1d 5b
        E 295 80 1d 00
        E 197 90 1d 55
        E 298 80 1d 00
        E 195 90 1d 59
        E 221 80 1d 00
        E 236 90 1d 5b
        E 254 80 1d 00
        E 238 90 1d 58
        E 255 80 1d 00
        E 226 90 1d 55
        E 231 80 1d 00
        E 256 90 1d 5c
        E 251 80 1d 00
        E 220 90 1d 5c
        E 243 80 1d 00
        E 233 90 1d 63
        E 279 80 1d 00
        E 199 90 1c 62
        E 234 80 1c 00
        E 253 90 1c 61
        E 219 80 1c 00
        E 258 90 1c 61
        E 212 80 1c 00
        E 267 90 1c 5a
        E 230 80 1c 00
        E 256 90 1c 62
        E 244 80 1c 00
        E 224 90 1c 61
        E 244 80 1c 00
        E 244 90 1c 62
        E 259 80 1c 00
        E 219 90 1c 5e
        E 229 80 1c 00
        E 258 90 1c 5b
        E 277 80 1c 00
        E 215 90 1c 60
        E 174 80 1c 00
        E 305 90 1c 62
        E 208 80 1c 00
        E 265 90 1c 61
        E 222 80 1c 00
        E 258 90 1c 60
        E 271 80 1c 00
        E 202 90 1c 61
        E 199 80 1c 00
        E 286 90 1c 64
        E 251 80 1c 00
        E 236 90 1c 63
        E 238 80 1c 00
        E 224 90 1d 60
        E 278 80 1d 00
        E 214 90 1d 60
        E 279 80 1d 00
        E 211 90 1d 5e
        E 483 80 1d 00
        E 698 90 21 61
        E 60 80 21 00
        E 57 90 21 66
        E 61 80 21 00
        E 75 90 25 6a
        E 91 80 25 00
        E 145 90 28 5d
        E 100 80 28 00
        E 129 90 2d 63
        E 512 80 2d 00
        E 927 90 26 65
        E 364 80 26 00
        E 137 90 1f 63
        E 533 80 1f 00
        E 384 90 21 5e
        E 258 80 21 00
        E 243 90 21 5f
        E 274 80 21 00
        E 209 90 21 62
        E 254 80 21 00
        E 223 90 21 62
        E 271 80 21 00
        E 457 90 26 68
        E 129 80 26 00
        E 112 90 21 67
        E 144 80 21 00
        E 96 90 1d 60
        E 133 80 1d 00
        E 110 90 1a 5c
        E 514 80 1a 00
        E 685 90 1f 64
        E 53 80 1f 00
        E 61 90 1f 60
        E 99 80 1f 00
        E 25 90 23 67
        E 123 80 23 00
        E 89 90 26 62
        E 102 80 26 00
        E 132 90 2b 5c
        E 531 80 2b 00
        E 938 90 24 60
        E 315 80 24 00
        E 180 90 1d 63
        E 516 80 1d 00
        E 421 90 1f 5e
        E 199 80 1f 00
        E 290 90 1f 5d
        E 207 80 1f 00
        E 265 90 1f 5f
        E 221 80 1f 00
        E 252 90 1f 60
        E 159 80 1f 00
        E 301 90 24 53
        E 314 80 24 00
        E 183 90 24 58
        E 511 80 24 00
        E 222 90 24 5f
        E 173 80 24 00
        E 62 90 28 5f
        E 196 80 28 00
        E 41 90 2b 55
        E 162 80 2b 00
        E 101 90 24 5c
        E 124 80 24 00
        E 120 90 24 52
        E 105 80 24 00
        E 115 90 24 58
        E 129 80 24 00
        E 106 90 24 55
        E 122 80 24 00
        E 105 90 24 59
        E 128 80 24 00
        E 117 90 24 5f
        E 116 80 24 00
        E 106 90 24 61
        E 119 80 24 00
        E 122 90 24 60
        E 135 80 24 00
        E 114 90 24 60
        E 749 80 24 00
        E 1218 90 29 65
        E 227 80 29 00
        E 99 90 24 58
        E 118 80 24 00
        E 3 90 29 64
        E 218 80 29 00
        E 137 90 24 50
        E 131 90 29 5c
        E 5 80 24 00
        E 232 80 29 00
        E 119 90 24 52
        E 137 90 29 60
        E 1 80 24 00
        E 208 80 29 00
        E 145 90 24 4f
        E 127 90 29 60
        E 18 80 24 00
        E 197 80 29 00
        E 135 90 24 51
        E 131 90 29 62
        E 9 80 24 00
        E 200 80 29 00
        E 140 90 24 52
        E 143 90 29 65
        E 10 80 24 00
        E 197 80 29 00
        E 133 90 24 52
        E 129 90 29 67
        E 5 80 24 00
        E 181 80 29 00
        E 162 90 24 55
        E 133 90 29 66
        E 21 80 24 00
        E 189 80 29 00
        E 130 90 24 4e
        E 137 90 29 61
        E 24 80 24 00
        E 161 80 29 00
        E 160 90 24 55
        E 137 90 29 68
        E 10 80 24 00
        E 161 80 29 00
        E 164 90 24 55
        E 137 90 29 63
        E 24 80 24 00
        E 173 80 29 00
        E 134 90 24 4c
        E 127 90 28 5a
        E 15 80 24 00
        E 177 80 28 00
        E 165 90 24 48
        E 144 90 28 59
        E 27 80 24 00
        E 171 80 28 00
        E 154 90 24 43
        E 130 90 28 57
        E 23 80 24 00
        E 178 80 28 00
        E 162 90 24 42
        E 137 90 28 58
        E 15 80 24 00
        E 151 80 28 00
        E 162 90 24 44
        E 138 90 28 5e
        E 16 80 24 00
        E 146 80 28 00
        E 155 90 24 3f
        E 139 90 28 56
        E 16 80 24 00
        E 164 80 28 00
        E 161 90 24 49
        E 148 90 28 5b
        E 30 80 24 00
        E 157 80 28 00
        E 162 90 24 47
        E 127 90 28 56
        E 28 80 24 00
        E 173 80 28 00
        E 151 90 24 4c
        E 152 90 28 59
        E 19 80 24 00
        E 141 80 28 00
        E 175 90 24 45
        E 150 90 28 5c
        E 21 80 24 00
        E 122 80 28 00
        E 190 90 24 4d
        E 137 90 28 5a
        E 27 80 24 00
        E 132 80 28 00
        E 195 90 24 4d
        E 131 90 28 59
        E 41 80 24 00
        E 115 80 28 00
        E 197 90 24 4e
        E 139 90 28 60
        E 25 80 24 00
        E 136 80 28 00
        E 177 90 24 4c
        E 137 90 28 5a
        E 20 80 24 00
        E 125 80 28 00
        E 196 90 24 53
        E 116 90 28 5e
        E 23 80 24 00
        E 156 80 28 00
        E 163 90 24 54
        E 139 90 28 60
        E 20 80 24 00
        E 136 80 28 00
        E 163 90 24 50
        E 151 90 29 65
        E 4 80 24 00
        E 139 80 29 00
        E 190 90 24 4d
        E 163 80 24 00
        E 6 90 29 64
        E 159 80 29 00
        E 164 90 24 51
        E 157 80 24 00
        E 8 90 29 67
        E 382 80 29 00
        E 570 90 21 66
        E 214 80 21 00
        E 258 90 24 5e
        E 224 80 24 00
        E 246 90 1d 61
        E 238 80 1d 00
        E 249 90 21 64
        E 241 80 21 00
        E 246 90 22 68
        E 237 80 22 00
        E 247 90 29 68
        E 231 80 29 00
        E 239 90 26 64
        E 231 80 26 00
        E 238 90 22 69
        E 220 80 22 00
        E 265 90 23 65
        E 264 80 23 00
        E 244 90 26 61
        E 195 80 26 00
        E 286 90 1f 67
        E 247 80 1f 00
        E 232 90 23 64
        E 261 80 23 00
        E 200 90 24 5c
        E 270 80 24 00
        E 219 90 2b 58
        E 248 80 2b 00
        E 219 90 28 5f
        E 248 80 28 00
        E 246 90 24 5f
        E 263 80 24 00
        E 212 90 25 67
        E 246 80 25 00
        E 232 90 28 5e
        E 255 80 28 00
        E 232 90 21 64
        E 265 80 21 00
        E 219 90 25 66
        E 267 80 25 00
        E 197 90 26 5e
        E 294 80 26 00
        E 205 90 29 67
        E 250 80 29 00
        E 223 90 22 65
        E 505 80 22 00
        E 654 90 24 5f
        E 66 80 24 00
        E 56 90 24 5d
        E 56 80 24 00
        E 50 90 24 61
        E 93 80 24 00
        E 161 90 24 5f
        E 91 80 24 00
        E 148 90 24 63
        E 562 80 24 00
        E 435 90 21 5c
        E 803 80 21 00
        E 125 90 22 53
        E 817 80 22 00
        E 144 90 24 5e
        E 226 80 24 00
        E 6 90 29 5f
        E 67 80 29 00
        E 47 90 29 63
        E 69 80 29 00
        E 58 90 29 67
        E 109 80 29 00
        E 135 90 29 68
        E 106 80 29 00
        E 139 90 24 54
        E 669 80 24 00
        E 290 90 21 63
        E 403 80 21 00
        E 68 90 24 63
        E 426 80 24 00
        E 95 90 22 65
        E 419 80 22 00
        E 62 90 26 5f
        E 379 80 26 00
        E 103 90 24 61
        E 488 80 24 00
        E 459 90 24 61
        E 655 80 24 00
        E 271 90 29 64
        E 353 80 29 00
        E 150 90 1d 5e
        E 301 80 1d 00
        E 180 90 21 67
        E 336 80 21 00
        E 163 90 24 5d
        E 337 80 24 00
        E 152 90 29 64
        E 301 80 29 00
        E 166 90 29 66
        E 365 80 29 00
        E 111 90 24 60
        E 353 80 24 00
        E 152 90 21 67
        E 386 80 21 00
        E 93 90 1d 64
        E 631 80 1d 00
        E 290 90 29 66
        E 536 80 29 00
        E 308 90 1d 63
        E 68 80 1d 00
        E 85 90 1d 6a
        E 1414 80 1d 00
        E 11 b0 7b 00
        GUID {9D683A9A-232B-E142-AE24-9A0C7592DCAC}
        IGNTEMPO 0 120 4 4
        SRCCOLOR 960
        VELLANE -1 86 6
        CFGEDITVIEW 9199.373419 35.985245 75 12 0 0 0 0 0 0.5
        KEYSNAP 0
        TRACKSEL 226
        EVTFILTER 0 -1 -1 -1 -1 0 0 0 0 -1 -1 -1 -1 0 -1 0 -1 -1
        CFGEDIT 1 1 0 0 0 0 1 0 1 1 1 0.25 64 111 1280 778 0 0 2 3 0 0 0 0 0 -1 0 0 1 64
      >
      TAKE
      NAME "tuba(s) - National_Anthems_-_Brazil.mid"
      TAKEVOLPAN 0 1 -1
      SOFFS 0 0
      PLAYRATE 1 1 0 -1 0 0.0025
      CHANMODE 0
      GUID {A472FC09-0313-AE49-B444-D3F2F86D9043}
      <SOURCE MIDI
        HASDATA 1 480 QN
        POOLEDEVTS {C67B2E36-7300-064B-9043-4542D8C4391E}
        <X 0 0 0 0 3 tuba(s)
          /wN0dWJhKHMp
        >
        <X 0 0 0 0 4 "Sound Canvas"
          /wRTb3VuZCBDYW52YXM=
        >
        E 335 93 24 64
        E 55 83 24 4e
        E 93 93 24 64
        E 84 93 26 60
        E 9 83 24 52
        E 79 93 24 62
        E 13 83 26 40
        E 66 83 24 47
        E 3 93 23 65
        E 85 93 24 5f
        E 16 83 23 46
        E 124 83 24 4d
        E 2 93 29 67
        E 175 83 29 4c
        E 136 93 29 6a
        E 50 83 29 53
        E 94 93 29 68
        E 60 93 2b 5c
        E 14 83 29 58
        E 69 93 29 6b
        E 42 83 2b 01
        E 30 83 29 49
        E 7 93 28 60
        E 87 93 29 6a
        E 18 83 28 44
        E 117 83 29 56
        E 10 93 2d 67
        E 190 83 2d 40
        E 167 93 2d 67
        E 45 83 2d 4a
        E 79 93 2d 64
        E 87 93 2e 63
        E 3 83 2d 34
        E 89 93 2d 5f
        E 3 83 2e 4d
        E 77 93 2c 66
        E 5 83 2d 4a
        E 93 93 2d 62
        E 13 83 2c 35
        E 128 83 2d 50
        E 17 93 30 64
        E 168 83 30 4b
        E 280 93 1d 6a
        E 1084 83 1d 53
        E 421 93 29 56
        E 302 83 29 31
        E 165 93 29 57
        E 284 83 29 2b
        E 174 93 29 58
        E 266 83 29 13
        E 214 93 29 60
        E 259 83 29 2e
        E 203 93 28 53
        E 343 83 28 2b
        E 161 93 28 4b
        E 512 83 28 29
        E 271 93 26 67
        E 52 83 26 49
        E 114 93 26 64
        E 81 93 28 55
        E 2 83 26 4e
        E 85 93 26 54
        E 10 83 28 43
        E 68 93 25 66
        E 1 83 26 49
        E 102 93 26 60
        E 4 83 25 44
        E 125 83 26 49
        E 8 93 2b 58
        E 189 83 2b 12
        E 153 93 2b 5b
        E 44 83 2b 46
        E 93 93 2b 60
        E 70 93 2d 59
        E 5 83 2b 4b
        E 84 93 2b 59
        E 2 83 2d 43
        E 78 93 2a 65
        E 4 83 2b 4e
        E 104 93 2b 62
        E 3 83 2a 48
        E 121 83 2b 33
        E 19 93 2e 67
        E 148 83 2e 34
        E 215 93 2e 66
        E 58 83 2e 45
        E 62 93 2e 63
        E 73 93 30 5b
        E 1 83 2e 44
        E 93 93 2e 69
        E 23 83 30 3f
        E 59 93 2d 5e
        E 4 83 2e 44
        E 80 93 2e 69
        E 16 83 2d 41
        E 119 83 2e 4b
        E 8 93 32 55
        E 216 83 32 34
        E 257 93 1f 6a
        E 1007 83 1f 57
        E 428 93 24 53
        E 303 83 24 01
        E 184 93 24 52
        E 318 83 24 1c
        E 167 93 24 4f
        E 349 83 24 01
        E 143 93 24 52
        E 304 83 24 0b
        E 166 93 29 5e
        E 294 83 29 2d
        E 202 93 29 61
        E 528 83 29 2c
        E 248 93 24 5d
        E 67 83 24 47
        E 97 93 24 5c
        E 65 93 26 62
        E 7 83 24 4b
        E 79 93 24 50
        E 30 83 26 37
        E 57 93 23 5a
        E 13 83 24 48
        E 78 93 24 52
        E 19 83 23 42
        E 144 83 24 42
        E 0 93 1d 5c
        E 310 83 1d 36
        E 213 93 2d 4c
        E 342 83 2d 10
        E 88 93 29 64
        E 299 83 29 01
        E 169 93 1d 62
        E 289 83 1d 36
        E 22 93 1f 5b
        E 83 93 21 5c
        E 5 83 1f 45
        E 99 93 22 5f
        E 4 83 21 4a
        E 255 83 22 41
        E 220 93 2e 62
        E 374 83 2e 01
        E 138 93 2b 5a
        E 311 83 2b 1c
        E 151 93 1f 66
        E 252 83 1f 46
        E 3 93 21 55
        E 96 93 22 65
        E 14 83 21 3e
        E 83 83 22 4c
        E 0 93 24 5b
        E 258 83 24 44
        E 238 93 30 58
        E 463 83 30 01
        E 28 93 2d 58
        E 317 83 2d 22
        E 150 93 21 67
        E 251 83 21 37
        E 4 93 22 67
        E 111 93 24 55
        E 11 83 22 3c
        E 92 83 24 45
        E 1 93 26 59
        E 312 83 26 3c
        E 204 93 22 67
        E 323 93 24 57
        E 5 83 22 3b
        E 80 93 26 53
        E 19 83 24 47
        E 70 93 28 62
        E 4 83 26 50
        E 273 83 28 28
        E 186 93 24 62
        E 305 83 24 44
        E 1 93 26 53
        E 83 93 28 57
        E 18 83 26 3a
        E 69 83 28 51
        E 0 93 29 68
        E 290 83 29 3c
        E 191 93 23 66
        E 741 83 23 52
        E 194 93 34 62
        E 250 83 34 01
        E 48 93 32 5e
        E 59 83 32 34
        E 118 93 24 67
        E 382 83 24 3d
        E 586 93 18 6a
        E 529 83 18 55
        E 406 93 29 65
        E 307 83 29 01
        E 190 93 1d 60
        E 241 83 1d 10
        E 240 93 1d 5e
        E 215 83 1d 28
        E 265 93 1d 58
        E 252 83 1d 01
        E 215 93 1d 60
        E 251 83 1d 08
        E 228 93 1d 57
        E 260 83 1d 01
        E 208 93 1d 5a
        E 271 83 1d 01
        E 219 93 1d 5b
        E 295 83 1d 01
        E 197 93 1d 55
        E 298 83 1d 01
        E 195 93 1d 59
        E 221 83 1d 01
        E 236 93 1d 5b
        E 254 83 1d 01
        E 238 93 1d 58
        E 255 83 1d 04
        E 226 93 1d 55
        E 231 83 1d 1f
        E 256 93 1d 5c
        E 251 83 1d 0e
        E 220 93 1d 5c
        E 243 83 1d 1b
        E 233 93 1d 63
        E 279 83 1d 01
        E 199 93 1c 62
        E 234 83 1c 2e
        E 253 93 1c 61
        E 219 83 1c 20
        E 258 93 1c 61
        E 212 83 1c 25
        E 267 93 1c 5a
        E 230 83 1c 1c
        E 256 93 1c 62
        E 244 83 1c 20
        E 224 93 1c 61
        E 244 83 1c 18
        E 244 93 1c 62
        E 259 83 1c 01
        E 219 93 1c 5e
        E 229 83 1c 01
        E 258 93 1c 5b
        E 277 83 1c 01
        E 215 93 1c 60
        E 174 83 1c 3c
        E 305 93 1c 62
        E 208 83 1c 2a
        E 265 93 1c 61
        E 222 83 1c 1e
        E 258 93 1c 60
        E 271 83 1c 2a
        E 202 93 1c 61
        E 199 83 1c 3e
        E 286 93 1c 64
        E 251 83 1c 3b
        E 236 93 1c 63
        E 238 83 1c 23
        E 224 93 1d 60
        E 278 83 1d 07
        E 214 93 1d 60
        E 279 83 1d 01
        E 211 93 1d 5e
        E 483 83 1d 4e
        E 698 93 21 61
        E 60 83 21 47
        E 57 93 21 66
        E 61 83 21 4b
        E 75 93 25 6a
        E 91 83 25 38
        E 145 93 28 5d
        E 100 83 28 3d
        E 129 93 2d 63
        E 512 83 2d 4c
        E 927 93 26 65
        E 364 83 26 29
        E 137 93 1f 63
        E 533 83 1f 4f
        E 384 93 21 5e
        E 258 83 21 20
        E 243 93 21 5f
        E 274 83 21 1b
        E 209 93 21 62
        E 254 83 21 27
        E 223 93 21 62
        E 271 83 21 3c
        E 457 93 26 68
        E 129 83 26 29
        E 112 93 21 67
        E 144 83 21 42
        E 96 93 1d 60
        E 133 83 1d 1b
        E 110 93 1a 5c
        E 514 83 1a 4b
        E 685 93 1f 64
        E 53 83 1f 47
        E 61 93 1f 60
        E 99 83 1f 47
        E 25 93 23 67
        E 123 83 23 42
        E 89 93 26 62
        E 102 83 26 48
        E 132 93 2b 5c
        E 531 83 2b 54
        E 938 93 24 60
        E 315 83 24 2e
        E 180 93 1d 63
        E 516 83 1d 52
        E 421 93 1f 5e
        E 199 83 1f 2d
        E 290 93 1f 5d
        E 207 83 1f 25
        E 265 93 1f 5f
        E 221 83 1f 2e
        E 252 93 1f 60
        E 159 83 1f 40
        E 301 93 24 53
        E 314 83 24 10
        E 183 93 24 58
        E 511 83 24 49
        E 222 93 24 5f
        E 173 83 24 2d
        E 62 93 28 5f
        E 196 83 28 26
        E 41 93 2b 55
        E 162 83 2b 3a
        E 101 93 24 5c
        E 124 83 24 33
        E 120 93 24 52
        E 105 83 24 24
        E 115 93 24 58
        E 129 83 24 30
        E 106 93 24 55
        E 122 83 24 25
        E 105 93 24 59
        E 128 83 24 2b
        E 117 93 24 5f
        E 116 83 24 29
        E 106 93 24 61
        E 119 83 24 28
        E 122 93 24 60
        E 135 83 24 2e
        E 114 93 24 60
        E 749 83 24 3a
        E 1218 93 29 65
        E 227 83 29 0c
        E 99 93 24 58
        E 118 83 24 2d
        E 3 93 29 64
        E 218 83 29 27
        E 137 93 24 50
        E 131 93 29 5c
        E 5 83 24 38
        E 232 83 29 19
        E 119 93 24 52
        E 137 93 29 60
        E 1 83 24 3c
        E 208 83 29 36
        E 145 93 24 4f
        E 127 93 29 60
        E 18 83 24 38
        E 197 83 29 32
        E 135 93 24 51
        E 131 93 29 62
        E 9 83 24 37
        E 200 83 29 34
        E 140 93 24 52
        E 143 93 29 65
        E 10 83 24 2f
        E 197 83 29 1e
        E 133 93 24 52
        E 129 93 29 67
        E 5 83 24 43
        E 181 83 29 2b
        E 162 93 24 55
        E 133 93 29 66
        E 21 83 24 35
        E 189 83 29 28
        E 130 93 24 4e
        E 137 93 29 61
        E 24 83 24 30
        E 161 83 29 3c
        E 160 93 24 55
        E 137 93 29 68
        E 10 83 24 40
        E 161 83 29 35
        E 164 93 24 55
        E 137 93 29 63
        E 24 83 24 42
        E 173 83 29 38
        E 134 93 24 4c
        E 127 93 28 5a
        E 15 83 24 32
        E 177 83 28 39
        E 165 93 24 48
        E 144 93 28 59
        E 27 83 24 3e
        E 171 83 28 31
        E 154 93 24 43
        E 130 93 28 57
        E 23 83 24 39
        E 178 83 28 3c
        E 162 93 24 42
        E 137 93 28 58
        E 15 83 24 32
        E 151 83 28 3a
        E 162 93 24 44
        E 138 93 28 5e
        E 16 83 24 3b
        E 146 83 28 26
        E 155 93 24 3f
        E 139 93 28 56
        E 16 83 24 41
        E 164 83 28 2b
        E 161 93 24 49
        E 148 93 28 5b
        E 30 83 24 3b
        E 157 83 28 2e
        E 162 93 24 47
        E 127 93 28 56
        E 28 83 24 36
        E 173 83 28 2d
        E 151 93 24 4c
        E 152 93 28 59
        E 19 83 24 29
        E 141 83 28 18
        E 175 93 24 45
        E 150 93 28 5c
        E 21 83 24 36
        E 122 83 28 3c
        E 190 93 24 4d
        E 137 93 28 5a
        E 27 83 24 47
        E 132 83 28 35
        E 195 93 24 4d
        E 131 93 28 59
        E 41 83 24 39
        E 115 83 28 37
        E 197 93 24 4e
        E 139 93 28 60
        E 25 83 24 3d
        E 136 83 28 37
        E 177 93 24 4c
        E 137 93 28 5a
        E 20 83 24 39
        E 125 83 28 37
        E 196 93 24 53
        E 116 93 28 5e
        E 23 83 24 47
        E 156 83 28 35
        E 163 93 24 54
        E 139 93 28 60
        E 20 83 24 4a
        E 136 83 28 1e
        E 163 93 24 50
        E 151 93 29 65
        E 4 83 24 45
        E 139 83 29 2d
        E 190 93 24 4d
        E 163 83 24 49
        E 6 93 29 64
        E 159 83 29 32
        E 164 93 24 51
        E 157 83 24 41
        E 8 93 29 67
        E 382 83 29 40
        E 570 93 21 66
        E 214 83 21 28
        E 258 93 24 5e
        E 224 83 24 0e
        E 246 93 1d 61
        E 238 83 1d 18
        E 249 93 21 64
        E 241 83 21 4b
        E 246 93 22 68
        E 237 83 22 10
        E 247 93 29 68
        E 231 83 29 02
        E 239 93 26 64
        E 231 83 26 26
        E 238 93 22 69
        E 220 83 22 3b
        E 265 93 23 65
        E 264 83 23 01
        E 244 93 26 61
        E 195 83 26 21
        E 286 93 1f 67
        E 247 83 1f 27
        E 232 93 23 64
        E 261 83 23 01
        E 200 93 24 5c
        E 270 83 24 01
        E 219 93 2b 58
        E 248 83 2b 27
        E 219 93 28 5f
        E 248 83 28 21
        E 246 93 24 5f
        E 263 83 24 32
        E 212 93 25 67
        E 246 83 25 2a
        E 232 93 28 5e
        E 255 83 28 0c
        E 232 93 21 64
        E 265 83 21 01
        E 219 93 25 66
        E 267 83 25 42
        E 197 93 26 5e
        E 294 83 26 27
        E 205 93 29 67
        E 250 83 29 27
        E 223 93 22 65
        E 505 83 22 4b
        E 654 93 24 5f
        E 66 83 24 40
        E 56 93 24 5d
        E 56 83 24 4b
        E 50 93 24 61
        E 93 83 24 35
        E 161 93 24 5f
        E 91 83 24 34
        E 148 93 24 63
        E 562 83 24 15
        E 435 93 21 5c
        E 803 83 21 18
        E 125 93 22 53
        E 817 83 22 11
        E 144 93 24 5e
        E 226 83 24 44
        E 6 93 29 5f
        E 67 83 29 4a
        E 47 93 29 63
        E 69 83 29 42
        E 58 93 29 67
        E 109 83 29 45
        E 135 93 29 68
        E 106 83 29 3d
        E 139 93 24 54
        E 669 83 24 3a
        E 290 93 21 63
        E 403 83 21 45
        E 68 93 24 63
        E 426 83 24 38
        E 95 93 22 65
        E 419 83 22 32
        E 62 93 26 5f
        E 379 83 26 31
        E 103 93 24 61
        E 488 83 24 4d
        E 459 93 24 61
        E 655 83 24 2a
        E 271 93 29 64
        E 353 83 29 1a
        E 150 93 1d 5e
        E 301 83 1d 0c
        E 180 93 21 67
        E 336 83 21 01
        E 163 93 24 5d
        E 337 83 24 27
        E 152 93 29 64
        E 301 83 29 2c
        E 166 93 29 66
        E 365 83 29 1c
        E 111 93 24 60
        E 353 83 24 18
        E 152 93 21 67
        E 386 83 21 0d
        E 93 93 1d 64
        E 631 83 1d 4c
        E 290 93 29 66
        E 536 83 29 4e
        E 308 93 1d 63
        E 68 83 1d 40
        E 85 93 1d 6a
        E 1414 83 1d 59
        E 11 b0 7b 00
        GUID {673A48CC-CC82-A345-930D-876F5C0ECE61}
        IGNTEMPO 0 120 4 4
        SRCCOLOR 972
        VELLANE -1 86 6
      >
    >
  >
  <EXTENSIONS
    <BR_CURSOR_POS 00
      16.00000000000000
    >
    <BR_CURSOR_POS 04
      0.00000000000000
    >
    S&M_PROJACTION _3a2ec2dfd55e49d2bc32e050887a1b72
  >
>
