<REAPER_PROJECT 0.1 "4.77/OSX64" 1423875476
  RIPPLE 0
  GROUPOVERRIDE 0 0 0
  AUTOXFADE 0
  ENVATTACH 1
  MIXERUIFLAGS 11 52
  PEAKGAIN 1
  FEEDBACK 0
  PANLAW 1
  PROJOFFS 0 0
  MAXPROJLEN 0 600
  GRID 174206 8 1 8 1 0 0
  TIMEMODE 6 0 -1 24 2
  PANMODE 3
  CURSOR 0
  ZOOM 11.21566547846152 0 0
  VZOOMEX 10
  USE_REC_CFG 0
  RECMODE 1
  SMPTESYNC 0 23.976024 100 40 1000 300 0 0 1
  LOOP 1
  LOOPGRAN 0 4
  RECORD_PATH "" ""
  <RECORD_CFG
    ZXZhdxAA
  >
  <APPLYFX_CFG
  >
  RENDER_FILE ""
  RENDER_PATTERN ""
  RENDER_FMT 0 2 0
  RENDER_1X 0
  RENDER_RANGE 1 0 0
  RENDER_RESAMPLE 3 0 1
  RENDER_ADDTOPROJ 0
  RENDER_STEMS 0
  RENDER_DITHER 0
  TIMELOCKMODE 1
  TEMPOENVLOCKMODE 1
  ITEMMIX 1
  DEFPITCHMODE 589824
  TAKELANE 3
  SAMPLERATE 44100 0 0
  <RENDER_CFG
  >
  LOCK 1
  <METRONOME 6 2
    VOL 0.25 0.125
    FREQ 800 1600 1
    BEATLEN 4
    SAMPLES "" ""
  >
  GLOBAL_AUTO -1
  TEMPO 120 4 4
  PLAYRATE 1 0 0.25 4
  SELECTION 0 21.5
  SELECTION2 0 21.5
  MASTERAUTOMODE 0
  MASTERTRACKHEIGHT 0
  MASTERPEAKCOL 16576
  MASTERMUTESOLO 0
  MASTERTRACKVIEW 0 0.6667 0.5 0.5 -1 -1 -1
  MASTERHWOUT 0 0 1 0 0 0 0 -1
  MASTER_NCH 2 2
  MASTER_VOLUME 1 0 -1 -1 1
  MASTER_FX 1
  MASTER_SEL 0
  <MASTERPLAYSPEEDENV
    ACT 0
    VIS 0 1 1
    LANEHEIGHT 0 0
    ARM 0
    DEFSHAPE 0 -1 -1
  >
  <TEMPOENVEX
    ACT 0
    VIS 1 0 1
    LANEHEIGHT 0 0
    ARM 0
    DEFSHAPE 1 -1 -1
  >
  <PROJBAY
  >
  <TRACK {F23F8223-271A-294D-A229-F474D58B7A97}
    NAME "vst Gladiator"
    PEAKCOL 27222112
    BEAT -1
    AUTOMODE 0
    VOLPAN 1 0 -1 -1 1
    MUTESOLO 0 0 0
    IPHASE 0
    ISBUS 0 0
    BUSCOMP 2 0
    SHOWINMIX 1 0.6667 0.698113 1 0.5 -1 -1 -1
    FREEMODE 0
    SEL 0
    REC 0 0 0 0 0 0 0
    VU 2
    TRACKHEIGHT 0 0
    INQ 0 0 0 0.5 100 0 0 100
    NCHAN 2
    FX 1
    TRACKID {F23F8223-271A-294D-A229-F474D58B7A97}
    PERF 0
    MIDIOUT -1
    MAINSEND 1 0
    <FXCHAIN
      SHOW 0
      LASTSEL 0
      DOCKED 0
      BYPASS 0 0 0
      <VST "VSTi: Gladiator (Tone2.com)" Gladiator.vst 0 ""
        TEcyVO5e7f4AAAAAAgAAAAEAAAAAAAAAAgAAAAAAAABaBAAAAQAAAAAAEABDY25LAAAAYEZ4Q2sAAAABVDJHTAAAAAEAAAEHSW5pdAAAAAAAAAAAAAAAAAAAAAAAAAAA
        AAAAAD3MzM08zMzNPDQ5WD24UfQ9edsjP4AAADvEm6Y9vnbJP4AAADvEm6YAAAAAPqZmZj49cKQ/gAAAPsUeuT8AAAA/AAAAAAAAAD1987Y90OVgPLxqfz9FHrgAAAAA
        P4AAADw0OVg9kWhzPvXCjztEm6Y9uFHoPr1wpD49cKQ/gAAAPwAAAD8D1ws/AAAAAAAAAAAAAAA/AAAAPwAAAD8AAAA+2ZmaPwAAAAAAAAA75WBCPbhR6wAAAAA+TbXE
        O0Sbpj9LhR4AAAAAAAAAAD7rhSA+lHrhPWFHsD7PXCg/HrhSPj1wpj8AAAA/AAAAAAAAAAAAAAA/AAAAAAAAAAAAAAA/gAAAP4AAAAAAAAA/EeuFPwAAAD8AAAA/AAAA
        PwAAAAAAAAA/AAAAPwAAAD8AAAAAAAAAPwAAAD8AAAA/AAAAAAAAADqDEm8/UKPXAAAAAD+AAAAAAAAAOoMSbz8AAAAAAAAAAAAAAAAAAAA/AAAAAAAAAD+AAAAAAAAA
        P4AAAAAAAAA/AAAAPwAAAD8AAAA/AAAAPwAAAD8AAAA/AAAAPwAAAD8AAAA/AAAAPwAAAD8R64Y8o9cKOoMSbzxEm6YAAAAAAAAAAAAAAAA8vGp/AAAAAAAAAAAAAAAA
        AAAAAAAAAAAAAAAAAAAAAAAAAAAAAAAAAAAAAAAAAAAAAAAAAAAAAAAAAAAAAAAAAAAAADwTdLwAAAAAPDQ5WAAAAAA8E3S8AAAAADw0OVgAAAAAPBN0vAAAAAA8NDlY
        AAAAADwTdLwAAAAAPDQ5WAAAAAA8ZWBCPYcrAjxlYEI7AxJvPYk3TDsDEm88tDlYPItDljyTdLw9VP30PReNUDzMzM0+gAAAP3LCNT8AAAA/Uae5PzCNPj8csI0AAAAA
        OwMSbzqDEm8AAAAAAAAAAAAAAAA/AAAAOoMSbztEm6Y/gAAAAAAAAD+AAAAAAAAAP4AAAAAAAAAAAAAAAAAAAAAAAAA/gAAAAAAAAD8AAAAAAAAAPwAAAD8FHrg/AAAA
        P4AAAD8AAAA/AAAAPwAAAD+AAAA/gAAAAAAAAAAAAAAAAAAAPwAAAD+AAAA/AAAAAAAAAD69cKQAAAAAAAAAAD+AAAA/gAAAPyPXCj+AAAAAAAAAAAAAAD+AAAA/AAAA
        AAAAAAAAAAAAAAAAAAAAAAAAAAAAAAAAAAAAAAAAAAAAAAAAAAAAAAAAAAAAAAAAPwAAAD8AAAA/AAAAPwAAAD8AAAA/AAAAAAAAAAAAAAA/gAAAAAAAAAAAAAAAAAAA
        AAAAAAAAAAAAAAAAAAAAAAAAAAAAAAAAAAAAAAAAAAAAAAAAAAAAAAAAAAAAAAAAAAAAAAAAAAAAAAAAAAAAAAAAAAAAAAAAAAAAAAAAAAAAAAAAAAAAAAAAAAAAAAAA
        AACqq6ytAAAQAAAA
      >
      FLOATPOS 500 379 987 799
      FXID {532372E3-5B0D-9345-A9C8-98A8EBAF9A7E}
      WAK 0
    >
    <ITEM
      POSITION 0
      SNAPOFFS 0
      LENGTH 21.5
      LOOP 1
      ALLTAKES 0
      FADEIN 1 0 0 1 0 0
      FADEOUT 1 0 0 1 0 0
      MUTE 0
      SEL 1
      YPOS 0 0.462687
      IGUID {814A2418-EA7B-224D-9FBC-990D83FF5524}
      IID 1
      NAME "exten synt - National_Anthems_-_Slovakia.mid"
      VOLPAN 1 0 1 -1
      SOFFS 0 0
      PLAYRATE 1 1 0 -1 0 0.0025
      CHANMODE 0
      TAKECOLOR 26173599
      GUID {7170D640-12CD-1448-8E61-7C739808E60B}
      <SOURCE MIDI
        HASDATA 1 384 QN
        POOLEDEVTS {E8977581-663E-164A-A2C9-C1832FC1A1FF}
        <X 0 0
          /wNleHRlbiBzeW50
        >
        e 384 92 2a 4b 20
        e 0 92 31 4e 27
        e 0 92 36 53 22
        e 0 92 39 4e 19
        e 0 92 3d 53 16
        e 0 92 42 57 19
        e 167 92 42 00 19
        e 25 92 44 4a -37
        e 33 92 39 00 19
        e 3 92 31 00 27
        e 2 92 2a 00 20
        e 1 92 36 00 22
        e 15 92 3d 00 16
        e 138 92 45 52 -28
        e 37 92 44 00 -37
        e 292 92 45 00 -28
        e 55 92 2a 47 -38
        e 0 92 31 50 -34
        e 0 92 36 54 -37
        e 0 92 39 4c -40
        e 0 92 3d 50 -45
        e 0 92 45 58 -41
        e 328 92 36 00 -37
        e 0 92 39 00 -40
        e 3 92 31 00 -34
        e 5 92 2a 00 -38
        e 11 92 3d 00 -45
        e 10 92 45 00 -41
        e 27 92 45 58 -26
        e 160 92 45 00 -26
        e 32 92 45 54 -24
        e 192 92 2a 4a -20
        e 0 92 32 57 -22
        e 0 92 3b 58 -24
        e 0 92 44 52 -18
        e 25 92 45 00 -24
        e 167 92 45 52 -33
        e 9 92 44 00 -18
        e 84 92 32 00 -22
        e 0 92 3b 00 -24
        e 10 92 2a 00 -20
        e 89 92 47 53 -16
        e 24 92 45 00 -33
        e 168 92 45 53 -33
        e 17 92 47 00 -16
        e 175 92 2a 49 -7
        e 0 92 31 52 -8
        e 0 92 39 50 -9
        e 0 92 3d 50 -11
        e 0 92 44 4d -12
        e 46 92 45 00 -33
        e 338 92 42 50 -18
        e 17 92 44 00 -12
        e 112 92 39 00 -9
        e 10 92 31 00 -8
        e 2 92 2a 00 -7
        e 12 92 3d 00 -11
        e 120 92 42 00 -18
        e 111 92 2d 4a -15
        e 0 92 34 51 -11
        e 0 92 39 55 -16
        e 0 92 3d 52 -22
        e 0 92 45 5c -18
        e 192 92 47 51 -30
        e 13 92 45 00 -18
        e 106 92 2d 00 -15
        e 14 92 34 00 -11
        e 7 92 39 00 -16
        e 3 92 3d 00 -22
        e 49 92 49 53 -4
        e 42 92 47 00 -30
        e 279 92 49 00 -4
        e 63 92 2d 48 -18
        e 0 92 34 4f -11
        e 0 92 39 4d -16
        e 0 92 40 55 -19
        e 0 92 49 51 -18
        e 344 92 49 00 -18
        e 24 92 39 00 -16
        e 16 92 34 00 -11
        e 0 92 49 51 -25
        e 2 92 40 00 -19
        e 6 92 2d 00 -18
        e 149 92 49 00 -25
        e 35 92 49 51 -31
        e 192 92 26 4a -19
        e 0 92 32 4c -18
        e 0 92 3e 4d -20
        e 0 92 42 4e -20
        e 0 92 47 54 -18
        e 35 92 49 00 -31
        e 157 92 49 54 -34
        e 7 92 47 00 -18
        e 66 92 32 00 -18
        e 40 92 26 00 -19
        e 5 92 3e 00 -20
        e 4 92 42 00 -20
        e 70 92 23 50 -13
        e 0 92 2f 50 -12
        e 0 92 3e 4d -17
        e 0 92 42 4d -18
        e 0 92 4a 5b -20
        e 28 92 49 00 -34
        e 164 92 49 50 -30
        e 9 92 4a 00 -20
        e 72 92 23 00 -13
        e 32 92 2f 00 -12
        e 27 92 3e 00 -17
        e 8 92 42 00 -18
        e 44 92 28 42 -11
        e 0 92 34 42 -16
        e 0 92 3e 44 -30
        e 0 92 44 4a -30
        e 0 92 47 55 -17
        e 28 92 49 00 -30
        e 262 92 34 00 -16
        e 29 92 28 00 -11
        e 33 92 3e 00 -30
        e 15 92 44 00 -30
        e 13 92 47 00 -17
        e 4 92 21 59 -20
        e 0 92 2d 5a -23
        e 0 92 3d 55 -24
        e 0 92 45 4d -32
        e 192 92 21 00 -20
        e 30 92 2d 00 -23
        e 29 92 3d 00 -24
        e 56 92 45 00 -32
        e 77 92 2d 59 -24
        e 0 92 34 63 -21
        e 0 92 39 63 -22
        e 0 92 3d 5b -31
        e 0 92 40 5e -29
        e 0 92 49 6c -38
        e 163 92 49 00 -38
        e 29 92 49 66 -43
        e 27 92 2d 00 -24
        e 13 92 34 00 -21
        e 5 92 39 00 -22
        e 10 92 3d 00 -31
        e 12 92 40 00 -29
        e 107 92 49 00 -43
        e 18 92 2d 59 -39
        e 0 92 34 5d -33
        e 0 92 39 5e -36
        e 0 92 3d 58 -40
        e 0 92 40 5c -39
        e 0 92 49 5d -34
        e 217 92 2d 00 -39
        e 23 92 34 00 -33
        e 13 92 40 00 -39
        e 9 92 39 00 -36
        e 2 92 3d 00 -40
        e 120 92 2f 56 -13
        e 0 92 36 5d -14
        e 0 92 3b 5e -13
        e 0 92 3e 4d -15
        e 0 92 42 5e -19
        e 0 92 47 60 -10
        e 54 92 49 00 -34
        e 198 92 2f 00 -13
        e 16 92 36 00 -14
        e 1 92 3b 00 -13
        e 5 92 42 00 -19
        e 5 92 3e 00 -15
        e 74 92 47 00 -10
        e 31 92 2f 55 -2
        e 0 92 36 5d -1
        e 0 92 3b 5d
        e 0 92 3e 59 -7
        e 0 92 42 5a -7
        e 0 92 47 62 -9
        e 156 92 47 00 -9
        e 36 92 47 61 -16
        e 51 92 36 00 -1
        e 8 92 2f 00 -2
        e 9 92 3b 00
        e 0 92 3e 00 -7
        e 40 92 42 00 -7
        e 60 92 47 00 -16
        e 24 92 31 56 -4
        e 0 92 35 60 -5
        e 0 92 3b 5d -7
        e 0 92 3d 66 -8
        e 0 92 47 5e -7
        e 165 92 47 00 -7
        e 27 92 49 57 -25
        e 80 92 31 00 -4
        e 2 92 35 00 -5
        e 14 92 3b 00 -7
        e 24 92 3d 00 -8
        e 72 92 47 59 -15
        e 8 92 49 00 -25
        e 376 92 36 5d 6
        e 0 92 39 61 5
        e 0 92 3d 60 3
        e 0 92 45 5a 1
        e 13 92 47 00 -15
        e 233 92 39 00 5
        e 18 92 36 00 6
        e 60 92 3d 00 3
        e 7 92 45 00 1
        e 53 92 21 5b 1
        e 0 92 2d 59 -4
        e 0 92 3d 58 -6
        e 0 92 42 5c -3
        e 0 92 45 64 -3
        e 145 92 45 00 -3
        e 47 92 45 5b -16
        e 125 92 21 00 1
        e 26 92 2d 00 -4
        e 0 92 42 00 -3
        e 18 92 3d 00 -6
        e 0 92 45 00 -16
        e 23 92 23 63 3
        e 0 92 2f 65 2
        e 0 92 3e 5b -4
        e 0 92 42 59 -6
        e 0 92 44 5b -3
        e 192 92 45 62 -28
        e 10 92 44 00 -3
        e 182 92 47 5a -19
        e 31 92 45 00 -28
        e 161 92 45 5d -23
        e 18 92 47 00 -19
        e 78 92 2f 00 2
        e 37 92 23 00 3
        e 45 92 3e 00 -4
        e 14 92 25 54 -9
        e 0 92 31 5c -8
        e 0 92 3b 58 -15
        e 0 92 41 59 -16
        e 0 92 44 54 -11
        e 20 92 45 00 -23
        e 13 92 42 00 -6
        e 239 92 31 00 -8
        e 30 92 25 00 -9
        e 61 92 3b 00 -15
        e 16 92 44 00 -11
        e 5 92 1e 5c -17
        e 0 92 2a 5c -16
        e 0 92 39 5b -20
        e 0 92 42 55 -20
        e 21 92 41 00 -16
        e 182 92 1e 00 -17
        e 16 92 2a 00 -16
        e 3 92 39 00 -20
        e 81 92 42 00 -20
        e 81 92 2d 5a -21
        e 0 92 34 56 -17
        e 0 92 39 60 -21
        e 0 92 3d 61 -25
        e 0 92 40 64 -23
        e 0 92 49 74 -30
        e 157 92 49 00 -30
        e 35 92 49 66 -25
        e 52 92 2d 00 -21
        e 5 92 34 00 -17
        e 20 92 3d 00 -25
        e 1 92 39 00 -21
        e 0 92 40 00 -23
        e 90 92 49 00 -25
        e 24 92 2d 59 -28
        e 0 92 34 5d -26
        e 0 92 39 62 -28
        e 0 92 3d 5f -33
        e 0 92 40 66 -32
        e 0 92 49 6c -23
        e 245 92 2d 00 -28
        e 13 92 34 00 -26
        e 29 92 39 00 -28
        e 8 92 40 00 -32
        e 19 92 3d 00 -33
        e 70 92 2f 5c -18
        e 0 92 36 61 -21
        e 0 92 3b 60 -18
        e 0 92 3e 61 -27
        e 0 92 42 65 -26
        e 0 92 47 65 -20
        e 29 92 49 00 -23
        e 214 92 2f 00 -18
        e 7 92 36 00 -21
        e 0 92 3b 00 -18
        e 13 92 42 00 -26
        e 2 92 3e 00 -27
        e 79 92 47 00 -20
        e 40 92 2f 60 -11
        e 0 92 36 64 -12
        e 0 92 3b 66 -10
        e 0 92 3e 63 -16
        e 0 92 42 67 -16
        e 0 92 47 6b -27
        e 147 92 47 00 -27
        e 45 92 47 64 -36
        e 23 92 36 00 -12
        e 9 92 3e 00 -16
        e 5 92 2f 00 -11
        e 4 92 3b 00 -10
        e 23 92 42 00 -16
        e 103 92 47 00 -36
        e 25 92 31 59 -15
        e 0 92 35 64 -16
        e 0 92 3b 60 -18
        e 0 92 3d 66 -23
        e 0 92 47 67 -30
        e 192 92 49 61 -38
        e 4 92 47 00 -30
        e 113 92 35 00 -16
        e 2 92 3b 00 -18
        e 3 92 31 00 -15
        e 23 92 3d 00 -23
        e 47 92 47 66 -27
        e 33 92 49 00 -38
        e 351 92 36 66 -2
        e 0 92 39 65 -2
        e 0 92 3d 68 -9
        e 0 92 45 6a -9
        e 39 92 47 00 -27
        e 206 92 39 00 -2
        e 22 92 36 00 -2
        e 32 92 3d 00 -9
        e 14 92 45 00 -9
        e 71 92 21 67 -19
        e 0 92 2d 69 -24
        e 0 92 3d 69 -28
        e 0 92 42 6e -26
        e 0 92 45 6b -28
        e 157 92 45 00 -28
        e 35 92 45 6a -23
        e 112 92 21 00 -19
        e 35 92 2d 00 -24
        e 2 92 42 00 -26
        e 9 92 3d 00 -28
        e 34 92 23 6b -11
        e 0 92 2f 6d -16
        e 0 92 3e 62 -19
        e 0 92 42 66 -21
        e 0 92 44 69 -23
        e 24 92 45 00 -23
        e 168 92 45 6b -36
        e 19 92 44 00 -23
        e 173 92 47 65 -16
        e 14 92 45 00 -36
        e 178 92 45 62 -12
        e 38 92 47 00 -16
        e 73 92 2f 00 -16
        e 32 92 23 00 -11
        e 49 92 25 5c 41
        e 0 92 31 63 38
        e 0 92 3b 66 36
        e 0 92 41 62 38
        e 0 92 44 5d 35
        e 23 92 3e 00 -19
        e 36 92 42 00 -21
        e 23 92 45 00 -12
        e 518 92 25 00 41
        e 0 92 31 00 38
        e 0 92 3b 00 36
        e 0 92 41 00 38
        e 0 92 44 00 35
        e 72 92 1e 5a -43
        e 0 92 2a 5b -45
        e 0 92 39 55 -48
        e 0 92 42 64 -46
        e 628 92 2a 00 -45
        e 1 92 39 00 -48
        e 4 92 1e 00 -43
        e 27 92 42 00 -46
        E 204 b0 7b 00
        GUID {0B17930A-D4FF-8A4D-92B0-BC4F8A05A8EA}
        IGNTEMPO 0 120 4 4
        SRCCOLOR 247
        VELLANE -1 86 6
        CFGEDITVIEW -825.6 18.139535 52 4 0 0 0 0 0
        KEYSNAP 0 3 102304056070 0 "Natural minor"
        TRACKSEL 252 0 0 ""
        EVTFILTER 0 -1 -1 -1 -1 0 0 0 0 -1 -1 -1 -1 0 -1 0 -1 -1
        CFGEDIT 1 0 0 0 0 0 1 0 1 1 1 0.25 429 164 1280 633 0 0 2 3 0 0 0 0 0 -1 0 0 1 64
      >
      TAKE
      NAME "exten synt - National_Anthems_-_Slovakia.mid"
      TAKEVOLPAN 0 1 -1
      SOFFS 0 0
      PLAYRATE 1 1 0 -1 0 0.0025
      CHANMODE 0
      GUID {49947157-CFA0-EF41-B912-F04234F7F98E}
      <SOURCE MIDI
        HASDATA 1 384 QN
        POOLEDEVTS {13EF67CF-3BD2-364D-AE4C-86555274DF0E}
        <X 0 0
          /wNleHRlbiBzeW50
        >
        E 400 92 3d 53
        E 3 92 39 4e
        E 0 92 42 57
        E 1 92 2a 4b
        E 2 92 36 53
        E 5 92 31 4e
        E 128 92 44 4a
        E 31 92 42 00
        E 58 92 39 00
        E 6 92 2a 00
        E 3 92 36 00
        E 2 92 31 00
        E 7 92 3d 00
        E 94 92 45 52
        E 28 92 44 00
        E 301 92 45 00
        E 38 92 3d 50
        E 4 92 45 58
        E 1 92 39 4c
        E 2 92 2a 47
        E 1 92 36 54
        E 3 92 31 50
        E 322 92 39 00
        E 3 92 36 00
        E 6 92 31 00
        E 1 92 2a 00
        E 4 92 3d 00
        E 14 92 45 00
        E 42 92 45 58
        E 160 92 45 00
        E 34 92 45 54
        E 192 92 3b 58
        E 2 92 32 57
        E 2 92 2a 4a
        E 2 92 44 52
        E 19 92 45 00
        E 158 92 45 52
        E 24 92 44 00
        E 78 92 3b 00
        E 2 92 32 00
        E 12 92 2a 00
        E 93 92 47 53
        E 7 92 45 00
        E 168 92 45 53
        E 34 92 47 00
        E 179 92 44 4d
        E 1 92 3d 50
        E 2 92 39 50
        E 1 92 31 52
        E 1 92 2a 49
        E 20 92 45 00
        E 353 92 42 50
        E 23 92 44 00
        E 115 92 39 00
        E 11 92 31 00
        E 3 92 2a 00
        E 8 92 3d 00
        E 113 92 42 00
        E 107 92 3d 52
        E 4 92 45 5c
        E 2 92 39 55
        E 1 92 2d 4a
        E 4 92 34 51
        E 173 92 47 51
        E 25 92 45 00
        E 109 92 2d 00
        E 17 92 3d 00
        E 1 92 34 00
        E 2 92 39 00
        E 64 92 49 53
        E 16 92 47 00
        E 305 92 49 00
        E 48 92 40 55
        E 1 92 2d 48
        E 0 92 49 51
        E 2 92 39 4d
        E 5 92 34 4f
        E 337 92 49 00
        E 26 92 39 00
        E 7 92 49 51
        E 8 92 40 00
        E 6 92 34 00
        E 1 92 2d 00
        E 142 92 49 00
        E 29 92 49 51
        E 203 92 3e 4d
        E 0 92 42 4e
        E 1 92 26 4a
        E 1 92 32 4c
        E 0 92 47 54
        E 22 92 49 00
        E 154 92 49 54
        E 23 92 47 00
        E 66 92 32 00
        E 39 92 26 00
        E 4 92 3e 00
        E 4 92 42 00
        E 70 92 4a 5b
        E 2 92 42 4d
        E 1 92 3e 4d
        E 4 92 23 50
        E 1 92 2f 50
        E 6 92 49 00
        E 168 92 49 50
        E 19 92 4a 00
        E 79 92 23 00
        E 33 92 2f 00
        E 22 92 3e 00
        E 7 92 42 00
        E 32 92 3e 44
        E 0 92 44 4a
        E 13 92 47 55
        E 1 92 34 42
        E 5 92 28 42
        E 9 92 49 00
        E 276 92 34 00
        E 34 92 28 00
        E 14 92 3e 00
        E 15 92 44 00
        E 15 92 45 4d
        E 8 92 3d 55
        E 1 92 2d 5a
        E 2 92 47 00
        E 1 92 21 59
        E 192 92 21 00
        E 27 92 2d 00
        E 28 92 3d 00
        E 48 92 45 00
        E 71 92 49 6c
        E 7 92 3d 5b
        E 2 92 40 5e
        E 5 92 2d 59
        E 2 92 39 63
        E 1 92 34 63
        E 146 92 49 00
        E 24 92 49 66
        E 46 92 2d 00
        E 16 92 34 00
        E 4 92 39 00
        E 1 92 3d 00
        E 14 92 40 00
        E 93 92 49 00
        E 21 92 3d 58
        E 1 92 2d 59
        E 0 92 40 5c
        E 3 92 39 5e
        E 2 92 49 5d
        E 1 92 34 5d
        E 211 92 2d 00
        E 29 92 34 00
        E 7 92 40 00
        E 10 92 3d 00
        E 2 92 39 00
        E 139 92 42 5e
        E 4 92 3e 4d
        E 1 92 36 5d
        E 1 92 2f 56
        E 0 92 3b 5e
        E 3 92 47 60
        E 30 92 49 00
        E 219 92 2f 00
        E 15 92 36 00
        E 1 92 42 00
        E 1 92 3b 00
        E 8 92 3e 00
        E 79 92 47 00
        E 32 92 47 62
        E 2 92 3e 59
        E 0 92 42 5a
        E 5 92 2f 55
        E 1 92 36 5d
        E 1 92 3b 5d
        E 147 92 47 00
        E 29 92 47 61
        E 66 92 36 00
        E 7 92 2f 00
        E 4 92 3e 00
        E 7 92 3b 00
        E 33 92 42 00
        E 51 92 47 00
        E 32 92 3d 66
        E 1 92 3b 5d
        E 0 92 47 5e
        E 2 92 35 60
        E 1 92 31 56
        E 162 92 47 00
        E 9 92 49 57
        E 101 92 31 00
        E 1 92 35 00
        E 12 92 3b 00
        E 23 92 3d 00
        E 63 92 49 00
        E 2 92 47 59
        E 397 92 47 00
        E 3 92 45 5a
        E 2 92 3d 60
        E 2 92 39 61
        E 1 92 36 5d
        E 245 92 39 00
        E 19 92 36 00
        E 57 92 3d 00
        E 5 92 45 00
        E 46 92 3d 58
        E 2 92 2d 59
        E 1 92 42 5c
        E 0 92 45 64
        E 4 92 21 5b
        E 141 92 45 00
        E 34 92 45 5b
        E 142 92 21 00
        E 21 92 2d 00
        E 1 92 42 00
        E 5 92 45 00
        E 10 92 3d 00
        E 23 92 42 59
        E 2 92 3e 5b
        E 1 92 44 5b
        E 5 92 2f 65
        E 1 92 23 63
        E 161 92 45 62
        E 35 92 44 00
        E 166 92 47 5a
        E 22 92 45 00
        E 166 92 45 5d
        E 22 92 47 00
        E 99 92 2f 00
        E 38 92 23 00
        E 38 92 3e 00
        E 2 92 41 59
        E 1 92 3b 58
        E 4 92 44 54
        E 2 92 25 54
        E 1 92 31 5c
        E 5 92 45 00
        E 30 92 42 00
        E 237 92 31 00
        E 29 92 25 00
        E 55 92 3b 00
        E 16 92 39 5b
        E 0 92 42 55
        E 3 92 1e 5c
        E 1 92 2a 5c
        E 0 92 44 00
        E 21 92 41 00
        E 181 92 1e 00
        E 16 92 39 00
        E 1 92 2a 00
        E 80 92 42 00
        E 71 92 49 74
        E 5 92 3d 61
        E 2 92 40 64
        E 2 92 2d 5a
        E 0 92 39 60
        E 4 92 34 56
        E 144 92 49 00
        E 40 92 49 66
        E 56 92 2d 00
        E 9 92 34 00
        E 12 92 3d 00
        E 3 92 40 00
        E 2 92 39 00
        E 86 92 49 00
        E 16 92 3d 5f
        E 1 92 40 66
        E 4 92 2d 59
        E 0 92 39 62
        E 2 92 34 5d
        E 3 92 49 6c
        E 240 92 2d 00
        E 15 92 34 00
        E 27 92 39 00
        E 4 92 40 00
        E 18 92 3d 00
        E 76 92 3e 61
        E 1 92 42 65
        E 5 92 36 61
        E 1 92 47 65
        E 2 92 2f 5c
        E 0 92 3b 60
        E 24 92 49 00
        E 219 92 2f 00
        E 4 92 36 00
        E 3 92 3b 00
        E 5 92 42 00
        E 1 92 3e 00
        E 86 92 47 00
        E 33 92 47 6b
        E 11 92 3e 63
        E 0 92 42 67
        E 4 92 36 64
        E 1 92 2f 60
        E 1 92 3b 66
        E 130 92 47 00
        E 36 92 47 64
        E 47 92 36 00
        E 5 92 3e 00
        E 10 92 2f 00
        E 5 92 3b 00
        E 17 92 42 00
        E 83 92 47 00
        E 31 92 47 67
        E 7 92 3d 66
        E 5 92 3b 60
        E 2 92 35 64
        E 1 92 31 59
        E 169 92 49 61
        E 12 92 47 00
        E 127 92 35 00
        E 0 92 3b 00
        E 6 92 31 00
        E 15 92 3d 00
        E 43 92 47 66
        E 22 92 49 00
        E 380 92 3d 68
        E 0 92 45 6a
        E 7 92 36 66
        E 0 92 39 65
        E 14 92 47 00
        E 231 92 39 00
        E 22 92 36 00
        E 25 92 3d 00
        E 14 92 45 00
        E 52 92 3d 69
        E 0 92 45 6b
        E 2 92 42 6e
        E 2 92 2d 69
        E 5 92 21 67
        E 148 92 45 00
        E 40 92 45 6a
        E 116 92 21 00
        E 30 92 2d 00
        E 0 92 42 00
        E 7 92 3d 00
        E 39 92 44 69
        E 2 92 42 66
        E 2 92 3e 62
        E 3 92 2f 6d
        E 5 92 23 6b
        E 12 92 45 00
        E 155 92 45 6b
        E 32 92 44 00
        E 174 92 45 00
        E 6 92 47 65
        E 196 92 45 62
        E 34 92 47 00
        E 73 92 2f 00
        E 37 92 23 00
        E 64 92 3e 00
        E 31 92 44 5d
        E 1 92 3b 66
        E 2 92 31 63
        E 0 92 41 62
        E 0 92 42 00
        E 3 92 25 5c
        E 29 92 45 00
        E 554 92 39 55
        E 2 92 42 64
        E 1 92 2a 5b
        E 2 92 1e 5a
        E 6 92 44 00
        E 1 92 3b 00
        E 2 92 41 00
        E 0 92 31 00
        E 3 92 25 00
        E 612 92 39 00
        E 2 92 2a 00
        E 7 92 1e 00
        E 24 92 42 00
        E 250 b0 7b 00
        GUID {B5616C0B-A22E-404F-8024-FEB159176D4F}
        IGNTEMPO 0 120 4 4
        SRCCOLOR 279
        VELLANE -1 86 6
        CFGEDITVIEW 0 0 52 4 0 0 0 0 0
        KEYSNAP 0 3 102304056070 0 "Natural minor"
        TRACKSEL 252 0 0 ""
        EVTFILTER 0 -1 -1 -1 -1 0 0 0 0 -1 -1 -1 -1 0 -1 0 -1 -1
        CFGEDIT 1 0 0 0 0 0 1 0 1 1 1 0.25 429 164 1280 633 0 0 2 3 0 0 0 0 0 -1 0 0 1 64
      >
    >
  >
  <TRACK {A26B8C2D-9EE6-0440-AA6B-121F89FB50DD}
    NAME "16th pulse (mix w/ send?)"
    PEAKCOL 16576
    BEAT -1
    AUTOMODE 0
    VOLPAN 1 0 -1 -1 1
    MUTESOLO 0 0 0
    IPHASE 0
    ISBUS 0 0
    BUSCOMP 0 0
    SHOWINMIX 1 0.6667 0.698113 1 0.5 -1 -1 -1
    FREEMODE 0
    SEL 0
    REC 0 0 0 0 0 0 0
    VU 2
    TRACKHEIGHT 0 0
    INQ 0 0 0 0.5 100 0 0 100
    NCHAN 4
    FX 1
    TRACKID {A26B8C2D-9EE6-0440-AA6B-121F89FB50DD}
    PERF 0
    MIDIOUT -1
    MAINSEND 0 0
    <FXCHAIN
      WNDRECT 36 359 724 387
      SHOW 0
      LASTSEL 0
      DOCKED 0
      BYPASS 0 0 0
      <VST "VSTi: chipsounds (Plogue Art et Technologie, Inc)" chipsounds.vst 0 ""
        T0dMUO5e7f4AAAAABAAAAAEAAAAAAAAAAgAAAAAAAAAEAAAAAAAAAAgAAAAAAAAAJAMAAAEAAAAAABAAQ0VHUNMTAAB4nO1YXW+bMBR976+weNoeSmzzLSWp2qSZIi1r
        NLLnyiFuimYgA5O1+/UzJjTQpOB23aSp9Uvs6+N7fe4Fc+L+2V3EwJamWZjEAw3pUANnw5P+eRoSn2xpbcqGWBueANH6PuU8jNcZ+JETFvJ7MauBNUuWhM0TJoYG1kDG
        U0oiASuHEbnzpeWcsSSYXQw0CwnzbDqeXuV8lqyo9EJynkSEi5A+S/hAE/vJAjFjWVbRI4wIGwKngBax9SxgO/OIxpymA82G1VYWeSyjQx3KpoFetX/hGoQr6T0mES1c
        6mCepxSMbsNNz5+Oe7blIvDhy8IffdTAksTfpwKPIPQ0ENySOKZsoJ2KDW8kYVMD/CDcZnmdknhNC+CDkQtTtkkyKqNHOS95Zz+vGckEYWeXZLnRGQnjaqNbwnIqS9Rk
        0wSiB+AB7SYQqwINVaCpCrRUgbYq0FEFuqpATxWIoDJSuTZIuThIuTpIuTyoqz5zkpJI6SHaI7ui75H1WrqW1YJspN702qBOPffIaI1vNqCtXusPKHJboc0nrw3q1r0a
        rblyPWWoV08W8tqgyNzXFeHj9VqQdE357vQMkkifs2SdU734cOifJ1d6ntEU1s4yuWqUZ+J4HxNOAL/fiJUYG3Zx+oW/xMAsclR9b0Q8Gq9CUnZXYonoVG1S/mD4uq1J
        sVdyfC5p9JZIfxXbpan47vk0KyjoGaebt1L2RRqu1zT1hRShcUDTTtrIwciraFtOjTY+RhvtWO9aOXZk3xg5E69BYgSNyV9MRL9XiKbH+gm9ln7Ce/2EXiCgYE1A2e8C
        6l1A/S8CqskI2bajIrU8aMk/T91SCzumDe1uqXX8pXhCalmtUKernk+oMsts1U+NOrVrvXoCDKd1A/VKWe2ysOtdepGAU5FadQ23zy3urBjEHeV913BvXcP9mYJBED1X
        wsijwxFZmFweSpgyNY5x0TBMhLApsO4BVFjHxzxA3PTwL6XR5c0NDfjhBdN5tAyLFD/WQtWV1Kdv02oBCXi4pdPy/gtV48v9fRhlIgRdLchSzgsX/V51YTc8+Q1oUsX9
        AAAQAAAA
      >
      FLOATPOS 409 269 871 509
      FXID {DC79668B-30D1-964C-A162-F245DBE294B0}
      WAK 0
      BYPASS 1 0 0
      <JS Delay/time_adjustment ""
        -10.000000 0.000000 -120.000000 0.000000 - - - - - - - - - - - - - - - - - - - - - - - - - - - - - - - - - - - - - - - - - - - - - - - - - - - - - - - - - - - - 
      >
      FLOATPOS 1254 834 554 157
      FXID {40721658-5454-1743-9C6A-517A806DB8F9}
      WAK 0
    >
  >
  <TRACK {D84D9A18-9EB2-B147-888B-8DACBA3BBEF6}
    NAME "Bass Return (global)"
    PEAKCOL 0
    BEAT -1
    AUTOMODE 0
    VOLPAN 1 0 -1 -1 1
    MUTESOLO 0 0 0
    IPHASE 0
    ISBUS 0 0
    BUSCOMP 0 0
    SHOWINMIX 1 0.6667 0.698113 1 0.5 -1 -1 -1
    FREEMODE 0
    SEL 0
    REC 0 0 0 0 0 0 0
    VU 2
    TRACKHEIGHT 0 0
    INQ 0 0 0 0.5 100 0 0 100
    NCHAN 2
    FX 1
    TRACKID {D84D9A18-9EB2-B147-888B-8DACBA3BBEF6}
    PERF 0
    AUXRECV 0 0 1 0 1 0 0 0 0 -1 0 -1 ''
    AUXRECV 4 0 1 0 0 0 0 4 0 -1 0 -1 ''
    MIDIOUT -1
    MAINSEND 1 0
    <FXCHAIN
      SHOW 0
      LASTSEL 0
      DOCKED 0
      BYPASS 0 0 0
      <VST "VST: 8-Bit Shaper (Xfer Records)" 8BitShaper.vst 0 ""
        clN1RO5e7f4CAAAAAQAAAAAAAAACAAAAAAAAAAIAAAABAAAAAAAAAAIAAAAAAAAANAIAAAEAAAAAABAAZmaGP20MlT7dQQw/AAAAPyYAACwAAIA/QAAAAAAAAcQXAAAA
        MAAAABkAAAAaAAAAGgAAABoAAAAbAAAAGwAAABwAAAAcAAAAHAAAAB0AAAAdAAAAHgAAAB4AAAAfAAAAHwAAACAAAAAgAAAAIAAAACEAAAAhAAAAIQAAACIAAAAiAAAA
        IgAAACMAAAAjAAAAIwAAACQAAAAkAAAAJAAAACUAAAAlAAAAKAAAACgAAAApAAAAKQAAACoAAAA1AAAAKgAAACoAAAA2AAAAKgAAACoAAAAqAAAAKgAAACoAAAAqAAAA
        KgAAACsAAAArAAAAOQAAAC0AAAA0AAAAOgAAAC0AAAAtAAAAPAAAAC4AAAAuAAAALwAAADAAAAAwAAAAMQAAADEAAAAxAAAAMgAAADMAAAAzAAAAMwAAADcAAAA3AAAA
        NwAAADgAAAA4AAAAOAAAADkAAAA5AAAAOQAAADoAAAA6AAAAOgAAADoAAAA6AAAAOwAAADsAAAA7AAAAPAAAADsAAAA7AAAAOwAAADwAAAA8AAAAPAAAADwAAAA9AAAA
        PQAAAD0AAAA9AAAAPQAAAD4AAAA+AAAAPwAAAEkAAABAAAAAQAAAAEgAAABAAAAAQQAAAEIAAABCAAAAQgAAAEMAAABDAAAAQwAAAEQAAABEAAAARQAAAE0AAABGAAAA
        RwAAAEYAAABHAAAASAAAAEgAAABJAAAATwAAAAAAgD+rqqo+q6qqPh0Fwz6OAm0/AEluaXQgMQAQAAAA
      >
      FLOATPOS 32 39 278 389
      FXID {19A94086-1737-784E-A733-2897FDD09534}
      WAK 0
    >
  >
  <TRACK {2E103EAF-0FA2-9942-87A1-30E1663A9F4B}
    NAME "--- 0 --- 0 --- 0 "
    PEAKCOL 16576
    BEAT -1
    AUTOMODE 0
    VOLPAN 1 0 -1 -1 1
    MUTESOLO 0 0 0
    IPHASE 0
    ISBUS 0 0
    BUSCOMP 0 0
    SHOWINMIX 1 0.6667 0.565574 0 0.5 -1 -1 -1
    FREEMODE 0
    SEL 0
    REC 0 0 0 0 0 0 0
    VU 2
    TRACKHEIGHT 0 0
    INQ 0 0 0 0.5 100 0 0 100
    NCHAN 2
    FX 1
    TRACKID {2E103EAF-0FA2-9942-87A1-30E1663A9F4B}
    PERF 0
    LAYOUTS "" Separator
    MIDIOUT -1
    MAINSEND 1 0
  >
  <TRACK {D4259754-8A5D-ED42-9EF0-7FA3B62785A4}
    NAME "vst Plogue"
    PEAKCOL 26779488
    BEAT -1
    AUTOMODE 0
    VOLPAN 1 0 -1 -1 1
    MUTESOLO 0 0 0
    IPHASE 0
    ISBUS 0 0
    BUSCOMP 0 0
    SHOWINMIX 1 0.6667 0.698113 1 0.5 -1 -1 -1
    FREEMODE 0
    SEL 0
    REC 0 0 0 1 0 0 0
    VU 2
    TRACKHEIGHT 0 0
    INQ 0 0 0 0.5 100 0 0 100
    NCHAN 8
    FX 1
    TRACKID {D4259754-8A5D-ED42-9EF0-7FA3B62785A4}
    PERF 0
    AUXRECV 1 0 1 0 0 0 0 0 4 -1 0 -1 ''
    AUXRECV 6 0 1 0 0 0 0 0 0 -1 32 -1 ''
    AUXRECV 6 0 1 0 0 0 0 0 0 -1 96 -1 ''
    AUXRECV 7 0 1 0 0 0 0 0 0 -1 64 -1 ''
    AUXRECV 7 0 1 0 0 0 0 0 0 -1 128 -1 ''
    AUXRECV 8 0 1 0 0 0 0 0 0 -1 160 -1 ''
    MIDIOUT -1
    MAINSEND 0 0
    <FXCHAIN
      SHOW 0
      LASTSEL 0
      DOCKED 0
      BYPASS 0 0 0
      <VST "VSTi: chipsounds (Multi) (Plogue Art et Technologie, Inc) (32 out)" "chipsounds Multi.vst" 0 ""
        T0dNUO5e7f4AAAAAIAAAAAEAAAAAAAAAAgAAAAAAAAAEAAAAAAAAAAgAAAAAAAAAEAAAAAAAAAAgAAAAAAAAAEAAAAAAAAAAgAAAAAAAAAAAAQAAAAAAAAACAAAAAAAA
        AAQAAAAAAAAACAAAAAAAAAAQAAAAAAAAACAAAAAAAAAAQAAAAAAAAACAAAAAAAAAAAABAAAAAAAAAAIAAAAAAAAABAAAAAAAAAAIAAAAAAAAABAAAAAAAAAAIAAAAAAA
        AABAAAAAAAAAAIAAAAAAAAAAAAEAAAAAAAAAAgAAAAAAAAAEAAAAAAAAAAgAAAAAAAAAEAAAAAAAAAAgAAAAAAAAAEAAAAAAAAAAgAAAAADqBQAAAQAAAAAAEABDRUdQ
        3D4AAHic7ZtBc6M2FMfv+RQMp/awRhIIzIyTHduJu5lpupnaOz1mFFvr0GJwkcgm/fQVYGxkYyHWyXa3gUNi5D9PenpC/KRnBu+fVqHxSBMWxNG5CXvANN5fnA2GSUCm
        5JFWvnIBMi/ODHEMppTzIFoy4++UhAF/Ft+axjKM70l4G4fi1EamwXhCyUrIitMVeZrmJcMwjOc3o3MTQ1F8c315/THlN/GC5lZIyuMV4aLKaRjzc1O0h80zLc4+kJCI
        Imi8M2hWdY/Nw03xmEacJuemC8qWzNIorxz0QH6YhlU2X1g2gkVuPCIrmpnsGbdpQo3xQ7C2pteXlov70Pjpt9l0/LNp3JPor2uhhwD4pjF/IFFEw/zyde4udE2DH1S3
        vr9LSLQU5t/BbSEXRWwdM5pfvkp58YF9uQsJE/46mz7OG3pDgqhs6CMJU5pHSPZGFsKt8MBtWYh0hbau0NEVYl2hqyv0dIV9XaGvK4RAW6kdG6gdHKgdHagdHtgUn1uS
        kJXWINopm2rfKaux7GOsUEpd7/gqqVfte2gr63ckqdJqdYDCvlIqjzyVtF+1aiv7qu9rS/1qZ0FfJYXOLq4Q1cdrRpIl5ZvZcx6verdhvExpL3tu9H6dfOyljCagMpfl
        V41TJmb3S8KJwZ/X4kqEbFeEhgX/iBMn66PycSPqo9EiIMXHhbhEfCiPSfEPgZc9ZBetwse2TsM34vQsCZZLmkzFg5hGc5o0ug09BP3SbexV3EZ1bsO9dubn3iQ77LE3
        8aUvx8Ce/FcdkUf/d+EATQQATCnLnOoxTtf/o/E/sDJo2ucneBo/wTp+6nf81PHTG+En2SPoup4OafkA50unZtJCnuMC94VJCytdkkgLO0omqjbV9pRWm4byV+GTDuhU
        CWrXC6gpsGJybphyOoLqCOoUgoIAtkWo/M71RC9Mrg4Rqugazx5JBRMBVpm2fyAVpZd1FgCSLbwymtWDCToNTJwtmOy4xDmNS0ADlzQ9VNpzSQPpdFyi7vCOS9pyiY1t
        3LePKaseQeUGSNUjT0kQkkdQ5ZHXcFsc21VSbupU+r7RqrRVlGEJPCpt0dbqcHaUCOc1jedahGtqgCdF1VFKq2F11W2txtVWjhUJDDFSSaUdMB8p+/WrwdBu1DZN0FWt
        /q6pD9wWdvVHmA/8FndOC+cglLyzlaETMahOSblWJW7qt469O/Y+ib2Rrcnek80B8uVtwd4AodHowJNDIr/M2RuAWvaupXc8lu2OCvb2PGklMClKx97++gAcltZrJ0eY
        vjWn26dxOio53flm+VdtTm/A727/UCnsOP0Hy782GO3yr9XO6vKvtUdHMN9f/nULMF3+9fvLvzqn4ZNdg0+4w6cOn94IPv2A6dfGDbku/dqlXzeN7QBK6fS3Sr9uCert
        pF+9LZegnlH0o/EHeaSf42TFrA8kWRjT52h+FEzwi/2w/oVo5OV/DNbANx2NvG0aUaanJI+Uv3uXukmwCPL9o9Kq91id95TQRZ1JkwaJEjKkZKZ6jwjpAxHST0m9UopU
        iparJDJpALpKq1i/AXLq2fbto5gL7WpjXSU+vh69VXOkTT83fL0cab+FVj9H6kP9wIle1R+RQtz0cDmaIrXVqw8Emp4dHUx3MH0KTCOMW8J08XwotiPByJvo5FPLo8xl
        umIhj/EQyxnOSunIw4d221lwazK9LS3AUy1g71QLzuWJFupLERrW5qvBfmZadwFy9fkznfPD13uHq/sgG5b7C46N1cEvn67LC8icB4/0unj5GJbnV7uXkWkoqqCLGbnP
        Rmp1xkwoo/yGRqkRsPJynjdVfasYnD4JyUz8TRO6MD4EnIlFDuEP56Y1XK/DYJ6/EM2swoJYJwVrFqfRQpTklTJLYd/aLMCGyZoul0HMLKmmHhHz1Xpv8j9wBbVyZUX+
        9PjD1odPYiJkFhOhiJYhyTbqrbt5Qgmn1pSs1iFl1lX5jTEJsvOigvHO0bIOll2C+cN+uweWCOLF2cAq31y/OPsXbcMCGAAAEAAAAA==
      >
      FLOATPOS 129 268 871 509
      FXID {C804D762-B992-A540-81BF-3D6C0F7FF19B}
      WAK 0
    >
  >
  <TRACK {33AD5A6D-2EE0-8449-9F1A-2F36FB5D6DDB}
    NAME "midi "
    PEAKCOL 16576
    BEAT -1
    AUTOMODE 0
    VOLPAN 1 0 -1 -1 1
    MUTESOLO 0 0 0
    IPHASE 0
    ISBUS 1 1
    BUSCOMP 1 0
    SHOWINMIX 1 0.6667 0.698113 1 0.5 -1 -1 -1
    FREEMODE 0
    SEL 1
    REC 0 0 0 0 0 0 0
    VU 2
    TRACKHEIGHT 0 0
    INQ 0 0 0 0.5 100 0 0 100
    NCHAN 2
    FX 1
    TRACKID {33AD5A6D-2EE0-8449-9F1A-2F36FB5D6DDB}
    PERF 0
    MIDIOUT -1
    MAINSEND 1 0
  >
  <TRACK {F21395F9-F67E-E94E-A650-3CA2FF3EBDD0}
    NAME "ch1,3 (send)"
    PEAKCOL 16576
    BEAT -1
    AUTOMODE 0
    VOLPAN 1 0 -1 -1 1
    MUTESOLO 0 0 0
    IPHASE 0
    ISBUS 0 0
    BUSCOMP 0 0
    SHOWINMIX 1 0.6667 0.698113 1 0.5 -1 -1 -1
    FREEMODE 0
    SEL 0
    REC 0 0 0 0 0 0 0
    VU 2
    MIDICTL -1 1
    TRACKHEIGHT 133 0
    INQ 0 0 0 0.5 100 0 0 100
    NCHAN 2
    FX 1
    TRACKID {F21395F9-F67E-E94E-A650-3CA2FF3EBDD0}
    PERF 0
    MIDIOUT -1
    MAINSEND 1 0
    <FXCHAIN
      SHOW 0
      LASTSEL 0
      DOCKED 0
    >
    <ITEM
      POSITION 0
      SNAPOFFS 0
      LENGTH 21.5
      LOOP 1
      ALLTAKES 0
      FADEIN 1 0 0 1 0 0
      FADEOUT 1 0 0 1 0 0
      MUTE 0
      SEL 0
      YPOS 0 0.462687
      IGUID {9A50BCE9-79F6-1849-94A0-DCB45E12DECC}
      IID 1
      NAME "exten synt - National_Anthems_-_Slovakia.mid"
      VOLPAN 1 0 1 -1
      SOFFS 0 0
      PLAYRATE 1 1 0 -1 0 0.0025
      CHANMODE 0
      TAKECOLOR 26173599
      GUID {590C7F60-D0A4-E740-86CB-2A9B95647002}
      <SOURCE MIDI
        HASDATA 1 384 QN
        POOLEDEVTS {3305D058-950E-DB41-942B-CDD5E1944D77}
        <X 0 0
          /wNleHRlbiBzeW50
        >
        e 384 92 2a 4b 20
        e 0 92 31 4e 27
        e 0 92 36 53 22
        e 0 92 39 4e 19
        e 0 92 3d 53 16
        e 0 92 42 57 19
        e 167 92 42 00 19
        e 25 92 44 4a -37
        e 33 92 39 00 19
        e 3 92 31 00 27
        e 2 92 2a 00 20
        e 1 92 36 00 22
        e 15 92 3d 00 16
        e 138 92 45 52 -28
        e 37 92 44 00 -37
        e 292 92 45 00 -28
        e 55 92 2a 47 -38
        e 0 92 31 50 -34
        e 0 92 36 54 -37
        e 0 92 39 4c -40
        e 0 92 3d 50 -45
        e 0 92 45 58 -41
        e 328 92 36 00 -37
        e 0 92 39 00 -40
        e 3 92 31 00 -34
        e 5 92 2a 00 -38
        e 11 92 3d 00 -45
        e 10 92 45 00 -41
        e 27 92 45 58 -26
        e 160 92 45 00 -26
        e 32 92 45 54 -24
        e 192 92 2a 4a -20
        e 0 92 32 57 -22
        e 0 92 3b 58 -24
        e 0 92 44 52 -18
        e 25 92 45 00 -24
        e 167 92 45 52 -33
        e 9 92 44 00 -18
        e 84 92 32 00 -22
        e 0 92 3b 00 -24
        e 10 92 2a 00 -20
        e 89 92 47 53 -16
        e 24 92 45 00 -33
        e 168 92 45 53 -33
        e 17 92 47 00 -16
        e 175 92 2a 49 -7
        e 0 92 31 52 -8
        e 0 92 39 50 -9
        e 0 92 3d 50 -11
        e 0 92 44 4d -12
        e 46 92 45 00 -33
        e 338 92 42 50 -18
        e 17 92 44 00 -12
        e 112 92 39 00 -9
        e 10 92 31 00 -8
        e 2 92 2a 00 -7
        e 12 92 3d 00 -11
        e 120 92 42 00 -18
        e 111 92 2d 4a -15
        e 0 92 34 51 -11
        e 0 92 39 55 -16
        e 0 92 3d 52 -22
        e 0 92 45 5c -18
        e 192 92 47 51 -30
        e 13 92 45 00 -18
        e 106 92 2d 00 -15
        e 14 92 34 00 -11
        e 7 92 39 00 -16
        e 3 92 3d 00 -22
        e 49 92 49 53 -4
        e 42 92 47 00 -30
        e 279 92 49 00 -4
        e 63 92 2d 48 -18
        e 0 92 34 4f -11
        e 0 92 39 4d -16
        e 0 92 40 55 -19
        e 0 92 49 51 -18
        e 344 92 49 00 -18
        e 24 92 39 00 -16
        e 16 92 34 00 -11
        e 0 92 49 51 -25
        e 2 92 40 00 -19
        e 6 92 2d 00 -18
        e 149 92 49 00 -25
        e 35 92 49 51 -31
        e 192 92 26 4a -19
        e 0 92 32 4c -18
        e 0 92 3e 4d -20
        e 0 92 42 4e -20
        e 0 92 47 54 -18
        e 35 92 49 00 -31
        e 157 92 49 54 -34
        e 7 92 47 00 -18
        e 66 92 32 00 -18
        e 40 92 26 00 -19
        e 5 92 3e 00 -20
        e 4 92 42 00 -20
        e 70 92 23 50 -13
        e 0 92 2f 50 -12
        e 0 92 3e 4d -17
        e 0 92 42 4d -18
        e 0 92 4a 5b -20
        e 28 92 49 00 -34
        e 164 92 49 50 -30
        e 9 92 4a 00 -20
        e 72 92 23 00 -13
        e 32 92 2f 00 -12
        e 27 92 3e 00 -17
        e 8 92 42 00 -18
        e 44 92 28 42 -11
        e 0 92 34 42 -16
        e 0 92 3e 44 -30
        e 0 92 44 4a -30
        e 0 92 47 55 -17
        e 28 92 49 00 -30
        e 262 92 34 00 -16
        e 29 92 28 00 -11
        e 33 92 3e 00 -30
        e 15 92 44 00 -30
        e 13 92 47 00 -17
        e 4 92 21 59 -20
        e 0 92 2d 5a -23
        e 0 92 3d 55 -24
        e 0 92 45 4d -32
        e 192 92 21 00 -20
        e 30 92 2d 00 -23
        e 29 92 3d 00 -24
        e 56 92 45 00 -32
        e 77 92 2d 59 -24
        e 0 92 34 63 -21
        e 0 92 39 63 -22
        e 0 92 3d 5b -31
        e 0 92 40 5e -29
        e 0 92 49 6c -38
        e 163 92 49 00 -38
        e 29 92 49 66 -43
        e 27 92 2d 00 -24
        e 13 92 34 00 -21
        e 5 92 39 00 -22
        e 10 92 3d 00 -31
        e 12 92 40 00 -29
        e 107 92 49 00 -43
        e 18 92 2d 59 -39
        e 0 92 34 5d -33
        e 0 92 39 5e -36
        e 0 92 3d 58 -40
        e 0 92 40 5c -39
        e 0 92 49 5d -34
        e 217 92 2d 00 -39
        e 23 92 34 00 -33
        e 13 92 40 00 -39
        e 9 92 39 00 -36
        e 2 92 3d 00 -40
        e 120 92 2f 56 -13
        e 0 92 36 5d -14
        e 0 92 3b 5e -13
        e 0 92 3e 4d -15
        e 0 92 42 5e -19
        e 0 92 47 60 -10
        e 54 92 49 00 -34
        e 198 92 2f 00 -13
        e 16 92 36 00 -14
        e 1 92 3b 00 -13
        e 5 92 42 00 -19
        e 5 92 3e 00 -15
        e 74 92 47 00 -10
        e 31 92 2f 55 -2
        e 0 92 36 5d -1
        e 0 92 3b 5d
        e 0 92 3e 59 -7
        e 0 92 42 5a -7
        e 0 92 47 62 -9
        e 156 92 47 00 -9
        e 36 92 47 61 -16
        e 51 92 36 00 -1
        e 8 92 2f 00 -2
        e 9 92 3b 00
        e 0 92 3e 00 -7
        e 40 92 42 00 -7
        e 60 92 47 00 -16
        e 24 92 31 56 -4
        e 0 92 35 60 -5
        e 0 92 3b 5d -7
        e 0 92 3d 66 -8
        e 0 92 47 5e -7
        e 165 92 47 00 -7
        e 27 92 49 57 -25
        e 80 92 31 00 -4
        e 2 92 35 00 -5
        e 14 92 3b 00 -7
        e 24 92 3d 00 -8
        e 72 92 47 59 -15
        e 8 92 49 00 -25
        e 376 92 36 5d 6
        e 0 92 39 61 5
        e 0 92 3d 60 3
        e 0 92 45 5a 1
        e 13 92 47 00 -15
        e 233 92 39 00 5
        e 18 92 36 00 6
        e 60 92 3d 00 3
        e 7 92 45 00 1
        e 53 92 21 5b 1
        e 0 92 2d 59 -4
        e 0 92 3d 58 -6
        e 0 92 42 5c -3
        e 0 92 45 64 -3
        e 145 92 45 00 -3
        e 47 92 45 5b -16
        e 125 92 21 00 1
        e 26 92 2d 00 -4
        e 0 92 42 00 -3
        e 18 92 3d 00 -6
        e 0 92 45 00 -16
        e 23 92 23 63 3
        e 0 92 2f 65 2
        e 0 92 3e 5b -4
        e 0 92 42 59 -6
        e 0 92 44 5b -3
        e 192 92 45 62 -28
        e 10 92 44 00 -3
        e 182 92 47 5a -19
        e 31 92 45 00 -28
        e 161 92 45 5d -23
        e 18 92 47 00 -19
        e 78 92 2f 00 2
        e 37 92 23 00 3
        e 45 92 3e 00 -4
        e 14 92 25 54 -9
        e 0 92 31 5c -8
        e 0 92 3b 58 -15
        e 0 92 41 59 -16
        e 0 92 44 54 -11
        e 20 92 45 00 -23
        e 13 92 42 00 -6
        e 239 92 31 00 -8
        e 30 92 25 00 -9
        e 61 92 3b 00 -15
        e 16 92 44 00 -11
        e 5 92 1e 5c -17
        e 0 92 2a 5c -16
        e 0 92 39 5b -20
        e 0 92 42 55 -20
        e 21 92 41 00 -16
        e 182 92 1e 00 -17
        e 16 92 2a 00 -16
        e 3 92 39 00 -20
        e 81 92 42 00 -20
        e 81 92 2d 5a -21
        e 0 92 34 56 -17
        e 0 92 39 60 -21
        e 0 92 3d 61 -25
        e 0 92 40 64 -23
        e 0 92 49 74 -30
        e 157 92 49 00 -30
        e 35 92 49 66 -25
        e 52 92 2d 00 -21
        e 5 92 34 00 -17
        e 20 92 3d 00 -25
        e 1 92 39 00 -21
        e 0 92 40 00 -23
        e 90 92 49 00 -25
        e 24 92 2d 59 -28
        e 0 92 34 5d -26
        e 0 92 39 62 -28
        e 0 92 3d 5f -33
        e 0 92 40 66 -32
        e 0 92 49 6c -23
        e 245 92 2d 00 -28
        e 13 92 34 00 -26
        e 29 92 39 00 -28
        e 8 92 40 00 -32
        e 19 92 3d 00 -33
        e 70 92 2f 5c -18
        e 0 92 36 61 -21
        e 0 92 3b 60 -18
        e 0 92 3e 61 -27
        e 0 92 42 65 -26
        e 0 92 47 65 -20
        e 29 92 49 00 -23
        e 214 92 2f 00 -18
        e 7 92 36 00 -21
        e 0 92 3b 00 -18
        e 13 92 42 00 -26
        e 2 92 3e 00 -27
        e 79 92 47 00 -20
        e 40 92 2f 60 -11
        e 0 92 36 64 -12
        e 0 92 3b 66 -10
        e 0 92 3e 63 -16
        e 0 92 42 67 -16
        e 0 92 47 6b -27
        e 147 92 47 00 -27
        e 45 92 47 64 -36
        e 23 92 36 00 -12
        e 9 92 3e 00 -16
        e 5 92 2f 00 -11
        e 4 92 3b 00 -10
        e 23 92 42 00 -16
        e 103 92 47 00 -36
        e 25 92 31 59 -15
        e 0 92 35 64 -16
        e 0 92 3b 60 -18
        e 0 92 3d 66 -23
        e 0 92 47 67 -30
        e 192 92 49 61 -38
        e 4 92 47 00 -30
        e 113 92 35 00 -16
        e 2 92 3b 00 -18
        e 3 92 31 00 -15
        e 23 92 3d 00 -23
        e 47 92 47 66 -27
        e 33 92 49 00 -38
        e 351 92 36 66 -2
        e 0 92 39 65 -2
        e 0 92 3d 68 -9
        e 0 92 45 6a -9
        e 39 92 47 00 -27
        e 206 92 39 00 -2
        e 22 92 36 00 -2
        e 32 92 3d 00 -9
        e 14 92 45 00 -9
        e 71 92 21 67 -19
        e 0 92 2d 69 -24
        e 0 92 3d 69 -28
        e 0 92 42 6e -26
        e 0 92 45 6b -28
        e 157 92 45 00 -28
        e 35 92 45 6a -23
        e 112 92 21 00 -19
        e 35 92 2d 00 -24
        e 2 92 42 00 -26
        e 9 92 3d 00 -28
        e 34 92 23 6b -11
        e 0 92 2f 6d -16
        e 0 92 3e 62 -19
        e 0 92 42 66 -21
        e 0 92 44 69 -23
        e 24 92 45 00 -23
        e 168 92 45 6b -36
        e 19 92 44 00 -23
        e 173 92 47 65 -16
        e 14 92 45 00 -36
        e 178 92 45 62 -12
        e 38 92 47 00 -16
        e 73 92 2f 00 -16
        e 32 92 23 00 -11
        e 49 92 25 5c 41
        e 0 92 31 63 38
        e 0 92 3b 66 36
        e 0 92 41 62 38
        e 0 92 44 5d 35
        e 23 92 3e 00 -19
        e 36 92 42 00 -21
        e 23 92 45 00 -12
        e 518 92 25 00 41
        e 0 92 31 00 38
        e 0 92 3b 00 36
        e 0 92 41 00 38
        e 0 92 44 00 35
        e 72 92 1e 5a -43
        e 0 92 2a 5b -45
        e 0 92 39 55 -48
        e 0 92 42 64 -46
        e 628 92 2a 00 -45
        e 1 92 39 00 -48
        e 4 92 1e 00 -43
        e 27 92 42 00 -46
        E 204 b0 7b 00
        GUID {CB7B6C25-91C9-4A4A-BF2F-CB8D95F46E1D}
        IGNTEMPO 0 120 4 4
        SRCCOLOR 2296
        VELLANE -1 86 6
        CFGEDITVIEW 0 0 52 4 0 0 0 0 0
        KEYSNAP 0 3 102304056070 0 "Natural minor"
        TRACKSEL 252 0 0 ""
        EVTFILTER 0 -1 -1 -1 -1 0 0 0 0 -1 -1 -1 -1 0 -1 0 -1 -1
        CFGEDIT 1 0 0 0 0 0 1 0 1 1 1 0.25 429 164 1280 633 0 0 2 3 0 0 0 0 0 -1 0 0 1 64
      >
      TAKE
      NAME "exten synt - National_Anthems_-_Slovakia.mid"
      TAKEVOLPAN 0 1 -1
      SOFFS 0 0
      PLAYRATE 1 1 0 -1 0 0.0025
      CHANMODE 0
      GUID {33C23668-7471-D146-A4F9-CB880488B8B2}
      <SOURCE MIDI
        HASDATA 1 384 QN
        POOLEDEVTS {52062FA0-A41F-BD4D-9A4E-DE6BD87C0FD9}
        <X 0 0
          /wNleHRlbiBzeW50
        >
        E 400 92 3d 53
        E 3 92 39 4e
        E 0 92 42 57
        E 1 92 2a 4b
        E 2 92 36 53
        E 5 92 31 4e
        E 128 92 44 4a
        E 31 92 42 00
        E 58 92 39 00
        E 6 92 2a 00
        E 3 92 36 00
        E 2 92 31 00
        E 7 92 3d 00
        E 94 92 45 52
        E 28 92 44 00
        E 301 92 45 00
        E 38 92 3d 50
        E 4 92 45 58
        E 1 92 39 4c
        E 2 92 2a 47
        E 1 92 36 54
        E 3 92 31 50
        E 322 92 39 00
        E 3 92 36 00
        E 6 92 31 00
        E 1 92 2a 00
        E 4 92 3d 00
        E 14 92 45 00
        E 42 92 45 58
        E 160 92 45 00
        E 34 92 45 54
        E 192 92 3b 58
        E 2 92 32 57
        E 2 92 2a 4a
        E 2 92 44 52
        E 19 92 45 00
        E 158 92 45 52
        E 24 92 44 00
        E 78 92 3b 00
        E 2 92 32 00
        E 12 92 2a 00
        E 93 92 47 53
        E 7 92 45 00
        E 168 92 45 53
        E 34 92 47 00
        E 179 92 44 4d
        E 1 92 3d 50
        E 2 92 39 50
        E 1 92 31 52
        E 1 92 2a 49
        E 20 92 45 00
        E 353 92 42 50
        E 23 92 44 00
        E 115 92 39 00
        E 11 92 31 00
        E 3 92 2a 00
        E 8 92 3d 00
        E 113 92 42 00
        E 107 92 3d 52
        E 4 92 45 5c
        E 2 92 39 55
        E 1 92 2d 4a
        E 4 92 34 51
        E 173 92 47 51
        E 25 92 45 00
        E 109 92 2d 00
        E 17 92 3d 00
        E 1 92 34 00
        E 2 92 39 00
        E 64 92 49 53
        E 16 92 47 00
        E 305 92 49 00
        E 48 92 40 55
        E 1 92 2d 48
        E 0 92 49 51
        E 2 92 39 4d
        E 5 92 34 4f
        E 337 92 49 00
        E 26 92 39 00
        E 7 92 49 51
        E 8 92 40 00
        E 6 92 34 00
        E 1 92 2d 00
        E 142 92 49 00
        E 29 92 49 51
        E 203 92 3e 4d
        E 0 92 42 4e
        E 1 92 26 4a
        E 1 92 32 4c
        E 0 92 47 54
        E 22 92 49 00
        E 154 92 49 54
        E 23 92 47 00
        E 66 92 32 00
        E 39 92 26 00
        E 4 92 3e 00
        E 4 92 42 00
        E 70 92 4a 5b
        E 2 92 42 4d
        E 1 92 3e 4d
        E 4 92 23 50
        E 1 92 2f 50
        E 6 92 49 00
        E 168 92 49 50
        E 19 92 4a 00
        E 79 92 23 00
        E 33 92 2f 00
        E 22 92 3e 00
        E 7 92 42 00
        E 32 92 3e 44
        E 0 92 44 4a
        E 13 92 47 55
        E 1 92 34 42
        E 5 92 28 42
        E 9 92 49 00
        E 276 92 34 00
        E 34 92 28 00
        E 14 92 3e 00
        E 15 92 44 00
        E 15 92 45 4d
        E 8 92 3d 55
        E 1 92 2d 5a
        E 2 92 47 00
        E 1 92 21 59
        E 192 92 21 00
        E 27 92 2d 00
        E 28 92 3d 00
        E 48 92 45 00
        E 71 92 49 6c
        E 7 92 3d 5b
        E 2 92 40 5e
        E 5 92 2d 59
        E 2 92 39 63
        E 1 92 34 63
        E 146 92 49 00
        E 24 92 49 66
        E 46 92 2d 00
        E 16 92 34 00
        E 4 92 39 00
        E 1 92 3d 00
        E 14 92 40 00
        E 93 92 49 00
        E 21 92 3d 58
        E 1 92 2d 59
        E 0 92 40 5c
        E 3 92 39 5e
        E 2 92 49 5d
        E 1 92 34 5d
        E 211 92 2d 00
        E 29 92 34 00
        E 7 92 40 00
        E 10 92 3d 00
        E 2 92 39 00
        E 139 92 42 5e
        E 4 92 3e 4d
        E 1 92 36 5d
        E 1 92 2f 56
        E 0 92 3b 5e
        E 3 92 47 60
        E 30 92 49 00
        E 219 92 2f 00
        E 15 92 36 00
        E 1 92 42 00
        E 1 92 3b 00
        E 8 92 3e 00
        E 79 92 47 00
        E 32 92 47 62
        E 2 92 3e 59
        E 0 92 42 5a
        E 5 92 2f 55
        E 1 92 36 5d
        E 1 92 3b 5d
        E 147 92 47 00
        E 29 92 47 61
        E 66 92 36 00
        E 7 92 2f 00
        E 4 92 3e 00
        E 7 92 3b 00
        E 33 92 42 00
        E 51 92 47 00
        E 32 92 3d 66
        E 1 92 3b 5d
        E 0 92 47 5e
        E 2 92 35 60
        E 1 92 31 56
        E 162 92 47 00
        E 9 92 49 57
        E 101 92 31 00
        E 1 92 35 00
        E 12 92 3b 00
        E 23 92 3d 00
        E 63 92 49 00
        E 2 92 47 59
        E 397 92 47 00
        E 3 92 45 5a
        E 2 92 3d 60
        E 2 92 39 61
        E 1 92 36 5d
        E 245 92 39 00
        E 19 92 36 00
        E 57 92 3d 00
        E 5 92 45 00
        E 46 92 3d 58
        E 2 92 2d 59
        E 1 92 42 5c
        E 0 92 45 64
        E 4 92 21 5b
        E 141 92 45 00
        E 34 92 45 5b
        E 142 92 21 00
        E 21 92 2d 00
        E 1 92 42 00
        E 5 92 45 00
        E 10 92 3d 00
        E 23 92 42 59
        E 2 92 3e 5b
        E 1 92 44 5b
        E 5 92 2f 65
        E 1 92 23 63
        E 161 92 45 62
        E 35 92 44 00
        E 166 92 47 5a
        E 22 92 45 00
        E 166 92 45 5d
        E 22 92 47 00
        E 99 92 2f 00
        E 38 92 23 00
        E 38 92 3e 00
        E 2 92 41 59
        E 1 92 3b 58
        E 4 92 44 54
        E 2 92 25 54
        E 1 92 31 5c
        E 5 92 45 00
        E 30 92 42 00
        E 237 92 31 00
        E 29 92 25 00
        E 55 92 3b 00
        E 16 92 39 5b
        E 0 92 42 55
        E 3 92 1e 5c
        E 1 92 2a 5c
        E 0 92 44 00
        E 21 92 41 00
        E 181 92 1e 00
        E 16 92 39 00
        E 1 92 2a 00
        E 80 92 42 00
        E 71 92 49 74
        E 5 92 3d 61
        E 2 92 40 64
        E 2 92 2d 5a
        E 0 92 39 60
        E 4 92 34 56
        E 144 92 49 00
        E 40 92 49 66
        E 56 92 2d 00
        E 9 92 34 00
        E 12 92 3d 00
        E 3 92 40 00
        E 2 92 39 00
        E 86 92 49 00
        E 16 92 3d 5f
        E 1 92 40 66
        E 4 92 2d 59
        E 0 92 39 62
        E 2 92 34 5d
        E 3 92 49 6c
        E 240 92 2d 00
        E 15 92 34 00
        E 27 92 39 00
        E 4 92 40 00
        E 18 92 3d 00
        E 76 92 3e 61
        E 1 92 42 65
        E 5 92 36 61
        E 1 92 47 65
        E 2 92 2f 5c
        E 0 92 3b 60
        E 24 92 49 00
        E 219 92 2f 00
        E 4 92 36 00
        E 3 92 3b 00
        E 5 92 42 00
        E 1 92 3e 00
        E 86 92 47 00
        E 33 92 47 6b
        E 11 92 3e 63
        E 0 92 42 67
        E 4 92 36 64
        E 1 92 2f 60
        E 1 92 3b 66
        E 130 92 47 00
        E 36 92 47 64
        E 47 92 36 00
        E 5 92 3e 00
        E 10 92 2f 00
        E 5 92 3b 00
        E 17 92 42 00
        E 83 92 47 00
        E 31 92 47 67
        E 7 92 3d 66
        E 5 92 3b 60
        E 2 92 35 64
        E 1 92 31 59
        E 169 92 49 61
        E 12 92 47 00
        E 127 92 35 00
        E 0 92 3b 00
        E 6 92 31 00
        E 15 92 3d 00
        E 43 92 47 66
        E 22 92 49 00
        E 380 92 3d 68
        E 0 92 45 6a
        E 7 92 36 66
        E 0 92 39 65
        E 14 92 47 00
        E 231 92 39 00
        E 22 92 36 00
        E 25 92 3d 00
        E 14 92 45 00
        E 52 92 3d 69
        E 0 92 45 6b
        E 2 92 42 6e
        E 2 92 2d 69
        E 5 92 21 67
        E 148 92 45 00
        E 40 92 45 6a
        E 116 92 21 00
        E 30 92 2d 00
        E 0 92 42 00
        E 7 92 3d 00
        E 39 92 44 69
        E 2 92 42 66
        E 2 92 3e 62
        E 3 92 2f 6d
        E 5 92 23 6b
        E 12 92 45 00
        E 155 92 45 6b
        E 32 92 44 00
        E 174 92 45 00
        E 6 92 47 65
        E 196 92 45 62
        E 34 92 47 00
        E 73 92 2f 00
        E 37 92 23 00
        E 64 92 3e 00
        E 31 92 44 5d
        E 1 92 3b 66
        E 2 92 31 63
        E 0 92 41 62
        E 0 92 42 00
        E 3 92 25 5c
        E 29 92 45 00
        E 554 92 39 55
        E 2 92 42 64
        E 1 92 2a 5b
        E 2 92 1e 5a
        E 6 92 44 00
        E 1 92 3b 00
        E 2 92 41 00
        E 0 92 31 00
        E 3 92 25 00
        E 612 92 39 00
        E 2 92 2a 00
        E 7 92 1e 00
        E 24 92 42 00
        E 250 b0 7b 00
        GUID {CAD701BF-D17E-B34C-A577-41229DE45637}
        IGNTEMPO 0 120 4 4
        SRCCOLOR 2297
        VELLANE -1 86 6
        CFGEDITVIEW 0 0 52 4 0 0 0 0 0
        KEYSNAP 0 3 102304056070 0 "Natural minor"
        TRACKSEL 252 0 0 ""
        EVTFILTER 0 -1 -1 -1 -1 0 0 0 0 -1 -1 -1 -1 0 -1 0 -1 -1
        CFGEDIT 1 0 0 0 0 0 1 0 1 1 1 0.25 429 164 1280 633 0 0 2 3 0 0 0 0 0 -1 0 0 1 64
      >
    >
  >
  <TRACK {6CCBCBB4-02B5-3C4F-AE95-8DD80AEC4A17}
    NAME "ch2,4 (send)"
    PEAKCOL 16576
    BEAT -1
    AUTOMODE 0
    VOLPAN 1 0 -1 -1 1
    MUTESOLO 0 0 0
    IPHASE 0
    ISBUS 0 0
    BUSCOMP 0 0
    SHOWINMIX 1 0.6667 0.698113 1 0.5 -1 -1 -1
    FREEMODE 0
    SEL 0
    REC 0 0 0 0 0 0 0
    VU 2
    MIDICTL -1 1
    TRACKHEIGHT 86 0
    INQ 0 0 0 0.5 100 0 0 100
    NCHAN 2
    FX 1
    TRACKID {6CCBCBB4-02B5-3C4F-AE95-8DD80AEC4A17}
    PERF 0
    MIDIOUT -1
    MAINSEND 1 0
    <FXCHAIN
      WNDRECT 32 359 724 387
      SHOW 0
      LASTSEL 0
      DOCKED 0
    >
    <ITEM
      POSITION 0
      SNAPOFFS 0
      LENGTH 21.5
      LOOP 1
      ALLTAKES 0
      FADEIN 1 0 0 1 0 0
      FADEOUT 1 0 0 1 0 0
      MUTE 0
      SEL 0
      YPOS 0.537313 0.462687
      IGUID {44098B03-D9D3-6A42-AFBA-432141D637B0}
      IID 2
      NAME "b-lev synt - National_Anthems_-_Slovakia.mid"
      VOLPAN 1 0 1 -1
      SOFFS 0 0
      PLAYRATE 1 1 0 -1 0 0.0025
      CHANMODE 0
      TAKECOLOR 26173599
      GUID {D7224A8F-B833-9C49-8C2F-89782C85E1BB}
      <SOURCE MIDI
        HASDATA 1 384 QN
        POOLEDEVTS {161157BD-D130-7C4D-BE25-91CD141C1017}
        <X 0 0
          /wNiLWxldiBzeW50
        >
        e 384 9c 2a 4b 20
        e 0 9c 31 4e 27
        e 0 9c 36 53 22
        e 0 9c 39 4e 19
        e 0 9c 3d 53 16
        e 0 9c 42 57 19
        e 167 9c 42 00 19
        e 25 9c 44 4a -37
        e 33 9c 39 00 19
        e 3 9c 31 00 27
        e 2 9c 2a 00 20
        e 1 9c 36 00 22
        e 15 9c 3d 00 16
        e 138 9c 45 52 -28
        e 37 9c 44 00 -37
        e 292 9c 45 00 -28
        e 55 9c 2a 47 -38
        e 0 9c 31 50 -34
        e 0 9c 36 54 -37
        e 0 9c 39 4c -40
        e 0 9c 3d 50 -45
        e 0 9c 45 58 -41
        e 328 9c 36 00 -37
        e 0 9c 39 00 -40
        e 3 9c 31 00 -34
        e 5 9c 2a 00 -38
        e 11 9c 3d 00 -45
        e 10 9c 45 00 -41
        e 27 9c 45 58 -26
        e 160 9c 45 00 -26
        e 32 9c 45 54 -24
        e 192 9c 2a 4a -20
        e 0 9c 32 57 -22
        e 0 9c 3b 58 -24
        e 0 9c 44 52 -18
        e 25 9c 45 00 -24
        e 167 9c 45 52 -33
        e 9 9c 44 00 -18
        e 84 9c 32 00 -22
        e 0 9c 3b 00 -24
        e 10 9c 2a 00 -20
        e 89 9c 47 53 -16
        e 24 9c 45 00 -33
        e 168 9c 45 53 -33
        e 17 9c 47 00 -16
        e 175 9c 2a 49 -7
        e 0 9c 31 52 -8
        e 0 9c 39 50 -9
        e 0 9c 3d 50 -11
        e 0 9c 44 4d -12
        e 46 9c 45 00 -33
        e 338 9c 42 50 -18
        e 17 9c 44 00 -12
        e 112 9c 39 00 -9
        e 10 9c 31 00 -8
        e 2 9c 2a 00 -7
        e 12 9c 3d 00 -11
        e 120 9c 42 00 -18
        e 111 9c 2d 4a -15
        e 0 9c 34 51 -11
        e 0 9c 39 55 -16
        e 0 9c 3d 52 -22
        e 0 9c 45 5c -18
        e 192 9c 47 51 -30
        e 13 9c 45 00 -18
        e 106 9c 2d 00 -15
        e 14 9c 34 00 -11
        e 7 9c 39 00 -16
        e 3 9c 3d 00 -22
        e 49 9c 49 53 -4
        e 42 9c 47 00 -30
        e 279 9c 49 00 -4
        e 63 9c 2d 48 -18
        e 0 9c 34 4f -11
        e 0 9c 39 4d -16
        e 0 9c 40 55 -19
        e 0 9c 49 51 -18
        e 344 9c 49 00 -18
        e 24 9c 39 00 -16
        e 16 9c 34 00 -11
        e 0 9c 49 51 -25
        e 2 9c 40 00 -19
        e 6 9c 2d 00 -18
        e 149 9c 49 00 -25
        e 35 9c 49 51 -31
        e 192 9c 26 4a -19
        e 0 9c 32 4c -18
        e 0 9c 3e 4d -20
        e 0 9c 42 4e -20
        e 0 9c 47 54 -18
        e 35 9c 49 00 -31
        e 157 9c 49 54 -34
        e 7 9c 47 00 -18
        e 66 9c 32 00 -18
        e 40 9c 26 00 -19
        e 5 9c 3e 00 -20
        e 4 9c 42 00 -20
        e 70 9c 23 50 -13
        e 0 9c 2f 50 -12
        e 0 9c 3e 4d -17
        e 0 9c 42 4d -18
        e 0 9c 4a 5b -20
        e 28 9c 49 00 -34
        e 164 9c 49 50 -30
        e 9 9c 4a 00 -20
        e 72 9c 23 00 -13
        e 32 9c 2f 00 -12
        e 27 9c 3e 00 -17
        e 8 9c 42 00 -18
        e 44 9c 28 42 -11
        e 0 9c 34 42 -16
        e 0 9c 3e 44 -30
        e 0 9c 44 4a -30
        e 0 9c 47 55 -17
        e 28 9c 49 00 -30
        e 262 9c 34 00 -16
        e 29 9c 28 00 -11
        e 33 9c 3e 00 -30
        e 15 9c 44 00 -30
        e 13 9c 47 00 -17
        e 4 9c 21 59 -20
        e 0 9c 2d 5a -23
        e 0 9c 3d 55 -24
        e 0 9c 45 4d -32
        e 192 9c 21 00 -20
        e 30 9c 2d 00 -23
        e 29 9c 3d 00 -24
        e 56 9c 45 00 -32
        e 77 9c 2d 59 -24
        e 0 9c 34 63 -21
        e 0 9c 39 63 -22
        e 0 9c 3d 5b -31
        e 0 9c 40 5e -29
        e 0 9c 49 6c -38
        e 163 9c 49 00 -38
        e 29 9c 49 66 -43
        e 27 9c 2d 00 -24
        e 13 9c 34 00 -21
        e 5 9c 39 00 -22
        e 10 9c 3d 00 -31
        e 12 9c 40 00 -29
        e 107 9c 49 00 -43
        e 18 9c 2d 59 -39
        e 0 9c 34 5d -33
        e 0 9c 39 5e -36
        e 0 9c 3d 58 -40
        e 0 9c 40 5c -39
        e 0 9c 49 5d -34
        e 217 9c 2d 00 -39
        e 23 9c 34 00 -33
        e 13 9c 40 00 -39
        e 9 9c 39 00 -36
        e 2 9c 3d 00 -40
        e 120 9c 2f 56 -13
        e 0 9c 36 5d -14
        e 0 9c 3b 5e -13
        e 0 9c 3e 4d -15
        e 0 9c 42 5e -19
        e 0 9c 47 60 -10
        e 54 9c 49 00 -34
        e 198 9c 2f 00 -13
        e 16 9c 36 00 -14
        e 1 9c 3b 00 -13
        e 5 9c 42 00 -19
        e 5 9c 3e 00 -15
        e 74 9c 47 00 -10
        e 31 9c 2f 55 -2
        e 0 9c 36 5d -1
        e 0 9c 3b 5d
        e 0 9c 3e 59 -7
        e 0 9c 42 5a -7
        e 0 9c 47 62 -9
        e 156 9c 47 00 -9
        e 36 9c 47 61 -16
        e 51 9c 36 00 -1
        e 8 9c 2f 00 -2
        e 9 9c 3b 00
        e 0 9c 3e 00 -7
        e 40 9c 42 00 -7
        e 60 9c 47 00 -16
        e 24 9c 31 56 -4
        e 0 9c 35 60 -5
        e 0 9c 3b 5d -7
        e 0 9c 3d 66 -8
        e 0 9c 47 5e -7
        e 165 9c 47 00 -7
        e 27 9c 49 57 -25
        e 80 9c 31 00 -4
        e 2 9c 35 00 -5
        e 14 9c 3b 00 -7
        e 24 9c 3d 00 -8
        e 72 9c 47 59 -15
        e 8 9c 49 00 -25
        e 376 9c 36 5d 6
        e 0 9c 39 61 5
        e 0 9c 3d 60 3
        e 0 9c 45 5a 1
        e 13 9c 47 00 -15
        e 233 9c 39 00 5
        e 18 9c 36 00 6
        e 60 9c 3d 00 3
        e 7 9c 45 00 1
        e 53 9c 21 5b 1
        e 0 9c 2d 59 -4
        e 0 9c 3d 58 -6
        e 0 9c 42 5c -3
        e 0 9c 45 64 -3
        e 145 9c 45 00 -3
        e 47 9c 45 5b -16
        e 125 9c 21 00 1
        e 26 9c 2d 00 -4
        e 0 9c 42 00 -3
        e 18 9c 3d 00 -6
        e 0 9c 45 00 -16
        e 23 9c 23 63 3
        e 0 9c 2f 65 2
        e 0 9c 3e 5b -4
        e 0 9c 42 59 -6
        e 0 9c 44 5b -3
        e 192 9c 45 62 -28
        e 10 9c 44 00 -3
        e 182 9c 47 5a -19
        e 31 9c 45 00 -28
        e 161 9c 45 5d -23
        e 18 9c 47 00 -19
        e 78 9c 2f 00 2
        e 37 9c 23 00 3
        e 45 9c 3e 00 -4
        e 14 9c 25 54 -9
        e 0 9c 31 5c -8
        e 0 9c 3b 58 -15
        e 0 9c 41 59 -16
        e 0 9c 44 54 -11
        e 20 9c 45 00 -23
        e 13 9c 42 00 -6
        e 239 9c 31 00 -8
        e 30 9c 25 00 -9
        e 61 9c 3b 00 -15
        e 16 9c 44 00 -11
        e 5 9c 1e 5c -17
        e 0 9c 2a 5c -16
        e 0 9c 39 5b -20
        e 0 9c 42 55 -20
        e 21 9c 41 00 -16
        e 182 9c 1e 00 -17
        e 16 9c 2a 00 -16
        e 3 9c 39 00 -20
        e 81 9c 42 00 -20
        e 81 9c 2d 5a -21
        e 0 9c 34 56 -17
        e 0 9c 39 60 -21
        e 0 9c 3d 61 -25
        e 0 9c 40 64 -23
        e 0 9c 49 74 -30
        e 157 9c 49 00 -30
        e 35 9c 49 66 -25
        e 52 9c 2d 00 -21
        e 5 9c 34 00 -17
        e 20 9c 3d 00 -25
        e 1 9c 39 00 -21
        e 0 9c 40 00 -23
        e 90 9c 49 00 -25
        e 24 9c 2d 59 -28
        e 0 9c 34 5d -26
        e 0 9c 39 62 -28
        e 0 9c 3d 5f -33
        e 0 9c 40 66 -32
        e 0 9c 49 6c -23
        e 245 9c 2d 00 -28
        e 13 9c 34 00 -26
        e 29 9c 39 00 -28
        e 8 9c 40 00 -32
        e 19 9c 3d 00 -33
        e 70 9c 2f 5c -18
        e 0 9c 36 61 -21
        e 0 9c 3b 60 -18
        e 0 9c 3e 61 -27
        e 0 9c 42 65 -26
        e 0 9c 47 65 -20
        e 29 9c 49 00 -23
        e 214 9c 2f 00 -18
        e 7 9c 36 00 -21
        e 0 9c 3b 00 -18
        e 13 9c 42 00 -26
        e 2 9c 3e 00 -27
        e 79 9c 47 00 -20
        e 40 9c 2f 60 -11
        e 0 9c 36 64 -12
        e 0 9c 3b 66 -10
        e 0 9c 3e 63 -16
        e 0 9c 42 67 -16
        e 0 9c 47 6b -27
        e 147 9c 47 00 -27
        e 45 9c 47 64 -36
        e 23 9c 36 00 -12
        e 9 9c 3e 00 -16
        e 5 9c 2f 00 -11
        e 4 9c 3b 00 -10
        e 23 9c 42 00 -16
        e 103 9c 47 00 -36
        e 25 9c 31 59 -15
        e 0 9c 35 64 -16
        e 0 9c 3b 60 -18
        e 0 9c 3d 66 -23
        e 0 9c 47 67 -30
        e 192 9c 49 61 -38
        e 4 9c 47 00 -30
        e 113 9c 35 00 -16
        e 2 9c 3b 00 -18
        e 3 9c 31 00 -15
        e 23 9c 3d 00 -23
        e 47 9c 47 66 -27
        e 33 9c 49 00 -38
        e 351 9c 36 66 -2
        e 0 9c 39 65 -2
        e 0 9c 3d 68 -9
        e 0 9c 45 6a -9
        e 39 9c 47 00 -27
        e 206 9c 39 00 -2
        e 22 9c 36 00 -2
        e 32 9c 3d 00 -9
        e 14 9c 45 00 -9
        e 71 9c 21 67 -19
        e 0 9c 2d 69 -24
        e 0 9c 3d 69 -28
        e 0 9c 42 6e -26
        e 0 9c 45 6b -28
        e 157 9c 45 00 -28
        e 35 9c 45 6a -23
        e 112 9c 21 00 -19
        e 35 9c 2d 00 -24
        e 2 9c 42 00 -26
        e 9 9c 3d 00 -28
        e 34 9c 23 6b -11
        e 0 9c 2f 6d -16
        e 0 9c 3e 62 -19
        e 0 9c 42 66 -21
        e 0 9c 44 69 -23
        e 24 9c 45 00 -23
        e 168 9c 45 6b -36
        e 19 9c 44 00 -23
        e 173 9c 47 65 -16
        e 14 9c 45 00 -36
        e 178 9c 45 62 -12
        e 38 9c 47 00 -16
        e 73 9c 2f 00 -16
        e 32 9c 23 00 -11
        e 49 9c 25 5c 41
        e 0 9c 31 63 38
        e 0 9c 3b 66 36
        e 0 9c 41 62 38
        e 0 9c 44 5d 35
        e 23 9c 3e 00 -19
        e 36 9c 42 00 -21
        e 23 9c 45 00 -12
        e 518 9c 25 00 41
        e 0 9c 31 00 38
        e 0 9c 3b 00 36
        e 0 9c 41 00 38
        e 0 9c 44 00 35
        e 72 9c 1e 5a -43
        e 0 9c 2a 5b -45
        e 0 9c 39 55 -48
        e 0 9c 42 64 -46
        e 628 9c 2a 00 -45
        e 1 9c 39 00 -48
        e 4 9c 1e 00 -43
        e 27 9c 42 00 -46
        E 204 b0 7b 00
        GUID {25C16CB2-3EEA-EF4F-8961-E596589FF20E}
        IGNTEMPO 0 120 4 4
        SRCCOLOR 248
        VELLANE -1 86 6
        CFGEDITVIEW -825.6 18.139535 52 4 0 0 0 0 0
        KEYSNAP 0 3 102304056070 0 "Natural minor"
        TRACKSEL 252 0 0 ""
        EVTFILTER 0 -1 -1 -1 -1 0 0 0 0 -1 -1 -1 -1 0 -1 0 -1 -1
        CFGEDIT 1 0 0 0 0 0 1 0 1 1 1 0.25 429 164 1280 633 0 0 2 3 0 0 0 0 0 -1 0 0 1 64
      >
      TAKE
      NAME "b-lev synt - National_Anthems_-_Slovakia.mid"
      TAKEVOLPAN 0 1 -1
      SOFFS 0 0
      PLAYRATE 1 1 0 -1 0 0.0025
      CHANMODE 0
      GUID {DAB0CD1B-E614-5F4A-B217-0692A1100CA7}
      <SOURCE MIDI
        HASDATA 1 384 QN
        POOLEDEVTS {B61211F1-6F95-A140-8F0A-5063A8186F86}
        <X 0 0
          /wNiLWxldiBzeW50
        >
        E 400 9c 3d 53
        E 3 9c 39 4e
        E 0 9c 42 57
        E 1 9c 2a 4b
        E 2 9c 36 53
        E 5 9c 31 4e
        E 128 9c 44 4a
        E 31 9c 42 00
        E 58 9c 39 00
        E 6 9c 2a 00
        E 3 9c 36 00
        E 2 9c 31 00
        E 7 9c 3d 00
        E 94 9c 45 52
        E 28 9c 44 00
        E 301 9c 45 00
        E 38 9c 3d 50
        E 4 9c 45 58
        E 1 9c 39 4c
        E 2 9c 2a 47
        E 1 9c 36 54
        E 3 9c 31 50
        E 322 9c 39 00
        E 3 9c 36 00
        E 6 9c 31 00
        E 1 9c 2a 00
        E 4 9c 3d 00
        E 14 9c 45 00
        E 42 9c 45 58
        E 160 9c 45 00
        E 34 9c 45 54
        E 192 9c 3b 58
        E 2 9c 32 57
        E 2 9c 2a 4a
        E 2 9c 44 52
        E 19 9c 45 00
        E 158 9c 45 52
        E 24 9c 44 00
        E 78 9c 3b 00
        E 2 9c 32 00
        E 12 9c 2a 00
        E 93 9c 47 53
        E 7 9c 45 00
        E 168 9c 45 53
        E 34 9c 47 00
        E 179 9c 44 4d
        E 1 9c 3d 50
        E 2 9c 39 50
        E 1 9c 31 52
        E 1 9c 2a 49
        E 20 9c 45 00
        E 353 9c 42 50
        E 23 9c 44 00
        E 115 9c 39 00
        E 11 9c 31 00
        E 3 9c 2a 00
        E 8 9c 3d 00
        E 113 9c 42 00
        E 107 9c 3d 52
        E 4 9c 45 5c
        E 2 9c 39 55
        E 1 9c 2d 4a
        E 4 9c 34 51
        E 173 9c 47 51
        E 25 9c 45 00
        E 109 9c 2d 00
        E 17 9c 3d 00
        E 1 9c 34 00
        E 2 9c 39 00
        E 64 9c 49 53
        E 16 9c 47 00
        E 305 9c 49 00
        E 48 9c 40 55
        E 1 9c 2d 48
        E 0 9c 49 51
        E 2 9c 39 4d
        E 5 9c 34 4f
        E 337 9c 49 00
        E 26 9c 39 00
        E 7 9c 49 51
        E 8 9c 40 00
        E 6 9c 34 00
        E 1 9c 2d 00
        E 142 9c 49 00
        E 29 9c 49 51
        E 203 9c 3e 4d
        E 0 9c 42 4e
        E 1 9c 26 4a
        E 1 9c 32 4c
        E 0 9c 47 54
        E 22 9c 49 00
        E 154 9c 49 54
        E 23 9c 47 00
        E 66 9c 32 00
        E 39 9c 26 00
        E 4 9c 3e 00
        E 4 9c 42 00
        E 70 9c 4a 5b
        E 2 9c 42 4d
        E 1 9c 3e 4d
        E 4 9c 23 50
        E 1 9c 2f 50
        E 6 9c 49 00
        E 168 9c 49 50
        E 19 9c 4a 00
        E 79 9c 23 00
        E 33 9c 2f 00
        E 22 9c 3e 00
        E 7 9c 42 00
        E 32 9c 3e 44
        E 0 9c 44 4a
        E 13 9c 47 55
        E 1 9c 34 42
        E 5 9c 28 42
        E 9 9c 49 00
        E 276 9c 34 00
        E 34 9c 28 00
        E 14 9c 3e 00
        E 15 9c 44 00
        E 15 9c 45 4d
        E 8 9c 3d 55
        E 1 9c 2d 5a
        E 2 9c 47 00
        E 1 9c 21 59
        E 192 9c 21 00
        E 27 9c 2d 00
        E 28 9c 3d 00
        E 48 9c 45 00
        E 71 9c 49 6c
        E 7 9c 3d 5b
        E 2 9c 40 5e
        E 5 9c 2d 59
        E 2 9c 39 63
        E 1 9c 34 63
        E 146 9c 49 00
        E 24 9c 49 66
        E 46 9c 2d 00
        E 16 9c 34 00
        E 4 9c 39 00
        E 1 9c 3d 00
        E 14 9c 40 00
        E 93 9c 49 00
        E 21 9c 3d 58
        E 1 9c 2d 59
        E 0 9c 40 5c
        E 3 9c 39 5e
        E 2 9c 49 5d
        E 1 9c 34 5d
        E 211 9c 2d 00
        E 29 9c 34 00
        E 7 9c 40 00
        E 10 9c 3d 00
        E 2 9c 39 00
        E 139 9c 42 5e
        E 4 9c 3e 4d
        E 1 9c 36 5d
        E 1 9c 2f 56
        E 0 9c 3b 5e
        E 3 9c 47 60
        E 30 9c 49 00
        E 219 9c 2f 00
        E 15 9c 36 00
        E 1 9c 42 00
        E 1 9c 3b 00
        E 8 9c 3e 00
        E 79 9c 47 00
        E 32 9c 47 62
        E 2 9c 3e 59
        E 0 9c 42 5a
        E 5 9c 2f 55
        E 1 9c 36 5d
        E 1 9c 3b 5d
        E 147 9c 47 00
        E 29 9c 47 61
        E 66 9c 36 00
        E 7 9c 2f 00
        E 4 9c 3e 00
        E 7 9c 3b 00
        E 33 9c 42 00
        E 51 9c 47 00
        E 32 9c 3d 66
        E 1 9c 3b 5d
        E 0 9c 47 5e
        E 2 9c 35 60
        E 1 9c 31 56
        E 162 9c 47 00
        E 9 9c 49 57
        E 101 9c 31 00
        E 1 9c 35 00
        E 12 9c 3b 00
        E 23 9c 3d 00
        E 63 9c 49 00
        E 2 9c 47 59
        E 397 9c 47 00
        E 3 9c 45 5a
        E 2 9c 3d 60
        E 2 9c 39 61
        E 1 9c 36 5d
        E 245 9c 39 00
        E 19 9c 36 00
        E 57 9c 3d 00
        E 5 9c 45 00
        E 46 9c 3d 58
        E 2 9c 2d 59
        E 1 9c 42 5c
        E 0 9c 45 64
        E 4 9c 21 5b
        E 141 9c 45 00
        E 34 9c 45 5b
        E 142 9c 21 00
        E 21 9c 2d 00
        E 1 9c 42 00
        E 5 9c 45 00
        E 10 9c 3d 00
        E 23 9c 42 59
        E 2 9c 3e 5b
        E 1 9c 44 5b
        E 5 9c 2f 65
        E 1 9c 23 63
        E 161 9c 45 62
        E 35 9c 44 00
        E 166 9c 47 5a
        E 22 9c 45 00
        E 166 9c 45 5d
        E 22 9c 47 00
        E 99 9c 2f 00
        E 38 9c 23 00
        E 38 9c 3e 00
        E 2 9c 41 59
        E 1 9c 3b 58
        E 4 9c 44 54
        E 2 9c 25 54
        E 1 9c 31 5c
        E 5 9c 45 00
        E 30 9c 42 00
        E 237 9c 31 00
        E 29 9c 25 00
        E 55 9c 3b 00
        E 16 9c 39 5b
        E 0 9c 42 55
        E 3 9c 1e 5c
        E 1 9c 2a 5c
        E 0 9c 44 00
        E 21 9c 41 00
        E 181 9c 1e 00
        E 16 9c 39 00
        E 1 9c 2a 00
        E 80 9c 42 00
        E 71 9c 49 74
        E 5 9c 3d 61
        E 2 9c 40 64
        E 2 9c 2d 5a
        E 0 9c 39 60
        E 4 9c 34 56
        E 144 9c 49 00
        E 40 9c 49 66
        E 56 9c 2d 00
        E 9 9c 34 00
        E 12 9c 3d 00
        E 3 9c 40 00
        E 2 9c 39 00
        E 86 9c 49 00
        E 16 9c 3d 5f
        E 1 9c 40 66
        E 4 9c 2d 59
        E 0 9c 39 62
        E 2 9c 34 5d
        E 3 9c 49 6c
        E 240 9c 2d 00
        E 15 9c 34 00
        E 27 9c 39 00
        E 4 9c 40 00
        E 18 9c 3d 00
        E 76 9c 3e 61
        E 1 9c 42 65
        E 5 9c 36 61
        E 1 9c 47 65
        E 2 9c 2f 5c
        E 0 9c 3b 60
        E 24 9c 49 00
        E 219 9c 2f 00
        E 4 9c 36 00
        E 3 9c 3b 00
        E 5 9c 42 00
        E 1 9c 3e 00
        E 86 9c 47 00
        E 33 9c 47 6b
        E 11 9c 3e 63
        E 0 9c 42 67
        E 4 9c 36 64
        E 1 9c 2f 60
        E 1 9c 3b 66
        E 130 9c 47 00
        E 36 9c 47 64
        E 47 9c 36 00
        E 5 9c 3e 00
        E 10 9c 2f 00
        E 5 9c 3b 00
        E 17 9c 42 00
        E 83 9c 47 00
        E 31 9c 47 67
        E 7 9c 3d 66
        E 5 9c 3b 60
        E 2 9c 35 64
        E 1 9c 31 59
        E 169 9c 49 61
        E 12 9c 47 00
        E 127 9c 35 00
        E 0 9c 3b 00
        E 6 9c 31 00
        E 15 9c 3d 00
        E 43 9c 47 66
        E 22 9c 49 00
        E 380 9c 3d 68
        E 0 9c 45 6a
        E 7 9c 36 66
        E 0 9c 39 65
        E 14 9c 47 00
        E 231 9c 39 00
        E 22 9c 36 00
        E 25 9c 3d 00
        E 14 9c 45 00
        E 52 9c 3d 69
        E 0 9c 45 6b
        E 2 9c 42 6e
        E 2 9c 2d 69
        E 5 9c 21 67
        E 148 9c 45 00
        E 40 9c 45 6a
        E 116 9c 21 00
        E 30 9c 2d 00
        E 0 9c 42 00
        E 7 9c 3d 00
        E 39 9c 44 69
        E 2 9c 42 66
        E 2 9c 3e 62
        E 3 9c 2f 6d
        E 5 9c 23 6b
        E 12 9c 45 00
        E 155 9c 45 6b
        E 32 9c 44 00
        E 174 9c 45 00
        E 6 9c 47 65
        E 196 9c 45 62
        E 34 9c 47 00
        E 73 9c 2f 00
        E 37 9c 23 00
        E 64 9c 3e 00
        E 31 9c 44 5d
        E 1 9c 3b 66
        E 2 9c 31 63
        E 0 9c 41 62
        E 0 9c 42 00
        E 3 9c 25 5c
        E 29 9c 45 00
        E 554 9c 39 55
        E 2 9c 42 64
        E 1 9c 2a 5b
        E 2 9c 1e 5a
        E 6 9c 44 00
        E 1 9c 3b 00
        E 2 9c 41 00
        E 0 9c 31 00
        E 3 9c 25 00
        E 612 9c 39 00
        E 2 9c 2a 00
        E 7 9c 1e 00
        E 24 9c 42 00
        E 250 b0 7b 00
        GUID {E2CB26F1-6FEF-1E46-B958-6E8899A49CC1}
        IGNTEMPO 0 120 4 4
        SRCCOLOR 280
        VELLANE 31 86 6
      >
    >
  >
  <TRACK {BE34EA7E-2789-BE43-9D9C-227AFB60631D}
    NAME "ch5 (send bass)"
    PEAKCOL 16576
    BEAT -1
    AUTOMODE 0
    VOLPAN 1 0 -1 -1 1
    MUTESOLO 0 0 0
    IPHASE 0
    ISBUS 2 -1
    BUSCOMP 0 0
    SHOWINMIX 1 0.6667 0.698113 1 0.5 -1 -1 -1
    FREEMODE 0
    SEL 0
    REC 0 0 0 0 0 0 0
    VU 2
    TRACKHEIGHT 0 0
    INQ 0 0 0 0.5 100 0 0 100
    NCHAN 2
    FX 1
    TRACKID {BE34EA7E-2789-BE43-9D9C-227AFB60631D}
    PERF 0
    MIDIOUT -1
    MAINSEND 1 0
  >
  <TRACK {B91E5163-8C2B-404F-8C78-0605AAF52936}
    NAME ChipFront
    PEAKCOL 16576
    BEAT -1
    AUTOMODE 0
    VOLPAN 1 0 -1 -1 1
    MUTESOLO 0 0 0
    IPHASE 0
    ISBUS 0 0
    BUSCOMP 0 0
    SHOWINMIX 1 0.6667 0.698113 1 0.5 -1 -1 -1
    FREEMODE 0
    SEL 0
    REC 0 0 0 0 0 0 0
    VU 2
    TRACKHEIGHT 0 0
    INQ 0 0 0 0.5 100 0 0 100
    NCHAN 4
    FX 1
    TRACKID {B91E5163-8C2B-404F-8C78-0605AAF52936}
    PERF 0
    AUXRECV 4 0 1 0 0 0 0 0 0 -1 0 -1 ''
    MIDIOUT -1
    MAINSEND 1 0
    <FXCHAIN
      SHOW 0
      LASTSEL 0
      DOCKED 0
      BYPASS 0 0 0
      <VST "VST: FabFilter Volcano 2 (SC) (FabFilter)" "FabFilter Volcano 2 (SC).vst" 0 ""
        NDJWRu9e7f4EAAAAAQAAAAAAAAACAAAAAAAAAAQAAAAAAAAACAAAAAAAAAAEAAAAAQAAAAAAAAACAAAAAAAAAAQAAAAAAAAACAAAAAAAAADcCwAAAAAAAAAAEADvvq3e
        DfCt3gAAAD8AAAA/AAAAPwAAAD8AAIA/AAAAAAAAAD+rqqo+rb5oPwAAAD+KDTI8zczMPQAAAAAAAAAAAAAAAAAAgD8AAIA/Qix2PwAAAD9tsOA9mpkZPwAAAAAAAAAA
        56/fPAAAgD8AAAAAAACAPwAAAD8AAAAAmpkZPwAAAAAAAAAAAAAAAAAAgD8AAAAAAACAPwAAAD8AAAAAmpkZPwAAAAAAAAAAAAAAAAAAgD8AAAAAq6qqPgBOsj4AAAA/
        AAAAAMHKST9ddFE/AAAAAImIiD0AAIA/qheIPgAAAAAAAAAAAAAAAAAAAAAAAIA/AAAAAAAAAD8AAAAAAAAAAAAAAAAAAAA/AAAAAAAAAAAAAAAAAAAAPwAAAAAAAAAA
        AAAAAAAAAD8AAAAAAAAAAAAAAAAAAAA/AAAAAAAAAAAAAAAAAAAAPwAAAAAAAAAAAAAAAAAAAD8AAAAAAAAAAAAAAAAAAAA/AAAAAAAAAAAAAAAAAAAAPwAAAAAAAAAA
        AAAAAAAAAD8AAAAAAAAAAAAAAAAAAAA/AAAAAAAAAAAAAAAAAAAAPwAAAAAAAAAAAAAAAAAAAD8AAAAAAAAAAAAAAAAAAAA/AAAAAAAAAAAAAAAAfBkQPgAAAD8oo7c9
        AACAPwAAAAAAAAAAiYiIPfLSJT8AAAAAAACAPwAAAAB0aNE9AAAAAAAAgD8AAAAAAAAAPwAAAAAAAAAAAAAAAAAAAD8AAAAAAAAAAAAAAAAAAAA/AAAAAAAAAAAAAAAA
        AAAAPwAAAAAAAAAAAAAAAAAAAD8AAAAAAAAAAAAAAAAAAAA/AAAAAAAAAAAAAAAAAAAAPwAAAAAAAAAAAAAAAAAAAD8AAAAAAAAAAAAAAAAAAAA/AAAAAAAAAAAAAAAA
        AAAAPwAAAAAAAAAAAAAAAAAAAD8AAAAAAAAAAAAAAAAAAAA/AAAAAAAAAAAAAAAAAAAAPwAAAAAAAAAAAAAAAAAAAD8AAAAAAAAAAAAAAAC+9H0+AAAAPwAAAD8AAAA/
        AAAAAAAAAACJiIg9AAAAPwAAAAAAAAAAAAAAAAAAAD8AAAAAAAAAAAAAAAAAAAA/AAAAAAAAAAAAAAAAAAAAPwAAAAAAAAAAAAAAAAAAAD8AAAAAAAAAAAAAAAAAAAA/
        AAAAAAAAAAAAAAAAAAAAPwAAAAAAAAAAAAAAAAAAAD8AAAAAAAAAAAAAAAAAAAA/AAAAAAAAAAAAAAAAAAAAPwAAAAAAAAAAAAAAAAAAAD8AAAAAAAAAAAAAAAAAAAA/
        AAAAAAAAAAAAAAAAAAAAPwAAAAAAAAAAAAAAAAAAAD8AAAAAAAAAAAAAAAAAAAA/AAAAAAAAAAAAAAAAAAAAPwAAAAAAAAAAAAAAAL70fT4AAAA/AAAAPwAAAD8AAAAA
        AAAAAImIiD0AAAA/AAAAAAAAAAAAAAAAAAAAPwAAAAAAAAAAAAAAAAAAAD8AAAAAAAAAAAAAAAAAAAA/AAAAAAAAAAAAAAAAAAAAPwAAAAAAAAAAAAAAAAAAAD8AAAAA
        AAAAAAAAAAAAAAA/AAAAAAAAAAAAAAAAAAAAPwAAAAAAAAAAAAAAAAAAAD8AAAAAAAAAAAAAAAAAAAA/AAAAAAAAAAAAAAAAAAAAPwAAAAAAAAAAAAAAAAAAAD8AAAAA
        AAAAAAAAAAAAAAA/AAAAAAAAAAAAAAAAAAAAPwAAAAAAAAAAAAAAAAAAAD8AAAAAAAAAAAAAAAAAAAA/AAAAAAAAAAAAAAAAvvR9PgAAAD8AAAA/AAAAPwAAAAAAAAAA
        iYiIPQAAAD8AAAAAAAAAAAAAAAAAAAA/AAAAAAAAAAAAAAAAAAAAPwAAAAAAAAAAAAAAAAAAAD8AAAAAAAAAAAAAAAAAAAA/AAAAAAAAAAAAAAAAAAAAPwAAAAAAAAAA
        AAAAAAAAAD8AAAAAAAAAAAAAAAAAAAA/AAAAAAAAAAAAAAAAAAAAPwAAAAAAAAAAAAAAAAAAAD8AAAAAAAAAAAAAAAAAAAA/AAAAAAAAAAAAAAAAAAAAPwAAAAAAAAAA
        AAAAAAAAAD8AAAAAAAAAAAAAAAAAAAA/AAAAAAAAAAAAAAAAAAAAPwAAAAAAAAAAAAAAAAAAAD8AAAAAAAAAAAAAAAC+9H0+AAAAPwAAAD8AAAA/AAAAAAAAAACJiIg9
        AAAAPwAAAAAAAAAAAAAAAAAAAD8AAAAAAAAAAAAAAAAAAAA/AAAAAAAAAAAAAAAAAAAAPwAAAAAAAAAAAAAAAAAAAD8AAAAAAAAAAAAAAAAAAAA/AAAAAAAAAAAAAAAA
        AAAAPwAAAAAAAAAAAAAAAAAAAD8AAAAAAAAAAAAAAAAAAAA/AAAAAAAAAAAAAAAAAAAAPwAAAAAAAAAAAAAAAAAAAD8AAAAAAAAAAAAAAAAAAAA/AAAAAAAAAAAAAAAA
        AAAAPwAAAAAAAAAAAAAAAAAAAD8AAAAAAAAAAAAAAAAAAAA/AAAAAAAAAAAAAAAAAAAAPwAAAAAAAAAAAAAAAAAAAACamZk+AAAAAAAAAAAAAAAAAACAPwAAAACamZk+
        AAAAAAAAAAAAAAAAAACAPwAAAACamZk+AAAAAAAAAAAAAAAAAACAPwAAAACamZk+AAAAAAAAAAAAAAAAAACAPwAAAACamZk+AAAAAAAAAAAAAAAAAACAPwAAAACamZk+
        AAAAAAAAAAAAAAAAAACAPwAAAAAAAAAAAAAAAAAAAAAAAAAAAAAAAAAAAAAAAAAAAAAAAAAAAAAAAAAAAAAAAAAAAAAAAAAAAAAAAAAAAAAAAAAAAAAAAAAAAAAAAAAA
        AAAAAAAAAAAAAAAAAAAAAAAAAAAAAAAAAAAAAAAAAAAAAAAAAAAAAAAAAAAAAAAAAAAAAAAAAAAAAAAAAAAAAAAAAAAAAAAAq6oqPdmJnT2BKFY+AAAAAAAAAAC/55Y9
        AAAAAAAAAD8AAAAAAAAAAAAAAAAAAAAAAAAAPwAAAAAAAAAAAAAAAAAAAAAAAAA/AAAAAAAAAAAAAAAAAAAAAAAAAAAAAAAAAAAAAAAAAAAAAAAAAAAAAAAAAAAAAAAA
        AAAAAAAAAAAAAAAAAAAAAAAAAAAAAAAAAAAAAAAAAAAAAAAAAAAAAAAAAAAAAAAAAAAAAAAAAAAAAAAAAAAAAAAAAAAAAAAAAAAAAAAAAAAAAAAAAAAAAAAAAAAAAAAA
        AAAAAAAAAAAAAAAAAAAAAAAAAAAAAAAAAAAAAAAAAAAAAAAAAAAAAAAAAAAAAAAAAAAAAAAAAAAAAAAAAAAAAAAAAAAAAAAAAAAAAAAAAAAAAAAAAAAAAAAAAAAAAAAA
        AAAAAAAAAAAAAAAAAAAAAAAAAAAAAAAAAAAAAAAAAAAAAAAAAAAAAAAAAAAAAAAAAAAAAAAAAAAAAAAAAAAAAAAAAAAAAAAAAAAAAAAAAAAAAAAAAAAAAAAAAAAAAAAA
        AAAAAAAAAAAAAAAAAAAAAAAAAAAAAAAAAAAAAAAAAAAAAAAAAAAAAAAAAAAAAAAAAAAAAAAAAAAAAAAAAAAAAAAAAAAAAAAAAAAAAAAAAAAAAAA/AAAAPwAAAD8AAAA/
        AAAAPwAAAD8AAAA/AAAAPwAAAAAAAAAAAAAAAAAAAAAAAAAAAAAAAAAAAAAAAAAAAAAAAAAAAAAAAAAAAAAAAAAAAAAAAAAAAAAAAAAAAAAAAAAAAAAAAAAAAAAAAAAA
        AAAAAAAAAAAAAAAAAAAAAAAAAAAAAAAAAAAAAAAAAAAAAAAAAAAAAAAAAAAAAAAAAAAAAAAAAAAAAAAAAAAAAAAAAAAAAAAAAAAAAAAAAAAAAAAAAAAAAAAAAAAAAAAA
        AAAAAAAAAAAAAAAAAAAAAAAAAAAAAAAAAAAAAAAAAAAAAAAAAAAAAAAAAAAAAAAAAAAAAAAAAAAAAAAAAAAAAAAAAAAAAAAAAAAAAAAAAAAAAAAAAAAAAAAAAAAAAAAA
        AAAAAAAAAAAAAAAAAAAAAAAAAAAAAAAAAAAAAAAAAAAAAAAAAAAAAAAAAAAAAAAAAAAAAAAAAABDaGlwRnJvbnQAQ2hpcEZyb250ABAAAAA=
      >
      FLOATPOS 36 32 641 529
      FXID {4C5A6810-F3ED-0645-A06D-6758F70CB097}
      WAK 0
    >
  >
  <TRACK {4E9F66C4-38E7-4946-B39F-214CBB1CFB8B}
    NAME ChipSide
    PEAKCOL 16576
    BEAT -1
    AUTOMODE 0
    VOLPAN 1 0 -1 -1 1
    MUTESOLO 0 0 0
    IPHASE 0
    ISBUS 0 0
    BUSCOMP 0 0
    SHOWINMIX 1 0.6667 0.698113 1 0.5 -1 -1 -1
    FREEMODE 0
    SEL 0
    REC 0 0 0 0 0 0 0
    VU 2
    TRACKHEIGHT 0 0
    INQ 0 0 0 0.5 100 0 0 100
    NCHAN 4
    FX 1
    TRACKID {4E9F66C4-38E7-4946-B39F-214CBB1CFB8B}
    PERF 0
    AUXRECV 4 0 1.03113579563571 0 0 0 0 2 0 -1 0 -1 ''
    MIDIOUT -1
    MAINSEND 1 0
    <FXCHAIN
      SHOW 0
      LASTSEL 0
      DOCKED 0
      BYPASS 0 0 0
      <VST "VST: FabFilter Volcano 2 (SC) (FabFilter)" "FabFilter Volcano 2 (SC).vst" 0 ""
        NDJWRu9e7f4EAAAAAQAAAAAAAAACAAAAAAAAAAQAAAAAAAAACAAAAAAAAAAIAAAAAQAAAAAAAAACAAAAAAAAAAQAAAAAAAAACAAAAAAAAAAQAAAAAAAAACAAAAAAAAAA
        QAAAAAAAAACAAAAAAAAAANwLAAAAAAAAAAAQAO++rd4N8K3eAAAAPwAAAD8AAAA/AAAAPwAAgD8AAAAAAACAP6uqqj7KZRQ/AAAAP08aoD3NzMw9AAAAAAAAAABChiI/
        AACAPwAAgD9CLHY/AAAAP22w4D2amRk/AAAAAAAAAADnr988AACAPwAAAAAAAIA/AAAAPwAAAACamRk/AAAAAAAAAAAAAAAAAACAPwAAAAAAAIA/AAAAPwAAAACamRk/
        AAAAAAAAAAAAAAAAAACAPwAAAACrqqo+gnQAPRDmyT2YJ/o+AACAPwAAAAAAAAAAiYgIPgAAgD+zw7Q+AACAPwAAAAAAAAAAAAAAAKuqqj4AAAAAnhUdPwAAAAAAAIA/
        AAAAAAAAAD8AAAAAAAAAAAAAAAAAAAA/AAAAAAAAAAAAAAAAAAAAPwAAAAAAAAAAAAAAAAAAAD8AAAAAAAAAAAAAAAAAAAA/AAAAAAAAAAAAAAAAAAAAPwAAAAAAAAAA
        AAAAAAAAAD8AAAAAAAAAAAAAAAAAAAA/AAAAAAAAAAAAAAAAAAAAPwAAAAAAAAAAAAAAAAAAAD8AAAAAAAAAAAAAAAAAAAA/AAAAAAAAAAAAAAAAAAAAPwAAAAAAAAAA
        AAAAAAAAAD8AAAAAAAAAAAAAAAB8GRA+AAAAPyijtz0AAIA/AAAAAAAAAACJiIg98tIlPwAAAAAAAIA/AAAAAHRo0T0AAAAAAACAPwAAAAAAAAA/AAAAAAAAAAAAAAAA
        AAAAPwAAAAAAAAAAAAAAAAAAAD8AAAAAAAAAAAAAAAAAAAA/AAAAAAAAAAAAAAAAAAAAPwAAAAAAAAAAAAAAAAAAAD8AAAAAAAAAAAAAAAAAAAA/AAAAAAAAAAAAAAAA
        AAAAPwAAAAAAAAAAAAAAAAAAAD8AAAAAAAAAAAAAAAAAAAA/AAAAAAAAAAAAAAAAAAAAPwAAAAAAAAAAAAAAAAAAAD8AAAAAAAAAAAAAAAAAAAA/AAAAAAAAAAAAAAAA
        AAAAPwAAAAAAAAAAAAAAAL70fT4AAAA/AAAAPwAAAD8AAAAAAAAAAImIiD0AAAA/AAAAAAAAAAAAAAAAAAAAPwAAAAAAAAAAAAAAAAAAAD8AAAAAAAAAAAAAAAAAAAA/
        AAAAAAAAAAAAAAAAAAAAPwAAAAAAAAAAAAAAAAAAAD8AAAAAAAAAAAAAAAAAAAA/AAAAAAAAAAAAAAAAAAAAPwAAAAAAAAAAAAAAAAAAAD8AAAAAAAAAAAAAAAAAAAA/
        AAAAAAAAAAAAAAAAAAAAPwAAAAAAAAAAAAAAAAAAAD8AAAAAAAAAAAAAAAAAAAA/AAAAAAAAAAAAAAAAAAAAPwAAAAAAAAAAAAAAAAAAAD8AAAAAAAAAAAAAAAAAAAA/
        AAAAAAAAAAAAAAAAvvR9PgAAAD8AAAA/AAAAPwAAAAAAAAAAiYiIPQAAAD8AAAAAAAAAAAAAAAAAAAA/AAAAAAAAAAAAAAAAAAAAPwAAAAAAAAAAAAAAAAAAAD8AAAAA
        AAAAAAAAAAAAAAA/AAAAAAAAAAAAAAAAAAAAPwAAAAAAAAAAAAAAAAAAAD8AAAAAAAAAAAAAAAAAAAA/AAAAAAAAAAAAAAAAAAAAPwAAAAAAAAAAAAAAAAAAAD8AAAAA
        AAAAAAAAAAAAAAA/AAAAAAAAAAAAAAAAAAAAPwAAAAAAAAAAAAAAAAAAAD8AAAAAAAAAAAAAAAAAAAA/AAAAAAAAAAAAAAAAAAAAPwAAAAAAAAAAAAAAAAAAAD8AAAAA
        AAAAAAAAAAC+9H0+AAAAPwAAAD8AAAA/AAAAAAAAAACJiIg9AAAAPwAAAAAAAAAAAAAAAAAAAD8AAAAAAAAAAAAAAAAAAAA/AAAAAAAAAAAAAAAAAAAAPwAAAAAAAAAA
        AAAAAAAAAD8AAAAAAAAAAAAAAAAAAAA/AAAAAAAAAAAAAAAAAAAAPwAAAAAAAAAAAAAAAAAAAD8AAAAAAAAAAAAAAAAAAAA/AAAAAAAAAAAAAAAAAAAAPwAAAAAAAAAA
        AAAAAAAAAD8AAAAAAAAAAAAAAAAAAAA/AAAAAAAAAAAAAAAAAAAAPwAAAAAAAAAAAAAAAAAAAD8AAAAAAAAAAAAAAAAAAAA/AAAAAAAAAAAAAAAAAAAAPwAAAAAAAAAA
        AAAAAL70fT4AAAA/AAAAPwAAAD8AAAAAAAAAAImIiD0AAAA/AAAAAAAAAAAAAAAAAAAAPwAAAAAAAAAAAAAAAAAAAD8AAAAAAAAAAAAAAAAAAAA/AAAAAAAAAAAAAAAA
        AAAAPwAAAAAAAAAAAAAAAAAAAD8AAAAAAAAAAAAAAAAAAAA/AAAAAAAAAAAAAAAAAAAAPwAAAAAAAAAAAAAAAAAAAD8AAAAAAAAAAAAAAAAAAAA/AAAAAAAAAAAAAAAA
        AAAAPwAAAAAAAAAAAAAAAAAAAD8AAAAAAAAAAAAAAAAAAAA/AAAAAAAAAAAAAAAAAAAAPwAAAAAAAAAAAAAAAAAAAD8AAAAAAAAAAAAAAAAAAAA/AAAAAAAAAAAAAAAA
        AAAAAJqZmT4AAAAAAAAAAAAAAAAAAIA/AAAAAJqZmT4AAAAAAAAAAAAAAAAAAIA/AAAAAJqZmT4AAAAAAAAAAAAAAAAAAIA/AAAAAJqZmT4AAAAAAAAAAAAAAAAAAIA/
        AAAAAJqZmT4AAAAAAAAAAAAAAAAAAIA/AAAAAJqZmT4AAAAAAAAAAAAAAAAAAIA/AAAAAAAAAAAAAAAAAAAAAAAAAAAAAAAAAAAAAAAAAAAAAAAAAAAAAAAAAAAAAAAA
        AAAAAAAAAAAAAAAAAAAAAAAAAAAAAAAAAAAAAAAAAAAAAAAAAAAAAAAAAAAAAAAAAAAAAAAAAAAAAAAAAAAAAAAAAAAAAAAAAAAAAAAAAAAAAAAAAAAAAAAAAAAAAAAA
        AAAAAAAAAACrqqo92YmdPYEoVj4AAIA/AAAAAL/nlj3ZiR09FrMxPwAAAAAAAAAAknYsPAAAAAAAAAA/AAAAAAAAAAAAAAAAAAAAAAAAAD8AAAAAAAAAAAAAAAAAAAAA
        AAAAAAAAAAAAAAAAAAAAAAAAAAAAAAAAAAAAAAAAAAAAAAAAAAAAAAAAAAAAAAAAAAAAAAAAAAAAAAAAAAAAAAAAAAAAAAAAAAAAAAAAAAAAAAAAAAAAAAAAAAAAAAAA
        AAAAAAAAAAAAAAAAAAAAAAAAAAAAAAAAAAAAAAAAAAAAAAAAAAAAAAAAAAAAAAAAAAAAAAAAAAAAAAAAAAAAAAAAAAAAAAAAAAAAAAAAAAAAAAAAAAAAAAAAAAAAAAAA
        AAAAAAAAAAAAAAAAAAAAAAAAAAAAAAAAAAAAAAAAAAAAAAAAAAAAAAAAAAAAAAAAAAAAAAAAAAAAAAAAAAAAAAAAAAAAAAAAAAAAAAAAAAAAAAAAAAAAAAAAAAAAAAAA
        AAAAAAAAAAAAAAAAAAAAAAAAAAAAAAAAAAAAAAAAAAAAAAAAAAAAAAAAAAAAAAAAAAAAAAAAAAAAAAAAAAAAAAAAAAAAAAAAAAAAAAAAAAAAAAAAAAAAAAAAAAAAAAAA
        AAAAAAAAAAAAAAAAAAAAAAAAAD8AAAA/AAAAPwAAAD8AAAA/AAAAPwAAAD8AAAA/AAAAAAAAAAAAAAAAAAAAAAAAAAAAAAAAAAAAAAAAAAAAAAAAAAAAAAAAAAAAAAAA
        AAAAAAAAAAAAAAAAAAAAAAAAAAAAAAAAAAAAAAAAAAAAAAAAAAAAAAAAAAAAAAAAAAAAAAAAAAAAAAAAAAAAAAAAAAAAAAAAAAAAAAAAAAAAAAAAAAAAAAAAAAAAAAAA
        AAAAAAAAAAAAAAAAAAAAAAAAAAAAAAAAAAAAAAAAAAAAAAAAAAAAAAAAAAAAAAAAAAAAAAAAAAAAAAAAAAAAAAAAAAAAAAAAAAAAAAAAAAAAAAAAAAAAAAAAAAAAAAAA
        AAAAAAAAAAAAAAAAAAAAAAAAAAAAAAAAAAAAAAAAAAAAAAAAAAAAAAAAAAAAAAAAAAAAAAAAAAAAAAAAAAAAAAAAAAAAAAAAAAAAAAAAAAAAAAAAAAAAAENoaXBTaWRl
        AENoaXBTaWRlABAAAAA=
      >
      FLOATPOS 36 32 641 529
      FXID {20356A84-5CFD-6E4A-AA26-2A8A49CE7A76}
      WAK 0
    >
  >
  <TRACK {C7DEC902-D205-6F4F-A2A0-549489400E1B}
    NAME "09 Slovakia"
    PEAKCOL 16576
    BEAT -1
    AUTOMODE 0
    VOLPAN 1 0 -1 -1 1
    MUTESOLO 1 0 0
    IPHASE 0
    ISBUS 0 0
    BUSCOMP 2 0
    SHOWINMIX 1 0.6667 0.5 1 0.5 -1 -1 -1
    FREEMODE 0
    SEL 0
    REC 0 0 0 0 0 0 0
    VU 2
    TRACKHEIGHT 0 0
    INQ 0 0 0 0.5 100 0 0 100
    NCHAN 2
    FX 1
    TRACKID {C7DEC902-D205-6F4F-A2A0-549489400E1B}
    PERF 0
    MIDIOUT -1
    MAINSEND 1 0
    <ITEM
      POSITION 0
      SNAPOFFS 0
      LENGTH 50.62875016470947
      LOOP 1
      ALLTAKES 0
      FADEIN 1 0 0 1 0 0
      FADEOUT 1 0 0 1 0 0
      MUTE 0
      SEL 0
      IGUID {66EF709F-0998-124E-8225-720CA5CFDFA7}
      IID 10
      NAME "09 Slovakia.mp3"
      VOLPAN 1 0 1 -1
      SOFFS 0.34198955019505
      PLAYRATE 1.22407393292777 1 0 -1 0 0.0025
      CHANMODE 0
      GUID {6ABF60DA-1037-D54B-970C-3D38FEDC6228}
      <SOURCE MP3
        FILE "09 Slovakia.mp3" 1
      >
    >
  >
  <EXTENSIONS
    <SWSAUTOCOLOR
      {00000000-0000-0000-0000-000000000000} 0 ""
    >
    <XENAKIOSCOMMANDS
      REFTRACK 0 5 1 "000000000000"
    >
    <BR_CURSOR_POS 04
      0.00000000000000
    >
  >
>
