<REAPER_PROJECT 0.1 "5.50rc21/OSX64" 1511883526
  RIPPLE 0
  GROUPOVERRIDE 0 0 0
  AUTOXFADE 0
  ENVATTACH 1
  POOLEDENVATTACH 0
  MIXERUIFLAGS 11 308
  PEAKGAIN 1
  FEEDBACK 0
  PANLAW 1
  PROJOFFS 0 0
  MAXPROJLEN 0 600
  GRID 174206 8 1 8 1 0 0 0
  TIMEMODE 6 0 -1 24 2
  PANMODE 3
  CURSOR 34
  ZOOM 13.76859504132231 0 0
  VZOOMEX 0
  USE_REC_CFG 0
  RECMODE 1
  SMPTESYNC 0 23.976024 100 40 1000 300 0 0 1 0 0
  MIDIEDITOR -116919545 0 0
  LOOP 1
  LOOPGRAN 0 4
  RECORD_PATH "" ""
  <RECORD_CFG
    ZXZhdxAA
  >
  <APPLYFX_CFG
  >
  RENDER_FILE "/Users/samenglander/_dev/colorflags/anthems/czechrepublic_1.wav"
  RENDER_FMT 0 2 44100
  RENDER_1X 0
  RENDER_RANGE 2 0 0 18 1000
  RENDER_RESAMPLE 3 0 1
  RENDER_ADDTOPROJ 0
  RENDER_STEMS 0
  RENDER_DITHER 0
  TIMELOCKMODE 1
  TEMPOENVLOCKMODE 1
  ITEMMIX 0
  DEFPITCHMODE 589824
  TAKELANE 3
  SAMPLERATE 44100 0 0
  <RENDER_CFG
    ZXZhdxAAAA==
  >
  LOCK 1
  <METRONOME 6 2
    VOL 0.25 0.125
    FREQ 800 1600 1
    BEATLEN 4
    SAMPLES "" ""
    PATTERN 2863311530 2863311529
  >
  GLOBAL_AUTO -1
  TEMPO 120 4 4
  PLAYRATE 1 0 0.25 4
  SELECTION 54 34
  SELECTION2 54 34
  MASTERAUTOMODE 0
  MASTERTRACKHEIGHT 0
  MASTERPEAKCOL 16576
  MASTERMUTESOLO 0
  MASTERTRACKVIEW 0 0.6667 0.5 0.5 0 0 0
  MASTERHWOUT 0 0 1 0 0 0 0 -1
  MASTER_NCH 2 2
  MASTER_VOLUME 1 0 -1 -1 1
  MASTER_FX 1
  MASTER_SEL 0
  <MASTERPLAYSPEEDENV
    ACT 0
    VIS 0 1 1
    LANEHEIGHT 0 0
    ARM 0
    DEFSHAPE 0 -1 -1
  >
  <TEMPOENVEX
    ACT 0
    VIS 1 0 1
    LANEHEIGHT 0 0
    ARM 0
    DEFSHAPE 1 -1 -1
  >
  <PROJBAY
  >
  <TRACK {49F72B05-4927-6248-8DCB-E69CF65AB3FA}
    NAME ""
    PEAKCOL 16576
    BEAT -1
    AUTOMODE 0
    VOLPAN 1 0 -1 -1 1
    MUTESOLO 0 0 0
    IPHASE 0
    ISBUS 0 0
    BUSCOMP 0 0
    SHOWINMIX 1 0.6667 0.5 1 0.5 0 0 0
    FREEMODE 0
    SEL 0
    REC 0 0 0 0 0 0 0
    VU 2
    MIDICTL -1 1
    TRACKHEIGHT 25 0
    INQ 0 0 0 0.5 100 0 0 100
    NCHAN 2
    FX 1
    TRACKID {49F72B05-4927-6248-8DCB-E69CF65AB3FA}
    PERF 0
    MIDIOUT -1
    MAINSEND 1 0
    <ITEM
      POSITION 0
      SNAPOFFS 0
      LENGTH 55
      LOOP 1
      ALLTAKES 0
      FADEIN 1 0 0 1 0 0
      FADEOUT 1 0 0 1 0 0
      MUTE 0
      SEL 0
      YPOS 0.111111 0.111111
      IGUID {CC675639-3391-4D44-94A4-6B865B1F6C24}
      IID 2
      NAME "Accomp. RH           - National_Anthems_-_Czech_Republic.mid"
      VOLPAN 1 0 1 -1
      SOFFS 0 0
      PLAYRATE 1 1 0 -1 0 0.0025
      CHANMODE 0
      TAKECOLOR 26173599 B
      GUID {F50486AD-4C93-A64E-B992-287D896EF132}
      <SOURCE MIDI
        HASDATA 1 192 QN
        POOLEDEVTS {33D1E80D-27AE-F845-8491-D02D8C665223}
        <X 0 0 0 0 3 "Accomp. RH          "
          /wNBY2NvbXAuIFJIICAgICAgICAgIA==
        >
        e 192 91 3e 64
        e 0 91 42 64
        e 0 91 45 64
        e 382 81 3e 40
        e 0 81 42 40
        e 0 81 45 40
        e 2 91 3e 64
        e 0 91 43 64
        e 0 91 47 64
        e 94 81 3e 40
        e 0 81 43 40
        e 0 81 47 40
        e 2 91 3e 64
        e 0 91 42 64
        e 0 91 45 64
        e 94 81 3e 40
        e 0 81 42 40
        e 0 81 45 40
        e 2 91 3b 64
        e 0 91 40 64
        e 190 81 3b 40
        e 0 81 40 40
        e 2 91 3b 64
        e 0 91 3d 64
        e 0 91 43 64
        e 382 81 3b 40
        e 0 81 3d 40
        e 0 81 43 40
        e 2 91 39 64
        e 0 91 3d 64
        e 0 91 42 64
        e 94 81 39 40
        e 0 81 3d 40
        e 0 81 42 40
        e 2 91 37 64
        e 0 91 40 64
        e 94 81 37 40
        e 0 81 40 40
        e 2 91 36 64
        e 0 91 3e 64
        e 574 81 36 40
        e 0 81 3e 40
        e 2 91 36 64
        e 0 91 3c 64
        e 0 91 3e 64
        e 142 81 3e 40
        e 48 81 36 40
        e 0 81 3c 40
        e 2 91 3b 64
        e 0 91 3e 64
        e 94 81 3b 40
        e 0 81 3e 40
        e 2 91 43 64
        e 94 81 43 40
        e 2 91 3b 64
        e 0 91 3e 64
        e 0 91 43 64
        e 382 81 3b 40
        e 0 81 3e 40
        e 0 81 43 40
        e 2 91 39 64
        e 0 91 3e 64
        e 0 91 45 64
        e 94 81 39 40
        e 0 81 3e 40
        e 0 81 45 40
        e 2 91 3b 64
        e 0 91 47 64
        e 94 81 3b 40
        e 0 81 47 40
        e 2 91 39 64
        e 0 91 3d 64
        e 0 91 45 64
        e 94 81 39 40
        e 0 81 3d 40
        e 0 81 45 40
        e 2 91 42 64
        e 94 81 42 40
        e 2 91 36 64
        e 0 91 3b 64
        e 0 91 3e 64
        e 190 81 3b 40
        e 192 81 36 40
        e 0 81 3e 40
        e 2 91 36 64
        e 0 91 39 64
        e 0 91 3e 64
        e 94 81 39 40
        e 0 81 3e 40
        e 2 91 3e 64
        e 22 81 36 40
        e 74 81 3e 40
        e 0 91 37 64
        e 0 91 3e 64
        e 94 81 37 40
        e 0 81 3e 40
        e 2 91 43 64
        e 94 81 43 40
        e 2 91 3b 64
        e 0 91 3e 64
        e 0 91 43 64
        e 94 81 3b 40
        e 0 81 3e 40
        e 0 81 43 40
        e 2 91 47 64
        e 94 81 47 40
        e 2 91 3e 64
        e 0 91 47 64
        e 0 91 4a 64
        e 190 81 3e 40
        e 0 81 47 40
        e 0 81 4a 40
        e 2 91 3d 64
        e 0 91 45 64
        e 0 91 49 64
        e 94 81 3d 40
        e 0 81 45 40
        e 0 81 49 40
        e 2 91 3b 64
        e 0 91 44 64
        e 0 91 47 64
        e 94 81 3b 40
        e 0 81 44 40
        e 0 81 47 40
        e 2 91 3b 64
        e 0 91 44 64
        e 0 91 47 64
        e 190 81 3b 40
        e 0 81 44 40
        e 0 81 47 40
        e 2 91 39 64
        e 0 91 42 64
        e 0 91 45 64
        e 94 81 39 40
        e 2 91 3b 64
        e 94 81 3b 40
        e 2 91 3d 64
        e 190 81 42 40
        e 0 81 45 40
        e 2 91 45 64
        e 142 81 45 40
        e 2 91 45 64
        e 46 81 3d 40
        e 0 81 45 40
        e 2 91 3d 64
        e 0 91 43 64
        e 0 91 45 64
        e 462 81 3d 40
        e 0 81 43 40
        e 0 81 45 40
        e 18 91 3b 64
        e 0 91 43 64
        e 0 91 47 64
        e 94 81 3b 40
        e 0 81 43 40
        e 0 81 47 40
        e 2 91 3c 64
        e 0 91 42 64
        e 0 91 45 64
        e 94 81 3c 40
        e 0 81 42 40
        e 0 81 45 40
        e 2 91 3d 64
        e 0 91 40 64
        e 0 91 43 64
        e 94 81 3d 40
        e 0 81 40 40
        e 0 81 43 40
        e 2 91 3e 64
        e 0 91 42 64
        e 574 81 3e 40
        e 0 81 42 40
        e 2 91 3e 64
        e 0 91 42 64
        e 0 91 45 64
        e 142 81 3e 40
        e 0 81 42 40
        e 0 81 45 40
        e 2 91 45 64
        e 46 81 45 40
        e 2 91 40 64
        e 0 91 43 64
        e 0 91 49 64
        e 414 81 40 40
        e 0 81 43 40
        e 0 81 49 40
        e 66 91 3b 64
        e 0 91 43 64
        e 0 91 47 64
        e 94 81 3b 40
        e 0 81 43 40
        e 0 81 47 40
        e 2 91 3c 64
        e 0 91 42 64
        e 0 91 45 64
        e 94 81 3c 40
        e 0 81 42 40
        e 0 81 45 40
        e 2 91 3d 64
        e 0 91 40 64
        e 0 91 43 64
        e 94 81 3d 40
        e 0 81 40 40
        e 0 81 43 40
        e 2 91 3e 64
        e 0 91 42 64
        e 574 81 3e 40
        e 0 81 42 40
        e 2 91 3a 64
        e 0 91 40 64
        e 0 91 42 64
        e 142 81 42 40
        e 2 91 42 64
        e 46 81 3a 40
        e 0 81 40 40
        e 0 81 42 40
        e 2 91 3b 64
        e 0 91 3e 64
        e 0 91 42 64
        e 190 81 3b 40
        e 0 81 3e 40
        e 2 91 3b 64
        e 0 91 3e 64
        e 190 81 3b 40
        e 0 81 3e 40
        e 2 91 3a 64
        e 0 91 40 64
        e 30 81 42 40
        e 66 91 42 64
        e 94 81 3a 40
        e 0 81 40 40
        e 0 81 42 40
        e 2 91 3e 64
        e 0 91 42 64
        e 0 91 44 64
        e 94 81 3e 40
        e 0 81 42 40
        e 0 81 44 40
        e 2 91 3d 64
        e 0 91 40 64
        e 0 91 46 64
        e 94 81 3d 40
        e 0 81 40 40
        e 0 81 46 40
        e 2 91 3d 64
        e 0 91 40 64
        e 0 91 46 64
        e 94 81 3d 40
        e 0 81 40 40
        e 0 81 46 40
        e 2 91 3b 64
        e 0 91 3d 64
        e 0 91 3e 64
        e 0 91 47 64
        e 94 81 3b 40
        e 0 81 3d 40
        e 0 81 3e 40
        e 0 81 47 40
        e 2 91 3b 64
        e 0 91 3e 64
        e 0 91 47 64
        e 382 81 3b 40
        e 0 81 3e 40
        e 0 81 47 40
        e 2 91 3b 64
        e 0 91 43 64
        e 0 91 47 64
        e 142 81 47 40
        e 2 91 47 64
        e 46 81 3b 40
        e 0 81 43 40
        e 0 81 47 40
        e 2 91 40 64
        e 0 91 43 64
        e 0 91 47 64
        e 94 81 47 40
        e 2 91 45 64
        e 94 81 40 40
        e 0 81 43 40
        e 0 81 45 40
        e 2 91 3d 64
        e 0 91 43 64
        e 0 91 45 64
        e 382 81 3d 40
        e 0 81 43 40
        e 0 81 45 40
        e 2 91 3d 64
        e 0 91 43 64
        e 94 81 43 40
        e 96 81 3d 40
        e 2 91 3e 64
        e 0 91 42 64
        e 190 81 3e 40
        e 0 81 42 40
        e 2 91 42 64
        e 0 91 47 64
        e 0 91 4a 64
        e 382 81 42 40
        e 0 81 47 40
        e 0 81 4a 40
        e 2 91 3e 64
        e 0 91 45 64
        e 0 91 49 64
        e 94 81 45 40
        e 0 81 49 40
        e 2 91 43 64
        e 0 91 47 64
        e 94 81 3e 40
        e 0 81 43 40
        e 0 81 47 40
        e 2 91 3e 64
        e 0 91 42 64
        e 0 91 47 64
        e 190 81 47 40
        e 2 91 45 64
        e 190 81 3e 40
        e 0 81 42 40
        e 192 81 45 40
        e 2 91 37 64
        e 0 91 3d 64
        e 0 91 40 64
        e 94 81 37 40
        e 2 91 42 64
        e 94 81 3d 40
        e 0 81 40 40
        e 0 81 42 40
        e 2 91 36 64
        e 0 91 3e 64
        e 382 81 36 40
        e 0 81 3e 40
        e 386 91 42 64
        e 94 81 42 40
        e 2 91 44 64
        e 94 81 44 40
        e 2 91 3d 64
        e 0 91 42 64
        e 0 91 45 64
        e 190 81 3d 40
        e 0 81 42 40
        e 0 81 45 40
        e 2 91 3d 64
        e 0 91 42 64
        e 0 91 45 64
        e 190 81 3d 40
        e 0 81 42 40
        e 0 81 45 40
        e 2 91 3e 64
        e 0 91 42 64
        e 0 91 45 64
        e 94 81 3e 40
        e 0 81 42 40
        e 0 81 45 40
        e 2 91 3d 64
        e 0 91 42 64
        e 0 91 45 64
        e 94 81 3d 40
        e 0 81 42 40
        e 0 81 45 40
        e 2 91 3b 64
        e 0 91 42 64
        e 0 91 44 64
        e 94 81 3b 40
        e 0 81 42 40
        e 0 81 44 40
        e 2 91 3d 64
        e 0 91 42 64
        e 0 91 45 64
        e 94 81 3d 40
        e 0 81 42 40
        e 0 81 45 40
        e 2 91 3e 64
        e 0 91 42 64
        e 0 91 47 64
        e 94 81 3e 40
        e 0 81 42 40
        e 0 81 47 40
        e 2 91 3d 64
        e 0 91 42 64
        e 0 91 45 64
        e 94 81 3d 40
        e 0 81 42 40
        e 0 81 45 40
        e 2 91 3b 64
        e 0 91 42 64
        e 0 91 44 64
        e 94 81 42 40
        e 2 91 41 64
        e 94 81 3b 40
        e 0 81 44 40
        e 0 81 41 40
        e 2 91 39 64
        e 0 91 3d 64
        e 0 91 42 64
        e 190 81 39 40
        e 0 81 3d 40
        e 0 81 42 40
        e 2 91 45 64
        e 94 81 45 40
        e 2 91 47 64
        e 94 81 47 40
        e 2 91 40 64
        e 0 91 45 64
        e 0 91 49 64
        e 190 81 40 40
        e 0 81 45 40
        e 0 81 49 40
        e 2 91 40 64
        e 0 91 45 64
        e 0 91 49 64
        e 190 81 40 40
        e 0 81 45 40
        e 0 81 49 40
        e 2 91 42 64
        e 0 91 45 64
        e 0 91 49 64
        e 94 81 42 40
        e 0 81 45 40
        e 0 81 49 40
        e 2 91 40 64
        e 0 91 45 64
        e 0 91 49 64
        e 94 81 40 40
        e 0 81 45 40
        e 0 81 49 40
        e 2 91 3e 64
        e 0 91 45 64
        e 0 91 47 64
        e 94 81 3e 40
        e 0 81 45 40
        e 0 81 47 40
        e 2 91 40 64
        e 0 91 45 64
        e 0 91 49 64
        e 94 81 40 40
        e 0 81 45 40
        e 0 81 49 40
        e 2 91 42 64
        e 0 91 45 64
        e 0 91 4a 64
        e 94 81 42 40
        e 0 81 45 40
        e 0 81 4a 40
        e 2 91 40 64
        e 0 91 45 64
        e 0 91 49 64
        e 94 81 40 40
        e 0 81 45 40
        e 0 81 49 40
        e 2 91 3e 64
        e 0 91 45 64
        e 0 91 47 64
        e 94 81 45 40
        e 2 91 44 64
        e 94 81 3e 40
        e 0 81 47 40
        e 0 81 44 40
        e 2 91 3d 64
        e 0 91 40 64
        e 0 91 45 64
        e 190 81 3d 40
        e 0 81 40 40
        e 0 81 45 40
        e 2 91 40 64
        e 0 91 45 64
        e 0 91 49 64
        e 94 81 40 40
        e 0 81 45 40
        e 0 81 49 40
        e 2 91 40 64
        e 0 91 45 64
        e 0 91 49 64
        e 94 81 40 40
        e 0 81 45 40
        e 0 81 49 40
        e 2 91 40 64
        e 0 91 45 64
        e 0 91 49 64
        e 190 81 40 40
        e 0 81 45 40
        e 0 81 49 40
        e 2 91 3e 64
        e 0 91 42 64
        e 0 91 47 64
        e 190 81 3e 40
        e 0 81 42 40
        e 0 81 47 40
        e 2 91 3e 64
        e 0 91 42 64
        e 0 91 47 64
        e 94 81 3e 40
        e 0 81 42 40
        e 0 81 47 40
        e 2 91 3e 64
        e 0 91 42 64
        e 0 91 47 64
        e 94 81 3e 40
        e 0 81 42 40
        e 0 81 47 40
        e 2 91 3e 64
        e 0 91 44 64
        e 0 91 47 64
        e 94 81 3e 40
        e 0 81 44 40
        e 0 81 47 40
        e 2 91 40 64
        e 0 91 44 64
        e 0 91 49 64
        e 94 81 40 40
        e 0 81 44 40
        e 0 81 49 40
        e 2 91 3e 64
        e 0 91 42 64
        e 0 91 47 64
        e 94 81 42 40
        e 2 91 44 64
        e 94 81 3e 40
        e 0 81 47 40
        e 0 81 44 40
        e 2 91 3d 64
        e 0 91 42 64
        e 0 91 45 64
        e 190 81 3d 40
        e 0 81 42 40
        e 0 81 45 40
        e 2 91 3e 64
        e 0 91 42 64
        e 0 91 45 64
        e 94 81 3e 40
        e 0 81 42 40
        e 0 81 45 40
        e 2 91 3d 64
        e 0 91 42 64
        e 0 91 45 64
        e 94 81 3d 40
        e 0 81 42 40
        e 0 81 45 40
        e 2 91 3b 64
        e 0 91 42 64
        e 0 91 44 64
        e 94 81 3b 40
        e 0 81 42 40
        e 0 81 44 40
        e 2 91 3d 64
        e 0 91 42 64
        e 0 91 45 64
        e 94 81 3d 40
        e 0 81 42 40
        e 0 81 45 40
        e 2 91 3e 64
        e 0 91 42 64
        e 0 91 47 64
        e 94 81 3e 40
        e 0 81 42 40
        e 0 81 47 40
        e 2 91 3d 64
        e 0 91 42 64
        e 0 91 45 64
        e 94 81 3d 40
        e 0 81 42 40
        e 0 81 45 40
        e 2 91 3b 64
        e 0 91 42 64
        e 0 91 44 64
        e 94 81 42 40
        e 2 91 41 64
        e 94 81 3b 40
        e 0 81 44 40
        e 0 81 41 40
        e 2 91 39 64
        e 0 91 3d 64
        e 0 91 42 64
        e 190 81 39 40
        e 0 81 3d 40
        e 0 81 42 40
        e 2 91 40 64
        e 0 91 45 64
        e 0 91 49 64
        e 94 81 40 40
        e 0 81 45 40
        e 0 81 49 40
        e 2 91 40 64
        e 0 91 45 64
        e 0 91 49 64
        e 94 81 40 40
        e 0 81 45 40
        e 0 81 49 40
        e 2 91 40 64
        e 0 91 45 64
        e 0 91 49 64
        e 190 81 40 40
        e 0 81 45 40
        e 0 81 49 40
        e 2 91 3e 64
        e 0 91 42 64
        e 0 91 47 64
        e 190 81 3e 40
        e 0 81 42 40
        e 0 81 47 40
        e 2 91 3e 64
        e 0 91 42 64
        e 0 91 47 64
        e 94 81 3e 40
        e 0 81 42 40
        e 0 81 47 40
        e 2 91 3e 64
        e 0 91 42 64
        e 0 91 47 64
        e 94 81 3e 40
        e 0 81 42 40
        e 0 81 47 40
        e 2 91 3e 64
        e 0 91 44 64
        e 0 91 47 64
        e 94 81 3e 40
        e 0 81 44 40
        e 0 81 47 40
        e 2 91 40 64
        e 0 91 44 64
        e 0 91 49 64
        e 94 81 40 40
        e 0 81 44 40
        e 0 81 49 40
        e 2 91 3e 64
        e 0 91 42 64
        e 0 91 47 64
        e 94 81 42 40
        e 2 91 44 64
        e 94 81 3e 40
        e 0 81 47 40
        e 0 81 44 40
        e 2 91 3d 64
        e 0 91 42 64
        e 0 91 45 64
        e 190 81 3d 40
        e 0 81 42 40
        e 0 81 45 40
        e 2 91 3e 64
        e 0 91 42 64
        e 0 91 45 64
        e 94 81 3e 40
        e 0 81 42 40
        e 0 81 45 40
        e 2 91 3d 64
        e 0 91 42 64
        e 0 91 45 64
        e 94 81 3d 40
        e 0 81 42 40
        e 0 81 45 40
        e 2 91 3b 64
        e 0 91 42 64
        e 0 91 44 64
        e 94 81 3b 40
        e 0 81 42 40
        e 0 81 44 40
        e 2 91 3d 64
        e 0 91 42 64
        e 0 91 45 64
        e 94 81 3d 40
        e 0 81 42 40
        e 0 81 45 40
        e 2 91 3e 64
        e 0 91 42 64
        e 0 91 47 64
        e 94 81 3e 40
        e 0 81 42 40
        e 0 81 47 40
        e 2 91 3d 64
        e 0 91 42 64
        e 0 91 45 64
        e 94 81 3d 40
        e 0 81 42 40
        e 0 81 45 40
        e 2 91 3b 64
        e 0 91 42 64
        e 0 91 44 64
        e 94 81 42 40
        e 2 91 41 64
        e 94 81 3b 40
        e 0 81 44 40
        e 0 81 41 40
        e 2 91 39 64
        e 0 91 3d 64
        e 0 91 42 64
        e 575 81 39 40
        e 0 81 3d 40
        e 0 81 42 40
        E 1 b0 7b 00
        GUID {3390A934-AF7E-0743-898E-3604A057D7C6}
        IGNTEMPO 0 120 4 4
        SRCCOLOR 614
        VELLANE -1 86 6
        CFGEDITVIEW -190.926214 108.607402 76 16 0 0 0 0 0 0.5
        KEYSNAP 0
        TRACKSEL 226
        EVTFILTER 0 -1 -1 -1 -1 0 0 0 0 -1 -1 -1 -1 0 -1 0 -1 -1
        CFGEDIT 1 1 0 0 0 0 1 0 1 1 1 0.25 506 494 1014 762 1 0 1 3 0 0 0 0 0 -1 0 0 1 64
      >
      TAKE
      NAME "Accomp. RH           - National_Anthems_-_Czech_Republic.mid"
      TAKEVOLPAN 0 1 -1
      SOFFS 0 0
      PLAYRATE 1 1 0 -1 0 0.0025
      CHANMODE 0
      GUID {972581AB-D403-734D-A64E-9BA32A74F232}
      <SOURCE MIDI
        HASDATA 1 192 QN
        POOLEDEVTS {4DC09A37-216B-2A45-8FA8-327561D05E76}
        <X 0 0 0 0 3 "Accomp. RH          "
          /wNBY2NvbXAuIFJIICAgICAgICAgIA==
        >
        E 192 91 45 64
        E 0 91 3e 64
        E 0 91 42 64
        E 382 81 45 40
        E 0 81 3e 40
        E 0 81 42 40
        E 2 91 47 64
        E 0 91 43 64
        E 0 91 3e 64
        E 94 81 47 40
        E 0 81 43 40
        E 0 81 3e 40
        E 2 91 45 64
        E 0 91 42 64
        E 0 91 3e 64
        E 94 81 45 40
        E 0 81 42 40
        E 0 81 3e 40
        E 2 91 40 64
        E 0 91 3b 64
        E 190 81 40 40
        E 0 81 3b 40
        E 2 91 3b 64
        E 0 91 43 64
        E 0 91 3d 64
        E 382 81 3b 40
        E 0 81 43 40
        E 0 81 3d 40
        E 2 91 42 64
        E 0 91 39 64
        E 0 91 3d 64
        E 94 81 42 40
        E 0 81 39 40
        E 0 81 3d 40
        E 2 91 40 64
        E 0 91 37 64
        E 94 81 40 40
        E 0 81 37 40
        E 2 91 3e 64
        E 0 91 36 64
        E 574 81 3e 40
        E 0 81 36 40
        E 2 91 3e 64
        E 0 91 36 64
        E 0 91 3c 64
        E 142 81 3e 40
        E 48 81 36 40
        E 0 81 3c 40
        E 2 91 3b 64
        E 0 91 3e 64
        E 94 81 3b 40
        E 0 81 3e 40
        E 2 91 43 64
        E 94 81 43 40
        E 2 91 3b 64
        E 0 91 3e 64
        E 0 91 43 64
        E 382 81 3b 40
        E 0 81 3e 40
        E 0 81 43 40
        E 2 91 45 64
        E 0 91 3e 64
        E 0 91 39 64
        E 94 81 45 40
        E 0 81 3e 40
        E 0 81 39 40
        E 2 91 47 64
        E 0 91 3b 64
        E 94 81 47 40
        E 0 81 3b 40
        E 2 91 45 64
        E 0 91 3d 64
        E 0 91 39 64
        E 94 81 45 40
        E 0 81 3d 40
        E 0 81 39 40
        E 2 91 42 64
        E 94 81 42 40
        E 2 91 36 64
        E 0 91 3e 64
        E 0 91 3b 64
        E 190 81 3b 40
        E 192 81 36 40
        E 0 81 3e 40
        E 2 91 39 64
        E 0 91 3e 64
        E 0 91 36 64
        E 94 81 39 40
        E 0 81 3e 40
        E 2 91 3e 64
        E 22 81 36 40
        E 74 81 3e 40
        E 0 91 3e 64
        E 0 91 37 64
        E 94 81 3e 40
        E 0 81 37 40
        E 2 91 43 64
        E 94 81 43 40
        E 2 91 43 64
        E 0 91 3e 64
        E 0 91 3b 64
        E 94 81 43 40
        E 0 81 3e 40
        E 0 81 3b 40
        E 2 91 47 64
        E 94 81 47 40
        E 2 91 47 64
        E 0 91 3e 64
        E 0 91 4a 64
        E 190 81 47 40
        E 0 81 3e 40
        E 0 81 4a 40
        E 2 91 45 64
        E 0 91 49 64
        E 0 91 3d 64
        E 94 81 45 40
        E 0 81 49 40
        E 0 81 3d 40
        E 2 91 44 64
        E 0 91 47 64
        E 0 91 3b 64
        E 94 81 44 40
        E 0 81 47 40
        E 0 81 3b 40
        E 2 91 47 64
        E 0 91 3b 64
        E 0 91 44 64
        E 190 81 47 40
        E 0 81 3b 40
        E 0 81 44 40
        E 2 91 42 64
        E 0 91 39 64
        E 0 91 45 64
        E 94 81 39 40
        E 2 91 3b 64
        E 94 81 3b 40
        E 2 91 3d 64
        E 190 81 42 40
        E 0 81 45 40
        E 2 91 45 64
        E 142 81 45 40
        E 2 91 45 64
        E 46 81 3d 40
        E 0 81 45 40
        E 2 91 43 64
        E 0 91 3d 64
        E 0 91 45 64
        E 462 81 43 40
        E 0 81 3d 40
        E 0 81 45 40
        E 18 91 47 64
        E 0 91 43 64
        E 0 91 3b 64
        E 94 81 47 40
        E 0 81 43 40
        E 0 81 3b 40
        E 2 91 45 64
        E 0 91 42 64
        E 0 91 3c 64
        E 94 81 45 40
        E 0 81 42 40
        E 0 81 3c 40
        E 2 91 43 64
        E 0 91 40 64
        E 0 91 3d 64
        E 94 81 43 40
        E 0 81 40 40
        E 0 81 3d 40
        E 2 91 42 64
        E 0 91 3e 64
        E 574 81 42 40
        E 0 81 3e 40
        E 2 91 45 64
        E 0 91 3e 64
        E 0 91 42 64
        E 142 81 45 40
        E 0 81 3e 40
        E 0 81 42 40
        E 2 91 45 64
        E 46 81 45 40
        E 2 91 49 64
        E 0 91 40 64
        E 0 91 43 64
        E 414 81 49 40
        E 0 81 40 40
        E 0 81 43 40
        E 66 91 43 64
        E 0 91 47 64
        E 0 91 3b 64
        E 94 81 43 40
        E 0 81 47 40
        E 0 81 3b 40
        E 2 91 45 64
        E 0 91 3c 64
        E 0 91 42 64
        E 94 81 45 40
        E 0 81 3c 40
        E 0 81 42 40
        E 2 91 3d 64
        E 0 91 40 64
        E 0 91 43 64
        E 94 81 3d 40
        E 0 81 40 40
        E 0 81 43 40
        E 2 91 42 64
        E 0 91 3e 64
        E 574 81 42 40
        E 0 81 3e 40
        E 2 91 42 64
        E 0 91 3a 64
        E 0 91 40 64
        E 142 81 42 40
        E 2 91 42 64
        E 46 81 3a 40
        E 0 81 40 40
        E 0 81 42 40
        E 2 91 42 64
        E 0 91 3e 64
        E 0 91 3b 64
        E 190 81 3e 40
        E 0 81 3b 40
        E 2 91 3e 64
        E 0 91 3b 64
        E 190 81 3e 40
        E 0 81 3b 40
        E 2 91 40 64
        E 0 91 3a 64
        E 30 81 42 40
        E 66 91 42 64
        E 94 81 40 40
        E 0 81 3a 40
        E 0 81 42 40
        E 2 91 3e 64
        E 0 91 44 64
        E 0 91 42 64
        E 94 81 3e 40
        E 0 81 44 40
        E 0 81 42 40
        E 2 91 40 64
        E 0 91 3d 64
        E 0 91 46 64
        E 94 81 40 40
        E 0 81 3d 40
        E 0 81 46 40
        E 2 91 40 64
        E 0 91 46 64
        E 0 91 3d 64
        E 94 81 40 40
        E 0 81 46 40
        E 0 81 3d 40
        E 2 91 3d 64
        E 0 91 3e 64
        E 0 91 47 64
        E 0 91 3b 64
        E 94 81 3d 40
        E 0 81 3e 40
        E 0 81 47 40
        E 0 81 3b 40
        E 2 91 3b 64
        E 0 91 3e 64
        E 0 91 47 64
        E 382 81 3b 40
        E 0 81 3e 40
        E 0 81 47 40
        E 2 91 43 64
        E 0 91 47 64
        E 0 91 3b 64
        E 142 81 47 40
        E 2 91 47 64
        E 46 81 43 40
        E 0 81 3b 40
        E 0 81 47 40
        E 2 91 43 64
        E 0 91 40 64
        E 0 91 47 64
        E 94 81 47 40
        E 2 91 45 64
        E 94 81 43 40
        E 0 81 40 40
        E 0 81 45 40
        E 2 91 45 64
        E 0 91 43 64
        E 0 91 3d 64
        E 382 81 45 40
        E 0 81 43 40
        E 0 81 3d 40
        E 2 91 3d 64
        E 0 91 43 64
        E 94 81 43 40
        E 96 81 3d 40
        E 2 91 3e 64
        E 0 91 42 64
        E 190 81 3e 40
        E 0 81 42 40
        E 2 91 4a 64
        E 0 91 47 64
        E 0 91 42 64
        E 382 81 4a 40
        E 0 81 47 40
        E 0 81 42 40
        E 2 91 49 64
        E 0 91 45 64
        E 0 91 3e 64
        E 94 81 49 40
        E 0 81 45 40
        E 2 91 47 64
        E 0 91 43 64
        E 94 81 3e 40
        E 0 81 47 40
        E 0 81 43 40
        E 2 91 47 64
        E 0 91 42 64
        E 0 91 3e 64
        E 190 81 47 40
        E 2 91 45 64
        E 190 81 42 40
        E 0 81 3e 40
        E 192 81 45 40
        E 2 91 37 64
        E 0 91 3d 64
        E 0 91 40 64
        E 94 81 37 40
        E 2 91 42 64
        E 94 81 3d 40
        E 0 81 40 40
        E 0 81 42 40
        E 2 91 36 64
        E 0 91 3e 64
        E 382 81 36 40
        E 0 81 3e 40
        E 386 91 42 64
        E 94 81 42 40
        E 2 91 44 64
        E 94 81 44 40
        E 2 91 45 64
        E 0 91 3d 64
        E 0 91 42 64
        E 190 81 45 40
        E 0 81 3d 40
        E 0 81 42 40
        E 2 91 45 64
        E 0 91 3d 64
        E 0 91 42 64
        E 190 81 45 40
        E 0 81 3d 40
        E 0 81 42 40
        E 2 91 45 64
        E 0 91 3e 64
        E 0 91 42 64
        E 94 81 45 40
        E 0 81 3e 40
        E 0 81 42 40
        E 2 91 45 64
        E 0 91 42 64
        E 0 91 3d 64
        E 94 81 45 40
        E 0 81 42 40
        E 0 81 3d 40
        E 2 91 44 64
        E 0 91 3b 64
        E 0 91 42 64
        E 94 81 44 40
        E 0 81 3b 40
        E 0 81 42 40
        E 2 91 3d 64
        E 0 91 45 64
        E 0 91 42 64
        E 94 81 3d 40
        E 0 81 45 40
        E 0 81 42 40
        E 2 91 47 64
        E 0 91 3e 64
        E 0 91 42 64
        E 94 81 47 40
        E 0 81 3e 40
        E 0 81 42 40
        E 2 91 45 64
        E 0 91 3d 64
        E 0 91 42 64
        E 94 81 45 40
        E 0 81 3d 40
        E 0 81 42 40
        E 2 91 44 64
        E 0 91 42 64
        E 0 91 3b 64
        E 94 81 42 40
        E 2 91 41 64
        E 94 81 44 40
        E 0 81 3b 40
        E 0 81 41 40
        E 2 91 42 64
        E 0 91 3d 64
        E 0 91 39 64
        E 190 81 42 40
        E 0 81 3d 40
        E 0 81 39 40
        E 2 91 45 64
        E 94 81 45 40
        E 2 91 47 64
        E 94 81 47 40
        E 2 91 49 64
        E 0 91 40 64
        E 0 91 45 64
        E 190 81 49 40
        E 0 81 40 40
        E 0 81 45 40
        E 2 91 49 64
        E 0 91 40 64
        E 0 91 45 64
        E 190 81 49 40
        E 0 81 40 40
        E 0 81 45 40
        E 2 91 45 64
        E 0 91 42 64
        E 0 91 49 64
        E 94 81 45 40
        E 0 81 42 40
        E 0 81 49 40
        E 2 91 49 64
        E 0 91 40 64
        E 0 91 45 64
        E 94 81 49 40
        E 0 81 40 40
        E 0 81 45 40
        E 2 91 47 64
        E 0 91 45 64
        E 0 91 3e 64
        E 94 81 47 40
        E 0 81 45 40
        E 0 81 3e 40
        E 2 91 45 64
        E 0 91 49 64
        E 0 91 40 64
        E 94 81 45 40
        E 0 81 49 40
        E 0 81 40 40
        E 2 91 42 64
        E 0 91 4a 64
        E 0 91 45 64
        E 94 81 42 40
        E 0 81 4a 40
        E 0 81 45 40
        E 2 91 49 64
        E 0 91 45 64
        E 0 91 40 64
        E 94 81 49 40
        E 0 81 45 40
        E 0 81 40 40
        E 2 91 45 64
        E 0 91 47 64
        E 0 91 3e 64
        E 94 81 45 40
        E 2 91 44 64
        E 94 81 47 40
        E 0 81 3e 40
        E 0 81 44 40
        E 2 91 3d 64
        E 0 91 40 64
        E 0 91 45 64
        E 190 81 3d 40
        E 0 81 40 40
        E 0 81 45 40
        E 2 91 45 64
        E 0 91 49 64
        E 0 91 40 64
        E 94 81 45 40
        E 0 81 49 40
        E 0 81 40 40
        E 2 91 45 64
        E 0 91 40 64
        E 0 91 49 64
        E 94 81 45 40
        E 0 81 40 40
        E 0 81 49 40
        E 2 91 40 64
        E 0 91 49 64
        E 0 91 45 64
        E 190 81 40 40
        E 0 81 49 40
        E 0 81 45 40
        E 2 91 47 64
        E 0 91 42 64
        E 0 91 3e 64
        E 190 81 47 40
        E 0 81 42 40
        E 0 81 3e 40
        E 2 91 47 64
        E 0 91 3e 64
        E 0 91 42 64
        E 94 81 47 40
        E 0 81 3e 40
        E 0 81 42 40
        E 2 91 47 64
        E 0 91 3e 64
        E 0 91 42 64
        E 94 81 47 40
        E 0 81 3e 40
        E 0 81 42 40
        E 2 91 47 64
        E 0 91 3e 64
        E 0 91 44 64
        E 94 81 47 40
        E 0 81 3e 40
        E 0 81 44 40
        E 2 91 49 64
        E 0 91 40 64
        E 0 91 44 64
        E 94 81 49 40
        E 0 81 40 40
        E 0 81 44 40
        E 2 91 42 64
        E 0 91 47 64
        E 0 91 3e 64
        E 94 81 42 40
        E 2 91 44 64
        E 94 81 47 40
        E 0 81 3e 40
        E 0 81 44 40
        E 2 91 45 64
        E 0 91 3d 64
        E 0 91 42 64
        E 190 81 45 40
        E 0 81 3d 40
        E 0 81 42 40
        E 2 91 45 64
        E 0 91 3e 64
        E 0 91 42 64
        E 94 81 45 40
        E 0 81 3e 40
        E 0 81 42 40
        E 2 91 45 64
        E 0 91 3d 64
        E 0 91 42 64
        E 94 81 45 40
        E 0 81 3d 40
        E 0 81 42 40
        E 2 91 44 64
        E 0 91 42 64
        E 0 91 3b 64
        E 94 81 44 40
        E 0 81 42 40
        E 0 81 3b 40
        E 2 91 45 64
        E 0 91 3d 64
        E 0 91 42 64
        E 94 81 45 40
        E 0 81 3d 40
        E 0 81 42 40
        E 2 91 47 64
        E 0 91 3e 64
        E 0 91 42 64
        E 94 81 47 40
        E 0 81 3e 40
        E 0 81 42 40
        E 2 91 3d 64
        E 0 91 42 64
        E 0 91 45 64
        E 94 81 3d 40
        E 0 81 42 40
        E 0 81 45 40
        E 2 91 44 64
        E 0 91 42 64
        E 0 91 3b 64
        E 94 81 42 40
        E 2 91 41 64
        E 94 81 44 40
        E 0 81 3b 40
        E 0 81 41 40
        E 2 91 42 64
        E 0 91 39 64
        E 0 91 3d 64
        E 190 81 42 40
        E 0 81 39 40
        E 0 81 3d 40
        E 2 91 45 64
        E 0 91 49 64
        E 0 91 40 64
        E 94 81 45 40
        E 0 81 49 40
        E 0 81 40 40
        E 2 91 45 64
        E 0 91 40 64
        E 0 91 49 64
        E 94 81 45 40
        E 0 81 40 40
        E 0 81 49 40
        E 2 91 40 64
        E 0 91 49 64
        E 0 91 45 64
        E 190 81 40 40
        E 0 81 49 40
        E 0 81 45 40
        E 2 91 47 64
        E 0 91 42 64
        E 0 91 3e 64
        E 190 81 47 40
        E 0 81 42 40
        E 0 81 3e 40
        E 2 91 47 64
        E 0 91 3e 64
        E 0 91 42 64
        E 94 81 47 40
        E 0 81 3e 40
        E 0 81 42 40
        E 2 91 47 64
        E 0 91 3e 64
        E 0 91 42 64
        E 94 81 47 40
        E 0 81 3e 40
        E 0 81 42 40
        E 2 91 47 64
        E 0 91 3e 64
        E 0 91 44 64
        E 94 81 47 40
        E 0 81 3e 40
        E 0 81 44 40
        E 2 91 49 64
        E 0 91 40 64
        E 0 91 44 64
        E 94 81 49 40
        E 0 81 40 40
        E 0 81 44 40
        E 2 91 42 64
        E 0 91 47 64
        E 0 91 3e 64
        E 94 81 42 40
        E 2 91 44 64
        E 94 81 47 40
        E 0 81 3e 40
        E 0 81 44 40
        E 2 91 45 64
        E 0 91 3d 64
        E 0 91 42 64
        E 190 81 45 40
        E 0 81 3d 40
        E 0 81 42 40
        E 2 91 45 64
        E 0 91 3e 64
        E 0 91 42 64
        E 94 81 45 40
        E 0 81 3e 40
        E 0 81 42 40
        E 2 91 45 64
        E 0 91 3d 64
        E 0 91 42 64
        E 94 81 45 40
        E 0 81 3d 40
        E 0 81 42 40
        E 2 91 44 64
        E 0 91 42 64
        E 0 91 3b 64
        E 94 81 44 40
        E 0 81 42 40
        E 0 81 3b 40
        E 2 91 45 64
        E 0 91 3d 64
        E 0 91 42 64
        E 94 81 45 40
        E 0 81 3d 40
        E 0 81 42 40
        E 2 91 47 64
        E 0 91 3e 64
        E 0 91 42 64
        E 94 81 47 40
        E 0 81 3e 40
        E 0 81 42 40
        E 2 91 3d 64
        E 0 91 42 64
        E 0 91 45 64
        E 94 81 3d 40
        E 0 81 42 40
        E 0 81 45 40
        E 2 91 44 64
        E 0 91 42 64
        E 0 91 3b 64
        E 94 81 42 40
        E 2 91 41 64
        E 94 81 44 40
        E 0 81 3b 40
        E 0 81 41 40
        E 2 91 42 64
        E 0 91 39 64
        E 0 91 3d 64
        E 575 81 3d 40
        E 0 81 39 40
        E 0 81 42 40
        E 1 b0 7b 00
        GUID {A7FD9BE0-43CD-7549-8FE9-CA1DF8633223}
        IGNTEMPO 0 120 4 4
        SRCCOLOR 672
        VELLANE -1 86 6
        CFGEDITVIEW -1065.84086 23.057851 52 16 0 0 0 0 0 0.5
        KEYSNAP 0
        TRACKSEL -226
        EVTFILTER 0 -1 -1 -1 -1 0 0 0 0 -1 -1 -1 -1 0 -1 0 -1 -1
        CFGEDIT 1 1 0 0 0 0 1 0 1 0 0 0.25 522 510 1014 762 1 0 1 3 0 0 0 0 0 -1 0 0 1 64
      >
    >
    <ITEM
      POSITION 0
      SNAPOFFS 0
      LENGTH 55
      LOOP 1
      ALLTAKES 0
      FADEIN 1 0 0 1 0 0
      FADEOUT 1 0 0 1 0 0
      MUTE 0
      SEL 0
      YPOS 0.444444 0.111111
      IGUID {C9E90345-F1A4-804A-A5AA-68227D5EB79F}
      IID 8
      NAME "rh                   - National_Anthems_-_Czech_Republic.mid"
      VOLPAN 1 0 1 -1
      SOFFS 0 0
      PLAYRATE 1 1 0 -1 0 0.0025
      CHANMODE 0
      TAKECOLOR 26173599 B
      GUID {E4C19821-1399-3C42-9EC0-C19BC4DB9B4E}
      <SOURCE MIDI
        HASDATA 1 192 QN
        POOLEDEVTS {6DC205E5-BA2D-3E4C-8C9F-CF2A9D3454E8}
        <X 0 0 0 0 3 "rh                  "
          /wNyaCAgICAgICAgICAgICAgICAgIA==
        >
        e 192 9c 3e 64
        e 0 9c 42 64
        e 0 9c 45 64
        e 382 8c 3e 40
        e 0 8c 42 40
        e 0 8c 45 40
        e 2 9c 3e 64
        e 0 9c 43 64
        e 0 9c 47 64
        e 94 8c 3e 40
        e 0 8c 43 40
        e 0 8c 47 40
        e 2 9c 3e 64
        e 0 9c 42 64
        e 0 9c 45 64
        e 94 8c 3e 40
        e 0 8c 42 40
        e 0 8c 45 40
        e 2 9c 3b 64
        e 0 9c 40 64
        e 190 8c 3b 40
        e 0 8c 40 40
        e 2 9c 3b 64
        e 0 9c 3d 64
        e 0 9c 43 64
        e 382 8c 3b 40
        e 0 8c 3d 40
        e 0 8c 43 40
        e 2 9c 39 64
        e 0 9c 3d 64
        e 0 9c 42 64
        e 94 8c 39 40
        e 0 8c 3d 40
        e 0 8c 42 40
        e 2 9c 37 64
        e 0 9c 40 64
        e 94 8c 37 40
        e 0 8c 40 40
        e 2 9c 36 64
        e 0 9c 3e 64
        e 574 8c 36 40
        e 0 8c 3e 40
        e 2 9c 36 64
        e 0 9c 3c 64
        e 0 9c 3e 64
        e 142 8c 3e 40
        e 48 8c 36 40
        e 0 8c 3c 40
        e 2 9c 3b 64
        e 0 9c 3e 64
        e 94 8c 3b 40
        e 0 8c 3e 40
        e 2 9c 43 64
        e 94 8c 43 40
        e 2 9c 3b 64
        e 0 9c 3e 64
        e 0 9c 43 64
        e 382 8c 3b 40
        e 0 8c 3e 40
        e 0 8c 43 40
        e 2 9c 39 64
        e 0 9c 3e 64
        e 0 9c 45 64
        e 94 8c 39 40
        e 0 8c 3e 40
        e 0 8c 45 40
        e 2 9c 3b 64
        e 0 9c 47 64
        e 94 8c 3b 40
        e 0 8c 47 40
        e 2 9c 39 64
        e 0 9c 3d 64
        e 0 9c 45 64
        e 94 8c 39 40
        e 0 8c 3d 40
        e 0 8c 45 40
        e 2 9c 42 64
        e 94 8c 42 40
        e 2 9c 36 64
        e 0 9c 3b 64
        e 0 9c 3e 64
        e 190 8c 3b 40
        e 192 8c 36 40
        e 0 8c 3e 40
        e 2 9c 36 64
        e 0 9c 39 64
        e 0 9c 3e 64
        e 94 8c 39 40
        e 0 8c 3e 40
        e 2 9c 3e 64
        e 22 8c 36 40
        e 74 8c 3e 40
        e 0 9c 37 64
        e 0 9c 3e 64
        e 94 8c 37 40
        e 0 8c 3e 40
        e 2 9c 43 64
        e 94 8c 43 40
        e 2 9c 3b 64
        e 0 9c 3e 64
        e 0 9c 43 64
        e 94 8c 3b 40
        e 0 8c 3e 40
        e 0 8c 43 40
        e 2 9c 47 64
        e 94 8c 47 40
        e 2 9c 3e 64
        e 0 9c 47 64
        e 0 9c 4a 64
        e 190 8c 3e 40
        e 0 8c 47 40
        e 0 8c 4a 40
        e 2 9c 3d 64
        e 0 9c 45 64
        e 0 9c 49 64
        e 94 8c 3d 40
        e 0 8c 45 40
        e 0 8c 49 40
        e 2 9c 3b 64
        e 0 9c 44 64
        e 0 9c 47 64
        e 94 8c 3b 40
        e 0 8c 44 40
        e 0 8c 47 40
        e 2 9c 3b 64
        e 0 9c 44 64
        e 0 9c 47 64
        e 190 8c 3b 40
        e 0 8c 44 40
        e 0 8c 47 40
        e 2 9c 39 64
        e 0 9c 42 64
        e 0 9c 45 64
        e 94 8c 39 40
        e 2 9c 3b 64
        e 94 8c 3b 40
        e 2 9c 3d 64
        e 190 8c 42 40
        e 0 8c 45 40
        e 2 9c 45 64
        e 142 8c 45 40
        e 2 9c 45 64
        e 46 8c 3d 40
        e 0 8c 45 40
        e 2 9c 3d 64
        e 0 9c 43 64
        e 0 9c 45 64
        e 462 8c 3d 40
        e 0 8c 43 40
        e 0 8c 45 40
        e 18 9c 3b 64
        e 0 9c 43 64
        e 0 9c 47 64
        e 94 8c 3b 40
        e 0 8c 43 40
        e 0 8c 47 40
        e 2 9c 3c 64
        e 0 9c 42 64
        e 0 9c 45 64
        e 94 8c 3c 40
        e 0 8c 42 40
        e 0 8c 45 40
        e 2 9c 3d 64
        e 0 9c 40 64
        e 0 9c 43 64
        e 94 8c 3d 40
        e 0 8c 40 40
        e 0 8c 43 40
        e 2 9c 3e 64
        e 0 9c 42 64
        e 574 8c 3e 40
        e 0 8c 42 40
        e 2 9c 3e 64
        e 0 9c 42 64
        e 0 9c 45 64
        e 142 8c 3e 40
        e 0 8c 42 40
        e 0 8c 45 40
        e 2 9c 45 64
        e 46 8c 45 40
        e 2 9c 40 64
        e 0 9c 43 64
        e 0 9c 49 64
        e 414 8c 40 40
        e 0 8c 43 40
        e 0 8c 49 40
        e 66 9c 3b 64
        e 0 9c 43 64
        e 0 9c 47 64
        e 94 8c 3b 40
        e 0 8c 43 40
        e 0 8c 47 40
        e 2 9c 3c 64
        e 0 9c 42 64
        e 0 9c 45 64
        e 94 8c 3c 40
        e 0 8c 42 40
        e 0 8c 45 40
        e 2 9c 3d 64
        e 0 9c 40 64
        e 0 9c 43 64
        e 94 8c 3d 40
        e 0 8c 40 40
        e 0 8c 43 40
        e 2 9c 3e 64
        e 0 9c 42 64
        e 574 8c 3e 40
        e 0 8c 42 40
        e 2 9c 3a 64
        e 0 9c 40 64
        e 0 9c 42 64
        e 142 8c 42 40
        e 2 9c 42 64
        e 46 8c 3a 40
        e 0 8c 40 40
        e 0 8c 42 40
        e 2 9c 3b 64
        e 0 9c 3e 64
        e 0 9c 42 64
        e 190 8c 3b 40
        e 0 8c 3e 40
        e 2 9c 3b 64
        e 0 9c 3e 64
        e 190 8c 3b 40
        e 0 8c 3e 40
        e 2 9c 3a 64
        e 0 9c 40 64
        e 30 8c 42 40
        e 66 9c 42 64
        e 94 8c 3a 40
        e 0 8c 40 40
        e 0 8c 42 40
        e 2 9c 3e 64
        e 0 9c 42 64
        e 0 9c 44 64
        e 94 8c 3e 40
        e 0 8c 42 40
        e 0 8c 44 40
        e 2 9c 3d 64
        e 0 9c 40 64
        e 0 9c 46 64
        e 94 8c 3d 40
        e 0 8c 40 40
        e 0 8c 46 40
        e 2 9c 3d 64
        e 0 9c 40 64
        e 0 9c 46 64
        e 94 8c 3d 40
        e 0 8c 40 40
        e 0 8c 46 40
        e 2 9c 3b 64
        e 0 9c 3d 64
        e 0 9c 3e 64
        e 0 9c 47 64
        e 94 8c 3b 40
        e 0 8c 3d 40
        e 0 8c 3e 40
        e 0 8c 47 40
        e 2 9c 3b 64
        e 0 9c 3e 64
        e 0 9c 47 64
        e 382 8c 3b 40
        e 0 8c 3e 40
        e 0 8c 47 40
        e 2 9c 3b 64
        e 0 9c 43 64
        e 0 9c 47 64
        e 142 8c 47 40
        e 2 9c 47 64
        e 46 8c 3b 40
        e 0 8c 43 40
        e 0 8c 47 40
        e 2 9c 40 64
        e 0 9c 43 64
        e 0 9c 47 64
        e 94 8c 47 40
        e 2 9c 45 64
        e 94 8c 40 40
        e 0 8c 43 40
        e 0 8c 45 40
        e 2 9c 3d 64
        e 0 9c 43 64
        e 0 9c 45 64
        e 382 8c 3d 40
        e 0 8c 43 40
        e 0 8c 45 40
        e 2 9c 3d 64
        e 0 9c 43 64
        e 94 8c 43 40
        e 96 8c 3d 40
        e 2 9c 3e 64
        e 0 9c 42 64
        e 190 8c 3e 40
        e 0 8c 42 40
        e 2 9c 42 64
        e 0 9c 47 64
        e 0 9c 4a 64
        e 382 8c 42 40
        e 0 8c 47 40
        e 0 8c 4a 40
        e 2 9c 3e 64
        e 0 9c 45 64
        e 0 9c 49 64
        e 94 8c 45 40
        e 0 8c 49 40
        e 2 9c 43 64
        e 0 9c 47 64
        e 94 8c 3e 40
        e 0 8c 43 40
        e 0 8c 47 40
        e 2 9c 3e 64
        e 0 9c 42 64
        e 0 9c 47 64
        e 190 8c 47 40
        e 2 9c 45 64
        e 190 8c 3e 40
        e 0 8c 42 40
        e 192 8c 45 40
        e 2 9c 37 64
        e 0 9c 3d 64
        e 0 9c 40 64
        e 94 8c 37 40
        e 2 9c 42 64
        e 94 8c 3d 40
        e 0 8c 40 40
        e 0 8c 42 40
        e 2 9c 36 64
        e 0 9c 3e 64
        e 382 8c 36 40
        e 0 8c 3e 40
        e 386 9c 42 64
        e 94 8c 42 40
        e 2 9c 44 64
        e 94 8c 44 40
        e 2 9c 3d 64
        e 0 9c 42 64
        e 0 9c 45 64
        e 190 8c 3d 40
        e 0 8c 42 40
        e 0 8c 45 40
        e 2 9c 3d 64
        e 0 9c 42 64
        e 0 9c 45 64
        e 190 8c 3d 40
        e 0 8c 42 40
        e 0 8c 45 40
        e 2 9c 3e 64
        e 0 9c 42 64
        e 0 9c 45 64
        e 94 8c 3e 40
        e 0 8c 42 40
        e 0 8c 45 40
        e 2 9c 3d 64
        e 0 9c 42 64
        e 0 9c 45 64
        e 94 8c 3d 40
        e 0 8c 42 40
        e 0 8c 45 40
        e 2 9c 3b 64
        e 0 9c 42 64
        e 0 9c 44 64
        e 94 8c 3b 40
        e 0 8c 42 40
        e 0 8c 44 40
        e 2 9c 3d 64
        e 0 9c 42 64
        e 0 9c 45 64
        e 94 8c 3d 40
        e 0 8c 42 40
        e 0 8c 45 40
        e 2 9c 3e 64
        e 0 9c 42 64
        e 0 9c 47 64
        e 94 8c 3e 40
        e 0 8c 42 40
        e 0 8c 47 40
        e 2 9c 3d 64
        e 0 9c 42 64
        e 0 9c 45 64
        e 94 8c 3d 40
        e 0 8c 42 40
        e 0 8c 45 40
        e 2 9c 3b 64
        e 0 9c 42 64
        e 0 9c 44 64
        e 94 8c 42 40
        e 2 9c 41 64
        e 94 8c 3b 40
        e 0 8c 44 40
        e 0 8c 41 40
        e 2 9c 39 64
        e 0 9c 3d 64
        e 0 9c 42 64
        e 190 8c 39 40
        e 0 8c 3d 40
        e 0 8c 42 40
        e 2 9c 45 64
        e 94 8c 45 40
        e 2 9c 47 64
        e 94 8c 47 40
        e 2 9c 40 64
        e 0 9c 45 64
        e 0 9c 49 64
        e 190 8c 40 40
        e 0 8c 45 40
        e 0 8c 49 40
        e 2 9c 40 64
        e 0 9c 45 64
        e 0 9c 49 64
        e 190 8c 40 40
        e 0 8c 45 40
        e 0 8c 49 40
        e 2 9c 42 64
        e 0 9c 45 64
        e 0 9c 49 64
        e 94 8c 42 40
        e 0 8c 45 40
        e 0 8c 49 40
        e 2 9c 40 64
        e 0 9c 45 64
        e 0 9c 49 64
        e 94 8c 40 40
        e 0 8c 45 40
        e 0 8c 49 40
        e 2 9c 3e 64
        e 0 9c 45 64
        e 0 9c 47 64
        e 94 8c 3e 40
        e 0 8c 45 40
        e 0 8c 47 40
        e 2 9c 40 64
        e 0 9c 45 64
        e 0 9c 49 64
        e 94 8c 40 40
        e 0 8c 45 40
        e 0 8c 49 40
        e 2 9c 42 64
        e 0 9c 45 64
        e 0 9c 4a 64
        e 94 8c 42 40
        e 0 8c 45 40
        e 0 8c 4a 40
        e 2 9c 40 64
        e 0 9c 45 64
        e 0 9c 49 64
        e 94 8c 40 40
        e 0 8c 45 40
        e 0 8c 49 40
        e 2 9c 3e 64
        e 0 9c 45 64
        e 0 9c 47 64
        e 94 8c 45 40
        e 2 9c 44 64
        e 94 8c 3e 40
        e 0 8c 47 40
        e 0 8c 44 40
        e 2 9c 3d 64
        e 0 9c 40 64
        e 0 9c 45 64
        e 190 8c 3d 40
        e 0 8c 40 40
        e 0 8c 45 40
        e 2 9c 40 64
        e 0 9c 45 64
        e 0 9c 49 64
        e 94 8c 40 40
        e 0 8c 45 40
        e 0 8c 49 40
        e 2 9c 40 64
        e 0 9c 45 64
        e 0 9c 49 64
        e 94 8c 40 40
        e 0 8c 45 40
        e 0 8c 49 40
        e 2 9c 40 64
        e 0 9c 45 64
        e 0 9c 49 64
        e 190 8c 40 40
        e 0 8c 45 40
        e 0 8c 49 40
        e 2 9c 3e 64
        e 0 9c 42 64
        e 0 9c 47 64
        e 190 8c 3e 40
        e 0 8c 42 40
        e 0 8c 47 40
        e 2 9c 3e 64
        e 0 9c 42 64
        e 0 9c 47 64
        e 94 8c 3e 40
        e 0 8c 42 40
        e 0 8c 47 40
        e 2 9c 3e 64
        e 0 9c 42 64
        e 0 9c 47 64
        e 94 8c 3e 40
        e 0 8c 42 40
        e 0 8c 47 40
        e 2 9c 3e 64
        e 0 9c 44 64
        e 0 9c 47 64
        e 94 8c 3e 40
        e 0 8c 44 40
        e 0 8c 47 40
        e 2 9c 40 64
        e 0 9c 44 64
        e 0 9c 49 64
        e 94 8c 40 40
        e 0 8c 44 40
        e 0 8c 49 40
        e 2 9c 3e 64
        e 0 9c 42 64
        e 0 9c 47 64
        e 94 8c 42 40
        e 2 9c 44 64
        e 94 8c 3e 40
        e 0 8c 47 40
        e 0 8c 44 40
        e 2 9c 3d 64
        e 0 9c 42 64
        e 0 9c 45 64
        e 190 8c 3d 40
        e 0 8c 42 40
        e 0 8c 45 40
        e 2 9c 3e 64
        e 0 9c 42 64
        e 0 9c 45 64
        e 94 8c 3e 40
        e 0 8c 42 40
        e 0 8c 45 40
        e 2 9c 3d 64
        e 0 9c 42 64
        e 0 9c 45 64
        e 94 8c 3d 40
        e 0 8c 42 40
        e 0 8c 45 40
        e 2 9c 3b 64
        e 0 9c 42 64
        e 0 9c 44 64
        e 94 8c 3b 40
        e 0 8c 42 40
        e 0 8c 44 40
        e 2 9c 3d 64
        e 0 9c 42 64
        e 0 9c 45 64
        e 94 8c 3d 40
        e 0 8c 42 40
        e 0 8c 45 40
        e 2 9c 3e 64
        e 0 9c 42 64
        e 0 9c 47 64
        e 94 8c 3e 40
        e 0 8c 42 40
        e 0 8c 47 40
        e 2 9c 3d 64
        e 0 9c 42 64
        e 0 9c 45 64
        e 94 8c 3d 40
        e 0 8c 42 40
        e 0 8c 45 40
        e 2 9c 3b 64
        e 0 9c 42 64
        e 0 9c 44 64
        e 94 8c 42 40
        e 2 9c 41 64
        e 94 8c 3b 40
        e 0 8c 44 40
        e 0 8c 41 40
        e 2 9c 39 64
        e 0 9c 3d 64
        e 0 9c 42 64
        e 190 8c 39 40
        e 0 8c 3d 40
        e 0 8c 42 40
        e 2 9c 40 64
        e 0 9c 45 64
        e 0 9c 49 64
        e 94 8c 40 40
        e 0 8c 45 40
        e 0 8c 49 40
        e 2 9c 40 64
        e 0 9c 45 64
        e 0 9c 49 64
        e 94 8c 40 40
        e 0 8c 45 40
        e 0 8c 49 40
        e 2 9c 40 64
        e 0 9c 45 64
        e 0 9c 49 64
        e 190 8c 40 40
        e 0 8c 45 40
        e 0 8c 49 40
        e 2 9c 3e 64
        e 0 9c 42 64
        e 0 9c 47 64
        e 190 8c 3e 40
        e 0 8c 42 40
        e 0 8c 47 40
        e 2 9c 3e 64
        e 0 9c 42 64
        e 0 9c 47 64
        e 94 8c 3e 40
        e 0 8c 42 40
        e 0 8c 47 40
        e 2 9c 3e 64
        e 0 9c 42 64
        e 0 9c 47 64
        e 94 8c 3e 40
        e 0 8c 42 40
        e 0 8c 47 40
        e 2 9c 3e 64
        e 0 9c 44 64
        e 0 9c 47 64
        e 94 8c 3e 40
        e 0 8c 44 40
        e 0 8c 47 40
        e 2 9c 40 64
        e 0 9c 44 64
        e 0 9c 49 64
        e 94 8c 40 40
        e 0 8c 44 40
        e 0 8c 49 40
        e 2 9c 3e 64
        e 0 9c 42 64
        e 0 9c 47 64
        e 94 8c 42 40
        e 2 9c 44 64
        e 94 8c 3e 40
        e 0 8c 47 40
        e 0 8c 44 40
        e 2 9c 3d 64
        e 0 9c 42 64
        e 0 9c 45 64
        e 190 8c 3d 40
        e 0 8c 42 40
        e 0 8c 45 40
        e 2 9c 3e 64
        e 0 9c 42 64
        e 0 9c 45 64
        e 94 8c 3e 40
        e 0 8c 42 40
        e 0 8c 45 40
        e 2 9c 3d 64
        e 0 9c 42 64
        e 0 9c 45 64
        e 94 8c 3d 40
        e 0 8c 42 40
        e 0 8c 45 40
        e 2 9c 3b 64
        e 0 9c 42 64
        e 0 9c 44 64
        e 94 8c 3b 40
        e 0 8c 42 40
        e 0 8c 44 40
        e 2 9c 3d 64
        e 0 9c 42 64
        e 0 9c 45 64
        e 94 8c 3d 40
        e 0 8c 42 40
        e 0 8c 45 40
        e 2 9c 3e 64
        e 0 9c 42 64
        e 0 9c 47 64
        e 94 8c 3e 40
        e 0 8c 42 40
        e 0 8c 47 40
        e 2 9c 3d 64
        e 0 9c 42 64
        e 0 9c 45 64
        e 94 8c 3d 40
        e 0 8c 42 40
        e 0 8c 45 40
        e 2 9c 3b 64
        e 0 9c 42 64
        e 0 9c 44 64
        e 94 8c 42 40
        e 2 9c 41 64
        e 94 8c 3b 40
        e 0 8c 44 40
        e 0 8c 41 40
        e 2 9c 39 64
        e 0 9c 3d 64
        e 0 9c 42 64
        e 575 8c 39 40
        e 0 8c 3d 40
        e 0 8c 42 40
        E 1 b0 7b 00
        GUID {8A0F1FAE-685C-FA46-BD12-7EB95EE923A1}
        IGNTEMPO 0 120 4 4
        SRCCOLOR 620
        VELLANE -1 86 6
        CFGEDITVIEW -899.303226 23.057851 50 16 0 0 0 0 0 0.5
        KEYSNAP 0
        TRACKSEL 226
        EVTFILTER 0 -1 -1 -1 -1 0 0 0 0 -1 -1 -1 -1 0 -1 0 -1 -1
        CFGEDIT 1 1 0 0 0 0 1 0 1 1 1 0.25 506 494 1014 762 1 0 1 3 0 0 0 0 0 -1 0 0 1 64
      >
      TAKE
      NAME "rh                   - National_Anthems_-_Czech_Republic.mid"
      TAKEVOLPAN 0 1 -1
      SOFFS 0 0
      PLAYRATE 1 1 0 -1 0 0.0025
      CHANMODE 0
      GUID {DEB7D34A-8C9B-F646-98A8-B6E6A863A649}
      <SOURCE MIDI
        HASDATA 1 192 QN
        POOLEDEVTS {EE4E080B-B451-2E4D-BF72-3A06A4933F16}
        <X 0 0 0 0 3 "rh                  "
          /wNyaCAgICAgICAgICAgICAgICAgIA==
        >
        E 192 9c 45 64
        E 0 9c 3e 64
        E 0 9c 42 64
        E 382 8c 45 40
        E 0 8c 3e 40
        E 0 8c 42 40
        E 2 9c 47 64
        E 0 9c 43 64
        E 0 9c 3e 64
        E 94 8c 47 40
        E 0 8c 43 40
        E 0 8c 3e 40
        E 2 9c 45 64
        E 0 9c 42 64
        E 0 9c 3e 64
        E 94 8c 45 40
        E 0 8c 42 40
        E 0 8c 3e 40
        E 2 9c 40 64
        E 0 9c 3b 64
        E 190 8c 40 40
        E 0 8c 3b 40
        E 2 9c 3b 64
        E 0 9c 43 64
        E 0 9c 3d 64
        E 382 8c 3b 40
        E 0 8c 43 40
        E 0 8c 3d 40
        E 2 9c 42 64
        E 0 9c 39 64
        E 0 9c 3d 64
        E 94 8c 42 40
        E 0 8c 39 40
        E 0 8c 3d 40
        E 2 9c 40 64
        E 0 9c 37 64
        E 94 8c 40 40
        E 0 8c 37 40
        E 2 9c 3e 64
        E 0 9c 36 64
        E 574 8c 3e 40
        E 0 8c 36 40
        E 2 9c 3e 64
        E 0 9c 36 64
        E 0 9c 3c 64
        E 142 8c 3e 40
        E 48 8c 36 40
        E 0 8c 3c 40
        E 2 9c 3b 64
        E 0 9c 3e 64
        E 94 8c 3b 40
        E 0 8c 3e 40
        E 2 9c 43 64
        E 94 8c 43 40
        E 2 9c 3b 64
        E 0 9c 3e 64
        E 0 9c 43 64
        E 382 8c 3b 40
        E 0 8c 3e 40
        E 0 8c 43 40
        E 2 9c 45 64
        E 0 9c 3e 64
        E 0 9c 39 64
        E 94 8c 45 40
        E 0 8c 3e 40
        E 0 8c 39 40
        E 2 9c 47 64
        E 0 9c 3b 64
        E 94 8c 47 40
        E 0 8c 3b 40
        E 2 9c 45 64
        E 0 9c 3d 64
        E 0 9c 39 64
        E 94 8c 45 40
        E 0 8c 3d 40
        E 0 8c 39 40
        E 2 9c 42 64
        E 94 8c 42 40
        E 2 9c 36 64
        E 0 9c 3e 64
        E 0 9c 3b 64
        E 190 8c 3b 40
        E 192 8c 36 40
        E 0 8c 3e 40
        E 2 9c 39 64
        E 0 9c 3e 64
        E 0 9c 36 64
        E 94 8c 39 40
        E 0 8c 3e 40
        E 2 9c 3e 64
        E 22 8c 36 40
        E 74 8c 3e 40
        E 0 9c 3e 64
        E 0 9c 37 64
        E 94 8c 3e 40
        E 0 8c 37 40
        E 2 9c 43 64
        E 94 8c 43 40
        E 2 9c 43 64
        E 0 9c 3e 64
        E 0 9c 3b 64
        E 94 8c 43 40
        E 0 8c 3e 40
        E 0 8c 3b 40
        E 2 9c 47 64
        E 94 8c 47 40
        E 2 9c 47 64
        E 0 9c 3e 64
        E 0 9c 4a 64
        E 190 8c 47 40
        E 0 8c 3e 40
        E 0 8c 4a 40
        E 2 9c 45 64
        E 0 9c 49 64
        E 0 9c 3d 64
        E 94 8c 45 40
        E 0 8c 49 40
        E 0 8c 3d 40
        E 2 9c 44 64
        E 0 9c 47 64
        E 0 9c 3b 64
        E 94 8c 44 40
        E 0 8c 47 40
        E 0 8c 3b 40
        E 2 9c 47 64
        E 0 9c 3b 64
        E 0 9c 44 64
        E 190 8c 47 40
        E 0 8c 3b 40
        E 0 8c 44 40
        E 2 9c 42 64
        E 0 9c 39 64
        E 0 9c 45 64
        E 94 8c 39 40
        E 2 9c 3b 64
        E 94 8c 3b 40
        E 2 9c 3d 64
        E 190 8c 42 40
        E 0 8c 45 40
        E 2 9c 45 64
        E 142 8c 45 40
        E 2 9c 45 64
        E 46 8c 3d 40
        E 0 8c 45 40
        E 2 9c 43 64
        E 0 9c 3d 64
        E 0 9c 45 64
        E 462 8c 43 40
        E 0 8c 3d 40
        E 0 8c 45 40
        E 18 9c 47 64
        E 0 9c 43 64
        E 0 9c 3b 64
        E 94 8c 47 40
        E 0 8c 43 40
        E 0 8c 3b 40
        E 2 9c 45 64
        E 0 9c 42 64
        E 0 9c 3c 64
        E 94 8c 45 40
        E 0 8c 42 40
        E 0 8c 3c 40
        E 2 9c 43 64
        E 0 9c 40 64
        E 0 9c 3d 64
        E 94 8c 43 40
        E 0 8c 40 40
        E 0 8c 3d 40
        E 2 9c 42 64
        E 0 9c 3e 64
        E 574 8c 42 40
        E 0 8c 3e 40
        E 2 9c 45 64
        E 0 9c 3e 64
        E 0 9c 42 64
        E 142 8c 45 40
        E 0 8c 3e 40
        E 0 8c 42 40
        E 2 9c 45 64
        E 46 8c 45 40
        E 2 9c 49 64
        E 0 9c 40 64
        E 0 9c 43 64
        E 414 8c 49 40
        E 0 8c 40 40
        E 0 8c 43 40
        E 66 9c 43 64
        E 0 9c 47 64
        E 0 9c 3b 64
        E 94 8c 43 40
        E 0 8c 47 40
        E 0 8c 3b 40
        E 2 9c 45 64
        E 0 9c 3c 64
        E 0 9c 42 64
        E 94 8c 45 40
        E 0 8c 3c 40
        E 0 8c 42 40
        E 2 9c 3d 64
        E 0 9c 40 64
        E 0 9c 43 64
        E 94 8c 3d 40
        E 0 8c 40 40
        E 0 8c 43 40
        E 2 9c 42 64
        E 0 9c 3e 64
        E 574 8c 42 40
        E 0 8c 3e 40
        E 2 9c 42 64
        E 0 9c 3a 64
        E 0 9c 40 64
        E 142 8c 42 40
        E 2 9c 42 64
        E 46 8c 3a 40
        E 0 8c 40 40
        E 0 8c 42 40
        E 2 9c 42 64
        E 0 9c 3e 64
        E 0 9c 3b 64
        E 190 8c 3e 40
        E 0 8c 3b 40
        E 2 9c 3e 64
        E 0 9c 3b 64
        E 190 8c 3e 40
        E 0 8c 3b 40
        E 2 9c 40 64
        E 0 9c 3a 64
        E 30 8c 42 40
        E 66 9c 42 64
        E 94 8c 40 40
        E 0 8c 3a 40
        E 0 8c 42 40
        E 2 9c 3e 64
        E 0 9c 44 64
        E 0 9c 42 64
        E 94 8c 3e 40
        E 0 8c 44 40
        E 0 8c 42 40
        E 2 9c 40 64
        E 0 9c 3d 64
        E 0 9c 46 64
        E 94 8c 40 40
        E 0 8c 3d 40
        E 0 8c 46 40
        E 2 9c 40 64
        E 0 9c 46 64
        E 0 9c 3d 64
        E 94 8c 40 40
        E 0 8c 46 40
        E 0 8c 3d 40
        E 2 9c 3d 64
        E 0 9c 3e 64
        E 0 9c 47 64
        E 0 9c 3b 64
        E 94 8c 3d 40
        E 0 8c 3e 40
        E 0 8c 47 40
        E 0 8c 3b 40
        E 2 9c 3b 64
        E 0 9c 3e 64
        E 0 9c 47 64
        E 382 8c 3b 40
        E 0 8c 3e 40
        E 0 8c 47 40
        E 2 9c 43 64
        E 0 9c 47 64
        E 0 9c 3b 64
        E 142 8c 47 40
        E 2 9c 47 64
        E 46 8c 43 40
        E 0 8c 3b 40
        E 0 8c 47 40
        E 2 9c 43 64
        E 0 9c 40 64
        E 0 9c 47 64
        E 94 8c 47 40
        E 2 9c 45 64
        E 94 8c 43 40
        E 0 8c 40 40
        E 0 8c 45 40
        E 2 9c 45 64
        E 0 9c 43 64
        E 0 9c 3d 64
        E 382 8c 45 40
        E 0 8c 43 40
        E 0 8c 3d 40
        E 2 9c 3d 64
        E 0 9c 43 64
        E 94 8c 43 40
        E 96 8c 3d 40
        E 2 9c 3e 64
        E 0 9c 42 64
        E 190 8c 3e 40
        E 0 8c 42 40
        E 2 9c 4a 64
        E 0 9c 47 64
        E 0 9c 42 64
        E 382 8c 4a 40
        E 0 8c 47 40
        E 0 8c 42 40
        E 2 9c 49 64
        E 0 9c 45 64
        E 0 9c 3e 64
        E 94 8c 49 40
        E 0 8c 45 40
        E 2 9c 47 64
        E 0 9c 43 64
        E 94 8c 3e 40
        E 0 8c 47 40
        E 0 8c 43 40
        E 2 9c 47 64
        E 0 9c 42 64
        E 0 9c 3e 64
        E 190 8c 47 40
        E 2 9c 45 64
        E 190 8c 42 40
        E 0 8c 3e 40
        E 192 8c 45 40
        E 2 9c 37 64
        E 0 9c 3d 64
        E 0 9c 40 64
        E 94 8c 37 40
        E 2 9c 42 64
        E 94 8c 3d 40
        E 0 8c 40 40
        E 0 8c 42 40
        E 2 9c 36 64
        E 0 9c 3e 64
        E 382 8c 36 40
        E 0 8c 3e 40
        E 386 9c 42 64
        E 94 8c 42 40
        E 2 9c 44 64
        E 94 8c 44 40
        E 2 9c 45 64
        E 0 9c 3d 64
        E 0 9c 42 64
        E 190 8c 45 40
        E 0 8c 3d 40
        E 0 8c 42 40
        E 2 9c 45 64
        E 0 9c 3d 64
        E 0 9c 42 64
        E 190 8c 45 40
        E 0 8c 3d 40
        E 0 8c 42 40
        E 2 9c 45 64
        E 0 9c 3e 64
        E 0 9c 42 64
        E 94 8c 45 40
        E 0 8c 3e 40
        E 0 8c 42 40
        E 2 9c 45 64
        E 0 9c 42 64
        E 0 9c 3d 64
        E 94 8c 45 40
        E 0 8c 42 40
        E 0 8c 3d 40
        E 2 9c 44 64
        E 0 9c 3b 64
        E 0 9c 42 64
        E 94 8c 44 40
        E 0 8c 3b 40
        E 0 8c 42 40
        E 2 9c 3d 64
        E 0 9c 45 64
        E 0 9c 42 64
        E 94 8c 3d 40
        E 0 8c 45 40
        E 0 8c 42 40
        E 2 9c 47 64
        E 0 9c 3e 64
        E 0 9c 42 64
        E 94 8c 47 40
        E 0 8c 3e 40
        E 0 8c 42 40
        E 2 9c 45 64
        E 0 9c 3d 64
        E 0 9c 42 64
        E 94 8c 45 40
        E 0 8c 3d 40
        E 0 8c 42 40
        E 2 9c 44 64
        E 0 9c 42 64
        E 0 9c 3b 64
        E 94 8c 42 40
        E 2 9c 41 64
        E 94 8c 44 40
        E 0 8c 3b 40
        E 0 8c 41 40
        E 2 9c 42 64
        E 0 9c 3d 64
        E 0 9c 39 64
        E 190 8c 42 40
        E 0 8c 3d 40
        E 0 8c 39 40
        E 2 9c 45 64
        E 94 8c 45 40
        E 2 9c 47 64
        E 94 8c 47 40
        E 2 9c 49 64
        E 0 9c 40 64
        E 0 9c 45 64
        E 190 8c 49 40
        E 0 8c 40 40
        E 0 8c 45 40
        E 2 9c 49 64
        E 0 9c 40 64
        E 0 9c 45 64
        E 190 8c 49 40
        E 0 8c 40 40
        E 0 8c 45 40
        E 2 9c 45 64
        E 0 9c 42 64
        E 0 9c 49 64
        E 94 8c 45 40
        E 0 8c 42 40
        E 0 8c 49 40
        E 2 9c 49 64
        E 0 9c 40 64
        E 0 9c 45 64
        E 94 8c 49 40
        E 0 8c 40 40
        E 0 8c 45 40
        E 2 9c 47 64
        E 0 9c 45 64
        E 0 9c 3e 64
        E 94 8c 47 40
        E 0 8c 45 40
        E 0 8c 3e 40
        E 2 9c 45 64
        E 0 9c 49 64
        E 0 9c 40 64
        E 94 8c 45 40
        E 0 8c 49 40
        E 0 8c 40 40
        E 2 9c 42 64
        E 0 9c 4a 64
        E 0 9c 45 64
        E 94 8c 42 40
        E 0 8c 4a 40
        E 0 8c 45 40
        E 2 9c 49 64
        E 0 9c 45 64
        E 0 9c 40 64
        E 94 8c 49 40
        E 0 8c 45 40
        E 0 8c 40 40
        E 2 9c 45 64
        E 0 9c 47 64
        E 0 9c 3e 64
        E 94 8c 45 40
        E 2 9c 44 64
        E 94 8c 47 40
        E 0 8c 3e 40
        E 0 8c 44 40
        E 2 9c 3d 64
        E 0 9c 40 64
        E 0 9c 45 64
        E 190 8c 3d 40
        E 0 8c 40 40
        E 0 8c 45 40
        E 2 9c 45 64
        E 0 9c 49 64
        E 0 9c 40 64
        E 94 8c 45 40
        E 0 8c 49 40
        E 0 8c 40 40
        E 2 9c 45 64
        E 0 9c 40 64
        E 0 9c 49 64
        E 94 8c 45 40
        E 0 8c 40 40
        E 0 8c 49 40
        E 2 9c 40 64
        E 0 9c 49 64
        E 0 9c 45 64
        E 190 8c 40 40
        E 0 8c 49 40
        E 0 8c 45 40
        E 2 9c 47 64
        E 0 9c 42 64
        E 0 9c 3e 64
        E 190 8c 47 40
        E 0 8c 42 40
        E 0 8c 3e 40
        E 2 9c 47 64
        E 0 9c 3e 64
        E 0 9c 42 64
        E 94 8c 47 40
        E 0 8c 3e 40
        E 0 8c 42 40
        E 2 9c 47 64
        E 0 9c 3e 64
        E 0 9c 42 64
        E 94 8c 47 40
        E 0 8c 3e 40
        E 0 8c 42 40
        E 2 9c 47 64
        E 0 9c 3e 64
        E 0 9c 44 64
        E 94 8c 47 40
        E 0 8c 3e 40
        E 0 8c 44 40
        E 2 9c 49 64
        E 0 9c 40 64
        E 0 9c 44 64
        E 94 8c 49 40
        E 0 8c 40 40
        E 0 8c 44 40
        E 2 9c 42 64
        E 0 9c 47 64
        E 0 9c 3e 64
        E 94 8c 42 40
        E 2 9c 44 64
        E 94 8c 47 40
        E 0 8c 3e 40
        E 0 8c 44 40
        E 2 9c 45 64
        E 0 9c 3d 64
        E 0 9c 42 64
        E 190 8c 45 40
        E 0 8c 3d 40
        E 0 8c 42 40
        E 2 9c 45 64
        E 0 9c 3e 64
        E 0 9c 42 64
        E 94 8c 45 40
        E 0 8c 3e 40
        E 0 8c 42 40
        E 2 9c 45 64
        E 0 9c 3d 64
        E 0 9c 42 64
        E 94 8c 45 40
        E 0 8c 3d 40
        E 0 8c 42 40
        E 2 9c 44 64
        E 0 9c 42 64
        E 0 9c 3b 64
        E 94 8c 44 40
        E 0 8c 42 40
        E 0 8c 3b 40
        E 2 9c 45 64
        E 0 9c 3d 64
        E 0 9c 42 64
        E 94 8c 45 40
        E 0 8c 3d 40
        E 0 8c 42 40
        E 2 9c 47 64
        E 0 9c 3e 64
        E 0 9c 42 64
        E 94 8c 47 40
        E 0 8c 3e 40
        E 0 8c 42 40
        E 2 9c 3d 64
        E 0 9c 42 64
        E 0 9c 45 64
        E 94 8c 3d 40
        E 0 8c 42 40
        E 0 8c 45 40
        E 2 9c 44 64
        E 0 9c 42 64
        E 0 9c 3b 64
        E 94 8c 42 40
        E 2 9c 41 64
        E 94 8c 44 40
        E 0 8c 3b 40
        E 0 8c 41 40
        E 2 9c 42 64
        E 0 9c 39 64
        E 0 9c 3d 64
        E 190 8c 42 40
        E 0 8c 39 40
        E 0 8c 3d 40
        E 2 9c 45 64
        E 0 9c 49 64
        E 0 9c 40 64
        E 94 8c 45 40
        E 0 8c 49 40
        E 0 8c 40 40
        E 2 9c 45 64
        E 0 9c 40 64
        E 0 9c 49 64
        E 94 8c 45 40
        E 0 8c 40 40
        E 0 8c 49 40
        E 2 9c 40 64
        E 0 9c 49 64
        E 0 9c 45 64
        E 190 8c 40 40
        E 0 8c 49 40
        E 0 8c 45 40
        E 2 9c 47 64
        E 0 9c 42 64
        E 0 9c 3e 64
        E 190 8c 47 40
        E 0 8c 42 40
        E 0 8c 3e 40
        E 2 9c 47 64
        E 0 9c 3e 64
        E 0 9c 42 64
        E 94 8c 47 40
        E 0 8c 3e 40
        E 0 8c 42 40
        E 2 9c 47 64
        E 0 9c 3e 64
        E 0 9c 42 64
        E 94 8c 47 40
        E 0 8c 3e 40
        E 0 8c 42 40
        E 2 9c 47 64
        E 0 9c 3e 64
        E 0 9c 44 64
        E 94 8c 47 40
        E 0 8c 3e 40
        E 0 8c 44 40
        E 2 9c 49 64
        E 0 9c 40 64
        E 0 9c 44 64
        E 94 8c 49 40
        E 0 8c 40 40
        E 0 8c 44 40
        E 2 9c 42 64
        E 0 9c 47 64
        E 0 9c 3e 64
        E 94 8c 42 40
        E 2 9c 44 64
        E 94 8c 47 40
        E 0 8c 3e 40
        E 0 8c 44 40
        E 2 9c 45 64
        E 0 9c 3d 64
        E 0 9c 42 64
        E 190 8c 45 40
        E 0 8c 3d 40
        E 0 8c 42 40
        E 2 9c 45 64
        E 0 9c 3e 64
        E 0 9c 42 64
        E 94 8c 45 40
        E 0 8c 3e 40
        E 0 8c 42 40
        E 2 9c 45 64
        E 0 9c 3d 64
        E 0 9c 42 64
        E 94 8c 45 40
        E 0 8c 3d 40
        E 0 8c 42 40
        E 2 9c 44 64
        E 0 9c 42 64
        E 0 9c 3b 64
        E 94 8c 44 40
        E 0 8c 42 40
        E 0 8c 3b 40
        E 2 9c 45 64
        E 0 9c 3d 64
        E 0 9c 42 64
        E 94 8c 45 40
        E 0 8c 3d 40
        E 0 8c 42 40
        E 2 9c 47 64
        E 0 9c 3e 64
        E 0 9c 42 64
        E 94 8c 47 40
        E 0 8c 3e 40
        E 0 8c 42 40
        E 2 9c 3d 64
        E 0 9c 42 64
        E 0 9c 45 64
        E 94 8c 3d 40
        E 0 8c 42 40
        E 0 8c 45 40
        E 2 9c 44 64
        E 0 9c 42 64
        E 0 9c 3b 64
        E 94 8c 42 40
        E 2 9c 41 64
        E 94 8c 44 40
        E 0 8c 3b 40
        E 0 8c 41 40
        E 2 9c 42 64
        E 0 9c 39 64
        E 0 9c 3d 64
        E 575 8c 3d 40
        E 0 8c 39 40
        E 0 8c 42 40
        E 1 b0 7b 00
        GUID {80595F54-8F9D-2B4E-B42B-90E13D8CF450}
        IGNTEMPO 0 120 4 4
        SRCCOLOR 674
        VELLANE -1 86 6
      >
    >
    <ITEM
      POSITION 0
      SNAPOFFS 0
      LENGTH 55
      LOOP 1
      ALLTAKES 0
      FADEIN 1 0 0 1 0 0
      FADEOUT 1 0 0 1 0 0
      MUTE 0
      SEL 0
      YPOS 0.555556 0.111111
      IGUID {42B241D2-3FD8-3E44-86A7-63CDEAA51C55}
      IID 9
      NAME "lh                   - National_Anthems_-_Czech_Republic.mid"
      VOLPAN 1 0 1 -1
      SOFFS 0 0
      PLAYRATE 1 1 0 -1 0 0.0025
      CHANMODE 0
      TAKECOLOR 26173599 B
      GUID {DE7ABDB5-B558-214F-8CAF-249805253282}
      <SOURCE MIDI
        HASDATA 1 192 QN
        POOLEDEVTS {F1B4CA48-5514-2540-BC5F-4365916EBF4D}
        <X 0 0 0 0 3 "lh                  "
          /wNsaCAgICAgICAgICAgICAgICAgIA==
        >
        E 0 9d 26 64
        E 0 9d 32 64
        E 190 8d 26 40
        E 0 8d 32 40
        E 2 9d 39 64
        E 0 9d 36 64
        E 0 9d 32 64
        E 382 8d 39 40
        E 0 8d 36 40
        E 0 8d 32 40
        E 2 9d 3b 64
        E 0 9d 32 64
        E 0 9d 37 64
        E 94 8d 3b 40
        E 0 8d 32 40
        E 0 8d 37 40
        E 2 9d 39 64
        E 0 9d 36 64
        E 0 9d 32 64
        E 94 8d 39 40
        E 0 8d 36 40
        E 0 8d 32 40
        E 2 9d 37 64
        E 0 9d 34 64
        E 190 8d 37 40
        E 0 8d 34 40
        E 2 9d 2d 64
        E 382 8d 2d 40
        E 2 9d 2d 64
        E 190 8d 2d 40
        E 2 9d 32 64
        E 190 8d 32 40
        E 2 9d 30 64
        E 190 8d 30 40
        E 2 9d 2f 64
        E 190 8d 2f 40
        E 2 9d 2d 64
        E 190 8d 2d 40
        E 2 9d 2b 64
        E 190 8d 2b 40
        E 2 9d 2a 64
        E 190 8d 2a 40
        E 2 9d 28 64
        E 190 8d 28 40
        E 2 9d 2a 64
        E 94 8d 2a 40
        E 2 9d 2b 64
        E 94 8d 2b 40
        E 2 9d 2a 64
        E 190 8d 2a 40
        E 2 9d 2f 64
        E 190 8d 2f 40
        E 2 9d 32 64
        E 190 8d 32 40
        E 2 9d 30 64
        E 190 8d 30 40
        E 2 9d 2f 64
        E 190 8d 2f 40
        E 2 9d 2b 64
        E 190 8d 2b 40
        E 2 9d 28 64
        E 190 8d 28 40
        E 2 9d 29 64
        E 190 8d 29 40
        E 2 9d 2a 64
        E 94 8d 2a 40
        E 2 9d 31 64
        E 94 8d 31 40
        E 2 9d 36 64
        E 94 8d 36 40
        E 2 9d 38 64
        E 94 8d 38 40
        E 2 9d 39 64
        E 190 8d 39 40
        E 2 9d 36 64
        E 190 8d 36 40
        E 2 9d 34 64
        E 94 8d 34 40
        E 2 9d 2d 64
        E 94 8d 2d 40
        E 2 9d 31 64
        E 94 8d 31 40
        E 2 9d 34 64
        E 94 8d 34 40
        E 2 9d 39 64
        E 190 8d 39 40
        E 2 9d 2d 64
        E 190 8d 2d 40
        E 2 9d 26 64
        E 94 8d 26 40
        E 2 9d 2d 64
        E 94 8d 2d 40
        E 2 9d 32 64
        E 94 8d 32 40
        E 2 9d 34 64
        E 94 8d 34 40
        E 2 9d 36 64
        E 190 8d 36 40
        E 2 9d 32 64
        E 190 8d 32 40
        E 2 9d 34 64
        E 94 8d 34 40
        E 2 9d 2d 64
        E 94 8d 2d 40
        E 2 9d 31 64
        E 94 8d 31 40
        E 2 9d 34 64
        E 94 8d 34 40
        E 2 9d 39 64
        E 190 8d 39 40
        E 2 9d 2d 64
        E 190 8d 2d 40
        E 2 9d 26 64
        E 94 8d 26 40
        E 2 9d 2d 64
        E 94 8d 2d 40
        E 2 9d 32 64
        E 94 8d 32 40
        E 2 9d 34 64
        E 94 8d 34 40
        E 2 9d 36 64
        E 94 8d 36 40
        E 2 9d 34 64
        E 94 8d 34 40
        E 2 9d 32 64
        E 94 8d 32 40
        E 2 9d 31 64
        E 94 8d 31 40
        E 2 9d 2f 64
        E 94 8d 2f 40
        E 2 9d 2a 64
        E 94 8d 2a 40
        E 2 9d 2f 64
        E 94 8d 2f 40
        E 2 9d 32 64
        E 94 8d 32 40
        E 2 9d 31 64
        E 190 8d 31 40
        E 2 9d 2a 64
        E 190 8d 2a 40
        E 2 9d 2f 64
        E 94 8d 2f 40
        E 2 9d 2a 64
        E 94 8d 2a 40
        E 2 9d 2f 64
        E 94 8d 2f 40
        E 2 9d 32 64
        E 94 8d 32 40
        E 2 9d 36 64
        E 190 8d 36 40
        E 2 9d 34 64
        E 94 8d 34 40
        E 2 9d 32 64
        E 94 8d 32 40
        E 2 9d 31 64
        E 190 8d 31 40
        E 2 9d 34 64
        E 190 8d 34 40
        E 2 9d 2d 64
        E 190 8d 2d 40
        E 2 9d 34 64
        E 190 8d 34 40
        E 2 9d 2f 64
        E 94 8d 2f 40
        E 2 9d 32 64
        E 94 8d 32 40
        E 2 9d 36 64
        E 94 8d 36 40
        E 2 9d 3b 64
        E 94 8d 3b 40
        E 2 9d 3e 64
        E 190 8d 3e 40
        E 2 9d 2b 64
        E 190 8d 2b 40
        E 2 9d 2f 64
        E 94 8d 2f 40
        E 2 9d 32 64
        E 94 8d 32 40
        E 2 9d 36 64
        E 94 8d 36 40
        E 2 9d 32 64
        E 94 8d 32 40
        E 2 9d 39 64
        E 190 8d 39 40
        E 2 9d 2d 64
        E 190 8d 2d 40
        E 2 9d 32 64
        E 94 8d 32 40
        E 2 9d 2d 64
        E 94 8d 2d 40
        E 2 9d 2a 64
        E 94 8d 2a 40
        E 2 9d 2d 64
        E 94 8d 2d 40
        E 2 9d 26 64
        E 382 8d 26 40
        E 194 9d 2a 64
        E 94 8d 2a 40
        E 2 9d 2c 64
        E 94 8d 2c 40
        E 2 9d 2d 64
        E 190 8d 2d 40
        E 2 9d 2f 64
        E 94 8d 2f 40
        E 2 9d 31 64
        E 94 8d 31 40
        E 2 9d 32 64
        E 94 8d 32 40
        E 2 9d 31 64
        E 94 8d 31 40
        E 2 9d 2f 64
        E 94 8d 2f 40
        E 2 9d 31 64
        E 94 8d 31 40
        E 2 9d 32 64
        E 94 8d 32 40
        E 2 9d 31 64
        E 94 8d 31 40
        E 2 9d 36 64
        E 190 8d 36 40
        E 194 9d 2d 64
        E 94 8d 2d 40
        E 2 9d 2f 64
        E 94 8d 2f 40
        E 2 9d 31 64
        E 190 8d 31 40
        E 2 9d 32 64
        E 94 8d 32 40
        E 2 9d 34 64
        E 94 8d 34 40
        E 2 9d 36 64
        E 94 8d 36 40
        E 2 9d 34 64
        E 94 8d 34 40
        E 2 9d 32 64
        E 94 8d 32 40
        E 2 9d 34 64
        E 94 8d 34 40
        E 2 9d 36 64
        E 94 8d 36 40
        E 2 9d 34 64
        E 94 8d 34 40
        E 2 9d 39 64
        E 190 8d 39 40
        E 2 9d 39 64
        E 94 8d 39 40
        E 2 9d 36 64
        E 94 8d 36 40
        E 2 9d 38 64
        E 94 8d 38 40
        E 2 9d 39 64
        E 94 8d 39 40
        E 2 9d 3b 64
        E 94 8d 3b 40
        E 2 9d 2f 64
        E 94 8d 2f 40
        E 2 9d 31 64
        E 94 8d 31 40
        E 2 9d 32 64
        E 94 8d 32 40
        E 2 9d 34 64
        E 94 8d 34 40
        E 2 9d 31 64
        E 94 8d 31 40
        E 2 9d 32 64
        E 94 8d 32 40
        E 2 9d 34 64
        E 94 8d 34 40
        E 2 9d 36 64
        E 94 8d 36 40
        E 2 9d 2d 64
        E 94 8d 2d 40
        E 2 9d 2f 64
        E 94 8d 2f 40
        E 2 9d 31 64
        E 94 8d 31 40
        E 2 9d 32 64
        E 94 8d 32 40
        E 2 9d 31 64
        E 94 8d 31 40
        E 2 9d 2f 64
        E 94 8d 2f 40
        E 2 9d 31 64
        E 94 8d 31 40
        E 2 9d 32 64
        E 94 8d 32 40
        E 2 9d 31 64
        E 94 8d 31 40
        E 2 9d 2a 64
        E 190 8d 2a 40
        E 2 9d 39 64
        E 94 8d 39 40
        E 2 9d 36 64
        E 94 8d 36 40
        E 2 9d 38 64
        E 94 8d 38 40
        E 2 9d 39 64
        E 94 8d 39 40
        E 2 9d 3b 64
        E 94 8d 3b 40
        E 2 9d 2f 64
        E 94 8d 2f 40
        E 2 9d 31 64
        E 94 8d 31 40
        E 2 9d 32 64
        E 94 8d 32 40
        E 2 9d 34 64
        E 94 8d 34 40
        E 2 9d 31 64
        E 94 8d 31 40
        E 2 9d 32 64
        E 94 8d 32 40
        E 2 9d 34 64
        E 94 8d 34 40
        E 2 9d 36 64
        E 94 8d 36 40
        E 2 9d 2d 64
        E 94 8d 2d 40
        E 2 9d 2f 64
        E 94 8d 2f 40
        E 2 9d 31 64
        E 94 8d 31 40
        E 2 9d 32 64
        E 94 8d 32 40
        E 2 9d 31 64
        E 94 8d 31 40
        E 2 9d 2f 64
        E 94 8d 2f 40
        E 2 9d 31 64
        E 94 8d 31 40
        E 2 9d 32 64
        E 94 8d 32 40
        E 2 9d 31 64
        E 94 8d 31 40
        E 2 9d 2a 64
        E 575 8d 2a 40
        E 1 b0 7b 00
        GUID {FEC44394-8345-7B44-91B0-C8FFD41B867E}
        IGNTEMPO 0 120 4 4
        SRCCOLOR 621
        VELLANE -1 86 6
        CFGEDITVIEW -899.303226 23.057851 50 16 0 0 0 0 0 0.5
        KEYSNAP 0
        TRACKSEL 226
        EVTFILTER 0 -1 -1 -1 -1 0 0 0 0 -1 -1 -1 -1 0 -1 0 -1 -1
        CFGEDIT 1 1 0 0 0 0 1 0 1 1 1 0.25 506 494 1014 762 1 0 1 3 0 0 0 0 0 -1 0 0 1 64
      >
      TAKE
      NAME "lh                   - National_Anthems_-_Czech_Republic.mid"
      TAKEVOLPAN 0 1 -1
      SOFFS 0 0
      PLAYRATE 1 1 0 -1 0 0.0025
      CHANMODE 0
      GUID {B707DABB-9E6F-9342-90AA-7589B09A6FB4}
      <SOURCE MIDI
        HASDATA 1 192 QN
        POOLEDEVTS {AE21125C-9DF7-B148-8E33-6D70AB3DCFE4}
        <X 0 0 0 0 3 "lh                  "
          /wNsaCAgICAgICAgICAgICAgICAgIA==
        >
        E 0 9d 26 64
        E 0 9d 32 64
        E 190 8d 26 40
        E 0 8d 32 40
        E 2 9d 39 64
        E 0 9d 36 64
        E 0 9d 32 64
        E 382 8d 39 40
        E 0 8d 36 40
        E 0 8d 32 40
        E 2 9d 3b 64
        E 0 9d 32 64
        E 0 9d 37 64
        E 94 8d 3b 40
        E 0 8d 32 40
        E 0 8d 37 40
        E 2 9d 39 64
        E 0 9d 36 64
        E 0 9d 32 64
        E 94 8d 39 40
        E 0 8d 36 40
        E 0 8d 32 40
        E 2 9d 37 64
        E 0 9d 34 64
        E 190 8d 37 40
        E 0 8d 34 40
        E 2 9d 2d 64
        E 382 8d 2d 40
        E 2 9d 2d 64
        E 190 8d 2d 40
        E 2 9d 32 64
        E 190 8d 32 40
        E 2 9d 30 64
        E 190 8d 30 40
        E 2 9d 2f 64
        E 190 8d 2f 40
        E 2 9d 2d 64
        E 190 8d 2d 40
        E 2 9d 2b 64
        E 190 8d 2b 40
        E 2 9d 2a 64
        E 190 8d 2a 40
        E 2 9d 28 64
        E 190 8d 28 40
        E 2 9d 2a 64
        E 94 8d 2a 40
        E 2 9d 2b 64
        E 94 8d 2b 40
        E 2 9d 2a 64
        E 190 8d 2a 40
        E 2 9d 2f 64
        E 190 8d 2f 40
        E 2 9d 32 64
        E 190 8d 32 40
        E 2 9d 30 64
        E 190 8d 30 40
        E 2 9d 2f 64
        E 190 8d 2f 40
        E 2 9d 2b 64
        E 190 8d 2b 40
        E 2 9d 28 64
        E 190 8d 28 40
        E 2 9d 29 64
        E 190 8d 29 40
        E 2 9d 2a 64
        E 94 8d 2a 40
        E 2 9d 31 64
        E 94 8d 31 40
        E 2 9d 36 64
        E 94 8d 36 40
        E 2 9d 38 64
        E 94 8d 38 40
        E 2 9d 39 64
        E 190 8d 39 40
        E 2 9d 36 64
        E 190 8d 36 40
        E 2 9d 34 64
        E 94 8d 34 40
        E 2 9d 2d 64
        E 94 8d 2d 40
        E 2 9d 31 64
        E 94 8d 31 40
        E 2 9d 34 64
        E 94 8d 34 40
        E 2 9d 39 64
        E 190 8d 39 40
        E 2 9d 2d 64
        E 190 8d 2d 40
        E 2 9d 26 64
        E 94 8d 26 40
        E 2 9d 2d 64
        E 94 8d 2d 40
        E 2 9d 32 64
        E 94 8d 32 40
        E 2 9d 34 64
        E 94 8d 34 40
        E 2 9d 36 64
        E 190 8d 36 40
        E 2 9d 32 64
        E 190 8d 32 40
        E 2 9d 34 64
        E 94 8d 34 40
        E 2 9d 2d 64
        E 94 8d 2d 40
        E 2 9d 31 64
        E 94 8d 31 40
        E 2 9d 34 64
        E 94 8d 34 40
        E 2 9d 39 64
        E 190 8d 39 40
        E 2 9d 2d 64
        E 190 8d 2d 40
        E 2 9d 26 64
        E 94 8d 26 40
        E 2 9d 2d 64
        E 94 8d 2d 40
        E 2 9d 32 64
        E 94 8d 32 40
        E 2 9d 34 64
        E 94 8d 34 40
        E 2 9d 36 64
        E 94 8d 36 40
        E 2 9d 34 64
        E 94 8d 34 40
        E 2 9d 32 64
        E 94 8d 32 40
        E 2 9d 31 64
        E 94 8d 31 40
        E 2 9d 2f 64
        E 94 8d 2f 40
        E 2 9d 2a 64
        E 94 8d 2a 40
        E 2 9d 2f 64
        E 94 8d 2f 40
        E 2 9d 32 64
        E 94 8d 32 40
        E 2 9d 31 64
        E 190 8d 31 40
        E 2 9d 2a 64
        E 190 8d 2a 40
        E 2 9d 2f 64
        E 94 8d 2f 40
        E 2 9d 2a 64
        E 94 8d 2a 40
        E 2 9d 2f 64
        E 94 8d 2f 40
        E 2 9d 32 64
        E 94 8d 32 40
        E 2 9d 36 64
        E 190 8d 36 40
        E 2 9d 34 64
        E 94 8d 34 40
        E 2 9d 32 64
        E 94 8d 32 40
        E 2 9d 31 64
        E 190 8d 31 40
        E 2 9d 34 64
        E 190 8d 34 40
        E 2 9d 2d 64
        E 190 8d 2d 40
        E 2 9d 34 64
        E 190 8d 34 40
        E 2 9d 2f 64
        E 94 8d 2f 40
        E 2 9d 32 64
        E 94 8d 32 40
        E 2 9d 36 64
        E 94 8d 36 40
        E 2 9d 3b 64
        E 94 8d 3b 40
        E 2 9d 3e 64
        E 190 8d 3e 40
        E 2 9d 2b 64
        E 190 8d 2b 40
        E 2 9d 2f 64
        E 94 8d 2f 40
        E 2 9d 32 64
        E 94 8d 32 40
        E 2 9d 36 64
        E 94 8d 36 40
        E 2 9d 32 64
        E 94 8d 32 40
        E 2 9d 39 64
        E 190 8d 39 40
        E 2 9d 2d 64
        E 190 8d 2d 40
        E 2 9d 32 64
        E 94 8d 32 40
        E 2 9d 2d 64
        E 94 8d 2d 40
        E 2 9d 2a 64
        E 94 8d 2a 40
        E 2 9d 2d 64
        E 94 8d 2d 40
        E 2 9d 26 64
        E 382 8d 26 40
        E 194 9d 2a 64
        E 94 8d 2a 40
        E 2 9d 2c 64
        E 94 8d 2c 40
        E 2 9d 2d 64
        E 190 8d 2d 40
        E 2 9d 2f 64
        E 94 8d 2f 40
        E 2 9d 31 64
        E 94 8d 31 40
        E 2 9d 32 64
        E 94 8d 32 40
        E 2 9d 31 64
        E 94 8d 31 40
        E 2 9d 2f 64
        E 94 8d 2f 40
        E 2 9d 31 64
        E 94 8d 31 40
        E 2 9d 32 64
        E 94 8d 32 40
        E 2 9d 31 64
        E 94 8d 31 40
        E 2 9d 36 64
        E 190 8d 36 40
        E 194 9d 2d 64
        E 94 8d 2d 40
        E 2 9d 2f 64
        E 94 8d 2f 40
        E 2 9d 31 64
        E 190 8d 31 40
        E 2 9d 32 64
        E 94 8d 32 40
        E 2 9d 34 64
        E 94 8d 34 40
        E 2 9d 36 64
        E 94 8d 36 40
        E 2 9d 34 64
        E 94 8d 34 40
        E 2 9d 32 64
        E 94 8d 32 40
        E 2 9d 34 64
        E 94 8d 34 40
        E 2 9d 36 64
        E 94 8d 36 40
        E 2 9d 34 64
        E 94 8d 34 40
        E 2 9d 39 64
        E 190 8d 39 40
        E 2 9d 39 64
        E 94 8d 39 40
        E 2 9d 36 64
        E 94 8d 36 40
        E 2 9d 38 64
        E 94 8d 38 40
        E 2 9d 39 64
        E 94 8d 39 40
        E 2 9d 3b 64
        E 94 8d 3b 40
        E 2 9d 2f 64
        E 94 8d 2f 40
        E 2 9d 31 64
        E 94 8d 31 40
        E 2 9d 32 64
        E 94 8d 32 40
        E 2 9d 34 64
        E 94 8d 34 40
        E 2 9d 31 64
        E 94 8d 31 40
        E 2 9d 32 64
        E 94 8d 32 40
        E 2 9d 34 64
        E 94 8d 34 40
        E 2 9d 36 64
        E 94 8d 36 40
        E 2 9d 2d 64
        E 94 8d 2d 40
        E 2 9d 2f 64
        E 94 8d 2f 40
        E 2 9d 31 64
        E 94 8d 31 40
        E 2 9d 32 64
        E 94 8d 32 40
        E 2 9d 31 64
        E 94 8d 31 40
        E 2 9d 2f 64
        E 94 8d 2f 40
        E 2 9d 31 64
        E 94 8d 31 40
        E 2 9d 32 64
        E 94 8d 32 40
        E 2 9d 31 64
        E 94 8d 31 40
        E 2 9d 2a 64
        E 190 8d 2a 40
        E 2 9d 39 64
        E 94 8d 39 40
        E 2 9d 36 64
        E 94 8d 36 40
        E 2 9d 38 64
        E 94 8d 38 40
        E 2 9d 39 64
        E 94 8d 39 40
        E 2 9d 3b 64
        E 94 8d 3b 40
        E 2 9d 2f 64
        E 94 8d 2f 40
        E 2 9d 31 64
        E 94 8d 31 40
        E 2 9d 32 64
        E 94 8d 32 40
        E 2 9d 34 64
        E 94 8d 34 40
        E 2 9d 31 64
        E 94 8d 31 40
        E 2 9d 32 64
        E 94 8d 32 40
        E 2 9d 34 64
        E 94 8d 34 40
        E 2 9d 36 64
        E 94 8d 36 40
        E 2 9d 2d 64
        E 94 8d 2d 40
        E 2 9d 2f 64
        E 94 8d 2f 40
        E 2 9d 31 64
        E 94 8d 31 40
        E 2 9d 32 64
        E 94 8d 32 40
        E 2 9d 31 64
        E 94 8d 31 40
        E 2 9d 2f 64
        E 94 8d 2f 40
        E 2 9d 31 64
        E 94 8d 31 40
        E 2 9d 32 64
        E 94 8d 32 40
        E 2 9d 31 64
        E 94 8d 31 40
        E 2 9d 2a 64
        E 575 8d 2a 40
        E 1 b0 7b 00
        GUID {122165D8-0A25-B64E-B65B-F17FAB496BA0}
        IGNTEMPO 0 120 4 4
        SRCCOLOR 675
        VELLANE -1 86 6
      >
    >
    <ITEM
      POSITION 0
      SNAPOFFS 0
      LENGTH 55
      LOOP 1
      ALLTAKES 0
      FADEIN 1 0 0 1 0 0
      FADEOUT 1 0 0 1 0 0
      MUTE 0
      SEL 0
      YPOS 0.222222 0.111111
      IGUID {F3A46F50-3D61-E244-B3AF-0CC481218FC7}
      IID 3
      NAME "Accomp. LH           - National_Anthems_-_Czech_Republic.mid"
      VOLPAN 1 0 1 -1
      SOFFS 0 0
      PLAYRATE 1 1 0 -1 0 0.0025
      CHANMODE 0
      TAKECOLOR 26173599 B
      GUID {0A050380-643E-874E-ACC4-2D63F606B633}
      <SOURCE MIDI
        HASDATA 1 192 QN
        POOLEDEVTS {88D74267-C0C7-8743-89CD-261C6DA98D20}
        <X 0 0 0 0 3 "Accomp. LH          "
          /wNBY2NvbXAuIExIICAgICAgICAgIA==
        >
        e 0 92 26 64
        e 0 92 32 64
        e 190 82 26 40
        e 0 82 32 40
        e 2 92 32 64
        e 0 92 36 64
        e 0 92 39 64
        e 382 82 32 40
        e 0 82 36 40
        e 0 82 39 40
        e 2 92 32 64
        e 0 92 37 64
        e 0 92 3b 64
        e 94 82 32 40
        e 0 82 37 40
        e 0 82 3b 40
        e 2 92 32 64
        e 0 92 36 64
        e 0 92 39 64
        e 94 82 32 40
        e 0 82 36 40
        e 0 82 39 40
        e 2 92 34 64
        e 0 92 37 64
        e 190 82 34 40
        e 0 82 37 40
        e 2 92 2d 64
        e 382 82 2d 40
        e 2 92 2d 64
        e 190 82 2d 40
        e 2 92 32 64
        e 190 82 32 40
        e 2 92 30 64
        e 190 82 30 40
        e 2 92 2f 64
        e 190 82 2f 40
        e 2 92 2d 64
        e 190 82 2d 40
        e 2 92 2b 64
        e 190 82 2b 40
        e 2 92 2a 64
        e 190 82 2a 40
        e 2 92 28 64
        e 190 82 28 40
        e 2 92 2a 64
        e 94 82 2a 40
        e 2 92 2b 64
        e 94 82 2b 40
        e 2 92 2a 64
        e 190 82 2a 40
        e 2 92 2f 64
        e 190 82 2f 40
        e 2 92 32 64
        e 190 82 32 40
        e 2 92 30 64
        e 190 82 30 40
        e 2 92 2f 64
        e 190 82 2f 40
        e 2 92 2b 64
        e 190 82 2b 40
        e 2 92 28 64
        e 190 82 28 40
        e 2 92 29 64
        e 190 82 29 40
        e 2 92 2a 64
        e 94 82 2a 40
        e 2 92 31 64
        e 94 82 31 40
        e 2 92 36 64
        e 94 82 36 40
        e 2 92 38 64
        e 94 82 38 40
        e 2 92 39 64
        e 190 82 39 40
        e 2 92 36 64
        e 190 82 36 40
        e 2 92 34 64
        e 94 82 34 40
        e 2 92 2d 64
        e 94 82 2d 40
        e 2 92 31 64
        e 94 82 31 40
        e 2 92 34 64
        e 94 82 34 40
        e 2 92 39 64
        e 190 82 39 40
        e 2 92 2d 64
        e 190 82 2d 40
        e 2 92 26 64
        e 94 82 26 40
        e 2 92 2d 64
        e 94 82 2d 40
        e 2 92 32 64
        e 94 82 32 40
        e 2 92 34 64
        e 94 82 34 40
        e 2 92 36 64
        e 190 82 36 40
        e 2 92 32 64
        e 190 82 32 40
        e 2 92 34 64
        e 94 82 34 40
        e 2 92 2d 64
        e 94 82 2d 40
        e 2 92 31 64
        e 94 82 31 40
        e 2 92 34 64
        e 94 82 34 40
        e 2 92 39 64
        e 190 82 39 40
        e 2 92 2d 64
        e 190 82 2d 40
        e 2 92 26 64
        e 94 82 26 40
        e 2 92 2d 64
        e 94 82 2d 40
        e 2 92 32 64
        e 94 82 32 40
        e 2 92 34 64
        e 94 82 34 40
        e 2 92 36 64
        e 94 82 36 40
        e 2 92 34 64
        e 94 82 34 40
        e 2 92 32 64
        e 94 82 32 40
        e 2 92 31 64
        e 94 82 31 40
        e 2 92 2f 64
        e 94 82 2f 40
        e 2 92 2a 64
        e 94 82 2a 40
        e 2 92 2f 64
        e 94 82 2f 40
        e 2 92 32 64
        e 94 82 32 40
        e 2 92 31 64
        e 190 82 31 40
        e 2 92 2a 64
        e 190 82 2a 40
        e 2 92 2f 64
        e 94 82 2f 40
        e 2 92 2a 64
        e 94 82 2a 40
        e 2 92 2f 64
        e 94 82 2f 40
        e 2 92 32 64
        e 94 82 32 40
        e 2 92 36 64
        e 190 82 36 40
        e 2 92 34 64
        e 94 82 34 40
        e 2 92 32 64
        e 94 82 32 40
        e 2 92 31 64
        e 190 82 31 40
        e 2 92 34 64
        e 190 82 34 40
        e 2 92 2d 64
        e 190 82 2d 40
        e 2 92 34 64
        e 190 82 34 40
        e 2 92 2f 64
        e 94 82 2f 40
        e 2 92 32 64
        e 94 82 32 40
        e 2 92 36 64
        e 94 82 36 40
        e 2 92 3b 64
        e 94 82 3b 40
        e 2 92 3e 64
        e 190 82 3e 40
        e 2 92 2b 64
        e 190 82 2b 40
        e 2 92 2f 64
        e 94 82 2f 40
        e 2 92 32 64
        e 94 82 32 40
        e 2 92 36 64
        e 94 82 36 40
        e 2 92 32 64
        e 94 82 32 40
        e 2 92 39 64
        e 190 82 39 40
        e 2 92 2d 64
        e 190 82 2d 40
        e 2 92 32 64
        e 94 82 32 40
        e 2 92 2d 64
        e 94 82 2d 40
        e 2 92 2a 64
        e 94 82 2a 40
        e 2 92 2d 64
        e 94 82 2d 40
        e 2 92 26 64
        e 382 82 26 40
        e 194 92 2a 64
        e 94 82 2a 40
        e 2 92 2c 64
        e 94 82 2c 40
        e 2 92 2d 64
        e 190 82 2d 40
        e 2 92 2f 64
        e 94 82 2f 40
        e 2 92 31 64
        e 94 82 31 40
        e 2 92 32 64
        e 94 82 32 40
        e 2 92 31 64
        e 94 82 31 40
        e 2 92 2f 64
        e 94 82 2f 40
        e 2 92 31 64
        e 94 82 31 40
        e 2 92 32 64
        e 94 82 32 40
        e 2 92 31 64
        e 94 82 31 40
        e 2 92 36 64
        e 190 82 36 40
        e 194 92 2d 64
        e 94 82 2d 40
        e 2 92 2f 64
        e 94 82 2f 40
        e 2 92 31 64
        e 190 82 31 40
        e 2 92 32 64
        e 94 82 32 40
        e 2 92 34 64
        e 94 82 34 40
        e 2 92 36 64
        e 94 82 36 40
        e 2 92 34 64
        e 94 82 34 40
        e 2 92 32 64
        e 94 82 32 40
        e 2 92 34 64
        e 94 82 34 40
        e 2 92 36 64
        e 94 82 36 40
        e 2 92 34 64
        e 94 82 34 40
        e 2 92 39 64
        e 190 82 39 40
        e 2 92 39 64
        e 94 82 39 40
        e 2 92 36 64
        e 94 82 36 40
        e 2 92 38 64
        e 94 82 38 40
        e 2 92 39 64
        e 94 82 39 40
        e 2 92 3b 64
        e 94 82 3b 40
        e 2 92 2f 64
        e 94 82 2f 40
        e 2 92 31 64
        e 94 82 31 40
        e 2 92 32 64
        e 94 82 32 40
        e 2 92 34 64
        e 94 82 34 40
        e 2 92 31 64
        e 94 82 31 40
        e 2 92 32 64
        e 94 82 32 40
        e 2 92 34 64
        e 94 82 34 40
        e 2 92 36 64
        e 94 82 36 40
        e 2 92 2d 64
        e 94 82 2d 40
        e 2 92 2f 64
        e 94 82 2f 40
        e 2 92 31 64
        e 94 82 31 40
        e 2 92 32 64
        e 94 82 32 40
        e 2 92 31 64
        e 94 82 31 40
        e 2 92 2f 64
        e 94 82 2f 40
        e 2 92 31 64
        e 94 82 31 40
        e 2 92 32 64
        e 94 82 32 40
        e 2 92 31 64
        e 94 82 31 40
        e 2 92 2a 64
        e 190 82 2a 40
        e 2 92 39 64
        e 94 82 39 40
        e 2 92 36 64
        e 94 82 36 40
        e 2 92 38 64
        e 94 82 38 40
        e 2 92 39 64
        e 94 82 39 40
        e 2 92 3b 64
        e 94 82 3b 40
        e 2 92 2f 64
        e 94 82 2f 40
        e 2 92 31 64
        e 94 82 31 40
        e 2 92 32 64
        e 94 82 32 40
        e 2 92 34 64
        e 94 82 34 40
        e 2 92 31 64
        e 94 82 31 40
        e 2 92 32 64
        e 94 82 32 40
        e 2 92 34 64
        e 94 82 34 40
        e 2 92 36 64
        e 94 82 36 40
        e 2 92 2d 64
        e 94 82 2d 40
        e 2 92 2f 64
        e 94 82 2f 40
        e 2 92 31 64
        e 94 82 31 40
        e 2 92 32 64
        e 94 82 32 40
        e 2 92 31 64
        e 94 82 31 40
        e 2 92 2f 64
        e 94 82 2f 40
        e 2 92 31 64
        e 94 82 31 40
        e 2 92 32 64
        e 94 82 32 40
        e 2 92 31 64
        e 94 82 31 40
        e 2 92 2a 64
        e 575 82 2a 40
        E 1 b0 7b 00
        GUID {2C2BF260-3948-ED4E-822A-5A50A8136B1D}
        IGNTEMPO 0 120 4 4
        SRCCOLOR 615
        VELLANE -1 86 6
        CFGEDITVIEW -899.303226 23.057851 50 16 0 0 0 0 0 0.5
        KEYSNAP 0
        TRACKSEL 226
        EVTFILTER 0 -1 -1 -1 -1 0 0 0 0 -1 -1 -1 -1 0 -1 0 -1 -1
        CFGEDIT 1 1 0 0 0 0 1 0 1 1 1 0.25 506 494 1014 762 1 0 1 3 0 0 0 0 0 -1 0 0 1 64
      >
      TAKE
      NAME "Accomp. LH           - National_Anthems_-_Czech_Republic.mid"
      TAKEVOLPAN 0 1 -1
      SOFFS 0 0
      PLAYRATE 1 1 0 -1 0 0.0025
      CHANMODE 0
      GUID {7954F2EF-4F15-E048-B8E9-D980E715CCEC}
      <SOURCE MIDI
        HASDATA 1 192 QN
        POOLEDEVTS {C44F7445-1AED-4040-8CD0-03CB1B45E29B}
        <X 0 0 0 0 3 "Accomp. LH          "
          /wNBY2NvbXAuIExIICAgICAgICAgIA==
        >
        E 0 92 26 64
        E 0 92 32 64
        E 190 82 26 40
        E 0 82 32 40
        E 2 92 39 64
        E 0 92 36 64
        E 0 92 32 64
        E 382 82 39 40
        E 0 82 36 40
        E 0 82 32 40
        E 2 92 3b 64
        E 0 92 32 64
        E 0 92 37 64
        E 94 82 3b 40
        E 0 82 32 40
        E 0 82 37 40
        E 2 92 39 64
        E 0 92 36 64
        E 0 92 32 64
        E 94 82 39 40
        E 0 82 36 40
        E 0 82 32 40
        E 2 92 37 64
        E 0 92 34 64
        E 190 82 37 40
        E 0 82 34 40
        E 2 92 2d 64
        E 382 82 2d 40
        E 2 92 2d 64
        E 190 82 2d 40
        E 2 92 32 64
        E 190 82 32 40
        E 2 92 30 64
        E 190 82 30 40
        E 2 92 2f 64
        E 190 82 2f 40
        E 2 92 2d 64
        E 190 82 2d 40
        E 2 92 2b 64
        E 190 82 2b 40
        E 2 92 2a 64
        E 190 82 2a 40
        E 2 92 28 64
        E 190 82 28 40
        E 2 92 2a 64
        E 94 82 2a 40
        E 2 92 2b 64
        E 94 82 2b 40
        E 2 92 2a 64
        E 190 82 2a 40
        E 2 92 2f 64
        E 190 82 2f 40
        E 2 92 32 64
        E 190 82 32 40
        E 2 92 30 64
        E 190 82 30 40
        E 2 92 2f 64
        E 190 82 2f 40
        E 2 92 2b 64
        E 190 82 2b 40
        E 2 92 28 64
        E 190 82 28 40
        E 2 92 29 64
        E 190 82 29 40
        E 2 92 2a 64
        E 94 82 2a 40
        E 2 92 31 64
        E 94 82 31 40
        E 2 92 36 64
        E 94 82 36 40
        E 2 92 38 64
        E 94 82 38 40
        E 2 92 39 64
        E 190 82 39 40
        E 2 92 36 64
        E 190 82 36 40
        E 2 92 34 64
        E 94 82 34 40
        E 2 92 2d 64
        E 94 82 2d 40
        E 2 92 31 64
        E 94 82 31 40
        E 2 92 34 64
        E 94 82 34 40
        E 2 92 39 64
        E 190 82 39 40
        E 2 92 2d 64
        E 190 82 2d 40
        E 2 92 26 64
        E 94 82 26 40
        E 2 92 2d 64
        E 94 82 2d 40
        E 2 92 32 64
        E 94 82 32 40
        E 2 92 34 64
        E 94 82 34 40
        E 2 92 36 64
        E 190 82 36 40
        E 2 92 32 64
        E 190 82 32 40
        E 2 92 34 64
        E 94 82 34 40
        E 2 92 2d 64
        E 94 82 2d 40
        E 2 92 31 64
        E 94 82 31 40
        E 2 92 34 64
        E 94 82 34 40
        E 2 92 39 64
        E 190 82 39 40
        E 2 92 2d 64
        E 190 82 2d 40
        E 2 92 26 64
        E 94 82 26 40
        E 2 92 2d 64
        E 94 82 2d 40
        E 2 92 32 64
        E 94 82 32 40
        E 2 92 34 64
        E 94 82 34 40
        E 2 92 36 64
        E 94 82 36 40
        E 2 92 34 64
        E 94 82 34 40
        E 2 92 32 64
        E 94 82 32 40
        E 2 92 31 64
        E 94 82 31 40
        E 2 92 2f 64
        E 94 82 2f 40
        E 2 92 2a 64
        E 94 82 2a 40
        E 2 92 2f 64
        E 94 82 2f 40
        E 2 92 32 64
        E 94 82 32 40
        E 2 92 31 64
        E 190 82 31 40
        E 2 92 2a 64
        E 190 82 2a 40
        E 2 92 2f 64
        E 94 82 2f 40
        E 2 92 2a 64
        E 94 82 2a 40
        E 2 92 2f 64
        E 94 82 2f 40
        E 2 92 32 64
        E 94 82 32 40
        E 2 92 36 64
        E 190 82 36 40
        E 2 92 34 64
        E 94 82 34 40
        E 2 92 32 64
        E 94 82 32 40
        E 2 92 31 64
        E 190 82 31 40
        E 2 92 34 64
        E 190 82 34 40
        E 2 92 2d 64
        E 190 82 2d 40
        E 2 92 34 64
        E 190 82 34 40
        E 2 92 2f 64
        E 94 82 2f 40
        E 2 92 32 64
        E 94 82 32 40
        E 2 92 36 64
        E 94 82 36 40
        E 2 92 3b 64
        E 94 82 3b 40
        E 2 92 3e 64
        E 190 82 3e 40
        E 2 92 2b 64
        E 190 82 2b 40
        E 2 92 2f 64
        E 94 82 2f 40
        E 2 92 32 64
        E 94 82 32 40
        E 2 92 36 64
        E 94 82 36 40
        E 2 92 32 64
        E 94 82 32 40
        E 2 92 39 64
        E 190 82 39 40
        E 2 92 2d 64
        E 190 82 2d 40
        E 2 92 32 64
        E 94 82 32 40
        E 2 92 2d 64
        E 94 82 2d 40
        E 2 92 2a 64
        E 94 82 2a 40
        E 2 92 2d 64
        E 94 82 2d 40
        E 2 92 26 64
        E 382 82 26 40
        E 194 92 2a 64
        E 94 82 2a 40
        E 2 92 2c 64
        E 94 82 2c 40
        E 2 92 2d 64
        E 190 82 2d 40
        E 2 92 2f 64
        E 94 82 2f 40
        E 2 92 31 64
        E 94 82 31 40
        E 2 92 32 64
        E 94 82 32 40
        E 2 92 31 64
        E 94 82 31 40
        E 2 92 2f 64
        E 94 82 2f 40
        E 2 92 31 64
        E 94 82 31 40
        E 2 92 32 64
        E 94 82 32 40
        E 2 92 31 64
        E 94 82 31 40
        E 2 92 36 64
        E 190 82 36 40
        E 194 92 2d 64
        E 94 82 2d 40
        E 2 92 2f 64
        E 94 82 2f 40
        E 2 92 31 64
        E 190 82 31 40
        E 2 92 32 64
        E 94 82 32 40
        E 2 92 34 64
        E 94 82 34 40
        E 2 92 36 64
        E 94 82 36 40
        E 2 92 34 64
        E 94 82 34 40
        E 2 92 32 64
        E 94 82 32 40
        E 2 92 34 64
        E 94 82 34 40
        E 2 92 36 64
        E 94 82 36 40
        E 2 92 34 64
        E 94 82 34 40
        E 2 92 39 64
        E 190 82 39 40
        E 2 92 39 64
        E 94 82 39 40
        E 2 92 36 64
        E 94 82 36 40
        E 2 92 38 64
        E 94 82 38 40
        E 2 92 39 64
        E 94 82 39 40
        E 2 92 3b 64
        E 94 82 3b 40
        E 2 92 2f 64
        E 94 82 2f 40
        E 2 92 31 64
        E 94 82 31 40
        E 2 92 32 64
        E 94 82 32 40
        E 2 92 34 64
        E 94 82 34 40
        E 2 92 31 64
        E 94 82 31 40
        E 2 92 32 64
        E 94 82 32 40
        E 2 92 34 64
        E 94 82 34 40
        E 2 92 36 64
        E 94 82 36 40
        E 2 92 2d 64
        E 94 82 2d 40
        E 2 92 2f 64
        E 94 82 2f 40
        E 2 92 31 64
        E 94 82 31 40
        E 2 92 32 64
        E 94 82 32 40
        E 2 92 31 64
        E 94 82 31 40
        E 2 92 2f 64
        E 94 82 2f 40
        E 2 92 31 64
        E 94 82 31 40
        E 2 92 32 64
        E 94 82 32 40
        E 2 92 31 64
        E 94 82 31 40
        E 2 92 2a 64
        E 190 82 2a 40
        E 2 92 39 64
        E 94 82 39 40
        E 2 92 36 64
        E 94 82 36 40
        E 2 92 38 64
        E 94 82 38 40
        E 2 92 39 64
        E 94 82 39 40
        E 2 92 3b 64
        E 94 82 3b 40
        E 2 92 2f 64
        E 94 82 2f 40
        E 2 92 31 64
        E 94 82 31 40
        E 2 92 32 64
        E 94 82 32 40
        E 2 92 34 64
        E 94 82 34 40
        E 2 92 31 64
        E 94 82 31 40
        E 2 92 32 64
        E 94 82 32 40
        E 2 92 34 64
        E 94 82 34 40
        E 2 92 36 64
        E 94 82 36 40
        E 2 92 2d 64
        E 94 82 2d 40
        E 2 92 2f 64
        E 94 82 2f 40
        E 2 92 31 64
        E 94 82 31 40
        E 2 92 32 64
        E 94 82 32 40
        E 2 92 31 64
        E 94 82 31 40
        E 2 92 2f 64
        E 94 82 2f 40
        E 2 92 31 64
        E 94 82 31 40
        E 2 92 32 64
        E 94 82 32 40
        E 2 92 31 64
        E 94 82 31 40
        E 2 92 2a 64
        E 575 82 2a 40
        E 1 b0 7b 00
        GUID {CA709507-5833-8C48-BD02-8F083C43C279}
        IGNTEMPO 0 120 4 4
        SRCCOLOR 673
        VELLANE -1 86 6
      >
    >
  >
  <TRACK {4A6CD977-ADCC-3A4D-927C-BB2CEF4B0809}
    NAME "vst Gladiator"
    PEAKCOL 27222112
    BEAT -1
    AUTOMODE 0
    VOLPAN 0.31512284826423 0 -1 -1 1
    MUTESOLO 0 0 0
    IPHASE 0
    ISBUS 0 0
    BUSCOMP 2 0
    SHOWINMIX 1 0.6667 0.5 1 0.5 0 0 0
    FREEMODE 0
    SEL 0
    REC 0 0 0 0 0 0 0
    VU 2
    TRACKHEIGHT 122 0
    INQ 0 0 0 0.5 100 0 0 100
    NCHAN 2
    FX 1
    TRACKID {4A6CD977-ADCC-3A4D-927C-BB2CEF4B0809}
    PERF 0
    MIDIOUT -1
    MAINSEND 1 0
    <FXCHAIN
      SHOW 0
      LASTSEL 0
      DOCKED 0
      BYPASS 0 0 0
      <VST "VSTi: Gladiator (Tone2.com)" Gladiator.vst 0 "" 1412581196
        TEcyVO5e7f4AAAAAAgAAAAEAAAAAAAAAAgAAAAAAAABaBAAAAQAAAAAAEAA=
        Q2NuSwAAAGBGeENrAAAAAVQyR0wAAAABAAABB0luaXQAAAAAAAAAAAAAAAAAAAAAAAAAAAAAAAA9zMzNPMzMzTw0OVg9uFH0PXnbIz+AAAA7xJumPb52yT+AAAA7xJum
        AAAAAD6mZmY+PXCkP4AAAD7FHrk/AAAAPwAAAAAAAAA9ffO2PdDlYDy8an8/RR64AAAAAD+AAAA8NDlYPZFocz71wo87RJumPbhR6D69cKQ+PXCkP4AAAD8AAAA/A9cL
        PwAAAAAAAAAAAAAAPwAAAD8AAAA/AAAAPtmZmj8AAAAAAAAAO+VgQj24UesAAAAAPk21xDtEm6Y/S4UeAAAAAAAAAAA+64UgPpR64T1hR7A+z1woPx64Uj49cKY/AAAA
        PwAAAAAAAAAAAAAAPwAAAAAAAAAAAAAAP4AAAD+AAAAAAAAAPxHrhT8AAAA/AAAAPwAAAD8AAAAAAAAAPwAAAD8AAAA/AAAAAAAAAD8AAAA/AAAAPwAAAAAAAAA6gxJv
        P1Cj1wAAAAA/gAAAAAAAADqDEm8/AAAAAAAAAAAAAAAAAAAAPwAAAAAAAAA/gAAAAAAAAD+AAAAAAAAAPwAAAD8AAAA/AAAAPwAAAD8AAAA/AAAAPwAAAD8AAAA/AAAA
        PwAAAD8AAAA/EeuGPKPXCjqDEm88RJumAAAAAAAAAAAAAAAAPLxqfwAAAAAAAAAAAAAAAAAAAAAAAAAAAAAAAAAAAAAAAAAAAAAAAAAAAAAAAAAAAAAAAAAAAAAAAAAA
        AAAAAAAAAAA8E3S8AAAAADw0OVgAAAAAPBN0vAAAAAA8NDlYAAAAADwTdLwAAAAAPDQ5WAAAAAA8E3S8AAAAADw0OVgAAAAAPGVgQj2HKwI8ZWBCOwMSbz2JN0w7AxJv
        PLQ5WDyLQ5Y8k3S8PVT99D0XjVA8zMzNPoAAAD9ywjU/AAAAP1GnuT8wjT4/HLCNAAAAADsDEm86gxJvAAAAAAAAAAAAAAAAPwAAADqDEm87RJumP4AAAAAAAAA/gAAA
        AAAAAD+AAAAAAAAAAAAAAAAAAAAAAAAAP4AAAAAAAAA/AAAAAAAAAD8AAAA/BR64PwAAAD+AAAA/AAAAPwAAAD8AAAA/gAAAP4AAAAAAAAAAAAAAAAAAAD8AAAA/gAAA
        PwAAAAAAAAA+vXCkAAAAAAAAAAA/gAAAP4AAAD8j1wo/gAAAAAAAAAAAAAA/gAAAPwAAAAAAAAAAAAAAAAAAAAAAAAAAAAAAAAAAAAAAAAAAAAAAAAAAAAAAAAAAAAAA
        AAAAAD8AAAA/AAAAPwAAAD8AAAA/AAAAPwAAAAAAAAAAAAAAP4AAAAAAAAAAAAAAAAAAAAAAAAAAAAAAAAAAAAAAAAAAAAAAAAAAAAAAAAAAAAAAAAAAAAAAAAAAAAAA
        AAAAAAAAAAAAAAAAAAAAAAAAAAAAAAAAAAAAAAAAAAAAAAAAAAAAAAAAAAAAAAAAAAAAAAAAqqusrQ==
        AEluaXQAEAAAAA==
      >
      PRESETNAME Init
      FLOATPOS 500 379 987 799
      FXID {532372E3-5B0D-9345-A9C8-98A8EBAF9A7E}
      WAK 0
    >
    <ITEM
      POSITION 0
      SNAPOFFS 0
      LENGTH 55
      LOOP 1
      ALLTAKES 0
      FADEIN 1 0 0 1 0 0
      FADEOUT 1 0 0 1 0 0
      MUTE 0
      SEL 0
      YPOS 0.5 0.25
      IGUID {797B8E0A-D524-2143-8FC4-49793759300D}
      IID 8
      NAME "rh                   - National_Anthems_-_Czech_Republic.mid"
      VOLPAN 1 0 1 -1
      SOFFS 0 0
      PLAYRATE 1 1 0 -1 0 0.0025
      CHANMODE 0
      TAKECOLOR 26173599 B
      GUID {60D1D8D9-D478-9B40-A33D-D0BE51D6F6B7}
      <SOURCE MIDI
        HASDATA 1 192 QN
        POOLEDEVTS {4BA0D66F-771F-544B-84CF-9147B9943876}
        <X 0 0 0 0 3 "rh                  "
          /wNyaCAgICAgICAgICAgICAgICAgIA==
        >
        e 192 90 3e 64
        e 0 90 42 64
        e 0 90 45 64
        e 382 80 3e 40
        e 0 80 42 40
        e 0 80 45 40
        e 2 90 3e 64
        e 0 90 43 64
        e 0 90 47 64
        e 94 80 3e 40
        e 0 80 43 40
        e 0 80 47 40
        e 2 90 3e 64
        e 0 90 42 64
        e 0 90 45 64
        e 94 80 3e 40
        e 0 80 42 40
        e 0 80 45 40
        e 2 90 3b 64
        e 0 90 40 64
        e 190 80 3b 40
        e 0 80 40 40
        e 2 90 3b 64
        e 0 90 3d 64
        e 0 90 43 64
        e 382 80 3b 40
        e 0 80 3d 40
        e 0 80 43 40
        e 2 90 39 64
        e 0 90 3d 64
        e 0 90 42 64
        e 94 80 39 40
        e 0 80 3d 40
        e 0 80 42 40
        e 2 90 37 64
        e 0 90 40 64
        e 94 80 37 40
        e 0 80 40 40
        e 2 90 36 64
        e 0 90 3e 64
        e 574 80 36 40
        e 0 80 3e 40
        e 2 90 36 64
        e 0 90 3c 64
        e 0 90 3e 64
        e 142 80 3e 40
        e 48 80 36 40
        e 0 80 3c 40
        e 2 90 3b 64
        e 0 90 3e 64
        e 94 80 3b 40
        e 0 80 3e 40
        e 2 90 43 64
        e 94 80 43 40
        e 2 90 3b 64
        e 0 90 3e 64
        e 0 90 43 64
        e 382 80 3b 40
        e 0 80 3e 40
        e 0 80 43 40
        e 2 90 39 64
        e 0 90 3e 64
        e 0 90 45 64
        e 94 80 39 40
        e 0 80 3e 40
        e 0 80 45 40
        e 2 90 3b 64
        e 0 90 47 64
        e 94 80 3b 40
        e 0 80 47 40
        e 2 90 39 64
        e 0 90 3d 64
        e 0 90 45 64
        e 94 80 39 40
        e 0 80 3d 40
        e 0 80 45 40
        e 2 90 42 64
        e 94 80 42 40
        e 2 90 36 64
        e 0 90 3b 64
        e 0 90 3e 64
        e 190 80 3b 40
        e 192 80 36 40
        e 0 80 3e 40
        e 2 90 36 64
        e 0 90 39 64
        e 0 90 3e 64
        e 94 80 39 40
        e 0 80 3e 40
        e 2 90 3e 64
        e 22 80 36 40
        e 74 80 3e 40
        e 0 90 37 64
        e 0 90 3e 64
        e 94 80 37 40
        e 0 80 3e 40
        e 2 90 43 64
        e 94 80 43 40
        e 2 90 3b 64
        e 0 90 3e 64
        e 0 90 43 64
        e 94 80 3b 40
        e 0 80 3e 40
        e 0 80 43 40
        e 2 90 47 64
        e 94 80 47 40
        e 2 90 3e 64
        e 0 90 47 64
        e 0 90 4a 64
        e 190 80 3e 40
        e 0 80 47 40
        e 0 80 4a 40
        e 2 90 3d 64
        e 0 90 45 64
        e 0 90 49 64
        e 94 80 3d 40
        e 0 80 45 40
        e 0 80 49 40
        e 2 90 3b 64
        e 0 90 44 64
        e 0 90 47 64
        e 94 80 3b 40
        e 0 80 44 40
        e 0 80 47 40
        e 2 90 3b 64
        e 0 90 44 64
        e 0 90 47 64
        e 190 80 3b 40
        e 0 80 44 40
        e 0 80 47 40
        e 2 90 39 64
        e 0 90 42 64
        e 0 90 45 64
        e 94 80 39 40
        e 2 90 3b 64
        e 94 80 3b 40
        e 2 90 3d 64
        e 190 80 42 40
        e 0 80 45 40
        e 2 90 45 64
        e 142 80 45 40
        e 2 90 45 64
        e 46 80 3d 40
        e 0 80 45 40
        e 2 90 3d 64
        e 0 90 43 64
        e 0 90 45 64
        e 462 80 3d 40
        e 0 80 43 40
        e 0 80 45 40
        e 18 90 3b 64
        e 0 90 43 64
        e 0 90 47 64
        e 94 80 3b 40
        e 0 80 43 40
        e 0 80 47 40
        e 2 90 3c 64
        e 0 90 42 64
        e 0 90 45 64
        e 94 80 3c 40
        e 0 80 42 40
        e 0 80 45 40
        e 2 90 3d 64
        e 0 90 40 64
        e 0 90 43 64
        e 94 80 3d 40
        e 0 80 40 40
        e 0 80 43 40
        e 2 90 3e 64
        e 0 90 42 64
        e 574 80 3e 40
        e 0 80 42 40
        e 2 90 3e 64
        e 0 90 42 64
        e 0 90 45 64
        e 142 80 3e 40
        e 0 80 42 40
        e 0 80 45 40
        e 2 90 45 64
        e 46 80 45 40
        e 2 90 40 64
        e 0 90 43 64
        e 0 90 49 64
        e 414 80 40 40
        e 0 80 43 40
        e 0 80 49 40
        e 66 90 3b 64
        e 0 90 43 64
        e 0 90 47 64
        e 94 80 3b 40
        e 0 80 43 40
        e 0 80 47 40
        e 2 90 3c 64
        e 0 90 42 64
        e 0 90 45 64
        e 94 80 3c 40
        e 0 80 42 40
        e 0 80 45 40
        e 2 90 3d 64
        e 0 90 40 64
        e 0 90 43 64
        e 94 80 3d 40
        e 0 80 40 40
        e 0 80 43 40
        e 2 90 3e 64
        e 0 90 42 64
        e 574 80 3e 40
        e 0 80 42 40
        e 2 90 3a 64
        e 0 90 40 64
        e 0 90 42 64
        e 142 80 42 40
        e 2 90 42 64
        e 46 80 3a 40
        e 0 80 40 40
        e 0 80 42 40
        e 2 90 3b 64
        e 0 90 3e 64
        e 0 90 42 64
        e 190 80 3b 40
        e 0 80 3e 40
        e 2 90 3b 64
        e 0 90 3e 64
        e 190 80 3b 40
        e 0 80 3e 40
        e 2 90 3a 64
        e 0 90 40 64
        e 30 80 42 40
        e 66 90 42 64
        e 94 80 3a 40
        e 0 80 40 40
        e 0 80 42 40
        e 2 90 3e 64
        e 0 90 42 64
        e 0 90 44 64
        e 94 80 3e 40
        e 0 80 42 40
        e 0 80 44 40
        e 2 90 3d 64
        e 0 90 40 64
        e 0 90 46 64
        e 94 80 3d 40
        e 0 80 40 40
        e 0 80 46 40
        e 2 90 3d 64
        e 0 90 40 64
        e 0 90 46 64
        e 94 80 3d 40
        e 0 80 40 40
        e 0 80 46 40
        e 2 90 3b 64
        e 0 90 3d 64
        e 0 90 3e 64
        e 0 90 47 64
        e 94 80 3b 40
        e 0 80 3d 40
        e 0 80 3e 40
        e 0 80 47 40
        e 2 90 3b 64
        e 0 90 3e 64
        e 0 90 47 64
        e 382 80 3b 40
        e 0 80 3e 40
        e 0 80 47 40
        e 2 90 3b 64
        e 0 90 43 64
        e 0 90 47 64
        e 142 80 47 40
        e 2 90 47 64
        e 46 80 3b 40
        e 0 80 43 40
        e 0 80 47 40
        e 2 90 40 64
        e 0 90 43 64
        e 0 90 47 64
        e 94 80 47 40
        e 2 90 45 64
        e 94 80 40 40
        e 0 80 43 40
        e 0 80 45 40
        e 2 90 3d 64
        e 0 90 43 64
        e 0 90 45 64
        e 382 80 3d 40
        e 0 80 43 40
        e 0 80 45 40
        e 2 90 3d 64
        e 0 90 43 64
        e 94 80 43 40
        e 96 80 3d 40
        e 2 90 3e 64
        e 0 90 42 64
        e 190 80 3e 40
        e 0 80 42 40
        e 2 90 42 64
        e 0 90 47 64
        e 0 90 4a 64
        e 382 80 42 40
        e 0 80 47 40
        e 0 80 4a 40
        e 2 90 3e 64
        e 0 90 45 64
        e 0 90 49 64
        e 94 80 45 40
        e 0 80 49 40
        e 2 90 43 64
        e 0 90 47 64
        e 94 80 3e 40
        e 0 80 43 40
        e 0 80 47 40
        e 2 90 3e 64
        e 0 90 42 64
        e 0 90 47 64
        e 190 80 47 40
        e 2 90 45 64
        e 190 80 3e 40
        e 0 80 42 40
        e 192 80 45 40
        e 2 90 37 64
        e 0 90 3d 64
        e 0 90 40 64
        e 94 80 37 40
        e 2 90 42 64
        e 94 80 3d 40
        e 0 80 40 40
        e 0 80 42 40
        e 2 90 36 64
        e 0 90 3e 64
        e 382 80 36 40
        e 0 80 3e 40
        e 386 90 42 64
        e 94 80 42 40
        e 2 90 44 64
        e 94 80 44 40
        e 2 90 3d 64
        e 0 90 42 64
        e 0 90 45 64
        e 190 80 3d 40
        e 0 80 42 40
        e 0 80 45 40
        e 2 90 3d 64
        e 0 90 42 64
        e 0 90 45 64
        e 190 80 3d 40
        e 0 80 42 40
        e 0 80 45 40
        e 2 90 3e 64
        e 0 90 42 64
        e 0 90 45 64
        e 94 80 3e 40
        e 0 80 42 40
        e 0 80 45 40
        e 2 90 3d 64
        e 0 90 42 64
        e 0 90 45 64
        e 94 80 3d 40
        e 0 80 42 40
        e 0 80 45 40
        e 2 90 3b 64
        e 0 90 42 64
        e 0 90 44 64
        e 94 80 3b 40
        e 0 80 42 40
        e 0 80 44 40
        e 2 90 3d 64
        e 0 90 42 64
        e 0 90 45 64
        e 94 80 3d 40
        e 0 80 42 40
        e 0 80 45 40
        e 2 90 3e 64
        e 0 90 42 64
        e 0 90 47 64
        e 94 80 3e 40
        e 0 80 42 40
        e 0 80 47 40
        e 2 90 3d 64
        e 0 90 42 64
        e 0 90 45 64
        e 94 80 3d 40
        e 0 80 42 40
        e 0 80 45 40
        e 2 90 3b 64
        e 0 90 42 64
        e 0 90 44 64
        e 94 80 42 40
        e 2 90 41 64
        e 94 80 3b 40
        e 0 80 44 40
        e 0 80 41 40
        e 2 90 39 64
        e 0 90 3d 64
        e 0 90 42 64
        e 190 80 39 40
        e 0 80 3d 40
        e 0 80 42 40
        e 2 90 45 64
        e 94 80 45 40
        e 2 90 47 64
        e 94 80 47 40
        e 2 90 40 64
        e 0 90 45 64
        e 0 90 49 64
        e 190 80 40 40
        e 0 80 45 40
        e 0 80 49 40
        e 2 90 40 64
        e 0 90 45 64
        e 0 90 49 64
        e 190 80 40 40
        e 0 80 45 40
        e 0 80 49 40
        e 2 90 42 64
        e 0 90 45 64
        e 0 90 49 64
        e 94 80 42 40
        e 0 80 45 40
        e 0 80 49 40
        e 2 90 40 64
        e 0 90 45 64
        e 0 90 49 64
        e 94 80 40 40
        e 0 80 45 40
        e 0 80 49 40
        e 2 90 3e 64
        e 0 90 45 64
        e 0 90 47 64
        e 94 80 3e 40
        e 0 80 45 40
        e 0 80 47 40
        e 2 90 40 64
        e 0 90 45 64
        e 0 90 49 64
        e 94 80 40 40
        e 0 80 45 40
        e 0 80 49 40
        e 2 90 42 64
        e 0 90 45 64
        e 0 90 4a 64
        e 94 80 42 40
        e 0 80 45 40
        e 0 80 4a 40
        e 2 90 40 64
        e 0 90 45 64
        e 0 90 49 64
        e 94 80 40 40
        e 0 80 45 40
        e 0 80 49 40
        e 2 90 3e 64
        e 0 90 45 64
        e 0 90 47 64
        e 94 80 45 40
        e 2 90 44 64
        e 94 80 3e 40
        e 0 80 47 40
        e 0 80 44 40
        e 2 90 3d 64
        e 0 90 40 64
        e 0 90 45 64
        e 190 80 3d 40
        e 0 80 40 40
        e 0 80 45 40
        e 2 90 40 64
        e 0 90 45 64
        e 0 90 49 64
        e 94 80 40 40
        e 0 80 45 40
        e 0 80 49 40
        e 2 90 40 64
        e 0 90 45 64
        e 0 90 49 64
        e 94 80 40 40
        e 0 80 45 40
        e 0 80 49 40
        e 2 90 40 64
        e 0 90 45 64
        e 0 90 49 64
        e 190 80 40 40
        e 0 80 45 40
        e 0 80 49 40
        e 2 90 3e 64
        e 0 90 42 64
        e 0 90 47 64
        e 190 80 3e 40
        e 0 80 42 40
        e 0 80 47 40
        e 2 90 3e 64
        e 0 90 42 64
        e 0 90 47 64
        e 94 80 3e 40
        e 0 80 42 40
        e 0 80 47 40
        e 2 90 3e 64
        e 0 90 42 64
        e 0 90 47 64
        e 94 80 3e 40
        e 0 80 42 40
        e 0 80 47 40
        e 2 90 3e 64
        e 0 90 44 64
        e 0 90 47 64
        e 94 80 3e 40
        e 0 80 44 40
        e 0 80 47 40
        e 2 90 40 64
        e 0 90 44 64
        e 0 90 49 64
        e 94 80 40 40
        e 0 80 44 40
        e 0 80 49 40
        e 2 90 3e 64
        e 0 90 42 64
        e 0 90 47 64
        e 94 80 42 40
        e 2 90 44 64
        e 94 80 3e 40
        e 0 80 47 40
        e 0 80 44 40
        e 2 90 3d 64
        e 0 90 42 64
        e 0 90 45 64
        e 190 80 3d 40
        e 0 80 42 40
        e 0 80 45 40
        e 2 90 3e 64
        e 0 90 42 64
        e 0 90 45 64
        e 94 80 3e 40
        e 0 80 42 40
        e 0 80 45 40
        e 2 90 3d 64
        e 0 90 42 64
        e 0 90 45 64
        e 94 80 3d 40
        e 0 80 42 40
        e 0 80 45 40
        e 2 90 3b 64
        e 0 90 42 64
        e 0 90 44 64
        e 94 80 3b 40
        e 0 80 42 40
        e 0 80 44 40
        e 2 90 3d 64
        e 0 90 42 64
        e 0 90 45 64
        e 94 80 3d 40
        e 0 80 42 40
        e 0 80 45 40
        e 2 90 3e 64
        e 0 90 42 64
        e 0 90 47 64
        e 94 80 3e 40
        e 0 80 42 40
        e 0 80 47 40
        e 2 90 3d 64
        e 0 90 42 64
        e 0 90 45 64
        e 94 80 3d 40
        e 0 80 42 40
        e 0 80 45 40
        e 2 90 3b 64
        e 0 90 42 64
        e 0 90 44 64
        e 94 80 42 40
        e 2 90 41 64
        e 94 80 3b 40
        e 0 80 44 40
        e 0 80 41 40
        e 2 90 39 64
        e 0 90 3d 64
        e 0 90 42 64
        e 190 80 39 40
        e 0 80 3d 40
        e 0 80 42 40
        e 2 90 40 64
        e 0 90 45 64
        e 0 90 49 64
        e 94 80 40 40
        e 0 80 45 40
        e 0 80 49 40
        e 2 90 40 64
        e 0 90 45 64
        e 0 90 49 64
        e 94 80 40 40
        e 0 80 45 40
        e 0 80 49 40
        e 2 90 40 64
        e 0 90 45 64
        e 0 90 49 64
        e 190 80 40 40
        e 0 80 45 40
        e 0 80 49 40
        e 2 90 3e 64
        e 0 90 42 64
        e 0 90 47 64
        e 190 80 3e 40
        e 0 80 42 40
        e 0 80 47 40
        e 2 90 3e 64
        e 0 90 42 64
        e 0 90 47 64
        e 94 80 3e 40
        e 0 80 42 40
        e 0 80 47 40
        e 2 90 3e 64
        e 0 90 42 64
        e 0 90 47 64
        e 94 80 3e 40
        e 0 80 42 40
        e 0 80 47 40
        e 2 90 3e 64
        e 0 90 44 64
        e 0 90 47 64
        e 94 80 3e 40
        e 0 80 44 40
        e 0 80 47 40
        e 2 90 40 64
        e 0 90 44 64
        e 0 90 49 64
        e 94 80 40 40
        e 0 80 44 40
        e 0 80 49 40
        e 2 90 3e 64
        e 0 90 42 64
        e 0 90 47 64
        e 94 80 42 40
        e 2 90 44 64
        e 94 80 3e 40
        e 0 80 47 40
        e 0 80 44 40
        e 2 90 3d 64
        e 0 90 42 64
        e 0 90 45 64
        e 190 80 3d 40
        e 0 80 42 40
        e 0 80 45 40
        e 2 90 3e 64
        e 0 90 42 64
        e 0 90 45 64
        e 94 80 3e 40
        e 0 80 42 40
        e 0 80 45 40
        e 2 90 3d 64
        e 0 90 42 64
        e 0 90 45 64
        e 94 80 3d 40
        e 0 80 42 40
        e 0 80 45 40
        e 2 90 3b 64
        e 0 90 42 64
        e 0 90 44 64
        e 94 80 3b 40
        e 0 80 42 40
        e 0 80 44 40
        e 2 90 3d 64
        e 0 90 42 64
        e 0 90 45 64
        e 94 80 3d 40
        e 0 80 42 40
        e 0 80 45 40
        e 2 90 3e 64
        e 0 90 42 64
        e 0 90 47 64
        e 94 80 3e 40
        e 0 80 42 40
        e 0 80 47 40
        e 2 90 3d 64
        e 0 90 42 64
        e 0 90 45 64
        e 94 80 3d 40
        e 0 80 42 40
        e 0 80 45 40
        e 2 90 3b 64
        e 0 90 42 64
        e 0 90 44 64
        e 94 80 42 40
        e 2 90 41 64
        e 94 80 3b 40
        e 0 80 44 40
        e 0 80 41 40
        e 2 90 39 64
        e 0 90 3d 64
        e 0 90 42 64
        e 575 80 39 40
        e 0 80 3d 40
        e 0 80 42 40
        E 1 b0 7b 00
        GUID {8A0F1FAE-685C-FA46-BD12-7EB95EE923A1}
        IGNTEMPO 0 120 4 4
        SRCCOLOR 620
        VELLANE -1 86 6
        CFGEDITVIEW -3614.370651 10.624256 50 16 0 0 0 0 0 0.5
        KEYSNAP 0
        TRACKSEL 226
        EVTFILTER 0 -1 -1 -1 -1 0 0 0 0 -1 -1 -1 -1 0 -1 0 -1 -1
        CFGEDIT 1 1 0 0 0 0 1 0 1 1 1 0.25 506 494 1014 762 1 0 1 3 0 0 0 0 0 -1 0 0 1 64
      >
      TAKE
      NAME "rh                   - National_Anthems_-_Czech_Republic.mid"
      TAKEVOLPAN 0 1 -1
      SOFFS 0 0
      PLAYRATE 1 1 0 -1 0 0.0025
      CHANMODE 0
      GUID {C5A89400-5022-8D4B-87BB-636517BCA53B}
      <SOURCE MIDI
        HASDATA 1 192 QN
        POOLEDEVTS {BCBA8761-343B-9843-ADB4-5E27542881A3}
        <X 0 0 0 0 3 "rh                  "
          /wNyaCAgICAgICAgICAgICAgICAgIA==
        >
        E 192 9c 45 64
        E 0 9c 3e 64
        E 0 9c 42 64
        E 382 8c 45 40
        E 0 8c 3e 40
        E 0 8c 42 40
        E 2 9c 47 64
        E 0 9c 43 64
        E 0 9c 3e 64
        E 94 8c 47 40
        E 0 8c 43 40
        E 0 8c 3e 40
        E 2 9c 45 64
        E 0 9c 42 64
        E 0 9c 3e 64
        E 94 8c 45 40
        E 0 8c 42 40
        E 0 8c 3e 40
        E 2 9c 40 64
        E 0 9c 3b 64
        E 190 8c 40 40
        E 0 8c 3b 40
        E 2 9c 3b 64
        E 0 9c 43 64
        E 0 9c 3d 64
        E 382 8c 3b 40
        E 0 8c 43 40
        E 0 8c 3d 40
        E 2 9c 42 64
        E 0 9c 39 64
        E 0 9c 3d 64
        E 94 8c 42 40
        E 0 8c 39 40
        E 0 8c 3d 40
        E 2 9c 40 64
        E 0 9c 37 64
        E 94 8c 40 40
        E 0 8c 37 40
        E 2 9c 3e 64
        E 0 9c 36 64
        E 574 8c 3e 40
        E 0 8c 36 40
        E 2 9c 3e 64
        E 0 9c 36 64
        E 0 9c 3c 64
        E 142 8c 3e 40
        E 48 8c 36 40
        E 0 8c 3c 40
        E 2 9c 3b 64
        E 0 9c 3e 64
        E 94 8c 3b 40
        E 0 8c 3e 40
        E 2 9c 43 64
        E 94 8c 43 40
        E 2 9c 3b 64
        E 0 9c 3e 64
        E 0 9c 43 64
        E 382 8c 3b 40
        E 0 8c 3e 40
        E 0 8c 43 40
        E 2 9c 45 64
        E 0 9c 3e 64
        E 0 9c 39 64
        E 94 8c 45 40
        E 0 8c 3e 40
        E 0 8c 39 40
        E 2 9c 47 64
        E 0 9c 3b 64
        E 94 8c 47 40
        E 0 8c 3b 40
        E 2 9c 45 64
        E 0 9c 3d 64
        E 0 9c 39 64
        E 94 8c 45 40
        E 0 8c 3d 40
        E 0 8c 39 40
        E 2 9c 42 64
        E 94 8c 42 40
        E 2 9c 36 64
        E 0 9c 3e 64
        E 0 9c 3b 64
        E 190 8c 3b 40
        E 192 8c 36 40
        E 0 8c 3e 40
        E 2 9c 39 64
        E 0 9c 3e 64
        E 0 9c 36 64
        E 94 8c 39 40
        E 0 8c 3e 40
        E 2 9c 3e 64
        E 22 8c 36 40
        E 74 8c 3e 40
        E 0 9c 3e 64
        E 0 9c 37 64
        E 94 8c 3e 40
        E 0 8c 37 40
        E 2 9c 43 64
        E 94 8c 43 40
        E 2 9c 43 64
        E 0 9c 3e 64
        E 0 9c 3b 64
        E 94 8c 43 40
        E 0 8c 3e 40
        E 0 8c 3b 40
        E 2 9c 47 64
        E 94 8c 47 40
        E 2 9c 47 64
        E 0 9c 3e 64
        E 0 9c 4a 64
        E 190 8c 47 40
        E 0 8c 3e 40
        E 0 8c 4a 40
        E 2 9c 45 64
        E 0 9c 49 64
        E 0 9c 3d 64
        E 94 8c 45 40
        E 0 8c 49 40
        E 0 8c 3d 40
        E 2 9c 44 64
        E 0 9c 47 64
        E 0 9c 3b 64
        E 94 8c 44 40
        E 0 8c 47 40
        E 0 8c 3b 40
        E 2 9c 47 64
        E 0 9c 3b 64
        E 0 9c 44 64
        E 190 8c 47 40
        E 0 8c 3b 40
        E 0 8c 44 40
        E 2 9c 42 64
        E 0 9c 39 64
        E 0 9c 45 64
        E 94 8c 39 40
        E 2 9c 3b 64
        E 94 8c 3b 40
        E 2 9c 3d 64
        E 190 8c 42 40
        E 0 8c 45 40
        E 2 9c 45 64
        E 142 8c 45 40
        E 2 9c 45 64
        E 46 8c 3d 40
        E 0 8c 45 40
        E 2 9c 43 64
        E 0 9c 3d 64
        E 0 9c 45 64
        E 462 8c 43 40
        E 0 8c 3d 40
        E 0 8c 45 40
        E 18 9c 47 64
        E 0 9c 43 64
        E 0 9c 3b 64
        E 94 8c 47 40
        E 0 8c 43 40
        E 0 8c 3b 40
        E 2 9c 45 64
        E 0 9c 42 64
        E 0 9c 3c 64
        E 94 8c 45 40
        E 0 8c 42 40
        E 0 8c 3c 40
        E 2 9c 43 64
        E 0 9c 40 64
        E 0 9c 3d 64
        E 94 8c 43 40
        E 0 8c 40 40
        E 0 8c 3d 40
        E 2 9c 42 64
        E 0 9c 3e 64
        E 574 8c 42 40
        E 0 8c 3e 40
        E 2 9c 45 64
        E 0 9c 3e 64
        E 0 9c 42 64
        E 142 8c 45 40
        E 0 8c 3e 40
        E 0 8c 42 40
        E 2 9c 45 64
        E 46 8c 45 40
        E 2 9c 49 64
        E 0 9c 40 64
        E 0 9c 43 64
        E 414 8c 49 40
        E 0 8c 40 40
        E 0 8c 43 40
        E 66 9c 43 64
        E 0 9c 47 64
        E 0 9c 3b 64
        E 94 8c 43 40
        E 0 8c 47 40
        E 0 8c 3b 40
        E 2 9c 45 64
        E 0 9c 3c 64
        E 0 9c 42 64
        E 94 8c 45 40
        E 0 8c 3c 40
        E 0 8c 42 40
        E 2 9c 3d 64
        E 0 9c 40 64
        E 0 9c 43 64
        E 94 8c 3d 40
        E 0 8c 40 40
        E 0 8c 43 40
        E 2 9c 42 64
        E 0 9c 3e 64
        E 574 8c 42 40
        E 0 8c 3e 40
        E 2 9c 42 64
        E 0 9c 3a 64
        E 0 9c 40 64
        E 142 8c 42 40
        E 2 9c 42 64
        E 46 8c 3a 40
        E 0 8c 40 40
        E 0 8c 42 40
        E 2 9c 42 64
        E 0 9c 3e 64
        E 0 9c 3b 64
        E 190 8c 3e 40
        E 0 8c 3b 40
        E 2 9c 3e 64
        E 0 9c 3b 64
        E 190 8c 3e 40
        E 0 8c 3b 40
        E 2 9c 40 64
        E 0 9c 3a 64
        E 30 8c 42 40
        E 66 9c 42 64
        E 94 8c 40 40
        E 0 8c 3a 40
        E 0 8c 42 40
        E 2 9c 3e 64
        E 0 9c 44 64
        E 0 9c 42 64
        E 94 8c 3e 40
        E 0 8c 44 40
        E 0 8c 42 40
        E 2 9c 40 64
        E 0 9c 3d 64
        E 0 9c 46 64
        E 94 8c 40 40
        E 0 8c 3d 40
        E 0 8c 46 40
        E 2 9c 40 64
        E 0 9c 46 64
        E 0 9c 3d 64
        E 94 8c 40 40
        E 0 8c 46 40
        E 0 8c 3d 40
        E 2 9c 3d 64
        E 0 9c 3e 64
        E 0 9c 47 64
        E 0 9c 3b 64
        E 94 8c 3d 40
        E 0 8c 3e 40
        E 0 8c 47 40
        E 0 8c 3b 40
        E 2 9c 3b 64
        E 0 9c 3e 64
        E 0 9c 47 64
        E 382 8c 3b 40
        E 0 8c 3e 40
        E 0 8c 47 40
        E 2 9c 43 64
        E 0 9c 47 64
        E 0 9c 3b 64
        E 142 8c 47 40
        E 2 9c 47 64
        E 46 8c 43 40
        E 0 8c 3b 40
        E 0 8c 47 40
        E 2 9c 43 64
        E 0 9c 40 64
        E 0 9c 47 64
        E 94 8c 47 40
        E 2 9c 45 64
        E 94 8c 43 40
        E 0 8c 40 40
        E 0 8c 45 40
        E 2 9c 45 64
        E 0 9c 43 64
        E 0 9c 3d 64
        E 382 8c 45 40
        E 0 8c 43 40
        E 0 8c 3d 40
        E 2 9c 3d 64
        E 0 9c 43 64
        E 94 8c 43 40
        E 96 8c 3d 40
        E 2 9c 3e 64
        E 0 9c 42 64
        E 190 8c 3e 40
        E 0 8c 42 40
        E 2 9c 4a 64
        E 0 9c 47 64
        E 0 9c 42 64
        E 382 8c 4a 40
        E 0 8c 47 40
        E 0 8c 42 40
        E 2 9c 49 64
        E 0 9c 45 64
        E 0 9c 3e 64
        E 94 8c 49 40
        E 0 8c 45 40
        E 2 9c 47 64
        E 0 9c 43 64
        E 94 8c 3e 40
        E 0 8c 47 40
        E 0 8c 43 40
        E 2 9c 47 64
        E 0 9c 42 64
        E 0 9c 3e 64
        E 190 8c 47 40
        E 2 9c 45 64
        E 190 8c 42 40
        E 0 8c 3e 40
        E 192 8c 45 40
        E 2 9c 37 64
        E 0 9c 3d 64
        E 0 9c 40 64
        E 94 8c 37 40
        E 2 9c 42 64
        E 94 8c 3d 40
        E 0 8c 40 40
        E 0 8c 42 40
        E 2 9c 36 64
        E 0 9c 3e 64
        E 382 8c 36 40
        E 0 8c 3e 40
        E 386 9c 42 64
        E 94 8c 42 40
        E 2 9c 44 64
        E 94 8c 44 40
        E 2 9c 45 64
        E 0 9c 3d 64
        E 0 9c 42 64
        E 190 8c 45 40
        E 0 8c 3d 40
        E 0 8c 42 40
        E 2 9c 45 64
        E 0 9c 3d 64
        E 0 9c 42 64
        E 190 8c 45 40
        E 0 8c 3d 40
        E 0 8c 42 40
        E 2 9c 45 64
        E 0 9c 3e 64
        E 0 9c 42 64
        E 94 8c 45 40
        E 0 8c 3e 40
        E 0 8c 42 40
        E 2 9c 45 64
        E 0 9c 42 64
        E 0 9c 3d 64
        E 94 8c 45 40
        E 0 8c 42 40
        E 0 8c 3d 40
        E 2 9c 44 64
        E 0 9c 3b 64
        E 0 9c 42 64
        E 94 8c 44 40
        E 0 8c 3b 40
        E 0 8c 42 40
        E 2 9c 3d 64
        E 0 9c 45 64
        E 0 9c 42 64
        E 94 8c 3d 40
        E 0 8c 45 40
        E 0 8c 42 40
        E 2 9c 47 64
        E 0 9c 3e 64
        E 0 9c 42 64
        E 94 8c 47 40
        E 0 8c 3e 40
        E 0 8c 42 40
        E 2 9c 45 64
        E 0 9c 3d 64
        E 0 9c 42 64
        E 94 8c 45 40
        E 0 8c 3d 40
        E 0 8c 42 40
        E 2 9c 44 64
        E 0 9c 42 64
        E 0 9c 3b 64
        E 94 8c 42 40
        E 2 9c 41 64
        E 94 8c 44 40
        E 0 8c 3b 40
        E 0 8c 41 40
        E 2 9c 42 64
        E 0 9c 3d 64
        E 0 9c 39 64
        E 190 8c 42 40
        E 0 8c 3d 40
        E 0 8c 39 40
        E 2 9c 45 64
        E 94 8c 45 40
        E 2 9c 47 64
        E 94 8c 47 40
        E 2 9c 49 64
        E 0 9c 40 64
        E 0 9c 45 64
        E 190 8c 49 40
        E 0 8c 40 40
        E 0 8c 45 40
        E 2 9c 49 64
        E 0 9c 40 64
        E 0 9c 45 64
        E 190 8c 49 40
        E 0 8c 40 40
        E 0 8c 45 40
        E 2 9c 45 64
        E 0 9c 42 64
        E 0 9c 49 64
        E 94 8c 45 40
        E 0 8c 42 40
        E 0 8c 49 40
        E 2 9c 49 64
        E 0 9c 40 64
        E 0 9c 45 64
        E 94 8c 49 40
        E 0 8c 40 40
        E 0 8c 45 40
        E 2 9c 47 64
        E 0 9c 45 64
        E 0 9c 3e 64
        E 94 8c 47 40
        E 0 8c 45 40
        E 0 8c 3e 40
        E 2 9c 45 64
        E 0 9c 49 64
        E 0 9c 40 64
        E 94 8c 45 40
        E 0 8c 49 40
        E 0 8c 40 40
        E 2 9c 42 64
        E 0 9c 4a 64
        E 0 9c 45 64
        E 94 8c 42 40
        E 0 8c 4a 40
        E 0 8c 45 40
        E 2 9c 49 64
        E 0 9c 45 64
        E 0 9c 40 64
        E 94 8c 49 40
        E 0 8c 45 40
        E 0 8c 40 40
        E 2 9c 45 64
        E 0 9c 47 64
        E 0 9c 3e 64
        E 94 8c 45 40
        E 2 9c 44 64
        E 94 8c 47 40
        E 0 8c 3e 40
        E 0 8c 44 40
        E 2 9c 3d 64
        E 0 9c 40 64
        E 0 9c 45 64
        E 190 8c 3d 40
        E 0 8c 40 40
        E 0 8c 45 40
        E 2 9c 45 64
        E 0 9c 49 64
        E 0 9c 40 64
        E 94 8c 45 40
        E 0 8c 49 40
        E 0 8c 40 40
        E 2 9c 45 64
        E 0 9c 40 64
        E 0 9c 49 64
        E 94 8c 45 40
        E 0 8c 40 40
        E 0 8c 49 40
        E 2 9c 40 64
        E 0 9c 49 64
        E 0 9c 45 64
        E 190 8c 40 40
        E 0 8c 49 40
        E 0 8c 45 40
        E 2 9c 47 64
        E 0 9c 42 64
        E 0 9c 3e 64
        E 190 8c 47 40
        E 0 8c 42 40
        E 0 8c 3e 40
        E 2 9c 47 64
        E 0 9c 3e 64
        E 0 9c 42 64
        E 94 8c 47 40
        E 0 8c 3e 40
        E 0 8c 42 40
        E 2 9c 47 64
        E 0 9c 3e 64
        E 0 9c 42 64
        E 94 8c 47 40
        E 0 8c 3e 40
        E 0 8c 42 40
        E 2 9c 47 64
        E 0 9c 3e 64
        E 0 9c 44 64
        E 94 8c 47 40
        E 0 8c 3e 40
        E 0 8c 44 40
        E 2 9c 49 64
        E 0 9c 40 64
        E 0 9c 44 64
        E 94 8c 49 40
        E 0 8c 40 40
        E 0 8c 44 40
        E 2 9c 42 64
        E 0 9c 47 64
        E 0 9c 3e 64
        E 94 8c 42 40
        E 2 9c 44 64
        E 94 8c 47 40
        E 0 8c 3e 40
        E 0 8c 44 40
        E 2 9c 45 64
        E 0 9c 3d 64
        E 0 9c 42 64
        E 190 8c 45 40
        E 0 8c 3d 40
        E 0 8c 42 40
        E 2 9c 45 64
        E 0 9c 3e 64
        E 0 9c 42 64
        E 94 8c 45 40
        E 0 8c 3e 40
        E 0 8c 42 40
        E 2 9c 45 64
        E 0 9c 3d 64
        E 0 9c 42 64
        E 94 8c 45 40
        E 0 8c 3d 40
        E 0 8c 42 40
        E 2 9c 44 64
        E 0 9c 42 64
        E 0 9c 3b 64
        E 94 8c 44 40
        E 0 8c 42 40
        E 0 8c 3b 40
        E 2 9c 45 64
        E 0 9c 3d 64
        E 0 9c 42 64
        E 94 8c 45 40
        E 0 8c 3d 40
        E 0 8c 42 40
        E 2 9c 47 64
        E 0 9c 3e 64
        E 0 9c 42 64
        E 94 8c 47 40
        E 0 8c 3e 40
        E 0 8c 42 40
        E 2 9c 3d 64
        E 0 9c 42 64
        E 0 9c 45 64
        E 94 8c 3d 40
        E 0 8c 42 40
        E 0 8c 45 40
        E 2 9c 44 64
        E 0 9c 42 64
        E 0 9c 3b 64
        E 94 8c 42 40
        E 2 9c 41 64
        E 94 8c 44 40
        E 0 8c 3b 40
        E 0 8c 41 40
        E 2 9c 42 64
        E 0 9c 39 64
        E 0 9c 3d 64
        E 190 8c 42 40
        E 0 8c 39 40
        E 0 8c 3d 40
        E 2 9c 45 64
        E 0 9c 49 64
        E 0 9c 40 64
        E 94 8c 45 40
        E 0 8c 49 40
        E 0 8c 40 40
        E 2 9c 45 64
        E 0 9c 40 64
        E 0 9c 49 64
        E 94 8c 45 40
        E 0 8c 40 40
        E 0 8c 49 40
        E 2 9c 40 64
        E 0 9c 49 64
        E 0 9c 45 64
        E 190 8c 40 40
        E 0 8c 49 40
        E 0 8c 45 40
        E 2 9c 47 64
        E 0 9c 42 64
        E 0 9c 3e 64
        E 190 8c 47 40
        E 0 8c 42 40
        E 0 8c 3e 40
        E 2 9c 47 64
        E 0 9c 3e 64
        E 0 9c 42 64
        E 94 8c 47 40
        E 0 8c 3e 40
        E 0 8c 42 40
        E 2 9c 47 64
        E 0 9c 3e 64
        E 0 9c 42 64
        E 94 8c 47 40
        E 0 8c 3e 40
        E 0 8c 42 40
        E 2 9c 47 64
        E 0 9c 3e 64
        E 0 9c 44 64
        E 94 8c 47 40
        E 0 8c 3e 40
        E 0 8c 44 40
        E 2 9c 49 64
        E 0 9c 40 64
        E 0 9c 44 64
        E 94 8c 49 40
        E 0 8c 40 40
        E 0 8c 44 40
        E 2 9c 42 64
        E 0 9c 47 64
        E 0 9c 3e 64
        E 94 8c 42 40
        E 2 9c 44 64
        E 94 8c 47 40
        E 0 8c 3e 40
        E 0 8c 44 40
        E 2 9c 45 64
        E 0 9c 3d 64
        E 0 9c 42 64
        E 190 8c 45 40
        E 0 8c 3d 40
        E 0 8c 42 40
        E 2 9c 45 64
        E 0 9c 3e 64
        E 0 9c 42 64
        E 94 8c 45 40
        E 0 8c 3e 40
        E 0 8c 42 40
        E 2 9c 45 64
        E 0 9c 3d 64
        E 0 9c 42 64
        E 94 8c 45 40
        E 0 8c 3d 40
        E 0 8c 42 40
        E 2 9c 44 64
        E 0 9c 42 64
        E 0 9c 3b 64
        E 94 8c 44 40
        E 0 8c 42 40
        E 0 8c 3b 40
        E 2 9c 45 64
        E 0 9c 3d 64
        E 0 9c 42 64
        E 94 8c 45 40
        E 0 8c 3d 40
        E 0 8c 42 40
        E 2 9c 47 64
        E 0 9c 3e 64
        E 0 9c 42 64
        E 94 8c 47 40
        E 0 8c 3e 40
        E 0 8c 42 40
        E 2 9c 3d 64
        E 0 9c 42 64
        E 0 9c 45 64
        E 94 8c 3d 40
        E 0 8c 42 40
        E 0 8c 45 40
        E 2 9c 44 64
        E 0 9c 42 64
        E 0 9c 3b 64
        E 94 8c 42 40
        E 2 9c 41 64
        E 94 8c 44 40
        E 0 8c 3b 40
        E 0 8c 41 40
        E 2 9c 42 64
        E 0 9c 39 64
        E 0 9c 3d 64
        E 575 8c 3d 40
        E 0 8c 39 40
        E 0 8c 42 40
        E 1 b0 7b 00
        GUID {80595F54-8F9D-2B4E-B42B-90E13D8CF450}
        IGNTEMPO 0 120 4 4
        SRCCOLOR 674
        VELLANE -1 86 6
      >
    >
    <ITEM
      POSITION 0
      SNAPOFFS 0
      LENGTH 55
      LOOP 1
      ALLTAKES 0
      FADEIN 1 0 0 1 0 0
      FADEOUT 1 0 0 1 0 0
      MUTE 0
      SEL 0
      YPOS 0.75 0.25
      IGUID {6B36A02D-D58C-3C49-B67F-96BA23142F32}
      IID 9
      NAME "lh                   - National_Anthems_-_Czech_Republic.mid"
      VOLPAN 1 0 1 -1
      SOFFS 0 0
      PLAYRATE 1 1 0 -1 0 0.0025
      CHANMODE 0
      TAKECOLOR 26173599 B
      GUID {A1B882EC-B3EC-B546-AAA5-9BDA77B07E23}
      <SOURCE MIDI
        HASDATA 1 192 QN
        POOLEDEVTS {1ADE4AA9-FE56-0947-B346-2DFAD4583FCF}
        <X 0 0 0 0 3 "lh                  "
          /wNsaCAgICAgICAgICAgICAgICAgIA==
        >
        e 0 90 26 64
        e 0 90 32 64
        e 190 80 26 40
        e 0 80 32 40
        e 2 90 39 64
        e 0 90 36 64
        e 0 90 32 64
        e 382 80 39 40
        e 0 80 36 40
        e 0 80 32 40
        e 2 90 3b 64
        e 0 90 32 64
        e 0 90 37 64
        e 94 80 3b 40
        e 0 80 32 40
        e 0 80 37 40
        e 2 90 39 64
        e 0 90 36 64
        e 0 90 32 64
        e 94 80 39 40
        e 0 80 36 40
        e 0 80 32 40
        e 2 90 37 64
        e 0 90 34 64
        e 190 80 37 40
        e 0 80 34 40
        e 2 90 2d 64
        e 382 80 2d 40
        e 2 90 2d 64
        e 190 80 2d 40
        e 2 90 32 64
        e 190 80 32 40
        e 2 90 30 64
        e 190 80 30 40
        e 2 90 2f 64
        e 190 80 2f 40
        e 2 90 2d 64
        e 190 80 2d 40
        e 2 90 2b 64
        e 190 80 2b 40
        e 2 90 2a 64
        e 190 80 2a 40
        e 2 90 28 64
        e 190 80 28 40
        e 2 90 2a 64
        e 94 80 2a 40
        e 2 90 2b 64
        e 94 80 2b 40
        e 2 90 2a 64
        e 190 80 2a 40
        e 2 90 2f 64
        e 190 80 2f 40
        e 2 90 32 64
        e 190 80 32 40
        e 2 90 30 64
        e 190 80 30 40
        e 2 90 2f 64
        e 190 80 2f 40
        e 2 90 2b 64
        e 190 80 2b 40
        e 2 90 28 64
        e 190 80 28 40
        e 2 90 29 64
        e 190 80 29 40
        e 2 90 2a 64
        e 94 80 2a 40
        e 2 90 31 64
        e 94 80 31 40
        e 2 90 36 64
        e 94 80 36 40
        e 2 90 38 64
        e 94 80 38 40
        e 2 90 39 64
        e 190 80 39 40
        e 2 90 36 64
        e 190 80 36 40
        e 2 90 34 64
        e 94 80 34 40
        e 2 90 2d 64
        e 94 80 2d 40
        e 2 90 31 64
        e 94 80 31 40
        e 2 90 34 64
        e 94 80 34 40
        e 2 90 39 64
        e 190 80 39 40
        e 2 90 2d 64
        e 190 80 2d 40
        e 2 90 26 64
        e 94 80 26 40
        e 2 90 2d 64
        e 94 80 2d 40
        e 2 90 32 64
        e 94 80 32 40
        e 2 90 34 64
        e 94 80 34 40
        e 2 90 36 64
        e 190 80 36 40
        e 2 90 32 64
        e 190 80 32 40
        e 2 90 34 64
        e 94 80 34 40
        e 2 90 2d 64
        e 94 80 2d 40
        e 2 90 31 64
        e 94 80 31 40
        e 2 90 34 64
        e 94 80 34 40
        e 2 90 39 64
        e 190 80 39 40
        e 2 90 2d 64
        e 190 80 2d 40
        e 2 90 26 64
        e 94 80 26 40
        e 2 90 2d 64
        e 94 80 2d 40
        e 2 90 32 64
        e 94 80 32 40
        e 2 90 34 64
        e 94 80 34 40
        e 2 90 36 64
        e 94 80 36 40
        e 2 90 34 64
        e 94 80 34 40
        e 2 90 32 64
        e 94 80 32 40
        e 2 90 31 64
        e 94 80 31 40
        e 2 90 2f 64
        e 94 80 2f 40
        e 2 90 2a 64
        e 94 80 2a 40
        e 2 90 2f 64
        e 94 80 2f 40
        e 2 90 32 64
        e 94 80 32 40
        e 2 90 31 64
        e 190 80 31 40
        e 2 90 2a 64
        e 190 80 2a 40
        e 2 90 2f 64
        e 94 80 2f 40
        e 2 90 2a 64
        e 94 80 2a 40
        e 2 90 2f 64
        e 94 80 2f 40
        e 2 90 32 64
        e 94 80 32 40
        e 2 90 36 64
        e 190 80 36 40
        e 2 90 34 64
        e 94 80 34 40
        e 2 90 32 64
        e 94 80 32 40
        e 2 90 31 64
        e 190 80 31 40
        e 2 90 34 64
        e 190 80 34 40
        e 2 90 2d 64
        e 190 80 2d 40
        e 2 90 34 64
        e 190 80 34 40
        e 2 90 2f 64
        e 94 80 2f 40
        e 2 90 32 64
        e 94 80 32 40
        e 2 90 36 64
        e 94 80 36 40
        e 2 90 3b 64
        e 94 80 3b 40
        e 2 90 3e 64
        e 190 80 3e 40
        e 2 90 2b 64
        e 190 80 2b 40
        e 2 90 2f 64
        e 94 80 2f 40
        e 2 90 32 64
        e 94 80 32 40
        e 2 90 36 64
        e 94 80 36 40
        e 2 90 32 64
        e 94 80 32 40
        e 2 90 39 64
        e 190 80 39 40
        e 2 90 2d 64
        e 190 80 2d 40
        e 2 90 32 64
        e 94 80 32 40
        e 2 90 2d 64
        e 94 80 2d 40
        e 2 90 2a 64
        e 94 80 2a 40
        e 2 90 2d 64
        e 94 80 2d 40
        e 2 90 26 64
        e 382 80 26 40
        e 194 90 2a 64
        e 94 80 2a 40
        e 2 90 2c 64
        e 94 80 2c 40
        e 2 90 2d 64
        e 190 80 2d 40
        e 2 90 2f 64
        e 94 80 2f 40
        e 2 90 31 64
        e 94 80 31 40
        e 2 90 32 64
        e 94 80 32 40
        e 2 90 31 64
        e 94 80 31 40
        e 2 90 2f 64
        e 94 80 2f 40
        e 2 90 31 64
        e 94 80 31 40
        e 2 90 32 64
        e 94 80 32 40
        e 2 90 31 64
        e 94 80 31 40
        e 2 90 36 64
        e 190 80 36 40
        e 194 90 2d 64
        e 94 80 2d 40
        e 2 90 2f 64
        e 94 80 2f 40
        e 2 90 31 64
        e 190 80 31 40
        e 2 90 32 64
        e 94 80 32 40
        e 2 90 34 64
        e 94 80 34 40
        e 2 90 36 64
        e 94 80 36 40
        e 2 90 34 64
        e 94 80 34 40
        e 2 90 32 64
        e 94 80 32 40
        e 2 90 34 64
        e 94 80 34 40
        e 2 90 36 64
        e 94 80 36 40
        e 2 90 34 64
        e 94 80 34 40
        e 2 90 39 64
        e 190 80 39 40
        e 2 90 39 64
        e 94 80 39 40
        e 2 90 36 64
        e 94 80 36 40
        e 2 90 38 64
        e 94 80 38 40
        e 2 90 39 64
        e 94 80 39 40
        e 2 90 3b 64
        e 94 80 3b 40
        e 2 90 2f 64
        e 94 80 2f 40
        e 2 90 31 64
        e 94 80 31 40
        e 2 90 32 64
        e 94 80 32 40
        e 2 90 34 64
        e 94 80 34 40
        e 2 90 31 64
        e 94 80 31 40
        e 2 90 32 64
        e 94 80 32 40
        e 2 90 34 64
        e 94 80 34 40
        e 2 90 36 64
        e 94 80 36 40
        e 2 90 2d 64
        e 94 80 2d 40
        e 2 90 2f 64
        e 94 80 2f 40
        e 2 90 31 64
        e 94 80 31 40
        e 2 90 32 64
        e 94 80 32 40
        e 2 90 31 64
        e 94 80 31 40
        e 2 90 2f 64
        e 94 80 2f 40
        e 2 90 31 64
        e 94 80 31 40
        e 2 90 32 64
        e 94 80 32 40
        e 2 90 31 64
        e 94 80 31 40
        e 2 90 2a 64
        e 190 80 2a 40
        e 2 90 39 64
        e 94 80 39 40
        e 2 90 36 64
        e 94 80 36 40
        e 2 90 38 64
        e 94 80 38 40
        e 2 90 39 64
        e 94 80 39 40
        e 2 90 3b 64
        e 94 80 3b 40
        e 2 90 2f 64
        e 94 80 2f 40
        e 2 90 31 64
        e 94 80 31 40
        e 2 90 32 64
        e 94 80 32 40
        e 2 90 34 64
        e 94 80 34 40
        e 2 90 31 64
        e 94 80 31 40
        e 2 90 32 64
        e 94 80 32 40
        e 2 90 34 64
        e 94 80 34 40
        e 2 90 36 64
        e 94 80 36 40
        e 2 90 2d 64
        e 94 80 2d 40
        e 2 90 2f 64
        e 94 80 2f 40
        e 2 90 31 64
        e 94 80 31 40
        e 2 90 32 64
        e 94 80 32 40
        e 2 90 31 64
        e 94 80 31 40
        e 2 90 2f 64
        e 94 80 2f 40
        e 2 90 31 64
        e 94 80 31 40
        e 2 90 32 64
        e 94 80 32 40
        e 2 90 31 64
        e 94 80 31 40
        e 2 90 2a 64
        e 575 80 2a 40
        E 1 b0 7b 00
        GUID {FEC44394-8345-7B44-91B0-C8FFD41B867E}
        IGNTEMPO 0 120 4 4
        SRCCOLOR 621
        VELLANE -1 86 6
        CFGEDITVIEW -3614.370651 10.624256 50 16 0 0 0 0 0 0.5
        KEYSNAP 0
        TRACKSEL 226
        EVTFILTER 0 -1 -1 -1 -1 0 0 0 0 -1 -1 -1 -1 0 -1 0 -1 -1
        CFGEDIT 1 1 0 0 0 0 1 0 1 1 1 0.25 506 494 1014 762 1 0 1 3 0 0 0 0 0 -1 0 0 1 64
      >
      TAKE
      NAME "lh                   - National_Anthems_-_Czech_Republic.mid"
      TAKEVOLPAN 0 1 -1
      SOFFS 0 0
      PLAYRATE 1 1 0 -1 0 0.0025
      CHANMODE 0
      GUID {F81791E8-C100-924C-B659-9929D1D09D0A}
      <SOURCE MIDI
        HASDATA 1 192 QN
        POOLEDEVTS {D4D89734-DE84-5E46-BABF-C3F146F8066A}
        <X 0 0 0 0 3 "lh                  "
          /wNsaCAgICAgICAgICAgICAgICAgIA==
        >
        E 0 9d 26 64
        E 0 9d 32 64
        E 190 8d 26 40
        E 0 8d 32 40
        E 2 9d 39 64
        E 0 9d 36 64
        E 0 9d 32 64
        E 382 8d 39 40
        E 0 8d 36 40
        E 0 8d 32 40
        E 2 9d 3b 64
        E 0 9d 32 64
        E 0 9d 37 64
        E 94 8d 3b 40
        E 0 8d 32 40
        E 0 8d 37 40
        E 2 9d 39 64
        E 0 9d 36 64
        E 0 9d 32 64
        E 94 8d 39 40
        E 0 8d 36 40
        E 0 8d 32 40
        E 2 9d 37 64
        E 0 9d 34 64
        E 190 8d 37 40
        E 0 8d 34 40
        E 2 9d 2d 64
        E 382 8d 2d 40
        E 2 9d 2d 64
        E 190 8d 2d 40
        E 2 9d 32 64
        E 190 8d 32 40
        E 2 9d 30 64
        E 190 8d 30 40
        E 2 9d 2f 64
        E 190 8d 2f 40
        E 2 9d 2d 64
        E 190 8d 2d 40
        E 2 9d 2b 64
        E 190 8d 2b 40
        E 2 9d 2a 64
        E 190 8d 2a 40
        E 2 9d 28 64
        E 190 8d 28 40
        E 2 9d 2a 64
        E 94 8d 2a 40
        E 2 9d 2b 64
        E 94 8d 2b 40
        E 2 9d 2a 64
        E 190 8d 2a 40
        E 2 9d 2f 64
        E 190 8d 2f 40
        E 2 9d 32 64
        E 190 8d 32 40
        E 2 9d 30 64
        E 190 8d 30 40
        E 2 9d 2f 64
        E 190 8d 2f 40
        E 2 9d 2b 64
        E 190 8d 2b 40
        E 2 9d 28 64
        E 190 8d 28 40
        E 2 9d 29 64
        E 190 8d 29 40
        E 2 9d 2a 64
        E 94 8d 2a 40
        E 2 9d 31 64
        E 94 8d 31 40
        E 2 9d 36 64
        E 94 8d 36 40
        E 2 9d 38 64
        E 94 8d 38 40
        E 2 9d 39 64
        E 190 8d 39 40
        E 2 9d 36 64
        E 190 8d 36 40
        E 2 9d 34 64
        E 94 8d 34 40
        E 2 9d 2d 64
        E 94 8d 2d 40
        E 2 9d 31 64
        E 94 8d 31 40
        E 2 9d 34 64
        E 94 8d 34 40
        E 2 9d 39 64
        E 190 8d 39 40
        E 2 9d 2d 64
        E 190 8d 2d 40
        E 2 9d 26 64
        E 94 8d 26 40
        E 2 9d 2d 64
        E 94 8d 2d 40
        E 2 9d 32 64
        E 94 8d 32 40
        E 2 9d 34 64
        E 94 8d 34 40
        E 2 9d 36 64
        E 190 8d 36 40
        E 2 9d 32 64
        E 190 8d 32 40
        E 2 9d 34 64
        E 94 8d 34 40
        E 2 9d 2d 64
        E 94 8d 2d 40
        E 2 9d 31 64
        E 94 8d 31 40
        E 2 9d 34 64
        E 94 8d 34 40
        E 2 9d 39 64
        E 190 8d 39 40
        E 2 9d 2d 64
        E 190 8d 2d 40
        E 2 9d 26 64
        E 94 8d 26 40
        E 2 9d 2d 64
        E 94 8d 2d 40
        E 2 9d 32 64
        E 94 8d 32 40
        E 2 9d 34 64
        E 94 8d 34 40
        E 2 9d 36 64
        E 94 8d 36 40
        E 2 9d 34 64
        E 94 8d 34 40
        E 2 9d 32 64
        E 94 8d 32 40
        E 2 9d 31 64
        E 94 8d 31 40
        E 2 9d 2f 64
        E 94 8d 2f 40
        E 2 9d 2a 64
        E 94 8d 2a 40
        E 2 9d 2f 64
        E 94 8d 2f 40
        E 2 9d 32 64
        E 94 8d 32 40
        E 2 9d 31 64
        E 190 8d 31 40
        E 2 9d 2a 64
        E 190 8d 2a 40
        E 2 9d 2f 64
        E 94 8d 2f 40
        E 2 9d 2a 64
        E 94 8d 2a 40
        E 2 9d 2f 64
        E 94 8d 2f 40
        E 2 9d 32 64
        E 94 8d 32 40
        E 2 9d 36 64
        E 190 8d 36 40
        E 2 9d 34 64
        E 94 8d 34 40
        E 2 9d 32 64
        E 94 8d 32 40
        E 2 9d 31 64
        E 190 8d 31 40
        E 2 9d 34 64
        E 190 8d 34 40
        E 2 9d 2d 64
        E 190 8d 2d 40
        E 2 9d 34 64
        E 190 8d 34 40
        E 2 9d 2f 64
        E 94 8d 2f 40
        E 2 9d 32 64
        E 94 8d 32 40
        E 2 9d 36 64
        E 94 8d 36 40
        E 2 9d 3b 64
        E 94 8d 3b 40
        E 2 9d 3e 64
        E 190 8d 3e 40
        E 2 9d 2b 64
        E 190 8d 2b 40
        E 2 9d 2f 64
        E 94 8d 2f 40
        E 2 9d 32 64
        E 94 8d 32 40
        E 2 9d 36 64
        E 94 8d 36 40
        E 2 9d 32 64
        E 94 8d 32 40
        E 2 9d 39 64
        E 190 8d 39 40
        E 2 9d 2d 64
        E 190 8d 2d 40
        E 2 9d 32 64
        E 94 8d 32 40
        E 2 9d 2d 64
        E 94 8d 2d 40
        E 2 9d 2a 64
        E 94 8d 2a 40
        E 2 9d 2d 64
        E 94 8d 2d 40
        E 2 9d 26 64
        E 382 8d 26 40
        E 194 9d 2a 64
        E 94 8d 2a 40
        E 2 9d 2c 64
        E 94 8d 2c 40
        E 2 9d 2d 64
        E 190 8d 2d 40
        E 2 9d 2f 64
        E 94 8d 2f 40
        E 2 9d 31 64
        E 94 8d 31 40
        E 2 9d 32 64
        E 94 8d 32 40
        E 2 9d 31 64
        E 94 8d 31 40
        E 2 9d 2f 64
        E 94 8d 2f 40
        E 2 9d 31 64
        E 94 8d 31 40
        E 2 9d 32 64
        E 94 8d 32 40
        E 2 9d 31 64
        E 94 8d 31 40
        E 2 9d 36 64
        E 190 8d 36 40
        E 194 9d 2d 64
        E 94 8d 2d 40
        E 2 9d 2f 64
        E 94 8d 2f 40
        E 2 9d 31 64
        E 190 8d 31 40
        E 2 9d 32 64
        E 94 8d 32 40
        E 2 9d 34 64
        E 94 8d 34 40
        E 2 9d 36 64
        E 94 8d 36 40
        E 2 9d 34 64
        E 94 8d 34 40
        E 2 9d 32 64
        E 94 8d 32 40
        E 2 9d 34 64
        E 94 8d 34 40
        E 2 9d 36 64
        E 94 8d 36 40
        E 2 9d 34 64
        E 94 8d 34 40
        E 2 9d 39 64
        E 190 8d 39 40
        E 2 9d 39 64
        E 94 8d 39 40
        E 2 9d 36 64
        E 94 8d 36 40
        E 2 9d 38 64
        E 94 8d 38 40
        E 2 9d 39 64
        E 94 8d 39 40
        E 2 9d 3b 64
        E 94 8d 3b 40
        E 2 9d 2f 64
        E 94 8d 2f 40
        E 2 9d 31 64
        E 94 8d 31 40
        E 2 9d 32 64
        E 94 8d 32 40
        E 2 9d 34 64
        E 94 8d 34 40
        E 2 9d 31 64
        E 94 8d 31 40
        E 2 9d 32 64
        E 94 8d 32 40
        E 2 9d 34 64
        E 94 8d 34 40
        E 2 9d 36 64
        E 94 8d 36 40
        E 2 9d 2d 64
        E 94 8d 2d 40
        E 2 9d 2f 64
        E 94 8d 2f 40
        E 2 9d 31 64
        E 94 8d 31 40
        E 2 9d 32 64
        E 94 8d 32 40
        E 2 9d 31 64
        E 94 8d 31 40
        E 2 9d 2f 64
        E 94 8d 2f 40
        E 2 9d 31 64
        E 94 8d 31 40
        E 2 9d 32 64
        E 94 8d 32 40
        E 2 9d 31 64
        E 94 8d 31 40
        E 2 9d 2a 64
        E 190 8d 2a 40
        E 2 9d 39 64
        E 94 8d 39 40
        E 2 9d 36 64
        E 94 8d 36 40
        E 2 9d 38 64
        E 94 8d 38 40
        E 2 9d 39 64
        E 94 8d 39 40
        E 2 9d 3b 64
        E 94 8d 3b 40
        E 2 9d 2f 64
        E 94 8d 2f 40
        E 2 9d 31 64
        E 94 8d 31 40
        E 2 9d 32 64
        E 94 8d 32 40
        E 2 9d 34 64
        E 94 8d 34 40
        E 2 9d 31 64
        E 94 8d 31 40
        E 2 9d 32 64
        E 94 8d 32 40
        E 2 9d 34 64
        E 94 8d 34 40
        E 2 9d 36 64
        E 94 8d 36 40
        E 2 9d 2d 64
        E 94 8d 2d 40
        E 2 9d 2f 64
        E 94 8d 2f 40
        E 2 9d 31 64
        E 94 8d 31 40
        E 2 9d 32 64
        E 94 8d 32 40
        E 2 9d 31 64
        E 94 8d 31 40
        E 2 9d 2f 64
        E 94 8d 2f 40
        E 2 9d 31 64
        E 94 8d 31 40
        E 2 9d 32 64
        E 94 8d 32 40
        E 2 9d 31 64
        E 94 8d 31 40
        E 2 9d 2a 64
        E 575 8d 2a 40
        E 1 b0 7b 00
        GUID {122165D8-0A25-B64E-B65B-F17FAB496BA0}
        IGNTEMPO 0 120 4 4
        SRCCOLOR 675
        VELLANE -1 86 6
      >
    >
  >
  <TRACK {77587781-640E-9247-B474-A8FFA4650576}
    NAME Bass
    PEAKCOL 16576
    BEAT -1
    AUTOMODE 0
    VOLPAN 0.56085967561807 0 -1 -1 1
    MUTESOLO 1 0 0
    IPHASE 0
    ISBUS 0 0
    BUSCOMP 0 0
    SHOWINMIX 1 0.6667 0.5 1 0.5 0 0 0
    FREEMODE 0
    SEL 0
    REC 0 0 0 0 0 0 0
    VU 2
    TRACKHEIGHT 0 0
    INQ 0 0 0 0.5 100 0 0 100
    NCHAN 2
    FX 1
    TRACKID {77587781-640E-9247-B474-A8FFA4650576}
    PERF 0
    MIDIOUT -1
    MAINSEND 1 0
    <FXCHAIN
      WNDRECT 36 359 724 387
      SHOW 0
      LASTSEL 0
      DOCKED 0
      BYPASS 0 0 0
      <VST "VSTi: chipsounds (Plogue Art et Technologie, Inc)" chipsounds.vst 0 "" 1347176271
        T0dMUO5e7f4AAAAABAAAAAEAAAAAAAAAAgAAAAAAAAAEAAAAAAAAAAgAAAAAAAAAsgQAAAEAAAAAABAA
        Q0VHUNUYAAB4nO1ZTW/jNhC951cIOrWHlfgpkoCdheMkhYGmG8DpecHYXEdYWXIlys3213ck2TGdhJbTZBcLNLyEHM2Qbx5H5LMy+Hi/zIK1Kau0yIchjlAYfDw9GYzK
        VE/12jiPFE7CYFUW83pmJ+dgQEiFpycBtMHUWJvmiyr4q9ZZar/B0zCobGn0EszDkJIwWOr7aWsZZVkxuzobhhyD+WpyPvlU26tibtooXdtiqS2sOc0KOwyRa8rM2mTD
        MM1h7nppchsGWbo2XTB4VrMGKCNNT2cabDj4EJgGVVTNso15DIGmHIYJRCyy4lZnN3Xe4gRDvE0JVg/SeWvL9bKZH0fBdV2aYHyXruLp5DxOuMTBL3/cTMe/hsGtzr9O
        5hteHN4kATizO53nDXSYbVVkQBALA7tbdXX7udT5Alb5ABysLAyq9sHS6RYzC1vykChsx7K2m/HfnzNd2WbaDn+bw5VO820Oa53VHcPxcx74wQN5PEivB+31YL0evNcj
        6fUQvR6y10P1emDU79LPKu6nFffzivuJxV5mr3Wpl4e3eOfiXWjnInzFtnNxuYuY4qhpTCSSiuaU8QQ5PESEe92Y60ZV21hCOZfEG3MMZqckIky6eTmhOCGSeblwE6W4
        CwJ/wRjxJiqwyw7qghJGqCANB54g4sKTLaNIYE44F354e5TSLohhQSjhXiKES3DSESx5opiU3A/PKb9IdCthhQRlMvEHJXs5dWVCqGTQl94g5+WOIJuOPiklYbBr3qyk
        u9aGCYwVQYoob4x6eYxCezl16ESC4Sph/vqkbkkIKRjCHChPZCK9K2HqlgRHVFGBEIdSErDHfnw7gN4KVWiHxwtaIdL/Vil0xImiUHLMTPIYJ3XM6XQMckwQ9Xnd6HJh
        7EY3zIpldJ0Vi9pEjayKfr/8FNWVKZFzVbdR47oCoXOurQ7u7LcVhHLBAW+V/gN9Jh1VAVSZfJ7qrjuHEOhs22X3h6C3bfspxl2OL00a/0+SvinTxcKUU9CeJp+Zsj9t
        Rhl9SFs4aZPn0sabrDcNtaePuEQE+uhCCvw4EToWl+qIhDFih5IexI0wfqyR8ZtqZLzVyGSnkfFbimTyLpLfRfJ/FcnuTQyvSwK3adNApyGaeC9j9ypWiHOQCYITKanC
        3htmT8gKlsDdLRXjCQah/Fbi2yujhXfnPEKVs1afASFSwWnkn9jVnEixjTxDAtTgcZqTdoz3/mDY05wEq+NW8r46r9OKrq7y6nFXVx3QMN9DVx2QcT9CV/1ciunJ7fmo
        XRxxkaJ3xfQDFROm/KWS6awZNZIJc3QmLs+eZOKXTFt5BUcytBGnDZfjn9b6DN5jJd7Fly9mZt2PoRtV1e3faHmbNrvVI+22H1V/+3OynUbPbLo2k91H3nZ88TCuTAYL
        m/mNvm3G7oFSmsrYK5PXQVpt3W2bwOGCCqy5B5czXVUgH7W9G4bxaLXK0ln7cbmKu0AQoumqKup8DpZ2rSo+MG3cFWYA9tnXKm5mjzS8wKtHx+AT1PhZ1KNyZRaLVNti
        BzhLV68A7MwYN1O9Bp2PU0CwNKX+DrRu0Bfg3K3xCP4ghqI6PRnE239ZnJ78C+DcQZI=
        AAAQAAAA
      >
      FLOATPOS 409 269 871 509
      FXID {462A8B6F-9924-6640-8FD9-F87C5CCBB5B6}
      WAK 0
      BYPASS 0 0 0
      <VST "VST: 8-Bit Shaper (Xfer Records)" 8BitShaper.vst 0 "" 1148539762
        clN1RO5e7f4CAAAAAQAAAAAAAAACAAAAAAAAAAQAAAABAAAAAAAAAAIAAAAAAAAABAAAAAAAAAAIAAAAAAAAADQCAAABAAAAAAAQAA==
        ZmaGP20MlT7dQQw/AAAAPyUA8FIAAIA/EAAAAAAAAAAXAAAAMAAAABkAAAAaAAAAGgAAABoAAAAbAAAAGwAAABwAAAAcAAAAHAAAAB0AAAAdAAAAHgAAAB4AAAAfAAAA
        HwAAACAAAAAgAAAAIAAAACEAAAAhAAAAIQAAACIAAAAiAAAAIgAAACMAAAAjAAAAIwAAACQAAAAkAAAAJAAAACUAAAAlAAAAKAAAACgAAAApAAAAKQAAACoAAAA1AAAA
        KgAAACoAAAA2AAAAKgAAACoAAAAqAAAAKgAAACoAAAAqAAAAKgAAACsAAAArAAAAOQAAAC0AAAA0AAAAOgAAAC0AAAAtAAAAPAAAAC4AAAAuAAAALwAAADAAAAAwAAAA
        MQAAADEAAAAxAAAAMgAAADMAAAAzAAAAMwAAADcAAAA3AAAANwAAADgAAAA4AAAAOAAAADkAAAA5AAAAOQAAADoAAAA6AAAAOgAAADoAAAA6AAAAOwAAADsAAAA7AAAA
        PAAAADsAAAA7AAAAOwAAADwAAAA8AAAAPAAAADwAAAA9AAAAPQAAAD0AAAA9AAAAPQAAAD4AAAA+AAAAPwAAAEkAAABAAAAAQAAAAEgAAABAAAAAQQAAAEIAAABCAAAA
        QgAAAEMAAABDAAAAQwAAAEQAAABEAAAARQAAAE0AAABGAAAARwAAAEYAAABHAAAASAAAAEgAAABJAAAATwAAAAAAgD+rqqo+q6qqPh0Fwz6OAm0/
        AEluaXQgMQAQAAAA
      >
      PRESETNAME "Init 1"
      FLOATPOS 0 0 0 0
      FXID {EF64619D-F0A2-E147-A24A-3CAD68C5DD45}
      WAK 0
    >
    <ITEM
      POSITION 0
      SNAPOFFS 0
      LENGTH 55
      LOOP 1
      ALLTAKES 0
      FADEIN 1 0 0 1 0 0
      FADEOUT 1 0 0 1 0 0
      MUTE 0
      SEL 0
      YPOS 0.222222 0.111111
      IGUID {B664FE62-278A-0847-AF8E-B40E44C37395}
      IID 3
      NAME "Accomp. LH           - National_Anthems_-_Czech_Republic.mid"
      VOLPAN 1 0 1 -1
      SOFFS 0 0
      PLAYRATE 1 1 0 -1 0 0.0025
      CHANMODE 0
      TAKECOLOR 26173599 B
      GUID {2055A685-0A00-E641-9495-C3C22614CE62}
      <SOURCE MIDI
        HASDATA 1 192 QN
        POOLEDEVTS {1D57BADA-E358-BB4B-A3EC-2D376F709B8C}
        <X 0 0 0 0 3 "Accomp. LH          "
          /wNBY2NvbXAuIExIICAgICAgICAgIA==
        >
        e 0 90 26 64
        e 0 90 32 64
        e 190 80 26 40
        e 0 80 32 40
        e 2 90 32 64
        e 0 90 36 64
        e 0 90 39 64
        e 382 80 32 40
        e 0 80 36 40
        e 0 80 39 40
        e 2 90 32 64
        e 0 90 37 64
        e 0 90 3b 64
        e 94 80 32 40
        e 0 80 37 40
        e 0 80 3b 40
        e 2 90 32 64
        e 0 90 36 64
        e 0 90 39 64
        e 94 80 32 40
        e 0 80 36 40
        e 0 80 39 40
        e 2 90 34 64
        e 0 90 37 64
        e 190 80 34 40
        e 0 80 37 40
        e 2 90 2d 64
        e 382 80 2d 40
        e 2 90 2d 64
        e 190 80 2d 40
        e 2 90 32 64
        e 190 80 32 40
        e 2 90 30 64
        e 190 80 30 40
        e 2 90 2f 64
        e 190 80 2f 40
        e 2 90 2d 64
        e 190 80 2d 40
        e 2 90 2b 64
        e 190 80 2b 40
        e 2 90 2a 64
        e 190 80 2a 40
        e 2 90 28 64
        e 190 80 28 40
        e 2 90 2a 64
        e 94 80 2a 40
        e 2 90 2b 64
        e 94 80 2b 40
        e 2 90 2a 64
        e 190 80 2a 40
        e 2 90 2f 64
        e 190 80 2f 40
        e 2 90 32 64
        e 190 80 32 40
        e 2 90 30 64
        e 190 80 30 40
        e 2 90 2f 64
        e 190 80 2f 40
        e 2 90 2b 64
        e 190 80 2b 40
        e 2 90 28 64
        e 190 80 28 40
        e 2 90 29 64
        e 190 80 29 40
        e 2 90 2a 64
        e 94 80 2a 40
        e 2 90 31 64
        e 94 80 31 40
        e 2 90 36 64
        e 94 80 36 40
        e 2 90 38 64
        e 94 80 38 40
        e 2 90 39 64
        e 190 80 39 40
        e 2 90 36 64
        e 190 80 36 40
        e 2 90 34 64
        e 94 80 34 40
        e 2 90 2d 64
        e 94 80 2d 40
        e 2 90 31 64
        e 94 80 31 40
        e 2 90 34 64
        e 94 80 34 40
        e 2 90 39 64
        e 190 80 39 40
        e 2 90 2d 64
        e 190 80 2d 40
        e 2 90 26 64
        e 94 80 26 40
        e 2 90 2d 64
        e 94 80 2d 40
        e 2 90 32 64
        e 94 80 32 40
        e 2 90 34 64
        e 94 80 34 40
        e 2 90 36 64
        e 190 80 36 40
        e 2 90 32 64
        e 190 80 32 40
        e 2 90 34 64
        e 94 80 34 40
        e 2 90 2d 64
        e 94 80 2d 40
        e 2 90 31 64
        e 94 80 31 40
        e 2 90 34 64
        e 94 80 34 40
        e 2 90 39 64
        e 190 80 39 40
        e 2 90 2d 64
        e 190 80 2d 40
        e 2 90 26 64
        e 94 80 26 40
        e 2 90 2d 64
        e 94 80 2d 40
        e 2 90 32 64
        e 94 80 32 40
        e 2 90 34 64
        e 94 80 34 40
        e 2 90 36 64
        e 94 80 36 40
        e 2 90 34 64
        e 94 80 34 40
        e 2 90 32 64
        e 94 80 32 40
        e 2 90 31 64
        e 94 80 31 40
        e 2 90 2f 64
        e 94 80 2f 40
        e 2 90 2a 64
        e 94 80 2a 40
        e 2 90 2f 64
        e 94 80 2f 40
        e 2 90 32 64
        e 94 80 32 40
        e 2 90 31 64
        e 190 80 31 40
        e 2 90 2a 64
        e 190 80 2a 40
        e 2 90 2f 64
        e 94 80 2f 40
        e 2 90 2a 64
        e 94 80 2a 40
        e 2 90 2f 64
        e 94 80 2f 40
        e 2 90 32 64
        e 94 80 32 40
        e 2 90 36 64
        e 190 80 36 40
        e 2 90 34 64
        e 94 80 34 40
        e 2 90 32 64
        e 94 80 32 40
        e 2 90 31 64
        e 190 80 31 40
        e 2 90 34 64
        e 190 80 34 40
        e 2 90 2d 64
        e 190 80 2d 40
        e 2 90 34 64
        e 190 80 34 40
        e 2 90 2f 64
        e 94 80 2f 40
        e 2 90 32 64
        e 94 80 32 40
        e 2 90 36 64
        e 94 80 36 40
        e 2 90 3b 64
        e 94 80 3b 40
        e 2 90 3e 64
        e 190 80 3e 40
        e 2 90 2b 64
        e 190 80 2b 40
        e 2 90 2f 64
        e 94 80 2f 40
        e 2 90 32 64
        e 94 80 32 40
        e 2 90 36 64
        e 94 80 36 40
        e 2 90 32 64
        e 94 80 32 40
        e 2 90 39 64
        e 190 80 39 40
        e 2 90 2d 64
        e 190 80 2d 40
        e 2 90 32 64
        e 94 80 32 40
        e 2 90 2d 64
        e 94 80 2d 40
        e 2 90 2a 64
        e 94 80 2a 40
        e 2 90 2d 64
        e 94 80 2d 40
        e 2 90 26 64
        e 382 80 26 40
        e 194 90 2a 64
        e 94 80 2a 40
        e 2 90 2c 64
        e 94 80 2c 40
        e 2 90 2d 64
        e 190 80 2d 40
        e 2 90 2f 64
        e 94 80 2f 40
        e 2 90 31 64
        e 94 80 31 40
        e 2 90 32 64
        e 94 80 32 40
        e 2 90 31 64
        e 94 80 31 40
        e 2 90 2f 64
        e 94 80 2f 40
        e 2 90 31 64
        e 94 80 31 40
        e 2 90 32 64
        e 94 80 32 40
        e 2 90 31 64
        e 94 80 31 40
        e 2 90 36 64
        e 190 80 36 40
        e 194 90 2d 64
        e 94 80 2d 40
        e 2 90 2f 64
        e 94 80 2f 40
        e 2 90 31 64
        e 190 80 31 40
        e 2 90 32 64
        e 94 80 32 40
        e 2 90 34 64
        e 94 80 34 40
        e 2 90 36 64
        e 94 80 36 40
        e 2 90 34 64
        e 94 80 34 40
        e 2 90 32 64
        e 94 80 32 40
        e 2 90 34 64
        e 94 80 34 40
        e 2 90 36 64
        e 94 80 36 40
        e 2 90 34 64
        e 94 80 34 40
        e 2 90 39 64
        e 190 80 39 40
        e 2 90 39 64
        e 94 80 39 40
        e 2 90 36 64
        e 94 80 36 40
        e 2 90 38 64
        e 94 80 38 40
        e 2 90 39 64
        e 94 80 39 40
        e 2 90 3b 64
        e 94 80 3b 40
        e 2 90 2f 64
        e 94 80 2f 40
        e 2 90 31 64
        e 94 80 31 40
        e 2 90 32 64
        e 94 80 32 40
        e 2 90 34 64
        e 94 80 34 40
        e 2 90 31 64
        e 94 80 31 40
        e 2 90 32 64
        e 94 80 32 40
        e 2 90 34 64
        e 94 80 34 40
        e 2 90 36 64
        e 94 80 36 40
        e 2 90 2d 64
        e 94 80 2d 40
        e 2 90 2f 64
        e 94 80 2f 40
        e 2 90 31 64
        e 94 80 31 40
        e 2 90 32 64
        e 94 80 32 40
        e 2 90 31 64
        e 94 80 31 40
        e 2 90 2f 64
        e 94 80 2f 40
        e 2 90 31 64
        e 94 80 31 40
        e 2 90 32 64
        e 94 80 32 40
        e 2 90 31 64
        e 94 80 31 40
        e 2 90 2a 64
        e 190 80 2a 40
        e 2 90 39 64
        e 94 80 39 40
        e 2 90 36 64
        e 94 80 36 40
        e 2 90 38 64
        e 94 80 38 40
        e 2 90 39 64
        e 94 80 39 40
        e 2 90 3b 64
        e 94 80 3b 40
        e 2 90 2f 64
        e 94 80 2f 40
        e 2 90 31 64
        e 94 80 31 40
        e 2 90 32 64
        e 94 80 32 40
        e 2 90 34 64
        e 94 80 34 40
        e 2 90 31 64
        e 94 80 31 40
        e 2 90 32 64
        e 94 80 32 40
        e 2 90 34 64
        e 94 80 34 40
        e 2 90 36 64
        e 94 80 36 40
        e 2 90 2d 64
        e 94 80 2d 40
        e 2 90 2f 64
        e 94 80 2f 40
        e 2 90 31 64
        e 94 80 31 40
        e 2 90 32 64
        e 94 80 32 40
        e 2 90 31 64
        e 94 80 31 40
        e 2 90 2f 64
        e 94 80 2f 40
        e 2 90 31 64
        e 94 80 31 40
        e 2 90 32 64
        e 94 80 32 40
        e 2 90 31 64
        e 94 80 31 40
        e 2 90 2a 64
        e 575 80 2a 40
        E 1 b0 7b 00
        GUID {2C2BF260-3948-ED4E-822A-5A50A8136B1D}
        IGNTEMPO 0 120 4 4
        SRCCOLOR 615
        VELLANE -1 86 6
        CFGEDITVIEW 9538.228091 13.768595 76 16 0 -1 0 0 0 0.5
        KEYSNAP 0
        TRACKSEL 226
        EVTFILTER 0 -1 -1 -1 -1 0 0 0 0 -1 -1 -1 -1 0 -1 0 -1 -1
        CFGEDIT 1 1 0 0 0 0 1 0 1 1 1 0.25 506 494 1014 762 1 0 1 3 0 0 0 0 0 -1 0 0 1 64
      >
      TAKE
      NAME "Accomp. LH           - National_Anthems_-_Czech_Republic.mid"
      TAKEVOLPAN 0 1 -1
      SOFFS 0 0
      PLAYRATE 1 1 0 -1 0 0.0025
      CHANMODE 0
      GUID {58254D12-170B-A74F-9508-DF567B7F55A5}
      <SOURCE MIDI
        HASDATA 1 192 QN
        POOLEDEVTS {3F6A94E6-941B-634C-BC29-11CE7412047C}
        <X 0 0 0 0 3 "Accomp. LH          "
          /wNBY2NvbXAuIExIICAgICAgICAgIA==
        >
        E 0 92 26 64
        E 0 92 32 64
        E 190 82 26 40
        E 0 82 32 40
        E 2 92 39 64
        E 0 92 36 64
        E 0 92 32 64
        E 382 82 39 40
        E 0 82 36 40
        E 0 82 32 40
        E 2 92 3b 64
        E 0 92 32 64
        E 0 92 37 64
        E 94 82 3b 40
        E 0 82 32 40
        E 0 82 37 40
        E 2 92 39 64
        E 0 92 36 64
        E 0 92 32 64
        E 94 82 39 40
        E 0 82 36 40
        E 0 82 32 40
        E 2 92 37 64
        E 0 92 34 64
        E 190 82 37 40
        E 0 82 34 40
        E 2 92 2d 64
        E 382 82 2d 40
        E 2 92 2d 64
        E 190 82 2d 40
        E 2 92 32 64
        E 190 82 32 40
        E 2 92 30 64
        E 190 82 30 40
        E 2 92 2f 64
        E 190 82 2f 40
        E 2 92 2d 64
        E 190 82 2d 40
        E 2 92 2b 64
        E 190 82 2b 40
        E 2 92 2a 64
        E 190 82 2a 40
        E 2 92 28 64
        E 190 82 28 40
        E 2 92 2a 64
        E 94 82 2a 40
        E 2 92 2b 64
        E 94 82 2b 40
        E 2 92 2a 64
        E 190 82 2a 40
        E 2 92 2f 64
        E 190 82 2f 40
        E 2 92 32 64
        E 190 82 32 40
        E 2 92 30 64
        E 190 82 30 40
        E 2 92 2f 64
        E 190 82 2f 40
        E 2 92 2b 64
        E 190 82 2b 40
        E 2 92 28 64
        E 190 82 28 40
        E 2 92 29 64
        E 190 82 29 40
        E 2 92 2a 64
        E 94 82 2a 40
        E 2 92 31 64
        E 94 82 31 40
        E 2 92 36 64
        E 94 82 36 40
        E 2 92 38 64
        E 94 82 38 40
        E 2 92 39 64
        E 190 82 39 40
        E 2 92 36 64
        E 190 82 36 40
        E 2 92 34 64
        E 94 82 34 40
        E 2 92 2d 64
        E 94 82 2d 40
        E 2 92 31 64
        E 94 82 31 40
        E 2 92 34 64
        E 94 82 34 40
        E 2 92 39 64
        E 190 82 39 40
        E 2 92 2d 64
        E 190 82 2d 40
        E 2 92 26 64
        E 94 82 26 40
        E 2 92 2d 64
        E 94 82 2d 40
        E 2 92 32 64
        E 94 82 32 40
        E 2 92 34 64
        E 94 82 34 40
        E 2 92 36 64
        E 190 82 36 40
        E 2 92 32 64
        E 190 82 32 40
        E 2 92 34 64
        E 94 82 34 40
        E 2 92 2d 64
        E 94 82 2d 40
        E 2 92 31 64
        E 94 82 31 40
        E 2 92 34 64
        E 94 82 34 40
        E 2 92 39 64
        E 190 82 39 40
        E 2 92 2d 64
        E 190 82 2d 40
        E 2 92 26 64
        E 94 82 26 40
        E 2 92 2d 64
        E 94 82 2d 40
        E 2 92 32 64
        E 94 82 32 40
        E 2 92 34 64
        E 94 82 34 40
        E 2 92 36 64
        E 94 82 36 40
        E 2 92 34 64
        E 94 82 34 40
        E 2 92 32 64
        E 94 82 32 40
        E 2 92 31 64
        E 94 82 31 40
        E 2 92 2f 64
        E 94 82 2f 40
        E 2 92 2a 64
        E 94 82 2a 40
        E 2 92 2f 64
        E 94 82 2f 40
        E 2 92 32 64
        E 94 82 32 40
        E 2 92 31 64
        E 190 82 31 40
        E 2 92 2a 64
        E 190 82 2a 40
        E 2 92 2f 64
        E 94 82 2f 40
        E 2 92 2a 64
        E 94 82 2a 40
        E 2 92 2f 64
        E 94 82 2f 40
        E 2 92 32 64
        E 94 82 32 40
        E 2 92 36 64
        E 190 82 36 40
        E 2 92 34 64
        E 94 82 34 40
        E 2 92 32 64
        E 94 82 32 40
        E 2 92 31 64
        E 190 82 31 40
        E 2 92 34 64
        E 190 82 34 40
        E 2 92 2d 64
        E 190 82 2d 40
        E 2 92 34 64
        E 190 82 34 40
        E 2 92 2f 64
        E 94 82 2f 40
        E 2 92 32 64
        E 94 82 32 40
        E 2 92 36 64
        E 94 82 36 40
        E 2 92 3b 64
        E 94 82 3b 40
        E 2 92 3e 64
        E 190 82 3e 40
        E 2 92 2b 64
        E 190 82 2b 40
        E 2 92 2f 64
        E 94 82 2f 40
        E 2 92 32 64
        E 94 82 32 40
        E 2 92 36 64
        E 94 82 36 40
        E 2 92 32 64
        E 94 82 32 40
        E 2 92 39 64
        E 190 82 39 40
        E 2 92 2d 64
        E 190 82 2d 40
        E 2 92 32 64
        E 94 82 32 40
        E 2 92 2d 64
        E 94 82 2d 40
        E 2 92 2a 64
        E 94 82 2a 40
        E 2 92 2d 64
        E 94 82 2d 40
        E 2 92 26 64
        E 382 82 26 40
        E 194 92 2a 64
        E 94 82 2a 40
        E 2 92 2c 64
        E 94 82 2c 40
        E 2 92 2d 64
        E 190 82 2d 40
        E 2 92 2f 64
        E 94 82 2f 40
        E 2 92 31 64
        E 94 82 31 40
        E 2 92 32 64
        E 94 82 32 40
        E 2 92 31 64
        E 94 82 31 40
        E 2 92 2f 64
        E 94 82 2f 40
        E 2 92 31 64
        E 94 82 31 40
        E 2 92 32 64
        E 94 82 32 40
        E 2 92 31 64
        E 94 82 31 40
        E 2 92 36 64
        E 190 82 36 40
        E 194 92 2d 64
        E 94 82 2d 40
        E 2 92 2f 64
        E 94 82 2f 40
        E 2 92 31 64
        E 190 82 31 40
        E 2 92 32 64
        E 94 82 32 40
        E 2 92 34 64
        E 94 82 34 40
        E 2 92 36 64
        E 94 82 36 40
        E 2 92 34 64
        E 94 82 34 40
        E 2 92 32 64
        E 94 82 32 40
        E 2 92 34 64
        E 94 82 34 40
        E 2 92 36 64
        E 94 82 36 40
        E 2 92 34 64
        E 94 82 34 40
        E 2 92 39 64
        E 190 82 39 40
        E 2 92 39 64
        E 94 82 39 40
        E 2 92 36 64
        E 94 82 36 40
        E 2 92 38 64
        E 94 82 38 40
        E 2 92 39 64
        E 94 82 39 40
        E 2 92 3b 64
        E 94 82 3b 40
        E 2 92 2f 64
        E 94 82 2f 40
        E 2 92 31 64
        E 94 82 31 40
        E 2 92 32 64
        E 94 82 32 40
        E 2 92 34 64
        E 94 82 34 40
        E 2 92 31 64
        E 94 82 31 40
        E 2 92 32 64
        E 94 82 32 40
        E 2 92 34 64
        E 94 82 34 40
        E 2 92 36 64
        E 94 82 36 40
        E 2 92 2d 64
        E 94 82 2d 40
        E 2 92 2f 64
        E 94 82 2f 40
        E 2 92 31 64
        E 94 82 31 40
        E 2 92 32 64
        E 94 82 32 40
        E 2 92 31 64
        E 94 82 31 40
        E 2 92 2f 64
        E 94 82 2f 40
        E 2 92 31 64
        E 94 82 31 40
        E 2 92 32 64
        E 94 82 32 40
        E 2 92 31 64
        E 94 82 31 40
        E 2 92 2a 64
        E 190 82 2a 40
        E 2 92 39 64
        E 94 82 39 40
        E 2 92 36 64
        E 94 82 36 40
        E 2 92 38 64
        E 94 82 38 40
        E 2 92 39 64
        E 94 82 39 40
        E 2 92 3b 64
        E 94 82 3b 40
        E 2 92 2f 64
        E 94 82 2f 40
        E 2 92 31 64
        E 94 82 31 40
        E 2 92 32 64
        E 94 82 32 40
        E 2 92 34 64
        E 94 82 34 40
        E 2 92 31 64
        E 94 82 31 40
        E 2 92 32 64
        E 94 82 32 40
        E 2 92 34 64
        E 94 82 34 40
        E 2 92 36 64
        E 94 82 36 40
        E 2 92 2d 64
        E 94 82 2d 40
        E 2 92 2f 64
        E 94 82 2f 40
        E 2 92 31 64
        E 94 82 31 40
        E 2 92 32 64
        E 94 82 32 40
        E 2 92 31 64
        E 94 82 31 40
        E 2 92 2f 64
        E 94 82 2f 40
        E 2 92 31 64
        E 94 82 31 40
        E 2 92 32 64
        E 94 82 32 40
        E 2 92 31 64
        E 94 82 31 40
        E 2 92 2a 64
        E 575 82 2a 40
        E 1 b0 7b 00
        GUID {CA709507-5833-8C48-BD02-8F083C43C279}
        IGNTEMPO 0 120 4 4
        SRCCOLOR 673
        VELLANE -1 86 6
        CFGEDITVIEW -1065.84086 23.057851 52 16 0 0 0 0 0 0.5
        KEYSNAP 0
        TRACKSEL -226
        EVTFILTER 0 -1 -1 -1 -1 0 0 0 0 -1 -1 -1 -1 0 -1 0 -1 -1
        CFGEDIT 1 1 0 0 0 0 1 0 1 0 0 0.25 522 510 1014 762 1 0 1 3 0 0 0 0 0 -1 0 0 1 64
      >
    >
  >
  <TRACK {9E2CAE92-CCC1-1F4A-BCF6-93DCFE473BDF}
    NAME HighEdge
    PEAKCOL 16576
    BEAT -1
    AUTOMODE 0
    VOLPAN 0.46415452868198 0 -1 -1 1
    MUTESOLO 0 0 0
    IPHASE 0
    ISBUS 0 0
    BUSCOMP 0 0
    SHOWINMIX 1 0.6667 0.5 1 0.5 0 0 0
    FREEMODE 0
    SEL 0
    REC 0 0 0 0 0 0 0
    VU 2
    TRACKHEIGHT 151 0
    INQ 0 0 0 0.5 100 0 0 100
    NCHAN 2
    FX 1
    TRACKID {9E2CAE92-CCC1-1F4A-BCF6-93DCFE473BDF}
    PERF 0
    MIDIOUT -1
    MAINSEND 1 0
    <FXCHAIN
      WNDRECT 36 359 724 387
      SHOW 0
      LASTSEL 0
      DOCKED 0
      BYPASS 1 0 0
      <VST "VSTi: BlueARP.x64 (graywolf2004)" BlueARP.x64.vst 0 "" 929322872
        eFdkN+5e7f4AAAAAAgAAAAEAAAAAAAAAAgAAAAAAAAAODwEAAQAAAAAAEAA=
        YmJuawYPAQBmaXhwFAAAABAAAQEBAAAAAAII/wUAAAAAAAAAZnBncCIAAAAPEFoEAAAAfwB/AEAAAQABAAAAAAAAAAAAfwAAAAEAAAAAY2hucAQAAAAA////Y2hucwgA
        AAAPDg4O/////2NobnAEAAAAAP///2NobnMIAAAAFv////////9jaG5wBAAAAAD///9jaG5zCAAAABL/////////Y2hucAQAAAAA////Y2hucwgAAAAICAkJ/////2No
        bnAEAAAAAP///2NobnMIAAAANf////////9jaG5wBAAAAAD///9jaG5zCAAAAD0+////////Y2hucAQAAAAA////Y2hucwgAAAAgICAh/////2NobnAEAAAAAP///2No
        bnMIAAAAGhr///////9jaG5wBAAAAAD///9jaG5zCAAAAP//////////Y2hucAQAAAAA////Y2hucwgAAAD//////////2NobnAEAAAAAP///2NobnMIAAAA////////
        //9jaG5wBAAAAAD///9jaG5zCAAAAP//////////Y2hucAQAAAAA////Y2hucwgAAAD//////////2NobnAEAAAAAP///2NobnMIAAAA//////////9jaG5wBAAAAAD/
        //9jaG5zCAAAAP//////////Y2hucAQAAAAA////Y2hucwgAAAD//////////3Byb2cSAgAAcHJncCIAAAAQEFoEAAEAfwB/AEAAAQABAAAAAAAAAAAAfwAAAAAAAAAA
        cGdubTAAAAAtIEluaXRpYWwgcHJvZ3JhbSAtAP9/AAAEPB0aAQAAAfTw3BUBAAAAAAABADABAABzdHAwQAAAAAAAAAAAAAAAAAAAAAAAAAAAAAAAAAAAAAAAAAAAAAAA
        AAAAAAAAAAAAAAAAAAAAAAAAAAAAAAAAAAAAAAAAAABzdHAxQAAAAAgICAgICAgICAgICAgICAgICAgICAgICAgICAgICAgICAgICAgICAgICAgICAgICAgICAgICAgI
        CAgICAgICAhzdHAyQAAAAAEBAQEBAQEBAQEBAQEBAQEBAQEBAQEBAQEBAQEBAQEBAQEBAQEBAQEBAQEBAQEBAQEBAQEBAQEBAQEBAQEBAQFzdHAzQAAAAAQEBAQEBAQE
        BAQEBAQEBAQEBAQEBAQEBAQEBAQEBAQEBAQEBAQEBAQEBAQEBAQEBAQEBAQEBAQEBAQEBAQEBARzdHA0QAAAAGBgYGBgYGBgYGBgYGBgYGBgYGBgYGBgYGBgYGBgYGBg
        YGBgYGBgYGBgYGBgYGBgYGBgYGBgYGBgYGBgYGBgYGBzdHA1QAAAAAAAAAAAAAAAAAAAAAAAAAAAAAAAAAAAAAAAAAAAAAAAAAAAAAAAAAAAAAAAAAAAAAAAAAAAAAAA
        AAAAAAAAAABwcm9nEgIAAHByZ3AiAAAAEBAyBAADAH8AfwBAAAEAAQAAAAAAAAAAAH8AAAAAAAAAAHBnbm0wAAAAU2ltcGxlIDRrIFVwAAAAALApvl//fwAAsOgcGgEA
        AAAkKr5f/38AAPTw3BUBAAAAc3RwMEAAAAAAAAAAAAAAAAAAAAAAAAAAAAAAAAAAAAAAAAAAAAAAAAAAAAAAAAAAAAAAAAAAAAAAAAAAAAAAAAAAAAAAAAAAc3RwMUAA
        AAAICAgICAgICAgICAgICAgICAgICAgICAgICAgICAgICAgICAgICAgICAgICAgICAgICAgICAgICAgICAgICAgIc3RwMkAAAAABAQEBAQEBAQEBAQEBAQEBAQEBAQEB
        AQEBAQEBAQEBAQEBAQEBAQEBAQEBAQEBAQEBAQEBAQEBAQEBAQEBAQEBc3RwM0AAAAAECBAgBAgQIAQIECAECBAgBAQEBAQEBAQEBAQEBAQEBAQEBAQEBAQEBAQEBAQE
        BAQEBAQEBAQEBAQEBAQEBAQEc3RwNEAAAABgYGBgYGBgYGBgYGBgYGBgYGBgYGBgYGBgYGBgYGBgYGBgYGBgYGBgYGBgYGBgYGBgYGBgYGBgYGBgYGBgYGBgc3RwNUAA
        AAAAAAAAAAAAAAAAAAAAAAAAAAAAAAAAAAAAAAAAAAAAAAAAAAAAAAAAAAAAAAAAAAAAAAAAAAAAAAAAAAAAAAAAcHJvZxICAABwcmdwIgAAABAQMgQAAwB/AH8AQAAB
        AAEAAAAAAAAAAAB/AAAAAAAAAABwZ25tMAAAAFNpbXBsZSA0ayBEb3duAACwKb5f/38AALDoHBoBAAAAJCq+X/9/AAD08NwVAQAAAHN0cDBAAAAAAAAAAAAAAAAAAAAA
        AAAAAAAAAAAAAAAAAAAAAAAAAAAAAAAAAAAAAAAAAAAAAAAAAAAAAAAAAAAAAAAAAAAAAHN0cDFAAAAACAgICAgICAgICAgICAgICAgICAgICAgICAgICAgICAgICAgI
        CAgICAgICAgICAgICAgICAgICAgICAgICAgICHN0cDJAAAAAAQEBAQEBAQEBAQEBAQEBAQEBAQEBAQEBAQEBAQEBAQEBAQEBAQEBAQEBAQEBAQEBAQEBAQEBAQEBAQEB
        AQEBAXN0cDNAAAAAIBAIBCAQCAQgEAgEIBAIBAQEBAQEBAQEBAQEBAQEBAQEBAQEBAQEBAQEBAQEBAQEBAQEBAQEBAQEBAQEBAQEBHN0cDRAAAAAYGBgYGBgYGBgYGBg
        YGBgYGBgYGBgYGBgYGBgYGBgYGBgYGBgYGBgYGBgYGBgYGBgYGBgYGBgYGBgYGBgYGBgYHN0cDVAAAAAAAAAAAAAAAAAAAAAAAAAAAAAAAAAAAAAAAAAAAAAAAAAAAAA
        AAAAAAAAAAAAAAAAAAAAAAAAAAAAAAAAAAAAAHByb2cSAgAAcHJncCIAAAAQEDIEAAMAfwB/AEAAAQABAAAAAAAAAAAAfwAAAAAAAAAAcGdubTAAAABTaW1wbGUgM2sg
        VXAAAAAAsCm+X/9/AACw6BwaAQAAACQqvl//fwAA9PDcFQEAAABzdHAwQAAAAAAAAAAAAAAAAAAAAAAAAAAAAAAAAAAAAAAAAAAAAAAAAAAAAAAAAAAAAAAAAAAAAAAA
        AAAAAAAAAAAAAAAAAABzdHAxQAAAAAgICAgICAgICAgICAgICAgICAgICAgICAgICAgICAgICAgICAgICAgICAgICAgICAgICAgICAgICAgICAgICAhzdHAyQAAAAAEB
        AQEBAQEBAQEBAQEBAQEBAQEBAQEBAQEBAQEBAQEBAQEBAQEBAQEBAQEBAQEBAQEBAQEBAQEBAQEBAQEBAQFzdHAzQAAAAAQIEAQIEAQIEAQIEAQIEAgEBAQEBAQEBAQE
        BAQEBAQEBAQEBAQEBAQEBAQEBAQEBAQEBAQEBAQEBAQEBAQEBARzdHA0QAAAAGBgYGBgYGBgYGBgYGBgYGBgYGBgYGBgYGBgYGBgYGBgYGBgYGBgYGBgYGBgYGBgYGBg
        YGBgYGBgYGBgYGBgYGBzdHA1QAAAAAAAAAAAAAAAAAAAAAAAAAAAAAAAAAAAAAAAAAAAAAAAAAAAAAAAAAAAAAAAAAAAAAAAAAAAAAAAAAAAAAAAAABwcm9nEgIAAHBy
        Z3AiAAAAEBAyBAADAH8AfwBAAAEAAQAAAAAAAAAAAH8AAAAAAAAAAHBnbm0wAAAAU2ltcGxlIDNrIERvd24AALApvl//fwAAsOgcGgEAAAAkKr5f/38AAPTw3BUBAAAA
        c3RwMEAAAAAAAAAAAAAAAAAAAAAAAAAAAAAAAAAAAAAAAAAAAAAAAAAAAAAAAAAAAAAAAAAAAAAAAAAAAAAAAAAAAAAAAAAAc3RwMUAAAAAICAgICAgICAgICAgICAgI
        CAgICAgICAgICAgICAgICAgICAgICAgICAgICAgICAgICAgICAgICAgICAgICAgIc3RwMkAAAAABAQEBAQEBAQEBAQEBAQEBAQEBAQEBAQEBAQEBAQEBAQEBAQEBAQEB
        AQEBAQEBAQEBAQEBAQEBAQEBAQEBAQEBc3RwM0AAAAAQCAQQCAQQCAQQCAQQCAQIBAQEBAQEBAQEBAQEBAQEBAQEBAQEBAQEBAQEBAQEBAQEBAQEBAQEBAQEBAQEBAQE
        c3RwNEAAAABgYGBgYGBgYGBgYGBgYGBgYGBgYGBgYGBgYGBgYGBgYGBgYGBgYGBgYGBgYGBgYGBgYGBgYGBgYGBgYGBgYGBgc3RwNUAAAAAAAAAAAAAAAAAAAAAAAAAA
        AAAAAAAAAAAAAAAAAAAAAAAAAAAAAAAAAAAAAAAAAAAAAAAAAAAAAAAAAAAAAAAAcHJvZxICAABwcmdwIgAAABAIWgQAAQB/AH8AQAABAAEAAAAAAAAAAAB/AAAAAAAA
        AABwZ25tMAAAAENob3JkIERlYWRtYXU1IHBsdWNrcyB2YXIxABoBAAAAJCq+X/9/AAD08NwVAQAAAHN0cDBAAAAAAAAAAAAAAAAAAAAAAAAAAAAAAAAAAAAAAAAAAAAA
        AAAAAAAAAAAAAAAAAAAAAAAAAAAAAAAAAAAAAAAAAAAAAHN0cDFAAAAACAgECAgIBAgICAgICAgICAgICAgICAgICAgICAgICAgICAgICAgICAgICAgICAgICAgICAgI
        CAgICAgICAgICHN0cDJAAAAABAAEAAQABAABAQEBAQEBAQEBAQEBAQEBAQEBAQEBAQEBAQEBAQEBAQEBAQEBAQEBAQEBAQEBAQEBAQEBAQEBAXN0cDNAAAAABAQEBAQE
        BAQEBAQEBAQEBAQEBAQEBAQEBAQEBAQEBAQEBAQEBAQEBAQEBAQEBAQEBAQEBAQEBAQEBAQEBAQEBHN0cDRAAAAAMGBgYDBgYGBgYGBgYGBgYGBgYGBgYGBgYGBgYGBg
        YGBgYGBgYGBgYGBgYGBgYGBgYGBgYGBgYGBgYGBgYGBgYHN0cDVAAAAAAAAAAAAAAAAAAAAAAAAAAAAAAAAAAAAAAAAAAAAAAAAAAAAAAAAAAAAAAAAAAAAAAAAAAAAA
        AAAAAAAAAAAAAHByb2cSAgAAcHJncCIAAAAQCFoEAAEAfwB/AEAAAQABAAAAAAAAAAAAfwEAAAAAAAAAcGdubTAAAABDaG9yZCBEZWFkbWF1NSBwbHVja3MgdmFyMgAa
        AQAAACQqvl//fwAA9PDcFQEAAABzdHAwQAAAAAAAAAAAAAAAAAAAAAAAAAAAAAAAAAAAAAAAAAAAAAAAAAAAAAAAAAAAAAAAAAAAAAAAAAAAAAAAAAAAAAAAAABzdHAx
        QAAAAAwIDggMCA4ICAgICAgICAgICAgICAgICAgICAgICAgICAgICAgICAgICAgICAgICAgICAgICAgICAgICAgICAhzdHAyQAAAAAQABAAEAAQAAQEBAQEBAQEBAQEB
        AQEBAQEBAQEBAQEBAQEBAQEBAQEBAQEBAQEBAQEBAQEBAQEBAQEBAQEBAQFzdHAzQAAAAAQEBAQEBAQEBAQEBAQEBAQEBAQEBAQEBAQEBAQEBAQEBAQEBAQEBAQEBAQE
        BAQEBAQEBAQEBAQEBAQEBAQEBARzdHA0QAAAADBgYGAwYGBgYGBgYGBgYGBgYGBgYGBgYGBgYGBgYGBgYGBgYGBgYGBgYGBgYGBgYGBgYGBgYGBgYGBgYGBgYGBzdHA1
        QAAAAAAAAAAAAAAAAAAAAAAAAAAAAAAAAAAAAAAAAAAAAAAAAAAAAAAAAAAAAAAAAAAAAAAAAAAAAAAAAAAAAAAAAABwcm9nEgIAAHByZ3AiAAAAEBBKBAABAH8AfwBA
        AAEAAQAAAAAAAAAAAH8BAAAAAAAAAHBnbm0wAAAAUG9seXBob25pYyBvY3QuIFBsdWNrcyB2YXIxAAEAAAAkKr5f/38AAPTw3BUBAAAAc3RwMEAAAAAAAAAAAAAAAAAA
        AAAAAAAAAAAAAAAAAAAAAAAAAAAAAAAAAAAAAAAAAAAAAAAAAAAAAAAAAAAAAAAAAAAAAAAAc3RwMUAAAAAICAgMCAgICAgMCAgICAwICAgICAgICAgICAgICAgICAgI
        CAgICAgICAgICAgICAgICAgICAgICAgICAgICAgIc3RwMkAAAAAEAAAEAAAEAAAEAAAEAAQAAQEBAQEBAQEBAQEBAQEBAQEBAQEBAQEBAQEBAQEBAQEBAQEBAQEBAQEB
        AQEBAQEBc3RwM0AAAAAEBAQEBAQEBAQEBAQEBAQEBAQEBAQEBAQEBAQEBAQEBAQEBAQEBAQEBAQEBAQEBAQEBAQEBAQEBAQEBAQEBAQEc3RwNEAAAABgYGBgYGBgYGBg
        YGBgYGBgYGBgYGBgYGBgYGBgYGBgYGBgYGBgYGBgYGBgYGBgYGBgYGBgYGBgYGBgYGBgYGBgc3RwNUAAAAAAAAAAAAAAAAAAAAAAAAAAAAAAAAAAAAAAAAAAAAAAAAAA
        AAAAAAAAAAAAAAAAAAAAAAAAAAAAAAAAAAAAAAAAcHJvZxICAABwcmdwIgAAABAQSgQAAQB/AH8AQAABAAEAAAAAAAAAAAB/AQAAAAAAAABwZ25tMAAAAFBvbHlwaG9u
        aWMgb2N0LiBQbHVja3MgdmFyMgABAAAAJCq+X/9/AAD08NwVAQAAAHN0cDBAAAAAAAAAAAAAAAAAAAAAAAAAAAAAAAAAAAAAAAAAAAAAAAAAAAAAAAAAAAAAAAAAAAAA
        AAAAAAAAAAAAAAAAAAAAAHN0cDFAAAAADAgIDggIDAgIDggIDAgOCAgICAgICAgICAgICAgICAgICAgICAgICAgICAgICAgICAgICAgICAgICAgICAgICHN0cDJAAAAA
        BAAABAAABAAABAAABAAEAAEBAQEBAQEBAQEBAQEBAQEBAQEBAQEBAQEBAQEBAQEBAQEBAQEBAQEBAQEBAQEBAXN0cDNAAAAABAQEBAQEBAQEBAQEBAQEBAQEBAQEBAQE
        BAQEBAQEBAQEBAQEBAQEBAQEBAQEBAQEBAQEBAQEBAQEBAQEBAQEBHN0cDRAAAAAYGBgYGBgYGBgYGBgYGBgYGBgYGBgYGBgYGBgYGBgYGBgYGBgYGBgYGBgYGBgYGBg
        YGBgYGBgYGBgYGBgYGBgYHN0cDVAAAAAAAAAAAAAAAAAAAAAAAAAAAAAAAAAAAAAAAAAAAAAAAAAAAAAAAAAAAAAAAAAAAAAAAAAAAAAAAAAAAAAAAAAAHByb2cSAgAA
        cHJncCIAAAAQEDQEAAEAfwB/AEAAAQABAAAAAAAAAAAAfwEAAAAAAAAAcGdubTAAAABQb2x5cGhvbmljIG9jdC4gUGx1Y2tzIHZhcjMAAQAAACQqvl//fwAA9PDcFQEA
        AABzdHAwQAAAAAAAAAAAAAAAAAAAAAAAAAAAAAAAAAAAAAAAAAAAAAAAAAAAAAAAAAAAAAAAAAAAAAAAAAAAAAAAAAAAAAAAAABzdHAxQAAAAAwICA4ICAwICA4ICAwI
        DggICAgICAgICAgICAgICAgICAgICAgICAgICAgICAgICAgICAgICAgICAgICAgICAhzdHAyQAAAAAQCAgQCAgQCAgQCAgQCBAIBAQEBAQEBAQEBAQEBAQEBAQEBAQEB
        AQEBAQEBAQEBAQEBAQEBAQEBAQEBAQEBAQFzdHAzQAAAAAQEBAQEBAQEBAQEBAQEBAQEBAQEBAQEBAQEBAQEBAQEBAQEBAQEBAQEBAQEBAQEBAQEBAQEBAQEBAQEBAQE
        BARzdHA0QAAAAGBgYGBgYGBgYGBgYGBgYGBgYGBgYGBgYGBgYGBgYGBgYGBgYGBgYGBgYGBgYGBgYGBgYGBgYGBgYGBgYGBgYGBzdHA1QAAAAAAAAAAAAAAAAAAAAAAA
        AAAAAAAAAAAAAAAAAAAAAAAAAAAAAAAAAAAAAAAAAAAAAAAAAAAAAAAAAAAAAAAAAABwcm9nEgIAAHByZ3AiAAAAEBAyBAABAH8AfwBAAAEAAQAAAAAAAAAAAH8AAAAA
        AAAAAHBnbm0wAAAAQXJwIENob3JkIEdhdGVkIDAxAF//fwAAsOgcGgEAAAAkKr5f/38AAPTw3BUBAAAAc3RwMEAAAAAAAAAAAAAAAAAAAAAAAAAAAAAAAAAAAAAAAAAA
        AAAAAAAAAAAAAAAAAAAAAAAAAAAAAAAAAAAAAAAAAAAAAAAAc3RwMUAAAAAICAgICAgICAgICAgICAgICAgICAgICAgICAgICAgICAgICAgICAgICAgICAgICAgICAgI
        CAgICAgICAgICAgIc3RwMkAAAAAEBAAEBAAEBAAEBAAEAAQAAQEBAQEBAQEBAQEBAQEBAQEBAQEBAQEBAQEBAQEBAQEBAQEBAQEBAQEBAQEBAQEBc3RwM0AAAAAEBAQE
        BAQEBAQEBAQEBAQEBAQEBAQEBAQEBAQEBAQEBAQEBAQEBAQEBAQEBAQEBAQEBAQEBAQEBAQEBAQEBAQEc3RwNEAAAABgYGBgYGBgYGBgYGBgYGBgYGBgYGBgYGBgYGBg
        YGBgYGBgYGBgYGBgYGBgYGBgYGBgYGBgYGBgYGBgYGBgYGBgc3RwNUAAAAAAAAAAAAAAAAAAAAAAAAAAAAAAAAAAAAAAAAAAAAAAAAAAAAAAAAAAAAAAAAAAAAAAAAAA
        AAAAAAAAAAAAAAAAcHJvZxICAABwcmdwIgAAABAQMgQAAQB/AH8AQAABAAEAAAAAAAAAAAB/AAAAAAAAAABwZ25tMAAAAEFycCBDaG9yZCBHYXRlZCAwMgBf/38AALDo
        HBoBAAAAJCq+X/9/AAD08NwVAQAAAHN0cDBAAAAAAAAAAAAAAAAAAAAAAAAAAAAAAAAAAAAAAAAAAAAAAAAAAAAAAAAAAAAAAAAAAAAAAAAAAAAAAAAAAAAAAAAAAHN0
        cDFAAAAACAgICAgICAgICAgICAgICAgICAgICAgICAgICAgICAgICAgICAgICAgICAgICAgICAgICAgICAgICAgICAgICHN0cDJAAAAABAAEAAQABAAEAAQAAAQABAEB
        AQEBAQEBAQEBAQEBAQEBAQEBAQEBAQEBAQEBAQEBAQEBAQEBAQEBAQEBAQEBAXN0cDNAAAAABAQEBAQEBAQEBAQEBAQEBAQEBAQEBAQEBAQEBAQEBAQEBAQEBAQEBAQE
        BAQEBAQEBAQEBAQEBAQEBAQEBAQEBHN0cDRAAAAAYGBgYGBgYGBgYGBgYGBgYGBgYGBgYGBgYGBgYGBgYGBgYGBgYGBgYGBgYGBgYGBgYGBgYGBgYGBgYGBgYGBgYHN0
        cDVAAAAAAAAAAAAAAAAAAAAAAAAAAAAAAAAAAAAAAAAAAAAAAAAAAAAAAAAAAAAAAAAAAAAAAAAAAAAAAAAAAAAAAAAAAHByb2cSAgAAcHJncCIAAAAQEDIEAAEAfwB/
        AEAAAQABAAAAAAAAAAAAfwAAAAAAAAAAcGdubTAAAABBcnAgQ2hvcmQgR2F0ZWQgMDMAX/9/AACw6BwaAQAAACQqvl//fwAA9PDcFQEAAABzdHAwQAAAAAAAAAAAAAAA
        AAAAAAAAAAAAAAAAAAAAAAAAAAAAAAAAAAAAAAAAAAAAAAAAAAAAAAAAAAAAAAAAAAAAAAAAAABzdHAxQAAAAAgICAgICAgICAgICAgICAgICAgICAgICAgICAgICAgI
        CAgICAgICAgICAgICAgICAgICAgICAgICAgICAgICAhzdHAyQAAAAAQEAAQEAAQEAAQEAAQABAABAQEBAQEBAQEBAQEBAQEBAQEBAQEBAQEBAQEBAQEBAQEBAQEBAQEB
        AQEBAQEBAQFzdHAzQAAAAAQEBAQEBAQEBAQEBAQEBAQEBAQEBAQEBAQEBAQEBAQEBAQEBAQEBAQEBAQEBAQEBAQEBAQEBAQEBAQEBAQEBARzdHA0QAAAAGBgYGBgYGBg
        YGBgYGBgYGBgYGBgYGBgYGBgYGBgYGBgYGBgYGBgYGBgYGBgYGBgYGBgYGBgYGBgYGBgYGBgYGBzdHA1QAAAAAAAAAAAAAAAAAAAAAAAAAAAAAAAAAAAAAAAAAAAAAAA
        AAAAAAAAAAAAAAAAAAAAAAAAAAAAAAAAAAAAAAAAAABwcm9nEgIAAHByZ3AiAAAAEBAyBAADAH8AfwFAAAEAAQAAAAAAAAAAAH8AAAEAAAAAAHBnbm0wAAAAQXJwIDNr
        IFNTYXcgMDEgKFJhbW1zdGVpbikAGgEAAAAkKr5f/38AAPTw3BUBAAAAc3RwMEAAAAAAAAAAAAAAAAAAAAAAAAAAAAAAAAAAAAAAAAAAAAAAAAAAAAAAAAAAAAAAAAAA
        AAAAAAAAAAAAAAAAAAAAAAAAc3RwMUAAAAAICAgICAgICAgICAgICAgICAgICAgICAgICAgICAgICAgICAgICAgICAgICAgICAgICAgICAgICAgICAgICAgIc3RwMkAA
        AAABAQEBAQEBAQEBAQEBAQEBAQEBAQEBAQEBAQEBAQEBAQEBAQEBAQEBAQEBAQEBAQEBAQEBAQEBAQEBAQEBAQEBc3RwM0AAAAAQCAQQCAQQCAQQBBAIBBAIBAQEBAQE
        BAQEBAQEBAQEBAQEBAQEBAQEBAQEBAQEBAQEBAQEBAQEBAQEBAQEBAQEc3RwNEAAAABgYGBgYGBgYGBgYGBgYGBgYGBgYGBgYGBgYGBgYGBgYGBgYGBgYGBgYGBgYGBg
        YGBgYGBgYGBgYGBgYGBgYGBgc3RwNUAAAAAAAAAAAAAAAAAAAAAAAAAAAAAAAAAAAAAAAAAAAAAAAAAAAAAAAAAAAAAAAAAAAAAAAAAAAAAAAAAAAAAAAAAAcHJvZxIC
        AABwcmdwIgAAABAIOgQAAgB/AH8AQAABAAEAAAAAAAAAAAB/AAAAAAAAAABwZ25tMAAAAEFycCAzayBTdXBlclNhdyAwMgBf/38AALDoHBoBAAAAJCq+X/9/AAD08NwV
        AQAAAHN0cDBAAAAAAAAAAAAAAAAAAAAAAAAAAAAAAAAAAAAAAAAAAAAAAAAAAAAAAAAAAAAAAAAAAAAAAAAAAAAAAAAAAAAAAAAAAHN0cDFAAAAABAgIBAgIBAgICAgI
        CAgICAgICAgICAgICAgICAgICAgICAgICAgICAgICAgICAgICAgICAgICAgICAgICAgICHN0cDJAAAAAAQABAQEBAQEAAAAAAAAAAAEBAQEBAQEBAQEBAQEBAQEBAQEB
        AQEBAQEBAQEBAQEBAQEBAQEBAQEBAQEBAQEBAXN0cDNAAAAABAQQBAQIBBAEBAQEBAQEBAQEBAQEBAQEBAQEBAQEBAQEBAQEBAQEBAQEBAQEBAQEBAQEBAQEBAQEBAQE
        BAQEBHN0cDRAAAAAYGBgYGBgYGBgYGBgYGBgYGBgYGBgYGBgYGBgYGBgYGBgYGBgYGBgYGBgYGBgYGBgYGBgYGBgYGBgYGBgYGBgYHN0cDVAAAAAAAAAAAAAAAAAAAAA
        AAAAAAAAAAAAAAAAAAAAAAAAAAAAAAAAAAAAAAAAAAAAAAAAAAAAAAAAAAAAAAAAAAAAAHByb2cSAgAAcHJncCIAAAAQCDoEAAIAfwB/AEAAAQABAAAAAAAAAAAAfwAA
        AAAAAAAAcGdubTAAAABBcnAgM2sgU3VwZXJTYXcgMDMAX/9/AACw6BwaAQAAACQqvl//fwAA9PDcFQEAAABzdHAwQAAAAAAAAAAAAAAAAAAAAAAAAAAAAAAAAAAAAAAA
        AAAAAAAAAAAAAAAAAAAAAAAAAAAAAAAAAAAAAAAAAAAAAAAAAABzdHAxQAAAAAQICAQIBAgICAgICAgICAgICAgICAgICAgICAgICAgICAgICAgICAgICAgICAgICAgI
        CAgICAgICAgICAgICAhzdHAyQAAAAAEBAQEBAQEBAAAAAAAAAAABAQEBAQEBAQEBAQEBAQEBAQEBAQEBAQEBAQEBAQEBAQEBAQEBAQEBAQEBAQEBAQFzdHAzQAAAAAQQ
        CAQEBAgQBAQEBAQEBAQEBAQEBAQEBAQEBAQEBAQEBAQEBAQEBAQEBAQEBAQEBAQEBAQEBAQEBAQEBAQEBARzdHA0QAAAAGBgYGBgYGBgYGBgYGBgYGBgYGBgYGBgYGBg
        YGBgYGBgYGBgYGBgYGBgYGBgYGBgYGBgYGBgYGBgYGBgYGBgYGBzdHA1QAAAAAAAAAAAAAAAAAAAAAAAAAAAAAAAAAAAAAAAAAAAAAAAAAAAAAAAAAAAAAAAAAAAAAAA
        AAAAAAAAAAAAAAAAAABwcm9nEgIAAHByZ3AiAAAAEBA6BAADAH8AfwBAAAEAAQAAAAAAAAAAAH8AAAIAAAAAAHBnbm0wAAAAQXJwIDJrIFN1cGVyU2F3IDA0AF//fwAA
        sOgcGgEAAAAkKr5f/38AAPTw3BUBAAAAc3RwMEAAAAAAAAAAAAAAAAAAAAAAAAABAAAAAAAAAAAAAAAAAAAAAAAAAAAAAAAAAAAAAAAAAAAAAAAAAAAAAAAAAAAAAAAA
        c3RwMUAAAAAICAQIBAgICAgIBAgICAQICAgICAgICAgICAgICAgICAgICAgICAgICAgICAgICAgICAgICAgICAgICAgICAgIc3RwMkAAAAABAgEAAQABAgECAQABAgEB
        AQEBAQEBAQEBAQEBAQEBAQEBAQEBAQEBAQEBAQEBAQEBAQEBAQEBAQEBAQEBAQEBc3RwM0AAAAAEBAQEBAQEBAgEBAQEBAQEBAQEBAQEBAQEBAQEBAQEBAQEBAQEBAQE
        BAQEBAQEBAQEBAQEBAQEBAQEBAQEBAQEc3RwNEAAAABgYGBgYGBgYGBgYGBgYGBgYGBgYGBgYGBgYGBgYGBgYGBgYGBgYGBgYGBgYGBgYGBgYGBgYGBgYGBgYGBgYGBg
        c3RwNUAAAAAAAAAAAAAAAAAAAAAAAAAAAAAAAAAAAAAAAAAAAAAAAAAAAAAAAAAAAAAAAAAAAAAAAAAAAAAAAAAAAAAAAAAAcHJvZxICAABwcmdwIgAAABAQOgQAAgB/
        AH8AQAABAAEAAAAAAAAAAAB/AAACAAAAAABwZ25tMAAAAEFycCAyayBTdXBlclNhdyAwNQBf/38AALDoHBoBAAAAJCq+X/9/AAD08NwVAQAAAHN0cDBAAAAAAAAAAAAA
        AAAAAAAAAAAAAAAAAAAAAAAAAAAAAAAAAAAAAAAAAAAAAAAAAAAAAAAAAAAAAAAAAAAAAAAAAAAAAHN0cDFAAAAACAQICAQICAgIBAgIBAgIBAgICAgICAgICAgICAgI
        CAgICAgICAgICAgICAgICAgICAgICAgICAgICAgICAgICHN0cDJAAAAAAQEBAQEBAQEBAQEBAQEBAQEBAQEBAQEBAQEBAQEBAQEBAQEBAQEBAQEBAQEBAQEBAQEBAQEB
        AQEBAQEBAQEBAXN0cDNAAAAACAQEEAQEEAQIBAQQBAQQBAQEBAQEBAQEBAQEBAQEBAQEBAQEBAQEBAQEBAQEBAQEBAQEBAQEBAQEBAQEBAQEBHN0cDRAAAAAYGBgYGBg
        YGBgYGBgYGBgYGBgYGBgYGBgYGBgYGBgYGBgYGBgYGBgYGBgYGBgYGBgYGBgYGBgYGBgYGBgYGBgYHN0cDVAAAAAAAAAAAAAAAAAAAAAAAAAAAAAAAAAAAAAAAAAAAAA
        AAAAAAAAAAAAAAAAAAAAAAAAAAAAAAAAAAAAAAAAAAAAAHByb2cSAgAAcHJncCIAAAAQBDgEAAEAfwB/AEAAAQABAAAAAAAAAAAAfwAAAAAAAAAAcGdubTAAAABBcnAg
        M2sgQmVuYXNzaSBJbGx1c2lvbgCw6BwaAQAAACQqvl//fwAA9PDcFQEAAABzdHAwQAAAAAAAAAAAAAAAAAAAAAAAAAAAAAAAAAAAAAAAAAAAAAAAAAAAAAAAAAAAAAAA
        AAAAAAAAAAAAAAAAAAAAAAAAAABzdHAxQAAAAAgICAgICAgICAgICAgICAgICAgICAgICAgICAgICAgICAgICAgICAgICAgICAgICAgICAgICAgICAgICAgICAhzdHAy
        QAAAAAEBBAEBAQEBAQEBAQEBAQEBAQEBAQEBAQEBAQEBAQEBAQEBAQEBAQEBAQEBAQEBAQEBAQEBAQEBAQEBAQEBAQFzdHAzQAAAAAQIBAgEBAQEBAQEBAQEBAQEBAQE
        BAQEBAQEBAQEBAQEBAQEBAQEBAQEBAQEBAQEBAQEBAQEBAQEBAQEBAQEBARzdHA0QAAAAGBgYGBgYGBgYGBgYGBgYGBgYGBgYGBgYGBgYGBgYGBgYGBgYGBgYGBgYGBg
        YGBgYGBgYGBgYGBgYGBgYGBgYGBzdHA1QAAAAAAAAAAAAAAAAAAAAAAAAAAAAAAAAAAAAAAAAAAAAAAAAAAAAAAAAAAAAAAAAAAAAAAAAAAAAAAAAAAAAAAAAABwcm9n
        EgIAAHByZ3AiAAAAEBAyBAADAH8AfwBAAAEAAQAAAAAAAAAAAH8AAAAAAAAAAHBnbm0wAAAAQXJwIDRrIFNTYXcgMDcgKFlUIEludHJvKQAcGgEAAAAkKr5f/38AAPTw
        3BUBAAAAc3RwMEAAAAAAAAAAAAAAAAAAAAAAAAAAAAAAAAAAAAAAAAAAAAAAAAAAAAAAAAAAAAAAAAAAAAAAAAAAAAAAAAAAAAAAAAAAc3RwMUAAAAAECAgECAgICAQI
        CAQICAQICAgICAgICAgICAgICAgICAgICAgICAgICAgICAgICAgICAgICAgICAgICAgICAgIc3RwMkAAAAABAQEBAQEBAQEBAQEBAQEBAQEBAQEBAQEBAQEBAQEBAQEB
        AQEBAQEBAQEBAQEBAQEBAQEBAQEBAQEBAQEBAQEBc3RwM0AAAAAECBAEEAgQIAQgEAQECAQQBAQEBAQEBAQEBAQEBAQEBAQEBAQEBAQEBAQEBAQEBAQEBAQEBAQEBAQE
        BAQEBAQEc3RwNEAAAABgYGBgYGBgYGBgYGBgYGBgYGBgYGBgYGBgYGBgYGBgYGBgYGBgYGBgYGBgYGBgYGBgYGBgYGBgYGBgYGBgYGBgc3RwNUAAAAAAAAAAAAAAAAAA
        AAAAAAAAAAAAAAAAAAAAAAAAAAAAAAAAAAAAAAAAAAAAAAAAAAAAAAAAAAAAAAAAAAAAAAAAcHJvZxICAABwcmdwIgAAABAgPQQAAwB/AH8AQAABAAEAAAAAAAAAAAB/
        AAAAAAAAAABwZ25tMAAAAEFycCAzayBTU2F3IDA4ICgzMiBzdGVwcykAHBoBAAAAJCq+X/9/AAD08NwVAQAAAHN0cDBAAAAAAAAAAAAAAAAAAAAAAAAAAAAAAAAAAAAA
        AAAAAAAAAAAAAAAAAAAAAAAAAAAAAAAAAAAAAAAAAAAAAAAAAAAAAHN0cDFAAAAACAQIBAgECAQIBAgECAQIBAgECAQIBAgECAQIBAgECAgICAgICAgICAgICAgICAgI
        CAgICAgICAgICAgICAgICHN0cDJAAAAAAQEBAQEBAQEBAQEBAQEBAQEBAQEBAQEBAQEBAQEBAQEBAQEBAQEBAQEBAQEBAQEBAQEBAQEBAQEBAQEBAQEBAXN0cDNAAAAA
        BAQIBBAEBAQIBBAEBAQIBBAEBAQIBBAEBAQIBBAEEAgEBAQEBAQEBAQEBAQEBAQEBAQEBAQEBAQEBAQEBAQEBHN0cDRAAAAAYGBgYGBgYGBgYGBgYGBgYGBgYGBgYGBg
        YGBgYGBgYGBgYGBgYGBgYGBgYGBgYGBgYGBgYGBgYGBgYGBgYGBgYHN0cDVAAAAAAAAAAAAAAAAAAAAAAAAAAAAAAAAAAAAAAAAAAAAAAAAAAAAAAAAAAAAAAAAAAAAA
        AAAAAAAAAAAAAAAAAAAAAHByb2cSAgAAcHJncCIAAAAQEEUEAAIAfwB/AEAAAQABAAAAAAAAAAAAfwAAAAAAAAAAcGdubTAAAABBcnAgMmsgQ29tbXVuaWNhdGlvbiB2
        MQCw6BwaAQAAACQqvl//fwAA9PDcFQEAAABzdHAwQAAAAAAAAAAAAAAAAAAAAAAAAAAAAAAAAAAAAAAAAAAAAAAAAAAAAAAAAAAAAAAAAAAAAAAAAAAAAAAAAAAAAAAA
        AABzdHAxQAAAAAQECAQECAQECAQECAQECAQICAgICAgICAgICAgICAgICAgICAgICAgICAgICAgICAgICAgICAgICAgICAgICAhzdHAyQAAAAAEAAQABAQABAQABAQAB
        AQABAQEBAQEBAQEBAQEBAQEBAQEBAQEBAQEBAQEBAQEBAQEBAQEBAQEBAQEBAQEBAQFzdHAzQAAAAAQECAQECAQECAQECAQECAQEBAQEBAQEBAQEBAQEBAQEBAQEBAQE
        BAQEBAQEBAQEBAQEBAQEBAQEBAQEBAQEBARzdHA0QAAAAGBgYGBgYGBgYGBgYGBgYGBgYGBgYGBgYGBgYGBgYGBgYGBgYGBgYGBgYGBgYGBgYGBgYGBgYGBgYGBgYGBg
        YGBzdHA1QAAAAAAAAAAAAAAAAAAAAAAAAAAAAAAAAAAAAAAAAAAAAAAAAAAAAAAAAAAAAAAAAAAAAAAAAAAAAAAAAAAAAAAAAABwcm9nEgIAAHByZ3AiAAAAEBA8BAAC
        AH8AfwBAAAEAAQAAAAAAAAAAAH8AAAAAAAAAAHBnbm0wAAAAQXJwIDJrIENvbW11bmljYXRpb24gdjIAsOgcGgEAAAAkKr5f/38AAPTw3BUBAAAAc3RwMEAAAAAAAAAA
        AAAAAAAAAAAAAAAAAAAAAAAAAAAAAAAAAAAAAAAAAAAAAAAAAAAAAAAAAAAAAAAAAAAAAAAAAAAAAAAAc3RwMUAAAAACBAgCBAgCBAgCBAgCBAgECAgICAgICAgICAgI
        CAgICAgICAgICAgICAgICAgICAgICAgICAgICAgICAgICAgIc3RwMkAAAAABAQEBAQEBAQEBAQEBAQEBAQEBAQEBAQEBAQEBAQEBAQEBAQEBAQEBAQEBAQEBAQEBAQEB
        AQEBAQEBAQEBAQEBc3RwM0AAAAAEBAgEBAgEBAgEBAgEBAgEBAQEBAQEBAQEBAQEBAQEBAQEBAQEBAQEBAQEBAQEBAQEBAQEBAQEBAQEBAQEBAQEc3RwNEAAAABgYGBg
        YGBgYGBgYGBgYGBgYGBgYGBgYGBgYGBgYGBgYGBgYGBgYGBgYGBgYGBgYGBgYGBgYGBgYGBgYGBgYGBgc3RwNUAAAAAAAAAAAAAAAAAAAAAAAAAAAAAAAAAAAAAAAAAA
        AAAAAAAAAAAAAAAAAAAAAAAAAAAAAAAAAAAAAAAAAAAAAAAAcHJvZxICAABwcmdwIgAAABAQPQQAAQB/AH8AQAABAAEAAAAAAAAAAAB/AAAAAAAAAABwZ25tMAAAAEFy
        cCAyayBTdXBlclNhdyAxMSAoQmVuYXNzaSkAAAAAJCq+X/9/AAD08NwVAQAAAHN0cDBAAAAAAAAAAAAAAAAAAAAAAAAAAAAAAAAAAAAAAAAAAAAAAAAAAAAAAAAAAAAA
        AAAAAAAAAAAAAAAAAAAAAAAAAAAAAHN0cDFAAAAACAIECAIECAQIAgQIBAIIBAgCCAIIAgQIAgQIAggCBAIICAgICAgICAgICAgICAgICAgICAgICAgICAgICAgICHN0
        cDJAAAAAAQEBAQEBAQEBAQEBAQEBAQEBAQEBAQEBAQEBAQEBAQEBAQEBAQEBAQEBAQEBAQEBAQEBAQEBAQEBAQEBAQEBAXN0cDNAAAAACAQEEAQEEAQIBAQQBAQQBAgE
        BBAEBBAEBAQQBAQQBAQEBAQEBAQEBAQEBAQEBAQEBAQEBAQEBAQEBAQEBAQEBHN0cDRAAAAAYGBgYGBgYGBgYGBgYGBgYGBgYGBgYGBgYGBgYGBgYGBgYGBgYGBgYGBg
        YGBgYGBgYGBgYGBgYGBgYGBgYGBgYHN0cDVAAAAAAAAAAAAAAAAAAAAAAAAAAAAAAAAAAAAAAAAAAAAAAAAAAAAAAAAAAAAAAAAAAAAAAAAAAAAAAAAAAAAAAAAAAHBy
        b2cSAgAAcHJncCIAAAAQEDUEAAMAfwB/AEAAAQABAAAAAAAAAAAAfwAAAAAAAAAAcGdubTAAAABBcnAgMmsgU3VwZXJTYXcgMTIAX/9/AACw6BwaAQAAACQqvl//fwAA
        9PDcFQEAAABzdHAwQAAAAAAAAAAAAAAAAAAAAAAAAAAAAAAAAAAAAAAAAAAAAAAAAAAAAAAAAAAAAAAAAAAAAAAAAAAAAAAAAAAAAAAAAABzdHAxQAAAAAgCCAIIAgQI
        AgQIAggCBAIICAgICAgICAgICAgICAgICAgICAgICAgICAgICAgICAgICAgICAgICAgICAgICAhzdHAyQAAAAAEBAQEBAQEBAQEBAQEBAQEBAQEBAQEBAQEBAQEBAQEB
        AQEBAQEBAQEBAQEBAQEBAQEBAQEBAQEBAQEBAQEBAQFzdHAzQAAAABAECAQIBAQQBAQIBAgEBAQEBAQEBAQEBAQEBAQEBAQEBAQEBAQEBAQEBAQEBAQEBAQEBAQEBAQE
        BAQEBAQEBARzdHA0QAAAAGBgYGBgYGBgYGBgYGBgYGBgYGBgYGBgYGBgYGBgYGBgYGBgYGBgYGBgYGBgYGBgYGBgYGBgYGBgYGBgYGBgYGBzdHA1QAAAAAAAAAAAAAAA
        AAAAAAAAAAAAAAAAAAAAAAAAAAAAAAAAAAAAAAAAAAAAAAAAAAAAAAAAAAAAAAAAAAAAAAAAAABwcm9nEgIAAHByZ3AiAAAAEBBkBAACAH8AfwBNAAEAAQkAAAAAAAAA
        AH8AAAAAAAAAAHBnbm0wAAAAQXJwIDJrIFN1cGVyU2F3IDEzIChwaHJlYXF1ZSkAAAAkKr5f/38AAPTw3BUBAAAAc3RwMEAAAAAAAAAAAAAAAAAAAAAAAAAAAAAAAAAA
        AAAAAAAAAAAAAAAAAAAAAAAAAAAAAAAAAAAAAAAAAAAAAAAAAAAAAAAAc3RwMUAAAAAECAQECAQEBAQIBAQIBAgECAgICAgICAgICAgICAgICAgICAgICAgICAgICAgI
        CAgICAgICAgICAgICAgICAgIc3RwMkAAAAABAQEBAQABAQABAQABAQEBAQEBAQEBAQEBAQEBAQEBAQEBAQEBAQEBAQEBAQEBAQEBAQEBAQEBAQEBAQEBAQEBc3RwM0AA
        AAAECAQgCAQQBAQIBAQIBBAEBAQEBAQEBAQEBAQEBAQEBAQEBAQEBAQEBAQEBAQEBAQEBAQEBAQEBAQEBAQEBAQEc3RwNEAAAABwUEBgUFB/YEBQYGBwYFBwYGBgYGBg
        YGBgYGBgYGBgYGBgYGBgYGBgYGBgYGBgYGBgYGBgYGBgYGBgYGBgYGBgc3RwNUAAAAAAAAAAAAAAAAAAAAAAAAAAAAAAAAAAAAAAAAAAAAAAAAAAAAAAAAAAAAAAAAAA
        AAAAAAAAAAAAAAAAAAAAAAAAcHJvZxICAABwcmdwIgAAABAIHwYAAQB/AH8AQAABAAEAAAAAAAAAAAB/AAAAAAAAAABwZ25tMAAAAEFycCAzayBCZWxscyAwMQCwKb5f
        /38AALDoHBoBAAAAJCq+X/9/AAD08NwVAQAAAHN0cDBAAAAAAAAAAAAAAAAAAAAAAAAAAAAAAAAAAAAAAAAAAAAAAAAAAAAAAAAAAAAAAAAAAAAAAAAAAAAAAAAAAAAA
        AAAAAHN0cDFAAAAACAgICAgICAgICAgICAgICAgICAgICAgICAgICAgICAgICAgICAgICAgICAgICAgICAgICAgICAgICAgICAgICHN0cDJAAAAAAQEBAQEBAQEBAQEB
        AQEBAQEBAQEBAQEBAQEBAQEBAQEBAQEBAQEBAQEBAQEBAQEBAQEBAQEBAQEBAQEBAQEBAXN0cDNAAAAAEAQIBBAECAQEBAQEBAQEBAQEBAQEBAQEBAQEBAQEBAQEBAQE
        BAQEBAQEBAQEBAQEBAQEBAQEBAQEBAQEBAQEBHN0cDRAAAAAYGBgUGBgYFBgYGBgYGBgYGBgYGBgYGBgYGBgYGBgYGBgYGBgYGBgYGBgYGBgYGBgYGBgYGBgYGBgYGBg
        YGBgYHN0cDVAAAAAAAAAAAAAAAAAAAAAAAAAAAAAAAAAAAAAAAAAAAAAAAAAAAAAAAAAAAAAAAAAAAAAAAAAAAAAAAAAAAAAAAAAAHByb2cSAgAAcHJncCIAAAAQCB8G
        AAEAfwB/AEAAAQABAAAAAAAAAAAAfwAAAAAAAAAAcGdubTAAAABBcnAgM2sgQmVsbHMgMDIAsCm+X/9/AACw6BwaAQAAACQqvl//fwAA9PDcFQEAAABzdHAwQAAAAAAA
        AAAAAAAAAAAAAAAAAAAAAAAAAAAAAAAAAAAAAAAAAAAAAAAAAAAAAAAAAAAAAAAAAAAAAAAAAAAAAAAAAABzdHAxQAAAAAgICAgICAgICAgICAgICAgICAgICAgICAgI
        CAgICAgICAgICAgICAgICAgICAgICAgICAgICAgICAgICAgICAhzdHAyQAAAAAEBAQEBAQEBAQEBAQEBAQEBAQEBAQEBAQEBAQEBAQEBAQEBAQEBAQEBAQEBAQEBAQEB
        AQEBAQEBAQEBAQEBAQFzdHAzQAAAABAIBBAIBBAIBAQEBAQEBAQEBAQEBAQEBAQEBAQEBAQEBAQEBAQEBAQEBAQEBAQEBAQEBAQEBAQEBAQEBAQEBARzdHA0QAAAAGBg
        YGBgYGBgYGBgYGBgYGBgYGBgYGBgYGBgYGBgYGBgYGBgYGBgYGBgYGBgYGBgYGBgYGBgYGBgYGBgYGBgYGBzdHA1QAAAAAAAAAAAAAAAAAAAAAAAAAAAAAAAAAAAAAAA
        AAAAAAAAAAAAAAAAAAAAAAAAAAAAAAAAAAAAAAAAAAAAAAAAAABwcm9nEgIAAHByZ3AiAAAAEAhNBgADAH8AfwBNAAEAAQAAAAAAAAAAAH8AAAIAAAAAAHBnbm0wAAAA
        QXJwIDJrIFNvZnRCZWxscyAwMQD/fwAAsOgcGgEAAAAkKr5f/38AAPTw3BUBAAAAc3RwMEAAAAAAAAAAAAAAAAAAAAAAAAAAAAAAAAAAAAAAAAAAAAAAAAAAAAAAAAAA
        AAAAAAAAAAAAAAAAAAAAAAAAAAAAAAAAc3RwMUAAAAAECAgIBAgIEAgICAgICAgICAgICAgICAgICAgICAgICAgICAgICAgICAgICAgICAgICAgICAgICAgICAgICAgI
        c3RwMkAAAAABAQEBAQEBAQEBAQEBAQEBAQEBAQEBAQEBAQEBAQEBAQEBAQEBAQEBAQEBAQEBAQEBAQEBAQEBAQEBAQEBAQEBc3RwM0AAAAAEBAgQBAQIBAQEBAQEBAQE
        BAQEBAQEBAQEBAQEBAQEBAQEBAQEBAQEBAQEBAQEBAQEBAQEBAQEBAQEBAQEBAQEc3RwNEAAAABgYGBgYGBgYGBgYGBgYGBgYGBgYGBgYGBgYGBgYGBgYGBgYGBgYGBg
        YGBgYGBgYGBgYGBgYGBgYGBgYGBgYGBgc3RwNUAAAAAAAAAAAAAAAAAAAAAAAAAAAAAAAAAAAAAAAAAAAAAAAAAAAAAAAAAAAAAAAAAAAAAAAAAAAAAAAAAAAAAAAAAA
        cHJvZxICAABwcmdwIgAAABAIQgYAAwB/AH8AQAABAAEAAAAAAAAAAAB/AAACAAAAAABwZ25tMAAAAEFycCAyayBTb2Z0QmVsbHMgMDIA/38AALDoHBoBAAAAJCq+X/9/
        AAD08NwVAQAAAHN0cDBAAAAAAAAAAAAAAAAAAAAAAAAAAAAAAAAAAAAAAAAAAAAAAAAAAAAAAAAAAAAAAAAAAAAAAAAAAAAAAAAAAAAAAAAAAHN0cDFAAAAABBAICAQQ
        CAgICAgICAgICAgICAgICAgICAgICAgICAgICAgICAgICAgICAgICAgICAgICAgICAgICAgICAgICHN0cDJAAAAAAQEBAQEBAQEBAQEBAQEBAQEBAQEBAQEBAQEBAQEB
        AQEBAQEBAQEBAQEBAQEBAQEBAQEBAQEBAQEBAQEBAQEBAXN0cDNAAAAABAQECAQEBBAEBAQEBAQEBAQEBAQEBAQEBAQEBAQEBAQEBAQEBAQEBAQEBAQEBAQEBAQEBAQE
        BAQEBAQEBAQEBHN0cDRAAAAAYGBgYGBgYGBgYGBgYGBgYGBgYGBgYGBgYGBgYGBgYGBgYGBgYGBgYGBgYGBgYGBgYGBgYGBgYGBgYGBgYGBgYHN0cDVAAAAAAAAAAAAA
        AAAAAAAAAAAAAAAAAAAAAAAAAAAAAAAAAAAAAAAAAAAAAAAAAAAAAAAAAAAAAAAAAAAAAAAAAAAAAHByb2cSAgAAcHJncCIAAAAQEEgEAAEAfwB/AEAAAQABAAAAAAAA
        AAAAfwAAAAAAAAAAcGdubTAAAABTZXEgMmsgQWNpZE1vbm8gMDEAX/9/AACw6BwaAQAAACQqvl//fwAA9PDcFQEAAABzdHAwQAAAAAAAAAAAAAAAAAAAAAAAAQAAAAAA
        AAAAAAAAAAAAAAAAAAAAAAAAAAAAAAAAAAAAAAAAAAAAAAAAAAAAAAAAAABzdHAxQAAAAAQIBAQIBAgICAQICAgECAgICAgICAgICAgICAgICAgICAgICAgICAgICAgI
        CAgICAgICAgICAgICAgICAgICAhzdHAyQAAAAAEAAQAAAQMAAQEAAQABAwABAQEBAQEBAQEBAQEBAQEBAQEBAQEBAQEBAQEBAQEBAQEBAQEBAQEBAQEBAQEBAQFzdHAz
        QAAAAAQEBAQEBAQEBAQEBAQEBAQEBAQEBAQEBAQEBAQEBAQEBAQEBAQEBAQEBAQEBAQEBAQEBAQEBAQEBAQEBAQEBARzdHA0QAAAAGBgYGBgYGBgYGBgYGBgYGBgYGBg
        YGBgYGBgYGBgYGBgYGBgYGBgYGBgYGBgYGBgYGBgYGBgYGBgYGBgYGBgYGBzdHA1QAAAAAAAAAAAAAAAAAAAAAAAAAAAAAAAAAAAAAAAAAAAAAAAAAAAAAAAAAAAAAAA
        AAAAAAAAAAAAAAAAAAAAAAAAAABwcm9nEgIAAHByZ3AiAAAAEBBCBAACAH8AfwBAAAEAAQAAAAAAAAAAAH8AAAIAAAAAAHBnbm0wAAAAU2VxIDJrIEFjaWRNb25vIDAy
        AF//fwAAsOgcGgEAAAAkKr5f/38AAPTw3BUBAAAAc3RwMEAAAAAAAAAAAAAABwAAAAAAAAAAAAAAAAAAAAAAAAAAAAAAAAAAAAAAAAAAAAAAAAAAAAAAAAAAAAAAAAAA
        AAAAAAAAc3RwMUAAAAAECAgECAgIBAgEBAgECAgECAgICAgICAgICAgICAgICAgICAgICAgICAgICAgICAgICAgICAgICAgICAgICAgIc3RwMkAAAAABAAABAAABAwAB
        AwABAgEDAQEBAQEBAQEBAQEBAQEBAQEBAQEBAQEBAQEBAQEBAQEBAQEBAQEBAQEBAQEBAQEBc3RwM0AAAAAEBAQEBAQEBAQECAQEBAQIBAQEBAQEBAQEBAQEBAQEBAQE
        BAQEBAQEBAQEBAQEBAQEBAQEBAQEBAQEBAQEBAQEc3RwNEAAAABgYGBgYGBgYGBgYGBgYGBgYGBgYGBgYGBgYGBgYGBgYGBgYGBgYGBgYGBgYGBgYGBgYGBgYGBgYGBg
        YGBgYGBgc3RwNUAAAAAAAAAAAAAAAAAAAAAAAAAAAAAAAAAAAAAAAAAAAAAAAAAAAAAAAAAAAAAAAAAAAAAAAAAAAAAAAAAAAAAAAAAAcHJvZxICAABwcmdwIgAAABAQ
        OgQAAQB/AH8AQAABAAEAAAAAAAAAAAB/AAAAAAAAAABwZ25tMAAAAFNlcSAyayBBY2lkTW9ubyAwMwBf/38AALDoHBoBAAAAJCq+X/9/AAD08NwVAQAAAHN0cDBAAAAA
        AAAAAAAAAAAAAAAAAAAAAAAAAAAAAAAAAAAAAAAAAAAAAAAAAAAAAAAAAAAAAAAAAAAAAAAAAAAAAAAAAAAAAHN0cDFAAAAACAQIEAQICAgECAgIBAgECAgICAgICAgI
        CAgICAgICAgICAgICAgICAgICAgICAgICAgICAgICAgICAgICAgICHN0cDJAAAAAAQEBAwEBAwMBAwEDAQIBAQEBAQEBAQEBAQEBAQEBAQEBAQEBAQEBAQEBAQEBAQEB
        AQEBAQEBAQEBAQEBAQEBAXN0cDNAAAAABAQEBAQECAQEBAQIBAQECAQEBAQEBAQEBAQEBAQEBAQEBAQEBAQEBAQEBAQEBAQEBAQEBAQEBAQEBAQEBAQEBHN0cDRAAAAA
        YGBgYGBgYGBgYGBgYGBgYGBgYGBgYGBgYGBgYGBgYGBgYGBgYGBgYGBgYGBgYGBgYGBgYGBgYGBgYGBgYGBgYHN0cDVAAAAAAAAAAAAAAAAAAAAAAAAAAAAAAAAAAAAA
        AAAAAAAAAAAAAAAAAAAAAAAAAAAAAAAAAAAAAAAAAAAAAAAAAAAAAHByb2cSAgAAcHJncCIAAAAQEDoEAAEAfwB/AEAAAQABAAAAAAAAAAAAfwAAAAAAAAAAcGdubTAA
        AABTZXEgMmsgQWNpZE1vbm8gMDQAX/9/AACw6BwaAQAAACQqvl//fwAA9PDcFQEAAABzdHAwQAAAAAAAAAAAAAAAAAAAAAAAAQAAAAAAAAAAAAAAAAAAAAAAAAAAAAAA
        AAAAAAAAAAAAAAAAAAAAAAAAAAAAAAAAAABzdHAxQAAAAAgQCAQICAQICAgECAQICAQICAgICAgICAgICAgICAgICAgICAgICAgICAgICAgICAgICAgICAgICAgICAgI
        CAhzdHAyQAAAAAEBAwEBAwEDAQMBAQEBAQEBAQEBAQEBAQEBAQEBAQEBAQEBAQEBAQEBAQEBAQEBAQEBAQEBAQEBAQEBAQEBAQFzdHAzQAAAAAQEBAQIBAQEBAgEBAQI
        BAQEBAQEBAQEBAQEBAQEBAQEBAQEBAQEBAQEBAQEBAQEBAQEBAQEBAQEBAQEBAQEBARzdHA0QAAAAGBgYGBgYGBgYGBgYGBgYGBgYGBgYGBgYGBgYGBgYGBgYGBgYGBg
        YGBgYGBgYGBgYGBgYGBgYGBgYGBgYGBgYGBzdHA1QAAAAAAAAAAAAAAAAAAAAAAAAAAAAAAAAAAAAAAAAAAAAAAAAAAAAAAAAAAAAAAAAAAAAAAAAAAAAAAAAAAAAAAA
        AABwcm9nEgIAAHByZ3AiAAAAEARIBAABAH8AfwBAAAEAAQAAAAAAAAAAAH8AAAAAAAAAAHBnbm0wAAAAQmFzcyAxayBTaW1wbGUgMDEAvl//fwAAsOgcGgEAAAAkKr5f
        /38AAPTw3BUBAAAAc3RwMEAAAAAAAAAAAAAAAAAAAAAAAAAAAAAAAAAAAAAAAAAAAAAAAAAAAAAAAAAAAAAAAAAAAAAAAAAAAAAAAAAAAAAAAAAAc3RwMUAAAAAEBAgI
        CAgICAgICAgICAgICAgICAgICAgICAgICAgICAgICAgICAgICAgICAgICAgICAgICAgICAgICAgICAgIc3RwMkAAAAABAgEBAQEBAQEBAQEBAQEBAQEBAQEBAQEBAQEB
        AQEBAQEBAQEBAQEBAQEBAQEBAQEBAQEBAQEBAQEBAQEBAQEBc3RwM0AAAAAEBAQEBAQEBAQEBAQEBAQEBAQEBAQEBAQEBAQEBAQEBAQEBAQEBAQEBAQEBAQEBAQEBAQE
        BAQEBAQEBAQEBAQEc3RwNEAAAABgYGBgYGBgYGBgYGBgYGBgYGBgYGBgYGBgYGBgYGBgYGBgYGBgYGBgYGBgYGBgYGBgYGBgYGBgYGBgYGBgYGBgc3RwNUAAAAAAAAAA
        AAAAAAAAAAAAAAAAAAAAAAAAAAAAAAAAAAAAAAAAAAAAAAAAAAAAAAAAAAAAAAAAAAAAAAAAAAAAAAAAcHJvZxICAABwcmdwIgAAABAESAQAAQB/AH8AQAABAAEAAAAA
        AAAAAAB/AAAAAAAAAABwZ25tMAAAAEJhc3MgMWsgU2ltcGxlIDAyAL5f/38AALDoHBoBAAAAJCq+X/9/AAD08NwVAQAAAHN0cDBAAAAAAAAAAAAAAAAAAAAAAAAAAAAA
        AAAAAAAAAAAAAAAAAAAAAAAAAAAAAAAAAAAAAAAAAAAAAAAAAAAAAAAAAAAAAHN0cDFAAAAABAQICAgICAgICAgICAgICAgICAgICAgICAgICAgICAgICAgICAgICAgI
        CAgICAgICAgICAgICAgICAgICAgICHN0cDJAAAAAAQEBAQEBAQEBAQEBAQEBAQEBAQEBAQEBAQEBAQEBAQEBAQEBAQEBAQEBAQEBAQEBAQEBAQEBAQEBAQEBAQEBAXN0
        cDNAAAAABAQEBAQEBAQEBAQEBAQEBAQEBAQEBAQEBAQEBAQEBAQEBAQEBAQEBAQEBAQEBAQEBAQEBAQEBAQEBAQEBAQEBHN0cDRAAAAAYGBgYGBgYGBgYGBgYGBgYGBg
        YGBgYGBgYGBgYGBgYGBgYGBgYGBgYGBgYGBgYGBgYGBgYGBgYGBgYGBgYGBgYHN0cDVAAAAAAAAAAAAAAAAAAAAAAAAAAAAAAAAAAAAAAAAAAAAAAAAAAAAAAAAAAAAA
        AAAAAAAAAAAAAAAAAAAAAAAAAAAAAHByb2cSAgAAcHJncCIAAAAQBEgEAAEAfwB/AEAAAQABAAAAAAAAAAAAfwAAAAAAAAAAcGdubTAAAABCYXNzIDFrIFNpbXBsZSAw
        MwC+X/9/AACw6BwaAQAAACQqvl//fwAA9PDcFQEAAABzdHAwQAAAAAAAAAAAAAAAAAAAAAAAAAAAAAAAAAAAAAAAAAAAAAAAAAAAAAAAAAAAAAAAAAAAAAAAAAAAAAAA
        AAAAAAAAAABzdHAxQAAAAAQECAgICAgICAgICAgICAgICAgICAgICAgICAgICAgICAgICAgICAgICAgICAgICAgICAgICAgICAgICAgICAhzdHAyQAAAAAECAQIBAQEB
        AQEBAQEBAQEBAQEBAQEBAQEBAQEBAQEBAQEBAQEBAQEBAQEBAQEBAQEBAQEBAQEBAQEBAQEBAQFzdHAzQAAAAAQEBAQEBAQEBAQEBAQEBAQEBAQEBAQEBAQEBAQEBAQE
        BAQEBAQEBAQEBAQEBAQEBAQEBAQEBAQEBAQEBAQEBARzdHA0QAAAAGBgYGBgYGBgYGBgYGBgYGBgYGBgYGBgYGBgYGBgYGBgYGBgYGBgYGBgYGBgYGBgYGBgYGBgYGBg
        YGBgYGBgYGBzdHA1QAAAAAAAAAAAAAAAAAAAAAAAAAAAAAAAAAAAAAAAAAAAAAAAAAAAAAAAAAAAAAAAAAAAAAAAAAAAAAAAAAAAAAAAAABwcm9nEgIAAHByZ3AiAAAA
        EARIBAABAH8AfwBAAAEAAQAAAAAAAAAAAH8AAAAAAAAAAHBnbm0wAAAAQmFzcyAxayBTaW1wbGUgMDQAvl//fwAAsOgcGgEAAAAkKr5f/38AAPTw3BUBAAAAc3RwMEAA
        AAAAAAAAAAAAAAAAAAAAAAAAAAAAAAAAAAAAAAAAAAAAAAAAAAAAAAAAAAAAAAAAAAAAAAAAAAAAAAAAAAAAAAAAc3RwMUAAAAAICAgICAgICAgICAgICAgICAgICAgI
        CAgICAgICAgICAgICAgICAgICAgICAgICAgICAgICAgICAgICAgICAgIc3RwMkAAAAAAAAEAAQEBAQEBAQEBAQEBAQEBAQEBAQEBAQEBAQEBAQEBAQEBAQEBAQEBAQEB
        AQEBAQEBAQEBAQEBAQEBAQEBc3RwM0AAAAAEBAQEBAQEBAQEBAQEBAQEBAQEBAQEBAQEBAQEBAQEBAQEBAQEBAQEBAQEBAQEBAQEBAQEBAQEBAQEBAQEBAQEc3RwNEAA
        AABgYGBgYGBgYGBgYGBgYGBgYGBgYGBgYGBgYGBgYGBgYGBgYGBgYGBgYGBgYGBgYGBgYGBgYGBgYGBgYGBgYGBgc3RwNUAAAAAAAAAAAAAAAAAAAAAAAAAAAAAAAAAA
        AAAAAAAAAAAAAAAAAAAAAAAAAAAAAAAAAAAAAAAAAAAAAAAAAAAAAAAAcHJvZxICAABwcmdwIgAAABAIZAQAAQB/AH8AQAABAAEAAAAAAAAAAAB/AAAAAAAAAABwZ25t
        MAAAAEJhc3MgMWsgRHJpZnQgb2ZmYmVhdAAAALDoHBoBAAAAJCq+X/9/AAD08NwVAQAAAHN0cDBAAAAAAAAAAAAAAAAAAAAAAAAAAAAAAAAAAAAAAAAAAAAAAAAAAAAA
        AAAAAAAAAAAAAAAAAAAAAAAAAAAAAAAAAAAAAHN0cDFAAAAACAgICAgICAgICAgICAgICAgICAgICAgICAgICAgICAgICAgICAgICAgICAgICAgICAgICAgICAgICAgI
        CAgICHN0cDJAAAAAAAAAAQAAAQIAAAABAAABAgEBAQEBAQEBAQEBAQEBAQEBAQEBAQEBAQEBAQEBAQEBAQEBAQEBAQEBAQEBAQEBAXN0cDNAAAAABAQEBAQEBAQEBAQE
        BAQEBAQEBAQEBAQEBAQEBAQEBAQEBAQEBAQEBAQEBAQEBAQEBAQEBAQEBAQEBAQEBAQEBHN0cDRAAAAAYGBgYGBgYGBgYGBgYGBgYGBgYGBgYGBgYGBgYGBgYGBgYGBg
        YGBgYGBgYGBgYGBgYGBgYGBgYGBgYGBgYGBgYHN0cDVAAAAAAAAAAAAAAAAAAAAAAAAAAAAAAAAAAAAAAAAAAAAAAAAAAAAAAAAAAAAAAAAAAAAAAAAAAAAAAAAAAAAA
        AAAAAHByb2cSAgAAcHJncCIAAAAQCF8EAAEAfwB/AEAAAQABAAAAAAAAAAAAfwAAAAAAAAAAcGdubTAAAABCYXNzIDFrIFRyaXBsZSBkcmlmdCBvZmZiZWF0AAAAACQq
        vl//fwAA9PDcFQEAAABzdHAwQAAAAAAAAAAAAAAAAAAAAAAAAAAAAAAAAAAAAAAAAAAAAAAAAAAAAAAAAAAAAAAAAAAAAAAAAAAAAAAAAAAAAAAAAABzdHAxQAAAAAgI
        CAgICAgICAgICAgICAgICAgICAgICAgICAgICAgICAgICAgICAgICAgICAgICAgICAgICAgICAgICAgICAhzdHAyQAAAAAABAAEAAAECAQEBAQEBAQEBAQEBAQEBAQEB
        AQEBAQEBAQEBAQEBAQEBAQEBAQEBAQEBAQEBAQEBAQEBAQEBAQFzdHAzQAAAAAQEBAQEBAQEBAQEBAQEBAQEBAQEBAQEBAQEBAQEBAQEBAQEBAQEBAQEBAQEBAQEBAQE
        BAQEBAQEBAQEBAQEBARzdHA0QAAAAGBgYGBgYGBgYGBgYGBgYGBAQEBAQEBAQEBAQEBAQEBAQEBAQEBAQEBAQEBAQEBAQEBAQEBAQEBAQEBAQEBAQEBzdHA1QAAAAAAA
        AAAAAAAAAAAAAAAAAAAAAAAAAAAAAAAAAAAAAAAAAAAAAAAAAAAAAAAAAAAAAAAAAAAAAAAAAAAAAAAAAABwcm9nEgIAAHByZ3AiAAAAEBBIBAABAH8AfwBAAAEAAQAA
        AAAAAAAAAH8AAAAAAAAAAHBnbm0wAAAAQmFzcyAxayBUZWNobm8gMDEAvl//fwAAsOgcGgEAAAAkKr5f/38AAPTw3BUBAAAAc3RwMEAAAAAAAAAAAAAAAAAAAAAAAAAA
        AAAAAAAAAAAAAAAAAAAAAAAAAAAAAAAAAAAAAAAAAAAAAAAAAAAAAAAAAAAAAAAAc3RwMUAAAAAICAgICAgICAgICAgICAgICAgICAgICAgICAgICAgICAgICAgICAgI
        CAgICAgICAgICAgICAgICAgICAgICAgIc3RwMkAAAAABAQABAQABAQABAQABAAEAAQEBAQEBAQEBAQEBAQEBAQEBAQEBAQEBAQEBAQEBAQEBAQEBAQEBAQEBAQEBAQEB
        c3RwM0AAAAAEBAQEBAQEBAQEBAQEBAQEBAQEBAQEBAQEBAQEBAQEBAQEBAQEBAQEBAQEBAQEBAQEBAQEBAQEBAQEBAQEBAQEc3RwNEAAAABgYGBgYGBgYGBgYGBgYGBg
        YGBgYGBgYGBgYGBgYGBgYGBgYGBgYGBgYGBgYGBgYGBgYGBgYGBgYGBgYGBgYGBgc3RwNUAAAAAAAAAAAAAAAAAAAAAAAAAAAAAAAAAAAAAAAAAAAAAAAAAAAAAAAAAA
        AAAAAAAAAAAAAAAAAAAAAAAAAAAAAAAAcHJvZxICAABwcmdwIgAAABAgSAQAAQB/AH8AQAABAAEAAAAAAAAAAAB/AAAAAAAAAABwZ25tMAAAAEJhc3MgMWsgVGVjaG5v
        IDAyICgzMiBzdGVwcykAAAAAJCq+X/9/AAD08NwVAQAAAHN0cDBAAAAAAAAAAAAAAAAAAAAAAAAAAAAAAAAAAAAAAAAAAAAAAAAAAAAAAAAAAAAAAAAAAAAAAAAAAAAA
        AAAAAAAAAAAAAHN0cDFAAAAACAgICAgICAgICAgICAgICAgICAgICAgICAgICAgICAgICAgICAgICAgICAgICAgICAgICAgICAgICAgICAgICHN0cDJAAAAAAAABAAAA
        AQAAAAEAAAABAAAAAQAAAAEAAAABAAABAAEBAQEBAQEBAQEBAQEBAQEBAQEBAQEBAQEBAQEBAQEBAXN0cDNAAAAABAQEBAQEBAQEBAQEBAQEBAQEBAQEBAQEBAQEBAQE
        BAQEBAQEBAQEBAQEBAQEBAQEBAQEBAQEBAQEBAQEBAQEBHN0cDRAAAAAYGBgYGBgYGBgYGBgYGBgYGBgYGBgYGBgYGBgYGBgYGBgYGBgYGBgYGBgYGBgYGBgYGBgYGBg
        YGBgYGBgYGBgYHN0cDVAAAAAAAAAAAAAAAAAAAAAAAAAAAAAAAAAAAAAAAAAAAAAAAAAAAAAAAAAAAAAAAAAAAAAAAAAAAAAAAAAAAAAAAAAAHByb2cSAgAAcHJncCIA
        AAAQEE8EAAIAfwB/AEAAAQABAAAAAAAAAAAAfwAAAAAAAAAAcGdubTAAAABCYXNzIDJrIFRlY2hubyAwMwC+X/9/AACw6BwaAQAAACQqvl//fwAA9PDcFQEAAABzdHAw
        QAAAAAAAAAAAAAAAAAAAAAAAAAAAAAAAAAAAAAAAAAAAAAAAAAAAAAAAAAAAAAAAAAAAAAAAAAAAAAAAAAAAAAAAAABzdHAxQAAAAAgICAgICAgICAgICAgICAgICAgI
        CAgICAgICAgICAgICAgICAgICAgICAgICAgICAgICAgICAgICAgICAgICAhzdHAyQAAAAAEBAQEBAAEAAQABAAEAAQABAQEBAQEBAQEBAQEBAQEBAQEBAQEBAQEBAQEB
        AQEBAQEBAQEBAQEBAQEBAQEBAQFzdHAzQAAAAAQEBAQEBAQEBAQEBAQECAQEBAQEBAQEBAQEBAQEBAQEBAQEBAQEBAQEBAQEBAQEBAQEBAQEBAQEBAQEBAQEBARzdHA0
        QAAAAGBgYGBgYGBgYGBgYGBgYGBgYGBgYGBgYGBgYGBgYGBgYGBgYGBgYGBgYGBgYGBgYGBgYGBgYGBgYGBgYGBgYGBzdHA1QAAAAAAAAAAAAAAAAAAAAAAAAAAAAAAA
        AAAAAAAAAAAAAAAAAAAAAAAAAAAAAAAAAAAAAAAAAAAAAAAAAAAAAAAAAABwcm9nEgIAAHByZ3AiAAAAEBBEBAACAH8AfwBAAAEAAQAAAAAAAAAAAH8AAAAAAAAAAHBn
        bm0wAAAAQmFzcyAzayBDb21wbGV4IDEtMQD/fwAAsOgcGgEAAAAkKr5f/38AAPTw3BUBAAAAc3RwMEAAAAAAAAAAAAAAAAAAAAAAAAAAAAAAAAAAAAAAAAAAAAAAAAAA
        AAAAAAAAAAAAAAAAAAAAAAAAAAAAAAAAAAAAAAAAc3RwMUAAAAAICAgICAgICAgICBAICAgICAgICAgICAgICAgICAgICAgICAgICAgICAgICAgICAgICAgICAgICAgI
        CAgICAgIc3RwMkAAAAABAAEAAAABAAABAgEBAgAAAQEBAQEBAQEBAQEBAQEBAQEBAQEBAQEBAQEBAQEBAQEBAQEBAQEBAQEBAQEBAQEBc3RwM0AAAAAEBAQEBAQEBAQE
        BAQEBAQEBAQEBAQEBAQEBAQEBAQEBAQEBAQEBAQEBAQEBAQEBAQEBAQEBAQEBAQEBAQEBAQEc3RwNEAAAABgYGBgYGBgYGBgYGBgYGBgYGBgYGBgYGBgYGBgYGBgYGBg
        YGBgYGBgYGBgYGBgYGBgYGBgYGBgYGBgYGBgYGBgc3RwNUAAAAAAAAAAAAAAAAAAAAAAAAAAAAAAAAAAAAAAAAAAAAAAAAAAAAAAAAAAAAAAAAAAAAAAAAAAAAAAAAAA
        AAAAAAAAcHJvZxICAABwcmdwIgAAABAMRQUAAgB/AH8AQAABAAEAAAAAAAAAAAB/AAAAAAAAAABwZ25tMAAAAEJhc3MgM2sgQ29tcGxleCAxLTIA/38AALDoHBoBAAAA
        JCq+X/9/AAD08NwVAQAAAHN0cDBAAAAAAAAAAAAAAAAAAAAAAAAAAAAAAAAAAAAAAAAAAAAAAAAAAAAAAAAAAAAAAAAAAAAAAAAAAAAAAAAAAAAAAAAAAHN0cDFAAAAA
        CAgICAgICAgICAgICAgICAgICAgICAgICAgICAgICAgICAgICAgICAgICAgICAgICAgICAgICAgICAgICAgICHN0cDJAAAAAAQIBAgECAQIBAgECAQEBAQEBAQEBAQEB
        AQEBAQEBAQEBAQEBAQEBAQEBAQEBAQEBAQEBAQEBAQEBAQEBAQEBAXN0cDNAAAAACAgICAgIEBAQEBAQBAQEBAQEBAQEBAQEBAQEBAQEBAQEBAQEBAQEBAQEBAQEBAQE
        BAQEBAQEBAQEBAQEBAQEBHN0cDRAAAAAYGBgYGBgYGBgYGBgYGBgYGBgYGBgYGBgYGBgYGBgYGBgYGBgYGBgYGBgYGBgYGBgYGBgYGBgYGBgYGBgYGBgYHN0cDVAAAAA
        AAAAAAAAAAAAAAAAAAAAAAAAAAAAAAAAAAAAAAAAAAAAAAAAAAAAAAAAAAAAAAAAAAAAAAAAAAAAAAAAAAAAAHByb2cSAgAAcHJncCIAAAAQDE0FAAIAfwB/AEAAAQAB
        AAAAAAAAAAAAfwAAAAAAAAAAcGdubTAAAABCYXNzIDNrIENvbXBsZXggMS0zAP9/AACw6BwaAQAAACQqvl//fwAA9PDcFQEAAABzdHAwQAAAAAAAAAAAAAAAAAAAAAAA
        AAAAAAAAAAAAAAAAAAAAAAAAAAAAAAAAAAAAAAAAAAAAAAAAAAAAAAAAAAAAAAAAAABzdHAxQAAAAAgICAgICAgICAgICAgICAgICAgICAgICAgICAgICAgICAgICAgI
        CAgICAgICAgICAgICAgICAgICAgICAgICAhzdHAyQAAAAAEBAQEBAQEBAQEBAQEBAQEBAQEBAQEBAQEBAQEBAQEBAQEBAQEBAQEBAQEBAQEBAQEBAQEBAQEBAQEBAQEB
        AQFzdHAzQAAAAAgICAgICBAQEBAQEAQEBAQEBAQEBAQEBAQEBAQEBAQEBAQEBAQEBAQEBAQEBAQEBAQEBAQEBAQEBAQEBAQEBARzdHA0QAAAAGBgYGBgYGBgYGBgYGBg
        YGBgYGBgYGBgYGBgYGBgYGBgYGBgYGBgYGBgYGBgYGBgYGBgYGBgYGBgYGBgYGBgYGBzdHA1QAAAAAAAAAAAAAAAAAAAAAAAAAAAAAAAAAAAAAAAAAAAAAAAAAAAAAAA
        AAAAAAAAAAAAAAAAAAAAAAAAAAAAAAAAAABwcm9nEgIAAHByZ3AiAAAAEAhNBAABAH8AfwBAAAEAAQAAAAAAAAAAAH8AAAAAAAAAAHBnbm0wAAAAQmFzcyAxayBUcmFu
        Y2UgMDEAvl//fwAAsOgcGgEAAAAkKr5f/38AAPTw3BUBAAAAc3RwMEAAAAAAAAAAAAAAAAAAAAAAAAAAAAAAAAAAAAAAAAAAAAAAAAAAAAAAAAAAAAAAAAAAAAAAAAAA
        AAAAAAAAAAAAAAAAc3RwMUAAAAAICAgICAgICAgICAgICAgICAgICAgICAgICAgICAgICAgICAgICAgICAgICAgICAgICAgICAgICAgICAgICAgIc3RwMkAAAAAAAAEB
        AAABAAEBAQEBAQEBAQEBAQEBAQEBAQEBAQEBAQEBAQEBAQEBAQEBAQEBAQEBAQEBAQEBAQEBAQEBAQEBc3RwM0AAAAAEBAQEBAQEBAQEBAQEBAQEBAQEBAQEBAQEBAQE
        BAQEBAQEBAQEBAQEBAQEBAQEBAQEBAQEBAQEBAQEBAQEBAQEc3RwNEAAAABgYGBgYGBgYGBgYGBgYGBgYGBgYGBgYGBgYGBgYGBgYGBgYGBgYGBgYGBgYGBgYGBgYGBg
        YGBgYGBgYGBgYGBgc3RwNUAAAAAAAAAAAAAAAAAAAAAAAAAAAAAAAAAAAAAAAAAAAAAAAAAAAAAAAAAAAAAAAAAAAAAAAAAAAAAAAAAAAAAAAAAAcHJvZxICAABwcmdw
        IgAAABAIQwQAAQB/AH8AQAABAAEAAAAAAAAAAAB/AAAAAAAAAABwZ25tMAAAAEJhc3MgMWsgVHJhbmNlIDAyAL5f/38AALDoHBoBAAAAJCq+X/9/AAD08NwVAQAAAHN0
        cDBAAAAAAAAAAAAAAAAAAAAAAAAAAAAAAAAAAAAAAAAAAAAAAAAAAAAAAAAAAAAAAAAAAAAAAAAAAAAAAAAAAAAAAAAAAHN0cDFAAAAACBAIEAgIEAgICAgICAgICAgI
        CAgICAgICAgICAgICAgICAgICAgICAgICAgICAgICAgICAgICAgICAgICAgICHN0cDJAAAAAAAEBAQABAQEBAQEBAQEBAQEBAQEBAQEBAQEBAQEBAQEBAQEBAQEBAQEB
        AQEBAQEBAQEBAQEBAQEBAQEBAQEBAXN0cDNAAAAABAQEBAQEBAQEBAQEBAQEBAQEBAQEBAQEBAQEBAQEBAQEBAQEBAQEBAQEBAQEBAQEBAQEBAQEBAQEBAQEBAQEBHN0
        cDRAAAAAYGBgYGBgYGBgYGBgYGBgYGBgYGBgYGBgYGBgYGBgYGBgYGBgYGBgYGBgYGBgYGBgYGBgYGBgYGBgYGBgYGBgYHN0cDVAAAAAAAAAAAAAAAAAAAAAAAAAAAAA
        AAAAAAAAAAAAAAAAAAAAAAAAAAAAAAAAAAAAAAAAAAAAAAAAAAAAAAAAAAAAAHByb2cSAgAAcHJncCIAAAAQEDIEAAEAfwB/AkAAAQABAAAAAAAAAAAAfwAAAAAAAAAA
        cGdubTAAAABCYXNzIDJrIFRyYW5jZSAwMwC+X/9/AACw6BwaAQAAACQqvl//fwAA9PDcFQEAAABzdHAwQAAAAAAAAAAAAAAAAAAAAAAAAAAAAAAAAAAAAAAAAAAAAAAA
        AAAAAAAAAAAAAAAAAAAAAAAAAAAAAAAAAAAAAAAAAABzdHAxQAAAABAIEBAICBAIEAgQEAgIEAgICAgICAgICAgICAgICAgICAgICAgICAgICAgICAgICAgICAgICAgI
        CAgICAgICAhzdHAyQAAAAAECAQEBAgEBAQIBAQECAQEBAQEBAQEBAQEBAQEBAQEBAQEBAQEBAQEBAQEBAQEBAQEBAQEBAQEBAQEBAQEBAQFzdHAzQAAAAAgEBAQEBAQE
        BAQEBAQEBAQEBAQEBAQEBAQEBAQEBAQEBAQEBAQEBAQEBAQEBAQEBAQEBAQEBAQEBAQEBAQEBARzdHA0QAAAAGBgYGBgYGBgYGBgYGBgYGBgYGBgYGBgYGBgYGBgYGBg
        YGBgYGBgYGBgYGBgYGBgYGBgYGBgYGBgYGBgYGBgYGBzdHA1QAAAAAAAAAAAAAAAAAAAAAAAAAAAAAAAAAAAAAAAAAAAAAAAAAAAAAAAAAAAAAAAAAAAAAAAAAAAAAAA
        AAAAAAAAAABwcm9nEgIAAHByZ3AiAAAAEBBdBAACAH8AfwJAAAEAAQAAAAAAAAAAAH8AAAAAAAAAAHBnbm0wAAAAQmFzcyAyayBETSBRdWVzdGlvbiBvZiB0aW1lAAEA
        AAAkKr5f/38AAPTw3BUBAAAAc3RwMEAAAAAAAAAAAAAAAAAAAAAAAAAAAAAAAAAAAAAAAAAAAAAAAAAAAAAAAAAAAAAAAAAAAAAAAAAAAAAAAAAAAAAAAAAAc3RwMUAA
        AAAICAgICAgICAgICAgICAgICAgICAgICAgICAgICAgICAgICAgICAgICAgICAgICAgICAgICAgICAgICAgICAgIc3RwMkAAAAABAAEAAQABAAEAAQABAAEAAQEBAQEB
        AQEBAQEBAQEBAQEBAQEBAQEBAQEBAQEBAQEBAQEBAQEBAQEBAQEBAQEBc3RwM0AAAAAEBAQEBAQEBAQEBAQIBAQEBAQEBAQEBAQEBAQEBAQEBAQEBAQEBAQEBAQEBAQE
        BAQEBAQEBAQEBAQEBAQEBAQEc3RwNEAAAABgYGBgYGBgYGBgYGBgYGBgYGBgYGBgYGBgYGBgYGBgYGBgYGBgYGBgYGBgYGBgYGBgYGBgYGBgYGBgYGBgYGBgc3RwNUAA
        AAAAAAAAAAAAAAAAAAAAAAAAAAAAAAAAAAAAAAAAAAAAAAAAAAAAAAAAAAAAAAAAAAAAAAAAAAAAAAAAAAAAAAAAcHJvZxICAABwcmdwIgAAABAQUQQAAQB/AH8AQAAB
        AAEAAAAAAAAAAAB/AAAAAAAAAABwZ25tMAAAAEJhc3MgMWsgQmVuYXNzaSAtIElsbHVzaW9uABoBAAAAJCq+X/9/AAD08NwVAQAAAHN0cDBAAAAAAAAAAAAAAAAAAAAA
        AAAAAAAAAAAAAAAAAAAAAAAAAAAAAAAAAAAAAAAAAAAAAAAAAAAAAAAAAAAAAAAAAAAAAHN0cDFAAAAACBAIEBAQEAgQEAgQEBAIEAgICAgICAgICAgICAgICAgICAgI
        CAgICAgICAgICAgICAgICAgICAgICAgICAgICHN0cDJAAAAAAQABAAECAAEAAAEAAQIBAAEBAQEBAQEBAQEBAQEBAQEBAQEBAQEBAQEBAQEBAQEBAQEBAQEBAQEBAQEB
        AQEBAXN0cDNAAAAABAQEBAQEBAQEBAQEBAQEBAQEBAQEBAQEBAQEBAQEBAQEBAQEBAQEBAQEBAQEBAQEBAQEBAQEBAQEBAQEBAQEBHN0cDRAAAAAYGBgYGBgYGBgYGBg
        YGBgYGBgYGBgYGBgYGBgYGBgYGBgYGBgYGBgYGBgYGBgYGBgYGBgYGBgYGBgYGBgYGBgYHN0cDVAAAAAAAAAAAAAAAAAAAAAAAAAAAAAAAAAAAAAAAAAAAAAAAAAAAAA
        AAAAAAAAAAAAAAAAAAAAAAAAAAAAAAAAAAAAAHByb2cSAgAAcHJncCIAAAAQEFQEAAEAfwB/AEAAAQABAAAAAAAAAAAAfwAAAAAAAAAAcGdubTAAAABCYXNzIDFrIFF1
        ZWVuIC0gQnJlYWsgZnJlZQAaAQAAACQqvl//fwAA9PDcFQEAAABzdHAwQAAAAAAAAAAAAAAAAAAAAAAAAAAAAAAAAAAAAAAAAAAAAAAAAAAAAAAAAAAAAAAAAAAAAAAA
        AAAAAAAAAAAAAAAAAABzdHAxQAAAAAgQCAgQEAgQEBAIEBAQCBAICAgICAgICAgICAgICAgICAgICAgICAgICAgICAgICAgICAgICAgICAgICAgICAhzdHAyQAAAAAEA
        AQEBAAEAAQABAAEAAQABAQEBAQEBAQEBAQEBAQEBAQEBAQEBAQEBAQEBAQEBAQEBAQEBAQEBAQEBAQEBAQFzdHAzQAAAAAQEBAQEBAQEBAQEBAQEBAQEBAQEBAQEBAQE
        BAQEBAQEBAQEBAQEBAQEBAQEBAQEBAQEBAQEBAQEBAQEBAQEBARzdHA0QAAAAGBgYGBgYGBgYGBgYGBgYGBgYGBgYGBgYGBgYGBgYGBgYGBgYGBgYGBgYGBgYGBgYGBg
        YGBgYGBgYGBgYGBgYGBzdHA1QAAAAAAAAAAAAAAAAAAAAAAAAAAAAAAAAAAAAAAAAAAAAAAAAAAAAAAAAAAAAAAAAAAAAAAAAAAAAAAAAAAAAAAAAABwcm9nEgIAAHBy
        Z3AiAAAAECBMBAABAH8AfwBAAAEAAQAAAAAAAAAAAH8AAAAAAAAAAHBnbm0wAAAAQmFzcyAxayBRdWVlbiAtIExpdmluZyBvbiBteSBvd24AKr5f/38AAPTw3BUBAAAA
        c3RwMEAAAAAAAAAAAAAAAAAAAAAAAAAAAAAAAAAAAAAAAAAAAAAAAAAAAAAAAAAAAAAAAAAAAAAAAAAAAAAAAAAAAAAAAAAAc3RwMUAAAAAICBAICBAICBAICBAICBAI
        CBAgCBAgCBAgCBAgCBAgEAgICAgICAgICAgICAgICAgICAgICAgICAgICAgICAgIc3RwMkAAAAABAAEAAQEAAQEAAQEAAQEAAQEBAQEBAQEBAQEBAQEBAQEBAQEBAQEB
        AQEBAQEBAQEBAQEBAQEBAQEBAQEBAQEBc3RwM0AAAAAEBAQEBAQEBAQEBAQEBAQEBAQEBAQEBAQEBAQEBAQEBAQEBAQEBAQEBAQEBAQEBAQEBAQEBAQEBAQEBAQEBAQE
        c3RwNEAAAABgYGBgYGBgYGBgYGBgYGBgYGBgYGBgYGBgYGBgYGBgYGBgYGBgYGBgYGBgYGBgYGBgYGBgYGBgYGBgYGBgYGBgc3RwNUAAAAAAAAAAAAAAAAAAAAAAAAAA
        AAAAAAAAAAAAAAAAAAAAAAAAAAAAAAAAAAAAAAAAAAAAAAAAAAAAAAAAAAAAAAAAcHJvZxICAABwcmdwIgAAABAQLgQAAQB/AH8AQAABAAEAAAYDAAAAAAB/AAAAAAAA
        AABwZ25tMAAAAFNlcSAxayBGb3JjZVNjYWxlIEVtIDAxALDoHBoBAAAAJCq+X/9/AAD08NwVAQAAAHN0cDBAAAAAAAACAAQAAwAAAgMAAwADBAAAAAAAAAAAAAAAAAAA
        AAAAAAAAAAAAAAAAAAAAAAAAAAAAAAAAAAAAAAAAAAAAAHN0cDFAAAAABAIIBAgECAgCCAgECAQICAgICAgICAgICAgICAgICAgICAgICAgICAgICAgICAgICAgICAgI
        CAgICAgICAgICHN0cDJAAAAAAQABAAEAAQEAAQABAQAAAQEBAQEBAQEBAQEBAQEBAQEBAQEBAQEBAQEBAQEBAQEBAQEBAQEBAQEBAQEBAQEBAXN0cDNAAAAABAQEBAQE
        BAQEBAQEBAQEBAQEBAQEBAQEBAQEBAQEBAQEBAQEBAQEBAQEBAQEBAQEBAQEBAQEBAQEBAQEBAQEBHN0cDRAAAAAYGBgYGBgYGBgYGBgYGBgYGBgYGBgYGBgYGBgYGBg
        YGBgYGBgYGBgYGBgYGBgYGBgYGBgYGBgYGBgYGBgYGBgYHN0cDVAAAAAAAAAAAAAAAAAAAAAAAAAAAAAAAAAAAAAAAAAAAAAAAAAAAAAAAAAAAAAAAAAAAAAAAAAAAAA
        AAAAAAAAAAAAAHByb2cSAgAAcHJncCIAAAAQCEIEAAEAfwB/AEAAAQABAAAGAwAAAAAAfwAAAAAAAAAAcGdubTAAAABTZXEgMWsgRm9yY2VTY2FsZSBFbSAwMgCw6Bwa
        AQAAACQqvl//fwAA9PDcFQEAAABzdHAwQAAAAAAAAAIAAAQAAAAAAAAAAAAAAAAAAAAAAAAAAAAAAAAAAAAAAAAAAAAAAAAAAAAAAAAAAAAAAAAAAAAAAAAAAABzdHAx
        QAAAAAgIBAgEBAgICAgICAgICAgICAgICAgICAgICAgICAgICAgICAgICAgICAgICAgICAgICAgICAgICAgICAgICAhzdHAyQAAAAAECAQEBAQECAQEBAQEBAQEBAQEB
        AQEBAQEBAQEBAQEBAQEBAQEBAQEBAQEBAQEBAQEBAQEBAQEBAQEBAQEBAQFzdHAzQAAAAAQEBAQEBAQEBAQEBAQEBAQEBAQEBAQEBAQEBAQEBAQEBAQEBAQEBAQEBAQE
        BAQEBAQEBAQEBAQEBAQEBAQEBARzdHA0QAAAAGBgYGBgYGBgYGBgYGBgYGBgYGBgYGBgYGBgYGBgYGBgYGBgYGBgYGBgYGBgYGBgYGBgYGBgYGBgYGBgYGBgYGBzdHA1
        QAAAAAAAAAAAAAAAAAAAAAAAAAAAAAAAAAAAAAAAAAAAAAAAAAAAAAAAAAAAAAAAAAAAAAAAAAAAAAAAAAAAAAAAAABwcm9nEgIAAHByZ3AiAAAAEBBHBAABAH8AfwBF
        AAEAAQAABgMAAAAAAH8AAAAAAAAAAHBnbm0wAAAAU2VxIDFrIEZvcmNlU2NhbGUgRW0gMDMAsOgcGgEAAAAkKr5f/38AAPTw3BUBAAAAc3RwMEAAAAAAAAACAAQAAAAC
        AAAAAgADAAAAAAAAAAAAAAAAAAAAAAAAAAAAAAAAAAAAAAAAAAAAAAAAAAAAAAAAAAAAAAAAc3RwMUAAAAAICAgICAgICAgICAgICAgICAgICAgICAgICAgICAgICAgI
        CAgICAgICAgICAgICAgICAgICAgICAgICAgICAgIc3RwMkAAAAAAAQABAAEAAAEBAAABAQABAQEBAQEBAQEBAQEBAQEBAQEBAQEBAQEBAQEBAQEBAQEBAQEBAQEBAQEB
        AQEBAQEBc3RwM0AAAAAEBAQEBAQEBAQEBAQEBAQEBAQEBAQEBAQEBAQEBAQEBAQEBAQEBAQEBAQEBAQEBAQEBAQEBAQEBAQEBAQEBAQEc3RwNEAAAABgYGBgYGBgYGBg
        YGBgYGBgYGBgYGBgYGBgYGBgYGBgYGBgYGBgYGBgYGBgYGBgYGBgYGBgYGBgYGBgYGBgYGBgc3RwNUAAAAAAAAAAAAAAAAAAAAAAAAAAAAAAAAAAAAAAAAAAAAAAAAAA
        AAAAAAAAAAAAAAAAAAAAAAAAAAAAAAAAAAAAAAAAcHJvZxICAABwcmdwIgAAABAQZAQAAgB/AH8AQAABAAEAAAYDAAAAAAB/AAAAAAAAAABwZ25tMAAAAFNlcSAyayBG
        b3JjZVNjYWxlIEVtIDA0IChFK0cpAAAAJCq+X/9/AAD08NwVAQAAAHN0cDBAAAAAAAAAAAYAAAAAAAUAAAQAAAAAAAAAAAAAAAAAAAAAAAAAAAAAAAAAAAAAAAAAAAAA
        AAAAAAAAAAAAAAAAAAAAAHN0cDFAAAAABAgEBAgEBAgEBAgEBAgECAgICAgICAgICAgICAgICAgICAgICAgICAgICAgICAgICAgICAgICAgICAgICAgICHN0cDJAAAAA
        AQEAAQEAAQEAAQEAAQEAAQEBAQEBAQEBAQEBAQEBAQEBAQEBAQEBAQEBAQEBAQEBAQEBAQEBAQEBAQEBAQEBAXN0cDNAAAAABAgEBAQEBAgEBAgEBAgEBAQEBAQEBAQE
        BAQEBAQEBAQEBAQEBAQEBAQEBAQEBAQEBAQEBAQEBAQEBAQEBAQEBHN0cDRAAAAAYGBgYGBgYGBgYGBgYGBgYGBgYGBgYGBgYGBgYGBgYGBgYGBgYGBgYGBgYGBgYGBg
        YGBgYGBgYGBgYGBgYGBgYHN0cDVAAAAAAAAAAAAAAAAAAAAAAAAAAAAAAAAAAAAAAAAAAAAAAAAAAAAAAAAAAAAAAAAAAAAAAAAAAAAAAAAAAAAAAAAAAHByb2cSAgAA
        cHJncCIAAAAQCEMEAAIAfwB/AEAAAQABAAAAAAAAAAAAfwAAAAAAAAAAcGdubTAAAABTZXEgMmsgSGFybW9uaWMxIChBK0MvQyMpABwaAQAAACQqvl//fwAA9PDcFQEA
        AABzdHAwQAAAAAAAAAAAAAcAAAAAAAAAAAAAAAAAAAAAAAAAAAAAAAAAAAAAAAAAAAAAAAAAAAAAAAAAAAAAAAAAAAAAAAAAAABzdHAxQAAAAAgICAgEBAgICAgICAgI
        CAgICAgICAgICAgICAgICAgICAgICAgICAgICAgICAgICAgICAgICAgICAgICAgICAhzdHAyQAAAAAECAQEBAQECAQEBAQEBAQEBAQEBAQEBAQEBAQEBAQEBAQEBAQEB
        AQEBAQEBAQEBAQEBAQEBAQEBAQEBAQEBAQFzdHAzQAAAAAQEBAgEBAQEBAQEBAQEBAQEBAQEBAQEBAQEBAQEBAQEBAQEBAQEBAQEBAQEBAQEBAQEBAQEBAQEBAQEBAQE
        BARzdHA0QAAAAGBgYGBgYGBgYGBgYGBgYGBgYGBgYGBgYGBgYGBgYGBgYGBgYGBgYGBgYGBgYGBgYGBgYGBgYGBgYGBgYGBgYGBzdHA1QAAAAAAAAAAAAAAAAAAAAAAA
        AAAAAAAAAAAAAAAAAAAAAAAAAAAAAAAAAAAAAAAAAAAAAAAAAAAAAAAAAAAAAAAAAABwcm9nEgIAAHByZ3AiAAAAEAhDBAABAH8AfwBAAAEAAQAAAAAAAAAAAH8AAAAA
        AAAAAHBnbm0wAAAAU2VxIDJrIEhhcm1vbmljMiAoQStDL0MjKQAcGgEAAAAkKr5f/38AAPTw3BUBAAAAc3RwMEAAAAAAAAcFAAcFAAAAAAAAAAAAAAAAAAAAAAAAAAAA
        AAAAAAAAAAAAAAAAAAAAAAAAAAAAAAAAAAAAAAAAAAAAAAAAc3RwMUAAAAAECAgIBAgICAgICAgICAgICAgICAgICAgICAgICAgICAgICAgICAgICAgICAgICAgICAgI
        CAgICAgICAgICAgIc3RwMkAAAAABAQEBAQEBAQEBAQEBAQEBAQEBAQEBAQEBAQEBAQEBAQEBAQEBAQEBAQEBAQEBAQEBAQEBAQEBAQEBAQEBAQEBc3RwM0AAAAAECAQI
        BAQIBAQEBAQEBAQEBAQEBAQEBAQEBAQEBAQEBAQEBAQEBAQEBAQEBAQEBAQEBAQEBAQEBAQEBAQEBAQEc3RwNEAAAABgYGBgYGBgYGBgYGBgYGBgYGBgYGBgYGBgYGBg
        YGBgYGBgYGBgYGBgYGBgYGBgYGBgYGBgYGBgYGBgYGBgYGBgc3RwNUAAAAAAAAAAAAAAAAAAAAAAAAAAAAAAAAAAAAAAAAAAAAAAAAAAAAAAAAAAAAAAAAAAAAAAAAAA
        AAAAAAAAAAAAAAAAcHJvZxICAABwcmdwIgAAABAIRwQAAQB/AH8AQAABAAEAAAAAAAAAAAB/AAAAAAAAAABwZ25tMAAAAFNlcSAyayBIYXJtb25pYzMgKEErQy9DIykA
        HBoBAAAAJCq+X/9/AAD08NwVAQAAAHN0cDBAAAAAAAAHBwAAAAcAAAAAAAAAAAAAAAAAAAAAAAAAAAAAAAAAAAAAAAAAAAAAAAAAAAAAAAAAAAAAAAAAAAAAAAAAAHN0
        cDFAAAAABAgICAgECAgICAgICAgICAgICAgICAgICAgICAgICAgICAgICAgICAgICAgICAgICAgICAgICAgICAgICAgICHN0cDJAAAAAAQEBAQEBAQEBAQEBAQEBAQEB
        AQEBAQEBAQEBAQEBAQEBAQEBAQEBAQEBAQEBAQEBAQEBAQEBAQEBAQEBAQEBAXN0cDNAAAAABAgECAQECAQEBAQEBAQEBAQEBAQEBAQEBAQEBAQEBAQEBAQEBAQEBAQE
        BAQEBAQEBAQEBAQEBAQEBAQEBAQEBHN0cDRAAAAAYGBgYGBgYGBgYGBgYGBgYGBgYGBgYGBgYGBgYGBgYGBgYGBgYGBgYGBgYGBgYGBgYGBgYGBgYGBgYGBgYGBgYHN0
        cDVAAAAAAAAAAAAAAAAAAAAAAAAAAAAAAAAAAAAAAAAAAAAAAAAAAAAAAAAAAAAAAAAAAAAAAAAAAAAAAAAAAAAAAAAAAHByb2cSAgAAcHJncCIAAAAQCEIEAAEAfwB/
        AEAAAQABAAAAAAAAAAAAfwAAAAAAAAAAcGdubTAAAABTZXEgMmsgSGFybW9uaWM0IChBK0MvQyMpABwaAQAAACQqvl//fwAA9PDcFQEAAABzdHAwQAAAAAAAAAcAAAAA
        AAAAAAAAAAAAAAAAAAAAAAAAAAAAAAAAAAAAAAAAAAAAAAAAAAAAAAAAAAAAAAAAAAAAAAAAAABzdHAxQAAAAAgECAgECAQECAgICAgICAgICAgICAgICAgICAgICAgI
        CAgICAgICAgICAgICAgICAgICAgICAgICAgICAgICAhzdHAyQAAAAAEBAQEBAQEBAQEBAQEBAQEBAQEBAQEBAQEBAQEBAQEBAQEBAQEBAQEBAQEBAQEBAQEBAQEBAQEB
        AQEBAQEBAQFzdHAzQAAAAAQECAQECAQEBAQEBAQEBAQEBAQEBAQEBAQEBAQEBAQEBAQEBAQEBAQEBAQEBAQEBAQEBAQEBAQEBAQEBAQEBARzdHA0QAAAAGBgYGBgYGBg
        YGBgYGBgYGBgYGBgYGBgYGBgYGBgYGBgYGBgYGBgYGBgYGBgYGBgYGBgYGBgYGBgYGBgYGBgYGBzdHA1QAAAAAAAAAAAAAAAAAAAAAAAAAAAAAAAAAAAAAAAAAAAAAAA
        AAAAAAAAAAAAAAAAAAAAAAAAAAAAAAAAAAAAAAAAAABwcm9nEgIAAHByZ3AiAAAAECA9BAABAH8AfwBAAAEAAQAAAAAAAAAAAH8AAAAAAAAAAHBnbm0wAAAAU2VxIDJr
        IEtyYWZ0d2VyazEgKEQrRikAsOgcGgEAAAAkKr5f/38AAPTw3BUBAAAAc3RwMEAAAAAAAP7+AAD+/gAAAAAAAAAAAAD+/gAA/v4AAAAAAAAAAAAAAAAAAAAAAAAAAAAA
        AAAAAAAAAAAAAAAAAAAAAAAAc3RwMUAAAAAICAgICAgICAgICAgICAgICAgICAgICAgICAQEBAgEBAgICAgICAgICAgICAgICAgICAgICAgICAgICAgICAgIc3RwMkAA
        AAABAQEBAQEBAQEBAAABAQAAAQEBAQEBAQEBAQEBAQEAAAEBAQEBAQEBAQEBAQEBAQEBAQEBAQEBAQEBAQEBAQEBc3RwM0AAAAAEBAQEBAQEBAQEBAQICAQEBAQEBAQE
        BAQEBAQEBAQEBAQEBAQEBAQEBAQEBAQEBAQEBAQEBAQEBAQEBAQEBAQEc3RwNEAAAABgYGBgYGBgYGBgYGBgYGBgYGBgYGBgYGBgYGBgYGBgYGBgYGBgYGBgYGBgYGBg
        YGBgYGBgYGBgYGBgYGBgYGBgc3RwNUAAAAAAAAAAAAAAAAAAAAAAAAAAAAAAAAAAAAAAAAAAAAAAAAAAAAAAAAAAAAAAAAAAAAAAAAAAAAAAAAAAAAAAAAAAcHJvZxIC
        AABwcmdwIgAAABAgZAQAAQB/AH8APgABAAEAAAAAAAAAAAB/AAAAAAAAAABwZ25tMAAAAFNlcSAyayBLcmFmdHdlcmsyIChBLCBDKQDoHBoBAAAAJCq+X/9/AAD08NwV
        AQAAAHN0cDBAAAAAAAAAAAAAAAADAAAAAAAAAAMAAAAFAAoABwAAAAAAAAAAAAAAAAAAAAAAAAAAAAAAAAAAAAAAAAAAAAAAAAAAAHN0cDFAAAAACAgICAgICAgICAgI
        CAgICAgICAgICAgICAgICAgICAgICAgICAgICAgICAgICAgICAgICAgICAgICAgICAgICHN0cDJAAAAAAQAAAAEAAQABAAEAAAAAAAEAAAABAAEAAQAAAAAAAAABAQEB
        AQEBAQEBAQEBAQEBAQEBAQEBAQEBAQEBAQEBAXN0cDNAAAAABAQEBAQEBAQEBAQEBAQEBAQEBAQEBAQEBAQEBAQEBAQEBAQEBAQEBAQEBAQEBAQEBAQEBAQEBAQEBAQE
        BAQEBHN0cDRAAAAAYGBgYGBgYGBgYGBgYGBgYGBgYGBgYGBgYGBgYGBgYGBgYGBgYGBgYGBgYGBgYGBgYGBgYGBgYGBgYGBgYGBgYHN0cDVAAAAAAAAAAAAAAAAAAAAA
        AAAAAAAAAAAAAAAAAAAAAAAAAAAAAAAAAAAAAAAAAAAAAAAAAAAAAAAAAAAAAAAAAAAAAHByb2cSAgAAcHJncCIAAAAQIGQEAAEAfwB/AEAAAQABAAAAAAAAAAAAfwAA
        AAAAAAAAcGdubTAAAABTZXEgMmsgS3JhZnR3ZXJrMyAoQStDLCBGK0EpAAAAACQqvl//fwAA9PDcFQEAAABzdHAwQAAAAAAAAAAAAPsAAAD7AAAAAAAAAAAAAgAAAAAA
        AAAAAPsAAAAAAAAAAAAAAAAAAAAAAAAAAAAAAAAAAAAAAAAAAABzdHAxQAAAAAgICAgICAgICAgICAgICAgICAgICAgICAgICAgICAgICAgICAgICAgICAgICAgICAgI
        CAgICAgICAgICAgICAhzdHAyQAAAAAEAAAABAAEAAQABAAAAAQABAAAAAQABAAAAAAAAAAEAAQEBAQEBAQEBAQEBAQEBAQEBAQEBAQEBAQEBAQEBAQFzdHAzQAAAAAQE
        BAQEBAQEBAQEBAQEBAQIBAQEBAQEBAQEBAQEBAQEBAQEBAQEBAQEBAQEBAQEBAQEBAQEBAQEBAQEBAQEBARzdHA0QAAAAGBgYGBgYGBgYGBgYGBgYGBgYGBgYGBgYGBg
        YGBgYGBgYGBgYGBgYGBgYGBgYGBgYGBgYGBgYGBgYGBgYGBgYGBzdHA1QAAAAAAAAAAAAAAAAAAAAAAAAAAAAAAAAAAAAAAAAAAAAAAAAAAAAAAAAAAAAAAAAAAAAAAA
        AAAAAAAAAAAAAAAAAABwcm9nEgIAAHByZ3AiAAAAECBkBAABAH8AfwBAAAEAAQAAAAAAAAAAAH8AAAAAAAAAAHBnbm0wAAAAU2VxIDJrIEtyYWZ0d2VyazMgKEErQywg
        RitBKQAAAAAkKr5f/38AAPTw3BUBAAAAc3RwMEAAAAAAAAAAAAD7AAAA+wAAAAAAAAAAAAIAAAAAAAAAAAD7AAAAAAAAAAAAAAAAAAAAAAAAAAAAAAAAAAAAAAAAAAAA
        c3RwMUAAAAAICAgICAgICAgICAgICAgICAgICAgICAgICAgICAgICAgICAgICAgICAgICAgICAgICAgICAgICAgICAgICAgIc3RwMkAAAAABAAAAAQABAAEAAQAAAAEA
        AQAAAAEAAQAAAAAAAAABAAEBAQEBAQEBAQEBAQEBAQEBAQEBAQEBAQEBAQEBAQEBc3RwM0AAAAAEBAQEBAQEBAQEBAQEBAQECAQEBAQEBAQEBAQEBAQEBAQEBAQEBAQE
        BAQEBAQEBAQEBAQEBAQEBAQEBAQEBAQEc3RwNEAAAABgYGBgYGBgYGBgYGBgYGBgYGBgYGBgYGBgYGBgYGBgYGBgYGBgYGBgYGBgYGBgYGBgYGBgYGBgYGBgYGBgYGBg
        c3RwNUAAAAAAAAAAAAAAAAAAAAAAAAAAAAAAAAAAAAAAAAAAAAAAAAAAAAAAAAAAAAAAAAAAAAAAAAAAAAAAAAAAAAAAAAAAcHJvZxICAABwcmdwIgAAABAgZAQAAQB/
        AH8AQAABAAEAAAAAAAAAAAB/AAAAAAAAAABwZ25tMAAAAFNlcSAyayBLcmFmdHdlcmszIChBK0MsIEYrQSkAAAAAJCq+X/9/AAD08NwVAQAAAHN0cDBAAAAAAAAAAAAA
        +wAAAPsAAAAAAAAAAAACAAAAAAAAAAAA+wAAAAAAAAAAAAAAAAAAAAAAAAAAAAAAAAAAAAAAAAAAAHN0cDFAAAAACAgICAgICAgICAgICAgICAgICAgICAgICAgICAgI
        CAgICAgICAgICAgICAgICAgICAgICAgICAgICAgICAgICHN0cDJAAAAAAQAAAAEAAQABAAEAAAABAAEAAAABAAEAAAAAAAAAAQABAQEBAQEBAQEBAQEBAQEBAQEBAQEB
        AQEBAQEBAQEBAXN0cDNAAAAABAQEBAQEBAQEBAQEBAQEBAgEBAQEBAQEBAQEBAQEBAQEBAQEBAQEBAQEBAQEBAQEBAQEBAQEBAQEBAQEBAQEBHN0cDRAAAAAYGBgYGBg
        YGBgYGBgYGBgYGBgYGBgYGBgYGBgYGBgYGBgYGBgYGBgYGBgYGBgYGBgYGBgYGBgYGBgYGBgYGBgYHN0cDVAAAAAAAAAAAAAAAAAAAAAAAAAAAAAAAAAAAAAAAAAAAAA
        AAAAAAAAAAAAAAAAAAAAAAAAAAAAAAAAAAAAAAAAAAAAAHByb2cSAgAAcHJncCIAAAAQIGQEAAEAfwB/AEAAAQABAAAAAAAAAAAAfwAAAAAAAAAAcGdubTAAAABTZXEg
        MmsgS3JhZnR3ZXJrMyAoQStDLCBGK0EpAAAAACQqvl//fwAA9PDcFQEAAABzdHAwQAAAAAAAAAAAAPsAAAD7AAAAAAAAAAAAAgAAAAAAAAAAAPsAAAAAAAAAAAAAAAAA
        AAAAAAAAAAAAAAAAAAAAAAAAAABzdHAxQAAAAAgICAgICAgICAgICAgICAgICAgICAgICAgICAgICAgICAgICAgICAgICAgICAgICAgICAgICAgICAgICAgICAhzdHAy
        QAAAAAEAAAABAAEAAQABAAAAAQABAAAAAQABAAAAAAAAAAEAAQEBAQEBAQEBAQEBAQEBAQEBAQEBAQEBAQEBAQEBAQFzdHAzQAAAAAQEBAQEBAQEBAQEBAQEBAQIBAQE
        BAQEBAQEBAQEBAQEBAQEBAQEBAQEBAQEBAQEBAQEBAQEBAQEBAQEBAQEBARzdHA0QAAAAGBgYGBgYGBgYGBgYGBgYGBgYGBgYGBgYGBgYGBgYGBgYGBgYGBgYGBgYGBg
        YGBgYGBgYGBgYGBgYGBgYGBgYGBzdHA1QAAAAAAAAAAAAAAAAAAAAAAAAAAAAAAAAAAAAAAAAAAAAAAAAAAAAAAAAAAAAAAAAAAAAAAAAAAAAAAAAAAAAAAAAABwcm9n
        EgIAAHByZ3AiAAAAECBkBAABAH8AfwBAAAEAAQAAAAAAAAAAAH8AAAAAAAAAAHBnbm0wAAAAU2VxIDJrIEtyYWZ0d2VyazMgKEErQywgRitBKQAAAAAkKr5f/38AAPTw
        3BUBAAAAc3RwMEAAAAAAAAAAAAD7AAAA+wAAAAAAAAAAAAIAAAAAAAAAAAD7AAAAAAAAAAAAAAAAAAAAAAAAAAAAAAAAAAAAAAAAAAAAc3RwMUAAAAAICAgICAgICAgI
        CAgICAgICAgICAgICAgICAgICAgICAgICAgICAgICAgICAgICAgICAgICAgICAgICAgICAgIc3RwMkAAAAABAAAAAQABAAEAAQAAAAEAAQAAAAEAAQAAAAAAAAABAAEB
        AQEBAQEBAQEBAQEBAQEBAQEBAQEBAQEBAQEBAQEBc3RwM0AAAAAEBAQEBAQEBAQEBAQEBAQECAQEBAQEBAQEBAQEBAQEBAQEBAQEBAQEBAQEBAQEBAQEBAQEBAQEBAQE
        BAQEBAQEc3RwNEAAAABgYGBgYGBgYGBgYGBgYGBgYGBgYGBgYGBgYGBgYGBgYGBgYGBgYGBgYGBgYGBgYGBgYGBgYGBgYGBgYGBgYGBgc3RwNUAAAAAAAAAAAAAAAAAA
        AAAAAAAAAAAAAAAAAAAAAAAAAAAAAAAAAAAAAAAAAAAAAAAAAAAAAAAAAAAAAAAAAAAAAAAAcHJvZxICAABwcmdwIgAAABAgZAQAAQB/AH8AQAABAAEAAAAAAAAAAAB/
        AAAAAAAAAABwZ25tMAAAAFNlcSAyayBLcmFmdHdlcmszIChBK0MsIEYrQSkAAAAAJCq+X/9/AAD08NwVAQAAAHN0cDBAAAAAAAAAAAAA+wAAAPsAAAAAAAAAAAACAAAA
        AAAAAAAA+wAAAAAAAAAAAAAAAAAAAAAAAAAAAAAAAAAAAAAAAAAAAHN0cDFAAAAACAgICAgICAgICAgICAgICAgICAgICAgICAgICAgICAgICAgICAgICAgICAgICAgI
        CAgICAgICAgICAgICAgICHN0cDJAAAAAAQAAAAEAAQABAAEAAAABAAEAAAABAAEAAAAAAAAAAQABAQEBAQEBAQEBAQEBAQEBAQEBAQEBAQEBAQEBAQEBAXN0cDNAAAAA
        BAQEBAQEBAQEBAQEBAQEBAgEBAQEBAQEBAQEBAQEBAQEBAQEBAQEBAQEBAQEBAQEBAQEBAQEBAQEBAQEBAQEBHN0cDRAAAAAYGBgYGBgYGBgYGBgYGBgYGBgYGBgYGBg
        YGBgYGBgYGBgYGBgYGBgYGBgYGBgYGBgYGBgYGBgYGBgYGBgYGBgYHN0cDVAAAAAAAAAAAAAAAAAAAAAAAAAAAAAAAAAAAAAAAAAAAAAAAAAAAAAAAAAAAAAAAAAAAAA
        AAAAAAAAAAAAAAAAAAAAAHByb2cSAgAAcHJncCIAAAAQIGQEAAEAfwB/AEAAAQABAAAAAAAAAAAAfwAAAAAAAAAAcGdubTAAAABTZXEgMmsgS3JhZnR3ZXJrMyAoQStD
        LCBGK0EpAAAAACQqvl//fwAA9PDcFQEAAABzdHAwQAAAAAAAAAAAAPsAAAD7AAAAAAAAAAAAAgAAAAAAAAAAAPsAAAAAAAAAAAAAAAAAAAAAAAAAAAAAAAAAAAAAAAAA
        AABzdHAxQAAAAAgICAgICAgICAgICAgICAgICAgICAgICAgICAgICAgICAgICAgICAgICAgICAgICAgICAgICAgICAgICAgICAhzdHAyQAAAAAEAAAABAAEAAQABAAAA
        AQABAAAAAQABAAAAAAAAAAEAAQEBAQEBAQEBAQEBAQEBAQEBAQEBAQEBAQEBAQEBAQFzdHAzQAAAAAQEBAQEBAQEBAQEBAQEBAQIBAQEBAQEBAQEBAQEBAQEBAQEBAQE
        BAQEBAQEBAQEBAQEBAQEBAQEBAQEBAQEBARzdHA0QAAAAGBgYGBgYGBgYGBgYGBgYGBgYGBgYGBgYGBgYGBgYGBgYGBgYGBgYGBgYGBgYGBgYGBgYGBgYGBgYGBgYGBg
        YGBzdHA1QAAAAAAAAAAAAAAAAAAAAAAAAAAAAAAAAAAAAAAAAAAAAAAAAAAAAAAAAAAAAAAAAAAAAAAAAAAAAAAAAAAAAAAAAABwcm9nEgIAAHByZ3AiAAAAECBkBAAB
        AH8AfwBAAAEAAQAAAAAAAAAAAH8AAAAAAAAAAHBnbm0wAAAAU2VxIDJrIEtyYWZ0d2VyazMgKEErQywgRitBKQAAAAAkKr5f/38AAPTw3BUBAAAAc3RwMEAAAAAAAAAA
        AAD7AAAA+wAAAAAAAAAAAAIAAAAAAAAAAAD7AAAAAAAAAAAAAAAAAAAAAAAAAAAAAAAAAAAAAAAAAAAAc3RwMUAAAAAICAgICAgICAgICAgICAgICAgICAgICAgICAgI
        CAgICAgICAgICAgICAgICAgICAgICAgICAgICAgICAgICAgIc3RwMkAAAAABAAAAAQABAAEAAQAAAAEAAQAAAAEAAQAAAAAAAAABAAEBAQEBAQEBAQEBAQEBAQEBAQEB
        AQEBAQEBAQEBAQEBc3RwM0AAAAAEBAQEBAQEBAQEBAQEBAQECAQEBAQEBAQEBAQEBAQEBAQEBAQEBAQEBAQEBAQEBAQEBAQEBAQEBAQEBAQEBAQEc3RwNEAAAABgYGBg
        YGBgYGBgYGBgYGBgYGBgYGBgYGBgYGBgYGBgYGBgYGBgYGBgYGBgYGBgYGBgYGBgYGBgYGBgYGBgYGBgc3RwNUAAAAAAAAAAAAAAAAAAAAAAAAAAAAAAAAAAAAAAAAAA
        AAAAAAAAAAAAAAAAAAAAAAAAAAAAAAAAAAAAAAAAAAAAAAAAcHJvZxICAABwcmdwIgAAABAgZAQAAQB/AH8AQAABAAEAAAAAAAAAAAB/AAAAAAAAAABwZ25tMAAAAFNl
        cSAyayBLcmFmdHdlcmszIChBK0MsIEYrQSkAAAAAJCq+X/9/AAD08NwVAQAAAHN0cDBAAAAAAAAAAAAA+wAAAPsAAAAAAAAAAAACAAAAAAAAAAAA+wAAAAAAAAAAAAAA
        AAAAAAAAAAAAAAAAAAAAAAAAAAAAAHN0cDFAAAAACAgICAgICAgICAgICAgICAgICAgICAgICAgICAgICAgICAgICAgICAgICAgICAgICAgICAgICAgICAgICAgICHN0
        cDJAAAAAAQAAAAEAAQABAAEAAAABAAEAAAABAAEAAAAAAAAAAQABAQEBAQEBAQEBAQEBAQEBAQEBAQEBAQEBAQEBAQEBAXN0cDNAAAAABAQEBAQEBAQEBAQEBAQEBAgE
        BAQEBAQEBAQEBAQEBAQEBAQEBAQEBAQEBAQEBAQEBAQEBAQEBAQEBAQEBAQEBHN0cDRAAAAAYGBgYGBgYGBgYGBgYGBgYGBgYGBgYGBgYGBgYGBgYGBgYGBgYGBgYGBg
        YGBgYGBgYGBgYGBgYGBgYGBgYGBgYHN0cDVAAAAAAAAAAAAAAAAAAAAAAAAAAAAAAAAAAAAAAAAAAAAAAAAAAAAAAAAAAAAAAAAAAAAAAAAAAAAAAAAAAAAAAAAAAHBy
        b2cSAgAAcHJncCIAAAAQIGQEAAEAfwB/AEAAAQABAAAAAAAAAAAAfwAAAAAAAAAAcGdubTAAAABTZXEgMmsgS3JhZnR3ZXJrMyAoQStDLCBGK0EpAAAAACQqvl//fwAA
        9PDcFQEAAABzdHAwQAAAAAAAAAAAAPsAAAD7AAAAAAAAAAAAAgAAAAAAAAAAAPsAAAAAAAAAAAAAAAAAAAAAAAAAAAAAAAAAAAAAAAAAAABzdHAxQAAAAAgICAgICAgI
        CAgICAgICAgICAgICAgICAgICAgICAgICAgICAgICAgICAgICAgICAgICAgICAgICAgICAgICAhzdHAyQAAAAAEAAAABAAEAAQABAAAAAQABAAAAAQABAAAAAAAAAAEA
        AQEBAQEBAQEBAQEBAQEBAQEBAQEBAQEBAQEBAQEBAQFzdHAzQAAAAAQEBAQEBAQEBAQEBAQEBAQIBAQEBAQEBAQEBAQEBAQEBAQEBAQEBAQEBAQEBAQEBAQEBAQEBAQE
        BAQEBAQEBARzdHA0QAAAAGBgYGBgYGBgYGBgYGBgYGBgYGBgYGBgYGBgYGBgYGBgYGBgYGBgYGBgYGBgYGBgYGBgYGBgYGBgYGBgYGBgYGBzdHA1QAAAAAAAAAAAAAAA
        AAAAAAAAAAAAAAAAAAAAAAAAAAAAAAAAAAAAAAAAAAAAAAAAAAAAAAAAAAAAAAAAAAAAAAAAAABwcm9nEgIAAHByZ3AiAAAAECBkBAABAH8AfwBAAAEAAQAAAAAAAAAA
        AH8AAAAAAAAAAHBnbm0wAAAAU2VxIDJrIEtyYWZ0d2VyazMgKEErQywgRitBKQAAAAAkKr5f/38AAPTw3BUBAAAAc3RwMEAAAAAAAAAAAAD7AAAA+wAAAAAAAAAAAAIA
        AAAAAAAAAAD7AAAAAAAAAAAAAAAAAAAAAAAAAAAAAAAAAAAAAAAAAAAAc3RwMUAAAAAICAgICAgICAgICAgICAgICAgICAgICAgICAgICAgICAgICAgICAgICAgICAgI
        CAgICAgICAgICAgICAgICAgIc3RwMkAAAAABAAAAAQABAAEAAQAAAAEAAQAAAAEAAQAAAAAAAAABAAEBAQEBAQEBAQEBAQEBAQEBAQEBAQEBAQEBAQEBAQEBc3RwM0AA
        AAAEBAQEBAQEBAQEBAQEBAQECAQEBAQEBAQEBAQEBAQEBAQEBAQEBAQEBAQEBAQEBAQEBAQEBAQEBAQEBAQEBAQEc3RwNEAAAABgYGBgYGBgYGBgYGBgYGBgYGBgYGBg
        YGBgYGBgYGBgYGBgYGBgYGBgYGBgYGBgYGBgYGBgYGBgYGBgYGBgYGBgc3RwNUAAAAAAAAAAAAAAAAAAAAAAAAAAAAAAAAAAAAAAAAAAAAAAAAAAAAAAAAAAAAAAAAAA
        AAAAAAAAAAAAAAAAAAAAAAAAcHJvZxICAABwcmdwIgAAABAgZAQAAQB/AH8AQAABAAEAAAAAAAAAAAB/AAAAAAAAAABwZ25tMAAAAFNlcSAyayBLcmFmdHdlcmszIChB
        K0MsIEYrQSkAAAAAJCq+X/9/AAD08NwVAQAAAHN0cDBAAAAAAAAAAAAA+wAAAPsAAAAAAAAAAAACAAAAAAAAAAAA+wAAAAAAAAAAAAAAAAAAAAAAAAAAAAAAAAAAAAAA
        AAAAAHN0cDFAAAAACAgICAgICAgICAgICAgICAgICAgICAgICAgICAgICAgICAgICAgICAgICAgICAgICAgICAgICAgICAgICAgICHN0cDJAAAAAAQAAAAEAAQABAAEA
        AAABAAEAAAABAAEAAAAAAAAAAQABAQEBAQEBAQEBAQEBAQEBAQEBAQEBAQEBAQEBAQEBAXN0cDNAAAAABAQEBAQEBAQEBAQEBAQEBAgEBAQEBAQEBAQEBAQEBAQEBAQE
        BAQEBAQEBAQEBAQEBAQEBAQEBAQEBAQEBAQEBHN0cDRAAAAAYGBgYGBgYGBgYGBgYGBgYGBgYGBgYGBgYGBgYGBgYGBgYGBgYGBgYGBgYGBgYGBgYGBgYGBgYGBgYGBg
        YGBgYHN0cDVAAAAAAAAAAAAAAAAAAAAAAAAAAAAAAAAAAAAAAAAAAAAAAAAAAAAAAAAAAAAAAAAAAAAAAAAAAAAAAAAAAAAAAAAAAHByb2cSAgAAcHJncCIAAAAQIGQE
        AAEAfwB/AEAAAQABAAAAAAAAAAAAfwAAAAAAAAAAcGdubTAAAABTZXEgMmsgS3JhZnR3ZXJrMyAoQStDLCBGK0EpAAAAACQqvl//fwAA9PDcFQEAAABzdHAwQAAAAAAA
        AAAAAPsAAAD7AAAAAAAAAAAAAgAAAAAAAAAAAPsAAAAAAAAAAAAAAAAAAAAAAAAAAAAAAAAAAAAAAAAAAABzdHAxQAAAAAgICAgICAgICAgICAgICAgICAgICAgICAgI
        CAgICAgICAgICAgICAgICAgICAgICAgICAgICAgICAgICAgICAhzdHAyQAAAAAEAAAABAAEAAQABAAAAAQABAAAAAQABAAAAAAAAAAEAAQEBAQEBAQEBAQEBAQEBAQEB
        AQEBAQEBAQEBAQEBAQFzdHAzQAAAAAQEBAQEBAQEBAQEBAQEBAQIBAQEBAQEBAQEBAQEBAQEBAQEBAQEBAQEBAQEBAQEBAQEBAQEBAQEBAQEBAQEBARzdHA0QAAAAGBg
        YGBgYGBgYGBgYGBgYGBgYGBgYGBgYGBgYGBgYGBgYGBgYGBgYGBgYGBgYGBgYGBgYGBgYGBgYGBgYGBgYGBzdHA1QAAAAAAAAAAAAAAAAAAAAAAAAAAAAAAAAAAAAAAA
        AAAAAAAAAAAAAAAAAAAAAAAAAAAAAAAAAAAAAAAAAAAAAAAAAABwcm9nEgIAAHByZ3AiAAAAECBkBAABAH8AfwBAAAEAAQAAAAAAAAAAAH8AAAAAAAAAAHBnbm0wAAAA
        U2VxIDJrIEtyYWZ0d2VyazMgKEErQywgRitBKQAAAAAkKr5f/38AAPTw3BUBAAAAc3RwMEAAAAAAAAAAAAD7AAAA+wAAAAAAAAAAAAIAAAAAAAAAAAD7AAAAAAAAAAAA
        AAAAAAAAAAAAAAAAAAAAAAAAAAAAAAAAc3RwMUAAAAAICAgICAgICAgICAgICAgICAgICAgICAgICAgICAgICAgICAgICAgICAgICAgICAgICAgICAgICAgICAgICAgI
        c3RwMkAAAAABAAAAAQABAAEAAQAAAAEAAQAAAAEAAQAAAAAAAAABAAEBAQEBAQEBAQEBAQEBAQEBAQEBAQEBAQEBAQEBAQEBc3RwM0AAAAAEBAQEBAQEBAQEBAQEBAQE
        CAQEBAQEBAQEBAQEBAQEBAQEBAQEBAQEBAQEBAQEBAQEBAQEBAQEBAQEBAQEBAQEc3RwNEAAAABgYGBgYGBgYGBgYGBgYGBgYGBgYGBgYGBgYGBgYGBgYGBgYGBgYGBg
        YGBgYGBgYGBgYGBgYGBgYGBgYGBgYGBgc3RwNUAAAAAAAAAAAAAAAAAAAAAAAAAAAAAAAAAAAAAAAAAAAAAAAAAAAAAAAAAAAAAAAAAAAAAAAAAAAAAAAAAAAAAAAAAA
        cHJvZxICAABwcmdwIgAAABAgZAQAAQB/AH8AQAABAAEAAAAAAAAAAAB/AAAAAAAAAABwZ25tMAAAAFNlcSAyayBLcmFmdHdlcmszIChBK0MsIEYrQSkAAAAAJCq+X/9/
        AAD08NwVAQAAAHN0cDBAAAAAAAAAAAAA+wAAAPsAAAAAAAAAAAACAAAAAAAAAAAA+wAAAAAAAAAAAAAAAAAAAAAAAAAAAAAAAAAAAAAAAAAAAHN0cDFAAAAACAgICAgI
        CAgICAgICAgICAgICAgICAgICAgICAgICAgICAgICAgICAgICAgICAgICAgICAgICAgICAgICAgICHN0cDJAAAAAAQAAAAEAAQABAAEAAAABAAEAAAABAAEAAAAAAAAA
        AQABAQEBAQEBAQEBAQEBAQEBAQEBAQEBAQEBAQEBAQEBAXN0cDNAAAAABAQEBAQEBAQEBAQEBAQEBAgEBAQEBAQEBAQEBAQEBAQEBAQEBAQEBAQEBAQEBAQEBAQEBAQE
        BAQEBAQEBAQEBHN0cDRAAAAAYGBgYGBgYGBgYGBgYGBgYGBgYGBgYGBgYGBgYGBgYGBgYGBgYGBgYGBgYGBgYGBgYGBgYGBgYGBgYGBgYGBgYHN0cDVAAAAAAAAAAAAA
        AAAAAAAAAAAAAAAAAAAAAAAAAAAAAAAAAAAAAAAAAAAAAAAAAAAAAAAAAAAAAAAAAAAAAAAAAAAAAHByb2cSAgAAcHJncCIAAAAQIGQEAAEAfwB/AEAAAQABAAAAAAAA
        AAAAfwAAAAAAAAAAcGdubTAAAABTZXEgMmsgS3JhZnR3ZXJrMyAoQStDLCBGK0EpAAAAACQqvl//fwAA9PDcFQEAAABzdHAwQAAAAAAAAAAAAPsAAAD7AAAAAAAAAAAA
        AgAAAAAAAAAAAPsAAAAAAAAAAAAAAAAAAAAAAAAAAAAAAAAAAAAAAAAAAABzdHAxQAAAAAgICAgICAgICAgICAgICAgICAgICAgICAgICAgICAgICAgICAgICAgICAgI
        CAgICAgICAgICAgICAgICAgICAhzdHAyQAAAAAEAAAABAAEAAQABAAAAAQABAAAAAQABAAAAAAAAAAEAAQEBAQEBAQEBAQEBAQEBAQEBAQEBAQEBAQEBAQEBAQFzdHAz
        QAAAAAQEBAQEBAQEBAQEBAQEBAQIBAQEBAQEBAQEBAQEBAQEBAQEBAQEBAQEBAQEBAQEBAQEBAQEBAQEBAQEBAQEBARzdHA0QAAAAGBgYGBgYGBgYGBgYGBgYGBgYGBg
        YGBgYGBgYGBgYGBgYGBgYGBgYGBgYGBgYGBgYGBgYGBgYGBgYGBgYGBgYGBzdHA1QAAAAAAAAAAAAAAAAAAAAAAAAAAAAAAAAAAAAAAAAAAAAAAAAAAAAAAAAAAAAAAA
        AAAAAAAAAAAAAAAAAAAAAAAAAABwcm9nEgIAAHByZ3AiAAAAECBkBAABAH8AfwBAAAEAAQAAAAAAAAAAAH8AAAAAAAAAAHBnbm0wAAAAU2VxIDJrIEtyYWZ0d2VyazMg
        KEErQywgRitBKQAAAAAkKr5f/38AAPTw3BUBAAAAc3RwMEAAAAAAAAAAAAD7AAAA+wAAAAAAAAAAAAIAAAAAAAAAAAD7AAAAAAAAAAAAAAAAAAAAAAAAAAAAAAAAAAAA
        AAAAAAAAc3RwMUAAAAAICAgICAgICAgICAgICAgICAgICAgICAgICAgICAgICAgICAgICAgICAgICAgICAgICAgICAgICAgICAgICAgIc3RwMkAAAAABAAAAAQABAAEA
        AQAAAAEAAQAAAAEAAQAAAAAAAAABAAEBAQEBAQEBAQEBAQEBAQEBAQEBAQEBAQEBAQEBAQEBc3RwM0AAAAAEBAQEBAQEBAQEBAQEBAQECAQEBAQEBAQEBAQEBAQEBAQE
        BAQEBAQEBAQEBAQEBAQEBAQEBAQEBAQEBAQEBAQEc3RwNEAAAABgYGBgYGBgYGBgYGBgYGBgYGBgYGBgYGBgYGBgYGBgYGBgYGBgYGBgYGBgYGBgYGBgYGBgYGBgYGBg
        YGBgYGBgc3RwNUAAAAAAAAAAAAAAAAAAAAAAAAAAAAAAAAAAAAAAAAAAAAAAAAAAAAAAAAAAAAAAAAAAAAAAAAAAAAAAAAAAAAAAAAAAcHJvZxICAABwcmdwIgAAABAg
        ZAQAAQB/AH8AQAABAAEAAAAAAAAAAAB/AAAAAAAAAABwZ25tMAAAAFNlcSAyayBLcmFmdHdlcmszIChBK0MsIEYrQSkAAAAAJCq+X/9/AAD08NwVAQAAAHN0cDBAAAAA
        AAAAAAAA+wAAAPsAAAAAAAAAAAACAAAAAAAAAAAA+wAAAAAAAAAAAAAAAAAAAAAAAAAAAAAAAAAAAAAAAAAAAHN0cDFAAAAACAgICAgICAgICAgICAgICAgICAgICAgI
        CAgICAgICAgICAgICAgICAgICAgICAgICAgICAgICAgICAgICAgICHN0cDJAAAAAAQAAAAEAAQABAAEAAAABAAEAAAABAAEAAAAAAAAAAQABAQEBAQEBAQEBAQEBAQEB
        AQEBAQEBAQEBAQEBAQEBAXN0cDNAAAAABAQEBAQEBAQEBAQEBAQEBAgEBAQEBAQEBAQEBAQEBAQEBAQEBAQEBAQEBAQEBAQEBAQEBAQEBAQEBAQEBAQEBHN0cDRAAAAA
        YGBgYGBgYGBgYGBgYGBgYGBgYGBgYGBgYGBgYGBgYGBgYGBgYGBgYGBgYGBgYGBgYGBgYGBgYGBgYGBgYGBgYHN0cDVAAAAAAAAAAAAAAAAAAAAAAAAAAAAAAAAAAAAA
        AAAAAAAAAAAAAAAAAAAAAAAAAAAAAAAAAAAAAAAAAAAAAAAAAAAAAHByb2cSAgAAcHJncCIAAAAQIGQEAAEAfwB/AEAAAQABAAAAAAAAAAAAfwAAAAAAAAAAcGdubTAA
        AABTZXEgMmsgS3JhZnR3ZXJrMyAoQStDLCBGK0EpAAAAACQqvl//fwAA9PDcFQEAAABzdHAwQAAAAAAAAAAAAPsAAAD7AAAAAAAAAAAAAgAAAAAAAAAAAPsAAAAAAAAA
        AAAAAAAAAAAAAAAAAAAAAAAAAAAAAAAAAABzdHAxQAAAAAgICAgICAgICAgICAgICAgICAgICAgICAgICAgICAgICAgICAgICAgICAgICAgICAgICAgICAgICAgICAgI
        CAhzdHAyQAAAAAEAAAABAAEAAQABAAAAAQABAAAAAQABAAAAAAAAAAEAAQEBAQEBAQEBAQEBAQEBAQEBAQEBAQEBAQEBAQEBAQFzdHAzQAAAAAQEBAQEBAQEBAQEBAQE
        BAQIBAQEBAQEBAQEBAQEBAQEBAQEBAQEBAQEBAQEBAQEBAQEBAQEBAQEBAQEBAQEBARzdHA0QAAAAGBgYGBgYGBgYGBgYGBgYGBgYGBgYGBgYGBgYGBgYGBgYGBgYGBg
        YGBgYGBgYGBgYGBgYGBgYGBgYGBgYGBgYGBzdHA1QAAAAAAAAAAAAAAAAAAAAAAAAAAAAAAAAAAAAAAAAAAAAAAAAAAAAAAAAAAAAAAAAAAAAAAAAAAAAAAAAAAAAAAA
        AABwcm9nEgIAAHByZ3AiAAAAECBkBAABAH8AfwBAAAEAAQAAAAAAAAAAAH8AAAAAAAAAAHBnbm0wAAAAU2VxIDJrIEtyYWZ0d2VyazMgKEErQywgRitBKQAAAAAkKr5f
        /38AAPTw3BUBAAAAc3RwMEAAAAAAAAAAAAD7AAAA+wAAAAAAAAAAAAIAAAAAAAAAAAD7AAAAAAAAAAAAAAAAAAAAAAAAAAAAAAAAAAAAAAAAAAAAc3RwMUAAAAAICAgI
        CAgICAgICAgICAgICAgICAgICAgICAgICAgICAgICAgICAgICAgICAgICAgICAgICAgICAgICAgICAgIc3RwMkAAAAABAAAAAQABAAEAAQAAAAEAAQAAAAEAAQAAAAAA
        AAABAAEBAQEBAQEBAQEBAQEBAQEBAQEBAQEBAQEBAQEBAQEBc3RwM0AAAAAEBAQEBAQEBAQEBAQEBAQECAQEBAQEBAQEBAQEBAQEBAQEBAQEBAQEBAQEBAQEBAQEBAQE
        BAQEBAQEBAQEBAQEc3RwNEAAAABgYGBgYGBgYGBgYGBgYGBgYGBgYGBgYGBgYGBgYGBgYGBgYGBgYGBgYGBgYGBgYGBgYGBgYGBgYGBgYGBgYGBgc3RwNUAAAAAAAAAA
        AAAAAAAAAAAAAAAAAAAAAAAAAAAAAAAAAAAAAAAAAAAAAAAAAAAAAAAAAAAAAAAAAAAAAAAAAAAAAAAAcHJvZxICAABwcmdwIgAAABAgZAQAAQB/AH8AQAABAAEAAAAA
        AAAAAAB/AAAAAAAAAABwZ25tMAAAAFNlcSAyayBLcmFmdHdlcmszIChBK0MsIEYrQSkAAAAAJCq+X/9/AAD08NwVAQAAAHN0cDBAAAAAAAAAAAAA+wAAAPsAAAAAAAAA
        AAACAAAAAAAAAAAA+wAAAAAAAAAAAAAAAAAAAAAAAAAAAAAAAAAAAAAAAAAAAHN0cDFAAAAACAgICAgICAgICAgICAgICAgICAgICAgICAgICAgICAgICAgICAgICAgI
        CAgICAgICAgICAgICAgICAgICAgICHN0cDJAAAAAAQAAAAEAAQABAAEAAAABAAEAAAABAAEAAAAAAAAAAQABAQEBAQEBAQEBAQEBAQEBAQEBAQEBAQEBAQEBAQEBAXN0
        cDNAAAAABAQEBAQEBAQEBAQEBAQEBAgEBAQEBAQEBAQEBAQEBAQEBAQEBAQEBAQEBAQEBAQEBAQEBAQEBAQEBAQEBAQEBHN0cDRAAAAAYGBgYGBgYGBgYGBgYGBgYGBg
        YGBgYGBgYGBgYGBgYGBgYGBgYGBgYGBgYGBgYGBgYGBgYGBgYGBgYGBgYGBgYHN0cDVAAAAAAAAAAAAAAAAAAAAAAAAAAAAAAAAAAAAAAAAAAAAAAAAAAAAAAAAAAAAA
        AAAAAAAAAAAAAAAAAAAAAAAAAAAAAHByb2cSAgAAcHJncCIAAAAQIGQEAAEAfwB/AEAAAQABAAAAAAAAAAAAfwAAAAAAAAAAcGdubTAAAABTZXEgMmsgS3JhZnR3ZXJr
        MyAoQStDLCBGK0EpAAAAACQqvl//fwAA9PDcFQEAAABzdHAwQAAAAAAAAAAAAPsAAAD7AAAAAAAAAAAAAgAAAAAAAAAAAPsAAAAAAAAAAAAAAAAAAAAAAAAAAAAAAAAA
        AAAAAAAAAABzdHAxQAAAAAgICAgICAgICAgICAgICAgICAgICAgICAgICAgICAgICAgICAgICAgICAgICAgICAgICAgICAgICAgICAgICAhzdHAyQAAAAAEAAAABAAEA
        AQABAAAAAQABAAAAAQABAAAAAAAAAAEAAQEBAQEBAQEBAQEBAQEBAQEBAQEBAQEBAQEBAQEBAQFzdHAzQAAAAAQEBAQEBAQEBAQEBAQEBAQIBAQEBAQEBAQEBAQEBAQE
        BAQEBAQEBAQEBAQEBAQEBAQEBAQEBAQEBAQEBAQEBARzdHA0QAAAAGBgYGBgYGBgYGBgYGBgYGBgYGBgYGBgYGBgYGBgYGBgYGBgYGBgYGBgYGBgYGBgYGBgYGBgYGBg
        YGBgYGBgYGBzdHA1QAAAAAAAAAAAAAAAAAAAAAAAAAAAAAAAAAAAAAAAAAAAAAAAAAAAAAAAAAAAAAAAAAAAAAAAAAAAAAAAAAAAAAAAAABwcm9nEgIAAHByZ3AiAAAA
        ECBkBAABAH8AfwBAAAEAAQAAAAAAAAAAAH8AAAAAAAAAAHBnbm0wAAAAU2VxIDJrIEtyYWZ0d2VyazMgKEErQywgRitBKQAAAAAkKr5f/38AAPTw3BUBAAAAc3RwMEAA
        AAAAAAAAAAD7AAAA+wAAAAAAAAAAAAIAAAAAAAAAAAD7AAAAAAAAAAAAAAAAAAAAAAAAAAAAAAAAAAAAAAAAAAAAc3RwMUAAAAAICAgICAgICAgICAgICAgICAgICAgI
        CAgICAgICAgICAgICAgICAgICAgICAgICAgICAgICAgICAgICAgICAgIc3RwMkAAAAABAAAAAQABAAEAAQAAAAEAAQAAAAEAAQAAAAAAAAABAAEBAQEBAQEBAQEBAQEB
        AQEBAQEBAQEBAQEBAQEBAQEBc3RwM0AAAAAEBAQEBAQEBAQEBAQEBAQECAQEBAQEBAQEBAQEBAQEBAQEBAQEBAQEBAQEBAQEBAQEBAQEBAQEBAQEBAQEBAQEc3RwNEAA
        AABgYGBgYGBgYGBgYGBgYGBgYGBgYGBgYGBgYGBgYGBgYGBgYGBgYGBgYGBgYGBgYGBgYGBgYGBgYGBgYGBgYGBgc3RwNUAAAAAAAAAAAAAAAAAAAAAAAAAAAAAAAAAA
        AAAAAAAAAAAAAAAAAAAAAAAAAAAAAAAAAAAAAAAAAAAAAAAAAAAAAAAAcHJvZxICAABwcmdwIgAAABAgZAQAAQB/AH8AQAABAAEAAAAAAAAAAAB/AAAAAAAAAABwZ25t
        MAAAAFNlcSAyayBLcmFmdHdlcmszIChBK0MsIEYrQSkAAAAAJCq+X/9/AAD08NwVAQAAAHN0cDBAAAAAAAAAAAAA+wAAAPsAAAAAAAAAAAACAAAAAAAAAAAA+wAAAAAA
        AAAAAAAAAAAAAAAAAAAAAAAAAAAAAAAAAAAAAHN0cDFAAAAACAgICAgICAgICAgICAgICAgICAgICAgICAgICAgICAgICAgICAgICAgICAgICAgICAgICAgICAgICAgI
        CAgICHN0cDJAAAAAAQAAAAEAAQABAAEAAAABAAEAAAABAAEAAAAAAAAAAQABAQEBAQEBAQEBAQEBAQEBAQEBAQEBAQEBAQEBAQEBAXN0cDNAAAAABAQEBAQEBAQEBAQE
        BAQEBAgEBAQEBAQEBAQEBAQEBAQEBAQEBAQEBAQEBAQEBAQEBAQEBAQEBAQEBAQEBAQEBHN0cDRAAAAAYGBgYGBgYGBgYGBgYGBgYGBgYGBgYGBgYGBgYGBgYGBgYGBg
        YGBgYGBgYGBgYGBgYGBgYGBgYGBgYGBgYGBgYHN0cDVAAAAAAAAAAAAAAAAAAAAAAAAAAAAAAAAAAAAAAAAAAAAAAAAAAAAAAAAAAAAAAAAAAAAAAAAAAAAAAAAAAAAA
        AAAAAHByb2cSAgAAcHJncCIAAAAQIGQEAAEAfwB/AEAAAQABAAAAAAAAAAAAfwAAAAAAAAAAcGdubTAAAABTZXEgMmsgS3JhZnR3ZXJrMyAoQStDLCBGK0EpAAAAACQq
        vl//fwAA9PDcFQEAAABzdHAwQAAAAAAAAAAAAPsAAAD7AAAAAAAAAAAAAgAAAAAAAAAAAPsAAAAAAAAAAAAAAAAAAAAAAAAAAAAAAAAAAAAAAAAAAABzdHAxQAAAAAgI
        CAgICAgICAgICAgICAgICAgICAgICAgICAgICAgICAgICAgICAgICAgICAgICAgICAgICAgICAgICAgICAhzdHAyQAAAAAEAAAABAAEAAQABAAAAAQABAAAAAQABAAAA
        AAAAAAEAAQEBAQEBAQEBAQEBAQEBAQEBAQEBAQEBAQEBAQEBAQFzdHAzQAAAAAQEBAQEBAQEBAQEBAQEBAQIBAQEBAQEBAQEBAQEBAQEBAQEBAQEBAQEBAQEBAQEBAQE
        BAQEBAQEBAQEBAQEBARzdHA0QAAAAGBgYGBgYGBgYGBgYGBgYGBgYGBgYGBgYGBgYGBgYGBgYGBgYGBgYGBgYGBgYGBgYGBgYGBgYGBgYGBgYGBgYGBzdHA1QAAAAAAA
        AAAAAAAAAAAAAAAAAAAAAAAAAAAAAAAAAAAAAAAAAAAAAAAAAAAAAAAAAAAAAAAAAAAAAAAAAAAAAAAAAABwcm9nEgIAAHByZ3AiAAAAECBkBAABAH8AfwBAAAEAAQAA
        AAAAAAAAAH8AAAAAAAAAAHBnbm0wAAAAU2VxIDJrIEtyYWZ0d2VyazMgKEErQywgRitBKQAAAAAkKr5f/38AAPTw3BUBAAAAc3RwMEAAAAAAAAAAAAD7AAAA+wAAAAAA
        AAAAAAIAAAAAAAAAAAD7AAAAAAAAAAAAAAAAAAAAAAAAAAAAAAAAAAAAAAAAAAAAc3RwMUAAAAAICAgICAgICAgICAgICAgICAgICAgICAgICAgICAgICAgICAgICAgI
        CAgICAgICAgICAgICAgICAgICAgICAgIc3RwMkAAAAABAAAAAQABAAEAAQAAAAEAAQAAAAEAAQAAAAAAAAABAAEBAQEBAQEBAQEBAQEBAQEBAQEBAQEBAQEBAQEBAQEB
        c3RwM0AAAAAEBAQEBAQEBAQEBAQEBAQECAQEBAQEBAQEBAQEBAQEBAQEBAQEBAQEBAQEBAQEBAQEBAQEBAQEBAQEBAQEBAQEc3RwNEAAAABgYGBgYGBgYGBgYGBgYGBg
        YGBgYGBgYGBgYGBgYGBgYGBgYGBgYGBgYGBgYGBgYGBgYGBgYGBgYGBgYGBgYGBgc3RwNUAAAAAAAAAAAAAAAAAAAAAAAAAAAAAAAAAAAAAAAAAAAAAAAAAAAAAAAAAA
        AAAAAAAAAAAAAAAAAAAAAAAAAAAAAAAAcHJvZxICAABwcmdwIgAAABAgZAQAAQB/AH8AQAABAAEAAAAAAAAAAAB/AAAAAAAAAABwZ25tMAAAAFNlcSAyayBLcmFmdHdl
        cmszIChBK0MsIEYrQSkAAAAAJCq+X/9/AAD08NwVAQAAAHN0cDBAAAAAAAAAAAAA+wAAAPsAAAAAAAAAAAACAAAAAAAAAAAA+wAAAAAAAAAAAAAAAAAAAAAAAAAAAAAA
        AAAAAAAAAAAAAHN0cDFAAAAACAgICAgICAgICAgICAgICAgICAgICAgICAgICAgICAgICAgICAgICAgICAgICAgICAgICAgICAgICAgICAgICHN0cDJAAAAAAQAAAAEA
        AQABAAEAAAABAAEAAAABAAEAAAAAAAAAAQABAQEBAQEBAQEBAQEBAQEBAQEBAQEBAQEBAQEBAQEBAXN0cDNAAAAABAQEBAQEBAQEBAQEBAQEBAgEBAQEBAQEBAQEBAQE
        BAQEBAQEBAQEBAQEBAQEBAQEBAQEBAQEBAQEBAQEBAQEBHN0cDRAAAAAYGBgYGBgYGBgYGBgYGBgYGBgYGBgYGBgYGBgYGBgYGBgYGBgYGBgYGBgYGBgYGBgYGBgYGBg
        YGBgYGBgYGBgYHN0cDVAAAAAAAAAAAAAAAAAAAAAAAAAAAAAAAAAAAAAAAAAAAAAAAAAAAAAAAAAAAAAAAAAAAAAAAAAAAAAAAAAAAAAAAAAAHByb2cSAgAAcHJncCIA
        AAAQIGQEAAEAfwB/AEAAAQABAAAAAAAAAAAAfwAAAAAAAAAAcGdubTAAAABTZXEgMmsgS3JhZnR3ZXJrMyAoQStDLCBGK0EpAAAAACQqvl//fwAA9PDcFQEAAABzdHAw
        QAAAAAAAAAAAAPsAAAD7AAAAAAAAAAAAAgAAAAAAAAAAAPsAAAAAAAAAAAAAAAAAAAAAAAAAAAAAAAAAAAAAAAAAAABzdHAxQAAAAAgICAgICAgICAgICAgICAgICAgI
        CAgICAgICAgICAgICAgICAgICAgICAgICAgICAgICAgICAgICAgICAgICAhzdHAyQAAAAAEAAAABAAEAAQABAAAAAQABAAAAAQABAAAAAAAAAAEAAQEBAQEBAQEBAQEB
        AQEBAQEBAQEBAQEBAQEBAQEBAQFzdHAzQAAAAAQEBAQEBAQEBAQEBAQEBAQIBAQEBAQEBAQEBAQEBAQEBAQEBAQEBAQEBAQEBAQEBAQEBAQEBAQEBAQEBAQEBARzdHA0
        QAAAAGBgYGBgYGBgYGBgYGBgYGBgYGBgYGBgYGBgYGBgYGBgYGBgYGBgYGBgYGBgYGBgYGBgYGBgYGBgYGBgYGBgYGBzdHA1QAAAAAAAAAAAAAAAAAAAAAAAAAAAAAAA
        AAAAAAAAAAAAAAAAAAAAAAAAAAAAAAAAAAAAAAAAAAAAAAAAAAAAAAAAAABwcm9nEgIAAHByZ3AiAAAAECBkBAABAH8AfwBAAAEAAQAAAAAAAAAAAH8AAAAAAAAAAHBn
        bm0wAAAAU2VxIDJrIEtyYWZ0d2VyazMgKEErQywgRitBKQAAAAAkKr5f/38AAPTw3BUBAAAAc3RwMEAAAAAAAAAAAAD7AAAA+wAAAAAAAAAAAAIAAAAAAAAAAAD7AAAA
        AAAAAAAAAAAAAAAAAAAAAAAAAAAAAAAAAAAAAAAAc3RwMUAAAAAICAgICAgICAgICAgICAgICAgICAgICAgICAgICAgICAgICAgICAgICAgICAgICAgICAgICAgICAgI
        CAgICAgIc3RwMkAAAAABAAAAAQABAAEAAQAAAAEAAQAAAAEAAQAAAAAAAAABAAEBAQEBAQEBAQEBAQEBAQEBAQEBAQEBAQEBAQEBAQEBc3RwM0AAAAAEBAQEBAQEBAQE
        BAQEBAQECAQEBAQEBAQEBAQEBAQEBAQEBAQEBAQEBAQEBAQEBAQEBAQEBAQEBAQEBAQEBAQEc3RwNEAAAABgYGBgYGBgYGBgYGBgYGBgYGBgYGBgYGBgYGBgYGBgYGBg
        YGBgYGBgYGBgYGBgYGBgYGBgYGBgYGBgYGBgYGBgc3RwNUAAAAAAAAAAAAAAAAAAAAAAAAAAAAAAAAAAAAAAAAAAAAAAAAAAAAAAAAAAAAAAAAAAAAAAAAAAAAAAAAAA
        AAAAAAAAcHJvZxICAABwcmdwIgAAABAgZAQAAQB/AH8AQAABAAEAAAAAAAAAAAB/AAAAAAAAAABwZ25tMAAAAFNlcSAyayBLcmFmdHdlcmszIChBK0MsIEYrQSkAAAAA
        JCq+X/9/AAD08NwVAQAAAHN0cDBAAAAAAAAAAAAA+wAAAPsAAAAAAAAAAAACAAAAAAAAAAAA+wAAAAAAAAAAAAAAAAAAAAAAAAAAAAAAAAAAAAAAAAAAAHN0cDFAAAAA
        CAgICAgICAgICAgICAgICAgICAgICAgICAgICAgICAgICAgICAgICAgICAgICAgICAgICAgICAgICAgICAgICHN0cDJAAAAAAQAAAAEAAQABAAEAAAABAAEAAAABAAEA
        AAAAAAAAAQABAQEBAQEBAQEBAQEBAQEBAQEBAQEBAQEBAQEBAQEBAXN0cDNAAAAABAQEBAQEBAQEBAQEBAQEBAgEBAQEBAQEBAQEBAQEBAQEBAQEBAQEBAQEBAQEBAQE
        BAQEBAQEBAQEBAQEBAQEBHN0cDRAAAAAYGBgYGBgYGBgYGBgYGBgYGBgYGBgYGBgYGBgYGBgYGBgYGBgYGBgYGBgYGBgYGBgYGBgYGBgYGBgYGBgYGBgYHN0cDVAAAAA
        AAAAAAAAAAAAAAAAAAAAAAAAAAAAAAAAAAAAAAAAAAAAAAAAAAAAAAAAAAAAAAAAAAAAAAAAAAAAAAAAAAAAAHByb2cSAgAAcHJncCIAAAAQIGQEAAEAfwB/AEAAAQAB
        AAAAAAAAAAAAfwAAAAAAAAAAcGdubTAAAABTZXEgMmsgS3JhZnR3ZXJrMyAoQStDLCBGK0EpAAAAACQqvl//fwAA9PDcFQEAAABzdHAwQAAAAAAAAAAAAPsAAAD7AAAA
        AAAAAAAAAgAAAAAAAAAAAPsAAAAAAAAAAAAAAAAAAAAAAAAAAAAAAAAAAAAAAAAAAABzdHAxQAAAAAgICAgICAgICAgICAgICAgICAgICAgICAgICAgICAgICAgICAgI
        CAgICAgICAgICAgICAgICAgICAgICAgICAhzdHAyQAAAAAEAAAABAAEAAQABAAAAAQABAAAAAQABAAAAAAAAAAEAAQEBAQEBAQEBAQEBAQEBAQEBAQEBAQEBAQEBAQEB
        AQFzdHAzQAAAAAQEBAQEBAQEBAQEBAQEBAQIBAQEBAQEBAQEBAQEBAQEBAQEBAQEBAQEBAQEBAQEBAQEBAQEBAQEBAQEBAQEBARzdHA0QAAAAGBgYGBgYGBgYGBgYGBg
        YGBgYGBgYGBgYGBgYGBgYGBgYGBgYGBgYGBgYGBgYGBgYGBgYGBgYGBgYGBgYGBgYGBzdHA1QAAAAAAAAAAAAAAAAAAAAAAAAAAAAAAAAAAAAAAAAAAAAAAAAAAAAAAA
        AAAAAAAAAAAAAAAAAAAAAAAAAAAAAAAAAABwcm9nEgIAAHByZ3AiAAAAECBkBAABAH8AfwBAAAEAAQAAAAAAAAAAAH8AAAAAAAAAAHBnbm0wAAAAU2VxIDJrIEtyYWZ0
        d2VyazMgKEErQywgRitBKQAAAAAkKr5f/38AAPTw3BUBAAAAc3RwMEAAAAAAAAAAAAD7AAAA+wAAAAAAAAAAAAIAAAAAAAAAAAD7AAAAAAAAAAAAAAAAAAAAAAAAAAAA
        AAAAAAAAAAAAAAAAc3RwMUAAAAAICAgICAgICAgICAgICAgICAgICAgICAgICAgICAgICAgICAgICAgICAgICAgICAgICAgICAgICAgICAgICAgIc3RwMkAAAAABAAAA
        AQABAAEAAQAAAAEAAQAAAAEAAQAAAAAAAAABAAEBAQEBAQEBAQEBAQEBAQEBAQEBAQEBAQEBAQEBAQEBc3RwM0AAAAAEBAQEBAQEBAQEBAQEBAQECAQEBAQEBAQEBAQE
        BAQEBAQEBAQEBAQEBAQEBAQEBAQEBAQEBAQEBAQEBAQEBAQEc3RwNEAAAABgYGBgYGBgYGBgYGBgYGBgYGBgYGBgYGBgYGBgYGBgYGBgYGBgYGBgYGBgYGBgYGBgYGBg
        YGBgYGBgYGBgYGBgc3RwNUAAAAAAAAAAAAAAAAAAAAAAAAAAAAAAAAAAAAAAAAAAAAAAAAAAAAAAAAAAAAAAAAAAAAAAAAAAAAAAAAAAAAAAAAAAcHJvZxICAABwcmdw
        IgAAABAgZAQAAQB/AH8AQAABAAEAAAAAAAAAAAB/AAAAAAAAAABwZ25tMAAAAFNlcSAyayBLcmFmdHdlcmszIChBK0MsIEYrQSkAAAAAJCq+X/9/AAD08NwVAQAAAHN0
        cDBAAAAAAAAAAAAA+wAAAPsAAAAAAAAAAAACAAAAAAAAAAAA+wAAAAAAAAAAAAAAAAAAAAAAAAAAAAAAAAAAAAAAAAAAAHN0cDFAAAAACAgICAgICAgICAgICAgICAgI
        CAgICAgICAgICAgICAgICAgICAgICAgICAgICAgICAgICAgICAgICAgICAgICHN0cDJAAAAAAQAAAAEAAQABAAEAAAABAAEAAAABAAEAAAAAAAAAAQABAQEBAQEBAQEB
        AQEBAQEBAQEBAQEBAQEBAQEBAQEBAXN0cDNAAAAABAQEBAQEBAQEBAQEBAQEBAgEBAQEBAQEBAQEBAQEBAQEBAQEBAQEBAQEBAQEBAQEBAQEBAQEBAQEBAQEBAQEBHN0
        cDRAAAAAYGBgYGBgYGBgYGBgYGBgYGBgYGBgYGBgYGBgYGBgYGBgYGBgYGBgYGBgYGBgYGBgYGBgYGBgYGBgYGBgYGBgYHN0cDVAAAAAAAAAAAAAAAAAAAAAAAAAAAAA
        AAAAAAAAAAAAAAAAAAAAAAAAAAAAAAAAAAAAAAAAAAAAAAAAAAAAAAAAAAAAAHByb2cSAgAAcHJncCIAAAAQIGQEAAEAfwB/AEAAAQABAAAAAAAAAAAAfwAAAAAAAAAA
        cGdubTAAAABTZXEgMmsgS3JhZnR3ZXJrMyAoQStDLCBGK0EpAAAAACQqvl//fwAA9PDcFQEAAABzdHAwQAAAAAAAAAAAAPsAAAD7AAAAAAAAAAAAAgAAAAAAAAAAAPsA
        AAAAAAAAAAAAAAAAAAAAAAAAAAAAAAAAAAAAAAAAAABzdHAxQAAAAAgICAgICAgICAgICAgICAgICAgICAgICAgICAgICAgICAgICAgICAgICAgICAgICAgICAgICAgI
        CAgICAgICAhzdHAyQAAAAAEAAAABAAEAAQABAAAAAQABAAAAAQABAAAAAAAAAAEAAQEBAQEBAQEBAQEBAQEBAQEBAQEBAQEBAQEBAQEBAQFzdHAzQAAAAAQEBAQEBAQE
        BAQEBAQEBAQIBAQEBAQEBAQEBAQEBAQEBAQEBAQEBAQEBAQEBAQEBAQEBAQEBAQEBAQEBAQEBARzdHA0QAAAAGBgYGBgYGBgYGBgYGBgYGBgYGBgYGBgYGBgYGBgYGBg
        YGBgYGBgYGBgYGBgYGBgYGBgYGBgYGBgYGBgYGBgYGBzdHA1QAAAAAAAAAAAAAAAAAAAAAAAAAAAAAAAAAAAAAAAAAAAAAAAAAAAAAAAAAAAAAAAAAAAAAAAAAAAAAAA
        AAAAAAAAAABwcm9nEgIAAHByZ3AiAAAAECBkBAABAH8AfwBAAAEAAQAAAAAAAAAAAH8AAAAAAAAAAHBnbm0wAAAAU2VxIDJrIEtyYWZ0d2VyazMgKEErQywgRitBKQAA
        AAAkKr5f/38AAPTw3BUBAAAAc3RwMEAAAAAAAAAAAAD7AAAA+wAAAAAAAAAAAAIAAAAAAAAAAAD7AAAAAAAAAAAAAAAAAAAAAAAAAAAAAAAAAAAAAAAAAAAAc3RwMUAA
        AAAICAgICAgICAgICAgICAgICAgICAgICAgICAgICAgICAgICAgICAgICAgICAgICAgICAgICAgICAgICAgICAgIc3RwMkAAAAABAAAAAQABAAEAAQAAAAEAAQAAAAEA
        AQAAAAAAAAABAAEBAQEBAQEBAQEBAQEBAQEBAQEBAQEBAQEBAQEBAQEBc3RwM0AAAAAEBAQEBAQEBAQEBAQEBAQECAQEBAQEBAQEBAQEBAQEBAQEBAQEBAQEBAQEBAQE
        BAQEBAQEBAQEBAQEBAQEBAQEc3RwNEAAAABgYGBgYGBgYGBgYGBgYGBgYGBgYGBgYGBgYGBgYGBgYGBgYGBgYGBgYGBgYGBgYGBgYGBgYGBgYGBgYGBgYGBgc3RwNUAA
        AAAAAAAAAAAAAAAAAAAAAAAAAAAAAAAAAAAAAAAAAAAAAAAAAAAAAAAAAAAAAAAAAAAAAAAAAAAAAAAAAAAAAAAAcHJvZxICAABwcmdwIgAAABAgZAQAAQB/AH8AQAAB
        AAEAAAAAAAAAAAB/AAAAAAAAAABwZ25tMAAAAFNlcSAyayBLcmFmdHdlcmszIChBK0MsIEYrQSkAAAAAJCq+X/9/AAD08NwVAQAAAHN0cDBAAAAAAAAAAAAA+wAAAPsA
        AAAAAAAAAAACAAAAAAAAAAAA+wAAAAAAAAAAAAAAAAAAAAAAAAAAAAAAAAAAAAAAAAAAAHN0cDFAAAAACAgICAgICAgICAgICAgICAgICAgICAgICAgICAgICAgICAgI
        CAgICAgICAgICAgICAgICAgICAgICAgICAgICHN0cDJAAAAAAQAAAAEAAQABAAEAAAABAAEAAAABAAEAAAAAAAAAAQABAQEBAQEBAQEBAQEBAQEBAQEBAQEBAQEBAQEB
        AQEBAXN0cDNAAAAABAQEBAQEBAQEBAQEBAQEBAgEBAQEBAQEBAQEBAQEBAQEBAQEBAQEBAQEBAQEBAQEBAQEBAQEBAQEBAQEBAQEBHN0cDRAAAAAYGBgYGBgYGBgYGBg
        YGBgYGBgYGBgYGBgYGBgYGBgYGBgYGBgYGBgYGBgYGBgYGBgYGBgYGBgYGBgYGBgYGBgYHN0cDVAAAAAAAAAAAAAAAAAAAAAAAAAAAAAAAAAAAAAAAAAAAAAAAAAAAAA
        AAAAAAAAAAAAAAAAAAAAAAAAAAAAAAAAAAAAAHByb2cSAgAAcHJncCIAAAAQIGQEAAEAfwB/AEAAAQABAAAAAAAAAAAAfwAAAAAAAAAAcGdubTAAAABTZXEgMmsgS3Jh
        ZnR3ZXJrMyAoQStDLCBGK0EpAAAAACQqvl//fwAA9PDcFQEAAABzdHAwQAAAAAAAAAAAAPsAAAD7AAAAAAAAAAAAAgAAAAAAAAAAAPsAAAAAAAAAAAAAAAAAAAAAAAAA
        AAAAAAAAAAAAAAAAAABzdHAxQAAAAAgICAgICAgICAgICAgICAgICAgICAgICAgICAgICAgICAgICAgICAgICAgICAgICAgICAgICAgICAgICAgICAhzdHAyQAAAAAEA
        AAABAAEAAQABAAAAAQABAAAAAQABAAAAAAAAAAEAAQEBAQEBAQEBAQEBAQEBAQEBAQEBAQEBAQEBAQEBAQFzdHAzQAAAAAQEBAQEBAQEBAQEBAQEBAQIBAQEBAQEBAQE
        BAQEBAQEBAQEBAQEBAQEBAQEBAQEBAQEBAQEBAQEBAQEBAQEBARzdHA0QAAAAGBgYGBgYGBgYGBgYGBgYGBgYGBgYGBgYGBgYGBgYGBgYGBgYGBgYGBgYGBgYGBgYGBg
        YGBgYGBgYGBgYGBgYGBzdHA1QAAAAAAAAAAAAAAAAAAAAAAAAAAAAAAAAAAAAAAAAAAAAAAAAAAAAAAAAAAAAAAAAAAAAAAAAAAAAAAAAAAAAAAAAABwcm9nEgIAAHBy
        Z3AiAAAAECBkBAABAH8AfwBAAAEAAQAAAAAAAAAAAH8AAAAAAAAAAHBnbm0wAAAAU2VxIDJrIEtyYWZ0d2VyazMgKEErQywgRitBKQAAAAAkKr5f/38AAPTw3BUBAAAA
        c3RwMEAAAAAAAAAAAAD7AAAA+wAAAAAAAAAAAAIAAAAAAAAAAAD7AAAAAAAAAAAAAAAAAAAAAAAAAAAAAAAAAAAAAAAAAAAAc3RwMUAAAAAICAgICAgICAgICAgICAgI
        CAgICAgICAgICAgICAgICAgICAgICAgICAgICAgICAgICAgICAgICAgICAgICAgIc3RwMkAAAAABAAAAAQABAAEAAQAAAAEAAQAAAAEAAQAAAAAAAAABAAEBAQEBAQEB
        AQEBAQEBAQEBAQEBAQEBAQEBAQEBAQEBc3RwM0AAAAAEBAQEBAQEBAQEBAQEBAQECAQEBAQEBAQEBAQEBAQEBAQEBAQEBAQEBAQEBAQEBAQEBAQEBAQEBAQEBAQEBAQE
        c3RwNEAAAABgYGBgYGBgYGBgYGBgYGBgYGBgYGBgYGBgYGBgYGBgYGBgYGBgYGBgYGBgYGBgYGBgYGBgYGBgYGBgYGBgYGBgc3RwNUAAAAAAAAAAAAAAAAAAAAAAAAAA
        AAAAAAAAAAAAAAAAAAAAAAAAAAAAAAAAAAAAAAAAAAAAAAAAAAAAAAAAAAAAAAAAcHJvZxICAABwcmdwIgAAABAgZAQAAQB/AH8AQAABAAEAAAAAAAAAAAB/AAAAAAAA
        AABwZ25tMAAAAFNlcSAyayBLcmFmdHdlcmszIChBK0MsIEYrQSkAAAAAJCq+X/9/AAD08NwVAQAAAHN0cDBAAAAAAAAAAAAA+wAAAPsAAAAAAAAAAAACAAAAAAAAAAAA
        +wAAAAAAAAAAAAAAAAAAAAAAAAAAAAAAAAAAAAAAAAAAAHN0cDFAAAAACAgICAgICAgICAgICAgICAgICAgICAgICAgICAgICAgICAgICAgICAgICAgICAgICAgICAgI
        CAgICAgICAgICHN0cDJAAAAAAQAAAAEAAQABAAEAAAABAAEAAAABAAEAAAAAAAAAAQABAQEBAQEBAQEBAQEBAQEBAQEBAQEBAQEBAQEBAQEBAXN0cDNAAAAABAQEBAQE
        BAQEBAQEBAQEBAgEBAQEBAQEBAQEBAQEBAQEBAQEBAQEBAQEBAQEBAQEBAQEBAQEBAQEBAQEBAQEBHN0cDRAAAAAYGBgYGBgYGBgYGBgYGBgYGBgYGBgYGBgYGBgYGBg
        YGBgYGBgYGBgYGBgYGBgYGBgYGBgYGBgYGBgYGBgYGBgYHN0cDVAAAAAAAAAAAAAAAAAAAAAAAAAAAAAAAAAAAAAAAAAAAAAAAAAAAAAAAAAAAAAAAAAAAAAAAAAAAAA
        AAAAAAAAAAAAAHByb2cSAgAAcHJncCIAAAAQIGQEAAEAfwB/AEAAAQABAAAAAAAAAAAAfwAAAAAAAAAAcGdubTAAAABTZXEgMmsgS3JhZnR3ZXJrMyAoQStDLCBGK0Ep
        AAAAACQqvl//fwAA9PDcFQEAAABzdHAwQAAAAAAAAAAAAPsAAAD7AAAAAAAAAAAAAgAAAAAAAAAAAPsAAAAAAAAAAAAAAAAAAAAAAAAAAAAAAAAAAAAAAAAAAABzdHAx
        QAAAAAgICAgICAgICAgICAgICAgICAgICAgICAgICAgICAgICAgICAgICAgICAgICAgICAgICAgICAgICAgICAgICAhzdHAyQAAAAAEAAAABAAEAAQABAAAAAQABAAAA
        AQABAAAAAAAAAAEAAQEBAQEBAQEBAQEBAQEBAQEBAQEBAQEBAQEBAQEBAQFzdHAzQAAAAAQEBAQEBAQEBAQEBAQEBAQIBAQEBAQEBAQEBAQEBAQEBAQEBAQEBAQEBAQE
        BAQEBAQEBAQEBAQEBAQEBAQEBARzdHA0QAAAAGBgYGBgYGBgYGBgYGBgYGBgYGBgYGBgYGBgYGBgYGBgYGBgYGBgYGBgYGBgYGBgYGBgYGBgYGBgYGBgYGBgYGBzdHA1
        QAAAAAAAAAAAAAAAAAAAAAAAAAAAAAAAAAAAAAAAAAAAAAAAAAAAAAAAAAAAAAAAAAAAAAAAAAAAAAAAAAAAAAAAAABwcm9nEgIAAHByZ3AiAAAAECBkBAABAH8AfwBA
        AAEAAQAAAAAAAAAAAH8AAAAAAAAAAHBnbm0wAAAAU2VxIDJrIEtyYWZ0d2VyazMgKEErQywgRitBKQAAAAAkKr5f/38AAPTw3BUBAAAAc3RwMEAAAAAAAAAAAAD7AAAA
        +wAAAAAAAAAAAAIAAAAAAAAAAAD7AAAAAAAAAAAAAAAAAAAAAAAAAAAAAAAAAAAAAAAAAAAAc3RwMUAAAAAICAgICAgICAgICAgICAgICAgICAgICAgICAgICAgICAgI
        CAgICAgICAgICAgICAgICAgICAgICAgICAgICAgIc3RwMkAAAAABAAAAAQABAAEAAQAAAAEAAQAAAAEAAQAAAAAAAAABAAEBAQEBAQEBAQEBAQEBAQEBAQEBAQEBAQEB
        AQEBAQEBc3RwM0AAAAAEBAQEBAQEBAQEBAQEBAQECAQEBAQEBAQEBAQEBAQEBAQEBAQEBAQEBAQEBAQEBAQEBAQEBAQEBAQEBAQEBAQEc3RwNEAAAABgYGBgYGBgYGBg
        YGBgYGBgYGBgYGBgYGBgYGBgYGBgYGBgYGBgYGBgYGBgYGBgYGBgYGBgYGBgYGBgYGBgYGBgc3RwNUAAAAAAAAAAAAAAAAAAAAAAAAAAAAAAAAAAAAAAAAAAAAAAAAAA
        AAAAAAAAAAAAAAAAAAAAAAAAAAAAAAAAAAAAAAAAcHJvZxICAABwcmdwIgAAABAgZAQAAQB/AH8AQAABAAEAAAAAAAAAAAB/AAAAAAAAAABwZ25tMAAAAFNlcSAyayBL
        cmFmdHdlcmszIChBK0MsIEYrQSkAAAAAJCq+X/9/AAD08NwVAQAAAHN0cDBAAAAAAAAAAAAA+wAAAPsAAAAAAAAAAAACAAAAAAAAAAAA+wAAAAAAAAAAAAAAAAAAAAAA
        AAAAAAAAAAAAAAAAAAAAAHN0cDFAAAAACAgICAgICAgICAgICAgICAgICAgICAgICAgICAgICAgICAgICAgICAgICAgICAgICAgICAgICAgICAgICAgICHN0cDJAAAAA
        AQAAAAEAAQABAAEAAAABAAEAAAABAAEAAAAAAAAAAQABAQEBAQEBAQEBAQEBAQEBAQEBAQEBAQEBAQEBAQEBAXN0cDNAAAAABAQEBAQEBAQEBAQEBAQEBAgEBAQEBAQE
        BAQEBAQEBAQEBAQEBAQEBAQEBAQEBAQEBAQEBAQEBAQEBAQEBAQEBHN0cDRAAAAAYGBgYGBgYGBgYGBgYGBgYGBgYGBgYGBgYGBgYGBgYGBgYGBgYGBgYGBgYGBgYGBg
        YGBgYGBgYGBgYGBgYGBgYHN0cDVAAAAAAAAAAAAAAAAAAAAAAAAAAAAAAAAAAAAAAAAAAAAAAAAAAAAAAAAAAAAAAAAAAAAAAAAAAAAAAAAAAAAAAAAAAHByb2cSAgAA
        cHJncCIAAAAQIGQEAAEAfwB/AEAAAQABAAAAAAAAAAAAfwAAAAAAAAAAcGdubTAAAABTZXEgMmsgS3JhZnR3ZXJrMyAoQStDLCBGK0EpAAAAACQqvl//fwAA9PDcFQEA
        AABzdHAwQAAAAAAAAAAAAPsAAAD7AAAAAAAAAAAAAgAAAAAAAAAAAPsAAAAAAAAAAAAAAAAAAAAAAAAAAAAAAAAAAAAAAAAAAABzdHAxQAAAAAgICAgICAgICAgICAgI
        CAgICAgICAgICAgICAgICAgICAgICAgICAgICAgICAgICAgICAgICAgICAgICAgICAhzdHAyQAAAAAEAAAABAAEAAQABAAAAAQABAAAAAQABAAAAAAAAAAEAAQEBAQEB
        AQEBAQEBAQEBAQEBAQEBAQEBAQEBAQEBAQFzdHAzQAAAAAQEBAQEBAQEBAQEBAQEBAQIBAQEBAQEBAQEBAQEBAQEBAQEBAQEBAQEBAQEBAQEBAQEBAQEBAQEBAQEBAQE
        BARzdHA0QAAAAGBgYGBgYGBgYGBgYGBgYGBgYGBgYGBgYGBgYGBgYGBgYGBgYGBgYGBgYGBgYGBgYGBgYGBgYGBgYGBgYGBgYGBzdHA1QAAAAAAAAAAAAAAAAAAAAAAA
        AAAAAAAAAAAAAAAAAAAAAAAAAAAAAAAAAAAAAAAAAAAAAAAAAAAAAAAAAAAAAAAAAABwcm9nEgIAAHByZ3AiAAAAECBkBAABAH8AfwBAAAEAAQAAAAAAAAAAAH8AAAAA
        AAAAAHBnbm0wAAAAU2VxIDJrIEtyYWZ0d2VyazMgKEErQywgRitBKQAAAAAkKr5f/38AAPTw3BUBAAAAc3RwMEAAAAAAAAAAAAD7AAAA+wAAAAAAAAAAAAIAAAAAAAAA
        AAD7AAAAAAAAAAAAAAAAAAAAAAAAAAAAAAAAAAAAAAAAAAAAc3RwMUAAAAAICAgICAgICAgICAgICAgICAgICAgICAgICAgICAgICAgICAgICAgICAgICAgICAgICAgI
        CAgICAgICAgICAgIc3RwMkAAAAABAAAAAQABAAEAAQAAAAEAAQAAAAEAAQAAAAAAAAABAAEBAQEBAQEBAQEBAQEBAQEBAQEBAQEBAQEBAQEBAQEBc3RwM0AAAAAEBAQE
        BAQEBAQEBAQEBAQECAQEBAQEBAQEBAQEBAQEBAQEBAQEBAQEBAQEBAQEBAQEBAQEBAQEBAQEBAQEBAQEc3RwNEAAAABgYGBgYGBgYGBgYGBgYGBgYGBgYGBgYGBgYGBg
        YGBgYGBgYGBgYGBgYGBgYGBgYGBgYGBgYGBgYGBgYGBgYGBgc3RwNUAAAAAAAAAAAAAAAAAAAAAAAAAAAAAAAAAAAAAAAAAAAAAAAAAAAAAAAAAAAAAAAAAAAAAAAAAA
        AAAAAAAAAAAAAAAAcHJvZxICAABwcmdwIgAAABAgZAQAAQB/AH8AQAABAAEAAAAAAAAAAAB/AAAAAAAAAABwZ25tMAAAAFNlcSAyayBLcmFmdHdlcmszIChBK0MsIEYr
        QSkAAAAAJCq+X/9/AAD08NwVAQAAAHN0cDBAAAAAAAAAAAAA+wAAAPsAAAAAAAAAAAACAAAAAAAAAAAA+wAAAAAAAAAAAAAAAAAAAAAAAAAAAAAAAAAAAAAAAAAAAHN0
        cDFAAAAACAgICAgICAgICAgICAgICAgICAgICAgICAgICAgICAgICAgICAgICAgICAgICAgICAgICAgICAgICAgICAgICHN0cDJAAAAAAQAAAAEAAQABAAEAAAABAAEA
        AAABAAEAAAAAAAAAAQABAQEBAQEBAQEBAQEBAQEBAQEBAQEBAQEBAQEBAQEBAXN0cDNAAAAABAQEBAQEBAQEBAQEBAQEBAgEBAQEBAQEBAQEBAQEBAQEBAQEBAQEBAQE
        BAQEBAQEBAQEBAQEBAQEBAQEBAQEBHN0cDRAAAAAYGBgYGBgYGBgYGBgYGBgYGBgYGBgYGBgYGBgYGBgYGBgYGBgYGBgYGBgYGBgYGBgYGBgYGBgYGBgYGBgYGBgYHN0
        cDVAAAAAAAAAAAAAAAAAAAAAAAAAAAAAAAAAAAAAAAAAAAAAAAAAAAAAAAAAAAAAAAAAAAAAAAAAAAAAAAAAAAAAAAAAAHByb2cSAgAAcHJncCIAAAAQIGQEAAEAfwB/
        AEAAAQABAAAAAAAAAAAAfwAAAAAAAAAAcGdubTAAAABTZXEgMmsgS3JhZnR3ZXJrMyAoQStDLCBGK0EpAAAAACQqvl//fwAA9PDcFQEAAABzdHAwQAAAAAAAAAAAAPsA
        AAD7AAAAAAAAAAAAAgAAAAAAAAAAAPsAAAAAAAAAAAAAAAAAAAAAAAAAAAAAAAAAAAAAAAAAAABzdHAxQAAAAAgICAgICAgICAgICAgICAgICAgICAgICAgICAgICAgI
        CAgICAgICAgICAgICAgICAgICAgICAgICAgICAgICAhzdHAyQAAAAAEAAAABAAEAAQABAAAAAQABAAAAAQABAAAAAAAAAAEAAQEBAQEBAQEBAQEBAQEBAQEBAQEBAQEB
        AQEBAQEBAQFzdHAzQAAAAAQEBAQEBAQEBAQEBAQEBAQIBAQEBAQEBAQEBAQEBAQEBAQEBAQEBAQEBAQEBAQEBAQEBAQEBAQEBAQEBAQEBARzdHA0QAAAAGBgYGBgYGBg
        YGBgYGBgYGBgYGBgYGBgYGBgYGBgYGBgYGBgYGBgYGBgYGBgYGBgYGBgYGBgYGBgYGBgYGBgYGBzdHA1QAAAAAAAAAAAAAAAAAAAAAAAAAAAAAAAAAAAAAAAAAAAAAAA
        AAAAAAAAAAAAAAAAAAAAAAAAAAAAAAAAAAAAAAAAAABwcm9nEgIAAHByZ3AiAAAAECBkBAABAH8AfwBAAAEAAQAAAAAAAAAAAH8AAAAAAAAAAHBnbm0wAAAAU2VxIDJr
        IEtyYWZ0d2VyazMgKEErQywgRitBKQAAAAAkKr5f/38AAPTw3BUBAAAAc3RwMEAAAAAAAAAAAAD7AAAA+wAAAAAAAAAAAAIAAAAAAAAAAAD7AAAAAAAAAAAAAAAAAAAA
        AAAAAAAAAAAAAAAAAAAAAAAAc3RwMUAAAAAICAgICAgICAgICAgICAgICAgICAgICAgICAgICAgICAgICAgICAgICAgICAgICAgICAgICAgICAgICAgICAgIc3RwMkAA
        AAABAAAAAQABAAEAAQAAAAEAAQAAAAEAAQAAAAAAAAABAAEBAQEBAQEBAQEBAQEBAQEBAQEBAQEBAQEBAQEBAQEBc3RwM0AAAAAEBAQEBAQEBAQEBAQEBAQECAQEBAQE
        BAQEBAQEBAQEBAQEBAQEBAQEBAQEBAQEBAQEBAQEBAQEBAQEBAQEBAQEc3RwNEAAAABgYGBgYGBgYGBgYGBgYGBgYGBgYGBgYGBgYGBgYGBgYGBgYGBgYGBgYGBgYGBg
        YGBgYGBgYGBgYGBgYGBgYGBgc3RwNUAAAAAAAAAAAAAAAAAAAAAAAAAAAAAAAAAAAAAAAAAAAAAAAAAAAAAAAAAAAAAAAAAAAAAAAAAAAAAAAAAAAAAAAAAAcHJvZxIC
        AABwcmdwIgAAABAgZAQAAQB/AH8AQAABAAEAAAAAAAAAAAB/AAAAAAAAAABwZ25tMAAAAFNlcSAyayBLcmFmdHdlcmszIChBK0MsIEYrQSkAAAAAJCq+X/9/AAD08NwV
        AQAAAHN0cDBAAAAAAAAAAAAA+wAAAPsAAAAAAAAAAAACAAAAAAAAAAAA+wAAAAAAAAAAAAAAAAAAAAAAAAAAAAAAAAAAAAAAAAAAAHN0cDFAAAAACAgICAgICAgICAgI
        CAgICAgICAgICAgICAgICAgICAgICAgICAgICAgICAgICAgICAgICAgICAgICAgICAgICHN0cDJAAAAAAQAAAAEAAQABAAEAAAABAAEAAAABAAEAAAAAAAAAAQABAQEB
        AQEBAQEBAQEBAQEBAQEBAQEBAQEBAQEBAQEBAXN0cDNAAAAABAQEBAQEBAQEBAQEBAQEBAgEBAQEBAQEBAQEBAQEBAQEBAQEBAQEBAQEBAQEBAQEBAQEBAQEBAQEBAQE
        BAQEBHN0cDRAAAAAYGBgYGBgYGBgYGBgYGBgYGBgYGBgYGBgYGBgYGBgYGBgYGBgYGBgYGBgYGBgYGBgYGBgYGBgYGBgYGBgYGBgYHN0cDVAAAAAAAAAAAAAAAAAAAAA
        AAAAAAAAAAAAAAAAAAAAAAAAAAAAAAAAAAAAAAAAAAAAAAAAAAAAAAAAAAAAAAAAAAAAAHByb2cSAgAAcHJncCIAAAAQIGQEAAEAfwB/AEAAAQABAAAAAAAAAAAAfwAA
        AAAAAAAAcGdubTAAAABTZXEgMmsgS3JhZnR3ZXJrMyAoQStDLCBGK0EpAAAAACQqvl//fwAA9PDcFQEAAABzdHAwQAAAAAAAAAAAAPsAAAD7AAAAAAAAAAAAAgAAAAAA
        AAAAAPsAAAAAAAAAAAAAAAAAAAAAAAAAAAAAAAAAAAAAAAAAAABzdHAxQAAAAAgICAgICAgICAgICAgICAgICAgICAgICAgICAgICAgICAgICAgICAgICAgICAgICAgI
        CAgICAgICAgICAgICAhzdHAyQAAAAAEAAAABAAEAAQABAAAAAQABAAAAAQABAAAAAAAAAAEAAQEBAQEBAQEBAQEBAQEBAQEBAQEBAQEBAQEBAQEBAQFzdHAzQAAAAAQE
        BAQEBAQEBAQEBAQEBAQIBAQEBAQEBAQEBAQEBAQEBAQEBAQEBAQEBAQEBAQEBAQEBAQEBAQEBAQEBAQEBARzdHA0QAAAAGBgYGBgYGBgYGBgYGBgYGBgYGBgYGBgYGBg
        YGBgYGBgYGBgYGBgYGBgYGBgYGBgYGBgYGBgYGBgYGBgYGBgYGBzdHA1QAAAAAAAAAAAAAAAAAAAAAAAAAAAAAAAAAAAAAAAAAAAAAAAAAAAAAAAAAAAAAAAAAAAAAAA
        AAAAAAAAAAAAAAAAAABwcm9nEgIAAHByZ3AiAAAAECBkBAABAH8AfwBAAAEAAQAAAAAAAAAAAH8AAAAAAAAAAHBnbm0wAAAAU2VxIDJrIEtyYWZ0d2VyazMgKEErQywg
        RitBKQAAAAAkKr5f/38AAPTw3BUBAAAAc3RwMEAAAAAAAAAAAAD7AAAA+wAAAAAAAAAAAAIAAAAAAAAAAAD7AAAAAAAAAAAAAAAAAAAAAAAAAAAAAAAAAAAAAAAAAAAA
        c3RwMUAAAAAICAgICAgICAgICAgICAgICAgICAgICAgICAgICAgICAgICAgICAgICAgICAgICAgICAgICAgICAgICAgICAgIc3RwMkAAAAABAAAAAQABAAEAAQAAAAEA
        AQAAAAEAAQAAAAAAAAABAAEBAQEBAQEBAQEBAQEBAQEBAQEBAQEBAQEBAQEBAQEBc3RwM0AAAAAEBAQEBAQEBAQEBAQEBAQECAQEBAQEBAQEBAQEBAQEBAQEBAQEBAQE
        BAQEBAQEBAQEBAQEBAQEBAQEBAQEBAQEc3RwNEAAAABgYGBgYGBgYGBgYGBgYGBgYGBgYGBgYGBgYGBgYGBgYGBgYGBgYGBgYGBgYGBgYGBgYGBgYGBgYGBgYGBgYGBg
        c3RwNUAAAAAAAAAAAAAAAAAAAAAAAAAAAAAAAAAAAAAAAAAAAAAAAAAAAAAAAAAAAAAAAAAAAAAAAAAAAAAAAAAAAAAAAAAAcHJvZxICAABwcmdwIgAAABAgZAQAAQB/
        AH8AQAABAAEAAAAAAAAAAAB/AAAAAAAAAABwZ25tMAAAAFNlcSAyayBLcmFmdHdlcmszIChBK0MsIEYrQSkAAAAAJCq+X/9/AAD08NwVAQAAAHN0cDBAAAAAAAAAAAAA
        +wAAAPsAAAAAAAAAAAACAAAAAAAAAAAA+wAAAAAAAAAAAAAAAAAAAAAAAAAAAAAAAAAAAAAAAAAAAHN0cDFAAAAACAgICAgICAgICAgICAgICAgICAgICAgICAgICAgI
        CAgICAgICAgICAgICAgICAgICAgICAgICAgICAgICAgICHN0cDJAAAAAAQAAAAEAAQABAAEAAAABAAEAAAABAAEAAAAAAAAAAQABAQEBAQEBAQEBAQEBAQEBAQEBAQEB
        AQEBAQEBAQEBAXN0cDNAAAAABAQEBAQEBAQEBAQEBAQEBAgEBAQEBAQEBAQEBAQEBAQEBAQEBAQEBAQEBAQEBAQEBAQEBAQEBAQEBAQEBAQEBHN0cDRAAAAAYGBgYGBg
        YGBgYGBgYGBgYGBgYGBgYGBgYGBgYGBgYGBgYGBgYGBgYGBgYGBgYGBgYGBgYGBgYGBgYGBgYGBgYHN0cDVAAAAAAAAAAAAAAAAAAAAAAAAAAAAAAAAAAAAAAAAAAAAA
        AAAAAAAAAAAAAAAAAAAAAAAAAAAAAAAAAAAAAAAAAAAAAHByb2cSAgAAcHJncCIAAAAQIGQEAAEAfwB/AEAAAQABAAAAAAAAAAAAfwAAAAAAAAAAcGdubTAAAABTZXEg
        MmsgS3JhZnR3ZXJrMyAoQStDLCBGK0EpAAAAACQqvl//fwAA9PDcFQEAAABzdHAwQAAAAAAAAAAAAPsAAAD7AAAAAAAAAAAAAgAAAAAAAAAAAPsAAAAAAAAAAAAAAAAA
        AAAAAAAAAAAAAAAAAAAAAAAAAABzdHAxQAAAAAgICAgICAgICAgICAgICAgICAgICAgICAgICAgICAgICAgICAgICAgICAgICAgICAgICAgICAgICAgICAgICAhzdHAy
        QAAAAAEAAAABAAEAAQABAAAAAQABAAAAAQABAAAAAAAAAAEAAQEBAQEBAQEBAQEBAQEBAQEBAQEBAQEBAQEBAQEBAQFzdHAzQAAAAAQEBAQEBAQEBAQEBAQEBAQIBAQE
        BAQEBAQEBAQEBAQEBAQEBAQEBAQEBAQEBAQEBAQEBAQEBAQEBAQEBAQEBARzdHA0QAAAAGBgYGBgYGBgYGBgYGBgYGBgYGBgYGBgYGBgYGBgYGBgYGBgYGBgYGBgYGBg
        YGBgYGBgYGBgYGBgYGBgYGBgYGBzdHA1QAAAAAAAAAAAAAAAAAAAAAAAAAAAAAAAAAAAAAAAAAAAAAAAAAAAAAAAAAAAAAAAAAAAAAAAAAAAAAAAAAAAAAAAAABwcm9n
        EgIAAHByZ3AiAAAAECBkBAABAH8AfwBAAAEAAQAAAAAAAAAAAH8AAAAAAAAAAHBnbm0wAAAAU2VxIDJrIEtyYWZ0d2VyazMgKEErQywgRitBKQAAAAAkKr5f/38AAPTw
        3BUBAAAAc3RwMEAAAAAAAAAAAAD7AAAA+wAAAAAAAAAAAAIAAAAAAAAAAAD7AAAAAAAAAAAAAAAAAAAAAAAAAAAAAAAAAAAAAAAAAAAAc3RwMUAAAAAICAgICAgICAgI
        CAgICAgICAgICAgICAgICAgICAgICAgICAgICAgICAgICAgICAgICAgICAgICAgICAgICAgIc3RwMkAAAAABAAAAAQABAAEAAQAAAAEAAQAAAAEAAQAAAAAAAAABAAEB
        AQEBAQEBAQEBAQEBAQEBAQEBAQEBAQEBAQEBAQEBc3RwM0AAAAAEBAQEBAQEBAQEBAQEBAQECAQEBAQEBAQEBAQEBAQEBAQEBAQEBAQEBAQEBAQEBAQEBAQEBAQEBAQE
        BAQEBAQEc3RwNEAAAABgYGBgYGBgYGBgYGBgYGBgYGBgYGBgYGBgYGBgYGBgYGBgYGBgYGBgYGBgYGBgYGBgYGBgYGBgYGBgYGBgYGBgc3RwNUAAAAAAAAAAAAAAAAAA
        AAAAAAAAAAAAAAAAAAAAAAAAAAAAAAAAAAAAAAAAAAAAAAAAAAAAAAAAAAAAAAAAAAAAAAAAcHJvZxICAABwcmdwIgAAABAgZAQAAQB/AH8AQAABAAEAAAAAAAAAAAB/
        AAAAAAAAAABwZ25tMAAAAFNlcSAyayBLcmFmdHdlcmszIChBK0MsIEYrQSkAAAAAJCq+X/9/AAD08NwVAQAAAHN0cDBAAAAAAAAAAAAA+wAAAPsAAAAAAAAAAAACAAAA
        AAAAAAAA+wAAAAAAAAAAAAAAAAAAAAAAAAAAAAAAAAAAAAAAAAAAAHN0cDFAAAAACAgICAgICAgICAgICAgICAgICAgICAgICAgICAgICAgICAgICAgICAgICAgICAgI
        CAgICAgICAgICAgICAgICHN0cDJAAAAAAQAAAAEAAQABAAEAAAABAAEAAAABAAEAAAAAAAAAAQABAQEBAQEBAQEBAQEBAQEBAQEBAQEBAQEBAQEBAQEBAXN0cDNAAAAA
        BAQEBAQEBAQEBAQEBAQEBAgEBAQEBAQEBAQEBAQEBAQEBAQEBAQEBAQEBAQEBAQEBAQEBAQEBAQEBAQEBAQEBHN0cDRAAAAAYGBgYGBgYGBgYGBgYGBgYGBgYGBgYGBg
        YGBgYGBgYGBgYGBgYGBgYGBgYGBgYGBgYGBgYGBgYGBgYGBgYGBgYHN0cDVAAAAAAAAAAAAAAAAAAAAAAAAAAAAAAAAAAAAAAAAAAAAAAAAAAAAAAAAAAAAAAAAAAAAA
        AAAAAAAAAAAAAAAAAAAAAHByb2cSAgAAcHJncCIAAAAQIGQEAAEAfwB/AEAAAQABAAAAAAAAAAAAfwAAAAAAAAAAcGdubTAAAABTZXEgMmsgS3JhZnR3ZXJrMyAoQStD
        LCBGK0EpAAAAACQqvl//fwAA9PDcFQEAAABzdHAwQAAAAAAAAAAAAPsAAAD7AAAAAAAAAAAAAgAAAAAAAAAAAPsAAAAAAAAAAAAAAAAAAAAAAAAAAAAAAAAAAAAAAAAA
        AABzdHAxQAAAAAgICAgICAgICAgICAgICAgICAgICAgICAgICAgICAgICAgICAgICAgICAgICAgICAgICAgICAgICAgICAgICAhzdHAyQAAAAAEAAAABAAEAAQABAAAA
        AQABAAAAAQABAAAAAAAAAAEAAQEBAQEBAQEBAQEBAQEBAQEBAQEBAQEBAQEBAQEBAQFzdHAzQAAAAAQEBAQEBAQEBAQEBAQEBAQIBAQEBAQEBAQEBAQEBAQEBAQEBAQE
        BAQEBAQEBAQEBAQEBAQEBAQEBAQEBAQEBARzdHA0QAAAAGBgYGBgYGBgYGBgYGBgYGBgYGBgYGBgYGBgYGBgYGBgYGBgYGBgYGBgYGBgYGBgYGBgYGBgYGBgYGBgYGBg
        YGBzdHA1QAAAAAAAAAAAAAAAAAAAAAAAAAAAAAAAAAAAAAAAAAAAAAAAAAAAAAAAAAAAAAAAAAAAAAAAAAAAAAAAAAAAAAAAAABwcm9nEgIAAHByZ3AiAAAAECBkBAAB
        AH8AfwBAAAEAAQAAAAAAAAAAAH8AAAAAAAAAAHBnbm0wAAAAU2VxIDJrIEtyYWZ0d2VyazMgKEErQywgRitBKQAAAAAkKr5f/38AAPTw3BUBAAAAc3RwMEAAAAAAAAAA
        AAD7AAAA+wAAAAAAAAAAAAIAAAAAAAAAAAD7AAAAAAAAAAAAAAAAAAAAAAAAAAAAAAAAAAAAAAAAAAAAc3RwMUAAAAAICAgICAgICAgICAgICAgICAgICAgICAgICAgI
        CAgICAgICAgICAgICAgICAgICAgICAgICAgICAgICAgICAgIc3RwMkAAAAABAAAAAQABAAEAAQAAAAEAAQAAAAEAAQAAAAAAAAABAAEBAQEBAQEBAQEBAQEBAQEBAQEB
        AQEBAQEBAQEBAQEBc3RwM0AAAAAEBAQEBAQEBAQEBAQEBAQECAQEBAQEBAQEBAQEBAQEBAQEBAQEBAQEBAQEBAQEBAQEBAQEBAQEBAQEBAQEBAQEc3RwNEAAAABgYGBg
        YGBgYGBgYGBgYGBgYGBgYGBgYGBgYGBgYGBgYGBgYGBgYGBgYGBgYGBgYGBgYGBgYGBgYGBgYGBgYGBgc3RwNUAAAAAAAAAAAAAAAAAAAAAAAAAAAAAAAAAAAAAAAAAA
        AAAAAAAAAAAAAAAAAAAAAAAAAAAAAAAAAAAAAAAAAAAAAAAAcHJvZxICAABwcmdwIgAAABAgZAQAAQB/AH8AQAABAAEAAAAAAAAAAAB/AAAAAAAAAABwZ25tMAAAAFNl
        cSAyayBLcmFmdHdlcmszIChBK0MsIEYrQSkAAAAAJCq+X/9/AAD08NwVAQAAAHN0cDBAAAAAAAAAAAAA+wAAAPsAAAAAAAAAAAACAAAAAAAAAAAA+wAAAAAAAAAAAAAA
        AAAAAAAAAAAAAAAAAAAAAAAAAAAAAHN0cDFAAAAACAgICAgICAgICAgICAgICAgICAgICAgICAgICAgICAgICAgICAgICAgICAgICAgICAgICAgICAgICAgICAgICHN0
        cDJAAAAAAQAAAAEAAQABAAEAAAABAAEAAAABAAEAAAAAAAAAAQABAQEBAQEBAQEBAQEBAQEBAQEBAQEBAQEBAQEBAQEBAXN0cDNAAAAABAQEBAQEBAQEBAQEBAQEBAgE
        BAQEBAQEBAQEBAQEBAQEBAQEBAQEBAQEBAQEBAQEBAQEBAQEBAQEBAQEBAQEBHN0cDRAAAAAYGBgYGBgYGBgYGBgYGBgYGBgYGBgYGBgYGBgYGBgYGBgYGBgYGBgYGBg
        YGBgYGBgYGBgYGBgYGBgYGBgYGBgYHN0cDVAAAAAAAAAAAAAAAAAAAAAAAAAAAAAAAAAAAAAAAAAAAAAAAAAAAAAAAAAAAAAAAAAAAAAAAAAAAAAAAAAAAAAAAAAAHBy
        b2cSAgAAcHJncCIAAAAQIGQEAAEAfwB/AEAAAQABAAAAAAAAAAAAfwAAAAAAAAAAcGdubTAAAABTZXEgMmsgS3JhZnR3ZXJrMyAoQStDLCBGK0EpAAAAACQqvl//fwAA
        9PDcFQEAAABzdHAwQAAAAAAAAAAAAPsAAAD7AAAAAAAAAAAAAgAAAAAAAAAAAPsAAAAAAAAAAAAAAAAAAAAAAAAAAAAAAAAAAAAAAAAAAABzdHAxQAAAAAgICAgICAgI
        CAgICAgICAgICAgICAgICAgICAgICAgICAgICAgICAgICAgICAgICAgICAgICAgICAgICAgICAhzdHAyQAAAAAEAAAABAAEAAQABAAAAAQABAAAAAQABAAAAAAAAAAEA
        AQEBAQEBAQEBAQEBAQEBAQEBAQEBAQEBAQEBAQEBAQFzdHAzQAAAAAQEBAQEBAQEBAQEBAQEBAQIBAQEBAQEBAQEBAQEBAQEBAQEBAQEBAQEBAQEBAQEBAQEBAQEBAQE
        BAQEBAQEBARzdHA0QAAAAGBgYGBgYGBgYGBgYGBgYGBgYGBgYGBgYGBgYGBgYGBgYGBgYGBgYGBgYGBgYGBgYGBgYGBgYGBgYGBgYGBgYGBzdHA1QAAAAAAAAAAAAAAA
        AAAAAAAAAAAAAAAAAAAAAAAAAAAAAAAAAAAAAAAAAAAAAAAAAAAAAAAAAAAAAAAAAAAAAAAAAABwcm9nEgIAAHByZ3AiAAAAECBkBAABAH8AfwBAAAEAAQAAAAAAAAAA
        AH8AAAAAAAAAAHBnbm0wAAAAU2VxIDJrIEtyYWZ0d2VyazMgKEErQywgRitBKQAAAAAkKr5f/38AAPTw3BUBAAAAc3RwMEAAAAAAAAAAAAD7AAAA+wAAAAAAAAAAAAIA
        AAAAAAAAAAD7AAAAAAAAAAAAAAAAAAAAAAAAAAAAAAAAAAAAAAAAAAAAc3RwMUAAAAAICAgICAgICAgICAgICAgICAgICAgICAgICAgICAgICAgICAgICAgICAgICAgI
        CAgICAgICAgICAgICAgICAgIc3RwMkAAAAABAAAAAQABAAEAAQAAAAEAAQAAAAEAAQAAAAAAAAABAAEBAQEBAQEBAQEBAQEBAQEBAQEBAQEBAQEBAQEBAQEBc3RwM0AA
        AAAEBAQEBAQEBAQEBAQEBAQECAQEBAQEBAQEBAQEBAQEBAQEBAQEBAQEBAQEBAQEBAQEBAQEBAQEBAQEBAQEBAQEc3RwNEAAAABgYGBgYGBgYGBgYGBgYGBgYGBgYGBg
        YGBgYGBgYGBgYGBgYGBgYGBgYGBgYGBgYGBgYGBgYGBgYGBgYGBgYGBgc3RwNUAAAAAAAAAAAAAAAAAAAAAAAAAAAAAAAAAAAAAAAAAAAAAAAAAAAAAAAAAAAAAAAAAA
        AAAAAAAAAAAAAAAAAAAAAAAAcHJvZxICAABwcmdwIgAAABAgZAQAAQB/AH8AQAABAAEAAAAAAAAAAAB/AAAAAAAAAABwZ25tMAAAAFNlcSAyayBLcmFmdHdlcmszIChB
        K0MsIEYrQSkAAAAAJCq+X/9/AAD08NwVAQAAAHN0cDBAAAAAAAAAAAAA+wAAAPsAAAAAAAAAAAACAAAAAAAAAAAA+wAAAAAAAAAAAAAAAAAAAAAAAAAAAAAAAAAAAAAA
        AAAAAHN0cDFAAAAACAgICAgICAgICAgICAgICAgICAgICAgICAgICAgICAgICAgICAgICAgICAgICAgICAgICAgICAgICAgICAgICHN0cDJAAAAAAQAAAAEAAQABAAEA
        AAABAAEAAAABAAEAAAAAAAAAAQABAQEBAQEBAQEBAQEBAQEBAQEBAQEBAQEBAQEBAQEBAXN0cDNAAAAABAQEBAQEBAQEBAQEBAQEBAgEBAQEBAQEBAQEBAQEBAQEBAQE
        BAQEBAQEBAQEBAQEBAQEBAQEBAQEBAQEBAQEBHN0cDRAAAAAYGBgYGBgYGBgYGBgYGBgYGBgYGBgYGBgYGBgYGBgYGBgYGBgYGBgYGBgYGBgYGBgYGBgYGBgYGBgYGBg
        YGBgYHN0cDVAAAAAAAAAAAAAAAAAAAAAAAAAAAAAAAAAAAAAAAAAAAAAAAAAAAAAAAAAAAAAAAAAAAAAAAAAAAAAAAAAAAAAAAAAAHByb2cSAgAAcHJncCIAAAAQIGQE
        AAEAfwB/AEAAAQABAAAAAAAAAAAAfwAAAAAAAAAAcGdubTAAAABTZXEgMmsgS3JhZnR3ZXJrMyAoQStDLCBGK0EpAAAAACQqvl//fwAA9PDcFQEAAABzdHAwQAAAAAAA
        AAAAAPsAAAD7AAAAAAAAAAAAAgAAAAAAAAAAAPsAAAAAAAAAAAAAAAAAAAAAAAAAAAAAAAAAAAAAAAAAAABzdHAxQAAAAAgICAgICAgICAgICAgICAgICAgICAgICAgI
        CAgICAgICAgICAgICAgICAgICAgICAgICAgICAgICAgICAgICAhzdHAyQAAAAAEAAAABAAEAAQABAAAAAQABAAAAAQABAAAAAAAAAAEAAQEBAQEBAQEBAQEBAQEBAQEB
        AQEBAQEBAQEBAQEBAQFzdHAzQAAAAAQEBAQEBAQEBAQEBAQEBAQIBAQEBAQEBAQEBAQEBAQEBAQEBAQEBAQEBAQEBAQEBAQEBAQEBAQEBAQEBAQEBARzdHA0QAAAAGBg
        YGBgYGBgYGBgYGBgYGBgYGBgYGBgYGBgYGBgYGBgYGBgYGBgYGBgYGBgYGBgYGBgYGBgYGBgYGBgYGBgYGBzdHA1QAAAAAAAAAAAAAAAAAAAAAAAAAAAAAAAAAAAAAAA
        AAAAAAAAAAAAAAAAAAAAAAAAAAAAAAAAAAAAAAAAAAAAAAAAAABwcm9nEgIAAHByZ3AiAAAAECBkBAABAH8AfwBAAAEAAQAAAAAAAAAAAH8AAAAAAAAAAHBnbm0wAAAA
        U2VxIDJrIEtyYWZ0d2VyazMgKEErQywgRitBKQAAAAAkKr5f/38AAPTw3BUBAAAAc3RwMEAAAAAAAAAAAAD7AAAA+wAAAAAAAAAAAAIAAAAAAAAAAAD7AAAAAAAAAAAA
        AAAAAAAAAAAAAAAAAAAAAAAAAAAAAAAAc3RwMUAAAAAICAgICAgICAgICAgICAgICAgICAgICAgICAgICAgICAgICAgICAgICAgICAgICAgICAgICAgICAgICAgICAgI
        c3RwMkAAAAABAAAAAQABAAEAAQAAAAEAAQAAAAEAAQAAAAAAAAABAAEBAQEBAQEBAQEBAQEBAQEBAQEBAQEBAQEBAQEBAQEBc3RwM0AAAAAEBAQEBAQEBAQEBAQEBAQE
        CAQEBAQEBAQEBAQEBAQEBAQEBAQEBAQEBAQEBAQEBAQEBAQEBAQEBAQEBAQEBAQEc3RwNEAAAABgYGBgYGBgYGBgYGBgYGBgYGBgYGBgYGBgYGBgYGBgYGBgYGBgYGBg
        YGBgYGBgYGBgYGBgYGBgYGBgYGBgYGBgc3RwNUAAAAAAAAAAAAAAAAAAAAAAAAAAAAAAAAAAAAAAAAAAAAAAAAAAAAAAAAAAAAAAAAAAAAAAAAAAAAAAAAAAAAAAAAAA
        cHJvZxICAABwcmdwIgAAABAgZAQAAQB/AH8AQAABAAEAAAAAAAAAAAB/AAAAAAAAAABwZ25tMAAAAFNlcSAyayBLcmFmdHdlcmszIChBK0MsIEYrQSkAAAAAJCq+X/9/
        AAD08NwVAQAAAHN0cDBAAAAAAAAAAAAA+wAAAPsAAAAAAAAAAAACAAAAAAAAAAAA+wAAAAAAAAAAAAAAAAAAAAAAAAAAAAAAAAAAAAAAAAAAAHN0cDFAAAAACAgICAgI
        CAgICAgICAgICAgICAgICAgICAgICAgICAgICAgICAgICAgICAgICAgICAgICAgICAgICAgICAgICHN0cDJAAAAAAQAAAAEAAQABAAEAAAABAAEAAAABAAEAAAAAAAAA
        AQABAQEBAQEBAQEBAQEBAQEBAQEBAQEBAQEBAQEBAQEBAXN0cDNAAAAABAQEBAQEBAQEBAQEBAQEBAgEBAQEBAQEBAQEBAQEBAQEBAQEBAQEBAQEBAQEBAQEBAQEBAQE
        BAQEBAQEBAQEBHN0cDRAAAAAYGBgYGBgYGBgYGBgYGBgYGBgYGBgYGBgYGBgYGBgYGBgYGBgYGBgYGBgYGBgYGBgYGBgYGBgYGBgYGBgYGBgYHN0cDVAAAAAAAAAAAAA
        AAAAAAAAAAAAAAAAAAAAAAAAAAAAAAAAAAAAAAAAAAAAAAAAAAAAAAAAAAAAAAAAAAAAAAAAAAAAAHByb2cSAgAAcHJncCIAAAAQIGQEAAEAfwB/AEAAAQABAAAAAAAA
        AAAAfwAAAAAAAAAAcGdubTAAAABTZXEgMmsgS3JhZnR3ZXJrMyAoQStDLCBGK0EpAAAAACQqvl//fwAA9PDcFQEAAABzdHAwQAAAAAAAAAAAAPsAAAD7AAAAAAAAAAAA
        AgAAAAAAAAAAAPsAAAAAAAAAAAAAAAAAAAAAAAAAAAAAAAAAAAAAAAAAAABzdHAxQAAAAAgICAgICAgICAgICAgICAgICAgICAgICAgICAgICAgICAgICAgICAgICAgI
        CAgICAgICAgICAgICAgICAgICAhzdHAyQAAAAAEAAAABAAEAAQABAAAAAQABAAAAAQABAAAAAAAAAAEAAQEBAQEBAQEBAQEBAQEBAQEBAQEBAQEBAQEBAQEBAQFzdHAz
        QAAAAAQEBAQEBAQEBAQEBAQEBAQIBAQEBAQEBAQEBAQEBAQEBAQEBAQEBAQEBAQEBAQEBAQEBAQEBAQEBAQEBAQEBARzdHA0QAAAAGBgYGBgYGBgYGBgYGBgYGBgYGBg
        YGBgYGBgYGBgYGBgYGBgYGBgYGBgYGBgYGBgYGBgYGBgYGBgYGBgYGBgYGBzdHA1QAAAAAAAAAAAAAAAAAAAAAAAAAAAAAAAAAAAAAAAAAAAAAAAAAAAAAAAAAAAAAAA
        AAAAAAAAAAAAAAAAAAAAAAAAAABwcm9nEgIAAHByZ3AiAAAAECBkBAABAH8AfwBAAAEAAQAAAAAAAAAAAH8AAAAAAAAAAHBnbm0wAAAAU2VxIDJrIEtyYWZ0d2VyazMg
        KEErQywgRitBKQAAAAAkKr5f/38AAPTw3BUBAAAAc3RwMEAAAAAAAAAAAAD7AAAA+wAAAAAAAAAAAAIAAAAAAAAAAAD7AAAAAAAAAAAAAAAAAAAAAAAAAAAAAAAAAAAA
        AAAAAAAAc3RwMUAAAAAICAgICAgICAgICAgICAgICAgICAgICAgICAgICAgICAgICAgICAgICAgICAgICAgICAgICAgICAgICAgICAgIc3RwMkAAAAABAAAAAQABAAEA
        AQAAAAEAAQAAAAEAAQAAAAAAAAABAAEBAQEBAQEBAQEBAQEBAQEBAQEBAQEBAQEBAQEBAQEBc3RwM0AAAAAEBAQEBAQEBAQEBAQEBAQECAQEBAQEBAQEBAQEBAQEBAQE
        BAQEBAQEBAQEBAQEBAQEBAQEBAQEBAQEBAQEBAQEc3RwNEAAAABgYGBgYGBgYGBgYGBgYGBgYGBgYGBgYGBgYGBgYGBgYGBgYGBgYGBgYGBgYGBgYGBgYGBgYGBgYGBg
        YGBgYGBgc3RwNUAAAAAAAAAAAAAAAAAAAAAAAAAAAAAAAAAAAAAAAAAAAAAAAAAAAAAAAAAAAAAAAAAAAAAAAAAAAAAAAAAAAAAAAAAA
        AC0gSW5pdGlhbCBwcm9ncmFtIC0AEAAAAA==
      >
      PRESETNAME "- Initial program -"
      FLOATPOS 203 36 810 615
      FXID {007FB9B4-58B7-9343-9460-2E23A6E78A60}
      WAK 0
      BYPASS 0 0 0
      <VST "VSTi: chipsounds (Plogue Art et Technologie, Inc)" chipsounds.vst 0 "" 1347176271
        T0dMUO5e7f4AAAAABAAAAAEAAAAAAAAAAgAAAAAAAAAEAAAAAAAAAAgAAAAAAAAApwQAAAEAAAAAABAA
        Q0VHUJ8YAAB4nO1ZXW/bNhR9z68Q9LQ9VCIpUiQBO4XjJIOBZQ3g7LlgZNYRKkuaRGVtf/2uJDumk9BSm3QoivIl1PX9OocUeaBM3n7aZN69ruq0yKc+DpDvvT09mcyq
        VC3VvbZ+kjj2vbIqVk1iFudgQEj6pycejMlSG5Pm69r7p1FZaj7Dr75Xm0qrDZinfkR8b6M+LTvLLMuK5Ops6jMM5qvF+eJdY66Kle6iVGOKjTJQc5kVZuoj25Tpe51N
        /TSH3M1G58b3svRe98HgWSdto5S2M5UpsGHvjafbroI6ybbmOQTqaurHELHOiluV3TR51ycYwh0kqO6lq86Wq02bHwfedVNpb36XluFycR7GTGDvt79ulvPffe9W5R8X
        qy0vFm+CAMrkTuV52zpkK4sMCIIezb5qefu+UvkaqrwBDkoDD3X3w8aaFomBJXkAysDUmO3zv+8zVZs2bd9/h+FKpfkOw73Kmp7h8DkP/OCBHB5k0CMa9KCDHmzQIx70
        4IMeYtBDDnpgNOwyzCoephUP84qHicVOZq9VpTbHl3jv4iy0d+GuzbZ3sbkLqGSoHZTHIuLtKeMIsngICHO6Udstkt2gccSYIM6YMT1bWyLApM/LSIRjIqiTCxtohPsg
        8OeUEidQjm12UB8UUxJx0nLgCCJ2e6JjFHHMCGPc3d4BpVEfRDEnEWFOIrhNcNwTLFgsqRDM3Z61/QLeV8IS8YiK2B0UH2DqtwmJBIW5cAZZL3cAaHr6hBCEwqo5UQm7
        1pYJjCVBkkhnjPz6GIkOMPXd8RjDVULd+zOytwQXnCLMgPJYxOJIpX0p516TaJ/ZWV4iMvx+SDTibJAoHpNJjHGSY86ZMZ1jgiKX142q1tpsFUBSbILrrFg3OmgFUvDn
        5bugqXWFrEu3i5o3NUiWc2WUd2c+lxDKOIN+6/QLzKmw9AFQpfNVqvrpCkJgshuX/R+CXnccQgx7jCNA31Tpeq2rJQgqnSe6GoZNIxo9wOYWbPIcbLxFvR2oe6X4JSIw
        RxeC48dAojm/lCMAY0S/GfTBSuOfZ6UnYStxH6td/KpqF+/ULtmrXfyacpf8kru/5O63yl37ToUzIo55986A4kJR7LxWbZ0lEWNw4XNGhIgkdt4wB5KU0xgxKSRlMQbJ
        +1oy2imIuXPlHJKT0U5pASFCwhHsTmyrRyTpVmghDrpunHqMesYHpf+BeiRYjqvkfHVepvpsXeVU1rauOqJhvoeuOiLj/g9d9WMppieS4dG4ePE9Oh70TyQejoJ+mUzE
        EftanXjWPrU6ETN0xi/PniBx68SdpoQjGcaMRS2X8x/W+ky/YyXexYcPOjH2Z82tqurXb7a5TdvVGpB2u8+jf/y92KVRiUnv9WL/ubZ7vnh4rnUGhfXqRt22z/aBUula
        myudN15a79xNB+D4hvKM/gQuZ6quQT4qczf1w1lZZmnSfSauwz4QhGha1kWTr8DS1arDI2nDfmN6YE8+1mGbPVDwApePjsEnXeNnu55VpV6vU2WKfcNZWr6gYStj2KZ6
        SXcuTqGDja7Ud6B1230Bzn2NR+1PQthUpyeTcPfPh9OT/wCTrTVp
        AAAQAAAA
      >
      FLOATPOS 409 269 871 509
      FXID {DC79668B-30D1-964C-A162-F245DBE294B0}
      WAK 0
      BYPASS 0 0 0
      <VST "VST: 8-Bit Shaper (Xfer Records)" 8BitShaper.vst 0 "" 1148539762
        clN1RO5e7f4CAAAAAQAAAAAAAAACAAAAAAAAAAQAAAABAAAAAAAAAAIAAAAAAAAABAAAAAAAAAAIAAAAAAAAADQCAAABAAAAAAAQAA==
        ZmaGP20MlT7dQQw/AAAAP2AA//8AAIA/L1VzZXJzL3MXAAAAMAAAABkAAAAaAAAAGgAAABoAAAAbAAAAGwAAABwAAAAcAAAAHAAAAB0AAAAdAAAAHgAAAB4AAAAfAAAA
        HwAAACAAAAAgAAAAIAAAACEAAAAhAAAAIQAAACIAAAAiAAAAIgAAACMAAAAjAAAAIwAAACQAAAAkAAAAJAAAACUAAAAlAAAAKAAAACgAAAApAAAAKQAAACoAAAA1AAAA
        KgAAACoAAAA2AAAAKgAAACoAAAAqAAAAKgAAACoAAAAqAAAAKgAAACsAAAArAAAAOQAAAC0AAAA0AAAAOgAAAC0AAAAtAAAAPAAAAC4AAAAuAAAALwAAADAAAAAwAAAA
        MQAAADEAAAAxAAAAMgAAADMAAAAzAAAAMwAAADcAAAA3AAAANwAAADgAAAA4AAAAOAAAADkAAAA5AAAAOQAAADoAAAA6AAAAOgAAADoAAAA6AAAAOwAAADsAAAA7AAAA
        PAAAADsAAAA7AAAAOwAAADwAAAA8AAAAPAAAADwAAAA9AAAAPQAAAD0AAAA9AAAAPQAAAD4AAAA+AAAAPwAAAEkAAABAAAAAQAAAAEgAAABAAAAAQQAAAEIAAABCAAAA
        QgAAAEMAAABDAAAAQwAAAEQAAABEAAAARQAAAE0AAABGAAAARwAAAEYAAABHAAAASAAAAEgAAABJAAAATwAAAAAAgD+rqqo+q6qqPh0Fwz6OAm0/
        AEluaXQgMQAQAAAA
      >
      PRESETNAME "Init 1"
      FLOATPOS 0 0 0 0
      FXID {8D41C7C8-FDD9-0B46-8F32-7407BD5E7789}
      WAK 0
    >
    <ITEM
      POSITION 0
      SNAPOFFS 0
      LENGTH 55
      LOOP 1
      ALLTAKES 0
      FADEIN 1 0 0 1 0 0
      FADEOUT 1 0 0 1 0 0
      MUTE 0
      SEL 0
      YPOS 0.5 0.25
      IGUID {6AF1BD51-307D-2444-9BFC-47951D7BC8D6}
      IID 8
      NAME "rh                   - National_Anthems_-_Czech_Republic.mid"
      VOLPAN 1 0 1 -1
      SOFFS 0 0
      PLAYRATE 1 1 0 -1 0 0.0025
      CHANMODE 0
      TAKECOLOR 26173599 B
      GUID {6E2E7799-859A-A54D-82D0-B07745E4147D}
      <SOURCE MIDI
        HASDATA 1 192 QN
        POOLEDEVTS {A0572FBA-6DBC-1B47-BAC8-7DF14338B5EC}
        <X 0 0 0 0 3 "rh                  "
          /wNyaCAgICAgICAgICAgICAgICAgIA==
        >
        e 192 90 3e 64
        e 0 90 42 64
        e 0 90 45 64
        e 382 80 3e 40
        e 0 80 42 40
        e 0 80 45 40
        e 2 90 3e 64
        e 0 90 43 64
        e 0 90 47 64
        e 94 80 3e 40
        e 0 80 43 40
        e 0 80 47 40
        e 2 90 3e 64
        e 0 90 42 64
        e 0 90 45 64
        e 94 80 3e 40
        e 0 80 42 40
        e 0 80 45 40
        e 2 90 3b 64
        e 0 90 40 64
        e 190 80 3b 40
        e 0 80 40 40
        e 2 90 3b 64
        e 0 90 3d 64
        e 0 90 43 64
        e 382 80 3b 40
        e 0 80 3d 40
        e 0 80 43 40
        e 2 90 39 64
        e 0 90 3d 64
        e 0 90 42 64
        e 94 80 39 40
        e 0 80 3d 40
        e 0 80 42 40
        e 2 90 37 64
        e 0 90 40 64
        e 94 80 37 40
        e 0 80 40 40
        e 2 90 36 64
        e 0 90 3e 64
        e 574 80 36 40
        e 0 80 3e 40
        e 2 90 36 64
        e 0 90 3c 64
        e 0 90 3e 64
        e 142 80 3e 40
        e 48 80 36 40
        e 0 80 3c 40
        e 2 90 3b 64
        e 0 90 3e 64
        e 94 80 3b 40
        e 0 80 3e 40
        e 2 90 43 64
        e 94 80 43 40
        e 2 90 3b 64
        e 0 90 3e 64
        e 0 90 43 64
        e 382 80 3b 40
        e 0 80 3e 40
        e 0 80 43 40
        e 2 90 39 64
        e 0 90 3e 64
        e 0 90 45 64
        e 94 80 39 40
        e 0 80 3e 40
        e 0 80 45 40
        e 2 90 3b 64
        e 0 90 47 64
        e 94 80 3b 40
        e 0 80 47 40
        e 2 90 39 64
        e 0 90 3d 64
        e 0 90 45 64
        e 94 80 39 40
        e 0 80 3d 40
        e 0 80 45 40
        e 2 90 42 64
        e 94 80 42 40
        e 2 90 36 64
        e 0 90 3b 64
        e 0 90 3e 64
        e 190 80 3b 40
        e 192 80 36 40
        e 0 80 3e 40
        e 2 90 36 64
        e 0 90 39 64
        e 0 90 3e 64
        e 94 80 39 40
        e 0 80 3e 40
        e 2 90 3e 64
        e 22 80 36 40
        e 74 80 3e 40
        e 0 90 37 64
        e 0 90 3e 64
        e 94 80 37 40
        e 0 80 3e 40
        e 2 90 43 64
        e 94 80 43 40
        e 2 90 3b 64
        e 0 90 3e 64
        e 0 90 43 64
        e 94 80 3b 40
        e 0 80 3e 40
        e 0 80 43 40
        e 2 90 47 64
        e 94 80 47 40
        e 2 90 3e 64
        e 0 90 47 64
        e 0 90 4a 64
        e 190 80 3e 40
        e 0 80 47 40
        e 0 80 4a 40
        e 2 90 3d 64
        e 0 90 45 64
        e 0 90 49 64
        e 94 80 3d 40
        e 0 80 45 40
        e 0 80 49 40
        e 2 90 3b 64
        e 0 90 44 64
        e 0 90 47 64
        e 94 80 3b 40
        e 0 80 44 40
        e 0 80 47 40
        e 2 90 3b 64
        e 0 90 44 64
        e 0 90 47 64
        e 190 80 3b 40
        e 0 80 44 40
        e 0 80 47 40
        e 2 90 39 64
        e 0 90 42 64
        e 0 90 45 64
        e 94 80 39 40
        e 2 90 3b 64
        e 94 80 3b 40
        e 2 90 3d 64
        e 190 80 42 40
        e 0 80 45 40
        e 2 90 45 64
        e 142 80 45 40
        e 2 90 45 64
        e 46 80 3d 40
        e 0 80 45 40
        e 2 90 3d 64
        e 0 90 43 64
        e 0 90 45 64
        e 462 80 3d 40
        e 0 80 43 40
        e 0 80 45 40
        e 18 90 3b 64
        e 0 90 43 64
        e 0 90 47 64
        e 94 80 3b 40
        e 0 80 43 40
        e 0 80 47 40
        e 2 90 3c 64
        e 0 90 42 64
        e 0 90 45 64
        e 94 80 3c 40
        e 0 80 42 40
        e 0 80 45 40
        e 2 90 3d 64
        e 0 90 40 64
        e 0 90 43 64
        e 94 80 3d 40
        e 0 80 40 40
        e 0 80 43 40
        e 2 90 3e 64
        e 0 90 42 64
        e 574 80 3e 40
        e 0 80 42 40
        e 2 90 3e 64
        e 0 90 42 64
        e 0 90 45 64
        e 142 80 3e 40
        e 0 80 42 40
        e 0 80 45 40
        e 2 90 45 64
        e 46 80 45 40
        e 2 90 40 64
        e 0 90 43 64
        e 0 90 49 64
        e 414 80 40 40
        e 0 80 43 40
        e 0 80 49 40
        e 66 90 3b 64
        e 0 90 43 64
        e 0 90 47 64
        e 94 80 3b 40
        e 0 80 43 40
        e 0 80 47 40
        e 2 90 3c 64
        e 0 90 42 64
        e 0 90 45 64
        e 94 80 3c 40
        e 0 80 42 40
        e 0 80 45 40
        e 2 90 3d 64
        e 0 90 40 64
        e 0 90 43 64
        e 94 80 3d 40
        e 0 80 40 40
        e 0 80 43 40
        e 2 90 3e 64
        e 0 90 42 64
        e 574 80 3e 40
        e 0 80 42 40
        e 2 90 3a 64
        e 0 90 40 64
        e 0 90 42 64
        e 142 80 42 40
        e 2 90 42 64
        e 46 80 3a 40
        e 0 80 40 40
        e 0 80 42 40
        e 2 90 3b 64
        e 0 90 3e 64
        e 0 90 42 64
        e 190 80 3b 40
        e 0 80 3e 40
        e 2 90 3b 64
        e 0 90 3e 64
        e 190 80 3b 40
        e 0 80 3e 40
        e 2 90 3a 64
        e 0 90 40 64
        e 30 80 42 40
        e 66 90 42 64
        e 94 80 3a 40
        e 0 80 40 40
        e 0 80 42 40
        e 2 90 3e 64
        e 0 90 42 64
        e 0 90 44 64
        e 94 80 3e 40
        e 0 80 42 40
        e 0 80 44 40
        e 2 90 3d 64
        e 0 90 40 64
        e 0 90 46 64
        e 94 80 3d 40
        e 0 80 40 40
        e 0 80 46 40
        e 2 90 3d 64
        e 0 90 40 64
        e 0 90 46 64
        e 94 80 3d 40
        e 0 80 40 40
        e 0 80 46 40
        e 2 90 3b 64
        e 0 90 3d 64
        e 0 90 3e 64
        e 0 90 47 64
        e 94 80 3b 40
        e 0 80 3d 40
        e 0 80 3e 40
        e 0 80 47 40
        e 2 90 3b 64
        e 0 90 3e 64
        e 0 90 47 64
        e 382 80 3b 40
        e 0 80 3e 40
        e 0 80 47 40
        e 2 90 3b 64
        e 0 90 43 64
        e 0 90 47 64
        e 142 80 47 40
        e 2 90 47 64
        e 46 80 3b 40
        e 0 80 43 40
        e 0 80 47 40
        e 2 90 40 64
        e 0 90 43 64
        e 0 90 47 64
        e 94 80 47 40
        e 2 90 45 64
        e 94 80 40 40
        e 0 80 43 40
        e 0 80 45 40
        e 2 90 3d 64
        e 0 90 43 64
        e 0 90 45 64
        e 382 80 3d 40
        e 0 80 43 40
        e 0 80 45 40
        e 2 90 3d 64
        e 0 90 43 64
        e 94 80 43 40
        e 96 80 3d 40
        e 2 90 3e 64
        e 0 90 42 64
        e 190 80 3e 40
        e 0 80 42 40
        e 2 90 42 64
        e 0 90 47 64
        e 0 90 4a 64
        e 382 80 42 40
        e 0 80 47 40
        e 0 80 4a 40
        e 2 90 3e 64
        e 0 90 45 64
        e 0 90 49 64
        e 94 80 45 40
        e 0 80 49 40
        e 2 90 43 64
        e 0 90 47 64
        e 94 80 3e 40
        e 0 80 43 40
        e 0 80 47 40
        e 2 90 3e 64
        e 0 90 42 64
        e 0 90 47 64
        e 190 80 47 40
        e 2 90 45 64
        e 190 80 3e 40
        e 0 80 42 40
        e 192 80 45 40
        e 2 90 37 64
        e 0 90 3d 64
        e 0 90 40 64
        e 94 80 37 40
        e 2 90 42 64
        e 94 80 3d 40
        e 0 80 40 40
        e 0 80 42 40
        e 2 90 36 64
        e 0 90 3e 64
        e 382 80 36 40
        e 0 80 3e 40
        e 386 90 42 64
        e 94 80 42 40
        e 2 90 44 64
        e 94 80 44 40
        e 2 90 3d 64
        e 0 90 42 64
        e 0 90 45 64
        e 190 80 3d 40
        e 0 80 42 40
        e 0 80 45 40
        e 2 90 3d 64
        e 0 90 42 64
        e 0 90 45 64
        e 190 80 3d 40
        e 0 80 42 40
        e 0 80 45 40
        e 2 90 3e 64
        e 0 90 42 64
        e 0 90 45 64
        e 94 80 3e 40
        e 0 80 42 40
        e 0 80 45 40
        e 2 90 3d 64
        e 0 90 42 64
        e 0 90 45 64
        e 94 80 3d 40
        e 0 80 42 40
        e 0 80 45 40
        e 2 90 3b 64
        e 0 90 42 64
        e 0 90 44 64
        e 94 80 3b 40
        e 0 80 42 40
        e 0 80 44 40
        e 2 90 3d 64
        e 0 90 42 64
        e 0 90 45 64
        e 94 80 3d 40
        e 0 80 42 40
        e 0 80 45 40
        e 2 90 3e 64
        e 0 90 42 64
        e 0 90 47 64
        e 94 80 3e 40
        e 0 80 42 40
        e 0 80 47 40
        e 2 90 3d 64
        e 0 90 42 64
        e 0 90 45 64
        e 94 80 3d 40
        e 0 80 42 40
        e 0 80 45 40
        e 2 90 3b 64
        e 0 90 42 64
        e 0 90 44 64
        e 94 80 42 40
        e 2 90 41 64
        e 94 80 3b 40
        e 0 80 44 40
        e 0 80 41 40
        e 2 90 39 64
        e 0 90 3d 64
        e 0 90 42 64
        e 190 80 39 40
        e 0 80 3d 40
        e 0 80 42 40
        e 2 90 45 64
        e 94 80 45 40
        e 2 90 47 64
        e 94 80 47 40
        e 2 90 40 64
        e 0 90 45 64
        e 0 90 49 64
        e 190 80 40 40
        e 0 80 45 40
        e 0 80 49 40
        e 2 90 40 64
        e 0 90 45 64
        e 0 90 49 64
        e 190 80 40 40
        e 0 80 45 40
        e 0 80 49 40
        e 2 90 42 64
        e 0 90 45 64
        e 0 90 49 64
        e 94 80 42 40
        e 0 80 45 40
        e 0 80 49 40
        e 2 90 40 64
        e 0 90 45 64
        e 0 90 49 64
        e 94 80 40 40
        e 0 80 45 40
        e 0 80 49 40
        e 2 90 3e 64
        e 0 90 45 64
        e 0 90 47 64
        e 94 80 3e 40
        e 0 80 45 40
        e 0 80 47 40
        e 2 90 40 64
        e 0 90 45 64
        e 0 90 49 64
        e 94 80 40 40
        e 0 80 45 40
        e 0 80 49 40
        e 2 90 42 64
        e 0 90 45 64
        e 0 90 4a 64
        e 94 80 42 40
        e 0 80 45 40
        e 0 80 4a 40
        e 2 90 40 64
        e 0 90 45 64
        e 0 90 49 64
        e 94 80 40 40
        e 0 80 45 40
        e 0 80 49 40
        e 2 90 3e 64
        e 0 90 45 64
        e 0 90 47 64
        e 94 80 45 40
        e 2 90 44 64
        e 94 80 3e 40
        e 0 80 47 40
        e 0 80 44 40
        e 2 90 3d 64
        e 0 90 40 64
        e 0 90 45 64
        e 190 80 3d 40
        e 0 80 40 40
        e 0 80 45 40
        e 2 90 40 64
        e 0 90 45 64
        e 0 90 49 64
        e 94 80 40 40
        e 0 80 45 40
        e 0 80 49 40
        e 2 90 40 64
        e 0 90 45 64
        e 0 90 49 64
        e 94 80 40 40
        e 0 80 45 40
        e 0 80 49 40
        e 2 90 40 64
        e 0 90 45 64
        e 0 90 49 64
        e 190 80 40 40
        e 0 80 45 40
        e 0 80 49 40
        e 2 90 3e 64
        e 0 90 42 64
        e 0 90 47 64
        e 190 80 3e 40
        e 0 80 42 40
        e 0 80 47 40
        e 2 90 3e 64
        e 0 90 42 64
        e 0 90 47 64
        e 94 80 3e 40
        e 0 80 42 40
        e 0 80 47 40
        e 2 90 3e 64
        e 0 90 42 64
        e 0 90 47 64
        e 94 80 3e 40
        e 0 80 42 40
        e 0 80 47 40
        e 2 90 3e 64
        e 0 90 44 64
        e 0 90 47 64
        e 94 80 3e 40
        e 0 80 44 40
        e 0 80 47 40
        e 2 90 40 64
        e 0 90 44 64
        e 0 90 49 64
        e 94 80 40 40
        e 0 80 44 40
        e 0 80 49 40
        e 2 90 3e 64
        e 0 90 42 64
        e 0 90 47 64
        e 94 80 42 40
        e 2 90 44 64
        e 94 80 3e 40
        e 0 80 47 40
        e 0 80 44 40
        e 2 90 3d 64
        e 0 90 42 64
        e 0 90 45 64
        e 190 80 3d 40
        e 0 80 42 40
        e 0 80 45 40
        e 2 90 3e 64
        e 0 90 42 64
        e 0 90 45 64
        e 94 80 3e 40
        e 0 80 42 40
        e 0 80 45 40
        e 2 90 3d 64
        e 0 90 42 64
        e 0 90 45 64
        e 94 80 3d 40
        e 0 80 42 40
        e 0 80 45 40
        e 2 90 3b 64
        e 0 90 42 64
        e 0 90 44 64
        e 94 80 3b 40
        e 0 80 42 40
        e 0 80 44 40
        e 2 90 3d 64
        e 0 90 42 64
        e 0 90 45 64
        e 94 80 3d 40
        e 0 80 42 40
        e 0 80 45 40
        e 2 90 3e 64
        e 0 90 42 64
        e 0 90 47 64
        e 94 80 3e 40
        e 0 80 42 40
        e 0 80 47 40
        e 2 90 3d 64
        e 0 90 42 64
        e 0 90 45 64
        e 94 80 3d 40
        e 0 80 42 40
        e 0 80 45 40
        e 2 90 3b 64
        e 0 90 42 64
        e 0 90 44 64
        e 94 80 42 40
        e 2 90 41 64
        e 94 80 3b 40
        e 0 80 44 40
        e 0 80 41 40
        e 2 90 39 64
        e 0 90 3d 64
        e 0 90 42 64
        e 190 80 39 40
        e 0 80 3d 40
        e 0 80 42 40
        e 2 90 40 64
        e 0 90 45 64
        e 0 90 49 64
        e 94 80 40 40
        e 0 80 45 40
        e 0 80 49 40
        e 2 90 40 64
        e 0 90 45 64
        e 0 90 49 64
        e 94 80 40 40
        e 0 80 45 40
        e 0 80 49 40
        e 2 90 40 64
        e 0 90 45 64
        e 0 90 49 64
        e 190 80 40 40
        e 0 80 45 40
        e 0 80 49 40
        e 2 90 3e 64
        e 0 90 42 64
        e 0 90 47 64
        e 190 80 3e 40
        e 0 80 42 40
        e 0 80 47 40
        e 2 90 3e 64
        e 0 90 42 64
        e 0 90 47 64
        e 94 80 3e 40
        e 0 80 42 40
        e 0 80 47 40
        e 2 90 3e 64
        e 0 90 42 64
        e 0 90 47 64
        e 94 80 3e 40
        e 0 80 42 40
        e 0 80 47 40
        e 2 90 3e 64
        e 0 90 44 64
        e 0 90 47 64
        e 94 80 3e 40
        e 0 80 44 40
        e 0 80 47 40
        e 2 90 40 64
        e 0 90 44 64
        e 0 90 49 64
        e 94 80 40 40
        e 0 80 44 40
        e 0 80 49 40
        e 2 90 3e 64
        e 0 90 42 64
        e 0 90 47 64
        e 94 80 42 40
        e 2 90 44 64
        e 94 80 3e 40
        e 0 80 47 40
        e 0 80 44 40
        e 2 90 3d 64
        e 0 90 42 64
        e 0 90 45 64
        e 190 80 3d 40
        e 0 80 42 40
        e 0 80 45 40
        e 2 90 3e 64
        e 0 90 42 64
        e 0 90 45 64
        e 94 80 3e 40
        e 0 80 42 40
        e 0 80 45 40
        e 2 90 3d 64
        e 0 90 42 64
        e 0 90 45 64
        e 94 80 3d 40
        e 0 80 42 40
        e 0 80 45 40
        e 2 90 3b 64
        e 0 90 42 64
        e 0 90 44 64
        e 94 80 3b 40
        e 0 80 42 40
        e 0 80 44 40
        e 2 90 3d 64
        e 0 90 42 64
        e 0 90 45 64
        e 94 80 3d 40
        e 0 80 42 40
        e 0 80 45 40
        e 2 90 3e 64
        e 0 90 42 64
        e 0 90 47 64
        e 94 80 3e 40
        e 0 80 42 40
        e 0 80 47 40
        e 2 90 3d 64
        e 0 90 42 64
        e 0 90 45 64
        e 94 80 3d 40
        e 0 80 42 40
        e 0 80 45 40
        e 2 90 3b 64
        e 0 90 42 64
        e 0 90 44 64
        e 94 80 42 40
        e 2 90 41 64
        e 94 80 3b 40
        e 0 80 44 40
        e 0 80 41 40
        e 2 90 39 64
        e 0 90 3d 64
        e 0 90 42 64
        e 575 80 39 40
        e 0 80 3d 40
        e 0 80 42 40
        E 1 b0 7b 00
        GUID {8A0F1FAE-685C-FA46-BD12-7EB95EE923A1}
        IGNTEMPO 0 120 4 4
        SRCCOLOR 620
        VELLANE -1 86 6
        CFGEDITVIEW -1059.803121 13.768595 50 16 0 0 0 0 0 0.5
        KEYSNAP 0
        TRACKSEL 226
        EVTFILTER 0 -1 -1 -1 -1 0 0 0 0 -1 -1 -1 -1 0 -1 0 -1 -1
        CFGEDIT 1 1 0 0 0 0 1 0 1 1 1 0.25 506 494 1014 762 1 0 1 3 0 0 0 0 0 -1 0 0 1 64
      >
      TAKE
      NAME "rh                   - National_Anthems_-_Czech_Republic.mid"
      TAKEVOLPAN 0 1 -1
      SOFFS 0 0
      PLAYRATE 1 1 0 -1 0 0.0025
      CHANMODE 0
      GUID {C47EB991-82BF-4846-BE76-F84A4663FD59}
      <SOURCE MIDI
        HASDATA 1 192 QN
        POOLEDEVTS {E4726C37-4199-524D-B8D3-5BD222B3D2E0}
        <X 0 0 0 0 3 "rh                  "
          /wNyaCAgICAgICAgICAgICAgICAgIA==
        >
        E 192 9c 45 64
        E 0 9c 3e 64
        E 0 9c 42 64
        E 382 8c 45 40
        E 0 8c 3e 40
        E 0 8c 42 40
        E 2 9c 47 64
        E 0 9c 43 64
        E 0 9c 3e 64
        E 94 8c 47 40
        E 0 8c 43 40
        E 0 8c 3e 40
        E 2 9c 45 64
        E 0 9c 42 64
        E 0 9c 3e 64
        E 94 8c 45 40
        E 0 8c 42 40
        E 0 8c 3e 40
        E 2 9c 40 64
        E 0 9c 3b 64
        E 190 8c 40 40
        E 0 8c 3b 40
        E 2 9c 3b 64
        E 0 9c 43 64
        E 0 9c 3d 64
        E 382 8c 3b 40
        E 0 8c 43 40
        E 0 8c 3d 40
        E 2 9c 42 64
        E 0 9c 39 64
        E 0 9c 3d 64
        E 94 8c 42 40
        E 0 8c 39 40
        E 0 8c 3d 40
        E 2 9c 40 64
        E 0 9c 37 64
        E 94 8c 40 40
        E 0 8c 37 40
        E 2 9c 3e 64
        E 0 9c 36 64
        E 574 8c 3e 40
        E 0 8c 36 40
        E 2 9c 3e 64
        E 0 9c 36 64
        E 0 9c 3c 64
        E 142 8c 3e 40
        E 48 8c 36 40
        E 0 8c 3c 40
        E 2 9c 3b 64
        E 0 9c 3e 64
        E 94 8c 3b 40
        E 0 8c 3e 40
        E 2 9c 43 64
        E 94 8c 43 40
        E 2 9c 3b 64
        E 0 9c 3e 64
        E 0 9c 43 64
        E 382 8c 3b 40
        E 0 8c 3e 40
        E 0 8c 43 40
        E 2 9c 45 64
        E 0 9c 3e 64
        E 0 9c 39 64
        E 94 8c 45 40
        E 0 8c 3e 40
        E 0 8c 39 40
        E 2 9c 47 64
        E 0 9c 3b 64
        E 94 8c 47 40
        E 0 8c 3b 40
        E 2 9c 45 64
        E 0 9c 3d 64
        E 0 9c 39 64
        E 94 8c 45 40
        E 0 8c 3d 40
        E 0 8c 39 40
        E 2 9c 42 64
        E 94 8c 42 40
        E 2 9c 36 64
        E 0 9c 3e 64
        E 0 9c 3b 64
        E 190 8c 3b 40
        E 192 8c 36 40
        E 0 8c 3e 40
        E 2 9c 39 64
        E 0 9c 3e 64
        E 0 9c 36 64
        E 94 8c 39 40
        E 0 8c 3e 40
        E 2 9c 3e 64
        E 22 8c 36 40
        E 74 8c 3e 40
        E 0 9c 3e 64
        E 0 9c 37 64
        E 94 8c 3e 40
        E 0 8c 37 40
        E 2 9c 43 64
        E 94 8c 43 40
        E 2 9c 43 64
        E 0 9c 3e 64
        E 0 9c 3b 64
        E 94 8c 43 40
        E 0 8c 3e 40
        E 0 8c 3b 40
        E 2 9c 47 64
        E 94 8c 47 40
        E 2 9c 47 64
        E 0 9c 3e 64
        E 0 9c 4a 64
        E 190 8c 47 40
        E 0 8c 3e 40
        E 0 8c 4a 40
        E 2 9c 45 64
        E 0 9c 49 64
        E 0 9c 3d 64
        E 94 8c 45 40
        E 0 8c 49 40
        E 0 8c 3d 40
        E 2 9c 44 64
        E 0 9c 47 64
        E 0 9c 3b 64
        E 94 8c 44 40
        E 0 8c 47 40
        E 0 8c 3b 40
        E 2 9c 47 64
        E 0 9c 3b 64
        E 0 9c 44 64
        E 190 8c 47 40
        E 0 8c 3b 40
        E 0 8c 44 40
        E 2 9c 42 64
        E 0 9c 39 64
        E 0 9c 45 64
        E 94 8c 39 40
        E 2 9c 3b 64
        E 94 8c 3b 40
        E 2 9c 3d 64
        E 190 8c 42 40
        E 0 8c 45 40
        E 2 9c 45 64
        E 142 8c 45 40
        E 2 9c 45 64
        E 46 8c 3d 40
        E 0 8c 45 40
        E 2 9c 43 64
        E 0 9c 3d 64
        E 0 9c 45 64
        E 462 8c 43 40
        E 0 8c 3d 40
        E 0 8c 45 40
        E 18 9c 47 64
        E 0 9c 43 64
        E 0 9c 3b 64
        E 94 8c 47 40
        E 0 8c 43 40
        E 0 8c 3b 40
        E 2 9c 45 64
        E 0 9c 42 64
        E 0 9c 3c 64
        E 94 8c 45 40
        E 0 8c 42 40
        E 0 8c 3c 40
        E 2 9c 43 64
        E 0 9c 40 64
        E 0 9c 3d 64
        E 94 8c 43 40
        E 0 8c 40 40
        E 0 8c 3d 40
        E 2 9c 42 64
        E 0 9c 3e 64
        E 574 8c 42 40
        E 0 8c 3e 40
        E 2 9c 45 64
        E 0 9c 3e 64
        E 0 9c 42 64
        E 142 8c 45 40
        E 0 8c 3e 40
        E 0 8c 42 40
        E 2 9c 45 64
        E 46 8c 45 40
        E 2 9c 49 64
        E 0 9c 40 64
        E 0 9c 43 64
        E 414 8c 49 40
        E 0 8c 40 40
        E 0 8c 43 40
        E 66 9c 43 64
        E 0 9c 47 64
        E 0 9c 3b 64
        E 94 8c 43 40
        E 0 8c 47 40
        E 0 8c 3b 40
        E 2 9c 45 64
        E 0 9c 3c 64
        E 0 9c 42 64
        E 94 8c 45 40
        E 0 8c 3c 40
        E 0 8c 42 40
        E 2 9c 3d 64
        E 0 9c 40 64
        E 0 9c 43 64
        E 94 8c 3d 40
        E 0 8c 40 40
        E 0 8c 43 40
        E 2 9c 42 64
        E 0 9c 3e 64
        E 574 8c 42 40
        E 0 8c 3e 40
        E 2 9c 42 64
        E 0 9c 3a 64
        E 0 9c 40 64
        E 142 8c 42 40
        E 2 9c 42 64
        E 46 8c 3a 40
        E 0 8c 40 40
        E 0 8c 42 40
        E 2 9c 42 64
        E 0 9c 3e 64
        E 0 9c 3b 64
        E 190 8c 3e 40
        E 0 8c 3b 40
        E 2 9c 3e 64
        E 0 9c 3b 64
        E 190 8c 3e 40
        E 0 8c 3b 40
        E 2 9c 40 64
        E 0 9c 3a 64
        E 30 8c 42 40
        E 66 9c 42 64
        E 94 8c 40 40
        E 0 8c 3a 40
        E 0 8c 42 40
        E 2 9c 3e 64
        E 0 9c 44 64
        E 0 9c 42 64
        E 94 8c 3e 40
        E 0 8c 44 40
        E 0 8c 42 40
        E 2 9c 40 64
        E 0 9c 3d 64
        E 0 9c 46 64
        E 94 8c 40 40
        E 0 8c 3d 40
        E 0 8c 46 40
        E 2 9c 40 64
        E 0 9c 46 64
        E 0 9c 3d 64
        E 94 8c 40 40
        E 0 8c 46 40
        E 0 8c 3d 40
        E 2 9c 3d 64
        E 0 9c 3e 64
        E 0 9c 47 64
        E 0 9c 3b 64
        E 94 8c 3d 40
        E 0 8c 3e 40
        E 0 8c 47 40
        E 0 8c 3b 40
        E 2 9c 3b 64
        E 0 9c 3e 64
        E 0 9c 47 64
        E 382 8c 3b 40
        E 0 8c 3e 40
        E 0 8c 47 40
        E 2 9c 43 64
        E 0 9c 47 64
        E 0 9c 3b 64
        E 142 8c 47 40
        E 2 9c 47 64
        E 46 8c 43 40
        E 0 8c 3b 40
        E 0 8c 47 40
        E 2 9c 43 64
        E 0 9c 40 64
        E 0 9c 47 64
        E 94 8c 47 40
        E 2 9c 45 64
        E 94 8c 43 40
        E 0 8c 40 40
        E 0 8c 45 40
        E 2 9c 45 64
        E 0 9c 43 64
        E 0 9c 3d 64
        E 382 8c 45 40
        E 0 8c 43 40
        E 0 8c 3d 40
        E 2 9c 3d 64
        E 0 9c 43 64
        E 94 8c 43 40
        E 96 8c 3d 40
        E 2 9c 3e 64
        E 0 9c 42 64
        E 190 8c 3e 40
        E 0 8c 42 40
        E 2 9c 4a 64
        E 0 9c 47 64
        E 0 9c 42 64
        E 382 8c 4a 40
        E 0 8c 47 40
        E 0 8c 42 40
        E 2 9c 49 64
        E 0 9c 45 64
        E 0 9c 3e 64
        E 94 8c 49 40
        E 0 8c 45 40
        E 2 9c 47 64
        E 0 9c 43 64
        E 94 8c 3e 40
        E 0 8c 47 40
        E 0 8c 43 40
        E 2 9c 47 64
        E 0 9c 42 64
        E 0 9c 3e 64
        E 190 8c 47 40
        E 2 9c 45 64
        E 190 8c 42 40
        E 0 8c 3e 40
        E 192 8c 45 40
        E 2 9c 37 64
        E 0 9c 3d 64
        E 0 9c 40 64
        E 94 8c 37 40
        E 2 9c 42 64
        E 94 8c 3d 40
        E 0 8c 40 40
        E 0 8c 42 40
        E 2 9c 36 64
        E 0 9c 3e 64
        E 382 8c 36 40
        E 0 8c 3e 40
        E 386 9c 42 64
        E 94 8c 42 40
        E 2 9c 44 64
        E 94 8c 44 40
        E 2 9c 45 64
        E 0 9c 3d 64
        E 0 9c 42 64
        E 190 8c 45 40
        E 0 8c 3d 40
        E 0 8c 42 40
        E 2 9c 45 64
        E 0 9c 3d 64
        E 0 9c 42 64
        E 190 8c 45 40
        E 0 8c 3d 40
        E 0 8c 42 40
        E 2 9c 45 64
        E 0 9c 3e 64
        E 0 9c 42 64
        E 94 8c 45 40
        E 0 8c 3e 40
        E 0 8c 42 40
        E 2 9c 45 64
        E 0 9c 42 64
        E 0 9c 3d 64
        E 94 8c 45 40
        E 0 8c 42 40
        E 0 8c 3d 40
        E 2 9c 44 64
        E 0 9c 3b 64
        E 0 9c 42 64
        E 94 8c 44 40
        E 0 8c 3b 40
        E 0 8c 42 40
        E 2 9c 3d 64
        E 0 9c 45 64
        E 0 9c 42 64
        E 94 8c 3d 40
        E 0 8c 45 40
        E 0 8c 42 40
        E 2 9c 47 64
        E 0 9c 3e 64
        E 0 9c 42 64
        E 94 8c 47 40
        E 0 8c 3e 40
        E 0 8c 42 40
        E 2 9c 45 64
        E 0 9c 3d 64
        E 0 9c 42 64
        E 94 8c 45 40
        E 0 8c 3d 40
        E 0 8c 42 40
        E 2 9c 44 64
        E 0 9c 42 64
        E 0 9c 3b 64
        E 94 8c 42 40
        E 2 9c 41 64
        E 94 8c 44 40
        E 0 8c 3b 40
        E 0 8c 41 40
        E 2 9c 42 64
        E 0 9c 3d 64
        E 0 9c 39 64
        E 190 8c 42 40
        E 0 8c 3d 40
        E 0 8c 39 40
        E 2 9c 45 64
        E 94 8c 45 40
        E 2 9c 47 64
        E 94 8c 47 40
        E 2 9c 49 64
        E 0 9c 40 64
        E 0 9c 45 64
        E 190 8c 49 40
        E 0 8c 40 40
        E 0 8c 45 40
        E 2 9c 49 64
        E 0 9c 40 64
        E 0 9c 45 64
        E 190 8c 49 40
        E 0 8c 40 40
        E 0 8c 45 40
        E 2 9c 45 64
        E 0 9c 42 64
        E 0 9c 49 64
        E 94 8c 45 40
        E 0 8c 42 40
        E 0 8c 49 40
        E 2 9c 49 64
        E 0 9c 40 64
        E 0 9c 45 64
        E 94 8c 49 40
        E 0 8c 40 40
        E 0 8c 45 40
        E 2 9c 47 64
        E 0 9c 45 64
        E 0 9c 3e 64
        E 94 8c 47 40
        E 0 8c 45 40
        E 0 8c 3e 40
        E 2 9c 45 64
        E 0 9c 49 64
        E 0 9c 40 64
        E 94 8c 45 40
        E 0 8c 49 40
        E 0 8c 40 40
        E 2 9c 42 64
        E 0 9c 4a 64
        E 0 9c 45 64
        E 94 8c 42 40
        E 0 8c 4a 40
        E 0 8c 45 40
        E 2 9c 49 64
        E 0 9c 45 64
        E 0 9c 40 64
        E 94 8c 49 40
        E 0 8c 45 40
        E 0 8c 40 40
        E 2 9c 45 64
        E 0 9c 47 64
        E 0 9c 3e 64
        E 94 8c 45 40
        E 2 9c 44 64
        E 94 8c 47 40
        E 0 8c 3e 40
        E 0 8c 44 40
        E 2 9c 3d 64
        E 0 9c 40 64
        E 0 9c 45 64
        E 190 8c 3d 40
        E 0 8c 40 40
        E 0 8c 45 40
        E 2 9c 45 64
        E 0 9c 49 64
        E 0 9c 40 64
        E 94 8c 45 40
        E 0 8c 49 40
        E 0 8c 40 40
        E 2 9c 45 64
        E 0 9c 40 64
        E 0 9c 49 64
        E 94 8c 45 40
        E 0 8c 40 40
        E 0 8c 49 40
        E 2 9c 40 64
        E 0 9c 49 64
        E 0 9c 45 64
        E 190 8c 40 40
        E 0 8c 49 40
        E 0 8c 45 40
        E 2 9c 47 64
        E 0 9c 42 64
        E 0 9c 3e 64
        E 190 8c 47 40
        E 0 8c 42 40
        E 0 8c 3e 40
        E 2 9c 47 64
        E 0 9c 3e 64
        E 0 9c 42 64
        E 94 8c 47 40
        E 0 8c 3e 40
        E 0 8c 42 40
        E 2 9c 47 64
        E 0 9c 3e 64
        E 0 9c 42 64
        E 94 8c 47 40
        E 0 8c 3e 40
        E 0 8c 42 40
        E 2 9c 47 64
        E 0 9c 3e 64
        E 0 9c 44 64
        E 94 8c 47 40
        E 0 8c 3e 40
        E 0 8c 44 40
        E 2 9c 49 64
        E 0 9c 40 64
        E 0 9c 44 64
        E 94 8c 49 40
        E 0 8c 40 40
        E 0 8c 44 40
        E 2 9c 42 64
        E 0 9c 47 64
        E 0 9c 3e 64
        E 94 8c 42 40
        E 2 9c 44 64
        E 94 8c 47 40
        E 0 8c 3e 40
        E 0 8c 44 40
        E 2 9c 45 64
        E 0 9c 3d 64
        E 0 9c 42 64
        E 190 8c 45 40
        E 0 8c 3d 40
        E 0 8c 42 40
        E 2 9c 45 64
        E 0 9c 3e 64
        E 0 9c 42 64
        E 94 8c 45 40
        E 0 8c 3e 40
        E 0 8c 42 40
        E 2 9c 45 64
        E 0 9c 3d 64
        E 0 9c 42 64
        E 94 8c 45 40
        E 0 8c 3d 40
        E 0 8c 42 40
        E 2 9c 44 64
        E 0 9c 42 64
        E 0 9c 3b 64
        E 94 8c 44 40
        E 0 8c 42 40
        E 0 8c 3b 40
        E 2 9c 45 64
        E 0 9c 3d 64
        E 0 9c 42 64
        E 94 8c 45 40
        E 0 8c 3d 40
        E 0 8c 42 40
        E 2 9c 47 64
        E 0 9c 3e 64
        E 0 9c 42 64
        E 94 8c 47 40
        E 0 8c 3e 40
        E 0 8c 42 40
        E 2 9c 3d 64
        E 0 9c 42 64
        E 0 9c 45 64
        E 94 8c 3d 40
        E 0 8c 42 40
        E 0 8c 45 40
        E 2 9c 44 64
        E 0 9c 42 64
        E 0 9c 3b 64
        E 94 8c 42 40
        E 2 9c 41 64
        E 94 8c 44 40
        E 0 8c 3b 40
        E 0 8c 41 40
        E 2 9c 42 64
        E 0 9c 39 64
        E 0 9c 3d 64
        E 190 8c 42 40
        E 0 8c 39 40
        E 0 8c 3d 40
        E 2 9c 45 64
        E 0 9c 49 64
        E 0 9c 40 64
        E 94 8c 45 40
        E 0 8c 49 40
        E 0 8c 40 40
        E 2 9c 45 64
        E 0 9c 40 64
        E 0 9c 49 64
        E 94 8c 45 40
        E 0 8c 40 40
        E 0 8c 49 40
        E 2 9c 40 64
        E 0 9c 49 64
        E 0 9c 45 64
        E 190 8c 40 40
        E 0 8c 49 40
        E 0 8c 45 40
        E 2 9c 47 64
        E 0 9c 42 64
        E 0 9c 3e 64
        E 190 8c 47 40
        E 0 8c 42 40
        E 0 8c 3e 40
        E 2 9c 47 64
        E 0 9c 3e 64
        E 0 9c 42 64
        E 94 8c 47 40
        E 0 8c 3e 40
        E 0 8c 42 40
        E 2 9c 47 64
        E 0 9c 3e 64
        E 0 9c 42 64
        E 94 8c 47 40
        E 0 8c 3e 40
        E 0 8c 42 40
        E 2 9c 47 64
        E 0 9c 3e 64
        E 0 9c 44 64
        E 94 8c 47 40
        E 0 8c 3e 40
        E 0 8c 44 40
        E 2 9c 49 64
        E 0 9c 40 64
        E 0 9c 44 64
        E 94 8c 49 40
        E 0 8c 40 40
        E 0 8c 44 40
        E 2 9c 42 64
        E 0 9c 47 64
        E 0 9c 3e 64
        E 94 8c 42 40
        E 2 9c 44 64
        E 94 8c 47 40
        E 0 8c 3e 40
        E 0 8c 44 40
        E 2 9c 45 64
        E 0 9c 3d 64
        E 0 9c 42 64
        E 190 8c 45 40
        E 0 8c 3d 40
        E 0 8c 42 40
        E 2 9c 45 64
        E 0 9c 3e 64
        E 0 9c 42 64
        E 94 8c 45 40
        E 0 8c 3e 40
        E 0 8c 42 40
        E 2 9c 45 64
        E 0 9c 3d 64
        E 0 9c 42 64
        E 94 8c 45 40
        E 0 8c 3d 40
        E 0 8c 42 40
        E 2 9c 44 64
        E 0 9c 42 64
        E 0 9c 3b 64
        E 94 8c 44 40
        E 0 8c 42 40
        E 0 8c 3b 40
        E 2 9c 45 64
        E 0 9c 3d 64
        E 0 9c 42 64
        E 94 8c 45 40
        E 0 8c 3d 40
        E 0 8c 42 40
        E 2 9c 47 64
        E 0 9c 3e 64
        E 0 9c 42 64
        E 94 8c 47 40
        E 0 8c 3e 40
        E 0 8c 42 40
        E 2 9c 3d 64
        E 0 9c 42 64
        E 0 9c 45 64
        E 94 8c 3d 40
        E 0 8c 42 40
        E 0 8c 45 40
        E 2 9c 44 64
        E 0 9c 42 64
        E 0 9c 3b 64
        E 94 8c 42 40
        E 2 9c 41 64
        E 94 8c 44 40
        E 0 8c 3b 40
        E 0 8c 41 40
        E 2 9c 42 64
        E 0 9c 39 64
        E 0 9c 3d 64
        E 575 8c 3d 40
        E 0 8c 39 40
        E 0 8c 42 40
        E 1 b0 7b 00
        GUID {80595F54-8F9D-2B4E-B42B-90E13D8CF450}
        IGNTEMPO 0 120 4 4
        SRCCOLOR 674
        VELLANE -1 86 6
      >
    >
  >
  <TRACK {3CF13A00-0AFC-8542-AD98-73B6D91102DB}
    NAME "vst Plogue"
    PEAKCOL 26779488
    BEAT -1
    AUTOMODE 0
    VOLPAN 1 0 -1 -1 1
    MUTESOLO 0 0 0
    IPHASE 0
    ISBUS 0 0
    BUSCOMP 0 0
    SHOWINMIX 1 0.6667 0.5 1 0.5 0 0 0
    FREEMODE 0
    SEL 0
    REC 0 0 0 1 0 0 0
    VU 2
    TRACKHEIGHT 0 0
    INQ 0 0 0 0.5 100 0 0 100
    NCHAN 4
    FX 1
    TRACKID {3CF13A00-0AFC-8542-AD98-73B6D91102DB}
    PERF 0
    AUXRECV 5 0 1 0 0 0 0 0 0 -1:U 32 -1 ''
    AUXRECV 5 0 1 0 0 0 0 0 0 -1:U 96 -1 ''
    AUXRECV 6 0 1 0 0 0 0 0 0 -1:U 64 -1 ''
    AUXRECV 6 0 1 0 0 0 0 0 0 -1:U 128 -1 ''
    MIDIOUT -1
    MAINSEND 0 0
    <FXCHAIN
      SHOW 0
      LASTSEL 0
      DOCKED 0
      BYPASS 0 0 0
      <VST "VSTi: chipsounds (Multi) (Plogue Art et Technologie, Inc) (32 out)" "chipsounds Multi.vst" 0 "" 1347241807
        T0dNUO5e7f4AAAAAIAAAAAEAAAAAAAAAAgAAAAAAAAAEAAAAAAAAAAgAAAAAAAAAEAAAAAAAAAAgAAAAAAAAAEAAAAAAAAAAgAAAAAAAAAAAAQAAAAAAAAACAAAAAAAA
        AAQAAAAAAAAACAAAAAAAAAAQAAAAAAAAACAAAAAAAAAAQAAAAAAAAACAAAAAAAAAAAABAAAAAAAAAAIAAAAAAAAABAAAAAAAAAAIAAAAAAAAABAAAAAAAAAAIAAAAAAA
        AABAAAAAAAAAAIAAAAAAAAAAAAEAAAAAAAAAAgAAAAAAAAAEAAAAAAAAAAgAAAAAAAAAEAAAAAAAAAAgAAAAAAAAAEAAAAAAAAAAgAAAAAD0BgAAAQAAAAAAEAA=
        Q0VHUL46AAB4nO1bW2/bNhR+z68Q/LQ91OL9AiQpEideAyxrAafYY8HYrKNNlj1Jztr9+h1dHFOJacmLi6Wp+dBK9LnwHFH8PvJEx2+/zOLg3qZZNE9OeriPesHb06Pj
        szQyI3NvnZ80Fr1gkc4ny3F+dQEdCOne6VEA7Xhk8zxKplnw19LEUf4Vfu0FWZ5aM4Pukx4lvWBmvozKnrM4no+vz096HEP39dXF1ftlfj2f2FLLLPP5zOTgcxTP85Me
        crtie2/jk16UgO3lzCZ5L4ije1spg2Q2BquMFxcmNtCFgzeBLQbVz8Zx3T0APZue9AQoTOP5rYlvlkk5TOgIVxGB8yCalH2JmRXmcT/4sExtMLiLFuHo6iIUXOHgp99u
        RoOfe8GtSf68mtRpcdKmCAQ5vjNJUowcrC3mMeSH9YJ87XVx+yk1yRS8vIEULHK4ycofZs7lfJzDE1nHCV3LvL7/+1NssrwwW42/jOHaRMkqhnsTL6sEh5sk8IME8kiQ
        VgnaKsFaJXirhGiVkK0SqlVCt0pg1C7SnlXcnlbcnlfcnljszewHk5rZ9ke8FvE6Wos46e8rzhE0rJGkTAnq03GT2We6VEJMCkVlsep4HDnp7WOiy8YJxYIo5lVirhKt
        PHEqGMPKqyNcHVXpEKpAhfuVnEnWh2Cq4SmlCIOxYp+acn3R0hPCWBOkifbq6N11NGrEVI1OCgxLGiPex0TdlEslGcKcCy2UUI883Zh0avN66RzPZ/0P8Xy6tP0CWPq/
        Dt/3l5lNkbNalVqDZQZL/YXJTXCXf12AKpccLGfRP3DNlLOwwvhtMolMdTkBFbhYtWH1H0H7bc0QwyrGXYPGP0jQN2k0ndp0BPBrk7FN28NmlNFV2IQ7YZNNYeM66rpV
        97K8pgM51I0gBogOtwRyHBZ4/xj68V6hH2+AfnWA/gP0vwToxw2wwkLI8rVhSCMqvCDiRNDXiHMAHcmJUlRjL8C5+EskE4hrpRkXGND+m1EK3olDwM6hNC0AzQBG/Upu
        DLTKVDtb8c7e54H/Dpjsov86O360ByzxrR4HeD/A+3PgXehd4b18NSUkYXj5FN6rzEh63ugYAugXsuqJKPRebLKASNPCf6INZK+0ga1oA17TBrZH2oBaaIMXVXagDT7q
        caANj0V+ONogCWNI6WIvzYjgXtrghNTH9W5aSIIlY16cdmFasm6HCrwRka73xVIwRbjyQqX0TXXfEUd1iIAZRUCamPSDu6tEO+7SWYfRNI40SqqhNRVIsy1nJ7hLmO5Z
        BKu5GsXggmDvhJBubmh1GKGAwzCluJfgOdTNOxrp5g/V+dMYOCdF1G/ZnTiCl5NNYhiXlFtIoTtz4AmVs01zKiSj/nnjPgZOmPt4vUE1jm50xQdaOavL+LyBaz/hc4U6
        HAJqJLpY6jChNNJdXq4uI8cYNZh7lW+lkISR+LUIcpc54k0xCHoz821YVHGMuBuLkmsWhQg5b7Kdmhk94lYXJYtCaCOL2sjD+KBp9xwsFG4ldnuHVe+g2Vu0vfDww+bj
        +w56M7eme+XW5H+uxrVzax9zPhzJPcrY6+PWL6Madyi+vaLi2/dUktkayAHpXz3Ss70iPd2A9PyA9AekfwlI/6qLb/6zmUPp7duV3l4RPGwN+lCF2mVWvCKmtJk0yAfS
        QPpBFVzwO4D353k6y8J3Jp0Eo6/JuCtr4A+1N7HPA4LnUoX2gls7VfDRjQNVeCLyYqkCrusZnBMtuB//XKaANNOdTr1dTwIJAkRBUaQlksJfIHLLLVxV5QzFGaFE+lG0
        QTDqmIhikjHiDQk3NvhytXJqhcCXH1bdvXrXQwvSgcuQDtUH6Z2NO9a0Go9TsMbhQcdKGK8PRGAnpTRn/sIc7zCeZimR6oKWYUIUpVtqJdSNQrCqEgNkC+Yx9ZZDO3En
        t4i15S+/9lnGUl2EOpSxNO6Qb0xQh5kEUt7F3ley6tOq1qk0kRgL6n9lCfKu8T8aEeke9IGT+8JunDISuiMpr/58oTpmROdy2KWouWqr4iPshKGd8WZJ0uk9l/yp3d0s
        iA3l1h0t4Oda4PK5FtjF8yx05fSXnz/bce5+hlez6Gq+nc1uo2J2tVD52tfxLx+vVmbMOI/u7VX1dSFe3V8+fG2Y2Rgc28mNuS3mn7sApjaz+bVNlkGUrdTzMoDtL0CQ
        2y8gcgP/LlM7Cd5FeQb7BpPfnfTCs8Uijsbl541ZWFmAHUi0yObLZAI9pdMs3GI/rHc6Z+nCTqfRPAsbnvoGVqHFo7X8SShkp1Bm5g+Z3z3E8BGWtyzM4Mkk09gkExjT
        p3FqTW7DkZktYpuFl6tfgmFU3FcOButAVz6yQoXnd4/HfRzCQzw9Og5X36aeHv0LlGpQvA==
        AAAQAAAA
      >
      FLOATPOS 275 269 871 509
      FXID {C804D762-B992-A540-81BF-3D6C0F7FF19B}
      WAK 0
    >
  >
  <TRACK {2BB5EACD-C1BC-284E-92F6-33B7023B768F}
    NAME "ch1,3 (send)"
    PEAKCOL 16576
    BEAT -1
    AUTOMODE 0
    VOLPAN 1 0 -1 -1 1
    MUTESOLO 0 0 0
    IPHASE 0
    ISBUS 0 0
    BUSCOMP 0 0
    SHOWINMIX 1 0.6667 0.5 1 0.5 0 0 0
    FREEMODE 0
    SEL 0
    REC 0 0 0 0 0 0 0
    VU 2
    MIDICTL -1 1
    TRACKHEIGHT 0 0
    INQ 0 0 0 0.5 100 0 0 100
    NCHAN 2
    FX 1
    TRACKID {2BB5EACD-C1BC-284E-92F6-33B7023B768F}
    PERF 0
    MIDIOUT -1
    MAINSEND 1 0
    <FXCHAIN
      SHOW 0
      LASTSEL 0
      DOCKED 0
    >
    <ITEM
      POSITION 0
      SNAPOFFS 0
      LENGTH 55
      LOOP 1
      ALLTAKES 0
      FADEIN 1 0 0 1 0 0
      FADEOUT 1 0 0 1 0 0
      MUTE 0
      SEL 0
      YPOS 0 0.25
      IGUID {DAA343CE-1E20-5148-A641-B56FA692A822}
      IID 2
      NAME "Accomp. RH           - National_Anthems_-_Czech_Republic.mid"
      VOLPAN 1 0 1 -1
      SOFFS 0 0
      PLAYRATE 1 1 0 -1 0 0.0025
      CHANMODE 0
      TAKECOLOR 26173599 B
      GUID {086B5D1E-6B19-4245-8436-03FDCAC2F849}
      <SOURCE MIDI
        HASDATA 1 192 QN
        POOLEDEVTS {50F8EC81-95EA-DB46-B339-CF22E2A41830}
        <X 0 0 0 0 3 "Accomp. RH          "
          /wNBY2NvbXAuIFJIICAgICAgICAgIA==
        >
        e 192 91 3e 64
        e 0 91 42 64
        e 0 91 45 64
        e 382 81 3e 40
        e 0 81 42 40
        e 0 81 45 40
        e 2 91 3e 64
        e 0 91 43 64
        e 0 91 47 64
        e 94 81 3e 40
        e 0 81 43 40
        e 0 81 47 40
        e 2 91 3e 64
        e 0 91 42 64
        e 0 91 45 64
        e 94 81 3e 40
        e 0 81 42 40
        e 0 81 45 40
        e 2 91 3b 64
        e 0 91 40 64
        e 190 81 3b 40
        e 0 81 40 40
        e 2 91 3b 64
        e 0 91 3d 64
        e 0 91 43 64
        e 382 81 3b 40
        e 0 81 3d 40
        e 0 81 43 40
        e 2 91 39 64
        e 0 91 3d 64
        e 0 91 42 64
        e 94 81 39 40
        e 0 81 3d 40
        e 0 81 42 40
        e 2 91 37 64
        e 0 91 40 64
        e 94 81 37 40
        e 0 81 40 40
        e 2 91 36 64
        e 0 91 3e 64
        e 574 81 36 40
        e 0 81 3e 40
        e 2 91 36 64
        e 0 91 3c 64
        e 0 91 3e 64
        e 142 81 3e 40
        e 48 81 36 40
        e 0 81 3c 40
        e 2 91 3b 64
        e 0 91 3e 64
        e 94 81 3b 40
        e 0 81 3e 40
        e 2 91 43 64
        e 94 81 43 40
        e 2 91 3b 64
        e 0 91 3e 64
        e 0 91 43 64
        e 382 81 3b 40
        e 0 81 3e 40
        e 0 81 43 40
        e 2 91 39 64
        e 0 91 3e 64
        e 0 91 45 64
        e 94 81 39 40
        e 0 81 3e 40
        e 0 81 45 40
        e 2 91 3b 64
        e 0 91 47 64
        e 94 81 3b 40
        e 0 81 47 40
        e 2 91 39 64
        e 0 91 3d 64
        e 0 91 45 64
        e 94 81 39 40
        e 0 81 3d 40
        e 0 81 45 40
        e 2 91 42 64
        e 94 81 42 40
        e 2 91 36 64
        e 0 91 3b 64
        e 0 91 3e 64
        e 190 81 3b 40
        e 192 81 36 40
        e 0 81 3e 40
        e 2 91 36 64
        e 0 91 39 64
        e 0 91 3e 64
        e 94 81 39 40
        e 0 81 3e 40
        e 2 91 3e 64
        e 22 81 36 40
        e 74 81 3e 40
        e 0 91 37 64
        e 0 91 3e 64
        e 94 81 37 40
        e 0 81 3e 40
        e 2 91 43 64
        e 94 81 43 40
        e 2 91 3b 64
        e 0 91 3e 64
        e 0 91 43 64
        e 94 81 3b 40
        e 0 81 3e 40
        e 0 81 43 40
        e 2 91 47 64
        e 94 81 47 40
        e 2 91 3e 64
        e 0 91 47 64
        e 0 91 4a 64
        e 190 81 3e 40
        e 0 81 47 40
        e 0 81 4a 40
        e 2 91 3d 64
        e 0 91 45 64
        e 0 91 49 64
        e 94 81 3d 40
        e 0 81 45 40
        e 0 81 49 40
        e 2 91 3b 64
        e 0 91 44 64
        e 0 91 47 64
        e 94 81 3b 40
        e 0 81 44 40
        e 0 81 47 40
        e 2 91 3b 64
        e 0 91 44 64
        e 0 91 47 64
        e 190 81 3b 40
        e 0 81 44 40
        e 0 81 47 40
        e 2 91 39 64
        e 0 91 42 64
        e 0 91 45 64
        e 94 81 39 40
        e 2 91 3b 64
        e 94 81 3b 40
        e 2 91 3d 64
        e 190 81 42 40
        e 0 81 45 40
        e 2 91 45 64
        e 142 81 45 40
        e 2 91 45 64
        e 46 81 3d 40
        e 0 81 45 40
        e 2 91 3d 64
        e 0 91 43 64
        e 0 91 45 64
        e 462 81 3d 40
        e 0 81 43 40
        e 0 81 45 40
        e 18 91 3b 64
        e 0 91 43 64
        e 0 91 47 64
        e 94 81 3b 40
        e 0 81 43 40
        e 0 81 47 40
        e 2 91 3c 64
        e 0 91 42 64
        e 0 91 45 64
        e 94 81 3c 40
        e 0 81 42 40
        e 0 81 45 40
        e 2 91 3d 64
        e 0 91 40 64
        e 0 91 43 64
        e 94 81 3d 40
        e 0 81 40 40
        e 0 81 43 40
        e 2 91 3e 64
        e 0 91 42 64
        e 574 81 3e 40
        e 0 81 42 40
        e 2 91 3e 64
        e 0 91 42 64
        e 0 91 45 64
        e 142 81 3e 40
        e 0 81 42 40
        e 0 81 45 40
        e 2 91 45 64
        e 46 81 45 40
        e 2 91 40 64
        e 0 91 43 64
        e 0 91 49 64
        e 414 81 40 40
        e 0 81 43 40
        e 0 81 49 40
        e 66 91 3b 64
        e 0 91 43 64
        e 0 91 47 64
        e 94 81 3b 40
        e 0 81 43 40
        e 0 81 47 40
        e 2 91 3c 64
        e 0 91 42 64
        e 0 91 45 64
        e 94 81 3c 40
        e 0 81 42 40
        e 0 81 45 40
        e 2 91 3d 64
        e 0 91 40 64
        e 0 91 43 64
        e 94 81 3d 40
        e 0 81 40 40
        e 0 81 43 40
        e 2 91 3e 64
        e 0 91 42 64
        e 574 81 3e 40
        e 0 81 42 40
        e 2 91 3a 64
        e 0 91 40 64
        e 0 91 42 64
        e 142 81 42 40
        e 2 91 42 64
        e 46 81 3a 40
        e 0 81 40 40
        e 0 81 42 40
        e 2 91 3b 64
        e 0 91 3e 64
        e 0 91 42 64
        e 190 81 3b 40
        e 0 81 3e 40
        e 2 91 3b 64
        e 0 91 3e 64
        e 190 81 3b 40
        e 0 81 3e 40
        e 2 91 3a 64
        e 0 91 40 64
        e 30 81 42 40
        e 66 91 42 64
        e 94 81 3a 40
        e 0 81 40 40
        e 0 81 42 40
        e 2 91 3e 64
        e 0 91 42 64
        e 0 91 44 64
        e 94 81 3e 40
        e 0 81 42 40
        e 0 81 44 40
        e 2 91 3d 64
        e 0 91 40 64
        e 0 91 46 64
        e 94 81 3d 40
        e 0 81 40 40
        e 0 81 46 40
        e 2 91 3d 64
        e 0 91 40 64
        e 0 91 46 64
        e 94 81 3d 40
        e 0 81 40 40
        e 0 81 46 40
        e 2 91 3b 64
        e 0 91 3d 64
        e 0 91 3e 64
        e 0 91 47 64
        e 94 81 3b 40
        e 0 81 3d 40
        e 0 81 3e 40
        e 0 81 47 40
        e 2 91 3b 64
        e 0 91 3e 64
        e 0 91 47 64
        e 382 81 3b 40
        e 0 81 3e 40
        e 0 81 47 40
        e 2 91 3b 64
        e 0 91 43 64
        e 0 91 47 64
        e 142 81 47 40
        e 2 91 47 64
        e 46 81 3b 40
        e 0 81 43 40
        e 0 81 47 40
        e 2 91 40 64
        e 0 91 43 64
        e 0 91 47 64
        e 94 81 47 40
        e 2 91 45 64
        e 94 81 40 40
        e 0 81 43 40
        e 0 81 45 40
        e 2 91 3d 64
        e 0 91 43 64
        e 0 91 45 64
        e 382 81 3d 40
        e 0 81 43 40
        e 0 81 45 40
        e 2 91 3d 64
        e 0 91 43 64
        e 94 81 43 40
        e 96 81 3d 40
        e 2 91 3e 64
        e 0 91 42 64
        e 190 81 3e 40
        e 0 81 42 40
        e 2 91 42 64
        e 0 91 47 64
        e 0 91 4a 64
        e 382 81 42 40
        e 0 81 47 40
        e 0 81 4a 40
        e 2 91 3e 64
        e 0 91 45 64
        e 0 91 49 64
        e 94 81 45 40
        e 0 81 49 40
        e 2 91 43 64
        e 0 91 47 64
        e 94 81 3e 40
        e 0 81 43 40
        e 0 81 47 40
        e 2 91 3e 64
        e 0 91 42 64
        e 0 91 47 64
        e 190 81 47 40
        e 2 91 45 64
        e 190 81 3e 40
        e 0 81 42 40
        e 192 81 45 40
        e 2 91 37 64
        e 0 91 3d 64
        e 0 91 40 64
        e 94 81 37 40
        e 2 91 42 64
        e 94 81 3d 40
        e 0 81 40 40
        e 0 81 42 40
        e 2 91 36 64
        e 0 91 3e 64
        e 382 81 36 40
        e 0 81 3e 40
        e 386 91 42 64
        e 94 81 42 40
        e 2 91 44 64
        e 94 81 44 40
        e 2 91 3d 64
        e 0 91 42 64
        e 0 91 45 64
        e 190 81 3d 40
        e 0 81 42 40
        e 0 81 45 40
        e 2 91 3d 64
        e 0 91 42 64
        e 0 91 45 64
        e 190 81 3d 40
        e 0 81 42 40
        e 0 81 45 40
        e 2 91 3e 64
        e 0 91 42 64
        e 0 91 45 64
        e 94 81 3e 40
        e 0 81 42 40
        e 0 81 45 40
        e 2 91 3d 64
        e 0 91 42 64
        e 0 91 45 64
        e 94 81 3d 40
        e 0 81 42 40
        e 0 81 45 40
        e 2 91 3b 64
        e 0 91 42 64
        e 0 91 44 64
        e 94 81 3b 40
        e 0 81 42 40
        e 0 81 44 40
        e 2 91 3d 64
        e 0 91 42 64
        e 0 91 45 64
        e 94 81 3d 40
        e 0 81 42 40
        e 0 81 45 40
        e 2 91 3e 64
        e 0 91 42 64
        e 0 91 47 64
        e 94 81 3e 40
        e 0 81 42 40
        e 0 81 47 40
        e 2 91 3d 64
        e 0 91 42 64
        e 0 91 45 64
        e 94 81 3d 40
        e 0 81 42 40
        e 0 81 45 40
        e 2 91 3b 64
        e 0 91 42 64
        e 0 91 44 64
        e 94 81 42 40
        e 2 91 41 64
        e 94 81 3b 40
        e 0 81 44 40
        e 0 81 41 40
        e 2 91 39 64
        e 0 91 3d 64
        e 0 91 42 64
        e 190 81 39 40
        e 0 81 3d 40
        e 0 81 42 40
        e 2 91 45 64
        e 94 81 45 40
        e 2 91 47 64
        e 94 81 47 40
        e 2 91 40 64
        e 0 91 45 64
        e 0 91 49 64
        e 190 81 40 40
        e 0 81 45 40
        e 0 81 49 40
        e 2 91 40 64
        e 0 91 45 64
        e 0 91 49 64
        e 190 81 40 40
        e 0 81 45 40
        e 0 81 49 40
        e 2 91 42 64
        e 0 91 45 64
        e 0 91 49 64
        e 94 81 42 40
        e 0 81 45 40
        e 0 81 49 40
        e 2 91 40 64
        e 0 91 45 64
        e 0 91 49 64
        e 94 81 40 40
        e 0 81 45 40
        e 0 81 49 40
        e 2 91 3e 64
        e 0 91 45 64
        e 0 91 47 64
        e 94 81 3e 40
        e 0 81 45 40
        e 0 81 47 40
        e 2 91 40 64
        e 0 91 45 64
        e 0 91 49 64
        e 94 81 40 40
        e 0 81 45 40
        e 0 81 49 40
        e 2 91 42 64
        e 0 91 45 64
        e 0 91 4a 64
        e 94 81 42 40
        e 0 81 45 40
        e 0 81 4a 40
        e 2 91 40 64
        e 0 91 45 64
        e 0 91 49 64
        e 94 81 40 40
        e 0 81 45 40
        e 0 81 49 40
        e 2 91 3e 64
        e 0 91 45 64
        e 0 91 47 64
        e 94 81 45 40
        e 2 91 44 64
        e 94 81 3e 40
        e 0 81 47 40
        e 0 81 44 40
        e 2 91 3d 64
        e 0 91 40 64
        e 0 91 45 64
        e 190 81 3d 40
        e 0 81 40 40
        e 0 81 45 40
        e 2 91 40 64
        e 0 91 45 64
        e 0 91 49 64
        e 94 81 40 40
        e 0 81 45 40
        e 0 81 49 40
        e 2 91 40 64
        e 0 91 45 64
        e 0 91 49 64
        e 94 81 40 40
        e 0 81 45 40
        e 0 81 49 40
        e 2 91 40 64
        e 0 91 45 64
        e 0 91 49 64
        e 190 81 40 40
        e 0 81 45 40
        e 0 81 49 40
        e 2 91 3e 64
        e 0 91 42 64
        e 0 91 47 64
        e 190 81 3e 40
        e 0 81 42 40
        e 0 81 47 40
        e 2 91 3e 64
        e 0 91 42 64
        e 0 91 47 64
        e 94 81 3e 40
        e 0 81 42 40
        e 0 81 47 40
        e 2 91 3e 64
        e 0 91 42 64
        e 0 91 47 64
        e 94 81 3e 40
        e 0 81 42 40
        e 0 81 47 40
        e 2 91 3e 64
        e 0 91 44 64
        e 0 91 47 64
        e 94 81 3e 40
        e 0 81 44 40
        e 0 81 47 40
        e 2 91 40 64
        e 0 91 44 64
        e 0 91 49 64
        e 94 81 40 40
        e 0 81 44 40
        e 0 81 49 40
        e 2 91 3e 64
        e 0 91 42 64
        e 0 91 47 64
        e 94 81 42 40
        e 2 91 44 64
        e 94 81 3e 40
        e 0 81 47 40
        e 0 81 44 40
        e 2 91 3d 64
        e 0 91 42 64
        e 0 91 45 64
        e 190 81 3d 40
        e 0 81 42 40
        e 0 81 45 40
        e 2 91 3e 64
        e 0 91 42 64
        e 0 91 45 64
        e 94 81 3e 40
        e 0 81 42 40
        e 0 81 45 40
        e 2 91 3d 64
        e 0 91 42 64
        e 0 91 45 64
        e 94 81 3d 40
        e 0 81 42 40
        e 0 81 45 40
        e 2 91 3b 64
        e 0 91 42 64
        e 0 91 44 64
        e 94 81 3b 40
        e 0 81 42 40
        e 0 81 44 40
        e 2 91 3d 64
        e 0 91 42 64
        e 0 91 45 64
        e 94 81 3d 40
        e 0 81 42 40
        e 0 81 45 40
        e 2 91 3e 64
        e 0 91 42 64
        e 0 91 47 64
        e 94 81 3e 40
        e 0 81 42 40
        e 0 81 47 40
        e 2 91 3d 64
        e 0 91 42 64
        e 0 91 45 64
        e 94 81 3d 40
        e 0 81 42 40
        e 0 81 45 40
        e 2 91 3b 64
        e 0 91 42 64
        e 0 91 44 64
        e 94 81 42 40
        e 2 91 41 64
        e 94 81 3b 40
        e 0 81 44 40
        e 0 81 41 40
        e 2 91 39 64
        e 0 91 3d 64
        e 0 91 42 64
        e 190 81 39 40
        e 0 81 3d 40
        e 0 81 42 40
        e 2 91 40 64
        e 0 91 45 64
        e 0 91 49 64
        e 94 81 40 40
        e 0 81 45 40
        e 0 81 49 40
        e 2 91 40 64
        e 0 91 45 64
        e 0 91 49 64
        e 94 81 40 40
        e 0 81 45 40
        e 0 81 49 40
        e 2 91 40 64
        e 0 91 45 64
        e 0 91 49 64
        e 190 81 40 40
        e 0 81 45 40
        e 0 81 49 40
        e 2 91 3e 64
        e 0 91 42 64
        e 0 91 47 64
        e 190 81 3e 40
        e 0 81 42 40
        e 0 81 47 40
        e 2 91 3e 64
        e 0 91 42 64
        e 0 91 47 64
        e 94 81 3e 40
        e 0 81 42 40
        e 0 81 47 40
        e 2 91 3e 64
        e 0 91 42 64
        e 0 91 47 64
        e 94 81 3e 40
        e 0 81 42 40
        e 0 81 47 40
        e 2 91 3e 64
        e 0 91 44 64
        e 0 91 47 64
        e 94 81 3e 40
        e 0 81 44 40
        e 0 81 47 40
        e 2 91 40 64
        e 0 91 44 64
        e 0 91 49 64
        e 94 81 40 40
        e 0 81 44 40
        e 0 81 49 40
        e 2 91 3e 64
        e 0 91 42 64
        e 0 91 47 64
        e 94 81 42 40
        e 2 91 44 64
        e 94 81 3e 40
        e 0 81 47 40
        e 0 81 44 40
        e 2 91 3d 64
        e 0 91 42 64
        e 0 91 45 64
        e 190 81 3d 40
        e 0 81 42 40
        e 0 81 45 40
        e 2 91 3e 64
        e 0 91 42 64
        e 0 91 45 64
        e 94 81 3e 40
        e 0 81 42 40
        e 0 81 45 40
        e 2 91 3d 64
        e 0 91 42 64
        e 0 91 45 64
        e 94 81 3d 40
        e 0 81 42 40
        e 0 81 45 40
        e 2 91 3b 64
        e 0 91 42 64
        e 0 91 44 64
        e 94 81 3b 40
        e 0 81 42 40
        e 0 81 44 40
        e 2 91 3d 64
        e 0 91 42 64
        e 0 91 45 64
        e 94 81 3d 40
        e 0 81 42 40
        e 0 81 45 40
        e 2 91 3e 64
        e 0 91 42 64
        e 0 91 47 64
        e 94 81 3e 40
        e 0 81 42 40
        e 0 81 47 40
        e 2 91 3d 64
        e 0 91 42 64
        e 0 91 45 64
        e 94 81 3d 40
        e 0 81 42 40
        e 0 81 45 40
        e 2 91 3b 64
        e 0 91 42 64
        e 0 91 44 64
        e 94 81 42 40
        e 2 91 41 64
        e 94 81 3b 40
        e 0 81 44 40
        e 0 81 41 40
        e 2 91 39 64
        e 0 91 3d 64
        e 0 91 42 64
        e 575 81 39 40
        e 0 81 3d 40
        e 0 81 42 40
        E 1 b0 7b 00
        GUID {3390A934-AF7E-0743-898E-3604A057D7C6}
        IGNTEMPO 0 120 4 4
        SRCCOLOR 614
        VELLANE -1 86 6
        CFGEDITVIEW -3614.370651 10.624256 76 16 0 0 0 0 0 0.5
        KEYSNAP 0
        TRACKSEL 226
        EVTFILTER 0 -1 -1 -1 -1 0 0 0 0 -1 -1 -1 -1 0 -1 0 -1 -1
        CFGEDIT 1 1 0 0 0 0 1 0 1 1 1 0.25 506 494 1014 762 1 0 1 3 0 0 0 0 0 -1 0 0 1 64
      >
      TAKE
      NAME "Accomp. RH           - National_Anthems_-_Czech_Republic.mid"
      TAKEVOLPAN 0 1 -1
      SOFFS 0 0
      PLAYRATE 1 1 0 -1 0 0.0025
      CHANMODE 0
      GUID {DDF2B48B-35AD-2941-A810-77591ED32793}
      <SOURCE MIDI
        HASDATA 1 192 QN
        POOLEDEVTS {90FF0739-627F-E54E-8A4D-D10E49E8C7F3}
        <X 0 0 0 0 3 "Accomp. RH          "
          /wNBY2NvbXAuIFJIICAgICAgICAgIA==
        >
        E 192 91 45 64
        E 0 91 3e 64
        E 0 91 42 64
        E 382 81 45 40
        E 0 81 3e 40
        E 0 81 42 40
        E 2 91 47 64
        E 0 91 43 64
        E 0 91 3e 64
        E 94 81 47 40
        E 0 81 43 40
        E 0 81 3e 40
        E 2 91 45 64
        E 0 91 42 64
        E 0 91 3e 64
        E 94 81 45 40
        E 0 81 42 40
        E 0 81 3e 40
        E 2 91 40 64
        E 0 91 3b 64
        E 190 81 40 40
        E 0 81 3b 40
        E 2 91 3b 64
        E 0 91 43 64
        E 0 91 3d 64
        E 382 81 3b 40
        E 0 81 43 40
        E 0 81 3d 40
        E 2 91 42 64
        E 0 91 39 64
        E 0 91 3d 64
        E 94 81 42 40
        E 0 81 39 40
        E 0 81 3d 40
        E 2 91 40 64
        E 0 91 37 64
        E 94 81 40 40
        E 0 81 37 40
        E 2 91 3e 64
        E 0 91 36 64
        E 574 81 3e 40
        E 0 81 36 40
        E 2 91 3e 64
        E 0 91 36 64
        E 0 91 3c 64
        E 142 81 3e 40
        E 48 81 36 40
        E 0 81 3c 40
        E 2 91 3b 64
        E 0 91 3e 64
        E 94 81 3b 40
        E 0 81 3e 40
        E 2 91 43 64
        E 94 81 43 40
        E 2 91 3b 64
        E 0 91 3e 64
        E 0 91 43 64
        E 382 81 3b 40
        E 0 81 3e 40
        E 0 81 43 40
        E 2 91 45 64
        E 0 91 3e 64
        E 0 91 39 64
        E 94 81 45 40
        E 0 81 3e 40
        E 0 81 39 40
        E 2 91 47 64
        E 0 91 3b 64
        E 94 81 47 40
        E 0 81 3b 40
        E 2 91 45 64
        E 0 91 3d 64
        E 0 91 39 64
        E 94 81 45 40
        E 0 81 3d 40
        E 0 81 39 40
        E 2 91 42 64
        E 94 81 42 40
        E 2 91 36 64
        E 0 91 3e 64
        E 0 91 3b 64
        E 190 81 3b 40
        E 192 81 36 40
        E 0 81 3e 40
        E 2 91 39 64
        E 0 91 3e 64
        E 0 91 36 64
        E 94 81 39 40
        E 0 81 3e 40
        E 2 91 3e 64
        E 22 81 36 40
        E 74 81 3e 40
        E 0 91 3e 64
        E 0 91 37 64
        E 94 81 3e 40
        E 0 81 37 40
        E 2 91 43 64
        E 94 81 43 40
        E 2 91 43 64
        E 0 91 3e 64
        E 0 91 3b 64
        E 94 81 43 40
        E 0 81 3e 40
        E 0 81 3b 40
        E 2 91 47 64
        E 94 81 47 40
        E 2 91 47 64
        E 0 91 3e 64
        E 0 91 4a 64
        E 190 81 47 40
        E 0 81 3e 40
        E 0 81 4a 40
        E 2 91 45 64
        E 0 91 49 64
        E 0 91 3d 64
        E 94 81 45 40
        E 0 81 49 40
        E 0 81 3d 40
        E 2 91 44 64
        E 0 91 47 64
        E 0 91 3b 64
        E 94 81 44 40
        E 0 81 47 40
        E 0 81 3b 40
        E 2 91 47 64
        E 0 91 3b 64
        E 0 91 44 64
        E 190 81 47 40
        E 0 81 3b 40
        E 0 81 44 40
        E 2 91 42 64
        E 0 91 39 64
        E 0 91 45 64
        E 94 81 39 40
        E 2 91 3b 64
        E 94 81 3b 40
        E 2 91 3d 64
        E 190 81 42 40
        E 0 81 45 40
        E 2 91 45 64
        E 142 81 45 40
        E 2 91 45 64
        E 46 81 3d 40
        E 0 81 45 40
        E 2 91 43 64
        E 0 91 3d 64
        E 0 91 45 64
        E 462 81 43 40
        E 0 81 3d 40
        E 0 81 45 40
        E 18 91 47 64
        E 0 91 43 64
        E 0 91 3b 64
        E 94 81 47 40
        E 0 81 43 40
        E 0 81 3b 40
        E 2 91 45 64
        E 0 91 42 64
        E 0 91 3c 64
        E 94 81 45 40
        E 0 81 42 40
        E 0 81 3c 40
        E 2 91 43 64
        E 0 91 40 64
        E 0 91 3d 64
        E 94 81 43 40
        E 0 81 40 40
        E 0 81 3d 40
        E 2 91 42 64
        E 0 91 3e 64
        E 574 81 42 40
        E 0 81 3e 40
        E 2 91 45 64
        E 0 91 3e 64
        E 0 91 42 64
        E 142 81 45 40
        E 0 81 3e 40
        E 0 81 42 40
        E 2 91 45 64
        E 46 81 45 40
        E 2 91 49 64
        E 0 91 40 64
        E 0 91 43 64
        E 414 81 49 40
        E 0 81 40 40
        E 0 81 43 40
        E 66 91 43 64
        E 0 91 47 64
        E 0 91 3b 64
        E 94 81 43 40
        E 0 81 47 40
        E 0 81 3b 40
        E 2 91 45 64
        E 0 91 3c 64
        E 0 91 42 64
        E 94 81 45 40
        E 0 81 3c 40
        E 0 81 42 40
        E 2 91 3d 64
        E 0 91 40 64
        E 0 91 43 64
        E 94 81 3d 40
        E 0 81 40 40
        E 0 81 43 40
        E 2 91 42 64
        E 0 91 3e 64
        E 574 81 42 40
        E 0 81 3e 40
        E 2 91 42 64
        E 0 91 3a 64
        E 0 91 40 64
        E 142 81 42 40
        E 2 91 42 64
        E 46 81 3a 40
        E 0 81 40 40
        E 0 81 42 40
        E 2 91 42 64
        E 0 91 3e 64
        E 0 91 3b 64
        E 190 81 3e 40
        E 0 81 3b 40
        E 2 91 3e 64
        E 0 91 3b 64
        E 190 81 3e 40
        E 0 81 3b 40
        E 2 91 40 64
        E 0 91 3a 64
        E 30 81 42 40
        E 66 91 42 64
        E 94 81 40 40
        E 0 81 3a 40
        E 0 81 42 40
        E 2 91 3e 64
        E 0 91 44 64
        E 0 91 42 64
        E 94 81 3e 40
        E 0 81 44 40
        E 0 81 42 40
        E 2 91 40 64
        E 0 91 3d 64
        E 0 91 46 64
        E 94 81 40 40
        E 0 81 3d 40
        E 0 81 46 40
        E 2 91 40 64
        E 0 91 46 64
        E 0 91 3d 64
        E 94 81 40 40
        E 0 81 46 40
        E 0 81 3d 40
        E 2 91 3d 64
        E 0 91 3e 64
        E 0 91 47 64
        E 0 91 3b 64
        E 94 81 3d 40
        E 0 81 3e 40
        E 0 81 47 40
        E 0 81 3b 40
        E 2 91 3b 64
        E 0 91 3e 64
        E 0 91 47 64
        E 382 81 3b 40
        E 0 81 3e 40
        E 0 81 47 40
        E 2 91 43 64
        E 0 91 47 64
        E 0 91 3b 64
        E 142 81 47 40
        E 2 91 47 64
        E 46 81 43 40
        E 0 81 3b 40
        E 0 81 47 40
        E 2 91 43 64
        E 0 91 40 64
        E 0 91 47 64
        E 94 81 47 40
        E 2 91 45 64
        E 94 81 43 40
        E 0 81 40 40
        E 0 81 45 40
        E 2 91 45 64
        E 0 91 43 64
        E 0 91 3d 64
        E 382 81 45 40
        E 0 81 43 40
        E 0 81 3d 40
        E 2 91 3d 64
        E 0 91 43 64
        E 94 81 43 40
        E 96 81 3d 40
        E 2 91 3e 64
        E 0 91 42 64
        E 190 81 3e 40
        E 0 81 42 40
        E 2 91 4a 64
        E 0 91 47 64
        E 0 91 42 64
        E 382 81 4a 40
        E 0 81 47 40
        E 0 81 42 40
        E 2 91 49 64
        E 0 91 45 64
        E 0 91 3e 64
        E 94 81 49 40
        E 0 81 45 40
        E 2 91 47 64
        E 0 91 43 64
        E 94 81 3e 40
        E 0 81 47 40
        E 0 81 43 40
        E 2 91 47 64
        E 0 91 42 64
        E 0 91 3e 64
        E 190 81 47 40
        E 2 91 45 64
        E 190 81 42 40
        E 0 81 3e 40
        E 192 81 45 40
        E 2 91 37 64
        E 0 91 3d 64
        E 0 91 40 64
        E 94 81 37 40
        E 2 91 42 64
        E 94 81 3d 40
        E 0 81 40 40
        E 0 81 42 40
        E 2 91 36 64
        E 0 91 3e 64
        E 382 81 36 40
        E 0 81 3e 40
        E 386 91 42 64
        E 94 81 42 40
        E 2 91 44 64
        E 94 81 44 40
        E 2 91 45 64
        E 0 91 3d 64
        E 0 91 42 64
        E 190 81 45 40
        E 0 81 3d 40
        E 0 81 42 40
        E 2 91 45 64
        E 0 91 3d 64
        E 0 91 42 64
        E 190 81 45 40
        E 0 81 3d 40
        E 0 81 42 40
        E 2 91 45 64
        E 0 91 3e 64
        E 0 91 42 64
        E 94 81 45 40
        E 0 81 3e 40
        E 0 81 42 40
        E 2 91 45 64
        E 0 91 42 64
        E 0 91 3d 64
        E 94 81 45 40
        E 0 81 42 40
        E 0 81 3d 40
        E 2 91 44 64
        E 0 91 3b 64
        E 0 91 42 64
        E 94 81 44 40
        E 0 81 3b 40
        E 0 81 42 40
        E 2 91 3d 64
        E 0 91 45 64
        E 0 91 42 64
        E 94 81 3d 40
        E 0 81 45 40
        E 0 81 42 40
        E 2 91 47 64
        E 0 91 3e 64
        E 0 91 42 64
        E 94 81 47 40
        E 0 81 3e 40
        E 0 81 42 40
        E 2 91 45 64
        E 0 91 3d 64
        E 0 91 42 64
        E 94 81 45 40
        E 0 81 3d 40
        E 0 81 42 40
        E 2 91 44 64
        E 0 91 42 64
        E 0 91 3b 64
        E 94 81 42 40
        E 2 91 41 64
        E 94 81 44 40
        E 0 81 3b 40
        E 0 81 41 40
        E 2 91 42 64
        E 0 91 3d 64
        E 0 91 39 64
        E 190 81 42 40
        E 0 81 3d 40
        E 0 81 39 40
        E 2 91 45 64
        E 94 81 45 40
        E 2 91 47 64
        E 94 81 47 40
        E 2 91 49 64
        E 0 91 40 64
        E 0 91 45 64
        E 190 81 49 40
        E 0 81 40 40
        E 0 81 45 40
        E 2 91 49 64
        E 0 91 40 64
        E 0 91 45 64
        E 190 81 49 40
        E 0 81 40 40
        E 0 81 45 40
        E 2 91 45 64
        E 0 91 42 64
        E 0 91 49 64
        E 94 81 45 40
        E 0 81 42 40
        E 0 81 49 40
        E 2 91 49 64
        E 0 91 40 64
        E 0 91 45 64
        E 94 81 49 40
        E 0 81 40 40
        E 0 81 45 40
        E 2 91 47 64
        E 0 91 45 64
        E 0 91 3e 64
        E 94 81 47 40
        E 0 81 45 40
        E 0 81 3e 40
        E 2 91 45 64
        E 0 91 49 64
        E 0 91 40 64
        E 94 81 45 40
        E 0 81 49 40
        E 0 81 40 40
        E 2 91 42 64
        E 0 91 4a 64
        E 0 91 45 64
        E 94 81 42 40
        E 0 81 4a 40
        E 0 81 45 40
        E 2 91 49 64
        E 0 91 45 64
        E 0 91 40 64
        E 94 81 49 40
        E 0 81 45 40
        E 0 81 40 40
        E 2 91 45 64
        E 0 91 47 64
        E 0 91 3e 64
        E 94 81 45 40
        E 2 91 44 64
        E 94 81 47 40
        E 0 81 3e 40
        E 0 81 44 40
        E 2 91 3d 64
        E 0 91 40 64
        E 0 91 45 64
        E 190 81 3d 40
        E 0 81 40 40
        E 0 81 45 40
        E 2 91 45 64
        E 0 91 49 64
        E 0 91 40 64
        E 94 81 45 40
        E 0 81 49 40
        E 0 81 40 40
        E 2 91 45 64
        E 0 91 40 64
        E 0 91 49 64
        E 94 81 45 40
        E 0 81 40 40
        E 0 81 49 40
        E 2 91 40 64
        E 0 91 49 64
        E 0 91 45 64
        E 190 81 40 40
        E 0 81 49 40
        E 0 81 45 40
        E 2 91 47 64
        E 0 91 42 64
        E 0 91 3e 64
        E 190 81 47 40
        E 0 81 42 40
        E 0 81 3e 40
        E 2 91 47 64
        E 0 91 3e 64
        E 0 91 42 64
        E 94 81 47 40
        E 0 81 3e 40
        E 0 81 42 40
        E 2 91 47 64
        E 0 91 3e 64
        E 0 91 42 64
        E 94 81 47 40
        E 0 81 3e 40
        E 0 81 42 40
        E 2 91 47 64
        E 0 91 3e 64
        E 0 91 44 64
        E 94 81 47 40
        E 0 81 3e 40
        E 0 81 44 40
        E 2 91 49 64
        E 0 91 40 64
        E 0 91 44 64
        E 94 81 49 40
        E 0 81 40 40
        E 0 81 44 40
        E 2 91 42 64
        E 0 91 47 64
        E 0 91 3e 64
        E 94 81 42 40
        E 2 91 44 64
        E 94 81 47 40
        E 0 81 3e 40
        E 0 81 44 40
        E 2 91 45 64
        E 0 91 3d 64
        E 0 91 42 64
        E 190 81 45 40
        E 0 81 3d 40
        E 0 81 42 40
        E 2 91 45 64
        E 0 91 3e 64
        E 0 91 42 64
        E 94 81 45 40
        E 0 81 3e 40
        E 0 81 42 40
        E 2 91 45 64
        E 0 91 3d 64
        E 0 91 42 64
        E 94 81 45 40
        E 0 81 3d 40
        E 0 81 42 40
        E 2 91 44 64
        E 0 91 42 64
        E 0 91 3b 64
        E 94 81 44 40
        E 0 81 42 40
        E 0 81 3b 40
        E 2 91 45 64
        E 0 91 3d 64
        E 0 91 42 64
        E 94 81 45 40
        E 0 81 3d 40
        E 0 81 42 40
        E 2 91 47 64
        E 0 91 3e 64
        E 0 91 42 64
        E 94 81 47 40
        E 0 81 3e 40
        E 0 81 42 40
        E 2 91 3d 64
        E 0 91 42 64
        E 0 91 45 64
        E 94 81 3d 40
        E 0 81 42 40
        E 0 81 45 40
        E 2 91 44 64
        E 0 91 42 64
        E 0 91 3b 64
        E 94 81 42 40
        E 2 91 41 64
        E 94 81 44 40
        E 0 81 3b 40
        E 0 81 41 40
        E 2 91 42 64
        E 0 91 39 64
        E 0 91 3d 64
        E 190 81 42 40
        E 0 81 39 40
        E 0 81 3d 40
        E 2 91 45 64
        E 0 91 49 64
        E 0 91 40 64
        E 94 81 45 40
        E 0 81 49 40
        E 0 81 40 40
        E 2 91 45 64
        E 0 91 40 64
        E 0 91 49 64
        E 94 81 45 40
        E 0 81 40 40
        E 0 81 49 40
        E 2 91 40 64
        E 0 91 49 64
        E 0 91 45 64
        E 190 81 40 40
        E 0 81 49 40
        E 0 81 45 40
        E 2 91 47 64
        E 0 91 42 64
        E 0 91 3e 64
        E 190 81 47 40
        E 0 81 42 40
        E 0 81 3e 40
        E 2 91 47 64
        E 0 91 3e 64
        E 0 91 42 64
        E 94 81 47 40
        E 0 81 3e 40
        E 0 81 42 40
        E 2 91 47 64
        E 0 91 3e 64
        E 0 91 42 64
        E 94 81 47 40
        E 0 81 3e 40
        E 0 81 42 40
        E 2 91 47 64
        E 0 91 3e 64
        E 0 91 44 64
        E 94 81 47 40
        E 0 81 3e 40
        E 0 81 44 40
        E 2 91 49 64
        E 0 91 40 64
        E 0 91 44 64
        E 94 81 49 40
        E 0 81 40 40
        E 0 81 44 40
        E 2 91 42 64
        E 0 91 47 64
        E 0 91 3e 64
        E 94 81 42 40
        E 2 91 44 64
        E 94 81 47 40
        E 0 81 3e 40
        E 0 81 44 40
        E 2 91 45 64
        E 0 91 3d 64
        E 0 91 42 64
        E 190 81 45 40
        E 0 81 3d 40
        E 0 81 42 40
        E 2 91 45 64
        E 0 91 3e 64
        E 0 91 42 64
        E 94 81 45 40
        E 0 81 3e 40
        E 0 81 42 40
        E 2 91 45 64
        E 0 91 3d 64
        E 0 91 42 64
        E 94 81 45 40
        E 0 81 3d 40
        E 0 81 42 40
        E 2 91 44 64
        E 0 91 42 64
        E 0 91 3b 64
        E 94 81 44 40
        E 0 81 42 40
        E 0 81 3b 40
        E 2 91 45 64
        E 0 91 3d 64
        E 0 91 42 64
        E 94 81 45 40
        E 0 81 3d 40
        E 0 81 42 40
        E 2 91 47 64
        E 0 91 3e 64
        E 0 91 42 64
        E 94 81 47 40
        E 0 81 3e 40
        E 0 81 42 40
        E 2 91 3d 64
        E 0 91 42 64
        E 0 91 45 64
        E 94 81 3d 40
        E 0 81 42 40
        E 0 81 45 40
        E 2 91 44 64
        E 0 91 42 64
        E 0 91 3b 64
        E 94 81 42 40
        E 2 91 41 64
        E 94 81 44 40
        E 0 81 3b 40
        E 0 81 41 40
        E 2 91 42 64
        E 0 91 39 64
        E 0 91 3d 64
        E 575 81 3d 40
        E 0 81 39 40
        E 0 81 42 40
        E 1 b0 7b 00
        GUID {A7FD9BE0-43CD-7549-8FE9-CA1DF8633223}
        IGNTEMPO 0 120 4 4
        SRCCOLOR 672
        VELLANE -1 86 6
        CFGEDITVIEW -1065.84086 23.057851 52 16 0 0 0 0 0 0.5
        KEYSNAP 0
        TRACKSEL -226
        EVTFILTER 0 -1 -1 -1 -1 0 0 0 0 -1 -1 -1 -1 0 -1 0 -1 -1
        CFGEDIT 1 1 0 0 0 0 1 0 1 0 0 0.25 522 510 1014 762 1 0 1 3 0 0 0 0 0 -1 0 0 1 64
      >
    >
  >
  <TRACK {3C494A2B-9670-9740-AD22-E42CC5065FE1}
    NAME "ch2,4 (send)"
    PEAKCOL 16576
    BEAT -1
    AUTOMODE 0
    VOLPAN 1 0 -1 -1 1
    MUTESOLO 0 0 0
    IPHASE 0
    ISBUS 0 0
    BUSCOMP 0 0
    SHOWINMIX 1 0.6667 0.5 1 0.5 0 0 0
    FREEMODE 0
    SEL 0
    REC 0 0 0 0 0 0 0
    VU 2
    MIDICTL -1 1
    TRACKHEIGHT 0 0
    INQ 0 0 0 0.5 100 0 0 100
    NCHAN 2
    FX 1
    TRACKID {3C494A2B-9670-9740-AD22-E42CC5065FE1}
    PERF 0
    MIDIOUT -1
    MAINSEND 1 0
    <FXCHAIN
      WNDRECT 32 359 724 387
      SHOW 0
      LASTSEL 0
      DOCKED 0
    >
    <ITEM
      POSITION 0
      SNAPOFFS 0
      LENGTH 55
      LOOP 1
      ALLTAKES 0
      FADEIN 1 0 0 1 0 0
      FADEOUT 1 0 0 1 0 0
      MUTE 0
      SEL 0
      YPOS 0.25 0.25
      IGUID {B995225E-4C04-FB4A-B2E6-86522EF1400D}
      IID 3
      NAME "Accomp. LH           - National_Anthems_-_Czech_Republic.mid"
      VOLPAN 1 0 1 -1
      SOFFS 0 0
      PLAYRATE 1 1 0 -1 0 0.0025
      CHANMODE 0
      TAKECOLOR 26173599 B
      GUID {9A554832-51A3-5A4D-BB1D-B9991854E185}
      <SOURCE MIDI
        HASDATA 1 192 QN
        POOLEDEVTS {DDDB92F1-5F2E-954D-BFFA-5DCA5751C4A4}
        <X 0 0 0 0 3 "Accomp. LH          "
          /wNBY2NvbXAuIExIICAgICAgICAgIA==
        >
        e 0 92 26 64
        e 0 92 32 64
        e 190 82 26 40
        e 0 82 32 40
        e 2 92 32 64
        e 0 92 36 64
        e 0 92 39 64
        e 382 82 32 40
        e 0 82 36 40
        e 0 82 39 40
        e 2 92 32 64
        e 0 92 37 64
        e 0 92 3b 64
        e 94 82 32 40
        e 0 82 37 40
        e 0 82 3b 40
        e 2 92 32 64
        e 0 92 36 64
        e 0 92 39 64
        e 94 82 32 40
        e 0 82 36 40
        e 0 82 39 40
        e 2 92 34 64
        e 0 92 37 64
        e 190 82 34 40
        e 0 82 37 40
        e 2 92 2d 64
        e 382 82 2d 40
        e 2 92 2d 64
        e 190 82 2d 40
        e 2 92 32 64
        e 190 82 32 40
        e 2 92 30 64
        e 190 82 30 40
        e 2 92 2f 64
        e 190 82 2f 40
        e 2 92 2d 64
        e 190 82 2d 40
        e 2 92 2b 64
        e 190 82 2b 40
        e 2 92 2a 64
        e 190 82 2a 40
        e 2 92 28 64
        e 190 82 28 40
        e 2 92 2a 64
        e 94 82 2a 40
        e 2 92 2b 64
        e 94 82 2b 40
        e 2 92 2a 64
        e 190 82 2a 40
        e 2 92 2f 64
        e 190 82 2f 40
        e 2 92 32 64
        e 190 82 32 40
        e 2 92 30 64
        e 190 82 30 40
        e 2 92 2f 64
        e 190 82 2f 40
        e 2 92 2b 64
        e 190 82 2b 40
        e 2 92 28 64
        e 190 82 28 40
        e 2 92 29 64
        e 190 82 29 40
        e 2 92 2a 64
        e 94 82 2a 40
        e 2 92 31 64
        e 94 82 31 40
        e 2 92 36 64
        e 94 82 36 40
        e 2 92 38 64
        e 94 82 38 40
        e 2 92 39 64
        e 190 82 39 40
        e 2 92 36 64
        e 190 82 36 40
        e 2 92 34 64
        e 94 82 34 40
        e 2 92 2d 64
        e 94 82 2d 40
        e 2 92 31 64
        e 94 82 31 40
        e 2 92 34 64
        e 94 82 34 40
        e 2 92 39 64
        e 190 82 39 40
        e 2 92 2d 64
        e 190 82 2d 40
        e 2 92 26 64
        e 94 82 26 40
        e 2 92 2d 64
        e 94 82 2d 40
        e 2 92 32 64
        e 94 82 32 40
        e 2 92 34 64
        e 94 82 34 40
        e 2 92 36 64
        e 190 82 36 40
        e 2 92 32 64
        e 190 82 32 40
        e 2 92 34 64
        e 94 82 34 40
        e 2 92 2d 64
        e 94 82 2d 40
        e 2 92 31 64
        e 94 82 31 40
        e 2 92 34 64
        e 94 82 34 40
        e 2 92 39 64
        e 190 82 39 40
        e 2 92 2d 64
        e 190 82 2d 40
        e 2 92 26 64
        e 94 82 26 40
        e 2 92 2d 64
        e 94 82 2d 40
        e 2 92 32 64
        e 94 82 32 40
        e 2 92 34 64
        e 94 82 34 40
        e 2 92 36 64
        e 94 82 36 40
        e 2 92 34 64
        e 94 82 34 40
        e 2 92 32 64
        e 94 82 32 40
        e 2 92 31 64
        e 94 82 31 40
        e 2 92 2f 64
        e 94 82 2f 40
        e 2 92 2a 64
        e 94 82 2a 40
        e 2 92 2f 64
        e 94 82 2f 40
        e 2 92 32 64
        e 94 82 32 40
        e 2 92 31 64
        e 190 82 31 40
        e 2 92 2a 64
        e 190 82 2a 40
        e 2 92 2f 64
        e 94 82 2f 40
        e 2 92 2a 64
        e 94 82 2a 40
        e 2 92 2f 64
        e 94 82 2f 40
        e 2 92 32 64
        e 94 82 32 40
        e 2 92 36 64
        e 190 82 36 40
        e 2 92 34 64
        e 94 82 34 40
        e 2 92 32 64
        e 94 82 32 40
        e 2 92 31 64
        e 190 82 31 40
        e 2 92 34 64
        e 190 82 34 40
        e 2 92 2d 64
        e 190 82 2d 40
        e 2 92 34 64
        e 190 82 34 40
        e 2 92 2f 64
        e 94 82 2f 40
        e 2 92 32 64
        e 94 82 32 40
        e 2 92 36 64
        e 94 82 36 40
        e 2 92 3b 64
        e 94 82 3b 40
        e 2 92 3e 64
        e 190 82 3e 40
        e 2 92 2b 64
        e 190 82 2b 40
        e 2 92 2f 64
        e 94 82 2f 40
        e 2 92 32 64
        e 94 82 32 40
        e 2 92 36 64
        e 94 82 36 40
        e 2 92 32 64
        e 94 82 32 40
        e 2 92 39 64
        e 190 82 39 40
        e 2 92 2d 64
        e 190 82 2d 40
        e 2 92 32 64
        e 94 82 32 40
        e 2 92 2d 64
        e 94 82 2d 40
        e 2 92 2a 64
        e 94 82 2a 40
        e 2 92 2d 64
        e 94 82 2d 40
        e 2 92 26 64
        e 382 82 26 40
        e 194 92 2a 64
        e 94 82 2a 40
        e 2 92 2c 64
        e 94 82 2c 40
        e 2 92 2d 64
        e 190 82 2d 40
        e 2 92 2f 64
        e 94 82 2f 40
        e 2 92 31 64
        e 94 82 31 40
        e 2 92 32 64
        e 94 82 32 40
        e 2 92 31 64
        e 94 82 31 40
        e 2 92 2f 64
        e 94 82 2f 40
        e 2 92 31 64
        e 94 82 31 40
        e 2 92 32 64
        e 94 82 32 40
        e 2 92 31 64
        e 94 82 31 40
        e 2 92 36 64
        e 190 82 36 40
        e 194 92 2d 64
        e 94 82 2d 40
        e 2 92 2f 64
        e 94 82 2f 40
        e 2 92 31 64
        e 190 82 31 40
        e 2 92 32 64
        e 94 82 32 40
        e 2 92 34 64
        e 94 82 34 40
        e 2 92 36 64
        e 94 82 36 40
        e 2 92 34 64
        e 94 82 34 40
        e 2 92 32 64
        e 94 82 32 40
        e 2 92 34 64
        e 94 82 34 40
        e 2 92 36 64
        e 94 82 36 40
        e 2 92 34 64
        e 94 82 34 40
        e 2 92 39 64
        e 190 82 39 40
        e 2 92 39 64
        e 94 82 39 40
        e 2 92 36 64
        e 94 82 36 40
        e 2 92 38 64
        e 94 82 38 40
        e 2 92 39 64
        e 94 82 39 40
        e 2 92 3b 64
        e 94 82 3b 40
        e 2 92 2f 64
        e 94 82 2f 40
        e 2 92 31 64
        e 94 82 31 40
        e 2 92 32 64
        e 94 82 32 40
        e 2 92 34 64
        e 94 82 34 40
        e 2 92 31 64
        e 94 82 31 40
        e 2 92 32 64
        e 94 82 32 40
        e 2 92 34 64
        e 94 82 34 40
        e 2 92 36 64
        e 94 82 36 40
        e 2 92 2d 64
        e 94 82 2d 40
        e 2 92 2f 64
        e 94 82 2f 40
        e 2 92 31 64
        e 94 82 31 40
        e 2 92 32 64
        e 94 82 32 40
        e 2 92 31 64
        e 94 82 31 40
        e 2 92 2f 64
        e 94 82 2f 40
        e 2 92 31 64
        e 94 82 31 40
        e 2 92 32 64
        e 94 82 32 40
        e 2 92 31 64
        e 94 82 31 40
        e 2 92 2a 64
        e 190 82 2a 40
        e 2 92 39 64
        e 94 82 39 40
        e 2 92 36 64
        e 94 82 36 40
        e 2 92 38 64
        e 94 82 38 40
        e 2 92 39 64
        e 94 82 39 40
        e 2 92 3b 64
        e 94 82 3b 40
        e 2 92 2f 64
        e 94 82 2f 40
        e 2 92 31 64
        e 94 82 31 40
        e 2 92 32 64
        e 94 82 32 40
        e 2 92 34 64
        e 94 82 34 40
        e 2 92 31 64
        e 94 82 31 40
        e 2 92 32 64
        e 94 82 32 40
        e 2 92 34 64
        e 94 82 34 40
        e 2 92 36 64
        e 94 82 36 40
        e 2 92 2d 64
        e 94 82 2d 40
        e 2 92 2f 64
        e 94 82 2f 40
        e 2 92 31 64
        e 94 82 31 40
        e 2 92 32 64
        e 94 82 32 40
        e 2 92 31 64
        e 94 82 31 40
        e 2 92 2f 64
        e 94 82 2f 40
        e 2 92 31 64
        e 94 82 31 40
        e 2 92 32 64
        e 94 82 32 40
        e 2 92 31 64
        e 94 82 31 40
        e 2 92 2a 64
        e 575 82 2a 40
        E 1 b0 7b 00
        GUID {2C2BF260-3948-ED4E-822A-5A50A8136B1D}
        IGNTEMPO 0 120 4 4
        SRCCOLOR 615
        VELLANE -1 86 6
        CFGEDITVIEW -3614.370651 10.624256 76 16 0 0 0 0 0 0.5
        KEYSNAP 0
        TRACKSEL 226
        EVTFILTER 0 -1 -1 -1 -1 0 0 0 0 -1 -1 -1 -1 0 -1 0 -1 -1
        CFGEDIT 1 1 0 0 0 0 1 0 1 1 1 0.25 506 494 1014 762 1 0 1 3 0 0 0 0 0 -1 0 0 1 64
      >
      TAKE
      NAME "Accomp. LH           - National_Anthems_-_Czech_Republic.mid"
      TAKEVOLPAN 0 1 -1
      SOFFS 0 0
      PLAYRATE 1 1 0 -1 0 0.0025
      CHANMODE 0
      GUID {AB4DFD8A-FC34-204A-AE15-A97389023E72}
      <SOURCE MIDI
        HASDATA 1 192 QN
        POOLEDEVTS {D28BDEA7-E9A5-5642-AE77-A1AC2880BE75}
        <X 0 0 0 0 3 "Accomp. LH          "
          /wNBY2NvbXAuIExIICAgICAgICAgIA==
        >
        E 0 92 26 64
        E 0 92 32 64
        E 190 82 26 40
        E 0 82 32 40
        E 2 92 39 64
        E 0 92 36 64
        E 0 92 32 64
        E 382 82 39 40
        E 0 82 36 40
        E 0 82 32 40
        E 2 92 3b 64
        E 0 92 32 64
        E 0 92 37 64
        E 94 82 3b 40
        E 0 82 32 40
        E 0 82 37 40
        E 2 92 39 64
        E 0 92 36 64
        E 0 92 32 64
        E 94 82 39 40
        E 0 82 36 40
        E 0 82 32 40
        E 2 92 37 64
        E 0 92 34 64
        E 190 82 37 40
        E 0 82 34 40
        E 2 92 2d 64
        E 382 82 2d 40
        E 2 92 2d 64
        E 190 82 2d 40
        E 2 92 32 64
        E 190 82 32 40
        E 2 92 30 64
        E 190 82 30 40
        E 2 92 2f 64
        E 190 82 2f 40
        E 2 92 2d 64
        E 190 82 2d 40
        E 2 92 2b 64
        E 190 82 2b 40
        E 2 92 2a 64
        E 190 82 2a 40
        E 2 92 28 64
        E 190 82 28 40
        E 2 92 2a 64
        E 94 82 2a 40
        E 2 92 2b 64
        E 94 82 2b 40
        E 2 92 2a 64
        E 190 82 2a 40
        E 2 92 2f 64
        E 190 82 2f 40
        E 2 92 32 64
        E 190 82 32 40
        E 2 92 30 64
        E 190 82 30 40
        E 2 92 2f 64
        E 190 82 2f 40
        E 2 92 2b 64
        E 190 82 2b 40
        E 2 92 28 64
        E 190 82 28 40
        E 2 92 29 64
        E 190 82 29 40
        E 2 92 2a 64
        E 94 82 2a 40
        E 2 92 31 64
        E 94 82 31 40
        E 2 92 36 64
        E 94 82 36 40
        E 2 92 38 64
        E 94 82 38 40
        E 2 92 39 64
        E 190 82 39 40
        E 2 92 36 64
        E 190 82 36 40
        E 2 92 34 64
        E 94 82 34 40
        E 2 92 2d 64
        E 94 82 2d 40
        E 2 92 31 64
        E 94 82 31 40
        E 2 92 34 64
        E 94 82 34 40
        E 2 92 39 64
        E 190 82 39 40
        E 2 92 2d 64
        E 190 82 2d 40
        E 2 92 26 64
        E 94 82 26 40
        E 2 92 2d 64
        E 94 82 2d 40
        E 2 92 32 64
        E 94 82 32 40
        E 2 92 34 64
        E 94 82 34 40
        E 2 92 36 64
        E 190 82 36 40
        E 2 92 32 64
        E 190 82 32 40
        E 2 92 34 64
        E 94 82 34 40
        E 2 92 2d 64
        E 94 82 2d 40
        E 2 92 31 64
        E 94 82 31 40
        E 2 92 34 64
        E 94 82 34 40
        E 2 92 39 64
        E 190 82 39 40
        E 2 92 2d 64
        E 190 82 2d 40
        E 2 92 26 64
        E 94 82 26 40
        E 2 92 2d 64
        E 94 82 2d 40
        E 2 92 32 64
        E 94 82 32 40
        E 2 92 34 64
        E 94 82 34 40
        E 2 92 36 64
        E 94 82 36 40
        E 2 92 34 64
        E 94 82 34 40
        E 2 92 32 64
        E 94 82 32 40
        E 2 92 31 64
        E 94 82 31 40
        E 2 92 2f 64
        E 94 82 2f 40
        E 2 92 2a 64
        E 94 82 2a 40
        E 2 92 2f 64
        E 94 82 2f 40
        E 2 92 32 64
        E 94 82 32 40
        E 2 92 31 64
        E 190 82 31 40
        E 2 92 2a 64
        E 190 82 2a 40
        E 2 92 2f 64
        E 94 82 2f 40
        E 2 92 2a 64
        E 94 82 2a 40
        E 2 92 2f 64
        E 94 82 2f 40
        E 2 92 32 64
        E 94 82 32 40
        E 2 92 36 64
        E 190 82 36 40
        E 2 92 34 64
        E 94 82 34 40
        E 2 92 32 64
        E 94 82 32 40
        E 2 92 31 64
        E 190 82 31 40
        E 2 92 34 64
        E 190 82 34 40
        E 2 92 2d 64
        E 190 82 2d 40
        E 2 92 34 64
        E 190 82 34 40
        E 2 92 2f 64
        E 94 82 2f 40
        E 2 92 32 64
        E 94 82 32 40
        E 2 92 36 64
        E 94 82 36 40
        E 2 92 3b 64
        E 94 82 3b 40
        E 2 92 3e 64
        E 190 82 3e 40
        E 2 92 2b 64
        E 190 82 2b 40
        E 2 92 2f 64
        E 94 82 2f 40
        E 2 92 32 64
        E 94 82 32 40
        E 2 92 36 64
        E 94 82 36 40
        E 2 92 32 64
        E 94 82 32 40
        E 2 92 39 64
        E 190 82 39 40
        E 2 92 2d 64
        E 190 82 2d 40
        E 2 92 32 64
        E 94 82 32 40
        E 2 92 2d 64
        E 94 82 2d 40
        E 2 92 2a 64
        E 94 82 2a 40
        E 2 92 2d 64
        E 94 82 2d 40
        E 2 92 26 64
        E 382 82 26 40
        E 194 92 2a 64
        E 94 82 2a 40
        E 2 92 2c 64
        E 94 82 2c 40
        E 2 92 2d 64
        E 190 82 2d 40
        E 2 92 2f 64
        E 94 82 2f 40
        E 2 92 31 64
        E 94 82 31 40
        E 2 92 32 64
        E 94 82 32 40
        E 2 92 31 64
        E 94 82 31 40
        E 2 92 2f 64
        E 94 82 2f 40
        E 2 92 31 64
        E 94 82 31 40
        E 2 92 32 64
        E 94 82 32 40
        E 2 92 31 64
        E 94 82 31 40
        E 2 92 36 64
        E 190 82 36 40
        E 194 92 2d 64
        E 94 82 2d 40
        E 2 92 2f 64
        E 94 82 2f 40
        E 2 92 31 64
        E 190 82 31 40
        E 2 92 32 64
        E 94 82 32 40
        E 2 92 34 64
        E 94 82 34 40
        E 2 92 36 64
        E 94 82 36 40
        E 2 92 34 64
        E 94 82 34 40
        E 2 92 32 64
        E 94 82 32 40
        E 2 92 34 64
        E 94 82 34 40
        E 2 92 36 64
        E 94 82 36 40
        E 2 92 34 64
        E 94 82 34 40
        E 2 92 39 64
        E 190 82 39 40
        E 2 92 39 64
        E 94 82 39 40
        E 2 92 36 64
        E 94 82 36 40
        E 2 92 38 64
        E 94 82 38 40
        E 2 92 39 64
        E 94 82 39 40
        E 2 92 3b 64
        E 94 82 3b 40
        E 2 92 2f 64
        E 94 82 2f 40
        E 2 92 31 64
        E 94 82 31 40
        E 2 92 32 64
        E 94 82 32 40
        E 2 92 34 64
        E 94 82 34 40
        E 2 92 31 64
        E 94 82 31 40
        E 2 92 32 64
        E 94 82 32 40
        E 2 92 34 64
        E 94 82 34 40
        E 2 92 36 64
        E 94 82 36 40
        E 2 92 2d 64
        E 94 82 2d 40
        E 2 92 2f 64
        E 94 82 2f 40
        E 2 92 31 64
        E 94 82 31 40
        E 2 92 32 64
        E 94 82 32 40
        E 2 92 31 64
        E 94 82 31 40
        E 2 92 2f 64
        E 94 82 2f 40
        E 2 92 31 64
        E 94 82 31 40
        E 2 92 32 64
        E 94 82 32 40
        E 2 92 31 64
        E 94 82 31 40
        E 2 92 2a 64
        E 190 82 2a 40
        E 2 92 39 64
        E 94 82 39 40
        E 2 92 36 64
        E 94 82 36 40
        E 2 92 38 64
        E 94 82 38 40
        E 2 92 39 64
        E 94 82 39 40
        E 2 92 3b 64
        E 94 82 3b 40
        E 2 92 2f 64
        E 94 82 2f 40
        E 2 92 31 64
        E 94 82 31 40
        E 2 92 32 64
        E 94 82 32 40
        E 2 92 34 64
        E 94 82 34 40
        E 2 92 31 64
        E 94 82 31 40
        E 2 92 32 64
        E 94 82 32 40
        E 2 92 34 64
        E 94 82 34 40
        E 2 92 36 64
        E 94 82 36 40
        E 2 92 2d 64
        E 94 82 2d 40
        E 2 92 2f 64
        E 94 82 2f 40
        E 2 92 31 64
        E 94 82 31 40
        E 2 92 32 64
        E 94 82 32 40
        E 2 92 31 64
        E 94 82 31 40
        E 2 92 2f 64
        E 94 82 2f 40
        E 2 92 31 64
        E 94 82 31 40
        E 2 92 32 64
        E 94 82 32 40
        E 2 92 31 64
        E 94 82 31 40
        E 2 92 2a 64
        E 575 82 2a 40
        E 1 b0 7b 00
        GUID {CA709507-5833-8C48-BD02-8F083C43C279}
        IGNTEMPO 0 120 4 4
        SRCCOLOR 673
        VELLANE -1 86 6
        CFGEDITVIEW -1065.84086 23.057851 52 16 0 0 0 0 0 0.5
        KEYSNAP 0
        TRACKSEL -226
        EVTFILTER 0 -1 -1 -1 -1 0 0 0 0 -1 -1 -1 -1 0 -1 0 -1 -1
        CFGEDIT 1 1 0 0 0 0 1 0 1 0 0 0.25 522 510 1014 762 1 0 1 3 0 0 0 0 0 -1 0 0 1 64
      >
    >
  >
  <TRACK {97C14EE2-C273-C940-9D68-54C062C3CBCA}
    NAME ChipFront
    PEAKCOL 16576
    BEAT -1
    AUTOMODE 0
    VOLPAN 0.38627471009583 0 -1 -1 1
    MUTESOLO 0 0 0
    IPHASE 0
    ISBUS 0 0
    BUSCOMP 0 0
    SHOWINMIX 1 0.6667 0.5 1 0.5 0 0 0
    FREEMODE 0
    SEL 0
    REC 0 0 0 0 0 0 0
    VU 2
    TRACKHEIGHT 0 0
    INQ 0 0 0 0.5 100 0 0 100
    NCHAN 2
    FX 1
    TRACKID {97C14EE2-C273-C940-9D68-54C062C3CBCA}
    PERF 0
    AUXRECV 4 0 1 0 0 0 0 0 0 -1:U 0 -1 ''
    MIDIOUT -1
    MAINSEND 1 0
    <FXCHAIN
      SHOW 0
      LASTSEL 0
      DOCKED 0
      BYPASS 0 0 0
      <VST "VST: FabFilter Volcano 2 (SC) (FabFilter)" "FabFilter Volcano 2 (SC).vst" 0 "" 1180054068
        NDJWRu9e7f4EAAAAAQAAAAAAAAACAAAAAAAAAAQAAAAAAAAACAAAAAAAAAAEAAAAAQAAAAAAAAACAAAAAAAAAAQAAAAAAAAACAAAAAAAAADcCwAAAAAAAAAAEAA=
        776t3g3wrd4AAAA/AAAAPwAAAD8AAAA/AACAPwAAAAAAAAA/q6qqPq2+aD8AAAA/ig0yPM3MzD0AAAAAAAAAAAAAAAAAAIA/AACAP0Isdj8AAAA/bbDgPZqZGT8AAAAA
        AAAAAOev3zwAAIA/AAAAAAAAgD8AAAA/AAAAAJqZGT8AAAAAAAAAAAAAAAAAAIA/AAAAAAAAgD8AAAA/AAAAAJqZGT8AAAAAAAAAAAAAAAAAAIA/AAAAAKuqqj4ATrI+
        AAAAPwAAAADBykk/XXRRPwAAAACJiIg9AACAP6oXiD4AAAAAAAAAAAAAAAAAAAAAAACAPwAAAAAAAAA/AAAAAAAAAAAAAAAAAAAAPwAAAAAAAAAAAAAAAAAAAD8AAAAA
        AAAAAAAAAAAAAAA/AAAAAAAAAAAAAAAAAAAAPwAAAAAAAAAAAAAAAAAAAD8AAAAAAAAAAAAAAAAAAAA/AAAAAAAAAAAAAAAAAAAAPwAAAAAAAAAAAAAAAAAAAD8AAAAA
        AAAAAAAAAAAAAAA/AAAAAAAAAAAAAAAAAAAAPwAAAAAAAAAAAAAAAAAAAD8AAAAAAAAAAAAAAAAAAAA/AAAAAAAAAAAAAAAAAAAAPwAAAAAAAAAAAAAAAHwZED4AAAA/
        KKO3PQAAgD8AAAAAAAAAAImIiD3y0iU/AAAAAAAAgD8AAAAAdGjRPQAAAAAAAIA/AAAAAAAAAD8AAAAAAAAAAAAAAAAAAAA/AAAAAAAAAAAAAAAAAAAAPwAAAAAAAAAA
        AAAAAAAAAD8AAAAAAAAAAAAAAAAAAAA/AAAAAAAAAAAAAAAAAAAAPwAAAAAAAAAAAAAAAAAAAD8AAAAAAAAAAAAAAAAAAAA/AAAAAAAAAAAAAAAAAAAAPwAAAAAAAAAA
        AAAAAAAAAD8AAAAAAAAAAAAAAAAAAAA/AAAAAAAAAAAAAAAAAAAAPwAAAAAAAAAAAAAAAAAAAD8AAAAAAAAAAAAAAAAAAAA/AAAAAAAAAAAAAAAAvvR9PgAAAD8AAAA/
        AAAAPwAAAAAAAAAAiYiIPQAAAD8AAAAAAAAAAAAAAAAAAAA/AAAAAAAAAAAAAAAAAAAAPwAAAAAAAAAAAAAAAAAAAD8AAAAAAAAAAAAAAAAAAAA/AAAAAAAAAAAAAAAA
        AAAAPwAAAAAAAAAAAAAAAAAAAD8AAAAAAAAAAAAAAAAAAAA/AAAAAAAAAAAAAAAAAAAAPwAAAAAAAAAAAAAAAAAAAD8AAAAAAAAAAAAAAAAAAAA/AAAAAAAAAAAAAAAA
        AAAAPwAAAAAAAAAAAAAAAAAAAD8AAAAAAAAAAAAAAAAAAAA/AAAAAAAAAAAAAAAAAAAAPwAAAAAAAAAAAAAAAAAAAD8AAAAAAAAAAAAAAAC+9H0+AAAAPwAAAD8AAAA/
        AAAAAAAAAACJiIg9AAAAPwAAAAAAAAAAAAAAAAAAAD8AAAAAAAAAAAAAAAAAAAA/AAAAAAAAAAAAAAAAAAAAPwAAAAAAAAAAAAAAAAAAAD8AAAAAAAAAAAAAAAAAAAA/
        AAAAAAAAAAAAAAAAAAAAPwAAAAAAAAAAAAAAAAAAAD8AAAAAAAAAAAAAAAAAAAA/AAAAAAAAAAAAAAAAAAAAPwAAAAAAAAAAAAAAAAAAAD8AAAAAAAAAAAAAAAAAAAA/
        AAAAAAAAAAAAAAAAAAAAPwAAAAAAAAAAAAAAAAAAAD8AAAAAAAAAAAAAAAAAAAA/AAAAAAAAAAAAAAAAAAAAPwAAAAAAAAAAAAAAAL70fT4AAAA/AAAAPwAAAD8AAAAA
        AAAAAImIiD0AAAA/AAAAAAAAAAAAAAAAAAAAPwAAAAAAAAAAAAAAAAAAAD8AAAAAAAAAAAAAAAAAAAA/AAAAAAAAAAAAAAAAAAAAPwAAAAAAAAAAAAAAAAAAAD8AAAAA
        AAAAAAAAAAAAAAA/AAAAAAAAAAAAAAAAAAAAPwAAAAAAAAAAAAAAAAAAAD8AAAAAAAAAAAAAAAAAAAA/AAAAAAAAAAAAAAAAAAAAPwAAAAAAAAAAAAAAAAAAAD8AAAAA
        AAAAAAAAAAAAAAA/AAAAAAAAAAAAAAAAAAAAPwAAAAAAAAAAAAAAAAAAAD8AAAAAAAAAAAAAAAAAAAA/AAAAAAAAAAAAAAAAvvR9PgAAAD8AAAA/AAAAPwAAAAAAAAAA
        iYiIPQAAAD8AAAAAAAAAAAAAAAAAAAA/AAAAAAAAAAAAAAAAAAAAPwAAAAAAAAAAAAAAAAAAAD8AAAAAAAAAAAAAAAAAAAA/AAAAAAAAAAAAAAAAAAAAPwAAAAAAAAAA
        AAAAAAAAAD8AAAAAAAAAAAAAAAAAAAA/AAAAAAAAAAAAAAAAAAAAPwAAAAAAAAAAAAAAAAAAAD8AAAAAAAAAAAAAAAAAAAA/AAAAAAAAAAAAAAAAAAAAPwAAAAAAAAAA
        AAAAAAAAAD8AAAAAAAAAAAAAAAAAAAA/AAAAAAAAAAAAAAAAAAAAPwAAAAAAAAAAAAAAAAAAAD8AAAAAAAAAAAAAAAAAAAAAmpmZPgAAAAAAAAAAAAAAAAAAgD8AAAAA
        mpmZPgAAAAAAAAAAAAAAAAAAgD8AAAAAmpmZPgAAAAAAAAAAAAAAAAAAgD8AAAAAmpmZPgAAAAAAAAAAAAAAAAAAgD8AAAAAmpmZPgAAAAAAAAAAAAAAAAAAgD8AAAAA
        mpmZPgAAAAAAAAAAAAAAAAAAgD8AAAAAAAAAAAAAAAAAAAAAAAAAAAAAAAAAAAAAAAAAAAAAAAAAAAAAAAAAAAAAAAAAAAAAAAAAAAAAAAAAAAAAAAAAAAAAAAAAAAAA
        AAAAAAAAAAAAAAAAAAAAAAAAAAAAAAAAAAAAAAAAAAAAAAAAAAAAAAAAAAAAAAAAAAAAAAAAAAAAAAAAAAAAAAAAAAAAAAAAAAAAAKuqKj3ZiZ09gShWPgAAAAAAAAAA
        v+eWPQAAAAAAAAA/AAAAAAAAAAAAAAAAAAAAAAAAAD8AAAAAAAAAAAAAAAAAAAAAAAAAPwAAAAAAAAAAAAAAAAAAAAAAAAAAAAAAAAAAAAAAAAAAAAAAAAAAAAAAAAAA
        AAAAAAAAAAAAAAAAAAAAAAAAAAAAAAAAAAAAAAAAAAAAAAAAAAAAAAAAAAAAAAAAAAAAAAAAAAAAAAAAAAAAAAAAAAAAAAAAAAAAAAAAAAAAAAAAAAAAAAAAAAAAAAAA
        AAAAAAAAAAAAAAAAAAAAAAAAAAAAAAAAAAAAAAAAAAAAAAAAAAAAAAAAAAAAAAAAAAAAAAAAAAAAAAAAAAAAAAAAAAAAAAAAAAAAAAAAAAAAAAAAAAAAAAAAAAAAAAAA
        AAAAAAAAAAAAAAAAAAAAAAAAAAAAAAAAAAAAAAAAAAAAAAAAAAAAAAAAAAAAAAAAAAAAAAAAAAAAAAAAAAAAAAAAAAAAAAAAAAAAAAAAAAAAAAAAAAAAAAAAAAAAAAAA
        AAAAAAAAAAAAAAAAAAAAAAAAAAAAAAAAAAAAAAAAAAAAAAAAAAAAAAAAAAAAAAAAAAAAAAAAAAAAAAAAAAAAAAAAAAAAAAAAAAAAAAAAAAAAAAAAAAAAPwAAAD8AAAA/
        AAAAPwAAAD8AAAA/AAAAPwAAAD8AAAAAAAAAAAAAAAAAAAAAAAAAAAAAAAAAAAAAAAAAAAAAAAAAAAAAAAAAAAAAAAAAAAAAAAAAAAAAAAAAAAAAAAAAAAAAAAAAAAAA
        AAAAAAAAAAAAAAAAAAAAAAAAAAAAAAAAAAAAAAAAAAAAAAAAAAAAAAAAAAAAAAAAAAAAAAAAAAAAAAAAAAAAAAAAAAAAAAAAAAAAAAAAAAAAAAAAAAAAAAAAAAAAAAAA
        AAAAAAAAAAAAAAAAAAAAAAAAAAAAAAAAAAAAAAAAAAAAAAAAAAAAAAAAAAAAAAAAAAAAAAAAAAAAAAAAAAAAAAAAAAAAAAAAAAAAAAAAAAAAAAAAAAAAAAAAAAAAAAAA
        AAAAAAAAAAAAAAAAAAAAAAAAAAAAAAAAAAAAAAAAAAAAAAAAAAAAAAAAAAAAAAAAAAAAAAAAAAAAAAAA
        Q2hpcEZyb250AENoaXBGcm9udAAQAAAA
      >
      PRESETNAME ChipFront
      FLOATPOS 36 32 641 529
      FXID {4C5A6810-F3ED-0645-A06D-6758F70CB097}
      WAK 0
    >
  >
  <TRACK {1B564899-9ACC-8C4B-8FBF-925A5A247A13}
    NAME ChipSide
    PEAKCOL 16576
    BEAT -1
    AUTOMODE 0
    VOLPAN 0.38627471009583 0 -1 -1 1
    MUTESOLO 0 0 0
    IPHASE 0
    ISBUS 0 0
    BUSCOMP 0 0
    SHOWINMIX 1 0.6667 0.5 1 0.5 0 0 0
    FREEMODE 0
    SEL 0
    REC 0 0 0 0 0 0 0
    VU 2
    TRACKHEIGHT 0 0
    INQ 0 0 0 0.5 100 0 0 100
    NCHAN 2
    FX 1
    TRACKID {1B564899-9ACC-8C4B-8FBF-925A5A247A13}
    PERF 0
    AUXRECV 4 0 1.03113579563571 0 0 0 0 2 0 -1:U 0 -1 ''
    MIDIOUT -1
    MAINSEND 1 0
    <FXCHAIN
      SHOW 0
      LASTSEL 0
      DOCKED 0
      BYPASS 0 0 0
      <VST "VST: FabFilter Volcano 2 (SC) (FabFilter)" "FabFilter Volcano 2 (SC).vst" 0 "" 1180054068
        NDJWRu9e7f4EAAAAAQAAAAAAAAACAAAAAAAAAAQAAAAAAAAACAAAAAAAAAAIAAAAAQAAAAAAAAACAAAAAAAAAAQAAAAAAAAACAAAAAAAAAAQAAAAAAAAACAAAAAAAAAA
        QAAAAAAAAACAAAAAAAAAANwLAAAAAAAAAAAQAA==
        776t3g3wrd4AAAA/AAAAPwAAAD8AAAA/AACAPwAAAAAAAIA/q6qqPsplFD8AAAA/TxqgPc3MzD0AAAAAAAAAAEKGIj8AAIA/AACAP0Isdj8AAAA/bbDgPZqZGT8AAAAA
        AAAAAOev3zwAAIA/AAAAAAAAgD8AAAA/AAAAAJqZGT8AAAAAAAAAAAAAAAAAAIA/AAAAAAAAgD8AAAA/AAAAAJqZGT8AAAAAAAAAAAAAAAAAAIA/AAAAAKuqqj6CdAA9
        EObJPZgn+j4AAIA/AAAAAAAAAACJiAg+AACAP7PDtD4AAIA/AAAAAAAAAAAAAAAAq6qqPgAAAACeFR0/AAAAAAAAgD8AAAAAAAAAPwAAAAAAAAAAAAAAAAAAAD8AAAAA
        AAAAAAAAAAAAAAA/AAAAAAAAAAAAAAAAAAAAPwAAAAAAAAAAAAAAAAAAAD8AAAAAAAAAAAAAAAAAAAA/AAAAAAAAAAAAAAAAAAAAPwAAAAAAAAAAAAAAAAAAAD8AAAAA
        AAAAAAAAAAAAAAA/AAAAAAAAAAAAAAAAAAAAPwAAAAAAAAAAAAAAAAAAAD8AAAAAAAAAAAAAAAAAAAA/AAAAAAAAAAAAAAAAAAAAPwAAAAAAAAAAAAAAAHwZED4AAAA/
        KKO3PQAAgD8AAAAAAAAAAImIiD3y0iU/AAAAAAAAgD8AAAAAdGjRPQAAAAAAAIA/AAAAAAAAAD8AAAAAAAAAAAAAAAAAAAA/AAAAAAAAAAAAAAAAAAAAPwAAAAAAAAAA
        AAAAAAAAAD8AAAAAAAAAAAAAAAAAAAA/AAAAAAAAAAAAAAAAAAAAPwAAAAAAAAAAAAAAAAAAAD8AAAAAAAAAAAAAAAAAAAA/AAAAAAAAAAAAAAAAAAAAPwAAAAAAAAAA
        AAAAAAAAAD8AAAAAAAAAAAAAAAAAAAA/AAAAAAAAAAAAAAAAAAAAPwAAAAAAAAAAAAAAAAAAAD8AAAAAAAAAAAAAAAAAAAA/AAAAAAAAAAAAAAAAvvR9PgAAAD8AAAA/
        AAAAPwAAAAAAAAAAiYiIPQAAAD8AAAAAAAAAAAAAAAAAAAA/AAAAAAAAAAAAAAAAAAAAPwAAAAAAAAAAAAAAAAAAAD8AAAAAAAAAAAAAAAAAAAA/AAAAAAAAAAAAAAAA
        AAAAPwAAAAAAAAAAAAAAAAAAAD8AAAAAAAAAAAAAAAAAAAA/AAAAAAAAAAAAAAAAAAAAPwAAAAAAAAAAAAAAAAAAAD8AAAAAAAAAAAAAAAAAAAA/AAAAAAAAAAAAAAAA
        AAAAPwAAAAAAAAAAAAAAAAAAAD8AAAAAAAAAAAAAAAAAAAA/AAAAAAAAAAAAAAAAAAAAPwAAAAAAAAAAAAAAAAAAAD8AAAAAAAAAAAAAAAC+9H0+AAAAPwAAAD8AAAA/
        AAAAAAAAAACJiIg9AAAAPwAAAAAAAAAAAAAAAAAAAD8AAAAAAAAAAAAAAAAAAAA/AAAAAAAAAAAAAAAAAAAAPwAAAAAAAAAAAAAAAAAAAD8AAAAAAAAAAAAAAAAAAAA/
        AAAAAAAAAAAAAAAAAAAAPwAAAAAAAAAAAAAAAAAAAD8AAAAAAAAAAAAAAAAAAAA/AAAAAAAAAAAAAAAAAAAAPwAAAAAAAAAAAAAAAAAAAD8AAAAAAAAAAAAAAAAAAAA/
        AAAAAAAAAAAAAAAAAAAAPwAAAAAAAAAAAAAAAAAAAD8AAAAAAAAAAAAAAAAAAAA/AAAAAAAAAAAAAAAAAAAAPwAAAAAAAAAAAAAAAL70fT4AAAA/AAAAPwAAAD8AAAAA
        AAAAAImIiD0AAAA/AAAAAAAAAAAAAAAAAAAAPwAAAAAAAAAAAAAAAAAAAD8AAAAAAAAAAAAAAAAAAAA/AAAAAAAAAAAAAAAAAAAAPwAAAAAAAAAAAAAAAAAAAD8AAAAA
        AAAAAAAAAAAAAAA/AAAAAAAAAAAAAAAAAAAAPwAAAAAAAAAAAAAAAAAAAD8AAAAAAAAAAAAAAAAAAAA/AAAAAAAAAAAAAAAAAAAAPwAAAAAAAAAAAAAAAAAAAD8AAAAA
        AAAAAAAAAAAAAAA/AAAAAAAAAAAAAAAAAAAAPwAAAAAAAAAAAAAAAAAAAD8AAAAAAAAAAAAAAAAAAAA/AAAAAAAAAAAAAAAAvvR9PgAAAD8AAAA/AAAAPwAAAAAAAAAA
        iYiIPQAAAD8AAAAAAAAAAAAAAAAAAAA/AAAAAAAAAAAAAAAAAAAAPwAAAAAAAAAAAAAAAAAAAD8AAAAAAAAAAAAAAAAAAAA/AAAAAAAAAAAAAAAAAAAAPwAAAAAAAAAA
        AAAAAAAAAD8AAAAAAAAAAAAAAAAAAAA/AAAAAAAAAAAAAAAAAAAAPwAAAAAAAAAAAAAAAAAAAD8AAAAAAAAAAAAAAAAAAAA/AAAAAAAAAAAAAAAAAAAAPwAAAAAAAAAA
        AAAAAAAAAD8AAAAAAAAAAAAAAAAAAAA/AAAAAAAAAAAAAAAAAAAAPwAAAAAAAAAAAAAAAAAAAD8AAAAAAAAAAAAAAAAAAAAAmpmZPgAAAAAAAAAAAAAAAAAAgD8AAAAA
        mpmZPgAAAAAAAAAAAAAAAAAAgD8AAAAAmpmZPgAAAAAAAAAAAAAAAAAAgD8AAAAAmpmZPgAAAAAAAAAAAAAAAAAAgD8AAAAAmpmZPgAAAAAAAAAAAAAAAAAAgD8AAAAA
        mpmZPgAAAAAAAAAAAAAAAAAAgD8AAAAAAAAAAAAAAAAAAAAAAAAAAAAAAAAAAAAAAAAAAAAAAAAAAAAAAAAAAAAAAAAAAAAAAAAAAAAAAAAAAAAAAAAAAAAAAAAAAAAA
        AAAAAAAAAAAAAAAAAAAAAAAAAAAAAAAAAAAAAAAAAAAAAAAAAAAAAAAAAAAAAAAAAAAAAAAAAAAAAAAAAAAAAAAAAAAAAAAAAAAAAKuqqj3ZiZ09gShWPgAAgD8AAAAA
        v+eWPdmJHT0WszE/AAAAAAAAAACSdiw8AAAAAAAAAD8AAAAAAAAAAAAAAAAAAAAAAAAAPwAAAAAAAAAAAAAAAAAAAAAAAAAAAAAAAAAAAAAAAAAAAAAAAAAAAAAAAAAA
        AAAAAAAAAAAAAAAAAAAAAAAAAAAAAAAAAAAAAAAAAAAAAAAAAAAAAAAAAAAAAAAAAAAAAAAAAAAAAAAAAAAAAAAAAAAAAAAAAAAAAAAAAAAAAAAAAAAAAAAAAAAAAAAA
        AAAAAAAAAAAAAAAAAAAAAAAAAAAAAAAAAAAAAAAAAAAAAAAAAAAAAAAAAAAAAAAAAAAAAAAAAAAAAAAAAAAAAAAAAAAAAAAAAAAAAAAAAAAAAAAAAAAAAAAAAAAAAAAA
        AAAAAAAAAAAAAAAAAAAAAAAAAAAAAAAAAAAAAAAAAAAAAAAAAAAAAAAAAAAAAAAAAAAAAAAAAAAAAAAAAAAAAAAAAAAAAAAAAAAAAAAAAAAAAAAAAAAAAAAAAAAAAAAA
        AAAAAAAAAAAAAAAAAAAAAAAAAAAAAAAAAAAAAAAAAAAAAAAAAAAAAAAAAAAAAAAAAAAAAAAAAAAAAAAAAAAAAAAAAAAAAAAAAAAAAAAAAAAAAAAAAAAAPwAAAD8AAAA/
        AAAAPwAAAD8AAAA/AAAAPwAAAD8AAAAAAAAAAAAAAAAAAAAAAAAAAAAAAAAAAAAAAAAAAAAAAAAAAAAAAAAAAAAAAAAAAAAAAAAAAAAAAAAAAAAAAAAAAAAAAAAAAAAA
        AAAAAAAAAAAAAAAAAAAAAAAAAAAAAAAAAAAAAAAAAAAAAAAAAAAAAAAAAAAAAAAAAAAAAAAAAAAAAAAAAAAAAAAAAAAAAAAAAAAAAAAAAAAAAAAAAAAAAAAAAAAAAAAA
        AAAAAAAAAAAAAAAAAAAAAAAAAAAAAAAAAAAAAAAAAAAAAAAAAAAAAAAAAAAAAAAAAAAAAAAAAAAAAAAAAAAAAAAAAAAAAAAAAAAAAAAAAAAAAAAAAAAAAAAAAAAAAAAA
        AAAAAAAAAAAAAAAAAAAAAAAAAAAAAAAAAAAAAAAAAAAAAAAAAAAAAAAAAAAAAAAAAAAAAAAAAAAAAAAA
        Q2hpcFNpZGUAQ2hpcFNpZGUAEAAAAA==
      >
      PRESETNAME ChipSide
      FLOATPOS 36 32 641 529
      FXID {20356A84-5CFD-6E4A-AA26-2A8A49CE7A76}
      WAK 0
    >
  >
  <EXTENSIONS
    <SWSAUTOCOLOR
      {00000000-0000-0000-0000-000000000000} 0 "" "" ""
      {49F72B05-4927-6248-8DCB-E69CF65AB3FA} 0 "" "" ""
    >
    <BR_CURSOR_POS 04
      0.00000000000000
    >
  >
>
