<REAPER_PROJECT 0.1 "5.1/OSX64" 1447610271
  RIPPLE 0
  GROUPOVERRIDE 0 0 0
  AUTOXFADE 0
  ENVATTACH 1
  MIXERUIFLAGS 11 52
  PEAKGAIN 1
  FEEDBACK 0
  PANLAW 1
  PROJOFFS 0 0
  MAXPROJLEN 0 600
  GRID 174206 8 1 8 1 0 0
  TIMEMODE 6 0 -1 24 2
  PANMODE 3
  CURSOR 0
  ZOOM 10.62425625514211 0 0
  VZOOMEX 0
  USE_REC_CFG 0
  RECMODE 1
  SMPTESYNC 0 23.976024 100 40 1000 300 0 0 1
  LOOP 1
  LOOPGRAN 0 4
  RECORD_PATH "" ""
  <RECORD_CFG
    ZXZhdxAA
  >
  <APPLYFX_CFG
  >
  RENDER_FILE ""
  RENDER_PATTERN ""
  RENDER_FMT 0 2 0
  RENDER_1X 0
  RENDER_RANGE 1 0 0
  RENDER_RESAMPLE 3 0 1
  RENDER_ADDTOPROJ 0
  RENDER_STEMS 0
  RENDER_DITHER 0
  TIMELOCKMODE 1
  TEMPOENVLOCKMODE 1
  ITEMMIX 0
  DEFPITCHMODE 589824
  TAKELANE 3
  SAMPLERATE 44100 0 0
  <RENDER_CFG
  >
  LOCK 1
  <METRONOME 6 2
    VOL 0.25 0.125
    FREQ 800 1600 1
    BEATLEN 4
    SAMPLES "" ""
    PATTERN 2863311530 2863311529
  >
  GLOBAL_AUTO -1
  TEMPO 120 4 4
  PLAYRATE 1 0 0.25 4
  SELECTION 34 46
  SELECTION2 34 46
  MASTERAUTOMODE 0
  MASTERTRACKHEIGHT 0
  MASTERPEAKCOL 16576
  MASTERMUTESOLO 0
  MASTERTRACKVIEW 0 0.6667 0.5 0.5 0 -1 0
  MASTERHWOUT 0 0 1 0 0 0 0 -1
  MASTER_NCH 2 2
  MASTER_VOLUME 1 0 -1 -1 1
  MASTER_FX 1
  MASTER_SEL 0
  <MASTERPLAYSPEEDENV
    ACT 0
    VIS 0 1 1
    LANEHEIGHT 0 0
    ARM 0
    DEFSHAPE 0 -1 -1
  >
  <TEMPOENVEX
    ACT 0
    VIS 1 0 1
    LANEHEIGHT 0 0
    ARM 0
    DEFSHAPE 1 -1 -1
  >
  <PROJBAY
  >
  <TRACK {49F72B05-4927-6248-8DCB-E69CF65AB3FA}
    NAME ""
    PEAKCOL 16576
    BEAT -1
    AUTOMODE 0
    VOLPAN 1 0 -1 -1 1
    MUTESOLO 0 0 0
    IPHASE 0
    ISBUS 0 0
    BUSCOMP 0 0
    SHOWINMIX 1 0.6667 0.5 1 0.5 -1 -1 -1
    FREEMODE 0
    SEL 0
    REC 0 0 0 0 0 0 0
    VU 2
    MIDICTL -1 1
    TRACKHEIGHT 0 0
    INQ 0 0 0 0.5 100 0 0 100
    NCHAN 2
    FX 1
    TRACKID {49F72B05-4927-6248-8DCB-E69CF65AB3FA}
    PERF 0
    MIDIOUT -1
    MAINSEND 1 0
    <ITEM
      POSITION 0
      SNAPOFFS 0
      LENGTH 55
      LOOP 1
      ALLTAKES 0
      FADEIN 1 0 0 1 0 0
      FADEOUT 1 0 0 1 0 0
      MUTE 0
      SEL 0
      YPOS 0.111111 0.111111
      IGUID {CC675639-3391-4D44-94A4-6B865B1F6C24}
      IID 2
      NAME "Accomp. RH           - National_Anthems_-_Czech_Republic.mid"
      VOLPAN 1 0 1 -1
      SOFFS 0 0
      PLAYRATE 1 1 0 -1 0 0.0025
      CHANMODE 0
      TAKECOLOR 26173599
      GUID {F50486AD-4C93-A64E-B992-287D896EF132}
      <SOURCE MIDI
        HASDATA 1 192 QN
        POOLEDEVTS {33D1E80D-27AE-F845-8491-D02D8C665223}
        <X 0 0
          /wNBY2NvbXAuIFJIICAgICAgICAgIA==
        >
        e 192 91 3e 64
        e 0 91 42 64
        e 0 91 45 64
        e 382 81 3e 40
        e 0 81 42 40
        e 0 81 45 40
        e 2 91 3e 64
        e 0 91 43 64
        e 0 91 47 64
        e 94 81 3e 40
        e 0 81 43 40
        e 0 81 47 40
        e 2 91 3e 64
        e 0 91 42 64
        e 0 91 45 64
        e 94 81 3e 40
        e 0 81 42 40
        e 0 81 45 40
        e 2 91 3b 64
        e 0 91 40 64
        e 190 81 3b 40
        e 0 81 40 40
        e 2 91 3b 64
        e 0 91 3d 64
        e 0 91 43 64
        e 382 81 3b 40
        e 0 81 3d 40
        e 0 81 43 40
        e 2 91 39 64
        e 0 91 3d 64
        e 0 91 42 64
        e 94 81 39 40
        e 0 81 3d 40
        e 0 81 42 40
        e 2 91 37 64
        e 0 91 40 64
        e 94 81 37 40
        e 0 81 40 40
        e 2 91 36 64
        e 0 91 3e 64
        e 574 81 36 40
        e 0 81 3e 40
        e 2 91 36 64
        e 0 91 3c 64
        e 0 91 3e 64
        e 142 81 3e 40
        e 48 81 36 40
        e 0 81 3c 40
        e 2 91 3b 64
        e 0 91 3e 64
        e 94 81 3b 40
        e 0 81 3e 40
        e 2 91 43 64
        e 94 81 43 40
        e 2 91 3b 64
        e 0 91 3e 64
        e 0 91 43 64
        e 382 81 3b 40
        e 0 81 3e 40
        e 0 81 43 40
        e 2 91 39 64
        e 0 91 3e 64
        e 0 91 45 64
        e 94 81 39 40
        e 0 81 3e 40
        e 0 81 45 40
        e 2 91 3b 64
        e 0 91 47 64
        e 94 81 3b 40
        e 0 81 47 40
        e 2 91 39 64
        e 0 91 3d 64
        e 0 91 45 64
        e 94 81 39 40
        e 0 81 3d 40
        e 0 81 45 40
        e 2 91 42 64
        e 94 81 42 40
        e 2 91 36 64
        e 0 91 3b 64
        e 0 91 3e 64
        e 190 81 3b 40
        e 192 81 36 40
        e 0 81 3e 40
        e 2 91 36 64
        e 0 91 39 64
        e 0 91 3e 64
        e 94 81 39 40
        e 0 81 3e 40
        e 2 91 3e 64
        e 22 81 36 40
        e 74 81 3e 40
        e 0 91 37 64
        e 0 91 3e 64
        e 94 81 37 40
        e 0 81 3e 40
        e 2 91 43 64
        e 94 81 43 40
        e 2 91 3b 64
        e 0 91 3e 64
        e 0 91 43 64
        e 94 81 3b 40
        e 0 81 3e 40
        e 0 81 43 40
        e 2 91 47 64
        e 94 81 47 40
        e 2 91 3e 64
        e 0 91 47 64
        e 0 91 4a 64
        e 190 81 3e 40
        e 0 81 47 40
        e 0 81 4a 40
        e 2 91 3d 64
        e 0 91 45 64
        e 0 91 49 64
        e 94 81 3d 40
        e 0 81 45 40
        e 0 81 49 40
        e 2 91 3b 64
        e 0 91 44 64
        e 0 91 47 64
        e 94 81 3b 40
        e 0 81 44 40
        e 0 81 47 40
        e 2 91 3b 64
        e 0 91 44 64
        e 0 91 47 64
        e 190 81 3b 40
        e 0 81 44 40
        e 0 81 47 40
        e 2 91 39 64
        e 0 91 42 64
        e 0 91 45 64
        e 94 81 39 40
        e 2 91 3b 64
        e 94 81 3b 40
        e 2 91 3d 64
        e 190 81 42 40
        e 0 81 45 40
        e 2 91 45 64
        e 142 81 45 40
        e 2 91 45 64
        e 46 81 3d 40
        e 0 81 45 40
        e 2 91 3d 64
        e 0 91 43 64
        e 0 91 45 64
        e 462 81 3d 40
        e 0 81 43 40
        e 0 81 45 40
        e 18 91 3b 64
        e 0 91 43 64
        e 0 91 47 64
        e 94 81 3b 40
        e 0 81 43 40
        e 0 81 47 40
        e 2 91 3c 64
        e 0 91 42 64
        e 0 91 45 64
        e 94 81 3c 40
        e 0 81 42 40
        e 0 81 45 40
        e 2 91 3d 64
        e 0 91 40 64
        e 0 91 43 64
        e 94 81 3d 40
        e 0 81 40 40
        e 0 81 43 40
        e 2 91 3e 64
        e 0 91 42 64
        e 574 81 3e 40
        e 0 81 42 40
        e 2 91 3e 64
        e 0 91 42 64
        e 0 91 45 64
        e 142 81 3e 40
        e 0 81 42 40
        e 0 81 45 40
        e 2 91 45 64
        e 46 81 45 40
        e 2 91 40 64
        e 0 91 43 64
        e 0 91 49 64
        e 414 81 40 40
        e 0 81 43 40
        e 0 81 49 40
        e 66 91 3b 64
        e 0 91 43 64
        e 0 91 47 64
        e 94 81 3b 40
        e 0 81 43 40
        e 0 81 47 40
        e 2 91 3c 64
        e 0 91 42 64
        e 0 91 45 64
        e 94 81 3c 40
        e 0 81 42 40
        e 0 81 45 40
        e 2 91 3d 64
        e 0 91 40 64
        e 0 91 43 64
        e 94 81 3d 40
        e 0 81 40 40
        e 0 81 43 40
        e 2 91 3e 64
        e 0 91 42 64
        e 574 81 3e 40
        e 0 81 42 40
        e 2 91 3a 64
        e 0 91 40 64
        e 0 91 42 64
        e 142 81 42 40
        e 2 91 42 64
        e 46 81 3a 40
        e 0 81 40 40
        e 0 81 42 40
        e 2 91 3b 64
        e 0 91 3e 64
        e 0 91 42 64
        e 190 81 3b 40
        e 0 81 3e 40
        e 2 91 3b 64
        e 0 91 3e 64
        e 190 81 3b 40
        e 0 81 3e 40
        e 2 91 3a 64
        e 0 91 40 64
        e 30 81 42 40
        e 66 91 42 64
        e 94 81 3a 40
        e 0 81 40 40
        e 0 81 42 40
        e 2 91 3e 64
        e 0 91 42 64
        e 0 91 44 64
        e 94 81 3e 40
        e 0 81 42 40
        e 0 81 44 40
        e 2 91 3d 64
        e 0 91 40 64
        e 0 91 46 64
        e 94 81 3d 40
        e 0 81 40 40
        e 0 81 46 40
        e 2 91 3d 64
        e 0 91 40 64
        e 0 91 46 64
        e 94 81 3d 40
        e 0 81 40 40
        e 0 81 46 40
        e 2 91 3b 64
        e 0 91 3d 64
        e 0 91 3e 64
        e 0 91 47 64
        e 94 81 3b 40
        e 0 81 3d 40
        e 0 81 3e 40
        e 0 81 47 40
        e 2 91 3b 64
        e 0 91 3e 64
        e 0 91 47 64
        e 382 81 3b 40
        e 0 81 3e 40
        e 0 81 47 40
        e 2 91 3b 64
        e 0 91 43 64
        e 0 91 47 64
        e 142 81 47 40
        e 2 91 47 64
        e 46 81 3b 40
        e 0 81 43 40
        e 0 81 47 40
        e 2 91 40 64
        e 0 91 43 64
        e 0 91 47 64
        e 94 81 47 40
        e 2 91 45 64
        e 94 81 40 40
        e 0 81 43 40
        e 0 81 45 40
        e 2 91 3d 64
        e 0 91 43 64
        e 0 91 45 64
        e 382 81 3d 40
        e 0 81 43 40
        e 0 81 45 40
        e 2 91 3d 64
        e 0 91 43 64
        e 94 81 43 40
        e 96 81 3d 40
        e 2 91 3e 64
        e 0 91 42 64
        e 190 81 3e 40
        e 0 81 42 40
        e 2 91 42 64
        e 0 91 47 64
        e 0 91 4a 64
        e 382 81 42 40
        e 0 81 47 40
        e 0 81 4a 40
        e 2 91 3e 64
        e 0 91 45 64
        e 0 91 49 64
        e 94 81 45 40
        e 0 81 49 40
        e 2 91 43 64
        e 0 91 47 64
        e 94 81 3e 40
        e 0 81 43 40
        e 0 81 47 40
        e 2 91 3e 64
        e 0 91 42 64
        e 0 91 47 64
        e 190 81 47 40
        e 2 91 45 64
        e 190 81 3e 40
        e 0 81 42 40
        e 192 81 45 40
        e 2 91 37 64
        e 0 91 3d 64
        e 0 91 40 64
        e 94 81 37 40
        e 2 91 42 64
        e 94 81 3d 40
        e 0 81 40 40
        e 0 81 42 40
        e 2 91 36 64
        e 0 91 3e 64
        e 382 81 36 40
        e 0 81 3e 40
        e 386 91 42 64
        e 94 81 42 40
        e 2 91 44 64
        e 94 81 44 40
        e 2 91 3d 64
        e 0 91 42 64
        e 0 91 45 64
        e 190 81 3d 40
        e 0 81 42 40
        e 0 81 45 40
        e 2 91 3d 64
        e 0 91 42 64
        e 0 91 45 64
        e 190 81 3d 40
        e 0 81 42 40
        e 0 81 45 40
        e 2 91 3e 64
        e 0 91 42 64
        e 0 91 45 64
        e 94 81 3e 40
        e 0 81 42 40
        e 0 81 45 40
        e 2 91 3d 64
        e 0 91 42 64
        e 0 91 45 64
        e 94 81 3d 40
        e 0 81 42 40
        e 0 81 45 40
        e 2 91 3b 64
        e 0 91 42 64
        e 0 91 44 64
        e 94 81 3b 40
        e 0 81 42 40
        e 0 81 44 40
        e 2 91 3d 64
        e 0 91 42 64
        e 0 91 45 64
        e 94 81 3d 40
        e 0 81 42 40
        e 0 81 45 40
        e 2 91 3e 64
        e 0 91 42 64
        e 0 91 47 64
        e 94 81 3e 40
        e 0 81 42 40
        e 0 81 47 40
        e 2 91 3d 64
        e 0 91 42 64
        e 0 91 45 64
        e 94 81 3d 40
        e 0 81 42 40
        e 0 81 45 40
        e 2 91 3b 64
        e 0 91 42 64
        e 0 91 44 64
        e 94 81 42 40
        e 2 91 41 64
        e 94 81 3b 40
        e 0 81 44 40
        e 0 81 41 40
        e 2 91 39 64
        e 0 91 3d 64
        e 0 91 42 64
        e 190 81 39 40
        e 0 81 3d 40
        e 0 81 42 40
        e 2 91 45 64
        e 94 81 45 40
        e 2 91 47 64
        e 94 81 47 40
        e 2 91 40 64
        e 0 91 45 64
        e 0 91 49 64
        e 190 81 40 40
        e 0 81 45 40
        e 0 81 49 40
        e 2 91 40 64
        e 0 91 45 64
        e 0 91 49 64
        e 190 81 40 40
        e 0 81 45 40
        e 0 81 49 40
        e 2 91 42 64
        e 0 91 45 64
        e 0 91 49 64
        e 94 81 42 40
        e 0 81 45 40
        e 0 81 49 40
        e 2 91 40 64
        e 0 91 45 64
        e 0 91 49 64
        e 94 81 40 40
        e 0 81 45 40
        e 0 81 49 40
        e 2 91 3e 64
        e 0 91 45 64
        e 0 91 47 64
        e 94 81 3e 40
        e 0 81 45 40
        e 0 81 47 40
        e 2 91 40 64
        e 0 91 45 64
        e 0 91 49 64
        e 94 81 40 40
        e 0 81 45 40
        e 0 81 49 40
        e 2 91 42 64
        e 0 91 45 64
        e 0 91 4a 64
        e 94 81 42 40
        e 0 81 45 40
        e 0 81 4a 40
        e 2 91 40 64
        e 0 91 45 64
        e 0 91 49 64
        e 94 81 40 40
        e 0 81 45 40
        e 0 81 49 40
        e 2 91 3e 64
        e 0 91 45 64
        e 0 91 47 64
        e 94 81 45 40
        e 2 91 44 64
        e 94 81 3e 40
        e 0 81 47 40
        e 0 81 44 40
        e 2 91 3d 64
        e 0 91 40 64
        e 0 91 45 64
        e 190 81 3d 40
        e 0 81 40 40
        e 0 81 45 40
        e 2 91 40 64
        e 0 91 45 64
        e 0 91 49 64
        e 94 81 40 40
        e 0 81 45 40
        e 0 81 49 40
        e 2 91 40 64
        e 0 91 45 64
        e 0 91 49 64
        e 94 81 40 40
        e 0 81 45 40
        e 0 81 49 40
        e 2 91 40 64
        e 0 91 45 64
        e 0 91 49 64
        e 190 81 40 40
        e 0 81 45 40
        e 0 81 49 40
        e 2 91 3e 64
        e 0 91 42 64
        e 0 91 47 64
        e 190 81 3e 40
        e 0 81 42 40
        e 0 81 47 40
        e 2 91 3e 64
        e 0 91 42 64
        e 0 91 47 64
        e 94 81 3e 40
        e 0 81 42 40
        e 0 81 47 40
        e 2 91 3e 64
        e 0 91 42 64
        e 0 91 47 64
        e 94 81 3e 40
        e 0 81 42 40
        e 0 81 47 40
        e 2 91 3e 64
        e 0 91 44 64
        e 0 91 47 64
        e 94 81 3e 40
        e 0 81 44 40
        e 0 81 47 40
        e 2 91 40 64
        e 0 91 44 64
        e 0 91 49 64
        e 94 81 40 40
        e 0 81 44 40
        e 0 81 49 40
        e 2 91 3e 64
        e 0 91 42 64
        e 0 91 47 64
        e 94 81 42 40
        e 2 91 44 64
        e 94 81 3e 40
        e 0 81 47 40
        e 0 81 44 40
        e 2 91 3d 64
        e 0 91 42 64
        e 0 91 45 64
        e 190 81 3d 40
        e 0 81 42 40
        e 0 81 45 40
        e 2 91 3e 64
        e 0 91 42 64
        e 0 91 45 64
        e 94 81 3e 40
        e 0 81 42 40
        e 0 81 45 40
        e 2 91 3d 64
        e 0 91 42 64
        e 0 91 45 64
        e 94 81 3d 40
        e 0 81 42 40
        e 0 81 45 40
        e 2 91 3b 64
        e 0 91 42 64
        e 0 91 44 64
        e 94 81 3b 40
        e 0 81 42 40
        e 0 81 44 40
        e 2 91 3d 64
        e 0 91 42 64
        e 0 91 45 64
        e 94 81 3d 40
        e 0 81 42 40
        e 0 81 45 40
        e 2 91 3e 64
        e 0 91 42 64
        e 0 91 47 64
        e 94 81 3e 40
        e 0 81 42 40
        e 0 81 47 40
        e 2 91 3d 64
        e 0 91 42 64
        e 0 91 45 64
        e 94 81 3d 40
        e 0 81 42 40
        e 0 81 45 40
        e 2 91 3b 64
        e 0 91 42 64
        e 0 91 44 64
        e 94 81 42 40
        e 2 91 41 64
        e 94 81 3b 40
        e 0 81 44 40
        e 0 81 41 40
        e 2 91 39 64
        e 0 91 3d 64
        e 0 91 42 64
        e 190 81 39 40
        e 0 81 3d 40
        e 0 81 42 40
        e 2 91 40 64
        e 0 91 45 64
        e 0 91 49 64
        e 94 81 40 40
        e 0 81 45 40
        e 0 81 49 40
        e 2 91 40 64
        e 0 91 45 64
        e 0 91 49 64
        e 94 81 40 40
        e 0 81 45 40
        e 0 81 49 40
        e 2 91 40 64
        e 0 91 45 64
        e 0 91 49 64
        e 190 81 40 40
        e 0 81 45 40
        e 0 81 49 40
        e 2 91 3e 64
        e 0 91 42 64
        e 0 91 47 64
        e 190 81 3e 40
        e 0 81 42 40
        e 0 81 47 40
        e 2 91 3e 64
        e 0 91 42 64
        e 0 91 47 64
        e 94 81 3e 40
        e 0 81 42 40
        e 0 81 47 40
        e 2 91 3e 64
        e 0 91 42 64
        e 0 91 47 64
        e 94 81 3e 40
        e 0 81 42 40
        e 0 81 47 40
        e 2 91 3e 64
        e 0 91 44 64
        e 0 91 47 64
        e 94 81 3e 40
        e 0 81 44 40
        e 0 81 47 40
        e 2 91 40 64
        e 0 91 44 64
        e 0 91 49 64
        e 94 81 40 40
        e 0 81 44 40
        e 0 81 49 40
        e 2 91 3e 64
        e 0 91 42 64
        e 0 91 47 64
        e 94 81 42 40
        e 2 91 44 64
        e 94 81 3e 40
        e 0 81 47 40
        e 0 81 44 40
        e 2 91 3d 64
        e 0 91 42 64
        e 0 91 45 64
        e 190 81 3d 40
        e 0 81 42 40
        e 0 81 45 40
        e 2 91 3e 64
        e 0 91 42 64
        e 0 91 45 64
        e 94 81 3e 40
        e 0 81 42 40
        e 0 81 45 40
        e 2 91 3d 64
        e 0 91 42 64
        e 0 91 45 64
        e 94 81 3d 40
        e 0 81 42 40
        e 0 81 45 40
        e 2 91 3b 64
        e 0 91 42 64
        e 0 91 44 64
        e 94 81 3b 40
        e 0 81 42 40
        e 0 81 44 40
        e 2 91 3d 64
        e 0 91 42 64
        e 0 91 45 64
        e 94 81 3d 40
        e 0 81 42 40
        e 0 81 45 40
        e 2 91 3e 64
        e 0 91 42 64
        e 0 91 47 64
        e 94 81 3e 40
        e 0 81 42 40
        e 0 81 47 40
        e 2 91 3d 64
        e 0 91 42 64
        e 0 91 45 64
        e 94 81 3d 40
        e 0 81 42 40
        e 0 81 45 40
        e 2 91 3b 64
        e 0 91 42 64
        e 0 91 44 64
        e 94 81 42 40
        e 2 91 41 64
        e 94 81 3b 40
        e 0 81 44 40
        e 0 81 41 40
        e 2 91 39 64
        e 0 91 3d 64
        e 0 91 42 64
        e 575 81 39 40
        e 0 81 3d 40
        e 0 81 42 40
        E 1 b0 7b 00
        GUID {3390A934-AF7E-0743-898E-3604A057D7C6}
        IGNTEMPO 0 120 4 4
        SRCCOLOR 614
        VELLANE -1 86 6
        CFGEDITVIEW -190.926214 108.607402 76 16 0 0 0 0 0
        KEYSNAP 0 3 102304056070 0 "Natural minor"
        TRACKSEL 226 0 0 ""
        EVTFILTER 0 -1 -1 -1 -1 0 0 0 0 -1 -1 -1 -1 0 -1 0 -1 -1
        CFGEDIT 1 1 0 0 0 0 1 0 1 1 1 0.25 506 494 1014 762 1 0 1 3 0 0 0 0 0 -1 0 0 1 64
      >
      TAKE
      NAME "Accomp. RH           - National_Anthems_-_Czech_Republic.mid"
      TAKEVOLPAN 0 1 -1
      SOFFS 0 0
      PLAYRATE 1 1 0 -1 0 0.0025
      CHANMODE 0
      GUID {972581AB-D403-734D-A64E-9BA32A74F232}
      <SOURCE MIDI
        HASDATA 1 192 QN
        POOLEDEVTS {4DC09A37-216B-2A45-8FA8-327561D05E76}
        <X 0 0
          /wNBY2NvbXAuIFJIICAgICAgICAgIA==
        >
        E 192 91 45 64
        E 0 91 3e 64
        E 0 91 42 64
        E 382 81 45 40
        E 0 81 3e 40
        E 0 81 42 40
        E 2 91 47 64
        E 0 91 43 64
        E 0 91 3e 64
        E 94 81 47 40
        E 0 81 43 40
        E 0 81 3e 40
        E 2 91 45 64
        E 0 91 42 64
        E 0 91 3e 64
        E 94 81 45 40
        E 0 81 42 40
        E 0 81 3e 40
        E 2 91 40 64
        E 0 91 3b 64
        E 190 81 40 40
        E 0 81 3b 40
        E 2 91 3b 64
        E 0 91 43 64
        E 0 91 3d 64
        E 382 81 3b 40
        E 0 81 43 40
        E 0 81 3d 40
        E 2 91 42 64
        E 0 91 39 64
        E 0 91 3d 64
        E 94 81 42 40
        E 0 81 39 40
        E 0 81 3d 40
        E 2 91 40 64
        E 0 91 37 64
        E 94 81 40 40
        E 0 81 37 40
        E 2 91 3e 64
        E 0 91 36 64
        E 574 81 3e 40
        E 0 81 36 40
        E 2 91 3e 64
        E 0 91 36 64
        E 0 91 3c 64
        E 142 81 3e 40
        E 48 81 36 40
        E 0 81 3c 40
        E 2 91 3b 64
        E 0 91 3e 64
        E 94 81 3b 40
        E 0 81 3e 40
        E 2 91 43 64
        E 94 81 43 40
        E 2 91 3b 64
        E 0 91 3e 64
        E 0 91 43 64
        E 382 81 3b 40
        E 0 81 3e 40
        E 0 81 43 40
        E 2 91 45 64
        E 0 91 3e 64
        E 0 91 39 64
        E 94 81 45 40
        E 0 81 3e 40
        E 0 81 39 40
        E 2 91 47 64
        E 0 91 3b 64
        E 94 81 47 40
        E 0 81 3b 40
        E 2 91 45 64
        E 0 91 3d 64
        E 0 91 39 64
        E 94 81 45 40
        E 0 81 3d 40
        E 0 81 39 40
        E 2 91 42 64
        E 94 81 42 40
        E 2 91 36 64
        E 0 91 3e 64
        E 0 91 3b 64
        E 190 81 3b 40
        E 192 81 36 40
        E 0 81 3e 40
        E 2 91 39 64
        E 0 91 3e 64
        E 0 91 36 64
        E 94 81 39 40
        E 0 81 3e 40
        E 2 91 3e 64
        E 22 81 36 40
        E 74 81 3e 40
        E 0 91 3e 64
        E 0 91 37 64
        E 94 81 3e 40
        E 0 81 37 40
        E 2 91 43 64
        E 94 81 43 40
        E 2 91 43 64
        E 0 91 3e 64
        E 0 91 3b 64
        E 94 81 43 40
        E 0 81 3e 40
        E 0 81 3b 40
        E 2 91 47 64
        E 94 81 47 40
        E 2 91 47 64
        E 0 91 3e 64
        E 0 91 4a 64
        E 190 81 47 40
        E 0 81 3e 40
        E 0 81 4a 40
        E 2 91 45 64
        E 0 91 49 64
        E 0 91 3d 64
        E 94 81 45 40
        E 0 81 49 40
        E 0 81 3d 40
        E 2 91 44 64
        E 0 91 47 64
        E 0 91 3b 64
        E 94 81 44 40
        E 0 81 47 40
        E 0 81 3b 40
        E 2 91 47 64
        E 0 91 3b 64
        E 0 91 44 64
        E 190 81 47 40
        E 0 81 3b 40
        E 0 81 44 40
        E 2 91 42 64
        E 0 91 39 64
        E 0 91 45 64
        E 94 81 39 40
        E 2 91 3b 64
        E 94 81 3b 40
        E 2 91 3d 64
        E 190 81 42 40
        E 0 81 45 40
        E 2 91 45 64
        E 142 81 45 40
        E 2 91 45 64
        E 46 81 3d 40
        E 0 81 45 40
        E 2 91 43 64
        E 0 91 3d 64
        E 0 91 45 64
        E 462 81 43 40
        E 0 81 3d 40
        E 0 81 45 40
        E 18 91 47 64
        E 0 91 43 64
        E 0 91 3b 64
        E 94 81 47 40
        E 0 81 43 40
        E 0 81 3b 40
        E 2 91 45 64
        E 0 91 42 64
        E 0 91 3c 64
        E 94 81 45 40
        E 0 81 42 40
        E 0 81 3c 40
        E 2 91 43 64
        E 0 91 40 64
        E 0 91 3d 64
        E 94 81 43 40
        E 0 81 40 40
        E 0 81 3d 40
        E 2 91 42 64
        E 0 91 3e 64
        E 574 81 42 40
        E 0 81 3e 40
        E 2 91 45 64
        E 0 91 3e 64
        E 0 91 42 64
        E 142 81 45 40
        E 0 81 3e 40
        E 0 81 42 40
        E 2 91 45 64
        E 46 81 45 40
        E 2 91 49 64
        E 0 91 40 64
        E 0 91 43 64
        E 414 81 49 40
        E 0 81 40 40
        E 0 81 43 40
        E 66 91 43 64
        E 0 91 47 64
        E 0 91 3b 64
        E 94 81 43 40
        E 0 81 47 40
        E 0 81 3b 40
        E 2 91 45 64
        E 0 91 3c 64
        E 0 91 42 64
        E 94 81 45 40
        E 0 81 3c 40
        E 0 81 42 40
        E 2 91 3d 64
        E 0 91 40 64
        E 0 91 43 64
        E 94 81 3d 40
        E 0 81 40 40
        E 0 81 43 40
        E 2 91 42 64
        E 0 91 3e 64
        E 574 81 42 40
        E 0 81 3e 40
        E 2 91 42 64
        E 0 91 3a 64
        E 0 91 40 64
        E 142 81 42 40
        E 2 91 42 64
        E 46 81 3a 40
        E 0 81 40 40
        E 0 81 42 40
        E 2 91 42 64
        E 0 91 3e 64
        E 0 91 3b 64
        E 190 81 3e 40
        E 0 81 3b 40
        E 2 91 3e 64
        E 0 91 3b 64
        E 190 81 3e 40
        E 0 81 3b 40
        E 2 91 40 64
        E 0 91 3a 64
        E 30 81 42 40
        E 66 91 42 64
        E 94 81 40 40
        E 0 81 3a 40
        E 0 81 42 40
        E 2 91 3e 64
        E 0 91 44 64
        E 0 91 42 64
        E 94 81 3e 40
        E 0 81 44 40
        E 0 81 42 40
        E 2 91 40 64
        E 0 91 3d 64
        E 0 91 46 64
        E 94 81 40 40
        E 0 81 3d 40
        E 0 81 46 40
        E 2 91 40 64
        E 0 91 46 64
        E 0 91 3d 64
        E 94 81 40 40
        E 0 81 46 40
        E 0 81 3d 40
        E 2 91 3d 64
        E 0 91 3e 64
        E 0 91 47 64
        E 0 91 3b 64
        E 94 81 3d 40
        E 0 81 3e 40
        E 0 81 47 40
        E 0 81 3b 40
        E 2 91 3b 64
        E 0 91 3e 64
        E 0 91 47 64
        E 382 81 3b 40
        E 0 81 3e 40
        E 0 81 47 40
        E 2 91 43 64
        E 0 91 47 64
        E 0 91 3b 64
        E 142 81 47 40
        E 2 91 47 64
        E 46 81 43 40
        E 0 81 3b 40
        E 0 81 47 40
        E 2 91 43 64
        E 0 91 40 64
        E 0 91 47 64
        E 94 81 47 40
        E 2 91 45 64
        E 94 81 43 40
        E 0 81 40 40
        E 0 81 45 40
        E 2 91 45 64
        E 0 91 43 64
        E 0 91 3d 64
        E 382 81 45 40
        E 0 81 43 40
        E 0 81 3d 40
        E 2 91 3d 64
        E 0 91 43 64
        E 94 81 43 40
        E 96 81 3d 40
        E 2 91 3e 64
        E 0 91 42 64
        E 190 81 3e 40
        E 0 81 42 40
        E 2 91 4a 64
        E 0 91 47 64
        E 0 91 42 64
        E 382 81 4a 40
        E 0 81 47 40
        E 0 81 42 40
        E 2 91 49 64
        E 0 91 45 64
        E 0 91 3e 64
        E 94 81 49 40
        E 0 81 45 40
        E 2 91 47 64
        E 0 91 43 64
        E 94 81 3e 40
        E 0 81 47 40
        E 0 81 43 40
        E 2 91 47 64
        E 0 91 42 64
        E 0 91 3e 64
        E 190 81 47 40
        E 2 91 45 64
        E 190 81 42 40
        E 0 81 3e 40
        E 192 81 45 40
        E 2 91 37 64
        E 0 91 3d 64
        E 0 91 40 64
        E 94 81 37 40
        E 2 91 42 64
        E 94 81 3d 40
        E 0 81 40 40
        E 0 81 42 40
        E 2 91 36 64
        E 0 91 3e 64
        E 382 81 36 40
        E 0 81 3e 40
        E 386 91 42 64
        E 94 81 42 40
        E 2 91 44 64
        E 94 81 44 40
        E 2 91 45 64
        E 0 91 3d 64
        E 0 91 42 64
        E 190 81 45 40
        E 0 81 3d 40
        E 0 81 42 40
        E 2 91 45 64
        E 0 91 3d 64
        E 0 91 42 64
        E 190 81 45 40
        E 0 81 3d 40
        E 0 81 42 40
        E 2 91 45 64
        E 0 91 3e 64
        E 0 91 42 64
        E 94 81 45 40
        E 0 81 3e 40
        E 0 81 42 40
        E 2 91 45 64
        E 0 91 42 64
        E 0 91 3d 64
        E 94 81 45 40
        E 0 81 42 40
        E 0 81 3d 40
        E 2 91 44 64
        E 0 91 3b 64
        E 0 91 42 64
        E 94 81 44 40
        E 0 81 3b 40
        E 0 81 42 40
        E 2 91 3d 64
        E 0 91 45 64
        E 0 91 42 64
        E 94 81 3d 40
        E 0 81 45 40
        E 0 81 42 40
        E 2 91 47 64
        E 0 91 3e 64
        E 0 91 42 64
        E 94 81 47 40
        E 0 81 3e 40
        E 0 81 42 40
        E 2 91 45 64
        E 0 91 3d 64
        E 0 91 42 64
        E 94 81 45 40
        E 0 81 3d 40
        E 0 81 42 40
        E 2 91 44 64
        E 0 91 42 64
        E 0 91 3b 64
        E 94 81 42 40
        E 2 91 41 64
        E 94 81 44 40
        E 0 81 3b 40
        E 0 81 41 40
        E 2 91 42 64
        E 0 91 3d 64
        E 0 91 39 64
        E 190 81 42 40
        E 0 81 3d 40
        E 0 81 39 40
        E 2 91 45 64
        E 94 81 45 40
        E 2 91 47 64
        E 94 81 47 40
        E 2 91 49 64
        E 0 91 40 64
        E 0 91 45 64
        E 190 81 49 40
        E 0 81 40 40
        E 0 81 45 40
        E 2 91 49 64
        E 0 91 40 64
        E 0 91 45 64
        E 190 81 49 40
        E 0 81 40 40
        E 0 81 45 40
        E 2 91 45 64
        E 0 91 42 64
        E 0 91 49 64
        E 94 81 45 40
        E 0 81 42 40
        E 0 81 49 40
        E 2 91 49 64
        E 0 91 40 64
        E 0 91 45 64
        E 94 81 49 40
        E 0 81 40 40
        E 0 81 45 40
        E 2 91 47 64
        E 0 91 45 64
        E 0 91 3e 64
        E 94 81 47 40
        E 0 81 45 40
        E 0 81 3e 40
        E 2 91 45 64
        E 0 91 49 64
        E 0 91 40 64
        E 94 81 45 40
        E 0 81 49 40
        E 0 81 40 40
        E 2 91 42 64
        E 0 91 4a 64
        E 0 91 45 64
        E 94 81 42 40
        E 0 81 4a 40
        E 0 81 45 40
        E 2 91 49 64
        E 0 91 45 64
        E 0 91 40 64
        E 94 81 49 40
        E 0 81 45 40
        E 0 81 40 40
        E 2 91 45 64
        E 0 91 47 64
        E 0 91 3e 64
        E 94 81 45 40
        E 2 91 44 64
        E 94 81 47 40
        E 0 81 3e 40
        E 0 81 44 40
        E 2 91 3d 64
        E 0 91 40 64
        E 0 91 45 64
        E 190 81 3d 40
        E 0 81 40 40
        E 0 81 45 40
        E 2 91 45 64
        E 0 91 49 64
        E 0 91 40 64
        E 94 81 45 40
        E 0 81 49 40
        E 0 81 40 40
        E 2 91 45 64
        E 0 91 40 64
        E 0 91 49 64
        E 94 81 45 40
        E 0 81 40 40
        E 0 81 49 40
        E 2 91 40 64
        E 0 91 49 64
        E 0 91 45 64
        E 190 81 40 40
        E 0 81 49 40
        E 0 81 45 40
        E 2 91 47 64
        E 0 91 42 64
        E 0 91 3e 64
        E 190 81 47 40
        E 0 81 42 40
        E 0 81 3e 40
        E 2 91 47 64
        E 0 91 3e 64
        E 0 91 42 64
        E 94 81 47 40
        E 0 81 3e 40
        E 0 81 42 40
        E 2 91 47 64
        E 0 91 3e 64
        E 0 91 42 64
        E 94 81 47 40
        E 0 81 3e 40
        E 0 81 42 40
        E 2 91 47 64
        E 0 91 3e 64
        E 0 91 44 64
        E 94 81 47 40
        E 0 81 3e 40
        E 0 81 44 40
        E 2 91 49 64
        E 0 91 40 64
        E 0 91 44 64
        E 94 81 49 40
        E 0 81 40 40
        E 0 81 44 40
        E 2 91 42 64
        E 0 91 47 64
        E 0 91 3e 64
        E 94 81 42 40
        E 2 91 44 64
        E 94 81 47 40
        E 0 81 3e 40
        E 0 81 44 40
        E 2 91 45 64
        E 0 91 3d 64
        E 0 91 42 64
        E 190 81 45 40
        E 0 81 3d 40
        E 0 81 42 40
        E 2 91 45 64
        E 0 91 3e 64
        E 0 91 42 64
        E 94 81 45 40
        E 0 81 3e 40
        E 0 81 42 40
        E 2 91 45 64
        E 0 91 3d 64
        E 0 91 42 64
        E 94 81 45 40
        E 0 81 3d 40
        E 0 81 42 40
        E 2 91 44 64
        E 0 91 42 64
        E 0 91 3b 64
        E 94 81 44 40
        E 0 81 42 40
        E 0 81 3b 40
        E 2 91 45 64
        E 0 91 3d 64
        E 0 91 42 64
        E 94 81 45 40
        E 0 81 3d 40
        E 0 81 42 40
        E 2 91 47 64
        E 0 91 3e 64
        E 0 91 42 64
        E 94 81 47 40
        E 0 81 3e 40
        E 0 81 42 40
        E 2 91 3d 64
        E 0 91 42 64
        E 0 91 45 64
        E 94 81 3d 40
        E 0 81 42 40
        E 0 81 45 40
        E 2 91 44 64
        E 0 91 42 64
        E 0 91 3b 64
        E 94 81 42 40
        E 2 91 41 64
        E 94 81 44 40
        E 0 81 3b 40
        E 0 81 41 40
        E 2 91 42 64
        E 0 91 39 64
        E 0 91 3d 64
        E 190 81 42 40
        E 0 81 39 40
        E 0 81 3d 40
        E 2 91 45 64
        E 0 91 49 64
        E 0 91 40 64
        E 94 81 45 40
        E 0 81 49 40
        E 0 81 40 40
        E 2 91 45 64
        E 0 91 40 64
        E 0 91 49 64
        E 94 81 45 40
        E 0 81 40 40
        E 0 81 49 40
        E 2 91 40 64
        E 0 91 49 64
        E 0 91 45 64
        E 190 81 40 40
        E 0 81 49 40
        E 0 81 45 40
        E 2 91 47 64
        E 0 91 42 64
        E 0 91 3e 64
        E 190 81 47 40
        E 0 81 42 40
        E 0 81 3e 40
        E 2 91 47 64
        E 0 91 3e 64
        E 0 91 42 64
        E 94 81 47 40
        E 0 81 3e 40
        E 0 81 42 40
        E 2 91 47 64
        E 0 91 3e 64
        E 0 91 42 64
        E 94 81 47 40
        E 0 81 3e 40
        E 0 81 42 40
        E 2 91 47 64
        E 0 91 3e 64
        E 0 91 44 64
        E 94 81 47 40
        E 0 81 3e 40
        E 0 81 44 40
        E 2 91 49 64
        E 0 91 40 64
        E 0 91 44 64
        E 94 81 49 40
        E 0 81 40 40
        E 0 81 44 40
        E 2 91 42 64
        E 0 91 47 64
        E 0 91 3e 64
        E 94 81 42 40
        E 2 91 44 64
        E 94 81 47 40
        E 0 81 3e 40
        E 0 81 44 40
        E 2 91 45 64
        E 0 91 3d 64
        E 0 91 42 64
        E 190 81 45 40
        E 0 81 3d 40
        E 0 81 42 40
        E 2 91 45 64
        E 0 91 3e 64
        E 0 91 42 64
        E 94 81 45 40
        E 0 81 3e 40
        E 0 81 42 40
        E 2 91 45 64
        E 0 91 3d 64
        E 0 91 42 64
        E 94 81 45 40
        E 0 81 3d 40
        E 0 81 42 40
        E 2 91 44 64
        E 0 91 42 64
        E 0 91 3b 64
        E 94 81 44 40
        E 0 81 42 40
        E 0 81 3b 40
        E 2 91 45 64
        E 0 91 3d 64
        E 0 91 42 64
        E 94 81 45 40
        E 0 81 3d 40
        E 0 81 42 40
        E 2 91 47 64
        E 0 91 3e 64
        E 0 91 42 64
        E 94 81 47 40
        E 0 81 3e 40
        E 0 81 42 40
        E 2 91 3d 64
        E 0 91 42 64
        E 0 91 45 64
        E 94 81 3d 40
        E 0 81 42 40
        E 0 81 45 40
        E 2 91 44 64
        E 0 91 42 64
        E 0 91 3b 64
        E 94 81 42 40
        E 2 91 41 64
        E 94 81 44 40
        E 0 81 3b 40
        E 0 81 41 40
        E 2 91 42 64
        E 0 91 39 64
        E 0 91 3d 64
        E 575 81 3d 40
        E 0 81 39 40
        E 0 81 42 40
        E 1 b0 7b 00
        GUID {A7FD9BE0-43CD-7549-8FE9-CA1DF8633223}
        IGNTEMPO 0 120 4 4
        SRCCOLOR 672
        VELLANE -1 86 6
        CFGEDITVIEW -1065.84086 23.057851 52 16 0 0 0 0 0
        KEYSNAP 0 3 102304056070 0 "Natural minor"
        TRACKSEL -226 0 0 ""
        EVTFILTER 0 -1 -1 -1 -1 0 0 0 0 -1 -1 -1 -1 0 -1 0 -1 -1
        CFGEDIT 1 1 0 0 0 0 1 0 1 0 0 0.25 522 510 1014 762 1 0 1 3 0 0 0 0 0 -1 0 0 1 64
      >
    >
    <ITEM
      POSITION 0
      SNAPOFFS 0
      LENGTH 55
      LOOP 1
      ALLTAKES 0
      FADEIN 1 0 0 1 0 0
      FADEOUT 1 0 0 1 0 0
      MUTE 0
      SEL 0
      YPOS 0.444444 0.111111
      IGUID {C9E90345-F1A4-804A-A5AA-68227D5EB79F}
      IID 8
      NAME "rh                   - National_Anthems_-_Czech_Republic.mid"
      VOLPAN 1 0 1 -1
      SOFFS 0 0
      PLAYRATE 1 1 0 -1 0 0.0025
      CHANMODE 0
      TAKECOLOR 26173599
      GUID {E4C19821-1399-3C42-9EC0-C19BC4DB9B4E}
      <SOURCE MIDI
        HASDATA 1 192 QN
        POOLEDEVTS {6DC205E5-BA2D-3E4C-8C9F-CF2A9D3454E8}
        <X 0 0
          /wNyaCAgICAgICAgICAgICAgICAgIA==
        >
        e 192 9c 3e 64
        e 0 9c 42 64
        e 0 9c 45 64
        e 382 8c 3e 40
        e 0 8c 42 40
        e 0 8c 45 40
        e 2 9c 3e 64
        e 0 9c 43 64
        e 0 9c 47 64
        e 94 8c 3e 40
        e 0 8c 43 40
        e 0 8c 47 40
        e 2 9c 3e 64
        e 0 9c 42 64
        e 0 9c 45 64
        e 94 8c 3e 40
        e 0 8c 42 40
        e 0 8c 45 40
        e 2 9c 3b 64
        e 0 9c 40 64
        e 190 8c 3b 40
        e 0 8c 40 40
        e 2 9c 3b 64
        e 0 9c 3d 64
        e 0 9c 43 64
        e 382 8c 3b 40
        e 0 8c 3d 40
        e 0 8c 43 40
        e 2 9c 39 64
        e 0 9c 3d 64
        e 0 9c 42 64
        e 94 8c 39 40
        e 0 8c 3d 40
        e 0 8c 42 40
        e 2 9c 37 64
        e 0 9c 40 64
        e 94 8c 37 40
        e 0 8c 40 40
        e 2 9c 36 64
        e 0 9c 3e 64
        e 574 8c 36 40
        e 0 8c 3e 40
        e 2 9c 36 64
        e 0 9c 3c 64
        e 0 9c 3e 64
        e 142 8c 3e 40
        e 48 8c 36 40
        e 0 8c 3c 40
        e 2 9c 3b 64
        e 0 9c 3e 64
        e 94 8c 3b 40
        e 0 8c 3e 40
        e 2 9c 43 64
        e 94 8c 43 40
        e 2 9c 3b 64
        e 0 9c 3e 64
        e 0 9c 43 64
        e 382 8c 3b 40
        e 0 8c 3e 40
        e 0 8c 43 40
        e 2 9c 39 64
        e 0 9c 3e 64
        e 0 9c 45 64
        e 94 8c 39 40
        e 0 8c 3e 40
        e 0 8c 45 40
        e 2 9c 3b 64
        e 0 9c 47 64
        e 94 8c 3b 40
        e 0 8c 47 40
        e 2 9c 39 64
        e 0 9c 3d 64
        e 0 9c 45 64
        e 94 8c 39 40
        e 0 8c 3d 40
        e 0 8c 45 40
        e 2 9c 42 64
        e 94 8c 42 40
        e 2 9c 36 64
        e 0 9c 3b 64
        e 0 9c 3e 64
        e 190 8c 3b 40
        e 192 8c 36 40
        e 0 8c 3e 40
        e 2 9c 36 64
        e 0 9c 39 64
        e 0 9c 3e 64
        e 94 8c 39 40
        e 0 8c 3e 40
        e 2 9c 3e 64
        e 22 8c 36 40
        e 74 8c 3e 40
        e 0 9c 37 64
        e 0 9c 3e 64
        e 94 8c 37 40
        e 0 8c 3e 40
        e 2 9c 43 64
        e 94 8c 43 40
        e 2 9c 3b 64
        e 0 9c 3e 64
        e 0 9c 43 64
        e 94 8c 3b 40
        e 0 8c 3e 40
        e 0 8c 43 40
        e 2 9c 47 64
        e 94 8c 47 40
        e 2 9c 3e 64
        e 0 9c 47 64
        e 0 9c 4a 64
        e 190 8c 3e 40
        e 0 8c 47 40
        e 0 8c 4a 40
        e 2 9c 3d 64
        e 0 9c 45 64
        e 0 9c 49 64
        e 94 8c 3d 40
        e 0 8c 45 40
        e 0 8c 49 40
        e 2 9c 3b 64
        e 0 9c 44 64
        e 0 9c 47 64
        e 94 8c 3b 40
        e 0 8c 44 40
        e 0 8c 47 40
        e 2 9c 3b 64
        e 0 9c 44 64
        e 0 9c 47 64
        e 190 8c 3b 40
        e 0 8c 44 40
        e 0 8c 47 40
        e 2 9c 39 64
        e 0 9c 42 64
        e 0 9c 45 64
        e 94 8c 39 40
        e 2 9c 3b 64
        e 94 8c 3b 40
        e 2 9c 3d 64
        e 190 8c 42 40
        e 0 8c 45 40
        e 2 9c 45 64
        e 142 8c 45 40
        e 2 9c 45 64
        e 46 8c 3d 40
        e 0 8c 45 40
        e 2 9c 3d 64
        e 0 9c 43 64
        e 0 9c 45 64
        e 462 8c 3d 40
        e 0 8c 43 40
        e 0 8c 45 40
        e 18 9c 3b 64
        e 0 9c 43 64
        e 0 9c 47 64
        e 94 8c 3b 40
        e 0 8c 43 40
        e 0 8c 47 40
        e 2 9c 3c 64
        e 0 9c 42 64
        e 0 9c 45 64
        e 94 8c 3c 40
        e 0 8c 42 40
        e 0 8c 45 40
        e 2 9c 3d 64
        e 0 9c 40 64
        e 0 9c 43 64
        e 94 8c 3d 40
        e 0 8c 40 40
        e 0 8c 43 40
        e 2 9c 3e 64
        e 0 9c 42 64
        e 574 8c 3e 40
        e 0 8c 42 40
        e 2 9c 3e 64
        e 0 9c 42 64
        e 0 9c 45 64
        e 142 8c 3e 40
        e 0 8c 42 40
        e 0 8c 45 40
        e 2 9c 45 64
        e 46 8c 45 40
        e 2 9c 40 64
        e 0 9c 43 64
        e 0 9c 49 64
        e 414 8c 40 40
        e 0 8c 43 40
        e 0 8c 49 40
        e 66 9c 3b 64
        e 0 9c 43 64
        e 0 9c 47 64
        e 94 8c 3b 40
        e 0 8c 43 40
        e 0 8c 47 40
        e 2 9c 3c 64
        e 0 9c 42 64
        e 0 9c 45 64
        e 94 8c 3c 40
        e 0 8c 42 40
        e 0 8c 45 40
        e 2 9c 3d 64
        e 0 9c 40 64
        e 0 9c 43 64
        e 94 8c 3d 40
        e 0 8c 40 40
        e 0 8c 43 40
        e 2 9c 3e 64
        e 0 9c 42 64
        e 574 8c 3e 40
        e 0 8c 42 40
        e 2 9c 3a 64
        e 0 9c 40 64
        e 0 9c 42 64
        e 142 8c 42 40
        e 2 9c 42 64
        e 46 8c 3a 40
        e 0 8c 40 40
        e 0 8c 42 40
        e 2 9c 3b 64
        e 0 9c 3e 64
        e 0 9c 42 64
        e 190 8c 3b 40
        e 0 8c 3e 40
        e 2 9c 3b 64
        e 0 9c 3e 64
        e 190 8c 3b 40
        e 0 8c 3e 40
        e 2 9c 3a 64
        e 0 9c 40 64
        e 30 8c 42 40
        e 66 9c 42 64
        e 94 8c 3a 40
        e 0 8c 40 40
        e 0 8c 42 40
        e 2 9c 3e 64
        e 0 9c 42 64
        e 0 9c 44 64
        e 94 8c 3e 40
        e 0 8c 42 40
        e 0 8c 44 40
        e 2 9c 3d 64
        e 0 9c 40 64
        e 0 9c 46 64
        e 94 8c 3d 40
        e 0 8c 40 40
        e 0 8c 46 40
        e 2 9c 3d 64
        e 0 9c 40 64
        e 0 9c 46 64
        e 94 8c 3d 40
        e 0 8c 40 40
        e 0 8c 46 40
        e 2 9c 3b 64
        e 0 9c 3d 64
        e 0 9c 3e 64
        e 0 9c 47 64
        e 94 8c 3b 40
        e 0 8c 3d 40
        e 0 8c 3e 40
        e 0 8c 47 40
        e 2 9c 3b 64
        e 0 9c 3e 64
        e 0 9c 47 64
        e 382 8c 3b 40
        e 0 8c 3e 40
        e 0 8c 47 40
        e 2 9c 3b 64
        e 0 9c 43 64
        e 0 9c 47 64
        e 142 8c 47 40
        e 2 9c 47 64
        e 46 8c 3b 40
        e 0 8c 43 40
        e 0 8c 47 40
        e 2 9c 40 64
        e 0 9c 43 64
        e 0 9c 47 64
        e 94 8c 47 40
        e 2 9c 45 64
        e 94 8c 40 40
        e 0 8c 43 40
        e 0 8c 45 40
        e 2 9c 3d 64
        e 0 9c 43 64
        e 0 9c 45 64
        e 382 8c 3d 40
        e 0 8c 43 40
        e 0 8c 45 40
        e 2 9c 3d 64
        e 0 9c 43 64
        e 94 8c 43 40
        e 96 8c 3d 40
        e 2 9c 3e 64
        e 0 9c 42 64
        e 190 8c 3e 40
        e 0 8c 42 40
        e 2 9c 42 64
        e 0 9c 47 64
        e 0 9c 4a 64
        e 382 8c 42 40
        e 0 8c 47 40
        e 0 8c 4a 40
        e 2 9c 3e 64
        e 0 9c 45 64
        e 0 9c 49 64
        e 94 8c 45 40
        e 0 8c 49 40
        e 2 9c 43 64
        e 0 9c 47 64
        e 94 8c 3e 40
        e 0 8c 43 40
        e 0 8c 47 40
        e 2 9c 3e 64
        e 0 9c 42 64
        e 0 9c 47 64
        e 190 8c 47 40
        e 2 9c 45 64
        e 190 8c 3e 40
        e 0 8c 42 40
        e 192 8c 45 40
        e 2 9c 37 64
        e 0 9c 3d 64
        e 0 9c 40 64
        e 94 8c 37 40
        e 2 9c 42 64
        e 94 8c 3d 40
        e 0 8c 40 40
        e 0 8c 42 40
        e 2 9c 36 64
        e 0 9c 3e 64
        e 382 8c 36 40
        e 0 8c 3e 40
        e 386 9c 42 64
        e 94 8c 42 40
        e 2 9c 44 64
        e 94 8c 44 40
        e 2 9c 3d 64
        e 0 9c 42 64
        e 0 9c 45 64
        e 190 8c 3d 40
        e 0 8c 42 40
        e 0 8c 45 40
        e 2 9c 3d 64
        e 0 9c 42 64
        e 0 9c 45 64
        e 190 8c 3d 40
        e 0 8c 42 40
        e 0 8c 45 40
        e 2 9c 3e 64
        e 0 9c 42 64
        e 0 9c 45 64
        e 94 8c 3e 40
        e 0 8c 42 40
        e 0 8c 45 40
        e 2 9c 3d 64
        e 0 9c 42 64
        e 0 9c 45 64
        e 94 8c 3d 40
        e 0 8c 42 40
        e 0 8c 45 40
        e 2 9c 3b 64
        e 0 9c 42 64
        e 0 9c 44 64
        e 94 8c 3b 40
        e 0 8c 42 40
        e 0 8c 44 40
        e 2 9c 3d 64
        e 0 9c 42 64
        e 0 9c 45 64
        e 94 8c 3d 40
        e 0 8c 42 40
        e 0 8c 45 40
        e 2 9c 3e 64
        e 0 9c 42 64
        e 0 9c 47 64
        e 94 8c 3e 40
        e 0 8c 42 40
        e 0 8c 47 40
        e 2 9c 3d 64
        e 0 9c 42 64
        e 0 9c 45 64
        e 94 8c 3d 40
        e 0 8c 42 40
        e 0 8c 45 40
        e 2 9c 3b 64
        e 0 9c 42 64
        e 0 9c 44 64
        e 94 8c 42 40
        e 2 9c 41 64
        e 94 8c 3b 40
        e 0 8c 44 40
        e 0 8c 41 40
        e 2 9c 39 64
        e 0 9c 3d 64
        e 0 9c 42 64
        e 190 8c 39 40
        e 0 8c 3d 40
        e 0 8c 42 40
        e 2 9c 45 64
        e 94 8c 45 40
        e 2 9c 47 64
        e 94 8c 47 40
        e 2 9c 40 64
        e 0 9c 45 64
        e 0 9c 49 64
        e 190 8c 40 40
        e 0 8c 45 40
        e 0 8c 49 40
        e 2 9c 40 64
        e 0 9c 45 64
        e 0 9c 49 64
        e 190 8c 40 40
        e 0 8c 45 40
        e 0 8c 49 40
        e 2 9c 42 64
        e 0 9c 45 64
        e 0 9c 49 64
        e 94 8c 42 40
        e 0 8c 45 40
        e 0 8c 49 40
        e 2 9c 40 64
        e 0 9c 45 64
        e 0 9c 49 64
        e 94 8c 40 40
        e 0 8c 45 40
        e 0 8c 49 40
        e 2 9c 3e 64
        e 0 9c 45 64
        e 0 9c 47 64
        e 94 8c 3e 40
        e 0 8c 45 40
        e 0 8c 47 40
        e 2 9c 40 64
        e 0 9c 45 64
        e 0 9c 49 64
        e 94 8c 40 40
        e 0 8c 45 40
        e 0 8c 49 40
        e 2 9c 42 64
        e 0 9c 45 64
        e 0 9c 4a 64
        e 94 8c 42 40
        e 0 8c 45 40
        e 0 8c 4a 40
        e 2 9c 40 64
        e 0 9c 45 64
        e 0 9c 49 64
        e 94 8c 40 40
        e 0 8c 45 40
        e 0 8c 49 40
        e 2 9c 3e 64
        e 0 9c 45 64
        e 0 9c 47 64
        e 94 8c 45 40
        e 2 9c 44 64
        e 94 8c 3e 40
        e 0 8c 47 40
        e 0 8c 44 40
        e 2 9c 3d 64
        e 0 9c 40 64
        e 0 9c 45 64
        e 190 8c 3d 40
        e 0 8c 40 40
        e 0 8c 45 40
        e 2 9c 40 64
        e 0 9c 45 64
        e 0 9c 49 64
        e 94 8c 40 40
        e 0 8c 45 40
        e 0 8c 49 40
        e 2 9c 40 64
        e 0 9c 45 64
        e 0 9c 49 64
        e 94 8c 40 40
        e 0 8c 45 40
        e 0 8c 49 40
        e 2 9c 40 64
        e 0 9c 45 64
        e 0 9c 49 64
        e 190 8c 40 40
        e 0 8c 45 40
        e 0 8c 49 40
        e 2 9c 3e 64
        e 0 9c 42 64
        e 0 9c 47 64
        e 190 8c 3e 40
        e 0 8c 42 40
        e 0 8c 47 40
        e 2 9c 3e 64
        e 0 9c 42 64
        e 0 9c 47 64
        e 94 8c 3e 40
        e 0 8c 42 40
        e 0 8c 47 40
        e 2 9c 3e 64
        e 0 9c 42 64
        e 0 9c 47 64
        e 94 8c 3e 40
        e 0 8c 42 40
        e 0 8c 47 40
        e 2 9c 3e 64
        e 0 9c 44 64
        e 0 9c 47 64
        e 94 8c 3e 40
        e 0 8c 44 40
        e 0 8c 47 40
        e 2 9c 40 64
        e 0 9c 44 64
        e 0 9c 49 64
        e 94 8c 40 40
        e 0 8c 44 40
        e 0 8c 49 40
        e 2 9c 3e 64
        e 0 9c 42 64
        e 0 9c 47 64
        e 94 8c 42 40
        e 2 9c 44 64
        e 94 8c 3e 40
        e 0 8c 47 40
        e 0 8c 44 40
        e 2 9c 3d 64
        e 0 9c 42 64
        e 0 9c 45 64
        e 190 8c 3d 40
        e 0 8c 42 40
        e 0 8c 45 40
        e 2 9c 3e 64
        e 0 9c 42 64
        e 0 9c 45 64
        e 94 8c 3e 40
        e 0 8c 42 40
        e 0 8c 45 40
        e 2 9c 3d 64
        e 0 9c 42 64
        e 0 9c 45 64
        e 94 8c 3d 40
        e 0 8c 42 40
        e 0 8c 45 40
        e 2 9c 3b 64
        e 0 9c 42 64
        e 0 9c 44 64
        e 94 8c 3b 40
        e 0 8c 42 40
        e 0 8c 44 40
        e 2 9c 3d 64
        e 0 9c 42 64
        e 0 9c 45 64
        e 94 8c 3d 40
        e 0 8c 42 40
        e 0 8c 45 40
        e 2 9c 3e 64
        e 0 9c 42 64
        e 0 9c 47 64
        e 94 8c 3e 40
        e 0 8c 42 40
        e 0 8c 47 40
        e 2 9c 3d 64
        e 0 9c 42 64
        e 0 9c 45 64
        e 94 8c 3d 40
        e 0 8c 42 40
        e 0 8c 45 40
        e 2 9c 3b 64
        e 0 9c 42 64
        e 0 9c 44 64
        e 94 8c 42 40
        e 2 9c 41 64
        e 94 8c 3b 40
        e 0 8c 44 40
        e 0 8c 41 40
        e 2 9c 39 64
        e 0 9c 3d 64
        e 0 9c 42 64
        e 190 8c 39 40
        e 0 8c 3d 40
        e 0 8c 42 40
        e 2 9c 40 64
        e 0 9c 45 64
        e 0 9c 49 64
        e 94 8c 40 40
        e 0 8c 45 40
        e 0 8c 49 40
        e 2 9c 40 64
        e 0 9c 45 64
        e 0 9c 49 64
        e 94 8c 40 40
        e 0 8c 45 40
        e 0 8c 49 40
        e 2 9c 40 64
        e 0 9c 45 64
        e 0 9c 49 64
        e 190 8c 40 40
        e 0 8c 45 40
        e 0 8c 49 40
        e 2 9c 3e 64
        e 0 9c 42 64
        e 0 9c 47 64
        e 190 8c 3e 40
        e 0 8c 42 40
        e 0 8c 47 40
        e 2 9c 3e 64
        e 0 9c 42 64
        e 0 9c 47 64
        e 94 8c 3e 40
        e 0 8c 42 40
        e 0 8c 47 40
        e 2 9c 3e 64
        e 0 9c 42 64
        e 0 9c 47 64
        e 94 8c 3e 40
        e 0 8c 42 40
        e 0 8c 47 40
        e 2 9c 3e 64
        e 0 9c 44 64
        e 0 9c 47 64
        e 94 8c 3e 40
        e 0 8c 44 40
        e 0 8c 47 40
        e 2 9c 40 64
        e 0 9c 44 64
        e 0 9c 49 64
        e 94 8c 40 40
        e 0 8c 44 40
        e 0 8c 49 40
        e 2 9c 3e 64
        e 0 9c 42 64
        e 0 9c 47 64
        e 94 8c 42 40
        e 2 9c 44 64
        e 94 8c 3e 40
        e 0 8c 47 40
        e 0 8c 44 40
        e 2 9c 3d 64
        e 0 9c 42 64
        e 0 9c 45 64
        e 190 8c 3d 40
        e 0 8c 42 40
        e 0 8c 45 40
        e 2 9c 3e 64
        e 0 9c 42 64
        e 0 9c 45 64
        e 94 8c 3e 40
        e 0 8c 42 40
        e 0 8c 45 40
        e 2 9c 3d 64
        e 0 9c 42 64
        e 0 9c 45 64
        e 94 8c 3d 40
        e 0 8c 42 40
        e 0 8c 45 40
        e 2 9c 3b 64
        e 0 9c 42 64
        e 0 9c 44 64
        e 94 8c 3b 40
        e 0 8c 42 40
        e 0 8c 44 40
        e 2 9c 3d 64
        e 0 9c 42 64
        e 0 9c 45 64
        e 94 8c 3d 40
        e 0 8c 42 40
        e 0 8c 45 40
        e 2 9c 3e 64
        e 0 9c 42 64
        e 0 9c 47 64
        e 94 8c 3e 40
        e 0 8c 42 40
        e 0 8c 47 40
        e 2 9c 3d 64
        e 0 9c 42 64
        e 0 9c 45 64
        e 94 8c 3d 40
        e 0 8c 42 40
        e 0 8c 45 40
        e 2 9c 3b 64
        e 0 9c 42 64
        e 0 9c 44 64
        e 94 8c 42 40
        e 2 9c 41 64
        e 94 8c 3b 40
        e 0 8c 44 40
        e 0 8c 41 40
        e 2 9c 39 64
        e 0 9c 3d 64
        e 0 9c 42 64
        e 575 8c 39 40
        e 0 8c 3d 40
        e 0 8c 42 40
        E 1 b0 7b 00
        GUID {8A0F1FAE-685C-FA46-BD12-7EB95EE923A1}
        IGNTEMPO 0 120 4 4
        SRCCOLOR 620
        VELLANE -1 86 6
        CFGEDITVIEW -899.303226 23.057851 50 16 0 0 0 0 0
        KEYSNAP 0 3 102304056070 0 "Natural minor"
        TRACKSEL 226 0 0 ""
        EVTFILTER 0 -1 -1 -1 -1 0 0 0 0 -1 -1 -1 -1 0 -1 0 -1 -1
        CFGEDIT 1 1 0 0 0 0 1 0 1 1 1 0.25 506 494 1014 762 1 0 1 3 0 0 0 0 0 -1 0 0 1 64
      >
      TAKE
      NAME "rh                   - National_Anthems_-_Czech_Republic.mid"
      TAKEVOLPAN 0 1 -1
      SOFFS 0 0
      PLAYRATE 1 1 0 -1 0 0.0025
      CHANMODE 0
      GUID {DEB7D34A-8C9B-F646-98A8-B6E6A863A649}
      <SOURCE MIDI
        HASDATA 1 192 QN
        POOLEDEVTS {EE4E080B-B451-2E4D-BF72-3A06A4933F16}
        <X 0 0
          /wNyaCAgICAgICAgICAgICAgICAgIA==
        >
        E 192 9c 45 64
        E 0 9c 3e 64
        E 0 9c 42 64
        E 382 8c 45 40
        E 0 8c 3e 40
        E 0 8c 42 40
        E 2 9c 47 64
        E 0 9c 43 64
        E 0 9c 3e 64
        E 94 8c 47 40
        E 0 8c 43 40
        E 0 8c 3e 40
        E 2 9c 45 64
        E 0 9c 42 64
        E 0 9c 3e 64
        E 94 8c 45 40
        E 0 8c 42 40
        E 0 8c 3e 40
        E 2 9c 40 64
        E 0 9c 3b 64
        E 190 8c 40 40
        E 0 8c 3b 40
        E 2 9c 3b 64
        E 0 9c 43 64
        E 0 9c 3d 64
        E 382 8c 3b 40
        E 0 8c 43 40
        E 0 8c 3d 40
        E 2 9c 42 64
        E 0 9c 39 64
        E 0 9c 3d 64
        E 94 8c 42 40
        E 0 8c 39 40
        E 0 8c 3d 40
        E 2 9c 40 64
        E 0 9c 37 64
        E 94 8c 40 40
        E 0 8c 37 40
        E 2 9c 3e 64
        E 0 9c 36 64
        E 574 8c 3e 40
        E 0 8c 36 40
        E 2 9c 3e 64
        E 0 9c 36 64
        E 0 9c 3c 64
        E 142 8c 3e 40
        E 48 8c 36 40
        E 0 8c 3c 40
        E 2 9c 3b 64
        E 0 9c 3e 64
        E 94 8c 3b 40
        E 0 8c 3e 40
        E 2 9c 43 64
        E 94 8c 43 40
        E 2 9c 3b 64
        E 0 9c 3e 64
        E 0 9c 43 64
        E 382 8c 3b 40
        E 0 8c 3e 40
        E 0 8c 43 40
        E 2 9c 45 64
        E 0 9c 3e 64
        E 0 9c 39 64
        E 94 8c 45 40
        E 0 8c 3e 40
        E 0 8c 39 40
        E 2 9c 47 64
        E 0 9c 3b 64
        E 94 8c 47 40
        E 0 8c 3b 40
        E 2 9c 45 64
        E 0 9c 3d 64
        E 0 9c 39 64
        E 94 8c 45 40
        E 0 8c 3d 40
        E 0 8c 39 40
        E 2 9c 42 64
        E 94 8c 42 40
        E 2 9c 36 64
        E 0 9c 3e 64
        E 0 9c 3b 64
        E 190 8c 3b 40
        E 192 8c 36 40
        E 0 8c 3e 40
        E 2 9c 39 64
        E 0 9c 3e 64
        E 0 9c 36 64
        E 94 8c 39 40
        E 0 8c 3e 40
        E 2 9c 3e 64
        E 22 8c 36 40
        E 74 8c 3e 40
        E 0 9c 3e 64
        E 0 9c 37 64
        E 94 8c 3e 40
        E 0 8c 37 40
        E 2 9c 43 64
        E 94 8c 43 40
        E 2 9c 43 64
        E 0 9c 3e 64
        E 0 9c 3b 64
        E 94 8c 43 40
        E 0 8c 3e 40
        E 0 8c 3b 40
        E 2 9c 47 64
        E 94 8c 47 40
        E 2 9c 47 64
        E 0 9c 3e 64
        E 0 9c 4a 64
        E 190 8c 47 40
        E 0 8c 3e 40
        E 0 8c 4a 40
        E 2 9c 45 64
        E 0 9c 49 64
        E 0 9c 3d 64
        E 94 8c 45 40
        E 0 8c 49 40
        E 0 8c 3d 40
        E 2 9c 44 64
        E 0 9c 47 64
        E 0 9c 3b 64
        E 94 8c 44 40
        E 0 8c 47 40
        E 0 8c 3b 40
        E 2 9c 47 64
        E 0 9c 3b 64
        E 0 9c 44 64
        E 190 8c 47 40
        E 0 8c 3b 40
        E 0 8c 44 40
        E 2 9c 42 64
        E 0 9c 39 64
        E 0 9c 45 64
        E 94 8c 39 40
        E 2 9c 3b 64
        E 94 8c 3b 40
        E 2 9c 3d 64
        E 190 8c 42 40
        E 0 8c 45 40
        E 2 9c 45 64
        E 142 8c 45 40
        E 2 9c 45 64
        E 46 8c 3d 40
        E 0 8c 45 40
        E 2 9c 43 64
        E 0 9c 3d 64
        E 0 9c 45 64
        E 462 8c 43 40
        E 0 8c 3d 40
        E 0 8c 45 40
        E 18 9c 47 64
        E 0 9c 43 64
        E 0 9c 3b 64
        E 94 8c 47 40
        E 0 8c 43 40
        E 0 8c 3b 40
        E 2 9c 45 64
        E 0 9c 42 64
        E 0 9c 3c 64
        E 94 8c 45 40
        E 0 8c 42 40
        E 0 8c 3c 40
        E 2 9c 43 64
        E 0 9c 40 64
        E 0 9c 3d 64
        E 94 8c 43 40
        E 0 8c 40 40
        E 0 8c 3d 40
        E 2 9c 42 64
        E 0 9c 3e 64
        E 574 8c 42 40
        E 0 8c 3e 40
        E 2 9c 45 64
        E 0 9c 3e 64
        E 0 9c 42 64
        E 142 8c 45 40
        E 0 8c 3e 40
        E 0 8c 42 40
        E 2 9c 45 64
        E 46 8c 45 40
        E 2 9c 49 64
        E 0 9c 40 64
        E 0 9c 43 64
        E 414 8c 49 40
        E 0 8c 40 40
        E 0 8c 43 40
        E 66 9c 43 64
        E 0 9c 47 64
        E 0 9c 3b 64
        E 94 8c 43 40
        E 0 8c 47 40
        E 0 8c 3b 40
        E 2 9c 45 64
        E 0 9c 3c 64
        E 0 9c 42 64
        E 94 8c 45 40
        E 0 8c 3c 40
        E 0 8c 42 40
        E 2 9c 3d 64
        E 0 9c 40 64
        E 0 9c 43 64
        E 94 8c 3d 40
        E 0 8c 40 40
        E 0 8c 43 40
        E 2 9c 42 64
        E 0 9c 3e 64
        E 574 8c 42 40
        E 0 8c 3e 40
        E 2 9c 42 64
        E 0 9c 3a 64
        E 0 9c 40 64
        E 142 8c 42 40
        E 2 9c 42 64
        E 46 8c 3a 40
        E 0 8c 40 40
        E 0 8c 42 40
        E 2 9c 42 64
        E 0 9c 3e 64
        E 0 9c 3b 64
        E 190 8c 3e 40
        E 0 8c 3b 40
        E 2 9c 3e 64
        E 0 9c 3b 64
        E 190 8c 3e 40
        E 0 8c 3b 40
        E 2 9c 40 64
        E 0 9c 3a 64
        E 30 8c 42 40
        E 66 9c 42 64
        E 94 8c 40 40
        E 0 8c 3a 40
        E 0 8c 42 40
        E 2 9c 3e 64
        E 0 9c 44 64
        E 0 9c 42 64
        E 94 8c 3e 40
        E 0 8c 44 40
        E 0 8c 42 40
        E 2 9c 40 64
        E 0 9c 3d 64
        E 0 9c 46 64
        E 94 8c 40 40
        E 0 8c 3d 40
        E 0 8c 46 40
        E 2 9c 40 64
        E 0 9c 46 64
        E 0 9c 3d 64
        E 94 8c 40 40
        E 0 8c 46 40
        E 0 8c 3d 40
        E 2 9c 3d 64
        E 0 9c 3e 64
        E 0 9c 47 64
        E 0 9c 3b 64
        E 94 8c 3d 40
        E 0 8c 3e 40
        E 0 8c 47 40
        E 0 8c 3b 40
        E 2 9c 3b 64
        E 0 9c 3e 64
        E 0 9c 47 64
        E 382 8c 3b 40
        E 0 8c 3e 40
        E 0 8c 47 40
        E 2 9c 43 64
        E 0 9c 47 64
        E 0 9c 3b 64
        E 142 8c 47 40
        E 2 9c 47 64
        E 46 8c 43 40
        E 0 8c 3b 40
        E 0 8c 47 40
        E 2 9c 43 64
        E 0 9c 40 64
        E 0 9c 47 64
        E 94 8c 47 40
        E 2 9c 45 64
        E 94 8c 43 40
        E 0 8c 40 40
        E 0 8c 45 40
        E 2 9c 45 64
        E 0 9c 43 64
        E 0 9c 3d 64
        E 382 8c 45 40
        E 0 8c 43 40
        E 0 8c 3d 40
        E 2 9c 3d 64
        E 0 9c 43 64
        E 94 8c 43 40
        E 96 8c 3d 40
        E 2 9c 3e 64
        E 0 9c 42 64
        E 190 8c 3e 40
        E 0 8c 42 40
        E 2 9c 4a 64
        E 0 9c 47 64
        E 0 9c 42 64
        E 382 8c 4a 40
        E 0 8c 47 40
        E 0 8c 42 40
        E 2 9c 49 64
        E 0 9c 45 64
        E 0 9c 3e 64
        E 94 8c 49 40
        E 0 8c 45 40
        E 2 9c 47 64
        E 0 9c 43 64
        E 94 8c 3e 40
        E 0 8c 47 40
        E 0 8c 43 40
        E 2 9c 47 64
        E 0 9c 42 64
        E 0 9c 3e 64
        E 190 8c 47 40
        E 2 9c 45 64
        E 190 8c 42 40
        E 0 8c 3e 40
        E 192 8c 45 40
        E 2 9c 37 64
        E 0 9c 3d 64
        E 0 9c 40 64
        E 94 8c 37 40
        E 2 9c 42 64
        E 94 8c 3d 40
        E 0 8c 40 40
        E 0 8c 42 40
        E 2 9c 36 64
        E 0 9c 3e 64
        E 382 8c 36 40
        E 0 8c 3e 40
        E 386 9c 42 64
        E 94 8c 42 40
        E 2 9c 44 64
        E 94 8c 44 40
        E 2 9c 45 64
        E 0 9c 3d 64
        E 0 9c 42 64
        E 190 8c 45 40
        E 0 8c 3d 40
        E 0 8c 42 40
        E 2 9c 45 64
        E 0 9c 3d 64
        E 0 9c 42 64
        E 190 8c 45 40
        E 0 8c 3d 40
        E 0 8c 42 40
        E 2 9c 45 64
        E 0 9c 3e 64
        E 0 9c 42 64
        E 94 8c 45 40
        E 0 8c 3e 40
        E 0 8c 42 40
        E 2 9c 45 64
        E 0 9c 42 64
        E 0 9c 3d 64
        E 94 8c 45 40
        E 0 8c 42 40
        E 0 8c 3d 40
        E 2 9c 44 64
        E 0 9c 3b 64
        E 0 9c 42 64
        E 94 8c 44 40
        E 0 8c 3b 40
        E 0 8c 42 40
        E 2 9c 3d 64
        E 0 9c 45 64
        E 0 9c 42 64
        E 94 8c 3d 40
        E 0 8c 45 40
        E 0 8c 42 40
        E 2 9c 47 64
        E 0 9c 3e 64
        E 0 9c 42 64
        E 94 8c 47 40
        E 0 8c 3e 40
        E 0 8c 42 40
        E 2 9c 45 64
        E 0 9c 3d 64
        E 0 9c 42 64
        E 94 8c 45 40
        E 0 8c 3d 40
        E 0 8c 42 40
        E 2 9c 44 64
        E 0 9c 42 64
        E 0 9c 3b 64
        E 94 8c 42 40
        E 2 9c 41 64
        E 94 8c 44 40
        E 0 8c 3b 40
        E 0 8c 41 40
        E 2 9c 42 64
        E 0 9c 3d 64
        E 0 9c 39 64
        E 190 8c 42 40
        E 0 8c 3d 40
        E 0 8c 39 40
        E 2 9c 45 64
        E 94 8c 45 40
        E 2 9c 47 64
        E 94 8c 47 40
        E 2 9c 49 64
        E 0 9c 40 64
        E 0 9c 45 64
        E 190 8c 49 40
        E 0 8c 40 40
        E 0 8c 45 40
        E 2 9c 49 64
        E 0 9c 40 64
        E 0 9c 45 64
        E 190 8c 49 40
        E 0 8c 40 40
        E 0 8c 45 40
        E 2 9c 45 64
        E 0 9c 42 64
        E 0 9c 49 64
        E 94 8c 45 40
        E 0 8c 42 40
        E 0 8c 49 40
        E 2 9c 49 64
        E 0 9c 40 64
        E 0 9c 45 64
        E 94 8c 49 40
        E 0 8c 40 40
        E 0 8c 45 40
        E 2 9c 47 64
        E 0 9c 45 64
        E 0 9c 3e 64
        E 94 8c 47 40
        E 0 8c 45 40
        E 0 8c 3e 40
        E 2 9c 45 64
        E 0 9c 49 64
        E 0 9c 40 64
        E 94 8c 45 40
        E 0 8c 49 40
        E 0 8c 40 40
        E 2 9c 42 64
        E 0 9c 4a 64
        E 0 9c 45 64
        E 94 8c 42 40
        E 0 8c 4a 40
        E 0 8c 45 40
        E 2 9c 49 64
        E 0 9c 45 64
        E 0 9c 40 64
        E 94 8c 49 40
        E 0 8c 45 40
        E 0 8c 40 40
        E 2 9c 45 64
        E 0 9c 47 64
        E 0 9c 3e 64
        E 94 8c 45 40
        E 2 9c 44 64
        E 94 8c 47 40
        E 0 8c 3e 40
        E 0 8c 44 40
        E 2 9c 3d 64
        E 0 9c 40 64
        E 0 9c 45 64
        E 190 8c 3d 40
        E 0 8c 40 40
        E 0 8c 45 40
        E 2 9c 45 64
        E 0 9c 49 64
        E 0 9c 40 64
        E 94 8c 45 40
        E 0 8c 49 40
        E 0 8c 40 40
        E 2 9c 45 64
        E 0 9c 40 64
        E 0 9c 49 64
        E 94 8c 45 40
        E 0 8c 40 40
        E 0 8c 49 40
        E 2 9c 40 64
        E 0 9c 49 64
        E 0 9c 45 64
        E 190 8c 40 40
        E 0 8c 49 40
        E 0 8c 45 40
        E 2 9c 47 64
        E 0 9c 42 64
        E 0 9c 3e 64
        E 190 8c 47 40
        E 0 8c 42 40
        E 0 8c 3e 40
        E 2 9c 47 64
        E 0 9c 3e 64
        E 0 9c 42 64
        E 94 8c 47 40
        E 0 8c 3e 40
        E 0 8c 42 40
        E 2 9c 47 64
        E 0 9c 3e 64
        E 0 9c 42 64
        E 94 8c 47 40
        E 0 8c 3e 40
        E 0 8c 42 40
        E 2 9c 47 64
        E 0 9c 3e 64
        E 0 9c 44 64
        E 94 8c 47 40
        E 0 8c 3e 40
        E 0 8c 44 40
        E 2 9c 49 64
        E 0 9c 40 64
        E 0 9c 44 64
        E 94 8c 49 40
        E 0 8c 40 40
        E 0 8c 44 40
        E 2 9c 42 64
        E 0 9c 47 64
        E 0 9c 3e 64
        E 94 8c 42 40
        E 2 9c 44 64
        E 94 8c 47 40
        E 0 8c 3e 40
        E 0 8c 44 40
        E 2 9c 45 64
        E 0 9c 3d 64
        E 0 9c 42 64
        E 190 8c 45 40
        E 0 8c 3d 40
        E 0 8c 42 40
        E 2 9c 45 64
        E 0 9c 3e 64
        E 0 9c 42 64
        E 94 8c 45 40
        E 0 8c 3e 40
        E 0 8c 42 40
        E 2 9c 45 64
        E 0 9c 3d 64
        E 0 9c 42 64
        E 94 8c 45 40
        E 0 8c 3d 40
        E 0 8c 42 40
        E 2 9c 44 64
        E 0 9c 42 64
        E 0 9c 3b 64
        E 94 8c 44 40
        E 0 8c 42 40
        E 0 8c 3b 40
        E 2 9c 45 64
        E 0 9c 3d 64
        E 0 9c 42 64
        E 94 8c 45 40
        E 0 8c 3d 40
        E 0 8c 42 40
        E 2 9c 47 64
        E 0 9c 3e 64
        E 0 9c 42 64
        E 94 8c 47 40
        E 0 8c 3e 40
        E 0 8c 42 40
        E 2 9c 3d 64
        E 0 9c 42 64
        E 0 9c 45 64
        E 94 8c 3d 40
        E 0 8c 42 40
        E 0 8c 45 40
        E 2 9c 44 64
        E 0 9c 42 64
        E 0 9c 3b 64
        E 94 8c 42 40
        E 2 9c 41 64
        E 94 8c 44 40
        E 0 8c 3b 40
        E 0 8c 41 40
        E 2 9c 42 64
        E 0 9c 39 64
        E 0 9c 3d 64
        E 190 8c 42 40
        E 0 8c 39 40
        E 0 8c 3d 40
        E 2 9c 45 64
        E 0 9c 49 64
        E 0 9c 40 64
        E 94 8c 45 40
        E 0 8c 49 40
        E 0 8c 40 40
        E 2 9c 45 64
        E 0 9c 40 64
        E 0 9c 49 64
        E 94 8c 45 40
        E 0 8c 40 40
        E 0 8c 49 40
        E 2 9c 40 64
        E 0 9c 49 64
        E 0 9c 45 64
        E 190 8c 40 40
        E 0 8c 49 40
        E 0 8c 45 40
        E 2 9c 47 64
        E 0 9c 42 64
        E 0 9c 3e 64
        E 190 8c 47 40
        E 0 8c 42 40
        E 0 8c 3e 40
        E 2 9c 47 64
        E 0 9c 3e 64
        E 0 9c 42 64
        E 94 8c 47 40
        E 0 8c 3e 40
        E 0 8c 42 40
        E 2 9c 47 64
        E 0 9c 3e 64
        E 0 9c 42 64
        E 94 8c 47 40
        E 0 8c 3e 40
        E 0 8c 42 40
        E 2 9c 47 64
        E 0 9c 3e 64
        E 0 9c 44 64
        E 94 8c 47 40
        E 0 8c 3e 40
        E 0 8c 44 40
        E 2 9c 49 64
        E 0 9c 40 64
        E 0 9c 44 64
        E 94 8c 49 40
        E 0 8c 40 40
        E 0 8c 44 40
        E 2 9c 42 64
        E 0 9c 47 64
        E 0 9c 3e 64
        E 94 8c 42 40
        E 2 9c 44 64
        E 94 8c 47 40
        E 0 8c 3e 40
        E 0 8c 44 40
        E 2 9c 45 64
        E 0 9c 3d 64
        E 0 9c 42 64
        E 190 8c 45 40
        E 0 8c 3d 40
        E 0 8c 42 40
        E 2 9c 45 64
        E 0 9c 3e 64
        E 0 9c 42 64
        E 94 8c 45 40
        E 0 8c 3e 40
        E 0 8c 42 40
        E 2 9c 45 64
        E 0 9c 3d 64
        E 0 9c 42 64
        E 94 8c 45 40
        E 0 8c 3d 40
        E 0 8c 42 40
        E 2 9c 44 64
        E 0 9c 42 64
        E 0 9c 3b 64
        E 94 8c 44 40
        E 0 8c 42 40
        E 0 8c 3b 40
        E 2 9c 45 64
        E 0 9c 3d 64
        E 0 9c 42 64
        E 94 8c 45 40
        E 0 8c 3d 40
        E 0 8c 42 40
        E 2 9c 47 64
        E 0 9c 3e 64
        E 0 9c 42 64
        E 94 8c 47 40
        E 0 8c 3e 40
        E 0 8c 42 40
        E 2 9c 3d 64
        E 0 9c 42 64
        E 0 9c 45 64
        E 94 8c 3d 40
        E 0 8c 42 40
        E 0 8c 45 40
        E 2 9c 44 64
        E 0 9c 42 64
        E 0 9c 3b 64
        E 94 8c 42 40
        E 2 9c 41 64
        E 94 8c 44 40
        E 0 8c 3b 40
        E 0 8c 41 40
        E 2 9c 42 64
        E 0 9c 39 64
        E 0 9c 3d 64
        E 575 8c 3d 40
        E 0 8c 39 40
        E 0 8c 42 40
        E 1 b0 7b 00
        GUID {80595F54-8F9D-2B4E-B42B-90E13D8CF450}
        IGNTEMPO 0 120 4 4
        SRCCOLOR 674
        VELLANE -1 86 6
      >
    >
    <ITEM
      POSITION 0
      SNAPOFFS 0
      LENGTH 55
      LOOP 1
      ALLTAKES 0
      FADEIN 1 0 0 1 0 0
      FADEOUT 1 0 0 1 0 0
      MUTE 0
      SEL 0
      YPOS 0.555556 0.111111
      IGUID {42B241D2-3FD8-3E44-86A7-63CDEAA51C55}
      IID 9
      NAME "lh                   - National_Anthems_-_Czech_Republic.mid"
      VOLPAN 1 0 1 -1
      SOFFS 0 0
      PLAYRATE 1 1 0 -1 0 0.0025
      CHANMODE 0
      TAKECOLOR 26173599
      GUID {DE7ABDB5-B558-214F-8CAF-249805253282}
      <SOURCE MIDI
        HASDATA 1 192 QN
        POOLEDEVTS {F1B4CA48-5514-2540-BC5F-4365916EBF4D}
        <X 0 0
          /wNsaCAgICAgICAgICAgICAgICAgIA==
        >
        E 0 9d 26 64
        E 0 9d 32 64
        E 190 8d 26 40
        E 0 8d 32 40
        E 2 9d 39 64
        E 0 9d 36 64
        E 0 9d 32 64
        E 382 8d 39 40
        E 0 8d 36 40
        E 0 8d 32 40
        E 2 9d 3b 64
        E 0 9d 32 64
        E 0 9d 37 64
        E 94 8d 3b 40
        E 0 8d 32 40
        E 0 8d 37 40
        E 2 9d 39 64
        E 0 9d 36 64
        E 0 9d 32 64
        E 94 8d 39 40
        E 0 8d 36 40
        E 0 8d 32 40
        E 2 9d 37 64
        E 0 9d 34 64
        E 190 8d 37 40
        E 0 8d 34 40
        E 2 9d 2d 64
        E 382 8d 2d 40
        E 2 9d 2d 64
        E 190 8d 2d 40
        E 2 9d 32 64
        E 190 8d 32 40
        E 2 9d 30 64
        E 190 8d 30 40
        E 2 9d 2f 64
        E 190 8d 2f 40
        E 2 9d 2d 64
        E 190 8d 2d 40
        E 2 9d 2b 64
        E 190 8d 2b 40
        E 2 9d 2a 64
        E 190 8d 2a 40
        E 2 9d 28 64
        E 190 8d 28 40
        E 2 9d 2a 64
        E 94 8d 2a 40
        E 2 9d 2b 64
        E 94 8d 2b 40
        E 2 9d 2a 64
        E 190 8d 2a 40
        E 2 9d 2f 64
        E 190 8d 2f 40
        E 2 9d 32 64
        E 190 8d 32 40
        E 2 9d 30 64
        E 190 8d 30 40
        E 2 9d 2f 64
        E 190 8d 2f 40
        E 2 9d 2b 64
        E 190 8d 2b 40
        E 2 9d 28 64
        E 190 8d 28 40
        E 2 9d 29 64
        E 190 8d 29 40
        E 2 9d 2a 64
        E 94 8d 2a 40
        E 2 9d 31 64
        E 94 8d 31 40
        E 2 9d 36 64
        E 94 8d 36 40
        E 2 9d 38 64
        E 94 8d 38 40
        E 2 9d 39 64
        E 190 8d 39 40
        E 2 9d 36 64
        E 190 8d 36 40
        E 2 9d 34 64
        E 94 8d 34 40
        E 2 9d 2d 64
        E 94 8d 2d 40
        E 2 9d 31 64
        E 94 8d 31 40
        E 2 9d 34 64
        E 94 8d 34 40
        E 2 9d 39 64
        E 190 8d 39 40
        E 2 9d 2d 64
        E 190 8d 2d 40
        E 2 9d 26 64
        E 94 8d 26 40
        E 2 9d 2d 64
        E 94 8d 2d 40
        E 2 9d 32 64
        E 94 8d 32 40
        E 2 9d 34 64
        E 94 8d 34 40
        E 2 9d 36 64
        E 190 8d 36 40
        E 2 9d 32 64
        E 190 8d 32 40
        E 2 9d 34 64
        E 94 8d 34 40
        E 2 9d 2d 64
        E 94 8d 2d 40
        E 2 9d 31 64
        E 94 8d 31 40
        E 2 9d 34 64
        E 94 8d 34 40
        E 2 9d 39 64
        E 190 8d 39 40
        E 2 9d 2d 64
        E 190 8d 2d 40
        E 2 9d 26 64
        E 94 8d 26 40
        E 2 9d 2d 64
        E 94 8d 2d 40
        E 2 9d 32 64
        E 94 8d 32 40
        E 2 9d 34 64
        E 94 8d 34 40
        E 2 9d 36 64
        E 94 8d 36 40
        E 2 9d 34 64
        E 94 8d 34 40
        E 2 9d 32 64
        E 94 8d 32 40
        E 2 9d 31 64
        E 94 8d 31 40
        E 2 9d 2f 64
        E 94 8d 2f 40
        E 2 9d 2a 64
        E 94 8d 2a 40
        E 2 9d 2f 64
        E 94 8d 2f 40
        E 2 9d 32 64
        E 94 8d 32 40
        E 2 9d 31 64
        E 190 8d 31 40
        E 2 9d 2a 64
        E 190 8d 2a 40
        E 2 9d 2f 64
        E 94 8d 2f 40
        E 2 9d 2a 64
        E 94 8d 2a 40
        E 2 9d 2f 64
        E 94 8d 2f 40
        E 2 9d 32 64
        E 94 8d 32 40
        E 2 9d 36 64
        E 190 8d 36 40
        E 2 9d 34 64
        E 94 8d 34 40
        E 2 9d 32 64
        E 94 8d 32 40
        E 2 9d 31 64
        E 190 8d 31 40
        E 2 9d 34 64
        E 190 8d 34 40
        E 2 9d 2d 64
        E 190 8d 2d 40
        E 2 9d 34 64
        E 190 8d 34 40
        E 2 9d 2f 64
        E 94 8d 2f 40
        E 2 9d 32 64
        E 94 8d 32 40
        E 2 9d 36 64
        E 94 8d 36 40
        E 2 9d 3b 64
        E 94 8d 3b 40
        E 2 9d 3e 64
        E 190 8d 3e 40
        E 2 9d 2b 64
        E 190 8d 2b 40
        E 2 9d 2f 64
        E 94 8d 2f 40
        E 2 9d 32 64
        E 94 8d 32 40
        E 2 9d 36 64
        E 94 8d 36 40
        E 2 9d 32 64
        E 94 8d 32 40
        E 2 9d 39 64
        E 190 8d 39 40
        E 2 9d 2d 64
        E 190 8d 2d 40
        E 2 9d 32 64
        E 94 8d 32 40
        E 2 9d 2d 64
        E 94 8d 2d 40
        E 2 9d 2a 64
        E 94 8d 2a 40
        E 2 9d 2d 64
        E 94 8d 2d 40
        E 2 9d 26 64
        E 382 8d 26 40
        E 194 9d 2a 64
        E 94 8d 2a 40
        E 2 9d 2c 64
        E 94 8d 2c 40
        E 2 9d 2d 64
        E 190 8d 2d 40
        E 2 9d 2f 64
        E 94 8d 2f 40
        E 2 9d 31 64
        E 94 8d 31 40
        E 2 9d 32 64
        E 94 8d 32 40
        E 2 9d 31 64
        E 94 8d 31 40
        E 2 9d 2f 64
        E 94 8d 2f 40
        E 2 9d 31 64
        E 94 8d 31 40
        E 2 9d 32 64
        E 94 8d 32 40
        E 2 9d 31 64
        E 94 8d 31 40
        E 2 9d 36 64
        E 190 8d 36 40
        E 194 9d 2d 64
        E 94 8d 2d 40
        E 2 9d 2f 64
        E 94 8d 2f 40
        E 2 9d 31 64
        E 190 8d 31 40
        E 2 9d 32 64
        E 94 8d 32 40
        E 2 9d 34 64
        E 94 8d 34 40
        E 2 9d 36 64
        E 94 8d 36 40
        E 2 9d 34 64
        E 94 8d 34 40
        E 2 9d 32 64
        E 94 8d 32 40
        E 2 9d 34 64
        E 94 8d 34 40
        E 2 9d 36 64
        E 94 8d 36 40
        E 2 9d 34 64
        E 94 8d 34 40
        E 2 9d 39 64
        E 190 8d 39 40
        E 2 9d 39 64
        E 94 8d 39 40
        E 2 9d 36 64
        E 94 8d 36 40
        E 2 9d 38 64
        E 94 8d 38 40
        E 2 9d 39 64
        E 94 8d 39 40
        E 2 9d 3b 64
        E 94 8d 3b 40
        E 2 9d 2f 64
        E 94 8d 2f 40
        E 2 9d 31 64
        E 94 8d 31 40
        E 2 9d 32 64
        E 94 8d 32 40
        E 2 9d 34 64
        E 94 8d 34 40
        E 2 9d 31 64
        E 94 8d 31 40
        E 2 9d 32 64
        E 94 8d 32 40
        E 2 9d 34 64
        E 94 8d 34 40
        E 2 9d 36 64
        E 94 8d 36 40
        E 2 9d 2d 64
        E 94 8d 2d 40
        E 2 9d 2f 64
        E 94 8d 2f 40
        E 2 9d 31 64
        E 94 8d 31 40
        E 2 9d 32 64
        E 94 8d 32 40
        E 2 9d 31 64
        E 94 8d 31 40
        E 2 9d 2f 64
        E 94 8d 2f 40
        E 2 9d 31 64
        E 94 8d 31 40
        E 2 9d 32 64
        E 94 8d 32 40
        E 2 9d 31 64
        E 94 8d 31 40
        E 2 9d 2a 64
        E 190 8d 2a 40
        E 2 9d 39 64
        E 94 8d 39 40
        E 2 9d 36 64
        E 94 8d 36 40
        E 2 9d 38 64
        E 94 8d 38 40
        E 2 9d 39 64
        E 94 8d 39 40
        E 2 9d 3b 64
        E 94 8d 3b 40
        E 2 9d 2f 64
        E 94 8d 2f 40
        E 2 9d 31 64
        E 94 8d 31 40
        E 2 9d 32 64
        E 94 8d 32 40
        E 2 9d 34 64
        E 94 8d 34 40
        E 2 9d 31 64
        E 94 8d 31 40
        E 2 9d 32 64
        E 94 8d 32 40
        E 2 9d 34 64
        E 94 8d 34 40
        E 2 9d 36 64
        E 94 8d 36 40
        E 2 9d 2d 64
        E 94 8d 2d 40
        E 2 9d 2f 64
        E 94 8d 2f 40
        E 2 9d 31 64
        E 94 8d 31 40
        E 2 9d 32 64
        E 94 8d 32 40
        E 2 9d 31 64
        E 94 8d 31 40
        E 2 9d 2f 64
        E 94 8d 2f 40
        E 2 9d 31 64
        E 94 8d 31 40
        E 2 9d 32 64
        E 94 8d 32 40
        E 2 9d 31 64
        E 94 8d 31 40
        E 2 9d 2a 64
        E 575 8d 2a 40
        E 1 b0 7b 00
        GUID {FEC44394-8345-7B44-91B0-C8FFD41B867E}
        IGNTEMPO 0 120 4 4
        SRCCOLOR 621
        VELLANE -1 86 6
        CFGEDITVIEW -899.303226 23.057851 50 16 0 0 0 0 0
        KEYSNAP 0 3 102304056070 0 "Natural minor"
        TRACKSEL 226 0 0 ""
        EVTFILTER 0 -1 -1 -1 -1 0 0 0 0 -1 -1 -1 -1 0 -1 0 -1 -1
        CFGEDIT 1 1 0 0 0 0 1 0 1 1 1 0.25 506 494 1014 762 1 0 1 3 0 0 0 0 0 -1 0 0 1 64
      >
      TAKE
      NAME "lh                   - National_Anthems_-_Czech_Republic.mid"
      TAKEVOLPAN 0 1 -1
      SOFFS 0 0
      PLAYRATE 1 1 0 -1 0 0.0025
      CHANMODE 0
      GUID {B707DABB-9E6F-9342-90AA-7589B09A6FB4}
      <SOURCE MIDI
        HASDATA 1 192 QN
        POOLEDEVTS {AE21125C-9DF7-B148-8E33-6D70AB3DCFE4}
        <X 0 0
          /wNsaCAgICAgICAgICAgICAgICAgIA==
        >
        E 0 9d 26 64
        E 0 9d 32 64
        E 190 8d 26 40
        E 0 8d 32 40
        E 2 9d 39 64
        E 0 9d 36 64
        E 0 9d 32 64
        E 382 8d 39 40
        E 0 8d 36 40
        E 0 8d 32 40
        E 2 9d 3b 64
        E 0 9d 32 64
        E 0 9d 37 64
        E 94 8d 3b 40
        E 0 8d 32 40
        E 0 8d 37 40
        E 2 9d 39 64
        E 0 9d 36 64
        E 0 9d 32 64
        E 94 8d 39 40
        E 0 8d 36 40
        E 0 8d 32 40
        E 2 9d 37 64
        E 0 9d 34 64
        E 190 8d 37 40
        E 0 8d 34 40
        E 2 9d 2d 64
        E 382 8d 2d 40
        E 2 9d 2d 64
        E 190 8d 2d 40
        E 2 9d 32 64
        E 190 8d 32 40
        E 2 9d 30 64
        E 190 8d 30 40
        E 2 9d 2f 64
        E 190 8d 2f 40
        E 2 9d 2d 64
        E 190 8d 2d 40
        E 2 9d 2b 64
        E 190 8d 2b 40
        E 2 9d 2a 64
        E 190 8d 2a 40
        E 2 9d 28 64
        E 190 8d 28 40
        E 2 9d 2a 64
        E 94 8d 2a 40
        E 2 9d 2b 64
        E 94 8d 2b 40
        E 2 9d 2a 64
        E 190 8d 2a 40
        E 2 9d 2f 64
        E 190 8d 2f 40
        E 2 9d 32 64
        E 190 8d 32 40
        E 2 9d 30 64
        E 190 8d 30 40
        E 2 9d 2f 64
        E 190 8d 2f 40
        E 2 9d 2b 64
        E 190 8d 2b 40
        E 2 9d 28 64
        E 190 8d 28 40
        E 2 9d 29 64
        E 190 8d 29 40
        E 2 9d 2a 64
        E 94 8d 2a 40
        E 2 9d 31 64
        E 94 8d 31 40
        E 2 9d 36 64
        E 94 8d 36 40
        E 2 9d 38 64
        E 94 8d 38 40
        E 2 9d 39 64
        E 190 8d 39 40
        E 2 9d 36 64
        E 190 8d 36 40
        E 2 9d 34 64
        E 94 8d 34 40
        E 2 9d 2d 64
        E 94 8d 2d 40
        E 2 9d 31 64
        E 94 8d 31 40
        E 2 9d 34 64
        E 94 8d 34 40
        E 2 9d 39 64
        E 190 8d 39 40
        E 2 9d 2d 64
        E 190 8d 2d 40
        E 2 9d 26 64
        E 94 8d 26 40
        E 2 9d 2d 64
        E 94 8d 2d 40
        E 2 9d 32 64
        E 94 8d 32 40
        E 2 9d 34 64
        E 94 8d 34 40
        E 2 9d 36 64
        E 190 8d 36 40
        E 2 9d 32 64
        E 190 8d 32 40
        E 2 9d 34 64
        E 94 8d 34 40
        E 2 9d 2d 64
        E 94 8d 2d 40
        E 2 9d 31 64
        E 94 8d 31 40
        E 2 9d 34 64
        E 94 8d 34 40
        E 2 9d 39 64
        E 190 8d 39 40
        E 2 9d 2d 64
        E 190 8d 2d 40
        E 2 9d 26 64
        E 94 8d 26 40
        E 2 9d 2d 64
        E 94 8d 2d 40
        E 2 9d 32 64
        E 94 8d 32 40
        E 2 9d 34 64
        E 94 8d 34 40
        E 2 9d 36 64
        E 94 8d 36 40
        E 2 9d 34 64
        E 94 8d 34 40
        E 2 9d 32 64
        E 94 8d 32 40
        E 2 9d 31 64
        E 94 8d 31 40
        E 2 9d 2f 64
        E 94 8d 2f 40
        E 2 9d 2a 64
        E 94 8d 2a 40
        E 2 9d 2f 64
        E 94 8d 2f 40
        E 2 9d 32 64
        E 94 8d 32 40
        E 2 9d 31 64
        E 190 8d 31 40
        E 2 9d 2a 64
        E 190 8d 2a 40
        E 2 9d 2f 64
        E 94 8d 2f 40
        E 2 9d 2a 64
        E 94 8d 2a 40
        E 2 9d 2f 64
        E 94 8d 2f 40
        E 2 9d 32 64
        E 94 8d 32 40
        E 2 9d 36 64
        E 190 8d 36 40
        E 2 9d 34 64
        E 94 8d 34 40
        E 2 9d 32 64
        E 94 8d 32 40
        E 2 9d 31 64
        E 190 8d 31 40
        E 2 9d 34 64
        E 190 8d 34 40
        E 2 9d 2d 64
        E 190 8d 2d 40
        E 2 9d 34 64
        E 190 8d 34 40
        E 2 9d 2f 64
        E 94 8d 2f 40
        E 2 9d 32 64
        E 94 8d 32 40
        E 2 9d 36 64
        E 94 8d 36 40
        E 2 9d 3b 64
        E 94 8d 3b 40
        E 2 9d 3e 64
        E 190 8d 3e 40
        E 2 9d 2b 64
        E 190 8d 2b 40
        E 2 9d 2f 64
        E 94 8d 2f 40
        E 2 9d 32 64
        E 94 8d 32 40
        E 2 9d 36 64
        E 94 8d 36 40
        E 2 9d 32 64
        E 94 8d 32 40
        E 2 9d 39 64
        E 190 8d 39 40
        E 2 9d 2d 64
        E 190 8d 2d 40
        E 2 9d 32 64
        E 94 8d 32 40
        E 2 9d 2d 64
        E 94 8d 2d 40
        E 2 9d 2a 64
        E 94 8d 2a 40
        E 2 9d 2d 64
        E 94 8d 2d 40
        E 2 9d 26 64
        E 382 8d 26 40
        E 194 9d 2a 64
        E 94 8d 2a 40
        E 2 9d 2c 64
        E 94 8d 2c 40
        E 2 9d 2d 64
        E 190 8d 2d 40
        E 2 9d 2f 64
        E 94 8d 2f 40
        E 2 9d 31 64
        E 94 8d 31 40
        E 2 9d 32 64
        E 94 8d 32 40
        E 2 9d 31 64
        E 94 8d 31 40
        E 2 9d 2f 64
        E 94 8d 2f 40
        E 2 9d 31 64
        E 94 8d 31 40
        E 2 9d 32 64
        E 94 8d 32 40
        E 2 9d 31 64
        E 94 8d 31 40
        E 2 9d 36 64
        E 190 8d 36 40
        E 194 9d 2d 64
        E 94 8d 2d 40
        E 2 9d 2f 64
        E 94 8d 2f 40
        E 2 9d 31 64
        E 190 8d 31 40
        E 2 9d 32 64
        E 94 8d 32 40
        E 2 9d 34 64
        E 94 8d 34 40
        E 2 9d 36 64
        E 94 8d 36 40
        E 2 9d 34 64
        E 94 8d 34 40
        E 2 9d 32 64
        E 94 8d 32 40
        E 2 9d 34 64
        E 94 8d 34 40
        E 2 9d 36 64
        E 94 8d 36 40
        E 2 9d 34 64
        E 94 8d 34 40
        E 2 9d 39 64
        E 190 8d 39 40
        E 2 9d 39 64
        E 94 8d 39 40
        E 2 9d 36 64
        E 94 8d 36 40
        E 2 9d 38 64
        E 94 8d 38 40
        E 2 9d 39 64
        E 94 8d 39 40
        E 2 9d 3b 64
        E 94 8d 3b 40
        E 2 9d 2f 64
        E 94 8d 2f 40
        E 2 9d 31 64
        E 94 8d 31 40
        E 2 9d 32 64
        E 94 8d 32 40
        E 2 9d 34 64
        E 94 8d 34 40
        E 2 9d 31 64
        E 94 8d 31 40
        E 2 9d 32 64
        E 94 8d 32 40
        E 2 9d 34 64
        E 94 8d 34 40
        E 2 9d 36 64
        E 94 8d 36 40
        E 2 9d 2d 64
        E 94 8d 2d 40
        E 2 9d 2f 64
        E 94 8d 2f 40
        E 2 9d 31 64
        E 94 8d 31 40
        E 2 9d 32 64
        E 94 8d 32 40
        E 2 9d 31 64
        E 94 8d 31 40
        E 2 9d 2f 64
        E 94 8d 2f 40
        E 2 9d 31 64
        E 94 8d 31 40
        E 2 9d 32 64
        E 94 8d 32 40
        E 2 9d 31 64
        E 94 8d 31 40
        E 2 9d 2a 64
        E 190 8d 2a 40
        E 2 9d 39 64
        E 94 8d 39 40
        E 2 9d 36 64
        E 94 8d 36 40
        E 2 9d 38 64
        E 94 8d 38 40
        E 2 9d 39 64
        E 94 8d 39 40
        E 2 9d 3b 64
        E 94 8d 3b 40
        E 2 9d 2f 64
        E 94 8d 2f 40
        E 2 9d 31 64
        E 94 8d 31 40
        E 2 9d 32 64
        E 94 8d 32 40
        E 2 9d 34 64
        E 94 8d 34 40
        E 2 9d 31 64
        E 94 8d 31 40
        E 2 9d 32 64
        E 94 8d 32 40
        E 2 9d 34 64
        E 94 8d 34 40
        E 2 9d 36 64
        E 94 8d 36 40
        E 2 9d 2d 64
        E 94 8d 2d 40
        E 2 9d 2f 64
        E 94 8d 2f 40
        E 2 9d 31 64
        E 94 8d 31 40
        E 2 9d 32 64
        E 94 8d 32 40
        E 2 9d 31 64
        E 94 8d 31 40
        E 2 9d 2f 64
        E 94 8d 2f 40
        E 2 9d 31 64
        E 94 8d 31 40
        E 2 9d 32 64
        E 94 8d 32 40
        E 2 9d 31 64
        E 94 8d 31 40
        E 2 9d 2a 64
        E 575 8d 2a 40
        E 1 b0 7b 00
        GUID {122165D8-0A25-B64E-B65B-F17FAB496BA0}
        IGNTEMPO 0 120 4 4
        SRCCOLOR 675
        VELLANE -1 86 6
      >
    >
    <ITEM
      POSITION 0
      SNAPOFFS 0
      LENGTH 55
      LOOP 1
      ALLTAKES 0
      FADEIN 1 0 0 1 0 0
      FADEOUT 1 0 0 1 0 0
      MUTE 0
      SEL 0
      YPOS 0.222222 0.111111
      IGUID {F3A46F50-3D61-E244-B3AF-0CC481218FC7}
      IID 3
      NAME "Accomp. LH           - National_Anthems_-_Czech_Republic.mid"
      VOLPAN 1 0 1 -1
      SOFFS 0 0
      PLAYRATE 1 1 0 -1 0 0.0025
      CHANMODE 0
      TAKECOLOR 26173599
      GUID {0A050380-643E-874E-ACC4-2D63F606B633}
      <SOURCE MIDI
        HASDATA 1 192 QN
        POOLEDEVTS {88D74267-C0C7-8743-89CD-261C6DA98D20}
        <X 0 0
          /wNBY2NvbXAuIExIICAgICAgICAgIA==
        >
        e 0 92 26 64
        e 0 92 32 64
        e 190 82 26 40
        e 0 82 32 40
        e 2 92 32 64
        e 0 92 36 64
        e 0 92 39 64
        e 382 82 32 40
        e 0 82 36 40
        e 0 82 39 40
        e 2 92 32 64
        e 0 92 37 64
        e 0 92 3b 64
        e 94 82 32 40
        e 0 82 37 40
        e 0 82 3b 40
        e 2 92 32 64
        e 0 92 36 64
        e 0 92 39 64
        e 94 82 32 40
        e 0 82 36 40
        e 0 82 39 40
        e 2 92 34 64
        e 0 92 37 64
        e 190 82 34 40
        e 0 82 37 40
        e 2 92 2d 64
        e 382 82 2d 40
        e 2 92 2d 64
        e 190 82 2d 40
        e 2 92 32 64
        e 190 82 32 40
        e 2 92 30 64
        e 190 82 30 40
        e 2 92 2f 64
        e 190 82 2f 40
        e 2 92 2d 64
        e 190 82 2d 40
        e 2 92 2b 64
        e 190 82 2b 40
        e 2 92 2a 64
        e 190 82 2a 40
        e 2 92 28 64
        e 190 82 28 40
        e 2 92 2a 64
        e 94 82 2a 40
        e 2 92 2b 64
        e 94 82 2b 40
        e 2 92 2a 64
        e 190 82 2a 40
        e 2 92 2f 64
        e 190 82 2f 40
        e 2 92 32 64
        e 190 82 32 40
        e 2 92 30 64
        e 190 82 30 40
        e 2 92 2f 64
        e 190 82 2f 40
        e 2 92 2b 64
        e 190 82 2b 40
        e 2 92 28 64
        e 190 82 28 40
        e 2 92 29 64
        e 190 82 29 40
        e 2 92 2a 64
        e 94 82 2a 40
        e 2 92 31 64
        e 94 82 31 40
        e 2 92 36 64
        e 94 82 36 40
        e 2 92 38 64
        e 94 82 38 40
        e 2 92 39 64
        e 190 82 39 40
        e 2 92 36 64
        e 190 82 36 40
        e 2 92 34 64
        e 94 82 34 40
        e 2 92 2d 64
        e 94 82 2d 40
        e 2 92 31 64
        e 94 82 31 40
        e 2 92 34 64
        e 94 82 34 40
        e 2 92 39 64
        e 190 82 39 40
        e 2 92 2d 64
        e 190 82 2d 40
        e 2 92 26 64
        e 94 82 26 40
        e 2 92 2d 64
        e 94 82 2d 40
        e 2 92 32 64
        e 94 82 32 40
        e 2 92 34 64
        e 94 82 34 40
        e 2 92 36 64
        e 190 82 36 40
        e 2 92 32 64
        e 190 82 32 40
        e 2 92 34 64
        e 94 82 34 40
        e 2 92 2d 64
        e 94 82 2d 40
        e 2 92 31 64
        e 94 82 31 40
        e 2 92 34 64
        e 94 82 34 40
        e 2 92 39 64
        e 190 82 39 40
        e 2 92 2d 64
        e 190 82 2d 40
        e 2 92 26 64
        e 94 82 26 40
        e 2 92 2d 64
        e 94 82 2d 40
        e 2 92 32 64
        e 94 82 32 40
        e 2 92 34 64
        e 94 82 34 40
        e 2 92 36 64
        e 94 82 36 40
        e 2 92 34 64
        e 94 82 34 40
        e 2 92 32 64
        e 94 82 32 40
        e 2 92 31 64
        e 94 82 31 40
        e 2 92 2f 64
        e 94 82 2f 40
        e 2 92 2a 64
        e 94 82 2a 40
        e 2 92 2f 64
        e 94 82 2f 40
        e 2 92 32 64
        e 94 82 32 40
        e 2 92 31 64
        e 190 82 31 40
        e 2 92 2a 64
        e 190 82 2a 40
        e 2 92 2f 64
        e 94 82 2f 40
        e 2 92 2a 64
        e 94 82 2a 40
        e 2 92 2f 64
        e 94 82 2f 40
        e 2 92 32 64
        e 94 82 32 40
        e 2 92 36 64
        e 190 82 36 40
        e 2 92 34 64
        e 94 82 34 40
        e 2 92 32 64
        e 94 82 32 40
        e 2 92 31 64
        e 190 82 31 40
        e 2 92 34 64
        e 190 82 34 40
        e 2 92 2d 64
        e 190 82 2d 40
        e 2 92 34 64
        e 190 82 34 40
        e 2 92 2f 64
        e 94 82 2f 40
        e 2 92 32 64
        e 94 82 32 40
        e 2 92 36 64
        e 94 82 36 40
        e 2 92 3b 64
        e 94 82 3b 40
        e 2 92 3e 64
        e 190 82 3e 40
        e 2 92 2b 64
        e 190 82 2b 40
        e 2 92 2f 64
        e 94 82 2f 40
        e 2 92 32 64
        e 94 82 32 40
        e 2 92 36 64
        e 94 82 36 40
        e 2 92 32 64
        e 94 82 32 40
        e 2 92 39 64
        e 190 82 39 40
        e 2 92 2d 64
        e 190 82 2d 40
        e 2 92 32 64
        e 94 82 32 40
        e 2 92 2d 64
        e 94 82 2d 40
        e 2 92 2a 64
        e 94 82 2a 40
        e 2 92 2d 64
        e 94 82 2d 40
        e 2 92 26 64
        e 382 82 26 40
        e 194 92 2a 64
        e 94 82 2a 40
        e 2 92 2c 64
        e 94 82 2c 40
        e 2 92 2d 64
        e 190 82 2d 40
        e 2 92 2f 64
        e 94 82 2f 40
        e 2 92 31 64
        e 94 82 31 40
        e 2 92 32 64
        e 94 82 32 40
        e 2 92 31 64
        e 94 82 31 40
        e 2 92 2f 64
        e 94 82 2f 40
        e 2 92 31 64
        e 94 82 31 40
        e 2 92 32 64
        e 94 82 32 40
        e 2 92 31 64
        e 94 82 31 40
        e 2 92 36 64
        e 190 82 36 40
        e 194 92 2d 64
        e 94 82 2d 40
        e 2 92 2f 64
        e 94 82 2f 40
        e 2 92 31 64
        e 190 82 31 40
        e 2 92 32 64
        e 94 82 32 40
        e 2 92 34 64
        e 94 82 34 40
        e 2 92 36 64
        e 94 82 36 40
        e 2 92 34 64
        e 94 82 34 40
        e 2 92 32 64
        e 94 82 32 40
        e 2 92 34 64
        e 94 82 34 40
        e 2 92 36 64
        e 94 82 36 40
        e 2 92 34 64
        e 94 82 34 40
        e 2 92 39 64
        e 190 82 39 40
        e 2 92 39 64
        e 94 82 39 40
        e 2 92 36 64
        e 94 82 36 40
        e 2 92 38 64
        e 94 82 38 40
        e 2 92 39 64
        e 94 82 39 40
        e 2 92 3b 64
        e 94 82 3b 40
        e 2 92 2f 64
        e 94 82 2f 40
        e 2 92 31 64
        e 94 82 31 40
        e 2 92 32 64
        e 94 82 32 40
        e 2 92 34 64
        e 94 82 34 40
        e 2 92 31 64
        e 94 82 31 40
        e 2 92 32 64
        e 94 82 32 40
        e 2 92 34 64
        e 94 82 34 40
        e 2 92 36 64
        e 94 82 36 40
        e 2 92 2d 64
        e 94 82 2d 40
        e 2 92 2f 64
        e 94 82 2f 40
        e 2 92 31 64
        e 94 82 31 40
        e 2 92 32 64
        e 94 82 32 40
        e 2 92 31 64
        e 94 82 31 40
        e 2 92 2f 64
        e 94 82 2f 40
        e 2 92 31 64
        e 94 82 31 40
        e 2 92 32 64
        e 94 82 32 40
        e 2 92 31 64
        e 94 82 31 40
        e 2 92 2a 64
        e 190 82 2a 40
        e 2 92 39 64
        e 94 82 39 40
        e 2 92 36 64
        e 94 82 36 40
        e 2 92 38 64
        e 94 82 38 40
        e 2 92 39 64
        e 94 82 39 40
        e 2 92 3b 64
        e 94 82 3b 40
        e 2 92 2f 64
        e 94 82 2f 40
        e 2 92 31 64
        e 94 82 31 40
        e 2 92 32 64
        e 94 82 32 40
        e 2 92 34 64
        e 94 82 34 40
        e 2 92 31 64
        e 94 82 31 40
        e 2 92 32 64
        e 94 82 32 40
        e 2 92 34 64
        e 94 82 34 40
        e 2 92 36 64
        e 94 82 36 40
        e 2 92 2d 64
        e 94 82 2d 40
        e 2 92 2f 64
        e 94 82 2f 40
        e 2 92 31 64
        e 94 82 31 40
        e 2 92 32 64
        e 94 82 32 40
        e 2 92 31 64
        e 94 82 31 40
        e 2 92 2f 64
        e 94 82 2f 40
        e 2 92 31 64
        e 94 82 31 40
        e 2 92 32 64
        e 94 82 32 40
        e 2 92 31 64
        e 94 82 31 40
        e 2 92 2a 64
        e 575 82 2a 40
        E 1 b0 7b 00
        GUID {2C2BF260-3948-ED4E-822A-5A50A8136B1D}
        IGNTEMPO 0 120 4 4
        SRCCOLOR 615
        VELLANE -1 86 6
        CFGEDITVIEW -899.303226 23.057851 50 16 0 0 0 0 0
        KEYSNAP 0 3 102304056070 0 "Natural minor"
        TRACKSEL 226 0 0 ""
        EVTFILTER 0 -1 -1 -1 -1 0 0 0 0 -1 -1 -1 -1 0 -1 0 -1 -1
        CFGEDIT 1 1 0 0 0 0 1 0 1 1 1 0.25 506 494 1014 762 1 0 1 3 0 0 0 0 0 -1 0 0 1 64
      >
      TAKE
      NAME "Accomp. LH           - National_Anthems_-_Czech_Republic.mid"
      TAKEVOLPAN 0 1 -1
      SOFFS 0 0
      PLAYRATE 1 1 0 -1 0 0.0025
      CHANMODE 0
      GUID {7954F2EF-4F15-E048-B8E9-D980E715CCEC}
      <SOURCE MIDI
        HASDATA 1 192 QN
        POOLEDEVTS {C44F7445-1AED-4040-8CD0-03CB1B45E29B}
        <X 0 0
          /wNBY2NvbXAuIExIICAgICAgICAgIA==
        >
        E 0 92 26 64
        E 0 92 32 64
        E 190 82 26 40
        E 0 82 32 40
        E 2 92 39 64
        E 0 92 36 64
        E 0 92 32 64
        E 382 82 39 40
        E 0 82 36 40
        E 0 82 32 40
        E 2 92 3b 64
        E 0 92 32 64
        E 0 92 37 64
        E 94 82 3b 40
        E 0 82 32 40
        E 0 82 37 40
        E 2 92 39 64
        E 0 92 36 64
        E 0 92 32 64
        E 94 82 39 40
        E 0 82 36 40
        E 0 82 32 40
        E 2 92 37 64
        E 0 92 34 64
        E 190 82 37 40
        E 0 82 34 40
        E 2 92 2d 64
        E 382 82 2d 40
        E 2 92 2d 64
        E 190 82 2d 40
        E 2 92 32 64
        E 190 82 32 40
        E 2 92 30 64
        E 190 82 30 40
        E 2 92 2f 64
        E 190 82 2f 40
        E 2 92 2d 64
        E 190 82 2d 40
        E 2 92 2b 64
        E 190 82 2b 40
        E 2 92 2a 64
        E 190 82 2a 40
        E 2 92 28 64
        E 190 82 28 40
        E 2 92 2a 64
        E 94 82 2a 40
        E 2 92 2b 64
        E 94 82 2b 40
        E 2 92 2a 64
        E 190 82 2a 40
        E 2 92 2f 64
        E 190 82 2f 40
        E 2 92 32 64
        E 190 82 32 40
        E 2 92 30 64
        E 190 82 30 40
        E 2 92 2f 64
        E 190 82 2f 40
        E 2 92 2b 64
        E 190 82 2b 40
        E 2 92 28 64
        E 190 82 28 40
        E 2 92 29 64
        E 190 82 29 40
        E 2 92 2a 64
        E 94 82 2a 40
        E 2 92 31 64
        E 94 82 31 40
        E 2 92 36 64
        E 94 82 36 40
        E 2 92 38 64
        E 94 82 38 40
        E 2 92 39 64
        E 190 82 39 40
        E 2 92 36 64
        E 190 82 36 40
        E 2 92 34 64
        E 94 82 34 40
        E 2 92 2d 64
        E 94 82 2d 40
        E 2 92 31 64
        E 94 82 31 40
        E 2 92 34 64
        E 94 82 34 40
        E 2 92 39 64
        E 190 82 39 40
        E 2 92 2d 64
        E 190 82 2d 40
        E 2 92 26 64
        E 94 82 26 40
        E 2 92 2d 64
        E 94 82 2d 40
        E 2 92 32 64
        E 94 82 32 40
        E 2 92 34 64
        E 94 82 34 40
        E 2 92 36 64
        E 190 82 36 40
        E 2 92 32 64
        E 190 82 32 40
        E 2 92 34 64
        E 94 82 34 40
        E 2 92 2d 64
        E 94 82 2d 40
        E 2 92 31 64
        E 94 82 31 40
        E 2 92 34 64
        E 94 82 34 40
        E 2 92 39 64
        E 190 82 39 40
        E 2 92 2d 64
        E 190 82 2d 40
        E 2 92 26 64
        E 94 82 26 40
        E 2 92 2d 64
        E 94 82 2d 40
        E 2 92 32 64
        E 94 82 32 40
        E 2 92 34 64
        E 94 82 34 40
        E 2 92 36 64
        E 94 82 36 40
        E 2 92 34 64
        E 94 82 34 40
        E 2 92 32 64
        E 94 82 32 40
        E 2 92 31 64
        E 94 82 31 40
        E 2 92 2f 64
        E 94 82 2f 40
        E 2 92 2a 64
        E 94 82 2a 40
        E 2 92 2f 64
        E 94 82 2f 40
        E 2 92 32 64
        E 94 82 32 40
        E 2 92 31 64
        E 190 82 31 40
        E 2 92 2a 64
        E 190 82 2a 40
        E 2 92 2f 64
        E 94 82 2f 40
        E 2 92 2a 64
        E 94 82 2a 40
        E 2 92 2f 64
        E 94 82 2f 40
        E 2 92 32 64
        E 94 82 32 40
        E 2 92 36 64
        E 190 82 36 40
        E 2 92 34 64
        E 94 82 34 40
        E 2 92 32 64
        E 94 82 32 40
        E 2 92 31 64
        E 190 82 31 40
        E 2 92 34 64
        E 190 82 34 40
        E 2 92 2d 64
        E 190 82 2d 40
        E 2 92 34 64
        E 190 82 34 40
        E 2 92 2f 64
        E 94 82 2f 40
        E 2 92 32 64
        E 94 82 32 40
        E 2 92 36 64
        E 94 82 36 40
        E 2 92 3b 64
        E 94 82 3b 40
        E 2 92 3e 64
        E 190 82 3e 40
        E 2 92 2b 64
        E 190 82 2b 40
        E 2 92 2f 64
        E 94 82 2f 40
        E 2 92 32 64
        E 94 82 32 40
        E 2 92 36 64
        E 94 82 36 40
        E 2 92 32 64
        E 94 82 32 40
        E 2 92 39 64
        E 190 82 39 40
        E 2 92 2d 64
        E 190 82 2d 40
        E 2 92 32 64
        E 94 82 32 40
        E 2 92 2d 64
        E 94 82 2d 40
        E 2 92 2a 64
        E 94 82 2a 40
        E 2 92 2d 64
        E 94 82 2d 40
        E 2 92 26 64
        E 382 82 26 40
        E 194 92 2a 64
        E 94 82 2a 40
        E 2 92 2c 64
        E 94 82 2c 40
        E 2 92 2d 64
        E 190 82 2d 40
        E 2 92 2f 64
        E 94 82 2f 40
        E 2 92 31 64
        E 94 82 31 40
        E 2 92 32 64
        E 94 82 32 40
        E 2 92 31 64
        E 94 82 31 40
        E 2 92 2f 64
        E 94 82 2f 40
        E 2 92 31 64
        E 94 82 31 40
        E 2 92 32 64
        E 94 82 32 40
        E 2 92 31 64
        E 94 82 31 40
        E 2 92 36 64
        E 190 82 36 40
        E 194 92 2d 64
        E 94 82 2d 40
        E 2 92 2f 64
        E 94 82 2f 40
        E 2 92 31 64
        E 190 82 31 40
        E 2 92 32 64
        E 94 82 32 40
        E 2 92 34 64
        E 94 82 34 40
        E 2 92 36 64
        E 94 82 36 40
        E 2 92 34 64
        E 94 82 34 40
        E 2 92 32 64
        E 94 82 32 40
        E 2 92 34 64
        E 94 82 34 40
        E 2 92 36 64
        E 94 82 36 40
        E 2 92 34 64
        E 94 82 34 40
        E 2 92 39 64
        E 190 82 39 40
        E 2 92 39 64
        E 94 82 39 40
        E 2 92 36 64
        E 94 82 36 40
        E 2 92 38 64
        E 94 82 38 40
        E 2 92 39 64
        E 94 82 39 40
        E 2 92 3b 64
        E 94 82 3b 40
        E 2 92 2f 64
        E 94 82 2f 40
        E 2 92 31 64
        E 94 82 31 40
        E 2 92 32 64
        E 94 82 32 40
        E 2 92 34 64
        E 94 82 34 40
        E 2 92 31 64
        E 94 82 31 40
        E 2 92 32 64
        E 94 82 32 40
        E 2 92 34 64
        E 94 82 34 40
        E 2 92 36 64
        E 94 82 36 40
        E 2 92 2d 64
        E 94 82 2d 40
        E 2 92 2f 64
        E 94 82 2f 40
        E 2 92 31 64
        E 94 82 31 40
        E 2 92 32 64
        E 94 82 32 40
        E 2 92 31 64
        E 94 82 31 40
        E 2 92 2f 64
        E 94 82 2f 40
        E 2 92 31 64
        E 94 82 31 40
        E 2 92 32 64
        E 94 82 32 40
        E 2 92 31 64
        E 94 82 31 40
        E 2 92 2a 64
        E 190 82 2a 40
        E 2 92 39 64
        E 94 82 39 40
        E 2 92 36 64
        E 94 82 36 40
        E 2 92 38 64
        E 94 82 38 40
        E 2 92 39 64
        E 94 82 39 40
        E 2 92 3b 64
        E 94 82 3b 40
        E 2 92 2f 64
        E 94 82 2f 40
        E 2 92 31 64
        E 94 82 31 40
        E 2 92 32 64
        E 94 82 32 40
        E 2 92 34 64
        E 94 82 34 40
        E 2 92 31 64
        E 94 82 31 40
        E 2 92 32 64
        E 94 82 32 40
        E 2 92 34 64
        E 94 82 34 40
        E 2 92 36 64
        E 94 82 36 40
        E 2 92 2d 64
        E 94 82 2d 40
        E 2 92 2f 64
        E 94 82 2f 40
        E 2 92 31 64
        E 94 82 31 40
        E 2 92 32 64
        E 94 82 32 40
        E 2 92 31 64
        E 94 82 31 40
        E 2 92 2f 64
        E 94 82 2f 40
        E 2 92 31 64
        E 94 82 31 40
        E 2 92 32 64
        E 94 82 32 40
        E 2 92 31 64
        E 94 82 31 40
        E 2 92 2a 64
        E 575 82 2a 40
        E 1 b0 7b 00
        GUID {CA709507-5833-8C48-BD02-8F083C43C279}
        IGNTEMPO 0 120 4 4
        SRCCOLOR 673
        VELLANE -1 86 6
      >
    >
  >
  <TRACK {4A6CD977-ADCC-3A4D-927C-BB2CEF4B0809}
    NAME "vst Gladiator"
    PEAKCOL 27222112
    BEAT -1
    AUTOMODE 0
    VOLPAN 0.46976747615165 0 -1 -1 1
    MUTESOLO 0 0 0
    IPHASE 0
    ISBUS 0 0
    BUSCOMP 2 0
    SHOWINMIX 1 0.6667 0.5 1 0.5 -1 -1 -1
    FREEMODE 0
    SEL 0
    REC 0 0 0 0 0 0 0
    VU 2
    TRACKHEIGHT 0 0
    INQ 0 0 0 0.5 100 0 0 100
    NCHAN 2
    FX 1
    TRACKID {4A6CD977-ADCC-3A4D-927C-BB2CEF4B0809}
    PERF 0
    MIDIOUT -1
    MAINSEND 1 0
    <FXCHAIN
      SHOW 0
      LASTSEL 0
      DOCKED 0
      BYPASS 0 0 0
      <VST "VSTi: Gladiator (Tone2.com)" Gladiator.vst 0 "" 1412581196
        TEcyVO5e7f4AAAAAAgAAAAEAAAAAAAAAAgAAAAAAAABaBAAAAQAAAAAAEABDY25LAAAAYEZ4Q2sAAAABVDJHTAAAAAEAAAEHSW5pdAAAAAAAAAAAAAAAAAAAAAAAAAAA
        AAAAAD3MzM08zMzNPDQ5WD24UfQ9edsjP4AAADvEm6Y9vnbJP4AAADvEm6YAAAAAPqZmZj49cKQ/gAAAPsUeuT8AAAA/AAAAAAAAAD1987Y90OVgPLxqfz9FHrgAAAAA
        P4AAADw0OVg9kWhzPvXCjztEm6Y9uFHoPr1wpD49cKQ/gAAAPwAAAD8D1ws/AAAAAAAAAAAAAAA/AAAAPwAAAD8AAAA+2ZmaPwAAAAAAAAA75WBCPbhR6wAAAAA+TbXE
        O0Sbpj9LhR4AAAAAAAAAAD7rhSA+lHrhPWFHsD7PXCg/HrhSPj1wpj8AAAA/AAAAAAAAAAAAAAA/AAAAAAAAAAAAAAA/gAAAP4AAAAAAAAA/EeuFPwAAAD8AAAA/AAAA
        PwAAAAAAAAA/AAAAPwAAAD8AAAAAAAAAPwAAAD8AAAA/AAAAAAAAADqDEm8/UKPXAAAAAD+AAAAAAAAAOoMSbz8AAAAAAAAAAAAAAAAAAAA/AAAAAAAAAD+AAAAAAAAA
        P4AAAAAAAAA/AAAAPwAAAD8AAAA/AAAAPwAAAD8AAAA/AAAAPwAAAD8AAAA/AAAAPwAAAD8R64Y8o9cKOoMSbzxEm6YAAAAAAAAAAAAAAAA8vGp/AAAAAAAAAAAAAAAA
        AAAAAAAAAAAAAAAAAAAAAAAAAAAAAAAAAAAAAAAAAAAAAAAAAAAAAAAAAAAAAAAAAAAAADwTdLwAAAAAPDQ5WAAAAAA8E3S8AAAAADw0OVgAAAAAPBN0vAAAAAA8NDlY
        AAAAADwTdLwAAAAAPDQ5WAAAAAA8ZWBCPYcrAjxlYEI7AxJvPYk3TDsDEm88tDlYPItDljyTdLw9VP30PReNUDzMzM0+gAAAP3LCNT8AAAA/Uae5PzCNPj8csI0AAAAA
        OwMSbzqDEm8AAAAAAAAAAAAAAAA/AAAAOoMSbztEm6Y/gAAAAAAAAD+AAAAAAAAAP4AAAAAAAAAAAAAAAAAAAAAAAAA/gAAAAAAAAD8AAAAAAAAAPwAAAD8FHrg/AAAA
        P4AAAD8AAAA/AAAAPwAAAD+AAAA/gAAAAAAAAAAAAAAAAAAAPwAAAD+AAAA/AAAAAAAAAD69cKQAAAAAAAAAAD+AAAA/gAAAPyPXCj+AAAAAAAAAAAAAAD+AAAA/AAAA
        AAAAAAAAAAAAAAAAAAAAAAAAAAAAAAAAAAAAAAAAAAAAAAAAAAAAAAAAAAAAAAAAPwAAAD8AAAA/AAAAPwAAAD8AAAA/AAAAAAAAAAAAAAA/gAAAAAAAAAAAAAAAAAAA
        AAAAAAAAAAAAAAAAAAAAAAAAAAAAAAAAAAAAAAAAAAAAAAAAAAAAAAAAAAAAAAAAAAAAAAAAAAAAAAAAAAAAAAAAAAAAAAAAAAAAAAAAAAAAAAAAAAAAAAAAAAAAAAAA
        AACqq6ytAAAQAAAA
      >
      FLOATPOS 500 379 987 799
      FXID {532372E3-5B0D-9345-A9C8-98A8EBAF9A7E}
      WAK 0
    >
    <ITEM
      POSITION 0
      SNAPOFFS 0
      LENGTH 55
      LOOP 1
      ALLTAKES 0
      FADEIN 1 0 0 1 0 0
      FADEOUT 1 0 0 1 0 0
      MUTE 0
      SEL 1
      YPOS 0.111111 0.111111
      IGUID {DAA343CE-1E20-5148-A641-B56FA692A822}
      IID 2
      NAME "Accomp. RH           - National_Anthems_-_Czech_Republic.mid"
      VOLPAN 1 0 1 -1
      SOFFS 0 0
      PLAYRATE 1 1 0 -1 0 0.0025
      CHANMODE 0
      TAKECOLOR 26173599
      GUID {086B5D1E-6B19-4245-8436-03FDCAC2F849}
      <SOURCE MIDI
        HASDATA 1 192 QN
        POOLEDEVTS {50F8EC81-95EA-DB46-B339-CF22E2A41830}
        <X 0 0
          /wNBY2NvbXAuIFJIICAgICAgICAgIA==
        >
        e 192 91 3e 64
        e 0 91 42 64
        e 0 91 45 64
        e 382 81 3e 40
        e 0 81 42 40
        e 0 81 45 40
        e 2 91 3e 64
        e 0 91 43 64
        e 0 91 47 64
        e 94 81 3e 40
        e 0 81 43 40
        e 0 81 47 40
        e 2 91 3e 64
        e 0 91 42 64
        e 0 91 45 64
        e 94 81 3e 40
        e 0 81 42 40
        e 0 81 45 40
        e 2 91 3b 64
        e 0 91 40 64
        e 190 81 3b 40
        e 0 81 40 40
        e 2 91 3b 64
        e 0 91 3d 64
        e 0 91 43 64
        e 382 81 3b 40
        e 0 81 3d 40
        e 0 81 43 40
        e 2 91 39 64
        e 0 91 3d 64
        e 0 91 42 64
        e 94 81 39 40
        e 0 81 3d 40
        e 0 81 42 40
        e 2 91 37 64
        e 0 91 40 64
        e 94 81 37 40
        e 0 81 40 40
        e 2 91 36 64
        e 0 91 3e 64
        e 574 81 36 40
        e 0 81 3e 40
        e 2 91 36 64
        e 0 91 3c 64
        e 0 91 3e 64
        e 142 81 3e 40
        e 48 81 36 40
        e 0 81 3c 40
        e 2 91 3b 64
        e 0 91 3e 64
        e 94 81 3b 40
        e 0 81 3e 40
        e 2 91 43 64
        e 94 81 43 40
        e 2 91 3b 64
        e 0 91 3e 64
        e 0 91 43 64
        e 382 81 3b 40
        e 0 81 3e 40
        e 0 81 43 40
        e 2 91 39 64
        e 0 91 3e 64
        e 0 91 45 64
        e 94 81 39 40
        e 0 81 3e 40
        e 0 81 45 40
        e 2 91 3b 64
        e 0 91 47 64
        e 94 81 3b 40
        e 0 81 47 40
        e 2 91 39 64
        e 0 91 3d 64
        e 0 91 45 64
        e 94 81 39 40
        e 0 81 3d 40
        e 0 81 45 40
        e 2 91 42 64
        e 94 81 42 40
        e 2 91 36 64
        e 0 91 3b 64
        e 0 91 3e 64
        e 190 81 3b 40
        e 192 81 36 40
        e 0 81 3e 40
        e 2 91 36 64
        e 0 91 39 64
        e 0 91 3e 64
        e 94 81 39 40
        e 0 81 3e 40
        e 2 91 3e 64
        e 22 81 36 40
        e 74 81 3e 40
        e 0 91 37 64
        e 0 91 3e 64
        e 94 81 37 40
        e 0 81 3e 40
        e 2 91 43 64
        e 94 81 43 40
        e 2 91 3b 64
        e 0 91 3e 64
        e 0 91 43 64
        e 94 81 3b 40
        e 0 81 3e 40
        e 0 81 43 40
        e 2 91 47 64
        e 94 81 47 40
        e 2 91 3e 64
        e 0 91 47 64
        e 0 91 4a 64
        e 190 81 3e 40
        e 0 81 47 40
        e 0 81 4a 40
        e 2 91 3d 64
        e 0 91 45 64
        e 0 91 49 64
        e 94 81 3d 40
        e 0 81 45 40
        e 0 81 49 40
        e 2 91 3b 64
        e 0 91 44 64
        e 0 91 47 64
        e 94 81 3b 40
        e 0 81 44 40
        e 0 81 47 40
        e 2 91 3b 64
        e 0 91 44 64
        e 0 91 47 64
        e 190 81 3b 40
        e 0 81 44 40
        e 0 81 47 40
        e 2 91 39 64
        e 0 91 42 64
        e 0 91 45 64
        e 94 81 39 40
        e 2 91 3b 64
        e 94 81 3b 40
        e 2 91 3d 64
        e 190 81 42 40
        e 0 81 45 40
        e 2 91 45 64
        e 142 81 45 40
        e 2 91 45 64
        e 46 81 3d 40
        e 0 81 45 40
        e 2 91 3d 64
        e 0 91 43 64
        e 0 91 45 64
        e 462 81 3d 40
        e 0 81 43 40
        e 0 81 45 40
        e 18 91 3b 64
        e 0 91 43 64
        e 0 91 47 64
        e 94 81 3b 40
        e 0 81 43 40
        e 0 81 47 40
        e 2 91 3c 64
        e 0 91 42 64
        e 0 91 45 64
        e 94 81 3c 40
        e 0 81 42 40
        e 0 81 45 40
        e 2 91 3d 64
        e 0 91 40 64
        e 0 91 43 64
        e 94 81 3d 40
        e 0 81 40 40
        e 0 81 43 40
        e 2 91 3e 64
        e 0 91 42 64
        e 574 81 3e 40
        e 0 81 42 40
        e 2 91 3e 64
        e 0 91 42 64
        e 0 91 45 64
        e 142 81 3e 40
        e 0 81 42 40
        e 0 81 45 40
        e 2 91 45 64
        e 46 81 45 40
        e 2 91 40 64
        e 0 91 43 64
        e 0 91 49 64
        e 414 81 40 40
        e 0 81 43 40
        e 0 81 49 40
        e 66 91 3b 64
        e 0 91 43 64
        e 0 91 47 64
        e 94 81 3b 40
        e 0 81 43 40
        e 0 81 47 40
        e 2 91 3c 64
        e 0 91 42 64
        e 0 91 45 64
        e 94 81 3c 40
        e 0 81 42 40
        e 0 81 45 40
        e 2 91 3d 64
        e 0 91 40 64
        e 0 91 43 64
        e 94 81 3d 40
        e 0 81 40 40
        e 0 81 43 40
        e 2 91 3e 64
        e 0 91 42 64
        e 574 81 3e 40
        e 0 81 42 40
        e 2 91 3a 64
        e 0 91 40 64
        e 0 91 42 64
        e 142 81 42 40
        e 2 91 42 64
        e 46 81 3a 40
        e 0 81 40 40
        e 0 81 42 40
        e 2 91 3b 64
        e 0 91 3e 64
        e 0 91 42 64
        e 190 81 3b 40
        e 0 81 3e 40
        e 2 91 3b 64
        e 0 91 3e 64
        e 190 81 3b 40
        e 0 81 3e 40
        e 2 91 3a 64
        e 0 91 40 64
        e 30 81 42 40
        e 66 91 42 64
        e 94 81 3a 40
        e 0 81 40 40
        e 0 81 42 40
        e 2 91 3e 64
        e 0 91 42 64
        e 0 91 44 64
        e 94 81 3e 40
        e 0 81 42 40
        e 0 81 44 40
        e 2 91 3d 64
        e 0 91 40 64
        e 0 91 46 64
        e 94 81 3d 40
        e 0 81 40 40
        e 0 81 46 40
        e 2 91 3d 64
        e 0 91 40 64
        e 0 91 46 64
        e 94 81 3d 40
        e 0 81 40 40
        e 0 81 46 40
        e 2 91 3b 64
        e 0 91 3d 64
        e 0 91 3e 64
        e 0 91 47 64
        e 94 81 3b 40
        e 0 81 3d 40
        e 0 81 3e 40
        e 0 81 47 40
        e 2 91 3b 64
        e 0 91 3e 64
        e 0 91 47 64
        e 382 81 3b 40
        e 0 81 3e 40
        e 0 81 47 40
        e 2 91 3b 64
        e 0 91 43 64
        e 0 91 47 64
        e 142 81 47 40
        e 2 91 47 64
        e 46 81 3b 40
        e 0 81 43 40
        e 0 81 47 40
        e 2 91 40 64
        e 0 91 43 64
        e 0 91 47 64
        e 94 81 47 40
        e 2 91 45 64
        e 94 81 40 40
        e 0 81 43 40
        e 0 81 45 40
        e 2 91 3d 64
        e 0 91 43 64
        e 0 91 45 64
        e 382 81 3d 40
        e 0 81 43 40
        e 0 81 45 40
        e 2 91 3d 64
        e 0 91 43 64
        e 94 81 43 40
        e 96 81 3d 40
        e 2 91 3e 64
        e 0 91 42 64
        e 190 81 3e 40
        e 0 81 42 40
        e 2 91 42 64
        e 0 91 47 64
        e 0 91 4a 64
        e 382 81 42 40
        e 0 81 47 40
        e 0 81 4a 40
        e 2 91 3e 64
        e 0 91 45 64
        e 0 91 49 64
        e 94 81 45 40
        e 0 81 49 40
        e 2 91 43 64
        e 0 91 47 64
        e 94 81 3e 40
        e 0 81 43 40
        e 0 81 47 40
        e 2 91 3e 64
        e 0 91 42 64
        e 0 91 47 64
        e 190 81 47 40
        e 2 91 45 64
        e 190 81 3e 40
        e 0 81 42 40
        e 192 81 45 40
        e 2 91 37 64
        e 0 91 3d 64
        e 0 91 40 64
        e 94 81 37 40
        e 2 91 42 64
        e 94 81 3d 40
        e 0 81 40 40
        e 0 81 42 40
        e 2 91 36 64
        e 0 91 3e 64
        e 382 81 36 40
        e 0 81 3e 40
        e 386 91 42 64
        e 94 81 42 40
        e 2 91 44 64
        e 94 81 44 40
        e 2 91 3d 64
        e 0 91 42 64
        e 0 91 45 64
        e 190 81 3d 40
        e 0 81 42 40
        e 0 81 45 40
        e 2 91 3d 64
        e 0 91 42 64
        e 0 91 45 64
        e 190 81 3d 40
        e 0 81 42 40
        e 0 81 45 40
        e 2 91 3e 64
        e 0 91 42 64
        e 0 91 45 64
        e 94 81 3e 40
        e 0 81 42 40
        e 0 81 45 40
        e 2 91 3d 64
        e 0 91 42 64
        e 0 91 45 64
        e 94 81 3d 40
        e 0 81 42 40
        e 0 81 45 40
        e 2 91 3b 64
        e 0 91 42 64
        e 0 91 44 64
        e 94 81 3b 40
        e 0 81 42 40
        e 0 81 44 40
        e 2 91 3d 64
        e 0 91 42 64
        e 0 91 45 64
        e 94 81 3d 40
        e 0 81 42 40
        e 0 81 45 40
        e 2 91 3e 64
        e 0 91 42 64
        e 0 91 47 64
        e 94 81 3e 40
        e 0 81 42 40
        e 0 81 47 40
        e 2 91 3d 64
        e 0 91 42 64
        e 0 91 45 64
        e 94 81 3d 40
        e 0 81 42 40
        e 0 81 45 40
        e 2 91 3b 64
        e 0 91 42 64
        e 0 91 44 64
        e 94 81 42 40
        e 2 91 41 64
        e 94 81 3b 40
        e 0 81 44 40
        e 0 81 41 40
        e 2 91 39 64
        e 0 91 3d 64
        e 0 91 42 64
        e 190 81 39 40
        e 0 81 3d 40
        e 0 81 42 40
        e 2 91 45 64
        e 94 81 45 40
        e 2 91 47 64
        e 94 81 47 40
        e 2 91 40 64
        e 0 91 45 64
        e 0 91 49 64
        e 190 81 40 40
        e 0 81 45 40
        e 0 81 49 40
        e 2 91 40 64
        e 0 91 45 64
        e 0 91 49 64
        e 190 81 40 40
        e 0 81 45 40
        e 0 81 49 40
        e 2 91 42 64
        e 0 91 45 64
        e 0 91 49 64
        e 94 81 42 40
        e 0 81 45 40
        e 0 81 49 40
        e 2 91 40 64
        e 0 91 45 64
        e 0 91 49 64
        e 94 81 40 40
        e 0 81 45 40
        e 0 81 49 40
        e 2 91 3e 64
        e 0 91 45 64
        e 0 91 47 64
        e 94 81 3e 40
        e 0 81 45 40
        e 0 81 47 40
        e 2 91 40 64
        e 0 91 45 64
        e 0 91 49 64
        e 94 81 40 40
        e 0 81 45 40
        e 0 81 49 40
        e 2 91 42 64
        e 0 91 45 64
        e 0 91 4a 64
        e 94 81 42 40
        e 0 81 45 40
        e 0 81 4a 40
        e 2 91 40 64
        e 0 91 45 64
        e 0 91 49 64
        e 94 81 40 40
        e 0 81 45 40
        e 0 81 49 40
        e 2 91 3e 64
        e 0 91 45 64
        e 0 91 47 64
        e 94 81 45 40
        e 2 91 44 64
        e 94 81 3e 40
        e 0 81 47 40
        e 0 81 44 40
        e 2 91 3d 64
        e 0 91 40 64
        e 0 91 45 64
        e 190 81 3d 40
        e 0 81 40 40
        e 0 81 45 40
        e 2 91 40 64
        e 0 91 45 64
        e 0 91 49 64
        e 94 81 40 40
        e 0 81 45 40
        e 0 81 49 40
        e 2 91 40 64
        e 0 91 45 64
        e 0 91 49 64
        e 94 81 40 40
        e 0 81 45 40
        e 0 81 49 40
        e 2 91 40 64
        e 0 91 45 64
        e 0 91 49 64
        e 190 81 40 40
        e 0 81 45 40
        e 0 81 49 40
        e 2 91 3e 64
        e 0 91 42 64
        e 0 91 47 64
        e 190 81 3e 40
        e 0 81 42 40
        e 0 81 47 40
        e 2 91 3e 64
        e 0 91 42 64
        e 0 91 47 64
        e 94 81 3e 40
        e 0 81 42 40
        e 0 81 47 40
        e 2 91 3e 64
        e 0 91 42 64
        e 0 91 47 64
        e 94 81 3e 40
        e 0 81 42 40
        e 0 81 47 40
        e 2 91 3e 64
        e 0 91 44 64
        e 0 91 47 64
        e 94 81 3e 40
        e 0 81 44 40
        e 0 81 47 40
        e 2 91 40 64
        e 0 91 44 64
        e 0 91 49 64
        e 94 81 40 40
        e 0 81 44 40
        e 0 81 49 40
        e 2 91 3e 64
        e 0 91 42 64
        e 0 91 47 64
        e 94 81 42 40
        e 2 91 44 64
        e 94 81 3e 40
        e 0 81 47 40
        e 0 81 44 40
        e 2 91 3d 64
        e 0 91 42 64
        e 0 91 45 64
        e 190 81 3d 40
        e 0 81 42 40
        e 0 81 45 40
        e 2 91 3e 64
        e 0 91 42 64
        e 0 91 45 64
        e 94 81 3e 40
        e 0 81 42 40
        e 0 81 45 40
        e 2 91 3d 64
        e 0 91 42 64
        e 0 91 45 64
        e 94 81 3d 40
        e 0 81 42 40
        e 0 81 45 40
        e 2 91 3b 64
        e 0 91 42 64
        e 0 91 44 64
        e 94 81 3b 40
        e 0 81 42 40
        e 0 81 44 40
        e 2 91 3d 64
        e 0 91 42 64
        e 0 91 45 64
        e 94 81 3d 40
        e 0 81 42 40
        e 0 81 45 40
        e 2 91 3e 64
        e 0 91 42 64
        e 0 91 47 64
        e 94 81 3e 40
        e 0 81 42 40
        e 0 81 47 40
        e 2 91 3d 64
        e 0 91 42 64
        e 0 91 45 64
        e 94 81 3d 40
        e 0 81 42 40
        e 0 81 45 40
        e 2 91 3b 64
        e 0 91 42 64
        e 0 91 44 64
        e 94 81 42 40
        e 2 91 41 64
        e 94 81 3b 40
        e 0 81 44 40
        e 0 81 41 40
        e 2 91 39 64
        e 0 91 3d 64
        e 0 91 42 64
        e 190 81 39 40
        e 0 81 3d 40
        e 0 81 42 40
        e 2 91 40 64
        e 0 91 45 64
        e 0 91 49 64
        e 94 81 40 40
        e 0 81 45 40
        e 0 81 49 40
        e 2 91 40 64
        e 0 91 45 64
        e 0 91 49 64
        e 94 81 40 40
        e 0 81 45 40
        e 0 81 49 40
        e 2 91 40 64
        e 0 91 45 64
        e 0 91 49 64
        e 190 81 40 40
        e 0 81 45 40
        e 0 81 49 40
        e 2 91 3e 64
        e 0 91 42 64
        e 0 91 47 64
        e 190 81 3e 40
        e 0 81 42 40
        e 0 81 47 40
        e 2 91 3e 64
        e 0 91 42 64
        e 0 91 47 64
        e 94 81 3e 40
        e 0 81 42 40
        e 0 81 47 40
        e 2 91 3e 64
        e 0 91 42 64
        e 0 91 47 64
        e 94 81 3e 40
        e 0 81 42 40
        e 0 81 47 40
        e 2 91 3e 64
        e 0 91 44 64
        e 0 91 47 64
        e 94 81 3e 40
        e 0 81 44 40
        e 0 81 47 40
        e 2 91 40 64
        e 0 91 44 64
        e 0 91 49 64
        e 94 81 40 40
        e 0 81 44 40
        e 0 81 49 40
        e 2 91 3e 64
        e 0 91 42 64
        e 0 91 47 64
        e 94 81 42 40
        e 2 91 44 64
        e 94 81 3e 40
        e 0 81 47 40
        e 0 81 44 40
        e 2 91 3d 64
        e 0 91 42 64
        e 0 91 45 64
        e 190 81 3d 40
        e 0 81 42 40
        e 0 81 45 40
        e 2 91 3e 64
        e 0 91 42 64
        e 0 91 45 64
        e 94 81 3e 40
        e 0 81 42 40
        e 0 81 45 40
        e 2 91 3d 64
        e 0 91 42 64
        e 0 91 45 64
        e 94 81 3d 40
        e 0 81 42 40
        e 0 81 45 40
        e 2 91 3b 64
        e 0 91 42 64
        e 0 91 44 64
        e 94 81 3b 40
        e 0 81 42 40
        e 0 81 44 40
        e 2 91 3d 64
        e 0 91 42 64
        e 0 91 45 64
        e 94 81 3d 40
        e 0 81 42 40
        e 0 81 45 40
        e 2 91 3e 64
        e 0 91 42 64
        e 0 91 47 64
        e 94 81 3e 40
        e 0 81 42 40
        e 0 81 47 40
        e 2 91 3d 64
        e 0 91 42 64
        e 0 91 45 64
        e 94 81 3d 40
        e 0 81 42 40
        e 0 81 45 40
        e 2 91 3b 64
        e 0 91 42 64
        e 0 91 44 64
        e 94 81 42 40
        e 2 91 41 64
        e 94 81 3b 40
        e 0 81 44 40
        e 0 81 41 40
        e 2 91 39 64
        e 0 91 3d 64
        e 0 91 42 64
        e 575 81 39 40
        e 0 81 3d 40
        e 0 81 42 40
        E 1 b0 7b 00
        GUID {3390A934-AF7E-0743-898E-3604A057D7C6}
        IGNTEMPO 0 120 4 4
        SRCCOLOR 614
        VELLANE -1 86 6
        CFGEDITVIEW -190.926214 108.607402 76 16 0 0 0 0 0
        KEYSNAP 0 3 102304056070 0 "Natural minor"
        TRACKSEL 226 0 0 ""
        EVTFILTER 0 -1 -1 -1 -1 0 0 0 0 -1 -1 -1 -1 0 -1 0 -1 -1
        CFGEDIT 1 1 0 0 0 0 1 0 1 1 1 0.25 506 494 1014 762 1 0 1 3 0 0 0 0 0 -1 0 0 1 64
      >
      TAKE
      NAME "Accomp. RH           - National_Anthems_-_Czech_Republic.mid"
      TAKEVOLPAN 0 1 -1
      SOFFS 0 0
      PLAYRATE 1 1 0 -1 0 0.0025
      CHANMODE 0
      GUID {DDF2B48B-35AD-2941-A810-77591ED32793}
      <SOURCE MIDI
        HASDATA 1 192 QN
        POOLEDEVTS {90FF0739-627F-E54E-8A4D-D10E49E8C7F3}
        <X 0 0
          /wNBY2NvbXAuIFJIICAgICAgICAgIA==
        >
        E 192 91 45 64
        E 0 91 3e 64
        E 0 91 42 64
        E 382 81 45 40
        E 0 81 3e 40
        E 0 81 42 40
        E 2 91 47 64
        E 0 91 43 64
        E 0 91 3e 64
        E 94 81 47 40
        E 0 81 43 40
        E 0 81 3e 40
        E 2 91 45 64
        E 0 91 42 64
        E 0 91 3e 64
        E 94 81 45 40
        E 0 81 42 40
        E 0 81 3e 40
        E 2 91 40 64
        E 0 91 3b 64
        E 190 81 40 40
        E 0 81 3b 40
        E 2 91 3b 64
        E 0 91 43 64
        E 0 91 3d 64
        E 382 81 3b 40
        E 0 81 43 40
        E 0 81 3d 40
        E 2 91 42 64
        E 0 91 39 64
        E 0 91 3d 64
        E 94 81 42 40
        E 0 81 39 40
        E 0 81 3d 40
        E 2 91 40 64
        E 0 91 37 64
        E 94 81 40 40
        E 0 81 37 40
        E 2 91 3e 64
        E 0 91 36 64
        E 574 81 3e 40
        E 0 81 36 40
        E 2 91 3e 64
        E 0 91 36 64
        E 0 91 3c 64
        E 142 81 3e 40
        E 48 81 36 40
        E 0 81 3c 40
        E 2 91 3b 64
        E 0 91 3e 64
        E 94 81 3b 40
        E 0 81 3e 40
        E 2 91 43 64
        E 94 81 43 40
        E 2 91 3b 64
        E 0 91 3e 64
        E 0 91 43 64
        E 382 81 3b 40
        E 0 81 3e 40
        E 0 81 43 40
        E 2 91 45 64
        E 0 91 3e 64
        E 0 91 39 64
        E 94 81 45 40
        E 0 81 3e 40
        E 0 81 39 40
        E 2 91 47 64
        E 0 91 3b 64
        E 94 81 47 40
        E 0 81 3b 40
        E 2 91 45 64
        E 0 91 3d 64
        E 0 91 39 64
        E 94 81 45 40
        E 0 81 3d 40
        E 0 81 39 40
        E 2 91 42 64
        E 94 81 42 40
        E 2 91 36 64
        E 0 91 3e 64
        E 0 91 3b 64
        E 190 81 3b 40
        E 192 81 36 40
        E 0 81 3e 40
        E 2 91 39 64
        E 0 91 3e 64
        E 0 91 36 64
        E 94 81 39 40
        E 0 81 3e 40
        E 2 91 3e 64
        E 22 81 36 40
        E 74 81 3e 40
        E 0 91 3e 64
        E 0 91 37 64
        E 94 81 3e 40
        E 0 81 37 40
        E 2 91 43 64
        E 94 81 43 40
        E 2 91 43 64
        E 0 91 3e 64
        E 0 91 3b 64
        E 94 81 43 40
        E 0 81 3e 40
        E 0 81 3b 40
        E 2 91 47 64
        E 94 81 47 40
        E 2 91 47 64
        E 0 91 3e 64
        E 0 91 4a 64
        E 190 81 47 40
        E 0 81 3e 40
        E 0 81 4a 40
        E 2 91 45 64
        E 0 91 49 64
        E 0 91 3d 64
        E 94 81 45 40
        E 0 81 49 40
        E 0 81 3d 40
        E 2 91 44 64
        E 0 91 47 64
        E 0 91 3b 64
        E 94 81 44 40
        E 0 81 47 40
        E 0 81 3b 40
        E 2 91 47 64
        E 0 91 3b 64
        E 0 91 44 64
        E 190 81 47 40
        E 0 81 3b 40
        E 0 81 44 40
        E 2 91 42 64
        E 0 91 39 64
        E 0 91 45 64
        E 94 81 39 40
        E 2 91 3b 64
        E 94 81 3b 40
        E 2 91 3d 64
        E 190 81 42 40
        E 0 81 45 40
        E 2 91 45 64
        E 142 81 45 40
        E 2 91 45 64
        E 46 81 3d 40
        E 0 81 45 40
        E 2 91 43 64
        E 0 91 3d 64
        E 0 91 45 64
        E 462 81 43 40
        E 0 81 3d 40
        E 0 81 45 40
        E 18 91 47 64
        E 0 91 43 64
        E 0 91 3b 64
        E 94 81 47 40
        E 0 81 43 40
        E 0 81 3b 40
        E 2 91 45 64
        E 0 91 42 64
        E 0 91 3c 64
        E 94 81 45 40
        E 0 81 42 40
        E 0 81 3c 40
        E 2 91 43 64
        E 0 91 40 64
        E 0 91 3d 64
        E 94 81 43 40
        E 0 81 40 40
        E 0 81 3d 40
        E 2 91 42 64
        E 0 91 3e 64
        E 574 81 42 40
        E 0 81 3e 40
        E 2 91 45 64
        E 0 91 3e 64
        E 0 91 42 64
        E 142 81 45 40
        E 0 81 3e 40
        E 0 81 42 40
        E 2 91 45 64
        E 46 81 45 40
        E 2 91 49 64
        E 0 91 40 64
        E 0 91 43 64
        E 414 81 49 40
        E 0 81 40 40
        E 0 81 43 40
        E 66 91 43 64
        E 0 91 47 64
        E 0 91 3b 64
        E 94 81 43 40
        E 0 81 47 40
        E 0 81 3b 40
        E 2 91 45 64
        E 0 91 3c 64
        E 0 91 42 64
        E 94 81 45 40
        E 0 81 3c 40
        E 0 81 42 40
        E 2 91 3d 64
        E 0 91 40 64
        E 0 91 43 64
        E 94 81 3d 40
        E 0 81 40 40
        E 0 81 43 40
        E 2 91 42 64
        E 0 91 3e 64
        E 574 81 42 40
        E 0 81 3e 40
        E 2 91 42 64
        E 0 91 3a 64
        E 0 91 40 64
        E 142 81 42 40
        E 2 91 42 64
        E 46 81 3a 40
        E 0 81 40 40
        E 0 81 42 40
        E 2 91 42 64
        E 0 91 3e 64
        E 0 91 3b 64
        E 190 81 3e 40
        E 0 81 3b 40
        E 2 91 3e 64
        E 0 91 3b 64
        E 190 81 3e 40
        E 0 81 3b 40
        E 2 91 40 64
        E 0 91 3a 64
        E 30 81 42 40
        E 66 91 42 64
        E 94 81 40 40
        E 0 81 3a 40
        E 0 81 42 40
        E 2 91 3e 64
        E 0 91 44 64
        E 0 91 42 64
        E 94 81 3e 40
        E 0 81 44 40
        E 0 81 42 40
        E 2 91 40 64
        E 0 91 3d 64
        E 0 91 46 64
        E 94 81 40 40
        E 0 81 3d 40
        E 0 81 46 40
        E 2 91 40 64
        E 0 91 46 64
        E 0 91 3d 64
        E 94 81 40 40
        E 0 81 46 40
        E 0 81 3d 40
        E 2 91 3d 64
        E 0 91 3e 64
        E 0 91 47 64
        E 0 91 3b 64
        E 94 81 3d 40
        E 0 81 3e 40
        E 0 81 47 40
        E 0 81 3b 40
        E 2 91 3b 64
        E 0 91 3e 64
        E 0 91 47 64
        E 382 81 3b 40
        E 0 81 3e 40
        E 0 81 47 40
        E 2 91 43 64
        E 0 91 47 64
        E 0 91 3b 64
        E 142 81 47 40
        E 2 91 47 64
        E 46 81 43 40
        E 0 81 3b 40
        E 0 81 47 40
        E 2 91 43 64
        E 0 91 40 64
        E 0 91 47 64
        E 94 81 47 40
        E 2 91 45 64
        E 94 81 43 40
        E 0 81 40 40
        E 0 81 45 40
        E 2 91 45 64
        E 0 91 43 64
        E 0 91 3d 64
        E 382 81 45 40
        E 0 81 43 40
        E 0 81 3d 40
        E 2 91 3d 64
        E 0 91 43 64
        E 94 81 43 40
        E 96 81 3d 40
        E 2 91 3e 64
        E 0 91 42 64
        E 190 81 3e 40
        E 0 81 42 40
        E 2 91 4a 64
        E 0 91 47 64
        E 0 91 42 64
        E 382 81 4a 40
        E 0 81 47 40
        E 0 81 42 40
        E 2 91 49 64
        E 0 91 45 64
        E 0 91 3e 64
        E 94 81 49 40
        E 0 81 45 40
        E 2 91 47 64
        E 0 91 43 64
        E 94 81 3e 40
        E 0 81 47 40
        E 0 81 43 40
        E 2 91 47 64
        E 0 91 42 64
        E 0 91 3e 64
        E 190 81 47 40
        E 2 91 45 64
        E 190 81 42 40
        E 0 81 3e 40
        E 192 81 45 40
        E 2 91 37 64
        E 0 91 3d 64
        E 0 91 40 64
        E 94 81 37 40
        E 2 91 42 64
        E 94 81 3d 40
        E 0 81 40 40
        E 0 81 42 40
        E 2 91 36 64
        E 0 91 3e 64
        E 382 81 36 40
        E 0 81 3e 40
        E 386 91 42 64
        E 94 81 42 40
        E 2 91 44 64
        E 94 81 44 40
        E 2 91 45 64
        E 0 91 3d 64
        E 0 91 42 64
        E 190 81 45 40
        E 0 81 3d 40
        E 0 81 42 40
        E 2 91 45 64
        E 0 91 3d 64
        E 0 91 42 64
        E 190 81 45 40
        E 0 81 3d 40
        E 0 81 42 40
        E 2 91 45 64
        E 0 91 3e 64
        E 0 91 42 64
        E 94 81 45 40
        E 0 81 3e 40
        E 0 81 42 40
        E 2 91 45 64
        E 0 91 42 64
        E 0 91 3d 64
        E 94 81 45 40
        E 0 81 42 40
        E 0 81 3d 40
        E 2 91 44 64
        E 0 91 3b 64
        E 0 91 42 64
        E 94 81 44 40
        E 0 81 3b 40
        E 0 81 42 40
        E 2 91 3d 64
        E 0 91 45 64
        E 0 91 42 64
        E 94 81 3d 40
        E 0 81 45 40
        E 0 81 42 40
        E 2 91 47 64
        E 0 91 3e 64
        E 0 91 42 64
        E 94 81 47 40
        E 0 81 3e 40
        E 0 81 42 40
        E 2 91 45 64
        E 0 91 3d 64
        E 0 91 42 64
        E 94 81 45 40
        E 0 81 3d 40
        E 0 81 42 40
        E 2 91 44 64
        E 0 91 42 64
        E 0 91 3b 64
        E 94 81 42 40
        E 2 91 41 64
        E 94 81 44 40
        E 0 81 3b 40
        E 0 81 41 40
        E 2 91 42 64
        E 0 91 3d 64
        E 0 91 39 64
        E 190 81 42 40
        E 0 81 3d 40
        E 0 81 39 40
        E 2 91 45 64
        E 94 81 45 40
        E 2 91 47 64
        E 94 81 47 40
        E 2 91 49 64
        E 0 91 40 64
        E 0 91 45 64
        E 190 81 49 40
        E 0 81 40 40
        E 0 81 45 40
        E 2 91 49 64
        E 0 91 40 64
        E 0 91 45 64
        E 190 81 49 40
        E 0 81 40 40
        E 0 81 45 40
        E 2 91 45 64
        E 0 91 42 64
        E 0 91 49 64
        E 94 81 45 40
        E 0 81 42 40
        E 0 81 49 40
        E 2 91 49 64
        E 0 91 40 64
        E 0 91 45 64
        E 94 81 49 40
        E 0 81 40 40
        E 0 81 45 40
        E 2 91 47 64
        E 0 91 45 64
        E 0 91 3e 64
        E 94 81 47 40
        E 0 81 45 40
        E 0 81 3e 40
        E 2 91 45 64
        E 0 91 49 64
        E 0 91 40 64
        E 94 81 45 40
        E 0 81 49 40
        E 0 81 40 40
        E 2 91 42 64
        E 0 91 4a 64
        E 0 91 45 64
        E 94 81 42 40
        E 0 81 4a 40
        E 0 81 45 40
        E 2 91 49 64
        E 0 91 45 64
        E 0 91 40 64
        E 94 81 49 40
        E 0 81 45 40
        E 0 81 40 40
        E 2 91 45 64
        E 0 91 47 64
        E 0 91 3e 64
        E 94 81 45 40
        E 2 91 44 64
        E 94 81 47 40
        E 0 81 3e 40
        E 0 81 44 40
        E 2 91 3d 64
        E 0 91 40 64
        E 0 91 45 64
        E 190 81 3d 40
        E 0 81 40 40
        E 0 81 45 40
        E 2 91 45 64
        E 0 91 49 64
        E 0 91 40 64
        E 94 81 45 40
        E 0 81 49 40
        E 0 81 40 40
        E 2 91 45 64
        E 0 91 40 64
        E 0 91 49 64
        E 94 81 45 40
        E 0 81 40 40
        E 0 81 49 40
        E 2 91 40 64
        E 0 91 49 64
        E 0 91 45 64
        E 190 81 40 40
        E 0 81 49 40
        E 0 81 45 40
        E 2 91 47 64
        E 0 91 42 64
        E 0 91 3e 64
        E 190 81 47 40
        E 0 81 42 40
        E 0 81 3e 40
        E 2 91 47 64
        E 0 91 3e 64
        E 0 91 42 64
        E 94 81 47 40
        E 0 81 3e 40
        E 0 81 42 40
        E 2 91 47 64
        E 0 91 3e 64
        E 0 91 42 64
        E 94 81 47 40
        E 0 81 3e 40
        E 0 81 42 40
        E 2 91 47 64
        E 0 91 3e 64
        E 0 91 44 64
        E 94 81 47 40
        E 0 81 3e 40
        E 0 81 44 40
        E 2 91 49 64
        E 0 91 40 64
        E 0 91 44 64
        E 94 81 49 40
        E 0 81 40 40
        E 0 81 44 40
        E 2 91 42 64
        E 0 91 47 64
        E 0 91 3e 64
        E 94 81 42 40
        E 2 91 44 64
        E 94 81 47 40
        E 0 81 3e 40
        E 0 81 44 40
        E 2 91 45 64
        E 0 91 3d 64
        E 0 91 42 64
        E 190 81 45 40
        E 0 81 3d 40
        E 0 81 42 40
        E 2 91 45 64
        E 0 91 3e 64
        E 0 91 42 64
        E 94 81 45 40
        E 0 81 3e 40
        E 0 81 42 40
        E 2 91 45 64
        E 0 91 3d 64
        E 0 91 42 64
        E 94 81 45 40
        E 0 81 3d 40
        E 0 81 42 40
        E 2 91 44 64
        E 0 91 42 64
        E 0 91 3b 64
        E 94 81 44 40
        E 0 81 42 40
        E 0 81 3b 40
        E 2 91 45 64
        E 0 91 3d 64
        E 0 91 42 64
        E 94 81 45 40
        E 0 81 3d 40
        E 0 81 42 40
        E 2 91 47 64
        E 0 91 3e 64
        E 0 91 42 64
        E 94 81 47 40
        E 0 81 3e 40
        E 0 81 42 40
        E 2 91 3d 64
        E 0 91 42 64
        E 0 91 45 64
        E 94 81 3d 40
        E 0 81 42 40
        E 0 81 45 40
        E 2 91 44 64
        E 0 91 42 64
        E 0 91 3b 64
        E 94 81 42 40
        E 2 91 41 64
        E 94 81 44 40
        E 0 81 3b 40
        E 0 81 41 40
        E 2 91 42 64
        E 0 91 39 64
        E 0 91 3d 64
        E 190 81 42 40
        E 0 81 39 40
        E 0 81 3d 40
        E 2 91 45 64
        E 0 91 49 64
        E 0 91 40 64
        E 94 81 45 40
        E 0 81 49 40
        E 0 81 40 40
        E 2 91 45 64
        E 0 91 40 64
        E 0 91 49 64
        E 94 81 45 40
        E 0 81 40 40
        E 0 81 49 40
        E 2 91 40 64
        E 0 91 49 64
        E 0 91 45 64
        E 190 81 40 40
        E 0 81 49 40
        E 0 81 45 40
        E 2 91 47 64
        E 0 91 42 64
        E 0 91 3e 64
        E 190 81 47 40
        E 0 81 42 40
        E 0 81 3e 40
        E 2 91 47 64
        E 0 91 3e 64
        E 0 91 42 64
        E 94 81 47 40
        E 0 81 3e 40
        E 0 81 42 40
        E 2 91 47 64
        E 0 91 3e 64
        E 0 91 42 64
        E 94 81 47 40
        E 0 81 3e 40
        E 0 81 42 40
        E 2 91 47 64
        E 0 91 3e 64
        E 0 91 44 64
        E 94 81 47 40
        E 0 81 3e 40
        E 0 81 44 40
        E 2 91 49 64
        E 0 91 40 64
        E 0 91 44 64
        E 94 81 49 40
        E 0 81 40 40
        E 0 81 44 40
        E 2 91 42 64
        E 0 91 47 64
        E 0 91 3e 64
        E 94 81 42 40
        E 2 91 44 64
        E 94 81 47 40
        E 0 81 3e 40
        E 0 81 44 40
        E 2 91 45 64
        E 0 91 3d 64
        E 0 91 42 64
        E 190 81 45 40
        E 0 81 3d 40
        E 0 81 42 40
        E 2 91 45 64
        E 0 91 3e 64
        E 0 91 42 64
        E 94 81 45 40
        E 0 81 3e 40
        E 0 81 42 40
        E 2 91 45 64
        E 0 91 3d 64
        E 0 91 42 64
        E 94 81 45 40
        E 0 81 3d 40
        E 0 81 42 40
        E 2 91 44 64
        E 0 91 42 64
        E 0 91 3b 64
        E 94 81 44 40
        E 0 81 42 40
        E 0 81 3b 40
        E 2 91 45 64
        E 0 91 3d 64
        E 0 91 42 64
        E 94 81 45 40
        E 0 81 3d 40
        E 0 81 42 40
        E 2 91 47 64
        E 0 91 3e 64
        E 0 91 42 64
        E 94 81 47 40
        E 0 81 3e 40
        E 0 81 42 40
        E 2 91 3d 64
        E 0 91 42 64
        E 0 91 45 64
        E 94 81 3d 40
        E 0 81 42 40
        E 0 81 45 40
        E 2 91 44 64
        E 0 91 42 64
        E 0 91 3b 64
        E 94 81 42 40
        E 2 91 41 64
        E 94 81 44 40
        E 0 81 3b 40
        E 0 81 41 40
        E 2 91 42 64
        E 0 91 39 64
        E 0 91 3d 64
        E 575 81 3d 40
        E 0 81 39 40
        E 0 81 42 40
        E 1 b0 7b 00
        GUID {A7FD9BE0-43CD-7549-8FE9-CA1DF8633223}
        IGNTEMPO 0 120 4 4
        SRCCOLOR 672
        VELLANE -1 86 6
        CFGEDITVIEW -1065.84086 23.057851 52 16 0 0 0 0 0
        KEYSNAP 0 3 102304056070 0 "Natural minor"
        TRACKSEL -226 0 0 ""
        EVTFILTER 0 -1 -1 -1 -1 0 0 0 0 -1 -1 -1 -1 0 -1 0 -1 -1
        CFGEDIT 1 1 0 0 0 0 1 0 1 0 0 0.25 522 510 1014 762 1 0 1 3 0 0 0 0 0 -1 0 0 1 64
      >
    >
  >
  <TRACK {9E2CAE92-CCC1-1F4A-BCF6-93DCFE473BDF}
    NAME "16th pulse (mix w/ send?)"
    PEAKCOL 16576
    BEAT -1
    AUTOMODE 0
    VOLPAN 1 0 -1 -1 1
    MUTESOLO 0 0 0
    IPHASE 0
    ISBUS 1 1
    BUSCOMP 0 0
    SHOWINMIX 1 0.6667 0.5 1 0.5 -1 -1 -1
    FREEMODE 0
    SEL 0
    REC 0 0 0 0 0 0 0
    VU 2
    TRACKHEIGHT 0 0
    INQ 0 0 0 0.5 100 0 0 100
    NCHAN 4
    FX 1
    TRACKID {9E2CAE92-CCC1-1F4A-BCF6-93DCFE473BDF}
    PERF 0
    AUXRECV 3 0 1 0 0 0 0 0 0 -1 64 -1 ''
    AUXRECV 4 0 1 0 0 0 0 0 0 -1 32 -1 ''
    MIDIOUT -1
    MAINSEND 0 0
    <FXCHAIN
      WNDRECT 36 359 724 387
      SHOW 0
      LASTSEL 0
      DOCKED 0
      BYPASS 0 0 0
      <VST "VSTi: chipsounds (Plogue Art et Technologie, Inc)" chipsounds.vst 0 "" 1347176271
        T0dMUO5e7f4AAAAABAAAAAEAAAAAAAAAAgAAAAAAAAAEAAAAAAAAAAgAAAAAAAAAHQQAAAEAAAAAABAAQ0VHULcaAAB4nO1ZW2/bNhR+z68g9LQ9VCJ1tQA7he3Eg4F5
        DWbvuaBlVhGq20QqS/vrR0pWJPlC0XGLdWj4YpH6ePgdnkPpO/L4/XMSgydS0ChLJxrSoQbe396Mp0WE1/iJdG650NRubwBv4zVhLEpDCv4ucRyxL/yuBsI42+L4IYt5
        1zI1QFlBcMJhdTfBz+tqZBrHWbCaTTQH8eHV8m75oWSrbEcqK7hkWYIZX3IdZ2yicT404Hd8yxVXOMZ8DIF3gIi1dRrE++E5SRkpJpoLGyqbMq1WhzqsmgaMhj83DaJd
        ZT3FCREmdfBQFgTMH6PcWC/vDNcZIfDLH5v1/FcNbHH6ecnxCEJfA8EjTlMSV9Pzyl9bA+xotXz7scBpyK2/Qy+DjA/RPKOkmp2UrL6g/3yMMWXCUs2x4rnCUdrwfMJx
        SaoI9Z3pA9EL8MjrPtBUBVqqQFsV6KgCXVWgpwocqQJ9VSCCykjl2CDl4CDl6CDl8KCh+DzgAidKSdQih1Zvkd5AqrfI3tbbviODdvfJdKRWu1RNWwq9gGs3oZAl3YCu
        W5YphXZTykZSaDdWaCSF9jZLzrW7Wa50s7xuWnlyq26PqyywXv9Ey6CjrlVLGq2Rrwz1u9FCvjQHrG4MHGj5lnc+C1ssMofOjA9bFu4gtk0acxBrKme4D9XPuA/dC+yO
        LsD6Fzw9LnCOh8AaAG9wERK2lxNBlugPcRaWRBdKSv998UEvKSlg5+1ezZqXlOudO8wwYF9yERLTcnmAaPSVd2zheiPA+Hok3UW4vtzxKfyiaYv6x4TftvVdNGofL3Ua
        /UxO/8npkoIrwTWhwgWdMpL/LGHfFFEYkmLNtTlJA1IMuo08U7wZa7c9v+O2ecpttPd632D1aPYW0OTX8H7koUNHrLm38BUcRtBWxr5i08aGqDgOiw90XfGBmuLDbIsP
        dGX1Yb5VH2/Vx/+l+uh7hFz3rJrqeuRDp/rwMFynmJ7tCqHyTesURwr1huJ5Rvs7tlQk9+IkLZR6gt7ypAS6kTLldcrQWXqVSn+9RrYv0MjDmvP7a+Rhnf6faeQfS/Ye
        CYCDdj9wH55y8U32Sp2+TvQh8dS+TPXNRE+oPuTAmbeYHXlyXsk1CtHlLwHHmTqW2Mv5Dzt6mu9Bm8NTo+eaqkq9//SJBOz4Q/k02UYizIeytPm0/ttfy2YCDlj0RJYv
        3/Hr/n37XZ/EfAmy2+Ct6HefQAWhhK1IWoKINnBWUZWnHmDkmUNmmFKugDF7nGjGNM/jKKj+UqBGPZGL6CinWZnu+Ei1FjUkZo06hQEfDz5TQ1jXMT/q+cFz84g1Osl6
        WuQkDCPMspZwHOVXEO5YNISpa9id21POICEF/g7bumefcXC9xgH9scGT6vZmbDR/St3e/Au5vZVIAAAQAAAA
      >
      FLOATPOS 409 269 871 509
      FXID {DC79668B-30D1-964C-A162-F245DBE294B0}
      WAK 0
      BYPASS 1 0 0
      <JS Delay/time_adjustment ""
        -10.000000 0.000000 -120.000000 0.000000 - - - - - - - - - - - - - - - - - - - - - - - - - - - - - - - - - - - - - - - - - - - - - - - - - - - - - - - - - - - - 
      >
      FLOATPOS 0 4 554 157
      FXID {40721658-5454-1743-9C6A-517A806DB8F9}
      WAK 0
    >
  >
  <TRACK {4FCA358B-3FAC-3749-9BC2-11E94F70145F}
    NAME 16ths
    PEAKCOL 16576
    BEAT -1
    AUTOMODE 0
    VOLPAN 1 0 -1 -1 1
    MUTESOLO 0 0 0
    IPHASE 0
    ISBUS 0 0
    BUSCOMP 0 0
    SHOWINMIX 1 0.6667 0.5 1 0.5 -1 -1 -1
    FREEMODE 0
    SEL 0
    REC 0 0 0 0 0 0 0
    VU 2
    TRACKHEIGHT 0 0
    INQ 0 0 0 0.5 100 0 0 100
    NCHAN 2
    FX 1
    TRACKID {4FCA358B-3FAC-3749-9BC2-11E94F70145F}
    PERF 0
    MIDIOUT -1
    MAINSEND 0 0
  >
  <TRACK {B0448BAA-9F98-5543-9DF7-CDB8296564E0}
    NAME Full
    PEAKCOL 16576
    BEAT -1
    AUTOMODE 0
    VOLPAN 1 0 -1 -1 1
    MUTESOLO 0 0 0
    IPHASE 0
    ISBUS 2 -1
    BUSCOMP 0 0
    SHOWINMIX 1 0.6667 0.5 1 0.5 -1 -1 -1
    FREEMODE 0
    SEL 1
    REC 0 0 0 0 0 0 0
    VU 2
    TRACKHEIGHT 0 0
    INQ 0 0 0 0.5 100 0 0 100
    NCHAN 2
    FX 1
    TRACKID {B0448BAA-9F98-5543-9DF7-CDB8296564E0}
    PERF 0
    MIDIOUT -1
    MAINSEND 0 0
    <ITEM
      POSITION 0
      SNAPOFFS 0
      LENGTH 55
      LOOP 1
      ALLTAKES 0
      FADEIN 1 0 0 1 0 0
      FADEOUT 1 0 0 1 0 0
      MUTE 0
      SEL 0
      YPOS 0.222222 0.111111
      IGUID {B995225E-4C04-FB4A-B2E6-86522EF1400D}
      IID 3
      NAME "Accomp. LH           - National_Anthems_-_Czech_Republic.mid"
      VOLPAN 1 0 1 -1
      SOFFS 0 0
      PLAYRATE 1 1 0 -1 0 0.0025
      CHANMODE 0
      TAKECOLOR 26173599
      GUID {9A554832-51A3-5A4D-BB1D-B9991854E185}
      <SOURCE MIDI
        HASDATA 1 192 QN
        POOLEDEVTS {DDDB92F1-5F2E-954D-BFFA-5DCA5751C4A4}
        <X 0 0
          /wNBY2NvbXAuIExIICAgICAgICAgIA==
        >
        e 0 92 26 64
        e 0 92 32 64
        e 190 82 26 40
        e 0 82 32 40
        e 2 92 32 64
        e 0 92 36 64
        e 0 92 39 64
        e 382 82 32 40
        e 0 82 36 40
        e 0 82 39 40
        e 2 92 32 64
        e 0 92 37 64
        e 0 92 3b 64
        e 94 82 32 40
        e 0 82 37 40
        e 0 82 3b 40
        e 2 92 32 64
        e 0 92 36 64
        e 0 92 39 64
        e 94 82 32 40
        e 0 82 36 40
        e 0 82 39 40
        e 2 92 34 64
        e 0 92 37 64
        e 190 82 34 40
        e 0 82 37 40
        e 2 92 2d 64
        e 382 82 2d 40
        e 2 92 2d 64
        e 190 82 2d 40
        e 2 92 32 64
        e 190 82 32 40
        e 2 92 30 64
        e 190 82 30 40
        e 2 92 2f 64
        e 190 82 2f 40
        e 2 92 2d 64
        e 190 82 2d 40
        e 2 92 2b 64
        e 190 82 2b 40
        e 2 92 2a 64
        e 190 82 2a 40
        e 2 92 28 64
        e 190 82 28 40
        e 2 92 2a 64
        e 94 82 2a 40
        e 2 92 2b 64
        e 94 82 2b 40
        e 2 92 2a 64
        e 190 82 2a 40
        e 2 92 2f 64
        e 190 82 2f 40
        e 2 92 32 64
        e 190 82 32 40
        e 2 92 30 64
        e 190 82 30 40
        e 2 92 2f 64
        e 190 82 2f 40
        e 2 92 2b 64
        e 190 82 2b 40
        e 2 92 28 64
        e 190 82 28 40
        e 2 92 29 64
        e 190 82 29 40
        e 2 92 2a 64
        e 94 82 2a 40
        e 2 92 31 64
        e 94 82 31 40
        e 2 92 36 64
        e 94 82 36 40
        e 2 92 38 64
        e 94 82 38 40
        e 2 92 39 64
        e 190 82 39 40
        e 2 92 36 64
        e 190 82 36 40
        e 2 92 34 64
        e 94 82 34 40
        e 2 92 2d 64
        e 94 82 2d 40
        e 2 92 31 64
        e 94 82 31 40
        e 2 92 34 64
        e 94 82 34 40
        e 2 92 39 64
        e 190 82 39 40
        e 2 92 2d 64
        e 190 82 2d 40
        e 2 92 26 64
        e 94 82 26 40
        e 2 92 2d 64
        e 94 82 2d 40
        e 2 92 32 64
        e 94 82 32 40
        e 2 92 34 64
        e 94 82 34 40
        e 2 92 36 64
        e 190 82 36 40
        e 2 92 32 64
        e 190 82 32 40
        e 2 92 34 64
        e 94 82 34 40
        e 2 92 2d 64
        e 94 82 2d 40
        e 2 92 31 64
        e 94 82 31 40
        e 2 92 34 64
        e 94 82 34 40
        e 2 92 39 64
        e 190 82 39 40
        e 2 92 2d 64
        e 190 82 2d 40
        e 2 92 26 64
        e 94 82 26 40
        e 2 92 2d 64
        e 94 82 2d 40
        e 2 92 32 64
        e 94 82 32 40
        e 2 92 34 64
        e 94 82 34 40
        e 2 92 36 64
        e 94 82 36 40
        e 2 92 34 64
        e 94 82 34 40
        e 2 92 32 64
        e 94 82 32 40
        e 2 92 31 64
        e 94 82 31 40
        e 2 92 2f 64
        e 94 82 2f 40
        e 2 92 2a 64
        e 94 82 2a 40
        e 2 92 2f 64
        e 94 82 2f 40
        e 2 92 32 64
        e 94 82 32 40
        e 2 92 31 64
        e 190 82 31 40
        e 2 92 2a 64
        e 190 82 2a 40
        e 2 92 2f 64
        e 94 82 2f 40
        e 2 92 2a 64
        e 94 82 2a 40
        e 2 92 2f 64
        e 94 82 2f 40
        e 2 92 32 64
        e 94 82 32 40
        e 2 92 36 64
        e 190 82 36 40
        e 2 92 34 64
        e 94 82 34 40
        e 2 92 32 64
        e 94 82 32 40
        e 2 92 31 64
        e 190 82 31 40
        e 2 92 34 64
        e 190 82 34 40
        e 2 92 2d 64
        e 190 82 2d 40
        e 2 92 34 64
        e 190 82 34 40
        e 2 92 2f 64
        e 94 82 2f 40
        e 2 92 32 64
        e 94 82 32 40
        e 2 92 36 64
        e 94 82 36 40
        e 2 92 3b 64
        e 94 82 3b 40
        e 2 92 3e 64
        e 190 82 3e 40
        e 2 92 2b 64
        e 190 82 2b 40
        e 2 92 2f 64
        e 94 82 2f 40
        e 2 92 32 64
        e 94 82 32 40
        e 2 92 36 64
        e 94 82 36 40
        e 2 92 32 64
        e 94 82 32 40
        e 2 92 39 64
        e 190 82 39 40
        e 2 92 2d 64
        e 190 82 2d 40
        e 2 92 32 64
        e 94 82 32 40
        e 2 92 2d 64
        e 94 82 2d 40
        e 2 92 2a 64
        e 94 82 2a 40
        e 2 92 2d 64
        e 94 82 2d 40
        e 2 92 26 64
        e 382 82 26 40
        e 194 92 2a 64
        e 94 82 2a 40
        e 2 92 2c 64
        e 94 82 2c 40
        e 2 92 2d 64
        e 190 82 2d 40
        e 2 92 2f 64
        e 94 82 2f 40
        e 2 92 31 64
        e 94 82 31 40
        e 2 92 32 64
        e 94 82 32 40
        e 2 92 31 64
        e 94 82 31 40
        e 2 92 2f 64
        e 94 82 2f 40
        e 2 92 31 64
        e 94 82 31 40
        e 2 92 32 64
        e 94 82 32 40
        e 2 92 31 64
        e 94 82 31 40
        e 2 92 36 64
        e 190 82 36 40
        e 194 92 2d 64
        e 94 82 2d 40
        e 2 92 2f 64
        e 94 82 2f 40
        e 2 92 31 64
        e 190 82 31 40
        e 2 92 32 64
        e 94 82 32 40
        e 2 92 34 64
        e 94 82 34 40
        e 2 92 36 64
        e 94 82 36 40
        e 2 92 34 64
        e 94 82 34 40
        e 2 92 32 64
        e 94 82 32 40
        e 2 92 34 64
        e 94 82 34 40
        e 2 92 36 64
        e 94 82 36 40
        e 2 92 34 64
        e 94 82 34 40
        e 2 92 39 64
        e 190 82 39 40
        e 2 92 39 64
        e 94 82 39 40
        e 2 92 36 64
        e 94 82 36 40
        e 2 92 38 64
        e 94 82 38 40
        e 2 92 39 64
        e 94 82 39 40
        e 2 92 3b 64
        e 94 82 3b 40
        e 2 92 2f 64
        e 94 82 2f 40
        e 2 92 31 64
        e 94 82 31 40
        e 2 92 32 64
        e 94 82 32 40
        e 2 92 34 64
        e 94 82 34 40
        e 2 92 31 64
        e 94 82 31 40
        e 2 92 32 64
        e 94 82 32 40
        e 2 92 34 64
        e 94 82 34 40
        e 2 92 36 64
        e 94 82 36 40
        e 2 92 2d 64
        e 94 82 2d 40
        e 2 92 2f 64
        e 94 82 2f 40
        e 2 92 31 64
        e 94 82 31 40
        e 2 92 32 64
        e 94 82 32 40
        e 2 92 31 64
        e 94 82 31 40
        e 2 92 2f 64
        e 94 82 2f 40
        e 2 92 31 64
        e 94 82 31 40
        e 2 92 32 64
        e 94 82 32 40
        e 2 92 31 64
        e 94 82 31 40
        e 2 92 2a 64
        e 190 82 2a 40
        e 2 92 39 64
        e 94 82 39 40
        e 2 92 36 64
        e 94 82 36 40
        e 2 92 38 64
        e 94 82 38 40
        e 2 92 39 64
        e 94 82 39 40
        e 2 92 3b 64
        e 94 82 3b 40
        e 2 92 2f 64
        e 94 82 2f 40
        e 2 92 31 64
        e 94 82 31 40
        e 2 92 32 64
        e 94 82 32 40
        e 2 92 34 64
        e 94 82 34 40
        e 2 92 31 64
        e 94 82 31 40
        e 2 92 32 64
        e 94 82 32 40
        e 2 92 34 64
        e 94 82 34 40
        e 2 92 36 64
        e 94 82 36 40
        e 2 92 2d 64
        e 94 82 2d 40
        e 2 92 2f 64
        e 94 82 2f 40
        e 2 92 31 64
        e 94 82 31 40
        e 2 92 32 64
        e 94 82 32 40
        e 2 92 31 64
        e 94 82 31 40
        e 2 92 2f 64
        e 94 82 2f 40
        e 2 92 31 64
        e 94 82 31 40
        e 2 92 32 64
        e 94 82 32 40
        e 2 92 31 64
        e 94 82 31 40
        e 2 92 2a 64
        e 575 82 2a 40
        E 1 b0 7b 00
        GUID {2C2BF260-3948-ED4E-822A-5A50A8136B1D}
        IGNTEMPO 0 120 4 4
        SRCCOLOR 615
        VELLANE -1 86 6
        CFGEDITVIEW -190.926214 108.607402 76 16 0 0 0 0 0
        KEYSNAP 0 3 102304056070 0 "Natural minor"
        TRACKSEL 226 0 0 ""
        EVTFILTER 0 -1 -1 -1 -1 0 0 0 0 -1 -1 -1 -1 0 -1 0 -1 -1
        CFGEDIT 1 1 0 0 0 0 1 0 1 1 1 0.25 506 494 1014 762 1 0 1 3 0 0 0 0 0 -1 0 0 1 64
      >
      TAKE
      NAME "Accomp. LH           - National_Anthems_-_Czech_Republic.mid"
      TAKEVOLPAN 0 1 -1
      SOFFS 0 0
      PLAYRATE 1 1 0 -1 0 0.0025
      CHANMODE 0
      GUID {AB4DFD8A-FC34-204A-AE15-A97389023E72}
      <SOURCE MIDI
        HASDATA 1 192 QN
        POOLEDEVTS {D28BDEA7-E9A5-5642-AE77-A1AC2880BE75}
        <X 0 0
          /wNBY2NvbXAuIExIICAgICAgICAgIA==
        >
        E 0 92 26 64
        E 0 92 32 64
        E 190 82 26 40
        E 0 82 32 40
        E 2 92 39 64
        E 0 92 36 64
        E 0 92 32 64
        E 382 82 39 40
        E 0 82 36 40
        E 0 82 32 40
        E 2 92 3b 64
        E 0 92 32 64
        E 0 92 37 64
        E 94 82 3b 40
        E 0 82 32 40
        E 0 82 37 40
        E 2 92 39 64
        E 0 92 36 64
        E 0 92 32 64
        E 94 82 39 40
        E 0 82 36 40
        E 0 82 32 40
        E 2 92 37 64
        E 0 92 34 64
        E 190 82 37 40
        E 0 82 34 40
        E 2 92 2d 64
        E 382 82 2d 40
        E 2 92 2d 64
        E 190 82 2d 40
        E 2 92 32 64
        E 190 82 32 40
        E 2 92 30 64
        E 190 82 30 40
        E 2 92 2f 64
        E 190 82 2f 40
        E 2 92 2d 64
        E 190 82 2d 40
        E 2 92 2b 64
        E 190 82 2b 40
        E 2 92 2a 64
        E 190 82 2a 40
        E 2 92 28 64
        E 190 82 28 40
        E 2 92 2a 64
        E 94 82 2a 40
        E 2 92 2b 64
        E 94 82 2b 40
        E 2 92 2a 64
        E 190 82 2a 40
        E 2 92 2f 64
        E 190 82 2f 40
        E 2 92 32 64
        E 190 82 32 40
        E 2 92 30 64
        E 190 82 30 40
        E 2 92 2f 64
        E 190 82 2f 40
        E 2 92 2b 64
        E 190 82 2b 40
        E 2 92 28 64
        E 190 82 28 40
        E 2 92 29 64
        E 190 82 29 40
        E 2 92 2a 64
        E 94 82 2a 40
        E 2 92 31 64
        E 94 82 31 40
        E 2 92 36 64
        E 94 82 36 40
        E 2 92 38 64
        E 94 82 38 40
        E 2 92 39 64
        E 190 82 39 40
        E 2 92 36 64
        E 190 82 36 40
        E 2 92 34 64
        E 94 82 34 40
        E 2 92 2d 64
        E 94 82 2d 40
        E 2 92 31 64
        E 94 82 31 40
        E 2 92 34 64
        E 94 82 34 40
        E 2 92 39 64
        E 190 82 39 40
        E 2 92 2d 64
        E 190 82 2d 40
        E 2 92 26 64
        E 94 82 26 40
        E 2 92 2d 64
        E 94 82 2d 40
        E 2 92 32 64
        E 94 82 32 40
        E 2 92 34 64
        E 94 82 34 40
        E 2 92 36 64
        E 190 82 36 40
        E 2 92 32 64
        E 190 82 32 40
        E 2 92 34 64
        E 94 82 34 40
        E 2 92 2d 64
        E 94 82 2d 40
        E 2 92 31 64
        E 94 82 31 40
        E 2 92 34 64
        E 94 82 34 40
        E 2 92 39 64
        E 190 82 39 40
        E 2 92 2d 64
        E 190 82 2d 40
        E 2 92 26 64
        E 94 82 26 40
        E 2 92 2d 64
        E 94 82 2d 40
        E 2 92 32 64
        E 94 82 32 40
        E 2 92 34 64
        E 94 82 34 40
        E 2 92 36 64
        E 94 82 36 40
        E 2 92 34 64
        E 94 82 34 40
        E 2 92 32 64
        E 94 82 32 40
        E 2 92 31 64
        E 94 82 31 40
        E 2 92 2f 64
        E 94 82 2f 40
        E 2 92 2a 64
        E 94 82 2a 40
        E 2 92 2f 64
        E 94 82 2f 40
        E 2 92 32 64
        E 94 82 32 40
        E 2 92 31 64
        E 190 82 31 40
        E 2 92 2a 64
        E 190 82 2a 40
        E 2 92 2f 64
        E 94 82 2f 40
        E 2 92 2a 64
        E 94 82 2a 40
        E 2 92 2f 64
        E 94 82 2f 40
        E 2 92 32 64
        E 94 82 32 40
        E 2 92 36 64
        E 190 82 36 40
        E 2 92 34 64
        E 94 82 34 40
        E 2 92 32 64
        E 94 82 32 40
        E 2 92 31 64
        E 190 82 31 40
        E 2 92 34 64
        E 190 82 34 40
        E 2 92 2d 64
        E 190 82 2d 40
        E 2 92 34 64
        E 190 82 34 40
        E 2 92 2f 64
        E 94 82 2f 40
        E 2 92 32 64
        E 94 82 32 40
        E 2 92 36 64
        E 94 82 36 40
        E 2 92 3b 64
        E 94 82 3b 40
        E 2 92 3e 64
        E 190 82 3e 40
        E 2 92 2b 64
        E 190 82 2b 40
        E 2 92 2f 64
        E 94 82 2f 40
        E 2 92 32 64
        E 94 82 32 40
        E 2 92 36 64
        E 94 82 36 40
        E 2 92 32 64
        E 94 82 32 40
        E 2 92 39 64
        E 190 82 39 40
        E 2 92 2d 64
        E 190 82 2d 40
        E 2 92 32 64
        E 94 82 32 40
        E 2 92 2d 64
        E 94 82 2d 40
        E 2 92 2a 64
        E 94 82 2a 40
        E 2 92 2d 64
        E 94 82 2d 40
        E 2 92 26 64
        E 382 82 26 40
        E 194 92 2a 64
        E 94 82 2a 40
        E 2 92 2c 64
        E 94 82 2c 40
        E 2 92 2d 64
        E 190 82 2d 40
        E 2 92 2f 64
        E 94 82 2f 40
        E 2 92 31 64
        E 94 82 31 40
        E 2 92 32 64
        E 94 82 32 40
        E 2 92 31 64
        E 94 82 31 40
        E 2 92 2f 64
        E 94 82 2f 40
        E 2 92 31 64
        E 94 82 31 40
        E 2 92 32 64
        E 94 82 32 40
        E 2 92 31 64
        E 94 82 31 40
        E 2 92 36 64
        E 190 82 36 40
        E 194 92 2d 64
        E 94 82 2d 40
        E 2 92 2f 64
        E 94 82 2f 40
        E 2 92 31 64
        E 190 82 31 40
        E 2 92 32 64
        E 94 82 32 40
        E 2 92 34 64
        E 94 82 34 40
        E 2 92 36 64
        E 94 82 36 40
        E 2 92 34 64
        E 94 82 34 40
        E 2 92 32 64
        E 94 82 32 40
        E 2 92 34 64
        E 94 82 34 40
        E 2 92 36 64
        E 94 82 36 40
        E 2 92 34 64
        E 94 82 34 40
        E 2 92 39 64
        E 190 82 39 40
        E 2 92 39 64
        E 94 82 39 40
        E 2 92 36 64
        E 94 82 36 40
        E 2 92 38 64
        E 94 82 38 40
        E 2 92 39 64
        E 94 82 39 40
        E 2 92 3b 64
        E 94 82 3b 40
        E 2 92 2f 64
        E 94 82 2f 40
        E 2 92 31 64
        E 94 82 31 40
        E 2 92 32 64
        E 94 82 32 40
        E 2 92 34 64
        E 94 82 34 40
        E 2 92 31 64
        E 94 82 31 40
        E 2 92 32 64
        E 94 82 32 40
        E 2 92 34 64
        E 94 82 34 40
        E 2 92 36 64
        E 94 82 36 40
        E 2 92 2d 64
        E 94 82 2d 40
        E 2 92 2f 64
        E 94 82 2f 40
        E 2 92 31 64
        E 94 82 31 40
        E 2 92 32 64
        E 94 82 32 40
        E 2 92 31 64
        E 94 82 31 40
        E 2 92 2f 64
        E 94 82 2f 40
        E 2 92 31 64
        E 94 82 31 40
        E 2 92 32 64
        E 94 82 32 40
        E 2 92 31 64
        E 94 82 31 40
        E 2 92 2a 64
        E 190 82 2a 40
        E 2 92 39 64
        E 94 82 39 40
        E 2 92 36 64
        E 94 82 36 40
        E 2 92 38 64
        E 94 82 38 40
        E 2 92 39 64
        E 94 82 39 40
        E 2 92 3b 64
        E 94 82 3b 40
        E 2 92 2f 64
        E 94 82 2f 40
        E 2 92 31 64
        E 94 82 31 40
        E 2 92 32 64
        E 94 82 32 40
        E 2 92 34 64
        E 94 82 34 40
        E 2 92 31 64
        E 94 82 31 40
        E 2 92 32 64
        E 94 82 32 40
        E 2 92 34 64
        E 94 82 34 40
        E 2 92 36 64
        E 94 82 36 40
        E 2 92 2d 64
        E 94 82 2d 40
        E 2 92 2f 64
        E 94 82 2f 40
        E 2 92 31 64
        E 94 82 31 40
        E 2 92 32 64
        E 94 82 32 40
        E 2 92 31 64
        E 94 82 31 40
        E 2 92 2f 64
        E 94 82 2f 40
        E 2 92 31 64
        E 94 82 31 40
        E 2 92 32 64
        E 94 82 32 40
        E 2 92 31 64
        E 94 82 31 40
        E 2 92 2a 64
        E 575 82 2a 40
        E 1 b0 7b 00
        GUID {CA709507-5833-8C48-BD02-8F083C43C279}
        IGNTEMPO 0 120 4 4
        SRCCOLOR 673
        VELLANE -1 86 6
        CFGEDITVIEW -1065.84086 23.057851 52 16 0 0 0 0 0
        KEYSNAP 0 3 102304056070 0 "Natural minor"
        TRACKSEL -226 0 0 ""
        EVTFILTER 0 -1 -1 -1 -1 0 0 0 0 -1 -1 -1 -1 0 -1 0 -1 -1
        CFGEDIT 1 1 0 0 0 0 1 0 1 0 0 0.25 522 510 1014 762 1 0 1 3 0 0 0 0 0 -1 0 0 1 64
      >
    >
  >
  <TRACK {5AFE27AD-822D-C34D-AFA1-36A455563115}
    NAME "Bass Return (global)"
    PEAKCOL 0
    BEAT -1
    AUTOMODE 0
    VOLPAN 0.8829554344746 0.024 -1 -1 1
    MUTESOLO 0 0 0
    IPHASE 0
    ISBUS 0 0
    BUSCOMP 0 0
    SHOWINMIX 1 0.6667 0.5 1 0.5 -1 -1 -1
    FREEMODE 0
    SEL 0
    REC 0 0 0 0 0 0 0
    VU 2
    TRACKHEIGHT 0 0
    INQ 0 0 0 0.5 100 0 0 100
    NCHAN 2
    FX 1
    TRACKID {5AFE27AD-822D-C34D-AFA1-36A455563115}
    PERF 0
    AUXRECV 1 0 1 0 1 0 0 0 0 -1 0 -1 ''
    AUXRECV 2 0 1 0 0 0 0 0 0 -1 0 -1 ''
    AUXRECV 6 0 1 0 1 0 0 4 0 -1 0 -1 ''
    MIDIOUT -1
    MAINSEND 1 0
    <FXCHAIN
      SHOW 0
      LASTSEL 0
      DOCKED 0
      BYPASS 0 0 0
      <VST "VST: 8-Bit Shaper (Xfer Records)" 8BitShaper.vst 0 "" 1148539762
        clN1RO5e7f4CAAAAAQAAAAAAAAACAAAAAAAAAAIAAAABAAAAAAAAAAIAAAAAAAAANAIAAAEAAAAAABAAZmaGP20MlT7dQQw/AAAAPygAAAAAAIA/XAEAAAIAAAAXAAAA
        MAAAABkAAAAaAAAAGgAAABoAAAAbAAAAGwAAABwAAAAcAAAAHAAAAB0AAAAdAAAAHgAAAB4AAAAfAAAAHwAAACAAAAAgAAAAIAAAACEAAAAhAAAAIQAAACIAAAAiAAAA
        IgAAACMAAAAjAAAAIwAAACQAAAAkAAAAJAAAACUAAAAlAAAAKAAAACgAAAApAAAAKQAAACoAAAA1AAAAKgAAACoAAAA2AAAAKgAAACoAAAAqAAAAKgAAACoAAAAqAAAA
        KgAAACsAAAArAAAAOQAAAC0AAAA0AAAAOgAAAC0AAAAtAAAAPAAAAC4AAAAuAAAALwAAADAAAAAwAAAAMQAAADEAAAAxAAAAMgAAADMAAAAzAAAAMwAAADcAAAA3AAAA
        NwAAADgAAAA4AAAAOAAAADkAAAA5AAAAOQAAADoAAAA6AAAAOgAAADoAAAA6AAAAOwAAADsAAAA7AAAAPAAAADsAAAA7AAAAOwAAADwAAAA8AAAAPAAAADwAAAA9AAAA
        PQAAAD0AAAA9AAAAPQAAAD4AAAA+AAAAPwAAAEkAAABAAAAAQAAAAEgAAABAAAAAQQAAAEIAAABCAAAAQgAAAEMAAABDAAAAQwAAAEQAAABEAAAARQAAAE0AAABGAAAA
        RwAAAEYAAABHAAAASAAAAEgAAABJAAAATwAAAAAAgD+rqqo+q6qqPh0Fwz6OAm0/AEluaXQgMQAQAAAA
      >
      FLOATPOS 32 39 278 389
      FXID {19A94086-1737-784E-A733-2897FDD09534}
      WAK 0
    >
  >
  <TRACK {3CF13A00-0AFC-8542-AD98-73B6D91102DB}
    NAME "vst Plogue"
    PEAKCOL 26779488
    BEAT -1
    AUTOMODE 0
    VOLPAN 1 0 -1 -1 1
    MUTESOLO 0 0 0
    IPHASE 0
    ISBUS 0 0
    BUSCOMP 0 0
    SHOWINMIX 1 0.6667 0.5 1 0.5 -1 -1 -1
    FREEMODE 0
    SEL 0
    REC 0 0 0 1 0 0 0
    VU 2
    TRACKHEIGHT 0 0
    INQ 0 0 0 0.5 100 0 0 100
    NCHAN 8
    FX 1
    TRACKID {3CF13A00-0AFC-8542-AD98-73B6D91102DB}
    PERF 0
    AUXRECV 8 0 1 0 0 0 0 0 0 -1 32 -1 ''
    AUXRECV 8 0 1 0 0 0 0 0 0 -1 96 -1 ''
    AUXRECV 9 0 1 0 0 0 0 0 0 -1 64 -1 ''
    AUXRECV 9 0 1 0 0 0 0 0 0 -1 128 -1 ''
    AUXRECV 10 0 1 0 0 0 0 0 0 -1 160 -1 ''
    MIDIOUT -1
    MAINSEND 0 0
    <FXCHAIN
      SHOW 0
      LASTSEL 0
      DOCKED 0
      BYPASS 0 0 0
      <VST "VSTi: chipsounds (Multi) (Plogue Art et Technologie, Inc) (32 out)" "chipsounds Multi.vst" 0 "" 1347241807
        T0dNUO5e7f4AAAAAIAAAAAEAAAAAAAAAAgAAAAAAAAAEAAAAAAAAAAgAAAAAAAAAEAAAAAAAAAAgAAAAAAAAAEAAAAAAAAAAgAAAAAAAAAAAAQAAAAAAAAACAAAAAAAA
        AAQAAAAAAAAACAAAAAAAAAAQAAAAAAAAACAAAAAAAAAAQAAAAAAAAACAAAAAAAAAAAABAAAAAAAAAAIAAAAAAAAABAAAAAAAAAAIAAAAAAAAABAAAAAAAAAAIAAAAAAA
        AABAAAAAAAAAAIAAAAAAAAAAAAEAAAAAAAAAAgAAAAAAAAAEAAAAAAAAAAgAAAAAAAAAEAAAAAAAAAAgAAAAAAAAAEAAAAAAAAAAgAAAAADvBQAAAQAAAAAAEABDRUdQ
        tT8AAHic7Ztdc6M2FIbv8ysYrtqLNZL4MjNOdvwRdz3TdDO1d3qZUWytQ4vBRSKb9NdXgIml2BYiJG23gYsE5JcjHR0hPejYg48Pm8i4JykNk/jchD1gGh8vzgbDNMRz
        fE+EjzyAzIszgx+DOWEsjNfU+DPDUcge+aemsY6SWxxdJxG/tJFpUJYSvOGy8nKDH+ZFyTCKkuXV6Nx0IS++mk1mnzN2laxIYQVnLNlgxqucRwk7N3l76JJrbS8/wRHm
        RdD4YJC86h5dRrviMYkZSc9ND1QtWWRxUTnogeIwDatqPrdshKvCeIw3JDfZM66zlBjju3BrzWcTy3P70Pjhl8V8/KNp3OL4jxnXQwAC01je4TgmUXH7tnDXMQ12UNv2
        9ibF8Zpb/wCfChkvotuEkuLuTcbKE/rtJsKU5ZbKNhbtvMJhXLXzHkcZKQIkOyML4ZPwwGtZiHSFtq7Q0RW6ukJPV+jrCvu6wkBXCIG2Ujs2UDs4UDs6UDs8sC4+1zjF
        G61BtFfW1b5XirHsu65CKXW9E6ikvtj30FbW70hSpVVxgMK+UiqPPJW0L1q1lX3VD7SlgdhZMFBJoS3G1QV2YPsntc5eC9Hx2C5wuiZsN9Euk03vOkrWGenlS0zv5+nn
        XkZJCoR5r7hrnFG+EEwwwwZ73PI7EbI9HkYa/sUvnLw/q5WJ10fiVYjL0xW/hZ9Ux7T8h8DrHrKLVuljU6fhO3F6kYbrNUnnfM0m8ZKktW5DH8Ggctv1BbfRMbfhzuvd
        UV77xbk99qeB5MQY2NN/qyOK6P/KHSAph4U5oblTPcrI9n80/gdWzlfPUQu2Qy14BLX6HWp1qPVOUEv2CHreySVZ9CgAbvGSVQ9lyHc84L0ylLlKlyQocx0lPolNtX2l
        1bqh/CLSem0mEsFs32OobhDwebxmeupgq4OtNrAFAWxKW8VT7vNemF4e0lbZNb49kgqmnMFybf9AyksnxywAJFt4Y4o7zjCoHcM4FcPAPcM47RgG1DBM3QLUnGFqqKhj
        GHWHdwzTlGF85Dj5Y3RcKXoElfsqoke+kjYkj6DKI7/msTi1WaXcK5KixH1XSR39BkibVTntwJPSBm6JI99RkqEv9oCt3IESyLCuAb40pJWdJUGkp26rOAQ8qL0J6CKV
        VNqDC5A6sC9lSLtWWzeXi1r9fdsAeA3s6o+wAAQNHrIGzkEoeWcrQ8djIM5ehVYlruu3DtM7TG+F6chuiunFW3OJ6QCh0ejAk0N4nxSYDsBRTD8K+u5YtjsqMd33oVg6
        LUvHcunuGOtopyfwvzHS2+2QHv3zGWBtpK8h9W5bUinskP47ywDXGO0ywGJndRng1kdHO10G+IXRf58ZYKcdatlHUMvtUKtDrXeCWt9hBrh2867LAHcZYK2jg60uA/xf
        yAD7TwyDekbZj8Zv+J58TdINtT7hdGXMH+PlSYhxn1LAXssNo1cil9f/7loNC3Xk8r7JRZn2kjxSfqNf6ibOLSg4mSKWvHfVqVcJc9QZOmmQKIFESpKq956QPjwh/VSX
        Xzf6XpZ6laLlKelNGoCe0qqr3wA5pa0kMonePCVqvh29ibnXum9Hvl3utd9Aq597DaB+4Hiv6o9ILq5bXE6mXm31mwoCdWtHB9MdTLeBaeS6DWG6XB/KrUsw8qc6edrq
        qHKkHn/pd92hK2dOhdKR7x7abWbBO5JBbmgBtrXg+m0tOJOWFo6XIjQ8mgcHzzPeui8gl1+/kiU7/N3ycHMb5sPy+QvHzurgpy+z6ga8ZOE9mZW/qobV9eX+V9Yk4lWQ
        1QLf5iNVnDFTQgm7InFmhLS6nRVNVT8qBiMPXLLgf7OUrIxPIaP8JQezu3PTGm63UbgsfulNrdICf08KtzTJ4hUvKSqllsK+tXsBG6Zbsl6HCbWkmnqYz1fbZ5P/gSuo
        kSsb/LvP7p58+MInQmpRHop4HeF8U9+6WaYEM2LN8WYbEWpdVp8Y0zC/LisY7x2t6qD5LS67e97ugcWDeHE2sKqf5F+c/Q14OTV5AAAQAAAA
      >
      FLOATPOS 275 269 871 509
      FXID {C804D762-B992-A540-81BF-3D6C0F7FF19B}
      WAK 0
    >
  >
  <TRACK {361291E9-E6AB-604E-AA43-746A4AF7FC9C}
    NAME "midi "
    PEAKCOL 16576
    BEAT -1
    AUTOMODE 0
    VOLPAN 1 0 -1 -1 1
    MUTESOLO 0 0 0
    IPHASE 0
    ISBUS 1 1
    BUSCOMP 1 0
    SHOWINMIX 1 0.6667 0.5 1 0.5 -1 -1 -1
    FREEMODE 0
    SEL 0
    REC 0 0 0 0 0 0 0
    VU 2
    TRACKHEIGHT 0 0
    INQ 0 0 0 0.5 100 0 0 100
    NCHAN 2
    FX 1
    TRACKID {361291E9-E6AB-604E-AA43-746A4AF7FC9C}
    PERF 0
    MIDIOUT -1
    MAINSEND 1 0
  >
  <TRACK {2BB5EACD-C1BC-284E-92F6-33B7023B768F}
    NAME "ch1,3 (send)"
    PEAKCOL 16576
    BEAT -1
    AUTOMODE 0
    VOLPAN 1 0 -1 -1 1
    MUTESOLO 0 0 0
    IPHASE 0
    ISBUS 0 0
    BUSCOMP 0 0
    SHOWINMIX 1 0.6667 0.5 1 0.5 -1 -1 -1
    FREEMODE 0
    SEL 0
    REC 0 0 0 0 0 0 0
    VU 2
    MIDICTL -1 1
    TRACKHEIGHT 0 0
    INQ 0 0 0 0.5 100 0 0 100
    NCHAN 2
    FX 1
    TRACKID {2BB5EACD-C1BC-284E-92F6-33B7023B768F}
    PERF 0
    MIDIOUT -1
    MAINSEND 1 0
    <FXCHAIN
      SHOW 0
      LASTSEL 0
      DOCKED 0
    >
    <ITEM
      POSITION 0
      SNAPOFFS 0
      LENGTH 55
      LOOP 1
      ALLTAKES 0
      FADEIN 1 0 0 1 0 0
      FADEOUT 1 0 0 1 0 0
      MUTE 0
      SEL 0
      YPOS 0.444444 0.111111
      IGUID {797B8E0A-D524-2143-8FC4-49793759300D}
      IID 8
      NAME "rh                   - National_Anthems_-_Czech_Republic.mid"
      VOLPAN 1 0 1 -1
      SOFFS 0 0
      PLAYRATE 1 1 0 -1 0 0.0025
      CHANMODE 0
      TAKECOLOR 26173599
      GUID {60D1D8D9-D478-9B40-A33D-D0BE51D6F6B7}
      <SOURCE MIDI
        HASDATA 1 192 QN
        POOLEDEVTS {4BA0D66F-771F-544B-84CF-9147B9943876}
        <X 0 0
          /wNyaCAgICAgICAgICAgICAgICAgIA==
        >
        e 192 9c 3e 64
        e 0 9c 42 64
        e 0 9c 45 64
        e 382 8c 3e 40
        e 0 8c 42 40
        e 0 8c 45 40
        e 2 9c 3e 64
        e 0 9c 43 64
        e 0 9c 47 64
        e 94 8c 3e 40
        e 0 8c 43 40
        e 0 8c 47 40
        e 2 9c 3e 64
        e 0 9c 42 64
        e 0 9c 45 64
        e 94 8c 3e 40
        e 0 8c 42 40
        e 0 8c 45 40
        e 2 9c 3b 64
        e 0 9c 40 64
        e 190 8c 3b 40
        e 0 8c 40 40
        e 2 9c 3b 64
        e 0 9c 3d 64
        e 0 9c 43 64
        e 382 8c 3b 40
        e 0 8c 3d 40
        e 0 8c 43 40
        e 2 9c 39 64
        e 0 9c 3d 64
        e 0 9c 42 64
        e 94 8c 39 40
        e 0 8c 3d 40
        e 0 8c 42 40
        e 2 9c 37 64
        e 0 9c 40 64
        e 94 8c 37 40
        e 0 8c 40 40
        e 2 9c 36 64
        e 0 9c 3e 64
        e 574 8c 36 40
        e 0 8c 3e 40
        e 2 9c 36 64
        e 0 9c 3c 64
        e 0 9c 3e 64
        e 142 8c 3e 40
        e 48 8c 36 40
        e 0 8c 3c 40
        e 2 9c 3b 64
        e 0 9c 3e 64
        e 94 8c 3b 40
        e 0 8c 3e 40
        e 2 9c 43 64
        e 94 8c 43 40
        e 2 9c 3b 64
        e 0 9c 3e 64
        e 0 9c 43 64
        e 382 8c 3b 40
        e 0 8c 3e 40
        e 0 8c 43 40
        e 2 9c 39 64
        e 0 9c 3e 64
        e 0 9c 45 64
        e 94 8c 39 40
        e 0 8c 3e 40
        e 0 8c 45 40
        e 2 9c 3b 64
        e 0 9c 47 64
        e 94 8c 3b 40
        e 0 8c 47 40
        e 2 9c 39 64
        e 0 9c 3d 64
        e 0 9c 45 64
        e 94 8c 39 40
        e 0 8c 3d 40
        e 0 8c 45 40
        e 2 9c 42 64
        e 94 8c 42 40
        e 2 9c 36 64
        e 0 9c 3b 64
        e 0 9c 3e 64
        e 190 8c 3b 40
        e 192 8c 36 40
        e 0 8c 3e 40
        e 2 9c 36 64
        e 0 9c 39 64
        e 0 9c 3e 64
        e 94 8c 39 40
        e 0 8c 3e 40
        e 2 9c 3e 64
        e 22 8c 36 40
        e 74 8c 3e 40
        e 0 9c 37 64
        e 0 9c 3e 64
        e 94 8c 37 40
        e 0 8c 3e 40
        e 2 9c 43 64
        e 94 8c 43 40
        e 2 9c 3b 64
        e 0 9c 3e 64
        e 0 9c 43 64
        e 94 8c 3b 40
        e 0 8c 3e 40
        e 0 8c 43 40
        e 2 9c 47 64
        e 94 8c 47 40
        e 2 9c 3e 64
        e 0 9c 47 64
        e 0 9c 4a 64
        e 190 8c 3e 40
        e 0 8c 47 40
        e 0 8c 4a 40
        e 2 9c 3d 64
        e 0 9c 45 64
        e 0 9c 49 64
        e 94 8c 3d 40
        e 0 8c 45 40
        e 0 8c 49 40
        e 2 9c 3b 64
        e 0 9c 44 64
        e 0 9c 47 64
        e 94 8c 3b 40
        e 0 8c 44 40
        e 0 8c 47 40
        e 2 9c 3b 64
        e 0 9c 44 64
        e 0 9c 47 64
        e 190 8c 3b 40
        e 0 8c 44 40
        e 0 8c 47 40
        e 2 9c 39 64
        e 0 9c 42 64
        e 0 9c 45 64
        e 94 8c 39 40
        e 2 9c 3b 64
        e 94 8c 3b 40
        e 2 9c 3d 64
        e 190 8c 42 40
        e 0 8c 45 40
        e 2 9c 45 64
        e 142 8c 45 40
        e 2 9c 45 64
        e 46 8c 3d 40
        e 0 8c 45 40
        e 2 9c 3d 64
        e 0 9c 43 64
        e 0 9c 45 64
        e 462 8c 3d 40
        e 0 8c 43 40
        e 0 8c 45 40
        e 18 9c 3b 64
        e 0 9c 43 64
        e 0 9c 47 64
        e 94 8c 3b 40
        e 0 8c 43 40
        e 0 8c 47 40
        e 2 9c 3c 64
        e 0 9c 42 64
        e 0 9c 45 64
        e 94 8c 3c 40
        e 0 8c 42 40
        e 0 8c 45 40
        e 2 9c 3d 64
        e 0 9c 40 64
        e 0 9c 43 64
        e 94 8c 3d 40
        e 0 8c 40 40
        e 0 8c 43 40
        e 2 9c 3e 64
        e 0 9c 42 64
        e 574 8c 3e 40
        e 0 8c 42 40
        e 2 9c 3e 64
        e 0 9c 42 64
        e 0 9c 45 64
        e 142 8c 3e 40
        e 0 8c 42 40
        e 0 8c 45 40
        e 2 9c 45 64
        e 46 8c 45 40
        e 2 9c 40 64
        e 0 9c 43 64
        e 0 9c 49 64
        e 414 8c 40 40
        e 0 8c 43 40
        e 0 8c 49 40
        e 66 9c 3b 64
        e 0 9c 43 64
        e 0 9c 47 64
        e 94 8c 3b 40
        e 0 8c 43 40
        e 0 8c 47 40
        e 2 9c 3c 64
        e 0 9c 42 64
        e 0 9c 45 64
        e 94 8c 3c 40
        e 0 8c 42 40
        e 0 8c 45 40
        e 2 9c 3d 64
        e 0 9c 40 64
        e 0 9c 43 64
        e 94 8c 3d 40
        e 0 8c 40 40
        e 0 8c 43 40
        e 2 9c 3e 64
        e 0 9c 42 64
        e 574 8c 3e 40
        e 0 8c 42 40
        e 2 9c 3a 64
        e 0 9c 40 64
        e 0 9c 42 64
        e 142 8c 42 40
        e 2 9c 42 64
        e 46 8c 3a 40
        e 0 8c 40 40
        e 0 8c 42 40
        e 2 9c 3b 64
        e 0 9c 3e 64
        e 0 9c 42 64
        e 190 8c 3b 40
        e 0 8c 3e 40
        e 2 9c 3b 64
        e 0 9c 3e 64
        e 190 8c 3b 40
        e 0 8c 3e 40
        e 2 9c 3a 64
        e 0 9c 40 64
        e 30 8c 42 40
        e 66 9c 42 64
        e 94 8c 3a 40
        e 0 8c 40 40
        e 0 8c 42 40
        e 2 9c 3e 64
        e 0 9c 42 64
        e 0 9c 44 64
        e 94 8c 3e 40
        e 0 8c 42 40
        e 0 8c 44 40
        e 2 9c 3d 64
        e 0 9c 40 64
        e 0 9c 46 64
        e 94 8c 3d 40
        e 0 8c 40 40
        e 0 8c 46 40
        e 2 9c 3d 64
        e 0 9c 40 64
        e 0 9c 46 64
        e 94 8c 3d 40
        e 0 8c 40 40
        e 0 8c 46 40
        e 2 9c 3b 64
        e 0 9c 3d 64
        e 0 9c 3e 64
        e 0 9c 47 64
        e 94 8c 3b 40
        e 0 8c 3d 40
        e 0 8c 3e 40
        e 0 8c 47 40
        e 2 9c 3b 64
        e 0 9c 3e 64
        e 0 9c 47 64
        e 382 8c 3b 40
        e 0 8c 3e 40
        e 0 8c 47 40
        e 2 9c 3b 64
        e 0 9c 43 64
        e 0 9c 47 64
        e 142 8c 47 40
        e 2 9c 47 64
        e 46 8c 3b 40
        e 0 8c 43 40
        e 0 8c 47 40
        e 2 9c 40 64
        e 0 9c 43 64
        e 0 9c 47 64
        e 94 8c 47 40
        e 2 9c 45 64
        e 94 8c 40 40
        e 0 8c 43 40
        e 0 8c 45 40
        e 2 9c 3d 64
        e 0 9c 43 64
        e 0 9c 45 64
        e 382 8c 3d 40
        e 0 8c 43 40
        e 0 8c 45 40
        e 2 9c 3d 64
        e 0 9c 43 64
        e 94 8c 43 40
        e 96 8c 3d 40
        e 2 9c 3e 64
        e 0 9c 42 64
        e 190 8c 3e 40
        e 0 8c 42 40
        e 2 9c 42 64
        e 0 9c 47 64
        e 0 9c 4a 64
        e 382 8c 42 40
        e 0 8c 47 40
        e 0 8c 4a 40
        e 2 9c 3e 64
        e 0 9c 45 64
        e 0 9c 49 64
        e 94 8c 45 40
        e 0 8c 49 40
        e 2 9c 43 64
        e 0 9c 47 64
        e 94 8c 3e 40
        e 0 8c 43 40
        e 0 8c 47 40
        e 2 9c 3e 64
        e 0 9c 42 64
        e 0 9c 47 64
        e 190 8c 47 40
        e 2 9c 45 64
        e 190 8c 3e 40
        e 0 8c 42 40
        e 192 8c 45 40
        e 2 9c 37 64
        e 0 9c 3d 64
        e 0 9c 40 64
        e 94 8c 37 40
        e 2 9c 42 64
        e 94 8c 3d 40
        e 0 8c 40 40
        e 0 8c 42 40
        e 2 9c 36 64
        e 0 9c 3e 64
        e 382 8c 36 40
        e 0 8c 3e 40
        e 386 9c 42 64
        e 94 8c 42 40
        e 2 9c 44 64
        e 94 8c 44 40
        e 2 9c 3d 64
        e 0 9c 42 64
        e 0 9c 45 64
        e 190 8c 3d 40
        e 0 8c 42 40
        e 0 8c 45 40
        e 2 9c 3d 64
        e 0 9c 42 64
        e 0 9c 45 64
        e 190 8c 3d 40
        e 0 8c 42 40
        e 0 8c 45 40
        e 2 9c 3e 64
        e 0 9c 42 64
        e 0 9c 45 64
        e 94 8c 3e 40
        e 0 8c 42 40
        e 0 8c 45 40
        e 2 9c 3d 64
        e 0 9c 42 64
        e 0 9c 45 64
        e 94 8c 3d 40
        e 0 8c 42 40
        e 0 8c 45 40
        e 2 9c 3b 64
        e 0 9c 42 64
        e 0 9c 44 64
        e 94 8c 3b 40
        e 0 8c 42 40
        e 0 8c 44 40
        e 2 9c 3d 64
        e 0 9c 42 64
        e 0 9c 45 64
        e 94 8c 3d 40
        e 0 8c 42 40
        e 0 8c 45 40
        e 2 9c 3e 64
        e 0 9c 42 64
        e 0 9c 47 64
        e 94 8c 3e 40
        e 0 8c 42 40
        e 0 8c 47 40
        e 2 9c 3d 64
        e 0 9c 42 64
        e 0 9c 45 64
        e 94 8c 3d 40
        e 0 8c 42 40
        e 0 8c 45 40
        e 2 9c 3b 64
        e 0 9c 42 64
        e 0 9c 44 64
        e 94 8c 42 40
        e 2 9c 41 64
        e 94 8c 3b 40
        e 0 8c 44 40
        e 0 8c 41 40
        e 2 9c 39 64
        e 0 9c 3d 64
        e 0 9c 42 64
        e 190 8c 39 40
        e 0 8c 3d 40
        e 0 8c 42 40
        e 2 9c 45 64
        e 94 8c 45 40
        e 2 9c 47 64
        e 94 8c 47 40
        e 2 9c 40 64
        e 0 9c 45 64
        e 0 9c 49 64
        e 190 8c 40 40
        e 0 8c 45 40
        e 0 8c 49 40
        e 2 9c 40 64
        e 0 9c 45 64
        e 0 9c 49 64
        e 190 8c 40 40
        e 0 8c 45 40
        e 0 8c 49 40
        e 2 9c 42 64
        e 0 9c 45 64
        e 0 9c 49 64
        e 94 8c 42 40
        e 0 8c 45 40
        e 0 8c 49 40
        e 2 9c 40 64
        e 0 9c 45 64
        e 0 9c 49 64
        e 94 8c 40 40
        e 0 8c 45 40
        e 0 8c 49 40
        e 2 9c 3e 64
        e 0 9c 45 64
        e 0 9c 47 64
        e 94 8c 3e 40
        e 0 8c 45 40
        e 0 8c 47 40
        e 2 9c 40 64
        e 0 9c 45 64
        e 0 9c 49 64
        e 94 8c 40 40
        e 0 8c 45 40
        e 0 8c 49 40
        e 2 9c 42 64
        e 0 9c 45 64
        e 0 9c 4a 64
        e 94 8c 42 40
        e 0 8c 45 40
        e 0 8c 4a 40
        e 2 9c 40 64
        e 0 9c 45 64
        e 0 9c 49 64
        e 94 8c 40 40
        e 0 8c 45 40
        e 0 8c 49 40
        e 2 9c 3e 64
        e 0 9c 45 64
        e 0 9c 47 64
        e 94 8c 45 40
        e 2 9c 44 64
        e 94 8c 3e 40
        e 0 8c 47 40
        e 0 8c 44 40
        e 2 9c 3d 64
        e 0 9c 40 64
        e 0 9c 45 64
        e 190 8c 3d 40
        e 0 8c 40 40
        e 0 8c 45 40
        e 2 9c 40 64
        e 0 9c 45 64
        e 0 9c 49 64
        e 94 8c 40 40
        e 0 8c 45 40
        e 0 8c 49 40
        e 2 9c 40 64
        e 0 9c 45 64
        e 0 9c 49 64
        e 94 8c 40 40
        e 0 8c 45 40
        e 0 8c 49 40
        e 2 9c 40 64
        e 0 9c 45 64
        e 0 9c 49 64
        e 190 8c 40 40
        e 0 8c 45 40
        e 0 8c 49 40
        e 2 9c 3e 64
        e 0 9c 42 64
        e 0 9c 47 64
        e 190 8c 3e 40
        e 0 8c 42 40
        e 0 8c 47 40
        e 2 9c 3e 64
        e 0 9c 42 64
        e 0 9c 47 64
        e 94 8c 3e 40
        e 0 8c 42 40
        e 0 8c 47 40
        e 2 9c 3e 64
        e 0 9c 42 64
        e 0 9c 47 64
        e 94 8c 3e 40
        e 0 8c 42 40
        e 0 8c 47 40
        e 2 9c 3e 64
        e 0 9c 44 64
        e 0 9c 47 64
        e 94 8c 3e 40
        e 0 8c 44 40
        e 0 8c 47 40
        e 2 9c 40 64
        e 0 9c 44 64
        e 0 9c 49 64
        e 94 8c 40 40
        e 0 8c 44 40
        e 0 8c 49 40
        e 2 9c 3e 64
        e 0 9c 42 64
        e 0 9c 47 64
        e 94 8c 42 40
        e 2 9c 44 64
        e 94 8c 3e 40
        e 0 8c 47 40
        e 0 8c 44 40
        e 2 9c 3d 64
        e 0 9c 42 64
        e 0 9c 45 64
        e 190 8c 3d 40
        e 0 8c 42 40
        e 0 8c 45 40
        e 2 9c 3e 64
        e 0 9c 42 64
        e 0 9c 45 64
        e 94 8c 3e 40
        e 0 8c 42 40
        e 0 8c 45 40
        e 2 9c 3d 64
        e 0 9c 42 64
        e 0 9c 45 64
        e 94 8c 3d 40
        e 0 8c 42 40
        e 0 8c 45 40
        e 2 9c 3b 64
        e 0 9c 42 64
        e 0 9c 44 64
        e 94 8c 3b 40
        e 0 8c 42 40
        e 0 8c 44 40
        e 2 9c 3d 64
        e 0 9c 42 64
        e 0 9c 45 64
        e 94 8c 3d 40
        e 0 8c 42 40
        e 0 8c 45 40
        e 2 9c 3e 64
        e 0 9c 42 64
        e 0 9c 47 64
        e 94 8c 3e 40
        e 0 8c 42 40
        e 0 8c 47 40
        e 2 9c 3d 64
        e 0 9c 42 64
        e 0 9c 45 64
        e 94 8c 3d 40
        e 0 8c 42 40
        e 0 8c 45 40
        e 2 9c 3b 64
        e 0 9c 42 64
        e 0 9c 44 64
        e 94 8c 42 40
        e 2 9c 41 64
        e 94 8c 3b 40
        e 0 8c 44 40
        e 0 8c 41 40
        e 2 9c 39 64
        e 0 9c 3d 64
        e 0 9c 42 64
        e 190 8c 39 40
        e 0 8c 3d 40
        e 0 8c 42 40
        e 2 9c 40 64
        e 0 9c 45 64
        e 0 9c 49 64
        e 94 8c 40 40
        e 0 8c 45 40
        e 0 8c 49 40
        e 2 9c 40 64
        e 0 9c 45 64
        e 0 9c 49 64
        e 94 8c 40 40
        e 0 8c 45 40
        e 0 8c 49 40
        e 2 9c 40 64
        e 0 9c 45 64
        e 0 9c 49 64
        e 190 8c 40 40
        e 0 8c 45 40
        e 0 8c 49 40
        e 2 9c 3e 64
        e 0 9c 42 64
        e 0 9c 47 64
        e 190 8c 3e 40
        e 0 8c 42 40
        e 0 8c 47 40
        e 2 9c 3e 64
        e 0 9c 42 64
        e 0 9c 47 64
        e 94 8c 3e 40
        e 0 8c 42 40
        e 0 8c 47 40
        e 2 9c 3e 64
        e 0 9c 42 64
        e 0 9c 47 64
        e 94 8c 3e 40
        e 0 8c 42 40
        e 0 8c 47 40
        e 2 9c 3e 64
        e 0 9c 44 64
        e 0 9c 47 64
        e 94 8c 3e 40
        e 0 8c 44 40
        e 0 8c 47 40
        e 2 9c 40 64
        e 0 9c 44 64
        e 0 9c 49 64
        e 94 8c 40 40
        e 0 8c 44 40
        e 0 8c 49 40
        e 2 9c 3e 64
        e 0 9c 42 64
        e 0 9c 47 64
        e 94 8c 42 40
        e 2 9c 44 64
        e 94 8c 3e 40
        e 0 8c 47 40
        e 0 8c 44 40
        e 2 9c 3d 64
        e 0 9c 42 64
        e 0 9c 45 64
        e 190 8c 3d 40
        e 0 8c 42 40
        e 0 8c 45 40
        e 2 9c 3e 64
        e 0 9c 42 64
        e 0 9c 45 64
        e 94 8c 3e 40
        e 0 8c 42 40
        e 0 8c 45 40
        e 2 9c 3d 64
        e 0 9c 42 64
        e 0 9c 45 64
        e 94 8c 3d 40
        e 0 8c 42 40
        e 0 8c 45 40
        e 2 9c 3b 64
        e 0 9c 42 64
        e 0 9c 44 64
        e 94 8c 3b 40
        e 0 8c 42 40
        e 0 8c 44 40
        e 2 9c 3d 64
        e 0 9c 42 64
        e 0 9c 45 64
        e 94 8c 3d 40
        e 0 8c 42 40
        e 0 8c 45 40
        e 2 9c 3e 64
        e 0 9c 42 64
        e 0 9c 47 64
        e 94 8c 3e 40
        e 0 8c 42 40
        e 0 8c 47 40
        e 2 9c 3d 64
        e 0 9c 42 64
        e 0 9c 45 64
        e 94 8c 3d 40
        e 0 8c 42 40
        e 0 8c 45 40
        e 2 9c 3b 64
        e 0 9c 42 64
        e 0 9c 44 64
        e 94 8c 42 40
        e 2 9c 41 64
        e 94 8c 3b 40
        e 0 8c 44 40
        e 0 8c 41 40
        e 2 9c 39 64
        e 0 9c 3d 64
        e 0 9c 42 64
        e 575 8c 39 40
        e 0 8c 3d 40
        e 0 8c 42 40
        E 1 b0 7b 00
        GUID {8A0F1FAE-685C-FA46-BD12-7EB95EE923A1}
        IGNTEMPO 0 120 4 4
        SRCCOLOR 620
        VELLANE -1 86 6
        CFGEDITVIEW -899.303226 23.057851 50 16 0 0 0 0 0
        KEYSNAP 0 3 102304056070 0 "Natural minor"
        TRACKSEL 226 0 0 ""
        EVTFILTER 0 -1 -1 -1 -1 0 0 0 0 -1 -1 -1 -1 0 -1 0 -1 -1
        CFGEDIT 1 1 0 0 0 0 1 0 1 1 1 0.25 506 494 1014 762 1 0 1 3 0 0 0 0 0 -1 0 0 1 64
      >
      TAKE
      NAME "rh                   - National_Anthems_-_Czech_Republic.mid"
      TAKEVOLPAN 0 1 -1
      SOFFS 0 0
      PLAYRATE 1 1 0 -1 0 0.0025
      CHANMODE 0
      GUID {C5A89400-5022-8D4B-87BB-636517BCA53B}
      <SOURCE MIDI
        HASDATA 1 192 QN
        POOLEDEVTS {BCBA8761-343B-9843-ADB4-5E27542881A3}
        <X 0 0
          /wNyaCAgICAgICAgICAgICAgICAgIA==
        >
        E 192 9c 45 64
        E 0 9c 3e 64
        E 0 9c 42 64
        E 382 8c 45 40
        E 0 8c 3e 40
        E 0 8c 42 40
        E 2 9c 47 64
        E 0 9c 43 64
        E 0 9c 3e 64
        E 94 8c 47 40
        E 0 8c 43 40
        E 0 8c 3e 40
        E 2 9c 45 64
        E 0 9c 42 64
        E 0 9c 3e 64
        E 94 8c 45 40
        E 0 8c 42 40
        E 0 8c 3e 40
        E 2 9c 40 64
        E 0 9c 3b 64
        E 190 8c 40 40
        E 0 8c 3b 40
        E 2 9c 3b 64
        E 0 9c 43 64
        E 0 9c 3d 64
        E 382 8c 3b 40
        E 0 8c 43 40
        E 0 8c 3d 40
        E 2 9c 42 64
        E 0 9c 39 64
        E 0 9c 3d 64
        E 94 8c 42 40
        E 0 8c 39 40
        E 0 8c 3d 40
        E 2 9c 40 64
        E 0 9c 37 64
        E 94 8c 40 40
        E 0 8c 37 40
        E 2 9c 3e 64
        E 0 9c 36 64
        E 574 8c 3e 40
        E 0 8c 36 40
        E 2 9c 3e 64
        E 0 9c 36 64
        E 0 9c 3c 64
        E 142 8c 3e 40
        E 48 8c 36 40
        E 0 8c 3c 40
        E 2 9c 3b 64
        E 0 9c 3e 64
        E 94 8c 3b 40
        E 0 8c 3e 40
        E 2 9c 43 64
        E 94 8c 43 40
        E 2 9c 3b 64
        E 0 9c 3e 64
        E 0 9c 43 64
        E 382 8c 3b 40
        E 0 8c 3e 40
        E 0 8c 43 40
        E 2 9c 45 64
        E 0 9c 3e 64
        E 0 9c 39 64
        E 94 8c 45 40
        E 0 8c 3e 40
        E 0 8c 39 40
        E 2 9c 47 64
        E 0 9c 3b 64
        E 94 8c 47 40
        E 0 8c 3b 40
        E 2 9c 45 64
        E 0 9c 3d 64
        E 0 9c 39 64
        E 94 8c 45 40
        E 0 8c 3d 40
        E 0 8c 39 40
        E 2 9c 42 64
        E 94 8c 42 40
        E 2 9c 36 64
        E 0 9c 3e 64
        E 0 9c 3b 64
        E 190 8c 3b 40
        E 192 8c 36 40
        E 0 8c 3e 40
        E 2 9c 39 64
        E 0 9c 3e 64
        E 0 9c 36 64
        E 94 8c 39 40
        E 0 8c 3e 40
        E 2 9c 3e 64
        E 22 8c 36 40
        E 74 8c 3e 40
        E 0 9c 3e 64
        E 0 9c 37 64
        E 94 8c 3e 40
        E 0 8c 37 40
        E 2 9c 43 64
        E 94 8c 43 40
        E 2 9c 43 64
        E 0 9c 3e 64
        E 0 9c 3b 64
        E 94 8c 43 40
        E 0 8c 3e 40
        E 0 8c 3b 40
        E 2 9c 47 64
        E 94 8c 47 40
        E 2 9c 47 64
        E 0 9c 3e 64
        E 0 9c 4a 64
        E 190 8c 47 40
        E 0 8c 3e 40
        E 0 8c 4a 40
        E 2 9c 45 64
        E 0 9c 49 64
        E 0 9c 3d 64
        E 94 8c 45 40
        E 0 8c 49 40
        E 0 8c 3d 40
        E 2 9c 44 64
        E 0 9c 47 64
        E 0 9c 3b 64
        E 94 8c 44 40
        E 0 8c 47 40
        E 0 8c 3b 40
        E 2 9c 47 64
        E 0 9c 3b 64
        E 0 9c 44 64
        E 190 8c 47 40
        E 0 8c 3b 40
        E 0 8c 44 40
        E 2 9c 42 64
        E 0 9c 39 64
        E 0 9c 45 64
        E 94 8c 39 40
        E 2 9c 3b 64
        E 94 8c 3b 40
        E 2 9c 3d 64
        E 190 8c 42 40
        E 0 8c 45 40
        E 2 9c 45 64
        E 142 8c 45 40
        E 2 9c 45 64
        E 46 8c 3d 40
        E 0 8c 45 40
        E 2 9c 43 64
        E 0 9c 3d 64
        E 0 9c 45 64
        E 462 8c 43 40
        E 0 8c 3d 40
        E 0 8c 45 40
        E 18 9c 47 64
        E 0 9c 43 64
        E 0 9c 3b 64
        E 94 8c 47 40
        E 0 8c 43 40
        E 0 8c 3b 40
        E 2 9c 45 64
        E 0 9c 42 64
        E 0 9c 3c 64
        E 94 8c 45 40
        E 0 8c 42 40
        E 0 8c 3c 40
        E 2 9c 43 64
        E 0 9c 40 64
        E 0 9c 3d 64
        E 94 8c 43 40
        E 0 8c 40 40
        E 0 8c 3d 40
        E 2 9c 42 64
        E 0 9c 3e 64
        E 574 8c 42 40
        E 0 8c 3e 40
        E 2 9c 45 64
        E 0 9c 3e 64
        E 0 9c 42 64
        E 142 8c 45 40
        E 0 8c 3e 40
        E 0 8c 42 40
        E 2 9c 45 64
        E 46 8c 45 40
        E 2 9c 49 64
        E 0 9c 40 64
        E 0 9c 43 64
        E 414 8c 49 40
        E 0 8c 40 40
        E 0 8c 43 40
        E 66 9c 43 64
        E 0 9c 47 64
        E 0 9c 3b 64
        E 94 8c 43 40
        E 0 8c 47 40
        E 0 8c 3b 40
        E 2 9c 45 64
        E 0 9c 3c 64
        E 0 9c 42 64
        E 94 8c 45 40
        E 0 8c 3c 40
        E 0 8c 42 40
        E 2 9c 3d 64
        E 0 9c 40 64
        E 0 9c 43 64
        E 94 8c 3d 40
        E 0 8c 40 40
        E 0 8c 43 40
        E 2 9c 42 64
        E 0 9c 3e 64
        E 574 8c 42 40
        E 0 8c 3e 40
        E 2 9c 42 64
        E 0 9c 3a 64
        E 0 9c 40 64
        E 142 8c 42 40
        E 2 9c 42 64
        E 46 8c 3a 40
        E 0 8c 40 40
        E 0 8c 42 40
        E 2 9c 42 64
        E 0 9c 3e 64
        E 0 9c 3b 64
        E 190 8c 3e 40
        E 0 8c 3b 40
        E 2 9c 3e 64
        E 0 9c 3b 64
        E 190 8c 3e 40
        E 0 8c 3b 40
        E 2 9c 40 64
        E 0 9c 3a 64
        E 30 8c 42 40
        E 66 9c 42 64
        E 94 8c 40 40
        E 0 8c 3a 40
        E 0 8c 42 40
        E 2 9c 3e 64
        E 0 9c 44 64
        E 0 9c 42 64
        E 94 8c 3e 40
        E 0 8c 44 40
        E 0 8c 42 40
        E 2 9c 40 64
        E 0 9c 3d 64
        E 0 9c 46 64
        E 94 8c 40 40
        E 0 8c 3d 40
        E 0 8c 46 40
        E 2 9c 40 64
        E 0 9c 46 64
        E 0 9c 3d 64
        E 94 8c 40 40
        E 0 8c 46 40
        E 0 8c 3d 40
        E 2 9c 3d 64
        E 0 9c 3e 64
        E 0 9c 47 64
        E 0 9c 3b 64
        E 94 8c 3d 40
        E 0 8c 3e 40
        E 0 8c 47 40
        E 0 8c 3b 40
        E 2 9c 3b 64
        E 0 9c 3e 64
        E 0 9c 47 64
        E 382 8c 3b 40
        E 0 8c 3e 40
        E 0 8c 47 40
        E 2 9c 43 64
        E 0 9c 47 64
        E 0 9c 3b 64
        E 142 8c 47 40
        E 2 9c 47 64
        E 46 8c 43 40
        E 0 8c 3b 40
        E 0 8c 47 40
        E 2 9c 43 64
        E 0 9c 40 64
        E 0 9c 47 64
        E 94 8c 47 40
        E 2 9c 45 64
        E 94 8c 43 40
        E 0 8c 40 40
        E 0 8c 45 40
        E 2 9c 45 64
        E 0 9c 43 64
        E 0 9c 3d 64
        E 382 8c 45 40
        E 0 8c 43 40
        E 0 8c 3d 40
        E 2 9c 3d 64
        E 0 9c 43 64
        E 94 8c 43 40
        E 96 8c 3d 40
        E 2 9c 3e 64
        E 0 9c 42 64
        E 190 8c 3e 40
        E 0 8c 42 40
        E 2 9c 4a 64
        E 0 9c 47 64
        E 0 9c 42 64
        E 382 8c 4a 40
        E 0 8c 47 40
        E 0 8c 42 40
        E 2 9c 49 64
        E 0 9c 45 64
        E 0 9c 3e 64
        E 94 8c 49 40
        E 0 8c 45 40
        E 2 9c 47 64
        E 0 9c 43 64
        E 94 8c 3e 40
        E 0 8c 47 40
        E 0 8c 43 40
        E 2 9c 47 64
        E 0 9c 42 64
        E 0 9c 3e 64
        E 190 8c 47 40
        E 2 9c 45 64
        E 190 8c 42 40
        E 0 8c 3e 40
        E 192 8c 45 40
        E 2 9c 37 64
        E 0 9c 3d 64
        E 0 9c 40 64
        E 94 8c 37 40
        E 2 9c 42 64
        E 94 8c 3d 40
        E 0 8c 40 40
        E 0 8c 42 40
        E 2 9c 36 64
        E 0 9c 3e 64
        E 382 8c 36 40
        E 0 8c 3e 40
        E 386 9c 42 64
        E 94 8c 42 40
        E 2 9c 44 64
        E 94 8c 44 40
        E 2 9c 45 64
        E 0 9c 3d 64
        E 0 9c 42 64
        E 190 8c 45 40
        E 0 8c 3d 40
        E 0 8c 42 40
        E 2 9c 45 64
        E 0 9c 3d 64
        E 0 9c 42 64
        E 190 8c 45 40
        E 0 8c 3d 40
        E 0 8c 42 40
        E 2 9c 45 64
        E 0 9c 3e 64
        E 0 9c 42 64
        E 94 8c 45 40
        E 0 8c 3e 40
        E 0 8c 42 40
        E 2 9c 45 64
        E 0 9c 42 64
        E 0 9c 3d 64
        E 94 8c 45 40
        E 0 8c 42 40
        E 0 8c 3d 40
        E 2 9c 44 64
        E 0 9c 3b 64
        E 0 9c 42 64
        E 94 8c 44 40
        E 0 8c 3b 40
        E 0 8c 42 40
        E 2 9c 3d 64
        E 0 9c 45 64
        E 0 9c 42 64
        E 94 8c 3d 40
        E 0 8c 45 40
        E 0 8c 42 40
        E 2 9c 47 64
        E 0 9c 3e 64
        E 0 9c 42 64
        E 94 8c 47 40
        E 0 8c 3e 40
        E 0 8c 42 40
        E 2 9c 45 64
        E 0 9c 3d 64
        E 0 9c 42 64
        E 94 8c 45 40
        E 0 8c 3d 40
        E 0 8c 42 40
        E 2 9c 44 64
        E 0 9c 42 64
        E 0 9c 3b 64
        E 94 8c 42 40
        E 2 9c 41 64
        E 94 8c 44 40
        E 0 8c 3b 40
        E 0 8c 41 40
        E 2 9c 42 64
        E 0 9c 3d 64
        E 0 9c 39 64
        E 190 8c 42 40
        E 0 8c 3d 40
        E 0 8c 39 40
        E 2 9c 45 64
        E 94 8c 45 40
        E 2 9c 47 64
        E 94 8c 47 40
        E 2 9c 49 64
        E 0 9c 40 64
        E 0 9c 45 64
        E 190 8c 49 40
        E 0 8c 40 40
        E 0 8c 45 40
        E 2 9c 49 64
        E 0 9c 40 64
        E 0 9c 45 64
        E 190 8c 49 40
        E 0 8c 40 40
        E 0 8c 45 40
        E 2 9c 45 64
        E 0 9c 42 64
        E 0 9c 49 64
        E 94 8c 45 40
        E 0 8c 42 40
        E 0 8c 49 40
        E 2 9c 49 64
        E 0 9c 40 64
        E 0 9c 45 64
        E 94 8c 49 40
        E 0 8c 40 40
        E 0 8c 45 40
        E 2 9c 47 64
        E 0 9c 45 64
        E 0 9c 3e 64
        E 94 8c 47 40
        E 0 8c 45 40
        E 0 8c 3e 40
        E 2 9c 45 64
        E 0 9c 49 64
        E 0 9c 40 64
        E 94 8c 45 40
        E 0 8c 49 40
        E 0 8c 40 40
        E 2 9c 42 64
        E 0 9c 4a 64
        E 0 9c 45 64
        E 94 8c 42 40
        E 0 8c 4a 40
        E 0 8c 45 40
        E 2 9c 49 64
        E 0 9c 45 64
        E 0 9c 40 64
        E 94 8c 49 40
        E 0 8c 45 40
        E 0 8c 40 40
        E 2 9c 45 64
        E 0 9c 47 64
        E 0 9c 3e 64
        E 94 8c 45 40
        E 2 9c 44 64
        E 94 8c 47 40
        E 0 8c 3e 40
        E 0 8c 44 40
        E 2 9c 3d 64
        E 0 9c 40 64
        E 0 9c 45 64
        E 190 8c 3d 40
        E 0 8c 40 40
        E 0 8c 45 40
        E 2 9c 45 64
        E 0 9c 49 64
        E 0 9c 40 64
        E 94 8c 45 40
        E 0 8c 49 40
        E 0 8c 40 40
        E 2 9c 45 64
        E 0 9c 40 64
        E 0 9c 49 64
        E 94 8c 45 40
        E 0 8c 40 40
        E 0 8c 49 40
        E 2 9c 40 64
        E 0 9c 49 64
        E 0 9c 45 64
        E 190 8c 40 40
        E 0 8c 49 40
        E 0 8c 45 40
        E 2 9c 47 64
        E 0 9c 42 64
        E 0 9c 3e 64
        E 190 8c 47 40
        E 0 8c 42 40
        E 0 8c 3e 40
        E 2 9c 47 64
        E 0 9c 3e 64
        E 0 9c 42 64
        E 94 8c 47 40
        E 0 8c 3e 40
        E 0 8c 42 40
        E 2 9c 47 64
        E 0 9c 3e 64
        E 0 9c 42 64
        E 94 8c 47 40
        E 0 8c 3e 40
        E 0 8c 42 40
        E 2 9c 47 64
        E 0 9c 3e 64
        E 0 9c 44 64
        E 94 8c 47 40
        E 0 8c 3e 40
        E 0 8c 44 40
        E 2 9c 49 64
        E 0 9c 40 64
        E 0 9c 44 64
        E 94 8c 49 40
        E 0 8c 40 40
        E 0 8c 44 40
        E 2 9c 42 64
        E 0 9c 47 64
        E 0 9c 3e 64
        E 94 8c 42 40
        E 2 9c 44 64
        E 94 8c 47 40
        E 0 8c 3e 40
        E 0 8c 44 40
        E 2 9c 45 64
        E 0 9c 3d 64
        E 0 9c 42 64
        E 190 8c 45 40
        E 0 8c 3d 40
        E 0 8c 42 40
        E 2 9c 45 64
        E 0 9c 3e 64
        E 0 9c 42 64
        E 94 8c 45 40
        E 0 8c 3e 40
        E 0 8c 42 40
        E 2 9c 45 64
        E 0 9c 3d 64
        E 0 9c 42 64
        E 94 8c 45 40
        E 0 8c 3d 40
        E 0 8c 42 40
        E 2 9c 44 64
        E 0 9c 42 64
        E 0 9c 3b 64
        E 94 8c 44 40
        E 0 8c 42 40
        E 0 8c 3b 40
        E 2 9c 45 64
        E 0 9c 3d 64
        E 0 9c 42 64
        E 94 8c 45 40
        E 0 8c 3d 40
        E 0 8c 42 40
        E 2 9c 47 64
        E 0 9c 3e 64
        E 0 9c 42 64
        E 94 8c 47 40
        E 0 8c 3e 40
        E 0 8c 42 40
        E 2 9c 3d 64
        E 0 9c 42 64
        E 0 9c 45 64
        E 94 8c 3d 40
        E 0 8c 42 40
        E 0 8c 45 40
        E 2 9c 44 64
        E 0 9c 42 64
        E 0 9c 3b 64
        E 94 8c 42 40
        E 2 9c 41 64
        E 94 8c 44 40
        E 0 8c 3b 40
        E 0 8c 41 40
        E 2 9c 42 64
        E 0 9c 39 64
        E 0 9c 3d 64
        E 190 8c 42 40
        E 0 8c 39 40
        E 0 8c 3d 40
        E 2 9c 45 64
        E 0 9c 49 64
        E 0 9c 40 64
        E 94 8c 45 40
        E 0 8c 49 40
        E 0 8c 40 40
        E 2 9c 45 64
        E 0 9c 40 64
        E 0 9c 49 64
        E 94 8c 45 40
        E 0 8c 40 40
        E 0 8c 49 40
        E 2 9c 40 64
        E 0 9c 49 64
        E 0 9c 45 64
        E 190 8c 40 40
        E 0 8c 49 40
        E 0 8c 45 40
        E 2 9c 47 64
        E 0 9c 42 64
        E 0 9c 3e 64
        E 190 8c 47 40
        E 0 8c 42 40
        E 0 8c 3e 40
        E 2 9c 47 64
        E 0 9c 3e 64
        E 0 9c 42 64
        E 94 8c 47 40
        E 0 8c 3e 40
        E 0 8c 42 40
        E 2 9c 47 64
        E 0 9c 3e 64
        E 0 9c 42 64
        E 94 8c 47 40
        E 0 8c 3e 40
        E 0 8c 42 40
        E 2 9c 47 64
        E 0 9c 3e 64
        E 0 9c 44 64
        E 94 8c 47 40
        E 0 8c 3e 40
        E 0 8c 44 40
        E 2 9c 49 64
        E 0 9c 40 64
        E 0 9c 44 64
        E 94 8c 49 40
        E 0 8c 40 40
        E 0 8c 44 40
        E 2 9c 42 64
        E 0 9c 47 64
        E 0 9c 3e 64
        E 94 8c 42 40
        E 2 9c 44 64
        E 94 8c 47 40
        E 0 8c 3e 40
        E 0 8c 44 40
        E 2 9c 45 64
        E 0 9c 3d 64
        E 0 9c 42 64
        E 190 8c 45 40
        E 0 8c 3d 40
        E 0 8c 42 40
        E 2 9c 45 64
        E 0 9c 3e 64
        E 0 9c 42 64
        E 94 8c 45 40
        E 0 8c 3e 40
        E 0 8c 42 40
        E 2 9c 45 64
        E 0 9c 3d 64
        E 0 9c 42 64
        E 94 8c 45 40
        E 0 8c 3d 40
        E 0 8c 42 40
        E 2 9c 44 64
        E 0 9c 42 64
        E 0 9c 3b 64
        E 94 8c 44 40
        E 0 8c 42 40
        E 0 8c 3b 40
        E 2 9c 45 64
        E 0 9c 3d 64
        E 0 9c 42 64
        E 94 8c 45 40
        E 0 8c 3d 40
        E 0 8c 42 40
        E 2 9c 47 64
        E 0 9c 3e 64
        E 0 9c 42 64
        E 94 8c 47 40
        E 0 8c 3e 40
        E 0 8c 42 40
        E 2 9c 3d 64
        E 0 9c 42 64
        E 0 9c 45 64
        E 94 8c 3d 40
        E 0 8c 42 40
        E 0 8c 45 40
        E 2 9c 44 64
        E 0 9c 42 64
        E 0 9c 3b 64
        E 94 8c 42 40
        E 2 9c 41 64
        E 94 8c 44 40
        E 0 8c 3b 40
        E 0 8c 41 40
        E 2 9c 42 64
        E 0 9c 39 64
        E 0 9c 3d 64
        E 575 8c 3d 40
        E 0 8c 39 40
        E 0 8c 42 40
        E 1 b0 7b 00
        GUID {80595F54-8F9D-2B4E-B42B-90E13D8CF450}
        IGNTEMPO 0 120 4 4
        SRCCOLOR 674
        VELLANE -1 86 6
      >
    >
  >
  <TRACK {3C494A2B-9670-9740-AD22-E42CC5065FE1}
    NAME "ch2,4 (send)"
    PEAKCOL 16576
    BEAT -1
    AUTOMODE 0
    VOLPAN 1 0 -1 -1 1
    MUTESOLO 0 0 0
    IPHASE 0
    ISBUS 0 0
    BUSCOMP 0 0
    SHOWINMIX 1 0.6667 0.5 1 0.5 -1 -1 -1
    FREEMODE 0
    SEL 0
    REC 0 0 0 0 0 0 0
    VU 2
    MIDICTL -1 1
    TRACKHEIGHT 0 0
    INQ 0 0 0 0.5 100 0 0 100
    NCHAN 2
    FX 1
    TRACKID {3C494A2B-9670-9740-AD22-E42CC5065FE1}
    PERF 0
    MIDIOUT -1
    MAINSEND 1 0
    <FXCHAIN
      WNDRECT 32 359 724 387
      SHOW 0
      LASTSEL 0
      DOCKED 0
    >
    <ITEM
      POSITION 0
      SNAPOFFS 0
      LENGTH 55
      LOOP 1
      ALLTAKES 0
      FADEIN 1 0 0 1 0 0
      FADEOUT 1 0 0 1 0 0
      MUTE 0
      SEL 0
      YPOS 0.555556 0.111111
      IGUID {6B36A02D-D58C-3C49-B67F-96BA23142F32}
      IID 9
      NAME "lh                   - National_Anthems_-_Czech_Republic.mid"
      VOLPAN 1 0 1 -1
      SOFFS 0 0
      PLAYRATE 1 1 0 -1 0 0.0025
      CHANMODE 0
      TAKECOLOR 26173599
      GUID {A1B882EC-B3EC-B546-AAA5-9BDA77B07E23}
      <SOURCE MIDI
        HASDATA 1 192 QN
        POOLEDEVTS {1ADE4AA9-FE56-0947-B346-2DFAD4583FCF}
        <X 0 0
          /wNsaCAgICAgICAgICAgICAgICAgIA==
        >
        E 0 9d 26 64
        E 0 9d 32 64
        E 190 8d 26 40
        E 0 8d 32 40
        E 2 9d 39 64
        E 0 9d 36 64
        E 0 9d 32 64
        E 382 8d 39 40
        E 0 8d 36 40
        E 0 8d 32 40
        E 2 9d 3b 64
        E 0 9d 32 64
        E 0 9d 37 64
        E 94 8d 3b 40
        E 0 8d 32 40
        E 0 8d 37 40
        E 2 9d 39 64
        E 0 9d 36 64
        E 0 9d 32 64
        E 94 8d 39 40
        E 0 8d 36 40
        E 0 8d 32 40
        E 2 9d 37 64
        E 0 9d 34 64
        E 190 8d 37 40
        E 0 8d 34 40
        E 2 9d 2d 64
        E 382 8d 2d 40
        E 2 9d 2d 64
        E 190 8d 2d 40
        E 2 9d 32 64
        E 190 8d 32 40
        E 2 9d 30 64
        E 190 8d 30 40
        E 2 9d 2f 64
        E 190 8d 2f 40
        E 2 9d 2d 64
        E 190 8d 2d 40
        E 2 9d 2b 64
        E 190 8d 2b 40
        E 2 9d 2a 64
        E 190 8d 2a 40
        E 2 9d 28 64
        E 190 8d 28 40
        E 2 9d 2a 64
        E 94 8d 2a 40
        E 2 9d 2b 64
        E 94 8d 2b 40
        E 2 9d 2a 64
        E 190 8d 2a 40
        E 2 9d 2f 64
        E 190 8d 2f 40
        E 2 9d 32 64
        E 190 8d 32 40
        E 2 9d 30 64
        E 190 8d 30 40
        E 2 9d 2f 64
        E 190 8d 2f 40
        E 2 9d 2b 64
        E 190 8d 2b 40
        E 2 9d 28 64
        E 190 8d 28 40
        E 2 9d 29 64
        E 190 8d 29 40
        E 2 9d 2a 64
        E 94 8d 2a 40
        E 2 9d 31 64
        E 94 8d 31 40
        E 2 9d 36 64
        E 94 8d 36 40
        E 2 9d 38 64
        E 94 8d 38 40
        E 2 9d 39 64
        E 190 8d 39 40
        E 2 9d 36 64
        E 190 8d 36 40
        E 2 9d 34 64
        E 94 8d 34 40
        E 2 9d 2d 64
        E 94 8d 2d 40
        E 2 9d 31 64
        E 94 8d 31 40
        E 2 9d 34 64
        E 94 8d 34 40
        E 2 9d 39 64
        E 190 8d 39 40
        E 2 9d 2d 64
        E 190 8d 2d 40
        E 2 9d 26 64
        E 94 8d 26 40
        E 2 9d 2d 64
        E 94 8d 2d 40
        E 2 9d 32 64
        E 94 8d 32 40
        E 2 9d 34 64
        E 94 8d 34 40
        E 2 9d 36 64
        E 190 8d 36 40
        E 2 9d 32 64
        E 190 8d 32 40
        E 2 9d 34 64
        E 94 8d 34 40
        E 2 9d 2d 64
        E 94 8d 2d 40
        E 2 9d 31 64
        E 94 8d 31 40
        E 2 9d 34 64
        E 94 8d 34 40
        E 2 9d 39 64
        E 190 8d 39 40
        E 2 9d 2d 64
        E 190 8d 2d 40
        E 2 9d 26 64
        E 94 8d 26 40
        E 2 9d 2d 64
        E 94 8d 2d 40
        E 2 9d 32 64
        E 94 8d 32 40
        E 2 9d 34 64
        E 94 8d 34 40
        E 2 9d 36 64
        E 94 8d 36 40
        E 2 9d 34 64
        E 94 8d 34 40
        E 2 9d 32 64
        E 94 8d 32 40
        E 2 9d 31 64
        E 94 8d 31 40
        E 2 9d 2f 64
        E 94 8d 2f 40
        E 2 9d 2a 64
        E 94 8d 2a 40
        E 2 9d 2f 64
        E 94 8d 2f 40
        E 2 9d 32 64
        E 94 8d 32 40
        E 2 9d 31 64
        E 190 8d 31 40
        E 2 9d 2a 64
        E 190 8d 2a 40
        E 2 9d 2f 64
        E 94 8d 2f 40
        E 2 9d 2a 64
        E 94 8d 2a 40
        E 2 9d 2f 64
        E 94 8d 2f 40
        E 2 9d 32 64
        E 94 8d 32 40
        E 2 9d 36 64
        E 190 8d 36 40
        E 2 9d 34 64
        E 94 8d 34 40
        E 2 9d 32 64
        E 94 8d 32 40
        E 2 9d 31 64
        E 190 8d 31 40
        E 2 9d 34 64
        E 190 8d 34 40
        E 2 9d 2d 64
        E 190 8d 2d 40
        E 2 9d 34 64
        E 190 8d 34 40
        E 2 9d 2f 64
        E 94 8d 2f 40
        E 2 9d 32 64
        E 94 8d 32 40
        E 2 9d 36 64
        E 94 8d 36 40
        E 2 9d 3b 64
        E 94 8d 3b 40
        E 2 9d 3e 64
        E 190 8d 3e 40
        E 2 9d 2b 64
        E 190 8d 2b 40
        E 2 9d 2f 64
        E 94 8d 2f 40
        E 2 9d 32 64
        E 94 8d 32 40
        E 2 9d 36 64
        E 94 8d 36 40
        E 2 9d 32 64
        E 94 8d 32 40
        E 2 9d 39 64
        E 190 8d 39 40
        E 2 9d 2d 64
        E 190 8d 2d 40
        E 2 9d 32 64
        E 94 8d 32 40
        E 2 9d 2d 64
        E 94 8d 2d 40
        E 2 9d 2a 64
        E 94 8d 2a 40
        E 2 9d 2d 64
        E 94 8d 2d 40
        E 2 9d 26 64
        E 382 8d 26 40
        E 194 9d 2a 64
        E 94 8d 2a 40
        E 2 9d 2c 64
        E 94 8d 2c 40
        E 2 9d 2d 64
        E 190 8d 2d 40
        E 2 9d 2f 64
        E 94 8d 2f 40
        E 2 9d 31 64
        E 94 8d 31 40
        E 2 9d 32 64
        E 94 8d 32 40
        E 2 9d 31 64
        E 94 8d 31 40
        E 2 9d 2f 64
        E 94 8d 2f 40
        E 2 9d 31 64
        E 94 8d 31 40
        E 2 9d 32 64
        E 94 8d 32 40
        E 2 9d 31 64
        E 94 8d 31 40
        E 2 9d 36 64
        E 190 8d 36 40
        E 194 9d 2d 64
        E 94 8d 2d 40
        E 2 9d 2f 64
        E 94 8d 2f 40
        E 2 9d 31 64
        E 190 8d 31 40
        E 2 9d 32 64
        E 94 8d 32 40
        E 2 9d 34 64
        E 94 8d 34 40
        E 2 9d 36 64
        E 94 8d 36 40
        E 2 9d 34 64
        E 94 8d 34 40
        E 2 9d 32 64
        E 94 8d 32 40
        E 2 9d 34 64
        E 94 8d 34 40
        E 2 9d 36 64
        E 94 8d 36 40
        E 2 9d 34 64
        E 94 8d 34 40
        E 2 9d 39 64
        E 190 8d 39 40
        E 2 9d 39 64
        E 94 8d 39 40
        E 2 9d 36 64
        E 94 8d 36 40
        E 2 9d 38 64
        E 94 8d 38 40
        E 2 9d 39 64
        E 94 8d 39 40
        E 2 9d 3b 64
        E 94 8d 3b 40
        E 2 9d 2f 64
        E 94 8d 2f 40
        E 2 9d 31 64
        E 94 8d 31 40
        E 2 9d 32 64
        E 94 8d 32 40
        E 2 9d 34 64
        E 94 8d 34 40
        E 2 9d 31 64
        E 94 8d 31 40
        E 2 9d 32 64
        E 94 8d 32 40
        E 2 9d 34 64
        E 94 8d 34 40
        E 2 9d 36 64
        E 94 8d 36 40
        E 2 9d 2d 64
        E 94 8d 2d 40
        E 2 9d 2f 64
        E 94 8d 2f 40
        E 2 9d 31 64
        E 94 8d 31 40
        E 2 9d 32 64
        E 94 8d 32 40
        E 2 9d 31 64
        E 94 8d 31 40
        E 2 9d 2f 64
        E 94 8d 2f 40
        E 2 9d 31 64
        E 94 8d 31 40
        E 2 9d 32 64
        E 94 8d 32 40
        E 2 9d 31 64
        E 94 8d 31 40
        E 2 9d 2a 64
        E 190 8d 2a 40
        E 2 9d 39 64
        E 94 8d 39 40
        E 2 9d 36 64
        E 94 8d 36 40
        E 2 9d 38 64
        E 94 8d 38 40
        E 2 9d 39 64
        E 94 8d 39 40
        E 2 9d 3b 64
        E 94 8d 3b 40
        E 2 9d 2f 64
        E 94 8d 2f 40
        E 2 9d 31 64
        E 94 8d 31 40
        E 2 9d 32 64
        E 94 8d 32 40
        E 2 9d 34 64
        E 94 8d 34 40
        E 2 9d 31 64
        E 94 8d 31 40
        E 2 9d 32 64
        E 94 8d 32 40
        E 2 9d 34 64
        E 94 8d 34 40
        E 2 9d 36 64
        E 94 8d 36 40
        E 2 9d 2d 64
        E 94 8d 2d 40
        E 2 9d 2f 64
        E 94 8d 2f 40
        E 2 9d 31 64
        E 94 8d 31 40
        E 2 9d 32 64
        E 94 8d 32 40
        E 2 9d 31 64
        E 94 8d 31 40
        E 2 9d 2f 64
        E 94 8d 2f 40
        E 2 9d 31 64
        E 94 8d 31 40
        E 2 9d 32 64
        E 94 8d 32 40
        E 2 9d 31 64
        E 94 8d 31 40
        E 2 9d 2a 64
        E 575 8d 2a 40
        E 1 b0 7b 00
        GUID {FEC44394-8345-7B44-91B0-C8FFD41B867E}
        IGNTEMPO 0 120 4 4
        SRCCOLOR 621
        VELLANE -1 86 6
        CFGEDITVIEW -899.303226 23.057851 50 16 0 0 0 0 0
        KEYSNAP 0 3 102304056070 0 "Natural minor"
        TRACKSEL 226 0 0 ""
        EVTFILTER 0 -1 -1 -1 -1 0 0 0 0 -1 -1 -1 -1 0 -1 0 -1 -1
        CFGEDIT 1 1 0 0 0 0 1 0 1 1 1 0.25 506 494 1014 762 1 0 1 3 0 0 0 0 0 -1 0 0 1 64
      >
      TAKE
      NAME "lh                   - National_Anthems_-_Czech_Republic.mid"
      TAKEVOLPAN 0 1 -1
      SOFFS 0 0
      PLAYRATE 1 1 0 -1 0 0.0025
      CHANMODE 0
      GUID {F81791E8-C100-924C-B659-9929D1D09D0A}
      <SOURCE MIDI
        HASDATA 1 192 QN
        POOLEDEVTS {D4D89734-DE84-5E46-BABF-C3F146F8066A}
        <X 0 0
          /wNsaCAgICAgICAgICAgICAgICAgIA==
        >
        E 0 9d 26 64
        E 0 9d 32 64
        E 190 8d 26 40
        E 0 8d 32 40
        E 2 9d 39 64
        E 0 9d 36 64
        E 0 9d 32 64
        E 382 8d 39 40
        E 0 8d 36 40
        E 0 8d 32 40
        E 2 9d 3b 64
        E 0 9d 32 64
        E 0 9d 37 64
        E 94 8d 3b 40
        E 0 8d 32 40
        E 0 8d 37 40
        E 2 9d 39 64
        E 0 9d 36 64
        E 0 9d 32 64
        E 94 8d 39 40
        E 0 8d 36 40
        E 0 8d 32 40
        E 2 9d 37 64
        E 0 9d 34 64
        E 190 8d 37 40
        E 0 8d 34 40
        E 2 9d 2d 64
        E 382 8d 2d 40
        E 2 9d 2d 64
        E 190 8d 2d 40
        E 2 9d 32 64
        E 190 8d 32 40
        E 2 9d 30 64
        E 190 8d 30 40
        E 2 9d 2f 64
        E 190 8d 2f 40
        E 2 9d 2d 64
        E 190 8d 2d 40
        E 2 9d 2b 64
        E 190 8d 2b 40
        E 2 9d 2a 64
        E 190 8d 2a 40
        E 2 9d 28 64
        E 190 8d 28 40
        E 2 9d 2a 64
        E 94 8d 2a 40
        E 2 9d 2b 64
        E 94 8d 2b 40
        E 2 9d 2a 64
        E 190 8d 2a 40
        E 2 9d 2f 64
        E 190 8d 2f 40
        E 2 9d 32 64
        E 190 8d 32 40
        E 2 9d 30 64
        E 190 8d 30 40
        E 2 9d 2f 64
        E 190 8d 2f 40
        E 2 9d 2b 64
        E 190 8d 2b 40
        E 2 9d 28 64
        E 190 8d 28 40
        E 2 9d 29 64
        E 190 8d 29 40
        E 2 9d 2a 64
        E 94 8d 2a 40
        E 2 9d 31 64
        E 94 8d 31 40
        E 2 9d 36 64
        E 94 8d 36 40
        E 2 9d 38 64
        E 94 8d 38 40
        E 2 9d 39 64
        E 190 8d 39 40
        E 2 9d 36 64
        E 190 8d 36 40
        E 2 9d 34 64
        E 94 8d 34 40
        E 2 9d 2d 64
        E 94 8d 2d 40
        E 2 9d 31 64
        E 94 8d 31 40
        E 2 9d 34 64
        E 94 8d 34 40
        E 2 9d 39 64
        E 190 8d 39 40
        E 2 9d 2d 64
        E 190 8d 2d 40
        E 2 9d 26 64
        E 94 8d 26 40
        E 2 9d 2d 64
        E 94 8d 2d 40
        E 2 9d 32 64
        E 94 8d 32 40
        E 2 9d 34 64
        E 94 8d 34 40
        E 2 9d 36 64
        E 190 8d 36 40
        E 2 9d 32 64
        E 190 8d 32 40
        E 2 9d 34 64
        E 94 8d 34 40
        E 2 9d 2d 64
        E 94 8d 2d 40
        E 2 9d 31 64
        E 94 8d 31 40
        E 2 9d 34 64
        E 94 8d 34 40
        E 2 9d 39 64
        E 190 8d 39 40
        E 2 9d 2d 64
        E 190 8d 2d 40
        E 2 9d 26 64
        E 94 8d 26 40
        E 2 9d 2d 64
        E 94 8d 2d 40
        E 2 9d 32 64
        E 94 8d 32 40
        E 2 9d 34 64
        E 94 8d 34 40
        E 2 9d 36 64
        E 94 8d 36 40
        E 2 9d 34 64
        E 94 8d 34 40
        E 2 9d 32 64
        E 94 8d 32 40
        E 2 9d 31 64
        E 94 8d 31 40
        E 2 9d 2f 64
        E 94 8d 2f 40
        E 2 9d 2a 64
        E 94 8d 2a 40
        E 2 9d 2f 64
        E 94 8d 2f 40
        E 2 9d 32 64
        E 94 8d 32 40
        E 2 9d 31 64
        E 190 8d 31 40
        E 2 9d 2a 64
        E 190 8d 2a 40
        E 2 9d 2f 64
        E 94 8d 2f 40
        E 2 9d 2a 64
        E 94 8d 2a 40
        E 2 9d 2f 64
        E 94 8d 2f 40
        E 2 9d 32 64
        E 94 8d 32 40
        E 2 9d 36 64
        E 190 8d 36 40
        E 2 9d 34 64
        E 94 8d 34 40
        E 2 9d 32 64
        E 94 8d 32 40
        E 2 9d 31 64
        E 190 8d 31 40
        E 2 9d 34 64
        E 190 8d 34 40
        E 2 9d 2d 64
        E 190 8d 2d 40
        E 2 9d 34 64
        E 190 8d 34 40
        E 2 9d 2f 64
        E 94 8d 2f 40
        E 2 9d 32 64
        E 94 8d 32 40
        E 2 9d 36 64
        E 94 8d 36 40
        E 2 9d 3b 64
        E 94 8d 3b 40
        E 2 9d 3e 64
        E 190 8d 3e 40
        E 2 9d 2b 64
        E 190 8d 2b 40
        E 2 9d 2f 64
        E 94 8d 2f 40
        E 2 9d 32 64
        E 94 8d 32 40
        E 2 9d 36 64
        E 94 8d 36 40
        E 2 9d 32 64
        E 94 8d 32 40
        E 2 9d 39 64
        E 190 8d 39 40
        E 2 9d 2d 64
        E 190 8d 2d 40
        E 2 9d 32 64
        E 94 8d 32 40
        E 2 9d 2d 64
        E 94 8d 2d 40
        E 2 9d 2a 64
        E 94 8d 2a 40
        E 2 9d 2d 64
        E 94 8d 2d 40
        E 2 9d 26 64
        E 382 8d 26 40
        E 194 9d 2a 64
        E 94 8d 2a 40
        E 2 9d 2c 64
        E 94 8d 2c 40
        E 2 9d 2d 64
        E 190 8d 2d 40
        E 2 9d 2f 64
        E 94 8d 2f 40
        E 2 9d 31 64
        E 94 8d 31 40
        E 2 9d 32 64
        E 94 8d 32 40
        E 2 9d 31 64
        E 94 8d 31 40
        E 2 9d 2f 64
        E 94 8d 2f 40
        E 2 9d 31 64
        E 94 8d 31 40
        E 2 9d 32 64
        E 94 8d 32 40
        E 2 9d 31 64
        E 94 8d 31 40
        E 2 9d 36 64
        E 190 8d 36 40
        E 194 9d 2d 64
        E 94 8d 2d 40
        E 2 9d 2f 64
        E 94 8d 2f 40
        E 2 9d 31 64
        E 190 8d 31 40
        E 2 9d 32 64
        E 94 8d 32 40
        E 2 9d 34 64
        E 94 8d 34 40
        E 2 9d 36 64
        E 94 8d 36 40
        E 2 9d 34 64
        E 94 8d 34 40
        E 2 9d 32 64
        E 94 8d 32 40
        E 2 9d 34 64
        E 94 8d 34 40
        E 2 9d 36 64
        E 94 8d 36 40
        E 2 9d 34 64
        E 94 8d 34 40
        E 2 9d 39 64
        E 190 8d 39 40
        E 2 9d 39 64
        E 94 8d 39 40
        E 2 9d 36 64
        E 94 8d 36 40
        E 2 9d 38 64
        E 94 8d 38 40
        E 2 9d 39 64
        E 94 8d 39 40
        E 2 9d 3b 64
        E 94 8d 3b 40
        E 2 9d 2f 64
        E 94 8d 2f 40
        E 2 9d 31 64
        E 94 8d 31 40
        E 2 9d 32 64
        E 94 8d 32 40
        E 2 9d 34 64
        E 94 8d 34 40
        E 2 9d 31 64
        E 94 8d 31 40
        E 2 9d 32 64
        E 94 8d 32 40
        E 2 9d 34 64
        E 94 8d 34 40
        E 2 9d 36 64
        E 94 8d 36 40
        E 2 9d 2d 64
        E 94 8d 2d 40
        E 2 9d 2f 64
        E 94 8d 2f 40
        E 2 9d 31 64
        E 94 8d 31 40
        E 2 9d 32 64
        E 94 8d 32 40
        E 2 9d 31 64
        E 94 8d 31 40
        E 2 9d 2f 64
        E 94 8d 2f 40
        E 2 9d 31 64
        E 94 8d 31 40
        E 2 9d 32 64
        E 94 8d 32 40
        E 2 9d 31 64
        E 94 8d 31 40
        E 2 9d 2a 64
        E 190 8d 2a 40
        E 2 9d 39 64
        E 94 8d 39 40
        E 2 9d 36 64
        E 94 8d 36 40
        E 2 9d 38 64
        E 94 8d 38 40
        E 2 9d 39 64
        E 94 8d 39 40
        E 2 9d 3b 64
        E 94 8d 3b 40
        E 2 9d 2f 64
        E 94 8d 2f 40
        E 2 9d 31 64
        E 94 8d 31 40
        E 2 9d 32 64
        E 94 8d 32 40
        E 2 9d 34 64
        E 94 8d 34 40
        E 2 9d 31 64
        E 94 8d 31 40
        E 2 9d 32 64
        E 94 8d 32 40
        E 2 9d 34 64
        E 94 8d 34 40
        E 2 9d 36 64
        E 94 8d 36 40
        E 2 9d 2d 64
        E 94 8d 2d 40
        E 2 9d 2f 64
        E 94 8d 2f 40
        E 2 9d 31 64
        E 94 8d 31 40
        E 2 9d 32 64
        E 94 8d 32 40
        E 2 9d 31 64
        E 94 8d 31 40
        E 2 9d 2f 64
        E 94 8d 2f 40
        E 2 9d 31 64
        E 94 8d 31 40
        E 2 9d 32 64
        E 94 8d 32 40
        E 2 9d 31 64
        E 94 8d 31 40
        E 2 9d 2a 64
        E 575 8d 2a 40
        E 1 b0 7b 00
        GUID {122165D8-0A25-B64E-B65B-F17FAB496BA0}
        IGNTEMPO 0 120 4 4
        SRCCOLOR 675
        VELLANE -1 86 6
      >
    >
  >
  <TRACK {EF869DFD-FA85-EE4D-A133-ABEE14D1B7D0}
    NAME "ch5 (send bass)"
    PEAKCOL 16576
    BEAT -1
    AUTOMODE 0
    VOLPAN 1 0 -1 -1 1
    MUTESOLO 0 0 0
    IPHASE 0
    ISBUS 2 -1
    BUSCOMP 0 0
    SHOWINMIX 1 0.6667 0.5 1 0.5 -1 -1 -1
    FREEMODE 0
    SEL 0
    REC 0 0 0 0 0 0 0
    VU 2
    TRACKHEIGHT 0 0
    INQ 0 0 0 0.5 100 0 0 100
    NCHAN 2
    FX 1
    TRACKID {EF869DFD-FA85-EE4D-A133-ABEE14D1B7D0}
    PERF 0
    MIDIOUT -1
    MAINSEND 1 0
  >
  <TRACK {97C14EE2-C273-C940-9D68-54C062C3CBCA}
    NAME ChipFront
    PEAKCOL 16576
    BEAT -1
    AUTOMODE 0
    VOLPAN 1 0 -1 -1 1
    MUTESOLO 0 0 0
    IPHASE 0
    ISBUS 0 0
    BUSCOMP 0 0
    SHOWINMIX 1 0.6667 0.5 1 0.5 -1 -1 -1
    FREEMODE 0
    SEL 0
    REC 0 0 0 0 0 0 0
    VU 2
    TRACKHEIGHT 0 0
    INQ 0 0 0 0.5 100 0 0 100
    NCHAN 4
    FX 1
    TRACKID {97C14EE2-C273-C940-9D68-54C062C3CBCA}
    PERF 0
    AUXRECV 6 0 1 0 0 0 0 0 0 -1 0 -1 ''
    MIDIOUT -1
    MAINSEND 1 0
    <FXCHAIN
      SHOW 0
      LASTSEL 0
      DOCKED 0
      BYPASS 0 0 0
      <VST "VST: FabFilter Volcano 2 (SC) (FabFilter)" "FabFilter Volcano 2 (SC).vst" 0 "" 1180054068
        NDJWRu9e7f4EAAAAAQAAAAAAAAACAAAAAAAAAAQAAAAAAAAACAAAAAAAAAAEAAAAAQAAAAAAAAACAAAAAAAAAAQAAAAAAAAACAAAAAAAAADcCwAAAAAAAAAAEADvvq3e
        DfCt3gAAAD8AAAA/AAAAPwAAAD8AAIA/AAAAAAAAAD+rqqo+rb5oPwAAAD+KDTI8zczMPQAAAAAAAAAAAAAAAAAAgD8AAIA/Qix2PwAAAD9tsOA9mpkZPwAAAAAAAAAA
        56/fPAAAgD8AAAAAAACAPwAAAD8AAAAAmpkZPwAAAAAAAAAAAAAAAAAAgD8AAAAAAACAPwAAAD8AAAAAmpkZPwAAAAAAAAAAAAAAAAAAgD8AAAAAq6qqPgBOsj4AAAA/
        AAAAAMHKST9ddFE/AAAAAImIiD0AAIA/qheIPgAAAAAAAAAAAAAAAAAAAAAAAIA/AAAAAAAAAD8AAAAAAAAAAAAAAAAAAAA/AAAAAAAAAAAAAAAAAAAAPwAAAAAAAAAA
        AAAAAAAAAD8AAAAAAAAAAAAAAAAAAAA/AAAAAAAAAAAAAAAAAAAAPwAAAAAAAAAAAAAAAAAAAD8AAAAAAAAAAAAAAAAAAAA/AAAAAAAAAAAAAAAAAAAAPwAAAAAAAAAA
        AAAAAAAAAD8AAAAAAAAAAAAAAAAAAAA/AAAAAAAAAAAAAAAAAAAAPwAAAAAAAAAAAAAAAAAAAD8AAAAAAAAAAAAAAAAAAAA/AAAAAAAAAAAAAAAAfBkQPgAAAD8oo7c9
        AACAPwAAAAAAAAAAiYiIPfLSJT8AAAAAAACAPwAAAAB0aNE9AAAAAAAAgD8AAAAAAAAAPwAAAAAAAAAAAAAAAAAAAD8AAAAAAAAAAAAAAAAAAAA/AAAAAAAAAAAAAAAA
        AAAAPwAAAAAAAAAAAAAAAAAAAD8AAAAAAAAAAAAAAAAAAAA/AAAAAAAAAAAAAAAAAAAAPwAAAAAAAAAAAAAAAAAAAD8AAAAAAAAAAAAAAAAAAAA/AAAAAAAAAAAAAAAA
        AAAAPwAAAAAAAAAAAAAAAAAAAD8AAAAAAAAAAAAAAAAAAAA/AAAAAAAAAAAAAAAAAAAAPwAAAAAAAAAAAAAAAAAAAD8AAAAAAAAAAAAAAAC+9H0+AAAAPwAAAD8AAAA/
        AAAAAAAAAACJiIg9AAAAPwAAAAAAAAAAAAAAAAAAAD8AAAAAAAAAAAAAAAAAAAA/AAAAAAAAAAAAAAAAAAAAPwAAAAAAAAAAAAAAAAAAAD8AAAAAAAAAAAAAAAAAAAA/
        AAAAAAAAAAAAAAAAAAAAPwAAAAAAAAAAAAAAAAAAAD8AAAAAAAAAAAAAAAAAAAA/AAAAAAAAAAAAAAAAAAAAPwAAAAAAAAAAAAAAAAAAAD8AAAAAAAAAAAAAAAAAAAA/
        AAAAAAAAAAAAAAAAAAAAPwAAAAAAAAAAAAAAAAAAAD8AAAAAAAAAAAAAAAAAAAA/AAAAAAAAAAAAAAAAAAAAPwAAAAAAAAAAAAAAAL70fT4AAAA/AAAAPwAAAD8AAAAA
        AAAAAImIiD0AAAA/AAAAAAAAAAAAAAAAAAAAPwAAAAAAAAAAAAAAAAAAAD8AAAAAAAAAAAAAAAAAAAA/AAAAAAAAAAAAAAAAAAAAPwAAAAAAAAAAAAAAAAAAAD8AAAAA
        AAAAAAAAAAAAAAA/AAAAAAAAAAAAAAAAAAAAPwAAAAAAAAAAAAAAAAAAAD8AAAAAAAAAAAAAAAAAAAA/AAAAAAAAAAAAAAAAAAAAPwAAAAAAAAAAAAAAAAAAAD8AAAAA
        AAAAAAAAAAAAAAA/AAAAAAAAAAAAAAAAAAAAPwAAAAAAAAAAAAAAAAAAAD8AAAAAAAAAAAAAAAAAAAA/AAAAAAAAAAAAAAAAvvR9PgAAAD8AAAA/AAAAPwAAAAAAAAAA
        iYiIPQAAAD8AAAAAAAAAAAAAAAAAAAA/AAAAAAAAAAAAAAAAAAAAPwAAAAAAAAAAAAAAAAAAAD8AAAAAAAAAAAAAAAAAAAA/AAAAAAAAAAAAAAAAAAAAPwAAAAAAAAAA
        AAAAAAAAAD8AAAAAAAAAAAAAAAAAAAA/AAAAAAAAAAAAAAAAAAAAPwAAAAAAAAAAAAAAAAAAAD8AAAAAAAAAAAAAAAAAAAA/AAAAAAAAAAAAAAAAAAAAPwAAAAAAAAAA
        AAAAAAAAAD8AAAAAAAAAAAAAAAAAAAA/AAAAAAAAAAAAAAAAAAAAPwAAAAAAAAAAAAAAAAAAAD8AAAAAAAAAAAAAAAC+9H0+AAAAPwAAAD8AAAA/AAAAAAAAAACJiIg9
        AAAAPwAAAAAAAAAAAAAAAAAAAD8AAAAAAAAAAAAAAAAAAAA/AAAAAAAAAAAAAAAAAAAAPwAAAAAAAAAAAAAAAAAAAD8AAAAAAAAAAAAAAAAAAAA/AAAAAAAAAAAAAAAA
        AAAAPwAAAAAAAAAAAAAAAAAAAD8AAAAAAAAAAAAAAAAAAAA/AAAAAAAAAAAAAAAAAAAAPwAAAAAAAAAAAAAAAAAAAD8AAAAAAAAAAAAAAAAAAAA/AAAAAAAAAAAAAAAA
        AAAAPwAAAAAAAAAAAAAAAAAAAD8AAAAAAAAAAAAAAAAAAAA/AAAAAAAAAAAAAAAAAAAAPwAAAAAAAAAAAAAAAAAAAACamZk+AAAAAAAAAAAAAAAAAACAPwAAAACamZk+
        AAAAAAAAAAAAAAAAAACAPwAAAACamZk+AAAAAAAAAAAAAAAAAACAPwAAAACamZk+AAAAAAAAAAAAAAAAAACAPwAAAACamZk+AAAAAAAAAAAAAAAAAACAPwAAAACamZk+
        AAAAAAAAAAAAAAAAAACAPwAAAAAAAAAAAAAAAAAAAAAAAAAAAAAAAAAAAAAAAAAAAAAAAAAAAAAAAAAAAAAAAAAAAAAAAAAAAAAAAAAAAAAAAAAAAAAAAAAAAAAAAAAA
        AAAAAAAAAAAAAAAAAAAAAAAAAAAAAAAAAAAAAAAAAAAAAAAAAAAAAAAAAAAAAAAAAAAAAAAAAAAAAAAAAAAAAAAAAAAAAAAAq6oqPdmJnT2BKFY+AAAAAAAAAAC/55Y9
        AAAAAAAAAD8AAAAAAAAAAAAAAAAAAAAAAAAAPwAAAAAAAAAAAAAAAAAAAAAAAAA/AAAAAAAAAAAAAAAAAAAAAAAAAAAAAAAAAAAAAAAAAAAAAAAAAAAAAAAAAAAAAAAA
        AAAAAAAAAAAAAAAAAAAAAAAAAAAAAAAAAAAAAAAAAAAAAAAAAAAAAAAAAAAAAAAAAAAAAAAAAAAAAAAAAAAAAAAAAAAAAAAAAAAAAAAAAAAAAAAAAAAAAAAAAAAAAAAA
        AAAAAAAAAAAAAAAAAAAAAAAAAAAAAAAAAAAAAAAAAAAAAAAAAAAAAAAAAAAAAAAAAAAAAAAAAAAAAAAAAAAAAAAAAAAAAAAAAAAAAAAAAAAAAAAAAAAAAAAAAAAAAAAA
        AAAAAAAAAAAAAAAAAAAAAAAAAAAAAAAAAAAAAAAAAAAAAAAAAAAAAAAAAAAAAAAAAAAAAAAAAAAAAAAAAAAAAAAAAAAAAAAAAAAAAAAAAAAAAAAAAAAAAAAAAAAAAAAA
        AAAAAAAAAAAAAAAAAAAAAAAAAAAAAAAAAAAAAAAAAAAAAAAAAAAAAAAAAAAAAAAAAAAAAAAAAAAAAAAAAAAAAAAAAAAAAAAAAAAAAAAAAAAAAAA/AAAAPwAAAD8AAAA/
        AAAAPwAAAD8AAAA/AAAAPwAAAAAAAAAAAAAAAAAAAAAAAAAAAAAAAAAAAAAAAAAAAAAAAAAAAAAAAAAAAAAAAAAAAAAAAAAAAAAAAAAAAAAAAAAAAAAAAAAAAAAAAAAA
        AAAAAAAAAAAAAAAAAAAAAAAAAAAAAAAAAAAAAAAAAAAAAAAAAAAAAAAAAAAAAAAAAAAAAAAAAAAAAAAAAAAAAAAAAAAAAAAAAAAAAAAAAAAAAAAAAAAAAAAAAAAAAAAA
        AAAAAAAAAAAAAAAAAAAAAAAAAAAAAAAAAAAAAAAAAAAAAAAAAAAAAAAAAAAAAAAAAAAAAAAAAAAAAAAAAAAAAAAAAAAAAAAAAAAAAAAAAAAAAAAAAAAAAAAAAAAAAAAA
        AAAAAAAAAAAAAAAAAAAAAAAAAAAAAAAAAAAAAAAAAAAAAAAAAAAAAAAAAAAAAAAAAAAAAAAAAABDaGlwRnJvbnQAQ2hpcEZyb250ABAAAAA=
      >
      FLOATPOS 36 32 641 529
      FXID {4C5A6810-F3ED-0645-A06D-6758F70CB097}
      WAK 0
    >
  >
  <TRACK {1B564899-9ACC-8C4B-8FBF-925A5A247A13}
    NAME ChipSide
    PEAKCOL 16576
    BEAT -1
    AUTOMODE 0
    VOLPAN 1 0 -1 -1 1
    MUTESOLO 0 0 0
    IPHASE 0
    ISBUS 0 0
    BUSCOMP 0 0
    SHOWINMIX 1 0.6667 0.5 1 0.5 -1 -1 -1
    FREEMODE 0
    SEL 0
    REC 0 0 0 0 0 0 0
    VU 2
    TRACKHEIGHT 0 0
    INQ 0 0 0 0.5 100 0 0 100
    NCHAN 4
    FX 1
    TRACKID {1B564899-9ACC-8C4B-8FBF-925A5A247A13}
    PERF 0
    AUXRECV 6 0 1.03113579563571 0 0 0 0 2 0 -1 0 -1 ''
    MIDIOUT -1
    MAINSEND 1 0
    <FXCHAIN
      SHOW 0
      LASTSEL 0
      DOCKED 0
      BYPASS 0 0 0
      <VST "VST: FabFilter Volcano 2 (SC) (FabFilter)" "FabFilter Volcano 2 (SC).vst" 0 "" 1180054068
        NDJWRu9e7f4EAAAAAQAAAAAAAAACAAAAAAAAAAQAAAAAAAAACAAAAAAAAAAIAAAAAQAAAAAAAAACAAAAAAAAAAQAAAAAAAAACAAAAAAAAAAQAAAAAAAAACAAAAAAAAAA
        QAAAAAAAAACAAAAAAAAAANwLAAAAAAAAAAAQAO++rd4N8K3eAAAAPwAAAD8AAAA/AAAAPwAAgD8AAAAAAACAP6uqqj7KZRQ/AAAAP08aoD3NzMw9AAAAAAAAAABChiI/
        AACAPwAAgD9CLHY/AAAAP22w4D2amRk/AAAAAAAAAADnr988AACAPwAAAAAAAIA/AAAAPwAAAACamRk/AAAAAAAAAAAAAAAAAACAPwAAAAAAAIA/AAAAPwAAAACamRk/
        AAAAAAAAAAAAAAAAAACAPwAAAACrqqo+gnQAPRDmyT2YJ/o+AACAPwAAAAAAAAAAiYgIPgAAgD+zw7Q+AACAPwAAAAAAAAAAAAAAAKuqqj4AAAAAnhUdPwAAAAAAAIA/
        AAAAAAAAAD8AAAAAAAAAAAAAAAAAAAA/AAAAAAAAAAAAAAAAAAAAPwAAAAAAAAAAAAAAAAAAAD8AAAAAAAAAAAAAAAAAAAA/AAAAAAAAAAAAAAAAAAAAPwAAAAAAAAAA
        AAAAAAAAAD8AAAAAAAAAAAAAAAAAAAA/AAAAAAAAAAAAAAAAAAAAPwAAAAAAAAAAAAAAAAAAAD8AAAAAAAAAAAAAAAAAAAA/AAAAAAAAAAAAAAAAAAAAPwAAAAAAAAAA
        AAAAAAAAAD8AAAAAAAAAAAAAAAB8GRA+AAAAPyijtz0AAIA/AAAAAAAAAACJiIg98tIlPwAAAAAAAIA/AAAAAHRo0T0AAAAAAACAPwAAAAAAAAA/AAAAAAAAAAAAAAAA
        AAAAPwAAAAAAAAAAAAAAAAAAAD8AAAAAAAAAAAAAAAAAAAA/AAAAAAAAAAAAAAAAAAAAPwAAAAAAAAAAAAAAAAAAAD8AAAAAAAAAAAAAAAAAAAA/AAAAAAAAAAAAAAAA
        AAAAPwAAAAAAAAAAAAAAAAAAAD8AAAAAAAAAAAAAAAAAAAA/AAAAAAAAAAAAAAAAAAAAPwAAAAAAAAAAAAAAAAAAAD8AAAAAAAAAAAAAAAAAAAA/AAAAAAAAAAAAAAAA
        AAAAPwAAAAAAAAAAAAAAAL70fT4AAAA/AAAAPwAAAD8AAAAAAAAAAImIiD0AAAA/AAAAAAAAAAAAAAAAAAAAPwAAAAAAAAAAAAAAAAAAAD8AAAAAAAAAAAAAAAAAAAA/
        AAAAAAAAAAAAAAAAAAAAPwAAAAAAAAAAAAAAAAAAAD8AAAAAAAAAAAAAAAAAAAA/AAAAAAAAAAAAAAAAAAAAPwAAAAAAAAAAAAAAAAAAAD8AAAAAAAAAAAAAAAAAAAA/
        AAAAAAAAAAAAAAAAAAAAPwAAAAAAAAAAAAAAAAAAAD8AAAAAAAAAAAAAAAAAAAA/AAAAAAAAAAAAAAAAAAAAPwAAAAAAAAAAAAAAAAAAAD8AAAAAAAAAAAAAAAAAAAA/
        AAAAAAAAAAAAAAAAvvR9PgAAAD8AAAA/AAAAPwAAAAAAAAAAiYiIPQAAAD8AAAAAAAAAAAAAAAAAAAA/AAAAAAAAAAAAAAAAAAAAPwAAAAAAAAAAAAAAAAAAAD8AAAAA
        AAAAAAAAAAAAAAA/AAAAAAAAAAAAAAAAAAAAPwAAAAAAAAAAAAAAAAAAAD8AAAAAAAAAAAAAAAAAAAA/AAAAAAAAAAAAAAAAAAAAPwAAAAAAAAAAAAAAAAAAAD8AAAAA
        AAAAAAAAAAAAAAA/AAAAAAAAAAAAAAAAAAAAPwAAAAAAAAAAAAAAAAAAAD8AAAAAAAAAAAAAAAAAAAA/AAAAAAAAAAAAAAAAAAAAPwAAAAAAAAAAAAAAAAAAAD8AAAAA
        AAAAAAAAAAC+9H0+AAAAPwAAAD8AAAA/AAAAAAAAAACJiIg9AAAAPwAAAAAAAAAAAAAAAAAAAD8AAAAAAAAAAAAAAAAAAAA/AAAAAAAAAAAAAAAAAAAAPwAAAAAAAAAA
        AAAAAAAAAD8AAAAAAAAAAAAAAAAAAAA/AAAAAAAAAAAAAAAAAAAAPwAAAAAAAAAAAAAAAAAAAD8AAAAAAAAAAAAAAAAAAAA/AAAAAAAAAAAAAAAAAAAAPwAAAAAAAAAA
        AAAAAAAAAD8AAAAAAAAAAAAAAAAAAAA/AAAAAAAAAAAAAAAAAAAAPwAAAAAAAAAAAAAAAAAAAD8AAAAAAAAAAAAAAAAAAAA/AAAAAAAAAAAAAAAAAAAAPwAAAAAAAAAA
        AAAAAL70fT4AAAA/AAAAPwAAAD8AAAAAAAAAAImIiD0AAAA/AAAAAAAAAAAAAAAAAAAAPwAAAAAAAAAAAAAAAAAAAD8AAAAAAAAAAAAAAAAAAAA/AAAAAAAAAAAAAAAA
        AAAAPwAAAAAAAAAAAAAAAAAAAD8AAAAAAAAAAAAAAAAAAAA/AAAAAAAAAAAAAAAAAAAAPwAAAAAAAAAAAAAAAAAAAD8AAAAAAAAAAAAAAAAAAAA/AAAAAAAAAAAAAAAA
        AAAAPwAAAAAAAAAAAAAAAAAAAD8AAAAAAAAAAAAAAAAAAAA/AAAAAAAAAAAAAAAAAAAAPwAAAAAAAAAAAAAAAAAAAD8AAAAAAAAAAAAAAAAAAAA/AAAAAAAAAAAAAAAA
        AAAAAJqZmT4AAAAAAAAAAAAAAAAAAIA/AAAAAJqZmT4AAAAAAAAAAAAAAAAAAIA/AAAAAJqZmT4AAAAAAAAAAAAAAAAAAIA/AAAAAJqZmT4AAAAAAAAAAAAAAAAAAIA/
        AAAAAJqZmT4AAAAAAAAAAAAAAAAAAIA/AAAAAJqZmT4AAAAAAAAAAAAAAAAAAIA/AAAAAAAAAAAAAAAAAAAAAAAAAAAAAAAAAAAAAAAAAAAAAAAAAAAAAAAAAAAAAAAA
        AAAAAAAAAAAAAAAAAAAAAAAAAAAAAAAAAAAAAAAAAAAAAAAAAAAAAAAAAAAAAAAAAAAAAAAAAAAAAAAAAAAAAAAAAAAAAAAAAAAAAAAAAAAAAAAAAAAAAAAAAAAAAAAA
        AAAAAAAAAACrqqo92YmdPYEoVj4AAIA/AAAAAL/nlj3ZiR09FrMxPwAAAAAAAAAAknYsPAAAAAAAAAA/AAAAAAAAAAAAAAAAAAAAAAAAAD8AAAAAAAAAAAAAAAAAAAAA
        AAAAAAAAAAAAAAAAAAAAAAAAAAAAAAAAAAAAAAAAAAAAAAAAAAAAAAAAAAAAAAAAAAAAAAAAAAAAAAAAAAAAAAAAAAAAAAAAAAAAAAAAAAAAAAAAAAAAAAAAAAAAAAAA
        AAAAAAAAAAAAAAAAAAAAAAAAAAAAAAAAAAAAAAAAAAAAAAAAAAAAAAAAAAAAAAAAAAAAAAAAAAAAAAAAAAAAAAAAAAAAAAAAAAAAAAAAAAAAAAAAAAAAAAAAAAAAAAAA
        AAAAAAAAAAAAAAAAAAAAAAAAAAAAAAAAAAAAAAAAAAAAAAAAAAAAAAAAAAAAAAAAAAAAAAAAAAAAAAAAAAAAAAAAAAAAAAAAAAAAAAAAAAAAAAAAAAAAAAAAAAAAAAAA
        AAAAAAAAAAAAAAAAAAAAAAAAAAAAAAAAAAAAAAAAAAAAAAAAAAAAAAAAAAAAAAAAAAAAAAAAAAAAAAAAAAAAAAAAAAAAAAAAAAAAAAAAAAAAAAAAAAAAAAAAAAAAAAAA
        AAAAAAAAAAAAAAAAAAAAAAAAAD8AAAA/AAAAPwAAAD8AAAA/AAAAPwAAAD8AAAA/AAAAAAAAAAAAAAAAAAAAAAAAAAAAAAAAAAAAAAAAAAAAAAAAAAAAAAAAAAAAAAAA
        AAAAAAAAAAAAAAAAAAAAAAAAAAAAAAAAAAAAAAAAAAAAAAAAAAAAAAAAAAAAAAAAAAAAAAAAAAAAAAAAAAAAAAAAAAAAAAAAAAAAAAAAAAAAAAAAAAAAAAAAAAAAAAAA
        AAAAAAAAAAAAAAAAAAAAAAAAAAAAAAAAAAAAAAAAAAAAAAAAAAAAAAAAAAAAAAAAAAAAAAAAAAAAAAAAAAAAAAAAAAAAAAAAAAAAAAAAAAAAAAAAAAAAAAAAAAAAAAAA
        AAAAAAAAAAAAAAAAAAAAAAAAAAAAAAAAAAAAAAAAAAAAAAAAAAAAAAAAAAAAAAAAAAAAAAAAAAAAAAAAAAAAAAAAAAAAAAAAAAAAAAAAAAAAAAAAAAAAAENoaXBTaWRl
        AENoaXBTaWRlABAAAAA=
      >
      FLOATPOS 36 32 641 529
      FXID {20356A84-5CFD-6E4A-AA26-2A8A49CE7A76}
      WAK 0
    >
  >
  <TRACK {F4CC3575-1D7D-424F-8F4B-C71B325A2484}
    NAME ""
    PEAKCOL 16576
    BEAT -1
    AUTOMODE 0
    VOLPAN 1 0 -1 -1 1
    MUTESOLO 0 0 0
    IPHASE 0
    ISBUS 1 1
    BUSCOMP 0 0
    SHOWINMIX 1 0.6667 0.5 0 0.5 -1 -1 -1
    FREEMODE 0
    SEL 0
    REC 0 0 0 0 0 0 0
    VU 2
    TRACKHEIGHT 0 0
    INQ 0 0 0 0.5 100 0 0 100
    NCHAN 2
    FX 1
    TRACKID {F4CC3575-1D7D-424F-8F4B-C71B325A2484}
    PERF 0
    MIDIOUT -1
    MAINSEND 1 0
    <FXCHAIN
      SHOW 0
      LASTSEL 0
      DOCKED 0
      BYPASS 0 0 0
      <VST "VSTi: chipsounds (Plogue Art et Technologie, Inc)" chipsounds.vst 0 "" 1347176271
        T0dMUO5e7f4AAAAAAgAAAAEAAAAAAAAAAgAAAAAAAABDAgAAAQAAAAAAEABDRUdQFAgAAHic5VXfb9owEH7vX2H5aXtoEidAhgRUjJYJaahoMGlv1ZFcU2uOwxyHtfvr
        5zgJhdGpnrQ97V7sO3/34/PJvtHVYy7IHlXJCzmmzAsouZpcjKaKwxr2eHQ0CEI6uSBGRmvUmsusJN8qEFw/mVNKMlFsQawKYdQopKTUCiE3sEbN4XFtLVMhimT5fkz7
        zJiXi+vFbaWXRYo2ClS6yEGblGtR6DE19ZSJOenXKwgwFkYuCdaZvTIRrXmGUqMa00HQFbKppM0deIEVSvyuehOY8NTGlpBjHdIjq0ohmT3wnR9Ogy/+p1W9kDeVFDzn
        GtO3lGxBfl0YPxYEQ0qSB5ASxZhemrJ3ljYbUKLP8u62dwpkhjXyYNTGVO6KEm0ZeaWbTfn9TkBpeTfV2oqXwGVX8R5EhbZTp7ROgewAPON/CgxdgZErsOcK7LsCB67A
        2BX4zhU4dAWywBnp3Bvm3Bzm3B3m3B72Wn9WoCBv0x9X2g+iYRT/Ftt7xrLw5cgbUBnq9nEmRe6tRJFV6NW/kvdxfutVJarjF2K9ZlVp/o5r0ED00854hmE0MJdd8h9G
        6dU97z4zkw9lyqHZpsbFbDqZN0sY/F05peg3HP+UNPtPSG8UzzJUa/PPo0xQvUqbxSEbdrT78RHt8CXarGXdSqPHdh/N4vnwhMQsiOb/8CJGfj2R2v3N/T0m+nxETfMt
        r2/i1ynUDbUPnxedAySa73FxmJ+NfvM8T1GYFJhuYNsMLxNj5HcTf3LxE/WZBOMAABAAAAA=
      >
      FLOATPOS 404 36 871 509
      FXID {8431A072-55F4-FD4E-8B7D-D2D9F1493C94}
      WAK 0
    >
  >
  <TRACK {65BF5D08-DF3D-EA42-ADEF-5C04FE4BCE10}
    NAME ""
    PEAKCOL 16576
    BEAT -1
    AUTOMODE 0
    VOLPAN 1 0 -1 -1 1
    MUTESOLO 0 0 0
    IPHASE 0
    ISBUS 0 0
    BUSCOMP 0 0
    SHOWINMIX 1 0.6667 0.5 0 0.5 -1 -1 -1
    FREEMODE 0
    SEL 0
    REC 0 0 0 0 0 0 0
    VU 2
    TRACKHEIGHT 0 0
    INQ 0 0 0 0.5 100 0 0 100
    NCHAN 2
    FX 1
    TRACKID {65BF5D08-DF3D-EA42-ADEF-5C04FE4BCE10}
    PERF 0
    MIDIOUT -1
    MAINSEND 1 0
    <ITEM
      POSITION 0
      SNAPOFFS 0
      LENGTH 55
      LOOP 1
      ALLTAKES 0
      FADEIN 1 0 0 1 0 0
      FADEOUT 1 0 0 1 0 0
      MUTE 0
      SEL 0
      YPOS 0 0.111111
      IGUID {EEFAB2DE-F36C-3642-9A40-9838334FF978}
      IID 1
      NAME "Melody               - National_Anthems_-_Czech_Republic.mid"
      VOLPAN 1 0 1 -1
      SOFFS 0 0
      PLAYRATE 1 1 0 -1 0 0.0025
      CHANMODE 0
      GUID {149EAC15-D9E8-0049-8628-8D49336324B6}
      <SOURCE MIDI
        HASDATA 1 192 QN
        POOLEDEVTS {195DBCD5-3A29-164A-A317-BBA2A9D8B3B0}
        <X 0 0
          /wNNZWxvZHkgICAgICAgICAgICAgIA==
        >
        <X 0 0
          /wFmSEUgU09GVFdBUkUgVE9PTFdPUktT
        >
        <X 0 0
          /wFXT1JMRCBBVExBUw==
        >
        <X 0 0
          /wFNdWx0aU1lZGlhIFdpbmRvd3MgVmVyc2lvbg==
        >
        <X 0 0
          /wFDb3VudHJ5Og==
        >
        <X 0 0
          /wFBbnRoZW0gTmFtZTo=
        >
        <X 0 0
          /wEocCkgKGMpIFRoZSBTb2Z0d2FyZSBUb29sd29ya3MgMTk5MQ==
        >
        <X 0 0
          /wFub3Rlczo=
        >
        <X 0 0
          /wFkYXRlOg==
        >
        <X 0 0
          /wFlZGl0IGRhdGU6IDktMi05MQ==
        >
        <X 0 0
          /wFCUE06
        >
        <X 0 0
          /wE/PSBubyBtYXJraW5nICE9IGJwbSBwcm92aWRlZA==
        >
        <X 0 0
          /wFUaGlzIGZpbGUgcHJvdmlkZWQgYnk6
        >
        <X 0 0
          /wFSb2IgV2FsbGFjZSBNdXNpYw==
        >
        <X 0 0
          /wEoNjAyKSA5NzgtMDgzNQ==
        >
        <X 0 0
          /wFuZXcgIzogezYwMn0gOTc5LTYyMDE=
        >
        <X 0 0
          /wFNVUxUSU1FRElBIFdJTkRPV1MgVkVSU0lPTg==
        >
        E 192 90 45 64
        E 382 80 45 40
        E 2 90 47 64
        E 94 80 47 40
        E 2 90 45 64
        E 94 80 45 40
        E 2 90 40 64
        E 190 80 40 40
        E 2 90 43 64
        E 382 80 43 40
        E 2 90 42 64
        E 94 80 42 40
        E 2 90 40 64
        E 94 80 40 40
        E 2 90 3e 64
        E 382 80 3e 40
        E 194 90 3e 64
        E 142 80 3e 40
        E 2 90 3e 64
        E 46 80 3e 40
        E 2 90 3e 64
        E 94 80 3e 40
        E 2 90 43 64
        E 94 80 43 40
        E 2 90 43 64
        E 382 80 43 40
        E 2 90 45 64
        E 94 80 45 40
        E 2 90 47 64
        E 94 80 47 40
        E 2 90 45 64
        E 94 80 45 40
        E 2 90 42 64
        E 94 80 42 40
        E 2 90 3e 64
        E 382 80 3e 40
        E 2 90 3e 64
        E 81 80 3e 40
        E 15 90 3e 64
        E 81 80 3e 40
        E 15 90 3e 64
        E 94 80 3e 40
        E 2 90 43 64
        E 94 80 43 40
        E 2 90 43 64
        E 94 80 43 40
        E 2 90 47 64
        E 94 80 47 40
        E 2 90 4a 64
        E 190 80 4a 40
        E 2 90 49 64
        E 94 80 49 40
        E 2 90 47 64
        E 94 80 47 40
        E 2 90 47 64
        E 190 80 47 40
        E 2 90 45 64
        E 382 80 45 40
        E 2 90 45 64
        E 142 80 45 40
        E 2 90 45 64
        E 46 80 45 40
        E 2 90 45 64
        E 478 80 45 40
        E 2 90 47 64
        E 94 80 47 40
        E 2 90 45 64
        E 94 80 45 40
        E 2 90 43 64
        E 94 80 43 40
        E 2 90 42 64
        E 574 80 42 40
        E 2 90 45 64
        E 142 80 45 40
        E 2 90 45 64
        E 46 80 45 40
        E 2 90 49 64
        E 478 80 49 40
        E 2 90 47 64
        E 94 80 47 40
        E 2 90 45 64
        E 94 80 45 40
        E 2 90 43 64
        E 94 80 43 40
        E 2 90 42 64
        E 382 80 42 40
        E 194 90 42 64
        E 142 80 42 40
        E 2 90 42 64
        E 46 80 42 40
        E 2 90 42 64
        E 478 80 42 40
        E 2 90 42 64
        E 94 80 42 40
        E 2 90 44 64
        E 94 80 44 40
        E 2 90 46 64
        E 94 80 46 40
        E 2 90 46 64
        E 94 80 46 40
        E 2 90 47 64
        E 94 80 47 40
        E 2 90 47 64
        E 382 80 47 40
        E 2 90 47 64
        E 142 80 47 40
        E 2 90 47 64
        E 46 80 47 40
        E 2 90 47 64
        E 94 80 47 40
        E 2 90 45 64
        E 94 80 45 40
        E 2 90 45 64
        E 382 80 45 40
        E 2 90 43 64
        E 94 80 43 40
        E 2 90 45 64
        E 94 80 45 40
        E 2 90 42 64
        E 190 80 42 40
        E 2 90 4a 64
        E 382 80 4a 40
        E 2 90 49 64
        E 94 80 49 40
        E 2 90 47 64
        E 94 80 47 40
        E 2 90 47 64
        E 190 80 47 40
        E 2 90 45 64
        E 382 80 45 40
        E 2 90 40 64
        E 94 80 40 40
        E 2 90 42 64
        E 94 80 42 40
        E 2 90 3e 64
        E 382 80 3e 40
        E 386 90 42 64
        E 94 80 42 40
        E 2 90 44 64
        E 94 80 44 40
        E 2 90 45 64
        E 190 80 45 40
        E 2 90 45 64
        E 190 80 45 40
        E 2 90 45 64
        E 94 80 45 40
        E 2 90 45 64
        E 94 80 45 40
        E 2 90 44 64
        E 94 80 44 40
        E 2 90 45 64
        E 94 80 45 40
        E 2 90 47 64
        E 94 80 47 40
        E 2 90 45 64
        E 94 80 45 40
        E 2 90 44 64
        E 190 80 44 40
        E 2 90 42 64
        E 190 80 42 40
        E 2 90 45 64
        E 94 80 45 40
        E 2 90 47 64
        E 94 80 47 40
        E 2 90 49 64
        E 190 80 49 40
        E 2 90 49 64
        E 190 80 49 40
        E 2 90 49 64
        E 94 80 49 40
        E 2 90 49 64
        E 94 80 49 40
        E 2 90 47 64
        E 94 80 47 40
        E 2 90 49 64
        E 94 80 49 40
        E 2 90 4a 64
        E 94 80 4a 40
        E 2 90 49 64
        E 94 80 49 40
        E 2 90 47 64
        E 190 80 47 40
        E 2 90 45 64
        E 190 80 45 40
        E 2 90 49 64
        E 94 80 49 40
        E 2 90 49 64
        E 94 80 49 40
        E 2 90 49 64
        E 190 80 49 40
        E 2 90 47 64
        E 190 80 47 40
        E 2 90 47 64
        E 94 80 47 40
        E 2 90 47 64
        E 94 80 47 40
        E 2 90 47 64
        E 94 80 47 40
        E 2 90 49 64
        E 94 80 49 40
        E 2 90 47 64
        E 190 80 47 40
        E 2 90 45 64
        E 190 80 45 40
        E 2 90 45 64
        E 94 80 45 40
        E 2 90 45 64
        E 94 80 45 40
        E 2 90 44 64
        E 94 80 44 40
        E 2 90 45 64
        E 94 80 45 40
        E 2 90 47 64
        E 94 80 47 40
        E 2 90 45 64
        E 94 80 45 40
        E 2 90 44 64
        E 190 80 44 40
        E 2 90 42 64
        E 190 80 42 40
        E 2 90 49 64
        E 94 80 49 40
        E 2 90 49 64
        E 94 80 49 40
        E 2 90 49 64
        E 190 80 49 40
        E 2 90 47 64
        E 190 80 47 40
        E 2 90 47 64
        E 94 80 47 40
        E 2 90 47 64
        E 94 80 47 40
        E 2 90 47 64
        E 94 80 47 40
        E 2 90 49 64
        E 94 80 49 40
        E 2 90 47 64
        E 190 80 47 40
        E 2 90 45 64
        E 190 80 45 40
        E 2 90 45 64
        E 94 80 45 40
        E 2 90 45 64
        E 94 80 45 40
        E 2 90 44 64
        E 94 80 44 40
        E 2 90 45 64
        E 94 80 45 40
        E 2 90 47 64
        E 94 80 47 40
        E 2 90 45 64
        E 94 80 45 40
        E 2 90 44 64
        E 190 80 44 40
        E 2 90 42 64
        E 575 80 42 40
        E 1 b0 7b 00
        GUID {F0515AA7-8A51-3542-B11F-E7CB0F51850B}
        IGNTEMPO 0 120 4 4
        SRCCOLOR 613
        VELLANE -1 86 6
      >
    >
  >
  <TRACK {533E5558-895F-AD41-AFED-94D097E72BF2}
    NAME ""
    PEAKCOL 16576
    BEAT -1
    AUTOMODE 0
    VOLPAN 1 0 -1 -1 1
    MUTESOLO 1 0 0
    IPHASE 0
    ISBUS 2 -1
    BUSCOMP 0 0
    SHOWINMIX 1 0.6667 0.5 0 0.5 -1 -1 -1
    FREEMODE 0
    SEL 0
    REC 0 0 0 0 0 0 0
    VU 2
    TRACKHEIGHT 0 0
    INQ 0 0 0 0.5 100 0 0 100
    NCHAN 2
    FX 1
    TRACKID {533E5558-895F-AD41-AFED-94D097E72BF2}
    PERF 0
    MIDIOUT -1
    MAINSEND 1 0
    <ITEM
      POSITION 0
      SNAPOFFS 0
      LENGTH 55
      LOOP 1
      ALLTAKES 0
      FADEIN 1 0 0 1 0 0
      FADEOUT 1 0 0 1 0 0
      MUTE 0
      SEL 0
      YPOS 0.333333 0.111111
      IGUID {74534FFF-F667-2547-B444-3B586A00B21C}
      IID 4
      NAME "Bass                 - National_Anthems_-_Czech_Republic.mid"
      VOLPAN 1 0 1 -1
      SOFFS 0 0
      PLAYRATE 1 1 0 -1 0 0.0025
      CHANMODE 0
      GUID {0584428E-4BC1-A54D-B590-5F56F799317D}
      <SOURCE MIDI
        HASDATA 1 192 QN
        POOLEDEVTS {D765F0FE-6DA2-B041-BBA8-CE6D4AAB3DE8}
        <X 0 0
          /wNCYXNzICAgICAgICAgICAgICAgIA==
        >
        E 0 93 32 64
        E 190 83 32 40
        E 2 93 32 64
        E 382 83 32 40
        E 2 93 32 64
        E 94 83 32 40
        E 2 93 32 64
        E 94 83 32 40
        E 2 93 34 64
        E 190 83 34 40
        E 2 93 2d 64
        E 382 83 2d 40
        E 2 93 2d 64
        E 190 83 2d 40
        E 2 93 32 64
        E 190 83 32 40
        E 2 93 30 64
        E 190 83 30 40
        E 2 93 2f 64
        E 190 83 2f 40
        E 2 93 2d 64
        E 190 83 2d 40
        E 2 93 2b 64
        E 190 83 2b 40
        E 2 93 2a 64
        E 190 83 2a 40
        E 2 93 28 64
        E 190 83 28 40
        E 2 93 2a 64
        E 94 83 2a 40
        E 2 93 2b 64
        E 94 83 2b 40
        E 2 93 2a 64
        E 190 83 2a 40
        E 2 93 2f 64
        E 190 83 2f 40
        E 2 93 32 64
        E 190 83 32 40
        E 2 93 30 64
        E 190 83 30 40
        E 2 93 2f 64
        E 190 83 2f 40
        E 2 93 2b 64
        E 190 83 2b 40
        E 2 93 28 64
        E 190 83 28 40
        E 2 93 29 64
        E 190 83 29 40
        E 2 93 2a 64
        E 94 83 2a 40
        E 2 93 31 64
        E 94 83 31 40
        E 2 93 36 64
        E 94 83 36 40
        E 2 93 38 64
        E 94 83 38 40
        E 2 93 39 64
        E 190 83 39 40
        E 2 93 36 64
        E 190 83 36 40
        E 2 93 34 64
        E 94 83 34 40
        E 2 93 2d 64
        E 94 83 2d 40
        E 2 93 31 64
        E 94 83 31 40
        E 2 93 34 64
        E 94 83 34 40
        E 2 93 39 64
        E 190 83 39 40
        E 2 93 2d 64
        E 190 83 2d 40
        E 2 93 26 64
        E 94 83 26 40
        E 2 93 2d 64
        E 94 83 2d 40
        E 2 93 32 64
        E 94 83 32 40
        E 2 93 34 64
        E 94 83 34 40
        E 2 93 36 64
        E 190 83 36 40
        E 2 93 32 64
        E 190 83 32 40
        E 2 93 34 64
        E 94 83 34 40
        E 2 93 2d 64
        E 94 83 2d 40
        E 2 93 31 64
        E 94 83 31 40
        E 2 93 34 64
        E 94 83 34 40
        E 2 93 39 64
        E 190 83 39 40
        E 2 93 2d 64
        E 190 83 2d 40
        E 2 93 26 64
        E 94 83 26 40
        E 2 93 2d 64
        E 94 83 2d 40
        E 2 93 32 64
        E 94 83 32 40
        E 2 93 34 64
        E 94 83 34 40
        E 2 93 36 64
        E 94 83 36 40
        E 2 93 34 64
        E 94 83 34 40
        E 2 93 32 64
        E 94 83 32 40
        E 2 93 31 64
        E 94 83 31 40
        E 2 93 2f 64
        E 94 83 2f 40
        E 2 93 2a 64
        E 94 83 2a 40
        E 2 93 2f 64
        E 94 83 2f 40
        E 2 93 32 64
        E 94 83 32 40
        E 2 93 31 64
        E 190 83 31 40
        E 2 93 2a 64
        E 190 83 2a 40
        E 2 93 2f 64
        E 94 83 2f 40
        E 2 93 2a 64
        E 94 83 2a 40
        E 2 93 2f 64
        E 94 83 2f 40
        E 2 93 32 64
        E 94 83 32 40
        E 2 93 36 64
        E 190 83 36 40
        E 2 93 34 64
        E 94 83 34 40
        E 2 93 32 64
        E 94 83 32 40
        E 2 93 31 64
        E 190 83 31 40
        E 2 93 34 64
        E 190 83 34 40
        E 2 93 2d 64
        E 190 83 2d 40
        E 2 93 34 64
        E 190 83 34 40
        E 2 93 2f 64
        E 94 83 2f 40
        E 2 93 32 64
        E 94 83 32 40
        E 2 93 36 64
        E 94 83 36 40
        E 2 93 3b 64
        E 94 83 3b 40
        E 2 93 3e 64
        E 190 83 3e 40
        E 2 93 2b 64
        E 190 83 2b 40
        E 2 93 2f 64
        E 94 83 2f 40
        E 2 93 32 64
        E 94 83 32 40
        E 2 93 36 64
        E 94 83 36 40
        E 2 93 32 64
        E 94 83 32 40
        E 2 93 39 64
        E 190 83 39 40
        E 2 93 2d 64
        E 190 83 2d 40
        E 2 93 32 64
        E 94 83 32 40
        E 2 93 2d 64
        E 94 83 2d 40
        E 2 93 2a 64
        E 94 83 2a 40
        E 2 93 2d 64
        E 94 83 2d 40
        E 2 93 26 64
        E 382 83 26 40
        E 194 93 2a 64
        E 94 83 2a 40
        E 2 93 2c 64
        E 94 83 2c 40
        E 2 93 2d 64
        E 190 83 2d 40
        E 2 93 2f 64
        E 94 83 2f 40
        E 2 93 31 64
        E 94 83 31 40
        E 2 93 32 64
        E 94 83 32 40
        E 2 93 31 64
        E 94 83 31 40
        E 2 93 2f 64
        E 94 83 2f 40
        E 2 93 31 64
        E 94 83 31 40
        E 2 93 32 64
        E 94 83 32 40
        E 2 93 31 64
        E 94 83 31 40
        E 2 93 36 64
        E 190 83 36 40
        E 194 93 2d 64
        E 94 83 2d 40
        E 2 93 2f 64
        E 94 83 2f 40
        E 2 93 31 64
        E 190 83 31 40
        E 2 93 32 64
        E 94 83 32 40
        E 2 93 34 64
        E 94 83 34 40
        E 2 93 36 64
        E 94 83 36 40
        E 2 93 34 64
        E 94 83 34 40
        E 2 93 32 64
        E 94 83 32 40
        E 2 93 34 64
        E 94 83 34 40
        E 2 93 36 64
        E 94 83 36 40
        E 2 93 34 64
        E 94 83 34 40
        E 2 93 39 64
        E 190 83 39 40
        E 2 93 39 64
        E 94 83 39 40
        E 2 93 36 64
        E 94 83 36 40
        E 2 93 38 64
        E 94 83 38 40
        E 2 93 39 64
        E 94 83 39 40
        E 2 93 3b 64
        E 94 83 3b 40
        E 2 93 2f 64
        E 94 83 2f 40
        E 2 93 31 64
        E 94 83 31 40
        E 2 93 32 64
        E 94 83 32 40
        E 2 93 34 64
        E 94 83 34 40
        E 2 93 31 64
        E 94 83 31 40
        E 2 93 32 64
        E 94 83 32 40
        E 2 93 34 64
        E 94 83 34 40
        E 2 93 36 64
        E 94 83 36 40
        E 2 93 2d 64
        E 94 83 2d 40
        E 2 93 2f 64
        E 94 83 2f 40
        E 2 93 31 64
        E 94 83 31 40
        E 2 93 32 64
        E 94 83 32 40
        E 2 93 31 64
        E 94 83 31 40
        E 2 93 2f 64
        E 94 83 2f 40
        E 2 93 31 64
        E 94 83 31 40
        E 2 93 32 64
        E 94 83 32 40
        E 2 93 31 64
        E 94 83 31 40
        E 2 93 2a 64
        E 190 83 2a 40
        E 2 93 39 64
        E 94 83 39 40
        E 2 93 36 64
        E 94 83 36 40
        E 2 93 38 64
        E 94 83 38 40
        E 2 93 39 64
        E 94 83 39 40
        E 2 93 3b 64
        E 94 83 3b 40
        E 2 93 2f 64
        E 94 83 2f 40
        E 2 93 31 64
        E 94 83 31 40
        E 2 93 32 64
        E 94 83 32 40
        E 2 93 34 64
        E 94 83 34 40
        E 2 93 31 64
        E 94 83 31 40
        E 2 93 32 64
        E 94 83 32 40
        E 2 93 34 64
        E 94 83 34 40
        E 2 93 36 64
        E 94 83 36 40
        E 2 93 2d 64
        E 94 83 2d 40
        E 2 93 2f 64
        E 94 83 2f 40
        E 2 93 31 64
        E 94 83 31 40
        E 2 93 32 64
        E 94 83 32 40
        E 2 93 31 64
        E 94 83 31 40
        E 2 93 2f 64
        E 94 83 2f 40
        E 2 93 31 64
        E 94 83 31 40
        E 2 93 32 64
        E 94 83 32 40
        E 2 93 31 64
        E 94 83 31 40
        E 2 93 2a 64
        E 575 83 2a 40
        E 1 b0 7b 00
        GUID {EF8451CE-E928-EF4A-B180-9F780CE44211}
        IGNTEMPO 0 120 4 4
        SRCCOLOR 616
        VELLANE -1 86 6
      >
    >
  >
  <TRACK {1B90A1B0-ACCC-6E4A-8D25-5823BFC61C80}
    NAME "22 Czech Republic"
    PEAKCOL 16576
    BEAT -1
    AUTOMODE 0
    VOLPAN 1 0 -1 -1 1
    MUTESOLO 0 0 0
    IPHASE 0
    ISBUS 0 0
    BUSCOMP 0 0
    SHOWINMIX 1 0.6667 0.5 0 0.5 -1 -1 -1
    FREEMODE 0
    SEL 0
    REC 0 0 0 0 0 0 0
    VU 2
    TRACKHEIGHT 0 0
    INQ 0 0 0 0.5 100 0 0 100
    NCHAN 2
    FX 1
    TRACKID {1B90A1B0-ACCC-6E4A-8D25-5823BFC61C80}
    PERF 0
    MIDIOUT -1
    MAINSEND 1 0
  >
  <EXTENSIONS
    <SWSAUTOCOLOR
      {00000000-0000-0000-0000-000000000000} 0 ""
      {49F72B05-4927-6248-8DCB-E69CF65AB3FA} 0 ""
      {F4CC3575-1D7D-424F-8F4B-C71B325A2484} 0 ""
      {65BF5D08-DF3D-EA42-ADEF-5C04FE4BCE10} 0 ""
      {533E5558-895F-AD41-AFED-94D097E72BF2} 0 ""
      {1B90A1B0-ACCC-6E4A-8D25-5823BFC61C80} 0 ""
    >
    <BR_CURSOR_POS 04
      0.00000000000000
    >
  >
>
