<REAPER_PROJECT 0.1 "4.75/OSX64" 1415679630
  RIPPLE 0
  GROUPOVERRIDE 0 0 0
  AUTOXFADE 0
  ENVATTACH 1
  MIXERUIFLAGS 11 52
  PEAKGAIN 1
  FEEDBACK 0
  PANLAW 1
  PROJOFFS 0 0
  MAXPROJLEN 0 600
  GRID 174206 8 1 8 1 0 0
  TIMEMODE 6 0 -1
  PANMODE 3
  CURSOR 0
  ZOOM 9.0528866637983 0 0
  VZOOMEX 39
  USE_REC_CFG 0
  RECMODE 1
  SMPTESYNC 0 23.976024 100 40 1000 300 0 0 1
  LOOP 1
  LOOPGRAN 0 4
  RECORD_PATH "" ""
  <RECORD_CFG
    ZXZhdxAA
  >
  <APPLYFX_CFG
  >
  RENDER_FILE ""
  RENDER_PATTERN ""
  RENDER_FMT 0 2 0
  RENDER_1X 0
  RENDER_RANGE 1 0 0
  RENDER_RESAMPLE 3 0 1
  RENDER_ADDTOPROJ 0
  RENDER_STEMS 0
  RENDER_DITHER 0
  TIMELOCKMODE 1
  TEMPOENVLOCKMODE 1
  ITEMMIX 0
  DEFPITCHMODE 589824
  TAKELANE 3
  SAMPLERATE 44100 0 0
  <RENDER_CFG
  >
  LOCK 1
  <METRONOME 6 2
    VOL 0.25 0.125
    FREQ 800 1600 1
    BEATLEN 4
    SAMPLES "" ""
  >
  GLOBAL_AUTO -1
  TEMPO 120 4 4
  PLAYRATE 1 0 0.25 4
  SELECTION 0 0
  SELECTION2 0 0
  MASTERAUTOMODE 0
  MASTERTRACKHEIGHT 0
  MASTERPEAKCOL 16576
  MASTERMUTESOLO 0
  MASTERTRACKVIEW 0 0.6667 0.5 0.5 -1 -1 -1
  MASTERHWOUT 0 0 1 0 0 0 0 -1
  MASTER_NCH 2 2
  MASTER_VOLUME 1 0 -1 -1 1
  MASTER_FX 1
  MASTER_SEL 0
  <MASTERPLAYSPEEDENV
    ACT 0
    VIS 0 1 1
    LANEHEIGHT 0 0
    ARM 0
    DEFSHAPE 0 -1 -1
  >
  <TEMPOENVEX
    ACT 0
    VIS 1 0 1
    LANEHEIGHT 0 0
    ARM 0
    DEFSHAPE 1 -1 -1
  >
  <PROJBAY
  >
  <TRACK {49F72B05-4927-6248-8DCB-E69CF65AB3FA}
    NAME ""
    PEAKCOL 16576
    BEAT -1
    AUTOMODE 0
    VOLPAN 1 0 -1 -1 1
    MUTESOLO 1 0 0
    IPHASE 0
    ISBUS 0 0
    BUSCOMP 0 0
    SHOWINMIX 1 0.6667 0.5 1 0.5 -1 -1 -1
    FREEMODE 0
    SEL 1
    REC 0 0 0 0 0 0 0
    VU 2
    TRACKHEIGHT 0 0
    INQ 0 0 0 0.5 100 0 0 100
    NCHAN 2
    FX 1
    TRACKID {49F72B05-4927-6248-8DCB-E69CF65AB3FA}
    PERF 0
    MIDIOUT -1
    MAINSEND 1 0
    <ITEM
      POSITION 0
      SNAPOFFS 0
      LENGTH 55
      LOOP 1
      ALLTAKES 0
      FADEIN 1 0 0 1 0 0
      FADEOUT 1 0 0 1 0 0
      MUTE 0
      SEL 0
      YPOS 0.111111 0.111111
      IGUID {CC675639-3391-4D44-94A4-6B865B1F6C24}
      IID 2
      NAME "Accomp. RH           - National_Anthems_-_Czech_Republic.mid"
      VOLPAN 1 0 1 -1
      SOFFS 0 0
      PLAYRATE 1 1 0 -1 0 0.0025
      CHANMODE 0
      GUID {F50486AD-4C93-A64E-B992-287D896EF132}
      <SOURCE MIDI
        HASDATA 1 192 QN
        POOLEDEVTS {33D1E80D-27AE-F845-8491-D02D8C665223}
        <X 0 0
          /wNBY2NvbXAuIFJIICAgICAgICAgIA==
        >
        E 192 91 45 64
        E 0 91 3e 64
        E 0 91 42 64
        E 382 81 45 40
        E 0 81 3e 40
        E 0 81 42 40
        E 2 91 47 64
        E 0 91 43 64
        E 0 91 3e 64
        E 94 81 47 40
        E 0 81 43 40
        E 0 81 3e 40
        E 2 91 45 64
        E 0 91 42 64
        E 0 91 3e 64
        E 94 81 45 40
        E 0 81 42 40
        E 0 81 3e 40
        E 2 91 40 64
        E 0 91 3b 64
        E 190 81 40 40
        E 0 81 3b 40
        E 2 91 3b 64
        E 0 91 43 64
        E 0 91 3d 64
        E 382 81 3b 40
        E 0 81 43 40
        E 0 81 3d 40
        E 2 91 42 64
        E 0 91 39 64
        E 0 91 3d 64
        E 94 81 42 40
        E 0 81 39 40
        E 0 81 3d 40
        E 2 91 40 64
        E 0 91 37 64
        E 94 81 40 40
        E 0 81 37 40
        E 2 91 3e 64
        E 0 91 36 64
        E 574 81 3e 40
        E 0 81 36 40
        E 2 91 3e 64
        E 0 91 36 64
        E 0 91 3c 64
        E 142 81 3e 40
        E 48 81 36 40
        E 0 81 3c 40
        E 2 91 3b 64
        E 0 91 3e 64
        E 94 81 3b 40
        E 0 81 3e 40
        E 2 91 43 64
        E 94 81 43 40
        E 2 91 3b 64
        E 0 91 3e 64
        E 0 91 43 64
        E 382 81 3b 40
        E 0 81 3e 40
        E 0 81 43 40
        E 2 91 45 64
        E 0 91 3e 64
        E 0 91 39 64
        E 94 81 45 40
        E 0 81 3e 40
        E 0 81 39 40
        E 2 91 47 64
        E 0 91 3b 64
        E 94 81 47 40
        E 0 81 3b 40
        E 2 91 45 64
        E 0 91 3d 64
        E 0 91 39 64
        E 94 81 45 40
        E 0 81 3d 40
        E 0 81 39 40
        E 2 91 42 64
        E 94 81 42 40
        E 2 91 36 64
        E 0 91 3e 64
        E 0 91 3b 64
        E 190 81 3b 40
        E 192 81 36 40
        E 0 81 3e 40
        E 2 91 39 64
        E 0 91 3e 64
        E 0 91 36 64
        E 94 81 39 40
        E 0 81 3e 40
        E 2 91 3e 64
        E 22 81 36 40
        E 74 81 3e 40
        E 0 91 3e 64
        E 0 91 37 64
        E 94 81 3e 40
        E 0 81 37 40
        E 2 91 43 64
        E 94 81 43 40
        E 2 91 43 64
        E 0 91 3e 64
        E 0 91 3b 64
        E 94 81 43 40
        E 0 81 3e 40
        E 0 81 3b 40
        E 2 91 47 64
        E 94 81 47 40
        E 2 91 47 64
        E 0 91 3e 64
        E 0 91 4a 64
        E 190 81 47 40
        E 0 81 3e 40
        E 0 81 4a 40
        E 2 91 45 64
        E 0 91 49 64
        E 0 91 3d 64
        E 94 81 45 40
        E 0 81 49 40
        E 0 81 3d 40
        E 2 91 44 64
        E 0 91 47 64
        E 0 91 3b 64
        E 94 81 44 40
        E 0 81 47 40
        E 0 81 3b 40
        E 2 91 47 64
        E 0 91 3b 64
        E 0 91 44 64
        E 190 81 47 40
        E 0 81 3b 40
        E 0 81 44 40
        E 2 91 42 64
        E 0 91 39 64
        E 0 91 45 64
        E 94 81 39 40
        E 2 91 3b 64
        E 94 81 3b 40
        E 2 91 3d 64
        E 190 81 42 40
        E 0 81 45 40
        E 2 91 45 64
        E 142 81 45 40
        E 2 91 45 64
        E 46 81 3d 40
        E 0 81 45 40
        E 2 91 43 64
        E 0 91 3d 64
        E 0 91 45 64
        E 462 81 43 40
        E 0 81 3d 40
        E 0 81 45 40
        E 18 91 47 64
        E 0 91 43 64
        E 0 91 3b 64
        E 94 81 47 40
        E 0 81 43 40
        E 0 81 3b 40
        E 2 91 45 64
        E 0 91 42 64
        E 0 91 3c 64
        E 94 81 45 40
        E 0 81 42 40
        E 0 81 3c 40
        E 2 91 43 64
        E 0 91 40 64
        E 0 91 3d 64
        E 94 81 43 40
        E 0 81 40 40
        E 0 81 3d 40
        E 2 91 42 64
        E 0 91 3e 64
        E 574 81 42 40
        E 0 81 3e 40
        E 2 91 45 64
        E 0 91 3e 64
        E 0 91 42 64
        E 142 81 45 40
        E 0 81 3e 40
        E 0 81 42 40
        E 2 91 45 64
        E 46 81 45 40
        E 2 91 49 64
        E 0 91 40 64
        E 0 91 43 64
        E 414 81 49 40
        E 0 81 40 40
        E 0 81 43 40
        E 66 91 43 64
        E 0 91 47 64
        E 0 91 3b 64
        E 94 81 43 40
        E 0 81 47 40
        E 0 81 3b 40
        E 2 91 45 64
        E 0 91 3c 64
        E 0 91 42 64
        E 94 81 45 40
        E 0 81 3c 40
        E 0 81 42 40
        E 2 91 3d 64
        E 0 91 40 64
        E 0 91 43 64
        E 94 81 3d 40
        E 0 81 40 40
        E 0 81 43 40
        E 2 91 42 64
        E 0 91 3e 64
        E 574 81 42 40
        E 0 81 3e 40
        E 2 91 42 64
        E 0 91 3a 64
        E 0 91 40 64
        E 142 81 42 40
        E 2 91 42 64
        E 46 81 3a 40
        E 0 81 40 40
        E 0 81 42 40
        E 2 91 42 64
        E 0 91 3e 64
        E 0 91 3b 64
        E 190 81 3e 40
        E 0 81 3b 40
        E 2 91 3e 64
        E 0 91 3b 64
        E 190 81 3e 40
        E 0 81 3b 40
        E 2 91 40 64
        E 0 91 3a 64
        E 30 81 42 40
        E 66 91 42 64
        E 94 81 40 40
        E 0 81 3a 40
        E 0 81 42 40
        E 2 91 3e 64
        E 0 91 44 64
        E 0 91 42 64
        E 94 81 3e 40
        E 0 81 44 40
        E 0 81 42 40
        E 2 91 40 64
        E 0 91 3d 64
        E 0 91 46 64
        E 94 81 40 40
        E 0 81 3d 40
        E 0 81 46 40
        E 2 91 40 64
        E 0 91 46 64
        E 0 91 3d 64
        E 94 81 40 40
        E 0 81 46 40
        E 0 81 3d 40
        E 2 91 3d 64
        E 0 91 3e 64
        E 0 91 47 64
        E 0 91 3b 64
        E 94 81 3d 40
        E 0 81 3e 40
        E 0 81 47 40
        E 0 81 3b 40
        E 2 91 3b 64
        E 0 91 3e 64
        E 0 91 47 64
        E 382 81 3b 40
        E 0 81 3e 40
        E 0 81 47 40
        E 2 91 43 64
        E 0 91 47 64
        E 0 91 3b 64
        E 142 81 47 40
        E 2 91 47 64
        E 46 81 43 40
        E 0 81 3b 40
        E 0 81 47 40
        E 2 91 43 64
        E 0 91 40 64
        E 0 91 47 64
        E 94 81 47 40
        E 2 91 45 64
        E 94 81 43 40
        E 0 81 40 40
        E 0 81 45 40
        E 2 91 45 64
        E 0 91 43 64
        E 0 91 3d 64
        E 382 81 45 40
        E 0 81 43 40
        E 0 81 3d 40
        E 2 91 3d 64
        E 0 91 43 64
        E 94 81 43 40
        E 96 81 3d 40
        E 2 91 3e 64
        E 0 91 42 64
        E 190 81 3e 40
        E 0 81 42 40
        E 2 91 4a 64
        E 0 91 47 64
        E 0 91 42 64
        E 382 81 4a 40
        E 0 81 47 40
        E 0 81 42 40
        E 2 91 49 64
        E 0 91 45 64
        E 0 91 3e 64
        E 94 81 49 40
        E 0 81 45 40
        E 2 91 47 64
        E 0 91 43 64
        E 94 81 3e 40
        E 0 81 47 40
        E 0 81 43 40
        E 2 91 47 64
        E 0 91 42 64
        E 0 91 3e 64
        E 190 81 47 40
        E 2 91 45 64
        E 190 81 42 40
        E 0 81 3e 40
        E 192 81 45 40
        E 2 91 37 64
        E 0 91 3d 64
        E 0 91 40 64
        E 94 81 37 40
        E 2 91 42 64
        E 94 81 3d 40
        E 0 81 40 40
        E 0 81 42 40
        E 2 91 36 64
        E 0 91 3e 64
        E 382 81 36 40
        E 0 81 3e 40
        E 386 91 42 64
        E 94 81 42 40
        E 2 91 44 64
        E 94 81 44 40
        E 2 91 45 64
        E 0 91 3d 64
        E 0 91 42 64
        E 190 81 45 40
        E 0 81 3d 40
        E 0 81 42 40
        E 2 91 45 64
        E 0 91 3d 64
        E 0 91 42 64
        E 190 81 45 40
        E 0 81 3d 40
        E 0 81 42 40
        E 2 91 45 64
        E 0 91 3e 64
        E 0 91 42 64
        E 94 81 45 40
        E 0 81 3e 40
        E 0 81 42 40
        E 2 91 45 64
        E 0 91 42 64
        E 0 91 3d 64
        E 94 81 45 40
        E 0 81 42 40
        E 0 81 3d 40
        E 2 91 44 64
        E 0 91 3b 64
        E 0 91 42 64
        E 94 81 44 40
        E 0 81 3b 40
        E 0 81 42 40
        E 2 91 3d 64
        E 0 91 45 64
        E 0 91 42 64
        E 94 81 3d 40
        E 0 81 45 40
        E 0 81 42 40
        E 2 91 47 64
        E 0 91 3e 64
        E 0 91 42 64
        E 94 81 47 40
        E 0 81 3e 40
        E 0 81 42 40
        E 2 91 45 64
        E 0 91 3d 64
        E 0 91 42 64
        E 94 81 45 40
        E 0 81 3d 40
        E 0 81 42 40
        E 2 91 44 64
        E 0 91 42 64
        E 0 91 3b 64
        E 94 81 42 40
        E 2 91 41 64
        E 94 81 44 40
        E 0 81 3b 40
        E 0 81 41 40
        E 2 91 42 64
        E 0 91 3d 64
        E 0 91 39 64
        E 190 81 42 40
        E 0 81 3d 40
        E 0 81 39 40
        E 2 91 45 64
        E 94 81 45 40
        E 2 91 47 64
        E 94 81 47 40
        E 2 91 49 64
        E 0 91 40 64
        E 0 91 45 64
        E 190 81 49 40
        E 0 81 40 40
        E 0 81 45 40
        E 2 91 49 64
        E 0 91 40 64
        E 0 91 45 64
        E 190 81 49 40
        E 0 81 40 40
        E 0 81 45 40
        E 2 91 45 64
        E 0 91 42 64
        E 0 91 49 64
        E 94 81 45 40
        E 0 81 42 40
        E 0 81 49 40
        E 2 91 49 64
        E 0 91 40 64
        E 0 91 45 64
        E 94 81 49 40
        E 0 81 40 40
        E 0 81 45 40
        E 2 91 47 64
        E 0 91 45 64
        E 0 91 3e 64
        E 94 81 47 40
        E 0 81 45 40
        E 0 81 3e 40
        E 2 91 45 64
        E 0 91 49 64
        E 0 91 40 64
        E 94 81 45 40
        E 0 81 49 40
        E 0 81 40 40
        E 2 91 42 64
        E 0 91 4a 64
        E 0 91 45 64
        E 94 81 42 40
        E 0 81 4a 40
        E 0 81 45 40
        E 2 91 49 64
        E 0 91 45 64
        E 0 91 40 64
        E 94 81 49 40
        E 0 81 45 40
        E 0 81 40 40
        E 2 91 45 64
        E 0 91 47 64
        E 0 91 3e 64
        E 94 81 45 40
        E 2 91 44 64
        E 94 81 47 40
        E 0 81 3e 40
        E 0 81 44 40
        E 2 91 3d 64
        E 0 91 40 64
        E 0 91 45 64
        E 190 81 3d 40
        E 0 81 40 40
        E 0 81 45 40
        E 2 91 45 64
        E 0 91 49 64
        E 0 91 40 64
        E 94 81 45 40
        E 0 81 49 40
        E 0 81 40 40
        E 2 91 45 64
        E 0 91 40 64
        E 0 91 49 64
        E 94 81 45 40
        E 0 81 40 40
        E 0 81 49 40
        E 2 91 40 64
        E 0 91 49 64
        E 0 91 45 64
        E 190 81 40 40
        E 0 81 49 40
        E 0 81 45 40
        E 2 91 47 64
        E 0 91 42 64
        E 0 91 3e 64
        E 190 81 47 40
        E 0 81 42 40
        E 0 81 3e 40
        E 2 91 47 64
        E 0 91 3e 64
        E 0 91 42 64
        E 94 81 47 40
        E 0 81 3e 40
        E 0 81 42 40
        E 2 91 47 64
        E 0 91 3e 64
        E 0 91 42 64
        E 94 81 47 40
        E 0 81 3e 40
        E 0 81 42 40
        E 2 91 47 64
        E 0 91 3e 64
        E 0 91 44 64
        E 94 81 47 40
        E 0 81 3e 40
        E 0 81 44 40
        E 2 91 49 64
        E 0 91 40 64
        E 0 91 44 64
        E 94 81 49 40
        E 0 81 40 40
        E 0 81 44 40
        E 2 91 42 64
        E 0 91 47 64
        E 0 91 3e 64
        E 94 81 42 40
        E 2 91 44 64
        E 94 81 47 40
        E 0 81 3e 40
        E 0 81 44 40
        E 2 91 45 64
        E 0 91 3d 64
        E 0 91 42 64
        E 190 81 45 40
        E 0 81 3d 40
        E 0 81 42 40
        E 2 91 45 64
        E 0 91 3e 64
        E 0 91 42 64
        E 94 81 45 40
        E 0 81 3e 40
        E 0 81 42 40
        E 2 91 45 64
        E 0 91 3d 64
        E 0 91 42 64
        E 94 81 45 40
        E 0 81 3d 40
        E 0 81 42 40
        E 2 91 44 64
        E 0 91 42 64
        E 0 91 3b 64
        E 94 81 44 40
        E 0 81 42 40
        E 0 81 3b 40
        E 2 91 45 64
        E 0 91 3d 64
        E 0 91 42 64
        E 94 81 45 40
        E 0 81 3d 40
        E 0 81 42 40
        E 2 91 47 64
        E 0 91 3e 64
        E 0 91 42 64
        E 94 81 47 40
        E 0 81 3e 40
        E 0 81 42 40
        E 2 91 3d 64
        E 0 91 42 64
        E 0 91 45 64
        E 94 81 3d 40
        E 0 81 42 40
        E 0 81 45 40
        E 2 91 44 64
        E 0 91 42 64
        E 0 91 3b 64
        E 94 81 42 40
        E 2 91 41 64
        E 94 81 44 40
        E 0 81 3b 40
        E 0 81 41 40
        E 2 91 42 64
        E 0 91 39 64
        E 0 91 3d 64
        E 190 81 42 40
        E 0 81 39 40
        E 0 81 3d 40
        E 2 91 45 64
        E 0 91 49 64
        E 0 91 40 64
        E 94 81 45 40
        E 0 81 49 40
        E 0 81 40 40
        E 2 91 45 64
        E 0 91 40 64
        E 0 91 49 64
        E 94 81 45 40
        E 0 81 40 40
        E 0 81 49 40
        E 2 91 40 64
        E 0 91 49 64
        E 0 91 45 64
        E 190 81 40 40
        E 0 81 49 40
        E 0 81 45 40
        E 2 91 47 64
        E 0 91 42 64
        E 0 91 3e 64
        E 190 81 47 40
        E 0 81 42 40
        E 0 81 3e 40
        E 2 91 47 64
        E 0 91 3e 64
        E 0 91 42 64
        E 94 81 47 40
        E 0 81 3e 40
        E 0 81 42 40
        E 2 91 47 64
        E 0 91 3e 64
        E 0 91 42 64
        E 94 81 47 40
        E 0 81 3e 40
        E 0 81 42 40
        E 2 91 47 64
        E 0 91 3e 64
        E 0 91 44 64
        E 94 81 47 40
        E 0 81 3e 40
        E 0 81 44 40
        E 2 91 49 64
        E 0 91 40 64
        E 0 91 44 64
        E 94 81 49 40
        E 0 81 40 40
        E 0 81 44 40
        E 2 91 42 64
        E 0 91 47 64
        E 0 91 3e 64
        E 94 81 42 40
        E 2 91 44 64
        E 94 81 47 40
        E 0 81 3e 40
        E 0 81 44 40
        E 2 91 45 64
        E 0 91 3d 64
        E 0 91 42 64
        E 190 81 45 40
        E 0 81 3d 40
        E 0 81 42 40
        E 2 91 45 64
        E 0 91 3e 64
        E 0 91 42 64
        E 94 81 45 40
        E 0 81 3e 40
        E 0 81 42 40
        E 2 91 45 64
        E 0 91 3d 64
        E 0 91 42 64
        E 94 81 45 40
        E 0 81 3d 40
        E 0 81 42 40
        E 2 91 44 64
        E 0 91 42 64
        E 0 91 3b 64
        E 94 81 44 40
        E 0 81 42 40
        E 0 81 3b 40
        E 2 91 45 64
        E 0 91 3d 64
        E 0 91 42 64
        E 94 81 45 40
        E 0 81 3d 40
        E 0 81 42 40
        E 2 91 47 64
        E 0 91 3e 64
        E 0 91 42 64
        E 94 81 47 40
        E 0 81 3e 40
        E 0 81 42 40
        E 2 91 3d 64
        E 0 91 42 64
        E 0 91 45 64
        E 94 81 3d 40
        E 0 81 42 40
        E 0 81 45 40
        E 2 91 44 64
        E 0 91 42 64
        E 0 91 3b 64
        E 94 81 42 40
        E 2 91 41 64
        E 94 81 44 40
        E 0 81 3b 40
        E 0 81 41 40
        E 2 91 42 64
        E 0 91 39 64
        E 0 91 3d 64
        E 575 81 3d 40
        E 0 81 39 40
        E 0 81 42 40
        E 1 b0 7b 00
        GUID {3390A934-AF7E-0743-898E-3604A057D7C6}
        IGNTEMPO 0 120 4 4
        SRCCOLOR 614
        VELLANE -1 86 6
      >
    >
    <ITEM
      POSITION 0
      SNAPOFFS 0
      LENGTH 55
      LOOP 1
      ALLTAKES 0
      FADEIN 1 0 0 1 0 0
      FADEOUT 1 0 0 1 0 0
      MUTE 0
      SEL 0
      YPOS 0.222222 0.111111
      IGUID {F3A46F50-3D61-E244-B3AF-0CC481218FC7}
      IID 3
      NAME "Accomp. LH           - National_Anthems_-_Czech_Republic.mid"
      VOLPAN 1 0 1 -1
      SOFFS 0 0
      PLAYRATE 1 1 0 -1 0 0.0025
      CHANMODE 0
      GUID {0A050380-643E-874E-ACC4-2D63F606B633}
      <SOURCE MIDI
        HASDATA 1 192 QN
        POOLEDEVTS {88D74267-C0C7-8743-89CD-261C6DA98D20}
        <X 0 0
          /wNBY2NvbXAuIExIICAgICAgICAgIA==
        >
        E 0 92 26 64
        E 0 92 32 64
        E 190 82 26 40
        E 0 82 32 40
        E 2 92 39 64
        E 0 92 36 64
        E 0 92 32 64
        E 382 82 39 40
        E 0 82 36 40
        E 0 82 32 40
        E 2 92 3b 64
        E 0 92 32 64
        E 0 92 37 64
        E 94 82 3b 40
        E 0 82 32 40
        E 0 82 37 40
        E 2 92 39 64
        E 0 92 36 64
        E 0 92 32 64
        E 94 82 39 40
        E 0 82 36 40
        E 0 82 32 40
        E 2 92 37 64
        E 0 92 34 64
        E 190 82 37 40
        E 0 82 34 40
        E 2 92 2d 64
        E 382 82 2d 40
        E 2 92 2d 64
        E 190 82 2d 40
        E 2 92 32 64
        E 190 82 32 40
        E 2 92 30 64
        E 190 82 30 40
        E 2 92 2f 64
        E 190 82 2f 40
        E 2 92 2d 64
        E 190 82 2d 40
        E 2 92 2b 64
        E 190 82 2b 40
        E 2 92 2a 64
        E 190 82 2a 40
        E 2 92 28 64
        E 190 82 28 40
        E 2 92 2a 64
        E 94 82 2a 40
        E 2 92 2b 64
        E 94 82 2b 40
        E 2 92 2a 64
        E 190 82 2a 40
        E 2 92 2f 64
        E 190 82 2f 40
        E 2 92 32 64
        E 190 82 32 40
        E 2 92 30 64
        E 190 82 30 40
        E 2 92 2f 64
        E 190 82 2f 40
        E 2 92 2b 64
        E 190 82 2b 40
        E 2 92 28 64
        E 190 82 28 40
        E 2 92 29 64
        E 190 82 29 40
        E 2 92 2a 64
        E 94 82 2a 40
        E 2 92 31 64
        E 94 82 31 40
        E 2 92 36 64
        E 94 82 36 40
        E 2 92 38 64
        E 94 82 38 40
        E 2 92 39 64
        E 190 82 39 40
        E 2 92 36 64
        E 190 82 36 40
        E 2 92 34 64
        E 94 82 34 40
        E 2 92 2d 64
        E 94 82 2d 40
        E 2 92 31 64
        E 94 82 31 40
        E 2 92 34 64
        E 94 82 34 40
        E 2 92 39 64
        E 190 82 39 40
        E 2 92 2d 64
        E 190 82 2d 40
        E 2 92 26 64
        E 94 82 26 40
        E 2 92 2d 64
        E 94 82 2d 40
        E 2 92 32 64
        E 94 82 32 40
        E 2 92 34 64
        E 94 82 34 40
        E 2 92 36 64
        E 190 82 36 40
        E 2 92 32 64
        E 190 82 32 40
        E 2 92 34 64
        E 94 82 34 40
        E 2 92 2d 64
        E 94 82 2d 40
        E 2 92 31 64
        E 94 82 31 40
        E 2 92 34 64
        E 94 82 34 40
        E 2 92 39 64
        E 190 82 39 40
        E 2 92 2d 64
        E 190 82 2d 40
        E 2 92 26 64
        E 94 82 26 40
        E 2 92 2d 64
        E 94 82 2d 40
        E 2 92 32 64
        E 94 82 32 40
        E 2 92 34 64
        E 94 82 34 40
        E 2 92 36 64
        E 94 82 36 40
        E 2 92 34 64
        E 94 82 34 40
        E 2 92 32 64
        E 94 82 32 40
        E 2 92 31 64
        E 94 82 31 40
        E 2 92 2f 64
        E 94 82 2f 40
        E 2 92 2a 64
        E 94 82 2a 40
        E 2 92 2f 64
        E 94 82 2f 40
        E 2 92 32 64
        E 94 82 32 40
        E 2 92 31 64
        E 190 82 31 40
        E 2 92 2a 64
        E 190 82 2a 40
        E 2 92 2f 64
        E 94 82 2f 40
        E 2 92 2a 64
        E 94 82 2a 40
        E 2 92 2f 64
        E 94 82 2f 40
        E 2 92 32 64
        E 94 82 32 40
        E 2 92 36 64
        E 190 82 36 40
        E 2 92 34 64
        E 94 82 34 40
        E 2 92 32 64
        E 94 82 32 40
        E 2 92 31 64
        E 190 82 31 40
        E 2 92 34 64
        E 190 82 34 40
        E 2 92 2d 64
        E 190 82 2d 40
        E 2 92 34 64
        E 190 82 34 40
        E 2 92 2f 64
        E 94 82 2f 40
        E 2 92 32 64
        E 94 82 32 40
        E 2 92 36 64
        E 94 82 36 40
        E 2 92 3b 64
        E 94 82 3b 40
        E 2 92 3e 64
        E 190 82 3e 40
        E 2 92 2b 64
        E 190 82 2b 40
        E 2 92 2f 64
        E 94 82 2f 40
        E 2 92 32 64
        E 94 82 32 40
        E 2 92 36 64
        E 94 82 36 40
        E 2 92 32 64
        E 94 82 32 40
        E 2 92 39 64
        E 190 82 39 40
        E 2 92 2d 64
        E 190 82 2d 40
        E 2 92 32 64
        E 94 82 32 40
        E 2 92 2d 64
        E 94 82 2d 40
        E 2 92 2a 64
        E 94 82 2a 40
        E 2 92 2d 64
        E 94 82 2d 40
        E 2 92 26 64
        E 382 82 26 40
        E 194 92 2a 64
        E 94 82 2a 40
        E 2 92 2c 64
        E 94 82 2c 40
        E 2 92 2d 64
        E 190 82 2d 40
        E 2 92 2f 64
        E 94 82 2f 40
        E 2 92 31 64
        E 94 82 31 40
        E 2 92 32 64
        E 94 82 32 40
        E 2 92 31 64
        E 94 82 31 40
        E 2 92 2f 64
        E 94 82 2f 40
        E 2 92 31 64
        E 94 82 31 40
        E 2 92 32 64
        E 94 82 32 40
        E 2 92 31 64
        E 94 82 31 40
        E 2 92 36 64
        E 190 82 36 40
        E 194 92 2d 64
        E 94 82 2d 40
        E 2 92 2f 64
        E 94 82 2f 40
        E 2 92 31 64
        E 190 82 31 40
        E 2 92 32 64
        E 94 82 32 40
        E 2 92 34 64
        E 94 82 34 40
        E 2 92 36 64
        E 94 82 36 40
        E 2 92 34 64
        E 94 82 34 40
        E 2 92 32 64
        E 94 82 32 40
        E 2 92 34 64
        E 94 82 34 40
        E 2 92 36 64
        E 94 82 36 40
        E 2 92 34 64
        E 94 82 34 40
        E 2 92 39 64
        E 190 82 39 40
        E 2 92 39 64
        E 94 82 39 40
        E 2 92 36 64
        E 94 82 36 40
        E 2 92 38 64
        E 94 82 38 40
        E 2 92 39 64
        E 94 82 39 40
        E 2 92 3b 64
        E 94 82 3b 40
        E 2 92 2f 64
        E 94 82 2f 40
        E 2 92 31 64
        E 94 82 31 40
        E 2 92 32 64
        E 94 82 32 40
        E 2 92 34 64
        E 94 82 34 40
        E 2 92 31 64
        E 94 82 31 40
        E 2 92 32 64
        E 94 82 32 40
        E 2 92 34 64
        E 94 82 34 40
        E 2 92 36 64
        E 94 82 36 40
        E 2 92 2d 64
        E 94 82 2d 40
        E 2 92 2f 64
        E 94 82 2f 40
        E 2 92 31 64
        E 94 82 31 40
        E 2 92 32 64
        E 94 82 32 40
        E 2 92 31 64
        E 94 82 31 40
        E 2 92 2f 64
        E 94 82 2f 40
        E 2 92 31 64
        E 94 82 31 40
        E 2 92 32 64
        E 94 82 32 40
        E 2 92 31 64
        E 94 82 31 40
        E 2 92 2a 64
        E 190 82 2a 40
        E 2 92 39 64
        E 94 82 39 40
        E 2 92 36 64
        E 94 82 36 40
        E 2 92 38 64
        E 94 82 38 40
        E 2 92 39 64
        E 94 82 39 40
        E 2 92 3b 64
        E 94 82 3b 40
        E 2 92 2f 64
        E 94 82 2f 40
        E 2 92 31 64
        E 94 82 31 40
        E 2 92 32 64
        E 94 82 32 40
        E 2 92 34 64
        E 94 82 34 40
        E 2 92 31 64
        E 94 82 31 40
        E 2 92 32 64
        E 94 82 32 40
        E 2 92 34 64
        E 94 82 34 40
        E 2 92 36 64
        E 94 82 36 40
        E 2 92 2d 64
        E 94 82 2d 40
        E 2 92 2f 64
        E 94 82 2f 40
        E 2 92 31 64
        E 94 82 31 40
        E 2 92 32 64
        E 94 82 32 40
        E 2 92 31 64
        E 94 82 31 40
        E 2 92 2f 64
        E 94 82 2f 40
        E 2 92 31 64
        E 94 82 31 40
        E 2 92 32 64
        E 94 82 32 40
        E 2 92 31 64
        E 94 82 31 40
        E 2 92 2a 64
        E 575 82 2a 40
        E 1 b0 7b 00
        GUID {2C2BF260-3948-ED4E-822A-5A50A8136B1D}
        IGNTEMPO 0 120 4 4
        SRCCOLOR 615
        VELLANE -1 86 6
      >
    >
    <ITEM
      POSITION 0
      SNAPOFFS 0
      LENGTH 55
      LOOP 1
      ALLTAKES 0
      FADEIN 1 0 0 1 0 0
      FADEOUT 1 0 0 1 0 0
      MUTE 0
      SEL 0
      YPOS 0.444444 0.111111
      IGUID {C9E90345-F1A4-804A-A5AA-68227D5EB79F}
      IID 8
      NAME "rh                   - National_Anthems_-_Czech_Republic.mid"
      VOLPAN 1 0 1 -1
      SOFFS 0 0
      PLAYRATE 1 1 0 -1 0 0.0025
      CHANMODE 0
      GUID {E4C19821-1399-3C42-9EC0-C19BC4DB9B4E}
      <SOURCE MIDI
        HASDATA 1 192 QN
        POOLEDEVTS {6DC205E5-BA2D-3E4C-8C9F-CF2A9D3454E8}
        <X 0 0
          /wNyaCAgICAgICAgICAgICAgICAgIA==
        >
        E 192 9c 45 64
        E 0 9c 3e 64
        E 0 9c 42 64
        E 382 8c 45 40
        E 0 8c 3e 40
        E 0 8c 42 40
        E 2 9c 47 64
        E 0 9c 43 64
        E 0 9c 3e 64
        E 94 8c 47 40
        E 0 8c 43 40
        E 0 8c 3e 40
        E 2 9c 45 64
        E 0 9c 42 64
        E 0 9c 3e 64
        E 94 8c 45 40
        E 0 8c 42 40
        E 0 8c 3e 40
        E 2 9c 40 64
        E 0 9c 3b 64
        E 190 8c 40 40
        E 0 8c 3b 40
        E 2 9c 3b 64
        E 0 9c 43 64
        E 0 9c 3d 64
        E 382 8c 3b 40
        E 0 8c 43 40
        E 0 8c 3d 40
        E 2 9c 42 64
        E 0 9c 39 64
        E 0 9c 3d 64
        E 94 8c 42 40
        E 0 8c 39 40
        E 0 8c 3d 40
        E 2 9c 40 64
        E 0 9c 37 64
        E 94 8c 40 40
        E 0 8c 37 40
        E 2 9c 3e 64
        E 0 9c 36 64
        E 574 8c 3e 40
        E 0 8c 36 40
        E 2 9c 3e 64
        E 0 9c 36 64
        E 0 9c 3c 64
        E 142 8c 3e 40
        E 48 8c 36 40
        E 0 8c 3c 40
        E 2 9c 3b 64
        E 0 9c 3e 64
        E 94 8c 3b 40
        E 0 8c 3e 40
        E 2 9c 43 64
        E 94 8c 43 40
        E 2 9c 3b 64
        E 0 9c 3e 64
        E 0 9c 43 64
        E 382 8c 3b 40
        E 0 8c 3e 40
        E 0 8c 43 40
        E 2 9c 45 64
        E 0 9c 3e 64
        E 0 9c 39 64
        E 94 8c 45 40
        E 0 8c 3e 40
        E 0 8c 39 40
        E 2 9c 47 64
        E 0 9c 3b 64
        E 94 8c 47 40
        E 0 8c 3b 40
        E 2 9c 45 64
        E 0 9c 3d 64
        E 0 9c 39 64
        E 94 8c 45 40
        E 0 8c 3d 40
        E 0 8c 39 40
        E 2 9c 42 64
        E 94 8c 42 40
        E 2 9c 36 64
        E 0 9c 3e 64
        E 0 9c 3b 64
        E 190 8c 3b 40
        E 192 8c 36 40
        E 0 8c 3e 40
        E 2 9c 39 64
        E 0 9c 3e 64
        E 0 9c 36 64
        E 94 8c 39 40
        E 0 8c 3e 40
        E 2 9c 3e 64
        E 22 8c 36 40
        E 74 8c 3e 40
        E 0 9c 3e 64
        E 0 9c 37 64
        E 94 8c 3e 40
        E 0 8c 37 40
        E 2 9c 43 64
        E 94 8c 43 40
        E 2 9c 43 64
        E 0 9c 3e 64
        E 0 9c 3b 64
        E 94 8c 43 40
        E 0 8c 3e 40
        E 0 8c 3b 40
        E 2 9c 47 64
        E 94 8c 47 40
        E 2 9c 47 64
        E 0 9c 3e 64
        E 0 9c 4a 64
        E 190 8c 47 40
        E 0 8c 3e 40
        E 0 8c 4a 40
        E 2 9c 45 64
        E 0 9c 49 64
        E 0 9c 3d 64
        E 94 8c 45 40
        E 0 8c 49 40
        E 0 8c 3d 40
        E 2 9c 44 64
        E 0 9c 47 64
        E 0 9c 3b 64
        E 94 8c 44 40
        E 0 8c 47 40
        E 0 8c 3b 40
        E 2 9c 47 64
        E 0 9c 3b 64
        E 0 9c 44 64
        E 190 8c 47 40
        E 0 8c 3b 40
        E 0 8c 44 40
        E 2 9c 42 64
        E 0 9c 39 64
        E 0 9c 45 64
        E 94 8c 39 40
        E 2 9c 3b 64
        E 94 8c 3b 40
        E 2 9c 3d 64
        E 190 8c 42 40
        E 0 8c 45 40
        E 2 9c 45 64
        E 142 8c 45 40
        E 2 9c 45 64
        E 46 8c 3d 40
        E 0 8c 45 40
        E 2 9c 43 64
        E 0 9c 3d 64
        E 0 9c 45 64
        E 462 8c 43 40
        E 0 8c 3d 40
        E 0 8c 45 40
        E 18 9c 47 64
        E 0 9c 43 64
        E 0 9c 3b 64
        E 94 8c 47 40
        E 0 8c 43 40
        E 0 8c 3b 40
        E 2 9c 45 64
        E 0 9c 42 64
        E 0 9c 3c 64
        E 94 8c 45 40
        E 0 8c 42 40
        E 0 8c 3c 40
        E 2 9c 43 64
        E 0 9c 40 64
        E 0 9c 3d 64
        E 94 8c 43 40
        E 0 8c 40 40
        E 0 8c 3d 40
        E 2 9c 42 64
        E 0 9c 3e 64
        E 574 8c 42 40
        E 0 8c 3e 40
        E 2 9c 45 64
        E 0 9c 3e 64
        E 0 9c 42 64
        E 142 8c 45 40
        E 0 8c 3e 40
        E 0 8c 42 40
        E 2 9c 45 64
        E 46 8c 45 40
        E 2 9c 49 64
        E 0 9c 40 64
        E 0 9c 43 64
        E 414 8c 49 40
        E 0 8c 40 40
        E 0 8c 43 40
        E 66 9c 43 64
        E 0 9c 47 64
        E 0 9c 3b 64
        E 94 8c 43 40
        E 0 8c 47 40
        E 0 8c 3b 40
        E 2 9c 45 64
        E 0 9c 3c 64
        E 0 9c 42 64
        E 94 8c 45 40
        E 0 8c 3c 40
        E 0 8c 42 40
        E 2 9c 3d 64
        E 0 9c 40 64
        E 0 9c 43 64
        E 94 8c 3d 40
        E 0 8c 40 40
        E 0 8c 43 40
        E 2 9c 42 64
        E 0 9c 3e 64
        E 574 8c 42 40
        E 0 8c 3e 40
        E 2 9c 42 64
        E 0 9c 3a 64
        E 0 9c 40 64
        E 142 8c 42 40
        E 2 9c 42 64
        E 46 8c 3a 40
        E 0 8c 40 40
        E 0 8c 42 40
        E 2 9c 42 64
        E 0 9c 3e 64
        E 0 9c 3b 64
        E 190 8c 3e 40
        E 0 8c 3b 40
        E 2 9c 3e 64
        E 0 9c 3b 64
        E 190 8c 3e 40
        E 0 8c 3b 40
        E 2 9c 40 64
        E 0 9c 3a 64
        E 30 8c 42 40
        E 66 9c 42 64
        E 94 8c 40 40
        E 0 8c 3a 40
        E 0 8c 42 40
        E 2 9c 3e 64
        E 0 9c 44 64
        E 0 9c 42 64
        E 94 8c 3e 40
        E 0 8c 44 40
        E 0 8c 42 40
        E 2 9c 40 64
        E 0 9c 3d 64
        E 0 9c 46 64
        E 94 8c 40 40
        E 0 8c 3d 40
        E 0 8c 46 40
        E 2 9c 40 64
        E 0 9c 46 64
        E 0 9c 3d 64
        E 94 8c 40 40
        E 0 8c 46 40
        E 0 8c 3d 40
        E 2 9c 3d 64
        E 0 9c 3e 64
        E 0 9c 47 64
        E 0 9c 3b 64
        E 94 8c 3d 40
        E 0 8c 3e 40
        E 0 8c 47 40
        E 0 8c 3b 40
        E 2 9c 3b 64
        E 0 9c 3e 64
        E 0 9c 47 64
        E 382 8c 3b 40
        E 0 8c 3e 40
        E 0 8c 47 40
        E 2 9c 43 64
        E 0 9c 47 64
        E 0 9c 3b 64
        E 142 8c 47 40
        E 2 9c 47 64
        E 46 8c 43 40
        E 0 8c 3b 40
        E 0 8c 47 40
        E 2 9c 43 64
        E 0 9c 40 64
        E 0 9c 47 64
        E 94 8c 47 40
        E 2 9c 45 64
        E 94 8c 43 40
        E 0 8c 40 40
        E 0 8c 45 40
        E 2 9c 45 64
        E 0 9c 43 64
        E 0 9c 3d 64
        E 382 8c 45 40
        E 0 8c 43 40
        E 0 8c 3d 40
        E 2 9c 3d 64
        E 0 9c 43 64
        E 94 8c 43 40
        E 96 8c 3d 40
        E 2 9c 3e 64
        E 0 9c 42 64
        E 190 8c 3e 40
        E 0 8c 42 40
        E 2 9c 4a 64
        E 0 9c 47 64
        E 0 9c 42 64
        E 382 8c 4a 40
        E 0 8c 47 40
        E 0 8c 42 40
        E 2 9c 49 64
        E 0 9c 45 64
        E 0 9c 3e 64
        E 94 8c 49 40
        E 0 8c 45 40
        E 2 9c 47 64
        E 0 9c 43 64
        E 94 8c 3e 40
        E 0 8c 47 40
        E 0 8c 43 40
        E 2 9c 47 64
        E 0 9c 42 64
        E 0 9c 3e 64
        E 190 8c 47 40
        E 2 9c 45 64
        E 190 8c 42 40
        E 0 8c 3e 40
        E 192 8c 45 40
        E 2 9c 37 64
        E 0 9c 3d 64
        E 0 9c 40 64
        E 94 8c 37 40
        E 2 9c 42 64
        E 94 8c 3d 40
        E 0 8c 40 40
        E 0 8c 42 40
        E 2 9c 36 64
        E 0 9c 3e 64
        E 382 8c 36 40
        E 0 8c 3e 40
        E 386 9c 42 64
        E 94 8c 42 40
        E 2 9c 44 64
        E 94 8c 44 40
        E 2 9c 45 64
        E 0 9c 3d 64
        E 0 9c 42 64
        E 190 8c 45 40
        E 0 8c 3d 40
        E 0 8c 42 40
        E 2 9c 45 64
        E 0 9c 3d 64
        E 0 9c 42 64
        E 190 8c 45 40
        E 0 8c 3d 40
        E 0 8c 42 40
        E 2 9c 45 64
        E 0 9c 3e 64
        E 0 9c 42 64
        E 94 8c 45 40
        E 0 8c 3e 40
        E 0 8c 42 40
        E 2 9c 45 64
        E 0 9c 42 64
        E 0 9c 3d 64
        E 94 8c 45 40
        E 0 8c 42 40
        E 0 8c 3d 40
        E 2 9c 44 64
        E 0 9c 3b 64
        E 0 9c 42 64
        E 94 8c 44 40
        E 0 8c 3b 40
        E 0 8c 42 40
        E 2 9c 3d 64
        E 0 9c 45 64
        E 0 9c 42 64
        E 94 8c 3d 40
        E 0 8c 45 40
        E 0 8c 42 40
        E 2 9c 47 64
        E 0 9c 3e 64
        E 0 9c 42 64
        E 94 8c 47 40
        E 0 8c 3e 40
        E 0 8c 42 40
        E 2 9c 45 64
        E 0 9c 3d 64
        E 0 9c 42 64
        E 94 8c 45 40
        E 0 8c 3d 40
        E 0 8c 42 40
        E 2 9c 44 64
        E 0 9c 42 64
        E 0 9c 3b 64
        E 94 8c 42 40
        E 2 9c 41 64
        E 94 8c 44 40
        E 0 8c 3b 40
        E 0 8c 41 40
        E 2 9c 42 64
        E 0 9c 3d 64
        E 0 9c 39 64
        E 190 8c 42 40
        E 0 8c 3d 40
        E 0 8c 39 40
        E 2 9c 45 64
        E 94 8c 45 40
        E 2 9c 47 64
        E 94 8c 47 40
        E 2 9c 49 64
        E 0 9c 40 64
        E 0 9c 45 64
        E 190 8c 49 40
        E 0 8c 40 40
        E 0 8c 45 40
        E 2 9c 49 64
        E 0 9c 40 64
        E 0 9c 45 64
        E 190 8c 49 40
        E 0 8c 40 40
        E 0 8c 45 40
        E 2 9c 45 64
        E 0 9c 42 64
        E 0 9c 49 64
        E 94 8c 45 40
        E 0 8c 42 40
        E 0 8c 49 40
        E 2 9c 49 64
        E 0 9c 40 64
        E 0 9c 45 64
        E 94 8c 49 40
        E 0 8c 40 40
        E 0 8c 45 40
        E 2 9c 47 64
        E 0 9c 45 64
        E 0 9c 3e 64
        E 94 8c 47 40
        E 0 8c 45 40
        E 0 8c 3e 40
        E 2 9c 45 64
        E 0 9c 49 64
        E 0 9c 40 64
        E 94 8c 45 40
        E 0 8c 49 40
        E 0 8c 40 40
        E 2 9c 42 64
        E 0 9c 4a 64
        E 0 9c 45 64
        E 94 8c 42 40
        E 0 8c 4a 40
        E 0 8c 45 40
        E 2 9c 49 64
        E 0 9c 45 64
        E 0 9c 40 64
        E 94 8c 49 40
        E 0 8c 45 40
        E 0 8c 40 40
        E 2 9c 45 64
        E 0 9c 47 64
        E 0 9c 3e 64
        E 94 8c 45 40
        E 2 9c 44 64
        E 94 8c 47 40
        E 0 8c 3e 40
        E 0 8c 44 40
        E 2 9c 3d 64
        E 0 9c 40 64
        E 0 9c 45 64
        E 190 8c 3d 40
        E 0 8c 40 40
        E 0 8c 45 40
        E 2 9c 45 64
        E 0 9c 49 64
        E 0 9c 40 64
        E 94 8c 45 40
        E 0 8c 49 40
        E 0 8c 40 40
        E 2 9c 45 64
        E 0 9c 40 64
        E 0 9c 49 64
        E 94 8c 45 40
        E 0 8c 40 40
        E 0 8c 49 40
        E 2 9c 40 64
        E 0 9c 49 64
        E 0 9c 45 64
        E 190 8c 40 40
        E 0 8c 49 40
        E 0 8c 45 40
        E 2 9c 47 64
        E 0 9c 42 64
        E 0 9c 3e 64
        E 190 8c 47 40
        E 0 8c 42 40
        E 0 8c 3e 40
        E 2 9c 47 64
        E 0 9c 3e 64
        E 0 9c 42 64
        E 94 8c 47 40
        E 0 8c 3e 40
        E 0 8c 42 40
        E 2 9c 47 64
        E 0 9c 3e 64
        E 0 9c 42 64
        E 94 8c 47 40
        E 0 8c 3e 40
        E 0 8c 42 40
        E 2 9c 47 64
        E 0 9c 3e 64
        E 0 9c 44 64
        E 94 8c 47 40
        E 0 8c 3e 40
        E 0 8c 44 40
        E 2 9c 49 64
        E 0 9c 40 64
        E 0 9c 44 64
        E 94 8c 49 40
        E 0 8c 40 40
        E 0 8c 44 40
        E 2 9c 42 64
        E 0 9c 47 64
        E 0 9c 3e 64
        E 94 8c 42 40
        E 2 9c 44 64
        E 94 8c 47 40
        E 0 8c 3e 40
        E 0 8c 44 40
        E 2 9c 45 64
        E 0 9c 3d 64
        E 0 9c 42 64
        E 190 8c 45 40
        E 0 8c 3d 40
        E 0 8c 42 40
        E 2 9c 45 64
        E 0 9c 3e 64
        E 0 9c 42 64
        E 94 8c 45 40
        E 0 8c 3e 40
        E 0 8c 42 40
        E 2 9c 45 64
        E 0 9c 3d 64
        E 0 9c 42 64
        E 94 8c 45 40
        E 0 8c 3d 40
        E 0 8c 42 40
        E 2 9c 44 64
        E 0 9c 42 64
        E 0 9c 3b 64
        E 94 8c 44 40
        E 0 8c 42 40
        E 0 8c 3b 40
        E 2 9c 45 64
        E 0 9c 3d 64
        E 0 9c 42 64
        E 94 8c 45 40
        E 0 8c 3d 40
        E 0 8c 42 40
        E 2 9c 47 64
        E 0 9c 3e 64
        E 0 9c 42 64
        E 94 8c 47 40
        E 0 8c 3e 40
        E 0 8c 42 40
        E 2 9c 3d 64
        E 0 9c 42 64
        E 0 9c 45 64
        E 94 8c 3d 40
        E 0 8c 42 40
        E 0 8c 45 40
        E 2 9c 44 64
        E 0 9c 42 64
        E 0 9c 3b 64
        E 94 8c 42 40
        E 2 9c 41 64
        E 94 8c 44 40
        E 0 8c 3b 40
        E 0 8c 41 40
        E 2 9c 42 64
        E 0 9c 39 64
        E 0 9c 3d 64
        E 190 8c 42 40
        E 0 8c 39 40
        E 0 8c 3d 40
        E 2 9c 45 64
        E 0 9c 49 64
        E 0 9c 40 64
        E 94 8c 45 40
        E 0 8c 49 40
        E 0 8c 40 40
        E 2 9c 45 64
        E 0 9c 40 64
        E 0 9c 49 64
        E 94 8c 45 40
        E 0 8c 40 40
        E 0 8c 49 40
        E 2 9c 40 64
        E 0 9c 49 64
        E 0 9c 45 64
        E 190 8c 40 40
        E 0 8c 49 40
        E 0 8c 45 40
        E 2 9c 47 64
        E 0 9c 42 64
        E 0 9c 3e 64
        E 190 8c 47 40
        E 0 8c 42 40
        E 0 8c 3e 40
        E 2 9c 47 64
        E 0 9c 3e 64
        E 0 9c 42 64
        E 94 8c 47 40
        E 0 8c 3e 40
        E 0 8c 42 40
        E 2 9c 47 64
        E 0 9c 3e 64
        E 0 9c 42 64
        E 94 8c 47 40
        E 0 8c 3e 40
        E 0 8c 42 40
        E 2 9c 47 64
        E 0 9c 3e 64
        E 0 9c 44 64
        E 94 8c 47 40
        E 0 8c 3e 40
        E 0 8c 44 40
        E 2 9c 49 64
        E 0 9c 40 64
        E 0 9c 44 64
        E 94 8c 49 40
        E 0 8c 40 40
        E 0 8c 44 40
        E 2 9c 42 64
        E 0 9c 47 64
        E 0 9c 3e 64
        E 94 8c 42 40
        E 2 9c 44 64
        E 94 8c 47 40
        E 0 8c 3e 40
        E 0 8c 44 40
        E 2 9c 45 64
        E 0 9c 3d 64
        E 0 9c 42 64
        E 190 8c 45 40
        E 0 8c 3d 40
        E 0 8c 42 40
        E 2 9c 45 64
        E 0 9c 3e 64
        E 0 9c 42 64
        E 94 8c 45 40
        E 0 8c 3e 40
        E 0 8c 42 40
        E 2 9c 45 64
        E 0 9c 3d 64
        E 0 9c 42 64
        E 94 8c 45 40
        E 0 8c 3d 40
        E 0 8c 42 40
        E 2 9c 44 64
        E 0 9c 42 64
        E 0 9c 3b 64
        E 94 8c 44 40
        E 0 8c 42 40
        E 0 8c 3b 40
        E 2 9c 45 64
        E 0 9c 3d 64
        E 0 9c 42 64
        E 94 8c 45 40
        E 0 8c 3d 40
        E 0 8c 42 40
        E 2 9c 47 64
        E 0 9c 3e 64
        E 0 9c 42 64
        E 94 8c 47 40
        E 0 8c 3e 40
        E 0 8c 42 40
        E 2 9c 3d 64
        E 0 9c 42 64
        E 0 9c 45 64
        E 94 8c 3d 40
        E 0 8c 42 40
        E 0 8c 45 40
        E 2 9c 44 64
        E 0 9c 42 64
        E 0 9c 3b 64
        E 94 8c 42 40
        E 2 9c 41 64
        E 94 8c 44 40
        E 0 8c 3b 40
        E 0 8c 41 40
        E 2 9c 42 64
        E 0 9c 39 64
        E 0 9c 3d 64
        E 575 8c 3d 40
        E 0 8c 39 40
        E 0 8c 42 40
        E 1 b0 7b 00
        GUID {8A0F1FAE-685C-FA46-BD12-7EB95EE923A1}
        IGNTEMPO 0 120 4 4
        SRCCOLOR 620
        VELLANE -1 86 6
      >
    >
    <ITEM
      POSITION 0
      SNAPOFFS 0
      LENGTH 55
      LOOP 1
      ALLTAKES 0
      FADEIN 1 0 0 1 0 0
      FADEOUT 1 0 0 1 0 0
      MUTE 0
      SEL 0
      YPOS 0.555556 0.111111
      IGUID {42B241D2-3FD8-3E44-86A7-63CDEAA51C55}
      IID 9
      NAME "lh                   - National_Anthems_-_Czech_Republic.mid"
      VOLPAN 1 0 1 -1
      SOFFS 0 0
      PLAYRATE 1 1 0 -1 0 0.0025
      CHANMODE 0
      GUID {DE7ABDB5-B558-214F-8CAF-249805253282}
      <SOURCE MIDI
        HASDATA 1 192 QN
        POOLEDEVTS {F1B4CA48-5514-2540-BC5F-4365916EBF4D}
        <X 0 0
          /wNsaCAgICAgICAgICAgICAgICAgIA==
        >
        E 0 9d 26 64
        E 0 9d 32 64
        E 190 8d 26 40
        E 0 8d 32 40
        E 2 9d 39 64
        E 0 9d 36 64
        E 0 9d 32 64
        E 382 8d 39 40
        E 0 8d 36 40
        E 0 8d 32 40
        E 2 9d 3b 64
        E 0 9d 32 64
        E 0 9d 37 64
        E 94 8d 3b 40
        E 0 8d 32 40
        E 0 8d 37 40
        E 2 9d 39 64
        E 0 9d 36 64
        E 0 9d 32 64
        E 94 8d 39 40
        E 0 8d 36 40
        E 0 8d 32 40
        E 2 9d 37 64
        E 0 9d 34 64
        E 190 8d 37 40
        E 0 8d 34 40
        E 2 9d 2d 64
        E 382 8d 2d 40
        E 2 9d 2d 64
        E 190 8d 2d 40
        E 2 9d 32 64
        E 190 8d 32 40
        E 2 9d 30 64
        E 190 8d 30 40
        E 2 9d 2f 64
        E 190 8d 2f 40
        E 2 9d 2d 64
        E 190 8d 2d 40
        E 2 9d 2b 64
        E 190 8d 2b 40
        E 2 9d 2a 64
        E 190 8d 2a 40
        E 2 9d 28 64
        E 190 8d 28 40
        E 2 9d 2a 64
        E 94 8d 2a 40
        E 2 9d 2b 64
        E 94 8d 2b 40
        E 2 9d 2a 64
        E 190 8d 2a 40
        E 2 9d 2f 64
        E 190 8d 2f 40
        E 2 9d 32 64
        E 190 8d 32 40
        E 2 9d 30 64
        E 190 8d 30 40
        E 2 9d 2f 64
        E 190 8d 2f 40
        E 2 9d 2b 64
        E 190 8d 2b 40
        E 2 9d 28 64
        E 190 8d 28 40
        E 2 9d 29 64
        E 190 8d 29 40
        E 2 9d 2a 64
        E 94 8d 2a 40
        E 2 9d 31 64
        E 94 8d 31 40
        E 2 9d 36 64
        E 94 8d 36 40
        E 2 9d 38 64
        E 94 8d 38 40
        E 2 9d 39 64
        E 190 8d 39 40
        E 2 9d 36 64
        E 190 8d 36 40
        E 2 9d 34 64
        E 94 8d 34 40
        E 2 9d 2d 64
        E 94 8d 2d 40
        E 2 9d 31 64
        E 94 8d 31 40
        E 2 9d 34 64
        E 94 8d 34 40
        E 2 9d 39 64
        E 190 8d 39 40
        E 2 9d 2d 64
        E 190 8d 2d 40
        E 2 9d 26 64
        E 94 8d 26 40
        E 2 9d 2d 64
        E 94 8d 2d 40
        E 2 9d 32 64
        E 94 8d 32 40
        E 2 9d 34 64
        E 94 8d 34 40
        E 2 9d 36 64
        E 190 8d 36 40
        E 2 9d 32 64
        E 190 8d 32 40
        E 2 9d 34 64
        E 94 8d 34 40
        E 2 9d 2d 64
        E 94 8d 2d 40
        E 2 9d 31 64
        E 94 8d 31 40
        E 2 9d 34 64
        E 94 8d 34 40
        E 2 9d 39 64
        E 190 8d 39 40
        E 2 9d 2d 64
        E 190 8d 2d 40
        E 2 9d 26 64
        E 94 8d 26 40
        E 2 9d 2d 64
        E 94 8d 2d 40
        E 2 9d 32 64
        E 94 8d 32 40
        E 2 9d 34 64
        E 94 8d 34 40
        E 2 9d 36 64
        E 94 8d 36 40
        E 2 9d 34 64
        E 94 8d 34 40
        E 2 9d 32 64
        E 94 8d 32 40
        E 2 9d 31 64
        E 94 8d 31 40
        E 2 9d 2f 64
        E 94 8d 2f 40
        E 2 9d 2a 64
        E 94 8d 2a 40
        E 2 9d 2f 64
        E 94 8d 2f 40
        E 2 9d 32 64
        E 94 8d 32 40
        E 2 9d 31 64
        E 190 8d 31 40
        E 2 9d 2a 64
        E 190 8d 2a 40
        E 2 9d 2f 64
        E 94 8d 2f 40
        E 2 9d 2a 64
        E 94 8d 2a 40
        E 2 9d 2f 64
        E 94 8d 2f 40
        E 2 9d 32 64
        E 94 8d 32 40
        E 2 9d 36 64
        E 190 8d 36 40
        E 2 9d 34 64
        E 94 8d 34 40
        E 2 9d 32 64
        E 94 8d 32 40
        E 2 9d 31 64
        E 190 8d 31 40
        E 2 9d 34 64
        E 190 8d 34 40
        E 2 9d 2d 64
        E 190 8d 2d 40
        E 2 9d 34 64
        E 190 8d 34 40
        E 2 9d 2f 64
        E 94 8d 2f 40
        E 2 9d 32 64
        E 94 8d 32 40
        E 2 9d 36 64
        E 94 8d 36 40
        E 2 9d 3b 64
        E 94 8d 3b 40
        E 2 9d 3e 64
        E 190 8d 3e 40
        E 2 9d 2b 64
        E 190 8d 2b 40
        E 2 9d 2f 64
        E 94 8d 2f 40
        E 2 9d 32 64
        E 94 8d 32 40
        E 2 9d 36 64
        E 94 8d 36 40
        E 2 9d 32 64
        E 94 8d 32 40
        E 2 9d 39 64
        E 190 8d 39 40
        E 2 9d 2d 64
        E 190 8d 2d 40
        E 2 9d 32 64
        E 94 8d 32 40
        E 2 9d 2d 64
        E 94 8d 2d 40
        E 2 9d 2a 64
        E 94 8d 2a 40
        E 2 9d 2d 64
        E 94 8d 2d 40
        E 2 9d 26 64
        E 382 8d 26 40
        E 194 9d 2a 64
        E 94 8d 2a 40
        E 2 9d 2c 64
        E 94 8d 2c 40
        E 2 9d 2d 64
        E 190 8d 2d 40
        E 2 9d 2f 64
        E 94 8d 2f 40
        E 2 9d 31 64
        E 94 8d 31 40
        E 2 9d 32 64
        E 94 8d 32 40
        E 2 9d 31 64
        E 94 8d 31 40
        E 2 9d 2f 64
        E 94 8d 2f 40
        E 2 9d 31 64
        E 94 8d 31 40
        E 2 9d 32 64
        E 94 8d 32 40
        E 2 9d 31 64
        E 94 8d 31 40
        E 2 9d 36 64
        E 190 8d 36 40
        E 194 9d 2d 64
        E 94 8d 2d 40
        E 2 9d 2f 64
        E 94 8d 2f 40
        E 2 9d 31 64
        E 190 8d 31 40
        E 2 9d 32 64
        E 94 8d 32 40
        E 2 9d 34 64
        E 94 8d 34 40
        E 2 9d 36 64
        E 94 8d 36 40
        E 2 9d 34 64
        E 94 8d 34 40
        E 2 9d 32 64
        E 94 8d 32 40
        E 2 9d 34 64
        E 94 8d 34 40
        E 2 9d 36 64
        E 94 8d 36 40
        E 2 9d 34 64
        E 94 8d 34 40
        E 2 9d 39 64
        E 190 8d 39 40
        E 2 9d 39 64
        E 94 8d 39 40
        E 2 9d 36 64
        E 94 8d 36 40
        E 2 9d 38 64
        E 94 8d 38 40
        E 2 9d 39 64
        E 94 8d 39 40
        E 2 9d 3b 64
        E 94 8d 3b 40
        E 2 9d 2f 64
        E 94 8d 2f 40
        E 2 9d 31 64
        E 94 8d 31 40
        E 2 9d 32 64
        E 94 8d 32 40
        E 2 9d 34 64
        E 94 8d 34 40
        E 2 9d 31 64
        E 94 8d 31 40
        E 2 9d 32 64
        E 94 8d 32 40
        E 2 9d 34 64
        E 94 8d 34 40
        E 2 9d 36 64
        E 94 8d 36 40
        E 2 9d 2d 64
        E 94 8d 2d 40
        E 2 9d 2f 64
        E 94 8d 2f 40
        E 2 9d 31 64
        E 94 8d 31 40
        E 2 9d 32 64
        E 94 8d 32 40
        E 2 9d 31 64
        E 94 8d 31 40
        E 2 9d 2f 64
        E 94 8d 2f 40
        E 2 9d 31 64
        E 94 8d 31 40
        E 2 9d 32 64
        E 94 8d 32 40
        E 2 9d 31 64
        E 94 8d 31 40
        E 2 9d 2a 64
        E 190 8d 2a 40
        E 2 9d 39 64
        E 94 8d 39 40
        E 2 9d 36 64
        E 94 8d 36 40
        E 2 9d 38 64
        E 94 8d 38 40
        E 2 9d 39 64
        E 94 8d 39 40
        E 2 9d 3b 64
        E 94 8d 3b 40
        E 2 9d 2f 64
        E 94 8d 2f 40
        E 2 9d 31 64
        E 94 8d 31 40
        E 2 9d 32 64
        E 94 8d 32 40
        E 2 9d 34 64
        E 94 8d 34 40
        E 2 9d 31 64
        E 94 8d 31 40
        E 2 9d 32 64
        E 94 8d 32 40
        E 2 9d 34 64
        E 94 8d 34 40
        E 2 9d 36 64
        E 94 8d 36 40
        E 2 9d 2d 64
        E 94 8d 2d 40
        E 2 9d 2f 64
        E 94 8d 2f 40
        E 2 9d 31 64
        E 94 8d 31 40
        E 2 9d 32 64
        E 94 8d 32 40
        E 2 9d 31 64
        E 94 8d 31 40
        E 2 9d 2f 64
        E 94 8d 2f 40
        E 2 9d 31 64
        E 94 8d 31 40
        E 2 9d 32 64
        E 94 8d 32 40
        E 2 9d 31 64
        E 94 8d 31 40
        E 2 9d 2a 64
        E 575 8d 2a 40
        E 1 b0 7b 00
        GUID {FEC44394-8345-7B44-91B0-C8FFD41B867E}
        IGNTEMPO 0 120 4 4
        SRCCOLOR 621
        VELLANE -1 86 6
      >
    >
  >
  <TRACK {F4CC3575-1D7D-424F-8F4B-C71B325A2484}
    NAME ""
    PEAKCOL 16576
    BEAT -1
    AUTOMODE 0
    VOLPAN 1 0 -1 -1 1
    MUTESOLO 0 0 0
    IPHASE 0
    ISBUS 1 1
    BUSCOMP 0 0
    SHOWINMIX 1 0.6667 0.5 0 0.5 -1 -1 -1
    FREEMODE 0
    SEL 0
    REC 0 0 0 0 0 0 0
    VU 2
    TRACKHEIGHT 0 0
    INQ 0 0 0 0.5 100 0 0 100
    NCHAN 2
    FX 1
    TRACKID {F4CC3575-1D7D-424F-8F4B-C71B325A2484}
    PERF 0
    MIDIOUT -1
    MAINSEND 1 0
    <FXCHAIN
      SHOW 0
      LASTSEL 0
      DOCKED 0
      BYPASS 0 0 0
      <VST "VSTi: chipsounds (Plogue Art et Technologie, Inc)" chipsounds.vst 0 ""
        T0dMUO5e7f4AAAAAAgAAAAEAAAAAAAAAAgAAAAAAAAA5AgAAAQAAAAAAEABDRUdQ6AcAAHic5VXfb9owEH7nr7D8tD00iUOBIQEVo2VCGioaTNpbdSTX1JrjMNthbf/6
        OU5CYVSqJ21Pu5fcnb/78fnAN7p6zAXZo9K8kGPKgoiSq0lnNFUc1rDHo6N+FNNJh1gZrdEYLjNNfpQguHmyp5RkotiCWBXCmt2YEm0UQm5htZnD49p5pkIUyfLjmPaY
        dS8X14vb0iyLFF0WKE2Rg7El16IwY2r70Yk9qRImIMB6GLkgWFUOdCIa9wylQTWm/ahtZFNKVzsKIieUhG33NjHhqcstIccqZUBWpUIye+C7MJ5G38Ivq+pD3pVS8Jwb
        TN9TsgX5fWHjWBQNKUkeQEoUY3ph29452qxPiTmru9veKZAZVsiD01iX3hUaXRt5aWpF/7wToB3vulvX8RK4bDvegyjRTeqU1imQHYBn/E+BsS+w6wu89AX2fIF9X+DA
        F/jBFzj0BbLIG+k9G+Y9HOY9HeY9HvbWfFagIG+SvnTK4tfRG1AZmuYPlxR5sBJFVmJQvTTB5/ltUGpUx796FzUrtX0PrsEAMU87GxnH3b69QM2frXFZzbF9oGw9lCmH
        Wk1tiFVamdefOPq7ckoxrDn+KWn2n5DeKJ5lqNb27UaZoHqTNhvEbNjS7g2OaMev0WYN60Zqe+D07mwwH56QmEXd+T+8iFFYbZlGv7m/x8Scr51pvuXVTfy+WdpF9enr
        og2AxPA9Lg47sbZvXnYkClsC0w1s64Vkc4zCdotPOr8A3pP6sgAAEAAAAA==
      >
      FLOATPOS 404 36 871 509
      FXID {8431A072-55F4-FD4E-8B7D-D2D9F1493C94}
      WAK 0
    >
  >
  <TRACK {65BF5D08-DF3D-EA42-ADEF-5C04FE4BCE10}
    NAME ""
    PEAKCOL 16576
    BEAT -1
    AUTOMODE 0
    VOLPAN 1 0 -1 -1 1
    MUTESOLO 0 0 0
    IPHASE 0
    ISBUS 0 0
    BUSCOMP 0 0
    SHOWINMIX 1 0.6667 0.5 0 0.5 -1 -1 -1
    FREEMODE 0
    SEL 0
    REC 0 0 0 0 0 0 0
    VU 2
    TRACKHEIGHT 0 0
    INQ 0 0 0 0.5 100 0 0 100
    NCHAN 2
    FX 1
    TRACKID {65BF5D08-DF3D-EA42-ADEF-5C04FE4BCE10}
    PERF 0
    MIDIOUT -1
    MAINSEND 1 0
    <ITEM
      POSITION 0
      SNAPOFFS 0
      LENGTH 55
      LOOP 1
      ALLTAKES 0
      FADEIN 1 0 0 1 0 0
      FADEOUT 1 0 0 1 0 0
      MUTE 0
      SEL 0
      YPOS 0 0.111111
      IGUID {EEFAB2DE-F36C-3642-9A40-9838334FF978}
      IID 1
      NAME "Melody               - National_Anthems_-_Czech_Republic.mid"
      VOLPAN 1 0 1 -1
      SOFFS 0 0
      PLAYRATE 1 1 0 -1 0 0.0025
      CHANMODE 0
      GUID {149EAC15-D9E8-0049-8628-8D49336324B6}
      <SOURCE MIDI
        HASDATA 1 192 QN
        POOLEDEVTS {195DBCD5-3A29-164A-A317-BBA2A9D8B3B0}
        <X 0 0
          /wNNZWxvZHkgICAgICAgICAgICAgIA==
        >
        <X 0 0
          /wFmSEUgU09GVFdBUkUgVE9PTFdPUktT
        >
        <X 0 0
          /wFXT1JMRCBBVExBUw==
        >
        <X 0 0
          /wFNdWx0aU1lZGlhIFdpbmRvd3MgVmVyc2lvbg==
        >
        <X 0 0
          /wFDb3VudHJ5Og==
        >
        <X 0 0
          /wFBbnRoZW0gTmFtZTo=
        >
        <X 0 0
          /wEocCkgKGMpIFRoZSBTb2Z0d2FyZSBUb29sd29ya3MgMTk5MQ==
        >
        <X 0 0
          /wFub3Rlczo=
        >
        <X 0 0
          /wFkYXRlOg==
        >
        <X 0 0
          /wFlZGl0IGRhdGU6IDktMi05MQ==
        >
        <X 0 0
          /wFCUE06
        >
        <X 0 0
          /wE/PSBubyBtYXJraW5nICE9IGJwbSBwcm92aWRlZA==
        >
        <X 0 0
          /wFUaGlzIGZpbGUgcHJvdmlkZWQgYnk6
        >
        <X 0 0
          /wFSb2IgV2FsbGFjZSBNdXNpYw==
        >
        <X 0 0
          /wEoNjAyKSA5NzgtMDgzNQ==
        >
        <X 0 0
          /wFuZXcgIzogezYwMn0gOTc5LTYyMDE=
        >
        <X 0 0
          /wFNVUxUSU1FRElBIFdJTkRPV1MgVkVSU0lPTg==
        >
        E 192 90 45 64
        E 382 80 45 40
        E 2 90 47 64
        E 94 80 47 40
        E 2 90 45 64
        E 94 80 45 40
        E 2 90 40 64
        E 190 80 40 40
        E 2 90 43 64
        E 382 80 43 40
        E 2 90 42 64
        E 94 80 42 40
        E 2 90 40 64
        E 94 80 40 40
        E 2 90 3e 64
        E 382 80 3e 40
        E 194 90 3e 64
        E 142 80 3e 40
        E 2 90 3e 64
        E 46 80 3e 40
        E 2 90 3e 64
        E 94 80 3e 40
        E 2 90 43 64
        E 94 80 43 40
        E 2 90 43 64
        E 382 80 43 40
        E 2 90 45 64
        E 94 80 45 40
        E 2 90 47 64
        E 94 80 47 40
        E 2 90 45 64
        E 94 80 45 40
        E 2 90 42 64
        E 94 80 42 40
        E 2 90 3e 64
        E 382 80 3e 40
        E 2 90 3e 64
        E 81 80 3e 40
        E 15 90 3e 64
        E 81 80 3e 40
        E 15 90 3e 64
        E 94 80 3e 40
        E 2 90 43 64
        E 94 80 43 40
        E 2 90 43 64
        E 94 80 43 40
        E 2 90 47 64
        E 94 80 47 40
        E 2 90 4a 64
        E 190 80 4a 40
        E 2 90 49 64
        E 94 80 49 40
        E 2 90 47 64
        E 94 80 47 40
        E 2 90 47 64
        E 190 80 47 40
        E 2 90 45 64
        E 382 80 45 40
        E 2 90 45 64
        E 142 80 45 40
        E 2 90 45 64
        E 46 80 45 40
        E 2 90 45 64
        E 478 80 45 40
        E 2 90 47 64
        E 94 80 47 40
        E 2 90 45 64
        E 94 80 45 40
        E 2 90 43 64
        E 94 80 43 40
        E 2 90 42 64
        E 574 80 42 40
        E 2 90 45 64
        E 142 80 45 40
        E 2 90 45 64
        E 46 80 45 40
        E 2 90 49 64
        E 478 80 49 40
        E 2 90 47 64
        E 94 80 47 40
        E 2 90 45 64
        E 94 80 45 40
        E 2 90 43 64
        E 94 80 43 40
        E 2 90 42 64
        E 382 80 42 40
        E 194 90 42 64
        E 142 80 42 40
        E 2 90 42 64
        E 46 80 42 40
        E 2 90 42 64
        E 478 80 42 40
        E 2 90 42 64
        E 94 80 42 40
        E 2 90 44 64
        E 94 80 44 40
        E 2 90 46 64
        E 94 80 46 40
        E 2 90 46 64
        E 94 80 46 40
        E 2 90 47 64
        E 94 80 47 40
        E 2 90 47 64
        E 382 80 47 40
        E 2 90 47 64
        E 142 80 47 40
        E 2 90 47 64
        E 46 80 47 40
        E 2 90 47 64
        E 94 80 47 40
        E 2 90 45 64
        E 94 80 45 40
        E 2 90 45 64
        E 382 80 45 40
        E 2 90 43 64
        E 94 80 43 40
        E 2 90 45 64
        E 94 80 45 40
        E 2 90 42 64
        E 190 80 42 40
        E 2 90 4a 64
        E 382 80 4a 40
        E 2 90 49 64
        E 94 80 49 40
        E 2 90 47 64
        E 94 80 47 40
        E 2 90 47 64
        E 190 80 47 40
        E 2 90 45 64
        E 382 80 45 40
        E 2 90 40 64
        E 94 80 40 40
        E 2 90 42 64
        E 94 80 42 40
        E 2 90 3e 64
        E 382 80 3e 40
        E 386 90 42 64
        E 94 80 42 40
        E 2 90 44 64
        E 94 80 44 40
        E 2 90 45 64
        E 190 80 45 40
        E 2 90 45 64
        E 190 80 45 40
        E 2 90 45 64
        E 94 80 45 40
        E 2 90 45 64
        E 94 80 45 40
        E 2 90 44 64
        E 94 80 44 40
        E 2 90 45 64
        E 94 80 45 40
        E 2 90 47 64
        E 94 80 47 40
        E 2 90 45 64
        E 94 80 45 40
        E 2 90 44 64
        E 190 80 44 40
        E 2 90 42 64
        E 190 80 42 40
        E 2 90 45 64
        E 94 80 45 40
        E 2 90 47 64
        E 94 80 47 40
        E 2 90 49 64
        E 190 80 49 40
        E 2 90 49 64
        E 190 80 49 40
        E 2 90 49 64
        E 94 80 49 40
        E 2 90 49 64
        E 94 80 49 40
        E 2 90 47 64
        E 94 80 47 40
        E 2 90 49 64
        E 94 80 49 40
        E 2 90 4a 64
        E 94 80 4a 40
        E 2 90 49 64
        E 94 80 49 40
        E 2 90 47 64
        E 190 80 47 40
        E 2 90 45 64
        E 190 80 45 40
        E 2 90 49 64
        E 94 80 49 40
        E 2 90 49 64
        E 94 80 49 40
        E 2 90 49 64
        E 190 80 49 40
        E 2 90 47 64
        E 190 80 47 40
        E 2 90 47 64
        E 94 80 47 40
        E 2 90 47 64
        E 94 80 47 40
        E 2 90 47 64
        E 94 80 47 40
        E 2 90 49 64
        E 94 80 49 40
        E 2 90 47 64
        E 190 80 47 40
        E 2 90 45 64
        E 190 80 45 40
        E 2 90 45 64
        E 94 80 45 40
        E 2 90 45 64
        E 94 80 45 40
        E 2 90 44 64
        E 94 80 44 40
        E 2 90 45 64
        E 94 80 45 40
        E 2 90 47 64
        E 94 80 47 40
        E 2 90 45 64
        E 94 80 45 40
        E 2 90 44 64
        E 190 80 44 40
        E 2 90 42 64
        E 190 80 42 40
        E 2 90 49 64
        E 94 80 49 40
        E 2 90 49 64
        E 94 80 49 40
        E 2 90 49 64
        E 190 80 49 40
        E 2 90 47 64
        E 190 80 47 40
        E 2 90 47 64
        E 94 80 47 40
        E 2 90 47 64
        E 94 80 47 40
        E 2 90 47 64
        E 94 80 47 40
        E 2 90 49 64
        E 94 80 49 40
        E 2 90 47 64
        E 190 80 47 40
        E 2 90 45 64
        E 190 80 45 40
        E 2 90 45 64
        E 94 80 45 40
        E 2 90 45 64
        E 94 80 45 40
        E 2 90 44 64
        E 94 80 44 40
        E 2 90 45 64
        E 94 80 45 40
        E 2 90 47 64
        E 94 80 47 40
        E 2 90 45 64
        E 94 80 45 40
        E 2 90 44 64
        E 190 80 44 40
        E 2 90 42 64
        E 575 80 42 40
        E 1 b0 7b 00
        GUID {F0515AA7-8A51-3542-B11F-E7CB0F51850B}
        IGNTEMPO 0 120 4 4
        SRCCOLOR 613
        VELLANE -1 86 6
      >
    >
  >
  <TRACK {533E5558-895F-AD41-AFED-94D097E72BF2}
    NAME ""
    PEAKCOL 16576
    BEAT -1
    AUTOMODE 0
    VOLPAN 1 0 -1 -1 1
    MUTESOLO 1 0 0
    IPHASE 0
    ISBUS 2 -1
    BUSCOMP 0 0
    SHOWINMIX 1 0.6667 0.5 0 0.5 -1 -1 -1
    FREEMODE 0
    SEL 0
    REC 0 0 0 0 0 0 0
    VU 2
    TRACKHEIGHT 0 0
    INQ 0 0 0 0.5 100 0 0 100
    NCHAN 2
    FX 1
    TRACKID {533E5558-895F-AD41-AFED-94D097E72BF2}
    PERF 0
    MIDIOUT -1
    MAINSEND 1 0
    <ITEM
      POSITION 0
      SNAPOFFS 0
      LENGTH 55
      LOOP 1
      ALLTAKES 0
      FADEIN 1 0 0 1 0 0
      FADEOUT 1 0 0 1 0 0
      MUTE 0
      SEL 0
      YPOS 0.333333 0.111111
      IGUID {74534FFF-F667-2547-B444-3B586A00B21C}
      IID 4
      NAME "Bass                 - National_Anthems_-_Czech_Republic.mid"
      VOLPAN 1 0 1 -1
      SOFFS 0 0
      PLAYRATE 1 1 0 -1 0 0.0025
      CHANMODE 0
      GUID {0584428E-4BC1-A54D-B590-5F56F799317D}
      <SOURCE MIDI
        HASDATA 1 192 QN
        POOLEDEVTS {D765F0FE-6DA2-B041-BBA8-CE6D4AAB3DE8}
        <X 0 0
          /wNCYXNzICAgICAgICAgICAgICAgIA==
        >
        E 0 93 32 64
        E 190 83 32 40
        E 2 93 32 64
        E 382 83 32 40
        E 2 93 32 64
        E 94 83 32 40
        E 2 93 32 64
        E 94 83 32 40
        E 2 93 34 64
        E 190 83 34 40
        E 2 93 2d 64
        E 382 83 2d 40
        E 2 93 2d 64
        E 190 83 2d 40
        E 2 93 32 64
        E 190 83 32 40
        E 2 93 30 64
        E 190 83 30 40
        E 2 93 2f 64
        E 190 83 2f 40
        E 2 93 2d 64
        E 190 83 2d 40
        E 2 93 2b 64
        E 190 83 2b 40
        E 2 93 2a 64
        E 190 83 2a 40
        E 2 93 28 64
        E 190 83 28 40
        E 2 93 2a 64
        E 94 83 2a 40
        E 2 93 2b 64
        E 94 83 2b 40
        E 2 93 2a 64
        E 190 83 2a 40
        E 2 93 2f 64
        E 190 83 2f 40
        E 2 93 32 64
        E 190 83 32 40
        E 2 93 30 64
        E 190 83 30 40
        E 2 93 2f 64
        E 190 83 2f 40
        E 2 93 2b 64
        E 190 83 2b 40
        E 2 93 28 64
        E 190 83 28 40
        E 2 93 29 64
        E 190 83 29 40
        E 2 93 2a 64
        E 94 83 2a 40
        E 2 93 31 64
        E 94 83 31 40
        E 2 93 36 64
        E 94 83 36 40
        E 2 93 38 64
        E 94 83 38 40
        E 2 93 39 64
        E 190 83 39 40
        E 2 93 36 64
        E 190 83 36 40
        E 2 93 34 64
        E 94 83 34 40
        E 2 93 2d 64
        E 94 83 2d 40
        E 2 93 31 64
        E 94 83 31 40
        E 2 93 34 64
        E 94 83 34 40
        E 2 93 39 64
        E 190 83 39 40
        E 2 93 2d 64
        E 190 83 2d 40
        E 2 93 26 64
        E 94 83 26 40
        E 2 93 2d 64
        E 94 83 2d 40
        E 2 93 32 64
        E 94 83 32 40
        E 2 93 34 64
        E 94 83 34 40
        E 2 93 36 64
        E 190 83 36 40
        E 2 93 32 64
        E 190 83 32 40
        E 2 93 34 64
        E 94 83 34 40
        E 2 93 2d 64
        E 94 83 2d 40
        E 2 93 31 64
        E 94 83 31 40
        E 2 93 34 64
        E 94 83 34 40
        E 2 93 39 64
        E 190 83 39 40
        E 2 93 2d 64
        E 190 83 2d 40
        E 2 93 26 64
        E 94 83 26 40
        E 2 93 2d 64
        E 94 83 2d 40
        E 2 93 32 64
        E 94 83 32 40
        E 2 93 34 64
        E 94 83 34 40
        E 2 93 36 64
        E 94 83 36 40
        E 2 93 34 64
        E 94 83 34 40
        E 2 93 32 64
        E 94 83 32 40
        E 2 93 31 64
        E 94 83 31 40
        E 2 93 2f 64
        E 94 83 2f 40
        E 2 93 2a 64
        E 94 83 2a 40
        E 2 93 2f 64
        E 94 83 2f 40
        E 2 93 32 64
        E 94 83 32 40
        E 2 93 31 64
        E 190 83 31 40
        E 2 93 2a 64
        E 190 83 2a 40
        E 2 93 2f 64
        E 94 83 2f 40
        E 2 93 2a 64
        E 94 83 2a 40
        E 2 93 2f 64
        E 94 83 2f 40
        E 2 93 32 64
        E 94 83 32 40
        E 2 93 36 64
        E 190 83 36 40
        E 2 93 34 64
        E 94 83 34 40
        E 2 93 32 64
        E 94 83 32 40
        E 2 93 31 64
        E 190 83 31 40
        E 2 93 34 64
        E 190 83 34 40
        E 2 93 2d 64
        E 190 83 2d 40
        E 2 93 34 64
        E 190 83 34 40
        E 2 93 2f 64
        E 94 83 2f 40
        E 2 93 32 64
        E 94 83 32 40
        E 2 93 36 64
        E 94 83 36 40
        E 2 93 3b 64
        E 94 83 3b 40
        E 2 93 3e 64
        E 190 83 3e 40
        E 2 93 2b 64
        E 190 83 2b 40
        E 2 93 2f 64
        E 94 83 2f 40
        E 2 93 32 64
        E 94 83 32 40
        E 2 93 36 64
        E 94 83 36 40
        E 2 93 32 64
        E 94 83 32 40
        E 2 93 39 64
        E 190 83 39 40
        E 2 93 2d 64
        E 190 83 2d 40
        E 2 93 32 64
        E 94 83 32 40
        E 2 93 2d 64
        E 94 83 2d 40
        E 2 93 2a 64
        E 94 83 2a 40
        E 2 93 2d 64
        E 94 83 2d 40
        E 2 93 26 64
        E 382 83 26 40
        E 194 93 2a 64
        E 94 83 2a 40
        E 2 93 2c 64
        E 94 83 2c 40
        E 2 93 2d 64
        E 190 83 2d 40
        E 2 93 2f 64
        E 94 83 2f 40
        E 2 93 31 64
        E 94 83 31 40
        E 2 93 32 64
        E 94 83 32 40
        E 2 93 31 64
        E 94 83 31 40
        E 2 93 2f 64
        E 94 83 2f 40
        E 2 93 31 64
        E 94 83 31 40
        E 2 93 32 64
        E 94 83 32 40
        E 2 93 31 64
        E 94 83 31 40
        E 2 93 36 64
        E 190 83 36 40
        E 194 93 2d 64
        E 94 83 2d 40
        E 2 93 2f 64
        E 94 83 2f 40
        E 2 93 31 64
        E 190 83 31 40
        E 2 93 32 64
        E 94 83 32 40
        E 2 93 34 64
        E 94 83 34 40
        E 2 93 36 64
        E 94 83 36 40
        E 2 93 34 64
        E 94 83 34 40
        E 2 93 32 64
        E 94 83 32 40
        E 2 93 34 64
        E 94 83 34 40
        E 2 93 36 64
        E 94 83 36 40
        E 2 93 34 64
        E 94 83 34 40
        E 2 93 39 64
        E 190 83 39 40
        E 2 93 39 64
        E 94 83 39 40
        E 2 93 36 64
        E 94 83 36 40
        E 2 93 38 64
        E 94 83 38 40
        E 2 93 39 64
        E 94 83 39 40
        E 2 93 3b 64
        E 94 83 3b 40
        E 2 93 2f 64
        E 94 83 2f 40
        E 2 93 31 64
        E 94 83 31 40
        E 2 93 32 64
        E 94 83 32 40
        E 2 93 34 64
        E 94 83 34 40
        E 2 93 31 64
        E 94 83 31 40
        E 2 93 32 64
        E 94 83 32 40
        E 2 93 34 64
        E 94 83 34 40
        E 2 93 36 64
        E 94 83 36 40
        E 2 93 2d 64
        E 94 83 2d 40
        E 2 93 2f 64
        E 94 83 2f 40
        E 2 93 31 64
        E 94 83 31 40
        E 2 93 32 64
        E 94 83 32 40
        E 2 93 31 64
        E 94 83 31 40
        E 2 93 2f 64
        E 94 83 2f 40
        E 2 93 31 64
        E 94 83 31 40
        E 2 93 32 64
        E 94 83 32 40
        E 2 93 31 64
        E 94 83 31 40
        E 2 93 2a 64
        E 190 83 2a 40
        E 2 93 39 64
        E 94 83 39 40
        E 2 93 36 64
        E 94 83 36 40
        E 2 93 38 64
        E 94 83 38 40
        E 2 93 39 64
        E 94 83 39 40
        E 2 93 3b 64
        E 94 83 3b 40
        E 2 93 2f 64
        E 94 83 2f 40
        E 2 93 31 64
        E 94 83 31 40
        E 2 93 32 64
        E 94 83 32 40
        E 2 93 34 64
        E 94 83 34 40
        E 2 93 31 64
        E 94 83 31 40
        E 2 93 32 64
        E 94 83 32 40
        E 2 93 34 64
        E 94 83 34 40
        E 2 93 36 64
        E 94 83 36 40
        E 2 93 2d 64
        E 94 83 2d 40
        E 2 93 2f 64
        E 94 83 2f 40
        E 2 93 31 64
        E 94 83 31 40
        E 2 93 32 64
        E 94 83 32 40
        E 2 93 31 64
        E 94 83 31 40
        E 2 93 2f 64
        E 94 83 2f 40
        E 2 93 31 64
        E 94 83 31 40
        E 2 93 32 64
        E 94 83 32 40
        E 2 93 31 64
        E 94 83 31 40
        E 2 93 2a 64
        E 575 83 2a 40
        E 1 b0 7b 00
        GUID {EF8451CE-E928-EF4A-B180-9F780CE44211}
        IGNTEMPO 0 120 4 4
        SRCCOLOR 616
        VELLANE -1 86 6
      >
    >
  >
  <TRACK {1B90A1B0-ACCC-6E4A-8D25-5823BFC61C80}
    NAME "22 Czech Republic"
    PEAKCOL 16576
    BEAT -1
    AUTOMODE 0
    VOLPAN 1 0 -1 -1 1
    MUTESOLO 0 0 0
    IPHASE 0
    ISBUS 0 0
    BUSCOMP 0 0
    SHOWINMIX 1 0.6667 0.5 0 0.5 -1 -1 -1
    FREEMODE 0
    SEL 0
    REC 0 0 0 0 0 0 0
    VU 2
    TRACKHEIGHT 0 0
    INQ 0 0 0 0.5 100 0 0 100
    NCHAN 2
    FX 1
    TRACKID {1B90A1B0-ACCC-6E4A-8D25-5823BFC61C80}
    PERF 0
    MIDIOUT -1
    MAINSEND 1 0
  >
  <EXTENSIONS
    <SWSAUTOCOLOR
      {00000000-0000-0000-0000-000000000000} 0 ""
      {49F72B05-4927-6248-8DCB-E69CF65AB3FA} 0 ""
      {F4CC3575-1D7D-424F-8F4B-C71B325A2484} 0 ""
      {65BF5D08-DF3D-EA42-ADEF-5C04FE4BCE10} 0 ""
      {533E5558-895F-AD41-AFED-94D097E72BF2} 0 ""
      {1B90A1B0-ACCC-6E4A-8D25-5823BFC61C80} 0 ""
    >
  >
>
